<?xml version="1.0" encoding="utf-8"?>
<!-- Generator: Adobe Illustrator 16.0.0, SVG Export Plug-In . SVG Version: 6.00 Build 0)  -->
<!DOCTYPE svg PUBLIC "-//W3C//DTD SVG 1.1//EN" "http://www.w3.org/Graphics/SVG/1.1/DTD/svg11.dtd">
<svg version="1.1" id="Layer_1" xmlns="http://www.w3.org/2000/svg" xmlns:xlink="http://www.w3.org/1999/xlink" x="0px" y="0px"
	 width="45px" height="44.994px" viewBox="0 0 45 44.994" enable-background="new 0 0 45 44.994" xml:space="preserve">
<g id="Icon_2_-_Delete">
	<g>
		<g>
			
				<radialGradient id="SVGID_1_" cx="-65.4746" cy="92.624" r="28.5039" gradientTransform="matrix(1 0 0 -1 91 132.4941)" gradientUnits="userSpaceOnUse">
				<stop  offset="0" style="stop-color:#FFFFFF"/>
				<stop  offset="1" style="stop-color:#B1BFC7"/>
			</radialGradient>
			<polygon fill="url(#SVGID_1_)" points="22.49,30.789 8.986,44.287 0.707,36.01 14.205,22.498 0.707,9 8.986,0.708 22.49,14.205 
				35.996,0.72 44.287,9 30.787,22.498 44.293,36.009 35.996,44.288 			"/>
			<g>
				<path fill="#8C98A0" d="M8.987,1.415l12.796,12.791l0.707,0.707l0.705-0.706L35.996,1.428L43.579,9L30.787,21.791l-0.707,0.707
					l0.707,0.707l12.798,12.804l-7.588,7.572l-12.8-12.792l-0.707-0.707l-0.707,0.707L8.986,43.58l-7.572-7.571l12.792-12.805
					l0.706-0.707l-0.707-0.707L1.414,9L8.987,1.415 M8.986,0L0,9l13.498,13.498L0,36.01l8.986,8.984L22.49,31.496l13.506,13.498
					L45,36.01L31.494,22.498L44.994,9l-8.998-8.986L22.49,13.498L8.986,0L8.986,0z"/>
			</g>
		</g>
		<g>
			
				<linearGradient id="SVGID_2_" gradientUnits="userSpaceOnUse" x1="-86.1973" y1="129.8184" x2="-75.3242" y2="93.7354" gradientTransform="matrix(1 0 0 -1 91 132.4941)">
				<stop  offset="0" style="stop-color:#FFFFFF"/>
				<stop  offset="1" style="stop-color:#000000"/>
			</linearGradient>
			<polygon fill="url(#SVGID_2_)" points="10.033,2.461 8.986,1.416 1.412,8.998 2.459,10.043 			"/>
			
				<linearGradient id="SVGID_3_" gradientUnits="userSpaceOnUse" x1="-64.8965" y1="136.2393" x2="-54.0204" y2="100.1462" gradientTransform="matrix(1 0 0 -1 91 132.4941)">
				<stop  offset="0" style="stop-color:#FFFFFF"/>
				<stop  offset="1" style="stop-color:#FFFFFF;stop-opacity:0"/>
			</linearGradient>
			<polygon fill="url(#SVGID_3_)" points="23.025,15.359 23.742,16.074 24.457,15.359 37.201,2.631 35.994,1.426 23.197,14.207 
				22.535,14.869 			"/>
			
				<linearGradient id="SVGID_4_" gradientUnits="userSpaceOnUse" x1="-90.0996" y1="128.6426" x2="-79.2255" y2="92.5563" gradientTransform="matrix(1 0 0 -1 91 132.4941)">
				<stop  offset="0" style="stop-color:#FFFFFF"/>
				<stop  offset="1" style="stop-color:#FFFFFF;stop-opacity:0"/>
			</linearGradient>
			<polygon fill="url(#SVGID_4_)" points="15.357,24.465 16.07,23.748 15.357,23.031 14.865,22.541 14.205,23.205 1.416,36.008 
				2.621,37.215 			"/>
		</g>
		
			<linearGradient id="SVGID_5_" gradientUnits="userSpaceOnUse" x1="-72.665" y1="142.9736" x2="-63.6825" y2="100.9197" gradientTransform="matrix(1 0 0 -1 91 132.4941)">
			<stop  offset="0" style="stop-color:#FFFFFF"/>
			<stop  offset="1" style="stop-color:#FFFFFF;stop-opacity:0"/>
		</linearGradient>
		<path fill="url(#SVGID_5_)" d="M14.91,22.496l-0.705,0.709l-0.896,0.896c5.953-2.393,12.832-4.417,20.27-5.83
			c0.297-0.057,0.592-0.107,0.889-0.16L43.578,9l-7.584-7.574L23.197,14.207l-0.705,0.705l-0.709-0.705L8.986,1.416L1.412,8.998
			l12.793,12.791L14.91,22.496z"/>
	</g>
</g>
</svg>
