<?xml version="1.0" encoding="iso-8859-1"?>
<!-- Generator: Adobe Illustrator 16.0.0, SVG Export Plug-In . SVG Version: 6.00 Build 0)  -->
<!DOCTYPE svg PUBLIC "-//W3C//DTD SVG 1.1//EN" "http://www.w3.org/Graphics/SVG/1.1/DTD/svg11.dtd">
<svg xmlns="http://www.w3.org/2000/svg" xmlns:xlink="http://www.w3.org/1999/xlink" version="1.1" id="Capa_1" x="0px" y="0px" width="512px" height="512px" viewBox="0 0 34.976 34.976" style="enable-background:new 0 0 34.976 34.976;" xml:space="preserve">
<g>
	<path d="M15.453,20.592v1.914c0,0.908-0.346,1.202-0.984,1.202h-0.947v-4.321h0.947C15.107,19.385,15.453,19.676,15.453,20.592z    M7.17,19.24c-0.637,0-1.039,0.348-1.039,1.256v6.896c0,0.912,0.402,1.259,1.039,1.259c0.639,0,1.039-0.347,1.039-1.259v-6.896   C8.209,19.588,7.807,19.24,7.17,19.24z M34.976,16.963v14.089c0,2.018-1.633,3.649-3.647,3.649H3.648   C1.631,34.702,0,33.067,0,31.053V16.963c0-2.016,1.633-3.649,3.648-3.649h4.979l5.43-7.701c-0.219-0.479-0.342-1.008-0.342-1.565   c0-2.084,1.689-3.775,3.773-3.775c2.084,0,3.775,1.691,3.775,3.775c0,0.559-0.125,1.088-0.344,1.565l5.43,7.701h4.979   C33.343,13.312,34.976,14.947,34.976,16.963z M12.322,13.312h10.333L18.65,7.634c-0.365,0.119-0.757,0.184-1.163,0.184   s-0.797-0.064-1.162-0.184L12.322,13.312z M10.215,20.627c0-2.041-1.074-3.209-3.045-3.209c-1.969,0-3.045,1.168-3.045,3.209v6.639   c0,2.041,1.076,3.209,3.045,3.209c1.971,0,3.045-1.168,3.045-3.209V20.627z M17.459,20.717c0-2.043-0.984-3.155-2.99-3.155h-2.953   v12.766h2.006v-4.795h0.947c2.006,0,2.99-1.112,2.99-3.155V20.717z M23.955,17.561h-5.471v12.766h5.471v-1.822H20.49v-3.738h2.754   v-1.821H20.49v-3.558h3.465V17.561z M31.545,17.561h-1.787v7.643l-2.061-7.643h-2.519v12.766h1.808V21.08l2.498,9.246h2.061V17.561   z" fill="#00ab67"/>
</g>
<g>
</g>
<g>
</g>
<g>
</g>
<g>
</g>
<g>
</g>
<g>
</g>
<g>
</g>
<g>
</g>
<g>
</g>
<g>
</g>
<g>
</g>
<g>
</g>
<g>
</g>
<g>
</g>
<g>
</g>
</svg>
