<?xml version="1.0" encoding="utf-8"?>
<!-- Generator: Adobe Illustrator 16.0.0, SVG Export Plug-In . SVG Version: 6.00 Build 0)  -->
<!DOCTYPE svg PUBLIC "-//W3C//DTD SVG 1.1//EN" "http://www.w3.org/Graphics/SVG/1.1/DTD/svg11.dtd">
<svg version="1.1" id="Capa_1" xmlns="http://www.w3.org/2000/svg" xmlns:xlink="http://www.w3.org/1999/xlink" x="0px" y="0px"
	 width="512px" height="512px" viewBox="0 0 512 512" enable-background="new 0 0 512 512" xml:space="preserve">
<g>
	<g>
		<path fill="#FFFFFF" d="M296.895,250.036L491.6,55.331c11.291-11.292,11.291-29.595,0-40.887
			c-11.277-11.292-29.61-11.292-40.888,0L256.007,209.149L61.33,14.443c-11.276-11.292-29.595-11.292-40.887,0
			c-11.292,11.292-11.292,29.596,0,40.887L215.12,250.036L8.472,456.684c-11.291,11.292-11.291,29.596,0,40.888
			c5.639,5.652,13.042,8.472,20.444,8.472s14.805-2.819,20.443-8.472l206.647-206.647l206.647,206.647
			c5.653,5.652,13.041,8.472,20.443,8.472c7.403,0,14.791-2.819,20.444-8.472c11.291-11.292,11.291-29.596,0-40.888L296.895,250.036
			z"/>
	</g>
</g>
</svg>
