<?xml version="1.0" encoding="utf-8"?>
<!-- Generator: Adobe Illustrator 16.0.0, SVG Export Plug-In . SVG Version: 6.00 Build 0)  -->
<!DOCTYPE svg PUBLIC "-//W3C//DTD SVG 1.1//EN" "http://www.w3.org/Graphics/SVG/1.1/DTD/svg11.dtd">
<svg version="1.1" id="Capa_1" xmlns="http://www.w3.org/2000/svg" xmlns:xlink="http://www.w3.org/1999/xlink" x="0px" y="0px"
	 width="871.456px" height="706px" viewBox="114.11 18.5 871.456 706" enable-background="new 114.11 18.5 871.456 706"
	 xml:space="preserve">
<g>
	<g>
		<path fill="#8697CB" d="M813.645,573.222l-122.266-61.133c-15.795-7.897-25.779-24.051-25.779-41.715V422.4
			c3.431-3.904,7.373-8.935,11.571-14.873c16.666-23.526,29.261-49.421,38.004-76.596c15.68-4.825,27.226-19.315,27.226-36.531
			V243.2c0-11.265-5.005-21.338-12.801-28.378V140.8c0,0,15.194-115.2-140.8-115.2C432.794,25.6,448,140.8,448,140.8v74.022
			c-7.795,7.04-12.8,17.113-12.8,28.378V294.4c0,13.491,7.091,25.356,17.702,32.218C465.689,382.323,499.2,422.4,499.2,422.4v46.784
			c0,17.063-9.318,32.768-24.308,40.935l-114.188,62.298C327.718,590.4,307.2,624.973,307.2,662.54V704h563.2v-38.951
			C870.4,626.163,848.423,590.617,813.645,573.222z"/>
		<path fill="#556080" d="M360.704,572.416l76.108-41.511c-0.435-0.423-0.063-0.551,0.832-0.461l37.248-20.313
			c14.989-8.18,24.308-23.872,24.308-40.947V422.4c0,0-13.594-16.32-26.777-42.534l0,0c0-0.013-0.013-0.025-0.013-0.038
			c-1.729-3.431-3.431-7.054-5.107-10.804c-0.23-0.524-0.461-1.023-0.691-1.549c-1.702-3.878-3.366-7.885-4.941-12.083
			c-0.102-0.269-0.191-0.563-0.294-0.832c-1.382-3.712-2.675-7.539-3.917-11.469c-0.332-1.075-0.665-2.138-0.985-3.213
			c-1.293-4.326-2.509-8.729-3.559-13.286c-10.624-6.836-17.715-18.701-17.715-32.192V243.2c0-11.265,5.005-21.338,12.8-28.378
			v-72.295c-18.086-14.028-46.118-27.327-89.6-27.327c-122.406,0-128,102.399-128,102.399v63.937
			c-6.733,6.08-12.8,14.771-12.8,24.499v44.224c0,11.661,6.131,21.9,15.283,27.827c11.046,48.103,48.141,82.714,48.141,82.714
			v40.409c0,14.733-8.051,28.301-20.992,35.354l-85.824,53.799C145.728,605.901,128,635.75,128,668.198V704h179.2v-41.46
			C307.2,624.973,327.718,590.4,360.704,572.416z"/>
	</g>
</g>
<g>
	<circle fill="#FD991C" cx="824.045" cy="558.69" r="153.6"/>
	<path fill="#FFFFFF" d="M908.153,484.182c-5.824-4.045-13.785-2.611-17.817,3.199l-71.629,102.912l-50.547-41.498
		c-5.453-4.492-13.53-3.686-18.01,1.779c-4.493,5.467-3.699,13.529,1.779,18.01l61.261,50.291c2.304,1.883,5.171,2.906,8.115,2.906
		c0.575,0,1.164-0.039,1.753-0.115c3.533-0.5,6.707-2.432,8.756-5.363l79.539-114.291
		C915.386,496.199,913.952,488.227,908.153,484.182z"/>
</g>
</svg>
