<?xml version="1.0" encoding="utf-8"?>
<!-- Generator: Adobe Illustrator 21.0.0, SVG Export Plug-In . SVG Version: 6.00 Build 0)  -->
<svg version="1.1" id="Layer_1" xmlns="http://www.w3.org/2000/svg" xmlns:xlink="http://www.w3.org/1999/xlink" x="0px" y="0px"
	 viewBox="0 0 59 59" style="enable-background:new 0 0 59 59;" xml:space="preserve">
<style type="text/css">
	.st0{fill:#0199DE;}
</style>
<g>
	<path class="st0" d="M31.4,36.2c0,1.7-0.5,4-1.4,6.9L29.4,43c0.2-1,0.3-2,0.3-3c0-2-0.2-4.6-0.7-7.8c-0.3-2.6-0.7-5.1-1-7.7
		c-0.2-1.6-0.3-2.5-0.3-2.8c0-1.4,0.2-2.5,0.5-3.2c0.5-0.9,1-1.8,1.5-2.7c0,2.6,0.5,8,1.5,16.1C31.2,33.6,31.4,35,31.4,36.2z"/>
</g>
</svg>
