<?xml version="1.0" encoding="utf-8"?>
<!-- Generator: Adobe Illustrator 21.0.0, SVG Export Plug-In . SVG Version: 6.00 Build 0)  -->
<svg version="1.1" id="Layer_1" xmlns="http://www.w3.org/2000/svg" xmlns:xlink="http://www.w3.org/1999/xlink" x="0px" y="0px"
	 viewBox="0 0 59 59" style="enable-background:new 0 0 59 59;" xml:space="preserve">
<style type="text/css">
	.st0{fill:#0199DE;}
</style>
<g>
	<path class="st0" d="M38.2,25c0,4.4-1.1,8.5-3.3,12s-4.7,5.4-7.3,5.4c-1.3,0-2.5-0.2-3.6-0.6c-0.6-0.2-1.6-0.8-3.3-1.6l0.5-0.5
		c1.2,0.5,2.3,0.7,3.4,0.7c2.9,0,5.6-1.4,8.2-4.2c2.6-2.8,3.9-5.6,3.9-8.5c0-0.9-0.2-1.7-0.5-2.2c-0.9,1.2-1.8,1.9-2.7,1.9
		c-0.9,0-1.7-0.3-2.4-1c-0.7-0.7-1-1.5-1-2.4c0-1.1,0.5-2.6,1.4-4.4c1-2,2-3.1,2.9-3.1c1.2,0,2.2,1.1,2.9,3.4
		C37.9,21.7,38.2,23.4,38.2,25z M33.4,21.1c-0.7,0-1,0.3-1,1c0,0.8,0.3,1.2,1,1.2c0.8,0,1.2-0.4,1.2-1.1
		C34.6,21.4,34.2,21.1,33.4,21.1z"/>
</g>
</svg>
