<?xml version="1.0" encoding="utf-8"?>
<!-- Generator: Adobe Illustrator 16.0.0, SVG Export Plug-In . SVG Version: 6.00 Build 0)  -->
<!DOCTYPE svg PUBLIC "-//W3C//DTD SVG 1.1//EN" "http://www.w3.org/Graphics/SVG/1.1/DTD/svg11.dtd">
<svg version="1.1" id="Layer_1" xmlns="http://www.w3.org/2000/svg" xmlns:xlink="http://www.w3.org/1999/xlink" x="0px" y="0px"
	 width="180px" height="180px" viewBox="0 0 180 180" enable-background="new 0 0 180 180" xml:space="preserve">
<rect x="78.882" y="81.75" fill="#FFFFFF" width="23.188" height="18.426"/>
<path fill="#1EB7EA" d="M100.587,74.247h-22c-2.761,0-5,2.24-5,5v22c0,2.762,2.239,5,5,5h22c2.761,0,5-2.238,5-5v-22
	C105.587,76.487,103.348,74.247,100.587,74.247z M97.507,86.618c-0.895,5.037-5.889,9.3-7.392,10.275s-2.874-0.389-3.37-1.422
	c-0.57-1.176-2.275-7.552-2.722-8.082c-0.446-0.527-1.787,0.529-1.787,0.529l-0.649-0.852c0,0,2.721-3.25,4.791-3.658
	c2.196-0.43,2.193,3.373,2.722,5.482c0.511,2.043,0.854,3.21,1.3,3.21c0.447,0,1.3-1.138,2.233-2.884
	c0.935-1.746-0.04-3.291-1.868-2.193C91.495,82.637,98.4,81.583,97.507,86.618z"/>
</svg>
