<?xml version="1.0" encoding="utf-8"?>
<!-- Generator: Adobe Illustrator 16.0.0, SVG Export Plug-In . SVG Version: 6.00 Build 0)  -->
<!DOCTYPE svg PUBLIC "-//W3C//DTD SVG 1.1//EN" "http://www.w3.org/Graphics/SVG/1.1/DTD/svg11.dtd">
<svg version="1.1" id="Layer_1" xmlns="http://www.w3.org/2000/svg" xmlns:xlink="http://www.w3.org/1999/xlink" x="0px" y="0px"
	 width="180px" height="180px" viewBox="0 0 180 180" enable-background="new 0 0 180 180" xml:space="preserve">
<g>
	<path fill="#575756" d="M88.696,95.552c-0.076,0.088-0.159,0.16-0.251,0.219c-0.091,0.057-0.167,0.084-0.226,0.084
		c-0.075,0-0.131-0.02-0.166-0.064c-0.032-0.043-0.05-0.111-0.05-0.207v-3.107h-0.81v3.387c0,0.242,0.048,0.42,0.142,0.541
		c0.096,0.123,0.235,0.182,0.424,0.182c0.151,0,0.309-0.041,0.47-0.129c0.162-0.086,0.317-0.211,0.467-0.375v0.445h0.81v-4.051
		h-0.81V95.552z"/>
	<polygon fill="#575756" points="84.039,91.835 84.982,91.835 84.982,96.526 85.895,96.526 85.895,91.835 86.839,91.835 
		86.839,91.036 84.039,91.036 	"/>
	<path fill="#575756" d="M89.642,87.938c0.124,0,0.222-0.033,0.294-0.102c0.073-0.068,0.11-0.164,0.11-0.283v-2.43
		c0-0.098-0.037-0.176-0.111-0.236s-0.172-0.09-0.293-0.09c-0.11,0-0.201,0.029-0.271,0.09c-0.068,0.061-0.104,0.139-0.104,0.236
		v2.43c0,0.123,0.033,0.217,0.098,0.283C89.429,87.907,89.521,87.938,89.642,87.938z"/>
	<path fill="#575756" d="M91.653,92.427c-0.126,0-0.25,0.031-0.374,0.096c-0.121,0.064-0.237,0.16-0.347,0.281v-1.768h-0.818v5.49
		h0.818v-0.311c0.105,0.125,0.223,0.215,0.347,0.273c0.123,0.061,0.264,0.088,0.423,0.088c0.239,0,0.424-0.074,0.55-0.229
		c0.128-0.154,0.19-0.373,0.19-0.658v-2.248c0-0.332-0.066-0.584-0.202-0.758C92.105,92.513,91.91,92.427,91.653,92.427z
		 M91.608,95.577c0,0.131-0.023,0.223-0.069,0.279c-0.047,0.059-0.119,0.088-0.219,0.088c-0.068,0-0.133-0.016-0.195-0.045
		c-0.063-0.027-0.127-0.078-0.192-0.143v-2.523c0.056-0.057,0.11-0.098,0.167-0.125c0.057-0.025,0.114-0.039,0.172-0.039
		c0.108,0,0.193,0.035,0.252,0.105c0.058,0.07,0.085,0.174,0.085,0.313V95.577z"/>
	<path fill="#575756" d="M100.783,74.376h-22c-2.761,0-5,2.239-5,5v21.999c0,2.762,2.239,5,5,5h22c2.762,0,5-2.238,5-5V79.376
		C105.783,76.615,103.545,74.376,100.783,74.376z M91.713,84.138h0.91v3.42c0,0.105,0.021,0.182,0.059,0.229
		c0.037,0.049,0.101,0.072,0.186,0.072c0.066,0,0.152-0.031,0.255-0.094c0.102-0.064,0.195-0.143,0.28-0.24v-3.387h0.912v4.461
		h-0.912v-0.494c-0.167,0.182-0.342,0.322-0.524,0.416c-0.182,0.094-0.357,0.145-0.528,0.145c-0.212,0-0.369-0.068-0.477-0.203
		c-0.106-0.131-0.16-0.33-0.16-0.596V84.138z M88.329,85.157c0-0.346,0.123-0.621,0.367-0.824c0.245-0.205,0.576-0.307,0.99-0.307
		c0.377,0,0.686,0.107,0.928,0.322c0.239,0.215,0.359,0.496,0.359,0.834v2.305c0,0.383-0.117,0.68-0.353,0.898
		c-0.237,0.217-0.563,0.326-0.977,0.326c-0.398,0-0.718-0.113-0.957-0.338c-0.238-0.225-0.358-0.525-0.358-0.904V85.157z
		 M85.847,82.552l0.666,2.418h0.064l0.636-2.418h1.042l-1.194,3.539v2.508h-1.025v-2.396l-1.222-3.65H85.847z M97.783,95.278
		c0,1.613-1.31,2.924-2.923,2.924H84.705c-1.614,0-2.922-1.311-2.922-2.924v-2.35c0-1.613,1.308-2.924,2.922-2.924H94.86
		c1.613,0,2.923,1.311,2.923,2.924V95.278z"/>
	<path fill="#575756" d="M94.097,92.376c-0.362,0-0.656,0.109-0.886,0.33s-0.344,0.51-0.344,0.859v1.818
		c0,0.391,0.105,0.697,0.313,0.918c0.208,0.225,0.494,0.334,0.856,0.334c0.403,0,0.707-0.104,0.908-0.313
		c0.205-0.211,0.306-0.523,0.306-0.939v-0.207h-0.833v0.184c0,0.238-0.028,0.393-0.08,0.463c-0.054,0.07-0.147,0.105-0.282,0.105
		c-0.129,0-0.221-0.041-0.274-0.123c-0.053-0.084-0.079-0.232-0.079-0.445v-0.762h1.549v-1.033c0-0.385-0.1-0.678-0.299-0.883
		C94.753,92.478,94.468,92.376,94.097,92.376z M94.417,93.968h-0.716V93.56c0-0.17,0.027-0.293,0.084-0.363
		c0.057-0.076,0.148-0.113,0.277-0.113c0.123,0,0.215,0.037,0.27,0.113c0.056,0.07,0.085,0.193,0.085,0.363V93.968z"/>
</g>
</svg>
