<?xml version="1.0" encoding="utf-8"?>
<!-- Generator: Adobe Illustrator 16.0.0, SVG Export Plug-In . SVG Version: 6.00 Build 0)  -->
<!DOCTYPE svg PUBLIC "-//W3C//DTD SVG 1.1//EN" "http://www.w3.org/Graphics/SVG/1.1/DTD/svg11.dtd">
<svg version="1.1" id="Layer_1" xmlns="http://www.w3.org/2000/svg" xmlns:xlink="http://www.w3.org/1999/xlink" x="0px" y="0px"
	 width="387.566px" height="116.451px" viewBox="0 0 387.566 116.451" enable-background="new 0 0 387.566 116.451"
	 xml:space="preserve">
<g>
	<g>
		<path fill="none" stroke="#2E2387" stroke-width="6.4378" stroke-linejoin="round" stroke-miterlimit="10" d="M51.612,35.009
			c4.475,5.88-2.429,12.272-8.501,11.825c-0.256,0-0.895-0.511-0.895-0.958c0.511-4.027-1.278-10.483-6.137-11.25
			c-4.922-0.767-9.46,5.05-9.779,9.46c-0.512,7.159,1.406,13.551,8.501,15.085c7.031,1.534,15.532,0.959,21.094-0.767
			c2.557,0.511,3.004,7.862,0.128,7.989c-4.155,0.192-8.374,1.023-12.209,2.238c-5.561,1.662-11.058,3.898-14.766,7.605
			c-0.575,0.64-1.086,1.535-0.958,2.749c10.93-0.959,25.695-1.406,35.091,5.562c6.968,5.177,7.99,12.016,3.133,18.152
			c-14.19,18.09-52.095,12.145-54.076-12.209c-0.256-0.895,0.896-4.793-0.575-4.922c-2.557-0.191-7.862-3.387-8.245-6.327
			c-0.64-0.703,0.383-2.365,1.406-1.534c2.301,2.812,6.136,3.132,9.588,3.195c3.707-6.775,9.651-11.377,17.13-14.637
			c-3.196-1.342-6.456-1.15-12.208-4.41c-6.072-3.516-8.118-16.236-3.708-22.883c6.712-10.163,20.71-14.254,31.385-7.926
			C48.736,32.068,50.333,33.411,51.612,35.009z M25.213,86.271c-1.981,13.743,12.081,25.185,25.951,19.176
			c3.58-1.533,6.775-4.41,6.137-10.035C53.402,82.884,37.806,83.14,27.387,84.226C26.3,84.354,25.341,85.185,25.213,86.271z
			 M37.998,13.596c1.917,3.452,1.087,7.351-1.726,8.757c-2.877,1.406-6.712-0.256-8.63-3.644c-1.854-3.452-1.086-7.351,1.79-8.757
			C32.309,8.546,36.144,10.208,37.998,13.596z"/>
		<path fill="none" stroke="#2E2387" stroke-width="6.4378" stroke-linejoin="round" stroke-miterlimit="10" d="M91.624,9.824
			c0.256,0.32,0.256,1.215-0.256,1.342c-0.767,0.256-1.661,1.023-1.598,1.598c0.895,12.72,3.196,24.737,4.282,37.009
			c1.151,12.592,5.689,21.157-8.82,26.591c-0.703,0.383-1.918-0.703-1.79-1.471c1.981-2.365,1.662-7.606,0.768-13.168
			c-2.621-16.043-4.794-30.936-7.096-46.341C77.05,8.93,81.397,5.542,87.789,7.779C89.258,8.291,90.665,8.93,91.624,9.824z"/>
		<path fill="none" stroke="#2E2387" stroke-width="6.4378" stroke-linejoin="round" stroke-miterlimit="10" d="M116.36,38.46
			c-3.644-0.063-1.854,5.817-1.471,8.182c0.576,2.493,1.215,4.667,1.982,6.648c3.067,6.328,7.03,11.186,12.336,10.482v9.077
			c-3.644,0.383-7.223-0.256-10.035-2.365c0.639,5.944,0.447,11.441-1.598,15.084c-5.562,8.949-17.003,5.945-21.669-1.98
			c-0.384-0.447-0.512-1.215,0-1.15c2.045,0.256,3.771,1.98,6.008,1.98c7.927,0.064,6.456-9.715,5.37-14.828
			c-1.662-7.799-7.159-27.102-4.347-31.449c3.004-4.666,10.738-5.753,14.062-0.831C117.319,37.757,117.191,38.588,116.36,38.46z"/>
		<path fill="none" stroke="#2E2387" stroke-width="6.4378" stroke-linejoin="round" stroke-miterlimit="10" d="M162.764,57.38
			c-0.768,1.214-2.301,3.068-1.343,4.091c2.174,2.493,6.265,2.749,9.269,2.301v9.077c-9.141-0.256-11.313-0.896-17.833-4.603
			c-6.903,1.854-10.035,5.433-23.65,4.603v-9.077c3.26-0.063,6.2,0.128,9.651-1.022c0.448-0.959-0.767-1.917-1.342-2.301
			c-15.852-8.182-12.848-31.64,7.287-31.064C157.139,30.342,169.603,42.935,162.764,57.38z M146.464,13.979
			c1.918,3.452,1.087,7.351-1.789,8.757c-2.812,1.406-6.647-0.256-8.565-3.644c-1.854-3.452-1.087-7.351,1.79-8.757
			C140.712,8.93,144.611,10.591,146.464,13.979z M146.529,56.485c0.831,0.767,2.492,1.086,3.26,0.192
			c4.922-5.753,1.981-21.221-7.606-18.792C133.809,43.318,142.182,52.267,146.529,56.485z"/>
		<path fill="none" stroke="#2E2387" stroke-width="6.4378" stroke-linejoin="round" stroke-miterlimit="10" d="M170.689,63.772
			c9.269-0.255,8.821-6.136,7.606-12.208c0.128,0-6.072-34.005-6.647-37.137c-0.256-6.52,3.898-9.716,10.419-7.606
			c1.47,0.447,2.876,1.086,3.835,2.045c0.319,0.319,0.384,1.15-0.192,1.342c-0.702,0.256-1.598,1.022-1.533,1.598
			c-1.151,9.715,8.182,42.57,5.433,52.094c-2.237,7.862-12.336,8.565-18.92,8.949V63.772z"/>
		<path fill="none" stroke="#2E2387" stroke-width="6.4378" stroke-linejoin="round" stroke-miterlimit="10" d="M216.646,9.824
			c0.256,0.32,0.256,1.215-0.256,1.342c-0.767,0.256-1.661,1.023-1.598,1.598c0.895,12.72,3.196,24.737,4.282,37.009
			c1.151,12.592,5.689,21.157-8.82,26.591c-0.703,0.383-1.918-0.703-1.79-1.471c1.981-2.365,1.662-7.606,0.768-13.168
			c-2.621-16.043-4.794-30.936-7.096-46.341c-0.063-6.456,4.283-9.843,10.675-7.606C214.281,8.291,215.687,8.93,216.646,9.824z"/>
		<path fill="none" stroke="#2E2387" stroke-width="6.4378" stroke-linejoin="round" stroke-miterlimit="10" d="M303.063,56.677
			c2.109,5.625,6.009,7.926,12.081,7.095v9.077c-9.588,0.959-13.168-0.959-16.747-9.205c-2.237-3.26-2.173,6.264-16.299,13.742
			c-7.734,4.155-25.504,10.867-31.065-2.045c-2.173-5.049-1.726-10.418,1.534-15.021c0.512-0.703,2.046-0.895,2.109,1.342
			c0.319,8.438,10.866,12.272,17.77,9.396c1.087-0.448,1.087-1.854,0.896-2.749c-2.43-12.208-9.013-22.499-12.593-34.324
			c-1.854-6.136,6.712-11.441,9.78-4.73c3.132,6.775,8.948,22.627,10.738,35.283c1.342,6.393,7.542-3.003,9.013-5.88
			c1.854-4.027,0.319-9.46-0.575-13.551c-1.599-7.734-5.242-17.514-6.137-23.65c-0.64-5.369,1.343-9.076,4.41-11.122
			c1.278-0.831,7.351-3.644,8.565,2.621C298.269,23.184,298.206,43.83,303.063,56.677z M267.908,10.783
			c-1.598-0.447-2.685-4.41-4.091-3.644c-3.451,1.726-1.022,6.648,1.79,7.542c2.301,0.703,4.41,0,6.583-0.319
			c0.768-0.128,1.406,1.086,1.343,1.534c-0.191,1.598-1.406,2.557-3.196,2.812c-4.347,0.639-9.971,0.959-14.445,0.192
			c-0.896-0.319-1.471-1.15-1.662-1.981c-0.128-0.703,0.256-1.662,0.895-1.854c0.896-0.256,1.854,0.383,3.133,0.255
			c-0.703-1.79-2.558-3.324-2.046-5.561c0.447-7.159,12.784-9.333,14.957-1.982C271.551,9.058,269.377,11.358,267.908,10.783z"/>
		<path fill="none" stroke="#2E2387" stroke-width="6.4378" stroke-linejoin="round" stroke-miterlimit="10" d="M354.387,68.757
			c0,0.064,0,0.064,0,0.129c0,0-0.063,0-0.063-0.064c-6.2,6.008-15.341,5.434-21.669-0.447c-2.685-2.748-6.52,3.898-17.514,4.475
			v-9.077c4.857-0.191,6.712-2.237,5.753-6.775c-1.662-7.734-0.319-19.431,9.204-21.796c6.392-1.598,12.976,0.384,18.345,3.835
			c9.141,6.008,12.848,19.815,6.456,29.211C354.707,68.438,354.58,68.566,354.387,68.757z M334.189,43.893
			c-2.94,5.497-1.15,14.638,1.854,18.792c0.831,1.15,4.666,3.771,6.265,2.941c8.182-4.603,3.323-24.418-6.072-23.331
			C335.467,42.359,334.636,43.062,334.189,43.893z"/>
		<path fill="none" stroke="#2E2387" stroke-width="6.4378" stroke-linejoin="round" stroke-miterlimit="10" d="M380.337,9.824
			c0.256,0.32,0.256,1.215-0.256,1.342c-0.767,0.256-1.661,1.023-1.598,1.598c0.895,12.72,3.196,24.737,4.282,37.009
			c1.151,12.592,5.689,21.157-8.82,26.591c-0.703,0.383-1.918-0.703-1.79-1.471c1.981-2.365,1.662-7.606,0.768-13.168
			c-2.621-16.043-4.794-30.936-7.096-46.341c-0.063-6.456,4.283-9.843,10.675-7.606C377.972,8.291,379.378,8.93,380.337,9.824z"/>
	</g>
	<g>
		<path fill="#BABABA" d="M51.612,36.792c4.475,5.88-2.429,12.272-8.501,11.825c-0.256,0-0.895-0.511-0.895-0.958
			c0.511-4.027-1.278-10.483-6.137-11.25c-4.922-0.767-9.46,5.05-9.779,9.46c-0.512,7.159,1.406,13.551,8.501,15.085
			c7.031,1.534,15.532,0.959,21.094-0.767c2.557,0.511,3.004,7.862,0.128,7.99c-4.155,0.192-8.374,1.022-12.209,2.237
			c-5.561,1.662-11.058,3.898-14.766,7.606c-0.575,0.64-1.086,1.534-0.958,2.749c10.93-0.959,25.695-1.406,35.091,5.561
			c6.968,5.178,7.99,12.017,3.133,18.152c-14.19,18.09-52.095,12.145-54.076-12.208c-0.256-0.896,0.896-4.794-0.575-4.922
			c-2.557-0.191-7.862-3.388-8.245-6.327C2.778,80.322,3.8,78.66,4.824,79.49c2.301,2.812,6.136,3.133,9.588,3.196
			c3.707-6.775,9.651-11.378,17.13-14.638c-3.196-1.342-6.456-1.15-12.208-4.41c-6.072-3.516-8.118-16.235-3.708-22.883
			c6.712-10.163,20.71-14.254,31.385-7.926C48.736,33.852,50.333,35.194,51.612,36.792z M25.213,88.055
			c-1.981,13.743,12.081,25.185,25.951,19.176c3.58-1.534,6.775-4.41,6.137-10.035c-3.899-12.528-19.495-12.272-29.914-11.187
			C26.3,86.138,25.341,86.968,25.213,88.055z M37.998,15.379c1.917,3.452,1.087,7.351-1.726,8.757
			c-2.877,1.406-6.712-0.256-8.63-3.644c-1.854-3.452-1.086-7.351,1.79-8.757C32.309,10.33,36.144,11.992,37.998,15.379z"/>
		<path fill="#BABABA" d="M91.624,11.608c0.256,0.32,0.256,1.215-0.256,1.342c-0.767,0.256-1.661,1.023-1.598,1.598
			c0.895,12.72,3.196,24.737,4.282,37.009c1.151,12.592,5.689,21.157-8.82,26.59c-0.703,0.383-1.918-0.703-1.79-1.471
			c1.981-2.365,1.662-7.605,0.768-13.167c-2.621-16.043-4.794-30.937-7.096-46.341c-0.063-6.456,4.283-9.843,10.675-7.606
			C89.258,10.074,90.665,10.713,91.624,11.608z"/>
		<path fill="#BABABA" d="M116.36,40.244c-3.644-0.063-1.854,5.817-1.471,8.182c0.576,2.493,1.215,4.667,1.982,6.648
			c3.067,6.328,7.03,11.186,12.336,10.483v9.076c-3.644,0.383-7.223-0.256-10.035-2.365c0.639,5.945,0.447,11.441-1.598,15.085
			c-5.562,8.948-17.003,5.944-21.669-1.981c-0.384-0.447-0.512-1.215,0-1.15c2.045,0.256,3.771,1.981,6.008,1.981
			c7.927,0.063,6.456-9.716,5.37-14.829c-1.662-7.799-7.159-27.102-4.347-31.448c3.004-4.666,10.738-5.753,14.062-0.831
			C117.319,39.541,117.191,40.372,116.36,40.244z"/>
		<path fill="#BABABA" d="M162.764,59.164c-0.768,1.214-2.301,3.068-1.343,4.091c2.174,2.492,6.265,2.748,9.269,2.301v9.076
			c-9.141-0.256-11.313-0.895-17.833-4.602c-6.903,1.854-10.035,5.433-23.65,4.602v-9.076c3.26-0.064,6.2,0.127,9.651-1.023
			c0.448-0.959-0.767-1.917-1.342-2.301c-15.852-8.182-12.848-31.64,7.287-31.064C157.139,32.126,169.603,44.718,162.764,59.164z
			 M146.464,15.763c1.918,3.452,1.087,7.351-1.789,8.757c-2.812,1.406-6.647-0.256-8.565-3.644c-1.854-3.452-1.087-7.351,1.79-8.757
			C140.712,10.713,144.611,12.375,146.464,15.763z M146.529,58.269c0.831,0.767,2.492,1.086,3.26,0.192
			c4.922-5.753,1.981-21.221-7.606-18.792C133.809,45.102,142.182,54.05,146.529,58.269z"/>
		<path fill="#BABABA" d="M170.689,65.556c9.269-0.256,8.821-6.137,7.606-12.209c0.128,0-6.072-34.005-6.647-37.137
			c-0.256-6.52,3.898-9.716,10.419-7.606c1.47,0.447,2.876,1.086,3.835,2.045c0.319,0.319,0.384,1.15-0.192,1.342
			c-0.702,0.256-1.598,1.022-1.533,1.598c-1.151,9.715,8.182,42.57,5.433,52.093c-2.237,7.863-12.336,8.566-18.92,8.949V65.556z"/>
		<path fill="#BABABA" d="M216.646,11.608c0.256,0.32,0.256,1.215-0.256,1.342c-0.767,0.256-1.661,1.023-1.598,1.598
			c0.895,12.72,3.196,24.737,4.282,37.009c1.151,12.592,5.689,21.157-8.82,26.59c-0.703,0.383-1.918-0.703-1.79-1.471
			c1.981-2.365,1.662-7.605,0.768-13.167c-2.621-16.043-4.794-30.937-7.096-46.341c-0.063-6.456,4.283-9.843,10.675-7.606
			C214.281,10.074,215.687,10.713,216.646,11.608z"/>
		<path fill="#BABABA" d="M303.063,58.461c2.109,5.625,6.009,7.925,12.081,7.095v9.076c-9.588,0.959-13.168-0.959-16.747-9.204
			c-2.237-3.261-2.173,6.264-16.299,13.742c-7.734,4.155-25.504,10.866-31.065-2.046c-2.173-5.049-1.726-10.418,1.534-15.021
			c0.512-0.703,2.046-0.895,2.109,1.343c0.319,8.438,10.866,12.271,17.77,9.396c1.087-0.448,1.087-1.854,0.896-2.749
			c-2.43-12.208-9.013-22.5-12.593-34.325c-1.854-6.136,6.712-11.441,9.78-4.73c3.132,6.775,8.948,22.627,10.738,35.283
			c1.342,6.392,7.542-3.004,9.013-5.88c1.854-4.027,0.319-9.46-0.575-13.551c-1.599-7.734-5.242-17.514-6.137-23.65
			c-0.64-5.369,1.343-9.076,4.41-11.122c1.278-0.831,7.351-3.644,8.565,2.621C298.269,24.967,298.206,45.613,303.063,58.461z
			 M267.908,12.567c-1.598-0.447-2.685-4.41-4.091-3.644c-3.451,1.726-1.022,6.648,1.79,7.542c2.301,0.703,4.41,0,6.583-0.319
			c0.768-0.128,1.406,1.086,1.343,1.534c-0.191,1.598-1.406,2.557-3.196,2.812c-4.347,0.639-9.971,0.959-14.445,0.192
			c-0.896-0.319-1.471-1.15-1.662-1.981c-0.128-0.703,0.256-1.662,0.895-1.854c0.896-0.256,1.854,0.383,3.133,0.255
			c-0.703-1.79-2.558-3.324-2.046-5.561c0.447-7.159,12.784-9.333,14.957-1.982C271.551,10.841,269.377,13.142,267.908,12.567z"/>
		<path fill="#BABABA" d="M354.387,70.542c0,0.063,0,0.063,0,0.128c0,0-0.063,0-0.063-0.064c-6.2,6.009-15.341,5.434-21.669-0.447
			c-2.685-2.748-6.52,3.899-17.514,4.475v-9.076c4.857-0.191,6.712-2.237,5.753-6.776c-1.662-7.734-0.319-19.431,9.204-21.796
			c6.392-1.598,12.976,0.384,18.345,3.835c9.141,6.008,12.848,19.815,6.456,29.211C354.707,70.222,354.58,70.349,354.387,70.542z
			 M334.189,45.677c-2.94,5.497-1.15,14.638,1.854,18.792c0.831,1.15,4.666,3.771,6.265,2.94c8.182-4.603,3.323-24.417-6.072-23.331
			C335.467,44.143,334.636,44.846,334.189,45.677z"/>
		<path fill="#BABABA" d="M380.337,11.608c0.256,0.32,0.256,1.215-0.256,1.342c-0.767,0.256-1.661,1.023-1.598,1.598
			c0.895,12.72,3.196,24.737,4.282,37.009c1.151,12.592,5.689,21.157-8.82,26.59c-0.703,0.383-1.918-0.703-1.79-1.471
			c1.981-2.365,1.662-7.605,0.768-13.167c-2.621-16.043-4.794-30.937-7.096-46.341c-0.063-6.456,4.283-9.843,10.675-7.606
			C377.972,10.074,379.378,10.713,380.337,11.608z"/>
	</g>
	<g>
		<path fill="#FFFFFF" d="M36.272,22.809c2.812-1.406,3.643-5.305,1.726-8.757c-1.854-3.388-5.688-5.05-8.565-3.644
			c-2.876,1.406-3.644,5.305-1.79,8.757C29.56,22.553,33.395,24.215,36.272,22.809z"/>
		<path fill="#FFFFFF" d="M63.181,85.002c-9.396-6.968-24.161-6.521-35.091-5.562c-0.128-1.214,0.383-2.109,0.958-2.748
			c3.708-3.707,9.205-5.944,14.766-7.606c3.835-1.214,8.054-2.046,12.209-2.237c2.876-0.127,2.429-7.479-0.128-7.99
			c-5.562,1.726-14.062,2.301-21.094,0.767c-7.095-1.534-9.013-7.926-8.501-15.085c0.319-4.41,4.857-10.227,9.779-9.46
			c4.858,0.767,6.647,7.223,6.137,11.25c0,0.447,0.639,0.958,0.895,0.958c6.072,0.448,12.976-5.944,8.501-11.825
			c-1.278-1.598-2.876-2.94-4.602-3.963c-10.675-6.328-24.673-2.237-31.385,7.926c-4.41,6.647-2.364,19.367,3.708,22.883
			c5.752,3.26,9.012,3.068,12.208,4.411c-7.479,3.26-13.423,7.861-17.13,14.637c-3.452-0.064-7.287-0.383-9.588-3.195
			c-1.023-0.832-2.046,0.83-1.406,1.533c0.383,2.94,5.688,6.137,8.245,6.328c1.471,0.128,0.319,4.027,0.575,4.922
			c1.981,24.354,39.886,30.298,54.076,12.209C71.171,97.019,70.149,90.179,63.181,85.002z M51.165,105.904
			c-13.87,6.008-27.933-5.434-25.951-19.176c0.128-1.086,1.087-1.918,2.174-2.045c10.419-1.087,26.015-1.343,29.914,11.186
			C57.94,101.494,54.745,104.37,51.165,105.904z"/>
		<path fill="#FFFFFF" d="M94.052,50.23c-1.086-12.272-3.388-24.29-4.282-37.009c-0.063-0.575,0.831-1.342,1.598-1.598
			c0.512-0.127,0.512-1.022,0.256-1.342c-0.959-0.895-2.365-1.534-3.835-2.045c-6.392-2.237-10.738,1.151-10.675,7.606
			c2.302,15.405,4.475,30.298,7.096,46.341c0.895,5.561,1.214,10.803-0.768,13.168c-0.128,0.767,1.087,1.854,1.79,1.47
			C99.742,71.388,95.204,62.822,94.052,50.23z"/>
		<path fill="#FFFFFF" d="M144.675,23.193c2.876-1.406,3.707-5.306,1.789-8.757c-1.854-3.388-5.752-5.049-8.564-3.643
			c-2.877,1.406-3.644,5.305-1.79,8.757C138.028,22.937,141.863,24.599,144.675,23.193z"/>
		<path fill="#FFFFFF" d="M184.176,12.263c-0.064-0.576,0.831-1.342,1.533-1.598c0.576-0.192,0.512-1.023,0.192-1.342
			c-0.959-0.959-2.365-1.598-3.835-2.045c-6.521-2.109-10.675,1.086-10.419,7.606c0.575,3.132,6.775,37.137,6.647,37.137
			c1.215,6.072,1.662,11.953-7.606,12.208l0,0c-3.004,0.448-7.094,0.191-9.268-2.301c-0.958-1.022,0.575-2.876,1.343-4.09
			c6.839-14.446-5.625-27.038-17.961-27.997c-20.135-0.575-23.139,22.883-7.287,31.064c0.575,0.384,1.79,1.343,1.342,2.302
			c-3.451,1.15-6.392,0.958-9.651,1.021l0,0c-5.305,0.703-9.268-4.155-12.335-10.482c-0.768-1.981-1.406-4.155-1.982-6.648
			c-0.383-2.365-2.173-8.245,1.471-8.182c0.831,0.128,0.959-0.703,0.639-1.15c-3.323-4.922-11.058-3.835-14.062,0.831
			c-2.812,4.347,2.685,23.65,4.347,31.448c1.086,5.113,2.557,14.894-5.37,14.829c-2.236,0-3.963-1.726-6.008-1.981
			c-0.512-0.063-0.384,0.703,0,1.15c4.666,7.927,16.107,10.931,21.669,1.981c2.045-3.643,2.236-9.141,1.598-15.085
			c2.812,2.109,6.392,2.749,10.034,2.365c13.615,0.831,16.747-2.749,23.65-4.603c6.52,3.707,8.692,4.347,17.832,4.603l0,0l0,0h0.001
			l0,0c6.584-0.384,16.682-1.087,18.919-8.948C192.358,54.833,183.025,21.978,184.176,12.263z M149.789,57.134
			c-0.768,0.895-2.429,0.575-3.26-0.192c-4.347-4.219-12.72-13.167-4.347-18.601C151.77,35.913,154.71,51.381,149.789,57.134z"/>
		<path fill="#FFFFFF" d="M214.792,13.221c-0.063-0.575,0.831-1.342,1.598-1.598c0.512-0.127,0.512-1.022,0.256-1.342
			c-0.959-0.895-2.365-1.534-3.835-2.045c-6.392-2.237-10.738,1.151-10.675,7.606c2.302,15.405,4.475,30.298,7.096,46.341
			c0.895,5.561,1.214,10.803-0.768,13.168c-0.128,0.767,1.087,1.854,1.79,1.47c14.51-5.433,9.972-13.999,8.82-26.59
			C217.989,37.958,215.687,25.941,214.792,13.221z"/>
		<path fill="#FFFFFF" d="M255.891,19.357c4.475,0.767,10.099,0.447,14.445-0.192c1.79-0.255,3.005-1.214,3.196-2.812
			c0.063-0.448-0.575-1.662-1.343-1.534c-2.173,0.319-4.282,1.022-6.583,0.319c-2.812-0.895-5.241-5.816-1.79-7.542
			c1.406-0.767,2.493,3.196,4.091,3.644c1.47,0.575,3.644-1.726,3.26-3.004c-2.173-7.351-14.51-5.177-14.957,1.982
			c-0.512,2.237,1.343,3.771,2.046,5.561c-1.278,0.128-2.237-0.511-3.133-0.255c-0.639,0.191-1.022,1.15-0.895,1.854
			C254.42,18.207,254.996,19.038,255.891,19.357z"/>
		<path fill="#FFFFFF" d="M348.443,39.492c-5.369-3.452-11.953-5.433-18.345-3.835c-9.523,2.365-10.866,14.062-9.204,21.796
			c0.959,4.539-0.896,6.583-5.753,6.775v0.001c-6.071,0.829-9.97-1.472-12.078-7.095c-4.857-12.848-4.794-33.494-6.52-43.721
			c-1.215-6.264-7.287-3.452-8.565-2.621c-3.067,2.045-5.05,5.752-4.41,11.122c0.895,6.136,4.538,15.916,6.137,23.65
			c0.895,4.091,2.429,9.524,0.575,13.551c-1.471,2.876-7.671,12.273-9.013,5.88c-1.79-12.656-7.606-28.508-10.738-35.283
			c-3.068-6.711-11.634-1.406-9.78,4.73c3.58,11.825,10.163,22.116,12.593,34.325c0.191,0.895,0.191,2.301-0.896,2.748
			c-6.903,2.877-17.45-0.959-17.77-9.396c-0.063-2.236-1.598-2.045-2.109-1.342c-3.26,4.603-3.707,9.972-1.534,15.021
			c5.562,12.911,23.331,6.199,31.065,2.045c14.126-7.479,14.062-17.002,16.299-13.742c3.579,8.245,7.159,10.163,16.747,9.204v-0.001
			c10.992-0.576,14.826-7.221,17.511-4.473c6.328,5.88,15.469,6.455,21.669,0.447c0,0.063,0.063,0.063,0.063,0.063
			c0-0.063,0-0.063,0-0.128c0.192-0.191,0.319-0.32,0.512-0.512C361.291,59.307,357.583,45.5,348.443,39.492z M342.307,66.083
			c-1.599,0.831-5.434-1.79-6.265-2.94c-3.004-4.155-4.794-13.295-1.854-18.792c0.447-0.831,1.278-1.534,2.046-1.598
			C345.63,41.665,350.489,61.48,342.307,66.083z"/>
		<path fill="#FFFFFF" d="M382.766,50.23c-1.086-12.272-3.388-24.29-4.282-37.009c-0.063-0.575,0.831-1.342,1.598-1.598
			c0.512-0.127,0.512-1.022,0.256-1.342c-0.959-0.895-2.365-1.534-3.835-2.045c-6.392-2.237-10.738,1.151-10.675,7.606
			c2.302,15.405,4.475,30.298,7.096,46.341c0.895,5.561,1.214,10.803-0.768,13.168c-0.128,0.767,1.087,1.854,1.79,1.47
			C388.456,71.388,383.917,62.822,382.766,50.23z"/>
	</g>
</g>
</svg>
