<?xml version="1.0" encoding="utf-8"?>
<!-- Generator: Adobe Illustrator 21.0.0, SVG Export Plug-In . SVG Version: 6.00 Build 0)  -->
<svg version="1.1" id="Layer_1" xmlns="http://www.w3.org/2000/svg" xmlns:xlink="http://www.w3.org/1999/xlink" x="0px" y="0px"
	 viewBox="0 0 59 59" style="enable-background:new 0 0 59 59;" xml:space="preserve">
<style type="text/css">
	.st0{fill:#0199DE;}
</style>
<g>
	<path class="st0" d="M13.2,38.8h11.1v3.4H13.2V38.8z"/>
	<path class="st0" d="M39,16.9c0,1.1-0.3,1.8-0.8,2.1l-7.6,4.3c0-1,0.5-1.9,1.6-2.5L39,16.9z"/>
	<path class="st0" d="M32.6,42.1c-2,0-3.3-1-3.9-3.2c-1.6,2.1-3.1,3.2-4.3,3.2h-2v-3.4c2.2,0,3.7-0.2,4.5-0.6s1.2-0.8,1.4-1.3
		c0.1-0.3,0.2-1,0.2-2l0.4,0c0.2,1,0.7,2,1.4,3c0.5,0.6,1.5,1,3.2,1l-0.2-0.1c0,0,0,0,0.1,0c0.1,0,0.1,0,0.1,0v3.4H32.6z"/>
	<path class="st0" d="M32.6,38.8c1.4,0,2.6-0.5,3.7-1.6c0.5-0.5,0.8-1.2,1-2.1c0-0.8,0.1-1.6,0.1-2.4h0.4c0.3,1.1,1,2,2.1,2.8
		c1.1,0.8,2.2,1.2,3.3,1.2c0.2,0,0.4-0.1,0.8-0.3c0.4-0.2,0.5-0.4,0.5-0.5c0-0.7-0.4-1.4-1.3-2.2l1-3.1c1,0.6,1.5,1.6,1.5,3.1
		c0,1.5-0.3,2.9-0.9,4.1c-0.7,1.6-1.8,2.4-3.1,2.4c-1.1,0-2.4-0.8-3.9-2.3c-0.5,1.1-1.3,2-2.2,2.8c-1.1,0.9-2.1,1.4-3.1,1.4V38.8z"
		/>
</g>
</svg>
