<?xml version="1.0" encoding="utf-8"?>
<!-- Generator: Adobe Illustrator 21.0.0, SVG Export Plug-In . SVG Version: 6.00 Build 0)  -->
<svg version="1.1" id="Isolation_Mode" xmlns="http://www.w3.org/2000/svg" xmlns:xlink="http://www.w3.org/1999/xlink" x="0px"
	 y="0px" viewBox="0 0 142.1 69.9" style="enable-background:new 0 0 142.1 69.9;" xml:space="preserve">
<style type="text/css">
	.st0{fill:#0199DE;}
	.st1{display:none;}
	.st2{display:inline;fill:#0199DE;}
</style>
<g>
	<path class="st0" d="M13.3,17.6L13.1,20c-0.3-0.2-1-0.6-2-1.3c-2.1,2.4-3.7,3.5-5,3.5c-0.3,0-0.8-0.1-1.4-0.3
		c1.7-0.9,3.4-2.2,5.3-3.9c-1-0.7-1.5-1.5-1.5-2.3c0-0.8,0.3-1.7,0.9-2.7c0.6-1,1.3-1.5,2-1.5c1.1,0,1.7,0.7,1.7,2.2
		c0,0.8-0.3,1.8-0.8,3C12.6,17,12.9,17.2,13.3,17.6z M12.1,15.4c0-1-0.5-1.5-1.3-1.5c-0.3,0-0.5,0.2-0.5,0.5c0,0.5,0.6,1.2,1.7,1.9
		C12,15.9,12.1,15.6,12.1,15.4z"/>
	<path class="st0" d="M18.9,50.4H15c-1.6,0-2.8-2-3.5-6c-1.6,1.7-2.9,2.5-4.1,2.5c-0.8,0-1.7-0.1-2.5-0.3c-1.3-0.3-1.9-0.8-1.9-1.4
		c0-0.3,0.4-1.3,1.3-3.1c0.8-1.8,2.8-3.5,6.1-5.1c-0.1-0.7-0.2-1.6-0.3-2.9l1.3-1.5L13,42.8c0.4,2.3,0.8,3.6,1.4,4
		c0.3,0.2,1.8,0.3,4.5,0.3V50.4z M12.7,28.4l-1.9,2.8l-3-1.9l-1.7,2.5l-2.9-2l1.8-2.9l3,2l1.8-2.5L12.7,28.4z M11.3,42.6l-0.7-3.9
		c-2.2,0.7-3.8,2.1-5,4.1c0.3,0.3,1.2,0.5,2.5,0.5S10.5,43.1,11.3,42.6z"/>
	<path class="st0" d="M33.5,25.1c0,1.1-0.3,1.8-0.8,2.2L25,31.6c0-1,0.6-1.9,1.7-2.5L33.5,25.1z"/>
	<path class="st0" d="M27.1,50.4c-2,0-3.3-1-3.9-3.1c-1.6,2.1-3.1,3.1-4.3,3.1h-2v-3.3c2.2,0,3.7-0.2,4.5-0.6
		c0.8-0.4,1.2-0.8,1.4-1.3c0.1-0.3,0.2-1,0.2-2l0.4,0c0.2,1,0.7,2,1.4,3c0.5,0.6,1.5,1,3.2,1l-0.2,0c0,0,0,0,0.1,0
		c0.1,0,0.1,0,0.1,0v3.3H27.1z"/>
	<path class="st0" d="M27.1,47.1c1.4,0,2.6-0.5,3.7-1.6c0.5-0.5,0.8-1.2,0.9-2.1c0-0.8,0.1-1.6,0.2-2.4h0.4c0.3,1.1,1,2,2.1,2.8
		c1.1,0.8,2.2,1.2,3.3,1.2c0.2,0,0.4-0.1,0.8-0.3c0.4-0.2,0.6-0.4,0.6-0.5c0-0.7-0.4-1.4-1.3-2.1l0.9-3.1c1,0.6,1.5,1.6,1.5,3.2
		c0,1.5-0.3,2.9-0.8,4.1c-0.7,1.6-1.8,2.4-3.1,2.4c-1.1,0-2.4-0.8-3.9-2.3c-0.5,1.1-1.3,2-2.2,2.8c-1.1,0.9-2.1,1.4-3.1,1.4V47.1z"
		/>
	<path class="st0" d="M58.5,26.1c0,1.1-0.3,1.8-0.8,2.2L50,32.6c0-1,0.6-1.9,1.7-2.5L58.5,26.1z"/>
	<path class="st0" d="M62.1,48.1c0,3.2-0.9,6.2-2.8,9c-2.1,3.1-4.6,4.7-7.7,4.7c-1.6,0-3.6-0.6-6.1-1.8l0.5-0.5
		c0.9,0.3,1.9,0.5,3,0.5c1.6,0,3.2-0.5,4.6-1.4c1.6-1,3.1-2.3,4.5-3.7c1.8-1.9,2.7-3.5,2.7-4.8c0-0.9-0.4-2-1-3.3
		c-0.6-1.1-1.2-2.1-1.8-3.2l1.9-3.4C61.3,42.4,62.1,45,62.1,48.1z"/>
	<path class="st0" d="M81.1,19.8c0,1-0.4,1.9-1.1,2.8c-0.8,0.9-1.6,1.3-2.6,1.3c-1.8,0-2.7-1-2.7-3c0-1.2,0.3-2.3,0.8-3.2
		c0.6-1.1,1.5-1.6,2.7-1.6c0.8,0,1.5,0.4,2.1,1.2C80.8,18.1,81.1,18.9,81.1,19.8z M79.7,20.4c0-0.4-0.3-0.9-1-1.4
		c-0.7-0.5-1.3-0.8-1.7-0.8c-1,0-1.5,0.6-1.5,1.7c0,1,0.8,1.5,2.5,1.5C79.1,21.5,79.7,21.1,79.7,20.4z"/>
	<path class="st0" d="M90.8,50.4H87c-2.2,0-3.8-2-4.8-6.1c-1,2.1-2.2,3.6-3.6,4.4c-1.3,0.8-3.2,1.2-5.6,1.2c-2.8,0-4.2-0.8-4.2-2.5
		c0-0.5,0.4-1.7,1.1-3.7l0.7,0V44c0,1,0.3,1.6,1,2c0.5,0.2,1.3,0.3,2.4,0.3c2.4,0,4.1-0.2,5.1-0.7c1.7-0.7,2.6-2,2.6-3.9
		c0-1.2-0.3-3-0.8-5.4C80.3,34,80,32.2,80,31.1l1.7-2.3l2.1,12.5c0.6,3.9,1.9,5.8,3.9,5.8h3.2V50.4z"/>
	<path class="st0" d="M104.1,26.5c0,1.1-0.3,1.8-0.8,2.2l-7.6,4.3c0-1,0.5-1.9,1.6-2.5L104.1,26.5z"/>
	<path class="st0" d="M112.8,50.4H109c-1.7,0-3.2-0.6-4.6-1.8c0,0.7-0.2,1.3-0.7,1.8s-1,0.8-1.7,0.8c-2.7,0-5-1.4-6.8-4.1
		c-0.4,0.4-1,1-1.8,1.8c-0.6,0.8-1.3,1.2-2.1,1.4c-0.3,0.1-1.1,0.1-2.5,0.1v-3.3h1.9c1.4,0,3.1-1.1,5-3.2c1.9-2.1,3.2-3.2,3.9-3.2
		c0.4,0,1.7,1.1,4,3.2c2.3,2.1,4,3.2,5.3,3.2h3.8V50.4z M99.9,43c-0.4,0-0.8,0.3-1.4,0.9c-0.5,0.6-0.9,1.1-1.1,1.5
		c1.9,1.8,3.1,2.8,3.6,2.8c0.3,0,0.6-0.2,1-0.6c0.4-0.4,0.6-0.8,0.6-1.1c0-0.2-0.4-0.9-1.2-1.9C100.6,43.5,100.1,43,99.9,43z"/>
	<path class="st0" d="M110.9,47.1H122v3.3h-11.2V47.1z"/>
	<path class="st0" d="M128.1,11.9c0,1-0.4,1.9-1.1,2.8c-0.8,0.9-1.6,1.3-2.6,1.3c-1.8,0-2.7-1-2.7-3c0-1.2,0.3-2.3,0.8-3.2
		c0.6-1.1,1.5-1.6,2.7-1.6c0.8,0,1.5,0.4,2.1,1.2C127.8,10.2,128.1,11.1,128.1,11.9z M126.7,12.5c0-0.4-0.4-0.9-1-1.4
		c-0.7-0.5-1.3-0.8-1.7-0.8c-1,0-1.5,0.6-1.5,1.7c0,1,0.8,1.5,2.5,1.5C126.1,13.6,126.7,13.2,126.7,12.5z"/>
	<path class="st0" d="M124.5,24.6c-0.3-0.3-0.7-0.9-1.2-1.6c0.5-1.2,1.2-2.3,2.2-3.3c0.1,1,0.5,1.8,1.2,2.5c0.7,0.7,1.5,1.1,2.5,1.2
		l-1.8,3.3l-0.9-0.5c-0.2,1.7-0.3,2.7-0.3,2.9c0,1.3,0.3,3.3,0.8,5.9c0.5,2.6,0.8,4.6,0.8,5.9c0,6.4-2,9.6-5.8,9.6h-2v-3.3
		c1.9,0,3.2-0.1,4.1-0.3c1.6-0.5,2.5-1.5,2.5-2.9c0-0.6-0.2-2.3-0.7-5.3c-0.3-2-0.6-3.9-1-5.8c-0.4-2.4-0.6-4.4-0.6-5.8
		c0-0.2,0-0.5,0.1-1c0.1-0.5,0.1-0.9,0-1.2V24.6z"/>
	<path class="st0" d="M139.2,43.5c0,1.7-0.5,4-1.4,6.9l-0.6-0.1c0.2-1,0.3-2,0.3-3c0-2-0.2-4.6-0.7-7.8c-0.3-2.6-0.7-5.1-1-7.7
		c-0.2-1.6-0.3-2.5-0.3-2.8c0-1.4,0.2-2.5,0.5-3.2c0.5-0.9,0.9-1.8,1.4-2.7c0,2.6,0.5,8,1.5,16.2C139.1,40.9,139.2,42.3,139.2,43.5z
		"/>
</g>
<g class="st1">
	<path class="st2" d="M35,17.7l-0.2,2.4c-0.3-0.2-1-0.6-2-1.3c-2.1,2.4-3.7,3.6-4.9,3.6c-0.3,0-0.8-0.1-1.5-0.3
		c1.7-0.9,3.4-2.2,5.3-3.9c-1-0.7-1.5-1.5-1.5-2.3c0-0.8,0.3-1.7,0.9-2.7c0.6-1,1.3-1.5,2.1-1.5c1.1,0,1.7,0.7,1.7,2.2
		c0,0.8-0.3,1.8-0.8,3C34.2,17.1,34.5,17.3,35,17.7z M33.7,15.5c0-1-0.5-1.5-1.4-1.5c-0.3,0-0.5,0.2-0.5,0.5c0,0.5,0.6,1.1,1.7,1.9
		C33.7,16,33.7,15.7,33.7,15.5z"/>
	<path class="st2" d="M40.4,43.3c0,3.2-1,5.8-3.1,7.7c-2.1,1.9-4.7,2.8-7.9,2.8c-5.3,0-7.9-2.6-7.9-7.8c0-1.7,0.7-4.2,2.1-7.6
		l0.5,0.3c-0.8,3.1-1.3,5.1-1.3,5.9c0,3.5,2.3,5.3,6.8,5.3c2.1,0,4.1-0.4,6-1.2c2.5-1,3.7-2.4,3.7-4.1c0-2.9-1.2-6.2-3.6-9.9
		c0.3-0.7,0.7-1.9,1.2-3.4C39.2,34.8,40.4,38.8,40.4,43.3z M31.9,28.3l-1.8,3l-2.8-2l1.8-3L31.9,28.3z"/>
	<path class="st2" d="M50.6,44.3c0,1.7-0.5,4-1.4,6.9L48.6,51c0.2-1,0.3-2,0.3-3c0-2-0.2-4.6-0.7-7.8c-0.3-2.6-0.7-5.1-1-7.7
		c-0.2-1.6-0.3-2.5-0.3-2.8c0-1.4,0.2-2.5,0.5-3.2c0.5-0.9,1-1.8,1.5-2.7c0,2.6,0.5,8,1.5,16.1C50.5,41.6,50.6,43,50.6,44.3z"/>
	<path class="st2" d="M77.1,51.2h-4.3c-0.2,1.1-0.7,2.6-1.3,4.7c-0.8,2.2-2,4.1-3.6,5.7c-1.8,1.9-3.8,2.9-5.8,2.9
		c-1.5,0-3.7-0.8-6.5-2.3l0.4-0.5c1.4,0.5,2.5,0.8,3.4,0.8c2.9,0,5.6-1.1,8-3.4c2.2-2.2,3.7-4.8,4.3-7.8c-4.2,0-6.3-1-6.3-2.9
		c0-1,0.5-2.3,1.5-4.1c1.1-1.9,2-2.9,2.8-2.9c1,0,1.9,0.9,2.5,2.6c0.5,1.4,0.8,2.7,0.8,3.9h4.1V51.2z M71.5,47.8c-0.6-2-1.5-3-2.7-3
		c-0.3,0-0.6,0.1-0.9,0.4c-0.3,0.3-0.4,0.6-0.4,0.9C67.5,47.2,68.8,47.7,71.5,47.8z"/>
	<path class="st2" d="M83.5,12.7c0,1-0.4,1.9-1.1,2.8c-0.8,0.9-1.6,1.3-2.6,1.3c-1.8,0-2.7-1-2.7-3c0-1.2,0.3-2.3,0.8-3.1
		c0.6-1.1,1.5-1.6,2.7-1.6c0.8,0,1.5,0.4,2.1,1.2C83.2,11,83.5,11.8,83.5,12.7z M82.1,13.3c0-0.4-0.4-0.9-1.1-1.4
		c-0.7-0.5-1.3-0.8-1.7-0.8c-1,0-1.5,0.6-1.5,1.7c0,1,0.8,1.5,2.4,1.5C81.5,14.3,82.1,14,82.1,13.3z"/>
	<path class="st2" d="M79.9,25.4c-0.3-0.3-0.7-0.9-1.1-1.6c0.5-1.2,1.2-2.3,2.2-3.3c0.1,1,0.5,1.8,1.2,2.5c0.7,0.7,1.5,1.1,2.5,1.2
		l-1.8,3.3L82,26.9c-0.2,1.7-0.3,2.7-0.3,2.9c0,1.3,0.3,3.3,0.8,5.9c0.5,2.6,0.8,4.6,0.8,5.9c0,6.4-1.9,9.6-5.8,9.6h-2v-3.4
		c1.9,0,3.2-0.1,4.1-0.3c1.6-0.5,2.4-1.5,2.4-2.9c0-0.6-0.2-2.3-0.7-5.3c-0.3-2-0.7-3.9-1-5.9c-0.4-2.4-0.6-4.4-0.6-5.8
		c0-0.2,0-0.5,0.1-1s0.1-0.9,0-1.2V25.4z"/>
	<path class="st2" d="M95.2,5.4c0,1.1-0.3,1.8-0.8,2.1l-7.6,4.3c0-1,0.6-1.9,1.7-2.5L95.2,5.4z"/>
	<path class="st2" d="M95,20.2c-0.2,1-0.5,1.5-0.9,1.6l-6.8,2c0.1-0.7,0.4-1.2,0.8-1.5c0.2-0.1,0.8-0.4,1.7-0.7
		c-1-0.5-1.5-1.1-1.7-1.9c0-0.3,0.1-0.6,0.4-1.1c0.6-0.8,1.3-1.5,2-2.1c0.8-0.6,1.4-0.9,2-0.9c0.9,0,1.3,0.5,1.3,1.4
		c0,0.5-0.3,1-0.8,1.6c-0.8-0.5-1.5-0.8-2-0.8c-0.5,0-1,0.3-1.6,0.8c1.4,1.3,2.5,1.9,3.5,1.9C93.6,20.6,94.2,20.5,95,20.2z"/>
	<path class="st2" d="M109.6,14.9c0,1-0.4,1.9-1.1,2.8c-0.8,0.9-1.6,1.3-2.6,1.3c-1.8,0-2.7-1-2.7-3c0-1.2,0.3-2.3,0.8-3.1
		c0.6-1.1,1.5-1.6,2.7-1.6c0.8,0,1.5,0.4,2.1,1.2C109.3,13.2,109.6,14,109.6,14.9z M108.2,15.5c0-0.4-0.4-0.9-1-1.4
		c-0.7-0.5-1.3-0.8-1.7-0.8c-1,0-1.5,0.6-1.5,1.7c0,1,0.8,1.5,2.5,1.5C107.6,16.5,108.2,16.2,108.2,15.5z"/>
	<path class="st2" d="M106.9,27.2c-0.4-0.4-0.7-0.8-0.9-1.3c0.5-1.4,1.3-2.4,2.3-3.2c0.1,1,0.5,1.8,1.2,2.4c0.7,0.7,1.5,1.1,2.4,1.1
		l-1.8,3.3l-1.3-0.7c-0.1,0.8-0.2,1.6-0.2,2.6c0,5.8-0.9,10.8-2.7,15c0.9,1.6,1.3,3.2,1.3,4.8c0,2.4-1.6,3.6-4.8,3.6h-5.6v-3.4
		c3.3,0,5.7-1.6,7.2-4.8c-3.8-6.9-7.8-12.2-12-16l-1.2,1c-1.1-1.1-1.8-1.7-1.8-1.8c-0.6-0.7-0.9-1.5-0.9-2.4c0-0.8,0.4-2.1,1.2-3.8
		c5.5,4.5,10.8,11.5,15.8,21c1.4-3.1,2.1-6.6,2.1-10.6c0-0.8-0.1-1.9-0.2-3.5C106.9,29.2,106.9,28,106.9,27.2z M105.7,50.7
		c0-0.7-0.3-1.5-0.8-2.4c-0.7,1.4-1.5,2.5-2.5,3.3h0.5C104.7,51.6,105.7,51.3,105.7,50.7z"/>
	<path class="st2" d="M120.7,44.3c0,1.7-0.5,4-1.4,6.9l-0.6-0.1c0.2-1,0.3-2,0.3-3c0-2-0.2-4.6-0.6-7.8c-0.3-2.6-0.7-5.1-1-7.7
		c-0.2-1.6-0.3-2.5-0.3-2.8c0-1.4,0.2-2.5,0.4-3.2c0.5-0.9,1-1.8,1.5-2.7c0,2.6,0.5,8,1.5,16.1C120.6,41.6,120.7,43,120.7,44.3z"/>
</g>
<g class="st1">
	<path class="st2" d="M53.6,14.3l-0.2,2.5c-0.3-0.2-1-0.6-2-1.3c-2.1,2.4-3.7,3.5-5,3.5c-0.3,0-0.8-0.1-1.4-0.3
		c1.7-0.9,3.4-2.2,5.3-3.9c-1-0.7-1.5-1.5-1.5-2.3c0-0.8,0.3-1.7,0.9-2.7c0.6-1,1.3-1.5,2-1.5c1.1,0,1.7,0.7,1.7,2.2
		c0,0.8-0.3,1.8-0.8,3C52.8,13.6,53.1,13.9,53.6,14.3z M52.3,12c0-1-0.5-1.5-1.3-1.5c-0.3,0-0.5,0.2-0.5,0.5c0,0.5,0.6,1.2,1.7,1.9
		C52.3,12.5,52.3,12.3,52.3,12z"/>
	<path class="st2" d="M53.6,14.3l-0.2,2.5c-0.3-0.2-1-0.6-2-1.3c-2.1,2.4-3.7,3.5-5,3.5c-0.3,0-0.8-0.1-1.4-0.3
		c1.7-0.9,3.4-2.2,5.3-3.9c-1-0.7-1.5-1.5-1.5-2.3c0-0.8,0.3-1.7,0.9-2.7c0.6-1,1.3-1.5,2-1.5c1.1,0,1.7,0.7,1.7,2.2
		c0,0.8-0.3,1.8-0.8,3C52.8,13.6,53.1,13.9,53.6,14.3z M52.3,12c0-1-0.5-1.5-1.3-1.5c-0.3,0-0.5,0.2-0.5,0.5c0,0.5,0.6,1.2,1.7,1.9
		C52.3,12.5,52.3,12.3,52.3,12z"/>
	<path class="st2" d="M56.6,29.3L56.6,29.3c0,0.9,0.2,2.7,0.5,5.5c1,8.5,1.5,13.9,1.5,16.2c0,2.4-0.4,4.2-1.2,5.5S55.2,59,53.1,60
		C51,61,49,61.5,47,61.5c-2.2,0-4-0.5-5.5-1.6C39.9,58.7,39,57.1,39,55c0-2.2,0.8-5.3,2.5-9.5l0.7,0.4c-1,3.7-1.5,5.9-1.5,6.5
		c0,3.6,2.3,5.4,6.8,5.4c1.9,0,4-0.4,6.1-1.3c2.7-1.1,4.1-2.4,4.1-4c0-1.8-0.3-4.8-0.9-9c-0.6-4.4-1.4-9.7-2.3-15.8
		c-0.5-0.2-0.9-0.8-1.3-1.7c0.5-1.4,1.3-2.4,2.3-3.1c0.1,0.9,0.5,1.7,1.2,2.4c0.7,0.7,1.5,1.1,2.4,1.2l-1.8,3.3L56.6,29.3z"/>
	<path class="st2" d="M79.2,54.4h-3.9c-3.1,0-4.8-1.8-5.2-5.3c-0.5-4.5-1.2-11-1.9-19.6c0.7-0.9,1.3-1.7,1.9-2.4l1.8,20.2
		c0.1,1.6,0.6,2.6,1.4,3.2c0.6,0.4,1.5,0.6,2.8,0.6c0.3,0,0.8,0,1.5,0c0.7,0,1.2,0,1.6,0V54.4z"/>
	<path class="st2" d="M89.7,54.4h-3.8c-0.5,0-1.1-0.4-1.6-1.1s-0.8-1.4-0.8-2c-1.1,2.1-2.6,3.1-4.3,3.1h-1.9V51
		c2.2,0,3.6-0.2,4.2-0.5c0.8-0.4,1.2-0.9,1.3-1.3c0.1-0.3,0.2-1,0.2-2.1l0.4,0.1c0.4,1.7,1.1,2.8,2.2,3.3c0.7,0.3,2.1,0.5,4.1,0.5
		V54.4z M85.4,39.5l-1.9,2.9l-2.7-1.8l1.7-3L85.4,39.5z"/>
	<path class="st2" d="M100.4,28.8c0,1.1-0.3,1.8-0.8,2.2L92,35.2c0-1,0.5-1.9,1.7-2.5L100.4,28.8z"/>
	<path class="st2" d="M103.1,49c0,0.7-0.3,1.5-0.8,2.4c-0.5,0.9-1.1,1.4-1.7,1.4c-0.9,0-2.8-0.8-5.8-2.5c-1.7,2.7-3.4,4.1-5,4.1h-2
		V51h2c0.6,0,1.5-0.3,2.6-0.9c0.6-0.3,1.1-0.6,1.3-0.8s0.5-0.6,0.8-1.1c0.7-1.2,1.4-2.4,2.1-3.5c1-1.5,2.1-2.3,3.1-2.3
		c0.9,0,1.8,0.9,2.5,2.6C102.8,46.6,103.1,47.9,103.1,49z M100.2,48.3c0-1.8-0.6-2.6-1.9-2.6c-0.4,0-0.8,0.2-1.1,0.5
		c-0.3,0.3-0.5,0.7-0.6,1.1C97.3,47.6,98.5,48,100.2,48.3z"/>
</g>
</svg>
