<?xml version="1.0" encoding="utf-8"?>
<!-- Generator: Adobe Illustrator 21.0.0, SVG Export Plug-In . SVG Version: 6.00 Build 0)  -->
<svg version="1.1" id="Layer_1" xmlns="http://www.w3.org/2000/svg" xmlns:xlink="http://www.w3.org/1999/xlink" x="0px" y="0px"
	 viewBox="0 0 39 42.6" style="enable-background:new 0 0 39 42.6;" xml:space="preserve">
<style type="text/css">
	.st0{opacity:0.3;fill:#9C9C9C;enable-background:new    ;}
	.st1{fill:#FFBE30;}
	.st2{fill:#FFFFFF;}
	.st3{opacity:0.3;fill:#FFDF9F;}
	.st4{opacity:0.4;}
	.st5{opacity:0.5;fill:#D89713;}
</style>
<g>
	<g>
		<ellipse class="st0" cx="19.5" cy="24.2" rx="18.5" ry="18.4"/>
		<g>
			<ellipse class="st1" cx="19.5" cy="19.4" rx="18.5" ry="18.4"/>
			<path class="st2" d="M19.5,38.8C8.7,38.8,0,30.1,0,19.4S8.7,0,19.5,0S39,8.7,39,19.4S30.3,38.8,19.5,38.8z M19.5,2
				C9.9,2,2,9.8,2,19.4C2,29,9.9,36.8,19.5,36.8C29.1,36.8,37,29,37,19.4C37,9.8,29.1,2,19.5,2z"/>
		</g>
	</g>
	<path class="st3" d="M18.7,1.5C9.7,1.5,1.1,9.4,1,18.4c2.7,1.9,7.3,2.4,10.9,2.4c8.9,0,17.2-7.5,17.3-16.5
		C26.6,2.3,22.2,1.5,18.7,1.5z"/>
	<g class="st4">
		<ellipse transform="matrix(0.7767 -0.6299 0.6299 0.7767 -2.033 8.6667)" class="st2" cx="11.2" cy="7.2" rx="4.3" ry="2.2"/>
		<ellipse transform="matrix(0.3352 -0.9421 0.9421 0.3352 -7.1703 14.2049)" class="st2" cx="6.5" cy="12.2" rx="1.8" ry="1.1"/>
	</g>
	<path class="st5" d="M34.4,10.4c1.2,2.2,0.4,5.8,0.4,8.5c0,8.7-7.1,15.8-15.8,15.8c-5.1,0-10.4-1.2-13.3-4.9
		c2.7,5,8.8,7.2,14.8,7.2c8.7,0,15.2-6.6,16.4-15.3C37.4,18.2,36.5,13.1,34.4,10.4z"/>
	<g>
		<path class="st2" d="M18.9,11V8.5c0-0.1,0.2-0.2,0.3-0.1l5.2,3.8c0.1,0.1,0.1,0.2,0,0.3l-5.2,3.8c-0.1,0.1-0.3,0-0.3-0.1v-2.5
			c-3.8,0.1-6.9,3.3-6.6,7.2c0.2,3.4,3,6.1,6.3,6.3c3.6,0.2,6.6-2.3,7.1-5.7c0.1-0.6,0.6-1.1,1.3-1.1l0,0c0.8,0,1.4,0.7,1.3,1.5
			c-0.8,4.8-5.2,8.4-10.3,7.8c-4.3-0.5-7.7-3.9-8.2-8.2C9.1,15.9,13.4,11.1,18.9,11z"/>
	</g>
</g>
</svg>
