<?xml version="1.0" encoding="utf-8"?>
<!-- Generator: Adobe Illustrator 22.1.0, SVG Export Plug-In . SVG Version: 6.00 Build 0)  -->
<svg version="1.1" id="Layer_1" xmlns="http://www.w3.org/2000/svg" xmlns:xlink="http://www.w3.org/1999/xlink" x="0px" y="0px"
	 viewBox="0 0 273.4 89.1" style="enable-background:new 0 0 273.4 89.1;" xml:space="preserve">
<style type="text/css">
	.st0{clip-path:url(#SVGID_2_);}
	.st1{clip-path:url(#SVGID_4_);}
	.st2{opacity:0.5;}
	.st3{clip-path:url(#SVGID_6_);}
	.st4{clip-path:url(#SVGID_8_);fill:url(#SVGID_9_);}
	.st5{clip-path:url(#SVGID_12_);}
	.st6{clip-path:url(#SVGID_13_);fill:#FFFFFF;}
	.st7{clip-path:url(#SVGID_13_);fill:#BF5000;}
	.st8{clip-path:url(#SVGID_15_);}
	.st9{clip-path:url(#SVGID_17_);fill:url(#SVGID_18_);}
	.st10{clip-path:url(#SVGID_20_);}
	.st11{clip-path:url(#SVGID_22_);fill:url(#SVGID_23_);}
	.st12{clip-path:url(#SVGID_25_);}
	.st13{clip-path:url(#SVGID_27_);fill:url(#SVGID_28_);}
	.st14{clip-path:url(#SVGID_30_);}
	.st15{clip-path:url(#SVGID_32_);fill:url(#SVGID_33_);}
	.st16{clip-path:url(#SVGID_35_);}
	.st17{clip-path:url(#SVGID_39_);}
	.st18{clip-path:url(#SVGID_40_);}
	.st19{clip-path:url(#SVGID_41_);fill:#FFFFFF;}
	.st20{clip-path:url(#SVGID_41_);fill:#D8D8D8;}
	.st21{clip-path:url(#SVGID_41_);fill:#E0E0E0;}
</style>
<g>
	<g>
		<defs>
			<rect id="SVGID_1_" width="273.4" height="98.2"/>
		</defs>
		<clipPath id="SVGID_2_">
			<use xlink:href="#SVGID_1_"  style="overflow:visible;"/>
		</clipPath>
		<g class="st0">
			<g>
				<defs>
					<rect id="SVGID_3_" width="273.4" height="98.2"/>
				</defs>
				<clipPath id="SVGID_4_">
					<use xlink:href="#SVGID_3_"  style="overflow:visible;"/>
				</clipPath>
				<g class="st1">
					<g>
						<g class="st2">
							<defs>
								<rect id="SVGID_5_" x="0" y="10.1" class="st2" width="250.8" height="76"/>
							</defs>
							<clipPath id="SVGID_6_">
								<use xlink:href="#SVGID_5_"  style="overflow:visible;"/>
							</clipPath>
							<g class="st3">
								<g>
									<defs>
										<path id="SVGID_7_" d="M38,86.1c-21,0-38-17-38-38s17-38,38-38h174.8c21,0,38,17,38,38c0,21-17,38-38,38H38z"/>
									</defs>
									<clipPath id="SVGID_8_">
										<use xlink:href="#SVGID_7_"  style="overflow:visible;"/>
									</clipPath>
									
										<linearGradient id="SVGID_9_" gradientUnits="userSpaceOnUse" x1="-377.6473" y1="334.7318" x2="-376.6476" y2="334.7318" gradientTransform="matrix(4.160581e-09 -92.6703 -92.6703 -4.160581e-09 31145.0996 -34911.8242)">
										<stop  offset="0" style="stop-color:#C2C2C2"/>
										<stop  offset="1" style="stop-color:#808080"/>
									</linearGradient>
									<rect x="0" y="10.1" class="st4" width="250.8" height="76"/>
								</g>
							</g>
						</g>
						<g>
							<defs>
								<rect id="SVGID_10_" width="273.4" height="98.2"/>
							</defs>
							<defs>
								<rect id="SVGID_11_" width="273.4" height="98.2"/>
							</defs>
							<clipPath id="SVGID_12_">
								<use xlink:href="#SVGID_10_"  style="overflow:visible;"/>
							</clipPath>
							<clipPath id="SVGID_13_" class="st5">
								<use xlink:href="#SVGID_11_"  style="overflow:visible;"/>
							</clipPath>
							<path class="st6" d="M38,86.1c-20.5,0-37.2-16.2-38-36.5c0,0.5,0,1,0,1.5c0,21,17,38,38,38h174.8c21,0,38-17,38-38
								c0-0.5,0-1,0-1.5c-0.8,20.3-17.6,36.5-38,36.5H38"/>
							<path class="st7" d="M184.3,44c0-24.3,19.9-44,44.5-44c24.7,0,44.6,19.7,44.6,44s-19.9,44-44.5,44
								C204.2,88,184.3,68.3,184.3,44"/>
						</g>
						<g>
							<defs>
								<rect id="SVGID_14_" width="273.4" height="98.2"/>
							</defs>
							<clipPath id="SVGID_15_">
								<use xlink:href="#SVGID_14_"  style="overflow:visible;"/>
							</clipPath>
							<g class="st8">
								<g>
									<defs>
										<path id="SVGID_16_" d="M271.9,44c0-23.5-19.3-42.5-43.1-42.5s-43.1,19-43.1,42.5s19.3,42.5,43.1,42.5
											S271.9,67.5,271.9,44"/>
									</defs>
									<clipPath id="SVGID_17_">
										<use xlink:href="#SVGID_16_"  style="overflow:visible;"/>
									</clipPath>
									
										<linearGradient id="SVGID_18_" gradientUnits="userSpaceOnUse" x1="-369.7109" y1="327.0298" x2="-368.7112" y2="327.0298" gradientTransform="matrix(-3.538363e-09 78.8114 78.8114 3.538363e-09 -25544.8242 29148.1836)">
										<stop  offset="0" style="stop-color:#FFC800"/>
										<stop  offset="1" style="stop-color:#FF8E00"/>
									</linearGradient>
									<rect x="185.8" y="1.5" class="st9" width="86.1" height="85.1"/>
								</g>
								<g>
									<defs>
										<rect id="SVGID_19_" width="273.4" height="98.2"/>
									</defs>
									<clipPath id="SVGID_20_">
										<use xlink:href="#SVGID_19_"  style="overflow:visible;"/>
									</clipPath>
									<g class="st10">
										<g>
											<defs>
												<path id="SVGID_21_" d="M266.6,44c0-21.1-16.9-38.2-37.7-38.2c-20.8,0-37.7,17.1-37.7,38.2s16.9,38.2,37.7,38.2
													S266.6,65.1,266.6,44"/>
											</defs>
											<clipPath id="SVGID_22_">
												<use xlink:href="#SVGID_21_"  style="overflow:visible;"/>
											</clipPath>
											
												<linearGradient id="SVGID_23_" gradientUnits="userSpaceOnUse" x1="-382.2501" y1="340.7552" x2="-381.2501" y2="340.7552" gradientTransform="matrix(0.333 -41.333 -41.333 -0.333 14440.3506 -15614.0078)">
												<stop  offset="0" style="stop-color:#FFC800"/>
												<stop  offset="1" style="stop-color:#EB8D00"/>
											</linearGradient>
											<polygon class="st11" points="190.5,82.3 191.1,5.2 267.2,5.8 266.6,82.9 											"/>
										</g>
										<g>
											<defs>
												<rect id="SVGID_24_" width="273.4" height="98.2"/>
											</defs>
											<clipPath id="SVGID_25_">
												<use xlink:href="#SVGID_24_"  style="overflow:visible;"/>
											</clipPath>
											<g class="st12">
												<g>
													<defs>
														<path id="SVGID_26_" d="M261,17.8c-7.7-9.6-19.2-15.6-32.2-15.6c-12.9,0-24.4,6-32,15.6c7.9-8.4,19.4-13.7,32.1-13.7
															S253,9.4,261,17.8"/>
													</defs>
													<clipPath id="SVGID_27_">
														<use xlink:href="#SVGID_26_"  style="overflow:visible;"/>
													</clipPath>
													
														<linearGradient id="SVGID_28_" gradientUnits="userSpaceOnUse" x1="-345.0495" y1="299.7449" x2="-344.0494" y2="299.7449" gradientTransform="matrix(-5.238175e-10 11.6672 11.6672 5.238175e-10 -3268.2837 4028.3301)">
														<stop  offset="0" style="stop-color:#FFFFFF"/>
														<stop  offset="0.5636" style="stop-color:#FFED4A"/>
														<stop  offset="1" style="stop-color:#FFC800"/>
													</linearGradient>
													<rect x="196.8" y="2.2" class="st13" width="64.2" height="15.6"/>
												</g>
												<g>
													<defs>
														<rect id="SVGID_29_" width="273.4" height="98.2"/>
													</defs>
													<clipPath id="SVGID_30_">
														<use xlink:href="#SVGID_29_"  style="overflow:visible;"/>
													</clipPath>
													<g class="st14">
														<g>
															<defs>
																<path id="SVGID_31_" d="M186.9,42.2c0-6.8,1.5-13.1,4.2-18.8c-3.4,6.1-5.4,13.1-5.4,20.6
																	c0,23.5,19.3,42.5,43.1,42.5s43.1-19,43.1-42.5c0-7.5-2-14.5-5.3-20.5c2.8,5.6,4.3,12,4.3,18.7
																	c0,23.5-18.8,42.5-42,42.5S186.9,65.7,186.9,42.2"/>
															</defs>
															<clipPath id="SVGID_32_">
																<use xlink:href="#SVGID_31_"  style="overflow:visible;"/>
															</clipPath>
															
																<linearGradient id="SVGID_33_" gradientUnits="userSpaceOnUse" x1="-368.6429" y1="325.8481" x2="-367.6429" y2="325.8481" gradientTransform="matrix(-2.832957e-09 63.0996 63.0996 2.832957e-09 -20332.0332 23281.0234)">
																<stop  offset="0" style="stop-color:#FF8E00"/>
																<stop  offset="1" style="stop-color:#EB6200"/>
															</linearGradient>
															<rect x="185.8" y="23.4" class="st15" width="86.1" height="63.1"/>
														</g>
														<g>
															<defs>
																<rect id="SVGID_34_" width="273.4" height="98.2"/>
															</defs>
															<clipPath id="SVGID_35_">
																<use xlink:href="#SVGID_34_"  style="overflow:visible;"/>
															</clipPath>
															<g class="st16">
																<g>
																	<defs>
																		<rect id="SVGID_36_" width="273.4" height="98.2"/>
																	</defs>
																	<defs>
																		<rect id="SVGID_37_" width="273.4" height="98.2"/>
																	</defs>
																	<defs>
																		<rect id="SVGID_38_" width="273.4" height="98.2"/>
																	</defs>
																	<clipPath id="SVGID_39_">
																		<use xlink:href="#SVGID_36_"  style="overflow:visible;"/>
																	</clipPath>
																	<clipPath id="SVGID_40_" class="st17">
																		<use xlink:href="#SVGID_37_"  style="overflow:visible;"/>
																	</clipPath>
																	<clipPath id="SVGID_41_" class="st18">
																		<use xlink:href="#SVGID_38_"  style="overflow:visible;"/>
																	</clipPath>
																	<path class="st19" d="M193.7,44c0-19.2,15.7-34.7,35.2-34.7C248.3,9.3,264,24.8,264,44s-15.7,34.7-35.2,34.7
																		C209.4,78.7,193.7,63.2,193.7,44"/>
																	<path class="st20" d="M227.1,15.1c16.4,0,30.3,10.1,34.5,23.8c-2.5-15.7-16.2-27.7-32.8-27.7
																		c-10.8,0-20.3,5.1-26.4,12.9C208.8,18.5,217.5,15.1,227.1,15.1"/>
																	<path class="st21" d="M231.4,72.9c-18.7,0-34.4-12.2-37.7-28.3c0.3,18.9,15.9,34.1,35.1,34.1
																		c12.3,0,23.1-6.2,29.4-15.7C251.3,69.1,241.8,72.9,231.4,72.9"/>
																</g>
															</g>
														</g>
													</g>
												</g>
											</g>
										</g>
									</g>
								</g>
							</g>
						</g>
					</g>
				</g>
			</g>
		</g>
	</g>
</g>
</svg>
