<?xml version="1.0" encoding="utf-8"?>
<!-- Generator: Adobe Illustrator 19.2.0, SVG Export Plug-In . SVG Version: 6.00 Build 0)  -->
<svg version="1.1" id="Isolation_Mode" xmlns="http://www.w3.org/2000/svg" xmlns:xlink="http://www.w3.org/1999/xlink" x="0px"
	 y="0px" viewBox="0 0 195.2 193" style="enable-background:new 0 0 195.2 193;" xml:space="preserve">
<style type="text/css">
	.st0{fill:#FFFFFF;}
	.st1{fill:#FFCE00;}
	.st2{opacity:0.5;}
	.st3{fill:#E5A20C;}
	.st4{fill:#8B521D;}
	.st5{fill:none;stroke:#8B521D;stroke-width:6;stroke-linecap:round;stroke-linejoin:round;stroke-miterlimit:10;}
</style>
<g>
	<g>
		<g>
			<path class="st0" d="M149.4,193c-2.7,0-5.5-0.7-8.2-2.2l-39.4-20.7c-0.7-0.4-2.2-0.8-4.2-0.8s-3.5,0.4-4.2,0.8L54,190.8
				c-2.8,1.5-5.5,2.2-8.2,2.2c-4.1,0-7.8-1.7-10.4-4.7c-2.8-3.4-3.9-8.1-3.1-13.2l7.5-43.9c0.4-2.2-1-6.4-2.6-8L5.3,92.1
				c-4.7-4.6-6.4-10.3-4.7-15.6c1.7-5.3,6.5-8.9,13-9.9l44.1-6.4c2.2-0.3,5.8-2.9,6.8-4.9l19.7-39.9c2.9-5.9,7.8-9.3,13.4-9.3
				c5.6,0,10.5,3.4,13.4,9.3l19.7,39.9c1,2,4.6,4.6,6.8,4.9l44.1,6.4c6.5,0.9,11.2,4.5,13,9.9c1.7,5.3,0,11-4.7,15.6l-31.9,31.1
				c-1.6,1.5-3,5.8-2.6,8l7.5,43.9c0.9,5.1-0.2,9.8-3.1,13.2C157.2,191.3,153.6,193,149.4,193z"/>
		</g>
	</g>
	<g>
		<g>
			<path class="st1" d="M93.2,19.8c2.4-4.9,6.4-4.9,8.9,0l19.7,39.9c2.4,4.9,8.9,9.6,14.3,10.4l44.1,6.4c5.4,0.8,6.7,4.6,2.7,8.4
				L150.9,116c-3.9,3.8-6.4,11.4-5.5,16.8l7.5,43.9c0.9,5.4-2.3,7.8-7.2,5.2l-39.4-20.7c-4.9-2.6-12.8-2.6-17.7,0L49.3,182
				c-4.9,2.6-8.1,0.2-7.2-5.2l7.5-43.9c0.9-5.4-1.5-13-5.5-16.8L12.3,85c-3.9-3.8-2.7-7.6,2.7-8.4l44.1-6.4
				c5.4-0.8,11.9-5.5,14.3-10.4L93.2,19.8z"/>
		</g>
	</g>
	<g class="st2">
		<path class="st0" d="M180.1,76.6L136,70.1c-5.4-0.8-11.9-5.5-14.3-10.4L102,19.8c-2-4.1-5.1-4.8-7.4-2.2c0.5,0.6,1,1.3,1.4,2.1
			l19.7,39.9c2.4,4.9,8.9,9.6,14.3,10.4l44.1,6.4l6.8,1L180.1,76.6"/>
	</g>
	<g>
		<path class="st3" d="M152,171c-1.3,1.3-3.5,1.4-6.2,0l-39.4-20.7c-4.9-2.6-12.8-2.6-17.7,0L49.3,171c-2.7,1.4-4.9,1.3-6.2,0
			l-1,5.8c-0.9,5.4,2.3,7.8,7.2,5.2l39.4-20.7c4.9-2.6,12.8-2.6,17.7,0l39.4,20.7c4.9,2.6,8.1,0.2,7.2-5.2L152,171z"/>
		<path class="st3" d="M49.1,125.1l0.6-3.2c0.9-5.4-1.5-13-5.5-16.8L15,76.5c-5.4,0.8-6.6,4.6-2.7,8.4L44.2,116
			C46.4,118.2,48.2,121.6,49.1,125.1z"/>
		<path class="st3" d="M180.2,76.5L150.9,105c-3.9,3.8-6.4,11.4-5.5,16.8l0.6,3.2c0.9-3.5,2.7-6.9,4.9-9L182.8,85
			C186.7,81.1,185.5,77.4,180.2,76.5z"/>
	</g>
	<circle class="st4" cx="77.8" cy="85.7" r="6.7"/>
	<circle class="st4" cx="116.8" cy="85.7" r="6.7"/>
	<path class="st5" d="M123.4,114.9c-4.9,9-14.5,15.2-25.5,15.2c-10.9,0-20.5-6.1-25.4-15"/>
</g>
</svg>
