<svg xmlns="http://www.w3.org/2000/svg" width="326" height="459" viewBox="66.938 0 325.125 459"><path d="M296.438 76.5V57.375C296.438 24.862 271.575 0 239.063 0h-114.75C91.8 0 66.938 24.862 66.938 57.375V459l114.75-114.75L296.438 459V286.875c53.55-5.737 95.625-49.726 95.625-105.188S349.986 82.237 296.438 76.5zm-19.125 336.6l-95.625-95.625L86.062 413.1V57.375c0-21.038 17.212-38.25 38.25-38.25h114.75c21.037 0 38.25 17.212 38.25 38.25V76.5c-53.55 5.736-95.625 49.725-95.625 105.188s42.075 99.45 95.625 105.188V413.1zm9.562-145.35c-47.813 0-86.062-38.25-86.062-86.063s38.25-86.062 86.062-86.062 86.063 38.25 86.063 86.062a85.7 85.7 0 0 1-86.063 86.063z" fill="#2C2F33"/><path d="M296.438 172.125V114.75h-19.125v57.375h-57.375v19.125h57.375v57.375h19.125V191.25h57.375v-19.125z" fill="#3C92CA"/></svg>