<svg xmlns="http://www.w3.org/2000/svg" width="498" height="498" viewBox="0 0 497.25 497.25"><path d="M439.875 288.787V47.812c0-21.038-17.213-38.25-38.25-38.25H38.25C17.212 9.562 0 26.775 0 47.812v363.375c0 21.037 17.212 38.25 38.25 38.25h273.486c19.125 22.95 47.813 38.25 80.326 38.25 57.375 0 105.188-47.812 105.188-105.188 0-40.16-22.95-76.5-57.375-93.712zM19.125 47.812c0-11.475 7.65-19.125 19.125-19.125h363.375c11.475 0 19.125 7.65 19.125 19.125v57.375H19.125V47.812zm19.125 382.5c-11.475 0-19.125-7.65-19.125-19.125V124.312H420.75v156.825c-9.563-1.913-19.125-3.825-28.688-3.825-57.375 0-105.188 47.812-105.188 105.188 0 17.213 3.825 32.513 11.476 47.812H38.25zm353.813 38.25A85.7 85.7 0 0 1 306 382.5a85.7 85.7 0 0 1 86.063-86.063 85.7 85.7 0 0 1 86.062 86.063c-.001 47.812-38.25 86.062-86.062 86.062z" fill="#2C2F33"/><path d="M401.625 372.938v-57.376H382.5v57.376h-57.375v19.124H382.5v57.376h19.125v-57.376H459v-19.124z" fill="#3C92CA"/></svg>