<svg xmlns="http://www.w3.org/2000/svg" width="326" height="459" viewBox="66.938 0 325.125 459"><path d="M296.438 76.5V57.375C296.438 24.862 271.575 0 239.063 0h-114.75C91.8 0 66.938 24.862 66.938 57.375V459l114.75-114.75L296.438 459V286.875c53.55-5.737 95.625-49.726 95.625-105.188S349.986 82.237 296.438 76.5zm-9.563 191.25c-47.813 0-86.062-38.25-86.062-86.063s38.25-86.062 86.062-86.062 86.063 38.25 86.063 86.062a85.7 85.7 0 0 1-86.063 86.063zm65.717-114.17L268.8 237.372c-.74.738-1.934.738-2.67 0l-47.58-47.58c-.738-.734-.738-1.928 0-2.666l11.56-11.563a1.89 1.89 0 0 1 2.671 0l34.685 34.684 70.897-70.898a1.89 1.89 0 0 1 2.672 0l11.557 11.56c.74.738.74 1.93 0 2.67z" fill="#3C92CA"/></svg>