<svg xmlns="http://www.w3.org/2000/svg" width="512" height="278" viewBox="0 117.377 512 277.246"><path d="M503.203 244.878c-1.033-1.3-25.84-32.43-68.372-63.676-56.833-41.755-118.672-63.825-178.833-63.825S134 139.447 77.165 181.202c-42.53 31.245-67.337 62.367-68.372 63.676L0 256l8.794 11.122c1.034 1.3 25.842 32.43 68.372 63.677C134 372.552 195.84 394.623 256 394.623s122-22.07 178.833-63.825c42.53-31.246 67.338-62.367 68.37-63.677L512 256l-8.797-11.12zM255.998 353.113c-53.547 0-97.113-43.564-97.113-97.113a96.89 96.89 0 0 1 3.08-24.305l-22.17-3.73c-2.172 8.995-3.325 18.384-3.325 28.036 0 34.6 14.775 65.8 38.338 87.636-30.332-11.204-56.124-26.926-75.6-41.146-24.116-17.613-42.2-35.43-52.494-46.5 10.3-11.064 28.38-28.878 52.494-46.5 19.466-14.22 45.26-29.94 75.6-41.146l14.874 16.766c17.37-16.266 40.7-26.24 66.318-26.24 53.548 0 97.112 43.563 97.112 97.112S309.548 353.095 256 353.095zM412.78 302.5c-19.468 14.22-45.258 29.94-75.6 41.146 23.562-21.845 38.337-53.045 38.337-87.637s-14.775-65.8-38.337-87.638c30.33 11.206 56.12 26.928 75.6 41.146 24.117 17.614 42.2 35.43 52.494 46.5-10.307 11.068-28.38 28.88-52.494 46.493zM194.2 237.122A64.56 64.56 0 0 0 191.39 256c0 35.682 28.926 64.608 64.608 64.608s64.607-28.926 64.607-64.608-28.926-64.608-64.607-64.608c-17.38 0-33.145 6.876-44.758 18.04l31.868 35.922-48.908-8.23z" fill="#1084C3"/></svg>