<svg xmlns="http://www.w3.org/2000/svg" xmlns:xlink="http://www.w3.org/1999/xlink" width="788" height="768" viewBox="185.6 0 787.873 768"><defs><path id="A" d="M485.12 0h488.353v768H485.12z"/></defs><clipPath id="B"><use xlink:href="#A"/></clipPath><path clip-path="url(#B)" d="M455.89 10.324h487.393v741.27H455.89z" fill="none" stroke="#1084C3" stroke-width="20" stroke-linejoin="round" stroke-miterlimit="10"/><path d="M736 460.8H288a12.79 12.79 0 1 0 0 25.6h448a12.79 12.79 0 1 0 0-25.6zm-166.4-64H736a12.79 12.79 0 1 0 0-25.601h-166.4a12.79 12.79 0 1 0 0 25.601zm0-89.6H736a12.79 12.79 0 1 0 0-25.6H569.6a12.79 12.79 0 1 0 0 25.6zm0-89.6H736a12.79 12.79 0 1 0 0-25.6H569.6a12.79 12.79 0 1 0 0 25.6zM736 614.4H288a12.79 12.79 0 1 0 0 25.601h448a12.79 12.79 0 1 0 0-25.601zm-448-51.2h179.2a12.79 12.79 0 1 0 0-25.6H288a12.79 12.79 0 1 0 0 25.6zm448-25.6H569.6a12.79 12.79 0 1 0 0 25.6H736a12.79 12.79 0 1 0 0-25.6zm-208.512 21.888c2.304-2.432 3.712-5.76 3.712-9.088 0-3.34-1.408-6.67-3.712-8.96-4.736-4.864-13.58-4.864-18.176-.128-2.317 2.42-3.713 5.747-3.713 9.088 0 3.328 1.396 6.656 3.713 9.088 2.42 2.304 5.62 3.712 9.088 3.712 3.33-.001 6.656-1.4 9.088-3.712zM825.6 51.2h-320V12.8A12.79 12.79 0 0 0 492.8 0H288a12.79 12.79 0 0 0-12.8 12.8v38.4h-76.8A12.79 12.79 0 0 0 185.6 64v691.2a12.79 12.79 0 0 0 12.8 12.8h627.2a12.79 12.79 0 0 0 12.801-12.801v-691.2A12.79 12.79 0 0 0 825.6 51.2zm-12.8 691.2H211.2V76.8h64v294.4c0 4.852 2.74 9.28 7.078 11.456 4.34 2.163 9.536 1.716 13.402-1.216l94.72-71.04 94.72 71.04c1.05.794 2.214 1.356 3.417 1.792.436.153.884.205 1.332.308.793.18 1.562.346 2.38.384.2 0 .37.1.563.1.218 0 .4-.142.628-.154 1.74-.076 3.48-.396 5.106-1.203 4.314-2.176 7.053-6.604 7.053-11.456V76.8h307.2v665.6z" fill="#1084C3"/></svg>