<svg xmlns="http://www.w3.org/2000/svg" width="761" height="567" viewBox="128 100.591 760.002 566.818"><path d="M577.214 106.272c-15.6-8.352-34.434-7.44-49.155 2.375l-205.792 137.2h-78.02c-20 0-36.45 15.446-38.1 35.036H195.14c-37.02 0-67.14 30.12-67.14 67.14v71.958c0 37.02 30.12 67.14 67.14 67.14h11.014c1.644 19.6 18.086 35.037 38.1 35.037h78.018l205.792 137.2c8.026 5.35 17.274 8.055 26.557 8.053a47.84 47.84 0 0 0 22.599-5.679c15.6-8.35 25.3-24.525 25.3-42.218V148.5c.003-17.693-9.687-33.87-25.286-42.218zM206 449.127h-10.85c-16.07-.002-29.145-13.076-29.145-29.148v-71.96c0-16.07 13.074-29.146 29.145-29.146H206v130.252zm103.03 35.035h-64.773a.26.26 0 0 1-.261-.261V284.1a.26.26 0 0 1 .261-.261h64.773v200.323zm255.5 135.353c0 5.346-3.65 7.878-5.223 8.718s-5.703 2.475-10.152-.5l-202.12-134.75V275l202.12-134.748c4.45-2.966 8.583-1.33 10.152-.5s5.223 3.372 5.223 8.718v471.025zM812.575 392l68.815-68.814a22.57 22.57 0 0 0 0-31.916c-8.814-8.8-23.1-8.8-31.915 0l-68.814 68.814-68.815-68.814c-8.813-8.807-23.096-8.812-31.9 0s-8.813 23.102 0 31.916L748.748 392l-68.814 68.813c-8.813 8.814-8.813 23.102 0 31.916 4.408 4.405 10.182 6.608 15.956 6.608a22.5 22.5 0 0 0 15.955-6.608l68.814-68.817 68.815 68.817a22.5 22.5 0 0 0 31.911 0c8.813-8.814 8.813-23.102 0-31.916L812.575 392z" fill="#1084C3"/></svg>