<svg xmlns="http://www.w3.org/2000/svg" width="134" height="127" viewBox="0 371.854 133.799 126.85"><path d="M125.265 388.23c-.23-1.153-1.384-2.076-2.537-2.076l-14.417 1.3c.075-.58.118-1.17.118-1.77 0-7.6-6.227-13.84-13.838-13.84s-13.838 6.228-13.838 13.84a13.71 13.71 0 0 0 .59 3.979l-32.86 2.857-37.382-3.377c-.46-.23-1.153 0-1.614.46-.692.46-.922.922-.922 1.614L.03 487.864c-.23 1.384.922 2.537 2.076 2.537l30.618 2.588.057.642c.23.7.46 1.152.922 1.613.23.23.922.462 1.384.462l14.756-1.303 48.9 4.3c1.384 0 2.306-.923 2.306-2.076l.537-6.795 30.138-2.66c.692-.23 1.153-.46 1.614-.922.23-.46.46-.923.46-1.614l-8.533-96.406zM94.6 376.467c5.074 0 9.226 4.15 9.226 9.226a9.12 9.12 0 0 1-.516 3.026c-.076.13-.137.274-.177.433-1.3 3.23-4.4 5.45-7.797 5.733-.033.003-.065.006-.097.007-.212.016-.425.025-.64.025a9.42 9.42 0 0 1-.532-.017l-.254-.02-.23-.022c-1.94-.215-3.705-1.04-5.096-2.275a2.37 2.37 0 0 0-.344-.434c-.136-.134-.28-.25-.434-.345a9.22 9.22 0 0 1-.956-1.28 3.13 3.13 0 0 0-.183-.312 9.14 9.14 0 0 1-1.195-4.522c.001-5.072 4.152-9.223 9.226-9.223zM4.873 485.788l8.072-91.794 11.993 1.154-.23.23c-.23.46-.46.923-.46 1.614l8.044 91.1-27.417-2.303zm91.793 8.072l-20.388-1.792 20.614-1.82-.226 3.612zm-59.504-3.23L29.1 399.068l20.276-1.844a1.81 1.81 0 0 0 .93-.267l32.676-2.895L72.2 404.834c-.923.923-.923 2.306 0 3.23.46.462.922.692 1.614.692s1.153-.23 1.614-.692l11.12-11.12c2.268 1.625 5.038 2.586 8.023 2.586 5.378 0 10.062-3.1 12.35-7.62l13.943-1.143 8.072 91.792-91.792 8.073zm64.808-65.5l7.15-.692c1.153-.23 2.076-1.384 2.076-2.537-.23-1.152-1.384-2.075-2.537-2.075l-6.92.692c-1.154.23-2.076 1.383-2.076 2.536s1.153 2.076 2.307 2.076zm-25.37 2.307l16.375-1.383c1.154-.23 2.076-1.385 2.076-2.537-.23-1.153-1.384-2.307-2.537-2.076l-16.145 1.384c-1.153.23-2.076 1.384-2.076 2.537.232 1.153 1.155 2.075 2.307 2.075zm-8.763.693c1.153-.23 2.076-1.384 2.076-2.537-.23-1.153-1.153-2.307-2.537-2.075l-20.757 1.845c-1.153.23-2.076 1.384-2.076 2.537.23 1.152 1.153 2.075 2.306 2.075l20.988-1.845zm41.975 5.534l-16.145 1.384c-1.153.23-2.076 1.385-2.076 2.537.23 1.152 1.154 2.075 2.307 2.075l16.375-1.383c1.153-.23 2.076-1.154 2.076-2.537-.23-1.153-1.384-2.306-2.537-2.076zm-47.972 6.7c.23 1.153 1.154 2.076 2.307 2.076l16.375-1.384c1.153-.23 2.307-1.385 2.076-2.537s-1.384-2.075-2.537-2.075l-16.145 1.384c-1.153.23-2.076 1.383-2.076 2.536zm-6.688 2.766c1.153-.23 2.076-1.384 2.076-2.537-.23-1.153-1.153-2.306-2.537-2.075l-6.92.692c-1.153.23-2.076 1.383-2.076 2.536.23 1.153 1.153 2.076 2.307 2.076l7.15-.692zm55.813 4.382l-4.612.462c-1.154.23-2.076 1.384-2.076 2.537s1.153 2.075 2.306 2.075l4.843-.46c1.153-.23 2.076-1.384 2.076-2.537-.23-1.153-1.384-2.306-2.537-2.076zm-13.607 1.144l-23.063 2.076c-1.153.23-2.076 1.384-2.076 2.537.23 1.152 1.153 2.075 2.306 2.075l23.294-2.075c1.153-.23 2.307-1.385 2.076-2.537s-1.384-2.307-2.537-2.076zm-36.902 3.46l-11.532.922c-1.153.23-2.076 1.384-2.076 2.537.23 1.153 1.153 2.076 2.307 2.076l11.762-.923c1.153-.23 2.076-1.384 2.076-2.536-.23-1.154-1.153-2.307-2.537-2.076zm51.894 9.224l-23.063 2.075c-1.153.23-2.076 1.384-2.076 2.537.23 1.153 1.153 2.076 2.306 2.076l23.294-2.076c1.153-.23 2.076-1.384 2.076-2.537-.23-1.153-1.384-2.075-2.537-2.075zm-36.902 3.23l-9.226.7c-1.153.23-2.076 1.384-2.076 2.537.23 1.153 1.153 2.076 2.307 2.076l9.456-.692c1.153-.23 2.306-1.384 2.075-2.537s-1.384-2.306-2.536-2.075zm-18.45 1.383l-6.92.7c-1.153.23-2.076 1.385-2.076 2.537.23 1.153 1.154 2.076 2.307 2.076l7.15-.692c1.153-.23 2.076-1.384 2.076-2.536-.23-1.154-1.154-2.306-2.537-2.076z" fill="#1084C3"/></svg>