<svg xmlns="http://www.w3.org/2000/svg" width="568" height="768" viewBox="228.392 0 567.217 767.999"><path d="M750.063 0H273.938c-25.142 0-45.546 20.49-45.546 45.546v676.907c0 25.142 20.49 45.546 45.546 45.546h476.125c25.142 0 45.546-20.49 45.546-45.546V45.546C795.61 20.49 775.204 0 750.063 0zm11.193 722.54c0 6.543-4.65 11.192-11.192 11.192H273.938c-6.543 0-11.193-4.65-11.193-11.192V45.546c0-6.544 4.65-11.192 11.193-11.192h476.125c6.543 0 11.192 4.648 11.192 11.192l.001 676.994zm-116.12-421.827H354.1c-7.312 0-13.23 5.916-13.23 13.228s5.917 13.23 13.23 13.23h291.036c7.313 0 13.23-5.917 13.23-13.23s-5.918-13.228-13.23-13.228zm0 105.83H354.1c-7.312 0-13.23 5.915-13.23 13.228S346.787 433 354.1 433h291.036c7.313 0 13.23-5.917 13.23-13.23s-5.918-13.228-13.23-13.228zm0 105.83H354.1c-7.312 0-13.23 5.918-13.23 13.23s5.917 13.23 13.23 13.23h291.036c7.313 0 13.23-5.917 13.23-13.23s-5.918-13.23-13.23-13.23zm-132.29 105.83H354.1c-7.312 0-13.23 5.918-13.23 13.23s5.917 13.23 13.23 13.23h158.747c7.313 0 13.23-5.918 13.23-13.23s-5.917-13.23-13.23-13.23zM351.613 107.725c-7.313 0-13.23 5.916-13.23 13.228s5.917 13.23 13.23 13.23H642.65c7.313 0 13.23-5.917 13.23-13.23s-5.918-13.228-13.23-13.228m-133.8 86.502H350.113c-7.313 0-13.23 5.918-13.23 13.23s5.917 13.23 13.23 13.23H508.86c7.313 0 13.23-5.918 13.23-13.23s-5.916-13.23-13.23-13.23z" fill="#1084C3"/></svg>