<svg xmlns="http://www.w3.org/2000/svg" width="234" height="768" viewBox="395.451 0 233.098 768"><path d="M395.45 620.078c0 3.45 1.098 6.745 3.137 9.4l101.02 132.393c2.98 3.922 7.53 6.118 12.393 6.118s9.412-2.196 12.393-6.118l101.02-132.393c2.04-2.666 3.137-5.96 3.137-9.4V194.823c0-8.627-6.9-15.53-15.53-15.53s-15.53 6.902-15.53 15.53V614.9l-85.5 112-85.5-112V195.608c0-8.627-6.902-15.53-15.53-15.53s-15.53 6.902-15.53 15.53l-.003 424.47zm101.02-424.47v390.588c0 8.628 6.902 15.53 15.53 15.53s15.53-6.9 15.53-15.53V195.608c0-8.627-6.902-15.53-15.53-15.53s-15.53 6.902-15.53 15.53z" fill="#2C2F33"/><path d="M395.45 61.02v69.5c0 8.627 6.902 15.53 15.53 15.53h201.882c8.628 0 15.53-6.902 15.53-15.53v-69.5c0-33.568-27.295-61.02-61.02-61.02h-110.9c-33.57 0-61.02 27.294-61.02 61.02zm202.04 0v53.96H426.5V61.02c0-16.47 13.5-29.96 29.96-29.96h110.902C584 31.06 597.5 44.392 597.5 61.02z" fill="#3C92CA"/></svg>