<svg xmlns="http://www.w3.org/2000/svg" width="735" height="735" viewBox="144.5 16.5 735 735"><path d="M870.5 699.3L693.8 522.6c43.8-53.4 70.2-121.8 70.2-196.35 0-171-138.75-309.75-309.75-309.75-171.15 0-309.75 138.75-309.75 309.75S283.1 636 454.25 636c74.55 0 142.8-26.25 196.2-70.05l176.7 176.55c12 12 31.35 12 43.35 0 12-11.85 12-31.35 0-43.2zM454.25 574.35C317.3 574.35 206 463.05 206 326.25S317.3 78 454.25 78c136.8 0 248.25 111.45 248.25 248.25s-111.45 248.1-248.25 248.1z" fill="#1084C3"/></svg>