<svg xmlns="http://www.w3.org/2000/svg" xmlns:xlink="http://www.w3.org/1999/xlink" width="99" height="91" viewBox="4.521 5.854 98.333 91"><g fill="#1084C3"><path d="M73.618 20.313a1.6 1.6 0 0 0-2.267.141L42.295 53.34a1.6 1.6 0 0 0-.4.943L40.66 71.457a1.6 1.6 0 0 0 .542 1.322c.377.334.88.475 1.38.373L59.47 69.8c.34-.068.65-.248.887-.514l29.108-32.95a1.6 1.6 0 0 0-.14-2.266"/><path d="M79.178 27.368L52.44 57.63a1.6 1.6 0 1 0 2.408 2.125l26.736-30.262a1.6 1.6 0 1 0-2.407-2.126zm1.385-17.342L75.807 15.4c-.6.67-.53 1.675.14 2.266l15.64 13.82a1.6 1.6 0 0 0 2.267-.14l4.758-5.385a6.32 6.32 0 0 0-.552-8.904l-8.593-7.6a6.32 6.32 0 0 0-8.905.551z"/></g><defs><path id="A" d="M107.375 62.13c0 31.94-25.744 57.832-57.5 57.832s-57.5-25.893-57.5-57.832S18.12 2.815 49.875 2.815c10.234 0 33.31 1.31 26.313 7.833-37.5 34.96-46.03 59.49-37.667 62.705 9.035 3.476.182-1.408 14.167-1.205.397.006 1.745.617 2.228.46 1.446-.47 2.402.5 4.438-1.127 10.412-8.317 28.28-28.55 32.49-32.834 10.32-10.494 14.75-20.785 14.343-24.167-5.86-48.58 1.187 40 1.187 47.648z"/></defs><clipPath id="B"><use xlink:href="#A"/></clipPath><g clip-path="url(#B)"><path d="M83.715 45.177l-5.607-.95a31.64 31.64 0 0 0-2.252-5.44l3.303-4.622c1.402-1.97 1.186-4.656-.533-6.357l-4.97-4.973c-.936-.934-2.172-1.452-3.488-1.452-1.035 0-2.02.317-2.854.917l-4.64 3.304a31.37 31.37 0 0 0-5.64-2.319l-.935-5.54c-.4-2.386-2.452-4.12-4.87-4.12h-7.025a4.93 4.93 0 0 0-4.873 4.121l-.968 5.674a30.89 30.89 0 0 0-5.423 2.285l-4.588-3.302c-.834-.6-1.835-.918-2.87-.918a4.87 4.87 0 0 0-3.487 1.451l-5 4.973a4.94 4.94 0 0 0-.534 6.357l3.337 4.688c-.918 1.752-1.652 3.57-2.22 5.456l-5.54.934a4.93 4.93 0 0 0-4.122 4.874v7.024a4.93 4.93 0 0 0 4.122 4.872l5.673.968a30.67 30.67 0 0 0 2.286 5.422l-3.287 4.572a4.92 4.92 0 0 0 .534 6.357l4.973 4.973a4.89 4.89 0 0 0 3.487 1.452 4.85 4.85 0 0 0 2.854-.918l4.688-3.337c1.685.883 3.453 1.602 5.273 2.17l.934 5.606a4.93 4.93 0 0 0 4.873 4.121h7.042c2.42 0 4.47-1.734 4.87-4.12l.95-5.606a31.57 31.57 0 0 0 5.439-2.253l4.62 3.304c.834.6 1.836.917 2.87.917a4.9 4.9 0 0 0 3.488-1.45l4.973-4.974c1.7-1.7 1.936-4.388.533-6.355l-3.305-4.64c.918-1.753 1.686-3.57 2.254-5.44l5.607-.934a4.93 4.93 0 0 0 4.119-4.874v-7.023c.037-2.42-1.7-4.47-4.084-4.872zm-.384 11.896c0 .218-.15.4-.367.436l-7.008 1.168a2.24 2.24 0 0 0-1.803 1.65c-.633 2.454-1.602 4.807-2.904 6.992-.45.768-.416 1.718.102 2.453l4.12 5.806c.117.167.1.417-.05.567l-4.97 4.974c-.117.116-.234.133-.318.133-.1 0-.184-.033-.25-.084l-5.8-4.12c-.72-.517-1.686-.55-2.453-.1a26.67 26.67 0 0 1-6.991 2.904c-.867.216-1.52.934-1.652 1.8l-1.185 7a.43.43 0 0 1-.434.366h-7.024a.43.43 0 0 1-.434-.366l-1.168-7c-.15-.884-.8-1.585-1.652-1.8-2.386-.62-4.688-1.57-6.84-2.805a2.32 2.32 0 0 0-1.134-.301c-.45 0-.917.134-1.3.417l-5.84 4.155c-.083.05-.167.084-.25.084-.066 0-.2-.017-.317-.135l-4.972-4.973a.45.45 0 0 1-.05-.566L24.5 69.97c.517-.734.55-1.7.1-2.47-1.3-2.168-2.303-4.522-2.937-6.975-.233-.85-.935-1.502-1.8-1.652l-7.058-1.2a.43.43 0 0 1-.367-.434v-7.023c0-.218.15-.4.367-.435l6.957-1.168c.884-.148 1.602-.8 1.82-1.67.617-2.452 1.57-4.82 2.853-7.008a2.23 2.23 0 0 0-.117-2.436l-4.154-5.84c-.117-.167-.1-.417.05-.568l4.973-4.973c.117-.116.233-.134.317-.134.1 0 .184.033.25.083l5.756 4.105c.734.517 1.702.55 2.47.1 2.17-1.3 4.522-2.303 6.975-2.938.85-.233 1.502-.935 1.652-1.802l1.2-7.058c.034-.217.218-.367.435-.367h7.024a.43.43 0 0 1 .434.367l1.168 6.958a2.26 2.26 0 0 0 1.67 1.82c2.52.634 4.922 1.618 7.158 2.938.768.45 1.72.417 2.453-.1l5.756-4.14c.084-.05.168-.083.25-.083a.44.44 0 0 1 .316.134l4.973 4.972c.15.15.168.384.05.568l-4.12 5.8c-.518.718-.55 1.686-.1 2.454 1.3 2.185 2.27 4.537 2.902 7a2.22 2.22 0 0 0 1.803 1.651l7.008 1.185c.217.034.367.218.367.434v7.023h-.02v.003zM47.875 36.317c-9.5 0-17.236 7.726-17.236 17.236S38.364 70.8 47.875 70.8 65.1 63.063 65.1 53.553a17.25 17.25 0 0 0-17.235-17.236zm0 29.97a12.74 12.74 0 0 1-12.73-12.73c0-7.023 5.707-12.73 12.73-12.73s12.73 5.708 12.73 12.73a12.74 12.74 0 0 1-12.729 12.731z" fill="#1084C3"/></g></svg>