<svg xmlns="http://www.w3.org/2000/svg" width="768" height="567" viewBox="128 100.591 768 566.818"><path d="M577.214 106.272c-15.6-8.352-34.434-7.44-49.155 2.375l-205.792 137.2h-78.02c-20 0-36.45 15.446-38.1 35.036H195.14c-37.02 0-67.14 30.12-67.14 67.14v71.958c0 37.02 30.12 67.14 67.14 67.14h11.014c1.644 19.6 18.086 35.037 38.1 35.037h78.018l205.792 137.2c8.026 5.35 17.274 8.055 26.557 8.053a47.84 47.84 0 0 0 22.599-5.679c15.6-8.35 25.3-24.525 25.3-42.218V148.5c.003-17.693-9.687-33.87-25.286-42.218zM206 449.127h-10.85c-16.07-.002-29.145-13.076-29.145-29.148v-71.96c0-16.07 13.074-29.146 29.145-29.146H206v130.252zm103.03 35.035h-64.773a.26.26 0 0 1-.261-.261V284.1a.26.26 0 0 1 .261-.261h64.773v200.323zm255.5 135.353c0 5.346-3.65 7.878-5.223 8.718s-5.703 2.475-10.152-.5l-202.12-134.75V275l202.12-134.748c4.45-2.966 8.583-1.33 10.152-.5s5.223 3.372 5.223 8.718v471.025zm231.9-476.3c-6.678-6.68-17.502-6.68-24.18 0a17.1 17.1 0 0 0 0 24.18C829.994 225.15 861.804 302.077 861.804 384S830 542.857 772.228 600.62a17.1 17.1 0 0 0 0 24.179 17.04 17.04 0 0 0 12.1 5.007 17.05 17.05 0 0 0 12.09-5.007c64.223-64.223 99.6-149.74 99.6-240.8s-35.368-176.574-99.6-240.793zM702.517 237.1c-6.678-6.68-17.502-6.68-24.18-.002s-6.68 17.502 0 24.18c32.722 32.723 50.743 76.307 50.74 122.725s-18.02 90-50.743 122.724a17.1 17.1 0 0 0 0 24.18 17.03 17.03 0 0 0 12.09 5.007c4.376 0 8.753-1.67 12.1-5.007 39.182-39.182 60.76-91.353 60.76-146.903S741.698 276.28 702.517 237.1z" fill="#1084C3"/></svg>