<svg xmlns="http://www.w3.org/2000/svg" width="64" height="64"><path d="M23.967 34.025H6a6.02 6.02 0 0 0-6 6V58a6.01 6.01 0 0 0 6 6h17.967a6.01 6.01 0 0 0 6-6V40.025a6.01 6.01 0 0 0-6-6zm2 23.975a2 2 0 0 1-2 2H6a2 2 0 0 1-2-2V40.025a2 2 0 0 1 2-2h17.967a2 2 0 0 1 2 2V58zM58 34.025H40.03a6.02 6.02 0 0 0-6 6V58a6.01 6.01 0 0 0 6 6H58a6.01 6.01 0 0 0 6-6V40.025a6.01 6.01 0 0 0-6-6zM60 58c0 1.104-.898 2-2 2H40.03c-1.102 0-2-.896-2-2V40.025c0-1.104.898-2 2-2H58c1.102 0 2 .896 2 2V58zM23.967 0H6a6.01 6.01 0 0 0-6 6v17.97a6.01 6.01 0 0 0 6 6h17.967a6.01 6.01 0 0 0 6-6V6a6.01 6.01 0 0 0-6-6zm2 23.97a2 2 0 0 1-2 2H6a2 2 0 0 1-2-2V6a2 2 0 0 1 2-2h17.967a2 2 0 0 1 2 2v17.97zM58 0H40.03a6.01 6.01 0 0 0-6 6v17.97a6.01 6.01 0 0 0 6 6H58a6.01 6.01 0 0 0 6-6V6a6.01 6.01 0 0 0-6-6zm2 23.97c0 1.103-.898 2-2 2H40.03c-1.102 0-2-.897-2-2V6c0-1.103.898-2 2-2H58c1.102 0 2 .897 2 2v17.97z" fill="#1084C3"/></svg>