<svg xmlns="http://www.w3.org/2000/svg" width="661" height="563" viewBox="14.135 37.482 660.085 562.113"><path d="M654.106 245.176h-170.37c-6.297 0-12.613 2.525-17.65 7.563l-46.664 46.663c-5.05 5.045-5.05 12.62 0 17.658l46.664 46.664c5.038 5.044 11.354 7.563 17.65 7.563h170.37c7.563 0 12.613-5.044 12.613-12.613V257.8c.001-7.563-5.05-12.614-12.613-12.614z" fill="none" stroke="#1084C3" stroke-width="15" stroke-miterlimit="10"/><path d="M360.15 599.595V151.388c-3.944 5.97-8.2 9.214-12.613 9.214-4.43 0-8.67-3.245-12.62-9.24v448.23M363.02 133.53c19.193-6.792 32.944-25.086 32.944-46.608 0-21.53-13.76-39.824-32.944-46.614-5.162-1.822-10.7-2.827-16.48-2.827a49.4 49.4 0 0 0-16.489 2.827c-19.193 6.8-32.944 25.085-32.944 46.614 0 21.522 13.76 39.816 32.944 46.608a49.2 49.2 0 0 0 16.489 2.833c5.78 0 11.327-1.003 16.48-2.833z" fill="#1084C3"/><g stroke="#1084C3" fill="none"><path d="M650.216 456.78h-166.48c-6.297 0-12.613 2.525-17.65 7.563l-46.664 46.67c-5.05 5.038-5.05 12.607 0 17.65l46.664 46.67c5.038 5.038 11.354 7.563 17.65 7.563h166.48c7.563 0 12.613-5.044 12.613-12.614v-100.9c0-7.57-5.044-12.614-12.613-12.614zM230.98 439.5c-5.038 5.044-11.354 7.57-17.65 7.57H34.242c-7.563 0-12.607-5.05-12.607-12.62V333.555c0-7.563 5.038-12.613 12.607-12.613h179.086c6.297 0 12.613 2.525 17.65 7.563l46.664 46.67c5.05 5.044 5.05 12.613 0 17.65L230.98 439.5z" stroke-miterlimit="10" stroke-width="15"/><path d="M422.5 308.232h-74.963M336.394 383.5h-54.976m141.976 136H348.43" stroke-miterlimit="10" stroke-width="22"/></g></svg>