<svg xmlns="http://www.w3.org/2000/svg" width="501" height="322" viewBox="228.392 0 500.398 321.955"><path d="M446.798 0H247.46c-10.526 0-19.068 8.58-19.068 19.068v283.4c0 10.526 8.58 19.07 19.068 19.07h199.338c10.526 0 19.07-8.58 19.07-19.07V19.07c0-10.5-8.543-19.07-19.07-19.07zm4.687 302.505c0 2.74-1.947 4.686-4.686 4.686H247.46c-2.74 0-4.686-1.946-4.686-4.686V19.07c0-2.74 1.947-4.686 4.686-4.686h199.338c2.74 0 4.686 1.946 4.686 4.686l.001 283.436zM402.87 125.9H281.02c-3.062 0-5.54 2.477-5.54 5.538a5.54 5.54 0 0 0 5.54 5.54h121.847c3.062 0 5.54-2.477 5.54-5.54s-2.477-5.538-5.538-5.538zm0 44.308H281.02c-3.062 0-5.54 2.476-5.54 5.538s2.477 5.54 5.54 5.54h121.847a5.54 5.54 0 0 0 5.54-5.54c0-3.062-2.477-5.538-5.538-5.538zm0 44.307H281.02a5.54 5.54 0 0 0-5.54 5.54c0 3.062 2.477 5.54 5.54 5.54h121.847a5.54 5.54 0 0 0 5.54-5.54c0-3.062-2.477-5.54-5.538-5.54zm-55.386 44.308H281.02a5.54 5.54 0 0 0-5.54 5.54c0 3.062 2.477 5.54 5.54 5.54h66.462c3.062 0 5.538-2.478 5.538-5.54s-2.476-5.54-5.538-5.54zM279.98 45.1c-3.062 0-5.54 2.477-5.54 5.538a5.54 5.54 0 0 0 5.54 5.54h121.847c3.062 0 5.54-2.477 5.54-5.54s-2.478-5.538-5.54-5.538m-56.013 36.216h-66.462a5.54 5.54 0 0 0 0 11.08h66.462c3.062 0 5.538-2.478 5.538-5.54s-2.476-5.54-5.538-5.54zM709.722.42H510.384c-10.526 0-19.07 8.58-19.07 19.068v283.4c0 10.526 8.58 19.068 19.07 19.068h199.338c10.526 0 19.068-8.58 19.068-19.068v-283.4c.001-10.5-8.542-19.07-19.068-19.07zm4.686 302.504c0 2.74-1.947 4.686-4.686 4.686H510.384c-2.74 0-4.687-1.947-4.687-4.686V19.488c0-2.74 1.947-4.686 4.687-4.686h199.338c2.74 0 4.686 1.946 4.686 4.686v283.435zM665.792 126.32H543.945c-3.063 0-5.54 2.477-5.54 5.538a5.54 5.54 0 0 0 5.54 5.54h121.847a5.54 5.54 0 0 0 5.54-5.54c0-3.063-2.477-5.538-5.54-5.538zm0 44.308H543.945c-3.063 0-5.54 2.477-5.54 5.538s2.477 5.538 5.54 5.538h121.847c3.062 0 5.54-2.477 5.54-5.538s-2.477-5.538-5.54-5.538zm0 44.307H543.945a5.54 5.54 0 0 0-5.54 5.54c0 3.062 2.477 5.538 5.54 5.538h121.847c3.062 0 5.54-2.477 5.54-5.538a5.54 5.54 0 0 0-5.54-5.54zm-55.386 44.307h-66.46c-3.063 0-5.54 2.478-5.54 5.54a5.54 5.54 0 0 0 5.539 5.54h66.46a5.54 5.54 0 0 0 5.54-5.54c0-3.062-2.477-5.54-5.54-5.54zM542.904 45.52c-3.062 0-5.54 2.477-5.54 5.538a5.54 5.54 0 0 0 5.539 5.539H664.75a5.54 5.54 0 0 0 5.54-5.54c0-3.062-2.478-5.538-5.54-5.538m-56.013 36.216h-66.463a5.54 5.54 0 0 0-5.539 5.539 5.54 5.54 0 0 0 5.539 5.539h66.463a5.54 5.54 0 0 0 5.538-5.54c0-3.062-2.477-5.54-5.538-5.54z" fill="#1084C3"/></svg>