<?xml version="1.0" encoding="utf-8"?>
<!-- Generator: Adobe Illustrator 21.0.0, SVG Export Plug-In . SVG Version: 6.00 Build 0)  -->
<svg version="1.1" id="Layer_1" xmlns="http://www.w3.org/2000/svg" xmlns:xlink="http://www.w3.org/1999/xlink" x="0px" y="0px"
	 viewBox="0 0 592.3 41.2" style="enable-background:new 0 0 592.3 41.2;" xml:space="preserve">
<style type="text/css">
	.st0{fill:#985D35;}
</style>
<g>
	<path class="st0" d="M8.8,28.4H5.7c-2.5,0-3.9-1.4-4.2-4.2C1.1,20.7,0.6,15.4,0,8.5c0.6-0.7,1.1-1.3,1.5-1.9l1.4,16.1
		C3,24,3.4,24.9,4,25.3c0.5,0.3,1.2,0.5,2.3,0.5c0.2,0,0.6,0,1.2,0c0.5,0,1,0,1.3,0V28.4z"/>
	<path class="st0" d="M24.7,28.4c-3.1,0-5.6,0-7.5,0c1.3,0.9,2,2.1,2,3.4c0,1.2-0.3,2.3-0.8,3.2c-0.7,1.2-1.5,1.8-2.6,1.8
		c-1.4,0-2.5-1.1-3.2-3.3c-0.5-1.5-0.8-3.2-0.8-5c-0.5-0.1-1.4-0.2-3-0.2H7.2v-2.7c1.3,0,2.9-0.2,4.7-0.6c0.6-1.5,1.4-3.1,2.4-4.8
		c1.4-2.3,2.6-3.5,3.4-3.5c0.7,0,1.1,0.9,1.1,2.8c0,2.7-1.1,4.8-3.4,6.1h9.3V28.4z M18.3,32.8c0-1-0.7-1.9-2.1-2.8
		c-1.1-0.7-2.2-1.1-3.4-1.4c0.5,3.5,1.7,5.3,3.6,5.3C17.7,33.9,18.3,33.5,18.3,32.8z M17.8,21.5c0-0.3-0.1-0.6-0.4-0.9
		c-0.2-0.3-0.5-0.5-0.8-0.5c-1.3,0-2.6,1.6-3.8,4.8C16.2,24,17.8,22.9,17.8,21.5z"/>
	<path class="st0" d="M26.7,7.8c-0.2-0.3-0.5-0.7-0.9-1.3c0.4-1,1-1.9,1.8-2.6c0.1,0.8,0.4,1.4,1,2c0.5,0.5,1.2,0.9,2,1L29,9.4
		L28.3,9c-0.1,1.4-0.2,2.1-0.2,2.3c0,1.1,0.2,2.6,0.6,4.7c0.4,2.1,0.6,3.7,0.6,4.7c0,5.1-1.6,7.7-4.7,7.7h-1.6v-2.7
		c1.5,0,2.6-0.1,3.3-0.3c1.3-0.4,2-1.2,2-2.3c0-0.5-0.2-1.9-0.6-4.2c-0.3-1.6-0.5-3.1-0.8-4.7c-0.3-1.9-0.5-3.5-0.5-4.6
		c0-0.1,0-0.4,0.1-0.8s0-0.7,0-0.9V7.8z"/>
	<path class="st0" d="M59.9,28.4h-3.1c-1,0-1.8-0.9-2.4-2.7c0.2,3.3,0.3,5,0.3,5c0,3.3-0.8,5.9-2.4,7.6c-1.7,1.9-4.2,2.8-7.5,2.8
		c-1.9,0-3.3-0.4-4.4-1.3c-1.2-1-1.8-2.3-1.8-4.1c0-1.5,0.7-4,2-7.6l0.4,0.2c-0.3,0.9-0.5,1.8-0.8,2.6c-0.3,1.1-0.4,1.9-0.4,2.6
		c0,1.4,0.6,2.5,1.8,3.3c1,0.6,2.3,1,3.8,1c1.2,0,2.7-0.3,4.3-0.8c1.9-0.6,3.1-1.4,3.6-2.2c0.2-0.4,0.4-1.2,0.4-2.5
		c0-2.4-0.1-5.4-0.4-8.9c-0.2-3-0.4-6-0.6-8.9c0-0.5-0.1-1.7-0.3-3.7c-0.2-1.5-0.2-2.7-0.2-3.7c0-0.4,0.2-0.8,0.6-1.4
		c0.5-0.8,0.8-1.3,0.8-1.3c0.1,2.3,0.2,4.5,0.3,6.8c0.1,2.7,0.3,4.9,0.6,6.7c0.1,0.9,0.2,2.2,0.4,4c0.1,0.5,0.5,1.3,1.2,2.6
		c0.3,0.6,0.8,1,1.2,1h2.6V28.4z"/>
	<path class="st0" d="M64.2,22.5c0,4-1.4,6-4.3,6h-1.6v-2.7c3.3,0,4.9-0.6,4.9-1.7c0-0.3-0.3-0.9-0.8-1.8c-0.5-0.9-0.8-1.5-0.8-1.6
		c0-0.1,0.5-1,1.5-2.6C63.9,19.6,64.2,21.1,64.2,22.5z M64.9,31.7l-1.5,2.4l-2.5-1.3l1.6-2.5L64.9,31.7z"/>
	<path class="st0" d="M77.6,28.4h-3.1c-2.5,0-3.9-1.4-4.2-4.2c-0.4-3.6-0.9-8.8-1.5-15.7c0.6-0.7,1.1-1.3,1.5-1.9l1.4,16.1
		c0.1,1.3,0.5,2.1,1.1,2.6c0.5,0.3,1.2,0.5,2.3,0.5c0.2,0,0.6,0,1.2,0c0.5,0,1,0,1.3,0V28.4z"/>
	<path class="st0" d="M91,28.4h-3c-1.9,0-3.6-0.6-5.3-1.7c-0.6,0.5-1.4,0.9-2.4,1.2c-1,0.3-1.9,0.5-2.6,0.5H76v-2.7
		c2.5,0,3.9-0.2,4.5-0.6c0-0.1-0.1-0.2-0.2-0.6c-0.1-0.3-0.2-0.5-0.2-0.6c0-1.2,0.6-2.7,1.8-4.6c1.3-2,2.4-3,3.5-3
		c0.7,0,1.3,0.6,1.8,1.7c0.3,0.9,0.5,1.8,0.5,2.7c0,1.1-0.6,2.5-1.8,4.2c0.7,0.4,1.6,0.7,2.5,0.8c-0.1,0,0.8,0,2.7,0V28.4z
		 M87.8,9.5L86.4,12L84,10.4l-1.4,2l-2.4-1.6l1.4-2.3l2.6,1.6l1.2-2.2L87.8,9.5z M86.2,21.8c0-0.5-0.2-1-0.5-1.4
		c-0.3-0.4-0.7-0.6-1.3-0.6c-0.5,0-1.1,0.2-1.8,0.6c-0.7,0.4-1,0.9-1,1.3c0,0.8,0.6,1.5,1.8,2.2c0.5-0.3,1.1-0.6,1.6-0.9
		C85.8,22.5,86.2,22.1,86.2,21.8z"/>
	<path class="st0" d="M108.7,28.4h-3.1c-1.4,0-2.6-0.5-3.6-1.5c0,0.6-0.2,1-0.6,1.5c-0.4,0.4-0.8,0.6-1.4,0.6c-2.2,0-4-1.1-5.4-3.3
		c-0.3,0.3-0.8,0.8-1.4,1.5c-0.5,0.6-1.1,1-1.6,1.1c-0.2,0.1-0.9,0.1-2,0.1v-2.7h1.6c1.1,0,2.4-0.8,4-2.5c1.5-1.7,2.6-2.5,3.1-2.5
		c0.3,0,1.4,0.8,3.2,2.5c1.8,1.7,3.2,2.5,4.2,2.5h3.1V28.4z M98.3,22.5c-0.3,0-0.7,0.2-1.1,0.7c-0.4,0.5-0.7,0.9-0.9,1.2
		c1.5,1.5,2.5,2.2,2.8,2.2c0.2,0,0.5-0.2,0.8-0.5c0.3-0.3,0.5-0.6,0.5-0.8c0-0.2-0.3-0.7-1-1.5C98.9,22.9,98.5,22.5,98.3,22.5z"/>
	<path class="st0" d="M107.1,25.8h8.9v2.7h-8.9V25.8z"/>
	<path class="st0" d="M118,7.8c-0.2-0.3-0.5-0.7-0.9-1.3c0.4-1,1-1.9,1.8-2.6c0.1,0.8,0.4,1.4,1,2c0.5,0.5,1.2,0.9,2,1l-1.4,2.6
		L119.7,9c-0.1,1.4-0.2,2.1-0.2,2.3c0,1.1,0.2,2.6,0.6,4.7c0.4,2.1,0.6,3.7,0.6,4.7c0,5.1-1.6,7.7-4.7,7.7h-1.6v-2.7
		c1.5,0,2.6-0.1,3.3-0.3c1.3-0.4,2-1.2,2-2.3c0-0.5-0.2-1.9-0.6-4.2c-0.3-1.6-0.5-3.1-0.8-4.7c-0.3-1.9-0.5-3.5-0.5-4.6
		c0-0.1,0-0.4,0.1-0.8s0-0.7,0-0.9V7.8z"/>
	<path class="st0" d="M127.1,22.9c0,1.3-0.4,3.2-1.1,5.5l-0.5-0.1c0.1-0.8,0.2-1.6,0.2-2.4c0-1.6-0.2-3.7-0.5-6.2
		c-0.3-2.1-0.5-4.1-0.8-6.1c-0.2-1.3-0.2-2-0.2-2.2c0-1.1,0.1-2,0.4-2.6c0.4-0.7,0.8-1.4,1.2-2.2c0,2.1,0.4,6.4,1.2,12.9
		C127,20.8,127.1,21.9,127.1,22.9z"/>
	<path class="st0" d="M160.2,28.4c-2.4,0-3.8,0-4.2,0.1c-2.2,0.3-3.3,0.9-3.3,2c0,0.4,0.5,0.7,1.6,1c1.5,0.3,2.5,0.5,2.9,0.7
		c1,0.5,1.5,1.3,1.5,2.5c0,2-1.7,3.6-5,4.8c-2.6,1-5.1,1.4-7.5,1.4c-2.2,0-4-0.5-5.3-1.6c-1.4-1.1-2.1-2.8-2.1-5
		c0-2.2,0.8-4.7,2.4-7.5l0.4,0.3c-1.1,2.3-1.6,4.1-1.6,5.4c0,1.8,0.7,3.1,2.1,4.1c1.2,0.8,2.7,1.2,4.6,1.2c1.4,0,3.5-0.3,6.2-0.9
		c3.2-0.7,4.8-1.5,4.8-2.3c0-0.6-0.6-1-1.7-1.1c-1.2-0.1-2.3-0.2-3.4-0.3c-1.2-0.2-1.8-0.7-1.8-1.4c0-1.6,0.7-3,2.2-4.2
		c1.4-1.3,2.9-1.9,4.5-1.9h2.8V28.4z"/>
	<path class="st0" d="M168.6,28.4h-3.1c-0.4,0-0.8-0.3-1.3-0.9c-0.4-0.6-0.6-1.1-0.6-1.6c-0.9,1.7-2.1,2.5-3.4,2.5h-1.6v-2.7
		c1.8,0,2.9-0.1,3.4-0.4c0.6-0.3,1-0.7,1.1-1.1c0.1-0.2,0.1-0.8,0.2-1.6l0.3,0c0.3,1.4,0.9,2.3,1.8,2.7c0.6,0.3,1.7,0.4,3.3,0.4
		V28.4z M165.1,16.5l-1.5,2.3l-2.2-1.5l1.4-2.4L165.1,16.5z"/>
	<path class="st0" d="M182,28.4h-3.1c-1.5,0-3.1-1.1-5-3.2c-0.5,0.5-1.3,1.2-2.5,2c-1.3,0.8-2.3,1.2-2.9,1.2H167v-2.7
		c2.5,0,4.3-0.7,5.6-2c-0.8-0.7-1.3-1.1-1.6-1.3c-0.5-0.3-1.2-0.5-2-0.5c0.3-1.3,0.8-2.1,1.5-2.7c0.7-0.5,1.7-0.8,3.1-0.8
		c1.1,0,2.2,0.2,3.2,0.6c1.3,0.5,1.9,1.3,1.9,2.2c0,1.1-0.9,1.9-2.8,2.6c0.7,0.9,1.7,1.4,2.8,1.6c0.5,0.1,1.6,0.1,3.4,0.1V28.4z"/>
	<path class="st0" d="M199.6,28.4h-3.1c-1.4,0-2.6-0.5-3.6-1.5c0,0.6-0.2,1-0.6,1.5c-0.4,0.4-0.8,0.6-1.4,0.6c-2.2,0-4-1.1-5.4-3.3
		c-0.3,0.3-0.8,0.8-1.4,1.5c-0.5,0.6-1.1,1-1.6,1.1c-0.2,0.1-0.9,0.1-2,0.1v-2.7h1.6c1.1,0,2.4-0.8,4-2.5c1.5-1.7,2.6-2.5,3.1-2.5
		c0.3,0,1.4,0.8,3.2,2.5c1.8,1.7,3.2,2.5,4.2,2.5h3.1V28.4z M189.3,22.5c-0.3,0-0.7,0.2-1.1,0.7c-0.4,0.5-0.7,0.9-0.9,1.2
		c1.5,1.5,2.5,2.2,2.8,2.2c0.2,0,0.5-0.2,0.8-0.5c0.3-0.3,0.5-0.6,0.5-0.8c0-0.2-0.3-0.7-1-1.5C189.8,22.9,189.4,22.5,189.3,22.5z"
		/>
	<path class="st0" d="M198.1,25.8h8.9v2.7h-8.9V25.8z"/>
	<path class="st0" d="M209,7.8c-0.2-0.3-0.5-0.7-0.9-1.3c0.4-1,1-1.9,1.8-2.6c0.1,0.8,0.4,1.4,1,2c0.5,0.5,1.2,0.9,2,1l-1.4,2.6
		L210.6,9c-0.1,1.4-0.2,2.1-0.2,2.3c0,1.1,0.2,2.6,0.6,4.7c0.4,2.1,0.6,3.7,0.6,4.7c0,5.1-1.6,7.7-4.7,7.7h-1.6v-2.7
		c1.5,0,2.6-0.1,3.3-0.3c1.3-0.4,2-1.2,2-2.3c0-0.5-0.2-1.9-0.6-4.2c-0.3-1.6-0.5-3.1-0.8-4.7c-0.3-1.9-0.5-3.5-0.5-4.6
		c0-0.1,0-0.4,0.1-0.8s0-0.7,0-0.9V7.8z"/>
	<path class="st0" d="M218.1,22.9c0,1.3-0.4,3.2-1.1,5.5l-0.5-0.1c0.1-0.8,0.2-1.6,0.2-2.4c0-1.6-0.2-3.7-0.5-6.2
		c-0.3-2.1-0.5-4.1-0.8-6.1c-0.2-1.3-0.2-2-0.2-2.2c0-1.1,0.1-2,0.4-2.6c0.4-0.7,0.8-1.4,1.2-2.2c0,2.1,0.4,6.4,1.2,12.9
		C218,20.8,218.1,21.9,218.1,22.9z"/>
	<path class="st0" d="M234.8,25.1c0,3.5-0.9,6.8-2.7,9.6s-3.7,4.3-5.9,4.3c-1,0-2-0.2-2.8-0.5c-0.5-0.2-1.3-0.6-2.6-1.3l0.4-0.4
		c1,0.4,1.9,0.6,2.7,0.6c2.3,0,4.5-1.1,6.6-3.3c2.1-2.2,3.1-4.5,3.1-6.8c0-0.7-0.1-1.3-0.4-1.8c-0.7,1-1.5,1.5-2.2,1.5
		c-0.7,0-1.3-0.3-1.9-0.8c-0.5-0.5-0.8-1.2-0.8-1.9c0-0.9,0.4-2.1,1.1-3.6c0.8-1.6,1.6-2.4,2.4-2.4c1,0,1.7,0.9,2.3,2.7
		C234.6,22.5,234.8,23.8,234.8,25.1z M231,22c-0.6,0-0.8,0.3-0.8,0.8c0,0.6,0.3,1,0.8,1c0.6,0,1-0.3,1-0.9
		C231.9,22.2,231.6,22,231,22z"/>
	<path class="st0" d="M273.2,20.8c0,2.7-1.2,4.6-3.6,5.7c-4.1,1.9-8.6,2.8-13.7,2.8c-2.5,0-4.6-0.3-6.3-0.9
		c-2.5-0.9-3.7-2.3-3.7-4.4c0-0.9,0.6-2.7,1.9-5.2l0.5,0.2c-0.6,1.7-1,2.8-1,3.1c0,2.8,3,4.2,9.1,4.2c3.7,0,7.4-0.6,11-1.8
		c3-1,4.4-1.8,4.4-2.4c0-0.3-0.3-1-0.8-2c-0.5-0.9-0.6-1.4-0.6-1.6l1.1-2.2C272.7,18.3,273.2,19.8,273.2,20.8z M262.7,15.8l-1.5,2.4
		l-2.3-1.7l-1.4,2l-2.2-1.6l1.5-2.4l2.3,1.7l1.3-2L262.7,15.8z"/>
	<path class="st0" d="M280.1,22.9c0,1.3-0.4,3.2-1.1,5.5l-0.5-0.1c0.1-0.8,0.2-1.6,0.2-2.4c0-1.6-0.2-3.7-0.5-6.2
		c-0.3-2.1-0.5-4.1-0.8-6.1c-0.2-1.3-0.2-2-0.2-2.2c0-1.1,0.1-2,0.4-2.6c0.4-0.7,0.8-1.4,1.2-2.2c0,2.1,0.4,6.4,1.2,12.9
		C280,20.8,280.1,21.9,280.1,22.9z"/>
	<path class="st0" d="M295.1,23.4c0,1-0.2,2-0.7,3c-2.5,1.5-4.9,2.3-7.5,2.3c-0.9,0-1.9-0.3-2.9-1l0.4-3.3c0.6,0.6,1.5,0.8,2.6,0.8
		c2.9,0,5.3-0.5,7-1.6c0-1.5-0.8-2.8-2.3-3.8c-0.9-0.6-2.3-1.3-4.3-2l0.9-3.1c1.9,0.4,3.5,1.4,4.8,3.2
		C294.5,19.7,295.1,21.5,295.1,23.4z"/>
	<path class="st0" d="M312.7,28.4h-2.9c-0.3,2.6-1.1,4.8-2.2,6.6c-1.4,2.3-3.3,3.5-5.6,3.5c-0.8,0-2.4-0.3-4.7-1l0.4-0.4
		c0.6,0.1,1,0.2,1.4,0.2c2.2,0,4.1-0.7,6-2.2c0.8-0.7,1.6-1.7,2.4-3.1s1.3-2.6,1.4-3.6c-0.7-0.2-1.4-0.8-1.9-1.7l1.2-2.4
		c0.7,1,1.7,1.6,2.8,1.6c0.1,0,0.4,0,0.8,0c0.4,0,0.7,0,1,0V28.4z"/>
	<path class="st0" d="M326.3,28.4h-3c-1.9,0-3.6-0.6-5.3-1.7c-0.6,0.5-1.4,0.9-2.4,1.2c-1,0.3-1.9,0.5-2.6,0.5h-1.6v-2.7
		c2.5,0,3.9-0.2,4.5-0.6c0-0.1-0.1-0.2-0.2-0.6c-0.1-0.3-0.2-0.5-0.2-0.6c0-1.2,0.6-2.7,1.8-4.6c1.3-2,2.4-3,3.5-3
		c0.7,0,1.3,0.6,1.8,1.7c0.3,0.9,0.5,1.8,0.5,2.7c0,1.1-0.6,2.5-1.8,4.2c0.7,0.4,1.6,0.7,2.5,0.8c-0.1,0,0.8,0,2.7,0V28.4z
		 M321.5,21.8c0-0.5-0.2-1-0.5-1.4c-0.3-0.4-0.7-0.6-1.3-0.6c-0.5,0-1.1,0.2-1.8,0.6c-0.7,0.4-1,0.9-1,1.3c0,0.8,0.6,1.5,1.8,2.2
		c0.5-0.3,1.1-0.6,1.6-0.9C321.1,22.5,321.5,22.1,321.5,21.8z M322.2,10l-1.7,2.4l-2.2-1.7l1.6-2.5L322.2,10z"/>
	<path class="st0" d="M344,28.4h-3.1c-1.4,0-2.6-0.5-3.6-1.5c0,0.6-0.2,1-0.6,1.5c-0.4,0.4-0.8,0.6-1.4,0.6c-2.2,0-4-1.1-5.4-3.3
		c-0.3,0.3-0.8,0.8-1.4,1.5c-0.5,0.6-1.1,1-1.6,1.1c-0.2,0.1-0.9,0.1-2,0.1v-2.7h1.6c1.1,0,2.4-0.8,4-2.5c1.5-1.7,2.6-2.5,3.1-2.5
		c0.3,0,1.4,0.8,3.2,2.5c1.8,1.7,3.2,2.5,4.2,2.5h3.1V28.4z M333.6,22.5c-0.3,0-0.7,0.2-1.1,0.7c-0.4,0.5-0.7,0.9-0.9,1.2
		c1.5,1.5,2.5,2.2,2.8,2.2c0.2,0,0.5-0.2,0.8-0.5c0.3-0.3,0.5-0.6,0.5-0.8c0-0.2-0.3-0.7-1-1.5C334.2,22.9,333.8,22.5,333.6,22.5z"
		/>
	<path class="st0" d="M342.4,25.8h8.9v2.7h-8.9V25.8z"/>
	<path class="st0" d="M353.3,7.8c-0.2-0.3-0.5-0.7-0.9-1.3c0.4-1,1-1.9,1.8-2.6c0.1,0.8,0.4,1.4,1,2c0.5,0.5,1.2,0.9,2,1l-1.4,2.6
		L355,9c-0.1,1.4-0.2,2.1-0.2,2.3c0,1.1,0.2,2.6,0.6,4.7c0.4,2.1,0.6,3.7,0.6,4.7c0,5.1-1.6,7.7-4.7,7.7h-1.6v-2.7
		c1.5,0,2.6-0.1,3.3-0.3c1.3-0.4,2-1.2,2-2.3c0-0.5-0.2-1.9-0.6-4.2c-0.3-1.6-0.5-3.1-0.8-4.7c-0.3-1.9-0.5-3.5-0.5-4.6
		c0-0.1,0-0.4,0.1-0.8s0-0.7,0-0.9V7.8z"/>
	<path class="st0" d="M362.4,22.9c0,1.3-0.4,3.2-1.1,5.5l-0.5-0.1c0.1-0.8,0.2-1.6,0.2-2.4c0-1.6-0.2-3.7-0.5-6.2
		c-0.3-2.1-0.5-4.1-0.8-6.1c-0.2-1.3-0.2-2-0.2-2.2c0-1.1,0.1-2,0.4-2.6c0.4-0.7,0.8-1.4,1.2-2.2c0,2.1,0.4,6.4,1.2,12.9
		C362.3,20.8,362.4,21.9,362.4,22.9z"/>
	<path class="st0" d="M393.8,28.4h-3.6c0,7.7-3.6,11.6-10.9,11.6c-2,0-3.6-0.4-4.8-1.1c-1.4-0.9-2.2-2.3-2.2-4.2
		c0-1.8,0.7-4.2,2.2-7l0.4,0.4c-1,2.2-1.4,3.8-1.4,4.8c0,2.9,2.3,4.4,7,4.4c1,0,2.2-0.2,3.4-0.5c1.3-0.3,2.3-0.7,3-1.2
		c1.4-0.9,2.1-3.4,2.3-7.3c-0.9-0.4-1.5-1.1-1.7-2l1.2-2.5c0.4,1,1.1,1.7,2.1,1.9c0.3,0.1,1.3,0.1,3,0.1V28.4z M383.1,20.1l-1.4,2.3
		l-2.3-1.6l1.5-2.3L383.1,20.1z"/>
	<path class="st0" d="M404.5,24.1c0,0.5-0.2,1.2-0.7,1.9c-0.4,0.7-0.9,1.1-1.4,1.1c-0.7,0-2.2-0.7-4.6-2c-1.4,2.2-2.7,3.3-4,3.3
		h-1.6v-2.7h1.6c0.5,0,1.2-0.2,2.1-0.7c0.5-0.3,0.9-0.5,1.1-0.6s0.4-0.5,0.7-0.9c0.6-0.9,1.1-1.9,1.7-2.8c0.8-1.2,1.6-1.8,2.4-1.8
		c0.7,0,1.4,0.7,2,2.1C404.2,22.2,404.5,23.2,404.5,24.1z M402.1,23.6c0-1.4-0.5-2.1-1.5-2.1c-0.3,0-0.7,0.1-0.9,0.4
		c-0.3,0.3-0.4,0.6-0.4,0.9C399.8,23,400.8,23.3,402.1,23.6z"/>
	<path class="st0" d="M442.2,28.4h-3.1c-1,0-1.8-0.9-2.4-2.7c0.2,3.3,0.3,5,0.3,5c0,3.3-0.8,5.9-2.4,7.6c-1.7,1.9-4.2,2.8-7.5,2.8
		c-1.9,0-3.3-0.4-4.4-1.3c-1.2-1-1.8-2.3-1.8-4.1c0-1.5,0.7-4,2-7.6l0.4,0.2c-0.3,0.9-0.5,1.8-0.8,2.6c-0.3,1.1-0.4,1.9-0.4,2.6
		c0,1.4,0.6,2.5,1.8,3.3c1,0.6,2.3,1,3.8,1c1.2,0,2.7-0.3,4.3-0.8c1.9-0.6,3.1-1.4,3.6-2.2c0.2-0.4,0.4-1.2,0.4-2.5
		c0-2.4-0.1-5.4-0.4-8.9c-0.2-3-0.4-6-0.6-8.9c0-0.5-0.1-1.7-0.3-3.7c-0.2-1.5-0.2-2.7-0.2-3.7c0-0.4,0.2-0.8,0.6-1.4
		c0.5-0.8,0.8-1.3,0.8-1.3c0.1,2.3,0.2,4.5,0.3,6.8c0.1,2.7,0.3,4.9,0.6,6.7c0.1,0.9,0.2,2.2,0.4,4c0.1,0.5,0.5,1.3,1.2,2.6
		c0.3,0.6,0.8,1,1.2,1h2.6V28.4z"/>
	<path class="st0" d="M458,5l-1.2,2.8c-2.6,0.8-5.2,1.7-7.8,2.8c-4.1,1.6-6.2,2.7-6.2,3.4c0,0.2,0.2,0.4,0.5,0.6
		c0.1,0.1,0.9,0.5,2.7,1.4c1.5,0.8,2.7,1.9,3.6,3.2c1,1.4,1.5,2.9,1.5,4.5c0,3.2-2.6,4.8-7.8,4.8h-2.6v-2.7c2.6,0,4.3-0.1,5.2-0.2
		c2.9-0.3,4.4-1,4.4-2.2c0-0.7-0.7-1.8-2.2-3.3c-1.5-1.5-2.5-2.2-3.2-2.2c0,0-0.1,0-0.2,0c-0.1,0-0.2,0-0.2,0c-0.5,0-1-0.4-1.6-1.2
		c-0.5-0.8-0.8-1.5-0.8-2c0-1.2,0.1-2,0.4-2.5c0.3-0.5,1.8-1.4,4.5-2.8c2.4-1.2,4.1-2,5.1-2.4C454.6,6.3,456.6,5.5,458,5z"/>
	<path class="st0" d="M488.1,28.4c-2.4,0-3.8,0-4.2,0.1c-2.2,0.3-3.3,0.9-3.3,2c0,0.4,0.5,0.7,1.6,1c1.5,0.3,2.5,0.5,2.9,0.7
		c1,0.5,1.5,1.3,1.5,2.5c0,2-1.7,3.6-5,4.8c-2.6,1-5.1,1.4-7.5,1.4c-2.2,0-4-0.5-5.3-1.6c-1.4-1.1-2.1-2.8-2.1-5
		c0-2.2,0.8-4.7,2.4-7.5l0.4,0.3c-1.1,2.3-1.6,4.1-1.6,5.4c0,1.8,0.7,3.1,2.1,4.1c1.2,0.8,2.7,1.2,4.6,1.2c1.4,0,3.5-0.3,6.2-0.9
		c3.2-0.7,4.8-1.5,4.8-2.3c0-0.6-0.6-1-1.7-1.1c-1.2-0.1-2.3-0.2-3.4-0.3c-1.2-0.2-1.8-0.7-1.8-1.4c0-1.6,0.7-3,2.2-4.2
		c1.4-1.3,2.9-1.9,4.5-1.9h2.8V28.4z"/>
	<path class="st0" d="M497.3,28.4h-3.1c-1.5,0-2.6-1.4-3.2-4.1c-0.6,2.7-1.6,4.1-2.9,4.1h-1.6v-2.7h1.1c2,0,3-1.9,3-5.8
		c0-1.4-0.1-3.2-0.2-5.6c-0.1-1.6-0.1-4-0.3-7.2c-0.1-0.7-0.1-1.1-0.1-1c0-0.5,0.5-1.2,1.4-2.1c0,2.2,0.1,4.9,0.2,8.2
		c0.2,2.7,0.3,5.5,0.5,8.2c0.2,3.5,1.1,5.2,2.8,5.2h2.4V28.4z"/>
	<path class="st0" d="M512.2,20.4l-0.8,2.5l-9.7,4.2c-1.5,0.7-2.4,1-2.8,1.1c-0.5,0.1-1.5,0.2-3.1,0.2v-2.7c1.3,0,2.2,0,2.6-0.1
		c0.8-0.1,1.6-0.4,2.4-0.9c-1.3-1.1-1.9-2.1-1.9-2.9c0-1.5,0.7-3,2.2-4.6c1.5-1.6,2.9-2.4,4.4-2.4c1.1,0,2.6,0.8,4.3,2.5l-0.4,0.2
		c-0.8-0.4-1.6-0.6-2.4-0.6c-0.8,0-2,0.2-3.5,0.7c-1.8,0.5-2.7,1.1-2.7,1.6c0,0.7,0.5,1.5,1.5,2.4c1,0.9,1.9,1.3,2.7,1.3
		C505.7,23,508.1,22.2,512.2,20.4z"/>
	<path class="st0" d="M527.1,7.8c-0.3-0.3-0.5-0.7-0.7-1.1c0.2-0.5,0.8-1.3,1.8-2.5c0.1,0.7,0.4,1.4,1,1.9c0.5,0.5,1.2,0.8,1.9,0.9
		l-1.4,2.6L529,9.3h0v0.1c0,0,0.2,1.5,0.6,4.3c0.2,1.4,0.3,3,0.3,4.6c0,1.5-0.1,3.1-0.4,4.8c3.8-4,6.9-6,9.4-6
		c0.9,0,1.7,0.4,2.2,1.2c0.5,0.7,0.8,1.5,0.8,2.5c0,2.6-1.7,4.2-5.1,4.9h9v2.7h-22.1c-0.6,0-1.1-0.3-1.6-0.9c-0.4-0.5-0.8-1-1.2-1.6
		c0.7,0.1,1.5,0.2,2.2,0.2c1.5,0,2.9-0.2,4.2-0.5c0.5-0.6,0.9-1.5,1.2-2.6c0.3-1,0.4-2,0.4-2.8c0-1.8-0.2-3.9-0.6-6.3
		C527.9,11.9,527.5,9.8,527.1,7.8z M540.1,22.3c0-0.6-0.4-1-1.3-1.3c-0.6-0.2-1.3-0.3-2-0.3c-3,0-5.7,1.7-8.2,5.1
		c4,0,7.4-0.8,10.1-2.3C539.7,23,540.1,22.6,540.1,22.3z"/>
	<path class="st0" d="M559.1,28.4h-3.1c-1.5,0-3.1-1.1-5-3.2c-0.5,0.5-1.3,1.2-2.5,2c-1.3,0.8-2.3,1.2-2.9,1.2h-1.6v-2.7
		c2.5,0,4.3-0.7,5.6-2c-0.8-0.7-1.3-1.1-1.6-1.3c-0.5-0.3-1.2-0.5-2-0.5c0.3-1.3,0.8-2.1,1.5-2.7c0.7-0.5,1.7-0.8,3.1-0.8
		c1.1,0,2.2,0.2,3.2,0.6c1.3,0.5,1.9,1.3,1.9,2.2c0,1.1-0.9,1.9-2.8,2.6c0.7,0.9,1.7,1.4,2.8,1.6c0.5,0.1,1.6,0.1,3.4,0.1V28.4z
		 M551.5,11.4l-1.4,2.4l-2.2-1.4l1.4-2.4L551.5,11.4z"/>
	<path class="st0" d="M565.7,28.4c-1.6,0-2.6-0.8-3.1-2.5c-1.3,1.7-2.5,2.5-3.4,2.5h-1.6v-2.7c1.8,0,3-0.2,3.6-0.5s1-0.7,1.1-1
		c0.1-0.3,0.2-0.8,0.2-1.6l0.3,0c0.2,0.8,0.6,1.6,1.1,2.4c0.4,0.5,1.2,0.8,2.6,0.8l-0.2,0c0,0,0,0,0.1,0s0.1,0,0.1,0v2.7H565.7z"/>
	<path class="st0" d="M565.7,25.8h3.3c2.2-2.9,4.3-4.9,6.1-6.1c2.2-1.5,4-2.2,5.4-2.2c0.9,0,1.6,0.4,2.1,1.2
		c0.5,0.7,0.7,1.5,0.7,2.4c0,2.9-1.9,4.9-5.8,6.2c-2.6,0.8-5.7,1.2-9.3,1.2c-0.2,0.4-0.4,0.8-0.8,1.3c-0.5,0.6-0.8,1.1-0.9,1.2
		l-0.6-0.4l1.4-2.2h-1.6V25.8z M581.6,22.4c0-1-0.7-1.4-2.2-1.4c-2,0-3.8,0.4-5.3,1.3c-1.1,0.6-2.5,1.8-4.1,3.6h1.6
		c2.1,0,4.2-0.4,6.5-1.2C580.5,23.7,581.6,23,581.6,22.4z M574.1,12.1l-1.5,2.6l-2.3-1.7l1.5-2.6L574.1,12.1z"/>
	<path class="st0" d="M592.3,3.6c-0.2,0.8-0.4,1.2-0.7,1.3l-5.4,1.6c0.1-0.5,0.3-0.9,0.7-1.2c0.2-0.1,0.6-0.3,1.3-0.6
		c-0.8-0.4-1.2-0.9-1.3-1.6c0-0.2,0.1-0.5,0.3-0.8c0.5-0.7,1-1.2,1.6-1.7c0.6-0.5,1.1-0.7,1.6-0.7c0.7,0,1,0.4,1,1.1
		c0,0.4-0.2,0.8-0.6,1.3c-0.6-0.4-1.2-0.6-1.6-0.6c-0.4,0-0.8,0.2-1.3,0.6c1.1,1,2,1.5,2.8,1.5C591.1,4,591.7,3.9,592.3,3.6z"/>
	<path class="st0" d="M590.5,22.9c0,1.3-0.4,3.2-1.1,5.5l-0.5-0.1c0.1-0.8,0.2-1.6,0.2-2.4c0-1.6-0.2-3.7-0.5-6.2
		c-0.3-2.1-0.5-4.1-0.8-6.1c-0.2-1.3-0.2-2-0.2-2.2c0-1.1,0.1-2,0.4-2.6c0.4-0.7,0.8-1.4,1.2-2.2c0,2.1,0.4,6.4,1.2,12.9
		C590.5,20.8,590.5,21.9,590.5,22.9z"/>
</g>
</svg>
