<?xml version="1.0" encoding="utf-8"?>
<!-- Generator: Adobe Illustrator 19.2.0, SVG Export Plug-In . SVG Version: 6.00 Build 0)  -->
<svg version="1.1" id="Layer_1" xmlns="http://www.w3.org/2000/svg" xmlns:xlink="http://www.w3.org/1999/xlink" x="0px" y="0px"
	 viewBox="0 0 129.2 21.8" style="enable-background:new 0 0 129.2 21.8;" xml:space="preserve">
<style type="text/css">
	.st0{fill:#1C363C;}
</style>
<g>
	<path class="st0" d="M0,21.5V0h15.9v3.6H4.3v4.8h10.8V12H4.3v5.8h12v3.6H0V21.5z"/>
	<path class="st0" d="M18,21.5l5.6-8L18.2,6h5l2.8,4.3L28.9,6h4.8l-5.3,7.4l5.8,8.2h-5.1L26,16.7l-3.2,4.8H18z"/>
	<path class="st0" d="M50.2,10.5l-4.1,0.7c-0.1-0.8-0.4-1.4-0.9-1.8c-0.5-0.4-1.1-0.6-1.9-0.6c-1,0-1.8,0.4-2.5,1.1
		c-0.6,0.7-0.9,1.9-0.9,3.6c0,1.8,0.3,3.2,0.9,3.9c0.6,0.8,1.5,1.1,2.5,1.1c0.8,0,1.4-0.2,1.9-0.7c0.5-0.4,0.8-1.2,1.1-2.3l4,0.7
		c-0.4,1.9-1.2,3.3-2.4,4.2s-2.8,1.4-4.8,1.4c-2.3,0-4.1-0.7-5.4-2.2c-1.4-1.4-2-3.4-2-6s0.7-4.6,2-6c1.4-1.4,3.2-2.1,5.5-2.1
		c1.9,0,3.4,0.4,4.5,1.2C48.9,7.6,49.7,8.8,50.2,10.5z"/>
	<path class="st0" d="M62.4,16.5l4.1,0.7c-0.5,1.5-1.4,2.6-2.5,3.4s-2.6,1.2-4.3,1.2c-2.7,0-4.7-0.9-6-2.7c-1-1.4-1.5-3.2-1.5-5.4
		c0-2.6,0.7-4.6,2-6.1s3.1-2.2,5.1-2.2c2.3,0,4.1,0.8,5.5,2.3c1.3,1.5,2,3.9,1.9,7H56.4c0,1.2,0.4,2.2,1,2.8c0.6,0.7,1.4,1,2.4,1
		c0.6,0,1.2-0.2,1.6-0.5S62.1,17.3,62.4,16.5z M62.6,12.4c0-1.2-0.3-2.1-0.9-2.7c-0.6-0.6-1.3-0.9-2.1-0.9c-0.9,0-1.6,0.3-2.2,1
		s-0.9,1.5-0.9,2.7h6.1C62.6,12.5,62.6,12.4,62.6,12.4z"/>
	<path class="st0" d="M70,21.5V0h4.1v21.5H70z"/>
	<path class="st0" d="M78.4,21.5V0h4.1v21.5H78.4z"/>
	<path class="st0" d="M95.7,16.5l4.1,0.7c-0.5,1.5-1.4,2.6-2.5,3.4s-2.6,1.2-4.3,1.2c-2.7,0-4.7-0.9-6-2.7c-1-1.4-1.5-3.2-1.5-5.4
		c0-2.6,0.7-4.6,2-6.1s3.1-2.2,5.1-2.2c2.3,0,4.1,0.8,5.5,2.3c1.3,1.5,2,3.9,1.9,7H89.7c0,1.2,0.4,2.2,1,2.8c0.6,0.7,1.4,1,2.4,1
		c0.6,0,1.2-0.2,1.6-0.5S95.5,17.3,95.7,16.5z M95.9,12.4c0-1.2-0.3-2.1-0.9-2.7c-0.6-0.6-1.3-0.9-2.1-0.9c-0.9,0-1.6,0.3-2.2,1
		s-0.9,1.5-0.9,2.7h6.1V12.4z"/>
	<path class="st0" d="M117.5,21.5h-4.1v-7.9c0-1.7-0.1-2.8-0.3-3.3c-0.2-0.5-0.5-0.9-0.9-1.1c-0.4-0.3-0.9-0.4-1.4-0.4
		c-0.7,0-1.4,0.2-1.9,0.6s-1,0.9-1.2,1.6c-0.2,0.6-0.3,1.8-0.3,3.6v7h-4.1V5.9h3.8v2.3c1.4-1.8,3.1-2.6,5.1-2.6
		c0.9,0,1.7,0.2,2.5,0.5s1.3,0.7,1.7,1.3c0.4,0.5,0.7,1.1,0.8,1.7c0.2,0.6,0.2,1.6,0.2,2.8v9.6H117.5z"/>
	<path class="st0" d="M128.8,5.9v3.3H126v6.3c0,1.3,0,2,0.1,2.2s0.2,0.4,0.4,0.5c0.2,0.1,0.4,0.2,0.7,0.2c0.4,0,0.9-0.1,1.7-0.4
		l0.4,3.2c-1,0.4-2,0.6-3.3,0.6c-0.7,0-1.4-0.1-2-0.4s-1-0.6-1.3-1s-0.5-0.9-0.6-1.6c-0.1-0.5-0.1-1.4-0.1-2.9V9.2h-2V5.9h1.9V2.8
		l4.1-2.4v5.5C126,5.9,128.8,5.9,128.8,5.9z"/>
</g>
</svg>
