<?xml version="1.0" encoding="utf-8"?>
<!-- Generator: Adobe Illustrator 16.0.0, SVG Export Plug-In . SVG Version: 6.00 Build 0)  -->
<!DOCTYPE svg PUBLIC "-//W3C//DTD SVG 1.1//EN" "http://www.w3.org/Graphics/SVG/1.1/DTD/svg11.dtd">
<svg version="1.1" id="Layer_1" xmlns="http://www.w3.org/2000/svg" xmlns:xlink="http://www.w3.org/1999/xlink" x="0px" y="0px"
	 width="48px" height="48px" viewBox="0 0 48 48" enable-background="new 0 0 48 48" xml:space="preserve">
<g>
	<path fill="#8E725F" d="M1,42.75c0,1.657,1.343,3,3,3h39.834c1.657,0,3-1.343,3-3V5.303c0-1.657-1.343-3-3-3H4
		c-1.657,0-3,1.343-3,3V42.75z"/>
</g>
<g>
	<g>
		<path fill="#FFFFFF" d="M39.349,37.964V22.191c0-0.824-0.666-1.492-1.49-1.492h-7.077v-4.29c0-0.405-0.219-0.779-0.572-0.976
			l-5.748-3.206c-0.032-0.018-0.063-0.033-0.097-0.047v-1.829h3.095c0.247,0,0.446-0.2,0.446-0.447V7.646
			c0-0.248-0.199-0.448-0.446-0.448h-3.095V6.996c0-0.247-0.2-0.447-0.447-0.447s-0.447,0.2-0.447,0.447v5.184
			c-0.033,0.015-0.064,0.03-0.097,0.047l-5.748,3.206c-0.354,0.197-0.573,0.571-0.573,0.976v4.29H9.974
			c-0.823,0-1.49,0.668-1.49,1.492v15.773c-0.633,0.285-1.074,0.922-1.074,1.662c0,1.008,0.817,1.825,1.826,1.825h29.362
			c1.008,0,1.826-0.817,1.826-1.825C40.424,38.886,39.982,38.249,39.349,37.964z M33.588,25.895c0-0.479,0.389-0.867,0.87-0.867
			h1.622c0.479,0,0.869,0.388,0.869,0.867v1.625c0,0.479-0.39,0.868-0.869,0.868h-1.622c-0.481,0-0.87-0.389-0.87-0.868V25.895
			L33.588,25.895z M33.588,31.112c0-0.479,0.389-0.869,0.87-0.869h1.622c0.479,0,0.869,0.39,0.869,0.869v1.622
			c0,0.48-0.39,0.869-0.869,0.869h-1.622c-0.481,0-0.87-0.389-0.87-0.869V31.112L33.588,31.112z M28.372,25.895
			c0-0.479,0.39-0.867,0.868-0.867h1.625c0.478,0,0.867,0.388,0.867,0.867v1.625c0,0.479-0.39,0.868-0.867,0.868H29.24
			c-0.479,0-0.868-0.389-0.868-0.868V25.895z M28.372,31.112c0-0.479,0.39-0.869,0.868-0.869h1.625c0.478,0,0.867,0.39,0.867,0.869
			v1.622c0,0.48-0.39,0.869-0.867,0.869H29.24c-0.479,0-0.868-0.389-0.868-0.869V31.112z M23.917,16.413
			c1.357,0,2.46,1.101,2.46,2.458c0,1.359-1.103,2.46-2.46,2.46c-1.359,0-2.46-1.101-2.46-2.46
			C21.457,17.514,22.558,16.413,23.917,16.413z M21.454,30.53c0-0.479,0.39-0.866,0.87-0.866h3.188c0.48,0,0.869,0.387,0.869,0.866
			v6.84c0,0.157-0.042,0.305-0.115,0.431h-4.695c-0.072-0.126-0.116-0.273-0.116-0.431V30.53L21.454,30.53z M16.102,25.895
			c0-0.479,0.388-0.867,0.868-0.867h1.623c0.48,0,0.868,0.388,0.868,0.867v1.625c0,0.479-0.388,0.868-0.868,0.868H16.97
			c-0.479,0-0.868-0.389-0.868-0.868V25.895z M16.102,31.112c0-0.479,0.388-0.869,0.868-0.869h1.623c0.48,0,0.868,0.39,0.868,0.869
			v1.622c0,0.48-0.388,0.869-0.868,0.869H16.97c-0.479,0-0.868-0.389-0.868-0.869V31.112z M10.885,25.895
			c0-0.479,0.389-0.867,0.868-0.867h1.624c0.479,0,0.869,0.388,0.869,0.867v1.625c0,0.479-0.389,0.868-0.869,0.868h-1.624
			c-0.479,0-0.868-0.389-0.868-0.868V25.895L10.885,25.895z M10.885,31.112c0-0.479,0.389-0.869,0.868-0.869h1.624
			c0.479,0,0.869,0.39,0.869,0.869v1.622c0,0.48-0.389,0.869-0.869,0.869h-1.624c-0.479,0-0.868-0.389-0.868-0.869V31.112
			L10.885,31.112z"/>
	</g>
</g>
</svg>
