<?xml version="1.0" encoding="utf-8"?>
<!-- Generator: Adobe Illustrator 16.0.0, SVG Export Plug-In . SVG Version: 6.00 Build 0)  -->
<!DOCTYPE svg PUBLIC "-//W3C//DTD SVG 1.1//EN" "http://www.w3.org/Graphics/SVG/1.1/DTD/svg11.dtd">
<svg version="1.1" id="Layer_1" xmlns="http://www.w3.org/2000/svg" xmlns:xlink="http://www.w3.org/1999/xlink" x="0px" y="0px"
	 width="48px" height="48px" viewBox="0 0 48 48" enable-background="new 0 0 48 48" xml:space="preserve">
<g>
	<path fill="#394C82" d="M1,42.75c0,1.657,1.343,3,3,3h39.834c1.657,0,3-1.343,3-3V5.303c0-1.657-1.343-3-3-3H4
		c-1.657,0-3,1.343-3,3V42.75z"/>
</g>
<g>
	<path fill="#FFFFFF" d="M10.893,29.637h26.049v1.602H19.962v5.479l-2.586-2.171l-2.586,2.171v-5.479h-2.296v6.918h24.448v1.6
		H10.893V29.637L10.893,29.637z M10.893,29.088h26.049v-1.602H12.493v-6.918h2.296v5.477l2.586-2.17l2.586,2.17v-5.477h16.979
		v-1.601H10.893V29.088L10.893,29.088z M17.375,13.204l2.586,2.171V9.897h16.979V8.297H10.893v10.12h26.049v-1.601H12.493V9.897
		h2.296v5.478L17.375,13.204z"/>
</g>
</svg>
