<?xml version="1.0" encoding="utf-8"?>
<!-- Generator: Adobe Illustrator 22.1.0, SVG Export Plug-In . SVG Version: 6.00 Build 0)  -->
<svg version="1.1" id="Layer_1" xmlns="http://www.w3.org/2000/svg" xmlns:xlink="http://www.w3.org/1999/xlink" x="0px" y="0px"
	 viewBox="0 0 105 22.1" style="enable-background:new 0 0 105 22.1;" xml:space="preserve">
<style type="text/css">
	.st0{opacity:0.5;}
	.st1{opacity:0.8;fill:#231F20;}
	.st2{opacity:0.8;}
	.st3{fill:#FFFFFF;}
	.st4{fill:#0A0808;}
	.st5{fill:#30292B;}
	.st6{opacity:0.6;fill:#231F20;}
</style>
<g id="Layer_x0020_1_3_" class="st0">
	<path class="st1" d="M7,1.3L38.6,0c0.2,0,0.5,0,0.7,0c0.5,0.1,1,0.3,1.3,0.6c0.4,0.3,0.6,0.7,0.7,1.2c0,0.2,0,0.4,0,0.5l-3.3,14.8
		c-0.1,0.6-0.4,1.2-0.9,1.6c-0.4,0.4-1,0.6-1.7,0.6L10,18.6c-0.7,0-1.3-0.2-1.7-0.6l0,0c-0.5-0.4-0.8-1-0.9-1.6L4.5,3.7
		c0-0.1,0-0.1,0-0.1C4.3,2.9,4.6,2.4,5.1,2c0.4-0.4,1-0.6,1.6-0.7C6.8,1.3,6.9,1.3,7,1.3z M37.2,2L7,3.1c-0.1,0-0.1,0-0.2,0
		C6.4,3.2,6,3.4,5.7,3.6C5.4,3.8,5.3,4.1,5.3,4.4c0,0,0,0.1,0,0.1l2.7,11.9c0.1,0.4,0.3,0.8,0.6,1.1c0.3,0.2,0.6,0.4,1,0.4l24.4,0.9
		c0.4,0,0.7-0.1,1-0.4c0.3-0.3,0.5-0.7,0.6-1.1l3.1-13.8c0-0.1,0-0.2,0-0.3c0-0.2-0.2-0.5-0.4-0.7c-0.2-0.2-0.5-0.3-0.8-0.4
		C37.4,2,37.3,2,37.2,2z"/>
	<path class="st1" d="M12.1,4.6l9.2-1c0.1,0,0.2,0,0.3,0c0.2,0,0.4,0.1,0.6,0.3c0.2,0.2,0.3,0.3,0.3,0.6c0,0.1,0,0.2,0,0.3L21,11.6
		c-0.1,0.3-0.2,0.6-0.4,0.7c-0.2,0.2-0.5,0.3-0.8,0.3h-6.4c-0.3,0-0.6-0.1-0.8-0.3l0,0c-0.2-0.2-0.4-0.5-0.4-0.7l-1.4-5.9
		c0,0,0,0,0-0.1c0-0.3,0.1-0.5,0.3-0.7c0.2-0.2,0.5-0.3,0.8-0.3C12,4.6,12,4.6,12.1,4.6z M20.7,4.6l-8.6,0.9c0,0-0.1,0-0.1,0
		c-0.2,0-0.4,0.1-0.5,0.2c-0.1,0.1-0.2,0.2-0.2,0.4c0,0,0,0,0,0l1.3,5.5c0,0.2,0.1,0.4,0.3,0.5c0.1,0.1,0.3,0.2,0.5,0.2h5.9
		c0.2,0,0.3-0.1,0.5-0.2c0.1-0.1,0.2-0.3,0.3-0.5l1.4-6.4c0,0,0-0.1,0-0.1c0-0.1-0.1-0.2-0.2-0.3c-0.1-0.1-0.2-0.2-0.4-0.2
		C20.8,4.6,20.7,4.6,20.7,4.6z"/>
	<g id="_1849662416_3_" class="st2">
		<path class="st3" d="M25.3,13.4l0.3-0.5l-0.5-0.3l0.3-0.5l-1.1-0.6l-0.6,1.1l0,0c0.2,0.1,0.4,0.2,0.5,0.3L24,13.3l0.5,0.3
			l-0.6,1.1l0.5,0.3c-0.2,0.3-0.4,0.8-0.6,1.1l0,0c0.1,0.1,0.3,0.1,0.4,0.2c0.2,0.1,0.2,0.1,0,0.3c-0.2,0.3-0.3,0.5-0.5,0.8l0.5,0.3
			c0,0.1-0.5,0.9-0.6,1.1l4.2,2.5l0.6-1.1l0.5,0.3l0.9-1.6l0.5,0.3l2.1-3.7c-0.1-0.1-0.5-0.3-0.5-0.3c0-0.1,0.3-0.4,0.3-0.5
			c-0.1-0.1-0.4-0.3-0.5-0.3L31,15.9l-0.5-0.3l1.2-2.1l-1.1-0.6l-0.9,1.6l-0.5-0.3l1.2-2.1c-0.1-0.1-1-0.6-1.1-0.6l-1.2,2.1
			l-0.5-0.3c0-0.1,0-0.1,0.1-0.2c0.9-1.5,1.8-3.1,2.7-4.6l-1.1-0.6l-3.4,5.9C25.7,13.7,25.4,13.4,25.3,13.4L25.3,13.4z"/>
		<path class="st4" d="M23.8,16.1c0,0.1-0.1,0.1-0.2,0.2l-0.5,0.8c0.1,0.1,0.2,0.1,0.3,0.2c0.1,0.1,0.1,0.1,0.3,0.2
			c-0.3,0.5-0.6,1-0.9,1.6c0.4,0.3,0.9,0.5,1.3,0.8l2.7,1.6c0.5,0.3,0.9,0.5,1.3,0.8c0.1-0.1,0.1-0.2,0.2-0.4
			c0.1-0.1,0.3-0.4,0.4-0.6c0.1-0.1,0.1-0.1,0.1-0.2c0.1-0.1,0.1-0.3,0.2-0.4c0.1,0.1,0.4,0.2,0.5,0.3c0.3-0.5,0.6-1,0.9-1.6
			c0.2,0,0.3,0.2,0.5,0.2c0.1,0,0.1,0,0.1,0c0.1-0.2,0.2-0.4,0.4-0.6c0.2-0.4,0.5-0.8,0.7-1.2l1-1.8c-0.1-0.1-0.4-0.2-0.5-0.3
			l-2.1,3.7L30,18.9l-0.9,1.6l-0.5-0.3l-0.6,1.1l-4.2-2.5c0.1-0.2,0.6-0.9,0.6-1.1l-0.5-0.3c0.2-0.3,0.3-0.5,0.5-0.8
			c0.2-0.3,0.2-0.2,0-0.3C24,16.2,23.9,16.1,23.8,16.1z"/>
		<path class="st4" d="M25.4,12l-0.3,0.5l0.5,0.3l-0.3,0.5l0.5,0.3l3.4-5.9l-0.5-0.3c0,0,0,0,0,0l0,0c0,0,0,0,0,0l-2.7,4.7
			C25.7,12.2,25.6,12.1,25.4,12z"/>
		<path class="st4" d="M30.3,8.5l-2.8,4.8l0.5,0.3l1.2-2.1c0.1,0,1,0.5,1.1,0.6c0.1,0.1,1.1,0.7,1.3,0.8c0,0,0,0-0.1-0.1l-1.1-0.6
			c-0.3-0.1-0.2,0,0.1-0.6l-0.8-0.5c-0.1-0.1-0.1-0.1-0.3-0.2l1.2-2.1c-0.1-0.1-0.2-0.2-0.4-0.3C30.4,8.5,30.4,8.5,30.3,8.5z"/>
		<path class="st4" d="M31.7,13.5L32,13c-0.1,0-0.2-0.1-0.3-0.1c-0.2-0.1-1.2-0.7-1.3-0.8l-1.2,2.1l0.5,0.3l0.9-1.6L31.7,13.5z"/>
		<path class="st4" d="M23.7,12.5c0,0.1-0.1,0.1-0.2,0.3c-0.1,0.1-0.1,0.2-0.2,0.3l0.5,0.3c0,0.2-0.5,0.9-0.6,1.1l0.5,0.3l-0.5,0.8
			c-0.1,0.1-0.1,0.2-0.1,0.3l0.5,0.3c0.2-0.3,0.5-0.7,0.6-1.1l-0.5-0.3l0.6-1.1L24,13.3l0.3-0.5C24.1,12.7,23.9,12.6,23.7,12.5z"/>
		<path class="st4" d="M23.7,12.5l0.6-1.1l1.1,0.6l0.2-0.3c0-0.1,0.1-0.2,0.1-0.3l-1.4-0.8c-0.2-0.1-0.2-0.2-0.4,0.2L23.3,12
			c-0.1,0.1-0.1,0.1,0,0.2C23.4,12.3,23.6,12.5,23.7,12.5z"/>
		<path class="st4" d="M32.4,14.7C32.5,14.7,32.4,14.7,32.4,14.7c0.1-0.1,0.1-0.1,0.1-0.1c0-0.1,0.1-0.3,0.2-0.4l-1.1-0.6l-1.2,2.1
			l0.5,0.3l0.9-1.6C32,14.4,32.3,14.6,32.4,14.7z"/>
		<path class="st4" d="M30.3,8.4c0.1-0.2,0.2-0.4,0.3-0.5l-1-0.6l-0.3,0.5L30.3,8.4z"/>
		<path class="st4" d="M32.4,14.7c0,0.1-0.3,0.4-0.3,0.5c0,0.1,0.4,0.3,0.5,0.3c0.1,0.1,0.4,0.2,0.5,0.3l-1,1.8l1.1-1.8l-0.5-0.3
			c0-0.1,0.1-0.1,0.1-0.3c0.1-0.1,0.1-0.2,0.2-0.3c-0.6-0.3-0.6-0.2-0.4-0.4C32.5,14.5,32.5,14.6,32.4,14.7
			C32.4,14.7,32.5,14.7,32.4,14.7z"/>
		<path class="st5" d="M28.7,7.5l0.5,0.3l-3.4,5.9l-0.5-0.3l0,0c0,0,0.3,0.2,0.5,0.3l3.4-5.9l1.1,0.6c-0.9,1.5-1.8,3.1-2.7,4.6
			c0,0.1-0.1,0.1-0.1,0.2l2.8-4.8l0,0l-1.1-0.6l0.3-0.5c-0.1,0.1-0.2,0.4-0.3,0.5L28.7,7.5C28.7,7.5,28.7,7.5,28.7,7.5z"/>
	</g>
	<path class="st1" d="M50.2,13.4h-1.8l1.5-5.2l-3.1,5.2h-1.9l-0.3-5.2l-1.3,5.2h-1.9l2.1-7.9h2.5l0.4,5.5l3.3-5.5h2.5L50.2,13.4z
		 M56.9,13.4h-4.1c-0.6,0-1-0.2-1.2-0.5c-0.3-0.3-0.3-0.7-0.2-1.3c0.2-0.7,0.5-1.2,0.9-1.5c0.4-0.3,1.1-0.4,1.9-0.4h1.8
		c0.1-0.3,0-0.5-0.1-0.6c-0.1-0.1-0.4-0.2-0.9-0.2h-2.6L53,7.5h3.1c0.8,0,1.3,0.2,1.7,0.5c0.3,0.4,0.4,0.9,0.2,1.7L56.9,13.4z
		 M55.5,12l0.2-0.9h-1.6c-0.3,0-0.5,0-0.6,0.1c-0.1,0.1-0.2,0.2-0.2,0.4c0,0.1,0,0.2,0,0.3c0,0,0.1,0,0.2,0.1c0.1,0,0.2,0,0.4,0
		H55.5z M63.3,13.4h-1.7l0.9-3.5c0.1-0.4,0.1-0.6,0-0.7C62.4,9.1,62.2,9,61.9,9h-1l-1.2,4.4h-1.7l1.6-5.8h2.9c0.9,0,1.5,0.2,1.7,0.5
		c0.3,0.3,0.3,0.9,0.1,1.7L63.3,13.4z M69.6,13.4h-1.7l0.9-3.5c0.1-0.3,0.1-0.6,0-0.7c-0.1-0.1-0.1-0.1-0.2-0.1c-0.1,0-0.2,0-0.4,0
		l-1,0L66,13.4h-1.7l2.1-7.9h1.7l-0.5,2h1.2c0.9,0,1.4,0.2,1.7,0.5c0.3,0.3,0.3,0.9,0.1,1.7L69.6,13.4z M76.2,13.4h-4.1
		c-0.6,0-1-0.2-1.2-0.5c-0.3-0.3-0.3-0.7-0.2-1.3c0.2-0.7,0.5-1.2,0.9-1.5c0.4-0.3,1.1-0.4,1.9-0.4h1.8c0.1-0.3,0-0.5-0.1-0.6
		c-0.1-0.1-0.4-0.2-0.9-0.2h-2.6l0.4-1.4h3.1c0.8,0,1.3,0.2,1.7,0.5c0.3,0.4,0.4,0.9,0.2,1.7L76.2,13.4z M74.8,12l0.2-0.9h-1.6
		c-0.3,0-0.5,0-0.6,0.1c-0.1,0.1-0.2,0.2-0.2,0.4c0,0.1,0,0.2,0,0.3c0,0,0.1,0,0.2,0.1c0.1,0,0.2,0,0.4,0H74.8z M79,13.4h-1.8
		l2.1-7.9h1.8L79,13.4z M83,13.4h-1.5l0.4-1.6h1.5L83,13.4z M88.6,13.4h-2.1c-0.3,0-0.5,0-0.7,0c-0.2,0-0.4-0.1-0.5-0.1
		c-0.3-0.1-0.5-0.3-0.8-0.5c-0.1-0.1-0.2-0.3-0.2-0.4c-0.1-0.2-0.1-0.3-0.1-0.5c0-0.2,0-0.4,0-0.6c0-0.2,0.1-0.4,0.1-0.6
		c0.1-0.4,0.3-0.8,0.5-1.2c0.2-0.4,0.5-0.7,0.9-1c0.3-0.2,0.7-0.4,1-0.5c0.4-0.1,0.8-0.2,1.3-0.2h2.1L89.8,9h-1.7
		c-0.3,0-0.6,0-0.9,0.1c-0.2,0-0.4,0.1-0.6,0.3c-0.3,0.2-0.5,0.6-0.7,1.1c-0.1,0.3-0.1,0.6,0,0.8c0,0.2,0.1,0.4,0.3,0.5l0.3,0.1
		c0.1,0,0.2,0,0.3,0c0.1,0,0.3,0,0.5,0H89L88.6,13.4z M95.8,10.4c-0.2,0.9-0.7,1.6-1.4,2.2c-0.7,0.5-1.5,0.8-2.4,0.8
		c-0.9,0-1.6-0.3-2-0.8c-0.4-0.5-0.5-1.3-0.2-2.2c0.2-0.9,0.7-1.6,1.4-2.2c0.7-0.5,1.5-0.8,2.5-0.8c0.9,0,1.6,0.3,2,0.8
		C96,8.8,96.1,9.5,95.8,10.4z M94,10.4c0.1-0.5,0.1-0.9-0.1-1.1c-0.2-0.3-0.4-0.4-0.8-0.4c-0.4,0-0.7,0.1-1,0.4
		c-0.3,0.3-0.5,0.6-0.6,1.1c-0.1,0.3-0.1,0.5-0.1,0.7c0,0.2,0,0.4,0.1,0.5c0.2,0.3,0.4,0.4,0.8,0.4c0.4,0,0.7-0.1,1-0.4
		C93.7,11.3,93.9,10.9,94,10.4z M103.9,13.4h-1.7l0.9-3.5c0.1-0.4,0.1-0.6,0-0.7C103,9,102.8,9,102.5,9l-0.7,0l-1.2,4.4h-1.8L100,9
		h-1.4l-1.2,4.4h-1.7l1.6-5.8h5.7c0.8,0,1.4,0.2,1.7,0.5c0.3,0.3,0.4,0.9,0.2,1.7L103.9,13.4z"/>
	<path class="st1" d="M2,7.5l15.2-1.6c0.2,0,0.4,0,0.5,0c0.4,0.1,0.7,0.2,1,0.5C19,6.7,19.2,7,19.2,7.4c0,0.1,0,0.3,0,0.4l-2.6,6.9
		c-0.1,0.5-0.3,0.9-0.7,1.2c-0.3,0.3-0.8,0.5-1.3,0.5H4.1c-0.5,0-1-0.2-1.3-0.5h0c-0.4-0.3-0.6-0.8-0.7-1.2L0,9.4c0,0,0-0.1,0-0.1
		C0,8.8,0.2,8.4,0.5,8.1c0.3-0.3,0.8-0.5,1.2-0.5C1.8,7.6,1.9,7.6,2,7.5z M16.2,7.5L2,9C1.9,9,1.9,9,1.8,9C1.5,9.1,1.2,9.2,1,9.4
		C0.8,9.5,0.7,9.7,0.7,9.9c0,0,0,0,0,0.1l1.9,4.7c0.1,0.3,0.2,0.6,0.5,0.9c0.2,0.2,0.4,0.3,0.7,0.3h9.8c0.3,0,0.6-0.1,0.7-0.3
		c0.2-0.2,0.4-0.5,0.5-0.9l2.5-6.2c0-0.1,0-0.1,0-0.2c0-0.2-0.1-0.4-0.3-0.5c-0.2-0.1-0.4-0.3-0.6-0.3C16.4,7.5,16.3,7.5,16.2,7.5z"
		/>
	<path class="st6" d="M44.9,3l-0.3,1.2h-0.4L45,1h1c0.2,0,0.4,0,0.5,0.1c0.1,0,0.2,0.1,0.3,0.2c0.1,0.1,0.1,0.2,0.1,0.3
		c0,0.1,0,0.3,0,0.4c0,0.2-0.1,0.3-0.2,0.4c-0.1,0.1-0.2,0.2-0.3,0.3c-0.1,0.1-0.3,0.2-0.4,0.2C45.8,3,45.6,3,45.4,3H44.9z M45,2.7
		h0.5c0.1,0,0.2,0,0.3-0.1c0.1,0,0.2-0.1,0.3-0.1c0.1-0.1,0.1-0.1,0.2-0.2c0.1-0.1,0.1-0.2,0.1-0.3c0.1-0.2,0-0.4-0.1-0.5
		c-0.1-0.1-0.3-0.2-0.5-0.2h-0.5L45,2.7z"/>
	<path id="_x31__3_" class="st6" d="M48.2,1.9c0.2,0,0.3,0,0.4,0.1c0.1,0.1,0.2,0.1,0.3,0.2C49,2.3,49,2.5,49.1,2.6
		c0,0.1,0,0.3-0.1,0.5s-0.1,0.3-0.2,0.5c-0.1,0.1-0.2,0.3-0.3,0.4c-0.1,0.1-0.3,0.2-0.4,0.2c-0.1,0.1-0.3,0.1-0.5,0.1
		s-0.3,0-0.4-0.1C47.1,4.1,47,4.1,46.9,4c-0.1-0.1-0.1-0.2-0.1-0.4c0-0.1,0-0.3,0.1-0.5c0-0.2,0.1-0.3,0.2-0.5
		c0.1-0.1,0.2-0.3,0.3-0.4c0.1-0.1,0.3-0.2,0.4-0.2C47.9,1.9,48.1,1.9,48.2,1.9z M47.7,4c0.2,0,0.4-0.1,0.6-0.2
		c0.2-0.2,0.3-0.4,0.3-0.6c0.1-0.3,0.1-0.5,0-0.6c-0.1-0.2-0.2-0.2-0.4-0.2c-0.1,0-0.2,0-0.3,0.1c-0.1,0-0.2,0.1-0.3,0.2
		c-0.1,0.1-0.1,0.2-0.2,0.3c-0.1,0.1-0.1,0.2-0.1,0.4s-0.1,0.3-0.1,0.4c0,0.1,0,0.2,0.1,0.3c0,0.1,0.1,0.1,0.2,0.2
		C47.5,3.9,47.6,4,47.7,4z"/>
	<path id="_x32__3_" class="st6" d="M49.5,1.9h0.3c0,0,0.1,0,0.1,0c0,0,0,0,0,0.1l0,1.5c0,0.1,0,0.1,0,0.2c0,0,0,0.1,0,0.2
		C50,3.8,50,3.7,50,3.7c0-0.1,0.1-0.1,0.1-0.2L51,2c0,0,0,0,0.1-0.1c0,0,0,0,0.1,0h0.2c0,0,0.1,0,0.1,0c0,0,0,0,0,0.1l0.1,1.5
		c0,0.1,0,0.1,0,0.2c0,0.1,0,0.1,0,0.2c0-0.1,0-0.1,0.1-0.2c0-0.1,0.1-0.1,0.1-0.2L52.5,2c0,0,0,0,0.1-0.1c0,0,0.1,0,0.1,0h0.3
		l-1.4,2.3h-0.3c0,0-0.1,0-0.1-0.1l-0.1-1.6c0,0,0-0.1,0-0.1c0,0,0-0.1,0-0.1c0,0,0,0.1-0.1,0.1c0,0,0,0.1-0.1,0.1l-0.9,1.5
		c0,0.1-0.1,0.1-0.1,0.1h-0.3L49.5,1.9z"/>
	<path id="_x33__3_" class="st6" d="M54.2,1.9c0.1,0,0.3,0,0.4,0.1c0.1,0,0.2,0.1,0.2,0.2c0.1,0.1,0.1,0.2,0.1,0.3
		c0,0.1,0,0.3,0,0.4c0,0.1,0,0.1-0.1,0.1c0,0,0,0-0.1,0h-1.5c0,0.1,0,0.3,0,0.4c0,0.1,0,0.2,0.1,0.3c0,0.1,0.1,0.1,0.2,0.2
		c0.1,0,0.2,0.1,0.3,0.1c0.1,0,0.2,0,0.3,0c0.1,0,0.1,0,0.2-0.1c0.1,0,0.1-0.1,0.2-0.1c0,0,0.1,0,0.1,0c0,0,0.1,0,0.1,0l0.1,0.1
		C54.5,4,54.4,4,54.3,4.1s-0.2,0.1-0.3,0.1c-0.1,0-0.2,0-0.3,0.1c-0.1,0-0.2,0-0.3,0c-0.2,0-0.3,0-0.4-0.1C53,4.1,52.9,4.1,52.9,4
		c-0.1-0.1-0.1-0.2-0.1-0.4c0-0.2,0-0.3,0.1-0.5c0-0.2,0.1-0.3,0.2-0.4c0.1-0.1,0.2-0.3,0.3-0.4c0.1-0.1,0.3-0.2,0.4-0.2
		C53.9,1.9,54,1.9,54.2,1.9z M54.1,2.2c-0.2,0-0.4,0.1-0.5,0.2c-0.1,0.1-0.3,0.3-0.3,0.5h1.2c0-0.1,0-0.2,0-0.3c0-0.1,0-0.1-0.1-0.2
		c0-0.1-0.1-0.1-0.1-0.1C54.3,2.2,54.2,2.2,54.1,2.2z"/>
	<path id="_x34__3_" class="st6" d="M55,4.2l0.6-2.3h0.2c0,0,0.1,0,0.1,0c0,0,0,0,0,0.1l-0.1,0.4c0.1-0.2,0.3-0.3,0.4-0.4
		c0.1-0.1,0.3-0.1,0.4-0.1c0.1,0,0.1,0,0.2,0c0,0,0.1,0,0.1,0.1l-0.1,0.3c0,0,0,0.1-0.1,0.1c0,0-0.1,0-0.1,0c0,0-0.1,0-0.2,0
		c-0.1,0-0.3,0-0.4,0.1c-0.1,0.1-0.2,0.2-0.3,0.4l-0.4,1.4H55z"/>
	<path id="_x35__3_" class="st6" d="M58.4,1.9c0.1,0,0.3,0,0.4,0.1c0.1,0,0.2,0.1,0.2,0.2c0.1,0.1,0.1,0.2,0.1,0.3
		c0,0.1,0,0.3,0,0.4C59,3,59,3,59,3.1c0,0,0,0-0.1,0h-1.5c0,0.1,0,0.3,0,0.4c0,0.1,0,0.2,0.1,0.3c0,0.1,0.1,0.1,0.2,0.2
		c0.1,0,0.2,0.1,0.3,0.1c0.1,0,0.2,0,0.3,0c0.1,0,0.2,0,0.2-0.1c0.1,0,0.1-0.1,0.2-0.1c0,0,0.1,0,0.1,0c0,0,0.1,0,0.1,0l0.1,0.1
		C58.7,4,58.6,4,58.5,4.1c-0.1,0-0.2,0.1-0.3,0.1c-0.1,0-0.2,0-0.3,0.1c-0.1,0-0.2,0-0.3,0c-0.2,0-0.3,0-0.4-0.1
		c-0.1-0.1-0.2-0.1-0.3-0.2c-0.1-0.1-0.1-0.2-0.1-0.4c0-0.2,0-0.3,0.1-0.5c0-0.2,0.1-0.3,0.2-0.4c0.1-0.1,0.2-0.3,0.3-0.4
		c0.1-0.1,0.3-0.2,0.4-0.2C58,1.9,58.2,1.9,58.4,1.9z M58.3,2.2c-0.2,0-0.4,0.1-0.5,0.2c-0.1,0.1-0.3,0.3-0.3,0.5h1.2
		c0-0.1,0-0.2,0-0.3c0-0.1,0-0.1-0.1-0.2c0-0.1-0.1-0.1-0.1-0.1C58.5,2.2,58.4,2.2,58.3,2.2z"/>
	<path id="_x36__3_" class="st6" d="M60.8,4.2C60.7,4.2,60.7,4.2,60.8,4.2l0-0.4c-0.1,0.1-0.3,0.2-0.4,0.3c-0.1,0.1-0.3,0.1-0.5,0.1
		c-0.1,0-0.2,0-0.3-0.1c-0.1,0-0.2-0.1-0.2-0.2c0-0.1-0.1-0.2-0.1-0.4c0-0.1,0-0.3,0.1-0.5c0-0.2,0.1-0.3,0.2-0.5
		c0.1-0.1,0.2-0.3,0.3-0.4c0.1-0.1,0.2-0.2,0.4-0.3c0.1-0.1,0.3-0.1,0.4-0.1c0.1,0,0.3,0,0.3,0.1c0.1,0,0.2,0.1,0.2,0.2l0.3-1.3h0.4
		L61,4.2H60.8z M60.1,3.9c0.1,0,0.3,0,0.4-0.1c0.1-0.1,0.2-0.1,0.3-0.3l0.3-1.1c0-0.1-0.1-0.2-0.2-0.2c-0.1,0-0.2-0.1-0.3-0.1
		c-0.2,0-0.4,0.1-0.6,0.2c-0.2,0.2-0.3,0.4-0.3,0.7c0,0.1-0.1,0.3-0.1,0.4c0,0.1,0,0.2,0,0.3c0,0.1,0.1,0.1,0.1,0.1
		C59.9,3.9,60,3.9,60.1,3.9z"/>
	<path id="_x37__3_" class="st6" d="M62.6,4.2l0.9-3.3h0.4l-0.4,1.4c0.1-0.1,0.3-0.2,0.4-0.3c0.1-0.1,0.3-0.1,0.4-0.1
		c0.1,0,0.2,0,0.3,0.1c0.1,0.1,0.2,0.1,0.2,0.2C65,2.3,65,2.4,65,2.6c0,0.1,0,0.3-0.1,0.5c0,0.2-0.1,0.3-0.2,0.5
		c-0.1,0.1-0.2,0.3-0.3,0.4c-0.1,0.1-0.2,0.2-0.4,0.2c-0.1,0.1-0.3,0.1-0.4,0.1c-0.1,0-0.3,0-0.4-0.1c-0.1-0.1-0.2-0.1-0.2-0.2
		L63,4.1c0,0.1-0.1,0.1-0.1,0.1H62.6z M64.2,2.2c-0.1,0-0.3,0-0.4,0.1c-0.1,0.1-0.2,0.2-0.3,0.3l-0.3,1.1c0,0.1,0.1,0.2,0.2,0.2
		c0.1,0,0.2,0.1,0.3,0.1c0.2,0,0.4-0.1,0.6-0.2c0.2-0.2,0.3-0.4,0.3-0.6c0-0.2,0.1-0.3,0.1-0.4c0-0.1,0-0.2,0-0.3
		c0-0.1-0.1-0.1-0.1-0.1C64.3,2.2,64.2,2.2,64.2,2.2z"/>
	<path id="_x38__3_" class="st6" d="M65.5,4.9C65.5,4.9,65.5,5,65.5,4.9C65.4,5,65.4,5,65.4,5h-0.3l0.7-0.9L65.4,2h0.3
		c0,0,0.1,0,0.1,0c0,0,0,0,0,0.1L66,3.5c0,0,0,0.1,0,0.1c0,0,0,0.1,0,0.1c0,0,0-0.1,0.1-0.1c0,0,0-0.1,0.1-0.1l1-1.5
		c0,0,0,0,0.1-0.1c0,0,0.1,0,0.1,0h0.3L65.5,4.9z"/>
	<path id="_x39__3_" class="st6" d="M67.4,4c0,0,0-0.1,0.1-0.1c0,0,0.1-0.1,0.1-0.1c0,0,0.1,0,0.1-0.1c0,0,0.1,0,0.1,0
		c0,0,0.1,0,0.1,0c0,0,0.1,0,0.1,0.1c0,0,0,0.1,0,0.1c0,0,0,0.1,0,0.1c0,0,0,0.1-0.1,0.1c0,0-0.1,0.1-0.1,0.1c0,0-0.1,0-0.1,0.1
		c0,0-0.1,0-0.1,0c0,0-0.1,0-0.1,0c0,0-0.1,0-0.1-0.1c0,0,0-0.1,0-0.1C67.4,4.1,67.4,4,67.4,4z M67.8,2.3c0,0,0-0.1,0.1-0.1
		c0,0,0.1-0.1,0.1-0.1c0,0,0.1,0,0.1-0.1c0,0,0.1,0,0.1,0c0,0,0.1,0,0.1,0c0,0,0.1,0,0.1,0.1c0,0,0,0.1,0,0.1c0,0,0,0.1,0,0.1
		c0,0,0,0.1-0.1,0.1c0,0-0.1,0.1-0.1,0.1c0,0-0.1,0-0.1,0.1c0,0-0.1,0-0.1,0c0,0-0.1,0-0.1,0c0,0-0.1,0-0.1-0.1c0,0,0-0.1,0-0.1
		C67.8,2.4,67.8,2.3,67.8,2.3z"/>
	<path class="st6" d="M72.5,15.1l-0.1,0.4h-1.6l-0.3,1.1h1.3L71.7,17h-1.3L70,18.1h1.6l-0.1,0.4h-2.1l0.9-3.4H72.5z M72.5,16.9h1.2
		l-0.1,0.4h-1.2L72.5,16.9z M74.4,18.1h1.5l-0.1,0.4h-1.9l0.9-3.4h0.5L74.4,18.1z M77.8,16c0.1,0,0.3,0,0.4,0.1
		c0.1,0,0.2,0.1,0.3,0.2c0.1,0.1,0.1,0.2,0.1,0.3c0,0.1,0,0.3,0,0.5c0,0.1,0,0.1-0.1,0.1c0,0-0.1,0-0.1,0h-1.6c0,0.2-0.1,0.3,0,0.4
		c0,0.1,0,0.2,0.1,0.3c0,0.1,0.1,0.1,0.2,0.2c0.1,0,0.2,0.1,0.3,0.1c0.1,0,0.2,0,0.3,0c0.1,0,0.2-0.1,0.2-0.1c0.1,0,0.1-0.1,0.2-0.1
		c0,0,0.1,0,0.1,0c0,0,0.1,0,0.1,0l0.1,0.2c-0.1,0.1-0.1,0.1-0.2,0.2c-0.1,0-0.2,0.1-0.3,0.1c-0.1,0-0.2,0.1-0.3,0.1
		c-0.1,0-0.2,0-0.3,0c-0.2,0-0.3,0-0.4-0.1c-0.1-0.1-0.2-0.1-0.3-0.2c-0.1-0.1-0.1-0.2-0.1-0.4c0-0.2,0-0.3,0.1-0.6
		c0-0.2,0.1-0.3,0.2-0.5c0.1-0.1,0.2-0.3,0.3-0.4c0.1-0.1,0.3-0.2,0.4-0.3C77.5,16.1,77.6,16,77.8,16z M77.7,16.4
		c-0.2,0-0.4,0.1-0.5,0.2c-0.2,0.1-0.3,0.3-0.4,0.5h1.3c0-0.1,0-0.2,0-0.3c0-0.1,0-0.2-0.1-0.2c0-0.1-0.1-0.1-0.2-0.1
		C77.9,16.4,77.8,16.4,77.7,16.4z M80.5,18.5h-0.2c0,0-0.1,0-0.1,0c0,0,0,0,0-0.1l0-0.2c-0.1,0.1-0.2,0.1-0.2,0.2
		c-0.1,0-0.1,0.1-0.2,0.1c-0.1,0-0.2,0.1-0.2,0.1c-0.1,0-0.2,0-0.3,0c-0.1,0-0.2,0-0.3,0c-0.1,0-0.1-0.1-0.2-0.1
		c0-0.1-0.1-0.1-0.1-0.2c0-0.1,0-0.2,0-0.3c0-0.1,0.1-0.2,0.2-0.3c0.1-0.1,0.2-0.2,0.3-0.2c0.1-0.1,0.3-0.1,0.5-0.2
		c0.2,0,0.4-0.1,0.7-0.1l0.1-0.2c0.1-0.2,0-0.3,0-0.4c-0.1-0.1-0.2-0.1-0.3-0.1c-0.1,0-0.2,0-0.3,0c-0.1,0-0.1,0.1-0.2,0.1
		c-0.1,0-0.1,0.1-0.2,0.1c0,0-0.1,0-0.1,0c0,0-0.1,0-0.1,0c0,0,0,0,0-0.1l0-0.1c0.2-0.1,0.3-0.2,0.5-0.3c0.2-0.1,0.4-0.1,0.5-0.1
		c0.1,0,0.2,0,0.3,0.1c0.1,0,0.2,0.1,0.2,0.2c0.1,0.1,0.1,0.2,0.1,0.3c0,0.1,0,0.2,0,0.4L80.5,18.5z M79.4,18.2c0.1,0,0.1,0,0.2,0
		c0.1,0,0.1,0,0.2-0.1c0.1,0,0.1-0.1,0.2-0.1c0.1,0,0.1-0.1,0.2-0.1l0.1-0.5c-0.2,0-0.4,0-0.5,0c-0.1,0-0.3,0.1-0.4,0.1
		c-0.1,0-0.2,0.1-0.2,0.1c-0.1,0.1-0.1,0.1-0.1,0.2c0,0.1,0,0.1,0,0.2c0,0,0,0.1,0.1,0.1c0,0,0.1,0.1,0.1,0.1
		C79.3,18.2,79.4,18.2,79.4,18.2z M81.1,18.5l0.6-2.4H82c0,0,0.1,0,0.1,0c0,0,0,0.1,0,0.1L82,16.6c0.1-0.2,0.3-0.3,0.4-0.4
		c0.1-0.1,0.3-0.2,0.5-0.2c0.1,0,0.1,0,0.2,0c0,0,0.1,0,0.1,0.1l-0.1,0.3c0,0-0.1,0.1-0.1,0.1c0,0-0.1,0-0.1,0c0,0-0.1,0-0.2,0
		c-0.1,0-0.3,0-0.4,0.1c-0.1,0.1-0.2,0.2-0.4,0.4l-0.4,1.5H81.1z M83,18.5l0.6-2.4h0.3c0.1,0,0.1,0,0.1,0.1l0,0.3
		c0.1-0.1,0.3-0.2,0.4-0.3c0.1-0.1,0.3-0.1,0.5-0.1c0.1,0,0.2,0,0.3,0.1c0.1,0,0.2,0.1,0.2,0.2c0,0.1,0.1,0.2,0.1,0.3
		c0,0.1,0,0.2,0,0.4L85,18.5h-0.4L85,17c0-0.2,0-0.3,0-0.4c-0.1-0.1-0.2-0.2-0.3-0.2c-0.1,0-0.3,0-0.4,0.1c-0.1,0.1-0.2,0.1-0.4,0.2
		l-0.5,1.8H83z M86.8,16.1l-0.6,2.4h-0.4l0.6-2.4H86.8z M87.1,15.3c0,0,0,0.1-0.1,0.1c0,0-0.1,0.1-0.1,0.1c0,0-0.1,0.1-0.1,0.1
		c0,0-0.1,0-0.1,0s-0.1,0-0.1,0c0,0-0.1,0-0.1-0.1c0,0,0-0.1,0-0.1c0,0,0-0.1,0-0.1c0,0,0-0.1,0.1-0.1c0,0,0.1-0.1,0.1-0.1
		c0,0,0.1,0,0.1-0.1c0,0,0.1,0,0.1,0c0,0,0.1,0,0.1,0c0,0,0.1,0,0.1,0.1c0,0,0,0.1,0,0.1C87.1,15.2,87.1,15.3,87.1,15.3z M86.9,18.5
		l0.7-2.4h0.3c0.1,0,0.1,0,0.1,0.1l0,0.3c0.1-0.1,0.3-0.2,0.4-0.3c0.1-0.1,0.3-0.1,0.5-0.1c0.1,0,0.2,0,0.3,0.1
		c0.1,0,0.2,0.1,0.2,0.2c0,0.1,0.1,0.2,0.1,0.3c0,0.1,0,0.2,0,0.4l-0.4,1.5h-0.4l0.4-1.5c0-0.2,0-0.3,0-0.4
		c-0.1-0.1-0.2-0.2-0.3-0.2c-0.1,0-0.2,0-0.4,0.1c-0.1,0.1-0.2,0.1-0.4,0.2l-0.5,1.8H86.9z M91,16c0.1,0,0.2,0,0.3,0
		c0.1,0,0.2,0.1,0.2,0.1h0.7l0,0.2c0,0.1-0.1,0.1-0.1,0.1l-0.3,0c0,0.1,0,0.2,0,0.3c0,0.1-0.1,0.2-0.2,0.3c-0.1,0.1-0.2,0.2-0.3,0.2
		c-0.1,0.1-0.2,0.1-0.3,0.2c-0.1,0-0.2,0.1-0.4,0.1c-0.1,0-0.2,0-0.3,0c-0.1,0-0.1,0.1-0.1,0.1c0,0-0.1,0.1-0.1,0.1
		c0,0.1,0,0.1,0,0.1c0,0,0.1,0.1,0.2,0.1c0.1,0,0.2,0,0.3,0c0.1,0,0.2,0,0.3,0c0.1,0,0.2,0,0.3,0c0.1,0,0.2,0,0.2,0.1
		c0.1,0,0.1,0.1,0.1,0.2c0,0.1,0,0.2,0,0.3c0,0.1-0.1,0.2-0.2,0.3C91.3,19,91.2,19,91,19.1c-0.1,0.1-0.3,0.1-0.4,0.2
		c-0.2,0-0.3,0.1-0.5,0.1c-0.2,0-0.3,0-0.4-0.1c-0.1,0-0.2-0.1-0.3-0.1c-0.1-0.1-0.1-0.1-0.1-0.2c0-0.1,0-0.2,0-0.2
		c0-0.1,0.1-0.2,0.2-0.3s0.2-0.2,0.4-0.2c-0.1,0-0.1-0.1-0.1-0.1c0-0.1,0-0.1,0-0.2c0,0,0-0.1,0-0.1c0,0,0.1-0.1,0.1-0.1
		c0,0,0.1-0.1,0.1-0.1c0,0,0.1-0.1,0.2-0.1c-0.1-0.1-0.2-0.2-0.2-0.3c0-0.1,0-0.2,0-0.4c0-0.1,0.1-0.2,0.2-0.3
		c0.1-0.1,0.2-0.2,0.3-0.2c0.1-0.1,0.2-0.1,0.3-0.2C90.8,16.1,90.9,16,91,16z M91.1,18.6c0-0.1,0-0.1,0-0.1c0,0-0.1-0.1-0.1-0.1
		c-0.1,0-0.1,0-0.2,0c-0.1,0-0.1,0-0.2,0c-0.1,0-0.2,0-0.3,0c-0.1,0-0.2,0-0.2,0c-0.1,0-0.2,0.1-0.3,0.2c-0.1,0.1-0.1,0.1-0.1,0.2
		c0,0.1,0,0.1,0,0.2c0,0,0,0.1,0.1,0.1c0,0,0.1,0.1,0.2,0.1c0.1,0,0.2,0,0.3,0c0.1,0,0.2,0,0.3,0c0.1,0,0.2-0.1,0.3-0.1
		c0.1,0,0.1-0.1,0.2-0.1C91,18.8,91.1,18.7,91.1,18.6z M90.7,17.3c0.1,0,0.2,0,0.2,0c0.1,0,0.1-0.1,0.2-0.1c0.1,0,0.1-0.1,0.1-0.2
		c0-0.1,0.1-0.1,0.1-0.2c0-0.1,0-0.3,0-0.4c-0.1-0.1-0.2-0.1-0.4-0.1c-0.2,0-0.3,0-0.4,0.1c-0.1,0.1-0.2,0.2-0.2,0.4
		c0,0.1,0,0.1,0,0.2c0,0.1,0,0.1,0.1,0.2c0,0,0.1,0.1,0.1,0.1C90.5,17.3,90.6,17.3,90.7,17.3z M96.2,15.1l-0.1,0.4H95l-0.8,3h-0.5
		l0.8-3h-1.1l0.1-0.4H96.2z M96.8,16c0.1,0,0.3,0,0.4,0.1c0.1,0,0.2,0.1,0.3,0.2c0.1,0.1,0.1,0.2,0.1,0.3c0,0.1,0,0.3,0,0.5
		c0,0.1,0,0.1-0.1,0.1c0,0,0,0-0.1,0h-1.6c0,0.2-0.1,0.3,0,0.4c0,0.1,0,0.2,0.1,0.3c0,0.1,0.1,0.1,0.2,0.2c0.1,0,0.2,0.1,0.3,0.1
		c0.1,0,0.2,0,0.3,0c0.1,0,0.2-0.1,0.2-0.1c0.1,0,0.1-0.1,0.2-0.1c0,0,0.1,0,0.1,0c0,0,0.1,0,0.1,0l0.1,0.2
		c-0.1,0.1-0.1,0.1-0.2,0.2c-0.1,0-0.2,0.1-0.3,0.1c-0.1,0-0.2,0.1-0.3,0.1c-0.1,0-0.2,0-0.3,0c-0.2,0-0.3,0-0.4-0.1
		c-0.1-0.1-0.2-0.1-0.3-0.2c-0.1-0.1-0.1-0.2-0.1-0.4c0-0.2,0-0.3,0.1-0.6c0-0.2,0.1-0.3,0.2-0.5c0.1-0.1,0.2-0.3,0.3-0.4
		c0.1-0.1,0.3-0.2,0.4-0.3C96.5,16.1,96.7,16,96.8,16z M96.8,16.4c-0.2,0-0.4,0.1-0.5,0.2c-0.1,0.1-0.3,0.3-0.4,0.5h1.3
		c0-0.1,0-0.2,0-0.3c0-0.1,0-0.2-0.1-0.2c0-0.1-0.1-0.1-0.2-0.1C96.9,16.4,96.9,16.4,96.8,16.4z M99.5,18.5h-0.2c0,0-0.1,0-0.1,0
		c0,0,0,0,0-0.1l0-0.2c-0.1,0.1-0.2,0.1-0.2,0.2c-0.1,0-0.1,0.1-0.2,0.1c-0.1,0-0.2,0.1-0.2,0.1c-0.1,0-0.2,0-0.3,0
		c-0.1,0-0.2,0-0.3,0c-0.1,0-0.1-0.1-0.2-0.1c0-0.1-0.1-0.1-0.1-0.2c0-0.1,0-0.2,0-0.3c0-0.1,0.1-0.2,0.2-0.3
		c0.1-0.1,0.2-0.2,0.3-0.2c0.1-0.1,0.3-0.1,0.5-0.2c0.2,0,0.4-0.1,0.7-0.1l0-0.2c0.1-0.2,0.1-0.3,0-0.4c-0.1-0.1-0.2-0.1-0.3-0.1
		c-0.1,0-0.2,0-0.3,0c-0.1,0-0.1,0.1-0.2,0.1c-0.1,0-0.1,0.1-0.2,0.1c0,0-0.1,0-0.1,0c0,0-0.1,0-0.1,0c0,0,0,0,0-0.1l0-0.1
		c0.2-0.1,0.3-0.2,0.5-0.3c0.2-0.1,0.4-0.1,0.5-0.1c0.1,0,0.2,0,0.3,0.1c0.1,0,0.2,0.1,0.2,0.2c0.1,0.1,0.1,0.2,0.1,0.3
		c0,0.1,0,0.2,0,0.4L99.5,18.5z M98.5,18.2c0.1,0,0.1,0,0.2,0c0.1,0,0.1,0,0.2-0.1c0.1,0,0.1-0.1,0.2-0.1c0.1,0,0.1-0.1,0.2-0.1
		l0.1-0.5c-0.2,0-0.4,0-0.5,0c-0.1,0-0.3,0.1-0.4,0.1c-0.1,0-0.2,0.1-0.2,0.1c-0.1,0.1-0.1,0.1-0.1,0.2c0,0.1,0,0.1,0,0.2
		c0,0,0,0.1,0.1,0.1c0,0,0.1,0.1,0.1,0.1C98.4,18.2,98.4,18.2,98.5,18.2z M100.1,18.5l0.6-2.4h0.3c0.1,0,0.1,0,0.1,0.1l0,0.2
		c0.1-0.1,0.2-0.2,0.4-0.3c0.1-0.1,0.3-0.1,0.4-0.1c0.2,0,0.3,0,0.4,0.1c0.1,0.1,0.1,0.2,0.1,0.4c0.1-0.1,0.1-0.2,0.2-0.2
		c0.1-0.1,0.1-0.1,0.2-0.2c0.1,0,0.2-0.1,0.2-0.1c0.1,0,0.2,0,0.2,0c0.1,0,0.2,0,0.3,0.1c0.1,0,0.2,0.1,0.2,0.2
		c0,0.1,0.1,0.2,0.1,0.3c0,0.1,0,0.2,0,0.4l-0.4,1.5H103l0.4-1.5c0.1-0.2,0-0.3,0-0.4c-0.1-0.1-0.2-0.1-0.3-0.1c-0.1,0-0.1,0-0.2,0
		c-0.1,0-0.1,0.1-0.2,0.1c-0.1,0-0.1,0.1-0.2,0.2c0,0.1-0.1,0.2-0.1,0.3l-0.4,1.5h-0.4L102,17c0.1-0.2,0.1-0.3,0-0.4
		c-0.1-0.1-0.2-0.1-0.3-0.1c-0.1,0-0.2,0-0.3,0.1c-0.1,0.1-0.2,0.1-0.3,0.2l-0.5,1.8H100.1z"/>
</g>
</svg>
