<svg id="Layer_1" data-name="Layer 1" xmlns="http://www.w3.org/2000/svg" viewBox="0 0 33.45 33.45"><defs><style>.cls-1{fill:#34b450;}.cls-2{fill:#fff;}</style></defs><title>Artboard 49</title><rect class="cls-1" width="33.45" height="33.45" rx="6.88" ry="6.88"/><path class="cls-2" d="M14.34,18v2.56a1.72,1.72,0,0,0,1.71,1.71h2.57V18.86H16.05v.86h1.71v1.71H16.05a.81.81,0,0,1-.85-.86V18a.81.81,0,0,1,.85-.86h2.57V16.3H16.05A1.72,1.72,0,0,0,14.34,18Z"/><polygon class="cls-2" points="19.47 17.15 20.33 17.15 20.33 21.43 19.47 21.43 19.47 22.28 22.04 22.28 22.04 21.43 21.18 21.43 21.18 17.15 22.04 17.15 22.04 16.3 19.47 16.3 19.47 17.15"/><path class="cls-2" d="M28,13.73H21.18V11.17l-5.13-6H6.65A1.71,1.71,0,0,0,5,6.9V26.55a1.71,1.71,0,0,0,1.7,1.71H19.47a1.72,1.72,0,0,0,1.71-1.71V24.84H28a2.52,2.52,0,0,0,2.56-2.56v-6A2.52,2.52,0,0,0,28,13.73Zm-12-7.26,4,4.7H16.91a.92.92,0,0,1-.86-.85Zm4.28,20.08a.87.87,0,0,1-.86.86H6.65a.86.86,0,0,1-.85-.86V6.9A.86.86,0,0,1,6.65,6H15.2v4.28A1.72,1.72,0,0,0,16.91,12h3.42v1.7H13.49a2.52,2.52,0,0,0-2.56,2.57v6a2.52,2.52,0,0,0,2.56,2.56h6.84Zm9.4-4.27A1.72,1.72,0,0,1,28,24H13.49a1.72,1.72,0,0,1-1.71-1.71v-6a1.72,1.72,0,0,1,1.71-1.71H28a1.72,1.72,0,0,1,1.71,1.71Z"/><polygon class="cls-2" points="22.89 22.28 23.74 22.28 23.74 19.72 26.31 19.72 26.31 18.86 23.74 18.86 23.74 17.15 27.16 17.15 27.16 16.3 22.89 16.3 22.89 22.28"/></svg>