<svg id="Layer_1" data-name="Layer 1" xmlns="http://www.w3.org/2000/svg" viewBox="0 0 33.45 33.45"><defs><style>.cls-1{fill:#34b450;}.cls-2{fill:#fff;}</style></defs><title>Artboard 54</title><rect class="cls-1" width="33.45" height="33.45" rx="6.88" ry="6.88"/><path class="cls-2" d="M28.83,6.51H4.62a.43.43,0,0,0-.43.43V26a.43.43,0,0,0,.43.43H28.83a.44.44,0,0,0,.44-.43v-19A.44.44,0,0,0,28.83,6.51Zm-.43,19H5.05V7.37H28.4Z"/><path class="cls-2" d="M11.1,16.08a2.41,2.41,0,1,0-2.4-2.41A2.41,2.41,0,0,0,11.1,16.08Zm0-3.95a1.55,1.55,0,1,1-1.54,1.55A1.54,1.54,0,0,1,11.1,12.13Z"/><path class="cls-2" d="M7.21,23.81a.46.46,0,0,0,.29-.11l7.05-6.21L19,21.94a.43.43,0,0,0,.61-.61l-2.08-2.08,4-4.34,4.87,4.46a.43.43,0,0,0,.58-.64L21.77,14a.47.47,0,0,0-.31-.11.49.49,0,0,0-.3.14l-4.23,4.64-2-2.05a.43.43,0,0,0-.59,0L6.93,23.05a.43.43,0,0,0,0,.61A.41.41,0,0,0,7.21,23.81Z"/></svg>