<svg id="Layer_1" data-name="Layer 1" xmlns="http://www.w3.org/2000/svg" viewBox="0 0 33.45 33.45"><defs><style>.cls-1{fill:#34b450;}.cls-2{fill:#fff;}</style></defs><title>Artboard 57</title><rect class="cls-1" width="33.45" height="33.45" rx="6.88" ry="6.88"/><path class="cls-2" d="M21.51,21a.49.49,0,0,0-.49.49V24.9a2.48,2.48,0,0,1-2.48,2.47H13.2a.5.5,0,0,0-.5.5v1l-1.18-1.18a.48.48,0,0,0-.45-.3H7.85A2.48,2.48,0,0,1,5.38,24.9V17.28A2.48,2.48,0,0,1,7.85,14.8h5a.5.5,0,1,0,0-1h-5a3.47,3.47,0,0,0-3.46,3.47V24.9a3.46,3.46,0,0,0,3.46,3.46h3l2,2a.47.47,0,0,0,.35.15.46.46,0,0,0,.19,0,.51.51,0,0,0,.3-.46V28.36h4.85A3.47,3.47,0,0,0,22,24.9V21.48A.5.5,0,0,0,21.51,21Z"/><path class="cls-2" d="M22.53,5.2H21.28a7.2,7.2,0,0,0,0,14.39h1.25a7.07,7.07,0,0,0,1.83-.24l1.85,1.85a.47.47,0,0,0,.35.15.65.65,0,0,0,.19,0,.51.51,0,0,0,.3-.46V18A7.19,7.19,0,0,0,22.53,5.2Zm3.73,12.15a.52.52,0,0,0-.2.4v1.91l-1.21-1.21a.47.47,0,0,0-.35-.15l-.14,0a6.3,6.3,0,0,1-1.83.28H21.28a6.21,6.21,0,0,1,0-12.41h1.25a6.2,6.2,0,0,1,3.73,11.16Z"/><path class="cls-2" d="M24.14,10.62a2.11,2.11,0,0,0-1.95-1.95A2.1,2.1,0,0,0,20,10.76a.5.5,0,1,0,1,0,1.1,1.1,0,0,1,1.18-1.1,1.1,1.1,0,0,1,.17,2.18.94.94,0,0,0-.74.92V14a.5.5,0,0,0,1,0V12.8A2.08,2.08,0,0,0,24.14,10.62Z"/><path class="cls-2" d="M22.4,15.56a.49.49,0,0,0-.35-.15.51.51,0,0,0-.5.5.49.49,0,0,0,.15.35.5.5,0,0,0,.35.14.48.48,0,0,0,.49-.49A.5.5,0,0,0,22.4,15.56Z"/><path class="cls-2" d="M18,20.54H7.56a.5.5,0,1,0,0,1H18a.5.5,0,0,0,0-1Z"/><path class="cls-2" d="M18.35,23.46a.53.53,0,0,0-.35-.15.5.5,0,0,0-.35.85.5.5,0,0,0,.35.14.52.52,0,0,0,.35-.14.51.51,0,0,0,0-.7Z"/><path class="cls-2" d="M16.05,23.31H7.56a.5.5,0,1,0,0,1h8.49a.5.5,0,1,0,0-1Z"/><path class="cls-2" d="M14.78,17.77H7.56a.5.5,0,1,0,0,1h7.22a.5.5,0,1,0,0-1Z"/></svg>