<svg id="Layer_1" data-name="Layer 1" xmlns="http://www.w3.org/2000/svg" viewBox="0 0 33.45 33.45"><defs><style>.cls-1{fill:#34b450;}.cls-2{fill:#fff;}</style></defs><title>Artboard 70</title><rect class="cls-1" width="33.45" height="33.45" rx="6.88" ry="6.88"/><path class="cls-2" d="M25.86,5.24a.44.44,0,0,0-.35-.1L12,6.89a.44.44,0,0,0-.38.43V22.86a4.54,4.54,0,0,0-3.49-1.58,4.17,4.17,0,0,0-4.36,3.93,4.17,4.17,0,0,0,4.36,3.93,4.17,4.17,0,0,0,4.37-3.93c0-.1,0-.2,0-.3a.24.24,0,0,0,0-.08V12.17l12.65-1.64v8a4.51,4.51,0,0,0-3.49-1.58,4.17,4.17,0,0,0-4.36,3.93,4.17,4.17,0,0,0,4.36,3.93A4.17,4.17,0,0,0,26,20.91V5.57A.48.48,0,0,0,25.86,5.24Zm-17.75,23a3.3,3.3,0,0,1-3.49-3.06,3.3,3.3,0,0,1,3.49-3.05,3.29,3.29,0,0,1,3.49,3.05A3.29,3.29,0,0,1,8.11,28.27ZM21.64,23.9a3.3,3.3,0,0,1-3.49-3,3.3,3.3,0,0,1,3.49-3.06,3.29,3.29,0,0,1,3.49,3.06A3.29,3.29,0,0,1,21.64,23.9ZM12.48,11.29V7.71L25.13,6.07V9.65Z"/></svg>