<svg id="Layer_1" data-name="Layer 1" xmlns="http://www.w3.org/2000/svg" viewBox="0 0 19.8 19.8"><defs><style>.cls-1{fill:#34b450;}.cls-2{fill:#fff;}</style></defs><title>Artboard 32</title><rect class="cls-1" width="19.8" height="19.8" rx="3.14" ry="3.14"/><path class="cls-2" d="M13.16,8.37l3.51-1.9v6.86l-3.51-1.89v1.47a1.36,1.36,0,0,1-1.32,1.33H4.54a1.36,1.36,0,0,1-1.39-1.15,1,1,0,0,1,0-.24V7A1.36,1.36,0,0,1,4.52,5.56h7.25A1.36,1.36,0,0,1,13.16,7Zm-5-2.26H4.54A.81.81,0,0,0,3.68,7v5.87a.81.81,0,0,0,.84.86h7.25a.8.8,0,0,0,.84-.86V7a1.27,1.27,0,0,0,0-.2.82.82,0,0,0-.85-.66Zm8,6.31v-5l-.05,0L13.24,8.94c-.08,0-.08.08-.08.15v1.6a.2.2,0,0,0,.11.2c.91.48,1.82,1,2.73,1.47Z"/></svg>