<?xml version="1.0" encoding="utf-8"?>
<!-- Generator: Adobe Illustrator 16.0.0, SVG Export Plug-In . SVG Version: 6.00 Build 0)  -->
<!DOCTYPE svg PUBLIC "-//W3C//DTD SVG 1.1//EN" "http://www.w3.org/Graphics/SVG/1.1/DTD/svg11.dtd">
<svg version="1.1" id="Isolation_Mode" xmlns="http://www.w3.org/2000/svg" xmlns:xlink="http://www.w3.org/1999/xlink" x="0px"
	 y="0px" width="187.5px" height="200px" viewBox="0 0 187.5 200" enable-background="new 0 0 187.5 200" xml:space="preserve">
<circle fill="#FFFFFF" stroke="#C6C6C6" stroke-width="0.5" stroke-miterlimit="10" cx="93.594" cy="101.176" r="83.675"/>
<circle fill="#F4A221" cx="93.594" cy="101.176" r="73.671"/>
<g display="none">
	<g display="inline">
		<defs>
			<circle id="SVGID_1_" cx="93.594" cy="101.176" r="73.671"/>
		</defs>
		<clipPath id="SVGID_2_">
			<use xlink:href="#SVGID_1_"  overflow="visible"/>
		</clipPath>
		<g clip-path="url(#SVGID_2_)">
			<path fill="#808080" d="M21.577,150.256h133.159v4.563c0,2.508-2.053,4.562-4.563,4.562H26.139c-2.509,0-4.562-2.053-4.562-4.562
				V150.256z"/>
			<path fill="#666666" d="M69.912,150.256H106.4v1.342c0,0.736-0.604,1.34-1.342,1.34H71.253c-0.738,0-1.341-0.604-1.341-1.34
				V150.256z"/>
			<path fill="#808080" d="M34.42,78.083h107.473c1.313,0,2.385,1.072,2.385,2.385v65.847c0,1.313-1.073,2.388-2.385,2.388H34.42
				c-1.312,0-2.385-1.074-2.385-2.388V80.469C32.035,79.158,33.108,78.083,34.42,78.083L34.42,78.083z"/>
			<rect x="37.05" y="82.874" fill="#FFFFFF" width="102.237" height="62.308"/>
			<path fill="#666666" d="M46.327,148.703h7.435v1.554h-7.435V148.703z M122.55,148.703h7.433v1.554h-7.433V148.703z"/>
			<path fill="#ECF0F1" d="M56.07,84.826c4.424,0,8.429,1.792,11.329,4.69c2.899,2.899,4.691,6.905,4.691,11.329
				c0,4.425-1.792,8.431-4.691,11.329c-2.9,2.898-6.905,4.691-11.329,4.691c-4.424,0-8.429-1.792-11.329-4.691
				c-2.898-2.898-4.691-6.904-4.691-11.329c0-4.423,1.793-8.429,4.691-11.329C47.642,86.618,51.646,84.826,56.07,84.826
				L56.07,84.826z M67.547,109.698c-1.011-0.479-2.308-0.86-3.78-1.151c-0.134,0.287-0.276,0.569-0.427,0.848
				c-1.192,2.22-2.882,4.209-5.073,5.777c3.124-0.474,5.918-1.945,8.051-4.078C66.757,110.656,67.167,110.189,67.547,109.698
				L67.547,109.698z M53.873,115.172c-2.19-1.568-3.881-3.558-5.073-5.775c-0.149-0.277-0.29-0.559-0.424-0.844
				c-1.469,0.289-2.766,0.67-3.78,1.146c0.379,0.49,0.789,0.957,1.227,1.395C47.955,113.227,50.75,114.698,53.873,115.172
				L53.873,115.172z M43.719,108.432c1.09-0.541,2.483-0.976,4.061-1.306c-0.649-1.771-1.015-3.636-1.095-5.511h-5.088
				C41.728,104.104,42.487,106.43,43.719,108.432L43.719,108.432z M41.597,100.087h5.085c0.081-2.047,0.5-4.08,1.259-5.992
				c-1.525-0.311-2.886-0.718-3.976-1.222C42.586,94.962,41.734,97.431,41.597,100.087L41.597,100.087z M44.891,91.62
				c1.016,0.436,2.276,0.786,3.689,1.054c0.081-0.162,0.165-0.322,0.251-0.48c1.187-2.181,2.86-4.133,5.02-5.672
				c-3.114,0.479-5.901,1.947-8.03,4.076C45.496,90.923,45.186,91.264,44.891,91.62L44.891,91.62z M58.29,86.521
				c2.16,1.539,3.833,3.493,5.02,5.672c0.087,0.161,0.172,0.322,0.254,0.485c1.416-0.267,2.675-0.62,3.688-1.057
				c-0.296-0.355-0.606-0.698-0.933-1.025C64.191,88.469,61.404,87,58.29,86.521L58.29,86.521z M68.178,92.876
				c-1.085,0.507-2.447,0.914-3.977,1.224c0.757,1.911,1.176,3.942,1.257,5.986h5.085C70.407,97.432,69.554,94.965,68.178,92.876
				L68.178,92.876z M70.543,101.615h-5.088c-0.08,1.873-0.445,3.734-1.092,5.504c1.581,0.329,2.975,0.768,4.06,1.311
				C69.655,106.426,70.414,104.104,70.543,101.615L70.543,101.615z M56.833,87.373v5.933c1.775-0.027,3.53-0.151,5.147-0.371
				l-0.006-0.013C60.792,90.752,59.079,88.829,56.833,87.373L56.833,87.373z M56.833,94.832v5.255h7.102
				c-0.083-1.958-0.506-3.9-1.267-5.716C60.841,94.648,58.846,94.803,56.833,94.832L56.833,94.832z M56.833,101.615v4.736
				c2.076,0.033,4.133,0.195,6.006,0.49c0.645-1.676,1.009-3.445,1.093-5.227H56.833z M56.833,107.88v6.429
				c2.26-1.48,3.982-3.435,5.165-5.636c0.069-0.129,0.138-0.26,0.204-0.392C60.524,108.042,58.69,107.909,56.833,107.88
				L56.833,107.88z M55.307,114.311v-6.429c-1.854,0.03-3.686,0.166-5.366,0.406c0.066,0.129,0.133,0.258,0.2,0.386
				C51.325,110.875,53.047,112.829,55.307,114.311L55.307,114.311z M55.307,106.354v-4.738h-7.099
				c0.084,1.783,0.449,3.557,1.095,5.232C51.178,106.552,53.236,106.389,55.307,106.354L55.307,106.354z M55.307,100.087V94.83
				c-2.009-0.031-4.005-0.187-5.833-0.465c-0.763,1.816-1.187,3.762-1.27,5.722H55.307L55.307,100.087z M55.307,93.304v-5.931
				c-2.245,1.456-3.958,3.379-5.14,5.549l-0.004,0.007C51.781,93.15,53.533,93.276,55.307,93.304L55.307,93.304z"/>
			<path fill="#20D0C2" d="M95.518,128.568H40.203v2.283c2.619,4.09,2.187,8.638,0,12.045v2.285h55.314
				C104.16,145.182,104.16,128.568,95.518,128.568L95.518,128.568z"/>
			<path fill="#FFFFFF" d="M40.203,142.896c2.232-4.015,2.401-8.029,0-12.045h55.314c2.603,0,4.736,2.715,4.736,6.023
				c0,3.307-2.134,6.021-4.736,6.021H40.203L40.203,142.896z"/>
			<path fill="#DFE1E3" d="M40.733,131.823c-0.161-0.324-0.337-0.647-0.531-0.972h55.315c5.291,0,6.773,9.289,1.438,11.756
				c3.645-2.172,2.283-9.576-1.541-10.784H40.733z"/>
			<path fill="#DFE1E3" d="M41.28,132.969h57.833c-0.107-0.158-0.221-0.311-0.34-0.455H41.093
				C41.157,132.665,41.221,132.816,41.28,132.969L41.28,132.969z M99.596,133.827c0.068,0.147,0.133,0.298,0.192,0.454H41.694
				c-0.037-0.152-0.079-0.303-0.124-0.454H99.596z M100.05,135.139c0.037,0.15,0.067,0.301,0.095,0.455H41.933
				c-0.017-0.152-0.039-0.304-0.063-0.455H100.05z M100.241,136.449c0.008,0.142,0.012,0.283,0.012,0.426v0.029H42.008
				c0-0.15-0.002-0.303-0.008-0.456L100.241,136.449L100.241,136.449z M100.201,137.762c-0.018,0.154-0.04,0.305-0.066,0.454H41.92
				c0.02-0.149,0.036-0.302,0.047-0.454H100.201z M99.924,139.074c-0.048,0.154-0.102,0.306-0.16,0.453H41.669
				c0.039-0.149,0.076-0.301,0.106-0.453H99.924z M99.357,140.386c-0.09,0.158-0.185,0.312-0.285,0.454H41.25
				c0.058-0.148,0.113-0.301,0.166-0.454H99.357z M98.342,141.699c-0.176,0.167-0.361,0.318-0.555,0.453H40.642
				c0.081-0.15,0.159-0.301,0.234-0.453H98.342z"/>
			<path fill="#4BAA64" d="M126.133,60.918H89.726v53.377h36.406c2.995,0,5.444-2.512,5.444-5.581V66.501
				C131.576,63.431,129.127,60.918,126.133,60.918L126.133,60.918z"/>
			<path fill="#FFFFFF" d="M124.616,59.087h-34.89v53.376h34.891c2.869,0,5.217-2.406,5.217-5.349V64.437
				C129.833,61.494,127.484,59.087,124.616,59.087L124.616,59.087z"/>
			<path fill="#4EB86E" d="M126.133,54.115H89.726v53.375h41.85V59.697C131.576,56.626,129.127,54.115,126.133,54.115
				L126.133,54.115z"/>
			<path fill="#429658" d="M126.959,107.49h4.616V59.697c0-2.782-2.011-5.106-4.616-5.518V107.49z"/>
			<path fill="#DFE1E3" d="M127.727,111.4h-38v0.423h37.356C127.309,111.698,127.521,111.559,127.727,111.4L127.727,111.4z
				 M89.726,108.195v0.423h39.895c0.041-0.14,0.074-0.28,0.104-0.423H89.726z M89.726,109.266v0.422h39.459
				c0.074-0.138,0.143-0.278,0.205-0.422H89.726z M89.726,110.333v0.422h38.704c0.121-0.135,0.237-0.276,0.346-0.422H89.726z"/>
			<path fill="#FFFFFF" d="M117.357,98.923h-13.653v0.829h13.653V98.923z M114.764,100.36h-8.465v0.83h8.465V100.36z"/>
			<path fill="#FED198" d="M132.738,87.556l-4.965-1.432l-7.152,1.579c-0.344,0.938,0.791,1.861,1.719,1.941l5.436-0.426
				l3.801,1.588v0.559l-5.67-1.361l-7.027,2.053c0.111,2.87,1.975,2.131,6.612,0.972l6.084,2.115v0.728l-4.616-0.987l-5.811,1.416
				c-0.067,2.877,2.074,2.006,5.811,1.591l4.616,1.053v1.165l-4.595-0.285l-4.457,1.297c-0.713,0.323-0.566,1.692,0.442,1.96
				l3.992-0.456l4.562,0.599l0.055,4.504c0.382,2.908-1.457,5.832-4.154,6.357l-4.072,0.208l-1.203,7.325h10.035l-0.699-8.913
				c1.519-3.528,4.588-8.11,2.738-12.047c0.956-1.605,0.621-3.09-0.123-3.962c0.698-1.001,1.629-2.733,0.102-4.016
				C134.083,89.999,134.859,89.108,132.738,87.556L132.738,87.556z"/>
			<path fill="#F0B97D" d="M123.355,114.295l-1.209,7.325l3.865-7.461L123.355,114.295z"/>
			<path fill="#FBB429" d="M134.109,121.555l1.882,23.627h-18.229l2.65-23.627H134.109z"/>
			<rect x="121.24" y="119.872" fill="#ECF0F1" width="12.24" height="1.748"/>
			<path fill="#ECF0F1" d="M132.645,123.087c0.476,0,0.86,0.384,0.86,0.86c0,0.476-0.385,0.859-0.86,0.859
				c-0.475,0-0.858-0.384-0.858-0.859C131.786,123.471,132.17,123.087,132.645,123.087L132.645,123.087z"/>
			<path fill="#ECF0F1" d="M132.852,125.295c0.476,0,0.859,0.387,0.859,0.861c0,0.474-0.384,0.859-0.859,0.859
				c-0.475,0-0.859-0.386-0.859-0.859C131.991,125.682,132.376,125.295,132.852,125.295L132.852,125.295z"/>
			<path fill="#FFFFFF" d="M120.915,88.489l1.306-0.343l-0.216-0.612l-1.337,0.265C120.596,87.94,120.629,88.242,120.915,88.489
				L120.915,88.489z"/>
			<path fill="#FFFFFF" d="M119.447,93.294l1.664-0.632l-0.354-1.003l-1.645,0.498C119.042,92.422,119.055,92.832,119.447,93.294
				L119.447,93.294z"/>
			<path fill="#FFFFFF" d="M121.693,97.653l1.451-0.485l-0.344-1.065l-1.418,0.325C121.324,96.688,121.342,97.141,121.693,97.653
				L121.693,97.653z"/>
			<path fill="#FFFFFF" d="M122.607,101.303l1.043-0.292l0.338,1.289l-1.239,0.298C122.749,102.598,121.98,101.751,122.607,101.303
				L122.607,101.303z"/>
			<path fill="#FFDEB0" d="M80.7,74.47l-7.699-0.034l-0.149-11.21l7.472,0.379c0.5-1.066,3.864-3.348,4.75-3.664l4.651-0.542v2.364
				l7.782-0.405l7.933,1.394c0.465-0.012,0.824,2.088-1.592,1.969l-6.31-0.314l-3.881,0.731l5.511,0.024l7.492,1.145
				c0.841,0.128,0.347,2.269-1.794,2.324l-5.546-0.568l-5.606,0.582l5.778,0.324l5.99,0.929c1.063,0.164,0.906,2.286-1.211,2.112
				l-4.905-0.402l-5.655,0.764l4.954,0.416l5.133,1.403c0.402,0.11,0.548,1.889-2.282,1.566l-3.289-0.374
				C94.025,75.745,83.88,77.583,80.7,74.47L80.7,74.47z"/>
			<path fill="#F0B97D" d="M80.7,74.47l-7.699-0.034l-0.005-0.412l7.763,0.086c3.408,3.24,13.1,1.495,17.507,1.115
				c0,0,3.055,0.52,4.436,0.406c1.578-0.226,1.251-1.362,1.095-1.443c0.401,0.11,0.548,1.889-2.284,1.566l-3.287-0.374
				C94.025,75.745,83.88,77.583,80.7,74.47L80.7,74.47z"/>
			<path fill="#0E7886" d="M72.843,62.369l0.15,13.135L23.361,75.57c2.375-5.546,5.441-10.725,9.091-15.43L72.843,62.369z"/>
			<path fill="#FFFFFF" d="M75.186,62.748l0.203,12.332l-2.387,0.012l-0.203-12.333L75.186,62.748z"/>
			<path fill="#ECF0F1" d="M70.333,72.67c0.007,0.679-0.524,1.232-1.183,1.241c-0.662,0.006-1.202-0.538-1.208-1.215
				c-0.007-0.678,0.524-1.234,1.185-1.24C69.787,71.449,70.328,71.993,70.333,72.67L70.333,72.67z"/>
			<path fill="#FFFFFF" d="M103.938,62.689l1.471,0.16c0.137,0.318,0.134,0.546,0.043,0.72l-1.674-0.096L103.938,62.689z"/>
			<path fill="#FFFFFF" d="M105.203,66.267l1.47,0.162c0.138,0.317,0.134,0.544,0.043,0.719l-1.673-0.096L105.203,66.267z"/>
			<path fill="#FFFFFF" d="M104.098,69.907l1.471,0.162c0.137,0.316,0.135,0.544,0.041,0.717l-1.674-0.095L104.098,69.907z"/>
			<path fill="#FFFFFF" d="M102.241,73.938l1.471,0.317c0.138,0.331,0.134,0.559,0.042,0.723l-1.674-0.274L102.241,73.938z"/>
			<g>
				<path fill="#1CA9E3" d="M46.664,100.943h2.169h6.508h2.169l2.27-9.244H44.394L46.664,100.943z M51.509,94.388h-2.391
					l-0.206-1.534h2.597V94.388z M52.665,92.854h2.597l-0.206,1.534h-2.391V92.854z M47.952,94.388h-1.691l-0.373-1.534h1.857
					L47.952,94.388z M46.542,95.543h1.566l0.217,1.618h-1.39L46.542,95.543z M49.273,95.543h2.236v1.618H49.49L49.273,95.543z
					 M52.665,95.543H54.9l-0.217,1.618h-2.019L52.665,95.543L52.665,95.543z M56.066,95.543h1.566l-0.393,1.618h-1.39L56.066,95.543
					z M56.221,94.388l0.207-1.534h1.857l-0.372,1.534H56.221z M47.572,99.788l-0.357-1.47h1.265l0.198,1.47H47.572z M49.646,98.317
					h1.864v1.47h-1.666L49.646,98.317z M52.665,99.788v-1.47h1.863l-0.198,1.47H52.665z M55.496,99.788l0.198-1.47h1.265
					l-0.356,1.47H55.496z"/>
				<polygon fill="#1CA9E3" points="44.394,91.699 45.583,91.699 44.767,88.372 41.212,88.372 41.212,89.527 43.861,89.527 				"/>
				<g>
					<circle fill="#1CA9E3" cx="49.657" cy="102.965" r="1.256"/>
					<circle fill="#1CA9E3" cx="55.936" cy="102.965" r="1.256"/>
				</g>
			</g>
			<g>
				<path fill="#1CA9E3" d="M46.664,121.65h2.169h6.508h2.169l2.27-9.245H44.394L46.664,121.65z M51.509,115.095h-2.391
					l-0.206-1.532h2.597V115.095z M52.665,113.563h2.597l-0.206,1.532h-2.391V113.563z M47.952,115.095h-1.691l-0.373-1.532h1.857
					L47.952,115.095z M46.542,116.251h1.566l0.217,1.617h-1.39L46.542,116.251z M49.273,116.251h2.236v1.617H49.49L49.273,116.251z
					 M52.665,116.251H54.9l-0.217,1.617h-2.019L52.665,116.251L52.665,116.251z M56.066,116.251h1.566l-0.393,1.617h-1.39
					L56.066,116.251z M56.221,115.095l0.207-1.532h1.857l-0.372,1.532H56.221z M47.572,120.494l-0.357-1.471h1.265l0.198,1.471
					H47.572z M49.646,119.023h1.864v1.471h-1.666L49.646,119.023z M52.665,120.494v-1.471h1.863l-0.198,1.471H52.665z
					 M55.496,120.494l0.198-1.471h1.265l-0.356,1.471H55.496z"/>
				<polygon fill="#1CA9E3" points="44.394,112.406 45.583,112.406 44.767,109.08 41.212,109.08 41.212,110.234 43.861,110.234 				
					"/>
				<g>
					<circle fill="#1CA9E3" cx="49.657" cy="123.671" r="1.256"/>
					<circle fill="#1CA9E3" cx="55.936" cy="123.671" r="1.256"/>
				</g>
			</g>
			<g>
				<rect x="64.628" y="92.394" fill="#979797" width="19.17" height="2.402"/>
				<rect x="64.628" y="97.797" fill="#979797" width="19.17" height="2.402"/>
			</g>
			<g>
				<rect x="64.628" y="113.1" fill="#FC7A4A" width="19.17" height="2.402"/>
				<rect x="64.628" y="118.505" fill="#FC7A4A" width="19.17" height="2.402"/>
			</g>
		</g>
	</g>
</g>
<g id="Layer_2" display="none">
	<g display="inline">
		<g>
			<defs>
				<circle id="SVGID_3_" cx="93.986" cy="100.676" r="73.671"/>
			</defs>
			<clipPath id="SVGID_4_">
				<use xlink:href="#SVGID_3_"  overflow="visible"/>
			</clipPath>
			<g clip-path="url(#SVGID_4_)">
				<path fill="#807D7D" d="M36.445,44.63h65.188c1.922,0,3.494,1.574,3.494,3.497v86.55c0,1.925-1.572,3.496-3.494,3.496H36.445
					c-1.923,0-3.495-1.573-3.495-3.496v-86.55C32.951,46.203,34.522,44.63,36.445,44.63L36.445,44.63z"/>
				<rect x="35.844" y="52.448" fill="#DFE1E3" width="66.39" height="77.907"/>
				<path fill="#C8CACC" d="M69.039,131.499c1.471,0,2.665,1.192,2.665,2.666c0,1.472-1.192,2.664-2.665,2.664
					s-2.665-1.192-2.665-2.664C66.374,132.691,67.567,131.499,69.039,131.499L69.039,131.499z"/>
				<path fill="#FFFFFF" d="M154.801,54.973c-19.057,0-37.259-8.125-57.171,0v72.573h57.171V54.973z"/>
				<path fill="#FFFFFF" d="M38.918,54.972c19.058,0,46.598-7.983,57.175,0v72.573H38.918V54.972z"/>
				<rect x="95.123" y="54.972" fill="#ECF0F1" width="1.938" height="72.573"/>
				<rect x="56.594" y="61.101" fill="#FBB429" width="22.066" height="3.031"/>
				<path fill="#DFE1E3" d="M43.804,110.35h22.011v1.438H43.804V110.35z M43.804,107.459h22.011v1.434H43.804V107.459z
					 M43.804,88.546h22.011v1.434H43.804V88.546z M43.804,103.007h9.639v1.433h-9.639V103.007z M43.804,100.114h22.011v1.434H43.804
					V100.114z M43.804,97.223h22.011v1.433H43.804V97.223z M43.804,94.33h22.011v1.434H43.804V94.33z M43.804,91.437h22.011v1.436
					H43.804V91.437z M43.804,121.918h7.576v1.434h-7.576V121.918z M43.804,119.025h22.011v1.436H43.804V119.025z M43.804,116.135
					h22.011v1.434H43.804V116.135z M43.804,113.242h22.011v1.434H43.804V113.242z"/>
				<path fill="#DFE1E3" d="M102.613,89.981h44.132v1.433h-44.132V89.981z M102.613,87.088h44.132v1.434h-44.132V87.088z
					 M102.613,68.174h44.132v1.435h-44.132V68.174z M102.613,82.636h19.322v1.434h-19.322V82.636z M102.613,79.743h44.132v1.435
					h-44.132V79.743z M102.613,76.852h44.132v1.434h-44.132V76.852z M102.613,73.959h19.322v1.434h-19.322V73.959z M102.613,71.068
					h44.132V72.5h-44.132V71.068z M102.613,101.547h15.188v1.434h-15.188V101.547z M102.613,98.656h44.132v1.434h-44.132V98.656z
					 M102.613,95.764h44.132v1.434h-44.132V95.764z M102.613,92.871h44.132v1.436h-44.132V92.871z"/>
				<path fill="#FF5B61" d="M102.143,53.191l5.971-0.514v30.995l-3.004-2.186l-2.967,2.186V53.191z"/>
				<path fill="#C8CACC" d="M60.811,47.986h16.454c0.541,0,0.982,0.442,0.982,0.984c0,0.541-0.441,0.983-0.982,0.983H60.811
					c-0.539,0-0.982-0.442-0.982-0.983C59.829,48.428,60.271,47.986,60.811,47.986L60.811,47.986z"/>
				<path fill="#FED198" d="M113.947,115.584l0.373,7.061l2.035,2.574l0.064-14.097l-0.605-13.751l-1.582-14.384
					c-0.336-3.038,5.17-3.839,6.047-0.141l3.023,12.761l0.783,11.536l1.029,0.037l-0.369-5.445
					c-0.143-2.126,1.646-3.921,3.777-3.977c2.131-0.057,3.834,1.646,3.977,3.775l1.566,5.959l-0.325-3.814
					c-0.183-2.128,1.683-3.979,3.778-3.979c3.748,0,4.498,5.057,5.739,8.113l-0.067-1.569c-0.092-2.13,2.175-3.433,4.242-2.911
					c2.227,0.563,4.031,8.532,4.172,11.833l-1.342,21.271c-0.209,3.319-1.468,4.922-2.938,6.551l-0.496,26.47
					c-3,3.737-6.296,7.221-9.86,10.419c-4.592,0.951-9.484,1.1-14.693,3.409l0.343-40.515c-4.481-1.985-15.568-13.002-15.572-13
					l0.373-17.619C107.445,111.049,114.061,111.491,113.947,115.584L113.947,115.584L113.947,115.584z"/>
				<path fill="#FFFFFF" d="M119.332,83.007l0.412,2.024l-3.797,0.117l-0.41-2.024C115.033,80.645,119.025,80.552,119.332,83.007
					L119.332,83.007z"/>
				<path fill="#FFFFFF" d="M109.266,112.867c-0.018,0.086,0.303,4.125,0.303,4.125l-1.965-0.034l0.112-4.276
					C107.716,112.682,108.843,112.176,109.266,112.867L109.266,112.867z"/>
				<path fill="#0E7886" d="M121.374,151.923l29.687-0.503l0.489,13.141c-8.118,11.703-19.019,21.324-31.75,27.907L121.374,151.923z
					"/>
				<path fill="#FFFFFF" d="M122.193,148.139l28.011-0.184l-0.028,3.48l-28.008,0.473L122.193,148.139z"/>
				<path fill="#C8CACC" d="M145.932,161.49c1.157-0.01,2.104,0.895,2.114,2.02c0.013,1.127-0.916,2.049-2.071,2.059
					c-1.156,0.01-2.101-0.894-2.113-2.021C143.85,162.423,144.777,161.502,145.932,161.49L145.932,161.49z M145.932,155.63
					c1.157-0.01,2.104,0.896,2.114,2.021c0.013,1.125-0.916,2.048-2.071,2.059c-1.156,0.012-2.101-0.893-2.113-2.018
					C143.85,156.564,144.777,155.643,145.932,155.63L145.932,155.63z"/>
				<path fill="#FED198" d="M42.729,81.92l-16.351,5.795l-5.734,11.94c0,0-1.118,2.805,0.77,8.235l7.231,20.836l-0.612,9.444h10.97
					c0,0,1.758-25.313-1.554-31.211c-3.311-5.897-3.879-13.555-3.879-13.555s10.207-2.951,10.827-7.089
					C45.018,82.177,42.729,81.92,42.729,81.92L42.729,81.92z"/>
				<path fill="#FFFFFF" d="M36.32,85.424l3.585-1.27c0.34-0.792-0.497-1.737-0.78-1.742l-3.282,1.224l0.474,1.785L36.32,85.424z"/>
				<rect x="27.13" y="138.173" fill="#FFFFFF" width="22.604" height="3.578"/>
				<path fill="#0E7886" d="M25.784,141.232h25.039l2.093,38.526c-10.795-5.668-20.091-13.806-27.132-23.666V141.232z"/>
				<path fill="#C8CACC" d="M40.735,47.314c0.915,0,1.655,0.74,1.655,1.655c0,0.915-0.74,1.656-1.655,1.656
					c-0.914,0-1.656-0.742-1.656-1.656C39.079,48.056,39.821,47.314,40.735,47.314L40.735,47.314z"/>
				<path fill="#807D7D" d="M40.735,47.536c0.792,0,1.435,0.641,1.435,1.433s-0.643,1.435-1.435,1.435
					c-0.793,0-1.434-0.643-1.434-1.435C39.301,48.176,39.942,47.536,40.735,47.536L40.735,47.536z"/>
				<path fill="#C8CACC" d="M40.735,48.545c0.235,0,0.425,0.189,0.425,0.424c0,0.235-0.189,0.426-0.425,0.426
					c-0.234,0-0.424-0.191-0.424-0.426C40.311,48.734,40.501,48.545,40.735,48.545L40.735,48.545z"/>
				<path fill="#C8CACC" d="M44.745,158.743c1.156-0.011,2.102,0.896,2.114,2.019c0.011,1.127-0.916,2.049-2.072,2.059
					c-1.156,0.012-2.102-0.893-2.113-2.019C42.662,159.677,43.589,158.754,44.745,158.743L44.745,158.743z M44.745,152.884
					c1.156-0.01,2.102,0.894,2.114,2.021c0.011,1.126-0.916,2.048-2.072,2.058c-1.156,0.012-2.102-0.893-2.113-2.02
					C42.662,153.816,43.589,152.895,44.745,152.884L44.745,152.884z"/>
				<rect x="43.804" y="66.898" fill="#ECF0F1" width="44.022" height="18.967"/>
			</g>
		</g>
	</g>
	<rect x="67.177" y="111.41" display="inline" fill="#84CE98" width="10.534" height="10.129"/>
	<rect x="67.177" y="88.071" display="inline" fill="#4EB86D" width="10.534" height="19.679"/>
	<rect x="79.542" y="88.071" display="inline" fill="#84CE98" width="10.534" height="19.679"/>
	<rect x="79.542" y="111.41" display="inline" fill="#4EB86D" width="10.534" height="10.129"/>
</g>
<g id="Layer_3">
	<g>
		<g>
			<defs>
				<circle id="SVGID_5_" cx="93.594" cy="101.176" r="73.671"/>
			</defs>
			<clipPath id="SVGID_6_">
				<use xlink:href="#SVGID_5_"  overflow="visible"/>
			</clipPath>
			<g clip-path="url(#SVGID_6_)">
				<g>
					<polygon fill="#E6BE94" points="153.037,176.763 32.035,176.763 32.035,120.433 57.071,120.433 92.535,84.967 128.004,120.433 
						153.037,120.433 					"/>
				</g>
				<g>
					<rect x="80.02" y="151.726" fill="#996459" width="25.034" height="25.037"/>
				</g>
				<g>
					<path fill="#4BB9EC" d="M104.533,143.381H80.54c-0.288,0-0.521,0.234-0.521,0.522v7.822h25.034v-7.822
						C105.054,143.615,104.821,143.381,104.533,143.381z"/>
				</g>
				<g>
					<path fill="#FF4F19" d="M111.792,68.276l3.4-5.103c0.426-0.64,0.465-1.461,0.104-2.141c-0.362-0.678-1.07-1.104-1.841-1.104
						H92.596c-1.153,0-2.087,0.934-2.087,2.087v12.518c0,1.153,0.934,2.085,2.087,2.085h20.861c0.77,0,1.477-0.425,1.84-1.102
						c0.363-0.677,0.321-1.503-0.102-2.143L111.792,68.276z"/>
				</g>
				<g>
					<g>
						<path fill="#5C546A" d="M92.596,87.052c-1.153,0-2.087-0.933-2.087-2.085V57.844c0-1.153,0.934-2.085,2.087-2.085
							c1.152,0,2.085,0.933,2.085,2.085v27.123C94.679,86.12,93.748,87.052,92.596,87.052z"/>
					</g>
				</g>
				<g>
					<path fill="#FF4F19" d="M101.041,94.599c0.321-0.78,1.084-1.286,1.928-1.286h39.64c0.711,0,1.376,0.365,1.761,0.965
						l14.604,22.948c0.408,0.643,0.434,1.458,0.068,2.126c-0.366,0.667-1.067,1.081-1.83,1.081h-31.295
						c-0.556,0-1.084-0.221-1.475-0.612l-22.947-22.948C100.896,96.274,100.717,95.378,101.041,94.599z"/>
				</g>
				<g>
					<path fill="#FF4F19" d="M84.089,94.599c-0.321-0.78-1.084-1.286-1.928-1.286H42.524c-0.714,0-1.377,0.365-1.762,0.965
						l-14.604,22.948c-0.41,0.643-0.433,1.458-0.069,2.126c0.368,0.667,1.068,1.081,1.83,1.081h31.294
						c0.552,0,1.083-0.22,1.474-0.609l22.948-22.951C84.234,96.274,84.413,95.378,84.089,94.599z"/>
				</g>
				<g>
					<g>
						<path fill="#E3001E" d="M128.031,122.489c-0.532,0-1.066-0.203-1.475-0.609L92.596,87.915L58.631,121.88
							c-0.813,0.813-2.135,0.813-2.95,0c-0.814-0.815-0.814-2.135,0-2.95l35.438-35.437c0.815-0.815,2.136-0.815,2.951,0
							l35.438,35.437c0.813,0.815,0.813,2.135,0,2.95C129.1,122.285,128.565,122.489,128.031,122.489z"/>
					</g>
				</g>
				<g>
					<circle fill="#FFEBB7" cx="92.596" cy="120.433" r="12.518"/>
				</g>
				<g>
					<path fill="#5C546A" d="M92.596,112.087c-1.153,0-2.087,0.933-2.087,2.085v4.174h-4.172c-1.153,0-2.087,0.933-2.087,2.085
						c0,1.153,0.934,2.087,2.087,2.087h6.259c1.152,0,2.085-0.934,2.085-2.087v-6.259C94.679,113.02,93.748,112.087,92.596,112.087z
						"/>
				</g>
				<g>
					<g>
						<path fill="#4BB9EC" d="M123.83,133.993c0-2.881-2.336-5.217-5.215-5.217c-2.883,0-5.216,2.336-5.216,5.217
							c0,0.358,0.036,0.706,0.105,1.043h-0.105v8.345h10.431v-8.345h-0.104C123.794,134.699,123.83,134.352,123.83,133.993z"/>
					</g>
					<g>
						<path fill="#7E5C62" d="M118.672,126.691c-4.026,0-7.302,3.275-7.302,7.302v9.388c0,1.152,0.932,2.087,2.085,2.087h10.433
							c1.152,0,2.087-0.935,2.087-2.087v-9.388C125.975,129.967,122.698,126.691,118.672,126.691z M118.672,130.863
							c1.727,0,3.129,1.403,3.129,3.13v1.043h-6.258v-1.043C115.543,132.267,116.945,130.863,118.672,130.863z M115.543,141.295
							v-2.085h6.258v2.085H115.543z"/>
					</g>
				</g>
				<g>
					<g>
						<rect x="61.3" y="153.812" fill="#4BB9EC" width="10.433" height="12.519"/>
					</g>
					<g>
						<path fill="#7E5C62" d="M71.73,151.726H61.299c-1.153,0-2.085,0.933-2.085,2.086v12.519c0,1.153,0.932,2.085,2.085,2.085
							H71.73c1.153,0,2.087-0.931,2.087-2.085v-12.519C73.817,152.658,72.886,151.726,71.73,151.726z M69.645,155.899v2.085h-6.258
							v-2.085H69.645z M63.387,164.243v-2.085h6.258v2.085H63.387z"/>
					</g>
				</g>
				<g>
					<g>
						<rect x="42.467" y="153.812" fill="#4BB9EC" width="10.433" height="12.519"/>
					</g>
					<g>
						<path fill="#7E5C62" d="M52.897,151.726H42.466c-1.153,0-2.087,0.933-2.087,2.086v12.519c0,1.153,0.934,2.085,2.087,2.085
							h10.432c1.153,0,2.085-0.931,2.085-2.085v-12.519C54.986,152.658,54.051,151.726,52.897,151.726z M50.811,155.899v2.085
							h-6.259v-2.085H50.811z M44.552,164.243v-2.085h6.261v2.085H44.552z"/>
					</g>
				</g>
				<g>
					<g>
						<rect x="132.234" y="153.812" fill="#4BB9EC" width="10.431" height="12.519"/>
					</g>
					<g>
						<path fill="#7E5C62" d="M142.663,151.726h-10.432c-1.153,0-2.087,0.933-2.087,2.086v12.519c0,1.153,0.934,2.085,2.087,2.085
							h10.432c1.153,0,2.087-0.931,2.087-2.085v-12.519C144.749,152.658,143.816,151.726,142.663,151.726z M140.578,155.899v2.085
							h-6.259v-2.085H140.578z M134.319,164.243v-2.085h6.259v2.085H134.319z"/>
					</g>
				</g>
				<g>
					<g>
						<rect x="113.399" y="153.812" fill="#4BB9EC" width="10.433" height="12.519"/>
					</g>
					<g>
						<path fill="#7E5C62" d="M123.83,151.726h-10.431c-1.152,0-2.087,0.933-2.087,2.086v12.519c0,1.153,0.935,2.085,2.087,2.085
							h10.431c1.153,0,2.087-0.931,2.087-2.085v-12.519C125.917,152.658,124.983,151.726,123.83,151.726z M121.743,155.899v2.085
							h-6.258v-2.085H121.743z M115.485,164.243v-2.085h6.258v2.085H115.485z"/>
					</g>
				</g>
				<g>
					<g>
						<path fill="#4BB9EC" d="M142.551,133.993c0-2.881-2.336-5.217-5.217-5.217c-2.882,0-5.217,2.336-5.217,5.217
							c0,0.358,0.036,0.706,0.105,1.043h-0.105v8.345h10.434v-8.345h-0.106C142.514,134.699,142.551,134.352,142.551,133.993z"/>
					</g>
					<g>
						<path fill="#7E5C62" d="M137.392,126.691c-4.026,0-7.303,3.275-7.303,7.302v9.388c0,1.152,0.933,2.087,2.085,2.087h10.435
							c1.152,0,2.085-0.935,2.085-2.087v-9.388C144.693,129.967,141.416,126.691,137.392,126.691z M137.392,130.863
							c1.726,0,3.13,1.403,3.13,3.13v1.043h-6.259v-1.043C134.261,132.267,135.666,130.863,137.392,130.863z M134.261,141.295
							v-2.085h6.258v2.085H134.261z"/>
					</g>
				</g>
				<g>
					<g>
						<path fill="#4BB9EC" d="M52.841,133.993c0-2.881-2.335-5.217-5.217-5.217c-2.88,0-5.216,2.336-5.216,5.217
							c0,0.358,0.036,0.706,0.105,1.043h-0.105v8.345h10.431v-8.345h-0.104C52.803,134.699,52.841,134.352,52.841,133.993z"/>
					</g>
					<g>
						<path fill="#7E5C62" d="M47.681,126.691c-4.026,0-7.302,3.275-7.302,7.302v9.388c0,1.152,0.934,2.087,2.087,2.087h10.431
							c1.152,0,2.086-0.935,2.086-2.087v-9.388C54.986,129.967,51.707,126.691,47.681,126.691z M47.681,130.863
							c1.727,0,3.13,1.403,3.13,3.13v1.043h-6.259v-1.043C44.552,132.267,45.957,130.863,47.681,130.863z M44.552,141.295v-2.085
							h6.261v2.085H44.552z"/>
					</g>
				</g>
				<g>
					<g>
						<path fill="#4BB9EC" d="M71.56,133.993c0-2.881-2.336-5.217-5.215-5.217c-2.883,0-5.217,2.336-5.217,5.217
							c0,0.358,0.037,0.706,0.106,1.043h-0.106v8.345H71.56v-8.345h-0.104C71.523,134.699,71.56,134.352,71.56,133.993z"/>
					</g>
					<g>
						<path fill="#7E5C62" d="M66.401,126.691c-4.026,0-7.302,3.275-7.302,7.302v9.388c0,1.152,0.932,2.087,2.085,2.087h10.433
							c1.152,0,2.086-0.935,2.086-2.087v-9.388C73.703,129.967,70.428,126.691,66.401,126.691z M66.401,130.863
							c1.727,0,3.129,1.403,3.129,3.13v1.043h-6.258v-1.043C63.272,132.267,64.675,130.863,66.401,130.863z M63.272,141.295v-2.085
							h6.258v2.085H63.272z"/>
					</g>
				</g>
				<g>
					<path fill="#7E5C62" d="M92.596,135.035c-8.053,0-14.604-6.55-14.604-14.604c0-8.054,6.552-14.604,14.604-14.604
						c8.051,0,14.604,6.553,14.604,14.604C107.199,128.483,100.646,135.035,92.596,135.035z M92.596,110.002
						c-5.753,0-10.435,4.678-10.435,10.431s4.682,10.431,10.435,10.431c5.752,0,10.431-4.678,10.431-10.431
						S98.345,110.002,92.596,110.002z"/>
				</g>
				<g>
					<path fill="#7E5C62" d="M100.939,141.295H84.248c-3.449,0-6.26,2.808-6.26,6.259v29.209c0,1.152,0.934,2.085,2.087,2.085
						c1.152,0,2.086-0.933,2.086-2.085v-22.951h8.289v22.951h4.172v-22.951h8.404v22.951c0,1.152,0.932,2.085,2.085,2.085
						s2.085-0.933,2.085-2.085v-29.209C107.199,144.103,104.389,141.295,100.939,141.295z M103.026,149.64H82.161v-2.086
						c0-1.152,0.936-2.086,2.087-2.086h16.689c1.151,0,2.086,0.934,2.086,2.086v2.086H103.026z"/>
				</g>
				<g>
					<g>
						<path fill="#5C546A" d="M157.268,178.848H27.92c-1.153,0-2.087-0.933-2.087-2.085c0-1.153,0.934-2.087,2.087-2.087h129.348
							c1.153,0,2.087,0.934,2.087,2.087C159.353,177.915,158.421,178.848,157.268,178.848z"/>
					</g>
				</g>
			</g>
		</g>
	</g>
</g>
</svg>
