<?xml version="1.0" encoding="utf-8"?>
<!-- Generator: Adobe Illustrator 16.0.0, SVG Export Plug-In . SVG Version: 6.00 Build 0)  -->
<!DOCTYPE svg PUBLIC "-//W3C//DTD SVG 1.1//EN" "http://www.w3.org/Graphics/SVG/1.1/DTD/svg11.dtd">
<svg version="1.1" id="Isolation_Mode" xmlns="http://www.w3.org/2000/svg" xmlns:xlink="http://www.w3.org/1999/xlink" x="0px"
	 y="0px" width="187.5px" height="200px" viewBox="0 0 187.5 200" enable-background="new 0 0 187.5 200" xml:space="preserve">
<circle fill="#FFFFFF" stroke="#C6C6C6" stroke-width="0.5" stroke-miterlimit="10" cx="93.594" cy="101.176" r="83.675"/>
<circle fill="#32AFE2" cx="93.594" cy="101.176" r="73.671"/>
<g display="none">
	<g display="inline">
		<defs>
			<circle id="SVGID_1_" cx="93.594" cy="101.176" r="73.671"/>
		</defs>
		<clipPath id="SVGID_2_">
			<use xlink:href="#SVGID_1_"  overflow="visible"/>
		</clipPath>
		<g clip-path="url(#SVGID_2_)">
			<path fill="#808080" d="M21.577,150.256h133.159v4.563c0,2.508-2.053,4.562-4.563,4.562H26.139c-2.509,0-4.562-2.053-4.562-4.562
				V150.256z"/>
			<path fill="#666666" d="M69.912,150.256H106.4v1.342c0,0.736-0.604,1.34-1.342,1.34H71.253c-0.738,0-1.341-0.604-1.341-1.34
				V150.256z"/>
			<path fill="#808080" d="M34.42,78.083h107.473c1.313,0,2.385,1.072,2.385,2.385v65.847c0,1.313-1.073,2.388-2.385,2.388H34.42
				c-1.312,0-2.385-1.074-2.385-2.388V80.469C32.035,79.158,33.108,78.083,34.42,78.083L34.42,78.083z"/>
			<rect x="37.05" y="82.874" fill="#FFFFFF" width="102.237" height="62.308"/>
			<path fill="#666666" d="M46.327,148.703h7.435v1.554h-7.435V148.703z M122.55,148.703h7.433v1.554h-7.433V148.703z"/>
			<path fill="#ECF0F1" d="M56.07,84.826c4.424,0,8.429,1.792,11.329,4.69c2.899,2.899,4.691,6.905,4.691,11.329
				c0,4.425-1.792,8.431-4.691,11.329c-2.9,2.898-6.905,4.691-11.329,4.691c-4.424,0-8.429-1.792-11.329-4.691
				c-2.898-2.898-4.691-6.904-4.691-11.329c0-4.423,1.793-8.429,4.691-11.329C47.642,86.618,51.646,84.826,56.07,84.826
				L56.07,84.826z M67.547,109.698c-1.011-0.479-2.308-0.86-3.78-1.151c-0.134,0.287-0.276,0.569-0.427,0.848
				c-1.192,2.22-2.882,4.209-5.073,5.777c3.124-0.474,5.918-1.945,8.051-4.078C66.757,110.656,67.167,110.189,67.547,109.698
				L67.547,109.698z M53.873,115.172c-2.19-1.568-3.881-3.558-5.073-5.775c-0.149-0.277-0.29-0.559-0.424-0.844
				c-1.469,0.289-2.766,0.67-3.78,1.146c0.379,0.49,0.789,0.957,1.227,1.395C47.955,113.227,50.75,114.698,53.873,115.172
				L53.873,115.172z M43.719,108.432c1.09-0.541,2.483-0.976,4.061-1.306c-0.649-1.771-1.015-3.636-1.095-5.511h-5.088
				C41.728,104.104,42.487,106.43,43.719,108.432L43.719,108.432z M41.597,100.087h5.085c0.081-2.047,0.5-4.08,1.259-5.992
				c-1.525-0.311-2.886-0.718-3.976-1.222C42.586,94.962,41.734,97.431,41.597,100.087L41.597,100.087z M44.891,91.62
				c1.016,0.436,2.276,0.786,3.689,1.054c0.081-0.162,0.165-0.322,0.251-0.48c1.187-2.181,2.86-4.133,5.02-5.672
				c-3.114,0.479-5.901,1.947-8.03,4.076C45.496,90.923,45.186,91.264,44.891,91.62L44.891,91.62z M58.29,86.521
				c2.16,1.539,3.833,3.493,5.02,5.672c0.087,0.161,0.172,0.322,0.254,0.485c1.416-0.267,2.675-0.62,3.688-1.057
				c-0.296-0.355-0.606-0.698-0.933-1.025C64.191,88.469,61.404,87,58.29,86.521L58.29,86.521z M68.178,92.876
				c-1.085,0.507-2.447,0.914-3.977,1.224c0.757,1.911,1.176,3.942,1.257,5.986h5.085C70.407,97.432,69.554,94.965,68.178,92.876
				L68.178,92.876z M70.543,101.615h-5.088c-0.08,1.873-0.445,3.734-1.092,5.504c1.581,0.329,2.975,0.768,4.06,1.311
				C69.655,106.426,70.414,104.104,70.543,101.615L70.543,101.615z M56.833,87.373v5.933c1.775-0.027,3.53-0.151,5.147-0.371
				l-0.006-0.013C60.792,90.752,59.079,88.829,56.833,87.373L56.833,87.373z M56.833,94.832v5.255h7.102
				c-0.083-1.958-0.506-3.9-1.267-5.716C60.841,94.648,58.846,94.803,56.833,94.832L56.833,94.832z M56.833,101.615v4.736
				c2.076,0.033,4.133,0.195,6.006,0.49c0.645-1.676,1.009-3.445,1.093-5.227H56.833z M56.833,107.88v6.429
				c2.26-1.48,3.982-3.435,5.165-5.636c0.069-0.129,0.138-0.26,0.204-0.392C60.524,108.042,58.69,107.909,56.833,107.88
				L56.833,107.88z M55.307,114.311v-6.429c-1.854,0.03-3.686,0.166-5.366,0.406c0.066,0.129,0.133,0.258,0.2,0.386
				C51.325,110.875,53.047,112.829,55.307,114.311L55.307,114.311z M55.307,106.354v-4.738h-7.099
				c0.084,1.783,0.449,3.557,1.095,5.232C51.178,106.552,53.236,106.389,55.307,106.354L55.307,106.354z M55.307,100.087V94.83
				c-2.009-0.031-4.005-0.187-5.833-0.465c-0.763,1.816-1.187,3.762-1.27,5.722H55.307L55.307,100.087z M55.307,93.304v-5.931
				c-2.245,1.456-3.958,3.379-5.14,5.549l-0.004,0.007C51.781,93.15,53.533,93.276,55.307,93.304L55.307,93.304z"/>
			<path fill="#20D0C2" d="M95.518,128.568H40.203v2.283c2.619,4.09,2.187,8.638,0,12.045v2.285h55.314
				C104.16,145.182,104.16,128.568,95.518,128.568L95.518,128.568z"/>
			<path fill="#FFFFFF" d="M40.203,142.896c2.232-4.015,2.401-8.029,0-12.045h55.314c2.603,0,4.736,2.715,4.736,6.023
				c0,3.307-2.134,6.021-4.736,6.021H40.203L40.203,142.896z"/>
			<path fill="#DFE1E3" d="M40.733,131.823c-0.161-0.324-0.337-0.647-0.531-0.972h55.315c5.291,0,6.773,9.289,1.438,11.756
				c3.645-2.172,2.283-9.576-1.541-10.784H40.733z"/>
			<path fill="#DFE1E3" d="M41.28,132.969h57.833c-0.107-0.158-0.221-0.311-0.34-0.455H41.093
				C41.157,132.665,41.221,132.816,41.28,132.969L41.28,132.969z M99.596,133.827c0.068,0.147,0.133,0.298,0.192,0.454H41.694
				c-0.037-0.152-0.079-0.303-0.124-0.454H99.596z M100.05,135.139c0.037,0.15,0.067,0.301,0.095,0.455H41.933
				c-0.017-0.152-0.039-0.304-0.063-0.455H100.05z M100.241,136.449c0.008,0.142,0.012,0.283,0.012,0.426v0.029H42.008
				c0-0.15-0.002-0.303-0.008-0.456L100.241,136.449L100.241,136.449z M100.201,137.762c-0.018,0.154-0.04,0.305-0.066,0.454H41.92
				c0.02-0.149,0.036-0.302,0.047-0.454H100.201z M99.924,139.074c-0.048,0.154-0.102,0.306-0.16,0.453H41.669
				c0.039-0.149,0.076-0.301,0.106-0.453H99.924z M99.357,140.386c-0.09,0.158-0.185,0.312-0.285,0.454H41.25
				c0.058-0.148,0.113-0.301,0.166-0.454H99.357z M98.342,141.699c-0.176,0.167-0.361,0.318-0.555,0.453H40.642
				c0.081-0.15,0.159-0.301,0.234-0.453H98.342z"/>
			<path fill="#4BAA64" d="M126.133,60.918H89.726v53.377h36.406c2.995,0,5.444-2.512,5.444-5.581V66.501
				C131.576,63.431,129.127,60.918,126.133,60.918L126.133,60.918z"/>
			<path fill="#FFFFFF" d="M124.616,59.087h-34.89v53.376h34.891c2.869,0,5.217-2.406,5.217-5.349V64.437
				C129.833,61.494,127.484,59.087,124.616,59.087L124.616,59.087z"/>
			<path fill="#4EB86E" d="M126.133,54.115H89.726v53.375h41.85V59.697C131.576,56.626,129.127,54.115,126.133,54.115
				L126.133,54.115z"/>
			<path fill="#429658" d="M126.959,107.49h4.616V59.697c0-2.782-2.011-5.106-4.616-5.518V107.49z"/>
			<path fill="#DFE1E3" d="M127.727,111.4h-38v0.423h37.356C127.309,111.698,127.521,111.559,127.727,111.4L127.727,111.4z
				 M89.726,108.195v0.423h39.895c0.041-0.14,0.074-0.28,0.104-0.423H89.726z M89.726,109.266v0.422h39.459
				c0.074-0.138,0.143-0.278,0.205-0.422H89.726z M89.726,110.333v0.422h38.704c0.121-0.135,0.237-0.276,0.346-0.422H89.726z"/>
			<path fill="#FFFFFF" d="M117.357,98.923h-13.653v0.829h13.653V98.923z M114.764,100.36h-8.465v0.83h8.465V100.36z"/>
			<path fill="#FED198" d="M132.738,87.556l-4.965-1.432l-7.152,1.579c-0.344,0.938,0.791,1.861,1.719,1.941l5.436-0.426
				l3.801,1.588v0.559l-5.67-1.361l-7.027,2.053c0.111,2.87,1.975,2.131,6.612,0.972l6.084,2.115v0.728l-4.616-0.987l-5.811,1.416
				c-0.067,2.877,2.074,2.006,5.811,1.591l4.616,1.053v1.165l-4.595-0.285l-4.457,1.297c-0.713,0.323-0.566,1.692,0.442,1.96
				l3.992-0.456l4.562,0.599l0.055,4.504c0.382,2.908-1.457,5.832-4.154,6.357l-4.072,0.208l-1.203,7.325h10.035l-0.699-8.913
				c1.519-3.528,4.588-8.11,2.738-12.047c0.956-1.605,0.621-3.09-0.123-3.962c0.698-1.001,1.629-2.733,0.102-4.016
				C134.083,89.999,134.859,89.108,132.738,87.556L132.738,87.556z"/>
			<path fill="#F0B97D" d="M123.355,114.295l-1.209,7.325l3.865-7.461L123.355,114.295z"/>
			<path fill="#FBB429" d="M134.109,121.555l1.882,23.627h-18.229l2.65-23.627H134.109z"/>
			<rect x="121.24" y="119.872" fill="#ECF0F1" width="12.24" height="1.748"/>
			<path fill="#ECF0F1" d="M132.645,123.087c0.476,0,0.86,0.384,0.86,0.86c0,0.476-0.385,0.859-0.86,0.859
				c-0.475,0-0.858-0.384-0.858-0.859C131.786,123.471,132.17,123.087,132.645,123.087L132.645,123.087z"/>
			<path fill="#ECF0F1" d="M132.852,125.295c0.476,0,0.859,0.387,0.859,0.861c0,0.474-0.384,0.859-0.859,0.859
				c-0.475,0-0.859-0.386-0.859-0.859C131.991,125.682,132.376,125.295,132.852,125.295L132.852,125.295z"/>
			<path fill="#FFFFFF" d="M120.915,88.489l1.306-0.343l-0.216-0.612l-1.337,0.265C120.596,87.94,120.629,88.242,120.915,88.489
				L120.915,88.489z"/>
			<path fill="#FFFFFF" d="M119.447,93.294l1.664-0.632l-0.354-1.003l-1.645,0.498C119.042,92.422,119.055,92.832,119.447,93.294
				L119.447,93.294z"/>
			<path fill="#FFFFFF" d="M121.693,97.653l1.451-0.485l-0.344-1.065l-1.418,0.325C121.324,96.688,121.342,97.141,121.693,97.653
				L121.693,97.653z"/>
			<path fill="#FFFFFF" d="M122.607,101.303l1.043-0.292l0.338,1.289l-1.239,0.298C122.749,102.598,121.98,101.751,122.607,101.303
				L122.607,101.303z"/>
			<path fill="#FFDEB0" d="M80.7,74.47l-7.699-0.034l-0.149-11.21l7.472,0.379c0.5-1.066,3.864-3.348,4.75-3.664l4.651-0.542v2.364
				l7.782-0.405l7.933,1.394c0.465-0.012,0.824,2.088-1.592,1.969l-6.31-0.314l-3.881,0.731l5.511,0.024l7.492,1.145
				c0.841,0.128,0.347,2.269-1.794,2.324l-5.546-0.568l-5.606,0.582l5.778,0.324l5.99,0.929c1.063,0.164,0.906,2.286-1.211,2.112
				l-4.905-0.402l-5.655,0.764l4.954,0.416l5.133,1.403c0.402,0.11,0.548,1.889-2.282,1.566l-3.289-0.374
				C94.025,75.745,83.88,77.583,80.7,74.47L80.7,74.47z"/>
			<path fill="#F0B97D" d="M80.7,74.47l-7.699-0.034l-0.005-0.412l7.763,0.086c3.408,3.24,13.1,1.495,17.507,1.115
				c0,0,3.055,0.52,4.436,0.406c1.578-0.226,1.251-1.362,1.095-1.443c0.401,0.11,0.548,1.889-2.284,1.566l-3.287-0.374
				C94.025,75.745,83.88,77.583,80.7,74.47L80.7,74.47z"/>
			<path fill="#0E7886" d="M72.843,62.369l0.15,13.135L23.361,75.57c2.375-5.546,5.441-10.725,9.091-15.43L72.843,62.369z"/>
			<path fill="#FFFFFF" d="M75.186,62.748l0.203,12.332l-2.387,0.012l-0.203-12.333L75.186,62.748z"/>
			<path fill="#ECF0F1" d="M70.333,72.67c0.007,0.679-0.524,1.232-1.183,1.241c-0.662,0.006-1.202-0.538-1.208-1.215
				c-0.007-0.678,0.524-1.234,1.185-1.24C69.787,71.449,70.328,71.993,70.333,72.67L70.333,72.67z"/>
			<path fill="#FFFFFF" d="M103.938,62.689l1.471,0.16c0.137,0.318,0.134,0.546,0.043,0.72l-1.674-0.096L103.938,62.689z"/>
			<path fill="#FFFFFF" d="M105.203,66.267l1.47,0.162c0.138,0.317,0.134,0.544,0.043,0.719l-1.673-0.096L105.203,66.267z"/>
			<path fill="#FFFFFF" d="M104.098,69.907l1.471,0.162c0.137,0.316,0.135,0.544,0.041,0.717l-1.674-0.095L104.098,69.907z"/>
			<path fill="#FFFFFF" d="M102.241,73.938l1.471,0.317c0.138,0.331,0.134,0.559,0.042,0.723l-1.674-0.274L102.241,73.938z"/>
			<g>
				<path fill="#1CA9E3" d="M46.664,100.943h2.169h6.508h2.169l2.27-9.244H44.394L46.664,100.943z M51.509,94.388h-2.391
					l-0.206-1.534h2.597V94.388z M52.665,92.854h2.597l-0.206,1.534h-2.391V92.854z M47.952,94.388h-1.691l-0.373-1.534h1.857
					L47.952,94.388z M46.542,95.543h1.566l0.217,1.618h-1.39L46.542,95.543z M49.273,95.543h2.236v1.618H49.49L49.273,95.543z
					 M52.665,95.543H54.9l-0.217,1.618h-2.019L52.665,95.543L52.665,95.543z M56.066,95.543h1.566l-0.393,1.618h-1.39L56.066,95.543
					z M56.221,94.388l0.207-1.534h1.857l-0.372,1.534H56.221z M47.572,99.788l-0.357-1.47h1.265l0.198,1.47H47.572z M49.646,98.317
					h1.864v1.47h-1.666L49.646,98.317z M52.665,99.788v-1.47h1.863l-0.198,1.47H52.665z M55.496,99.788l0.198-1.47h1.265
					l-0.356,1.47H55.496z"/>
				<polygon fill="#1CA9E3" points="44.394,91.699 45.583,91.699 44.767,88.372 41.212,88.372 41.212,89.527 43.861,89.527 				"/>
				<g>
					<circle fill="#1CA9E3" cx="49.657" cy="102.965" r="1.256"/>
					<circle fill="#1CA9E3" cx="55.936" cy="102.965" r="1.256"/>
				</g>
			</g>
			<g>
				<path fill="#1CA9E3" d="M46.664,121.65h2.169h6.508h2.169l2.27-9.245H44.394L46.664,121.65z M51.509,115.095h-2.391
					l-0.206-1.532h2.597V115.095z M52.665,113.563h2.597l-0.206,1.532h-2.391V113.563z M47.952,115.095h-1.691l-0.373-1.532h1.857
					L47.952,115.095z M46.542,116.251h1.566l0.217,1.617h-1.39L46.542,116.251z M49.273,116.251h2.236v1.617H49.49L49.273,116.251z
					 M52.665,116.251H54.9l-0.217,1.617h-2.019L52.665,116.251L52.665,116.251z M56.066,116.251h1.566l-0.393,1.617h-1.39
					L56.066,116.251z M56.221,115.095l0.207-1.532h1.857l-0.372,1.532H56.221z M47.572,120.494l-0.357-1.471h1.265l0.198,1.471
					H47.572z M49.646,119.023h1.864v1.471h-1.666L49.646,119.023z M52.665,120.494v-1.471h1.863l-0.198,1.471H52.665z
					 M55.496,120.494l0.198-1.471h1.265l-0.356,1.471H55.496z"/>
				<polygon fill="#1CA9E3" points="44.394,112.406 45.583,112.406 44.767,109.08 41.212,109.08 41.212,110.234 43.861,110.234 				
					"/>
				<g>
					<circle fill="#1CA9E3" cx="49.657" cy="123.671" r="1.256"/>
					<circle fill="#1CA9E3" cx="55.936" cy="123.671" r="1.256"/>
				</g>
			</g>
			<g>
				<rect x="64.628" y="92.394" fill="#979797" width="19.17" height="2.402"/>
				<rect x="64.628" y="97.797" fill="#979797" width="19.17" height="2.402"/>
			</g>
			<g>
				<rect x="64.628" y="113.1" fill="#FC7A4A" width="19.17" height="2.402"/>
				<rect x="64.628" y="118.505" fill="#FC7A4A" width="19.17" height="2.402"/>
			</g>
		</g>
	</g>
</g>
<g id="Layer_2" display="none">
	<g display="inline">
		<g>
			<defs>
				<circle id="SVGID_3_" cx="93.986" cy="100.676" r="73.671"/>
			</defs>
			<clipPath id="SVGID_4_">
				<use xlink:href="#SVGID_3_"  overflow="visible"/>
			</clipPath>
			<g clip-path="url(#SVGID_4_)">
				<path fill="#807D7D" d="M36.445,44.63h65.188c1.922,0,3.494,1.574,3.494,3.497v86.55c0,1.925-1.572,3.496-3.494,3.496H36.445
					c-1.923,0-3.495-1.573-3.495-3.496v-86.55C32.951,46.203,34.522,44.63,36.445,44.63L36.445,44.63z"/>
				<rect x="35.844" y="52.448" fill="#DFE1E3" width="66.39" height="77.907"/>
				<path fill="#C8CACC" d="M69.039,131.499c1.471,0,2.665,1.192,2.665,2.666c0,1.472-1.192,2.664-2.665,2.664
					s-2.665-1.192-2.665-2.664C66.374,132.691,67.567,131.499,69.039,131.499L69.039,131.499z"/>
				<path fill="#FFFFFF" d="M154.801,54.973c-19.057,0-37.259-8.125-57.171,0v72.573h57.171V54.973z"/>
				<path fill="#FFFFFF" d="M38.918,54.972c19.058,0,46.598-7.983,57.175,0v72.573H38.918V54.972z"/>
				<rect x="95.123" y="54.972" fill="#ECF0F1" width="1.938" height="72.573"/>
				<rect x="56.594" y="61.101" fill="#FBB429" width="22.066" height="3.031"/>
				<path fill="#DFE1E3" d="M43.804,110.35h22.011v1.438H43.804V110.35z M43.804,107.459h22.011v1.434H43.804V107.459z
					 M43.804,88.546h22.011v1.434H43.804V88.546z M43.804,103.007h9.639v1.433h-9.639V103.007z M43.804,100.114h22.011v1.434H43.804
					V100.114z M43.804,97.223h22.011v1.433H43.804V97.223z M43.804,94.33h22.011v1.434H43.804V94.33z M43.804,91.437h22.011v1.436
					H43.804V91.437z M43.804,121.918h7.576v1.434h-7.576V121.918z M43.804,119.025h22.011v1.436H43.804V119.025z M43.804,116.135
					h22.011v1.434H43.804V116.135z M43.804,113.242h22.011v1.434H43.804V113.242z"/>
				<path fill="#DFE1E3" d="M102.613,89.981h44.132v1.433h-44.132V89.981z M102.613,87.088h44.132v1.434h-44.132V87.088z
					 M102.613,68.174h44.132v1.435h-44.132V68.174z M102.613,82.636h19.322v1.434h-19.322V82.636z M102.613,79.743h44.132v1.435
					h-44.132V79.743z M102.613,76.852h44.132v1.434h-44.132V76.852z M102.613,73.959h19.322v1.434h-19.322V73.959z M102.613,71.068
					h44.132V72.5h-44.132V71.068z M102.613,101.547h15.188v1.434h-15.188V101.547z M102.613,98.656h44.132v1.434h-44.132V98.656z
					 M102.613,95.764h44.132v1.434h-44.132V95.764z M102.613,92.871h44.132v1.436h-44.132V92.871z"/>
				<path fill="#FF5B61" d="M102.143,53.191l5.971-0.514v30.995l-3.004-2.186l-2.967,2.186V53.191z"/>
				<path fill="#C8CACC" d="M60.811,47.986h16.454c0.541,0,0.982,0.442,0.982,0.984c0,0.541-0.441,0.983-0.982,0.983H60.811
					c-0.539,0-0.982-0.442-0.982-0.983C59.829,48.428,60.271,47.986,60.811,47.986L60.811,47.986z"/>
				<path fill="#FED198" d="M113.947,115.584l0.373,7.061l2.035,2.574l0.064-14.097l-0.605-13.751l-1.582-14.384
					c-0.336-3.038,5.17-3.839,6.047-0.141l3.023,12.761l0.783,11.536l1.029,0.037l-0.369-5.445
					c-0.143-2.126,1.646-3.921,3.777-3.977c2.131-0.057,3.834,1.646,3.977,3.775l1.566,5.959l-0.325-3.814
					c-0.183-2.128,1.683-3.979,3.778-3.979c3.748,0,4.498,5.057,5.739,8.113l-0.067-1.569c-0.092-2.13,2.175-3.433,4.242-2.911
					c2.227,0.563,4.031,8.532,4.172,11.833l-1.342,21.271c-0.209,3.319-1.468,4.922-2.938,6.551l-0.496,26.47
					c-3,3.737-6.296,7.221-9.86,10.419c-4.592,0.951-9.484,1.1-14.693,3.409l0.343-40.515c-4.481-1.985-15.568-13.002-15.572-13
					l0.373-17.619C107.445,111.049,114.061,111.491,113.947,115.584L113.947,115.584L113.947,115.584z"/>
				<path fill="#FFFFFF" d="M119.332,83.007l0.412,2.024l-3.797,0.117l-0.41-2.024C115.033,80.645,119.025,80.552,119.332,83.007
					L119.332,83.007z"/>
				<path fill="#FFFFFF" d="M109.266,112.867c-0.018,0.086,0.303,4.125,0.303,4.125l-1.965-0.034l0.112-4.276
					C107.716,112.682,108.843,112.176,109.266,112.867L109.266,112.867z"/>
				<path fill="#0E7886" d="M121.374,151.923l29.687-0.503l0.489,13.141c-8.118,11.703-19.019,21.324-31.75,27.907L121.374,151.923z
					"/>
				<path fill="#FFFFFF" d="M122.193,148.139l28.011-0.184l-0.028,3.48l-28.008,0.473L122.193,148.139z"/>
				<path fill="#C8CACC" d="M145.932,161.49c1.157-0.01,2.104,0.895,2.114,2.02c0.013,1.127-0.916,2.049-2.071,2.059
					c-1.156,0.01-2.101-0.894-2.113-2.021C143.85,162.423,144.777,161.502,145.932,161.49L145.932,161.49z M145.932,155.63
					c1.157-0.01,2.104,0.896,2.114,2.021c0.013,1.125-0.916,2.048-2.071,2.059c-1.156,0.012-2.101-0.893-2.113-2.018
					C143.85,156.564,144.777,155.643,145.932,155.63L145.932,155.63z"/>
				<path fill="#FED198" d="M42.729,81.92l-16.351,5.795l-5.734,11.94c0,0-1.118,2.805,0.77,8.235l7.231,20.836l-0.612,9.444h10.97
					c0,0,1.758-25.313-1.554-31.211c-3.311-5.897-3.879-13.555-3.879-13.555s10.207-2.951,10.827-7.089
					C45.018,82.177,42.729,81.92,42.729,81.92L42.729,81.92z"/>
				<path fill="#FFFFFF" d="M36.32,85.424l3.585-1.27c0.34-0.792-0.497-1.737-0.78-1.742l-3.282,1.224l0.474,1.785L36.32,85.424z"/>
				<rect x="27.13" y="138.173" fill="#FFFFFF" width="22.604" height="3.578"/>
				<path fill="#0E7886" d="M25.784,141.232h25.039l2.093,38.526c-10.795-5.668-20.091-13.806-27.132-23.666V141.232z"/>
				<path fill="#C8CACC" d="M40.735,47.314c0.915,0,1.655,0.74,1.655,1.655c0,0.915-0.74,1.656-1.655,1.656
					c-0.914,0-1.656-0.742-1.656-1.656C39.079,48.056,39.821,47.314,40.735,47.314L40.735,47.314z"/>
				<path fill="#807D7D" d="M40.735,47.536c0.792,0,1.435,0.641,1.435,1.433s-0.643,1.435-1.435,1.435
					c-0.793,0-1.434-0.643-1.434-1.435C39.301,48.176,39.942,47.536,40.735,47.536L40.735,47.536z"/>
				<path fill="#C8CACC" d="M40.735,48.545c0.235,0,0.425,0.189,0.425,0.424c0,0.235-0.189,0.426-0.425,0.426
					c-0.234,0-0.424-0.191-0.424-0.426C40.311,48.734,40.501,48.545,40.735,48.545L40.735,48.545z"/>
				<path fill="#C8CACC" d="M44.745,158.743c1.156-0.011,2.102,0.896,2.114,2.019c0.011,1.127-0.916,2.049-2.072,2.059
					c-1.156,0.012-2.102-0.893-2.113-2.019C42.662,159.677,43.589,158.754,44.745,158.743L44.745,158.743z M44.745,152.884
					c1.156-0.01,2.102,0.894,2.114,2.021c0.011,1.126-0.916,2.048-2.072,2.058c-1.156,0.012-2.102-0.893-2.113-2.02
					C42.662,153.816,43.589,152.895,44.745,152.884L44.745,152.884z"/>
				<rect x="43.804" y="66.898" fill="#ECF0F1" width="44.022" height="18.967"/>
			</g>
		</g>
	</g>
	<rect x="67.177" y="111.41" display="inline" fill="#84CE98" width="10.534" height="10.129"/>
	<rect x="67.177" y="88.071" display="inline" fill="#4EB86D" width="10.534" height="19.679"/>
	<rect x="79.542" y="88.071" display="inline" fill="#84CE98" width="10.534" height="19.679"/>
	<rect x="79.542" y="111.41" display="inline" fill="#4EB86D" width="10.534" height="10.129"/>
</g>
<g id="Layer_3">
	<g>
		<g>
			<defs>
				<circle id="SVGID_5_" cx="93.594" cy="101.176" r="73.671"/>
			</defs>
			<clipPath id="SVGID_6_">
				<use xlink:href="#SVGID_5_"  overflow="visible"/>
			</clipPath>
			<g clip-path="url(#SVGID_6_)">
				<g>
					<g>
						<g>
							<path fill="#D8996F" d="M78.549,77.417H68.56c-0.165,5.104-2.297,6.29-6.099,6.837c0.803,4.5,6.492,4.913,10.82,4.705
								c0.092-0.005,0.184-0.01,0.272-0.015c0.091,0.005,0.182,0.01,0.274,0.015c4.328,0.208,10.018-0.205,10.819-4.705
								C80.846,83.707,78.1,82.674,78.549,77.417z"/>
							<g>
								<g>
									<path fill="#D8996F" d="M55.736,62.004c-0.016-0.174,0.021-0.309-0.03-0.478c-6.025-2.43-5.537,7.335,0.537,6.742
										L55.736,62.004z"/>
									<path fill="#EDAC80" d="M89.519,62.004c0.016-0.174-0.021-0.309,0.029-0.478c6.025-2.43,5.539,7.335-0.537,6.742
										L89.519,62.004z"/>
								</g>
								<ellipse fill="#EDAC80" cx="72.628" cy="64.29" rx="17.774" ry="15.575"/>
								<path fill="#8A3514" d="M54.94,61.526c0,0,3.417-1.977,6.463-6.208c0,0,17.267,5.756,24.546,0c0,0,2.391,2.201,3.818,6.687
									l0.754-0.93c0,0,1.861-15.067-13.205-18.961c0,0-0.17-4.909-4.74,0.509c0,0-1.187-4.911-2.879-0.17
									C69.699,42.451,52.263,45.161,54.94,61.526z"/>
								<g>
									<g>
										<g>
											<ellipse cx="64.163" cy="64.341" rx="1.608" ry="2.251"/>
											<ellipse fill="#FFFFFF" cx="63.922" cy="63.778" rx="0.884" ry="0.725"/>
										</g>
										<g>
											<ellipse cx="81.094" cy="64.341" rx="1.608" ry="2.251"/>
											<ellipse fill="#FFFFFF" cx="80.852" cy="63.778" rx="0.885" ry="0.725"/>
										</g>
									</g>
									<g>
										<path fill="#8A3514" d="M61.539,62.599c0,0,1.017-2.626,4.318-1.186l-0.085-1.44
											C65.772,59.973,61.455,58.873,61.539,62.599z"/>
										<path fill="#8A3514" d="M83.718,62.599c0,0-1.019-2.626-4.319-1.186l0.084-1.44C79.484,59.973,83.8,58.873,83.718,62.599z
											"/>
									</g>
								</g>
								<g>
									<path fill="#BC4D3E" d="M66.149,70.903c0,0,6.94,3.215,13.542-0.34C79.691,70.563,74.445,83.008,66.149,70.903z"/>
									<path fill="#FDF9F4" d="M66.149,70.903c0,0,7.534,2.962,13.542-0.508C79.691,70.396,74.36,77.251,66.149,70.903z"/>
									<path fill="#DB5E52" d="M69.536,74.712c0,0,2.455-0.507,7.617-0.423C77.153,74.289,74.021,78.099,69.536,74.712z"/>
								</g>
								<g>
									<ellipse opacity="0.4" fill="#F99475" enable-background="new    " cx="61.861" cy="69.314" rx="2.708" ry="2.426"/>
									<ellipse opacity="0.4" fill="#F99475" enable-background="new    " cx="83.981" cy="69.314" rx="2.708" ry="2.426"/>
								</g>
								<path fill="#8A3514" d="M83.865,74.383c-0.716-1.839-2.607-5.802-10.31-5.649c-11.106,0.222-10.697,4.777-11.597,6.521
									c-4.441-2.991-6.58-6.984-6.58-6.984s3.851,17.254,18.177,16.946C87.883,84.907,89.73,65.96,89.73,65.96
									C88.485,69.85,86.263,72.533,83.865,74.383z M66.624,77.543c-1.103-1.191-1.369-2.814-0.132-4.754
									c1.352-2.126,4.482-2.359,6.755-2.359c3.069,0,8.934,0.894,7.441,5.168C78.849,80.861,69.629,80.797,66.624,77.543z"/>
								<path fill="#D88D5B" d="M74.895,62.536c0,0,1.072,7.29-4.23,6.049c0,0,3.385,1.344,4.569-0.687
									C76.563,65.622,74.895,62.536,74.895,62.536z"/>
							</g>
						</g>
						<path fill="#507B8E" d="M83.566,83.983c0,0-3.233,4.546-9.549,4.699c-6.316,0.154-10.168-4.62-10.168-4.62
							c-12.17,0.462-21.54,29.931-18.894,37.614c3.167,9.195,15.351,6.826,15.197,6.98c-0.618,0.616,32.655,0,32.655,0l3.851-31.038
							C95.428,83.907,83.566,83.983,83.566,83.983z"/>
						<path fill="#6296A8" d="M63.85,83.6c0,0,4.353,4.823,10.168,4.621c6.621-0.232,9.088-4.699,9.088-4.699l2.235,0.502
							c0,0-3.931,6.663-11.248,6.507c-8.554-0.18-12.4-6.085-12.4-6.085L63.85,83.6z"/>
						<polygon fill="#3F6977" points="90.268,108.556 57.457,108.556 58.844,97.23 88.649,97.23 						"/>
						<g>
							<path fill="#87471D" d="M60.153,128.6h32.657c0,0-1.155,37.893-6.932,56.149h-7.625c0,0,0-35.354,0-45.751h-3.005
								l-0.463,45.751h-7.163C67.624,184.749,56.61,137.148,60.153,128.6z"/>
							<g>
								<path fill="#6D2712" d="M77.104,187.64c0,0-2.602-7.475,5.372-7.475c8.409,0,6.074,7.705,6.074,7.705L77.104,187.64z"/>
								<path fill="#8A3514" d="M88.676,188.606c0.083-0.36,0.178-0.934,0.169-1.67H76.716c0.042,0.691,0.167,1.292,0.265,1.67
									H88.676z"/>
							</g>
							<g>
								<path fill="#6D2712" d="M64.254,187.217c0,0-2.599-7.476,5.374-7.476c8.407,0,6.072,7.708,6.072,7.708L64.254,187.217z"/>
								<path fill="#8A3514" d="M75.705,188.606c0.04-0.107,0.304-0.882,0.29-2.09h-12.13c0.068,1.109,0.35,1.979,0.386,2.09H75.705
									z"/>
							</g>
						</g>
					</g>
					<g>
						<g>
							<path fill="#D8986C" d="M52.758,171.558c0,0,0.309,8.471,1.387,11.707h3.543c0,0,1.077-9.244,1.156-11.169L52.758,171.558z"
								/>
							<path fill="#D8986C" d="M68.548,171.402c0,0-0.308,8.471-1.386,11.708h-3.544c0,0-1.078-9.243-1.156-11.167L68.548,171.402z"
								/>
							<g>
								<path fill="#FDFAF5" d="M53.444,181.108c0.149,0.815,0.311,1.486,0.48,1.997l0.054,0.159h3.914l0.024-0.203
									c0,0,0.092-0.791,0.224-1.953H53.444z"/>
								<path fill="#FDFAF5" d="M63.182,181.108c0.123,1.079,0.208,1.799,0.208,1.799l0.024,0.203h3.914l0.054-0.158
									c0.158-0.477,0.309-1.098,0.45-1.844H63.182z"/>
							</g>
							<path fill="#2B4559" d="M50.909,154.536c0,0,0.464,13.94,1.079,19.64h7.317l0.691-16.252l0.925-0.078l1.386,16.175
								l7.009-0.077l-0.076-19.409C69.242,154.536,53.527,154.228,50.909,154.536z"/>
							<path fill="#EDAC80" d="M47.405,133.048c0,0-2.888,15.481,3.928,18.715l1.155-15.828L47.405,133.048z"/>
							<path fill="#EDAC80" d="M72.1,133.278c0,0,2.888,15.48-3.93,18.717l-1.153-15.828L72.1,133.278z"/>
							<g>
								<path fill="#EDAC80" d="M63.469,121.731h-7.443c0.393,3.922-1.248,5.148-4.082,5.556c0.598,3.353,4.373,3.197,7.6,3.044
									c0.068-0.005,0.136-0.007,0.202-0.01c0.069,0.003,0.137,0.005,0.205,0.01c3.225,0.153,7.463,0.771,8.06-2.582
									C63.58,126.924,63.134,125.647,63.469,121.731z"/>
								<g>
									<g>
										<path fill="#EDAC80" d="M46.475,110.251c-0.011-0.133,0.016-0.232-0.023-0.358c-4.488-1.812-4.125,5.465,0.4,5.023
											L46.475,110.251z"/>
										<path fill="#EDAC80" d="M71.642,110.251c0.012-0.133-0.017-0.232,0.021-0.358c4.489-1.812,4.126,5.465-0.399,5.023
											L71.642,110.251z"/>
									</g>
									<ellipse fill="#FFC396" cx="59.059" cy="111.952" rx="13.242" ry="11.604"/>
									<g>
										<g>
											<g>
												<ellipse cx="52.751" cy="111.99" rx="1.198" ry="1.677"/>
												<ellipse fill="#FFFFFF" cx="52.571" cy="111.57" rx="0.659" ry="0.539"/>
											</g>
											<g>
												<ellipse cx="65.363" cy="111.99" rx="1.198" ry="1.677"/>
												<ellipse fill="#FFFFFF" cx="65.185" cy="111.57" rx="0.658" ry="0.539"/>
											</g>
										</g>
										<g>
											<path fill="#8A3514" d="M50.797,110.69c0,0,0.757-1.954,3.217-0.882l-0.064-1.072
												C53.949,108.736,50.733,107.917,50.797,110.69z"/>
											<path fill="#8A3514" d="M67.317,110.69c0,0-0.757-1.954-3.216-0.882l0.063-1.072
												C64.165,108.736,67.38,107.917,67.317,110.69z"/>
										</g>
									</g>
									<g>
										<path fill="#BC4D3E" d="M54.925,116.879c0,0,4.638,2.396,9.049-0.252C63.974,116.627,60.467,125.896,54.925,116.879z"/>
										<path fill="#FDF9F4" d="M54.925,116.879c0,0,5.033,2.208,9.049-0.378C63.974,116.501,60.41,121.609,54.925,116.879z"/>
										<path fill="#DB5E52" d="M57.187,119.717c0,0,1.64-0.377,5.089-0.315C62.275,119.401,60.185,122.239,57.187,119.717z"/>
									</g>
									<g>
										<ellipse opacity="0.4" fill="#F99475" enable-background="new    " cx="51.037" cy="115.693" rx="2.016" ry="1.809"/>
										<ellipse opacity="0.4" fill="#F99475" enable-background="new    " cx="67.516" cy="115.693" rx="2.019" ry="1.809"/>
									</g>
								</g>
								<path fill="#DD996B" d="M60.07,110.839c0,0,1.291,5.508-2.811,4.549c0,0,2.618,1.164,3.533-0.403
									C61.819,113.224,60.07,110.839,60.07,110.839z"/>
								<path fill="#BA4E04" d="M61.06,95.146c0.316-0.588,0.433-1.184-0.168-1.587c-0.537-0.362-1.998,0.398-2.384,0.732
									c1.282-1.104,1.474-3.172-0.657-2.371c-1.489,0.563-2.464,2.312-3.493,3.421c-13.101,2.258-8.378,14.521-8.378,14.521
									s0.926-0.461,3.698-5.39c0,0,16.328,3.081,21.797,3.081C71.475,107.553,71.932,96.581,61.06,95.146z"/>
							</g>
							<path fill="#00A99D" d="M72.706,135.935c0,0-0.346-7.162-6.584-9.356c0,0-1.027,3.74-6.298,3.751
								c-5.271-0.011-6.297-3.751-6.297-3.751c-6.122,2.427-7.046,9.356-7.046,9.356l4.898,2.328
								c-0.781,6.988-0.973,16.273-0.973,16.273h9.358h0.114h9.36c0,0-0.19-9.285-0.972-16.273L72.706,135.935z"/>
							<path fill="#29CEBE" d="M53.527,126.578c0,0-0.692,4.158,6.478,3.984c6.346-0.158,6.117-3.984,6.117-3.984l-1.734-0.346
								c0,0,0.023,2.663-4.391,2.772C55.262,129.118,54.8,126,54.8,126L53.527,126.578z"/>
							<polygon fill="#29CEBE" points="68.271,138.263 72.706,135.935 73.168,137.438 68.432,139.865 							"/>
							<polygon fill="#29CEBE" points="51.382,138.263 46.482,135.935 46.366,137.553 51.104,139.865 							"/>
							<rect x="51.373" y="172.559" fill="#375A70" width="8.162" height="2.773"/>
							<rect x="61.848" y="172.559" fill="#375A70" width="8.163" height="2.773"/>
							<g>
								<path fill="#64676D" d="M51.988,187.731c0,0-1.715-4.929,3.543-4.929c5.546,0,4.004,5.082,4.004,5.082L51.988,187.731z"/>
								<path fill="#898E96" d="M59.588,188.606c0.061-0.265,0.15-0.76,0.143-1.337h-7.999c0.039,0.652,0.189,1.177,0.239,1.337
									H59.588z"/>
							</g>
							<g>
								<path fill="#64676D" d="M61.539,187.731c0,0-1.715-4.929,3.543-4.929c5.546,0,4.006,5.082,4.006,5.082L61.539,187.731z"/>
								<path fill="#898E96" d="M69.139,188.606c0.06-0.265,0.148-0.76,0.144-1.337h-8c0.039,0.652,0.19,1.177,0.239,1.337H69.139z"
									/>
							</g>
						</g>
						<path fill="#EDAC80" d="M47.952,134.478c1.978,1.543,4.601,1.924,6.115-0.651c0.557-0.948,0.616-2.292,0.616-3.398
							c0-0.54-0.205-1.241-0.158-1.691c0.099-0.938,0.666-1.079,0.819-1.854c0.663-3.325-9.677-0.877-10.002,2.498
							C45.164,131.207,46.348,133.225,47.952,134.478z"/>
					</g>
					<g>
						<g>
							<g>
								<path fill="#B2805F" d="M116.431,184.161l-2.556-4.666l1.001-28.891l-10.668-2c0.223,0.89,2.667,18.223,4.667,30.891
									l-2,4.666H116.431z"/>
								<path fill="#B78D97" d="M117.221,188.606c0.234-1.708,0.321-6.116-5.012-6.206c-7.014-0.116-6.457,4.458-5.99,6.206H117.221
									z"/>
							</g>
							<g>
								<path fill="#B2805F" d="M119.583,184.161l2.557-4.666l-1.664-28.891l10.666-2c-0.222,0.89-1.998,18.223-4,30.891
									l2.002,4.666H119.583z"/>
								<path fill="#B78D97" d="M129.773,188.606c0.456-1.89,1.095-7.096-5.967-6.206c-5.065,0.643-5.166,4.61-4.993,6.206H129.773z
									"/>
							</g>
						</g>
						<path fill="#B78D97" d="M104.133,127.039l22.644-3.005c0,0,16.172,13.865,18.717,43.441l-56.149,1.155
							C89.345,168.631,91.888,134.201,104.133,127.039z"/>
						<path fill="#C9804F" d="M97.275,98.003c0,0,22.954,8.781,35.278-12.939c0,0-8.165-2.619-9.553-10.938
							c-1.386-8.318-10.983-23.943-26.956-17.099c-15.096,6.471-13.094,24.029-6.161,31.579
							C96.814,96.155,97.275,98.003,97.275,98.003z"/>
						<path fill="#EDAC80" d="M115.188,91.484c-1.659,0.081-0.521-1.509-3.01-5.917l-8.519,1.011c0,0,4.372,5.704,1.398,7.058
							c-2.975,1.355-10.064,2.012-11.384,6.203l33.936-4.331C127.609,95.507,125.2,90.999,115.188,91.484z"/>
						<path fill="#FFDBB3" d="M99.279,95.386c0,0,12.708,3.695,20.564-3.469l3.696,33.505l-21.612,2.619L99.279,95.386z"/>
						<g>
							<path fill="#EDAC80" d="M87.908,78.644c-0.08-0.157-0.095-0.294-0.206-0.434c-6.496-0.015-2.414,8.869,3.007,6.058
								L87.908,78.644z"/>
							<path fill="#EDAC80" d="M116.727,66.312c-0.05-0.168-0.135-0.279-0.151-0.455c4.692-4.498,7.87,4.751,2.01,6.458
								L116.727,66.312z"/>
						</g>
						<path fill="#FFC396" d="M120.667,73.423c0.729,8.372-6.196,15.83-15.752,16.662c-9.554,0.829-17.89-5.281-18.616-13.654
							C85.57,68.06,92.725,60.6,102.281,59.77C111.835,58.94,119.938,65.052,120.667,73.423z"/>
						<g>
							<g>
								<g>
									
										<ellipse transform="matrix(-0.4023 -0.9155 0.9155 -0.4023 63.152 199.3442)" cx="96.652" cy="79.056" rx="2.252" ry="1.607"/>
									
										<ellipse transform="matrix(-0.4016 -0.9158 0.9158 -0.4016 62.8278 198.3225)" fill="#FFFFFF" cx="96.209" cy="78.634" rx="0.723" ry="0.884"/>
								</g>
								<g>
									
										<ellipse transform="matrix(-0.402 -0.9156 0.9156 -0.402 89.7933 203.141)" cx="111.229" cy="72.25" rx="2.252" ry="1.609"/>
									
										<ellipse transform="matrix(-0.401 -0.9161 0.9161 -0.401 89.4147 202.1196)" fill="#FFFFFF" cx="110.788" cy="71.827" rx="0.723" ry="0.884"/>
								</g>
							</g>
							<g>
								<path fill="#C9804F" d="M92.857,77.82c0,0-0.128-2.811,3.475-2.821l-0.655-1.282C95.677,73.716,91.281,74.444,92.857,77.82z
									"/>
								<path fill="#C9804F" d="M113.159,68.902c0,0-1.984-1.994-4.429,0.651l-0.5-1.351
									C108.23,68.202,111.739,65.459,113.159,68.902z"/>
							</g>
						</g>
						<g>
							<path fill="#BC4D3E" d="M100.643,83.596c0,0,7.645,0.33,12.394-5.473C113.036,78.124,112.924,91.625,100.643,83.596z"/>
							<path fill="#FDF9F4" d="M100.643,83.596c0,0,8.093-0.132,12.328-5.63C112.971,77.967,110.653,86.337,100.643,83.596z"/>
							<path fill="#DB5E52" d="M104.993,85.828c0,0,2.308-1.404,7.113-3.294C112.106,82.534,110.432,87.249,104.993,85.828z"/>
						</g>
						<g>
							
								<ellipse transform="matrix(-0.4622 -0.8868 0.8868 -0.4622 66.8856 210.4828)" opacity="0.4" fill="#F99475" enable-background="new    " cx="97.268" cy="84.959" rx="2.427" ry="2.709"/>
							
								<ellipse transform="matrix(-0.4624 -0.8866 0.8866 -0.4624 104.6548 212.9364)" opacity="0.4" fill="#F99475" enable-background="new    " cx="116.877" cy="74.743" rx="2.426" ry="2.708"/>
						</g>
						<path fill="#DD996B" d="M105.072,73.866c0,0,3.071,4.588-1.19,5.47c0,0,3.062,0.172,3.239-1.699
							C107.318,75.541,105.072,73.866,105.072,73.866z"/>
						<path fill="#D89466" d="M86.316,78.441c0,0,9.805-2.313,13.811-11.478c0,0,7.471,2.541,17.604-1.107
							c0,0-6.129-13.605-21.226-7.366C82.955,64.091,86.316,78.441,86.316,78.441z"/>
						<path fill="#FFA7B6" d="M101.589,94.46l6.239,32.811l-9.704,1.615C98.124,128.887,81.719,97.694,101.589,94.46z"/>
						<circle fill="#FFDBB3" cx="121.46" cy="70.814" r="1.463"/>
						<path fill="#FFA7B6" d="M118.689,91.455l3.234,34.89l6.47-0.692l-2.309-32.35C126.085,93.303,122.523,92.054,118.689,91.455z"
							/>
						<path fill="#D6986E" d="M134.768,126.135c-2.104,0.532-5.286,9.046-1.763,10.39c3.033,1.158,7.186-7.132,7.172-9.254
							L134.768,126.135z"/>
						<path fill="#F291A6" d="M126.085,93.303c0,0,14.557,12.479,14.786,34.198l-7.194-1.353l-6.671-18.981L126.085,93.303z"/>
						<path fill="#F291A6" d="M95.604,97.253l8.317,31.192l-4.504,4.505C99.418,132.95,85.553,105.226,95.604,97.253z"/>
						<circle fill="#FFDBB3" cx="88.804" cy="85.218" r="1.464"/>
					</g>
					<g>
						<path fill="#EDAC80" d="M120.769,144.601c0,0-2.515,5.858-0.925,7.625c2.083,2.311,5.547,4.622,5.547,4.622l1.389-11.322
							L120.769,144.601z"/>
						<path fill="#EDAC80" d="M143.158,144.559c0,0-0.207,6.049-0.207,8.823s0.232,9.937-2.542,11.784
							c-2.772,1.848-0.735-18.979-0.735-18.979L143.158,144.559z"/>
						<g>
							<g>
								<path fill="#D8986C" d="M126.453,172.255c0,0,0.264,9.533,1.183,12.29h3.021c0,0,0.456-11.345,0.522-12.985L126.453,172.255
									z"/>
								<path fill="#D8986C" d="M139.912,171.432c0,0-0.264,10.226-1.184,12.984h-3.02c0,0-0.918-11.575-0.984-13.217
									L139.912,171.432z"/>
								<g>
									<path fill="#FDFAF5" d="M127.038,182.707c0.129,0.696,0.265,1.268,0.409,1.704l0.046,0.134h3.338l0.021-0.173
										c0,0,0.08-0.672,0.191-1.665H127.038z"/>
									<path fill="#FDFAF5" d="M135.338,182.707c0.105,0.921,0.18,1.534,0.18,1.534l0.02,0.175h3.336l0.045-0.134
										c0.137-0.409,0.266-0.936,0.384-1.573h-3.964V182.707z"/>
								</g>
								<path fill="#6D2712" d="M124.877,160.057c0,0,0.395,7.722,0.921,12.58h6.237l0.592-9.691l0.788-0.067l0.718,9.628
									l6.438-0.064l-0.065-12.387C140.504,160.057,127.11,159.795,124.877,160.057z"/>
								<g>
									<path fill="#EDAC80" d="M135.581,132.093h-6.344c0.333,3.343-1.065,4.389-3.479,4.737c0.509,2.858,3.728,2.724,6.477,2.593
										c0.059-0.003,0.114-0.005,0.174-0.008c0.057,0.003,0.116,0.005,0.173,0.008c2.75,0.131,6.364,0.659,6.873-2.199
										C135.678,136.518,135.296,135.433,135.581,132.093z"/>
									<g>
										<g>
											<path fill="#EDAC80" d="M119.293,123.006c-0.027-0.12-0.016-0.215-0.066-0.33c-4.417-1.093-3.123,5.628,1.031,4.623
												L119.293,123.006z"/>
											<path fill="#EDAC80" d="M142.717,119.7c-0.007-0.123-0.046-0.212-0.027-0.336c3.939-2.275,4.56,4.544,0.288,4.727
												L142.717,119.7z"/>
										</g>
										
											<ellipse transform="matrix(-0.1398 -0.9902 0.9902 -0.1398 27.8434 270.076)" fill="#FFC396" cx="131.229" cy="122.944" rx="10.901" ry="12.447"/>
										<g>
											<g>
												<g>
													
														<ellipse transform="matrix(-0.1406 -0.9901 0.9901 -0.1406 20.3994 265.3212)" cx="125.357" cy="123.807" rx="1.577" ry="1.127"/>
													
														<ellipse transform="matrix(-0.1405 -0.9901 0.9901 -0.1405 20.5161 264.6847)" fill="#FFFFFF" cx="125.148" cy="123.437" rx="0.507" ry="0.62"/>
												</g>
												<g>
													
														<ellipse transform="matrix(-0.14 -0.9902 0.9902 -0.14 35.3471 274.997)" cx="137.1" cy="122.148" rx="1.577" ry="1.126"/>
													
														<ellipse transform="matrix(-0.1418 -0.9899 0.9899 -0.1418 35.745 274.5434)" fill="#FFFFFF" cx="136.878" cy="121.777" rx="0.506" ry="0.619"/>
												</g>
											</g>
											<g>
												<path fill="#D89466" d="M123.374,121.465c0,0,0.447-1.92,2.879-1.245l-0.199-0.988
													C126.053,119.229,122.952,118.893,123.374,121.465z"/>
												<path fill="#D89466" d="M138.749,119.293c0,0-0.961-1.72-3.108-0.397l-0.081-1.009
													C135.56,117.887,138.445,116.702,138.749,119.293z"/>
											</g>
										</g>
										<g>
											<path fill="#BC4D3E" d="M128.027,128.063c0,0,4.634,1.619,8.392-1.423C136.419,126.641,134.371,135.726,128.027,128.063z
												"/>
											<path fill="#FDF9F4" d="M128.027,128.063c0,0,4.978,1.394,8.374-1.541C136.401,126.524,133.757,131.744,128.027,128.063z
												"/>
											<path fill="#DB5E52" d="M130.507,130.406c0,0,1.48-0.566,4.696-0.962C135.203,129.444,133.63,132.359,130.507,130.406z"
												/>
										</g>
										<g>
											
												<ellipse transform="matrix(-0.1403 -0.9901 0.9901 -0.1403 16.2537 269.5684)" opacity="0.4" fill="#F99475" enable-background="new    " cx="125.154" cy="127.728" rx="1.698" ry="1.897"/>
											
												<ellipse transform="matrix(-0.1397 -0.9902 0.9902 -0.1397 33.5207 280.902)" opacity="0.4" fill="#F99475" enable-background="new    " cx="138.788" cy="125.889" rx="1.699" ry="1.896"/>
										</g>
									</g>
									<path fill="#DD996B" d="M132.025,121.771c0,0,1.923,4.954-2.018,4.601c0,0,2.588,0.738,3.235-0.843
										C133.966,123.757,132.025,121.771,132.025,121.771z"/>
								</g>
								<path fill="#F9D153" d="M143.458,144.201c0,0-0.295-6.106-5.613-7.978c0,0-0.876,3.188-5.369,3.195
									c-4.491-0.007-5.365-3.195-5.365-3.195c-5.221,2.067-7.162,7.978-7.162,7.978l5.33,1.986
									c-0.666,5.954-0.826,13.869-0.826,13.869h7.977h0.1h7.977c0,0-0.161-7.915-0.83-13.869L143.458,144.201z"/>
								<path fill="#F7931E" d="M127.11,136.224c0,0-0.594,3.545,5.519,3.396c5.408-0.132,5.216-3.396,5.216-3.396l-1.478-0.294
									c0,0,0.02,2.272-3.743,2.361c-4.037,0.099-4.432-2.56-4.432-2.56L127.11,136.224z"/>
								<polygon fill="#F7931E" points="139.674,146.188 143.458,144.201 143.853,145.48 139.813,147.55 								"/>
								<polygon fill="#F7931E" points="125.278,146.188 119.948,144.201 119.848,145.579 125.04,147.55 								"/>
								<g>
									<path fill="#00A99D" d="M125.797,188.354c0,0-1.463-4.202,3.019-4.202c4.728,0,3.415,4.333,3.415,4.333L125.797,188.354z"
										/>
									<path fill="#29CEBE" d="M132.36,188.606c0.025-0.19,0.04-0.41,0.036-0.646h-6.82c0.017,0.241,0.049,0.461,0.084,0.646
										H132.36z"/>
								</g>
								<g>
									<path fill="#00A99D" d="M134.398,188.354c0,0-1.46-4.202,3.023-4.202c4.726,0,3.412,4.333,3.412,4.333L134.398,188.354z"/>
									<path fill="#29CEBE" d="M140.962,188.606c0.025-0.19,0.04-0.41,0.037-0.646h-6.818c0.014,0.241,0.047,0.461,0.082,0.646
										H140.962z"/>
								</g>
							</g>
							<path fill="#D89466" d="M139.994,108.961c-2.218-5.981-9.848-4.737-14.376-2.536c-2.457,1.197-4.909,2.703-6.676,4.816
								c-0.298,0.357-3.963,7.385-1.223,6.282c-3.099,1.247-0.218,7.162,1.2,4.895c0.114-1.848,1.008-4.375,2.542-5.314
								c1.905-1.163,22.033-1.862,21.731,1.996C147.804,111.096,139.812,108.979,139.994,108.961z"/>
						</g>
						<path fill="#FFC396" d="M142.486,136.743c-0.937-0.909-5.267-3.546-6.192-2.263c-1.467,2.042,0.48,7.511,3.217,6.808
							C142.024,140.645,144.417,138.615,142.486,136.743z"/>
					</g>
					<g>
						<g>
							<g>
								<path fill="#EDAC80" d="M100.206,185.729l-1.774-3.234l0.694-20.026l-7.395-1.386c0.156,0.615,1.849,12.63,3.235,21.412
									l-1.387,3.234H100.206z"/>
								<path fill="#F975AB" d="M100.939,188.606c0.471-1.379,0.982-4.417-3.664-4.417c-4.645,0-4.501,3.038-4.196,4.417H100.939z"
									/>
							</g>
							<g>
								<path fill="#EDAC80" d="M102.39,185.729l1.771-3.234l-1.156-20.026l7.395-1.386c-0.153,0.615-1.386,12.63-2.773,21.412
									l1.388,3.234H102.39z"/>
								<path fill="#F975AB" d="M109.514,188.606c0.303-1.379,0.448-4.417-4.199-4.417c-4.645,0-4.131,3.038-3.66,4.417H109.514z"/>
							</g>
							<path fill="#F29EC3" d="M89.497,160.467l0.231,5.699c0,0,12.786,0.848,22.645-1.233l-0.386-5.083L89.497,160.467z"/>
							<path fill="#FFC396" d="M96.198,128.349c0,0-5.699-3.235-7.856,12.784c0,0-3.233,14.942,1.387,17.407
								C94.35,161.006,96.198,128.349,96.198,128.349z"/>
							<path fill="#FFC396" d="M104.265,128.349c0,0,5.7-3.235,7.854,12.784c0,0,3.236,14.942-1.387,17.407
								C106.112,161.006,104.265,128.349,104.265,128.349z"/>
							<path fill="#F975AB" d="M108.676,141.212l-17.1,0.152c0,0-4.929,12.632-2.927,21.876c0,0,13.093-2.004,24.801-0.926
								C113.45,162.314,112.835,149.375,108.676,141.212z"/>
							<path fill="#6D2712" d="M86.956,110.403c0,0-13.247-1.54-6.623,10.938c5.168,9.736-1.694,6.933-1.694,6.933
								s9.088,6.468,10.476-6.164C90.499,109.479,86.956,110.403,86.956,110.403z"/>
							<path fill="#6D2712" d="M109.762,110.403c0,0,13.248-1.54,6.624,10.938c-5.17,9.736,1.694,6.468,1.694,6.468
								s-9.091,6.933-10.475-5.699C106.219,109.479,109.762,110.403,109.762,110.403z"/>
							<path fill="#F975AB" d="M85.914,109.791c-4.032,0.78-0.681,5.683-0.681,5.683l1.222,0.187
								C89.834,110.246,88.488,109.292,85.914,109.791z"/>
							<path fill="#F975AB" d="M112.43,109.912c3.856,1.411-0.231,5.72-0.231,5.72l-1.235-0.011
								C108.487,109.738,109.965,109.009,112.43,109.912z"/>
							<path fill="#F975AB" d="M105.625,128.273l-5.638,0.295l-5.638-0.295c0,0-3.082,8.316-2.618,10.628
								c0,0,5.611,0.615,8.254,0.463c2.646,0.152,8.257-0.463,8.257-0.463C108.704,136.59,105.625,128.273,105.625,128.273z"/>
							<path fill="#FDF9F4" d="M105.146,127.193l-5.051,1.379l-5.053-1.379c0,0-3.388,3.081,0.462,4.468
								c3.427,1.234,4.416-2.167,4.59-2.931c0.176,0.764,1.161,4.165,4.591,2.931C108.536,130.274,105.146,127.193,105.146,127.193z
								"/>
							<path fill="#6D2712" d="M99.355,100.391c-15.249-0.615-12.707,11.4-12.707,11.4l24.646,0.308
								C111.294,112.096,114.606,101.007,99.355,100.391z"/>
							<g>
								<g>
									<path fill="#EDAC80" d="M87.045,115.629c-0.01-0.134,0.018-0.234-0.021-0.363c-4.572-1.86-4.223,5.561,0.394,5.122
										L87.045,115.629z"/>
									<path fill="#EDAC80" d="M110.849,115.143c0.013-0.133-0.016-0.236,0.022-0.363c4.583-1.833,4.19,5.583-0.423,5.119
										L110.849,115.143z"/>
								</g>
								<path fill="#FFC396" d="M111.6,121.271c-1.87,6.1-8.869,9.384-15.832,7.253c-6.964-2.133-11.094-8.81-9.227-14.911
									c1.87-6.103,9.03-9.321,15.994-7.189C109.497,108.561,113.468,115.168,111.6,121.271z"/>
								<g>
									<g>
										<g>
											
												<ellipse transform="matrix(-0.0294 -0.9996 0.9996 -0.0294 -22.5378 214.9395)" cx="93.086" cy="118.412" rx="1.711" ry="1.222"/>
											
												<ellipse transform="matrix(-0.0302 -0.9995 0.9995 -0.0302 -22.2425 214.3838)" fill="#FFFFFF" cx="92.883" cy="117.982" rx="0.55" ry="0.671"/>
										</g>
										<g>
											
												<ellipse transform="matrix(-0.03 -0.9996 0.9996 -0.03 -9.2747 226.5364)" cx="105.286" cy="117.769" rx="1.711" ry="1.221"/>
											
												<ellipse transform="matrix(-0.0302 -0.9995 0.9995 -0.0302 -9.0333 225.908)" fill="#FFFFFF" cx="105.081" cy="117.336" rx="0.551" ry="0.671"/>
										</g>
									</g>
									<g>
										<path fill="#C9804F" d="M90.764,116.459c0,0,0.711-2.018,3.25-1.001l-0.097-1.089
											C93.917,114.366,90.615,113.63,90.764,116.459z"/>
										<path fill="#C9804F" d="M107.598,115.95c0,0-0.83-1.967-3.303-0.801l0.029-1.093
											C104.326,114.057,107.578,113.123,107.598,115.95z"/>
									</g>
								</g>
								<g>
									<path fill="#BC4D3E" d="M94.604,122.739c0,0,5.29,2.405,10.284-0.33C104.889,122.409,100.969,131.887,94.604,122.739z"/>
									<path fill="#FDF9F4" d="M94.604,122.739c0,0,5.738,2.211,10.283-0.456C104.888,122.282,100.875,127.516,94.604,122.739z"/>
									<path fill="#DB5E52" d="M97.199,125.613c0,0,1.86-0.396,5.781-0.362C102.98,125.251,100.623,128.162,97.199,125.613z"/>
								</g>
								<g>
									
										<ellipse transform="matrix(-0.0962 -0.9954 0.9954 -0.0962 -21.4936 225.9674)" opacity="0.4" fill="#F99475" enable-background="new    " cx="91.841" cy="122.742" rx="1.842" ry="2.057"/>
									
										<ellipse transform="matrix(-0.0959 -0.9954 0.9954 -0.0959 -1.5874 240.8033)" opacity="0.4" fill="#F99475" enable-background="new    " cx="108.564" cy="121.123" rx="1.843" ry="2.059"/>
								</g>
								<path fill="#DD996B" d="M100.492,117.146c0,0,0.857,4.105-2.396,3.516c0,0,2.107,0.99,2.765-0.276
									C101.594,118.966,100.492,117.146,100.492,117.146z"/>
								<path fill="#8A3514" d="M85.982,115.033c0,0,17.527-0.239,25.701,0.074c0,0,1.151-11.327-12.849-11.918
									C85.889,102.645,85.982,115.033,85.982,115.033z"/>
							</g>
							<path opacity="0.6" fill="#E2649E" enable-background="new    " d="M93.272,141.674c0,0-4.006,12.939-1.388,12.939
								c2.619,0,3.081-13.096,3.081-13.096L93.272,141.674z"/>
							<path opacity="0.6" fill="#E2649E" enable-background="new    " d="M97.122,141.982c0,0-2.002,7.7,0.31,7.548
								c2.31-0.155,1.231-7.548,1.231-7.548H97.122z"/>
							<path opacity="0.6" fill="#E2649E" enable-background="new    " d="M101.589,142.058c0,0,1.388,12.71,3.544,12.557
								c2.156-0.155-2.003-12.632-2.003-12.632L101.589,142.058z"/>
							<path opacity="0.6" fill="#E2649E" enable-background="new    " d="M105.594,141.52l1.695-0.308c0,0,3.39,8.009,2.156,8.627
								C108.215,150.454,105.594,141.52,105.594,141.52z"/>
							<path fill="#F29EC3" d="M91.731,138.901c0,0,9.242,0.461,16.512-0.232l0.433,2.543c0,0-6.404,0.752-8.549,0.772
								c-2.144,0.019-8.551-0.62-8.551-0.62L91.731,138.901z"/>
							<ellipse fill="#FDF9F4" cx="100.03" cy="132.969" rx="1.285" ry="1.128"/>
							<ellipse fill="#FDF9F4" cx="100.185" cy="136.512" rx="1.283" ry="1.128"/>
						</g>
						<path fill="#FFC396" d="M94.417,127.971c-1.87-1.506-5.559-1.231-6.875,0.686c-1.485,2.164,1.134,3.359,2.718,4.099
							c2.171,1.011,5.733-0.071,5.23-2.988C95.361,129.012,94.968,128.415,94.417,127.971z"/>
					</g>
				</g>
			</g>
		</g>
	</g>
</g>
</svg>
