<?xml version="1.0" encoding="utf-8"?>
<!-- Generator: Adobe Illustrator 16.0.0, SVG Export Plug-In . SVG Version: 6.00 Build 0)  -->
<!DOCTYPE svg PUBLIC "-//W3C//DTD SVG 1.1//EN" "http://www.w3.org/Graphics/SVG/1.1/DTD/svg11.dtd">
<svg version="1.1" id="Isolation_Mode" xmlns="http://www.w3.org/2000/svg" xmlns:xlink="http://www.w3.org/1999/xlink" x="0px"
	 y="0px" width="187.5px" height="200px" viewBox="0 0 187.5 200" enable-background="new 0 0 187.5 200" xml:space="preserve">
<circle fill="#FFFFFF" stroke="#C6C6C6" stroke-width="0.5" stroke-miterlimit="10" cx="93.594" cy="101.176" r="83.675"/>
<circle fill="#5DDDD3" cx="93.594" cy="101.176" r="73.671"/>
<g display="none">
	<g display="inline">
		<defs>
			<circle id="SVGID_1_" cx="93.594" cy="101.176" r="73.671"/>
		</defs>
		<clipPath id="SVGID_2_">
			<use xlink:href="#SVGID_1_"  overflow="visible"/>
		</clipPath>
		<g clip-path="url(#SVGID_2_)">
			<path fill="#808080" d="M21.577,150.256h133.159v4.563c0,2.508-2.053,4.562-4.563,4.562H26.139c-2.509,0-4.562-2.053-4.562-4.562
				V150.256z"/>
			<path fill="#666666" d="M69.912,150.256H106.4v1.342c0,0.736-0.604,1.34-1.342,1.34H71.253c-0.738,0-1.341-0.604-1.341-1.34
				V150.256z"/>
			<path fill="#808080" d="M34.42,78.083h107.473c1.313,0,2.385,1.072,2.385,2.385v65.847c0,1.313-1.073,2.388-2.385,2.388H34.42
				c-1.312,0-2.385-1.074-2.385-2.388V80.469C32.035,79.158,33.108,78.083,34.42,78.083L34.42,78.083z"/>
			<rect x="37.05" y="82.874" fill="#FFFFFF" width="102.237" height="62.308"/>
			<path fill="#666666" d="M46.327,148.703h7.435v1.554h-7.435V148.703z M122.55,148.703h7.433v1.554h-7.433V148.703z"/>
			<path fill="#ECF0F1" d="M56.07,84.826c4.424,0,8.429,1.792,11.329,4.69c2.899,2.899,4.691,6.905,4.691,11.329
				c0,4.425-1.792,8.431-4.691,11.329c-2.9,2.898-6.905,4.691-11.329,4.691c-4.424,0-8.429-1.792-11.329-4.691
				c-2.898-2.898-4.691-6.904-4.691-11.329c0-4.423,1.793-8.429,4.691-11.329C47.642,86.618,51.646,84.826,56.07,84.826
				L56.07,84.826z M67.547,109.698c-1.011-0.479-2.308-0.86-3.78-1.151c-0.134,0.287-0.276,0.569-0.427,0.848
				c-1.192,2.22-2.882,4.209-5.073,5.777c3.124-0.474,5.918-1.945,8.051-4.078C66.757,110.656,67.167,110.189,67.547,109.698
				L67.547,109.698z M53.873,115.172c-2.19-1.568-3.881-3.558-5.073-5.775c-0.149-0.277-0.29-0.559-0.424-0.844
				c-1.469,0.289-2.766,0.67-3.78,1.146c0.379,0.49,0.789,0.957,1.227,1.395C47.955,113.227,50.75,114.698,53.873,115.172
				L53.873,115.172z M43.719,108.432c1.09-0.541,2.483-0.976,4.061-1.306c-0.649-1.771-1.015-3.636-1.095-5.511h-5.088
				C41.728,104.104,42.487,106.43,43.719,108.432L43.719,108.432z M41.597,100.087h5.085c0.081-2.047,0.5-4.08,1.259-5.992
				c-1.525-0.311-2.886-0.718-3.976-1.222C42.586,94.962,41.734,97.431,41.597,100.087L41.597,100.087z M44.891,91.62
				c1.016,0.436,2.276,0.786,3.689,1.054c0.081-0.162,0.165-0.322,0.251-0.48c1.187-2.181,2.86-4.133,5.02-5.672
				c-3.114,0.479-5.901,1.947-8.03,4.076C45.496,90.923,45.186,91.264,44.891,91.62L44.891,91.62z M58.29,86.521
				c2.16,1.539,3.833,3.493,5.02,5.672c0.087,0.161,0.172,0.322,0.254,0.485c1.416-0.267,2.675-0.62,3.688-1.057
				c-0.296-0.355-0.606-0.698-0.933-1.025C64.191,88.469,61.404,87,58.29,86.521L58.29,86.521z M68.178,92.876
				c-1.085,0.507-2.447,0.914-3.977,1.224c0.757,1.911,1.176,3.942,1.257,5.986h5.085C70.407,97.432,69.554,94.965,68.178,92.876
				L68.178,92.876z M70.543,101.615h-5.088c-0.08,1.873-0.445,3.734-1.092,5.504c1.581,0.329,2.975,0.768,4.06,1.311
				C69.655,106.426,70.414,104.104,70.543,101.615L70.543,101.615z M56.833,87.373v5.933c1.775-0.027,3.53-0.151,5.147-0.371
				l-0.006-0.013C60.792,90.752,59.079,88.829,56.833,87.373L56.833,87.373z M56.833,94.832v5.255h7.102
				c-0.083-1.958-0.506-3.9-1.267-5.716C60.841,94.648,58.846,94.803,56.833,94.832L56.833,94.832z M56.833,101.615v4.736
				c2.076,0.033,4.133,0.195,6.006,0.49c0.645-1.676,1.009-3.445,1.093-5.227H56.833z M56.833,107.88v6.429
				c2.26-1.48,3.982-3.435,5.165-5.636c0.069-0.129,0.138-0.26,0.204-0.392C60.524,108.042,58.69,107.909,56.833,107.88
				L56.833,107.88z M55.307,114.311v-6.429c-1.854,0.03-3.686,0.166-5.366,0.406c0.066,0.129,0.133,0.258,0.2,0.386
				C51.325,110.875,53.047,112.829,55.307,114.311L55.307,114.311z M55.307,106.354v-4.738h-7.099
				c0.084,1.783,0.449,3.557,1.095,5.232C51.178,106.552,53.236,106.389,55.307,106.354L55.307,106.354z M55.307,100.087V94.83
				c-2.009-0.031-4.005-0.187-5.833-0.465c-0.763,1.816-1.187,3.762-1.27,5.722H55.307L55.307,100.087z M55.307,93.304v-5.931
				c-2.245,1.456-3.958,3.379-5.14,5.549l-0.004,0.007C51.781,93.15,53.533,93.276,55.307,93.304L55.307,93.304z"/>
			<path fill="#20D0C2" d="M95.518,128.568H40.203v2.283c2.619,4.09,2.187,8.638,0,12.045v2.285h55.314
				C104.16,145.182,104.16,128.568,95.518,128.568L95.518,128.568z"/>
			<path fill="#FFFFFF" d="M40.203,142.896c2.232-4.015,2.401-8.029,0-12.045h55.314c2.603,0,4.736,2.715,4.736,6.023
				c0,3.307-2.134,6.021-4.736,6.021H40.203L40.203,142.896z"/>
			<path fill="#DFE1E3" d="M40.733,131.823c-0.161-0.324-0.337-0.647-0.531-0.972h55.315c5.291,0,6.773,9.289,1.438,11.756
				c3.645-2.172,2.283-9.576-1.541-10.784H40.733z"/>
			<path fill="#DFE1E3" d="M41.28,132.969h57.833c-0.107-0.158-0.221-0.311-0.34-0.455H41.093
				C41.157,132.665,41.221,132.816,41.28,132.969L41.28,132.969z M99.596,133.827c0.068,0.147,0.133,0.298,0.192,0.454H41.694
				c-0.037-0.152-0.079-0.303-0.124-0.454H99.596z M100.05,135.139c0.037,0.15,0.067,0.301,0.095,0.455H41.933
				c-0.017-0.152-0.039-0.304-0.063-0.455H100.05z M100.241,136.449c0.008,0.142,0.012,0.283,0.012,0.426v0.029H42.008
				c0-0.15-0.002-0.303-0.008-0.456L100.241,136.449L100.241,136.449z M100.201,137.762c-0.018,0.154-0.04,0.305-0.066,0.454H41.92
				c0.02-0.149,0.036-0.302,0.047-0.454H100.201z M99.924,139.074c-0.048,0.154-0.102,0.306-0.16,0.453H41.669
				c0.039-0.149,0.076-0.301,0.106-0.453H99.924z M99.357,140.386c-0.09,0.158-0.185,0.312-0.285,0.454H41.25
				c0.058-0.148,0.113-0.301,0.166-0.454H99.357z M98.342,141.699c-0.176,0.167-0.361,0.318-0.555,0.453H40.642
				c0.081-0.15,0.159-0.301,0.234-0.453H98.342z"/>
			<path fill="#4BAA64" d="M126.133,60.918H89.726v53.377h36.406c2.995,0,5.444-2.512,5.444-5.581V66.501
				C131.576,63.431,129.127,60.918,126.133,60.918L126.133,60.918z"/>
			<path fill="#FFFFFF" d="M124.616,59.087h-34.89v53.376h34.891c2.869,0,5.217-2.406,5.217-5.349V64.437
				C129.833,61.494,127.484,59.087,124.616,59.087L124.616,59.087z"/>
			<path fill="#4EB86E" d="M126.133,54.115H89.726v53.375h41.85V59.697C131.576,56.626,129.127,54.115,126.133,54.115
				L126.133,54.115z"/>
			<path fill="#429658" d="M126.959,107.49h4.616V59.697c0-2.782-2.011-5.106-4.616-5.518V107.49z"/>
			<path fill="#DFE1E3" d="M127.727,111.4h-38v0.423h37.356C127.309,111.698,127.521,111.559,127.727,111.4L127.727,111.4z
				 M89.726,108.195v0.423h39.895c0.041-0.14,0.074-0.28,0.104-0.423H89.726z M89.726,109.266v0.422h39.459
				c0.074-0.138,0.143-0.278,0.205-0.422H89.726z M89.726,110.333v0.422h38.704c0.121-0.135,0.237-0.276,0.346-0.422H89.726z"/>
			<path fill="#FFFFFF" d="M117.357,98.923h-13.653v0.829h13.653V98.923z M114.764,100.36h-8.465v0.83h8.465V100.36z"/>
			<path fill="#FED198" d="M132.738,87.556l-4.965-1.432l-7.152,1.579c-0.344,0.938,0.791,1.861,1.719,1.941l5.436-0.426
				l3.801,1.588v0.559l-5.67-1.361l-7.027,2.053c0.111,2.87,1.975,2.131,6.612,0.972l6.084,2.115v0.728l-4.616-0.987l-5.811,1.416
				c-0.067,2.877,2.074,2.006,5.811,1.591l4.616,1.053v1.165l-4.595-0.285l-4.457,1.297c-0.713,0.323-0.566,1.692,0.442,1.96
				l3.992-0.456l4.562,0.599l0.055,4.504c0.382,2.908-1.457,5.832-4.154,6.357l-4.072,0.208l-1.203,7.325h10.035l-0.699-8.913
				c1.519-3.528,4.588-8.11,2.738-12.047c0.956-1.605,0.621-3.09-0.123-3.962c0.698-1.001,1.629-2.733,0.102-4.016
				C134.083,89.999,134.859,89.108,132.738,87.556L132.738,87.556z"/>
			<path fill="#F0B97D" d="M123.355,114.295l-1.209,7.325l3.865-7.461L123.355,114.295z"/>
			<path fill="#FBB429" d="M134.109,121.555l1.882,23.627h-18.229l2.65-23.627H134.109z"/>
			<rect x="121.24" y="119.872" fill="#ECF0F1" width="12.24" height="1.748"/>
			<path fill="#ECF0F1" d="M132.645,123.087c0.476,0,0.86,0.384,0.86,0.86c0,0.476-0.385,0.859-0.86,0.859
				c-0.475,0-0.858-0.384-0.858-0.859C131.786,123.471,132.17,123.087,132.645,123.087L132.645,123.087z"/>
			<path fill="#ECF0F1" d="M132.852,125.295c0.476,0,0.859,0.387,0.859,0.861c0,0.474-0.384,0.859-0.859,0.859
				c-0.475,0-0.859-0.386-0.859-0.859C131.991,125.682,132.376,125.295,132.852,125.295L132.852,125.295z"/>
			<path fill="#FFFFFF" d="M120.915,88.489l1.306-0.343l-0.216-0.612l-1.337,0.265C120.596,87.94,120.629,88.242,120.915,88.489
				L120.915,88.489z"/>
			<path fill="#FFFFFF" d="M119.447,93.294l1.664-0.632l-0.354-1.003l-1.645,0.498C119.042,92.422,119.055,92.832,119.447,93.294
				L119.447,93.294z"/>
			<path fill="#FFFFFF" d="M121.693,97.653l1.451-0.485l-0.344-1.065l-1.418,0.325C121.324,96.688,121.342,97.141,121.693,97.653
				L121.693,97.653z"/>
			<path fill="#FFFFFF" d="M122.607,101.303l1.043-0.292l0.338,1.289l-1.239,0.298C122.749,102.598,121.98,101.751,122.607,101.303
				L122.607,101.303z"/>
			<path fill="#FFDEB0" d="M80.7,74.47l-7.699-0.034l-0.149-11.21l7.472,0.379c0.5-1.066,3.864-3.348,4.75-3.664l4.651-0.542v2.364
				l7.782-0.405l7.933,1.394c0.465-0.012,0.824,2.088-1.592,1.969l-6.31-0.314l-3.881,0.731l5.511,0.024l7.492,1.145
				c0.841,0.128,0.347,2.269-1.794,2.324l-5.546-0.568l-5.606,0.582l5.778,0.324l5.99,0.929c1.063,0.164,0.906,2.286-1.211,2.112
				l-4.905-0.402l-5.655,0.764l4.954,0.416l5.133,1.403c0.402,0.11,0.548,1.889-2.282,1.566l-3.289-0.374
				C94.025,75.745,83.88,77.583,80.7,74.47L80.7,74.47z"/>
			<path fill="#F0B97D" d="M80.7,74.47l-7.699-0.034l-0.005-0.412l7.763,0.086c3.408,3.24,13.1,1.495,17.507,1.115
				c0,0,3.055,0.52,4.436,0.406c1.578-0.226,1.251-1.362,1.095-1.443c0.401,0.11,0.548,1.889-2.284,1.566l-3.287-0.374
				C94.025,75.745,83.88,77.583,80.7,74.47L80.7,74.47z"/>
			<path fill="#0E7886" d="M72.843,62.369l0.15,13.135L23.361,75.57c2.375-5.546,5.441-10.725,9.091-15.43L72.843,62.369z"/>
			<path fill="#FFFFFF" d="M75.186,62.748l0.203,12.332l-2.387,0.012l-0.203-12.333L75.186,62.748z"/>
			<path fill="#ECF0F1" d="M70.333,72.67c0.007,0.679-0.524,1.232-1.183,1.241c-0.662,0.006-1.202-0.538-1.208-1.215
				c-0.007-0.678,0.524-1.234,1.185-1.24C69.787,71.449,70.328,71.993,70.333,72.67L70.333,72.67z"/>
			<path fill="#FFFFFF" d="M103.938,62.689l1.471,0.16c0.137,0.318,0.134,0.546,0.043,0.72l-1.674-0.096L103.938,62.689z"/>
			<path fill="#FFFFFF" d="M105.203,66.267l1.47,0.162c0.138,0.317,0.134,0.544,0.043,0.719l-1.673-0.096L105.203,66.267z"/>
			<path fill="#FFFFFF" d="M104.098,69.907l1.471,0.162c0.137,0.316,0.135,0.544,0.041,0.717l-1.674-0.095L104.098,69.907z"/>
			<path fill="#FFFFFF" d="M102.241,73.938l1.471,0.317c0.138,0.331,0.134,0.559,0.042,0.723l-1.674-0.274L102.241,73.938z"/>
			<g>
				<path fill="#1CA9E3" d="M46.664,100.943h2.169h6.508h2.169l2.27-9.244H44.394L46.664,100.943z M51.509,94.388h-2.391
					l-0.206-1.534h2.597V94.388z M52.665,92.854h2.597l-0.206,1.534h-2.391V92.854z M47.952,94.388h-1.691l-0.373-1.534h1.857
					L47.952,94.388z M46.542,95.543h1.566l0.217,1.618h-1.39L46.542,95.543z M49.273,95.543h2.236v1.618H49.49L49.273,95.543z
					 M52.665,95.543H54.9l-0.217,1.618h-2.019L52.665,95.543L52.665,95.543z M56.066,95.543h1.566l-0.393,1.618h-1.39L56.066,95.543
					z M56.221,94.388l0.207-1.534h1.857l-0.372,1.534H56.221z M47.572,99.788l-0.357-1.47h1.265l0.198,1.47H47.572z M49.646,98.317
					h1.864v1.47h-1.666L49.646,98.317z M52.665,99.788v-1.47h1.863l-0.198,1.47H52.665z M55.496,99.788l0.198-1.47h1.265
					l-0.356,1.47H55.496z"/>
				<polygon fill="#1CA9E3" points="44.394,91.699 45.583,91.699 44.767,88.372 41.212,88.372 41.212,89.527 43.861,89.527 				"/>
				<g>
					<circle fill="#1CA9E3" cx="49.657" cy="102.965" r="1.256"/>
					<circle fill="#1CA9E3" cx="55.936" cy="102.965" r="1.256"/>
				</g>
			</g>
			<g>
				<path fill="#1CA9E3" d="M46.664,121.65h2.169h6.508h2.169l2.27-9.245H44.394L46.664,121.65z M51.509,115.095h-2.391
					l-0.206-1.532h2.597V115.095z M52.665,113.563h2.597l-0.206,1.532h-2.391V113.563z M47.952,115.095h-1.691l-0.373-1.532h1.857
					L47.952,115.095z M46.542,116.251h1.566l0.217,1.617h-1.39L46.542,116.251z M49.273,116.251h2.236v1.617H49.49L49.273,116.251z
					 M52.665,116.251H54.9l-0.217,1.617h-2.019L52.665,116.251L52.665,116.251z M56.066,116.251h1.566l-0.393,1.617h-1.39
					L56.066,116.251z M56.221,115.095l0.207-1.532h1.857l-0.372,1.532H56.221z M47.572,120.494l-0.357-1.471h1.265l0.198,1.471
					H47.572z M49.646,119.023h1.864v1.471h-1.666L49.646,119.023z M52.665,120.494v-1.471h1.863l-0.198,1.471H52.665z
					 M55.496,120.494l0.198-1.471h1.265l-0.356,1.471H55.496z"/>
				<polygon fill="#1CA9E3" points="44.394,112.406 45.583,112.406 44.767,109.08 41.212,109.08 41.212,110.234 43.861,110.234 				
					"/>
				<g>
					<circle fill="#1CA9E3" cx="49.657" cy="123.671" r="1.256"/>
					<circle fill="#1CA9E3" cx="55.936" cy="123.671" r="1.256"/>
				</g>
			</g>
			<g>
				<rect x="64.628" y="92.394" fill="#979797" width="19.17" height="2.402"/>
				<rect x="64.628" y="97.797" fill="#979797" width="19.17" height="2.402"/>
			</g>
			<g>
				<rect x="64.628" y="113.1" fill="#FC7A4A" width="19.17" height="2.402"/>
				<rect x="64.628" y="118.505" fill="#FC7A4A" width="19.17" height="2.402"/>
			</g>
		</g>
	</g>
</g>
<g id="Layer_2" display="none">
	<g display="inline">
		<g>
			<defs>
				<circle id="SVGID_3_" cx="93.986" cy="100.676" r="73.671"/>
			</defs>
			<clipPath id="SVGID_4_">
				<use xlink:href="#SVGID_3_"  overflow="visible"/>
			</clipPath>
			<g clip-path="url(#SVGID_4_)">
				<path fill="#807D7D" d="M36.445,44.63h65.188c1.922,0,3.494,1.574,3.494,3.497v86.55c0,1.925-1.572,3.496-3.494,3.496H36.445
					c-1.923,0-3.495-1.573-3.495-3.496v-86.55C32.951,46.203,34.522,44.63,36.445,44.63L36.445,44.63z"/>
				<rect x="35.844" y="52.448" fill="#DFE1E3" width="66.39" height="77.907"/>
				<path fill="#C8CACC" d="M69.039,131.499c1.471,0,2.665,1.192,2.665,2.666c0,1.472-1.192,2.664-2.665,2.664
					s-2.665-1.192-2.665-2.664C66.374,132.691,67.567,131.499,69.039,131.499L69.039,131.499z"/>
				<path fill="#FFFFFF" d="M154.801,54.973c-19.057,0-37.259-8.125-57.171,0v72.573h57.171V54.973z"/>
				<path fill="#FFFFFF" d="M38.918,54.972c19.058,0,46.598-7.983,57.175,0v72.573H38.918V54.972z"/>
				<rect x="95.123" y="54.972" fill="#ECF0F1" width="1.938" height="72.573"/>
				<rect x="56.594" y="61.101" fill="#FBB429" width="22.066" height="3.031"/>
				<path fill="#DFE1E3" d="M43.804,110.35h22.011v1.438H43.804V110.35z M43.804,107.459h22.011v1.434H43.804V107.459z
					 M43.804,88.546h22.011v1.434H43.804V88.546z M43.804,103.007h9.639v1.433h-9.639V103.007z M43.804,100.114h22.011v1.434H43.804
					V100.114z M43.804,97.223h22.011v1.433H43.804V97.223z M43.804,94.33h22.011v1.434H43.804V94.33z M43.804,91.437h22.011v1.436
					H43.804V91.437z M43.804,121.918h7.576v1.434h-7.576V121.918z M43.804,119.025h22.011v1.436H43.804V119.025z M43.804,116.135
					h22.011v1.434H43.804V116.135z M43.804,113.242h22.011v1.434H43.804V113.242z"/>
				<path fill="#DFE1E3" d="M102.613,89.981h44.132v1.433h-44.132V89.981z M102.613,87.088h44.132v1.434h-44.132V87.088z
					 M102.613,68.174h44.132v1.435h-44.132V68.174z M102.613,82.636h19.322v1.434h-19.322V82.636z M102.613,79.743h44.132v1.435
					h-44.132V79.743z M102.613,76.852h44.132v1.434h-44.132V76.852z M102.613,73.959h19.322v1.434h-19.322V73.959z M102.613,71.068
					h44.132V72.5h-44.132V71.068z M102.613,101.547h15.188v1.434h-15.188V101.547z M102.613,98.656h44.132v1.434h-44.132V98.656z
					 M102.613,95.764h44.132v1.434h-44.132V95.764z M102.613,92.871h44.132v1.436h-44.132V92.871z"/>
				<path fill="#FF5B61" d="M102.143,53.191l5.971-0.514v30.995l-3.004-2.186l-2.967,2.186V53.191z"/>
				<path fill="#C8CACC" d="M60.811,47.986h16.454c0.541,0,0.982,0.442,0.982,0.984c0,0.541-0.441,0.983-0.982,0.983H60.811
					c-0.539,0-0.982-0.442-0.982-0.983C59.829,48.428,60.271,47.986,60.811,47.986L60.811,47.986z"/>
				<path fill="#FED198" d="M113.947,115.584l0.373,7.061l2.035,2.574l0.064-14.097l-0.605-13.751l-1.582-14.384
					c-0.336-3.038,5.17-3.839,6.047-0.141l3.023,12.761l0.783,11.536l1.029,0.037l-0.369-5.445
					c-0.143-2.126,1.646-3.921,3.777-3.977c2.131-0.057,3.834,1.646,3.977,3.775l1.566,5.959l-0.325-3.814
					c-0.183-2.128,1.683-3.979,3.778-3.979c3.748,0,4.498,5.057,5.739,8.113l-0.067-1.569c-0.092-2.13,2.175-3.433,4.242-2.911
					c2.227,0.563,4.031,8.532,4.172,11.833l-1.342,21.271c-0.209,3.319-1.468,4.922-2.938,6.551l-0.496,26.47
					c-3,3.737-6.296,7.221-9.86,10.419c-4.592,0.951-9.484,1.1-14.693,3.409l0.343-40.515c-4.481-1.985-15.568-13.002-15.572-13
					l0.373-17.619C107.445,111.049,114.061,111.491,113.947,115.584L113.947,115.584L113.947,115.584z"/>
				<path fill="#FFFFFF" d="M119.332,83.007l0.412,2.024l-3.797,0.117l-0.41-2.024C115.033,80.645,119.025,80.552,119.332,83.007
					L119.332,83.007z"/>
				<path fill="#FFFFFF" d="M109.266,112.867c-0.018,0.086,0.303,4.125,0.303,4.125l-1.965-0.034l0.112-4.276
					C107.716,112.682,108.843,112.176,109.266,112.867L109.266,112.867z"/>
				<path fill="#0E7886" d="M121.374,151.923l29.687-0.503l0.489,13.141c-8.118,11.703-19.019,21.324-31.75,27.907L121.374,151.923z
					"/>
				<path fill="#FFFFFF" d="M122.193,148.139l28.011-0.184l-0.028,3.48l-28.008,0.473L122.193,148.139z"/>
				<path fill="#C8CACC" d="M145.932,161.49c1.157-0.01,2.104,0.895,2.114,2.02c0.013,1.127-0.916,2.049-2.071,2.059
					c-1.156,0.01-2.101-0.894-2.113-2.021C143.85,162.423,144.777,161.502,145.932,161.49L145.932,161.49z M145.932,155.63
					c1.157-0.01,2.104,0.896,2.114,2.021c0.013,1.125-0.916,2.048-2.071,2.059c-1.156,0.012-2.101-0.893-2.113-2.018
					C143.85,156.564,144.777,155.643,145.932,155.63L145.932,155.63z"/>
				<path fill="#FED198" d="M42.729,81.92l-16.351,5.795l-5.734,11.94c0,0-1.118,2.805,0.77,8.235l7.231,20.836l-0.612,9.444h10.97
					c0,0,1.758-25.313-1.554-31.211c-3.311-5.897-3.879-13.555-3.879-13.555s10.207-2.951,10.827-7.089
					C45.018,82.177,42.729,81.92,42.729,81.92L42.729,81.92z"/>
				<path fill="#FFFFFF" d="M36.32,85.424l3.585-1.27c0.34-0.792-0.497-1.737-0.78-1.742l-3.282,1.224l0.474,1.785L36.32,85.424z"/>
				<rect x="27.13" y="138.173" fill="#FFFFFF" width="22.604" height="3.578"/>
				<path fill="#0E7886" d="M25.784,141.232h25.039l2.093,38.526c-10.795-5.668-20.091-13.806-27.132-23.666V141.232z"/>
				<path fill="#C8CACC" d="M40.735,47.314c0.915,0,1.655,0.74,1.655,1.655c0,0.915-0.74,1.656-1.655,1.656
					c-0.914,0-1.656-0.742-1.656-1.656C39.079,48.056,39.821,47.314,40.735,47.314L40.735,47.314z"/>
				<path fill="#807D7D" d="M40.735,47.536c0.792,0,1.435,0.641,1.435,1.433s-0.643,1.435-1.435,1.435
					c-0.793,0-1.434-0.643-1.434-1.435C39.301,48.176,39.942,47.536,40.735,47.536L40.735,47.536z"/>
				<path fill="#C8CACC" d="M40.735,48.545c0.235,0,0.425,0.189,0.425,0.424c0,0.235-0.189,0.426-0.425,0.426
					c-0.234,0-0.424-0.191-0.424-0.426C40.311,48.734,40.501,48.545,40.735,48.545L40.735,48.545z"/>
				<path fill="#C8CACC" d="M44.745,158.743c1.156-0.011,2.102,0.896,2.114,2.019c0.011,1.127-0.916,2.049-2.072,2.059
					c-1.156,0.012-2.102-0.893-2.113-2.019C42.662,159.677,43.589,158.754,44.745,158.743L44.745,158.743z M44.745,152.884
					c1.156-0.01,2.102,0.894,2.114,2.021c0.011,1.126-0.916,2.048-2.072,2.058c-1.156,0.012-2.102-0.893-2.113-2.02
					C42.662,153.816,43.589,152.895,44.745,152.884L44.745,152.884z"/>
				<rect x="43.804" y="66.898" fill="#ECF0F1" width="44.022" height="18.967"/>
			</g>
		</g>
	</g>
	<rect x="67.177" y="111.41" display="inline" fill="#84CE98" width="10.534" height="10.129"/>
	<rect x="67.177" y="88.071" display="inline" fill="#4EB86D" width="10.534" height="19.679"/>
	<rect x="79.542" y="88.071" display="inline" fill="#84CE98" width="10.534" height="19.679"/>
	<rect x="79.542" y="111.41" display="inline" fill="#4EB86D" width="10.534" height="10.129"/>
</g>
<g id="Layer_3">
	<g>
		<g>
			<defs>
				<circle id="SVGID_5_" cx="93.594" cy="101.176" r="73.671"/>
			</defs>
			<clipPath id="SVGID_6_">
				<use xlink:href="#SVGID_5_"  overflow="visible"/>
			</clipPath>
			<g clip-path="url(#SVGID_6_)">
				<g>
					<defs>
						<circle id="SVGID_7_" cx="93.749" cy="101.29" r="72.557"/>
					</defs>
					<clipPath id="SVGID_8_">
						<use xlink:href="#SVGID_7_"  overflow="visible"/>
					</clipPath>
					<path clip-path="url(#SVGID_8_)" fill="#82EDE4" d="M71.733,72.391l-60.567,37.323c-0.316,2.824-0.481,5.693-0.481,8.603
						c0,34.052,38.805,62.946,69.411,73.181l26.479-84.064L71.733,72.391L71.733,72.391z"/>
				</g>
				<g>
					<defs>
						<circle id="SVGID_9_" cx="93.749" cy="101.29" r="72.557"/>
					</defs>
					<clipPath id="SVGID_10_">
						<use xlink:href="#SVGID_9_"  overflow="visible"/>
					</clipPath>
					<path clip-path="url(#SVGID_10_)" fill="#0E7886" d="M114.953,168.869h52.53c4.085,0,6.708,5.96,2.624,5.96h-57.781
						C108.245,174.832,110.869,168.869,114.953,168.869L114.953,168.869z"/>
				</g>
				<g>
					<defs>
						<circle id="SVGID_11_" cx="93.749" cy="101.29" r="72.557"/>
					</defs>
					<clipPath id="SVGID_12_">
						<use xlink:href="#SVGID_11_"  overflow="visible"/>
					</clipPath>
					<path clip-path="url(#SVGID_12_)" fill="#FF5B61" d="M166.736,116.829l-2.751,52.042h-6.209l5.475-49.699
						C164.631,118.766,165.839,117.938,166.736,116.829L166.736,116.829L166.736,116.829z M144.058,168.869L144.058,168.869h6.187
						l7.958-50.163c-1.151-0.584-2.13-1.487-2.825-2.596L144.058,168.869L144.058,168.869z"/>
				</g>
				<g>
					<defs>
						<circle id="SVGID_13_" cx="93.749" cy="101.29" r="72.557"/>
					</defs>
					<clipPath id="SVGID_14_">
						<use xlink:href="#SVGID_13_"  overflow="visible"/>
					</clipPath>
					<path clip-path="url(#SVGID_14_)" fill="#0E7886" d="M94.156,67.451l12.473-12.399c3.077-3.061,8.099-3.045,11.16,0.032
						l6.356,6.394c3.06,3.077,3.046,8.098-0.033,11.161l-12.468,12.398L94.156,67.451z"/>
				</g>
				<g>
					<defs>
						<circle id="SVGID_15_" cx="93.749" cy="101.29" r="72.557"/>
					</defs>
					<clipPath id="SVGID_16_">
						<use xlink:href="#SVGID_15_"  overflow="visible"/>
					</clipPath>
					<path clip-path="url(#SVGID_16_)" fill="#FFFFFF" d="M82.11,96.918c-4.624-4.649-4.519-12.25,0.23-16.972
						c3.216-3.196,7.735-4.259,11.752-3.17l3.945-3.921c0.473-0.469,1.23-0.476,1.688-0.013l6.136,6.168
						c0.458,0.463,0.447,1.22-0.022,1.689l-3.714,3.69c1.372,4.184,0.349,9.019-3.042,12.392
						C94.331,101.503,86.733,101.564,82.11,96.918L82.11,96.918L82.11,96.918z"/>
				</g>
				<g>
					<defs>
						<circle id="SVGID_17_" cx="93.749" cy="101.29" r="72.557"/>
					</defs>
					<clipPath id="SVGID_18_">
						<use xlink:href="#SVGID_17_"  overflow="visible"/>
					</clipPath>
					<g clip-path="url(#SVGID_18_)">
						<path fill="#0E7886" d="M71.733,72.391c26.15-26.002,60.992,9.039,34.841,35.042L71.733,72.391z"/>
						<path fill="#0E7886" d="M161.311,119.322c3.908,0,7.093-3.183,7.093-7.087c0-3.906-3.185-7.091-7.093-7.091
							c-3.903,0-7.088,3.185-7.088,7.091C154.222,116.14,157.407,119.322,161.311,119.322z"/>
					</g>
				</g>
				<g>
					<defs>
						<circle id="SVGID_19_" cx="93.749" cy="101.29" r="72.557"/>
					</defs>
					<clipPath id="SVGID_20_">
						<use xlink:href="#SVGID_19_"  overflow="visible"/>
					</clipPath>
					<path clip-path="url(#SVGID_20_)" fill="#FFFFFF" d="M161.311,115.603c1.858,0,3.372-1.513,3.372-3.37
						c0-1.858-1.513-3.367-3.372-3.367c-1.854,0-3.367,1.513-3.367,3.367S159.456,115.603,161.311,115.603z"/>
				</g>
				<g>
					<defs>
						<circle id="SVGID_21_" cx="93.749" cy="101.29" r="72.557"/>
					</defs>
					<clipPath id="SVGID_22_">
						<use xlink:href="#SVGID_21_"  overflow="visible"/>
					</clipPath>
					<path clip-path="url(#SVGID_22_)" fill="#FBB429" d="M123.552,166.976l13.049-1.896v3.789h-13.049V166.976L123.552,166.976z"/>
				</g>
				<g>
					<path fill="#FF5B61" d="M128.895,73.556l33.687,31.7c-0.411-0.071-0.836-0.111-1.271-0.111c-0.991,0-1.938,0.203-2.799,0.572
						l-30.394-30.178l-2.295,2.054l29.271,31.231c-0.556,1.013-0.872,2.174-0.872,3.411c0,0.181,0.008,0.362,0.022,0.537
						L123.75,78.253l-0.584-0.66l0.658-0.586l3.874-3.467l0.605-0.542L128.895,73.556L128.895,73.556z"/>
				</g>
				<g>
					<defs>
						<circle id="SVGID_23_" cx="93.749" cy="101.29" r="72.557"/>
					</defs>
					<clipPath id="SVGID_24_">
						<use xlink:href="#SVGID_23_"  overflow="visible"/>
					</clipPath>
					<path clip-path="url(#SVGID_24_)" fill="#0E7886" d="M113.949,70.975l7.42-7.378l10,10.059c2.03,2.039,2.018,5.369-0.022,7.398
						l0,0c-2.042,2.029-5.37,2.02-7.398-0.021L113.949,70.975L113.949,70.975L113.949,70.975z"/>
				</g>
				<g>
					<defs>
						<circle id="SVGID_25_" cx="93.749" cy="101.29" r="72.557"/>
					</defs>
					<clipPath id="SVGID_26_">
						<use xlink:href="#SVGID_25_"  overflow="visible"/>
					</clipPath>
					<path clip-path="url(#SVGID_26_)" fill="#FFFFFF" d="M127.988,79.915c1.427,0,2.588-1.162,2.588-2.587
						s-1.161-2.589-2.588-2.589s-2.591,1.164-2.591,2.589S126.56,79.915,127.988,79.915z"/>
				</g>
				<g>
					<defs>
						<circle id="SVGID_27_" cx="93.749" cy="101.29" r="72.557"/>
					</defs>
					<clipPath id="SVGID_28_">
						<use xlink:href="#SVGID_27_"  overflow="visible"/>
					</clipPath>
					<path clip-path="url(#SVGID_28_)" fill="#20D0C2" d="M39.733,144.604h54.119v1.825c-2.563,3.267-2.139,6.899,0,9.619v1.825
						H39.733C31.275,157.874,31.275,144.604,39.733,144.604L39.733,144.604z"/>
				</g>
				<g>
					<defs>
						<circle id="SVGID_29_" cx="93.749" cy="101.29" r="72.557"/>
					</defs>
					<clipPath id="SVGID_30_">
						<use xlink:href="#SVGID_29_"  overflow="visible"/>
					</clipPath>
					<path clip-path="url(#SVGID_30_)" fill="#FFFFFF" d="M93.85,156.052c-2.184-3.207-2.348-6.415,0-9.621H39.733
						c-2.545,0-4.632,2.169-4.632,4.811c0,2.643,2.087,4.811,4.632,4.811H93.85z"/>
				</g>
				<g>
					<defs>
						<circle id="SVGID_31_" cx="93.749" cy="101.29" r="72.557"/>
					</defs>
					<clipPath id="SVGID_32_">
						<use xlink:href="#SVGID_31_"  overflow="visible"/>
					</clipPath>
					<g clip-path="url(#SVGID_32_)">
						<path fill="#ECF0F1" d="M93.33,147.204c0.158-0.255,0.328-0.516,0.52-0.774H39.733c-5.174,0-6.628,7.419-1.407,9.39
							c-3.565-1.736-2.235-7.65,1.506-8.616L93.33,147.204L93.33,147.204z"/>
						<path fill="#ECF0F1" d="M92.797,148.122H36.216c0.105-0.128,0.213-0.248,0.332-0.363h56.433
							C92.915,147.881,92.853,148.001,92.797,148.122z M35.744,148.808L35.744,148.808c-0.067,0.118-0.13,0.235-0.189,0.36H92.39
							c0.039-0.121,0.08-0.24,0.122-0.36H35.744z M35.298,149.853L35.298,149.853c-0.034,0.119-0.065,0.241-0.093,0.365h56.951
							c0.019-0.121,0.039-0.243,0.062-0.365H35.298L35.298,149.853z M35.112,150.901L35.112,150.901
							c-0.006,0.112-0.012,0.225-0.012,0.34v0.023h56.984c0-0.121,0.003-0.242,0.007-0.363H35.112L35.112,150.901L35.112,150.901z
							 M35.15,151.949L35.15,151.949c0.018,0.124,0.041,0.244,0.064,0.362h56.954c-0.018-0.122-0.032-0.242-0.047-0.362H35.15z
							 M35.422,152.996L35.422,152.996c0.047,0.125,0.098,0.246,0.155,0.365h56.835c-0.037-0.121-0.071-0.242-0.102-0.365H35.422z
							 M35.978,154.043L35.978,154.043c0.086,0.128,0.178,0.249,0.279,0.363h56.569c-0.057-0.117-0.111-0.241-0.162-0.363H35.978z
							 M36.97,155.092L36.97,155.092c0.173,0.134,0.355,0.256,0.543,0.363h55.908c-0.079-0.119-0.153-0.239-0.227-0.363H36.97z"/>
					</g>
				</g>
				<g>
					<defs>
						<circle id="SVGID_33_" cx="93.749" cy="101.29" r="72.557"/>
					</defs>
					<clipPath id="SVGID_34_">
						<use xlink:href="#SVGID_33_"  overflow="visible"/>
					</clipPath>
					<path clip-path="url(#SVGID_34_)" fill="#FF5B61" d="M98.489,157.878H35.716v2.329c2.973,4.173,2.483,8.816,0,12.295v2.33
						h62.773C108.298,174.832,108.299,157.878,98.489,157.878L98.489,157.878z"/>
				</g>
				<g>
					<defs>
						<circle id="SVGID_35_" cx="93.749" cy="101.29" r="72.557"/>
					</defs>
					<clipPath id="SVGID_36_">
						<use xlink:href="#SVGID_35_"  overflow="visible"/>
					</clipPath>
					<path clip-path="url(#SVGID_36_)" fill="#FFFFFF" d="M35.716,172.499c2.533-4.096,2.725-8.192,0-12.292h62.776
						c2.95,0,5.375,2.771,5.375,6.146s-2.425,6.146-5.375,6.146H35.716L35.716,172.499z"/>
				</g>
				<g>
					<defs>
						<circle id="SVGID_37_" cx="93.749" cy="101.29" r="72.557"/>
					</defs>
					<clipPath id="SVGID_38_">
						<use xlink:href="#SVGID_37_"  overflow="visible"/>
					</clipPath>
					<g clip-path="url(#SVGID_38_)">
						<path fill="#ECF0F1" d="M36.317,161.197c-0.181-0.33-0.381-0.659-0.601-0.99h62.776c6.003,0,7.688,9.479,1.631,11.998
							c4.135-2.216,2.589-9.774-1.749-11.006L36.317,161.197L36.317,161.197z"/>
						<path fill="#ECF0F1" d="M36.938,162.366h65.633c-0.121-0.161-0.251-0.316-0.387-0.463h-65.46
							C36.801,162.058,36.872,162.213,36.938,162.366z M103.117,163.244L103.117,163.244c0.078,0.15,0.15,0.304,0.219,0.463H37.407
							c-0.042-0.153-0.089-0.309-0.141-0.463H103.117L103.117,163.244z M103.635,164.581L103.635,164.581
							c0.041,0.152,0.076,0.308,0.104,0.464h-66.06c-0.021-0.153-0.044-0.31-0.072-0.464H103.635L103.635,164.581z M103.854,165.921
							L103.854,165.921c0.005,0.144,0.014,0.285,0.014,0.433v0.032H37.764c0.003-0.155,0-0.31-0.006-0.465H103.854L103.854,165.921
							L103.854,165.921z M103.807,167.26L103.807,167.26c-0.019,0.157-0.045,0.312-0.078,0.465H37.665
							c0.022-0.154,0.041-0.308,0.057-0.465H103.807L103.807,167.26z M103.492,168.599L103.492,168.599
							c-0.056,0.157-0.116,0.313-0.183,0.465H37.38c0.044-0.155,0.084-0.31,0.121-0.465H103.492L103.492,168.599z M102.848,169.938
							L102.848,169.938c-0.101,0.161-0.209,0.315-0.324,0.464H36.905c0.066-0.152,0.128-0.309,0.188-0.464H102.848z
							 M101.696,171.277L101.696,171.277c-0.2,0.17-0.41,0.326-0.63,0.463H36.214c0.092-0.151,0.18-0.307,0.265-0.463H101.696
							L101.696,171.277z"/>
					</g>
				</g>
				<g>
					<defs>
						<circle id="SVGID_39_" cx="93.749" cy="101.29" r="72.557"/>
					</defs>
					<clipPath id="SVGID_40_">
						<use xlink:href="#SVGID_39_"  overflow="visible"/>
					</clipPath>
					<path clip-path="url(#SVGID_40_)" fill="#FBB429" d="M88.953,131.312H47.167v1.824c1.98,3.268,1.652,6.898,0,9.62v1.825h41.786
						C95.482,144.581,95.482,131.312,88.953,131.312L88.953,131.312L88.953,131.312z"/>
				</g>
				<g>
					<defs>
						<circle id="SVGID_41_" cx="93.749" cy="101.29" r="72.557"/>
					</defs>
					<clipPath id="SVGID_42_">
						<use xlink:href="#SVGID_41_"  overflow="visible"/>
					</clipPath>
					<path clip-path="url(#SVGID_42_)" fill="#FFFFFF" d="M47.167,142.756c1.684-3.204,1.815-6.413,0-9.618h41.786
						c1.967,0,3.578,2.168,3.578,4.812c0,2.642-1.611,4.81-3.578,4.81H47.167V142.756z"/>
				</g>
				<g>
					<defs>
						<circle id="SVGID_43_" cx="93.749" cy="101.29" r="72.557"/>
					</defs>
					<clipPath id="SVGID_44_">
						<use xlink:href="#SVGID_43_"  overflow="visible"/>
					</clipPath>
					<g clip-path="url(#SVGID_44_)">
						<path fill="#ECF0F1" d="M47.567,133.91c-0.122-0.258-0.254-0.516-0.4-0.774h41.786c3.996,0,5.118,7.42,1.087,9.392
							c2.752-1.736,1.726-7.651-1.164-8.617H47.567L47.567,133.91L47.567,133.91z"/>
						<path fill="#ECF0F1" d="M47.981,134.826h43.688c-0.081-0.127-0.167-0.249-0.256-0.362H47.838
							C47.889,134.584,47.936,134.704,47.981,134.826z M92.035,135.514L92.035,135.514c0.051,0.118,0.099,0.238,0.146,0.362H48.293
							c-0.029-0.121-0.059-0.241-0.091-0.362H92.035L92.035,135.514z M92.378,136.56L92.378,136.56
							c0.027,0.12,0.051,0.241,0.072,0.363H48.473c-0.012-0.121-0.03-0.242-0.046-0.363H92.378L92.378,136.56z M92.522,137.607
							L92.522,137.607c0.006,0.113,0.008,0.225,0.008,0.341v0.023H48.529c0-0.121,0-0.243-0.006-0.364H92.522z M92.491,138.657
							L92.491,138.657c-0.014,0.123-0.03,0.242-0.053,0.362H48.464c0.017-0.121,0.028-0.241,0.036-0.362H92.491z M92.283,139.705
							L92.283,139.705c-0.037,0.124-0.078,0.245-0.122,0.363H48.276c0.029-0.12,0.056-0.242,0.081-0.363H92.283z M91.853,140.753
							L91.853,140.753c-0.068,0.124-0.14,0.245-0.215,0.363H47.96c0.041-0.121,0.085-0.241,0.124-0.363H91.853z M91.087,141.8
							L91.087,141.8c-0.132,0.135-0.274,0.255-0.418,0.364h-43.17c0.063-0.118,0.12-0.242,0.177-0.364H91.087z"/>
					</g>
				</g>
				<g>
					<defs>
						<circle id="SVGID_45_" cx="93.749" cy="101.29" r="72.557"/>
					</defs>
					<clipPath id="SVGID_46_">
						<use xlink:href="#SVGID_45_"  overflow="visible"/>
					</clipPath>
					<path clip-path="url(#SVGID_46_)" fill="#20D0C2" d="M27.853,114.583h54.118v1.825c-2.564,3.267-2.139,6.9,0,9.621v1.824
						H27.853C19.397,127.854,19.396,114.582,27.853,114.583L27.853,114.583z"/>
				</g>
				<g>
					<defs>
						<circle id="SVGID_47_" cx="93.749" cy="101.29" r="72.557"/>
					</defs>
					<clipPath id="SVGID_48_">
						<use xlink:href="#SVGID_47_"  overflow="visible"/>
					</clipPath>
					<path clip-path="url(#SVGID_48_)" fill="#FFFFFF" d="M81.968,126.031c-2.183-3.208-2.349-6.413,0-9.621H27.853
						c-2.546,0-4.632,2.169-4.632,4.809c0,2.645,2.086,4.813,4.632,4.813H81.968z"/>
				</g>
				<g>
					<defs>
						<circle id="SVGID_49_" cx="93.749" cy="101.29" r="72.557"/>
					</defs>
					<clipPath id="SVGID_50_">
						<use xlink:href="#SVGID_49_"  overflow="visible"/>
					</clipPath>
					<g clip-path="url(#SVGID_50_)">
						<path fill="#ECF0F1" d="M81.449,117.183c0.158-0.258,0.33-0.515,0.519-0.776H27.853c-5.176,0-6.628,7.42-1.409,9.391
							c-3.565-1.736-2.232-7.649,1.508-8.614H81.449L81.449,117.183z"/>
						<path fill="#ECF0F1" d="M80.917,118.101H24.335c0.104-0.127,0.214-0.248,0.332-0.362H81.1
							C81.034,117.858,80.973,117.98,80.917,118.101z M23.863,118.784L23.863,118.784c-0.067,0.118-0.129,0.239-0.188,0.365H80.51
							c0.037-0.123,0.078-0.242,0.123-0.365H23.863z M23.417,119.831L23.417,119.831c-0.032,0.121-0.065,0.242-0.092,0.363h56.951
							c0.018-0.121,0.039-0.242,0.062-0.363H23.418H23.417z M23.231,120.88L23.231,120.88c-0.006,0.111-0.01,0.226-0.01,0.339v0.024
							h56.984c0-0.119,0.002-0.242,0.006-0.363H23.231L23.231,120.88L23.231,120.88z M23.269,121.928L23.269,121.928
							c0.018,0.123,0.042,0.242,0.065,0.363h56.954c-0.018-0.121-0.033-0.242-0.046-0.363H23.269z M23.542,122.977L23.542,122.977
							c0.045,0.125,0.098,0.245,0.155,0.361h56.835c-0.036-0.118-0.071-0.24-0.101-0.361H23.542z M24.096,124.024L24.096,124.024
							c0.087,0.125,0.18,0.246,0.279,0.362h56.57c-0.06-0.119-0.111-0.242-0.161-0.362H24.096z M25.088,125.071L25.088,125.071
							c0.175,0.134,0.355,0.256,0.543,0.363H81.54c-0.08-0.119-0.154-0.239-0.228-0.363H25.088z"/>
					</g>
				</g>
				<g>
					<defs>
						<circle id="SVGID_51_" cx="93.749" cy="101.29" r="72.557"/>
					</defs>
					<clipPath id="SVGID_52_">
						<use xlink:href="#SVGID_51_"  overflow="visible"/>
					</clipPath>
					<path clip-path="url(#SVGID_52_)" fill="#FF5B61" d="M86.609,127.855H23.836v2.332c2.971,4.173,2.48,8.816,0,12.293v2.333
						h62.773C96.416,144.812,96.419,127.855,86.609,127.855L86.609,127.855z"/>
				</g>
				<g>
					<defs>
						<circle id="SVGID_53_" cx="93.749" cy="101.29" r="72.557"/>
					</defs>
					<clipPath id="SVGID_54_">
						<use xlink:href="#SVGID_53_"  overflow="visible"/>
					</clipPath>
					<path clip-path="url(#SVGID_54_)" fill="#FFFFFF" d="M23.836,142.479c2.532-4.097,2.724-8.194,0-12.292h62.774
						c2.952,0,5.375,2.77,5.375,6.144c0,3.377-2.424,6.146-5.375,6.146L23.836,142.479L23.836,142.479z"/>
				</g>
				<g>
					<defs>
						<circle id="SVGID_55_" cx="93.749" cy="101.29" r="72.557"/>
					</defs>
					<clipPath id="SVGID_56_">
						<use xlink:href="#SVGID_55_"  overflow="visible"/>
					</clipPath>
					<g clip-path="url(#SVGID_56_)">
						<path fill="#ECF0F1" d="M24.436,131.175c-0.18-0.33-0.381-0.66-0.599-0.988h62.774c6.003,0,7.688,9.477,1.631,11.999
							c4.133-2.218,2.59-9.775-1.749-11.007L24.436,131.175L24.436,131.175z"/>
						<path fill="#ECF0F1" d="M25.056,132.346h65.634c-0.122-0.16-0.251-0.315-0.387-0.463H24.843
							C24.92,132.036,24.991,132.191,25.056,132.346z M91.236,133.221L91.236,133.221c0.08,0.152,0.152,0.306,0.22,0.466h-65.93
							c-0.042-0.155-0.088-0.311-0.141-0.466H91.236L91.236,133.221z M91.752,134.561L91.752,134.561
							c0.042,0.153,0.077,0.309,0.107,0.463h-66.06c-0.022-0.153-0.046-0.307-0.073-0.463H91.752L91.752,134.561z M91.971,135.901
							L91.971,135.901c0.007,0.143,0.014,0.285,0.014,0.43v0.032H25.884c0.001-0.155-0.001-0.309-0.007-0.465L91.971,135.901
							L91.971,135.901L91.971,135.901z M91.927,137.239L91.927,137.239c-0.021,0.156-0.047,0.312-0.078,0.463H25.785
							c0.021-0.153,0.039-0.31,0.057-0.463H91.927L91.927,137.239z M91.61,138.578L91.61,138.578
							c-0.056,0.158-0.114,0.313-0.183,0.465H25.5c0.042-0.155,0.084-0.31,0.119-0.465H91.61L91.61,138.578z M90.967,139.917
							L90.967,139.917c-0.1,0.16-0.208,0.316-0.325,0.464H25.023c0.068-0.153,0.129-0.309,0.189-0.464H90.967z M89.815,141.256
							L89.815,141.256c-0.201,0.17-0.411,0.326-0.629,0.463H24.333c0.092-0.153,0.18-0.308,0.266-0.463H89.815L89.815,141.256z"/>
					</g>
				</g>
				<g>
					<defs>
						<circle id="SVGID_57_" cx="93.749" cy="101.29" r="72.557"/>
					</defs>
					<clipPath id="SVGID_58_">
						<use xlink:href="#SVGID_57_"  overflow="visible"/>
					</clipPath>
					<path clip-path="url(#SVGID_58_)" fill="#FBB429" d="M77.071,101.29H35.287v1.825c1.978,3.267,1.651,6.899,0,9.62v1.826h41.785
						C83.602,114.562,83.602,101.29,77.071,101.29L77.071,101.29L77.071,101.29z"/>
				</g>
				<g>
					<defs>
						<circle id="SVGID_59_" cx="93.749" cy="101.29" r="72.557"/>
					</defs>
					<clipPath id="SVGID_60_">
						<use xlink:href="#SVGID_59_"  overflow="visible"/>
					</clipPath>
					<path clip-path="url(#SVGID_60_)" fill="#FFFFFF" d="M35.287,112.735c1.685-3.205,1.813-6.412,0-9.62h41.785
						c1.967,0,3.579,2.168,3.579,4.811c0,2.644-1.612,4.81-3.579,4.81H35.287z"/>
				</g>
				<g>
					<defs>
						<circle id="SVGID_61_" cx="93.749" cy="101.29" r="72.557"/>
					</defs>
					<clipPath id="SVGID_62_">
						<use xlink:href="#SVGID_61_"  overflow="visible"/>
					</clipPath>
					<g clip-path="url(#SVGID_62_)">
						<path fill="#ECF0F1" d="M35.685,103.889c-0.119-0.257-0.253-0.517-0.398-0.775h41.788c3.996,0,5.118,7.419,1.087,9.391
							c2.752-1.733,1.725-7.649-1.164-8.615H35.685L35.685,103.889L35.685,103.889z"/>
						<path fill="#ECF0F1" d="M36.102,104.806h43.687c-0.08-0.125-0.167-0.248-0.256-0.361H35.958
							C36.008,104.563,36.054,104.685,36.102,104.806z M80.155,105.491L80.155,105.491c0.05,0.118,0.099,0.239,0.145,0.362H36.412
							c-0.028-0.12-0.059-0.241-0.092-0.362H80.155L80.155,105.491z M80.497,106.538L80.497,106.538
							c0.027,0.121,0.051,0.242,0.071,0.363H36.593c-0.013-0.121-0.031-0.242-0.048-0.363H80.497L80.497,106.538z M80.643,107.588
							L80.643,107.588c0.005,0.112,0.008,0.225,0.008,0.338v0.026H36.649c0-0.122,0-0.243-0.006-0.363L80.643,107.588
							L80.643,107.588z M80.609,108.635L80.609,108.635c-0.012,0.124-0.029,0.245-0.051,0.363H36.584
							c0.017-0.121,0.028-0.24,0.038-0.363H80.609z M80.403,109.684L80.403,109.684c-0.038,0.123-0.08,0.245-0.122,0.362H36.395
							c0.031-0.117,0.057-0.239,0.082-0.362H80.403z M79.972,110.73L79.972,110.73c-0.068,0.126-0.139,0.247-0.216,0.364H36.078
							c0.041-0.12,0.085-0.242,0.125-0.364H79.972z M79.207,111.779L79.207,111.779c-0.133,0.134-0.273,0.256-0.419,0.365h-43.17
							c0.063-0.122,0.122-0.243,0.178-0.365H79.207z"/>
					</g>
				</g>
			</g>
			<g clip-path="url(#SVGID_6_)">
				<g>
					<defs>
						<circle id="SVGID_63_" cx="93.749" cy="101.29" r="72.557"/>
					</defs>
					<clipPath id="SVGID_64_">
						<use xlink:href="#SVGID_63_"  overflow="visible"/>
					</clipPath>
					<path clip-path="url(#SVGID_64_)" fill="#82EDE4" d="M71.733,72.391l-60.567,37.323c-0.316,2.824-0.481,5.693-0.481,8.603
						c0,34.052,38.805,62.946,69.411,73.181l26.479-84.064L71.733,72.391L71.733,72.391z"/>
				</g>
				<g>
					<defs>
						<circle id="SVGID_65_" cx="93.749" cy="101.29" r="72.557"/>
					</defs>
					<clipPath id="SVGID_66_">
						<use xlink:href="#SVGID_65_"  overflow="visible"/>
					</clipPath>
					<path clip-path="url(#SVGID_66_)" fill="#0E7886" d="M114.953,168.869h52.53c4.085,0,6.708,5.96,2.624,5.96h-57.781
						C108.245,174.832,110.869,168.869,114.953,168.869L114.953,168.869z"/>
				</g>
				<g>
					<defs>
						<circle id="SVGID_67_" cx="93.749" cy="101.29" r="72.557"/>
					</defs>
					<clipPath id="SVGID_68_">
						<use xlink:href="#SVGID_67_"  overflow="visible"/>
					</clipPath>
					<path clip-path="url(#SVGID_68_)" fill="#FF5B61" d="M166.736,116.829l-2.751,52.042h-6.209l5.475-49.699
						C164.631,118.766,165.839,117.938,166.736,116.829L166.736,116.829L166.736,116.829z M144.058,168.869L144.058,168.869h6.187
						l7.958-50.163c-1.151-0.584-2.13-1.487-2.825-2.596L144.058,168.869L144.058,168.869z"/>
				</g>
				<g>
					<defs>
						<circle id="SVGID_69_" cx="93.749" cy="101.29" r="72.557"/>
					</defs>
					<clipPath id="SVGID_70_">
						<use xlink:href="#SVGID_69_"  overflow="visible"/>
					</clipPath>
					<path clip-path="url(#SVGID_70_)" fill="#0E7886" d="M94.156,67.451l12.473-12.399c3.077-3.061,8.099-3.045,11.16,0.032
						l6.356,6.394c3.06,3.077,3.046,8.098-0.033,11.161l-12.468,12.398L94.156,67.451z"/>
				</g>
				<g>
					<defs>
						<circle id="SVGID_71_" cx="93.749" cy="101.29" r="72.557"/>
					</defs>
					<clipPath id="SVGID_72_">
						<use xlink:href="#SVGID_71_"  overflow="visible"/>
					</clipPath>
					<path clip-path="url(#SVGID_72_)" fill="#FFFFFF" d="M82.11,96.918c-4.624-4.649-4.519-12.25,0.23-16.972
						c3.216-3.196,7.735-4.259,11.752-3.17l3.945-3.921c0.473-0.469,1.23-0.476,1.688-0.013l6.136,6.168
						c0.458,0.463,0.447,1.22-0.022,1.689l-3.714,3.69c1.372,4.184,0.349,9.019-3.042,12.392
						C94.331,101.503,86.733,101.564,82.11,96.918L82.11,96.918L82.11,96.918z"/>
				</g>
				<g>
					<defs>
						<circle id="SVGID_73_" cx="93.749" cy="101.29" r="72.557"/>
					</defs>
					<clipPath id="SVGID_74_">
						<use xlink:href="#SVGID_73_"  overflow="visible"/>
					</clipPath>
					<g clip-path="url(#SVGID_74_)">
						<path fill="#0E7886" d="M71.733,72.391c26.15-26.002,60.992,9.039,34.841,35.042L71.733,72.391z"/>
						<path fill="#0E7886" d="M161.311,119.322c3.908,0,7.093-3.183,7.093-7.087c0-3.906-3.185-7.091-7.093-7.091
							c-3.903,0-7.088,3.185-7.088,7.091C154.222,116.14,157.407,119.322,161.311,119.322z"/>
					</g>
				</g>
				<g>
					<defs>
						<circle id="SVGID_75_" cx="93.749" cy="101.29" r="72.557"/>
					</defs>
					<clipPath id="SVGID_76_">
						<use xlink:href="#SVGID_75_"  overflow="visible"/>
					</clipPath>
					<path clip-path="url(#SVGID_76_)" fill="#FFFFFF" d="M161.311,115.603c1.858,0,3.372-1.513,3.372-3.37
						c0-1.858-1.513-3.367-3.372-3.367c-1.854,0-3.367,1.513-3.367,3.367S159.456,115.603,161.311,115.603z"/>
				</g>
				<g>
					<defs>
						<circle id="SVGID_77_" cx="93.749" cy="101.29" r="72.557"/>
					</defs>
					<clipPath id="SVGID_78_">
						<use xlink:href="#SVGID_77_"  overflow="visible"/>
					</clipPath>
					<path clip-path="url(#SVGID_78_)" fill="#FBB429" d="M123.552,166.976l13.049-1.896v3.789h-13.049V166.976L123.552,166.976z"/>
				</g>
				<g>
					<path fill="#FF5B61" d="M128.895,73.556l33.687,31.7c-0.411-0.071-0.836-0.111-1.271-0.111c-0.991,0-1.938,0.203-2.799,0.572
						l-30.394-30.178l-2.295,2.054l29.271,31.231c-0.556,1.013-0.872,2.174-0.872,3.411c0,0.181,0.008,0.362,0.022,0.537
						L123.75,78.253l-0.584-0.66l0.658-0.586l3.874-3.467l0.605-0.542L128.895,73.556L128.895,73.556z"/>
				</g>
				<g>
					<defs>
						<circle id="SVGID_79_" cx="93.749" cy="101.29" r="72.557"/>
					</defs>
					<clipPath id="SVGID_80_">
						<use xlink:href="#SVGID_79_"  overflow="visible"/>
					</clipPath>
					<path clip-path="url(#SVGID_80_)" fill="#0E7886" d="M113.949,70.975l7.42-7.378l10,10.059c2.03,2.039,2.018,5.369-0.022,7.398
						l0,0c-2.042,2.029-5.37,2.02-7.398-0.021L113.949,70.975L113.949,70.975L113.949,70.975z"/>
				</g>
				<g>
					<defs>
						<circle id="SVGID_81_" cx="93.749" cy="101.29" r="72.557"/>
					</defs>
					<clipPath id="SVGID_82_">
						<use xlink:href="#SVGID_81_"  overflow="visible"/>
					</clipPath>
					<path clip-path="url(#SVGID_82_)" fill="#FFFFFF" d="M127.988,79.915c1.427,0,2.588-1.162,2.588-2.587
						s-1.161-2.589-2.588-2.589s-2.591,1.164-2.591,2.589S126.56,79.915,127.988,79.915z"/>
				</g>
				<g>
					<defs>
						<circle id="SVGID_83_" cx="93.749" cy="101.29" r="72.557"/>
					</defs>
					<clipPath id="SVGID_84_">
						<use xlink:href="#SVGID_83_"  overflow="visible"/>
					</clipPath>
					<path clip-path="url(#SVGID_84_)" fill="#20D0C2" d="M39.733,144.604h54.119v1.825c-2.563,3.267-2.139,6.899,0,9.619v1.825
						H39.733C31.275,157.874,31.275,144.604,39.733,144.604L39.733,144.604z"/>
				</g>
				<g>
					<defs>
						<circle id="SVGID_85_" cx="93.749" cy="101.29" r="72.557"/>
					</defs>
					<clipPath id="SVGID_86_">
						<use xlink:href="#SVGID_85_"  overflow="visible"/>
					</clipPath>
					<path clip-path="url(#SVGID_86_)" fill="#FFFFFF" d="M93.85,156.052c-2.184-3.207-2.348-6.415,0-9.621H39.733
						c-2.545,0-4.632,2.169-4.632,4.811c0,2.643,2.087,4.811,4.632,4.811H93.85z"/>
				</g>
				<g>
					<defs>
						<circle id="SVGID_87_" cx="93.749" cy="101.29" r="72.557"/>
					</defs>
					<clipPath id="SVGID_88_">
						<use xlink:href="#SVGID_87_"  overflow="visible"/>
					</clipPath>
					<g clip-path="url(#SVGID_88_)">
						<path fill="#ECF0F1" d="M93.33,147.204c0.158-0.255,0.328-0.516,0.52-0.774H39.733c-5.174,0-6.628,7.419-1.407,9.39
							c-3.565-1.736-2.235-7.65,1.506-8.616L93.33,147.204L93.33,147.204z"/>
						<path fill="#ECF0F1" d="M92.797,148.122H36.216c0.105-0.128,0.213-0.248,0.332-0.363h56.433
							C92.915,147.881,92.853,148.001,92.797,148.122z M35.744,148.808L35.744,148.808c-0.067,0.118-0.13,0.235-0.189,0.36H92.39
							c0.039-0.121,0.08-0.24,0.122-0.36H35.744z M35.298,149.853L35.298,149.853c-0.034,0.119-0.065,0.241-0.093,0.365h56.951
							c0.019-0.121,0.039-0.243,0.062-0.365H35.298L35.298,149.853z M35.112,150.901L35.112,150.901
							c-0.006,0.112-0.012,0.225-0.012,0.34v0.023h56.984c0-0.121,0.003-0.242,0.007-0.363H35.112L35.112,150.901L35.112,150.901z
							 M35.15,151.949L35.15,151.949c0.018,0.124,0.041,0.244,0.064,0.362h56.954c-0.018-0.122-0.032-0.242-0.047-0.362H35.15z
							 M35.422,152.996L35.422,152.996c0.047,0.125,0.098,0.246,0.155,0.365h56.835c-0.037-0.121-0.071-0.242-0.102-0.365H35.422z
							 M35.978,154.043L35.978,154.043c0.086,0.128,0.178,0.249,0.279,0.363h56.569c-0.057-0.117-0.111-0.241-0.162-0.363H35.978z
							 M36.97,155.092L36.97,155.092c0.173,0.134,0.355,0.256,0.543,0.363h55.908c-0.079-0.119-0.153-0.239-0.227-0.363H36.97z"/>
					</g>
				</g>
				<g>
					<defs>
						<circle id="SVGID_89_" cx="93.749" cy="101.29" r="72.557"/>
					</defs>
					<clipPath id="SVGID_90_">
						<use xlink:href="#SVGID_89_"  overflow="visible"/>
					</clipPath>
					<path clip-path="url(#SVGID_90_)" fill="#FF5B61" d="M98.489,157.878H35.716v2.329c2.973,4.173,2.483,8.816,0,12.295v2.33
						h62.773C108.298,174.832,108.299,157.878,98.489,157.878L98.489,157.878z"/>
				</g>
				<g>
					<defs>
						<circle id="SVGID_91_" cx="93.749" cy="101.29" r="72.557"/>
					</defs>
					<clipPath id="SVGID_92_">
						<use xlink:href="#SVGID_91_"  overflow="visible"/>
					</clipPath>
					<path clip-path="url(#SVGID_92_)" fill="#FFFFFF" d="M35.716,172.499c2.533-4.096,2.725-8.192,0-12.292h62.776
						c2.95,0,5.375,2.771,5.375,6.146s-2.425,6.146-5.375,6.146H35.716L35.716,172.499z"/>
				</g>
				<g>
					<defs>
						<circle id="SVGID_93_" cx="93.749" cy="101.29" r="72.557"/>
					</defs>
					<clipPath id="SVGID_94_">
						<use xlink:href="#SVGID_93_"  overflow="visible"/>
					</clipPath>
					<g clip-path="url(#SVGID_94_)">
						<path fill="#ECF0F1" d="M36.317,161.197c-0.181-0.33-0.381-0.659-0.601-0.99h62.776c6.003,0,7.688,9.479,1.631,11.998
							c4.135-2.216,2.589-9.774-1.749-11.006L36.317,161.197L36.317,161.197z"/>
						<path fill="#ECF0F1" d="M36.938,162.366h65.633c-0.121-0.161-0.251-0.316-0.387-0.463h-65.46
							C36.801,162.058,36.872,162.213,36.938,162.366z M103.117,163.244L103.117,163.244c0.078,0.15,0.15,0.304,0.219,0.463H37.407
							c-0.042-0.153-0.089-0.309-0.141-0.463H103.117L103.117,163.244z M103.635,164.581L103.635,164.581
							c0.041,0.152,0.076,0.308,0.104,0.464h-66.06c-0.021-0.153-0.044-0.31-0.072-0.464H103.635L103.635,164.581z M103.854,165.921
							L103.854,165.921c0.005,0.144,0.014,0.285,0.014,0.433v0.032H37.764c0.003-0.155,0-0.31-0.006-0.465H103.854L103.854,165.921
							L103.854,165.921z M103.807,167.26L103.807,167.26c-0.019,0.157-0.045,0.312-0.078,0.465H37.665
							c0.022-0.154,0.041-0.308,0.057-0.465H103.807L103.807,167.26z M103.492,168.599L103.492,168.599
							c-0.056,0.157-0.116,0.313-0.183,0.465H37.38c0.044-0.155,0.084-0.31,0.121-0.465H103.492L103.492,168.599z M102.848,169.938
							L102.848,169.938c-0.101,0.161-0.209,0.315-0.324,0.464H36.905c0.066-0.152,0.128-0.309,0.188-0.464H102.848z
							 M101.696,171.277L101.696,171.277c-0.2,0.17-0.41,0.326-0.63,0.463H36.214c0.092-0.151,0.18-0.307,0.265-0.463H101.696
							L101.696,171.277z"/>
					</g>
				</g>
				<g>
					<defs>
						<circle id="SVGID_95_" cx="93.749" cy="101.29" r="72.557"/>
					</defs>
					<clipPath id="SVGID_96_">
						<use xlink:href="#SVGID_95_"  overflow="visible"/>
					</clipPath>
					<path clip-path="url(#SVGID_96_)" fill="#FBB429" d="M88.953,131.312H47.167v1.824c1.98,3.268,1.652,6.898,0,9.62v1.825h41.786
						C95.482,144.581,95.482,131.312,88.953,131.312L88.953,131.312L88.953,131.312z"/>
				</g>
				<g>
					<defs>
						<circle id="SVGID_97_" cx="93.749" cy="101.29" r="72.557"/>
					</defs>
					<clipPath id="SVGID_98_">
						<use xlink:href="#SVGID_97_"  overflow="visible"/>
					</clipPath>
					<path clip-path="url(#SVGID_98_)" fill="#FFFFFF" d="M47.167,142.756c1.684-3.204,1.815-6.413,0-9.618h41.786
						c1.967,0,3.578,2.168,3.578,4.812c0,2.642-1.611,4.81-3.578,4.81H47.167V142.756z"/>
				</g>
				<g>
					<defs>
						<circle id="SVGID_99_" cx="93.749" cy="101.29" r="72.557"/>
					</defs>
					<clipPath id="SVGID_100_">
						<use xlink:href="#SVGID_99_"  overflow="visible"/>
					</clipPath>
					<g clip-path="url(#SVGID_100_)">
						<path fill="#ECF0F1" d="M47.567,133.91c-0.122-0.258-0.254-0.516-0.4-0.774h41.786c3.996,0,5.118,7.42,1.087,9.392
							c2.752-1.736,1.726-7.651-1.164-8.617H47.567L47.567,133.91L47.567,133.91z"/>
						<path fill="#ECF0F1" d="M47.981,134.826h43.688c-0.081-0.127-0.167-0.249-0.256-0.362H47.838
							C47.889,134.584,47.936,134.704,47.981,134.826z M92.035,135.514L92.035,135.514c0.051,0.118,0.099,0.238,0.146,0.362H48.293
							c-0.029-0.121-0.059-0.241-0.091-0.362H92.035L92.035,135.514z M92.378,136.56L92.378,136.56
							c0.027,0.12,0.051,0.241,0.072,0.363H48.473c-0.012-0.121-0.03-0.242-0.046-0.363H92.378L92.378,136.56z M92.522,137.607
							L92.522,137.607c0.006,0.113,0.008,0.225,0.008,0.341v0.023H48.529c0-0.121,0-0.243-0.006-0.364H92.522z M92.491,138.657
							L92.491,138.657c-0.014,0.123-0.03,0.242-0.053,0.362H48.464c0.017-0.121,0.028-0.241,0.036-0.362H92.491z M92.283,139.705
							L92.283,139.705c-0.037,0.124-0.078,0.245-0.122,0.363H48.276c0.029-0.12,0.056-0.242,0.081-0.363H92.283z M91.853,140.753
							L91.853,140.753c-0.068,0.124-0.14,0.245-0.215,0.363H47.96c0.041-0.121,0.085-0.241,0.124-0.363H91.853z M91.087,141.8
							L91.087,141.8c-0.132,0.135-0.274,0.255-0.418,0.364h-43.17c0.063-0.118,0.12-0.242,0.177-0.364H91.087z"/>
					</g>
				</g>
				<g>
					<defs>
						<circle id="SVGID_101_" cx="93.749" cy="101.29" r="72.557"/>
					</defs>
					<clipPath id="SVGID_102_">
						<use xlink:href="#SVGID_101_"  overflow="visible"/>
					</clipPath>
					<path clip-path="url(#SVGID_102_)" fill="#20D0C2" d="M27.853,114.583h54.118v1.825c-2.564,3.267-2.139,6.9,0,9.621v1.824
						H27.853C19.397,127.854,19.396,114.582,27.853,114.583L27.853,114.583z"/>
				</g>
				<g>
					<defs>
						<circle id="SVGID_103_" cx="93.749" cy="101.29" r="72.557"/>
					</defs>
					<clipPath id="SVGID_104_">
						<use xlink:href="#SVGID_103_"  overflow="visible"/>
					</clipPath>
					<path clip-path="url(#SVGID_104_)" fill="#FFFFFF" d="M81.968,126.031c-2.183-3.208-2.349-6.413,0-9.621H27.853
						c-2.546,0-4.632,2.169-4.632,4.809c0,2.645,2.086,4.813,4.632,4.813H81.968z"/>
				</g>
				<g>
					<defs>
						<circle id="SVGID_105_" cx="93.749" cy="101.29" r="72.557"/>
					</defs>
					<clipPath id="SVGID_106_">
						<use xlink:href="#SVGID_105_"  overflow="visible"/>
					</clipPath>
					<g clip-path="url(#SVGID_106_)">
						<path fill="#ECF0F1" d="M81.449,117.183c0.158-0.258,0.33-0.515,0.519-0.776H27.853c-5.176,0-6.628,7.42-1.409,9.391
							c-3.565-1.736-2.232-7.649,1.508-8.614H81.449L81.449,117.183z"/>
						<path fill="#ECF0F1" d="M80.917,118.101H24.335c0.104-0.127,0.214-0.248,0.332-0.362H81.1
							C81.034,117.858,80.973,117.98,80.917,118.101z M23.863,118.784L23.863,118.784c-0.067,0.118-0.129,0.239-0.188,0.365H80.51
							c0.037-0.123,0.078-0.242,0.123-0.365H23.863z M23.417,119.831L23.417,119.831c-0.032,0.121-0.065,0.242-0.092,0.363h56.951
							c0.018-0.121,0.039-0.242,0.062-0.363H23.418H23.417z M23.231,120.88L23.231,120.88c-0.006,0.111-0.01,0.226-0.01,0.339v0.024
							h56.984c0-0.119,0.002-0.242,0.006-0.363H23.231L23.231,120.88L23.231,120.88z M23.269,121.928L23.269,121.928
							c0.018,0.123,0.042,0.242,0.065,0.363h56.954c-0.018-0.121-0.033-0.242-0.046-0.363H23.269z M23.542,122.977L23.542,122.977
							c0.045,0.125,0.098,0.245,0.155,0.361h56.835c-0.036-0.118-0.071-0.24-0.101-0.361H23.542z M24.096,124.024L24.096,124.024
							c0.087,0.125,0.18,0.246,0.279,0.362h56.57c-0.06-0.119-0.111-0.242-0.161-0.362H24.096z M25.088,125.071L25.088,125.071
							c0.175,0.134,0.355,0.256,0.543,0.363H81.54c-0.08-0.119-0.154-0.239-0.228-0.363H25.088z"/>
					</g>
				</g>
				<g>
					<defs>
						<circle id="SVGID_107_" cx="93.749" cy="101.29" r="72.557"/>
					</defs>
					<clipPath id="SVGID_108_">
						<use xlink:href="#SVGID_107_"  overflow="visible"/>
					</clipPath>
					<path clip-path="url(#SVGID_108_)" fill="#FF5B61" d="M86.609,127.855H23.836v2.332c2.971,4.173,2.48,8.816,0,12.293v2.333
						h62.773C96.416,144.812,96.419,127.855,86.609,127.855L86.609,127.855z"/>
				</g>
				<g>
					<defs>
						<circle id="SVGID_109_" cx="93.749" cy="101.29" r="72.557"/>
					</defs>
					<clipPath id="SVGID_110_">
						<use xlink:href="#SVGID_109_"  overflow="visible"/>
					</clipPath>
					<path clip-path="url(#SVGID_110_)" fill="#FFFFFF" d="M23.836,142.479c2.532-4.097,2.724-8.194,0-12.292h62.774
						c2.952,0,5.375,2.77,5.375,6.144c0,3.377-2.424,6.146-5.375,6.146L23.836,142.479L23.836,142.479z"/>
				</g>
				<g>
					<defs>
						<circle id="SVGID_111_" cx="93.749" cy="101.29" r="72.557"/>
					</defs>
					<clipPath id="SVGID_112_">
						<use xlink:href="#SVGID_111_"  overflow="visible"/>
					</clipPath>
					<g clip-path="url(#SVGID_112_)">
						<path fill="#ECF0F1" d="M24.436,131.175c-0.18-0.33-0.381-0.66-0.599-0.988h62.774c6.003,0,7.688,9.477,1.631,11.999
							c4.133-2.218,2.59-9.775-1.749-11.007L24.436,131.175L24.436,131.175z"/>
						<path fill="#ECF0F1" d="M25.056,132.346h65.634c-0.122-0.16-0.251-0.315-0.387-0.463H24.843
							C24.92,132.036,24.991,132.191,25.056,132.346z M91.236,133.221L91.236,133.221c0.08,0.152,0.152,0.306,0.22,0.466h-65.93
							c-0.042-0.155-0.088-0.311-0.141-0.466H91.236L91.236,133.221z M91.752,134.561L91.752,134.561
							c0.042,0.153,0.077,0.309,0.107,0.463h-66.06c-0.022-0.153-0.046-0.307-0.073-0.463H91.752L91.752,134.561z M91.971,135.901
							L91.971,135.901c0.007,0.143,0.014,0.285,0.014,0.43v0.032H25.884c0.001-0.155-0.001-0.309-0.007-0.465L91.971,135.901
							L91.971,135.901L91.971,135.901z M91.927,137.239L91.927,137.239c-0.021,0.156-0.047,0.312-0.078,0.463H25.785
							c0.021-0.153,0.039-0.31,0.057-0.463H91.927L91.927,137.239z M91.61,138.578L91.61,138.578
							c-0.056,0.158-0.114,0.313-0.183,0.465H25.5c0.042-0.155,0.084-0.31,0.119-0.465H91.61L91.61,138.578z M90.967,139.917
							L90.967,139.917c-0.1,0.16-0.208,0.316-0.325,0.464H25.023c0.068-0.153,0.129-0.309,0.189-0.464H90.967z M89.815,141.256
							L89.815,141.256c-0.201,0.17-0.411,0.326-0.629,0.463H24.333c0.092-0.153,0.18-0.308,0.266-0.463H89.815L89.815,141.256z"/>
					</g>
				</g>
				<g>
					<defs>
						<circle id="SVGID_113_" cx="93.749" cy="101.29" r="72.557"/>
					</defs>
					<clipPath id="SVGID_114_">
						<use xlink:href="#SVGID_113_"  overflow="visible"/>
					</clipPath>
					<path clip-path="url(#SVGID_114_)" fill="#FBB429" d="M77.071,101.29H35.287v1.825c1.978,3.267,1.651,6.899,0,9.62v1.826
						h41.785C83.602,114.562,83.602,101.29,77.071,101.29L77.071,101.29L77.071,101.29z"/>
				</g>
				<g>
					<defs>
						<circle id="SVGID_115_" cx="93.749" cy="101.29" r="72.557"/>
					</defs>
					<clipPath id="SVGID_116_">
						<use xlink:href="#SVGID_115_"  overflow="visible"/>
					</clipPath>
					<path clip-path="url(#SVGID_116_)" fill="#FFFFFF" d="M35.287,112.735c1.685-3.205,1.813-6.412,0-9.62h41.785
						c1.967,0,3.579,2.168,3.579,4.811c0,2.644-1.612,4.81-3.579,4.81H35.287z"/>
				</g>
				<g>
					<defs>
						<circle id="SVGID_117_" cx="93.749" cy="101.29" r="72.557"/>
					</defs>
					<clipPath id="SVGID_118_">
						<use xlink:href="#SVGID_117_"  overflow="visible"/>
					</clipPath>
					<g clip-path="url(#SVGID_118_)">
						<path fill="#ECF0F1" d="M35.685,103.889c-0.119-0.257-0.253-0.517-0.398-0.775h41.788c3.996,0,5.118,7.419,1.087,9.391
							c2.752-1.733,1.725-7.649-1.164-8.615H35.685L35.685,103.889L35.685,103.889z"/>
						<path fill="#ECF0F1" d="M36.102,104.806h43.687c-0.08-0.125-0.167-0.248-0.256-0.361H35.958
							C36.008,104.563,36.054,104.685,36.102,104.806z M80.155,105.491L80.155,105.491c0.05,0.118,0.099,0.239,0.145,0.362H36.412
							c-0.028-0.12-0.059-0.241-0.092-0.362H80.155L80.155,105.491z M80.497,106.538L80.497,106.538
							c0.027,0.121,0.051,0.242,0.071,0.363H36.593c-0.013-0.121-0.031-0.242-0.048-0.363H80.497L80.497,106.538z M80.643,107.588
							L80.643,107.588c0.005,0.112,0.008,0.225,0.008,0.338v0.026H36.649c0-0.122,0-0.243-0.006-0.363L80.643,107.588
							L80.643,107.588z M80.609,108.635L80.609,108.635c-0.012,0.124-0.029,0.245-0.051,0.363H36.584
							c0.017-0.121,0.028-0.24,0.038-0.363H80.609z M80.403,109.684L80.403,109.684c-0.038,0.123-0.08,0.245-0.122,0.362H36.395
							c0.031-0.117,0.057-0.239,0.082-0.362H80.403z M79.972,110.73L79.972,110.73c-0.068,0.126-0.139,0.247-0.216,0.364H36.078
							c0.041-0.12,0.085-0.242,0.125-0.364H79.972z M79.207,111.779L79.207,111.779c-0.133,0.134-0.273,0.256-0.419,0.365h-43.17
							c0.063-0.122,0.122-0.243,0.178-0.365H79.207z"/>
					</g>
				</g>
			</g>
			<g clip-path="url(#SVGID_6_)">
				<g>
					<defs>
						<circle id="SVGID_119_" cx="92.749" cy="102.29" r="72.557"/>
					</defs>
					<clipPath id="SVGID_120_">
						<use xlink:href="#SVGID_119_"  overflow="visible"/>
					</clipPath>
					<path clip-path="url(#SVGID_120_)" fill="#82EDE4" d="M70.733,73.391l-60.567,37.323c-0.316,2.824-0.481,5.693-0.481,8.603
						c0,34.052,38.805,62.946,69.411,73.181l26.479-84.064L70.733,73.391L70.733,73.391z"/>
				</g>
				<g>
					<defs>
						<circle id="SVGID_121_" cx="92.749" cy="102.29" r="72.557"/>
					</defs>
					<clipPath id="SVGID_122_">
						<use xlink:href="#SVGID_121_"  overflow="visible"/>
					</clipPath>
					<path clip-path="url(#SVGID_122_)" fill="#0E7886" d="M113.953,169.869h52.53c4.085,0,6.708,5.96,2.624,5.96h-57.781
						C107.245,175.832,109.869,169.869,113.953,169.869L113.953,169.869z"/>
				</g>
				<g>
					<defs>
						<circle id="SVGID_123_" cx="92.749" cy="102.29" r="72.557"/>
					</defs>
					<clipPath id="SVGID_124_">
						<use xlink:href="#SVGID_123_"  overflow="visible"/>
					</clipPath>
					<path clip-path="url(#SVGID_124_)" fill="#FF5B61" d="M165.736,117.829l-2.751,52.042h-6.209l5.475-49.699
						C163.631,119.766,164.839,118.938,165.736,117.829L165.736,117.829L165.736,117.829z M143.058,169.869L143.058,169.869h6.187
						l7.958-50.163c-1.151-0.584-2.13-1.487-2.825-2.596L143.058,169.869L143.058,169.869z"/>
				</g>
				<g>
					<defs>
						<circle id="SVGID_125_" cx="92.749" cy="102.29" r="72.557"/>
					</defs>
					<clipPath id="SVGID_126_">
						<use xlink:href="#SVGID_125_"  overflow="visible"/>
					</clipPath>
					<path clip-path="url(#SVGID_126_)" fill="#0E7886" d="M93.156,68.451l12.473-12.399c3.077-3.061,8.099-3.045,11.16,0.032
						l6.356,6.394c3.06,3.077,3.046,8.098-0.033,11.161l-12.468,12.398L93.156,68.451z"/>
				</g>
				<g>
					<defs>
						<circle id="SVGID_127_" cx="92.749" cy="102.29" r="72.557"/>
					</defs>
					<clipPath id="SVGID_128_">
						<use xlink:href="#SVGID_127_"  overflow="visible"/>
					</clipPath>
					<path clip-path="url(#SVGID_128_)" fill="#FFFFFF" d="M81.11,97.918c-4.624-4.649-4.519-12.25,0.23-16.972
						c3.216-3.196,7.735-4.259,11.752-3.17l3.945-3.921c0.473-0.469,1.23-0.476,1.688-0.013l6.136,6.168
						c0.458,0.463,0.447,1.22-0.022,1.689l-3.714,3.69c1.372,4.184,0.349,9.019-3.042,12.392
						C93.331,102.503,85.733,102.564,81.11,97.918L81.11,97.918L81.11,97.918z"/>
				</g>
				<g>
					<defs>
						<circle id="SVGID_129_" cx="92.749" cy="102.29" r="72.557"/>
					</defs>
					<clipPath id="SVGID_130_">
						<use xlink:href="#SVGID_129_"  overflow="visible"/>
					</clipPath>
					<g clip-path="url(#SVGID_130_)">
						<path fill="#0E7886" d="M70.733,73.391c26.15-26.002,60.992,9.039,34.841,35.042L70.733,73.391z"/>
						<path fill="#0E7886" d="M160.311,120.322c3.908,0,7.093-3.183,7.093-7.087c0-3.906-3.185-7.091-7.093-7.091
							c-3.903,0-7.088,3.185-7.088,7.091C153.222,117.14,156.407,120.322,160.311,120.322z"/>
					</g>
				</g>
				<g>
					<defs>
						<circle id="SVGID_131_" cx="92.749" cy="102.29" r="72.557"/>
					</defs>
					<clipPath id="SVGID_132_">
						<use xlink:href="#SVGID_131_"  overflow="visible"/>
					</clipPath>
					<path clip-path="url(#SVGID_132_)" fill="#FFFFFF" d="M160.311,116.603c1.858,0,3.372-1.513,3.372-3.37
						c0-1.858-1.513-3.367-3.372-3.367c-1.854,0-3.367,1.513-3.367,3.367S158.456,116.603,160.311,116.603z"/>
				</g>
				<g>
					<defs>
						<circle id="SVGID_133_" cx="92.749" cy="102.29" r="72.557"/>
					</defs>
					<clipPath id="SVGID_134_">
						<use xlink:href="#SVGID_133_"  overflow="visible"/>
					</clipPath>
					<path clip-path="url(#SVGID_134_)" fill="#FBB429" d="M122.552,167.976l13.049-1.896v3.789h-13.049V167.976L122.552,167.976z"
						/>
				</g>
				<g>
					<path fill="#FF5B61" d="M127.895,74.556l33.687,31.7c-0.411-0.071-0.836-0.111-1.271-0.111c-0.991,0-1.938,0.203-2.799,0.572
						l-30.394-30.178l-2.295,2.054l29.271,31.231c-0.556,1.013-0.872,2.174-0.872,3.411c0,0.181,0.008,0.362,0.022,0.537
						L122.75,79.253l-0.584-0.66l0.658-0.586l3.874-3.467l0.605-0.542L127.895,74.556L127.895,74.556z"/>
				</g>
				<g>
					<defs>
						<circle id="SVGID_135_" cx="92.749" cy="102.29" r="72.557"/>
					</defs>
					<clipPath id="SVGID_136_">
						<use xlink:href="#SVGID_135_"  overflow="visible"/>
					</clipPath>
					<path clip-path="url(#SVGID_136_)" fill="#0E7886" d="M112.949,71.975l7.42-7.378l10,10.059
						c2.03,2.039,2.018,5.369-0.022,7.398l0,0c-2.042,2.029-5.37,2.02-7.398-0.021L112.949,71.975L112.949,71.975L112.949,71.975z"
						/>
				</g>
				<g>
					<defs>
						<circle id="SVGID_137_" cx="92.749" cy="102.29" r="72.557"/>
					</defs>
					<clipPath id="SVGID_138_">
						<use xlink:href="#SVGID_137_"  overflow="visible"/>
					</clipPath>
					<path clip-path="url(#SVGID_138_)" fill="#FFFFFF" d="M126.988,80.915c1.427,0,2.588-1.162,2.588-2.587
						s-1.161-2.589-2.588-2.589s-2.591,1.164-2.591,2.589S125.56,80.915,126.988,80.915z"/>
				</g>
				<g>
					<defs>
						<circle id="SVGID_139_" cx="92.749" cy="102.29" r="72.557"/>
					</defs>
					<clipPath id="SVGID_140_">
						<use xlink:href="#SVGID_139_"  overflow="visible"/>
					</clipPath>
					<path clip-path="url(#SVGID_140_)" fill="#20D0C2" d="M38.733,145.604h54.119v1.825c-2.563,3.267-2.139,6.899,0,9.619v1.825
						H38.733C30.275,158.874,30.275,145.604,38.733,145.604L38.733,145.604z"/>
				</g>
				<g>
					<defs>
						<circle id="SVGID_141_" cx="92.749" cy="102.29" r="72.557"/>
					</defs>
					<clipPath id="SVGID_142_">
						<use xlink:href="#SVGID_141_"  overflow="visible"/>
					</clipPath>
					<path clip-path="url(#SVGID_142_)" fill="#FFFFFF" d="M92.85,157.052c-2.184-3.207-2.348-6.415,0-9.621H38.733
						c-2.545,0-4.632,2.169-4.632,4.811c0,2.643,2.087,4.811,4.632,4.811H92.85z"/>
				</g>
				<g>
					<defs>
						<circle id="SVGID_143_" cx="92.749" cy="102.29" r="72.557"/>
					</defs>
					<clipPath id="SVGID_144_">
						<use xlink:href="#SVGID_143_"  overflow="visible"/>
					</clipPath>
					<g clip-path="url(#SVGID_144_)">
						<path fill="#ECF0F1" d="M92.33,148.204c0.158-0.255,0.328-0.516,0.52-0.774H38.733c-5.174,0-6.628,7.419-1.407,9.39
							c-3.565-1.736-2.235-7.65,1.506-8.616L92.33,148.204L92.33,148.204z"/>
						<path fill="#ECF0F1" d="M91.797,149.122H35.216c0.105-0.128,0.213-0.248,0.332-0.363h56.433
							C91.915,148.881,91.853,149.001,91.797,149.122z M34.744,149.808L34.744,149.808c-0.067,0.118-0.13,0.235-0.189,0.36H91.39
							c0.039-0.121,0.08-0.24,0.122-0.36H34.744z M34.298,150.853L34.298,150.853c-0.034,0.119-0.065,0.241-0.093,0.365h56.951
							c0.019-0.121,0.039-0.243,0.062-0.365H34.298L34.298,150.853z M34.112,151.901L34.112,151.901
							c-0.006,0.112-0.012,0.225-0.012,0.34v0.023h56.984c0-0.121,0.003-0.242,0.007-0.363H34.112L34.112,151.901L34.112,151.901z
							 M34.15,152.949L34.15,152.949c0.018,0.124,0.041,0.244,0.064,0.362h56.954c-0.018-0.122-0.032-0.242-0.047-0.362H34.15z
							 M34.422,153.996L34.422,153.996c0.047,0.125,0.098,0.246,0.155,0.365h56.835c-0.037-0.121-0.071-0.242-0.102-0.365H34.422z
							 M34.978,155.043L34.978,155.043c0.086,0.128,0.178,0.249,0.279,0.363h56.569c-0.057-0.117-0.111-0.241-0.162-0.363H34.978z
							 M35.97,156.092L35.97,156.092c0.173,0.134,0.355,0.256,0.543,0.363h55.908c-0.079-0.119-0.153-0.239-0.227-0.363H35.97z"/>
					</g>
				</g>
				<g>
					<defs>
						<circle id="SVGID_145_" cx="92.749" cy="102.29" r="72.557"/>
					</defs>
					<clipPath id="SVGID_146_">
						<use xlink:href="#SVGID_145_"  overflow="visible"/>
					</clipPath>
					<path clip-path="url(#SVGID_146_)" fill="#FF5B61" d="M97.489,158.878H34.716v2.329c2.973,4.173,2.483,8.816,0,12.295v2.33
						h62.773C107.298,175.832,107.299,158.878,97.489,158.878L97.489,158.878z"/>
				</g>
				<g>
					<defs>
						<circle id="SVGID_147_" cx="92.749" cy="102.29" r="72.557"/>
					</defs>
					<clipPath id="SVGID_148_">
						<use xlink:href="#SVGID_147_"  overflow="visible"/>
					</clipPath>
					<path clip-path="url(#SVGID_148_)" fill="#FFFFFF" d="M34.716,173.499c2.533-4.096,2.725-8.192,0-12.292h62.776
						c2.95,0,5.375,2.771,5.375,6.146s-2.425,6.146-5.375,6.146H34.716L34.716,173.499z"/>
				</g>
				<g>
					<defs>
						<circle id="SVGID_149_" cx="92.749" cy="102.29" r="72.557"/>
					</defs>
					<clipPath id="SVGID_150_">
						<use xlink:href="#SVGID_149_"  overflow="visible"/>
					</clipPath>
					<g clip-path="url(#SVGID_150_)">
						<path fill="#ECF0F1" d="M35.317,162.197c-0.181-0.33-0.381-0.659-0.601-0.99h62.776c6.003,0,7.688,9.479,1.631,11.998
							c4.135-2.216,2.589-9.774-1.749-11.006L35.317,162.197L35.317,162.197z"/>
						<path fill="#ECF0F1" d="M35.938,163.366h65.633c-0.121-0.161-0.251-0.316-0.387-0.463h-65.46
							C35.801,163.058,35.872,163.213,35.938,163.366z M102.117,164.244L102.117,164.244c0.078,0.15,0.15,0.304,0.219,0.463H36.407
							c-0.042-0.153-0.089-0.309-0.141-0.463H102.117L102.117,164.244z M102.635,165.581L102.635,165.581
							c0.041,0.152,0.076,0.308,0.104,0.464h-66.06c-0.021-0.153-0.044-0.31-0.072-0.464H102.635L102.635,165.581z M102.854,166.921
							L102.854,166.921c0.005,0.144,0.014,0.285,0.014,0.433v0.032H36.764c0.003-0.155,0-0.31-0.006-0.465H102.854L102.854,166.921
							L102.854,166.921z M102.807,168.26L102.807,168.26c-0.019,0.157-0.045,0.312-0.078,0.465H36.665
							c0.022-0.154,0.041-0.308,0.057-0.465H102.807L102.807,168.26z M102.492,169.599L102.492,169.599
							c-0.056,0.157-0.116,0.313-0.183,0.465H36.38c0.044-0.155,0.084-0.31,0.121-0.465H102.492L102.492,169.599z M101.848,170.938
							L101.848,170.938c-0.101,0.161-0.209,0.315-0.324,0.464H35.905c0.066-0.152,0.128-0.309,0.188-0.464H101.848z
							 M100.696,172.277L100.696,172.277c-0.2,0.17-0.41,0.326-0.63,0.463H35.214c0.092-0.151,0.18-0.307,0.265-0.463H100.696
							L100.696,172.277z"/>
					</g>
				</g>
				<g>
					<defs>
						<circle id="SVGID_151_" cx="92.749" cy="102.29" r="72.557"/>
					</defs>
					<clipPath id="SVGID_152_">
						<use xlink:href="#SVGID_151_"  overflow="visible"/>
					</clipPath>
					<path clip-path="url(#SVGID_152_)" fill="#FBB429" d="M87.953,132.312H46.167v1.824c1.98,3.268,1.652,6.898,0,9.62v1.825
						h41.786C94.482,145.581,94.482,132.312,87.953,132.312L87.953,132.312L87.953,132.312z"/>
				</g>
				<g>
					<defs>
						<circle id="SVGID_153_" cx="92.749" cy="102.29" r="72.557"/>
					</defs>
					<clipPath id="SVGID_154_">
						<use xlink:href="#SVGID_153_"  overflow="visible"/>
					</clipPath>
					<path clip-path="url(#SVGID_154_)" fill="#FFFFFF" d="M46.167,143.756c1.684-3.204,1.815-6.413,0-9.618h41.786
						c1.967,0,3.578,2.168,3.578,4.812c0,2.642-1.611,4.81-3.578,4.81H46.167V143.756z"/>
				</g>
				<g>
					<defs>
						<circle id="SVGID_155_" cx="92.749" cy="102.29" r="72.557"/>
					</defs>
					<clipPath id="SVGID_156_">
						<use xlink:href="#SVGID_155_"  overflow="visible"/>
					</clipPath>
					<g clip-path="url(#SVGID_156_)">
						<path fill="#ECF0F1" d="M46.567,134.91c-0.122-0.258-0.254-0.516-0.4-0.774h41.786c3.996,0,5.118,7.42,1.087,9.392
							c2.752-1.736,1.726-7.651-1.164-8.617H46.567L46.567,134.91L46.567,134.91z"/>
						<path fill="#ECF0F1" d="M46.981,135.826h43.688c-0.081-0.127-0.167-0.249-0.256-0.362H46.838
							C46.889,135.584,46.936,135.704,46.981,135.826z M91.035,136.514L91.035,136.514c0.051,0.118,0.099,0.238,0.146,0.362H47.293
							c-0.029-0.121-0.059-0.241-0.091-0.362H91.035L91.035,136.514z M91.378,137.56L91.378,137.56
							c0.027,0.12,0.051,0.241,0.072,0.363H47.473c-0.012-0.121-0.03-0.242-0.046-0.363H91.378L91.378,137.56z M91.522,138.607
							L91.522,138.607c0.006,0.113,0.008,0.225,0.008,0.341v0.023H47.529c0-0.121,0-0.243-0.006-0.364H91.522z M91.491,139.657
							L91.491,139.657c-0.014,0.123-0.03,0.242-0.053,0.362H47.464c0.017-0.121,0.028-0.241,0.036-0.362H91.491z M91.283,140.705
							L91.283,140.705c-0.037,0.124-0.078,0.245-0.122,0.363H47.276c0.029-0.12,0.056-0.242,0.081-0.363H91.283z M90.853,141.753
							L90.853,141.753c-0.068,0.124-0.14,0.245-0.215,0.363H46.96c0.041-0.121,0.085-0.241,0.124-0.363H90.853z M90.087,142.8
							L90.087,142.8c-0.132,0.135-0.274,0.255-0.418,0.364h-43.17c0.063-0.118,0.12-0.242,0.177-0.364H90.087z"/>
					</g>
				</g>
				<g>
					<defs>
						<circle id="SVGID_157_" cx="92.749" cy="102.29" r="72.557"/>
					</defs>
					<clipPath id="SVGID_158_">
						<use xlink:href="#SVGID_157_"  overflow="visible"/>
					</clipPath>
					<path clip-path="url(#SVGID_158_)" fill="#20D0C2" d="M26.853,115.583h54.118v1.825c-2.564,3.267-2.139,6.9,0,9.621v1.824
						H26.853C18.397,128.854,18.396,115.582,26.853,115.583L26.853,115.583z"/>
				</g>
				<g>
					<defs>
						<circle id="SVGID_159_" cx="92.749" cy="102.29" r="72.557"/>
					</defs>
					<clipPath id="SVGID_160_">
						<use xlink:href="#SVGID_159_"  overflow="visible"/>
					</clipPath>
					<path clip-path="url(#SVGID_160_)" fill="#FFFFFF" d="M80.968,127.031c-2.183-3.208-2.349-6.413,0-9.621H26.853
						c-2.546,0-4.632,2.169-4.632,4.809c0,2.645,2.086,4.813,4.632,4.813H80.968z"/>
				</g>
				<g>
					<defs>
						<circle id="SVGID_161_" cx="92.749" cy="102.29" r="72.557"/>
					</defs>
					<clipPath id="SVGID_162_">
						<use xlink:href="#SVGID_161_"  overflow="visible"/>
					</clipPath>
					<g clip-path="url(#SVGID_162_)">
						<path fill="#ECF0F1" d="M80.449,118.183c0.158-0.258,0.33-0.515,0.519-0.776H26.853c-5.176,0-6.628,7.42-1.409,9.391
							c-3.565-1.736-2.232-7.649,1.508-8.614H80.449L80.449,118.183z"/>
						<path fill="#ECF0F1" d="M79.917,119.101H23.335c0.104-0.127,0.214-0.248,0.332-0.362H80.1
							C80.034,118.858,79.973,118.98,79.917,119.101z M22.863,119.784L22.863,119.784c-0.067,0.118-0.129,0.239-0.188,0.365H79.51
							c0.037-0.123,0.078-0.242,0.123-0.365H22.863z M22.417,120.831L22.417,120.831c-0.032,0.121-0.065,0.242-0.092,0.363h56.951
							c0.018-0.121,0.039-0.242,0.062-0.363H22.418H22.417z M22.231,121.88L22.231,121.88c-0.006,0.111-0.01,0.226-0.01,0.339v0.024
							h56.984c0-0.119,0.002-0.242,0.006-0.363H22.231L22.231,121.88L22.231,121.88z M22.269,122.928L22.269,122.928
							c0.018,0.123,0.042,0.242,0.065,0.363h56.954c-0.018-0.121-0.033-0.242-0.046-0.363H22.269z M22.542,123.977L22.542,123.977
							c0.045,0.125,0.098,0.245,0.155,0.361h56.835c-0.036-0.118-0.071-0.24-0.101-0.361H22.542z M23.096,125.024L23.096,125.024
							c0.087,0.125,0.18,0.246,0.279,0.362h56.57c-0.06-0.119-0.111-0.242-0.161-0.362H23.096z M24.088,126.071L24.088,126.071
							c0.175,0.134,0.355,0.256,0.543,0.363H80.54c-0.08-0.119-0.154-0.239-0.228-0.363H24.088z"/>
					</g>
				</g>
				<g>
					<defs>
						<circle id="SVGID_163_" cx="92.749" cy="102.29" r="72.557"/>
					</defs>
					<clipPath id="SVGID_164_">
						<use xlink:href="#SVGID_163_"  overflow="visible"/>
					</clipPath>
					<path clip-path="url(#SVGID_164_)" fill="#FF5B61" d="M85.609,128.855H22.836v2.332c2.971,4.173,2.48,8.816,0,12.293v2.333
						h62.773C95.416,145.812,95.419,128.855,85.609,128.855L85.609,128.855z"/>
				</g>
				<g>
					<defs>
						<circle id="SVGID_165_" cx="92.749" cy="102.29" r="72.557"/>
					</defs>
					<clipPath id="SVGID_166_">
						<use xlink:href="#SVGID_165_"  overflow="visible"/>
					</clipPath>
					<path clip-path="url(#SVGID_166_)" fill="#FFFFFF" d="M22.836,143.479c2.532-4.097,2.724-8.194,0-12.292h62.774
						c2.952,0,5.375,2.77,5.375,6.144c0,3.377-2.424,6.146-5.375,6.146L22.836,143.479L22.836,143.479z"/>
				</g>
				<g>
					<defs>
						<circle id="SVGID_167_" cx="92.749" cy="102.29" r="72.557"/>
					</defs>
					<clipPath id="SVGID_168_">
						<use xlink:href="#SVGID_167_"  overflow="visible"/>
					</clipPath>
					<g clip-path="url(#SVGID_168_)">
						<path fill="#ECF0F1" d="M23.436,132.175c-0.18-0.33-0.381-0.66-0.599-0.988h62.774c6.003,0,7.688,9.477,1.631,11.999
							c4.133-2.218,2.59-9.775-1.749-11.007L23.436,132.175L23.436,132.175z"/>
						<path fill="#ECF0F1" d="M24.056,133.346h65.634c-0.122-0.16-0.251-0.315-0.387-0.463H23.843
							C23.92,133.036,23.991,133.191,24.056,133.346z M90.236,134.221L90.236,134.221c0.08,0.152,0.152,0.306,0.22,0.466h-65.93
							c-0.042-0.155-0.088-0.311-0.141-0.466H90.236L90.236,134.221z M90.752,135.561L90.752,135.561
							c0.042,0.153,0.077,0.309,0.107,0.463h-66.06c-0.022-0.153-0.046-0.307-0.073-0.463H90.752L90.752,135.561z M90.971,136.901
							L90.971,136.901c0.007,0.143,0.014,0.285,0.014,0.43v0.032H24.884c0.001-0.155-0.001-0.309-0.007-0.465L90.971,136.901
							L90.971,136.901L90.971,136.901z M90.927,138.239L90.927,138.239c-0.021,0.156-0.047,0.312-0.078,0.463H24.785
							c0.021-0.153,0.039-0.31,0.057-0.463H90.927L90.927,138.239z M90.61,139.578L90.61,139.578
							c-0.056,0.158-0.114,0.313-0.183,0.465H24.5c0.042-0.155,0.084-0.31,0.119-0.465H90.61L90.61,139.578z M89.967,140.917
							L89.967,140.917c-0.1,0.16-0.208,0.316-0.325,0.464H24.023c0.068-0.153,0.129-0.309,0.189-0.464H89.967z M88.815,142.256
							L88.815,142.256c-0.201,0.17-0.411,0.326-0.629,0.463H23.333c0.092-0.153,0.18-0.308,0.266-0.463H88.815L88.815,142.256z"/>
					</g>
				</g>
				<g>
					<defs>
						<circle id="SVGID_169_" cx="92.749" cy="102.29" r="72.557"/>
					</defs>
					<clipPath id="SVGID_170_">
						<use xlink:href="#SVGID_169_"  overflow="visible"/>
					</clipPath>
					<path clip-path="url(#SVGID_170_)" fill="#FBB429" d="M76.071,102.29H34.287v1.825c1.978,3.267,1.651,6.899,0,9.62v1.826
						h41.785C82.602,115.562,82.602,102.29,76.071,102.29L76.071,102.29L76.071,102.29z"/>
				</g>
				<g>
					<defs>
						<circle id="SVGID_171_" cx="92.749" cy="102.29" r="72.557"/>
					</defs>
					<clipPath id="SVGID_172_">
						<use xlink:href="#SVGID_171_"  overflow="visible"/>
					</clipPath>
					<path clip-path="url(#SVGID_172_)" fill="#FFFFFF" d="M34.287,113.735c1.685-3.205,1.813-6.412,0-9.62h41.785
						c1.967,0,3.579,2.168,3.579,4.811c0,2.644-1.612,4.81-3.579,4.81H34.287z"/>
				</g>
				<g>
					<defs>
						<circle id="SVGID_173_" cx="92.749" cy="102.29" r="72.557"/>
					</defs>
					<clipPath id="SVGID_174_">
						<use xlink:href="#SVGID_173_"  overflow="visible"/>
					</clipPath>
					<g clip-path="url(#SVGID_174_)">
						<path fill="#ECF0F1" d="M34.685,104.889c-0.119-0.257-0.253-0.517-0.398-0.775h41.788c3.996,0,5.118,7.419,1.087,9.391
							c2.752-1.733,1.725-7.649-1.164-8.615H34.685L34.685,104.889L34.685,104.889z"/>
						<path fill="#ECF0F1" d="M35.102,105.806h43.687c-0.08-0.125-0.167-0.248-0.256-0.361H34.958
							C35.008,105.563,35.054,105.685,35.102,105.806z M79.155,106.491L79.155,106.491c0.05,0.118,0.099,0.239,0.145,0.362H35.412
							c-0.028-0.12-0.059-0.241-0.092-0.362H79.155L79.155,106.491z M79.497,107.538L79.497,107.538
							c0.027,0.121,0.051,0.242,0.071,0.363H35.593c-0.013-0.121-0.031-0.242-0.048-0.363H79.497L79.497,107.538z M79.643,108.588
							L79.643,108.588c0.005,0.112,0.008,0.225,0.008,0.338v0.026H35.649c0-0.122,0-0.243-0.006-0.363L79.643,108.588
							L79.643,108.588z M79.609,109.635L79.609,109.635c-0.012,0.124-0.029,0.245-0.051,0.363H35.584
							c0.017-0.121,0.028-0.24,0.038-0.363H79.609z M79.403,110.684L79.403,110.684c-0.038,0.123-0.08,0.245-0.122,0.362H35.395
							c0.031-0.117,0.057-0.239,0.082-0.362H79.403z M78.972,111.73L78.972,111.73c-0.068,0.126-0.139,0.247-0.216,0.364H35.078
							c0.041-0.12,0.085-0.242,0.125-0.364H78.972z M78.207,112.779L78.207,112.779c-0.133,0.134-0.273,0.256-0.419,0.365h-43.17
							c0.063-0.122,0.122-0.243,0.178-0.365H78.207z"/>
					</g>
				</g>
			</g>
		</g>
	</g>
</g>
</svg>
