<?xml version="1.0" encoding="utf-8"?>
<!-- Generator: Adobe Illustrator 16.0.0, SVG Export Plug-In . SVG Version: 6.00 Build 0)  -->
<!DOCTYPE svg PUBLIC "-//W3C//DTD SVG 1.1//EN" "http://www.w3.org/Graphics/SVG/1.1/DTD/svg11.dtd">
<svg version="1.1" id="Layer_1" xmlns="http://www.w3.org/2000/svg" xmlns:xlink="http://www.w3.org/1999/xlink" x="0px" y="0px"
	 width="348.414px" height="73.401px" viewBox="0 0 348.414 73.401" enable-background="new 0 0 348.414 73.401"
	 xml:space="preserve">
<g>
	<defs>
		<rect id="SVGID_1_" x="0.001" y="0" width="348.413" height="73.401"/>
	</defs>
	<clipPath id="SVGID_2_">
		<use xlink:href="#SVGID_1_"  overflow="visible"/>
	</clipPath>
	<path clip-path="url(#SVGID_2_)" fill="#4F4F4F" d="M23.256,4.159l104.731-4.115c0.77-0.08,1.541-0.047,2.288,0.083
		c1.655,0.29,3.205,1.063,4.385,2.12c1.204,1.08,2.04,2.465,2.24,3.957c0.078,0.589,0.059,1.194-0.077,1.803l-10.928,49.262
		c-0.459,2.064-1.479,3.99-3.023,5.361c-1.452,1.287-3.34,2.092-5.636,2.092l-18.527-0.641l0.747-1.313l1.776,0.984l1.224-2.111
		l10.65,0.381c1.32,0,2.411-0.463,3.253-1.211c1.03-0.914,1.723-2.25,2.046-3.709l10.191-45.938
		c0.066-0.304,0.077-0.604,0.037-0.902c-0.109-0.817-0.588-1.599-1.28-2.221c-0.716-0.642-1.646-1.104-2.631-1.276
		c-0.415-0.073-0.841-0.095-1.26-0.046L23.211,10.361c-0.247,0.027-0.472,0.057-0.667,0.093c-1.381,0.25-2.717,0.813-3.657,1.604
		c-0.819,0.687-1.313,1.551-1.186,2.511c0.013,0.101,0.027,0.181,0.039,0.237l9.06,39.396c0.337,1.467,1.032,2.813,2.065,3.729
		c0.838,0.738,1.921,1.199,3.238,1.199l47.27,1.688c-0.384,0.643-0.756,1.262-0.895,1.559l1.853,1.072l-47.184-1.623
		c-2.287,0-4.164-0.799-5.61-2.082l-0.007-0.006c-1.541-1.369-2.562-3.293-3.035-5.357l-9.714-42.248
		c-0.043-0.185-0.073-0.342-0.091-0.475c-0.263-1.972,0.661-3.671,2.208-4.967c1.418-1.188,3.386-2.024,5.394-2.388
		C22.64,4.238,22.963,4.189,23.256,4.159"/>
	<g opacity="0.5" clip-path="url(#SVGID_2_)" enable-background="new    ">
		<g>
			<defs>
				<rect id="SVGID_3_" x="36.054" y="12.065" width="38.83" height="29.922"/>
			</defs>
			<clipPath id="SVGID_4_">
				<use xlink:href="#SVGID_3_"  overflow="visible"/>
			</clipPath>
			<path clip-path="url(#SVGID_4_)" fill="#4F4F4F" d="M40.034,15.325l30.708-3.241c0.356-0.037,0.712-0.02,1.059,0.039
				c0.765,0.134,1.481,0.491,2.026,0.981c0.558,0.499,0.944,1.139,1.036,1.83c0.036,0.27,0.027,0.551-0.035,0.833L69.774,38.54
				c-0.212,0.957-0.684,1.854-1.397,2.482c-0.672,0.596-1.545,0.965-2.606,0.965H44.608c-1.058,0-1.925-0.369-2.595-0.963
				l-0.002-0.002c-0.713-0.633-1.185-1.523-1.404-2.479l-4.492-19.533c-0.02-0.085-0.033-0.158-0.041-0.225
				c-0.122-0.912,0.306-1.693,1.021-2.297c0.655-0.548,1.565-0.936,2.494-1.103C39.75,15.361,39.898,15.339,40.034,15.325
				 M68.649,15.17l-28.636,3.022c-0.114,0.012-0.218,0.028-0.308,0.043c-0.64,0.117-1.257,0.375-1.692,0.741
				c-0.379,0.312-0.607,0.716-0.548,1.161c0.006,0.046,0.013,0.083,0.019,0.104l4.188,18.221c0.156,0.682,0.478,1.303,0.955,1.727
				c0.388,0.344,0.889,0.557,1.498,0.557H63.86c0.611,0,1.115-0.215,1.505-0.561c0.477-0.422,0.796-1.039,0.946-1.715l4.712-21.24
				c0.031-0.145,0.036-0.282,0.018-0.418c-0.051-0.378-0.271-0.739-0.592-1.026c-0.332-0.297-0.762-0.512-1.216-0.592
				C69.04,15.159,68.844,15.15,68.649,15.17"/>
		</g>
	</g>
	<path clip-path="url(#SVGID_2_)" fill="#4F4F4F" d="M78.983,53.308c-0.162,0.277-0.322,0.428-0.526,0.785l-1.563,2.709
		c0.288,0.166,0.585,0.326,0.87,0.5c0.318,0.188,0.454,0.338,0.832,0.555c-1.048,1.813-1.937,3.479-2.979,5.287
		c1.48,0.852,2.832,1.707,4.356,2.586l8.938,5.162c1.542,0.889,2.977,1.645,4.474,2.51c0.257-0.445,0.325-0.801,0.71-1.283
		c0.325-0.406,0.861-1.459,1.197-2.02c0.177-0.303,0.253-0.314,0.431-0.611c0.295-0.492,0.422-0.859,0.727-1.389
		c0.286,0.416,1.281,0.732,1.733,1c1.024-1.773,2.019-3.371,3.057-5.174c0.536,0.162,1.028,0.563,1.497,0.807
		c0.26,0.135,0.271,0.131,0.428-0.115c0.402-0.633,0.803-1.406,1.186-2.068c0.781-1.354,1.563-2.709,2.346-4.063l3.439-5.959
		c-0.479-0.277-1.41-0.729-1.775-1.072l-7.126,12.314l-1.776-0.988l-3.02,5.305l-1.817-1.025l-2.043,3.492L78.481,62.38
		c0.322-0.688,1.897-3.104,1.97-3.551l-1.719-1.012c0.524-0.908,1.055-1.814,1.575-2.73c0.52-0.906,0.549-0.738-0.054-1.096
		C79.834,53.749,79.424,53.497,78.983,53.308"/>
	<path clip-path="url(#SVGID_2_)" fill="#4F4F4F" d="M84.345,39.88l-1.025,1.775l1.753,1.033l-0.977,1.727l1.742,1.006l11.19-19.414
		l-1.722-0.976c-0.014,0.008-0.024,0.009-0.039,0.03l-0.074,0.062c-0.011,0.018-0.023,0.027-0.035,0.042l-9.04,15.65
		C85.48,40.454,84.978,40.202,84.345,39.88"/>
	<path clip-path="url(#SVGID_2_)" fill="#4F4F4F" d="M100.651,28.122l-9.193,15.858l1.742,1.018l4.063-7.043
		c0.385,0.117,3.306,1.799,3.556,2.061c0.384,0.396,3.722,2.197,4.472,2.635c0.013-0.092,0.147-0.061-0.254-0.301l-3.529-2.027
		c-0.847-0.482-0.78-0.148,0.351-2.107L99.2,36.678c-0.346-0.202-0.453-0.342-0.832-0.561l4.034-6.988
		c-0.451-0.261-0.733-0.531-1.324-0.837C100.832,28.169,100.864,28.235,100.651,28.122"/>
	<path clip-path="url(#SVGID_2_)" fill="#4F4F4F" d="M105.112,44.802l1.022-1.74c-0.27-0.154-0.559-0.371-0.845-0.416
		c-0.75-0.439-4.088-2.238-4.472-2.635l-4.083,7.021l1.765,1.02l3.063-5.291L105.112,44.802z"/>
	<path clip-path="url(#SVGID_2_)" fill="#4F4F4F" d="M78.768,41.419c-0.151,0.25-0.214,0.242-0.554,0.834
		c-0.177,0.313-0.354,0.613-0.531,0.92l1.679,0.975c-0.166,0.547-1.646,3.102-1.925,3.584l1.734,1l-1.533,2.65
		c-0.22,0.377-0.261,0.578-0.446,0.898l1.714,0.988c0.722-0.939,1.544-2.451,2.108-3.535l-1.733-1.031l2.019-3.516l-1.753-1.049
		l0.996-1.77C79.967,42.03,79.393,41.642,78.768,41.419"/>
	<path clip-path="url(#SVGID_2_)" fill="#4F4F4F" d="M78.783,41.354l2.033-3.498l3.529,2.021l0.56-0.838
		c0.151-0.307,0.261-0.568,0.481-0.957l-4.713-2.719c-0.757-0.444-0.57-0.513-1.182,0.546l-2.253,3.899
		c-0.233,0.393-0.408,0.475-0.052,0.701C77.526,40.729,78.497,41.356,78.783,41.354"/>
	<path clip-path="url(#SVGID_2_)" fill="#4F4F4F" d="M107.531,48.616c0.272-0.012,0.054,0.08,0.272-0.182
		c0.014-0.021,0.131-0.238,0.154-0.277c0.067-0.434,0.465-0.93,0.696-1.33l-3.542-2.021l-4.077,7.07l1.736,1.006l3.076-5.271
		C106.258,47.763,107.211,48.317,107.531,48.616"/>
	<path clip-path="url(#SVGID_2_)" fill="#4F4F4F" d="M100.677,27.993c0.315-0.545,0.759-1.193,0.916-1.711l-3.482-2.01l-1,1.708
		L100.677,27.993z"/>
	<path clip-path="url(#SVGID_2_)" fill="#4F4F4F" d="M107.531,48.616c0.088,0.375-0.854,1.322-0.844,1.719
		c0.005,0.213,1.44,0.848,1.671,1.113c0.365,0.344,1.296,0.793,1.775,1.072l-3.439,5.957l3.502-6.066l-1.733-1
		c0.16-0.273,0.209-0.492,0.415-0.844c0.179-0.307,0.354-0.613,0.532-0.922c-1.927-1.111-1.827-0.834-1.452-1.488
		c-0.023,0.039-0.141,0.26-0.154,0.277C107.585,48.696,107.803,48.604,107.531,48.616"/>
	<path clip-path="url(#SVGID_2_)" fill="#4F4F4F" d="M95.307,25.033l1.722,0.976l-11.19,19.412l-1.742-1.006l0.064,0.082
		c0.015,0.02,1.13,0.801,1.69,0.965L97.089,26.04l3.528,2.016c-2.921,5.048-5.963,10.393-8.932,15.402
		c-0.105,0.184-0.232,0.338-0.228,0.521l9.193-15.859l0.025-0.129l-3.566-2.013l1-1.708c-0.269,0.188-0.815,1.323-1.04,1.711
		l-1.621-0.925C95.331,25.016,95.384,25.032,95.307,25.033"/>
	<path clip-path="url(#SVGID_2_)" fill="#4F4F4F" d="M166.506,44.341h-6.022l4.965-17.146L155.25,44.341h-6.195l-1.111-17.395
		l-4.243,17.395h-6.195l6.993-26.1h8.454l1.164,18.314l10.93-18.314h8.454L166.506,44.341z M189.025,44.341h-13.469
		c-1.874,0-3.221-0.502-4.041-1.506c-0.85-0.979-1.017-2.404-0.512-4.291c0.604-2.251,1.646-3.872,3.127-4.851
		c1.482-0.981,3.586-1.47,6.316-1.47h5.941c0.252-0.939,0.154-1.608-0.279-2.022c-0.457-0.376-1.465-0.561-3.012-0.561h-8.484
		l1.258-4.696h10.32c2.623,0,4.455,0.609,5.49,1.822c1.043,1.213,1.23,3.053,0.566,5.52L189.025,44.341z M184.385,39.716
		l0.777-2.899h-5.264c-1.057,0-1.76,0.101-2.125,0.304c-0.371,0.203-0.646,0.627-0.814,1.273c-0.127,0.479-0.111,0.82,0.049,1.045
		c0.096,0.096,0.285,0.162,0.584,0.211c0.297,0.047,0.688,0.066,1.164,0.066H184.385z M210.039,44.341h-5.734l3.115-11.634
		c0.332-1.232,0.369-2.019,0.107-2.355c-0.303-0.31-1.008-0.454-2.105-0.454h-3.449L198.1,44.341h-5.732l5.195-19.395h9.535
		c2.916,0,4.844,0.568,5.777,1.704c0.939,1.141,1.066,2.969,0.395,5.502L210.039,44.341z M230.904,44.341h-5.771l3.121-11.646
		c0.311-1.154,0.326-1.907,0.041-2.252c-0.189-0.205-0.426-0.352-0.705-0.443c-0.311-0.089-0.77-0.138-1.361-0.138l-3.428,0.037
		l-3.871,14.442h-5.734l6.992-26.099h5.736l-1.797,6.704h3.836c2.867,0,4.785,0.562,5.752,1.679c0.965,1.123,1.107,2.958,0.424,5.52
		L230.904,44.341z M252.916,44.341h-13.469c-1.869,0-3.217-0.502-4.041-1.506c-0.852-0.979-1.018-2.404-0.512-4.291
		c0.604-2.251,1.645-3.872,3.129-4.851c1.479-0.981,3.584-1.47,6.313-1.47h5.945c0.25-0.939,0.154-1.608-0.283-2.022
		c-0.455-0.376-1.463-0.561-3.01-0.561h-8.484l1.26-4.696h10.316c2.623,0,4.455,0.609,5.492,1.822
		c1.043,1.213,1.229,3.053,0.568,5.52L252.916,44.341z M248.275,39.716l0.773-2.899h-5.264c-1.057,0-1.764,0.101-2.125,0.304
		c-0.371,0.203-0.646,0.627-0.813,1.273c-0.131,0.479-0.113,0.82,0.049,1.045c0.096,0.096,0.283,0.162,0.582,0.211
		c0.299,0.047,0.688,0.066,1.162,0.066H248.275z M262.135,44.341h-5.953l6.996-26.1h5.949L262.135,44.341z M275.576,44.341h-5.055
		l1.422-5.307h5.055L275.576,44.341z M294.139,44.341h-7.008c-0.855,0-1.631-0.049-2.303-0.145c-0.66-0.092-1.273-0.205-1.816-0.4
		c-0.979-0.352-1.818-0.971-2.492-1.816c-0.313-0.396-0.533-0.902-0.729-1.475c-0.193-0.553-0.396-1.145-0.49-1.783
		c-0.09-0.615-0.08-1.26-0.029-1.912c0.049-0.643,0.188-1.355,0.396-2.121c0.387-1.445,0.986-2.814,1.813-4.081
		c0.813-1.25,1.783-2.412,2.994-3.375c1.006-0.801,2.188-1.326,3.439-1.704c1.246-0.377,2.719-0.58,4.422-0.58h7.008l-1.305,4.875
		h-5.596c-1.16,0-2.123,0.056-2.855,0.209c-0.732,0.155-1.336,0.48-1.838,0.861c-0.975,0.734-1.725,1.986-2.205,3.794
		c-0.268,1.002-0.301,1.853-0.16,2.556c0.139,0.683,0.322,1.458,0.977,1.716l1.027,0.406c0.279,0.111,0.611,0.078,0.928,0.102
		c0.334,0.021,0.848,0.035,1.531,0.035h5.594L294.139,44.341z M318.156,34.613c-0.811,3.032-2.391,5.46-4.719,7.284
		c-2.322,1.813-5.027,2.729-8.117,2.729c-3.105,0-5.316-0.922-6.676-2.729c-1.355-1.797-1.643-4.215-0.816-7.284
		c0.805-3.003,2.383-5.425,4.713-7.259c2.303-1.814,5.01-2.731,8.139-2.731c3.092,0,5.314,0.899,6.666,2.696
		C318.703,29.126,318.971,31.564,318.156,34.613 M312.205,34.613c0.428-1.61,0.344-2.863-0.174-3.788
		c-0.498-0.889-1.363-1.362-2.686-1.362c-1.311,0-2.434,0.479-3.412,1.362c-0.939,0.855-1.67,2.105-2.117,3.788
		c-0.23,0.865-0.326,1.597-0.324,2.189c0.002,0.626,0.125,1.185,0.396,1.656c0.508,0.889,1.404,1.328,2.689,1.328
		c1.316,0,2.438-0.461,3.4-1.328C311.008,37.538,311.764,36.265,312.205,34.613 M344.742,44.341h-5.771l3.105-11.599
		c0.313-1.187,0.398-2.016,0.133-2.395c-0.264-0.369-1.002-0.534-2.08-0.513l-2.232,0.059l-3.871,14.444h-5.846l3.873-14.444h-4.771
		l-3.871,14.444h-5.771l5.195-19.395h19.014c2.77,0,4.658,0.569,5.662,1.703c1.006,1.139,1.174,2.972,0.496,5.503L344.742,44.341z"
		/>
	<g opacity="0.3" clip-path="url(#SVGID_2_)" enable-background="new    ">
		<g>
			<defs>
				<rect id="SVGID_5_" x="0.001" y="19.681" width="63.908" height="34.729"/>
			</defs>
			<clipPath id="SVGID_6_">
				<use xlink:href="#SVGID_5_"  overflow="visible"/>
			</clipPath>
			<path clip-path="url(#SVGID_6_)" fill="#4F4F4F" d="M6.553,25.046l50.538-5.334c0.586-0.061,1.173-0.031,1.742,0.063
				c1.26,0.22,2.438,0.808,3.337,1.614c0.917,0.817,1.553,1.876,1.704,3.01c0.06,0.449,0.045,0.91-0.058,1.373l-8.744,22.963
				c-0.35,1.576-1.126,3.041-2.301,4.084c-1.105,0.979-2.542,1.59-4.289,1.59H13.654c-1.74,0-3.169-0.604-4.27-1.586L9.38,52.821
				c-1.174-1.043-1.949-2.506-2.311-4.078l-6.966-17.63c-0.032-0.139-0.055-0.259-0.068-0.361c-0.201-1.501,0.503-2.794,1.681-3.775
				c1.078-0.904,2.576-1.542,4.104-1.819C6.086,25.106,6.331,25.069,6.553,25.046 M53.649,24.793l-47.13,4.977
				c-0.188,0.019-0.359,0.043-0.507,0.065c-1.052,0.19-2.068,0.618-2.784,1.223c-0.624,0.52-1,1.179-0.902,1.906
				c0.011,0.076,0.021,0.142,0.029,0.184l6.468,15.46c0.257,1.117,0.786,2.139,1.572,2.836c0.638,0.563,1.462,0.916,2.465,0.916
				h32.48c1.005,0,1.835-0.354,2.476-0.92c0.783-0.697,1.311-1.713,1.558-2.824l8.183-20.433c0.051-0.232,0.059-0.463,0.028-0.69
				c-0.084-0.622-0.447-1.214-0.975-1.687c-0.545-0.489-1.252-0.849-2.001-0.979C54.292,24.774,53.968,24.761,53.649,24.793"/>
		</g>
	</g>
	<path clip-path="url(#SVGID_2_)" fill="#4F4F4F" d="M148.935,10.043l-1.074,4.017h-1.445l2.876-10.733h3.166
		c0.679,0,1.249,0.08,1.708,0.237c0.46,0.152,0.814,0.379,1.066,0.668c0.251,0.29,0.404,0.64,0.457,1.05
		c0.053,0.41,0.01,0.866-0.125,1.37c-0.135,0.502-0.345,0.958-0.63,1.373c-0.286,0.414-0.636,0.77-1.054,1.073
		c-0.417,0.299-0.898,0.526-1.442,0.694c-0.543,0.167-1.138,0.252-1.781,0.252L148.935,10.043z M149.245,8.891h1.721
		c0.415,0,0.796-0.06,1.143-0.165c0.346-0.11,0.652-0.27,0.919-0.461c0.268-0.197,0.493-0.436,0.676-0.706
		c0.184-0.274,0.319-0.577,0.407-0.906c0.184-0.684,0.117-1.218-0.202-1.602c-0.318-0.389-0.905-0.576-1.759-0.576h-1.722
		L149.245,8.891z"/>
	<path clip-path="url(#SVGID_2_)" fill="#4F4F4F" d="M160.111,6.354c0.554,0,1.031,0.092,1.428,0.273
		c0.397,0.188,0.706,0.446,0.928,0.786c0.221,0.339,0.351,0.749,0.389,1.23c0.038,0.479-0.024,1.021-0.183,1.612
		c-0.161,0.601-0.388,1.14-0.684,1.615c-0.295,0.479-0.645,0.893-1.047,1.229c-0.403,0.339-0.852,0.599-1.348,0.779
		c-0.495,0.184-1.021,0.272-1.575,0.272c-0.554,0-1.028-0.092-1.426-0.272c-0.398-0.184-0.71-0.439-0.934-0.779
		s-0.355-0.749-0.397-1.229c-0.041-0.479,0.019-1.018,0.179-1.615c0.159-0.595,0.389-1.135,0.688-1.612
		c0.299-0.482,0.65-0.895,1.056-1.23c0.406-0.339,0.857-0.601,1.354-0.786C159.034,6.446,159.557,6.354,160.111,6.354
		 M158.299,13.12c0.748,0,1.375-0.252,1.878-0.753c0.504-0.501,0.876-1.203,1.117-2.103c0.242-0.904,0.246-1.607,0.013-2.114
		c-0.234-0.504-0.726-0.756-1.474-0.756c-0.379,0-0.727,0.063-1.041,0.191c-0.313,0.134-0.596,0.317-0.849,0.563
		s-0.474,0.547-0.661,0.904c-0.188,0.353-0.344,0.76-0.464,1.21c-0.12,0.445-0.181,0.853-0.184,1.208
		c-0.003,0.353,0.057,0.648,0.179,0.895c0.122,0.247,0.305,0.427,0.549,0.564C157.607,13.056,157.919,13.12,158.299,13.12"/>
	<path clip-path="url(#SVGID_2_)" fill="#4F4F4F" d="M164.347,6.465h1.048c0.11,0,0.192,0.027,0.248,0.082
		c0.055,0.06,0.085,0.12,0.09,0.195l0.143,4.885c-0.008,0.185-0.018,0.355-0.027,0.522c-0.01,0.167-0.024,0.334-0.046,0.506
		c0.086-0.171,0.176-0.338,0.271-0.506c0.095-0.167,0.194-0.341,0.297-0.522l2.919-4.916c0.045-0.07,0.106-0.137,0.183-0.186
		c0.075-0.05,0.159-0.076,0.255-0.076h0.576c0.1,0,0.175,0.026,0.227,0.076c0.052,0.049,0.08,0.112,0.085,0.186l0.247,4.916
		c0.008,0.179,0.012,0.352,0.009,0.522c-0.003,0.169-0.008,0.336-0.013,0.503c0.07-0.166,0.148-0.338,0.236-0.521
		c0.088-0.18,0.176-0.347,0.262-0.501l2.792-4.885c0.047-0.08,0.109-0.144,0.193-0.197c0.084-0.052,0.174-0.078,0.27-0.078h1.004
		l-4.489,7.593h-1.055c-0.13,0-0.197-0.085-0.202-0.255l-0.297-5.148c-0.01-0.115-0.011-0.23-0.004-0.348
		c0.007-0.118,0.012-0.233,0.019-0.352c-0.057,0.115-0.112,0.233-0.17,0.355c-0.057,0.12-0.12,0.232-0.191,0.351l-3.076,5.145
		c-0.101,0.17-0.226,0.255-0.375,0.255h-1.003L164.347,6.465z"/>
	<path clip-path="url(#SVGID_2_)" fill="#4F4F4F" d="M179.836,6.347c0.453,0,0.854,0.072,1.195,0.228
		c0.342,0.154,0.617,0.372,0.82,0.659c0.197,0.287,0.32,0.644,0.371,1.063c0.043,0.427-0.014,0.903-0.154,1.445
		c-0.055,0.209-0.115,0.354-0.18,0.419c-0.064,0.07-0.156,0.106-0.281,0.106h-5.045c-0.119,0.478-0.166,0.895-0.146,1.252
		c0.021,0.353,0.107,0.646,0.256,0.89c0.146,0.237,0.352,0.414,0.605,0.531c0.258,0.119,0.563,0.177,0.926,0.177
		c0.334,0,0.635-0.04,0.896-0.117s0.494-0.162,0.688-0.252c0.201-0.09,0.369-0.172,0.508-0.25c0.141-0.08,0.248-0.117,0.334-0.117
		c0.109,0,0.186,0.042,0.223,0.132L181.1,13c-0.219,0.197-0.461,0.369-0.729,0.521c-0.27,0.146-0.547,0.267-0.834,0.358
		c-0.287,0.097-0.578,0.165-0.871,0.212c-0.291,0.052-0.574,0.07-0.85,0.07c-0.523,0-0.98-0.09-1.375-0.266
		c-0.396-0.182-0.707-0.439-0.939-0.779c-0.229-0.342-0.367-0.765-0.414-1.269c-0.043-0.509,0.021-1.083,0.197-1.74
		c0.145-0.529,0.355-1.023,0.645-1.482c0.283-0.459,0.625-0.854,1.021-1.19c0.396-0.337,0.836-0.605,1.326-0.793
		C178.768,6.443,179.287,6.347,179.836,6.347 M179.602,7.333c-0.646,0-1.199,0.188-1.67,0.561c-0.469,0.364-0.834,0.882-1.102,1.54
		h4.125c0.082-0.314,0.115-0.596,0.1-0.851c-0.018-0.257-0.08-0.479-0.195-0.664c-0.111-0.187-0.271-0.332-0.482-0.434
		C180.164,7.383,179.906,7.333,179.602,7.333"/>
	<path clip-path="url(#SVGID_2_)" fill="#4F4F4F" d="M182.613,14.056l2.033-7.595h0.764c0.146,0,0.236,0.03,0.275,0.092
		c0.041,0.058,0.051,0.155,0.027,0.302l-0.242,1.257c0.404-0.564,0.85-0.998,1.313-1.31c0.465-0.314,0.953-0.475,1.469-0.475
		c0.209,0,0.395,0.025,0.547,0.072c0.158,0.05,0.299,0.117,0.418,0.205L188.779,7.6c-0.068,0.125-0.162,0.187-0.281,0.187
		c-0.068,0-0.172-0.02-0.305-0.068c-0.131-0.052-0.326-0.069-0.588-0.069c-0.463,0-0.891,0.139-1.273,0.421
		c-0.385,0.281-0.76,0.691-1.111,1.227l-1.271,4.763L182.613,14.056z"/>
	<path clip-path="url(#SVGID_2_)" fill="#4F4F4F" d="M193.713,6.347c0.453,0,0.854,0.072,1.197,0.228
		c0.342,0.153,0.615,0.372,0.818,0.659s0.326,0.644,0.371,1.063c0.043,0.427-0.014,0.903-0.152,1.445
		c-0.057,0.209-0.117,0.354-0.18,0.419c-0.064,0.07-0.158,0.106-0.283,0.106h-5.045c-0.119,0.478-0.166,0.895-0.146,1.252
		c0.021,0.353,0.107,0.646,0.262,0.89c0.145,0.237,0.348,0.414,0.604,0.531c0.256,0.119,0.564,0.177,0.924,0.177
		c0.334,0,0.637-0.04,0.898-0.117s0.492-0.162,0.686-0.252c0.199-0.09,0.369-0.172,0.508-0.25c0.141-0.08,0.248-0.117,0.332-0.117
		c0.109,0,0.188,0.042,0.225,0.132L194.977,13c-0.219,0.197-0.461,0.369-0.729,0.521c-0.27,0.146-0.547,0.267-0.834,0.358
		c-0.287,0.097-0.578,0.165-0.869,0.212c-0.295,0.052-0.576,0.07-0.852,0.07c-0.523,0-0.98-0.09-1.375-0.266
		c-0.396-0.182-0.707-0.439-0.939-0.779c-0.229-0.342-0.365-0.765-0.412-1.269c-0.045-0.509,0.021-1.083,0.195-1.74
		c0.145-0.529,0.355-1.023,0.645-1.482c0.283-0.459,0.625-0.854,1.021-1.19c0.396-0.337,0.836-0.605,1.326-0.793
		C192.645,6.443,193.164,6.347,193.713,6.347 M193.479,7.333c-0.646,0-1.199,0.188-1.668,0.561c-0.471,0.364-0.836,0.882-1.104,1.54
		h4.125c0.082-0.314,0.117-0.596,0.1-0.851c-0.018-0.257-0.08-0.479-0.195-0.664c-0.111-0.187-0.271-0.332-0.48-0.434
		C194.041,7.383,193.783,7.333,193.479,7.333"/>
	<path clip-path="url(#SVGID_2_)" fill="#4F4F4F" d="M201.828,14.057c-0.189,0-0.285-0.098-0.285-0.278l0.127-0.92
		c-0.432,0.394-0.885,0.708-1.363,0.946c-0.479,0.232-0.992,0.353-1.531,0.353c-0.434,0-0.805-0.085-1.111-0.252
		c-0.305-0.167-0.545-0.412-0.707-0.736c-0.162-0.322-0.246-0.729-0.252-1.215c-0.004-0.479,0.072-1.041,0.246-1.672
		c0.146-0.558,0.359-1.078,0.645-1.561c0.277-0.482,0.605-0.899,0.984-1.258c0.377-0.354,0.793-0.633,1.25-0.833
		c0.459-0.199,0.941-0.306,1.459-0.306c0.465,0,0.84,0.08,1.127,0.237c0.287,0.158,0.521,0.377,0.707,0.662l1.127-4.207h1.332
		l-2.957,11.031h-0.795L201.828,14.057z M199.506,13.083c0.436,0,0.844-0.1,1.225-0.299c0.379-0.199,0.754-0.478,1.127-0.846
		l0.982-3.671c-0.154-0.33-0.359-0.564-0.617-0.695c-0.256-0.132-0.563-0.2-0.916-0.2c-0.709,0-1.322,0.252-1.836,0.759
		c-0.516,0.509-0.896,1.227-1.146,2.158c-0.133,0.494-0.203,0.918-0.215,1.272c-0.008,0.351,0.039,0.641,0.143,0.868
		c0.105,0.227,0.264,0.394,0.475,0.5C198.936,13.029,199.193,13.083,199.506,13.083"/>
	<path clip-path="url(#SVGID_2_)" fill="#4F4F4F" d="M207.793,14.056l2.957-11.033h1.34l-1.238,4.616
		c0.418-0.391,0.865-0.701,1.334-0.938c0.477-0.237,0.967-0.354,1.49-0.354c0.439,0,0.814,0.083,1.125,0.248
		c0.311,0.16,0.545,0.407,0.707,0.733c0.162,0.327,0.246,0.731,0.252,1.213c0.006,0.484-0.076,1.038-0.244,1.667
		c-0.146,0.563-0.365,1.081-0.645,1.564c-0.279,0.479-0.604,0.896-0.98,1.25c-0.377,0.352-0.795,0.629-1.256,0.831
		c-0.461,0.202-0.949,0.304-1.455,0.304c-0.492,0-0.879-0.095-1.17-0.287c-0.289-0.188-0.52-0.456-0.682-0.798l-0.254,0.694
		c-0.092,0.188-0.23,0.288-0.42,0.288L207.793,14.056z M212.957,7.409c-0.434,0-0.842,0.105-1.225,0.317
		c-0.383,0.209-0.771,0.509-1.146,0.893l-0.969,3.616c0.148,0.324,0.355,0.554,0.609,0.686c0.262,0.137,0.564,0.2,0.924,0.2
		c0.711,0,1.32-0.252,1.838-0.756c0.514-0.504,0.895-1.223,1.145-2.156c0.135-0.494,0.203-0.918,0.215-1.271
		c0.006-0.354-0.041-0.646-0.146-0.873c-0.104-0.229-0.266-0.396-0.475-0.497C213.518,7.46,213.26,7.409,212.957,7.409"/>
	<path clip-path="url(#SVGID_2_)" fill="#4F4F4F" d="M217.543,16.302c-0.07,0.1-0.146,0.18-0.23,0.235
		c-0.084,0.064-0.191,0.089-0.336,0.089h-0.984l2.18-2.964l-1.199-7.188h1.15c0.109,0,0.191,0.025,0.246,0.087
		c0.049,0.056,0.076,0.122,0.09,0.187l0.73,4.838c0.02,0.111,0.023,0.227,0.027,0.332c0.002,0.113-0.002,0.23-0.008,0.347
		c0.063-0.115,0.133-0.23,0.195-0.347c0.063-0.104,0.137-0.224,0.213-0.339l3.262-4.83c0.055-0.08,0.123-0.145,0.209-0.195
		c0.086-0.057,0.17-0.08,0.256-0.08h1.063L217.543,16.302z"/>
	<path clip-path="url(#SVGID_2_)" fill="#4F4F4F" d="M223.672,13.234c0.035-0.129,0.094-0.252,0.17-0.367
		c0.078-0.115,0.172-0.214,0.275-0.302c0.105-0.085,0.221-0.152,0.35-0.202c0.129-0.05,0.258-0.075,0.387-0.075
		c0.131,0,0.246,0.025,0.352,0.075c0.105,0.05,0.186,0.117,0.24,0.202c0.063,0.087,0.104,0.187,0.119,0.302
		c0.021,0.115,0.006,0.237-0.025,0.367c-0.035,0.137-0.096,0.26-0.17,0.374c-0.076,0.114-0.174,0.21-0.279,0.297
		c-0.104,0.084-0.229,0.151-0.354,0.197c-0.127,0.047-0.256,0.068-0.387,0.068s-0.244-0.021-0.348-0.068
		c-0.104-0.046-0.184-0.112-0.242-0.197c-0.059-0.087-0.098-0.184-0.113-0.297C223.627,13.495,223.635,13.372,223.672,13.234
		 M225.176,7.621c0.035-0.13,0.094-0.252,0.172-0.367c0.076-0.111,0.17-0.214,0.273-0.302c0.105-0.085,0.221-0.152,0.35-0.202
		s0.258-0.075,0.387-0.075s0.246,0.025,0.352,0.075s0.188,0.117,0.244,0.202c0.064,0.087,0.105,0.189,0.115,0.302
		c0.02,0.115,0.012,0.237-0.023,0.367c-0.037,0.137-0.092,0.259-0.172,0.375c-0.076,0.112-0.17,0.209-0.279,0.297
		c-0.104,0.085-0.223,0.149-0.354,0.197c-0.129,0.048-0.256,0.073-0.385,0.073c-0.131,0-0.246-0.025-0.35-0.073
		c-0.104-0.047-0.186-0.112-0.24-0.197c-0.061-0.087-0.1-0.185-0.115-0.297C225.131,7.879,225.139,7.757,225.176,7.621"/>
	<path clip-path="url(#SVGID_2_)" fill="#4F4F4F" d="M240.584,50.026l-0.336,1.252h-5.447l-1.012,3.77h4.412l-0.322,1.203h-4.412
		l-1.039,3.881h5.447l-0.334,1.252h-6.994l3.045-11.355L240.584,50.026z M240.598,56.03h3.912l-0.322,1.203h-3.912L240.598,56.03z
		 M247.131,60.083h4.91l-0.35,1.299h-6.445l3.043-11.354h1.535L247.131,60.083z M258.24,53.226c0.48,0,0.902,0.082,1.266,0.244
		c0.363,0.156,0.652,0.393,0.867,0.691c0.215,0.309,0.346,0.686,0.393,1.127c0.047,0.447-0.008,0.957-0.16,1.529
		c-0.061,0.223-0.123,0.369-0.188,0.443c-0.064,0.068-0.168,0.105-0.299,0.105h-5.342c-0.125,0.508-0.174,0.951-0.146,1.326
		c0.021,0.377,0.115,0.688,0.271,0.941c0.154,0.25,0.367,0.438,0.643,0.563c0.271,0.123,0.604,0.189,0.979,0.189
		c0.355,0,0.672-0.045,0.949-0.125c0.275-0.082,0.52-0.174,0.729-0.271c0.211-0.096,0.389-0.182,0.531-0.264
		c0.148-0.086,0.268-0.125,0.355-0.125c0.117,0,0.191,0.045,0.232,0.135l0.258,0.521c-0.229,0.209-0.486,0.391-0.77,0.547
		c-0.285,0.152-0.578,0.277-0.885,0.383c-0.303,0.098-0.609,0.174-0.922,0.225c-0.311,0.053-0.605,0.072-0.895,0.072
		c-0.559,0-1.041-0.094-1.455-0.281c-0.42-0.186-0.748-0.463-0.99-0.82c-0.242-0.359-0.391-0.813-0.438-1.348
		c-0.049-0.529,0.021-1.145,0.209-1.84c0.148-0.559,0.377-1.082,0.678-1.564c0.305-0.484,0.66-0.906,1.078-1.268
		c0.418-0.354,0.889-0.637,1.404-0.84C257.107,53.329,257.66,53.226,258.24,53.226 M257.992,54.272c-0.68,0-1.27,0.189-1.766,0.588
		c-0.494,0.391-0.889,0.936-1.164,1.629h4.359c0.092-0.328,0.121-0.627,0.102-0.895c-0.018-0.273-0.086-0.512-0.207-0.703
		c-0.119-0.197-0.291-0.354-0.514-0.459C258.588,54.325,258.314,54.272,257.992,54.272 M267.07,61.382h-0.625
		c-0.137,0-0.242-0.021-0.314-0.063s-0.105-0.135-0.094-0.271l0.041-0.742c-0.262,0.188-0.514,0.357-0.754,0.514
		c-0.242,0.146-0.488,0.279-0.736,0.381c-0.25,0.105-0.506,0.184-0.771,0.236c-0.264,0.051-0.551,0.078-0.854,0.078
		c-0.314,0-0.59-0.049-0.838-0.137c-0.25-0.088-0.451-0.219-0.604-0.393c-0.152-0.176-0.254-0.396-0.303-0.666
		c-0.049-0.266-0.021-0.584,0.074-0.949c0.086-0.314,0.256-0.627,0.508-0.92c0.256-0.297,0.604-0.557,1.057-0.787
		c0.451-0.227,1.008-0.414,1.674-0.559c0.668-0.146,1.457-0.219,2.363-0.219l0.17-0.637c0.168-0.625,0.162-1.1-0.021-1.42
		c-0.182-0.316-0.531-0.479-1.057-0.479c-0.344,0-0.646,0.043-0.898,0.129c-0.26,0.088-0.486,0.186-0.689,0.293
		c-0.197,0.105-0.375,0.207-0.52,0.295c-0.146,0.086-0.279,0.131-0.4,0.131c-0.1,0-0.172-0.02-0.23-0.074
		c-0.059-0.049-0.102-0.105-0.121-0.184l-0.137-0.443c0.563-0.432,1.123-0.754,1.691-0.967c0.566-0.215,1.166-0.32,1.787-0.32
		c0.447,0,0.826,0.074,1.139,0.229c0.311,0.145,0.547,0.354,0.713,0.615c0.164,0.266,0.262,0.584,0.281,0.963
		c0.02,0.375-0.029,0.781-0.146,1.23L267.07,61.382z M263.646,60.513c0.248,0,0.479-0.025,0.701-0.074
		c0.219-0.051,0.432-0.119,0.639-0.211c0.205-0.09,0.41-0.201,0.611-0.334c0.197-0.129,0.396-0.275,0.604-0.443l0.443-1.662
		c-0.648,0-1.213,0.043-1.689,0.123c-0.479,0.082-0.873,0.189-1.191,0.322c-0.322,0.133-0.566,0.289-0.746,0.469
		c-0.18,0.178-0.297,0.379-0.355,0.604c-0.059,0.211-0.07,0.393-0.043,0.547c0.025,0.148,0.086,0.275,0.176,0.377
		c0.094,0.098,0.209,0.168,0.354,0.215C263.297,60.487,263.461,60.513,263.646,60.513 M269.209,61.382l2.15-8.025h0.809
		c0.154,0,0.252,0.033,0.293,0.094c0.041,0.063,0.053,0.168,0.033,0.318l-0.262,1.33c0.434-0.598,0.895-1.061,1.391-1.391
		c0.492-0.332,1.01-0.498,1.553-0.498c0.223,0,0.416,0.025,0.582,0.076c0.166,0.053,0.314,0.125,0.441,0.217l-0.467,1.059
		c-0.07,0.131-0.17,0.193-0.297,0.193c-0.076,0-0.186-0.021-0.32-0.072c-0.139-0.055-0.346-0.074-0.621-0.074
		c-0.49,0-0.939,0.146-1.35,0.441c-0.412,0.303-0.809,0.73-1.182,1.303l-1.354,5.029H269.209z M275.592,61.382l2.152-8.025h0.84
		c0.199,0,0.301,0.098,0.301,0.293l-0.123,0.875c0.451-0.393,0.928-0.699,1.422-0.939c0.492-0.232,1.021-0.354,1.586-0.354
		c0.438,0,0.811,0.072,1.104,0.221c0.297,0.146,0.521,0.352,0.674,0.617c0.154,0.266,0.236,0.588,0.252,0.963
		c0.018,0.375-0.035,0.789-0.156,1.244l-1.371,5.111h-1.412l1.373-5.111c0.162-0.607,0.15-1.08-0.033-1.416
		c-0.188-0.334-0.566-0.504-1.141-0.504c-0.416,0-0.83,0.102-1.246,0.301c-0.416,0.201-0.824,0.477-1.225,0.818l-1.584,5.91
		L275.592,61.382z M288.117,53.353l-2.15,8.025h-1.41l2.152-8.025H288.117z M289.107,50.835c-0.035,0.141-0.096,0.268-0.188,0.387
		c-0.088,0.113-0.188,0.225-0.307,0.313c-0.119,0.09-0.244,0.166-0.385,0.219c-0.135,0.059-0.271,0.08-0.404,0.08
		c-0.143,0-0.262-0.021-0.361-0.08c-0.105-0.053-0.189-0.127-0.26-0.219s-0.107-0.197-0.137-0.313
		c-0.02-0.119-0.014-0.246,0.023-0.387c0.035-0.139,0.098-0.27,0.184-0.395c0.09-0.123,0.189-0.232,0.311-0.324
		c0.117-0.092,0.242-0.164,0.375-0.217c0.137-0.053,0.271-0.08,0.4-0.08c0.137,0,0.262,0.027,0.365,0.08
		c0.107,0.053,0.197,0.125,0.27,0.217c0.063,0.092,0.107,0.201,0.135,0.324C289.156,50.565,289.146,50.696,289.107,50.835
		 M288.453,61.382l2.152-8.025h0.836c0.203,0,0.303,0.098,0.305,0.293l-0.123,0.875c0.451-0.393,0.926-0.699,1.42-0.939
		c0.494-0.232,1.021-0.354,1.586-0.354c0.438,0,0.809,0.072,1.104,0.221c0.301,0.146,0.521,0.352,0.68,0.617
		c0.148,0.266,0.23,0.588,0.25,0.963s-0.037,0.789-0.158,1.244l-1.371,5.111h-1.404l1.369-5.111c0.158-0.607,0.148-1.08-0.033-1.416
		c-0.189-0.334-0.568-0.504-1.143-0.504c-0.418,0-0.832,0.102-1.248,0.301c-0.416,0.201-0.818,0.477-1.223,0.818l-1.584,5.91
		L288.453,61.382z M302.145,53.226c0.354,0,0.666,0.037,0.949,0.109c0.283,0.076,0.525,0.191,0.734,0.344h2.178l-0.141,0.52
		c-0.049,0.176-0.188,0.287-0.424,0.336l-0.943,0.127c0.088,0.344,0.074,0.73-0.037,1.148c-0.105,0.391-0.273,0.746-0.512,1.063
		c-0.234,0.32-0.518,0.6-0.846,0.82c-0.328,0.229-0.689,0.402-1.09,0.521c-0.398,0.119-0.818,0.184-1.262,0.184
		c-0.375,0-0.717-0.045-1.021-0.131c-0.197,0.104-0.355,0.225-0.48,0.35c-0.119,0.125-0.195,0.248-0.229,0.367
		c-0.053,0.197-0.018,0.346,0.107,0.447c0.127,0.098,0.313,0.174,0.555,0.215c0.238,0.045,0.521,0.063,0.848,0.063h0.984
		c0.336,0,0.654,0.027,0.961,0.09c0.309,0.063,0.566,0.152,0.785,0.289c0.219,0.135,0.373,0.314,0.463,0.555
		c0.09,0.23,0.084,0.541-0.018,0.916c-0.094,0.346-0.27,0.684-0.523,1.008c-0.262,0.328-0.586,0.615-0.979,0.871
		c-0.391,0.254-0.838,0.457-1.342,0.604c-0.508,0.152-1.053,0.23-1.639,0.23s-1.082-0.061-1.492-0.176
		c-0.408-0.115-0.734-0.271-0.977-0.471c-0.236-0.191-0.396-0.422-0.471-0.68c-0.076-0.256-0.078-0.521-0.004-0.805
		c0.105-0.396,0.32-0.73,0.646-1.01c0.324-0.277,0.729-0.498,1.211-0.66c-0.199-0.107-0.344-0.246-0.432-0.424
		c-0.088-0.182-0.092-0.41-0.016-0.709c0.031-0.111,0.084-0.232,0.16-0.355c0.072-0.123,0.174-0.246,0.295-0.369
		c0.117-0.117,0.254-0.23,0.41-0.344c0.154-0.111,0.33-0.209,0.52-0.293c-0.336-0.227-0.563-0.521-0.688-0.887
		c-0.125-0.367-0.123-0.803,0.01-1.291c0.104-0.396,0.271-0.744,0.512-1.066c0.236-0.32,0.521-0.594,0.85-0.818
		c0.33-0.225,0.697-0.396,1.104-0.521C301.279,53.288,301.701,53.226,302.145,53.226 M302.35,61.8
		c0.055-0.201,0.045-0.365-0.033-0.488c-0.074-0.125-0.199-0.225-0.375-0.289c-0.172-0.066-0.377-0.115-0.613-0.148
		c-0.238-0.033-0.496-0.049-0.771-0.049h-0.842c-0.281,0-0.547-0.035-0.785-0.104c-0.342,0.145-0.631,0.314-0.871,0.52
		c-0.242,0.205-0.4,0.451-0.479,0.736c-0.055,0.18-0.047,0.35,0.004,0.506c0.051,0.154,0.148,0.289,0.314,0.398
		c0.16,0.113,0.375,0.203,0.645,0.271c0.271,0.068,0.604,0.1,0.99,0.1c0.379,0,0.729-0.029,1.049-0.104
		c0.316-0.068,0.605-0.168,0.85-0.299c0.24-0.129,0.439-0.281,0.602-0.459C302.186,62.208,302.293,62.015,302.35,61.8
		 M301.008,57.472c0.285,0,0.551-0.041,0.789-0.119c0.24-0.08,0.453-0.189,0.639-0.332c0.188-0.146,0.344-0.314,0.475-0.518
		c0.127-0.195,0.223-0.416,0.281-0.652c0.137-0.492,0.094-0.883-0.129-1.18c-0.223-0.285-0.617-0.436-1.188-0.436
		c-0.564,0-1.035,0.145-1.41,0.436c-0.377,0.297-0.633,0.688-0.764,1.18c-0.064,0.236-0.084,0.457-0.061,0.652
		c0.02,0.199,0.088,0.367,0.193,0.518c0.107,0.143,0.266,0.252,0.457,0.332C300.49,57.431,300.729,57.472,301.008,57.472
		 M319.408,50.011l-0.35,1.299h-3.666l-2.697,10.063h-1.535l2.695-10.063h-3.686l0.352-1.299H319.408z M321.451,53.226
		c0.48,0,0.902,0.082,1.266,0.244c0.363,0.156,0.652,0.393,0.867,0.691c0.215,0.309,0.346,0.686,0.393,1.127
		c0.047,0.447-0.008,0.957-0.16,1.529c-0.061,0.223-0.125,0.369-0.188,0.443c-0.064,0.068-0.168,0.105-0.299,0.105h-5.342
		c-0.125,0.508-0.174,0.951-0.146,1.326c0.023,0.377,0.115,0.688,0.271,0.941c0.154,0.25,0.367,0.438,0.643,0.563
		c0.27,0.123,0.602,0.189,0.979,0.189c0.355,0,0.672-0.045,0.951-0.125c0.273-0.082,0.52-0.174,0.729-0.271
		c0.211-0.096,0.391-0.182,0.535-0.264c0.146-0.086,0.264-0.125,0.354-0.125c0.115,0,0.193,0.045,0.232,0.135l0.258,0.521
		c-0.229,0.209-0.484,0.391-0.771,0.547c-0.287,0.152-0.58,0.277-0.883,0.383c-0.305,0.098-0.613,0.174-0.922,0.225
		c-0.309,0.053-0.609,0.072-0.896,0.072c-0.555,0-1.037-0.094-1.453-0.281c-0.418-0.188-0.746-0.463-0.99-0.82
		c-0.244-0.359-0.395-0.813-0.438-1.348c-0.047-0.529,0.02-1.145,0.209-1.84c0.146-0.559,0.375-1.082,0.678-1.564
		c0.303-0.484,0.658-0.906,1.078-1.268c0.418-0.354,0.887-0.637,1.406-0.84C320.32,53.329,320.871,53.226,321.451,53.226
		 M321.203,54.272c-0.68,0-1.27,0.189-1.766,0.588c-0.496,0.391-0.883,0.936-1.164,1.629h4.363c0.088-0.328,0.117-0.627,0.104-0.895
		c-0.018-0.273-0.086-0.512-0.209-0.703c-0.121-0.197-0.291-0.354-0.514-0.459C321.799,54.325,321.523,54.272,321.203,54.272
		 M330.281,61.382h-0.625c-0.137,0-0.242-0.021-0.314-0.063s-0.104-0.135-0.094-0.271l0.041-0.742
		c-0.264,0.188-0.516,0.357-0.756,0.514c-0.24,0.146-0.486,0.279-0.734,0.381c-0.25,0.105-0.506,0.184-0.773,0.236
		c-0.262,0.051-0.549,0.078-0.852,0.078c-0.314,0-0.59-0.049-0.838-0.137c-0.25-0.088-0.451-0.219-0.604-0.393
		c-0.152-0.176-0.254-0.396-0.301-0.666c-0.051-0.266-0.023-0.584,0.072-0.949c0.086-0.314,0.256-0.627,0.51-0.92
		c0.254-0.297,0.604-0.557,1.057-0.787c0.449-0.227,1.008-0.414,1.674-0.559c0.668-0.146,1.455-0.219,2.361-0.219l0.168-0.637
		c0.168-0.625,0.164-1.1-0.02-1.42c-0.18-0.316-0.529-0.479-1.055-0.479c-0.346,0-0.645,0.043-0.9,0.129
		c-0.26,0.088-0.486,0.186-0.689,0.293c-0.197,0.105-0.375,0.207-0.52,0.295c-0.148,0.086-0.279,0.131-0.4,0.131
		c-0.1,0-0.172-0.02-0.23-0.074c-0.061-0.049-0.102-0.105-0.121-0.184l-0.135-0.443c0.559-0.432,1.121-0.754,1.689-0.967
		c0.566-0.215,1.166-0.32,1.787-0.32c0.447,0,0.826,0.074,1.137,0.229c0.313,0.145,0.549,0.354,0.715,0.615
		c0.166,0.266,0.262,0.584,0.281,0.963c0.02,0.375-0.027,0.781-0.146,1.23L330.281,61.382z M326.857,60.513
		c0.248,0,0.479-0.025,0.701-0.074c0.217-0.051,0.432-0.119,0.639-0.211c0.207-0.09,0.41-0.201,0.611-0.334
		c0.197-0.129,0.396-0.275,0.604-0.443l0.443-1.662c-0.648,0-1.211,0.043-1.689,0.123c-0.477,0.082-0.873,0.189-1.193,0.322
		c-0.322,0.133-0.564,0.289-0.744,0.469c-0.18,0.178-0.299,0.379-0.355,0.604c-0.059,0.211-0.07,0.393-0.043,0.547
		c0.025,0.148,0.086,0.275,0.176,0.377c0.094,0.098,0.209,0.168,0.352,0.215C326.506,60.487,326.672,60.513,326.857,60.513
		 M332.42,61.382l2.152-8.025h0.84c0.197,0,0.301,0.098,0.301,0.293l-0.119,0.826c0.395-0.365,0.807-0.664,1.236-0.896
		c0.43-0.229,0.885-0.35,1.371-0.35c0.543,0,0.943,0.146,1.197,0.453c0.256,0.301,0.387,0.707,0.396,1.221
		c0.188-0.291,0.404-0.543,0.645-0.754s0.488-0.391,0.752-0.523c0.268-0.137,0.535-0.232,0.811-0.301
		c0.271-0.063,0.541-0.096,0.809-0.096c0.422,0,0.777,0.064,1.072,0.205c0.293,0.133,0.521,0.324,0.684,0.588
		c0.162,0.258,0.25,0.578,0.271,0.955c0.02,0.377-0.035,0.811-0.166,1.297l-1.367,5.107h-1.41l1.369-5.107
		c0.17-0.629,0.158-1.107-0.029-1.436c-0.186-0.32-0.543-0.484-1.061-0.484c-0.229,0-0.463,0.043-0.691,0.125
		c-0.227,0.082-0.445,0.195-0.646,0.354c-0.197,0.158-0.377,0.359-0.533,0.604c-0.154,0.236-0.279,0.521-0.363,0.838l-1.369,5.107
		h-1.41l1.371-5.107c0.172-0.646,0.172-1.127-0.002-1.445c-0.174-0.313-0.51-0.475-1.006-0.475c-0.35,0-0.695,0.096-1.043,0.277
		c-0.352,0.188-0.691,0.445-1.027,0.771l-1.604,5.979H332.42z"/>
	<rect x="0.001" clip-path="url(#SVGID_2_)" fill="none" width="348.413" height="73.401"/>
</g>
</svg>
