<svg id="Layer_1" data-name="Layer 1" xmlns="http://www.w3.org/2000/svg" viewBox="0 0 128.69 51.53"><defs><style>.cls-1{fill:#58595b;}.cls-2{fill:#00ac69;}</style></defs><path class="cls-1" d="M8.47,9.17V26.31H3.91V9.17Z"/><path class="cls-1" d="M8.47,2.64V6.78H3.91V2.64Z"/><path class="cls-2" d="M36.94,2.64,38.3,26.31H34l-.44-9.2c-.12-3.11-.27-6.93-.24-9.33h-.1c-.67,2.83-1.54,6-2.34,8.62L28,26H24.5l-2.62-9.42c-.77-2.68-1.51-5.88-2.07-8.77h-.09c-.06,3-.22,6.49-.37,9.42l-.46,9.11H14.73l1.6-23.67H22l2.56,8.9c.77,2.86,1.44,5.63,2,8.33h.09c.56-2.64,1.26-5.5,2.07-8.33l2.68-8.9Z"/><path class="cls-2" d="M41,10.27A12.19,12.19,0,0,1,46.9,8.83c5.33,0,6.78,3.38,6.78,7.14v6.27a25.31,25.31,0,0,0,.25,4.07h-4.1l-.28-1.79h-.09a5.5,5.5,0,0,1-4.56,2.12,5,5,0,0,1-5.15-5.13c0-4.4,3.91-6.47,9.37-6.47,0-1.69-.59-3-3.08-3a8.32,8.32,0,0,0-4.22,1.17ZM49.24,18c-2.46,0-5,.58-5,3.07a2.09,2.09,0,0,0,2.16,2.34,2.85,2.85,0,0,0,2.86-2.95Z"/><path class="cls-2" d="M64,11.5a5.77,5.77,0,0,1,5-2.67c3.14,0,5.58,2.18,5.58,7v10.5H70v-10c0-2.09-.68-3.75-2.62-3.75-1.23,0-2.93.95-2.93,3.57V26.31H59.89v-12c0-2-.06-3.64-.12-5.14h3.94l.22,2.3Z"/><path class="cls-2" d="M84.78,11.23A5.57,5.57,0,0,1,89.37,8.8c3,0,5.45,2.21,5.45,7.26V26.31H90.26V16.43c0-2.19-.68-3.88-2.65-3.88-1.14,0-2.9.8-2.9,3.35V26.31H80.15V1.57h4.56v9.66Z"/><path class="cls-2" d="M101.93,10.27a12.15,12.15,0,0,1,5.94-1.44c5.33,0,6.78,3.38,6.78,7.14v6.27a25.31,25.31,0,0,0,.25,4.07h-4.1l-.28-1.79h-.09a5.5,5.5,0,0,1-4.56,2.12,5,5,0,0,1-5.15-5.13c0-4.4,3.92-6.47,9.37-6.47,0-1.69-.58-3-3.08-3a8.34,8.34,0,0,0-4.22,1.17Zm8.29,7.7c-2.47,0-5,.58-5,3.07a2.09,2.09,0,0,0,2.16,2.34,2.85,2.85,0,0,0,2.87-2.95Z"/><path class="cls-2" d="M124.78,1.57V26.31h-4.56V1.57Z"/><path class="cls-1" d="M7.82,48.29c-.52,0-.77.28-.77.84s.25.83.77.83.78-.27.78-.83S8.34,48.29,7.82,48.29Z"/><path class="cls-1" d="M10.1,48.29c-.51,0-.77.28-.77.84s.26.83.77.83.78-.27.78-.83S10.62,48.29,10.1,48.29Z"/><path class="cls-1" d="M32.08,43.57a3.18,3.18,0,0,1-.51-1.87c0-1.65.71-2.47,2.12-2.47a4.45,4.45,0,0,1,1.75.39l.4-1.12a4.61,4.61,0,0,0-2.07-.43,3.58,3.58,0,0,0-2.58.93,3.47,3.47,0,0,0-1,2.64,3.38,3.38,0,0,0,1.05,2.65H26.11A1.5,1.5,0,0,1,25,43.91a1.39,1.39,0,0,1-.41-1V34.11H23.3V44.29H17.14V38.22H15.33c-2.6,0-3.89,1.4-3.89,4.21v1.92c0,1.32-.88,2-2.62,2H7a1.41,1.41,0,0,1-1.08-.44,1.7,1.7,0,0,1-.4-1.18,9.74,9.74,0,0,1,.22-1.91H4.63a5.73,5.73,0,0,0-.38,2,2.57,2.57,0,0,0,.73,2,2.84,2.84,0,0,0,2.07.7H8.82a4.49,4.49,0,0,0,2.9-.83,2.74,2.74,0,0,0,1-2.3V42.47c0-2.06.89-3.09,2.66-3.09h.39v6.08h8.82v-.85a1.72,1.72,0,0,0,1.68.85h9.76V44.29H33.41A1.56,1.56,0,0,1,32.08,43.57Z"/><path class="cls-1" d="M49,36.84c.52,0,.78-.28.78-.83s-.26-.84-.78-.84-.77.28-.77.84S48.47,36.84,49,36.84Z"/><path class="cls-1" d="M59.07,36.84c.52,0,.78-.28.78-.83s-.26-.84-.78-.84-.78.28-.78.84S58.55,36.84,59.07,36.84Z"/><path class="cls-1" d="M56.78,36.84c.52,0,.78-.28.78-.83s-.26-.84-.78-.84S56,35.45,56,36,56.27,36.84,56.78,36.84Z"/><path class="cls-1" d="M62.47,44.29H60.19a1.53,1.53,0,0,1-1.08-.38,1.39,1.39,0,0,1-.4-1V38.22H57.38v6.07h-6V38.22h-2a4.24,4.24,0,0,0-3,1A3.61,3.61,0,0,0,45.38,42a3.28,3.28,0,0,0,.77,2.25H39.51V34.11H38.18V45.46H58.71v-.85a1.69,1.69,0,0,0,1.67.85H63.8V34.11H62.47Zm-12.31,0H48.75q-2,0-2-2.25a2.58,2.58,0,0,1,.73-2,2.88,2.88,0,0,1,2.07-.7h.65Z"/><rect class="cls-1" x="66.33" y="34.11" width="1.33" height="11.34"/><path class="cls-1" d="M103,36.84c.51,0,.77-.28.77-.83s-.26-.84-.77-.84-.78.28-.78.84S102.46,36.84,103,36.84Z"/><path class="cls-1" d="M119.41,44.29h-4.36a2.63,2.63,0,0,0,.88-1.11,4,4,0,0,0-.61-4.16,3.29,3.29,0,0,0-2.46-1,3.17,3.17,0,0,0-2.54,1.12,4.24,4.24,0,0,0-1,2.88,4.15,4.15,0,0,0,.49,2.22h-4.71a1.53,1.53,0,0,1-1.08-.38,1.39,1.39,0,0,1-.4-1V38.22h-1.33v6.07h-6V40.65A5,5,0,0,0,95,37a5.1,5.1,0,0,0-3.76-1.32,9.57,9.57,0,0,0-3.1.47l.34,1.15a8.67,8.67,0,0,1,2.76-.44,3.77,3.77,0,0,1,2.89,1,4.24,4.24,0,0,1,.92,3v3.52H92.78V39H91a4.78,4.78,0,0,0-3,.84,2.79,2.79,0,0,0-1.07,2.36,2.37,2.37,0,0,0,1,2.13H83.05A1.52,1.52,0,0,1,82,43.91a1.39,1.39,0,0,1-.41-1V34.11H80.3V45.5c0,1.59-.83,2.38-2.5,2.38h-.73a1.72,1.72,0,0,1-1.45-.66,3,3,0,0,1-.5-1.86,9,9,0,0,1,.51-3.22H74.39a8.62,8.62,0,0,0-.61,3.3,3.92,3.92,0,0,0,.82,2.64,2.73,2.73,0,0,0,2.18,1h1.07q3.72,0,3.72-3.65v-.79a1.6,1.6,0,0,0,1.42.82v0h20.66v-.85a1.69,1.69,0,0,0,1.67.85h15.42V34.11h-1.33Zm-27.89,0H90.29a2,2,0,0,1-2.08-2.08c0-1.39.9-2.08,2.71-2.08h.6Zm22.78-.7a2.18,2.18,0,0,1-1.74.7H111.2a3.79,3.79,0,0,1-.52-2.22A3.2,3.2,0,0,1,111.3,40a1.9,1.9,0,0,1,1.54-.77,1.92,1.92,0,0,1,1.51.64,2.57,2.57,0,0,1,.57,1.76A2.91,2.91,0,0,1,114.3,43.59Z"/><rect class="cls-1" x="123.27" y="34.11" width="1.33" height="11.34"/></svg>