<?xml version="1.0" encoding="utf-8"?>
<!-- Generator: Adobe Illustrator 16.0.0, SVG Export Plug-In . SVG Version: 6.00 Build 0)  -->
<!DOCTYPE svg PUBLIC "-//W3C//DTD SVG 1.1//EN" "http://www.w3.org/Graphics/SVG/1.1/DTD/svg11.dtd">
<svg version="1.1" id="Layer_1" xmlns="http://www.w3.org/2000/svg" xmlns:xlink="http://www.w3.org/1999/xlink" x="0px" y="0px"
	 width="48px" height="48px" viewBox="0 0 48 48" enable-background="new 0 0 48 48" xml:space="preserve">
<g>
	<path fill="#71A027" d="M1,42.75c0,1.657,1.343,3,3,3h39.834c1.657,0,3-1.343,3-3V5.303c0-1.657-1.343-3-3-3H4
		c-1.657,0-3,1.343-3,3V42.75z"/>
</g>
<g>
	<path fill="#FFFFFF" d="M6.878,16.933c0-2.665,2.16-4.822,4.83-4.822c2.66,0,4.816,2.158,4.816,4.822
		c0,2.667-2.156,4.821-4.816,4.821C9.038,21.753,6.878,19.598,6.878,16.933z M28.231,21.446c-0.774-0.466-1.775-0.225-2.247,0.547
		l-3.218,5.277l-4.539-2.534c-2.04-1.257-3.035-1.853-6.065-1.853h-0.46h-0.461c-5.877,0.688-4.857,5.395-4.857,5.395l0.713,14.52
		l10.344-0.115l-0.408-14.404l5.516,2.617c0.254,0.143,0.525,0.207,0.795,0.207c0.554,0,1.091-0.279,1.4-0.785l4.038-6.624
		C29.247,22.923,29.007,21.916,28.231,21.446z M15.168,20.945c-0.358,0.308-0.749,0.57-1.176,0.776v0.76
		c0.426,0.051,0.818,0.121,1.176,0.219V20.945z M42.165,6.187H13.992v5.958c0.426,0.205,0.818,0.468,1.176,0.776V7.361h25.827
		v17.667H28.556l-0.715,1.174h14.324V6.187z M22.83,26.202l0.719-1.174h-3.761l2.101,1.174H22.83z M32.782,14.295l-0.567-0.325
		l-3.942,6.875l0.569,0.327L32.782,14.295z"/>
</g>
</svg>
