<?xml version="1.0" encoding="utf-8"?>
<!-- Generator: Adobe Illustrator 16.0.0, SVG Export Plug-In . SVG Version: 6.00 Build 0)  -->
<!DOCTYPE svg PUBLIC "-//W3C//DTD SVG 1.1//EN" "http://www.w3.org/Graphics/SVG/1.1/DTD/svg11.dtd">
<svg version="1.1" id="Layer_1" xmlns="http://www.w3.org/2000/svg" xmlns:xlink="http://www.w3.org/1999/xlink" x="0px" y="0px"
	 width="48px" height="48px" viewBox="0 0 48 48" enable-background="new 0 0 48 48" xml:space="preserve">
<g>
	<path fill="#DB4214" d="M1,42.75c0,1.657,1.343,3,3,3h39.834c1.657,0,3-1.343,3-3V5.303c0-1.657-1.343-3-3-3H4
		c-1.657,0-3,1.343-3,3V42.75z"/>
</g>
<g>
	<g>
		<path fill="#FFFFFF" d="M11.369,33.339h24.396c0.292,0,0.487-0.196,0.487-0.488V12.846c0-0.292-0.195-0.487-0.487-0.487H11.369
			c-0.292,0-0.488,0.195-0.488,0.487v20.005C10.881,33.143,11.077,33.339,11.369,33.339z M15.76,13.333v1.952h0.977v-1.952h6.343
			v7.319c0,0.293,0.195,0.488,0.488,0.488h9.271v-0.976h-8.783v-3.903h6.344c0.294,0,0.487-0.195,0.487-0.488V14.31H29.91v0.976
			h-5.855v-1.952h11.224v9.759H29.91v0.976h5.368v8.295h-19.03v-5.855h2.928v3.416h0.975v-3.416h3.903v3.903
			c0,0.293,0.195,0.488,0.488,0.488h8.295v-0.976h-7.807v-3.416h6.831v-0.977h-4.392v-2.439c0-0.292-0.195-0.488-0.488-0.488h-4.391
			c-0.292,0-0.488,0.195-0.488,0.488v1.463h0.976V23.58h3.415v1.952H15.76c-0.292,0-0.487,0.194-0.487,0.49v2.438h-1.952v0.976
			h1.952v2.928h-3.416V21.628h3.903c0.293,0,0.488-0.195,0.488-0.488v-2.44h-0.976v1.952h-3.416v-2.927h7.319v6.343h0.975v-6.832
			c0-0.292-0.194-0.487-0.487-0.487h-7.807v-3.416H15.76z"/>
		<path fill="#FFFFFF" d="M37.717,10.406H9.417c-0.292,0-0.488,0.196-0.488,0.488v23.91c0,0.292,0.196,0.487,0.488,0.487h16.589
			v3.902c0,0.196,0.146,0.39,0.293,0.439c0.098,0.049,0.146,0.049,0.194,0.049c0.146,0,0.294-0.049,0.342-0.146l3.758-4.245h7.123
			c0.293,0,0.488-0.195,0.488-0.487v-23.91C38.205,10.602,38.01,10.406,37.717,10.406z M37.229,34.362h-6.83
			c-0.098,0-0.244,0.05-0.341,0.147l-3.075,3.414v-3.12c0-0.294-0.194-0.488-0.488-0.488H9.905V11.382h27.323V34.362z"/>
	</g>
</g>
</svg>
