<?xml version="1.0" encoding="utf-8"?>
<!-- Generator: Adobe Illustrator 16.0.0, SVG Export Plug-In . SVG Version: 6.00 Build 0)  -->
<!DOCTYPE svg PUBLIC "-//W3C//DTD SVG 1.1//EN" "http://www.w3.org/Graphics/SVG/1.1/DTD/svg11.dtd">
<svg version="1.1" id="Layer_1" xmlns="http://www.w3.org/2000/svg" xmlns:xlink="http://www.w3.org/1999/xlink" x="0px" y="0px"
	 width="48px" height="48px" viewBox="0 0 48 48" enable-background="new 0 0 48 48" xml:space="preserve">
<g>
	<path fill="#891812" d="M1,42.75c0,1.657,1.343,3,3,3h39.834c1.657,0,3-1.343,3-3V5.303c0-1.657-1.343-3-3-3H4
		c-1.657,0-3,1.343-3,3V42.75z"/>
</g>
<g>
	<g>
		<path fill="#FFFFFF" d="M13.721,26.666l-2.479,6.733h2.082l0.302-0.962h2.14l0.282,0.962h2.15l-2.452-6.733H13.721z
			 M14.079,30.996l0.651-2.076h0.02l0.603,2.076H14.079z"/>
		<path fill="#FFFFFF" d="M20.909,22.267c0.282-0.088,0.534-0.217,0.753-0.387c0.22-0.17,0.397-0.381,0.533-0.635
			c0.135-0.254,0.204-0.552,0.204-0.892c0-0.246-0.034-0.462-0.1-0.65c-0.066-0.189-0.153-0.351-0.259-0.485
			c-0.106-0.134-0.231-0.247-0.373-0.333c-0.142-0.089-0.287-0.158-0.438-0.208c0.251-0.138,0.452-0.307,0.604-0.508
			c0.149-0.203,0.227-0.472,0.227-0.812c0-0.169-0.028-0.354-0.085-0.552c-0.056-0.199-0.165-0.381-0.326-0.552
			c-0.161-0.169-0.382-0.308-0.661-0.419c-0.28-0.109-0.64-0.165-1.08-0.165h-3.688v6.732h3.82
			C20.334,22.398,20.625,22.354,20.909,22.267z M18.296,17.269h1.093c0.215,0,0.385,0.035,0.514,0.104
			c0.13,0.07,0.195,0.189,0.195,0.359c0,0.219-0.063,0.368-0.189,0.443c-0.126,0.076-0.298,0.112-0.52,0.112h-1.093V17.269z
			 M19.513,20.795h-1.216v-1.253h1.301c0.484,0,0.725,0.204,0.725,0.612c0,0.131-0.022,0.239-0.065,0.32
			c-0.044,0.082-0.103,0.148-0.179,0.194c-0.076,0.047-0.162,0.081-0.259,0.099C19.721,20.788,19.618,20.795,19.513,20.795z"/>
		<path fill="#FFFFFF" d="M24.269,25.628c0.098-0.178,0.229-0.319,0.392-0.425c0.164-0.109,0.367-0.161,0.615-0.161
			c0.211,0,0.387,0.041,0.521,0.124c0.134,0.08,0.244,0.176,0.326,0.281c0.081,0.105,0.138,0.216,0.17,0.326
			c0.031,0.11,0.054,0.196,0.066,0.26h2.018c-0.09-0.85-0.385-1.504-0.893-1.966c-0.505-0.462-1.223-0.695-2.152-0.703
			c-0.521,0-0.992,0.085-1.41,0.255c-0.419,0.169-0.777,0.41-1.075,0.716c-0.299,0.31-0.529,0.682-0.688,1.114
			c-0.16,0.434-0.241,0.912-0.241,1.442c0,0.497,0.077,0.961,0.226,1.393c0.151,0.432,0.373,0.803,0.666,1.118
			c0.292,0.315,0.647,0.562,1.068,0.742c0.422,0.183,0.906,0.274,1.453,0.274c0.489,0,0.927-0.083,1.311-0.246
			s0.706-0.378,0.967-0.644c0.261-0.268,0.458-0.568,0.592-0.9c0.134-0.333,0.205-0.67,0.205-1.009h-2.038
			c-0.03,0.157-0.074,0.306-0.127,0.442c-0.054,0.139-0.123,0.259-0.207,0.358c-0.086,0.1-0.188,0.178-0.312,0.234
			c-0.122,0.058-0.272,0.086-0.445,0.086c-0.248,0-0.451-0.055-0.615-0.161c-0.163-0.107-0.294-0.249-0.392-0.426
			s-0.167-0.374-0.21-0.592c-0.046-0.222-0.066-0.443-0.066-0.671s0.021-0.447,0.066-0.669
			C24.102,26.001,24.171,25.804,24.269,25.628z"/>
		<path fill="#FFFFFF" d="M32.919,6.654c-5.005,0-9.079,2.8-9.079,6.244c0,1.952,1.327,3.784,3.567,4.961l-1.743,3.044l0.752-0.115
			c0.05-0.009,5.056-0.785,8.493-1.805C39.416,17.649,42,15.432,42,12.9C42,9.455,37.927,6.654,32.919,6.654z M33.831,16.278h-1.96
			v-1.867h1.96V16.278z M35.426,12.03c-0.077,0.179-0.176,0.328-0.298,0.447c-0.123,0.121-0.259,0.219-0.412,0.297
			c-0.148,0.079-0.305,0.159-0.459,0.24c-0.107,0.056-0.194,0.113-0.265,0.169c-0.071,0.057-0.124,0.118-0.161,0.18
			c-0.038,0.062-0.064,0.134-0.078,0.217c-0.017,0.081-0.024,0.176-0.024,0.283h-1.744c-0.009-0.095-0.011-0.214-0.011-0.36
			c0-0.15,0.02-0.305,0.059-0.462c0.034-0.156,0.102-0.311,0.196-0.461c0.094-0.152,0.23-0.277,0.414-0.377
			c0.075-0.039,0.165-0.079,0.265-0.123c0.1-0.045,0.198-0.094,0.287-0.147c0.09-0.053,0.167-0.118,0.229-0.194
			c0.064-0.075,0.095-0.166,0.095-0.272c0-0.32-0.182-0.482-0.547-0.482c-0.228,0-0.385,0.082-0.481,0.244
			c-0.096,0.163-0.132,0.35-0.112,0.557h-1.971c0.021-0.29,0.08-0.583,0.181-0.868c0.102-0.285,0.256-0.54,0.461-0.767
			c0.208-0.227,0.475-0.409,0.797-0.552c0.324-0.142,0.719-0.212,1.185-0.212c0.458,0,0.846,0.061,1.159,0.184
			c0.315,0.123,0.569,0.28,0.763,0.471c0.196,0.192,0.338,0.402,0.43,0.633c0.091,0.229,0.143,0.447,0.155,0.656
			C35.537,11.617,35.501,11.851,35.426,12.03z"/>
		<path fill="#FFFFFF" d="M29.532,39.096H9.006V10.253h14.293c0.28-0.564,0.671-1.093,1.163-1.572H7.434v31.986h23.669V21
			c-0.544,0.116-1.074,0.221-1.571,0.318V39.096z"/>
	</g>
</g>
</svg>
