<?xml version="1.0" encoding="utf-8"?>
<!-- Generator: Adobe Illustrator 16.0.0, SVG Export Plug-In . SVG Version: 6.00 Build 0)  -->
<!DOCTYPE svg PUBLIC "-//W3C//DTD SVG 1.1//EN" "http://www.w3.org/Graphics/SVG/1.1/DTD/svg11.dtd">
<svg version="1.1" id="Capa_1" xmlns="http://www.w3.org/2000/svg" xmlns:xlink="http://www.w3.org/1999/xlink" x="0px" y="0px"
	 width="767.88px" height="768px" viewBox="128.064 0 767.88 768" enable-background="new 128.064 0 767.88 768"
	 xml:space="preserve">
<g>
	<path fill="#DCF3CA" d="M140.866,396.865c7.067,0,12.802-5.722,12.802-12.802c0-197.652,160.808-358.46,358.459-358.46
		c80.999,0,158.465,27.077,221.503,76.813h-67.877c-7.067,0-12.803,5.723-12.803,12.802c0,7.08,5.735,12.803,12.803,12.803h101.328
		c0.846,0.076,1.639,0.089,2.472,0h11.406V12.802C780.96,5.723,775.225,0,768.158,0c-7.067,0-12.803,5.723-12.803,12.802v74.381
		C686.787,30.827,601.5,0,512.128,0C300.355,0,128.064,172.291,128.064,384.064C128.064,391.144,133.799,396.865,140.866,396.865z"
		/>
	<path fill="#DCF3CA" d="M512.128,102.417c-155.303,0-281.647,126.344-281.647,281.646s126.344,281.647,281.647,281.647
		s281.647-126.345,281.647-281.647S667.431,102.417,512.128,102.417z M512.128,640.107c-141.182,0-256.042-114.861-256.042-256.043
		s114.861-256.042,256.042-256.042s256.043,114.86,256.043,256.042S653.31,640.107,512.128,640.107z"/>
	<path fill="#DCF3CA" d="M512.128,192.031c7.067,0,12.802-5.722,12.802-12.802v-25.604c0-7.079-5.734-12.802-12.802-12.802
		c-7.066,0-12.802,5.723-12.802,12.802v25.604C499.326,186.31,505.062,192.031,512.128,192.031z"/>
	<path fill="#DCF3CA" d="M512.128,576.096c-7.066,0-12.802,5.723-12.802,12.802v25.604c0,7.08,5.735,12.802,12.802,12.802
		c7.067,0,12.802-5.722,12.802-12.802v-25.604C524.93,581.819,519.195,576.096,512.128,576.096z"/>
	<path fill="#DCF3CA" d="M716.962,396.865h25.604c7.066,0,12.802-5.722,12.802-12.802c0-7.079-5.735-12.802-12.802-12.802h-25.604
		c-7.066,0-12.802,5.723-12.802,12.802C704.16,391.144,709.896,396.865,716.962,396.865z"/>
	<path fill="#DCF3CA" d="M307.294,371.262h-25.604c-7.066,0-12.802,5.723-12.802,12.802c0,7.08,5.735,12.802,12.802,12.802h25.604
		c7.067,0,12.802-5.722,12.802-12.802C320.096,376.985,314.361,371.262,307.294,371.262z"/>
	<path fill="#DCF3CA" d="M524.93,321.871v-65.829c0-7.079-5.734-12.802-12.802-12.802c-7.066,0-12.802,5.723-12.802,12.802v65.829
		c-22.02,5.723-38.406,25.591-38.406,49.391c0,9.474,2.752,18.229,7.259,25.848L362.253,503.034c-5.006,5.005-5.006,13.096,0,18.102
		c2.497,2.497,5.774,3.751,9.051,3.751s6.555-1.254,9.051-3.751L486.28,415.211c7.617,4.507,16.374,7.259,25.848,7.259
		c28.241,0,51.209-22.967,51.209-51.208C563.337,347.462,546.95,327.594,524.93,321.871z M512.128,396.865
		c-14.121,0-25.604-11.483-25.604-25.604c0-14.121,11.483-25.604,25.604-25.604s25.604,11.483,25.604,25.604
		C537.732,385.382,526.249,396.865,512.128,396.865z"/>
	<path fill="#DCF3CA" d="M280.269,674.16c-4.225,5.62-3.072,13.686,2.688,17.91c2.176,1.664,4.865,2.432,7.553,2.432
		c3.969,0,7.809-1.664,10.37-5.12c4.097-5.62,2.945-13.686-2.688-17.91C292.559,667.247,284.506,668.399,280.269,674.16z"/>
	<path fill="#DCF3CA" d="M220.624,592.355c-4.097-5.62-12.162-7.041-17.923-2.932c-5.761,4.225-7.041,12.162-2.944,17.91
		c2.561,3.469,6.401,5.377,10.498,5.377c2.56,0,5.121-0.769,7.425-2.42C223.427,606.181,224.72,598.115,220.624,592.355z"/>
	<path fill="#DCF3CA" d="M225.604,620.263c-5.249,4.725-5.761,12.803-1.024,18.038c2.433,2.945,6.017,4.366,9.602,4.366
		c2.945,0,6.017-1.024,8.45-3.201c5.249-4.736,5.761-12.802,1.024-18.051C239.059,616.038,230.993,615.655,225.604,620.263z"/>
	<path fill="#DCF3CA" d="M269.656,647.787c-5.121-4.736-13.314-4.353-18.051,0.781c-4.865,5.236-4.48,13.314,0.768,18.179
		c2.433,2.177,5.505,3.329,8.578,3.329c3.457,0,6.913-1.408,9.474-4.097c4.737-5.249,4.48-13.314-0.768-18.052
		C269.656,647.787,269.656,647.787,269.656,647.787z"/>
	<path fill="#DCF3CA" d="M200.652,561.245c-0.128,0-0.128,0-0.128,0c-3.457-6.146-11.266-8.321-17.411-4.737
		c-6.145,3.47-8.321,11.267-4.737,17.411c2.304,4.084,6.657,6.401,11.138,6.401c2.048,0,4.353-0.512,6.273-1.664
		C201.932,575.199,204.109,567.377,200.652,561.245z"/>
	<path fill="#DCF3CA" d="M882.622,411.204c0.256,0,0.384,0,0.512,0c6.913,0,12.546-5.518,12.802-12.29
		c0.257-7.182-5.248-13.071-12.29-13.314c-7.041-0.269-13.058,5.249-13.313,12.29S875.567,410.948,882.622,411.204z"/>
	<path fill="#DCF3CA" d="M144.195,435.145c7.041-0.781,12.162-7.055,11.394-14.096c-0.768-7.041-7.041-12.162-14.082-11.394
		c-7.042,0.64-12.162,7.041-11.394,13.954c0.64,6.657,6.273,11.521,12.674,11.521C143.298,435.145,143.683,435.145,144.195,435.145z
		"/>
	<path fill="#DCF3CA" d="M151.364,472.782c6.913-1.408,11.394-8.193,9.858-15.106c-1.408-6.913-8.193-11.406-15.106-9.87
		c-6.914,1.408-11.394,8.206-9.858,15.119c1.152,6.017,6.529,10.113,12.418,10.113C149.559,473.038,150.468,473.038,151.364,472.782
		z"/>
	<path fill="#DCF3CA" d="M183.881,528.088c-2.816-6.401-10.37-9.346-16.899-6.529c-6.401,2.816-9.346,10.369-6.529,16.886
		c2.176,4.737,6.785,7.694,11.778,7.694c1.664,0,3.457-0.384,5.121-1.165C183.74,542.17,186.685,534.616,183.881,528.088z"/>
	<path fill="#DCF3CA" d="M170.682,493.522c-2.048-6.785-9.345-10.497-16.002-8.321c-6.785,2.177-10.498,9.346-8.321,16.144
		c1.792,5.377,6.785,8.82,12.162,8.82c1.28,0,2.688-0.128,3.968-0.512C169.159,507.477,172.872,500.166,170.682,493.522z"/>
	<path fill="#DCF3CA" d="M505.215,742.396c-7.041-0.142-12.93,5.505-13.059,12.533c-0.128,7.182,5.506,12.93,12.547,13.071
		c0.128,0,0.256,0,0.256,0c7.041,0,12.674-5.519,12.802-12.547C517.876,748.412,512.256,742.524,505.215,742.396z"/>
	<path fill="#DCF3CA" d="M795.439,603.492c-4.353,5.505-3.329,13.583,2.176,17.923c2.433,1.792,5.121,2.688,7.938,2.688
		c3.713,0,7.554-1.664,10.114-5.006c4.353-5.505,3.328-13.57-2.305-17.91S799.792,597.86,795.439,603.492z"/>
	<path fill="#DCF3CA" d="M714.773,679.537c-5.762,3.969-7.298,12.021-3.201,17.795c2.433,3.584,6.401,5.505,10.498,5.505
		c2.561,0,4.993-0.641,7.297-2.177c5.761-3.969,7.298-12.021,3.201-17.795C728.6,676.977,720.675,675.569,714.773,679.537z"/>
	<path fill="#DCF3CA" d="M744.23,656.992c-5.377,4.608-6.017,12.674-1.408,18.051c2.561,2.944,6.146,4.494,9.729,4.494
		c2.944,0,5.89-1.024,8.321-3.073c5.377-4.608,6.018-12.674,1.408-18.051C757.66,653.036,749.607,652.397,744.23,656.992z"/>
	<path fill="#DCF3CA" d="M834.217,568.913c-6.017-3.712-13.954-1.792-17.667,4.097c-3.713,6.018-1.92,13.955,4.097,17.667
		c2.177,1.294,4.48,1.921,6.785,1.921c4.225,0,8.449-2.049,10.882-6.03C842.039,580.576,840.247,572.626,834.217,568.913z"/>
	<path fill="#DCF3CA" d="M771.243,631.53c-4.993,5.107-4.736,13.173,0.384,18.051c2.433,2.419,5.633,3.571,8.834,3.571
		c3.328,0,6.785-1.28,9.217-3.969c4.865-5.12,4.737-13.186-0.384-18.051C784.174,626.268,776.096,626.408,771.243,631.53z"/>
	<path fill="#DCF3CA" d="M881.457,423.865c-6.913-1.012-13.442,3.981-14.467,10.895c-1.024,7.041,3.841,13.442,10.882,14.467
		c0.64,0.128,1.28,0.128,1.792,0.128c6.273,0,11.778-4.596,12.675-10.997C893.376,431.432,888.511,424.89,881.457,423.865z"/>
	<path fill="#DCF3CA" d="M875.452,461.76c-6.913-1.664-13.826,2.561-15.618,9.346c-1.664,6.913,2.561,13.826,9.346,15.618
		c1.024,0.269,2.048,0.384,3.072,0.384c5.761,0,11.01-3.968,12.418-9.729C886.463,470.478,882.225,463.565,875.452,461.76z"/>
	<path fill="#DCF3CA" d="M329.045,692.083c-6.145-3.572-13.955-1.664-17.539,4.493c-3.713,6.018-1.665,13.955,4.353,17.539
		c2.048,1.28,4.353,1.792,6.529,1.792c4.353,0,8.577-2.176,11.01-6.272C337.11,703.605,335.075,695.796,329.045,692.083z"/>
	<path fill="#DCF3CA" d="M865.454,498.899c-6.657-2.419-14.082,1.024-16.387,7.682c-2.433,6.67,0.896,13.967,7.554,16.387
		c1.408,0.512,2.944,0.781,4.353,0.781c5.249,0,10.241-3.201,12.034-8.45C875.452,508.615,872.111,501.331,865.454,498.899z"/>
	<path fill="#DCF3CA" d="M851.641,534.744c-6.273-3.06-14.082-0.512-17.155,5.89c-3.072,6.401-0.384,14.095,5.89,17.154
		c1.792,0.896,3.712,1.293,5.633,1.293c4.736,0,9.346-2.688,11.521-7.182C860.602,545.486,858.042,537.818,851.641,534.744z"/>
	<path fill="#DCF3CA" d="M468.217,739.835c-7.041-0.896-13.314,4.084-14.211,11.138c-0.896,7.041,4.098,13.442,11.139,14.197v0.142
		c0.512,0,1.023,0,1.536,0c6.401,0,11.905-4.737,12.674-11.279C480.251,747.004,475.245,740.718,468.217,739.835z"/>
	<path fill="#DCF3CA" d="M396.141,723.321c-6.657-2.317-13.954,1.152-16.259,7.938c-2.304,6.656,1.28,13.954,7.938,16.258
		c1.408,0.385,2.816,0.641,4.225,0.641c5.249,0,10.242-3.328,12.034-8.577C406.382,732.794,402.798,725.496,396.141,723.321z"/>
	<path fill="#DCF3CA" d="M431.73,733.434c-6.913-1.536-13.698,2.688-15.362,9.602c-1.536,6.913,2.816,13.826,9.602,15.363
		c1.024,0.256,1.92,0.256,2.944,0.256c5.761,0,11.138-3.969,12.418-9.858C442.983,741.883,438.644,734.97,431.73,733.434z"/>
	<path fill="#DCF3CA" d="M361.831,709.494c-6.529-3.073-14.083-0.27-17.027,6.132c-2.945,6.401-0.256,14.095,6.145,17.026
		c1.792,0.781,3.584,1.152,5.377,1.152c4.865,0,9.474-2.688,11.65-7.412C370.92,719.991,368.232,712.426,361.831,709.494z"/>
	<path fill="#DCF3CA" d="M578.955,736.25c-6.913,1.28-11.521,8.065-10.241,14.979c1.151,6.146,6.656,10.383,12.674,10.383
		c0.769,0,1.536,0,2.305-0.141c6.913-1.396,11.521-8.065,10.241-14.979C592.653,739.451,585.868,734.97,578.955,736.25z"/>
	<path fill="#DCF3CA" d="M614.929,727.545c-6.784,1.907-10.625,9.09-8.577,15.861c1.664,5.518,6.785,9.103,12.29,9.103
		c1.152,0,2.433-0.141,3.713-0.512c6.785-2.049,10.626-9.23,8.577-16.003C628.871,729.337,621.714,725.496,614.929,727.545z"/>
	<path fill="#DCF3CA" d="M649.879,714.999c-6.529,2.688-9.602,10.241-6.913,16.783c2.048,4.865,6.785,7.797,11.778,7.797
		c1.664,0,3.328-0.257,4.992-0.884c6.529-2.829,9.602-10.254,6.913-16.783C663.82,715.383,656.408,712.311,649.879,714.999z"/>
	<path fill="#DCF3CA" d="M542.2,741.231c-7.041,0.652-12.29,6.785-11.649,13.826c0.512,6.67,6.145,11.777,12.802,11.777
		c0.256,0,0.64,0,1.024,0v-0.128c7.041-0.512,12.29-6.656,11.649-13.698C555.515,745.98,549.254,740.718,542.2,741.231z"/>
	<path fill="#DCF3CA" d="M683.279,698.996c-6.272,3.328-8.577,11.138-5.12,17.296c2.304,4.353,6.657,6.772,11.266,6.772
		c2.048,0,4.097-0.513,6.017-1.665c6.273-3.328,8.578-11.138,5.121-17.282C697.247,697.844,689.425,695.539,683.279,698.996z"/>
</g>
</svg>
