<?xml version="1.0" encoding="utf-8"?>
<!-- Generator: Adobe Illustrator 21.0.0, SVG Export Plug-In . SVG Version: 6.00 Build 0)  -->
<svg version="1.1" id="Layer_1" xmlns="http://www.w3.org/2000/svg" xmlns:xlink="http://www.w3.org/1999/xlink" x="0px" y="0px"
	 viewBox="0 0 59 59" style="enable-background:new 0 0 59 59;" xml:space="preserve">
<style type="text/css">
	.st0{fill:#0199DE;}
</style>
<g>
	<path class="st0" d="M17,47.3h11.1v3.4H17V47.3z"/>
	<path class="st0" d="M34.2,12.1c0,1-0.4,1.9-1.1,2.8c-0.8,0.9-1.6,1.3-2.6,1.3c-1.8,0-2.7-1-2.7-3c0-1.2,0.3-2.3,0.8-3.1
		c0.6-1.1,1.5-1.6,2.7-1.6c0.8,0,1.5,0.4,2.1,1.2C33.9,10.4,34.2,11.3,34.2,12.1z M32.8,12.7c0-0.4-0.4-0.9-1.1-1.4
		c-0.7-0.5-1.3-0.8-1.7-0.8c-1,0-1.5,0.6-1.5,1.7c0,1,0.8,1.5,2.4,1.5C32.2,13.8,32.8,13.4,32.8,12.7z"/>
	<path class="st0" d="M30.7,24.8c-0.3-0.3-0.7-0.9-1.1-1.6c0.5-1.2,1.2-2.3,2.2-3.3c0.1,1,0.5,1.8,1.2,2.5c0.7,0.7,1.5,1.1,2.5,1.2
		l-1.8,3.3l-0.9-0.5c-0.2,1.7-0.3,2.7-0.3,2.9c0,1.3,0.3,3.3,0.8,5.9c0.5,2.6,0.8,4.6,0.8,5.9c0,6.4-1.9,9.6-5.8,9.6h-2v-3.4
		c1.9,0,3.2-0.1,4.1-0.3c1.6-0.5,2.4-1.5,2.4-2.8c0-0.6-0.2-2.3-0.7-5.3c-0.3-2-0.7-3.9-1-5.9c-0.4-2.4-0.6-4.4-0.6-5.8
		c0-0.2,0-0.5,0.1-1s0.1-0.9,0-1.2V24.8z"/>
	<path class="st0" d="M42,43.7c0,1.7-0.5,4-1.4,6.9L40,50.5c0.2-1,0.3-2,0.3-3c0-2-0.2-4.6-0.6-7.8c-0.3-2.6-0.7-5.1-1-7.7
		c-0.2-1.6-0.3-2.5-0.3-2.8c0-1.4,0.2-2.5,0.5-3.2c0.5-0.9,1-1.8,1.5-2.7c0,2.6,0.5,8,1.5,16.1C41.9,41.1,42,42.5,42,43.7z"/>
</g>
</svg>
