<?xml version="1.0" encoding="utf-8"?>
<!-- Generator: Adobe Illustrator 21.0.0, SVG Export Plug-In . SVG Version: 6.00 Build 0)  -->
<svg version="1.1" id="Layer_1" xmlns="http://www.w3.org/2000/svg" xmlns:xlink="http://www.w3.org/1999/xlink" x="0px" y="0px"
	 viewBox="0 0 200.6 200" style="enable-background:new 0 0 200.6 200;" xml:space="preserve">
<style type="text/css">
	.st0{opacity:0.55;}
	.st1{fill:#231F20;}
</style>
<title>Artboard 37</title>
<g>
	<g id="Layer_1_1_">
		<g class="st0">
			<path class="st1" d="M199.9,199.9h-58.4c-1.1,0.2-2.3,0.2-3.5,0c-2.1-0.9-3.4-3.1-3-5.3c0.4-2.6,2.8-4.5,5.5-4.1h42.4l-2.5-2.5
				L117.6,125c-1.2-1.2-2.1-2.8-2.5-4.5c-0.6-1.9,0.5-3.9,2.4-4.4c0,0,0,0,0.1,0c1.7-0.4,3.4-0.4,5.1,0c1,0,1.7,1.3,2.5,2.1
				l62.3,62.3l2.6,2.5v-41.1c-0.1-1-0.1-2,0-3c0.4-2.7,2.9-4.5,5.6-4.1c2.1,0.3,3.8,2,4.1,4.1c0.1,0.6,0.1,1.2,0,1.8V198
				C199.8,198,199.9,199.1,199.9,199.9z"/>
			<path class="st1" d="M0,0h60c2.7,0,5,2.2,5.1,4.9c0,2.8-2.2,5-5,5c-1.8,0-3.6,0-5.3,0H17.9L17,11.1c0.8,0,1.8,0.6,2.5,1.2
				l62.7,62.7c3.2,3.2,3.7,6.1,1.4,8.5s-5.3,1.8-8.5-1.4L12.5,19.4c-0.6-0.7-1-1.5-1.3-2.3L10,17.8v40.9c0,4-1.9,6.4-5,6.4
				s-5-2.3-5-6.2V0z"/>
			<path class="st1" d="M17.8,190h41.6c4.1,0,6.6,2.9,5.5,6.5c-0.6,2.1-2.5,3.5-4.7,3.5H0v-4.7c0-17.7,0-35.4,0-53.1
				c0-4.7,1.7-7,4.9-7s5,2.3,5,7v40.2L11,183c0.3-0.9,0.8-1.7,1.3-2.5l62.5-62.5c0.7-0.8,1.4-1.5,2.2-2.1c1.8-1.5,4.4-1.5,6.2,0
				c1.8,1.7,2.1,4.4,0.8,6.5c-0.7,0.9-1.4,1.7-2.2,2.5l-62.5,62.7c-0.8,0.5-1.6,0.9-2.5,1.2L17.8,190z"/>
			<path class="st1" d="M189.4,17c-0.4,0.8-0.9,1.6-1.4,2.3l-62.5,62.3c-0.4,0.4-0.8,0.8-1.2,1.2c-1.7,2.3-5,2.8-7.3,1.1
				c-0.2-0.1-0.3-0.3-0.5-0.4c-2-2.1-1.8-5.4,0.3-7.4c0.2-0.1,0.3-0.3,0.5-0.4l63.3-63.3c0.7-0.5,1.5-0.9,2.2-1.3v-1h-40.1
				c-1,0.1-2,0.1-3,0c-2.4-0.3-4.3-2.4-4.2-4.9c-0.2-2.5,1.5-4.7,3.9-5.2h61.3v57.8c0.1,1,0.1,2.1,0,3.1c-0.4,2.7-2.9,4.5-5.6,4.1
				c-2.1-0.3-3.8-2-4.1-4.1c-0.1-0.9-0.1-1.9,0-2.8V17.9L189.4,17z"/>
		</g>
	</g>
</g>
</svg>
