<?xml version="1.0" encoding="utf-8"?>
<!-- Generator: Adobe Illustrator 21.0.0, SVG Export Plug-In . SVG Version: 6.00 Build 0)  -->
<svg version="1.1" id="Layer_1" xmlns="http://www.w3.org/2000/svg" xmlns:xlink="http://www.w3.org/1999/xlink" x="0px" y="0px"
	 viewBox="0 0 113 200" style="enable-background:new 0 0 113 200;" xml:space="preserve">
<style type="text/css">
	.st0{fill:#808080;}
</style>
<title>Artboard 4</title>
<g id="surface1">
	<path class="st0" d="M3.5,0C1.4,0.4,0,2.2,0,4.3v191.5c0,1.5,0.9,3,2.2,3.7c1.3,0.8,3,0.8,4.3,0l50-29.1l50,29.1
		c1.4,0.8,3.1,0.8,4.5,0c1.3-0.8,2-2.2,2-3.7V4.3c0-2.4-1.9-4.3-4.3-4.3H3.5z M8.7,8.7h95.5V188l-45.5-26.6c-1.4-0.8-3.1-0.8-4.5,0
		L8.7,188V8.7z"/>
</g>
</svg>
