<?xml version="1.0" encoding="utf-8"?>
<!-- Generator: Adobe Illustrator 21.0.0, SVG Export Plug-In . SVG Version: 6.00 Build 0)  -->
<svg version="1.1" id="Layer_1" xmlns="http://www.w3.org/2000/svg" xmlns:xlink="http://www.w3.org/1999/xlink" x="0px" y="0px"
	 viewBox="0 0 184 200" style="enable-background:new 0 0 184 200;" xml:space="preserve">
<style type="text/css">
	.st0{fill:#808080;}
</style>
<title>Artboard 3</title>
<g>
	<path class="st0" d="M86,0c0.5,0.6,1,1.2,1.5,1.7L142,56.4c1.3,1.1,2.1,2.8,2.1,4.5c0,15.2,0,30.3,0,45.5c0.1,0.9,0.1,1.8,0,2.6
		c-0.1,2.2-1.9,3.9-4.1,3.8c-0.1,0-0.1,0-0.2,0c-1.9-0.2-3.5-1.6-3.8-3.6V64.2H79.6V7.7H8.1V184h58.7c3.4,0,5.1,1.3,5.1,4
		c0.2,2-1.2,3.7-3.2,3.9c-0.1,0-0.3,0-0.4,0H0V0H86z M88.2,14.5v42h41.4L88.2,14.5z"/>
	<path class="st0" d="M184,115.1c0.3,4.5-1.3,8.9-4.5,12l-52.1,52.3l-12.6,12.4c-0.9,0.8-2,1.5-3.2,1.9l-22.4,6
		c-4,0.9-6.4-1.5-5.3-5.5c2.1-7.5,4.1-15.1,6.4-22.4c0.5-1,1.2-1.9,2.1-2.6l59.3-60.2c1.7-1.7,3.2-3.6,4.9-5.1
		c6.6-6.1,17-5.7,23.1,0.9C182.3,107.7,183.8,111.3,184,115.1z M108.7,186.6l60.6-61.7L158.4,114l-59.8,60.4L108.7,186.6z"/>
</g>
</svg>
