<?xml version="1.0" encoding="utf-8"?>
<!-- Generator: Adobe Illustrator 21.0.0, SVG Export Plug-In . SVG Version: 6.00 Build 0)  -->
<svg version="1.1" id="Layer_1" xmlns="http://www.w3.org/2000/svg" xmlns:xlink="http://www.w3.org/1999/xlink" x="0px" y="0px"
	 viewBox="0 0 195.5 200" style="enable-background:new 0 0 195.5 200;" xml:space="preserve">
<style type="text/css">
	.st0{fill:#808080;}
</style>
<title>Artboard 2</title>
<g id="surface1">
	<path class="st0" d="M77.7,0C34.8,0,0,34.8,0,77.7s34.8,77.7,77.7,77.7c16.3,0.1,32.1-5.1,45.2-14.8l59.8,59.4l12.8-12.8L135.9,128
		c27.8-32.7,23.8-81.7-8.9-109.5C113.2,6.8,95.8,0.2,77.7,0z M77.7,9.1c37.7,0.1,68.3,30.8,68.2,68.5c-0.1,37.7-30.8,68.3-68.5,68.2
		c-37.6-0.1-68-30.6-68.2-68.2C8.9,40,39.3,9.3,76.9,9.1C77.2,9.1,77.4,9.1,77.7,9.1z"/>
</g>
</svg>
