<?xml version="1.0" encoding="utf-8"?>
<!-- Generator: Adobe Illustrator 21.0.0, SVG Export Plug-In . SVG Version: 6.00 Build 0)  -->
<svg version="1.1" id="Layer_1" xmlns="http://www.w3.org/2000/svg" xmlns:xlink="http://www.w3.org/1999/xlink" x="0px" y="0px"
	 viewBox="0 0 201.2 200" style="enable-background:new 0 0 201.2 200;" xml:space="preserve">
<style type="text/css">
	.st0{fill:#808080;}
</style>
<title>Artboard 10</title>
<path class="st0" d="M39.1,200v-38H13.8c-7.2,0.3-13.4-5.3-13.7-12.5c0-0.7,0-1.4,0.1-2.1V69.8c-0.2-7.2,5.4-13.1,12.6-13.3
	c0.3,0,0.6,0,0.9,0h25.6V0h123v56.5h25.2c7.1-0.5,13.3,4.9,13.9,12c0,0.6,0,1.2,0,1.9v76.9c0.4,7.2-5.1,13.4-12.4,13.9
	c-0.4,0-0.9,0-1.3,0h-25.4V200L39.1,200z M162.1,152.3h24.8c4.1,0,5.6-1.4,5.6-5.6V70.6c0-4-1.4-5.4-5.4-5.4h-173
	c-4,0-5.2,1.4-5.2,5.2v76.7c0,3.8,1.4,5.2,5,5.2h25.4v-39.1h122.8V152.3z M152.6,122.1H48.1v69.3h104.4V122.1z M152.6,8.6H48.1v47.7
	h104.4V8.6z"/>
<path class="st0" d="M169.8,95.6c-4.6-0.4-8.1-4.4-7.7-9c0-5,4-9,9-9s9,4,9,9c0.2,4.9-3.6,8.9-8.5,9.1
	C171,95.7,170.4,95.7,169.8,95.6z"/>
</svg>
