<?xml version="1.0" encoding="utf-8"?>
<!-- Generator: Adobe Illustrator 21.0.0, SVG Export Plug-In . SVG Version: 6.00 Build 0)  -->
<svg version="1.1" id="Layer_1" xmlns="http://www.w3.org/2000/svg" xmlns:xlink="http://www.w3.org/1999/xlink" x="0px" y="0px"
	 viewBox="0 0 131.3 161.9" style="enable-background:new 0 0 131.3 161.9;" xml:space="preserve">
<style type="text/css">
	.st0{fill:#FFFFFF;}
</style>
<title>Artboard 7</title>
<g>
	<path class="st0" d="M86.2,154.6H5.9V6.9h79.4v47h40.3v34c1.8-1,3.7-1.8,5.6-2.3V51.2c0-1.6-0.5-2.9-1.4-3.9L90.7,1.5
		c-0.4-0.4-0.8-1-1.1-1.5H0v161.3h84.4C85,159,85.5,156.8,86.2,154.6z M91.3,12.1L121,47H91.3V12.1z"/>
</g>
<path class="st0" d="M129.7,103.3c0.8,2.3,0.5,4.7-0.6,6.8l-19.4,33.9c-1.6,2.7-3.1,5.4-4.7,8.2c-0.3,0.5-0.8,1-1.4,1.4
	c-3.5,2.1-7,4.1-10.6,6.1c-1.8,1.1-3.5,0.2-3.4-2c0-4.1,0-8.3,0.1-12.4c0-0.7,0.2-1.5,0.6-2.1c7.3-12.9,14.7-25.8,22-38.7
	c0.5-1.1,1.1-2.2,1.7-3.3c1.8-3,5.3-4.6,8.7-4C126,97.7,128.8,100.1,129.7,103.3z M101.6,150.4l22.4-39.9l-7.1-4l-22.7,39.2
	L101.6,150.4z"/>
</svg>
