<?xml version="1.0" encoding="utf-8"?>
<!-- Generator: Adobe Illustrator 21.0.0, SVG Export Plug-In . SVG Version: 6.00 Build 0)  -->
<svg version="1.1" id="Layer_1" xmlns="http://www.w3.org/2000/svg" xmlns:xlink="http://www.w3.org/1999/xlink" x="0px" y="0px"
	 viewBox="0 0 144.5 192.4" style="enable-background:new 0 0 144.5 192.4;" xml:space="preserve">
<style type="text/css">
	.st0{fill:#34B450;}
</style>
<title>Artboard 29</title>
<path class="st0" d="M86.1,0c0.5,0.6,1,1.3,1.5,1.8l54.7,54.6c1.3,1.2,2,2.8,2,4.6c0,15.3,0,30.5,0,45.7c0.1,0.9,0.1,1.7,0,2.6
	c-0.5,1.8-2.1,3.1-4,3.1c-2-0.2-3.6-1.7-3.8-3.7c0-0.6,0-1.2,0-1.8V64.3H80.1V8.2H8.3v176.2H67c3.2,0,5,1.3,5.1,3.9
	c0.1,2.1-1.5,3.9-3.6,4.1H0V2c0-0.6,0-1.3,0-2H86.1z M88.3,14.4V56h41.6L88.3,14.4z"/>
<path class="st0" d="M184.4,115.4c0.3,4.5-1.4,8.9-4.5,12.1l-52.2,52c-4.2,4.1-8.3,8.3-12.7,12.5c-0.9,0.8-2,1.5-3.2,1.9
	c-7.4,2.1-14.9,4-22.4,5.9c-3.9,1.1-6.4-1.4-5.3-5.3c2.1-7.5,4.1-15.1,6.4-22.5c0.4-1.3,1.1-2.6,2.2-3.5
	c19.7-19.9,39.6-39.7,59.4-59.5c1.5-1.8,3.1-3.5,4.8-5.1c4.8-4.6,12-5.8,17.9-2.9C180.6,103.4,184.4,109.1,184.4,115.4z
	 M109.8,187.2l60.7-61.6l-10.9-10.9l-60.9,60L109.8,187.2z"/>
</svg>
