<?xml version="1.0" encoding="utf-8"?>
<!-- Generator: Adobe Illustrator 21.0.0, SVG Export Plug-In . SVG Version: 6.00 Build 0)  -->
<svg version="1.1" id="Layer_1" xmlns="http://www.w3.org/2000/svg" xmlns:xlink="http://www.w3.org/1999/xlink" x="0px" y="0px"
	 viewBox="0 0 131.3 161.9" style="enable-background:new 0 0 131.3 161.9;" xml:space="preserve">
<style type="text/css">
	.st0{fill:#FFFFFF;}
</style>
<title>Artboard 7</title>
<g>
	<path class="st0" d="M89.6,0c0.3,0.5,0.7,1.1,1.1,1.5l39.1,45.8c0.9,1,1.4,2.3,1.4,3.9c0,12.8,0,93.3,0,106c0.1,0.8,0.1,1.4,0,2.2
		c-0.3,1.5-1.5,2.6-2.9,2.6c-1.4-0.2-2.6-1.4-2.7-3c0-0.5,0-1,0-1.5V53.9H85.3v-47H5.9v147.6h119.8c2.3,0,3.5,1.1,3.7,3.3
		c0.1,1.8-1.1,3.3-2.6,3.4H0V1.7C0,1.2,0,0.6,0,0H89.6z M91.3,12.1V47H121L91.3,12.1z"/>
</g>
</svg>
