<?xml version="1.0" encoding="utf-8"?>
<!-- Generator: Adobe Illustrator 21.0.0, SVG Export Plug-In . SVG Version: 6.00 Build 0)  -->
<svg version="1.1" id="Layer_1" xmlns="http://www.w3.org/2000/svg" xmlns:xlink="http://www.w3.org/1999/xlink" x="0px" y="0px"
	 viewBox="0 0 199.4 200" style="enable-background:new 0 0 199.4 200;" xml:space="preserve">
<style type="text/css">
	.st0{fill:#FFFFFF;}
</style>
<title>Artboard 29</title>
<path class="st0" d="M199.4,19.1c0,5.5-2.4,10.7-6.5,14.3c-1.3,1.3-2.7,2.4-1.9,4.8c0.8,2.3-0.6,2.4-1,3.6c-0.4,0.6-0.9,1.1-1.4,1.5
	L48.9,182.5c-1.4,1.4-3,2.4-4.9,3.1c-12.2,4.8-24.5,9.3-36.7,13.8c-1.3,0.6-2.8,0.7-4.2,0.6c-3.1-0.6-3.8-3.4-2.6-6.6
	c4-10.7,8.3-21.4,12.1-32.2c2-5.3,5.2-10,9.3-13.7C67,102.2,112,57,157.1,11.7c1.4-1.9,3.8-2.9,6.2-2.6c0.7,0,1.6-0.7,2.1-1.2
	c3-3.6,7-6.2,11.5-7.5c10.1-2.1,20,4.5,22,14.6C199.3,16.3,199.4,17.7,199.4,19.1z M44.2,174.3L161,57.2l-17.8-17.9L25.9,156
	c1.4,2.6,4.4,4,7.3,3.5c1.1-0.1,2.1-0.1,3.2,0c2.4,0,4.3,2,4.4,4.4c0.1,1.1,0.1,2.1,0,3.2C40.1,170,41.5,172.9,44.2,174.3z
	 M179.6,38.6l-18-18l-12.1,11.6l18.7,18.7L179.6,38.6z M36.2,178.7c-3.6-2-5.4-6.2-4.5-10.2c-4.1,1.2-8.4-0.5-10.7-4.1
	c-1.9,5-3.5,9.3-5.1,13.7c-1.7,4.4-1.5,4,1.7,6.7c0.5,0.4,1.1,0.6,1.8,0.6L36.2,178.7z M184.3,29.2c1.4-1.3,2.6-2.7,3.8-4.2
	c2.5-2.8,3-6.9,1.3-10.3c-1.7-3.2-5-5.2-8.6-5c-4.9,0-7.5,3.2-10.2,6.3L184.3,29.2z"/>
</svg>
