<?xml version="1.0" encoding="utf-8"?>
<!-- Generator: Adobe Illustrator 21.0.0, SVG Export Plug-In . SVG Version: 6.00 Build 0)  -->
<svg version="1.1" id="Layer_1" xmlns="http://www.w3.org/2000/svg" xmlns:xlink="http://www.w3.org/1999/xlink" x="0px" y="0px"
	 viewBox="0 0 199.7 200" style="enable-background:new 0 0 199.7 200;" xml:space="preserve">
<style type="text/css">
	.st0{fill:#FFFFFF;}
</style>
<title>Artboard 31</title>
<g>
	<path class="st0" d="M53.5,53.5H0V0h53.5V53.5z M48.1,5.5H5.2v42.9h42.9V5.5z"/>
	<path class="st0" d="M126.6,53.5H73.1V0h53.5L126.6,53.5z M121.2,5.5H78.4v42.9h42.9V5.5z"/>
	<path class="st0" d="M199.7,53.5h-53.5V0h53.5V53.5z M194.3,5.5h-42.9v42.9h42.9V5.5z"/>
	<path class="st0" d="M53.5,126.8H0V73.2h53.5V126.8z M48.1,78.7H5.2v42.9h42.9V78.7z"/>
	<path class="st0" d="M126.6,126.8H73.1V73.2h53.5L126.6,126.8z M121.2,78.7H78.4v42.9h42.9V78.7z"/>
	<path class="st0" d="M199.7,126.8h-53.5V73.2h53.5V126.8z M194.3,78.7h-42.9v42.9h42.9V78.7z"/>
	<path class="st0" d="M53.5,200H0v-53.5h53.5V200z M48.1,151.9H5.2v42.9h42.9V151.9z"/>
	<path class="st0" d="M126.6,200H73.1v-53.5h53.5L126.6,200z M121.2,151.9H78.4v42.9h42.9V151.9z"/>
	<path class="st0" d="M199.7,200h-53.5v-53.5h53.5V200z M194.3,151.9h-42.9v42.9h42.9V151.9z"/>
</g>
</svg>
