<?xml version="1.0" encoding="utf-8"?>
<!-- Generator: Adobe Illustrator 21.0.0, SVG Export Plug-In . SVG Version: 6.00 Build 0)  -->
<svg version="1.1" id="Layer_1" xmlns="http://www.w3.org/2000/svg" xmlns:xlink="http://www.w3.org/1999/xlink" x="0px" y="0px"
	 viewBox="0 0 223.9 200" style="enable-background:new 0 0 223.9 200;" xml:space="preserve">
<style type="text/css">
	.st0{fill:#FFFFFF;}
</style>
<title>Artboard 6</title>
<path class="st0" d="M117.1,198.5c12.3-3.6,25-5.6,37.8-5.9c21.3-0.2,42.5,2.1,63.3,6.9c1.2,0.5,2.7,0.5,3.9,0
	c1.1-0.5,1.8-1.6,1.8-2.8V39.5c-0.1-1.9-1.5-3.4-3.4-3.6l-9.1-1.6c-2.2-0.4-4.4,0.9-5.2,3c-0.1,2.1,1.5,3.9,3.6,4.1l5.5,0.9v149.1
	c-19.9-4.1-40.1-6.2-60.4-6c-14.5,0.4-28.9,2.6-42.8,6.8c-12.5-4.3-25.7-6.6-38.9-6.8c-21.7,0.1-43.3,2.1-64.7,6V42.3
	c21.3-4.2,43-6.3,64.7-6.4c11.7,0.1,23.4,2.1,34.5,5.9V182c0,1.4,0.9,2.6,2.1,3c1.3,0.7,2.9,0.7,4.3,0
	c26.2-12.7,53.5-23.3,81.4-31.6c1.6-0.4,2.8-1.7,3-3.4V4c0.3-1.6-0.8-3.2-2.4-3.5c-0.2,0-0.4-0.1-0.6,0c-1.2-0.5-2.7-0.5-3.9,0
	c-23.7,7.9-46.7,17.6-68.9,29c-1.7,0.6-2.5,2.4-1.9,4.1c0.1,0.3,0.3,0.6,0.5,0.9c1.4,1.9,3.9,2.6,6,1.6
	c20.1-10.3,40.9-19.3,62.2-26.8v138.2c-25.1,7.7-49.5,17.2-73.2,28.4V39.5c0.2-1.6-0.8-3.1-2.3-3.6c-13-4.8-26.8-7.2-40.7-7.1
	c-23.5-0.2-47,2.2-70,7.1c-2,0-3.2,2-3.2,3.6v156.4c0.1,1.2,0.7,2.3,1.8,2.8c0.8,0.3,1.7,0.3,2.5,0h1.2c22.3-4.6,45-6.9,67.7-6.9
	c11.5,0.1,22.9,2,33.8,5.7C110,199.3,113.7,199.7,117.1,198.5z"/>
</svg>
