<?xml version="1.0" encoding="utf-8"?>
<!-- Generator: Adobe Illustrator 16.0.0, SVG Export Plug-In . SVG Version: 6.00 Build 0)  -->
<!DOCTYPE svg PUBLIC "-//W3C//DTD SVG 1.1//EN" "http://www.w3.org/Graphics/SVG/1.1/DTD/svg11.dtd">
<svg version="1.1" id="Isolation_Mode" xmlns="http://www.w3.org/2000/svg" xmlns:xlink="http://www.w3.org/1999/xlink" x="0px"
	 y="0px" width="605.671px" height="888px" viewBox="0 0 605.671 888" enable-background="new 0 0 605.671 888"
	 xml:space="preserve">
<g opacity="0.1">
	<g>
		<path fill="#020202" d="M412.324,378.179c-3.324,10.767-14.882,11.986-24.449,8.557c-14.142-5.069-28.971-10.271-42.338-0.026
			c-1.188,0.908-2.152,1.944-2.988,3.041c-0.77-1.145-1.67-2.237-2.799-3.216c-10.723-9.293-23.713-6.323-36.394-4.111
			c-10.229,1.784-22.972,3.269-30.165-5.673c-2.463-3.061-3.856-7.197-2.848-10.994c-11.687,16.333-4.682,44.492,14.545,52.139
			c14.332,5.699,31.979,3.958,46.535-0.009c4.434-1.208,8.068-4.225,10.518-8.018c2.215,3.935,5.662,7.164,10.014,8.638
			c16,5.415,34.623,7.02,50.864,0.895c18.126-6.835,19.19-35.275,10.775-49.39C413.514,372.577,413.155,375.486,412.324,378.179z"/>
		<path fill="#020202" d="M311.347,383.825c0.789-0.217,1.533-0.424,2.225-0.61c8.204-2.223,27.365-1.495,27.879,10.857
			c0.148,3.604-2.054,7.016-5.008,9.084c-2.953,2.07-6.566,2.979-10.141,3.468c-7.205,0.986-14.621,0.405-21.586-1.688
			c3.443-0.735,6.726-2.231,9.539-4.352c-3.756,2.828-15.987-3.106-19.322-4.979c-5.034-2.826-9.585-6.791-14.111-10.35
			C291.73,387.592,300.545,386.803,311.347,383.825z"/>
		<path fill="#020202" d="M374.18,401.584c-0.341-0.009-0.687-0.017-1.034-0.023c1.678,2.109,4.605,4.146,7.284,4.563
			c-0.117-0.019-1.224,1.244-1.479,1.426c-0.561,0.396-1.236,0.686-1.865,0.95c-1.356,0.569-2.797,0.931-4.248,1.146
			c-3.09,0.459-6.272,0.26-9.328-0.344c-5.44-1.076-11.725-3.569-14.969-8.336c-3.131-4.599-3.112-10.937,1.428-14.542
			c6.636-5.268,14.258-4.816,22.092-2.552c5.105,1.478,10.043,3.489,15.164,4.917c1.846,0.516,11.904,3.563,13.436,2.031
			c-2.541,2.428-5.853,3.968-9.293,4.682c-3.441,0.712-7.014,0.627-10.486,0.092c0.697,0.957,4.955,5.445,6.035,5.208
			C382.41,401.794,378.593,401.689,374.18,401.584z"/>
	</g>
</g>
<g>
	<g>
		<g>
			<path fill="#FFCE03" d="M275.791,149.131c0,0,65.617-53.576,131.833,3.01c0,0,41.537,60.198,75.85,55.383
				c0,0,47.559-7.826,28.896-67.422c-10.783-34.435-36.52-65.52-65.721-86.078c-26.994-19.003-59.826-29.279-92.857-24.084
				c-35.782,5.627-78.3,24.246-96.775,57.238C243.964,110.484,257.683,133.286,275.791,149.131z"/>
			<path fill="#FFCE03" d="M409.401,47.362c14.017-12.104-0.711-41.703-17.284-29.854c-6.713,4.8-5.184,17.022-4.357,23.868
				L409.401,47.362z"/>
			<path fill="#FFE42D" d="M462.753,82.698c-51.563-63.599-158.961-62.939-205.497,6.278c-1.444,2.148-2.694,4.39-3.842,6.672
				c-6.034,20.281,6.471,39.566,22.376,53.483c0,0,65.617-53.576,131.833,3.01c0,0,15.105,21.873,34.619,38.196
				c15.816-2.519,30.52-4.764,38.992-21.019C496.939,139.196,482.33,106.844,462.753,82.698z"/>
			<path fill="#FF3829" d="M246.294,209.931c0,0-75.85,272.096,15.651,527.336l166.146,124.008
				c5.82-32.122,11.643-64.244,17.463-96.365c3.711-20.486,7.355-40.986,11.139-61.461c0.438-2.384,0.865-4.77,1.295-7.155
				c0.201-1.125,0.432-1.825,0.125-2.901c-0.291-1.02-0.797-2.021-1.186-3.008c-0.207-0.526-0.418-1.074-0.375-1.638
				c0.061-0.813,0.629-1.487,1.172-2.099c0.635-0.714,1.268-1.428,1.898-2.142c0.207-0.233,0.42-0.477,0.518-0.772
				c0.123-0.377,0.043-0.787-0.039-1.176c-2.592-12.388-5.656-24.725-8.561-37.065c-8.076-34.315-15.23-68.858-18.645-103.988
				c-10.078-103.709-9.576-206.26,21.682-306.29l-22.875-27.691c0,0-139.659-12.04-143.271-12.04
				C284.821,195.483,246.294,209.931,246.294,209.931z"/>
			<g>
				<polygon fill="#EF5355" points="222.816,478.414 176.464,465.773 131.315,414.003 124.092,420.625 172.25,476.007 
					224.021,491.057 				"/>
			</g>
			<path fill="#D42C40" d="M412.44,492.261l34.313,37.925l63.207,16.253l-0.902,6.321l-65.014-13.544l-39.73-39.731
				C404.314,499.484,413.343,494.066,412.44,492.261z"/>
			<path fill="#CFE9EF" d="M474.353,501.407c10.854-9.013,28.705-12.271,41.666-12.421c10.223-0.117,20.615,1.48,29.873,5.983
				c26.463,12.869,32.352,49.493,9.449,69.644c-8.443,7.43-19.592,10.662-30.604,11.646c-11.354,1.015-29.531,3.444-39.404-3.863
				c-10.086-7.466-0.762-21.474-8.15-29.111c-1.869-1.934-4.197-3.369-6.115-5.258c-3.797-3.738-5.738-9.063-6.188-14.372
				C464.056,513.919,468.007,506.68,474.353,501.407z"/>
			<path fill="#CE4749" d="M559.271,507.704c0.721-0.851,1.848-1.367,3.477-1.41c7.957-0.21,12.082,22.333,5.568,22.646
				C564.738,529.115,555.06,512.687,559.271,507.704z"/>
			<path fill="#EF5355" d="M560.591,519.695c-1.078,0.003-2.188,0.168-3.109,0.726c-1.535,0.925-2.285,2.775-2.463,4.56
				c-0.664,6.694,5.188,12.226,11.1,15.436C576.582,546.097,573.794,519.656,560.591,519.695z"/>
			<path fill="#E51717" d="M374.931,443.809c2.581,63.05,15.962,126.604,30.586,188.513c7.549,31.953,15.471,63.826,22.322,95.939
				c6.285,29.459-6.697,47.783-39.379,44.805c-41.448-3.778-50.795-42.661-60.779-76.705
				c-11.364-38.751-18.818-78.505-25.556-118.28c-10.83-63.943-16.927-129.135-11.472-193.94
				c2.702-32.097,7.265-64.038,13.229-95.686c4.482-23.777,9.68-47.47,16.087-70.809c1.054-3.836,4.772-26.642,9.397-28.183
				c2.651-0.884,7.496-6.635,11.043-8.273c5.203-2.402,12.692-4.086,18.379-3.871c13.157,0.499,28.137,6.009,41.592,7.64
				c-4.527,30.493-9.205,61.041-13.116,91.509C380.153,331.846,372.669,388.565,374.931,443.809z"/>
			<path fill="#47BCEC" d="M525.113,533.731c0.791,3.889,0.596,7.949-0.748,11.629c-3.229,8.836-11.604,15.571-20.928,16.823
				c-4.555,0.612-9.846-0.356-12.369-4.195c-2.592-3.936-1.305-9.11-1.342-13.825c-0.084-10.63-14.031-17.764-0.689-25.933
				c3.902-2.389,8.625-3.171,13.195-2.958c5.305,0.249,10.637,1.838,14.824,5.104C521.24,523.637,524.056,528.53,525.113,533.731z"
				/>
			<ellipse fill="#E99423" cx="517.636" cy="503.096" rx="8.58" ry="9.03"/>
			<ellipse fill="#2F8942" cx="536.599" cy="559.081" rx="8.578" ry="9.03"/>
			<ellipse fill="#8A55A1" cx="542.017" cy="525.67" rx="8.578" ry="9.03"/>
			<g>
				<path fill="#EF4B53" d="M93.767,378.505c-14.964,1.387-7.975,21.302-4.074,29.513c2.6,5.473,6.708,10.969,12.67,12.05
					c0.379,0.445,1.232-1.553,1.561-2.037c0.328-0.483,0.329-1.11,0.314-1.695c-0.236-9.46-1.397-18.897-3.463-28.133
					c-0.473-2.109-1.009-4.251-2.156-6.084C97.47,380.285,95.92,378.305,93.767,378.505z"/>
				<path fill="#EF5355" d="M125.459,426.45c-2.113,0.556-4.347,0.873-7.224,1.144c-4.357,0.409-8.712,0.839-13.066,1.272
					c0,0-7.591-49.344-7.602-49.412c-0.256-1.661,15.303,3.688,16.141,4.23c7.487,4.845,12.801,9.673,16.094,18.343
					c2.521,6.64,3.473,13.766,4.069,20.842C130.565,424.688,128.105,425.756,125.459,426.45z"/>
				<path fill="#2E6A2E" d="M112.907,328.626c0.753,1.3-1.611,97.85-1.323,99.244c0.288,1.396-0.242,5.872-5.168,7.86
					c0,0-5.295,2.549-7.138-8.713l-11.239-96.649c0,0,15.243-6.061,16.831-5.419C106.458,325.592,112.907,328.626,112.907,328.626z"
					/>
				<path fill="#EF5355" d="M117.115,421.475c-6.577-1.686-8.523-10.615-6.292-16.28c-5.669-0.842-19.911-2.522-18.055-11.646
					c1.411-6.932,11.432-3.796,16.258-3.204c9.248,1.135,15.875,5.741,19.338,14.616L117.115,421.475z"/>
				<path fill="#B6313E" d="M117.114,422.545c-0.087,0-0.176-0.011-0.266-0.035c-2.737-0.702-4.94-2.55-6.371-5.35
					c-1.688-3.304-2.074-7.521-1.073-11.093c-4.895-0.718-13.289-2.092-16.531-6.706c-1.224-1.739-1.611-3.769-1.15-6.026
					c1.388-6.843,9.478-5.416,14.835-4.471c0.959,0.168,1.844,0.325,2.599,0.418c9.923,1.219,16.72,6.361,20.204,15.288
					c0.215,0.552-0.057,1.171-0.606,1.386c-0.55,0.214-1.171-0.057-1.386-0.605c-3.221-8.254-9.264-12.814-18.472-13.944
					c-0.787-0.097-1.71-0.26-2.713-0.436c-6.229-1.099-11.462-1.652-12.367,2.792c-0.343,1.684-0.079,3.115,0.806,4.373
					c2.835,4.034,11.16,5.246,15.632,5.896l0.725,0.107c0.323,0.047,0.606,0.239,0.77,0.521c0.162,0.282,0.188,0.625,0.068,0.928
					c-1.262,3.208-1.034,7.469,0.566,10.6c0.795,1.561,2.31,3.563,4.998,4.253c0.572,0.146,0.917,0.729,0.769,1.301
					C118.025,422.224,117.592,422.545,117.114,422.545z"/>
				<path fill="#2E6A2E" d="M88.169,331.485c2.671-0.865,13.682-4.396,14.992-4.241c0.762,0.091,2.77-0.518,4.685-0.97
					c2.344,1.074,5.062,2.352,5.062,2.352c0.147,0.256,0.174,4.192,0.126,10.32c-4.389,1.611-13.271,3.901-23.826,1.471
					L88.169,331.485z"/>
				<g>
					<path fill="#567C7D" d="M116.436,333.961c0,0-19.808,6.275-31.021,1.315l1.694-41.104l19.975-1.944L116.436,333.961z"/>
					<path opacity="0.5" fill="#567C7D" enable-background="new    " d="M112.968,334.911c-3.856,0.96-10.383,2.28-16.78,2.255
						c-0.842-11.466-3.11-42.607-3.002-43.521l0.122-0.076l10.601-1.031L112.968,334.911z"/>
					<path fill="#567C7D" d="M91.771,312.985c-0.01,1.129-0.133,2.27-0.567,3.309c-0.277,0.661-0.783,1.337-1.499,1.389
						c-0.896,0.063-1.532-0.862-1.813-1.716c-0.664-2.019-0.381-4.492-0.059-6.561c0.164-1.056,0.56-4.237,2.133-4.121
						c1.664,0.124,1.792,6.102,1.805,7.347C91.772,312.748,91.772,312.866,91.771,312.985z"/>
					<path fill="#567C7D" d="M87.592,327.191c0.274,0.387,0.635,0.646,1.076,0.688c2.89,0.282,3.277-4.964,0.803-5.842
						C86.857,321.111,86.358,325.45,87.592,327.191z"/>
				</g>
				<path fill="#6D3B40" d="M73.759,262.503c2.194-8.945,7.051-27.837-5.161-31.969c16.329-1.343,31.323,7.268,41.674,19.673
					c7.744,9.279,11.798,24.931,6.118,36.035c-7.526,14.713-24.319,17.856-36.867,7.229
					C71.431,286.617,71.474,271.819,73.759,262.503z"/>
				<path opacity="0.5" fill="#6D3B40" enable-background="new    " d="M82.14,264.79c1.702-6.939,5.47-21.597-4.004-24.802
					c12.667-1.041,24.299,5.639,32.329,15.263c6.007,7.199,9.152,19.34,4.746,27.955c-5.839,11.415-18.866,13.853-28.601,5.607
					C80.333,283.497,80.366,272.017,82.14,264.79z"/>
				<path opacity="0.5" fill="#6D3B40" enable-background="new    " d="M79.222,273.136c-0.201,0.675-0.455,1.357-0.934,1.874
					c-0.978,1.054-2.769,0.692-3.711-0.31c-0.336-0.357-0.435-0.87-0.499-1.356c-0.298-2.249-0.249-12.057,3.778-11.435
					C81.484,262.469,79.846,271.035,79.222,273.136z"/>
				<g>
					<path fill="#47BCEC" d="M68.598,230.534c16.329-1.343,31.323,7.268,41.674,19.673c2.123,2.544,3.953,5.576,5.395,8.854
						c-3.731,5.215-8.386-3.485-12.214-2.364c-1.593,0.467-2.562,2.108-2.957,3.722c-1.039,4.245-1.183,9.984-7.296,8.621
						c-5.87-1.312-3.332-8.479-7.71-11.096c-4.513-2.696-6.341,3.683-11.019,1.616C76.749,249.945,79.603,234.258,68.598,230.534z"
						/>
					<path fill="#47BCEC" d="M114.233,260.407c-3.444,1.854-7.43-4.691-10.781-3.71c-1.593,0.467-2.562,2.108-2.957,3.722
						c-1.039,4.245-1.183,9.984-7.296,8.621c-5.869-1.312-3.332-8.479-7.71-11.096c-0.702-0.419-1.334-0.601-1.927-0.646
						c1.599-12.999-2.348-23.15-1.708-23.014C103.263,238.874,112.974,257.773,114.233,260.407z"/>
				</g>
				<g>
					<path fill="#47BCEC" d="M55.487,234.66c-7.801,0.878-10.146,20.478-0.853,21.229c2.593,0.207,5.009-1.71,6.076-4.083
						c1.813-4.033,2.447-16.455-4.146-17.147C56.195,234.619,55.836,234.621,55.487,234.66z"/>
					
						<ellipse transform="matrix(-0.2782 0.9605 -0.9605 -0.2782 299.8638 258.0977)" fill="#47BCEC" cx="52.957" cy="241.717" rx="5.701" ry="2.613"/>
				</g>
				<g>
					<path fill="#47BCEC" d="M47.777,280.149c2.381-5.893,15.712,0.021,6.839,6.139C48.526,290.485,45.441,285.931,47.777,280.149z"
						/>
					
						<ellipse transform="matrix(0.3183 0.948 -0.948 0.3183 299.5195 141.961)" fill="#47BCEC" cx="51.05" cy="279.245" rx="0.98" ry="1.425"/>
				</g>
			</g>
			<g>
				<g>
					<ellipse fill="#FFFFFF" cx="278.349" cy="329.274" rx="27.973" ry="37.474"/>
					<path fill="#341A10" d="M290.488,327.691c-4.663,0-8.444-4.254-8.444-9.5c0-3.429,1.629-6.406,4.05-8.077
						c-2.091-1.327-4.4-2.127-6.864-2.127c-8.939,0-16.187,9.768-16.187,21.815s7.247,21.814,16.187,21.814
						c8.938,0,16.186-9.767,16.186-21.814c0-1.265-0.123-2.485-0.276-3.69C293.805,327.105,292.209,327.691,290.488,327.691z"/>
				</g>
				<circle fill="#FFFFFF" cx="287.379" cy="336.948" r="2.709"/>
			</g>
			<path fill="#C41010" d="M456.693,703.448c0.438-2.383,0.865-4.769,1.295-7.155c0.201-1.125,0.432-1.825,0.125-2.901
				c-0.291-1.02-0.797-2.021-1.186-3.008c-0.207-0.525-0.418-1.073-0.377-1.638c0.063-0.813,0.631-1.487,1.174-2.099
				c0.635-0.714,1.268-1.428,1.898-2.142c0.207-0.233,0.42-0.477,0.518-0.772c0.123-0.377,0.043-0.787-0.039-1.176
				c-2.592-12.388-5.656-24.725-8.561-37.065c-8.076-34.315-15.23-68.858-18.645-103.988
				c-10.078-103.709-9.576-206.26,21.684-306.29l-12.572-15.217l-30.439-14.206c-6.419-0.552-13.988-1.2-22.205-1.904
				c-5.238,30.136-9.188,60.512-12.352,90.931c-5.395,51.847-8.287,104.012-7.756,156.147c0.313,30.636,1.748,61.278,4.931,91.757
				c2.047,19.61,5.976,38.948,9.457,58.335c5.521,30.725,16.481,60.3,25.422,90.123c2.257,7.527,6.433,18.604,11.569,24.625
				c5.271,6.176,12.26,2.546,18.695,0.707c1.416-0.405,15.586-3.279,15.813-4.519C455.664,709.147,456.166,706.296,456.693,703.448z
				"/>
			<path fill="#6B1925" d="M267.965,429.053H390.77c0.157,8.622-0.843,17.391-2.295,25.87c-5.983,34.923-26.46,71.479-66.789,66.691
				C280.101,516.679,265.038,465.855,267.965,429.053z"/>
			<g>
				<path fill="#FCC58C" d="M260.815,734.015c0.382,1.083,0.742,2.169,1.13,3.252l166.146,124.008l32.217-177.784
					c-1.729-0.838-3.492-1.414-5.303-1.628c-11.344-1.346-30.182-1.963-37.447,8.859c-2.414,3.596-3.596,7.875-4.391,12.134
					c-4.903-18.259-21.422-31.84-40.463-28.194c-42.436,8.128-37.018,47.857-37.018,47.857
					c-13.545-29.798-41.537-18.962-41.537-18.962C278.104,708.907,267.454,719.909,260.815,734.015z"/>
				<path fill="#F58E7A" d="M417.559,690.722c-2.414,3.596-3.597,7.875-4.39,12.134c-2.563-9.538-8.312-17.769-15.914-22.965
					c5.795,39.3,17.594,136.838,17.594,136.838s9.477,0.947,20.979,1.864l24.48-135.103c-1.727-0.838-3.49-1.414-5.303-1.628
					C443.662,680.517,424.824,679.9,417.559,690.722z"/>
				<path fill="#F8A882" d="M413.169,702.856c-4.904-18.259-21.424-31.84-40.463-28.194c-33,6.321-37.06,31.744-37.233,42.741
					l58.909,116.183l30.699-3.612l-10.94-131.307C413.764,700.052,413.431,701.449,413.169,702.856z"/>
			</g>
			<path fill="#1D1D1D" d="M440.388,793.425c-31.872-4.41-55.662,14.391-67.475,26.667l55.18,41.184L440.388,793.425z"/>
			<path fill="#557878" d="M362.845,104.655c-7.483-2.281-15.574-3.56-24.52-3.536c-21.504,0.054-49.146,7.684-61.966,26.384
				c-16.712,24.376-25.913,54.663-32.938,83.108c5.592-3.739,16.108-3.956,22.755-5.478c10.807-2.474,21.764-4.242,32.737-5.779
				c10.345-1.449,20.727-2.62,31.095-3.885c7.199-0.878,24.096-6.543,30.662-4.199l92.705,33.109l11.438-38.527
				c-13.605-12.829-27.26-25.609-40.951-38.347C404.462,129.46,386.748,111.941,362.845,104.655z"/>
			<g>
				<g>
					<ellipse fill="#FFFFFF" cx="377.675" cy="332.886" rx="27.974" ry="37.474"/>
					<path fill="#341A10" d="M389.815,331.303c-4.663,0-8.444-4.254-8.444-9.5c0-3.428,1.629-6.406,4.049-8.077
						c-2.09-1.328-4.398-2.127-6.863-2.127c-8.938,0-16.186,9.768-16.186,21.814c0,12.049,7.246,21.816,16.186,21.816
						s16.188-9.768,16.188-21.816c0-1.264-0.123-2.484-0.277-3.689C393.132,330.717,391.537,331.303,389.815,331.303z"/>
				</g>
				<circle fill="#FFFFFF" cx="386.707" cy="340.561" r="2.709"/>
			</g>
			<path fill="#341A10" d="M251.109,240.933c0,0,0.154-0.177,0.442-0.508c0.293-0.334,0.74-0.828,1.355-1.34
				c1.209-1.099,3.082-2.434,5.535-3.663c2.457-1.193,5.506-2.264,8.933-2.757c1.703-0.287,3.515-0.321,5.341-0.352
				c1.837,0.159,3.708,0.172,5.556,0.608c1.85,0.371,3.688,0.769,5.42,1.499c1.774,0.558,3.405,1.412,4.927,2.316
				c1.571,0.799,2.896,1.894,4.124,2.918c0.6,0.521,1.183,1.026,1.747,1.516c0.488,0.568,0.959,1.119,1.411,1.646
				c0.86,1.085,1.669,2.023,2.243,2.969c0.557,0.965,0.973,1.846,1.335,2.535c0.685,1.417,0.994,2.243,0.994,2.243
				s-0.847-0.407-2.185-1.146c-0.648-0.389-1.46-0.816-2.312-1.354c-0.854-0.537-1.975-0.927-3.045-1.478
				c-0.532-0.271-1.087-0.551-1.661-0.842c-0.601-0.224-1.222-0.454-1.86-0.691c-1.245-0.497-2.511-1.045-3.918-1.369
				c-0.691-0.182-1.368-0.414-2.057-0.627c-0.711-0.146-1.432-0.293-2.157-0.44c-1.424-0.358-2.914-0.539-4.4-0.719
				c-1.462-0.297-3.002-0.193-4.469-0.393c-1.495,0.013-2.968-0.134-4.418-0.123c-2.985-0.047-5.772-0.09-8.16-0.128
				c-2.472-0.035-4.637-0.109-6.197-0.177C252.027,240.986,251.109,240.933,251.109,240.933z"/>
			<path fill="#341A10" d="M418.267,259.307c0,0-0.883-0.258-2.426-0.71c-1.494-0.46-3.559-1.116-5.897-1.912
				c-2.263-0.766-4.901-1.659-7.731-2.617c-1.36-0.498-2.799-0.852-4.203-1.365c-1.446-0.305-2.863-0.918-4.34-1.129
				c-1.461-0.329-2.926-0.659-4.387-0.8c-0.734-0.103-1.462-0.206-2.182-0.308c-0.721-0.029-1.436-0.038-2.146-0.099
				c-1.435-0.167-2.812-0.075-4.15-0.025c-0.682,0.009-1.344,0.018-1.984,0.026c-0.639,0.082-1.255,0.16-1.847,0.235
				c-1.192,0.16-2.382,0.151-3.364,0.371s-1.891,0.353-2.632,0.5c-1.508,0.248-2.442,0.347-2.442,0.347s0.568-0.673,1.688-1.778
				c0.573-0.529,1.261-1.219,2.108-1.941c0.857-0.695,1.935-1.309,3.108-2.043c0.603-0.346,1.229-0.706,1.882-1.078
				c0.695-0.271,1.414-0.553,2.153-0.841c1.502-0.554,3.116-1.141,4.864-1.365c1.736-0.342,3.56-0.6,5.418-0.53
				c1.877-0.106,3.742,0.135,5.609,0.405c1.887,0.209,3.653,0.824,5.438,1.29c1.71,0.641,3.404,1.28,4.912,2.122
				c3.064,1.614,5.576,3.646,7.49,5.593c1.898,1.981,3.215,3.867,3.986,5.309c0.407,0.688,0.663,1.304,0.827,1.716
				C418.182,259.088,418.267,259.307,418.267,259.307z"/>
			<path fill="#FFFFFF" d="M267.874,445.907h121.899c0.682-5.603,1.1-11.257,0.996-16.854H267.965
				C267.537,434.433,267.506,440.115,267.874,445.907z"/>
			<path fill="#FFFFFF" d="M365.583,505.805h-74.944c8.016,8.437,18.274,14.293,31.047,15.809
				C340.429,523.839,354.878,517.125,365.583,505.805z"/>
			<path fill="#476D6C" d="M408.958,133.735c-14.109-12.675-28.414-23.685-46.113-29.081c-0.454-0.138-0.934-0.237-1.393-0.368
				c-22.216,28.974-37.504,90.896-37.504,90.896l3.17,0.634c0.963-0.115,1.928-0.23,2.891-0.348
				c7.199-0.878,24.096-6.543,30.662-4.199c0,0,14.263,5.094,31.586,11.281C394.598,186.622,403.484,153.354,408.958,133.735z"/>
			<path fill="#3A605D" d="M386.48,200.488c27.434,9.798,66.896,23.892,66.896,23.892l11.438-38.527
				c-13.605-12.829-27.26-25.609-40.951-38.347c-7.033-6.542-13.848-13.008-20.813-18.95
				C397.865,149.481,388.076,193.324,386.48,200.488z"/>
			<path fill="#688885" d="M454.57,249.661c-3.188,0-6.398-1.052-9.072-3.209c-80.424-65-197.792-25.39-198.972-24.983
				c-7.53,2.613-15.767-1.369-18.384-8.899c-2.62-7.526,1.344-15.753,8.871-18.384c5.414-1.887,133.572-45.428,226.648,29.791
				c6.205,5.017,7.172,14.112,2.156,20.32C462.962,247.827,458.785,249.661,454.57,249.661z"/>
			<path fill="#688885" d="M461.199,235.213c-0.795,0-1.596-0.261-2.264-0.797c-76.713-61.77-178.019-41.139-218.01-29.406
				c-2.096,0.613-2.417,0.709-3.059,0.709c-1.996,0-3.611-1.616-3.611-3.612c0-1.795,1.312-3.287,3.029-3.565
				c0.289-0.074,0.829-0.233,1.605-0.462c41.081-12.061,145.202-33.195,224.575,30.708c1.555,1.252,1.799,3.526,0.551,5.078
				C463.3,234.751,462.255,235.213,461.199,235.213z"/>
			<path fill="#FFEAB3" d="M266.969,84.245c-4.016,6.148-8.393,17.257-3.152,23.81c14.59,18.239,48.788-18.039,39.309-34.834
				C295.237,59.245,272.881,75.191,266.969,84.245z"/>
			<path fill="#FFEAB3" d="M316.742,72.446c-11.707-2.776-8.496-17.409,2.387-18.713C332.634,52.117,332.358,76.151,316.742,72.446z
				"/>
			<path fill="#47BCEC" d="M501.935,527.295c0.139,0.666,0.189,1.365,0.143,2.091c-0.715,10.803-22.938-0.175-12.51-7.811
				C493.958,518.36,500.943,522.477,501.935,527.295z"/>
			<path fill="#E99423" d="M517.251,503.034c-1.262-2.332-4.402-4.105-5.777-0.549c-0.914,2.368,2.01,5.188,4.373,4.637
				C518.097,506.599,518.14,504.679,517.251,503.034z"/>
			<path fill="#8A55A1" d="M543.478,529.861c-0.086,0.186-0.189,0.362-0.314,0.529c-1.943,2.637-6.666,0.659-7.689-1.866
				c-0.822-2.028-0.627-4.473,1.604-5.661C540.748,520.909,545.001,526.582,543.478,529.861z"/>
			<path fill="#2F8942" d="M531.232,562.51c1.057,0.748,2.459,0.88,4.063-0.139c3.736-2.371-0.027-11.449-4.508-8.042
				C528.257,556.255,528.912,560.866,531.232,562.51z"/>
		</g>
	</g>
	<g>
		<path fill="#341A10" d="M398.516,378.179c-3.324,10.767-14.882,11.986-24.449,8.557c-14.142-5.069-28.971-10.271-42.339-0.026
			c-1.188,0.908-2.15,1.944-2.988,3.041c-0.769-1.145-1.669-2.237-2.799-3.216c-10.723-9.293-23.713-6.323-36.393-4.111
			c-10.229,1.784-22.972,3.269-30.165-5.673c-2.463-3.061-3.856-7.197-2.848-10.994c-11.687,16.333-4.682,44.492,14.545,52.139
			c14.332,5.699,31.978,3.958,46.537-0.009c4.432-1.208,8.067-4.225,10.516-8.018c2.216,3.935,5.662,7.164,10.015,8.638
			c15.999,5.415,34.623,7.02,50.864,0.895c18.126-6.835,19.191-35.275,10.775-49.39
			C399.705,372.577,399.347,375.486,398.516,378.179z"/>
		<path fill="#341A10" d="M297.538,383.825c0.789-0.217,1.534-0.424,2.225-0.61c8.203-2.223,27.365-1.495,27.878,10.857
			c0.149,3.604-2.054,7.016-5.007,9.084c-2.953,2.07-6.566,2.979-10.141,3.468c-7.205,0.986-14.622,0.405-21.586-1.688
			c3.444-0.735,6.726-2.231,9.54-4.352c-3.756,2.828-15.988-3.106-19.323-4.979c-5.034-2.826-9.585-6.791-14.111-10.35
			C277.922,387.592,286.736,386.803,297.538,383.825z"/>
		<path fill="#341A10" d="M360.371,401.584c-0.341-0.009-0.686-0.017-1.033-0.023c1.677,2.109,4.605,4.146,7.283,4.563
			c-0.117-0.019-1.223,1.244-1.479,1.426c-0.561,0.396-1.236,0.686-1.866,0.95c-1.356,0.569-2.796,0.931-4.248,1.146
			c-3.09,0.459-6.272,0.26-9.327-0.344c-5.441-1.076-11.725-3.569-14.97-8.336c-3.131-4.599-3.112-10.937,1.429-14.542
			c6.635-5.268,14.258-4.816,22.092-2.552c5.105,1.478,10.043,3.489,15.164,4.917c1.846,0.516,11.903,3.563,13.435,2.031
			c-2.54,2.428-5.853,3.968-9.293,4.682c-3.44,0.712-7.013,0.627-10.486,0.092c0.697,0.957,4.955,5.445,6.035,5.208
			C368.602,401.794,364.785,401.689,360.371,401.584z"/>
	</g>
</g>
<ellipse opacity="0.1" fill="#020202" enable-background="new    " cx="406.505" cy="860.825" rx="87.936" ry="14.229"/>
</svg>
