<?xml version="1.0" encoding="utf-8"?>
<!-- Generator: Adobe Illustrator 16.0.0, SVG Export Plug-In . SVG Version: 6.00 Build 0)  -->
<!DOCTYPE svg PUBLIC "-//W3C//DTD SVG 1.1//EN" "http://www.w3.org/Graphics/SVG/1.1/DTD/svg11.dtd">
<svg version="1.1" id="Isolation_Mode" xmlns="http://www.w3.org/2000/svg" xmlns:xlink="http://www.w3.org/1999/xlink" x="0px"
	 y="0px" width="716px" height="904px" viewBox="0 0 716 904" enable-background="new 0 0 716 904" xml:space="preserve">
<g>
	<g>
		<g>
			<path fill="#FFCE03" d="M396.12,161.131c0,0,65.616-53.576,131.834,3.01c0,0,41.537,60.198,75.85,55.383
				c0,0,47.557-7.826,28.896-67.422c-10.783-34.435-36.52-65.52-65.722-86.078c-26.993-19.003-59.825-29.28-92.857-24.084
				c-35.782,5.627-78.3,24.246-96.775,57.238C364.293,122.484,378.012,145.286,396.12,161.131z"/>
			<path fill="#FFCE03" d="M529.73,59.362c14.016-12.104-0.711-41.704-17.284-29.854c-6.713,4.8-5.184,17.023-4.357,23.868
				L529.73,59.362z"/>
			<path fill="#FFE42D" d="M583.082,94.698c-51.563-63.599-158.96-62.94-205.496,6.278c-1.444,2.148-2.694,4.39-3.842,6.672
				c-6.034,20.281,6.471,39.566,22.376,53.483c0,0,65.616-53.576,131.834,3.01c0,0,15.106,21.873,34.618,38.196
				c15.817-2.518,30.52-4.763,38.993-21.018C617.269,151.196,602.659,118.844,583.082,94.698z"/>
			<path fill="#FF3829" d="M366.623,221.931c0,0-75.85,272.096,15.651,527.336l166.147,124.008
				c5.82-32.122,11.642-64.244,17.462-96.365c3.712-20.487,7.356-40.987,11.138-61.461c0.439-2.384,0.867-4.77,1.295-7.155
				c0.202-1.126,0.433-1.826,0.125-2.902c-0.291-1.019-0.796-2.021-1.185-3.008c-0.207-0.526-0.418-1.074-0.375-1.637
				c0.061-0.814,0.63-1.488,1.172-2.099c0.634-0.714,1.267-1.428,1.899-2.142c0.207-0.233,0.42-0.476,0.517-0.772
				c0.123-0.377,0.043-0.787-0.039-1.176c-2.591-12.387-5.656-24.724-8.561-37.065c-8.075-34.316-15.229-68.859-18.644-103.989
				c-10.078-103.708-9.577-206.259,21.682-306.29l-22.875-27.691c0,0-139.659-12.04-143.271-12.04
				C405.15,207.483,366.623,221.931,366.623,221.931z"/>
			<g>
				<polygon fill="#EF5355" points="348.972,507.202 309.765,534.97 285.104,599.083 276.047,595.339 302.296,526.801 
					345.77,494.914 				"/>
			</g>
			<path fill="#D42C40" d="M532.77,504.261l34.313,37.925l63.208,16.253l-0.903,6.321l-65.014-13.544l-39.73-39.731
				C524.644,511.484,533.673,506.066,532.77,504.261z"/>
			<path fill="#CFE9EF" d="M594.684,513.408c10.852-9.013,28.705-12.272,41.666-12.421c10.222-0.117,20.615,1.48,29.873,5.983
				c26.462,12.869,32.35,49.493,9.448,69.644c-8.443,7.429-19.591,10.662-30.603,11.646c-11.354,1.015-29.531,3.445-39.404-3.863
				c-10.086-7.466-0.762-21.474-8.15-29.111c-1.87-1.934-4.199-3.37-6.116-5.258c-3.796-3.738-5.739-9.063-6.188-14.372
				C584.386,525.919,588.337,518.68,594.684,513.408z"/>
			<path fill="#CE4749" d="M679.602,519.705c0.72-0.851,1.846-1.368,3.476-1.411c7.956-0.209,12.081,22.333,5.568,22.647
				C685.067,541.115,675.389,524.687,679.602,519.705z"/>
			<path fill="#EF5355" d="M680.92,531.695c-1.078,0.003-2.188,0.168-3.11,0.725c-1.534,0.925-2.285,2.776-2.462,4.56
				c-0.665,6.694,5.188,12.226,11.1,15.436C696.911,558.097,694.123,531.656,680.92,531.695z"/>
			<path fill="#E51717" d="M495.26,455.809c2.581,63.05,15.962,126.605,30.586,188.513c7.549,31.953,15.471,63.826,22.322,95.939
				c6.286,29.459-6.696,47.783-39.379,44.805c-41.448-3.778-50.795-42.661-60.779-76.705
				c-11.364-38.751-18.818-78.505-25.556-118.28c-10.83-63.944-16.927-129.135-11.472-193.941
				c2.702-32.097,7.265-64.038,13.23-95.686c4.481-23.777,9.679-47.469,16.086-70.808c1.054-3.836,4.772-26.642,9.397-28.183
				c2.652-0.884,7.497-6.635,11.044-8.273c5.203-2.403,12.692-4.086,18.378-3.871c13.158,0.499,28.138,6.008,41.592,7.639
				c-4.527,30.493-9.204,61.041-13.116,91.509C500.482,343.846,492.999,400.565,495.26,455.809z"/>
			<path fill="#47BCEC" d="M645.442,545.731c0.79,3.889,0.596,7.949-0.748,11.629c-3.228,8.836-11.604,15.571-20.928,16.823
				c-4.555,0.612-9.845-0.356-12.37-4.195c-2.59-3.936-1.303-9.111-1.34-13.825c-0.084-10.63-14.033-17.764-0.69-25.933
				c3.902-2.389,8.625-3.171,13.195-2.958c5.304,0.249,10.637,1.838,14.825,5.104C641.568,535.637,644.386,540.53,645.442,545.731z"
				/>
			<ellipse fill="#E99423" cx="637.966" cy="515.096" rx="8.579" ry="9.03"/>
			<ellipse fill="#2F8942" cx="656.929" cy="571.081" rx="8.578" ry="9.03"/>
			<ellipse fill="#8A55A1" cx="662.347" cy="537.67" rx="8.578" ry="9.03"/>
			<path fill="#EF4B53" d="M293.577,644.065c14.532,3.829,14.795-17.276,13.946-26.327c-0.565-6.032-2.541-12.604-7.771-15.664
				c-0.203-0.548-1.69,1.036-2.164,1.378c-0.475,0.342-0.69,0.931-0.877,1.486c-3.022,8.968-5.167,18.23-6.393,27.614
				c-0.28,2.145-0.511,4.339-0.062,6.455C290.708,641.123,291.485,643.515,293.577,644.065z"/>
			<path fill="#EF5355" d="M280.245,588.16c2.176,0.203,4.383,0.67,7.178,1.403c4.233,1.11,8.472,2.199,12.711,3.284
				c0,0-9.788,48.956-9.802,49.023c-0.329,1.649-13.11-8.711-13.711-9.508c-5.373-7.118-8.709-13.476-8.83-22.749
				c-0.091-7.102,1.459-14.122,3.324-20.974C274.844,588.065,277.521,587.905,280.245,588.16z"/>
			<path fill="#2E6A2E" d="M160.275,672.341c1.327-0.704,97.72,5.304,99.125,5.069c1.405-0.235,5.858,0.464,7.659,5.461
				c0,0,2.348,5.388-8.977,6.804l-97.004,7.583c0,0-5.481-15.461-4.78-17.023C157.001,678.671,160.275,672.341,160.275,672.341z"/>
			<path fill="#EF5355" d="M286.377,595.694c5.601,3.838,4.368,12.894,0.328,17.451c5.037,2.734,17.839,9.197,12.967,17.132
				c-3.701,6.026-12.04-0.354-16.371-2.564c-8.298-4.237-12.943-10.837-13.153-20.361L286.377,595.694z"/>
			<path fill="#B6313E" d="M286.745,594.69c0.081,0.03,0.161,0.07,0.237,0.123c2.33,1.599,3.767,4.089,4.15,7.209
				c0.454,3.682-0.631,7.777-2.796,10.789c4.353,2.353,11.767,6.521,13.23,11.968c0.554,2.053,0.222,4.092-0.985,6.056
				c-3.649,5.952-10.76,1.837-15.469-0.887c-0.843-0.487-1.621-0.937-2.298-1.284c-8.903-4.546-13.524-11.708-13.737-21.288
				c-0.013-0.592,0.455-1.081,1.045-1.094c0.589-0.012,1.081,0.455,1.094,1.045c0.195,8.858,4.309,15.213,12.57,19.433
				c0.706,0.361,1.518,0.831,2.399,1.34c5.476,3.167,10.201,5.481,12.575,1.617c0.898-1.464,1.143-2.899,0.741-4.384
				c-1.279-4.762-8.685-8.754-12.661-10.899l-0.644-0.35c-0.288-0.154-0.488-0.432-0.546-0.753c-0.055-0.32,0.038-0.652,0.254-0.894
				c2.286-2.581,3.533-6.662,3.104-10.152c-0.212-1.739-0.947-4.139-3.237-5.709c-0.487-0.334-0.611-0.999-0.276-1.485
				C285.779,594.678,286.296,594.526,286.745,594.69z"/>
			<path fill="#2E6A2E" d="M162.199,697.17c-0.764-2.702-3.877-13.838-3.673-15.142c0.119-0.758-0.412-2.787-0.792-4.718
				c1.162-2.302,2.541-4.969,2.541-4.969c0.261-0.138,4.196-0.016,10.317,0.264c1.444,4.446,3.397,13.409,0.57,23.865
				L162.199,697.17z"/>
			<g>
				<path fill="#567C7D" d="M165.74,669.017c0,0,5.524,20.03,0.145,31.048l-41.01-3.245l-1.189-20.034L165.74,669.017z"/>
				<path opacity="0.5" fill="#567C7D" d="M166.56,672.518c0.814,3.89,1.887,10.461,1.62,16.854
					c-11.49,0.408-42.695,1.5-43.604,1.356l-0.07-0.125l-0.631-10.632L166.56,672.518z"/>
				<path fill="#567C7D" d="M143.848,692.872c1.128,0.052,2.263,0.218,3.284,0.691c0.65,0.302,1.307,0.833,1.331,1.551
					c0.03,0.898-0.92,1.499-1.783,1.747c-2.041,0.588-4.503,0.211-6.558-0.189c-1.049-0.204-4.214-0.719-4.037-2.287
					c0.188-1.658,6.164-1.561,7.409-1.526C143.611,692.861,143.729,692.866,143.848,692.872z"/>
				<path fill="#567C7D" d="M157.887,697.584c0.396-0.26,0.668-0.61,0.729-1.049c0.392-2.877-4.837-3.462-5.807-1.023
					C151.783,698.089,156.101,698.751,157.887,697.584z"/>
			</g>
			<path fill="#6D3B40" d="M92.723,708.965c-8.856-2.53-27.552-8.097-32.142,3.951c-0.725-16.368,8.444-31.026,21.232-40.901
				c9.565-7.388,25.357-10.848,36.24-4.753c14.42,8.076,16.926,24.976,5.832,37.114C116.73,712.202,101.944,711.601,92.723,708.965z
				"/>
			<path opacity="0.5" fill="#6D3B40" d="M95.323,700.677c-6.87-1.963-21.373-6.281-24.935,3.065
				c-0.562-12.697,6.552-24.069,16.472-31.73c7.421-5.731,19.672-8.416,28.114-3.687c11.187,6.265,13.13,19.375,4.524,28.792
				C113.948,703.188,102.479,702.722,95.323,700.677z"/>
			<path opacity="0.5" fill="#6D3B40" d="M103.554,703.908c0.667,0.227,1.339,0.506,1.837,1.004c1.017,1.017,0.587,2.792-0.45,3.696
				c-0.369,0.322-0.886,0.401-1.373,0.448c-2.259,0.212-12.058-0.207-11.285-4.208C92.979,701.244,101.478,703.205,103.554,703.908z
				"/>
			<g>
				<path fill="#47BCEC" d="M60.581,712.916c-0.725-16.368,8.444-31.026,21.232-40.901c2.622-2.025,5.721-3.74,9.053-5.057
					c5.07,3.926-3.801,8.249-2.824,12.116c0.406,1.609,2.011,2.639,3.607,3.095c4.202,1.199,9.933,1.559,8.339,7.616
					c-1.531,5.816-8.599,3.01-11.379,7.286c-2.865,4.408,3.44,6.475,1.199,11.072C80.285,705.503,64.718,702.06,60.581,712.916z"/>
				<path fill="#47BCEC" d="M92.155,668.44c1.724,3.512-4.968,7.248-4.113,10.634c0.406,1.609,2.011,2.639,3.607,3.095
					c4.202,1.199,9.933,1.559,8.339,7.616c-1.531,5.815-8.599,3.01-11.379,7.286c-0.445,0.686-0.65,1.31-0.719,1.901
					c-12.93-2.088-23.223,1.472-23.062,0.838C70.223,678.59,89.476,669.6,92.155,668.44z"/>
			</g>
			<g>
				<path fill="#47BCEC" d="M64.209,726.173c0.582,7.828,20.08,10.912,21.182,1.653c0.304-2.583-1.521-5.07-3.851-6.226
					c-3.962-1.964-16.351-3.066-17.293,3.495C64.194,725.464,64.183,725.823,64.209,726.173z"/>
				
					<ellipse transform="matrix(-0.3143 0.9493 -0.9493 -0.3143 785.559 890.5035)" fill="#47BCEC" cx="71.16" cy="728.969" rx="2.613" ry="5.701"/>
			</g>
			<g>
				<path fill="#47BCEC" d="M109.374,735.595c-5.798-2.602,0.613-15.7,6.392-6.603C119.731,735.236,115.063,738.147,109.374,735.595
					z"/>
				
					<ellipse transform="matrix(0.2823 0.9593 -0.9593 0.2823 780.4495 421.4043)" fill="#47BCEC" cx="108.596" cy="732.285" rx="1.425" ry="0.979"/>
			</g>
			<path fill="#C41010" d="M577.021,715.449c0.439-2.383,0.867-4.769,1.295-7.155c0.202-1.125,0.433-1.826,0.125-2.902
				c-0.291-1.019-0.796-2.021-1.185-3.008c-0.207-0.525-0.418-1.073-0.376-1.637c0.062-0.814,0.631-1.488,1.173-2.099
				c0.634-0.714,1.267-1.428,1.899-2.142c0.207-0.233,0.42-0.476,0.517-0.772c0.123-0.377,0.043-0.787-0.039-1.176
				c-2.591-12.387-5.656-24.724-8.561-37.065c-8.075-34.316-15.229-68.859-18.644-103.989
				c-10.078-103.708-9.577-206.259,21.683-306.29l-12.571-15.217l-30.44-14.206c-6.419-0.551-13.988-1.2-22.205-1.904
				c-5.238,30.136-9.187,60.512-12.351,90.931c-5.395,51.847-8.288,104.012-7.756,156.147c0.313,30.636,1.747,61.279,4.93,91.757
				c2.047,19.611,5.975,38.948,9.457,58.335c5.521,30.725,16.481,60.3,25.422,90.123c2.257,7.528,6.433,18.605,11.57,24.625
				c5.271,6.176,12.26,2.546,18.694,0.707c1.417-0.405,15.587-3.279,15.813-4.518C575.993,721.147,576.495,718.296,577.021,715.449z
				"/>
			<g>
				<path fill="#FCC58C" d="M381.145,746.015c0.382,1.083,0.742,2.169,1.13,3.252l166.147,124.008l32.216-177.784
					c-1.728-0.838-3.492-1.414-5.303-1.628c-11.344-1.346-30.182-1.963-37.447,8.859c-2.414,3.596-3.596,7.875-4.39,12.134
					c-4.904-18.259-21.423-31.84-40.463-28.194c-42.436,8.128-37.018,47.857-37.018,47.857
					c-13.545-29.798-41.537-18.962-41.537-18.962C398.433,720.908,387.783,731.91,381.145,746.015z"/>
				<path fill="#F58E7A" d="M537.888,702.722c-2.414,3.596-3.596,7.875-4.39,12.134c-2.562-9.538-8.311-17.769-15.914-22.965
					c5.795,39.3,17.594,136.838,17.594,136.838s9.477,0.947,20.979,1.864l24.481-135.102c-1.728-0.838-3.492-1.414-5.303-1.628
					C563.991,692.517,545.153,691.9,537.888,702.722z"/>
				<path fill="#F8A882" d="M533.498,714.856c-4.904-18.259-21.423-31.84-40.463-28.194c-32.999,6.321-37.059,31.744-37.233,42.741
					l58.909,116.182l30.7-3.612L534.47,710.667C534.093,712.052,533.76,713.45,533.498,714.856z"/>
			</g>
			<path fill="#1D1D1D" d="M560.717,805.425c-31.872-4.41-55.662,14.391-67.475,26.667l55.18,41.184L560.717,805.425z"/>
			<path fill="#557878" d="M483.174,116.655c-7.483-2.282-15.574-3.56-24.519-3.537c-21.504,0.054-49.146,7.684-61.966,26.384
				c-16.712,24.376-25.913,54.663-32.938,83.109c5.592-3.74,16.108-3.956,22.755-5.478c10.807-2.474,21.764-4.242,32.737-5.779
				c10.346-1.449,20.727-2.62,31.096-3.885c7.199-0.878,24.095-6.543,30.661-4.199l92.705,33.109l11.438-38.527
				c-13.606-12.829-27.259-25.61-40.951-38.347C524.791,141.46,507.076,123.941,483.174,116.655z"/>
			<path fill="#341A10" d="M371.438,252.933c0,0,0.154-0.177,0.442-0.508c0.293-0.334,0.74-0.828,1.355-1.34
				c1.209-1.098,3.082-2.433,5.535-3.663c2.457-1.193,5.506-2.264,8.933-2.757c1.703-0.287,3.515-0.321,5.341-0.351
				c1.837,0.159,3.708,0.172,5.556,0.608c1.85,0.371,3.688,0.769,5.42,1.499c1.774,0.558,3.405,1.412,4.927,2.317
				c1.571,0.798,2.896,1.893,4.124,2.918c0.6,0.52,1.183,1.026,1.747,1.515c0.488,0.569,0.959,1.119,1.411,1.646
				c0.86,1.085,1.669,2.023,2.243,2.968c0.557,0.965,0.973,1.846,1.335,2.536c0.685,1.417,0.994,2.243,0.994,2.243
				s-0.847-0.407-2.185-1.146c-0.648-0.388-1.46-0.816-2.312-1.354c-0.854-0.537-1.975-0.927-3.045-1.478
				c-0.532-0.27-1.087-0.551-1.661-0.842c-0.601-0.223-1.222-0.454-1.86-0.691c-1.245-0.497-2.511-1.045-3.918-1.369
				c-0.691-0.182-1.368-0.414-2.057-0.627c-0.711-0.146-1.432-0.293-2.157-0.441c-1.424-0.358-2.914-0.539-4.4-0.718
				c-1.462-0.297-3.002-0.194-4.469-0.393c-1.495,0.013-2.968-0.134-4.418-0.123c-2.985-0.047-5.772-0.09-8.16-0.128
				c-2.472-0.035-4.637-0.109-6.197-0.177C372.356,252.986,371.438,252.933,371.438,252.933z"/>
			<path fill="#341A10" d="M538.596,271.307c0,0-0.882-0.258-2.426-0.71c-1.494-0.46-3.558-1.116-5.897-1.912
				c-2.263-0.766-4.902-1.659-7.731-2.617c-1.361-0.498-2.799-0.852-4.203-1.366c-1.447-0.304-2.864-0.918-4.341-1.129
				c-1.461-0.329-2.925-0.659-4.387-0.799c-0.733-0.103-1.461-0.206-2.181-0.308c-0.72-0.029-1.435-0.038-2.147-0.099
				c-1.434-0.167-2.811-0.075-4.15-0.025c-0.681,0.009-1.344,0.018-1.984,0.026c-0.639,0.082-1.255,0.161-1.847,0.236
				c-1.193,0.16-2.381,0.151-3.364,0.371c-0.982,0.22-1.891,0.352-2.632,0.5c-1.508,0.248-2.442,0.347-2.442,0.347
				s0.568-0.673,1.688-1.779c0.573-0.529,1.261-1.219,2.108-1.941c0.858-0.696,1.935-1.309,3.109-2.043
				c0.603-0.346,1.23-0.706,1.881-1.078c0.696-0.271,1.415-0.553,2.154-0.841c1.502-0.554,3.116-1.141,4.864-1.365
				c1.737-0.342,3.56-0.6,5.419-0.531c1.876-0.106,3.741,0.135,5.608,0.406c1.887,0.209,3.654,0.824,5.438,1.29
				c1.71,0.64,3.404,1.28,4.913,2.122c3.063,1.614,5.575,3.645,7.49,5.593c1.898,1.981,3.215,3.867,3.986,5.308
				c0.407,0.689,0.663,1.304,0.827,1.716C538.511,271.088,538.596,271.307,538.596,271.307z"/>
			<path fill="#476D6C" d="M529.287,145.735c-14.109-12.675-28.414-23.685-46.113-29.081c-0.454-0.138-0.933-0.238-1.392-0.369
				c-22.216,28.974-37.504,90.896-37.504,90.896l3.169,0.634c0.964-0.116,1.928-0.231,2.892-0.348
				c7.199-0.878,24.095-6.543,30.661-4.199c0,0,14.263,5.094,31.587,11.281C514.927,198.622,523.813,165.354,529.287,145.735z"/>
			<path fill="#3A605D" d="M506.81,212.488c27.433,9.797,66.896,23.891,66.896,23.891l11.438-38.527
				c-13.606-12.829-27.259-25.61-40.951-38.347c-7.034-6.542-13.848-13.008-20.813-18.95
				C518.193,161.481,508.405,205.324,506.81,212.488z"/>
			<path fill="#688885" d="M574.899,261.661c-3.188,0-6.398-1.051-9.072-3.209c-80.425-65-197.793-25.389-198.972-24.983
				c-7.53,2.613-15.767-1.369-18.384-8.899c-2.62-7.527,1.344-15.753,8.871-18.384c5.414-1.887,133.573-45.428,226.649,29.791
				c6.205,5.016,7.171,14.112,2.155,20.32C583.291,259.827,579.114,261.661,574.899,261.661z"/>
			<path fill="#688885" d="M581.527,247.213c-0.794,0-1.595-0.261-2.262-0.797c-76.714-61.769-178.02-41.138-218.011-29.406
				c-2.096,0.613-2.417,0.709-3.059,0.709c-1.996,0-3.611-1.616-3.611-3.612c0-1.795,1.312-3.287,3.029-3.566
				c0.289-0.074,0.829-0.233,1.605-0.462c41.081-12.06,145.202-33.195,224.575,30.708c1.556,1.252,1.799,3.527,0.551,5.079
				C583.629,246.751,582.585,247.213,581.527,247.213z"/>
			<path fill="#FFEAB3" d="M387.298,96.245c-4.016,6.149-8.393,17.257-3.152,23.81c14.59,18.239,48.788-18.039,39.309-34.834
				C415.566,71.245,393.21,87.191,387.298,96.245z"/>
			<path fill="#FFEAB3" d="M437.07,84.446c-11.706-2.777-8.495-17.41,2.387-18.713C452.963,64.117,452.688,88.151,437.07,84.446z"/>
			<path fill="#47BCEC" d="M622.265,539.295c0.137,0.666,0.188,1.366,0.141,2.091c-0.715,10.803-22.936-0.175-12.51-7.81
				C614.287,530.36,621.271,534.477,622.265,539.295z"/>
			<path fill="#E99423" d="M637.58,515.035c-1.262-2.332-4.402-4.106-5.776-0.549c-0.915,2.368,2.008,5.188,4.372,4.637
				C638.427,518.599,638.47,516.679,637.58,515.035z"/>
			<path fill="#8A55A1" d="M663.807,541.861c-0.086,0.185-0.19,0.362-0.314,0.529c-1.944,2.637-6.666,0.659-7.69-1.866
				c-0.823-2.028-0.627-4.473,1.604-5.661C661.076,532.91,665.331,538.583,663.807,541.861z"/>
			<path fill="#2F8942" d="M651.562,574.51c1.057,0.748,2.458,0.88,4.063-0.138c3.736-2.372-0.028-11.45-4.509-8.042
				C648.586,568.255,649.241,572.867,651.562,574.51z"/>
			<g>
				<path fill="#542914" d="M384.89,499.955c0-32.53,28.243-58.902,63.087-58.902c34.842,0,63.088,26.372,63.088,58.902
					c0,32.53-28.246,6.925-63.088,6.925C413.133,506.879,384.89,532.485,384.89,499.955z"/>
				<path fill="#FFFFFF" d="M489.429,514.894c0.015-0.197,0.075-0.391,0.075-0.591c0-8.823-18.745-15.979-41.86-15.979
					c-23.124,0-41.869,7.156-41.869,15.979c0,0.254,0.069,0.497,0.099,0.751c11.172-2.657,25.925-8.174,42.104-8.174
					C463.85,506.879,478.337,512.181,489.429,514.894z"/>
				<path fill="#FFFFFF" d="M411.922,451.628c9.895,1.692,22.41,2.709,36.055,2.709c13.643,0,26.155-1.017,36.053-2.709
					c-10.223-6.66-22.646-10.575-36.053-10.575C434.567,441.053,422.147,444.968,411.922,451.628z"/>
			</g>
			<path fill="#542914" d="M359.692,333.888c0.312,0.329,0.768,0.819,1.413,1.37c0.312,0.292,0.672,0.592,1.073,0.914
				c0.393,0.334,0.84,0.662,1.328,1c0.96,0.703,2.093,1.432,3.383,2.129c0.636,0.372,1.328,0.693,2.032,1.061
				c0.717,0.337,1.467,0.672,2.247,0.991c1.562,0.637,3.251,1.207,5.027,1.701c1.782,0.464,3.645,0.901,5.567,1.156
				c1.92,0.28,3.89,0.45,5.867,0.483c1.975,0.029,3.958-0.048,5.895-0.292c1.938-0.208,3.83-0.594,5.627-1.07
				c1.801-0.471,3.496-1.098,5.061-1.771c0.776-0.351,1.521-0.716,2.229-1.087c0.691-0.413,1.372-0.771,1.988-1.185
				c0.198-0.124,0.382-0.25,0.569-0.376c-0.088,0.069-0.173,0.138-0.263,0.207c-0.543,0.429-1.155,0.813-1.757,1.242
				c-0.632,0.393-1.263,0.823-1.942,1.218c-1.354,0.794-2.812,1.574-4.368,2.278c-1.557,0.7-3.19,1.366-4.895,1.928
				c-1.697,0.578-3.452,1.086-5.233,1.489c-1.773,0.444-3.58,0.749-5.361,1.025c-1.786,0.271-3.557,0.432-5.277,0.564
				c-1.723,0.104-3.395,0.163-4.981,0.147c-1.589-0.019-3.097-0.067-4.487-0.181c-0.695-0.055-1.36-0.124-1.994-0.202
				c-0.638-0.058-1.238-0.138-1.802-0.228c-0.569-0.072-1.092-0.181-1.584-0.264c-0.491-0.081-0.943-0.162-1.346-0.258
				c-0.811-0.174-1.455-0.313-1.886-0.434c-0.441-0.105-0.676-0.162-0.676-0.162s0.203,0.131,0.584,0.375
				c0.382,0.241,0.945,0.604,1.706,0.98c0.374,0.205,0.798,0.405,1.267,0.618c0.463,0.228,0.978,0.435,1.533,0.643
				c1.104,0.442,2.383,0.869,3.807,1.225c0.708,0.204,1.457,0.344,2.23,0.526c0.777,0.149,1.587,0.288,2.423,0.404
				c1.67,0.231,3.446,0.366,5.291,0.405c1.841,0.01,3.754-0.028,5.68-0.257c1.93-0.204,3.881-0.525,5.804-0.983
				c1.922-0.46,3.824-1.024,5.641-1.74c1.826-0.681,3.563-1.523,5.188-2.428c1.629-0.902,3.115-1.928,4.465-2.967
				c0.666-0.531,1.297-1.071,1.892-1.604c0.567-0.57,1.139-1.087,1.634-1.639c1.02-1.073,1.847-2.15,2.531-3.126
				c0.331-0.499,0.648-0.955,0.919-1.393c0.25-0.453,0.479-0.87,0.687-1.246c0.436-0.733,0.634-1.364,0.836-1.771
				c0.174-0.416,0.268-0.638,0.268-0.638l0,0l0,0l0,0l0,0c0,0-0.201,0.133-0.576,0.383c-0.376,0.243-0.91,0.655-1.621,1.077
				c-0.348,0.215-0.733,0.454-1.155,0.713c-0.441,0.23-0.902,0.5-1.397,0.777c-1.006,0.532-2.16,1.077-3.429,1.623
				c-0.63,0.281-1.32,0.502-2.009,0.769c-0.71,0.224-1.427,0.485-2.184,0.701c-1.51,0.434-3.112,0.83-4.795,1.127
				c-1.684,0.293-3.429,0.534-5.22,0.658c-1.787,0.139-3.613,0.197-5.44,0.148c-1.827-0.007-3.651-0.16-5.448-0.333
				c-1.796-0.178-3.552-0.461-5.251-0.757c-1.693-0.326-3.329-0.681-4.864-1.091c-1.533-0.411-2.983-0.829-4.302-1.285
				c-0.661-0.224-1.288-0.457-1.883-0.688c-0.604-0.213-1.166-0.44-1.69-0.667c-0.533-0.211-1.012-0.446-1.468-0.647
				c-0.458-0.2-0.876-0.39-1.241-0.583c-0.742-0.37-1.331-0.663-1.721-0.888c-0.399-0.21-0.614-0.322-0.614-0.322
				S359.385,333.558,359.692,333.888z"/>
			<path fill="#542914" d="M536.664,333.888c-0.311,0.329-0.768,0.819-1.411,1.37c-0.312,0.292-0.674,0.592-1.073,0.914
				c-0.393,0.334-0.84,0.662-1.328,1c-0.96,0.703-2.094,1.432-3.385,2.129c-0.636,0.372-1.326,0.693-2.032,1.061
				c-0.716,0.337-1.465,0.672-2.247,0.991c-1.562,0.637-3.25,1.207-5.025,1.701c-1.782,0.464-3.645,0.901-5.569,1.156
				c-1.918,0.28-3.89,0.45-5.865,0.483c-1.977,0.029-3.958-0.048-5.896-0.292c-1.938-0.208-3.83-0.594-5.627-1.07
				c-1.801-0.471-3.495-1.098-5.06-1.771c-0.776-0.351-1.522-0.716-2.229-1.087c-0.69-0.413-1.371-0.771-1.987-1.185
				c-0.198-0.124-0.382-0.25-0.571-0.376c0.09,0.069,0.175,0.138,0.265,0.207c0.54,0.429,1.155,0.813,1.757,1.242
				c0.632,0.393,1.263,0.823,1.94,1.218c1.356,0.794,2.812,1.574,4.368,2.278c1.559,0.7,3.192,1.366,4.896,1.928
				c1.697,0.578,3.452,1.086,5.233,1.489c1.773,0.444,3.578,0.749,5.361,1.025c1.784,0.271,3.557,0.432,5.277,0.564
				c1.72,0.104,3.392,0.163,4.981,0.147c1.587-0.019,3.097-0.067,4.485-0.181c0.695-0.055,1.362-0.124,1.994-0.202
				c0.638-0.058,1.239-0.138,1.804-0.228c0.569-0.072,1.092-0.181,1.582-0.264c0.493-0.081,0.943-0.162,1.348-0.258
				c0.811-0.174,1.453-0.313,1.886-0.434c0.439-0.105,0.674-0.162,0.674-0.162s-0.202,0.131-0.582,0.375
				c-0.384,0.241-0.945,0.604-1.706,0.98c-0.375,0.205-0.8,0.405-1.267,0.618c-0.463,0.228-0.978,0.435-1.533,0.643
				c-1.105,0.442-2.383,0.869-3.807,1.225c-0.708,0.204-1.457,0.344-2.231,0.526c-0.777,0.149-1.586,0.288-2.422,0.404
				c-1.67,0.231-3.448,0.366-5.291,0.405c-1.841,0.01-3.754-0.028-5.68-0.257c-1.93-0.204-3.881-0.525-5.805-0.983
				c-1.921-0.46-3.823-1.024-5.639-1.74c-1.829-0.681-3.565-1.523-5.189-2.428c-1.628-0.902-3.116-1.928-4.464-2.967
				c-0.667-0.531-1.297-1.071-1.892-1.604c-0.567-0.57-1.139-1.087-1.634-1.639c-1.02-1.073-1.849-2.15-2.533-3.126
				c-0.329-0.499-0.646-0.955-0.917-1.393c-0.25-0.453-0.479-0.87-0.687-1.246c-0.436-0.733-0.634-1.364-0.836-1.771
				c-0.175-0.416-0.269-0.638-0.269-0.638l0,0l0,0l0,0l0,0c0,0,0.2,0.133,0.577,0.383c0.376,0.243,0.909,0.655,1.619,1.077
				c0.35,0.215,0.735,0.454,1.155,0.713c0.443,0.23,0.902,0.5,1.399,0.777c1.005,0.532,2.16,1.077,3.429,1.623
				c0.63,0.281,1.32,0.502,2.009,0.769c0.71,0.224,1.427,0.485,2.182,0.701c1.51,0.434,3.114,0.83,4.797,1.127
				c1.681,0.293,3.429,0.534,5.22,0.658c1.787,0.139,3.613,0.197,5.438,0.148c1.827-0.007,3.653-0.16,5.45-0.333
				c1.796-0.178,3.552-0.461,5.251-0.757c1.693-0.326,3.327-0.681,4.864-1.091c1.533-0.411,2.983-0.829,4.302-1.285
				c0.659-0.224,1.288-0.457,1.883-0.688c0.604-0.213,1.166-0.44,1.69-0.667c0.533-0.211,1.012-0.446,1.468-0.647
				c0.456-0.2,0.876-0.39,1.239-0.583c0.744-0.37,1.333-0.663,1.723-0.888c0.399-0.21,0.612-0.322,0.612-0.322
				S536.972,333.558,536.664,333.888z"/>
			<path fill="#6EE0FF" d="M543.647,383.921c0-13.688-12.319-29.463-12.319-29.463s-12.318,15.775-12.318,29.463
				s5.516,20.106,12.318,20.106C538.132,404.027,543.647,397.609,543.647,383.921z"/>
			<path fill="#6EE0FF" d="M532.737,440.993c0-11.341-10.207-24.411-10.207-24.411s-10.206,13.07-10.206,24.411
				s4.57,16.658,10.206,16.658C528.167,457.651,532.737,452.334,532.737,440.993z"/>
			<path fill="#6EE0FF" d="M379.412,385.949c0-13.688-12.319-29.463-12.319-29.463s-12.318,15.775-12.318,29.463
				s5.516,20.106,12.318,20.106C373.896,406.055,379.412,399.637,379.412,385.949z"/>
			<path fill="#6EE0FF" d="M368.502,443.021c0-11.341-10.207-24.411-10.207-24.411s-10.206,13.07-10.206,24.411
				s4.57,16.658,10.206,16.658C363.932,459.679,368.502,454.361,368.502,443.021z"/>
		</g>
	</g>
	<g>
		<path fill="#341A10" d="M518.845,390.179c-3.324,10.767-14.882,11.987-24.449,8.557c-14.142-5.069-28.971-10.271-42.339-0.027
			c-1.187,0.909-2.151,1.945-2.988,3.042c-0.769-1.145-1.669-2.238-2.799-3.216c-10.722-9.293-23.713-6.324-36.393-4.112
			c-10.229,1.785-22.972,3.269-30.165-5.672c-2.463-3.061-3.856-7.198-2.848-10.995c-11.687,16.333-4.682,44.493,14.545,52.139
			c14.332,5.699,31.978,3.958,46.536-0.009c4.433-1.208,8.068-4.224,10.517-8.017c2.215,3.934,5.662,7.164,10.014,8.637
			c15.999,5.415,34.623,7.02,50.864,0.895c18.126-6.835,19.191-35.275,10.775-49.39
			C520.034,384.578,519.676,387.486,518.845,390.179z"/>
		<path fill="#341A10" d="M417.867,395.826c0.789-0.217,1.534-0.424,2.225-0.611c8.204-2.222,27.365-1.495,27.878,10.858
			c0.149,3.604-2.053,7.015-5.007,9.084c-2.953,2.07-6.566,2.979-10.14,3.468c-7.206,0.986-14.622,0.405-21.587-1.689
			c3.444-0.735,6.726-2.231,9.54-4.351c-3.756,2.828-15.988-3.107-19.323-4.979c-5.034-2.826-9.585-6.791-14.111-10.35
			C398.251,399.592,407.065,398.803,417.867,395.826z"/>
		<path fill="#341A10" d="M480.7,413.584c-0.341-0.008-0.686-0.016-1.034-0.023c1.677,2.109,4.606,4.146,7.284,4.563
			c-0.117-0.019-1.223,1.244-1.479,1.425c-0.561,0.396-1.236,0.686-1.866,0.951c-1.356,0.569-2.796,0.93-4.248,1.146
			c-3.09,0.459-6.272,0.26-9.328-0.344c-5.44-1.076-11.724-3.569-14.969-8.336c-3.131-4.598-3.112-10.936,1.429-14.542
			c6.635-5.267,14.257-4.816,22.091-2.551c5.106,1.477,10.043,3.489,15.164,4.917c1.846,0.515,11.904,3.563,13.435,2.031
			c-2.54,2.428-5.852,3.968-9.293,4.681c-3.441,0.712-7.013,0.627-10.486,0.092c0.697,0.957,4.955,5.446,6.035,5.208
			C488.931,413.794,485.113,413.689,480.7,413.584z"/>
	</g>
</g>
<ellipse opacity="0.1" fill="#020202" enable-background="new    " cx="543.081" cy="873.275" rx="87.936" ry="14.229"/>
<ellipse transform="matrix(-0.0652 -0.9979 0.9979 -0.0652 -523.9431 905.4352)" opacity="0.1" fill="#020202" enable-background="new    " cx="162.147" cy="698.14" rx="12.874" ry="114.813"/>
</svg>
