<?xml version="1.0" encoding="utf-8"?>
<!-- Generator: Adobe Illustrator 19.2.0, SVG Export Plug-In . SVG Version: 6.00 Build 0)  -->
<svg version="1.1" id="Isolation_Mode" xmlns="http://www.w3.org/2000/svg" xmlns:xlink="http://www.w3.org/1999/xlink" x="0px"
	 y="0px" viewBox="0 0 54.1 113.5" style="enable-background:new 0 0 54.1 113.5;" xml:space="preserve">
<style type="text/css">
	.st0{opacity:0.2;clip-path:url(#SVGID_2_);}
	.st1{fill:#23211D;}
	.st2{opacity:0.1;fill:#23211D;enable-background:new    ;}
	.st3{opacity:0.2;fill:#23211D;enable-background:new    ;}
	.st4{clip-path:url(#SVGID_4_);}
	.st5{fill:url(#SVGID_5_);}
	.st6{fill:#A15548;}
	.st7{fill:url(#SVGID_6_);}
	.st8{fill:url(#SVGID_7_);}
	.st9{opacity:0.1;fill:#050505;enable-background:new    ;}
	.st10{opacity:0.2;fill:#FFFFFF;enable-background:new    ;}
	.st11{fill:url(#SVGID_8_);}
</style>
<g>
	<g>
		<g>
			<g>
				<defs>
					<rect id="SVGID_1_" x="-11.4" y="-18.1" width="78.6" height="131.6"/>
				</defs>
				<clipPath id="SVGID_2_">
					<use xlink:href="#SVGID_1_"  style="overflow:visible;"/>
				</clipPath>
				<g class="st0">
					<g>
						<g>
							<g>
								<path class="st1" d="M49.7,121.8c0,3.3-2.7,6-6,5.9l-38.1-0.1c-3.3,0-6-2.7-5.9-6l0.1-22.8c13.8,0.1,40.6,0.2,50.1,0.3
									L49.7,121.8z"/>
								<path class="st1" d="M43.1,124.2L6.2,124c-3.2,0-5.8-1.5-5.8-1.5c0,2.3,2.6,4.2,5.8,4.2l36.9,0.2c3.2,0,5.8-1.8,5.8-4.2
									C48.9,122.8,46.3,124.2,43.1,124.2z"/>
								<path class="st1" d="M49.8,104.6c0,3.3-2.7,3.7-6,3.7l-38.1-0.2c-3.3,0-6-0.5-6-3.8l0.4-63.1c13.8,0.1,40.6,0.2,50.1,0.3
									L49.8,104.6z"/>
								<path class="st1" d="M50.2,41.5c-11.6-0.1-29.6-0.2-50.1-0.3L0.3,5.8c0-3.3,2.7-6,6-5.9l38.1,0.2c3.3,0,6,2.7,5.9,6
									L50.2,41.5z"/>
								<path class="st2" d="M4.3,103.4l0.4-62.2c-1.4,0-2.7,0-3.9,0l-0.4,62.2c0,3.3,2,3.7,4.6,3.7C4.9,107.1,4.3,106.7,4.3,103.4z
									"/>
								<path class="st2" d="M5.6,1.4C3.1,1.4,1,3.9,1,7.1l-0.2,34c1.3,0,2.6,0,3.9,0l0.2-34C4.9,4,5.6,1.4,5.6,1.4z"/>
								<path class="st3" d="M44.9,103.7l0.4-62.2c1.5,0,2.8,0,4.1,0L49,103.7c0,3.3-2.2,3.7-4.8,3.7
									C44.1,107.4,44.8,106.9,44.9,103.7z"/>
								<path class="st1" d="M44.8,1.7c2.6,0,4.7,2.6,4.7,5.8l-0.2,34c-1.4,0-2.7,0-4.1,0l0.2-34C45.5,4.2,44.8,1.7,44.8,1.7z"/>
							</g>
						</g>
					</g>
				</g>
			</g>
		</g>
	</g>
	<g>
		<g>
			<g>
				<defs>
					<rect id="SVGID_3_" x="-11.4" y="-18.1" width="78.6" height="131.6"/>
				</defs>
				<clipPath id="SVGID_4_">
					<use xlink:href="#SVGID_3_"  style="overflow:visible;"/>
				</clipPath>
				<g class="st4">
					<g>
						<g>
							<g>
								
									<linearGradient id="SVGID_5_" gradientUnits="userSpaceOnUse" x1="-1675.7231" y1="-2696.9517" x2="-1675.7231" y2="-2668.1709" gradientTransform="matrix(1 6.000000e-003 6.000000e-003 -1 1720.5812 -2559.249)">
									<stop  offset="0" style="stop-color:#A15548"/>
									<stop  offset="0.3005" style="stop-color:#B36859"/>
									<stop  offset="0.7205" style="stop-color:#C77D6A"/>
									<stop  offset="1" style="stop-color:#CE8471"/>
								</linearGradient>
								<path class="st5" d="M53.7,121.8c0,3.3-2.7,6-6,5.9l-38.1-0.1c-3.3,0-6-2.7-5.9-6l0.1-22.8c13.8,0.1,40.6,0.2,50.1,0.3
									L53.7,121.8z"/>
								<path class="st6" d="M47.1,124.2L10.2,124c-3.2,0-5.8-1.5-5.8-1.5c0,2.3,2.6,4.2,5.8,4.2l36.9,0.2c3.2,0,5.8-1.8,5.8-4.2
									C52.9,122.8,50.3,124.2,47.1,124.2z"/>
								
									<linearGradient id="SVGID_6_" gradientUnits="userSpaceOnUse" x1="-1700.8401" y1="-2644.0857" x2="-1650.7188" y2="-2644.0857" gradientTransform="matrix(1 6.000000e-003 6.000000e-003 -1 1720.5812 -2559.249)">
									<stop  offset="0" style="stop-color:#E58A76"/>
									<stop  offset="0.5112" style="stop-color:#AA3C17"/>
									<stop  offset="1" style="stop-color:#611C01"/>
								</linearGradient>
								<path class="st7" d="M53.8,104.6c0,3.3-2.7,3.7-6,3.7l-38.1-0.2c-3.3,0-6-0.5-6-3.8l0.4-63.1c13.8,0.1,40.6,0.2,50.1,0.3
									L53.8,104.6z"/>
								
									<linearGradient id="SVGID_7_" gradientUnits="userSpaceOnUse" x1="-1700.8894" y1="-2589.9795" x2="-1650.7769" y2="-2589.9795" gradientTransform="matrix(1 6.000000e-003 6.000000e-003 -1 1720.5812 -2559.249)">
									<stop  offset="5.600000e-003" style="stop-color:#FFF2DC"/>
									<stop  offset="0.4494" style="stop-color:#FFEBC9"/>
									<stop  offset="1" style="stop-color:#FFDB7F"/>
								</linearGradient>
								<path class="st8" d="M54.2,41.5c-11.6-0.1-29.6-0.2-50.1-0.3L4.3,5.8c0-3.3,2.7-6,6-5.9l38.1,0.2c3.3,0,6,2.7,5.9,6
									L54.2,41.5z"/>
								<path class="st9" d="M8.3,103.4l0.4-62.2c-1.4,0-2.7,0-3.9,0l-0.4,62.2c0,3.3,2,3.7,4.6,3.7C8.9,107.1,8.3,106.7,8.3,103.4z
									"/>
								<path class="st9" d="M9.6,1.4C7.1,1.4,5,3.9,5,7.1l-0.2,34c1.3,0,2.6,0,3.9,0l0.2-34C8.9,4,9.6,1.4,9.6,1.4z"/>
								<path class="st10" d="M48.9,103.7l0.4-62.2c1.5,0,2.8,0,4.1,0L53,103.7c0,3.3-2.2,3.7-4.8,3.7
									C48.1,107.4,48.8,106.9,48.9,103.7z"/>
								
									<linearGradient id="SVGID_8_" gradientUnits="userSpaceOnUse" x1="3013.9624" y1="-2590.8101" x2="3018.5625" y2="-2590.8101" gradientTransform="matrix(-1.0358 -6.200000e-003 6.000000e-003 -1 3190.5496 -2550.4912)">
									<stop  offset="5.600000e-003" style="stop-color:#FFF2DC"/>
									<stop  offset="0.4494" style="stop-color:#FFEBC9"/>
									<stop  offset="1" style="stop-color:#FFDB7F"/>
								</linearGradient>
								<path class="st11" d="M48.8,1.7c2.6,0,4.7,2.6,4.7,5.8l-0.2,34c-1.4,0-2.7,0-4.1,0l0.2-34C49.5,4.2,48.8,1.7,48.8,1.7z"/>
							</g>
						</g>
					</g>
				</g>
			</g>
		</g>
	</g>
</g>
</svg>
