<?xml version="1.0" encoding="utf-8"?>
<!-- Generator: Adobe Illustrator 19.2.0, SVG Export Plug-In . SVG Version: 6.00 Build 0)  -->
<svg version="1.1" id="Isolation_Mode" xmlns="http://www.w3.org/2000/svg" xmlns:xlink="http://www.w3.org/1999/xlink" x="0px"
	 y="0px" viewBox="0 0 144.2 112" style="enable-background:new 0 0 144.2 112;" xml:space="preserve">
<style type="text/css">
	.st0{opacity:0.5;fill:#191B23;enable-background:new    ;}
	.st1{fill:#F33703;}
	.st2{fill:#A20004;}
	.st3{fill:#FF1E13;}
	.st4{fill:#F10701;}
	.st5{fill:#FFFFFF;}
</style>
<g>
	<path class="st0" d="M29.5,112c-2.8,0-5.9-0.7-8.9-2.1c-1.6-0.7-3.5-1.5-5.5-2.6c-2.1-1.1-4.1-2.2-6-3.5c-2-1.3-3.7-2.6-5.1-4
		c-2.7-2.5-4-5.2-4-8.1c0-3.4,1.7-6.6,5.1-9.8c2.1-2.1,4.8-4.6,7.8-7.3c2.9-2.6,6.2-5.5,9.7-8.5c3.5-3,7.2-6.1,11.1-9.3
		c2.1-1.8,4.3-3.5,6.5-5.3c-1.1-1.6-2.2-3.2-3.3-4.7c-2.4-3.5-4.7-6.8-6.8-9.9c-2.2-3.2-4.2-6.2-6-8.9c-1.8-2.7-3.3-5.1-4.7-7.1
		l-0.2-0.3l0-0.1c-3.7-6.9-1.2-11.1,0.6-13c2.2-2.2,5.2-3.3,10.5-3.7c0.7-0.1,1.7-0.1,2.7-0.1H40c1.5,0,3.2,0,4.9,0.1
		c1.8,0,3.5,0.1,5.3,0.2c5,0.3,8.9,1.3,11.8,3.1c2.7,1.6,5,3.6,7.1,6l0.3,0.4l0.3,0.4c1.5,2.4,3.3,5.1,5.4,8.2l1.9,2.8
		c4.1-3.3,7.9-6.3,11.5-9.2c5.5-4.3,10.5-8,14.7-11c3.4-2.2,6.9-3.4,10.5-3.4c2.9,0,6.1,0.6,9.4,1.7l0.3,0.1c3.2,1.4,6.1,3,8.9,4.8
		c2.6,1.7,4.8,3.4,6.6,4.9c6.1,5,5.4,10.4,4.9,12.5c-0.9,3.1-2.9,5.9-6,8.2L119,47.9c-5.5,4.2-11.2,8.5-17.3,13.1
		c3.6,5.1,7,10.1,10.3,14.9c4.3,6.2,8.4,12.1,12.1,17.3c5.4,6,2.7,11,1.7,12.4c-2.5,3.6-6.9,4.4-10.4,4.7c-3.3,0.2-6.6,0.3-9.8,0.3
		c-3.2,0-6.6-0.1-10-0.2c-2.1-0.1-4-0.4-5.6-0.7c-1.6-0.4-3.1-0.9-4.5-1.5c-1.6-0.7-3.1-1.6-4.5-2.6c-1.1-0.9-2.3-1.9-3.5-3.1
		c-1.7-1.6-4-4.3-7.1-8.3c-1.6-2.1-3.3-4.4-5.2-7c-3.9,3.1-7.6,6.2-11.1,9.2c-5.2,4.4-10,8.4-14.3,11.9
		C36.9,110.7,33.4,112,29.5,112z"/>
	<path class="st1" d="M28.7,105.6c-2.5,0-5.2-0.6-7.9-1.9c-1.6-0.6-3.4-1.5-5.4-2.5c-2-1-3.9-2.1-5.7-3.3c-1.9-1.2-3.5-2.5-4.8-3.7
		c-2.2-2-3.2-4.1-3.2-6.3c0-2.7,1.4-5.3,4.3-8c2.1-2.1,4.8-4.6,7.8-7.2c2.9-2.6,6.2-5.5,9.7-8.4c3.5-3,7.2-6.1,11-9.3
		c2.7-2.2,5.5-4.5,8.3-6.7c-1.6-2.2-3.1-4.4-4.6-6.6c-2.4-3.5-4.7-6.8-6.8-9.9c-2.2-3.2-4.2-6.2-6-8.9c-1.8-2.7-3.3-5.1-4.6-7.1
		l-0.1-0.2l0-0.1c-2.8-5.2-1.4-8.3,0.2-10c1.7-1.8,4.3-2.6,9-3c0.7-0.1,1.6-0.1,2.5-0.1h7.1c1.5,0,3.1,0,4.9,0.1
		c1.7,0,3.5,0.1,5.2,0.2c4.6,0.3,8.1,1.2,10.7,2.7c2.4,1.4,4.6,3.2,6.4,5.4l0.2,0.2l0.2,0.3c1.5,2.4,3.4,5.2,5.5,8.2
		c1.1,1.6,2.2,3.3,3.4,5c4.9-3.9,9.4-7.5,13.6-10.8c5.5-4.3,10.4-8,14.6-10.9c2.9-2,6-2.9,9.1-2.9c2.7,0,5.6,0.5,8.6,1.6l0.3,0.1
		c3,1.3,5.8,2.8,8.4,4.6c2.5,1.7,4.6,3.3,6.4,4.7c4.8,4,4.6,7.9,4.1,9.9c-0.7,2.6-2.4,4.9-5.1,6.9c-4.6,3.5-18.8,14.3-18.8,14.3
		c-6.1,4.6-12.4,9.4-19.2,14.6c4.1,5.8,7.9,11.5,11.7,16.9c4.4,6.3,8.5,12.2,12.2,17.5c4.2,4.6,2.6,8.1,1.6,9.4
		c-1.9,2.7-5.4,3.4-8.6,3.7c-3.2,0.2-6.4,0.3-9.6,0.3c-3.2,0-6.5-0.1-9.9-0.2c-2-0.1-3.7-0.3-5.1-0.7c-1.4-0.3-2.8-0.8-4.1-1.4
		c-1.4-0.6-2.7-1.4-3.9-2.3c-1.1-0.8-2.1-1.7-3.3-2.9c-1.6-1.5-3.9-4.1-6.8-8c-2-2.6-4.2-5.6-6.7-9.1c-4.7,3.7-9.1,7.4-13.2,10.8
		c-5.2,4.4-10,8.4-14.3,11.8C35,104.6,32,105.6,28.7,105.6z"/>
	<path class="st2" d="M28.7,103.2c-2.1,0-4.5-0.6-6.9-1.6c-1.5-0.6-3.3-1.5-5.2-2.4c-1.9-1-3.8-2.1-5.5-3.2
		c-1.7-1.2-3.2-2.3-4.4-3.4c-1.6-1.6-2.4-3-2.4-4.5c0-1.9,1.1-4,3.5-6.2c2.2-2.1,4.8-4.6,7.7-7.2c2.9-2.6,6.2-5.5,9.6-8.4
		c3.5-3,7.2-6.1,11-9.2c3.3-2.7,6.7-5.4,10.1-8.1c-2.1-2.9-4.1-5.7-6-8.5c-2.4-3.5-4.7-6.8-6.8-9.9c-2.2-3.2-4.2-6.1-5.9-8.8
		c-1.8-2.7-3.3-5.1-4.6-7.1l-0.1-0.1l-0.1-0.1c-1.6-3.1-1.7-5.4-0.1-7c1.2-1.3,3.4-1.9,7.4-2.2C30.5,5,31.3,5,32.2,5h7.1
		C40.7,5,42.3,5,44,5c1.7,0,3.5,0.1,5.2,0.2c4.2,0.3,7.3,1.1,9.6,2.4c2.2,1.3,4.1,2.9,5.7,4.9l0.1,0.1l0.1,0.1
		c1.6,2.5,3.4,5.3,5.5,8.3c1.6,2.3,3.2,4.7,4.9,7.2c5.7-4.6,10.9-8.8,15.6-12.5c5.4-4.3,10.3-7.9,14.5-10.8c2.5-1.7,5.1-2.5,7.7-2.5
		c2.4,0,5,0.5,7.8,1.5L121,4c2.7,1.2,5.4,2.6,7.9,4.3c2.4,1.6,4.5,3.2,6.2,4.6c3.6,2.9,3.8,5.6,3.3,7.3c-0.6,2-2,3.9-4.2,5.6
		c-4.6,3.5-18.8,14.3-18.8,14.3c-6.6,5-13.6,10.4-21,16c4.5,6.5,8.9,12.8,13,18.8c4.4,6.4,8.6,12.3,12.3,17.6c2.9,3,2.4,5.2,1.5,6.5
		c-1.1,1.5-3.1,2.3-6.7,2.6c-3.1,0.2-6.2,0.2-9.4,0.2c-3.2,0-6.4-0.1-9.8-0.2c-1.8-0.1-3.4-0.3-4.7-0.6c-1.3-0.3-2.6-0.7-3.7-1.2
		c-1.2-0.5-2.4-1.2-3.4-2c-1-0.7-2-1.6-3.1-2.7c-1.5-1.4-3.7-4-6.6-7.7c-2.4-3.1-5.1-6.8-8.2-11.1c-5.5,4.4-10.6,8.6-15.3,12.5
		C45,93.2,40.2,97.2,36,100.6C33.9,102.3,31.5,103.2,28.7,103.2z"/>
	<g>
		<path class="st3" d="M90.7,16c5.1-4.1,9.6-7.5,13.5-10.3c1.9-1.3,3.9-2,5.9-2c2,0,4.2,0.4,6.6,1.3c2.5,1.1,4.8,2.4,7,3.9
			c2.2,1.5,4.1,3,5.6,4.3c1.9,1.6,2.7,3.1,2.3,4.5c-0.4,1.4-1.4,2.8-3.1,4.1c-5.1,3.9-11,8.5-17.8,13.8c-6.8,5.3-14,10.9-21.7,16.9
			c4.8,7,9.3,13.7,13.6,20c4.3,6.4,8.2,12.1,11.7,17.1c1.4,1.5,1.8,2.6,1.3,3.3c-0.5,0.7-2,1.2-4.5,1.4c-5.6,0.3-11.5,0.3-17.7,0
			c-1.5-0.1-2.9-0.3-4-0.5c-1.1-0.3-2.1-0.6-3.1-1c-1-0.4-1.9-1-2.7-1.6c-0.8-0.7-1.7-1.4-2.6-2.4c-1.4-1.3-3.4-3.7-6-7.2
			c-2.6-3.5-5.7-7.8-9.2-12.8c-6,4.8-11.5,9.4-16.5,13.8c-5,4.3-9.5,8.1-13.4,11.3c-2.8,2.4-6.4,2.6-10.8,0.6
			c-1.5-0.6-3.1-1.4-4.8-2.3c-1.8-0.9-3.4-1.9-4.9-2.9c-1.5-1-2.8-2.1-3.9-3.1c-1-1-1.6-1.8-1.6-2.5c0-1.2,0.8-2.5,2.5-4.1
			c2.1-2.1,4.5-4.4,7.3-6.9c2.8-2.5,5.8-5.2,9-8.1c3.3-2.8,6.7-5.8,10.4-8.9c3.6-3.1,7.4-6.1,11.3-9.2c-2.4-3.4-4.7-6.7-7-10.1
			C41.2,33,39,29.8,37,26.8c-2-3-3.9-5.9-5.6-8.5c-1.7-2.6-3.1-4.9-4.4-6.8c-1-1.9-1.2-3.2-0.5-3.9c0.7-0.7,2.4-1.2,5.4-1.4
			c0.6-0.1,1.3-0.1,2-0.1c0.8,0,1.5,0,2.3,0h4.4c1.4,0,2.9,0,4.5,0.1c1.6,0,3.2,0.1,4.8,0.2c3.5,0.2,6.1,0.9,7.9,2
			c1.8,1.1,3.4,2.5,4.8,4.1c1.5,2.5,3.3,5.1,5.2,8.1c2,2.9,4,6,6.2,9.2C80,24.7,85.6,20.1,90.7,16z"/>
	</g>
	<path class="st4" d="M40.1,85.5c-9.7,0-18.8-2.5-26.9-6.8c-0.3,0.3-0.5,0.5-0.8,0.8c-1.7,1.6-2.5,3-2.5,4.1c0,0.7,0.5,1.5,1.6,2.5
		c1,1,2.3,2,3.9,3.1c1.5,1,3.2,2,4.9,2.9c1.8,0.9,3.4,1.7,4.8,2.3c4.4,2,8,1.8,10.8-0.6c3.1-2.5,6.5-5.4,10.3-8.7
		C44.2,85.4,42.2,85.5,40.1,85.5z"/>
	<path class="st4" d="M109.8,82.9c-3.2,0.6-6.6,0.9-9.9,0.9c-10.6,0-20.5-3-29.1-8.1c1.5,2.2,3,4.1,4.3,5.9c2.6,3.5,4.6,5.9,6,7.2
		c0.9,0.9,1.8,1.7,2.6,2.4c0.8,0.7,1.7,1.2,2.7,1.6c1,0.4,2,0.8,3.1,1c1.1,0.3,2.4,0.4,4,0.5c6.2,0.3,12.1,0.3,17.7,0
		c2.5-0.2,4-0.7,4.5-1.4c0.5-0.7,0.1-1.8-1.3-3.3C112.9,87.5,111.4,85.2,109.8,82.9z"/>
	<path class="st5" d="M113.3,7.8c1.1,2.1-0.4,4.8-3.1,6.2c-2.7,1.4-5.9,1.2-7.2-0.7c-1.3-1.9-0.1-5,2.9-6.6
		C108.8,5.1,112.2,5.7,113.3,7.8z"/>
	<path class="st5" d="M75.9,38.7c-1.1-1.8,3.8-6.3,10-11.2c6.1-5,11.5-8.9,12.9-7.5c1.5,1.3-1.7,7.9-8.3,13.3
		C84,38.7,76.9,40.5,75.9,38.7z"/>
</g>
</svg>
