<?xml version="1.0" encoding="utf-8"?>
<!-- Generator: Adobe Illustrator 19.2.0, SVG Export Plug-In . SVG Version: 6.00 Build 0)  -->
<svg version="1.1" id="Layer_1" xmlns="http://www.w3.org/2000/svg" xmlns:xlink="http://www.w3.org/1999/xlink" x="0px" y="0px"
	 viewBox="0 0 24 24.9" style="enable-background:new 0 0 24 24.9;" xml:space="preserve">
<style type="text/css">
	.st0{fill:none;}
	.st1{fill:#FFC118;}
	.st2{fill:#FFDE00;}
	.st3{fill:#FFFFFF;}
</style>
<g id="Element_Star_Filled_Big_2_">
	<path class="st0" d="M22.8,13.3c0.9-0.9,1.3-2,1.1-3C24,9.9,24,9.4,23.8,9c-0.4-1.1-1.4-1.9-2.9-2.1l-2.1-0.3l-2-0.3
		c-0.1,0-0.2-0.1-0.2-0.1c-0.3-0.5-1.1-2.2-1.8-3.8C14,0.8,13,0,11.8,0l0,0c-1.1,0-2,0.7-2.6,1.9L8.6,3L7.3,5.8C7.2,6,7,6.2,6.8,6.3
		L4.5,6.6L2.7,6.9c-1.3,0.2-2.2,0.9-2.6,2C0,9.3-0.1,9.8,0,10.2c-0.2,1.2,0.3,2.4,1.5,3.6l0.4,0.4c1,1,1.7,1.9,2,2.4L3.4,20
		c-0.1,0.5-0.1,0.9-0.1,1.3c-0.1,1.3,0.3,2.1,0.7,2.6c0.5,0.6,1.3,1,2.1,1c0.6,0,1.3-0.2,1.9-0.5l3.1-1.7l0.6-0.3c0,0,0,0,0,0
		c0.1,0,0.3,0,0.3,0.1l3.7,2c0.6,0.3,1.2,0.5,1.7,0.5c0.8,0,1.5-0.3,2-1c0.4-0.5,0.8-1.4,0.7-2.8c0-0.4,0-0.9-0.1-1.5l-0.5-2.9
		l-0.1-0.4c0,0,0,0,0.1-0.1L22.8,13.3z"/>
	<g>
		<g>
			<path class="st1" d="M11.8,1.4c0.6,0,1.1,0.5,1.6,1.5c0.8,1.8,1.7,3.5,1.9,4c0.2,0.4,0.8,0.9,1.4,0.9c0.5,0.1,2.5,0.4,4.2,0.6
				c1.8,0.3,2.2,1.5,1,2.8c-1.3,1.3-2.6,2.7-3.1,3.1c-0.4,0.4-0.7,1.1-0.7,1.5c0.1,0.4,0.4,2.3,0.7,4.4c0.3,1.5-0.3,2.5-1.2,2.5
				c-0.3,0-0.6-0.1-1-0.3c-1.5-0.8-3.3-1.8-3.8-2.1c-0.3-0.2-0.7-0.3-1.1-0.3c-0.3,0-0.5,0-0.7,0.1c-0.4,0.2-2.1,1.2-3.8,2.1
				c-0.5,0.3-0.9,0.4-1.2,0.4c-0.9,0-1.4-0.8-1.2-2.2c0.3-1.9,0.6-3.9,0.7-4.4c0.1-0.5-1.1-2.2-2.7-3.8l-0.4-0.4
				C0.9,10.2,1,8.7,2.8,8.4C4.5,8.2,6.4,7.9,7,7.8c0.6-0.1,1.3-0.7,1.7-1.4c0.3-0.7,1.2-2.5,1.9-4C10.9,1.7,11.3,1.4,11.8,1.4"/>
		</g>
	</g>
	<g>
		<g>
			<path class="st2" d="M10.5,4.4c1-2,2.1-1.1,2.8,0.3C14,6.1,14.7,7.6,14.9,8c0.2,0.4,0.4,0.8,0.9,0.8c0.4,0.1,2,0.3,3.4,0.5
				c1.4,0.2,1.8,1.3,0.8,2.3c-1,1-2.1,2.2-2.5,2.5c-0.3,0.4-0.6,0.9-0.5,1.2c0,0.3,0.3,1.9,0.6,3.6c0.3,1.7-0.5,2.5-1.8,1.8
				c-1.2-0.7-2.6-1.4-3-1.7c-0.4-0.2-1.1-0.3-1.4-0.1c-0.3,0.2-1.7,1-3,1.7s-2.2,0.1-2-1.5c0.3-1.6,0.5-3.2,0.6-3.6
				s-0.9-1.8-2.2-3.1l-0.4-0.4C3,10.8,3.2,9.6,4.6,9.3c1.4-0.2,2.7-0.5,3.1-0.6C8.2,8.7,8.8,8.2,9,7.6C9.3,7.1,10,5.6,10.5,4.4z"/>
		</g>
	</g>
	<path class="st3" d="M8,9.7c0.1,0.4-0.8,0.9-1.9,1.1c-1.1,0.2-2.1,0-2.2-0.4C3.8,10,4.7,9.5,5.8,9.3C7,9.1,7.9,9.3,8,9.7z"/>
	<path class="st3" d="M19.6,10.1c0,0.4-1,0.7-2.1,0.6c-1.1-0.1-2-0.5-2-0.9c0-0.4,1-0.7,2.1-0.6S19.6,9.7,19.6,10.1z"/>
	<path class="st3" d="M11.6,4.2c0.3,0.1,0.4,0.7,0.1,1.3c-0.2,0.6-0.6,1-0.9,0.8c-0.3-0.1-0.4-0.7-0.1-1.3
		C10.9,4.4,11.3,4.1,11.6,4.2z"/>
</g>
</svg>
