<?xml version="1.0" encoding="utf-8"?>
<!-- Generator: Adobe Illustrator 16.0.0, SVG Export Plug-In . SVG Version: 6.00 Build 0)  -->
<!DOCTYPE svg PUBLIC "-//W3C//DTD SVG 1.1//EN" "http://www.w3.org/Graphics/SVG/1.1/DTD/svg11.dtd">
<svg version="1.1" id="Layer_1" xmlns="http://www.w3.org/2000/svg" xmlns:xlink="http://www.w3.org/1999/xlink" x="0px" y="0px"
	 width="25.208px" height="27.375px" viewBox="8.625 570 25.208 27.375" enable-background="new 8.625 570 25.208 27.375"
	 xml:space="preserve">
<g id="element_x5F_star_x5F_big">
	<g id="Element_Star_Filled_Big_1_">
		<path fill="#073B5B" stroke="#108AD4" stroke-width="3" stroke-miterlimit="10" d="M30.57,585.082
			c0.771-0.773,1.111-1.682,0.966-2.535c0.062-0.369,0.04-0.738-0.073-1.095c-0.302-0.958-1.188-1.614-2.432-1.8l-1.816-0.272
			l-1.743-0.262c-0.045-0.009-0.137-0.062-0.185-0.104c-0.213-0.443-0.896-1.871-1.565-3.27c-0.599-1.251-1.518-1.969-2.522-1.969
			l0,0c-0.911,0-1.711,0.583-2.199,1.6l-0.471,0.983l-1.121,2.342c-0.087,0.183-0.322,0.387-0.44,0.434l-1.973,0.296l-1.56,0.233
			c-1.104,0.166-1.901,0.784-2.189,1.697c-0.113,0.359-0.136,0.738-0.078,1.125c-0.157,0.983,0.294,2.081,1.276,3.068l0.373,0.375
			c0.872,0.876,1.459,1.646,1.734,2.084l-0.458,2.752c-0.071,0.431-0.079,0.806-0.044,1.133c-0.105,1.122,0.243,1.829,0.573,2.233
			c0.436,0.532,1.068,0.825,1.782,0.825c0.524,0,1.077-0.155,1.645-0.463l2.645-1.434l0.475-0.258c0.009,0,0.02-0.001,0.032-0.001
			c0.111,0,0.226,0.03,0.278,0.06l3.184,1.724c0.501,0.272,0.997,0.41,1.472,0.41c0.688,0,1.303-0.29,1.734-0.816
			c0.344-0.421,0.705-1.162,0.604-2.366c0.034-0.356,0.022-0.768-0.056-1.242l-0.411-2.472l-0.061-0.368
			c0.016-0.021,0.03-0.042,0.048-0.059L30.57,585.082z"/>
		<g>
			<g>
				<path fill="#073B5B" d="M21.199,574.954c0.475,0,0.977,0.42,1.367,1.239c0.71,1.491,1.437,3.017,1.615,3.39
					c0.178,0.373,0.701,0.735,1.163,0.805c0.462,0.069,2.087,0.313,3.612,0.544c1.525,0.229,1.896,1.303,0.824,2.384
					c-1.071,1.082-2.248,2.27-2.613,2.639s-0.622,0.933-0.569,1.251c0.053,0.318,0.33,1.995,0.617,3.726
					c0.217,1.307-0.213,2.099-1.004,2.099c-0.256,0-0.551-0.083-0.874-0.259c-1.32-0.719-2.774-1.51-3.231-1.759
					c-0.263-0.144-0.597-0.219-0.902-0.219c-0.225,0-0.434,0.041-0.588,0.125c-0.362,0.197-1.816,0.989-3.231,1.76
					c-0.391,0.212-0.746,0.313-1.049,0.313c-0.792,0-1.229-0.689-1.034-1.861c0.268-1.621,0.546-3.298,0.617-3.726
					c0.071-0.429-0.962-1.881-2.295-3.227l-0.378-0.381c-1.333-1.347-1.213-2.631,0.268-2.854c1.48-0.223,3.106-0.468,3.612-0.543
					c0.506-0.077,1.146-0.613,1.422-1.193c0.276-0.58,1.003-2.105,1.616-3.39C20.437,575.238,20.809,574.954,21.199,574.954"/>
			</g>
		</g>
		<g>
			<g>
				<path fill="#073B5B" d="M20.149,577.504c0.811-1.678,1.806-0.937,2.377,0.281s1.155,2.463,1.298,2.768
					c0.143,0.304,0.354,0.659,0.725,0.716c0.371,0.057,1.676,0.256,2.901,0.444c1.225,0.188,1.522,1.063,0.662,1.946
					c-0.861,0.883-1.805,1.853-2.099,2.154c-0.293,0.301-0.5,0.761-0.457,1.021s0.265,1.629,0.496,3.042
					c0.23,1.413-0.449,2.089-1.509,1.502c-1.06-0.587-2.228-1.232-2.595-1.436s-0.905-0.238-1.196-0.077
					c-0.292,0.162-1.459,0.808-2.595,1.437c-1.136,0.629-1.889,0.061-1.673-1.263c0.215-1.324,0.438-2.692,0.495-3.042
					s-0.772-1.535-1.844-2.634l-0.304-0.312c-1.071-1.1-0.974-2.147,0.215-2.33c1.189-0.182,2.258-0.413,2.665-0.476
					s0.92-0.5,1.143-0.974C19.073,579.798,19.646,578.547,20.149,577.504z"/>
			</g>
		</g>
		<path fill="#073B5B" d="M17.977,582.041c0.051,0.344-0.691,0.746-1.656,0.898s-1.789-0.003-1.84-0.347
			c-0.051-0.345,0.691-0.748,1.656-0.9S17.927,581.696,17.977,582.041z"/>
		<path fill="#073B5B" d="M27.83,582.412c-0.025,0.347-0.834,0.569-1.809,0.494c-0.974-0.074-1.744-0.416-1.719-0.764
			c0.025-0.347,0.834-0.568,1.808-0.493C27.085,581.723,27.855,582.064,27.83,582.412z"/>
		<path fill="#073B5B" d="M21.071,577.33c0.249,0.099,0.301,0.582,0.117,1.081c-0.185,0.498-0.536,0.822-0.785,0.723
			c-0.249-0.099-0.301-0.583-0.116-1.081C20.471,577.556,20.823,577.23,21.071,577.33z"/>
	</g>
</g>
</svg>
