
<svg xmlns="http://www.w3.org/2000/svg" version="1.1" xmlns:xlink="http://www.w3.org/1999/xlink" preserveAspectRatio="none" x="0px" y="0px" width="272px" height="70px" viewBox="0 0 272 70">
<defs>
<filter id="Filter_1" x="-20%" y="-20%" width="140%" height="140%" color-interpolation-filters="sRGB">
<feColorMatrix in="SourceGraphic" type="matrix" values="0 0 0 0 0.792156862745098 0 0 0 0 0.01568627450980392 0 0 0 0 0.25098039215686274 0 0 0 1 0" result="result1"/>
</filter>

<filter id="Filter_2" x="-20%" y="-20%" width="140%" height="140%" color-interpolation-filters="sRGB">
<feColorMatrix in="SourceGraphic" type="matrix" values="0 0 0 0 0.9882352941176471 0 0 0 0 0.17254901960784313 0 0 0 0 0.41568627450980394 0 0 0 1 0" result="result1"/>
</filter>

<filter id="Filter_3" x="-20%" y="-20%" width="140%" height="140%" color-interpolation-filters="sRGB">
<feColorMatrix in="SourceGraphic" type="matrix" values="0 0 0 0 0.9921568627450981 0 0 0 0 0.4 0 0 0 0 0.5803921568627451 0 0 0 1 0" result="result1"/>
</filter>

<filter id="Filter_4" x="-20%" y="-20%" width="140%" height="140%" color-interpolation-filters="sRGB">
<feColorMatrix in="SourceGraphic" type="matrix" values="0 0 0 0 0 0 0 0 0 0 0 0 0 0 0 0 0 0 1 0" result="result1"/>
</filter>

<filter id="Filter_5" x="-20%" y="-20%" width="140%" height="140%" color-interpolation-filters="sRGB">
<feColorMatrix in="SourceGraphic" type="matrix" values="0 0 0 0 0 0 0 0 0 0 0 0 0 0 0 0 0 0 0.45 0" result="result1"/>
</filter>

<filter id="Filter_6" x="-20%" y="-20%" width="140%" height="140%" color-interpolation-filters="sRGB">
<feColorMatrix in="SourceGraphic" type="matrix" values="0 0 0 0 0 0 0 0 0 0 0 0 0 0 0 0 0 0 0.23 0" result="result1"/>
</filter>

<filter id="Filter_7" x="-20%" y="-20%" width="140%" height="140%" color-interpolation-filters="sRGB">
<feColorMatrix in="SourceGraphic" type="matrix" values="0 0 0 0 0 0 0 0 0 0 0 0 0 0 0 0 0 0 0.12 0" result="result1"/>
</filter>

<g id="Layer0_0_MEMBER_0_FILL">
<path fill="#000000" fill-opacity="0.2" stroke="none" d="
M 2013.35 181.7
Q 2013.35 172.55 2005.2 172.55
L 1776.9 172.55 1776.9 234.95 2005.2 234.95
Q 2013.35 234.95 2013.35 225.9
L 2013.35 181.7 Z"/>
</g>

<g id="Layer0_0_MEMBER_1_FILL">
<path fill="#FFFFFF" stroke="none" d="
M 2009.45 184.8
Q 2009.45 176.1 2001.7 176.1
L 1784.8 176.1 1784.8 235.4 2001.7 235.4
Q 2009.45 235.4 2009.45 226.8
L 2009.45 184.8 Z"/>
</g>

<g id="Graphic_shape_53_0_Layer0_0_FILL">
<path fill="#FFFFFF" stroke="none" d="
M -42.2 21.35
L -42.2 0 -46.75 0
Q -50.4 0 -50.4 3.7
L -50.4 17.7
Q -50.4 21.35 -46.75 21.35
L -42.2 21.35
M 71.9 21.35
L 71.9 0 17.1 0 17.1 21.35 71.9 21.35 Z"/>
</g>

<g id="Graphic_shape_53_0_Layer0_1_FILL">
<path fill="#FFFFFF" stroke="none" d="
M -33.3 21.35
L -33.3 0 -42.2 0 -42.2 21.35 -33.3 21.35 Z"/>
</g>

<g id="Graphic_shape_55_0_Layer0_0_FILL">
<path fill="#FFFFFF" stroke="none" d="
M 75.6 2.3
L 75.6 0.35 -45.1 0
Q -49.9 0.1 -48.4 1.2 -46.8 2.25 -43.35 2.05
L 75.6 2.3 Z"/>
</g>

<g id="Layer0_0_MEMBER_2_MEMBER_3_FILL">
<path fill="#000000" fill-opacity="0.2" stroke="none" d="
M 1815.45 192.95
Q 1812.75 187.2 1808.25 182.75 1803.8 178.2 1797.35 175.25 1789.65 171.75 1781.1 171.75 1779.05 171.85 1776.95 171.95 1769.8 172.65 1763.65 175.85 1754.55 180.45 1750 189.3 1747.95 193.3 1747.2 197.75
L 1746.6 202.65
Q 1746.5 203.95 1746.6 205.25 1746.95 213.5 1751.45 221.05 1755.05 226.7 1760.35 230.75 1765.95 234.95 1772.85 237.15
L 1783.85 238.6
Q 1791.6 238.6 1798.5 235.6 1804.75 232.8 1809.1 228.65 1813.45 224.25 1815.85 218.85 1818.65 212.4 1818.45 205.2 1818.15 198.7 1815.45 192.95 Z"/>
</g>

<g id="Layer0_0_MEMBER_2_MEMBER_3_MEMBER_0_FILL">
<path fill="#FFFFFF" stroke="none" d="
M 1811.3 193.4
Q 1808.6 187.6 1804.05 183.1 1799.6 178.55 1793.1 175.55 1785.35 172.05 1776.75 172.05 1774.65 172.15 1772.55 172.25 1765.35 172.95 1759.15 176.15 1750 180.8 1745.45 189.7 1743.35 193.75 1742.6 198.2
L 1741.95 203.15
Q 1741.85 204.5 1741.95 205.75 1742.35 214.05 1746.85 221.65 1750.5 227.35 1755.85 231.45 1761.5 235.7 1768.4 237.85
L 1779.5 239.35
Q 1787.3 239.35 1794.25 236.35 1800.55 233.5 1804.9 229.3 1809.25 224.9 1811.7 219.5 1814.55 213 1814.3 205.7 1814 199.15 1811.3 193.4 Z"/>
</g>

<g id="Graphic_shape_153_0_Layer5_0_FILL">
<path fill="#CE5300" stroke="none" d="
M 108.6 20.2
Q 106.15 16.7 102.05 14.85 98.8 13.4 94.95 13.35 90.95 13.35 87.35 15 84.3 16.4 82.25 18.5 80.1 20.6 78.85 23.3 77.55 26 77.45 29.05 77.35 32.45 78.7 35.5 79.8 38 81.85 40.05 83.85 42.05 86.8 43.35 90.05 44.75 93.7 44.75
L 98.85 44.05
Q 102.1 43.05 104.7 41.1 107.2 39.15 108.9 36.5 111.05 32.95 111.2 29.1 111.4 24.3 108.6 20.2 Z"/>
</g>

<g id="Graphic_shape_153_0_Layer4_0_FILL">
<path fill="#FF6600" stroke="none" d="
M 109.6 21.6
Q 107.45 17.45 103.15 15.25 99.65 13.4 95.35 13.4 91.55 13.35 87.95 14.95 84.75 16.4 82.35 19 80.55 20.9 79.5 23.3 78.4 25.75 78.25 28.65 78.15 32.15 79.7 35.45 81.55 39.35 85.6 41.75 89.45 44.05 94.1 44.05
L 99.6 43.2
Q 104.1 41.7 107.2 38.35 110.95 34.05 111.2 28.75 111.3 24.9 109.6 21.6 Z"/>
</g>

<g id="Graphic_shape_153_0_Layer3_0_FILL">
<path fill="#FF9900" stroke="none" d="
M 95.35 14.15
Q 92.25 14.15 89.25 15.35 86.5 16.4 84.2 18.5 79.45 22.8 79.25 28.65 79.05 34.55 83.5 38.75 87.85 42.8 94.1 42.8 99.7 42.8 104.3 39.5 110.3 35.1 110.65 28.55 110.95 22.65 107.1 18.65 102.75 14.15 95.35 14.15
M 85.7 20
Q 89.8 16.3 95.45 16.3 101.3 16.3 105.2 20.35 108.5 23.8 108.35 28.6 108.1 33.75 103.9 37.45 99.85 40.85 94.45 40.85 90.05 40.65 86.2 37.6 84 35.8 82.85 33.6 81.5 31.15 81.6 28.55 81.7 23.5 85.7 20 Z"/>
</g>

<g id="Graphic_shape_153_0_Layer2_0_FILL">
<path fill="#FFF3C6" stroke="none" d="
M 95.45 17.6
Q 92.2 17.6 89.45 18.9 86.65 20.15 84.8 22.5 82.45 25.35 82.35 28.8 82.3 31.4 83.45 33.75 84.8 36.4 87.5 38.1 90.65 40.05 94.5 40.05 97.45 40.05 99.85 39 102.95 37.75 105 35.3 107.4 32.45 107.6 28.85 107.65 26.25 106.6 24.05 104.8 20.55 101.05 18.8 98.4 17.6 95.45 17.6 Z"/>
</g>

<g id="Graphic_shape_153_0_Layer1_0_FILL">
<path fill="#000000" fill-opacity="0.08627450980392157" stroke="none" d="
M 101.6 21.3
L 103.4 22.65
Q 106.95 25.95 106.75 30.6
L 106.55 32.3 106.05 33.9
Q 107.4 31.55 107.6 28.85 107.8 24.2 104.25 20.9 100.7 17.6 95.45 17.6 91.25 17.6 87.8 19.85 84.35 22.05 83.05 25.5 84.75 22.65 87.8 21 90.9 19.35 94.6 19.35 97.25 19.35 99.5 20.25 100.6 20.7 101.6 21.3 Z"/>
</g>

<g id="Graphic_shape_153_0_Layer0_0_FILL">
<path fill="#FFC166" stroke="none" d="
M 108.1 20.15
Q 106.95 18.5 105.3 17.25 102.2 15 98.15 14.45 96.1 14.15 94.8 14.45 93.65 14.65 93.75 15
L 94.05 15.15 97.8 15.65 99.8 16.15 101.65 16.9 103.3 17.85 104.75 19
Q 106.2 20.3 107.15 21.75 108.2 23.5 108.7 24.95
L 110 28.8
Q 110.3 28.65 110.4 27.45
L 110.35 26 110 24.1
Q 109.4 21.9 108.1 20.15 Z"/>
</g>

<g id="Graphic_shape_156_0_Layer2_0_FILL">
<path fill="#FFCC00" fill-opacity="0.2" stroke="none" d="
M 97.15 36.3
L 93.55 36
Q 91.65 35.5 90.15 34.45 85.45 31.15 85.25 26.7 85.15 24.85 84.55 24.85
L 84.05 25.4 83.55 26.75
Q 83 29.05 83.6 31.3
L 84.4 33.5 85.75 35.45
Q 89.25 39.6 95.25 39.2
L 98.6 38.7 100.95 37.75 102.1 37 103 36.25 104.05 34.85 104.3 34.35
Q 104.85 33.35 104.6 33.25 104.3 33.05 102.9 34.35 100.9 36.1 97.15 36.3 Z"/>
</g>

<g id="Graphic_shape_156_0_Layer0_0_FILL">
<path fill="#000000" fill-opacity="0.6078431372549019" stroke="none" d="
M 105.75 24.9
L 102.7 25.85 103.1 27 106.15 26.05 105.75 24.9
M 87.75 31.95
L 87.35 30.65 84.05 31.7 84.35 33.05 87.75 31.95
M 98.6 35.05
L 97.45 35.4 98.55 38.75 99.7 38.45 98.6 35.05
M 92.5 18.65
L 91.3 19 92.35 22.2 93.55 21.95 92.5 18.65 Z"/>
</g>

<g id="Graphic_shape_157_0_Layer0_0_FILL">
<path fill="#FFFFFF" stroke="none" d="
M 10.55 7
L 10.75 6.25 10.65 5.55 10.3 4.95 9.65 4.5 9.15 4.4 8.65 4.4 8.15 4.5 7.7 4.75 3.3 1.8 5.55 1.15 0 0 0.35 0.5 2.4 4.5 2.7 2.45 7 5.45 6.9 5.55 6.7 6.3 6.8 7 7.15 7.6 7.8 8 8.45 8.15 9.45 7.95 10.1 7.6 10.55 7
M 7.85 5.85
L 8.4 5.4 9.1 5.4 9.55 5.85 9.5 6.5
Q 9.05 7.3 8.25 6.95
L 7.8 6.5 7.85 5.85 Z"/>
</g>

<g id="Layer0_0_MEMBER_2_MEMBER_3_MEMBER_7_FILL">
<path fill="#FFC166" stroke="none" d="
M 1777.3 229.05
L 1772.8 228.85
Q 1772.55 229.4 1774.9 230.35
L 1777.5 231 1779.25 231.1 1781.3 230.95 1788.05 229.35 1791.35 227.9 1794.4 226 1797.15 223.65 1800.05 220.1 1801.45 217.4 1802.95 213.4
Q 1803.9 209.7 1803.25 207 1802.9 204.55 1802.1 204.35
L 1800.7 212.25
Q 1798.5 218.8 1793.5 222.95 1788.35 227.35 1780.6 228.7
L 1777.3 229.05 Z"/>
</g>

<path id="Layer0_0_MEMBER_3_MEMBER_0_1_STROKES" stroke="#7B0226" stroke-width="1" stroke-linejoin="round" stroke-linecap="round" fill="none" d="
M 1994 213
L 1823.5 213 1823.5 195.6 1994 195.6 1994 213 Z"/>
</defs>

<g transform="matrix( 1, 0, 0, 1, -1741.9,-171.75) ">
<use xlink:href="#Layer0_0_MEMBER_0_FILL"/>
</g>

<g transform="matrix( 1, 0, 0, 1, -1741.9,-171.75) ">
<use xlink:href="#Layer0_0_MEMBER_1_FILL"/>
</g>

<g transform="matrix( -1.7176361083984375, 0, 0, 1.906951904296875, 176.25,16.9) ">
<g transform="matrix( 1, 0, 0, 1, 0,0) ">
<use filter="url(#Filter_1)" xlink:href="#Graphic_shape_53_0_Layer0_0_FILL"/>
</g>

<g transform="matrix( 6.7528076171875, 0, 0, 1, 242.75,0) ">
<use filter="url(#Filter_1)" xlink:href="#Graphic_shape_53_0_Layer0_1_FILL"/>
</g>
</g>

<g transform="matrix( -1.7176513671875, 0, 0, 1.9069671630859375, 176.25,9.6) ">
<g transform="matrix( 1, 0, 0, 1, 0,0) ">
<use filter="url(#Filter_2)" xlink:href="#Graphic_shape_53_0_Layer0_0_FILL"/>
</g>

<g transform="matrix( 6.7528076171875, 0, 0, 1, 242.75,0) ">
<use filter="url(#Filter_2)" xlink:href="#Graphic_shape_53_0_Layer0_1_FILL"/>
</g>
</g>

<g transform="matrix( -1.7116546630859375, 0, 0.139862060546875, 1.588134765625, 175.65,10.75) ">
<g transform="matrix( 1, 0, 0, 1, 0,0) ">
<use filter="url(#Filter_3)" xlink:href="#Graphic_shape_55_0_Layer0_0_FILL"/>
</g>
</g>

<g transform="matrix( 1, 0, 0, 1, -1741.9,-171.75) ">
<use xlink:href="#Layer0_0_MEMBER_2_MEMBER_3_FILL"/>
</g>

<g transform="matrix( 1, 0, 0, 1, -1741.9,-171.75) ">
<use xlink:href="#Layer0_0_MEMBER_2_MEMBER_3_MEMBER_0_FILL"/>
</g>

<g transform="matrix( -1.88543701171875, 0, 0, 1.88543701171875, 214.05,-20.7) ">
<g transform="matrix( 1, 0, 0, 1, 0,0) ">
<use xlink:href="#Graphic_shape_153_0_Layer5_0_FILL"/>
</g>

<g transform="matrix( 1, 0, 0, 1, 0,0) ">
<use xlink:href="#Graphic_shape_153_0_Layer4_0_FILL"/>
</g>

<g transform="matrix( 1, 0, 0, 1, 0,0) ">
<use xlink:href="#Graphic_shape_153_0_Layer3_0_FILL"/>
</g>

<g transform="matrix( 1, 0, 0, 1, 0,0) ">
<use xlink:href="#Graphic_shape_153_0_Layer2_0_FILL"/>
</g>

<g transform="matrix( 1, 0, 0, 1, 0,0) ">
<use xlink:href="#Graphic_shape_153_0_Layer1_0_FILL"/>
</g>

<g transform="matrix( 1, 0, 0, 1, 0,0) ">
<use xlink:href="#Graphic_shape_153_0_Layer0_0_FILL"/>
</g>
</g>

<g transform="matrix( -1.88543701171875, 0, 0, 1.88543701171875, 214.05,-20.7) ">
<g transform="matrix( 1, 0, 0, 1, 0,0) ">
<use xlink:href="#Graphic_shape_156_0_Layer2_0_FILL"/>
</g>

<g transform="matrix( 1, 0, 0, 1, 0,0) ">
<use xlink:href="#Graphic_shape_156_0_Layer0_0_FILL"/>
</g>
</g>

<g transform="matrix( -1.88543701171875, 0, 0, 1.88543701171875, 49,21.65) ">
<g transform="matrix( 1, 0, 0, 1, 0,0) ">
<use filter="url(#Filter_4)" xlink:href="#Graphic_shape_157_0_Layer0_0_FILL"/>
</g>
</g>

<g transform="matrix( -1.8003997802734375, -0.545196533203125, -0.62689208984375, 1.783355712890625, 53.6,26.25) ">
<g transform="matrix( 1, 0, 0, 1, 0,0) ">
<use filter="url(#Filter_5)" xlink:href="#Graphic_shape_157_0_Layer0_0_FILL"/>
</g>
</g>

<g transform="matrix( -1.511688232421875, -1.0721282958984375, -1.23028564453125, 1.48162841796875, 54.5,32.8) ">
<g transform="matrix( 1, 0, 0, 1, 0,0) ">
<use filter="url(#Filter_6)" xlink:href="#Graphic_shape_157_0_Layer0_0_FILL"/>
</g>
</g>

<g transform="matrix( -1.033966064453125, -1.4856414794921875, -1.705474853515625, 0.9904937744140625, 53.6,39.2) ">
<g transform="matrix( 1, 0, 0, 1, 0,0) ">
<use filter="url(#Filter_7)" xlink:href="#Graphic_shape_157_0_Layer0_0_FILL"/>
</g>
</g>

<g transform="matrix( 1, 0, 0, 1, -1741.9,-171.75) ">
<use xlink:href="#Layer0_0_MEMBER_2_MEMBER_3_MEMBER_7_FILL"/>
</g>

<g transform="matrix( 1, 0, 0, 1, -1741.9,-171.75) ">
<use xlink:href="#Layer0_0_MEMBER_3_MEMBER_0_1_STROKES"/>
</g>
</svg>
