<?xml version="1.0" encoding="UTF-8"?>
<!DOCTYPE svg PUBLIC "-//W3C//DTD SVG 1.1//EN" "http://www.w3.org/Graphics/SVG/1.1/DTD/svg11.dtd">
<!-- Creator: CorelDRAW X7 -->
<svg xmlns="http://www.w3.org/2000/svg" xml:space="preserve" width="124.598mm" height="28.8482mm" version="1.1" style="shape-rendering:geometricPrecision; text-rendering:geometricPrecision; image-rendering:optimizeQuality; fill-rule:evenodd; clip-rule:evenodd"
viewBox="0 0 6521298 1509882"
 xmlns:xlink="http://www.w3.org/1999/xlink">
 <defs>
  <style type="text/css">
   <![CDATA[
    .fil2 {fill:#FEFEFE;fill-rule:nonzero}
    .fil0 {fill:#00A852;fill-rule:nonzero}
    .fil1 {fill:#131313;fill-rule:nonzero}
    .fil3 {fill:white;fill-rule:nonzero}
   ]]>
  </style>
 </defs>
 <g id="Layer_x0020_1">
  <metadata id="CorelCorpID_0Corel-Layer"/>
  <g id="_959711456">
   <path class="fil0" d="M289638 775652c0,36119 -8871,67250 -27342,93346 -21752,29472 -50198,44462 -85417,44462 -35684,0 -64157,-14990 -85883,-44462 -18454,-26096 -27928,-57227 -27928,-93346l0 -147287 -63068 0 0 154556c0,53883 17858,98874 53030,135532 34062,36140 75326,54485 123849,54485 49173,0 90421,-18884 124493,-56662 34078,-37229 51334,-81712 51334,-133355l0 -154556 -63068 0 0 147287z"/>
   <polygon class="fil0" points="208712,515527 147376,515527 147376,577230 208712,577230 "/>
   <path class="fil0" d="M525221 627805c-70297,0 -119972,51156 -119972,126178 0,73929 48032,126671 119972,126671 28519,0 48581,-9416 59184,-28274 -1099,43316 -20673,69407 -59682,70543l0 49481c80890,0 121092,-33335 121092,-99538l0 -117208c0,-73379 -46875,-127853 -120594,-127853zm0 196789l0 0c-34042,0 -57479,-31718 -57479,-70611 0,-37783 21799,-69459 54720,-69459 35701,0 59148,28886 59148,72233 0,36685 -22861,67837 -56389,67837z"/>
   <polygon class="fil0" points="1274321,515527 1213508,515527 1213508,577230 1274321,577230 "/>
   <polygon class="fil0" points="1327921,427755 1266548,427755 1266548,489997 1327921,489997 "/>
   <polygon class="fil0" points="1319013,577230 1379836,577230 1379836,515527 1319013,515527 "/>
   <path class="fil0" d="M1424481 756176c0,40615 -15629,61132 -47424,61132l-60876 0c8411,-8861 12881,-31665 12881,-67784l0 -121159 -63095 0 0 127293c0,41133 -15623,61650 -47413,61650l-58055 0 0 -3302c6663,-10526 10013,-31734 10013,-64482l0 -121159 -63053 0 0 123342c0,43964 -15597,65601 -47456,65601l-34041 0 -11687 0 -91064 0 -20601 0 -75358 0 0 -188943 -62560 0 0 212323c0,53307 -25631,78937 -77577,78937l0 53313c75923,0 126739,-32817 136202,-92284l79293 0 20601 0 91064 0 11687 0 353356 0c63565,0 108278,-52224 108278,-132250l0 -120039 -63115 0 0 127811z"/>
   <path class="fil0" d="M1789037 758987c0,20030 -1644,33335 -4439,40034 -6181,12195 -18951,18287 -39667,18287l-31859 0 -21160 0 -15650 0c-23448,0 -39631,-3302 -48042,-9405 -11655,-8364 -17821,-26102 -17821,-53365l0 -232311 -61974 0 0 257308c0,30587 7280,54511 22353,72254 16205,19449 39045,28865 69203,28865l51931 0 21160 0 44708 0c62566,0 93776,-33314 93776,-100585l0 -151704 -62519 0 0 130622z"/>
   <polygon class="fil0" points="1850415,515527 1789644,515527 1789644,577230 1850415,577230 "/>
   <polygon class="fil0" points="3266642,515527 3205274,515527 3205274,577230 3266642,577230 "/>
   <path class="fil0" d="M3785775 758987c0,20030 -1638,33335 -4449,40034 -6155,12195 -18999,18287 -39652,18287l-33575 0 -19423 0 -36386 0 0 -16047c0,-37229 -11713,-67884 -34580,-92870 -22883,-24987 -53051,-37229 -90457,-37229 -37318,0 -67491,12242 -90939,36135 -22883,23887 -34596,54459 -34596,91724 0,6097 0,12195 575,18287l-41881 0 -18392 0 -88788 0c8966,-10557 13410,-31665 13410,-64455l0 -124488 -61991 0 0 127811c0,19476 -2234,33916 -6657,42222 -6736,12818 -18999,18910 -37428,18910l-44723 0 -13263 0 -95592 0 -14419 0 -35276 0c0,-140043 -71401,-244548 -192529,-268975l-7819 59510c80905,16612 138399,98873 138399,192267 0,5568 0,11106 -539,17198l-73672 0c9468,-22746 14488,-42243 14488,-57735 0,-66727 -44651,-107860 -109949,-107860 -65282,0 -110513,41133 -110513,107860 0,16079 5066,34989 14576,57735l-64811 0 -12232 0 -87170 0 -23903 0 -70406 0c2208,-11630 3302,-22746 3302,-34387l0 -260694 -62990 0 0 253425c0,78356 -46916,137808 -112769,137808 -68093,0 -113858,-61080 -113858,-137808l0 -47231 -63089 0 0 54500c0,104453 79806,190017 176947,190017 61393,0 118856,-34424 150663,-92284l92200 0 23903 0 87170 0 12232 0 427645 0 14419 0 95592 0 13263 0 226177 0 18392 0 66994 0c24018,32267 56955,48366 99847,48366 43661,0 77042,-16099 101108,-48366l60315 0 19423 0 46440 0c62482,0 93739,-33314 93739,-100585l0 -257842 -62503 0 0 236760zm-1060103 60038l0 0c-30121,0 -51328,-25583 -51328,-59452 0,-33403 18439,-58400 51328,-58400 30702,0 51324,23333 51324,58400 0,33303 -21747,59452 -51324,59452zm847900 31084l0 0c-10588,13912 -25630,21129 -44587,21129 -38532,0 -63126,-32759 -63126,-72840 0,-19381 5061,-36093 14555,-48874 11180,-15006 26254,-22244 45232,-22244 19465,0 35737,7772 47455,22835 10002,13917 15048,31085 15048,50581 0,19962 -5046,36642 -14577,49413z"/>
   <polygon class="fil0" points="3905767,880654 3967763,880654 3967763,521635 3905767,521635 "/>
   <path class="fil0" d="M4220554 840688c0,53307 -25588,78937 -77498,78937l0 53313c95942,0 140069,-41688 140069,-141723l0 -202850 -62571 0 0 212323z"/>
   <polygon class="fil0" points="4340593,880654 4402547,880654 4402547,521635 4340593,521635 "/>
   <path class="fil0" d="M4607380 637241c-14492,-4977 -25609,-7233 -33450,-7740 -7850,-534 -27362,-1136 -58043,-1136l0 56688c20066,0 39029,1131 56379,4998 56385,12242 84831,54464 84831,127257l-202018 0 0 63346 265018 0 0 -63346c-518,-95005 -37888,-155028 -112717,-180067z"/>
   <path class="fil1" d="M122196 1210158c18287,0 35265,3005 51009,9092 15754,6013 29373,15105 40845,27169 11504,12111 20491,27232 26991,45357 6470,18104 9720,39437 9720,63890 0,21469 -2638,41285 -7919,59441 -5307,18135 -13315,33748 -24024,46922 -10698,13247 -24091,23641 -40070,31220 -16011,7531 -34821,11295 -56552,11295l-122196 0 0 -294386 122196 0zm-4329 239985l0 0c8981,0 17727,-1571 26206,-4554 8432,-2983 15979,-8029 22584,-15063 6606,-6966 11871,-16173 15870,-27389 3972,-11274 5935,-25039 5935,-41232 0,-14849 -1419,-28290 -4166,-40212 -2732,-11965 -7281,-22203 -13656,-30702 -6354,-8547 -14738,-15074 -25216,-19638 -10442,-4449 -23359,-6767 -38695,-6767l-44404 0 0 185557 55542 0z"/>
   <path class="fil1" d="M285676 1356932c764,-13744 4056,-25154 9934,-34198 5783,-9102 13252,-16377 22202,-21846 8997,-5475 19125,-9432 30378,-11792 11258,-2355 22479,-3475 33920,-3475 10306,0 20716,774 31304,2229 10588,1549 20240,4470 28986,8866 8688,4397 15890,10526 21417,18350 5574,7872 8358,18209 8358,31137l0 110890c0,9620 513,18853 1596,27677 1037,8777 2890,15367 5491,19774l-57149 0c-1015,-3313 -1884,-6700 -2528,-10149 -654,-3386 -1131,-6888 -1387,-10468 -9049,9620 -19601,16335 -31743,20177 -12175,3863 -24600,5778 -37287,5778 -9777,0 -18941,-1225 -27394,-3674 -8479,-2486 -15885,-6333 -22223,-11562 -6322,-5265 -11300,-11828 -14848,-19768 -3580,-7992 -5402,-17476 -5402,-28467 0,-12117 2078,-22030 6213,-29938 4067,-7767 9332,-14074 15858,-18753 6470,-4684 13839,-8118 22203,-10431 8363,-2366 16717,-4213 25180,-5611 8489,-1418 16785,-2507 25018,-3271 8180,-827 15461,-2104 21846,-3716 6281,-1701 11310,-4103 15053,-7280 3716,-3094 5417,-7689 5103,-13787 0,-6301 -974,-11357 -2931,-15031 -1979,-3732 -4669,-6605 -7961,-8688 -3308,-2031 -7118,-3413 -11515,-4099 -4323,-649 -9002,-1031 -14026,-1031 -11122,0 -19842,2486 -26254,7385 -6317,5014 -10038,13226 -11122,24772l-56290 0zm130099 43311l0 0c-2361,2156 -5334,3967 -8882,5160 -3580,1199 -7427,2277 -11525,3094 -4072,790 -8401,1455 -12881,2062 -4485,513 -8992,1245 -13482,2051 -4240,822 -8374,1895 -12509,3293 -4088,1350 -7678,3234 -10719,5605 -3025,2319 -5485,5229 -7333,8845 -1863,3538 -2763,8118 -2763,13546 0,5249 900,9635 2763,13194 1848,3606 4365,6443 7563,8516 3161,2051 6825,3506 11075,4307 4245,806 8620,1214 13100,1214 11138,0 19732,-1884 25819,-5746 6050,-3910 10541,-8464 13456,-13802 2910,-5391 4711,-10819 5344,-16293 707,-5548 974,-9971 974,-13226l0 -21820z"/>
   <path class="fil1" d="M569353 1291373l0 39584 790 0c2606,-6606 6202,-12661 10693,-18340 4496,-5637 9625,-10447 15456,-14456 5856,-3957 12037,-7045 18664,-9259 6599,-2229 13461,-3281 20668,-3281 3648,0 7741,659 12242,2057l0 54401c-2596,-519 -5841,-1037 -9468,-1461 -3747,-377 -7327,-581 -10756,-581 -10295,0 -18999,1733 -26206,5349 -7097,3601 -12880,8464 -17245,14681 -4334,6166 -7422,13399 -9301,21611 -1858,8233 -2774,17178 -2774,26819l0 96047 -56332 0 0 -213171 53569 0z"/>
   <path class="fil1" d="M927597 1210158l105912 294386 -64701 0 -21380 -65586 -105908 0 -22228 65586 -62707 0 107101 -294386 63911 0zm3559 180611l0 0 -35716 -108027 -775 0 -36941 108027 73432 0z"/>
   <polygon class="fil1" points="1110066,1210158 1110066,1504544 1053733,1504544 1053733,1210158 "/>
   <polygon class="fil1" points="1358471,1210158 1424716,1412610 1425486,1412610 1488167,1210158 1575845,1210158 1575845,1504544 1517513,1504544 1517513,1295879 1516744,1295879 1447342,1504544 1399337,1504544 1329857,1297941 1329062,1297941 1329062,1504544 1270730,1504544 1270730,1210158 "/>
   <path class="fil1" d="M1622249 1356932c774,-13744 4092,-25154 9912,-34198 5800,-9102 13247,-16377 22239,-21846 8940,-5475 19104,-9432 30320,-11792 11284,-2355 22532,-3475 33958,-3475 10326,0 20731,774 31335,2229 10562,1549 20182,4470 28959,8866 8714,4397 15869,10526 21412,18350 5574,7872 8322,18209 8322,31137l0 110890c0,9620 565,18853 1638,27677 1052,8777 2868,15367 5511,19774l-57117 0c-1031,-3313 -1931,-6700 -2544,-10149 -727,-3386 -1198,-6888 -1434,-10468 -9018,9620 -19601,16335 -31749,20177 -12142,3863 -24583,5778 -37312,5778 -9740,0 -18910,-1225 -27373,-3674 -8448,-2486 -15859,-6333 -22213,-11562 -6322,-5265 -11284,-11828 -14807,-19768 -3616,-7992 -5417,-17476 -5417,-28467 0,-12117 2089,-22030 6187,-29938 4040,-7767 9337,-14074 15827,-18753 6516,-4684 13927,-8118 22187,-10431 8400,-2366 16769,-4213 25227,-5611 8494,-1418 16806,-2507 24986,-3271 8202,-827 15456,-2104 21868,-3716 6317,-1701 11326,-4103 15084,-7280 3663,-3094 5427,-7689 5129,-13787 0,-6301 -1015,-11357 -2968,-15031 -1968,-3732 -4679,-6605 -7960,-8688 -3329,-2031 -7129,-3413 -11447,-4099 -4402,-649 -9102,-1031 -14126,-1031 -11101,0 -19811,2486 -26185,7385 -6354,5014 -10086,13226 -11117,24772l-56332 0zm130135 43311l0 0c-2371,2156 -5381,3967 -8934,5160 -3565,1199 -7432,2277 -11504,3094 -4083,790 -8380,1455 -12886,2062 -4507,513 -9013,1245 -13493,2051 -4229,822 -8354,1895 -12520,3293 -4077,1350 -7646,3234 -10698,5605 -3062,2319 -5490,5229 -7359,8845 -1826,3538 -2747,8118 -2747,13546 0,5249 921,9635 2747,13194 1869,3606 4355,6443 7563,8516 3146,2051 6888,3506 11107,4307 4234,806 8615,1214 13074,1214 11122,0 19716,-1884 25834,-5746 6056,-3910 10536,-8464 13462,-13802 2910,-5391 4716,-10819 5339,-16293 690,-5548 1015,-9971 1015,-13226l0 -21820z"/>
   <path class="fil1" d="M1905915 1291373l0 29686 1193 0c7129,-12362 16403,-21312 27734,-26991 11379,-5663 23035,-8447 34921,-8447 15074,0 27473,2125 37113,6406 9667,4245 17251,10143 22810,17701 5563,7579 9483,16764 11692,27598 2214,10897 3355,22914 3355,36140l0 131078 -56285 0 0 -120375c0,-17622 -2664,-30743 -7982,-39337 -5265,-8699 -14665,-13054 -28148,-13054 -15351,0 -26488,4737 -33313,14252 -6893,9505 -10306,25112 -10306,46749l0 111765 -56369 0 0 -213171 53585 0z"/>
   <path class="fil1" d="M2143926 1210158l0 110901 1204 0c7170,-12362 16293,-21312 27373,-26991 11122,-5663 21914,-8447 32539,-8447 15094,0 27431,2125 37134,6406 9599,4245 17246,10143 22778,17701 5559,7579 9473,16764 11703,27598 2230,10897 3339,22914 3339,36140l0 131078 -56253 0 0 -120375c0,-17622 -2659,-30743 -7982,-39337 -5281,-8699 -14707,-13054 -28195,-13054 -15330,0 -26468,4737 -33293,14252 -6909,9505 -10347,25112 -10347,46749l0 111765 -56285 0 0 -294386 56285 0z"/>
   <path class="fil1" d="M2320491 1356932c811,-13744 4103,-25154 9960,-34198 5752,-9102 13200,-16377 22197,-21846 8966,-5475 19109,-9432 30372,-11792 11190,-2355 22543,-3475 33890,-3475 10316,0 20768,774 31324,2229 10630,1549 20240,4470 28991,8866 8709,4397 15859,10526 21375,18350 5574,7872 8385,18209 8385,31137l0 110890c0,9620 481,18853 1591,27677 1052,8777 2879,15367 5522,19774l-57144 0c-1052,-3313 -1916,-6700 -2559,-10149 -655,-3386 -1136,-6888 -1393,-10468 -9038,9620 -19553,16335 -31748,20177 -12112,3863 -24573,5778 -37224,5778 -9834,0 -18999,-1225 -27431,-3674 -8478,-2486 -15905,-6333 -22223,-11562 -6333,-5265 -11273,-11828 -14890,-19768 -3543,-7992 -5349,-17476 -5349,-28467 0,-12117 2036,-22030 6160,-29938 4098,-7767 9400,-14074 15880,-18753 6448,-4684 13891,-8118 22181,-10431 8385,-2366 16769,-4213 25248,-5611 8448,-1418 16770,-2507 24961,-3271 8201,-827 15455,-2104 21809,-3716 6354,-1701 11379,-4103 15074,-7280 3711,-3094 5454,-7689 5150,-13787 0,-6301 -989,-11357 -2920,-15031 -2000,-3732 -4700,-6605 -7961,-8688 -3303,-2031 -7113,-3413 -11515,-4099 -4354,-649 -9033,-1031 -14047,-1031 -11122,0 -19889,2486 -26227,7385 -6307,5014 -10065,13226 -11117,24772l-56322 0zm130109 43311l0 0c-2366,2156 -5323,3967 -8908,5160 -3564,1199 -7364,2277 -11488,3094 -4146,790 -8432,1455 -12902,2062 -4506,513 -8966,1245 -13503,2051 -4208,822 -8364,1895 -12488,3293 -4057,1350 -7647,3234 -10672,5605 -3041,2319 -5512,5229 -7370,8845 -1858,3538 -2763,8118 -2763,13546 0,5249 905,9635 2763,13194 1858,3606 4381,6443 7563,8516 3198,2051 6852,3506 11081,4307 4229,806 8604,1214 13089,1214 11128,0 19711,-1884 25804,-5746 6097,-3910 10567,-8464 13456,-13802 2931,-5391 4710,-10819 5349,-16293 680,-5548 989,-9971 989,-13226l0 -21820z"/>
   <polygon class="fil1" points="2608548,1210158 2608548,1504544 2552179,1504544 2552179,1210158 "/>
   <path class="fil1" d="M2896930 1210158c17738,0 32796,2691 45211,8019 12488,5380 22521,12493 30377,21249 7809,8804 13456,18853 17063,30090 3559,11295 5322,22966 5322,35046 0,11829 -1763,23427 -5322,34858 -3607,11425 -9254,21511 -17063,30283 -7856,8819 -17889,15911 -30377,21239 -12415,5360 -27473,8039 -45211,8039l-65449 0 0 105563 -62299 0 0 -294386 127748 0zm-17062 138531l0 0c7149,0 14037,-560 20668,-1633 6590,-1073 12405,-3240 17450,-6438 5025,-3156 9060,-7594 12064,-13357 3094,-5788 4580,-13341 4580,-22699 0,-9285 -1486,-16884 -4580,-22637 -3004,-5788 -7039,-10258 -12064,-13456 -5045,-3130 -10860,-5249 -17450,-6354 -6631,-1099 -13519,-1690 -20668,-1690l-48387 0 0 88264 48387 0z"/>
   <path class="fil1" d="M3166716 1504544l0 -29666 -1193 0c-7150,12362 -16424,21281 -27766,26803 -11399,5474 -23055,8201 -34899,8201 -15095,0 -27457,-2088 -37098,-6160 -9672,-4098 -17256,-10002 -22836,-17555 -5558,-7521 -9426,-16748 -11703,-27619 -2250,-10855 -3349,-22872 -3349,-36061l0 -131114 56332 0 0 120431c0,17591 2622,30692 7945,39364 5297,8631 14660,12970 28143,12970 15340,0 26494,-4747 33355,-14231 6851,-9468 10306,-25007 10306,-46770l0 -111764 56332 0 0 213171 -53569 0z"/>
   <path class="fil1" d="M3319520 1210158l0 107227 774 0c6909,-11028 16204,-19104 27944,-24118 11828,-5113 24071,-7646 36710,-7646 10332,0 20481,2193 30551,6573 10070,4397 19098,11143 27216,20214 8002,9065 14576,20653 19622,34800 4977,14194 7495,31026 7495,50512 0,19533 -2518,36402 -7495,50528 -5046,14147 -11620,25803 -19622,34868 -8118,9081 -17146,15817 -27216,20182 -10070,4423 -20219,6584 -30551,6584 -15052,0 -28577,-2465 -40479,-7406 -11880,-4941 -20893,-13399 -26991,-25133l-774 0 0 27201 -53517 0 0 -294386 56333 0zm91231 162036l0 0c-1863,-8217 -4783,-15513 -8719,-21846 -4009,-6338 -8945,-11331 -14854,-15094 -6008,-3664 -13195,-5501 -21653,-5501 -8243,0 -15372,1837 -21469,5501 -6077,3763 -11122,8756 -15095,15094 -3883,6333 -6866,13629 -8667,21846 -1847,8223 -2816,16895 -2816,25955 0,8777 969,17293 2816,25583 1801,8249 4784,15540 8667,21857 3973,6317 9018,11331 15095,15027 6097,3731 13226,5542 21469,5542 8458,0 15645,-1811 21653,-5542 5909,-3696 10845,-8710 14854,-15027 3936,-6317 6856,-13608 8719,-21857 1869,-8290 2769,-16806 2769,-25583 0,-9060 -900,-17732 -2769,-25955z"/>
   <polygon class="fil1" points="3563487,1210158 3563487,1504544 3507181,1504544 3507181,1210158 "/>
   <path class="fil1" d="M3609487 1258352l0 -48194 56390 0 0 48194 -56390 0zm56390 33021l0 0 0 213171 -56390 0 0 -213171 56390 0z"/>
   <path class="fil1" d="M3757695 1451582c2492,4522 5705,8217 9741,11070 3956,2957 8520,5061 13660,6463 5166,1340 10489,2015 16079,2015 3941,0 8107,-429 12467,-1413 4375,-947 8327,-2517 11917,-4548 3580,-2067 6564,-4815 8929,-8249 2382,-3428 3580,-7772 3580,-13021 0,-8741 -5616,-15351 -16874,-19727 -11263,-4470 -26939,-8803 -47011,-13268 -8238,-1874 -16267,-4171 -23971,-6694 -7819,-2664 -14796,-6108 -20825,-10400 -6145,-4208 -11054,-9614 -14697,-16036 -3727,-6459 -5590,-14357 -5590,-23715 0,-13765 2570,-25039 7730,-33795 5198,-8793 11970,-15749 20434,-20815 8526,-5088 18030,-8668 28598,-10772 10582,-2072 21396,-3056 32497,-3056 11122,0 21898,1052 32329,3281 10453,2214 19811,5909 28012,11180 8176,5208 14985,12116 20412,20789 5459,8646 8673,19580 9704,32753l-53517 0c-811,-11242 -4914,-18889 -12341,-22877 -7380,-3972 -16147,-5972 -26149,-5972 -3197,0 -6652,189 -10326,602 -3716,429 -7066,1330 -10070,2659 -3130,1429 -5616,3418 -7809,6040 -2104,2596 -3177,6108 -3177,10489 0,5244 1848,9494 5600,12776 3627,3323 8526,5982 14430,8013 5983,2057 12771,3962 20454,5568 7668,1686 15487,3486 23380,5381 8238,1931 16204,4250 24086,7029 7705,2748 14687,6406 20711,10902 6144,4559 11085,10185 14728,16885 3716,6757 5517,15084 5517,24976 0,14048 -2701,25766 -8029,35261 -5496,9483 -12562,17125 -21250,22866 -8782,5784 -18784,9824 -29990,12159 -11201,2334 -22684,3501 -34303,3501 -11912,0 -23505,-1225 -34899,-3674 -11342,-2486 -21517,-6584 -30378,-12404 -8892,-5779 -16126,-13399 -21762,-22893 -5784,-9437 -8809,-21376 -9432,-35622l53579 0c0,6359 1241,11755 3826,16293z"/>
   <path class="fil1" d="M3979633 1210158l0 110901 1204 0c7170,-12362 16272,-21312 27373,-26991 11091,-5663 21893,-8447 32555,-8447 15094,0 27420,2125 37077,6406 9688,4245 17266,10143 22793,17701 5543,7579 9432,16764 11677,27598 2261,10897 3402,22914 3402,36140l0 131078 -56332 0 0 -120375c0,-17622 -2659,-30743 -7945,-39337 -5255,-8699 -14660,-13054 -28185,-13054 -15366,0 -26441,4737 -33292,14252 -6873,9505 -10327,25112 -10327,46749l0 111765 -56306 0 0 -294386 56306 0z"/>
   <path class="fil1" d="M4218879 1453398c8463,8547 20627,12760 36496,12760 11347,0 21140,-2920 29305,-8855 8191,-5857 13257,-12143 15105,-18759l49607 0c-7961,25594 -20135,43881 -36491,54831 -16377,10996 -36255,16507 -59499,16507 -16147,0 -30739,-2622 -43692,-8008 -12897,-5370 -23888,-12969 -32927,-22882 -8934,-9877 -15906,-21763 -20778,-35491 -4978,-13760 -7359,-28823 -7359,-45352 0,-15885 2507,-30786 7568,-44525 5004,-13728 12106,-25635 21344,-35627 9290,-10049 20307,-17915 33162,-23751 12776,-5742 27054,-8625 42682,-8625 17361,0 32623,3475 45608,10478 12970,7045 23594,16481 31922,28252 8332,11887 14346,25285 18056,40448 3711,15100 4957,30901 3973,47387l-147999 0c775,18973 5391,32712 13917,41212zm63629 -112136l0 0c-6705,-7704 -16979,-11509 -30697,-11509 -8976,0 -16487,1565 -22433,4726 -6008,3140 -10719,7081 -14299,11724 -3585,4679 -6076,9614 -7557,14854 -1419,5234 -2251,9865 -2560,14000l91667 0c-2659,-14817 -7359,-26070 -14121,-33795z"/>
   <path class="fil1" d="M4439791 1291373l0 39584 770 0c2690,-6606 6275,-12661 10802,-18340 4439,-5637 9636,-10447 15409,-14456 5867,-3957 12017,-7045 18701,-9259 6563,-2229 13456,-3281 20626,-3281 3654,0 7799,659 12221,2057l0 54401c-2627,-519 -5736,-1037 -9468,-1461 -3710,-377 -7322,-581 -10755,-581 -10290,0 -18978,1733 -26149,5349 -7128,3601 -12880,8464 -17266,14681 -4392,6166 -7422,13399 -9311,21611 -1827,8233 -2795,17178 -2795,26819l0 96047 -56348 0 0 -213171 53563 0z"/>
   <path class="fil1" d="M4588020 1451582c2465,4522 5705,8217 9740,11070 3905,2957 8458,5061 13614,6463 5239,1340 10541,2015 16073,2015 4020,0 8139,-429 12535,-1413 4386,-947 8332,-2517 11881,-4548 3512,-2067 6563,-4815 8950,-8249 2381,-3428 3585,-7772 3585,-13021 0,-8741 -5626,-15351 -16853,-19727 -11274,-4470 -26939,-8803 -47037,-13268 -8201,-1874 -16183,-4171 -24060,-6694 -7819,-2664 -14681,-6108 -20779,-10400 -6076,-4208 -11012,-9614 -14660,-16036 -3710,-6459 -5589,-14357 -5589,-23715 0,-13765 2622,-25039 7751,-33795 5150,-8793 12001,-15749 20459,-20815 8395,-5088 17989,-8668 28551,-10772 10536,-2072 21396,-3056 32518,-3056 11086,0 21878,1052 32293,3281 10468,2214 19831,5909 27991,11180 8238,5208 15048,12116 20433,20789 5428,8646 8652,19580 9725,32753l-53553 0c-775,-11242 -4941,-18889 -12279,-22877 -7390,-3972 -16147,-5972 -26232,-5972 -3141,0 -6532,189 -10259,602 -3726,429 -7097,1330 -10153,2659 -3041,1429 -5648,3418 -7757,6040 -2057,2596 -3156,6108 -3156,10489 0,5244 1863,9494 5558,12776 3680,3323 8526,5982 14451,8013 6050,2057 12818,3962 20501,5568 7668,1686 15430,3486 23369,5381 8207,1931 16215,4250 24003,7029 7793,2748 14770,6406 20826,10902 6097,4559 10970,10185 14681,16885 3732,6757 5579,15084 5579,24976 0,14048 -2769,25766 -8133,35261 -5428,9483 -12520,17125 -21208,22866 -8756,5784 -18722,9824 -29995,12159 -11264,2334 -22663,3501 -34282,3501 -11887,0 -23542,-1225 -34921,-3674 -11399,-2486 -21553,-6584 -30393,-12404 -8872,-5779 -16100,-13399 -21794,-22893 -5705,-9437 -8840,-21376 -9290,-35622l53553 0c0,6359 1272,11755 3763,16293z"/>
  </g>
  <g id="_959723456">
   <path class="fil2" d="M5622084 4847c-739564,241303 -701613,915961 -701613,915961l0 584458 1403247 0 0 -584458c0,0 37930,-674658 -701634,-915961z"/>
   <path class="fil0" d="M5622084 32324c293920,97911 496832,275847 603174,528937 80372,191304 72474,356454 72396,358092l-58 712 0 743 0 558357 -1351034 0 0 -558357 0 -743 -21 -712c-104,-1638 -8227,-164904 71506,-355977 106054,-254205 309260,-432838 604037,-531052zm0 -27477l0 0c-739564,241303 -701613,915961 -701613,915961l0 584458 1403247 0 0 -584458c0,0 37930,-674658 -701634,-915961z"/>
   <path class="fil0" d="M5623529 27959c147559,49157 272303,118422 373516,207179 101297,88829 179031,197155 232469,324338 40379,96121 58593,185672 66690,251394 8097,65733 6087,107866 6050,108682l0 162 -42 518 0 576 0 558357 0 4616 -4616 0 -1351034 0 -4616 0 0 -4616 0 -558357 0 -743 10 0 -10 -440 -5 0c-68,-1088 -3711,-74195 17434,-179475 10651,-53035 27588,-114256 54417,-178543 53296,-127760 131025,-236541 232447,-325710 101354,-89107 226397,-158624 374401,-207938l1444 -481 1445 481zm367455 214108c-99972,-87667 -223172,-156163 -368900,-204891 -146135,48874 -269623,117616 -369753,205650 -100370,88244 -177287,195889 -230029,322319 -26604,63754 -43384,124357 -53914,176806 -20899,104049 -17309,176057 -17246,177130l0 147 21 711 16 126 0 743 0 553740 1341801 0 0 -553740 0 -743 15 -361 58 -712 10 0c126,-2910 1780,-43708 -6018,-107002 -8019,-65072 -26055,-153761 -66042,-248944 -52899,-125901 -129816,-233107 -230019,-320979zm-368900 -232353c-734701,240607 -697091,908969 -697012,910895l16 199 0 579842 1394014 0 0 -579842 16 -199c78,-1926 37668,-670288 -697034,-910895zm-706224 911094c-465,-9081 -34156,-679243 704801,-920342l1423 -466 1424 466c738957,241099 705282,911261 704821,920342l6 0 0 584458 0 4616 -4617 0 -1403247 0 -4616 0 0 -4616 0 -584458 5 0z"/>
   <path class="fil1" d="M5622105 192392c220923,84533 375375,224409 459536,416419 67935,154897 65763,291716 65481,302639l-231 3088 0 6270 0 347284 -1049556 0 0 -347284 0 -4988 -267 -4951c-68,-1282 -4328,-135039 60106,-289450 82837,-198500 239079,-342631 464931,-429027z"/>
   <path class="fil0" d="M6207987 797754c-84481,0 -161105,-34371 -216589,-89845l31 -26c-55505,-55500 -89881,-132098 -89881,-216526 0,-84469 34371,-161078 89850,-216552l47 0c55484,-55468 132082,-89834 216542,-89834 84480,0 161083,34366 216552,89834 55468,55469 89834,132083 89834,216552 0,84475 -34360,161078 -89834,216563 -55469,55463 -132072,89834 -216552,89834zm-199616 -106813c51136,51135 121751,82805 199616,82805 77859,0 148459,-31670 199583,-82800 51125,-51129 82801,-121735 82801,-199589 0,-77854 -31676,-148459 -82801,-199584 -51124,-51124 -121724,-82800 -199583,-82800 -77881,0 -148507,31676 -199637,82780l21 20c-51140,51136 -82821,121730 -82821,199584 0,77886 31665,148491 82769,199584l52 0z"/>
   <path class="fil0" d="M6207981 804679c-42336,0 -82774,-8469 -119704,-23783 -38349,-15906 -72882,-39207 -101773,-68093l-5338 -5344 99 -83c-26468,-27761 -47916,-60389 -62854,-96367 -15324,-36920 -23788,-77346 -23788,-119652 0,-42331 8469,-82774 23783,-119693 15906,-38344 39218,-72872 68098,-101752l2031 -2031 73 0c28462,-27944 62263,-50528 99701,-66057 36909,-15314 77346,-23778 119672,-23778 42337,0 82785,8464 119699,23778 38349,15906 72877,39212 101752,68088 28876,28880 52182,63408 68088,101757 15314,36914 23778,77357 23778,119688 0,42337 -8464,82779 -23778,119694 -15906,38349 -39212,72877 -68088,101757 -28880,28881 -63403,52182 -101757,68093 -36914,15315 -77357,23778 -119694,23778zm-114407 -36543c35234,14613 73887,22694 114407,22694 40521,0 79173,-8076 114397,-22689 36622,-15194 69622,-37475 97267,-65120 27635,-27640 49926,-60645 65115,-97267 14613,-35224 22689,-73876 22689,-114397 0,-40515 -8076,-79167 -22689,-114392 -15189,-36621 -37480,-69626 -65115,-97266 -27635,-27635 -60640,-49926 -97261,-65115 -35224,-14613 -73882,-22689 -114403,-22689 -40510,0 -79157,8076 -114376,22689 -36611,15189 -69621,37480 -97261,65115l-2031 2031 -31 0c-26719,27226 -48298,59514 -63116,95230 -14613,35230 -22694,73882 -22694,114397 0,40495 8081,79126 22700,114356 15199,36611 37495,69621 65151,97277l3507 3506c26912,26039 58672,47095 93744,61640zm-80309 -82089c25432,25432 55793,45933 89479,59902 32408,13441 67962,20873 105237,20873 37276,0 72819,-7427 105222,-20867 33686,-13970 64042,-34471 89474,-59897 25431,-25437 45927,-55788 59902,-89479 13435,-32397 20867,-67951 20867,-105222 0,-37270 -7432,-72824 -20867,-105222 -13975,-33685 -34476,-64042 -59902,-89468 -25432,-25431 -55788,-45927 -89468,-59902 -32398,-13435 -67952,-20867 -105228,-20867 -37281,0 -72840,7427 -105248,20862 -32089,13310 -61147,32518 -85794,56233l-3674 3674c-25437,25437 -45943,55793 -59917,89473 -13441,32398 -20873,67947 -20873,105217 0,37287 7427,72851 20862,105254 13608,32811 33382,62445 57845,87406l52 0 2031 2030zm84182 72662c-34507,-14309 -65664,-35108 -91912,-60843l-42 0 -2036 -2031c-26688,-26677 -48210,-58552 -62880,-93928 -14137,-34098 -21951,-71447 -21951,-110550 0,-39086 7819,-76425 21961,-110513 13692,-33005 33330,-62953 57531,-88463l-94 -74 5454 -5448c26687,-26672 58572,-48183 93958,-62859 34104,-14137 71454,-21951 110545,-21951 39092,0 76436,7819 110524,21956 35408,14692 67287,36203 93959,62875 26667,26666 48189,58551 62875,93959 14137,34088 21956,71432 21956,110518 0,39087 -7819,76431 -21956,110519 -14692,35413 -36208,67297 -62875,93969 -26667,26662 -58546,48183 -93964,62870 -34093,14147 -71427,21956 -110519,21956 -39091,0 -76435,-7814 -110534,-21962z"/>
   <path class="fil1" d="M5231584 1241478l0 74567 21344 -2277c17272,-1873 34622,-2768 51543,-2768 129853,0 257968,53453 298850,85359l8013 6244 11588 9055 11582 -9055 8061 -6244c40803,-31906 168918,-85359 298766,-85359 16936,0 34282,895 51527,2768l19753 2277 0 -74567 -781027 0z"/>
   <path class="fil2" d="M5945847 1029223c-8583,0 -15529,6841 -15529,15367 0,8547 6946,15455 15529,15455l81649 0c8479,0 15403,-6908 15403,-15455 0,-8526 -6924,-15367 -15403,-15367l-81649 0z"/>
   <path class="fil2" d="M6043109 1132707c0,-8505 -6888,-15387 -15404,-15387l-100433 0c-8541,0 -15502,6882 -15502,15387 0,8516 6961,15466 15502,15466l100433 0c8516,0 15404,-6950 15404,-15466z"/>
   <path class="fil2" d="M6027705 1161379l-81858 0c-8583,0 -15529,6934 -15529,15372 0,8667 6820,15492 15529,15492l81858 0c8516,0 15404,-6951 15404,-15492 0,-8438 -6888,-15372 -15404,-15372z"/>
   <path class="fil2" d="M6043025 1088774c0,-8547 -6888,-15586 -15424,-15586l-111414 0c-8620,0 -15587,7039 -15587,15586 0,8495 6967,15393 15587,15393l111414 0c8536,0 15424,-6898 15424,-15393z"/>
   <path class="fil2" d="M5198166 1044590c0,8547 6908,15455 15387,15455l81686 0c8557,0 15529,-6908 15529,-15455 0,-8526 -6972,-15367 -15529,-15367l-81686 0c-8479,0 -15387,6841 -15387,15367z"/>
   <path class="fil2" d="M5198061 1088774c0,8495 6909,15393 15388,15393l111461 0c8583,0 15597,-6898 15597,-15393 0,-8547 -7014,-15586 -15597,-15586l-111461 0c-8479,0 -15388,7039 -15388,15586z"/>
   <path class="fil2" d="M5198014 1132707c0,8516 6851,15466 15367,15466l100433 0c8583,0 15550,-6950 15550,-15466 0,-8505 -6967,-15387 -15550,-15387l-100433 0c-8516,0 -15367,6882 -15367,15387z"/>
   <path class="fil2" d="M5198014 1176751c0,8541 6851,15492 15367,15492l81858 0c8688,0 15529,-6825 15529,-15492 0,-8438 -6972,-15372 -15529,-15372l-81858 0c-8516,0 -15367,6934 -15367,15372z"/>
   <path class="fil2" d="M5760191 536882l-487 7871c-57,864 -4025,73060 24181,101438 3187,-11839 10598,-29566 27472,-42127 -19564,-86836 -96926,-151694 -189644,-151694 -92844,0 -170222,65204 -189587,152196 6291,2895 24322,13211 28414,40186 11923,-8076 31566,-31011 23532,-92190l-2350 -18376 14430 11672c911,701 84527,66486 204404,25651 -9709,-5365 -21993,-13106 -31251,-21762l-13750 -12865 104636 0z"/>
   <path class="fil2" d="M5831911 589058c288,-4360 659,-8698 659,-13152 0,-115465 -93608,-209037 -209057,-209037 -115459,0 -209067,93572 -209067,209037 0,4454 418,8792 628,13152 28273,-88165 110869,-156598 208439,-156598 97597,0 180224,68433 208398,156598z"/>
   <path class="fil2" d="M5856311 671230c0,-30341 -13330,-54929 -29744,-54929 -4302,0 -8453,1837 -12184,4998 0,-115 -27,-220 -27,-372 -16099,16252 -17973,38721 -17973,38988l-837 11629 -10196 -5720c-38558,-21517 -41012,-90452 -40730,-114099l-48319 0c12949,8374 25494,14048 25646,14095l15681 7175 -15937 6480c-107039,43713 -189902,5862 -221315,-12959 5354,83899 -42547,96288 -44745,96858l-9096 2183 0 -9385c0,-22359 -11012,-32340 -17246,-36312 0,209 -84,361 -84,439 -3423,-2486 -7034,-3998 -10933,-3998 -16377,0 -29661,24588 -29661,54929 0,30184 13284,54752 29661,54752 7782,0 14770,-5632 20087,-14613 26567,75813 98492,130198 183354,130198 85338,0 157744,-55018 183981,-131517 5328,9861 12761,15932 20873,15932 16414,0 29744,-24568 29744,-54752zm-265797 22972l0 0c4668,-13812 17240,-22972 31199,-22972 13938,0 26436,9133 31204,22789 1256,3768 -696,7840 -4428,9164 -3784,1314 -7913,-628 -9217,-4464 -2711,-7794 -9834,-13143 -17559,-13143 -7773,0 -14844,5349 -17528,13279 -1047,2978 -3837,4899 -6784,4899 -858,0 -1617,-220 -2371,-429 -3784,-1293 -5820,-5444 -4516,-9123zm137457 -49895l0 0c0,16073 -12990,29148 -29053,29148 -16094,0 -29121,-13075 -29121,-29148 0,-16120 13027,-29111 29121,-29111 16063,0 29053,12991 29053,29111zm-183395 29148l0 0c-16021,0 -29116,-13075 -29116,-29148 0,-16120 13095,-29111 29116,-29111 16094,0 29111,12991 29111,29111 0,16073 -13017,29148 -29111,29148zm77137 84553l0 0c27472,0 52909,-2559 74693,-15953 -15257,25332 -42965,42301 -74693,42301 -31670,0 -59400,-16995 -74635,-42301 21699,13394 47241,15953 74635,15953z"/>
   <g>
    <path class="fil2" d="M5912084 881041c-22951,-11928 -87678,-40913 -149355,-25285 -12132,-15796 -16727,-21155 -16727,-21155 0,0 -8003,-7270 -17863,-2737 -12112,4119 -13033,14775 -13033,14775 0,49057 -38474,89143 -86741,92221l-13796 0c-48288,-3078 -86642,-43164 -86642,-92221 0,0 -989,-10656 -13116,-14775 -9840,-4533 -17900,2737 -17900,2737 0,0 -4538,5359 -16644,21155 -61728,-15628 -126477,13357 -149391,25285 201123,0 290580,94796 290580,94796 0,0 88783,-94796 290628,-94796z"/>
   </g>
   <path class="fil2" d="M6038409 1020242c0,0 -11112,-20491 -29300,-24003l0 20679 19120 0c0,0 5537,534 10180,3324z"/>
   <path class="fil2" d="M5202704 1020242c0,0 11116,-20491 29299,-24003l0 20679 -19099 0c0,0 -5548,534 -10200,3324z"/>
   <g>
    <path class="fil2" d="M5946732 1016583l51988 0 0 -116532c-227538,-32869 -340977,62513 -369460,88253l0 399670c37171,-29069 192424,-106938 369460,-87955l0 -95152 -51988 0c-15759,0 -28148,-12389 -28148,-28116 0,-6072 2036,-11709 5396,-16315 -13561,-2035 -23971,-13670 -23971,-27729 0,-6840 2528,-13063 6736,-17915 -10447,-4172 -17858,-14221 -17858,-26018 0,-15586 12656,-28237 28164,-28237l6573 0c-3171,-4517 -5040,-9981 -5040,-15947 0,-15367 12629,-28007 28148,-28007z"/>
    <path class="fil2" d="M5244025 900051l0 116532 52030 0c15513,0 28169,12640 28169,28007 0,5966 -1874,11430 -5061,15947l6547 0c15555,0 28206,12651 28206,28237 0,11797 -7432,21846 -17843,26018 4099,4852 6763,11075 6763,17915 0,14059 -10447,25694 -24034,27729 3386,4606 5422,10243 5422,16315 0,15727 -12363,28116 -28169,28116l-52030 0 0 95152c177120,-18983 332242,58886 369497,87955l0 -399670c-24416,-25740 -141142,-121122 -369497,-88253z"/>
   </g>
   <g>
    <path class="fil2" d="M5543969 841824c-152,1591 -335,3166 -335,4815 0,42897 34800,77765 77739,77765 42944,0 77718,-34868 77718,-77765 0,-3161 36,-1141 -257,-4177 -17120,7364 -34879,11164 -53558,12807 -7851,885 -15838,1372 -23903,1372 -27285,0 -53397,-5292 -77404,-14817z"/>
   </g>
   <path class="fil3" d="M6207981 771067c-154258,0 -279751,-125483 -279751,-279710 0,-154227 125493,-279704 279751,-279704 154264,0 279710,125477 279710,279704 0,154227 -125446,279710 -279710,279710z"/>
  </g>
 </g>
</svg>
