<?xml version="1.0" encoding="utf-8"?>
<!-- Generator: Adobe Illustrator 21.0.0, SVG Export Plug-In . SVG Version: 6.00 Build 0)  -->
<svg version="1.1" id="Layer_1" xmlns="http://www.w3.org/2000/svg" xmlns:xlink="http://www.w3.org/1999/xlink" x="0px" y="0px"
	 viewBox="0 0 59 59" style="enable-background:new 0 0 59 59;" xml:space="preserve">
<style type="text/css">
	.st0{fill:#0199DE;}
</style>
<g>
	<path class="st0" d="M32.2,43.1h-3.8c-3.1,0-4.8-1.8-5.2-5.3c-0.5-4.5-1.2-11-1.9-19.7c0.7-0.9,1.3-1.7,1.9-2.4L24.9,36
		c0.1,1.6,0.6,2.6,1.4,3.2c0.6,0.4,1.5,0.7,2.9,0.7c0.3,0,0.8,0,1.5,0s1.2-0.1,1.6-0.1V43.1z"/>
	<path class="st0" d="M37.6,35.7c0,5-1.8,7.5-5.4,7.5h-2v-3.4c4.1,0,6.1-0.7,6.1-2.1c0-0.3-0.3-1.1-1-2.2c-0.6-1.1-0.9-1.8-0.9-2
		c0-0.1,0.6-1.2,1.9-3.2C37.2,32.1,37.6,33.9,37.6,35.7z M37.7,22.3l-1.9,2.9l-2.8-2l1.8-2.9L37.7,22.3z"/>
</g>
</svg>
