<svg xmlns="http://www.w3.org/2000/svg" width="768" height="639" viewBox="128 64.512 768 638.976"><path d="M183.296 594.432c-29.184 0-55.296 24.576-55.296 53.76s26.112 55.296 55.296 55.296 53.76-26.112 53.76-55.296-24.576-53.76-53.76-53.76zm0-264.192C154.112 330.24 128 354.816 128 384s26.112 53.76 55.296 53.76 53.76-24.576 53.76-53.76-24.576-53.76-53.76-53.76zm196.608-161.28h465.4c27.647 0 50.688-21.504 50.688-49.152S872.96 69.12 845.313 69.12h-465.4c-27.648 0-50.688 23.04-50.688 50.688s23.04 49.152 50.688 49.152zM183.296 64.512c-29.184 0-55.296 26.112-55.296 55.296s26.112 53.76 55.296 53.76 53.76-24.575 53.76-53.76-24.576-55.296-53.76-55.296zm662.017 268.8h-465.4c-27.648 0-50.688 23.04-50.688 50.688s23.04 50.688 50.688 50.688h465.4C872.96 434.688 896 411.648 896 384s-23.04-50.688-50.687-50.688zm0 264.192h-465.4c-27.648 0-50.688 23.04-50.688 50.688s23.04 50.688 50.688 50.688h465.4c27.647 0 50.688-23.04 50.688-50.688s-23.04-50.688-50.688-50.688z" fill="#1084C3"/></svg>