<svg xmlns="http://www.w3.org/2000/svg" width="768" height="768" viewBox="128 0 768 768"><path d="M512 0C300.27 0 128 172.256 128 384s172.27 384 384 384 384-172.257 384-384S723.73 0 512 0zm0 720.74c-185.68 0-336.738-151.06-336.738-336.738S326.32 47.262 512 47.262 848.738 198.322 848.738 384 697.68 720.74 512 720.74zm-3.706-422.12c-35.257 0-60.233 28.626-60.233 63.834v217.034c0 35.26 24.976 63.8 60.233 63.8 35.25 0 60.203-28.55 60.203-63.8V362.454c0-35.24-24.954-63.834-60.203-63.834zm.266-165.918c-36.428 0-65.98 29.544-65.98 65.97 0 36.416 29.553 65.927 65.98 65.927 36.396 0 65.94-29.5 65.94-65.927 0-36.427-29.543-65.97-65.94-65.97z" fill="#1084C3"/></svg>