<svg xmlns="http://www.w3.org/2000/svg" width="349" height="88" viewBox="0.001 -7.178 348.417 87.962"><g fill="#1084C3"><path d="M23.256 4.16L127.987.044c.77-.08 1.54-.047 2.288.083a8.98 8.98 0 0 1 4.385 2.12c1.204 1.08 2.04 2.465 2.24 3.957.08.59.06 1.194-.076 1.803l-10.928 49.257c-.46 2.07-1.48 3.995-3.023 5.366-1.452 1.288-3.34 2.09-5.636 2.09l-84.09-2.893c-2.287 0-4.164-.8-5.6-2.082l-.007-.006c-1.54-1.37-2.562-3.293-3.035-5.357l-9.714-42.25-.09-.475c-.263-1.972.66-3.67 2.208-4.967 1.418-1.187 3.386-2.024 5.394-2.39l.964-.142zm100.207 2.56l-100.92 3.735c-1.38.25-2.717.812-3.657 1.6-.82.687-1.313 1.55-1.186 2.51l.04.237 9.06 39.4c.337 1.467 1.032 2.81 2.065 3.727.838.742 1.92 1.203 3.238 1.203l81.003 2.893c1.32 0 2.41-.464 3.253-1.212 1.03-.914 1.723-2.25 2.046-3.708l10.19-45.934c.066-.304.077-.608.037-.906-.11-.817-.588-1.595-1.28-2.217-.716-.642-1.646-1.108-2.63-1.28-.415-.074-.84-.092-1.26-.048z"/><path d="M40.034 15.326l30.708-3.24a3.87 3.87 0 0 1 1.059.039 4.14 4.14 0 0 1 2.026.98c.558.5.944 1.14 1.036 1.83.036.272.027.552-.035.833l-5.054 22.778c-.212.957-.684 1.848-1.397 2.48-.672.597-1.545.966-2.606.966H44.608c-1.058 0-1.926-.37-2.595-.963l-.002-.002c-.713-.633-1.185-1.523-1.404-2.478l-4.492-19.537-.04-.22c-.122-.912.306-1.698 1.02-2.297.655-.55 1.565-.937 2.494-1.105l.445-.064zm28.615-.155l-28.944 3.065c-.64.116-1.257.375-1.692.74-.38.317-.607.717-.548 1.16l.02.11 4.188 18.22c.156.678.478 1.3.955 1.723.388.344.89.557 1.498.557H63.86c.61 0 1.115-.215 1.505-.56.476-.422.796-1.04.946-1.715l4.712-21.24c.03-.14.036-.28.018-.418-.05-.378-.272-.738-.593-1.025-.33-.297-.76-.513-1.215-.592-.193-.034-.39-.043-.584-.023z" opacity=".5"/></g><path d="M84.096 44.416l.977-1.727-1.753-1.033 1.025-1.775-3.53-2.023-2.033 3.497-.015.065c.625.223 1.198.61 1.774.955l-.996 1.764 1.753 1.05-2.02 3.515 1.733 1.03c-.564 1.084-1.387 2.596-2.108 3.536l.077.037c.44.2.85.442 1.268.685.603.353.574.186.054 1.097l-1.575 2.726 1.72 1.013c-.072.446-1.647 2.86-1.97 3.55l14.098 8.162 2.043-3.494 1.817 1.03 3.02-5.306 1.776.99 7.126-12.31c-.23-.27-1.666-.902-1.67-1.113-.01-.396.932-1.345.844-1.72-.32-.3-1.273-.854-1.684-1.008l-3.076 5.273-1.736-1.006 4.077-7.074-3.55-2.04-3.063 5.3-1.765-1.02 4.083-7.022c-.25-.257-3.17-1.938-3.556-2.056L93.2 44.998l-1.742-1.018c-.005-.184.122-.343.228-.52l8.932-15.406L97.1 26.04l-11.24 19.42c-.56-.164-1.676-.95-1.7-.965l-.065-.08z" fill="#fff"/><g fill="#1E1E1E"><path d="M78.983 53.307c-.162.282-.322.43-.526.786l-1.563 2.7.87.5c.318.2.454.337.832.555l-2.98 5.286 4.356 2.587 8.938 5.16 4.474 2.5c.257-.445.325-.8.7-1.283.325-.406.86-1.46 1.197-2.025.177-.297.253-.313.43-.6.295-.492.422-.86.727-1.4.286.417 1.28.738 1.733 1l3.057-5.17c.536.163 1.028.558 1.497.802.26.135.27.132.428-.115l1.186-2.068 5.785-10.022c-.48-.278-1.4-.728-1.775-1.07l-7.126 12.3-1.776-1-3.02 5.306-1.817-1.03-2.043 3.494-14.087-8.16c.322-.7 1.897-3.104 1.97-3.55l-1.72-1.013 1.575-2.726c.52-.912.55-.744-.054-1.097l-1.27-.687zm5.362-13.427l-1.025 1.775 1.753 1.033-.977 1.727 1.742 1.006 11.2-19.413-1.722-.976c-.014.008-.024.01-.04.03l-.074.067-.035.042-9.04 15.65-1.773-.94zm16.305-11.758L91.458 43.98l1.742 1.018 4.063-7.043c.385.117 3.306 1.8 3.556 2.056.384.396 3.722 2.2 4.472 2.635.013-.093.147-.056-.254-.302l-3.53-2.027c-.847-.48-.78-.148.35-2.107l-2.66-1.534c-.346-.2-.453-.337-.832-.556l4.034-6.988c-.45-.26-.733-.536-1.324-.837-.246-.125-.214-.06-.427-.173z"/><path d="M105.112 44.802l1.022-1.74c-.27-.155-.56-.37-.845-.416L100.817 40l-4.083 7.022 1.765 1.02 3.063-5.3 3.55 2.04zM78.768 41.42c-.15.25-.214.242-.554.834l-.53.92 1.68.97c-.166.547-1.646 3.102-1.925 3.584l1.734 1-1.533 2.654c-.22.377-.262.578-.446.898l1.714 1c.722-.94 1.544-2.452 2.108-3.536l-1.733-1.03 2.02-3.515-1.753-1.05.996-1.764c-.576-.342-1.15-.73-1.775-.954z"/><path d="M78.783 41.354l2.033-3.497 3.53 2.023.56-.836.48-.957-4.713-2.72c-.757-.443-.57-.513-1.182.546l-2.253 3.9c-.233.392-.408.474-.052.7.34.218 1.3.844 1.597.842zm28.747 7.263c.272-.012.054.08.272-.182.014-.018.13-.238.154-.277.067-.434.465-.93.696-1.33l-3.542-2.024-4.077 7.074 1.736 1.006 3.076-5.273c.412.152 1.365.708 1.685 1.007z"/><path d="M100.677 27.993c.315-.545.76-1.193.916-1.7l-3.482-2-1 1.708 3.566 2.013zm6.853 20.624c.088.374-.854 1.322-.844 1.72.005.2 1.44.842 1.67 1.113.365.344 1.296.793 1.775 1.07l-3.44 5.958 3.502-6.066-1.733-1c.16-.277.2-.492.415-.844l.532-.922c-1.927-1.112-1.827-.834-1.452-1.488l-.154.277c-.22.262-.001.17-.273.182z"/></g><path d="M95.307 25.033l1.722.976-11.2 19.413-1.742-1.006.064.082c.015.014 1.13.8 1.7.965L97.09 26.04l3.528 2.012-8.932 15.406c-.105.18-.232.338-.228.52l9.193-15.858.025-.13-3.566-2.013 1-1.708c-.27.19-.815 1.322-1.04 1.71l-1.62-.925c-.117-.04-.064-.025-.14-.024z" fill="#8B8B8B"/><g fill="#1084C3"><path d="M166.506 44.34h-6.022l4.965-17.148-10.2 17.148h-6.195l-1.11-17.394L143.7 44.34h-6.195l6.993-26.1h8.454l1.164 18.313 10.93-18.313h8.454l-6.995 26.1zm22.52 0h-13.467c-1.87 0-3.218-.502-4.042-1.506-.85-.98-1.017-2.408-.512-4.3.604-2.252 1.646-3.872 3.128-4.852s3.585-1.47 6.315-1.47h5.945c.25-.938.155-1.607-.283-2.02-.456-.376-1.464-.562-3.01-.562h-8.484l1.258-4.696h10.32c2.623 0 4.455.61 5.492 1.822 1.043 1.213 1.23 3.053.57 5.52l-3.228 12.053zm-4.64-4.625l.777-2.904h-5.264c-1.052 0-1.76.102-2.125.305-.37.203-.64.627-.813 1.273-.128.478-.112.824.05 1.045.094.096.285.162.583.2a7.63 7.63 0 0 0 1.164.071h5.63zm25.655 4.625h-5.736l3.117-11.633c.33-1.237.368-2.02.106-2.36-.3-.305-1.008-.454-2.1-.454h-3.454l-3.87 14.448h-5.735l5.196-19.395h9.536c2.916 0 4.843.567 5.78 1.703.938 1.142 1.068 2.97.39 5.503l-3.23 12.188zm20.864 0h-5.77l3.122-11.65c.31-1.153.325-1.906.04-2.252-.2-.204-.427-.347-.706-.442-.31-.1-.77-.138-1.36-.138l-3.427.036-3.87 14.448h-5.736l6.993-26.1h5.736l-1.797 6.704h3.837c2.867 0 4.784.562 5.752 1.68.966 1.123 1.107 2.958.422 5.515l-3.234 12.2zm22.012 0h-13.468c-1.87 0-3.217-.502-4.042-1.506-.85-.98-1.016-2.408-.512-4.3.604-2.252 1.647-3.872 3.13-4.852s3.585-1.47 6.314-1.47h5.945c.25-.938.156-1.607-.283-2.02-.455-.376-1.463-.562-3-.562h-8.484l1.258-4.696h10.318c2.624 0 4.456.61 5.493 1.822 1.043 1.213 1.23 3.053.57 5.52l-3.228 12.053zm-4.64-4.625l.778-2.904h-5.264c-1.052 0-1.76.102-2.125.305-.37.203-.64.627-.813 1.273-.128.478-.113.824.05 1.045.094.096.285.162.583.2s.686.07 1.164.07h5.628zm13.86 4.625h-5.95l6.993-26.1h5.95l-6.993 26.1zm13.442 0h-5.055l1.422-5.307H277l-1.422 5.307zm18.564 0h-7.01c-.856 0-1.632-.05-2.304-.144-.66-.093-1.274-.206-1.816-.4-.98-.353-1.818-.972-2.493-1.822-.314-.396-.532-.902-.73-1.47-.192-.553-.396-1.145-.5-1.787-.1-.616-.08-1.256-.03-1.912.05-.638.19-1.352.395-2.12.386-1.444.987-2.813 1.81-4.08.812-1.25 1.784-2.41 2.996-3.375 1.005-.8 2.184-1.325 3.438-1.703 1.246-.377 2.72-.58 4.422-.58h7.008l-1.306 4.875h-5.593c-1.162 0-2.122.056-2.853.21s-1.336.48-1.838.86c-.974.74-1.725 1.99-2.205 3.794-.268 1.002-.3 1.855-.16 2.557.137.68.322 1.457.975 1.715l1.026.406c.28.11.614.08.93.102l1.532.036h5.593l-1.3 4.84zm24.015-9.727c-.81 3.032-2.388 5.46-4.718 7.283-2.323 1.817-5.027 2.73-8.117 2.73-3.106 0-5.317-.922-6.677-2.73-1.35-1.796-1.637-4.214-.815-7.283.804-3.004 2.383-5.426 4.712-7.26 2.303-1.813 5-2.73 8.14-2.73 3.09 0 5.313.898 6.663 2.695 1.36 1.808 1.625 4.245.81 7.295zm-5.95 0c.43-1.6.344-2.863-.174-3.788-.498-.9-1.362-1.362-2.683-1.362-1.31 0-2.43.474-3.412 1.362-.94.853-1.67 2.104-2.12 3.788-.23.864-.325 1.597-.323 2.187.002.626.125 1.186.397 1.66.506.884 1.407 1.327 2.69 1.327 1.32 0 2.442-.46 3.403-1.327 1.024-.923 1.78-2.197 2.22-3.848zm32.538 9.727h-5.77l3.107-11.598c.318-1.19.404-2.017.134-2.396-.264-.37-1.003-.534-2.08-.508l-2.237.054-3.87 14.448h-5.844l3.87-14.448h-4.768l-3.87 14.448h-5.77l5.196-19.395h19.013c2.766 0 4.66.57 5.66 1.703 1.008 1.14 1.176 2.973.498 5.503l-3.267 12.19z"/><path d="M6.553 25.047l50.538-5.334a6.34 6.34 0 0 1 1.742.063c1.26.22 2.438.808 3.337 1.613.917.822 1.553 1.876 1.704 3.01.06.448.045.91-.058 1.372l-8.744 22.963c-.35 1.576-1.126 3.04-2.3 4.084-1.105.98-2.542 1.6-4.29 1.6H13.654c-1.74 0-3.17-.607-4.27-1.585l-.004-.002c-1.174-1.043-1.95-2.506-2.31-4.078L.103 31.114l-.068-.36c-.2-1.5.503-2.794 1.68-3.78 1.078-.903 2.576-1.542 4.104-1.818l.733-.108zm47.095-.253L6.012 29.838c-1.052.2-2.068.618-2.784 1.218-.624.522-1 1.18-.902 1.91l.03.18 6.468 15.46c.257 1.117.786 2.138 1.572 2.836a3.63 3.63 0 0 0 2.465.916h32.48c1.005 0 1.835-.354 2.476-.922.783-.695 1.31-1.71 1.558-2.822l8.183-20.434c.05-.23.06-.463.028-.69-.084-.622-.447-1.214-.975-1.688-.545-.488-1.252-.844-2-.974-.317-.055-.64-.07-.96-.036z" opacity=".2"/><path d="M149.343.98l-1.248 4.66h-1.68l3.34-12.47h3.678c.8 0 1.45.093 1.984.276s.946.44 1.24.776.47.745.53 1.22.01 1.006-.146 1.6a5.09 5.09 0 0 1-.732 1.594 5.1 5.1 0 0 1-1.224 1.247C154.6.22 154.042.5 153.4.685a7.39 7.39 0 0 1-2.07.292h-2zm.36-1.34h2a4.36 4.36 0 0 0 1.327-.191 3.64 3.64 0 0 0 1.068-.536c.3-.23.573-.5.785-.82s.37-.67.473-1.052c.213-.794.136-1.415-.234-1.86s-1.052-.67-2.043-.67h-2l-1.375 5.13zm12.623-2.948c.644 0 1.198.107 1.66.322a2.52 2.52 0 0 1 1.078.913c.256.395.407.87.452 1.43s-.028 1.186-.212 1.875a7.07 7.07 0 0 1-.794 1.88 5.95 5.95 0 0 1-1.216 1.426 5.15 5.15 0 0 1-1.565.907 5.28 5.28 0 0 1-1.83.319c-.643 0-1.194-.107-1.656-.32s-.825-.513-1.084-.907-.413-.87-.462-1.426.02-1.183.208-1.88.452-1.316.8-1.875.755-1.035 1.227-1.43a5.34 5.34 0 0 1 1.572-.913 5.16 5.16 0 0 1 1.824-.322zm-2.106 7.86c.87 0 1.597-.292 2.182-.875s1.018-1.397 1.298-2.444.286-1.866.015-2.455-.843-.878-1.712-.878c-.44 0-.844.075-1.2.226s-.692.368-.986.652a4.1 4.1 0 0 0-.768 1.049c-.218.415-.4.884-.54 1.406s-.2.992-.213 1.403.065.76.208 1.04a1.48 1.48 0 0 0 .638.649c.283.15.645.226 1.086.226zm7.027-7.73h1.217c.128 0 .224.032.288.095s.1.14.104.226l.166 5.675-.032.605-.053.6.314-.6.345-.605 3.4-5.7c.052-.087.124-.16.212-.217a.52.52 0 0 1 .296-.087h.67c.116 0 .203.03.263.087a.32.32 0 0 1 .099.217l.287 5.7.01.6-.015.586.274-.603.304-.583 3.242-5.675c.055-.093.13-.168.228-.23a.57.57 0 0 1 .312-.092h1.165l-5.223 8.82h-1.226c-.15 0-.23-.098-.235-.295l-.345-5.98a2.88 2.88 0 0 1-.004-.405l.02-.403-.197.408a3.96 3.96 0 0 1-.223.409l-3.574 5.97c-.117.197-.262.295-.436.295h-1.165l-.488-8.817zm17.995-.14c.527 0 1 .1 1.4.267a2.16 2.16 0 0 1 .95.765c.233.333.38.748.432 1.238s-.01 1.05-.18 1.678c-.064.244-.134.406-.208.487s-.183.122-.328.122h-5.86c-.138.557-.193 1.043-.164 1.455s.127.756.296 1.035.404.48.705.617.658.206 1.075.206a3.7 3.7 0 0 0 1.042-.136 6.16 6.16 0 0 0 .803-.293l.588-.3c.16-.092.3-.136.388-.136.127 0 .212.05.256.148l.282.568a4.34 4.34 0 0 1-.848.6 6.77 6.77 0 0 1-.968.42 5.72 5.72 0 0 1-1.01.246 6.03 6.03 0 0 1-.987.08c-.6 0-1.14-.104-1.597-.3s-.82-.507-1.088-.904-.43-.9-.48-1.476.024-1.257.23-2.02a6.31 6.31 0 0 1 .745-1.722A5.89 5.89 0 0 1 181.9-2.06a5.11 5.11 0 0 1 1.542-.92 4.99 4.99 0 0 1 1.812-.337zm-.273 1.148c-.748 0-1.394.214-1.94.646s-.97 1.026-1.278 1.8h4.8a3.04 3.04 0 0 0 .116-.982c-.02-.295-.095-.557-.23-.77a1.32 1.32 0 0 0-.563-.503c-.244-.12-.545-.18-.898-.18zm3.5 7.8l2.362-8.816h.888c.168 0 .274.034.32.1s.058.186.036.35l-.287 1.46c.477-.652.986-1.16 1.526-1.522s1.108-.547 1.707-.547c.242 0 .456.03.638.084a1.67 1.67 0 0 1 .484.238l-.5 1.156c-.08.146-.2.218-.328.218-.08 0-.198-.03-.352-.084s-.38-.08-.683-.08c-.54 0-1.03.162-1.48.5s-.882.803-1.293 1.426l-1.48 5.527h-1.547zm12.895-8.957c.527 0 1 .1 1.4.267a2.26 2.26 0 0 1 .951.765c.235.333.38.748.43 1.238s-.01 1.05-.177 1.678c-.066.244-.135.406-.2.487s-.184.122-.328.122h-5.86c-.138.557-.192 1.043-.164 1.455s.127.756.298 1.035.403.48.703.617.658.206 1.075.206c.4 0 .737-.046 1.043-.136s.57-.188.803-.293l.588-.3c.16-.092.288-.136.387-.136.127 0 .214.05.257.148l.282.568a4.4 4.4 0 0 1-.848.6 5.79 5.79 0 0 1-.969.42 6.88 6.88 0 0 1-1.01.246 6.16 6.16 0 0 1-.988.08c-.607 0-1.14-.104-1.597-.3s-.82-.507-1.088-.904-.43-.9-.48-1.476.024-1.257.23-2.02c.164-.614.414-1.188.745-1.722a5.89 5.89 0 0 1 1.184-1.388 5.34 5.34 0 0 1 1.543-.921 4.89 4.89 0 0 1 1.81-.337zM201.1-2.17c-.748 0-1.394.214-1.938.646s-.972 1.026-1.28 1.8h4.792c.096-.36.136-.687.115-.982s-.095-.557-.23-.77a1.36 1.36 0 0 0-.563-.503c-.243-.118-.544-.18-.897-.18zm9.7 7.8c-.222 0-.332-.107-.332-.32l.147-1.07a6.78 6.78 0 0 1-1.584 1.098c-.558.275-1.152.415-1.778.415-.504 0-.936-.1-1.296-.292a1.92 1.92 0 0 1-.822-.855c-.2-.375-.286-.85-.3-1.412s.1-1.208.285-1.942a7.48 7.48 0 0 1 .747-1.814 6.39 6.39 0 0 1 1.145-1.458 5.13 5.13 0 0 1 1.453-.968 4.16 4.16 0 0 1 1.695-.354c.54 0 .976.092 1.3.275a2.25 2.25 0 0 1 .82.768l1.3-4.887h1.548L211.7 5.64h-.92zm-2.698-1.13a3.02 3.02 0 0 0 1.422-.348c.44-.23.877-.56 1.3-.982l1.143-4.267c-.18-.383-.418-.652-.717-.806s-.653-.232-1.065-.232c-.822 0-1.532.293-2.132.882s-1.04 1.42-1.332 2.507c-.154.574-.236 1.067-.248 1.475s.044.745.164 1a1.16 1.16 0 0 0 .55.58c.245.122.546.182.906.182zm9.618 1.13l3.434-12.817h1.557l-1.438 5.362a7.15 7.15 0 0 1 1.55-1.1 3.66 3.66 0 0 1 1.73-.412c.5 0 .946.096 1.307.287a1.88 1.88 0 0 1 .82.858c.187.38.286.85.293 1.4s-.1 1.205-.285 1.936a7.51 7.51 0 0 1-.747 1.817c-.323.56-.702 1.044-1.14 1.452a5.14 5.14 0 0 1-1.458.965 4.17 4.17 0 0 1-1.691.354c-.568 0-1.02-.1-1.357-.333a2.3 2.3 0 0 1-.792-.928l-.294.806c-.106.224-.27.333-.5.333h-1zm6-7.72c-.504 0-.978.122-1.423.368s-.9.6-1.327 1.038l-1.126 4.2c.178.377.417.644.715.796s.653.232 1.07.232a2.94 2.94 0 0 0 2.132-.878c.598-.585 1.04-1.42 1.33-2.504.153-.574.236-1.067.245-1.478s-.047-.75-.17-1.015a1.16 1.16 0 0 0-.55-.577c-.246-.12-.546-.182-.9-.182zm5.327 10.338c-.084.116-.172.2-.27.278a.66.66 0 0 1-.39.104h-1.147l2.53-3.443-1.396-8.356h1.338c.135 0 .23.035.286.102a.43.43 0 0 1 .105.223l.852 5.62a3.33 3.33 0 0 1 .032.385l-.008.397.23-.397.245-.395 3.8-5.6a.77.77 0 0 1 .24-.232c.098-.062.2-.092.298-.092h1.235l-7.97 11.416zm7.12-3.562a1.38 1.38 0 0 1 .2-.426 1.69 1.69 0 0 1 .319-.351 1.47 1.47 0 0 1 .405-.235c.148-.058.298-.087.45-.087a.9.9 0 0 1 .402.087.75.75 0 0 1 .285.235c.07.102.12.217.137.35s.01.275-.032.426c-.042.16-.106.302-.197.435a1.59 1.59 0 0 1-.325.346c-.127.102-.26.173-.408.23a1.24 1.24 0 0 1-.45.084.94.94 0 0 1-.402-.084.65.65 0 0 1-.28-.23.84.84 0 0 1-.134-.346 1.05 1.05 0 0 1 .032-.435zm1.747-6.522a1.38 1.38 0 0 1 .2-.426c.092-.134.197-.25.32-.35a1.53 1.53 0 0 1 .405-.235 1.22 1.22 0 0 1 .45-.087c.152 0 .285.03.402.087a.75.75 0 0 1 .285.235.8.8 0 0 1 .139.351 1.05 1.05 0 0 1-.033.426 1.39 1.39 0 0 1-.198.435 1.65 1.65 0 0 1-.323.345c-.126.1-.262.174-.4.23a1.28 1.28 0 0 1-.448.084.96.96 0 0 1-.403-.084.68.68 0 0 1-.281-.229.82.82 0 0 1-.133-.345 1.1 1.1 0 0 1 .03-.435zm-58.63 59.984l-.533 1.988h-8.65l-1.606 5.986h7.006l-.513 1.9h-7.006l-1.65 6.162h8.65l-.53 1.987H163.35l4.832-18.033h11.104zm.022 9.533h6.213l-.512 1.912h-6.2l.5-1.912zm10.374 6.44h7.797l-.553 2.062h-10.237l4.832-18.033h2.44l-4.278 15.97zm17.643-10.893c.764 0 1.434.132 2 .388s1.036.625 1.377 1.106.548 1.08.622 1.8-.013 1.518-.256 2.428c-.095.353-.196.584-.303.703s-.265.177-.475.177h-8.477c-.2.805-.276 1.5-.234 2.104s.183 1.095.427 1.497a2.31 2.31 0 0 0 1.02.894c.43.195.95.298 1.556.298a5.31 5.31 0 0 0 1.507-.199c.44-.13.825-.272 1.162-.42l.85-.42c.232-.134.415-.196.56-.196.183 0 .307.07.37.213l.4.822c-.366.333-.773.62-1.226.87a8.48 8.48 0 0 1-1.4.605 9.72 9.72 0 0 1-1.462.357 8.91 8.91 0 0 1-1.428.115c-.88 0-1.648-.147-2.3-.446a3.66 3.66 0 0 1-1.574-1.309c-.386-.573-.62-1.287-.694-2.134s.034-1.82.33-2.92a9.27 9.27 0 0 1 1.078-2.49c.48-.77 1.05-1.44 1.7-2.007s1.408-1.013 2.233-1.334a7.11 7.11 0 0 1 2.618-.488zm-.394 1.66c-1.08 0-2.017.3-2.804.936-.786.62-1.403 1.484-1.85 2.588h6.93c.14-.52.194-.994.166-1.423s-.136-.806-.33-1.115-.462-.558-.815-.73-.785-.257-1.298-.257zm14.417 11.293h-.992c-.22 0-.386-.032-.5-.1s-.166-.215-.15-.433l.066-1.185-1.197.813c-.386.242-.773.443-1.17.605s-.805.3-1.225.374a6.97 6.97 0 0 1-1.362.125 4 4 0 0 1-1.33-.208c-.393-.138-.717-.35-.96-.626s-.404-.628-.478-1.055-.036-.93.12-1.5c.135-.506.405-.993.805-1.458s.962-.884 1.676-1.25c.714-.36 1.598-.657 2.657-.887s2.313-.35 3.752-.35l.27-1c.27-.994.26-1.748-.027-2.255-.286-.513-.847-.77-1.677-.77-.546 0-1.02.068-1.43.204a6.97 6.97 0 0 0-1.093.466l-.83.467c-.233.14-.45.2-.642.2a.53.53 0 0 1-.363-.117.64.64 0 0 1-.194-.294l-.215-.704c.9-.684 1.784-1.195 2.688-1.532a7.95 7.95 0 0 1 2.84-.51c.714 0 1.313.118 1.806.354a2.67 2.67 0 0 1 1.134.979c.263.42.412.926.443 1.526s-.044 1.25-.235 1.962l-2.186 8.16zm-5.438-1.383a5.08 5.08 0 0 0 1.113-.116 5.18 5.18 0 0 0 1.016-.337 6.29 6.29 0 0 0 .971-.528 10.46 10.46 0 0 0 .961-.704l.707-2.64c-1.03 0-1.926.067-2.682.195s-1.388.3-1.897.513-.9.456-1.183.74-.473.604-.567.96c-.1.335-.114.623-.07.868a1.21 1.21 0 0 0 .279.599c.145.155.33.268.563.34s.493.108.8.108zm8.834 1.383l3.416-12.753h1.283c.244 0 .398.053.464.148s.083.27.053.506l-.415 2.113c.7-.94 1.426-1.675 2.207-2.2s1.604-.793 2.468-.793a3.23 3.23 0 0 1 .925.123 2.43 2.43 0 0 1 .698.343l-.737 1.673c-.115.2-.272.315-.474.315-.117 0-.286-.042-.508-.12s-.552-.118-.987-.118c-.78 0-1.493.233-2.142.707s-1.276 1.16-1.87 2.063l-2.142 7.994h-2.24zm10.136 0l3.417-12.753h1.334c.318 0 .478.156.478.466l-.195 1.4a10.37 10.37 0 0 1 2.256-1.487c.783-.38 1.622-.568 2.52-.568.695 0 1.28.12 1.75.35s.827.558 1.07.98.373.934.4 1.53-.06 1.253-.253 1.974l-2.176 8.12h-2.24l2.176-8.12c.26-.963.24-1.713-.056-2.246s-.9-.8-1.807-.8c-.663 0-1.32.16-1.98.478s-1.3.756-1.94 1.3l-2.52 9.4h-2.238zm19.9-12.753L251.35 76.18h-2.24l3.42-12.753h2.238zm1.574-3.997a1.84 1.84 0 0 1-.29.608 2.52 2.52 0 0 1-.487.503 2.42 2.42 0 0 1-.605.347 1.78 1.78 0 0 1-.649.127c-.22 0-.407-.043-.572-.127a1.14 1.14 0 0 1-.412-.347c-.107-.146-.18-.315-.214-.503s-.02-.392.04-.608.155-.428.293-.624.3-.37.485-.518a2.39 2.39 0 0 1 .595-.343 1.71 1.71 0 0 1 .642-.125 1.28 1.28 0 0 1 .582.125c.17.085.313.197.42.343a1.24 1.24 0 0 1 .214.518 1.46 1.46 0 0 1-.041.624zM255.3 76.18l3.418-12.753h1.332c.32 0 .48.156.48.466l-.194 1.4c.717-.615 1.47-1.1 2.256-1.487a5.7 5.7 0 0 1 2.519-.568c.694 0 1.28.12 1.75.35s.827.558 1.07.98.374.934.4 1.53-.06 1.253-.253 1.974l-2.175 8.12h-2.24l2.177-8.12c.257-.963.24-1.713-.057-2.246s-.9-.8-1.807-.8c-.663 0-1.32.16-1.98.478s-1.3.756-1.94 1.3l-2.517 9.4h-2.24zm21.743-12.954c.554 0 1.06.06 1.508.182a3.64 3.64 0 0 1 1.168.538h3.458l-.223.83c-.074.278-.3.46-.673.533l-1.498.203c.14.543.117 1.15-.06 1.824a5.05 5.05 0 0 1-.812 1.693 5.71 5.71 0 0 1-1.343 1.302c-.52.36-1.097.637-1.73.83a6.82 6.82 0 0 1-1.997.29 6.35 6.35 0 0 1-1.63-.2c-.313.173-.564.357-.756.558s-.316.394-.367.582c-.083.313-.024.55.175.7s.493.276.877.344.83.104 1.344.104h1.566a8.08 8.08 0 0 1 1.526.14c.486.093.902.247 1.247.46s.6.504.734.878.134.858-.025 1.455c-.147.55-.426 1.085-.835 1.6s-.93.978-1.55 1.385c-.618.4-1.33.724-2.133.964a9.05 9.05 0 0 1-2.6.364c-.93 0-1.718-.092-2.37-.278s-1.166-.43-1.545-.74-.625-.67-.747-1.076-.123-.833-.005-1.28c.17-.628.512-1.162 1.028-1.602s1.156-.8 1.922-1.05c-.317-.17-.542-.393-.68-.672s-.146-.654-.02-1.123a2.13 2.13 0 0 1 .251-.569 3.3 3.3 0 0 1 .467-.583 5.01 5.01 0 0 1 .654-.549 4.65 4.65 0 0 1 .828-.466 2.71 2.71 0 0 1-1.098-1.403c-.2-.587-.197-1.27.014-2.052a5.01 5.01 0 0 1 .813-1.696c.375-.5.823-.943 1.346-1.3a6.41 6.41 0 0 1 1.751-.825c.646-.194 1.318-.293 2.022-.293zm.326 13.617c.086-.325.07-.587-.055-.785s-.32-.347-.594-.456-.6-.185-.98-.235a9.4 9.4 0 0 0-1.224-.08h-1.332a4.39 4.39 0 0 1-1.251-.168 5.34 5.34 0 0 0-1.385.83c-.387.326-.64.717-.76 1.17-.076.285-.072.556.008.802a1.26 1.26 0 0 0 .5.64c.254.178.595.322 1.025.43s.95.16 1.57.16a7.75 7.75 0 0 0 1.667-.167c.508-.1.956-.27 1.343-.475s.702-.45.954-.73c.254-.286.425-.596.516-.936zm-2.132-6.875c.453 0 .874-.063 1.254-.188a3.4 3.4 0 0 0 1.012-.528c.297-.232.545-.5.747-.815a3.69 3.69 0 0 0 .457-1.042c.208-.78.14-1.4-.2-1.867-.35-.46-.98-.7-1.885-.7-.898 0-1.643.23-2.24.7s-1.003 1.086-1.212 1.867c-.103.382-.132.725-.096 1.042s.142.583.315.815c.174.226.416.4.724.528s.7.188 1.133.188zm29.22-11.846l-.554 2.063h-5.82L293.8 76.168h-2.44l4.282-15.983h-5.847l.553-2.063h14.1zm3.245 5.104c.764 0 1.434.132 2.012.388s1.034.625 1.376 1.106.547 1.08.62 1.8-.013 1.518-.255 2.428c-.094.353-.195.584-.304.703s-.265.177-.474.177H302.2c-.2.805-.277 1.5-.235 2.104s.186 1.095.428 1.497a2.3 2.3 0 0 0 1.02.894c.433.195.95.298 1.556.298a5.32 5.32 0 0 0 1.507-.199 9.24 9.24 0 0 0 1.159-.421l.852-.42c.233-.134.418-.196.56-.196.185 0 .307.07.37.213l.408.822c-.366.333-.774.62-1.226.87s-.916.447-1.4.605a9.75 9.75 0 0 1-1.463.357 8.81 8.81 0 0 1-1.427.115c-.88 0-1.648-.147-2.3-.446s-1.187-.735-1.574-1.3-.62-1.287-.695-2.134.035-1.82.33-2.92c.238-.888.598-1.72 1.078-2.5a8.39 8.39 0 0 1 1.712-2.007c.664-.567 1.405-1.013 2.23-1.334s1.698-.488 2.62-.488zm-.394 1.66c-1.08 0-2.017.3-2.804.936-.787.62-1.403 1.484-1.85 2.588h6.928c.14-.52.197-.994.168-1.423s-.137-.806-.33-1.115a1.92 1.92 0 0 0-.813-.729c-.352-.173-.787-.257-1.3-.257zm14.417 11.293h-.993c-.22 0-.386-.032-.5-.1s-.167-.215-.15-.433l.065-1.185-1.198.813a7.45 7.45 0 0 1-1.168.605 6.53 6.53 0 0 1-1.224.374c-.42.084-.876.125-1.363.125-.494 0-.936-.07-1.33-.208s-.718-.35-.96-.626-.403-.628-.477-1.055-.036-.93.12-1.5c.137-.506.405-.993.806-1.458s.962-.884 1.676-1.25c.714-.36 1.6-.657 2.656-.887s2.313-.35 3.754-.35l.27-1c.267-.994.26-1.748-.027-2.255-.288-.513-.848-.77-1.678-.77-.545 0-1.02.068-1.43.204a7.02 7.02 0 0 0-1.094.466l-.83.467c-.23.14-.448.2-.642.2a.53.53 0 0 1-.363-.117.64.64 0 0 1-.194-.294l-.213-.704c.888-.684 1.784-1.195 2.688-1.532s1.85-.5 2.84-.5c.713 0 1.313.118 1.806.354s.87.56 1.135.98.412.926.444 1.526c.035.595-.044 1.25-.236 1.962l-2.187 8.16zm-5.44-1.383a5.08 5.08 0 0 0 1.113-.116 5.33 5.33 0 0 0 1.017-.337 6.28 6.28 0 0 0 .97-.528c.32-.205.638-.44.96-.704l.707-2.64c-1.032 0-1.924.067-2.68.195s-1.388.3-1.897.513-.902.456-1.184.74-.473.604-.566.96a1.88 1.88 0 0 0-.07.868c.043.245.14.442.28.6a1.28 1.28 0 0 0 .563.34 2.72 2.72 0 0 0 .79.108zm8.835 1.383l3.417-12.753h1.333c.318 0 .478.156.478.466l-.187 1.313a9.55 9.55 0 0 1 1.961-1.425c.683-.37 1.405-.556 2.178-.556.863 0 1.5.24 1.903.72s.613 1.122.63 1.938a5.98 5.98 0 0 1 1.02-1.197c.377-.337.776-.613 1.197-.83a5.52 5.52 0 0 1 1.279-.478 5.65 5.65 0 0 1 1.278-.152c.67 0 1.24.112 1.708.325a2.39 2.39 0 0 1 1.081.935c.254.4.395.917.43 1.517s-.056 1.288-.264 2.058l-2.174 8.12h-2.24l2.176-8.12c.268-.997.253-1.757-.046-2.27s-.86-.775-1.7-.775c-.366 0-.733.068-1.1.198a3.53 3.53 0 0 0-1.029.57 3.93 3.93 0 0 0-.85.95c-.25.382-.445.826-.58 1.328l-2.175 8.12h-2.237l2.176-8.12c.27-1.022.273-1.8-.005-2.292-.273-.505-.808-.755-1.595-.755-.555 0-1.104.152-1.658.448s-1.098.707-1.63 1.216l-2.546 9.503h-2.238z"/></g></svg>