<svg xmlns="http://www.w3.org/2000/svg" xmlns:xlink="http://www.w3.org/1999/xlink" viewBox="0 0 60.29 69.33"><defs><style>.cls-1{isolation:isolate;}.cls-2{opacity:0.44;}.cls-2,.cls-26{mix-blend-mode:multiply;}.cls-3{fill:#fff;opacity:0;}.cls-4{fill:#f9f9f9;opacity:0.05;}.cls-5{fill:#f3f3f3;opacity:0.1;}.cls-6{fill:#ededee;opacity:0.14;}.cls-7{fill:#e7e7e8;opacity:0.19;}.cls-8{fill:#e1e1e2;opacity:0.24;}.cls-9{fill:#dbdbdc;opacity:0.29;}.cls-10{fill:#d5d5d6;opacity:0.33;}.cls-11{fill:#cfcfd1;opacity:0.38;}.cls-12{fill:#c9c9cb;opacity:0.43;}.cls-13{fill:#c3c3c5;opacity:0.48;}.cls-14{fill:#bcbebf;opacity:0.52;}.cls-15{fill:#b6b8b9;opacity:0.57;}.cls-16{fill:#b0b2b3;opacity:0.62;}.cls-17{fill:#aaacae;opacity:0.67;}.cls-18{fill:#a4a6a8;opacity:0.71;}.cls-19{fill:#9ea0a2;opacity:0.76;}.cls-20{fill:#989a9c;opacity:0.81;}.cls-21{fill:#929496;opacity:0.86;}.cls-22{fill:#8c8e91;opacity:0.9;}.cls-23{fill:#86888b;opacity:0.95;}.Graphic-Style{fill:#808285;}.cls-24{fill:url(#linear-gradient);}.cls-25{fill:url(#linear-gradient-2);}.cls-27{fill:#f7f7f7;opacity:0.06;}.cls-28{fill:#efeff0;opacity:0.13;}.cls-29{fill:#e7e8e8;opacity:0.19;}.cls-30{fill:#dfe0e1;opacity:0.25;}.cls-31{fill:#d7d8d9;opacity:0.31;}.cls-32{fill:#cfd0d1;opacity:0.38;}.cls-33{fill:#c7c8ca;opacity:0.44;}.cls-34{fill:#c0c1c2;opacity:0.5;}.cls-35{fill:#b8b9ba;opacity:0.56;}.cls-36{fill:#b0b1b3;opacity:0.63;}.cls-37{fill:#a8a9ab;opacity:0.69;}.cls-38{fill:#a0a1a4;opacity:0.75;}.cls-39{fill:#98999c;opacity:0.81;}.cls-40{fill:#909294;opacity:0.88;}.cls-41{fill:#888a8d;opacity:0.94;}.cls-42{fill:url(#linear-gradient-3);}.cls-43{fill:url(#linear-gradient-4);}</style><linearGradient id="linear-gradient" y1="30.14" x2="60.29" y2="30.14" gradientUnits="userSpaceOnUse"><stop offset="0" stop-color="#fff"/><stop offset="1" stop-color="#d1d3d4"/></linearGradient><linearGradient id="linear-gradient-2" x1="1.51" y1="30.14" x2="58.78" y2="30.14" gradientUnits="userSpaceOnUse"><stop offset="0" stop-color="#d1d3d4"/><stop offset="1" stop-color="#fff"/></linearGradient><linearGradient id="linear-gradient-3" x1="3.68" y1="29.5" x2="55.32" y2="29.5" gradientUnits="userSpaceOnUse"><stop offset="0" stop-color="#d9b99d"/><stop offset="1" stop-color="#c5956b"/></linearGradient><linearGradient id="linear-gradient-4" x1="7.99" y1="29.5" x2="51.02" y2="29.5" gradientUnits="userSpaceOnUse"><stop offset="0" stop-color="#c5956b"/><stop offset="1" stop-color="#d9b99d"/></linearGradient></defs><title>Artboard 58</title><g class="cls-1"><g id="Layer_1" data-name="Layer 1"><g class="cls-2"><circle class="cls-3" cx="30.14" cy="39.18" r="30.14"/><circle class="cls-4" cx="30.14" cy="38.75" r="30.13"/><circle class="cls-5" cx="30.14" cy="38.32" r="30.11"/><circle class="cls-6" cx="30.14" cy="37.89" r="30.09"/><circle class="cls-7" cx="30.14" cy="37.46" r="30.07"/><circle class="cls-8" cx="30.14" cy="37.03" r="30.05"/><circle class="cls-9" cx="30.14" cy="36.6" r="30.04"/><circle class="cls-10" cx="30.14" cy="36.17" r="30.02"/><circle class="cls-11" cx="30.14" cy="35.74" r="30"/><circle class="cls-12" cx="30.14" cy="35.31" r="29.98"/><circle class="cls-13" cx="30.14" cy="34.88" r="29.96"/><circle class="cls-14" cx="30.14" cy="34.45" r="29.95"/><circle class="cls-15" cx="30.14" cy="34.02" r="29.93"/><circle class="cls-16" cx="30.14" cy="33.59" r="29.91"/><circle class="cls-17" cx="30.14" cy="33.16" r="29.89"/><circle class="cls-18" cx="30.14" cy="32.73" r="29.87"/><circle class="cls-19" cx="30.14" cy="32.3" r="29.86"/><circle class="cls-20" cx="30.14" cy="31.87" r="29.84"/><circle class="cls-21" cx="30.14" cy="31.43" r="29.82"/><circle class="cls-22" cx="30.14" cy="31" r="29.8"/><circle class="cls-23" cx="30.14" cy="30.57" r="29.78"/><circle class="Graphic-Style" cx="30.14" cy="30.14" r="29.77"/></g><circle class="cls-24" cx="30.14" cy="30.14" r="30.14"/><circle class="cls-25" cx="30.14" cy="30.14" r="28.64"/><g class="cls-26"><ellipse class="cls-3" cx="33.53" cy="33.99" rx="22.79" ry="23.24"/><ellipse class="cls-27" cx="33.28" cy="33.71" rx="22.95" ry="23.37"/><ellipse class="cls-28" cx="33.03" cy="33.43" rx="23.11" ry="23.51"/><ellipse class="cls-29" cx="32.78" cy="33.15" rx="23.27" ry="23.64"/><ellipse class="cls-30" cx="32.53" cy="32.87" rx="23.44" ry="23.78"/><ellipse class="cls-31" cx="32.27" cy="32.59" rx="23.6" ry="23.91"/><ellipse class="cls-32" cx="32.02" cy="32.31" rx="23.76" ry="24.05"/><ellipse class="cls-33" cx="31.77" cy="32.02" rx="23.92" ry="24.18"/><ellipse class="cls-34" cx="31.52" cy="31.74" rx="24.09" ry="24.31"/><ellipse class="cls-35" cx="31.27" cy="31.46" rx="24.25" ry="24.45"/><ellipse class="cls-36" cx="31.01" cy="31.18" rx="24.41" ry="24.58"/><ellipse class="cls-37" cx="30.76" cy="30.9" rx="24.57" ry="24.72"/><ellipse class="cls-38" cx="30.51" cy="30.62" rx="24.74" ry="24.85"/><ellipse class="cls-39" cx="30.26" cy="30.34" rx="24.9" ry="24.98"/><ellipse class="cls-40" cx="30.01" cy="30.06" rx="25.06" ry="25.12"/><ellipse class="cls-41" cx="29.75" cy="29.78" rx="25.22" ry="25.25"/><circle class="Graphic-Style" cx="29.5" cy="29.5" r="25.39"/></g><circle class="cls-42" cx="29.5" cy="29.5" r="25.82"/><circle class="cls-43" cx="29.5" cy="29.5" r="21.51"/></g></g></svg>