<?xml version="1.0" encoding="utf-8"?>
<!-- Generator: Adobe Illustrator 21.0.0, SVG Export Plug-In . SVG Version: 6.00 Build 0)  -->
<svg version="1.1" id="Layer_1" xmlns="http://www.w3.org/2000/svg" xmlns:xlink="http://www.w3.org/1999/xlink" x="0px" y="0px"
	 viewBox="0 0 59 59" style="enable-background:new 0 0 59 59;" xml:space="preserve">
<style type="text/css">
	.st0{fill:#0199DE;}
</style>
<g>
	<path class="st0" d="M17.2,39h11.1v3.4H17.2V39z"/>
	<path class="st0" d="M39.1,16.7c0,1.1-0.3,1.8-0.8,2.1l-7.6,4.3c0-1,0.5-1.9,1.7-2.5L39.1,16.7z"/>
	<path class="st0" d="M41.8,36.9c0,0.7-0.3,1.5-0.8,2.4c-0.5,0.9-1.1,1.4-1.7,1.4c-0.9,0-2.8-0.8-5.8-2.5c-1.7,2.7-3.4,4.1-5,4.1h-2
		V39h2c0.6,0,1.5-0.3,2.6-0.9c0.6-0.3,1.1-0.6,1.3-0.8c0.3-0.2,0.5-0.6,0.8-1.1c0.7-1.2,1.4-2.3,2.1-3.5c1-1.5,2.1-2.3,3.1-2.3
		c0.9,0,1.8,0.9,2.5,2.7C41.5,34.5,41.8,35.8,41.8,36.9z M38.9,36.3c0-1.8-0.6-2.7-1.9-2.7c-0.4,0-0.8,0.2-1.1,0.5
		c-0.3,0.3-0.5,0.7-0.6,1.1C36,35.5,37.2,35.9,38.9,36.3z"/>
</g>
</svg>
