<?xml version="1.0" encoding="utf-8"?>
<!-- Generator: Adobe Illustrator 21.0.0, SVG Export Plug-In . SVG Version: 6.00 Build 0)  -->
<svg version="1.1" id="Layer_1" xmlns="http://www.w3.org/2000/svg" xmlns:xlink="http://www.w3.org/1999/xlink" x="0px" y="0px"
	 viewBox="0 0 59 59" style="enable-background:new 0 0 59 59;" xml:space="preserve">
<style type="text/css">
	.st0{fill:#0199DE;}
</style>
<g>
	<path class="st0" d="M28.1,14.1l-0.2,2.4c-0.3-0.2-1-0.6-2-1.3c-2.1,2.4-3.7,3.6-5,3.6c-0.3,0-0.8-0.1-1.4-0.3
		c1.7-0.9,3.4-2.2,5.3-3.9c-1-0.7-1.6-1.5-1.6-2.3c0-0.8,0.3-1.7,0.9-2.7c0.6-1,1.3-1.5,2-1.5c1.1,0,1.7,0.7,1.7,2.2
		c0,0.8-0.3,1.8-0.8,3C27.3,13.5,27.7,13.8,28.1,14.1z M26.8,11.9c0-1-0.5-1.5-1.3-1.5c-0.3,0-0.5,0.2-0.5,0.5
		c0,0.5,0.5,1.1,1.6,1.9C26.8,12.4,26.8,12.2,26.8,11.9z"/>
	<path class="st0" d="M37.1,18.5v0.1c0,0.8,0.2,2.6,0.5,5.4c1,8.5,1.5,13.9,1.5,16.2c0,2.4-0.4,4.2-1.2,5.5s-2.2,2.5-4.3,3.5
		c-2.1,1-4.1,1.5-6.1,1.5c-2.2,0-4-0.5-5.5-1.6c-1.7-1.2-2.5-2.8-2.5-4.9c0-2.2,0.8-5.3,2.4-9.5l0.7,0.4c-1,3.7-1.5,5.8-1.5,6.5
		c0,3.6,2.3,5.3,6.8,5.3c1.9,0,4-0.4,6.2-1.3c2.7-1.1,4.1-2.4,4.1-4c0-1.8-0.3-4.8-0.8-9c-0.6-4.4-1.4-9.7-2.4-15.8
		c-0.5-0.2-0.9-0.8-1.3-1.7c0.5-1.4,1.3-2.4,2.3-3.1c0.1,0.9,0.5,1.7,1.2,2.4c0.7,0.7,1.5,1.1,2.4,1.1l-1.8,3.3L37.1,18.5z"/>
</g>
</svg>
