<?xml version="1.0" encoding="utf-8"?>
<!-- Generator: Adobe Illustrator 16.0.0, SVG Export Plug-In . SVG Version: 6.00 Build 0)  -->
<!DOCTYPE svg PUBLIC "-//W3C//DTD SVG 1.1//EN" "http://www.w3.org/Graphics/SVG/1.1/DTD/svg11.dtd">
<svg version="1.1" id="Isolation_Mode" xmlns="http://www.w3.org/2000/svg" xmlns:xlink="http://www.w3.org/1999/xlink" x="0px"
	 y="0px" width="29.549px" height="34.988px" viewBox="0 0 29.549 34.988" enable-background="new 0 0 29.549 34.988"
	 xml:space="preserve">
<g>
	
		<path opacity="0.3" fill-rule="evenodd" clip-rule="evenodd" stroke="#000000" stroke-width="0.9601" stroke-miterlimit="22.9256" d="
		M28.156,17.361L3.545,3.096C1.662,2.33,0.597,2.831,0.598,4.971L0.55,31.658c0.025,3.406,1.797,3.155,3.855,2.314l23.656-13.601
		C29.193,19.406,29.371,18.41,28.156,17.361z"/>
	<g>
		<g>
			
				<path fill-rule="evenodd" clip-rule="evenodd" fill="none" stroke="#3CA701" stroke-width="1.1081" stroke-miterlimit="22.9256" d="
				M28.16,15.157L3.549,0.891C1.666,0.126,0.601,0.627,0.602,2.766L0.554,29.455c0.025,3.404,1.797,3.154,3.855,2.313l23.656-13.6
				C29.197,17.202,29.375,16.205,28.16,15.157z"/>
			<path fill-rule="evenodd" clip-rule="evenodd" fill="#E6E6E6" d="M28.16,15.157L3.549,0.891C1.666,0.126,0.601,0.627,0.602,2.766
				L0.554,29.455c0.025,3.404,1.797,3.154,3.855,2.313l23.656-13.6C29.197,17.202,29.375,16.205,28.16,15.157z"/>
		</g>
		<path fill-rule="evenodd" clip-rule="evenodd" fill="#FFFFFF" d="M3.549,0.891C1.666,0.125,0.601,0.627,0.602,2.766L0.577,16.733
			l28.406,0.05c0.073-0.529-0.18-1.07-0.825-1.626L3.549,0.891z"/>
	</g>
</g>
</svg>
