<?xml version="1.0" encoding="utf-8"?>
<!-- Generator: Adobe Illustrator 21.1.0, SVG Export Plug-In . SVG Version: 6.00 Build 0)  -->
<svg version="1.1" id="Layer_1" xmlns="http://www.w3.org/2000/svg" xmlns:xlink="http://www.w3.org/1999/xlink" x="0px" y="0px"
	 viewBox="0 0 13.8 13.5" style="enable-background:new 0 0 13.8 13.5;" xml:space="preserve">
<style type="text/css">
	.st0{fill:#00AD68;}
</style>
<path class="st0" d="M9.1,6.9c1-0.7,1.6-1.8,1.6-3.1C10.7,1.7,9,0,6.9,0S3.1,1.7,3.1,3.8c0,1.3,0.7,2.4,1.6,3.1C2,7.8,0,10.4,0,13.5
	h1c0-3.2,2.7-5.9,5.9-5.9s5.9,2.7,5.9,5.9h1C13.8,10.4,11.8,7.8,9.1,6.9z M4.1,3.8C4.1,2.3,5.4,1,6.9,1s2.8,1.2,2.8,2.8
	c0,1.5-1.2,2.8-2.8,2.8C5.4,6.6,4.1,5.3,4.1,3.8z"/>
</svg>
