<?xml version="1.0" encoding="utf-8"?>
<!-- Generator: Adobe Illustrator 16.0.0, SVG Export Plug-In . SVG Version: 6.00 Build 0)  -->
<!DOCTYPE svg PUBLIC "-//W3C//DTD SVG 1.1//EN" "http://www.w3.org/Graphics/SVG/1.1/DTD/svg11.dtd">
<svg version="1.1" id="Isolation_Mode" xmlns="http://www.w3.org/2000/svg" xmlns:xlink="http://www.w3.org/1999/xlink" x="0px"
	 y="0px" width="173.681px" height="32.385px" viewBox="8.598 49.583 173.681 32.385"
	 enable-background="new 8.598 49.583 173.681 32.385" xml:space="preserve">
<g>
	<g id="_1530766352">
		<path fill="#FFFFFF" d="M51.49,59.853c0,1.064-0.263,1.984-0.808,2.754c-0.642,0.87-1.481,1.313-2.521,1.313
			c-1.054,0-1.895-0.441-2.535-1.313c-0.545-0.77-0.824-1.688-0.824-2.754v-4.348h-1.862v4.562c0,1.591,0.527,2.918,1.565,4
			c1.005,1.065,2.224,1.608,3.656,1.608c1.45,0,2.668-0.557,3.674-1.674c1.006-1.098,1.515-2.41,1.515-3.936v-4.563h-1.86V59.853z"
			/>
		<polygon fill="#FFFFFF" points="49.101,52.173 47.292,52.173 47.292,53.996 49.101,53.996 		"/>
		<path fill="#FFFFFF" d="M58.444,55.489c-2.074,0-3.542,1.511-3.542,3.726c0,2.182,1.418,3.738,3.542,3.738
			c0.842,0,1.435-0.277,1.747-0.834c-0.031,1.277-0.609,2.047-1.761,2.082v1.459c2.387,0,3.574-0.982,3.574-2.938v-3.46
			C62.004,57.096,60.62,55.489,58.444,55.489z M58.444,61.296L58.444,61.296c-1.005,0-1.696-0.937-1.696-2.084
			c0-1.115,0.644-2.051,1.614-2.051c1.055,0,1.746,0.854,1.746,2.133C60.108,60.376,59.433,61.296,58.444,61.296z"/>
		<polygon fill="#FFFFFF" points="80.554,52.173 78.76,52.173 78.76,53.996 80.554,53.996 		"/>
		<polygon fill="#FFFFFF" points="82.137,49.583 80.325,49.583 80.325,51.419 82.137,51.419 		"/>
		<polygon fill="#FFFFFF" points="81.874,53.996 83.669,53.996 83.669,52.173 81.874,52.173 		"/>
		<path fill="#FFFFFF" d="M84.987,59.277c0,1.199-0.461,1.807-1.398,1.807H81.79c0.248-0.264,0.38-0.937,0.38-2.002v-3.576h-1.862
			v3.758c0,1.214-0.461,1.82-1.398,1.82h-1.714v-0.099c0.196-0.312,0.296-0.937,0.296-1.903v-3.576H75.63v3.642
			c0,1.298-0.46,1.937-1.4,1.937h-1.005H72.88h-2.688h-0.607H67.36v-5.576h-1.847v6.267c0,1.573-0.756,2.33-2.29,2.33v1.573
			c2.241,0,3.741-0.969,4.021-2.725h2.34h0.607h2.688h0.345h10.43c1.876,0,3.196-1.541,3.196-3.902v-3.543h-1.863L84.987,59.277
			L84.987,59.277z"/>
		<path fill="#FFFFFF" d="M95.747,59.36c0,0.593-0.049,0.984-0.131,1.183c-0.183,0.359-0.56,0.541-1.172,0.541h-0.939H92.88h-0.461
			c-0.692,0-1.17-0.099-1.418-0.278c-0.344-0.247-0.526-0.771-0.526-1.575v-6.855h-1.829v7.595c0,0.901,0.214,1.608,0.659,2.133
			c0.479,0.574,1.153,0.853,2.043,0.853h1.533h0.625h1.32c1.847,0,2.768-0.983,2.768-2.97v-4.478h-1.845v3.853H95.747z"/>
		<polygon fill="#FFFFFF" points="97.559,52.173 95.765,52.173 95.765,53.996 97.559,53.996 		"/>
		<polygon fill="#FFFFFF" points="139.361,52.173 137.549,52.173 137.549,53.996 139.361,53.996 		"/>
		<path fill="#FFFFFF" d="M154.683,59.36c0,0.593-0.048,0.984-0.131,1.183c-0.183,0.359-0.562,0.541-1.171,0.541h-0.99h-0.574
			h-1.072v-0.476c0-1.099-0.347-2.003-1.021-2.741c-0.675-0.736-1.564-1.099-2.67-1.099c-1.102,0-1.992,0.36-2.684,1.065
			c-0.677,0.705-1.021,1.607-1.021,2.709c0,0.18,0,0.358,0.019,0.539h-1.236h-0.543h-2.621c0.265-0.313,0.396-0.936,0.396-1.902
			v-3.674h-1.829v3.771c0,0.576-0.066,1.002-0.196,1.247c-0.199,0.378-0.563,0.559-1.105,0.559h-1.318h-0.393h-2.82h-0.427h-1.042
			c0-4.134-2.105-7.219-5.683-7.938l-0.23,1.756c2.389,0.49,4.085,2.919,4.085,5.677c0,0.163,0,0.326-0.016,0.508h-2.175
			c0.279-0.672,0.428-1.248,0.428-1.705c0-1.971-1.318-3.185-3.245-3.185s-3.262,1.214-3.262,3.185c0,0.476,0.149,1.033,0.43,1.705
			h-1.913h-0.36h-2.573h-0.705h-2.078c0.065-0.345,0.097-0.672,0.097-1.017v-7.694h-1.858v7.48c0,2.313-1.385,4.066-3.329,4.066
			c-2.01,0-3.361-1.803-3.361-4.066v-1.395h-1.861v1.607c0,3.083,2.354,5.607,5.223,5.607c1.812,0,3.508-1.016,4.447-2.723h2.722
			h0.705h2.573h0.36h12.623h0.427h2.82h0.393h6.676h0.543h1.978c0.709,0.951,1.682,1.428,2.946,1.428
			c1.289,0,2.274-0.477,2.984-1.428h1.779h0.574h1.37c1.844,0,2.767-0.984,2.767-2.97v-7.61h-1.845v6.989H154.683z M123.393,61.132
			L123.393,61.132c-0.889,0-1.516-0.756-1.516-1.756c0-0.984,0.545-1.724,1.516-1.724c0.906,0,1.516,0.688,1.516,1.724
			C124.908,60.361,124.266,61.132,123.393,61.132z M148.42,62.05L148.42,62.05c-0.313,0.41-0.757,0.623-1.315,0.623
			c-1.138,0-1.862-0.967-1.862-2.149c0-0.571,0.148-1.065,0.429-1.442c0.33-0.442,0.774-0.656,1.336-0.656
			c0.574,0,1.055,0.229,1.4,0.674c0.295,0.411,0.443,0.918,0.443,1.492C148.85,61.181,148.701,61.673,148.42,62.05z"/>
		<polygon fill="#FFFFFF" points="158.225,62.951 160.054,62.951 160.054,52.355 158.225,52.355 		"/>
		<path fill="#FFFFFF" d="M167.516,61.772c0,1.573-0.755,2.33-2.287,2.33v1.573c2.832,0,4.134-1.23,4.134-4.184v-5.986h-1.847
			V61.772z"/>
		<polygon fill="#FFFFFF" points="171.059,62.951 172.888,62.951 172.888,52.355 171.059,52.355 		"/>
		<path fill="#FFFFFF" d="M178.934,55.767c-0.428-0.146-0.756-0.214-0.987-0.229c-0.23-0.017-0.808-0.033-1.713-0.033v1.673
			c0.593,0,1.151,0.032,1.664,0.147c1.664,0.36,2.503,1.606,2.503,3.756h-5.962v1.869h7.822v-1.869
			C182.246,58.278,181.142,56.505,178.934,55.767z"/>
		<path fill="#FFFFFF" d="M46.548,72.677c0.54,0,1.041,0.089,1.505,0.269c0.465,0.179,0.867,0.446,1.206,0.802
			c0.339,0.357,0.604,0.805,0.797,1.34c0.191,0.533,0.287,1.164,0.287,1.886c0,0.634-0.078,1.219-0.233,1.755
			c-0.156,0.535-0.393,0.996-0.709,1.385c-0.315,0.391-0.711,0.698-1.183,0.922c-0.472,0.223-1.028,0.334-1.669,0.334h-3.607v-8.689
			h3.606V72.677z M46.42,79.76L46.42,79.76c0.265,0,0.522-0.046,0.772-0.134c0.249-0.088,0.473-0.237,0.667-0.444
			c0.195-0.206,0.351-0.478,0.469-0.81c0.116-0.332,0.175-0.738,0.175-1.217c0-0.438-0.042-0.835-0.123-1.188
			c-0.081-0.354-0.215-0.655-0.403-0.906c-0.188-0.252-0.436-0.443-0.745-0.579c-0.308-0.132-0.688-0.2-1.142-0.2h-1.312v5.478
			H46.42z"/>
		<path fill="#FFFFFF" d="M51.374,77.009c0.021-0.405,0.12-0.742,0.293-1.01c0.17-0.269,0.391-0.482,0.654-0.645
			c0.267-0.162,0.564-0.277,0.897-0.35c0.332-0.068,0.663-0.103,1.001-0.103c0.304,0,0.611,0.022,0.924,0.066
			c0.313,0.045,0.598,0.132,0.855,0.261c0.256,0.13,0.469,0.311,0.632,0.542c0.164,0.231,0.247,0.537,0.247,0.919v3.273
			c0,0.283,0.015,0.556,0.047,0.815c0.031,0.261,0.085,0.454,0.163,0.584H55.4c-0.029-0.098-0.055-0.198-0.073-0.3
			c-0.02-0.1-0.034-0.203-0.041-0.309c-0.268,0.283-0.579,0.481-0.938,0.596c-0.359,0.113-0.727,0.17-1.101,0.17
			c-0.288,0-0.56-0.036-0.809-0.107c-0.251-0.074-0.469-0.188-0.655-0.342c-0.188-0.156-0.334-0.35-0.438-0.584
			c-0.106-0.234-0.16-0.516-0.16-0.84c0-0.357,0.062-0.65,0.185-0.884c0.119-0.229,0.274-0.416,0.468-0.554
			c0.19-0.14,0.409-0.239,0.655-0.309c0.246-0.07,0.493-0.124,0.742-0.166c0.251-0.041,0.496-0.074,0.738-0.097
			c0.242-0.024,0.457-0.062,0.646-0.109c0.185-0.051,0.334-0.12,0.443-0.215c0.11-0.092,0.16-0.228,0.151-0.405
			c0-0.188-0.029-0.337-0.087-0.445c-0.059-0.109-0.139-0.194-0.234-0.256c-0.098-0.061-0.21-0.102-0.34-0.121
			c-0.128-0.02-0.266-0.03-0.414-0.03c-0.329,0-0.585,0.073-0.775,0.219c-0.187,0.147-0.296,0.392-0.328,0.729h-1.66V77.009z
			 M55.214,78.287L55.214,78.287c-0.07,0.063-0.158,0.117-0.263,0.152c-0.105,0.036-0.22,0.066-0.341,0.092
			c-0.119,0.023-0.248,0.043-0.38,0.061c-0.133,0.016-0.266,0.037-0.397,0.062c-0.125,0.024-0.247,0.058-0.369,0.099
			c-0.121,0.039-0.228,0.096-0.316,0.164s-0.162,0.154-0.216,0.263c-0.055,0.104-0.082,0.239-0.082,0.399
			c0,0.153,0.027,0.283,0.082,0.389c0.055,0.106,0.129,0.189,0.224,0.252c0.094,0.061,0.201,0.104,0.327,0.127
			c0.125,0.023,0.254,0.035,0.387,0.035c0.329,0,0.583-0.055,0.762-0.168c0.179-0.116,0.312-0.252,0.396-0.408
			c0.086-0.159,0.141-0.319,0.158-0.48c0.021-0.164,0.029-0.294,0.029-0.391L55.214,78.287L55.214,78.287z"/>
		<path fill="#FFFFFF" d="M59.746,75.074v1.168h0.022c0.077-0.193,0.184-0.373,0.316-0.541c0.132-0.166,0.284-0.309,0.456-0.427
			c0.173-0.117,0.354-0.208,0.551-0.272c0.195-0.065,0.396-0.098,0.61-0.098c0.107,0,0.229,0.02,0.36,0.061v1.605
			c-0.077-0.016-0.172-0.029-0.278-0.043c-0.111-0.011-0.217-0.017-0.317-0.017c-0.304,0-0.562,0.051-0.774,0.157
			c-0.209,0.105-0.38,0.25-0.509,0.434c-0.127,0.184-0.219,0.396-0.273,0.638c-0.056,0.243-0.082,0.507-0.082,0.792v2.835h-1.663
			v-6.292H59.746z"/>
		<path fill="#FFFFFF" d="M70.321,72.677l3.126,8.689h-1.908l-0.631-1.937H67.78l-0.655,1.937h-1.852l3.161-8.689H70.321z
			 M70.426,78.007L70.426,78.007l-1.054-3.188h-0.023l-1.091,3.188H70.426z"/>
		<polygon fill="#FFFFFF" points="75.707,72.677 75.707,81.366 74.043,81.366 74.043,72.677 		"/>
		<polygon fill="#FFFFFF" points="83.038,72.677 84.994,78.653 85.016,78.653 86.866,72.677 89.454,72.677 89.454,81.366 
			87.733,81.366 87.733,75.207 87.71,75.207 85.662,81.366 84.244,81.366 82.194,75.268 82.17,75.268 82.17,81.366 80.448,81.366 
			80.448,72.677 		"/>
		<path fill="#FFFFFF" d="M90.824,77.009c0.022-0.405,0.12-0.742,0.293-1.01c0.171-0.269,0.391-0.482,0.655-0.645
			s0.564-0.277,0.896-0.35c0.333-0.068,0.665-0.103,1.002-0.103c0.304,0,0.612,0.022,0.925,0.066
			c0.313,0.045,0.596,0.132,0.854,0.261c0.257,0.13,0.469,0.311,0.632,0.542c0.165,0.231,0.246,0.537,0.246,0.919v3.273
			c0,0.283,0.017,0.556,0.048,0.815c0.03,0.261,0.084,0.454,0.162,0.584h-1.687c-0.03-0.098-0.057-0.198-0.075-0.3
			c-0.021-0.1-0.034-0.203-0.042-0.309c-0.266,0.283-0.579,0.481-0.938,0.596c-0.358,0.113-0.726,0.17-1.102,0.17
			c-0.287,0-0.558-0.036-0.808-0.107c-0.25-0.074-0.468-0.188-0.656-0.342c-0.187-0.156-0.333-0.35-0.437-0.584
			c-0.107-0.234-0.16-0.516-0.16-0.84c0-0.357,0.062-0.65,0.182-0.884c0.12-0.229,0.276-0.416,0.468-0.554
			c0.191-0.14,0.41-0.239,0.654-0.309c0.248-0.07,0.495-0.124,0.745-0.166c0.25-0.041,0.496-0.074,0.737-0.097
			c0.242-0.024,0.457-0.062,0.646-0.109c0.187-0.051,0.334-0.12,0.445-0.215c0.108-0.092,0.16-0.228,0.151-0.405
			c0-0.188-0.03-0.337-0.087-0.445c-0.06-0.109-0.14-0.194-0.235-0.256c-0.099-0.061-0.21-0.102-0.338-0.121
			c-0.13-0.02-0.27-0.03-0.417-0.03c-0.328,0-0.585,0.073-0.773,0.219c-0.188,0.147-0.298,0.392-0.329,0.729h-1.658V77.009z
			 M94.665,78.287L94.665,78.287c-0.07,0.063-0.159,0.117-0.265,0.152c-0.104,0.036-0.22,0.066-0.339,0.092
			c-0.121,0.023-0.248,0.043-0.381,0.061c-0.133,0.016-0.266,0.037-0.397,0.062c-0.125,0.024-0.247,0.058-0.37,0.099
			c-0.121,0.039-0.227,0.096-0.316,0.164s-0.162,0.154-0.217,0.263c-0.054,0.104-0.081,0.239-0.081,0.399
			c0,0.153,0.027,0.283,0.081,0.389c0.056,0.106,0.128,0.189,0.223,0.252c0.093,0.061,0.204,0.104,0.328,0.127
			c0.125,0.023,0.254,0.035,0.386,0.035c0.328,0,0.582-0.055,0.764-0.168c0.179-0.116,0.311-0.252,0.396-0.408
			c0.085-0.159,0.14-0.319,0.158-0.48c0.02-0.164,0.03-0.294,0.03-0.391V78.287z"/>
		<path fill="#FFFFFF" d="M99.197,75.074v0.877h0.035c0.21-0.365,0.484-0.63,0.818-0.797c0.336-0.168,0.68-0.25,1.031-0.25
			c0.444,0,0.811,0.063,1.095,0.188c0.285,0.127,0.509,0.301,0.673,0.523s0.28,0.494,0.345,0.814c0.065,0.32,0.1,0.676,0.1,1.066
			v3.868h-1.662V77.81c0-0.52-0.079-0.907-0.236-1.16c-0.154-0.258-0.433-0.386-0.831-0.386c-0.453,0-0.781,0.14-0.982,0.421
			c-0.203,0.279-0.305,0.741-0.305,1.38v3.299h-1.664v-6.292h1.584V75.074z"/>
		<path fill="#FFFFFF" d="M106.222,72.677v3.273h0.036c0.211-0.365,0.479-0.63,0.808-0.797c0.328-0.168,0.647-0.25,0.96-0.25
			c0.445,0,0.811,0.063,1.097,0.188c0.282,0.126,0.509,0.3,0.672,0.522s0.279,0.494,0.345,0.814c0.066,0.32,0.099,0.676,0.099,1.066
			v3.868h-1.66V77.81c0-0.52-0.078-0.907-0.235-1.16c-0.156-0.258-0.434-0.386-0.833-0.386c-0.452,0-0.781,0.14-0.982,0.421
			c-0.204,0.279-0.305,0.741-0.305,1.38v3.299h-1.662v-8.688h1.662V72.677z"/>
		<path fill="#FFFFFF" d="M111.434,77.009c0.024-0.405,0.121-0.742,0.293-1.01c0.17-0.269,0.391-0.482,0.655-0.645
			s0.563-0.277,0.896-0.35c0.33-0.068,0.665-0.103,1-0.103c0.305,0,0.613,0.022,0.925,0.066c0.313,0.045,0.598,0.132,0.855,0.261
			c0.257,0.13,0.468,0.311,0.631,0.542c0.164,0.231,0.247,0.537,0.247,0.919v3.273c0,0.283,0.015,0.556,0.047,0.815
			c0.031,0.261,0.085,0.454,0.163,0.584h-1.687c-0.031-0.098-0.058-0.198-0.076-0.3c-0.019-0.1-0.034-0.203-0.041-0.309
			c-0.267,0.283-0.578,0.481-0.937,0.596c-0.358,0.113-0.727,0.17-1.1,0.17c-0.291,0-0.561-0.036-0.81-0.107
			c-0.25-0.074-0.47-0.188-0.656-0.342c-0.188-0.156-0.333-0.35-0.439-0.584c-0.104-0.234-0.157-0.516-0.157-0.84
			c0-0.357,0.06-0.65,0.182-0.884c0.121-0.229,0.278-0.416,0.469-0.554c0.19-0.14,0.41-0.239,0.655-0.309
			c0.247-0.07,0.495-0.124,0.745-0.166c0.25-0.041,0.495-0.074,0.737-0.097c0.241-0.024,0.455-0.062,0.644-0.109
			c0.188-0.051,0.336-0.12,0.445-0.215c0.109-0.092,0.161-0.228,0.151-0.405c0-0.188-0.028-0.337-0.086-0.445
			c-0.059-0.109-0.139-0.194-0.234-0.256c-0.099-0.061-0.21-0.102-0.341-0.121c-0.129-0.02-0.267-0.03-0.414-0.03
			c-0.328,0-0.588,0.073-0.774,0.219c-0.187,0.147-0.297,0.392-0.328,0.729h-1.661V77.009z M115.274,78.287L115.274,78.287
			c-0.069,0.063-0.157,0.117-0.263,0.152c-0.105,0.036-0.218,0.066-0.339,0.092c-0.123,0.023-0.249,0.043-0.381,0.061
			c-0.133,0.016-0.266,0.037-0.399,0.062c-0.124,0.024-0.247,0.058-0.368,0.099c-0.12,0.039-0.226,0.096-0.314,0.164
			c-0.09,0.068-0.163,0.154-0.218,0.263c-0.056,0.104-0.082,0.239-0.082,0.399c0,0.153,0.026,0.283,0.082,0.389
			c0.055,0.106,0.129,0.189,0.223,0.252c0.095,0.061,0.202,0.104,0.327,0.127s0.254,0.035,0.386,0.035
			c0.329,0,0.582-0.055,0.762-0.168c0.181-0.116,0.313-0.252,0.397-0.408c0.087-0.159,0.139-0.319,0.158-0.48
			c0.02-0.164,0.028-0.294,0.028-0.391L115.274,78.287L115.274,78.287z"/>
		<polygon fill="#FFFFFF" points="119.936,72.677 119.936,81.366 118.272,81.366 118.272,72.677 		"/>
		<path fill="#FFFFFF" d="M128.448,72.677c0.522,0,0.968,0.078,1.334,0.236c0.368,0.158,0.664,0.368,0.896,0.627
			c0.23,0.261,0.396,0.558,0.503,0.889c0.105,0.333,0.157,0.679,0.157,1.035c0,0.349-0.052,0.69-0.157,1.027
			c-0.105,0.338-0.271,0.635-0.503,0.895c-0.232,0.261-0.528,0.47-0.896,0.627c-0.366,0.158-0.812,0.236-1.334,0.236h-1.933v3.116
			h-1.839v-8.688H128.448z M127.945,76.766L127.945,76.766c0.21,0,0.414-0.017,0.609-0.048c0.194-0.031,0.366-0.096,0.516-0.19
			c0.147-0.093,0.268-0.224,0.355-0.396c0.091-0.17,0.136-0.393,0.136-0.668c0-0.274-0.045-0.5-0.136-0.67
			c-0.089-0.17-0.208-0.303-0.355-0.396c-0.148-0.093-0.32-0.155-0.516-0.188c-0.195-0.031-0.399-0.049-0.609-0.049h-1.429v2.604
			H127.945z"/>
		<path fill="#FFFFFF" d="M136.411,81.366V80.49h-0.035c-0.211,0.365-0.484,0.629-0.819,0.792c-0.336,0.161-0.681,0.241-1.03,0.241
			c-0.444,0-0.811-0.063-1.095-0.182c-0.285-0.121-0.51-0.295-0.674-0.52c-0.164-0.222-0.278-0.494-0.346-0.814
			c-0.066-0.32-0.1-0.676-0.1-1.063v-3.87h1.662v3.555c0,0.521,0.077,0.906,0.235,1.162c0.155,0.256,0.433,0.383,0.83,0.383
			c0.453,0,0.781-0.141,0.983-0.42s0.306-0.738,0.306-1.381v-3.299h1.662v6.292H136.411z"/>
		<path fill="#FFFFFF" d="M140.922,72.677v3.164h0.021c0.204-0.324,0.479-0.563,0.825-0.711c0.35-0.15,0.71-0.227,1.083-0.227
			c0.307,0,0.604,0.064,0.901,0.194c0.298,0.129,0.563,0.329,0.804,0.597c0.236,0.268,0.431,0.609,0.579,1.027
			c0.147,0.419,0.221,0.915,0.221,1.49c0,0.576-0.072,1.074-0.221,1.49c-0.148,0.418-0.343,0.762-0.579,1.029
			c-0.239,0.27-0.506,0.467-0.804,0.596c-0.297,0.131-0.596,0.194-0.901,0.194c-0.443,0-0.844-0.071-1.193-0.218
			c-0.352-0.146-0.617-0.396-0.798-0.742h-0.022v0.803h-1.579v-8.688L140.922,72.677L140.922,72.677z M143.614,77.458
			L143.614,77.458c-0.055-0.242-0.141-0.457-0.258-0.645c-0.118-0.188-0.264-0.334-0.438-0.445
			c-0.178-0.107-0.391-0.162-0.641-0.162c-0.242,0-0.453,0.055-0.634,0.162c-0.179,0.111-0.328,0.26-0.444,0.445
			c-0.114,0.188-0.203,0.402-0.257,0.645c-0.055,0.244-0.083,0.5-0.083,0.768c0,0.26,0.028,0.511,0.083,0.756
			c0.054,0.243,0.143,0.458,0.257,0.645c0.116,0.188,0.267,0.334,0.444,0.443c0.181,0.11,0.392,0.164,0.634,0.164
			c0.25,0,0.463-0.054,0.641-0.164c0.174-0.109,0.318-0.257,0.438-0.443c0.117-0.187,0.203-0.4,0.258-0.645
			c0.057-0.245,0.081-0.496,0.081-0.756C143.695,77.958,143.67,77.703,143.614,77.458z"/>
		<polygon fill="#FFFFFF" points="148.123,72.677 148.123,81.366 146.461,81.366 146.461,72.677 		"/>
		<path fill="#FFFFFF" d="M149.48,74.1v-1.423h1.664V74.1H149.48z M151.144,75.074L151.144,75.074v6.292h-1.664v-6.292H151.144z"/>
		<path fill="#FFFFFF" d="M153.854,79.803c0.073,0.134,0.169,0.243,0.288,0.327c0.116,0.086,0.251,0.148,0.403,0.189
			c0.15,0.04,0.31,0.061,0.475,0.061c0.116,0,0.239-0.014,0.367-0.043c0.13-0.027,0.246-0.073,0.354-0.133
			c0.104-0.063,0.192-0.144,0.263-0.244c0.07-0.102,0.105-0.229,0.105-0.385c0-0.258-0.166-0.453-0.498-0.582
			c-0.333-0.133-0.795-0.26-1.388-0.392c-0.243-0.056-0.479-0.123-0.708-0.198c-0.229-0.078-0.437-0.18-0.614-0.307
			c-0.182-0.124-0.325-0.284-0.435-0.475c-0.109-0.189-0.164-0.422-0.164-0.699c0-0.406,0.075-0.738,0.228-0.997
			c0.153-0.259,0.354-0.466,0.604-0.614c0.252-0.15,0.532-0.256,0.844-0.316c0.313-0.063,0.632-0.092,0.96-0.092
			s0.646,0.031,0.954,0.098c0.309,0.064,0.584,0.175,0.826,0.33c0.241,0.153,0.442,0.356,0.603,0.612
			c0.161,0.257,0.257,0.578,0.286,0.968h-1.579c-0.023-0.332-0.145-0.559-0.363-0.676s-0.478-0.177-0.771-0.177
			c-0.095,0-0.195,0.006-0.305,0.019c-0.11,0.014-0.209,0.039-0.298,0.078c-0.092,0.042-0.166,0.102-0.23,0.178
			c-0.062,0.078-0.094,0.182-0.094,0.312c0,0.153,0.055,0.28,0.166,0.377c0.106,0.099,0.251,0.176,0.426,0.235
			c0.176,0.062,0.376,0.117,0.604,0.164c0.227,0.051,0.457,0.104,0.688,0.16c0.244,0.057,0.479,0.125,0.712,0.207
			c0.228,0.08,0.434,0.188,0.61,0.321c0.182,0.136,0.327,0.302,0.435,0.498c0.11,0.199,0.163,0.445,0.163,0.737
			c0,0.414-0.08,0.761-0.235,1.041c-0.163,0.279-0.371,0.505-0.628,0.675c-0.26,0.171-0.555,0.29-0.886,0.358
			s-0.67,0.104-1.013,0.104c-0.352,0-0.693-0.036-1.03-0.107c-0.335-0.074-0.635-0.194-0.896-0.367
			c-0.264-0.17-0.477-0.395-0.643-0.676c-0.171-0.277-0.261-0.631-0.277-1.051h1.581C153.742,79.51,153.778,79.669,153.854,79.803z"
			/>
		<path fill="#FFFFFF" d="M160.406,72.677v3.273h0.034c0.211-0.365,0.48-0.63,0.809-0.797c0.327-0.168,0.646-0.25,0.961-0.25
			c0.444,0,0.81,0.063,1.095,0.188c0.286,0.126,0.51,0.3,0.672,0.522c0.164,0.225,0.278,0.494,0.347,0.814
			c0.065,0.32,0.101,0.676,0.101,1.066v3.868h-1.663V77.81c0-0.52-0.079-0.907-0.234-1.16c-0.154-0.258-0.433-0.386-0.832-0.386
			c-0.452,0-0.78,0.14-0.982,0.421c-0.202,0.279-0.304,0.741-0.304,1.38v3.299h-1.662v-8.688h1.66V72.677z"/>
		<path fill="#FFFFFF" d="M167.467,79.857c0.251,0.252,0.609,0.377,1.078,0.377c0.334,0,0.624-0.086,0.864-0.262
			c0.241-0.174,0.392-0.358,0.445-0.555h1.464c-0.233,0.756-0.594,1.297-1.076,1.619c-0.483,0.324-1.069,0.486-1.757,0.486
			c-0.477,0-0.906-0.077-1.289-0.236c-0.382-0.158-0.704-0.383-0.973-0.676c-0.264-0.291-0.47-0.642-0.613-1.047
			c-0.146-0.406-0.217-0.852-0.217-1.339c0-0.47,0.074-0.909,0.225-1.313c0.146-0.406,0.355-0.757,0.629-1.052
			c0.274-0.297,0.601-0.528,0.979-0.702c0.377-0.169,0.799-0.254,1.26-0.254c0.514,0,0.964,0.104,1.347,0.311
			s0.696,0.486,0.941,0.834c0.246,0.351,0.424,0.746,0.533,1.192s0.146,0.912,0.117,1.398h-4.368
			C167.079,79.201,167.216,79.606,167.467,79.857z M169.345,76.546L169.345,76.546c-0.198-0.228-0.502-0.34-0.906-0.34
			c-0.265,0-0.485,0.047-0.662,0.141c-0.178,0.093-0.315,0.208-0.422,0.346c-0.105,0.139-0.18,0.284-0.224,0.438
			c-0.041,0.154-0.066,0.291-0.075,0.414h2.705C169.683,77.107,169.545,76.775,169.345,76.546z"/>
		<path fill="#FFFFFF" d="M173.988,75.074v1.168h0.022c0.079-0.193,0.185-0.373,0.319-0.541c0.131-0.166,0.283-0.309,0.454-0.427
			c0.173-0.117,0.354-0.208,0.552-0.272c0.192-0.065,0.396-0.098,0.608-0.098c0.107,0,0.23,0.02,0.36,0.061v1.605
			c-0.077-0.016-0.169-0.029-0.279-0.043c-0.108-0.011-0.216-0.017-0.316-0.017c-0.305,0-0.562,0.051-0.772,0.157
			c-0.21,0.105-0.38,0.25-0.509,0.434c-0.13,0.184-0.22,0.396-0.275,0.638c-0.054,0.243-0.082,0.507-0.082,0.792v2.835h-1.664
			v-6.292H173.988z"/>
		<path fill="#FFFFFF" d="M178.363,79.803c0.072,0.134,0.169,0.243,0.287,0.327c0.115,0.086,0.25,0.148,0.402,0.189
			c0.154,0.04,0.311,0.061,0.474,0.061c0.119,0,0.24-0.014,0.37-0.043c0.13-0.027,0.246-0.073,0.352-0.133
			c0.104-0.063,0.193-0.144,0.265-0.244c0.07-0.102,0.105-0.229,0.105-0.385c0-0.258-0.166-0.453-0.497-0.582
			c-0.333-0.133-0.795-0.26-1.39-0.392c-0.242-0.056-0.478-0.123-0.71-0.198c-0.229-0.078-0.434-0.18-0.612-0.307
			c-0.181-0.124-0.325-0.284-0.434-0.475c-0.11-0.189-0.165-0.422-0.165-0.699c0-0.406,0.077-0.738,0.229-0.997
			c0.151-0.259,0.354-0.466,0.604-0.614c0.247-0.15,0.53-0.256,0.842-0.316c0.313-0.062,0.633-0.092,0.961-0.092
			c0.326,0,0.646,0.031,0.953,0.098c0.31,0.064,0.585,0.175,0.825,0.33c0.244,0.153,0.444,0.356,0.604,0.612
			c0.159,0.257,0.256,0.578,0.287,0.968h-1.581c-0.022-0.332-0.146-0.559-0.362-0.676c-0.218-0.117-0.478-0.177-0.773-0.177
			c-0.094,0-0.192,0.006-0.304,0.019c-0.109,0.014-0.209,0.039-0.299,0.078c-0.091,0.042-0.168,0.102-0.229,0.178
			c-0.061,0.078-0.094,0.182-0.094,0.312c0,0.153,0.056,0.28,0.165,0.377c0.108,0.099,0.251,0.176,0.426,0.235
			c0.18,0.062,0.379,0.117,0.605,0.164c0.226,0.051,0.455,0.104,0.688,0.16c0.242,0.057,0.479,0.125,0.709,0.207
			c0.229,0.08,0.437,0.188,0.614,0.321c0.18,0.136,0.324,0.302,0.435,0.498c0.108,0.199,0.164,0.445,0.164,0.737
			c0,0.414-0.082,0.761-0.239,1.041c-0.16,0.279-0.37,0.505-0.626,0.675c-0.26,0.171-0.554,0.29-0.887,0.358
			s-0.669,0.104-1.012,0.104c-0.351,0-0.695-0.036-1.031-0.107c-0.336-0.074-0.636-0.194-0.896-0.367
			c-0.262-0.17-0.477-0.395-0.645-0.676c-0.168-0.277-0.261-0.631-0.272-1.051h1.58C178.252,79.51,178.289,79.669,178.363,79.803z"
			/>
	</g>
	<g>
		<path fill="none" d="M28.669,57.458c-0.321,0.603-0.504,1.291-0.504,2.021c0,2.334,1.862,4.237,4.18,4.312
			c0.047,0.002,0.093,0.008,0.141,0.008c0.938,0,1.805-0.305,2.513-0.813c0.14-0.1,0.271-0.209,0.398-0.323
			c0.863-0.791,1.409-1.924,1.409-3.183c0-2.383-1.938-4.321-4.32-4.321c-0.463,0-0.908,0.075-1.327,0.21
			c-0.162,0.054-0.319,0.117-0.472,0.188C29.823,55.953,29.113,56.624,28.669,57.458z"/>
		<path fill="#FFFFFF" d="M32.485,55.159c2.381,0,4.32,1.938,4.32,4.321c0,1.259-0.545,2.392-1.409,3.183
			c0.057,0.157,0.113,0.317,0.168,0.478c1.043-0.877,1.707-2.191,1.707-3.661c0-2.644-2.143-4.786-4.786-4.786
			c-0.583,0-1.14,0.109-1.656,0.3c0.113,0.122,0.219,0.253,0.329,0.376C31.576,55.234,32.022,55.159,32.485,55.159z"/>
		<path fill="#FFFFFF" d="M30.686,55.556c0.153-0.07,0.31-0.134,0.472-0.188c-0.11-0.123-0.216-0.254-0.329-0.376
			c-0.164,0.061-0.322,0.129-0.476,0.206C30.465,55.317,30.576,55.436,30.686,55.556z"/>
		<path fill="#FFFFFF" d="M34.998,62.986c0.056,0.154,0.109,0.31,0.162,0.463c0.141-0.095,0.275-0.199,0.404-0.309
			c-0.055-0.16-0.111-0.32-0.168-0.478C35.269,62.777,35.137,62.886,34.998,62.986z"/>
		<path fill="#FFFFFF" d="M32.485,63.799c-0.048,0-0.094-0.006-0.141-0.008c0.056,0.155,0.108,0.315,0.162,0.473
			c0.982-0.003,1.896-0.304,2.654-0.815c-0.052-0.153-0.106-0.309-0.162-0.463C34.289,63.495,33.422,63.799,32.485,63.799z"/>
		<path fill="#FFFFFF" d="M28.34,57.092c0.112,0.118,0.22,0.243,0.329,0.366c0.444-0.835,1.155-1.506,2.017-1.902
			c-0.109-0.12-0.221-0.239-0.333-0.357C29.51,55.619,28.809,56.279,28.34,57.092z"/>
		<path fill="#FFFFFF" d="M28.164,59.48c0-0.73,0.183-1.419,0.504-2.021c-0.109-0.123-0.217-0.248-0.329-0.366
			c-0.405,0.702-0.642,1.517-0.642,2.387c0,2.644,2.144,4.786,4.787,4.786c0.007,0,0.014-0.001,0.021-0.001
			c-0.054-0.157-0.106-0.317-0.162-0.473C30.027,63.717,28.164,61.814,28.164,59.48z"/>
		<path fill="none" d="M26.347,62.874c0.065-0.245,0.219-0.614,0.57-0.876c-0.406-1.804-2.014-3.151-3.94-3.151
			c-1.929,0-3.537,1.355-3.939,3.163c0.131,0.061,0.505,0.273,0.59,0.835c0.248-0.168,0.656-0.646,0.489-1.917l-0.049-0.38
			l0.299,0.241c0.019,0.016,1.756,1.382,4.247,0.533c-0.202-0.111-0.457-0.272-0.65-0.452l-0.284-0.267h2.174l-0.01,0.163
			C25.843,60.784,25.761,62.284,26.347,62.874z"/>
		<g>
			<path fill="#FFFFFF" d="M21.426,64.865c0.317,0.527,0.893,0.88,1.55,0.88c0.66,0,1.236-0.353,1.553-0.88
				c-0.453,0.278-0.981,0.332-1.553,0.332C22.407,65.197,21.877,65.143,21.426,64.865z"/>
			<path fill="#FFFFFF" d="M23.625,63.868c-0.1-0.284-0.359-0.474-0.649-0.474c-0.29,0-0.551,0.19-0.648,0.477
				c-0.027,0.078,0.015,0.164,0.094,0.19c0.016,0.004,0.032,0.009,0.049,0.009c0.063,0,0.12-0.04,0.142-0.103
				c0.056-0.164,0.203-0.275,0.364-0.275c0.162,0,0.309,0.111,0.365,0.273c0.027,0.079,0.113,0.12,0.191,0.092
				C23.611,64.03,23.651,63.945,23.625,63.868z"/>
		</g>
		<circle fill="#FFFFFF" cx="24.581" cy="62.835" r="0.605"/>
		<circle fill="#FFFFFF" cx="21.374" cy="62.835" r="0.605"/>
		<path fill="none" d="M23.014,58.433c2.028,0,3.744,1.422,4.33,3.254c0.006-0.092,0.014-0.181,0.014-0.273
			c0-2.399-1.945-4.344-4.344-4.344c-2.4,0-4.344,1.944-4.344,4.344c0,0.093,0.009,0.182,0.013,0.273
			C19.27,59.855,20.988,58.433,23.014,58.433z"/>
		<rect x="22.807" y="75.268" fill="#0E7F6A" width="0.326" height="0.327"/>
		<path fill="none" d="M22.969,67.247c-0.567,0-1.11-0.109-1.608-0.309c-0.003,0.033-0.007,0.066-0.007,0.102
			c0,0.891,0.723,1.615,1.615,1.615s1.614-0.725,1.614-1.615c0-0.066,0.001-0.025-0.005-0.088c-0.355,0.152-0.724,0.232-1.113,0.267
			C23.302,67.236,23.138,67.247,22.969,67.247z"/>
		<g>
			<path fill="none" d="M22.969,68.655c0.892,0,1.614-0.725,1.614-1.615c0-0.066,0.001-0.025-0.005-0.088
				c-0.355,0.152-0.724,0.232-1.113,0.267c-0.164,0.018-0.328,0.028-0.497,0.028c-0.567,0-1.11-0.109-1.608-0.309
				c-0.003,0.033-0.007,0.066-0.007,0.102C21.355,67.93,22.077,68.655,22.969,68.655z"/>
			<path fill="none" d="M18.67,61.414c0,0.093,0.009,0.182,0.013,0.273c0.587-1.832,2.304-3.254,4.331-3.254
				c2.028,0,3.744,1.422,4.33,3.254c0.006-0.092,0.014-0.181,0.014-0.273c0-2.399-1.945-4.344-4.344-4.344
				C20.615,57.07,18.67,59.014,18.67,61.414z"/>
			<path fill="none" d="M26.347,62.874c0.065-0.245,0.219-0.614,0.57-0.876c-0.406-1.804-2.014-3.151-3.94-3.151
				c-1.929,0-3.537,1.355-3.939,3.163c0.131,0.061,0.505,0.273,0.59,0.835c0.248-0.168,0.656-0.646,0.489-1.917l-0.049-0.38
				l0.299,0.241c0.019,0.016,1.756,1.382,4.247,0.533c-0.202-0.111-0.457-0.272-0.65-0.452l-0.284-0.267h2.174l-0.01,0.163
				C25.843,60.784,25.761,62.284,26.347,62.874z"/>
			<rect x="15.701" y="75.268" fill="#FFFFFF" width="0.264" height="0.327"/>
			<g>
				<path fill="none" d="M18.67,61.414c0,0.093,0.009,0.182,0.013,0.273c0.587-1.832,2.304-3.254,4.331-3.254
					c2.028,0,3.744,1.422,4.33,3.254c0.006-0.092,0.014-0.181,0.014-0.273c0-2.399-1.945-4.344-4.344-4.344
					C20.615,57.07,18.67,59.014,18.67,61.414z"/>
				<path fill="none" d="M22.969,68.655c0.892,0,1.614-0.725,1.614-1.615c0-0.066,0.001-0.025-0.005-0.088
					c-0.355,0.152-0.724,0.232-1.113,0.267c-0.164,0.018-0.328,0.028-0.497,0.028c-0.567,0-1.11-0.109-1.608-0.309
					c-0.003,0.033-0.007,0.066-0.007,0.102C21.355,67.93,22.077,68.655,22.969,68.655z"/>
				<path fill="none" d="M26.347,62.874c0.065-0.245,0.219-0.614,0.57-0.876c-0.406-1.804-2.014-3.151-3.94-3.151
					c-1.929,0-3.537,1.355-3.939,3.163c0.131,0.061,0.505,0.273,0.59,0.835c0.248-0.168,0.656-0.646,0.489-1.917l-0.049-0.38
					l0.299,0.241c0.019,0.016,1.756,1.382,4.247,0.533c-0.202-0.111-0.457-0.272-0.65-0.452l-0.284-0.267h2.174l-0.01,0.163
					C25.843,60.784,25.761,62.284,26.347,62.874z"/>
				<g>
					<path fill="none" d="M15.029,71.152c0,0.178,0.144,0.321,0.319,0.321h1.697c0.178,0,0.322-0.144,0.322-0.321
						c0-0.177-0.144-0.319-0.322-0.319h-1.697C15.173,70.833,15.029,70.975,15.029,71.152z"/>
					<path fill="none" d="M18.67,61.414c0,0.093,0.009,0.182,0.013,0.273c0.587-1.832,2.304-3.254,4.331-3.254
						c2.028,0,3.744,1.422,4.33,3.254c0.006-0.092,0.014-0.181,0.014-0.273c0-2.399-1.945-4.344-4.344-4.344
						C20.615,57.07,18.67,59.014,18.67,61.414z"/>
					<path fill="none" d="M22.969,68.655c0.892,0,1.614-0.725,1.614-1.615c0-0.066,0.001-0.025-0.005-0.088
						c-0.355,0.152-0.724,0.232-1.113,0.267c-0.164,0.018-0.328,0.028-0.497,0.028c-0.567,0-1.11-0.109-1.608-0.309
						c-0.003,0.033-0.007,0.066-0.007,0.102C21.355,67.93,22.077,68.655,22.969,68.655z"/>
					<path fill="none" d="M26.347,62.874c0.065-0.245,0.219-0.614,0.57-0.876c-0.406-1.804-2.014-3.151-3.94-3.151
						c-1.929,0-3.537,1.355-3.939,3.163c0.131,0.061,0.505,0.273,0.59,0.835c0.248-0.168,0.656-0.646,0.489-1.917l-0.049-0.38
						l0.299,0.241c0.019,0.016,1.756,1.382,4.247,0.533c-0.202-0.111-0.457-0.272-0.65-0.452l-0.284-0.267h2.174l-0.01,0.163
						C25.843,60.784,25.761,62.284,26.347,62.874z"/>
					<path fill="none" d="M15.027,72.07c0,0.176,0.143,0.319,0.319,0.319h2.316c0.178,0,0.324-0.144,0.324-0.319
						c0-0.177-0.146-0.324-0.324-0.324h-2.316C15.17,71.746,15.027,71.893,15.027,72.07z"/>
					<path fill="none" d="M15.965,76.459c3.679-0.395,6.067,1.224,6.842,1.828v-2.692v-0.327v-5.285
						c-0.508-0.535-2.941-2.231-6.842-1.835v2.421h1.081c0.322,0,0.585,0.264,0.585,0.583c0,0.124-0.04,0.237-0.105,0.332h0.137
						c0.322,0,0.585,0.262,0.585,0.586c0,0.245-0.154,0.454-0.371,0.541c0.085,0.1,0.141,0.23,0.141,0.372
						c0,0.292-0.217,0.534-0.5,0.576c0.07,0.096,0.113,0.213,0.113,0.339c0,0.327-0.257,0.585-0.585,0.585h-1.081v0.785v0.327
						V76.459z"/>
					<g>
						<path fill="none" d="M17.431,72.663h-2.087c-0.176,0-0.319,0.144-0.319,0.32s0.143,0.32,0.319,0.32h2.087
							c0.179,0,0.323-0.144,0.323-0.32S17.61,72.663,17.431,72.663z"/>
						<path fill="none" d="M26.347,62.874c0.065-0.245,0.219-0.614,0.57-0.876c-0.406-1.804-2.014-3.151-3.94-3.151
							c-1.929,0-3.537,1.355-3.939,3.163c0.131,0.061,0.505,0.273,0.59,0.835c0.248-0.168,0.656-0.646,0.489-1.917l-0.049-0.38
							l0.299,0.241c0.019,0.016,1.756,1.382,4.247,0.533c-0.202-0.111-0.457-0.272-0.65-0.452l-0.284-0.267h2.174l-0.01,0.163
							C25.843,60.784,25.761,62.284,26.347,62.874z"/>
						<path fill="none" d="M15.027,72.07c0,0.176,0.143,0.319,0.319,0.319h2.316c0.178,0,0.324-0.144,0.324-0.319
							c0-0.177-0.146-0.324-0.324-0.324h-2.316C15.17,71.746,15.027,71.893,15.027,72.07z"/>
						<path fill="none" d="M15.029,71.152c0,0.178,0.144,0.321,0.319,0.321h1.697c0.178,0,0.322-0.144,0.322-0.321
							c0-0.177-0.144-0.319-0.322-0.319h-1.697C15.173,70.833,15.029,70.975,15.029,71.152z"/>
						<path fill="none" d="M22.969,68.655c0.892,0,1.614-0.725,1.614-1.615c0-0.066,0.001-0.025-0.005-0.088
							c-0.355,0.152-0.724,0.232-1.113,0.267c-0.164,0.018-0.328,0.028-0.497,0.028c-0.567,0-1.11-0.109-1.608-0.309
							c-0.003,0.033-0.007,0.066-0.007,0.102C21.355,67.93,22.077,68.655,22.969,68.655z"/>
						<path fill="none" d="M15.965,76.459c3.679-0.395,6.067,1.224,6.842,1.828v-2.692v-0.327v-5.285
							c-0.508-0.535-2.941-2.231-6.842-1.835v2.421h1.081c0.322,0,0.585,0.264,0.585,0.583c0,0.124-0.04,0.237-0.105,0.332h0.137
							c0.322,0,0.585,0.262,0.585,0.586c0,0.245-0.154,0.454-0.371,0.541c0.085,0.1,0.141,0.23,0.141,0.372
							c0,0.292-0.217,0.534-0.5,0.576c0.07,0.096,0.113,0.213,0.113,0.339c0,0.327-0.257,0.585-0.585,0.585h-1.081v0.785v0.327
							V76.459z"/>
						<path fill="none" d="M18.67,61.414c0,0.093,0.009,0.182,0.013,0.273c0.587-1.832,2.304-3.254,4.331-3.254
							c2.028,0,3.744,1.422,4.33,3.254c0.006-0.092,0.014-0.181,0.014-0.273c0-2.399-1.945-4.344-4.344-4.344
							C20.615,57.07,18.67,59.014,18.67,61.414z"/>
						<path fill="none" d="M15.732,70.577v-0.429c-0.378,0.072-0.609,0.498-0.609,0.498c0.096-0.058,0.211-0.069,0.211-0.069H15.732
							z"/>
						<path fill="none" d="M17.046,73.579h-1.701c-0.176,0-0.319,0.145-0.319,0.319c0,0.177,0.143,0.322,0.319,0.322h1.701
							c0.18,0,0.322-0.142,0.322-0.322C17.368,73.723,17.224,73.579,17.046,73.579z"/>
						<rect x="15.701" y="75.268" fill="none" width="0.264" height="0.327"/>
						<rect x="22.807" y="75.268" fill="none" width="0.326" height="0.327"/>
						<rect x="29.974" y="75.268" fill="#FFFFFF" width="0.265" height="0.327"/>
						<path fill="#FFFFFF" d="M29.974,76.459c-3.678-0.395-6.068,1.224-6.841,1.828v-2.692h-0.326v2.692
							c-0.774-0.604-3.163-2.223-6.842-1.828v-0.864h-0.264v1.22l0.443-0.048c0.358-0.039,0.718-0.058,1.07-0.058
							c2.693,0,4.519,1.109,5.366,1.771l0.166,0.13l0.24,0.188l0.241-0.188l0.167-0.13c0.847-0.661,2.67-1.771,5.365-1.771
							c0.351,0,0.711,0.019,1.07,0.058l0.409,0.048v-1.22h-0.265V76.459z"/>
						<path fill="none" d="M25.906,67.228c-0.252-0.328-0.347-0.439-0.347-0.439s-0.167-0.151-0.372-0.057
							c-0.252,0.085-0.271,0.308-0.271,0.308c0,1.018-0.799,1.852-1.802,1.915h-0.287c-1.003-0.063-1.8-0.897-1.8-1.915
							c0,0-0.021-0.223-0.272-0.308c-0.205-0.095-0.372,0.057-0.372,0.057s-0.095,0.111-0.346,0.439
							c-1.283-0.325-2.628,0.277-3.104,0.526c4.178,0,6.038,1.969,6.038,1.969s1.844-1.969,6.039-1.969
							C28.533,67.505,27.188,66.903,25.906,67.228z"/>
						<circle fill="none" cx="24.581" cy="62.835" r="0.605"/>
						<path fill="none" d="M21.426,64.865c0.317,0.527,0.893,0.88,1.55,0.88c0.66,0,1.236-0.353,1.553-0.88
							c-0.453,0.278-0.981,0.332-1.553,0.332C22.407,65.197,21.877,65.143,21.426,64.865z"/>
						<path fill="none" d="M22.422,64.061c0.016,0.004,0.032,0.009,0.049,0.009c0.063,0,0.12-0.04,0.142-0.103
							c0.056-0.164,0.203-0.275,0.364-0.275c0.162,0,0.309,0.111,0.365,0.273c0.027,0.079,0.113,0.12,0.191,0.092
							c0.078-0.027,0.118-0.112,0.092-0.189c-0.1-0.284-0.359-0.474-0.649-0.474c-0.29,0-0.551,0.19-0.648,0.477
							C22.302,63.949,22.344,64.035,22.422,64.061z"/>
						<circle fill="none" cx="21.374" cy="62.835" r="0.605"/>
						<path fill="none" d="M26.98,62.357c0-0.002,0-0.005,0-0.008c-0.335,0.337-0.374,0.804-0.374,0.81l-0.017,0.242l-0.212-0.119
							c-0.801-0.446-0.852-1.879-0.846-2.371h-1.004c0.269,0.174,0.53,0.292,0.533,0.293l0.325,0.149l-0.331,0.135
							c-2.225,0.907-3.946,0.121-4.599-0.27c0.111,1.743-0.885,2.001-0.93,2.012l-0.189,0.046v-0.195
							c0-0.465-0.229-0.672-0.358-0.755c0,0.005-0.002,0.009-0.002,0.011c-0.07-0.053-0.146-0.084-0.227-0.084
							c-0.34,0-0.617,0.511-0.617,1.142c0,0.627,0.277,1.137,0.617,1.137c0.161,0,0.306-0.115,0.417-0.303
							c0.552,1.575,2.047,2.705,3.81,2.705c1.773,0,3.278-1.144,3.823-2.732c0.11,0.204,0.266,0.33,0.434,0.33
							c0.341,0,0.618-0.51,0.618-1.137c0-0.631-0.277-1.142-0.618-1.142C27.144,62.252,27.058,62.291,26.98,62.357z M22.328,63.871
							c0.097-0.286,0.358-0.477,0.648-0.477c0.29,0,0.549,0.189,0.649,0.474c0.026,0.077-0.015,0.162-0.092,0.189
							c-0.078,0.028-0.165-0.013-0.191-0.092c-0.056-0.162-0.204-0.273-0.365-0.273c-0.161,0-0.308,0.111-0.364,0.275
							c-0.022,0.063-0.079,0.103-0.142,0.103c-0.017,0-0.033-0.005-0.049-0.009C22.344,64.035,22.302,63.949,22.328,63.871z
							 M20.769,62.835c0-0.336,0.271-0.605,0.605-0.605c0.334,0,0.605,0.27,0.605,0.605c0,0.334-0.271,0.605-0.605,0.605
							C21.041,63.441,20.769,63.169,20.769,62.835z M22.976,65.745c-0.658,0-1.233-0.353-1.55-0.88
							c0.451,0.278,0.981,0.332,1.55,0.332c0.572,0,1.1-0.054,1.553-0.332C24.212,65.392,23.636,65.745,22.976,65.745z
							 M24.581,63.441c-0.334,0-0.604-0.271-0.604-0.605c0-0.336,0.271-0.605,0.604-0.605s0.604,0.27,0.604,0.605
							C25.185,63.169,24.915,63.441,24.581,63.441z"/>
						<path fill="#FFFFFF" d="M35.85,64c-0.09-0.292-0.188-0.576-0.286-0.86c-0.129,0.109-0.264,0.214-0.404,0.309
							c1.882,5.568,1.679,10.683,1.679,10.683v7.351H9.092v-6.029c0,0-1.341-19.891,13.873-24.877
							c3.105,1.014,5.515,2.66,7.388,4.623c0.154-0.077,0.313-0.146,0.476-0.206c-2.115-2.257-4.704-3.896-7.712-4.879l-0.152-0.049
							l-0.15,0.049c-3.426,1.118-6.307,3.087-8.563,5.85c-1.797,2.2-3.2,4.904-4.171,8.037C8.456,69.24,8.594,75.153,8.606,75.462
							v6.02v0.486h0.486h27.747h0.486v-0.486v-7.341C37.336,73.832,37.474,69.24,35.85,64z"/>
						<g>
							<path fill="none" d="M22.969,68.655c0.892,0,1.614-0.725,1.614-1.615c0-0.066,0.001-0.025-0.005-0.088
								c-0.355,0.152-0.724,0.232-1.113,0.267c-0.164,0.018-0.328,0.028-0.497,0.028c-0.567,0-1.11-0.109-1.608-0.309
								c-0.003,0.033-0.007,0.066-0.007,0.102C21.355,67.93,22.077,68.655,22.969,68.655z"/>
							<path fill="none" d="M25.906,67.228c-0.252-0.328-0.347-0.439-0.347-0.439s-0.167-0.151-0.372-0.057
								c-0.252,0.085-0.271,0.308-0.271,0.308c0,1.018-0.799,1.852-1.802,1.915h-0.287c-1.003-0.063-1.8-0.897-1.8-1.915
								c0,0-0.021-0.223-0.272-0.308c-0.205-0.095-0.372,0.057-0.372,0.057s-0.095,0.111-0.346,0.439
								c-1.283-0.325-2.628,0.277-3.104,0.526c4.178,0,6.038,1.969,6.038,1.969s1.844-1.969,6.039-1.969
								C28.533,67.505,27.188,66.903,25.906,67.228z"/>
							<path fill="none" d="M17.046,73.579h-1.701c-0.176,0-0.319,0.145-0.319,0.319c0,0.177,0.143,0.322,0.319,0.322h1.701
								c0.18,0,0.322-0.142,0.322-0.322C17.368,73.723,17.224,73.579,17.046,73.579z"/>
							<path fill="none" d="M15.027,72.07c0,0.176,0.143,0.319,0.319,0.319h2.316c0.178,0,0.324-0.144,0.324-0.319
								c0-0.177-0.146-0.324-0.324-0.324h-2.316C15.17,71.746,15.027,71.893,15.027,72.07z"/>
							<path fill="none" d="M17.431,72.663h-2.087c-0.176,0-0.319,0.144-0.319,0.32s0.143,0.32,0.319,0.32h2.087
								c0.179,0,0.323-0.144,0.323-0.32S17.61,72.663,17.431,72.663z"/>
							<path fill="none" d="M26.98,62.357c0-0.002,0-0.005,0-0.008c-0.335,0.337-0.374,0.804-0.374,0.81l-0.017,0.242l-0.212-0.119
								c-0.801-0.446-0.852-1.879-0.846-2.371h-1.004c0.269,0.174,0.53,0.292,0.533,0.293l0.325,0.149l-0.331,0.135
								c-2.225,0.907-3.946,0.121-4.599-0.27c0.111,1.743-0.885,2.001-0.93,2.012l-0.189,0.046v-0.195
								c0-0.465-0.229-0.672-0.358-0.755c0,0.005-0.002,0.009-0.002,0.011c-0.07-0.053-0.146-0.084-0.227-0.084
								c-0.34,0-0.617,0.511-0.617,1.142c0,0.627,0.277,1.137,0.617,1.137c0.161,0,0.306-0.115,0.417-0.303
								c0.552,1.575,2.047,2.705,3.81,2.705c1.773,0,3.278-1.144,3.823-2.732c0.11,0.204,0.266,0.33,0.434,0.33
								c0.341,0,0.618-0.51,0.618-1.137c0-0.631-0.277-1.142-0.618-1.142C27.144,62.252,27.058,62.291,26.98,62.357z"/>
							<path fill="none" d="M29.974,75.268v0.327v0.864c-3.678-0.395-6.068,1.224-6.841,1.828v-2.692v-0.327h-0.326v-5.285
								c-0.508-0.535-2.941-2.231-6.842-1.835v2.421h1.081c0.322,0,0.585,0.264,0.585,0.583c0,0.124-0.04,0.237-0.105,0.332h0.137
								c0.322,0,0.585,0.262,0.585,0.586c0,0.245-0.154,0.454-0.371,0.541c0.085,0.1,0.141,0.23,0.141,0.372
								c0,0.292-0.217,0.534-0.5,0.576c0.07,0.096,0.113,0.213,0.113,0.339c0,0.327-0.257,0.585-0.585,0.585h-1.081v0.785h-0.264
								v0.327v1.22l0.443-0.048c0.358-0.039,0.718-0.058,1.07-0.058c2.693,0,4.519,1.109,5.366,1.771l0.166,0.13l0.24,0.188
								l0.241-0.188l0.167-0.13c0.847-0.661,2.67-1.771,5.365-1.771c0.351,0,0.711,0.019,1.07,0.058l0.409,0.048v-1.22v-0.327
								H29.974z"/>
							<path fill="none" d="M15.029,71.152c0,0.178,0.144,0.321,0.319,0.321h1.697c0.178,0,0.322-0.144,0.322-0.321
								c0-0.177-0.144-0.319-0.322-0.319h-1.697C15.173,70.833,15.029,70.975,15.029,71.152z"/>
							<path fill="none" d="M15.732,70.577v-0.429c-0.378,0.072-0.609,0.498-0.609,0.498c0.096-0.058,0.211-0.069,0.211-0.069
								H15.732z"/>
							<path fill="none" d="M18.67,61.414c0,0.093,0.009,0.182,0.013,0.273c0.587-1.832,2.304-3.254,4.331-3.254
								c2.028,0,3.744,1.422,4.33,3.254c0.006-0.092,0.014-0.181,0.014-0.273c0-2.399-1.945-4.344-4.344-4.344
								C20.615,57.07,18.67,59.014,18.67,61.414z"/>
							<path fill="none" d="M26.347,62.874c0.065-0.245,0.219-0.614,0.57-0.876c-0.406-1.804-2.014-3.151-3.94-3.151
								c-1.929,0-3.537,1.355-3.939,3.163c0.131,0.061,0.505,0.273,0.59,0.835c0.248-0.168,0.656-0.646,0.489-1.917l-0.049-0.38
								l0.299,0.241c0.019,0.016,1.756,1.382,4.247,0.533c-0.202-0.111-0.457-0.272-0.65-0.452l-0.284-0.267h2.174l-0.01,0.163
								C25.843,60.784,25.761,62.284,26.347,62.874z"/>
							<path fill="none" d="M30.594,71.746h-2.316c-0.179,0-0.323,0.147-0.323,0.324c0,0.176,0.144,0.319,0.323,0.319h2.316
								c0.177,0,0.319-0.144,0.319-0.319C30.913,71.893,30.771,71.746,30.594,71.746z"/>
							<path fill="none" d="M30.592,70.833h-1.697c-0.178,0-0.323,0.143-0.323,0.319c0,0.178,0.145,0.321,0.323,0.321h1.697
								c0.176,0,0.319-0.144,0.319-0.321C30.911,70.975,30.767,70.833,30.592,70.833z"/>
							<path fill="none" d="M30.817,70.646c0,0-0.23-0.426-0.609-0.498v0.429h0.398C30.606,70.577,30.721,70.588,30.817,70.646z"/>
							<path fill="none" d="M23.133,78.288c0.773-0.604,3.163-2.223,6.841-1.828v-0.864v-0.327v-0.785h-1.08
								c-0.328,0-0.585-0.258-0.585-0.585c0-0.126,0.042-0.243,0.112-0.339c-0.281-0.042-0.498-0.284-0.498-0.576
								c0-0.142,0.052-0.272,0.14-0.372c-0.217-0.087-0.372-0.296-0.372-0.541c0-0.324,0.263-0.586,0.585-0.586h0.137
								c-0.065-0.095-0.104-0.208-0.104-0.332c0-0.319,0.262-0.583,0.585-0.583h1.08v-2.421c-3.948-0.396-6.249,1.3-6.841,1.835
								v5.285v0.327V78.288z"/>
							<path fill="none" d="M30.596,73.579h-1.701c-0.178,0-0.323,0.145-0.323,0.319c0,0.181,0.142,0.322,0.323,0.322h1.701
								c0.176,0,0.32-0.146,0.32-0.322C30.916,73.723,30.772,73.579,30.596,73.579z"/>
							<path fill="none" d="M35.159,63.449c-0.758,0.512-1.671,0.813-2.654,0.815c0.067,0.194,0.135,0.385,0.199,0.583
								c1.536,4.832,1.418,8.805,1.412,8.971L34.1,75.595h-3.861v1.22l-0.409-0.048c-0.358-0.039-0.719-0.058-1.07-0.058
								c-2.695,0-4.518,1.109-5.365,1.771l-0.167,0.13l-0.241,0.188l-0.24-0.188l-0.166-0.13c-0.848-0.661-2.673-1.771-5.366-1.771
								c-0.352,0-0.712,0.019-1.07,0.058l-0.443,0.048v-1.22h-3.874l-0.016-1.777c-0.005-0.166-0.124-4.139,1.413-8.971
								c1.789-5.628,5.005-9.434,9.56-11.311l0.18-0.074l0.179,0.074c1.991,0.82,3.725,2.009,5.196,3.556
								c0.469-0.813,1.17-1.474,2.013-1.894c-1.874-1.963-4.283-3.609-7.388-4.623C7.75,55.562,9.092,75.453,9.092,75.453v6.029
								h27.747v-7.351C36.838,74.131,37.042,69.017,35.159,63.449z"/>
							<path fill="#FFFFFF" d="M22.964,53.462l-0.18,0.074c-4.554,1.877-7.771,5.683-9.56,11.311
								c-1.537,4.832-1.418,8.805-1.413,8.971l0.016,1.777h3.874v-0.327h0.264v-0.785h1.081c0.329,0,0.585-0.258,0.585-0.585
								c0-0.126-0.043-0.243-0.113-0.339c0.282-0.042,0.5-0.284,0.5-0.576c0-0.142-0.056-0.272-0.141-0.372
								c0.216-0.087,0.371-0.296,0.371-0.541c0-0.324-0.263-0.586-0.585-0.586h-0.137c0.066-0.095,0.105-0.208,0.105-0.332
								c0-0.319-0.263-0.583-0.585-0.583h-1.081v-2.421c3.901-0.396,6.334,1.3,6.842,1.835v5.285h0.326v-5.285
								c0.592-0.535,2.894-2.231,6.841-1.835v2.421h-1.08c-0.323,0-0.585,0.264-0.585,0.583c0,0.124,0.039,0.237,0.104,0.332h-0.137
								c-0.322,0-0.585,0.262-0.585,0.586c0,0.245,0.154,0.454,0.372,0.541c-0.087,0.1-0.14,0.23-0.14,0.372
								c0,0.292,0.216,0.534,0.498,0.576c-0.069,0.096-0.112,0.213-0.112,0.339c0,0.327,0.257,0.585,0.585,0.585h1.08v0.785h0.265
								v0.327H34.1l0.016-1.777c0.006-0.166,0.124-4.139-1.412-8.971c-0.063-0.198-0.132-0.389-0.199-0.583
								c-0.007,0-0.014,0.001-0.021,0.001c-2.643,0-4.787-2.143-4.787-4.786c0-0.87,0.236-1.685,0.642-2.387
								c-1.472-1.547-3.206-2.735-5.196-3.556L22.964,53.462z M15.732,70.148v0.429h-0.398c0,0-0.115,0.012-0.211,0.069
								C15.123,70.646,15.354,70.22,15.732,70.148z M17.046,74.22h-1.701c-0.176,0-0.319-0.146-0.319-0.322
								c0-0.175,0.143-0.319,0.319-0.319h1.701c0.178,0,0.322,0.145,0.322,0.319C17.368,74.079,17.226,74.22,17.046,74.22z
								 M17.431,73.303h-2.087c-0.176,0-0.319-0.144-0.319-0.32s0.143-0.32,0.319-0.32h2.087c0.179,0,0.323,0.144,0.323,0.32
								S17.61,73.303,17.431,73.303z M17.662,71.746c0.178,0,0.324,0.147,0.324,0.324c0,0.176-0.146,0.319-0.324,0.319h-2.316
								c-0.176,0-0.319-0.144-0.319-0.319c0-0.177,0.143-0.324,0.319-0.324H17.662z M17.046,70.833c0.178,0,0.322,0.143,0.322,0.319
								c0,0.178-0.144,0.321-0.322,0.321h-1.697c-0.176,0-0.319-0.144-0.319-0.321c0-0.177,0.144-0.319,0.319-0.319H17.046z
								 M30.596,74.22h-1.701c-0.181,0-0.323-0.142-0.323-0.322c0-0.175,0.145-0.319,0.323-0.319h1.701
								c0.176,0,0.32,0.145,0.32,0.319C30.916,74.075,30.772,74.22,30.596,74.22z M30.596,73.303h-2.087
								c-0.178,0-0.323-0.144-0.323-0.32s0.145-0.32,0.323-0.32h2.087c0.176,0,0.32,0.144,0.32,0.32S30.772,73.303,30.596,73.303z
								 M30.594,72.389h-2.316c-0.179,0-0.323-0.144-0.323-0.319c0-0.177,0.144-0.324,0.323-0.324h2.316
								c0.177,0,0.319,0.147,0.319,0.324C30.913,72.246,30.771,72.389,30.594,72.389z M30.592,71.473h-1.697
								c-0.178,0-0.323-0.144-0.323-0.321c0-0.177,0.145-0.319,0.323-0.319h1.697c0.176,0,0.319,0.143,0.319,0.319
								C30.911,71.33,30.767,71.473,30.592,71.473z M30.208,70.148c0.378,0.072,0.609,0.498,0.609,0.498
								c-0.096-0.058-0.211-0.069-0.211-0.069h-0.398V70.148z M22.971,69.723c0,0-1.859-1.969-6.038-1.969
								c0.476-0.249,1.821-0.852,3.104-0.526c0.251-0.328,0.346-0.439,0.346-0.439s0.167-0.151,0.372-0.057
								c0.251,0.085,0.272,0.308,0.272,0.308c0,1.018,0.796,1.852,1.8,1.915h0.287c1.003-0.063,1.802-0.897,1.802-1.915
								c0,0,0.019-0.223,0.271-0.308c0.205-0.095,0.372,0.057,0.372,0.057s0.094,0.111,0.347,0.439
								c1.282-0.325,2.627,0.277,3.104,0.526C24.816,67.754,22.971,69.723,22.971,69.723z M21.355,67.04
								c0-0.035,0.003-0.068,0.007-0.102c0.498,0.199,1.041,0.309,1.608,0.309c0.168,0,0.333-0.011,0.497-0.028
								c0.389-0.034,0.758-0.114,1.113-0.267c0.006,0.063,0.005,0.021,0.005,0.088c0,0.891-0.722,1.615-1.614,1.615
								S21.355,67.93,21.355,67.04z M27.851,63.394c0,0.627-0.277,1.137-0.618,1.137c-0.168,0-0.324-0.126-0.434-0.33
								c-0.545,1.589-2.049,2.732-3.823,2.732c-1.763,0-3.258-1.13-3.81-2.705c-0.111,0.188-0.256,0.303-0.417,0.303
								c-0.34,0-0.617-0.51-0.617-1.137c0-0.631,0.277-1.142,0.617-1.142c0.08,0,0.156,0.031,0.227,0.084
								c0-0.002,0.002-0.006,0.002-0.011c0.129,0.083,0.358,0.29,0.358,0.755v0.195l0.189-0.046c0.045-0.011,1.042-0.269,0.93-2.012
								c0.652,0.391,2.374,1.177,4.599,0.27l0.331-0.135l-0.325-0.149c-0.003-0.001-0.265-0.119-0.533-0.293h1.004
								c-0.006,0.492,0.045,1.925,0.846,2.371l0.212,0.119l0.017-0.242c0-0.006,0.039-0.473,0.374-0.81c0,0.003,0,0.006,0,0.008
								c0.079-0.066,0.165-0.104,0.253-0.104C27.574,62.252,27.851,62.763,27.851,63.394z M23.68,60.603l0.284,0.267
								c0.193,0.18,0.448,0.341,0.65,0.452c-2.491,0.849-4.228-0.518-4.247-0.533l-0.299-0.241l0.049,0.38
								c0.167,1.271-0.242,1.749-0.489,1.917c-0.085-0.562-0.459-0.774-0.59-0.835c0.402-1.808,2.01-3.163,3.939-3.163
								c1.927,0,3.534,1.348,3.94,3.151c-0.351,0.262-0.504,0.631-0.57,0.876c-0.586-0.59-0.504-2.09-0.503-2.107l0.01-0.163H23.68z
								 M27.358,61.414c0,0.093-0.008,0.182-0.014,0.273c-0.586-1.832-2.302-3.254-4.33-3.254c-2.027,0-3.744,1.422-4.331,3.254
								c-0.004-0.092-0.013-0.181-0.013-0.273c0-2.399,1.944-4.344,4.344-4.344C25.413,57.07,27.358,59.014,27.358,61.414z"/>
						</g>
					</g>
				</g>
			</g>
		</g>
	</g>
</g>
</svg>
