<?xml version="1.0" encoding="utf-8"?>
<!-- Generator: Adobe Illustrator 21.0.0, SVG Export Plug-In . SVG Version: 6.00 Build 0)  -->
<svg version="1.1" id="Layer_1" xmlns="http://www.w3.org/2000/svg" xmlns:xlink="http://www.w3.org/1999/xlink" x="0px" y="0px"
	 viewBox="0 0 1024.9 120.3" style="enable-background:new 0 0 1024.9 120.3;" xml:space="preserve">
<style type="text/css">
	.st0{fill:#FFFFFF;}
	.st1{fill:#FFBF31;}
	.st2{fill:#F6FBFA;}
	.st3{opacity:0.2;fill:#FFBF31;enable-background:new    ;}
	.st4{opacity:0.77;fill:#FF8950;enable-background:new    ;}
	.st5{fill:#251A15;}
</style>
<g>
	<path class="st0" d="M-0.4,83.3c11.4,0,16.9-2.9,22.8-6c5.8-3.1,11.9-6.3,23.8-6.3s17.9,3.2,23.8,6.3c5.9,3.1,11.4,6,22.8,6
		s16.9-2.9,22.8-6c5.8-3.1,11.9-6.3,23.8-6.3c11.9,0,17.9,3.2,23.8,6.3c5.9,3.1,11.4,6,22.8,6c11.4,0,16.9-2.9,22.8-6
		c5.8-3.1,11.9-6.3,23.8-6.3c11.9,0,17.9,3.2,23.8,6.3c5.9,3.1,11.4,6,22.8,6s16.9-2.9,22.8-6c5.8-3.1,11.9-6.3,23.8-6.3
		s17.9,3.2,23.8,6.3c5.9,3.1,11.4,6,22.8,6s16.9-2.9,22.8-6C401,74.2,407.1,71,419,71s17.9,3.2,23.8,6.3c5.9,3.1,11.4,6,22.8,6
		s16.9-2.9,22.8-6c5.8-3.1,11.9-6.3,23.8-6.3c11.9,0,17.9,3.2,23.8,6.3c5.9,3.1,11.4,6,22.8,6c11.4,0,16.9-2.9,22.8-6
		c5.8-3.1,11.9-6.3,23.8-6.3c11.9,0,17.9,3.2,23.8,6.3c5.9,3.1,11.4,6,22.8,6c11.4,0,16.9-2.9,22.8-6c5.8-3.1,11.9-6.3,23.8-6.3
		c11.9,0,17.9,3.2,23.8,6.3c5.9,3.1,11.4,6,22.8,6c11.4,0,16.9-2.9,22.8-6c5.8-3.1,11.9-6.3,23.8-6.3s17.9,3.2,23.8,6.3
		c5.9,3.1,11.4,6,22.8,6c11.4,0,16.9-2.9,22.8-6C867,74.2,873.1,71,885,71s17.9,3.2,23.8,6.3s11.4,6,22.8,6c11.4,0,16.9-2.9,22.8-6
		c5.8-3.1,11.9-6.3,23.8-6.3c11.9,0,17.9,3.2,23.8,6.3c5.9,3.1,11.4,6,22.8,6v37H0.2v-37H-0.4z"/>
	<path class="st1" d="M86.6,102c-0.1,0.3-3.1,2-3.1,2.7c0,0.5,3.2,2.3,3.3,2.5c0.3,0.3,0.7,3.1,1.5,3.3c0.6,0.2,2.8-2.2,3.2-2.2
		c0.4,0,3.7,0.4,4-0.1c0.3-0.5-1.2-3.4-1-3.6c0.2-0.1,1.4-3.7,1.2-4.2c-0.3-0.4-3.7,0.3-3.9,0.1s-3.1-2.5-3.5-2.2
		C87.7,98.6,86.8,102,86.6,102z"/>
	<path class="st1" d="M1012.4,13c2,0,1.8-2.9,0-2.9C1010.2,10.1,1010.4,13,1012.4,13z"/>
	<path class="st2" d="M976.1,29.7c2,0,1.8-2.9,0-2.9C973.9,26.8,974.1,29.8,976.1,29.7z"/>
	<path class="st1" d="M7.6,93.1c-0.2,0.3-3.4,1.1-3.6,1.8c-0.1,0.4,2.4,3,2.5,3.1c0.2,0.4,0,3.1,0.6,3.5c0.5,0.4,3.2-1.4,3.6-1.3
		c0.4,0.1,3.4,1.3,3.8,0.9s-0.2-3.5,0-3.6c0.3-0.1,2.3-3.1,2.1-3.6s-3.5-0.7-3.7-0.9s-2.3-3.1-2.8-3C9.4,90.1,7.7,93,7.6,93.1z"/>
	<path class="st1" d="M177.1,93.2c4.7,0,4-6.7,0-6.7C172.1,86.5,172.4,93.2,177.1,93.2z"/>
	<path class="st1" d="M982.8,14.6c-0.2,0.3-3.4,1.1-3.6,1.8c-0.1,0.4,2.4,3,2.5,3.1c0.2,0.4,0,3.1,0.6,3.5c0.5,0.4,3.2-1.4,3.6-1.3
		c0.4,0.1,3.4,1.3,3.8,0.9c0.4-0.4-0.2-3.5,0-3.6c0.3-0.1,2.3-3.1,2.1-3.6s-3.5-0.7-3.7-0.9s-2.3-3.1-2.8-3
		C984.5,11.6,982.9,14.5,982.8,14.6z"/>
	<path class="st1" d="M883.8,76.4L883.8,76.4h0.8c0.4,0,0.8,0.4,0.8,0.8s-0.3,0.8-0.8,0.8h-0.8c-1.8-0.1-3.6,0.1-5.3,0.2
		c-0.4,0-0.8-0.3-0.8-0.7s0.3-0.8,0.7-0.8C880.1,76.4,881.9,76.4,883.8,76.4z M231.9,76.4c0.6,0,1.2,0,1.8,0c0.4,0,0.8,0.4,0.7,0.8
		c0,0.4-0.4,0.7-0.8,0.7c-2-0.1-4.2,0-6.1,0.1c-0.4,0-0.8-0.3-0.8-0.7s0.3-0.8,0.7-0.8C228.8,76.4,230.3,76.4,231.9,76.4z
		 M511.3,76.4c1.4,0,2.7,0,4,0.1c0.4,0,0.7,0.4,0.7,0.8s-0.4,0.7-0.8,0.7c-1.9-0.1-4.1-0.2-6.1-0.1c-0.4,0-0.8-0.3-0.8-0.7
		s0.3-0.8,0.7-0.8C509.8,76.4,510.5,76.4,511.3,76.4z M790.7,76.4L790.7,76.4c2.2,0,4.3,0.1,6.2,0.3c0.4,0,0.7,0.4,0.7,0.8
		s-0.4,0.7-0.8,0.7c-1.9-0.2-3.9-0.3-6-0.3c-0.4,0-0.8-0.3-0.8-0.8S790.3,76.4,790.7,76.4z M139.8,76.4L139.8,76.4
		c2.2,0,4.3,0.2,6.2,0.4c0.4,0.1,0.7,0.4,0.7,0.9c-0.1,0.4-0.4,0.7-0.9,0.7c-1.9-0.2-3.9-0.4-6-0.4c-0.4,0-0.8-0.4-0.8-0.8
		C139,76.7,139.3,76.4,139.8,76.4z M603,76.4c0.4,0,0.8,0.3,0.8,0.8c0,0.4-0.3,0.8-0.8,0.8c-2.1,0-4.1,0.2-6,0.5
		c-0.4,0.1-0.8-0.2-0.9-0.7c-0.1-0.4,0.2-0.8,0.7-0.9C598.7,76.6,600.8,76.4,603,76.4L603,76.4z M421.4,76.4L421.4,76.4
		c2.2,0.1,4.3,0.4,6.2,0.7c0.4,0.1,0.7,0.5,0.6,0.9s-0.5,0.7-0.9,0.6c-1.9-0.3-3.9-0.6-6-0.7c-0.4,0-0.8-0.4-0.7-0.8
		C420.6,76.8,421,76.4,421.4,76.4z M321.4,76.5c0.4,0,0.7,0.3,0.8,0.7c0,0.4-0.3,0.8-0.7,0.8c-2.1,0.1-4.1,0.4-6,0.7
		c-0.4,0.1-0.8-0.2-0.9-0.6s0.2-0.8,0.6-0.9C317.1,76.8,319.1,76.6,321.4,76.5C321.3,76.5,321.3,76.5,321.4,76.5z M972.3,76.5
		c0.4,0,0.7,0.3,0.8,0.7c0,0.4-0.3,0.8-0.7,0.8c-2.1,0.2-4.1,0.5-6,0.9c-0.4,0.1-0.8-0.2-0.9-0.6c-0.1-0.4,0.2-0.8,0.6-0.9
		C968,77,970.1,76.7,972.3,76.5L972.3,76.5z M703,76.6L703,76.6c2.3,0.2,4.3,0.5,6.2,1c0.4,0.1,0.7,0.5,0.6,0.9
		c-0.1,0.4-0.5,0.7-0.9,0.6c-1.9-0.5-3.8-0.8-6-1c-0.4,0-0.7-0.4-0.7-0.8C702.3,76.9,702.6,76.6,703,76.6z M39.7,76.6
		c0.4,0,0.7,0.3,0.8,0.7c0,0.4-0.3,0.8-0.7,0.8c-2.1,0.2-4,0.5-5.9,1c-0.4,0.1-0.8-0.1-0.9-0.6c-0.1-0.4,0.1-0.8,0.6-0.9
		C35.5,77.2,37.5,76.9,39.7,76.6L39.7,76.6z M52,76.7C52,76.7,52.1,76.7,52,76.7c2.3,0.3,4.3,0.6,6.2,1.2c0.4,0.1,0.7,0.5,0.5,0.9
		s-0.5,0.7-0.9,0.5c-1.9-0.5-3.8-0.9-5.9-1.1c-0.4,0-0.7-0.4-0.7-0.9C51.3,77,51.6,76.7,52,76.7z M690.7,76.8c0.4,0,0.7,0.3,0.8,0.7
		c0.1,0.4-0.2,0.8-0.7,0.9c-2.1,0.3-4,0.6-5.9,1.2c-0.4,0.1-0.8-0.1-0.9-0.5c-0.1-0.4,0.1-0.8,0.5-0.9
		C686.5,77.4,688.5,77,690.7,76.8L690.7,76.8z M984.6,76.9L984.6,76.9c2.2,0.3,4.2,0.7,6.2,1.3c0.4,0.1,0.6,0.6,0.5,1
		s-0.5,0.6-1,0.5c-1.9-0.6-3.8-1-5.9-1.3c-0.4-0.1-0.7-0.4-0.7-0.9C983.9,77.1,984.2,76.9,984.6,76.9z M333.6,77L333.6,77
		c2.2,0.4,4.2,0.8,6.2,1.5c0.4,0.1,0.6,0.6,0.5,1s-0.6,0.6-1,0.5c-1.9-0.6-3.8-1.1-5.8-1.4c-0.4-0.1-0.7-0.5-0.6-0.9
		C332.9,77.3,333.2,77,333.6,77z M409.1,77.1c0.4,0,0.7,0.3,0.8,0.6c0.1,0.4-0.2,0.8-0.6,0.9c-2,0.4-3.9,0.8-5.8,1.5
		c-0.4,0.1-0.8-0.1-1-0.5c-0.1-0.4,0.1-0.8,0.5-1C405,77.9,407,77.4,409.1,77.1C409,77.1,409.1,77.1,409.1,77.1z M615.2,77.4
		c0.1,0,0.1,0,0.2,0c2.1,0.5,4,1.1,6,1.8c0.4,0.2,0.6,0.6,0.4,1s-0.6,0.6-1,0.4c-1.9-0.7-3.8-1.3-5.8-1.8c-0.4-0.1-0.7-0.5-0.6-0.9
		C614.5,77.7,614.8,77.4,615.2,77.4z M127.6,77.5c0.4,0,0.7,0.2,0.7,0.6c0.1,0.4-0.2,0.8-0.6,0.9c-2,0.5-3.8,1-5.7,1.8
		c-0.4,0.2-0.8,0-1-0.4s0-0.8,0.4-1c2-0.8,3.9-1.4,6-1.9C127.4,77.5,127.5,77.5,127.6,77.5z M778.5,77.8c0.3,0,0.7,0.2,0.7,0.6
		c0.1,0.4-0.1,0.8-0.6,0.9c-1.9,0.5-3.8,1.1-5.7,2c-0.4,0.2-0.8,0-1-0.4s0-0.8,0.4-1c2-0.9,3.9-1.5,5.9-2
		C778.4,77.8,778.5,77.8,778.5,77.8z M896.7,78c0.1,0,0.1,0,0.2,0c2,0.5,3.9,1.3,5.9,2.2c0.4,0.2,0.6,0.6,0.4,1
		c-0.2,0.4-0.6,0.6-1,0.4c-1.9-0.9-3.8-1.5-5.7-2.1c-0.4-0.1-0.6-0.5-0.5-0.9C896.1,78.2,896.4,78,896.7,78z M245.7,78.2
		c0.1,0,0.2,0,0.2,0c1.9,0.6,3.8,1.3,5.8,2.3c0.4,0.2,0.5,0.6,0.4,1c-0.2,0.4-0.6,0.5-1,0.4c-2-0.9-3.8-1.6-5.6-2.2
		c-0.4-0.1-0.6-0.6-0.5-1C245.1,78.5,245.4,78.2,245.7,78.2z M497,78.4c0.3,0,0.6,0.2,0.7,0.5c0.1,0.4-0.1,0.8-0.5,1
		c-1.8,0.6-3.6,1.3-5.6,2.3c-0.4,0.2-0.8,0-1-0.4s0-0.8,0.4-1c2.1-1,3.9-1.7,5.8-2.3C496.9,78.4,496.9,78.4,497,78.4z M527.2,79
		c0.1,0,0.2,0,0.3,0c2.3,0.8,4.2,1.8,5.7,2.6c0.4,0.2,0.5,0.7,0.3,1c-0.2,0.4-0.7,0.5-1,0.3c-1.4-0.7-3.3-1.7-5.5-2.5
		c-0.4-0.1-0.6-0.6-0.5-1C526.6,79.1,526.9,79,527.2,79z M215.5,79.1c0.3,0,0.6,0.2,0.7,0.5c0.2,0.4,0,0.8-0.4,1
		c-2.1,0.8-4,1.7-5.5,2.5c-0.4,0.2-0.8,0-1-0.3c-0.2-0.4,0-0.8,0.3-1c1.6-0.8,3.5-1.8,5.7-2.6C215.3,79.1,215.4,79.1,215.5,79.1z
		 M866.6,79.5c0.3,0,0.6,0.2,0.7,0.5c0.2,0.4,0,0.8-0.4,1c-2.1,0.8-3.9,1.8-5.5,2.6c-0.4,0.2-0.8,0.1-1-0.3s-0.1-0.8,0.3-1
		c1.6-0.8,3.5-1.8,5.6-2.7C866.4,79.5,866.5,79.5,866.6,79.5z M808.7,79.8c0.1,0,0.2,0,0.3,0.1c1.9,0.8,3.7,1.7,5.6,2.7
		c0.4,0.2,0.5,0.7,0.3,1c-0.2,0.4-0.7,0.5-1,0.3c-1.9-1-3.6-1.9-5.5-2.7c-0.4-0.2-0.6-0.6-0.4-1C808.1,79.9,808.4,79.8,808.7,79.8z
		 M157.6,80.2c0.1,0,0.2,0,0.3,0.1c1.7,0.8,3.3,1.6,4.8,2.4l0.7,0.4c0.4,0.2,0.5,0.7,0.3,1c-0.2,0.4-0.7,0.5-1,0.3l-0.7-0.3
		c-1.5-0.8-3.1-1.6-4.8-2.4c-0.4-0.2-0.6-0.6-0.4-1C157.1,80.4,157.3,80.2,157.6,80.2z M585.1,80.4c0.3,0,0.6,0.2,0.7,0.4
		c0.2,0.4,0,0.8-0.4,1c-1.5,0.7-3,1.5-4.4,2.2l-1,0.5c-0.4,0.2-0.8,0.1-1-0.3s-0.1-0.8,0.3-1l1-0.5c1.5-0.8,2.9-1.5,4.5-2.3
		C584.9,80.4,585,80.4,585.1,80.4z M439,81.1c0.1,0,0.2,0,0.3,0.1c1,0.5,1.9,1,2.9,1.5c0.9,0.5,1.7,0.9,2.6,1.3
		c0.4,0.2,0.5,0.7,0.3,1c-0.2,0.4-0.7,0.5-1,0.3c-0.9-0.4-1.7-0.9-2.6-1.4s-1.9-1-2.8-1.5c-0.4-0.2-0.5-0.7-0.3-1
		C438.5,81.3,438.8,81.1,439,81.1z M303.7,81.3c0.3,0,0.6,0.2,0.7,0.4c0.2,0.4,0,0.8-0.3,1c-0.8,0.4-1.7,0.9-2.5,1.3
		c-1,0.5-2,1-3,1.5c-0.4,0.2-0.8,0-1-0.3c-0.2-0.4,0-0.8,0.3-1c1-0.5,2-1,2.9-1.5c0.8-0.4,1.7-0.9,2.5-1.3
		C303.5,81.3,303.6,81.3,303.7,81.3z M954.8,81.8c0.3,0,0.5,0.1,0.7,0.4c0.2,0.4,0.1,0.8-0.3,1l-1.6,0.8c-1.3,0.7-2.6,1.4-3.9,2
		c-0.4,0.2-0.8,0-1-0.4s0-0.8,0.4-1c1.3-0.6,2.6-1.3,3.8-2l1.6-0.8C954.6,81.8,954.7,81.8,954.8,81.8z M720.4,82.1
		c0.1,0,0.2,0,0.4,0.1l0.9,0.5c1.6,0.8,3,1.6,4.5,2.3c0.4,0.2,0.6,0.6,0.4,1s-0.6,0.5-1,0.4c-1.6-0.7-3.1-1.5-4.6-2.3l-0.9-0.5
		c-0.4-0.2-0.5-0.7-0.3-1C719.9,82.3,720.1,82.1,720.4,82.1z M22.4,82.3c0.3,0,0.5,0.1,0.7,0.4c0.2,0.4,0.1,0.8-0.3,1L22.2,84
		c-1.6,0.8-3.2,1.7-4.9,2.5c-0.4,0.2-0.8,0-1-0.4s0-0.8,0.4-1c1.7-0.8,3.3-1.6,4.8-2.4l0.6-0.3C22.1,82.3,22.2,82.3,22.4,82.3z
		 M69.3,82.6c0.1,0,0.2,0,0.4,0.1c1.8,1,3.6,1.9,5.5,2.7c0.4,0.2,0.6,0.6,0.4,1s-0.6,0.6-1,0.4C72.7,85.9,70.8,85,69,84
		c-0.4-0.2-0.5-0.7-0.3-1C68.8,82.8,69.1,82.6,69.3,82.6z M673.4,82.8c0.3,0,0.5,0.1,0.7,0.4c0.2,0.4,0.1,0.8-0.3,1
		c-1.9,1-3.6,1.9-5.6,2.7c-0.4,0.2-0.8,0-1-0.4s0-0.8,0.4-1c1.9-0.8,3.6-1.7,5.5-2.7C673.2,82.8,673.3,82.8,673.4,82.8z
		 M1001.8,83.2c0.1,0,0.2,0,0.4,0.1c2,1,3.6,1.9,5.5,2.6c0.4,0.2,0.6,0.6,0.4,1s-0.6,0.6-1,0.4c-1.9-0.8-3.6-1.6-5.6-2.7
		c-0.4-0.2-0.5-0.7-0.3-1C1001.2,83.3,1001.5,83.2,1001.8,83.2z M350.7,83.6c0.1,0,0.2,0,0.4,0.1c1.5,0.8,3.4,1.7,5.5,2.5
		c0.4,0.1,0.6,0.6,0.5,1c-0.2,0.4-0.6,0.6-1,0.4c-2.2-0.8-4.1-1.8-5.7-2.6c-0.4-0.2-0.5-0.7-0.3-1C350.2,83.8,350.4,83.6,350.7,83.6
		z M392.1,83.8c0.3,0,0.5,0.2,0.7,0.4c0.2,0.4,0,0.8-0.3,1c-1.5,0.7-3.4,1.7-5.7,2.5c-0.4,0.1-0.8-0.1-1-0.5c-0.1-0.4,0.1-0.8,0.5-1
		c2.2-0.8,4.1-1.7,5.5-2.5C391.8,83.9,392,83.8,392.1,83.8z M632.1,84.6c0.1,0,0.2,0,0.3,0.1c2,1,3.8,1.7,5.6,2.2
		c0.4,0.1,0.6,0.6,0.5,1s-0.6,0.6-1,0.5c-1.9-0.6-3.7-1.3-5.8-2.3c-0.4-0.2-0.5-0.6-0.4-1C631.5,84.8,631.8,84.6,632.1,84.6z
		 M110.7,84.8c0.3,0,0.6,0.2,0.7,0.4c0.2,0.4,0,0.8-0.4,1c-2.1,1-3.9,1.7-5.8,2.3c-0.4,0.1-0.8-0.1-1-0.5c-0.1-0.4,0.1-0.8,0.5-1
		c1.8-0.5,3.6-1.2,5.6-2.2C110.5,84.8,110.6,84.8,110.7,84.8z M761.7,85.2c0.3,0,0.6,0.2,0.7,0.5c0.2,0.4,0,0.8-0.4,1
		c-2,0.9-3.9,1.6-5.9,2.1c-0.4,0.1-0.8-0.1-0.9-0.5c-0.1-0.4,0.1-0.8,0.5-0.9c1.9-0.5,3.7-1.1,5.7-2
		C761.5,85.2,761.6,85.2,761.7,85.2z M913.5,85.5c0.1,0,0.2,0,0.3,0.1c1.9,0.8,3.8,1.4,5.7,1.9c0.4,0.1,0.7,0.5,0.6,0.9
		c-0.1,0.4-0.5,0.7-0.9,0.6c-2-0.5-4-1.1-5.9-2c-0.4-0.2-0.6-0.6-0.4-1C912.9,85.7,913.2,85.5,913.5,85.5z M262.5,85.9
		c0.1,0,0.2,0,0.3,0.1c1.9,0.8,3.8,1.3,5.7,1.7c0.4,0.1,0.7,0.5,0.6,0.9s-0.5,0.7-0.9,0.6c-2.1-0.4-4-1-6-1.8
		c-0.4-0.2-0.6-0.6-0.4-1C261.9,86.1,262.2,85.9,262.5,85.9z M480.3,86.1c0.3,0,0.6,0.2,0.7,0.5c0.2,0.4,0,0.8-0.4,1
		c-2,0.8-3.9,1.3-6,1.7c-0.4,0.1-0.8-0.2-0.9-0.6s0.2-0.8,0.6-0.9c2-0.4,3.9-1,5.8-1.7C480.1,86.1,480.2,86.1,480.3,86.1z M544,86.7
		c0.1,0,0.2,0,0.2,0c1.9,0.6,3.8,1.1,5.8,1.4c0.4,0.1,0.7,0.5,0.6,0.9c-0.1,0.4-0.5,0.7-0.9,0.6c-2.1-0.3-4.1-0.8-6.1-1.5
		c-0.4-0.1-0.6-0.6-0.5-1C543.3,86.9,543.6,86.7,544,86.7z M198.8,86.8c0.3,0,0.6,0.2,0.7,0.5c0.1,0.4-0.1,0.8-0.5,1
		c-2,0.6-4,1.1-6.1,1.4c-0.4,0.1-0.8-0.2-0.9-0.6s0.2-0.8,0.7-0.9c2.1-0.3,4-0.7,5.9-1.3C198.6,86.8,198.7,86.8,198.8,86.8z
		 M849.8,87.1c0.3,0,0.6,0.2,0.7,0.6c0.1,0.4-0.1,0.8-0.5,0.9c-2,0.6-4,1-6.1,1.2c-0.4,0.1-0.8-0.2-0.9-0.7
		c-0.1-0.4,0.2-0.8,0.7-0.9c2.1-0.3,4-0.6,5.9-1.2C849.7,87.1,849.7,87.1,849.8,87.1z M825.5,87.3c0.1,0,0.1,0,0.2,0
		c1.9,0.5,3.8,0.8,5.9,1.1c0.4,0,0.7,0.4,0.7,0.8s-0.4,0.7-0.8,0.7c-2.2-0.2-4.2-0.6-6.2-1.1c-0.4-0.1-0.7-0.5-0.5-0.9
		C824.8,87.5,825.1,87.3,825.5,87.3z M174.5,87.5c0.1,0,0.1,0,0.2,0c1.9,0.4,3.8,0.7,6,0.9c0.4,0,0.7,0.4,0.7,0.8s-0.4,0.7-0.8,0.7
		c-2.2-0.2-4.2-0.5-6.2-0.9c-0.4-0.1-0.7-0.5-0.6-0.9C173.8,87.8,174.1,87.5,174.5,87.5z M568.3,87.6c0.4,0,0.7,0.2,0.7,0.6
		c0.1,0.4-0.2,0.8-0.6,0.9c-2,0.4-4,0.7-6.2,0.9c-0.4,0-0.8-0.3-0.8-0.7s0.3-0.8,0.7-0.8c2.1-0.2,4.1-0.4,6-0.9
		C568.1,87.6,568.2,87.6,568.3,87.6z M456.1,88L456.1,88c2,0.3,4,0.5,6.1,0.6c0.4,0,0.8,0.4,0.7,0.8c0,0.4-0.3,0.8-0.8,0.7
		c-2.2-0.1-4.3-0.3-6.2-0.6c-0.4-0.1-0.7-0.5-0.6-0.9C455.4,88.2,455.7,88,456.1,88z M286.6,88c0.5,0,0.8,0.3,0.9,0.6
		c0.1,0.4-0.2,0.8-0.6,0.9c-2,0.3-4,0.5-6.2,0.6c-0.4,0-0.8-0.3-0.8-0.7s0.3-0.8,0.7-0.8C282.8,88.5,284.7,88.3,286.6,88L286.6,88z
		 M937.6,88.3c0.5-0.1,0.8,0.2,0.9,0.6c0.1,0.4-0.2,0.8-0.7,0.9c-2,0.3-4,0.4-6.2,0.5l0,0c-0.4,0-0.8-0.3-0.8-0.8
		c0-0.4,0.3-0.8,0.8-0.8C933.8,88.7,935.7,88.5,937.6,88.3C937.6,88.2,937.6,88.2,937.6,88.3z M737.6,88.3
		C737.7,88.3,737.7,88.3,737.6,88.3c2,0.2,4,0.4,6.1,0.4c0.4,0,0.8,0.3,0.8,0.8c0,0.4-0.3,0.8-0.8,0.8l0,0c-2.2,0-4.3-0.1-6.2-0.4
		c-0.4,0-0.7-0.4-0.7-0.9C736.9,88.6,737.3,88.3,737.6,88.3z M5.1,88.3c0.4,0,0.7,0.3,0.8,0.7c0,0.4-0.3,0.8-0.7,0.8
		c-1.9,0.2-4,0.3-6.2,0.3c-0.4,0-0.8-0.3-0.8-0.8s0.3-0.8,0.8-0.8C1.1,88.7,3.1,88.6,5.1,88.3C5,88.3,5.1,88.3,5.1,88.3z M86.7,88.4
		L86.7,88.4c1.7,0.2,3.5,0.2,5.4,0.3h0.7c0.4-0.1,0.8,0.3,0.8,0.8c0,0.4-0.3,0.8-0.8,0.8h-0.7c-1.9,0-3.8-0.1-5.5-0.3
		c-0.4,0-0.7-0.4-0.7-0.8C86,88.7,86.3,88.4,86.7,88.4z M656,88.4c0.4,0,0.7,0.3,0.8,0.7c0,0.4-0.3,0.8-0.7,0.8
		c-1.6,0.1-3.3,0.2-5.1,0.2h-1.1c-0.4,0-0.8-0.4-0.8-0.8s0.3-0.8,0.8-0.8h1.1C652.7,88.7,654.4,88.6,656,88.4L656,88.4z
		 M1019.3,88.5L1019.3,88.5c1.4,0.1,2.8,0.2,4.3,0.2c0.4,0,0.8,0.3,0.8,0.8s-0.4,0.7-0.9,0.7c-1.5,0-3-0.1-4.3-0.2
		c-0.4,0-0.7-0.4-0.7-0.8C1018.5,88.8,1018.9,88.5,1019.3,88.5z M368.3,88.6L368.3,88.6c1.1,0.1,2.1,0.1,3.3,0.1c1,0,1.9,0,2.8-0.1
		c0.4,0,0.8,0.3,0.8,0.7s-0.3,0.8-0.7,0.8c-0.9,0-1.9,0.1-3,0.1s-2.2,0-3.3-0.1c-0.4,0-0.7-0.4-0.7-0.8
		C367.6,88.9,367.9,88.6,368.3,88.6z"/>
	<g>
		<path class="st1" d="M996,49c1.1,0.3,11.7-5.9,14.1-4.4c1.3,0.8,1.1,14.2,1.3,14.7c0.4,1.5,8,8,7.4,10.8
			c-0.4,2.1-12.1,4.3-12.9,5.5c-0.8,1.1-5.6,12.1-7.6,12.1c-2,0-8.3-9.8-9.2-9.5c-0.8,0.3-14-2.6-14.9-4.4
			c-0.8-1.8,7.6-10.9,7.6-11.8s-1.9-13.9-0.3-15C983.8,45.3,995.6,48.7,996,49z"/>
		<path class="st3" d="M1018.8,70.1c-0.4,2.1-12.1,4.3-12.9,5.5c-0.8,1.1-5.6,12.1-7.6,12.1c-1.1,0-3.5-3-5.6-5.6
			c5.6-9.9,5.1-22.7,0.5-34c1.7,0.3,2.8,0.8,3,0.8c1.1,0.3,11.7-5.9,14.1-4.4c1.3,0.8,1.1,14.2,1.3,14.7
			C1011.8,60.7,1019.5,67.2,1018.8,70.1z"/>
		<path class="st1" d="M1007.9,111.1c6.4,0,5.5-9.3,0-9.3C1001,101.8,1001.4,111.1,1007.9,111.1z"/>
		<path class="st1" d="M28.6,105.2c-3.3,0-2.8-4.8,0-4.8C32.1,100.4,31.9,105.2,28.6,105.2z"/>
		<path class="st1" d="M971.8,112.5c4,0,3.5-5.8,0-5.8C967.5,106.7,967.8,112.5,971.8,112.5z"/>
		<path class="st1" d="M51.8,110.3c-2.3,0-2-3.3,0-3.3C54.3,107,54.1,110.3,51.8,110.3z"/>
		<path class="st4" d="M1009.7,65.8c-0.5,2.5-7.5,0.5-5.9-2.3C1005.1,61.1,1010.2,63.3,1009.7,65.8z"/>
		<path class="st4" d="M993,59.3c-0.5,2.9-6.8,0.2-6.3-2.1C987.4,54.3,993.5,56.3,993,59.3z"/>
		<path class="st5" d="M1006.3,63c0.5-1.1,0-2.4-1.2-2.9c-1.1-0.5-2.4,0-2.9,1.2c-0.1,0.2,0,0.3,0.2,0.4c0.2,0.1,0.3,0,0.4-0.2
			c0.4-0.8,1.3-1.2,2.2-0.8c0.8,0.4,1.3,1.3,0.9,2.2c-0.1,0.2,0,0.3,0.3,0.4l0,0C1006.3,63.3,1006.4,63.3,1006.3,63z"/>
		<path class="st5" d="M999.3,63.8c0.5-0.2,0.8-0.6,1.1-1.1c0.1-0.2,0-0.3-0.2-0.4c-0.2-0.1-0.3,0-0.4,0.2c-0.3,0.7-1.2,1.1-1.9,0.8
			c-0.8-0.3-1.1-1.2-0.8-1.9c0.1-0.2,0-0.3-0.2-0.4c-0.2-0.1-0.3,0-0.4,0.2c-0.5,1,0,2.3,1.1,2.7c0.3,0.1,0.6,0.2,0.8,0.2
			C998.8,63.9,999,63.8,999.3,63.8z"/>
		<path class="st5" d="M995.3,59.3c0.3-0.6,0.3-1.2,0-1.8c-0.3-0.6-0.7-1-1.3-1.3c-0.6-0.3-1.2-0.3-1.8,0c-0.6,0.3-1,0.7-1.3,1.3
			c-0.1,0.2,0,0.3,0.2,0.4c0.2,0.1,0.3,0,0.4-0.2c0.2-0.4,0.5-0.8,0.9-0.9c0.4-0.2,0.8-0.2,1.3,0s0.8,0.5,0.9,0.9
			c0.2,0.4,0.2,0.8,0,1.3c-0.1,0.2,0,0.3,0.2,0.4h0.1C995.2,59.4,995.2,59.3,995.3,59.3z"/>
	</g>
</g>
</svg>
