<?xml version="1.0" encoding="utf-8"?>
<!-- Generator: Adobe Illustrator 21.0.0, SVG Export Plug-In . SVG Version: 6.00 Build 0)  -->
<svg version="1.1" id="Layer_1" xmlns="http://www.w3.org/2000/svg" xmlns:xlink="http://www.w3.org/1999/xlink" x="0px" y="0px"
	 viewBox="0 0 58.9 58.9" style="enable-background:new 0 0 58.9 58.9;" xml:space="preserve">
<style type="text/css">
	.st0{fill:url(#SVGID_1_);}
	.st1{display:none;fill:#FFFFFF;}
	.st2{opacity:0.5;fill:#FFFFFF;}
	.st3{fill:#FFFFFF;}
</style>
<g>
	
		<linearGradient id="SVGID_1_" gradientUnits="userSpaceOnUse" x1="121.0301" y1="-892.426" x2="121.0301" y2="-949.8535" gradientTransform="matrix(1 0 0 -1 -91.5801 -891.4858)">
		<stop  offset="0" style="stop-color:#7BBF40"/>
		<stop  offset="1" style="stop-color:#47A537"/>
	</linearGradient>
	<path class="st0" d="M58.9,50c0,4.9-4,8.8-8.8,8.8H8.8C4,58.9,0,54.9,0,50V8.8C0,4,4,0,8.8,0H50c4.9,0,8.8,4,8.8,8.8V50H58.9z"/>
	<path class="st1" d="M30.5,30.2c0-0.5-0.4-0.9-0.9-0.9s-0.9,0.4-0.9,0.9s0.4,0.9,0.9,0.9C30.2,31.1,30.5,30.7,30.5,30.2z"/>
	<path class="st1" d="M33.2,29.5l10.5-5c0.4-0.2,0.6-0.7,0.4-1.2c-0.2-0.4-0.7-0.6-1.2-0.4l-10.5,5c-0.4,0.2-0.6,0.7-0.4,1.2
		C32.2,29.5,32.7,29.7,33.2,29.5z"/>
	<path class="st1" d="M7.3,37.7c0,0.3,0.2,0.6,0.5,0.8L29.3,49c0.1,0.1,0.3,0.1,0.4,0.1s0.3,0,0.4-0.1l21.5-10.5
		c0.3-0.1,0.5-0.4,0.5-0.8s-0.2-0.6-0.5-0.8L46,34.1l5.5-2.7c0.3-0.1,0.5-0.4,0.5-0.8c0-0.3-0.2-0.6-0.5-0.8L46,27.2l5.5-2.7
		c0.3-0.1,0.5-0.5,0.5-0.8s-0.2-0.6-0.5-0.8L30.1,12.4c-0.2-0.1-0.5-0.1-0.8,0L7.8,22.9c-0.3,0.1-0.5,0.5-0.5,0.8s0.2,0.6,0.5,0.8
		l5.5,2.7l-5.5,2.7c-0.3,0.1-0.5,0.5-0.5,0.8s0.2,0.6,0.5,0.8l5.5,2.7l-5.5,2.7C7.5,37,7.3,37.3,7.3,37.7z M29.7,14.2l19.5,9.5
		l-19.5,9.5l-19.5-9.5L29.7,14.2z M15.3,28.1l14,6.8c0.1,0.1,0.3,0.1,0.4,0.1s0.3,0,0.4-0.1l14-6.8l5.1,2.5l-19.5,9.5l-19.5-9.5
		L15.3,28.1z M15.3,35.1l14,6.8c0.1,0.1,0.3,0.1,0.4,0.1s0.3,0,0.4-0.1l14-6.8l5.1,2.5l-19.5,9.5l-19.5-9.5L15.3,35.1z"/>
</g>
<path class="st2" d="M9.4,17.1c-0.5,0-0.8,0.4-0.8,0.8v8c0,0.5,0.4,0.8,0.8,0.8s0.8-0.4,0.8-0.8v-8C10.2,17.4,9.9,17.1,9.4,17.1z"/>
<path class="st2" d="M16,24.6c0.5,0,0.8-0.4,0.8-0.8v-3.9c0-0.5-0.4-0.8-0.8-0.8s-0.8,0.4-0.8,0.8v3.9C15.1,24.3,15.5,24.6,16,24.6z
	"/>
<path class="st2" d="M6.1,13.8c-0.5,0-0.8,0.4-0.8,0.8v13.6c0,0.5,0.4,0.8,0.8,0.8c0.5,0,0.8-0.4,0.8-0.8V14.7
	C7,14.2,6.6,13.8,6.1,13.8z"/>
<path class="st2" d="M12.7,16.2c-0.5,0-0.8,0.4-0.8,0.8v11.1c0,0.5,0.4,0.8,0.8,0.8c0.5,0,0.8-0.4,0.8-0.8V17.1
	C13.5,16.6,13.1,16.2,12.7,16.2z"/>
<path class="st2" d="M49.8,17.1c-0.5,0-0.8,0.4-0.8,0.8v8c0,0.5,0.4,0.8,0.8,0.8c0.5,0,0.8-0.4,0.8-0.8v-8
	C50.6,17.4,50.3,17.1,49.8,17.1z"/>
<path class="st2" d="M43.3,24.6c0.5,0,0.8-0.4,0.8-0.8v-3.9c0-0.5-0.4-0.8-0.8-0.8s-0.8,0.4-0.8,0.8v3.9
	C42.4,24.3,42.8,24.6,43.3,24.6z"/>
<path class="st2" d="M53.1,13.8c-0.5,0-0.8,0.4-0.8,0.8v13.6c0,0.5,0.4,0.8,0.8,0.8s0.8-0.4,0.8-0.8V14.7
	C53.9,14.2,53.5,13.8,53.1,13.8z"/>
<path class="st2" d="M46.5,16.2c-0.5,0-0.8,0.4-0.8,0.8v7.6c0,0.5,0.4,0.8,0.8,0.8c0.5,0,0.8-0.4,0.8-0.8v-7.6
	C47.3,16.6,47,16.2,46.5,16.2z"/>
<g>
	<g>
		<path class="st3" d="M42.1,27.4h-3.3v-9.8c0-2.2-0.8-4.3-2.3-6c-0.2-0.3-0.6-0.3-0.9,0c-0.3,0.2-0.3,0.6,0,0.9
			c1.3,1.4,2,3.2,2,5.1v12.7c0,4.2-3.4,7.6-7.6,7.6s-7.6-3.4-7.6-7.6V17.6c0-4.2,3.4-7.6,7.6-7.6c1.5,0,3,0.4,4.3,1.3
			c0.3,0.2,0.7,0.1,0.9-0.2c0.2-0.3,0.1-0.7-0.2-0.9c-1.5-1-3.2-1.5-5-1.5c-4.9,0-8.9,4-8.9,8.9v9.8h-3.3c-0.3,0-0.6,0.3-0.6,0.6
			v2.1c0,6.9,5.4,12.5,12.2,12.8v5.8h-5.1c-0.3,0-0.6,0.3-0.6,0.6c0,0.3,0.3,0.6,0.6,0.6h11.4c0.3,0,0.6-0.3,0.6-0.6
			c0-0.3-0.3-0.6-0.6-0.6h-5.1V43c6.8-0.3,12.2-5.9,12.2-12.8v-2.1C42.7,27.7,42.4,27.4,42.1,27.4z M41.4,30.2
			c0,6.4-5.2,11.6-11.6,11.6c-6.4,0-11.6-5.2-11.6-11.6v-1.5H21v1.7c0,4.9,4,8.9,8.9,8.9c4.9,0,8.9-4,8.9-8.9v-1.7h2.7V30.2
			L41.4,30.2z"/>
	</g>
</g>
</svg>
