<?xml version="1.0" encoding="utf-8"?>
<!-- Generator: Adobe Illustrator 16.0.0, SVG Export Plug-In . SVG Version: 6.00 Build 0)  -->
<!DOCTYPE svg PUBLIC "-//W3C//DTD SVG 1.1//EN" "http://www.w3.org/Graphics/SVG/1.1/DTD/svg11.dtd">
<svg version="1.1" id="Objects" xmlns="http://www.w3.org/2000/svg" xmlns:xlink="http://www.w3.org/1999/xlink" x="0px" y="0px"
	 width="397.866px" height="253.205px" viewBox="0 0 397.866 253.205" enable-background="new 0 0 397.866 253.205"
	 xml:space="preserve">
<g>
	<linearGradient id="SVGID_1_" gradientUnits="userSpaceOnUse" x1="198.9336" y1="1.2622" x2="198.9336" y2="617.2823">
		<stop  offset="0" style="stop-color:#74CCD4"/>
		<stop  offset="1" style="stop-color:#41C0BE"/>
	</linearGradient>
	<path fill="url(#SVGID_1_)" d="M364.111,0H12.785C5.753,0,0,5.753,0,12.785V240.42c0,7.032,5.753,12.785,12.785,12.785h372.298
		c7.031,0,12.783-5.753,12.783-12.785V33.674L364.111,0z"/>
	<path d="M364.111,0l-3.419,31.083c0,4.958,4.058,9.016,9.016,9.016l27.71-6.425L364.111,0z"/>
	<path fill="#FFFFFF" d="M364.198,0v24.615c0,4.958,4.057,9.015,9.014,9.015h24.206L364.198,0z"/>
	<rect y="51.609" fill="#FFFFFF" width="397.866" height="4.036"/>
</g>
</svg>
