<?xml version="1.0" encoding="utf-8"?>
<!-- Generator: Adobe Illustrator 21.0.0, SVG Export Plug-In . SVG Version: 6.00 Build 0)  -->
<svg version="1.1" id="Layer_1" xmlns="http://www.w3.org/2000/svg" xmlns:xlink="http://www.w3.org/1999/xlink" x="0px" y="0px"
	 viewBox="0 0 58.9 58.9" style="enable-background:new 0 0 58.9 58.9;" xml:space="preserve">
<style type="text/css">
	.st0{fill:url(#SVGID_1_);}
	.st1{display:none;fill:#FFFFFF;}
	.st2{fill:#FFFFFF;}
</style>
<g>
	
		<linearGradient id="SVGID_1_" gradientUnits="userSpaceOnUse" x1="121.0301" y1="-891.426" x2="121.0301" y2="-948.8535" gradientTransform="matrix(1 0 0 -1 -91.5801 -890.4858)">
		<stop  offset="0" style="stop-color:#7BBF40"/>
		<stop  offset="1" style="stop-color:#47A537"/>
	</linearGradient>
	<path class="st0" d="M58.9,50c0,4.9-4,8.8-8.8,8.8H8.8C4,58.9,0,54.9,0,50V8.8C0,4,4,0,8.8,0H50c4.9,0,8.8,4,8.8,8.8V50H58.9z"/>
	<path class="st1" d="M30.5,30.2c0-0.5-0.4-0.9-0.9-0.9s-0.9,0.4-0.9,0.9s0.4,0.9,0.9,0.9C30.2,31.1,30.5,30.7,30.5,30.2z"/>
	<path class="st1" d="M33.2,29.5l10.5-5c0.4-0.2,0.6-0.7,0.4-1.2c-0.2-0.4-0.7-0.6-1.2-0.4l-10.5,5c-0.4,0.2-0.6,0.7-0.4,1.2
		C32.2,29.5,32.7,29.7,33.2,29.5z"/>
	<path class="st1" d="M7.3,37.7c0,0.3,0.2,0.6,0.5,0.8L29.3,49c0.1,0.1,0.3,0.1,0.4,0.1s0.3,0,0.4-0.1l21.5-10.5
		c0.3-0.1,0.5-0.4,0.5-0.8s-0.2-0.6-0.5-0.8L46,34.1l5.5-2.7c0.3-0.1,0.5-0.4,0.5-0.8c0-0.3-0.2-0.6-0.5-0.8L46,27.2l5.5-2.7
		c0.3-0.1,0.5-0.5,0.5-0.8s-0.2-0.6-0.5-0.8L30.1,12.4c-0.2-0.1-0.5-0.1-0.8,0L7.8,22.9c-0.3,0.1-0.5,0.5-0.5,0.8s0.2,0.6,0.5,0.8
		l5.5,2.7l-5.5,2.7c-0.3,0.1-0.5,0.5-0.5,0.8s0.2,0.6,0.5,0.8l5.5,2.7l-5.5,2.7C7.5,37,7.3,37.3,7.3,37.7z M29.7,14.2l19.5,9.5
		l-19.5,9.5l-19.5-9.5L29.7,14.2z M15.3,28.1l14,6.8c0.1,0.1,0.3,0.1,0.4,0.1s0.3,0,0.4-0.1l14-6.8l5.1,2.5l-19.5,9.5l-19.5-9.5
		L15.3,28.1z M15.3,35.1l14,6.8c0.1,0.1,0.3,0.1,0.4,0.1s0.3,0,0.4-0.1l14-6.8l5.1,2.5l-19.5,9.5l-19.5-9.5L15.3,35.1z"/>
</g>
<path class="st2" d="M38.9,9.9c0.1,0,0.3,0,0.4-0.1l2.5-2C42,7.5,42,7.2,41.8,6.9c-0.2-0.3-0.6-0.3-0.9-0.1l-2.5,2
	c-0.3,0.2-0.3,0.6-0.1,0.9C38.5,9.8,38.7,9.9,38.9,9.9z"/>
<path class="st2" d="M35.1,11.6l-4.5,3.6c-0.3,0.2-0.3,0.6-0.1,0.9c0.2,0.3,0.6,0.3,0.9,0.1l0,0l4.5-3.6c0.3-0.2,0.3-0.6,0.1-0.9
	C35.8,11.4,35.4,11.4,35.1,11.6C35.1,11.6,35.1,11.6,35.1,11.6L35.1,11.6z"/>
<path class="st2" d="M23.9,22.1c0.1,0,0.3,0,0.4-0.1l3.2-2.6c0.3-0.2,0.3-0.6,0.1-0.9s-0.6-0.3-0.9-0.1L23.5,21
	c-0.3,0.2-0.3,0.6-0.1,0.9C23.5,22,23.7,22.1,23.9,22.1L23.9,22.1z"/>
<path class="st2" d="M51.9,11.7l-9.2,7.2c-0.3,0.2-0.3,0.6-0.1,0.9c0.2,0.3,0.6,0.3,0.9,0.1c0,0,0,0,0,0l9.2-7.2
	c0.3-0.2,0.3-0.6,0.1-0.9C52.6,11.6,52.2,11.5,51.9,11.7C51.9,11.7,51.9,11.7,51.9,11.7L51.9,11.7z"/>
<path class="st2" d="M24.5,34.1c0.2,0.3,0.6,0.3,0.9,0.1c0,0,0,0,0,0l9-7.1c0.3-0.2,0.3-0.6,0.1-0.9c-0.2-0.3-0.6-0.3-0.9-0.1l0,0
	l-9,7.1C24.3,33.5,24.3,33.9,24.5,34.1C24.5,34.1,24.5,34.1,24.5,34.1L24.5,34.1z"/>
<path class="st2" d="M5,26.6c-0.7,0-1.2,0.6-1.2,1.2C3.7,28.5,4.3,29,5,29s1.2-0.6,1.2-1.2C6.2,27.1,5.6,26.6,5,26.6z"/>
<path class="st2" d="M10.6,23.9c0.4,0,0.7-0.3,0.7-0.7c0-0.4-0.3-0.7-0.7-0.7c-0.4,0-0.7,0.3-0.7,0.7l0,0
	C9.9,23.6,10.2,23.9,10.6,23.9z"/>
<path class="st2" d="M37.6,53.1c-0.6,0-1.1,0.5-1.1,1.1c0,0.6,0.5,1.1,1.1,1.1c0.6,0,1.1-0.5,1.1-1.1l0,0
	C38.8,53.6,38.3,53.1,37.6,53.1z"/>
<path class="st2" d="M47.1,8.8c0.5,0,1-0.4,1-1c0-0.5-0.4-1-1-1c-0.5,0-1,0.4-1,1c0,0,0,0,0,0C46.1,8.3,46.5,8.8,47.1,8.8z"/>
<path class="st2" d="M25,38.9l-4.4-2.1l-0.8-4.8c-0.1-0.3-0.4-0.6-0.7-0.5c-0.1,0-0.3,0.1-0.3,0.2l-3.4,3.5l-4.8-0.8
	c-0.3-0.1-0.6,0.2-0.7,0.5c0,0.1,0,0.3,0.1,0.4l2.3,4.3l-2.2,4.4c-0.2,0.3,0,0.7,0.3,0.8c0.1,0.1,0.3,0.1,0.4,0.1l4.8-0.9l3.5,3.5
	c0.2,0.2,0.6,0.2,0.9,0c0.1-0.1,0.2-0.2,0.2-0.4l0.7-4.9l4.4-2.2c0.3-0.2,0.4-0.5,0.3-0.8C25.3,39,25.2,39,25,38.9L25,38.9z
	 M19.8,41.3c-0.2,0.1-0.3,0.3-0.3,0.5L19,45.7l-2.8-2.8c-0.1-0.1-0.3-0.2-0.4-0.2c0,0-0.1,0-0.1,0l-3.9,0.7l1.8-3.5
	c0.1-0.2,0.1-0.4,0-0.6l-1.9-3.5l3.9,0.6c0.2,0,0.4,0,0.5-0.2l2.8-2.9l0.6,3.9c0,0.2,0.2,0.4,0.3,0.5l3.6,1.7L19.8,41.3z"/>
<g>
	<path id="XMLID_1292_" class="st2" d="M14.1,9.7c0.3,0,0.6-0.2,0.6-0.6V8.4c0-0.3-0.2-0.6-0.6-0.6c-0.3,0-0.6,0.2-0.6,0.6v0.7
		C13.6,9.4,13.8,9.7,14.1,9.7z"/>
	<path id="XMLID_1295_" class="st2" d="M14.1,13.4c0.3,0,0.6-0.2,0.6-0.6v-0.7c0-0.3-0.2-0.6-0.6-0.6c-0.3,0-0.6,0.2-0.6,0.6v0.7
		C13.6,13.1,13.8,13.4,14.1,13.4z"/>
	<path id="XMLID_1306_" class="st2" d="M15.6,11.1h0.7c0.3,0,0.6-0.2,0.6-0.6c0-0.3-0.2-0.6-0.6-0.6h-0.7c-0.3,0-0.6,0.2-0.6,0.6
		C15,10.9,15.3,11.1,15.6,11.1L15.6,11.1z"/>
	<path id="XMLID_1309_" class="st2" d="M11.9,11.1h0.7c0.3,0,0.6-0.2,0.6-0.6c0-0.3-0.2-0.6-0.6-0.6h-0.7c-0.3,0-0.6,0.2-0.6,0.6
		C11.3,10.9,11.6,11.1,11.9,11.1z"/>
</g>
<path class="st2" d="M13.3,27.1c0.2,0.3,0.5,0.5,0.8,0.5l2.8-0.1l1.7,2.2c0.3,0.4,0.9,0.5,1.3,0.2c0.2-0.1,0.3-0.3,0.3-0.5l0.7-2.7
	l2.6-0.9c0.5-0.2,0.7-0.7,0.6-1.2c-0.1-0.2-0.2-0.3-0.4-0.5l-2.3-1.5l-0.1-2.8c0-0.5-0.4-0.9-0.9-0.9c-0.2,0-0.4,0.1-0.5,0.2
	l-2.2,1.7L15,20c-0.5-0.1-1,0.1-1.1,0.6c-0.1,0.2,0,0.4,0,0.6l1,2.6l-1.6,2.3C13.2,26.4,13.1,26.8,13.3,27.1L13.3,27.1z"/>
<path class="st2" d="M34.1,24.7c0.1,0.3,0.4,0.4,0.7,0.4l2.3-0.1l1.4,1.8c0.3,0.3,0.7,0.4,1.1,0.1c0.1-0.1,0.2-0.2,0.3-0.4l0.6-2.2
	l2.2-0.8c0.4-0.1,0.6-0.6,0.5-1c-0.1-0.2-0.2-0.3-0.3-0.4L40.9,21l-0.1-2.3c0-0.4-0.4-0.7-0.8-0.7c-0.2,0-0.3,0.1-0.5,0.2l-1.8,1.4
	l-2.2-0.7c-0.4-0.1-0.8,0.1-0.9,0.5c0,0.2,0,0.3,0,0.5l0.8,2.2l-1.3,1.9C34,24.2,34,24.5,34.1,24.7L34.1,24.7z"/>
<g>
	<path class="st2" d="M55.1,26.4l-2.3,1.8c-0.3,0.2-0.3,0.6-0.1,0.9c0.2,0.3,0.6,0.3,0.9,0.1l2.3-1.8c0.3-0.2,0.3-0.6,0.1-0.9
		C55.7,26.3,55.3,26.2,55.1,26.4L55.1,26.4z"/>
	<path class="st2" d="M45.1,34.8L37.3,41c-0.3,0.2-0.3,0.6-0.1,0.9c0.2,0.3,0.6,0.3,0.9,0.1c0,0,0,0,0,0l7.8-6.1
		c0.3-0.2,0.3-0.6,0.1-0.9C45.8,34.7,45.4,34.6,45.1,34.8z"/>
	<path class="st2" d="M36.4,42.3c-0.2-0.3-0.6-0.3-0.9-0.1c0,0,0,0,0,0l-1.3,1c-0.3,0.2-0.3,0.6-0.1,0.9c0.2,0.3,0.6,0.3,0.9,0.1
		l1.3-1C36.6,42.9,36.6,42.6,36.4,42.3z"/>
	<path class="st2" d="M26.8,47.8c0.1,0.2,0.3,0.3,0.6,0.3l1.9,0l1.1,1.6c0.2,0.3,0.6,0.4,0.9,0.2c0.1-0.1,0.2-0.2,0.2-0.3l0.6-1.8
		l1.8-0.6c0.3-0.1,0.5-0.5,0.4-0.8c0-0.1-0.1-0.2-0.2-0.3l-1.6-1.1l0-1.9c0-0.3-0.3-0.6-0.6-0.6c-0.1,0-0.3,0-0.4,0.1L30,43.5
		l-1.8-0.6c-0.3-0.1-0.7,0.1-0.8,0.4c0,0.1,0,0.3,0,0.4l0.6,1.8l-1.2,1.5C26.7,47.3,26.7,47.5,26.8,47.8L26.8,47.8z"/>
	<path class="st2" d="M52.7,33l-1.4-1.7l0.6-2.1c0-0.1,0-0.3-0.2-0.3c-0.1,0-0.1,0-0.2,0l-2,0.8l-1.8-1.2c-0.1-0.1-0.3-0.1-0.4,0.1
		c0,0,0,0.1,0,0.2l0.1,2.2l-1.7,1.3c-0.1,0.1-0.1,0.3,0,0.4c0,0,0.1,0.1,0.1,0.1l2.1,0.5l0.7,2c0.1,0.1,0.2,0.2,0.3,0.2
		c0.1,0,0.1-0.1,0.1-0.1l1.2-1.8l2.2-0.1c0.2,0,0.3-0.1,0.3-0.3C52.8,33.1,52.7,33,52.7,33L52.7,33z M50.2,33
		c-0.1,0-0.2,0.1-0.2,0.1l-1,1.5l-0.6-1.7c0-0.1-0.1-0.1-0.1-0.2c0,0,0,0,0,0l-1.7-0.4l1.4-1.1C48,31.2,48,31.1,48,31l-0.1-1.8
		l1.5,1c0.1,0.1,0.2,0.1,0.3,0l1.6-0.6l-0.5,1.7c0,0.1,0,0.2,0.1,0.2l1.1,1.4L50.2,33z"/>
</g>
<g>
	<path id="XMLID_4_" class="st2" d="M47.1,44.1c0.3,0,0.6-0.2,0.6-0.6v-0.7c0-0.3-0.2-0.6-0.6-0.6c-0.3,0-0.6,0.2-0.6,0.6v0.7
		C46.5,43.9,46.8,44.1,47.1,44.1z"/>
	<path id="XMLID_3_" class="st2" d="M47.1,47.8c0.3,0,0.6-0.2,0.6-0.6v-0.7c0-0.3-0.2-0.6-0.6-0.6c-0.3,0-0.6,0.2-0.6,0.6v0.7
		C46.5,47.6,46.8,47.8,47.1,47.8z"/>
	<path id="XMLID_2_" class="st2" d="M48.5,45.6h0.7c0.3,0,0.6-0.2,0.6-0.6c0-0.3-0.2-0.6-0.6-0.6h-0.7c-0.3,0-0.6,0.2-0.6,0.6
		C48,45.3,48.2,45.6,48.5,45.6L48.5,45.6z"/>
	<path id="XMLID_1_" class="st2" d="M44.8,45.6h0.7c0.3,0,0.6-0.2,0.6-0.6c0-0.3-0.2-0.6-0.6-0.6h-0.7c-0.3,0-0.6,0.2-0.6,0.6
		C44.3,45.3,44.5,45.6,44.8,45.6z"/>
</g>
</svg>
