<?xml version="1.0" encoding="utf-8"?>
<!-- Generator: Adobe Illustrator 21.0.0, SVG Export Plug-In . SVG Version: 6.00 Build 0)  -->
<svg version="1.1" id="Layer_1" xmlns="http://www.w3.org/2000/svg" xmlns:xlink="http://www.w3.org/1999/xlink" x="0px" y="0px"
	 viewBox="0 0 58.9 58.9" style="enable-background:new 0 0 58.9 58.9;" xml:space="preserve">
<style type="text/css">
	.st0{fill:url(#SVGID_1_);}
	.st1{display:none;fill:#FFFFFF;}
	.st2{fill:#FFFFFF;stroke:#124907;stroke-width:2;stroke-miterlimit:10;stroke-opacity:0.5;}
	.st3{fill:#E2E2E2;}
</style>
<g>
	
		<linearGradient id="SVGID_1_" gradientUnits="userSpaceOnUse" x1="339.9973" y1="-1261.0266" x2="339.9973" y2="-1318.4531" gradientTransform="matrix(1 0 0 -1 -310.5703 -1260.0859)">
		<stop  offset="0" style="stop-color:#7BBF40"/>
		<stop  offset="1" style="stop-color:#47A537"/>
	</linearGradient>
	<path class="st0" d="M58.9,50c0,4.9-4,8.8-8.8,8.8H8.8C4,58.9,0,54.9,0,50V8.8C0,4,4,0,8.8,0H50c4.9,0,8.8,4,8.8,8.8V50z"/>
	<path class="st1" d="M30.5,30.2c0-0.5-0.4-0.9-0.9-0.9s-0.9,0.4-0.9,0.9c0,0.5,0.4,0.9,0.9,0.9C30.2,31.1,30.5,30.7,30.5,30.2z"/>
	<path class="st1" d="M33.2,29.5l10.5-5c0.4-0.2,0.6-0.7,0.4-1.2c-0.2-0.4-0.7-0.6-1.2-0.4l-10.5,5c-0.4,0.2-0.6,0.7-0.4,1.2
		C32.2,29.5,32.7,29.7,33.2,29.5z"/>
	<path class="st1" d="M7.3,37.7c0,0.3,0.2,0.6,0.5,0.8l21.5,10.5c0.1,0.1,0.3,0.1,0.4,0.1s0.3,0,0.4-0.1l21.5-10.5
		c0.3-0.1,0.5-0.4,0.5-0.8s-0.2-0.6-0.5-0.8L46,34.1l5.5-2.7c0.3-0.1,0.5-0.4,0.5-0.8c0-0.3-0.2-0.6-0.5-0.8L46,27.2l5.5-2.7
		c0.3-0.1,0.5-0.5,0.5-0.8s-0.2-0.6-0.5-0.8L30.1,12.4c-0.2-0.1-0.5-0.1-0.8,0L7.8,22.9c-0.3,0.1-0.5,0.4-0.5,0.8
		c0,0.3,0.2,0.6,0.5,0.8l5.5,2.7l-5.5,2.7c-0.3,0.1-0.5,0.5-0.5,0.8c0,0.3,0.2,0.6,0.5,0.8l5.5,2.7l-5.5,2.7
		C7.5,37,7.3,37.3,7.3,37.7z M29.7,14.2l19.5,9.5l-19.5,9.5l-19.5-9.5L29.7,14.2z M15.3,28.1l14,6.8c0.1,0.1,0.3,0.1,0.4,0.1
		s0.3,0,0.4-0.1l14-6.8l5.1,2.5l-19.5,9.5l-19.5-9.5L15.3,28.1z M15.3,35.1l14,6.8c0.1,0.1,0.3,0.1,0.4,0.1s0.3,0,0.4-0.1l14-6.8
		l5.1,2.5l-19.5,9.5l-19.5-9.5L15.3,35.1z"/>
</g>
<path class="st2" d="M25.8,53l17.8-30.7c0.4-0.7-0.2-1.5-1-1.4l-11.9,1.6l2.8-14.9c0.1-0.5-0.6-0.8-0.9-0.4L15.3,30.3
	c-0.5,0.7,0,1.6,0.9,1.5l13.1-1.4l-4.3,22.1C24.8,53.2,25.5,53.4,25.8,53z"/>
<path class="st3" d="M20.8,28.7c-0.3,0-0.5-0.3-0.4-0.6l13.1-21C33.3,7,33,6.9,32.8,7.2L15.3,30.3c-0.5,0.7,0,1.6,0.9,1.5l13.1-1.4
	l-4.3,22.1c-0.1,0.3,0.1,0.5,0.4,0.6L32.7,30c0.3-1.1-0.5-2.2-1.7-2.1L20.8,28.7z"/>
</svg>
