<?xml version="1.0" encoding="utf-8"?>
<!-- Generator: Adobe Illustrator 16.0.0, SVG Export Plug-In . SVG Version: 6.00 Build 0)  -->
<!DOCTYPE svg PUBLIC "-//W3C//DTD SVG 1.1//EN" "http://www.w3.org/Graphics/SVG/1.1/DTD/svg11.dtd">
<svg version="1.1" id="Layer_1" xmlns="http://www.w3.org/2000/svg" xmlns:xlink="http://www.w3.org/1999/xlink" x="0px" y="0px"
	 width="58.854px" height="58.852px" viewBox="0 0 58.854 58.852" enable-background="new 0 0 58.854 58.852" xml:space="preserve">
<g>
	<g>
		
			<linearGradient id="SVGID_1_" gradientUnits="userSpaceOnUse" x1="-61.5823" y1="145.3137" x2="-61.5823" y2="87.8856" gradientTransform="matrix(1 0 0 -1 91.0098 146.2524)">
			<stop  offset="0" style="stop-color:#8AC651"/>
			<stop  offset="1" style="stop-color:#55AF47"/>
		</linearGradient>
		<path fill="url(#SVGID_1_)" d="M58.854,50.012c0,4.881-3.959,8.84-8.842,8.84H8.841C3.958,58.852,0,54.893,0,50.012V8.84
			C0,3.957,3.958,0,8.841,0h41.171c4.883,0,8.842,3.957,8.842,8.84V50.012z"/>
	</g>
	<path fill="#FFFFFF" d="M23.694,38.693c-0.178,0-0.356-0.062-0.501-0.186l-5.01-4.268c-0.173-0.146-0.273-0.361-0.273-0.59
		c0-0.226,0.1-0.441,0.273-0.589l5.01-4.266c0.326-0.278,0.814-0.238,1.091,0.087c0.277,0.326,0.239,0.815-0.087,1.091l-4.319,3.677
		l4.319,3.679c0.326,0.278,0.364,0.766,0.087,1.091C24.131,38.599,23.913,38.693,23.694,38.693z"/>
	<path fill="#FFFFFF" d="M33.586,38.693c-0.218,0-0.437-0.094-0.59-0.273c-0.277-0.325-0.239-0.813,0.087-1.091l4.318-3.679
		l-4.318-3.677c-0.326-0.276-0.364-0.766-0.087-1.091c0.276-0.325,0.766-0.365,1.091-0.087l5.012,4.266
		c0.173,0.147,0.271,0.363,0.271,0.589c0,0.229-0.098,0.443-0.271,0.59l-5.012,4.268C33.942,38.631,33.763,38.693,33.586,38.693z"/>
	<path fill="#FFFFFF" d="M26.866,41.893c-0.053,0-0.107-0.007-0.161-0.017c-0.418-0.088-0.687-0.5-0.598-0.917l3.123-14.829
		c0.089-0.418,0.498-0.686,0.918-0.598c0.419,0.088,0.687,0.499,0.598,0.917l-3.123,14.827
		C27.546,41.642,27.224,41.893,26.866,41.893z"/>
	<path fill="#FFFFFF" d="M44.763,46.82H13.459c-2.458,0-4.458-2-4.458-4.458V15.792c0-2.458,2-4.458,4.458-4.458h31.304
		c2.458,0,4.459,2,4.459,4.458v26.569C49.222,44.82,47.221,46.82,44.763,46.82z M13.459,12.662c-1.726,0-3.13,1.404-3.13,3.13
		v26.569c0,1.726,1.404,3.13,3.13,3.13h31.304c1.726,0,3.131-1.404,3.131-3.13V15.792c0-1.726-1.405-3.13-3.131-3.13H13.459z"/>
	<path fill="#FFFFFF" d="M48.558,21.967H9.665c-0.367,0-0.664-0.297-0.664-0.664c0-0.366,0.297-0.664,0.664-0.664h38.893
		c0.366,0,0.664,0.298,0.664,0.664C49.222,21.67,48.924,21.967,48.558,21.967z"/>
	<path fill="#FFFFFF" d="M20.346,18.789c-1.158,0-2.101-0.943-2.101-2.102s0.943-2.102,2.101-2.102c1.159,0,2.102,0.943,2.102,2.102
		S21.505,18.789,20.346,18.789z M20.346,15.914c-0.426,0-0.773,0.347-0.773,0.773s0.347,0.773,0.773,0.773
		c0.427,0,0.773-0.347,0.773-0.773S20.773,15.914,20.346,15.914z"/>
	<path fill="#FFFFFF" d="M13.89,18.769c-1.159,0-2.102-0.943-2.102-2.101c0-1.159,0.943-2.102,2.102-2.102
		c1.158,0,2.101,0.942,2.101,2.102C15.991,17.826,15.048,18.769,13.89,18.769z M13.89,15.894c-0.426,0-0.773,0.347-0.773,0.773
		c0,0.426,0.347,0.773,0.773,0.773s0.773-0.347,0.773-0.773C14.663,16.241,14.316,15.894,13.89,15.894z"/>
	<path fill="#FFFFFF" d="M26.802,18.809c-1.158,0-2.101-0.943-2.101-2.102c0-1.158,0.943-2.101,2.101-2.101
		c1.159,0,2.101,0.943,2.101,2.101C28.904,17.866,27.961,18.809,26.802,18.809z M26.802,15.934c-0.426,0-0.773,0.347-0.773,0.773
		s0.347,0.773,0.773,0.773s0.773-0.347,0.773-0.773S27.229,15.934,26.802,15.934z"/>
</g>
</svg>
