<?xml version="1.0" encoding="utf-8"?>
<!-- Generator: Adobe Illustrator 16.0.0, SVG Export Plug-In . SVG Version: 6.00 Build 0)  -->
<!DOCTYPE svg PUBLIC "-//W3C//DTD SVG 1.1//EN" "http://www.w3.org/Graphics/SVG/1.1/DTD/svg11.dtd">
<svg version="1.1" id="Layer_1" xmlns="http://www.w3.org/2000/svg" xmlns:xlink="http://www.w3.org/1999/xlink" x="0px" y="0px"
	 width="58.854px" height="58.852px" viewBox="0 0 58.854 58.852" enable-background="new 0 0 58.854 58.852" xml:space="preserve">
<g>
	<g>
		<linearGradient id="SVGID_1_" gradientUnits="userSpaceOnUse" x1="29.4268" y1="0.9375" x2="29.4268" y2="58.3666">
			<stop  offset="0" style="stop-color:#8AC651"/>
			<stop  offset="1" style="stop-color:#55AF47"/>
		</linearGradient>
		<path fill="url(#SVGID_1_)" d="M58.854,50.012c0,4.881-3.959,8.84-8.842,8.84H8.841C3.958,58.852,0,54.893,0,50.012V8.84
			C0,3.957,3.958,0,8.841,0h41.171c4.883,0,8.842,3.957,8.842,8.84V50.012z"/>
	</g>
	<g>
		<path fill="#FFFFFF" d="M50.234,12.883H9.953c-0.396,0-0.72,0.323-0.72,0.72v31.648c0,0.396,0.323,0.72,0.72,0.72h40.281
			c0.396,0,0.716-0.324,0.716-0.72V13.603C50.95,13.206,50.631,12.883,50.234,12.883L50.234,12.883z M49.514,44.53H10.673V14.323
			h38.841V44.53z M49.514,44.53"/>
		<path fill="#FFFFFF" d="M20.742,28.807c2.209,0,4.004-1.798,4.004-4.004c0-2.212-1.795-4.007-4.004-4.007
			s-4.007,1.795-4.007,4.004S18.533,28.807,20.742,28.807L20.742,28.807z M20.742,22.232c1.416,0,2.567,1.151,2.567,2.567
			c0,1.415-1.151,2.567-2.567,2.567c-1.415,0-2.567-1.152-2.567-2.564C18.175,23.388,19.327,22.232,20.742,22.232L20.742,22.232z
			 M20.742,22.232"/>
		<path fill="#FFFFFF" d="M14.27,41.654c0.169,0,0.337-0.06,0.475-0.179l11.733-10.33l7.411,7.407c0.28,0.28,0.733,0.28,1.015,0
			c0.281-0.281,0.281-0.734,0-1.015l-3.456-3.46l6.603-7.231l8.1,7.425c0.295,0.271,0.748,0.249,1.019-0.042
			c0.267-0.295,0.246-0.748-0.046-1.02l-8.633-7.912c-0.141-0.126-0.326-0.189-0.517-0.186c-0.189,0.007-0.372,0.091-0.498,0.231
			l-7.046,7.716l-3.414-3.41c-0.267-0.271-0.698-0.28-0.982-0.031l-12.24,10.775c-0.299,0.264-0.326,0.719-0.063,1.018
			C13.869,41.573,14.069,41.654,14.27,41.654L14.27,41.654z M14.27,41.654"/>
	</g>
</g>
</svg>
