<?xml version="1.0" encoding="utf-8"?>
<!-- Generator: Adobe Illustrator 16.0.0, SVG Export Plug-In . SVG Version: 6.00 Build 0)  -->
<!DOCTYPE svg PUBLIC "-//W3C//DTD SVG 1.1//EN" "http://www.w3.org/Graphics/SVG/1.1/DTD/svg11.dtd">
<svg version="1.1" id="Layer_1" xmlns="http://www.w3.org/2000/svg" xmlns:xlink="http://www.w3.org/1999/xlink" x="0px" y="0px"
	 width="58.854px" height="58.852px" viewBox="0 0 58.854 58.852" enable-background="new 0 0 58.854 58.852" xml:space="preserve">
<g>
	
		<linearGradient id="SVGID_1_" gradientUnits="userSpaceOnUse" x1="121.0071" y1="-873.426" x2="121.0071" y2="-930.8535" gradientTransform="matrix(1 0 0 -1 -91.5801 -872.4858)">
		<stop  offset="0" style="stop-color:#7BBF40"/>
		<stop  offset="1" style="stop-color:#47A537"/>
	</linearGradient>
	<path fill="url(#SVGID_1_)" d="M58.854,50.012c0,4.882-3.959,8.84-8.842,8.84H8.841C3.958,58.852,0,54.894,0,50.012V8.84
		C0,3.958,3.958,0,8.841,0h41.171c4.883,0,8.842,3.958,8.842,8.84V50.012z"/>
	<path display="none" fill="#FFFFFF" d="M30.542,30.241c0-0.482-0.391-0.873-0.873-0.873c-0.481,0-0.872,0.391-0.872,0.873
		c0,0.481,0.391,0.873,0.872,0.873C30.152,31.115,30.542,30.723,30.542,30.241z"/>
	<path display="none" fill="#FFFFFF" d="M33.174,29.488l10.529-5.002c0.436-0.207,0.62-0.726,0.414-1.162
		c-0.207-0.435-0.728-0.62-1.162-0.413l-10.53,5.001c-0.434,0.208-0.619,0.728-0.413,1.164C32.219,29.51,32.74,29.695,33.174,29.488
		z"/>
	<path display="none" fill="#FFFFFF" d="M7.334,37.662c0.001,0.332,0.191,0.635,0.49,0.78l21.463,10.469
		c0.12,0.06,0.251,0.089,0.382,0.089s0.262-0.029,0.383-0.089l21.463-10.469c0.299-0.146,0.488-0.448,0.49-0.78
		s-0.185-0.637-0.481-0.785l-5.486-2.743l5.479-2.672c0.298-0.146,0.487-0.447,0.489-0.78c0.002-0.332-0.185-0.636-0.481-0.785
		l-5.486-2.742l5.479-2.673c0.299-0.146,0.489-0.45,0.489-0.784s-0.19-0.638-0.49-0.784l-21.463-10.47
		c-0.242-0.118-0.523-0.118-0.765,0L7.824,22.914c-0.3,0.146-0.49,0.45-0.49,0.784s0.19,0.638,0.49,0.784l5.479,2.673l-5.487,2.742
		c-0.296,0.149-0.484,0.453-0.482,0.785c0.001,0.333,0.191,0.635,0.49,0.779l5.479,2.673l-5.487,2.743
		C7.519,37.026,7.332,37.33,7.334,37.662z M29.669,14.199l19.474,9.499l-19.474,9.5l-19.473-9.5L29.669,14.199z M15.278,28.118
		l14.01,6.834c0.12,0.059,0.251,0.088,0.382,0.088s0.262-0.029,0.383-0.088l14.01-6.834l5.101,2.55l-19.493,9.509l-19.493-9.509
		L15.278,28.118z M15.278,35.098l14.01,6.834c0.12,0.06,0.251,0.089,0.382,0.089s0.262-0.029,0.383-0.089l14.01-6.833l5.101,2.55
		l-19.493,9.508l-19.493-9.508L15.278,35.098z"/>
</g>
<g>
	<path fill="#FFFFFF" d="M46.755,28.574l-4.528-2.255l-9.956,4.957c-0.805,0.402-1.711,0.614-2.616,0.614
		c-0.906,0-1.81-0.212-2.616-0.614l-9.957-4.957l-4.528,2.255c-0.351,0.175-0.574,0.535-0.574,0.927s0.223,0.751,0.574,0.927
		L27.963,38.1c0.529,0.264,1.11,0.396,1.692,0.396c0.582,0,1.163-0.133,1.692-0.396l15.408-7.673
		c0.352-0.176,0.574-0.534,0.574-0.927S47.107,28.749,46.755,28.574z"/>
	<path fill="#FFFFFF" d="M46.755,37.254l-4.528-2.255l-9.956,4.957c-0.805,0.402-1.711,0.613-2.616,0.613
		c-0.906,0-1.81-0.211-2.616-0.613l-9.957-4.957l-4.528,2.255c-0.351,0.175-0.574,0.534-0.574,0.927s0.223,0.752,0.574,0.927
		l15.409,7.673c0.529,0.264,1.11,0.396,1.692,0.396c0.582,0,1.163-0.132,1.692-0.396l15.408-7.673
		c0.352-0.175,0.574-0.534,0.574-0.927S47.107,37.429,46.755,37.254z"/>
	<path fill="#FFFFFF" d="M12.553,21.751l15.409,7.672c0.529,0.264,1.11,0.396,1.692,0.396c0.582,0,1.163-0.132,1.692-0.396
		l15.408-7.672c0.352-0.175,0.574-0.535,0.574-0.927c0-0.393-0.223-0.752-0.574-0.927l-15.408-7.672
		c-1.06-0.528-2.326-0.528-3.384,0l-15.409,7.672c-0.351,0.175-0.574,0.534-0.574,0.927C11.98,21.216,12.202,21.575,12.553,21.751z"
		/>
</g>
</svg>
