<?xml version="1.0" encoding="utf-8"?>
<!-- Generator: Adobe Illustrator 16.0.0, SVG Export Plug-In . SVG Version: 6.00 Build 0)  -->
<!DOCTYPE svg PUBLIC "-//W3C//DTD SVG 1.1//EN" "http://www.w3.org/Graphics/SVG/1.1/DTD/svg11.dtd">
<svg version="1.1" id="Layer_1" xmlns="http://www.w3.org/2000/svg" xmlns:xlink="http://www.w3.org/1999/xlink" x="0px" y="0px"
	 width="58.854px" height="58.852px" viewBox="0 0 58.854 58.852" enable-background="new 0 0 58.854 58.852" xml:space="preserve">
<g>
	<g>
		
			<linearGradient id="SVGID_1_" gradientUnits="userSpaceOnUse" x1="-61.5823" y1="145.3137" x2="-61.5823" y2="87.8856" gradientTransform="matrix(1 0 0 -1 91.0098 146.2524)">
			<stop  offset="0" style="stop-color:#8AC651"/>
			<stop  offset="1" style="stop-color:#55AF47"/>
		</linearGradient>
		<path fill="url(#SVGID_1_)" d="M58.854,50.012c0,4.881-3.959,8.84-8.842,8.84H8.841C3.958,58.852,0,54.893,0,50.012V8.84
			C0,3.957,3.958,0,8.841,0h41.171c4.883,0,8.842,3.957,8.842,8.84V50.012z"/>
	</g>
	<g>
		<g>
			<path fill="#FFFFFF" d="M7,19.419v17.114c0,4.477,3.594,8.13,8.048,8.229v6.239c0,0.443,0.267,0.844,0.678,1.013
				c0.135,0.058,0.278,0.084,0.419,0.084c0.285,0,0.567-0.111,0.776-0.321l7.014-7.014H43.34c4.538,0,8.23-3.69,8.23-8.229V19.419
				c0-4.539-3.692-8.23-8.23-8.23H15.23C10.692,11.189,7,14.881,7,19.419z M9.195,36.532V19.419c0-3.329,2.707-6.036,6.035-6.036
				h28.11c3.328,0,6.036,2.707,6.036,6.036v17.113c0,3.328-2.708,6.036-6.036,6.036H23.481c-0.291,0-0.569,0.116-0.775,0.322
				l-5.462,5.46v-4.686c0-0.606-0.492-1.097-1.098-1.097H15.23C11.902,42.569,9.196,39.861,9.195,36.532L9.195,36.532z"/>
			<path fill="#FFFFFF" d="M37.105,28.056c0,1.364,1.105,2.469,2.469,2.469s2.469-1.105,2.469-2.469
				c0-1.363-1.105-2.469-2.469-2.469S37.105,26.693,37.105,28.056z"/>
			<path fill="#FFFFFF" d="M26.816,28.056c0,1.364,1.107,2.469,2.469,2.469c1.365,0,2.469-1.105,2.469-2.469
				c0-1.363-1.104-2.469-2.469-2.469C27.923,25.588,26.816,26.693,26.816,28.056z"/>
			<path fill="#FFFFFF" d="M16.529,28.056c0,1.364,1.106,2.469,2.469,2.469c1.364,0,2.47-1.105,2.47-2.469
				c0-1.363-1.105-2.469-2.47-2.469C17.635,25.588,16.529,26.693,16.529,28.056z"/>
		</g>
	</g>
</g>
</svg>
