<?xml version="1.0" encoding="utf-8"?>
<!-- Generator: Adobe Illustrator 16.0.0, SVG Export Plug-In . SVG Version: 6.00 Build 0)  -->
<!DOCTYPE svg PUBLIC "-//W3C//DTD SVG 1.1//EN" "http://www.w3.org/Graphics/SVG/1.1/DTD/svg11.dtd">
<svg version="1.1" id="Layer_1" xmlns="http://www.w3.org/2000/svg" xmlns:xlink="http://www.w3.org/1999/xlink" x="0px" y="0px"
	 width="132.74px" height="116.851px" viewBox="0 0 132.74 116.851" enable-background="new 0 0 132.74 116.851"
	 xml:space="preserve">
<g>
	<linearGradient id="SVGID_1_" gradientUnits="userSpaceOnUse" x1="66.3701" y1="1.8618" x2="66.3701" y2="115.889">
		<stop  offset="0" style="stop-color:#8AC651"/>
		<stop  offset="1" style="stop-color:#56AF47"/>
	</linearGradient>
	<path fill="url(#SVGID_1_)" d="M132.74,99.298c0,9.693-7.86,17.553-17.557,17.553h-97.63C7.857,116.851,0,108.992,0,99.298V17.553
		C0,7.857,7.857,0,17.554,0h97.63c9.696,0,17.557,7.857,17.557,17.553V99.298z"/>
</g>
<g>
	<rect x="42.342" y="28.428" fill="#FFFFFF" width="4.753" height="15.384"/>
	<path fill="#FFFFFF" d="M101.72,15.307H31.016c-2.424,0-4.39,2.132-4.39,4.763v76.713c0,2.628,1.966,4.762,4.39,4.762h70.704
		c2.428,0,4.394-2.134,4.394-4.762V20.07C106.114,17.439,104.148,15.307,101.72,15.307z M67.231,74.35
		c-5.934,0-10.743-4.812-10.743-10.745c0-5.935,4.809-10.745,10.743-10.745c5.936,0,10.743,4.81,10.743,10.745
		C77.975,69.539,73.167,74.35,67.231,74.35z M95.79,43.95c0,2.425-1.966,4.392-4.392,4.392H41.34c-2.424,0-4.39-1.967-4.39-4.392
		V27.956c0-2.426,1.965-4.391,4.39-4.391h50.059c2.426,0,4.392,1.965,4.392,4.391V43.95z"/>
	<circle fill="#FFFFFF" cx="67.231" cy="63.604" r="4.534"/>
</g>
</svg>
