<?xml version="1.0" encoding="utf-8"?>
<!-- Generator: Adobe Illustrator 16.0.0, SVG Export Plug-In . SVG Version: 6.00 Build 0)  -->
<!DOCTYPE svg PUBLIC "-//W3C//DTD SVG 1.1//EN" "http://www.w3.org/Graphics/SVG/1.1/DTD/svg11.dtd">
<svg version="1.1" id="Layer_1" xmlns="http://www.w3.org/2000/svg" xmlns:xlink="http://www.w3.org/1999/xlink" x="0px" y="0px"
	 width="58.854px" height="58.852px" viewBox="0 0 58.854 58.852" enable-background="new 0 0 58.854 58.852" xml:space="preserve">
<g>
	<g>
		<linearGradient id="SVGID_1_" gradientUnits="userSpaceOnUse" x1="29.4268" y1="0.9375" x2="29.4268" y2="58.3666">
			<stop  offset="0" style="stop-color:#7BBF40"/>
			<stop  offset="1" style="stop-color:#47A537"/>
		</linearGradient>
		<path fill="url(#SVGID_1_)" d="M58.854,50.012c0,4.882-3.959,8.84-8.842,8.84H8.841C3.958,58.852,0,54.894,0,50.012V8.84
			C0,3.958,3.958,0,8.841,0h41.171c4.883,0,8.842,3.958,8.842,8.84V50.012z"/>
	</g>
	<g>
		<path fill="#FFFFFF" d="M36.789,23.028h-20c-0.442,0-0.801,0.355-0.801,0.796c0,0.442,0.359,0.801,0.801,0.801h20
			c0.441,0,0.801-0.359,0.801-0.801C37.589,23.383,37.23,23.028,36.789,23.028L36.789,23.028z M36.789,23.028"/>
		<path fill="#FFFFFF" d="M16.789,18.227h8c0.441,0,0.801-0.36,0.801-0.801s-0.36-0.801-0.801-0.801h-8
			c-0.442,0-0.801,0.36-0.801,0.801S16.347,18.227,16.789,18.227L16.789,18.227z M16.789,18.227"/>
		<path fill="#FFFFFF" d="M37.589,30.227c0-0.441-0.359-0.801-0.801-0.801h-20c-0.442,0-0.801,0.359-0.801,0.801
			s0.359,0.801,0.801,0.801h20C37.23,31.027,37.589,30.668,37.589,30.227L37.589,30.227z M37.589,30.227"/>
		<path fill="#FFFFFF" d="M31.187,36.625c0-0.441-0.355-0.801-0.801-0.801H16.789c-0.442,0-0.801,0.359-0.801,0.801
			s0.359,0.801,0.801,0.801h13.597C30.832,37.426,31.187,37.066,31.187,36.625L31.187,36.625z M31.187,36.625"/>
		<path fill="#FFFFFF" d="M16.789,42.227c-0.442,0-0.801,0.359-0.801,0.801s0.359,0.797,0.801,0.797h11.199
			c0.441,0,0.801-0.355,0.801-0.797s-0.36-0.801-0.801-0.801H16.789z M16.789,42.227"/>
		<path fill="#FFFFFF" d="M9.59,7.028h23.199v11.199h11.199v12h1.602V17.094L33.917,5.426H7.988v48h28v-1.602H9.59V7.028z
			 M34.386,8.156l8.469,8.469h-8.469V8.156z M34.386,8.156"/>
		<path fill="#FFFFFF" d="M54.539,41.316l-1.156-0.223c-0.539-0.102-0.969-0.457-1.168-0.973c-0.203-0.512-0.133-1.062,0.195-1.508
			l0.727-0.988c0.23-0.32,0.199-0.762-0.082-1.039l-1.566-1.566c-0.27-0.27-0.695-0.312-1.016-0.098l-0.973,0.66
			c-0.457,0.312-1.012,0.359-1.516,0.141c-0.504-0.223-0.844-0.66-0.93-1.207l-0.184-1.211c-0.059-0.391-0.395-0.68-0.789-0.68
			h-2.219c-0.383,0-0.711,0.273-0.785,0.648l-0.285,1.492c-0.102,0.531-0.445,0.953-0.945,1.16s-1.039,0.152-1.488-0.152
			l-1.258-0.852c-0.316-0.215-0.742-0.172-1.016,0.098l-1.566,1.566c-0.277,0.277-0.312,0.719-0.078,1.039l0.723,0.988
			c0.328,0.445,0.398,0.996,0.199,1.512c-0.203,0.512-0.629,0.867-1.172,0.969l-1.156,0.223c-0.375,0.074-0.648,0.402-0.648,0.785
			v2.219c0,0.395,0.289,0.73,0.68,0.789l1.211,0.188c0.547,0.082,0.984,0.422,1.207,0.926c0.223,0.508,0.172,1.059-0.141,1.516
			l-0.66,0.977c-0.215,0.316-0.172,0.742,0.098,1.012l1.566,1.566c0.281,0.281,0.723,0.312,1.039,0.082l0.988-0.727
			c0.445-0.324,0.996-0.398,1.508-0.195c0.516,0.199,0.871,0.629,0.973,1.168l0.223,1.156c0.074,0.375,0.402,0.648,0.785,0.648
			h2.219c0.395,0,0.73-0.289,0.789-0.68l0.133-0.852c0.082-0.551,0.441-1.004,0.953-1.215c0.516-0.215,1.09-0.145,1.535,0.184
			l0.695,0.508c0.32,0.234,0.762,0.203,1.039-0.078l1.566-1.566c0.273-0.27,0.312-0.695,0.098-1.012l-0.66-0.977
			c-0.309-0.457-0.359-1.008-0.137-1.516c0.219-0.504,0.66-0.844,1.203-0.926l1.215-0.188c0.387-0.059,0.676-0.395,0.676-0.789
			v-2.219C55.187,41.719,54.917,41.391,54.539,41.316L54.539,41.316z M53.589,43.633l-0.535,0.082
			c-1.082,0.164-1.992,0.863-2.43,1.867s-0.332,2.145,0.281,3.055l0.289,0.426l-0.613,0.613l-0.141-0.105
			c-0.906-0.66-2.062-0.801-3.098-0.371s-1.754,1.348-1.922,2.453l-0.027,0.172h-0.867l-0.098-0.504
			c-0.207-1.078-0.941-1.957-1.961-2.359c-1.02-0.398-2.156-0.25-3.039,0.398l-0.434,0.316l-0.617-0.613l0.289-0.426
			c0.617-0.91,0.719-2.051,0.281-3.055s-1.344-1.703-2.426-1.867l-0.535-0.082v-0.871l0.508-0.098
			c1.074-0.207,1.957-0.938,2.355-1.957c0.402-1.02,0.254-2.156-0.395-3.039l-0.32-0.438l0.617-0.613l0.711,0.48
			c0.887,0.602,2.004,0.719,2.996,0.305c0.988-0.41,1.703-1.281,1.902-2.332l0.164-0.844h0.867l0.082,0.531
			c0.168,1.086,0.867,1.992,1.871,2.43s2.145,0.332,3.051-0.281l0.426-0.289l0.617,0.613l-0.32,0.438
			c-0.648,0.883-0.797,2.02-0.395,3.039c0.398,1.02,1.281,1.75,2.355,1.957l0.508,0.098V43.633z M53.589,43.633"/>
		<path fill="#FFFFFF" d="M44.789,39.027c-2.207,0-4,1.793-4,4c0,2.203,1.793,4,4,4c2.203,0,4-1.797,4-4
			C48.789,40.82,46.992,39.027,44.789,39.027L44.789,39.027z M44.789,45.426c-1.324,0-2.402-1.078-2.402-2.398
			c0-1.324,1.078-2.402,2.402-2.402s2.398,1.078,2.398,2.402C47.187,44.348,46.113,45.426,44.789,45.426L44.789,45.426z
			 M44.789,45.426"/>
	</g>
</g>
</svg>
