<?xml version="1.0" encoding="utf-8"?>
<!-- Generator: Adobe Illustrator 21.0.0, SVG Export Plug-In . SVG Version: 6.00 Build 0)  -->
<svg version="1.1" id="Layer_1" xmlns="http://www.w3.org/2000/svg" xmlns:xlink="http://www.w3.org/1999/xlink" x="0px" y="0px"
	 viewBox="0 0 82.5 71" style="enable-background:new 0 0 82.5 71;" xml:space="preserve">
<style type="text/css">
	.st0{fill:#EAEAEA;}
	.st1{fill:url(#SVGID_1_);}
	.st2{fill:url(#SVGID_2_);}
	.st3{fill:url(#SVGID_3_);}
	.st4{fill:url(#SVGID_4_);}
	.st5{fill:url(#SVGID_5_);}
	.st6{fill:url(#SVGID_6_);}
	.st7{fill:url(#SVGID_7_);}
	.st8{fill:url(#SVGID_8_);}
	.st9{fill:url(#SVGID_9_);}
	.st10{fill:url(#SVGID_10_);}
	.st11{fill:url(#SVGID_11_);}
	.st12{fill:url(#SVGID_12_);}
	.st13{fill:url(#SVGID_13_);}
	.st14{fill:url(#SVGID_14_);}
	.st15{fill:url(#SVGID_15_);}
	.st16{fill:url(#SVGID_16_);}
	.st17{fill:url(#SVGID_17_);}
	.st18{fill:url(#SVGID_18_);}
	.st19{fill:url(#SVGID_19_);}
	.st20{fill:url(#SVGID_20_);}
	.st21{fill:url(#SVGID_21_);}
	.st22{fill:url(#SVGID_22_);}
	.st23{fill:url(#SVGID_23_);}
	.st24{fill:url(#SVGID_24_);}
	.st25{fill:url(#SVGID_25_);}
	.st26{fill:url(#SVGID_26_);}
	.st27{fill:url(#SVGID_27_);}
	.st28{fill:url(#SVGID_28_);}
	.st29{fill:url(#SVGID_29_);}
	.st30{fill:url(#SVGID_30_);}
	.st31{fill:url(#SVGID_31_);}
	.st32{fill:url(#SVGID_32_);}
	.st33{fill:url(#SVGID_33_);}
	.st34{fill:url(#SVGID_34_);}
	.st35{fill:url(#SVGID_35_);}
	.st36{fill:url(#SVGID_36_);}
	.st37{fill:url(#SVGID_37_);}
	.st38{fill:url(#SVGID_38_);}
	.st39{fill:url(#SVGID_39_);}
	.st40{fill:url(#SVGID_40_);}
	.st41{fill:url(#SVGID_41_);}
	.st42{fill:url(#SVGID_42_);}
	.st43{fill:url(#SVGID_43_);}
	.st44{fill:url(#SVGID_44_);}
	.st45{fill:url(#SVGID_45_);}
	.st46{fill:url(#SVGID_46_);}
	.st47{fill:url(#SVGID_47_);}
	.st48{fill:url(#SVGID_48_);}
	.st49{fill:url(#SVGID_49_);}
	.st50{fill:url(#SVGID_50_);}
	.st51{fill:url(#SVGID_51_);}
	.st52{fill:url(#SVGID_52_);}
	.st53{fill:url(#SVGID_53_);}
	.st54{fill:url(#SVGID_54_);}
	.st55{fill:url(#SVGID_55_);}
	.st56{fill:url(#SVGID_56_);}
	.st57{fill:url(#SVGID_57_);}
	.st58{fill:url(#SVGID_58_);}
	.st59{fill:url(#SVGID_59_);}
	.st60{fill:url(#SVGID_60_);}
	.st61{fill:url(#SVGID_61_);}
	.st62{fill:url(#SVGID_62_);}
	.st63{fill:url(#SVGID_63_);}
	.st64{fill:url(#SVGID_64_);}
	.st65{fill:url(#SVGID_65_);}
	.st66{fill:url(#SVGID_66_);}
	.st67{fill:url(#SVGID_67_);}
	.st68{fill:url(#SVGID_68_);}
	.st69{fill:url(#SVGID_69_);}
	.st70{fill:url(#SVGID_70_);}
	.st71{fill:url(#SVGID_71_);}
	.st72{fill:url(#SVGID_72_);}
	.st73{fill:url(#SVGID_73_);}
	.st74{fill:url(#SVGID_74_);}
	.st75{fill:url(#SVGID_75_);}
	.st76{fill:url(#SVGID_76_);}
	.st77{fill:url(#SVGID_77_);}
	.st78{fill:url(#SVGID_78_);}
	.st79{fill:url(#SVGID_79_);}
	.st80{fill:url(#SVGID_80_);}
	.st81{fill:url(#SVGID_81_);}
	.st82{fill:url(#SVGID_82_);}
	.st83{fill:url(#SVGID_83_);}
	.st84{fill:url(#SVGID_84_);}
	.st85{fill:url(#SVGID_85_);}
	.st86{fill:url(#SVGID_86_);}
	.st87{fill:url(#SVGID_87_);}
	.st88{fill:url(#SVGID_88_);}
	.st89{fill:url(#SVGID_89_);}
	.st90{fill:url(#SVGID_90_);}
	.st91{fill:url(#SVGID_91_);}
	.st92{fill:url(#SVGID_92_);}
	.st93{fill:url(#SVGID_93_);}
	.st94{fill:url(#SVGID_94_);}
	.st95{fill:url(#SVGID_95_);}
	.st96{fill:url(#SVGID_96_);}
	.st97{fill:url(#SVGID_97_);}
	.st98{fill:url(#SVGID_98_);}
	.st99{fill:url(#SVGID_99_);}
	.st100{fill:url(#SVGID_100_);}
	.st101{fill:url(#SVGID_101_);}
	.st102{fill:url(#SVGID_102_);}
	.st103{fill:url(#SVGID_103_);}
	.st104{fill:url(#SVGID_104_);}
	.st105{fill:url(#SVGID_105_);}
	.st106{fill:url(#SVGID_106_);}
	.st107{fill:url(#SVGID_107_);}
	.st108{fill:url(#SVGID_108_);}
	.st109{fill:url(#SVGID_109_);}
	.st110{fill:url(#SVGID_110_);}
	.st111{fill:url(#SVGID_111_);}
	.st112{fill:url(#SVGID_112_);}
	.st113{fill:url(#SVGID_113_);}
	.st114{fill:url(#SVGID_114_);}
	.st115{fill:url(#SVGID_115_);}
	.st116{fill:url(#SVGID_116_);}
	.st117{fill:url(#SVGID_117_);}
	.st118{fill:url(#SVGID_118_);}
	.st119{fill:url(#SVGID_119_);}
	.st120{fill:url(#SVGID_120_);}
	.st121{fill:url(#SVGID_121_);}
	.st122{fill:url(#SVGID_122_);}
	.st123{fill:url(#SVGID_123_);}
	.st124{fill:url(#SVGID_124_);}
	.st125{fill:url(#SVGID_125_);}
	.st126{fill:url(#SVGID_126_);}
	.st127{fill:url(#SVGID_127_);}
	.st128{fill:url(#SVGID_128_);}
	.st129{fill:url(#SVGID_129_);}
	.st130{fill:url(#SVGID_130_);}
	.st131{fill:url(#SVGID_131_);}
	.st132{fill:url(#SVGID_132_);}
	.st133{fill:url(#SVGID_133_);}
	.st134{fill:url(#SVGID_134_);}
	.st135{fill:url(#SVGID_135_);}
	.st136{fill:url(#SVGID_136_);}
	.st137{fill:url(#SVGID_137_);}
	.st138{fill:url(#SVGID_138_);}
	.st139{fill:url(#SVGID_139_);}
	.st140{fill:url(#SVGID_140_);}
	.st141{fill:url(#SVGID_141_);}
	.st142{fill:url(#SVGID_142_);}
	.st143{fill:url(#SVGID_143_);}
	.st144{fill:url(#SVGID_144_);}
</style>
<rect x="51.8" y="49.1" class="st0" width="9.4" height="0.9"/>
<rect x="51.8" y="46.9" class="st0" width="9.4" height="0.9"/>
<rect x="51.8" y="35.6" class="st0" width="9.4" height="0.9"/>
<rect x="51.8" y="42.4" class="st0" width="9.4" height="0.9"/>
<rect x="51.8" y="44.6" class="st0" width="9.4" height="0.9"/>
<rect x="51.8" y="40.1" class="st0" width="9.4" height="0.9"/>
<rect x="61.9" y="8.7" class="st0" width="9.4" height="0.9"/>
<rect x="41.8" y="6.5" class="st0" width="9.4" height="0.9"/>
<rect x="41.8" y="8.7" class="st0" width="9.4" height="0.9"/>
<rect x="41.8" y="11" class="st0" width="9.4" height="0.9"/>
<rect x="71.9" y="55.8" class="st0" width="9.4" height="0.9"/>
<rect x="51.8" y="37.9" class="st0" width="9.4" height="0.9"/>
<rect x="61.9" y="15.5" class="st0" width="9.4" height="0.9"/>
<rect x="61.9" y="13.2" class="st0" width="9.4" height="0.9"/>
<rect x="61.9" y="11" class="st0" width="9.4" height="0.9"/>
<rect x="61.9" y="17.7" class="st0" width="9.4" height="0.9"/>
<rect x="71.9" y="51.3" class="st0" width="9.4" height="0.9"/>
<rect x="71.9" y="53.6" class="st0" width="9.4" height="0.9"/>
<rect x="71.9" y="49.1" class="st0" width="9.4" height="0.9"/>
<rect x="71.9" y="44.6" class="st0" width="9.4" height="0.9"/>
<rect x="71.9" y="46.9" class="st0" width="9.4" height="0.9"/>
<rect x="11.7" y="17.7" class="st0" width="9.4" height="0.9"/>
<rect x="11.7" y="15.5" class="st0" width="9.4" height="0.9"/>
<rect x="11.7" y="13.2" class="st0" width="9.4" height="0.9"/>
<rect x="41.8" y="4.2" class="st0" width="9.4" height="0.9"/>
<rect x="1.6" y="31.2" class="st0" width="9.4" height="0.9"/>
<rect x="1.6" y="33.4" class="st0" width="9.4" height="0.9"/>
<rect x="1.6" y="35.6" class="st0" width="9.4" height="0.9"/>
<rect x="1.6" y="37.9" class="st0" width="9.4" height="0.9"/>
<rect x="11.7" y="11" class="st0" width="9.4" height="0.9"/>
<rect x="1.6" y="40.1" class="st0" width="9.4" height="0.9"/>
<rect x="1.6" y="44.6" class="st0" width="9.4" height="0.9"/>
<rect x="1.6" y="42.4" class="st0" width="9.4" height="0.9"/>
<rect x="21.7" y="26.7" class="st0" width="9.4" height="0.9"/>
<rect x="21.7" y="22.2" class="st0" width="9.4" height="0.9"/>
<rect x="21.7" y="24.4" class="st0" width="9.4" height="0.9"/>
<rect x="21.7" y="33.4" class="st0" width="9.4" height="0.9"/>
<rect x="21.7" y="28.9" class="st0" width="9.4" height="0.9"/>
<rect x="21.7" y="31.2" class="st0" width="9.4" height="0.9"/>
<g>
	<linearGradient id="SVGID_1_" gradientUnits="userSpaceOnUse" x1="16.4039" y1="39.1667" x2="16.4039" y2="67.4278">
		<stop  offset="0" style="stop-color:#BBF1DA"/>
		<stop  offset="1" style="stop-color:#11AD6A"/>
	</linearGradient>
	<rect x="11.7" y="39.9" class="st1" width="9.4" height="1.3"/>
	<linearGradient id="SVGID_2_" gradientUnits="userSpaceOnUse" x1="16.4039" y1="39.1667" x2="16.4039" y2="67.4278">
		<stop  offset="0" style="stop-color:#BBF1DA"/>
		<stop  offset="1" style="stop-color:#11AD6A"/>
	</linearGradient>
	<rect x="11.7" y="42.2" class="st2" width="9.4" height="1.3"/>
	<linearGradient id="SVGID_3_" gradientUnits="userSpaceOnUse" x1="16.4039" y1="39.1667" x2="16.4039" y2="67.4278">
		<stop  offset="0" style="stop-color:#BBF1DA"/>
		<stop  offset="1" style="stop-color:#11AD6A"/>
	</linearGradient>
	<rect x="11.7" y="46.7" class="st3" width="9.4" height="1.3"/>
	<linearGradient id="SVGID_4_" gradientUnits="userSpaceOnUse" x1="16.4039" y1="39.1667" x2="16.4039" y2="67.4278">
		<stop  offset="0" style="stop-color:#BBF1DA"/>
		<stop  offset="1" style="stop-color:#11AD6A"/>
	</linearGradient>
	<rect x="11.7" y="44.4" class="st4" width="9.4" height="1.3"/>
	<linearGradient id="SVGID_5_" gradientUnits="userSpaceOnUse" x1="16.4039" y1="39.1667" x2="16.4039" y2="67.4278">
		<stop  offset="0" style="stop-color:#BBF1DA"/>
		<stop  offset="1" style="stop-color:#11AD6A"/>
	</linearGradient>
	<rect x="11.7" y="35.4" class="st5" width="9.4" height="1.3"/>
	<linearGradient id="SVGID_6_" gradientUnits="userSpaceOnUse" x1="16.4039" y1="39.1667" x2="16.4039" y2="67.4278">
		<stop  offset="0" style="stop-color:#BBF1DA"/>
		<stop  offset="1" style="stop-color:#11AD6A"/>
	</linearGradient>
	<rect x="11.7" y="37.7" class="st6" width="9.4" height="1.3"/>
	<linearGradient id="SVGID_7_" gradientUnits="userSpaceOnUse" x1="16.4039" y1="39.1667" x2="16.4039" y2="67.4278">
		<stop  offset="0" style="stop-color:#BBF1DA"/>
		<stop  offset="1" style="stop-color:#11AD6A"/>
	</linearGradient>
	<rect x="11.7" y="57.9" class="st7" width="9.4" height="1.3"/>
	<linearGradient id="SVGID_8_" gradientUnits="userSpaceOnUse" x1="16.4039" y1="39.1667" x2="16.4039" y2="67.4278">
		<stop  offset="0" style="stop-color:#BBF1DA"/>
		<stop  offset="1" style="stop-color:#11AD6A"/>
	</linearGradient>
	<rect x="11.7" y="55.6" class="st8" width="9.4" height="1.3"/>
	<linearGradient id="SVGID_9_" gradientUnits="userSpaceOnUse" x1="16.4039" y1="39.1667" x2="16.4039" y2="67.4278">
		<stop  offset="0" style="stop-color:#BBF1DA"/>
		<stop  offset="1" style="stop-color:#11AD6A"/>
	</linearGradient>
	<rect x="11.7" y="51.1" class="st9" width="9.4" height="1.3"/>
	<linearGradient id="SVGID_10_" gradientUnits="userSpaceOnUse" x1="16.4039" y1="39.1667" x2="16.4039" y2="67.4278">
		<stop  offset="0" style="stop-color:#BBF1DA"/>
		<stop  offset="1" style="stop-color:#11AD6A"/>
	</linearGradient>
	<rect x="11.7" y="53.4" class="st10" width="9.4" height="1.3"/>
	<linearGradient id="SVGID_11_" gradientUnits="userSpaceOnUse" x1="16.4039" y1="39.1667" x2="16.4039" y2="67.4278">
		<stop  offset="0" style="stop-color:#BBF1DA"/>
		<stop  offset="1" style="stop-color:#11AD6A"/>
	</linearGradient>
	<rect x="11.7" y="48.9" class="st11" width="9.4" height="1.3"/>
	<linearGradient id="SVGID_12_" gradientUnits="userSpaceOnUse" x1="16.4039" y1="39.1667" x2="16.4039" y2="67.4278">
		<stop  offset="0" style="stop-color:#BBF1DA"/>
		<stop  offset="1" style="stop-color:#11AD6A"/>
	</linearGradient>
	<rect x="11.7" y="33.2" class="st12" width="9.4" height="1.3"/>
	<linearGradient id="SVGID_13_" gradientUnits="userSpaceOnUse" x1="16.4039" y1="39.1667" x2="16.4039" y2="67.4278">
		<stop  offset="0" style="stop-color:#BBF1DA"/>
		<stop  offset="1" style="stop-color:#11AD6A"/>
	</linearGradient>
	<rect x="11.7" y="19.7" class="st13" width="9.4" height="1.3"/>
	<linearGradient id="SVGID_14_" gradientUnits="userSpaceOnUse" x1="16.4039" y1="39.1667" x2="16.4039" y2="67.4278">
		<stop  offset="0" style="stop-color:#BBF1DA"/>
		<stop  offset="1" style="stop-color:#11AD6A"/>
	</linearGradient>
	<rect x="11.7" y="22" class="st14" width="9.4" height="1.3"/>
	<linearGradient id="SVGID_15_" gradientUnits="userSpaceOnUse" x1="16.4039" y1="39.1667" x2="16.4039" y2="67.4278">
		<stop  offset="0" style="stop-color:#BBF1DA"/>
		<stop  offset="1" style="stop-color:#11AD6A"/>
	</linearGradient>
	<rect x="11.7" y="60.1" class="st15" width="9.4" height="1.3"/>
	<linearGradient id="SVGID_16_" gradientUnits="userSpaceOnUse" x1="16.4039" y1="39.1667" x2="16.4039" y2="67.4278">
		<stop  offset="0" style="stop-color:#BBF1DA"/>
		<stop  offset="1" style="stop-color:#11AD6A"/>
	</linearGradient>
	<rect x="11.7" y="31" class="st16" width="9.4" height="1.3"/>
	<linearGradient id="SVGID_17_" gradientUnits="userSpaceOnUse" x1="16.4039" y1="39.1667" x2="16.4039" y2="67.4278">
		<stop  offset="0" style="stop-color:#BBF1DA"/>
		<stop  offset="1" style="stop-color:#11AD6A"/>
	</linearGradient>
	<rect x="11.7" y="28.7" class="st17" width="9.4" height="1.3"/>
	<linearGradient id="SVGID_18_" gradientUnits="userSpaceOnUse" x1="16.4039" y1="39.1667" x2="16.4039" y2="67.4278">
		<stop  offset="0" style="stop-color:#BBF1DA"/>
		<stop  offset="1" style="stop-color:#11AD6A"/>
	</linearGradient>
	<rect x="11.7" y="26.5" class="st18" width="9.4" height="1.3"/>
	<linearGradient id="SVGID_19_" gradientUnits="userSpaceOnUse" x1="16.4039" y1="39.1667" x2="16.4039" y2="67.4278">
		<stop  offset="0" style="stop-color:#BBF1DA"/>
		<stop  offset="1" style="stop-color:#11AD6A"/>
	</linearGradient>
	<rect x="11.7" y="24.2" class="st19" width="9.4" height="1.3"/>
	<linearGradient id="SVGID_20_" gradientUnits="userSpaceOnUse" x1="16.4039" y1="39.1667" x2="16.4039" y2="67.4278">
		<stop  offset="0" style="stop-color:#BBF1DA"/>
		<stop  offset="1" style="stop-color:#11AD6A"/>
	</linearGradient>
	<rect x="11.7" y="62.4" class="st20" width="9.4" height="1.3"/>
	<linearGradient id="SVGID_21_" gradientUnits="userSpaceOnUse" x1="16.4039" y1="39.1667" x2="16.4039" y2="67.4278">
		<stop  offset="0" style="stop-color:#BBF1DA"/>
		<stop  offset="1" style="stop-color:#11AD6A"/>
	</linearGradient>
	<rect x="11.7" y="66.8" class="st21" width="9.4" height="1.3"/>
	<linearGradient id="SVGID_22_" gradientUnits="userSpaceOnUse" x1="16.4039" y1="39.1667" x2="16.4039" y2="67.4278">
		<stop  offset="0" style="stop-color:#BBF1DA"/>
		<stop  offset="1" style="stop-color:#11AD6A"/>
	</linearGradient>
	<rect x="11.7" y="64.6" class="st22" width="9.4" height="1.3"/>
	<linearGradient id="SVGID_23_" gradientUnits="userSpaceOnUse" x1="16.4039" y1="39.1667" x2="16.4039" y2="67.4278">
		<stop  offset="0" style="stop-color:#BBF1DA"/>
		<stop  offset="1" style="stop-color:#11AD6A"/>
	</linearGradient>
	<rect x="11.7" y="69.1" class="st23" width="9.4" height="1.3"/>
</g>
<g>
	<linearGradient id="SVGID_24_" gradientUnits="userSpaceOnUse" x1="6.3692" y1="27" x2="6.3692" y2="73.2343">
		<stop  offset="0" style="stop-color:#BBF1DA"/>
		<stop  offset="1" style="stop-color:#11AD6A"/>
	</linearGradient>
	<rect x="1.6" y="69.1" class="st24" width="9.4" height="1.3"/>
	<linearGradient id="SVGID_25_" gradientUnits="userSpaceOnUse" x1="6.3692" y1="27" x2="6.3692" y2="73.2343">
		<stop  offset="0" style="stop-color:#BBF1DA"/>
		<stop  offset="1" style="stop-color:#11AD6A"/>
	</linearGradient>
	<rect x="1.6" y="66.8" class="st25" width="9.4" height="1.3"/>
	<linearGradient id="SVGID_26_" gradientUnits="userSpaceOnUse" x1="6.3692" y1="27" x2="6.3692" y2="73.2343">
		<stop  offset="0" style="stop-color:#BBF1DA"/>
		<stop  offset="1" style="stop-color:#11AD6A"/>
	</linearGradient>
	<rect x="1.6" y="64.6" class="st26" width="9.4" height="1.3"/>
	<linearGradient id="SVGID_27_" gradientUnits="userSpaceOnUse" x1="6.3692" y1="27" x2="6.3692" y2="73.2343">
		<stop  offset="0" style="stop-color:#BBF1DA"/>
		<stop  offset="1" style="stop-color:#11AD6A"/>
	</linearGradient>
	<rect x="1.6" y="48.9" class="st27" width="9.4" height="1.3"/>
	<linearGradient id="SVGID_28_" gradientUnits="userSpaceOnUse" x1="6.3692" y1="27" x2="6.3692" y2="73.2343">
		<stop  offset="0" style="stop-color:#BBF1DA"/>
		<stop  offset="1" style="stop-color:#11AD6A"/>
	</linearGradient>
	<rect x="1.6" y="46.7" class="st28" width="9.4" height="1.3"/>
	<linearGradient id="SVGID_29_" gradientUnits="userSpaceOnUse" x1="6.3692" y1="27" x2="6.3692" y2="73.2343">
		<stop  offset="0" style="stop-color:#BBF1DA"/>
		<stop  offset="1" style="stop-color:#11AD6A"/>
	</linearGradient>
	<rect x="1.6" y="51.1" class="st29" width="9.4" height="1.3"/>
	<linearGradient id="SVGID_30_" gradientUnits="userSpaceOnUse" x1="6.3692" y1="27" x2="6.3692" y2="73.2343">
		<stop  offset="0" style="stop-color:#BBF1DA"/>
		<stop  offset="1" style="stop-color:#11AD6A"/>
	</linearGradient>
	<rect x="1.6" y="62.4" class="st30" width="9.4" height="1.3"/>
	<linearGradient id="SVGID_31_" gradientUnits="userSpaceOnUse" x1="6.3692" y1="27" x2="6.3692" y2="73.2343">
		<stop  offset="0" style="stop-color:#BBF1DA"/>
		<stop  offset="1" style="stop-color:#11AD6A"/>
	</linearGradient>
	<rect x="1.6" y="57.9" class="st31" width="9.4" height="1.3"/>
	<linearGradient id="SVGID_32_" gradientUnits="userSpaceOnUse" x1="6.3692" y1="27" x2="6.3692" y2="73.2343">
		<stop  offset="0" style="stop-color:#BBF1DA"/>
		<stop  offset="1" style="stop-color:#11AD6A"/>
	</linearGradient>
	<rect x="1.6" y="60.1" class="st32" width="9.4" height="1.3"/>
	<linearGradient id="SVGID_33_" gradientUnits="userSpaceOnUse" x1="6.3692" y1="27" x2="6.3692" y2="73.2343">
		<stop  offset="0" style="stop-color:#BBF1DA"/>
		<stop  offset="1" style="stop-color:#11AD6A"/>
	</linearGradient>
	<rect x="1.6" y="53.4" class="st33" width="9.4" height="1.3"/>
	<linearGradient id="SVGID_34_" gradientUnits="userSpaceOnUse" x1="6.3692" y1="27" x2="6.3692" y2="73.2343">
		<stop  offset="0" style="stop-color:#BBF1DA"/>
		<stop  offset="1" style="stop-color:#11AD6A"/>
	</linearGradient>
	<rect x="1.6" y="55.6" class="st34" width="9.4" height="1.3"/>
</g>
<g>
	<g>
		<linearGradient id="SVGID_35_" gradientUnits="userSpaceOnUse" x1="46.5082" y1="27" x2="46.5082" y2="73.2343">
			<stop  offset="0" style="stop-color:#BBF1DA"/>
			<stop  offset="1" style="stop-color:#11AD6A"/>
		</linearGradient>
		<rect x="41.8" y="44.4" class="st35" width="9.4" height="1.3"/>
		<linearGradient id="SVGID_36_" gradientUnits="userSpaceOnUse" x1="46.5082" y1="27" x2="46.5082" y2="73.2343">
			<stop  offset="0" style="stop-color:#BBF1DA"/>
			<stop  offset="1" style="stop-color:#11AD6A"/>
		</linearGradient>
		<rect x="41.8" y="19.7" class="st36" width="9.4" height="1.3"/>
		<linearGradient id="SVGID_37_" gradientUnits="userSpaceOnUse" x1="46.5082" y1="27" x2="46.5082" y2="73.2343">
			<stop  offset="0" style="stop-color:#BBF1DA"/>
			<stop  offset="1" style="stop-color:#11AD6A"/>
		</linearGradient>
		<rect x="41.8" y="17.5" class="st37" width="9.4" height="1.3"/>
		<linearGradient id="SVGID_38_" gradientUnits="userSpaceOnUse" x1="46.5082" y1="27" x2="46.5082" y2="73.2343">
			<stop  offset="0" style="stop-color:#BBF1DA"/>
			<stop  offset="1" style="stop-color:#11AD6A"/>
		</linearGradient>
		<rect x="41.8" y="13" class="st38" width="9.4" height="1.3"/>
		<linearGradient id="SVGID_39_" gradientUnits="userSpaceOnUse" x1="46.5082" y1="27" x2="46.5082" y2="73.2343">
			<stop  offset="0" style="stop-color:#BBF1DA"/>
			<stop  offset="1" style="stop-color:#11AD6A"/>
		</linearGradient>
		<rect x="41.8" y="15.3" class="st39" width="9.4" height="1.3"/>
		<linearGradient id="SVGID_40_" gradientUnits="userSpaceOnUse" x1="46.5082" y1="27" x2="46.5082" y2="73.2343">
			<stop  offset="0" style="stop-color:#BBF1DA"/>
			<stop  offset="1" style="stop-color:#11AD6A"/>
		</linearGradient>
		<rect x="41.8" y="22" class="st40" width="9.4" height="1.3"/>
		<linearGradient id="SVGID_41_" gradientUnits="userSpaceOnUse" x1="46.5082" y1="27" x2="46.5082" y2="73.2343">
			<stop  offset="0" style="stop-color:#BBF1DA"/>
			<stop  offset="1" style="stop-color:#11AD6A"/>
		</linearGradient>
		<rect x="41.8" y="46.7" class="st41" width="9.4" height="1.3"/>
		<linearGradient id="SVGID_42_" gradientUnits="userSpaceOnUse" x1="46.5082" y1="27" x2="46.5082" y2="73.2343">
			<stop  offset="0" style="stop-color:#BBF1DA"/>
			<stop  offset="1" style="stop-color:#11AD6A"/>
		</linearGradient>
		<rect x="41.8" y="31" class="st42" width="9.4" height="1.3"/>
		<linearGradient id="SVGID_43_" gradientUnits="userSpaceOnUse" x1="46.5082" y1="27" x2="46.5082" y2="73.2343">
			<stop  offset="0" style="stop-color:#BBF1DA"/>
			<stop  offset="1" style="stop-color:#11AD6A"/>
		</linearGradient>
		<rect x="41.8" y="26.5" class="st43" width="9.4" height="1.3"/>
		<linearGradient id="SVGID_44_" gradientUnits="userSpaceOnUse" x1="46.5082" y1="27" x2="46.5082" y2="73.2343">
			<stop  offset="0" style="stop-color:#BBF1DA"/>
			<stop  offset="1" style="stop-color:#11AD6A"/>
		</linearGradient>
		<rect x="41.8" y="24.2" class="st44" width="9.4" height="1.3"/>
		<linearGradient id="SVGID_45_" gradientUnits="userSpaceOnUse" x1="46.5082" y1="27" x2="46.5082" y2="73.2343">
			<stop  offset="0" style="stop-color:#BBF1DA"/>
			<stop  offset="1" style="stop-color:#11AD6A"/>
		</linearGradient>
		<rect x="41.8" y="33.2" class="st45" width="9.4" height="1.3"/>
		<linearGradient id="SVGID_46_" gradientUnits="userSpaceOnUse" x1="46.5082" y1="27" x2="46.5082" y2="73.2343">
			<stop  offset="0" style="stop-color:#BBF1DA"/>
			<stop  offset="1" style="stop-color:#11AD6A"/>
		</linearGradient>
		<rect x="41.8" y="28.7" class="st46" width="9.4" height="1.3"/>
		<linearGradient id="SVGID_47_" gradientUnits="userSpaceOnUse" x1="46.5082" y1="27" x2="46.5082" y2="73.2343">
			<stop  offset="0" style="stop-color:#BBF1DA"/>
			<stop  offset="1" style="stop-color:#11AD6A"/>
		</linearGradient>
		<rect x="41.8" y="35.4" class="st47" width="9.4" height="1.3"/>
		<linearGradient id="SVGID_48_" gradientUnits="userSpaceOnUse" x1="46.5082" y1="27" x2="46.5082" y2="73.2343">
			<stop  offset="0" style="stop-color:#BBF1DA"/>
			<stop  offset="1" style="stop-color:#11AD6A"/>
		</linearGradient>
		<rect x="41.8" y="39.9" class="st48" width="9.4" height="1.3"/>
		<linearGradient id="SVGID_49_" gradientUnits="userSpaceOnUse" x1="46.5082" y1="27" x2="46.5082" y2="73.2343">
			<stop  offset="0" style="stop-color:#BBF1DA"/>
			<stop  offset="1" style="stop-color:#11AD6A"/>
		</linearGradient>
		<rect x="41.8" y="42.2" class="st49" width="9.4" height="1.3"/>
		<linearGradient id="SVGID_50_" gradientUnits="userSpaceOnUse" x1="46.5082" y1="27" x2="46.5082" y2="73.2343">
			<stop  offset="0" style="stop-color:#BBF1DA"/>
			<stop  offset="1" style="stop-color:#11AD6A"/>
		</linearGradient>
		<rect x="41.8" y="37.7" class="st50" width="9.4" height="1.3"/>
	</g>
	<linearGradient id="SVGID_51_" gradientUnits="userSpaceOnUse" x1="46.5082" y1="27" x2="46.5082" y2="73.2343">
		<stop  offset="0" style="stop-color:#BBF1DA"/>
		<stop  offset="1" style="stop-color:#11AD6A"/>
	</linearGradient>
	<rect x="41.8" y="53.4" class="st51" width="9.4" height="1.3"/>
	<linearGradient id="SVGID_52_" gradientUnits="userSpaceOnUse" x1="46.5082" y1="27" x2="46.5082" y2="73.2343">
		<stop  offset="0" style="stop-color:#BBF1DA"/>
		<stop  offset="1" style="stop-color:#11AD6A"/>
	</linearGradient>
	<rect x="41.8" y="55.6" class="st52" width="9.4" height="1.3"/>
	<linearGradient id="SVGID_53_" gradientUnits="userSpaceOnUse" x1="46.5082" y1="27" x2="46.5082" y2="73.2343">
		<stop  offset="0" style="stop-color:#BBF1DA"/>
		<stop  offset="1" style="stop-color:#11AD6A"/>
	</linearGradient>
	<rect x="41.8" y="57.9" class="st53" width="9.4" height="1.3"/>
	<linearGradient id="SVGID_54_" gradientUnits="userSpaceOnUse" x1="46.5082" y1="27" x2="46.5082" y2="73.2343">
		<stop  offset="0" style="stop-color:#BBF1DA"/>
		<stop  offset="1" style="stop-color:#11AD6A"/>
	</linearGradient>
	<rect x="41.8" y="51.1" class="st54" width="9.4" height="1.3"/>
	<linearGradient id="SVGID_55_" gradientUnits="userSpaceOnUse" x1="46.5082" y1="27" x2="46.5082" y2="73.2343">
		<stop  offset="0" style="stop-color:#BBF1DA"/>
		<stop  offset="1" style="stop-color:#11AD6A"/>
	</linearGradient>
	<rect x="41.8" y="60.1" class="st55" width="9.4" height="1.3"/>
	<linearGradient id="SVGID_56_" gradientUnits="userSpaceOnUse" x1="46.5082" y1="27" x2="46.5082" y2="73.2343">
		<stop  offset="0" style="stop-color:#BBF1DA"/>
		<stop  offset="1" style="stop-color:#11AD6A"/>
	</linearGradient>
	<rect x="41.8" y="48.9" class="st56" width="9.4" height="1.3"/>
	<linearGradient id="SVGID_57_" gradientUnits="userSpaceOnUse" x1="46.5082" y1="27" x2="46.5082" y2="73.2343">
		<stop  offset="0" style="stop-color:#BBF1DA"/>
		<stop  offset="1" style="stop-color:#11AD6A"/>
	</linearGradient>
	<rect x="41.8" y="66.8" class="st57" width="9.4" height="1.3"/>
	<linearGradient id="SVGID_58_" gradientUnits="userSpaceOnUse" x1="46.5082" y1="27" x2="46.5082" y2="73.2343">
		<stop  offset="0" style="stop-color:#BBF1DA"/>
		<stop  offset="1" style="stop-color:#11AD6A"/>
	</linearGradient>
	<rect x="41.8" y="69.1" class="st58" width="9.4" height="1.3"/>
	<linearGradient id="SVGID_59_" gradientUnits="userSpaceOnUse" x1="46.5082" y1="27" x2="46.5082" y2="73.2343">
		<stop  offset="0" style="stop-color:#BBF1DA"/>
		<stop  offset="1" style="stop-color:#11AD6A"/>
	</linearGradient>
	<rect x="41.8" y="62.4" class="st59" width="9.4" height="1.3"/>
	<linearGradient id="SVGID_60_" gradientUnits="userSpaceOnUse" x1="46.5082" y1="27" x2="46.5082" y2="73.2343">
		<stop  offset="0" style="stop-color:#BBF1DA"/>
		<stop  offset="1" style="stop-color:#11AD6A"/>
	</linearGradient>
	<rect x="41.8" y="64.6" class="st60" width="9.4" height="1.3"/>
</g>
<g>
	<linearGradient id="SVGID_61_" gradientUnits="userSpaceOnUse" x1="26.4387" y1="39.1667" x2="26.4387" y2="67.4278">
		<stop  offset="0" style="stop-color:#BBF1DA"/>
		<stop  offset="1" style="stop-color:#11AD6A"/>
	</linearGradient>
	<rect x="21.7" y="66.8" class="st61" width="9.4" height="1.3"/>
	<linearGradient id="SVGID_62_" gradientUnits="userSpaceOnUse" x1="26.4387" y1="39.1667" x2="26.4387" y2="67.4278">
		<stop  offset="0" style="stop-color:#BBF1DA"/>
		<stop  offset="1" style="stop-color:#11AD6A"/>
	</linearGradient>
	<rect x="21.7" y="69.1" class="st62" width="9.4" height="1.3"/>
	<linearGradient id="SVGID_63_" gradientUnits="userSpaceOnUse" x1="26.4387" y1="39.1667" x2="26.4387" y2="67.4278">
		<stop  offset="0" style="stop-color:#BBF1DA"/>
		<stop  offset="1" style="stop-color:#11AD6A"/>
	</linearGradient>
	<rect x="21.7" y="64.6" class="st63" width="9.4" height="1.3"/>
	<linearGradient id="SVGID_64_" gradientUnits="userSpaceOnUse" x1="26.4387" y1="39.1667" x2="26.4387" y2="67.4278">
		<stop  offset="0" style="stop-color:#BBF1DA"/>
		<stop  offset="1" style="stop-color:#11AD6A"/>
	</linearGradient>
	<rect x="21.7" y="48.9" class="st64" width="9.4" height="1.3"/>
	<linearGradient id="SVGID_65_" gradientUnits="userSpaceOnUse" x1="26.4387" y1="39.1667" x2="26.4387" y2="67.4278">
		<stop  offset="0" style="stop-color:#BBF1DA"/>
		<stop  offset="1" style="stop-color:#11AD6A"/>
	</linearGradient>
	<rect x="21.7" y="42.2" class="st65" width="9.4" height="1.3"/>
	<linearGradient id="SVGID_66_" gradientUnits="userSpaceOnUse" x1="26.4387" y1="39.1667" x2="26.4387" y2="67.4278">
		<stop  offset="0" style="stop-color:#BBF1DA"/>
		<stop  offset="1" style="stop-color:#11AD6A"/>
	</linearGradient>
	<rect x="21.7" y="51.1" class="st66" width="9.4" height="1.3"/>
	<linearGradient id="SVGID_67_" gradientUnits="userSpaceOnUse" x1="26.4387" y1="39.1667" x2="26.4387" y2="67.4278">
		<stop  offset="0" style="stop-color:#BBF1DA"/>
		<stop  offset="1" style="stop-color:#11AD6A"/>
	</linearGradient>
	<rect x="21.7" y="44.4" class="st67" width="9.4" height="1.3"/>
	<linearGradient id="SVGID_68_" gradientUnits="userSpaceOnUse" x1="26.4387" y1="39.1667" x2="26.4387" y2="67.4278">
		<stop  offset="0" style="stop-color:#BBF1DA"/>
		<stop  offset="1" style="stop-color:#11AD6A"/>
	</linearGradient>
	<rect x="21.7" y="60.1" class="st68" width="9.4" height="1.3"/>
	<linearGradient id="SVGID_69_" gradientUnits="userSpaceOnUse" x1="26.4387" y1="39.1667" x2="26.4387" y2="67.4278">
		<stop  offset="0" style="stop-color:#BBF1DA"/>
		<stop  offset="1" style="stop-color:#11AD6A"/>
	</linearGradient>
	<rect x="21.7" y="62.4" class="st69" width="9.4" height="1.3"/>
	<linearGradient id="SVGID_70_" gradientUnits="userSpaceOnUse" x1="26.4387" y1="39.1667" x2="26.4387" y2="67.4278">
		<stop  offset="0" style="stop-color:#BBF1DA"/>
		<stop  offset="1" style="stop-color:#11AD6A"/>
	</linearGradient>
	<rect x="21.7" y="39.9" class="st70" width="9.4" height="1.3"/>
	<linearGradient id="SVGID_71_" gradientUnits="userSpaceOnUse" x1="26.4387" y1="39.1667" x2="26.4387" y2="67.4278">
		<stop  offset="0" style="stop-color:#BBF1DA"/>
		<stop  offset="1" style="stop-color:#11AD6A"/>
	</linearGradient>
	<rect x="21.7" y="53.4" class="st71" width="9.4" height="1.3"/>
	<linearGradient id="SVGID_72_" gradientUnits="userSpaceOnUse" x1="26.4387" y1="39.1667" x2="26.4387" y2="67.4278">
		<stop  offset="0" style="stop-color:#BBF1DA"/>
		<stop  offset="1" style="stop-color:#11AD6A"/>
	</linearGradient>
	<rect x="21.7" y="57.9" class="st72" width="9.4" height="1.3"/>
	<linearGradient id="SVGID_73_" gradientUnits="userSpaceOnUse" x1="26.4387" y1="39.1667" x2="26.4387" y2="67.4278">
		<stop  offset="0" style="stop-color:#BBF1DA"/>
		<stop  offset="1" style="stop-color:#11AD6A"/>
	</linearGradient>
	<rect x="21.7" y="46.7" class="st73" width="9.4" height="1.3"/>
	<linearGradient id="SVGID_74_" gradientUnits="userSpaceOnUse" x1="26.4387" y1="39.1667" x2="26.4387" y2="67.4278">
		<stop  offset="0" style="stop-color:#BBF1DA"/>
		<stop  offset="1" style="stop-color:#11AD6A"/>
	</linearGradient>
	<rect x="21.7" y="37.7" class="st74" width="9.4" height="1.3"/>
	<linearGradient id="SVGID_75_" gradientUnits="userSpaceOnUse" x1="26.4387" y1="39.1667" x2="26.4387" y2="67.4278">
		<stop  offset="0" style="stop-color:#BBF1DA"/>
		<stop  offset="1" style="stop-color:#11AD6A"/>
	</linearGradient>
	<rect x="21.7" y="35.4" class="st75" width="9.4" height="1.3"/>
	<linearGradient id="SVGID_76_" gradientUnits="userSpaceOnUse" x1="26.4387" y1="39.1667" x2="26.4387" y2="67.4278">
		<stop  offset="0" style="stop-color:#BBF1DA"/>
		<stop  offset="1" style="stop-color:#11AD6A"/>
	</linearGradient>
	<rect x="21.7" y="55.6" class="st76" width="9.4" height="1.3"/>
</g>
<g>
	<linearGradient id="SVGID_77_" gradientUnits="userSpaceOnUse" x1="76.6125" y1="27" x2="76.6125" y2="73.2343">
		<stop  offset="0" style="stop-color:#BBF1DA"/>
		<stop  offset="1" style="stop-color:#11AD6A"/>
	</linearGradient>
	<rect x="71.9" y="57.9" class="st77" width="9.4" height="1.3"/>
	<linearGradient id="SVGID_78_" gradientUnits="userSpaceOnUse" x1="76.6125" y1="27" x2="76.6125" y2="73.2343">
		<stop  offset="0" style="stop-color:#BBF1DA"/>
		<stop  offset="1" style="stop-color:#11AD6A"/>
	</linearGradient>
	<rect x="71.9" y="60.1" class="st78" width="9.4" height="1.3"/>
	<linearGradient id="SVGID_79_" gradientUnits="userSpaceOnUse" x1="76.6125" y1="27" x2="76.6125" y2="73.2343">
		<stop  offset="0" style="stop-color:#BBF1DA"/>
		<stop  offset="1" style="stop-color:#11AD6A"/>
	</linearGradient>
	<rect x="71.9" y="66.8" class="st79" width="9.4" height="1.3"/>
	<linearGradient id="SVGID_80_" gradientUnits="userSpaceOnUse" x1="76.6125" y1="27" x2="76.6125" y2="73.2343">
		<stop  offset="0" style="stop-color:#BBF1DA"/>
		<stop  offset="1" style="stop-color:#11AD6A"/>
	</linearGradient>
	<rect x="71.9" y="69.1" class="st80" width="9.4" height="1.3"/>
	<linearGradient id="SVGID_81_" gradientUnits="userSpaceOnUse" x1="76.6125" y1="27" x2="76.6125" y2="73.2343">
		<stop  offset="0" style="stop-color:#BBF1DA"/>
		<stop  offset="1" style="stop-color:#11AD6A"/>
	</linearGradient>
	<rect x="71.9" y="62.4" class="st81" width="9.4" height="1.3"/>
	<linearGradient id="SVGID_82_" gradientUnits="userSpaceOnUse" x1="76.6125" y1="27" x2="76.6125" y2="73.2343">
		<stop  offset="0" style="stop-color:#BBF1DA"/>
		<stop  offset="1" style="stop-color:#11AD6A"/>
	</linearGradient>
	<rect x="71.9" y="64.6" class="st82" width="9.4" height="1.3"/>
</g>
<g>
	<linearGradient id="SVGID_83_" gradientUnits="userSpaceOnUse" x1="36.4734" y1="27" x2="36.4734" y2="73.2343">
		<stop  offset="0" style="stop-color:#BBF1DA"/>
		<stop  offset="1" style="stop-color:#11AD6A"/>
	</linearGradient>
	<rect x="31.8" y="66.8" class="st83" width="9.4" height="1.3"/>
	<linearGradient id="SVGID_84_" gradientUnits="userSpaceOnUse" x1="36.4734" y1="27" x2="36.4734" y2="73.2343">
		<stop  offset="0" style="stop-color:#BBF1DA"/>
		<stop  offset="1" style="stop-color:#11AD6A"/>
	</linearGradient>
	<rect x="31.8" y="69.1" class="st84" width="9.4" height="1.3"/>
	<linearGradient id="SVGID_85_" gradientUnits="userSpaceOnUse" x1="36.4734" y1="27" x2="36.4734" y2="73.2343">
		<stop  offset="0" style="stop-color:#BBF1DA"/>
		<stop  offset="1" style="stop-color:#11AD6A"/>
	</linearGradient>
	<rect x="31.8" y="33.2" class="st85" width="9.4" height="1.3"/>
	<linearGradient id="SVGID_86_" gradientUnits="userSpaceOnUse" x1="36.4734" y1="27" x2="36.4734" y2="73.2343">
		<stop  offset="0" style="stop-color:#BBF1DA"/>
		<stop  offset="1" style="stop-color:#11AD6A"/>
	</linearGradient>
	<rect x="31.8" y="35.4" class="st86" width="9.4" height="1.3"/>
	<linearGradient id="SVGID_87_" gradientUnits="userSpaceOnUse" x1="36.4734" y1="27" x2="36.4734" y2="73.2343">
		<stop  offset="0" style="stop-color:#BBF1DA"/>
		<stop  offset="1" style="stop-color:#11AD6A"/>
	</linearGradient>
	<rect x="31.8" y="26.5" class="st87" width="9.4" height="1.3"/>
	<linearGradient id="SVGID_88_" gradientUnits="userSpaceOnUse" x1="36.4734" y1="27" x2="36.4734" y2="73.2343">
		<stop  offset="0" style="stop-color:#BBF1DA"/>
		<stop  offset="1" style="stop-color:#11AD6A"/>
	</linearGradient>
	<rect x="31.8" y="37.7" class="st88" width="9.4" height="1.3"/>
	<linearGradient id="SVGID_89_" gradientUnits="userSpaceOnUse" x1="36.4734" y1="27" x2="36.4734" y2="73.2343">
		<stop  offset="0" style="stop-color:#BBF1DA"/>
		<stop  offset="1" style="stop-color:#11AD6A"/>
	</linearGradient>
	<rect x="31.8" y="28.7" class="st89" width="9.4" height="1.3"/>
	<linearGradient id="SVGID_90_" gradientUnits="userSpaceOnUse" x1="36.4734" y1="27" x2="36.4734" y2="73.2343">
		<stop  offset="0" style="stop-color:#BBF1DA"/>
		<stop  offset="1" style="stop-color:#11AD6A"/>
	</linearGradient>
	<rect x="31.8" y="31" class="st90" width="9.4" height="1.3"/>
	<linearGradient id="SVGID_91_" gradientUnits="userSpaceOnUse" x1="36.4734" y1="27" x2="36.4734" y2="73.2343">
		<stop  offset="0" style="stop-color:#BBF1DA"/>
		<stop  offset="1" style="stop-color:#11AD6A"/>
	</linearGradient>
	<rect x="31.8" y="46.7" class="st91" width="9.4" height="1.3"/>
	<linearGradient id="SVGID_92_" gradientUnits="userSpaceOnUse" x1="36.4734" y1="27" x2="36.4734" y2="73.2343">
		<stop  offset="0" style="stop-color:#BBF1DA"/>
		<stop  offset="1" style="stop-color:#11AD6A"/>
	</linearGradient>
	<rect x="31.8" y="48.9" class="st92" width="9.4" height="1.3"/>
	<linearGradient id="SVGID_93_" gradientUnits="userSpaceOnUse" x1="36.4734" y1="27" x2="36.4734" y2="73.2343">
		<stop  offset="0" style="stop-color:#BBF1DA"/>
		<stop  offset="1" style="stop-color:#11AD6A"/>
	</linearGradient>
	<rect x="31.8" y="44.4" class="st93" width="9.4" height="1.3"/>
	<linearGradient id="SVGID_94_" gradientUnits="userSpaceOnUse" x1="36.4734" y1="27" x2="36.4734" y2="73.2343">
		<stop  offset="0" style="stop-color:#BBF1DA"/>
		<stop  offset="1" style="stop-color:#11AD6A"/>
	</linearGradient>
	<rect x="31.8" y="42.2" class="st94" width="9.4" height="1.3"/>
	<linearGradient id="SVGID_95_" gradientUnits="userSpaceOnUse" x1="36.4734" y1="27" x2="36.4734" y2="73.2343">
		<stop  offset="0" style="stop-color:#BBF1DA"/>
		<stop  offset="1" style="stop-color:#11AD6A"/>
	</linearGradient>
	<rect x="31.8" y="39.9" class="st95" width="9.4" height="1.3"/>
	<linearGradient id="SVGID_96_" gradientUnits="userSpaceOnUse" x1="36.4734" y1="27" x2="36.4734" y2="73.2343">
		<stop  offset="0" style="stop-color:#BBF1DA"/>
		<stop  offset="1" style="stop-color:#11AD6A"/>
	</linearGradient>
	<rect x="31.8" y="4.1" class="st96" width="9.4" height="1.3"/>
	<linearGradient id="SVGID_97_" gradientUnits="userSpaceOnUse" x1="36.4734" y1="27" x2="36.4734" y2="73.2343">
		<stop  offset="0" style="stop-color:#BBF1DA"/>
		<stop  offset="1" style="stop-color:#11AD6A"/>
	</linearGradient>
	<rect x="31.8" y="8.5" class="st97" width="9.4" height="1.3"/>
	<linearGradient id="SVGID_98_" gradientUnits="userSpaceOnUse" x1="36.4734" y1="27" x2="36.4734" y2="73.2343">
		<stop  offset="0" style="stop-color:#BBF1DA"/>
		<stop  offset="1" style="stop-color:#11AD6A"/>
	</linearGradient>
	<rect x="31.8" y="13" class="st98" width="9.4" height="1.3"/>
	<linearGradient id="SVGID_99_" gradientUnits="userSpaceOnUse" x1="36.4734" y1="27" x2="36.4734" y2="73.2343">
		<stop  offset="0" style="stop-color:#BBF1DA"/>
		<stop  offset="1" style="stop-color:#11AD6A"/>
	</linearGradient>
	<rect x="31.8" y="51.1" class="st99" width="9.4" height="1.3"/>
	<linearGradient id="SVGID_100_" gradientUnits="userSpaceOnUse" x1="36.4734" y1="27" x2="36.4734" y2="73.2343">
		<stop  offset="0" style="stop-color:#BBF1DA"/>
		<stop  offset="1" style="stop-color:#11AD6A"/>
	</linearGradient>
	<rect x="31.8" y="6.3" class="st100" width="9.4" height="1.3"/>
	<linearGradient id="SVGID_101_" gradientUnits="userSpaceOnUse" x1="36.4734" y1="27" x2="36.4734" y2="73.2343">
		<stop  offset="0" style="stop-color:#BBF1DA"/>
		<stop  offset="1" style="stop-color:#11AD6A"/>
	</linearGradient>
	<rect x="31.8" y="17.5" class="st101" width="9.4" height="1.3"/>
	<linearGradient id="SVGID_102_" gradientUnits="userSpaceOnUse" x1="36.4734" y1="27" x2="36.4734" y2="73.2343">
		<stop  offset="0" style="stop-color:#BBF1DA"/>
		<stop  offset="1" style="stop-color:#11AD6A"/>
	</linearGradient>
	<rect x="31.8" y="22" class="st102" width="9.4" height="1.3"/>
	<linearGradient id="SVGID_103_" gradientUnits="userSpaceOnUse" x1="36.4734" y1="27" x2="36.4734" y2="73.2343">
		<stop  offset="0" style="stop-color:#BBF1DA"/>
		<stop  offset="1" style="stop-color:#11AD6A"/>
	</linearGradient>
	<rect x="31.8" y="24.2" class="st103" width="9.4" height="1.3"/>
	<linearGradient id="SVGID_104_" gradientUnits="userSpaceOnUse" x1="36.4734" y1="27" x2="36.4734" y2="73.2343">
		<stop  offset="0" style="stop-color:#BBF1DA"/>
		<stop  offset="1" style="stop-color:#11AD6A"/>
	</linearGradient>
	<rect x="31.8" y="15.3" class="st104" width="9.4" height="1.3"/>
	<linearGradient id="SVGID_105_" gradientUnits="userSpaceOnUse" x1="36.4734" y1="27" x2="36.4734" y2="73.2343">
		<stop  offset="0" style="stop-color:#BBF1DA"/>
		<stop  offset="1" style="stop-color:#11AD6A"/>
	</linearGradient>
	<rect x="31.8" y="19.7" class="st105" width="9.4" height="1.3"/>
	<linearGradient id="SVGID_106_" gradientUnits="userSpaceOnUse" x1="36.4734" y1="27" x2="36.4734" y2="73.2343">
		<stop  offset="0" style="stop-color:#BBF1DA"/>
		<stop  offset="1" style="stop-color:#11AD6A"/>
	</linearGradient>
	<rect x="31.8" y="53.4" class="st106" width="9.4" height="1.3"/>
	<linearGradient id="SVGID_107_" gradientUnits="userSpaceOnUse" x1="36.4734" y1="27" x2="36.4734" y2="73.2343">
		<stop  offset="0" style="stop-color:#BBF1DA"/>
		<stop  offset="1" style="stop-color:#11AD6A"/>
	</linearGradient>
	<rect x="31.8" y="60.1" class="st107" width="9.4" height="1.3"/>
	<linearGradient id="SVGID_108_" gradientUnits="userSpaceOnUse" x1="36.4734" y1="27" x2="36.4734" y2="73.2343">
		<stop  offset="0" style="stop-color:#BBF1DA"/>
		<stop  offset="1" style="stop-color:#11AD6A"/>
	</linearGradient>
	<rect x="31.8" y="57.9" class="st108" width="9.4" height="1.3"/>
	<linearGradient id="SVGID_109_" gradientUnits="userSpaceOnUse" x1="36.4734" y1="27" x2="36.4734" y2="73.2343">
		<stop  offset="0" style="stop-color:#BBF1DA"/>
		<stop  offset="1" style="stop-color:#11AD6A"/>
	</linearGradient>
	<rect x="31.8" y="55.6" class="st109" width="9.4" height="1.3"/>
	<linearGradient id="SVGID_110_" gradientUnits="userSpaceOnUse" x1="36.4734" y1="27" x2="36.4734" y2="73.2343">
		<stop  offset="0" style="stop-color:#BBF1DA"/>
		<stop  offset="1" style="stop-color:#11AD6A"/>
	</linearGradient>
	<rect x="31.8" y="62.4" class="st110" width="9.4" height="1.3"/>
	<linearGradient id="SVGID_111_" gradientUnits="userSpaceOnUse" x1="36.4734" y1="27" x2="36.4734" y2="73.2343">
		<stop  offset="0" style="stop-color:#BBF1DA"/>
		<stop  offset="1" style="stop-color:#11AD6A"/>
	</linearGradient>
	<rect x="31.8" y="10.8" class="st111" width="9.4" height="1.3"/>
	<linearGradient id="SVGID_112_" gradientUnits="userSpaceOnUse" x1="36.4734" y1="27" x2="36.4734" y2="73.2343">
		<stop  offset="0" style="stop-color:#BBF1DA"/>
		<stop  offset="1" style="stop-color:#11AD6A"/>
	</linearGradient>
	<rect x="31.8" y="64.6" class="st112" width="9.4" height="1.3"/>
</g>
<g>
	<g>
		<linearGradient id="SVGID_113_" gradientUnits="userSpaceOnUse" x1="66.5777" y1="27" x2="66.5777" y2="73.2343">
			<stop  offset="0" style="stop-color:#BBF1DA"/>
			<stop  offset="1" style="stop-color:#11AD6A"/>
		</linearGradient>
		<rect x="61.9" y="39.9" class="st113" width="9.4" height="1.3"/>
		<linearGradient id="SVGID_114_" gradientUnits="userSpaceOnUse" x1="66.5777" y1="27" x2="66.5777" y2="73.2343">
			<stop  offset="0" style="stop-color:#BBF1DA"/>
			<stop  offset="1" style="stop-color:#11AD6A"/>
		</linearGradient>
		<rect x="61.9" y="37.7" class="st114" width="9.4" height="1.3"/>
		<linearGradient id="SVGID_115_" gradientUnits="userSpaceOnUse" x1="66.5777" y1="27" x2="66.5777" y2="73.2343">
			<stop  offset="0" style="stop-color:#BBF1DA"/>
			<stop  offset="1" style="stop-color:#11AD6A"/>
		</linearGradient>
		<rect x="61.9" y="33.2" class="st115" width="9.4" height="1.3"/>
		<linearGradient id="SVGID_116_" gradientUnits="userSpaceOnUse" x1="66.5777" y1="27" x2="66.5777" y2="73.2343">
			<stop  offset="0" style="stop-color:#BBF1DA"/>
			<stop  offset="1" style="stop-color:#11AD6A"/>
		</linearGradient>
		<rect x="61.9" y="35.4" class="st116" width="9.4" height="1.3"/>
		<linearGradient id="SVGID_117_" gradientUnits="userSpaceOnUse" x1="66.5777" y1="27" x2="66.5777" y2="73.2343">
			<stop  offset="0" style="stop-color:#BBF1DA"/>
			<stop  offset="1" style="stop-color:#11AD6A"/>
		</linearGradient>
		<rect x="61.9" y="42.2" class="st117" width="9.4" height="1.3"/>
		<linearGradient id="SVGID_118_" gradientUnits="userSpaceOnUse" x1="66.5777" y1="27" x2="66.5777" y2="73.2343">
			<stop  offset="0" style="stop-color:#BBF1DA"/>
			<stop  offset="1" style="stop-color:#11AD6A"/>
		</linearGradient>
		<rect x="61.9" y="44.4" class="st118" width="9.4" height="1.3"/>
		<linearGradient id="SVGID_119_" gradientUnits="userSpaceOnUse" x1="66.5777" y1="27" x2="66.5777" y2="73.2343">
			<stop  offset="0" style="stop-color:#BBF1DA"/>
			<stop  offset="1" style="stop-color:#11AD6A"/>
		</linearGradient>
		<rect x="61.9" y="46.7" class="st119" width="9.4" height="1.3"/>
		<linearGradient id="SVGID_120_" gradientUnits="userSpaceOnUse" x1="66.5777" y1="27" x2="66.5777" y2="73.2343">
			<stop  offset="0" style="stop-color:#BBF1DA"/>
			<stop  offset="1" style="stop-color:#11AD6A"/>
		</linearGradient>
		<rect x="61.9" y="31" class="st120" width="9.4" height="1.3"/>
		<linearGradient id="SVGID_121_" gradientUnits="userSpaceOnUse" x1="66.5777" y1="27" x2="66.5777" y2="73.2343">
			<stop  offset="0" style="stop-color:#BBF1DA"/>
			<stop  offset="1" style="stop-color:#11AD6A"/>
		</linearGradient>
		<rect x="61.9" y="19.7" class="st121" width="9.4" height="1.3"/>
		<linearGradient id="SVGID_122_" gradientUnits="userSpaceOnUse" x1="66.5777" y1="27" x2="66.5777" y2="73.2343">
			<stop  offset="0" style="stop-color:#BBF1DA"/>
			<stop  offset="1" style="stop-color:#11AD6A"/>
		</linearGradient>
		<rect x="61.9" y="26.5" class="st122" width="9.4" height="1.3"/>
		<linearGradient id="SVGID_123_" gradientUnits="userSpaceOnUse" x1="66.5777" y1="27" x2="66.5777" y2="73.2343">
			<stop  offset="0" style="stop-color:#BBF1DA"/>
			<stop  offset="1" style="stop-color:#11AD6A"/>
		</linearGradient>
		<rect x="61.9" y="24.2" class="st123" width="9.4" height="1.3"/>
		<linearGradient id="SVGID_124_" gradientUnits="userSpaceOnUse" x1="66.5777" y1="27" x2="66.5777" y2="73.2343">
			<stop  offset="0" style="stop-color:#BBF1DA"/>
			<stop  offset="1" style="stop-color:#11AD6A"/>
		</linearGradient>
		<rect x="61.9" y="28.7" class="st124" width="9.4" height="1.3"/>
		<linearGradient id="SVGID_125_" gradientUnits="userSpaceOnUse" x1="66.5777" y1="27" x2="66.5777" y2="73.2343">
			<stop  offset="0" style="stop-color:#BBF1DA"/>
			<stop  offset="1" style="stop-color:#11AD6A"/>
		</linearGradient>
		<rect x="61.9" y="22" class="st125" width="9.4" height="1.3"/>
	</g>
	<linearGradient id="SVGID_126_" gradientUnits="userSpaceOnUse" x1="66.5777" y1="27" x2="66.5777" y2="73.2343">
		<stop  offset="0" style="stop-color:#BBF1DA"/>
		<stop  offset="1" style="stop-color:#11AD6A"/>
	</linearGradient>
	<rect x="61.9" y="57.9" class="st126" width="9.4" height="1.3"/>
	<linearGradient id="SVGID_127_" gradientUnits="userSpaceOnUse" x1="66.5777" y1="27" x2="66.5777" y2="73.2343">
		<stop  offset="0" style="stop-color:#BBF1DA"/>
		<stop  offset="1" style="stop-color:#11AD6A"/>
	</linearGradient>
	<rect x="61.9" y="60.1" class="st127" width="9.4" height="1.3"/>
	<linearGradient id="SVGID_128_" gradientUnits="userSpaceOnUse" x1="66.5777" y1="27" x2="66.5777" y2="73.2343">
		<stop  offset="0" style="stop-color:#BBF1DA"/>
		<stop  offset="1" style="stop-color:#11AD6A"/>
	</linearGradient>
	<rect x="61.9" y="55.6" class="st128" width="9.4" height="1.3"/>
	<linearGradient id="SVGID_129_" gradientUnits="userSpaceOnUse" x1="66.5777" y1="27" x2="66.5777" y2="73.2343">
		<stop  offset="0" style="stop-color:#BBF1DA"/>
		<stop  offset="1" style="stop-color:#11AD6A"/>
	</linearGradient>
	<rect x="61.9" y="53.4" class="st129" width="9.4" height="1.3"/>
	<linearGradient id="SVGID_130_" gradientUnits="userSpaceOnUse" x1="66.5777" y1="27" x2="66.5777" y2="73.2343">
		<stop  offset="0" style="stop-color:#BBF1DA"/>
		<stop  offset="1" style="stop-color:#11AD6A"/>
	</linearGradient>
	<rect x="61.9" y="51.1" class="st130" width="9.4" height="1.3"/>
	<linearGradient id="SVGID_131_" gradientUnits="userSpaceOnUse" x1="66.5777" y1="27" x2="66.5777" y2="73.2343">
		<stop  offset="0" style="stop-color:#BBF1DA"/>
		<stop  offset="1" style="stop-color:#11AD6A"/>
	</linearGradient>
	<rect x="61.9" y="48.9" class="st131" width="9.4" height="1.3"/>
	<linearGradient id="SVGID_132_" gradientUnits="userSpaceOnUse" x1="66.5777" y1="27" x2="66.5777" y2="73.2343">
		<stop  offset="0" style="stop-color:#BBF1DA"/>
		<stop  offset="1" style="stop-color:#11AD6A"/>
	</linearGradient>
	<rect x="61.9" y="66.8" class="st132" width="9.4" height="1.3"/>
	<linearGradient id="SVGID_133_" gradientUnits="userSpaceOnUse" x1="66.5777" y1="27" x2="66.5777" y2="73.2343">
		<stop  offset="0" style="stop-color:#BBF1DA"/>
		<stop  offset="1" style="stop-color:#11AD6A"/>
	</linearGradient>
	<rect x="61.9" y="69.1" class="st133" width="9.4" height="1.3"/>
	<linearGradient id="SVGID_134_" gradientUnits="userSpaceOnUse" x1="66.5777" y1="27" x2="66.5777" y2="73.2343">
		<stop  offset="0" style="stop-color:#BBF1DA"/>
		<stop  offset="1" style="stop-color:#11AD6A"/>
	</linearGradient>
	<rect x="61.9" y="62.4" class="st134" width="9.4" height="1.3"/>
	<linearGradient id="SVGID_135_" gradientUnits="userSpaceOnUse" x1="66.5777" y1="27" x2="66.5777" y2="73.2343">
		<stop  offset="0" style="stop-color:#BBF1DA"/>
		<stop  offset="1" style="stop-color:#11AD6A"/>
	</linearGradient>
	<rect x="61.9" y="64.6" class="st135" width="9.4" height="1.3"/>
</g>
<g>
	<linearGradient id="SVGID_136_" gradientUnits="userSpaceOnUse" x1="56.543" y1="27" x2="56.543" y2="73.2343">
		<stop  offset="0" style="stop-color:#BBF1DA"/>
		<stop  offset="1" style="stop-color:#11AD6A"/>
	</linearGradient>
	<rect x="51.8" y="55.6" class="st136" width="9.4" height="1.3"/>
	<linearGradient id="SVGID_137_" gradientUnits="userSpaceOnUse" x1="56.543" y1="27" x2="56.543" y2="73.2343">
		<stop  offset="0" style="stop-color:#BBF1DA"/>
		<stop  offset="1" style="stop-color:#11AD6A"/>
	</linearGradient>
	<rect x="51.8" y="53.4" class="st137" width="9.4" height="1.3"/>
	<linearGradient id="SVGID_138_" gradientUnits="userSpaceOnUse" x1="56.543" y1="27" x2="56.543" y2="73.2343">
		<stop  offset="0" style="stop-color:#BBF1DA"/>
		<stop  offset="1" style="stop-color:#11AD6A"/>
	</linearGradient>
	<rect x="51.8" y="51.1" class="st138" width="9.4" height="1.3"/>
	<linearGradient id="SVGID_139_" gradientUnits="userSpaceOnUse" x1="56.543" y1="27" x2="56.543" y2="73.2343">
		<stop  offset="0" style="stop-color:#BBF1DA"/>
		<stop  offset="1" style="stop-color:#11AD6A"/>
	</linearGradient>
	<rect x="51.8" y="57.9" class="st139" width="9.4" height="1.3"/>
	<linearGradient id="SVGID_140_" gradientUnits="userSpaceOnUse" x1="56.543" y1="27" x2="56.543" y2="73.2343">
		<stop  offset="0" style="stop-color:#BBF1DA"/>
		<stop  offset="1" style="stop-color:#11AD6A"/>
	</linearGradient>
	<rect x="51.8" y="60.1" class="st140" width="9.4" height="1.3"/>
	<linearGradient id="SVGID_141_" gradientUnits="userSpaceOnUse" x1="56.543" y1="27" x2="56.543" y2="73.2343">
		<stop  offset="0" style="stop-color:#BBF1DA"/>
		<stop  offset="1" style="stop-color:#11AD6A"/>
	</linearGradient>
	<rect x="51.8" y="66.8" class="st141" width="9.4" height="1.3"/>
	<linearGradient id="SVGID_142_" gradientUnits="userSpaceOnUse" x1="56.543" y1="27" x2="56.543" y2="73.2343">
		<stop  offset="0" style="stop-color:#BBF1DA"/>
		<stop  offset="1" style="stop-color:#11AD6A"/>
	</linearGradient>
	<rect x="51.8" y="69.1" class="st142" width="9.4" height="1.3"/>
	<linearGradient id="SVGID_143_" gradientUnits="userSpaceOnUse" x1="56.543" y1="27" x2="56.543" y2="73.2343">
		<stop  offset="0" style="stop-color:#BBF1DA"/>
		<stop  offset="1" style="stop-color:#11AD6A"/>
	</linearGradient>
	<rect x="51.8" y="62.4" class="st143" width="9.4" height="1.3"/>
	<linearGradient id="SVGID_144_" gradientUnits="userSpaceOnUse" x1="56.543" y1="27" x2="56.543" y2="73.2343">
		<stop  offset="0" style="stop-color:#BBF1DA"/>
		<stop  offset="1" style="stop-color:#11AD6A"/>
	</linearGradient>
	<rect x="51.8" y="64.6" class="st144" width="9.4" height="1.3"/>
</g>
</svg>
