<?xml version="1.0" encoding="utf-8"?>
<!-- Generator: Adobe Illustrator 21.0.0, SVG Export Plug-In . SVG Version: 6.00 Build 0)  -->
<svg version="1.1" id="Layer_1" xmlns="http://www.w3.org/2000/svg" xmlns:xlink="http://www.w3.org/1999/xlink" x="0px" y="0px"
	 viewBox="0 0 58.9 58.9" style="enable-background:new 0 0 58.9 58.9;" xml:space="preserve">
<style type="text/css">
	.st0{fill:url(#SVGID_1_);}
	.st1{display:none;fill:#FFFFFF;}
	.st2{fill:#FFFFFF;}
</style>
<g>
	
		<linearGradient id="SVGID_1_" gradientUnits="userSpaceOnUse" x1="121.0071" y1="951.426" x2="121.0071" y2="1008.8535" gradientTransform="matrix(1 0 0 1 -91.5801 -950.4858)">
		<stop  offset="0" style="stop-color:#7BBF40"/>
		<stop  offset="1" style="stop-color:#47A537"/>
	</linearGradient>
	<path class="st0" d="M58.9,50c0,4.9-4,8.8-8.8,8.8H8.8C4,58.9,0,54.9,0,50V8.8C0,4,4,0,8.8,0H50c4.9,0,8.8,4,8.8,8.8V50z"/>
	<path class="st1" d="M30.5,30.2c0-0.5-0.4-0.9-0.9-0.9c-0.5,0-0.9,0.4-0.9,0.9c0,0.5,0.4,0.9,0.9,0.9
		C30.2,31.1,30.5,30.7,30.5,30.2z"/>
	<path class="st1" d="M33.2,29.5l10.5-5c0.4-0.2,0.6-0.7,0.4-1.2c-0.2-0.4-0.7-0.6-1.2-0.4l-10.5,5c-0.4,0.2-0.6,0.7-0.4,1.2
		C32.2,29.5,32.7,29.7,33.2,29.5z"/>
	<path class="st1" d="M7.3,37.7c0,0.3,0.2,0.6,0.5,0.8l21.5,10.5c0.1,0.1,0.3,0.1,0.4,0.1s0.3,0,0.4-0.1l21.5-10.5
		c0.3-0.1,0.5-0.4,0.5-0.8s-0.2-0.6-0.5-0.8L46,34.1l5.5-2.7c0.3-0.1,0.5-0.4,0.5-0.8c0-0.3-0.2-0.6-0.5-0.8L46,27.2l5.5-2.7
		c0.3-0.1,0.5-0.5,0.5-0.8s-0.2-0.6-0.5-0.8L30.1,12.4c-0.2-0.1-0.5-0.1-0.8,0L7.8,22.9c-0.3,0.1-0.5,0.5-0.5,0.8s0.2,0.6,0.5,0.8
		l5.5,2.7l-5.5,2.7c-0.3,0.1-0.5,0.5-0.5,0.8c0,0.3,0.2,0.6,0.5,0.8l5.5,2.7l-5.5,2.7C7.5,37,7.3,37.3,7.3,37.7z M29.7,14.2
		l19.5,9.5l-19.5,9.5l-19.5-9.5L29.7,14.2z M15.3,28.1l14,6.8c0.1,0.1,0.3,0.1,0.4,0.1s0.3,0,0.4-0.1l14-6.8l5.1,2.5l-19.5,9.5
		l-19.5-9.5L15.3,28.1z M15.3,35.1l14,6.8c0.1,0.1,0.3,0.1,0.4,0.1s0.3,0,0.4-0.1l14-6.8l5.1,2.5l-19.5,9.5l-19.5-9.5L15.3,35.1z"/>
</g>
<g>
	<path class="st2" d="M24.2,39.2l-1-0.8c-1.2-1-5-4.6-5-10.9c0-6.9,4.5-11.3,11.5-11.3c6.8,0,11.1,4.2,11.1,11
		c0,6.3-3.5,10-5.1,11.2l-1,0.8v4.2h12.6v-5.5h-4.1c2-3.2,3-6.8,3-10.8c0-9.8-6.7-16.5-16.6-16.5c-10,0-17.1,6.9-17.1,16.8
		c0,3.7,1,7.3,2.9,10.4h-4.5v5.5h13.1L24.2,39.2L24.2,39.2z"/>
</g>
</svg>
