<?xml version="1.0" encoding="utf-8"?>
<!-- Generator: Adobe Illustrator 21.0.0, SVG Export Plug-In . SVG Version: 6.00 Build 0)  -->
<svg version="1.1" id="Layer_1" xmlns="http://www.w3.org/2000/svg" xmlns:xlink="http://www.w3.org/1999/xlink" x="0px" y="0px"
	 viewBox="0 0 106.8 113.5" style="enable-background:new 0 0 106.8 113.5;" xml:space="preserve">
<style type="text/css">
	.st0{fill:#1084C3;}
</style>
<g>
	<g>
		<path class="st0" d="M94.5,0H79.7H27.1H12.3C5.5,0,0,5.5,0,12.3v88.9c0,6.8,5.5,12.3,12.3,12.3h23.9h34.4h23.9
			c6.8,0,12.3-5.5,12.3-12.3V12.3C106.8,5.5,101.3,0,94.5,0z M76.7,6.2V45H30.2V6.2H76.7z M39.3,107.3V77.6h28.2v29.8H39.3z
			 M100.6,101.2c0,3.4-2.8,6.2-6.2,6.2H73.7V74.5c0-1.7-1.4-3.1-3.1-3.1H36.2c-1.7,0-3.1,1.4-3.1,3.1v32.9H12.3
			c-3.4,0-6.2-2.8-6.2-6.2V12.3c0-3.4,2.8-6.2,6.2-6.2H24V48c0,1.7,1.4,3.1,3.1,3.1h52.7c1.7,0,3.1-1.4,3.1-3.1V6.2h11.7
			c3.4,0,6.2,2.8,6.2,6.2L100.6,101.2L100.6,101.2z"/>
		<path class="st0" d="M37.1,39.4h32.7c1.7,0,3.1-1.4,3.1-3.1c0-1.7-1.4-3.1-3.1-3.1H37.1c-1.7,0-3.1,1.4-3.1,3.1
			C34,38,35.4,39.4,37.1,39.4z"/>
		<path class="st0" d="M37.1,28.6h32.7c1.7,0,3.1-1.4,3.1-3.1c0-1.7-1.4-3.1-3.1-3.1H37.1c-1.7,0-3.1,1.4-3.1,3.1
			C34,27.3,35.4,28.6,37.1,28.6z"/>
		<path class="st0" d="M37.1,17.9h32.7c1.7,0,3.1-1.4,3.1-3.1c0-1.7-1.4-3.1-3.1-3.1H37.1c-1.7,0-3.1,1.4-3.1,3.1
			C34,16.5,35.4,17.9,37.1,17.9z"/>
		<path class="st0" d="M61.5,80.6c-1.7,0-3.1,1.4-3.1,3.1v8.7c0,1.7,1.4,3.1,3.1,3.1c1.7,0,3.1-1.4,3.1-3.1v-8.7
			C64.6,82,63.2,80.6,61.5,80.6z"/>
	</g>
</g>
</svg>
