<?xml version="1.0" encoding="utf-8"?>
<!-- Generator: Adobe Illustrator 16.0.0, SVG Export Plug-In . SVG Version: 6.00 Build 0)  -->
<!DOCTYPE svg PUBLIC "-//W3C//DTD SVG 1.1//EN" "http://www.w3.org/Graphics/SVG/1.1/DTD/svg11.dtd">
<svg version="1.1" id="Capa_1" xmlns="http://www.w3.org/2000/svg" xmlns:xlink="http://www.w3.org/1999/xlink" x="0px" y="0px"
	 width="98.333px" height="91px" viewBox="4.521 5.854 98.333 91" enable-background="new 4.521 5.854 98.333 91"
	 xml:space="preserve">
<g>
	<g>
		<path fill="#1084C3" d="M73.618,20.313c-0.669-0.59-1.676-0.528-2.267,0.141L42.296,53.341h-0.001
			c-0.235,0.267-0.376,0.598-0.4,0.943l-1.236,17.173c-0.037,0.508,0.165,0.988,0.542,1.322s0.879,0.475,1.38,0.373l16.889-3.342
			c0.339-0.068,0.65-0.248,0.887-0.514l29.108-32.949c0.591-0.669,0.528-1.676-0.14-2.266"/>
		<path fill="#1084C3" d="M44.014,69.596"/>
		<path fill="#1084C3" d="M79.178,27.368L52.441,57.631c-0.59,0.668-0.527,1.674,0.141,2.266c0.669,0.59,1.677,0.527,2.267-0.141
			l26.736-30.262c0.589-0.668,0.527-1.676-0.142-2.267C80.775,26.637,79.767,26.7,79.178,27.368z"/>
		<path fill="#1084C3" d="M80.563,10.026l-4.756,5.384c-0.591,0.669-0.529,1.675,0.14,2.266l15.641,13.819
			c0.668,0.591,1.676,0.528,2.267-0.14l4.758-5.385c2.297-2.601,2.061-6.596-0.552-8.904l-8.593-7.591
			C86.867,7.177,82.872,7.413,80.563,10.026z"/>
	</g>
</g>
<g>
	<defs>
		<path id="SVGID_1_" d="M107.375,62.129c0,31.939-25.744,57.832-57.5,57.832c-31.757,0-57.5-25.893-57.5-57.832
			c0-31.941,25.744-59.314,57.5-59.314c10.234,0,33.311,1.309,26.313,7.833c-37.5,34.961-46.03,59.489-37.667,62.705
			c9.035,3.476,0.182-1.408,14.167-1.205c0.397,0.006,1.745,0.617,2.228,0.461c1.446-0.47,2.402,0.499,4.438-1.127
			c10.412-8.317,28.28-28.551,32.491-32.834c10.319-10.494,14.751-20.785,14.343-24.167C100.327-34.1,107.375,54.48,107.375,62.129z
			"/>
	</defs>
	<clipPath id="SVGID_2_">
		<use xlink:href="#SVGID_1_"  overflow="visible"/>
	</clipPath>
	<g clip-path="url(#SVGID_2_)">
		<path fill="#1084C3" d="M83.715,45.177l-5.607-0.95c-0.584-1.886-1.334-3.704-2.252-5.44l3.303-4.622
			c1.402-1.969,1.186-4.656-0.533-6.357l-4.971-4.973c-0.936-0.934-2.172-1.452-3.488-1.452c-1.035,0-2.02,0.317-2.854,0.917
			l-4.639,3.304c-1.803-0.952-3.688-1.734-5.64-2.319l-0.935-5.54c-0.4-2.386-2.452-4.121-4.871-4.121h-7.025
			c-2.419,0-4.472,1.735-4.873,4.121l-0.968,5.674c-1.869,0.584-3.688,1.351-5.423,2.285l-4.588-3.302
			c-0.834-0.601-1.835-0.918-2.87-0.918c-1.318,0-2.569,0.517-3.487,1.451l-4.989,4.973c-1.702,1.701-1.936,4.388-0.534,6.357
			l3.337,4.688c-0.918,1.752-1.652,3.571-2.219,5.456l-5.54,0.934c-2.387,0.402-4.122,2.454-4.122,4.874v7.024
			c0,2.42,1.735,4.471,4.122,4.872l5.673,0.968c0.584,1.869,1.351,3.688,2.286,5.422l-3.287,4.572
			c-1.401,1.969-1.185,4.655,0.534,6.357l4.973,4.973c0.935,0.936,2.168,1.452,3.487,1.452c1.034,0,2.019-0.317,2.854-0.918
			l4.688-3.337c1.685,0.883,3.453,1.602,5.273,2.169l0.934,5.606c0.401,2.387,2.453,4.121,4.873,4.121h7.042
			c2.419,0,4.471-1.734,4.871-4.121l0.951-5.606c1.886-0.584,3.705-1.335,5.439-2.253l4.621,3.304
			c0.834,0.601,1.836,0.917,2.869,0.917l0,0c1.318,0,2.555-0.517,3.488-1.45l4.973-4.974c1.701-1.7,1.936-4.388,0.533-6.355
			l-3.305-4.64c0.918-1.753,1.686-3.57,2.254-5.44l5.607-0.934c2.385-0.401,4.119-2.452,4.119-4.874v-7.023
			C87.836,47.629,86.1,45.579,83.715,45.177z M83.331,57.073c0,0.218-0.15,0.401-0.367,0.436l-7.008,1.168
			c-0.885,0.149-1.586,0.8-1.803,1.65c-0.633,2.454-1.602,4.807-2.904,6.992c-0.449,0.768-0.416,1.718,0.102,2.453l4.121,5.806
			c0.117,0.167,0.1,0.417-0.051,0.567l-4.971,4.974c-0.117,0.116-0.234,0.133-0.318,0.133c-0.1,0-0.184-0.033-0.25-0.084
			l-5.789-4.121c-0.719-0.517-1.686-0.551-2.453-0.1c-2.186,1.303-4.539,2.27-6.991,2.904c-0.867,0.216-1.519,0.934-1.652,1.801
			l-1.185,7.009c-0.033,0.218-0.217,0.366-0.434,0.366h-7.024c-0.217,0-0.4-0.148-0.434-0.366l-1.168-7.009
			c-0.15-0.884-0.801-1.585-1.652-1.801c-2.386-0.619-4.688-1.569-6.841-2.805c-0.35-0.199-0.75-0.301-1.134-0.301
			c-0.45,0-0.917,0.134-1.301,0.417l-5.84,4.155c-0.083,0.05-0.167,0.084-0.25,0.084c-0.066,0-0.2-0.017-0.317-0.135l-4.972-4.973
			c-0.15-0.149-0.167-0.383-0.05-0.566l4.105-5.757c0.517-0.734,0.55-1.701,0.1-2.47c-1.301-2.168-2.303-4.522-2.937-6.975
			c-0.233-0.851-0.935-1.502-1.801-1.652l-7.058-1.201c-0.218-0.032-0.367-0.216-0.367-0.434v-7.023c0-0.218,0.15-0.4,0.367-0.435
			l6.957-1.168c0.884-0.148,1.602-0.801,1.819-1.669c0.617-2.452,1.569-4.821,2.853-7.008c0.451-0.768,0.401-1.719-0.117-2.436
			l-4.154-5.839c-0.117-0.167-0.1-0.417,0.05-0.568l4.973-4.973c0.117-0.116,0.233-0.134,0.317-0.134c0.1,0,0.184,0.033,0.25,0.083
			l5.756,4.105c0.734,0.517,1.702,0.55,2.469,0.101c2.169-1.301,4.522-2.303,6.975-2.938c0.851-0.233,1.502-0.935,1.652-1.802
			l1.201-7.058c0.034-0.217,0.218-0.367,0.435-0.367h7.024c0.218,0,0.401,0.15,0.434,0.367l1.168,6.958
			c0.15,0.884,0.802,1.602,1.669,1.819c2.52,0.634,4.922,1.618,7.158,2.938c0.768,0.45,1.719,0.417,2.453-0.101l5.756-4.139
			c0.084-0.049,0.168-0.083,0.25-0.083c0.066,0,0.201,0.016,0.316,0.134l4.973,4.972c0.15,0.151,0.168,0.384,0.051,0.568
			l-4.121,5.79c-0.518,0.718-0.551,1.686-0.1,2.454c1.301,2.185,2.27,4.537,2.902,6.991c0.219,0.867,0.936,1.518,1.803,1.651
			l7.008,1.185c0.217,0.034,0.367,0.218,0.367,0.434v7.023H83.331L83.331,57.073z"/>
		<path fill="#1084C3" d="M47.875,36.317c-9.511,0-17.236,7.726-17.236,17.236s7.725,17.237,17.236,17.237
			c9.511,0,17.235-7.727,17.235-17.237S57.385,36.317,47.875,36.317z M47.875,66.286c-7.025,0-12.731-5.707-12.731-12.731
			c0-7.023,5.707-12.731,12.731-12.731c7.023,0,12.729,5.708,12.729,12.731C60.606,60.579,54.899,66.286,47.875,66.286z"/>
	</g>
	<g display="none" clip-path="url(#SVGID_2_)">
		<g display="inline">
			<path fill="#1084C3" d="M84.012,45.158l-5.636-0.956c-0.588-1.896-1.344-3.726-2.267-5.471l3.323-4.648
				c1.409-1.979,1.191-4.682-0.536-6.392l-5-5.001c-0.941-0.939-2.185-1.46-3.508-1.46c-1.043,0-2.031,0.319-2.869,0.923
				l-4.666,3.322c-1.812-0.957-3.708-1.744-5.67-2.332l-0.94-5.571c-0.402-2.4-2.465-4.144-4.898-4.144h-7.064
				c-2.433,0-4.497,1.744-4.9,4.144l-0.974,5.706c-1.88,0.587-3.708,1.358-5.453,2.297l-4.614-3.321
				c-0.839-0.604-1.846-0.923-2.886-0.923c-1.325,0-2.583,0.521-3.506,1.459l-5.017,5.001c-1.711,1.71-1.947,4.413-0.537,6.393
				l3.356,4.714c-0.922,1.762-1.661,3.591-2.231,5.486l-5.571,0.939c-2.4,0.404-4.145,2.467-4.145,4.9v7.064
				c0,2.434,1.745,4.495,4.145,4.897l5.705,0.976c0.588,1.878,1.358,3.708,2.299,5.452l-3.306,4.599
				c-1.409,1.979-1.191,4.68,0.538,6.393l5.001,5.001c0.939,0.94,2.181,1.46,3.506,1.46c1.04,0,2.031-0.32,2.87-0.923l4.713-3.356
				c1.696,0.887,3.473,1.61,5.302,2.181l0.94,5.638c0.403,2.399,2.467,4.145,4.9,4.145h7.081c2.434,0,4.497-1.745,4.898-4.145
				l0.956-5.638c1.897-0.588,3.728-1.342,5.471-2.265l4.647,3.32c0.84,0.604,1.846,0.922,2.886,0.922l0,0
				c1.326,0,2.569-0.52,3.508-1.458l4.998-5c1.713-1.71,1.948-4.413,0.538-6.393l-3.321-4.665c0.923-1.763,1.692-3.589,2.264-5.47
				l5.639-0.939c2.397-0.401,4.145-2.466,4.145-4.901v-7.063C88.158,47.624,86.414,45.561,84.012,45.158z"/>
		</g>
		<path display="inline" fill="#FFFFFF" d="M48.045,35.972c-9.412,0-17.057,7.645-17.057,17.057c0,9.411,7.645,17.058,17.057,17.058
			c9.411,0,17.056-7.646,17.056-17.058C65.101,43.617,57.457,35.972,48.045,35.972z M48.045,65.627
			c-6.952,0-12.599-5.646-12.599-12.599c0-6.95,5.647-12.598,12.599-12.598c6.951,0,12.598,5.647,12.598,12.598
			C60.644,59.981,54.998,65.627,48.045,65.627z"/>
	</g>
</g>
</svg>
