<?xml version="1.0" encoding="utf-8"?>
<!-- Generator: Adobe Illustrator 16.0.0, SVG Export Plug-In . SVG Version: 6.00 Build 0)  -->
<!DOCTYPE svg PUBLIC "-//W3C//DTD SVG 1.1//EN" "http://www.w3.org/Graphics/SVG/1.1/DTD/svg11.dtd">
<svg version="1.1" id="Layer_1" xmlns="http://www.w3.org/2000/svg" xmlns:xlink="http://www.w3.org/1999/xlink" x="0px" y="0px"
	 width="768px" height="566.818px" viewBox="128 100.591 768 566.818" enable-background="new 128 100.591 768 566.818"
	 xml:space="preserve">
<g>
	<g>
		<g>
			<path fill="#1084C3" d="M577.214,106.272c-15.599-8.352-34.434-7.439-49.155,2.375L322.267,245.846h-78.02
				c-20.009,0-36.449,15.446-38.091,35.036H195.14c-37.021,0-67.14,30.119-67.14,67.141v71.958c0,37.021,30.119,67.14,67.14,67.14
				h11.014c1.644,19.59,18.086,35.037,38.091,35.037h78.018l205.792,137.199c8.026,5.349,17.274,8.055,26.557,8.053
				c7.741,0,15.507-1.882,22.599-5.679c15.6-8.349,25.289-24.525,25.289-42.218V148.49
				C602.503,130.797,592.813,114.619,577.214,106.272z M205.991,449.127H195.14c-16.071-0.002-29.145-13.076-29.145-29.148v-71.958
				c0-16.071,13.074-29.146,29.145-29.146h10.851V449.127z M309.02,484.162h-64.773c-0.143,0-0.261-0.115-0.261-0.261V284.1
				c0-0.144,0.117-0.261,0.261-0.261h64.773V484.162z M564.509,619.515c0,5.346-3.65,7.878-5.223,8.718
				c-1.57,0.84-5.703,2.475-10.152-0.49l-202.12-134.75V275.01l202.12-134.748c4.451-2.966,8.583-1.33,10.152-0.49
				c1.57,0.84,5.223,3.372,5.223,8.718V619.515z"/>
		</g>
	</g>
	<g>
		<g>
			<path fill="#1084C3" d="M796.41,143.205c-6.678-6.679-17.502-6.679-24.18,0c-6.678,6.678-6.678,17.502,0,24.18
				c57.764,57.764,89.574,134.692,89.574,216.616c0,81.926-31.813,158.856-89.576,216.618c-6.678,6.678-6.678,17.502,0,24.179
				c3.338,3.34,7.714,5.007,12.091,5.007c4.375,0,8.752-1.67,12.09-5.007C860.632,560.575,896,475.059,896,383.998
				C896,292.941,860.632,207.424,796.41,143.205z"/>
		</g>
	</g>
	<g>
		<g>
			<path fill="#1084C3" d="M702.517,237.101c-6.678-6.68-17.502-6.68-24.18-0.002c-6.679,6.678-6.679,17.502,0,24.18
				c32.722,32.723,50.743,76.307,50.741,122.725c0,46.416-18.021,90.001-50.743,122.724c-6.678,6.678-6.678,17.502,0,24.18
				c3.338,3.341,7.713,5.007,12.09,5.007c4.376,0,8.753-1.669,12.09-5.007c39.182-39.182,60.761-91.353,60.761-146.903
				C763.275,328.453,741.698,276.281,702.517,237.101z"/>
		</g>
	</g>
</g>
</svg>
