<?xml version="1.0" encoding="utf-8"?>
<!-- Generator: Adobe Illustrator 16.0.0, SVG Export Plug-In . SVG Version: 6.00 Build 0)  -->
<!DOCTYPE svg PUBLIC "-//W3C//DTD SVG 1.1//EN" "http://www.w3.org/Graphics/SVG/1.1/DTD/svg11.dtd">
<svg version="1.1" id="Capa_1" xmlns="http://www.w3.org/2000/svg" xmlns:xlink="http://www.w3.org/1999/xlink" x="0px" y="0px"
	 width="500.398px" height="321.955px" viewBox="228.392 0 500.398 321.955" enable-background="new 228.392 0 500.398 321.955"
	 xml:space="preserve">
<g>
	<g>
		<path fill="#1084C3" d="M446.798,0H247.46c-10.526,0-19.068,8.579-19.068,19.068v283.399c0,10.526,8.579,19.069,19.068,19.069
			h199.338c10.526,0,19.069-8.579,19.069-19.069V19.069C465.867,8.579,457.324,0,446.798,0z M451.485,302.505
			c0,2.739-1.947,4.686-4.686,4.686H247.46c-2.739,0-4.686-1.946-4.686-4.686V19.069c0-2.739,1.947-4.686,4.686-4.686h199.338
			c2.739,0,4.686,1.946,4.686,4.686L451.485,302.505L451.485,302.505z M402.869,125.899H281.021c-3.062,0-5.539,2.477-5.539,5.538
			c0,3.062,2.477,5.539,5.539,5.539h121.847c3.062,0,5.539-2.477,5.539-5.539C408.408,128.375,405.93,125.899,402.869,125.899z
			 M402.869,170.207H281.021c-3.062,0-5.539,2.476-5.539,5.538c0,3.061,2.477,5.539,5.539,5.539h121.847
			c3.062,0,5.539-2.478,5.539-5.539C408.408,172.683,405.93,170.207,402.869,170.207z M402.869,214.514H281.021
			c-3.062,0-5.539,2.478-5.539,5.539s2.477,5.539,5.539,5.539h121.847c3.062,0,5.539-2.478,5.539-5.539
			S405.93,214.514,402.869,214.514z M347.483,258.822h-66.462c-3.062,0-5.539,2.478-5.539,5.539s2.477,5.539,5.539,5.539h66.462
			c3.062,0,5.538-2.478,5.538-5.539S350.545,258.822,347.483,258.822z M279.98,45.101c-3.062,0-5.539,2.477-5.539,5.538
			c0,3.062,2.478,5.539,5.539,5.539h121.847c3.062,0,5.539-2.477,5.539-5.539c0-3.061-2.478-5.538-5.539-5.538 M345.814,81.317
			h-66.462c-3.062,0-5.539,2.478-5.539,5.54s2.478,5.539,5.539,5.539h66.462c3.062,0,5.538-2.478,5.538-5.539
			S348.876,81.317,345.814,81.317z"/>
	</g>
	<g>
		<path fill="#1084C3" d="M709.722,0.419H510.384c-10.526,0-19.069,8.579-19.069,19.068v283.399
			c0,10.526,8.579,19.068,19.069,19.068h199.338c10.526,0,19.068-8.579,19.068-19.068V19.488
			C728.791,8.998,720.248,0.419,709.722,0.419z M714.408,302.923c0,2.739-1.947,4.686-4.686,4.686H510.384
			c-2.74,0-4.687-1.947-4.687-4.686V19.488c0-2.74,1.947-4.686,4.687-4.686h199.338c2.739,0,4.686,1.946,4.686,4.686
			L714.408,302.923L714.408,302.923z M665.792,126.318H543.945c-3.063,0-5.539,2.477-5.539,5.538s2.477,5.539,5.539,5.539h121.847
			c3.062,0,5.539-2.477,5.539-5.539S668.854,126.318,665.792,126.318z M665.792,170.626H543.945c-3.063,0-5.539,2.477-5.539,5.538
			c0,3.061,2.477,5.538,5.539,5.538h121.847c3.062,0,5.539-2.477,5.539-5.538C671.331,173.102,668.854,170.626,665.792,170.626z
			 M665.792,214.933H543.945c-3.063,0-5.539,2.478-5.539,5.539c0,3.061,2.477,5.538,5.539,5.538h121.847
			c3.062,0,5.539-2.477,5.539-5.538C671.331,217.41,668.854,214.933,665.792,214.933z M610.406,259.24h-66.461
			c-3.063,0-5.539,2.478-5.539,5.539s2.477,5.54,5.539,5.54h66.461c3.062,0,5.539-2.478,5.539-5.54S613.468,259.24,610.406,259.24z
			 M542.904,45.52c-3.062,0-5.539,2.477-5.539,5.538s2.478,5.539,5.539,5.539h121.847c3.062,0,5.539-2.478,5.539-5.539
			s-2.478-5.538-5.539-5.538 M608.738,81.736h-66.463c-3.061,0-5.539,2.478-5.539,5.539s2.479,5.539,5.539,5.539h66.463
			c3.061,0,5.538-2.478,5.538-5.539S611.799,81.736,608.738,81.736z"/>
	</g>
</g>
</svg>
