<?xml version="1.0" encoding="utf-8"?>
<!-- Generator: Adobe Illustrator 21.0.0, SVG Export Plug-In . SVG Version: 6.00 Build 0)  -->
<svg version="1.1" id="Layer_1" xmlns="http://www.w3.org/2000/svg" xmlns:xlink="http://www.w3.org/1999/xlink" x="0px" y="0px"
	 viewBox="0 0 59 59" style="enable-background:new 0 0 59 59;" xml:space="preserve">
<style type="text/css">
	.st0{fill:#0199DE;}
</style>
<g>
	<path class="st0" d="M33.6,14.4l-0.2,2.4c-0.3-0.2-1-0.6-2-1.3c-2.1,2.4-3.7,3.6-5,3.6c-0.3,0-0.8-0.1-1.4-0.3
		c1.7-0.9,3.4-2.2,5.3-3.9c-1-0.7-1.5-1.5-1.5-2.3c0-0.8,0.3-1.7,0.9-2.7c0.6-1,1.3-1.5,2-1.5c1.1,0,1.7,0.7,1.7,2.2
		c0,0.8-0.3,1.8-0.8,3C32.8,13.8,33.1,14,33.6,14.4z M32.3,12.2c0-1-0.5-1.5-1.4-1.5c-0.3,0-0.5,0.2-0.5,0.5c0,0.5,0.6,1.1,1.7,1.9
		C32.3,12.7,32.3,12.4,32.3,12.2z"/>
	<path class="st0" d="M39,40c0,3.2-1,5.8-3.1,7.7c-2.1,1.9-4.7,2.8-7.9,2.8c-5.3,0-7.9-2.6-7.9-7.8c0-1.7,0.7-4.2,2.1-7.6l0.5,0.3
		c-0.8,3.1-1.3,5.1-1.3,5.9c0,3.5,2.3,5.3,6.8,5.3c2.1,0,4.1-0.4,5.9-1.2c2.5-1,3.7-2.4,3.7-4.2c0-2.9-1.2-6.2-3.6-9.9
		c0.3-0.7,0.7-1.9,1.2-3.4C37.8,31.5,39,35.5,39,40z M30.5,25l-1.8,3l-2.8-2l1.8-3L30.5,25z"/>
</g>
</svg>
