<?xml version="1.0" encoding="utf-8"?>
<!-- Generator: Adobe Illustrator 21.0.0, SVG Export Plug-In . SVG Version: 6.00 Build 0)  -->
<svg version="1.1" id="Layer_1" xmlns="http://www.w3.org/2000/svg" xmlns:xlink="http://www.w3.org/1999/xlink" x="0px" y="0px"
	 viewBox="0 0 174 184" style="enable-background:new 0 0 174 184;" xml:space="preserve">
<style type="text/css">
	.st0{display:none;}
	.st1{display:inline;fill:#985D35;}
	.st2{fill:#985D35;}
</style>
<g class="st0">
	<g>
		<path class="st1" d="M60.8,73.1l-0.2,2.4c-0.3-0.2-1-0.6-1.9-1.2c-2,2.3-3.6,3.4-4.8,3.4c-0.3,0-0.7-0.1-1.4-0.3
			c1.6-0.8,3.3-2.1,5.1-3.7c-1-0.7-1.5-1.4-1.5-2.2s0.3-1.7,0.9-2.6c0.6-0.9,1.2-1.4,2-1.4c1.1,0,1.6,0.7,1.6,2.1
			c0,0.8-0.3,1.7-0.8,2.8C60,72.5,60.4,72.7,60.8,73.1z M59.6,71c0-1-0.4-1.5-1.3-1.5c-0.3,0-0.4,0.2-0.4,0.5c0,0.5,0.5,1.1,1.6,1.8
			C59.5,71.5,59.6,71.2,59.6,71z"/>
		<path class="st1" d="M63.3,93.9c0,0.7-0.2,1.7-0.7,2.8c-0.4,0-0.9,0-1.5-0.1c-0.7-0.1-1.2-0.1-1.5-0.1c-1.8,0-3.4,0.3-4.9,0.9
			c-2,0.8-3,1.9-3,3.4s0.3,3.5,0.9,6c0.5,2,1,4.1,1.5,6.1c0.2,0.7,0.4,1.4,0.6,2.2c0.3,0.9,0.4,1.7,0.4,2.2s-0.3,1.2-0.9,2
			c-0.2-1.2-0.9-4.1-2.1-8.8c-1-4-1.5-6.7-1.5-8.2c0-1.3,0.2-2.8,0.6-4.4c0.5-1.8,1.3-3.1,2.5-3.8c0.5-0.3,2-0.7,4.5-1.3
			c-0.2-0.2-0.5-0.4-1-0.7c-0.5-0.3-0.9-0.4-1.2-0.4c-0.9,0-1.7,0.4-2.4,1.2l-0.8-0.1c0.6-1.7,1.1-2.8,1.5-3.4
			c0.8-1.1,1.8-1.7,3.1-1.7c1.2,0,2.6,0.7,4,2.2C62.6,91.3,63.3,92.6,63.3,93.9z"/>
		<path class="st1" d="M77.8,101.2h-3.7c-3,0-4.6-1.7-5-5c-0.5-4.3-1.1-10.6-1.8-18.9c0.7-0.9,1.3-1.6,1.8-2.3l1.7,19.3
			c0.1,1.5,0.6,2.5,1.3,3.1c0.5,0.4,1.5,0.6,2.7,0.6c0.3,0,0.8,0,1.4,0c0.7,0,1.2,0,1.5,0L77.8,101.2L77.8,101.2z"/>
		<path class="st1" d="M79.5,76.3c-0.3-0.3-0.6-0.8-1.1-1.4c0.5-1.3,1.2-2.3,2.2-3.1c0.1,0.9,0.5,1.7,1.2,2.3c0.7,0.7,1.4,1,2.3,1.1
			l-1.7,3.1l-0.8-0.4h-0.2c0.8,4.5,1.2,8.2,1.2,11.1c0,1.8-0.2,3.9-0.6,6.5c4.6-5.1,8.4-7.6,11.6-7.6c1.1,0,2,0.4,2.7,1.3s1,1.9,1,3
			c0,2.6-1.9,4.6-5.6,5.9h10.1v3.2H75.9V98h2.8c0.4,0,0.8,0,1.2-0.1c1-1.5,1.5-4,1.5-7.6c0-2.3-0.5-6-1.5-11
			C79.9,78.6,79.7,77.6,79.5,76.3z M95.4,93.7c0-0.5-0.5-1-1.5-1.4c-0.8-0.4-1.6-0.5-2.2-0.5c-2,0-3.9,0.6-5.8,1.9
			c-1.7,1.1-3.1,2.6-4.3,4.4h1c2.5,0,5.3-0.5,8.2-1.6C93.8,95.3,95.4,94.4,95.4,93.7z M91.8,80.1l-1.7,3.2l-2.9-2l1.8-3.1L91.8,80.1
			z"/>
		<path class="st1" d="M109.4,70.1c0,2.7-0.8,4-2.5,4c-0.5,0-1-0.2-1.5-0.5c-0.1,0.5-0.4,1-0.9,1.4s-1,0.6-1.6,0.6
			c-1.3,0-2-0.9-2-2.7c0-0.4,0.2-1.2,0.6-2.3l0.5-0.1c0,1.8,0.3,2.6,0.9,2.6c1,0,1.7-1.3,2.2-3.9l0.5-0.1c0.3,1.6,0.8,2.4,1.3,2.4
			c1.1,0,1.6-1.2,1.6-3.5l0.5-0.3C109.3,68.5,109.4,69.3,109.4,70.1z"/>
		<path class="st1" d="M109.2,74.6c0,1.1-0.3,1.8-0.9,2.1l-7.2,4.1c0-1,0.5-1.8,1.6-2.4L109.2,74.6z"/>
		<path class="st1" d="M112.1,101.2h-3.7c-0.5,0-1-0.4-1.5-1.1s-0.7-1.4-0.7-1.9c-1.1,2-2.5,3-4.1,3h-1.9V98c2.1,0,3.5-0.2,4-0.5
			c0.7-0.4,1.2-0.8,1.3-1.3c0.1-0.3,0.2-0.9,0.2-2h0.4c0.4,1.7,1.1,2.7,2.1,3.2c0.7,0.3,2,0.5,3.9,0.5
			C112.1,97.9,112.1,101.2,112.1,101.2z M107.9,86.9l-1.7,2.7l-2.6-1.8l1.6-2.8L107.9,86.9z"/>
		<path class="st1" d="M114.4,76.4c-0.3-0.3-0.7-0.8-1.1-1.5c0.4-1.2,1.2-2.2,2.1-3.1c0.1,0.9,0.5,1.7,1.2,2.4
			c0.7,0.6,1.4,1,2.4,1.2l-1.8,3l-0.9-0.5c-0.2,1.6-0.2,2.6-0.2,2.8c0,1.3,0.3,3.2,0.8,5.7s0.8,4.4,0.8,5.6c0,6.1-1.9,9.2-5.6,9.2
			h-1.9V98c1.8,0,3.1-0.1,3.9-0.3c1.6-0.5,2.4-1.4,2.4-2.7c0-0.5-0.2-2.2-0.7-5c-0.3-1.9-0.6-3.8-0.9-5.6c-0.4-2.3-0.6-4.2-0.6-5.6
			c0-0.2,0-0.5,0.1-1s0.1-0.8,0-1.1C114.4,76.7,114.4,76.4,114.4,76.4z"/>
		<path class="st1" d="M125.3,94.6c0,1.6-0.4,3.8-1.3,6.6l-0.6-0.1c0.2-1,0.2-1.9,0.2-2.9c0-2-0.2-4.4-0.6-7.5
			c-0.3-2.5-0.6-4.9-1-7.3c-0.2-1.5-0.3-2.4-0.3-2.6c0-1.4,0.1-2.4,0.4-3.1c0.4-0.9,0.9-1.7,1.4-2.6c0,2.5,0.5,7.7,1.4,15.5
			C125.2,92,125.3,93.4,125.3,94.6z"/>
	</g>
	<g>
		<path class="st1" d="M52.8,77.4l-0.2,2.4c-0.3-0.2-1-0.6-1.9-1.2c-2,2.3-3.6,3.4-4.8,3.4c-0.3,0-0.7-0.1-1.4-0.3
			c1.6-0.8,3.3-2.1,5.1-3.7c-1-0.7-1.5-1.4-1.5-2.2s0.3-1.7,0.9-2.6c0.6-0.9,1.2-1.4,2-1.4c1.1,0,1.6,0.7,1.6,2.1
			c0,0.8-0.3,1.7-0.8,2.8C52,76.8,52.3,77,52.8,77.4z M51.6,75.3c0-1-0.4-1.5-1.3-1.5c-0.3,0-0.4,0.2-0.4,0.5c0,0.5,0.5,1.1,1.6,1.8
			C51.5,75.8,51.6,75.5,51.6,75.3z"/>
		<path class="st1" d="M58.1,112.5h-3.7c-1.5,0-2.7-1.9-3.4-5.8c-1.5,1.6-2.8,2.4-4,2.4c-0.8,0-1.6-0.1-2.4-0.3
			c-1.2-0.3-1.8-0.8-1.8-1.3c0-0.3,0.4-1.3,1.2-3c0.8-1.7,2.7-3.4,5.8-4.9c-0.1-0.6-0.1-1.6-0.2-2.8l1.3-1.4l1.6,9.8
			c0.4,2.2,0.8,3.5,1.3,3.8c0.3,0.2,1.7,0.3,4.3,0.3C58.1,109.3,58.1,112.5,58.1,112.5z M52.2,91.4l-1.8,2.7l-2.9-1.8l-1.6,2.4
			l-2.8-2l1.7-2.8l2.9,1.9l1.7-2.4L52.2,91.4z M50.8,105l-0.6-3.7c-2.1,0.7-3.7,2-4.8,4c0.3,0.3,1.1,0.5,2.4,0.5
			C49.1,105.8,50,105.5,50.8,105z"/>
		<path class="st1" d="M75.1,90c0,2.7-0.8,4-2.5,4c-0.5,0-1-0.2-1.5-0.5c-0.1,0.5-0.4,1-0.9,1.4s-1,0.6-1.6,0.6c-1.3,0-2-0.9-2-2.7
			c0-0.4,0.2-1.2,0.6-2.3l0.5-0.1c0,1.8,0.3,2.6,0.9,2.6c1,0,1.7-1.3,2.2-3.9l0.5-0.1c0.3,1.6,0.8,2.4,1.3,2.4
			c1.1,0,1.6-1.2,1.6-3.5l0.5-0.3C75,88.5,75.1,89.2,75.1,90z"/>
		<path class="st1" d="M73.7,84.1c0,1.1-0.3,1.7-0.8,2.1l-7.3,4.1c0-1,0.5-1.8,1.6-2.4L73.7,84.1z"/>
		<path class="st1" d="M87.4,112.5h-4.3c-2.3,0-3.9-0.1-4.8-0.2c-2.1-0.4-3.2-1.3-3.2-2.6c0-0.9,0.2-1.8,0.6-2.7h-1.1
			c-2.3,0-4.6,0.5-6.9,1.4c-0.6,0.3-2.4,1.2-5.3,2.7c-1.8,1-3.3,1.4-4.3,1.4h-1.9v-3.2c2.5,0,4.3-0.2,5.4-0.5
			c1.7-0.7,4.4-1.7,8.2-2.8c-1.3-0.5-2.6-1-3.9-1.5c-1.8-0.6-3.1-1-3.9-1c-0.5,0-0.8,0.2-0.9,0.6h-2.8c0.3-1.2,0.8-2.2,1.7-3
			s1.9-1.2,3.1-1.2c0.7,0,2,0.4,3.7,1.1c1.3,0.5,2.6,1.1,3.8,1.6c3,1.1,6.8,1.6,11.1,1.6l-0.7,2.7c-3.2,0.1-4.6,0.1-4.2,0.1
			c0.1,0.9,0.6,1.5,1.5,1.8c0.9,0.3,3.9,0.5,9,0.5L87.4,112.5L87.4,112.5z"/>
		<path class="st1" d="M106,83.5c0,2.7-0.8,4-2.5,4c-0.5,0-1-0.2-1.5-0.5c-0.1,0.5-0.4,1-0.9,1.4s-1,0.6-1.6,0.6c-1.3,0-2-0.9-2-2.7
			c0-0.4,0.2-1.2,0.6-2.3l0.5-0.1c0,1.8,0.3,2.6,0.9,2.6c1,0,1.7-1.3,2.2-3.9l0.5-0.1c0.3,1.6,0.8,2.4,1.3,2.4
			c1.1,0,1.6-1.2,1.6-3.5l0.5-0.3C105.9,81.9,106,82.7,106,83.5z"/>
		<path class="st1" d="M105.8,89.1c0,1.1-0.3,1.8-0.9,2.1l-7.2,4.1c0-1,0.5-1.8,1.6-2.4L105.8,89.1z"/>
		<path class="st1" d="M95.2,112.5c-1.9,0-3.2-1-3.7-3c-1.6,2-2.9,3-4.1,3h-1.9v-3.2c2.1,0,3.6-0.2,4.3-0.6c0.7-0.4,1.2-0.8,1.3-1.2
			c0.1-0.3,0.2-1,0.2-2h0.4c0.2,1,0.7,1.9,1.3,2.8c0.4,0.6,1.5,0.9,3.1,1h-0.2c0,0,0,0,0.1,0s0.1,0,0.1,0v3.2
			C96.1,112.5,95.2,112.5,95.2,112.5z"/>
		<path class="st1" d="M95.2,109.3h2.9c1.8-2.3,3.8-4.4,6-6.3c3-2.6,5.5-3.8,7.4-3.8c1.1,0,2,0.4,2.7,1.2c0.7,0.8,1.2,1.8,1.2,2.9
			c0,1.6-0.6,2.9-1.7,3.9c-0.8,0.7-2.1,1.4-3.9,2c4.1,0,7.4,0,10.1,0v3.2H97.6c-0.3,0.5-0.8,1.4-1.7,2.6l-0.4-0.4
			c0.4-0.9,0.7-1.6,1.1-2.3h-1.3L95.2,109.3L95.2,109.3z M113.3,105.2c0-1.2-1.1-1.9-3.3-1.9c-2.2,0-4.2,0.6-6,1.7
			c-1.1,0.7-2.6,2.2-4.6,4.3c4.7,0,8.8-1,12.4-2.9C112.9,105.9,113.3,105.5,113.3,105.2z"/>
		<path class="st1" d="M122.3,87.7c-0.3-0.3-0.7-0.8-1.1-1.5c0.4-1.2,1.2-2.2,2.1-3.1c0.1,0.9,0.5,1.7,1.2,2.4
			c0.7,0.6,1.4,1,2.4,1.2l-1.7,3.1l-0.9-0.5c-0.2,1.6-0.2,2.6-0.2,2.8c0,1.3,0.3,3.2,0.8,5.7s0.8,4.4,0.8,5.6c0,6.1-1.9,9.2-5.6,9.2
			h-1.9v-3.3c1.8,0,3.1-0.1,3.9-0.3c1.6-0.5,2.4-1.4,2.4-2.7c0-0.5-0.2-2.2-0.7-5c-0.3-1.9-0.6-3.8-0.9-5.6
			c-0.4-2.3-0.6-4.2-0.6-5.6c0-0.2,0-0.5,0.1-1s0.1-0.8,0-1.1v-0.3C122.4,87.7,122.3,87.7,122.3,87.7z"/>
		<path class="st1" d="M133.2,105.9c0,1.6-0.4,3.8-1.3,6.6l-0.6-0.1c0.2-1,0.2-1.9,0.2-2.9c0-2-0.2-4.4-0.6-7.5
			c-0.3-2.5-0.6-4.9-1-7.3c-0.2-1.5-0.3-2.4-0.3-2.6c0-1.4,0.1-2.4,0.4-3.1c0.4-0.9,0.9-1.7,1.4-2.6c0,2.5,0.5,7.7,1.4,15.5
			C133.1,103.3,133.2,104.7,133.2,105.9z"/>
	</g>
	<g>
		<path class="st1" d="M73.4,90c0,2.7-0.8,4-2.5,4c-0.5,0-1-0.2-1.5-0.5c-0.1,0.5-0.4,1-0.9,1.4s-1,0.6-1.6,0.6c-1.3,0-2-0.9-2-2.7
			c0-0.4,0.2-1.2,0.6-2.3l0.5-0.1c0,1.8,0.3,2.6,0.9,2.6c1,0,1.7-1.3,2.2-3.9l0.5-0.1c0.3,1.6,0.8,2.4,1.3,2.4
			c1.1,0,1.6-1.2,1.6-3.5l0.5-0.3C73.3,88.5,73.4,89.2,73.4,90z"/>
		<path class="st1" d="M69.1,84.2l-0.2,2.4c-0.3-0.2-1-0.6-1.9-1.2c-2,2.3-3.6,3.4-4.8,3.4c-0.3,0-0.7-0.1-1.4-0.3
			c1.6-0.8,3.3-2.1,5.1-3.7c-1-0.7-1.5-1.4-1.5-2.2c0-0.8,0.3-1.7,0.9-2.6c0.6-0.9,1.2-1.4,2-1.4c1.1,0,1.6,0.7,1.6,2.1
			c0,0.8-0.3,1.7-0.8,2.8C68.4,83.6,68.7,83.8,69.1,84.2z M67.9,82.1c0-1-0.4-1.5-1.3-1.5c-0.3,0-0.4,0.2-0.4,0.5
			c0,0.5,0.5,1.1,1.6,1.8C67.9,82.6,67.9,82.3,67.9,82.1z"/>
		<path class="st1" d="M90.1,109.2h-3.7c-1,0-1.7-0.2-2.1-0.5c-0.4-0.4-0.7-1-1-2.1c-3.5,3.1-9.3,4.6-17.5,4.6
			c-9,0-13.4-2.4-13.4-7.3c0-1.3,0.6-3.4,1.9-6.3l0.6,0.3c-0.6,2-0.9,3.2-0.9,3.6c0,4.1,4.4,6.1,13.1,6.1c6.8,0,12-1,15.6-2.9
			c0.2-0.5,0.4-0.9,0.4-1.4c0.6,1.8,2.1,2.7,4.5,2.7c0.3,0,0.7,0,1.2,0s1,0,1.2,0L90.1,109.2L90.1,109.2z M71.8,117.2l-1.9,2.8
			l-2.6-1.9l1.8-2.7L71.8,117.2z"/>
		<path class="st1" d="M107.2,110.5c0,1.1-0.3,1.8-0.9,2.1l-7.2,4.1c0-1,0.5-1.8,1.6-2.4L107.2,110.5z"/>
		<path class="st1" d="M113.2,101.1l-1,2.9h-1.1c-0.6,0-1.5,0-2.7-0.1c-1.1-0.2-2-0.2-2.6-0.2c-2,0-4,0.5-6.2,1.4
			c-1.6,0.9-3.3,1.8-4.9,2.7c-1.8,0.9-3.3,1.4-4.5,1.4h-1.9V106c2,0,3.7-0.1,4.9-0.4c1-0.2,2.5-0.8,4.6-1.6c1.3-0.5,2.4-0.9,3.4-1.1
			c-0.6-0.1-1.9-0.6-3.7-1.4c-1.5-0.7-2.8-1-3.8-1c-0.3,0-0.5,0.2-0.7,0.7h-2.8c1-2.9,2.6-4.3,4.9-4.3c1.2,0,3.1,0.7,5.9,2.2
			S107.8,101.1,113.2,101.1z"/>
		<path class="st1" d="M119.7,72.3l-0.1,2.4c-0.3-0.2-1-0.6-1.9-1.2c-2,2.3-3.6,3.4-4.8,3.4c-0.3,0-0.7-0.1-1.4-0.3
			c1.6-0.8,3.3-2.1,5.1-3.7c-1-0.7-1.5-1.4-1.5-2.2c0-0.8,0.3-1.7,0.9-2.6c0.6-0.9,1.2-1.4,2-1.4c1.1,0,1.6,0.7,1.6,2.1
			c0,0.8-0.3,1.7-0.8,2.8C119,71.7,119.3,72,119.7,72.3z M118.5,70.2c0-1-0.4-1.5-1.3-1.5c-0.2,0-0.4,0.2-0.4,0.5
			c0,0.5,0.5,1.1,1.6,1.8C118.5,70.7,118.5,70.4,118.5,70.2z"/>
		<path class="st1" d="M123.6,79.5c-0.2,0.9-0.5,1.4-0.8,1.5l-6.5,1.9c0.1-0.6,0.4-1.1,0.8-1.4c0.2-0.1,0.8-0.4,1.6-0.7
			c-1-0.4-1.5-1.1-1.6-1.9c0-0.3,0.1-0.6,0.4-1c0.6-0.8,1.2-1.5,2-2c0.7-0.5,1.4-0.8,1.9-0.8c0.8,0,1.2,0.4,1.2,1.3
			c0,0.5-0.2,1-0.7,1.6c-0.8-0.5-1.4-0.8-1.9-0.8c-0.4,0-1,0.3-1.6,0.8c1.3,1.2,2.4,1.8,3.4,1.8C122.2,79.8,122.8,79.7,123.6,79.5z"
			/>
		<path class="st1" d="M121.5,102.6c0,1.6-0.4,3.8-1.3,6.6l-0.6-0.1c0.2-1,0.2-1.9,0.2-2.9c0-2-0.2-4.4-0.6-7.5
			c-0.3-2.5-0.6-4.9-1-7.3c-0.2-1.5-0.3-2.4-0.3-2.6c0-1.4,0.1-2.4,0.4-3.1c0.4-0.9,0.9-1.7,1.4-2.6c0,2.5,0.5,7.7,1.4,15.5
			C121.4,100,121.5,101.4,121.5,102.6z"/>
	</g>
	<g>
		<path class="st1" d="M49.4,75.7l-0.2,2.4c-0.3-0.2-1-0.6-1.9-1.2c-2,2.3-3.6,3.4-4.8,3.4c-0.3,0-0.7-0.1-1.4-0.3
			c1.6-0.8,3.3-2.1,5.1-3.7c-1-0.7-1.5-1.4-1.5-2.2c0-0.8,0.3-1.7,0.9-2.6c0.6-0.9,1.2-1.4,2-1.4c1.1,0,1.6,0.7,1.6,2.1
			c0,0.8-0.3,1.7-0.8,2.8C48.7,75.1,49,75.3,49.4,75.7z M48.2,73.5c0-1-0.4-1.5-1.3-1.5c-0.3,0-0.4,0.2-0.4,0.5
			c0,0.5,0.5,1.1,1.6,1.8C48.1,74,48.2,73.8,48.2,73.5z"/>
		<path class="st1" d="M57.7,109.1H54c-2.1,0-3.6-2-4.6-5.9c-0.9,2-2.1,3.4-3.5,4.2c-1.3,0.7-3.1,1.1-5.3,1.1c-2.7,0-4-0.8-4-2.4
			c0-0.4,0.4-1.6,1.1-3.5h0.6v0.3c0,0.9,0.3,1.6,1,1.9c0.5,0.2,1.2,0.3,2.3,0.3c2.3,0,3.9-0.2,4.9-0.6c1.7-0.6,2.5-1.9,2.5-3.8
			c0-1.2-0.3-2.9-0.8-5.2c-0.6-2.2-0.9-3.8-0.9-5l1.6-2.2l2,12c0.6,3.7,1.9,5.6,3.7,5.6h3L57.7,109.1L57.7,109.1z"/>
		<path class="st1" d="M64.5,113.2l-1.8,2.8l-2.8-1.8l-1.6,2.4l-2.8-1.7l1.6-2.9l3,1.8l1.4-2.4L64.5,113.2z M62.9,102
			c0,4.8-1.7,7.2-5.2,7.2h-1.9V106c3.9,0,5.9-0.7,5.9-2c0-0.3-0.3-1-0.9-2.1c-0.6-1.1-0.9-1.7-0.9-2c0-0.1,0.6-1.2,1.8-3.1
			C62.5,98.5,62.9,100.3,62.9,102z"/>
		<path class="st1" d="M87.9,109.1h-3.7c-2.1,0-3.6-2-4.6-5.9c-0.9,2-2.1,3.4-3.5,4.2c-1.3,0.7-3.1,1.1-5.3,1.1c-2.7,0-4-0.8-4-2.4
			c0-0.4,0.4-1.6,1.1-3.5h0.6v0.3c0,0.9,0.3,1.6,1,1.9c0.5,0.2,1.2,0.3,2.3,0.3c2.3,0,3.9-0.2,4.9-0.6c1.7-0.6,2.5-1.9,2.5-3.8
			c0-1.2-0.3-2.9-0.8-5.2c-0.5-2.3-0.8-3.9-0.8-5.1l1.6-2.2l2,12c0.6,3.7,1.9,5.6,3.7,5.6h3V109.1z"/>
		<path class="st1" d="M104.8,80.1c0,1.1-0.3,1.7-0.8,2.1l-7.3,4.1c0-1,0.5-1.8,1.6-2.4L104.8,80.1z"/>
		<path class="st1" d="M117.2,109.1h-4.3c-2.3,0-3.9-0.1-4.8-0.2c-2.1-0.4-3.2-1.3-3.2-2.6c0-0.9,0.2-1.8,0.6-2.7h-1.1
			c-2.3,0-4.6,0.5-6.9,1.4c-0.6,0.3-2.4,1.2-5.3,2.7c-1.8,1-3.3,1.4-4.3,1.4H86v-3.2c2.5,0,4.3-0.2,5.4-0.5c1.7-0.7,4.4-1.7,8.2-2.8
			c-1.3-0.5-2.6-1-3.9-1.5c-1.8-0.6-3.1-1-3.9-1c-0.5,0-0.8,0.2-0.9,0.6h-2.8c0.3-1.2,0.8-2.2,1.7-3c0.9-0.8,1.9-1.2,3.1-1.2
			c0.7,0,2,0.4,3.7,1.1c1.3,0.5,2.6,1.1,3.8,1.6c3,1.1,6.8,1.6,11.1,1.6l-0.7,2.7c-3.2,0.1-4.6,0.1-4.2,0.1c0.1,0.9,0.6,1.5,1.5,1.8
			s3.9,0.5,9,0.5v3.2H117.2z M102.9,111.6l-1.6,2.9l-2.7-1.7l1.6-3L102.9,111.6z"/>
		<path class="st1" d="M115.3,105.9H126v3.2h-10.7V105.9z"/>
		<path class="st1" d="M128.5,84.3c-0.3-0.3-0.7-0.8-1.1-1.5c0.4-1.2,1.2-2.2,2.1-3.1c0.1,0.9,0.5,1.7,1.2,2.4
			c0.7,0.6,1.4,1,2.4,1.2l-1.8,3l-0.9-0.5c-0.2,1.6-0.2,2.6-0.2,2.8c0,1.3,0.3,3.2,0.8,5.7s0.8,4.4,0.8,5.6c0,6.1-1.9,9.2-5.6,9.2
			h-1.9v-3.2c1.8,0,3.1-0.1,3.9-0.3c1.6-0.5,2.4-1.4,2.4-2.7c0-0.5-0.2-2.2-0.7-5c-0.3-1.9-0.6-3.8-0.9-5.6
			c-0.4-2.3-0.6-4.2-0.6-5.6c0-0.2,0-0.5,0.1-1c0.1-0.5,0.1-0.8,0-1.1V84.3L128.5,84.3z"/>
		<path class="st1" d="M139.3,102.5c0,1.6-0.4,3.8-1.3,6.6l-0.6-0.1c0.2-1,0.2-1.9,0.2-2.9c0-2-0.2-4.4-0.6-7.5
			c-0.3-2.5-0.6-4.9-1-7.3c-0.2-1.5-0.3-2.4-0.3-2.6c0-1.4,0.1-2.4,0.4-3.1c0.4-0.9,0.9-1.7,1.4-2.6c0,2.5,0.5,7.7,1.4,15.5
			C139.3,99.9,139.3,101.3,139.3,102.5z"/>
	</g>
</g>
<g>
	<path class="st2" d="M58.5,106.6c-2.8,0-4.5,0-5,0.1c-2.6,0.3-3.9,1.1-3.9,2.4c0,0.5,0.6,0.9,1.9,1.2c1.8,0.4,3,0.6,3.5,0.9
		c1.2,0.6,1.8,1.6,1.8,3c0,2.4-2,4.3-6,5.8c-3.1,1.2-6.1,1.7-9,1.7c-2.7,0-4.8-0.6-6.4-1.9c-1.8-1.4-2.6-3.4-2.6-6s0.9-5.6,2.8-9
		l0.5,0.4c-1.3,2.8-1.9,4.9-1.9,6.5c0,2.1,0.8,3.8,2.5,4.9c1.4,1,3.3,1.4,5.6,1.4c1.7,0,4.2-0.4,7.4-1.1c3.8-0.9,5.8-1.8,5.8-2.8
		c0-0.7-0.7-1.2-2.1-1.3c-1.4-0.1-2.8-0.3-4.1-0.4c-1.4-0.3-2.2-0.8-2.2-1.7c0-1.9,0.9-3.6,2.6-5.1c1.7-1.5,3.5-2.3,5.4-2.3h3.4
		C58.5,103.3,58.5,106.6,58.5,106.6z"/>
	<path class="st2" d="M66.4,106.6c-1.9,0-3.2-1-3.7-3c-1.6,2-2.9,3-4.1,3h-1.9v-3.2c2.1,0,3.6-0.2,4.3-0.6c0.7-0.4,1.2-0.8,1.3-1.2
		c0.1-0.3,0.2-1,0.2-2h0.4c0.2,1,0.7,1.9,1.3,2.8c0.4,0.6,1.5,0.9,3.1,1h-0.2c0,0,0,0,0.1,0s0.1,0,0.1,0v3.2
		C67.3,106.6,66.4,106.6,66.4,106.6z"/>
	<path class="st2" d="M66.4,103.3h4c2.7-3.5,5.1-5.9,7.3-7.3c2.7-1.8,4.8-2.7,6.4-2.7c1,0,1.9,0.5,2.5,1.4c0.5,0.8,0.8,1.8,0.8,2.9
		c0,3.4-2.3,5.9-6.9,7.4c-3.1,1-6.8,1.5-11.2,1.5c-0.2,0.4-0.5,1-1,1.6c-0.6,0.8-0.9,1.3-1.1,1.5l-0.7-0.4l1.6-2.6h-1.9v-3.3H66.4z
		 M85.4,99.3c0-1.2-0.9-1.7-2.6-1.7c-2.4,0-4.5,0.5-6.3,1.5c-1.3,0.8-2.9,2.2-4.9,4.3h1.9c2.5,0,5.1-0.5,7.8-1.5
		C84,100.8,85.4,100,85.4,99.3z M76.4,87l-1.8,3.1l-2.8-2l1.8-3.1L76.4,87z"/>
	<path class="st2" d="M106.2,88.6c0,1-0.4,1.9-1.1,2.7c-0.7,0.8-1.6,1.2-2.5,1.2c-1.7,0-2.6-1-2.6-2.9c0-1.2,0.2-2.2,0.7-3
		c0.6-1.1,1.5-1.6,2.6-1.6c0.8,0,1.5,0.4,2,1.2C105.9,87,106.2,87.8,106.2,88.6z M104.8,89.2c0-0.4-0.3-0.8-1-1.3s-1.2-0.7-1.6-0.7
		c-1,0-1.4,0.5-1.4,1.6c0,1,0.8,1.4,2.4,1.4C104.3,90.2,104.8,89.8,104.8,89.2z"/>
	<path class="st2" d="M111.4,106.6h-4.1c-0.2,1-0.6,2.5-1.2,4.5c-0.8,2.1-1.9,4-3.4,5.5c-1.8,1.8-3.6,2.7-5.6,2.7
		c-1.5,0-3.6-0.7-6.2-2.2l0.4-0.5c1.3,0.5,2.4,0.7,3.2,0.7c2.8,0,5.4-1.1,7.7-3.3c2.1-2.1,3.5-4.6,4.1-7.4c-4.1,0-6.1-0.9-6.1-2.8
		c0-0.9,0.5-2.2,1.4-3.9c1-1.9,1.9-2.8,2.7-2.8c1,0,1.8,0.8,2.4,2.5c0.5,1.3,0.7,2.6,0.7,3.8h3.9L111.4,106.6L111.4,106.6z
		 M106,103.3c-0.6-2-1.5-2.9-2.6-2.9c-0.3,0-0.6,0.1-0.9,0.4s-0.4,0.5-0.4,0.9C102.2,102.7,103.5,103.2,106,103.3z"/>
	<path class="st2" d="M122,68.9c0,1.1-0.3,1.7-0.8,2.1l-7.3,4.1c0-1,0.5-1.8,1.6-2.4L122,68.9z"/>
	<path class="st2" d="M127.9,106.6h-3.6c-2.2,0-4.4-0.7-6.4-2.1c-0.7,0.5-1.7,1-2.9,1.4c-1.2,0.4-2.3,0.6-3.2,0.6h-1.9v-3.2
		c2.9,0,4.7-0.3,5.4-0.8c0-0.1-0.1-0.3-0.3-0.7c-0.2-0.4-0.2-0.6-0.2-0.7c0-1.4,0.7-3.3,2.2-5.5c1.5-2.4,2.9-3.6,4.2-3.6
		c0.9,0,1.6,0.7,2.2,2.1c0.4,1.1,0.6,2.2,0.6,3.2c0,1.3-0.7,2.9-2.2,5c0.9,0.5,1.9,0.8,3,0.9c-0.2,0,0.9,0,3.2,0L127.9,106.6
		L127.9,106.6z M122.1,98.5c0-0.6-0.2-1.2-0.6-1.7s-0.9-0.7-1.5-0.7s-1.3,0.2-2.2,0.7s-1.2,1-1.2,1.6c0,1,0.7,1.8,2.2,2.6
		c0.6-0.4,1.3-0.7,1.9-1.1C121.6,99.3,122.1,98.8,122.1,98.5z M123,84.4l-2,2.9l-2.6-2.1l1.9-3L123,84.4z"/>
	<path class="st2" d="M133.7,65.9c0,1-0.4,1.9-1.1,2.7c-0.7,0.8-1.6,1.2-2.5,1.2c-1.7,0-2.6-1-2.6-2.9c0-1.2,0.2-2.2,0.7-3
		c0.7-1.1,1.5-1.6,2.6-1.6c0.8,0,1.5,0.4,2,1.2C133.4,64.3,133.7,65.2,133.7,65.9z M132.4,66.6c0-0.4-0.3-0.8-1-1.3
		s-1.2-0.7-1.6-0.7c-1,0-1.4,0.5-1.4,1.6c0,1,0.8,1.4,2.4,1.4C131.8,67.6,132.4,67.2,132.4,66.6z"/>
	<path class="st2" d="M130.3,81.8c-0.3-0.3-0.7-0.8-1.1-1.5c0.4-1.2,1.2-2.2,2.1-3.1c0.1,0.9,0.5,1.7,1.2,2.4c0.7,0.6,1.4,1,2.4,1.2
		l-1.7,3.1l-0.9-0.5c-0.2,1.6-0.2,2.6-0.2,2.8c0,1.3,0.3,3.2,0.8,5.7s0.8,4.4,0.8,5.6c0,6.1-1.9,9.2-5.6,9.2h-1.9v-3.2
		c1.8,0,3.1-0.1,3.9-0.3c1.6-0.5,2.4-1.4,2.4-2.7c0-0.5-0.2-2.2-0.7-5c-0.3-1.9-0.6-3.8-0.9-5.6c-0.4-2.3-0.6-4.2-0.6-5.6
		c0-0.2,0-0.5,0.1-1c0.1-0.5,0.1-0.8,0-1.1v-0.4H130.3z"/>
	<path class="st2" d="M141.2,99.8c0,1.6-0.4,3.8-1.3,6.6l-0.6-0.1c0.2-1,0.2-1.9,0.2-2.9c0-2-0.2-4.4-0.6-7.5
		c-0.3-2.5-0.6-4.9-1-7.3c-0.2-1.5-0.3-2.4-0.3-2.6c0-1.4,0.1-2.4,0.4-3.1c0.4-0.9,0.9-1.7,1.4-2.6c0,2.5,0.5,7.7,1.4,15.5
		C141.1,97.3,141.2,98.7,141.2,99.8z"/>
</g>
<g class="st0">
	<path class="st1" d="M61.5,79l-0.2,2.4c-0.3-0.2-1-0.6-1.9-1.2c-2,2.3-3.6,3.4-4.8,3.4c-0.3,0-0.7-0.1-1.4-0.3
		c1.6-0.8,3.3-2.1,5.1-3.7c-1-0.7-1.5-1.4-1.5-2.2s0.3-1.7,0.9-2.6c0.6-0.9,1.2-1.4,2-1.4c1.1,0,1.6,0.7,1.6,2.1
		c0,0.8-0.3,1.7-0.8,2.8C60.8,78.4,61.1,78.7,61.5,79z M60.3,76.9c0-1-0.4-1.5-1.3-1.5c-0.3,0-0.4,0.2-0.4,0.5
		c0,0.5,0.5,1.1,1.6,1.8C60.3,77.4,60.3,77.1,60.3,76.9z"/>
	<path class="st1" d="M56,104.6c-0.1,1.7-0.3,3.3-0.7,4.8c-0.9,3.4-2.4,5.7-4.4,7.2c-1.9,1.3-4.7,1.9-8.3,1.9
		c-2.1,0-3.9-0.6-5.3-1.8c-1.5-1.3-2.3-3-2.3-5.1c0-1.1,0.3-2.4,0.9-4c0.5-1.3,1-2.6,1.5-3.8L38,104c-1,2.5-1.4,4.5-1.4,6
		c0,3.5,2.8,5.2,8.3,5.2c1.7,0,3.6-0.4,5.5-1.2c1.6-0.6,2.8-1.5,3.4-2.5c0.4-0.8,0.8-2.2,1-4.1c0.1-1.2,0.2-2,0.2-2.4
		s-0.2-0.8-0.7-1.4c-0.4-0.5-0.8-0.9-1.1-1.4l1.4-3.2c0.7,1.6,1.7,2.4,3,2.4v3.2C57.6,104.6,56,104.6,56,104.6z"/>
	<path class="st1" d="M56.5,101.4h4c2.7-3.5,5.1-5.9,7.3-7.3c2.7-1.8,4.8-2.7,6.4-2.7c1,0,1.9,0.5,2.5,1.4c0.5,0.8,0.8,1.8,0.8,2.9
		c0,3.4-2.3,5.9-6.9,7.4c-3.1,1-6.8,1.5-11.2,1.5c-0.2,0.4-0.5,1-1,1.6c-0.6,0.8-0.9,1.3-1.1,1.5l-0.7-0.4l1.6-2.6h-1.9v-3.3H56.5z
		 M75.4,97.3c0-1.2-0.9-1.7-2.6-1.7c-2.4,0-4.5,0.5-6.3,1.5c-1.3,0.8-2.9,2.2-4.9,4.3h1.9c2.5,0,5.1-0.5,7.8-1.5
		C74.1,99,75.4,98.1,75.4,97.3z M66.4,85l-1.8,3.1l-2.8-2l1.8-3.1L66.4,85z"/>
	<path class="st1" d="M92.6,88.4c0,1.1-0.3,1.7-0.8,2.1l-7.3,4.1c0-1,0.5-1.8,1.6-2.4L92.6,88.4z"/>
	<path class="st1" d="M95.4,104.6h-3.5c-0.4,3.1-1.3,5.7-2.6,7.9c-1.7,2.8-4,4.2-6.7,4.2c-1,0-2.9-0.4-5.7-1.2l0.4-0.5
		c0.7,0.1,1.2,0.2,1.6,0.2c2.6,0,5-0.9,7.2-2.7c1-0.8,1.9-2,2.9-3.7s1.6-3.1,1.7-4.3c-0.9-0.3-1.6-1-2.3-2.1l1.4-2.8
		c0.9,1.2,2,1.9,3.3,1.9c0.2,0,0.5,0,1,0s0.9,0,1.2,0L95.4,104.6L95.4,104.6z"/>
	<path class="st1" d="M108.4,78c0,1.1-0.3,1.7-0.8,2.1l-7.3,4.1c0-1,0.5-1.8,1.6-2.4L108.4,78z"/>
	<path class="st1" d="M116.9,104.6h-3.7c-1.6,0-3.1-0.6-4.4-1.8c0,0.7-0.2,1.3-0.7,1.8c-0.4,0.5-1,0.7-1.6,0.7
		c-2.6,0-4.8-1.3-6.5-3.9c-0.4,0.4-0.9,1-1.7,1.8c-0.6,0.7-1.3,1.2-2,1.3c-0.3,0.1-1.1,0.1-2.4,0.1v-3.2h1.9c1.3,0,2.9-1,4.8-3
		c1.8-2,3.1-3,3.8-3c0.4,0,1.7,1,3.8,3c2.2,2,3.9,3,5,3h3.7C116.9,101.4,116.9,104.6,116.9,104.6z M104.4,97.5
		c-0.4,0-0.8,0.3-1.3,0.8c-0.5,0.6-0.9,1-1.1,1.5c1.9,1.8,3,2.6,3.4,2.6c0.3,0,0.6-0.2,1-0.6c0.4-0.4,0.6-0.8,0.6-1
		s-0.4-0.8-1.2-1.8C105.1,98,104.6,97.5,104.4,97.5z"/>
	<path class="st1" d="M114.9,101.4h10.7v3.2h-10.7V101.4z"/>
	<path class="st1" d="M131.6,69.1c0,1-0.4,1.9-1.1,2.7c-0.7,0.8-1.6,1.2-2.5,1.2c-1.7,0-2.6-1-2.6-2.9c0-1.2,0.2-2.2,0.7-3
		c0.6-1.1,1.5-1.6,2.6-1.6c0.8,0,1.5,0.4,2,1.2C131.3,67.4,131.6,68.2,131.6,69.1z M130.1,69.6c0-0.4-0.3-0.8-1-1.3
		s-1.2-0.7-1.6-0.7c-1,0-1.4,0.5-1.4,1.6c0,1,0.8,1.4,2.4,1.4C129.6,70.6,130.1,70.3,130.1,69.6z"/>
	<path class="st1" d="M128.1,79.8c-0.3-0.3-0.7-0.8-1.1-1.5c0.4-1.2,1.2-2.2,2.1-3.1c0.1,0.9,0.5,1.7,1.2,2.4c0.7,0.6,1.4,1,2.4,1.2
		l-1.7,3.1l-0.9-0.5c-0.2,1.5-0.2,2.4-0.2,2.7c0,1.3,0.3,3.2,0.8,5.7s0.8,4.4,0.8,5.6c0,6.1-1.9,9.2-5.6,9.2h-2v-3.2
		c1.8,0,3.1-0.1,3.9-0.3c1.6-0.5,2.4-1.4,2.4-2.7c0-0.5-0.2-2.2-0.7-5c-0.3-1.9-0.6-3.8-0.9-5.6c-0.4-2.3-0.6-4.2-0.6-5.6
		c0-0.2,0-0.5,0.1-1c0.1-0.5,0.1-0.8,0-1.1C128.1,80.1,128.1,79.8,128.1,79.8z"/>
	<path class="st1" d="M138.9,98c0,1.6-0.4,3.8-1.3,6.6l-0.6-0.1c0.2-1,0.2-1.9,0.2-2.9c0-2-0.2-4.4-0.6-7.5c-0.3-2.5-0.6-4.9-1-7.3
		c-0.2-1.5-0.3-2.4-0.3-2.6c0-1.4,0.1-2.4,0.4-3.1c0.4-0.9,0.9-1.7,1.4-2.6c0,2.5,0.5,7.7,1.4,15.5C138.9,95.4,138.9,96.8,138.9,98z
		"/>
</g>
<g class="st0">
	<path class="st1" d="M64.6,83.4l-0.2,2.4c-0.3-0.2-1-0.6-1.9-1.2c-2,2.3-3.6,3.4-4.8,3.4c-0.3,0-0.7-0.1-1.4-0.3
		c1.6-0.8,3.3-2.1,5.1-3.7c-1-0.7-1.5-1.4-1.5-2.2s0.3-1.7,0.9-2.6c0.6-0.9,1.2-1.4,2-1.4c1.1,0,1.6,0.7,1.6,2.1
		c0,0.8-0.3,1.7-0.8,2.8C63.9,82.8,64.2,83,64.6,83.4z M63.4,81.2c0-1-0.4-1.5-1.3-1.5c-0.3,0-0.4,0.2-0.4,0.5
		c0,0.5,0.5,1.1,1.6,1.8C63.3,81.7,63.4,81.5,63.4,81.2z"/>
	<path class="st1" d="M69.8,100.5c0,1.8-0.5,3.4-1.5,4.7c-1.1,1.4-2.6,2.1-4.4,2.1c-1.2,0-2.2-0.4-3-1.3c-0.7-0.9-1.1-2-1.1-3.3
		c0-1.1,0.4-2.5,1.2-4.4c0.8-1.8,1.1-2.9,1-3.5c1.4-1.4,2.3-2.1,2.6-2.1c1.4,0,2.7,1,3.7,2.9C69.3,97.3,69.8,98.9,69.8,100.5z
		 M68.1,101.1c0-0.5-0.6-1.3-1.9-2.5c-1.1-1-2-1.6-2.7-2.1c-1.6,1.7-2.4,3.3-2.4,4.7c0,1.2,1,1.8,2.9,1.8c0.8,0,1.6-0.1,2.4-0.4
		C67.6,102.3,68.1,101.8,68.1,101.1z"/>
	<path class="st1" d="M84.5,90.4c0,1.1-0.3,1.7-0.8,2.1l-7.3,4.1c0-1,0.5-1.8,1.6-2.4L84.5,90.4z"/>
	<path class="st1" d="M90.9,106.6h-3.5c-0.4,3.1-1.3,5.7-2.6,7.9c-1.7,2.8-4,4.2-6.7,4.2c-1,0-2.9-0.4-5.7-1.2l0.4-0.5
		c0.7,0.1,1.2,0.2,1.6,0.2c2.6,0,5-0.9,7.2-2.7c1-0.8,1.9-2,2.9-3.7s1.6-3.1,1.7-4.3c-0.9-0.3-1.6-1-2.3-2.1l1.4-2.8
		c0.9,1.2,2,1.9,3.3,1.9c0.2,0,0.5,0,1,0s0.9,0,1.2,0L90.9,106.6L90.9,106.6z"/>
	<path class="st1" d="M102.8,72.4c0,1-0.4,1.9-1.1,2.7c-0.7,0.8-1.6,1.2-2.5,1.2c-1.7,0-2.6-1-2.6-2.9c0-1.2,0.2-2.2,0.7-3
		c0.6-1.1,1.5-1.6,2.6-1.6c0.8,0,1.5,0.4,2,1.2C102.5,70.8,102.8,71.6,102.8,72.4z M101.5,73c0-0.4-0.3-0.8-1-1.3S99.3,71,98.9,71
		c-1,0-1.4,0.5-1.4,1.6c0,1,0.8,1.4,2.4,1.4C100.9,74,101.5,73.7,101.5,73z"/>
	<path class="st1" d="M110.1,78.4l-1.4,3.4c-3.1,1-6.2,2.1-9.4,3.3c-5,2-7.4,3.3-7.4,4c0,0.2,0.2,0.4,0.6,0.7
		c0.1,0.1,1.1,0.6,3.2,1.7c1.8,1,3.3,2.3,4.3,3.8c1.2,1.7,1.8,3.5,1.8,5.4c0,3.9-3.1,5.8-9.3,5.8h-3.1v-3.1c3.1,0,5.2-0.1,6.2-0.2
		c3.5-0.4,5.2-1.2,5.2-2.6c0-0.9-0.9-2.2-2.6-3.9c-1.8-1.8-3.1-2.6-3.9-2.6c0,0-0.1,0-0.2,0s-0.2,0-0.3,0c-0.6,0-1.2-0.5-1.9-1.4
		c-0.7-0.9-1-1.8-1-2.4c0-1.4,0.2-2.4,0.5-3s2.1-1.7,5.4-3.4c2.9-1.5,5-2.4,6.1-2.8C106.1,80,108.5,79.1,110.1,78.4z"/>
	<path class="st1" d="M117.8,65.3c0,1.1-0.3,1.7-0.8,2.1l-7.3,4.1c0-1,0.5-1.8,1.6-2.4L117.8,65.3z"/>
	<path class="st1" d="M117.4,76.9c-0.2,0.9-0.5,1.4-0.8,1.5l-6.5,1.9c0.1-0.6,0.4-1.1,0.8-1.4c0.2-0.1,0.8-0.4,1.6-0.7
		c-1-0.4-1.5-1.1-1.6-1.9c0-0.3,0.1-0.6,0.4-1c0.6-0.8,1.2-1.5,2-2c0.7-0.5,1.4-0.8,1.9-0.8c0.8,0,1.2,0.4,1.2,1.3
		c0,0.5-0.2,1-0.7,1.6c-0.8-0.5-1.4-0.8-1.9-0.8c-0.4,0-1,0.3-1.6,0.8c1.3,1.2,2.4,1.8,3.4,1.8C116,77.2,116.7,77.1,117.4,76.9z"/>
	<path class="st1" d="M115.3,100c0,1.6-0.4,3.8-1.3,6.6l-0.6-0.1c0.2-1,0.2-1.9,0.2-2.9c0-2-0.2-4.4-0.6-7.5c-0.3-2.5-0.6-4.9-1-7.3
		c-0.2-1.5-0.3-2.4-0.3-2.6c0-1.4,0.1-2.4,0.4-3.1c0.4-0.9,0.9-1.7,1.4-2.6c0,2.5,0.5,7.7,1.4,15.5C115.2,97.4,115.3,98.8,115.3,100
		z"/>
</g>
<g class="st0">
	<path class="st1" d="M52.8,83.7l-0.2,2.4c-0.3-0.2-1-0.6-1.9-1.2c-2,2.3-3.6,3.4-4.8,3.4c-0.3,0-0.7-0.1-1.4-0.3
		c1.6-0.8,3.3-2.1,5.1-3.7c-1-0.7-1.5-1.4-1.5-2.2s0.3-1.7,0.9-2.6s1.2-1.4,2-1.4c1.1,0,1.6,0.7,1.6,2.1c0,0.8-0.3,1.7-0.8,2.8
		C52.1,83.1,52.3,83.3,52.8,83.7z M51.6,81.6c0-1-0.4-1.5-1.3-1.5c-0.3,0-0.4,0.2-0.4,0.5c0,0.5,0.5,1.1,1.6,1.8
		C51.6,82,51.6,81.8,51.6,81.6z"/>
	<path class="st1" d="M63.7,100.6h-3.8c-3.4,0-5.6-0.4-6.7-1.3c0.2,1.1,0.2,2,0.2,2.6c0,0.7-0.2,1.4-0.6,2.1
		c-0.5,0.8-1.1,1.2-1.7,1.2c-1.7,0-2.9-2.2-3.7-6.7c-1.8,0.4-2.9,0.8-3.5,1.3c-0.6,0.6-0.9,1.8-0.9,3.4c0,0.5,0.2,1.8,0.6,4.1
		c1.1,5.6,1.6,9.5,1.6,11.7c0,0.3-0.4,0.8-1.1,1.7c-0.1-1.6-0.5-4.4-1.2-8.5c-0.6-3.6-1-6.4-1-8.5c0-2,0.3-3.6,0.8-4.8
		c0.6-1.4,1.6-2.6,3.2-3.6c0.3-0.2,0.9-0.5,2-0.9c0.4-0.2,1-0.7,1.9-1.7c1.5,2,3.1,3.3,4.6,3.9c1.2,0.5,2.9,0.8,5,0.8c0.4,0,1,0,2,0
		c0.9,0,1.7,0,2.2,0L63.7,100.6L63.7,100.6z"/>
	<path class="st1" d="M61.8,97.3h10.7v3.2H61.8V97.3z"/>
	<path class="st1" d="M79.3,104.7l-1.8,2.8l-2.8-1.8l-1.6,2.4l-2.8-1.7l1.6-2.9l3,1.8l1.4-2.4L79.3,104.7z M77.7,93.5
		c0,4.8-1.7,7.2-5.2,7.2h-1.8v-3.3c3.9,0,5.9-0.7,5.9-2c0-0.3-0.3-1-0.9-2.1s-0.9-1.7-0.9-2c0-0.1,0.6-1.2,1.8-3.1
		C77.3,90,77.7,91.8,77.7,93.5z"/>
	<path class="st1" d="M102.8,100.6h-3.7c-2.1,0-3.6-2-4.6-5.9c-0.9,2-2.1,3.4-3.5,4.2c-1.3,0.7-3.1,1.1-5.3,1.1c-2.7,0-4-0.8-4-2.4
		c0-0.4,0.4-1.6,1.1-3.5h0.6v0.3c0,0.9,0.3,1.6,1,1.9c0.5,0.2,1.2,0.3,2.3,0.3c2.3,0,3.9-0.2,4.9-0.6c1.7-0.6,2.5-1.9,2.5-3.8
		c0-1.2-0.3-2.9-0.8-5.2c-0.5-2.3-0.8-3.9-0.8-5.1l1.6-2.2l2,12c0.6,3.7,1.9,5.6,3.7,5.6h3V100.6z"/>
	<path class="st1" d="M113,68c0,1.1-0.3,1.7-0.8,2.1l-7.3,4.1c0-1,0.5-1.8,1.6-2.4L113,68z"/>
	<path class="st1" d="M118.9,100.6h-3.6c-2.2,0-4.4-0.7-6.4-2.1c-0.7,0.5-1.7,1-2.9,1.4c-1.2,0.4-2.3,0.6-3.2,0.6h-1.9v-3.1
		c2.9,0,4.7-0.3,5.4-0.8c0-0.1-0.1-0.3-0.3-0.7c-0.2-0.3-0.3-0.5-0.3-0.6c0-1.4,0.7-3.3,2.2-5.5c1.5-2.4,2.9-3.6,4.2-3.6
		c0.9,0,1.6,0.7,2.2,2.1c0.4,1.1,0.6,2.2,0.6,3.2c0,1.3-0.7,2.9-2.2,5c0.9,0.5,1.9,0.8,3,0.9c-0.2,0,0.9,0,3.2,0
		C118.9,97.3,118.9,100.6,118.9,100.6z M115,77.9l-1.7,3l-2.8-1.8l-1.6,2.4l-2.9-2l1.6-2.8l3.1,1.9l1.4-2.6L115,77.9z M113.1,92.6
		c0-0.6-0.2-1.2-0.6-1.7s-0.9-0.7-1.5-0.7s-1.3,0.2-2.2,0.7s-1.2,1-1.2,1.6c0,1,0.7,1.8,2.2,2.6c0.6-0.4,1.3-0.7,1.9-1.1
		C112.6,93.3,113.1,93,113.1,92.6z"/>
	<path class="st1" d="M123.6,66.4c0,0.8-0.3,1.6-0.9,2.3c-0.6,0.7-1.3,1.1-2.1,1.1c-1.5,0-2.2-0.8-2.2-2.5c0-1,0.2-1.8,0.6-2.6
		c0.5-0.9,1.2-1.3,2.2-1.3c0.7,0,1.2,0.3,1.7,1C123.3,65.1,123.6,65.7,123.6,66.4z M122.5,66.9c0-0.3-0.3-0.7-0.9-1.1
		c-0.6-0.4-1-0.6-1.4-0.6c-0.8,0-1.2,0.5-1.2,1.4c0,0.8,0.7,1.2,2,1.2C122,67.8,122.5,67.5,122.5,66.9z"/>
	<path class="st1" d="M121.3,75.8c-0.3-0.3-0.7-0.8-1.1-1.5c0.4-1.2,1.2-2.2,2.1-3.1c0.1,0.9,0.5,1.7,1.2,2.4c0.7,0.6,1.4,1,2.4,1.2
		l-1.7,3.1l-0.9-0.5c-0.2,1.6-0.2,2.6-0.2,2.8c0,1.3,0.3,3.2,0.8,5.7s0.8,4.4,0.8,5.6c0,6.1-1.9,9.2-5.6,9.2h-1.9v-3.3
		c1.8,0,3.1-0.1,3.9-0.3c1.6-0.5,2.4-1.4,2.4-2.7c0-0.5-0.2-2.2-0.7-5c-0.3-1.9-0.6-3.8-0.9-5.6c-0.4-2.3-0.6-4.2-0.6-5.6
		c0-0.2,0-0.5,0.1-1s0.1-0.8,0-1.1v-0.3C121.4,75.8,121.3,75.8,121.3,75.8z"/>
	<path class="st1" d="M132.1,94c0,1.6-0.4,3.8-1.3,6.6l-0.6-0.1c0.2-1,0.2-1.9,0.2-2.9c0-2-0.2-4.4-0.6-7.5c-0.3-2.5-0.6-4.9-1-7.3
		c-0.2-1.5-0.3-2.4-0.3-2.6c0-1.4,0.1-2.4,0.4-3.1c0.4-0.9,0.9-1.7,1.4-2.6c0,2.5,0.5,7.7,1.4,15.5C132.1,91.3,132.1,92.8,132.1,94z
		"/>
</g>
</svg>
