<svg xmlns="http://www.w3.org/2000/svg" width="901" height="901" viewBox="0 0 900.5 900.5"><path d="M176.415 880.5c0 11.046 8.954 20 20 20h507.67c11.046 0 20-8.954 20-20V232.487h-547.67V880.5zM562.75 342.766h75v436.03h-75v-436.03zm-150 0h75v436.03h-75v-436.03zm-150 0h75v436.03h-75v-436.03zM618.825 91.9V20c0-11.046-8.954-20-20-20h-297.15c-11.046 0-20 8.954-20 20v96.9h-139.8c-11.046 0-20 8.953-20 20v50.575c0 11.046 8.954 20 20 20h616.752c11.046 0 20-8.954 20-20V136.9c0-11.047-8.954-20-20-20h-139.8v-25zm-75 20.888h-187.15V75h187.15v37.8z" fill="#6F6F6F"/></svg>