<svg xmlns="http://www.w3.org/2000/svg" viewBox="0 0 174.239 174.239" width="512" height="512"><path d="M87.12 0C39.082 0 0 39.082 0 87.12s39.082 87.12 87.12 87.12 87.12-39.082 87.12-87.12S135.157 0 87.12 0zm0 159.305c-39.802 0-72.185-32.383-72.185-72.185S47.318 14.935 87.12 14.935s72.185 32.383 72.185 72.185-32.384 72.185-72.185 72.185zm33.7-105.89c-2.917-2.917-7.647-2.917-10.56 0L87.12 76.568 63.97 53.414c-2.917-2.917-7.642-2.917-10.56 0s-2.917 7.642 0 10.56l23.15 23.153L53.4 110.28c-2.917 2.917-2.917 7.642 0 10.56 1.458 1.458 3.37 2.188 5.28 2.188s3.824-.73 5.28-2.188l23.15-23.153 23.15 23.153c1.458 1.458 3.37 2.188 5.28 2.188a7.44 7.44 0 0 0 5.28-2.188c2.917-2.917 2.917-7.642 0-10.56L97.68 87.127l23.15-23.153c2.917-2.917 2.917-7.643 0-10.56z" fill="#fff"/></svg>