<svg xmlns="http://www.w3.org/2000/svg" width="289" height="57" viewBox="0 0 288.507 56.734"><path d="M252.48.283c-29.815 9.73-28.284 36.927-28.284 36.927v19.254h56.57V37.2s1.53-27.2-28.286-36.927z" fill="#fff"/><g fill="#137BC1"><path d="M252.48 1.392c11.85 3.945 20.03 11.12 24.317 21.322 3.24 7.713 2.922 14.37 2.918 14.437l-.002.03V55.4h-54.467l-.002-18.26c-.004-.065-.33-6.647 2.883-14.352 4.277-10.247 12.47-17.45 24.353-21.407m0-1.11c-29.815 9.73-28.284 36.927-28.284 36.927v19.254h56.57V37.2s1.53-27.2-28.286-36.927z" stroke="#137BC1" stroke-width=".539" stroke-miterlimit="10"/><path d="M252.482 7.844c8.906 3.407 15.133 9.047 18.525 16.787 2.738 6.245 2.652 11.762 2.64 12.2l-.01.125V47.98h-42.313V37.01l-.012-.2c-.003-.052-.174-5.444 2.424-11.668 3.34-8.005 9.638-13.815 18.744-17.298"/><path d="M276.1 31.765c-6.544 0-11.87-5.325-11.87-11.87s5.325-11.868 11.87-11.868 11.868 5.324 11.868 11.868-5.322 11.87-11.868 11.87z" stroke="#137BC1" stroke-width="1.077" stroke-miterlimit="10"/></g><circle cx="276.101" cy="19.897" r="10.863" fill="#fff"/><path d="M237.86 47.348v2.792l.8-.086c.646-.07 1.297-.104 1.93-.104 4.86 0 9.656 2 11.188 3.196l.3.233.434.34.435-.34.302-.233c1.527-1.194 6.323-3.196 11.185-3.196.635 0 1.284.033 1.93.104l.74.086v-2.792H237.86z" fill="#035B75"/><path d="M264.596 39.402c-.32 0-.58.257-.58.575a.58.58 0 0 0 .58.58h3.058a.58.58 0 0 0 .576-.58c0-.318-.26-.575-.576-.575h-3.058zm3.642 3.874c0-.32-.258-.576-.576-.576h-3.76a.58.58 0 0 0-.579.576.58.58 0 0 0 .579.579h3.76a.58.58 0 0 0 .576-.579zm-.576 1.074h-3.064a.58.58 0 0 0-.58.574c0 .324.254.58.58.58h3.064a.58.58 0 0 0 .576-.581c0-.315-.258-.574-.576-.574zm.573-2.718a.58.58 0 0 0-.577-.583h-4.172c-.32 0-.583.264-.583.583a.58.58 0 0 0 .583.576h4.172c.32 0 .577-.258.577-.576zm-31.627-1.655a.58.58 0 0 0 .576.58h3.058a.58.58 0 0 0 .582-.58.58.58 0 0 0-.582-.575h-3.058c-.317 0-.576.257-.576.575zm-.004 1.655c0 .318.258.576.576.576h4.172a.58.58 0 0 0 .584-.576c0-.32-.263-.583-.584-.583h-4.172a.58.58 0 0 0-.576.583zm-.002 1.644c0 .32.257.58.575.58h3.76a.58.58 0 0 0 .582-.579.58.58 0 0 0-.582-.576h-3.76c-.318 0-.575.258-.575.576zm0 1.65a.58.58 0 0 0 .575.581h3.064c.324 0 .58-.256.58-.58a.58.58 0 0 0-.58-.574h-3.064c-.318-.001-.575.258-.575.574zm21.045-23.956l-.02.295c-.002.03-.15 2.734.904 3.797.12-.443.396-1.106 1.028-1.578a7.28 7.28 0 0 0-7.101-5.678c-3.475 0-6.37 2.44-7.096 5.696.234.108.9.495 1.063 1.505.445-.302 1.182-1.16.882-3.45l-.1-.688.54.438c.033.025 3.164 2.487 7.65.96-.363-.2-.824-.5-1.17-.815l-.515-.48 3.922-.001zm2.685 1.955l.024-.492c0-4.322-3.503-7.825-7.825-7.825s-7.826 3.502-7.826 7.825c0 .167.016.33.022.492 1.06-3.3 4.15-5.86 7.804-5.86s6.746 2.56 7.8 5.86zm.914 3.075c0-1.135-.498-2.056-1.113-2.056-.16 0-.316.07-.457.187-.602.594-.674 1.436-.674 1.446l-.03.436-.383-.215c-1.443-.806-1.535-3.386-1.523-4.27h-1.8c.484.313.955.526.96.528l.586.27-.598.242c-4.006 1.637-7.106.22-8.283-.485.2 3.142-1.594 3.604-1.676 3.626l-.34.082v-.35c0-.837-.4-1.2-.646-1.36-.13-.076-.266-.13-.412-.13-.612 0-1.1.92-1.1 2.056 0 1.13.498 2.05 1.1 2.05.292 0 .553-.2.753-.548a7.27 7.27 0 0 0 6.862 4.874c3.195 0 5.904-2.06 6.888-4.923.198.37.48.597.782.597.616-.005 1.114-.924 1.114-2.055zm-9.952.86c.174-.517.646-.86 1.168-.86a1.24 1.24 0 0 1 1.168.854.27.27 0 0 1-.166.343c-.14.05-.297-.023-.344-.167-.103-.292-.37-.492-.658-.492s-.555.2-.655.497c-.04.112-.144.183-.254.183a.34.34 0 0 1-.091-.016c-.138-.05-.214-.203-.168-.342zm5.147-1.867a1.09 1.09 0 1 1-1.089-1.09 1.09 1.09 0 0 1 1.089 1.09zm-6.865 1.1a1.09 1.09 0 1 1 1.091-1.09 1.09 1.09 0 0 1-1.09 1.091zm2.886 3.166c1.03 0 1.98-.096 2.797-.598-.57.95-1.608 1.584-2.797 1.584a3.26 3.26 0 0 1-2.795-1.584c.815.5 1.77.598 2.795.598zm10.87 4.606c-.86-.446-3.28-1.532-5.592-.946l-.625-.792s-.3-.27-.67-.103c-.453.154-.486.553-.486.553a3.47 3.47 0 0 1-3.248 3.453h-.517c-1.808-.115-3.243-1.615-3.243-3.453 0 0-.037-.398-.5-.553-.37-.17-.67.103-.67.103l-.625.792c-2.3-.585-4.733.5-5.592.946 7.53 0 10.88 3.55 10.88 3.55s3.322-3.55 10.88-3.55zm4.73 5.2s-.417-.77-1.098-.9v.775h.717a1.03 1.03 0 0 0 .38.124zm-31.285 0s.417-.77 1.098-.9v.775h-.715s-.207.02-.383.124zm27.853-.136h1.945v-4.362c-8.52-1.23-12.765 2.34-13.83 3.305v14.96c1.4-1.1 7.203-4.004 13.83-3.294v-3.56h-1.945a1.04 1.04 0 0 1-1.055-1.054 1.03 1.03 0 0 1 .201-.61 1.05 1.05 0 0 1-.896-1.038 1.02 1.02 0 0 1 .252-.67 1.05 1.05 0 0 1-.668-.975 1.06 1.06 0 0 1 1.054-1.057h.246a1.05 1.05 0 0 1-.188-.598c.002-.573.472-1.046 1.054-1.046zm-26.304-4.364v4.362h1.945c.582 0 1.057.473 1.057 1.048a1.03 1.03 0 0 1-.19.598h.244a1.06 1.06 0 0 1 1.057 1.057c0 .44-.277.818-.668.975a1.05 1.05 0 0 1 .253.671c0 .526-.392.96-.9 1.038a1.03 1.03 0 0 1 .203.61 1.04 1.04 0 0 1-1.056 1.054h-1.946v3.56c6.63-.7 12.438 2.205 13.832 3.294V37.87c-.915-.964-5.286-4.535-13.833-3.305zm11.226-2.178l-.014.18c0 1.605 1.305 2.912 2.912 2.912s2.908-1.307 2.908-2.912c0-.118.002-.042-.01-.156-.64.275-1.306.417-2.005.48-.293.032-.592.052-.895.052-1.018 0-1.996-.198-2.895-.555z" fill="#fff"/><path d="M14.124 20.707c0 1.642-.403 3.056-1.242 4.24-.988 1.34-2.28 2.02-3.88 2.02-1.62 0-2.914-.682-3.9-2.02-.838-1.186-1.27-2.6-1.27-4.24V14.02H.967v7.02c0 2.448.8 4.5 2.408 6.157 1.547 1.64 3.422 2.476 5.626 2.476 2.233 0 4.106-.858 5.655-2.574 1.548-1.7 2.33-3.7 2.33-6.06v-7.02h-2.864l.001 6.688zM7.662 8.892h2.786v2.802H7.662zm17.163 5.1c-3.193 0-5.45 2.323-5.45 5.73 0 3.357 2.182 5.754 5.45 5.754 1.296 0 2.207-.43 2.688-1.285-.05 1.968-.94 3.152-2.7 3.204v2.25c3.674 0 5.5-1.516 5.5-4.52V19.8c0-3.335-2.13-5.808-5.477-5.808zm0 8.938c-1.547 0-2.6-1.44-2.6-3.207 0-1.716 1-3.156 2.486-3.156 1.62 0 2.686 1.313 2.686 3.282-.001 1.666-1.04 3.08-2.56 3.08zM56.1 8.892h2.763v2.802H56.1zm2.4-3.988h2.788V7.73H58.5zm2.38 3.988h2.763v2.802H60.88zm4.792 10.93c0 1.845-.7 2.778-2.153 2.778h-2.766c.382-.403.585-1.44.585-3.08v-5.503h-2.866v5.78c0 1.868-.7 2.802-2.153 2.802h-2.637v-.15c.302-.478.454-1.44.454-2.928v-5.503h-2.864v5.603c0 1.996-.7 2.98-2.155 2.98H38.543v-8.583h-2.84v9.644c0 2.42-1.165 3.585-3.524 3.585v2.423c3.45 0 5.758-1.5 6.188-4.2h25.256c2.888 0 4.92-2.373 4.92-6.008V14.02h-2.867l-.002 5.804zm16.56.128c0 .9-.075 1.515-.202 1.818-.28.554-.86.832-1.802.832H77.1c-1.065 0-1.8-.15-2.183-.43-.53-.38-.8-1.186-.8-2.424V9.195h-2.815v11.688c0 1.4.33 2.478 1.016 3.283.736.883 1.773 1.312 3.144 1.312h5.35c2.84 0 4.26-1.515 4.26-4.57v-6.9h-2.84v5.932zm.028-11.058h2.76v2.802h-2.76zm64.303 0h2.788v2.802h-2.788zm26.37 11.058c0 .9-.074 1.515-.202 1.818-.28.554-.86.832-1.8.832h-4.06v-.73c0-1.7-.53-3.082-1.57-4.217s-2.408-1.7-4.1-1.7-3.064.557-4.13 1.642c-1.04 1.085-1.572 2.474-1.572 4.166l.027.832h-6.77c.407-.48.608-1.44.608-2.93V14.02h-2.815v5.805c0 .884-.103 1.54-.303 1.918-.307.582-.863.86-1.7.86H135.3c0-6.362-3.243-11.108-8.746-12.22l-.354 2.703c3.675.755 6.286 4.492 6.286 8.734 0 .252 0 .504-.024.782h-3.347c.43-1.034.658-1.92.658-2.624 0-3.03-2.028-4.9-4.994-4.9s-5.02 1.87-5.02 4.9c0 .73.23 1.6.662 2.624h-11.743a8.2 8.2 0 0 0 .15-1.563V9.195h-2.862v11.512c0 3.562-2.13 6.26-5.122 6.26-3.093 0-5.172-2.773-5.172-6.26v-2.145h-2.866v2.475c0 4.745 3.626 8.633 8.038 8.633 2.8 0 5.4-1.563 6.844-4.2h48.967c1.1 1.464 2.587 2.196 4.534 2.196 1.984 0 3.5-.73 4.594-2.196h5.73c2.84 0 4.258-1.515 4.258-4.57V9.195h-2.84V19.95zm-48.154 2.727c-1.367 0-2.33-1.163-2.33-2.7 0-1.52.838-2.653 2.33-2.653 1.395 0 2.332 1.06 2.332 2.653 0 1.513-.988 2.7-2.332 2.7zm38.514 1.412c-.48.633-1.164.96-2.024.96-1.75 0-2.868-1.488-2.868-3.3 0-.88.23-1.64.66-2.22.5-.683 1.192-1.012 2.056-1.012a2.62 2.62 0 0 1 2.154 1.037c.456.632.684 1.412.684 2.3 0 .908-.228 1.666-.663 2.246zm15.1-14.92h2.816v16.3h-2.816zm14.3 14.5c0 2.42-1.163 3.585-3.52 3.585v2.423c4.356 0 6.36-1.895 6.36-6.438v-9.214h-2.842l.002 9.644zm5.452-14.492h2.814v16.3h-2.814zm12.116 5.252c-.658-.226-1.162-.328-1.52-.352l-2.637-.05V16.6c.9 0 1.772.052 2.562.228 2.56.556 3.854 2.474 3.854 5.78h-9.178v2.877h12.04V22.6c-.023-4.316-1.72-7.043-5.12-8.18zM6.518 40.444a6.39 6.39 0 0 1 2.316.412 4.98 4.98 0 0 1 1.855 1.234c.522.55.93 1.236 1.227 2.062s.44 1.792.44 2.902c0 .975-.12 1.875-.36 2.7s-.604 1.534-1.1 2.133-1.095 1.072-1.82 1.418-1.582.512-2.568.512H.967V40.444h5.55zm-.197 10.9a3.54 3.54 0 0 0 1.19-.206 2.58 2.58 0 0 0 1.025-.686c.3-.315.54-.733.72-1.244s.27-1.137.27-1.873a8.16 8.16 0 0 0-.189-1.827c-.125-.542-.33-1.007-.62-1.394s-.67-.685-1.145-.893-1.06-.308-1.758-.308H3.797v8.43l2.524.002zm7.623-4.244c.035-.623.184-1.142.45-1.552s.602-.744 1.008-.993a4.36 4.36 0 0 1 1.38-.536 7.47 7.47 0 0 1 1.54-.158 10.14 10.14 0 0 1 1.422.103 4.28 4.28 0 0 1 1.317.402c.395.2.72.48.973.834s.38.826.38 1.414v5.037c0 .438.023.857.072 1.258s.132.697.25.896H20.14a3.85 3.85 0 0 1-.115-.459 4.24 4.24 0 0 1-.063-.478c-.4.438-.9.742-1.44.917a5.53 5.53 0 0 1-1.694.264 4.52 4.52 0 0 1-1.245-.168 2.68 2.68 0 0 1-1-.525 2.52 2.52 0 0 1-.675-.897c-.16-.36-.245-.794-.245-1.3 0-.552.095-1.003.282-1.36a2.39 2.39 0 0 1 .721-.854c.294-.212.628-.37 1.008-.475a10.71 10.71 0 0 1 1.145-.254l1.136-.15a6.85 6.85 0 0 0 .992-.168c.285-.075.515-.186.685-.33s.246-.35.23-.626c0-.288-.044-.516-.133-.684a1.02 1.02 0 0 0-.362-.394 1.38 1.38 0 0 0-.522-.188 4.35 4.35 0 0 0-.638-.047c-.505 0-.9.113-1.192.335-.286.228-.456.6-.505 1.125h-2.558zm5.9 1.97a1.1 1.1 0 0 1-.403.234 4.06 4.06 0 0 1-.523.14l-1.186.2a4.47 4.47 0 0 0-.568.147c-.186.063-.35.146-.487.254a1.17 1.17 0 0 0-.333.402c-.085.16-.125.37-.125.615 0 .238.04.438.125.6a1.02 1.02 0 0 0 .344.387 1.28 1.28 0 0 0 .503.195 3.15 3.15 0 0 0 .595.057c.506 0 .896-.087 1.173-.262s.48-.384.612-.627a2.08 2.08 0 0 0 .242-.74 4.83 4.83 0 0 0 .044-.6v-.992h-.002zm6.976-4.937v1.8h.037a3.2 3.2 0 0 1 .485-.833 3.16 3.16 0 0 1 .702-.657 3.44 3.44 0 0 1 .848-.421 2.81 2.81 0 0 1 .938-.15 1.87 1.87 0 0 1 .556.094v2.472l-.43-.066a4.61 4.61 0 0 0-.488-.025c-.47 0-.863.08-1.2.24a1.96 1.96 0 0 0-.783.667 2.78 2.78 0 0 0-.423.982 5.57 5.57 0 0 0-.126 1.218v4.36h-2.56V44.13h2.433zm16.282-3.7l4.812 13.37h-2.94l-.97-2.98h-4.812l-1 2.98h-2.848l4.866-13.37h2.902zm.162 8.203L41.64 43.74h-.035l-1.678 4.906h3.336zm8.136-8.203v13.37h-2.56v-13.37h2.56zm11.274.001l3 9.197h.035l2.848-9.197h3.982v13.37H69.9v-9.478h-.035l-3.152 9.478h-2.18l-3.156-9.383h-.036v9.383H58.7v-13.37h3.984zM74.656 47.1c.035-.623.187-1.142.45-1.552a3.09 3.09 0 0 1 1.01-.993 4.31 4.31 0 0 1 1.377-.536 7.51 7.51 0 0 1 1.543-.158c.47 0 .94.035 1.423.103s.917.203 1.315.402a2.62 2.62 0 0 1 .973.834c.254.356.378.826.378 1.414v5.037c0 .438.025.857.074 1.258s.13.697.25.896h-2.595a3.5 3.5 0 0 1-.115-.459 3.2 3.2 0 0 1-.065-.478 3.38 3.38 0 0 1-1.442.917 5.51 5.51 0 0 1-1.694.264 4.51 4.51 0 0 1-1.243-.168 2.68 2.68 0 0 1-1-.525 2.42 2.42 0 0 1-.673-.897c-.163-.36-.245-.794-.245-1.3 0-.552.095-1.003.28-1.36a2.39 2.39 0 0 1 .72-.854c.295-.214.633-.37 1-.475a8.71 8.71 0 0 1 1.146-.254l1.135-.15a6.95 6.95 0 0 0 .994-.168c.286-.075.514-.186.685-.33s.246-.35.232-.626c0-.288-.046-.516-.135-.684a1.03 1.03 0 0 0-.36-.394 1.37 1.37 0 0 0-.52-.188 4.45 4.45 0 0 0-.642-.047c-.504 0-.9.113-1.2.335-.3.228-.46.6-.506 1.125h-2.56zm5.9 1.97a1.09 1.09 0 0 1-.405.234 4.4 4.4 0 0 1-.522.141l-.586.093-.612.096a4.68 4.68 0 0 0-.57.147 1.63 1.63 0 0 0-.485.254c-.14.105-.25.24-.335.402a1.36 1.36 0 0 0-.124.615 1.32 1.32 0 0 0 .124.6.99.99 0 0 0 .344.387c.144.094.313.16.505.195a3.15 3.15 0 0 0 .594.057c.506 0 .896-.087 1.174-.262s.48-.384.6-.627a2.07 2.07 0 0 0 .242-.74l.046-.6v-.992h-.002zm6.986-4.937v1.35h.054c.324-.563.745-.968 1.26-1.227a3.5 3.5 0 0 1 1.587-.384c.685 0 1.247.098 1.686.3s.783.462 1.036.806.43.76.53 1.254a8.2 8.2 0 0 1 .152 1.64v5.954H91.3V48.35c0-.802-.12-1.396-.363-1.788s-.666-.593-1.278-.593c-.697 0-1.203.216-1.514.646s-.468 1.14-.468 2.125v5.075h-2.56v-9.682h2.435zm10.8-3.7v5.038h.055c.325-.563.74-.968 1.243-1.227s.995-.384 1.478-.384c.687 0 1.247.098 1.688.3s.783.462 1.034.806a3.19 3.19 0 0 1 .532 1.254 8.13 8.13 0 0 1 .151 1.64v5.954h-2.556V48.35c0-.802-.12-1.396-.362-1.788s-.668-.593-1.28-.593c-.696 0-1.203.216-1.513.646s-.47 1.14-.47 2.125v5.075h-2.557v-13.37h2.557zm8.032 6.667c.036-.623.186-1.142.452-1.552a3.06 3.06 0 0 1 1.009-.993 4.3 4.3 0 0 1 1.38-.536 7.47 7.47 0 0 1 1.54-.158 10.12 10.12 0 0 1 1.422.103 4.24 4.24 0 0 1 1.316.402 2.6 2.6 0 0 1 .971.834c.254.356.382.826.382 1.414v5.037c0 .438.02.857.072 1.258s.13.697.25.896h-2.596a3.67 3.67 0 0 1-.116-.459c-.03-.154-.052-.313-.063-.478a3.27 3.27 0 0 1-1.44.917 5.5 5.5 0 0 1-1.691.264 4.51 4.51 0 0 1-1.246-.168 2.78 2.78 0 0 1-1.01-.525 2.49 2.49 0 0 1-.678-.897c-.16-.36-.242-.794-.242-1.3 0-.552.093-1.003.28-1.36s.428-.64.723-.854a3.16 3.16 0 0 1 1.007-.475c.382-.107.762-.2 1.146-.254l1.134-.15a7.14 7.14 0 0 0 1-.168c.298-.073.518-.186.686-.33s.247-.35.234-.626c0-.288-.046-.516-.134-.684a1.04 1.04 0 0 0-.36-.394 1.38 1.38 0 0 0-.522-.188c-.198-.03-.4-.047-.64-.047-.505 0-.903.113-1.2.335-.287.228-.458.6-.505 1.125h-2.56zm5.9 1.97a1.09 1.09 0 0 1-.405.234c-.163.054-.335.104-.52.14l-.586.093-.613.096a4.5 4.5 0 0 0-.567.147 1.6 1.6 0 0 0-.484.254c-.14.105-.25.24-.335.402s-.126.37-.126.615c0 .238.04.438.126.6s.2.293.344.387a1.36 1.36 0 0 0 .502.195 3.16 3.16 0 0 0 .596.057c.505 0 .895-.087 1.17-.262s.48-.384.612-.627a2.03 2.03 0 0 0 .242-.74l.046-.6v-.992h-.002zm7.184-8.626v13.37h-2.56v-13.37h2.56zm13.1 0c.806 0 1.5.122 2.054.364s1.022.567 1.38.965a3.72 3.72 0 0 1 .775 1.368 5.26 5.26 0 0 1 .242 1.6c0 .537-.08 1.063-.242 1.583a3.7 3.7 0 0 1-.775 1.375c-.356.4-.812.723-1.38.965s-1.248.365-2.054.365h-2.974v4.793h-2.83v-13.37h5.803zm-.774 6.293a5.71 5.71 0 0 0 .938-.075 2.07 2.07 0 0 0 .793-.292 1.54 1.54 0 0 0 .547-.606c.14-.263.2-.605.2-1.03s-.068-.768-.2-1.028-.32-.466-.547-.6a2.31 2.31 0 0 0-.793-.29 5.61 5.61 0 0 0-.938-.077h-2.2v4l2.2-.001zm13.03 7.078v-1.35h-.055c-.324.563-.745.97-1.26 1.22a3.61 3.61 0 0 1-1.585.373c-.686 0-1.248-.096-1.686-.28a2.45 2.45 0 0 1-1.037-.798c-.253-.342-.428-.76-.53-1.254s-.152-1.04-.152-1.64V44.13h2.56v5.472c0 .8.12 1.395.36 1.787s.667.6 1.28.6c.696 0 1.203-.216 1.515-.646s.468-1.137.468-2.125V44.14h2.56v9.683h-2.434zm6.94-13.37v4.87h.033a2.75 2.75 0 0 1 1.27-1.096 4.19 4.19 0 0 1 1.667-.35 3.43 3.43 0 0 1 1.388.3c.458.2.868.505 1.235.918s.663.938.892 1.58.342 1.4.342 2.295-.115 1.653-.342 2.295-.525 1.172-.892 1.585a3.51 3.51 0 0 1-1.235.915 3.4 3.4 0 0 1-1.388.301c-.685 0-1.298-.1-1.84-.336s-.95-.6-1.227-1.144h-.035v1.234H149.2V40.44h2.562zm4.144 7.36a3.2 3.2 0 0 0-.396-.992c-.184-.288-.406-.516-.676-.686s-.6-.25-.984-.25c-.373 0-.696.083-.975.25a2.06 2.06 0 0 0-.687.686 3.08 3.08 0 0 0-.394.992 5.49 5.49 0 0 0-.13 1.18 5.27 5.27 0 0 0 .13 1.163 3.21 3.21 0 0 0 .394.992 2.05 2.05 0 0 0 .687.683c.277.167.602.252.975.252.386 0 .713-.082.984-.252s.492-.396.676-.683a3.19 3.19 0 0 0 .396-.992 5.27 5.27 0 0 0 .126-1.163c0-.412-.04-.805-.126-1.18zm6.936-7.36v13.37h-2.558v-13.37h2.558zm2.1 2.2v-2.2h2.563v2.2h-2.563zm2.564 1.5v9.683h-2.563v-9.683h2.563zm4.17 7.276a1.49 1.49 0 0 0 .441.503 1.83 1.83 0 0 0 .62.293 2.79 2.79 0 0 0 .73.093c.18 0 .37-.02.566-.063a1.9 1.9 0 0 0 .54-.207 1.25 1.25 0 0 0 .406-.374 1.03 1.03 0 0 0 .162-.593c0-.396-.256-.697-.767-.896s-1.224-.4-2.136-.602l-1.1-.306a3.41 3.41 0 0 1-.945-.47 2.22 2.22 0 0 1-.668-.729c-.17-.293-.254-.652-.254-1.078 0-.625.117-1.136.352-1.535a2.65 2.65 0 0 1 .928-.946 4.01 4.01 0 0 1 1.3-.488 7.62 7.62 0 0 1 1.478-.14 6.97 6.97 0 0 1 1.47.15c.475.102.898.268 1.27.508a2.98 2.98 0 0 1 .927.944c.245.394.396.9.44 1.487H175c-.037-.512-.225-.857-.56-1.04s-.734-.27-1.188-.27a4.2 4.2 0 0 0-.471.028 1.59 1.59 0 0 0-.457.12.98.98 0 0 0-.355.275c-.096.12-.145.278-.145.476 0 .238.086.433.256.58a1.88 1.88 0 0 0 .654.363 7.53 7.53 0 0 0 .93.254l1.063.244c.374.087.734.193 1.095.32a3.88 3.88 0 0 1 .94.495 2.33 2.33 0 0 1 .669.768c.168.307.25.687.25 1.135 0 .638-.122 1.17-.364 1.6a3.06 3.06 0 0 1-.965 1.04 3.93 3.93 0 0 1-1.36.552 7.48 7.48 0 0 1-1.56.16 7.63 7.63 0 0 1-1.588-.168c-.514-.112-.977-.3-1.38-.563a3.12 3.12 0 0 1-.987-1.039c-.263-.43-.4-.97-.43-1.62h2.435c.001.288.058.535.175.74zm10.07-10.977v5.038h.055c.326-.563.74-.968 1.244-1.227s.994-.384 1.48-.384c.686 0 1.244.098 1.684.3s.784.462 1.036.806.43.76.53 1.254.154 1.04.154 1.64v5.954h-2.56V48.35c0-.802-.122-1.396-.36-1.788s-.666-.593-1.28-.593c-.697 0-1.2.216-1.512.646s-.47 1.14-.47 2.125v5.075h-2.558v-13.37h2.56zm10.867 11.05c.385.388.938.58 1.658.58.516 0 .96-.133 1.33-.4s.604-.554.688-.853h2.254c-.363 1.162-.914 1.993-1.658 2.5s-1.646.75-2.703.75c-.732 0-1.396-.12-1.982-.363a4.27 4.27 0 0 1-1.496-1.04 4.71 4.71 0 0 1-.943-1.611c-.227-.624-.334-1.3-.334-2.06 0-.72.112-1.398.344-2.02s.55-1.165.97-1.618a4.67 4.67 0 0 1 1.508-1.08c.585-.266 1.23-.394 1.938-.394.8 0 1.482.158 2.072.478a4.2 4.2 0 0 1 1.451 1.283c.377.54.65 1.147.82 1.838a7.1 7.1 0 0 1 .18 2.152h-6.723c.03.86.24 1.484.627 1.872zm2.9-5.094c-.304-.352-.77-.523-1.395-.523-.407 0-.748.07-1.02.215a1.96 1.96 0 0 0-.649.532 2.05 2.05 0 0 0-.343.674 3.3 3.3 0 0 0-.115.636h4.163c-.12-.672-.335-1.184-.64-1.534zm7.135-2.267v1.8h.035c.12-.3.285-.576.5-.833a3.14 3.14 0 0 1 .701-.657 3.37 3.37 0 0 1 .848-.42 2.95 2.95 0 0 1 .938-.15 1.87 1.87 0 0 1 .557.094v2.472l-.43-.066a4.8 4.8 0 0 0-.5-.025c-.468 0-.86.08-1.188.24a2.04 2.04 0 0 0-.785.667c-.2.282-.336.608-.422.982a5.63 5.63 0 0 0-.127 1.218v4.36h-2.56v-9.683h2.434zm6.733 7.277c.113.205.26.373.443.503a1.81 1.81 0 0 0 .618.293 2.87 2.87 0 0 0 .73.093 2.68 2.68 0 0 0 .57-.063 1.87 1.87 0 0 0 .539-.207c.16-.094.3-.22.407-.374s.162-.354.162-.593c0-.396-.256-.697-.766-.896s-1.224-.4-2.137-.602l-1.093-.306a3.64 3.64 0 0 1-.944-.471c-.275-.192-.5-.438-.666-.73s-.254-.652-.254-1.078c0-.625.12-1.136.352-1.535s.547-.716.93-.946.817-.394 1.298-.488a7.7 7.7 0 0 1 1.477-.14c.504 0 .994.048 1.467.15s.9.268 1.27.508a2.9 2.9 0 0 1 .928.944c.248.393.394.9.44 1.487H212.7c-.033-.512-.224-.857-.558-1.04s-.73-.27-1.2-.27a4.42 4.42 0 0 0-.467.028 1.67 1.67 0 0 0-.461.119.99.99 0 0 0-.353.275c-.095.12-.144.278-.144.476a.74.74 0 0 0 .252.581c.168.15.388.27.656.363.274.094.582.18.932.254l1.063.244a9.91 9.91 0 0 1 1.09.32c.354.125.672.3.945.495s.498.463.667.768.254.687.254 1.135c0 .638-.126 1.17-.37 1.6a3 3 0 0 1-.964 1.04 3.9 3.9 0 0 1-1.361.552c-.513.105-1.03.16-1.558.16-.54 0-1.07-.058-1.586-.168s-.98-.3-1.382-.563-.73-.608-1-1.04-.4-.97-.423-1.62h2.434c.004.288.06.535.174.74z" fill="#137BC1"/></svg>