<svg xmlns="http://www.w3.org/2000/svg" viewBox="0 0 254.1 269.2"><style><![CDATA[.C{opacity:0.5;fill:#fff}.J{opacity:0.5;fill:none;stroke:#000;stroke-width:2;stroke-miterlimit:10}]]></style><path d="M13.3 237.6c1.9-10.5 3.5-16.6 3.1-30.8V106.2h202.7v160.6L5 267.2s5.4-13.6 8.3-29.6z" opacity=".2" fill="#191919"/><linearGradient id="A" gradientUnits="userSpaceOnUse" x1="229.35" y1="50.221" x2="44.129" y2="231.104"><stop offset=".138" stop-color="#ff0"/><stop offset=".843" stop-color="#FAC212"/></linearGradient><path d="M14.3 48.2l-4.2 111.9s-2.3 35.2 8.6 44.9l48.9 30s23.1 18.1 37.9 20.9c0 0 43 9.6 63.4 9.7l56.4.5L230.1 51 14.3 48.2z" fill="url(#A)"/><path class="C" d="M229.6 76.8L13.4 71.5l.9-23.2L230.1 51z"/><linearGradient id="B" gradientUnits="userSpaceOnUse" x1="71.947" y1="202.305" x2="60.431" y2="225.111"><stop offset=".059" stop-color="#ff0"/><stop offset=".129" stop-color="#FCEA07"/><stop offset=".252" stop-color="#F9CB11"/><stop offset=".381" stop-color="#F6B318"/><stop offset=".517" stop-color="#F4A11E"/><stop offset=".664" stop-color="#F29721"/><stop offset=".843" stop-color="#F29422"/></linearGradient><path d="M15 199.9s6.7 13.9 30 1.5c0 0 26 44.7 58.2 53.9.1.1-46.4-12.8-88.2-55.4z" fill="url(#B)"/><ellipse transform="matrix(.4568 -.8896 .8896 .4568 14.0275 148.843903)" cx="128.9" cy="62.9" rx="18.4" ry="11" opacity=".1" fill="#191919"/><radialGradient id="C" cx="445.42" cy="101.862" r="1.162" gradientTransform="matrix(0.4758 0.8795 -0.8795 0.4758 7.0797 -378.3929)" gradientUnits="userSpaceOnUse"><stop offset="0"/><stop offset=".189" stop-color="#030303"/><stop offset=".322" stop-color="#0C0C0C"/><stop offset=".438" stop-color="#1C1C1C"/><stop offset=".545" stop-color="#323232"/><stop offset=".645" stop-color="#4E4E4E"/><stop offset=".74" stop-color="#717171"/><stop offset=".831" stop-color="#9B9B9B"/><stop offset=".917" stop-color="#CACACA"/><stop offset="1" stop-color="#fff"/></radialGradient><path d="M130.5 62.6c-.3.4-1 .4-1.6 0s-.9-1.1-.6-1.5 1-.4 1.6 0 .9 1.1.6 1.5z" fill="url(#C)"/><linearGradient id="D" gradientUnits="userSpaceOnUse" x1="133.584" y1="59.563" x2="130.009" y2="57.844"><stop offset="0" stop-color="#E5E2DF"/><stop offset="0" stop-color="#DED9D6"/><stop offset=".063" stop-color="#CFCAC9"/><stop offset=".183" stop-color="#A8A4A7"/><stop offset=".264" stop-color="#8B878D"/><stop offset=".523" stop-color="#F3F4F4"/><stop offset=".584" stop-color="#E5E5E6"/><stop offset=".703" stop-color="#C0BEC0"/><stop offset=".865" stop-color="#858085"/><stop offset=".876" stop-color="#807B80"/><stop offset="1" stop-color="#D1D3D4"/><stop offset="1" stop-color="#A7A9AC"/></linearGradient><path d="M133 54.9l-4.6 6.7s.5 1 1.5.9l5.1-7.2-2-.4z" fill="url(#D)"/><linearGradient id="E" gradientUnits="userSpaceOnUse" x1="148.981" y1="47.793" x2="124.315" y2="39.174"><stop offset=".185" stop-color="red"/><stop offset=".755" stop-color="#8C171B"/></linearGradient><path d="M144.6 47.8l6.9-12.5-7.9-3.3-7.4 10.4c-5.8-.7-9.4 4.3-9.4 4.3s.9 4.7 6.6 8.9 10.5 2.3 10.5 2.3 3.5-5.2.7-10.1z" fill="url(#E)"/><linearGradient id="F" gradientUnits="userSpaceOnUse" x1="153.491" y1="25.352" x2="141.675" y2="42.305"><stop offset=".185" stop-color="red"/><stop offset=".755" stop-color="#8C171B"/></linearGradient><path d="M156.1 36c-1.5 2.4-5.8 2.4-9.7 0s-5.8-6.3-4.3-8.7 5.8-2.4 9.7 0c3.8 2.4 5.8 6.3 4.3 8.7z" fill="url(#F)"/><path class="C" d="M154.6 36.4s-.2 0-.5.1h-1.7c-.1 0-.3 0-.4-.1-.2 0-.3-.1-.5-.1s-.3-.1-.5-.1l-1-.3c-.3-.1-.7-.3-1-.4-.3-.2-.6-.3-.9-.6-.3-.2-.6-.4-.8-.6-.3-.2-.5-.4-.7-.7l-.6-.6c-.2-.2-.3-.4-.5-.6-.1-.2-.2-.3-.3-.5-.2-.3-.3-.4-.3-.4s.1.1.4.3l.4.4c.2.1.3.3.5.5s.4.4.6.5a3.04 3.04 0 0 0 .7.5l.9.6c.3.2.6.3.9.5.3.1.6.3.9.4s.6.3.9.4c.2.1.3.1.4.2s.3.1.4.1c.3.1.6.2.8.2.3.1.5.1.7.1s.4.1.5.1c.5.1.7.1.7.1z"/><ellipse transform="matrix(.829 -.5593 .5593 .829 -3.8669 85.424301)" class="C" cx="137.8" cy="49" rx="1.6" ry="1"/><ellipse transform="matrix(.829 -.5593 .5593 .829 -5.9301 87.117401)" class="C" cx="139.5" cy="53.3" rx=".9" ry=".6"/><path class="J" d="M33.6 104.9h178m-178 30h178m-178 28h178m-178 27h178"/></svg>