<svg xmlns="http://www.w3.org/2000/svg" xmlns:xlink="http://www.w3.org/1999/xlink" viewBox="0 0 512.004 512.004" width="512" height="512"><g fill="#fff"><use xlink:href="#B"/><path d="M298.677 145.07a8.53 8.53 0 0 0 3.866-.93c.503-.256 50.73-25.77 75.503-33.596 4.5-1.425 6.98-6.22 5.555-10.7-1.417-4.5-6.178-7-10.7-5.572-26.095 8.252-75.98 33.596-78.097 34.67a8.54 8.54 0 0 0-3.738 11.477c1.5 2.952 4.514 4.66 7.62 4.66zm204.793-17.066a8.53 8.53 0 0 0-8.533 8.533v332.8c0 14.114-11.486 25.6-25.6 25.6h-204.8v-19.635c12.442-4.352 44.85-14.498 76.8-14.498 74.334 0 124.8 16.46 125.312 16.63 2.568.853 5.436.427 7.68-1.178 2.227-1.604 3.54-4.18 3.54-6.92V93.87a8.52 8.52 0 0 0-6.682-8.329s-6.7-1.493-18.125-3.593c-4.617-.853-9.08 2.22-9.933 6.844-.853 4.642 2.2 9.088 6.844 9.94l10.83 2.074v357.188c-19.337-5.07-62.276-14.26-119.467-14.26-37.18 0-73.702 12.2-85 16.35-10.044-4.437-40.405-16.35-77.133-16.35-58.778 0-107.196 9.694-128 14.618v-357.88c17.04-4.2 67.37-15.138 128-15.138 31.113 0 57.796 9.685 68.267 14.063V435.2c0 3.072 1.655 5.914 4.326 7.424 2.67 1.52 5.965 1.476 8.602-.1.845-.503 85.393-51.004 160.435-76.015a8.52 8.52 0 0 0 5.837-8.098V8.537a8.53 8.53 0 0 0-3.678-7.014c-2.287-1.596-5.222-1.963-7.86-.98-68.275 25.608-137.36 68.6-138.052 69.026-3.994 2.5-5.214 7.765-2.714 11.76 2.492 3.994 7.757 5.214 11.76 2.714.63-.4 60.732-37.794 123.477-63.027v331.28c-58.25 20.24-119.066 53.3-145.067 68.087V93.87a8.54 8.54 0 0 0-4.719-7.637c-1.468-.725-36.437-17.963-80.614-17.963-77.107 0-136.388 16.683-138.88 17.4a8.53 8.53 0 0 0-6.187 8.201v375.467a8.57 8.57 0 0 0 3.388 6.81c1.502 1.135 3.3 1.724 5.146 1.724a8.41 8.41 0 0 0 2.338-.333c.6-.162 59.597-16.734 134.195-16.734 31.198 0 57.856 9.7 68.267 14.07v20.062H42.67c-14.114 0-25.6-11.486-25.6-25.6v-332.8a8.54 8.54 0 0 0-8.533-8.533 8.54 8.54 0 0 0-8.533 8.533v332.8c0 23.526 19.14 42.667 42.667 42.667h426.667c23.526 0 42.667-19.14 42.667-42.667v-332.8c-.001-4.7-3.815-8.534-8.534-8.534z"/><use xlink:href="#B" y="-51.2"/><use xlink:href="#B" y="51.2"/><path d="M206.748 158.366C154.055 146 94.176 161.754 91.66 162.428a8.54 8.54 0 0 0-6.033 10.453c1.024 3.814 4.47 6.323 8.235 6.323.734 0 1.476-.094 2.22-.3.572-.162 58.223-15.326 106.778-3.934 4.565 1.067 9.182-1.775 10.257-6.366 1.074-4.582-1.776-9.173-6.367-10.248zm0 51.2c-52.693-12.356-112.572 3.388-115.1 4.062a8.54 8.54 0 0 0-6.033 10.453c1.024 3.814 4.47 6.323 8.235 6.323.734 0 1.476-.094 2.22-.3.572-.162 58.223-15.326 106.778-3.934 4.565 1.067 9.182-1.775 10.257-6.366 1.074-4.582-1.776-9.173-6.367-10.248zm84.3 135.634a8.56 8.56 0 0 0 7.62 4.659 8.53 8.53 0 0 0 3.866-.93c.503-.256 50.73-25.77 75.503-33.596a8.52 8.52 0 0 0 5.555-10.7 8.53 8.53 0 0 0-10.709-5.572c-26.095 8.252-75.98 33.596-78.097 34.67a8.54 8.54 0 0 0-3.738 11.477zm-84.3-84.444c-52.693-12.356-112.572 3.38-115.1 4.062a8.54 8.54 0 0 0-6.033 10.453c1.024 3.814 4.47 6.332 8.235 6.332a8.61 8.61 0 0 0 2.22-.3c.572-.162 58.223-15.326 106.778-3.934 4.565 1.067 9.182-1.775 10.257-6.366 1.074-4.582-1.776-9.173-6.367-10.248zm-.01 102.4c-52.693-12.365-112.572 3.388-115.1 4.062a8.54 8.54 0 0 0-6.033 10.453c1.024 3.814 4.47 6.332 8.235 6.332a8.62 8.62 0 0 0 2.22-.3c.572-.162 58.223-15.326 106.778-3.934 4.565 1.058 9.182-1.775 10.257-6.366 1.074-4.582-1.776-9.173-6.367-10.248zm0-51.2c-52.693-12.365-112.572 3.38-115.1 4.062a8.54 8.54 0 0 0-6.033 10.453c1.024 3.814 4.47 6.332 8.235 6.332a8.61 8.61 0 0 0 2.22-.3c.572-.162 58.223-15.326 106.778-3.934 4.565 1.067 9.182-1.775 10.257-6.366 1.074-4.582-1.776-9.173-6.367-10.248z"/></g><defs ><path id="B" d="M291.057 242.81a8.56 8.56 0 0 0 7.62 4.659c1.297 0 2.628-.3 3.866-.93.503-.256 50.73-25.77 75.503-33.596 4.49-1.425 6.98-6.22 5.555-10.71-1.417-4.49-6.178-6.99-10.71-5.572-26.095 8.252-75.98 33.596-78.097 34.67a8.54 8.54 0 0 0-3.738 11.477z"/></defs></svg>