<svg xmlns="http://www.w3.org/2000/svg" width="7" height="8" viewBox="0 0 6.385 7.926"><path d="M5.69 2.62H5.21v-.603A2.02 2.02 0 0 0 3.189 0a2.02 2.02 0 0 0-2.016 2.017v.603H.687A.69.69 0 0 0 0 3.306v3.93a.69.69 0 0 0 .687.69h5.005c.38 0 .693-.31.693-.7v-3.93c0-.376-.313-.686-.694-.686zm-3.607-.603c0-.61.494-1.106 1.105-1.106a1.11 1.11 0 0 1 1.107 1.106v.603H2.084v-.603zm1.48 4.092V7.11c0 .044-.037.074-.078.074h-.48c-.036 0-.072-.03-.072-.074V6.11a.88.88 0 0 1-.566-.821c0-.485.395-.88.883-.88a.88.88 0 0 1 .879.881c-.002.378-.237.693-.566.82z" fill="#CECECE"/></svg>