<svg xmlns="http://www.w3.org/2000/svg" xmlns:xlink="http://www.w3.org/1999/xlink" width="43" height="43" viewBox="0 0 42.167 42.583"><defs><path id="A" d="M9.842-22.37l42.42 41.347L19.46 52.63-22.96 11.283z"/></defs><clipPath id="B"><use xlink:href="#A"/></clipPath><g clip-path="url(#B)"><linearGradient id="C" gradientUnits="userSpaceOnUse" x1="25.871" y1="26.105" x2="240.822" y2="241.056"><stop offset=".02" stop-color="#FFE180"/><stop offset=".98" stop-color="#FFE06A"/></linearGradient><g fill-rule="evenodd"><path d="M234.8 247.035L19.844 32.077l12-12 214.958 214.958z" fill="url(#C)"/><path d="M31.845 20.075L246.8 235.032l-2.477 2.477L29.368 22.552zm-7.253 7.255l214.956 214.957-4.747 4.746L19.845 32.076z" fill="#FFCB05"/></g><linearGradient id="D" gradientUnits="userSpaceOnUse" x1="31.914" y1="20.159" x2="19.914" y2="32.16"><stop offset="0" stop-color="#855253"/><stop offset=".38" stop-color="#F58220"/><stop offset="1" stop-color="#562D28"/></linearGradient><path d="M24.758 27.45c.13.525-.045 2.215-1.295 3.464s-3.18 1.6-3.62 1.162l-.826-1.318 11.35-11.47 1.476.787 1.16 1.16c-.692.854-2.3 1.713-3.49 1.444.175.503-.08 2.128-1.344 3.392-.936.934-2.15 1.523-3.41 1.378z" fill-rule="evenodd" fill="url(#D)"/><linearGradient id="E" gradientUnits="userSpaceOnUse" x1="-2.864" y1="5.881" x2="27.242" y2="26.961"><stop offset=".01" stop-color="#FED09E"/><stop offset=".99" stop-color="#F9A870"/></linearGradient><g fill-rule="evenodd"><path d="M24.222 26.915c.13.526.085 2.345-1.165 3.594s-3.006 1.414-3.453 1.2L.798 1.305l30.956 18.682.912.912c-.693.853-2.517 1.653-3.69 1.246.176.504.118 2.327-1.145 3.6-.71.71-1.678 1.086-2.46 1.216-.274.045-.79.034-1.15-.036z" fill="url(#E)"/><path d="M24.222 26.915c.13.526.085 2.345-1.165 3.594s-3.006 1.414-3.454 1.2L.798 1.305l25.887 25.23c-.446.214-.906.35-1.314.417-.274.045-.79.034-1.15-.036z" fill="#E89A66"/><path d="M23.477 30.008a3.83 3.83 0 0 1-.419.5 4.14 4.14 0 0 1-.685.553L.798 1.305l22.68 28.703z" fill="#D38856"/><path d="M30.457 22.16c-.522.122-1.046.138-1.48-.015.086.25.115.807-.024 1.466L.798 1.305l29.66 20.854z" fill="#FED09E"/><path d="M8.217 13.238L.798 1.305l14.838 8.918c-1.456 2.848-5.305 4.434-7.42 3.015z" fill="#FFCB05"/><path d="M10.653 13.733a4.46 4.46 0 0 1-.838.023L.798 1.305l9.855 12.428z" fill="#B78035"/><path d="M15.622 10.25c-.602 1.16-1.6 2.11-2.716 2.726L.798 1.305l14.824 8.946z" fill="#FFF685"/><path d="M14.974 11.244a6.66 6.66 0 0 1-.698.746L.798 1.305l14.176 9.94z" fill="#fff"/></g></g></svg>