<svg xmlns="http://www.w3.org/2000/svg" xmlns:xlink="http://www.w3.org/1999/xlink" width="43" height="43" viewBox="0 0 42.167 42.583"><defs><path id="A" d="M9.842-22.37l42.42 41.347L19.46 52.63-22.96 11.283z"/></defs><clipPath id="B"><use xlink:href="#A"/></clipPath><g clip-path="url(#B)"><g fill-rule="evenodd"><path d="M31.862 20.19L246.82 235.146l-12 12L19.86 32.2z" fill="#6DC3F7"/><path d="M31.86 20.19l214.957 214.957-2.478 2.478L29.384 22.666z" fill="#2691E0"/><path d="M24.607 27.442L239.564 242.4l-4.747 4.746L19.86 32.19z" fill="#1B61BB"/></g><linearGradient id="C" gradientUnits="userSpaceOnUse" x1="31.918" y1="20.248" x2="19.917" y2="32.249"><stop offset="0" stop-color="#855253"/><stop offset=".38" stop-color="#F58220"/><stop offset="1" stop-color="#562D28"/></linearGradient><path d="M24.775 27.564c.13.526-.044 2.215-1.294 3.464S20.3 32.63 19.86 32.19l-.826-1.318 11.352-11.47 1.475.787 1.16 1.16c-.69.854-2.3 1.714-3.49 1.445.175.504-.08 2.128-1.344 3.392-.934.933-2.15 1.523-3.4 1.377z" fill-rule="evenodd" fill="url(#C)"/><linearGradient id="D" gradientUnits="userSpaceOnUse" x1="-2.86" y1="5.97" x2="27.244" y2="27.049"><stop offset=".01" stop-color="#FED09E"/><stop offset=".99" stop-color="#F9A870"/></linearGradient><g fill-rule="evenodd"><path d="M24.24 27.027c.13.527.083 2.346-1.165 3.595s-3.006 1.413-3.452 1.2L.816 1.418 31.77 20.1l.912.912c-.69.852-2.516 1.653-3.69 1.247.176.504.12 2.326-1.145 3.59-.708.708-1.677 1.088-2.46 1.216a3.91 3.91 0 0 1-1.15-.037z" fill="url(#D)"/><path d="M24.24 27.027c.13.527.085 2.345-1.165 3.594s-3.006 1.414-3.453 1.2L.816 1.418 26.7 26.647a4.9 4.9 0 0 1-1.313.417c-.273.045-.788.034-1.15-.037z" fill="#E89A66"/><path d="M23.494 30.122c-.122.173-.26.34-.42.5a4.15 4.15 0 0 1-.686.553L.816 1.418l22.678 28.704z" fill="#D38856"/><path d="M30.474 22.272c-.522.122-1.045.137-1.48-.014.086.247.115.807-.022 1.465L.816 1.418l29.658 20.854z" fill="#FED09E"/><path d="M8.234 13.352L.816 1.418l14.837 8.92c-1.456 2.847-5.304 4.434-7.42 3.015z" fill="#2691E0"/><path d="M10.67 13.845c-.285.034-.565.044-.838.024L.816 1.418l9.855 12.427z" fill="#1B61BB"/><path d="M15.64 10.364c-.603 1.16-1.602 2.11-2.716 2.728L.816 1.418l14.824 8.946z" fill="#6DC3F7"/><path d="M14.99 11.356a6.6 6.6 0 0 1-.699.748L.816 1.418l14.175 9.938z" fill="#fff"/></g></g></svg>