<svg xmlns="http://www.w3.org/2000/svg" width="489" height="489" viewBox="0 0 488.446 488.445"><path d="M153.03 90.223h182.404a9.9 9.9 0 0 0 9.873-9.87V0h-202.17v80.354c0 5.44 4.434 9.87 9.892 9.87zm327.787 32.64L377.88 19.494v60.858c0 23.404-19.043 42.447-42.446 42.447H153.03c-23.4 0-42.447-19.043-42.447-42.447V0h-65.76C20.068 0 .002 20.07.002 44.808v398.83c0 24.735 20.066 44.808 44.82 44.808h398.812c24.74 0 44.8-20.067 44.8-44.808V141.325a26.13 26.13 0 0 0-7.627-18.46zm-68.356 262.8c0 14.435-11.703 26.154-26.168 26.154H102.137c-14.45 0-26.153-11.722-26.153-26.154v-136.36c0-14.43 11.702-26.148 26.153-26.148h284.156c14.465 0 26.168 11.72 26.168 26.148v136.362zM356.497 265.13H131.95c-9.008 0-16.294 7.272-16.294 16.28s7.286 16.28 16.294 16.28H356.5a16.27 16.27 0 1 0-.001-32.559zm-32.56 65.134h-159.43a16.27 16.27 0 0 0-16.28 16.28c0 8.988 7.286 16.28 16.28 16.28h159.427a16.29 16.29 0 0 0 16.28-16.28 16.27 16.27 0 0 0-16.279-16.28z" fill="#6F6F6F"/></svg>