<?xml version="1.0" encoding="utf-8"?>
<!-- Generator: Adobe Illustrator 21.0.0, SVG Export Plug-In . SVG Version: 6.00 Build 0)  -->
<svg version="1.1" id="Layer_1" xmlns="http://www.w3.org/2000/svg" xmlns:xlink="http://www.w3.org/1999/xlink" x="0px" y="0px"
	 viewBox="0 0 48 48" enable-background="new 0 0 48 48" xml:space="preserve">
<g>
	<path fill="#3F529F" d="M1,42.75c0,1.657,1.343,3,3,3h39.834c1.657,0,3-1.343,3-3V5.303c0-1.657-1.343-3-3-3H4
		c-1.657,0-3,1.343-3,3V42.75z"/>
</g>
<g>
	<path fill="#FFFFFF" d="M23.296,22.294H20.23c0.493-0.706,0.767-1.556,0.767-2.445c0-2.358-1.92-4.278-4.278-4.278
		s-4.278,1.92-4.278,4.278c0,0.889,0.274,1.738,0.767,2.445H9.531c-1.428,0-2.59,1.162-2.59,2.591v5.162
		c0,0.27,0.177,0.507,0.435,0.585c0.26,0.08,0.537-0.023,0.686-0.247c0.569-0.857,1.521-1.368,2.547-1.368
		c1.685,0,3.056,1.371,3.056,3.056s-1.371,3.056-3.056,3.056c-1.026,0-1.978-0.512-2.547-1.368
		c-0.149-0.225-0.426-0.326-0.686-0.247c-0.258,0.078-0.435,0.315-0.435,0.585v4.551c0,1.428,1.162,2.59,2.59,2.59h13.765
		c1.428,0,2.59-1.162,2.59-2.59V34.8c0-0.241-0.142-0.46-0.362-0.558c-0.221-0.098-0.477-0.057-0.657,0.103
		c-0.563,0.505-1.286,0.783-2.036,0.783c-1.685,0-3.056-1.371-3.056-3.056s1.371-3.056,3.056-3.056c0.75,0,1.473,0.278,2.036,0.783
		c0.18,0.161,0.436,0.202,0.657,0.103c0.221-0.098,0.363-0.317,0.363-0.558v-4.461C25.886,23.457,24.724,22.294,23.296,22.294z
		 M24.664,28.21c-0.569-0.271-1.194-0.416-1.833-0.416c-2.358,0-4.278,1.92-4.278,4.278s1.92,4.278,4.278,4.278
		c0.64,0,1.264-0.144,1.833-0.416v2.714c0,0.754-0.614,1.368-1.368,1.368H9.531c-0.754,0.001-1.368-0.613-1.368-1.367v-3.066
		c0.706,0.493,1.556,0.767,2.445,0.767c2.358,0,4.278-1.92,4.278-4.278s-1.92-4.278-4.278-4.278c-0.889,0-1.738,0.274-2.445,0.767
		v-3.677c0-0.754,0.614-1.368,1.368-1.368h5.162c0.27,0,0.507-0.177,0.585-0.435c0.078-0.258-0.022-0.537-0.246-0.686
		c-0.857-0.569-1.368-1.521-1.368-2.547c0-1.685,1.371-3.056,3.056-3.056s3.056,1.371,3.056,3.056c0,1.025-0.512,1.977-1.368,2.547
		c-0.224,0.149-0.325,0.428-0.246,0.686c0.078,0.258,0.315,0.435,0.585,0.435h4.551c0.754,0,1.368,0.614,1.368,1.368V28.21z"/>
	<path fill="#FFFFFF" d="M43.333,9.735c-0.289-0.529-0.766-0.914-1.344-1.084L31.004,5.426c-0.579-0.171-1.189-0.105-1.718,0.184
		c-0.529,0.289-0.914,0.767-1.084,1.346l-0.664,2.262c-0.447-0.501-1.032-0.876-1.697-1.072c-1.936-0.567-3.975,0.545-4.544,2.481
		c-0.275,0.938-0.169,1.928,0.299,2.786c0.468,0.859,1.243,1.483,2.181,1.758c0.667,0.194,1.36,0.196,2.007,0.016l-0.808,2.751
		c-0.169,0.578-0.104,1.188,0.185,1.717c0.289,0.529,0.766,0.914,1.344,1.084l2.263,0.664c-0.501,0.447-0.876,1.032-1.072,1.697
		c-0.568,1.936,0.545,3.975,2.481,4.544c0.342,0.1,0.691,0.15,1.036,0.15c0.604,0,1.203-0.152,1.749-0.449
		c0.858-0.469,1.483-1.243,1.758-2.181c0.195-0.666,0.196-1.36,0.016-2.007l2.751,0.807c0.578,0.17,1.189,0.105,1.718-0.184
		c0.529-0.289,0.914-0.767,1.084-1.345l1.21-4.119c0.076-0.259-0.026-0.537-0.252-0.684c-0.225-0.147-0.521-0.13-0.727,0.043
		c-0.629,0.527-1.472,0.707-2.258,0.475c-1.289-0.378-2.031-1.736-1.652-3.026c0.183-0.625,0.599-1.141,1.171-1.453
		c0.571-0.312,1.23-0.384,1.855-0.199c0.785,0.23,1.398,0.835,1.642,1.62c0.079,0.256,0.317,0.43,0.584,0.43
		c0.001,0,0.003,0,0.005,0c0.269-0.002,0.505-0.18,0.582-0.439l1.066-3.631C43.687,10.875,43.622,10.265,43.333,9.735z
		 M42.344,11.109l-0.664,2.263c-0.447-0.501-1.032-0.876-1.697-1.071c-0.939-0.277-1.928-0.17-2.786,0.299
		c-0.858,0.469-1.483,1.243-1.758,2.181c-0.275,0.938-0.169,1.928,0.299,2.786s1.243,1.483,2.181,1.758
		c0.666,0.194,1.359,0.196,2.007,0.015l-0.809,2.751c-0.078,0.265-0.254,0.484-0.497,0.617c-0.242,0.133-0.521,0.163-0.787,0.084
		l-4.119-1.209c-0.26-0.076-0.537,0.026-0.684,0.252c-0.147,0.226-0.13,0.521,0.043,0.727c0.528,0.628,0.705,1.472,0.474,2.258
		c-0.183,0.625-0.599,1.14-1.171,1.453c-0.571,0.312-1.23,0.382-1.855,0.2c-1.29-0.38-2.031-1.737-1.653-3.027
		c0.23-0.785,0.836-1.399,1.62-1.643c0.258-0.08,0.432-0.318,0.43-0.589c-0.002-0.269-0.18-0.505-0.439-0.582l-3.632-1.066
		c-0.265-0.078-0.484-0.254-0.617-0.497s-0.163-0.522-0.084-0.788l1.209-4.12c0.076-0.259-0.027-0.537-0.252-0.684
		c-0.102-0.066-0.218-0.099-0.334-0.099c-0.14,0-0.281,0.048-0.394,0.143c-0.628,0.529-1.473,0.707-2.257,0.475h-0.001
		c-0.625-0.183-1.14-0.599-1.453-1.171c-0.312-0.572-0.383-1.231-0.2-1.855c0.38-1.289,1.741-2.034,3.027-1.653
		c0.785,0.23,1.399,0.836,1.643,1.62c0.079,0.256,0.317,0.43,0.584,0.43c0.002,0,0.004,0,0.005,0c0.27-0.002,0.506-0.181,0.582-0.44
		l1.066-3.631c0.078-0.265,0.254-0.484,0.497-0.617s0.522-0.163,0.787-0.084l10.984,3.226c0.266,0.078,0.484,0.254,0.617,0.497
		C42.392,10.564,42.422,10.843,42.344,11.109z"/>
</g>
</svg>
