<?xml version="1.0" encoding="utf-8"?>
<!-- Generator: Adobe Illustrator 21.0.0, SVG Export Plug-In . SVG Version: 6.00 Build 0)  -->
<svg version="1.1" id="Layer_1" xmlns="http://www.w3.org/2000/svg" xmlns:xlink="http://www.w3.org/1999/xlink" x="0px" y="0px"
	 viewBox="0 0 48 48" style="enable-background:new 0 0 48 48;" xml:space="preserve">
<style type="text/css">
	.st0{fill:#3FCEEF;}
	.st1{fill:#FFFFFF;}
</style>
<g>
	<path class="st0" d="M1,42.8c0,1.7,1.3,3,3,3h39.8c1.7,0,3-1.3,3-3V5.3c0-1.7-1.3-3-3-3H4c-1.7,0-3,1.3-3,3V42.8z"/>
</g>
<g>
	<g>
		<path class="st1" d="M34,16.6l-0.2,0.7h-0.3c0.3,0.4,0.4,0.9,0.4,1.5c0,1.8-1.3,3.1-3.1,3.1c-1.5,0-2.7-1.2-2.7-2.8
			c0-0.8,0.3-1.5,0.8-2.1l0.1-1c0-0.2,0-0.4,0.1-0.5c0.1-0.7,0.4-1.4,0.8-2.1c-1.8-0.8-3.8-1.2-5.9-1.2c-7,0-12.6,4.5-12.6,12.4
			S17,38.9,23.9,38.9c7,0,12.6-6.4,12.6-14.4C36.5,21.3,35.6,18.6,34,16.6z M23.9,37c-6,0-10.9-5.6-10.9-12.4h3.8l4.9-3.7l-2,3.7
			c0,0,9.8,2,15.1,0C34.8,31.4,29.9,37,23.9,37z"/>
		<path class="st1" d="M21.4,28.9c0-0.9-0.7-1.6-1.6-1.6c-0.9,0-1.6,0.7-1.6,1.6s0.7,1.6,1.6,1.6C20.7,30.6,21.4,29.8,21.4,28.9z
			 M20.1,30c-0.5,0-0.8-0.4-0.8-0.8c0-0.5,0.4-0.8,0.8-0.8c0.5,0,0.8,0.4,0.8,0.8C21,29.6,20.6,30,20.1,30z"/>
		<path class="st1" d="M28.2,27.3c-0.9,0-1.6,0.7-1.6,1.6s0.7,1.6,1.6,1.6c0.9,0,1.6-0.7,1.6-1.6C29.9,28,29.1,27.3,28.2,27.3z
			 M27.9,30c-0.5,0-0.8-0.4-0.8-0.8c0-0.5,0.4-0.8,0.8-0.8c0.5,0,0.8,0.4,0.8,0.8C28.7,29.6,28.4,30,27.9,30z"/>
		<path class="st1" d="M32.4,9.3c0.9,0,1.2,0.4,1.2,0.9c0,0.7-0.8,1.3-1.6,2.2c-1.1,1.2-1.6,2.1-1.8,3.2c0,0.2,0,0.3-0.1,0.5h2.7
			c0-0.2,0.1-0.3,0.1-0.5c0.2-0.9,0.6-1.5,1.3-2.3c1.1-1.1,2.2-2.1,2.2-3.7c0-1.6-1.4-2.7-3.3-2.7c-1.5,0-2.6,0.4-3.3,0.8l0.4,2
			C30.8,9.6,31.5,9.3,32.4,9.3z"/>
		<path class="st1" d="M29.3,19.1c0,0.9,0.6,1.6,1.6,1.6c1.1,0,1.9-0.8,1.9-1.9c0-1-0.6-1.6-1.6-1.6C30,17.1,29.3,18.1,29.3,19.1z"
			/>
		<path class="st1" d="M25.4,32.3c-2-0.5-4.9,2-5,2.1L21,35c0.7-0.7,2.9-2.3,4.2-1.9c0.5,0.1,0.8,0.5,1,1.2l0.8-0.3
			C26.7,33.1,26.1,32.5,25.4,32.3z"/>
	</g>
</g>
</svg>
