<?xml version="1.0" encoding="utf-8"?>
<!-- Generator: Adobe Illustrator 16.0.0, SVG Export Plug-In . SVG Version: 6.00 Build 0)  -->
<!DOCTYPE svg PUBLIC "-//W3C//DTD SVG 1.1//EN" "http://www.w3.org/Graphics/SVG/1.1/DTD/svg11.dtd">
<svg version="1.1" id="Layer_1" xmlns="http://www.w3.org/2000/svg" xmlns:xlink="http://www.w3.org/1999/xlink" x="0px" y="0px"
	 width="48px" height="48px" viewBox="0 0 48 48" enable-background="new 0 0 48 48" xml:space="preserve">
<g>
	<path fill="#2C3E50" d="M1,42.75c0,1.657,1.343,3,3,3h39.834c1.657,0,3-1.343,3-3V5.303c0-1.657-1.343-3-3-3H4
		c-1.657,0-3,1.343-3,3V42.75z"/>
</g>
<path fill="#FFFFFF" d="M41.186,23.723c0-0.186-0.102-0.347-0.25-0.435c0.611-0.562,0.99-1.212,0.99-2.14
	c0-2.735-3.333-3.273-3.333-4.532c0,1.258-3.334,1.797-3.334,4.532c0,0.928,0.38,1.578,0.991,2.14
	C36.102,23.376,36,23.537,36,23.723c0,0.27,0.212,0.489,0.479,0.503v2.702C36.212,26.941,36,27.16,36,27.431
	s0.212,0.489,0.479,0.503v1.411h-6.25v-2.058h-0.717V25.87h-0.061c1.266-1.231,2.039-2.663,2.039-4.661
	c0-5.64-6.238-7.169-7.391-9.54c0.203,0.05,0.411,0.078,0.621,0.078c0.786,0,1.519-0.35,2.012-0.959
	c0.172-0.212,0.309-0.449,0.406-0.704l0.016-0.04l-0.035,0.023c-0.416,0.269-0.897,0.411-1.395,0.411
	c-0.583,0-1.154-0.203-1.609-0.57c-0.863-0.699-1.177-1.866-0.781-2.904l0.015-0.04l-0.035,0.023
	c-0.229,0.148-0.432,0.331-0.604,0.544c-0.435,0.537-0.635,1.211-0.562,1.898c0.072,0.688,0.408,1.305,0.945,1.74
	c0.208,0.168,0.44,0.3,0.687,0.397c-1.019,2.43-7.438,3.922-7.438,9.642c0,1.998,0.774,3.429,2.039,4.66h-0.06v1.418h-0.717v2.057
	h-6.25v-1.416c0.267-0.015,0.479-0.233,0.479-0.504c0-0.27-0.212-0.488-0.479-0.502v-2.703c0.267-0.014,0.479-0.233,0.479-0.502
	c0-0.186-0.102-0.347-0.251-0.435c0.612-0.562,0.992-1.212,0.992-2.14c0-2.735-3.334-3.274-3.334-4.532
	c0,1.258-3.333,1.797-3.333,4.532c0,0.928,0.38,1.578,0.992,2.14c-0.149,0.088-0.25,0.249-0.25,0.435
	c0,0.27,0.212,0.488,0.478,0.502v2.703c-0.266,0.014-0.478,0.232-0.478,0.502c0,0.271,0.212,0.488,0.478,0.504v1.416H7.124v9.354
	h4.153v-3.605c0-1.497,2.145-2.479,2.145-2.479s2.145,0.981,2.145,2.479v3.605h5.344V33.55c0-2.099,3.007-3.474,3.007-3.474
	s3.007,1.375,3.007,3.474v5.147h5.344v-3.605c0-1.497,2.145-2.479,2.145-2.479s2.145,0.981,2.145,2.479v3.605h4.153v-9.353h-0.003
	v-1.411c0.267-0.014,0.479-0.232,0.479-0.503s-0.212-0.489-0.479-0.503v-2.702C40.974,24.211,41.186,23.993,41.186,23.723z"/>
</svg>
