<?xml version="1.0" encoding="utf-8"?>
<!-- Generator: Adobe Illustrator 16.0.0, SVG Export Plug-In . SVG Version: 6.00 Build 0)  -->
<!DOCTYPE svg PUBLIC "-//W3C//DTD SVG 1.1//EN" "http://www.w3.org/Graphics/SVG/1.1/DTD/svg11.dtd">
<svg version="1.1" id="Layer_1" xmlns="http://www.w3.org/2000/svg" xmlns:xlink="http://www.w3.org/1999/xlink" x="0px" y="0px"
	 width="48px" height="48px" viewBox="0 0 48 48" enable-background="new 0 0 48 48" xml:space="preserve">
<g>
	<path fill="#366372" d="M1,42.75c0,1.657,1.343,3,3,3h39.834c1.657,0,3-1.343,3-3V5.303c0-1.657-1.343-3-3-3H4
		c-1.657,0-3,1.343-3,3V42.75z"/>
</g>
<g>
	<g>
		<path fill="#FFFFFF" d="M15.075,13.538H9.019C7.903,13.538,7,14.443,7,15.557v22.206c0,1.116,0.903,2.019,2.019,2.019h6.057
			c1.116,0,2.018-0.902,2.018-2.019V15.557C17.093,14.443,16.191,13.538,15.075,13.538z M10.028,33.725
			c-0.558,0-1.01-0.451-1.01-1.009c0-0.559,0.452-1.01,1.01-1.01c0.558,0,1.009,0.451,1.009,1.01
			C11.038,33.273,10.586,33.725,10.028,33.725z M15.075,21.612H9.019v-2.018h6.057V21.612L15.075,21.612z M15.075,17.576H9.019
			v-2.019h6.057V17.576L15.075,17.576z"/>
		<path fill="#FFFFFF" d="M28.197,35.744v-2.02H22.14v2.02c-1.116,0-2.019,0.902-2.019,2.019h10.094
			C30.216,36.646,29.312,35.744,28.197,35.744z"/>
		<path fill="#FFFFFF" d="M37.281,9.5H13.056c-1.116,0-2.019,0.905-2.019,2.019h2.019h6.056h18.169v16.15H19.112v4.037h18.169
			c1.115,0,2.018-0.902,2.018-2.019V11.519C39.299,10.405,38.396,9.5,37.281,9.5z M25.169,30.697c-0.558,0-1.01-0.452-1.01-1.01
			s0.452-1.01,1.01-1.01c0.558,0,1.009,0.452,1.009,1.01S25.727,30.697,25.169,30.697z"/>
	</g>
</g>
</svg>
