<?xml version="1.0" encoding="utf-8"?>
<!-- Generator: Adobe Illustrator 16.0.0, SVG Export Plug-In . SVG Version: 6.00 Build 0)  -->
<!DOCTYPE svg PUBLIC "-//W3C//DTD SVG 1.1//EN" "http://www.w3.org/Graphics/SVG/1.1/DTD/svg11.dtd">
<svg version="1.1" id="Layer_1" xmlns="http://www.w3.org/2000/svg" xmlns:xlink="http://www.w3.org/1999/xlink" x="0px" y="0px"
	 width="48px" height="48px" viewBox="0 0 48 48" enable-background="new 0 0 48 48" xml:space="preserve">
<g>
	<path fill="#F9BE2D" d="M1,42.75c0,1.657,1.343,3,3,3h39.834c1.657,0,3-1.343,3-3V5.303c0-1.657-1.343-3-3-3H4
		c-1.657,0-3,1.343-3,3V42.75z"/>
</g>
<g>
	<rect x="10.414" y="31.011" fill="#FFFFFF" width="6.519" height="6.521"/>
	<rect x="10.414" y="20.767" fill="#FFFFFF" width="6.519" height="6.52"/>
	<rect x="10.414" y="10.522" fill="#FFFFFF" width="6.519" height="6.519"/>
	<rect x="20.658" y="31.011" fill="#FFFFFF" width="6.518" height="6.521"/>
	<rect x="20.658" y="20.767" fill="#FFFFFF" width="6.518" height="6.52"/>
	<rect x="20.658" y="10.522" fill="#FFFFFF" width="6.518" height="6.519"/>
	<rect x="30.902" y="31.011" fill="#FFFFFF" width="6.518" height="6.521"/>
	<rect x="30.902" y="20.767" fill="#FFFFFF" width="6.518" height="6.52"/>
	<rect x="30.902" y="10.522" fill="#FFFFFF" width="6.518" height="6.519"/>
</g>
</svg>
