<?xml version="1.0" encoding="utf-8"?>
<!-- Generator: Adobe Illustrator 16.0.0, SVG Export Plug-In . SVG Version: 6.00 Build 0)  -->
<!DOCTYPE svg PUBLIC "-//W3C//DTD SVG 1.1//EN" "http://www.w3.org/Graphics/SVG/1.1/DTD/svg11.dtd">
<svg version="1.1" id="Layer_1" xmlns="http://www.w3.org/2000/svg" xmlns:xlink="http://www.w3.org/1999/xlink" x="0px" y="0px"
	 width="48px" height="48px" viewBox="0 0 48 48" enable-background="new 0 0 48 48" xml:space="preserve">
<g>
	<path fill="#7F8C8D" d="M1,42.75c0,1.657,1.343,3,3,3h39.834c1.657,0,3-1.343,3-3V5.303c0-1.657-1.343-3-3-3H4
		c-1.657,0-3,1.343-3,3V42.75z"/>
</g>
<g>
	<path fill="#FFFFFF" d="M38.644,31.251c-0.057-0.178-0.212-0.308-0.396-0.334l-3.785-0.53l-1.689-3.3
		c-0.166-0.325-0.699-0.325-0.865,0l-1.689,3.3l-3.785,0.53c-0.186,0.026-0.34,0.156-0.396,0.334
		c-0.056,0.18-0.005,0.374,0.132,0.503l2.727,2.563l-0.643,3.614c-0.032,0.182,0.041,0.365,0.188,0.476
		c0.148,0.11,0.347,0.128,0.511,0.044l3.39-1.718l3.389,1.718c0.069,0.036,0.145,0.052,0.22,0.052c0.102,0,0.204-0.031,0.291-0.096
		c0.147-0.11,0.22-0.294,0.188-0.476l-0.644-3.614l2.728-2.563C38.649,31.625,38.7,31.43,38.644,31.251z M34.927,33.787
		c-0.119,0.113-0.175,0.278-0.146,0.44l0.519,2.913l-2.738-1.389c-0.07-0.033-0.145-0.052-0.221-0.052
		c-0.075,0-0.151,0.019-0.22,0.052l-2.739,1.389l0.518-2.913c0.03-0.162-0.025-0.327-0.146-0.44l-2.18-2.047l3.029-0.424
		c0.157-0.022,0.293-0.12,0.365-0.261l1.372-2.679l1.371,2.679c0.072,0.141,0.209,0.238,0.365,0.261l3.029,0.424L34.927,33.787z"/>
	<path fill="#FFFFFF" d="M19.2,20.009h9.732v-4.867H19.2V20.009z M20.66,16.116h6.814v0.974H20.66V16.116z M20.66,18.063h6.814
		v0.973H20.66V18.063z"/>
	<path fill="#FFFFFF" d="M22.815,30.229c0.056-0.179,0.21-0.31,0.396-0.335l6.052-0.848l2.644-5.163c0.166-0.325,0.7-0.325,0.865,0
		l0.541,1.056V9.303h-17.52h-4.867v29.199h4.867h10.874l0.651-3.663l-4.373-4.108C22.809,30.603,22.758,30.407,22.815,30.229z
		 M14.82,37.529H11.9V10.276h2.92V37.529z M18.227,14.169h11.68v6.813h-11.68V14.169z"/>
</g>
</svg>
