<?xml version="1.0" encoding="utf-8"?>
<!-- Generator: Adobe Illustrator 21.0.0, SVG Export Plug-In . SVG Version: 6.00 Build 0)  -->
<svg version="1.1" id="Isolation_Mode" xmlns="http://www.w3.org/2000/svg" xmlns:xlink="http://www.w3.org/1999/xlink" x="0px"
	 y="0px" viewBox="0 0 196.6 85.1" style="enable-background:new 0 0 196.6 85.1;" xml:space="preserve">
<style type="text/css">
	.st0{opacity:0.2;}
	.st1{fill:#B2B2B2;}
	.st2{fill:#FFFFFF;}
	.st3{fill:#9DD5FC;}
	.st4{opacity:0.15;fill:#9DD5FC;}
</style>
<g>
	<g class="st0">
		<path class="st1" d="M15.5,85.1c-8.3,0-15-6.8-15-15V22.5c0-8.2,6.8-15,15-15h165.6c8.3,0,15,6.8,15,15v47.6c0,8.3-6.8,15-15,15
			H15.5z"/>
	</g>
	<g>
		<g>
			<path class="st2" d="M15.5,78.1c-8.3,0-15-6.8-15-15V15.5c0-8.3,6.8-15,15-15h165.6c8.3,0,15,6.8,15,15v47.6c0,8.3-6.8,15-15,15
				H15.5z"/>
		</g>
		<path class="st3" d="M181.1,78.6H15.5C7,78.6,0,71.6,0,63.1V15.5C0,7,7,0,15.5,0h165.6c8.5,0,15.5,7,15.5,15.5v47.6
			C196.6,71.6,189.6,78.6,181.1,78.6z M15.5,1C7.5,1,1,7.5,1,15.5v47.6c0,8,6.5,14.5,14.5,14.5h165.6c8,0,14.5-6.5,14.5-14.5V15.5
			c0-8-6.5-14.5-14.5-14.5H15.5z"/>
	</g>
	<path class="st4" d="M177.3,72.5h-158c-6.6,0-12-5.4-12-12v-42c0-6.6,5.4-12,12-12h158c6.6,0,12,5.4,12,12v42
		C189.3,67.1,183.9,72.5,177.3,72.5z"/>
</g>
</svg>
