<?xml version="1.0" encoding="utf-8"?>
<!-- Generator: Adobe Illustrator 22.1.0, SVG Export Plug-In . SVG Version: 6.00 Build 0)  -->
<svg version="1.1" id="Isolation_Mode" xmlns="http://www.w3.org/2000/svg" xmlns:xlink="http://www.w3.org/1999/xlink" x="0px"
	 y="0px" viewBox="0 0 796.5 450.5" style="enable-background:new 0 0 796.5 450.5;" xml:space="preserve">
<style type="text/css">
	.st0{fill:none;stroke:#9DD5FC;stroke-width:0.5;stroke-miterlimit:22.9256;}
	.st1{opacity:0.5;fill:none;stroke:#9DD5FC;stroke-miterlimit:10;enable-background:new    ;}
	.st2{clip-path:url(#SVGID_2_);}
	.st3{opacity:0.2;}
	.st4{fill:#9DD5FC;}
</style>
<g>
	<path class="st0" d="M19.5,7H777c4.4,0,8,3.6,8,8v427.2c0,4.4-3.6,8-8,8H19.5c-4.4,0-8-3.6-8-8V15C11.5,10.6,15.1,7,19.5,7z"/>
	<path class="st1" d="M761.8,148.6h-339c-6.6,0-12-5.4-12-12v-42c0-6.6,5.4-12,12-12h339c6.6,0,12,5.4,12,12v42
		C773.8,143.2,768.4,148.6,761.8,148.6z"/>
	<g>
		<g>
			<defs>
				<rect id="SVGID_1_" y="-13.9" width="796.5" height="83.7"/>
			</defs>
			<clipPath id="SVGID_2_">
				<use xlink:href="#SVGID_1_"  style="overflow:visible;"/>
			</clipPath>
			<g class="st2">
				<g>
					<g class="st3">
						<path class="st4" d="M773.3,134.7H410.2c-4.4,0-8-3.6-8-8V18.3c0-4.4,3.6-8,8-8h363.1c4.4,0,8,3.6,8,8v108.4
							C781.3,131.1,777.7,134.7,773.3,134.7z"/>
					</g>
					<g class="st3">
						<path class="st4" d="M386.7,134.7H23.6c-4.4,0-8-3.6-8-8V18.3c0-4.4,3.6-8,8-8h363.1c4.4,0,8,3.6,8,8v108.4
							C394.7,131.1,391.1,134.7,386.7,134.7z"/>
					</g>
				</g>
			</g>
		</g>
	</g>
	<path class="st1" d="M761.8,221.1h-339c-6.6,0-12-5.4-12-12v-42c0-6.6,5.4-12,12-12h339c6.6,0,12,5.4,12,12v42
		C773.8,215.7,768.4,221.1,761.8,221.1z"/>
	<path class="st1" d="M761.8,293.6h-339c-6.6,0-12-5.4-12-12v-42c0-6.6,5.4-12,12-12h339c6.6,0,12,5.4,12,12v42
		C773.8,288.2,768.4,293.6,761.8,293.6z"/>
	<path class="st1" d="M761.8,366.1h-339c-6.6,0-12-5.4-12-12v-42c0-6.6,5.4-12,12-12h339c6.6,0,12,5.4,12,12v42
		C773.8,360.7,768.4,366.1,761.8,366.1z"/>
	<path class="st1" d="M761.8,438.6h-339c-6.6,0-12-5.4-12-12v-42c0-6.6,5.4-12,12-12h339c6.6,0,12,5.4,12,12v42
		C773.8,433.2,768.4,438.6,761.8,438.6z"/>
	<path class="st1" d="M373.8,148.6h-339c-6.6,0-12-5.4-12-12v-42c0-6.6,5.4-12,12-12h339c6.6,0,12,5.4,12,12v42
		C385.8,143.2,380.4,148.6,373.8,148.6z"/>
	<path class="st1" d="M373.8,221.1h-339c-6.6,0-12-5.4-12-12v-42c0-6.6,5.4-12,12-12h339c6.6,0,12,5.4,12,12v42
		C385.8,215.7,380.4,221.1,373.8,221.1z"/>
	<path class="st1" d="M373.8,293.6h-339c-6.6,0-12-5.4-12-12v-42c0-6.6,5.4-12,12-12h339c6.6,0,12,5.4,12,12v42
		C385.8,288.2,380.4,293.6,373.8,293.6z"/>
	<path class="st1" d="M373.8,366.1h-339c-6.6,0-12-5.4-12-12v-42c0-6.6,5.4-12,12-12h339c6.6,0,12,5.4,12,12v42
		C385.8,360.7,380.4,366.1,373.8,366.1z"/>
	<path class="st1" d="M373.8,438.6h-339c-6.6,0-12-5.4-12-12v-42c0-6.6,5.4-12,12-12h339c6.6,0,12,5.4,12,12v42
		C385.8,433.2,380.4,438.6,373.8,438.6z"/>
</g>
</svg>
