<svg xmlns="http://www.w3.org/2000/svg" viewBox="0 0 469.33 469.33" width="512" height="512"><path d="M160 0h-21.333A10.66 10.66 0 0 0 128 10.667V128H10.667A10.66 10.66 0 0 0 0 138.667V160a10.66 10.66 0 0 0 10.667 10.667H160A10.66 10.66 0 0 0 170.667 160V10.667A10.66 10.66 0 0 0 160 0zm298.667 128H341.333V10.667A10.66 10.66 0 0 0 330.667 0h-21.333a10.66 10.66 0 0 0-10.667 10.667V160a10.66 10.66 0 0 0 10.667 10.667h149.333A10.66 10.66 0 0 0 469.334 160v-21.333c-.001-5.896-4.77-10.667-10.667-10.667zm0 170.667H309.333a10.66 10.66 0 0 0-10.667 10.667v149.333a10.66 10.66 0 0 0 10.667 10.667h21.333a10.66 10.66 0 0 0 10.667-10.667V341.333h117.333a10.66 10.66 0 0 0 10.667-10.667v-21.333a10.66 10.66 0 0 0-10.666-10.666zm-298.667 0H10.667A10.66 10.66 0 0 0 0 309.333v21.333c0 5.896 4.77 10.667 10.667 10.667H128v117.333a10.66 10.66 0 0 0 10.667 10.667H160a10.66 10.66 0 0 0 10.667-10.667V309.333A10.66 10.66 0 0 0 160 298.667z" fill="#fff"/></svg>