<?xml version="1.0" encoding="utf-8"?>
<!-- Generator: Adobe Illustrator 19.2.0, SVG Export Plug-In . SVG Version: 6.00 Build 0)  -->
<svg version="1.1" id="Layer_1" xmlns:svgjs="http://svgjs.com/svgjs"
	 xmlns="http://www.w3.org/2000/svg" xmlns:xlink="http://www.w3.org/1999/xlink" x="0px" y="0px" viewBox="0 0 512 512"
	 style="enable-background:new 0 0 512 512;" xml:space="preserve">
<style type="text/css">
	.st0{fill:#4FB9C1;}
	.st1{fill:#FFFFFF;}
</style>
<path class="st0" d="M437.1,74.9C337.2-25,174.8-25,74.9,74.9s-99.9,262.3,0,362.2s262.3,99.9,362.2,0S537,174.8,437.1,74.9z"/>
<g>
	<g>
		<path class="st1" d="M403.7,294.8h-24.6c-7.4,0-12.3,4.9-12.3,12.3v30.8c0,3.7-2.5,6.2-6.2,6.2H151.4c-3.7,0-6.2-2.5-6.2-6.2
			v-30.8c0-7.4-4.9-12.3-12.3-12.3h-24.6c-7.4,0-12.3,4.9-12.3,12.3V381c0,7.4,4.9,12.3,12.3,12.3h295.4c7.4,0,12.3-4.9,12.3-12.3
			v-73.9C416,299.8,411.1,294.8,403.7,294.8z"/>
		<path class="st1" d="M190.8,209.9c2.5,2.5,4.9,3.7,8.6,3.7c3.7,0,6.2-1.2,8.6-3.7l12.3-12.3c3.7-3.7,11.1-1.2,11.1,4.9v81.2
			c0,7.4,4.9,12.3,12.3,12.3h24.6c7.4,0,12.3-4.9,12.3-12.3v-81.2c0-4.9,6.2-8.6,11.1-4.9l12.3,12.3c2.5,2.5,4.9,3.7,8.6,3.7
			c3.7,0,6.2-1.2,8.6-3.7l17.2-17.2c2.5-2.5,3.7-4.9,3.7-8.6s-1.2-6.2-3.7-8.6l-73.9-73.9c-2.5-2.5-6.2-3.7-8.6-3.7
			c-2.5,0-6.2,1.2-8.6,3.7l-73.9,73.9c-2.5,2.5-3.7,4.9-3.7,8.6s1.2,6.2,3.7,8.6L190.8,209.9z"/>
	</g>
</g>
</svg>
