<?xml version="1.0" encoding="utf-8"?>
<!-- Generator: Adobe Illustrator 21.0.0, SVG Export Plug-In . SVG Version: 6.00 Build 0)  -->
<svg version="1.1" id="Layer_1" xmlns="http://www.w3.org/2000/svg" xmlns:xlink="http://www.w3.org/1999/xlink" x="0px" y="0px"
	 viewBox="0 0 231.5 209.5" style="enable-background:new 0 0 231.5 209.5;" xml:space="preserve">
<style type="text/css">
	.st0{opacity:0.5;}
	.st1{fill:#FDE3CB;}
	.st2{fill:none;}
	.st3{clip-path:url(#SVGID_2_);}
	.st4{fill:#F5F5F6;}
	.st5{fill:#E8E8E9;}
	.st6{fill:url(#SVGID_3_);}
	.st7{fill:url(#SVGID_4_);}
	.st8{fill:#ED4391;}
	.st9{fill:#E10080;}
	.st10{fill:url(#SVGID_5_);}
	.st11{fill:url(#SVGID_6_);}
	.st12{fill:#FCCDA2;}
	.st13{fill:url(#SVGID_7_);}
	.st14{fill:url(#SVGID_8_);}
	.st15{fill:#B40058;}
	.st16{fill:#970048;}
	.st17{fill:#86003E;}
	.st18{fill:url(#SVGID_9_);}
	.st19{fill:url(#SVGID_10_);}
	.st20{fill:#FDE2CC;}
	.st21{fill:#FBC69C;}
	.st22{fill:#F9CED5;}
	.st23{fill:url(#SVGID_11_);}
	.st24{fill:#F0698D;}
	.st25{fill:#ED3779;}
	.st26{fill:#900042;}
	.st27{fill:#FBB980;}
	.st28{fill:url(#SVGID_12_);}
	.st29{fill:#F7B9C6;}
	.st30{fill:#C52A67;}
	.st31{fill:#EE477E;}
	.st32{fill:url(#SVGID_13_);}
	.st33{fill:#AE0055;}
	.st34{fill:#7A3F1B;}
	.st35{fill:#693412;}
	.st36{fill:#D00077;}
	.st37{fill:#B50068;}
	.st38{fill:#62300E;}
	.st39{fill:#55270A;}
	.st40{fill:url(#SVGID_14_);}
	.st41{fill:#63310F;}
	.st42{fill:#FCC99B;}
	.st43{fill:url(#SVGID_15_);}
	.st44{fill:#FFFFFF;}
	.st45{fill:#FBC08C;}
	.st46{fill:#905C39;}
	.st47{fill:#FCC696;}
	.st48{fill:#602D11;}
	.st49{fill:#481D00;}
	.st50{opacity:0.29;fill:#FFFFFF;}
	.st51{fill:#FFBC64;}
</style>
<g class="st0">
	<g>
		<g>
			<path class="st1" d="M166,164.7c-1.3,0.4-2.5,0.9-3.8,1.3c-3,1-6,1.3-9.1,1.7c1.2,0.2,2.4,0.5,3.6,0.7c5.1,0.8,10.1,0.7,15.2-0.7
				c6.2-1.8,11.7-5.4,16.2-10.6c2-2.3,3.9-4.6,5.7-7c2-2.7,3.5-5.8,4.8-9.1c0.1-0.2,0.2-0.5,0.3-0.7c0,0,0.1,0,0.3-0.2
				c-0.4,2-0.7,4-1.2,5.9c-1.2,4.7-3,9.1-5.6,13c-1.9,2.7-4.2,4.9-6.6,6.9c-4.5,3.6-9.4,5.9-14.6,7.1c-4.8,1.1-9.5,1.1-14.3,0.4
				c-5.5-0.8-10.6-2.7-15.8-4.7c-3.8-1.5-7.7-3-11.6-4.2c-3.2-1-6.5-0.6-9.7,0.2c-5.6,1.3-11.1,2.8-16.7,3.4
				c-5.4,0.6-10.7,0.8-16-0.3c-3.1-0.7-6-1.8-9.1-2.7c-0.6-0.2-1.3-0.3-2-0.3c17,11.7,35.3,16.7,55.4,12.7c-0.2,0.1-0.3,0.2-0.5,0.3
				c-0.2,0.1-0.4,0.1-0.6,0.2c-7.1,2.5-14.3,3.7-21.6,3.6c-5.8-0.1-11.5-0.7-17-2.8c-3.3-1.2-6.6-2.7-9.8-4.4
				c-5.3-2.7-10.1-6.2-14.6-10.4c-5.4-4.9-10-10.6-14.1-16.9c-5.2-8.3-9.2-17.4-12.1-27.2c-1.6-5.6-2.8-11.4-3.1-17.4
				c-0.1-1-0.5-1.9-0.7-2.9c-0.1,0-0.2,0-0.3,0c0,0.4-0.1,0.9-0.1,1.3c-0.1,4.4,0.3,8.7,0.9,12.9c1.4,10.2,3.8,20.1,7,29.8
				c1.8,5.6,4.2,10.8,6.9,15.9c2.1,4.1,4.2,8.3,6.4,12.4c1.2,2.2,2.6,4.2,4,6.5c-0.3-0.2-0.5-0.3-0.6-0.4c-4.7-4.1-9-8.8-12.5-14.2
				c-1.9-2.9-3.3-6.2-4.8-9.4c-3.5-7.7-5.8-16-7.8-24.3c-0.9-3.7-2-7.3-2.8-11c-2.2-11.6-2.7-23.3-1.3-35.2c0.7-6.1,1.9-12,3.7-17.8
				c3.6-11.6,9.4-21.5,17.6-29.6c7.5-7.4,16.2-11.7,25.9-13.1c1.9-0.3,3.8,0.1,5.6,0.1c0.2,0,0.6,0.1,0.7,0.2
				c0.5,0.7,1.1,0.4,1.8,0.3c3.4-0.4,6.9-0.9,10.3-1.3c0.2,0,0.3,0,0.5-0.3c-1.6-0.4-3.2-0.8-4.8-1.2c-8.9-2-17.7-1.4-26.5,1.1
				c-7.6,2.2-15.1,4.6-22.3,8.2c-0.3,0.1-0.6,0.3-0.9,0.4c0-0.1-0.1-0.1-0.1-0.2c0.9-0.7,1.7-1.4,2.6-2c9.4-6.7,19.7-10.3,30.6-11.5
				c8.6-1,16.9,0.6,24.9,3.9c0.1,0,0.1,0.1,0.2,0.1c2.6,1.4,5.4,1.9,8.3,2c2.5,0.1,5.1,0.5,7.6,0.8c6.4,0.8,12.7,0.2,18.9-2.2
				c4.2-1.6,8.5-2.6,12.9-3c6-0.6,11.7,0.7,17,3.9c4,2.4,7.9,5.1,11.5,8.2c0.8,0.7,1.8,1,2.7,1.5c4.9,2.4,9.4,5.5,13.2,9.8
				c-0.5-0.8-0.9-1.6-1.4-2.4c-5-7.7-10.8-14.3-18.2-19.1c-7.7-5-16.2-6.9-25.1-6.8c-4.4,0-8.7,0.4-13,1.8c-0.2,0.1-0.5,0.1-0.7,0.1
				c0-0.1,0-0.1-0.1-0.2c0.6-0.4,1.2-0.9,1.9-1.2c6-3.5,12.3-4.5,18.9-3.6c8.6,1.2,16.5,4.4,23.4,10.3c6.3,5.4,11.8,11.6,16,19.3
				c0.5,0.9,0.9,1.9,1.3,2.9c0.4,1.1,0.2,1.6-0.6,2.3c0.7,1.3,1.4,2.6,2,3.9c3.2,7,3.8,14.5,3,22.2c-0.5,4.8-1.8,9.5-3.1,14.1
				c-2.1,7.4-2.8,14.9-2.9,22.6c-0.1,6.8-0.3,13.6-1.2,20.3c-1.2,8.8-3.7,17-8.4,24.3c-3.7,5.7-8.2,10.2-14.1,12.6
				c-1.3,0.5-2.8,0.6-4.2,0.9c-0.4,0.1-0.7-0.1-1.1-0.2C165.5,166.1,165.4,165.5,166,164.7c3.2-0.5,6.2-1.9,8.9-3.9
				c5.5-4,9.4-9.6,12.2-16.2c0-0.1,0.1-0.2,0.1-0.3c-0.2,0.2-0.3,0.5-0.5,0.7c-1.4,2.7-2.7,5.5-4.5,7.8c-3.3,4.1-7.2,7.1-11.5,9.5
				C169.2,163.2,167.6,163.9,166,164.7z M80.7,30.4c0.3,0,0.5-0.1,0.8-0.1c2.2-0.4,4.4-0.9,6.6-1.1c2.1-0.3,4.3-0.4,6.4-0.4
				c2.3-0.1,4.6,0,6.9,0.1c2.1,0.2,4.1,0.1,6.2-0.2c1.7-0.3,3.4-0.4,5.1-0.5c0.3,0,0.7,0,1,0C102.6,26.3,91.6,26.5,80.7,30.4z
				 M35.5,85.8c0.1,0,0.2,0.1,0.3,0.1c0.1-0.3,0.1-0.6,0.2-0.9c0.3-2.3,0.5-4.7,1-7c1.5-7.3,3.9-14.1,6.9-20.8
				c1.2-2.6,2.6-5,3.9-7.6c0.7-1.3,1.4-2.5,2.1-3.8C41.1,57.3,37,71,35.5,85.8z M151.6,22.4c0.7,0.2,1.3,0.4,2,0.6
				c2.1,0.6,4.3,1.2,6.4,1.9c1,0.3,2,0.7,3,1.2c1.9,0.8,3.7,1.6,5.5,2.3c1.3,0.5,2.6,0.7,3.9,1.1C167.2,25.5,158.2,21.5,151.6,22.4z
				 M53.9,139.2c1.4,4.1,13.1,19.1,15.6,20.1c-2.7-3.2-5.5-6.3-8.1-9.7C58.8,146.3,56.4,142.7,53.9,139.2z M197.7,76.9
				c-0.1,0-0.2,0-0.2-0.1c-0.1,0.3-0.2,0.6-0.4,0.9c-1.2,2.6-1.8,5.5-2.5,8.3c-0.6,2.3-0.6,4.5-0.7,6.7
				C195.1,87.5,196.4,82.2,197.7,76.9z M193.1,47.8c-2.7-4.1-6.1-7.1-10.1-9.4C186.4,41.4,190.2,44,193.1,47.8z M87.7,163.5
				c0,0.1,0,0.1,0,0.2c2.7,0.2,5.4,0.4,8.1,0.6c0-0.1,0-0.1,0-0.2C93.1,164,90.4,163.8,87.7,163.5z"/>
			<path class="st1" d="M204.6,44c0.1,0.2,0.2,0.5,0.3,0.7c2.3,6.9,3.8,13.9,4,21.4c0.2,6.5-0.5,12.9-1.4,19.3
				c-0.6,3.9-1.2,7.7-2.5,11.4c-0.5,1.4-1.1,2.6-1.7,3.9c-0.3,0.7-0.8,1-1.4,0.7c-0.7-0.3-0.7-1-0.5-1.7c0.5-1.8,1-3.7,1.5-5.5
				c1.9-8,2.9-16.2,3.1-24.5c0.2-6.7,0.2-13.5-0.7-20.1c-0.2-1.5-0.4-2.9-0.6-4.4c-0.1-0.4-0.1-0.8-0.1-1.2
				C204.5,44,204.6,44,204.6,44z"/>
			<path class="st1" d="M29,58.8c0.1-1.4,0.1-2.7,0.2-4.1c0.3-5.3,2.6-9.6,5.3-13.8c1.3-2.1,2.9-4,4.5-5.9c0.8-1,2-1.6,3-2.2
				c0.3-0.2,1-0.1,1.3,0.1c0.4,0.5,0,1-0.3,1.5c-3.7,4.8-6.9,10.1-9.5,15.8c-1.3,2.8-2.7,5.6-4.1,8.3c0,0.1-0.1,0.2-0.2,0.3
				C29.1,58.8,29,58.8,29,58.8z"/>
			<path class="st1" d="M147.4,179.1c-1.2,0.2-2.3,0.3-3.5,0.5c-2.2,0.4-4.3,0.3-6.5-0.2c-0.3-0.1-0.7-0.1-1-0.3
				c-0.7-0.2-1.1-0.9-1-1.7c0-0.8,0.5-1.4,1.2-1.5c0.3-0.1,0.7-0.1,1-0.1C140.1,175.9,145.4,177.6,147.4,179.1z"/>
			<path class="st1" d="M124,20.6c-0.2,0-0.4-0.1-0.6-0.1c-1-0.2-1.2-0.5-0.9-1.6c0.3-1,0.7-1.9,1.7-2.2c0.9-0.3,1.8-0.6,2.8-0.7
				c0.7-0.1,1.4,0.5,1.6,1.3c0.2,0.8,0,1.9-0.7,2.2c-1.2,0.6-2.5,0.9-3.8,1.4C124.1,20.8,124,20.7,124,20.6z"/>
		</g>
	</g>
</g>
<path class="st2" d="M216.4,210.4h-201c-8.3,0-15-6.8-15-15v-179c0-8.3,6.8-15,15-15h201c8.3,0,15,6.8,15,15v179
	C231.4,203.7,224.6,210.4,216.4,210.4z"/>
<g>
	<defs>
		<path id="SVGID_1_" d="M216.3,209.3h-201c-8.3,0-15-6.8-15-15v-179c0-8.3,6.8-15,15-15h201c8.3,0,15,6.8,15,15v179
			C231.3,202.5,224.5,209.3,216.3,209.3z"/>
	</defs>
	<clipPath id="SVGID_2_">
		<use xlink:href="#SVGID_1_"  style="overflow:visible;"/>
	</clipPath>
	<g class="st3">
		<g>
			<path class="st4" d="M73.7,329.7c0,0,0.4,11.6-0.5,17.4c-0.8,5.3-3.4,14-13.8,12.8s-2.1-13.3-1.1-14.8s2.3-9.6,3.6-15.2
				C63.1,324.4,73.7,329.7,73.7,329.7z"/>
			<path class="st5" d="M71.3,328.7l0,1.9c0,0,0.7,11.4-0.3,17.6c-0.8,5.2-4.2,9.9-10,11.9c9,0.1,11.4-8,12.1-12.9
				c0.9-5.8,0.5-17.4,0.5-17.4S72.7,329.2,71.3,328.7z"/>
			<g>
				<linearGradient id="SVGID_3_" gradientUnits="userSpaceOnUse" x1="66.6138" y1="284.5367" x2="66.6138" y2="259.3546">
					<stop  offset="0" style="stop-color:#666666"/>
					<stop  offset="1" style="stop-color:#595959"/>
				</linearGradient>
				<path class="st6" d="M58.1,256.5c-0.1,3.5,1.3,11.4,0.9,14.8c-2.1,19.1-3.3,28.3,2.8,58.7c0,0,2.2,0.6,6.3,0.8
					c4,0.2,5.6-1.1,5.6-1.1c0.1-10.4,1.6-24.9,1.3-35.3c-0.3-9.4-0.6-8.3,0.2-17.7c0.5-6.3,1.6-12.6,1.5-19c0-0.8-0.1-4.7-0.3-8.5
					H56.6C56.8,253.2,58.2,254,58.1,256.5z"/>
			</g>
			<linearGradient id="SVGID_4_" gradientUnits="userSpaceOnUse" x1="66.8457" y1="282.4859" x2="66.8457" y2="266.7272">
				<stop  offset="0" style="stop-color:#4F4F4F"/>
				<stop  offset="1" style="stop-color:#3B3B3B"/>
			</linearGradient>
			<path class="st7" d="M57.1,249.2h19.2c0.2,3.8,0.3,7.8,0.3,8.5c0,6.4-1,12.7-1.5,19c-0.8,9.4-0.5,8.3-0.2,17.7
				c0.4,10.4-1.2,24.9-1.3,35.3c0,0-0.7,0.5-2.3,0.9c-0.1-3.8-0.1-9.8-0.2-12.8c-0.4-9.6-0.7-19.2-1-28.8c-0.1-2.7-0.3-5.4-0.4-8.1
				c0-1.5-0.3-3-0.1-4.5c0.4-2.1,0.9-4,1-6.1c0-1.1-0.1-2.2-0.8-3.1c-0.9-1-2.4-1.4-3.6-1.5c-1.7-0.2-3.3-0.4-5-0.7
				c-0.8-0.2-1.7-0.4-2.5-0.6L57.1,249.2z"/>
			<g>
				<path class="st8" d="M73.2,347.1c0.1-0.6,0.2-1.3,0.2-2.1c-7.4,3.9-13.6,1.8-15.7,0.9c-2,3-7.7,12.9,1.6,14
					C69.8,361.1,72.4,352.4,73.2,347.1z"/>
				<path class="st8" d="M73.5,344.1c0-0.6,0.1-1.2,0.1-1.9c-2.3-1.4-8.5-4.5-14-1.9c-0.1,0.6-0.3,1.2-0.4,1.7
					C61.2,341.2,66.8,339.5,73.5,344.1z"/>
				<path class="st9" d="M71.5,342.9c0.6,0.3,1.3,0.7,2,1.2c0-0.6,0.1-1.2,0.1-1.9c-0.5-0.3-1.2-0.7-2-1.1
					C71.6,341.8,71.6,342.3,71.5,342.9z"/>
				<path class="st9" d="M71.1,348.2c-0.8,5.2-4.2,9.9-10,11.9c9,0.1,11.4-8,12.1-12.9c0.1-0.6,0.2-1.3,0.2-2.1
					c-0.7,0.4-1.4,0.7-2.1,1C71.3,346.8,71.2,347.5,71.1,348.2z"/>
			</g>
		</g>
		<g>
			<path class="st4" d="M81.2,329.7c0,0-0.4,11.6,0.5,17.4c0.8,5.3,3.4,14,13.8,12.8s2.1-13.3,1.1-14.8s-2.3-9.6-3.6-15.2
				C91.8,324.4,81.2,329.7,81.2,329.7z"/>
			<path class="st5" d="M83.6,328.7l0,1.9c0,0-0.7,11.4,0.3,17.6c0.8,5.2,4.2,9.9,10,11.9c-9,0.1-11.4-8-12.1-12.9
				c-0.9-5.8-0.5-17.4-0.5-17.4S82.2,329.2,83.6,328.7z"/>
			<g>
				
					<linearGradient id="SVGID_5_" gradientUnits="userSpaceOnUse" x1="3911.6833" y1="284.5367" x2="3911.6833" y2="259.3546" gradientTransform="matrix(-1 0 0 1 3999.9707 0)">
					<stop  offset="0" style="stop-color:#666666"/>
					<stop  offset="1" style="stop-color:#595959"/>
				</linearGradient>
				<path class="st10" d="M96.8,256.5c0.1,3.5-1.3,11.4-0.9,14.8c2.1,19.1,3.3,28.3-2.8,58.7c0,0-2.2,0.6-6.3,0.8
					c-4,0.2-5.6-1.1-5.6-1.1c-0.1-10.4-1.6-24.9-1.3-35.3c0.3-9.4,0.6-8.3-0.2-17.7c-0.5-6.3-1.6-12.6-1.5-19c0-0.8,0.1-4.7,0.3-8.5
					h19.7C98.1,253.2,96.7,254,96.8,256.5z"/>
			</g>
			
				<linearGradient id="SVGID_6_" gradientUnits="userSpaceOnUse" x1="3911.9153" y1="282.4859" x2="3911.9153" y2="266.7272" gradientTransform="matrix(-1 0 0 1 3999.9707 0)">
				<stop  offset="0" style="stop-color:#4F4F4F"/>
				<stop  offset="1" style="stop-color:#3B3B3B"/>
			</linearGradient>
			<path class="st11" d="M97.8,249.2H78.6c-0.2,3.8-0.3,7.8-0.3,8.5c0,6.4,1,12.7,1.5,19c0.8,9.4,0.5,8.3,0.2,17.7
				c-0.4,10.4,1.2,24.9,1.3,35.3c0,0,0.7,0.5,2.3,0.9c0.1-3.8,0.1-9.8,0.2-12.8c0.4-9.6,0.7-19.2,1-28.8c0.1-2.7,0.3-5.4,0.4-8.1
				c0-1.5,0.3-3,0.1-4.5c-0.4-2.2-1.2-4.3-1.2-6.5c0-0.5,0-1.1,0.2-1.6c0.7-2.1,3.1-2.4,5-2.6c1.5-0.2,3-0.4,4.4-0.7
				c0.8-0.2,1.7-0.4,2.5-0.6L97.8,249.2z"/>
			<g>
				<path class="st8" d="M81.7,347.1c-0.1-0.6-0.2-1.3-0.2-2.1c7.4,3.9,13.6,1.8,15.7,0.9c2,3,7.7,12.9-1.6,14
					C85.1,361.1,82.5,352.4,81.7,347.1z"/>
				<path class="st8" d="M81.4,344.1c0-0.6-0.1-1.2-0.1-1.9c2.3-1.4,8.5-4.5,14-1.9c0.1,0.6,0.3,1.2,0.4,1.7
					C93.7,341.2,88.1,339.5,81.4,344.1z"/>
				<path class="st9" d="M83.4,342.9c-0.6,0.3-1.3,0.7-2,1.2c0-0.6-0.1-1.2-0.1-1.9c0.5-0.3,1.2-0.7,2-1.1
					C83.3,341.8,83.3,342.3,83.4,342.9z"/>
				<path class="st9" d="M83.8,348.2c0.8,5.2,4.2,9.9,10,11.9c-9,0.1-11.4-8-12.1-12.9c-0.1-0.6-0.2-1.3-0.2-2.1
					c0.7,0.4,1.4,0.7,2.1,1C83.6,346.8,83.7,347.5,83.8,348.2z"/>
			</g>
		</g>
		<path class="st1" d="M125.6,171.5c-3.6-6.8-9.1-21.1-9.1-21.1l-10.8,4.6c0,0,6.4,14.1,8.9,20.6c0,0,1.5,4.5,7,2.1
			C127,175.2,125.6,171.5,125.6,171.5z"/>
		<path class="st12" d="M111.2,162.5c3.4-1,7-3.2,8.5-4.2c-1.8-4.4-3.2-7.9-3.2-7.9l-10.8,4.6c0,0,6.4,14.1,8.9,20.6
			c0,0,1.5,4.5,7,2.1c5.5-2.4,4.1-6.1,4.1-6.1c-1.5-2.8-3.3-7-4.9-10.8c-5.1,2.8-6.6,9.7-6.6,9.7s-2.5-6-2.9-6.8
			C110.8,162.7,111.2,162.5,111.2,162.5z"/>
		<g>
			<path class="st1" d="M55.8,154.5l-11.1-3.4c0,0-3.7,17.2-6.5,23.5c-2.7,6.1-6.9,31.5-7.2,33.1c-0.8,0.6-2.9,2.7-4.6,4.4
				c-2.2,2.2-6.6,6.6-7.6,9.5c0,0.1-0.1,0.2-0.1,0.4c0,0.4,0.5,0.6,0.9,0.5c0.4-0.1,0.7-0.4,0.9-0.7c1-1.2,3.5-4.1,3.9-4.2
				c0.4-0.1-2.1,3.9-2.5,4.6c-0.5,0.9-1,1.8-1.2,2.8c-0.1,0.4,0,1,0.4,1.2c0.8,0.3,1.4-0.9,1.7-1.4c0.5-0.8,1-1.5,1.6-2.3
				c0.6-0.8,1.4-2,2-2.8c0.1-0.1,0.5-0.9,0.6-0.5c0.1,0.3-0.5,1.1-0.7,1.3c-0.4,0.6-1,1.5-1.3,2.1c-0.7,1.2-1.3,2.4-2,3.7
				c-0.4,0.8-0.6,2.2,0.8,1.7c0.7-0.2,1-0.6,1.4-1.2c1.1-1.9,2.4-4,3.8-5.8c0.1-0.1,0.5-0.6,0.7-0.7c0.2-0.1,0.5-0.2,0.3,0.2
				c-0.6,1.2-3.2,5.4-2.9,6.5c0.2,0.9,0.8,0.7,1.4,0.3c0.4-0.3,0.7-0.7,0.9-1.1c0.8-1.2,1.6-2.4,2.4-3.5c0.4-0.6,1.8-2.8,2.2-3.2
				c0.2-0.3,0.5-0.5,0.8-0.4c0.4,0.1,0.6,0.5,0.7,0.8c0.6,1.5,0.6,3.4,1.8,4.6c0.3,0.3,0.6,0.5,1,0.5c0.4,0,0.8-0.1,1-0.4
				c0.1-0.3,0.1-0.6,0.1-0.9c-0.3-2.4-0.7-4.8-1-7.3c-0.2-1.1-0.3-2.1-0.5-3.2c0-0.2-0.1-2.3-0.2-3.2c4.9-12.1,11.3-28.5,12.4-34.1
				C51.4,170.3,55.8,154.5,55.8,154.5z"/>
			<path class="st12" d="M42.9,159c2.9,1.5,6.8,3.4,10.5,4.5c1.3-4.8,2.4-9,2.4-9l-11.1-3.4C44.7,151.2,43.9,154.6,42.9,159z"/>
		</g>
		<g>
			<linearGradient id="SVGID_7_" gradientUnits="userSpaceOnUse" x1="77.8128" y1="196.789" x2="77.8128" y2="263.5475">
				<stop  offset="0" style="stop-color:#F49AAF"/>
				<stop  offset="1" style="stop-color:#F17A99"/>
			</linearGradient>
			<path class="st13" d="M102.4,179.8H58.1c0,0-16.8,18.5-30.1,74c0,0,9.1,4.4,16.3,4.6c7.2,0.2,15.5,3.5,20.8,4.5
				c5.3,1,17,1.3,23.6,0.3c6.6-1,13.7-5.6,21.8-5.1c8.1,0.5,17.1-4.3,17.1-4.3C125.6,242.2,116.7,202.6,102.4,179.8z"/>
			<linearGradient id="SVGID_8_" gradientUnits="userSpaceOnUse" x1="81.1704" y1="195.2996" x2="81.1704" y2="181.2895">
				<stop  offset="0" style="stop-color:#F2819E"/>
				<stop  offset="1" style="stop-color:#F17A99"/>
			</linearGradient>
			<path class="st14" d="M102.4,179.8H58.1c0,0-2,2.2-5.1,7.3c1-1.4,2.2-2.8,3.5-4.1c0.5-0.5,1-1,1.7-1.2c0.5-0.1,1.1-0.1,1.6,0
				c1.2,0.2,2.4,0.4,3.6,0.7c0.6,0.1,1.2,0.3,1.5,0.8c0.7,0.8,0.2,2-0.3,3c-1.9,3.3-4.1,6.4-6.2,9.5c-0.9,1.2-1.7,2.4-2.6,3.6
				c-0.4,0.5-0.7,0.9-1.1,1.4c-0.2,0.2-0.6,0.6-0.6,0.9c0,0.1,0.1,0.2,0.5,0.2c0.3,0,0.8-0.4,1-0.6c0.7-0.4,1.3-0.9,1.9-1.4
				c1.2-1.1,2.2-2.5,3.1-3.8c1.9-2.8,3.3-5.9,5.1-8.7c0.9-1.3,1.9-2.6,3.3-3.2c1.4-0.6,3.3-0.3,4.1,1.1c0.5,1,0.4,2.2,0.3,3.3
				c-0.5,3.8-0.9,7.5-1.4,11.3c0.2,0.8,0.8-0.5,1-1c1.1-2.8,1.3-6.1,1.8-9.1c0.1-1,0.3-2,0.7-3c0.3-0.6,0.6-1.2,1.1-1.6
				c0.6-0.4,1.5-0.5,2.3-0.5c1.5,0,3.4,0,4.5,1.2c1.1,1.3,1.8,2.9,2.1,4.6c1.4,5.9,4.1,11.6,7,17c0.4,0.7,0.9,1.5,1.7,1.6
				c0-0.8-0.4-1.6-0.8-2.3c-3.1-5.3-4.9-11.4-5.4-17.6c-0.1-1.9,0.4-5.2,3.1-4.1c1.4,0.6,2.1,2.1,2.8,3.4c1.3,2.7,2.7,5.4,4.3,8
				c0-2.3-1-4.4-1.7-6.5c-0.7-2-1.2-4.1,0.4-5.8c0.9-1,2.3-1.5,3.6-1.6c0.6,0,1.3,0,1.9,0.2c1,0.4,1.8,1.3,2.4,2.2
				c1.8,2.6,3.3,5.3,4.9,8C107.2,188.3,104.9,183.8,102.4,179.8z"/>
			<g>
				<path class="st15" d="M79.9,179.6c-13.1,0-19.1-2.3-21-3.3c-0.2,1.2-0.5,2.4-0.8,3.5c0,0,5.1,3.7,21.8,3.7
					c16.7,0,22.4-3.7,22.4-3.7c-0.3-1.1-0.6-2.3-0.8-3.6C99.5,177.2,93.2,179.6,79.9,179.6z"/>
			</g>
			<path class="st16" d="M101.6,176.3c-2.1,1-8.4,3.3-21.6,3.3c-13.1,0-19.1-2.3-21-3.3c-0.1,0.3-0.1,0.6-0.2,0.9
				c0.1,0,0.1,0.1,0.2,0.1c0.6,0.6,4.9,3.9,12.6,3.8c7.7-0.2,11.3-0.5,15.1,0.2c3.8,0.6,12.5-2.3,14.9-4c0.1,0,0.1-0.1,0.2-0.1
				C101.7,176.9,101.6,176.6,101.6,176.3z"/>
			<path class="st17" d="M100,176.6l-4.5,1.6l0.2,0.7c0,0,0.2,0.3,0.6,0.2c0.4-0.1,3.6-1.4,3.6-1.4L100,176.6z"/>
			<path class="st17" d="M65.5,179.1l-0.2,0.3c0,0-0.4,0.4-0.9,0.1l-3.4-1.4l0-0.8L65.5,179.1z"/>
			<g>
				<linearGradient id="SVGID_9_" gradientUnits="userSpaceOnUse" x1="102.2148" y1="261.3334" x2="102.2148" y2="232.5485">
					<stop  offset="0" style="stop-color:#F07093"/>
					<stop  offset="1" style="stop-color:#E56087"/>
				</linearGradient>
				<path class="st18" d="M101.3,243.5c-0.4-2-3.6-14-3.7-7.8c0.6,5.1,1.3,10.3,1.9,15.4c0.3,2.4,0.6,4.9,0.3,7.4
					c-0.1,0.6-0.2,1.1-0.3,1.5c2.4-0.8,4.8-1.5,7.3-1.8c-0.8-1.1-1.5-2.2-2.1-3.4C103,251.3,102.1,247.4,101.3,243.5z"/>
				<linearGradient id="SVGID_10_" gradientUnits="userSpaceOnUse" x1="53.888" y1="261.3334" x2="53.888" y2="232.5485">
					<stop  offset="0" style="stop-color:#F07093"/>
					<stop  offset="1" style="stop-color:#E56087"/>
				</linearGradient>
				<path class="st19" d="M55.9,249.7c2.2-8.4,4.3-16.7,6.5-25.1c-1.8,1.4-2.6,3.9-3.3,6.2c-2.1,6.7-4.6,13.3-8,19.4
					c-1.6,2.8-3.4,5.5-5.4,8c-0.1,0.1-0.2,0.2-0.3,0.4c3.2,0.2,6.6,1,9.8,1.8C54.1,257,55,253.1,55.9,249.7z"/>
			</g>
		</g>
		<g>
			<path class="st20" d="M151.8,134.8c0.3-0.1,8.1-4.2,9.3-4.9c1.6-0.9,2-1.6,1.8-2.1c-0.3-0.5-1.4-0.1-3.4,0.8
				c-1.4,0.7-7.6,3.3-9,3.7c-0.5,0.2-0.1-0.1-0.1-0.1c5.5-2.5,11-5.2,11.7-5.8c0.7-0.6,0.6-2.1-1.7-1.1c-1.9,0.8-9.2,3.8-11.3,4.7
				c-0.6,0.2-0.2-0.2-0.2-0.2c4.1-2.1,11.3-4.8,10.4-6c-0.5-0.6-1.5-0.1-1.5-0.1c-2.5,1-11,4.2-11,4.2c-1.2,0.4-1.8,0.8-3,1.1
				c-1.1,0.4-1.6,0-1.8-0.5c0-0.6-0.1-1.2,0-1.8c0.1-1.8,0.4-3.7-0.6-5.3c-0.2-0.3-0.5-0.6-0.8-0.8c-1.5-0.8-1.6,1.7-1.6,2.7
				c0,2.4-1,4.9-1.7,7.4c-0.6,2.1-1.4,3.3-2,7.4c-5.2,8.2-14.6,21.5-18.1,26.9c-2.1,3.2-3.8,9.7-1.6,12.2c2.8,3.1,7,2.5,10.7-2.4
				c1.9-2.5,8.1-16.9,14.8-32.5c2.8-1.3,9.1-4.1,11.7-5.4c2.6-1.2,8.1-3.8,8.5-4.8c0.3-0.6-0.4-0.8-1-0.7c-0.6,0.2-8.2,3.3-8.2,3.3
				C151.6,134.9,151.8,134.8,151.8,134.8z"/>
			<g>
				<g>
					<path class="st21" d="M142.5,134.4c0,0,0.2,0.6,0.4-1.1c0.1-1.4,0.1-3.3-0.1-4.3c-0.4-0.1-0.6-0.3-0.8-0.6
						C142,128.4,142.8,132.2,142.5,134.4z"/>
				</g>
				<path class="st21" d="M152.7,136.1c-0.2-0.8-0.9-1.3-0.9-1.3c-0.1-1.7-1.6-2.5-1.6-2.5c-0.1-1.6-1.4-2.4-1.4-2.4
					c-0.5-1.2-1.5-1.5-1.5-1.5c1,0.8,1,1.6,1,1.6c1.5,1.1,1.5,2.5,1.5,2.5c1.5,1.2,1.6,2.3,1.6,2.5c-0.5,0-1.2,0.1-1.9,0.2
					c-0.8,0.2-4.4,1.3-3.9,1.3c0.5,0,2-0.5,3.7-0.9c1.4-0.3,2.4-0.2,2.7-0.2C152.5,135.7,152.7,136.1,152.7,136.1z"/>
			</g>
		</g>
		<g>
			<path class="st22" d="M105,125.1c0,0,6.2,2.1,10.7,11.8c4.1,8.9,8.2,17.7,8.2,17.7s-8.7,5.5-16.4,7.6c0,0-3.3-9.1-3.8-6.6
				C103,158.1,100.7,137.6,105,125.1z"/>
			<linearGradient id="SVGID_11_" gradientUnits="userSpaceOnUse" x1="108.7126" y1="148.5798" x2="103.3829" y2="148.8887">
				<stop  offset="0" style="stop-color:#F7B7C4"/>
				<stop  offset="1" style="stop-color:#F496AC"/>
			</linearGradient>
			<path class="st23" d="M103.9,155.2c1,0.1,3.5,7,3.5,7c1.1-0.3,2.1-0.6,3.2-1c-0.8-2-2.3-5.3-3.5-7.6c-1.9-3.4,2.2-18.6,2.2-18.6
				C105.3,143.3,104,154.3,103.9,155.2z"/>
			<path class="st24" d="M123.8,154.6c0,0-0.3-0.7-0.9-2c-2.2,1.3-9.5,5.6-16.3,7.6c0.5,1.2,0.8,2,0.8,2
				C115.1,160.1,123.8,154.6,123.8,154.6z"/>
			<path class="st25" d="M110.6,161.2L110.6,161.2c-0.2-0.6-0.5-1.3-0.9-2.1c-1,0.4-2.1,0.7-3.1,1.1c0.5,1.2,0.8,2,0.8,2
				C108.4,161.9,109.5,161.6,110.6,161.2z"/>
			<path class="st26" d="M71.9,118.3c0,0,2.8-0.6,6.8-0.2s9.7-0.9,11.6,0.1c1.9,1-3.3,5.9-9.4,5.7C74.8,123.7,71.9,118.3,71.9,118.3
				z"/>
			<g>
				<path class="st12" d="M90.5,119.8c-4.9-1.8-4.8-8.9-4.8-10h-9.4c0,1.1,0.1,8.2-4.8,10c-5.4,2-6.1,1.8-6.1,1.8l15.5,7.1v0.1
					l0.1,0l0.1,0v-0.1l15.5-7.1C96.5,121.6,95.8,121.8,90.5,119.8z"/>
			</g>
			<path class="st27" d="M85.7,109.8h-9.4c0,0.6,0.1,3.1-0.8,5.5c3.5,0.8,7.2,0.7,10.9-0.2C85.6,112.7,85.6,110.4,85.7,109.8z"/>
			<path class="st22" d="M104.1,166c-0.4-9.3-0.4-18.3-0.5-21.2c-0.1-6.1,1.4-19.9,1.4-19.9c-2.7-1.5-14.6-5.7-14.6-5.7
				s-2.1,4.5-9.5,4.7c-7.3-0.2-9.5-4.7-9.5-4.7s-1.9,0.8-4.4,1.7c-3.2,1.1-5.6,1.3-10,3.5c0,0-0.6,6,0.2,20.5
				c0.1,2.7,0.1,10.8-0.4,19.6c0,0-1.4,7.4-0.7,8.9c0.7,1.5,1.9,2.2,2.7,2.9c0.6,0.6,4.9,3.9,12.6,3.8c7.7-0.2,11.3-0.5,15.1,0.2
				c3.8,0.6,12.5-2.3,14.9-4s3-2.6,3.2-3.9C104.9,171.1,104,167.2,104.1,166z"/>
			<linearGradient id="SVGID_12_" gradientUnits="userSpaceOnUse" x1="80.3698" y1="168.6129" x2="80.3698" y2="178.6363">
				<stop  offset="0" style="stop-color:#F7B7C4"/>
				<stop  offset="1" style="stop-color:#F496AC"/>
			</linearGradient>
			<path class="st28" d="M89,171.2c-1.2,0.2-2.8,0.1-3.2-1.1c-0.4-1,0.4-2,1.1-2.7c1.1-1.1,2.4-2.1,3.7-3c0.4-0.2,0.7-0.5,0.9-0.9
				c0.2-0.6-0.4-1.3-1.1-1.4c-0.7-0.1-1.3,0.2-2,0.5c-3.3,1.5-6.7,3.1-10,4.6c-3.4,1.5-6.9,3.1-10.6,2.7c-2.9-0.4-5.5-2-7.4-4.2
				c-1.4-1.7-2.4-3.6-3.2-5.7c0-0.1-0.1-0.3-0.1-0.5c-0.1,1.6-0.1,3.3-0.2,5c0,0-1.4,7.4-0.7,8.9c0.7,1.5,1.9,2.2,2.7,2.9
				c0.6,0.6,4.9,3.9,12.6,3.8c7.7-0.2,11.3-0.5,15.1,0.2c3.8,0.6,12.5-2.3,14.9-4c2.4-1.7,3-2.6,3.2-3.9c0.2-1.3-0.7-5.2-0.6-6.4
				c-0.1-1.8-0.2-3.6-0.2-5.4C100.3,165.8,95.1,170.1,89,171.2z"/>
			<path class="st29" d="M88,129.1c3.9-0.7,5.1-4.6,7.9-4.9c2.2-0.3,3.9-1,5.9-0.7c-5.2-2.2-11.4-4.4-11.4-4.4s-2.1,4.5-9.5,4.7
				c-7.3-0.2-9.5-4.7-9.5-4.7s-1.9,0.8-4.4,1.7c-2.2,0.8-4,0.9-6.2,1.8c1.6-0.1,4.5,0.2,6,1.3c2.5,1.7,3.2,4.5,7.2,4.9
				c4,0.4,6.7-2.9,6.7-2.9S84,129.8,88,129.1z"/>
			<path class="st30" d="M65.3,179.4c0,0-0.2,0.3-0.5,0.3s-3.3-1.1-3.7-1.3c-0.4-0.2-0.4-0.5-0.4-0.5c-1.1-12.7-1.7-55.2-1.7-55.2
				c1.6-1.5,3.4-1,3.4-1c0,29.8,2,54.1,2.3,57.7c0,0,0.1,0.2,0.2,0.1C65.2,179.5,65.3,179.4,65.3,179.4z"/>
			<path class="st30" d="M95.6,178.8c0,0,0.2,0.3,0.5,0.3s3.3-1.1,3.7-1.3c0.4-0.2,0.4-0.5,0.4-0.5c1.1-12.7,1.6-54.6,1.6-54.6
				c-1.6-1.5-3.4-1-3.4-1c0,29.8-1.9,53.6-2.2,57.2c0,0-0.1,0.2-0.2,0.1C95.7,179,95.6,178.8,95.6,178.8z"/>
			<path class="st29" d="M92.2,134.5c-1.1,0.9-1.9,2.2-3,3.1c-1.3,1.1-2.7,2-4.2,2.7c-3.1,1.5-6.5,2.3-10,2.6
				c-0.9,0.1-1.8,0.2-2.6,0.6c-0.8,0.4-1.5,1.2-1.4,2.1c0.1,1.3,1.7,1.9,3,2.1c4.2,0.5,8.5-1,11.8-3.7c3.3-2.6,5.5-6.1,6.9-10
				C92.6,134.2,92.4,134.4,92.2,134.5z"/>
			<path class="st31" d="M72.4,118.5c0,0,2.8,4.5,8.8,4.2c6-0.3,8.8-4.4,8.8-4.4s0.3-0.7,1.1,0.3c0.9,1,4,2.3,4,2.3s-2.5,5.6-6.4,7
				c-3.9,1.5-7.6-3-7.6-3s-4.2,5.1-8.8,2.4c-4-2.4-5.3-6.4-5.3-6.4s2.1-1.1,4.3-2.3C71.6,118.4,72,118.1,72.4,118.5z"/>
			<path class="st22" d="M57.1,124.3c0,0-6.2,2.1-10.7,11.8c-4.1,8.9-8.2,17.7-8.2,17.7s8.7,5.5,16.4,7.6c0,0,2.4-9.1,3-6.6
				C58.3,157.3,57.6,136.3,57.1,124.3z"/>
			<linearGradient id="SVGID_13_" gradientUnits="userSpaceOnUse" x1="54.2348" y1="147.9336" x2="58.2266" y2="148.4779">
				<stop  offset="0" style="stop-color:#F7B7C4"/>
				<stop  offset="1" style="stop-color:#F496AC"/>
			</linearGradient>
			<path class="st32" d="M51.9,160.6c0.9,0.3,1.9,0.6,2.8,0.9c0,0,1.5-5.6,2.4-6.8c-0.1-1.2-0.9-14.7-3.6-20.3c0,0,2,10.1,1.1,16.2
				C54,154.5,52.7,158.4,51.9,160.6z"/>
			<g>
				<path class="st24" d="M38.3,153.8c0,0,8.7,5.5,16.4,7.6c0,0,0.3-1.1,0.7-2.3c-6.4-1.8-13.3-5.7-16.1-7.4
					C38.7,153.1,38.3,153.8,38.3,153.8z"/>
			</g>
			<path class="st25" d="M52.7,158.3c-0.3,0.9-0.6,1.7-0.8,2.3c0.9,0.3,1.9,0.6,2.8,0.9c0,0,0.3-1.1,0.7-2.3
				C54.5,158.9,53.6,158.6,52.7,158.3z"/>
			<g>
				<path class="st33" d="M61.2,178.4c0.4,0.2,3.4,1.3,3.7,1.3s0.5-0.3,0.5-0.3s-0.1,0.1-0.3,0.2c-0.2,0-0.2-0.1-0.2-0.1
					c-0.1-1.3-0.4-5.1-0.8-10.9c-1.4-0.8-2.6-1.8-3.6-3c-0.1-0.1-0.2-0.3-0.3-0.4c0.2,5.2,0.4,9.7,0.7,12.7
					C60.7,177.9,60.7,178.1,61.2,178.4z"/>
				<path class="st33" d="M95.9,179c-0.2,0-0.3-0.2-0.3-0.2s0.2,0.3,0.5,0.3c0.3,0,3.3-1.1,3.7-1.3s0.4-0.5,0.4-0.5
					c0.3-3,0.5-7.7,0.7-13c-1.2,1.3-2.5,2.4-3.9,3.4c-0.4,5.9-0.7,9.8-0.8,11.1C96.2,178.9,96.1,179,95.9,179z"/>
			</g>
		</g>
		<g>
			<path class="st34" d="M128.5,121.1C128.5,121.1,128.5,121.1,128.5,121.1c0.8-1.4,1.2-3,1.9-4.4c0.6-1.3,1.7-2.1,2.4-3.2
				c1.7-2.7,2.3-6.4,0.7-9.3c-0.3-0.5-0.6-1-0.8-1.6c-0.2-0.9,0.2-1.7,0.4-2.6c0.3-1.4-0.1-2.9-0.9-4.1c-0.9-1.2-2.2-1.9-3.2-3
				c-1.2-1.2-1.9-2.9-1.8-4.6c0.1-0.9,0.3-1.7,0.4-2.6c0.1-2.2-1.3-4.1-2.7-5.9c-1.2-1.6-2.4-3.1-3.7-4.7c-0.5-0.6-0.7-1.2-1.4-1.6
				c-1-0.6-1.6,0.6-2.7,1.1c0.6,1.6,0.8,3.4,0.6,5.1c-0.3,1.9-1.1,3.7-1.6,5.6c-0.5,1.9-0.7,4,0.3,5.7c1.3,2.3,1.4,2.9,0.5,5.4
				c-0.7,2.1-0.8,4.4-0.2,6.5c0.4,1.5,1.1,2.9,0.8,4.4c-0.1,0.7-0.5,1.4-0.8,2.1c-0.6,1.8-0.1,3.8,0.6,5.5c0.8,1.7,1.9,3.3,2.8,4.9
				c0.7,1.3,1.1,3.1-0.1,3.9C123,125.1,126.8,123.9,128.5,121.1z"/>
			<path class="st35" d="M124.5,85.6c0.9,1.6,1.8,2.7,2.6,3.6c0.1,1.4,0.8,2.8,1.8,3.9c0.2,0.2,0.4,0.4,0.6,0.6
				C125.4,91.8,124.5,85.6,124.5,85.6z"/>
			<path class="st35" d="M116.1,85.4c0.5-1.9,1.3-3.7,1.6-5.6c0.2-1.7,0-3.4-0.6-5.1c1.1-0.5,1.7-1.7,2.7-1.1c0.7,0.4,0.9,1,1.4,1.6
				c-1.1,0.2-2.4,0.5-2.3,1.8c0,0.6,0.4,1.1,0.7,1.6c1.6,3-1.1,6.7-0.2,10c0.4,1.6,1.7,2.8,2.4,4.3c0.6,1.4,0.7,2.9,0.3,4.4
				c-0.4,1.4-1.3,2.7-1.4,4.2c-0.1,1.9,1.1,3.5,1.7,5.3c0.7,2,0.7,4.2-0.1,6.2c-0.2,0.5-0.5,1-0.6,1.6c-0.2,1.3,0.6,2.3,0.8,3.6
				c0.2,1.4,0.1,2.9-0.5,4.2c-0.3,0.7-0.8,1.2-1.4,1.7c-0.2-0.1-1.4,0.3-1.6,0.2c1.2-0.8,1.7-3.1,1-4.3c-0.9-1.7-2-3.2-2.8-4.9
				c-0.8-1.7-1.2-3.7-0.6-5.5c0.2-0.7,0.6-1.4,0.8-2.1c0.3-1.5-0.4-3-0.8-4.4c-0.6-2.1-0.5-4.4,0.2-6.5c0.8-2.5,0.7-3.1-0.5-5.4
				C115.4,89.4,115.6,87.3,116.1,85.4z"/>
			<path class="st36" d="M118.6,69c0.8,0.9,3.7,4.3,2.3,5.4c-0.5,0.4-1.1,0.4-1.6,0.7c-0.7,0.3-1.4,0.8-1.8,1.4
				c-0.2,0.3-3.7-2.4-4.1-2.6c-1-0.6-2.1-1-2.5-2.1c-0.2-0.6-0.2-1.2-0.2-1.8c0-0.8,0.1-1.7,0.5-2.4C113.1,64.3,117.1,67.2,118.6,69
				z"/>
			<path class="st37" d="M112.6,73.2l4.6-3.3l1.6-0.7c0.3,0.3,0.6,0.7,1,1.2c-0.5,0.1-0.9,0.1-0.9,0.1c0,1.2-0.3,3.6-0.6,5.1
				c-0.3,0.2-0.6,0.5-0.8,0.8c-0.2,0.3-3.7-2.4-4.1-2.6C113.2,73.6,112.9,73.4,112.6,73.2L112.6,73.2z"/>
			<path class="st38" d="M130.8,105.4c0.7,1.1,0.5,2.6-0.2,3.7c-0.3,0.5-0.7,0.9-0.8,1.4c-0.1,0.3-0.1,0.7-0.1,1
				c0,0.9-0.1,1.9-0.4,2.8c-0.3,0.9-1,1.7-1.9,2c0.7-0.9,0.6-2.2,0.4-3.3c-0.2-1.1-0.5-2.3,0-3.4c0.5-1.1,1.7-1.9,1.7-3.1
				c-0.1-0.9-0.8-1.5-1.3-2.3c-0.9-1.6,0-3.5,0.9-4.9c-0.6,0.9-0.4,2.6-0.1,3.5C129.1,104,130.2,104.5,130.8,105.4z"/>
			<path class="st39" d="M117.6,104.4c0.2,1.4,1.2,2.5,1.3,3.9c0.1,1.8-1.3,3.3-1.7,5.1c-0.1,0.3-0.1,0.6-0.1,0.9
				c-0.6-1.5-0.8-3.2-0.3-4.7c0.2-0.7,0.6-1.4,0.8-2.1c0.3-1.5-0.4-3-0.8-4.4c-0.6-2.1-0.5-4.4,0.2-6.5c0.8-2.5,0.7-3.1-0.5-5.4
				c-0.5-0.9-0.7-2-0.7-3.1c0.1,0.2,0.1,0.4,0.2,0.5c1.1,2.3,3.8,3.9,4.2,6.4C120.6,98.3,117,101.2,117.6,104.4z"/>
			<path class="st34" d="M125.4,84.8c0,0,2.6,7.7,8,6.6c0,0-6,2.8-8.8-5.9L125.4,84.8z"/>
			<path class="st34" d="M33.9,121.1C33.9,121.1,33.9,121.1,33.9,121.1c-0.8-1.4-1.2-3-1.9-4.4c-0.6-1.3-1.7-2.1-2.4-3.2
				c-1.7-2.7-2.3-6.4-0.7-9.3c0.3-0.5,0.6-1,0.8-1.6c0.2-0.9-0.2-1.7-0.4-2.6c-0.3-1.4,0.1-2.9,0.9-4.1c0.9-1.2,2.2-1.9,3.2-3
				c1.2-1.2,1.9-2.9,1.8-4.6c-0.1-0.9-0.3-1.7-0.4-2.6c-0.1-2.2,1.3-4.1,2.7-5.9c1.2-1.6,2.4-3.1,3.7-4.7c0.5-0.6,0.7-1.2,1.4-1.6
				c1-0.6,1.6,0.6,2.7,1.1c-0.6,1.6-0.8,3.4-0.6,5.1c0.3,1.9,1.1,3.7,1.6,5.6c0.5,1.9,0.7,4-0.3,5.7c-1.3,2.3-1.4,2.9-0.5,5.4
				c0.7,2.1,0.8,4.4,0.2,6.5c-0.4,1.5-1.1,2.9-0.8,4.4c0.1,0.7,0.5,1.4,0.8,2.1c0.6,1.8,0.1,3.8-0.6,5.5c-0.8,1.7-1.9,3.3-2.8,4.9
				c-0.7,1.3-1.1,3.1,0.1,3.9C39.4,125.1,35.6,123.9,33.9,121.1z"/>
			<path class="st35" d="M37.9,85.6c-0.9,1.6-1.8,2.7-2.6,3.6c-0.1,1.4-0.8,2.8-1.8,3.9c-0.2,0.2-0.4,0.4-0.6,0.6
				C37,91.8,37.9,85.6,37.9,85.6z"/>
			<path class="st35" d="M46.3,85.4c-0.5-1.9-1.3-3.7-1.6-5.6c-0.2-1.7,0-3.4,0.6-5.1c-1.1-0.5-1.7-1.7-2.7-1.1
				c-0.7,0.4-0.9,1-1.4,1.6c1.1,0.2,2.4,0.5,2.3,1.8c0,0.6-0.4,1.1-0.7,1.6c-1.6,3,1.1,6.7,0.2,10c-0.4,1.6-1.7,2.8-2.4,4.3
				c-0.6,1.4-0.7,2.9-0.3,4.4c0.4,1.4,1.3,2.7,1.4,4.2c0.1,1.9-1.1,3.5-1.7,5.3c-0.7,2-0.7,4.2,0.1,6.2c0.2,0.5,0.5,1,0.6,1.6
				c0.2,1.3-0.6,2.3-0.8,3.6c-0.2,1.4-0.1,2.9,0.5,4.2c0.3,0.7,0.8,1.2,1.4,1.7c0.2-0.1,0.4-0.1,0.6-0.2c-1.2-0.8-0.7-2.7-0.1-3.9
				c0.9-1.7,2-3.2,2.8-4.9c0.8-1.7,1.2-3.7,0.6-5.5c-0.2-0.7-0.6-1.4-0.8-2.1c-0.3-1.5,0.4-3,0.8-4.4c0.6-2.1,0.5-4.4-0.2-6.5
				c-0.8-2.5-0.7-3.1,0.5-5.4C47,89.4,46.8,87.3,46.3,85.4z"/>
			<path class="st36" d="M43.8,69c-0.8,0.9-3.7,4.3-2.3,5.4c0.5,0.4,1.1,0.4,1.6,0.7c0.7,0.3,1.4,0.8,1.8,1.4
				c0.2,0.3,3.7-2.4,4.1-2.6c1-0.6,2.1-1,2.5-2.1c0.2-0.6,0.2-1.2,0.2-1.8c0-0.8-0.1-1.7-0.5-2.4C49.3,64.3,45.4,67.2,43.8,69z"/>
			<path class="st37" d="M49.9,73.2l-4.6-3.3l-1.6-0.7c-0.3,0.3-0.6,0.7-1,1.2c0.5,0.1,0.9,0.1,0.9,0.1c0,1.2,0.3,3.6,0.6,5.1
				c0.3,0.2,0.6,0.5,0.8,0.8c0.2,0.3,3.7-2.4,4.1-2.6C49.2,73.6,49.6,73.4,49.9,73.2L49.9,73.2z"/>
			<linearGradient id="SVGID_14_" gradientUnits="userSpaceOnUse" x1="80.9072" y1="55.8126" x2="80.9072" y2="76.1684">
				<stop  offset="0" style="stop-color:#7A3F1B"/>
				<stop  offset="1" style="stop-color:#6A3513"/>
			</linearGradient>
			<path class="st40" d="M80.9,41L80.9,41L80.9,41L80.9,41L80.9,41c-39,3-32.3,38.6-32.3,38.6c1.8,10.5,5.9,15.6,5.9,15.6l26.4-0.1
				l26.4,0.1c0,0,4.1-5.1,5.9-15.6C113.2,79.6,119.9,43.9,80.9,41z"/>
			<path class="st41" d="M113.2,68.3c-1,3.2-7.2,9.2-32.7-3l0,0c0,0,0,0,0,0c0,0,0,0,0,0l0,0c-25.5,12.1-30.9,6.2-31.9,3
				c-0.8,6.4,0.1,11.3,0.1,11.3c1.8,10.5,5.9,15.6,5.9,15.6l25.3-0.1l27.4,0.1c0,0,4.1-5.1,5.9-15.6
				C113.2,79.6,114.1,74.6,113.2,68.3z"/>
			<path class="st39" d="M107.3,95.2c0,0,4.1-5.1,5.9-15.6c0,0,0.3-1.7,0.4-4.3c-1.5,3.7-5,9.6-12.6,11.3c-4.2,1-6.4,4.5-7.5,8.5
				L107.3,95.2z"/>
			<path class="st39" d="M60.8,86.6c-7.6-1.8-11.1-7.6-12.6-11.3c0.1,2.6,0.4,4.3,0.4,4.3c1.8,10.5,5.9,15.6,5.9,15.6l13.8-0.1
				C67.2,91.1,65,87.6,60.8,86.6z"/>
			<path class="st42" d="M57.9,93c0,0-1.6-1.2-3.3-0.2s-1.8,3.7-1,5.3s3.1,4.4,7,2.9L57.9,93z"/>
			<path class="st42" d="M103.5,93c0,0,1.6-1.2,3.3-0.2c1.7,0.9,1.8,3.7,1,5.3s-3.1,4.4-7,2.9L103.5,93z"/>
			<g>
				<path class="st1" d="M80.5,65.3c-7.5,4.4-19.1,7.9-25.3,9.7c-0.5,5.3-0.7,9.1,0.8,15.9c4.1,19.2,20.7,27.8,36.3,19.7
					c12.2-6.3,15.1-19.4,14.4-34.4C96.5,73.5,80.5,65.3,80.5,65.3z"/>
			</g>
			<g>
				<linearGradient id="SVGID_15_" gradientUnits="userSpaceOnUse" x1="80.892" y1="107.2607" x2="80.892" y2="100.0011">
					<stop  offset="0" style="stop-color:#CE3357"/>
					<stop  offset="1" style="stop-color:#A80239"/>
				</linearGradient>
				<path class="st43" d="M74,98.8c0,0,6.8,0.9,13.9,0c0,0,0.1,8.7-7.1,8.7C73.8,107.5,74,98.8,74,98.8z"/>
				<path class="st44" d="M75.1,98.9c0.1,0.6,0.3,1.5,0.5,1.9c0,0,5.2,0.8,10.6,0c0,0,0.4-0.7,0.5-1.9
					C81.9,99.4,77.2,99.1,75.1,98.9z"/>
			</g>
			<path class="st45" d="M81.1,96.5c0,0-4.2-2-2.2-2.6C80.9,93.3,83.6,95.8,81.1,96.5z"/>
			<path class="st8" d="M44.9,69.4c0,0-0.5-3.2-2.5-4.9c0,0-2,1.2-3.1,4.1c0,0,1.4,1,5.3,1.4c0,0,0.1,2.2,1,5.3c0,0,2.3-0.9,4.9-4.2
				C50.4,71.1,48.2,70,44.9,69.4z"/>
			<path class="st38" d="M31.7,105.4c-0.7,1.1-0.5,2.6,0.2,3.7c0.3,0.5,0.7,0.9,0.8,1.4c0.1,0.3,0.1,0.7,0.1,1
				c0,0.9,0.1,1.9,0.4,2.8c0.3,0.9,1,1.7,1.9,2c-0.7-0.9-0.6-2.2-0.4-3.3c0.2-1.1,0.5-2.3,0-3.4c-0.5-1.1-1.7-1.9-1.7-3.1
				c0.1-0.9,0.8-1.5,1.3-2.3c0.9-1.6,0-3.5-0.9-4.9c0.6,0.9,0.4,2.6,0.1,3.5C33.4,104,32.2,104.5,31.7,105.4z"/>
			<path class="st35" d="M58.4,56.4c5.5-3.1,11.4-5.4,17.6-6.4c1.1-0.2,2.3-0.3,3.4,0c0.2,0.1,0.4,0.2,0.6,0.3
				c0.2,0.3,0.1,0.7-0.2,0.9s-0.6,0.4-0.9,0.5c-2.4,0.8-4.8,1.7-7.2,2.5c2.3,0.4,4.5-1.1,6.8-1.1c0.3,0,0.6,0,0.9,0.2
				c0.4,0.3,0.4,0.8,0.4,1.2c0.1,2.3,0,4.6-0.2,6.8c0.5-1.8,0.9-3.6,1.4-5.4c0.2-0.9,0.5-1.8,1.2-2.3c0.5-0.4,1.2-0.4,1.9-0.4
				c1.8,0,3.5,0.4,5.2,0.9c1.1,0.4,2.3,0.9,3.4,0.8c-2.4-2.8-6.6-2.8-9.8-4.7c0.1-0.4,0.6-0.4,0.9-0.4c3.1-0.1,6.2,0.4,9.2,1.5
				c1.5,0.5,2.9,1.2,4.3,2c1.3,0.8,2.8,1.4,3.9,2.5c-0.7-1.6-2.1-2.8-3.5-3.8c-3.4-2.4-7.3-3.7-11.4-4.3c-7.6-1-15.2,0.2-21.9,4
				c-1.1,0.6-2.2,1.3-3.2,2.1C60.4,54.7,59.5,55.8,58.4,56.4z"/>
			<path class="st46" d="M71.4,61.1c-5.9,2.7-12.3,4.5-18.8,5.3c0.8,0.4,1.8,0.4,2.7,0.3c5.2-0.3,10.4-1.6,15-3.9
				c0.9-0.5,1.8-1,2.6-1.5c0.7-0.5,1.3-1,1.9-1.5c0.3-0.3,0.5-0.5,0.8-0.8c0.2-0.2,0.4-0.5,0.6-0.7c-0.7,0.5-1.5,0.9-2.2,1.4
				C73.2,60.2,72.3,60.7,71.4,61.1z"/>
			<path class="st46" d="M89.7,61.1c5.9,2.7,12.3,4.5,18.8,5.3c-0.8,0.4-1.8,0.4-2.7,0.3c-5.2-0.3-10.4-1.6-15-3.9
				c-0.9-0.5-1.8-1-2.6-1.5c-0.7-0.5-1.3-1-1.9-1.5c-0.3-0.3-0.5-0.5-0.8-0.8c-0.2-0.2-0.4-0.5-0.6-0.7c0.7,0.5,1.5,0.9,2.2,1.4
				C87.8,60.2,88.7,60.7,89.7,61.1z"/>
			<path class="st46" d="M74.5,44.6c0,0-9.5,0.5-15.2,7.5C59.3,52.1,64.1,48.3,74.5,44.6z"/>
			<path class="st46" d="M87.4,44.6c0,0,9.5,0.5,15.2,7.5C102.6,52.1,97.8,48.3,87.4,44.6z"/>
			<path class="st47" d="M55,77.5c4.4-1.2,17.3-5.1,25.5-9.6c0,0,16.5,9.3,26.3,10.5c0-0.8,0-1.5-0.1-2.3
				c-10.1-2.7-26.1-10.9-26.1-10.9c-7.5,4.4-19.1,7.9-25.3,9.7C55.1,75.8,55,76.7,55,77.5z"/>
			<path class="st39" d="M44.8,104.4c-0.2,1.4-1.2,2.5-1.3,3.9c-0.1,1.8,1.3,3.3,1.7,5.1c0.1,0.3,0.1,0.6,0.1,0.9
				c0.6-1.5,0.8-3.2,0.3-4.7c-0.2-0.7-0.6-1.4-0.8-2.1c-0.3-1.5,0.4-3,0.8-4.4c0.6-2.1,0.5-4.4-0.2-6.5c-0.8-2.5-0.7-3.1,0.5-5.4
				c0.5-0.9,0.7-2,0.7-3.1c-0.1,0.2-0.1,0.4-0.2,0.5c-1.1,2.3-3.8,3.9-4.2,6.4C41.9,98.3,45.4,101.2,44.8,104.4z"/>
			<path class="st34" d="M37.1,84.8c0,0-2.6,7.7-8,6.6c0,0,6,2.8,8.8-5.9L37.1,84.8z"/>
			<path class="st8" d="M117.5,69.4c0,0,0.5-3.2,2.5-4.9c0,0,2,1.2,3.1,4.1c0,0-1.4,1-5.3,1.4c0,0-0.1,2.2-1,5.3
				c0,0-2.3-0.9-4.9-4.2C112,71.1,114.2,70,117.5,69.4z"/>
			<g>
				<g>
					<g>
						<path class="st48" d="M61.6,83.2c-0.3,4.5,3.9,11.2,7.8,7.4c2-1.9,1.3-6.6-1.8-7.5c-1.9-0.6-3.8,0.3-5,1.4
							C62.4,84.1,61.9,83.6,61.6,83.2z"/>
					</g>
				</g>
				<path class="st44" d="M70.6,87.9c0-2.6-1.8-4.2-4.1-4.2c-2.2,0-4.1,1.9-4.1,4.2c0,2.6,1.8,4.6,4.1,4.6
					C68.8,92.5,70.6,90.5,70.6,87.9z"/>
				<ellipse class="st48" cx="67.4" cy="88.3" rx="3" ry="3.4"/>
				<ellipse class="st49" cx="68.2" cy="88.3" rx="2" ry="2.3"/>
				<polygon class="st44" points="64.8,85 66.3,87.2 64.3,86.8 				"/>
				<ellipse class="st50" cx="66.3" cy="88.9" rx="1.1" ry="1.1"/>
			</g>
			<path class="st48" d="M69.4,74.9c0,0-3.4-3.1-7.4,0.7C62,75.5,65.8,73.7,69.4,74.9z"/>
			<g>
				<g>
					<g>
						<path class="st48" d="M100.8,83.2c0.3,4.5-3.9,11.2-7.8,7.4c-2-1.9-1.3-6.6,1.8-7.5c1.9-0.6,3.8,0.3,5,1.4
							C100.1,84.1,100.5,83.6,100.8,83.2z"/>
					</g>
				</g>
				<path class="st44" d="M91.9,87.9c0-2.6,1.8-4.2,4.1-4.2c2.2,0,4.1,1.9,4.1,4.2c0,2.6-1.8,4.6-4.1,4.6
					C93.7,92.5,91.9,90.5,91.9,87.9z"/>
				<ellipse class="st48" cx="95.1" cy="88.3" rx="3" ry="3.4"/>
				<ellipse class="st49" cx="94.3" cy="88.3" rx="2" ry="2.3"/>
				<polygon class="st44" points="97.6,85 96.1,87.2 98.1,86.8 				"/>
				<ellipse class="st50" cx="96.2" cy="88.9" rx="1.1" ry="1.1"/>
			</g>
			<path class="st48" d="M92.2,74.9c0,0,3.4-3.1,7.4,0.7C99.6,75.5,95.8,73.7,92.2,74.9z"/>
		</g>
		<g>
			<path class="st51" d="M139.7,57.7c0,0,3.8-21.8,35.8-19.3c32,2.5,30,25.5,30,27.4c0,4.2-3.3,24.4-40,30.1c0,0,9.3-5.1-2.4-9.5
				C151.4,82,136.3,74.5,139.7,57.7z"/>
			<circle class="st44" cx="154.6" cy="61.8" r="2.2"/>
			<circle class="st44" cx="162" cy="63" r="1.1"/>
			<circle class="st44" cx="169" cy="61.8" r="2.2"/>
			<circle class="st44" cx="176.3" cy="63" r="1.1"/>
			<circle class="st44" cx="186.9" cy="61.8" r="2.2"/>
			<circle class="st44" cx="194.3" cy="63" r="1.1"/>
		</g>
	</g>
</g>
</svg>
