<?xml version="1.0" encoding="utf-8"?>
<!-- Generator: Adobe Illustrator 21.0.0, SVG Export Plug-In . SVG Version: 6.00 Build 0)  -->
<svg version="1.1" id="Isolation_Mode" xmlns="http://www.w3.org/2000/svg" xmlns:xlink="http://www.w3.org/1999/xlink" x="0px"
	 y="0px" viewBox="0 0 182 66" style="enable-background:new 0 0 182 66;" xml:space="preserve">
<style type="text/css">
	.st0{fill:#854FA8;}
</style>
<g>
	<path class="st0" d="M69.7,20.8l-0.1,1.6c-0.2-0.1-0.6-0.4-1.3-0.8c-1.3,1.5-2.4,2.3-3.2,2.3c-0.2,0-0.5-0.1-0.9-0.2
		c1.1-0.6,2.2-1.4,3.4-2.5c-0.7-0.5-1-0.9-1-1.4c0-0.5,0.2-1.1,0.6-1.7c0.4-0.6,0.8-0.9,1.3-0.9c0.7,0,1.1,0.5,1.1,1.4
		c0,0.5-0.2,1.2-0.5,1.9C69.2,20.4,69.5,20.6,69.7,20.8z M68.9,19.4c0-0.7-0.3-1-0.9-1c-0.2,0-0.3,0.1-0.3,0.3
		c0,0.3,0.4,0.7,1.1,1.2C68.9,19.7,68.9,19.6,68.9,19.4z"/>
	<path class="st0" d="M74.8,40.3c0,2-0.4,3.5-1.2,4.7c-0.8,1.2-2,2.1-3.6,2.8c-1.5,0.7-3,1-4.5,1c-1.6,0-2.9-0.4-4-1.1
		c-1.2-0.8-1.7-2-1.7-3.6c0-1.4,0.6-3.6,1.9-6.4l0.4,0.2c-0.2,0.5-0.4,1.2-0.7,2.3c-0.2,1-0.4,1.8-0.4,2.2c0,2.5,1.6,3.7,4.7,3.7
		c1.8,0,3.6-0.4,5.4-1.2c2.2-1,3.3-2.3,3.3-3.9c0-0.5-0.2-1.1-0.7-2c-0.8,1-1.7,1.6-2.7,1.6c-0.6,0-1.1-0.2-1.6-0.6
		c-0.4-0.4-0.7-0.9-0.7-1.5c0-0.9,0.3-1.9,0.9-3c0.7-1.3,1.4-2,2.1-2c0.6,0,1.3,0.6,2,1.9C74.4,37.1,74.8,38.7,74.8,40.3z
		 M74.4,29.9l-1.2,2l-1.9-1.3l-1,1.7l-2-1.3l1.1-1.8l2,1.3l1.1-1.7L74.4,29.9z M72.1,37.4c-0.3-0.7-0.8-1.1-1.2-1.1
		c-0.6,0-0.9,0.3-0.9,0.8c0,0.2,0.1,0.4,0.3,0.5s0.4,0.2,0.6,0.2C71.4,37.9,71.8,37.8,72.1,37.4z"/>
	<path class="st0" d="M85.5,23.7c0,0.6-0.2,1.2-0.7,1.8s-1,0.8-1.7,0.8c-1.2,0-1.7-0.7-1.7-2c0-0.8,0.2-1.5,0.5-2
		c0.4-0.7,1-1.1,1.7-1.1c0.5,0,1,0.3,1.4,0.8C85.3,22.6,85.5,23.1,85.5,23.7z M84.6,24.1c0-0.3-0.2-0.5-0.7-0.9
		c-0.4-0.3-0.8-0.5-1.1-0.5c-0.6,0-1,0.4-1,1.1c0,0.6,0.5,1,1.6,1C84.2,24.7,84.6,24.5,84.6,24.1z"/>
	<path class="st0" d="M91.7,45.7h-2.5c-1.4,0-2.4-1.3-3.1-3.9c-0.6,1.3-1.4,2.3-2.3,2.8c-0.9,0.5-2,0.7-3.6,0.7
		c-1.8,0-2.7-0.5-2.7-1.6c0-0.3,0.2-1.1,0.7-2.3l0.4,0v0.2c0,0.6,0.2,1,0.6,1.3c0.3,0.1,0.8,0.2,1.5,0.2c1.5,0,2.6-0.1,3.3-0.4
		c1.1-0.4,1.7-1.3,1.7-2.5c0-0.8-0.2-1.9-0.5-3.4s-0.5-2.6-0.6-3.4l1.1-1.5l1.3,8c0.4,2.5,1.2,3.7,2.5,3.7h2V45.7z"/>
	<path class="st0" d="M104.2,26.4c0,1.8-0.6,2.7-1.7,2.7c-0.3,0-0.7-0.1-1-0.4c-0.1,0.4-0.3,0.7-0.6,1c-0.3,0.3-0.7,0.4-1.1,0.4
		c-0.9,0-1.3-0.6-1.3-1.8c0-0.3,0.1-0.8,0.4-1.5l0.4-0.1c0,1.2,0.2,1.8,0.6,1.8c0.6,0,1.1-0.9,1.4-2.6l0.3-0.1
		c0.2,1,0.5,1.6,0.9,1.6c0.7,0,1.1-0.8,1.1-2.3l0.4-0.2C104.1,25.3,104.2,25.8,104.2,26.4z"/>
	<path class="st0" d="M104.7,29.8c0,0.7-0.2,1.2-0.6,1.4l-4.8,2.8c0-0.7,0.4-1.2,1.1-1.6L104.7,29.8z"/>
	<path class="st0" d="M97,45.7c-1.3,0-2.1-0.7-2.5-2c-1,1.3-2,2-2.8,2h-1.2v-2.1c1.4,0,2.4-0.1,2.9-0.4c0.5-0.3,0.8-0.5,0.9-0.8
		c0.1-0.2,0.1-0.7,0.1-1.3l0.3,0c0.1,0.6,0.4,1.3,0.9,1.9c0.3,0.4,1,0.6,2,0.6l-0.1,0c0,0,0,0,0.1,0c0,0,0.1,0,0.1,0v2.1H97z"/>
	<path class="st0" d="M97,43.5h2c1.2-1.5,2.5-2.9,4-4.2c2-1.7,3.6-2.6,4.9-2.6c0.7,0,1.4,0.3,1.8,0.8c0.5,0.6,0.7,1.2,0.7,2
		c0,1.1-0.4,1.9-1.2,2.6c-0.5,0.5-1.4,0.9-2.6,1.3c2.7,0,4.9,0,6.7,0v2.1H98.6c-0.2,0.4-0.6,0.9-1.2,1.8l-0.3-0.3
		c0.3-0.6,0.5-1.1,0.7-1.5H97V43.5z M109,40.8c0-0.8-0.7-1.2-2.2-1.2c-1.5,0-2.8,0.4-4,1.1c-0.7,0.5-1.7,1.4-3,2.8
		c3.1,0,5.9-0.7,8.3-2C108.7,41.3,109,41,109,40.8z"/>
	<path class="st0" d="M115,29.2c-0.2-0.2-0.4-0.6-0.7-1c0.3-0.8,0.8-1.5,1.4-2.1c0.1,0.6,0.3,1.1,0.8,1.6s1,0.7,1.6,0.8l-1.2,2.1
		l-0.6-0.4c-0.1,1.1-0.2,1.7-0.2,1.9c0,0.9,0.2,2.1,0.5,3.8c0.3,1.7,0.5,2.9,0.5,3.8c0,4.1-1.2,6.1-3.7,6.1h-1.2v-2.1
		c1.2,0,2.1-0.1,2.6-0.2c1-0.3,1.6-0.9,1.6-1.8c0-0.4-0.1-1.5-0.4-3.4c-0.2-1.3-0.4-2.5-0.6-3.7c-0.3-1.6-0.4-2.8-0.4-3.7
		c0-0.1,0-0.3,0-0.6c0-0.3,0-0.6,0-0.7V29.2z"/>
	<path class="st0" d="M122.3,41.3c0,1.1-0.3,2.5-0.9,4.4l-0.4-0.1c0.1-0.6,0.2-1.3,0.2-1.9c0-1.3-0.1-3-0.4-5
		c-0.2-1.6-0.4-3.3-0.6-4.9c-0.1-1-0.2-1.6-0.2-1.8c0-0.9,0.1-1.6,0.3-2c0.3-0.6,0.6-1.2,0.9-1.7c0,1.7,0.3,5.1,1,10.3
		C122.2,39.6,122.3,40.5,122.3,41.3z"/>
</g>
</svg>
