<?xml version="1.0" encoding="utf-8"?>
<!-- Generator: Adobe Illustrator 21.0.0, SVG Export Plug-In . SVG Version: 6.00 Build 0)  -->
<svg version="1.1" id="Isolation_Mode" xmlns="http://www.w3.org/2000/svg" xmlns:xlink="http://www.w3.org/1999/xlink" x="0px"
	 y="0px" viewBox="0 0 182 66" style="enable-background:new 0 0 182 66;" xml:space="preserve">
<style type="text/css">
	.st0{fill:#854FA8;}
</style>
<g>
	<path class="st0" d="M68.8,18.7l-0.1,1.6c-0.2-0.1-0.6-0.4-1.3-0.8c-1.3,1.5-2.4,2.3-3.2,2.3c-0.2,0-0.5-0.1-0.9-0.2
		c1.1-0.6,2.2-1.4,3.4-2.5c-0.7-0.5-1-0.9-1-1.4c0-0.5,0.2-1.1,0.6-1.7c0.4-0.6,0.8-0.9,1.3-0.9c0.7,0,1.1,0.5,1.1,1.4
		c0,0.5-0.2,1.2-0.5,1.9C68.3,18.3,68.5,18.5,68.8,18.7z M68,17.3c0-0.7-0.3-1-0.9-1c-0.2,0-0.3,0.1-0.3,0.3c0,0.3,0.4,0.7,1.1,1.2
		C68,17.6,68,17.5,68,17.3z"/>
	<path class="st0" d="M72.3,37.5c0,2-0.7,3.7-2,4.9c-1.3,1.2-3,1.8-5.1,1.8c-3.4,0-5.1-1.7-5.1-5c0-1.1,0.4-2.7,1.3-4.9l0.3,0.2
		c-0.5,2-0.8,3.2-0.8,3.7c0,2.3,1.4,3.4,4.3,3.4c1.3,0,2.6-0.3,3.8-0.8c1.6-0.7,2.4-1.5,2.4-2.7c0-1.9-0.8-4-2.3-6.3
		c0.2-0.5,0.4-1.2,0.8-2.2C71.5,32.1,72.3,34.6,72.3,37.5z M66.8,27.9l-1.2,1.9l-1.8-1.2l1.2-2L66.8,27.9z"/>
	<path class="st0" d="M83.1,24.6l-0.1,1.6c-0.2-0.1-0.6-0.4-1.3-0.8c-1.3,1.5-2.4,2.3-3.2,2.3c-0.2,0-0.5-0.1-0.9-0.2
		c1.1-0.6,2.2-1.4,3.4-2.5c-0.7-0.5-1-0.9-1-1.4c0-0.5,0.2-1.1,0.6-1.7c0.4-0.6,0.8-0.9,1.3-0.9c0.7,0,1.1,0.5,1.1,1.4
		c0,0.5-0.2,1.2-0.5,1.9C82.6,24.2,82.8,24.3,83.1,24.6z M82.3,23.1c0-0.7-0.3-1-0.9-1c-0.2,0-0.3,0.1-0.3,0.3
		c0,0.3,0.4,0.7,1.1,1.2C82.2,23.5,82.3,23.3,82.3,23.1z"/>
	<path class="st0" d="M85.4,39.9c0,2.8-0.7,5.4-2.1,7.7c-1.4,2.3-3,3.5-4.7,3.5c-0.8,0-1.6-0.1-2.3-0.4c-0.4-0.1-1.1-0.5-2.1-1
		l0.3-0.3c0.8,0.3,1.5,0.4,2.2,0.4c1.8,0,3.6-0.9,5.3-2.7c1.7-1.8,2.5-3.6,2.5-5.4c0-0.6-0.1-1.1-0.3-1.4c-0.6,0.8-1.2,1.2-1.7,1.2
		c-0.6,0-1.1-0.2-1.5-0.6c-0.4-0.4-0.6-0.9-0.6-1.5c0-0.7,0.3-1.7,0.9-2.8c0.6-1.3,1.3-2,1.9-2c0.8,0,1.4,0.7,1.8,2.2
		C85.2,37.8,85.4,38.9,85.4,39.9z M82.3,37.4c-0.4,0-0.7,0.2-0.7,0.6c0,0.5,0.2,0.8,0.7,0.8c0.5,0,0.8-0.2,0.8-0.7
		C83.1,37.6,82.8,37.4,82.3,37.4z"/>
	<path class="st0" d="M95.5,42.6h-2.5c-2,0-3.1-1.1-3.3-3.4c-0.3-2.9-0.7-7-1.2-12.6c0.4-0.6,0.9-1.1,1.2-1.5L90.9,38
		c0.1,1,0.4,1.7,0.9,2c0.4,0.3,1,0.4,1.8,0.4c0.2,0,0.5,0,0.9,0c0.4,0,0.8,0,1,0V42.6z"/>
	<path class="st0" d="M106.3,42.6h-2.5c-1.2,0-2.5-0.9-4-2.6c-0.4,0.4-1.1,0.9-2,1.6c-1.1,0.7-1.8,1-2.3,1h-1.2v-2.1
		c2,0,3.5-0.5,4.5-1.6c-0.6-0.6-1.1-0.9-1.3-1c-0.4-0.2-0.9-0.4-1.6-0.4c0.3-1,0.7-1.7,1.2-2.1s1.4-0.6,2.4-0.6
		c0.9,0,1.7,0.2,2.5,0.5c1,0.4,1.5,1,1.5,1.8c0,0.9-0.7,1.5-2.2,2.1c0.6,0.7,1.3,1.1,2.2,1.3c0.4,0.1,1.3,0.1,2.7,0.1V42.6z"/>
	<path class="st0" d="M111.3,21.5c0,1.8-0.6,2.7-1.7,2.7c-0.3,0-0.7-0.1-1-0.4c-0.1,0.4-0.3,0.7-0.6,1c-0.3,0.3-0.7,0.4-1.1,0.4
		c-0.9,0-1.3-0.6-1.3-1.8c0-0.3,0.1-0.8,0.4-1.5l0.4-0.1c0,1.2,0.2,1.8,0.6,1.8c0.6,0,1.1-0.9,1.4-2.6l0.3-0.1
		c0.2,1,0.5,1.6,0.9,1.6c0.7,0,1.1-0.8,1.1-2.3L111,20C111.2,20.5,111.3,21,111.3,21.5z"/>
	<path class="st0" d="M111.1,15.1c0,0.7-0.2,1.2-0.5,1.4l-4.9,2.8c0-0.7,0.4-1.2,1.1-1.6L111.1,15.1z"/>
	<path class="st0" d="M113,42.6h-2.5c-0.3,0-0.7-0.2-1-0.7c-0.3-0.5-0.5-0.9-0.5-1.3c-0.7,1.3-1.6,2-2.8,2h-1.2v-2.1
		c1.4,0,2.3-0.1,2.7-0.3c0.5-0.3,0.8-0.6,0.9-0.9c0.1-0.2,0.1-0.6,0.1-1.3l0.3,0c0.3,1.1,0.7,1.8,1.4,2.1c0.5,0.2,1.3,0.3,2.6,0.3
		V42.6z M111.9,32.6l-1.2,1.9l-1.9-1.3l-1.1,1.6l-1.7-1.2l1.1-2l1.9,1.3l1-1.7L111.9,32.6z"/>
	<path class="st0" d="M114.6,26.1c-0.2-0.2-0.4-0.6-0.7-1c0.3-0.8,0.8-1.5,1.4-2.1c0.1,0.6,0.3,1.1,0.8,1.6c0.4,0.4,1,0.7,1.6,0.8
		l-1.2,2.1l-0.6-0.4c-0.1,1.1-0.2,1.7-0.2,1.9c0,0.9,0.2,2.1,0.5,3.8c0.3,1.7,0.5,2.9,0.5,3.8c0,4.1-1.2,6.1-3.7,6.1h-1.2v-2.1
		c1.2,0,2.1-0.1,2.6-0.2c1-0.3,1.6-0.9,1.6-1.8c0-0.4-0.1-1.5-0.4-3.4c-0.2-1.3-0.4-2.5-0.6-3.7c-0.3-1.6-0.4-2.8-0.4-3.7
		c0-0.1,0-0.3,0-0.6c0-0.3,0-0.6,0-0.7V26.1z"/>
	<path class="st0" d="M121.9,38.2c0,1.1-0.3,2.5-0.9,4.4l-0.4-0.1c0.1-0.6,0.2-1.3,0.2-1.9c0-1.3-0.1-3-0.4-5
		c-0.2-1.6-0.4-3.3-0.6-4.9c-0.1-1-0.2-1.6-0.2-1.8c0-0.9,0.1-1.6,0.3-2c0.3-0.6,0.6-1.2,0.9-1.7c0,1.7,0.3,5.1,1,10.3
		C121.8,36.4,121.9,37.3,121.9,38.2z"/>
</g>
</svg>
