<?xml version="1.0" encoding="utf-8"?>
<!-- Generator: Adobe Illustrator 21.0.0, SVG Export Plug-In . SVG Version: 6.00 Build 0)  -->
<svg version="1.1" id="Isolation_Mode" xmlns="http://www.w3.org/2000/svg" xmlns:xlink="http://www.w3.org/1999/xlink" x="0px"
	 y="0px" viewBox="0 0 182 66" style="enable-background:new 0 0 182 66;" xml:space="preserve">
<style type="text/css">
	.st0{fill:#854FA8;}
</style>
<g>
	<path class="st0" d="M66.5,22.1l-0.1,1.6c-0.2-0.1-0.6-0.4-1.3-0.8c-1.3,1.5-2.4,2.3-3.2,2.3c-0.2,0-0.5-0.1-0.9-0.2
		c1.1-0.6,2.2-1.4,3.4-2.5c-0.7-0.5-1-0.9-1-1.4c0-0.5,0.2-1.1,0.6-1.7c0.4-0.6,0.8-0.9,1.3-0.9c0.7,0,1.1,0.5,1.1,1.4
		c0,0.5-0.2,1.2-0.5,1.9C66,21.7,66.3,21.9,66.5,22.1z M65.7,20.7c0-0.7-0.3-1-0.9-1c-0.2,0-0.3,0.1-0.3,0.3c0,0.3,0.4,0.7,1.1,1.2
		C65.7,21,65.7,20.9,65.7,20.7z"/>
	<path class="st0" d="M68.7,33.1c0.2,0,0.5,0,0.9,0s0.7,0,0.9,0l-1,1.9c-0.9,0.1-1.9,0.2-2.9,0.4c0.3,1,0.8,1.6,1.7,1.9
		c0.5,0.2,1.4,0.3,2.7,0.3h2.9v2.1h-2.9c-1.6,0-2.7,0-3.3-0.1c-1.5-0.3-2.2-0.9-2.2-1.8c0-0.5,0.1-1.3,0.4-2.3
		c-2.5,0.5-4.6,1.4-6.3,2.8c-2.1,1.6-3.2,3.6-3.2,5.9c0,2.5,1.2,4.4,3.6,5.7c1.9,1,4.2,1.4,7,1.4c1.6,0,3.5-0.1,5.8-0.4l0.2,0.4
		l-6.5,2c-1.9,0-3.2-0.1-4.1-0.2c-2.2-0.3-3.9-1.1-5.1-2.3c-1.3-1.3-2-3-2-5.1c0-4.3,2.3-7.8,6.8-10.5c-1.5-0.3-2.4-0.4-2.7-0.4
		c-0.7,0-1.1,0.1-1.1,0.4h-1.8c0.2-0.8,0.5-1.5,1.1-2c0.6-0.6,1.3-0.8,2.1-0.8c0.6,0,1.4,0.1,2.4,0.3c1.3,0.2,2.1,0.3,2.4,0.4
		C65.9,33,67.3,33.1,68.7,33.1z"/>
	<path class="st0" d="M81,21.9l-0.1,1.6c-0.2-0.1-0.6-0.4-1.3-0.8c-1.3,1.5-2.4,2.3-3.2,2.3c-0.2,0-0.5-0.1-0.9-0.2
		c1.1-0.6,2.2-1.4,3.4-2.5c-0.7-0.5-1-0.9-1-1.4c0-0.5,0.2-1.1,0.6-1.7c0.4-0.6,0.8-0.9,1.3-0.9c0.7,0,1.1,0.5,1.1,1.4
		c0,0.5-0.2,1.2-0.5,1.9C80.5,21.5,80.7,21.7,81,21.9z M80.2,20.5c0-0.7-0.3-1-0.9-1c-0.2,0-0.3,0.1-0.3,0.3c0,0.3,0.4,0.7,1.1,1.2
		C80.2,20.8,80.2,20.7,80.2,20.5z"/>
	<path class="st0" d="M82.7,36.2c0,0.4-0.2,0.9-0.5,1.5c-0.4,0.6-0.7,0.9-1.1,0.9c-0.6,0-1.8-0.5-3.7-1.6c-1.1,1.7-2.2,2.6-3.2,2.6
		h-1.3v-2.1h1.2c0.4,0,0.9-0.2,1.7-0.6c0.4-0.2,0.7-0.4,0.8-0.5c0.2-0.1,0.3-0.4,0.5-0.7c0.4-0.7,0.9-1.5,1.3-2.3
		c0.7-1,1.3-1.4,2-1.4c0.6,0,1.1,0.6,1.6,1.7C82.5,34.6,82.7,35.4,82.7,36.2z M80.8,35.7c0-1.1-0.4-1.7-1.2-1.7
		c-0.3,0-0.5,0.1-0.7,0.3c-0.2,0.2-0.3,0.4-0.4,0.7C79,35.3,79.7,35.5,80.8,35.7z"/>
	<path class="st0" d="M92.3,39.6h-2.5c-2,0-3.1-1.1-3.3-3.4c-0.3-2.9-0.7-7-1.2-12.6c0.4-0.6,0.9-1.1,1.2-1.5l1.1,12.9
		c0.1,1,0.4,1.7,0.9,2c0.4,0.3,1,0.4,1.8,0.4c0.2,0,0.5,0,0.9,0c0.4,0,0.8,0,1,0V39.6z"/>
	<path class="st0" d="M97.6,39.6c-1.3,0-2.1-0.7-2.5-2c-1,1.3-2,2-2.8,2h-1.2v-2.1c1.4,0,2.4-0.1,2.9-0.4s0.8-0.5,0.9-0.8
		c0.1-0.2,0.1-0.7,0.1-1.3l0.3,0c0.1,0.6,0.4,1.3,0.9,1.9c0.3,0.4,1,0.6,2,0.6l-0.1,0c0,0,0,0,0.1,0s0.1,0,0.1,0v2.1H97.6z"/>
	<path class="st0" d="M97.6,37.5c1.6,0,2.7-0.3,3.3-1c0.2-0.2,0.3-0.9,0.2-2l0.3,0c0.3,0.9,0.6,1.5,0.9,1.7c0.3,0.3,0.9,0.4,1.8,0.4
		c0.5,0,1-0.1,1.3-0.4s0.6-0.5,0.7-0.7c0.1-0.1,0.1-0.5,0.1-1h0.3c0.2,0.6,0.5,1.2,1,1.8c0.6,0.7,1.1,1.1,1.6,1.1h2v2.1h-2.3
		c-0.5,0-1-0.4-1.5-1.1c-0.4-0.6-0.6-1.2-0.8-1.8c-0.7,1.7-1.7,2.5-2.9,2.5c-1,0-1.7-0.6-2-1.7c-0.6,0.8-1.2,1.3-1.6,1.6
		c-0.6,0.3-1.3,0.5-2.2,0.5V37.5z"/>
	<path class="st0" d="M115.9,18.6c0,1.8-0.6,2.7-1.7,2.7c-0.3,0-0.7-0.1-1-0.4c-0.1,0.4-0.3,0.7-0.6,1c-0.3,0.3-0.7,0.4-1.1,0.4
		c-0.9,0-1.3-0.6-1.3-1.8c0-0.3,0.1-0.8,0.4-1.5l0.4-0.1c0,1.2,0.2,1.8,0.6,1.8c0.6,0,1.1-0.9,1.4-2.6l0.3-0.1
		c0.2,1,0.5,1.6,0.9,1.6c0.7,0,1.1-0.8,1.1-2.3l0.4-0.2C115.9,17.5,115.9,18,115.9,18.6z"/>
	<path class="st0" d="M115.8,12.9c0,0.7-0.2,1.2-0.5,1.4l-4.9,2.8c0-0.7,0.4-1.2,1.1-1.6L115.8,12.9z"/>
	<path class="st0" d="M117.7,39.6h-2.5c-0.3,0-0.7-0.2-1-0.7c-0.3-0.5-0.5-0.9-0.5-1.3c-0.7,1.3-1.6,2-2.8,2h-1.2v-2.1
		c1.4,0,2.3-0.1,2.7-0.3c0.5-0.3,0.8-0.6,0.9-0.9c0.1-0.2,0.1-0.6,0.1-1.3l0.3,0c0.3,1.1,0.7,1.8,1.4,2.1c0.5,0.2,1.3,0.3,2.6,0.3
		V39.6z M116.6,29.7l-1.2,1.9l-1.9-1.3l-1.1,1.6l-1.7-1.2l1.1-2l1.9,1.3l1-1.7L116.6,29.7z"/>
	<path class="st0" d="M119.3,23.1c-0.2-0.2-0.4-0.6-0.7-1c0.3-0.8,0.8-1.5,1.4-2.1c0.1,0.6,0.3,1.1,0.8,1.6c0.4,0.4,1,0.7,1.6,0.8
		l-1.2,2.1l-0.6-0.4c-0.1,1.1-0.2,1.7-0.2,1.9c0,0.9,0.2,2.1,0.5,3.8c0.3,1.7,0.5,2.9,0.5,3.8c0,4.1-1.2,6.1-3.7,6.1h-1.2v-2.1
		c1.2,0,2.1-0.1,2.6-0.2c1-0.3,1.6-0.9,1.6-1.8c0-0.4-0.1-1.5-0.4-3.4c-0.2-1.3-0.4-2.5-0.6-3.7c-0.3-1.6-0.4-2.8-0.4-3.7
		c0-0.1,0-0.3,0-0.6c0-0.3,0-0.6,0-0.7V23.1z"/>
	<path class="st0" d="M126.6,35.2c0,1.1-0.3,2.5-0.9,4.4l-0.4-0.1c0.1-0.6,0.2-1.3,0.2-1.9c0-1.3-0.1-3-0.4-5
		c-0.2-1.6-0.4-3.3-0.6-4.9c-0.1-1-0.2-1.6-0.2-1.8c0-0.9,0.1-1.6,0.3-2c0.3-0.6,0.6-1.2,0.9-1.7c0,1.7,0.3,5.1,1,10.3
		C126.5,33.5,126.6,34.4,126.6,35.2z"/>
</g>
</svg>
