<?xml version="1.0" encoding="utf-8"?>
<!-- Generator: Adobe Illustrator 21.0.0, SVG Export Plug-In . SVG Version: 6.00 Build 0)  -->
<svg version="1.1" id="Isolation_Mode" xmlns="http://www.w3.org/2000/svg" xmlns:xlink="http://www.w3.org/1999/xlink" x="0px"
	 y="0px" viewBox="0 0 182 66" style="enable-background:new 0 0 182 66;" xml:space="preserve">
<style type="text/css">
	.st0{fill:#854FA8;}
</style>
<g>
	<path class="st0" d="M83.1,24.3c0,1.8-0.6,2.7-1.7,2.7c-0.3,0-0.7-0.1-1-0.4c-0.1,0.4-0.3,0.7-0.6,1c-0.3,0.3-0.7,0.4-1.1,0.4
		c-0.9,0-1.3-0.6-1.3-1.8c0-0.3,0.1-0.8,0.4-1.5l0.4-0.1c0,1.2,0.2,1.8,0.6,1.8c0.6,0,1.1-0.9,1.4-2.6l0.3-0.1
		c0.2,1,0.5,1.6,0.9,1.6c0.7,0,1.1-0.8,1.1-2.3l0.4-0.2C83,23.3,83.1,23.8,83.1,24.3z"/>
	<path class="st0" d="M83,20.6l-0.1,1.6c-0.2-0.1-0.6-0.4-1.3-0.8c-1.3,1.5-2.4,2.3-3.2,2.3c-0.2,0-0.5-0.1-0.9-0.2
		c1.1-0.6,2.2-1.4,3.4-2.5c-0.7-0.5-1-0.9-1-1.4c0-0.5,0.2-1.1,0.6-1.7c0.4-0.6,0.8-0.9,1.3-0.9c0.7,0,1.1,0.5,1.1,1.4
		c0,0.5-0.2,1.2-0.5,1.9C82.5,20.2,82.7,20.4,83,20.6z M82.2,19.2c0-0.7-0.3-1-0.9-1c-0.2,0-0.3,0.1-0.3,0.3c0,0.3,0.4,0.7,1.1,1.2
		C82.2,19.6,82.2,19.4,82.2,19.2z"/>
	<path class="st0" d="M81.4,43.1c0,1.1-0.2,2.2-0.5,3.2c-0.6,2.2-1.6,3.8-2.9,4.8c-1.3,0.9-3.1,1.3-5.5,1.3c-1.4,0-2.6-0.4-3.6-1.2
		c-1-0.9-1.5-2-1.5-3.4c0-0.7,0.2-1.6,0.6-2.7c0.3-0.9,0.7-1.7,1-2.6l0.4,0.2c-0.6,1.7-1,3-1,4c0,2.3,1.8,3.5,5.5,3.5
		c1.2,0,2.4-0.3,3.6-0.8c1.1-0.4,1.8-1,2.2-1.7c0.3-0.5,0.5-1.5,0.7-2.8c0.1-0.8,0.1-1.4,0.1-1.6c0-0.2-0.2-0.6-0.5-1
		c-0.3-0.3-0.5-0.6-0.7-0.9l0.9-2.1c0.5,1.1,1.2,1.6,2,1.6v2.1H81.4z"/>
	<path class="st0" d="M81.6,41c1.6,0,2.7-0.3,3.3-1c0.2-0.2,0.3-0.9,0.2-2l0.3,0c0.3,0.9,0.6,1.5,0.9,1.7c0.3,0.3,0.9,0.4,1.8,0.4
		c0.5,0,1-0.1,1.3-0.4S90,39.2,90,39c0.1-0.1,0.1-0.5,0.1-1h0.3c0.2,0.6,0.5,1.2,1,1.8C92,40.6,92.5,41,93,41h2v2.1h-2.3
		c-0.5,0-1-0.4-1.5-1.1c-0.4-0.6-0.6-1.2-0.8-1.8c-0.7,1.7-1.7,2.5-2.9,2.5c-1,0-1.7-0.6-2-1.7c-0.6,0.8-1.2,1.3-1.6,1.6
		c-0.6,0.3-1.3,0.5-2.2,0.5V41z M88.4,32.6l-1.1,1.9l-1.9-1.2L84.3,35l-1.9-1.2l1.2-1.9l2,1.2l1-1.6L88.4,32.6z M86.1,29.5L85,31.4
		l-1.8-1.2l1.1-1.9L86.1,29.5z"/>
	<path class="st0" d="M100.4,45.9c0,0.7-0.2,1.2-0.6,1.4L95,50c0-0.7,0.4-1.2,1.1-1.6L100.4,45.9z"/>
	<path class="st0" d="M105.8,43.1h-2.5c-1.2,0-2.5-0.9-4-2.6c-0.4,0.4-1.1,0.9-2,1.6c-1.1,0.7-1.8,1-2.3,1h-1.2V41
		c2,0,3.5-0.5,4.5-1.6c-0.6-0.6-1.1-0.9-1.3-1c-0.4-0.2-0.9-0.4-1.6-0.4c0.3-1,0.7-1.7,1.2-2.1s1.4-0.6,2.4-0.6
		c0.9,0,1.7,0.2,2.5,0.5c1,0.4,1.5,1,1.5,1.8c0,0.9-0.7,1.5-2.2,2.1c0.6,0.7,1.3,1.1,2.2,1.3c0.4,0.1,1.3,0.1,2.7,0.1V43.1z
		 M99.7,29.5l-1.1,2l-1.8-1.1l1.1-2L99.7,29.5z"/>
	<path class="st0" d="M109.7,16.1c0,0.6-0.2,1.2-0.7,1.8c-0.5,0.6-1,0.8-1.7,0.8c-1.2,0-1.7-0.7-1.7-2c0-0.8,0.2-1.5,0.5-2
		c0.4-0.7,1-1.1,1.7-1.1c0.5,0,1,0.3,1.4,0.8C109.5,15,109.7,15.5,109.7,16.1z M108.8,16.4c0-0.3-0.2-0.5-0.7-0.9
		c-0.4-0.3-0.8-0.5-1.1-0.5c-0.6,0-1,0.4-1,1.1c0,0.6,0.5,1,1.6,1C108.4,17.1,108.8,16.9,108.8,16.4z"/>
	<path class="st0" d="M107.4,26.6c-0.2-0.2-0.4-0.6-0.7-1c0.3-0.8,0.8-1.5,1.4-2.1c0.1,0.6,0.3,1.1,0.8,1.6c0.4,0.4,1,0.7,1.6,0.8
		l-1.2,2.1l-0.6-0.4c-0.1,1.1-0.2,1.7-0.2,1.9c0,0.9,0.2,2.1,0.5,3.8c0.3,1.7,0.5,2.9,0.5,3.8c0,4.1-1.2,6.1-3.7,6.1h-1.2V41
		c1.2,0,2.1-0.1,2.6-0.2c1-0.3,1.6-0.9,1.6-1.8c0-0.4-0.1-1.5-0.4-3.4c-0.2-1.3-0.4-2.5-0.6-3.7c-0.3-1.6-0.4-2.8-0.4-3.7
		c0-0.1,0-0.3,0-0.6c0-0.3,0-0.6,0-0.7V26.6z"/>
	<path class="st0" d="M114.6,38.7c0,1.1-0.3,2.5-0.9,4.4l-0.4-0.1c0.1-0.6,0.2-1.3,0.2-1.9c0-1.3-0.1-3-0.4-5
		c-0.2-1.6-0.4-3.3-0.6-4.9c-0.1-1-0.2-1.6-0.2-1.8c0-0.9,0.1-1.6,0.3-2c0.3-0.6,0.6-1.2,0.9-1.7c0,1.7,0.3,5.1,1,10.3
		C114.6,37,114.6,37.9,114.6,38.7z"/>
</g>
</svg>
