<?xml version="1.0" encoding="utf-8"?>
<!-- Generator: Adobe Illustrator 16.0.0, SVG Export Plug-In . SVG Version: 6.00 Build 0)  -->
<!DOCTYPE svg PUBLIC "-//W3C//DTD SVG 1.1//EN" "http://www.w3.org/Graphics/SVG/1.1/DTD/svg11.dtd">
<svg version="1.1" id="Layer_1" xmlns="http://www.w3.org/2000/svg" xmlns:xlink="http://www.w3.org/1999/xlink" x="0px" y="0px"
	 width="500px" height="500px" viewBox="0 0 500 500" enable-background="new 0 0 500 500" xml:space="preserve">
<polygon fill-rule="evenodd" clip-rule="evenodd" fill="#F97330" points="427.131,200.325 480.264,289.101 265.949,330.961 
	261.253,232.587 "/>
<rect x="61.212" y="216.164" transform="matrix(-0.9816 -0.1909 0.1909 -0.9816 246.6922 464.1429)" fill-rule="evenodd" clip-rule="evenodd" fill="#379E90" width="168.986" height="8.047"/>
<path fill-rule="evenodd" clip-rule="evenodd" fill="#DCCEB1" d="M457.979,293.436l-191.063,37.307l-21.022-20.368
	c25.424-26.53,125.967-70.597,206.768-44.271C452.339,276.469,453.891,285.713,457.979,293.436z"/>
<path fill-rule="evenodd" clip-rule="evenodd" fill="#BAAB8E" d="M452.661,266.103l-33.192-55.212
	c-63.425-20.664-155.177-14.467-175.133,6.359l1.558,93.125C276.393,283.313,361.896,246.188,452.661,266.103z"/>
<polygon fill-rule="evenodd" clip-rule="evenodd" fill="#F97330" points="63.534,200.107 10.401,288.883 224.716,330.742 
	229.412,232.369 "/>
<path fill-rule="evenodd" clip-rule="evenodd" fill="#DCCEB1" d="M33.655,293.436l191.061,37.307l21.178-20.368
	c-25.424-26.53-126.121-70.597-206.922-44.271C39.293,276.469,37.741,285.713,33.655,293.436z"/>
<path fill-rule="evenodd" clip-rule="evenodd" fill="#BAAB8E" d="M245.894,310.374c11.731,0,21.242,9.511,21.242,21.243
	c0,0.276-0.006,0.551-0.018,0.825c-6.777,0.917-13.642,1.375-20.515,1.375c-7.355,0-14.703-0.525-21.944-1.575
	c-0.005-0.208-0.01-0.416-0.01-0.625C224.649,319.885,234.16,310.374,245.894,310.374z"/>
<rect x="7.413" y="309.647" transform="matrix(-0.9816 -0.1909 0.1909 -0.9816 171.1 646.0303)" fill-rule="evenodd" clip-rule="evenodd" fill="#FF5B00" width="218.515" height="10.251"/>
<rect x="265.869" y="309.756" transform="matrix(0.9816 -0.1909 0.1909 0.9816 -53.2265 77.3003)" fill-rule="evenodd" clip-rule="evenodd" fill="#FF5B00" width="217.373" height="10.251"/>
<path fill="#FF2A00" d="M268.715,340.831c-7.329,1.008-14.815,1.512-22.293,1.512c-7.883,0-15.774-0.56-23.482-1.68l1.958-10.062
	c7.05,0.993,14.282,1.489,21.524,1.489c6.891,0,13.771-0.449,20.494-1.349l1.931,9.921L268.715,340.831z"/>
<path fill-rule="evenodd" clip-rule="evenodd" fill="#C4F5EE" d="M38.971,266.103l44.495-84.362
	c63.425-20.665,140.913,14.683,160.87,35.509l1.558,93.125C220.469,283.844,119.771,239.777,38.971,266.103z"/>
<path fill-rule="evenodd" clip-rule="evenodd" fill="#A6E6DC" d="M441.392,236.952l-43.162-66.607
	c-64.85-16.392-133.938,26.078-153.894,46.904l1.558,93.125C272.22,279.33,358.394,221.892,441.392,236.952z"/>
<path fill-rule="evenodd" clip-rule="evenodd" fill="#BAAB8E" d="M185.371,289.272c-9.776-5.165-66.02-18.005-92.293-18.739
	C120.779,266.117,177.669,281.466,185.371,289.272z"/>
<path fill-rule="evenodd" clip-rule="evenodd" fill="#BAAB8E" d="M220.027,324.407c-9.609-5.47-55.4-17.868-81.638-19.429
	C166.216,301.437,212.575,316.362,220.027,324.407z"/>
<path fill-rule="evenodd" clip-rule="evenodd" fill="#BAAB8E" d="M133.665,291.418c-15.346-4.225-58.307-12.335-84.543-13.902
	C78.873,273.313,122.418,283.573,133.665,291.418z"/>
<path fill-rule="evenodd" clip-rule="evenodd" fill="#BAAB8E" d="M221.568,315.911c-9.392-5.834-54.675-19.978-80.833-22.543
	C168.677,290.896,214.43,307.587,221.568,315.911z"/>
<g>
	<path fill-rule="evenodd" clip-rule="evenodd" fill="#C98664" d="M210.607,220.45h4.032v14.288c-1.426,1.024-2.777,1.111-4.032,0
		V220.45z"/>
	<ellipse fill-rule="evenodd" clip-rule="evenodd" fill="#52BAAC" cx="212.623" cy="207.287" rx="11.527" ry="18.597"/>
</g>
<g>
	<path fill-rule="evenodd" clip-rule="evenodd" fill="#C98664" d="M141.364,203.022h4.503v9.007c-1.593,0.646-3.104,0.702-4.503,0
		V203.022z"/>
	<path fill-rule="evenodd" clip-rule="evenodd" fill="#FFA200" d="M143.615,158.469c8.315,13.237,12.98,28.095,13.053,44.997
		c-8.531,2.731-17.216,3-26.105,0C131.385,188.466,136.383,173.467,143.615,158.469z"/>
</g>
<path fill-rule="evenodd" clip-rule="evenodd" fill="#E8DEC7" d="M184.278,292.949c-9.775-5.165-55.936-16.114-82.208-16.849
	C130.26,273.151,176.968,286.315,184.278,292.949z"/>
<path fill-rule="evenodd" clip-rule="evenodd" fill="#E8DEC7" d="M221.775,320.552c-8.384-6.069-53.871-19.187-81.342-20.63
	C168.308,296.791,214.442,312.397,221.775,320.552z"/>
<path fill-rule="evenodd" clip-rule="evenodd" fill="#E8DEC7" d="M130.358,296.792c-8.929-5.234-55.467-13.912-82.951-12.705
	C74.852,278.287,122.274,289.382,130.358,296.792z"/>
<path fill-rule="evenodd" clip-rule="evenodd" fill="#BAAB8E" d="M277.954,300.448c17.514-9.463,96.11-29.181,122.384-29.915
	C372.637,266.117,293.393,287.055,277.954,300.448z"/>
<path fill-rule="evenodd" clip-rule="evenodd" fill="#BAAB8E" d="M362,302.665c15.347-4.226,58.307-12.335,84.544-13.903
	C416.792,284.56,373.247,294.819,362,302.665z"/>
<path fill-rule="evenodd" clip-rule="evenodd" fill="#BAAB8E" d="M271.848,315.911c9.392-5.834,54.675-19.978,80.833-22.543
	C324.739,290.896,278.986,307.587,271.848,315.911z"/>
<path fill-rule="evenodd" clip-rule="evenodd" fill="#E8DEC7" d="M279.045,305.846c9.775-5.165,86.028-29.011,112.302-29.745
	C363.156,273.151,292.805,295.772,279.045,305.846z"/>
<path fill-rule="evenodd" clip-rule="evenodd" fill="#E8DEC7" d="M271.642,320.552c8.384-6.069,53.87-19.187,81.342-20.63
	C325.108,296.791,278.974,312.397,271.642,320.552z"/>
<path fill-rule="evenodd" clip-rule="evenodd" fill="#E8DEC7" d="M361.805,297.545c8.929-5.234,55.468-13.912,82.95-12.705
	C417.31,279.039,369.888,290.135,361.805,297.545z"/>
<g>
	<path fill-rule="evenodd" clip-rule="evenodd" fill="#C98664" d="M224.141,273.236h4.503v9.007c-1.593,0.646-3.102,0.702-4.503,0
		V273.236z"/>
	<path fill-rule="evenodd" clip-rule="evenodd" fill="#FFA200" d="M226.393,228.683c8.316,13.236,12.98,28.095,13.052,44.996
		c-8.532,2.732-17.216,3-26.105,0C214.162,258.681,219.159,243.681,226.393,228.683z"/>
</g>
<g>
	<path fill-rule="evenodd" clip-rule="evenodd" fill="#C98664" d="M84.523,228.74h3.973v14.082c-1.406,1.011-2.737,1.096-3.973,0
		V228.74z"/>
	<ellipse fill-rule="evenodd" clip-rule="evenodd" fill="#52BAAC" cx="86.51" cy="219.303" rx="14.109" ry="14.793"/>
</g>
<g>
	<polygon fill-rule="evenodd" clip-rule="evenodd" fill="#FFA200" points="285.213,219.445 303.563,236.228 332.684,228.162 
		327.398,207.758 	"/>
	<polygon fill-rule="evenodd" clip-rule="evenodd" fill="#FFA200" points="372.185,195.353 327.058,207.853 332.684,228.162 
		361.05,220.304 	"/>
	<path fill-rule="evenodd" clip-rule="evenodd" fill="#52BAAC" d="M290.774,215.304l35.567-9.852c0,0-14.573-52.609-16.801-60.649
		C285.146,175.476,290.774,215.304,290.774,215.304z"/>
	<path fill-rule="evenodd" clip-rule="evenodd" fill="#379E90" d="M314.189,151.837c1.934,6.98,14.59,52.67,14.59,52.67
		l30.887-8.556C359.666,195.952,346.061,163.779,314.189,151.837z"/>
	<polygon fill-rule="evenodd" clip-rule="evenodd" fill="#F24660" points="288.626,222.567 291.932,225.59 329.459,215.194 
		328.445,211.537 	"/>
	<polygon fill-rule="evenodd" clip-rule="evenodd" fill="#F24660" points="370.134,199.989 328.104,211.632 329.117,215.289 
		368.107,204.488 	"/>
</g>
<g>
	<g>
		<path fill-rule="evenodd" clip-rule="evenodd" fill="#379E90" d="M285.461,226.111c-10.061,6.353-13.065,19.659-6.712,29.719
			l18.215-11.502L285.461,226.111z"/>
		<path fill-rule="evenodd" clip-rule="evenodd" fill="#52BAAC" d="M289.222,232.066c-6.771,4.277-8.794,13.233-4.518,20.004
			l12.26-7.743L289.222,232.066z"/>
		<path fill-rule="evenodd" clip-rule="evenodd" fill="#7DD4C8" d="M293.646,239.073c-2.902,1.832-3.77,5.67-1.937,8.572
			l5.254-3.318L293.646,239.073z"/>
	</g>
	<g>
		<path fill-rule="evenodd" clip-rule="evenodd" fill="#379E90" d="M314.108,214.238c-11.003,4.53-16.249,17.122-11.719,28.124
			l19.921-8.203L314.108,214.238z"/>
		<path fill-rule="evenodd" clip-rule="evenodd" fill="#52BAAC" d="M316.79,220.75c-7.405,3.05-10.937,11.525-7.888,18.93
			l13.408-5.521L316.79,220.75z"/>
		<path fill-rule="evenodd" clip-rule="evenodd" fill="#7DD4C8" d="M319.944,228.413c-3.174,1.306-4.687,4.938-3.38,8.112
			l5.746-2.366L319.944,228.413z"/>
	</g>
	<g>
		<path fill-rule="evenodd" clip-rule="evenodd" fill="#379E90" d="M344.557,204.698c-11.38,3.475-17.787,15.517-14.312,26.896
			l20.604-6.292L344.557,204.698z"/>
		<path fill-rule="evenodd" clip-rule="evenodd" fill="#52BAAC" d="M346.613,211.434c-7.658,2.339-11.972,10.445-9.633,18.104
			l13.869-4.235L346.613,211.434z"/>
		
			<path fill-rule="evenodd" clip-rule="evenodd" fill="#A9D3F5" stroke="#7DD4C8" stroke-width="0.216" stroke-miterlimit="22.9256" d="
			M349.035,219.358c-3.283,1.003-5.132,4.476-4.129,7.759l5.943-1.815L349.035,219.358z"/>
	</g>
	<g>
		<path fill-rule="evenodd" clip-rule="evenodd" fill="#379E90" d="M375.662,198.485c-11.653,2.405-19.149,13.802-16.744,25.455
			l21.1-4.355L375.662,198.485z"/>
		<path fill-rule="evenodd" clip-rule="evenodd" fill="#52BAAC" d="M377.086,205.383c-7.844,1.62-12.889,9.29-11.27,17.133
			l14.201-2.932L377.086,205.383z"/>
		<path fill-rule="evenodd" clip-rule="evenodd" fill="#7DD4C8" d="M378.762,213.499c-3.361,0.694-5.524,3.981-4.831,7.343
			l6.087-1.257L378.762,213.499z"/>
	</g>
	<g>
		<path fill-rule="evenodd" clip-rule="evenodd" fill="#379E90" d="M407.48,196.053c-11.871,0.803-20.844,11.078-20.041,22.949
			l21.495-1.454L407.48,196.053z"/>
		<path fill-rule="evenodd" clip-rule="evenodd" fill="#52BAAC" d="M407.956,203.081c-7.99,0.541-14.029,7.457-13.489,15.447
			l14.468-0.979L407.956,203.081z"/>
		<path fill-rule="evenodd" clip-rule="evenodd" fill="#7DD4C8" d="M408.516,211.348c-3.425,0.231-6.013,3.196-5.781,6.62l6.2-0.419
			L408.516,211.348z"/>
	</g>
</g>
<g>
	<path fill-rule="evenodd" clip-rule="evenodd" fill="#F24660" d="M174.034,210.333l-7.909-3.337
		c-3.375-1.426-8.501,1.289-12.422,1.987c-2.777,0.492-3.935,0.018-5.231-0.19c-1.865-0.299-3.293,0.368-4.118,1.055
		c-0.8,0.666-1.851,2.583-2.257,3.544c-0.465,1.104,0.084,1.866,0.799,2.167l33.604,14.184c0.713,0.301,1.439-0.425,1.799-1.108
		c0.574-1.086,1.599-3.104,1.831-4.338C180.892,220.24,180.454,213.043,174.034,210.333z"/>
	<path fill-rule="evenodd" clip-rule="evenodd" fill="#C93047" d="M142.102,213.381c0.055-0.128,0.126-0.286,0.203-0.446
		l36.456,14.806c-0.167,0.332-0.33,0.647-0.46,0.894c-0.36,0.683-1.086,1.409-1.799,1.108l-33.604-14.184
		C142.182,215.257,141.635,214.486,142.102,213.381z"/>
	<path fill-rule="evenodd" clip-rule="evenodd" fill="#C93047" d="M174.794,229.022c1.462-3.465-0.126-5.749-2.796-6.876
		c-2.671-1.127-5.415-0.671-6.878,2.794L174.794,229.022z"/>
	<circle fill-rule="evenodd" clip-rule="evenodd" fill="#666666" cx="169.959" cy="227.06" r="4.113"/>
	<circle fill-rule="evenodd" clip-rule="evenodd" fill="#CCCCCC" cx="169.959" cy="227.06" r="2.764"/>
	<path fill-rule="evenodd" clip-rule="evenodd" fill="#C93047" d="M154.419,220.422c1.462-3.465-0.124-5.749-2.796-6.876
		c-2.671-1.128-5.416-0.671-6.877,2.793L154.419,220.422z"/>
	<circle fill-rule="evenodd" clip-rule="evenodd" fill="#666666" cx="149.583" cy="218.46" r="4.113"/>
	<circle fill-rule="evenodd" clip-rule="evenodd" fill="#CCCCCC" cx="149.585" cy="218.46" r="2.766"/>
	<path fill-rule="evenodd" clip-rule="evenodd" fill="#FFFFFF" d="M165.287,207.731c0,0-4.954-1.141-9.896,2.897l7.361,3.107
		L165.287,207.731z"/>
	
		<rect x="164.553" y="209.487" transform="matrix(0.9213 0.3889 -0.3889 0.9213 96.0246 -48.893)" fill-rule="evenodd" clip-rule="evenodd" fill="#FFFFFF" width="8.461" height="6.515"/>
	<path fill-rule="evenodd" clip-rule="evenodd" fill="#FFFFFF" d="M174.813,211.753l-2.534,6.003c0,0,3.716,1.569,5.898,2.489
		C180.416,221.19,179.07,213.757,174.813,211.753z"/>
	<path fill-rule="evenodd" clip-rule="evenodd" fill="#C93047" d="M161.688,214.542c-0.07,0.165,0.006,0.356,0.173,0.427
		l1.026,0.432c0.166,0.07,0.357-0.008,0.427-0.173l0.089-0.211c0.07-0.167-0.007-0.358-0.173-0.429l-1.024-0.433
		c-0.167-0.071-0.358,0.009-0.427,0.174L161.688,214.542z"/>
	<path fill-rule="evenodd" clip-rule="evenodd" fill="#C93047" d="M169.818,217.972c-0.07,0.166,0.007,0.357,0.172,0.428
		l1.026,0.433c0.167,0.071,0.358-0.008,0.428-0.173l0.089-0.211c0.07-0.165-0.007-0.358-0.173-0.428l-1.026-0.434
		c-0.166-0.07-0.357,0.009-0.427,0.175L169.818,217.972z"/>
	<path fill-rule="evenodd" clip-rule="evenodd" fill="#C93047" d="M154.393,210.457c-0.061,0.229,0.074,0.464,0.305,0.525
		l1.417,0.375c0.23,0.061,0.464-0.077,0.525-0.306l0.077-0.292c0.061-0.229-0.075-0.466-0.305-0.526l-1.417-0.375
		c-0.23-0.061-0.465,0.079-0.525,0.307L154.393,210.457z"/>
	<path fill-rule="evenodd" clip-rule="evenodd" fill="#FFFFFF" d="M145.914,208.985c0.367,0.501,0.46,1.207,0.187,1.856
		c-0.402,0.951-1.441,1.421-2.319,1.05c-0.258-0.108-0.474-0.278-0.64-0.487c0.398-0.644,0.834-1.242,1.214-1.558
		C144.745,209.522,145.271,209.201,145.914,208.985z"/>
</g>
<g>
	<path fill-rule="evenodd" clip-rule="evenodd" fill="#C98664" d="M188.471,247.458h4.375v15.505c-1.548,1.113-3.014,1.207-4.375,0
		V247.458z"/>
	<ellipse fill-rule="evenodd" clip-rule="evenodd" fill="#52BAAC" cx="190.658" cy="237.069" rx="15.536" ry="16.287"/>
</g>
</svg>
