<?xml version="1.0" encoding="utf-8"?>
<!-- Generator: Adobe Illustrator 16.0.0, SVG Export Plug-In . SVG Version: 6.00 Build 0)  -->
<!DOCTYPE svg PUBLIC "-//W3C//DTD SVG 1.1//EN" "http://www.w3.org/Graphics/SVG/1.1/DTD/svg11.dtd">
<svg version="1.1" id="Layer_1" xmlns="http://www.w3.org/2000/svg" xmlns:xlink="http://www.w3.org/1999/xlink" x="0px" y="0px"
	 width="48px" height="48px" viewBox="0 0 48 48" enable-background="new 0 0 48 48" xml:space="preserve">
<g>
	<path fill="#4472B8" d="M1,42.75c0,1.657,1.343,3,3,3h39.834c1.657,0,3-1.343,3-3V5.303c0-1.657-1.343-3-3-3H4
		c-1.657,0-3,1.343-3,3V42.75z"/>
</g>
<g>
	<g>
		<path fill="#FFFFFF" d="M40.256,36.051v-4.582V20.605v-1.387v-0.726c0-1.355-1.073-2.467-2.384-2.467h-8.146
			c-1.311,0-2.384,1.111-2.384,2.467v0.726v16.833v0.437c0,1.354,1.073,2.466,2.384,2.466h8.146c1.311,0,2.384-1.111,2.384-2.466
			V36.051L40.256,36.051z M34.827,37.919h-2.3c-0.341,0-0.616-0.289-0.616-0.643c0-0.353,0.275-0.643,0.616-0.643h2.3
			c0.341,0,0.617,0.29,0.617,0.643C35.444,37.63,35.168,37.919,34.827,37.919z M38.091,35.606c-0.013,0-0.031,0.007-0.045,0.007
			h-8.493c-0.013,0-0.031-0.007-0.045-0.007V19.392c0.014,0,0.032-0.006,0.045-0.006h8.493c0.014,0,0.025,0.006,0.039,0.006v16.215
			H38.091z M15.639,38.953h4.034h6.226c-0.419-0.726-0.662-1.566-0.662-2.466v-1.472h-2.294H11.565V10.924h17.461v2.949
			c0.23-0.033,0.462-0.058,0.7-0.058h1.953v-3.007v-0.404v-0.36c0-1.047-0.616-1.947-1.497-2.332
			c-0.295-0.128-0.617-0.199-0.957-0.199h-9.547h-8.344c-0.341,0-0.662,0.071-0.958,0.199C9.497,8.098,8.88,8.997,8.88,10.044V10.5
			v22.832v3.09c0,1.401,1.098,2.531,2.447,2.531H15.639L15.639,38.953z M19.126,36.396h2.3c0.34,0,0.616,0.289,0.616,0.643
			s-0.276,0.642-0.616,0.642h-2.3c-0.34,0-0.616-0.288-0.616-0.642S18.786,36.396,19.126,36.396z"/>
	</g>
</g>
</svg>
