<?xml version="1.0" encoding="iso-8859-1"?>
<!-- Generator: Adobe Illustrator 18.1.1, SVG Export Plug-In . SVG Version: 6.00 Build 0)  -->
<svg xmlns="http://www.w3.org/2000/svg" xmlns:xlink="http://www.w3.org/1999/xlink" version="1.1" id="Capa_1" x="0px" y="0px" viewBox="0 0 612.006 612.006" style="enable-background:new 0 0 612.006 612.006;" xml:space="preserve" width="512px" height="512px">
<g>
	<g>
		<g>
			<g>
				<rect x="200.513" y="201.623" width="81.668" height="81.668" fill="#626161"/>
				<rect x="329.82" y="201.623" width="81.668" height="81.668" fill="#626161"/>
				<rect x="459.127" y="201.623" width="81.668" height="81.668" fill="#626161"/>
			</g>
			<g>
				<rect x="71.206" y="324.125" width="81.668" height="81.668" fill="#626161"/>
				<rect x="200.513" y="324.125" width="81.668" height="81.668" fill="#626161"/>
				<rect x="329.82" y="324.125" width="81.668" height="81.668" fill="#626161"/>
				<rect x="459.127" y="324.125" width="81.668" height="81.668" fill="#626161"/>
			</g>
			<g>
				<rect x="71.206" y="446.632" width="81.668" height="81.661" fill="#626161"/>
				<rect x="200.513" y="446.632" width="81.668" height="81.661" fill="#626161"/>
				<rect x="329.82" y="446.632" width="81.668" height="81.661" fill="#626161"/>
			</g>
		</g>
		<g>
			<path d="M571.166,21.651H40.834C18.289,21.651,0,39.934,0,62.479v96.405h612V62.479C612,39.934,593.711,21.651,571.166,21.651z      M154.364,127.083c-16.909,0-30.625-13.716-30.625-30.625c0-16.915,13.716-30.625,30.625-30.625     c16.915,0,30.619,13.704,30.619,30.625C184.983,113.366,171.279,127.083,154.364,127.083z M457.648,127.083     c-16.915,0-30.632-13.716-30.632-30.625c0-16.915,13.716-30.625,30.632-30.625c16.909,0,30.613,13.704,30.613,30.625     C488.261,113.366,474.557,127.083,457.648,127.083z" fill="#626161"/>
		</g>
		<path d="M584.784,549.521c0,7.505-6.1,13.611-13.611,13.611H40.84c-7.505,0-13.611-6.107-13.611-13.611V198.486H0.006v351.035    c0,22.551,18.282,40.834,40.834,40.834h530.332c22.545,0,40.834-18.282,40.834-40.834V198.486H584.79v351.035H584.784z" fill="#626161"/>
	</g>
</g>
<g>
</g>
<g>
</g>
<g>
</g>
<g>
</g>
<g>
</g>
<g>
</g>
<g>
</g>
<g>
</g>
<g>
</g>
<g>
</g>
<g>
</g>
<g>
</g>
<g>
</g>
<g>
</g>
<g>
</g>
</svg>
