<?xml version="1.0" encoding="iso-8859-1"?>
<!-- Generator: Adobe Illustrator 19.0.0, SVG Export Plug-In . SVG Version: 6.00 Build 0)  -->
<svg xmlns="http://www.w3.org/2000/svg" xmlns:xlink="http://www.w3.org/1999/xlink" version="1.1" id="Capa_1" x="0px" y="0px" viewBox="0 0 478.138 478.138" style="enable-background:new 0 0 478.138 478.138;" xml:space="preserve" width="512px" height="512px">
<g>
	<g>
		<g>
			<polygon points="0,208.676 0,269.527 254.535,269.527 240.946,208.676    " fill="#626161"/>
			<path d="M0,373.002v60.873h409.823v-56.947c-3.991-0.82-7.809-2.243-11.562-3.969L0,373.002L0,373.002z" fill="#626161"/>
			<polygon points="242.758,55.264 328.372,105.158 409.823,105.158 409.823,44.263 0,44.263 0,105.158 217.822,105.158      211.804,78.129    " fill="#626161"/>
			<path d="M244.268,84.406l-5.242,3.947l58.953,264.005l47.564-80.437l50.476,69.005c9.599,13.029,26.554,16.782,38.029,8.391     c11.389-8.369,13.007-25.648,3.451-38.676l-50.497-69.005l91.137-21.075L244.268,84.406z" fill="#626161"/>
		</g>
	</g>
	<g>
	</g>
	<g>
	</g>
	<g>
	</g>
	<g>
	</g>
	<g>
	</g>
	<g>
	</g>
	<g>
	</g>
	<g>
	</g>
	<g>
	</g>
	<g>
	</g>
	<g>
	</g>
	<g>
	</g>
	<g>
	</g>
	<g>
	</g>
	<g>
	</g>
</g>
<g>
</g>
<g>
</g>
<g>
</g>
<g>
</g>
<g>
</g>
<g>
</g>
<g>
</g>
<g>
</g>
<g>
</g>
<g>
</g>
<g>
</g>
<g>
</g>
<g>
</g>
<g>
</g>
<g>
</g>
</svg>
