<?xml version="1.0" encoding="utf-8"?>
<!-- Generator: Adobe Illustrator 16.0.0, SVG Export Plug-In . SVG Version: 6.00 Build 0)  -->
<!DOCTYPE svg PUBLIC "-//W3C//DTD SVG 1.1//EN" "http://www.w3.org/Graphics/SVG/1.1/DTD/svg11.dtd">
<svg version="1.1" id="Layer_1" xmlns="http://www.w3.org/2000/svg" xmlns:xlink="http://www.w3.org/1999/xlink" x="0px" y="0px"
	 width="48px" height="48px" viewBox="0 0 48 48" enable-background="new 0 0 48 48" xml:space="preserve">
<g>
	<path fill="#B9181E" d="M1,42.75c0,1.657,1.343,3,3,3h39.834c1.657,0,3-1.343,3-3V5.303c0-1.657-1.343-3-3-3H4
		c-1.657,0-3,1.343-3,3V42.75z"/>
</g>
<g>
	<g>
		<path fill="#FFFFFF" d="M21.875,19.592l-2.716,14.26l-0.002-0.002L7.673,35.553l15.323,5.499l13.643-1.834l4.208-17.766
			L21.875,19.592z M19.182,38.908l-3.762-1.437l1.813-0.242l4.22,1.408L19.182,38.908z M35.392,37.728l-15.176-4.294l2.439-12.585
			l16.282,1.913L35.392,37.728z"/>
		<path fill="#FFFFFF" d="M16.548,22.941l-0.886,0.89l-0.001-0.002l-0.258,0.258l-9.652,9.696l10.075-0.766L16.548,22.941z
			 M6.928,33.264l0.536-0.538l0.277,0.271l0.172-0.171l-0.277-0.275l0.25-0.253l0.472,0.469l0.171-0.173l-0.473-0.468L8.24,31.94
			l0.323,0.317l0.171-0.174l-0.322-0.315l0.254-0.257l0.472,0.467l0.171-0.174l-0.472-0.467l0.184-0.187l0.324,0.318l0.169-0.17
			l-0.321-0.32l0.234-0.237l0.472,0.468l0.17-0.172L9.597,30.57l0.186-0.188l0.322,0.317l0.171-0.171l-0.324-0.317l0.257-0.257
			l0.472,0.466l0.171-0.172l-0.474-0.471l0.186-0.188l0.323,0.321l0.171-0.172l-0.323-0.32l0.229-0.228l0.008,0.007l0.123-0.133
			l0.354,0.351l0.172-0.171l-0.374-0.369l0.185-0.188l0.224,0.222l0.169-0.17l-0.221-0.223l0.255-0.256l0.372,0.371l0.169-0.175
			l-0.371-0.37l0.185-0.186l0.22,0.219l0.173-0.172l-0.219-0.224l0.25-0.253l0.415,0.411l0.17-0.172l-0.415-0.409l0.186-0.187
			l0.265,0.261l0.168-0.173l-0.262-0.258l0.254-0.259l0.414,0.408l0.17-0.174l-0.411-0.404l0.186-0.189l0.261,0.26l0.17-0.175
			l-0.259-0.257l0.234-0.235l0.41,0.407l0.171-0.174l-0.41-0.405l0.187-0.186l0.258,0.257l0.171-0.172l-0.259-0.257l0.256-0.255
			l0.408,0.404l0.17-0.172l-0.407-0.406l0.185-0.187l0.257,0.256l0.171-0.173l-0.257-0.254l0.539-0.542l-0.614,8.554L6.928,33.264z"
			/>
		<path fill="#FFFFFF" d="M14.193,31.501l0.306-4.271l-4.574,4.596L14.193,31.501z M13.792,31.101l-2.747,0.211l2.943-2.956
			L13.792,31.101z"/>
		<path fill="#FFFFFF" d="M30.229,30.547c-0.661-0.395-1.521-0.174-1.917,0.487c-0.396,0.662-0.175,1.521,0.487,1.917
			c0.666,0.396,1.523,0.177,1.916-0.485C31.112,31.802,30.893,30.942,30.229,30.547z M30.093,32.093
			c-0.19,0.318-0.604,0.422-0.919,0.233c-0.321-0.19-0.424-0.603-0.234-0.921c0.188-0.317,0.603-0.423,0.92-0.233
			C30.178,31.36,30.282,31.775,30.093,32.093z"/>
		<path fill="#FFFFFF" d="M30.437,30.203c0.663,0.397,1.522,0.178,1.918-0.487c0.395-0.661,0.175-1.52-0.487-1.916
			c-0.666-0.396-1.524-0.175-1.919,0.485C29.554,28.947,29.771,29.81,30.437,30.203z M30.575,28.658
			c0.188-0.32,0.601-0.424,0.918-0.235c0.317,0.191,0.425,0.603,0.235,0.921s-0.604,0.424-0.921,0.234
			C30.488,29.39,30.384,28.977,30.575,28.658z"/>
		<path fill="#FFFFFF" d="M35.949,30.746l-1.41-0.843l-3.467,0.92l0.837,3.482l1.349,0.968l-0.773-3.606l0.008,0.002L35.949,30.746z
			 M32.183,31.539c-0.102,0.17-0.32,0.226-0.489,0.123c-0.169-0.097-0.227-0.319-0.126-0.49c0.103-0.168,0.32-0.225,0.491-0.122
			C32.229,31.151,32.281,31.371,32.183,31.539z"/>
		<path fill="#FFFFFF" d="M10.701,22.292l0.29,0.356l0.568-0.459c0.484,0.278,1.043,0.443,1.639,0.452
			c1.885,0.03,3.442-1.476,3.474-3.36c0.032-1.885-1.476-3.443-3.36-3.474c-1.885-0.031-3.442,1.475-3.476,3.362
			c-0.006,0.402,0.063,0.787,0.186,1.148l-0.557,0.45l0.359,0.444l-2.753,2.232l0.875,1.081L10.701,22.292z M13.287,17.234
			c1.1,0.018,1.976,0.924,1.959,2.022c-0.021,1.098-0.928,1.975-2.024,1.956c-1.097-0.019-1.974-0.926-1.956-2.023
			C11.285,18.092,12.19,17.216,13.287,17.234z"/>
		<path fill="#FFFFFF" d="M27.906,15.074l0.054,0.011l0.306-0.114l-0.085,0.294l-0.013,0.054c-0.035,0.274,0.592,0.968,1.178,1.307
			c0.678,0.393,1.315,0.39,1.852-0.008c0.028-0.022,0.057-0.05,0.085-0.072l0.257,0.339l-0.39,0.317l0.188,0.231l0.382-0.309
			l1.937,2.554l-0.229-1l-1.399-1.806l0.277-0.228l-0.187-0.229l-0.275,0.222l-0.295-0.381c0.204-0.272,0.334-0.607,0.381-0.995
			c0.105-0.852-0.217-1.794-0.483-2.012c-0.079-0.065-0.158-0.073-0.211-0.065l-0.232-0.005l0.134-0.196l0.033-0.095
			c0.021-0.188,0.052-0.444-3.532-2.883c-1.72-1.177-3.478-2.301-3.493-2.313l-0.551-0.352l0.269,0.598
			C24.596,9.571,27.055,14.913,27.906,15.074z M26.046,9.4c2.356,1.568,4.434,3.042,4.715,3.447l-0.464,0.71l0.922,0.019
			c0.138,0.161,0.411,0.914,0.325,1.643c-0.033,0.277-0.121,0.513-0.249,0.714l-0.007-0.01l-3.565-4.131l-0.054,0.055l3.319,4.314
			l0.051,0.071c-0.026,0.024-0.051,0.052-0.08,0.075c-0.307,0.23-0.662,0.28-1.059,0.149c-0.676-0.224-1.251-0.91-1.34-1.106
			l0.296-1.015l-0.916,0.342c-0.399-0.222-1.536-2.286-2.694-4.69l0.8,0.099V9.4z M25.787,9.23l-0.002,0.56l-0.676-0.08
			c-0.208-0.438-0.414-0.883-0.621-1.33C24.924,8.663,25.357,8.946,25.787,9.23z"/>
		<path fill="#FFFFFF" d="M34.56,17.723l1.89-2.137l1.681-5.738h0.001l0.537-1.839l-2.161-0.63l-0.538,1.84l0.004,0.001l-1.66,5.696
			L34.56,17.723z M36.792,7.9l1.358,0.396l-0.199,0.68l-1.356-0.397L36.792,7.9z M34.962,15.47l0.452-0.412l0.205,0.605l0.713-0.386
			l-0.055,0.188l-1.076,1.218l-0.538-0.153l-0.145-1.572l0.077-0.258L34.962,15.47z"/>
		<path fill="#FFFFFF" d="M29.457,25.195c0.021-1.138-0.443-2.029-1.506-2.207c-0.814-0.136-1.485,0.237-1.756,0.417
			c0.012-0.237,0.024-0.5,0.031-0.652c0.009-0.206,0.368-0.313,0.541-0.479c0.106-0.099-0.004-0.358-0.004-0.358
			s-0.9,0.397-0.876,0.784c0.014,0.189,0.017,0.451,0.017,0.674c-0.255-0.167-0.788-0.445-1.541-0.408
			c-1.041,0.047-1.722,0.813-1.703,1.945c0.02,1.571,1.416,2.898,2.386,2.898c0.241,0,0.437-0.028,0.588-0.067l-0.021,0.113
			l0.18-0.09l0.083,0.325l0.115-0.281l0.182,0.198v-0.198l0.246,0.074L26.36,27.71c0.159,0.055,0.393,0.105,0.703,0.105
			C28.039,27.815,29.438,26.763,29.457,25.195z M24.094,26.304c-0.394-0.502-0.272-1.218-0.272-1.218s0.261,0.663,0.532,1.072
			c0.271,0.411,0.734,0.738,0.734,0.738S24.492,26.809,24.094,26.304z"/>
		<path fill="#FFFFFF" d="M20.467,11.658l-0.48,0.423l-0.223,0.199l-2.168,1.918l-0.223,0.198l-0.47,0.412l0.419,0.475l0.278-0.246
			l0.191-0.169l1.235,1.395l1.681-0.23l-0.5,1.665l0.015,0.004l-0.003,0.002l1.24,1.401l-0.147,0.13l-0.279,0.245l0.418,0.475
			l3.565-3.153L24.6,16.329l-0.527,0.464l-1.237-1.399l-1.688,0.253l0.505-1.688l-0.013-0.003l0.001-0.002l-1.237-1.4l0.48-0.423
			L20.467,11.658z M22.753,15.751l1.097,1.24l-2.167,1.917l-1.13-1.275l0.493-1.646L22.753,15.751z M21.311,14.027l-0.5,1.671
			l-1.668,0.249l-1.128-1.278l2.171-1.915L21.311,14.027z"/>
		<polygon fill="#FFFFFF" points="19.25,15.714 20.713,15.508 21.154,14.036 20.69,13.511 18.785,15.191 		"/>
		<polygon fill="#FFFFFF" points="23.713,16.99 23.535,16.789 23.008,17.151 22.352,17.391 22.068,17.96 21.608,18.495 
			21.784,18.692 		"/>
		<path fill="#FFFFFF" d="M20.848,10.94L20.76,7.752L8.151,8.099l0.085,3.187L20.848,10.94z M20.222,8.323l0.057,2.08l-0.671,0.018
			L19.58,9.434l-0.397,0.011l0.024,0.985l-0.431,0.013l-0.018-0.64l-0.4,0.011l0.018,0.639l-0.592,0.017l-0.027-0.986l-0.4,0.009
			l0.028,0.99l-0.434,0.011l-0.019-0.64l-0.398,0.009l0.019,0.641l-0.584,0.017l-0.03-1.093l-0.4,0.013l0.029,1.091l-0.431,0.013
			l-0.022-0.746l-0.4,0.011l0.022,0.745l-0.593,0.015l-0.03-1.088l-0.399,0.01l0.029,1.089l-0.43,0.014l-0.02-0.746l-0.402,0.011
			l0.022,0.746l-0.548,0.015l-0.03-1.092l-0.401,0.011l0.03,1.093l-0.432,0.011l-0.021-0.745l-0.399,0.01l0.02,0.745l-0.592,0.017
			l-0.03-1.092l-0.399,0.013l0.03,1.091l-0.433,0.01l-0.02-0.744l-0.4,0.011l0.023,0.746l-0.537,0.014L8.719,8.637L20.222,8.323z"/>
	</g>
</g>
</svg>
