<svg id="Layer_1" data-name="Layer 1" xmlns="http://www.w3.org/2000/svg" viewBox="0 0 200.28 23.13"><defs><style>.cls-1{fill:#00ac69;}</style></defs><title>Artboard 10</title><path class="cls-1" d="M12.29,14.76a6.7,6.7,0,0,1-1.16,4,4.31,4.31,0,0,1-3.62,1.89,4.32,4.32,0,0,1-3.65-1.89,6.72,6.72,0,0,1-1.18-4V8.51H0v6.56a8,8,0,0,0,2.25,5.75,7,7,0,0,0,5.26,2.31,6.85,6.85,0,0,0,5.28-2.4A8.14,8.14,0,0,0,15,15.07V8.51H12.29Z"/><rect class="cls-1" x="6.25" y="3.72" width="2.6" height="2.62"/><path class="cls-1" d="M22.29,8.49a5,5,0,0,0-5.09,5.35c0,3.14,2,5.38,5.09,5.38A2.64,2.64,0,0,0,24.8,18c-.05,1.84-.88,2.94-2.54,3v2.1c3.44,0,5.14-1.41,5.14-4.22v-5C27.4,10.8,25.41,8.49,22.29,8.49Zm0,8.35c-1.45,0-2.44-1.35-2.44-3s.92-2.95,2.32-2.95,2.51,1.23,2.51,3.07A2.62,2.62,0,0,1,22.29,16.84Z"/><rect class="cls-1" x="51.49" y="3.72" width="2.58" height="2.62"/><rect class="cls-1" x="53.74" width="2.6" height="2.64"/><rect class="cls-1" x="55.97" y="3.72" width="2.58" height="2.62"/><path class="cls-1" d="M60.44,13.94c0,1.72-.66,2.59-2,2.59H55.85c.35-.38.54-1.34.54-2.88V8.51H53.72v5.4c0,1.75-.67,2.62-2,2.62H49.24v-.14a5.81,5.81,0,0,0,.43-2.74V8.51H47v5.24c0,1.86-.66,2.78-2,2.78H35.1v-8H32.45v9c0,2.26-1.09,3.35-3.29,3.35v2.26c3.22,0,5.37-1.39,5.78-3.91H58.53c2.69,0,4.59-2.22,4.59-5.61V8.51H60.44Z"/><path class="cls-1" d="M75.91,14.05a5.07,5.07,0,0,1-.19,1.7c-.26.52-.8.78-1.68.78H71.13a3.72,3.72,0,0,1-2-.4,2.67,2.67,0,0,1-.76-2.26V4H65.7V14.93a4.56,4.56,0,0,0,1,3.06,3.59,3.59,0,0,0,2.94,1.23h5q4,0,4-4.27V8.51H75.91Z"/><rect class="cls-1" x="75.94" y="3.72" width="2.58" height="2.62"/><rect class="cls-1" x="136" y="3.72" width="2.6" height="2.62"/><path class="cls-1" d="M160.64,14.05a5.07,5.07,0,0,1-.19,1.7,1.68,1.68,0,0,1-1.68.78H155v-.68a5.6,5.6,0,0,0-1.46-3.94,5,5,0,0,0-3.84-1.58,5.17,5.17,0,0,0-3.86,1.53,5.4,5.4,0,0,0-1.47,3.89c0,.26,0,.52,0,.78H138a4.49,4.49,0,0,0,.57-2.74V8.51H136v5.43a4.31,4.31,0,0,1-.28,1.79,1.63,1.63,0,0,1-1.59.8h-8.63c0-5.94-3-10.38-8.17-11.41L117,7.64c3.43.71,5.87,4.2,5.87,8.16,0,.24,0,.47,0,.73h-3.12a6.75,6.75,0,0,0,.61-2.45,4.68,4.68,0,0,0-9.35,0,6.66,6.66,0,0,0,.61,2.45h-11a8,8,0,0,0,.14-1.46V4H98.08V14.76c0,3.33-2,5.85-4.78,5.85S88.47,18,88.47,14.76v-2H85.79v2.31c0,4.43,3.39,8.06,7.51,8.06a7.33,7.33,0,0,0,6.39-3.91h45.74a5,5,0,0,0,4.24,2.05A5,5,0,0,0,154,19.22h5.35q4,0,4-4.27V4h-2.65Zm-45,2.55a2.29,2.29,0,0,1-2.17-2.52,2.19,2.19,0,1,1,4.35,0A2.32,2.32,0,0,1,115.65,16.6Zm36,1.32a2.25,2.25,0,0,1-1.89.9,2.82,2.82,0,0,1-2.68-3.09,3.47,3.47,0,0,1,.62-2.08,2.26,2.26,0,0,1,1.92-.94,2.44,2.44,0,0,1,2,1,3.57,3.57,0,0,1,.64,2.14A3.4,3.4,0,0,1,151.63,17.92Z"/><rect class="cls-1" x="165.73" y="3.98" width="2.63" height="15.23"/><path class="cls-1" d="M179.09,17.52c0,2.26-1.09,3.35-3.29,3.35v2.26c4.07,0,5.94-1.77,5.94-6V8.51h-2.65Z"/><rect class="cls-1" x="184.18" y="3.98" width="2.63" height="15.23"/><path class="cls-1" d="M195.5,8.89a5.79,5.79,0,0,0-1.42-.33c-.33,0-1.16-.05-2.46-.05v2.41a11.37,11.37,0,0,1,2.39.21c2.39.52,3.6,2.31,3.6,5.4H189v2.69h11.24V16.53Q200.25,10.49,195.5,8.89Z"/></svg>