<svg id="Layer_1" data-name="Layer 1" xmlns="http://www.w3.org/2000/svg" viewBox="0 0 200.31 12.72"><defs><style>.cls-1{fill:#231f20;}</style></defs><title>Artboard 11</title><path class="cls-1" d="M5.18,0A6.15,6.15,0,0,1,7.35.38,4.67,4.67,0,0,1,9.08,1.54a5.37,5.37,0,0,1,1.15,1.92,8.22,8.22,0,0,1,.41,2.71A8.85,8.85,0,0,1,10.3,8.7a5.44,5.44,0,0,1-1,2A4.73,4.73,0,0,1,7.58,12a5.52,5.52,0,0,1-2.4.48H0V0ZM5,10.18A3.24,3.24,0,0,0,6.11,10a2.42,2.42,0,0,0,1-.64,3.19,3.19,0,0,0,.67-1.16A5.25,5.25,0,0,0,8,6.44a7.48,7.48,0,0,0-.18-1.71,3.44,3.44,0,0,0-.58-1.3A2.61,2.61,0,0,0,6.17,2.6a4.15,4.15,0,0,0-1.64-.29H2.64v7.87Z"/><path class="cls-1" d="M12.12,6.23a2.85,2.85,0,0,1,.42-1.45,2.91,2.91,0,0,1,1-.93,4.12,4.12,0,0,1,1.28-.5,7,7,0,0,1,1.44-.15,8.6,8.6,0,0,1,1.33.1,4,4,0,0,1,1.23.37,2.46,2.46,0,0,1,.91.78A2.2,2.2,0,0,1,20,5.77v4.71a10.82,10.82,0,0,0,.07,1.17,2.35,2.35,0,0,0,.24.84H17.91c0-.14-.08-.28-.11-.43l-.06-.44a3.13,3.13,0,0,1-1.34.85,5.06,5.06,0,0,1-1.58.25,4,4,0,0,1-1.17-.16,2.56,2.56,0,0,1-.94-.49,2.22,2.22,0,0,1-.63-.84A3,3,0,0,1,11.85,10a2.81,2.81,0,0,1,.26-1.27A2.28,2.28,0,0,1,12.79,8a2.83,2.83,0,0,1,.94-.45,9.7,9.7,0,0,1,1.07-.23c.36-.06.71-.11,1.06-.14A6.87,6.87,0,0,0,16.79,7a1.6,1.6,0,0,0,.64-.31.66.66,0,0,0,.21-.58,1.43,1.43,0,0,0-.12-.64,1,1,0,0,0-.34-.37,1.24,1.24,0,0,0-.49-.17,3.61,3.61,0,0,0-.59,0A1.78,1.78,0,0,0,15,5.18a1.44,1.44,0,0,0-.47,1.05Zm5.52,1.84a1,1,0,0,1-.37.21,2.72,2.72,0,0,1-.49.13,4.85,4.85,0,0,1-.55.09l-.57.09a3.18,3.18,0,0,0-.53.14,1.54,1.54,0,0,0-.46.24,1.12,1.12,0,0,0-.31.37,1.25,1.25,0,0,0-.12.58,1.19,1.19,0,0,0,.12.56,1,1,0,0,0,.32.36,1.21,1.21,0,0,0,.47.18,2.59,2.59,0,0,0,.56.05,2.07,2.07,0,0,0,1.09-.24,1.6,1.6,0,0,0,.57-.59,1.87,1.87,0,0,0,.23-.69,4.41,4.41,0,0,0,0-.56Z"/><path class="cls-1" d="M24.16,3.45V5.13h0a3.08,3.08,0,0,1,.46-.78,2.94,2.94,0,0,1,.65-.62,3.87,3.87,0,0,1,.79-.39A2.84,2.84,0,0,1,27,3.2a1.72,1.72,0,0,1,.52.09V5.6a3.43,3.43,0,0,0-.4-.06l-.46,0a2.37,2.37,0,0,0-1.11.23,1.92,1.92,0,0,0-.73.62,2.48,2.48,0,0,0-.4.92,5.1,5.1,0,0,0-.11,1.13v4.08H21.89v-9Z"/><path class="cls-1" d="M39.36,0l4.49,12.49H41.11L40.2,9.71H35.71l-1,2.78H32.1L36.65,0Zm.15,7.66L38,3.08h0L36.39,7.66Z"/><path class="cls-1" d="M47.1,0V12.49H44.71V0Z"/><path class="cls-1" d="M57.64,0l2.81,8.59h0L63.15,0h3.72V12.49H64.39V3.64h0l-3,8.85h-2l-3-8.77h0v8.77H53.92V0Z"/><path class="cls-1" d="M68.83,6.23a3,3,0,0,1,.43-1.45,2.79,2.79,0,0,1,.94-.93,4.08,4.08,0,0,1,1.29-.5,6.9,6.9,0,0,1,1.44-.15,8.69,8.69,0,0,1,1.33.1,4.18,4.18,0,0,1,1.23.37,2.51,2.51,0,0,1,.9.78,2.2,2.2,0,0,1,.36,1.32v4.71a8.76,8.76,0,0,0,.07,1.17,2.18,2.18,0,0,0,.23.84H74.63a2.09,2.09,0,0,1-.11-.43,3.11,3.11,0,0,1-.06-.44,3.17,3.17,0,0,1-1.35.85,5,5,0,0,1-1.58.25,3.87,3.87,0,0,1-1.16-.16,2.6,2.6,0,0,1-1-.49,2.22,2.22,0,0,1-.63-.84A3,3,0,0,1,68.57,10a2.69,2.69,0,0,1,.26-1.27A2.16,2.16,0,0,1,69.5,8a3,3,0,0,1,.94-.45,10.22,10.22,0,0,1,1.07-.23c.36-.06.71-.11,1.06-.14A6.87,6.87,0,0,0,73.5,7a1.53,1.53,0,0,0,.64-.31.69.69,0,0,0,.22-.58,1.42,1.42,0,0,0-.13-.64.94.94,0,0,0-.34-.37,1.25,1.25,0,0,0-.48-.17,3.83,3.83,0,0,0-.6,0,1.77,1.77,0,0,0-1.11.32,1.45,1.45,0,0,0-.48,1.05Zm5.53,1.84a1.07,1.07,0,0,1-.38.21,2.52,2.52,0,0,1-.49.13,4.51,4.51,0,0,1-.55.09l-.57.09a3.46,3.46,0,0,0-.53.14,1.48,1.48,0,0,0-.45.24,1.14,1.14,0,0,0-.32.37,1.25,1.25,0,0,0-.11.58,1.19,1.19,0,0,0,.11.56,1,1,0,0,0,.32.36,1.26,1.26,0,0,0,.48.18,2.45,2.45,0,0,0,.55.05,2.11,2.11,0,0,0,1.1-.24,1.77,1.77,0,0,0,.57-.59,1.85,1.85,0,0,0,.22-.69,4.75,4.75,0,0,0,0-.56Z"/><path class="cls-1" d="M80.87,3.45V4.71h0A2.77,2.77,0,0,1,82.1,3.56a3.29,3.29,0,0,1,1.48-.36,4,4,0,0,1,1.58.27,2.28,2.28,0,0,1,1,.75,2.93,2.93,0,0,1,.5,1.18,8,8,0,0,1,.14,1.53v5.56H84.37V7.38A3.23,3.23,0,0,0,84,5.71a1.29,1.29,0,0,0-1.19-.55,1.62,1.62,0,0,0-1.41.6,3.43,3.43,0,0,0-.44,2v4.74H78.6v-9Z"/><path class="cls-1" d="M91,0V4.71h0a2.85,2.85,0,0,1,1.16-1.15,3,3,0,0,1,1.38-.36,4,4,0,0,1,1.58.27,2.37,2.37,0,0,1,1,.75A3.07,3.07,0,0,1,96.6,5.4a7.25,7.25,0,0,1,.14,1.53v5.56H94.36V7.38A3.34,3.34,0,0,0,94,5.71a1.32,1.32,0,0,0-1.2-.55,1.62,1.62,0,0,0-1.41.6,3.51,3.51,0,0,0-.44,2v4.74H88.58V0Z"/><path class="cls-1" d="M98.46,6.23a3.06,3.06,0,0,1,.42-1.45,2.91,2.91,0,0,1,1-.93,4.08,4.08,0,0,1,1.29-.5,6.88,6.88,0,0,1,1.43-.15,8.6,8.6,0,0,1,1.33.1,4,4,0,0,1,1.23.37,2.46,2.46,0,0,1,.91.78,2.2,2.2,0,0,1,.36,1.32v4.71a10.9,10.9,0,0,0,.06,1.17,2.35,2.35,0,0,0,.24.84h-2.43c0-.14-.08-.28-.11-.43s0-.29,0-.44a3.17,3.17,0,0,1-1.35.85,5,5,0,0,1-1.58.25,4,4,0,0,1-1.17-.16,2.56,2.56,0,0,1-.94-.49,2.22,2.22,0,0,1-.63-.84A3,3,0,0,1,98.19,10a2.81,2.81,0,0,1,.26-1.27A2.28,2.28,0,0,1,99.13,8a2.92,2.92,0,0,1,.94-.45,10.22,10.22,0,0,1,1.07-.23c.36-.06.71-.11,1.06-.14a6.87,6.87,0,0,0,.93-.16,1.43,1.43,0,0,0,.63-.31.64.64,0,0,0,.22-.58,1.43,1.43,0,0,0-.12-.64,1,1,0,0,0-.34-.37,1.24,1.24,0,0,0-.49-.17,3.61,3.61,0,0,0-.59,0,1.78,1.78,0,0,0-1.12.32,1.48,1.48,0,0,0-.47,1.05ZM104,8.07a1,1,0,0,1-.37.21,2.72,2.72,0,0,1-.49.13,4.85,4.85,0,0,1-.55.09l-.57.09a3.18,3.18,0,0,0-.53.14A1.67,1.67,0,0,0,101,9a1.1,1.1,0,0,0-.43.95,1.19,1.19,0,0,0,.12.56,1,1,0,0,0,.32.36,1.21,1.21,0,0,0,.47.18,2.59,2.59,0,0,0,.56.05,2.07,2.07,0,0,0,1.09-.24,1.6,1.6,0,0,0,.57-.59,1.87,1.87,0,0,0,.23-.69A4.41,4.41,0,0,0,104,9Z"/><path class="cls-1" d="M110.69,0V12.49h-2.4V0Z"/><path class="cls-1" d="M122.92,0a4.81,4.81,0,0,1,1.92.34,3.63,3.63,0,0,1,1.29.9,3.45,3.45,0,0,1,.72,1.28,4.88,4.88,0,0,1,0,3,3.41,3.41,0,0,1-.72,1.29,3.63,3.63,0,0,1-1.29.9,4.81,4.81,0,0,1-1.92.34h-2.78v4.48H117.5V0Zm-.72,5.88a6.13,6.13,0,0,0,.87-.07,2.1,2.1,0,0,0,.74-.27,1.51,1.51,0,0,0,.52-.57,2.08,2.08,0,0,0,.19-1,2,2,0,0,0-.19-1,1.47,1.47,0,0,0-.52-.58,2.1,2.1,0,0,0-.74-.27,6.13,6.13,0,0,0-.87-.07h-2.06V5.88Z"/><path class="cls-1" d="M134.37,12.49V11.23h-.05a2.75,2.75,0,0,1-1.18,1.14,3.42,3.42,0,0,1-1.48.35,4.08,4.08,0,0,1-1.57-.26,2.25,2.25,0,0,1-1-.75,3,3,0,0,1-.5-1.17A7.25,7.25,0,0,1,128.48,9V3.45h2.39V8.56a3.23,3.23,0,0,0,.34,1.67,1.29,1.29,0,0,0,1.19.55,1.63,1.63,0,0,0,1.41-.61,3.45,3.45,0,0,0,.44-2V3.45h2.39v9Z"/><path class="cls-1" d="M140.85,0V4.55h0a2.49,2.49,0,0,1,1.18-1,3.83,3.83,0,0,1,1.56-.33,3.17,3.17,0,0,1,1.3.28,3.34,3.34,0,0,1,1.15.86,4.32,4.32,0,0,1,.83,1.47A6.58,6.58,0,0,1,147.23,8a6.47,6.47,0,0,1-.32,2.14,4.37,4.37,0,0,1-.83,1.48,3.34,3.34,0,0,1-1.15.86,3.17,3.17,0,0,1-1.3.28,4.47,4.47,0,0,1-1.72-.32,2.22,2.22,0,0,1-1.14-1.06h0v1.15h-2.27V0Zm3.87,6.88a3,3,0,0,0-.37-.93,2,2,0,0,0-.63-.64,1.68,1.68,0,0,0-.92-.24,1.72,1.72,0,0,0-.91.24,2.06,2.06,0,0,0-.64.64,3,3,0,0,0-.36.93,5,5,0,0,0,0,2.18,3,3,0,0,0,.36.93,2.06,2.06,0,0,0,.64.64,1.71,1.71,0,0,0,.91.23,1.68,1.68,0,0,0,.92-.23,2,2,0,0,0,.63-.64,3,3,0,0,0,.37-.93,5,5,0,0,0,0-2.18Z"/><path class="cls-1" d="M151.2,0V12.49h-2.38V0Z"/><path class="cls-1" d="M153.16,2.05V0h2.39V2.05Zm2.39,1.4v9h-2.39v-9Z"/><path class="cls-1" d="M159.45,10.24a1.25,1.25,0,0,0,.41.47,1.65,1.65,0,0,0,.58.28,3,3,0,0,0,.68.08,2.53,2.53,0,0,0,.53-.06,1.57,1.57,0,0,0,.5-.19,1.07,1.07,0,0,0,.38-.35.9.9,0,0,0,.16-.55q0-.55-.72-.84a14,14,0,0,0-2-.56,10.12,10.12,0,0,1-1-.29,3.22,3.22,0,0,1-.89-.44,2.12,2.12,0,0,1-.62-.68,2,2,0,0,1-.24-1,2.79,2.79,0,0,1,.33-1.44,2.45,2.45,0,0,1,.87-.88,3.67,3.67,0,0,1,1.21-.46A7,7,0,0,1,161,3.2a6.84,6.84,0,0,1,1.37.14,3.7,3.7,0,0,1,1.19.47,2.85,2.85,0,0,1,.87.89,3,3,0,0,1,.41,1.39h-2.27a1.11,1.11,0,0,0-.52-1,2.33,2.33,0,0,0-1.11-.26l-.44,0a1.43,1.43,0,0,0-.43.11.93.93,0,0,0-.33.26.68.68,0,0,0-.14.44.67.67,0,0,0,.24.54,1.57,1.57,0,0,0,.61.34,7.7,7.7,0,0,0,.87.24l1,.23a9.32,9.32,0,0,1,1,.3,3.14,3.14,0,0,1,.87.46,2.08,2.08,0,0,1,.63.72,2.13,2.13,0,0,1,.23,1.06,3,3,0,0,1-.34,1.49,2.8,2.8,0,0,1-.9,1,3.58,3.58,0,0,1-1.27.52,7.09,7.09,0,0,1-1.46.15,6.71,6.71,0,0,1-1.48-.16,3.89,3.89,0,0,1-1.29-.52,3,3,0,0,1-.92-1,3.09,3.09,0,0,1-.4-1.51h2.27A1.36,1.36,0,0,0,159.45,10.24Z"/><path class="cls-1" d="M168.86,0V4.71h0a2.85,2.85,0,0,1,1.16-1.15,3.06,3.06,0,0,1,1.39-.36,3.92,3.92,0,0,1,1.57.27,2.37,2.37,0,0,1,1,.75,3.07,3.07,0,0,1,.49,1.18,7.22,7.22,0,0,1,.15,1.53v5.56h-2.39V7.38a3.34,3.34,0,0,0-.34-1.67,1.3,1.3,0,0,0-1.2-.55,1.62,1.62,0,0,0-1.41.6,3.51,3.51,0,0,0-.44,2v4.74h-2.39V0Z"/><path class="cls-1" d="M179,10.32a2.4,2.4,0,0,0,2.8.17,1.6,1.6,0,0,0,.64-.8h2.1A4.15,4.15,0,0,1,183,12a4.47,4.47,0,0,1-2.52.7,4.69,4.69,0,0,1-1.85-.34,3.87,3.87,0,0,1-1.4-1,4.36,4.36,0,0,1-.88-1.51A5.37,5.37,0,0,1,176,8a5.29,5.29,0,0,1,.33-1.89,4.31,4.31,0,0,1,.9-1.51,4.19,4.19,0,0,1,1.41-1,4.28,4.28,0,0,1,1.81-.37,3.88,3.88,0,0,1,3.29,1.65,4.91,4.91,0,0,1,.76,1.71,6.37,6.37,0,0,1,.17,2h-6.28A2.59,2.59,0,0,0,179,10.32Zm2.7-4.76a1.65,1.65,0,0,0-1.3-.49,1.94,1.94,0,0,0-.95.21,1.78,1.78,0,0,0-.61.49,2.08,2.08,0,0,0-.32.63,3.85,3.85,0,0,0-.11.6h3.89A2.91,2.91,0,0,0,181.71,5.56Z"/><path class="cls-1" d="M188.39,3.45V5.13h0a3.08,3.08,0,0,1,.46-.78,3.17,3.17,0,0,1,.65-.62,3.71,3.71,0,0,1,.8-.39,2.78,2.78,0,0,1,.87-.14,1.72,1.72,0,0,1,.52.09V5.6a3.13,3.13,0,0,0-.4-.06l-.46,0a2.37,2.37,0,0,0-1.11.23,2,2,0,0,0-.73.62,2.48,2.48,0,0,0-.4.92,5.78,5.78,0,0,0-.11,1.13v4.08h-2.39v-9Z"/><path class="cls-1" d="M194.68,10.24a1.25,1.25,0,0,0,.41.47,1.65,1.65,0,0,0,.58.28,3.08,3.08,0,0,0,.68.08,2.46,2.46,0,0,0,.53-.06,1.63,1.63,0,0,0,.51-.19,1.26,1.26,0,0,0,.38-.35,1,1,0,0,0,.15-.55q0-.55-.72-.84a14,14,0,0,0-2-.56c-.35-.08-.69-.18-1-.29a3.08,3.08,0,0,1-.89-.44,2.24,2.24,0,0,1-.62-.68,2,2,0,0,1-.23-1,2.9,2.9,0,0,1,.32-1.44,2.45,2.45,0,0,1,.87-.88,3.75,3.75,0,0,1,1.21-.46,7,7,0,0,1,1.38-.13,6.84,6.84,0,0,1,1.37.14,3.61,3.61,0,0,1,1.19.47,2.85,2.85,0,0,1,.87.89,3,3,0,0,1,.41,1.39H197.8a1.09,1.09,0,0,0-.52-1,2.34,2.34,0,0,0-1.12-.26l-.43,0a1.43,1.43,0,0,0-.43.11.93.93,0,0,0-.33.26.68.68,0,0,0-.13.44.69.69,0,0,0,.23.54,1.54,1.54,0,0,0,.62.34,7,7,0,0,0,.86.24l1,.23a9,9,0,0,1,1,.3,3.12,3.12,0,0,1,.89.46,2.16,2.16,0,0,1,.62.72,2.13,2.13,0,0,1,.24,1.06,3,3,0,0,1-.35,1.49,2.8,2.8,0,0,1-.9,1,3.51,3.51,0,0,1-1.27.52,7.07,7.07,0,0,1-1.45.15,6.73,6.73,0,0,1-1.49-.16,3.89,3.89,0,0,1-1.29-.52,2.93,2.93,0,0,1-1.31-2.49h2.27A1.35,1.35,0,0,0,194.68,10.24Z"/></svg>