<svg id="Layer_1" data-name="Layer 1" xmlns="http://www.w3.org/2000/svg" viewBox="0 0 9.82 9.82"><defs><style>.cls-1{fill:#fff;}</style></defs><title>Artboard 5</title><g id="_6" data-name="6"><path class="cls-1" d="M3.94,5.58H1.33a.29.29,0,0,0,0,.58H3.26L0,9.4l.41.41L3.66,6.57V8.48a.3.3,0,0,0,.59,0V5.87a.26.26,0,0,0-.1-.2A.29.29,0,0,0,3.94,5.58ZM8.31,3.84H6.38L9.82.41,9.41,0,6,3.43V1.52a.3.3,0,0,0-.59,0V4.13a.26.26,0,0,0,.1.2.29.29,0,0,0,.2.09H8.31a.29.29,0,1,0,0-.58Z"/></g><g id="_6-2" data-name="6"><path class="cls-1" d="M4.23,3.94V1.33a.29.29,0,0,0-.58,0V3.26L.42,0,0,.41,3.24,3.67H1.33a.29.29,0,0,0,0,.58H3.94a.27.27,0,0,0,.2-.09A.29.29,0,0,0,4.23,3.94ZM6,8.31V6.39L9.4,9.82l.41-.41L6.39,6h1.9a.29.29,0,0,0,0-.58H5.68a.25.25,0,0,0-.2.09.29.29,0,0,0-.09.2V8.31a.29.29,0,0,0,.58,0Z"/></g></svg>