<svg id="Layer_1" data-name="Layer 1" xmlns="http://www.w3.org/2000/svg" viewBox="0 0 66.48 64.06"><defs><style>.cls-1{fill:#fff;}.cls-2{fill:#00ac69;}.cls-3{fill:#231f20;}</style></defs><title>Artboard 3</title><path class="cls-1" d="M.54,63.53V37.12c0-.3-1.14-27,27.9-36.56,15.15,5,21.93,14.63,25,21.83a36.89,36.89,0,0,1,3,14.7V63.53Z"/><path class="cls-2" d="M28.44,1.12c11.91,4,20.13,11.18,24.44,21.43a36.38,36.38,0,0,1,2.93,14.51V63H1.07V37.06A36.51,36.51,0,0,1,4,22.64C8.26,12.34,16.5,5.1,28.44,1.12m0-1.11C-1.52,9.79,0,37.12,0,37.12V64.06H56.87V37.12S58.41,9.79,28.44,0Z"/><path class="cls-3" d="M28.44,7.61c9,3.42,15.21,9.09,18.62,16.87a31,31,0,0,1,2.66,12.26V53.3H7.18V36.72A30.93,30.93,0,0,1,9.6,25C13,17,19.29,11.11,28.44,7.61"/><path class="cls-2" d="M28.44,0h0Z"/><path class="cls-2" d="M53.11,34.54A13.38,13.38,0,1,1,66.48,21.17,13.39,13.39,0,0,1,53.11,34.54Z"/><path class="cls-1" d="M53.11,33.41A12.24,12.24,0,1,1,65.35,21.17,12.24,12.24,0,0,1,53.11,33.41Z"/><path class="cls-3" d="M12.07,52.66v3.13l.9-.1a19.66,19.66,0,0,1,2.16-.11c5.44,0,10.81,2.24,12.53,3.57l.33.27.49.38.48-.38.34-.27c1.71-1.33,7.09-3.57,12.53-3.57a19.66,19.66,0,0,1,2.16.11l.83.1V52.66Z"/><path class="cls-1" d="M42,43.76a.65.65,0,1,0,0,1.29h3.42a.65.65,0,1,0,0-1.29Z"/><path class="cls-1" d="M46.1,48.1a.64.64,0,0,0-.65-.64H41.24a.64.64,0,0,0-.65.64.65.65,0,0,0,.65.65h4.21A.65.65,0,0,0,46.1,48.1Z"/><path class="cls-1" d="M45.45,49.3H42a.65.65,0,1,0,0,1.3h3.43a.65.65,0,1,0,0-1.3Z"/><path class="cls-1" d="M46.09,46.26a.66.66,0,0,0-.64-.66H40.77a.66.66,0,0,0-.65.66.65.65,0,0,0,.65.64h4.68A.64.64,0,0,0,46.09,46.26Z"/><path class="cls-1" d="M10.67,44.41a.65.65,0,0,0,.65.64h3.42a.65.65,0,1,0,0-1.29H11.32A.65.65,0,0,0,10.67,44.41Z"/><path class="cls-1" d="M10.67,46.26a.64.64,0,0,0,.64.64H16a.66.66,0,0,0,.66-.64A.67.67,0,0,0,16,45.6H11.31A.66.66,0,0,0,10.67,46.26Z"/><path class="cls-1" d="M10.66,48.1a.65.65,0,0,0,.65.65h4.21a.65.65,0,0,0,.65-.65.64.64,0,0,0-.65-.64H11.31A.64.64,0,0,0,10.66,48.1Z"/><path class="cls-1" d="M10.66,50a.65.65,0,0,0,.65.65h3.43a.65.65,0,1,0,0-1.3H11.31A.65.65,0,0,0,10.66,50Z"/><path class="cls-1" d="M34.24,23.12l0,.33s-.16,3.06,1,4.25a3.2,3.2,0,0,1,1.15-1.77,8.14,8.14,0,0,0-15.9,0,2.12,2.12,0,0,1,1.19,1.68c.5-.34,1.32-1.3,1-3.87l-.1-.77.6.49a9.42,9.42,0,0,0,8.57,1.08,7.55,7.55,0,0,1-1.31-.91l-.57-.54Z"/><path class="cls-1" d="M37.24,25.31c0-.19,0-.37,0-.56a8.77,8.77,0,0,0-17.53,0c0,.19,0,.37,0,.56a9.36,9.36,0,0,1,8.74-6.57A9.34,9.34,0,0,1,37.24,25.31Z"/><path class="cls-1" d="M38.26,28.75c0-1.27-.55-2.3-1.24-2.3a.75.75,0,0,0-.51.21v0a2.88,2.88,0,0,0-.76,1.64l0,.48-.43-.24c-1.62-.9-1.72-3.79-1.71-4.78h-2a8.37,8.37,0,0,0,1.07.59l.66.3-.67.27a10.24,10.24,0,0,1-9.28-.54c.23,3.52-1.78,4-1.87,4.06l-.39.09v-.39a1.66,1.66,0,0,0-.72-1.52v0a.77.77,0,0,0-.46-.17c-.69,0-1.25,1-1.25,2.3s.56,2.3,1.25,2.3a1.05,1.05,0,0,0,.84-.62,8.15,8.15,0,0,0,15.4-.05,1.1,1.1,0,0,0,.88.67C37.71,31.05,38.26,30,38.26,28.75Zm-11.14,1a1.37,1.37,0,0,1,2.62,0,.31.31,0,0,1-.58.19.8.8,0,0,0-.73-.55.81.81,0,0,0-.74.56.3.3,0,0,1-.28.2h-.1A.31.31,0,0,1,27.12,29.71Zm5.76-2.09a1.22,1.22,0,1,1-2.44,0,1.22,1.22,0,1,1,2.44,0Zm-7.69,1.22a1.22,1.22,0,1,1,1.23-1.22A1.22,1.22,0,0,1,25.19,28.84Zm3.24,3.55a5.82,5.82,0,0,0,3.13-.67,3.65,3.65,0,0,1-6.26,0A5.82,5.82,0,0,0,28.43,32.39Z"/><path class="cls-1" d="M40.6,37.55c-1-.5-3.67-1.72-6.26-1.06-.51-.66-.7-.89-.7-.89a.73.73,0,0,0-.75-.11.77.77,0,0,0-.55.62A3.88,3.88,0,0,1,28.71,40h-.58a3.87,3.87,0,0,1-3.63-3.86.79.79,0,0,0-.55-.62.72.72,0,0,0-.75.11s-.19.23-.7.89c-2.59-.66-5.31.56-6.27,1.06,8.44,0,12.19,4,12.19,4S32.14,37.55,40.6,37.55Z"/><path class="cls-1" d="M45.9,43.38a2.15,2.15,0,0,0-1.23-1v.87h.8A1.18,1.18,0,0,1,45.9,43.38Z"/><path class="cls-1" d="M10.86,43.38a2.15,2.15,0,0,1,1.23-1v.87h-.8A1.18,1.18,0,0,0,10.86,43.38Z"/><path class="cls-1" d="M42.06,43.23h2.18V38.34C34.7,37,29.94,41,28.74,42.05V58.8a24.67,24.67,0,0,1,15.5-3.69v-4H42.06A1.17,1.17,0,0,1,40.88,50a1.18,1.18,0,0,1,.22-.69,1.17,1.17,0,0,1-1-1.16,1.1,1.1,0,0,1,.28-.75,1.18,1.18,0,0,1,.43-2.28h.28a1.15,1.15,0,0,1-.21-.66A1.18,1.18,0,0,1,42.06,43.23Z"/><path class="cls-1" d="M12.59,38.34v4.89h2.18A1.19,1.19,0,0,1,16,44.41a1.09,1.09,0,0,1-.22.66H16a1.18,1.18,0,0,1,.43,2.28,1.15,1.15,0,0,1-.72,1.91A1.19,1.19,0,0,1,16,50a1.17,1.17,0,0,1-1.19,1.18H12.59v4a24.69,24.69,0,0,1,15.5,3.69V42.05C27.06,41,22.17,37,12.59,38.34Z"/><path class="cls-1" d="M25.17,35.9a1.48,1.48,0,0,0,0,.21,3.26,3.26,0,1,0,6.51,0,1,1,0,0,0,0-.18,7.2,7.2,0,0,1-2.24.54c-.33,0-.67.06-1,.06A8.78,8.78,0,0,1,25.17,35.9Z"/></svg>