<svg id="Layer_1" data-name="Layer 1" xmlns="http://www.w3.org/2000/svg" viewBox="0 0 200.31 45.92"><defs><style>.cls-1{fill:#00ac69;}.cls-2{fill:#231f20;}</style></defs><title>Artboard 4</title><path class="cls-1" d="M12.29,14.76a6.7,6.7,0,0,1-1.16,4,4.31,4.31,0,0,1-3.62,1.89,4.32,4.32,0,0,1-3.65-1.89,6.72,6.72,0,0,1-1.18-4V8.51H0v6.56a8,8,0,0,0,2.25,5.75,7,7,0,0,0,5.26,2.31,6.85,6.85,0,0,0,5.28-2.4A8.14,8.14,0,0,0,15,15.07V8.51H12.29Z"/><rect class="cls-1" x="6.25" y="3.72" width="2.6" height="2.62"/><path class="cls-1" d="M22.29,8.49a5,5,0,0,0-5.09,5.35c0,3.14,2,5.38,5.09,5.38A2.64,2.64,0,0,0,24.8,18c-.05,1.84-.88,2.94-2.54,3v2.1c3.44,0,5.14-1.41,5.14-4.22v-5C27.4,10.8,25.41,8.49,22.29,8.49Zm0,8.35c-1.45,0-2.44-1.35-2.44-3s.92-2.95,2.32-2.95,2.51,1.23,2.51,3.07A2.62,2.62,0,0,1,22.29,16.84Z"/><rect class="cls-1" x="51.49" y="3.72" width="2.58" height="2.62"/><rect class="cls-1" x="53.74" width="2.6" height="2.64"/><rect class="cls-1" x="55.97" y="3.72" width="2.58" height="2.62"/><path class="cls-1" d="M60.44,13.94c0,1.72-.66,2.59-2,2.59H55.85c.35-.38.54-1.34.54-2.88V8.51H53.72v5.4c0,1.75-.67,2.62-2,2.62H49.24v-.14a5.81,5.81,0,0,0,.43-2.74V8.51H47v5.24c0,1.86-.66,2.78-2,2.78H35.1v-8H32.45v9c0,2.26-1.09,3.35-3.29,3.35v2.26c3.22,0,5.37-1.39,5.78-3.91H58.53c2.69,0,4.59-2.22,4.59-5.61V8.51H60.44Z"/><path class="cls-1" d="M75.91,14.05a5.07,5.07,0,0,1-.19,1.7c-.26.52-.8.78-1.68.78H71.13a3.72,3.72,0,0,1-2-.4,2.67,2.67,0,0,1-.76-2.26V4H65.7V14.93a4.56,4.56,0,0,0,1,3.06,3.59,3.59,0,0,0,2.94,1.23h5q4,0,4-4.27V8.51H75.91Z"/><rect class="cls-1" x="75.94" y="3.72" width="2.58" height="2.62"/><rect class="cls-1" x="136" y="3.72" width="2.6" height="2.62"/><path class="cls-1" d="M160.64,14.05a5.07,5.07,0,0,1-.19,1.7,1.68,1.68,0,0,1-1.68.78H155v-.68a5.6,5.6,0,0,0-1.46-3.94,5,5,0,0,0-3.84-1.58,5.17,5.17,0,0,0-3.86,1.53,5.4,5.4,0,0,0-1.47,3.89c0,.26,0,.52,0,.78H138a4.49,4.49,0,0,0,.57-2.74V8.51H136v5.43a4.31,4.31,0,0,1-.28,1.79,1.63,1.63,0,0,1-1.59.8h-8.63c0-5.94-3-10.38-8.17-11.41L117,7.64c3.43.71,5.87,4.2,5.87,8.16,0,.24,0,.47,0,.73h-3.12a6.75,6.75,0,0,0,.61-2.45,4.68,4.68,0,0,0-9.35,0,6.66,6.66,0,0,0,.61,2.45h-11a8,8,0,0,0,.14-1.46V4H98.08V14.76c0,3.33-2,5.85-4.78,5.85S88.47,18,88.47,14.76v-2H85.79v2.31c0,4.43,3.39,8.06,7.51,8.06a7.33,7.33,0,0,0,6.39-3.91h45.74a5,5,0,0,0,4.24,2.05A5,5,0,0,0,154,19.22h5.35q4,0,4-4.27V4h-2.65Zm-45,2.55a2.29,2.29,0,0,1-2.17-2.52,2.19,2.19,0,1,1,4.35,0A2.32,2.32,0,0,1,115.65,16.6Zm36,1.32a2.25,2.25,0,0,1-1.89.9,2.82,2.82,0,0,1-2.68-3.09,3.47,3.47,0,0,1,.62-2.08,2.26,2.26,0,0,1,1.92-.94,2.44,2.44,0,0,1,2,1,3.57,3.57,0,0,1,.64,2.14A3.4,3.4,0,0,1,151.63,17.92Z"/><rect class="cls-1" x="165.73" y="3.98" width="2.63" height="15.23"/><path class="cls-1" d="M179.09,17.52c0,2.26-1.09,3.35-3.29,3.35v2.26c4.07,0,5.94-1.77,5.94-6V8.51h-2.65Z"/><rect class="cls-1" x="184.18" y="3.98" width="2.63" height="15.23"/><path class="cls-1" d="M195.5,8.89a5.79,5.79,0,0,0-1.42-.33c-.33,0-1.16-.05-2.46-.05v2.41a11.37,11.37,0,0,1,2.39.21c2.39.52,3.6,2.31,3.6,5.4H189v2.69h11.24V16.53Q200.25,10.49,195.5,8.89Z"/><path class="cls-2" d="M5.18,33.2a6.15,6.15,0,0,1,2.17.38,4.55,4.55,0,0,1,1.73,1.16,5.37,5.37,0,0,1,1.15,1.92,8.22,8.22,0,0,1,.41,2.71,8.78,8.78,0,0,1-.34,2.52,5.49,5.49,0,0,1-1,2,4.73,4.73,0,0,1-1.7,1.32,5.52,5.52,0,0,1-2.4.48H0V33.2ZM5,43.38a3.5,3.5,0,0,0,1.11-.19,2.42,2.42,0,0,0,1-.64,3.19,3.19,0,0,0,.67-1.16A5.29,5.29,0,0,0,8,39.64a7.48,7.48,0,0,0-.18-1.71,3.44,3.44,0,0,0-.58-1.3,2.71,2.71,0,0,0-1.07-.84,4.35,4.35,0,0,0-1.64-.28H2.64v7.87Z"/><path class="cls-2" d="M12.12,39.43A2.85,2.85,0,0,1,12.54,38a2.91,2.91,0,0,1,1-.93,4.12,4.12,0,0,1,1.28-.5,7,7,0,0,1,1.44-.15,10,10,0,0,1,1.33.09,4.31,4.31,0,0,1,1.23.38,2.46,2.46,0,0,1,.91.78A2.2,2.2,0,0,1,20,39v4.71a11,11,0,0,0,.07,1.17,2.35,2.35,0,0,0,.24.84H17.91c0-.14-.08-.28-.11-.43l-.06-.45a3.06,3.06,0,0,1-1.34.86,5.06,5.06,0,0,1-1.58.25,4.35,4.35,0,0,1-1.17-.16,2.72,2.72,0,0,1-.94-.49,2.22,2.22,0,0,1-.63-.84,3,3,0,0,1-.23-1.21A2.81,2.81,0,0,1,12.11,42a2.28,2.28,0,0,1,.68-.79,2.83,2.83,0,0,1,.94-.45,9.7,9.7,0,0,1,1.07-.23c.36-.06.71-.11,1.06-.14a6.87,6.87,0,0,0,.93-.16,1.6,1.6,0,0,0,.64-.31.66.66,0,0,0,.21-.58,1.4,1.4,0,0,0-.12-.64,1,1,0,0,0-.34-.37,1.1,1.1,0,0,0-.49-.17,3.61,3.61,0,0,0-.59,0,1.78,1.78,0,0,0-1.12.32,1.44,1.44,0,0,0-.47,1Zm5.52,1.83a.91.91,0,0,1-.37.22,3.92,3.92,0,0,1-.49.13,4.85,4.85,0,0,1-.55.09,5.62,5.62,0,0,0-.57.09,3.18,3.18,0,0,0-.53.14,1.54,1.54,0,0,0-.46.24,1,1,0,0,0-.31.37,1.25,1.25,0,0,0-.12.58,1.19,1.19,0,0,0,.12.56,1,1,0,0,0,.32.36,1.39,1.39,0,0,0,.47.18,3.43,3.43,0,0,0,.56.05A2.07,2.07,0,0,0,16.8,44a1.6,1.6,0,0,0,.57-.59,1.87,1.87,0,0,0,.23-.69,4.41,4.41,0,0,0,0-.56Z"/><path class="cls-2" d="M24.16,36.64v1.68h0a3,3,0,0,1,.46-.77,2.94,2.94,0,0,1,.65-.62,3.06,3.06,0,0,1,.79-.39A2.84,2.84,0,0,1,27,36.4a1.72,1.72,0,0,1,.52.09V38.8a3.27,3.27,0,0,0-.4-.07l-.46,0a2.37,2.37,0,0,0-1.11.23,1.84,1.84,0,0,0-.73.62,2.48,2.48,0,0,0-.4.92,5.1,5.1,0,0,0-.11,1.13v4.08H21.89v-9Z"/><path class="cls-2" d="M39.36,33.2l4.49,12.49H41.11l-.91-2.78H35.71l-1,2.78H32.1L36.65,33.2Zm.15,7.66L38,36.28h0l-1.57,4.58Z"/><path class="cls-2" d="M47.1,33.2V45.69H44.71V33.2Z"/><path class="cls-2" d="M57.64,33.2l2.81,8.59h0l2.66-8.59h3.72V45.69H64.39V36.84h0l-3,8.85h-2l-3-8.77h0v8.77H53.92V33.2Z"/><path class="cls-2" d="M68.83,39.43A3,3,0,0,1,69.26,38a2.79,2.79,0,0,1,.94-.93,4.08,4.08,0,0,1,1.29-.5,6.9,6.9,0,0,1,1.44-.15,10.13,10.13,0,0,1,1.33.09,4.52,4.52,0,0,1,1.23.38,2.51,2.51,0,0,1,.9.78A2.2,2.2,0,0,1,76.75,39v4.71a8.86,8.86,0,0,0,.07,1.17,2.18,2.18,0,0,0,.23.84H74.63a2.09,2.09,0,0,1-.11-.43,3.06,3.06,0,0,1-.06-.45,3.09,3.09,0,0,1-1.35.86,5,5,0,0,1-1.58.25,4.22,4.22,0,0,1-1.16-.16,2.76,2.76,0,0,1-1-.49,2.22,2.22,0,0,1-.63-.84,3,3,0,0,1-.22-1.21A2.69,2.69,0,0,1,68.83,42a2.16,2.16,0,0,1,.67-.79,3,3,0,0,1,.94-.45,10.22,10.22,0,0,1,1.07-.23c.36-.06.71-.11,1.06-.14a6.87,6.87,0,0,0,.93-.16,1.53,1.53,0,0,0,.64-.31.69.69,0,0,0,.22-.58,1.39,1.39,0,0,0-.13-.64.94.94,0,0,0-.34-.37,1.1,1.1,0,0,0-.48-.17,3.83,3.83,0,0,0-.6,0,1.77,1.77,0,0,0-1.11.32,1.45,1.45,0,0,0-.48,1Zm5.53,1.83a1,1,0,0,1-.38.22,3.51,3.51,0,0,1-.49.13,4.51,4.51,0,0,1-.55.09,5.62,5.62,0,0,0-.57.09,3.46,3.46,0,0,0-.53.14,1.48,1.48,0,0,0-.45.24,1,1,0,0,0-.32.37,1.25,1.25,0,0,0-.11.58,1.19,1.19,0,0,0,.11.56,1,1,0,0,0,.32.36,1.45,1.45,0,0,0,.48.18,3.21,3.21,0,0,0,.55.05,2.11,2.11,0,0,0,1.1-.24,1.77,1.77,0,0,0,.57-.59,1.85,1.85,0,0,0,.22-.69,4.75,4.75,0,0,0,0-.56Z"/><path class="cls-2" d="M80.87,36.64V37.9h0a2.81,2.81,0,0,1,1.18-1.14,3.29,3.29,0,0,1,1.48-.36,4,4,0,0,1,1.58.27,2.28,2.28,0,0,1,1,.75,2.89,2.89,0,0,1,.5,1.17,8.16,8.16,0,0,1,.14,1.54v5.56H84.37V40.58A3.21,3.21,0,0,0,84,38.91a1.27,1.27,0,0,0-1.19-.55,1.62,1.62,0,0,0-1.41.6A3.43,3.43,0,0,0,81,41v4.74H78.6v-9Z"/><path class="cls-2" d="M91,33.2v4.7h0a2.88,2.88,0,0,1,1.16-1.14,3,3,0,0,1,1.38-.36,4,4,0,0,1,1.58.27,2.37,2.37,0,0,1,1,.75,3,3,0,0,1,.49,1.17,7.41,7.41,0,0,1,.14,1.54v5.56H94.36V40.58A3.31,3.31,0,0,0,94,38.91a1.3,1.3,0,0,0-1.2-.55,1.62,1.62,0,0,0-1.41.6A3.51,3.51,0,0,0,91,41v4.74H88.58V33.2Z"/><path class="cls-2" d="M98.46,39.43A3.06,3.06,0,0,1,98.88,38a2.91,2.91,0,0,1,1-.93,4.08,4.08,0,0,1,1.29-.5,6.88,6.88,0,0,1,1.43-.15,10,10,0,0,1,1.33.09,4.31,4.31,0,0,1,1.23.38,2.46,2.46,0,0,1,.91.78,2.2,2.2,0,0,1,.36,1.32v4.71a11,11,0,0,0,.06,1.17,2.35,2.35,0,0,0,.24.84h-2.43c0-.14-.08-.28-.11-.43s0-.29,0-.45a3.09,3.09,0,0,1-1.35.86,5,5,0,0,1-1.58.25,4.35,4.35,0,0,1-1.17-.16,2.72,2.72,0,0,1-.94-.49,2.22,2.22,0,0,1-.63-.84,3,3,0,0,1-.23-1.21A2.81,2.81,0,0,1,98.45,42a2.28,2.28,0,0,1,.68-.79,2.92,2.92,0,0,1,.94-.45,10.22,10.22,0,0,1,1.07-.23c.36-.06.71-.11,1.06-.14a6.87,6.87,0,0,0,.93-.16,1.43,1.43,0,0,0,.63-.31.64.64,0,0,0,.22-.58,1.4,1.4,0,0,0-.12-.64,1,1,0,0,0-.34-.37,1.1,1.1,0,0,0-.49-.17,3.61,3.61,0,0,0-.59,0,1.78,1.78,0,0,0-1.12.32,1.48,1.48,0,0,0-.47,1ZM104,41.26a.91.91,0,0,1-.37.22,3.92,3.92,0,0,1-.49.13,4.85,4.85,0,0,1-.55.09,5.62,5.62,0,0,0-.57.09,3.18,3.18,0,0,0-.53.14,1.67,1.67,0,0,0-.46.24,1.13,1.13,0,0,0-.31.37,1.25,1.25,0,0,0-.12.58,1.19,1.19,0,0,0,.12.56A1,1,0,0,0,101,44a1.39,1.39,0,0,0,.47.18,3.43,3.43,0,0,0,.56.05,2.07,2.07,0,0,0,1.09-.24,1.6,1.6,0,0,0,.57-.59,1.87,1.87,0,0,0,.23-.69,4.41,4.41,0,0,0,0-.56Z"/><path class="cls-2" d="M110.69,33.2V45.69h-2.4V33.2Z"/><path class="cls-2" d="M122.92,33.2a4.81,4.81,0,0,1,1.92.34,3.63,3.63,0,0,1,1.29.9,3.45,3.45,0,0,1,.72,1.28,4.88,4.88,0,0,1,0,3,3.41,3.41,0,0,1-.72,1.29,3.63,3.63,0,0,1-1.29.9,4.81,4.81,0,0,1-1.92.34h-2.78v4.48H117.5V33.2Zm-.72,5.88a6.13,6.13,0,0,0,.87-.07,1.93,1.93,0,0,0,.74-.28,1.41,1.41,0,0,0,.52-.56,2.55,2.55,0,0,0,0-1.93,1.51,1.51,0,0,0-.52-.57,2.1,2.1,0,0,0-.74-.27,6.13,6.13,0,0,0-.87-.07h-2.06v3.75Z"/><path class="cls-2" d="M134.37,45.69V44.43h-.05a2.87,2.87,0,0,1-1.18,1.14,3.42,3.42,0,0,1-1.48.35,3.88,3.88,0,0,1-1.57-.27,2.16,2.16,0,0,1-1-.74,3,3,0,0,1-.5-1.17,7.25,7.25,0,0,1-.14-1.53V36.64h2.39v5.11a3.18,3.18,0,0,0,.34,1.67,1.27,1.27,0,0,0,1.19.56,1.63,1.63,0,0,0,1.41-.61,3.45,3.45,0,0,0,.44-2V36.64h2.39v9Z"/><path class="cls-2" d="M140.85,33.2v4.55h0a2.57,2.57,0,0,1,1.18-1,4,4,0,0,1,1.56-.32,3.17,3.17,0,0,1,1.3.28,3.34,3.34,0,0,1,1.15.86,4.32,4.32,0,0,1,.83,1.47,6.58,6.58,0,0,1,.32,2.15,6.47,6.47,0,0,1-.32,2.14,4.37,4.37,0,0,1-.83,1.48,3.24,3.24,0,0,1-2.45,1.14,4.47,4.47,0,0,1-1.72-.32,2.26,2.26,0,0,1-1.14-1.06h0v1.15h-2.27V33.2Zm3.87,6.87a2.91,2.91,0,0,0-.37-.92,2,2,0,0,0-.63-.64,1.68,1.68,0,0,0-.92-.24,1.72,1.72,0,0,0-.91.24,2.06,2.06,0,0,0-.64.64,2.9,2.9,0,0,0-.36.92,5,5,0,0,0-.12,1.11,4.83,4.83,0,0,0,.12,1.08,3,3,0,0,0,.36.93,2.06,2.06,0,0,0,.64.64,1.81,1.81,0,0,0,.91.23,1.77,1.77,0,0,0,.92-.23,2,2,0,0,0,.63-.64,3,3,0,0,0,.37-.93,4.83,4.83,0,0,0,.12-1.08A5,5,0,0,0,144.72,40.07Z"/><path class="cls-2" d="M151.2,33.2V45.69h-2.38V33.2Z"/><path class="cls-2" d="M153.16,35.24v-2h2.39v2Zm2.39,1.4v9h-2.39v-9Z"/><path class="cls-2" d="M159.45,43.44a1.33,1.33,0,0,0,.41.47,1.65,1.65,0,0,0,.58.28,3,3,0,0,0,.68.08,2.53,2.53,0,0,0,.53-.06,1.57,1.57,0,0,0,.5-.19,1.16,1.16,0,0,0,.38-.35.9.9,0,0,0,.16-.55c0-.37-.24-.66-.72-.84a14,14,0,0,0-2-.56,10.12,10.12,0,0,1-1-.29,3.52,3.52,0,0,1-.89-.44,2.12,2.12,0,0,1-.62-.68,2,2,0,0,1-.24-1,2.78,2.78,0,0,1,.33-1.43,2.45,2.45,0,0,1,.87-.88,3.67,3.67,0,0,1,1.21-.46A7,7,0,0,1,161,36.4a6.84,6.84,0,0,1,1.37.14,3.49,3.49,0,0,1,1.19.47,2.74,2.74,0,0,1,.87.89,3,3,0,0,1,.41,1.39h-2.27a1.11,1.11,0,0,0-.52-1,2.33,2.33,0,0,0-1.11-.26l-.44,0a1.43,1.43,0,0,0-.43.11.93.93,0,0,0-.33.26.74.74,0,0,0,.1,1,1.7,1.7,0,0,0,.61.34,7.7,7.7,0,0,0,.87.24l1,.23a9.32,9.32,0,0,1,1,.3,3.14,3.14,0,0,1,.87.46,2.08,2.08,0,0,1,.63.72,2.13,2.13,0,0,1,.23,1.06,3,3,0,0,1-.34,1.49,2.8,2.8,0,0,1-.9,1,3.58,3.58,0,0,1-1.27.52,7.09,7.09,0,0,1-1.46.15,7.37,7.37,0,0,1-1.48-.16,3.9,3.9,0,0,1-1.29-.53,2.86,2.86,0,0,1-.92-1,3.09,3.09,0,0,1-.4-1.51h2.27A1.36,1.36,0,0,0,159.45,43.44Z"/><path class="cls-2" d="M168.86,33.2v4.7h0a2.88,2.88,0,0,1,1.16-1.14,3.06,3.06,0,0,1,1.39-.36,3.92,3.92,0,0,1,1.57.27,2.37,2.37,0,0,1,1,.75,3,3,0,0,1,.49,1.17,7.38,7.38,0,0,1,.15,1.54v5.56h-2.39V40.58a3.31,3.31,0,0,0-.34-1.67,1.28,1.28,0,0,0-1.2-.55,1.62,1.62,0,0,0-1.41.6,3.51,3.51,0,0,0-.44,2v4.74h-2.39V33.2Z"/><path class="cls-2" d="M179,43.52a2.4,2.4,0,0,0,2.8.17,1.6,1.6,0,0,0,.64-.8h2.1A4.15,4.15,0,0,1,183,45.22a4.47,4.47,0,0,1-2.52.7,4.69,4.69,0,0,1-1.85-.34,3.87,3.87,0,0,1-1.4-1,4.36,4.36,0,0,1-.88-1.51,5.37,5.37,0,0,1-.32-1.92,5.29,5.29,0,0,1,.33-1.89,4.44,4.44,0,0,1,.9-1.52,4.34,4.34,0,0,1,3.22-1.37,4,4,0,0,1,1.93.45A3.81,3.81,0,0,1,183.77,38a5,5,0,0,1,.76,1.72,6.37,6.37,0,0,1,.17,2h-6.28A2.59,2.59,0,0,0,179,43.52Zm2.7-4.76a1.62,1.62,0,0,0-1.3-.49,2.06,2.06,0,0,0-.95.2,1.8,1.8,0,0,0-.61.5,2.08,2.08,0,0,0-.32.63,4,4,0,0,0-.11.59h3.89A2.91,2.91,0,0,0,181.71,38.76Z"/><path class="cls-2" d="M188.39,36.64v1.68h0a3,3,0,0,1,.46-.77,3.17,3.17,0,0,1,.65-.62,3,3,0,0,1,.8-.39,2.78,2.78,0,0,1,.87-.14,1.72,1.72,0,0,1,.52.09V38.8a3,3,0,0,0-.4-.07l-.46,0a2.37,2.37,0,0,0-1.11.23,1.91,1.91,0,0,0-.73.62,2.48,2.48,0,0,0-.4.92,5.78,5.78,0,0,0-.11,1.13v4.08h-2.39v-9Z"/><path class="cls-2" d="M194.68,43.44a1.33,1.33,0,0,0,.41.47,1.65,1.65,0,0,0,.58.28,3.08,3.08,0,0,0,.68.08,2.46,2.46,0,0,0,.53-.06,1.63,1.63,0,0,0,.51-.19,1.4,1.4,0,0,0,.38-.35,1,1,0,0,0,.15-.55c0-.37-.24-.66-.72-.84a14,14,0,0,0-2-.56c-.35-.08-.69-.18-1-.29a3.36,3.36,0,0,1-.89-.44,2.24,2.24,0,0,1-.62-.68,2,2,0,0,1-.23-1,2.88,2.88,0,0,1,.32-1.43,2.45,2.45,0,0,1,.87-.88,3.75,3.75,0,0,1,1.21-.46,7,7,0,0,1,1.38-.13,6.84,6.84,0,0,1,1.37.14,3.41,3.41,0,0,1,1.19.47,2.74,2.74,0,0,1,.87.89,3,3,0,0,1,.41,1.39H197.8a1.09,1.09,0,0,0-.52-1,2.34,2.34,0,0,0-1.12-.26l-.43,0a1.43,1.43,0,0,0-.43.11.93.93,0,0,0-.33.26.68.68,0,0,0-.13.44.71.71,0,0,0,.23.54,1.67,1.67,0,0,0,.62.34,7,7,0,0,0,.86.24l1,.23a9,9,0,0,1,1,.3,3.12,3.12,0,0,1,.89.46,2.16,2.16,0,0,1,.62.72,2.13,2.13,0,0,1,.24,1.06,3,3,0,0,1-.35,1.49,2.8,2.8,0,0,1-.9,1,3.51,3.51,0,0,1-1.27.52,7.07,7.07,0,0,1-1.45.15,7.39,7.39,0,0,1-1.49-.16,3.9,3.9,0,0,1-1.29-.53,2.86,2.86,0,0,1-.92-1,3,3,0,0,1-.39-1.51h2.27A1.35,1.35,0,0,0,194.68,43.44Z"/></svg>