<?xml version="1.0" encoding="utf-8"?>
<!-- Generator: Adobe Illustrator 22.1.0, SVG Export Plug-In . SVG Version: 6.00 Build 0)  -->
<svg version="1.1" id="Layer_1" xmlns="http://www.w3.org/2000/svg" xmlns:xlink="http://www.w3.org/1999/xlink" x="0px" y="0px"
	 viewBox="0 0 47.4 47.4" style="enable-background:new 0 0 47.4 47.4;" xml:space="preserve">
<style type="text/css">
	.st0{clip-path:url(#SVGID_2_);fill:#FEBF31;}
	.st1{clip-path:url(#SVGID_4_);fill:#FFFFFF;}
	.st2{opacity:0.1;clip-path:url(#SVGID_6_);}
	.st3{fill:#030303;}
	.st4{clip-path:url(#SVGID_8_);}
	.st5{fill:#E2E2E2;stroke:#E2E2E2;stroke-width:1.1595;stroke-miterlimit:10;}
	.st6{fill:#E2E2E2;stroke:#F0EFEF;stroke-width:1.0398;stroke-miterlimit:10;}
	.st7{fill:#FFFFFF;stroke:#FFFFFF;stroke-width:1.1595;stroke-miterlimit:10;}
	.st8{fill:#FFFFFF;stroke:#FFFFFF;stroke-width:1.0398;stroke-miterlimit:10;}
</style>
<g>
	<g>
		<g>
			<defs>
				<circle id="SVGID_1_" cx="23.7" cy="23.7" r="23.7"/>
			</defs>
			<clipPath id="SVGID_2_">
				<use xlink:href="#SVGID_1_"  style="overflow:visible;"/>
			</clipPath>
			<rect x="-5.9" y="-5.9" class="st0" width="59.1" height="59.1"/>
		</g>
		<g>
			<defs>
				<circle id="SVGID_3_" cx="23.7" cy="23.7" r="23.7"/>
			</defs>
			<clipPath id="SVGID_4_">
				<use xlink:href="#SVGID_3_"  style="overflow:visible;"/>
			</clipPath>
			<path class="st1" d="M27.8,3.4c1.4,6.2,3.8,7,9.2,6.2c-4.6,3-9.5,2.7-9.7-2c-1.8,5-6.8,4.5-9.8,1.6c0.3,4.7-2.7,4.4-7.1,2
				c4.2,0.3,5.9-0.2,5.3-5.5C20.6,9.4,24.6,8.5,27.8,3.4z"/>
		</g>
		<g>
			<defs>
				<circle id="SVGID_5_" cx="23.7" cy="23.7" r="23.7"/>
			</defs>
			<clipPath id="SVGID_6_">
				<use xlink:href="#SVGID_5_"  style="overflow:visible;"/>
			</clipPath>
			<g class="st2">
				<path class="st3" d="M32.4,23.5c-0.2-0.6-0.5-1.1-0.9-1.6c-0.2-0.3-0.4-0.6-0.7-0.9c-0.6-0.6-1.4-1.2-2.4-1.6
					c-0.9-0.4-1.9-0.7-3-0.9c-1.3-0.2-2.5-0.2-3.5,0.1c-1,0.2-1.9,0.6-2.8,1.1c-0.8,0.5-1.4,1.1-1.9,1.8s-0.8,1.3-0.9,2
					c0,0.2,0,0.4,0.1,0.5c0,0.1,0.1,0.1,0.2,0.2c0,0.1,0.1,0.2,0.1,0.2c0.1,0.1,0.2,0.2,0.4,0.2l3.6,0.6c0.4,0.1,0.6,0,0.8-0.3
					c0.2-0.2,0.4-0.5,0.6-0.8c0.2-0.3,0.5-0.5,0.9-0.7s1-0.2,1.9-0.1c0.9,0.1,1.5,0.4,1.9,0.8c0.2,0.3,0.2,0.6,0.1,1
					c-0.1,0.4-0.2,0.7-0.6,1c-0.3,0.3-0.7,0.5-1.1,0.8c-0.4,0.3-0.9,0.5-1.4,0.8s-1,0.6-1.4,0.9c-0.4,0.3-0.8,0.7-1.2,1.2
					c-0.3,0.5-0.6,1-0.7,1.6c0,0.2-0.2,1.8-0.1,2c0.1,0.1,0.2,0.2,0.2,0.2c0,0.1,0,0.1,0,0.2c0.1,0.2,0.3,0.3,0.5,0.3l3.6,0.6
					c0.2,0,0.4,0,0.5-0.1s0.5-1.7,0.6-1.9c0.2-0.4,0.5-0.7,0.8-1.1c0.4-0.3,0.8-0.6,1.2-0.8c0.4-0.3,0.9-0.5,1.4-0.8
					s0.9-0.6,1.3-0.9c0.4-0.4,0.8-0.8,1.1-1.3s0.5-1.1,0.6-1.7C32.8,25,32.7,24.2,32.4,23.5z"/>
				<path class="st3" d="M24.9,36.3c0-0.1-0.1-0.1-0.1-0.2c-0.1-0.2-0.3-0.3-0.5-0.3L21,35.3c-0.2,0-0.4,0-0.5,0.1
					c-0.2,0.1-0.3,0.3-0.3,0.5l-0.4,2.7c0,0.2,0,0.4,0.1,0.5s0.1,0.1,0.2,0.2c0,0.1,0.1,0.1,0.1,0.2c0.1,0.2,0.3,0.3,0.5,0.3
					l3.3,0.5c0.2,0,0.4,0,0.5-0.1c0.2-0.1,0.3-0.3,0.3-0.5l0.4-2.7c0-0.2,0-0.4-0.1-0.5C25.1,36.4,25,36.3,24.9,36.3z"/>
			</g>
		</g>
		<g>
			<defs>
				<circle id="SVGID_7_" cx="23.7" cy="23.7" r="23.7"/>
			</defs>
			<clipPath id="SVGID_8_">
				<use xlink:href="#SVGID_7_"  style="overflow:visible;"/>
			</clipPath>
			<g class="st4">
				<g>
					<path class="st5" d="M30.7,21.4c-0.3-0.8-0.7-1.5-1.3-2.1c-0.6-0.6-1.4-1.2-2.4-1.6c-0.9-0.4-1.9-0.7-3-0.9
						c-1.3-0.2-2.5-0.2-3.5,0.1c-1,0.2-1.9,0.6-2.8,1.1c-0.8,0.5-1.4,1.1-1.9,1.8s-0.8,1.3-0.9,2c0,0.2,0,0.4,0.1,0.5
						s0.2,0.2,0.4,0.2l3.6,0.6c0.4,0.1,0.6,0,0.8-0.3c0.2-0.2,0.4-0.5,0.6-0.8c0.2-0.3,0.5-0.5,0.9-0.7s1-0.2,1.9-0.1
						c0.9,0.1,1.5,0.4,1.9,0.8c0.4,0.4,0.5,0.8,0.4,1.4c-0.1,0.4-0.2,0.7-0.6,1c-0.3,0.3-0.7,0.5-1.1,0.8c-0.4,0.3-0.9,0.5-1.4,0.8
						s-1,0.6-1.4,0.9c-0.4,0.3-0.8,0.7-1.2,1.2c-0.3,0.5-0.6,1-0.7,1.6c0,0.2-0.2,1.8-0.1,2c0.1,0.2,0.3,0.3,0.5,0.3l3.6,0.6
						c0.2,0,0.4,0,0.5-0.1s0.5-1.7,0.6-1.9c0.2-0.4,0.5-0.7,0.8-1.1c0.4-0.3,0.8-0.6,1.2-0.8c0.4-0.3,0.9-0.5,1.4-0.8
						s0.9-0.6,1.3-0.9c0.4-0.4,0.8-0.8,1.1-1.3s0.5-1.1,0.6-1.7C31,23,31,22.2,30.7,21.4z"/>
					<path class="st6" d="M22.8,36.7l-3.3-0.5c-0.2,0-0.4,0-0.5,0.1c-0.2,0.1-0.3,0.3-0.3,0.5l-0.4,2.7c0,0.2,0,0.4,0.1,0.5
						c0.1,0.2,0.3,0.3,0.5,0.3l3.3,0.5c0.2,0,0.4,0,0.5-0.1c0.2-0.1,0.3-0.3,0.3-0.5l0.4-2.7c0-0.2,0-0.4-0.1-0.5
						C23.1,36.8,23,36.7,22.8,36.7z"/>
				</g>
				<g>
					<path class="st7" d="M30.4,20.9c-0.3-0.8-0.7-1.5-1.3-2.1s-1.4-1.2-2.4-1.6c-0.9-0.4-1.9-0.7-3-0.9c-1.3-0.2-2.5-0.2-3.5,0.1
						c-1,0.2-1.9,0.6-2.8,1.1c-0.8,0.5-1.4,1.1-1.9,1.8s-0.8,1.3-0.9,2c0,0.2,0,0.4,0.1,0.5s0.2,0.2,0.4,0.2l3.6,0.6
						c0.4,0.1,0.6,0,0.8-0.3c0.2-0.2,0.4-0.5,0.6-0.8c0.2-0.3,0.5-0.5,0.9-0.7s1-0.2,1.9-0.1c0.9,0.1,1.5,0.4,1.9,0.8
						c0.4,0.4,0.5,0.8,0.4,1.4c-0.1,0.4-0.2,0.7-0.6,1c-0.3,0.3-0.7,0.5-1.1,0.8c-0.4,0.3-0.9,0.5-1.4,0.8s-1,0.6-1.4,0.9
						c-0.4,0.3-0.8,0.7-1.2,1.2c-0.3,0.5-0.6,1-0.7,1.6c0,0.2-0.2,1.8-0.1,2c0.1,0.2,0.3,0.3,0.5,0.3l3.6,0.6c0.2,0,0.4,0,0.5-0.1
						s0.5-1.7,0.6-1.9c0.2-0.4,0.5-0.7,0.8-1.1c0.4-0.3,0.8-0.6,1.2-0.8c0.4-0.3,0.9-0.5,1.4-0.8s0.9-0.6,1.3-0.9
						c0.4-0.4,0.8-0.8,1.1-1.3s0.5-1.1,0.6-1.7C30.8,22.6,30.7,21.8,30.4,20.9z"/>
					<path class="st8" d="M22.5,36.3l-3.3-0.5c-0.2,0-0.4,0-0.5,0.1c-0.2,0.1-0.3,0.3-0.3,0.5L18,39.1c0,0.2,0,0.4,0.1,0.5
						c0.1,0.2,0.3,0.3,0.5,0.3l3.3,0.5c0.2,0,0.4,0,0.5-0.1c0.2-0.1,0.3-0.3,0.3-0.5l0.4-2.7c0-0.2,0-0.4-0.1-0.5
						C22.9,36.5,22.7,36.4,22.5,36.3z"/>
				</g>
			</g>
		</g>
	</g>
</g>
</svg>
