<?xml version="1.0" encoding="utf-8"?>
<!-- Generator: Adobe Illustrator 16.0.0, SVG Export Plug-In . SVG Version: 6.00 Build 0)  -->
<!DOCTYPE svg PUBLIC "-//W3C//DTD SVG 1.1//EN" "http://www.w3.org/Graphics/SVG/1.1/DTD/svg11.dtd">
<svg version="1.1" id="Layer_1" xmlns="http://www.w3.org/2000/svg" xmlns:xlink="http://www.w3.org/1999/xlink" x="0px" y="0px"
	 width="170.773px" height="55.801px" viewBox="19.452 23.85 170.773 55.801" enable-background="new 19.452 23.85 170.773 55.801"
	 xml:space="preserve">
<g>
	<path fill="#1B363C" d="M52.827,51.45c4.15,0.251,7.837,1.263,11.063,3.037c3.225,1.775,4.837,5.089,4.837,9.938
		c0,4.851-1.713,8.325-5.137,10.425C60.164,76.95,56.301,78,52.002,78h-32.55v-5.025c3.25,0.051,5.262-0.375,6.038-1.274
		c0.774-0.9,1.163-2.925,1.163-6.075V40.5c0-3.1-0.388-5.111-1.163-6.037c-0.776-0.925-2.788-1.388-6.038-1.388v-5.101h27.45h1.95
		c0.6,0.051,1.2,0.075,1.8,0.075s1.225,0.026,1.875,0.075c1.2,0.051,2.412,0.176,3.637,0.375c1.225,0.2,2.387,0.551,3.488,1.05
		c2.049,0.9,3.7,2.325,4.95,4.275c1.25,1.95,1.875,4.05,1.875,6.3c0,3.9-1.413,6.75-4.237,8.55c-2.825,1.8-5.962,2.751-9.413,2.851
		V51.45z M48.664,48.075c2.225-0.75,3.338-3.175,3.338-7.275c0-2.8-0.626-4.8-1.875-6c-1.25-1.2-3.251-1.8-6-1.8
		c-0.351,0-0.688,0-1.013,0c-0.326,0-0.638,0-0.938,0c-0.351,0-0.688,0.013-1.013,0.037c-0.326,0.026-0.663,0.038-1.012,0.038v16.05
		C43.602,49.176,46.439,48.825,48.664,48.075z M40.152,67.725c0,2.051,0.525,3.463,1.575,4.238c1.05,0.775,2.575,1.162,4.575,1.162
		c2.899,0,4.924-0.874,6.075-2.625c1.149-1.75,1.725-3.925,1.725-6.525c0-3.6-0.888-6.137-2.662-7.612
		c-1.775-1.474-4.388-2.212-7.838-2.212h-3.45V67.725z"/>
	<path fill="#1B363C" d="M91.301,44.025v25.5c0,1.8,0.337,2.913,1.012,3.337c0.675,0.426,1.862,0.663,3.563,0.713l1.05-0.075V78
		H73.151v-4.5h0.9c0.1,0.051,0.199,0.075,0.3,0.075c0.1,0,0.199,0,0.3,0c0.1,0,0.225,0,0.375,0c0.15,0,0.274-0.024,0.375-0.075
		c0.85,0,1.637-0.15,2.362-0.45c0.724-0.3,1.087-0.975,1.087-2.024V54.9c0-2-0.513-3.162-1.538-3.488
		c-1.025-0.324-2.413-0.487-4.162-0.487V46.35c1.299,0.051,2.599,0.026,3.9-0.074c1.299-0.1,2.599-0.226,3.9-0.375
		c1.75-0.25,3.487-0.525,5.212-0.825s3.437-0.625,5.138-0.976V44.025z M79.526,35.775c-1.4-1.399-2.1-3.05-2.1-4.95
		c0-1.899,0.7-3.537,2.1-4.913c1.399-1.374,3.049-2.063,4.95-2.063c1.9,0,3.537,0.688,4.913,2.063
		c1.375,1.376,2.063,3.014,2.063,4.913c0,1.88-0.688,3.512-2.063,4.897c-1.376,1.385-3.013,2.077-4.913,2.077
		C82.575,37.851,80.925,37.176,79.526,35.775z"/>
	<path fill="#1B363C" d="M132.4,67.551l5.551,1.867c-1.751,3.386-4.125,5.938-7.125,7.655s-6.401,2.577-10.2,2.577
		c-5.601,0-10.275-1.563-14.025-4.688c-3.75-3.125-5.625-7.638-5.625-13.538c0-5.649,1.962-10.013,5.888-13.087
		c3.925-3.075,8.562-4.613,13.912-4.613c5.551,0,9.775,1.65,12.676,4.95c2.898,3.3,4.374,7.65,4.425,13.05h-23.025
		c0,0.25,0,0.474,0,0.673s0,0.398,0,0.597c0.05,2.74,0.55,5.242,1.5,7.507c0.949,2.267,3.15,3.398,6.601,3.398
		c2.148,0,4.023-0.609,5.625-1.829c1.6-1.22,2.874-2.701,3.824-4.445V67.551z M125.951,56.775c0-0.05,0.024-0.1,0.074-0.15
		c0-0.1,0-0.175,0-0.225s0-0.1,0-0.15c0-0.1,0-0.199,0-0.3c0-0.1,0-0.199,0-0.3c-0.05-1.699-0.438-3.263-1.162-4.688
		c-0.726-1.426-2.113-2.138-4.162-2.138c-2.201,0-3.638,0.718-4.313,2.155c-0.676,1.437-1.113,2.997-1.313,4.682
		c-0.051,0.248-0.088,0.471-0.113,0.669s-0.037,0.396-0.037,0.594h11.025C125.951,56.876,125.951,56.825,125.951,56.775z"/>
	<path fill="#1B363C" d="M160.676,49.2c1.898-1.65,3.85-2.975,5.85-3.976c1.999-0.999,4.299-1.5,6.9-1.5c3.85,0,6.736,1.001,8.662,3
		c1.924,2.001,2.887,4.875,2.887,8.625V67.95c0,2.15,0.188,3.626,0.563,4.425c0.375,0.801,1.638,1.2,3.788,1.2l0.899-0.075V78
		H167.95v-4.5c1.899,0.051,3.124-0.263,3.675-0.938c0.55-0.675,0.825-1.862,0.825-3.563v-1.05v-10.8c0-1.6-0.3-2.987-0.899-4.163
		c-0.601-1.174-1.852-1.763-3.75-1.763c-2.602,0-4.477,0.776-5.625,2.325c-1.151,1.551-1.726,3.575-1.726,6.075v8.325
		c0,1.95,0.226,3.375,0.675,4.274c0.45,0.9,1.75,1.351,3.9,1.351V78H142.75v-4.5c2.35,0.051,3.813-0.3,4.388-1.05
		c0.574-0.75,0.862-2.225,0.862-4.425v-15c0-1.2-0.426-2-1.275-2.4c-0.85-0.399-1.799-0.649-2.85-0.75c-0.25,0-0.487,0-0.713,0
		c-0.225,0-0.463,0-0.712,0v-4.65c0.1,0.051,0.188,0.075,0.263,0.075c0.074,0,0.137,0,0.188,0c0.1,0.051,0.188,0.075,0.262,0.075
		c0.076,0,0.138,0,0.188,0c0.949,0,1.887-0.012,2.813-0.037s1.838-0.063,2.738-0.113c1.85-0.1,3.713-0.236,5.588-0.412
		C156.363,44.638,158.2,44.4,160,44.1c0.199,0.852,0.35,1.714,0.45,2.588c0.1,0.875,0.175,1.738,0.226,2.588V49.2z"/>
</g>
</svg>
