<?xml version="1.0" encoding="utf-8"?>
<!-- Generator: Adobe Illustrator 19.0.0, SVG Export Plug-In . SVG Version: 6.00 Build 0)  -->
<svg version="1.1" id="Layer_1" xmlns="http://www.w3.org/2000/svg" xmlns:xlink="http://www.w3.org/1999/xlink" x="0px" y="0px"
	 viewBox="-51.8 133.5 191.8 34.8" style="enable-background:new -51.8 133.5 191.8 34.8;" xml:space="preserve">
<style type="text/css">
	.st0{fill:#29609C;}
</style>
<g>
	<path class="st0" d="M-42.8,160.7v-24h-9v-3.2h21.6v3.2h-9v24H-42.8z"/>
	<path class="st0" d="M-17.7,154.4l3.5,0.4c-0.5,2-1.6,3.6-3,4.7c-1.5,1.1-3.4,1.7-5.6,1.7c-2.9,0-5.2-0.9-6.9-2.7s-2.5-4.3-2.5-7.5
		c0-3.3,0.9-5.9,2.6-7.7c1.7-1.8,3.9-2.7,6.6-2.7c2.6,0,4.8,0.9,6.5,2.7c1.7,1.8,2.5,4.3,2.5,7.6c0,0.2,0,0.5,0,0.9h-14.7
		c0.1,2.2,0.7,3.8,1.8,5c1.1,1.2,2.5,1.7,4.1,1.7c1.2,0,2.3-0.3,3.1-1C-18.9,156.8-18.2,155.8-17.7,154.4z M-28.7,149h11
		c-0.1-1.7-0.6-2.9-1.3-3.7c-1.1-1.3-2.4-1.9-4.1-1.9c-1.5,0-2.8,0.5-3.9,1.5C-28,145.9-28.5,147.2-28.7,149z"/>
	<path class="st0" d="M-10,160.7V141h3v2.8c0.6-1,1.4-1.7,2.5-2.3c1-0.6,2.2-0.9,3.5-0.9c1.5,0,2.7,0.3,3.6,0.9
		c0.9,0.6,1.6,1.5,2,2.5c1.6-2.3,3.6-3.5,6.1-3.5c2,0,3.5,0.5,4.5,1.6c1.1,1.1,1.6,2.7,1.6,5v13.5h-3.3v-12.4c0-1.3-0.1-2.3-0.3-2.9
		c-0.2-0.6-0.6-1.1-1.2-1.4c-0.6-0.4-1.2-0.5-2-0.5c-1.4,0-2.5,0.5-3.5,1.4c-0.9,0.9-1.4,2.4-1.4,4.4v11.4H1.7v-12.8
		c0-1.5-0.3-2.6-0.8-3.3c-0.5-0.7-1.4-1.1-2.7-1.1c-0.9,0-1.8,0.2-2.6,0.7c-0.8,0.5-1.4,1.2-1.7,2.2c-0.4,1-0.5,2.3-0.5,4.1v10.2
		H-10z"/>
	<path class="st0" d="M21.6,168.3V141h3v2.6c0.7-1,1.5-1.8,2.4-2.3c0.9-0.5,2-0.8,3.3-0.8c1.7,0,3.2,0.4,4.5,1.3
		c1.3,0.9,2.3,2.1,2.9,3.7c0.7,1.6,1,3.3,1,5.2c0,2-0.4,3.8-1.1,5.4c-0.7,1.6-1.8,2.9-3.2,3.7c-1.4,0.9-2.8,1.3-4.4,1.3
		c-1.1,0-2.1-0.2-3-0.7c-0.9-0.5-1.6-1.1-2.2-1.8v9.6H21.6z M24.6,151c0,2.5,0.5,4.4,1.5,5.6c1,1.2,2.3,1.8,3.7,1.8
		c1.5,0,2.8-0.6,3.8-1.9s1.6-3.2,1.6-5.8c0-2.5-0.5-4.4-1.5-5.6c-1-1.2-2.3-1.9-3.7-1.9c-1.4,0-2.7,0.7-3.8,2
		C25.2,146.5,24.6,148.4,24.6,151z"/>
	<path class="st0" d="M41.4,154.8l3.3-0.5c0.2,1.3,0.7,2.3,1.5,3c0.8,0.7,2,1.1,3.6,1.1c1.5,0,2.7-0.3,3.4-0.9
		c0.7-0.6,1.1-1.4,1.1-2.2c0-0.8-0.3-1.3-1-1.8c-0.5-0.3-1.6-0.7-3.4-1.1c-2.4-0.6-4.1-1.2-5.1-1.6c-0.9-0.5-1.7-1.1-2.2-1.9
		c-0.5-0.8-0.7-1.7-0.7-2.6c0-0.9,0.2-1.7,0.6-2.4c0.4-0.7,0.9-1.4,1.6-1.9c0.5-0.4,1.2-0.7,2.1-1c0.9-0.3,1.9-0.4,2.9-0.4
		c1.5,0,2.9,0.2,4.1,0.7s2,1,2.6,1.8s0.9,1.8,1.2,3.1l-3.3,0.4c-0.1-1-0.6-1.8-1.3-2.4c-0.7-0.6-1.7-0.9-3-0.9
		c-1.5,0-2.6,0.3-3.3,0.8c-0.7,0.5-1,1.1-1,1.8c0,0.4,0.1,0.8,0.4,1.2c0.3,0.4,0.7,0.7,1.3,0.9c0.3,0.1,1.3,0.4,3,0.9
		c2.4,0.6,4,1.1,4.9,1.5c0.9,0.4,1.7,1,2.2,1.8c0.5,0.8,0.8,1.7,0.8,2.9c0,1.1-0.3,2.2-1,3.1c-0.6,1-1.6,1.7-2.8,2.3
		c-1.2,0.5-2.6,0.8-4.2,0.8c-2.6,0-4.5-0.5-5.9-1.6C42.6,158.5,41.8,156.9,41.4,154.8z"/>
	<path class="st0" d="M72.2,160.7v-27.2h3.3v27.2H72.2z"/>
	<path class="st0" d="M80.8,137.3v-3.8h3.3v3.8H80.8z M80.8,160.7V141h3.3v19.7H80.8z"/>
	<path class="st0" d="M92.3,160.7h-3.1v-27.2h3.3v9.7c1.4-1.8,3.2-2.7,5.4-2.7c1.2,0,2.4,0.2,3.4,0.7c1.1,0.5,2,1.2,2.7,2.1
		c0.7,0.9,1.2,2,1.6,3.2c0.4,1.2,0.6,2.6,0.6,4c0,3.4-0.8,6-2.5,7.8s-3.7,2.8-6,2.8c-2.3,0-4.2-1-5.5-2.9V160.7z M92.2,150.7
		c0,2.4,0.3,4.1,1,5.1c1.1,1.7,2.5,2.6,4.3,2.6c1.5,0,2.7-0.6,3.8-1.9c1.1-1.3,1.6-3.2,1.6-5.7c0-2.6-0.5-4.5-1.5-5.7
		s-2.3-1.8-3.7-1.8c-1.5,0-2.7,0.6-3.8,1.9C92.8,146.5,92.2,148.3,92.2,150.7z"/>
	<path class="st0" d="M110.3,160.7V141h3v3c0.8-1.4,1.5-2.3,2.1-2.8s1.4-0.7,2.1-0.7c1.1,0,2.3,0.4,3.4,1.1l-1.2,3.1
		c-0.8-0.5-1.6-0.7-2.4-0.7c-0.7,0-1.4,0.2-2,0.7c-0.6,0.4-1,1-1.2,1.8c-0.4,1.2-0.6,2.5-0.6,3.9v10.3H110.3z"/>
	<path class="st0" d="M136.5,154.4l3.5,0.4c-0.5,2-1.6,3.6-3,4.7s-3.4,1.7-5.6,1.7c-2.9,0-5.2-0.9-6.9-2.7s-2.5-4.3-2.5-7.5
		c0-3.3,0.9-5.9,2.6-7.7c1.7-1.8,3.9-2.7,6.6-2.7c2.6,0,4.8,0.9,6.5,2.7c1.7,1.8,2.5,4.3,2.5,7.6c0,0.2,0,0.5,0,0.9h-14.7
		c0.1,2.2,0.7,3.8,1.8,5s2.5,1.7,4.1,1.7c1.2,0,2.3-0.3,3.1-1C135.3,156.8,136,155.8,136.5,154.4z M125.5,149h11
		c-0.1-1.7-0.6-2.9-1.3-3.7c-1.1-1.3-2.4-1.9-4.1-1.9c-1.5,0-2.8,0.5-3.9,1.5C126.2,145.9,125.6,147.2,125.5,149z"/>
</g>
</svg>
