<?xml version="1.0" encoding="utf-8"?>
<!-- Generator: Adobe Illustrator 16.0.0, SVG Export Plug-In . SVG Version: 6.00 Build 0)  -->
<!DOCTYPE svg PUBLIC "-//W3C//DTD SVG 1.1//EN" "http://www.w3.org/Graphics/SVG/1.1/DTD/svg11.dtd">
<svg version="1.1" id="Layer_1" xmlns="http://www.w3.org/2000/svg" xmlns:xlink="http://www.w3.org/1999/xlink" x="0px" y="0px"
	 width="178.345px" height="36.816px" viewBox="15.672 30.679 178.345 36.816"
	 enable-background="new 15.672 30.679 178.345 36.816" xml:space="preserve">
<g>
	<path fill="#606060" d="M25.73,61.099c0,1.352,0.118,2.291,0.354,2.819c0.236,0.529,0.655,0.94,1.257,1.233
		c0.244,0.114,0.517,0.208,0.818,0.28c0.301,0.074,0.655,0.127,1.062,0.159c0.032,0,0.081,0.009,0.146,0.024
		c0.797,0.098,1.204,0.31,1.221,0.635c-0.017,0.18-0.098,0.313-0.244,0.402c-0.146,0.09-0.366,0.135-0.659,0.135
		c-0.082,0-0.277-0.009-0.586-0.024c-1.953-0.146-3.947-0.22-5.981-0.22c-2.019,0-4.004,0.073-5.957,0.22
		c-0.31,0.016-0.505,0.024-0.586,0.024c-0.293,0-0.513-0.045-0.659-0.135c-0.146-0.089-0.228-0.223-0.244-0.402
		c0.016-0.325,0.423-0.537,1.221-0.635c0.065-0.016,0.114-0.024,0.146-0.024c0.407-0.032,0.761-0.085,1.062-0.159
		c0.301-0.072,0.582-0.174,0.842-0.305c0.586-0.276,0.997-0.68,1.233-1.209c0.236-0.528,0.354-1.468,0.354-2.819v-22.51
		c0-1.285-0.118-2.197-0.354-2.734c-0.236-0.537-0.655-0.943-1.257-1.221c-0.244-0.098-0.521-0.179-0.83-0.244
		c-0.31-0.064-0.659-0.113-1.05-0.146c-0.033,0-0.082-0.008-0.146-0.024c-0.798-0.098-1.205-0.276-1.221-0.537
		c0-0.146,0.081-0.265,0.244-0.354c0.163-0.09,0.382-0.135,0.659-0.135h0.415c0.342,0.033,0.834,0.058,1.477,0.073
		c0.643,0.017,1.363,0.024,2.161,0.024c1.253,0,2.942-0.04,5.066-0.122c2.124-0.081,3.617-0.122,4.48-0.122
		c4.28,0,7.417,0.688,9.412,2.063c1.994,1.376,2.991,3.537,2.991,6.482c0,2.49-0.786,4.48-2.356,5.969
		c-1.571,1.49-3.886,2.43-6.946,2.82l10.864,12.72c0.439,0.521,0.944,0.977,1.514,1.367c0.569,0.391,1.326,0.766,2.271,1.123
		c0.016,0,0.041,0.009,0.073,0.024c0.749,0.326,1.123,0.603,1.123,0.83c0,0.114-0.078,0.216-0.232,0.305
		c-0.155,0.09-0.338,0.135-0.549,0.135c-0.082,0-0.151-0.004-0.208-0.012c-0.057-0.009-0.11-0.021-0.159-0.037
		c-0.049,0-0.163-0.009-0.342-0.024c-1.172-0.114-2.254-0.171-3.247-0.171c-0.146,0-0.305,0.009-0.476,0.024
		c-0.171,0.017-0.411,0.04-0.72,0.073h-1.147c-0.651,0-1.115-0.057-1.392-0.171c-0.277-0.113-0.529-0.325-0.757-0.635l-10.815-13.55
		c-0.342-0.423-0.688-0.721-1.038-0.891c-0.35-0.172-0.818-0.257-1.404-0.257c-0.358,0-0.598,0.073-0.72,0.22
		s-0.183,0.424-0.183,0.83V61.099z M25.73,48.696c0,0.586,0.081,0.964,0.244,1.136c0.163,0.17,0.496,0.256,1.001,0.256
		c3.581,0,6.136-0.598,7.666-1.795c1.53-1.195,2.295-3.177,2.295-5.944c0-2.832-0.712-4.923-2.136-6.274
		c-1.424-1.351-3.634-2.026-6.628-2.026c-0.944,0-1.587,0.134-1.929,0.403c-0.342,0.268-0.513,0.785-0.513,1.55V48.696z"/>
	<path fill="#606060" d="M55.931,52.993c-0.065,0.391-0.114,0.798-0.146,1.221c-0.033,0.424-0.049,0.847-0.049,1.27
		c0,2.946,0.749,5.351,2.246,7.214c1.497,1.864,3.426,2.796,5.786,2.796c1.09,0,2.042-0.162,2.856-0.488
		c0.813-0.325,1.627-0.862,2.441-1.611c0.13-0.113,0.293-0.284,0.488-0.513c0.358-0.391,0.667-0.586,0.928-0.586
		c0.146,0,0.264,0.049,0.354,0.146c0.089,0.098,0.134,0.229,0.134,0.391c0,1.01-0.867,2.022-2.6,3.039
		c-1.733,1.018-3.764,1.526-6.091,1.526c-3.353,0-6.116-1.058-8.289-3.174c-2.173-2.115-3.259-4.761-3.259-7.935
		c0-1.563,0.285-3.08,0.854-4.553c0.569-1.474,1.383-2.787,2.441-3.943c1.155-1.253,2.429-2.186,3.821-2.795
		c1.392-0.611,2.95-0.916,4.675-0.916c2.588,0,4.793,0.777,6.616,2.332c1.823,1.554,2.734,3.381,2.734,5.48
		c0,0.439-0.069,0.732-0.208,0.879c-0.139,0.146-0.5,0.22-1.086,0.22H55.931z M56.224,51.528h10.205
		c0.325,0,0.557-0.085,0.696-0.257c0.138-0.17,0.208-0.467,0.208-0.891c0-1.595-0.448-2.869-1.343-3.82
		c-0.896-0.953-2.083-1.429-3.564-1.429c-1.66,0-3.036,0.565-4.126,1.696C57.208,47.96,56.517,49.526,56.224,51.528z M58.128,41.396
		l7.031-7.3c0.586-0.586,1.045-0.977,1.379-1.172c0.333-0.195,0.663-0.293,0.989-0.293c0.537,0,0.968,0.163,1.294,0.488
		c0.325,0.326,0.488,0.749,0.488,1.27c0,0.342-0.122,0.68-0.366,1.013c-0.244,0.334-0.619,0.664-1.123,0.989l-8.057,5.005H58.128z"
		/>
	<path fill="#606060" d="M76.219,60.293c0-0.146,0.041-0.276,0.122-0.391c0.081-0.113,0.179-0.171,0.293-0.171
		c0.211,0,0.407,0.306,0.586,0.915c0.179,0.611,0.366,1.111,0.562,1.502c0.684,1.4,1.481,2.434,2.393,3.101
		c0.911,0.668,1.978,1.001,3.198,1.001s2.25-0.366,3.088-1.099c0.838-0.732,1.257-1.619,1.257-2.661
		c0-1.595-1.579-3.247-4.736-4.956c-0.146-0.081-0.261-0.146-0.342-0.195c-2.279-1.188-3.874-2.323-4.785-3.405
		c-0.912-1.083-1.367-2.332-1.367-3.748c0-1.807,0.586-3.275,1.758-4.406c1.172-1.132,2.702-1.697,4.59-1.697
		c0.765,0,1.587,0.135,2.466,0.402c0.879,0.27,1.392,0.403,1.538,0.403c0.423,0,0.83-0.118,1.221-0.354
		c0.391-0.235,0.61-0.354,0.659-0.354c0.114,0,0.211,0.058,0.293,0.171c0.081,0.114,0.122,0.244,0.122,0.391v5.103
		c0,0.163-0.037,0.293-0.11,0.391s-0.175,0.146-0.305,0.146c-0.244,0-0.505-0.325-0.781-0.977c-0.146-0.374-0.285-0.684-0.415-0.928
		c-0.586-1.123-1.253-1.953-2.002-2.49c-0.749-0.537-1.611-0.806-2.588-0.806c-1.025,0-1.855,0.257-2.49,0.769
		c-0.635,0.514-0.952,1.177-0.952,1.99c0,0.781,0.228,1.453,0.684,2.014c0.456,0.563,1.611,1.372,3.467,2.43
		c0.342,0.212,1.074,0.614,2.197,1.209c1.123,0.594,1.969,1.095,2.539,1.501c0.813,0.586,1.424,1.331,1.831,2.233
		c0.407,0.904,0.61,1.958,0.61,3.162c0,2.165-0.664,3.866-1.99,5.103c-1.327,1.236-3.162,1.855-5.505,1.855
		c-1.286,0-2.678-0.351-4.175-1.05c-0.439-0.211-0.716-0.317-0.83-0.317c-0.212,0-0.5,0.15-0.867,0.452
		c-0.366,0.301-0.639,0.451-0.818,0.451c-0.13,0-0.232-0.045-0.305-0.135c-0.073-0.089-0.11-0.19-0.11-0.305V60.293z"/>
	<path fill="#606060" d="M113.328,48.989c0-1.041-0.086-1.725-0.256-2.051c-0.172-0.325-0.484-0.594-0.94-0.806
		c-0.228-0.081-0.452-0.15-0.671-0.207c-0.221-0.058-0.452-0.102-0.696-0.135c-0.439-0.081-0.725-0.175-0.854-0.281
		c-0.131-0.105-0.195-0.264-0.195-0.476c0-0.13,0.086-0.235,0.256-0.317c0.172-0.081,0.42-0.122,0.745-0.122
		c0.146,0,0.586,0.033,1.318,0.098c0.732,0.065,1.392,0.098,1.978,0.098c0.276,0,0.716-0.024,1.318-0.073
		c0.602-0.049,1.066-0.073,1.392-0.073c0.374,0,0.635,0.102,0.781,0.306c0.146,0.203,0.22,0.582,0.22,1.135V61.05
		c0,1.172,0.09,1.998,0.269,2.478c0.179,0.48,0.488,0.835,0.928,1.063c0.261,0.131,0.691,0.229,1.294,0.293h0.049
		c0.032,0.017,0.073,0.024,0.122,0.024c0.586,0.114,0.879,0.277,0.879,0.488c0,0.261-0.407,0.464-1.221,0.61
		c-0.276,0.049-0.505,0.09-0.684,0.122c-0.944,0.212-1.925,0.492-2.942,0.843c-1.018,0.35-1.599,0.524-1.745,0.524
		c-0.505,0-0.854-1.407-1.05-4.224c-0.017-0.293-0.033-0.521-0.049-0.684c-0.961,1.596-2.12,2.779-3.479,3.553
		c-1.359,0.772-2.951,1.159-4.773,1.159c-2.572,0-4.448-0.606-5.627-1.819c-1.18-1.212-1.77-3.145-1.77-5.798V48.989
		c0-1.041-0.085-1.725-0.256-2.051c-0.171-0.325-0.484-0.594-0.94-0.806c-0.228-0.081-0.452-0.15-0.671-0.207
		c-0.22-0.058-0.444-0.102-0.671-0.135c-0.456-0.081-0.749-0.175-0.879-0.281c-0.13-0.105-0.195-0.264-0.195-0.476
		c0-0.146,0.081-0.257,0.244-0.329c0.163-0.074,0.398-0.11,0.708-0.11c0.211,0,0.691,0.033,1.44,0.098
		c0.749,0.065,1.392,0.098,1.929,0.098c0.26,0,0.691-0.024,1.294-0.073c0.602-0.049,1.066-0.073,1.392-0.073
		c0.374,0,0.635,0.102,0.781,0.306c0.146,0.203,0.22,0.582,0.22,1.135v14.307c0,1.774,0.391,3.109,1.172,4.004
		c0.781,0.896,1.961,1.343,3.54,1.343c1.758,0,3.247-0.696,4.468-2.087c1.221-1.393,1.831-3.113,1.831-5.164V48.989z"/>
	<path fill="#606060" d="M132.371,62.393c0,1.025,0.081,1.705,0.244,2.039c0.162,0.333,0.48,0.606,0.952,0.817
		c0.195,0.098,0.411,0.18,0.647,0.244c0.235,0.065,0.483,0.114,0.744,0.146c0.423,0.065,0.695,0.15,0.818,0.257
		c0.121,0.105,0.183,0.256,0.183,0.451c0,0.131-0.065,0.236-0.195,0.317s-0.31,0.122-0.537,0.122c-0.032,0-0.61-0.049-1.733-0.146
		s-2.23-0.146-3.32-0.146c-1.107,0-2.222,0.049-3.345,0.146s-1.692,0.146-1.709,0.146c-0.228,0-0.411-0.041-0.55-0.122
		s-0.207-0.187-0.207-0.317c0-0.162,0.057-0.293,0.171-0.391s0.391-0.203,0.83-0.317c0.276-0.032,0.528-0.081,0.757-0.146
		c0.228-0.064,0.439-0.146,0.635-0.244c0.472-0.211,0.793-0.484,0.965-0.817c0.17-0.334,0.256-1.014,0.256-2.039V36.099
		c0-0.911-0.09-1.538-0.269-1.88s-0.497-0.602-0.952-0.781c-0.212-0.081-0.603-0.187-1.172-0.317
		c-0.082-0.016-0.131-0.024-0.146-0.024c-0.439-0.081-0.725-0.154-0.854-0.22c-0.13-0.064-0.204-0.162-0.22-0.293
		c0-0.342,0.569-0.594,1.709-0.757c0.098-0.016,0.179-0.032,0.244-0.049c1.725-0.228,3.385-0.545,4.98-0.952
		c0.325-0.081,0.513-0.13,0.562-0.146c0.179,0,0.31,0.065,0.391,0.195c0.081,0.131,0.122,0.334,0.122,0.61V62.393z"/>
	<path fill="#606060" d="M141.111,46.182h-1.538c-0.325,0-0.565-0.037-0.72-0.109c-0.155-0.074-0.232-0.184-0.232-0.33
		s0.402-0.517,1.209-1.111c0.805-0.594,1.518-1.224,2.136-1.892c0.684-0.732,1.298-1.542,1.843-2.429
		c0.545-0.888,0.899-1.331,1.063-1.331c0.162,0,0.276,0.053,0.342,0.159c0.064,0.105,0.098,0.289,0.098,0.549v5.005h4.59
		c0.635,0,1.037,0.053,1.209,0.159c0.17,0.105,0.256,0.305,0.256,0.598c0,0.261-0.114,0.448-0.342,0.562
		c-0.229,0.114-0.619,0.171-1.172,0.171h-4.492v15.063c0,1.579,0.256,2.722,0.77,3.431c0.512,0.707,1.322,1.062,2.429,1.062
		c0.911,0,1.729-0.398,2.454-1.196c0.724-0.797,1.159-1.196,1.306-1.196c0.163,0,0.301,0.069,0.415,0.208
		c0.113,0.138,0.171,0.297,0.171,0.476c0,0.766-0.595,1.493-1.782,2.185c-1.188,0.692-2.588,1.038-4.199,1.038
		c-2.116,0-3.613-0.468-4.492-1.403c-0.879-0.937-1.318-2.552-1.318-4.847V46.182z"/>
	<path fill="#606060" d="M168.772,63.882c-1.188,1.123-2.519,1.981-3.991,2.575c-1.474,0.595-2.991,0.892-4.554,0.892
		c-1.579,0-2.824-0.411-3.735-1.233c-0.912-0.821-1.367-1.932-1.367-3.332c0-1.79,0.898-3.36,2.697-4.712
		c1.799-1.351,5.498-3.043,11.097-5.078v-3.955c0-1.334-0.391-2.319-1.172-2.954s-1.994-0.952-3.638-0.952
		c-1.237,0-2.238,0.212-3.003,0.635c-0.765,0.424-1.196,1.018-1.294,1.782c-0.18,1.107-0.42,1.815-0.721,2.124
		c-0.301,0.31-0.777,0.464-1.428,0.464c-0.521,0-0.944-0.171-1.27-0.513c-0.326-0.342-0.488-0.789-0.488-1.343
		c0-1.204,0.793-2.197,2.381-2.979c1.586-0.781,3.682-1.172,6.286-1.172c2.946,0,5.114,0.468,6.507,1.404
		c1.391,0.936,2.087,2.389,2.087,4.357v12.695c0,0.863,0.142,1.53,0.427,2.002c0.285,0.473,0.696,0.708,1.233,0.708
		c0.342,0,0.736-0.159,1.185-0.476c0.447-0.318,0.736-0.477,0.866-0.477c0.146,0,0.257,0.037,0.329,0.109
		c0.074,0.074,0.11,0.184,0.11,0.33c0,0.537-0.436,1.107-1.306,1.709c-0.871,0.602-1.819,0.903-2.845,0.903
		c-1.123,0-2.079-0.317-2.868-0.952C169.509,65.811,169,64.956,168.772,63.882z M168.919,54.092
		c-3.304,1.27-5.656,2.494-7.056,3.674c-1.4,1.181-2.1,2.503-2.1,3.968c0,1.14,0.301,2.043,0.903,2.71
		c0.603,0.668,1.416,1.001,2.441,1.001c1.384,0,2.698-0.455,3.942-1.367c1.246-0.911,1.868-1.904,1.868-2.979V54.092z"/>
	<path fill="#606060" d="M182.225,46.182h-1.538c-0.325,0-0.565-0.037-0.72-0.109c-0.155-0.074-0.232-0.184-0.232-0.33
		s0.402-0.517,1.209-1.111c0.805-0.594,1.518-1.224,2.136-1.892c0.684-0.732,1.298-1.542,1.843-2.429
		c0.545-0.888,0.899-1.331,1.063-1.331c0.162,0,0.276,0.053,0.342,0.159c0.064,0.105,0.098,0.289,0.098,0.549v5.005h4.59
		c0.635,0,1.037,0.053,1.209,0.159c0.17,0.105,0.256,0.305,0.256,0.598c0,0.261-0.114,0.448-0.342,0.562
		c-0.229,0.114-0.619,0.171-1.172,0.171h-4.492v15.063c0,1.579,0.256,2.722,0.77,3.431c0.512,0.707,1.322,1.062,2.429,1.062
		c0.911,0,1.729-0.398,2.454-1.196c0.724-0.797,1.159-1.196,1.306-1.196c0.163,0,0.301,0.069,0.415,0.208
		c0.113,0.138,0.171,0.297,0.171,0.476c0,0.766-0.595,1.493-1.782,2.185c-1.188,0.692-2.588,1.038-4.199,1.038
		c-2.116,0-3.613-0.468-4.492-1.403c-0.879-0.937-1.318-2.552-1.318-4.847V46.182z"/>
</g>
</svg>
