<?xml version="1.0" encoding="utf-8"?>
<!-- Generator: Adobe Illustrator 21.0.0, SVG Export Plug-In . SVG Version: 6.00 Build 0)  -->
<svg version="1.1" id="Layer_1" xmlns="http://www.w3.org/2000/svg" xmlns:xlink="http://www.w3.org/1999/xlink" x="0px" y="0px"
	 viewBox="0 0 377.7 48.1" style="enable-background:new 0 0 377.7 48.1;" xml:space="preserve">
<style type="text/css">
	.st0{fill:#224F96;}
</style>
<g>
	<path class="st0" d="M6.6,29.6c0,1.2-1,2.1-2.3,2.1c-1.5,0-2.2-0.7-2.2-2.1c0-1.2,0.9-2.1,2.2-2.1C5.5,27.4,6.6,28.3,6.6,29.6z
		 M6.4,13.6L5.1,24.2H3.5L2.3,13.6V7.2h4.1V13.6z"/>
	<path class="st0" d="M52.2,31.7H48c-3.6,0-5.9-2.1-5.9-5.7v-7.8h-3.7c-3.3,0-5,2-5,6.1c0,3.1,1.2,4.7,3.7,4.8h3.3v2.5
		c0,2.2-0.7,4.1-2.2,5.7c-1.5,1.6-3.4,2.6-5.9,2.8h-6.2c-3.8,0-6.7-1.1-8.6-3.3c-1.8-2-2.6-4.8-2.6-8.5v-6.9h3.9v6.8
		c0,5.9,2.8,9.4,7.9,9.4h4.7c1.6-0.3,2.8-1,3.7-2.3c0.8-1,1.2-2.1,1.3-3.2c-2.1,0-3.7-0.6-5-1.9c-1.4-1.3-2.1-3.1-2.1-5.4
		c0-2.7,0.9-5,2.6-6.7c1.7-1.7,4-2.6,6.8-2.6h7.5l0,9.5c0,2.1,1,3.1,2.9,3.1h3.2V31.7z M27.7,45.9c0,1.3-1,2.3-2.4,2.3
		s-2.5-0.9-2.5-2.3s1.1-2.3,2.5-2.3C26.6,43.5,27.7,44.5,27.7,45.9z M34.1,45.9c0,1.3-1,2.3-2.4,2.3s-2.4-0.9-2.4-2.3s1-2.3,2.4-2.3
		C33,43.5,34.1,44.5,34.1,45.9z"/>
	<path class="st0" d="M66.7,31.7h-3c-1.6,0-2.9-0.4-3.9-1.1c-1.1,0.8-2.4,1.1-3.8,1.1h-4.7v-3.4h3.7c2,0,3-1,3-3v-3.7L57,16.6l4.7-1
		v9.6c0,2,1,3,2.9,3h2.1V31.7z M56.3,9.5c0,1.3-1,2.3-2.4,2.3c-1.3,0-2.4-1-2.4-2.3c0-1.3,1.1-2.3,2.4-2.3
		C55.3,7.2,56.3,8.2,56.3,9.5z M62.7,9.5c0,1.3-1,2.3-2.4,2.3c-1.3,0-2.4-1-2.4-2.3c0-1.3,1.1-2.3,2.4-2.3
		C61.6,7.2,62.7,8.2,62.7,9.5z"/>
	<path class="st0" d="M80.9,31.7h-2.7c-1.6,0-2.9-0.4-3.9-1.2c-1,0.8-2.3,1.2-3.8,1.2h-4.9v-3.4h3.8c1.9,0,2.9-1,2.9-3.1V13.3
		l-0.8-5.1l4.7-1v17.9c0,2.1,1,3.1,2.9,3.1h1.7V31.7z"/>
	<path class="st0" d="M91.8,26.1c0,3.4-2.3,5.5-5.9,5.5h-6.1v-3.4h5.1c2,0,2.9-1,2.9-3v-3.8l-0.7-4.9l4.6-1V26.1z M93,13.2H81.2
		v-2.4H83c0-3.2,1.8-5.4,5-5.4c1.3,0,2.6,0.4,3.8,1.3c-0.2,0.5-0.5,1.1-0.8,1.9c-0.7-0.6-1.4-0.9-2.2-0.9c-1.8,0.1-2.7,1.1-2.7,3.2
		h2.5l2.3-0.2L93,13.2z"/>
	<path class="st0" d="M105.9,31.7h-3.1c-3.6,0-5.9-2.1-5.9-5.7V13.1l-0.7-4.9l4.7-1v17.9c0,2.1,1,3.1,2.9,3.1h2.2V31.7z"/>
	<path class="st0" d="M126.4,31.7h-21.6v-3.4h7.1c-1-1.3-1.6-2.9-1.6-4.8c0-2.4,0.8-4.3,2.2-5.8c1.5-1.5,3.4-2.2,5.7-2.2
		c2.2,0,4.5,0.9,7,2.7l-1.5,1.7c-1.5-0.9-3-1.4-4.6-1.4c-3.2,0-4.9,1.8-4.9,5.3c0,1.4,0.4,2.6,1.4,3.4c0.8,0.7,1.8,1.1,3,1.1h2.1
		l5.2-0.5L126.4,31.7z"/>
	<path class="st0" d="M151.9,24.1v4.1l0.6,3.5h-15.8l1-3.4h10.1l0.1-0.8v-4c0-1.9-0.4-3.3-1.2-4.4c-0.7-1-1.6-1.4-2.8-1.4
		c-0.4,0-0.8,0.1-1.2,0.3c0-0.4-0.1-1.1-0.2-2.1c0.1,0,0.6,0,1.2-0.2c2.4,0,4.4,0.8,5.9,2.4C151.1,19.6,151.8,21.6,151.9,24.1z"/>
	<path class="st0" d="M161.9,7.1l-0.4,5.1v19.5h-3.9V12.2l-0.6-4.7L161.9,7.1z"/>
	<path class="st0" d="M177.6,31.7h-3.2c-0.7,0-1.4-0.1-2-0.3c-0.5,4.4-3.3,7.3-8.5,8.7l-0.9-1.5c3.7-1.1,5.5-3.5,5.5-7.3l0-9.5
		l-0.8-5.1l4.7-1v9.5c0,2.1,1,3.2,2.9,3.2h2.2V31.7z"/>
	<path class="st0" d="M193.9,20.3V22c0,6.8-2.8,9.6-8.9,9.6h-8.5v-3.4h8.8c2.7,0,4.1-0.8,4.4-2.3c-0.6,0.3-1.5,0.5-2.6,0.5
		c-4.5,0-6.7-2-6.7-6c0-2.2,0.8-3.8,2.5-4.9c1.2-0.8,2.6-1.2,4.2-1.2c2.2,0,3.9,0.6,5.2,1.7C193.4,17.1,193.9,18.5,193.9,20.3z
		 M190,20.3c0-2.5-1-3.7-2.8-3.7c-1.9,0-2.9,1.4-2.9,4.1c0,2.2,0.9,3.3,2.6,3.3c1.2,0,2.2-0.2,3.1-0.6C190,22.5,190,21.5,190,20.3z
		 M189.4,9.5c0,1.3-1.1,2.3-2.4,2.3c-1.4,0-2.5-1-2.5-2.3c0-1.3,1.1-2.3,2.5-2.3C188.3,7.2,189.4,8.2,189.4,9.5z"/>
	<path class="st0" d="M204.4,5.4h-8.2V4h1.4c0-2.1,1.2-3.6,3.2-3.6c0.8,0,1.6,0.3,2.4,0.8c-0.1,0.3-0.3,0.7-0.5,1.2
		c-0.6-0.5-1.1-0.8-1.4-0.7c-1.1,0-1.7,0.8-1.7,2.4h2l1.5-0.2L204.4,5.4z M203.3,7.1l-0.4,5.1v19.5h-3.9V12.2l-0.6-4.7L203.3,7.1z"
		/>
	<path class="st0" d="M250.9,31.7h-4.2c-3.6,0-5.9-2.1-5.9-5.7v-7.8h-3.7c-3.3,0-5,2-5,6.1c0,3.1,1.2,4.7,3.7,4.8h3.3v2.5
		c0,2.2-0.7,4.1-2.2,5.7c-1.5,1.6-3.4,2.6-5.9,2.8h-6.2c-3.8,0-6.7-1.1-8.6-3.3c-1.8-2-2.6-4.8-2.6-8.5v-6.9h3.9v6.8
		c0,5.9,2.8,9.4,7.9,9.4h4.7c1.6-0.3,2.8-1,3.7-2.3c0.8-1,1.2-2.1,1.3-3.2c-2.1,0-3.7-0.6-5-1.9c-1.4-1.3-2.1-3.1-2.1-5.4
		c0-2.7,0.9-5,2.6-6.7c1.7-1.7,4-2.6,6.8-2.6h7.5l0,9.5c0,2.1,1,3.1,2.9,3.1h3.2V31.7z"/>
	<path class="st0" d="M263.3,26c0,3.5-2.3,5.7-5.9,5.7H250v-3.4h6.5c2,0,2.9-1,2.9-3.1V13l-0.7-5l4.7-1.1V26z"/>
	<path class="st0" d="M273.8,38.9h-8.2v-1.4h1.4c0-2.1,1.2-3.6,3.2-3.6c0.8,0,1.6,0.3,2.4,0.8c-0.1,0.3-0.3,0.7-0.5,1.2
		c-0.6-0.5-1.1-0.7-1.4-0.7c-1.1,0-1.7,0.8-1.7,2.4h2l1.5-0.2L273.8,38.9z M272.8,7.1l-0.4,5.1v19.5h-3.9V12.2l-0.6-4.7L272.8,7.1z"
		/>
	<path class="st0" d="M314.3,20.3c0,0.8,0,1.4,0,1.8c0,6.8-2.8,9.6-8.9,9.6h-14.9c-2.3,0-4.1-0.8-5.5-2.2c-1.4-1.5-2-3.5-2-6
		c0-1.9,0.5-3.7,1.6-5.4h3.5c-1.2,1.7-1.9,3.2-1.9,4.6c0,3.7,1.6,5.5,4.7,5.5h14.8c2.7,0,4.1-0.8,4.3-2.3c-0.6,0.3-1.5,0.5-2.6,0.5
		c-4.5,0-6.7-2-6.7-6c0-2.2,0.8-3.8,2.4-4.9c1.2-0.8,2.6-1.2,4.3-1.2c2.2,0,3.9,0.6,5.2,1.7C313.8,17.1,314.3,18.5,314.3,20.3z
		 M310.4,20.3c0-2.5-1-3.7-2.8-3.7c-2,0-2.9,1.4-2.9,4.1c0,2.2,0.9,3.3,2.7,3.3c1.2,0,2.2-0.2,3-0.6
		C310.4,22.5,310.4,21.5,310.4,20.3z M310,9.5c0,1.3-1.1,2.3-2.5,2.3c-1.3,0-2.4-1-2.4-2.3c0-1.3,1.1-2.3,2.4-2.3
		C308.9,7.2,310,8.2,310,9.5z"/>
	<path class="st0" d="M330.1,31.7h-3.2c-0.7,0-1.4-0.1-2-0.3c-0.5,4.4-3.3,7.3-8.5,8.7l-0.9-1.5c3.7-1.1,5.5-3.5,5.5-7.3l0-9.5
		l-0.8-5.1l4.7-1v9.5c0,2.1,1,3.2,2.9,3.2h2.2V31.7z"/>
	<path class="st0" d="M356.9,31.7h-9.5c-1.2,0-2.6-0.3-4.1-1c-0.3,0.2-1.2,0.2-2.8,0.2c-1.2,0-1.7,0.3-1.8,0.8H329v-3.4h9.3
		c0.5,0,1,0,1.5-0.2c-0.9-0.8-3.1-2.7-6.6-5.9c0-1.8,1-3.4,3-4.9c2-1.4,4.5-2.2,7.3-2.2c2.8,0,5.2,0.7,7.3,2.2c2,1.4,2.9,3,2.9,4.8
		c-0.4,0.3-2.6,2.3-6.7,5.9c0.5,0.1,1.1,0.2,1.6,0.2h8.5V31.7z M349.3,21.5c-0.1-0.8-0.6-1.4-1.6-2c-1.2-0.7-2.6-1-4.3-1
		c-1.7,0-3.1,0.3-4.3,1c-1,0.6-1.5,1.3-1.6,2c1.3,1.2,3.3,3,5.9,5.4L349.3,21.5z"/>
	<path class="st0" d="M366.6,26.1c0,3.4-2.3,5.5-5.9,5.5h-6.1v-3.4h5.1c2,0,2.9-1,2.9-3v-3.8l-0.7-4.9l4.6-1V26.1z M360.7,9.5
		c0,1.3-1,2.3-2.4,2.3s-2.5-1-2.5-2.3c0-1.3,1.1-2.3,2.5-2.3C359.6,7.2,360.7,8.2,360.7,9.5z M367.1,9.5c0,1.3-1.1,2.3-2.4,2.3
		c-1.4,0-2.5-1-2.5-2.3c0-1.3,1.1-2.3,2.5-2.3C366,7.2,367.1,8.2,367.1,9.5z"/>
	<path class="st0" d="M377.1,5.4h-8.2V4h1.4c0-2.1,1.2-3.6,3.2-3.6c0.8,0,1.6,0.3,2.4,0.8c-0.1,0.3-0.3,0.7-0.5,1.2
		c-0.6-0.5-1.1-0.8-1.4-0.7c-1.1,0-1.7,0.8-1.7,2.4h2l1.5-0.2L377.1,5.4z M376,7.1l-0.4,5.1v19.5h-3.9V12.2l-0.6-4.7L376,7.1z"/>
</g>
</svg>
