<?xml version="1.0" encoding="utf-8"?>
<!-- Generator: Adobe Illustrator 19.0.0, SVG Export Plug-In . SVG Version: 6.00 Build 0)  -->
<svg version="1.1" id="Layer_1" xmlns="http://www.w3.org/2000/svg" xmlns:xlink="http://www.w3.org/1999/xlink" x="0px" y="0px"
	 viewBox="-27.9 133.8 162.2 37.2" style="enable-background:new -27.9 133.8 162.2 37.2;" xml:space="preserve">
<style type="text/css">
	.st0{fill:#29609C;}
</style>
<g>
	<path class="st0" d="M-27.9,162.6V134h10.7c2.2,0,3.9,0.3,5.3,0.9c1.3,0.6,2.4,1.5,3.1,2.7c0.7,1.2,1.1,2.5,1.1,3.8
		c0,1.2-0.3,2.4-1,3.5c-0.7,1.1-1.7,2-3,2.6c1.7,0.5,3.1,1.4,4,2.6c0.9,1.2,1.4,2.7,1.4,4.3c0,1.3-0.3,2.6-0.8,3.7s-1.3,2-2.1,2.7
		c-0.8,0.6-1.9,1.1-3.1,1.4c-1.3,0.3-2.8,0.5-4.6,0.5H-27.9z M-24.1,146h6.2c1.7,0,2.9-0.1,3.6-0.3c1-0.3,1.7-0.8,2.2-1.4
		s0.7-1.5,0.7-2.5c0-1-0.2-1.8-0.7-2.5c-0.5-0.7-1.1-1.2-2-1.5c-0.8-0.3-2.3-0.4-4.4-0.4h-5.7V146z M-24.1,159.2h7.1
		c1.2,0,2.1,0,2.6-0.1c0.9-0.2,1.6-0.4,2.2-0.8c0.6-0.4,1.1-0.9,1.4-1.6c0.4-0.7,0.6-1.5,0.6-2.4c0-1.1-0.3-2-0.8-2.8
		c-0.5-0.8-1.3-1.3-2.3-1.7c-1-0.3-2.4-0.5-4.2-0.5h-6.6V159.2z"/>
	<path class="st0" d="M-1.5,138v-4h3.5v4H-1.5z M-1.5,162.6v-20.7h3.5v20.7H-1.5z"/>
	<path class="st0" d="M21.6,155.9l3.6,0.4c-0.6,2.1-1.6,3.8-3.2,4.9c-1.5,1.2-3.5,1.8-5.9,1.8c-3,0-5.4-0.9-7.2-2.8
		c-1.8-1.9-2.7-4.5-2.7-7.9c0-3.5,0.9-6.2,2.7-8.1c1.8-1.9,4.1-2.9,7-2.9c2.8,0,5,0.9,6.8,2.8c1.8,1.9,2.6,4.5,2.6,8
		c0,0.2,0,0.5,0,0.9H9.9c0.1,2.3,0.8,4,1.9,5.2c1.2,1.2,2.6,1.8,4.3,1.8c1.3,0,2.4-0.3,3.3-1C20.3,158.5,21.1,157.4,21.6,155.9z
		 M10.1,150.2h11.6c-0.2-1.7-0.6-3.1-1.3-3.9c-1.1-1.4-2.6-2-4.4-2c-1.6,0-3,0.5-4.1,1.6C10.8,147,10.2,148.4,10.1,150.2z"/>
	<path class="st0" d="M29.7,162.6v-20.7h3.2v2.9c1.5-2.3,3.7-3.4,6.6-3.4c1.3,0,2.4,0.2,3.4,0.7c1,0.4,1.8,1,2.4,1.8
		c0.5,0.7,0.9,1.6,1.1,2.6c0.1,0.7,0.2,1.8,0.2,3.4v12.8H43V150c0-1.4-0.1-2.5-0.4-3.2c-0.3-0.7-0.8-1.3-1.5-1.7
		c-0.7-0.4-1.5-0.6-2.5-0.6c-1.5,0-2.8,0.5-3.9,1.4c-1.1,1-1.6,2.8-1.6,5.4v11.3H29.7z"/>
	<path class="st0" d="M58.5,170.6l0.7-3c0.7,0.2,1.3,0.3,1.7,0.3c0.7,0,1.3-0.2,1.6-0.7s0.5-1.7,0.5-3.6v-21.8h3.5v21.9
		c0,2.6-0.3,4.3-1,5.3c-0.8,1.3-2.3,2-4.2,2C60.3,171,59.4,170.9,58.5,170.6z M63,138V134h3.5v4.1H63z"/>
	<path class="st0" d="M70.6,152.2c0-3.8,1.1-6.7,3.2-8.5c1.8-1.5,4-2.3,6.5-2.3c2.9,0,5.2,0.9,7,2.8c1.8,1.9,2.7,4.5,2.7,7.7
		c0,2.7-0.4,4.8-1.2,6.3c-0.8,1.5-2,2.7-3.5,3.6c-1.5,0.8-3.2,1.3-5,1.3c-2.9,0-5.3-0.9-7-2.8C71.5,158.4,70.6,155.7,70.6,152.2z
		 M74.2,152.2c0,2.7,0.6,4.6,1.7,6c1.2,1.3,2.6,2,4.4,2c1.7,0,3.2-0.7,4.4-2c1.2-1.3,1.7-3.4,1.7-6.1c0-2.6-0.6-4.5-1.7-5.8
		c-1.2-1.3-2.6-2-4.3-2c-1.8,0-3.2,0.7-4.4,2C74.8,147.6,74.2,149.6,74.2,152.2z"/>
	<path class="st0" d="M107.7,162.6v-3c-1.6,2.3-3.8,3.5-6.6,3.5c-1.2,0-2.4-0.2-3.4-0.7c-1.1-0.5-1.8-1.1-2.4-1.8
		c-0.5-0.7-0.9-1.6-1.1-2.6c-0.1-0.7-0.2-1.8-0.2-3.3v-12.9h3.5v11.5c0,1.8,0.1,3.1,0.2,3.7c0.2,0.9,0.7,1.7,1.4,2.2
		c0.7,0.5,1.6,0.8,2.7,0.8s2-0.3,3-0.8c0.9-0.5,1.6-1.3,2-2.2c0.4-0.9,0.6-2.3,0.6-4.1v-11.1h3.5v20.7H107.7z"/>
	<path class="st0" d="M130.6,155.9l3.6,0.4c-0.6,2.1-1.6,3.8-3.2,4.9c-1.5,1.2-3.5,1.8-5.9,1.8c-3,0-5.4-0.9-7.2-2.8
		c-1.8-1.9-2.7-4.5-2.7-7.9c0-3.5,0.9-6.2,2.7-8.1c1.8-1.9,4.1-2.9,7-2.9c2.8,0,5,0.9,6.8,2.8c1.8,1.9,2.6,4.5,2.6,8
		c0,0.2,0,0.5,0,0.9h-15.5c0.1,2.3,0.8,4,1.9,5.2c1.2,1.2,2.6,1.8,4.3,1.8c1.3,0,2.4-0.3,3.3-1C129.3,158.5,130.1,157.4,130.6,155.9
		z M119,150.2h11.6c-0.2-1.7-0.6-3.1-1.3-3.9c-1.1-1.4-2.6-2-4.4-2c-1.6,0-3,0.5-4.1,1.6C119.8,147,119.2,148.4,119,150.2z
		 M122.8,139.3l2.6-5.5h4.6l-4.3,5.5H122.8z"/>
</g>
</svg>
