<?xml version="1.0" encoding="utf-8"?>
<!-- Generator: Adobe Illustrator 16.0.0, SVG Export Plug-In . SVG Version: 6.00 Build 0)  -->
<!DOCTYPE svg PUBLIC "-//W3C//DTD SVG 1.1//EN" "http://www.w3.org/Graphics/SVG/1.1/DTD/svg11.dtd">
<svg version="1.1" id="Layer_1" xmlns="http://www.w3.org/2000/svg" xmlns:xlink="http://www.w3.org/1999/xlink" x="0px" y="0px"
	 width="378.521px" height="70.726px" viewBox="8.751 22.649 378.521 70.726" enable-background="new 8.751 22.649 378.521 70.726"
	 xml:space="preserve">
<g>
	<path fill="#1B363C" d="M66.951,67.649v5.025H48.726c-1.901-2.299-3.613-4.774-5.138-7.425c-1.525-2.649-2.938-5.35-4.237-8.101
		c-0.2-0.399-0.388-0.799-0.563-1.199c-0.176-0.4-0.337-0.775-0.487-1.125c-0.6-1.25-1.313-2.262-2.138-3.038
		c-0.825-0.774-2.163-1.162-4.013-1.162c-0.45,0-0.9,0.013-1.35,0.037c-0.45,0.026-0.9,0.063-1.35,0.112v9.45
		c0,3.2,0.399,5.25,1.2,6.15c0.799,0.899,2.8,1.35,6,1.35v4.95h-27.9v-5.025c3.25,0.051,5.262-0.375,6.038-1.274
		c0.774-0.9,1.163-2.925,1.163-6.075V35.175c0-3.1-0.388-5.111-1.163-6.037C14.013,28.213,12,27.75,8.751,27.75v-5.101h30.9
		c0.55,0.051,1.112,0.088,1.688,0.113c0.574,0.025,1.163,0.088,1.763,0.188c3.349,0.4,6.424,1.525,9.225,3.375
		c2.799,1.85,4.2,4.75,4.2,8.699c0,3-0.787,5.513-2.362,7.538c-1.575,2.024-3.788,3.487-6.638,4.388
		c-0.65,0.2-1.313,0.363-1.987,0.487c-0.675,0.125-1.363,0.213-2.063,0.263c-0.351,0-0.712,0.013-1.087,0.037
		c-0.375,0.025-0.738,0.037-1.087,0.037c-0.101,0-0.201,0-0.3,0c-0.101,0-0.2,0-0.3,0c2.049,0.102,3.762,0.338,5.137,0.713
		c1.375,0.375,2.663,1.188,3.863,2.438c0.349,0.3,0.675,0.65,0.975,1.05c0.3,0.401,0.625,0.825,0.975,1.275l7.8,10.8
		c0.25,0.4,0.499,0.75,0.75,1.05c0.25,0.3,0.499,0.551,0.75,0.75c0.799,0.801,1.662,1.301,2.587,1.5
		c0.925,0.2,2.063,0.326,3.413,0.375V67.649z M34.851,45.6c2.7,0.051,4.65-0.874,5.85-2.774c1.2-1.9,1.8-4.075,1.8-6.525
		c0-2.8-0.675-4.924-2.025-6.375c-1.35-1.449-3.425-2.175-6.225-2.175h-4.8V45.6H34.851z"/>
	<path fill="#1B363C" d="M101.451,62.226l5.55,1.867c-1.751,3.386-4.125,5.938-7.125,7.655s-6.401,2.577-10.2,2.577
		c-5.601,0-10.275-1.563-14.025-4.688C71.901,66.513,70.026,62,70.026,56.1c0-5.649,1.962-10.013,5.888-13.087
		c3.925-3.075,8.562-4.613,13.913-4.613c5.55,0,9.774,1.65,12.675,4.95c2.899,3.3,4.374,7.65,4.425,13.05H83.901
		c0,0.25,0,0.474,0,0.673s0,0.398,0,0.597c0.049,2.74,0.55,5.242,1.5,7.507c0.949,2.267,3.15,3.398,6.6,3.398
		c2.149,0,4.024-0.609,5.625-1.829c1.6-1.22,2.875-2.701,3.825-4.445V62.226z M96.951,23.325c0.549,0.05,1.037,0.138,1.462,0.262
		c0.424,0.126,0.712,0.488,0.862,1.088c0,0.5-0.125,0.9-0.375,1.2c-0.25,0.3-0.575,0.575-0.975,0.825l-16.425,8.55
		c-0.101,0.101-0.213,0.176-0.337,0.225c-0.125,0.051-0.238,0.101-0.337,0.15c-0.15,0-0.289,0.013-0.413,0.037
		c-0.125,0.026-0.238,0.038-0.337,0.038c-0.551,0-1.05-0.162-1.5-0.488c-0.45-0.324-0.675-0.812-0.675-1.462
		c0-0.25,0.038-0.475,0.113-0.675c0.075-0.199,0.188-0.375,0.337-0.525c0.049-0.1,0.112-0.188,0.188-0.263s0.137-0.137,0.188-0.188
		l7.5-8.625L96.951,23.325z M95.001,51.45c0-0.05,0.025-0.1,0.075-0.15c0-0.1,0-0.175,0-0.225s0-0.1,0-0.15c0-0.1,0-0.199,0-0.3
		c0-0.1,0-0.199,0-0.3c-0.05-1.699-0.438-3.263-1.163-4.688c-0.726-1.426-2.113-2.138-4.163-2.138c-2.201,0-3.637,0.718-4.313,2.155
		c-0.675,1.437-1.113,2.997-1.313,4.682c-0.05,0.248-0.088,0.471-0.112,0.669c-0.026,0.198-0.038,0.396-0.038,0.594h11.025
		C95.001,51.551,95.001,51.5,95.001,51.45z"/>
	<path fill="#1B363C" d="M143.451,62.226L149,64.093c-1.75,3.386-4.125,5.938-7.125,7.655s-6.4,2.577-10.199,2.577
		c-5.601,0-10.275-1.563-14.025-4.688c-3.75-3.125-5.625-7.638-5.625-13.538c0-5.649,1.962-10.013,5.888-13.087
		c3.925-3.075,8.562-4.613,13.913-4.613c5.549,0,9.773,1.65,12.674,4.95s4.375,7.65,4.426,13.05H125.9c0,0.25,0,0.474,0,0.673
		s0,0.398,0,0.597c0.049,2.74,0.55,5.242,1.5,7.507c0.949,2.267,3.15,3.398,6.6,3.398c2.15,0,4.025-0.609,5.625-1.829
		s2.875-2.701,3.826-4.445V62.226z M137,51.45c0-0.05,0.025-0.1,0.076-0.15c0-0.1,0-0.175,0-0.225s0-0.1,0-0.15c0-0.1,0-0.199,0-0.3
		c0-0.1,0-0.199,0-0.3c-0.051-1.699-0.439-3.263-1.163-4.688c-0.726-1.426-2.112-2.138-4.163-2.138c-2.2,0-3.637,0.718-4.313,2.155
		c-0.674,1.437-1.113,2.997-1.313,4.682c-0.05,0.248-0.088,0.471-0.111,0.669c-0.026,0.198-0.038,0.396-0.038,0.594H137
		C137,51.551,137,51.5,137,51.45z"/>
	<path fill="#1B363C" d="M180.576,50.325h-4.5c-0.501-1.95-1.477-3.574-2.926-4.875c-1.451-1.3-3.25-1.95-5.4-1.95
		c-0.149,0-0.313,0.013-0.486,0.037c-0.176,0.026-0.338,0.063-0.488,0.112c-0.551,0.15-1.05,0.401-1.5,0.75
		c-0.449,0.351-0.675,0.825-0.675,1.426c0,0.7,0.274,1.287,0.825,1.762c0.549,0.477,1.149,0.889,1.8,1.238
		c0.3,0.149,0.587,0.288,0.862,0.412c0.274,0.125,0.537,0.263,0.787,0.412c0.25,0.15,0.5,0.301,0.75,0.45
		c0.25,0.15,0.5,0.275,0.75,0.375c0.25,0.2,0.525,0.375,0.826,0.525c0.299,0.149,0.6,0.325,0.899,0.524
		c2.399,1.351,4.612,2.926,6.638,4.726s3.037,4.274,3.037,7.425c0,3.2-1.138,5.737-3.412,7.612
		c-2.275,1.875-4.938,2.888-7.988,3.038c-2,0-3.949-0.263-5.85-0.788c-1.9-0.524-3.575-1.487-5.025-2.888l-1.274,2.025h-4.8V60.149
		h4.8c0.85,2.352,2.112,4.5,3.788,6.45c1.674,1.95,3.861,2.925,6.563,2.925c0.85,0,1.637-0.212,2.361-0.637s1.088-1.112,1.088-2.063
		c0-0.75-0.338-1.463-1.012-2.138c-0.676-0.675-1.538-1.337-2.588-1.987c-0.801-0.5-1.701-1-2.7-1.5c-1.001-0.5-2.001-1.024-3-1.575
		c-2.351-1.3-4.488-2.813-6.413-4.538c-1.925-1.725-2.887-3.887-2.887-6.487c0-3.1,1.211-5.574,3.637-7.425
		c2.426-1.85,5.088-2.775,7.988-2.775c1.75,0,3.487,0.214,5.213,0.638c1.725,0.426,3.361,1.013,4.912,1.763l0.9-2.475h4.5V50.325z"
		/>
	<path fill="#1B363C" d="M212.9,50.325h-4.5c-0.5-1.95-1.476-3.574-2.926-4.875c-1.45-1.3-3.25-1.95-5.399-1.95
		c-0.149,0-0.313,0.013-0.487,0.037c-0.176,0.026-0.338,0.063-0.488,0.112c-0.551,0.15-1.049,0.401-1.5,0.75
		c-0.449,0.351-0.674,0.825-0.674,1.426c0,0.7,0.273,1.287,0.824,1.762c0.55,0.477,1.15,0.889,1.801,1.238
		c0.299,0.149,0.586,0.288,0.861,0.412c0.275,0.125,0.537,0.263,0.788,0.412c0.249,0.15,0.499,0.301,0.75,0.45
		c0.249,0.15,0.499,0.275,0.75,0.375c0.249,0.2,0.524,0.375,0.825,0.525c0.3,0.149,0.6,0.325,0.9,0.524
		c2.399,1.351,4.611,2.926,6.637,4.726s3.037,4.274,3.037,7.425c0,3.2-1.137,5.737-3.412,7.612s-4.938,2.888-7.987,3.038
		c-2.001,0-3.95-0.263-5.851-0.788c-1.9-0.524-3.574-1.487-5.024-2.888l-1.274,2.025h-4.801V60.149h4.801
		c0.85,2.352,2.111,4.5,3.787,6.45c1.674,1.95,3.862,2.925,6.563,2.925c0.85,0,1.637-0.212,2.362-0.637
		c0.724-0.425,1.087-1.112,1.087-2.063c0-0.75-0.337-1.463-1.012-2.138c-0.676-0.675-1.537-1.337-2.588-1.987
		c-0.801-0.5-1.7-1-2.699-1.5c-1.002-0.5-2.001-1.024-3-1.575c-2.352-1.3-4.488-2.813-6.413-4.538
		c-1.925-1.725-2.888-3.887-2.888-6.487c0-3.1,1.212-5.574,3.638-7.425c2.425-1.85,5.087-2.775,7.987-2.775
		c1.75,0,3.488,0.214,5.213,0.638c1.725,0.426,3.361,1.013,4.912,1.763l0.9-2.475h4.5V50.325z"/>
	<path fill="#1B363C" d="M257.563,71.587c-1.975,1.575-4.588,2.363-7.837,2.363c-2.001,0-3.788-0.363-5.362-1.088
		c-1.575-0.725-3.014-1.812-4.313-3.263c-0.102,0.051-0.188,0.112-0.263,0.188s-0.138,0.163-0.188,0.263
		c-1.55,1.4-3.149,2.463-4.8,3.188s-3.576,1.088-5.775,1.088c-2.951,0-5.512-0.764-7.688-2.288
		c-2.175-1.524-3.262-3.887-3.262-7.087c0-4.25,1.424-7.1,4.274-8.551c2.851-1.449,6-2.55,9.45-3.3
		c0.25-0.049,0.487-0.1,0.713-0.149c0.225-0.05,0.461-0.1,0.712-0.15c1.05-0.25,2.101-0.499,3.149-0.75
		c1.051-0.25,2.025-0.525,2.926-0.825V47.1c0-1.249-0.412-2.187-1.238-2.813c-0.824-0.624-1.887-0.938-3.188-0.938
		c-1.85,0-3.012,0.401-3.486,1.2c-0.477,0.801-0.814,1.676-1.014,2.625c-0.199,1.001-0.551,1.912-1.049,2.737
		c-0.501,0.825-1.775,1.237-3.826,1.237c-0.149,0-0.287,0-0.412,0s-0.238,0-0.338,0c-1.049-0.1-2.024-0.412-2.924-0.938
		c-0.9-0.524-1.4-1.361-1.5-2.512c0-2.6,1.023-4.538,3.074-5.813c2.05-1.275,4.3-2.138,6.75-2.588c1.1-0.25,2.176-0.412,3.225-0.487
		c1.051-0.075,2-0.112,2.851-0.112c4.6,0,8.35,0.8,11.25,2.399c2.899,1.601,4.351,4.976,4.351,10.125v15.45
		c0,0.6,0.149,1.101,0.449,1.5c0.301,0.4,0.725,0.6,1.275,0.6c0.75,0,1.287-0.287,1.612-0.862c0.325-0.574,0.563-1.212,0.712-1.912
		c0.05-0.3,0.088-0.601,0.113-0.9c0.024-0.3,0.037-0.574,0.037-0.825l4.801-0.074C260.625,67.55,259.537,70.013,257.563,71.587z
		 M239,56.325c-0.1,0.05-0.225,0.074-0.375,0.074c-0.4,0.15-0.824,0.301-1.274,0.45c-0.45,0.15-0.876,0.326-1.274,0.525
		c-1.451,0.551-2.775,1.25-3.976,2.1c-1.2,0.851-1.8,2.075-1.8,3.675c0,1.251,0.424,2.325,1.275,3.226
		c0.85,0.899,1.924,1.35,3.225,1.35c1.398,0,2.5-0.387,3.3-1.162c0.8-0.774,1.2-1.838,1.2-3.188V56.1
		C239.199,56.2,239.1,56.275,239,56.325z"/>
	<path fill="#1B363C" d="M305.45,44.475c-0.149,0.051-0.3,0.075-0.45,0.075s-0.3-0.024-0.449-0.075c-0.201,0-0.375,0-0.525,0
		s-0.301,0-0.45,0c-0.851,0-1.526,0.112-2.024,0.338c-0.501,0.225-0.976,0.663-1.426,1.313c-0.101,0.2-0.213,0.425-0.338,0.675
		c-0.125,0.251-0.262,0.525-0.412,0.825l-15.15,32.325c-0.35,0.699-0.688,1.425-1.012,2.175c-0.326,0.75-0.688,1.5-1.088,2.25
		c-1.15,2.25-2.55,4.313-4.199,6.188c-1.65,1.875-3.776,2.813-6.375,2.813c-1.65,0-3.126-0.487-4.426-1.463
		c-1.301-0.975-2-2.338-2.1-4.087c0-0.801,0.112-1.551,0.338-2.25c0.225-0.701,0.563-1.4,1.012-2.101c0.699,0.75,1.5,1.3,2.4,1.65
		c0.9,0.349,1.824,0.524,2.775,0.524c1.799,0,3.349-0.8,4.649-2.399c1.3-1.601,2.399-3.351,3.3-5.25
		c0.55-1.05,1.024-2.063,1.426-3.038c0.398-0.975,0.773-1.813,1.125-2.512l-14.926-25.418c-0.101-0.15-0.213-0.313-0.338-0.489
		s-0.237-0.339-0.337-0.488c-0.551-0.753-1.163-1.204-1.837-1.354c-0.676-0.15-1.588-0.227-2.738-0.227v-4.575h23.4v4.575h-2.1
		c-0.102,0-0.201,0-0.301,0c-0.101,0-0.2,0-0.3,0c-0.3,0.051-0.589,0.15-0.862,0.3c-0.275,0.15-0.412,0.401-0.412,0.75
		c0,0.301,0.049,0.576,0.149,0.825c0.1,0.251,0.226,0.501,0.375,0.75c0.05,0.051,0.087,0.112,0.112,0.188s0.063,0.163,0.113,0.263
		l5.399,9.375c0.199,0.351,0.349,0.688,0.45,1.013c0.1,0.325,0.174,0.663,0.225,1.013c0,0.149,0.025,0.313,0.075,0.487
		c0.05,0.176,0.075,0.337,0.075,0.487c0.1-0.6,0.225-1.188,0.375-1.763c0.15-0.574,0.35-1.137,0.6-1.688l4.35-9.524
		c0.05-0.05,0.1-0.138,0.15-0.263c0.049-0.124,0.1-0.263,0.15-0.413c0.049-0.1,0.086-0.212,0.112-0.337
		c0.024-0.124,0.038-0.237,0.038-0.338c0-0.45-0.15-0.737-0.451-0.862c-0.299-0.124-0.625-0.212-0.975-0.263c-0.101,0-0.2,0-0.3,0
		c-0.101,0-0.2,0-0.3,0h-1.875v-4.575h15.3V44.475z"/>
	<path fill="#1B363C" d="M340.398,62.226l5.551,1.867c-1.751,3.386-4.125,5.938-7.125,7.655s-6.401,2.577-10.2,2.577
		c-5.601,0-10.275-1.563-14.025-4.688c-3.75-3.125-5.625-7.638-5.625-13.538c0-5.649,1.962-10.013,5.888-13.087
		c3.925-3.075,8.562-4.613,13.912-4.613c5.551,0,9.775,1.65,12.676,4.95c2.898,3.3,4.374,7.65,4.425,13.05h-23.025
		c0,0.25,0,0.474,0,0.673s0,0.398,0,0.597c0.05,2.74,0.55,5.242,1.5,7.507c0.949,2.267,3.15,3.398,6.601,3.398
		c2.148,0,4.023-0.609,5.625-1.829c1.6-1.22,2.874-2.701,3.824-4.445V62.226z M333.949,51.45c0-0.05,0.024-0.1,0.074-0.15
		c0-0.1,0-0.175,0-0.225s0-0.1,0-0.15c0-0.1,0-0.199,0-0.3c0-0.1,0-0.199,0-0.3c-0.05-1.699-0.438-3.263-1.162-4.688
		c-0.726-1.426-2.113-2.138-4.162-2.138c-2.201,0-3.638,0.718-4.313,2.155c-0.676,1.437-1.113,2.997-1.313,4.682
		c-0.051,0.248-0.088,0.471-0.113,0.669s-0.037,0.396-0.037,0.594h11.025C333.949,51.551,333.949,51.5,333.949,51.45z"/>
	<path fill="#1B363C" d="M370.173,38.7c0.349,0.851,0.611,1.725,0.787,2.625c0.175,0.899,0.287,1.8,0.338,2.699
		c1.249-1.449,2.725-2.749,4.425-3.899c1.699-1.149,3.55-1.726,5.55-1.726c1.75,0,3.188,0.601,4.313,1.801
		c1.125,1.199,1.688,2.65,1.688,4.35c0,1.551-0.5,2.9-1.5,4.05c-1.001,1.151-2.275,1.8-3.825,1.95c-0.149,0-0.288,0-0.412,0
		c-0.126,0-0.263,0-0.413,0c-0.65-0.049-1.287-0.188-1.912-0.412c-0.626-0.226-1.138-0.612-1.537-1.163
		c-0.102-0.1-0.188-0.212-0.263-0.337s-0.163-0.237-0.263-0.338c-0.251-0.3-0.514-0.587-0.787-0.862
		c-0.275-0.274-0.613-0.413-1.013-0.413c-0.701,0-1.339,0.263-1.913,0.788c-0.575,0.524-1.063,1.113-1.462,1.763
		c-0.15,0.2-0.275,0.388-0.375,0.563c-0.101,0.176-0.2,0.363-0.3,0.563v13.05c0,1.95,0.375,3.112,1.125,3.487
		s1.674,0.613,2.774,0.713c0.399,0,0.8,0.025,1.2,0.074c0.399,0.051,0.799,0.126,1.2,0.226v4.425h-24.3v-4.5
		c0.249,0,0.499-0.024,0.75-0.075c0.249-0.049,0.524-0.075,0.824-0.075c0.1,0,0.188-0.012,0.263-0.037
		c0.075-0.024,0.162-0.037,0.263-0.037c0.85-0.1,1.624-0.313,2.325-0.638c0.699-0.325,1.05-1.013,1.05-2.063V65.1v-1.8V50.55
		c0-2.05-0.326-3.324-0.975-3.825c-0.65-0.499-1.751-0.825-3.301-0.975c-0.2-0.05-0.4-0.087-0.6-0.112
		c-0.2-0.025-0.4-0.038-0.6-0.038v-4.575c2.85-0.049,5.687-0.273,8.512-0.675c2.824-0.399,5.612-0.925,8.363-1.575V38.7z"/>
</g>
</svg>
