<?xml version="1.0" encoding="utf-8"?>
<!-- Generator: Adobe Illustrator 16.0.0, SVG Export Plug-In . SVG Version: 6.00 Build 0)  -->
<!DOCTYPE svg PUBLIC "-//W3C//DTD SVG 1.1//EN" "http://www.w3.org/Graphics/SVG/1.1/DTD/svg11.dtd">
<svg version="1.1" id="Layer_1" xmlns="http://www.w3.org/2000/svg" xmlns:xlink="http://www.w3.org/1999/xlink" x="0px" y="0px"
	 width="368.272px" height="55.801px" viewBox="-152.462 16.9 368.272 55.801"
	 enable-background="new -152.462 16.9 368.272 55.801" xml:space="preserve">
<g>
	<path fill="#1B363C" d="M-99.737,35.801h-4.875c-0.201-2.749-0.763-5.05-1.688-6.9c-0.926-1.849-3.013-2.774-6.263-2.774h-6.9
		v32.496c0,3.394,0.45,5.49,1.35,6.289c0.9,0.8,3.024,1.198,6.375,1.198v4.941h-28.95v-5.017c3.399,0.05,5.537-0.323,6.413-1.123
		c0.874-0.799,1.313-2.87,1.313-6.214V26.126h-7.65c-2.601,0.05-4.35,0.968-5.25,2.754c-0.9,1.786-1.451,3.746-1.65,5.879
		c0,0.199-0.013,0.386-0.037,0.56c-0.026,0.173-0.038,0.359-0.038,0.558l-4.875-0.075l0.675-14.775h51.3L-99.737,35.801z"/>
	<path fill="#1B363C" d="M-79.788,37.076c0.349,0.851,0.612,1.725,0.788,2.625c0.175,0.899,0.287,1.8,0.337,2.699
		c1.25-1.449,2.725-2.749,4.425-3.899c1.699-1.149,3.549-1.726,5.55-1.726c1.75,0,3.188,0.601,4.313,1.801
		c1.125,1.199,1.688,2.65,1.688,4.35c0,1.551-0.5,2.9-1.5,4.05c-1.001,1.151-2.276,1.8-3.825,1.95c-0.15,0-0.288,0-0.412,0
		c-0.125,0-0.263,0-0.413,0c-0.65-0.049-1.288-0.188-1.913-0.412c-0.626-0.226-1.138-0.612-1.538-1.163
		c-0.101-0.1-0.188-0.212-0.262-0.337c-0.075-0.125-0.163-0.237-0.263-0.338c-0.251-0.3-0.513-0.587-0.788-0.862
		c-0.275-0.274-0.613-0.413-1.012-0.413c-0.701,0-1.338,0.263-1.913,0.788c-0.576,0.524-1.063,1.113-1.462,1.763
		c-0.15,0.2-0.275,0.388-0.375,0.563c-0.101,0.176-0.201,0.363-0.3,0.563v13.05c0,1.95,0.375,3.112,1.125,3.487
		s1.675,0.613,2.775,0.713c0.4,0,0.799,0.025,1.2,0.074c0.399,0.051,0.799,0.126,1.2,0.226v4.425h-24.3v-4.5
		c0.25,0,0.5-0.024,0.75-0.075c0.25-0.049,0.525-0.075,0.825-0.075c0.1,0,0.188-0.012,0.262-0.037
		c0.075-0.024,0.162-0.037,0.263-0.037c0.85-0.1,1.624-0.313,2.325-0.638c0.699-0.325,1.05-1.013,1.05-2.063v-0.15v-1.8v-12.75
		c0-2.05-0.326-3.324-0.975-3.825c-0.65-0.499-1.75-0.825-3.3-0.975c-0.201-0.05-0.401-0.087-0.6-0.112
		c-0.2-0.025-0.401-0.038-0.6-0.038V39.4c2.85-0.049,5.687-0.273,8.513-0.675c2.824-0.399,5.612-0.925,8.362-1.575V37.076z"/>
	<path fill="#1B363C" d="M-27.738,60.602l5.55,1.867c-1.75,3.386-4.125,5.938-7.125,7.655s-6.401,2.577-10.2,2.577
		c-5.601,0-10.275-1.563-14.025-4.688c-3.75-3.125-5.625-7.638-5.625-13.538c0-5.649,1.962-10.013,5.888-13.087
		c3.925-3.075,8.562-4.613,13.913-4.613c5.55,0,9.774,1.65,12.675,4.95c2.899,3.3,4.375,7.65,4.425,13.05h-23.025
		c0,0.25,0,0.474,0,0.673s0,0.398,0,0.597c0.049,2.74,0.55,5.242,1.5,7.507c0.949,2.267,3.15,3.398,6.6,3.398
		c2.149,0,4.024-0.609,5.625-1.829c1.6-1.22,2.875-2.701,3.825-4.445V60.602z M-30.813,30.4c0.049,0.102,0.113,0.188,0.188,0.263
		c0.075,0.075,0.137,0.163,0.188,0.263c0.15,0.15,0.263,0.326,0.337,0.525c0.075,0.2,0.113,0.425,0.113,0.675
		c0,0.5-0.176,0.95-0.525,1.35c-0.351,0.401-0.776,0.601-1.275,0.601c-0.3,0-0.6-0.025-0.9-0.075c-0.3-0.05-0.575-0.15-0.825-0.3
		l-16.5-8.7c-0.351-0.15-0.664-0.35-0.938-0.601c-0.275-0.249-0.413-0.574-0.413-0.975c0-0.649,0.225-1.088,0.675-1.313
		c0.45-0.225,0.925-0.338,1.425-0.338c0.049,0,0.086,0,0.112,0c0.024,0,0.062,0,0.112,0l10.725,0.075L-30.813,30.4z M-34.188,49.826
		c0-0.05,0.025-0.1,0.075-0.15c0-0.1,0-0.175,0-0.225s0-0.1,0-0.15c0-0.1,0-0.199,0-0.3c0-0.1,0-0.199,0-0.3
		c-0.05-1.699-0.438-3.263-1.163-4.688c-0.726-1.426-2.113-2.138-4.163-2.138c-2.201,0-3.637,0.718-4.313,2.155
		c-0.675,1.437-1.113,2.997-1.313,4.682c-0.05,0.248-0.088,0.471-0.112,0.669c-0.026,0.198-0.038,0.396-0.038,0.594h11.025
		C-34.188,49.927-34.188,49.876-34.188,49.826z"/>
	<path fill="#1B363C" d="M9.387,48.701h-4.5c-0.5-1.95-1.476-3.574-2.925-4.875c-1.451-1.3-3.25-1.95-5.4-1.95
		c-0.15,0-0.313,0.013-0.487,0.037c-0.176,0.026-0.337,0.063-0.488,0.112c-0.551,0.15-1.05,0.401-1.5,0.75
		c-0.45,0.351-0.675,0.825-0.675,1.426c0,0.7,0.274,1.287,0.825,1.762c0.549,0.477,1.149,0.889,1.8,1.238
		c0.3,0.149,0.587,0.288,0.862,0.412c0.274,0.125,0.537,0.263,0.788,0.412c0.25,0.15,0.5,0.301,0.75,0.45
		c0.25,0.15,0.5,0.275,0.75,0.375c0.25,0.2,0.525,0.375,0.825,0.525c0.3,0.149,0.6,0.325,0.9,0.524
		c2.4,1.351,4.612,2.926,6.638,4.726c2.025,1.8,3.037,4.274,3.037,7.425c0,3.2-1.138,5.737-3.412,7.612
		c-2.276,1.875-4.938,2.888-7.988,3.038c-2,0-3.95-0.263-5.85-0.788c-1.9-0.524-3.575-1.487-5.025-2.888l-1.275,2.025h-4.8V58.525
		h4.8c0.85,2.352,2.112,4.5,3.788,6.45c1.674,1.95,3.862,2.925,6.563,2.925c0.85,0,1.637-0.212,2.362-0.637
		c0.724-0.425,1.087-1.112,1.087-2.063c0-0.75-0.337-1.463-1.012-2.138c-0.675-0.675-1.538-1.337-2.587-1.987
		c-0.801-0.5-1.701-1-2.7-1.5c-1.001-0.5-2-1.024-3-1.575c-2.351-1.3-4.488-2.813-6.413-4.538c-1.925-1.725-2.887-3.887-2.887-6.487
		c0-3.1,1.211-5.574,3.637-7.425c2.425-1.85,5.087-2.775,7.988-2.775c1.75,0,3.487,0.214,5.212,0.638
		c1.725,0.426,3.362,1.013,4.913,1.763l0.9-2.475h4.5V48.701z"/>
	<path fill="#1B363C" d="M78.412,44.501c4.15,0.251,7.837,1.263,11.063,3.037c3.225,1.775,4.837,5.089,4.837,9.938
		c0,4.851-1.713,8.325-5.137,10.425c-3.425,2.101-7.288,3.15-11.587,3.15h-32.55v-5.025c3.25,0.051,5.262-0.375,6.038-1.274
		c0.774-0.9,1.163-2.925,1.163-6.075V33.551c0-3.1-0.388-5.111-1.163-6.037c-0.776-0.925-2.788-1.388-6.038-1.388v-5.101h27.45h1.95
		c0.6,0.051,1.2,0.075,1.8,0.075s1.225,0.026,1.875,0.075c1.2,0.051,2.412,0.176,3.637,0.375c1.225,0.2,2.387,0.551,3.488,1.05
		c2.049,0.9,3.7,2.325,4.95,4.275c1.25,1.95,1.875,4.05,1.875,6.3c0,3.9-1.413,6.75-4.237,8.55c-2.825,1.8-5.962,2.751-9.413,2.851
		V44.501z M74.249,41.126c2.225-0.75,3.338-3.175,3.338-7.275c0-2.8-0.626-4.8-1.875-6c-1.25-1.2-3.251-1.8-6-1.8
		c-0.351,0-0.688,0-1.013,0c-0.326,0-0.638,0-0.938,0c-0.351,0-0.688,0.013-1.013,0.037c-0.326,0.026-0.663,0.038-1.012,0.038v16.05
		C69.187,42.227,72.024,41.876,74.249,41.126z M65.737,60.775c0,2.051,0.525,3.463,1.575,4.238c1.05,0.775,2.575,1.162,4.575,1.162
		c2.899,0,4.924-0.874,6.075-2.625c1.149-1.75,1.725-3.925,1.725-6.525c0-3.6-0.888-6.137-2.662-7.612
		c-1.775-1.474-4.388-2.212-7.838-2.212h-3.45V60.775z"/>
	<path fill="#1B363C" d="M116.887,37.076v25.5c0,1.8,0.337,2.913,1.012,3.337c0.676,0.426,1.862,0.663,3.563,0.713l1.051-0.075v4.5
		H98.736v-4.5h0.9c0.1,0.051,0.199,0.075,0.3,0.075c0.1,0,0.199,0,0.3,0c0.1,0,0.225,0,0.375,0c0.15,0,0.274-0.024,0.375-0.075
		c0.85,0,1.637-0.15,2.362-0.45c0.724-0.3,1.087-0.975,1.087-2.024V47.951c0-2-0.513-3.162-1.537-3.488
		c-1.025-0.324-2.413-0.487-4.162-0.487V39.4c1.299,0.051,2.599,0.026,3.9-0.074c1.299-0.1,2.599-0.226,3.9-0.375
		c1.749-0.25,3.487-0.525,5.212-0.825c1.726-0.3,3.438-0.625,5.139-0.976V37.076z M105.111,28.826c-1.4-1.399-2.1-3.05-2.1-4.95
		c0-1.899,0.7-3.537,2.1-4.913c1.398-1.374,3.049-2.063,4.949-2.063s3.537,0.688,4.913,2.063c1.374,1.376,2.063,3.014,2.063,4.913
		c0,1.88-0.688,3.512-2.063,4.897c-1.376,1.385-3.013,2.077-4.913,2.077C108.16,30.901,106.51,30.227,105.111,28.826z"/>
	<path fill="#1B363C" d="M157.986,60.602l5.549,1.867c-1.75,3.386-4.125,5.938-7.125,7.655s-6.4,2.577-10.199,2.577
		c-5.601,0-10.275-1.563-14.025-4.688c-3.75-3.125-5.625-7.638-5.625-13.538c0-5.649,1.962-10.013,5.888-13.087
		c3.925-3.075,8.562-4.613,13.913-4.613c5.549,0,9.773,1.65,12.674,4.95s4.375,7.65,4.426,13.05h-23.025c0,0.25,0,0.474,0,0.673
		s0,0.398,0,0.597c0.049,2.74,0.55,5.242,1.5,7.507c0.949,2.267,3.15,3.398,6.6,3.398c2.15,0,4.025-0.609,5.625-1.829
		s2.875-2.701,3.826-4.445V60.602z M151.535,49.826c0-0.05,0.025-0.1,0.076-0.15c0-0.1,0-0.175,0-0.225s0-0.1,0-0.15
		c0-0.1,0-0.199,0-0.3c0-0.1,0-0.199,0-0.3c-0.051-1.699-0.439-3.263-1.163-4.688c-0.726-1.426-2.112-2.138-4.163-2.138
		c-2.2,0-3.637,0.718-4.313,2.155c-0.674,1.437-1.113,2.997-1.313,4.682c-0.05,0.248-0.088,0.471-0.111,0.669
		c-0.026,0.198-0.038,0.396-0.038,0.594h11.024C151.535,49.927,151.535,49.876,151.535,49.826z"/>
	<path fill="#1B363C" d="M186.261,42.251c1.899-1.65,3.85-2.975,5.851-3.976c1.998-0.999,4.299-1.5,6.899-1.5
		c3.85,0,6.737,1.001,8.663,3c1.924,2.001,2.887,4.875,2.887,8.625v12.601c0,2.15,0.188,3.626,0.563,4.425
		c0.375,0.801,1.637,1.2,3.787,1.2l0.9-0.075v4.5h-22.275v-4.5c1.9,0.051,3.125-0.263,3.676-0.938
		c0.549-0.675,0.824-1.862,0.824-3.563v-1.05v-10.8c0-1.6-0.299-2.987-0.899-4.163c-0.601-1.174-1.851-1.763-3.75-1.763
		c-2.601,0-4.476,0.776-5.625,2.325c-1.151,1.551-1.726,3.575-1.726,6.075v8.325c0,1.95,0.226,3.375,0.676,4.274
		c0.449,0.9,1.75,1.351,3.9,1.351v4.425h-22.275v-4.5c2.35,0.051,3.813-0.3,4.387-1.05s0.863-2.225,0.863-4.425v-15
		c0-1.2-0.426-2-1.275-2.4c-0.851-0.399-1.8-0.649-2.85-0.75c-0.251,0-0.488,0-0.713,0s-0.463,0-0.713,0v-4.65
		c0.1,0.051,0.188,0.075,0.264,0.075c0.074,0,0.137,0,0.188,0c0.1,0.051,0.188,0.075,0.262,0.075c0.075,0,0.137,0,0.188,0
		c0.949,0,1.887-0.012,2.813-0.037c0.925-0.025,1.838-0.063,2.738-0.113c1.849-0.1,3.712-0.236,5.587-0.412
		c1.875-0.175,3.712-0.412,5.513-0.713c0.199,0.852,0.35,1.714,0.449,2.588c0.1,0.875,0.176,1.738,0.226,2.588V42.251z"/>
</g>
</svg>
