<?xml version="1.0" encoding="utf-8"?>
<!-- Generator: Adobe Illustrator 16.0.0, SVG Export Plug-In . SVG Version: 6.00 Build 0)  -->
<!DOCTYPE svg PUBLIC "-//W3C//DTD SVG 1.1//EN" "http://www.w3.org/Graphics/SVG/1.1/DTD/svg11.dtd">
<svg version="1.1" id="Layer_1" xmlns="http://www.w3.org/2000/svg" xmlns:xlink="http://www.w3.org/1999/xlink" x="0px" y="0px"
	 width="862.141px" height="476.149px" viewBox="-1.086 1.646 862.141 476.149"
	 enable-background="new -1.086 1.646 862.141 476.149" xml:space="preserve">
<g>
	<g>
		<path fill="#F4AE4C" d="M-0.572,477.796c0,0-1.852-322.974,1.473-473.432c0.027-1.189,1.028-2.146,2.291-2.199
			C37.743,0.762,624.756,2.577,856.68,3.249c1.277,0.004,2.27,1.055,2.264,2.259c-0.127,26.032,5.652,322.002-1.393,472.288H-0.572z
			"/>
		<path fill="#DF902F" d="M854.083,78.855c0.5,95,2.76,287.013-2.385,392.474H5.236c-1.716-15.812,7.485-65.321,4.125-124.626
			l-3.467-5.62c3.467,74.272-5.047,119.953-3.564,133.48h852.297c6.043-119.204,1.594-310.741,2.955-402.314L854.083,78.855z"/>
		<path fill="#DF902F" d="M667.756,8.185c10.223-1.085,5.002-1.744,15.232-2.741c-66.732-2.883-149.232,0.641-201.537-1.186
			c-11.959,1.186-23.902,2.499-35.83,3.927C512.991,6.802,663.653,8.179,667.756,8.185z"/>
		<path fill="#995624" d="M7.693,469.177C2.842,424.202,7.814,145.628,9.946,10.522C57.492,8.641,797.663,9.17,849.75,11.554
			c-0.307,47.206,5.68,311.808-0.523,457.623H7.693z"/>
		<path fill="#3A5B4C" d="M11.007,465.729C5.541,414.687,11.9,146.267,13.564,13.831c52.043-2.037,781.057-1.267,832.499,1.008
			c-0.367,51.39,5.779,310.542-0.18,450.891H11.007z"/>
	</g>
</g>
</svg>
