<?xml version="1.0" encoding="utf-8"?>
<!-- Generator: Adobe Illustrator 16.0.0, SVG Export Plug-In . SVG Version: 6.00 Build 0)  -->
<!DOCTYPE svg PUBLIC "-//W3C//DTD SVG 1.1//EN" "http://www.w3.org/Graphics/SVG/1.1/DTD/svg11.dtd">
<svg version="1.1" id="Layer_1" xmlns="http://www.w3.org/2000/svg" xmlns:xlink="http://www.w3.org/1999/xlink" x="0px" y="0px"
	 width="34.642px" height="34.643px" viewBox="0 0 34.642 34.643" enable-background="new 0 0 34.642 34.643" xml:space="preserve">
<g>
	<g>
		<g>
			<g>
				<g>
					<g>
						<radialGradient id="SVGID_1_" cx="17.3203" cy="17.3213" r="17.3213" gradientUnits="userSpaceOnUse">
							<stop  offset="0" style="stop-color:#000000;stop-opacity:0.1"/>
							<stop  offset="1" style="stop-color:#000000;stop-opacity:0.0969"/>
						</radialGradient>
						<path fill-rule="evenodd" clip-rule="evenodd" fill="url(#SVGID_1_)" d="M17.32,34.643C7.77,34.643,0,26.873,0,17.322
							C0,7.771,7.77,0,17.32,0s17.321,7.771,17.321,17.322C34.642,26.873,26.871,34.643,17.32,34.643z"/>
						<path fill-rule="evenodd" clip-rule="evenodd" fill="#FFFFFF" d="M17.32,34.146c-9.276,0-16.825-7.548-16.825-16.824
							c0-9.277,7.548-16.826,16.825-16.826c9.277,0,16.825,7.549,16.825,16.826C34.146,26.599,26.598,34.146,17.32,34.146z"/>
						<radialGradient id="SVGID_2_" cx="21.4531" cy="25.1826" r="15.8305" gradientUnits="userSpaceOnUse">
							<stop  offset="0" style="stop-color:#000000;stop-opacity:0.1"/>
							<stop  offset="1" style="stop-color:#000000;stop-opacity:0.0969"/>
						</radialGradient>
						<path fill-rule="evenodd" clip-rule="evenodd" fill="url(#SVGID_2_)" d="M17.32,33.649c-9.003,0-16.327-7.325-16.327-16.327
							c0-9.004,7.324-16.329,16.327-16.329c9.003,0,16.328,7.325,16.328,16.329C33.648,26.324,26.323,33.649,17.32,33.649z"/>
						<radialGradient id="SVGID_3_" cx="21.3896" cy="25.0635" r="15.5905" gradientUnits="userSpaceOnUse">
							<stop  offset="0.0039" style="stop-color:#53C5CE"/>
							<stop  offset="0.1992" style="stop-color:#4ABACE"/>
							<stop  offset="0.5435" style="stop-color:#339CCC"/>
							<stop  offset="0.9936" style="stop-color:#0D6DCA"/>
							<stop  offset="1" style="stop-color:#0C6CCA"/>
						</radialGradient>
						<circle fill-rule="evenodd" clip-rule="evenodd" fill="url(#SVGID_3_)" cx="17.321" cy="17.322" r="16.08"/>
						<radialGradient id="SVGID_4_" cx="22.5049" cy="5.7036" r="19.6167" gradientUnits="userSpaceOnUse">
							<stop  offset="0.0039" style="stop-color:#53C5CE"/>
							<stop  offset="0.1992" style="stop-color:#4ABACE"/>
							<stop  offset="0.5435" style="stop-color:#339CCC"/>
							<stop  offset="0.9936" style="stop-color:#0D6DCA"/>
							<stop  offset="1" style="stop-color:#0C6CCA"/>
						</radialGradient>
						<path fill-rule="evenodd" clip-rule="evenodd" fill="url(#SVGID_4_)" d="M17.022,2.234c8.881,0,16.08,7.199,16.08,16.08
							c0,1.41-0.184,2.777-0.523,4.081c0.529-1.596,0.821-3.301,0.821-5.073c0-8.882-7.2-16.081-16.08-16.081
							c-7.47,0-13.75,5.096-15.556,11.999C3.89,6.847,9.916,2.234,17.022,2.234z"/>
						<radialGradient id="SVGID_5_" cx="22.9785" cy="26.2549" r="22.0632" gradientUnits="userSpaceOnUse">
							<stop  offset="0" style="stop-color:#FFFFFF;stop-opacity:0.5"/>
							<stop  offset="1" style="stop-color:#FFFFFF;stop-opacity:0"/>
						</radialGradient>
						<path fill-rule="evenodd" clip-rule="evenodd" fill="url(#SVGID_5_)" d="M1.241,17.322c0,4.067,1.514,7.78,4.006,10.613
							c12.727-0.144,22.993-8.483,22.993-18.754c0-1.437-0.209-2.835-0.59-4.181c-2.794-2.345-6.396-3.76-10.329-3.76
							C8.44,1.241,1.241,8.44,1.241,17.322z"/>
						<radialGradient id="SVGID_6_" cx="7.0972" cy="5.7075" r="24.4379" gradientUnits="userSpaceOnUse">
							<stop  offset="0" style="stop-color:#000000;stop-opacity:0.1"/>
							<stop  offset="1" style="stop-color:#000000;stop-opacity:0.0969"/>
						</radialGradient>
						<path fill-rule="evenodd" clip-rule="evenodd" fill="url(#SVGID_6_)" d="M2.233,18.413c0-8.881,7.199-16.079,16.08-16.079
							c4.45,0,8.479,1.809,11.391,4.732c-2.949-3.56-7.402-5.825-12.384-5.825c-8.88,0-16.08,7.199-16.08,16.081
							c0,4.429,1.791,8.438,4.688,11.347C3.621,25.886,2.233,22.312,2.233,18.413z"/>
						<radialGradient id="SVGID_7_" cx="8.0078" cy="6.7197" r="24.0453" gradientUnits="userSpaceOnUse">
							<stop  offset="0" style="stop-color:#FFFFFF;stop-opacity:0.2"/>
							<stop  offset="1" style="stop-color:#FFFFFF;stop-opacity:0"/>
						</radialGradient>
						<path fill-rule="evenodd" clip-rule="evenodd" fill="url(#SVGID_7_)" d="M28.976,6.251c0.252,0.265,0.496,0.534,0.729,0.815
							c-2.911-2.924-6.94-4.732-11.391-4.732c-8.881,0-16.08,7.198-16.08,16.079c0,3.679,1.237,7.067,3.315,9.777
							c0.31,0.372,0.634,0.731,0.977,1.074c-2.309-2.783-3.697-6.356-3.697-10.256c0-8.881,7.2-16.08,16.081-16.08
							c4.45,0,8.479,1.81,11.391,4.732C29.888,7.164,29.443,6.695,28.976,6.251z"/>
						<radialGradient id="SVGID_8_" cx="22.7578" cy="26.249" r="13.6719" gradientUnits="userSpaceOnUse">
							<stop  offset="0" style="stop-color:#000000;stop-opacity:0.1"/>
							<stop  offset="1" style="stop-color:#000000;stop-opacity:0.0969"/>
						</radialGradient>
						<path fill-rule="evenodd" clip-rule="evenodd" fill="url(#SVGID_8_)" d="M28.544,5.812c2.29,2.777,3.665,6.337,3.665,10.218
							c0,8.881-7.199,16.08-16.081,16.08c-4.367,0-8.326-1.744-11.224-4.57c2.949,3.578,7.416,5.861,12.416,5.861
							c8.88,0,16.079-7.199,16.079-16.081C33.399,12.809,31.538,8.733,28.544,5.812z"/>
						<radialGradient id="SVGID_9_" cx="21.7158" cy="25.0869" r="13.4639" gradientUnits="userSpaceOnUse">
							<stop  offset="0" style="stop-color:#FFFFFF;stop-opacity:0.2"/>
							<stop  offset="1" style="stop-color:#FFFFFF;stop-opacity:0"/>
						</radialGradient>
						<path fill-rule="evenodd" clip-rule="evenodd" fill="url(#SVGID_9_)" d="M4.905,27.54c2.898,2.826,6.856,4.57,11.225,4.57
							c8.88,0,16.079-7.198,16.079-16.079c0-3.622-1.199-6.965-3.22-9.653c-0.389-0.476-0.799-0.932-1.238-1.36
							c2.289,2.778,3.664,6.339,3.664,10.219c0,8.881-7.199,16.08-16.08,16.08c-4.368,0-8.327-1.744-11.224-4.57
							c0.438,0.531,0.913,1.029,1.415,1.5C5.312,28.017,5.104,27.782,4.905,27.54z"/>
					</g>
					<g>
						<radialGradient id="SVGID_10_" cx="22.8789" cy="-4.3174" r="32.3255" gradientUnits="userSpaceOnUse">
							<stop  offset="0" style="stop-color:#FFFFFF;stop-opacity:0.5"/>
							<stop  offset="1" style="stop-color:#FFFFFF;stop-opacity:0"/>
						</radialGradient>
						<path fill-rule="evenodd" clip-rule="evenodd" fill="url(#SVGID_10_)" d="M5.41,18.314C5.013,14.344,7.99,9.777,10.77,7.396
							c1.984-1.787,14.888-5.955,11.911,0.993c-0.795,2.183-8.337,6.947-10.521,8.535c-1.588,1.191-7.742,5.361-6.551-0.396"/>
					</g>
				</g>
			</g>
		</g>
	</g>
</g>
<g>
	<radialGradient id="SVGID_11_" cx="17.583" cy="17.7812" r="9.0495" gradientUnits="userSpaceOnUse">
		<stop  offset="0" style="stop-color:#134E00;stop-opacity:0.2"/>
		<stop  offset="1" style="stop-color:#002500;stop-opacity:0.1"/>
	</radialGradient>
	<path fill="url(#SVGID_11_)" d="M11.58,25.568c-0.4,0-0.823-0.099-1.259-0.292c-0.223-0.092-0.486-0.215-0.771-0.361
		c-0.294-0.15-0.576-0.314-0.841-0.489c-0.278-0.184-0.521-0.372-0.719-0.56c-0.379-0.357-0.563-0.729-0.563-1.136
		c0-0.479,0.233-0.929,0.712-1.377c0.302-0.297,0.674-0.644,1.098-1.024c0.415-0.372,0.875-0.775,1.369-1.194
		c0.494-0.423,1.019-0.863,1.558-1.308c0.3-0.247,0.607-0.496,0.918-0.741c-0.157-0.225-0.312-0.445-0.462-0.664
		c-0.339-0.489-0.661-0.957-0.965-1.4c-0.309-0.452-0.593-0.873-0.843-1.252c-0.252-0.382-0.471-0.715-0.656-0.996l-0.027-0.044
		l-0.006-0.013c-0.521-0.977-0.172-1.562,0.082-1.823c0.302-0.315,0.732-0.468,1.484-0.526c0.093-0.011,0.235-0.02,0.375-0.02h0.995
		c0.214,0,0.446,0.003,0.697,0.009c0.248,0.007,0.496,0.015,0.745,0.026c0.706,0.046,1.248,0.188,1.666,0.431
		c0.376,0.22,0.709,0.503,0.993,0.842l0.043,0.053l0.037,0.059c0.214,0.335,0.471,0.722,0.762,1.147l0.269,0.394
		c0.575-0.462,1.119-0.896,1.622-1.291c0.776-0.612,1.474-1.132,2.072-1.546c0.475-0.316,0.973-0.477,1.484-0.477
		c0.416,0,0.862,0.082,1.33,0.245l0.048,0.018c0.447,0.191,0.862,0.418,1.248,0.679c0.36,0.244,0.671,0.475,0.926,0.685
		c0.862,0.711,0.768,1.465,0.688,1.755c-0.122,0.438-0.405,0.828-0.846,1.161l-2.653,2.01c-0.771,0.586-1.583,1.203-2.432,1.85
		c0.504,0.726,0.988,1.427,1.455,2.104c0.604,0.879,1.178,1.698,1.701,2.438c0.767,0.847,0.382,1.552,0.244,1.748
		c-0.353,0.503-0.965,0.618-1.459,0.663c-0.463,0.025-0.924,0.037-1.384,0.037c-0.452,0-0.927-0.012-1.408-0.034
		c-0.296-0.016-0.561-0.05-0.788-0.104c-0.224-0.054-0.439-0.125-0.641-0.21c-0.221-0.095-0.433-0.22-0.626-0.365
		c-0.162-0.123-0.324-0.264-0.497-0.432c-0.236-0.22-0.563-0.605-0.994-1.168c-0.221-0.29-0.468-0.621-0.735-0.987
		c-0.549,0.443-1.073,0.876-1.563,1.289c-0.734,0.621-1.414,1.185-2.019,1.672C12.625,25.393,12.131,25.568,11.58,25.568z"/>
	<linearGradient id="SVGID_12_" gradientUnits="userSpaceOnUse" x1="7.666" y1="17.2388" x2="27.2842" y2="17.2388">
		<stop  offset="0" style="stop-color:#FCC36A"/>
		<stop  offset="0.15" style="stop-color:#FDDDAB"/>
		<stop  offset="0.29" style="stop-color:#FBB03B"/>
		<stop  offset="0.58" style="stop-color:#FBB03B"/>
		<stop  offset="0.72" style="stop-color:#FDD28F"/>
		<stop  offset="1" style="stop-color:#FBB03B"/>
	</linearGradient>
	<path fill="url(#SVGID_12_)" d="M11.472,24.677c-0.352,0-0.727-0.088-1.117-0.262c-0.221-0.091-0.479-0.212-0.756-0.353
		c-0.283-0.146-0.554-0.304-0.807-0.47c-0.262-0.174-0.488-0.349-0.672-0.522c-0.305-0.288-0.454-0.577-0.454-0.884
		c0-0.377,0.197-0.743,0.604-1.122c0.302-0.296,0.671-0.64,1.092-1.019c0.412-0.37,0.87-0.771,1.362-1.19
		c0.489-0.417,1.012-0.855,1.555-1.303c0.38-0.313,0.773-0.63,1.171-0.942c-0.223-0.312-0.44-0.625-0.651-0.929
		c-0.338-0.489-0.66-0.956-0.964-1.4c-0.309-0.45-0.592-0.87-0.839-1.246c-0.252-0.382-0.471-0.715-0.656-0.995l-0.018-0.029
		L10.316,12c-0.392-0.736-0.199-1.171,0.03-1.407c0.237-0.247,0.603-0.369,1.262-0.419c0.092-0.014,0.221-0.02,0.348-0.02h0.996
		c0.211,0,0.44,0.002,0.687,0.009c0.246,0.004,0.491,0.014,0.737,0.025c0.646,0.042,1.137,0.167,1.507,0.383
		c0.341,0.199,0.644,0.456,0.902,0.766l0.029,0.034l0.024,0.039c0.216,0.34,0.475,0.729,0.769,1.158
		c0.156,0.228,0.315,0.462,0.479,0.703c0.685-0.551,1.327-1.062,1.915-1.525c0.771-0.607,1.462-1.123,2.053-1.532
		c0.414-0.276,0.845-0.413,1.287-0.413c0.376,0,0.786,0.076,1.216,0.225l0.038,0.015c0.418,0.179,0.81,0.393,1.177,0.641
		c0.352,0.238,0.654,0.462,0.898,0.665c0.68,0.561,0.652,1.115,0.574,1.396c-0.101,0.362-0.343,0.688-0.719,0.975
		c-0.646,0.488-2.654,2.009-2.654,2.009c-0.853,0.647-1.752,1.332-2.697,2.053c0.569,0.823,1.118,1.616,1.643,2.377
		c0.615,0.893,1.192,1.72,1.717,2.459c0.596,0.646,0.36,1.145,0.23,1.331c-0.269,0.383-0.759,0.474-1.204,0.514
		c-0.45,0.024-0.901,0.036-1.353,0.036c-0.447,0-0.916-0.011-1.391-0.034c-0.275-0.015-0.52-0.045-0.727-0.094
		c-0.203-0.049-0.399-0.113-0.582-0.192c-0.195-0.083-0.382-0.191-0.554-0.322c-0.149-0.112-0.302-0.245-0.463-0.402
		c-0.228-0.211-0.544-0.583-0.961-1.13c-0.279-0.365-0.596-0.794-0.945-1.277c-0.656,0.526-1.279,1.038-1.854,1.524
		c-0.737,0.622-1.415,1.185-2.014,1.668C12.36,24.527,11.94,24.677,11.472,24.677z"/>
	<g>
		<radialGradient id="SVGID_13_" cx="26.2617" cy="24.8652" r="22.002" gradientUnits="userSpaceOnUse">
			<stop  offset="0" style="stop-color:#FFFFFF;stop-opacity:0.6"/>
			<stop  offset="1" style="stop-color:#FFFFFF;stop-opacity:0.6"/>
		</radialGradient>
		<path fill="url(#SVGID_13_)" d="M12.246,10.773c0.244,0.006,0.487,0.065,0.73,0.075c0.586,0.04,1.025,0.176,1.347,0.363
			c0.306,0.179,0.576,0.423,0.81,0.701l0.015,0.024l0.013,0.021c0.223,0.351,0.484,0.744,0.774,1.17
			c0.223,0.324,0.453,0.663,0.693,1.015c0.365-0.295,0.715-0.574,1.055-0.846c-0.122-0.179-0.247-0.362-0.364-0.532
			c-0.291-0.426-0.551-0.818-0.774-1.169l-0.013-0.019l-0.015-0.018c-0.233-0.278-0.504-0.51-0.81-0.689
			c-0.322-0.187-0.761-0.297-1.347-0.336c-0.244-0.011-2.151-0.021-2.151-0.021c-0.116,0-1.389-0.037-1.559,0.139
			c-0.01,0.01-0.066,0.01-0.075,0.01h0.992C11.776,10.662,12.002,10.768,12.246,10.773z"/>
		<radialGradient id="SVGID_14_" cx="13.9551" cy="22.0508" r="2.5485" gradientUnits="userSpaceOnUse">
			<stop  offset="0" style="stop-color:#FFFFFF;stop-opacity:0.6"/>
			<stop  offset="1" style="stop-color:#FFFFFF;stop-opacity:0.6"/>
		</radialGradient>
		<path fill="url(#SVGID_14_)" d="M13.122,22.666c-0.729,0.618-1.387,1.159-1.96,1.625c0.104,0.017,0.21,0.037,0.31,0.037
			c0.385,0,0.732-0.124,1.028-0.365c0.583-0.472,1.258-1.029,2.006-1.662c0.35-0.296,1.856-1.739,2.242-2.054
			c-0.114-0.157-0.223-0.305-0.344-0.474C15.633,20.387,13.777,22.112,13.122,22.666z"/>
		<radialGradient id="SVGID_15_" cx="26.2627" cy="24.793" r="21.9094" gradientUnits="userSpaceOnUse">
			<stop  offset="0" style="stop-color:#FFFFFF;stop-opacity:0.6"/>
			<stop  offset="1" style="stop-color:#FFFFFF;stop-opacity:0.6"/>
		</radialGradient>
		<path fill="url(#SVGID_15_)" d="M26.448,11.613c-0.237-0.197-0.53-0.413-0.871-0.645c-0.349-0.235-0.723-0.439-1.109-0.605
			l-0.024-0.009c-0.393-0.137-0.765-0.206-1.102-0.206c-0.372,0-0.736,0.117-1.089,0.352c-0.016,0.012-0.035,0.027-0.051,0.038
			c0.271,0.024,0.555,0.076,0.857,0.182l0.024,0.009c0.387,0.166,0.761,0.37,1.109,0.605c0.34,0.231,0.633,0.448,0.87,0.645
			c0.502,0.415,0.529,0.791,0.462,1.035c-0.079,0.284-0.279,0.551-0.595,0.789c-0.646,0.488-2.654,2.01-2.654,2.01
			c-0.931,0.707-1.918,1.46-2.963,2.257c0.641,0.92,1.251,1.803,1.834,2.648c0.621,0.902,1.203,1.736,1.732,2.48
			c0.402,0.429,0.34,0.732,0.215,0.912c-0.004,0.004-0.01,0.008-0.014,0.013c0.148-0.005,0.301-0.004,0.448-0.012
			c0.519-0.046,0.802-0.156,0.949-0.367c0.126-0.179,0.188-0.482-0.215-0.911c-0.528-0.744-1.111-1.578-1.732-2.48
			c-0.583-0.847-1.193-1.729-1.833-2.649c1.044-0.796,2.031-1.549,2.963-2.256c0,0,2.009-1.521,2.654-2.01
			c0.314-0.238,0.515-0.505,0.594-0.79C26.977,12.404,26.95,12.027,26.448,11.613z"/>
		<linearGradient id="SVGID_16_" gradientUnits="userSpaceOnUse" x1="15.9331" y1="6.0781" x2="26.0215" y2="20.7718">
			<stop  offset="0.3481" style="stop-color:#FFE100"/>
			<stop  offset="0.5965" style="stop-color:#FFD600"/>
			<stop  offset="1" style="stop-color:#FFBB00"/>
		</linearGradient>
		<path fill="url(#SVGID_16_)" d="M20.216,12.02c0.745-0.586,1.409-1.082,1.986-1.481c-0.082-0.008-0.167-0.024-0.244-0.024
			c-0.373,0-0.736,0.117-1.09,0.353c-0.586,0.405-1.271,0.917-2.037,1.52c-0.36,0.285-0.746,0.592-1.147,0.912
			c0.11,0.161,0.215,0.314,0.329,0.48C18.809,13.138,19.549,12.547,20.216,12.02z"/>
		<linearGradient id="SVGID_17_" gradientUnits="userSpaceOnUse" x1="11.3662" y1="9.582" x2="21.5421" y2="24.4032">
			<stop  offset="0.3481" style="stop-color:#FFE100"/>
			<stop  offset="0.5965" style="stop-color:#FFD600"/>
			<stop  offset="1" style="stop-color:#FFBB00"/>
		</linearGradient>
		<path fill="url(#SVGID_17_)" d="M22.88,23.198c-0.529-0.744-1.111-1.578-1.732-2.48c-0.583-0.846-1.193-1.729-1.834-2.648
			c1.045-0.797,2.032-1.55,2.963-2.257c0,0,2.009-1.521,2.654-2.01c0.315-0.238,0.516-0.505,0.595-0.789
			c0.067-0.244,0.04-0.62-0.462-1.035c-0.237-0.196-0.53-0.413-0.87-0.645c-0.349-0.235-0.723-0.439-1.109-0.605L23.06,10.72
			c-0.303-0.105-0.587-0.157-0.857-0.182c-0.577,0.399-1.241,0.896-1.986,1.481c-0.667,0.527-1.407,1.118-2.203,1.759
			c-0.114-0.166-0.219-0.319-0.329-0.48c-0.34,0.271-0.69,0.552-1.055,0.847c-0.24-0.352-0.471-0.689-0.693-1.014
			c-0.291-0.426-0.551-0.818-0.774-1.169l-0.013-0.019l-0.015-0.018c-0.233-0.278-0.504-0.51-0.81-0.688
			c-0.322-0.188-0.761-0.297-1.347-0.337c-0.244-0.01-0.487-0.121-0.73-0.127s-0.469-0.111-0.678-0.111h-0.992
			c-0.188,0-0.179,0.646,0.04,1.059l0.009,0.063l0.007,0.04c0.184,0.28,0.401,0.625,0.655,1.006c0.249,0.379,0.53,0.802,0.835,1.248
			c0.305,0.444,0.625,0.913,0.963,1.4c0.271,0.394,0.553,0.795,0.842,1.199c-0.489,0.381-0.969,0.765-1.426,1.142
			c-0.538,0.443-1.06,0.882-1.551,1.301c-0.487,0.416-0.943,0.814-1.355,1.185c-0.413,0.371-0.781,0.715-1.087,1.015
			c-0.331,0.31-0.493,0.594-0.493,0.867c0,0.206,0.113,0.412,0.345,0.63c0.169,0.159,0.379,0.323,0.625,0.485
			c0.24,0.159,0.501,0.312,0.774,0.449c0.269,0.139,0.521,0.256,0.739,0.346c0.231,0.104,0.451,0.159,0.665,0.194
			c0.573-0.466,1.23-1.007,1.96-1.625c0.655-0.554,2.293-2.101,3.065-2.715c0.121,0.17,0.354,0.434,0.468,0.591
			c0.336-0.274-0.359,0.285,0,0c0.432,0.603,0.819,1.128,1.154,1.567c0.405,0.53,0.71,0.889,0.927,1.091
			c0.152,0.147,0.293,0.27,0.43,0.375c0.15,0.112,0.312,0.207,0.482,0.28c0.161,0.068,0.338,0.127,0.525,0.172
			c0.188,0.044,0.408,0.071,0.66,0.085c0.467,0.022,0.93,0.034,1.375,0.034c0.294,0,0.584-0.013,0.873-0.023
			c0.004-0.005,0.01-0.009,0.014-0.013C23.22,23.931,23.282,23.627,22.88,23.198z"/>
	</g>
</g>
</svg>
