<?xml version="1.0" encoding="utf-8"?>
<!-- Generator: Adobe Illustrator 16.0.4, SVG Export Plug-In . SVG Version: 6.00 Build 0)  -->
<!DOCTYPE svg PUBLIC "-//W3C//DTD SVG 1.1//EN" "http://www.w3.org/Graphics/SVG/1.1/DTD/svg11.dtd">
<svg version="1.1" id="Layer_1" xmlns="http://www.w3.org/2000/svg" xmlns:xlink="http://www.w3.org/1999/xlink" x="0px" y="0px"
	 width="58.121px" height="68.083px" viewBox="0 0 58.121 68.083" style="enable-background:new 0 0 58.121 68.083;"
	 xml:space="preserve">
<style type="text/css">
<![CDATA[
	.st0{fill-rule:evenodd;clip-rule:evenodd;fill:#B41F38;}
	.st1{fill-rule:evenodd;clip-rule:evenodd;fill:#F4B120;}
	.st2{fill-rule:evenodd;clip-rule:evenodd;fill:#F5F3F8;}
	.st3{fill-rule:evenodd;clip-rule:evenodd;fill:#F6F4F8;}
	.st4{fill-rule:evenodd;clip-rule:evenodd;fill:#F7F5F9;}
	.st5{fill-rule:evenodd;clip-rule:evenodd;fill:#F8F6FA;}
	.st6{fill-rule:evenodd;clip-rule:evenodd;fill:#F9F7FA;}
	.st7{fill-rule:evenodd;clip-rule:evenodd;fill:#FAF9FB;}
	.st8{fill-rule:evenodd;clip-rule:evenodd;fill:#FBDEDD;}
	.st9{fill-rule:evenodd;clip-rule:evenodd;fill:#FBFAFC;}
	.st10{fill-rule:evenodd;clip-rule:evenodd;fill:#FCFBFD;}
	.st11{fill-rule:evenodd;clip-rule:evenodd;fill:#FEFDFE;}
	.st12{fill-rule:evenodd;clip-rule:evenodd;fill:#FFFFFF;}
	.st13{fill-rule:evenodd;clip-rule:evenodd;fill:url(#SVGID_10_);}
	.st14{fill-rule:evenodd;clip-rule:evenodd;fill:url(#SVGID_11_);}
	.st15{fill-rule:evenodd;clip-rule:evenodd;fill:url(#SVGID_12_);}
	.st16{fill-rule:evenodd;clip-rule:evenodd;fill:url(#SVGID_13_);}
	.st17{fill-rule:evenodd;clip-rule:evenodd;fill:url(#SVGID_14_);}
	.st18{fill-rule:evenodd;clip-rule:evenodd;fill:url(#SVGID_15_);}
	.st19{fill-rule:evenodd;clip-rule:evenodd;fill:url(#SVGID_16_);}
	.st20{fill-rule:evenodd;clip-rule:evenodd;fill:url(#SVGID_17_);}
	.st21{fill-rule:evenodd;clip-rule:evenodd;fill:url(#SVGID_18_);}
	.st22{fill-rule:evenodd;clip-rule:evenodd;fill:url(#SVGID_19_);}
	.st23{fill-rule:evenodd;clip-rule:evenodd;fill:url(#SVGID_20_);}
	.st24{fill-rule:evenodd;clip-rule:evenodd;fill:url(#SVGID_21_);}
	.st25{fill-rule:evenodd;clip-rule:evenodd;fill:url(#SVGID_22_);}
	.st26{fill-rule:evenodd;clip-rule:evenodd;fill:url(#SVGID_23_);}
	.st27{fill-rule:evenodd;clip-rule:evenodd;fill:url(#SVGID_24_);}
	.st28{fill-rule:evenodd;clip-rule:evenodd;fill:url(#SVGID_25_);}
	.st29{fill-rule:evenodd;clip-rule:evenodd;fill:url(#SVGID_26_);}
	.st30{fill-rule:evenodd;clip-rule:evenodd;fill:url(#SVGID_27_);}
	.st31{fill-rule:evenodd;clip-rule:evenodd;fill:url(#SVGID_28_);}
	.st32{fill-rule:evenodd;clip-rule:evenodd;fill:url(#SVGID_29_);}
	.st33{fill-rule:evenodd;clip-rule:evenodd;fill:url(#SVGID_30_);}
	.st34{fill-rule:evenodd;clip-rule:evenodd;fill:url(#SVGID_31_);}
	.st35{fill-rule:evenodd;clip-rule:evenodd;fill:url(#SVGID_32_);}
	.st36{fill-rule:evenodd;clip-rule:evenodd;fill:url(#SVGID_33_);}
	.st37{fill-rule:evenodd;clip-rule:evenodd;fill:url(#SVGID_34_);}
	.st38{fill-rule:evenodd;clip-rule:evenodd;fill:url(#SVGID_35_);}
	.st39{fill-rule:evenodd;clip-rule:evenodd;fill:url(#SVGID_36_);}
	.st40{fill-rule:evenodd;clip-rule:evenodd;fill:url(#SVGID_37_);}
	.st41{fill-rule:evenodd;clip-rule:evenodd;fill:url(#SVGID_38_);}
	.st42{fill-rule:evenodd;clip-rule:evenodd;fill:url(#SVGID_39_);}
	.st43{fill-rule:evenodd;clip-rule:evenodd;fill:url(#SVGID_40_);}
	.st44{fill-rule:evenodd;clip-rule:evenodd;fill:url(#SVGID_41_);}
	.st45{fill-rule:evenodd;clip-rule:evenodd;fill:url(#SVGID_42_);}
	.st46{fill-rule:evenodd;clip-rule:evenodd;fill:url(#SVGID_43_);}
	.st47{fill-rule:evenodd;clip-rule:evenodd;fill:url(#SVGID_44_);}
	.st48{fill-rule:evenodd;clip-rule:evenodd;fill:url(#SVGID_45_);}
	.st49{fill-rule:evenodd;clip-rule:evenodd;fill:url(#SVGID_46_);}
	.st50{fill-rule:evenodd;clip-rule:evenodd;fill:url(#SVGID_47_);}
	.st51{fill-rule:evenodd;clip-rule:evenodd;fill:url(#SVGID_48_);}
	.st52{fill-rule:evenodd;clip-rule:evenodd;fill:url(#SVGID_49_);}
	.st53{fill-rule:evenodd;clip-rule:evenodd;fill:url(#SVGID_50_);}
	.st54{fill-rule:evenodd;clip-rule:evenodd;fill:url(#SVGID_51_);}
	.st55{fill-rule:evenodd;clip-rule:evenodd;fill:url(#SVGID_52_);}
	.st56{fill-rule:evenodd;clip-rule:evenodd;fill:url(#SVGID_53_);}
	.st57{fill-rule:evenodd;clip-rule:evenodd;fill:url(#SVGID_54_);}
	.st58{fill-rule:evenodd;clip-rule:evenodd;fill:url(#SVGID_55_);}
	.st59{fill-rule:evenodd;clip-rule:evenodd;fill:url(#SVGID_56_);}
	.st60{fill-rule:evenodd;clip-rule:evenodd;fill:url(#SVGID_57_);}
	.st61{fill-rule:evenodd;clip-rule:evenodd;fill:url(#SVGID_58_);}
	.st62{fill-rule:evenodd;clip-rule:evenodd;fill:url(#SVGID_59_);}
	.st63{fill-rule:evenodd;clip-rule:evenodd;fill:url(#SVGID_60_);}
	.st64{fill-rule:evenodd;clip-rule:evenodd;fill:url(#SVGID_61_);}
	.st65{fill-rule:evenodd;clip-rule:evenodd;fill:url(#SVGID_62_);}
	.st66{fill-rule:evenodd;clip-rule:evenodd;fill:url(#SVGID_63_);}
	.st67{fill-rule:evenodd;clip-rule:evenodd;fill:url(#SVGID_64_);}
	.st68{fill-rule:evenodd;clip-rule:evenodd;fill:url(#SVGID_65_);}
	.st69{fill-rule:evenodd;clip-rule:evenodd;fill:url(#SVGID_1_);}
	.st70{fill-rule:evenodd;clip-rule:evenodd;fill:url(#SVGID_2_);}
	.st71{fill-rule:evenodd;clip-rule:evenodd;fill:url(#SVGID_3_);}
	.st72{fill-rule:evenodd;clip-rule:evenodd;fill:url(#SVGID_4_);}
	.st73{fill-rule:evenodd;clip-rule:evenodd;fill:url(#SVGID_5_);}
	.st74{fill-rule:evenodd;clip-rule:evenodd;fill:url(#SVGID_6_);}
	.st75{fill-rule:evenodd;clip-rule:evenodd;fill:url(#SVGID_7_);}
	.st76{fill-rule:evenodd;clip-rule:evenodd;fill:url(#SVGID_8_);}
	.st77{fill-rule:evenodd;clip-rule:evenodd;fill:url(#SVGID_9_);}
	.st78{fill-rule:evenodd;clip-rule:evenodd;fill:#D02A2F;}
]]>
</style>
<g>
	<linearGradient id="SVGID_1_" gradientUnits="userSpaceOnUse" x1="34.498" y1="68.3384" x2="40.039" y2="36.9138">
		<stop  offset="0" style="stop-color:#772C2E"/>
		<stop  offset="0.24" style="stop-color:#742D2D"/>
		<stop  offset="0.64" style="stop-color:#B72830"/>
		<stop  offset="0.89" style="stop-color:#DE6473"/>
		<stop  offset="1" style="stop-color:#EDD6D9"/>
	</linearGradient>
	<polygon class="st69" points="37.678,2.874 42.62,4.402 43.652,4.805 44.647,5.277 45.605,5.821 46.525,6.436 47.407,7.113 
		48.251,7.857 49.055,8.66 49.816,9.521 50.539,10.44 51.218,11.414 51.854,12.44 52.445,13.516 52.993,14.639 53.495,15.806 
		53.95,17.018 54.358,18.268 54.719,19.559 55.031,20.884 55.292,22.245 55.506,23.635 55.667,25.056 55.777,26.504 55.832,27.978 
		55.833,29.473 55.783,30.986 55.679,32.52 55.515,34.068 55.296,35.629 55.02,37.201 54.685,38.783 54.288,40.372 53.843,41.945 
		53.346,43.482 52.803,44.986 52.215,46.45 51.586,47.874 50.914,49.256 50.204,50.594 49.458,51.891 48.68,53.14 47.862,54.341 
		47.017,55.491 46.138,56.594 45.233,57.642 44.305,58.639 43.349,59.577 42.372,60.46 41.372,61.283 40.358,62.047 39.322,62.747 
		38.273,63.385 37.213,63.958 36.14,64.465 35.057,64.902 33.967,65.271 32.869,65.567 31.768,65.792 30.666,65.941 29.561,66.015 
		28.458,66.01 27.358,65.927 26.267,65.763 25.179,65.516 20.234,63.987 21.322,64.234 22.416,64.398 23.516,64.48 24.617,64.486 
		25.721,64.412 26.823,64.264 27.927,64.041 29.021,63.742 30.111,63.374 31.195,62.937 32.269,62.431 33.332,61.858 34.381,61.219 
		35.412,60.519 36.43,59.754 37.429,58.931 38.404,58.049 39.36,57.108 40.288,56.115 41.194,55.064 42.07,53.965 42.918,52.811 
		43.734,51.609 44.515,50.362 45.263,49.066 45.973,47.729 46.641,46.344 47.271,44.92 47.858,43.456 48.399,41.954 48.898,40.416 
		49.346,38.844 49.741,37.255 50.075,35.673 50.352,34.1 50.571,32.539 50.734,30.991 50.84,29.458 50.89,27.943 50.89,26.449 
		50.833,24.977 50.721,23.527 50.561,22.106 50.35,20.715 50.088,19.355 49.774,18.03 49.414,16.738 49.007,15.488 48.552,14.277 
		48.048,13.108 47.502,11.987 46.909,10.91 46.274,9.886 45.594,8.91 44.874,7.994 44.11,7.132 43.309,6.328 42.463,5.587 
		41.582,4.909 40.659,4.295 39.702,3.75 38.707,3.275 	"/>
	<linearGradient id="SVGID_2_" gradientUnits="userSpaceOnUse" x1="39.8657" y1="33.3296" x2="51.7825" y2="8.8966">
		<stop  offset="0" style="stop-color:#772C2E"/>
		<stop  offset="0.49" style="stop-color:#742D2D"/>
		<stop  offset="0.64" style="stop-color:#B72830"/>
		<stop  offset="0.89" style="stop-color:#DE6473"/>
		<stop  offset="1" style="stop-color:#EDD6D9"/>
	</linearGradient>
	<path class="st70" d="M37.678,2.874c1.472,0.454,4.681,1.372,5.975,1.931c7.736,3.348,11.27,12.354,12.015,20.251
		c0.404,4.276,0.092,7.944-0.647,12.146l-5.13-0.654c1.836-8.655,1.384-19.065-3.615-26.661c-1.862-2.829-4.436-5.255-7.567-6.61
		L37.678,2.874z"/>
	<g>
		<linearGradient id="SVGID_3_" gradientUnits="userSpaceOnUse" x1="6.8252" y1="25.4062" x2="48.8174" y2="40.6902">
			<stop  offset="0" style="stop-color:#CB394F"/>
			<stop  offset="1" style="stop-color:#FFFFFF"/>
		</linearGradient>
		<path class="st71" d="M36.61,2.547c11.554,3.078,17.257,19.334,12.735,36.297c-4.523,16.964-17.558,28.222-29.111,25.144
			C8.681,60.907,2.976,44.652,7.499,27.69C12.021,10.727,25.057-0.533,36.61,2.547z"/>
		<linearGradient id="SVGID_4_" gradientUnits="userSpaceOnUse" x1="7.0439" y1="25.5161" x2="46.9427" y2="40.0381">
			<stop  offset="0" style="stop-color:#CD4655"/>
			<stop  offset="1" style="stop-color:#FFFCFB"/>
		</linearGradient>
		<path class="st72" d="M36.509,2.811C47.767,5.868,51.957,21.473,47.403,38.32C42.848,55.168,31.45,66.788,20.192,63.731
			C8.934,60.672,3.13,44.515,7.686,27.668C12.24,10.821,25.251-0.248,36.509,2.811z"/>
		<linearGradient id="SVGID_5_" gradientUnits="userSpaceOnUse" x1="7.2622" y1="25.625" x2="45.077" y2="39.3885">
			<stop  offset="0" style="stop-color:#D0515B"/>
			<stop  offset="1" style="stop-color:#FEF9F8"/>
		</linearGradient>
		<path class="st73" d="M36.409,3.075c10.961,3.037,13.638,17.99,9.052,34.722c-4.588,16.732-14.35,28.714-25.311,25.678
			C9.188,60.437,3.284,44.377,7.871,27.646C12.458,10.914,25.446,0.037,36.409,3.075z"/>
		<linearGradient id="SVGID_6_" gradientUnits="userSpaceOnUse" x1="7.481" y1="25.7354" x2="43.2306" y2="38.7471">
			<stop  offset="0" style="stop-color:#D25C62"/>
			<stop  offset="1" style="stop-color:#FEF7F6"/>
		</linearGradient>
		<path class="st74" d="M36.308,3.339c10.666,3.016,11.829,17.318,7.21,33.934C38.899,53.89,30.773,66.234,20.107,63.219
			C9.441,60.202,3.438,44.24,8.058,27.625C12.677,11.008,25.642,0.322,36.308,3.339z"/>
		<linearGradient id="SVGID_7_" gradientUnits="userSpaceOnUse" x1="7.6992" y1="25.8438" x2="41.4176" y2="38.1162">
			<stop  offset="0" style="stop-color:#D56669"/>
			<stop  offset="1" style="stop-color:#FEF5F4"/>
		</linearGradient>
		<path class="st75" d="M36.208,3.603c10.37,2.995,10.019,16.646,5.369,33.146C36.925,53.25,30.435,65.957,20.065,62.963
			C9.695,59.967,3.592,44.103,8.243,27.604C12.895,11.102,25.837,0.607,36.208,3.603z"/>
		<linearGradient id="SVGID_8_" gradientUnits="userSpaceOnUse" x1="7.9131" y1="25.9521" x2="39.6766" y2="37.5131">
			<stop  offset="0" style="stop-color:#D77070"/>
			<stop  offset="1" style="stop-color:#FEF3F2"/>
		</linearGradient>
		<path class="st76" d="M36.106,3.867c10.073,2.974,8.21,15.974,3.527,32.358c-4.684,16.386-9.537,29.454-19.61,26.48
			C9.949,59.731,3.746,43.966,8.43,27.581C13.113,11.196,26.032,0.892,36.106,3.867z"/>
		<linearGradient id="SVGID_9_" gradientUnits="userSpaceOnUse" x1="8.1221" y1="26.0586" x2="38.0768" y2="36.9612">
			<stop  offset="0" style="stop-color:#DA7978"/>
			<stop  offset="1" style="stop-color:#FEF1F0"/>
		</linearGradient>
		<path class="st77" d="M36.006,4.131c9.777,2.953,6.4,15.301,1.686,31.571c-4.715,16.27-7.933,29.701-17.711,26.749
			C10.203,59.497,3.901,43.829,8.616,27.56C13.332,11.29,26.228,1.177,36.006,4.131z"/>
		<linearGradient id="SVGID_10_" gradientUnits="userSpaceOnUse" x1="8.3252" y1="26.1621" x2="36.6841" y2="36.4839">
			<stop  offset="0" style="stop-color:#DD8280"/>
			<stop  offset="1" style="stop-color:#FDEFEE"/>
		</linearGradient>
		<path class="st13" d="M35.905,4.395c9.481,2.932,4.591,14.629-0.156,30.783c-4.747,16.155-6.329,29.948-15.811,27.016
			C10.457,59.262,4.055,43.691,8.802,27.538C13.55,11.384,26.422,1.462,35.905,4.395z"/>
		<linearGradient id="SVGID_11_" gradientUnits="userSpaceOnUse" x1="8.521" y1="26.2627" x2="35.5123" y2="36.0867">
			<stop  offset="0" style="stop-color:#E08B89"/>
			<stop  offset="1" style="stop-color:#FDEDEC"/>
		</linearGradient>
		<path class="st14" d="M35.804,4.659c9.186,2.911,2.782,13.958-1.998,29.996c-4.779,16.039-4.724,30.194-13.911,27.283
			C10.71,59.026,4.209,43.554,8.988,27.516C13.769,11.478,26.617,1.747,35.804,4.659z"/>
		<linearGradient id="SVGID_12_" gradientUnits="userSpaceOnUse" x1="8.7095" y1="26.3618" x2="34.532" y2="35.7604">
			<stop  offset="0" style="stop-color:#E39592"/>
			<stop  offset="1" style="stop-color:#FDEBEA"/>
		</linearGradient>
		<path class="st15" d="M35.703,4.923c8.89,2.891,0.973,13.286-3.839,29.208c-4.812,15.923-3.12,30.44-12.011,27.551
			c-8.89-2.891-15.49-18.265-10.679-34.188C13.987,11.571,26.812,2.032,35.703,4.923z"/>
		<linearGradient id="SVGID_13_" gradientUnits="userSpaceOnUse" x1="8.894" y1="26.459" x2="33.708" y2="35.4905">
			<stop  offset="0" style="stop-color:#E59E9B"/>
			<stop  offset="1" style="stop-color:#FCE9E8"/>
		</linearGradient>
		<path class="st16" d="M35.603,5.187c8.594,2.87-0.837,12.614-5.681,28.42c-4.844,15.808-1.516,30.687-10.11,27.818
			C11.217,58.556,4.517,43.279,9.36,27.473C14.205,11.665,27.007,2.317,35.603,5.187z"/>
		<linearGradient id="SVGID_14_" gradientUnits="userSpaceOnUse" x1="9.0757" y1="26.5557" x2="33.0083" y2="35.2664">
			<stop  offset="0" style="stop-color:#E8A8A5"/>
			<stop  offset="1" style="stop-color:#FCE7E6"/>
		</linearGradient>
		<path class="st17" d="M35.502,5.451C43.8,8.3,32.855,17.393,27.979,33.084c-4.875,15.691,0.088,30.934-8.21,28.085
			C11.471,58.321,4.671,43.142,9.547,27.451C14.424,11.759,27.203,2.603,35.502,5.451z"/>
		<linearGradient id="SVGID_15_" gradientUnits="userSpaceOnUse" x1="9.252" y1="26.6494" x2="32.4023" y2="35.0754">
			<stop  offset="0" style="stop-color:#EBB3B0"/>
			<stop  offset="1" style="stop-color:#FCE6E4"/>
		</linearGradient>
		<path class="st18" d="M35.401,5.716c8.001,2.827-4.456,11.269-9.364,26.845c-4.907,15.576,1.692,31.18-6.311,28.353
			c-8.002-2.828-14.9-17.909-9.993-33.484C14.642,11.854,27.397,2.887,35.401,5.716z"/>
		<linearGradient id="SVGID_16_" gradientUnits="userSpaceOnUse" x1="9.4248" y1="26.7432" x2="31.8748" y2="34.9143">
			<stop  offset="0" style="stop-color:#EFBDBA"/>
			<stop  offset="1" style="stop-color:#FCE4E3"/>
		</linearGradient>
		<path class="st19" d="M35.3,5.979c7.706,2.807-6.265,10.597-11.206,26.057c-4.939,15.46,3.297,31.426-4.41,28.621
			c-7.706-2.807-14.705-17.79-9.766-33.25C14.86,11.947,27.592,3.172,35.3,5.979z"/>
		<linearGradient id="SVGID_17_" gradientUnits="userSpaceOnUse" x1="9.5967" y1="26.8354" x2="31.4076" y2="34.774">
			<stop  offset="0" style="stop-color:#F2C8C6"/>
			<stop  offset="1" style="stop-color:#FBE2E1"/>
		</linearGradient>
		<path class="st20" d="M35.2,6.244c7.409,2.786-8.075,9.925-13.047,25.27c-4.971,15.344,4.901,31.673-2.51,28.888
			c-7.41-2.786-14.508-17.671-9.537-33.016C15.079,12.041,27.788,3.457,35.2,6.244z"/>
		<linearGradient id="SVGID_18_" gradientUnits="userSpaceOnUse" x1="9.7666" y1="26.9268" x2="30.9903" y2="34.6516">
			<stop  offset="0" style="stop-color:#F6D3D1"/>
			<stop  offset="1" style="stop-color:#FBE0DF"/>
		</linearGradient>
		<path class="st21" d="M35.099,6.507c7.113,2.765-9.884,9.253-14.889,24.482c-5.003,15.229,6.505,31.92-0.61,29.156
			c-7.114-2.764-14.312-17.553-9.309-32.781C15.297,12.134,27.983,3.742,35.099,6.507z"/>
		<path class="st8" d="M34.998,6.771c6.817,2.744-11.693,8.581-16.73,23.694c-5.035,15.113,8.109,32.166,1.29,29.423
			c-6.818-2.743-14.115-17.434-9.08-32.547C15.516,12.229,28.178,4.027,34.998,6.771z"/>
	</g>
	<linearGradient id="SVGID_19_" gradientUnits="userSpaceOnUse" x1="28.8838" y1="6.8555" x2="27.9588" y2="59.8505">
		<stop  offset="0" style="stop-color:#772C2E"/>
		<stop  offset="0.24" style="stop-color:#742D2D"/>
		<stop  offset="0.64" style="stop-color:#B72830"/>
		<stop  offset="0.89" style="stop-color:#DE6473"/>
		<stop  offset="1" style="stop-color:#EDD6D9"/>
	</linearGradient>
	<path class="st22" d="M35.509,6.684c10,2.663,14.934,16.729,11.019,31.408c-3.91,14.679-15.193,24.424-25.188,21.759
		c-10-2.665-14.937-16.73-11.021-31.409C14.23,13.76,25.512,4.019,35.509,6.684z"/>
	<g>
		<linearGradient id="SVGID_20_" gradientUnits="userSpaceOnUse" x1="28.5894" y1="7.5952" x2="27.706" y2="58.2044">
			<stop  offset="0" style="stop-color:#772C2E"/>
			<stop  offset="0.24" style="stop-color:#742D2D"/>
			<stop  offset="0.64" style="stop-color:#B72830"/>
			<stop  offset="0.89" style="stop-color:#DE6473"/>
			<stop  offset="1" style="stop-color:#EDD6D9"/>
		</linearGradient>
		<path class="st23" d="M34.858,7.414c9.528,2.539,14.232,15.944,10.503,29.935c-3.727,13.99-15.115,23.408-24.645,20.867
			c-9.527-2.539-12.649-15.569-10.299-29.684C12.771,14.417,25.331,4.874,34.858,7.414z"/>
		<linearGradient id="SVGID_21_" gradientUnits="userSpaceOnUse" x1="28.647" y1="7.6665" x2="27.765" y2="58.1939">
			<stop  offset="0" style="stop-color:#742C2E"/>
			<stop  offset="0.24" style="stop-color:#712D2D"/>
			<stop  offset="0.64" style="stop-color:#B22830"/>
			<stop  offset="0.89" style="stop-color:#DC606E"/>
			<stop  offset="1" style="stop-color:#ECCFD1"/>
		</linearGradient>
		<path class="st24" d="M34.858,7.414c9.528,2.539,14.232,15.944,10.503,29.935c-3.727,13.99-15.004,23.354-24.299,20.859
			c-9.294-2.494-12.921-15.569-10.57-29.684C12.844,14.409,25.331,4.874,34.858,7.414z"/>
		<linearGradient id="SVGID_22_" gradientUnits="userSpaceOnUse" x1="28.7017" y1="7.7373" x2="27.8211" y2="58.1825">
			<stop  offset="0" style="stop-color:#722C2E"/>
			<stop  offset="0.24" style="stop-color:#6E2D2D"/>
			<stop  offset="0.64" style="stop-color:#AE2930"/>
			<stop  offset="0.89" style="stop-color:#D95D69"/>
			<stop  offset="1" style="stop-color:#EBC7C9"/>
		</linearGradient>
		<path class="st25" d="M34.858,7.414c9.528,2.539,14.232,15.944,10.503,29.935c-3.727,13.99-14.893,23.301-23.955,20.851
			c-9.06-2.448-13.192-15.569-10.841-29.684C12.918,14.4,25.331,4.874,34.858,7.414z"/>
		<linearGradient id="SVGID_23_" gradientUnits="userSpaceOnUse" x1="28.7549" y1="7.8091" x2="27.8758" y2="58.1726">
			<stop  offset="0" style="stop-color:#6F2C2E"/>
			<stop  offset="0.24" style="stop-color:#6C2C2D"/>
			<stop  offset="0.64" style="stop-color:#AA2930"/>
			<stop  offset="0.89" style="stop-color:#D65964"/>
			<stop  offset="1" style="stop-color:#EAC0C2"/>
		</linearGradient>
		<path class="st26" d="M34.858,7.414c9.528,2.539,14.232,15.944,10.503,29.935c-3.727,13.99-14.782,23.246-23.61,20.843
			C12.926,55.789,8.289,42.622,10.64,28.508C12.992,14.393,25.331,4.874,34.858,7.414z"/>
		<linearGradient id="SVGID_24_" gradientUnits="userSpaceOnUse" x1="28.8052" y1="7.8799" x2="27.9275" y2="58.1612">
			<stop  offset="0" style="stop-color:#6C2C2E"/>
			<stop  offset="0.24" style="stop-color:#692C2D"/>
			<stop  offset="0.64" style="stop-color:#A62A30"/>
			<stop  offset="0.89" style="stop-color:#D45660"/>
			<stop  offset="1" style="stop-color:#EAB8BB"/>
		</linearGradient>
		<path class="st27" d="M34.858,7.414c9.528,2.539,14.232,15.944,10.503,29.935c-3.727,13.99-14.671,23.192-23.265,20.834
			c-8.592-2.356-13.734-15.568-11.383-29.684C13.066,14.385,25.331,4.874,34.858,7.414z"/>
		<linearGradient id="SVGID_25_" gradientUnits="userSpaceOnUse" x1="28.855" y1="7.9512" x2="27.9787" y2="58.1509">
			<stop  offset="0" style="stop-color:#692B2E"/>
			<stop  offset="0.24" style="stop-color:#672C2D"/>
			<stop  offset="0.64" style="stop-color:#A22A30"/>
			<stop  offset="0.89" style="stop-color:#D1525C"/>
			<stop  offset="1" style="stop-color:#E8B1B4"/>
		</linearGradient>
		<path class="st28" d="M34.858,7.414c9.528,2.539,14.232,15.944,10.503,29.935c-3.727,13.99-14.56,23.139-22.92,20.826
			c-8.358-2.312-14.005-15.569-11.653-29.684C13.14,14.376,25.331,4.874,34.858,7.414z"/>
		<linearGradient id="SVGID_26_" gradientUnits="userSpaceOnUse" x1="28.9023" y1="8.0215" x2="28.0275" y2="58.1402">
			<stop  offset="0" style="stop-color:#672B2E"/>
			<stop  offset="0.24" style="stop-color:#642B2D"/>
			<stop  offset="0.64" style="stop-color:#9E2B30"/>
			<stop  offset="0.89" style="stop-color:#CF4E57"/>
			<stop  offset="1" style="stop-color:#E7A9AD"/>
		</linearGradient>
		<path class="st29" d="M34.858,7.414c9.528,2.539,14.232,15.944,10.503,29.935c-3.727,13.99-14.449,23.084-22.575,20.818
			C14.663,55.901,8.51,42.597,10.862,28.483C13.213,14.369,25.331,4.874,34.858,7.414z"/>
		<linearGradient id="SVGID_27_" gradientUnits="userSpaceOnUse" x1="28.9492" y1="8.0928" x2="28.0758" y2="58.1295">
			<stop  offset="0" style="stop-color:#642B2D"/>
			<stop  offset="0.24" style="stop-color:#622B2D"/>
			<stop  offset="0.64" style="stop-color:#9A2B2F"/>
			<stop  offset="0.89" style="stop-color:#CC4A53"/>
			<stop  offset="1" style="stop-color:#E7A2A6"/>
		</linearGradient>
		<path class="st30" d="M34.858,7.414c9.528,2.539,14.232,15.944,10.503,29.935c-3.727,13.99-14.338,23.031-22.23,20.81
			c-7.89-2.22-14.547-15.569-12.194-29.684C13.287,14.36,25.331,4.874,34.858,7.414z"/>
		<linearGradient id="SVGID_28_" gradientUnits="userSpaceOnUse" x1="28.9946" y1="8.1636" x2="28.1226" y2="58.1193">
			<stop  offset="0" style="stop-color:#612B2D"/>
			<stop  offset="0.24" style="stop-color:#5F2B2D"/>
			<stop  offset="0.64" style="stop-color:#972C2F"/>
			<stop  offset="0.89" style="stop-color:#CA474F"/>
			<stop  offset="1" style="stop-color:#E69B9F"/>
		</linearGradient>
		<path class="st31" d="M34.858,7.414c9.528,2.539,14.232,15.944,10.503,29.935c-3.727,13.99-14.227,22.977-21.885,20.801
			C15.82,55.976,8.658,42.581,11.01,28.466C13.361,14.352,25.331,4.874,34.858,7.414z"/>
		<linearGradient id="SVGID_29_" gradientUnits="userSpaceOnUse" x1="29.0396" y1="8.2339" x2="28.169" y2="58.1083">
			<stop  offset="0" style="stop-color:#5E2A2D"/>
			<stop  offset="0.24" style="stop-color:#5D2A2D"/>
			<stop  offset="0.64" style="stop-color:#932C2F"/>
			<stop  offset="0.89" style="stop-color:#C7434A"/>
			<stop  offset="1" style="stop-color:#E59499"/>
		</linearGradient>
		<path class="st32" d="M34.858,7.414c9.528,2.539,14.232,15.944,10.503,29.935c-3.727,13.99-14.116,22.923-21.54,20.793
			c-7.423-2.129-15.09-15.569-12.737-29.684C13.435,14.344,25.331,4.874,34.858,7.414z"/>
		<linearGradient id="SVGID_30_" gradientUnits="userSpaceOnUse" x1="29.083" y1="8.3047" x2="28.2139" y2="58.0982">
			<stop  offset="0" style="stop-color:#5C2A2D"/>
			<stop  offset="0.24" style="stop-color:#5A2A2D"/>
			<stop  offset="0.64" style="stop-color:#8F2C2F"/>
			<stop  offset="0.89" style="stop-color:#C53F46"/>
			<stop  offset="1" style="stop-color:#E48D93"/>
		</linearGradient>
		<path class="st33" d="M34.858,7.414c9.528,2.539,14.232,15.944,10.503,29.935c-3.727,13.99-14.005,22.869-21.195,20.785
			C16.978,56.05,8.805,42.565,11.158,28.45C13.509,14.336,25.331,4.874,34.858,7.414z"/>
		<linearGradient id="SVGID_31_" gradientUnits="userSpaceOnUse" x1="29.127" y1="8.3745" x2="28.2592" y2="58.0872">
			<stop  offset="0" style="stop-color:#592A2D"/>
			<stop  offset="0.24" style="stop-color:#582A2D"/>
			<stop  offset="0.64" style="stop-color:#8C2C2F"/>
			<stop  offset="0.89" style="stop-color:#C33C42"/>
			<stop  offset="1" style="stop-color:#E3868D"/>
		</linearGradient>
		<path class="st34" d="M34.858,7.414c9.528,2.539,14.232,15.944,10.503,29.935c-3.727,13.99-13.894,22.815-20.851,20.776
			c-6.955-2.037-15.632-15.568-13.278-29.684C13.583,14.328,25.331,4.874,34.858,7.414z"/>
		<linearGradient id="SVGID_32_" gradientUnits="userSpaceOnUse" x1="29.1694" y1="8.4453" x2="28.3031" y2="58.0773">
			<stop  offset="0" style="stop-color:#56292D"/>
			<stop  offset="0.24" style="stop-color:#55292C"/>
			<stop  offset="0.64" style="stop-color:#882C2E"/>
			<stop  offset="0.89" style="stop-color:#C0383E"/>
			<stop  offset="1" style="stop-color:#E28087"/>
		</linearGradient>
		<path class="st35" d="M34.858,7.414c9.528,2.539,14.232,15.944,10.503,29.935c-3.727,13.99-13.783,22.761-20.505,20.769
			c-6.721-1.992-15.903-15.569-13.549-29.684C13.656,14.32,25.331,4.874,34.858,7.414z"/>
		<linearGradient id="SVGID_33_" gradientUnits="userSpaceOnUse" x1="29.2114" y1="8.5156" x2="28.3465" y2="58.0674">
			<stop  offset="0" style="stop-color:#54292D"/>
			<stop  offset="0.24" style="stop-color:#53292C"/>
			<stop  offset="0.64" style="stop-color:#842D2E"/>
			<stop  offset="0.89" style="stop-color:#BE343A"/>
			<stop  offset="1" style="stop-color:#E17982"/>
		</linearGradient>
		<path class="st36" d="M34.858,7.414c9.528,2.539,14.232,15.944,10.503,29.935c-3.727,13.99-13.672,22.708-20.161,20.76
			C18.714,56.162,9.026,42.54,11.38,28.425C13.73,14.312,25.331,4.874,34.858,7.414z"/>
		<linearGradient id="SVGID_34_" gradientUnits="userSpaceOnUse" x1="29.2529" y1="8.5859" x2="28.3894" y2="58.0566">
			<stop  offset="0" style="stop-color:#51282C"/>
			<stop  offset="0.24" style="stop-color:#51282C"/>
			<stop  offset="0.64" style="stop-color:#812D2E"/>
			<stop  offset="0.89" style="stop-color:#BC3036"/>
			<stop  offset="1" style="stop-color:#E0717C"/>
		</linearGradient>
		<path class="st37" d="M34.858,7.414c9.528,2.539,14.232,15.944,10.503,29.935C41.635,51.339,31.8,60.002,25.546,58.101
			C19.293,56.2,9.101,42.532,11.455,28.417C13.804,14.304,25.331,4.874,34.858,7.414z"/>
		<linearGradient id="SVGID_35_" gradientUnits="userSpaceOnUse" x1="29.2939" y1="8.6562" x2="28.4318" y2="58.0472">
			<stop  offset="0" style="stop-color:#4E282C"/>
			<stop  offset="0.24" style="stop-color:#4E282C"/>
			<stop  offset="0.64" style="stop-color:#7D2D2E"/>
			<stop  offset="0.89" style="stop-color:#B92C33"/>
			<stop  offset="1" style="stop-color:#DF6A77"/>
		</linearGradient>
		<path class="st38" d="M34.858,7.414c9.528,2.539,14.232,15.944,10.503,29.935c-3.727,13.99-13.45,22.6-19.471,20.744
			c-6.019-1.855-16.716-15.568-14.362-29.684C13.878,14.295,25.331,4.874,34.858,7.414z"/>
		<linearGradient id="SVGID_36_" gradientUnits="userSpaceOnUse" x1="29.3345" y1="8.7266" x2="28.4738" y2="58.037">
			<stop  offset="0" style="stop-color:#4C272C"/>
			<stop  offset="0.24" style="stop-color:#4C272C"/>
			<stop  offset="0.64" style="stop-color:#7A2D2E"/>
			<stop  offset="0.89" style="stop-color:#B72830"/>
			<stop  offset="1" style="stop-color:#DE6272"/>
		</linearGradient>
		<path class="st39" d="M34.858,7.414c9.528,2.539,14.232,15.944,10.503,29.935c-3.727,13.99-13.339,22.546-19.126,20.735
			C20.45,56.274,9.248,42.516,11.603,28.4C13.952,14.287,25.331,4.874,34.858,7.414z"/>
	</g>
	<linearGradient id="SVGID_37_" gradientUnits="userSpaceOnUse" x1="21.1797" y1="58.8521" x2="45.915" y2="12.3317">
		<stop  offset="0" style="stop-color:#CB394F"/>
		<stop  offset="1" style="stop-color:#FFFFFF"/>
	</linearGradient>
	<path class="st40" d="M36.61,2.545c11.554,3.08,17.257,19.336,12.735,36.299c-4.05,15.192-14.927,25.809-25.456,25.646
		c10.381-0.147,21.008-10.673,24.997-25.646c4.522-16.963-1.181-33.219-12.732-36.299c-1.205-0.32-2.427-0.483-3.654-0.502
		C33.881,2.024,35.255,2.186,36.61,2.545z"/>
	<g>
		<path class="st2" d="M39.583,12.856c2.312,0.616,4.355,1.847,6.081,3.55c2.502,5.89,2.995,13.697,0.865,21.686
			c-1.931,7.247-5.659,13.291-10.142,17.233s-9.721,5.781-14.672,4.62c-3.848-1.942-6.725-5.762-8.348-10.638
			c-0.631-4.518-0.345-9.566,1.02-14.691c1.957-7.339,5.756-13.445,10.316-17.383C29.263,13.294,34.583,11.524,39.583,12.856z"/>
		<path class="st3" d="M21.734,59.89c-3.839-1.938-6.709-5.748-8.329-10.613c-0.629-4.507-0.344-9.544,1.018-14.658
			c1.953-7.323,5.743-13.414,10.292-17.343c4.314-3.725,9.31-5.505,14.068-4.544c0.293,0.059,0.586,0.129,0.877,0.209
			c1.887,0.52,3.592,1.451,5.089,2.715c0.243,0.234,0.477,0.486,0.702,0.754c0.8,3.219,0.995,7.365,0.359,11.947
			c-0.362,2.608-0.99,5.367-1.863,8.192c-0.644,2.103-1.408,4.131-2.27,6.056c-2.016,4.501-4.556,8.449-7.375,11.416
			c-0.362,0.381-0.735,0.738-1.108,1.085C29.491,58.549,25.446,60.385,21.734,59.89z"/>
		<path class="st4" d="M21.754,59.836c-3.83-1.933-6.694-5.735-8.31-10.588c-0.627-4.497-0.342-9.522,1.016-14.624
			c1.948-7.306,5.73-13.383,10.269-17.303c4.333-3.742,9.355-5.517,14.131-4.512c0.294,0.062,0.588,0.135,0.879,0.217
			c1.889,0.538,3.593,1.49,5.085,2.777c0.146,0.187,0.284,0.391,0.416,0.612c-0.001,2.67-0.396,6.417-1.456,10.696
			c-0.611,2.467-1.446,5.125-2.417,7.896c-0.716,2.044-1.505,4.048-2.361,5.976c-1.99,4.476-4.298,8.555-6.788,11.734
			c-0.312,0.399-0.642,0.773-0.963,1.14C28.039,57.525,24.68,59.771,21.754,59.836z"/>
		<path class="st5" d="M21.773,59.782c-3.82-1.928-6.678-5.721-8.29-10.564c-0.626-4.486-0.342-9.5,1.014-14.59
			c1.943-7.289,5.716-13.354,10.245-17.264c4.352-3.758,9.401-5.526,14.194-4.479c0.296,0.064,0.59,0.14,0.882,0.226
			c1.891,0.555,3.593,1.527,5.082,2.837c0.048,0.139,0.091,0.296,0.129,0.47c-0.801,2.123-1.794,5.473-3.271,9.445
			c-0.865,2.328-1.896,4.883-2.971,7.602c-0.785,1.985-1.602,3.965-2.452,5.894c-1.964,4.451-4.04,8.658-6.2,12.055
			c-0.265,0.416-0.549,0.808-0.821,1.195C26.583,56.5,23.914,59.156,21.773,59.782z"/>
		<path class="st6" d="M21.793,59.728c-3.812-1.923-6.663-5.708-8.272-10.539c-0.624-4.476-0.34-9.479,1.012-14.556
			c1.939-7.273,5.704-13.323,10.222-17.224c4.371-3.774,9.447-5.537,14.256-4.447c0.297,0.067,0.592,0.146,0.884,0.233
			c1.892,0.573,3.594,1.566,5.078,2.899c-0.05,0.092-0.103,0.202-0.157,0.328c-1.602,1.575-3.203,4.527-5.086,8.194
			c-1.125,2.19-2.346,4.642-3.525,7.306c-0.853,1.928-1.699,3.882-2.543,5.813c-1.938,4.425-3.793,8.748-5.613,12.374
			c-0.217,0.433-0.455,0.843-0.677,1.25C25.132,55.48,23.148,58.542,21.793,59.728z"/>
		<path class="st7" d="M21.813,59.673c-3.803-1.919-6.647-5.694-8.252-10.514c-0.622-4.466-0.339-9.457,1.01-14.523
			c1.934-7.255,5.69-13.292,10.197-17.184c4.39-3.791,9.493-5.548,14.319-4.416c0.299,0.071,0.595,0.152,0.887,0.243
			c1.894,0.591,3.594,1.604,5.075,2.959c-0.147,0.045-0.295,0.108-0.444,0.188c-2.402,1.027-4.621,3.579-6.901,6.942
			c-1.39,2.05-2.793,4.402-4.078,7.011c-0.92,1.87-1.796,3.798-2.635,5.731c-1.912,4.4-3.556,8.833-5.026,12.693
			c-0.17,0.448-0.361,0.878-0.533,1.306C23.684,54.462,22.382,57.928,21.813,59.673z"/>
		<path class="st9" d="M21.833,59.619c-3.794-1.914-6.632-5.681-8.234-10.489c-0.621-4.455-0.338-9.435,1.008-14.489
			c1.93-7.239,5.676-13.261,10.173-17.145c4.409-3.808,9.539-5.559,14.382-4.383c0.301,0.073,0.597,0.156,0.89,0.25
			c1.896,0.609,3.594,1.643,5.071,3.021c-0.245-0.003-0.488,0.013-0.73,0.046c-3.202,0.479-6.045,2.624-8.717,5.691
			c-1.659,1.905-3.241,4.161-4.632,6.716c-0.987,1.812-1.893,3.715-2.726,5.65c-1.886,4.375-3.328,8.917-4.438,13.013
			c-0.125,0.462-0.267,0.913-0.39,1.36C22.236,53.445,21.616,57.313,21.833,59.619z"/>
		<path class="st10" d="M21.853,59.565c-3.786-1.91-6.617-5.667-8.215-10.465c-0.619-4.445-0.336-9.412,1.006-14.456
			c1.926-7.222,5.664-13.23,10.151-17.104c4.427-3.824,9.583-5.568,14.444-4.351c0.301,0.076,0.598,0.162,0.892,0.259
			c1.897,0.626,3.594,1.681,5.067,3.082c-0.342-0.05-0.681-0.082-1.017-0.096c-4.003-0.069-7.474,1.661-10.532,4.44
			c-1.932,1.755-3.687,3.922-5.186,6.421c-1.053,1.755-1.99,3.632-2.817,5.569c-1.859,4.35-3.112,9-3.851,13.333
			c-0.082,0.478-0.172,0.948-0.245,1.416C20.798,52.429,20.85,56.699,21.853,59.565z"/>
		<path class="st11" d="M21.872,59.511c-3.776-1.904-6.602-5.653-8.196-10.44c-0.617-4.435-0.336-9.391,1.004-14.421
			c1.921-7.206,5.65-13.2,10.126-17.065c4.447-3.84,9.63-5.579,14.508-4.318c0.303,0.079,0.601,0.168,0.894,0.267
			c1.899,0.645,3.595,1.72,5.064,3.144c-0.44-0.098-0.875-0.176-1.303-0.237c-4.804-0.617-8.905,0.691-12.347,3.189
			c-2.205,1.601-4.13,3.686-5.74,6.125c-1.116,1.7-2.086,3.548-2.908,5.488c-1.833,4.324-2.906,9.086-3.264,13.651
			c-0.039,0.494-0.077,0.984-0.102,1.471C19.369,51.41,20.084,56.085,21.872,59.511z"/>
		<path class="st12" d="M39.39,13.342c2.269,0.607,4.266,1.81,5.957,3.479c-6.305-1.695-11.566-0.875-15.752,1.559
			c-4.185,2.434-7.294,6.48-9.292,11.237s-2.888,10.224-2.634,15.498c0.254,5.274,1.65,10.356,4.224,14.342
			c-3.768-1.9-6.586-5.641-8.177-10.416c-0.615-4.424-0.335-9.368,1.002-14.388c1.917-7.189,5.637-13.169,10.103-17.025
			S34.495,12.038,39.39,13.342z"/>
	</g>
	<linearGradient id="SVGID_38_" gradientUnits="userSpaceOnUse" x1="29.2891" y1="32.1172" x2="23.3622" y2="8.346">
		<stop  offset="0" style="stop-color:#DAD6E0"/>
		<stop  offset="1" style="stop-color:#96929B"/>
	</linearGradient>
	<path class="st41" d="M13.367,49.306c-1.869-5.62-2.073-12.644-0.16-19.813C17.07,15,28.111,5.32,38.013,7.639
		c3.345,1.684,5.956,4.788,7.646,8.768c-1.722-1.703-3.765-2.934-6.076-3.55c-7.855-2.093-16.502,3.472-21.745,13.07
		c2.485-0.381,6.659,0.487,6.659,0.487l3.732,5.947c0,0,0.316,4-3.787,0.527c-2.934-2.487-6.867-2.305-8.865-1.997
		c-0.447,1.201-0.845,2.442-1.19,3.724C13.024,39.739,12.736,44.788,13.367,49.306L13.367,49.306z M26.184,60.207
		c-0.081,0.009-0.162,0.018-0.245,0.025C26.02,60.225,26.103,60.216,26.184,60.207L26.184,60.207z M24.802,60.287
		c-0.091,0-0.185,0.001-0.276,0C24.617,60.288,24.711,60.287,24.802,60.287L24.802,60.287z M23.896,60.261
		c-0.104-0.005-0.209-0.011-0.312-0.021C23.688,60.25,23.792,60.256,23.896,60.261L23.896,60.261z M22.913,60.164
		c-0.09-0.013-0.179-0.023-0.265-0.037C22.734,60.141,22.823,60.151,22.913,60.164z"/>
	
		<ellipse transform="matrix(0.2575 -0.9663 0.9663 0.2575 15.4862 45.1594)" class="st0" cx="37.128" cy="12.503" rx="1.855" ry="1.262"/>
	
		<ellipse transform="matrix(0.2571 -0.9664 0.9664 0.2571 -35.3021 66.3398)" class="st0" cx="25.499" cy="56.132" rx="1.853" ry="1.262"/>
	<path class="st0" d="M15.236,30.031c0.264-0.986,1.024-1.644,1.694-1.464c0.676,0.18,1.008,1.126,0.746,2.115
		c-0.265,0.987-1.024,1.646-1.699,1.467C15.305,31.969,14.973,31.021,15.236,30.031z"/>
	<linearGradient id="SVGID_39_" gradientUnits="userSpaceOnUse" x1="42.6709" y1="9.7773" x2="29.7538" y2="57.9846">
		<stop  offset="0" style="stop-color:#CB394F"/>
		<stop  offset="1" style="stop-color:#FFFFFF"/>
	</linearGradient>
	<path class="st42" d="M35.686,6.691C45.518,9.35,50.371,23.39,46.522,38.04C43.078,51.162,33.82,60.331,24.861,60.191
		c8.835-0.125,17.878-9.217,21.273-22.151c3.848-14.65-1.004-28.69-10.839-31.349c-1.025-0.278-2.064-0.418-3.106-0.436
		C33.363,6.239,34.532,6.379,35.686,6.691z"/>
	<polygon class="st78" points="7.865,15.041 9.571,17.244 10.54,12.859 9.075,9.559 	"/>
	<polygon class="st78" points="5.306,26.612 7.525,26.503 8.428,22.426 6.434,21.516 	"/>
	<linearGradient id="SVGID_40_" gradientUnits="userSpaceOnUse" x1="22.0508" y1="31.1973" x2="11.1858" y2="26.8075">
		<stop  offset="0" style="stop-color:#D02A2F"/>
		<stop  offset="0.51" style="stop-color:#E16D2C"/>
		<stop  offset="0.76" style="stop-color:#DC5F2D"/>
		<stop  offset="1" style="stop-color:#E78629"/>
	</linearGradient>
	<path class="st43" d="M6.434,21.516l1.994,0.91l2.866,0.729c5.863,1.722,10.733,4.954,12.936,10.902l0.29,0.847l2.027,2.209
		c-1.045-3.06-2.285-5.442-4.52-7.826C17.812,24.795,12.25,22.849,6.434,21.516z"/>
	<linearGradient id="SVGID_41_" gradientUnits="userSpaceOnUse" x1="26.7788" y1="27.3281" x2="1.3041" y2="15.9861">
		<stop  offset="0" style="stop-color:#FFCB05"/>
		<stop  offset="0.27" style="stop-color:#E16D2C"/>
		<stop  offset="0.39" style="stop-color:#DC5F2D"/>
		<stop  offset="0.58" style="stop-color:#F8BA1A"/>
		<stop  offset="1" style="stop-color:#FFFFFF"/>
	</linearGradient>
	<path class="st44" d="M31.018,29.414c-4.402-6.593-16.579-11.493-23.152-14.373l1.21-5.482l-7.389,7.824l3.619,9.229l1.128-5.097
		c5.491,1.246,16.485,4.055,20.113,15.597C28.036,34.546,29.527,31.979,31.018,29.414z"/>
	<linearGradient id="SVGID_42_" gradientUnits="userSpaceOnUse" x1="28.9526" y1="24.5381" x2="27.1475" y2="31.778">
		<stop  offset="0" style="stop-color:#FFCB05"/>
		<stop  offset="1" style="stop-color:#FFFFFF"/>
	</linearGradient>
	<path class="st45" d="M31.018,29.414c-1.243-1.857-3.098-3.581-5.275-5.161c0.145,0.396,0.208,0.955,0.017,1.714
		c-0.473,1.868-1.288,3.973,2.103,5.842c0.574,0.318,1.105,0.39,1.592,0.295L31.018,29.414z"/>
	<linearGradient id="SVGID_43_" gradientUnits="userSpaceOnUse" x1="7.4297" y1="9.3872" x2="8.8359" y2="18.2655">
		<stop  offset="0" style="stop-color:#FFCB05"/>
		<stop  offset="1" style="stop-color:#FFFFFF"/>
	</linearGradient>
	<path class="st46" d="M15.902,18.626c-2.976-1.416-5.822-2.616-8.037-3.585l1.21-5.482l-7.389,7.824l0.52,1.324
		c2.971,0.774,6.869,1.466,10.67,1.18C14.23,19.786,15.207,19.32,15.902,18.626z"/>
	<linearGradient id="SVGID_44_" gradientUnits="userSpaceOnUse" x1="30.6006" y1="44.1816" x2="29.245" y2="33.1409">
		<stop  offset="0" style="stop-color:#DAD6E0"/>
		<stop  offset="1" style="stop-color:#96929B"/>
	</linearGradient>
	<path class="st47" d="M29.818,56.7l-3.217-4.973l1.346-0.295c0.887-2.427,2.655-9.524,1.96-13.142
		c0.398,0.103,0.772-0.036,1.119-0.336c-0.522,0.219-1.068,0.275-1.59,0.135c-1.74-0.465-2.601-2.913-1.92-5.467
		c0.683-2.557,2.646-4.251,4.385-3.788c1.74,0.464,2.6,2.912,1.919,5.467c-0.05,0.185-0.105,0.365-0.169,0.54
		c0.265,4.335-0.265,10.786,0.118,13.196l0.979,1.361L29.818,56.7z"/>
	<linearGradient id="SVGID_45_" gradientUnits="userSpaceOnUse" x1="31.166" y1="29.8853" x2="28.7963" y2="38.1494">
		<stop  offset="0" style="stop-color:#D02A2F"/>
		<stop  offset="0.4" style="stop-color:#A92C31"/>
		<stop  offset="0.51" style="stop-color:#E16D2C"/>
		<stop  offset="0.76" style="stop-color:#F6B11D"/>
		<stop  offset="1" style="stop-color:#CA542F"/>
	</linearGradient>
	<polygon class="st48" points="28.288,27.914 31.409,28.892 31.726,29 32.019,29.154 32.29,29.351 32.539,29.583 32.762,29.85 
		32.96,30.152 33.134,30.484 33.277,30.842 33.392,31.225 33.479,31.63 33.535,32.053 33.56,32.492 33.551,32.946 33.512,33.409 
		33.438,33.882 33.327,34.358 33.185,34.828 33.015,35.275 32.82,35.697 32.6,36.096 32.36,36.464 32.1,36.804 31.823,37.112 
		31.531,37.386 31.229,37.625 30.916,37.826 30.594,37.989 30.265,38.111 29.936,38.189 29.602,38.223 29.271,38.209 28.942,38.147 
		25.82,37.169 26.149,37.23 26.482,37.244 26.814,37.211 27.142,37.133 27.473,37.01 27.795,36.847 28.106,36.646 28.409,36.407 
		28.7,36.134 28.979,35.825 29.238,35.485 29.479,35.115 29.695,34.719 29.892,34.297 30.063,33.85 30.204,33.381 30.314,32.903 
		30.39,32.432 30.43,31.969 30.438,31.514 30.413,31.074 30.357,30.65 30.27,30.246 30.154,29.863 30.009,29.506 29.839,29.173 
		29.641,28.873 29.418,28.604 29.17,28.372 28.897,28.178 28.604,28.021 	"/>
	<g>
		
			<ellipse transform="matrix(0.2576 -0.9662 0.9662 0.2576 -11.359 50.2982)" class="st1" cx="27.054" cy="32.542" rx="4.789" ry="3.26"/>
		<linearGradient id="SVGID_46_" gradientUnits="userSpaceOnUse" x1="18.4468" y1="32.5781" x2="29.1851" y2="32.5781">
			<stop  offset="0" style="stop-color:#F4B220"/>
			<stop  offset="1" style="stop-color:#F5B531"/>
		</linearGradient>
		<path class="st49" d="M28.302,28.023c1.713,0.458,2.558,2.868,1.886,5.381c-0.669,2.515-2.601,4.187-4.315,3.729
			c-1.713-0.457-2.558-2.866-1.89-5.382C24.656,29.234,26.588,27.565,28.302,28.023z"/>
		<linearGradient id="SVGID_47_" gradientUnits="userSpaceOnUse" x1="18.6167" y1="32.6143" x2="29.1851" y2="32.6143">
			<stop  offset="0" style="stop-color:#F5B31F"/>
			<stop  offset="1" style="stop-color:#F5B940"/>
		</linearGradient>
		<path class="st50" d="M28.316,28.131c1.686,0.451,2.517,2.823,1.856,5.296c-0.659,2.475-2.56,4.12-4.247,3.669
			c-1.687-0.449-2.518-2.82-1.86-5.296C24.728,29.324,26.629,27.682,28.316,28.131z"/>
		<linearGradient id="SVGID_48_" gradientUnits="userSpaceOnUse" x1="18.7886" y1="32.6504" x2="29.1847" y2="32.6504">
			<stop  offset="0" style="stop-color:#F6B41E"/>
			<stop  offset="1" style="stop-color:#F6BD4F"/>
		</linearGradient>
		<path class="st51" d="M28.33,28.24c1.658,0.443,2.477,2.776,1.826,5.21c-0.648,2.435-2.519,4.053-4.178,3.61
			c-1.659-0.442-2.478-2.775-1.83-5.211C24.8,29.414,26.67,27.797,28.33,28.24z"/>
		<linearGradient id="SVGID_49_" gradientUnits="userSpaceOnUse" x1="18.9585" y1="32.6865" x2="29.1846" y2="32.6865">
			<stop  offset="0" style="stop-color:#F6B51D"/>
			<stop  offset="1" style="stop-color:#F7C25E"/>
		</linearGradient>
		<path class="st52" d="M28.344,28.349c1.631,0.437,2.436,2.731,1.797,5.125c-0.638,2.395-2.478,3.987-4.11,3.55
			c-1.631-0.435-2.437-2.729-1.799-5.125C24.872,29.503,26.712,27.914,28.344,28.349z"/>
		<linearGradient id="SVGID_50_" gradientUnits="userSpaceOnUse" x1="19.1299" y1="32.7236" x2="29.1845" y2="32.7236">
			<stop  offset="0" style="stop-color:#F7B61C"/>
			<stop  offset="1" style="stop-color:#F8C66C"/>
		</linearGradient>
		<path class="st53" d="M28.358,28.458c1.603,0.429,2.395,2.686,1.766,5.039c-0.626,2.354-2.436,3.92-4.041,3.491
			c-1.604-0.427-2.395-2.684-1.769-5.04C24.943,29.593,26.753,28.03,28.358,28.458z"/>
		<linearGradient id="SVGID_51_" gradientUnits="userSpaceOnUse" x1="19.3013" y1="32.7598" x2="29.1844" y2="32.7598">
			<stop  offset="0" style="stop-color:#F7B81B"/>
			<stop  offset="1" style="stop-color:#F9CB78"/>
		</linearGradient>
		<path class="st54" d="M28.372,28.567c1.576,0.421,2.354,2.639,1.736,4.954c-0.616,2.314-2.394,3.853-3.972,3.432
			c-1.576-0.42-2.354-2.639-1.738-4.955C25.015,29.683,26.794,28.146,28.372,28.567z"/>
		<linearGradient id="SVGID_52_" gradientUnits="userSpaceOnUse" x1="19.4707" y1="32.7959" x2="29.1847" y2="32.7959">
			<stop  offset="0" style="stop-color:#F8B91A"/>
			<stop  offset="1" style="stop-color:#F9CF85"/>
		</linearGradient>
		<path class="st55" d="M28.386,28.675c1.549,0.415,2.313,2.594,1.707,4.868c-0.605,2.275-2.354,3.787-3.903,3.373
			c-1.55-0.413-2.315-2.593-1.709-4.869C25.087,29.772,26.835,28.262,28.386,28.675z"/>
		<linearGradient id="SVGID_53_" gradientUnits="userSpaceOnUse" x1="19.6416" y1="32.832" x2="29.1841" y2="32.832">
			<stop  offset="0" style="stop-color:#F9BA19"/>
			<stop  offset="1" style="stop-color:#FAD491"/>
		</linearGradient>
		<path class="st56" d="M28.4,28.784c1.521,0.407,2.272,2.549,1.676,4.783c-0.595,2.235-2.312,3.72-3.835,3.313
			c-1.522-0.406-2.274-2.547-1.679-4.783C25.159,29.862,26.877,28.378,28.4,28.784z"/>
		<linearGradient id="SVGID_54_" gradientUnits="userSpaceOnUse" x1="19.8125" y1="32.8687" x2="29.1842" y2="32.8687">
			<stop  offset="0" style="stop-color:#F9BB18"/>
			<stop  offset="1" style="stop-color:#FBD99D"/>
		</linearGradient>
		<path class="st57" d="M28.414,28.893c1.494,0.4,2.231,2.504,1.646,4.698c-0.584,2.195-2.271,3.653-3.767,3.254
			c-1.496-0.398-2.233-2.501-1.649-4.698C25.231,29.952,26.918,28.495,28.414,28.893z"/>
		<linearGradient id="SVGID_55_" gradientUnits="userSpaceOnUse" x1="19.9829" y1="32.9048" x2="29.1839" y2="32.9048">
			<stop  offset="0" style="stop-color:#FABC17"/>
			<stop  offset="1" style="stop-color:#FBDEAA"/>
		</linearGradient>
		<path class="st58" d="M28.428,29.001c1.466,0.393,2.191,2.458,1.617,4.612c-0.574,2.155-2.23,3.586-3.698,3.194
			c-1.468-0.391-2.192-2.456-1.619-4.612C25.303,30.042,26.959,28.611,28.428,29.001z"/>
		<linearGradient id="SVGID_56_" gradientUnits="userSpaceOnUse" x1="20.1543" y1="32.9414" x2="29.1838" y2="32.9414">
			<stop  offset="0" style="stop-color:#FBBD15"/>
			<stop  offset="1" style="stop-color:#FCE2B7"/>
		</linearGradient>
		<path class="st59" d="M28.442,29.11c1.439,0.386,2.15,2.412,1.586,4.526c-0.563,2.115-2.188,3.519-3.629,3.135
			s-2.152-2.411-1.588-4.526C25.375,30.132,27.001,28.727,28.442,29.11z"/>
		<linearGradient id="SVGID_57_" gradientUnits="userSpaceOnUse" x1="20.3247" y1="32.978" x2="29.1835" y2="32.978">
			<stop  offset="0" style="stop-color:#FCBF14"/>
			<stop  offset="1" style="stop-color:#FCE7C4"/>
		</linearGradient>
		<path class="st60" d="M28.456,29.22c1.411,0.378,2.109,2.366,1.556,4.44c-0.552,2.074-2.146,3.452-3.56,3.076
			c-1.414-0.377-2.112-2.365-1.558-4.441C25.447,30.222,27.042,28.843,28.456,29.22z"/>
		<linearGradient id="SVGID_58_" gradientUnits="userSpaceOnUse" x1="20.4956" y1="33.0142" x2="29.1837" y2="33.0142">
			<stop  offset="0" style="stop-color:#FCC012"/>
			<stop  offset="1" style="stop-color:#FDECD1"/>
		</linearGradient>
		<path class="st61" d="M28.47,29.328c1.384,0.371,2.069,2.321,1.526,4.355c-0.542,2.034-2.105,3.386-3.492,3.017
			c-1.386-0.37-2.07-2.319-1.528-4.355C25.519,30.311,27.083,28.959,28.47,29.328z"/>
		<linearGradient id="SVGID_59_" gradientUnits="userSpaceOnUse" x1="20.667" y1="33.0508" x2="29.1835" y2="33.0508">
			<stop  offset="0" style="stop-color:#FDC111"/>
			<stop  offset="1" style="stop-color:#FEF2DE"/>
		</linearGradient>
		<path class="st62" d="M28.484,29.437c1.356,0.364,2.028,2.275,1.496,4.269c-0.531,1.995-2.063,3.319-3.423,2.958
			c-1.359-0.362-2.031-2.274-1.498-4.27C25.591,30.401,27.125,29.075,28.484,29.437z"/>
		<linearGradient id="SVGID_60_" gradientUnits="userSpaceOnUse" x1="20.8379" y1="33.0869" x2="29.1837" y2="33.0869">
			<stop  offset="0" style="stop-color:#FEC20F"/>
			<stop  offset="1" style="stop-color:#FFF7EC"/>
		</linearGradient>
		<path class="st63" d="M28.498,29.545c1.329,0.357,1.987,2.23,1.467,4.184c-0.521,1.955-2.023,3.252-3.355,2.898
			c-1.332-0.355-1.99-2.229-1.467-4.184C25.663,30.49,27.166,29.191,28.498,29.545z"/>
		<linearGradient id="SVGID_61_" gradientUnits="userSpaceOnUse" x1="21.0078" y1="33.123" x2="29.1837" y2="33.123">
			<stop  offset="0" style="stop-color:#FFC40C"/>
			<stop  offset="1" style="stop-color:#FFFFFF"/>
		</linearGradient>
		<path class="st64" d="M28.512,29.654c1.302,0.35,1.946,2.185,1.437,4.099c-0.51,1.915-1.981,3.186-3.286,2.839
			c-1.305-0.348-1.949-2.183-1.438-4.099C25.734,30.58,27.207,29.308,28.512,29.654z"/>
	</g>
	<linearGradient id="SVGID_62_" gradientUnits="userSpaceOnUse" x1="31.6226" y1="34.707" x2="31.4426" y2="45.0162">
		<stop  offset="0" style="stop-color:#A92C31"/>
		<stop  offset="1" style="stop-color:#F4B120"/>
	</linearGradient>
	<path class="st65" d="M30.985,34.289l1.525,0.533c0.585,4.617-0.531,9.867-0.434,14.537l-1.724-0.531
		C29.931,45.541,31.571,38.909,30.985,34.289z"/>
	<linearGradient id="SVGID_63_" gradientUnits="userSpaceOnUse" x1="32.7617" y1="48.9795" x2="29.5362" y2="54.7985">
		<stop  offset="0" style="stop-color:#A92C31"/>
		<stop  offset="1" style="stop-color:#F4B120"/>
	</linearGradient>
	<polygon class="st66" points="31.658,48.542 33.907,49.34 29.502,56.572 28.174,56.24 	"/>
	<linearGradient id="SVGID_64_" gradientUnits="userSpaceOnUse" x1="27.6074" y1="41.0635" x2="26.8807" y2="37.6443">
		<stop  offset="0" style="stop-color:#FFCB05"/>
		<stop  offset="1" style="stop-color:#D02A2F"/>
	</linearGradient>
	<path class="st67" d="M28.174,56.24l-3.216-4.973l1.781-0.667c0.45-2.429,0.776-9.547,0.079-13.166
		c1.584,0.415,3.354-0.961,4.167-3.146c0.607,4.112-1.072,11.777-0.632,14.539l1.305-0.286L28.174,56.24z"/>
	<linearGradient id="SVGID_65_" gradientUnits="userSpaceOnUse" x1="32.1157" y1="45.2832" x2="26.1772" y2="46.6542">
		<stop  offset="0" style="stop-color:#FFCB05"/>
		<stop  offset="1" style="stop-color:#FFFFFF"/>
	</linearGradient>
	<path class="st68" d="M28.174,56.24c0.107-6.999,1.309-11.662,0.627-18.641c0.89-0.299,1.562-0.848,2.296-2.129
		c0.212,4.259-1.145,10.843-0.743,13.357l1.305-0.286L28.174,56.24z"/>
</g>
</svg>
