<?xml version="1.0" encoding="utf-8"?>
<!-- Generator: Adobe Illustrator 16.0.0, SVG Export Plug-In . SVG Version: 6.00 Build 0)  -->
<!DOCTYPE svg PUBLIC "-//W3C//DTD SVG 1.1//EN" "http://www.w3.org/Graphics/SVG/1.1/DTD/svg11.dtd">
<svg version="1.1" id="Isolation_Mode" xmlns="http://www.w3.org/2000/svg" xmlns:xlink="http://www.w3.org/1999/xlink" x="0px"
	 y="0px" width="187.5px" height="200px" viewBox="0 0 187.5 200" enable-background="new 0 0 187.5 200" xml:space="preserve">
<circle fill="#FFFFFF" stroke="#C6C6C6" stroke-width="0.5" stroke-miterlimit="10" cx="93.594" cy="101.176" r="83.675"/>
<circle fill="#404F63" cx="93.594" cy="101.176" r="73.671"/>
<g display="none">
	<defs>
		<circle id="SVGID_1_" cx="93.594" cy="101.176" r="73.671"/>
	</defs>
	<clipPath id="SVGID_2_" display="inline">
		<use xlink:href="#SVGID_1_"  overflow="visible"/>
	</clipPath>
	<g display="inline" clip-path="url(#SVGID_2_)">
		<path fill="#808080" d="M21.577,150.256h133.159v4.563c0,2.507-2.053,4.561-4.563,4.561H26.139c-2.509,0-4.562-2.053-4.562-4.561
			V150.256z M21.577,150.256"/>
		<path fill="#666666" d="M69.912,150.256H106.4v1.341c0,0.737-0.604,1.341-1.342,1.341H71.253c-0.738,0-1.341-0.604-1.341-1.341
			V150.256z M69.912,150.256"/>
		<path fill="#808080" d="M34.42,78.083h107.473c1.312,0,2.385,1.072,2.385,2.385v65.847c0,1.313-1.074,2.387-2.385,2.387H34.42
			c-1.312,0-2.385-1.074-2.385-2.387V80.469C32.035,79.158,33.108,78.083,34.42,78.083L34.42,78.083z M34.42,78.083"/>
		<rect x="37.05" y="82.874" fill="#FFFFFF" width="102.237" height="62.308"/>
		<path fill="#666666" d="M46.327,148.703h7.435v1.554h-7.435V148.703z M122.55,148.703h7.433v1.554h-7.433V148.703z
			 M122.55,148.703"/>
		<path fill="#ECF0F1" d="M56.07,84.826c4.424,0,8.429,1.792,11.329,4.69c2.899,2.899,4.691,6.905,4.691,11.329
			c0,4.424-1.792,8.43-4.691,11.329c-2.9,2.898-6.905,4.691-11.329,4.691s-8.429-1.792-11.329-4.691
			c-2.898-2.899-4.691-6.905-4.691-11.329c0-4.423,1.793-8.429,4.691-11.329C47.642,86.618,51.646,84.826,56.07,84.826L56.07,84.826
			z M67.547,109.698c-1.011-0.478-2.308-0.86-3.78-1.151c-0.134,0.287-0.276,0.569-0.427,0.848
			c-1.192,2.219-2.882,4.208-5.073,5.777c3.124-0.474,5.918-1.945,8.051-4.078C66.757,110.656,67.167,110.189,67.547,109.698
			L67.547,109.698z M53.873,115.172c-2.19-1.569-3.881-3.558-5.073-5.775c-0.149-0.278-0.29-0.559-0.424-0.844
			c-1.469,0.289-2.766,0.67-3.78,1.146c0.379,0.49,0.789,0.957,1.227,1.395C47.955,113.227,50.75,114.698,53.873,115.172
			L53.873,115.172z M43.719,108.432c1.09-0.541,2.483-0.976,4.061-1.306c-0.649-1.771-1.015-3.636-1.095-5.511h-5.088
			C41.728,104.104,42.487,106.429,43.719,108.432L43.719,108.432z M41.597,100.087h5.085c0.081-2.047,0.5-4.08,1.259-5.992
			c-1.525-0.311-2.886-0.718-3.976-1.222C42.586,94.962,41.734,97.431,41.597,100.087L41.597,100.087z M44.891,91.62
			c1.016,0.436,2.276,0.786,3.689,1.054c0.081-0.162,0.165-0.322,0.251-0.48c1.187-2.181,2.86-4.133,5.02-5.672
			c-3.114,0.479-5.901,1.947-8.03,4.076C45.496,90.923,45.186,91.264,44.891,91.62L44.891,91.62z M58.29,86.521
			c2.16,1.539,3.833,3.493,5.02,5.672c0.087,0.161,0.172,0.322,0.254,0.485c1.416-0.267,2.675-0.62,3.688-1.057
			c-0.296-0.355-0.606-0.698-0.933-1.025C64.191,88.469,61.404,87,58.29,86.521L58.29,86.521z M68.178,92.876
			c-1.085,0.507-2.447,0.914-3.977,1.224c0.757,1.911,1.176,3.942,1.257,5.986h5.085C70.407,97.432,69.554,94.965,68.178,92.876
			L68.178,92.876z M70.543,101.615h-5.088c-0.08,1.873-0.445,3.734-1.092,5.504c1.581,0.329,2.975,0.768,4.06,1.31
			C69.655,106.426,70.414,104.104,70.543,101.615L70.543,101.615z M56.833,87.373v5.933c1.775-0.027,3.53-0.151,5.147-0.371
			l-0.006-0.013C60.792,90.752,59.079,88.829,56.833,87.373L56.833,87.373z M56.833,94.832v5.255h7.102
			c-0.083-1.958-0.506-3.9-1.267-5.716C60.841,94.648,58.846,94.803,56.833,94.832L56.833,94.832z M56.833,101.615v4.737
			c2.076,0.033,4.133,0.195,6.006,0.49c0.645-1.676,1.009-3.445,1.093-5.227H56.833z M56.833,107.88v6.429
			c2.26-1.481,3.982-3.435,5.165-5.636c0.069-0.129,0.138-0.26,0.204-0.392C60.524,108.042,58.69,107.909,56.833,107.88
			L56.833,107.88z M55.307,114.31v-6.428c-1.854,0.03-3.686,0.166-5.366,0.406c0.066,0.129,0.133,0.258,0.2,0.386
			C51.325,110.875,53.047,112.829,55.307,114.31L55.307,114.31z M55.307,106.354v-4.739h-7.099c0.084,1.783,0.449,3.557,1.095,5.233
			C51.178,106.552,53.236,106.388,55.307,106.354L55.307,106.354z M55.307,100.087V94.83c-2.009-0.031-4.005-0.187-5.833-0.465
			c-0.763,1.816-1.187,3.762-1.27,5.722H55.307z M55.307,93.304v-5.931c-2.245,1.456-3.958,3.379-5.14,5.549l-0.004,0.007
			C51.781,93.15,53.533,93.276,55.307,93.304L55.307,93.304z M55.307,93.304"/>
		<path fill="#20D0C2" d="M95.518,128.568H40.203v2.284c2.619,4.089,2.187,8.637,0,12.045v2.285h55.315
			C104.16,145.182,104.16,128.568,95.518,128.568L95.518,128.568z M95.518,128.568"/>
		<path fill="#FFFFFF" d="M40.203,142.897c2.232-4.015,2.401-8.03,0-12.045h55.315c2.602,0,4.736,2.715,4.736,6.023
			c0,3.307-2.134,6.021-4.736,6.021H40.203z M40.203,142.897"/>
		<path fill="#DFE1E3" d="M40.733,131.823c-0.161-0.324-0.337-0.647-0.531-0.971h55.315c5.291,0,6.774,9.288,1.438,11.755
			c3.645-2.171,2.284-9.576-1.541-10.784H40.733z M40.733,131.823"/>
		<path fill="#DFE1E3" d="M41.28,132.969h57.833c-0.107-0.159-0.221-0.311-0.34-0.455H41.093
			C41.157,132.665,41.221,132.817,41.28,132.969L41.28,132.969z M99.596,133.827c0.068,0.147,0.133,0.298,0.192,0.454H41.694
			c-0.037-0.152-0.079-0.302-0.124-0.454H99.596z M100.05,135.138c0.037,0.151,0.067,0.301,0.094,0.456H41.933
			c-0.017-0.152-0.039-0.304-0.063-0.456H100.05z M100.241,136.449c0.008,0.142,0.012,0.283,0.012,0.426v0.029H42.008
			c0-0.15-0.002-0.302-0.008-0.456H100.241z M100.201,137.762c-0.017,0.154-0.04,0.305-0.066,0.454H41.92
			c0.02-0.15,0.036-0.302,0.047-0.454H100.201z M99.924,139.074c-0.048,0.154-0.102,0.306-0.16,0.454H41.669
			c0.039-0.15,0.076-0.301,0.106-0.454H99.924z M99.357,140.386c-0.09,0.158-0.184,0.311-0.285,0.454H41.25
			c0.058-0.149,0.113-0.301,0.166-0.454H99.357z M98.342,141.699c-0.176,0.167-0.361,0.318-0.555,0.454H40.642
			c0.081-0.151,0.159-0.301,0.234-0.454H98.342z M98.342,141.699"/>
		<path fill="#4BAA64" d="M126.133,60.918H89.726v53.377h36.406c2.995,0,5.444-2.512,5.444-5.581V66.501
			C131.576,63.431,129.127,60.918,126.133,60.918L126.133,60.918z M126.133,60.918"/>
		<path fill="#FFFFFF" d="M124.616,59.087H89.726v53.376h34.891c2.869,0,5.217-2.407,5.217-5.349V64.437
			C129.833,61.494,127.485,59.087,124.616,59.087L124.616,59.087z M124.616,59.087"/>
		<path fill="#4EB86E" d="M126.133,54.115H89.726v53.375h41.85V59.697C131.576,56.626,129.127,54.115,126.133,54.115L126.133,54.115
			z M126.133,54.115"/>
		<path fill="#429658" d="M126.959,107.49h4.616V59.697c0-2.782-2.01-5.106-4.616-5.518V107.49z M126.959,107.49"/>
		<path fill="#DFE1E3" d="M127.727,111.401H89.726v0.422h37.356C127.308,111.698,127.522,111.558,127.727,111.401L127.727,111.401z
			 M89.726,108.196v0.422h39.895c0.041-0.139,0.075-0.28,0.104-0.422H89.726z M89.726,109.265v0.422h39.459
			c0.075-0.137,0.143-0.278,0.205-0.422H89.726z M89.726,110.333v0.422h38.703c0.122-0.135,0.238-0.276,0.347-0.422H89.726z
			 M89.726,110.333"/>
		<path fill="#FFFFFF" d="M117.357,98.923h-13.653v0.829h13.653V98.923z M114.763,100.36h-8.464v0.83h8.464V100.36z M114.763,100.36
			"/>
		<path fill="#FED198" d="M132.738,87.556l-4.964-1.432l-7.153,1.579c-0.344,0.938,0.791,1.861,1.719,1.941l5.435-0.426l3.801,1.588
			v0.559l-5.67-1.361l-7.027,2.053c0.111,2.87,1.974,2.131,6.612,0.972l6.084,2.115v0.728l-4.616-0.987l-5.811,1.416
			c-0.067,2.877,2.074,2.006,5.811,1.591l4.616,1.053v1.165l-4.595-0.285l-4.457,1.297c-0.713,0.324-0.566,1.692,0.443,1.96
			l3.992-0.456l4.561,0.599l0.055,4.504c0.382,2.908-1.457,5.831-4.154,6.357l-4.073,0.208l-1.203,7.325h10.036l-0.7-8.913
			c1.519-3.528,4.588-8.11,2.739-12.047c0.956-1.605,0.621-3.09-0.123-3.962c0.698-1.001,1.629-2.733,0.101-4.016
			C134.083,89.999,134.86,89.108,132.738,87.556L132.738,87.556z M132.738,87.556"/>
		<path fill="#F0B97D" d="M123.355,114.295l-1.209,7.325l3.866-7.461L123.355,114.295z M123.355,114.295"/>
		<path fill="#FBB429" d="M134.109,121.554l1.882,23.627h-18.229l2.65-23.627H134.109z M134.109,121.554"/>
		<rect x="121.24" y="119.872" fill="#ECF0F1" width="12.241" height="1.748"/>
		<path fill="#ECF0F1" d="M132.645,123.087c0.475,0,0.86,0.384,0.86,0.86s-0.385,0.86-0.86,0.86s-0.859-0.384-0.859-0.86
			S132.17,123.087,132.645,123.087L132.645,123.087z M132.645,123.087"/>
		<path fill="#ECF0F1" d="M132.851,125.295c0.476,0,0.86,0.386,0.86,0.861c0,0.474-0.384,0.86-0.86,0.86
			c-0.474,0-0.859-0.386-0.859-0.86C131.991,125.681,132.376,125.295,132.851,125.295L132.851,125.295z M132.851,125.295"/>
		<path fill="#FFFFFF" d="M120.915,88.489l1.306-0.343l-0.216-0.612l-1.337,0.265C120.595,87.94,120.629,88.242,120.915,88.489
			L120.915,88.489z M120.915,88.489"/>
		<path fill="#FFFFFF" d="M119.447,93.294l1.664-0.632l-0.353-1.003l-1.644,0.498C119.042,92.422,119.055,92.832,119.447,93.294
			L119.447,93.294z M119.447,93.294"/>
		<path fill="#FFFFFF" d="M121.693,97.653l1.451-0.485l-0.343-1.065l-1.418,0.325C121.324,96.688,121.342,97.141,121.693,97.653
			L121.693,97.653z M121.693,97.653"/>
		<path fill="#FFFFFF" d="M122.608,101.303l1.043-0.292l0.337,1.289l-1.239,0.297C122.749,102.598,121.98,101.751,122.608,101.303
			L122.608,101.303z M122.608,101.303"/>
		<path fill="#FFDEB0" d="M80.7,74.47l-7.699-0.034l-0.149-11.21l7.472,0.379c0.5-1.066,3.864-3.348,4.75-3.664l4.651-0.542v2.364
			l7.782-0.405l7.932,1.394c0.465-0.012,0.825,2.088-1.591,1.969l-6.31-0.314l-3.881,0.731l5.511,0.024l7.492,1.145
			c0.841,0.128,0.347,2.269-1.794,2.324l-5.546-0.568l-5.606,0.582l5.778,0.324l5.991,0.929c1.062,0.164,0.905,2.286-1.212,2.112
			l-4.905-0.402l-5.655,0.764l4.954,0.416l5.133,1.403c0.402,0.11,0.548,1.889-2.283,1.566l-3.288-0.374
			C94.025,75.745,83.88,77.583,80.7,74.47L80.7,74.47z M80.7,74.47"/>
		<path fill="#F0B97D" d="M80.7,74.47l-7.699-0.034l-0.005-0.412l7.763,0.086c3.408,3.24,13.1,1.495,17.506,1.115
			c0,0,3.055,0.52,4.436,0.406c1.578-0.226,1.251-1.362,1.095-1.443c0.402,0.11,0.548,1.889-2.285,1.566l-3.287-0.374
			C94.025,75.745,83.88,77.583,80.7,74.47L80.7,74.47z M80.7,74.47"/>
		<path fill="#0E7886" d="M72.843,62.369l0.15,13.135L23.361,75.57c2.375-5.546,5.441-10.725,9.091-15.43L72.843,62.369z
			 M72.843,62.369"/>
		<path fill="#FFFFFF" d="M75.186,62.748l0.203,12.332l-2.387,0.012l-0.203-12.333L75.186,62.748z M75.186,62.748"/>
		<path fill="#ECF0F1" d="M70.333,72.67c0.007,0.679-0.524,1.232-1.183,1.241c-0.662,0.006-1.202-0.538-1.208-1.215
			c-0.007-0.678,0.524-1.234,1.185-1.24C69.787,71.449,70.328,71.993,70.333,72.67L70.333,72.67z M70.333,72.67"/>
		<path fill="#FFFFFF" d="M103.937,62.689l1.471,0.16c0.137,0.318,0.134,0.546,0.043,0.72l-1.674-0.096L103.937,62.689z
			 M103.937,62.689"/>
		<path fill="#FFFFFF" d="M105.203,66.267l1.47,0.162c0.138,0.317,0.134,0.544,0.043,0.719l-1.673-0.096L105.203,66.267z
			 M105.203,66.267"/>
		<path fill="#FFFFFF" d="M104.098,69.907l1.47,0.162c0.137,0.316,0.135,0.544,0.042,0.717l-1.674-0.095L104.098,69.907z
			 M104.098,69.907"/>
		<path fill="#FFFFFF" d="M102.241,73.938l1.471,0.317c0.138,0.331,0.133,0.559,0.042,0.723l-1.674-0.274L102.241,73.938z
			 M102.241,73.938"/>
		<g>
			<path fill="#1CA9E3" d="M46.664,100.943h2.169h6.508h2.169l2.27-9.244H44.394L46.664,100.943z M51.509,94.388h-2.391
				l-0.206-1.534h2.597V94.388z M52.665,92.854h2.597l-0.206,1.534h-2.391V92.854z M47.952,94.388h-1.691l-0.373-1.534h1.857
				L47.952,94.388z M46.542,95.543h1.566l0.217,1.618h-1.39L46.542,95.543z M49.273,95.543h2.236v1.618H49.49L49.273,95.543z
				 M52.665,95.543H54.9l-0.217,1.618h-2.019V95.543z M56.066,95.543h1.566l-0.393,1.618h-1.39L56.066,95.543z M56.221,94.388
				l0.207-1.534h1.857l-0.372,1.534H56.221z M47.572,99.788l-0.357-1.47h1.265l0.198,1.47H47.572z M49.646,98.317h1.864v1.47h-1.666
				L49.646,98.317z M52.665,99.788v-1.47h1.863l-0.198,1.47H52.665z M55.496,99.788l0.198-1.47h1.265l-0.356,1.47H55.496z"/>
			<polygon fill="#1CA9E3" points="44.394,91.699 45.583,91.699 44.767,88.372 41.212,88.372 41.212,89.527 43.861,89.527 			"/>
			<g>
				<circle fill="#1CA9E3" cx="49.657" cy="102.965" r="1.256"/>
				<circle fill="#1CA9E3" cx="55.936" cy="102.965" r="1.256"/>
			</g>
		</g>
		<g>
			<path fill="#1CA9E3" d="M46.664,121.65h2.169h6.508h2.169l2.27-9.245H44.394L46.664,121.65z M51.509,115.095h-2.391l-0.206-1.533
				h2.597V115.095z M52.665,113.562h2.597l-0.206,1.533h-2.391V113.562z M47.952,115.095h-1.691l-0.373-1.533h1.857L47.952,115.095z
				 M46.542,116.251h1.566l0.217,1.617h-1.39L46.542,116.251z M49.273,116.251h2.236v1.617H49.49L49.273,116.251z M52.665,116.251
				H54.9l-0.217,1.617h-2.019V116.251z M56.066,116.251h1.566l-0.393,1.617h-1.39L56.066,116.251z M56.221,115.095l0.207-1.533
				h1.857l-0.372,1.533H56.221z M47.572,120.494l-0.357-1.47h1.265l0.198,1.47H47.572z M49.646,119.024h1.864v1.47h-1.666
				L49.646,119.024z M52.665,120.494v-1.47h1.863l-0.198,1.47H52.665z M55.496,120.494l0.198-1.47h1.265l-0.356,1.47H55.496z"/>
			<polygon fill="#1CA9E3" points="44.394,112.406 45.583,112.406 44.767,109.08 41.212,109.08 41.212,110.235 43.861,110.235 			
				"/>
			<g>
				<circle fill="#1CA9E3" cx="49.657" cy="123.671" r="1.256"/>
				<circle fill="#1CA9E3" cx="55.936" cy="123.671" r="1.256"/>
			</g>
		</g>
		<g>
			<rect x="64.628" y="92.394" fill="#979797" width="19.17" height="2.402"/>
			<rect x="64.628" y="97.797" fill="#979797" width="19.17" height="2.402"/>
		</g>
		<g>
			<rect x="64.628" y="113.1" fill="#FC7A4A" width="19.17" height="2.402"/>
			<rect x="64.628" y="118.505" fill="#FC7A4A" width="19.17" height="2.402"/>
		</g>
	</g>
</g>
<g id="Layer_2">
	<g>
		<defs>
			<circle id="SVGID_3_" cx="93.986" cy="100.676" r="73.671"/>
		</defs>
		<clipPath id="SVGID_4_">
			<use xlink:href="#SVGID_3_"  overflow="visible"/>
		</clipPath>
		<g clip-path="url(#SVGID_4_)">
			<path fill="#807D7D" d="M36.445,44.63h65.188c1.922,0,3.494,1.574,3.494,3.497v86.55c0,1.924-1.572,3.496-3.494,3.496H36.445
				c-1.923,0-3.495-1.574-3.495-3.496v-86.55C32.951,46.203,34.522,44.63,36.445,44.63L36.445,44.63z M36.445,44.63"/>
			<rect x="35.844" y="52.448" fill="#DFE1E3" width="66.391" height="77.907"/>
			<path fill="#C8CACC" d="M69.039,131.499c1.471,0,2.665,1.192,2.665,2.666c0,1.472-1.192,2.664-2.665,2.664
				s-2.665-1.192-2.665-2.664C66.374,132.692,67.567,131.499,69.039,131.499L69.039,131.499z M69.039,131.499"/>
			<path fill="#FFFFFF" d="M154.801,54.973c-19.057,0-37.259-8.125-57.171,0v72.573h57.171V54.973z M154.801,54.973"/>
			<path fill="#FFFFFF" d="M38.918,54.972c19.058,0,46.598-7.983,57.175,0v72.573H38.918V54.972z M38.918,54.972"/>
			<rect x="95.123" y="54.972" fill="#ECF0F1" width="1.938" height="72.573"/>
			<rect x="56.594" y="61.101" fill="#FBB429" width="22.066" height="3.031"/>
			<path fill="#DFE1E3" d="M43.804,110.35h22.011v1.437H43.804V110.35z M43.804,107.459h22.011v1.434H43.804V107.459z
				 M43.804,88.546h22.011v1.434H43.804V88.546z M43.804,103.007h9.639v1.433h-9.639V103.007z M43.804,100.114h22.011v1.434H43.804
				V100.114z M43.804,97.223h22.011v1.433H43.804V97.223z M43.804,94.33h22.011v1.434H43.804V94.33z M43.804,91.437h22.011v1.436
				H43.804V91.437z M43.804,121.918h7.576v1.434h-7.576V121.918z M43.804,119.025h22.011v1.436H43.804V119.025z M43.804,116.135
				h22.011v1.434H43.804V116.135z M43.804,113.242h22.011v1.434H43.804V113.242z M43.804,113.242"/>
			<path fill="#DFE1E3" d="M102.613,89.981h44.132v1.433h-44.132V89.981z M102.613,87.088h44.132v1.434h-44.132V87.088z
				 M102.613,68.174h44.132v1.435h-44.132V68.174z M102.613,82.636h19.323v1.434h-19.323V82.636z M102.613,79.743h44.132v1.435
				h-44.132V79.743z M102.613,76.852h44.132v1.434h-44.132V76.852z M102.613,73.959h19.323v1.434h-19.323V73.959z M102.613,71.068
				h44.132V72.5h-44.132V71.068z M102.613,101.547h15.188v1.434h-15.188V101.547z M102.613,98.656h44.132v1.434h-44.132V98.656z
				 M102.613,95.764h44.132v1.434h-44.132V95.764z M102.613,92.871h44.132v1.436h-44.132V92.871z M102.613,92.871"/>
			<path fill="#FF5B61" d="M102.143,53.191l5.971-0.514v30.995l-3.005-2.186l-2.966,2.186V53.191z M102.143,53.191"/>
			<path fill="#C8CACC" d="M60.811,47.986h16.454c0.541,0,0.982,0.442,0.982,0.984c0,0.541-0.441,0.983-0.982,0.983H60.811
				c-0.539,0-0.982-0.442-0.982-0.983C59.829,48.428,60.271,47.986,60.811,47.986L60.811,47.986z M60.811,47.986"/>
			<path fill="#FED198" d="M113.948,115.584l0.372,7.06l2.036,2.575l0.064-14.097l-0.605-13.751l-1.583-14.384
				c-0.335-3.038,5.171-3.839,6.047-0.141l3.023,12.761l0.784,11.536l1.029,0.037l-0.369-5.445
				c-0.143-2.127,1.646-3.922,3.777-3.977c2.131-0.057,3.835,1.646,3.977,3.775l1.566,5.959l-0.325-3.814
				c-0.182-2.128,1.683-3.979,3.778-3.979c3.748,0,4.498,5.057,5.74,8.114l-0.067-1.57c-0.092-2.13,2.174-3.432,4.241-2.911
				c2.227,0.562,4.032,8.532,4.173,11.833l-1.342,21.27c-0.21,3.32-1.468,4.923-2.939,6.552l-0.496,26.469
				c-3,3.737-6.296,7.221-9.861,10.419c-4.591,0.951-9.483,1.099-14.693,3.409l0.343-40.515
				c-4.482-1.985-15.568-13.002-15.572-12.999l0.373-17.62c0.026-1.101,6.642-0.659,6.529,3.434V115.584z M113.948,115.584"/>
			<path fill="#FFFFFF" d="M119.332,83.007l0.412,2.024l-3.797,0.117l-0.41-2.024C115.033,80.645,119.025,80.552,119.332,83.007
				L119.332,83.007z M119.332,83.007"/>
			<path fill="#FFFFFF" d="M109.266,112.867c-0.018,0.086,0.303,4.125,0.303,4.125l-1.965-0.034l0.112-4.277
				C107.716,112.682,108.843,112.176,109.266,112.867L109.266,112.867z M109.266,112.867"/>
			<path fill="#0E7886" d="M121.374,151.923l29.687-0.503l0.489,13.141c-8.118,11.703-19.019,21.324-31.75,27.907L121.374,151.923z
				 M121.374,151.923"/>
			<path fill="#FFFFFF" d="M122.193,148.138l28.011-0.183l-0.028,3.48l-28.008,0.473L122.193,148.138z M122.193,148.138"/>
			<path fill="#C8CACC" d="M145.932,161.49c1.157-0.01,2.103,0.895,2.114,2.02c0.012,1.126-0.916,2.049-2.072,2.059
				c-1.155,0.009-2.1-0.894-2.113-2.021C143.85,162.423,144.777,161.502,145.932,161.49L145.932,161.49z M145.932,155.63
				c1.157-0.01,2.103,0.896,2.114,2.021c0.012,1.125-0.916,2.047-2.072,2.058c-1.155,0.012-2.1-0.893-2.113-2.018
				C143.85,156.565,144.777,155.642,145.932,155.63L145.932,155.63z M145.932,155.63"/>
			<path fill="#FED198" d="M42.729,81.92l-16.351,5.795l-5.734,11.94c0,0-1.118,2.805,0.77,8.236l7.231,20.836l-0.612,9.444h10.97
				c0,0,1.758-25.313-1.554-31.211c-3.311-5.898-3.879-13.555-3.879-13.555s10.207-2.951,10.827-7.089
				C45.018,82.177,42.729,81.92,42.729,81.92L42.729,81.92z M42.729,81.92"/>
			<path fill="#FFFFFF" d="M36.32,85.424l3.585-1.27c0.34-0.792-0.497-1.737-0.78-1.742l-3.282,1.224l0.474,1.785L36.32,85.424z
				 M36.32,85.424"/>
			<rect x="27.13" y="138.173" fill="#FFFFFF" width="22.604" height="3.578"/>
			<path fill="#0E7886" d="M25.784,141.233h25.039l2.093,38.526c-10.795-5.668-20.091-13.806-27.132-23.666V141.233z
				 M25.784,141.233"/>
			<path fill="#C8CACC" d="M40.735,47.314c0.915,0,1.655,0.74,1.655,1.655c0,0.915-0.74,1.656-1.655,1.656
				c-0.914,0-1.656-0.742-1.656-1.656C39.079,48.056,39.821,47.314,40.735,47.314L40.735,47.314z M40.735,47.314"/>
			<path fill="#807D7D" d="M40.735,47.536c0.792,0,1.435,0.641,1.435,1.433c0,0.792-0.643,1.435-1.435,1.435
				c-0.793,0-1.434-0.643-1.434-1.435C39.301,48.176,39.942,47.536,40.735,47.536L40.735,47.536z M40.735,47.536"/>
			<path fill="#C8CACC" d="M40.735,48.545c0.235,0,0.425,0.189,0.425,0.424s-0.189,0.426-0.425,0.426
				c-0.234,0-0.424-0.191-0.424-0.426S40.501,48.545,40.735,48.545L40.735,48.545z M40.735,48.545"/>
			<path fill="#C8CACC" d="M44.745,158.743c1.156-0.011,2.102,0.896,2.114,2.019c0.011,1.126-0.916,2.049-2.072,2.059
				c-1.156,0.011-2.102-0.893-2.113-2.019C42.662,159.677,43.589,158.754,44.745,158.743L44.745,158.743z M44.745,152.884
				c1.156-0.01,2.102,0.894,2.114,2.021c0.011,1.126-0.916,2.048-2.072,2.058c-1.156,0.011-2.102-0.892-2.113-2.019
				C42.662,153.816,43.589,152.895,44.745,152.884L44.745,152.884z M44.745,152.884"/>
			<rect x="43.804" y="66.898" fill="#ECF0F1" width="44.022" height="18.967"/>
		</g>
	</g>
	<rect x="67.177" y="111.41" fill="#84CE98" width="10.534" height="10.129"/>
	<rect x="67.177" y="88.071" fill="#4EB86D" width="10.534" height="19.679"/>
	<rect x="79.542" y="88.071" fill="#84CE98" width="10.534" height="19.679"/>
	<rect x="79.542" y="111.41" fill="#4EB86D" width="10.534" height="10.129"/>
</g>
<g id="Layer_3" display="none">
	<g display="inline">
		<defs>
			<circle id="SVGID_5_" cx="93.594" cy="101.176" r="73.671"/>
		</defs>
		<clipPath id="SVGID_6_">
			<use xlink:href="#SVGID_5_"  overflow="visible"/>
		</clipPath>
		<g clip-path="url(#SVGID_6_)">
			<path fill="#4D4D4D" d="M90.472,138.502c0,0.958-0.682,1.756-1.587,1.937c-0.126,0.025-0.254,0.038-0.388,0.038
				c-1.09,0-1.975-0.884-1.975-1.974c0-0.821,0.503-1.526,1.217-1.824c0.232-0.097,0.489-0.151,0.758-0.151
				C89.588,136.527,90.472,137.412,90.472,138.502z"/>
			<path opacity="0.54" fill="#FFFFFF" d="M90.472,138.502c0,0.958-0.682,1.756-1.587,1.937l-1.146-3.761
				c0.232-0.097,0.489-0.151,0.758-0.151C89.588,136.527,90.472,137.412,90.472,138.502z"/>
			<g>
				<path fill="#1CA9E3" d="M151.889,50.721v69.827c0,3.02-2.447,5.467-5.468,5.467H45.739c-3.021,0-5.468-2.447-5.468-5.467V50.721
					c0-3.455,2.801-6.256,6.257-6.256h99.103C149.088,44.465,151.889,47.267,151.889,50.721z"/>
				<rect x="47.866" y="52.058" fill="#E4E4E4" width="96.431" height="66.364"/>
				<rect x="82.717" y="126.014" fill="#1E93B5" width="26.729" height="8.358"/>
				<path fill="#1CA9E3" d="M129.54,139.838H62.624c0-1.509,0.613-2.876,1.602-3.864c0.989-0.988,2.357-1.602,3.866-1.602h55.981
					C127.094,134.372,129.54,136.82,129.54,139.838z"/>
				<path opacity="0.32" fill="#FFFFFF" d="M129.54,139.838H87.555l-1.665-5.466h38.182
					C127.094,134.372,129.54,136.82,129.54,139.838z"/>
				<rect x="53.937" y="74.56" fill="#FFFFFF" width="49.866" height="43.862"/>
				<rect x="108.835" y="62.286" fill="#FC7A4A" width="29.656" height="3.736"/>
				<rect x="108.835" y="68.171" fill="#1CA9E3" width="29.656" height="3.736"/>
				<rect x="53.937" y="68.171" fill="#FC7A4A" width="49.866" height="3.736"/>
				<rect x="58.925" y="111.189" fill="#1CA9E3" width="39.888" height="3.736"/>
				<rect x="53.937" y="62.286" fill="#1CA9E3" width="49.866" height="3.736"/>
				<rect x="108.835" y="74.56" fill="#1CA9E3" width="29.656" height="3.737"/>
				<rect x="108.835" y="97.914" fill="#1CA9E3" width="9.25" height="3.736"/>
				<rect x="108.835" y="104.939" fill="#1CA9E3" width="9.25" height="3.736"/>
				<rect x="108.835" y="111.964" fill="#1CA9E3" width="29.656" height="3.736"/>
				<path fill="#CACACA" d="M133.325,95.695l-0.858,0.948l3.652,3.304h-12.026l3.651-3.304l-0.856-0.948l-5.166,4.673l2.383,9.81
					h2.4h7.203h2.4l2.383-9.81L133.325,95.695z M129.467,102.924h-2.646l-0.228-1.697h2.874V102.924z M130.746,101.227h2.875
					l-0.229,1.697h-2.646V101.227z M125.531,102.924h-1.872l-0.413-1.697h2.056L125.531,102.924z M123.969,104.203h1.733l0.241,1.79
					h-1.539L123.969,104.203z M126.992,104.203h2.475v1.79h-2.234L126.992,104.203z M130.746,104.203h2.474l-0.241,1.79h-2.233
					V104.203z M134.511,104.203h1.733l-0.435,1.79h-1.539L134.511,104.203z M134.682,102.924l0.229-1.697h2.055l-0.412,1.697
					H134.682z M125.11,108.899l-0.396-1.627h1.4l0.218,1.627H125.11z M127.405,107.272h2.062v1.627h-1.843L127.405,107.272z
					 M130.746,108.899v-1.627h2.061l-0.219,1.627H130.746z M133.879,108.899l0.219-1.627h1.399l-0.395,1.627H133.879z"/>
				<rect x="108.835" y="80.949" fill="#FC7A4A" width="12.91" height="11.344"/>
				<rect x="125.58" y="80.949" fill="#4EB86D" width="12.911" height="11.344"/>
				<rect x="47.866" y="52.058" fill="#CACACA" width="96.431" height="7.056"/>
				<circle fill="#FC7A4A" cx="52.366" cy="55.585" r="1.735"/>
				<circle fill="#F7DE4A" cx="57.762" cy="55.585" r="1.734"/>
				<path opacity="0.32" fill="#FFFFFF" d="M151.365,50.102v69.827c0,3.02-2.447,5.467-5.468,5.467h-45.487l-24.856-81.55h69.553
					C148.564,43.846,151.365,46.647,151.365,50.102z"/>
				<path fill="#FC7A4A" d="M164.077,111.901v45.762c0,2.322-1.883,4.203-4.207,4.203H96.051c-2.321,0-4.203-1.881-4.203-4.203
					v-45.762c0-2.322,1.882-4.203,4.203-4.203h63.818C162.194,107.698,164.077,109.579,164.077,111.901z"/>
				<rect x="101.258" y="112.106" fill="#E4E4E4" width="55.696" height="45.354"/>
				<rect x="103.948" y="126.559" fill="#FFFFFF" width="49.866" height="30.901"/>
				<rect x="103.948" y="120.169" fill="#FC7A4A" width="49.866" height="3.736"/>
				<rect x="103.948" y="114.285" fill="#1CA9E3" width="49.866" height="3.735"/>
				<rect x="108.167" y="151.612" fill="#4EB86D" width="41.429" height="3.735"/>
				<path opacity="0.32" fill="#FFFFFF" d="M164.077,111.901v45.762c0,2.322-1.883,4.203-4.207,4.203h-26.986l-16.51-54.168h43.496
					C162.194,107.698,164.077,109.579,164.077,111.901z"/>
			</g>
			<path fill="#FBD084" d="M35.966,114.222v-6.306l-10.752,10.751c-1.468,1.47-2.616,3.202-3.396,5.086
				c-0.78,1.883-1.193,3.919-1.193,5.997l-4.188,3.042l9.857,13.212l6.923-4.082h2.225c2.523,0,5.009-0.607,7.246-1.774
				l13.218-6.892v-0.203H40.279H39.24c-1.809,0-3.274-1.465-3.274-3.272V114.222z"/>
			<path fill="#808080" d="M35.966,85.619v28.604l1.311-1.311V89.039h25.148v36.428H41.721c0.793,2.552,0.313,5.412-1.442,7.587
				h20.184c1.809,0,3.275-1.465,3.275-3.272V85.619c0-1.808-1.466-3.273-3.275-3.273H39.239
				C37.431,82.346,35.966,83.811,35.966,85.619z M52.444,129.359c0,1.433-1.161,2.591-2.592,2.591c-1.433,0-2.591-1.159-2.591-2.591
				c0-1.431,1.159-2.592,2.591-2.592C51.283,126.767,52.444,127.928,52.444,129.359z"/>
			<g>
				<path fill="#FBD084" d="M65.174,124.008l-1.071,1.072c-0.117,0.115-0.239,0.222-0.365,0.318v-6.762
					c0.317-0.058,0.628-0.157,0.924-0.297c0.18,0.123,0.353,0.265,0.513,0.426C66.622,120.213,66.622,122.561,65.174,124.008z"/>
				<path fill="#FBD084" d="M66.77,116.538l-1.071,1.071c-0.311,0.309-0.661,0.554-1.038,0.729c-0.289-0.202-0.6-0.357-0.924-0.465
					v-6.798c0.045-0.039,0.088-0.08,0.131-0.123l0.717-0.717c0.798,0.094,1.572,0.446,2.184,1.059
					C68.218,112.741,68.218,115.09,66.77,116.538z"/>
				<path fill="#FBD084" d="M63.737,110.231v-8.357c0.09-0.005,0.18-0.01,0.268-0.01c0.949,0,1.896,0.362,2.621,1.087
					c1.448,1.448,1.448,3.795,0,5.243l-2.041,2.042c-0.145-0.019-0.291-0.027-0.438-0.027
					C64.012,110.208,63.874,110.215,63.737,110.231z"/>
			</g>
			<path fill="#FFFFFF" d="M37.276,89.039v23.874l3.786-3.787c1.602-1.603,4.201-1.603,5.803,0c0.802,0.802,1.202,1.85,1.202,2.901
				c0,1.05-0.4,2.1-1.202,2.902l-4.726,4.725c-1.24,1.241-1.604,3.133-0.849,4.717c0.171,0.356,0.314,0.725,0.43,1.097h20.706
				V89.039H37.276z"/>
			<circle fill="#4D4D4D" cx="49.852" cy="129.359" r="2.592"/>
			<path fill="#FBD084" d="M35.966,114.222v15.559c0,1.808,1.465,3.272,3.274,3.272h1.039c1.755-2.175,2.235-5.035,1.441-7.587
				h-4.444v-12.554L35.966,114.222z"/>
			<g>
				<rect x="39.028" y="101.271" fill="#E4E4E4" width="20.637" height="3.903"/>
				<rect x="39.028" y="92.519" fill="#E4E4E4" width="20.637" height="3.902"/>
			</g>
			<path fill="#FBD084" d="M37.276,112.913v12.554h4.444c-0.115-0.372-0.258-0.74-0.43-1.097c-0.755-1.583-0.392-3.476,0.849-4.717
				l4.726-4.725c0.802-0.802,1.202-1.852,1.202-2.902c0-1.051-0.4-2.1-1.202-2.901c-1.602-1.603-4.201-1.603-5.803,0L37.276,112.913
				z"/>
			<path fill="#FFFFFF" d="M41.986,110.364c0.967-0.966,2.534-0.966,3.5,0c0.967,0.967,0.967,2.534,0,3.5
				c-0.966,0.967-1.801,0.235-2.768-0.732C41.752,112.165,41.02,111.331,41.986,110.364z"/>
		</g>
	</g>
</g>
</svg>
