<?xml version="1.0" encoding="utf-8"?>
<!-- Generator: Adobe Illustrator 16.0.0, SVG Export Plug-In . SVG Version: 6.00 Build 0)  -->
<!DOCTYPE svg PUBLIC "-//W3C//DTD SVG 1.1//EN" "http://www.w3.org/Graphics/SVG/1.1/DTD/svg11.dtd">
<svg version="1.1" id="Layer_1" xmlns="http://www.w3.org/2000/svg" xmlns:xlink="http://www.w3.org/1999/xlink" x="0px" y="0px"
	 width="55px" height="55px" viewBox="62.5 62.5 55 55" enable-background="new 62.5 62.5 55 55" xml:space="preserve">
<image display="none" overflow="visible" enable-background="new    " width="49" height="39" xlink:href="65975CFB.png"  transform="matrix(1 0 0 1 66.0005 70)">
</image>
<image display="none" overflow="visible" enable-background="new    " width="49" height="39" xlink:href="65975CF9.png"  transform="matrix(1 0 0 1 65.5 71.5)">
</image>
<g display="none">
	<linearGradient id="SVGID_1_" gradientUnits="userSpaceOnUse" x1="90.4165" y1="73.6792" x2="90.4165" y2="103.7505">
		<stop  offset="0" style="stop-color:#FFFFFF"/>
		<stop  offset="1" style="stop-color:#F8E4C3"/>
	</linearGradient>
	<path display="inline" fill-rule="evenodd" clip-rule="evenodd" fill="url(#SVGID_1_)" stroke="#F2A84D" d="M112.5,99.953
		c0,2.1-1.496,3.797-3.345,3.797H71.678c-1.846,0-3.345-1.697-3.345-3.797V77.475c0-2.097,1.499-3.796,3.345-3.796h37.477
		c1.849,0,3.345,1.699,3.345,3.796V99.953z"/>
	<g display="inline">
		<g>
			<path fill-rule="evenodd" clip-rule="evenodd" fill="#107DB0" d="M102.397,86.181c-0.999,0-1.787,0.303-2.39,0.438l-0.187,1.721
				c0.301-0.163,1.253-0.465,2.041-0.491c0.79-0.026,1.254,0.164,1.09,0.929c-2.342,0-3.918,0.544-4.241,2.268
				c-0.468,2.948,2.386,2.868,3.524,1.582l-0.142,0.713h2.089l0.905-4.702C105.457,86.647,103.858,86.156,102.397,86.181z
				 M102.536,90.989c-0.116,0.63-0.557,0.901-1.091,0.929c-0.463,0.027-0.88-0.438-0.579-0.984c0.23-0.462,0.881-0.572,1.276-0.572
				c0.162,0,0.348,0,0.51,0C102.605,90.581,102.581,90.771,102.536,90.989z"/>
			<polygon fill-rule="evenodd" clip-rule="evenodd" fill="#107DB0" points="106.873,84.325 105.147,93.341 107.267,93.341 
				109.016,84.325 106.873,84.325 106.873,84.325 			"/>
			<path fill-rule="evenodd" clip-rule="evenodd" fill="#107DB0" d="M97.129,84.353h-3.881l-1.721,8.988h2.256l0.581-2.979h1.604
				c1.582,0,2.884-1.091,3.23-2.949C99.595,85.308,98.247,84.353,97.129,84.353z M97.062,87.413
				c-0.141,0.683-0.743,1.227-1.326,1.227h-1.048l0.467-2.458h1.115C96.852,86.181,97.201,86.729,97.062,87.413z"/>
		</g>
		<g>
			<path fill-rule="evenodd" clip-rule="evenodd" fill="#1B557D" d="M82.063,86.181c-0.984,0-1.763,0.303-2.334,0.438l-0.184,1.721
				c0.274-0.163,1.212-0.465,1.993-0.491c0.779-0.026,1.237,0.164,1.1,0.929c-2.314,0-3.873,0.544-4.193,2.268
				c-0.458,2.948,2.359,2.868,3.46,1.582l-0.136,0.713h2.083l0.895-4.702C85.111,86.647,83.506,86.156,82.063,86.181z
				 M82.224,90.989c-0.115,0.63-0.572,0.901-1.099,0.929c-0.458,0.027-0.849-0.438-0.551-0.984c0.228-0.462,0.871-0.572,1.237-0.572
				c0.185,0,0.344,0,0.528,0C82.292,90.581,82.248,90.771,82.224,90.989z"/>
			<polygon fill-rule="evenodd" clip-rule="evenodd" fill="#1B557D" points="85.652,86.312 87.738,86.312 88.075,90.498 
				90.115,86.312 92.268,86.312 87.313,96.328 84.981,96.328 86.505,93.386 85.652,86.312 85.652,86.312 			"/>
			<path fill-rule="evenodd" clip-rule="evenodd" fill="#1B557D" d="M76.878,84.353h-3.893l-1.725,8.988h2.284l0.56-2.979h1.631
				c1.562,0,2.866-1.091,3.217-2.949C79.348,85.308,78.02,84.353,76.878,84.353z M76.808,87.413
				c-0.141,0.683-0.723,1.227-1.306,1.227h-1.072l0.489-2.458h1.119C76.598,86.181,76.971,86.729,76.808,87.413z"/>
		</g>
		<g>
			<path fill="#1B557D" d="M109.473,85.491v-1.062h-0.349v-0.144h0.843v0.144h-0.353v1.062H109.473z"/>
			<path fill="#1B557D" d="M110.104,85.491v-1.206h0.212l0.252,0.854c0.022,0.08,0.037,0.138,0.05,0.178
				c0.012-0.043,0.031-0.109,0.057-0.194l0.254-0.838h0.189v1.206h-0.134v-1.009l-0.311,1.009h-0.127l-0.307-1.026v1.026H110.104z"
				/>
		</g>
	</g>
</g>
<g>
	<linearGradient id="SVGID_2_" gradientUnits="userSpaceOnUse" x1="90.4165" y1="73.6792" x2="90.4165" y2="103.7505">
		<stop  offset="0" style="stop-color:#FFFFFF"/>
		<stop  offset="1" style="stop-color:#DAEDEA"/>
	</linearGradient>
	<path fill-rule="evenodd" clip-rule="evenodd" fill="url(#SVGID_2_)" d="M112.5,99.953c0,2.1-1.496,3.797-3.345,3.797H71.678
		c-1.846,0-3.345-1.697-3.345-3.797V77.475c0-2.097,1.499-3.796,3.345-3.796h37.477c1.849,0,3.345,1.699,3.345,3.796V99.953z"/>
</g>
<g>
	<path fill-rule="evenodd" clip-rule="evenodd" fill="#005280" d="M112.5,77.105c0-2.291-1.103-3.426-3.241-3.426H71.574
		c-1.069,0-1.854,0.307-2.372,0.936c-0.584,0.632-0.869,1.442-0.869,2.49v23.219c0,1.045,0.284,1.84,0.869,2.488
		c0.602,0.632,1.37,0.938,2.372,0.938h37.685c2.139,0,3.241-1.153,3.241-3.426V77.105L112.5,77.105z M109.259,74.22
		c1.771,0,2.673,0.973,2.673,2.885v23.219c0,1.931-0.901,2.885-2.673,2.885H71.574c-0.852,0-1.503-0.269-1.988-0.81
		c-0.501-0.525-0.751-1.246-0.751-2.075V77.105c0-1.913,0.886-2.885,2.74-2.885H109.259L109.259,74.22z"/>
	<path fill-rule="evenodd" clip-rule="evenodd" fill="#005280" d="M71.875,75.554c-0.718,0-1.169,0.125-1.42,0.396
		c-0.217,0.307-0.317,0.811-0.317,1.551v5.029h40.559v-5.029c0-1.316-0.602-1.947-1.805-1.947H71.875L71.875,75.554z"/>
	<path fill-rule="evenodd" clip-rule="evenodd" fill="#F2A713" d="M70.137,99.856c0,1.334,0.584,2.018,1.737,2.018h37.017
		c1.203,0,1.805-0.684,1.805-2.018v-5.03H70.137V99.856L70.137,99.856z"/>
	<path fill-rule="evenodd" clip-rule="evenodd" fill="#005280" d="M83.567,84.676c0,0.234-0.034,0.414-0.117,0.541l-2.924,5.499
		l-0.183-6.706h-4.677l1.57,0.811c0.451,0.307,0.685,0.703,0.685,1.208l0.434,7.121h2.289l5.479-9.141h-2.807
		C83.484,84.171,83.567,84.423,83.567,84.676L83.567,84.676z"/>
	<path fill-rule="evenodd" clip-rule="evenodd" fill="#005280" d="M102.477,84.279l0.184-0.27h-2.856
		c0.101,0.108,0.135,0.162,0.135,0.198c-0.034,0.144-0.101,0.234-0.135,0.342l-4.158,8.185c-0.1,0.145-0.201,0.271-0.318,0.415
		h2.356l-0.117-0.271c0-0.233,0.117-0.667,0.366-1.28l0.501-1.009h2.423c0.101,0.848,0.168,1.55,0.2,2.072l-0.2,0.487h2.924
		l-0.435-0.686L102.477,84.279L102.477,84.279z M100.74,89.31h-1.738l1.487-3.084L100.74,89.31L100.74,89.31z"/>
	<path fill-rule="evenodd" clip-rule="evenodd" fill="#005280" d="M93.523,83.54c-0.902,0-1.67,0.271-2.354,0.812
		c-0.752,0.469-1.12,1.064-1.12,1.803c0,0.848,0.267,1.587,0.801,2.146l1.621,1.208c0.584,0.451,0.868,0.847,0.868,1.208
		c0,0.343-0.151,0.65-0.435,0.884c-0.284,0.234-0.602,0.343-1.002,0.343c-0.585,0-1.587-0.451-2.974-1.279v1.676
		c1.086,0.703,2.139,1.063,3.157,1.063c0.969,0,1.788-0.288,2.489-0.938c0.751-0.595,1.119-1.297,1.119-2.072
		c0-0.649-0.268-1.245-0.869-1.876l-1.553-1.208c-0.518-0.451-0.802-0.847-0.802-1.154c0-0.703,0.384-1.064,1.17-1.064
		c0.533,0,1.318,0.325,2.372,1.01l0.315-1.749C95.444,83.81,94.525,83.54,93.523,83.54L93.523,83.54z"/>
	<path fill-rule="evenodd" clip-rule="evenodd" fill="#005280" d="M87.31,93.149c-0.034-0.379-0.101-0.721-0.134-1.081l2.122-7.393
		l0.501-0.667h-3.057c0.034,0.162,0.067,0.378,0.1,0.541c0,0.163,0,0.361-0.033,0.541l-2.121,7.319l-0.435,0.74H87.31L87.31,93.149z
		"/>
</g>
</svg>
