<?xml version="1.0" encoding="utf-8"?>
<!-- Generator: Adobe Illustrator 16.0.0, SVG Export Plug-In . SVG Version: 6.00 Build 0)  -->
<!DOCTYPE svg PUBLIC "-//W3C//DTD SVG 1.1//EN" "http://www.w3.org/Graphics/SVG/1.1/DTD/svg11.dtd">
<svg version="1.1" id="Isolation_Mode" xmlns="http://www.w3.org/2000/svg" xmlns:xlink="http://www.w3.org/1999/xlink" x="0px"
	 y="0px" width="800px" height="800px" viewBox="0 0 800 800" enable-background="new 0 0 800 800" xml:space="preserve">
<g>
	<g>
		<g>
			<path fill="#A03333" d="M731.265,672.653c-0.71-3.068-4.324-5.662-7.48-5.102c-4.87-0.424-5.984,14.869,2.859,12.973
				C730.323,679.734,732.08,676.179,731.265,672.653z M727.735,678.232c-2.664,1.901-5.378-0.42-6.06-2.992
				c-0.673-2.54-0.16-5.223,2.221-6.385c1.987,0.435,3.705,0.805,5.067,2.696C730.552,673.76,729.871,676.706,727.735,678.232z"/>
			<path fill="#D6514D" d="M728.962,671.551c-1.362-1.891-3.08-2.261-5.067-2.697c-2.381,1.163-2.895,3.846-2.221,6.386
				c0.682,2.573,3.396,4.893,6.06,2.992C729.871,676.706,730.552,673.76,728.962,671.551z"/>
			<path fill="#FFE6F2" d="M729.251,674.968c-0.625,0.465-1.513,0.411-2.12-0.065c-0.831-0.362-1.42-1.381-1.713-2.167
				c-0.414-1.113-0.485-2.255-0.232-3.414c0.101-0.466,0.565-0.625,0.98-0.567c1.946,0.27,3.531,1.791,3.791,3.755
				C730.071,673.368,730.007,674.408,729.251,674.968z"/>
		</g>
		<g>
			<path fill="#A03333" d="M726.284,595.891c-0.709-3.067-4.322-5.661-7.479-5.101c-4.871-0.424-5.985,14.869,2.857,12.972
				C725.345,602.972,727.102,599.416,726.284,595.891z M722.756,601.469c-2.664,1.902-5.379-0.419-6.062-2.992
				c-0.673-2.54-0.16-5.222,2.222-6.385c1.986,0.436,3.705,0.805,5.067,2.697C725.573,596.997,724.894,599.943,722.756,601.469z"/>
			<path fill="#D6514D" d="M723.984,594.789c-1.362-1.891-3.081-2.261-5.067-2.697c-2.382,1.163-2.895,3.846-2.222,6.385
				c0.683,2.573,3.398,4.894,6.062,2.992C724.894,599.943,725.573,596.997,723.984,594.789z"/>
			<path fill="#FFE6F2" d="M724.272,598.205c-0.625,0.465-1.512,0.411-2.119-0.065c-0.831-0.362-1.421-1.382-1.713-2.168
				c-0.414-1.112-0.485-2.255-0.232-3.414c0.102-0.465,0.565-0.625,0.981-0.566c1.945,0.269,3.531,1.791,3.791,3.755
				C725.093,596.605,725.027,597.646,724.272,598.205z"/>
		</g>
		<g>
			<path fill="#FFAA00" d="M725.54,580.5c-0.71-3.068-4.323-5.662-7.479-5.102c-4.87-0.425-5.985,14.868,2.859,12.973
				C724.6,587.581,726.357,584.025,725.54,580.5z M722.011,586.078c-2.664,1.902-5.378-0.419-6.061-2.993
				c-0.673-2.539-0.161-5.221,2.222-6.384c1.986,0.435,3.705,0.805,5.066,2.697C724.827,581.605,724.148,584.552,722.011,586.078z"
				/>
			<path fill="#D66D38" d="M723.239,579.398c-1.361-1.892-3.08-2.262-5.066-2.697c-2.383,1.163-2.895,3.845-2.222,6.384
				c0.683,2.574,3.397,4.894,6.061,2.993C724.148,584.552,724.827,581.605,723.239,579.398z"/>
			<path fill="#FFE6F2" d="M723.527,582.813c-0.625,0.465-1.512,0.411-2.12-0.065c-0.83-0.363-1.42-1.382-1.713-2.167
				c-0.414-1.114-0.484-2.256-0.231-3.415c0.101-0.465,0.564-0.624,0.98-0.566c1.946,0.269,3.531,1.791,3.791,3.756
				C724.348,581.214,724.282,582.254,723.527,582.813z"/>
		</g>
	</g>
	<g>
		<g>
			<path fill="#F1CA13" d="M722.39,688.971c-0.977-9.071-0.963-18.406-1.495-27.461c-0.664-11.312-1.317-22.626-1.965-33.938
				c-0.648-11.313-1.269-22.626-1.914-33.939c-0.486-8.485-1.242-17.053-1.388-25.583c-0.026-0.31-0.024-0.631-0.021-0.953
				c-0.001-0.141,0.001-0.28-0.001-0.422c-0.003-0.399-0.021-0.794-0.118-1.16c-0.211-0.813-0.531-1.627-1.104-2.26
				c-31.218,0.321-62.458-0.293-93.675-0.533c-30.788-0.235-61.597-0.324-92.373-1.293c0.576,5.554,0.106,11.282-0.024,16.846
				c-0.094,3.975,0.159,8.102-0.172,12.11c0.04,0.046,0.076,0.098,0.081,0.174c0.887,17.003,0.67,34.123,0.847,51.149
				c0.088,8.524,0.177,17.049,0.265,25.574c0.077,7.377,0.611,14.873,0.288,22.251c16.267-0.354,32.759,1.304,49.03,1.705
				c15.896,0.393,31.795,0.594,47.695,0.556C658.404,691.718,690.373,690.454,722.39,688.971z"/>
			<path fill="#808080" d="M723.191,661.509c-0.665-11.313-1.34-22.626-2.021-33.938c-0.679-11.313-1.387-22.626-2.069-33.939
				c-0.607-10.067-0.854-20.283-2.155-30.299c-0.099-0.253-0.181-0.526-0.279-0.809c-0.025-0.075-0.058-0.15-0.087-0.226
				c-0.351-0.547-0.774-1.013-1.367-1.199c-0.201-0.063-0.414-0.103-0.631-0.134c-30.609-0.773-61.261-0.631-91.88-0.852
				c-31.623-0.229-63.264-0.624-94.886-0.09c-0.005,0.018-0.014,0.039-0.021,0.058c-0.211-0.042-0.424,0.045-0.467,0.329
				c-0.792,5.21-0.583,10.631-0.553,15.891c0.033,5.855-0.73,12.038,0.283,17.816c0.037,0.213,0.3,0.262,0.458,0.161
				c-0.426,15.131-0.056,30.332,0.011,45.461c0.037,8.524,0.074,17.05,0.112,25.573c0.037,8.479-0.496,17.123,0.127,25.574
				c0.072,0.982,1.266,1.126,1.664,0.435c15.501,2.019,31.626,1.759,47.233,2.207c16.557,0.476,33.119,0.688,49.683,0.687
				c32.099-0.002,64.313-0.625,96.352-2.727c0.097,0.742,0.183,1.485,0.295,2.222c0.17,1.111,1.852,0.78,1.889-0.256
				C725.25,682.908,723.811,672.048,723.191,661.509z M626.346,691.794c-15.9,0.038-31.799-0.163-47.695-0.556
				c-16.271-0.401-32.763-2.059-49.03-1.705c0.323-7.378-0.211-14.874-0.288-22.251c-0.088-8.525-0.177-17.051-0.265-25.574
				c-0.177-17.026,0.04-34.147-0.847-51.149c-0.005-0.077-0.041-0.128-0.081-0.174c0.331-4.008,0.078-8.135,0.172-12.111
				c0.13-5.563,0.6-11.292,0.024-16.845c30.776,0.968,61.585,1.058,92.373,1.293c31.217,0.24,62.457,0.854,93.675,0.533
				c0.572,0.633,0.892,1.447,1.104,2.26c0.097,0.366,0.115,0.761,0.118,1.16c0.002,0.142,0,0.281,0.001,0.422
				c-0.002,0.322-0.004,0.644,0.021,0.953c0.146,8.529,0.902,17.097,1.388,25.583c0.645,11.313,1.266,22.626,1.914,33.939
				c0.648,11.313,1.301,22.626,1.965,33.938c0.532,9.055,0.518,18.39,1.495,27.461C690.373,690.454,658.404,691.718,626.346,691.794
				z"/>
		</g>
		<g>
			<g>
				<path fill="#666666" d="M721.073,687.988c-0.649-7.238-0.754-14.569-1.134-21.823c-0.366-6.966-1.179-14.085-0.895-21.062
					c-31.598,0.221-63.199,0.134-94.799,0.122c-31.547-0.009-63.217,0.587-94.749-0.526c1.389,15.584,1.386,31.381,2.087,47.01
					c0.009,0.213-0.054,0.378-0.14,0.522c31.857-2.643,63.838-3.95,95.792-4.644C658.46,686.91,689.861,686.645,721.073,687.988z"/>
				<path fill="#666666" d="M714.543,567.963c-0.078-1-0.255-2.011-0.341-3.018c-0.018,0.001-0.028,0.01-0.048,0.01
					c-31.202,0.603-62.539-0.629-93.746-1.007c-30.47-0.369-60.973-0.503-91.433-1.377c0.194,0.857,0.085,1.797,0.091,2.696
					c0.005,0.808-0.354,4.098,0.417,4.966c61.679,0.163,123.377,1.338,185.047,2.358
					C714.638,571.051,714.663,569.505,714.543,567.963z"/>
			</g>
			<path opacity="0.5" fill="#808080" enable-background="new    " d="M531.228,691.73c0.087-0.144,0.149-0.309,0.139-0.522
				c-0.7-15.629-0.697-31.426-2.088-47.01c0.103,0.004,0.202,0.006,0.304,0.009c2.065,16.584,15.283,29.447,31.232,34.219
				c18.959,5.672,40.867,4.293,60.236,1.319c10.419-1.599,20.214-4.38,29.873-8.605c7.56-3.306,15.975-7.185,24.465-6.343
				c8.434,0.836,14.327,5.368,21.049,10.102c3.939,2.772,8.673,6.109,13.679,6.278c4.172,0.141,8.185-1.42,10.284-4.675
				c0.155,3.671,0.345,7.339,0.672,10.985c-31.247-1.343-62.684-1.077-93.941-0.399C595.139,687.781,563.121,689.089,531.228,691.73
				z"/>
			<path opacity="0.5" fill="#808080" enable-background="new    " d="M697.187,687.977c-0.752-0.739-1.441-1.53-2.111-2.339
				c0.018,0.059,0.04,0.112,0.058,0.171c0.306,1.105-0.984,1.641-1.764,1.026c-3.564-2.813-5.377-7.326-8.908-10.298
				c-3.717-3.128-8.043-5.084-13.006-4.847c-9.476,0.453-18.396,4.795-23.756,12.612c-0.286,0.417-0.793,0.282-0.943-0.09
				c-0.615,0.566-1.247,1.104-1.931,1.563c-0.106,0.073-0.211-0.046-0.194-0.149c0.794-5.095,6.188-10.114,10.254-12.926
				c4.983-3.446,11.043-6.044,17.234-5.733c11.373,0.57,22.961,9.157,26.936,19.921C699.456,687.979,697.94,688.718,697.187,687.977
				z"/>
			<path opacity="0.5" fill="#808080" enable-background="new    " d="M529.065,565.266c-0.006-0.899,0.102-1.839-0.091-2.696
				c0.003,0,0.006,0,0.009,0c3.652,8.473,17.499,5.964,24.878,5.981c7.937,0.021,15.872,0.051,23.81,0.087l47.617,0.226
				c16.534,0.077,33.068,0.154,49.603,0.232c7.936,0.038,15.873,0.117,23.809,0.115c4.584-0.001,9.323-0.126,13.288-2.126
				c0.292-0.374,0.564-0.771,0.757-1.177c-0.008-0.313-0.014-0.624-0.021-0.938c0.478-0.009,0.955-0.009,1.432-0.018
				c0.02,0,0.03-0.009,0.048-0.01c0.086,1.007,0.263,2.018,0.34,3.018c0.121,1.543,0.095,3.089-0.012,4.63
				c-61.67-1.02-123.368-2.194-185.047-2.358C528.713,569.364,529.072,566.074,529.065,565.266z"/>
			<g>
				<path fill="#5A5A5A" d="M723.061,688.602c-0.095-7.471-0.802-14.979-1.208-22.437c-0.385-7.071-0.345-14.323-1.393-21.334
					c0.438-0.492,0.23-1.489-0.63-1.496c-31.857-0.273-63.722-0.229-95.583-0.264c-31.824-0.035-63.772-0.692-95.583,0.416
					c-0.503,0.018-0.668,0.508-0.512,0.853c-0.001,0.016-0.008,0.024-0.008,0.04c-0.242,15.74,0.964,31.595,1.439,47.329
					c0.011,0.366,0.189,0.617,0.427,0.774c-0.503,0.399-0.384,1.373,0.414,1.328c31.598-1.772,63.189-3.388,94.836-4.011
					c32.104-0.632,64.141-0.063,96.239,0.346c0.505,0.505,1.488,0.358,1.558-0.505C723.226,689.323,723.226,688.929,723.061,688.602
					z M627.236,687.587c-31.954,0.694-63.935,2.001-95.792,4.644c0.086-0.144,0.149-0.309,0.139-0.522
					c-0.7-15.629-0.697-31.426-2.086-47.01c31.532,1.112,63.202,0.517,94.749,0.526c31.6,0.012,63.201,0.099,94.799-0.121
					c-0.284,6.976,0.529,14.095,0.895,21.061c0.38,7.254,0.485,14.585,1.134,21.823C689.861,686.645,658.46,686.91,627.236,687.587z
					"/>
				<path fill="#5A5A5A" d="M714.825,563.044c-0.074-0.134-0.19-0.167-0.305-0.154c-0.025-0.019-0.057-0.03-0.085-0.045
					c-0.099-0.059-0.211-0.102-0.35-0.108c-7.475-0.355-15.794-1.08-23.313,0.071c-22.782-0.434-45.615-0.257-68.368-0.527
					c-31.238-0.372-62.505-0.994-93.746-0.843c-0.448,0.002-0.616,0.421-0.512,0.746c-0.264,0.734-0.195,1.498-0.218,2.358
					c-0.041,1.454-0.011,2.903-0.143,4.352c-0.062,0.69-0.045,1.528,0.247,2.102c-0.026,0.434,0.234,0.893,0.798,0.907
					c61.974,1.545,123.997,2.063,185.985,2.741c0.453,0.006,0.738-0.238,0.881-0.552c0.146-0.12,0.249-0.299,0.26-0.537
					C716.108,570.347,716.425,565.956,714.825,563.044z M714.531,572.591c-61.67-1.02-123.368-2.194-185.047-2.358
					c-0.771-0.868-0.412-4.158-0.417-4.966c-0.006-0.899,0.102-1.839-0.091-2.696c30.46,0.874,60.963,1.007,91.433,1.377
					c31.207,0.379,62.544,1.609,93.746,1.007c0.02,0,0.03-0.009,0.048-0.01c0.086,1.007,0.263,2.018,0.341,3.018
					C714.663,569.505,714.638,571.051,714.531,572.591z"/>
			</g>
		</g>
	</g>
	<g>
		<g>
			<path fill="#FFFFFF" d="M489.031,585.138c0.053,0.117,0.107,0.235,0.166,0.336c0.008,0.014,0.021,0.021,0.03,0.034
				c5.513-1.371,11.619-1.605,17.182-1.414c4.79,0.165,10.65,0.035,15.376,1.7c0.761,0.013,1.552,0.25,2.245,0.438
				c0.315,0.086,0.684,0.157,1.035,0.264c0.296,0.062,0.58,0.156,0.846,0.302c0.039-2.753,0.105-5.505,0.168-8.256
				c-0.563-5.719-0.53-11.773-0.521-17.396c-7.854,1.578-15.431,4.607-21.962,9.298c-3.572,2.564-6.983,5.434-9.896,8.743
				C492.061,581.051,490.674,583.246,489.031,585.138z"/>
			<path fill="#FFFFFF" d="M527.24,684.771c-1.222-9.396-0.709-19.323-0.819-28.771c-0.122-10.567-0.258-21.136-0.311-31.704
				s-0.17-21.136-0.232-31.704c-0.01-1.622,0-3.243,0.021-4.864c-0.059,0.011-0.115-0.005-0.173,0
				c-1.065,0.21-2.408-0.137-3.438-0.246c-0.396-0.042-0.793-0.072-1.188-0.105c-5.424,0.125-11.185-1.183-16.604-1.103
				c-5.345,0.079-10.622,0.868-15.938,1.116c-0.282,0.213-0.565,0.424-0.866,0.613c-0.28,0.176-0.535,0.422-0.801,0.646
				c-5.542,10.004-11.67,19.701-17.226,29.707c-5.743,10.344-10.565,21.515-16.936,31.477c0.001,0.096-0.027,0.193-0.097,0.284
				c-1.363,1.778-3.949,2.415-5.947,3.334c-1.621,0.745-3.242,1.513-4.908,2.157c-0.544,0.489-1.099,1.315-1.776,1.703
				c-1.385,4.904-2.688,9.793-3.166,14.908c-0.367,3.96-0.002,8.047-0.578,11.961c9.938,1.803,18.678,2.087,28.699,0.686
				c8.282-22.589,47.521-22.076,53.138,2.085c2.236-1.061,8.615,0.932,8.896-1.671C527.012,685.065,527.109,684.896,527.24,684.771z
				"/>
		</g>
		<g>
			<path fill="#CCCCCC" d="M527.187,684.308c-0.182,0.158-0.379,0.305-0.594,0.437c-0.918,0.565-1.801,0.011-2.104-0.811
				c-0.282,0.13-0.57,0.253-0.882,0.36c-0.634,0.22-1.193-0.08-1.506-0.558c-0.921,0.567-1.901,1.053-2.944,1.464
				c-0.615,0.242-1.143-0.034-1.447-0.49c-0.003,0.001-0.007,0.003-0.011,0.005c0-0.002-0.001-0.003-0.002-0.005
				c-0.073,0.03-0.146,0.063-0.217,0.097c-7.379-22.023-44.5-21.838-52.528,0.061c-9.208,1.289-17.343,1.137-26.31-0.292
				c-0.509-0.256-1.008-0.526-1.482-0.829c-0.299-0.19-0.554-0.378-0.789-0.563c0.176-1.604,0.226-3.231,0.247-4.864
				c1.208-0.867,2.831-1.586,4.191-2.135c1.836-0.74,5.69-3.082,8.386-2.949c0.37-0.118,0.762-0.213,1.14-0.168
				c0.37,0.045,0.72,0.263,0.911,0.562c0.257-0.09,0.568-0.001,0.664,0.336c4.46,15.731,19.584-1.278,26.247-4.847
				c5.797-3.104,12.485-4.566,19.039-3.436c1.67,0.287,3.35,0.68,4.982,1.207c-0.644-0.786-1.327-1.54-2.07-2.234
				c-1.344-1.253-3.023-2.19-4.579-3.224c-1.844-0.978-3.899-2.522-3.827-4.495c-0.447-1.313-0.6-3.113,0.724-3.902
				c0.159-0.095,0.36-0.005,0.413,0.168c0.355,1.195-0.118,2.44,0.377,3.634c0.207,0.499,0.543,1.15,0.957,1.707
				c0.235,0.226,0.485,0.439,0.756,0.639c1.421,0.43,2.832,1.295,4.088,2.259c1.196,0.59,2.353,1.206,3.266,2.001
				c1.432,1.245,2.875,2.717,3.912,4.388c0.437,0.48,0.953,0.98,1.373,1.531c0.037,0.022,0.077,0.044,0.114,0.067
				c0.25,0.161,0.522,0.342,0.814,0.534c0.038,0.023,0.074,0.051,0.112,0.073c2.073-0.812,4.527-0.452,6.738-0.445
				c2.684,0.009,5.368,0.03,8.053,0.047c0.648-2.913,0.957-5.89,1.146-8.891c-1.1-6.408-0.388-13.687-0.544-19.986
				c-0.187-7.601-0.049-15.327-1.034-22.879c-0.948-7.247-2.755-14.97-7.311-20.883c-5.348-6.944-11.778-9.173-20.232-9.897
				c-0.17-0.014-0.291-0.093-0.371-0.196c3.136-0.285,6.274-0.58,9.438-0.627c0.718-0.011,1.439,0.005,2.167,0.036
				c0.1,0.04,0.2,0.07,0.299,0.112c-0.029-0.03-0.055-0.068-0.085-0.1c4.706,0.226,9.587,1.16,14.225,1.053
				c0.395,0.033,0.792,0.063,1.188,0.105c1.031,0.109,2.374,0.456,3.438,0.246c0.058-0.005,0.113,0.011,0.173,0
				c-0.019,1.622-0.03,3.242-0.021,4.864c0.049,8.117,0.122,16.233,0.182,24.35c-0.073-0.028-0.144-0.063-0.206-0.107
				c0.081,0.591,0.148,1.184,0.218,1.777c0.015,1.896,0.031,3.79,0.041,5.686c0.054,10.568,0.188,21.137,0.312,31.704
				c0.084,7.215-0.189,14.707,0.218,22.031c-0.101,0.116-0.191,0.241-0.292,0.355c0.177,0.239,0.285,0.526,0.29,0.829
				c0.026-0.004,0.056,0.002,0.083,0C526.832,680.928,526.98,682.626,527.187,684.308z"/>
			<path fill="#CCCCCC" d="M446.683,653.45c1.998-0.919,4.584-1.557,5.947-3.334c0.07-0.091,0.098-0.188,0.097-0.284
				c1.675-2.619,3.239-5.324,4.744-8.073c-0.702,3.611-0.787,6.972,3.392,7.688c0.104,0.018,0.181,0.059,0.261,0.097
				c0.441,0.02,0.88,0.037,1.313,0.046c2.474,0.05,5.037-0.07,7.381,0.8c0.374,0.14,0.414,0.677,0,0.799
				c-2.749,0.814-5.765,0.393-8.593,0.241c-0.169-0.008-0.339-0.013-0.509-0.021c-0.042,0.01-0.078,0.031-0.122,0.036
				c-7.093,0.657-13.202,2.904-19.813,5.346c-0.059,0.021-0.113,0.032-0.166,0.035c0.414-0.401,0.793-0.883,1.162-1.216
				C443.442,654.966,445.063,654.197,446.683,653.45z"/>
		</g>
		<path fill="#CCCCCC" d="M505.713,584.078c4.604-0.398,9.061-1.079,12.46-5.051c4.321-5.051,5.695-11.345,6.665-17.719
			c0.24-0.051,0.479-0.113,0.72-0.162c-0.01,5.623-0.043,11.678,0.521,17.396c-0.063,2.751-0.129,5.503-0.168,8.256
			c-0.266-0.146-0.55-0.24-0.846-0.302c-0.351-0.107-0.72-0.178-1.035-0.264c-0.693-0.188-1.484-0.425-2.245-0.438
			c-4.726-1.665-10.586-1.535-15.376-1.7C506.18,584.087,505.944,584.084,505.713,584.078z"/>
		<path fill="#B3B3B3" d="M528.669,656.004c-0.116-10.568-0.223-21.137-0.408-31.704c-0.187-10.566-0.309-21.137-0.486-31.704
			c-0.08-4.759-0.309-9.513-0.524-14.266c0.169-3.881-0.033-7.953-0.408-11.888c-0.026-1.62-0.041-3.24-0.026-4.861
			c-0.033-0.317-0.064-0.627-0.121-0.899c-0.042-0.209-0.103-0.468-0.158-0.738c-0.222-0.168-0.456-0.317-0.697-0.449
			c-8.335,1.583-16.014,4.83-23.031,9.604c-5.477,3.726-13.629,10.218-15.718,16.988c-0.171,0.025-0.34,0.104-0.468,0.282
			c-6.986,9.759-12.915,20.466-18.751,30.944c-5.479,9.838-11.646,20.025-15.637,30.635c-0.726,0.574-1.455,1.154-2.197,1.714
			c-1.207,0.447-2.361,1.185-3.481,1.725c-1.867,0.901-3.761,1.778-5.566,2.808c-0.157,0.129-0.319,0.254-0.467,0.396
			c-0.388,0.374-0.767,0.751-1.16,1.114c-3.253,8.129-6.046,20.166-3.854,28.666c-0.081,0.177-0.039,0.402,0.171,0.521
			c0.066,0.075,0.157,0.113,0.255,0.104c9.159,3.255,20.082,3.641,29.475,1.234c0.402-0.103,0.536-0.405,0.497-0.701
			c6.376-9.047,13.403-15.071,25.076-15.515c12.694-0.48,20.907,7.763,25.899,18.36c0.323,0.688,1.162,0.387,1.371-0.188
			c0.765,0.365,1.699,0.191,2.663,0.193c1.688,0.004,3.398,0.09,5.084-0.038c1.6-0.12,3.311-1.627,2.472-3.206
			C529.556,675.624,528.776,665.558,528.669,656.004z M493.699,579.189c2.914-3.311,6.325-6.181,9.896-8.744
			c6.531-4.69,14.107-7.72,21.962-9.299c-0.01,5.623-0.043,11.678,0.521,17.396c-0.063,2.751-0.129,5.503-0.168,8.256
			c-0.266-0.146-0.55-0.24-0.846-0.302c-0.351-0.107-0.72-0.178-1.035-0.264c-0.693-0.188-1.484-0.425-2.245-0.438
			c-4.726-1.665-10.586-1.535-15.376-1.7c-5.563-0.191-11.669,0.043-17.182,1.414c-0.009-0.013-0.022-0.02-0.03-0.034
			c-0.059-0.101-0.112-0.219-0.166-0.336C490.674,583.246,492.061,581.051,493.699,579.189z M526.988,685.282
			c-0.28,2.603-6.66,0.61-8.896,1.671c-5.617-24.161-44.856-24.674-53.138-2.085c-10.021,1.401-18.761,1.117-28.699-0.686
			c0.576-3.914,0.211-8.001,0.578-11.961c0.478-5.116,1.781-10.004,3.166-14.907c0.677-0.389,1.232-1.215,1.776-1.704
			c1.666-0.644,3.287-1.412,4.908-2.157c1.998-0.919,4.584-1.556,5.947-3.334c0.07-0.091,0.098-0.188,0.097-0.284
			c6.371-9.962,11.193-21.133,16.936-31.477c5.556-10.005,11.684-19.703,17.226-29.707c0.266-0.225,0.521-0.471,0.801-0.646
			c0.301-0.189,0.584-0.4,0.866-0.612c5.316-0.248,10.593-1.038,15.938-1.117c5.419-0.08,11.18,1.228,16.604,1.103
			c0.395,0.033,0.792,0.063,1.188,0.105c1.031,0.109,2.374,0.456,3.438,0.246c0.058-0.005,0.114,0.011,0.173,0
			c-0.019,1.622-0.03,3.242-0.021,4.864c0.062,10.568,0.179,21.137,0.232,31.704c0.054,10.568,0.188,21.137,0.312,31.704
			c0.109,9.447-0.404,19.374,0.818,28.771C527.109,684.896,527.012,685.065,526.988,685.282z"/>
	</g>
	<g>
		<g>
			<path fill="#666666" d="M653.619,697.698c0.097-0.002,0.184,0.008,0.272,0.016c0.27-1.982,0.511-3.923,0.051-5.974
				c-0.139-0.622-1.459-4.868-2.363-6.412c-10.917,1.85-22.911,0.563-33.964,0.574c-11.958,0.011-23.915,0.03-35.873,0.078
				c-11.957,0.046-23.916,0.132-35.873,0.083c-11.883-0.049-24.033,0.738-35.873-0.317c-0.239-0.021-0.42-0.113-0.565-0.231
				c-0.162,0.438-0.46,0.509-1.08,1.563c-0.982,1.669-1.86,3.486-1.892,5.471c-0.03,1.897,0.236,3.924,1.19,5.612
				c0.063,0.108,0.337,0.308,0.637,0.511c12.128-0.913,24.55,0.071,36.703,0.246c11.789,0.169,23.581,0.246,35.373,0.218
				C604.807,699.075,629.19,698.207,653.619,697.698z"/>
			<path fill="#5A5A5A" d="M653.942,691.742c0.46,2.051,0.219,3.992-0.051,5.974c-0.088-0.008-0.175-0.018-0.272-0.016
				c-24.43,0.508-48.813,1.376-73.257,1.437c-11.792,0.028-23.584-0.049-35.373-0.218c-12.153-0.175-24.574-1.159-36.703-0.246
				c-0.3-0.203-0.574-0.403-0.637-0.511c-0.954-1.688-1.22-3.715-1.189-5.612c0.031-1.985,0.909-3.802,1.891-5.471
				c0.62-1.055,0.918-1.126,1.08-1.563c0.146,0.118,0.326,0.21,0.565,0.231c0.54,0.049,1.085,0.074,1.628,0.115
				c7.918,8.762,19.363,7.953,30.725,8.084c11.771,0.134,23.542,0.273,35.313,0.151c12.41-0.128,24.828-0.454,37.211-1.318
				c5.863-0.41,11.723-0.891,17.563-1.538c5.382-0.598,13.376-0.461,16.492-5.531c0.889-0.11,1.775-0.233,2.652-0.381
				C652.484,686.873,653.804,691.119,653.942,691.742z"/>
			<path fill="#4D4D4D" d="M649.128,697.799c-22.928,0.514-45.82,1.279-68.765,1.336c-11.792,0.028-23.584-0.049-35.373-0.218
				c-9.495-0.137-19.15-0.755-28.705-0.59c-2.156-1.188-4.156-2.75-5.928-4.825c-1.304-1.528,0.285-3.625,1.779-3.264
				c0.188-0.572,1.137-0.752,1.537-0.155c3.98,5.935,11.168,5.812,17.556,6.228c5.924,0.387,11.852,0.77,17.783,1.048
				c11.209,0.525,22.433,0.767,33.653,0.601c11.222-0.166,22.44-0.617,33.632-1.473c10.707-0.82,21.386-1.789,31.521-5.569
				c0.845-0.316,2.122,0.346,2.248,1.276C650.358,694.338,649.98,696.19,649.128,697.799z"/>
			<path fill="#5A5A5A" d="M651.686,683.567c-0.396-0.389-1.055-0.067-1.131,0.376c-10.643-1.598-22.23-0.387-32.939-0.385
				c-11.958,0.003-23.915-0.006-35.873-0.041c-11.957-0.033-23.916-0.107-35.873-0.046c-11.883,0.062-24.033-0.712-35.873,0.354
				c-0.584,0.053-0.882,0.46-0.914,0.886c-2.266,0.395-3.568,3.907-4.156,5.813c-0.979,3.176-0.181,6.643,1.449,9.43
				c0.172,0.294,0.513,0.507,0.859,0.493c0.677-0.026,0.932-0.029,1.313-0.22c10.313,1.454,20.973,1.303,31.414,1.523
				c12.629,0.267,25.264,0.397,37.898,0.397c25.222-0.003,50.608-0.179,75.782-1.636c0.117-0.007,0.226-0.023,0.331-0.045
				c0.41,0.283,1.068,0.267,1.304-0.242C657.71,694.992,655.68,687.494,651.686,683.567z M580.363,699.137
				c-11.792,0.028-23.584-0.049-35.373-0.218c-12.153-0.175-24.575-1.159-36.703-0.246c-0.3-0.203-0.574-0.403-0.637-0.511
				c-0.954-1.688-1.22-3.715-1.189-5.612c0.031-1.986,0.909-3.802,1.891-5.471c0.62-1.056,0.918-1.126,1.08-1.563
				c0.146,0.118,0.326,0.21,0.565,0.231c11.84,1.055,23.99,0.268,35.873,0.317c11.957,0.049,23.916-0.037,35.873-0.084
				c11.958-0.047,23.915-0.066,35.873-0.077c11.053-0.011,23.047,1.276,33.964-0.574c0.904,1.544,2.224,5.79,2.363,6.412
				c0.46,2.051,0.219,3.992-0.051,5.974c-0.088-0.008-0.175-0.018-0.272-0.016C629.19,698.207,604.807,699.075,580.363,699.137z"/>
		</g>
		<g>
			<path fill="#666666" d="M724.873,689.813c-0.06-0.446-0.161-0.892-0.336-1.331c-0.512-1.306-1.367-2.448-1.941-3.709
				c-5.013,1.757-11.245,1.465-16.475,1.541c-4.531,0.066-10.148,0.854-14.462-0.896c-2.866,1.183-3.955,3.876-4.149,6.933
				c-0.155,2.429-0.785,6.181,1.255,8.026c1.084,0.981,2.298,1.07,3.539,0.97c6.475-1.742,13.77-0.436,20.439-1.623
				c3.038-0.541,6.575-1.25,8.798-3.599C723.394,694.167,723.811,692.078,724.873,689.813z"/>
			<path fill="#5A5A5A" d="M723.555,688.814c0.375-0.168,0.679-0.298,0.952-0.401c0.01,0.022,0.021,0.045,0.03,0.067
				c0.175,0.44,0.276,0.886,0.336,1.331c-1.063,2.267-1.479,4.355-3.332,6.313c-2.223,2.349-5.76,3.058-8.798,3.599
				c-6.669,1.187-13.964-0.119-20.439,1.623c-1.241,0.1-2.455,0.01-3.539-0.97c-2.04-1.845-1.41-5.597-1.255-8.026
				c0.194-3.057,1.284-5.75,4.149-6.933c1.752,0.711,3.722,1,5.743,1.092c3.874,4.624,10.299,6.388,16.312,5.585
				C717.405,691.602,720.198,690.316,723.555,688.814z"/>
			<path fill="#4D4D4D" d="M722.875,694.314c-0.354,0.616-0.773,1.22-1.332,1.81c-2.224,2.349-5.761,3.058-8.799,3.599
				c-6.669,1.187-13.964-0.119-20.439,1.623c-1.241,0.1-2.455,0.01-3.539-0.97c-2.04-1.845-1.41-5.597-1.255-8.026
				c0.194-3.057,1.284-5.75,4.149-6.933c1.029,0.418,2.136,0.688,3.281,0.861c2.551,4.154,5.93,7.68,10.905,9.144
				C711.755,697.16,717.322,696.107,722.875,694.314z"/>
			<path fill="#5A5A5A" d="M723.617,683.675c-0.089-0.239-0.304-0.441-0.641-0.483c-5.396-0.689-11.382,0.669-16.855,0.838
				c-4.756,0.147-10.43-1.061-14.963,0.423c-5.229-0.143-5.687,7.884-5.764,11.719c-0.044,2.199,0.773,5.146,2.796,6.377
				c2.403,1.462,4.744,0.479,7.226,0.399c3.496,0.526,7.253,0.158,10.693,0.034c3.996-0.146,7.994-0.541,11.835-1.683
				c3.817-1.133,8.761-5.008,8.829-9.313C727.398,689.155,725.614,685.459,723.617,683.675z M721.541,696.125
				c-2.223,2.349-5.76,3.058-8.798,3.599c-6.669,1.187-13.964-0.118-20.439,1.623c-1.241,0.1-2.455,0.011-3.539-0.97
				c-2.04-1.845-1.41-5.597-1.255-8.026c0.194-3.057,1.284-5.75,4.149-6.933c4.313,1.75,9.931,0.962,14.462,0.896
				c5.229-0.076,11.463,0.216,16.475-1.541c0.574,1.261,1.429,2.403,1.941,3.709c0.175,0.439,0.276,0.885,0.336,1.33
				C723.811,692.078,723.394,694.167,721.541,696.125z"/>
		</g>
		<g>
			<path fill="#666666" d="M471.723,691.243c0.309-1.734,0.254-3.699,0.75-5.429c-9.139-0.058-18.331,0.154-27.458-0.229
				c-4.392-0.184-10.228-0.982-11.834-5.649c-0.338,0.223-0.73,0.379-1.082,0.581c-0.57,0.329-1.115,0.706-1.664,1.07
				c1.604,5.484,2.736,14.645,8.207,17.439c10.392,0.169,20.589,0.82,30.997,0.061C469.7,696.496,471.263,693.825,471.723,691.243z"
				/>
			<path fill="#5A5A5A" d="M473.944,685.276c0.273-0.596-0.008-1.467-0.864-1.474c-6.946-0.059-13.895-0.115-20.842-0.175
				c-6.85-0.057-13.352,0.649-18.514-4.464c-0.03-0.214-0.17-0.421-0.381-0.461c-0.685-0.126-1.355,0.294-1.922,0.652
				c-0.639,0.401-1.188,0.865-1.653,1.457c-0.116,0.053-0.214,0.146-0.222,0.306c-0.178,3.924,3.733,21.29,10.372,19.829
				c9.873,1.402,20.241,0.949,30.109,0.21c0.975-0.073,1.234-1.198,0.789-1.769c1.795-1.865,2.332-5.207,2.843-7.611
				C474.084,689.781,474.613,687.291,473.944,685.276z M469.639,699.087c-10.408,0.759-20.605,0.108-30.997-0.061
				c-5.471-2.794-6.603-11.955-8.207-17.439c0.549-0.364,1.094-0.741,1.664-1.07c0.352-0.201,0.744-0.358,1.082-0.581
				c1.606,4.668,7.442,5.465,11.834,5.649c9.127,0.383,18.319,0.171,27.458,0.23c-0.496,1.729-0.441,3.694-0.75,5.428
				C471.263,693.825,469.7,696.496,469.639,699.087z"/>
			<path fill="#5A5A5A" d="M438.643,699.027c-4.475-2.286-6.045-8.829-7.348-14.139c5.338,5.389,11.769,6.967,19.942,7.238
				c3.797,0.126,7.61,0.116,11.393-0.296c3.071-0.334,6.12-1.058,9.193-1.345c-0.033,0.254-0.058,0.512-0.101,0.757
				c-0.46,2.582-2.021,5.253-2.084,7.844C459.23,699.847,449.032,699.195,438.643,699.027z"/>
			<path fill="#4D4D4D" d="M470.42,695.497c-0.406,1.203-0.754,2.405-0.781,3.59c-10.408,0.759-20.605,0.108-30.997-0.061
				c-3.295-1.684-5.012-5.678-6.21-9.785c1.904,1.858,4.034,3.456,6.563,4.177c3.937,1.122,8.038,1.64,12.112,1.976
				C457.563,695.926,463.984,695.956,470.42,695.497z"/>
		</g>
	</g>
	<g>
		<g>
			<g>
				<path fill="#4D4D4D" d="M514.394,696.319c-0.546-13.311-11.925-24.898-25.713-23.606c-11.559,1.083-18.6,8.644-20.987,18.653
					c0.008,0.041,0.018,0.081,0.013,0.13c-1.067,12.701,4.744,26.347,18.822,28.523
					C500.718,722.213,515.008,711.294,514.394,696.319z"/>
				<path fill="#5A5A5A" d="M512.216,706.799c0.365-2.014,0.791-4.01,0.645-6.113c-0.277-3.987-1.045-7.809-2.524-11.53
					c-2.884-7.262-7.161-13.583-15.5-14.828c-7.526-1.123-15.759,1.309-20.584,7.468c-2.358,3.011-4.155,6.507-4.87,10.291
					c-0.415,2.2-0.462,4.057-1.32,6.078c-0.052,0.123-0.14,0.209-0.244,0.267c-0.267-2.294-0.303-4.63-0.11-6.936
					c0.005-0.049-0.005-0.089-0.013-0.13c2.387-10.01,9.428-17.57,20.987-18.653c13.788-1.292,25.167,10.295,25.713,23.606
					C514.551,700.125,513.74,703.667,512.216,706.799z"/>
				<path fill="#333333" d="M509.976,705.732c-0.195,0.277-0.675,0.116-0.571-0.241c1.346-4.599,2.602-8.974,1.323-13.786
					c-1.031-3.882-3.43-6.574-5.011-10.093c-0.157-0.351,0.168-0.728,0.535-0.534C514.188,685.252,514.566,699.204,509.976,705.732z
					"/>
				<path fill="#333333" d="M490.257,670.466c-14.303-0.281-27.855,13.761-24.775,28.299c0.015,0.074,0.046,0.129,0.078,0.186
					c0.235,11.601,10.3,21.778,21.895,23.581c15.285,2.375,28.017-10.045,29.278-24.645
					C518.044,682.723,504.632,670.747,490.257,670.466z M509.887,710.563c-0.668-0.641-1.932-0.792-2.491,0.056
					c-0.179,0.271-0.091,0.616,0.108,0.843c0.162,0.183,0.377,0.278,0.589,0.392c0.175,0.096,0.325,0.203,0.479,0.308
					c-1.739,1.914-3.791,3.548-6.056,4.837c0.116-0.236,0.138-0.515-0.042-0.782c-0.191-0.287-0.391-0.506-0.654-0.725
					c-0.722-0.599-1.69,0.134-1.283,0.988c0.146,0.31,0.312,0.559,0.541,0.813c0.132,0.146,0.289,0.211,0.45,0.238
					c-2.446,1.251-5.106,2.115-7.867,2.513c-0.11-0.54-0.552-1.086-0.98-1.357c-0.301-0.19-0.689,0.06-0.693,0.398
					c-0.004,0.346,0.135,0.638,0.256,0.956c0.022,0.058,0.045,0.105,0.067,0.159c-1.903,0.166-3.844,0.119-5.781-0.181
					c-0.057-0.01-0.109-0.022-0.165-0.032c0.242-0.466,0.372-1.006,0.269-1.48c-0.14-0.639-1.012-0.835-1.449-0.382
					c-0.358,0.371-0.524,0.959-0.535,1.521c-1.757-0.424-3.37-1.038-4.845-1.812c0.048-0.116,0.094-0.232,0.141-0.349
					c0.204-0.505,0.325-0.959,0.211-1.502c-0.077-0.36-0.593-0.601-0.904-0.367c-0.439,0.33-0.668,0.722-0.849,1.237
					c-0.017,0.046-0.032,0.093-0.049,0.139c-1.465-0.935-2.778-2.035-3.935-3.276c0.121-0.082,0.238-0.17,0.344-0.255
					c0.42-0.34,0.841-0.644,1.146-1.097c0.46-0.687-0.449-1.584-1.134-1.134c-0.256,0.169-0.916,0.778-1.31,1.383
					c-0.902-1.108-1.701-2.302-2.391-3.568c0.188-0.091,0.373-0.188,0.559-0.276c0.479-0.229,0.896-0.434,1.088-0.961
					c0.068-0.188-0.076-0.398-0.258-0.451c-0.47-0.136-0.865,0.043-1.275,0.267c-0.218,0.118-0.443,0.229-0.664,0.35
					c-0.9-1.859-1.588-3.851-2.072-5.912c0.632-0.067,1.294-0.277,1.653-0.693c0.355-0.414,0.367-1.134-0.183-1.413
					c-0.558-0.283-1.256-0.246-1.897-0.063c-0.33-2.03-0.47-4.107-0.428-6.18c0.359,0.095,0.739,0.142,1.044,0.174
					c0.813,0.086,0.877-1.115,0.184-1.352c-0.341-0.116-0.753-0.228-1.156-0.262c0.016-0.258,0.02-0.518,0.041-0.776
					c0.004-0.049-0.006-0.089-0.014-0.13c0.403-1.694,0.952-3.311,1.622-4.844c0.558,0.338,1.154,0.619,1.816,0.5
					c0.754-0.137,0.688-1.102,0.19-1.464c-0.387-0.28-0.926-0.309-1.424-0.277c3.442-6.876,9.716-11.719,18.781-12.568
					c13.788-1.292,25.167,10.295,25.713,23.606C514.616,701.749,512.868,706.636,509.887,710.563z"/>
			</g>
			<g>
				<path fill="#CCCCCC" d="M505.65,696.691c-0.627-8.631-6.627-16.265-16.15-15.248c-7.921,0.845-12.704,6.396-13.726,13.64
					c-0.071,7.141,3.871,13.925,11.879,15.206C496.482,711.701,506.395,706.938,505.65,696.691z"/>
				<path fill="#B3B3B3" d="M487.459,680.427c-8.725,1-15.142,11.194-12.275,19.172c0.74,3.416,2.499,6.548,5.407,8.793
					c9.354,7.226,22.534,3.125,26.32-7.998C510.813,688.931,497.739,679.249,487.459,680.427z M484.512,707.207
					c-2.413-1.209-4.226-3.166-5.372-5.451c-2.049-7.348-0.943-14.517,7.417-17.419c8.058-2.797,17.339,4.826,17.46,12.838
					C504.162,706.967,491.943,710.93,484.512,707.207z"/>
				<path fill="#999999" d="M491.034,678.96c-8.189-0.455-16.104,5.837-16.972,13.588c-2.863,8.3,3.294,16.761,11.225,19.785
					c10.527,4.014,21.999-3.221,23.12-14.051C509.537,687.354,501.411,679.538,491.034,678.96z M487.653,710.289
					c-8.008-1.281-11.95-8.065-11.879-15.206c1.022-7.244,5.805-12.795,13.726-13.64c9.523-1.017,15.523,6.617,16.15,15.248
					C506.395,706.938,496.482,711.701,487.653,710.289z"/>
			</g>
			<path fill="#FFFFFF" d="M496.389,687.73c-3.93-1.439-7.253-2.617-11.122,0.001c-4.103,2.775-3.85,6.428-4.943,10.711
				c-0.218,0.853-1.31,0.889-1.757,0.229c-3.439-5.069,1.323-11.894,5.883-14.292c3.646-1.918,10.89-1.77,12.459,2.831
				C497.009,687.502,496.687,687.838,496.389,687.73z"/>
		</g>
		<g>
			<g>
				<path fill="#4D4D4D" d="M694.061,696.319c-0.546-13.311-11.925-24.898-25.713-23.606c-11.559,1.083-18.601,8.644-20.988,18.653
					c0.009,0.041,0.019,0.081,0.014,0.13c-1.067,12.701,4.744,26.347,18.822,28.523
					C680.385,722.213,694.675,711.294,694.061,696.319z"/>
				<path fill="#5A5A5A" d="M691.882,706.799c0.365-2.014,0.792-4.01,0.646-6.113c-0.277-3.987-1.045-7.809-2.523-11.53
					c-2.885-7.262-7.162-13.583-15.502-14.828c-7.525-1.123-15.758,1.309-20.584,7.468c-2.358,3.011-4.154,6.507-4.869,10.291
					c-0.415,2.2-0.463,4.057-1.32,6.078c-0.052,0.123-0.14,0.209-0.244,0.267c-0.268-2.294-0.303-4.63-0.11-6.936
					c0.005-0.049-0.005-0.089-0.014-0.13c2.387-10.01,9.429-17.57,20.988-18.653c13.788-1.292,25.167,10.295,25.713,23.606
					C694.217,700.125,693.406,703.667,691.882,706.799z"/>
				<path fill="#333333" d="M689.643,705.732c-0.195,0.277-0.675,0.116-0.571-0.241c1.345-4.599,2.601-8.974,1.323-13.786
					c-1.031-3.882-3.43-6.574-5.011-10.093c-0.157-0.351,0.168-0.728,0.534-0.534C693.855,685.252,694.232,699.204,689.643,705.732z
					"/>
				<path fill="#333333" d="M669.923,670.466c-14.302-0.281-27.855,13.761-24.775,28.299c0.015,0.074,0.047,0.129,0.078,0.186
					c0.236,11.601,10.301,21.778,21.895,23.581c15.285,2.375,28.018-10.045,29.278-24.645
					C697.71,682.723,684.298,670.747,669.923,670.466z M689.554,710.563c-0.668-0.641-1.931-0.792-2.491,0.056
					c-0.179,0.271-0.091,0.616,0.108,0.843c0.163,0.183,0.378,0.278,0.589,0.392c0.174,0.096,0.325,0.203,0.479,0.308
					c-1.739,1.914-3.791,3.548-6.056,4.837c0.116-0.236,0.138-0.515-0.042-0.782c-0.191-0.287-0.391-0.506-0.655-0.725
					c-0.721-0.599-1.688,0.134-1.282,0.988c0.146,0.31,0.312,0.559,0.54,0.813c0.134,0.146,0.29,0.211,0.45,0.238
					c-2.444,1.251-5.105,2.115-7.867,2.513c-0.108-0.54-0.552-1.086-0.979-1.357c-0.301-0.19-0.689,0.06-0.693,0.398
					c-0.005,0.346,0.135,0.638,0.256,0.956c0.022,0.058,0.045,0.105,0.067,0.159c-1.904,0.166-3.843,0.119-5.781-0.181
					c-0.057-0.01-0.108-0.022-0.166-0.032c0.243-0.466,0.373-1.006,0.27-1.48c-0.14-0.639-1.011-0.835-1.449-0.382
					c-0.358,0.371-0.524,0.959-0.535,1.521c-1.757-0.424-3.37-1.038-4.845-1.812c0.047-0.116,0.094-0.232,0.141-0.349
					c0.204-0.505,0.325-0.959,0.21-1.502c-0.076-0.36-0.592-0.601-0.902-0.367c-0.44,0.33-0.669,0.722-0.851,1.237
					c-0.016,0.046-0.032,0.093-0.048,0.139c-1.465-0.935-2.778-2.035-3.935-3.276c0.122-0.082,0.238-0.17,0.344-0.255
					c0.42-0.34,0.841-0.644,1.145-1.097c0.461-0.687-0.448-1.584-1.133-1.134c-0.257,0.169-0.916,0.778-1.311,1.383
					c-0.901-1.108-1.701-2.302-2.39-3.568c0.188-0.091,0.372-0.188,0.558-0.276c0.48-0.229,0.897-0.434,1.089-0.961
					c0.068-0.188-0.076-0.398-0.257-0.451c-0.471-0.136-0.866,0.043-1.276,0.267c-0.218,0.118-0.444,0.229-0.664,0.35
					c-0.899-1.859-1.589-3.851-2.072-5.912c0.633-0.067,1.294-0.277,1.652-0.693c0.356-0.414,0.368-1.134-0.182-1.413
					c-0.558-0.283-1.255-0.246-1.897-0.063c-0.33-2.03-0.47-4.107-0.429-6.18c0.359,0.095,0.74,0.142,1.045,0.174
					c0.812,0.086,0.877-1.115,0.183-1.352c-0.34-0.116-0.752-0.228-1.156-0.262c0.017-0.258,0.021-0.518,0.041-0.776
					c0.005-0.049-0.005-0.089-0.014-0.13c0.404-1.694,0.953-3.311,1.623-4.844c0.557,0.338,1.153,0.619,1.815,0.5
					c0.755-0.137,0.688-1.102,0.19-1.464c-0.386-0.28-0.925-0.309-1.423-0.277c3.442-6.876,9.716-11.719,18.781-12.568
					c13.788-1.292,25.167,10.295,25.713,23.606C694.283,701.749,692.535,706.636,689.554,710.563z"/>
			</g>
			<g>
				<path fill="#CCCCCC" d="M685.317,696.691c-0.627-8.631-6.627-16.265-16.15-15.248c-7.921,0.845-12.705,6.396-13.727,13.64
					c-0.07,7.141,3.872,13.925,11.879,15.206C676.149,711.701,686.062,706.938,685.317,696.691z"/>
				<path fill="#B3B3B3" d="M667.124,680.427c-8.723,1-15.14,11.194-12.273,19.172c0.74,3.416,2.498,6.548,5.407,8.793
					c9.354,7.226,22.533,3.125,26.319-7.998C690.48,688.931,677.405,679.249,667.124,680.427z M664.179,707.207
					c-2.413-1.209-4.226-3.166-5.373-5.451c-2.049-7.348-0.942-14.517,7.418-17.419c8.057-2.797,17.339,4.826,17.459,12.838
					C683.829,706.967,671.61,710.93,664.179,707.207z"/>
				<path fill="#999999" d="M670.701,678.96c-8.189-0.455-16.104,5.837-16.972,13.588c-2.863,8.3,3.293,16.761,11.224,19.785
					c10.528,4.014,22-3.221,23.12-14.051C689.204,687.354,681.077,679.538,670.701,678.96z M667.319,710.289
					c-8.007-1.281-11.949-8.065-11.879-15.206c1.022-7.244,5.806-12.795,13.727-13.64c9.523-1.017,15.523,6.617,16.15,15.248
					C686.062,706.938,676.149,711.701,667.319,710.289z"/>
			</g>
			<path fill="#FFFFFF" d="M676.056,687.73c-3.931-1.439-7.254-2.617-11.122,0.001c-4.104,2.775-3.85,6.428-4.944,10.711
				c-0.218,0.853-1.309,0.889-1.756,0.229c-3.439-5.069,1.322-11.894,5.883-14.292c3.646-1.918,10.89-1.77,12.458,2.831
				C676.675,687.502,676.354,687.838,676.056,687.73z"/>
		</g>
	</g>
	<g>
		<g>
			<path fill="#FFF385" d="M444.156,677.344c0.17-1.229,0.313-2.464,0.362-3.705c0.122-3.091,0.843-11.794-5.095-9.986
				c-4.444,1.352-8.013,5.88-6.572,10.727c0.919,3.091,2.79,4.698,5.193,6.238C440.724,681.559,443.619,681.225,444.156,677.344z"/>
			<path fill="#FF7F00" d="M452.199,670.955c-0.818-3.722-3.321-6.057-6.744-7.055c0.541,1.182,0.588,2.679,0.699,4.275
				c0.233,3.283,0.384,7.39-0.613,10.566c-0.223,0.714-0.503,1.315-0.817,1.835C449.503,680.58,453.244,675.698,452.199,670.955z"/>
		</g>
		<g>
			<path fill="#FFCE00" d="M438.043,680.617c-2.402-1.54-4.273-3.147-5.192-6.238c-0.194-0.65-0.291-1.293-0.313-1.925
				c0.115,0.42,0.251,0.808,0.429,1.136c0.058,0.066,0.108,0.138,0.146,0.217c0.013,0.028,0.025,0.056,0.038,0.082
				c2.048,3.147,7.075,1.322,8.286-2.531c0.782-2.482,0.805-4.954,0.769-7.53c-0.001-0.047,0.019-0.083,0.024-0.126
				c2.863,1.391,2.386,7.463,2.288,9.938c-0.049,1.241-0.192,2.477-0.362,3.705C443.619,681.225,440.724,681.559,438.043,680.617z"
				/>
			<path fill="#D66D38" d="M444.723,680.576c0.314-0.52,0.594-1.121,0.817-1.835c0.117-0.371,0.218-0.755,0.304-1.149
				c0.047-0.023,0.096-0.043,0.141-0.071c0.16-0.102,0.293-0.209,0.422-0.331c1.451-0.787,2.695-1.945,3.342-3.494
				c0.938-2.241,0.471-4.213,0.827-6.385c0.756,1.018,1.313,2.229,1.624,3.644C453.244,675.698,449.503,680.58,444.723,680.576z"/>
		</g>
		<path fill="#FFAA00" d="M444.115,662.235c-0.046-0.003-0.082,0.011-0.124,0.016c-0.301-0.183-0.646-0.342-1.046-0.472
			c-4.948-1.61-10.91,3.316-11.814,7.975c-0.933,4.803,1.306,10.752,6.237,12.162c2.11,1.19,4.324,1.413,6.013,0.17
			c0.129,0.141,0.302,0.248,0.549,0.27c5.635,0.472,9.346-4.061,9.918-9.317C454.462,667.386,449.507,662.549,444.115,662.235z
			 M438.043,680.618c-2.403-1.54-4.274-3.147-5.193-6.238c-1.441-4.847,2.128-9.375,6.572-10.727
			c5.938-1.808,5.217,6.896,5.095,9.986c-0.049,1.241-0.192,2.477-0.362,3.705C443.619,681.225,440.724,681.559,438.043,680.618z
			 M444.724,680.576c0.314-0.52,0.594-1.121,0.817-1.835c0.997-3.176,0.846-7.283,0.613-10.566
			c-0.112-1.596-0.158-3.093-0.699-4.275c3.422,0.997,5.926,3.333,6.744,7.055C453.244,675.698,449.503,680.58,444.724,680.576z"/>
	</g>
	<g>
		<path fill="#A03333" d="M487.041,650.379c-1.489-1.578-6.178-2.05-7.129,0.262c-1.266,1.049-1.866,2.984-1.474,4.815
			c0.782,3.649,4.942,4.801,7.921,3.104C489.427,656.813,489.244,652.71,487.041,650.379z M485.519,656.196
			c-1.323,1.355-3.574,0.931-4.562-0.534c-0.778-1.156-0.599-2.912,0.308-3.95c1.181-0.449,2.243-1.085,3.622-0.452
			C486.814,652.144,486.855,654.827,485.519,656.196z"/>
		<path fill="#D6514D" d="M484.887,651.26c-1.379-0.633-2.441,0.003-3.622,0.452c-0.907,1.038-1.086,2.794-0.308,3.95
			c0.988,1.465,3.239,1.889,4.562,0.534C486.855,654.827,486.814,652.144,484.887,651.26z"/>
		<path opacity="0.8" fill="#FFFFFF" enable-background="new    " d="M484.387,652.041c-0.578,0.383-1.69,0.441-1.926,1.252
			c-0.113,0.39-0.173,0.831-0.155,1.239c0.016,0.383,0.163,0.753,0.132,1.139c-0.024,0.275-0.197,0.439-0.467,0.467
			c-0.795,0.082-1.364-0.655-1.725-1.266c-0.47-0.793-0.353-1.941,0.118-2.708c0.708-1.151,3.021-2.523,4.146-1.083
			C484.76,651.4,484.743,651.805,484.387,652.041z"/>
	</g>
	<g>
		<path fill="#A03333" d="M714.291,650.379c-1.489-1.578-6.178-2.05-7.129,0.262c-1.266,1.049-1.866,2.984-1.474,4.815
			c0.782,3.649,4.942,4.801,7.921,3.104C716.677,656.813,716.494,652.71,714.291,650.379z M712.769,656.196
			c-1.323,1.355-3.574,0.931-4.562-0.534c-0.778-1.156-0.599-2.912,0.308-3.95c1.181-0.449,2.243-1.085,3.622-0.452
			C714.064,652.144,714.105,654.827,712.769,656.196z"/>
		<path fill="#D6514D" d="M712.137,651.26c-1.379-0.633-2.441,0.003-3.622,0.452c-0.907,1.038-1.086,2.794-0.308,3.95
			c0.988,1.465,3.239,1.889,4.562,0.534C714.105,654.827,714.064,652.144,712.137,651.26z"/>
		<path opacity="0.8" fill="#FFFFFF" enable-background="new    " d="M711.637,652.041c-0.578,0.383-1.69,0.441-1.926,1.252
			c-0.113,0.39-0.173,0.831-0.155,1.239c0.016,0.383,0.163,0.753,0.132,1.139c-0.024,0.275-0.197,0.439-0.467,0.467
			c-0.795,0.082-1.364-0.655-1.725-1.266c-0.47-0.793-0.353-1.941,0.118-2.708c0.708-1.151,3.021-2.523,4.146-1.083
			C712.01,651.4,711.993,651.805,711.637,652.041z"/>
	</g>
	<g>
		<path fill="#E6E6E6" d="M524.705,669.05c-0.504-13.318-0.519-26.673-0.775-39.998c-0.125-6.554-0.242-13.106-0.313-19.662
			c-0.064-5.878,0.865-12.082,0.573-17.946c-0.02-0.05-0.027-0.099-0.053-0.151c-0.179-0.38-0.331-0.812-0.688-1.066
			c-0.029-0.021-0.035-0.054-0.056-0.081c-5.547,0.392-11.158,0.151-16.713,0.161c-3.376,0.004-7.005,0.366-10.445,0.024
			c-0.282,0.012-0.571,0.017-0.843,0.036c-0.559,0.038-1.186,0.052-1.675,0.372c-0.458,11.379-0.922,22.746-0.97,34.142
			c-0.045,10.426,0.746,20.938,0.474,31.357c0.057,0.108,0.119,0.216,0.196,0.317c0.199,0.264,0.56,0.553,0.731,0.867
			c2.898,1.036,5.667,3.072,7.966,5.057c2.19,1.891,4.875,4.045,6.592,6.523c0.566,0.321,1.155,0.549,1.793,0.667
			c1.933-0.44,4.074-0.146,6.038-0.108c2.565,0.052,5.124,0.112,7.687,0.229c0.169-0.148,0.316-0.318,0.387-0.54
			C524.637,669.174,524.675,669.117,524.705,669.05z"/>
		<path fill="#CCCCCC" d="M516.539,669.563c-1.964-0.038-4.105-0.332-6.039,0.107c-0.636-0.118-1.224-0.345-1.789-0.665
			c-0.001-0.001-0.002-0.001-0.004-0.002c-1.716-2.478-4.401-4.632-6.591-6.522c-2.299-1.986-5.069-4.022-7.966-5.058
			c-0.171-0.313-0.532-0.603-0.732-0.867c-0.076-0.101-0.138-0.209-0.195-0.317c0.001-0.016,0.001-0.03,0.001-0.045
			c3.405,0.917,6.776,1.591,10.465,0.578c3.944-1.083,7.742-3.047,10.397-6.253c5.62-6.787,6.196-15.803,6.338-24.26
			c0.142-8.549-0.184-18.247-5.428-25.463c-5.317-7.314-12.803-9.485-21.298-9.563c0.007-0.165,0.013-0.329,0.021-0.493
			c0.488-0.32,1.115-0.334,1.675-0.372c0.272-0.018,0.561-0.024,0.843-0.036c3.44,0.342,7.069-0.019,10.445-0.024
			c5.555-0.01,11.166,0.231,16.713-0.16c0.021,0.026,0.027,0.06,0.056,0.081c0.357,0.254,0.509,0.685,0.688,1.065
			c0.025,0.052,0.033,0.102,0.053,0.152c0.292,5.863-0.637,12.067-0.573,17.945c0.071,6.556,0.188,13.108,0.313,19.662
			c0.256,13.325,0.271,26.681,0.775,39.998c-0.03,0.066-0.069,0.123-0.094,0.199c-0.071,0.222-0.218,0.392-0.387,0.54
			C521.663,669.673,519.105,669.612,516.539,669.563z"/>
		<path fill="#999999" d="M526.249,631.02c-0.053-6.556-0.099-13.108-0.206-19.663c-0.053-3.283-0.156-6.553-0.323-9.831
			c-0.197-3.84-0.981-8.017-0.722-11.799c0.013-0.173-0.071-0.288-0.187-0.358c-0.063-0.179-0.223-0.327-0.482-0.349
			c-5.205-0.418-10.469-0.186-15.687-0.162c-5.07,0.022-10.835-0.805-15.729,0.611c-0.098,0.028-0.123,0.134-0.085,0.211
			c-0.064,0.078-0.115,0.171-0.128,0.295c-1.02,10.935-1.517,21.985-1.685,32.965c-0.166,10.901-0.625,22.188,0.553,33.074
			c0.116,0.25,0.18,0.529,0.25,0.805c0.394,0.707,0.899,1.38,1.455,1.646c0.792,0.378,1.573,0.753,2.288,1.271
			c0.75,0.543,1.607,1.1,2.383,1.72c1.101,0.728,2.202,1.449,3.254,2.213c2.828,2.054,5.123,4.867,7.966,6.811
			c0.014,0.013,0.021,0.028,0.037,0.036c1.912,0.955,4.026,0.668,6.136,0.71c3.205,0.064,6.408,0.083,9.613,0.016
			c0.141-0.003,0.251-0.043,0.349-0.1c0.524,0.206,1.232-0.054,1.243-0.796C526.714,657.244,526.354,644.12,526.249,631.02z
			 M524.612,669.251c-0.071,0.222-0.218,0.393-0.387,0.54c-2.563-0.118-5.122-0.178-7.687-0.229
			c-1.964-0.038-4.105-0.332-6.039,0.107c-0.637-0.118-1.226-0.346-1.792-0.667c-1.717-2.478-4.402-4.632-6.592-6.522
			c-2.299-1.986-5.068-4.022-7.966-5.058c-0.171-0.313-0.532-0.603-0.731-0.867c-0.077-0.101-0.139-0.209-0.196-0.317
			c0.272-10.419-0.519-20.93-0.475-31.357c0.049-11.396,0.513-22.763,0.971-34.142c0.488-0.32,1.115-0.334,1.675-0.372
			c0.272-0.018,0.561-0.024,0.843-0.036c3.44,0.342,7.069-0.019,10.445-0.024c5.555-0.01,11.166,0.231,16.713-0.16
			c0.021,0.026,0.027,0.06,0.056,0.081c0.357,0.254,0.508,0.685,0.688,1.065c0.025,0.052,0.033,0.102,0.053,0.152
			c0.292,5.863-0.637,12.067-0.573,17.945c0.071,6.556,0.188,13.108,0.313,19.662c0.256,13.325,0.271,26.681,0.775,39.998
			C524.675,669.117,524.637,669.174,524.612,669.251z"/>
	</g>
	<g>
		<path fill="#CCE2ED" d="M520.481,640.194c0.125-14.673-1.479-29.434-0.894-44.12c-0.079-0.127-0.169-0.246-0.277-0.347
			c-0.075-0.067-0.15-0.128-0.22-0.191c-6.662,0.407-13.62,0.352-20.309-0.005c-0.138,0.076-0.291,0.125-0.453,0.217
			c-0.142,0.081-0.261,0.184-0.38,0.288c0.172,7.84-0.315,15.756-0.562,23.586c-0.204,6.494,0.01,13.168-0.541,19.68
			c0.043,0.444,0.09,0.891,0.255,1.326c0.287,0.755,0.644,1.373,1.141,1.969c0.007,0,0.017-0.001,0.025-0.001
			c2.478,0.125,4.956,0.243,7.438,0.266c4.614,0.041,9.21-0.143,13.813-0.41c0.202-0.26,0.445-0.502,0.58-0.803
			c0.144-0.323,0.255-0.672,0.282-1.026C520.393,640.461,520.425,640.327,520.481,640.194z"/>
		<path opacity="0.5" fill="#9FC2CC" enable-background="new    " d="M519.518,642.45c-1.063,0.062-2.122,0.118-3.184,0.169
			c-0.218-7.567,1.022-15.461,0.898-22.987c-0.104-6.323-0.664-12.638-0.886-18.956c-0.181-0.232-0.376-0.457-0.586-0.67
			c-2.154-0.052-4.298-0.203-6.289-0.275c-3.717-0.139-7.868,0.088-11.492-1.03c-0.004-0.888-0.012-1.776-0.032-2.663
			c0.119-0.104,0.238-0.207,0.38-0.288c0.162-0.092,0.315-0.141,0.453-0.217c6.688,0.357,13.646,0.412,20.309,0.005
			c0.07,0.063,0.145,0.124,0.22,0.191c0.107,0.101,0.198,0.22,0.277,0.347c-0.586,14.686,1.019,29.448,0.894,44.12
			c-0.055,0.132-0.087,0.266-0.1,0.427c-0.027,0.354-0.138,0.703-0.282,1.026C519.963,641.949,519.72,642.191,519.518,642.45z"/>
		<path fill="#97B9C6" d="M520.71,594.723c-0.026-0.326-0.263-0.496-0.508-0.514c-0.101-0.067-0.219-0.119-0.372-0.129
			c-7.216-0.443-14.821-0.33-22.052,0.128c-0.014-0.018-0.033-0.029-0.049-0.045c-0.318,0.066-0.649,0.095-0.951,0.254
			c-0.06,0.031-0.121,0.069-0.183,0.106c-0.005,0.026-0.018,0.05-0.02,0.08c-0.627,7.647-0.521,15.422-0.655,23.095
			c-0.146,8.253-0.979,16.797-0.271,25.02c0.008,0.086,0.046,0.159,0.097,0.223c-0.22,0.438,0.229,0.924,0.662,0.956
			c7.791,0.577,15.611,0.451,23.367-0.477c0.324-0.164,0.656-0.307,0.927-0.499c0.241-0.354,0.416-0.749,0.529-1.206
			C520.516,626.108,521.93,610.332,520.71,594.723z M520.379,640.623c-0.027,0.355-0.138,0.703-0.282,1.026
			c-0.135,0.301-0.378,0.543-0.58,0.803c-4.603,0.267-9.2,0.451-13.813,0.41c-2.481-0.023-4.959-0.141-7.438-0.266
			c-0.008,0-0.018,0.001-0.025,0.001c-0.497-0.596-0.854-1.214-1.141-1.969c-0.165-0.435-0.212-0.882-0.255-1.326
			c0.551-6.512,0.337-13.186,0.541-19.68c0.247-7.83,0.734-15.746,0.562-23.586c0.119-0.104,0.238-0.207,0.38-0.288
			c0.162-0.092,0.315-0.141,0.453-0.217c6.688,0.357,13.646,0.412,20.309,0.005c0.07,0.063,0.145,0.124,0.22,0.191
			c0.107,0.101,0.198,0.22,0.277,0.347c-0.586,14.686,1.019,29.448,0.894,44.12C520.425,640.327,520.393,640.461,520.379,640.623z"
			/>
	</g>
	<g>
		<path fill="#CCE2ED" d="M487.443,596.645c-0.042-0.236-0.098-0.419-0.164-0.564c-5.744,6.788-9.706,15.91-13.765,23.748
			c-3.806,7.35-7.346,14.808-10.629,22.404c3.252-0.081,6.504-0.161,9.757-0.241c1.532-0.038,10.964,0.559,12.683-1.824
			C486.701,625.629,486.846,611.195,487.443,596.645z"/>
		<path opacity="0.5" fill="#9FC2CC" enable-background="new    " d="M482.898,641.435c-0.678-2.958-0.12-6.131,0.081-9.21
			c0.297-4.52,0.595-9.039,0.912-13.558c0.209-2.969,0.266-6.103,0.378-9.263c-0.034-0.435-0.077-0.865-0.132-1.294
			c-0.263-2.069-0.91-3.658-1.697-5.188c1.485-2.427,3.071-4.751,4.839-6.841c0.066,0.145,0.122,0.328,0.164,0.563
			c-0.597,14.551-0.741,28.984-2.118,43.522C484.904,640.751,484.016,641.154,482.898,641.435z"/>
		<path fill="#97B9C6" d="M488.618,604.959c0.54-2.077,0.188-4.62,0.229-6.679c0.031-1.653,0.441-3.657-1.633-3.929
			c-0.183-0.023-0.325,0.03-0.438,0.118c-0.108,0.034-0.218,0.091-0.322,0.19c-5.721,5.417-9.226,14.283-12.881,21.156
			c-4.651,8.748-8.823,17.768-12.729,26.869c-0.24,0.56,0.025,1.296,0.733,1.278c7.16-0.166,14.344-0.188,21.494-0.593
			c2.569-0.146,4.552-1.805,3.988-4.27C487.99,627.871,488.767,616.326,488.618,604.959z M485.324,640.168
			c-1.719,2.383-11.151,1.786-12.683,1.824c-3.253,0.08-6.505,0.16-9.757,0.241c3.283-7.596,6.824-15.054,10.629-22.404
			c4.059-7.838,8.021-16.96,13.765-23.748c0.066,0.145,0.122,0.328,0.164,0.563C486.846,611.195,486.701,625.629,485.324,640.168z"
			/>
	</g>
</g>
<path fill="#B71C37" d="M547.801,590.604l-7.486,10.171c0,0,38.804,0,40.793,0c2.063,0,2.035,0.782,1.027,2.147
	c-1.023,1.387-2.736,3.796-3.778,5.204c-0.528,0.714-1.485,2.016,1.686,2.016c3.352,0,16.682,0,16.682,0s2.689-3.658,4.942-6.718
	c3.065-4.161,0.266-12.82-10.695-12.82C581.158,590.604,547.801,590.604,547.801,590.604L547.801,590.604z"/>
<path fill="#B71C37" d="M537.287,623.733l15.033-20.429c0,0,16.665,0,18.655,0c2.063,0,2.035,0.783,1.028,2.148
	c-1.024,1.387-2.766,3.771-3.809,5.179c-0.528,0.715-1.484,2.02,1.685,2.02c3.353,0,24.994,0,24.994,0
	c-2.079,2.848-8.821,11.081-20.929,11.081C564.134,623.733,537.287,623.733,537.287,623.733L537.287,623.733z"/>
<path fill="#B71C37" d="M623.386,612.648l-8.152,11.084h-21.506c0,0,8.148-11.081,8.156-11.081L623.386,612.648L623.386,612.648z"/>
<polygon fill="#B71C37" points="656.334,610.142 603.731,610.142 618.115,590.604 639.615,590.604 631.371,601.807 640.967,601.807 
	649.215,590.604 670.713,590.604 "/>
<path fill="#B71C37" d="M654.485,612.651l-8.154,11.081h-21.498c0,0,8.147-11.081,8.156-11.081H654.485L654.485,612.651z"/>
<path fill="#B71C37" d="M700.486,590.604l-14.382,19.538h-22.779c0,0,14.385-19.538,14.392-19.538H700.486L700.486,590.604z"/>
<path fill="#B71C37" d="M661.48,612.651c0,0-1.571,2.146-2.336,3.18c-2.698,3.649-0.313,7.901,8.5,7.901c10.179,0,34.527,0,34.527,0
	l8.156-11.081H661.48L661.48,612.651z"/>
</svg>
