<?xml version="1.0" encoding="utf-8"?>
<!-- Generator: Adobe Illustrator 21.0.0, SVG Export Plug-In . SVG Version: 6.00 Build 0)  -->
<svg version="1.1" id="Layer_1" xmlns="http://www.w3.org/2000/svg" xmlns:xlink="http://www.w3.org/1999/xlink" x="0px" y="0px"
	 viewBox="0 0 245.1 44.8" style="enable-background:new 0 0 245.1 44.8;" xml:space="preserve">
<style type="text/css">
	.st0{opacity:0.15;}
	.st1{fill:#7A7A7A;}
	.st2{fill:#FFFFFF;}
	.st3{fill:#99714D;}
	.st4{fill:#DB7516;}
	.st5{fill:#FFBF1C;}
	.st6{fill:#FFF840;}
	.st7{fill:url(#SVGID_1_);}
	.st8{fill:url(#SVGID_2_);}
	.st9{fill:url(#SVGID_3_);}
</style>
<g>
	<g>
		<g>
			<g class="st0">
				<path d="M233.3,44.8c-1.3,0-2.6-0.4-3.8-1.3l-7-4.6l-6.6,4.5c-1.3,0.9-2.6,1.3-3.9,1.3c-1.7,0-3.2-0.7-4.2-2.1
					c-0.8-1-1.6-2.9-0.8-5.6l2.2-8l-6.5-5.2c-3.4-2.7-2.7-5.7-2.4-6.6c0.3-0.9,1.5-3.7,5.8-3.8l8.1-0.3l2.8-7.6
					c1.5-4,4.6-4.3,5.5-4.3c1.2,0,4,0.4,5.5,4.3l2.9,7.6l8.2,0.3c4.3,0.1,5.5,3,5.8,3.8c0.4,1.1,0.9,4-2.4,6.6l-6.4,5.1l2.3,8
					c0.8,2.8,0,4.6-0.8,5.7C236.6,44.1,235,44.8,233.3,44.8z"/>
			</g>
			<g>
				<path class="st1" d="M233.3,43.5c-1.3,0-2.6-0.4-3.8-1.3l-7-4.6l-6.6,4.5c-1.3,0.9-2.6,1.3-3.9,1.3c-1.7,0-3.2-0.7-4.2-2.1
					c-0.8-1-1.6-2.9-0.8-5.6l2.2-8l-6.5-5.2c-3.4-2.7-2.7-5.7-2.4-6.6c0.3-0.9,1.5-3.7,5.8-3.8l8.1-0.3l2.8-7.6
					c1.5-4,4.6-4.3,5.5-4.3c1.2,0,4,0.4,5.5,4.3l2.9,7.6l8.2,0.3c4.3,0.1,5.5,3,5.8,3.8c0.4,1.1,0.9,4-2.4,6.6l-6.4,5.1l2.3,8
					c0.8,2.8,0,4.6-0.8,5.7C236.6,42.7,235,43.5,233.3,43.5z"/>
			</g>
			<g>
				<path class="st2" d="M233.3,42.5c-1.1,0-2.2-0.4-3.3-1.1l-7.6-5l-7.1,4.9c-1.1,0.8-2.2,1.2-3.3,1.2c-1.4,0-2.6-0.6-3.4-1.7
					c-0.7-0.9-1.3-2.4-0.7-4.7l2.4-8.7l-7-5.6c-2.8-2.2-2.4-4.5-2.1-5.4c0.3-0.9,1.4-3,4.9-3.1l8.8-0.3l3-8.2
					c1.2-3.3,3.6-3.7,4.5-3.7c0.9,0,3.3,0.4,4.5,3.6l3.1,8.3l8.8,0.3c3.5,0.1,4.6,2.2,4.9,3.1c0.3,0.9,0.7,3.2-2,5.4l-6.9,5.5
					l2.5,8.7c0.7,2.4,0,3.9-0.6,4.8C235.9,41.8,234.7,42.5,233.3,42.5z"/>
			</g>
			<path class="st3" d="M238.8,16.8l-3.9-0.1l-7.3-0.2l-1.2-3.2v0L225,9.5l-1.4-3.6c-0.7-1.8-1.8-1.8-2.4,0l-1.6,4.4l-2.2,6
				l-3.5,0.1h0l-3.5,0.1l-4.2,0.1c-1.9,0.1-2.2,1.1-0.7,2.3l3.1,2.4l3.1,2.4c0,0,0,0,0,0l2.7,2.1l-1.9,7.1l-1,3.8
				c-0.5,1.8,0.4,2.5,1.9,1.4l3.1-2.2l3.1-2.2v0l2.8-2l6.2,4.1l3.3,2.2c1.6,1,2.5,0.4,1.9-1.4l-2.2-7.6c0,0,0,0,0,0l-1-3.3l2.7-2.2
				c0,0,0,0,0,0l3-2.4l3-2.4C241.1,17.8,240.7,16.8,238.8,16.8z"/>
		</g>
		<g>
			<path class="st4" d="M233.3,40c-0.6,0-1.2-0.2-1.9-0.7l-8.9-5.9l-1.7,1.2l-0.5,0.3l-6.2,4.3c-0.7,0.5-1.4,0.7-1.9,0.7
				c-0.6,0-1.1-0.2-1.5-0.7c-0.5-0.6-0.6-1.5-0.2-2.6l2.8-10.2l-8.3-6.6c-1.5-1.2-1.4-2.3-1.3-2.8c0.2-0.5,0.8-1.4,2.7-1.5l4.2-0.1
				l6.2-0.2l3.6-9.8c0.7-1.8,1.7-2.1,2.3-2.1c0.6,0,1.6,0.3,2.3,2.1l1.4,3.6l2.3,6.2l6.6,0.2l3.9,0.1c1.9,0.1,2.5,1,2.7,1.5
				c0.2,0.5,0.2,1.6-1.3,2.8l-8.2,6.5l0.8,2.8v0l2.1,7.5c0.3,1.1,0.2,2-0.2,2.6C234.5,39.8,233.9,40,233.3,40L233.3,40z"/>
			<path class="st5" d="M238.8,16.8l-3.9-0.1l-7.3-0.2l-1.2-3.2v0L225,9.5l-1.4-3.6c-0.7-1.8-1.8-1.8-2.4,0l-1.6,4.4l-2.2,6
				l-3.5,0.1h0l-3.5,0.1l-4.2,0.1c-1.9,0.1-2.2,1.1-0.7,2.3l3.1,2.4l3.1,2.4c0,0,0,0,0,0l2.7,2.1l-1.9,7.1l-1,3.8
				c-0.5,1.8,0.4,2.5,1.9,1.4l3.1-2.2l3.1-2.2v0l2.8-2l6.2,4.1l3.3,2.2c1.6,1,2.5,0.4,1.9-1.4l-2.2-7.6c0,0,0,0,0,0l-1-3.3l2.7-2.2
				c0,0,0,0,0,0l3-2.4l3-2.4C241.1,17.8,240.7,16.8,238.8,16.8z"/>
			<g>
				<polygon class="st6" points="222.4,24.2 206.6,18.1 218.4,17.7 222.5,6.6 226.6,17.7 238.5,18.1 				"/>
			</g>
		</g>
	</g>
	<g>
		<g>
			<g class="st0">
				<path d="M83.3,44.8c-1.3,0-2.6-0.4-3.8-1.3l-7-4.6l-6.6,4.5c-1.3,0.9-2.6,1.3-3.9,1.3c-1.7,0-3.2-0.7-4.2-2.1
					c-0.8-1-1.6-2.9-0.8-5.6l2.2-8L52.7,24c-3.4-2.7-2.7-5.7-2.4-6.6c0.3-0.9,1.5-3.7,5.8-3.8l8.1-0.3L67,5.7c1.5-4,4.6-4.3,5.5-4.3
					c1.2,0,4,0.4,5.5,4.3l2.9,7.6l8.2,0.3c4.3,0.1,5.5,3,5.8,3.8c0.4,1.1,0.9,4-2.4,6.6L86,29.1l2.3,8c0.8,2.8,0,4.6-0.8,5.7
					C86.6,44.1,85,44.8,83.3,44.8z"/>
			</g>
			<g>
				<path class="st1" d="M83.3,43.5c-1.3,0-2.6-0.4-3.8-1.3l-7-4.6l-6.6,4.5c-1.3,0.9-2.6,1.3-3.9,1.3c-1.7,0-3.2-0.7-4.2-2.1
					c-0.8-1-1.6-2.9-0.8-5.6l2.2-8l-6.5-5.2c-3.4-2.7-2.7-5.7-2.4-6.6c0.3-0.9,1.5-3.7,5.8-3.8l8.1-0.3L67,4.3
					c1.5-4,4.6-4.3,5.5-4.3c1.2,0,4,0.4,5.5,4.3l2.9,7.6l8.2,0.3c4.3,0.1,5.5,3,5.8,3.8c0.4,1.1,0.9,4-2.4,6.6L86,27.7l2.3,8
					c0.8,2.8,0,4.6-0.8,5.7C86.6,42.7,85,43.5,83.3,43.5z"/>
			</g>
			<g>
				<path class="st2" d="M83.3,42.5c-1.1,0-2.2-0.4-3.3-1.1l-7.6-5l-7.1,4.9c-1.1,0.8-2.2,1.2-3.3,1.2c-1.4,0-2.6-0.6-3.4-1.7
					C58,39.9,57.3,38.4,58,36l2.4-8.7l-7-5.6c-2.8-2.2-2.4-4.5-2.1-5.4c0.3-0.9,1.4-3,4.9-3.1l8.8-0.3l3-8.2C69.1,1.4,71.5,1,72.4,1
					c0.9,0,3.3,0.4,4.5,3.6l3.1,8.3l8.8,0.3c3.5,0.1,4.6,2.2,4.9,3.1c0.3,0.9,0.7,3.2-2,5.4l-6.9,5.5l2.5,8.7c0.7,2.4,0,3.9-0.6,4.8
					C85.9,41.8,84.7,42.5,83.3,42.5z"/>
			</g>
			<path class="st3" d="M88.8,16.8l-3.9-0.1l-7.3-0.2l-1.2-3.2v0L75,9.5l-1.4-3.6c-0.7-1.8-1.8-1.8-2.4,0l-1.6,4.4l-2.2,6L64,16.5h0
				l-3.5,0.1l-4.2,0.1c-1.9,0.1-2.2,1.1-0.7,2.3l3.1,2.4l3.1,2.4c0,0,0,0,0,0l2.7,2.1l-1.9,7.1l-1,3.8c-0.5,1.8,0.4,2.5,1.9,1.4
				l3.1-2.2l3.1-2.2v0l2.8-2l6.2,4.1l3.3,2.2c1.6,1,2.5,0.4,1.9-1.4l-2.2-7.6c0,0,0,0,0,0l-1-3.3l2.7-2.2c0,0,0,0,0,0l3-2.4l3-2.4
				C91.1,17.8,90.7,16.8,88.8,16.8z"/>
		</g>
		<g>
			<linearGradient id="SVGID_1_" gradientUnits="userSpaceOnUse" x1="72.1423" y1="-2.9115" x2="73.1423" y2="50.3385">
				<stop  offset="0" style="stop-color:#FFFFFF"/>
				<stop  offset="0.9946" style="stop-color:#BCBCBC"/>
			</linearGradient>
			<path class="st7" d="M83.3,40c-0.6,0-1.2-0.2-1.9-0.7l-8.9-5.9l-1.7,1.2L70.2,35L64,39.3C63.3,39.8,62.6,40,62,40
				c-0.6,0-1.1-0.2-1.5-0.7c-0.5-0.6-0.6-1.5-0.2-2.6l2.8-10.2l-8.3-6.6c-1.5-1.2-1.4-2.3-1.3-2.8c0.2-0.5,0.8-1.4,2.7-1.5l4.2-0.1
				l6.2-0.2l3.6-9.8c0.7-1.8,1.7-2.1,2.3-2.1c0.6,0,1.6,0.3,2.3,2.1l1.4,3.6l2.3,6.2l6.6,0.2l3.9,0.1c1.9,0.1,2.5,1,2.7,1.5
				c0.2,0.5,0.2,1.6-1.3,2.8l-8.2,6.5l0.8,2.8v0l2.1,7.5c0.3,1.1,0.2,2-0.2,2.6C84.5,39.8,83.9,40,83.3,40L83.3,40z"/>
		</g>
	</g>
	<g>
		<g>
			<g class="st0">
				<path d="M133.3,44.8c-1.3,0-2.6-0.4-3.8-1.3l-7-4.6l-6.6,4.5c-1.3,0.9-2.6,1.3-3.9,1.3c-1.7,0-3.2-0.7-4.2-2.1
					c-0.8-1-1.6-2.9-0.8-5.6l2.2-8l-6.5-5.2c-3.4-2.7-2.7-5.7-2.4-6.6c0.3-0.9,1.5-3.7,5.8-3.8l8.1-0.3l2.8-7.6
					c1.5-4,4.6-4.3,5.5-4.3c1.2,0,4,0.4,5.5,4.3l2.9,7.6l8.2,0.3c4.3,0.1,5.5,3,5.8,3.8c0.4,1.1,0.9,4-2.4,6.6l-6.4,5.1l2.3,8
					c0.8,2.8,0,4.6-0.8,5.7C136.6,44.1,135,44.8,133.3,44.8z"/>
			</g>
			<g>
				<path class="st1" d="M133.3,43.5c-1.3,0-2.6-0.4-3.8-1.3l-7-4.6l-6.6,4.5c-1.3,0.9-2.6,1.3-3.9,1.3c-1.7,0-3.2-0.7-4.2-2.1
					c-0.8-1-1.6-2.9-0.8-5.6l2.2-8l-6.5-5.2c-3.4-2.7-2.7-5.7-2.4-6.6c0.3-0.9,1.5-3.7,5.8-3.8l8.1-0.3l2.8-7.6
					c1.5-4,4.6-4.3,5.5-4.3c1.2,0,4,0.4,5.5,4.3l2.9,7.6l8.2,0.3c4.3,0.1,5.5,3,5.8,3.8c0.4,1.1,0.9,4-2.4,6.6l-6.4,5.1l2.3,8
					c0.8,2.8,0,4.6-0.8,5.7C136.6,42.7,135,43.5,133.3,43.5z"/>
			</g>
			<g>
				<path class="st2" d="M133.3,42.5c-1.1,0-2.2-0.4-3.3-1.1l-7.6-5l-7.1,4.9c-1.1,0.8-2.2,1.2-3.3,1.2c-1.4,0-2.6-0.6-3.4-1.7
					c-0.7-0.9-1.3-2.4-0.7-4.7l2.4-8.7l-7-5.6c-2.8-2.2-2.4-4.5-2.1-5.4c0.3-0.9,1.4-3,4.9-3.1l8.8-0.3l3-8.2
					c1.2-3.3,3.6-3.7,4.5-3.7c0.9,0,3.3,0.4,4.5,3.6l3.1,8.3l8.8,0.3c3.5,0.1,4.6,2.2,4.9,3.1c0.3,0.9,0.7,3.2-2,5.4l-6.9,5.5
					l2.5,8.7c0.7,2.4,0,3.9-0.6,4.8C135.9,41.8,134.7,42.5,133.3,42.5z"/>
			</g>
			<path class="st3" d="M138.8,16.8l-3.9-0.1l-7.3-0.2l-1.2-3.2v0L125,9.5l-1.4-3.6c-0.7-1.8-1.8-1.8-2.4,0l-1.6,4.4l-2.2,6
				l-3.5,0.1h0l-3.5,0.1l-4.2,0.1c-1.9,0.1-2.2,1.1-0.7,2.3l3.1,2.4l3.1,2.4c0,0,0,0,0,0l2.7,2.1l-1.9,7.1l-1,3.8
				c-0.5,1.8,0.4,2.5,1.9,1.4l3.1-2.2l3.1-2.2v0l2.8-2l6.2,4.1l3.3,2.2c1.6,1,2.5,0.4,1.9-1.4l-2.2-7.6c0,0,0,0,0,0l-1-3.3l2.7-2.2
				c0,0,0,0,0,0l3-2.4l3-2.4C141.1,17.8,140.7,16.8,138.8,16.8z"/>
		</g>
		<g>
			<linearGradient id="SVGID_2_" gradientUnits="userSpaceOnUse" x1="122.1423" y1="-2.9115" x2="123.1423" y2="50.3385">
				<stop  offset="0" style="stop-color:#FFFFFF"/>
				<stop  offset="0.9946" style="stop-color:#BCBCBC"/>
			</linearGradient>
			<path class="st8" d="M133.3,40c-0.6,0-1.2-0.2-1.9-0.7l-8.9-5.9l-1.7,1.2l-0.5,0.3l-6.2,4.3c-0.7,0.5-1.4,0.7-1.9,0.7
				c-0.6,0-1.1-0.2-1.5-0.7c-0.5-0.6-0.6-1.5-0.2-2.6l2.8-10.2l-8.3-6.6c-1.5-1.2-1.4-2.3-1.3-2.8c0.2-0.5,0.8-1.4,2.7-1.5l4.2-0.1
				l6.2-0.2l3.6-9.8c0.7-1.8,1.7-2.1,2.3-2.1c0.6,0,1.6,0.3,2.3,2.1l1.4,3.6l2.3,6.2l6.6,0.2l3.9,0.1c1.9,0.1,2.5,1,2.7,1.5
				c0.2,0.5,0.2,1.6-1.3,2.8l-8.2,6.5l0.8,2.8v0l2.1,7.5c0.3,1.1,0.2,2-0.2,2.6C134.5,39.8,133.9,40,133.3,40L133.3,40z"/>
		</g>
	</g>
	<g>
		<g>
			<g class="st0">
				<path d="M33.3,44.8c-1.3,0-2.6-0.4-3.8-1.3l-7-4.6l-6.6,4.5c-1.3,0.9-2.6,1.3-3.9,1.3c-1.7,0-3.2-0.7-4.2-2.1
					c-0.8-1-1.6-2.9-0.8-5.6l2.2-8L2.7,24c-3.4-2.7-2.7-5.7-2.4-6.6c0.3-0.9,1.5-3.7,5.8-3.8l8.1-0.3L17,5.7c1.5-4,4.6-4.3,5.5-4.3
					c1.2,0,4,0.4,5.5,4.3l2.9,7.6l8.2,0.3c4.3,0.1,5.5,3,5.8,3.8c0.4,1.1,0.9,4-2.4,6.6L36,29.1l2.3,8c0.8,2.8,0,4.6-0.8,5.7
					C36.6,44.1,35,44.8,33.3,44.8z"/>
			</g>
			<g>
				<path class="st1" d="M33.3,43.5c-1.3,0-2.6-0.4-3.8-1.3l-7-4.6l-6.6,4.5c-1.3,0.9-2.6,1.3-3.9,1.3c-1.7,0-3.2-0.7-4.2-2.1
					c-0.8-1-1.6-2.9-0.8-5.6l2.2-8l-6.5-5.2C-0.7,19.9,0,16.9,0.3,16c0.3-0.9,1.5-3.7,5.8-3.8l8.1-0.3L17,4.3c1.5-4,4.6-4.3,5.5-4.3
					c1.2,0,4,0.4,5.5,4.3l2.9,7.6l8.2,0.3c4.3,0.1,5.5,3,5.8,3.8c0.4,1.1,0.9,4-2.4,6.6L36,27.7l2.3,8c0.8,2.8,0,4.6-0.8,5.7
					C36.6,42.7,35,43.5,33.3,43.5z"/>
			</g>
			<g>
				<path class="st2" d="M33.3,42.5c-1.1,0-2.2-0.4-3.3-1.1l-7.6-5l-7.1,4.9c-1.1,0.8-2.2,1.2-3.3,1.2c-1.4,0-2.6-0.6-3.4-1.7
					C8,39.9,7.3,38.4,8,36l2.4-8.7l-7-5.6c-2.8-2.2-2.4-4.5-2.1-5.4c0.3-0.9,1.4-3,4.9-3.1l8.8-0.3l3-8.2C19.1,1.4,21.5,1,22.4,1
					c0.9,0,3.3,0.4,4.5,3.6l3.1,8.3l8.8,0.3c3.5,0.1,4.6,2.2,4.9,3.1c0.3,0.9,0.7,3.2-2,5.4l-6.9,5.5l2.5,8.7c0.7,2.4,0,3.9-0.6,4.8
					C35.9,41.8,34.7,42.5,33.3,42.5z"/>
			</g>
			<path class="st3" d="M38.8,16.8l-3.9-0.1l-7.3-0.2l-1.2-3.2v0L25,9.5l-1.4-3.6c-0.7-1.8-1.8-1.8-2.4,0l-1.6,4.4l-2.2,6L14,16.5h0
				l-3.5,0.1l-4.2,0.1C4.3,16.8,4,17.8,5.5,19l3.1,2.4l3.1,2.4c0,0,0,0,0,0l2.7,2.1l-1.9,7.1l-1,3.8c-0.5,1.8,0.4,2.5,1.9,1.4
				l3.1-2.2l3.1-2.2v0l2.8-2l6.2,4.1l3.3,2.2c1.6,1,2.5,0.4,1.9-1.4l-2.2-7.6c0,0,0,0,0,0l-1-3.3l2.7-2.2c0,0,0,0,0,0l3-2.4l3-2.4
				C41.1,17.8,40.7,16.8,38.8,16.8z"/>
		</g>
		<g>
			<linearGradient id="SVGID_3_" gradientUnits="userSpaceOnUse" x1="22.1423" y1="-2.9115" x2="23.1423" y2="50.3385">
				<stop  offset="0" style="stop-color:#FFFFFF"/>
				<stop  offset="0.9946" style="stop-color:#BCBCBC"/>
			</linearGradient>
			<path class="st9" d="M33.3,40c-0.6,0-1.2-0.2-1.9-0.7l-8.9-5.9l-1.7,1.2L20.2,35L14,39.3C13.3,39.8,12.6,40,12,40
				c-0.6,0-1.1-0.2-1.5-0.7c-0.5-0.6-0.6-1.5-0.2-2.6l2.8-10.2l-8.3-6.6c-1.5-1.2-1.4-2.3-1.3-2.8c0.2-0.5,0.8-1.4,2.7-1.5l4.2-0.1
				l6.2-0.2l3.6-9.8c0.7-1.8,1.7-2.1,2.3-2.1c0.6,0,1.6,0.3,2.3,2.1l1.4,3.6l2.3,6.2l6.6,0.2l3.9,0.1c1.9,0.1,2.5,1,2.7,1.5
				c0.2,0.5,0.2,1.6-1.3,2.8l-8.2,6.5l0.8,2.8v0l2.1,7.5c0.3,1.1,0.2,2-0.2,2.6C34.5,39.8,33.9,40,33.3,40L33.3,40z"/>
		</g>
	</g>
	<g>
		<g>
			<g class="st0">
				<path d="M183.3,44.8c-1.3,0-2.6-0.4-3.8-1.3l-7-4.6l-6.6,4.5c-1.3,0.9-2.6,1.3-3.9,1.3c-1.7,0-3.2-0.7-4.2-2.1
					c-0.8-1-1.6-2.9-0.8-5.6l2.2-8l-6.5-5.2c-3.4-2.7-2.7-5.7-2.4-6.6c0.3-0.9,1.5-3.7,5.8-3.8l8.1-0.3l2.8-7.6
					c1.5-4,4.6-4.3,5.5-4.3c1.2,0,4,0.4,5.5,4.3l2.9,7.6l8.2,0.3c4.3,0.1,5.5,3,5.8,3.8c0.4,1.1,0.9,4-2.4,6.6l-6.4,5.1l2.3,8
					c0.8,2.8,0,4.6-0.8,5.7C186.6,44.1,185,44.8,183.3,44.8z"/>
			</g>
			<g>
				<path class="st1" d="M183.3,43.5c-1.3,0-2.6-0.4-3.8-1.3l-7-4.6l-6.6,4.5c-1.3,0.9-2.6,1.3-3.9,1.3c-1.7,0-3.2-0.7-4.2-2.1
					c-0.8-1-1.6-2.9-0.8-5.6l2.2-8l-6.5-5.2c-3.4-2.7-2.7-5.7-2.4-6.6c0.3-0.9,1.5-3.7,5.8-3.8l8.1-0.3l2.8-7.6
					c1.5-4,4.6-4.3,5.5-4.3c1.2,0,4,0.4,5.5,4.3l2.9,7.6l8.2,0.3c4.3,0.1,5.5,3,5.8,3.8c0.4,1.1,0.9,4-2.4,6.6l-6.4,5.1l2.3,8
					c0.8,2.8,0,4.6-0.8,5.7C186.6,42.7,185,43.5,183.3,43.5z"/>
			</g>
			<g>
				<path class="st2" d="M183.3,42.5c-1.1,0-2.2-0.4-3.3-1.1l-7.6-5l-7.1,4.9c-1.1,0.8-2.2,1.2-3.3,1.2c-1.4,0-2.6-0.6-3.4-1.7
					c-0.7-0.9-1.3-2.4-0.7-4.7l2.4-8.7l-7-5.6c-2.8-2.2-2.4-4.5-2.1-5.4c0.3-0.9,1.4-3,4.9-3.1l8.8-0.3l3-8.2
					c1.2-3.3,3.6-3.7,4.5-3.7c0.9,0,3.3,0.4,4.5,3.6l3.1,8.3l8.8,0.3c3.5,0.1,4.6,2.2,4.9,3.1c0.3,0.9,0.7,3.2-2,5.4l-6.9,5.5
					l2.5,8.7c0.7,2.4,0,3.9-0.6,4.8C185.9,41.8,184.7,42.5,183.3,42.5z"/>
			</g>
			<path class="st3" d="M188.8,16.8l-3.9-0.1l-7.3-0.2l-1.2-3.2v0L175,9.5l-1.4-3.6c-0.7-1.8-1.8-1.8-2.4,0l-1.6,4.4l-2.2,6
				l-3.5,0.1h0l-3.5,0.1l-4.2,0.1c-1.9,0.1-2.2,1.1-0.7,2.3l3.1,2.4l3.1,2.4c0,0,0,0,0,0l2.7,2.1l-1.9,7.1l-1,3.8
				c-0.5,1.8,0.4,2.5,1.9,1.4l3.1-2.2l3.1-2.2v0l2.8-2l6.2,4.1l3.3,2.2c1.6,1,2.5,0.4,1.9-1.4l-2.2-7.6c0,0,0,0,0,0l-1-3.3l2.7-2.2
				c0,0,0,0,0,0l3-2.4l3-2.4C191.1,17.8,190.7,16.8,188.8,16.8z"/>
		</g>
		<g>
			<path class="st4" d="M183.3,40c-0.6,0-1.2-0.2-1.9-0.7l-8.9-5.9l-1.7,1.2l-0.5,0.3l-6.2,4.3c-0.7,0.5-1.4,0.7-1.9,0.7
				c-0.6,0-1.1-0.2-1.5-0.7c-0.5-0.6-0.6-1.5-0.2-2.6l2.8-10.2l-8.3-6.6c-1.5-1.2-1.4-2.3-1.3-2.8c0.2-0.5,0.8-1.4,2.7-1.5l4.2-0.1
				l6.2-0.2l3.6-9.8c0.7-1.8,1.7-2.1,2.3-2.1c0.6,0,1.6,0.3,2.3,2.1l1.4,3.6l2.3,6.2l6.6,0.2l3.9,0.1c1.9,0.1,2.5,1,2.7,1.5
				c0.2,0.5,0.2,1.6-1.3,2.8l-8.2,6.5l0.8,2.8v0l2.1,7.5c0.3,1.1,0.2,2-0.2,2.6C184.5,39.8,183.9,40,183.3,40L183.3,40z"/>
			<path class="st5" d="M188.8,16.8l-3.9-0.1l-7.3-0.2l-1.2-3.2v0L175,9.5l-1.4-3.6c-0.7-1.8-1.8-1.8-2.4,0l-1.6,4.4l-2.2,6
				l-3.5,0.1h0l-3.5,0.1l-4.2,0.1c-1.9,0.1-2.2,1.1-0.7,2.3l3.1,2.4l3.1,2.4c0,0,0,0,0,0l2.7,2.1l-1.9,7.1l-1,3.8
				c-0.5,1.8,0.4,2.5,1.9,1.4l3.1-2.2l3.1-2.2v0l2.8-2l6.2,4.1l3.3,2.2c1.6,1,2.5,0.4,1.9-1.4l-2.2-7.6c0,0,0,0,0,0l-1-3.3l2.7-2.2
				c0,0,0,0,0,0l3-2.4l3-2.4C191.1,17.8,190.7,16.8,188.8,16.8z"/>
			<g>
				<polygon class="st6" points="172.4,24.2 156.6,18.1 168.4,17.7 172.5,6.6 176.6,17.7 188.5,18.1 				"/>
			</g>
		</g>
	</g>
</g>
</svg>
