<?xml version="1.0" encoding="utf-8"?>
<!-- Generator: Adobe Illustrator 21.0.0, SVG Export Plug-In . SVG Version: 6.00 Build 0)  -->
<svg version="1.1" id="Layer_1" xmlns="http://www.w3.org/2000/svg" xmlns:xlink="http://www.w3.org/1999/xlink" x="0px" y="0px"
	 viewBox="0 0 62.3 35" style="enable-background:new 0 0 62.3 35;" xml:space="preserve">
<style type="text/css">
	.st0{fill:#29609C;}
</style>
<g>
	<path class="st0" d="M24.5,25.7h-3.9c-3.1,0-5.2-2.1-6.4-6.4c-2,3.9-5.1,5.9-9.3,5.9c-3.3,0-4.9-1-4.9-3.1c0-0.6,0.6-2.8,1.9-6.5
		l0.8,0.1c0.6,2,2.3,3,5.1,3c1.7,0,2.9-0.1,3.6-0.4c1.3-0.4,1.9-1.3,1.9-2.6c0-1.2-0.3-3.1-0.8-5.8c-0.5-2.7-0.8-4.7-0.8-6.1
		c0-0.5,0.4-1.1,1.3-2c0.7-0.6,1.3-1.2,2-1.8c0,2.3,0.1,4.2,0.4,5.6c0.7,3.8,1.2,6,1.3,6.8c0.7,3.2,1.3,5.1,1.9,5.9
		c0.5,0.7,1.2,1.1,2.1,1.1h3.9V25.7z"/>
	<path class="st0" d="M37.2,25.7h-4.2c-1.9,0-3.3-1.1-4.2-3.4c-1.2,2.3-2.5,3.4-4.1,3.4h-2.1v-6.2c2.4,0,3.4,0,2.8,0
		c1.3,0,2.2-0.3,2.6-0.7c0.1-0.1,0.2-1.1,0.2-2.8l0.4,0.1c0.3,1.8,1.4,2.8,3.3,3.2c0.6,0.2,2.3,0.2,5.2,0.2V25.7z M35.1,30.5
		l-2.3,3.8l-3.7-2.4L27.3,35l-3.9-2.8l2.3-3.7l3.5,2.7l2.2-3.4L35.1,30.5z"/>
	<path class="st0" d="M62.3,11.5l-0.7,4.9c-0.8,0.1-2,0.2-3.5,0.2c-3,0-5.7,0.6-8.2,1.8c-1.3,0.6-3,1.7-5.1,3.4
		c-2.2,1.7-3.8,2.8-5,3.3c-0.8,0.4-2.4,0.7-4.7,0.7v-6.2c2.8,0,5-0.2,6.7-0.7c1.5-0.4,3.5-1.3,6.2-2.6c-2.4-1.2-4.3-1.8-5.6-1.8
		c-0.9,0-1.6,0.4-2,1.1h-3.9c0.6-2.3,1.2-4,1.9-5c1.1-1.6,2.6-2.3,4.7-2.3c1.3,0,3.1,0.4,5.5,1.3c3.9,1.4,7.4,2.2,10.4,2.2
		c0.4,0,0.9,0,1.6-0.1C61.4,11.5,62,11.5,62.3,11.5z M53.4,28.1l-2.3,3.8L47.3,29l2.4-3.7L53.4,28.1z"/>
</g>
</svg>
