<?xml version="1.0" encoding="utf-8"?>
<!-- Generator: Adobe Illustrator 16.0.0, SVG Export Plug-In . SVG Version: 6.00 Build 0)  -->
<!DOCTYPE svg PUBLIC "-//W3C//DTD SVG 1.1//EN" "http://www.w3.org/Graphics/SVG/1.1/DTD/svg11.dtd">
<svg version="1.1" id="Layer_1" xmlns="http://www.w3.org/2000/svg" xmlns:xlink="http://www.w3.org/1999/xlink" x="0px" y="0px"
	 width="246.1px" height="241.333px" viewBox="0 0 246.1 241.333" enable-background="new 0 0 246.1 241.333" xml:space="preserve">
<pattern  y="266.333" width="32" height="32" patternUnits="userSpaceOnUse" id="Unnamed_Pattern" viewBox="4.5 -36.3 32 32" overflow="visible">
	<g>
		<polygon fill="none" points="4.5,-36.3 36.5,-36.3 36.5,-4.3 4.5,-4.3 		"/>
		<g>
			<defs>
				<rect id="SVGID_1_" x="4.5" y="-36.3" width="32" height="32"/>
			</defs>
			<clipPath id="SVGID_2_">
				<use xlink:href="#SVGID_1_"  overflow="visible"/>
			</clipPath>
			<polygon opacity="0.1" clip-path="url(#SVGID_2_)" fill="#FFFFFF" points="4.5,-36.3 36.5,-36.3 36.5,-4.3 4.5,-4.3 			"/>
			<polygon clip-path="url(#SVGID_2_)" fill="#FFFFFF" points="20.7,-24.8 22,-21.8 25.2,-21.5 22.7,-19.399 23.5,-16.2 
				20.7,-17.899 17.9,-16.2 18.7,-19.399 16.2,-21.5 19.4,-21.8 			"/>
			<polygon clip-path="url(#SVGID_2_)" fill="#FFFFFF" points="36.5,-8.6 37.8,-5.6 41.1,-5.3 38.6,-3.2 39.4,0 36.5,-1.7 33.7,0 
				34.5,-3.2 32,-5.3 35.3,-5.6 			"/>
			<polygon clip-path="url(#SVGID_2_)" fill="#FFFFFF" points="4.5,-8.6 5.8,-5.6 9.1,-5.3 6.6,-3.2 7.4,0 4.5,-1.7 1.7,0 2.5,-3.2 
				0,-5.3 3.3,-5.6 			"/>
			<polygon clip-path="url(#SVGID_2_)" fill="#FFFFFF" points="36.5,-40.6 37.8,-37.6 41.1,-37.3 38.6,-35.2 39.4,-32 36.5,-33.7 
				33.7,-32 34.5,-35.2 32,-37.3 35.3,-37.6 			"/>
			<polygon clip-path="url(#SVGID_2_)" fill="#FFFFFF" points="4.5,-40.6 5.8,-37.6 9.1,-37.3 6.6,-35.2 7.4,-32 4.5,-33.7 1.7,-32 
				2.5,-35.2 0,-37.3 3.3,-37.6 			"/>
		</g>
	</g>
</pattern>
<pattern  y="266.333" width="32" height="32" patternUnits="userSpaceOnUse" id="Unnamed_Pattern_2" viewBox="4.5 -36.3 32 32" overflow="visible">
	<g>
		<polygon fill="none" points="4.5,-36.3 36.5,-36.3 36.5,-4.3 4.5,-4.3 		"/>
		<g>
			<defs>
				<rect id="SVGID_3_" x="4.5" y="-36.3" width="32" height="32"/>
			</defs>
			<clipPath id="SVGID_4_">
				<use xlink:href="#SVGID_3_"  overflow="visible"/>
			</clipPath>
			<polygon opacity="0.1" clip-path="url(#SVGID_4_)" fill="#FFFFFF" points="4.5,-36.3 36.5,-36.3 36.5,-4.3 4.5,-4.3 			"/>
			<polygon clip-path="url(#SVGID_4_)" fill="#FFFFFF" points="20.7,-24.8 22,-21.8 25.2,-21.5 22.7,-19.399 23.5,-16.2 
				20.7,-17.899 17.9,-16.2 18.7,-19.399 16.2,-21.5 19.4,-21.8 			"/>
			<polygon clip-path="url(#SVGID_4_)" fill="#FFFFFF" points="36.5,-8.6 37.8,-5.6 41.1,-5.3 38.6,-3.2 39.4,0 36.5,-1.7 33.7,0 
				34.5,-3.2 32,-5.3 35.3,-5.6 			"/>
			<polygon clip-path="url(#SVGID_4_)" fill="#FFFFFF" points="4.5,-8.6 5.8,-5.6 9.1,-5.3 6.6,-3.2 7.4,0 4.5,-1.7 1.7,0 2.5,-3.2 
				0,-5.3 3.3,-5.6 			"/>
			<polygon clip-path="url(#SVGID_4_)" fill="#FFFFFF" points="36.5,-40.6 37.8,-37.6 41.1,-37.3 38.6,-35.2 39.4,-32 36.5,-33.7 
				33.7,-32 34.5,-35.2 32,-37.3 35.3,-37.6 			"/>
			<polygon clip-path="url(#SVGID_4_)" fill="#FFFFFF" points="4.5,-40.6 5.8,-37.6 9.1,-37.3 6.6,-35.2 7.4,-32 4.5,-33.7 1.7,-32 
				2.5,-35.2 0,-37.3 3.3,-37.6 			"/>
		</g>
	</g>
</pattern>
<pattern  y="266.333" width="32" height="32" patternUnits="userSpaceOnUse" id="Unnamed_Pattern_3" viewBox="4.5 -36.3 32 32" overflow="visible">
	<g>
		<polygon fill="none" points="4.5,-36.3 36.5,-36.3 36.5,-4.3 4.5,-4.3 		"/>
		<g>
			<defs>
				<rect id="SVGID_5_" x="4.5" y="-36.3" width="32" height="32"/>
			</defs>
			<clipPath id="SVGID_6_">
				<use xlink:href="#SVGID_5_"  overflow="visible"/>
			</clipPath>
			<polygon opacity="0.1" clip-path="url(#SVGID_6_)" fill="#FFFFFF" points="4.5,-36.3 36.5,-36.3 36.5,-4.3 4.5,-4.3 			"/>
			<polygon clip-path="url(#SVGID_6_)" fill="#FFFFFF" points="20.7,-24.8 22,-21.8 25.2,-21.5 22.7,-19.399 23.5,-16.2 
				20.7,-17.899 17.9,-16.2 18.7,-19.399 16.2,-21.5 19.4,-21.8 			"/>
			<polygon clip-path="url(#SVGID_6_)" fill="#FFFFFF" points="36.5,-8.6 37.8,-5.6 41.1,-5.3 38.6,-3.2 39.4,0 36.5,-1.7 33.7,0 
				34.5,-3.2 32,-5.3 35.3,-5.6 			"/>
			<polygon clip-path="url(#SVGID_6_)" fill="#FFFFFF" points="4.5,-8.6 5.8,-5.6 9.1,-5.3 6.6,-3.2 7.4,0 4.5,-1.7 1.7,0 2.5,-3.2 
				0,-5.3 3.3,-5.6 			"/>
			<polygon clip-path="url(#SVGID_6_)" fill="#FFFFFF" points="36.5,-40.6 37.8,-37.6 41.1,-37.3 38.6,-35.2 39.4,-32 36.5,-33.7 
				33.7,-32 34.5,-35.2 32,-37.3 35.3,-37.6 			"/>
			<polygon clip-path="url(#SVGID_6_)" fill="#FFFFFF" points="4.5,-40.6 5.8,-37.6 9.1,-37.3 6.6,-35.2 7.4,-32 4.5,-33.7 1.7,-32 
				2.5,-35.2 0,-37.3 3.3,-37.6 			"/>
		</g>
	</g>
</pattern>
<pattern  y="266.333" width="32" height="32" patternUnits="userSpaceOnUse" id="Unnamed_Pattern_4" viewBox="4.5 -36.3 32 32" overflow="visible">
	<g>
		<polygon fill="none" points="4.5,-36.3 36.5,-36.3 36.5,-4.3 4.5,-4.3 		"/>
		<g>
			<defs>
				<rect id="SVGID_7_" x="4.5" y="-36.3" width="32" height="32"/>
			</defs>
			<clipPath id="SVGID_8_">
				<use xlink:href="#SVGID_7_"  overflow="visible"/>
			</clipPath>
			<polygon opacity="0.1" clip-path="url(#SVGID_8_)" fill="#FFFFFF" points="4.5,-36.3 36.5,-36.3 36.5,-4.3 4.5,-4.3 			"/>
			<polygon clip-path="url(#SVGID_8_)" fill="#FFFFFF" points="20.7,-24.8 22,-21.8 25.2,-21.5 22.7,-19.399 23.5,-16.2 
				20.7,-17.899 17.9,-16.2 18.7,-19.399 16.2,-21.5 19.4,-21.8 			"/>
			<polygon clip-path="url(#SVGID_8_)" fill="#FFFFFF" points="36.5,-8.6 37.8,-5.6 41.1,-5.3 38.6,-3.2 39.4,0 36.5,-1.7 33.7,0 
				34.5,-3.2 32,-5.3 35.3,-5.6 			"/>
			<polygon clip-path="url(#SVGID_8_)" fill="#FFFFFF" points="4.5,-8.6 5.8,-5.6 9.1,-5.3 6.6,-3.2 7.4,0 4.5,-1.7 1.7,0 2.5,-3.2 
				0,-5.3 3.3,-5.6 			"/>
			<polygon clip-path="url(#SVGID_8_)" fill="#FFFFFF" points="36.5,-40.6 37.8,-37.6 41.1,-37.3 38.6,-35.2 39.4,-32 36.5,-33.7 
				33.7,-32 34.5,-35.2 32,-37.3 35.3,-37.6 			"/>
			<polygon clip-path="url(#SVGID_8_)" fill="#FFFFFF" points="4.5,-40.6 5.8,-37.6 9.1,-37.3 6.6,-35.2 7.4,-32 4.5,-33.7 1.7,-32 
				2.5,-35.2 0,-37.3 3.3,-37.6 			"/>
		</g>
	</g>
</pattern>
<g>
	<defs>
		<rect id="SVGID_9_" width="246.1" height="266.333"/>
	</defs>
	<clipPath id="SVGID_10_">
		<use xlink:href="#SVGID_9_"  overflow="visible"/>
	</clipPath>
	<path clip-path="url(#SVGID_10_)" fill="#FFFFFF" d="M230.144,110.833C230.144,170.02,182.165,218,122.977,218
		c-59.186,0-107.166-47.98-107.166-107.167S63.791,3.666,122.977,3.666C182.165,3.666,230.144,51.646,230.144,110.833"/>
	
		<circle clip-path="url(#SVGID_10_)" fill="none" stroke="#F4768E" stroke-width="3" stroke-miterlimit="10" cx="122.977" cy="110.833" r="107.167"/>
	<path clip-path="url(#SVGID_10_)" fill="#E8F8FF" d="M225.442,110.833c0,55.955-45.359,101.313-101.313,101.313
		c-55.954,0-101.313-45.358-101.313-101.313C22.816,54.879,68.175,9.52,124.129,9.52C180.083,9.52,225.442,54.879,225.442,110.833"
		/>
	<rect clip-path="url(#SVGID_10_)" fill="none" width="246.1" height="266.333"/>
	<g clip-path="url(#SVGID_10_)">
		<g opacity="0.2">
			<g>
				<defs>
					
						<rect id="SVGID_11_" x="24.734" y="16.425" transform="matrix(-0.9175 -0.3977 0.3977 -0.9175 155.5656 221.0056)" width="151.94" height="155.888"/>
				</defs>
				<clipPath id="SVGID_12_">
					<use xlink:href="#SVGID_11_"  overflow="visible"/>
				</clipPath>
				<path clip-path="url(#SVGID_12_)" d="M154.033,148.618L67.971,163.04c-6.509,1.092-12.727-3.342-13.817-9.851L37.521,53.936
					c-1.09-6.509,3.343-12.728,9.853-13.817l86.062-14.422c6.51-1.09,12.728,3.343,13.818,9.853l16.632,99.252
					C164.977,141.31,160.542,147.528,154.033,148.618"/>
			</g>
		</g>
		<path fill="#FFFFFF" d="M151.507,149.042l-86.062,14.421c-6.509,1.093-12.727-3.341-13.817-9.85L34.996,54.359
			c-1.09-6.509,3.344-12.728,9.852-13.818l86.062-14.42c6.509-1.091,12.729,3.343,13.818,9.851l16.633,99.253
			C162.449,141.733,158.018,147.952,151.507,149.042"/>
		<path fill="none" stroke="#F9B9C7" stroke-miterlimit="10" d="M151.507,149.042l-86.062,14.421
			c-6.509,1.093-12.727-3.341-13.817-9.85L34.996,54.359c-1.09-6.509,3.344-12.728,9.852-13.818l86.062-14.42
			c6.509-1.091,12.729,3.343,13.818,9.851l16.633,99.253C162.449,141.733,158.018,147.952,151.507,149.042z"/>
		<g>
			<defs>
				
					<rect id="SVGID_13_" x="44.822" y="47.868" transform="matrix(-0.1652 -0.9863 0.9863 -0.1652 8.8381 145.8979)" width="42.68" height="42.681"/>
			</defs>
			<clipPath id="SVGID_14_">
				<use xlink:href="#SVGID_13_"  overflow="visible"/>
			</clipPath>
			
				<linearGradient id="SVGID_15_" gradientUnits="userSpaceOnUse" x1="-0.0093" y1="266.1416" x2="0.9914" y2="266.1416" gradientTransform="matrix(25.5966 105.7461 -105.7461 25.5965 28199.75 -6783.9971)">
				<stop  offset="0" style="stop-color:#FFFFFF"/>
				<stop  offset="0.1429" style="stop-color:#CDECF9"/>
				<stop  offset="0.288" style="stop-color:#A5DEF6"/>
				<stop  offset="0.4342" style="stop-color:#84D5F5"/>
				<stop  offset="0.5791" style="stop-color:#68CEF6"/>
				<stop  offset="0.7226" style="stop-color:#57CBF5"/>
				<stop  offset="0.8637" style="stop-color:#4DC9F5"/>
				<stop  offset="1" style="stop-color:#49C8F5"/>
			</linearGradient>
			<polygon clip-path="url(#SVGID_14_)" fill="url(#SVGID_15_)" points="16.259,38.757 35.709,119.112 116.064,99.662 
				96.615,19.306 			"/>
		</g>
		<g>
			<defs>
				
					<rect id="SVGID_16_" x="44.965" y="47.844" transform="matrix(-0.1652 -0.9863 0.9863 -0.1652 9.0277 146.0097)" width="42.68" height="42.68"/>
			</defs>
			<clipPath id="SVGID_17_">
				<use xlink:href="#SVGID_16_"  overflow="visible"/>
			</clipPath>
			<g opacity="0.35" clip-path="url(#SVGID_17_)" enable-background="new    ">
				<g>
					<defs>
						
							<rect id="SVGID_18_" x="23.072" y="39.095" transform="matrix(-0.9175 -0.3977 0.3977 -0.9175 113.9977 236.7123)" width="116.953" height="134.877"/>
					</defs>
					<clipPath id="SVGID_19_">
						<use xlink:href="#SVGID_18_"  overflow="visible"/>
					</clipPath>
					
						<pattern  id="SVGID_20_" xlink:href="#Unnamed_Pattern" patternTransform="matrix(0.4789 -0.0802 0.0802 0.4789 1678.2207 -21689.209)">
					</pattern>
					<polygon clip-path="url(#SVGID_19_)" fill="url(#SVGID_20_)" points="41.588,51.688 101.449,41.659 121.509,161.38 
						61.648,171.409 					"/>
				</g>
			</g>
		</g>
		<g>
			<defs>
				
					<rect id="SVGID_21_" x="95.104" y="39.443" transform="matrix(-0.1653 -0.9863 0.9863 -0.1653 75.7397 185.6712)" width="42.681" height="42.68"/>
			</defs>
			<clipPath id="SVGID_22_">
				<use xlink:href="#SVGID_21_"  overflow="visible"/>
			</clipPath>
			
				<linearGradient id="SVGID_23_" gradientUnits="userSpaceOnUse" x1="-0.0083" y1="266.1406" x2="0.9917" y2="266.1406" gradientTransform="matrix(25.5966 105.7461 -105.7461 25.5965 28250 -6792.3721)">
				<stop  offset="0" style="stop-color:#FFFFFF"/>
				<stop  offset="0.1429" style="stop-color:#CDECF9"/>
				<stop  offset="0.288" style="stop-color:#A5DEF6"/>
				<stop  offset="0.4342" style="stop-color:#84D5F5"/>
				<stop  offset="0.5791" style="stop-color:#68CEF6"/>
				<stop  offset="0.7226" style="stop-color:#57CBF5"/>
				<stop  offset="0.8637" style="stop-color:#4DC9F5"/>
				<stop  offset="1" style="stop-color:#49C8F5"/>
			</linearGradient>
			<polygon clip-path="url(#SVGID_22_)" fill="url(#SVGID_23_)" points="66.541,30.332 85.992,110.687 166.348,91.236 
				146.896,10.881 			"/>
		</g>
		<g>
			<defs>
				
					<rect id="SVGID_24_" x="95.248" y="39.419" transform="matrix(-0.1652 -0.9863 0.9863 -0.1652 75.9286 185.784)" width="42.68" height="42.68"/>
			</defs>
			<clipPath id="SVGID_25_">
				<use xlink:href="#SVGID_24_"  overflow="visible"/>
			</clipPath>
			<g opacity="0.35" clip-path="url(#SVGID_25_)" enable-background="new    ">
				<g>
					<defs>
						
							<rect id="SVGID_26_" x="73.354" y="30.67" transform="matrix(-0.9175 -0.3977 0.3977 -0.9175 213.7677 240.5558)" width="116.955" height="134.877"/>
					</defs>
					<clipPath id="SVGID_27_">
						<use xlink:href="#SVGID_26_"  overflow="visible"/>
					</clipPath>
					
						<pattern  id="SVGID_28_" xlink:href="#Unnamed_Pattern_2" patternTransform="matrix(0.4789 -0.0802 0.0802 0.4789 1728.5283 -21697.6953)">
					</pattern>
					<polygon clip-path="url(#SVGID_27_)" fill="url(#SVGID_28_)" points="91.871,43.263 151.731,33.233 171.791,152.952 
						111.931,162.983 					"/>
				</g>
			</g>
		</g>
		<g>
			<defs>
				
					<rect id="SVGID_29_" x="53.418" y="99.176" transform="matrix(-0.1653 -0.9862 0.9862 -0.1653 -31.7415 214.1672)" width="42.68" height="42.679"/>
			</defs>
			<clipPath id="SVGID_30_">
				<use xlink:href="#SVGID_29_"  overflow="visible"/>
			</clipPath>
			
				<linearGradient id="SVGID_31_" gradientUnits="userSpaceOnUse" x1="-0.0083" y1="266.1406" x2="0.9911" y2="266.1406" gradientTransform="matrix(25.5966 105.7461 -105.7461 25.5965 28208.3125 -6732.6221)">
				<stop  offset="0" style="stop-color:#FFFFFF"/>
				<stop  offset="0.1429" style="stop-color:#CDECF9"/>
				<stop  offset="0.288" style="stop-color:#A5DEF6"/>
				<stop  offset="0.4342" style="stop-color:#84D5F5"/>
				<stop  offset="0.5791" style="stop-color:#68CEF6"/>
				<stop  offset="0.7226" style="stop-color:#57CBF5"/>
				<stop  offset="0.8637" style="stop-color:#4DC9F5"/>
				<stop  offset="1" style="stop-color:#49C8F5"/>
			</linearGradient>
			<polygon clip-path="url(#SVGID_30_)" fill="url(#SVGID_31_)" points="24.855,90.063 44.306,170.417 124.661,150.967 
				105.21,70.612 			"/>
		</g>
		<g>
			<defs>
				
					<rect id="SVGID_32_" x="53.563" y="99.15" transform="matrix(-0.1653 -0.9863 0.9863 -0.1653 -31.5528 214.2758)" width="42.681" height="42.682"/>
			</defs>
			<clipPath id="SVGID_33_">
				<use xlink:href="#SVGID_32_"  overflow="visible"/>
			</clipPath>
			<g opacity="0.35" clip-path="url(#SVGID_33_)" enable-background="new    ">
				<g>
					<defs>
						
							<rect id="SVGID_34_" x="31.668" y="90.401" transform="matrix(-0.9175 -0.3977 0.3977 -0.9175 110.077 338.5114)" width="116.956" height="134.876"/>
					</defs>
					<clipPath id="SVGID_35_">
						<use xlink:href="#SVGID_34_"  overflow="visible"/>
					</clipPath>
					
						<pattern  id="SVGID_36_" xlink:href="#Unnamed_Pattern_3" patternTransform="matrix(0.4789 -0.0802 0.0802 0.4789 1686.8359 -21637.9512)">
					</pattern>
					<polygon clip-path="url(#SVGID_35_)" fill="url(#SVGID_36_)" points="50.185,102.995 110.046,92.964 130.106,212.687 
						70.247,222.715 					"/>
				</g>
			</g>
		</g>
		<g>
			<defs>
				
					<rect id="SVGID_37_" x="103.701" y="90.749" transform="matrix(-0.1653 -0.9862 0.9862 -0.1653 35.158 253.9365)" width="42.681" height="42.683"/>
			</defs>
			<clipPath id="SVGID_38_">
				<use xlink:href="#SVGID_37_"  overflow="visible"/>
			</clipPath>
			
				<linearGradient id="SVGID_39_" gradientUnits="userSpaceOnUse" x1="-0.0088" y1="266.1406" x2="0.9912" y2="266.1406" gradientTransform="matrix(25.5966 105.7461 -105.7461 25.5965 28258.5625 -6740.9971)">
				<stop  offset="0" style="stop-color:#FFFFFF"/>
				<stop  offset="0.1429" style="stop-color:#CDECF9"/>
				<stop  offset="0.288" style="stop-color:#A5DEF6"/>
				<stop  offset="0.4342" style="stop-color:#84D5F5"/>
				<stop  offset="0.5791" style="stop-color:#68CEF6"/>
				<stop  offset="0.7226" style="stop-color:#57CBF5"/>
				<stop  offset="0.8637" style="stop-color:#4DC9F5"/>
				<stop  offset="1" style="stop-color:#49C8F5"/>
			</linearGradient>
			<polygon clip-path="url(#SVGID_38_)" fill="url(#SVGID_39_)" points="75.137,81.636 94.589,161.993 174.944,142.542 
				155.494,62.186 			"/>
		</g>
		<g>
			<defs>
				
					<rect id="SVGID_40_" x="103.845" y="90.725" transform="matrix(-0.1653 -0.9863 0.9863 -0.1653 35.3483 254.0491)" width="42.682" height="42.682"/>
			</defs>
			<clipPath id="SVGID_41_">
				<use xlink:href="#SVGID_40_"  overflow="visible"/>
			</clipPath>
			<g opacity="0.35" clip-path="url(#SVGID_41_)" enable-background="new    ">
				<g>
					<defs>
						
							<rect id="SVGID_42_" x="81.951" y="81.977" transform="matrix(-0.9175 -0.3977 0.3977 -0.9175 209.847 342.3559)" width="116.955" height="134.875"/>
					</defs>
					<clipPath id="SVGID_43_">
						<use xlink:href="#SVGID_42_"  overflow="visible"/>
					</clipPath>
					
						<pattern  id="SVGID_44_" xlink:href="#Unnamed_Pattern_4" patternTransform="matrix(0.4789 -0.0802 0.0802 0.4789 1737.1133 -21646.3496)">
					</pattern>
					<polygon clip-path="url(#SVGID_43_)" fill="url(#SVGID_44_)" points="100.468,94.569 160.328,84.539 180.39,204.261 
						120.53,214.289 					"/>
				</g>
			</g>
		</g>
	</g>
	<g clip-path="url(#SVGID_10_)">
		<defs>
			<rect id="SVGID_45_" width="246.1" height="266.333"/>
		</defs>
		<clipPath id="SVGID_46_">
			<use xlink:href="#SVGID_45_"  overflow="visible"/>
		</clipPath>
	</g>
	<g clip-path="url(#SVGID_10_)">
		<defs>
			<rect id="SVGID_47_" width="246.1" height="266.333"/>
		</defs>
		<clipPath id="SVGID_48_">
			<use xlink:href="#SVGID_47_"  overflow="visible"/>
		</clipPath>
		<g opacity="0.75" clip-path="url(#SVGID_48_)">
			<g>
				<defs>
					<rect id="SVGID_49_" x="89.11" y="183.023" width="11.818" height="11.818"/>
				</defs>
				<clipPath id="SVGID_50_">
					<use xlink:href="#SVGID_49_"  overflow="visible"/>
				</clipPath>
				<path clip-path="url(#SVGID_50_)" fill="#FFFFFF" d="M95.019,183.024c0,3.263-2.646,5.907-5.909,5.907
					c3.263,0,5.909,2.646,5.909,5.909c0-3.263,2.646-5.909,5.909-5.909C97.665,188.932,95.019,186.287,95.019,183.024"/>
			</g>
		</g>
	</g>
	<g clip-path="url(#SVGID_10_)">
		<g opacity="0.2">
			<g>
				<defs>
					
						<rect id="SVGID_51_" x="101.135" y="45.787" transform="matrix(-0.579 -0.8154 0.8154 -0.579 168.2303 299.0503)" width="120.384" height="120.605"/>
				</defs>
				<clipPath id="SVGID_52_">
					<use xlink:href="#SVGID_51_"  overflow="visible"/>
				</clipPath>
				<path clip-path="url(#SVGID_52_)" d="M175.652,164.432l-63.529-26.046c-4.806-1.97-7.225-7.508-5.378-12.308l28.163-73.188
					c1.847-4.799,7.29-7.115,12.095-5.144l63.53,26.045c4.804,1.971,7.224,7.509,5.377,12.31l-28.161,73.187
					C185.901,164.087,180.456,166.403,175.652,164.432"/>
			</g>
		</g>
		<path fill="#FFFFFF" d="M173.788,163.668l-63.529-26.047c-4.806-1.97-7.226-7.508-5.379-12.307l28.163-73.188
			c1.847-4.799,7.289-7.115,12.094-5.146l63.529,26.048c4.805,1.969,7.227,7.509,5.379,12.308l-28.162,73.187
			C184.035,163.322,178.594,165.639,173.788,163.668"/>
		<path fill="none" stroke="#F9B9C7" stroke-width="0.783" stroke-miterlimit="10" d="M173.788,163.668l-63.529-26.047
			c-4.806-1.97-7.226-7.508-5.379-12.307l28.163-73.188c1.847-4.799,7.289-7.115,12.094-5.146l63.529,26.048
			c4.805,1.969,7.227,7.509,5.379,12.308l-28.162,73.187C184.035,163.322,178.594,165.639,173.788,163.668z"/>
	</g>
	<g clip-path="url(#SVGID_10_)">
		<defs>
			<path id="SVGID_53_" d="M104.126,128.795c-29.088,9.253-45.955,37.856-36.703,66.943c9.253,29.088,38.16,48.587,70.209,38.392
				c32.05-10.195,44.379-42.812,35.127-71.898c-7.314-22.995-27.774-36.312-50.397-36.311
				C116.368,125.921,110.218,126.857,104.126,128.795"/>
		</defs>
		<clipPath id="SVGID_54_">
			<use xlink:href="#SVGID_53_"  overflow="visible"/>
		</clipPath>
		
			<linearGradient id="SVGID_55_" gradientUnits="userSpaceOnUse" x1="0" y1="266.3486" x2="1" y2="266.3486" gradientTransform="matrix(-40.5007 -127.32 -127.32 40.5007 34054.2773 -10530.3291)">
			<stop  offset="0" style="stop-color:#FFFFFF"/>
			<stop  offset="0.0406" style="stop-color:#FFFFFF"/>
			<stop  offset="1" style="stop-color:#E9F7FF"/>
		</linearGradient>
		<polygon clip-path="url(#SVGID_54_)" fill="url(#SVGID_55_)" points="69.551,280.099 23.967,136.8 170.631,90.146 
			216.215,233.444 		"/>
	</g>
	<g clip-path="url(#SVGID_10_)">
		<defs>
			<rect id="SVGID_56_" width="246.1" height="266.333"/>
		</defs>
		<clipPath id="SVGID_57_">
			<use xlink:href="#SVGID_56_"  overflow="visible"/>
		</clipPath>
		<path clip-path="url(#SVGID_57_)" fill="none" stroke="#8ED8F4" stroke-width="2" stroke-miterlimit="10" d="M172.759,162.231
			c9.253,29.087-3.076,61.704-35.126,71.898c-32.05,10.195-60.957-9.304-70.21-38.392c-9.252-29.087,7.615-57.691,36.703-66.944
			C133.213,119.542,163.506,133.143,172.759,162.231z"/>
		<g opacity="0.2" clip-path="url(#SVGID_57_)">
			<g>
				<defs>
					<rect id="SVGID_58_" x="69.366" y="171.58" width="94.824" height="61.036"/>
				</defs>
				<clipPath id="SVGID_59_">
					<use xlink:href="#SVGID_58_"  overflow="visible"/>
				</clipPath>
				<path clip-path="url(#SVGID_59_)" fill="#2C6577" d="M137.863,224.945c-29.792,9.477-56.662-8.649-65.263-35.688
					c-1.902-5.977-2.614-11.933-2.282-17.677c-1.571,7.563-1.248,15.676,1.346,23.831c8.37,26.312,34.519,43.951,63.512,34.729
					c13.737-4.37,23.467-13.296,29.014-24.275C158.251,214.428,149.442,221.261,137.863,224.945"/>
			</g>
		</g>
		<path clip-path="url(#SVGID_57_)" fill="#FFFFFF" d="M160.459,153.102c-0.974,0.804-2.949,0.018-4.413-1.755
			s-1.861-3.861-0.888-4.665c0.973-0.805,2.948-0.018,4.412,1.755C161.034,150.208,161.432,152.297,160.459,153.102"/>
		<g clip-path="url(#SVGID_57_)">
			<g>
				<defs>
					<rect id="SVGID_60_" x="60.427" y="127.518" width="44.746" height="44.747"/>
				</defs>
				<clipPath id="SVGID_61_">
					<use xlink:href="#SVGID_60_"  overflow="visible"/>
				</clipPath>
				<path clip-path="url(#SVGID_61_)" fill="#FFFFFF" d="M82.799,127.518c0,12.356-10.017,22.374-22.373,22.374
					c12.356,0,22.373,10.017,22.373,22.373c0-12.356,10.017-22.373,22.373-22.373C92.816,149.892,82.799,139.874,82.799,127.518"/>
			</g>
		</g>
	</g>
	<g clip-path="url(#SVGID_10_)">
		<g>
			<path fill="#8ED8F4" d="M177.713,80.66c-6.021-9.725-21.99-10.961-28.765-1.406c-1.232,1.738-2.516,4.038-2.112,6.248
				c0.327,1.791,1.979,2.734,3.494,3.47c1.168,0.566,3.349,1.601,4.638,0.793c1.755-1.102,0.872-3.938,2.241-5.322
				c1.599-1.619,4.793-1.447,6.72-0.665c3.678,1.491,5.81,5.82,4.205,9.55c-1.122,2.606-3.994,4.53-6.696,5.17
				c-2.238,0.531-4.636,0.273-6.808,1.103c-2.375,0.907-3.88,3.147-4.503,5.541c-0.677,2.609-0.353,5.166,2.221,6.509
				c1.182,0.616,3.635,1.986,5.036,1.637c0.575-0.144,0.728-0.398,0.964-0.904c0.602-1.297,0.711-2.376,1.744-3.49
				c1.789-1.929,4.521-2.574,6.956-3.271c5.329-1.521,9.738-4.647,11.938-9.933C180.998,90.852,180.47,85.11,177.713,80.66z"/>
			<path fill="#8ED8F4" d="M155.917,122.417c0.421-3.895-4.445-7.228-8.052-6.94c-3.61,0.286-6.79,4.165-5.484,7.753
				c1.083,2.979,4.765,4.866,7.828,4.636c2.748-0.205,5.545-2.7,5.707-5.444C155.915,122.42,155.917,122.419,155.917,122.417z"/>
		</g>
		<path opacity="0.3" fill="#FFFFFF" d="M156.938,75.212c-0.228,0.117-0.446,0.241-0.655,0.372
			c-1.453,0.907-1.423,2.739,0.495,2.855c0.644,0.04,1.278-0.127,1.908-0.258c1.656-0.341,3.363-0.436,5.049-0.286
			c1.673,0.15,3.297,0.863,4.967,0.891c0.449,0.008,0.942-0.071,1.232-0.412c0.479-0.563,0.114-1.443-0.389-1.986
			C166.673,73.273,160.648,73.31,156.938,75.212z"/>
		<g>
			<path fill="#57C7EA" d="M154.968,89.764c1.755-1.102,0.872-3.938,2.241-5.322c1.599-1.619,4.793-1.447,6.72-0.665
				c2.496,1.012,4.274,3.331,4.662,5.881c0.345-1.69,0.064-3.539-0.829-5.027c-1.524-2.544-4.538-4-7.504-4.019
				c-1.944-0.012-3.956,0.581-5.344,1.944c-0.869,0.857-1.509,2.012-2.618,2.523c-2.572,1.185-3.537-1.282-5.279-2.117
				c-0.241,0.836-0.335,1.693-0.181,2.538c0.327,1.791,1.979,2.734,3.494,3.47C151.498,89.538,153.679,90.572,154.968,89.764z"/>
			<path fill="#57C7EA" d="M179.792,85.813c-0.062,0.592,0.003,1.411-0.062,1.988c-0.251,2.228-0.889,4.417-1.941,6.401
				c-2.037,3.842-5.675,6.872-9.903,7.881c-1.704,0.407-3.474,0.493-5.172,0.922c-1.698,0.428-3.398,1.281-4.292,2.787
				c-0.803,1.356-1.131,3.34-2.666,3.69c-0.424,0.098-0.87,0.035-1.294-0.062c-1.8-0.413-3.443-1.46-4.591-2.906
				c-0.233,2.102,0.357,4.031,2.477,5.136c1.182,0.616,3.635,1.986,5.036,1.637c0.575-0.144,0.728-0.398,0.964-0.904
				c0.602-1.297,0.711-2.376,1.744-3.49c1.789-1.929,4.521-2.574,6.956-3.271c5.329-1.521,9.738-4.647,11.938-9.933
				C180.28,92.576,180.518,89.089,179.792,85.813z"/>
		</g>
		<path fill="#57C7EA" d="M155.916,122.422c-0.001-0.002,0.001-0.003,0.001-0.005c0.174-1.623-0.569-3.147-1.758-4.354
			c0.312,2.858-1.5,5.725-4.231,6.667c-0.108,0.037-0.22,0.073-0.329,0.105c-2.499,0.711-5.227-0.142-7.188-1.773
			c-0.04-0.033-0.077-0.06-0.114-0.09c0.027,0.086,0.053,0.172,0.085,0.258c1.083,2.979,4.765,4.866,7.828,4.636
			C152.957,127.661,155.754,125.166,155.916,122.422z"/>
		<path opacity="0.3" fill="#FFFFFF" d="M147.544,117.135c-1.21,0.257-2.292,1.065-2.883,2.153
			c-0.275,0.507-0.417,1.208-0.005,1.612c0.245,0.239,0.621,0.293,0.958,0.241c0.338-0.055,0.651-0.204,0.969-0.33
			c1.085-0.43,2.272-0.593,3.433-0.47c1.441,0.151,2.342-1.05,1.297-2.281C150.515,117.12,148.653,116.899,147.544,117.135z"/>
	</g>
</g>
</svg>
