<?xml version="1.0" encoding="utf-8"?>
<!-- Generator: Adobe Illustrator 21.0.0, SVG Export Plug-In . SVG Version: 6.00 Build 0)  -->
<svg version="1.1" id="Layer_1" xmlns="http://www.w3.org/2000/svg" xmlns:xlink="http://www.w3.org/1999/xlink" x="0px" y="0px"
	 viewBox="0 0 193.6 51.3" style="enable-background:new 0 0 193.6 51.3;" xml:space="preserve">
<style type="text/css">
	.st0{fill:#29609C;}
</style>
<g>
	<path class="st0" d="M43.2,34.4H39c-2.2,0-3.6-1-4.1-2.9c-5.2,3.4-11.6,5.2-19.2,5.2c-4.2,0-7.7-0.7-10.5-2.1
		C1.7,32.9,0,30.2,0,26.5c0-2.3,0.9-5.2,2.8-8.9L3.6,18c-0.8,1.8-1.1,3.4-1.1,4.9c0,2.7,1.8,4.7,5.4,5.9c2.5,0.9,5.5,1.3,8.9,1.3
		c6.4,0,11.1-0.5,14.2-1.6c1-0.3,1.5-0.5,1.6-0.5c0.7-0.3,1.1-0.7,1.3-1c0.2-0.4,0.2-1.1,0.2-2.1h0.6c0.6,2.3,2.4,3.4,5.4,3.4
		c0.4,0,0.9,0,1.6-0.1c0.7,0,1.2,0,1.6,0V34.4z M24.4,13.9L22,17.6l-3.7-2.4l-1.8,3.1l-4-2.8l2.3-3.7l3.5,2.6l2.1-3.3L24.4,13.9z"/>
	<path class="st0" d="M54.3,24.7c0,6.5-3.7,9.8-11.1,9.8h-2.1v-6.2c3.3,0,5.4-0.1,6.4-0.2c3.2-0.4,4.8-1.3,4.8-2.8
		c0-0.5-0.4-1.6-1.3-3.4c-0.6,1.3-1.2,2.2-1.8,2.6c-0.7,0.6-1.7,0.9-3.1,0.9c-2.4,0-3.6-1-3.6-3.1c0-0.4,0.1-1.3,0.4-2.7
		c1.2-6.6,2.9-9.9,5.3-9.9c2,0,3.5,2.1,4.7,6.2C53.8,19,54.3,21.9,54.3,24.7z M53.3,3.6L51,7.4L47.3,5l-1.7,3.1l-4-2.8l2.3-3.8
		l3.6,2.7l2.1-3.4L53.3,3.6z M48.7,17.8c-0.8-1.2-1.6-1.8-2.3-1.8c-0.8,0-1.3,0.5-1.3,1.5c0,1.2,0.5,1.8,1.6,1.8
		C47.5,19.3,48.1,18.8,48.7,17.8z"/>
	<path class="st0" d="M80.2,34.4h-4.5c-2,9.4-5.7,14.1-11.1,14.1c-2.5,0-5.4-1.1-8.6-3.2l0.4-0.7c1,0.3,2.1,0.5,3.3,0.5
		c3.5,0,6.5-1,8.9-3.1c1.9-1.6,3.8-4.1,5.6-7.6c-2.3,0-3.8-0.1-4.5-0.4c-1.4-0.5-2.1-1.7-2.1-3.4c0-1.6,0.6-3.8,1.7-6.5
		c1.3-3.1,2.6-4.6,4-4.6c1.5,0,2.5,2.9,3.1,8.7h3.7V34.4z M74.6,28.2c-1-1.9-2.1-2.8-3.3-2.8c-1,0-1.5,0.4-1.5,1.3
		c0,1,0.9,1.6,2.8,1.6H74.6z"/>
	<path class="st0" d="M84.8,8.9v0.4c0,1.8,0.3,4.5,1,8.1c0.7,3.6,1,6.3,1,8.1c0,2.3-0.5,4.2-1.4,5.9c-1.2,2-2.9,3-5,3h-2.1v-6.2
		c2.1,0,3.3-0.1,3.7-0.2c1.1-0.3,1.6-1.2,1.6-2.6c0-2.1-0.4-5.4-1.3-9.8c-1-4.7-1.5-8.1-1.6-10.1c-0.2-0.2-0.4-0.6-0.6-1
		c0.6-2.4,1.6-3.9,2.9-4.5c0.1,1.4,0.7,2.6,1.8,3.6c1.1,1,2.4,1.4,3.8,1.2l-2.7,4.6L84.8,8.9z"/>
	<path class="st0" d="M98.2,26.5c0,2.2-0.5,4.4-1.4,6.7h-1.1c0-3.4-0.4-7.1-1.1-11c-1.2-6.3-1.8-10.3-1.8-12.1c0-1,0.4-2.1,1.1-3.1
		c0.3-0.4,1-1.3,2.3-2.6c0,2.3,0.3,6,1,11C97.9,20.5,98.2,24.2,98.2,26.5z"/>
	<path class="st0" d="M141.8,34.4h-5.3c-3.6,0-5.4,0.4-5.4,1.3c0,0.4,0.8,0.9,2.4,1.4c2.2,0.6,3.7,1.2,4.5,1.6
		c1.6,0.9,2.5,2.1,2.5,3.6c0,2.2-1.9,4.3-5.7,6.2c-3.5,1.8-7.2,2.8-11,2.8c-3.4,0-6.1-0.8-8.2-2.3c-2.4-1.7-3.7-4.1-3.7-7.1
		c0-3.2,1.1-7,3.2-11.5L116,31c-1.2,2.5-1.8,4.6-1.8,6.3c0,2.8,1.2,4.8,3.7,6.2c2,1.1,4.5,1.6,7.6,1.6c1.9,0,4.2-0.2,6.7-0.5
		c3.7-0.5,5.5-1.2,5.5-2.1c0-0.6-1.7-0.9-5.2-0.9c-3.3,0-4.9-1.2-4.9-3.6c0-2.3,0.9-4.5,2.7-6.6c1.8-2.1,3.9-3.1,6.3-3.1h5.1V34.4z"
		/>
	<path class="st0" d="M163.2,34.4c-3.7,0-6.3,0-7.9,0.1c0.8,1.2,1.4,2.1,1.6,2.6c0.3,0.8,0.5,1.7,0.5,2.9c0,1.8-0.4,3.5-1.1,4.9
		c-1,1.8-2.3,2.7-4.1,2.7c-4,0-6.7-4.4-8.1-13.2h-4.4v-6.2c1.8,0,3.3,0,4.6-0.1c0.6-2,2-4.6,4.1-7.6c2.5-3.5,4.5-5.3,6.1-5.3
		c0.8,0,1.3,0.8,1.7,2.3c0.3,1,0.4,2.2,0.4,3.4c0,3.2-1.3,5.6-3.8,7.4c0.6-0.1,1.3-0.1,2.2-0.1c0.9,0,2.3,0,4.2,0
		c1.8,0,3.2,0.1,4.1,0.1V34.4z M155.5,39.8c0-2.7-3.2-4.5-9.6-5.2c0.5,1.9,1.3,3.5,2.3,4.8c1.3,1.8,2.9,2.6,4.6,2.6
		c0.7,0,1.3-0.2,1.8-0.6C155.2,41,155.5,40.5,155.5,39.8z M153.8,22.6c0-1-0.8-1.5-2.3-1.5c-1.2,0-2.8,2-4.7,6
		c2.1-0.6,3.5-1,4.3-1.4C152.9,24.8,153.8,23.8,153.8,22.6z"/>
	<path class="st0" d="M175.7,34.4h-4.2c-1.9,0-3.3-1.1-4.2-3.4c-1.2,2.3-2.5,3.4-4.1,3.4h-2.1v-6.2c2.4,0,3.4,0,2.8,0
		c1.3,0,2.2-0.3,2.6-0.7c0.1-0.1,0.2-1.1,0.2-2.8l0.4,0.1c0.3,1.8,1.4,2.8,3.3,3.2c0.6,0.2,2.3,0.2,5.2,0.2V34.4z M173.2,18.6
		l-2.2,3.7l-3.7-2.5l-1.8,3.2l-4-2.8l2.3-3.7l3.5,2.7l2.1-3.4L173.2,18.6z"/>
	<path class="st0" d="M182.9,25.1c0,2.6-0.5,4.7-1.6,6.4c-1.3,2-3.1,3-5.7,3h-2.1v-6.2c4.4,0,6.5-0.5,6.5-1.4c0-0.2-0.4-0.7-1.1-1.5
		c-0.7-0.8-1.1-1.5-1.1-2c0-0.7,0.9-2.8,2.8-6.2C182.2,20.2,182.9,22.8,182.9,25.1z M182.1,11.5l-2.1,3.7l-3.8-2.7l2.2-3.7
		L182.1,11.5z"/>
	<path class="st0" d="M193.6,26.5c0,2.2-0.5,4.4-1.4,6.7H191c0-3.4-0.4-7.1-1.1-11c-1.2-6.3-1.8-10.3-1.8-12.1c0-1,0.4-2.1,1.1-3.1
		c0.3-0.4,1-1.3,2.3-2.6c0,2.3,0.3,6,1,11C193.2,20.5,193.6,24.2,193.6,26.5z"/>
</g>
</svg>
