<?xml version="1.0" encoding="utf-8"?>
<!-- Generator: Adobe Illustrator 21.0.0, SVG Export Plug-In . SVG Version: 6.00 Build 0)  -->
<svg version="1.1" id="Layer_1" xmlns="http://www.w3.org/2000/svg" xmlns:xlink="http://www.w3.org/1999/xlink" x="0px" y="0px"
	 viewBox="0 0 65.5 32.4" style="enable-background:new 0 0 65.5 32.4;" xml:space="preserve">
<style type="text/css">
	.st0{fill:#7A7A7A;}
</style>
<g>
	<path class="st0" d="M28.8,23H26c-1.5,0-2.4-0.6-2.7-1.9c-3.5,2.3-7.7,3.4-12.8,3.4c-2.8,0-5.1-0.5-7-1.4c-2.3-1.2-3.5-3-3.5-5.4
		c0-1.5,0.6-3.5,1.8-5.9L2.4,12c-0.5,1.2-0.8,2.3-0.8,3.3c0,1.8,1.2,3.1,3.6,4c1.7,0.6,3.6,0.9,6,0.9c4.3,0,7.4-0.4,9.4-1.1
		c0.6-0.2,1-0.3,1.1-0.4c0.4-0.2,0.7-0.4,0.9-0.7c0.1-0.3,0.2-0.7,0.1-1.4h0.4c0.4,1.5,1.6,2.3,3.6,2.3c0.3,0,0.6,0,1.1,0
		c0.5,0,0.8,0,1,0V23z M16.2,9.3l-1.6,2.4l-2.4-1.6L11,12.2l-2.6-1.8l1.6-2.5l2.4,1.8l1.4-2.2L16.2,9.3z"/>
	<path class="st0" d="M36.2,16.4c0,4.3-2.5,6.5-7.4,6.5h-1.4v-4.2c2.2,0,3.6,0,4.2-0.1c2.1-0.3,3.2-0.9,3.2-1.8
		c0-0.3-0.3-1.1-0.8-2.2c-0.4,0.9-0.8,1.4-1.2,1.8c-0.5,0.4-1.2,0.6-2.1,0.6c-1.6,0-2.4-0.7-2.4-2.1c0-0.3,0.1-0.9,0.3-1.8
		c0.8-4.4,2-6.6,3.5-6.6c1.3,0,2.4,1.4,3.1,4.2C35.9,12.7,36.2,14.6,36.2,16.4z M35.6,2.4L34,5l-2.4-1.6l-1.1,2l-2.6-1.8L29.3,1
		l2.4,1.8l1.4-2.3L35.6,2.4z M32.5,11.9c-0.5-0.8-1-1.2-1.6-1.2c-0.6,0-0.8,0.3-0.8,1c0,0.8,0.4,1.2,1.1,1.2
		C31.6,12.9,32.1,12.5,32.5,11.9z"/>
	<path class="st0" d="M53.4,23h-3c-1.3,6.3-3.8,9.4-7.4,9.4c-1.7,0-3.6-0.7-5.7-2.1l0.3-0.4c0.7,0.2,1.4,0.3,2.2,0.3
		c2.4,0,4.3-0.7,6-2.1c1.3-1.1,2.5-2.8,3.7-5.1c-1.5,0-2.5-0.1-3-0.2c-0.9-0.3-1.4-1.1-1.4-2.3c0-1.1,0.4-2.5,1.1-4.4
		C47.1,14,48,13,48.9,13c1,0,1.7,1.9,2.1,5.8h2.5V23z M49.7,18.8c-0.7-1.3-1.4-1.9-2.2-1.9c-0.7,0-1,0.3-1,0.8c0,0.7,0.6,1,1.8,1
		H49.7z"/>
	<path class="st0" d="M56.5,6v0.3c0,1.2,0.2,3,0.7,5.4c0.4,2.4,0.7,4.2,0.7,5.4c0,1.5-0.3,2.8-0.9,3.9c-0.8,1.3-1.9,2-3.4,2h-1.4
		v-4.2c1.4,0,2.2,0,2.4-0.1c0.7-0.2,1.1-0.8,1.1-1.8c0-1.4-0.3-3.6-0.9-6.5c-0.6-3.1-1-5.4-1-6.7c-0.1-0.2-0.3-0.4-0.4-0.7
		c0.4-1.6,1.1-2.6,1.9-3c0.1,0.9,0.4,1.7,1.2,2.4C57.2,3.1,58,3.4,59,3.2l-1.8,3L56.5,6z"/>
	<path class="st0" d="M65.5,17.7c0,1.4-0.3,2.9-1,4.5h-0.7c0-2.3-0.3-4.7-0.8-7.3c-0.8-4.2-1.2-6.9-1.2-8c0-0.7,0.3-1.4,0.8-2
		c0.2-0.3,0.7-0.9,1.5-1.7c0,1.5,0.2,4,0.7,7.3C65.3,13.7,65.5,16.1,65.5,17.7z"/>
</g>
</svg>
