<?xml version="1.0" encoding="utf-8"?>
<!-- Generator: Adobe Illustrator 21.0.0, SVG Export Plug-In . SVG Version: 6.00 Build 0)  -->
<svg version="1.1" id="Layer_1" xmlns="http://www.w3.org/2000/svg" xmlns:xlink="http://www.w3.org/1999/xlink" x="0px" y="0px"
	 viewBox="0 0 264.6 55.9" style="enable-background:new 0 0 264.6 55.9;" xml:space="preserve">
<style type="text/css">
	.st0{fill:#29609C;}
</style>
<g>
	<path class="st0" d="M31.8,22.3c0,1.8-0.2,3.3-0.6,4.6c-0.6-0.7-1.8-1-3.6-1c-1.5,0-3.1,0.4-4.7,1.2c-1.8,1-2.7,2.1-2.7,3.4
		c0,1.2,0.9,2,2.6,2.4c1.8,0.4,3.5,0.8,5.2,1.2c1.8,0.6,2.8,1.7,2.8,3.2c0,3.1-2.8,5.7-8.3,7.8c-4.5,1.7-8.7,2.6-12.6,2.6
		c-2.8,0-5.1-0.6-6.9-1.8c-2-1.4-3-3.3-3-5.9c0-3.5,1.7-7.7,5.2-12.5l0.7,0.5c-2,3.2-3,5.6-3,7c0,2.6,1.4,4.5,4.2,5.7
		c2.1,1,4.7,1.4,7.7,1.4c1.8,0,4.2-0.3,7.2-1c3.7-0.8,5.5-1.6,5.5-2.6c0-0.3-0.3-0.5-0.9-0.6c-2.2-0.1-4.4-0.2-6.5-0.4
		c-2.8-0.4-4.2-1.6-4.2-3.8c0-1.7,1.2-4,3.7-7.1c2.3-2.8,4.3-4.7,6-5.8c1.1-0.7,2.3-1,3.6-1C31,19.9,31.8,20.7,31.8,22.3z"/>
	<path class="st0" d="M57.5,41h-4.3c-0.5,3.8-1.5,6.9-2.8,9.4c-1.9,3.6-4.5,5.4-7.7,5.4c-2.3,0-5.1-1.1-8.4-3.2l0.4-0.7
		c1.3,0.2,2.3,0.4,2.9,0.4c2.2,0,4.5-0.9,6.9-2.6c1-0.7,2.2-2.1,3.6-4.2c1-1.6,2-3.2,3.1-4.8c-1.8-0.6-3.2-2.1-4.2-4.4l3.5-4.9
		c0.8,1.6,1.7,2.6,2.6,3c0.6,0.2,2,0.4,4.3,0.4V41z"/>
	<path class="st0" d="M82.7,26.8L82,31.7c-0.8,0.1-2,0.2-3.5,0.2c-3,0-5.7,0.6-8.2,1.8c-1.3,0.6-3,1.7-5.1,3.4
		c-2.2,1.7-3.8,2.8-5,3.3c-0.8,0.4-2.4,0.7-4.7,0.7v-6.2c2.8,0,5-0.2,6.7-0.7c1.5-0.4,3.5-1.3,6.2-2.6c-2.4-1.2-4.3-1.7-5.7-1.7
		c-1,0-1.7,0.4-2,1.1h-3.9c0.6-2.3,1.2-4,1.9-5c1.1-1.6,2.6-2.3,4.7-2.3c1.3,0,3.1,0.4,5.5,1.3c3.9,1.4,7.4,2.2,10.4,2.2
		c0.4,0,0.9,0,1.6-0.1C81.7,26.9,82.3,26.8,82.7,26.8z M75.9,18.1l-2.2,3.7l-3.8-2.7l2.3-3.7L75.9,18.1z"/>
	<path class="st0" d="M96.6,5.8c-0.2,0.8-0.4,1.3-0.7,1.6c-0.3,0.3-0.8,0.5-1.6,0.7l-8,2.3C87,9,88.1,8.1,89.5,7.7
		c-1.4-1-2.1-1.8-2.1-2.4c0-0.9,0.7-2,2.2-3.3c1.4-1.3,2.7-2,3.6-2c1.1,0,1.7,0.5,1.7,1.6c0,0.4-0.3,1.2-0.8,2.3
		c-1.1-0.7-2-1.1-2.7-1.1c-0.8,0-1.5,0.4-2.1,1.2c2,1.5,3.5,2.2,4.5,2.2C94.7,6.2,95.7,6.1,96.6,5.8z"/>
	<path class="st0" d="M93.4,33.1c0,2.2-0.5,4.4-1.4,6.7h-1.1c0-3.4-0.4-7.1-1.1-11C88.5,22.5,88,18.5,88,16.8c0-1,0.4-2.1,1.1-3.1
		c0.3-0.4,1-1.3,2.3-2.6c0,2.3,0.3,6,1,11C93,27.1,93.4,30.8,93.4,33.1z"/>
	<path class="st0" d="M119.1,13.1l-2.4,3.8l-3.6-2.5l-1.8,3.1l-3.9-2.8l2.3-3.7l3.6,2.6l2.2-3.4L119.1,13.1z M120.8,31.3
		c0,2.7-0.6,4.9-1.7,6.7c-1.3,2.1-3.3,3.2-6,3.2c-1.8,0-3.2-0.6-4.2-1.7c-1-1.2-1.5-2.6-1.5-4.4c0-1.8,0.3-3.6,0.8-5.3
		c0.6-2,1.4-3.9,2.5-5.8c1.5-2.7,2.8-4,4.1-4c1.9,0,3.5,1.5,4.6,4.5C120.3,26.7,120.8,29,120.8,31.3z M118.8,32
		c-2.1-2.7-4.2-4-6.4-4c-0.7,0-1.4,0.3-1.9,0.9c-0.6,0.6-0.9,1.2-0.9,1.9c0,1.7,1.3,2.6,3.8,2.6C114.8,33.4,116.5,33,118.8,32z"/>
	<path class="st0" d="M146.1,41h-4.3c-0.5,3.8-1.5,6.9-2.8,9.4c-1.9,3.6-4.5,5.4-7.7,5.4c-2.3,0-5.1-1.1-8.4-3.2l0.4-0.7
		c1.3,0.2,2.3,0.4,2.9,0.4c2.2,0,4.5-0.9,6.9-2.6c1-0.7,2.2-2.1,3.6-4.2c1-1.6,2-3.2,3.1-4.8c-1.8-0.6-3.2-2.1-4.2-4.4l3.5-4.9
		c0.8,1.6,1.7,2.6,2.6,3c0.6,0.2,2,0.4,4.3,0.4V41z"/>
	<path class="st0" d="M161.1,33.6c0,1.3-0.3,2.5-0.9,3.5c-0.7,1.2-1.7,1.9-3,1.9c-1.3,0-3.6-0.8-6.8-2.3c-0.3,0.8-0.8,1.6-1.7,2.6
		c-0.9,1.1-1.7,1.7-2.5,1.7h-2.1v-6.2c1.9,0,3.1-0.1,3.7-0.4c0.9-0.4,1.7-1.3,2.3-2.7c0.6-1.4,1.2-2.9,1.8-4.4
		c1-1.9,2.3-2.8,3.8-2.8c1.6,0,2.9,1.2,4,3.5C160.6,30,161.1,31.8,161.1,33.6z M157.5,32.4c0-0.7-0.3-1.3-1-1.9
		c-0.7-0.5-1.4-0.8-2.2-0.8c-0.9,0-1.7,0.6-2.3,1.7c2.2,1.2,3.7,1.8,4.5,1.8C157.2,33.2,157.5,33,157.5,32.4z"/>
	<path class="st0" d="M196.3,15.4c0.1,1.2,0.2,2.6,0.4,4.1c1,7,1.4,12.7,1.4,17c0,4-1.2,7-3.6,9.2s-5.7,3.2-9.9,3.2
		c-3,0-5.4-0.6-7.2-1.8c-2.2-1.4-3.3-3.4-3.3-6.1c0-3.7,1.7-7.7,5.2-12.1l0.7,0.7c-1,1.6-1.7,2.6-2,3.1c-0.6,1.1-0.9,2.3-0.9,3.5
		c0,1.9,1,3.3,2.9,4.3c1.6,0.8,3.4,1.3,5.5,1.3c1.6,0,3.5-0.3,5.5-0.8c2.4-0.7,4-1.5,4.6-2.6c0.3-0.5,0.5-1.3,0.5-2.5
		c0-4-0.4-7.9-1.2-11.6c-0.8-2.7-1.9-6.8-3.2-12.4l-0.8-1.3c0.6-2.4,1.5-3.9,2.8-4.5c0.1,1.4,0.7,2.7,1.8,3.7c1.1,1,2.4,1.4,3.9,1.1
		l-2.8,4.6L196.3,15.4z"/>
	<path class="st0" d="M222.1,35.2c0,4.3-0.9,8.3-2.6,11.9c-2.2,4.7-5.3,7.1-9.1,7.1c-2.2,0-5.1-0.8-8.8-2.5l0.6-0.7
		c1.3,0.3,2.2,0.4,2.6,0.4c2.5,0,5.1-1.1,8-3.3c2.6-2,4.5-4.1,5.9-6.5c1-1.7,1.4-3.7,1.4-5.9c-1.1,1.8-2.4,2.6-3.7,2.6
		c-1.1,0-2-0.5-2.6-1.4c-0.5-0.8-0.8-1.7-0.8-2.8c0-1.9,0.4-3.8,1.1-5.7c0.9-2.5,2.2-3.7,3.8-3.7c1.5,0,2.6,1.5,3.4,4.4
		C221.9,31.2,222.1,33.2,222.1,35.2z M218.6,32.7c-0.4-1.6-1.2-2.3-2.3-2.3c-1,0-1.4,0.5-1.4,1.4c0,0.5,0.2,0.9,0.6,1.1
		c0.4,0.3,0.9,0.4,1.4,0.4C217.4,33.3,218,33.1,218.6,32.7z"/>
	<path class="st0" d="M239.6,41h-4.2c-2,0-3.4-0.8-4.3-2.4c-0.8-1.2-1.2-3.7-1.4-7.3c0-1.5-0.3-4.2-0.8-8.1
		c-0.5-3.6-0.8-6.3-0.8-8.1c0-0.6,0-1,0.1-1.3c0-0.3,1.1-1.2,3.1-2.9c0,0.2,0.3,3.4,0.8,9.6c0.5,5.6,0.8,9,0.8,10.2
		c0,1.4,0.2,2.4,0.7,3c0.5,0.6,1.4,1,2.8,1c-2.1,0-1.1-0.1,3.2-0.1V41z"/>
	<path class="st0" d="M264.6,26.8l-0.7,4.9c-0.8,0.1-2,0.2-3.5,0.2c-3,0-5.7,0.6-8.2,1.8c-1.3,0.6-3,1.7-5.1,3.4
		c-2.2,1.7-3.8,2.8-5,3.3c-0.8,0.4-2.4,0.7-4.7,0.7v-6.2c2.8,0,5-0.2,6.7-0.7c1.5-0.4,3.5-1.3,6.2-2.6c-2.4-1.2-4.3-1.7-5.7-1.7
		c-1,0-1.7,0.4-2,1.1h-3.9c0.6-2.3,1.2-4,1.9-5c1.1-1.6,2.6-2.3,4.7-2.3c1.3,0,3.1,0.4,5.5,1.3c3.9,1.4,7.4,2.2,10.4,2.2
		c0.4,0,0.9,0,1.6-0.1C263.7,26.9,264.3,26.8,264.6,26.8z"/>
</g>
</svg>
