<?xml version="1.0" encoding="utf-8"?>
<!-- Generator: Adobe Illustrator 22.1.0, SVG Export Plug-In . SVG Version: 6.00 Build 0)  -->
<svg version="1.1" id="Layer_1" xmlns="http://www.w3.org/2000/svg" xmlns:xlink="http://www.w3.org/1999/xlink" x="0px" y="0px"
	 viewBox="0 0 71.9 71" style="enable-background:new 0 0 71.9 71;" xml:space="preserve">
<style type="text/css">
	.st0{clip-path:url(#SVGID_2_);}
	.st1{clip-path:url(#SVGID_4_);fill:url(#SVGID_5_);}
	.st2{opacity:0.65;clip-path:url(#SVGID_2_);}
	.st3{opacity:0.65;}
	.st4{clip-path:url(#SVGID_7_);fill:url(#SVGID_8_);}
	.st5{clip-path:url(#SVGID_10_);fill:url(#SVGID_11_);}
</style>
<g>
	<defs>
		<rect id="SVGID_1_" x="-3.2" width="78.5" height="79.6"/>
	</defs>
	<clipPath id="SVGID_2_">
		<use xlink:href="#SVGID_1_"  style="overflow:visible;"/>
	</clipPath>
	<g class="st0">
		<defs>
			<path id="SVGID_3_" d="M36,0C16.1,0,0,15.9,0,35.5c0,19.6,16.1,35.5,36,35.5s36-15.9,36-35.5C71.9,15.9,55.8,0,36,0z"/>
		</defs>
		<clipPath id="SVGID_4_">
			<use xlink:href="#SVGID_3_"  style="overflow:visible;"/>
		</clipPath>
		
			<radialGradient id="SVGID_5_" cx="-3.1867" cy="79.6112" r="1.0001" gradientTransform="matrix(46.9779 0 0 -46.9779 182.7345 3762.7319)" gradientUnits="userSpaceOnUse">
			<stop  offset="0" style="stop-color:#B5E62D"/>
			<stop  offset="0.4303" style="stop-color:#86D901"/>
			<stop  offset="1" style="stop-color:#52A600"/>
		</radialGradient>
		<rect class="st1" width="71.9" height="71.1"/>
	</g>
	<g class="st2">
		<defs>
			<path id="SVGID_6_" class="st3" d="M2.4,30.3C6.8,16.3,20.9,6,37.7,6c9.8,0,18.7,3.5,25.3,9.2C56.8,7.2,47,2,36,2
				C19,2,4.9,14.3,2.4,30.3"/>
		</defs>
		<clipPath id="SVGID_7_">
			<use xlink:href="#SVGID_6_"  style="overflow:visible;"/>
		</clipPath>
		
			<linearGradient id="SVGID_8_" gradientUnits="userSpaceOnUse" x1="-3.1853" y1="79.6076" x2="-2.1856" y2="79.6076" gradientTransform="matrix(2.4938 39.4013 39.4013 -2.4938 -3096.7559 328.4001)">
			<stop  offset="0" style="stop-color:#EEFFBF"/>
			<stop  offset="6.060610e-03" style="stop-color:#EEFFBF"/>
			<stop  offset="0.503" style="stop-color:#ADD900"/>
			<stop  offset="1" style="stop-color:#77BF01"/>
		</linearGradient>
		<polygon class="st4" points="62.7,-1.8 64.8,30.2 2.6,34.1 0.6,2.1 		"/>
	</g>
	<g class="st0">
		<defs>
			<path id="SVGID_9_" d="M33.3,65.1c-10.7,0-20.4-3.9-27.4-10.1c6.4,9.7,17.5,16.1,30.1,16.1c19.7,0,35.6-15.6,35.9-34.9
				C68.5,52.6,52.5,65.1,33.3,65.1"/>
		</defs>
		<clipPath id="SVGID_10_">
			<use xlink:href="#SVGID_9_"  style="overflow:visible;"/>
		</clipPath>
		
			<linearGradient id="SVGID_11_" gradientUnits="userSpaceOnUse" x1="-3.1929" y1="79.5708" x2="-2.193" y2="79.5708" gradientTransform="matrix(12.4691 56.8588 56.8588 -12.4691 -4453.8345 1189.7494)">
			<stop  offset="0" style="stop-color:#66CC00"/>
			<stop  offset="6.060610e-03" style="stop-color:#66CC00"/>
			<stop  offset="1" style="stop-color:#468C00"/>
		</linearGradient>
		<polygon class="st5" points="68.9,22.3 79.2,69.4 8.9,84.9 -1.5,37.7 		"/>
	</g>
	<g class="st0">
		<defs>
			<rect id="SVGID_12_" x="-3.2" width="78.5" height="79.6"/>
		</defs>
		<clipPath id="SVGID_13_">
			<use xlink:href="#SVGID_12_"  style="overflow:visible;"/>
		</clipPath>
	</g>
</g>
</svg>
