<?xml version="1.0" encoding="utf-8"?>
<!-- Generator: Adobe Illustrator 16.0.0, SVG Export Plug-In . SVG Version: 6.00 Build 0)  -->
<!DOCTYPE svg PUBLIC "-//W3C//DTD SVG 1.1//EN" "http://www.w3.org/Graphics/SVG/1.1/DTD/svg11.dtd">
<svg version="1.1" id="Isolation_Mode" xmlns="http://www.w3.org/2000/svg" xmlns:xlink="http://www.w3.org/1999/xlink" x="0px"
	 y="0px" width="41px" height="41.667px" viewBox="136.833 -56 41 41.667" enable-background="new 136.833 -56 41 41.667"
	 xml:space="preserve">
<g>
	<circle opacity="0.3" enable-background="new    " cx="157.406" cy="-35.156" r="19.781"/>
	<circle opacity="0.5" fill="#FFFFFF" enable-background="new    " cx="157.406" cy="-35.156" r="16.28"/>
</g>
<g opacity="0.3">
	<g>
		<path d="M153.133-25.496c-0.233,0-0.469-0.038-0.665-0.116c-0.857-0.273-1.679-1.172-1.99-5.662
			c-0.156-2.225-0.116-4.762,0.078-6.87c0.352-3.631,1.055-4.489,1.758-4.841c0.272-0.117,0.586-0.195,0.937-0.195
			c2.264,0,6.948,2.732,7.886,3.24c5.855,3.435,5.973,4.997,6.012,5.504c0.039,0.625-0.233,1.327-0.937,2.029
			C163.868-29.79,155.632-25.496,153.133-25.496z"/>
	</g>
	<g>
		<path fill="#FFFFFF" d="M152.859-42.243c1.679-0.858,12.961,5.504,13.116,7.573c0.157,2.069-11.398,8.16-13.116,7.574
			S151.142-41.423,152.859-42.243z"/>
	</g>
	<g>
		<path d="M152.859-42.243c1.679-0.858,12.961,5.504,13.116,7.573c0.157,2.069-11.398,8.16-13.116,7.574
			S151.142-41.423,152.859-42.243z"/>
	</g>
</g>
<g>
	<g>
		<path fill="#243D8C" d="M153.008-27.121c-0.233,0-0.469-0.038-0.665-0.116c-0.857-0.273-1.679-1.172-1.99-5.662
			c-0.156-2.225-0.116-4.762,0.078-6.87c0.352-3.631,1.055-4.489,1.758-4.841c0.272-0.117,0.586-0.195,0.937-0.195
			c2.264,0,6.948,2.732,7.886,3.24c5.855,3.435,5.973,4.997,6.012,5.504c0.039,0.625-0.233,1.327-0.937,2.029
			C163.743-31.415,155.507-27.121,153.008-27.121z"/>
	</g>
	<g>
		<path fill="#FFFFFF" d="M152.734-43.868c1.679-0.858,12.961,5.504,13.116,7.573c0.157,2.069-11.398,8.16-13.116,7.574
			S151.017-43.048,152.734-43.868z"/>
	</g>
	<g>
		<path fill="#FFFFFF" d="M152.734-43.868c1.679-0.858,12.961,5.504,13.116,7.573c0.157,2.069-11.398,8.16-13.116,7.574
			S151.017-43.048,152.734-43.868z"/>
	</g>
</g>
<g>
	
		<ellipse transform="matrix(0.3681 -0.9298 0.9298 0.3681 136.9061 118.3341)" fill="#E7EDF7" cx="155.516" cy="-41.56" rx="0.621" ry="2.911"/>
	
		<ellipse transform="matrix(0.3681 -0.9298 0.9298 0.3681 138.0398 123.3813)" fill="#E7EDF7" cx="159.796" cy="-39.87" rx="0.621" ry="0.921"/>
</g>
<path opacity="0.5" fill="#FFFFFF" enable-background="new    " d="M157.406-17.876c-9.528,0-17.28-7.752-17.28-17.28
	s7.752-17.28,17.28-17.28s17.28,7.751,17.28,17.28S166.935-17.876,157.406-17.876z M157.406-50.436
	c-8.426,0-15.28,6.854-15.28,15.28c0,8.426,6.854,15.28,15.28,15.28s15.28-6.854,15.28-15.28
	C172.687-43.582,165.832-50.436,157.406-50.436z"/>
</svg>
