<?xml version="1.0" encoding="utf-8"?>
<!-- Generator: Adobe Illustrator 19.2.0, SVG Export Plug-In . SVG Version: 6.00 Build 0)  -->
<svg version="1.1" id="Isolation_Mode" xmlns="http://www.w3.org/2000/svg" xmlns:xlink="http://www.w3.org/1999/xlink" x="0px"
	 y="0px" viewBox="0 0 29.6 41.2" style="enable-background:new 0 0 29.6 41.2;" xml:space="preserve">
<style type="text/css">
	.st0{opacity:0.2;}
	.st1{fill:#FFFFFF;}
</style>
<g>
	<g class="st0">
		<path d="M5.9,3.3c7.7,5,14.9,10.9,22.2,16.5c1.5,1.2,1.6,3.2,0,4.4c-7.4,5.6-14.6,11.5-22.4,16.5c-1.9,1.1-4.9-0.8-5-3
			C0.2,27.1,0.2,16.9,1,6.4C1.2,4.1,4.1,2.2,5.9,3.3z"/>
	</g>
	<g>
		<path class="st1" d="M5.9,0.3c7.7,5,14.9,10.9,22.2,16.5c1.5,1.2,1.6,3.2,0,4.4c-7.4,5.6-14.6,11.5-22.4,16.5
			c-1.9,1.1-4.9-0.8-5-3C0.2,24.1,0.2,13.9,1,3.4C1.2,1.1,4.1-0.8,5.9,0.3z"/>
	</g>
</g>
</svg>
