<?xml version="1.0" encoding="utf-8"?>
<!-- Generator: Adobe Illustrator 19.2.0, SVG Export Plug-In . SVG Version: 6.00 Build 0)  -->
<svg version="1.1" id="Isolation_Mode" xmlns="http://www.w3.org/2000/svg" xmlns:xlink="http://www.w3.org/1999/xlink" x="0px"
	 y="0px" viewBox="0 0 293.3 314.6" style="enable-background:new 0 0 293.3 314.6;" xml:space="preserve">
<style type="text/css">
	.st0{opacity:0.2;}
	.st1{fill:#FFFFFF;}
</style>
<g>
	<g class="st0">
		<path d="M261.5,42.8l-16.8,17.9C124-42.7-47.1,90.9,19.5,231.3c56.9,120.1,167,85.1,215.7,49.4c6.7-4.9,10-13.2,5.7-20.4l-5.5-9.3
			c-7-11.9-22.3-15.5-34.1-8.3c-20.9,12.7-55.2,28.9-84.1,13.7C-2,194.2,104.8,16.2,204.9,102.8L194.5,113c-7,6.8-4.4,19,4.7,21.8
			c15.5,4.7,38.6,6.6,57,7.4c16.7,0.7,30.6-13.2,31.1-30.8c0.6-22.3,0-50.7-5.8-64.6C278,38.4,267.6,36.4,261.5,42.8z"/>
	</g>
	<g>
		<path class="st1" d="M261.5,18.8l-16.8,17.9C124-66.7-47.1,66.9,19.5,207.3c56.9,120.1,167,85.1,215.7,49.4
			c6.7-4.9,10-13.2,5.7-20.4l-5.5-9.3c-7-11.9-22.3-15.5-34.1-8.3c-20.9,12.7-55.2,28.9-84.1,13.7C-2,170.2,104.8-7.8,204.9,78.9
			L194.5,89c-7,6.8-4.4,19,4.7,21.8c15.5,4.7,38.6,6.6,57,7.4c16.7,0.7,30.6-13.2,31.1-30.8c0.6-22.3,0-50.7-5.8-64.6
			C278,14.4,267.6,12.4,261.5,18.8z"/>
	</g>
</g>
</svg>
