<?xml version="1.0" encoding="utf-8"?>
<!-- Generator: Adobe Illustrator 22.1.0, SVG Export Plug-In . SVG Version: 6.00 Build 0)  -->
<svg version="1.1" id="Layer_1" xmlns="http://www.w3.org/2000/svg" xmlns:xlink="http://www.w3.org/1999/xlink" x="0px" y="0px"
	 viewBox="0 0 273.4 89.1" style="enable-background:new 0 0 273.4 89.1;" xml:space="preserve">
<style type="text/css">
	.st0{clip-path:url(#SVGID_2_);}
	.st1{opacity:0.5;clip-path:url(#SVGID_4_);}
	.st2{clip-path:url(#SVGID_6_);}
	.st3{clip-path:url(#SVGID_8_);fill:url(#SVGID_9_);}
	.st4{clip-path:url(#SVGID_4_);fill:#FFFFFF;}
	.st5{clip-path:url(#SVGID_4_);fill:#BF5000;}
	.st6{clip-path:url(#SVGID_11_);fill:url(#SVGID_12_);}
	.st7{clip-path:url(#SVGID_14_);fill:url(#SVGID_15_);}
	.st8{clip-path:url(#SVGID_17_);fill:url(#SVGID_18_);}
	.st9{clip-path:url(#SVGID_20_);fill:url(#SVGID_21_);}
	.st10{clip-path:url(#SVGID_23_);fill:#FFFFFF;}
	.st11{clip-path:url(#SVGID_23_);fill:#D8D8D8;}
	.st12{clip-path:url(#SVGID_23_);fill:#E0E0E0;}
</style>
<g>
	<defs>
		<rect id="SVGID_1_" width="273.4" height="98.2"/>
	</defs>
	<clipPath id="SVGID_2_">
		<use xlink:href="#SVGID_1_"  style="overflow:visible;"/>
	</clipPath>
	<g class="st0">
		<defs>
			<rect id="SVGID_3_" y="0" width="273.4" height="98.2"/>
		</defs>
		<clipPath id="SVGID_4_">
			<use xlink:href="#SVGID_3_"  style="overflow:visible;"/>
		</clipPath>
		<g class="st1">
			<g>
				<defs>
					<rect id="SVGID_5_" x="22.6" y="10.1" width="250.8" height="76"/>
				</defs>
				<clipPath id="SVGID_6_">
					<use xlink:href="#SVGID_5_"  style="overflow:visible;"/>
				</clipPath>
				<g class="st2">
					<defs>
						<path id="SVGID_7_" d="M60.6,86.1c-21,0-38-17-38-38c0-21,17-38,38-38h174.8c21,0,38,17,38,38c0,21-17,38-38,38H60.6z"/>
					</defs>
					<clipPath id="SVGID_8_">
						<use xlink:href="#SVGID_7_"  style="overflow:visible;"/>
					</clipPath>
					
						<linearGradient id="SVGID_9_" gradientUnits="userSpaceOnUse" x1="5.081096e-05" y1="99.3037" x2="0.9998" y2="99.3037" gradientTransform="matrix(0 -92.6703 -92.6703 0 9350.5303 84.8708)">
						<stop  offset="0" style="stop-color:#C2C2C2"/>
						<stop  offset="1" style="stop-color:#808080"/>
					</linearGradient>
					<rect x="22.6" y="10.1" class="st3" width="250.8" height="76"/>
				</g>
			</g>
		</g>
		<path class="st4" d="M235.4,86.1H60.6c-20.4,0-37.2-16.2-38-36.5c0,0.5,0,1,0,1.5c0,21,17,38,38,38h174.8c21,0,38-17,38-38
			c0-0.5,0-1,0-1.5C272.6,69.9,255.9,86.1,235.4,86.1"/>
		<path class="st5" d="M89.1,44c0,24.3-19.9,44-44.6,44C19.9,88,0,68.3,0,44C0,19.7,19.9,0,44.6,0C69.2,0,89.1,19.7,89.1,44"/>
	</g>
	<g class="st0">
		<defs>
			<path id="SVGID_10_" d="M1.5,44c0,23.5,19.3,42.5,43.1,42.5c23.8,0,43.1-19,43.1-42.5c0-23.5-19.3-42.5-43.1-42.5
				C20.8,1.5,1.5,20.5,1.5,44"/>
		</defs>
		<clipPath id="SVGID_11_">
			<use xlink:href="#SVGID_10_"  style="overflow:visible;"/>
		</clipPath>
		
			<linearGradient id="SVGID_12_" gradientUnits="userSpaceOnUse" x1="4.159094e-04" y1="98.2248" x2="1.0001" y2="98.2248" gradientTransform="matrix(0 78.8114 78.8114 0 -7696.6777 10.719)">
			<stop  offset="0" style="stop-color:#FFC800"/>
			<stop  offset="1" style="stop-color:#FF8E00"/>
		</linearGradient>
		<rect x="1.5" y="1.5" class="st6" width="86.1" height="85.1"/>
	</g>
	<g class="st0">
		<defs>
			<path id="SVGID_13_" d="M6.8,44c0,21.1,16.9,38.2,37.7,38.2c20.8,0,37.7-17.1,37.7-38.2c0-21.1-16.9-38.2-37.7-38.2
				C23.7,5.8,6.8,22.9,6.8,44"/>
		</defs>
		<clipPath id="SVGID_14_">
			<use xlink:href="#SVGID_13_"  style="overflow:visible;"/>
		</clipPath>
		
			<linearGradient id="SVGID_15_" gradientUnits="userSpaceOnUse" x1="-2.213911e-04" y1="98.2266" x2="0.9998" y2="98.2266" gradientTransform="matrix(-0.333 -41.333 -41.333 0.333 4104.7813 39.3438)">
			<stop  offset="0" style="stop-color:#FFC800"/>
			<stop  offset="1" style="stop-color:#EB8D00"/>
		</linearGradient>
		<polygon class="st7" points="6.8,82.9 6.2,5.8 82.3,5.2 82.9,82.3 		"/>
	</g>
	<g class="st0">
		<defs>
			<path id="SVGID_16_" d="M12.4,17.8c8-8.4,19.4-13.7,32.1-13.7c12.7,0,24.2,5.3,32.1,13.7C69,8.2,57.5,2.2,44.6,2.2
				C31.6,2.2,20.1,8.2,12.4,17.8"/>
		</defs>
		<clipPath id="SVGID_17_">
			<use xlink:href="#SVGID_16_"  style="overflow:visible;"/>
		</clipPath>
		
			<linearGradient id="SVGID_18_" gradientUnits="userSpaceOnUse" x1="-1.956888e-02" y1="98.2041" x2="0.9805" y2="98.2041" gradientTransform="matrix(0 11.6672 11.6672 0 -1101.2124 2.7972)">
			<stop  offset="0" style="stop-color:#FFFFFF"/>
			<stop  offset="0.5636" style="stop-color:#FFED4A"/>
			<stop  offset="1" style="stop-color:#FFC800"/>
		</linearGradient>
		<rect x="12.4" y="2.2" class="st8" width="64.2" height="15.6"/>
	</g>
	<g class="st0">
		<defs>
			<path id="SVGID_19_" d="M86.5,42.2c0,23.5-18.8,42.5-42,42.5c-23.2,0-42-19-42-42.5c0-6.7,1.5-13.1,4.3-18.7
				C3.5,29.5,1.5,36.5,1.5,44c0,23.5,19.3,42.5,43.1,42.5c23.8,0,43.1-19,43.1-42.5c0-7.5-2-14.5-5.4-20.6
				C85,29.1,86.5,35.4,86.5,42.2"/>
		</defs>
		<clipPath id="SVGID_20_">
			<use xlink:href="#SVGID_19_"  style="overflow:visible;"/>
		</clipPath>
		
			<linearGradient id="SVGID_21_" gradientUnits="userSpaceOnUse" x1="4.537704e-04" y1="98.2249" x2="1.0005" y2="98.2249" gradientTransform="matrix(0 63.0996 63.0996 0 -6153.3965 19.7732)">
			<stop  offset="0" style="stop-color:#FF8E00"/>
			<stop  offset="1" style="stop-color:#EB6200"/>
		</linearGradient>
		<rect x="1.5" y="23.4" class="st9" width="86.1" height="63.1"/>
	</g>
	<g class="st0">
		<defs>
			<rect id="SVGID_22_" y="0" width="273.4" height="98.2"/>
		</defs>
		<clipPath id="SVGID_23_">
			<use xlink:href="#SVGID_22_"  style="overflow:visible;"/>
		</clipPath>
		<path class="st10" d="M79.7,44c0,19.2-15.7,34.7-35.1,34.7C25.1,78.7,9.4,63.2,9.4,44c0-19.2,15.7-34.7,35.1-34.7
			C64,9.3,79.7,24.8,79.7,44"/>
		<path class="st11" d="M46.3,15.1c9.6,0,18.3,3.4,24.7,9c-6.1-7.8-15.6-12.9-26.4-12.9c-16.6,0-30.3,12-32.8,27.7
			C16,25.2,29.9,15.1,46.3,15.1"/>
		<path class="st12" d="M42,72.9c-10.4,0-19.9-3.8-26.8-9.9c6.3,9.5,17.1,15.7,29.4,15.7c19.2,0,34.8-15.2,35.1-34.1
			C76.4,60.7,60.7,72.9,42,72.9"/>
	</g>
</g>
</svg>
