<?xml version="1.0" encoding="utf-8"?>
<!-- Generator: Adobe Illustrator 21.0.0, SVG Export Plug-In . SVG Version: 6.00 Build 0)  -->
<svg version="1.1" id="Isolation_Mode" xmlns="http://www.w3.org/2000/svg" xmlns:xlink="http://www.w3.org/1999/xlink" x="0px"
	 y="0px" viewBox="0 0 126.5 126.5" style="enable-background:new 0 0 126.5 126.5;" xml:space="preserve">
<style type="text/css">
	.st0{fill:url(#SVGID_1_);}
	.st1{fill:#A8A8A8;}
</style>
<g>
	<linearGradient id="SVGID_1_" gradientUnits="userSpaceOnUse" x1="1.0191" y1="63.2291" x2="125.4398" y2="63.2291">
		<stop  offset="0" style="stop-color:#D6DADF"/>
		<stop  offset="0.2766" style="stop-color:#E2E5E9"/>
		<stop  offset="1" style="stop-color:#FFFFFF"/>
	</linearGradient>
	<path class="st0" d="M125.4,63.2c0,31.9-24,58.2-55,61.8c0,0,0,0,0,0s0,0,0,0c-2.4,0.3-4.8,0.4-7.2,0.4c-2.5,0-4.9-0.2-7.2-0.4
		C25,121.4,1,95.1,1,63.2c0-8.1,1.5-15.8,4.3-22.8C7.1,36,9.3,31.8,12,28c1.6-2.4,3.4-4.7,5.4-6.8C28.7,8.8,45.1,1,63.2,1
		C97.6,1,125.4,28.9,125.4,63.2z"/>
	<path class="st1" d="M63.2,126.5c-2.4,0-4.8-0.1-7.4-0.4C24,122.3,0,95.3,0,63.2c0-8,1.5-15.8,4.4-23.2c1.8-4.5,4-8.7,6.7-12.6
		c1.7-2.4,3.5-4.7,5.5-6.9C28.6,7.5,45.6,0,63.2,0c34.9,0,63.2,28.4,63.2,63.2c0,31.8-23.6,58.6-55,62.7v0l-0.9,0.1
		C67.9,126.3,65.5,126.5,63.2,126.5z M63.2,2C46.1,2,29.7,9.3,18.1,21.9c-1.9,2.1-3.7,4.3-5.3,6.7c-2.6,3.8-4.8,7.9-6.5,12.2
		C3.5,48,2,55.5,2,63.2c0,31.1,23.2,57.2,54.1,60.8c4.7,0.5,8.6,0.6,13.3,0.1V124l1,0c30.7-3.6,54-29.7,54-60.8
		C124.4,29.5,97,2,63.2,2z"/>
</g>
</svg>
