<?xml version="1.0" encoding="utf-8"?>
<!-- Generator: Adobe Illustrator 16.0.0, SVG Export Plug-In . SVG Version: 6.00 Build 0)  -->
<!DOCTYPE svg PUBLIC "-//W3C//DTD SVG 1.1//EN" "http://www.w3.org/Graphics/SVG/1.1/DTD/svg11.dtd">
<svg version="1.1" id="Layer_1" xmlns="http://www.w3.org/2000/svg" xmlns:xlink="http://www.w3.org/1999/xlink" x="0px" y="0px"
	 width="58.854px" height="58.852px" viewBox="0 0 58.854 58.852" enable-background="new 0 0 58.854 58.852" xml:space="preserve">
<g>
	
		<linearGradient id="SVGID_1_" gradientUnits="userSpaceOnUse" x1="339.9973" y1="1321.0266" x2="339.9973" y2="1378.4531" gradientTransform="matrix(1 0 0 1 -310.5703 -1320.0859)">
		<stop  offset="0" style="stop-color:#7BBF40"/>
		<stop  offset="1" style="stop-color:#47A537"/>
	</linearGradient>
	<path fill="url(#SVGID_1_)" d="M58.854,50.012c0,4.882-3.959,8.84-8.842,8.84H8.841C3.958,58.852,0,54.894,0,50.012V8.84
		C0,3.958,3.958,0,8.841,0h41.171c4.883,0,8.842,3.958,8.842,8.84V50.012z"/>
	<path display="none" fill="#FFFFFF" d="M30.542,30.241c0-0.482-0.392-0.873-0.873-0.873s-0.872,0.391-0.872,0.873
		c0,0.48,0.391,0.872,0.872,0.872C30.152,31.115,30.542,30.723,30.542,30.241z"/>
	<path display="none" fill="#FFFFFF" d="M33.174,29.488l10.529-5.002c0.436-0.207,0.62-0.726,0.414-1.161
		c-0.207-0.436-0.729-0.62-1.162-0.413l-10.53,5.001c-0.434,0.208-0.619,0.728-0.413,1.164C32.219,29.51,32.74,29.695,33.174,29.488
		z"/>
	<path display="none" fill="#FFFFFF" d="M7.334,37.662c0.001,0.332,0.19,0.635,0.49,0.779l21.463,10.47
		c0.12,0.06,0.251,0.089,0.382,0.089s0.262-0.029,0.383-0.089l21.463-10.47c0.299-0.146,0.488-0.447,0.49-0.779
		s-0.186-0.638-0.481-0.785l-5.485-2.743l5.479-2.672c0.298-0.146,0.487-0.447,0.489-0.78c0.002-0.332-0.186-0.636-0.481-0.785
		l-5.485-2.742l5.479-2.673c0.299-0.146,0.489-0.45,0.489-0.784s-0.19-0.638-0.49-0.783L30.054,12.444
		c-0.242-0.117-0.522-0.117-0.765,0L7.824,22.914c-0.301,0.146-0.49,0.449-0.49,0.783c0,0.335,0.189,0.639,0.49,0.784l5.479,2.673
		l-5.487,2.742c-0.296,0.149-0.483,0.453-0.481,0.785c0.001,0.333,0.19,0.635,0.49,0.779l5.479,2.673l-5.487,2.743
		C7.519,37.026,7.332,37.33,7.334,37.662z M29.669,14.199l19.474,9.498l-19.474,9.5l-19.474-9.5L29.669,14.199z M15.278,28.118
		l14.011,6.834c0.12,0.059,0.251,0.088,0.382,0.088s0.262-0.029,0.383-0.088l14.01-6.834l5.102,2.55l-19.493,9.509l-19.493-9.509
		L15.278,28.118z M15.278,35.098l14.011,6.834c0.12,0.061,0.251,0.089,0.382,0.089s0.262-0.028,0.383-0.089l14.01-6.833l5.102,2.55
		l-19.493,9.508l-19.493-9.508L15.278,35.098z"/>
</g>
<path display="none" fill="#FFFFFF" d="M51.686,39.588H8.103c-1.065,0-1.928-0.862-1.928-1.928V21.654
	c0-1.065,0.863-1.928,1.928-1.928h43.583c1.064,0,1.928,0.863,1.928,1.928v16.005C53.614,38.726,52.75,39.588,51.686,39.588z"/>
<path display="none" fill="#E2E2E2" d="M51.686,19.726h-0.193v16.681c0,0.532-0.433,0.964-0.964,0.964H6.175v0.29
	c0,1.065,0.863,1.928,1.928,1.928h43.583c1.064,0,1.928-0.862,1.928-1.928V21.654C53.614,20.589,52.75,19.726,51.686,19.726z"/>
<path display="none" opacity="0.5" fill="#124907" d="M51.686,19.003h-4.259c-0.4,0-0.723,0.323-0.723,0.723
	c0,0.4,0.322,0.723,0.723,0.723h4.259c0.664,0,1.205,0.542,1.205,1.205v16.005c0,0.665-0.541,1.206-1.205,1.206H8.103
	c-0.665,0-1.205-0.541-1.205-1.206V21.654c0-0.665,0.541-1.205,1.205-1.205h35.884c0.399,0,0.724-0.323,0.724-0.723
	c0-0.399-0.324-0.723-0.724-0.723H8.103c-1.461,0-2.651,1.189-2.651,2.651v16.005c0,1.463,1.19,2.652,2.651,2.652h43.583
	c1.461,0,2.651-1.189,2.651-2.652V21.654C54.337,20.192,53.147,19.003,51.686,19.003z"/>
<g display="none">
	<path display="inline" fill="#47A537" d="M15.932,25.101c0.04,0.017,0.082,0.024,0.126,0.024s0.09,0,0.138,0
		c0.024,0,0.046,0,0.066,0s0.042,0,0.066,0c0.016,0.008,0.036,0.012,0.06,0.012s0.048,0,0.072,0c0.304,0.017,0.598,0.06,0.882,0.132
		c0.284,0.072,0.554,0.168,0.81,0.288c0.256,0.12,0.454,0.306,0.594,0.559c0.14,0.252,0.222,0.565,0.246,0.941
		c0,0.232-0.026,0.444-0.078,0.636c-0.052,0.192-0.13,0.368-0.234,0.528c-0.104,0.152-0.238,0.286-0.402,0.402
		s-0.362,0.21-0.594,0.281c0.24,0.08,0.454,0.183,0.642,0.307s0.346,0.266,0.474,0.426c0.136,0.16,0.236,0.346,0.3,0.558
		c0.064,0.213,0.096,0.446,0.096,0.702c0,0.464-0.072,0.847-0.216,1.146s-0.36,0.518-0.648,0.653
		c-0.288,0.137-0.6,0.236-0.936,0.301c-0.336,0.063-0.7,0.096-1.092,0.096h-0.48h-0.3h-1.776v-7.992h0.48H15.932z M15.932,28.533
		c0.008,0.008,0.016,0.012,0.024,0.012c0.008,0,0.016-0.004,0.024-0.012c0.008,0,0.016,0,0.024,0c0.008,0,0.016,0,0.024,0
		c0.208-0.017,0.406-0.051,0.594-0.103s0.37-0.122,0.546-0.21c0.176-0.088,0.308-0.22,0.396-0.396
		c0.088-0.177,0.132-0.389,0.132-0.637c0-0.279-0.046-0.51-0.138-0.689c-0.092-0.181-0.23-0.311-0.414-0.391
		c-0.176-0.079-0.364-0.142-0.564-0.186c-0.2-0.044-0.408-0.07-0.624-0.078c-0.032,0-0.064,0-0.096,0c-0.032,0-0.064,0-0.096,0
		c-0.032,0-0.062,0-0.09,0c-0.028,0-0.054,0-0.078,0l-0.528-0.024v2.713H15.932z M15.069,32.373h0.54
		c0.28,0.016,0.548,0.008,0.804-0.024c0.256-0.031,0.5-0.08,0.732-0.144c0.232-0.064,0.406-0.196,0.522-0.396
		c0.116-0.199,0.174-0.468,0.174-0.804c0-0.376-0.058-0.685-0.174-0.924c-0.116-0.24-0.29-0.408-0.522-0.504
		c-0.232-0.097-0.486-0.17-0.762-0.223c-0.276-0.052-0.574-0.078-0.894-0.078l-0.42-0.012V32.373z"/>
	<path display="inline" fill="#47A537" d="M23.288,32.865c-0.032,0.04-0.07,0.071-0.114,0.096c-0.044,0.023-0.086,0.048-0.126,0.072
		c-0.128,0.063-0.26,0.115-0.396,0.155c-0.136,0.04-0.284,0.061-0.444,0.061h-0.48c-0.296,0-0.54-0.046-0.732-0.139
		c-0.192-0.092-0.332-0.233-0.42-0.426c-0.096-0.191-0.168-0.396-0.216-0.611c-0.048-0.217-0.076-0.444-0.084-0.685
		c0-0.016,0-0.032,0-0.048s0-0.036,0-0.06c0-0.017,0-0.034,0-0.055c0-0.02,0-0.038,0-0.054v-3.769h0.48h0.804v3.841
		c0,0.04,0,0.073,0,0.102s0,0.054,0,0.078c0,0.008,0,0.021,0,0.036s0,0.028,0,0.036c0,0.016,0.002,0.029,0.006,0.042
		c0.004,0.012,0.006,0.025,0.006,0.042c0.008,0.128,0.026,0.248,0.054,0.359c0.028,0.112,0.07,0.221,0.126,0.324
		c0.04,0.08,0.09,0.145,0.15,0.192s0.134,0.08,0.222,0.096c0.08-0.016,0.158-0.04,0.234-0.072c0.076-0.031,0.154-0.071,0.234-0.12
		c0.112-0.071,0.218-0.147,0.318-0.228s0.19-0.164,0.27-0.252l0.048-0.072l0.06-0.06v-4.345h0.48h0.804v5.688h-0.48h-0.804V32.865z"
		/>
	<path display="inline" fill="#47A537" d="M27.464,27.405h1.272v0.685h-1.272v3.456v0.3c0,0.128,0.008,0.238,0.024,0.33
		s0.04,0.17,0.072,0.234c0.024,0.048,0.062,0.086,0.114,0.113c0.052,0.028,0.114,0.051,0.186,0.066c0.008,0,0.014,0,0.018,0
		s0.01-0.004,0.018-0.012c0.008,0,0.016,0,0.024,0c0.024,0,0.05,0,0.078,0c0.028,0,0.058-0.004,0.09-0.013
		c0.024-0.008,0.05-0.014,0.078-0.018c0.028-0.004,0.058-0.01,0.09-0.019l0.48-0.012v0.636c-0.032,0.009-0.066,0.015-0.102,0.019
		c-0.036,0.004-0.074,0.01-0.114,0.018c-0.016,0-0.032,0.002-0.048,0.006c-0.016,0.004-0.032,0.011-0.048,0.019
		c-0.024,0-0.044,0.002-0.06,0.006s-0.032,0.006-0.048,0.006c-0.032,0.008-0.066,0.014-0.102,0.019
		c-0.036,0.004-0.074,0.006-0.114,0.006c-0.016,0-0.032,0-0.048,0c-0.017,0-0.032,0.004-0.048,0.012c-0.024,0-0.044,0-0.06,0
		s-0.032,0-0.048,0h-0.48c-0.24,0-0.442-0.03-0.606-0.09c-0.164-0.061-0.29-0.154-0.378-0.282c-0.08-0.136-0.142-0.29-0.186-0.462
		s-0.066-0.37-0.066-0.594v-0.408v-3.336h-0.888v-0.685h0.888v-1.836h0.48h0.804V27.405z"/>
	<path display="inline" fill="#47A537" d="M31.064,27.405h1.272v0.685h-1.272v3.456v0.3c0,0.128,0.008,0.238,0.024,0.33
		s0.04,0.17,0.072,0.234c0.024,0.048,0.062,0.086,0.114,0.113c0.052,0.028,0.113,0.051,0.186,0.066c0.008,0,0.014,0,0.018,0
		s0.011-0.004,0.019-0.012c0.008,0,0.017,0,0.024,0c0.023,0,0.049,0,0.078,0c0.027,0,0.058-0.004,0.09-0.013
		c0.023-0.008,0.049-0.014,0.078-0.018c0.027-0.004,0.058-0.01,0.09-0.019l0.479-0.012v0.636c-0.032,0.009-0.065,0.015-0.103,0.019
		c-0.035,0.004-0.073,0.01-0.113,0.018c-0.016,0-0.032,0.002-0.048,0.006c-0.017,0.004-0.032,0.011-0.048,0.019
		c-0.024,0-0.045,0.002-0.061,0.006s-0.031,0.006-0.048,0.006c-0.032,0.008-0.065,0.014-0.103,0.019
		c-0.035,0.004-0.073,0.006-0.113,0.006c-0.016,0-0.032,0-0.048,0c-0.017,0-0.032,0.004-0.048,0.012c-0.024,0-0.045,0-0.061,0
		s-0.031,0-0.048,0h-0.479c-0.24,0-0.442-0.03-0.606-0.09c-0.164-0.061-0.29-0.154-0.378-0.282c-0.08-0.136-0.142-0.29-0.186-0.462
		s-0.066-0.37-0.066-0.594v-0.408v-3.336h-0.888v-0.685h0.888v-1.836h0.48h0.803V27.405z"/>
	<path display="inline" fill="#47A537" d="M37.916,30.249c0,0.032,0,0.056,0,0.071c0,0.017,0,0.032,0,0.049c0,0.016,0,0.031,0,0.048
		c0,0.016,0,0.032,0,0.048c-0.008,0.353-0.06,0.689-0.155,1.014c-0.097,0.324-0.229,0.63-0.396,0.918s-0.396,0.502-0.684,0.643
		c-0.289,0.14-0.637,0.21-1.045,0.21h-0.479c-0.4,0-0.744-0.068-1.032-0.204c-0.287-0.136-0.516-0.349-0.684-0.636
		c-0.168-0.28-0.299-0.578-0.391-0.895c-0.092-0.315-0.146-0.646-0.162-0.99c0-0.016,0-0.033,0-0.054c0-0.02,0-0.042,0-0.066
		c0-0.016,0-0.027,0-0.035s0-0.021,0-0.036c0-0.008,0-0.019,0-0.03s0-0.021,0-0.03c0-0.016,0-0.033,0-0.054c0-0.02,0-0.042,0-0.066
		c0-0.016,0-0.027,0-0.035s0-0.021,0-0.036c0-0.008,0-0.019,0-0.03s0-0.021,0-0.03c0.017-0.344,0.07-0.672,0.162-0.983
		c0.092-0.313,0.223-0.612,0.391-0.9s0.396-0.504,0.684-0.647c0.288-0.145,0.632-0.217,1.032-0.217l0.479-0.012
		c0.4,0.008,0.742,0.084,1.026,0.229c0.284,0.144,0.511,0.359,0.679,0.647s0.299,0.588,0.396,0.9
		c0.096,0.312,0.151,0.64,0.168,0.983c0,0.009,0,0.019,0,0.03s0.004,0.022,0.012,0.03c0,0.016,0,0.028,0,0.036s0,0.02,0,0.035
		c0,0.017,0,0.03,0,0.042c0,0.013,0,0.022,0,0.03s0,0.015,0,0.019s0,0.01,0,0.018V30.249z M36.609,30.165c0-0.024,0-0.048,0-0.072
		c-0.008-0.024-0.012-0.05-0.012-0.078c0-0.027,0-0.058,0-0.09c0-0.064-0.002-0.126-0.006-0.186
		c-0.005-0.061-0.011-0.118-0.019-0.175c-0.032-0.208-0.08-0.403-0.144-0.588c-0.064-0.184-0.148-0.363-0.252-0.54
		c-0.08-0.136-0.185-0.246-0.313-0.33s-0.284-0.142-0.469-0.174c-0.176,0.032-0.328,0.09-0.455,0.174
		c-0.129,0.084-0.236,0.194-0.324,0.33c-0.104,0.177-0.188,0.356-0.252,0.54c-0.064,0.185-0.107,0.38-0.132,0.588
		c-0.009,0.057-0.017,0.114-0.024,0.175c-0.008,0.06-0.012,0.121-0.012,0.186c-0.008,0.056-0.012,0.112-0.012,0.168s0,0.108,0,0.156
		c0,0.056,0,0.109,0,0.162c0,0.052,0,0.109,0,0.174c0,0.032,0,0.062,0,0.09s0.004,0.054,0.012,0.078c0,0.032,0.002,0.062,0.006,0.09
		s0.01,0.059,0.018,0.09c0.024,0.2,0.068,0.396,0.133,0.588c0.063,0.192,0.147,0.372,0.252,0.54c0.088,0.145,0.197,0.258,0.33,0.342
		c0.132,0.084,0.285,0.139,0.461,0.162c0.177-0.023,0.328-0.078,0.457-0.162c0.127-0.084,0.231-0.193,0.312-0.329
		c0.104-0.169,0.188-0.347,0.252-0.534c0.063-0.188,0.112-0.382,0.144-0.582c0.008-0.064,0.015-0.126,0.019-0.187
		c0.004-0.06,0.011-0.117,0.019-0.174c0-0.032,0-0.062,0-0.09s0.004-0.058,0.012-0.09c0-0.024,0-0.05,0-0.078s0-0.058,0-0.09v-0.024
		C36.609,30.209,36.609,30.189,36.609,30.165z"/>
	<path display="inline" fill="#47A537" d="M40.316,27.657c0.024-0.009,0.047-0.019,0.066-0.03s0.042-0.026,0.066-0.042
		c0.016-0.017,0.033-0.03,0.054-0.042s0.042-0.026,0.065-0.042c0.121-0.072,0.25-0.128,0.391-0.168
		c0.14-0.04,0.286-0.061,0.438-0.061l0.48-0.012c0.288,0.008,0.527,0.063,0.721,0.162c0.191,0.1,0.336,0.246,0.432,0.438
		c0.088,0.192,0.158,0.396,0.209,0.612c0.053,0.216,0.082,0.44,0.091,0.672c0,0.024,0,0.046,0,0.066c0,0.02,0,0.038,0,0.054
		c0,0.024,0,0.046,0,0.066c0,0.02,0,0.038,0,0.054v3.708h-0.479h-0.805v-3.84c0-0.016,0-0.042,0-0.078s0-0.07,0-0.102
		c0-0.017,0-0.034,0-0.055c0-0.02,0-0.042,0-0.065c-0.008-0.017-0.012-0.034-0.012-0.055c0-0.02,0-0.037,0-0.054
		c-0.008-0.112-0.028-0.22-0.061-0.324c-0.031-0.104-0.072-0.204-0.119-0.3c-0.033-0.063-0.076-0.118-0.133-0.162
		c-0.056-0.044-0.124-0.078-0.203-0.102c-0.072,0.016-0.145,0.04-0.217,0.071c-0.072,0.032-0.14,0.072-0.203,0.12
		c-0.105,0.072-0.207,0.145-0.307,0.217c-0.1,0.071-0.194,0.151-0.282,0.239c-0.017,0.017-0.032,0.032-0.048,0.048
		c-0.016,0.017-0.032,0.032-0.048,0.049c-0.017,0.016-0.032,0.031-0.048,0.048c-0.017,0.016-0.032,0.032-0.049,0.048v4.296h-0.479
		h-0.804v-5.676h0.48h0.803V27.657z"/>
</g>
<g>
	<g>
		<path opacity="0.3" fill="#FFFFFF" d="M36.646,23.97c-1.212-0.661-1.971-1.816-2.274-3.101c-0.83-1.549-0.86-3.543-0.048-5.105
			L9.035,15.884l0.144,30.731l30.73-0.145l-0.096-20.259C38.325,25.946,37.271,25.082,36.646,23.97z"/>
	</g>
	<g>
		<path fill="#FFFFFF" d="M39.815,26.12c-0.344,0.002-0.621,0.283-0.619,0.627l0.09,19.103L9.801,45.988L9.662,16.504l23.942-0.112
			c0.344-0.001,0.621-0.282,0.619-0.626s-0.281-0.623-0.625-0.621L9.032,15.26c-0.344,0.002-0.622,0.283-0.62,0.627l0.144,30.731
			c0.001,0.344,0.282,0.622,0.626,0.62l30.731-0.145c0.345-0.002,0.62-0.281,0.619-0.626l-0.092-19.726
			C40.439,26.397,40.159,26.118,39.815,26.12z"/>
		<path fill="#FFFFFF" d="M49.122,18.298c-0.251,3.333-3.029,5.976-6.429,5.992c-3.574,0.018-6.496-2.876-6.513-6.452
			c-0.018-3.574,2.878-6.496,6.453-6.512c0.343-0.002,0.678,0.031,1.007,0.081c0.298-0.405,0.671-0.759,1.119-1.033
			c-0.679-0.192-1.393-0.299-2.133-0.295c-4.262,0.02-7.713,3.503-7.692,7.765c0.021,4.263,3.504,7.712,7.766,7.692
			c4.261-0.02,7.713-3.502,7.692-7.765c-0.001-0.15-0.016-0.297-0.024-0.446C50.032,17.721,49.615,18.052,49.122,18.298z"/>
	</g>
</g>
<text transform="matrix(1 0 0 1 15.8342 41.0042)" fill="#FFFFFF" font-family="'NewCenturySchlbk-Roman'" font-size="26.9753">T</text>
<path fill="#FFFFFF" d="M52.487,10.333c0.761,0.761,0.761,1.995,0,2.754l-7.401,7.401c-0.761,0.761-1.994,0.76-2.754,0l-3.516-3.515
	c-0.762-0.761-0.762-1.995,0-2.754c0.761-0.761,1.994-0.761,2.755,0l2.138,2.138l6.024-6.024
	C50.492,9.573,51.726,9.573,52.487,10.333z"/>
</svg>
