<?xml version="1.0"?>
<svg xmlns="http://www.w3.org/2000/svg" height="512px" viewBox="-24 0 511 512" width="512px"><g><path d="m15.5 447.152344c-2.03125 0-4.074219-.410156-6.007812-1.257813-5.464844-2.390625-8.992188-7.785156-8.992188-13.746093v-278.863282c0-5.960937 3.527344-11.355468 8.992188-13.746094 5.460937-2.386718 11.820312-1.316406 16.195312 2.730469l150.816406 139.429688c3.074219 2.839843 4.820313 6.835937 4.820313 11.019531s-1.746094 8.175781-4.820313 11.015625l-150.816406 139.433594c-2.828125 2.613281-6.484375 3.984375-10.1875 3.984375zm0 0" data-original="#000000" class="active-path" data-old_color="#000000" fill="#B0B0B0"/><path d="m448.457031 447.152344c-3.707031 0-7.359375-1.371094-10.1875-3.984375l-150.816406-139.433594c-3.074219-2.839844-4.820313-6.835937-4.820313-11.019531s1.746094-8.175782 4.820313-11.015625l150.816406-139.429688c4.378907-4.046875 10.738281-5.121093 16.195313-2.730469 5.464844 2.390626 8.992187 7.785157 8.992187 13.746094v278.863282c0 5.960937-3.527343 11.355468-8.992187 13.746093-1.929688.84375-3.976563 1.257813-6.007813 1.257813zm0 0" data-original="#000000" class="active-path" data-old_color="#000000" fill="#B0B0B0"/><path d="m231.980469 512c-8.289063 0-15.003907-6.71875-15.003907-15.003906v-43.007813c0-8.285156 6.714844-15.003906 15.003907-15.003906 8.285156 0 15 6.71875 15 15.003906v43.007813c0 8.285156-6.714844 15.003906-15 15.003906zm0-123.023438c-8.289063 0-15.003907-6.71875-15.003907-15.003906v-43.007812c0-8.289063 6.714844-15.003906 15.003907-15.003906 8.285156 0 15 6.714843 15 15.003906v43.007812c0 8.285156-6.714844 15.003906-15 15.003906zm0-123.027343c-8.289063 0-15.003907-6.714844-15.003907-15.003907v-43.007812c0-8.285156 6.714844-15.003906 15.003907-15.003906 8.285156 0 15 6.71875 15 15.003906v43.007812c0 8.289063-6.714844 15.003907-15 15.003907zm0-123.023438c-8.289063 0-15.003907-6.71875-15.003907-15.003906v-43.007813c0-8.289062 6.714844-15.003906 15.003907-15.003906 8.285156 0 15 6.714844 15 15.003906v43.007813c0 8.285156-6.714844 15.003906-15 15.003906zm0 0" data-original="#000000" class="active-path" data-old_color="#000000" fill="#B0B0B0"/><path d="m408.492188 48.277344c-8.128907 0-14.730469 6.46875-14.980469 14.535156-43.574219-40.191406-100.8125-62.8125-160.722657-62.8125-68.941406 0-134.355468 29.945312-179.46875 82.160156-5.417968 6.269532-4.726562 15.742188 1.542969 21.160156 6.269531 5.417969 15.742188 4.726563 21.160157-1.542968 39.410156-45.613282 96.546874-71.769532 156.765624-71.769532 52.65625 0 102.953126 20 141.105469 55.519532h-2.652343c-8.285157 0-15.003907 6.71875-15.003907 15.003906s6.71875 15.003906 15.003907 15.003906h37.25c8.285156 0 15-6.71875 15-15.003906v-37.25c0-8.285156-6.714844-15.003906-15-15.003906zm0 0" data-original="#000000" class="active-path" data-old_color="#000000" fill="#B0B0B0"/></g> </svg>
