<?xml version="1.0"?>
<svg xmlns="http://www.w3.org/2000/svg" xmlns:xlink="http://www.w3.org/1999/xlink" version="1.1" id="Capa_1" x="0px" y="0px" viewBox="0 0 333 333" style="enable-background:new 0 0 333 333;" xml:space="preserve" width="512px" height="512px"><g><path d="M0,41.5c0,5.5,4.5,10,10,10h313c5.5,0,10-4.5,10-10s-4.5-10-10-10H10C4.5,31.5,0,36,0,41.5z" data-original="#000000" class="active-path" data-old_color="#000000" fill="#B0B0B0"/><path d="M10,134.5h220c5.5,0,10-4.5,10-10s-4.5-10-10-10H10c-5.5,0-10,4.5-10,10S4.5,134.5,10,134.5z" data-original="#000000" class="active-path" data-old_color="#000000" fill="#B0B0B0"/><path d="M10,218.5h313c5.5,0,10-4.5,10-10s-4.5-10-10-10H10c-5.5,0-10,4.5-10,10S4.5,218.5,10,218.5z" data-original="#000000" class="active-path" data-old_color="#000000" fill="#B0B0B0"/><path d="M10,301.5h141c5.5,0,10-4.5,10-10s-4.5-10-10-10H10c-5.5,0-10,4.5-10,10S4.5,301.5,10,301.5z" data-original="#000000" class="active-path" data-old_color="#000000" fill="#B0B0B0"/></g> </svg>
