<?xml version="1.0"?>
<svg xmlns="http://www.w3.org/2000/svg" height="512px" viewBox="-11 0 512 512" width="512px"><g><path d="m21.332031 106.667969c-11.773437 0-21.332031-9.558594-21.332031-21.335938v-21.332031c0-35.285156 28.714844-64 64-64h21.332031c11.777344 0 21.335938 9.558594 21.335938 21.332031 0 11.777344-9.558594 21.335938-21.335938 21.335938h-21.332031c-11.753906 0-21.332031 9.578125-21.332031 21.332031v21.332031c0 11.777344-9.558594 21.335938-21.335938 21.335938zm0 0" data-original="#000000" class="active-path" data-old_color="#000000" fill="#52697E"/><path d="m405.332031 106.667969c-11.773437 0-21.332031-9.558594-21.332031-21.335938v-21.332031c0-11.753906-9.578125-21.332031-21.332031-21.332031h-21.335938c-11.773437 0-21.332031-9.558594-21.332031-21.335938 0-11.773437 9.558594-21.332031 21.332031-21.332031h21.335938c35.285156 0 64 28.714844 64 64v21.332031c0 11.777344-9.558594 21.335938-21.335938 21.335938zm0 0" data-original="#000000" class="active-path" data-old_color="#000000" fill="#52697E"/><path d="m256 42.667969h-85.332031c-11.777344 0-21.335938-9.558594-21.335938-21.335938 0-11.773437 9.558594-21.332031 21.335938-21.332031h85.332031c11.777344 0 21.332031 9.558594 21.332031 21.332031 0 11.777344-9.554687 21.335938-21.332031 21.335938zm0 0" data-original="#000000" class="active-path" data-old_color="#000000" fill="#52697E"/><path d="m213.332031 426.667969h-42.664062c-11.777344 0-21.335938-9.558594-21.335938-21.335938 0-11.773437 9.558594-21.332031 21.335938-21.332031h42.664062c11.777344 0 21.335938 9.558594 21.335938 21.332031 0 11.777344-9.558594 21.335938-21.335938 21.335938zm0 0" data-original="#000000" class="active-path" data-old_color="#000000" fill="#52697E"/><path d="m85.332031 426.667969h-21.332031c-35.285156 0-64-28.714844-64-64v-21.335938c0-11.773437 9.558594-21.332031 21.332031-21.332031 11.777344 0 21.335938 9.558594 21.335938 21.332031v21.335938c0 11.753906 9.578125 21.332031 21.332031 21.332031h21.332031c11.777344 0 21.335938 9.558594 21.335938 21.332031 0 11.777344-9.558594 21.335938-21.335938 21.335938zm0 0" data-original="#000000" class="active-path" data-old_color="#000000" fill="#52697E"/><path d="m21.332031 277.332031c-11.773437 0-21.332031-9.554687-21.332031-21.332031v-85.332031c0-11.777344 9.558594-21.335938 21.332031-21.335938 11.777344 0 21.335938 9.558594 21.335938 21.335938v85.332031c0 11.777344-9.558594 21.332031-21.335938 21.332031zm0 0" data-original="#000000" class="active-path" data-old_color="#000000" fill="#52697E"/><path d="m405.332031 234.667969c-11.773437 0-21.332031-9.558594-21.332031-21.335938v-42.664062c0-11.777344 9.558594-21.335938 21.332031-21.335938 11.777344 0 21.335938 9.558594 21.335938 21.335938v42.664062c0 11.777344-9.558594 21.335938-21.335938 21.335938zm0 0" data-original="#000000" class="active-path" data-old_color="#000000" fill="#52697E"/><path d="m486.570312 362.601562-188.671874-188.585937c-9.128907-7.382813-23.359376-.296875-23.339844 10.796875v257.386719c0 7.804687 6.335937 14.140625 14.144531 14.140625 3.734375 0 7.316406-1.46875 9.238281-3.453125l48.363282-42.132813 40.554687 94.761719c1.109375 2.601563 3.199219 4.648437 5.824219 5.714844 1.277344.511719 2.625.769531 3.96875.769531 1.425781 0 2.855468-.296875 4.199218-.875l44.800782-19.199219c5.417968-2.304687 7.9375-8.578125 5.613281-13.996093l-39-91.15625h64.257813c7.808593 0 14.144531-6.335938 14.144531-14.144532 0-3.304687-1.152344-6.464844-4.097657-10.027344zm0 0" data-original="#000000" class="active-path" data-old_color="#000000" fill="#52697E"/></g> </svg>
