<?xml version="1.0" encoding="utf-8"?>
<!-- Generator: Adobe Illustrator 16.0.0, SVG Export Plug-In . SVG Version: 6.00 Build 0)  -->
<!DOCTYPE svg PUBLIC "-//W3C//DTD SVG 1.1//EN" "http://www.w3.org/Graphics/SVG/1.1/DTD/svg11.dtd">
<svg version="1.1" id="Layer_1" xmlns="http://www.w3.org/2000/svg" xmlns:xlink="http://www.w3.org/1999/xlink" x="0px" y="0px"
	 width="58.854px" height="58.852px" viewBox="0 0 58.854 58.852" enable-background="new 0 0 58.854 58.852" xml:space="preserve">
<g>
	<g>
		<linearGradient id="SVGID_1_" gradientUnits="userSpaceOnUse" x1="29.4268" y1="0.9375" x2="29.4268" y2="58.3666">
			<stop  offset="0" style="stop-color:#8AC651"/>
			<stop  offset="1" style="stop-color:#55AF47"/>
		</linearGradient>
		<path fill="url(#SVGID_1_)" d="M58.854,50.012c0,4.881-3.959,8.84-8.842,8.84H8.841C3.958,58.852,0,54.893,0,50.012V8.84
			C0,3.957,3.958,0,8.841,0h41.171c4.883,0,8.842,3.957,8.842,8.84V50.012z"/>
	</g>
	<g>
		<path fill="#FFFFFF" d="M32.75,15.276c-0.795-0.425-1.754-0.378-2.504,0.121l-10.485,6.99h-3.975
			c-1.019,0-1.857,0.787-1.941,1.785h-0.561c-1.886,0-3.421,1.534-3.421,3.42v3.667c0,1.886,1.535,3.42,3.421,3.42h0.561
			c0.084,0.998,0.922,1.785,1.941,1.785h3.975l10.485,6.99c0.409,0.272,0.88,0.41,1.353,0.41c0.395,0,0.79-0.096,1.152-0.289
			c0.794-0.426,1.288-1.249,1.288-2.15V17.427C34.038,16.526,33.544,15.702,32.75,15.276z M11.799,31.26v-3.667
			c0-0.818,0.666-1.484,1.485-1.484h0.553v6.636h-0.553C12.464,32.744,11.799,32.078,11.799,31.26z M15.772,34.517V24.336
			c0-0.007,0.006-0.013,0.013-0.013h3.3v10.206h-3.3C15.778,34.529,15.772,34.523,15.772,34.517z M32.102,41.426
			c0,0.272-0.186,0.4-0.267,0.443c-0.08,0.043-0.29,0.126-0.517-0.024l-10.298-6.866V23.874l10.298-6.865
			c0.227-0.151,0.437-0.068,0.517-0.025c0.081,0.043,0.267,0.172,0.267,0.443V41.426z"/>
		<path fill="#FFFFFF" d="M43.917,17.158c-0.34-0.341-0.892-0.341-1.231,0c-0.34,0.341-0.34,0.892,0,1.232
			c2.942,2.942,4.563,6.862,4.563,11.036s-1.621,8.093-4.563,11.036c-0.34,0.34-0.34,0.892,0,1.231
			c0.17,0.17,0.393,0.255,0.616,0.255c0.223,0,0.446-0.085,0.616-0.255c3.272-3.272,5.074-7.629,5.074-12.269
			C48.991,24.787,47.189,20.431,43.917,17.158z"/>
		<path fill="#FFFFFF" d="M37.901,21.941c-0.34,0.341-0.34,0.892,0,1.232c1.667,1.667,2.586,3.888,2.586,6.253
			c0,2.364-0.918,4.585-2.586,6.252c-0.34,0.341-0.34,0.892,0,1.232c0.171,0.17,0.393,0.255,0.616,0.255s0.447-0.085,0.617-0.255
			c1.996-1.997,3.095-4.654,3.095-7.484c0-2.831-1.1-5.488-3.095-7.484C38.792,21.602,38.242,21.602,37.901,21.941z"/>
	</g>
</g>
</svg>
