<?xml version="1.0" encoding="iso-8859-1"?>
<svg xmlns="http://www.w3.org/2000/svg" xmlns:xlink="http://www.w3.org/1999/xlink" version="1.1" viewBox="0 0 261.018 261.018" enable-background="new 0 0 261.018 261.018" width="512px" height="512px">
  <g>
    <g>
      <path d="m85.266,67.43l36.543-36.543v125.289c0,5.22 3.48,8.701 8.701,8.701 5.22,0 8.701-3.48 8.701-8.701v-125.289l36.543,36.543c1.74,1.74 5.22,1.74 6.96,1.74 1.74,0 5.22,0 6.96-1.74 3.48-3.48 3.48-8.701 0-12.181l-52.205-52.204c-3.48-3.48-8.701-3.48-12.181-1.77636e-15l-52.203,52.204c-3.48,3.48-3.48,8.701 0,12.181 3.48,3.48 8.701,3.48 12.181,0z" fill="#FFFFFF"/>
      <path d="m252.317,173.577c-5.22,0-8.701,3.48-8.701,8.701v34.802c0,13.921-12.181,26.102-26.102,26.102h-174.011c-13.921,0-26.102-12.181-26.102-26.102v-34.802c0-5.22-3.48-8.701-8.701-8.701s-8.7,3.481-8.7,8.701v34.802c0,24.362 19.141,43.503 43.503,43.503h174.012c24.362,0 43.503-19.141 43.503-43.503v-34.802c0-5.221-3.48-8.701-8.701-8.701z" fill="#FFFFFF"/>
    </g>
  </g>
</svg>
