<?xml version="1.0" encoding="utf-8"?>
<!-- Generator: Adobe Illustrator 21.0.0, SVG Export Plug-In . SVG Version: 6.00 Build 0)  -->
<svg version="1.1" id="Layer_1" xmlns="http://www.w3.org/2000/svg" xmlns:xlink="http://www.w3.org/1999/xlink" x="0px" y="0px"
	 viewBox="0 0 1024 68" style="enable-background:new 0 0 1024 68;" xml:space="preserve">
<style type="text/css">
	.st0{opacity:0.2;fill:#79B7EA;}
	.st1{fill:#79B7EA;}
	.st2{opacity:0.8;}
	.st3{clip-path:url(#SVGID_2_);fill:#FFFFFF;}
	.st4{clip-path:url(#SVGID_2_);}
	.st5{opacity:0.6;fill:#C6C6C6;}
	.st6{fill:#DDE0E3;}
	.st7{opacity:0.1;}
	.st8{fill:#474747;}
	.st9{fill:#FFB600;}
	.st10{opacity:5.000000e-02;}
	.st11{clip-path:url(#SVGID_4_);}
	.st12{opacity:0.2;}
	.st13{clip-path:url(#SVGID_6_);fill:#828282;}
	.st14{clip-path:url(#SVGID_8_);fill:none;stroke:#B7B7B7;stroke-width:1.9636;stroke-miterlimit:10;}
	.st15{clip-path:url(#SVGID_10_);fill:#828282;}
	.st16{fill:#FFFFFF;}
	.st17{fill:#EBEBEB;}
</style>
<rect y="6" class="st0" width="1024" height="62"/>
<rect class="st1" width="1024" height="62"/>
<g class="st2">
	<defs>
		<circle id="SVGID_1_" class="st2" cx="978.7" cy="32" r="23"/>
	</defs>
	<clipPath id="SVGID_2_">
		<use xlink:href="#SVGID_1_"  style="overflow:visible;"/>
	</clipPath>
	<rect x="949.9" y="3.2" class="st3" width="57.5" height="57.5"/>
	<g class="st4">
		<path class="st5" d="M958.4,43.2l6.7,14.6l19.8-3.6C976.4,55.8,963.7,50.1,958.4,43.2z"/>
		<path class="st6" d="M985,54.3l14.2-2.5l-1-5.4C994.9,50.4,990.3,53.3,985,54.3z"/>
	</g>
	<path class="st3" d="M988.7,9.6c1.4,6,3.7,6.8,8.9,6c-4.5,2.9-9.3,2.6-9.4-1.9c-1.8,4.8-6.6,4.4-9.6,1.5c0.3,4.6-2.6,4.2-6.9,2
		c4.1,0.3,5.7-0.2,5.1-5.3C981.7,15.4,985.6,14.6,988.7,9.6z"/>
</g>
<g>
	<g class="st7">
		<path class="st8" d="M976.7,42.7h-10.7c-3.3,0-5.9-2.6-5.9-5.9V26.1c0-3.3,2.6-5.9,5.9-5.9h10.7c3.3,0,5.9,2.6,5.9,5.9v10.7
			C982.7,40.1,980,42.7,976.7,42.7z"/>
	</g>
	<g>
		<path class="st9" d="M985.3,35.7h-10.7c-3.3,0-5.9-2.6-5.9-5.9V19.2c0-3.3,2.6-5.9,5.9-5.9h10.7c3.3,0,5.9,2.6,5.9,5.9v10.7
			C991.2,33.1,988.6,35.7,985.3,35.7z"/>
	</g>
	<g>
		<rect x="971.9" y="46" transform="matrix(0.7072 -0.707 0.707 0.7072 253.1809 704.905)" class="st9" width="11.5" height="1.5"/>
	</g>
	<g>
		
			<rect x="977.6" y="47.2" transform="matrix(0.7071 -0.7071 0.7071 0.7071 253.6253 708.1918)" class="st9" width="8.1" height="1.5"/>
	</g>
	<g class="st10">
		<g>
			<g>
				<g>
					<g>
						<g>
							<g>
								<g>
									<g>
										<g>
											<g>
												<g>
													<defs>
														<rect id="SVGID_3_" x="970" y="18.7" width="21.1" height="16.7"/>
													</defs>
													<clipPath id="SVGID_4_">
														<use xlink:href="#SVGID_3_"  style="overflow:visible;"/>
													</clipPath>
													<path class="st11" d="M970,30.2v5.2h15.4c3.2,0,5.8-2.6,5.8-5.8V18.7C985.6,24.3,977.8,27.9,970,30.2"/>
												</g>
											</g>
										</g>
									</g>
								</g>
							</g>
						</g>
					</g>
				</g>
			</g>
		</g>
	</g>
	<g>
		<g class="st12">
			<g>
				<g>
					<g>
						<g>
							<g>
								<g>
									<g>
										<g>
											<g>
												<g>
													<g>
														<defs>
															
																<rect id="SVGID_5_" x="985.7" y="30.9" transform="matrix(0.9999 -1.354979e-02 1.354979e-02 0.9999 -0.5074 13.4708)" width="16.3" height="26.7"/>
														</defs>
														<clipPath id="SVGID_6_">
															<use xlink:href="#SVGID_5_"  style="overflow:visible;"/>
														</clipPath>
														<path class="st13" d="M986.2,51.5l-0.1-19.9l15.4,12.3c0.4,0.3,0.2,0.9-0.3,0.9l-5.9,0.7c-0.4,0.1-0.6,0.4-0.4,0.8
															l4.4,8.8c0.1,0.3,0,0.6-0.2,0.7l-2.3,1.1c-0.3,0.1-0.6,0-0.7-0.2l-4.3-8.8c-0.1-0.4-0.6-0.4-0.9-0.1l-3.8,3.9
															C986.8,52.3,986.2,52,986.2,51.5"/>
													</g>
												</g>
											</g>
										</g>
									</g>
								</g>
							</g>
						</g>
					</g>
				</g>
				<g>
					<g>
						<g>
							<g>
								<g>
									<g>
										<g>
											<g>
												<g>
													<g>
														<defs>
															
																<rect id="SVGID_7_" x="985.7" y="30.9" transform="matrix(0.9999 -1.354979e-02 1.354979e-02 0.9999 -0.5074 13.4708)" width="16.3" height="26.7"/>
														</defs>
														<clipPath id="SVGID_8_">
															<use xlink:href="#SVGID_7_"  style="overflow:visible;"/>
														</clipPath>
														<path class="st14" d="M986.2,51.5l-0.1-19.9l15.4,12.3c0.4,0.3,0.2,0.9-0.3,0.9l-5.9,0.7c-0.4,0.1-0.6,0.4-0.4,0.8
															l4.4,8.8c0.1,0.3,0,0.6-0.2,0.7l-2.3,1.1c-0.3,0.1-0.6,0-0.7-0.2l-4.3-8.8c-0.1-0.4-0.6-0.4-0.9-0.1l-3.8,3.9
															C986.8,52.3,986.2,52,986.2,51.5z"/>
													</g>
												</g>
											</g>
										</g>
									</g>
								</g>
							</g>
						</g>
					</g>
				</g>
				<g>
					<g>
						<g>
							<g>
								<g>
									<g>
										<g>
											<g>
												<g>
													<g>
														<defs>
															
																<rect id="SVGID_9_" x="985.7" y="30.9" transform="matrix(0.9999 -1.354979e-02 1.354979e-02 0.9999 -0.5074 13.4708)" width="16.3" height="26.7"/>
														</defs>
														<clipPath id="SVGID_10_">
															<use xlink:href="#SVGID_9_"  style="overflow:visible;"/>
														</clipPath>
														<path class="st15" d="M1001.4,44L986,31.7l11.8,24.9l1.2-0.6c0.3-0.1,0.4-0.4,0.2-0.7l-4.4-8.8
															c-0.1-0.4,0.1-0.7,0.4-0.8l5.9-0.7C1001.7,44.9,1001.8,44.3,1001.4,44"/>
													</g>
												</g>
											</g>
										</g>
									</g>
								</g>
							</g>
						</g>
					</g>
				</g>
			</g>
		</g>
		<path class="st16" d="M986.8,47.4l-0.1-19.9l15.5,12.3c0.4,0.3,0.2,0.9-0.3,0.9l-5.9,0.7c-0.4,0.1-0.6,0.4-0.4,0.8l4.4,8.8
			c0.1,0.3,0,0.6-0.2,0.7l-2.3,1.1c-0.3,0.1-0.6,0-0.7-0.2l-4.3-8.8c-0.1-0.4-0.6-0.4-0.9-0.1l-3.8,3.9
			C987.3,48.2,986.8,47.9,986.8,47.4"/>
		<path class="st17" d="M1002,39.9l-15.4-12.3l11.8,24.9l1.2-0.6c0.3-0.1,0.4-0.4,0.2-0.7l-4.4-8.8c-0.1-0.4,0.1-0.7,0.4-0.8
			l5.9-0.7C1002.2,40.8,1002.4,40.2,1002,39.9"/>
		<path class="st16" d="M1005.7,12.5c-2,0-3.6,1.7-3.5,3.7c0-2-1.7-3.6-3.7-3.5v-0.1c2,0,3.6-1.7,3.5-3.7
			C1002.1,10.8,1003.7,12.4,1005.7,12.5L1005.7,12.5z"/>
		<path class="st16" d="M975.8,7.1c-1.6,0-2.9,1.4-2.9,3c0-1.6-1.4-2.9-3-2.9V7.1c1.6,0,2.9-1.4,2.9-3C972.9,5.7,974.2,7,975.8,7.1
			L975.8,7.1z"/>
		<path class="st16" d="M969.9,47.1c-1.5,0-2.7,1.2-2.6,2.7c0-1.5-1.2-2.7-2.7-2.6v-0.1c1.5,0,2.7-1.2,2.6-2.7
			C967.2,45.9,968.4,47.1,969.9,47.1L969.9,47.1z"/>
		<path class="st16" d="M1007.3,29.8c-1.1,0-2,0.9-2,2c0-1.1-0.9-2-2-2v-0.1c1.1,0,2-0.9,2-2C1005.2,29,1006.1,29.8,1007.3,29.8
			L1007.3,29.8z"/>
	</g>
</g>
</svg>
