<?xml version="1.0" encoding="utf-8"?>
<!-- Generator: Adobe Illustrator 21.0.0, SVG Export Plug-In . SVG Version: 6.00 Build 0)  -->
<svg version="1.1" id="Isolation_Mode" xmlns="http://www.w3.org/2000/svg" xmlns:xlink="http://www.w3.org/1999/xlink" x="0px"
	 y="0px" viewBox="0 0 15 32.4" style="enable-background:new 0 0 15 32.4;" xml:space="preserve">
<style type="text/css">
	.st0{opacity:0.3;}
	.st1{fill:#79B7EA;}
</style>
<g class="st0">
	<path class="st1" d="M15,6.7c0,1.2-0.3,2.3-0.9,3.2c-0.7,1-1.6,1.5-2.8,1.5c-1.7,0-2.5-0.9-2.6-2.7C8.5,7.7,9,6.9,9.9,6.3l1.3-0.8
		C11.7,5.2,12,4.7,12,4c0-0.9-0.3-1.6-1-2.1S9.5,1.3,8.5,1.3c-1.2,0-2.2,0.4-3.1,1.3c-0.9,0.8-1.3,1.8-1.3,3c0,0.9,0.2,2.1,0.9,3.2
		l1.9,3.8c1.6,3.1,2.4,6,2.4,8.7c0,0.6,0,1-0.1,1.3c0,0.1-0.1,0.8-0.2,2.1H8.1c0-0.2,0-0.6,0-1.1c0-0.6,0-0.9,0-1.3
		c0-0.8-0.1-1.4-0.2-2c-0.3-0.7-0.6-1.2-1-1.5L3.8,16C1.3,13.7,0,11.2,0,8.3c0-2.2,0.8-4.2,2.4-5.8S5.8,0,8.1,0
		c1.9,0,3.6,0.6,4.9,1.9C14.3,3.2,15,4.8,15,6.7z M10.7,29.7c0,0.8-0.2,1.4-0.8,1.9c-0.5,0.5-1.2,0.8-2,0.8c-0.7,0-1.3-0.2-1.9-0.8
		c-0.4-0.5-0.6-1.1-0.7-1.9C5.2,29,5.4,28.3,6,27.8C6.5,27.2,7.2,27,7.9,27c0.8,0,1.4,0.2,2,0.8C10.4,28.3,10.7,28.9,10.7,29.7z"/>
</g>
</svg>
