<?xml version="1.0" encoding="utf-8"?>
<!-- Generator: Adobe Illustrator 21.0.0, SVG Export Plug-In . SVG Version: 6.00 Build 0)  -->
<svg version="1.1" id="Layer_1" xmlns="http://www.w3.org/2000/svg" xmlns:xlink="http://www.w3.org/1999/xlink" x="0px" y="0px"
	 viewBox="0 0 124.8 28.6" style="enable-background:new 0 0 124.8 28.6;" xml:space="preserve">
<style type="text/css">
	.st0{fill:#FFFFFF;}
</style>
<g>
	<g>
		<g>
			<path class="st0" d="M19.1,21.1c0,1.9-0.8,3.2-2.5,4c-2.8,1.3-6,2-9.6,2c-1.8,0-3.2-0.2-4.4-0.6C0.9,25.8,0,24.8,0,23.3
				c0-0.7,0.4-1.9,1.3-3.7l0.4,0.1C1.3,21,1,21.8,1,22c0,2,2.1,3,6.4,3c2.6,0,5.2-0.4,7.7-1.2c2.1-0.7,3.1-1.2,3.1-1.7
				c0-0.2-0.2-0.7-0.6-1.4c-0.3-0.6-0.4-1-0.4-1.1l0.8-1.5C18.8,19.3,19.1,20.3,19.1,21.1z M11.8,17.6l-1.1,1.7L9.1,18l-1,1.4
				l-1.5-1.1l1-1.7l1.6,1.2l0.9-1.4L11.8,17.6z"/>
			<path class="st0" d="M28,26.4h-2.2c-1.7,0-2.7-1-2.9-2.9c-0.3-2.5-0.7-6.2-1.1-11c0.4-0.5,0.7-0.9,1.1-1.3l1,11.3
				c0.1,0.9,0.3,1.5,0.8,1.8c0.3,0.2,0.8,0.4,1.6,0.4c0.2,0,0.4,0,0.8,0c0.4,0,0.7,0,0.9,0V26.4z"/>
			<path class="st0" d="M37.4,26.4h-2.1c-1.3,0-2.5-0.4-3.7-1.2c-0.4,0.3-1,0.6-1.7,0.8c-0.7,0.2-1.3,0.4-1.8,0.4h-1.1v-1.9
				c1.7,0,2.8-0.1,3.1-0.4c0,0-0.1-0.2-0.2-0.4s-0.1-0.4-0.1-0.4c0-0.8,0.4-1.9,1.3-3.2c0.9-1.4,1.7-2.1,2.5-2.1
				c0.5,0,0.9,0.4,1.3,1.2c0.2,0.7,0.4,1.3,0.4,1.9c0,0.7-0.4,1.7-1.3,2.9c0.5,0.3,1.1,0.5,1.7,0.5c-0.1,0,0.5,0,1.9,0V26.4z
				 M34,21.7c0-0.4-0.1-0.7-0.3-1c-0.2-0.3-0.5-0.4-0.9-0.4c-0.4,0-0.8,0.1-1.3,0.4c-0.5,0.3-0.7,0.6-0.7,0.9c0,0.6,0.4,1.1,1.3,1.5
				c0.4-0.2,0.7-0.4,1.1-0.6C33.8,22.2,34,21.9,34,21.7z M34.6,13.5l-1.2,1.7L31.9,14l1.1-1.7L34.6,13.5z"/>
			<path class="st0" d="M48.4,10.2c0,1.6-0.5,2.4-1.5,2.4c-0.3,0-0.6-0.1-0.9-0.3c-0.1,0.3-0.2,0.6-0.5,0.8
				c-0.3,0.2-0.6,0.4-0.9,0.4c-0.8,0-1.1-0.5-1.1-1.6c0-0.2,0.1-0.7,0.3-1.3l0.3-0.1c0,1,0.2,1.5,0.5,1.5c0.6,0,1-0.8,1.3-2.3
				l0.3-0.1c0.2,0.9,0.4,1.4,0.8,1.4c0.6,0,1-0.7,1-2l0.3-0.2C48.3,9.2,48.4,9.7,48.4,10.2z"/>
			<path class="st0" d="M48.8,13c0,0.6-0.2,1-0.5,1.2L44,16.7c0-0.6,0.3-1.1,0.9-1.4L48.8,13z"/>
			<path class="st0" d="M42.1,26.4c-1.1,0-1.8-0.6-2.2-1.8c-0.9,1.2-1.7,1.8-2.4,1.8h-1.1v-1.9c1.3,0,2.1-0.1,2.5-0.3
				s0.7-0.5,0.8-0.7c0.1-0.2,0.1-0.6,0.1-1.1l0.2,0c0.1,0.6,0.4,1.1,0.8,1.7c0.3,0.4,0.9,0.5,1.8,0.6l-0.1,0c0,0,0,0,0.1,0
				s0.1,0,0.1,0v1.9H42.1z"/>
			<path class="st0" d="M42.1,24.5h1.7c1-1.3,2.2-2.6,3.5-3.7c1.8-1.5,3.2-2.2,4.3-2.2c0.7,0,1.2,0.2,1.6,0.7
				c0.4,0.5,0.6,1.1,0.6,1.7c0,0.9-0.3,1.7-1,2.3c-0.5,0.4-1.2,0.8-2.3,1.2c2.4,0,4.3,0,5.9,0v1.9h-13c-0.2,0.3-0.5,0.8-1,1.5
				l-0.3-0.2c0.2-0.5,0.4-0.9,0.6-1.3h-0.8V24.5z M52.6,22.1c0-0.7-0.6-1.1-1.9-1.1c-1.3,0-2.5,0.3-3.5,1c-0.6,0.4-1.5,1.3-2.7,2.5
				c2.7,0,5.1-0.6,7.3-1.7C52.3,22.5,52.6,22.3,52.6,22.1z"/>
			<path class="st0" d="M57.8,11.9c-0.2-0.2-0.4-0.5-0.6-0.9c0.3-0.7,0.7-1.3,1.2-1.8c0.1,0.5,0.3,1,0.7,1.4
				c0.4,0.4,0.8,0.6,1.4,0.7l-1,1.8L59,12.8c-0.1,1-0.1,1.5-0.1,1.6c0,0.7,0.1,1.9,0.4,3.3c0.3,1.5,0.4,2.6,0.4,3.3
				c0,3.6-1.1,5.4-3.3,5.4h-1.1v-1.9c1,0,1.8-0.1,2.3-0.2c0.9-0.3,1.4-0.8,1.4-1.6c0-0.3-0.1-1.3-0.4-2.9c-0.2-1.1-0.4-2.2-0.5-3.3
				c-0.2-1.4-0.3-2.4-0.3-3.2c0-0.1,0-0.3,0-0.6c0-0.3,0-0.5,0-0.6V11.9z"/>
			<path class="st0" d="M64.2,22.5c0,0.9-0.3,2.2-0.8,3.9l-0.3-0.1c0.1-0.6,0.1-1.1,0.1-1.7c0-1.1-0.1-2.6-0.4-4.4
				c-0.2-1.4-0.4-2.9-0.6-4.3c-0.1-0.9-0.2-1.4-0.2-1.5c0-0.8,0.1-1.4,0.3-1.8c0.3-0.5,0.5-1,0.8-1.5c0,1.5,0.3,4.5,0.8,9
				C64.1,21,64.2,21.8,64.2,22.5z"/>
			<path class="st0" d="M85.1,6.7L85,8c-0.2-0.1-0.6-0.3-1.1-0.7c-1.2,1.3-2.1,2-2.8,2c-0.1,0-0.4-0.1-0.8-0.2
				c0.9-0.5,1.9-1.2,3-2.2c-0.6-0.4-0.9-0.8-0.9-1.3c0-0.5,0.2-1,0.5-1.5c0.3-0.6,0.7-0.8,1.1-0.8c0.6,0,1,0.4,1,1.2
				c0,0.5-0.1,1-0.4,1.7C84.7,6.3,84.9,6.5,85.1,6.7z M84.4,5.4c0-0.6-0.3-0.9-0.8-0.9c-0.2,0-0.3,0.1-0.3,0.3c0,0.3,0.3,0.6,0.9,1
				C84.4,5.7,84.4,5.6,84.4,5.4z"/>
			<path class="st0" d="M95.5,26.4h-2.2c-1.4,0-2.5-0.3-3.3-0.9c-2.5,1.1-4.4,1.8-5.7,2.2c-2,0.6-4,0.9-5.9,0.9
				c-1.6,0-2.9-0.3-4-0.8c-1.4-0.7-2.1-1.8-2.1-3.2c0-0.7,0.1-1.3,0.4-1.9c0-0.1,0.3-0.7,0.9-1.7l0.2,0.2c-0.4,1.2-0.6,1.9-0.6,2.3
				c0,1.2,0.7,2.1,2.2,2.6c1,0.4,2.2,0.5,3.6,0.5c2.7,0,5.7-0.7,8.9-2.1c-0.4-0.4-0.6-0.8-0.6-1.1c0-0.7,0.3-1.7,1-3
				c0.7-1.4,1.4-2.2,2-2.2c0.5,0,0.9,0.4,1.3,1.2c0.4,0.7,0.6,1.3,0.6,1.9c0,1-0.3,2-0.8,2.9c0.3,0.2,0.7,0.3,1.2,0.4
				c0.4,0,0.8,0,1.4,0c0.9,0,1.3-0.1,1.3-0.1V26.4z M89.6,14.1l-0.9,1.7l-1.6-1L88,13L89.6,14.1z M91.6,22c0-0.3-0.2-0.6-0.5-1.1
				s-0.6-0.7-0.9-0.7c-0.3,0-0.7,0.3-1.1,0.8c-0.4,0.5-0.7,0.9-0.7,1.3c0,0.3,0.2,0.5,0.5,0.8c0.3,0.2,0.6,0.4,0.9,0.5
				C91,22.9,91.6,22.4,91.6,22z"/>
			<path class="st0" d="M99.9,8.9c0,1.6-0.5,2.4-1.5,2.4c-0.3,0-0.6-0.1-0.9-0.3c-0.1,0.3-0.2,0.6-0.5,0.8c-0.3,0.2-0.6,0.4-0.9,0.4
				c-0.8,0-1.1-0.5-1.1-1.6c0-0.2,0.1-0.7,0.3-1.3l0.3-0.1c0,1,0.2,1.5,0.5,1.5c0.6,0,1-0.8,1.3-2.3l0.3-0.1
				c0.2,0.9,0.4,1.4,0.8,1.4c0.6,0,1-0.7,1-2l0.3-0.2C99.8,8,99.9,8.4,99.9,8.9z"/>
			<path class="st0" d="M100.3,11.2c0,0.6-0.2,1-0.5,1.2l-4.2,2.4c0-0.6,0.3-1.1,0.9-1.4L100.3,11.2z"/>
			<path class="st0" d="M101.4,26.4h-2.2c-0.3,0-0.6-0.2-0.9-0.6c-0.3-0.4-0.4-0.8-0.4-1.1c-0.6,1.2-1.4,1.8-2.4,1.8h-1.1v-1.9
				c1.3,0,2-0.1,2.4-0.3c0.4-0.2,0.7-0.5,0.8-0.8c0.1-0.1,0.1-0.5,0.1-1.1l0.2,0c0.2,1,0.6,1.6,1.2,1.9c0.4,0.2,1.2,0.3,2.3,0.3
				V26.4z M99,18l-1,1.6l-1.5-1l1-1.7L99,18z"/>
			<path class="st0" d="M112.5,9.9c0,0.6-0.2,1-0.5,1.2l-4.3,2.4c0-0.6,0.3-1,0.9-1.4L112.5,9.9z"/>
			<path class="st0" d="M106,26.4c-1.1,0-1.8-0.6-2.2-1.8c-0.9,1.2-1.7,1.8-2.4,1.8h-1.1v-1.9c1.3,0,2.1-0.1,2.5-0.3
				s0.7-0.5,0.8-0.7c0.1-0.2,0.1-0.6,0.1-1.1l0.2,0c0.1,0.6,0.4,1.1,0.8,1.7c0.3,0.4,0.9,0.5,1.8,0.6l-0.1,0c0,0,0,0,0.1,0
				s0.1,0,0.1,0v1.9H106z"/>
			<path class="st0" d="M106,24.5h2.3c1.6-2,3-3.4,4.3-4.3c1.5-1,2.8-1.6,3.8-1.6c0.6,0,1.1,0.3,1.5,0.8c0.3,0.5,0.5,1,0.5,1.7
				c0,2-1.3,3.4-4,4.3c-1.8,0.6-4,0.9-6.5,0.9c-0.1,0.3-0.3,0.6-0.6,0.9c-0.3,0.4-0.6,0.7-0.6,0.9l-0.4-0.3l1-1.5H106V24.5z
				 M117.2,22.1c0-0.7-0.5-1-1.5-1c-1.4,0-2.7,0.3-3.7,0.9c-0.8,0.4-1.7,1.3-2.9,2.5h1.1c1.4,0,3-0.3,4.6-0.9
				C116.3,23.1,117.2,22.6,117.2,22.1z"/>
			<path class="st0" d="M124.8,3.3l-0.1,1.4c-0.2-0.1-0.6-0.3-1.1-0.7c-1.2,1.3-2.1,2-2.8,2c-0.1,0-0.4-0.1-0.8-0.2
				c0.9-0.5,1.9-1.2,3-2.2c-0.6-0.4-0.9-0.8-0.9-1.3c0-0.5,0.2-1,0.5-1.5c0.3-0.6,0.7-0.8,1.1-0.8c0.6,0,1,0.4,1,1.2
				c0,0.5-0.1,1-0.4,1.7C124.3,3,124.5,3.1,124.8,3.3z M124.1,2.1c0-0.6-0.3-0.9-0.8-0.9c-0.2,0-0.3,0.1-0.3,0.3
				c0,0.3,0.3,0.6,0.9,1C124,2.4,124.1,2.2,124.1,2.1z"/>
			<path class="st0" d="M124.6,9c-0.1,0.5-0.3,0.8-0.5,0.9l-3.8,1.1c0.1-0.4,0.2-0.6,0.5-0.8c0.1-0.1,0.4-0.2,0.9-0.4
				c-0.6-0.3-0.9-0.6-0.9-1.1c0-0.1,0.1-0.3,0.2-0.6c0.3-0.5,0.7-0.9,1.1-1.2c0.4-0.3,0.8-0.5,1.1-0.5c0.5,0,0.7,0.3,0.7,0.8
				c0,0.3-0.1,0.6-0.4,0.9c-0.4-0.3-0.8-0.4-1.1-0.4c-0.3,0-0.6,0.1-0.9,0.4c0.8,0.7,1.4,1.1,2,1.1C123.8,9.2,124.2,9.2,124.6,9z"/>
			<path class="st0" d="M123.4,22.5c0,0.9-0.3,2.2-0.8,3.9l-0.3-0.1c0.1-0.6,0.1-1.1,0.1-1.7c0-1.1-0.1-2.6-0.4-4.4
				c-0.2-1.4-0.4-2.9-0.6-4.3c-0.1-0.9-0.2-1.4-0.2-1.5c0-0.8,0.1-1.4,0.3-1.8c0.3-0.5,0.5-1,0.8-1.5c0,1.5,0.3,4.5,0.8,9
				C123.3,21,123.4,21.8,123.4,22.5z"/>
		</g>
	</g>
</g>
</svg>
