<?xml version="1.0" encoding="utf-8"?>
<!-- Generator: Adobe Illustrator 16.0.0, SVG Export Plug-In . SVG Version: 6.00 Build 0)  -->
<!DOCTYPE svg PUBLIC "-//W3C//DTD SVG 1.1//EN" "http://www.w3.org/Graphics/SVG/1.1/DTD/svg11.dtd">
<svg version="1.1" id="Layer_1" xmlns="http://www.w3.org/2000/svg" xmlns:xlink="http://www.w3.org/1999/xlink" x="0px" y="0px"
	 width="48px" height="48px" viewBox="0 0 48 48" enable-background="new 0 0 48 48" xml:space="preserve">
<g>
	<path fill="#EE717B" d="M1,42.75c0,1.657,1.343,3,3,3h39.834c1.657,0,3-1.343,3-3V5.303c0-1.657-1.343-3-3-3H4
		c-1.657,0-3,1.343-3,3V42.75z"/>
</g>
<g>
	<g>
		<path fill="#FFFFFF" d="M21.849,29.766c0-3.374,2.831-6.252,6.788-7.365v-9.403c0-0.579-0.468-1.046-1.044-1.046l-17.818-0.01
			c0-0.717,1.08-1.082,1.08-1.082h17.781c1.113,0,1.079,0.98,1.079,0.98v10.304c0.536-0.103,1.083-0.176,1.647-0.213V10.161
			c0.001-0.783-0.979-0.981-0.979-0.981H10.657c-2.94,0-2.942,2.724-2.942,2.724v25.108c0,0.577,0.467,1.045,1.048,1.045h15.983
			c0.099-0.218,0.24-0.423,0.428-0.591c0.565-0.515,0.905-0.929,1.111-1.243C23.522,34.775,21.849,32.375,21.849,29.766z
			 M12.857,15.837h10.798v2.043H12.857V15.837z"/>
		<path fill="#FFFFFF" d="M32.751,22.944c-5.105,0-9.261,3.01-9.261,6.713c0,2.465,1.807,4.678,4.743,5.859
			c-0.05,0.511-0.386,1.415-1.801,2.7c-0.226,0.206-0.28,0.543-0.135,0.81c0.121,0.217,0.345,0.347,0.582,0.347
			c0.06,0,0.118-0.01,0.175-0.024c0.17-0.045,4.073-1.122,6.531-3.01c2.219-0.145,4.282-0.855,5.831-2.015
			c1.673-1.252,2.594-2.908,2.594-4.666C42.011,25.955,37.856,22.944,32.751,22.944z M33.307,35.022
			c-0.143,0.006-0.276,0.057-0.386,0.147c-1.123,0.905-2.684,1.63-3.961,2.129c0.613-1.007,0.675-1.808,0.566-2.373
			c-0.043-0.23-0.207-0.422-0.431-0.5c-2.635-0.94-4.275-2.768-4.275-4.768c0-2.969,3.558-5.385,7.931-5.385
			c4.371,0,7.928,2.416,7.928,5.385C40.679,32.469,37.438,34.821,33.307,35.022z"/>
	</g>
</g>
</svg>
