<?xml version="1.0" encoding="utf-8"?>
<!-- Generator: Adobe Illustrator 19.2.0, SVG Export Plug-In . SVG Version: 6.00 Build 0)  -->
<svg version="1.1" id="Isolation_Mode" xmlns="http://www.w3.org/2000/svg" xmlns:xlink="http://www.w3.org/1999/xlink" x="0px"
	 y="0px" viewBox="0 0 50.5 119.1" style="enable-background:new 0 0 50.5 119.1;" xml:space="preserve">
<style type="text/css">
	.st0{clip-path:url(#SVGID_2_);}
	.st1{opacity:0.2;fill:#23211D;enable-background:new    ;}
	.st2{opacity:0.2;}
	.st3{fill:#23211D;}
	.st4{opacity:0.5;fill:#23211D;enable-background:new    ;}
	.st5{clip-path:url(#SVGID_4_);}
	.st6{fill:#EFA759;}
	.st7{fill:#C17E34;}
	.st8{fill:#567C7D;}
	.st9{opacity:0.5;fill:#567C7D;enable-background:new    ;}
	.st10{fill:#6D3B40;}
	.st11{opacity:0.5;fill:#6D3B40;enable-background:new    ;}
	.st12{fill:#FFA300;}
</style>
<g>
	<g>
		<defs>
			<rect id="SVGID_1_" x="-20.9" y="-48.9" width="93" height="168"/>
		</defs>
		<clipPath id="SVGID_2_">
			<use xlink:href="#SVGID_1_"  style="overflow:visible;"/>
		</clipPath>
		<g class="st0">
			<path class="st1" d="M38.6,69.9c0.4,0.8-0.9,56.4-0.8,57.2s-0.1,3.4-3,4.5c0,0-3.1,1.5-4.1-5l-6.5-55.7c0,0,8.8-3.5,9.7-3.1
				C34.9,68.2,38.6,69.9,38.6,69.9z"/>
			<g class="st2">
				<path class="st3" d="M40.7,73c0,0-11.4,3.6-17.9,0.8l1-23.7l11.5-1.1L40.7,73z"/>
				<path class="st4" d="M38.7,73.5c-2.2,0.6-6,1.3-9.7,1.3c-0.5-6.6-1.8-24.6-1.7-25.1l0.1,0l6.1-0.6L38.7,73.5z"/>
				<path class="st3" d="M26.4,60.9c0,0.7-0.1,1.3-0.3,1.9c-0.2,0.4-0.5,0.8-0.9,0.8c-0.5,0-0.9-0.5-1-1c-0.4-1.2-0.2-2.6,0-3.8
					c0.1-0.6,0.3-2.4,1.2-2.4c1,0.1,1,3.5,1,4.2C26.4,60.8,26.4,60.8,26.4,60.9z"/>
				<path class="st3" d="M24,69.1c0.2,0.2,0.4,0.4,0.6,0.4c1.7,0.2,1.9-2.9,0.5-3.4C23.6,65.6,23.3,68.1,24,69.1z"/>
			</g>
			<path class="st1" d="M11.4,25.4c1.7-6.8,5.4-21.2-3.9-24.3c12.4-1,23.8,5.5,31.7,15c5.9,7.1,9,19,4.7,27.4
				C38.1,54.7,25.4,57.1,15.8,49C9.6,43.8,9.7,32.5,11.4,25.4z"/>
			<g class="st2">
				<path class="st3" d="M5.5,15.8C1,16.3-0.3,27.6,5,28c1.5,0.1,2.9-1,3.5-2.4c1-2.3,1.4-9.5-2.4-9.9C5.9,15.7,5.7,15.7,5.5,15.8z"
					/>
				
					<ellipse transform="matrix(0.2782 -0.9605 0.9605 0.2782 -16.1027 18.2127)" class="st3" cx="4.1" cy="19.8" rx="3.3" ry="1.5"/>
			</g>
			<g class="st2">
				<path class="st3" d="M1.1,42c1.4-3.4,9.1,0,3.9,3.5C1.5,47.9-0.3,45.3,1.1,42z"/>
				<ellipse transform="matrix(0.948 -0.3183 0.3183 0.948 -13.0412 3.1015)" class="st3" cx="3" cy="41.5" rx="0.8" ry="0.6"/>
			</g>
		</g>
	</g>
	<g>
		<defs>
			<rect id="SVGID_3_" x="-20.9" y="-48.9" width="93" height="168"/>
		</defs>
		<clipPath id="SVGID_4_">
			<use xlink:href="#SVGID_3_"  style="overflow:visible;"/>
		</clipPath>
		<g class="st5">
			<path class="st6" d="M42.2,69.7c0.4,0.7-0.9,56.4-0.8,57.2c0.2,0.8-0.1,3.4-3,4.5c0,0-3.1,1.5-4.1-5l-6.5-55.7
				c0,0,8.8-3.5,9.7-3.1S42.2,69.7,42.2,69.7z"/>
			<path class="st7" d="M27.9,71.3c1.5-0.5,7.9-2.5,8.6-2.4c0.4,0.1,1.6-0.3,2.7-0.6c1.4,0.6,2.9,1.4,2.9,1.4
				c0.1,0.1,0.1,2.4,0.1,5.9c-2.5,0.9-7.7,2.2-13.7,0.8L27.9,71.3z"/>
			<g>
				<path class="st8" d="M44.2,72.8c0,0-11.4,3.6-17.9,0.8l1-23.7l11.5-1.1L44.2,72.8z"/>
				<path class="st9" d="M42.2,73.3c-2.2,0.6-6,1.3-9.7,1.3c-0.5-6.6-1.8-24.6-1.7-25.1l0.1,0l6.1-0.6L42.2,73.3z"/>
				<path class="st8" d="M30,60.7c0,0.7-0.1,1.3-0.3,1.9c-0.2,0.4-0.5,0.8-0.9,0.8c-0.5,0-0.9-0.5-1-1c-0.4-1.2-0.2-2.6,0-3.8
					c0.1-0.6,0.3-2.4,1.2-2.4c1,0.1,1,3.5,1,4.2C30,60.5,30,60.6,30,60.7z"/>
				<path class="st8" d="M27.6,68.9c0.2,0.2,0.4,0.4,0.6,0.4c1.7,0.2,1.9-2.9,0.5-3.4C27.2,65.4,26.9,67.9,27.6,68.9z"/>
			</g>
			<path class="st10" d="M15,25.2c1.7-6.8,5.4-21.2-3.9-24.3c12.4-1,23.8,5.5,31.7,15c5.9,7.1,9,19,4.7,27.4
				c-5.7,11.2-18.5,13.6-28.1,5.5C13.2,43.5,13.2,32.3,15,25.2z"/>
			<path class="st11" d="M21.4,26.9c1.3-5.3,4.2-16.4-3-18.9c9.6-0.8,18.5,4.3,24.6,11.6c4.6,5.5,7,14.7,3.6,21.3
				c-4.4,8.7-14.4,10.5-21.8,4.3C20,41.2,20,32.4,21.4,26.9z"/>
			<path class="st11" d="M19.1,33.3c-0.2,0.5-0.3,1-0.7,1.4c-0.7,0.8-2.1,0.5-2.8-0.2c-0.3-0.3-0.3-0.7-0.4-1
				c-0.2-1.7-0.2-9.2,2.9-8.7C20.9,25.2,19.6,31.7,19.1,33.3z"/>
			<g>
				<path class="st12" d="M11.1,0.9c12.4-1,23.8,5.5,31.7,15c1.6,1.9,3,4.2,4.1,6.7c-2.8,4-6.4-2.7-9.3-1.8c-1.2,0.4-2,1.6-2.3,2.8
					c-0.8,3.2-0.9,7.6-5.6,6.6c-4.5-1-2.5-6.5-5.9-8.4c-3.4-2.1-4.8,2.8-8.4,1.2C17.3,15.6,19.4,3.7,11.1,0.9z"/>
				<path class="st12" d="M45.8,23.6c-2.6,1.4-5.7-3.6-8.2-2.8c-1.2,0.4-2,1.6-2.3,2.8c-0.8,3.2-0.9,7.6-5.6,6.6
					c-4.5-1-2.5-6.5-5.9-8.4c-0.5-0.3-1-0.5-1.5-0.5c1.2-9.9-1.8-17.6-1.3-17.5C37.4,7.2,44.8,21.6,45.8,23.6z"/>
			</g>
			<g>
				<path class="st12" d="M9.1,15.5C4.6,16,3.2,27.3,8.6,27.8c1.5,0.1,2.9-1,3.5-2.4c1-2.3,1.4-9.5-2.4-9.9
					C9.5,15.5,9.3,15.5,9.1,15.5z"/>
				<ellipse transform="matrix(0.2783 -0.9605 0.9605 0.2783 -13.31 21.4786)" class="st12" cx="7.6" cy="19.6" rx="3.3" ry="1.5"/>
			</g>
			<g>
				<path class="st12" d="M4.7,41.8c1.4-3.4,9.1,0,3.9,3.5C5.1,47.7,3.3,45.1,4.7,41.8z"/>
				
					<ellipse transform="matrix(0.9479 -0.3185 0.3185 0.9479 -12.7926 4.2316)" class="st12" cx="6.5" cy="41.2" rx="0.8" ry="0.6"/>
			</g>
		</g>
	</g>
</g>
</svg>
