<?xml version="1.0" encoding="utf-8"?>
<!-- Generator: Adobe Illustrator 19.2.0, SVG Export Plug-In . SVG Version: 6.00 Build 0)  -->
<svg version="1.1" id="Elements" xmlns="http://www.w3.org/2000/svg" xmlns:xlink="http://www.w3.org/1999/xlink" x="0px" y="0px"
	 viewBox="0 0 89.6 98.8" style="enable-background:new 0 0 89.6 98.8;" xml:space="preserve">
<style type="text/css">
	.st0{opacity:0.2;fill:#020202;enable-background:new    ;}
	.st1{fill:url(#SVGID_1_);}
	.st2{fill:#FFFFFF;}
	.st3{fill:#DBF84D;}
	.st4{fill:#E8FF64;}
	.st5{fill:url(#SVGID_2_);}
	.st6{fill:url(#SVGID_3_);}
	.st7{fill:#677B0C;}
	.st8{fill:#697D0D;}
	.st9{fill:#6B7F0D;}
	.st10{fill:#6D820E;}
	.st11{fill:#6E840E;}
	.st12{fill:#70860F;}
	.st13{fill:#72880F;}
	.st14{fill:#748B10;}
	.st15{fill:#768D10;}
	.st16{fill:#788F11;}
	.st17{fill:#799111;}
	.st18{fill:#7B9412;}
	.st19{fill:#7D9612;}
	.st20{fill:#7F9813;}
	.st21{fill:#819B14;}
	.st22{fill:#849D15;}
	.st23{fill:#86A016;}
	.st24{fill:#88A216;}
	.st25{fill:#8BA517;}
	.st26{fill:#8DA718;}
	.st27{fill:#8FAA19;}
	.st28{fill:#91AC1A;}
	.st29{fill:#94AF1B;}
	.st30{fill:#96B11B;}
	.st31{fill:#98B41C;}
	.st32{fill:#9BB61D;}
	.st33{fill:#9DB91E;}
	.st34{fill:#7D9411;}
	.st35{fill:#A9C521;}
	.st36{opacity:0.1;fill:#020202;enable-background:new    ;}
</style>
<symbol  id="Button_Square_Green_2" viewBox="-44.8 -46.5 89.6 93">
	<g id="Button_x5F_small_x5F_red_1_">
		<g>
			<g>
				<path class="st0" d="M12.8-46c-8.5-0.6-17.1-0.6-25.7,0c-14,1.3-27.9,15.5-30.2,30c-1.2,9.4-1.9,19-1.8,28.7
					c0.4,16.2,14.9,31.8,30.2,33.3c9.8,0.7,19.6,0.7,29.3,0c15.3-1.5,29.8-17.1,30.2-33.3c0-9.7-0.6-19.3-1.8-28.7
					C40.8-30.5,26.9-44.7,12.8-46z"/>
			</g>
			<g>
				<radialGradient id="SVGID_1_" cx="-5.5886" cy="49.4196" r="55.5994" gradientUnits="userSpaceOnUse">
					<stop  offset="0" style="stop-color:#BFE032"/>
					<stop  offset="1" style="stop-color:#A7C723"/>
				</radialGradient>
				<path class="st1" d="M12.7-43.2c-8.1-0.6-16.2-0.6-24.4,0C-25-41.9-38.1-28.4-40.3-14.7c-1.2,8.9-1.8,18-1.7,27.2
					c0.3,15.4,14.1,30.2,28.6,31.6c9.3,0.7,18.6,0.7,27.8,0C28.9,42.7,42.7,27.9,43,12.5c0-9.2-0.6-18.3-1.7-27.2
					C39.2-28.4,26-41.9,12.7-43.2z"/>
			</g>
			<g>
				<path class="st2" d="M-20.6,34.1c0.4-0.7-0.1-1.6-1-2.1c-0.9-0.5-1.9-0.4-2.4,0.2c-0.4,0.6,0,1.7,0.9,2.2
					C-22.1,35-21,34.8-20.6,34.1z"/>
				<path class="st2" d="M-24.5,31.8c0.4-0.6-1.1-2.2-2.9-4c-1.9-1.8-3.5-3.2-4-2.8c-0.5,0.4,0.3,2.6,2.3,4.6
					C-27.1,31.6-24.9,32.4-24.5,31.8z"/>
			</g>
			<path class="st3" d="M-13.4,39.6c9.3,0.7,18.6,0.7,27.8,0c14.3-1.4,27.9-15.9,28.6-31c0,1.3,0,2.6,0,3.9
				c-0.3,15.4-14.1,30.2-28.6,31.6c-9.3,0.7-18.6,0.7-27.8,0C-27.8,42.7-41.6,27.9-42,12.5c0-1.3,0-2.6,0-3.9
				C-41.3,23.8-27.7,38.3-13.4,39.6z"/>
			<g>
				<path class="st4" d="M-21.3,37.5c0,0,0.6,0.4,1.8,0.9c1.2,0.5,2.9,1.2,5.2,1.6c1.1,0.2,2.3,0.3,3.6,0.4c1.3,0.1,2.6,0.2,4,0.3
					C-5.4,40.9-4,41-2.5,41c1.5,0,2.9,0.1,4.4,0.1c1.5,0,3-0.1,4.4-0.1c1.5,0,2.9-0.1,4.3-0.3c1.4-0.1,2.7-0.2,4-0.4
					c1.3-0.2,2.5-0.4,3.6-0.8c2.2-0.6,3.8-1.5,5-2.1c0.6-0.3,1-0.6,1.3-0.8c0.3-0.2,0.4-0.3,0.4-0.3s-0.7,0.3-1.9,0.7
					c-1.2,0.4-2.9,1-5.1,1.4c-1.1,0.2-2.2,0.4-3.5,0.4c-1.3,0-2.6,0.1-3.9,0.1c-1.4,0-2.8,0.1-4.2,0.1c-1.4,0-2.9,0-4.4,0.1
					c-2.9,0-5.9,0-8.6,0c-1.4,0-2.7-0.1-4-0.1c-1.3-0.1-2.5,0-3.5-0.1c-2.2-0.2-3.9-0.6-5.2-0.9C-20.6,37.8-21.3,37.5-21.3,37.5z"/>
			</g>
			<linearGradient id="SVGID_2_" gradientUnits="userSpaceOnUse" x1="0.5369" y1="-64.389" x2="0.5369" y2="32.2182">
				<stop  offset="0" style="stop-color:#89A316"/>
				<stop  offset="1" style="stop-color:#A4C319"/>
			</linearGradient>
			<path class="st5" d="M0.5,8.7c-16,0-30.5-5.9-41.6-15.7c0.2-2.6,0.5-5.2,0.9-7.8c2.1-13.7,15.3-27.2,28.6-28.5
				c8.1-0.6,16.2-0.6,24.4,0C26-41.9,39.2-28.4,41.3-14.7c0.3,2.6,0.6,5.2,0.9,7.8C31.1,2.8,16.5,8.7,0.5,8.7z"/>
			<g>
				<g>
					<linearGradient id="SVGID_3_" gradientUnits="userSpaceOnUse" x1="0.556" y1="13.5944" x2="0.556" y2="-35.2717">
						<stop  offset="0" style="stop-color:#B0D028"/>
						<stop  offset="1" style="stop-color:#BBDA2E"/>
					</linearGradient>
					<path class="st6" d="M11.2-28c-6.5-0.7-13.3-1-20.1-0.8c-11.7,0.6-22.8,11.3-23.7,22.4c-0.3,7-0.1,14,0.6,20.9
						c1.5,11.2,14.1,20.4,25.7,20.3c7.1-0.2,14-0.9,20.6-2C24.4,31,33.6,21,33.9,11.2c0-6-0.3-12.1-1.1-18.1
						C31.3-16.5,21.5-26.7,11.2-28z"/>
				</g>
				<g>
					<g>
						<path class="st7" d="M10.3-26.3C4.2-27-2.1-27.2-8.5-27c-11,0.6-21.4,10.7-22.1,21c-0.3,6.5-0.1,13.1,0.6,19.5
							C-28.7,24-16.9,32.6-6,32.5c6.6-0.2,13.1-0.9,19.3-1.9c9.4-1.7,18-11.1,18.3-20.3c0-5.6-0.3-11.3-1.1-17
							C29.1-15.7,20-25.1,10.3-26.3z"/>
						<path class="st8" d="M10.2-26.2c-6.1-0.7-12.3-0.9-18.7-0.7c-10.9,0.5-21.3,10.6-21.9,20.8c-0.4,6.5-0.2,13,0.6,19.4
							c1.3,10.3,13.1,19,23.8,18.8c6.6-0.2,13-0.8,19.2-1.9c9.3-1.6,18-11,18.1-20.1c0.1-5.6-0.3-11.2-1-16.8
							C28.9-15.6,19.9-25.1,10.2-26.2z"/>
						<path class="st9" d="M10.2-26.1C4.2-26.8-2-27-8.4-26.7c-10.8,0.5-21.1,10.5-21.7,20.6c-0.4,6.4-0.2,12.8,0.6,19.2
							c1.2,10.3,13,18.9,23.6,18.6c6.5-0.1,12.9-0.8,19-1.8c9.3-1.6,17.8-10.9,18-19.9c0.1-5.5-0.3-11.1-1-16.7
							C28.7-15.6,19.7-25,10.2-26.1z"/>
						<path class="st10" d="M10.1-26c-6-0.7-12.1-0.9-18.4-0.6c-10.7,0.5-20.9,10.4-21.5,20.4c-0.4,6.4-0.2,12.7,0.6,19
							C-28,23-16.4,31.5-5.8,31.3c6.5-0.1,12.8-0.8,18.8-1.8c9.2-1.6,17.7-10.8,17.8-19.7c0.1-5.5-0.3-11-1-16.6
							C28.4-15.6,19.5-24.9,10.1-26z"/>
						<path class="st11" d="M10-25.8c-5.9-0.7-12-0.9-18.2-0.6C-18.7-26-28.9-16.2-29.5-6.2c-0.4,6.3-0.2,12.6,0.6,18.8
							c1.2,10.1,12.7,18.5,23.2,18.3c6.4-0.1,12.7-0.7,18.7-1.8C22,27.6,30.5,18.5,30.6,9.6c0.1-5.5-0.3-10.9-1-16.4
							C28.2-15.5,19.4-24.8,10-25.8z"/>
						<path class="st12" d="M10-25.7c-5.8-0.7-11.9-0.9-18-0.6c-10.5,0.5-20.5,10.2-21.1,20.1c-0.4,6.2-0.2,12.5,0.5,18.7
							c1.2,10,12.6,18.4,22.9,18.2c6.4-0.1,12.6-0.7,18.5-1.7c9-1.5,17.4-10.6,17.6-19.4c0.1-5.4-0.3-10.9-1-16.3
							C28-15.5,19.2-24.6,10-25.7z"/>
						<path class="st13" d="M9.9-25.6C4.1-26.2-1.9-26.5-8-26.2c-10.4,0.5-20.3,10.1-20.9,19.9c-0.4,6.2-0.2,12.4,0.5,18.5
							c1.2,9.9,12.5,18.2,22.7,18c6.3-0.1,12.4-0.7,18.3-1.7C21.7,26.9,30,18,30.1,9.2c0.1-5.4-0.3-10.8-1-16.1
							C27.8-15.5,19.1-24.5,9.9-25.6z"/>
						<path class="st14" d="M9.8-25.5c-5.7-0.7-11.7-0.9-17.7-0.6C-18.2-25.6-28-16-28.6-6.4c-0.4,6.1-0.2,12.3,0.5,18.3
							c1.2,9.8,12.3,18.1,22.5,17.9c6.2-0.1,12.3-0.7,18.2-1.7c8.9-1.5,17.1-10.4,17.3-19c0.1-5.3-0.3-10.7-1-16
							C27.6-15.4,18.9-24.4,9.8-25.5z"/>
						<path class="st15" d="M9.7-25.3C4-26-1.8-26.2-7.8-25.9C-18-25.5-27.7-16-28.3-6.4c-0.4,6.1-0.2,12.1,0.5,18.1
							c1.2,9.7,12.2,17.9,22.3,17.7c6.2-0.1,12.2-0.7,18-1.7c8.8-1.5,17-10.3,17.1-18.9c0.1-5.3-0.3-10.6-1-15.9
							C27.3-15.4,18.8-24.3,9.7-25.3z"/>
						<path class="st16" d="M9.7-25.2C4-25.8-1.8-26-7.7-25.8C-17.8-25.3-27.4-16-28-6.5c-0.4,6-0.2,12,0.5,17.9
							c1.2,9.6,12.1,17.7,22,17.6c6.1-0.1,12.1-0.7,17.9-1.6c8.7-1.5,16.8-10.2,17-18.7c0.1-5.2-0.3-10.5-1-15.7
							C27.1-15.4,18.6-24.2,9.7-25.2z"/>
						<path class="st17" d="M9.6-25.1C4-25.7-1.8-25.9-7.6-25.6c-10,0.4-19.5,9.7-20.1,19.1c-0.4,5.9-0.2,11.9,0.5,17.8
							c1.1,9.5,12,17.6,21.8,17.4c6.1-0.1,12-0.6,17.7-1.6C21,25.6,29,17,29.2,8.5c0.1-5.2-0.3-10.4-1-15.6
							C26.9-15.3,18.5-24.1,9.6-25.1z"/>
						<path class="st18" d="M9.5-25C4-25.6-1.7-25.8-7.5-25.5c-9.9,0.4-19.3,9.6-19.9,18.9c-0.4,5.9-0.2,11.8,0.5,17.6
							c1.1,9.4,11.8,17.4,21.6,17.3c6-0.1,11.9-0.6,17.5-1.6c8.6-1.4,16.6-10,16.7-18.4C29,3.2,28.6-2,27.9-7.1
							C26.7-15.3,18.3-24,9.5-25z"/>
						<path class="st19" d="M9.4-24.8C4-25.5-1.7-25.6-7.4-25.4c-9.8,0.4-19.1,9.6-19.7,18.7c-0.4,5.8-0.2,11.7,0.5,17.4
							c1.1,9.3,11.7,17.2,21.4,17.1c6-0.1,11.8-0.6,17.4-1.5c8.5-1.4,16.4-9.9,16.5-18.2c0.1-5.1-0.3-10.2-1-15.3
							C26.4-15.3,18.2-23.9,9.4-24.8z"/>
						<path class="st20" d="M9.4-24.7c-5.4-0.5-11-0.7-16.7-0.5c-9.6,0.6-18.8,9.5-19.5,18.6c-0.3,5.8-0.1,11.5,0.5,17.2
							c1.2,9.2,11.6,17,21.2,17C0.7,27.4,6.5,26.9,12,26c8.4-1.5,16.2-9.8,16.4-18c0-5.1-0.3-10.1-1-15.2
							C26.2-15.2,18-23.6,9.4-24.7z"/>
						<path class="st21" d="M9-22.7c-5.1-0.6-10.4-0.7-15.7-0.5c-9.1,0.4-17.7,8.8-18.3,17.3c-0.3,5.4-0.2,10.7,0.5,16.1
							c1,8.6,10.9,15.9,19.9,15.8c5.5-0.1,11-0.5,16.2-1.4c7.9-1.3,15.3-9.1,15.4-16.8C27,3.1,26.6-1.6,26-6.4
							C24.8-13.9,17.1-21.8,9-22.7z"/>
						<path class="st22" d="M8.5-20.6c-4.8-0.5-9.7-0.7-14.7-0.4c-8.5,0.4-16.6,8.2-17.1,16c-0.3,5-0.2,10,0.4,14.9
							c1,8,10.2,14.8,18.6,14.7C0.9,24.4,6,24,10.9,23.2c7.5-1.2,14.4-8.5,14.5-15.6c0.1-4.4-0.3-8.8-0.9-13.1
							C23.4-12.5,16.2-19.8,8.5-20.6z"/>
						<path class="st23" d="M8.1-18.6C3.7-19.1-0.9-19.2-5.6-19c-7.9,0.4-15.4,7.5-15.9,14.7c-0.3,4.6-0.2,9.2,0.4,13.7
							C-20.2,16.8-11.7,23-3.8,23c4.8-0.1,9.6-0.5,14.2-1.2c7-1.1,13.4-7.8,13.5-14.3c0.1-4-0.3-8.1-0.8-12.1
							C22-11.1,15.3-17.8,8.1-18.6z"/>
						<path class="st24" d="M7.7-16.5C3.6-17-0.7-17.1-5-16.9c-7.3,0.3-14.3,6.9-14.7,13.5c-0.3,4.2-0.2,8.4,0.3,12.5
							c0.8,6.7,8.7,12.4,16,12.4c4.5,0,8.9-0.4,13.2-1.1c6.5-1,12.5-7.1,12.6-13.1c0.1-3.7-0.2-7.4-0.8-11.1
							C20.6-9.7,14.3-15.8,7.7-16.5z"/>
						<path class="st25" d="M7.3-14.5C3.5-14.9-0.4-15-4.4-14.8C-11.1-14.5-17.5-8.6-18-2.6c-0.3,3.8-0.2,7.6,0.3,11.3
							c0.7,6.1,8,11.3,14.8,11.2c4.2,0,8.2-0.4,12.1-1c6-0.9,11.5-6.5,11.6-11.9c0-3.3-0.2-6.7-0.7-10C19.2-8.3,13.4-13.9,7.3-14.5z
							"/>
						<path class="st26" d="M6.9-12.5c-3.5-0.3-7.1-0.4-10.7-0.3c-6.1,0.3-12,5.6-12.4,10.9c-0.2,3.4-0.2,6.8,0.3,10.1
							c0.7,5.4,7.3,10.2,13.5,10.1c3.8-0.1,7.5-0.3,11.1-0.8c5.5-0.8,10.6-5.8,10.7-10.7c0-3-0.2-6-0.7-9
							C17.8-6.9,12.5-11.9,6.9-12.5z"/>
						<path class="st27" d="M6.5-10.4c-3.2-0.3-6.4-0.4-9.7-0.2C-8.8-10.4-14.1-5.7-14.4-1c-0.2,3-0.1,6,0.2,9
							c0.6,4.8,6.6,9,12.2,8.9c3.4-0.1,6.8-0.3,10.1-0.7c5-0.7,9.7-5.1,9.7-9.5c0-2.7-0.2-5.3-0.6-8C16.4-5.5,11.5-9.9,6.5-10.4z"/>
						<path class="st28" d="M6.1-8.4C3.2-8.6,0.3-8.7-2.6-8.6c-5,0.2-9.7,4.3-10,8.4c-0.2,2.6-0.1,5.2,0.2,7.8
							c0.5,4.2,5.9,7.9,10.9,7.8c3.1-0.1,6.1-0.2,9.1-0.6c4.5-0.6,8.7-4.5,8.7-8.2c0-2.3-0.2-4.6-0.6-7C15-4.1,10.6-8,6.1-8.4z"/>
						<path class="st29" d="M5.6-6.3C3.1-6.5,0.6-6.6-2-6.5c-4.4,0.2-8.5,3.7-8.8,7.1c-0.2,2.2-0.1,4.4,0.1,6.6
							c0.5,3.6,5.2,6.7,9.6,6.6c2.8,0,5.5-0.2,8.1-0.5c4-0.5,7.8-3.8,7.8-7c0-2-0.2-4-0.5-5.9C13.6-2.7,9.7-6,5.6-6.3z"/>
						<path class="st30" d="M5.2-4.3C3-4.5,0.8-4.5-1.5-4.4c-3.8,0.2-7.4,3-7.7,5.8C-9.3,3.3-9.3,5.1-9,6.9c0.4,2.9,4.5,5.5,8.4,5.5
							c2.4,0,4.8-0.1,7.1-0.4c3.5-0.4,6.8-3.1,6.8-5.8c0-1.6-0.2-3.3-0.5-4.9C12.2-1.3,8.8-4,5.2-4.3z"/>
						<path class="st31" d="M4.8-2.2C2.9-2.4,1-2.4-0.9-2.3c-3.2,0.1-6.3,2.4-6.5,4.6c-0.1,1.4-0.1,2.8,0.1,4.2
							c0.3,2.3,3.8,4.3,7.1,4.3c2,0,4.1-0.1,6.1-0.3c3-0.3,5.9-2.5,5.9-4.6c0-1.3-0.2-2.6-0.4-3.9C10.8,0,7.8-2,4.8-2.2z"/>
						<path class="st32" d="M4.4-0.2c-1.5-0.1-3.1-0.1-4.7,0c-2.6,0.1-5.1,1.7-5.3,3.3c-0.1,1-0.1,2,0,3c0.2,1.7,3.1,3.1,5.8,3.2
							c1.7,0,3.4-0.1,5-0.2c2.5-0.2,4.9-1.8,4.9-3.3c0-0.9-0.2-1.9-0.4-2.8C9.4,1.4,6.9-0.1,4.4-0.2z"/>
						<path class="st33" d="M4,1.8c-1.2,0-2.5,0-3.7,0c-2,0.1-3.9,1.1-4.1,2c-0.1,0.6-0.1,1.2,0,1.9c0.2,1,2.4,2,4.5,2
							c1.4,0,2.7,0,4-0.1c2.1-0.1,4-1.1,4-2.1c0-0.6-0.1-1.2-0.3-1.8C8,2.8,6,1.9,4,1.8z"/>
					</g>
				</g>
			</g>
			<path class="st34" d="M13.3-36.8c-8.5-0.6-17.1-0.6-25.6,0C-24-35.7-35.6-25.7-40.3-13.9c0-0.3,0.1-0.5,0.1-0.8
				c2.1-13.7,15.3-27.2,28.6-28.5c8.1-0.6,16.2-0.6,24.4,0C26-41.9,39.2-28.4,41.3-14.7c0,0.3,0.1,0.5,0.1,0.8
				C36.6-25.7,25-35.7,13.3-36.8z"/>
			<g>
				<path class="st35" d="M27.5-31.2c0,0-0.2-0.1-0.5-0.4c-0.3-0.3-0.8-0.6-1.4-1.1c-1.2-0.9-3-2.1-5.4-3.1c-1.2-0.5-2.5-1-4-1.4
					c-0.7-0.2-1.5-0.3-2.3-0.5l-0.6-0.1l-0.6-0.1c-0.4,0-0.8-0.1-1.2-0.1c-1.6-0.1-3.2-0.3-4.9-0.3c-1.7-0.1-3.4-0.1-5.1-0.1
					c-3.4,0-6.8,0.1-10,0.3c-1.6,0.1-3.1,0.2-4.6,0.4c-1.5,0.2-2.9,0.6-4.1,1c-2.5,0.8-4.3,1.9-5.6,2.7c-0.6,0.4-1.1,0.7-1.4,1
					c-0.3,0.2-0.5,0.4-0.5,0.4s0.8-0.4,2.1-1c1.4-0.6,3.3-1.3,5.7-1.9c1.2-0.3,2.5-0.5,3.9-0.6c1.4-0.1,3-0.1,4.5-0.2
					c3.2-0.1,6.5-0.1,9.9-0.1c1.7,0,3.4,0,5,0.1c1.7,0,3.3,0.1,4.9,0.1c0.4,0,0.8,0,1.2,0.1l0.6,0l0.6,0c0.7,0.1,1.4,0.2,2.1,0.3
					c1.4,0.3,2.7,0.6,3.9,1c2.4,0.8,4.3,1.7,5.6,2.3C26.8-31.7,27.5-31.2,27.5-31.2z"/>
			</g>
		</g>
	</g>
</symbol>
<ellipse class="st36" cx="46.5" cy="92.1" rx="38.2" ry="6.2"/>
<g id="button_x5F_empty_x5F_green_x5F_2">
	
		<use xlink:href="#Button_Square_Green_2"  width="89.6" height="93" id="XMLID_28_" x="-44.8" y="-46.5" transform="matrix(1 0 0 -1 44.8224 46.5)" style="overflow:visible;"/>
</g>
</svg>
