<?xml version="1.0" encoding="utf-8"?>
<!-- Generator: Adobe Illustrator 16.0.0, SVG Export Plug-In . SVG Version: 6.00 Build 0)  -->
<!DOCTYPE svg PUBLIC "-//W3C//DTD SVG 1.1//EN" "http://www.w3.org/Graphics/SVG/1.1/DTD/svg11.dtd">
<svg version="1.1" id="Isolation_Mode" xmlns="http://www.w3.org/2000/svg" xmlns:xlink="http://www.w3.org/1999/xlink" x="0px"
	 y="0px" width="348.418px" height="73.402px" viewBox="0 0 348.418 73.402" enable-background="new 0 0 348.418 73.402"
	 xml:space="preserve">
<g id="Layer_x0020_1">
	<path fill="#FF7F00" d="M23.256,4.159l104.731-4.115c0.77-0.08,1.541-0.047,2.288,0.083c1.655,0.29,3.205,1.063,4.385,2.12
		c1.204,1.08,2.04,2.465,2.239,3.957c0.079,0.589,0.06,1.194-0.076,1.803l-10.928,49.257c-0.459,2.07-1.479,3.995-3.023,5.366
		c-1.452,1.288-3.34,2.089-5.636,2.089l-84.089-2.893c-2.287,0-4.164-0.799-5.61-2.082l-0.007-0.006
		c-1.541-1.369-2.562-3.293-3.035-5.357l-9.714-42.249c-0.043-0.185-0.073-0.342-0.091-0.475c-0.263-1.972,0.661-3.671,2.208-4.967
		c1.418-1.187,3.386-2.024,5.394-2.389C22.64,4.237,22.963,4.19,23.256,4.159z M123.463,6.719L23.211,10.361
		c-0.247,0.026-0.472,0.057-0.667,0.093c-1.381,0.25-2.717,0.812-3.657,1.6c-0.819,0.687-1.313,1.551-1.186,2.511
		c0.013,0.101,0.027,0.181,0.039,0.237l9.06,39.399c0.337,1.467,1.032,2.809,2.065,3.727c0.838,0.742,1.921,1.203,3.238,1.203
		l81.003,2.893c1.32,0,2.411-0.464,3.253-1.212c1.03-0.914,1.723-2.249,2.046-3.708l10.191-45.934
		c0.066-0.304,0.077-0.608,0.037-0.906c-0.109-0.817-0.588-1.595-1.28-2.217c-0.716-0.642-1.646-1.108-2.631-1.28
		C124.307,6.693,123.882,6.675,123.463,6.719z"/>
	<path fill="#F98923" d="M40.034,15.326l30.708-3.241c0.355-0.037,0.712-0.021,1.059,0.039c0.765,0.134,1.481,0.491,2.026,0.98
		c0.558,0.499,0.944,1.14,1.036,1.83c0.036,0.272,0.027,0.552-0.035,0.833l-5.054,22.778c-0.212,0.957-0.684,1.848-1.397,2.481
		c-0.672,0.597-1.545,0.966-2.606,0.966H44.608c-1.058,0-1.926-0.369-2.595-0.963l-0.002-0.002
		c-0.713-0.633-1.185-1.523-1.404-2.478l-4.492-19.537c-0.02-0.085-0.033-0.158-0.041-0.22c-0.122-0.912,0.306-1.698,1.021-2.297
		c0.655-0.549,1.565-0.937,2.494-1.105C39.75,15.362,39.898,15.34,40.034,15.326z M68.649,15.171l-28.636,3.022
		c-0.114,0.012-0.218,0.027-0.308,0.043c-0.64,0.116-1.257,0.375-1.692,0.74c-0.379,0.317-0.607,0.717-0.548,1.161
		c0.006,0.046,0.013,0.083,0.019,0.109l4.188,18.22c0.156,0.678,0.478,1.299,0.955,1.723c0.388,0.344,0.889,0.557,1.498,0.557H63.86
		c0.611,0,1.115-0.215,1.505-0.561c0.476-0.422,0.796-1.039,0.946-1.715l4.712-21.241c0.031-0.14,0.036-0.281,0.018-0.418
		c-0.051-0.378-0.272-0.738-0.593-1.025c-0.331-0.297-0.761-0.513-1.215-0.592C69.04,15.16,68.844,15.151,68.649,15.171z"/>
	<g id="_1849662416">
		<path fill="#FFFFFF" d="M84.096,44.416l0.977-1.727l-1.753-1.033l1.025-1.775l-3.529-2.023l-2.033,3.497l-0.015,0.065
			c0.625,0.223,1.198,0.611,1.774,0.955l-0.996,1.764l1.753,1.05l-2.019,3.515l1.733,1.031c-0.564,1.084-1.387,2.596-2.108,3.536
			l0.077,0.037c0.44,0.19,0.851,0.442,1.268,0.685c0.603,0.353,0.574,0.186,0.054,1.097s-1.051,1.817-1.575,2.726l1.719,1.013
			c-0.072,0.446-1.647,2.859-1.97,3.55l14.098,8.162l2.043-3.494l1.817,1.029l3.02-5.306l1.776,0.989l7.126-12.309
			c-0.23-0.271-1.666-0.902-1.671-1.113c-0.01-0.396,0.932-1.345,0.844-1.719c-0.32-0.299-1.273-0.854-1.684-1.008l-3.076,5.273
			l-1.736-1.006l4.077-7.074l-3.549-2.039L98.5,48.054l-1.765-1.021l4.083-7.022c-0.25-0.257-3.171-1.938-3.556-2.056L93.2,44.998
			l-1.742-1.018c-0.005-0.184,0.122-0.343,0.228-0.521c2.969-5.015,6.011-10.358,8.932-15.406l-3.528-2.012L85.851,45.462
			c-0.561-0.164-1.676-0.951-1.69-0.965L84.096,44.416z"/>
		<path fill="#1E1E1E" d="M78.983,53.307c-0.162,0.282-0.322,0.429-0.526,0.786l-1.563,2.709c0.288,0.166,0.585,0.33,0.87,0.5
			c0.318,0.189,0.454,0.337,0.832,0.555c-1.048,1.814-1.937,3.479-2.979,5.286c1.48,0.854,2.832,1.708,4.356,2.587l8.938,5.161
			c1.542,0.89,2.977,1.646,4.474,2.511c0.257-0.445,0.325-0.801,0.71-1.283c0.325-0.406,0.861-1.46,1.197-2.025
			c0.177-0.297,0.253-0.313,0.431-0.611c0.295-0.492,0.422-0.859,0.727-1.389c0.286,0.417,1.281,0.738,1.733,1
			c1.024-1.773,2.019-3.37,3.057-5.169c0.536,0.163,1.028,0.558,1.497,0.802c0.26,0.135,0.271,0.132,0.428-0.115
			c0.402-0.633,0.803-1.406,1.186-2.068c0.781-1.355,1.563-2.709,2.346-4.064l3.439-5.958c-0.479-0.278-1.41-0.728-1.775-1.071
			l-7.126,12.309l-1.776-0.989l-3.02,5.306l-1.817-1.029l-2.043,3.494l-14.098-8.162c0.322-0.69,1.897-3.104,1.97-3.55l-1.719-1.013
			c0.524-0.908,1.055-1.814,1.575-2.726s0.549-0.744-0.054-1.097C79.834,53.75,79.424,53.498,78.983,53.307z"/>
		<path fill="#1E1E1E" d="M84.345,39.88l-1.025,1.775l1.753,1.033l-0.977,1.727l1.742,1.006l11.19-19.413l-1.722-0.976
			c-0.014,0.008-0.024,0.009-0.039,0.029l-0.074,0.067c-0.011,0.013-0.023,0.027-0.035,0.042l-9.04,15.651
			C85.48,40.454,84.978,40.203,84.345,39.88z"/>
		<path fill="#1E1E1E" d="M100.651,28.122L91.458,43.98l1.742,1.018l4.063-7.043c0.385,0.117,3.306,1.799,3.556,2.056
			c0.384,0.396,3.722,2.201,4.472,2.635c0.013-0.093,0.147-0.056-0.254-0.302l-3.529-2.027c-0.847-0.481-0.78-0.148,0.351-2.107
			L99.2,36.676c-0.346-0.201-0.453-0.337-0.832-0.556l4.034-6.988c-0.451-0.261-0.733-0.536-1.324-0.837
			C100.832,28.17,100.864,28.236,100.651,28.122z"/>
		<path fill="#1E1E1E" d="M105.112,44.802l1.022-1.741c-0.27-0.155-0.559-0.371-0.845-0.416c-0.75-0.434-4.088-2.239-4.472-2.635
			l-4.083,7.022l1.765,1.021l3.063-5.291L105.112,44.802z"/>
		<path fill="#1E1E1E" d="M78.768,41.419c-0.151,0.25-0.214,0.242-0.554,0.834c-0.177,0.307-0.354,0.613-0.531,0.921l1.679,0.97
			c-0.166,0.547-1.646,3.102-1.925,3.584l1.734,1l-1.533,2.654c-0.22,0.377-0.262,0.578-0.446,0.898l1.714,0.989
			c0.722-0.94,1.544-2.452,2.108-3.536l-1.733-1.031l2.019-3.515l-1.753-1.05l0.996-1.764
			C79.967,42.031,79.393,41.642,78.768,41.419z"/>
		<path fill="#1E1E1E" d="M78.783,41.354l2.033-3.497l3.529,2.023l0.56-0.836c0.151-0.309,0.261-0.574,0.481-0.957l-4.713-2.721
			c-0.757-0.443-0.57-0.513-1.182,0.546l-2.253,3.9c-0.233,0.392-0.408,0.474-0.052,0.7C77.526,40.73,78.497,41.356,78.783,41.354z"
			/>
		<path fill="#1E1E1E" d="M107.531,48.617c0.272-0.012,0.054,0.08,0.272-0.182c0.014-0.018,0.131-0.238,0.154-0.277
			c0.067-0.434,0.465-0.931,0.696-1.331l-3.542-2.024l-4.077,7.074l1.736,1.006l3.076-5.273
			C106.258,47.762,107.211,48.318,107.531,48.617z"/>
		<path fill="#1E1E1E" d="M100.677,27.993c0.315-0.545,0.759-1.193,0.916-1.711l-3.482-2.01l-1,1.708L100.677,27.993z"/>
		<path fill="#1E1E1E" d="M107.531,48.617c0.088,0.374-0.854,1.322-0.844,1.719c0.005,0.211,1.44,0.842,1.671,1.113
			c0.365,0.344,1.296,0.793,1.775,1.071l-3.439,5.958l3.502-6.066l-1.733-1c0.16-0.277,0.209-0.492,0.415-0.844
			c0.179-0.307,0.354-0.614,0.532-0.922c-1.927-1.112-1.827-0.834-1.452-1.488c-0.023,0.039-0.141,0.26-0.154,0.277
			C107.585,48.697,107.803,48.605,107.531,48.617z"/>
		<path fill="#8B8B8B" d="M95.307,25.033l1.722,0.976l-11.19,19.413l-1.742-1.006l0.064,0.082c0.015,0.014,1.13,0.801,1.69,0.965
			L97.089,26.04l3.528,2.012c-2.921,5.048-5.963,10.392-8.932,15.406c-0.105,0.179-0.232,0.338-0.228,0.521l9.193-15.858
			l0.025-0.129l-3.566-2.013l1-1.708c-0.269,0.191-0.815,1.322-1.04,1.711l-1.621-0.925C95.331,25.016,95.384,25.032,95.307,25.033z
			"/>
	</g>
	<path fill="#FF7F00" d="M166.506,44.341h-6.022l4.965-17.148l-10.199,17.148h-6.195l-1.111-17.394l-4.243,17.394h-6.195
		l6.993-26.099h8.454l1.164,18.313l10.93-18.313h8.454L166.506,44.341z M189.025,44.341h-13.467c-1.871,0-3.218-0.502-4.042-1.506
		c-0.85-0.98-1.017-2.408-0.512-4.29c0.604-2.252,1.646-3.872,3.128-4.852c1.481-0.98,3.585-1.47,6.315-1.47h5.945
		c0.251-0.938,0.155-1.607-0.283-2.02c-0.456-0.376-1.464-0.562-3.011-0.562h-8.484l1.258-4.696h10.319
		c2.623,0,4.455,0.609,5.492,1.822c1.043,1.213,1.231,3.053,0.57,5.521L189.025,44.341z M184.385,39.716l0.777-2.904h-5.264
		c-1.052,0-1.76,0.102-2.125,0.305c-0.371,0.203-0.641,0.627-0.813,1.273c-0.128,0.478-0.112,0.824,0.049,1.045
		c0.094,0.096,0.285,0.162,0.583,0.21c0.299,0.048,0.687,0.071,1.164,0.071H184.385z M210.04,44.341h-5.736l3.117-11.633
		c0.331-1.237,0.368-2.02,0.106-2.36c-0.301-0.305-1.008-0.454-2.101-0.454h-3.454l-3.871,14.448h-5.735l5.196-19.395h9.536
		c2.916,0,4.843,0.567,5.781,1.703c0.938,1.142,1.068,2.97,0.391,5.503L210.04,44.341z M230.904,44.341h-5.771l3.122-11.651
		c0.309-1.153,0.325-1.906,0.041-2.252c-0.19-0.204-0.427-0.347-0.706-0.442c-0.311-0.09-0.77-0.138-1.361-0.138l-3.427,0.036
		l-3.871,14.448h-5.736l6.993-26.099h5.736l-1.797,6.704h3.837c2.867,0,4.784,0.562,5.752,1.679
		c0.966,1.123,1.107,2.958,0.422,5.515L230.904,44.341z M252.916,44.341h-13.468c-1.87,0-3.217-0.502-4.042-1.506
		c-0.849-0.98-1.016-2.408-0.512-4.29c0.604-2.252,1.647-3.872,3.129-4.852c1.481-0.98,3.585-1.47,6.314-1.47h5.945
		c0.251-0.938,0.156-1.607-0.283-2.02c-0.455-0.376-1.463-0.562-3.01-0.562h-8.484l1.258-4.696h10.318
		c2.624,0,4.456,0.609,5.493,1.822c1.043,1.213,1.231,3.053,0.57,5.521L252.916,44.341z M248.275,39.716l0.778-2.904h-5.264
		c-1.052,0-1.76,0.102-2.125,0.305c-0.371,0.203-0.641,0.627-0.813,1.273c-0.128,0.478-0.113,0.824,0.049,1.045
		c0.094,0.096,0.285,0.162,0.583,0.21s0.686,0.071,1.164,0.071H248.275z M262.135,44.341h-5.951l6.993-26.099h5.951L262.135,44.341z
		 M275.577,44.341h-5.055l1.422-5.307h5.055L275.577,44.341z M294.141,44.341h-7.009c-0.856,0-1.632-0.049-2.304-0.144
		c-0.66-0.093-1.274-0.206-1.816-0.4c-0.981-0.353-1.818-0.972-2.493-1.822c-0.314-0.396-0.532-0.902-0.729-1.47
		c-0.192-0.553-0.396-1.145-0.49-1.787c-0.09-0.616-0.081-1.256-0.03-1.912c0.049-0.638,0.189-1.352,0.395-2.121
		c0.386-1.444,0.987-2.813,1.811-4.081c0.812-1.25,1.784-2.411,2.996-3.375c1.005-0.801,2.184-1.325,3.438-1.703
		c1.246-0.377,2.719-0.58,4.422-0.58h7.008l-1.306,4.875h-5.593c-1.162,0-2.122,0.056-2.853,0.209
		c-0.735,0.154-1.336,0.479-1.838,0.86c-0.974,0.739-1.725,1.991-2.205,3.794c-0.268,1.002-0.301,1.855-0.16,2.557
		c0.137,0.681,0.322,1.457,0.975,1.715l1.026,0.406c0.281,0.111,0.614,0.08,0.929,0.102c0.333,0.022,0.845,0.036,1.532,0.036h5.593
		L294.141,44.341z M318.156,34.614c-0.811,3.032-2.388,5.46-4.718,7.283c-2.323,1.817-5.027,2.731-8.117,2.731
		c-3.106,0-5.317-0.922-6.677-2.731c-1.351-1.796-1.637-4.214-0.815-7.283c0.804-3.004,2.383-5.426,4.712-7.26
		c2.303-1.813,5.01-2.73,8.141-2.73c3.089,0,5.313,0.898,6.663,2.695C318.704,29.127,318.97,31.564,318.156,34.614z M312.205,34.614
		c0.429-1.61,0.344-2.863-0.174-3.788c-0.498-0.89-1.362-1.362-2.683-1.362c-1.309,0-2.431,0.474-3.412,1.362
		c-0.941,0.853-1.671,2.104-2.12,3.788c-0.23,0.864-0.325,1.597-0.323,2.187c0.002,0.626,0.125,1.186,0.397,1.661
		c0.506,0.884,1.407,1.327,2.691,1.327c1.32,0,2.442-0.46,3.403-1.327C311.008,37.539,311.764,36.265,312.205,34.614z
		 M344.743,44.341h-5.771l3.107-11.598c0.318-1.189,0.404-2.017,0.134-2.396c-0.264-0.369-1.003-0.534-2.08-0.508l-2.237,0.054
		l-3.871,14.448h-5.844l3.871-14.448h-4.768l-3.871,14.448h-5.771l5.196-19.395h19.013c2.766,0,4.659,0.569,5.661,1.703
		c1.008,1.14,1.176,2.973,0.498,5.503L344.743,44.341z"/>
	<path fill="#FFB36E" d="M6.553,25.047l50.538-5.334c0.586-0.061,1.173-0.036,1.742,0.063c1.26,0.22,2.438,0.808,3.337,1.613
		c0.917,0.822,1.553,1.876,1.704,3.011c0.06,0.448,0.045,0.909-0.058,1.372l-8.744,22.963c-0.35,1.576-1.126,3.041-2.301,4.084
		c-1.105,0.98-2.542,1.59-4.289,1.59H13.654c-1.74,0-3.169-0.607-4.27-1.585L9.38,52.822c-1.174-1.043-1.949-2.506-2.311-4.078
		L0.103,31.114c-0.032-0.14-0.055-0.26-0.068-0.361c-0.201-1.501,0.503-2.794,1.681-3.78c1.078-0.903,2.576-1.542,4.104-1.818
		C6.086,25.107,6.331,25.07,6.553,25.047z M53.648,24.794L6.519,29.768c-0.188,0.02-0.359,0.043-0.507,0.07
		c-1.052,0.19-2.068,0.618-2.784,1.218c-0.624,0.522-1,1.18-0.902,1.911c0.011,0.076,0.021,0.137,0.029,0.18l6.468,15.46
		c0.257,1.117,0.786,2.138,1.572,2.836c0.638,0.564,1.462,0.916,2.465,0.916H45.34c1.005,0,1.835-0.354,2.476-0.922
		c0.783-0.695,1.311-1.711,1.558-2.822l8.183-20.434c0.051-0.231,0.059-0.463,0.028-0.689c-0.084-0.622-0.447-1.214-0.975-1.688
		c-0.545-0.488-1.252-0.844-2.001-0.974C54.292,24.775,53.968,24.761,53.648,24.794z"/>
	<path fill="#351E01" d="M148.935,10.044l-1.074,4.012h-1.445l2.876-10.733h3.166c0.679,0,1.249,0.08,1.708,0.237
		c0.46,0.157,0.814,0.379,1.066,0.668c0.251,0.29,0.404,0.641,0.457,1.05s0.01,0.866-0.125,1.37
		c-0.135,0.502-0.345,0.958-0.63,1.373c-0.286,0.414-0.636,0.771-1.054,1.073c-0.417,0.299-0.898,0.531-1.442,0.699
		c-0.543,0.167-1.138,0.252-1.781,0.252H148.935z M149.245,8.891h1.721c0.415,0,0.796-0.055,1.143-0.165
		c0.346-0.11,0.652-0.265,0.919-0.461c0.268-0.197,0.493-0.432,0.676-0.706c0.184-0.274,0.319-0.577,0.407-0.906
		c0.184-0.684,0.117-1.218-0.202-1.602c-0.318-0.384-0.905-0.576-1.759-0.576h-1.722L149.245,8.891z"/>
	<path id="_x31_" fill="#351E01" d="M160.111,6.354c0.554,0,1.031,0.092,1.428,0.277c0.397,0.185,0.706,0.446,0.928,0.786
		c0.221,0.339,0.351,0.749,0.389,1.23c0.038,0.481-0.024,1.021-0.183,1.614c-0.161,0.599-0.388,1.138-0.684,1.617
		c-0.295,0.479-0.645,0.888-1.047,1.228c-0.403,0.339-0.852,0.599-1.348,0.781c-0.495,0.182-1.021,0.274-1.575,0.274
		s-1.028-0.092-1.426-0.274s-0.71-0.441-0.934-0.781c-0.224-0.34-0.355-0.749-0.397-1.228c-0.041-0.479,0.019-1.018,0.179-1.617
		c0.159-0.593,0.389-1.133,0.688-1.614c0.299-0.482,0.65-0.891,1.056-1.23s0.857-0.601,1.354-0.786
		C159.034,6.446,159.557,6.354,160.111,6.354z M158.299,13.12c0.748,0,1.375-0.252,1.878-0.753c0.504-0.501,0.876-1.203,1.117-2.104
		c0.242-0.903,0.246-1.606,0.013-2.113c-0.234-0.504-0.726-0.756-1.474-0.756c-0.379,0-0.727,0.065-1.041,0.195
		c-0.313,0.129-0.596,0.317-0.849,0.562s-0.474,0.546-0.661,0.903c-0.188,0.357-0.344,0.761-0.464,1.21
		c-0.12,0.45-0.181,0.854-0.184,1.208c-0.003,0.354,0.057,0.653,0.179,0.896s0.305,0.427,0.549,0.559
		C157.607,13.055,157.919,13.12,158.299,13.12z"/>
	<path id="_x32_" fill="#351E01" d="M164.347,6.466h1.048c0.11,0,0.192,0.027,0.248,0.082c0.055,0.055,0.085,0.12,0.09,0.195
		l0.143,4.885c-0.008,0.18-0.018,0.354-0.027,0.521c-0.01,0.167-0.024,0.334-0.046,0.507c0.086-0.172,0.176-0.339,0.271-0.507
		c0.095-0.167,0.194-0.341,0.297-0.521l2.919-4.916c0.045-0.075,0.106-0.137,0.183-0.187c0.075-0.05,0.159-0.075,0.255-0.075h0.576
		c0.1,0,0.175,0.025,0.227,0.075s0.08,0.112,0.085,0.187l0.247,4.916c0.008,0.174,0.012,0.347,0.009,0.516
		c-0.003,0.17-0.008,0.337-0.013,0.504c0.07-0.167,0.148-0.339,0.236-0.519s0.176-0.347,0.262-0.501l2.791-4.885
		c0.047-0.08,0.111-0.145,0.195-0.197s0.173-0.08,0.269-0.08h1.003l-4.489,7.589h-1.055c-0.13,0-0.197-0.084-0.202-0.254
		l-0.297-5.147c-0.01-0.115-0.011-0.232-0.004-0.349c0.007-0.118,0.012-0.232,0.019-0.347c-0.057,0.115-0.112,0.232-0.17,0.352
		c-0.057,0.12-0.12,0.237-0.191,0.352l-3.076,5.14c-0.101,0.17-0.226,0.254-0.375,0.254h-1.003L164.347,6.466z"/>
	<path id="_x33_" fill="#351E01" d="M179.837,6.346c0.454,0,0.852,0.077,1.195,0.229s0.617,0.372,0.819,0.659
		c0.202,0.287,0.326,0.644,0.371,1.065c0.044,0.422-0.008,0.903-0.153,1.445c-0.056,0.209-0.115,0.349-0.18,0.419
		c-0.063,0.07-0.157,0.105-0.282,0.105h-5.045c-0.118,0.479-0.166,0.898-0.141,1.252c0.023,0.357,0.109,0.651,0.255,0.891
		c0.146,0.237,0.348,0.414,0.606,0.531c0.258,0.118,0.566,0.177,0.926,0.177c0.334,0,0.634-0.04,0.896-0.117
		s0.493-0.162,0.691-0.252c0.199-0.09,0.368-0.172,0.506-0.25c0.139-0.08,0.249-0.117,0.334-0.117c0.109,0,0.183,0.042,0.22,0.127
		L181.099,13c-0.217,0.197-0.46,0.369-0.729,0.517c-0.269,0.147-0.546,0.267-0.833,0.362c-0.286,0.092-0.578,0.165-0.87,0.212
		s-0.575,0.07-0.85,0.07c-0.524,0-0.981-0.09-1.375-0.267c-0.395-0.177-0.707-0.437-0.937-0.778c-0.23-0.342-0.369-0.766-0.414-1.27
		c-0.044-0.504,0.021-1.083,0.197-1.739c0.142-0.529,0.355-1.023,0.642-1.482c0.285-0.459,0.624-0.858,1.019-1.195
		s0.837-0.602,1.328-0.793C178.767,6.444,179.287,6.346,179.837,6.346z M179.601,7.334c-0.644,0-1.199,0.185-1.669,0.556
		c-0.468,0.369-0.835,0.883-1.101,1.54h4.124c0.083-0.31,0.116-0.591,0.1-0.846c-0.016-0.257-0.081-0.479-0.196-0.664
		c-0.114-0.187-0.275-0.332-0.485-0.434C180.165,7.384,179.906,7.334,179.601,7.334z"/>
	<path id="_x34_" fill="#351E01" d="M182.613,14.056l2.034-7.589h0.764c0.145,0,0.236,0.03,0.275,0.087
		c0.04,0.058,0.05,0.16,0.031,0.302l-0.247,1.257c0.41-0.562,0.85-0.998,1.314-1.31c0.466-0.314,0.954-0.471,1.469-0.471
		c0.209,0,0.393,0.025,0.549,0.072c0.157,0.05,0.296,0.117,0.417,0.205l-0.438,0.995c-0.069,0.125-0.163,0.188-0.282,0.188
		c-0.07,0-0.171-0.025-0.303-0.073c-0.132-0.047-0.328-0.069-0.588-0.069c-0.464,0-0.888,0.14-1.275,0.421s-0.759,0.691-1.112,1.228
		l-1.274,4.758H182.613z"/>
	<path id="_x35_" fill="#351E01" d="M193.714,6.346c0.454,0,0.853,0.077,1.196,0.229c0.343,0.152,0.616,0.372,0.818,0.659
		c0.203,0.287,0.327,0.644,0.371,1.065c0.044,0.422-0.008,0.903-0.152,1.445c-0.057,0.209-0.116,0.349-0.18,0.419
		c-0.063,0.07-0.158,0.105-0.282,0.105h-5.046c-0.118,0.479-0.165,0.898-0.141,1.252c0.024,0.357,0.109,0.651,0.256,0.891
		c0.146,0.237,0.348,0.414,0.605,0.531c0.258,0.118,0.566,0.177,0.926,0.177c0.334,0,0.635-0.04,0.897-0.117
		s0.492-0.162,0.691-0.252c0.198-0.09,0.367-0.172,0.506-0.25c0.138-0.08,0.248-0.117,0.333-0.117c0.109,0,0.184,0.042,0.221,0.127
		L194.977,13c-0.218,0.197-0.461,0.369-0.729,0.517c-0.27,0.147-0.547,0.267-0.834,0.362c-0.286,0.092-0.577,0.165-0.869,0.212
		c-0.293,0.047-0.576,0.07-0.851,0.07c-0.523,0-0.981-0.09-1.375-0.267c-0.395-0.177-0.707-0.437-0.937-0.778
		c-0.23-0.342-0.369-0.766-0.413-1.27c-0.045-0.504,0.021-1.083,0.196-1.739c0.142-0.529,0.356-1.023,0.642-1.482
		c0.285-0.459,0.624-0.858,1.019-1.195s0.837-0.602,1.328-0.793C192.644,6.444,193.165,6.346,193.714,6.346z M193.478,7.334
		c-0.644,0-1.199,0.185-1.668,0.556c-0.469,0.369-0.836,0.883-1.102,1.54h4.125c0.082-0.31,0.116-0.591,0.099-0.846
		c-0.016-0.257-0.081-0.479-0.196-0.664c-0.114-0.187-0.275-0.332-0.484-0.434C194.042,7.384,193.783,7.334,193.478,7.334z"/>
	<path id="_x36_" fill="#351E01" d="M201.828,14.056c-0.19,0-0.285-0.092-0.285-0.277l0.127-0.92
		c-0.431,0.394-0.884,0.708-1.364,0.945c-0.479,0.237-0.991,0.357-1.53,0.357c-0.434,0-0.806-0.085-1.115-0.252
		c-0.309-0.167-0.545-0.412-0.708-0.736c-0.162-0.327-0.246-0.731-0.251-1.215s0.077-1.041,0.246-1.672
		c0.149-0.559,0.363-1.078,0.643-1.562c0.279-0.481,0.607-0.898,0.985-1.255c0.377-0.354,0.793-0.631,1.251-0.833
		c0.459-0.202,0.945-0.304,1.459-0.304c0.464,0,0.84,0.08,1.127,0.237s0.522,0.377,0.706,0.661l1.127-4.207h1.332l-2.956,11.033
		H201.828z M199.506,13.083c0.435,0,0.843-0.1,1.224-0.299c0.38-0.199,0.755-0.481,1.127-0.846l0.983-3.672
		c-0.155-0.33-0.36-0.562-0.617-0.694c-0.256-0.132-0.563-0.2-0.917-0.2c-0.708,0-1.319,0.252-1.835,0.759
		c-0.515,0.504-0.896,1.223-1.146,2.158c-0.133,0.494-0.204,0.918-0.214,1.27c-0.009,0.352,0.038,0.642,0.142,0.868
		c0.104,0.228,0.262,0.395,0.473,0.5C198.936,13.03,199.196,13.083,199.506,13.083z"/>
	<path id="_x37_" fill="#351E01" d="M207.794,14.056l2.956-11.033h1.34l-1.237,4.616c0.418-0.387,0.864-0.701,1.334-0.938
		c0.471-0.237,0.966-0.354,1.489-0.354c0.439,0,0.814,0.083,1.125,0.247c0.31,0.165,0.545,0.412,0.707,0.739
		c0.162,0.327,0.246,0.731,0.252,1.212c0.005,0.484-0.076,1.038-0.245,1.667c-0.15,0.562-0.364,1.081-0.644,1.564
		c-0.278,0.481-0.604,0.898-0.981,1.25c-0.376,0.352-0.794,0.629-1.255,0.831s-0.947,0.304-1.456,0.304
		c-0.489,0-0.878-0.095-1.169-0.287c-0.29-0.189-0.519-0.456-0.682-0.798l-0.253,0.694c-0.092,0.192-0.231,0.287-0.421,0.287
		H207.794z M212.957,7.409c-0.434,0-0.841,0.105-1.225,0.317c-0.383,0.209-0.766,0.509-1.143,0.893l-0.969,3.616
		c0.152,0.324,0.358,0.554,0.615,0.686c0.256,0.133,0.563,0.2,0.921,0.2c0.709,0,1.32-0.252,1.835-0.756s0.896-1.223,1.146-2.156
		c0.132-0.494,0.203-0.918,0.211-1.272s-0.041-0.646-0.146-0.873c-0.104-0.227-0.262-0.392-0.473-0.497
		C213.519,7.461,213.261,7.409,212.957,7.409z"/>
	<path id="_x38_" fill="#351E01" d="M217.544,16.301c-0.072,0.1-0.148,0.18-0.232,0.24c-0.083,0.06-0.195,0.089-0.335,0.089h-0.988
		l2.179-2.964l-1.201-7.193h1.152c0.115,0,0.196,0.03,0.246,0.087c0.05,0.057,0.08,0.122,0.091,0.192l0.732,4.838
		c0.016,0.11,0.025,0.222,0.028,0.332c0.002,0.113-0.001,0.227-0.007,0.342c0.065-0.115,0.132-0.229,0.196-0.342
		c0.064-0.109,0.135-0.225,0.211-0.339l3.263-4.83c0.052-0.08,0.122-0.147,0.208-0.2c0.087-0.052,0.171-0.08,0.256-0.08h1.063
		L217.544,16.301z"/>
	<path id="_x39_" fill="#351E01" d="M223.672,13.235c0.035-0.129,0.093-0.252,0.171-0.367s0.17-0.214,0.275-0.302
		c0.104-0.085,0.22-0.152,0.349-0.202c0.128-0.05,0.257-0.075,0.387-0.075s0.245,0.025,0.347,0.075s0.184,0.117,0.245,0.202
		c0.062,0.087,0.103,0.187,0.118,0.302c0.018,0.115,0.007,0.237-0.028,0.367c-0.036,0.137-0.092,0.26-0.17,0.374
		c-0.077,0.113-0.17,0.21-0.279,0.297c-0.107,0.084-0.225,0.149-0.352,0.197c-0.128,0.047-0.257,0.072-0.387,0.072
		s-0.245-0.025-0.347-0.072c-0.103-0.047-0.183-0.112-0.242-0.197c-0.059-0.087-0.098-0.185-0.115-0.297
		C223.627,13.495,223.635,13.372,223.672,13.235z M225.176,7.621c0.035-0.13,0.093-0.252,0.171-0.367s0.17-0.214,0.275-0.302
		c0.105-0.085,0.221-0.152,0.349-0.202s0.257-0.075,0.387-0.075s0.245,0.025,0.347,0.075s0.184,0.117,0.245,0.202
		c0.063,0.087,0.103,0.187,0.119,0.302s0.007,0.237-0.028,0.367c-0.037,0.137-0.092,0.259-0.171,0.375
		c-0.077,0.112-0.17,0.209-0.278,0.297c-0.108,0.085-0.225,0.149-0.353,0.197s-0.256,0.073-0.386,0.073s-0.246-0.025-0.348-0.073
		c-0.103-0.047-0.183-0.112-0.242-0.197c-0.059-0.087-0.098-0.185-0.114-0.297C225.132,7.88,225.139,7.758,225.176,7.621z"/>
	<path fill="#351E01" d="M209.762,50.086l-0.434,1.617h-7.036l-1.306,4.869h5.698l-0.417,1.554h-5.697l-1.344,5.013h7.037
		l-0.433,1.616h-9.031l3.931-14.669H209.762z M209.782,57.841h5.053l-0.416,1.555h-5.054L209.782,57.841z M218.219,63.078h6.342
		l-0.45,1.678h-8.326l3.93-14.669h1.984L218.219,63.078z M232.57,54.219c0.62,0,1.165,0.105,1.635,0.315
		c0.469,0.207,0.843,0.507,1.12,0.899c0.276,0.392,0.445,0.879,0.506,1.455c0.061,0.577-0.011,1.235-0.208,1.975
		c-0.077,0.287-0.159,0.477-0.246,0.572s-0.216,0.144-0.386,0.144h-6.896c-0.161,0.655-0.226,1.228-0.191,1.712
		c0.033,0.487,0.15,0.89,0.348,1.218c0.201,0.322,0.476,0.564,0.829,0.727c0.352,0.158,0.774,0.242,1.266,0.242
		c0.456,0,0.866-0.056,1.226-0.162c0.358-0.105,0.673-0.222,0.945-0.343c0.271-0.124,0.502-0.236,0.69-0.342
		c0.189-0.109,0.34-0.16,0.456-0.16c0.149,0,0.249,0.058,0.301,0.174l0.332,0.669c-0.298,0.27-0.629,0.504-0.996,0.706
		c-0.368,0.199-0.746,0.363-1.14,0.493c-0.391,0.126-0.789,0.226-1.189,0.29c-0.398,0.064-0.785,0.095-1.16,0.095
		c-0.717,0-1.341-0.121-1.88-0.363c-0.538-0.242-0.965-0.598-1.28-1.064c-0.313-0.467-0.503-1.047-0.564-1.735
		c-0.061-0.689,0.028-1.48,0.269-2.377c0.194-0.723,0.488-1.397,0.876-2.025c0.391-0.626,0.854-1.172,1.393-1.633
		c0.54-0.46,1.145-0.822,1.815-1.085C231.109,54.353,231.821,54.219,232.57,54.219z M232.25,55.57c-0.88,0-1.64,0.252-2.281,0.761
		c-0.639,0.505-1.142,1.207-1.505,2.104h5.638c0.113-0.424,0.157-0.809,0.135-1.157c-0.021-0.351-0.111-0.654-0.269-0.907
		c-0.156-0.255-0.376-0.454-0.662-0.593C233.019,55.638,232.666,55.57,232.25,55.57z M243.975,64.755h-0.808
		c-0.178,0-0.313-0.026-0.407-0.082c-0.095-0.054-0.135-0.174-0.121-0.351l0.055-0.965c-0.34,0.246-0.665,0.467-0.976,0.662
		c-0.313,0.197-0.629,0.36-0.951,0.493c-0.321,0.133-0.653,0.236-0.995,0.304c-0.342,0.068-0.713,0.103-1.108,0.103
		c-0.402,0-0.762-0.058-1.082-0.17c-0.322-0.114-0.583-0.284-0.781-0.509c-0.199-0.226-0.328-0.511-0.387-0.859
		c-0.063-0.344-0.03-0.754,0.097-1.229c0.109-0.411,0.329-0.807,0.654-1.186c0.328-0.382,0.783-0.719,1.364-1.017
		c0.58-0.293,1.299-0.535,2.16-0.722c0.863-0.188,1.881-0.283,3.053-0.283l0.219-0.815c0.217-0.809,0.21-1.421-0.023-1.834
		c-0.233-0.416-0.688-0.624-1.363-0.624c-0.444,0-0.83,0.056-1.163,0.166c-0.334,0.114-0.631,0.24-0.89,0.379
		c-0.258,0.141-0.484,0.268-0.675,0.38c-0.188,0.112-0.365,0.17-0.521,0.17c-0.123,0-0.221-0.03-0.296-0.096
		c-0.074-0.064-0.128-0.144-0.157-0.238l-0.174-0.573c0.723-0.556,1.45-0.973,2.186-1.247c0.735-0.277,1.505-0.414,2.31-0.414
		c0.58,0,1.068,0.096,1.469,0.288c0.398,0.19,0.706,0.456,0.922,0.797c0.215,0.341,0.336,0.753,0.362,1.241
		c0.027,0.484-0.037,1.017-0.192,1.596L243.975,64.755z M239.552,63.63c0.32,0,0.622-0.031,0.906-0.095
		c0.282-0.065,0.559-0.154,0.826-0.273c0.266-0.115,0.529-0.259,0.789-0.431c0.26-0.166,0.519-0.358,0.782-0.572l0.575-2.147
		c-0.839,0-1.566,0.055-2.181,0.159c-0.616,0.106-1.129,0.242-1.544,0.416c-0.414,0.172-0.733,0.372-0.963,0.604
		c-0.229,0.231-0.385,0.491-0.462,0.781c-0.072,0.272-0.092,0.507-0.057,0.706c0.037,0.197,0.112,0.36,0.228,0.487
		c0.117,0.126,0.27,0.217,0.458,0.275C239.1,63.599,239.312,63.63,239.552,63.63z M246.738,64.755l2.778-10.372h1.044
		c0.197,0,0.324,0.041,0.377,0.119c0.054,0.078,0.068,0.219,0.043,0.413l-0.337,1.718c0.56-0.767,1.159-1.363,1.795-1.79
		c0.637-0.429,1.304-0.645,2.007-0.645c0.286,0,0.536,0.035,0.752,0.1c0.213,0.068,0.403,0.16,0.568,0.279l-0.601,1.36
		c-0.093,0.171-0.221,0.257-0.385,0.257c-0.096,0-0.232-0.034-0.413-0.099c-0.181-0.065-0.448-0.096-0.803-0.096
		c-0.634,0-1.215,0.19-1.743,0.575c-0.529,0.386-1.038,0.944-1.52,1.678l-1.743,6.502H246.738z M254.982,64.755l2.779-10.372h1.085
		c0.258,0,0.388,0.126,0.388,0.378l-0.158,1.129c0.584-0.501,1.196-0.903,1.835-1.209c0.637-0.309,1.319-0.462,2.05-0.462
		c0.565,0,1.042,0.096,1.424,0.283c0.383,0.188,0.673,0.453,0.87,0.799c0.198,0.343,0.305,0.76,0.326,1.244
		c0.02,0.484-0.048,1.019-0.206,1.605l-1.77,6.604h-1.821l1.77-6.604c0.211-0.783,0.197-1.394-0.045-1.828
		c-0.242-0.433-0.733-0.65-1.47-0.65c-0.539,0-1.073,0.13-1.611,0.389c-0.536,0.26-1.064,0.614-1.578,1.057l-2.047,7.638H254.982z
		 M271.161,54.383l-2.778,10.372h-1.822l2.78-10.372H271.161z M272.441,51.131c-0.047,0.177-0.125,0.341-0.237,0.494
		c-0.113,0.152-0.244,0.29-0.396,0.409c-0.151,0.118-0.317,0.214-0.492,0.282c-0.176,0.068-0.352,0.104-0.528,0.104
		c-0.178,0-0.332-0.035-0.467-0.104s-0.247-0.164-0.334-0.282c-0.088-0.119-0.146-0.257-0.173-0.409
		c-0.028-0.153-0.019-0.317,0.03-0.494c0.046-0.178,0.127-0.349,0.238-0.509c0.11-0.16,0.243-0.3,0.395-0.42
		c0.151-0.118,0.313-0.211,0.484-0.28c0.172-0.067,0.345-0.101,0.522-0.101c0.177,0,0.334,0.033,0.473,0.101
		c0.139,0.069,0.254,0.162,0.342,0.28c0.087,0.12,0.146,0.26,0.174,0.42C272.502,50.783,272.489,50.954,272.441,51.131z
		 M271.594,64.755l2.78-10.372h1.083c0.261,0,0.389,0.126,0.391,0.378l-0.159,1.129c0.584-0.501,1.197-0.903,1.835-1.209
		c0.638-0.309,1.319-0.462,2.049-0.462c0.566,0,1.042,0.096,1.424,0.283c0.384,0.188,0.674,0.453,0.872,0.799
		c0.196,0.343,0.304,0.76,0.324,1.244c0.02,0.484-0.048,1.019-0.206,1.605l-1.77,6.604h-1.82l1.77-6.604
		c0.21-0.783,0.197-1.394-0.045-1.828c-0.242-0.433-0.733-0.65-1.47-0.65c-0.539,0-1.075,0.13-1.61,0.389
		c-0.538,0.26-1.065,0.614-1.58,1.057l-2.046,7.638H271.594z M289.28,54.219c0.45,0,0.859,0.048,1.226,0.147
		c0.366,0.099,0.68,0.246,0.95,0.437h2.813l-0.182,0.677c-0.061,0.227-0.243,0.372-0.546,0.435l-1.22,0.164
		c0.113,0.442,0.096,0.937-0.05,1.483c-0.136,0.504-0.354,0.964-0.659,1.377c-0.304,0.411-0.669,0.768-1.093,1.06
		c-0.422,0.293-0.892,0.519-1.407,0.677c-0.517,0.156-1.059,0.234-1.625,0.234c-0.484,0-0.926-0.059-1.325-0.171
		c-0.255,0.141-0.46,0.29-0.616,0.453c-0.155,0.161-0.256,0.32-0.298,0.475c-0.067,0.255-0.02,0.446,0.143,0.576
		c0.163,0.13,0.4,0.225,0.713,0.279c0.312,0.058,0.676,0.085,1.093,0.085c0.416,0,0.841,0,1.275,0c0.433,0,0.846,0.038,1.241,0.114
		c0.395,0.078,0.733,0.2,1.014,0.373c0.282,0.172,0.48,0.41,0.598,0.714c0.116,0.303,0.108,0.699-0.021,1.184
		c-0.119,0.446-0.346,0.883-0.679,1.302c-0.335,0.424-0.755,0.794-1.26,1.125c-0.503,0.328-1.082,0.59-1.734,0.784
		c-0.653,0.197-1.358,0.297-2.115,0.297s-1.397-0.074-1.928-0.226c-0.528-0.149-0.948-0.352-1.256-0.604s-0.509-0.545-0.608-0.875
		c-0.099-0.332-0.101-0.679-0.004-1.041c0.138-0.511,0.417-0.944,0.837-1.303c0.421-0.361,0.939-0.644,1.563-0.855
		c-0.257-0.136-0.44-0.317-0.553-0.545c-0.113-0.229-0.119-0.532-0.018-0.914c0.039-0.146,0.108-0.305,0.206-0.463
		c0.097-0.158,0.225-0.318,0.38-0.475c0.152-0.154,0.33-0.304,0.532-0.446c0.201-0.145,0.426-0.271,0.673-0.379
		c-0.434-0.287-0.731-0.668-0.894-1.143c-0.162-0.477-0.159-1.033,0.011-1.668c0.135-0.507,0.357-0.964,0.662-1.38
		c0.306-0.413,0.67-0.767,1.096-1.057s0.901-0.515,1.424-0.673C288.161,54.298,288.707,54.219,289.28,54.219z M289.545,65.294
		c0.07-0.266,0.057-0.478-0.044-0.639c-0.1-0.159-0.262-0.282-0.483-0.371c-0.224-0.086-0.488-0.149-0.799-0.191
		c-0.308-0.043-0.641-0.064-0.995-0.064s-0.715,0-1.083,0c-0.369,0-0.708-0.044-1.019-0.136c-0.438,0.184-0.811,0.409-1.125,0.675
		c-0.313,0.266-0.521,0.582-0.619,0.951c-0.062,0.231-0.06,0.451,0.006,0.651c0.065,0.201,0.199,0.375,0.406,0.521
		c0.206,0.146,0.484,0.262,0.834,0.348s0.773,0.13,1.277,0.13c0.491,0,0.942-0.044,1.356-0.136c0.412-0.09,0.778-0.219,1.093-0.386
		c0.313-0.167,0.571-0.365,0.775-0.594C289.332,65.823,289.47,65.57,289.545,65.294z M287.81,59.703c0.368,0,0.71-0.052,1.021-0.153
		c0.31-0.104,0.584-0.246,0.823-0.43c0.241-0.188,0.443-0.405,0.606-0.662c0.166-0.259,0.288-0.537,0.371-0.848
		c0.171-0.636,0.115-1.141-0.169-1.519c-0.285-0.375-0.797-0.563-1.534-0.563c-0.729,0-1.335,0.188-1.821,0.563
		c-0.486,0.378-0.815,0.883-0.986,1.519c-0.083,0.311-0.107,0.589-0.077,0.848c0.03,0.257,0.115,0.474,0.257,0.662
		c0.141,0.184,0.338,0.326,0.589,0.43C287.142,59.651,287.449,59.703,287.81,59.703z M311.577,50.067l-0.45,1.677h-4.735
		l-3.483,13.002h-1.984l3.482-13.002h-4.755l0.448-1.677H311.577z M314.218,54.219c0.62,0,1.165,0.105,1.635,0.315
		c0.469,0.207,0.843,0.507,1.12,0.899c0.276,0.392,0.445,0.879,0.506,1.455c0.061,0.577-0.011,1.235-0.208,1.975
		c-0.077,0.287-0.159,0.477-0.246,0.572s-0.216,0.144-0.386,0.144h-6.896c-0.161,0.655-0.226,1.228-0.191,1.712
		c0.033,0.487,0.15,0.89,0.348,1.218c0.201,0.322,0.476,0.564,0.829,0.727c0.352,0.158,0.774,0.242,1.266,0.242
		c0.456,0,0.866-0.056,1.226-0.162c0.358-0.105,0.673-0.222,0.943-0.343c0.272-0.124,0.504-0.236,0.692-0.342
		c0.189-0.109,0.34-0.16,0.456-0.16c0.149,0,0.249,0.058,0.301,0.174l0.332,0.669c-0.298,0.27-0.629,0.504-0.996,0.706
		c-0.368,0.199-0.746,0.363-1.14,0.493c-0.391,0.126-0.789,0.226-1.189,0.29c-0.398,0.064-0.785,0.095-1.16,0.095
		c-0.717,0-1.341-0.121-1.88-0.363s-0.965-0.598-1.28-1.064c-0.313-0.467-0.503-1.047-0.564-1.735
		c-0.061-0.689,0.028-1.48,0.269-2.377c0.194-0.723,0.486-1.397,0.876-2.025c0.391-0.626,0.854-1.172,1.393-1.633
		c0.54-0.46,1.145-0.822,1.815-1.085C312.757,54.353,313.469,54.219,314.218,54.219z M313.897,55.57c-0.88,0-1.64,0.252-2.281,0.761
		c-0.639,0.505-1.142,1.207-1.505,2.104h5.637c0.113-0.424,0.158-0.809,0.136-1.157c-0.021-0.351-0.111-0.654-0.269-0.907
		c-0.156-0.255-0.376-0.454-0.662-0.593C314.667,55.638,314.313,55.57,313.897,55.57z M325.623,64.755h-0.808
		c-0.178,0-0.313-0.026-0.407-0.082c-0.095-0.054-0.135-0.174-0.121-0.351l0.053-0.965c-0.338,0.246-0.663,0.467-0.975,0.662
		c-0.312,0.197-0.628,0.36-0.95,0.493s-0.653,0.236-0.995,0.304c-0.342,0.068-0.713,0.103-1.108,0.103
		c-0.402,0-0.762-0.058-1.082-0.17c-0.322-0.114-0.583-0.284-0.781-0.509c-0.199-0.226-0.328-0.511-0.387-0.859
		c-0.063-0.344-0.03-0.754,0.097-1.229c0.109-0.411,0.329-0.807,0.654-1.186c0.328-0.382,0.783-0.719,1.364-1.017
		c0.58-0.293,1.299-0.535,2.16-0.722c0.863-0.188,1.881-0.283,3.053-0.283l0.219-0.815c0.217-0.809,0.21-1.421-0.023-1.834
		c-0.233-0.416-0.688-0.624-1.363-0.624c-0.444,0-0.83,0.056-1.163,0.166c-0.334,0.114-0.631,0.24-0.889,0.379
		c-0.259,0.141-0.484,0.268-0.676,0.38c-0.188,0.112-0.365,0.17-0.521,0.17c-0.124,0-0.221-0.03-0.296-0.096
		c-0.074-0.064-0.128-0.144-0.157-0.238l-0.174-0.573c0.722-0.556,1.45-0.973,2.186-1.247c0.735-0.277,1.505-0.414,2.31-0.414
		c0.579,0,1.068,0.096,1.469,0.288c0.398,0.19,0.706,0.456,0.922,0.797c0.215,0.341,0.336,0.753,0.362,1.241
		c0.027,0.484-0.037,1.017-0.192,1.596L325.623,64.755z M321.199,63.63c0.32,0,0.622-0.031,0.906-0.095
		c0.282-0.065,0.559-0.154,0.826-0.273c0.266-0.115,0.529-0.259,0.789-0.431c0.26-0.166,0.519-0.358,0.781-0.572l0.575-2.147
		c-0.839,0-1.565,0.055-2.18,0.159c-0.616,0.106-1.129,0.242-1.544,0.416c-0.414,0.172-0.734,0.372-0.963,0.604
		c-0.229,0.231-0.385,0.491-0.461,0.781c-0.073,0.272-0.093,0.507-0.058,0.706c0.037,0.197,0.112,0.36,0.228,0.487
		c0.117,0.126,0.27,0.217,0.458,0.275C320.746,63.599,320.96,63.63,321.199,63.63z M328.385,64.755l2.778-10.372h1.085
		c0.259,0,0.389,0.126,0.389,0.378l-0.152,1.067c0.508-0.473,1.042-0.857,1.596-1.158c0.555-0.3,1.144-0.451,1.771-0.451
		c0.703,0,1.22,0.195,1.549,0.584c0.33,0.389,0.499,0.913,0.512,1.578c0.244-0.375,0.521-0.701,0.831-0.974
		c0.309-0.274,0.631-0.5,0.973-0.677c0.339-0.177,0.688-0.307,1.04-0.389c0.354-0.082,0.698-0.123,1.04-0.123
		c0.545,0,1.009,0.089,1.389,0.264c0.379,0.173,0.673,0.425,0.88,0.761c0.207,0.333,0.322,0.746,0.349,1.233
		c0.026,0.486-0.046,1.047-0.215,1.674l-1.769,6.604h-1.821l1.77-6.604c0.219-0.812,0.206-1.43-0.036-1.848
		c-0.242-0.419-0.7-0.631-1.376-0.631c-0.299,0-0.597,0.056-0.895,0.161c-0.298,0.104-0.578,0.258-0.838,0.463
		c-0.259,0.204-0.488,0.463-0.691,0.773c-0.201,0.311-0.36,0.672-0.47,1.081l-1.771,6.604h-1.82l1.771-6.604
		c0.222-0.831,0.223-1.456-0.003-1.865c-0.224-0.409-0.657-0.613-1.298-0.613c-0.45,0-0.898,0.123-1.349,0.364
		c-0.45,0.243-0.893,0.574-1.325,0.989l-2.071,7.729H328.385z"/>
</g>
</svg>
