<?xml version="1.0" encoding="utf-8"?>
<!-- Generator: Adobe Illustrator 16.0.0, SVG Export Plug-In . SVG Version: 6.00 Build 0)  -->
<!DOCTYPE svg PUBLIC "-//W3C//DTD SVG 1.1//EN" "http://www.w3.org/Graphics/SVG/1.1/DTD/svg11.dtd">
<svg version="1.1" id="Layer_1" xmlns="http://www.w3.org/2000/svg" xmlns:xlink="http://www.w3.org/1999/xlink" x="0px" y="0px"
	 width="1024px" height="152.992px" viewBox="0 0 1024 152.992" enable-background="new 0 0 1024 152.992" xml:space="preserve">
<g>
	<defs>
		<rect id="SVGID_1_" y="-576.081" width="1024" height="768"/>
	</defs>
	<clipPath id="SVGID_2_">
		<use xlink:href="#SVGID_1_"  overflow="visible"/>
	</clipPath>
	<g clip-path="url(#SVGID_2_)">
		<polygon fill-rule="evenodd" clip-rule="evenodd" fill="#0076BB" points="-200.69,56.044 474.252,26.562 1245.552,56.044 
			1245.552,75.147 -200.69,75.147 		"/>
		<g>
			<polygon fill-rule="evenodd" clip-rule="evenodd" fill="#0095D8" points="1073.452,27.431 -28.59,27.431 7.822,21.073 
				1037.038,21.073 			"/>
			<polygon fill-rule="evenodd" clip-rule="evenodd" fill="#0095D8" points="1075.277,27.749 -30.416,27.749 7.822,21.073 
				1037.038,21.073 			"/>
			<polygon fill-rule="evenodd" clip-rule="evenodd" fill="#0095D8" points="1077.105,28.067 -32.244,28.067 7.822,21.073 
				1037.038,21.073 			"/>
			<polygon fill-rule="evenodd" clip-rule="evenodd" fill="#0095D8" points="1078.933,28.388 -34.072,28.388 7.822,21.073 
				1037.038,21.073 			"/>
			<polygon fill-rule="evenodd" clip-rule="evenodd" fill="#0095D8" points="1080.759,28.706 -35.9,28.706 7.822,21.073 
				1037.038,21.073 			"/>
			<polygon fill-rule="evenodd" clip-rule="evenodd" fill="#0095D8" points="1082.587,29.024 -37.729,29.024 7.822,21.073 
				1037.038,21.073 			"/>
			<polygon fill-rule="evenodd" clip-rule="evenodd" fill="#0095D8" points="1084.416,29.345 -39.554,29.345 7.822,21.073 
				1037.038,21.073 			"/>
			<polygon fill-rule="evenodd" clip-rule="evenodd" fill="#0095D8" points="1086.243,29.663 -41.382,29.663 7.822,21.073 
				1037.038,21.073 			"/>
			<polygon fill-rule="evenodd" clip-rule="evenodd" fill="#0095D8" points="1088.072,29.981 -43.21,29.981 7.822,21.073 
				1037.038,21.073 			"/>
			<polygon fill-rule="evenodd" clip-rule="evenodd" fill="#0095D8" points="6.019,21.388 1038.842,21.388 1089.896,30.302 
				-45.036,30.302 			"/>
			<polygon fill-rule="evenodd" clip-rule="evenodd" fill="#0095D8" points="4.188,21.706 1040.67,21.706 1091.726,30.62 
				-46.864,30.62 			"/>
			<polygon fill-rule="evenodd" clip-rule="evenodd" fill="#0095D8" points="2.363,22.026 1042.498,22.026 1093.555,30.94 
				-48.692,30.94 			"/>
			<polygon fill-rule="evenodd" clip-rule="evenodd" fill="#0095D8" points="0.535,22.345 1044.324,22.345 1095.38,31.259 
				-50.521,31.259 			"/>
			<polygon fill-rule="evenodd" clip-rule="evenodd" fill="#0095D8" points="-1.293,22.665 1046.151,22.665 1097.207,31.577 
				-52.349,31.577 			"/>
			<polygon fill-rule="evenodd" clip-rule="evenodd" fill="#0095D8" points="-3.119,22.983 1047.98,22.983 1099.035,31.897 
				-54.174,31.897 			"/>
			<polygon fill-rule="evenodd" clip-rule="evenodd" fill="#0095D8" points="-4.947,23.302 1049.808,23.302 1100.863,32.216 
				-56.002,32.216 			"/>
			<polygon fill-rule="evenodd" clip-rule="evenodd" fill="#0095D8" points="-6.775,23.622 1051.637,23.622 1102.692,32.534 
				-57.831,32.534 			"/>
			<polygon fill-rule="evenodd" clip-rule="evenodd" fill="#0095D8" points="-8.604,23.94 1053.462,23.94 1104.518,32.854 
				-59.656,32.854 			"/>
			<polygon fill-rule="evenodd" clip-rule="evenodd" fill="#0095D8" points="-10.432,24.259 1055.29,24.259 1106.346,33.173 
				-61.487,33.173 			"/>
			<polygon fill-rule="evenodd" clip-rule="evenodd" fill="#0095D8" points="-12.257,24.579 1057.115,24.579 1108.174,33.491 
				-63.313,33.491 			"/>
			<polygon fill-rule="evenodd" clip-rule="evenodd" fill="#0095D8" points="-14.085,24.897 1058.946,24.897 1109.999,33.812 
				-65.141,33.812 			"/>
			<polygon fill-rule="evenodd" clip-rule="evenodd" fill="#0095D8" points="-15.914,25.216 1060.771,25.216 1111.827,34.13 
				-66.966,34.13 			"/>
			<polygon fill-rule="evenodd" clip-rule="evenodd" fill="#0095D8" points="-17.742,25.536 1062.601,25.536 1113.656,34.45 
				-68.794,34.45 			"/>
			<polygon fill-rule="evenodd" clip-rule="evenodd" fill="#0095D8" points="-19.567,25.854 1064.428,25.854 1115.484,34.769 
				-70.625,34.769 			"/>
			<polygon fill-rule="evenodd" clip-rule="evenodd" fill="#0095D8" points="-21.396,26.173 1066.254,26.173 1117.31,35.087 
				-72.451,35.087 			"/>
			<polygon fill-rule="evenodd" clip-rule="evenodd" fill="#0095D8" points="-23.224,26.493 1068.085,26.493 1119.138,35.407 
				-74.279,35.407 			"/>
			<polygon fill-rule="evenodd" clip-rule="evenodd" fill="#0095D8" points="-25.052,26.812 1069.91,26.812 1120.966,35.726 
				-76.104,35.726 			"/>
			<polygon fill-rule="evenodd" clip-rule="evenodd" fill="#0095D8" points="-26.877,27.132 1071.738,27.132 1122.795,36.044 
				-77.933,36.044 			"/>
			<polygon fill-rule="evenodd" clip-rule="evenodd" fill="#0095D8" points="-28.706,27.45 1073.566,27.45 1124.622,36.364 
				-79.761,36.364 			"/>
			<polygon fill-rule="evenodd" clip-rule="evenodd" fill="#0095D8" points="-30.534,27.769 1075.392,27.769 1126.447,36.683 
				-81.589,36.683 			"/>
			<polygon fill-rule="evenodd" clip-rule="evenodd" fill="#0095D8" points="-32.362,28.089 1077.221,28.089 1128.276,37.001 
				-83.417,37.001 			"/>
			<polygon fill-rule="evenodd" clip-rule="evenodd" fill="#0095D8" points="-34.188,28.407 1079.048,28.407 1130.104,37.321 
				-85.243,37.321 			"/>
			<polygon fill-rule="evenodd" clip-rule="evenodd" fill="#0095D8" points="-36.016,28.726 1080.877,28.726 1131.93,37.64 
				-87.071,37.64 			"/>
			<polygon fill-rule="evenodd" clip-rule="evenodd" fill="#0095D8" points="-37.844,29.046 1082.705,29.046 1133.761,37.96 
				-88.899,37.96 			"/>
			<polygon fill-rule="evenodd" clip-rule="evenodd" fill="#0095D8" points="-39.669,29.364 1084.53,29.364 1135.586,38.278 
				-90.727,38.278 			"/>
			<polygon fill-rule="evenodd" clip-rule="evenodd" fill="#0095D8" points="-41.498,29.685 1086.359,29.685 1137.414,38.597 
				-92.553,38.597 			"/>
			<polygon fill-rule="evenodd" clip-rule="evenodd" fill="#0095D8" points="-43.326,30.003 1088.187,30.003 1139.24,38.917 
				-94.381,38.917 			"/>
			<polygon fill-rule="evenodd" clip-rule="evenodd" fill="#0095D8" points="-45.154,30.321 1090.012,30.321 1141.067,39.235 
				-96.209,39.235 			"/>
			<polygon fill-rule="evenodd" clip-rule="evenodd" fill="#0095D8" points="-46.982,30.642 1091.841,30.642 1142.896,39.554 
				-98.037,39.554 			"/>
			<polygon fill-rule="evenodd" clip-rule="evenodd" fill="#0095D8" points="-48.808,30.96 1093.668,30.96 1144.725,39.874 
				-99.863,39.874 			"/>
			<polygon fill-rule="evenodd" clip-rule="evenodd" fill="#0095D8" points="-50.636,31.278 1095.497,31.278 1146.553,40.192 
				-101.691,40.192 			"/>
			<polygon fill-rule="evenodd" clip-rule="evenodd" fill="#0095D8" points="-52.464,31.599 1097.322,31.599 1148.378,40.511 
				-103.519,40.511 			"/>
			<polygon fill-rule="evenodd" clip-rule="evenodd" fill="#0095D8" points="-54.292,31.917 1099.15,31.917 1150.206,40.831 
				-105.348,40.831 			"/>
			<polygon fill-rule="evenodd" clip-rule="evenodd" fill="#0095D8" points="-56.121,32.235 1100.979,32.235 1152.035,41.149 
				-107.176,41.149 			"/>
			<polygon fill-rule="evenodd" clip-rule="evenodd" fill="#0095D8" points="-57.946,32.556 1102.808,32.556 1153.862,41.468 
				-109.001,41.468 			"/>
			<polygon fill-rule="evenodd" clip-rule="evenodd" fill="#0095D8" points="-59.774,32.874 1104.636,32.874 1155.688,41.788 
				-110.83,41.788 			"/>
			<polygon fill-rule="evenodd" clip-rule="evenodd" fill="#0095D8" points="-61.6,33.192 1106.461,33.192 1157.517,42.106 
				-112.655,42.106 			"/>
			<polygon fill-rule="evenodd" clip-rule="evenodd" fill="#0095D8" points="-63.431,33.513 1108.289,33.513 1159.344,42.427 
				-114.486,42.427 			"/>
			<polygon fill-rule="evenodd" clip-rule="evenodd" fill="#0095D8" points="-65.259,33.831 1110.117,33.831 1161.173,42.745 
				-116.312,42.745 			"/>
			<polygon fill-rule="evenodd" clip-rule="evenodd" fill="#0095D8" points="-67.084,34.151 1111.946,34.151 1163.001,43.063 
				-118.14,43.063 			"/>
			<polygon fill-rule="evenodd" clip-rule="evenodd" fill="#0095D8" points="-68.912,34.47 1113.771,34.47 1164.826,43.384 
				-119.968,43.384 			"/>
			<polygon fill-rule="evenodd" clip-rule="evenodd" fill="#0095D8" points="-70.738,34.788 1115.6,34.788 1166.655,43.702 
				-121.793,43.702 			"/>
			<polygon fill-rule="evenodd" clip-rule="evenodd" fill="#0095D8" points="-72.566,35.108 1117.427,35.108 1168.482,44.021 
				-123.622,44.021 			"/>
			<polygon fill-rule="evenodd" clip-rule="evenodd" fill="#0095D8" points="-74.394,35.427 1119.252,35.427 1170.308,44.341 
				-125.45,44.341 			"/>
			<polygon fill-rule="evenodd" clip-rule="evenodd" fill="#0095D8" points="-76.222,35.745 1121.081,35.745 1172.137,44.659 
				-127.278,44.659 			"/>
			<polygon fill-rule="evenodd" clip-rule="evenodd" fill="#0095D8" points="-78.051,36.065 1122.91,36.065 1173.965,44.979 
				-129.106,44.979 			"/>
			<polygon fill-rule="evenodd" clip-rule="evenodd" fill="#0095D8" points="-79.876,36.384 1124.737,36.384 1175.793,45.298 
				-130.932,45.298 			"/>
			<polygon fill-rule="evenodd" clip-rule="evenodd" fill="#0095D8" points="-81.704,36.702 1126.565,36.702 1177.621,45.616 
				-132.76,45.616 			"/>
			<polygon fill-rule="evenodd" clip-rule="evenodd" fill="#0095D8" points="-83.532,37.022 1128.391,37.022 1179.446,45.937 
				-134.588,45.937 			"/>
			<polygon fill-rule="evenodd" clip-rule="evenodd" fill="#0095D8" points="-85.361,37.341 1130.219,37.341 1181.275,46.255 
				-136.417,46.255 			"/>
			<polygon fill-rule="evenodd" clip-rule="evenodd" fill="#0095D8" points="-87.189,37.661 1132.048,37.661 1183.103,46.573 
				-138.242,46.573 			"/>
			<polygon fill-rule="evenodd" clip-rule="evenodd" fill="#0095D8" points="-89.014,37.979 1133.876,37.979 1184.928,46.894 
				-140.07,46.894 			"/>
			<polygon fill-rule="evenodd" clip-rule="evenodd" fill="#0095D8" points="-90.842,38.298 1135.704,38.298 1186.759,47.212 
				-141.898,47.212 			"/>
			<polygon fill-rule="evenodd" clip-rule="evenodd" fill="#0095D8" points="-92.671,38.618 1137.529,38.618 1188.584,47.53 
				-143.727,47.53 			"/>
			<polygon fill-rule="evenodd" clip-rule="evenodd" fill="#0095D8" points="-94.496,38.937 1139.357,38.937 1190.413,47.851 
				-145.552,47.851 			"/>
			<polygon fill-rule="evenodd" clip-rule="evenodd" fill="#0095D8" points="-96.327,39.255 1141.187,39.255 1192.241,48.169 
				-147.38,48.169 			"/>
			<polygon fill-rule="evenodd" clip-rule="evenodd" fill="#0095D8" points="-98.152,39.575 1143.012,39.575 1194.066,48.487 
				-149.208,48.487 			"/>
			<polygon fill-rule="evenodd" clip-rule="evenodd" fill="#0095D8" points="-99.981,39.894 1144.84,39.894 1195.896,48.808 
				-151.037,48.808 			"/>
			<polygon fill-rule="evenodd" clip-rule="evenodd" fill="#0095D8" points="-101.806,40.212 1146.668,40.212 1197.723,49.126 
				-152.862,49.126 			"/>
			<polygon fill-rule="evenodd" clip-rule="evenodd" fill="#0095D8" points="-103.634,40.532 1148.496,40.532 1199.552,49.446 
				-154.69,49.446 			"/>
			<polygon fill-rule="evenodd" clip-rule="evenodd" fill="#0095D8" points="-105.463,40.851 1150.324,40.851 1201.379,49.765 
				-156.519,49.765 			"/>
			<polygon fill-rule="evenodd" clip-rule="evenodd" fill="#0095D8" points="-107.291,41.169 1152.15,41.169 1203.205,50.083 
				-158.347,50.083 			"/>
			<polygon fill-rule="evenodd" clip-rule="evenodd" fill="#0095D8" points="-109.119,41.489 1153.978,41.489 1205.033,50.403 
				-160.172,50.403 			"/>
			<polygon fill-rule="evenodd" clip-rule="evenodd" fill="#0095D8" points="-110.944,41.808 1155.807,41.808 1206.861,50.722 
				-162,50.722 			"/>
			<polygon fill-rule="evenodd" clip-rule="evenodd" fill="#0095D8" points="-112.773,42.128 1157.631,42.128 1208.689,51.04 
				-163.829,51.04 			"/>
			<polygon fill-rule="evenodd" clip-rule="evenodd" fill="#0095D8" points="-114.601,42.446 1159.463,42.446 1210.516,51.36 
				-165.657,51.36 			"/>
			<polygon fill-rule="evenodd" clip-rule="evenodd" fill="#0095D8" points="-116.429,42.765 1161.288,42.765 1212.343,51.679 
				-167.482,51.679 			"/>
			<polygon fill-rule="evenodd" clip-rule="evenodd" fill="#0095D8" points="-118.254,43.085 1163.116,43.085 1214.172,51.997 
				-169.31,51.997 			"/>
			<polygon fill-rule="evenodd" clip-rule="evenodd" fill="#0095D8" points="-120.083,43.403 1164.941,43.403 1215.999,52.317 
				-171.139,52.317 			"/>
			<polygon fill-rule="evenodd" clip-rule="evenodd" fill="#0095D8" points="-121.911,43.722 1166.771,43.722 1217.825,52.636 
				-172.967,52.636 			"/>
			<polygon fill-rule="evenodd" clip-rule="evenodd" fill="#0095D8" points="-123.739,44.042 1168.602,44.042 1219.653,52.956 
				-174.795,52.956 			"/>
			<polygon fill-rule="evenodd" clip-rule="evenodd" fill="#0095D8" points="-125.564,44.36 1170.427,44.36 1221.481,53.274 
				-176.62,53.274 			"/>
			<polygon fill-rule="evenodd" clip-rule="evenodd" fill="#0095D8" points="-127.393,44.681 1172.254,44.681 1223.31,53.593 
				-178.449,53.593 			"/>
			<polygon fill-rule="evenodd" clip-rule="evenodd" fill="#0095D8" points="-129.221,44.999 1174.08,44.999 1225.136,53.913 
				-180.274,53.913 			"/>
			<polygon fill-rule="evenodd" clip-rule="evenodd" fill="#0095D8" points="-131.049,45.317 1175.908,45.317 1226.963,54.231 
				-182.105,54.231 			"/>
			<polygon fill-rule="evenodd" clip-rule="evenodd" fill="#0095D8" points="-132.875,45.638 1177.734,45.638 1228.792,54.55 
				-183.931,54.55 			"/>
			<polygon fill-rule="evenodd" clip-rule="evenodd" fill="#0095D8" points="-134.703,45.956 1179.564,45.956 1230.619,54.87 
				-185.759,54.87 			"/>
			<polygon fill-rule="evenodd" clip-rule="evenodd" fill="#0095D8" points="-136.531,46.274 1181.393,46.274 1232.445,55.188 
				-187.587,55.188 			"/>
			<polygon fill-rule="evenodd" clip-rule="evenodd" fill="#0095D8" points="-138.359,46.595 1183.218,46.595 1234.273,55.507 
				-189.412,55.507 			"/>
			<polygon fill-rule="evenodd" clip-rule="evenodd" fill="#0095D8" points="-140.188,46.913 1185.047,46.913 1236.102,55.827 
				-191.243,55.827 			"/>
			<polygon fill-rule="evenodd" clip-rule="evenodd" fill="#0095D8" points="-142.013,47.231 1186.872,47.231 1237.927,56.146 
				-193.069,56.146 			"/>
			<polygon fill-rule="evenodd" clip-rule="evenodd" fill="#0095D8" points="-143.841,47.552 1188.703,47.552 1239.756,56.464 
				-194.897,56.464 			"/>
			<polygon fill-rule="evenodd" clip-rule="evenodd" fill="#0095D8" points="-145.669,47.87 1190.531,47.87 1241.583,56.784 
				-196.725,56.784 			"/>
			<polygon fill-rule="evenodd" clip-rule="evenodd" fill="#0095D8" points="-147.495,48.188 1192.356,48.188 1243.412,57.103 
				-198.551,57.103 			"/>
			<polygon fill-rule="evenodd" clip-rule="evenodd" fill="#0095D8" points="-149.323,48.509 1194.185,48.509 1245.24,57.423 
				-200.379,57.423 			"/>
			<polygon fill-rule="evenodd" clip-rule="evenodd" fill="#0095D8" points="-151.151,48.827 1196.011,48.827 1245.552,57.476 
				-200.69,57.476 			"/>
			<polygon fill-rule="evenodd" clip-rule="evenodd" fill="#0095D8" points="-152.98,49.147 1197.838,49.147 1245.552,57.476 
				-200.69,57.476 			"/>
			<polygon fill-rule="evenodd" clip-rule="evenodd" fill="#0095D8" points="-154.808,49.466 1199.667,49.466 1245.552,57.476 
				-200.69,57.476 			"/>
			<polygon fill-rule="evenodd" clip-rule="evenodd" fill="#0095D8" points="-156.633,49.784 1201.494,49.784 1245.552,57.476 
				-200.69,57.476 			"/>
			<polygon fill-rule="evenodd" clip-rule="evenodd" fill="#0095D8" points="-158.461,50.104 1203.323,50.104 1245.552,57.476 
				-200.69,57.476 			"/>
			<polygon fill-rule="evenodd" clip-rule="evenodd" fill="#0095D8" points="-160.29,50.423 1205.148,50.423 1245.552,57.476 
				-200.69,57.476 			"/>
			<polygon fill-rule="evenodd" clip-rule="evenodd" fill="#0095D8" points="-162.118,50.743 1206.979,50.743 1245.552,57.476 
				-200.69,57.476 			"/>
			<defs>
				<filter id="Adobe_OpacityMaskFilter" filterUnits="userSpaceOnUse" x="-200.69" y="72.579" width="1446.242" height="63.887">
					<feColorMatrix  type="matrix" values="1 0 0 0 0  0 1 0 0 0  0 0 1 0 0  0 0 0 1 0"/>
				</filter>
			</defs>
			<mask maskUnits="userSpaceOnUse" x="-200.69" y="72.579" width="1446.242" height="63.887" id="SVGID_3_">
				<g filter="url(#Adobe_OpacityMaskFilter)">
					<linearGradient id="SVGID_4_" gradientUnits="userSpaceOnUse" x1="522.4326" y1="72.5791" x2="522.4326" y2="136.4658">
						<stop  offset="0" style="stop-color:#FFFFFF"/>
						<stop  offset="1" style="stop-color:#000000"/>
					</linearGradient>
					
						<rect x="-200.69" y="72.579" fill-rule="evenodd" clip-rule="evenodd" fill="url(#SVGID_4_)" width="1446.245" height="63.887"/>
				</g>
			</mask>
			
				<rect x="-200.69" y="72.579" opacity="0.37" mask="url(#SVGID_3_)" fill-rule="evenodd" clip-rule="evenodd" width="1446.242" height="63.887"/>
		</g>
	</g>
</g>
</svg>
