<?xml version="1.0" encoding="utf-8"?>
<!-- Generator: Adobe Illustrator 19.2.0, SVG Export Plug-In . SVG Version: 6.00 Build 0)  -->
<svg version="1.1" id="Layer_1" xmlns="http://www.w3.org/2000/svg" xmlns:xlink="http://www.w3.org/1999/xlink" x="0px" y="0px"
	 viewBox="0 0 153.3 145.9" style="enable-background:new 0 0 153.3 145.9;" xml:space="preserve">
<style type="text/css">
	.st0{opacity:0.4;enable-background:new    ;}
	.st1{fill:#FFDE9C;}
	.st2{opacity:0.5;}
	.st3{fill:#AEC90B;}
	.st4{fill:#DAE182;}
	.st5{fill:#C6D65D;}
	.st6{fill:#532913;}
	.st7{opacity:0.2;clip-path:url(#SVGID_2_);}
	.st8{fill:#020202;}
	.st9{opacity:0.5;fill:#020202;enable-background:new    ;}
	.st10{clip-path:url(#SVGID_4_);}
	.st11{fill:#FFCE03;}
	.st12{fill:#FFE42D;}
	.st13{fill:#FF3829;}
	.st14{fill:#EF5355;}
	.st15{fill:#D42C40;}
	.st16{fill:#CFE9EF;}
	.st17{fill:#CE4749;}
	.st18{fill:#E51717;}
	.st19{fill:#47BCEC;}
	.st20{fill:#E99423;}
	.st21{fill:#2F8942;}
	.st22{fill:#8A55A1;}
	.st23{fill:#EF4B53;}
	.st24{fill:#2E6A2E;}
	.st25{fill:#B6313E;}
	.st26{fill:#567C7D;}
	.st27{opacity:0.5;fill:#567C7D;enable-background:new    ;}
	.st28{fill:#6D3B40;}
	.st29{opacity:0.5;fill:#6D3B40;enable-background:new    ;}
	.st30{fill:#FFFFFF;}
	.st31{fill:#341A10;}
	.st32{fill:#C41010;}
	.st33{fill:#FCC58C;}
	.st34{fill:#F58E7A;}
	.st35{fill:#F8A882;}
	.st36{fill:#1D1D1D;}
	.st37{fill:#557878;}
	.st38{fill:#476D6C;}
	.st39{fill:#3A605D;}
	.st40{fill:#688885;}
	.st41{fill:#FFEAB3;}
	.st42{fill:#D4D4D4;}
</style>
<g>
	<polygon class="st0" points="153.3,30.7 145,145.9 8.2,145.9 0,30.7 	"/>
	<rect x="8.4" y="0" class="st1" width="136.4" height="145.9"/>
	<g class="st2">
		<path class="st3" d="M128.7,101.4c-2-1.5-4.7-1.3-6.9-2.5c-1.4-2.9-1.9-6.1-1.8-9.3c1-1.6,1.9-3.3,3.2-4.7c1.9-1.5,4-2.7,6.1-3.8
			c0.8-0.8,1.6-1.5,2.5-2.2c1.4,0.1,2.7,0.7,4.2,0.9l-0.5-1.4c0.9-0.2,1.8-0.5,2.6-0.7c1.2,0.8,2,2.6,0.7,3.6
			c-1.3,0.9-2.4-0.7-3.2-1.4c-0.2,0.4-0.5,1.1-0.7,1.5l0.3-0.2c0.8,1.5,1.7,3,3.2,4c1,2.1,1.8,4.3,1.3,6.6
			C138.5,97,133.6,100.3,128.7,101.4L128.7,101.4z M62.2,0c0.9,0.1,1.6,0.4,2.3,1c-0.7,0.8-1.3,1.5-2,2.2c-0.1,3-1.9,5.3-3.8,7.4
			c1.1,0.9,2.2,1.8,3.2,2.6c-1.2,0.9-2.6,0.7-4,0.3c-1,0.8-2.2,1.4-2.9,2.4c-1,1.3-0.7,3-0.8,4.5c-1.9,1.7-4.1,3.1-6.8,2.9
			c-0.6,0.5-1.2,1.1-1.8,1.6c-1.7-0.3-3.4-0.8-5.1-1c-0.7,0.8-1.3,1.5-2,2.2c-0.8-0.8-1.4-1.9-2.4-2.5c-1.6-0.2-3.3-0.1-4.9-0.5
			c-2.4-1.9-4.2-4.9-7.6-5.4c-0.7-1.6-1.4-3.2-2.2-4.8c0.2-1.3-0.1-2.5-1-3.4c-1-2.7-0.8-5.6,0.1-8.2c-0.3-0.4-0.7-0.8-1-1.2L62.2,0
			L62.2,0z M113.8,103.3c-2.4-0.5-6.3,0.2-6.9-3.1c-0.1-2.6,3.2-3.5,5.3-4.1c1.3,0.7,3.1,1.1,3.3,2.8
			C116,100.6,114.5,101.9,113.8,103.3L113.8,103.3z M42.6,59.7c-1.3-0.7-0.7-2.2-0.8-3.4c1.5-0.3,3.1-0.5,4.6-0.4c0,1,0.1,2,0.1,3
			C45.8,60.2,43.8,60.7,42.6,59.7L42.6,59.7z M27.3,86.3c-4,1.1-8.4-0.1-11.2-3.2c-0.6-0.9-1.3-1.8-1.9-2.6c-1.4-3.3-1.7-7-0.8-10.6
			c1.8-2.1,3.5-4.7,6.2-5.8c2.8-1.2,5.8,0.2,8.7-0.1c1.1,1.1,2.2,2.1,3.3,3.2c0,0.9,0,1.9,0.1,2.8c0.8,0.1,1.5,0.2,2.3,0.3
			c1.2,2.9,1.3,6.1,0.8,9.1C33.7,82.8,30.3,84.8,27.3,86.3L27.3,86.3z M93.4,104.5c-0.3,0.7-0.7,1.3-1,2c-0.3-0.3-1.1-1-1.5-1.3
			c-1.9-0.3-3.3-1.5-4.5-3c-0.4-1-0.8-2.1-1.1-3.1c1.6-2.2,3.1-5.2,6-5.9c3.6-1.2,7.9,1.5,8,5.4c-0.3,1.3-0.8,2.5-1.2,3.7
			c-0.8,0.2-1.6,0.3-2.4,0.5c0.2,0.8,0.5,1.6,0.7,2.5C95.4,105,94.4,104.7,93.4,104.5L93.4,104.5z M53.1,36.6
			c2.2-0.6,3.9-2.2,5.5-3.6c1.4-2,1.1-4.7,0.5-6.9c-1.5-0.8-3.1-1.4-4.6-2.1c-2.1,2.1-5.7,1.6-7.1,4.4c-1.4,1.6-0.3,3.9-0.1,5.7
			C49.2,35.1,51,36.4,53.1,36.6L53.1,36.6z M27.9,99.6c0.3-2.3,1.9-4.5,4.4-4.2c2.7,1.1,1.9,4.7,0,6.1
			C30.6,102.6,29.3,100.4,27.9,99.6L27.9,99.6z M67.2,65.5C64.9,64.7,69,63.8,67.2,65.5L67.2,65.5z M69.5,99.6
			c3.1-1.5,2.9-5.5,4.7-8c1.4-0.7,3.5-0.5,4.2-2.2c0.7-1.5,1.1-3.2,1.6-4.8c-1.2-3.8-5-5.9-8.9-5.5c-2.3-2.6-1.5-6.3-2.9-9.3
			c-0.7-3.2-4-4.3-6.3-6c-2.2,0-4.5,0.1-6.7,0c-1.4,0.7-2.9,1.2-4.5,1.4c-2.7,1.3-4.3,3.8-5.2,6.6c-1,1.6-3.3,3.5-2,5.5
			c0.8,1.4,2.1,2.3,3.3,3.3c0,1.3,0.1,2.5,0.2,3.8c0.8-0.2,1.6-0.4,2.5-0.6c0.2,0.2,0.7,0.7,0.9,0.9c-0.1,1-0.2,1.9-0.2,2.9
			c0.9-0.8,1.8-1.5,2.8-2.2c0.9,0.5,1,1.6,1.3,2.5c1.5-2.3,3.6,0.1,4.9,1.4c-0.1,1.9-1.4,3.5-2.4,5.1c-2,2.7-6.1,0.9-8.2,3.4
			c-2.8,2-3.6,6-1.9,9c1.6,3,5.7,3.6,8.7,2.5c2.6-1.8,3.3-5.4,6.1-7.2C64.3,101.2,67.1,101.1,69.5,99.6L69.5,99.6z M107.4,43.8
			c2.6-4.8-0.1-13.6-0.7-15.7c-0.5-2-2-3.4-3.6-4.6c-2.3-1.5-2.6-4.9-5.3-6c-4.4-1.1-9-2.3-13.5-1c-2.3,0.4-4,2.1-6.2,2.8
			c-2.1-0.2-4.2-1.7-6.1-0.3c0.1,0.7,0.2,2,0.3,2.6c-1.1,0.2-2.3,0.2-3.4,0.5c-1.2,2.6-2,5.5-1.6,8.4c0.3,2.7-0.2,5.4-0.8,8
			c-1.6,1.3-3.6,2.7-3.3,5.1c0.9,1,1.9,2,2.6,3.2c0.5,1.7,0.2,3.5,0.6,5.2c2.1,3.8,11.8,6.1,15.8,7.2c0.5,0.2-0.2,4.1-0.7,7.7
			c-1.4,9.9,4.2,7.6,3.4,1.2c-0.5-4.3-1.5-9.4,0.7-11.3c1.6-1.4,6.2-1,8,3.9c6.4,17.3,9.8,8.7,1.4-0.6c-5.4-6-4.3-12.4,2.8-8.5
			C125.5,67.1,102.6,52.8,107.4,43.8L107.4,43.8z M40,36.3c-1.1-0.4-1.9-1.3-2.8-2c0.3-0.7,0.7-1.5,1.1-2.2c0.5-0.3,1.4-1,1.9-1.3
			c0.9,0.8,2.4,1.3,2.2,2.7C42.6,35,41.2,35.9,40,36.3L40,36.3z M22.5,129.9c1.1,0.5,1.2,1.1,0,1.7
			C21.4,131.1,21.4,130.5,22.5,129.9z"/>
		<path class="st4" d="M145,13.4c-0.4-0.4-0.8-0.8-1.3-1.1c-1.1,1-1.5,2.5-2.4,3.6c-1.4,1.9-1.2,4.4-1.1,6.6c0.3,1.3,1,2.4,1.1,3.8
			c0.4,0.2,0.8,0.4,1.2,0.7c-0.1,0.3-0.2,0.7-0.3,1c0.1,0.3,0.4,0.8,0.5,1.1c-0.8,0.8-1.4,1.8-2.6,2.1c-1.4,0.3-2.8,0.4-4.2,0.7
			c-0.2-0.1-0.8-0.4-1-0.5c-0.1-0.3-0.2-1.1-0.3-1.5c0.2-2.5,0.6-5.3,2.6-7.2c1.1-2,0.5-4.3,0.7-6.4c0.1-2,0.7-4.1-0.3-5.9
			c-1.5-0.3-3.1-0.9-4.7-0.4c-1.9,0.5-3.7,1.2-5.6,1c-0.4-1-0.6-2.1-1.1-3.1c-0.8-0.4-1.7-0.7-2.6-0.9c-0.5,0.3-1,0.7-1.5,1
			c-0.8-1.9-2.3-3.6-4.4-3.9c-1,0-2,0.2-3.1,0.3c-0.4-1-0.1-2.9-1.6-3.1c-0.7-0.3-2,0-2.3-0.9c0-0.1,0.1-0.3,0.2-0.4H145L145,13.4
			L145,13.4z M90.9,0c0.1,0.4,0.3,1.3,0.3,1.7c1.1,0.4,2.3,0.7,3.5,0.9c0.3,0.8,0.8,1.5,1.4,2.2c0.8-0.2,1.5-0.4,2.2-0.5
			c-0.2,0.8-0.5,1.5-0.8,2.2c0.5,1.5,1.6,2.6,3.1,3.2c-0.1,0.7-0.8,1.2-1.1,1.9c0.5,0.6,1.2,1,1.8,1.5c-0.4,0.2-1.2,0.7-1.5,1
			c0.2,1,0.6,2,1,3c-1,0.5-1.9,1.4-2.4,2.4c0.3,0.3,0.8,1,1,1.3c-1.2,0.4-2.3,1-2.2,2.4c-0.5,0-1,0-1.5,0c0.2,0.3,0.5,0.9,0.6,1.2
			c-0.3-0.1-1-0.4-1.3-0.6c0,0.6,0,1.1,0,1.7c-1.1,0-2.2,0.1-3.2,0.3c-0.3,0.5-0.6,1-0.9,1.5c-0.3-0.2-0.9-0.7-1.2-0.9
			c-0.2,0-0.6-0.1-0.9-0.2c-0.3,0.3-0.5,0.7-0.9,1.1c-0.4-0.4-0.9-0.8-1.3-1.2c-0.6-0.4-1.3,0.3-1.8,0.5c-0.8-0.2-1.7-0.5-2.5-0.8
			c-0.6-1.1-1.5-2-2.6-2.7c-0.5,0.2-1.1,0.4-1.8,0.7c-0.3-0.7-0.1-1.5,0-2.2c-0.6-0.3-1.2-0.6-1.8-0.9c0.2-1.4,0.2-3-0.5-4.3
			c-0.6-0.2-1.2-0.3-1.8-0.4c0.4-0.7,0.9-1.3,1.2-2.1c0-0.9-0.6-1.6-0.8-2.4c0.6-0.8,1.2-1.6,1.8-2.5c-0.2-0.8-0.5-1.5-0.7-2.3
			c0.5,0,0.9,0,1.4,0.1C77.6,6,78,4.9,78,3.7c2-0.3,3.3-2.1,5-2.9c2.1,0.5,4.3,0.2,6.4,0.1C89.8,0.8,90.5,0.3,90.9,0L90.9,0L90.9,0z
			 M43.8,4.4c-0.2-0.5-0.4-1.1-0.7-1.7c-0.6,0-1.2,0.1-1.8,0.2c-0.6-0.5-1.1-1.1-1.6-1.6c-0.4,0.1-0.8,0.3-1.2,0.4
			c-2.1-2-4.5,1.1-6.8-0.1c-0.1,0.4-0.2,0.8-0.3,1.2c-0.9,0.8-1.9,1.4-2.9,2.1c-0.8,1-1.3,2.1-2.2,3.1c0,0.8,0.1,1.5,0.1,2.3
			c-0.3,0.4-0.7,0.8-1,1.2c0.8,2.4,0.8,5,2.1,7.2c1.3,0.5,2.5,1.4,3.5,2.2c-0.1,0.3-0.2,1-0.3,1.3c1.1-0.1,2.2,0,3.1,0.8
			c0.5-0.2,1.1-0.5,1.6-0.7c0.3,0.6,0.7,1.2,1.1,1.8c0.6-0.5,1.1-1.1,1.7-1.4c0.7,0.1,1.3,0.3,1.9,0.5c0.9-1.2,2.4-1.4,3.8-1.8
			c0.4-1,0.7-2,1.1-2.9c0.7-0.2,1.3-0.3,2-0.4c-0.2-0.7-0.4-1.4-0.7-2c0.4-0.1,1.1-0.4,1.4-0.6c-0.2-0.7-0.5-1.5-0.7-2.2
			c0.2-0.7,0.9-1.1,1.3-1.6c-0.5-0.2-0.9-0.4-1.4-0.6c-0.1-0.4-0.1-0.9-0.2-1.3c0.3-0.5,0.6-1,0.9-1.5c-0.3-0.1-1-0.4-1.4-0.5
			c-0.3-0.5-0.5-1-0.8-1.4c0.1-0.3,0.2-1,0.3-1.3C45.3,4.7,44.6,4.6,43.8,4.4L43.8,4.4z M33.1,51.6c-0.7,1,0.7,1.6,1.5,1.9
			c0.3-0.5,0.5-1.1,0.8-1.6C35.1,50.9,33.4,50.3,33.1,51.6L33.1,51.6z M73,49.2c-0.4-1.1-1.4-1.7-2.4-2.3c-1.1,0.3-2-0.4-2.5-1.3
			c-1-0.2-2-0.4-3-0.9c-0.6,0.4-1.1,0.9-1.7,1.4c-0.4-0.6-0.9-1.2-1.4-1.8c-0.4,0.7-0.7,1.4-1.3,2c-0.9,0.2-1.4-0.8-2.1-1.1
			c-0.9,0.3-0.2,1.8-1,2.2c-1.3,0.7-2.6,1.4-4,2c0.1,0.6,0.1,1.2,0.2,1.9c-1.5,0.9-2,2.7-3.2,3.9c1.4,0.8,1.5,2.5,1,3.8
			c-0.7,0.6-2,0.7-2.2,1.7c0.8,0.3,1.6,0.4,2.4,0.4c0.3,1.2,0.7,2.4,0.9,3.6c-0.3,0.2-1,0.5-1.3,0.7c0,0.3,0,0.8,0,1.1
			c0.8-0.2,1.5-0.4,2.3-0.5c0.4,1,0.7,2,1.2,3c0.8,0.3,1.5,0.3,2.3,0.6c0.4,0.6,0.8,1.2,1.1,1.9c0.6-0.1,1.2-0.2,1.8-0.2
			c0.4,0.5,0.8,1.1,1.2,1.7c0.2-0.2,0.6-0.5,0.8-0.7c0.9,0.4,1.9,0.7,2.9,0.2c1.1,0.3,2.1,0.1,3-0.5c0.4,0,0.8,0,1.1,0
			c0.6-0.7,1.1-1.3,1.7-1.9c0.7-0.1,1.3-0.2,1.9-0.3c0.2-0.5,0.3-1.1,0.4-1.6c0.8-0.8,1.6-1.5,2.3-2.4c0.8-1.6,0.2-3.7,1.5-5.1
			c1.5-1.2-1.4-2.5-0.4-4c0.8-1.3-0.1-2.7-0.4-4C75.5,51,73.4,50.7,73,49.2L73,49.2z M62.5,26.9c-0.8-0.7-1.5,0.5-2,1
			c0.4,0.3,0.9,0.7,1.4,1C62.9,28.9,63.5,27.5,62.5,26.9L62.5,26.9z M36.9,45.1c1.4-0.1,2.8,0.2,3.7,1.4c0,0.9,0.2,1.9-0.4,2.7
			c-0.6,1-1.8,1.1-2.8,1.4c-0.8-0.8-2-1.3-2-2.5C35.3,47,36.1,46,36.9,45.1L36.9,45.1z M107.7,72.7c-1.5-0.2-3.1-0.4-4.6-0.7
			c-1.7,0.9-3,2.3-3.9,4c0,0.7,0.1,1.4,0.1,2.1c0.2,0.7,0.4,1.4,0.4,2.1c0.6,0.7,1.2,1.5,2,2c1.5,0.6,3.4,0.9,5,0
			c1.7-0.8,2.4-2.7,3.6-4.1C110.5,76,109.2,74.1,107.7,72.7L107.7,72.7z M125.2,69.3c-0.1-0.1-0.4-0.3-0.6-0.4
			c0.1-0.2,0.3-0.5,0.4-0.6c-0.9,0.3-1.9,0.1-2.7-0.3c-1.2,0.2-2.5,0.4-3.7,0.5c-0.7,0.4-1.4,0.7-2.1,1.1c-0.3,1.2-0.8,2.4-1.6,3.4
			c-0.3,1.5,0.6,2.7,0.9,4.2c-0.6,0.1-1.1-0.1-1.7-0.3c-0.5,0.3-1,0.7-1.5,1c-0.5,0.4-1,0.9-1.5,1.3c-0.2,1.5-0.5,3.3,0.5,4.6
			c2,3.1,7.3,2.5,8.9-0.7c-0.1-0.6-0.3-1.1-0.5-1.6c0.1-0.3,0.3-1,0.4-1.3c0.6,0.2,1.2,0.5,1.9,0.7c1.9,0,3.5-1.2,4-3.1
			c0.2-0.1,0.7-0.3,0.9-0.5c0.3-1.1,0.8-2.2,0.9-3.4C127.9,71.9,126.3,70.6,125.2,69.3L125.2,69.3z M128.7,34.1
			c-0.2-1.5,0.1-3-0.9-4.3c0.1-0.2,0.3-0.5,0.4-0.8c-0.1-0.8-0.2-1.7-0.3-2.5c-1.2-0.9-2.4-2-2.3-3.6c-1-0.6-2-1.1-3.2-1.4
			c-0.1-0.2-0.3-0.7-0.4-0.9c-1.3-0.4-2.5-1-3.8-1.5c-0.9,0.2-1.8,0.4-2.7,0.7c-0.3-0.2-0.7-0.4-1-0.7c-3.1-0.3-5.7,1.9-8,3.7
			c-0.6,0.4-0.8,1.2-1.2,1.9c-1.4,0.8-2,2.3-2.6,3.7c0.1,0.2,0.4,0.6,0.6,0.9c-0.1,0.1-0.4,0.2-0.6,0.3c0.6,1.3-0.1,2.4-1.1,3.3
			c0.4,0.4,0.9,0.8,1.4,1.2c0.1,1.1,0.2,2.1,0.2,3.2c-0.1,0.4-0.2,0.9-0.3,1.4c0.7,0.4,1.4,0.8,2.1,1.2c0,0.3,0.1,1.1,0.1,1.4
			c1.6,1.6,3.5,3.1,5.6,4.2c1.1,0.1,2.3-0.6,3.5-0.2c0.9,1,1.6,2.1,2.4,3.2c0,1.3-0.4,2.9,0.4,4c0.9,1.4,2.6,2,3.4,3.5
			c0.6,1.3,2.2,0.7,3.3,0.9c0.4,0.5,0.8,1.1,1.1,1.6c1.4-0.6,2.8-1.3,4.3-1.5c0.6,0.5,1.2,1,1.9,1.4c0.5-0.8,0.6-2.2,1.8-2.1
			c0.7-0.1,1.4,0,2-0.3c0.3-0.7,0.5-1.4,0.9-2c0.6-0.5,1.5-0.7,2.1-1.3c0-0.7-0.1-1.5,0.1-2.2c0.4-0.7,0.9-1.3,1.3-2
			c0-1.4,0-2.7,0.2-4c-1-1.6-1.8-3.3-2.4-5c-1.1-1.4-2.5-2.6-3.8-3.8C132.1,34.2,130.2,34.7,128.7,34.1z"/>
		<path class="st5" d="M133.3,99.7c0.1-0.2,0.1-0.4,0.2-0.7c0.7-0.3,1.4-0.7,2-1.1c0.1,0,0.2,0,0.3,0
			C135.1,98.6,134.2,99.2,133.3,99.7L133.3,99.7z M67.2,65.5C64.9,64.7,69,63.8,67.2,65.5L67.2,65.5z M69,71.9
			c-0.2-0.7-0.4-1.4-0.7-2.1c-0.7-3.2-4-4.3-6.3-6c-2.2,0-4.5,0.1-6.7,0c-0.9,0.4-1.8,0.8-2.7,1.1c0,0,0,0,0,0.1
			c-0.3,0.2-1,0.5-1.3,0.7c0,0.3,0,0.8,0,1.1c0.8-0.2,1.5-0.4,2.3-0.5c0.4,1,0.7,2,1.2,3c0.8,0.3,1.5,0.3,2.3,0.6
			c0.4,0.6,0.8,1.2,1.1,1.9c0.6-0.1,1.2-0.2,1.8-0.2c0.4,0.5,0.8,1.1,1.2,1.7c0.2-0.2,0.6-0.5,0.8-0.7c0.9,0.4,1.9,0.7,2.9,0.2
			c1.1,0.3,2.1,0.1,3-0.5C68.2,71.9,68.6,71.9,69,71.9L69,71.9z M107.3,42.9c-0.7-0.5-1.4-1.2-2-1.8c0-0.3-0.1-1.1-0.1-1.4
			c-0.7-0.4-1.4-0.8-2.1-1.2c0.1-0.4,0.2-0.9,0.3-1.4c-0.1-1.1-0.1-2.1-0.2-3.2c-0.4-0.4-0.9-0.8-1.4-1.2c1-0.9,1.7-2,1.1-3.3
			c0.2-0.1,0.4-0.3,0.6-0.3c-0.2-0.2-0.5-0.7-0.6-0.9c0.5-1.2,1-2.4,2-3.3c0.9,0.9,1.6,1.9,1.9,3.1c1.1,3.6,1.7,7.6,1.5,11.4
			C108.3,40.8,107.9,41.8,107.3,42.9L107.3,42.9z M99.1,18.4c-0.3,0.3-0.5,0.7-0.8,1c0.3,0.3,0.8,1,1,1.3c-1.2,0.4-2.3,1-2.2,2.4
			c-0.5,0-1,0-1.5,0c0.2,0.3,0.5,0.9,0.6,1.2c-0.3-0.1-1-0.4-1.3-0.6c0,0.6,0,1.1,0,1.7c-1.1,0-2.2,0.1-3.2,0.3
			c-0.3,0.5-0.6,1-0.9,1.5c-0.3-0.2-0.9-0.7-1.2-0.9c-0.2,0-0.6-0.1-0.9-0.2c-0.3,0.3-0.5,0.7-0.9,1.1c-0.4-0.4-0.9-0.8-1.3-1.2
			c-0.6-0.4-1.3,0.3-1.8,0.5c-0.8-0.2-1.7-0.5-2.5-0.8c-0.6-1.1-1.5-2-2.6-2.7c-0.5,0.2-1.1,0.4-1.8,0.7c-0.3-0.7-0.1-1.5,0-2.2
			c-0.6-0.3-1.2-0.6-1.8-0.9c0.1-0.6,0.1-1.2,0.1-1.8c0.7,0.2,1.4,0.4,2.1,0.5c2.2-0.7,3.9-2.4,6.2-2.8c4.5-1.3,9.1-0.1,13.5,1
			C98.3,17.8,98.7,18.1,99.1,18.4L99.1,18.4z M64.5,45.3c0.2-0.2,0.5-0.4,0.7-0.5c0.9,0.4,1.9,0.7,3,0.9c0.5,1,1.3,1.6,2.5,1.3
			c0.9,0.6,1.9,1.2,2.4,2.3c0.4,1.5,2.5,1.8,2.8,3.3c0.4,1.3,1.3,2.7,0.4,4c-0.5,0.8,0.1,1.5,0.5,2.2l0,0c-3.9-1.1-8.3-2.8-10.3-6.6
			c-0.4-1.7-0.1-3.5-0.6-5.2C65.4,46.4,65,45.8,64.5,45.3L64.5,45.3z M43.2,2.8c-0.6,0-1.2,0.1-1.8,0.2c-0.6-0.5-1.1-1.1-1.6-1.6
			c-0.4,0.1-0.8,0.3-1.2,0.4c-2.1-2-4.5,1.1-6.8-0.1c-0.1,0.4-0.2,0.8-0.3,1.2c-0.9,0.8-1.9,1.4-2.9,2.1c-0.8,1-1.3,2.1-2.2,3.1
			c0,0.8,0.1,1.5,0.1,2.3c-0.3,0.4-0.7,0.8-1,1.2c0.8,2.4,0.8,5,2.1,7.2c1.3,0.5,2.5,1.4,3.5,2.2c-0.1,0.3-0.2,1-0.3,1.3
			c1.1-0.1,2.2,0,3.1,0.8c0.5-0.2,1.1-0.5,1.6-0.7c0.3,0.6,0.7,1.2,1.1,1.8c0.6-0.5,1.1-1.1,1.7-1.4c0.7,0.1,1.3,0.3,1.9,0.5
			c0.9-1.2,2.4-1.4,3.8-1.8c0.4-1,0.7-2,1.1-2.9c0.7-0.2,1.3-0.3,2-0.4c-0.2-0.7-0.4-1.4-0.7-2c0.4-0.1,1.1-0.4,1.4-0.6
			c-0.2-0.7-0.5-1.5-0.7-2.2c0.2-0.7,0.9-1.1,1.3-1.6c-0.5-0.2-0.9-0.4-1.4-0.6c-0.1-0.4-0.1-0.9-0.2-1.3c0.3-0.5,0.6-1,0.9-1.5
			c-0.3-0.1-1-0.4-1.4-0.5c-0.3-0.5-0.5-1-0.8-1.4c0.1-0.3,0.2-1,0.3-1.3c-0.8-0.1-1.5-0.2-2.2-0.4C43.6,3.9,43.4,3.3,43.2,2.8z"/>
	</g>
</g>
<g>
	<g>
		<path class="st6" d="M88.7,107.8c-0.1,0-0.1,0.4,0,0.9c0.1,0.5,0.5,1.3,1.2,1.9c0.7,0.6,1.5,0.9,2,0.9c0.6,0.1,0.9,0,0.9-0.1
			c0-0.2-1.3-0.3-2.4-1.3c-0.6-0.5-0.9-1.1-1.2-1.5C89,108.1,88.8,107.8,88.7,107.8z"/>
	</g>
	<g>
		<path class="st6" d="M62.5,107.2c0.1,0,0.1,0.4,0,0.9c-0.1,0.5-0.5,1.3-1.2,1.9c-0.7,0.6-1.5,0.9-2,0.9c-0.6,0.1-0.9,0-0.9-0.1
			c0-0.2,1.3-0.3,2.4-1.3c0.6-0.5,0.9-1.1,1.2-1.5C62.2,107.5,62.4,107.2,62.5,107.2z"/>
	</g>
</g>
<g>
	<g>
		<defs>
			<rect id="SVGID_1_" x="4.4" y="0" width="136.6" height="145.9"/>
		</defs>
		<clipPath id="SVGID_2_">
			<use xlink:href="#SVGID_1_"  style="overflow:visible;"/>
		</clipPath>
		<g class="st7">
			<g>
				<g>
					<g>
						<path class="st8" d="M82.8,34.6c0,0-15.2-12.4-30.6,0.7c0,0-9.6,14-17.6,12.9c0,0-11-1.8-6.7-15.6c2.5-8,8.5-15.2,15.3-20
							C49.4,8.2,57,5.8,64.7,7c8.3,1.3,18.2,5.6,22.5,13.3C90.2,25.7,87,31,82.8,34.6z"/>
						<path class="st8" d="M51.8,11c-3.3-2.8,0.2-9.7,4-6.9c1.6,1.1,1.2,4,1,5.5L51.8,11z"/>
						<path class="st8" d="M39.4,19.2c12-14.8,36.9-14.6,47.7,1.5c0.3,0.5,0.6,1,0.9,1.5c1.4,4.7-1.5,9.2-5.2,12.4
							c0,0-15.2-12.4-30.6,0.7c0,0-3.5,5.1-8,8.9c-3.7-0.6-7.1-1.1-9-4.9C31.5,32.3,34.9,24.8,39.4,19.2z"/>
						<path class="st8" d="M89.7,48.8c0,0,17.6,63.1-3.6,122.4l-38.6,28.8c-1.4-7.5-2.7-14.9-4.1-22.4c-0.9-4.8-1.7-9.5-2.6-14.3
							c-0.1-0.6-0.2-1.1-0.3-1.7c0-0.3-0.1-0.4,0-0.7c0.1-0.2,0.2-0.5,0.3-0.7c0-0.1,0.1-0.2,0.1-0.4c0-0.2-0.1-0.3-0.3-0.5
							c-0.1-0.2-0.3-0.3-0.4-0.5c0-0.1-0.1-0.1-0.1-0.2c0-0.1,0-0.2,0-0.3c0.6-2.9,1.3-5.7,2-8.6c1.9-8,3.5-16,4.3-24.1
							c2.3-24.1,2.2-47.9-5-71.1l5.3-6.4c0,0,32.4-2.8,33.2-2.8C80.7,45.4,89.7,48.8,89.7,48.8z"/>
						<g>
							<polygon class="st8" points="95.1,111.1 105.9,108.1 116.3,96.1 118,97.6 106.8,110.5 94.8,114 							"/>
						</g>
						<path class="st8" d="M51.1,114.3l-8,8.8l-14.7,3.8l0.2,1.5l15.1-3.1l9.2-9.2C53,115.9,50.9,114.7,51.1,114.3z"/>
						<path class="st8" d="M36.7,116.4c-2.5-2.1-6.7-2.8-9.7-2.9c-2.4,0-4.8,0.3-6.9,1.4c-6.1,3-7.5,11.5-2.2,16.2
							c2,1.7,4.5,2.5,7.1,2.7c2.6,0.2,6.9,0.8,9.1-0.9c2.3-1.7,0.2-5,1.9-6.8c0.4-0.4,1-0.8,1.4-1.2c0.9-0.9,1.3-2.1,1.4-3.3
							C39.1,119.3,38.2,117.6,36.7,116.4z"/>
						<path class="st8" d="M17,117.9c-0.2-0.2-0.4-0.3-0.8-0.3c-1.8,0-2.8,5.2-1.3,5.3C15.8,122.8,18,119,17,117.9z"/>
						<path class="st8" d="M16.7,120.6c0.3,0,0.5,0,0.7,0.2c0.4,0.2,0.5,0.6,0.6,1.1c0.2,1.6-1.2,2.8-2.6,3.6
							C13,126.8,13.7,120.6,16.7,120.6z"/>
						<path class="st8" d="M59.8,103c-0.6,14.6-3.7,29.4-7.1,43.7c-1.8,7.4-3.6,14.8-5.2,22.3c-1.5,6.8,1.6,11.1,9.1,10.4
							c9.6-0.9,11.8-9.9,14.1-17.8c2.6-9,4.4-18.2,5.9-27.4c2.5-14.8,3.9-30,2.7-45c-0.6-7.4-1.7-14.9-3.1-22.2
							c-1-5.5-2.2-11-3.7-16.4c-0.2-0.9-1.1-6.2-2.2-6.5c-0.6-0.2-1.7-1.5-2.6-1.9c-1.2-0.6-2.9-0.9-4.3-0.9
							c-3.1,0.1-6.5,1.4-9.7,1.8c1.1,7.1,2.1,14.2,3,21.2C58.6,77,60.3,90.2,59.8,103z"/>
						<path class="st8" d="M25,123.9c-0.2,0.9-0.1,1.8,0.2,2.7c0.7,2,2.7,3.6,4.9,3.9c1.1,0.1,2.3-0.1,2.9-1
							c0.6-0.9,0.3-2.1,0.3-3.2c0-2.5,3.3-4.1,0.2-6c-0.9-0.6-2-0.7-3.1-0.7c-1.2,0.1-2.5,0.4-3.4,1.2
							C25.9,121.6,25.2,122.7,25,123.9z"/>
						<ellipse class="st8" cx="26.7" cy="116.8" rx="2" ry="2.1"/>
						<ellipse class="st8" cx="22.3" cy="129.8" rx="2" ry="2.1"/>
						<ellipse class="st8" cx="21" cy="122" rx="2" ry="2.1"/>
						<g>
							<path class="st8" d="M125.1,87.9c3.5,0.3,1.9,4.9,0.9,6.8c-0.6,1.3-1.6,2.5-2.9,2.8c-0.1,0.1-0.3-0.4-0.4-0.5
								c-0.1-0.1-0.1-0.3-0.1-0.4c0.1-2.2,0.3-4.4,0.8-6.5c0.1-0.5,0.2-1,0.5-1.4C124.2,88.3,124.6,87.8,125.1,87.9z"/>
							<path class="st8" d="M117.7,99c0.5,0.1,1,0.2,1.7,0.3c1,0.1,2,0.2,3,0.3c0,0,1.8-11.5,1.8-11.5c0.1-0.4-3.6,0.9-3.7,1
								c-1.7,1.1-3,2.2-3.7,4.3c-0.6,1.5-0.8,3.2-0.9,4.8C116.5,98.6,117.1,98.8,117.7,99z"/>
							<path class="st8" d="M120.6,76.3c-0.2,0.3,0.4,22.7,0.3,23c-0.1,0.3,0.1,1.4,1.2,1.8c0,0,1.2,0.6,1.7-2l2.6-22.4
								c0,0-3.5-1.4-3.9-1.3C122.1,75.6,120.6,76.3,120.6,76.3z"/>
							<path class="st8" d="M119.6,97.8c1.5-0.4,2-2.5,1.5-3.8c1.3-0.2,4.6-0.6,4.2-2.7c-0.3-1.6-2.7-0.9-3.8-0.7
								c-2.1,0.3-3.7,1.3-4.5,3.4L119.6,97.8z"/>
							<path class="st8" d="M119.6,98.1C119.7,98.1,119.7,98.1,119.6,98.1c0.7-0.2,1.2-0.6,1.5-1.3c0.4-0.8,0.5-1.7,0.2-2.6
								c1.1-0.2,3.1-0.5,3.8-1.6c0.3-0.4,0.4-0.9,0.3-1.4c-0.3-1.6-2.2-1.3-3.4-1c-0.2,0-0.4,0.1-0.6,0.1c-2.3,0.3-3.9,1.5-4.7,3.5
								c-0.1,0.1,0,0.3,0.1,0.3c0.1,0.1,0.3,0,0.3-0.1c0.7-1.9,2.1-3,4.3-3.2c0.2,0,0.4-0.1,0.6-0.1c1.4-0.3,2.7-0.4,2.9,0.6
								c0.1,0.4,0,0.7-0.2,1c-0.7,0.9-2.6,1.2-3.6,1.4l-0.2,0c-0.1,0-0.1,0.1-0.2,0.1c0,0.1,0,0.1,0,0.2c0.3,0.7,0.2,1.7-0.1,2.5
								c-0.2,0.4-0.5,0.8-1.2,1c-0.1,0-0.2,0.2-0.2,0.3C119.4,98,119.5,98.1,119.6,98.1z"/>
							<path class="st8" d="M126.4,77c-0.6-0.2-3.2-1-3.5-1c-0.2,0-0.6-0.1-1.1-0.2c-0.5,0.3-1.2,0.5-1.2,0.5c0,0.1,0,1,0,2.4
								c1,0.4,3.1,0.9,5.5,0.3L126.4,77z"/>
							<g>
								<path class="st8" d="M119.8,77.5c0,0,4.6,1.5,7.2,0.3l-0.4-9.5l-4.6-0.5L119.8,77.5z"/>
								<path class="st9" d="M120.6,77.8c0.9,0.2,2.4,0.5,3.9,0.5c0.2-2.7,0.7-9.9,0.7-10.1l0,0l-2.5-0.2L120.6,77.8z"/>
								<path class="st8" d="M125.5,72.7c0,0.3,0,0.5,0.1,0.8c0.1,0.2,0.2,0.3,0.3,0.3c0.2,0,0.4-0.2,0.4-0.4c0.2-0.5,0.1-1,0-1.5
									c0-0.2-0.1-1-0.5-1C125.6,70.9,125.5,72.3,125.5,72.7C125.5,72.6,125.5,72.6,125.5,72.7z"/>
								<path class="st8" d="M126.5,76c-0.1,0.1-0.1,0.1-0.3,0.2c-0.7,0.1-0.8-1.2-0.2-1.4C126.7,74.6,126.8,75.6,126.5,76z"/>
							</g>
							<path class="st8" d="M129.7,61c-0.5-2.1-1.6-6.5,1.2-7.4c-3.8-0.3-7.3,1.7-9.7,4.6c-1.8,2.2-2.7,5.8-1.4,8.4
								c1.7,3.4,5.6,4.1,8.6,1.7C130.2,66.5,130.2,63.1,129.7,61z"/>
							<path class="st9" d="M127.8,61.5c-0.4-1.6-1.3-5,0.9-5.8c-2.9-0.2-5.6,1.3-7.5,3.5c-1.4,1.7-2.1,4.5-1.1,6.5
								c1.4,2.6,4.4,3.2,6.6,1.3C128.2,65.8,128.2,63.2,127.8,61.5z"/>
							<path class="st9" d="M128.4,63.4c0,0.2,0.1,0.3,0.2,0.4c0.2,0.2,0.6,0.2,0.9-0.1c0.1-0.1,0.1-0.2,0.1-0.3
								c0.1-0.5,0.1-2.8-0.9-2.7C127.9,60.9,128.3,62.9,128.4,63.4z"/>
							<g>
								<path class="st8" d="M130.9,53.5c-3.8-0.3-7.3,1.7-9.7,4.6c-0.5,0.6-0.9,1.3-1.3,2.1c0.9,1.2,1.9-0.8,2.8-0.5
									c0.4,0.1,0.6,0.5,0.7,0.9c0.2,1,0.3,2.3,1.7,2c1.4-0.3,0.8-2,1.8-2.6c1-0.6,1.5,0.9,2.6,0.4C129,58,128.3,54.4,130.9,53.5z"
									/>
								<path class="st8" d="M120.3,60.5c0.8,0.4,1.7-1.1,2.5-0.9c0.4,0.1,0.6,0.5,0.7,0.9c0.2,1,0.3,2.3,1.7,2
									c1.4-0.3,0.8-2,1.8-2.6c0.2-0.1,0.3-0.1,0.4-0.1c-0.4-3,0.5-5.4,0.4-5.3C122.9,55.5,120.6,59.9,120.3,60.5z"/>
							</g>
							<g>
								<path class="st8" d="M133.9,54.5c1.8,0.2,2.4,4.8,0.2,4.9c-0.6,0-1.2-0.4-1.4-0.9c-0.4-0.9-0.6-3.8,1-4
									C133.8,54.5,133.9,54.5,133.9,54.5z"/>
								
									<ellipse transform="matrix(0.9606 -0.278 0.278 0.9606 -10.3055 39.6092)" class="st8" cx="134.5" cy="56.1" rx="0.6" ry="1.3"/>
							</g>
							<g>
								<path class="st8" d="M135.7,65c-0.6-1.4-3.6,0-1.6,1.4C135.6,67.4,136.3,66.4,135.7,65z"/>
								
									<ellipse transform="matrix(0.3189 -0.9478 0.9478 0.3189 30.4613 172.0793)" class="st8" cx="135" cy="64.8" rx="0.2" ry="0.3"/>
							</g>
						</g>
						<g>
							<g>
								<ellipse class="st8" cx="82.2" cy="76.4" rx="6.5" ry="8.7"/>
								<path class="st8" d="M79.4,76.1c1.1,0,2-1,2-2.2c0-0.8-0.4-1.5-0.9-1.9c0.5-0.3,1-0.5,1.6-0.5c2.1,0,3.8,2.3,3.8,5.1
									c0,2.8-1.7,5.1-3.8,5.1s-3.8-2.3-3.8-5.1c0-0.3,0-0.6,0.1-0.9C78.6,75.9,79,76.1,79.4,76.1z"/>
							</g>
							<circle class="st8" cx="80.1" cy="78.2" r="0.6"/>
						</g>
						<path class="st8" d="M40.8,163.3c-0.1-0.6-0.2-1.1-0.3-1.7c0-0.3-0.1-0.4,0-0.7c0.1-0.2,0.2-0.5,0.3-0.7
							c0-0.1,0.1-0.2,0.1-0.4c0-0.2-0.1-0.3-0.3-0.5c-0.1-0.2-0.3-0.3-0.4-0.5c0-0.1-0.1-0.1-0.1-0.2c0-0.1,0-0.2,0-0.3
							c0.6-2.9,1.3-5.7,2-8.6c1.9-8,3.5-16,4.3-24.1c2.3-24.1,2.2-47.9-5-71.1l2.9-3.5l7.1-3.3c1.5-0.1,3.2-0.3,5.2-0.4
							c1.2,7,2.1,14,2.9,21.1c1.3,12,1.9,24.1,1.8,36.2c-0.1,7.1-0.4,14.2-1.1,21.3c-0.5,4.6-1.4,9-2.2,13.5
							c-1.3,7.1-3.8,14-5.9,20.9c-0.5,1.7-1.5,4.3-2.7,5.7c-1.2,1.4-2.8,0.6-4.3,0.2c-0.3-0.1-3.6-0.8-3.7-1
							C41.1,164.6,41,163.9,40.8,163.3z"/>
						<g>
							<path class="st8" d="M86.3,170.4c-0.1,0.3-0.2,0.5-0.3,0.8l-38.6,28.8L40,158.6c0.4-0.2,0.8-0.3,1.2-0.4
								c2.6-0.3,7-0.5,8.7,2.1c0.6,0.8,0.8,1.8,1,2.8c1.1-4.2,5-7.4,9.4-6.5c9.8,1.9,8.6,11.1,8.6,11.1c3.1-6.9,9.6-4.4,9.6-4.4
								C82.3,164.5,84.7,167.1,86.3,170.4z"/>
							<path class="st8" d="M49.9,160.3c0.6,0.8,0.8,1.8,1,2.8c0.6-2.2,1.9-4.1,3.7-5.3c-1.3,9.1-4.1,31.8-4.1,31.8
								s-2.2,0.2-4.9,0.4L40,158.6c0.4-0.2,0.8-0.3,1.2-0.4C43.9,158,48.2,157.8,49.9,160.3z"/>
							<path class="st8" d="M50.9,163.1c1.1-4.2,5-7.4,9.4-6.5c7.7,1.5,8.6,7.4,8.6,9.9l-13.7,27l-7.1-0.8l2.5-30.5
								C50.8,162.5,50.9,162.8,50.9,163.1z"/>
						</g>
						<path class="st8" d="M44.6,184.2c7.4-1,12.9,3.3,15.7,6.2l-12.8,9.6L44.6,184.2z"/>
						<path class="st8" d="M62.6,24.3c1.7-0.5,3.6-0.8,5.7-0.8c5,0,11.4,1.8,14.4,6.1c3.9,5.7,6,12.7,7.6,19.3
							C89,48,86.6,48,85,47.6c-2.5-0.6-5.1-1-7.6-1.3c-2.4-0.3-4.8-0.6-7.2-0.9c-1.7-0.2-5.6-1.5-7.1-1l-21.5,7.7l-2.7-8.9
							c3.2-3,6.3-5.9,9.5-8.9C53,30.1,57.1,26,62.6,24.3z"/>
						<g>
							<g>
								<ellipse class="st8" cx="59.2" cy="77.3" rx="6.5" ry="8.7"/>
								<path class="st8" d="M56.4,76.9c1.1,0,2-1,2-2.2c0-0.8-0.4-1.5-0.9-1.9c0.5-0.3,1-0.5,1.6-0.5c2.1,0,3.8,2.3,3.8,5.1
									S61,82.5,59,82.5c-2.1,0-3.8-2.3-3.8-5.1c0-0.3,0-0.6,0.1-0.9C55.6,76.8,56,76.9,56.4,76.9z"/>
							</g>
							<circle class="st8" cx="57.1" cy="79.1" r="0.6"/>
						</g>
						<path class="st8" d="M88.5,55.9c0,0,0,0-0.1-0.1c-0.1-0.1-0.2-0.2-0.3-0.3c-0.3-0.3-0.7-0.6-1.3-0.9c-0.6-0.3-1.3-0.5-2.1-0.6
							C84.4,54,84,54,83.5,53.9c-0.4,0-0.9,0-1.3,0.1c-0.4,0.1-0.9,0.2-1.3,0.3c-0.4,0.1-0.8,0.3-1.1,0.5c-0.4,0.2-0.7,0.4-1,0.7
							c-0.1,0.1-0.3,0.2-0.4,0.4c-0.1,0.1-0.2,0.3-0.3,0.4c-0.2,0.3-0.4,0.5-0.5,0.7c-0.1,0.2-0.2,0.4-0.3,0.6
							c-0.2,0.3-0.2,0.5-0.2,0.5s0.2-0.1,0.5-0.3c0.1-0.1,0.3-0.2,0.5-0.3s0.5-0.2,0.7-0.3c0.1-0.1,0.3-0.1,0.4-0.2
							c0.1-0.1,0.3-0.1,0.4-0.2c0.3-0.1,0.6-0.2,0.9-0.3c0.2,0,0.3-0.1,0.5-0.1c0.2,0,0.3-0.1,0.5-0.1c0.3-0.1,0.7-0.1,1-0.2
							c0.3-0.1,0.7,0,1-0.1c0.3,0,0.7,0,1,0c0.7,0,1.3,0,1.9,0c0.6,0,1.1,0,1.4,0C88.3,56,88.5,55.9,88.5,55.9z"/>
						<path class="st8" d="M49.8,60.2c0,0,0.2-0.1,0.6-0.2c0.3-0.1,0.8-0.3,1.4-0.4c0.5-0.2,1.1-0.4,1.8-0.6c0.3-0.1,0.6-0.2,1-0.3
							c0.3-0.1,0.7-0.2,1-0.3c0.3-0.1,0.7-0.2,1-0.2c0.2,0,0.3,0,0.5-0.1c0.2,0,0.3,0,0.5,0c0.3,0,0.7,0,1,0c0.2,0,0.3,0,0.5,0
							c0.1,0,0.3,0,0.4,0.1c0.3,0,0.6,0,0.8,0.1s0.4,0.1,0.6,0.1c0.4,0.1,0.6,0.1,0.6,0.1s-0.1-0.2-0.4-0.4
							c-0.1-0.1-0.3-0.3-0.5-0.5c-0.2-0.2-0.4-0.3-0.7-0.5c-0.1-0.1-0.3-0.2-0.4-0.3c-0.2-0.1-0.3-0.1-0.5-0.2
							c-0.3-0.1-0.7-0.3-1.1-0.3c-0.4-0.1-0.8-0.1-1.3-0.1c-0.4,0-0.9,0-1.3,0.1c-0.4,0-0.8,0.2-1.3,0.3c-0.4,0.1-0.8,0.3-1.1,0.5
							c-0.7,0.4-1.3,0.8-1.7,1.3c-0.4,0.5-0.7,0.9-0.9,1.2c-0.1,0.2-0.2,0.3-0.2,0.4C49.8,60.2,49.8,60.2,49.8,60.2z"/>
						<path class="st8" d="M51.9,31.1c3.3-2.9,6.6-5.5,10.7-6.7c0.1,0,0.2-0.1,0.3-0.1c5.2,6.7,8.7,21.1,8.7,21.1l-0.7,0.1
							c-0.2,0-0.4-0.1-0.7-0.1c-1.7-0.2-5.6-1.5-7.1-1c0,0-3.3,1.2-7.3,2.6C55.2,43.3,53.2,35.6,51.9,31.1z"/>
						<path class="st8" d="M57.1,46.6c-6.4,2.3-15.5,5.5-15.5,5.5l-2.7-8.9c3.2-3,6.3-5.9,9.5-8.9c1.6-1.5,3.2-3,4.8-4.4
							C54.5,34.7,56.8,44.9,57.1,46.6z"/>
						<path class="st8" d="M41.3,58c0.7,0,1.5-0.2,2.1-0.7c18.7-15.1,45.9-5.9,46.2-5.8c1.7,0.6,3.7-0.3,4.3-2.1s-0.3-3.7-2.1-4.3
							c-1.3-0.4-31-10.5-52.6,6.9c-1.4,1.2-1.7,3.3-0.5,4.7C39.4,57.5,40.3,58,41.3,58z"/>
						<path class="st8" d="M39.8,54.6c0.2,0,0.4-0.1,0.5-0.2c17.8-14.3,41.3-9.5,50.6-6.8c0.5,0.1,0.6,0.2,0.7,0.2
							c0.5,0,0.8-0.4,0.8-0.8c0-0.4-0.3-0.8-0.7-0.8c-0.1,0-0.2-0.1-0.4-0.1c-9.5-2.8-33.7-7.7-52.1,7.1c-0.4,0.3-0.4,0.8-0.1,1.2
							C39.3,54.5,39.5,54.6,39.8,54.6z"/>
						<path class="st8" d="M84.9,19.6c0.9,1.4,1.9,4,0.7,5.5c-3.4,4.2-11.3-4.2-9.1-8.1C78.3,13.8,83.5,17.5,84.9,19.6z"/>
						<path class="st8" d="M73.3,16.8c2.7-0.6,2-4-0.6-4.3C69.6,12.1,69.7,17.7,73.3,16.8z"/>
						<path class="st8" d="M30.3,122.4c0,0.2,0,0.3,0,0.5c0.2,2.5,5.3,0,2.9-1.8C32.2,120.3,30.6,121.3,30.3,122.4z"/>
						<path class="st8" d="M26.8,116.8c0.3-0.5,1-1,1.3-0.1c0.2,0.5-0.5,1.2-1,1.1C26.6,117.6,26.6,117.2,26.8,116.8z"/>
						<path class="st8" d="M20.7,123c0,0,0,0.1,0.1,0.1c0.5,0.6,1.5,0.2,1.8-0.4c0.2-0.5,0.1-1-0.4-1.3
							C21.3,120.9,20.3,122.2,20.7,123z"/>
						<path class="st8" d="M23.5,130.6c-0.2,0.2-0.6,0.2-0.9,0c-0.9-0.6,0-2.7,1-1.9C24.2,129.1,24.1,130.2,23.5,130.6z"/>
					</g>
				</g>
				<g>
					<path class="st8" d="M54.3,87.8c0.8,2.5,3.5,2.8,5.7,2c3.3-1.2,6.7-2.4,9.8,0c0.3,0.2,0.5,0.5,0.7,0.7c0.2-0.3,0.4-0.5,0.6-0.7
						c2.5-2.2,5.5-1.5,8.4-1c2.4,0.4,5.3,0.8,7-1.3c0.6-0.7,0.9-1.7,0.7-2.5c2.7,3.8,1.1,10.3-3.4,12.1c-3.3,1.3-7.4,0.9-10.8,0
						c-1-0.3-1.9-1-2.4-1.9c-0.5,0.9-1.3,1.7-2.3,2c-3.7,1.3-8,1.6-11.8,0.2c-4.2-1.6-4.5-8.2-2.5-11.5
						C54.1,86.5,54.1,87.2,54.3,87.8z"/>
					<path class="st8" d="M77.8,89.1c-0.2,0-0.4-0.1-0.5-0.1c-1.9-0.5-6.4-0.3-6.5,2.5c0,0.8,0.5,1.6,1.2,2.1
						c0.7,0.5,1.5,0.7,2.4,0.8c1.7,0.2,3.4,0.1,5-0.4c-0.8-0.2-1.6-0.5-2.2-1c0.9,0.7,3.7-0.7,4.5-1.2c1.2-0.7,2.2-1.6,3.3-2.4
						C82.3,90,80.3,89.8,77.8,89.1z"/>
					<path class="st8" d="M63.2,93.2c0.1,0,0.2,0,0.2,0c-0.4,0.5-1.1,1-1.7,1.1c0,0,0.3,0.3,0.3,0.3c0.1,0.1,0.3,0.2,0.4,0.2
						c0.3,0.1,0.6,0.2,1,0.3c0.7,0.1,1.5,0.1,2.2-0.1c1.3-0.2,2.7-0.8,3.5-1.9c0.7-1.1,0.7-2.5-0.3-3.4c-1.5-1.2-3.3-1.1-5.1-0.6
						c-1.2,0.3-2.3,0.8-3.5,1.1c-0.4,0.1-2.8,0.8-3.1,0.5c0.6,0.6,1.4,0.9,2.2,1.1c0.8,0.2,1.6,0.1,2.4,0c-0.2,0.2-1.1,1.3-1.4,1.2
						C61.3,93.3,62.2,93.3,63.2,93.2z"/>
				</g>
			</g>
			<g>
				<g>
					<g>
						<g>
							<path class="st8" d="M71.5,111c6.8,0,12.6-0.7,14.6-1.6c0,6.2-7.1,10-14.6,10c-7.5,0-14.2-3.5-14.6-10
								C58.9,110.4,64.7,111,71.5,111z"/>
						</g>
					</g>
				</g>
				<path class="st8" d="M71.5,119.5c-5.4,0-10.3-1.8-12.8-5.2c0.1-0.6,0.2-1.2,0.3-1.5c-0.4-0.8-0.6-1.8-0.6-2.7c0,0,0-0.1,0-0.2
					c2.7,0.7,7.6,1.1,13.2,1.1c5.6,0,10.5-0.4,13.2-1.1c0,0.1,0,0.2,0,0.2c0,0.9-0.2,1.8-0.6,2.7c0.1,0.3,0.2,0.9,0.3,1.5
					C81.8,117.6,76.8,119.5,71.5,119.5z"/>
				<path class="st8" d="M82.6,113.5c0,0-4.1,2.6-12.4,2.3C73.7,116.7,79.7,115.7,82.6,113.5z"/>
			</g>
		</g>
	</g>
</g>
<g>
	<g>
		<defs>
			<rect id="SVGID_3_" x="8.4" y="0" width="136.6" height="145.9"/>
		</defs>
		<clipPath id="SVGID_4_">
			<use xlink:href="#SVGID_3_"  style="overflow:visible;"/>
		</clipPath>
		<g class="st10">
			<g>
				<g>
					<g>
						<path class="st11" d="M86.8,34.6c0,0-15.2-12.4-30.6,0.7c0,0-9.6,14-17.6,12.9c0,0-11-1.8-6.7-15.6c2.5-8,8.5-15.2,15.3-20
							C53.4,8.2,61,5.8,68.7,7c8.3,1.3,18.2,5.6,22.5,13.3C94.2,25.7,91,31,86.8,34.6z"/>
						<path class="st11" d="M55.8,11c-3.3-2.8,0.2-9.7,4-6.9c1.6,1.1,1.2,4,1,5.5L55.8,11z"/>
						<path class="st12" d="M43.4,19.2c12-14.8,36.9-14.6,47.7,1.5c0.3,0.5,0.6,1,0.9,1.5c1.4,4.7-1.5,9.2-5.2,12.4
							c0,0-15.2-12.4-30.6,0.7c0,0-3.5,5.1-8,8.9c-3.7-0.6-7.1-1.1-9-4.9C35.5,32.3,38.9,24.8,43.4,19.2z"/>
						<path class="st13" d="M93.7,48.8c0,0,17.6,63.1-3.6,122.4l-38.6,28.8c-1.4-7.5-2.7-14.9-4.1-22.4c-0.9-4.8-1.7-9.5-2.6-14.3
							c-0.1-0.6-0.2-1.1-0.3-1.7c0-0.3-0.1-0.4,0-0.7c0.1-0.2,0.2-0.5,0.3-0.7c0-0.1,0.1-0.2,0.1-0.4c0-0.2-0.1-0.3-0.3-0.5
							c-0.1-0.2-0.3-0.3-0.4-0.5c0-0.1-0.1-0.1-0.1-0.2c0-0.1,0-0.2,0-0.3c0.6-2.9,1.3-5.7,2-8.6c1.9-8,3.5-16,4.3-24.1
							c2.3-24.1,2.2-47.9-5-71.1l5.3-6.4c0,0,32.4-2.8,33.2-2.8C84.7,45.4,93.7,48.8,93.7,48.8z"/>
						<g>
							<polygon class="st14" points="99.1,111.1 109.9,108.1 120.3,96.1 122,97.6 110.8,110.5 98.8,114 							"/>
						</g>
						<path class="st15" d="M55.1,114.3l-8,8.8l-14.7,3.8l0.2,1.5l15.1-3.1l9.2-9.2C57,115.9,54.9,114.7,55.1,114.3z"/>
						<path class="st16" d="M40.7,116.4c-2.5-2.1-6.7-2.8-9.7-2.9c-2.4,0-4.8,0.3-6.9,1.4c-6.1,3-7.5,11.5-2.2,16.2
							c2,1.7,4.5,2.5,7.1,2.7c2.6,0.2,6.9,0.8,9.1-0.9c2.3-1.7,0.2-5,1.9-6.8c0.4-0.4,1-0.8,1.4-1.2c0.9-0.9,1.3-2.1,1.4-3.3
							C43.1,119.3,42.2,117.6,40.7,116.4z"/>
						<path class="st17" d="M21,117.9c-0.2-0.2-0.4-0.3-0.8-0.3c-1.8,0-2.8,5.2-1.3,5.3C19.8,122.8,22,119,21,117.9z"/>
						<path class="st14" d="M20.7,120.6c0.3,0,0.5,0,0.7,0.2c0.4,0.2,0.5,0.6,0.6,1.1c0.2,1.6-1.2,2.8-2.6,3.6
							C17,126.8,17.7,120.6,20.7,120.6z"/>
						<path class="st18" d="M63.8,103c-0.6,14.6-3.7,29.4-7.1,43.7c-1.8,7.4-3.6,14.8-5.2,22.3c-1.5,6.8,1.6,11.1,9.1,10.4
							c9.6-0.9,11.8-9.9,14.1-17.8c2.6-9,4.4-18.2,5.9-27.4c2.5-14.8,3.9-30,2.7-45c-0.6-7.4-1.7-14.9-3.1-22.2
							c-1-5.5-2.2-11-3.7-16.4c-0.2-0.9-1.1-6.2-2.2-6.5c-0.6-0.2-1.7-1.5-2.6-1.9c-1.2-0.6-2.9-0.9-4.3-0.9
							c-3.1,0.1-6.5,1.4-9.7,1.8c1.1,7.1,2.1,14.2,3,21.2C62.6,77,64.3,90.2,63.8,103z"/>
						<path class="st19" d="M29,123.9c-0.2,0.9-0.1,1.8,0.2,2.7c0.7,2,2.7,3.6,4.9,3.9c1.1,0.1,2.3-0.1,2.9-1
							c0.6-0.9,0.3-2.1,0.3-3.2c0-2.5,3.3-4.1,0.2-6c-0.9-0.6-2-0.7-3.1-0.7c-1.2,0.1-2.5,0.4-3.4,1.2
							C29.9,121.6,29.2,122.7,29,123.9z"/>
						<ellipse class="st20" cx="30.7" cy="116.8" rx="2" ry="2.1"/>
						<ellipse class="st21" cx="26.3" cy="129.8" rx="2" ry="2.1"/>
						<ellipse class="st22" cx="25" cy="122" rx="2" ry="2.1"/>
						<g>
							<path class="st23" d="M129.1,87.9c3.5,0.3,1.9,4.9,0.9,6.8c-0.6,1.3-1.6,2.5-2.9,2.8c-0.1,0.1-0.3-0.4-0.4-0.5
								c-0.1-0.1-0.1-0.3-0.1-0.4c0.1-2.2,0.3-4.4,0.8-6.5c0.1-0.5,0.2-1,0.5-1.4C128.2,88.3,128.6,87.8,129.1,87.9z"/>
							<path class="st14" d="M121.7,99c0.5,0.1,1,0.2,1.7,0.3c1,0.1,2,0.2,3,0.3c0,0,1.8-11.5,1.8-11.5c0.1-0.4-3.6,0.9-3.7,1
								c-1.7,1.1-3,2.2-3.7,4.3c-0.6,1.5-0.8,3.2-0.9,4.8C120.5,98.6,121.1,98.8,121.7,99z"/>
							<path class="st24" d="M124.6,76.3c-0.2,0.3,0.4,22.7,0.3,23c-0.1,0.3,0.1,1.4,1.2,1.8c0,0,1.2,0.6,1.7-2l2.6-22.4
								c0,0-3.5-1.4-3.9-1.3C126.1,75.6,124.6,76.3,124.6,76.3z"/>
							<path class="st14" d="M123.6,97.8c1.5-0.4,2-2.5,1.5-3.8c1.3-0.2,4.6-0.6,4.2-2.7c-0.3-1.6-2.7-0.9-3.8-0.7
								c-2.1,0.3-3.7,1.3-4.5,3.4L123.6,97.8z"/>
							<path class="st25" d="M123.6,98.1C123.7,98.1,123.7,98.1,123.6,98.1c0.7-0.2,1.2-0.6,1.5-1.3c0.4-0.8,0.5-1.7,0.2-2.6
								c1.1-0.2,3.1-0.5,3.8-1.6c0.3-0.4,0.4-0.9,0.3-1.4c-0.3-1.6-2.2-1.3-3.4-1c-0.2,0-0.4,0.1-0.6,0.1c-2.3,0.3-3.9,1.5-4.7,3.5
								c-0.1,0.1,0,0.3,0.1,0.3c0.1,0.1,0.3,0,0.3-0.1c0.7-1.9,2.1-3,4.3-3.2c0.2,0,0.4-0.1,0.6-0.1c1.4-0.3,2.7-0.4,2.9,0.6
								c0.1,0.4,0,0.7-0.2,1c-0.7,0.9-2.6,1.2-3.6,1.4l-0.2,0c-0.1,0-0.1,0.1-0.2,0.1c0,0.1,0,0.1,0,0.2c0.3,0.7,0.2,1.7-0.1,2.5
								c-0.2,0.4-0.5,0.8-1.2,1c-0.1,0-0.2,0.2-0.2,0.3C123.4,98,123.5,98.1,123.6,98.1z"/>
							<path class="st24" d="M130.4,77c-0.6-0.2-3.2-1-3.5-1c-0.2,0-0.6-0.1-1.1-0.2c-0.5,0.3-1.2,0.5-1.2,0.5c0,0.1,0,1,0,2.4
								c1,0.4,3.1,0.9,5.5,0.3L130.4,77z"/>
							<g>
								<path class="st26" d="M123.8,77.5c0,0,4.6,1.5,7.2,0.3l-0.4-9.5l-4.6-0.5L123.8,77.5z"/>
								<path class="st27" d="M124.6,77.8c0.9,0.2,2.4,0.5,3.9,0.5c0.2-2.7,0.7-9.9,0.7-10.1l0,0l-2.5-0.2L124.6,77.8z"/>
								<path class="st26" d="M129.5,72.7c0,0.3,0,0.5,0.1,0.8c0.1,0.2,0.2,0.3,0.3,0.3c0.2,0,0.4-0.2,0.4-0.4c0.2-0.5,0.1-1,0-1.5
									c0-0.2-0.1-1-0.5-1C129.6,70.9,129.5,72.3,129.5,72.7C129.5,72.6,129.5,72.6,129.5,72.7z"/>
								<path class="st26" d="M130.5,76c-0.1,0.1-0.1,0.1-0.3,0.2c-0.7,0.1-0.8-1.2-0.2-1.4C130.7,74.6,130.8,75.6,130.5,76z"/>
							</g>
							<path class="st28" d="M133.7,61c-0.5-2.1-1.6-6.5,1.2-7.4c-3.8-0.3-7.3,1.7-9.7,4.6c-1.8,2.2-2.7,5.8-1.4,8.4
								c1.7,3.4,5.6,4.1,8.6,1.7C134.2,66.5,134.2,63.1,133.7,61z"/>
							<path class="st29" d="M131.8,61.5c-0.4-1.6-1.3-5,0.9-5.8c-2.9-0.2-5.6,1.3-7.5,3.5c-1.4,1.7-2.1,4.5-1.1,6.5
								c1.4,2.6,4.4,3.2,6.6,1.3C132.2,65.8,132.2,63.2,131.8,61.5z"/>
							<path class="st29" d="M132.4,63.4c0,0.2,0.1,0.3,0.2,0.4c0.2,0.2,0.6,0.2,0.9-0.1c0.1-0.1,0.1-0.2,0.1-0.3
								c0.1-0.5,0.1-2.8-0.9-2.7C131.9,60.9,132.3,62.9,132.4,63.4z"/>
							<g>
								<path class="st19" d="M134.9,53.5c-3.8-0.3-7.3,1.7-9.7,4.6c-0.5,0.6-0.9,1.3-1.3,2.1c0.9,1.2,1.9-0.8,2.8-0.5
									c0.4,0.1,0.6,0.5,0.7,0.9c0.2,1,0.3,2.3,1.7,2c1.4-0.3,0.8-2,1.8-2.6c1-0.6,1.5,0.9,2.6,0.4C133,58,132.3,54.4,134.9,53.5z"
									/>
								<path class="st19" d="M124.3,60.5c0.8,0.4,1.7-1.1,2.5-0.9c0.4,0.1,0.6,0.5,0.7,0.9c0.2,1,0.3,2.3,1.7,2
									c1.4-0.3,0.8-2,1.8-2.6c0.2-0.1,0.3-0.1,0.4-0.1c-0.4-3,0.5-5.4,0.4-5.3C126.9,55.5,124.6,59.9,124.3,60.5z"/>
							</g>
							<g>
								<path class="st19" d="M137.9,54.5c1.8,0.2,2.4,4.8,0.2,4.9c-0.6,0-1.2-0.4-1.4-0.9c-0.4-0.9-0.6-3.8,1-4
									C137.8,54.5,137.9,54.5,137.9,54.5z"/>
								
									<ellipse transform="matrix(0.9606 -0.278 0.278 0.9606 -10.1479 40.7212)" class="st19" cx="138.5" cy="56.1" rx="0.6" ry="1.3"/>
							</g>
							<g>
								<path class="st19" d="M139.7,65c-0.6-1.4-3.6,0-1.6,1.4C139.6,67.4,140.3,66.4,139.7,65z"/>
								
									<ellipse transform="matrix(0.3189 -0.9478 0.9478 0.3189 33.1862 175.8716)" class="st19" cx="139" cy="64.8" rx="0.2" ry="0.3"/>
							</g>
						</g>
						<g>
							<g>
								<ellipse class="st30" cx="86.2" cy="76.4" rx="6.5" ry="8.7"/>
								<path class="st31" d="M83.4,76.1c1.1,0,2-1,2-2.2c0-0.8-0.4-1.5-0.9-1.9c0.5-0.3,1-0.5,1.6-0.5c2.1,0,3.8,2.3,3.8,5.1
									c0,2.8-1.7,5.1-3.8,5.1c-2.1,0-3.8-2.3-3.8-5.1c0-0.3,0-0.6,0.1-0.9C82.6,75.9,83,76.1,83.4,76.1z"/>
							</g>
							<circle class="st30" cx="84.1" cy="78.2" r="0.6"/>
						</g>
						<path class="st32" d="M44.8,163.3c-0.1-0.6-0.2-1.1-0.3-1.7c0-0.3-0.1-0.4,0-0.7c0.1-0.2,0.2-0.5,0.3-0.7
							c0-0.1,0.1-0.2,0.1-0.4c0-0.2-0.1-0.3-0.3-0.5c-0.1-0.2-0.3-0.3-0.4-0.5c0-0.1-0.1-0.1-0.1-0.2c0-0.1,0-0.2,0-0.3
							c0.6-2.9,1.3-5.7,2-8.6c1.9-8,3.5-16,4.3-24.1c2.3-24.1,2.2-47.9-5-71.1l2.9-3.5l7.1-3.3c1.5-0.1,3.2-0.3,5.2-0.4
							c1.2,7,2.1,14,2.9,21.1c1.3,12,1.9,24.1,1.8,36.2c-0.1,7.1-0.4,14.2-1.1,21.3c-0.5,4.6-1.4,9-2.2,13.5
							c-1.3,7.1-3.8,14-5.9,20.9c-0.5,1.7-1.5,4.3-2.7,5.7c-1.2,1.4-2.8,0.6-4.3,0.2c-0.3-0.1-3.6-0.8-3.7-1
							C45.1,164.6,45,163.9,44.8,163.3z"/>
						<g>
							<path class="st33" d="M90.3,170.4c-0.1,0.3-0.2,0.5-0.3,0.8l-38.6,28.8L44,158.6c0.4-0.2,0.8-0.3,1.2-0.4
								c2.6-0.3,7-0.5,8.7,2.1c0.6,0.8,0.8,1.8,1,2.8c1.1-4.2,5-7.4,9.4-6.5c9.8,1.9,8.6,11.1,8.6,11.1c3.1-6.9,9.6-4.4,9.6-4.4
								C86.3,164.5,88.7,167.1,90.3,170.4z"/>
							<path class="st34" d="M53.9,160.3c0.6,0.8,0.8,1.8,1,2.8c0.6-2.2,1.9-4.1,3.7-5.3c-1.3,9.1-4.1,31.8-4.1,31.8
								s-2.2,0.2-4.9,0.4L44,158.6c0.4-0.2,0.8-0.3,1.2-0.4C47.9,158,52.2,157.8,53.9,160.3z"/>
							<path class="st35" d="M54.9,163.1c1.1-4.2,5-7.4,9.4-6.5c7.7,1.5,8.6,7.4,8.6,9.9l-13.7,27l-7.1-0.8l2.5-30.5
								C54.8,162.5,54.9,162.8,54.9,163.1z"/>
						</g>
						<path class="st36" d="M48.6,184.2c7.4-1,12.9,3.3,15.7,6.2l-12.8,9.6L48.6,184.2z"/>
						<path class="st37" d="M66.6,24.3c1.7-0.5,3.6-0.8,5.7-0.8c5,0,11.4,1.8,14.4,6.1c3.9,5.7,6,12.7,7.6,19.3
							C93,48,90.6,48,89,47.6c-2.5-0.6-5.1-1-7.6-1.3c-2.4-0.3-4.8-0.6-7.2-0.9c-1.7-0.2-5.6-1.5-7.1-1l-21.5,7.7L43,43.2
							c3.2-3,6.3-5.9,9.5-8.9C57,30.1,61.1,26,66.6,24.3z"/>
						<g>
							<g>
								<ellipse class="st30" cx="63.2" cy="77.3" rx="6.5" ry="8.7"/>
								<path class="st31" d="M60.4,76.9c1.1,0,2-1,2-2.2c0-0.8-0.4-1.5-0.9-1.9c0.5-0.3,1-0.5,1.6-0.5c2.1,0,3.8,2.3,3.8,5.1
									S65,82.5,63,82.5c-2.1,0-3.8-2.3-3.8-5.1c0-0.3,0-0.6,0.1-0.9C59.6,76.8,60,76.9,60.4,76.9z"/>
							</g>
							<circle class="st30" cx="61.1" cy="79.1" r="0.6"/>
						</g>
						<path class="st31" d="M92.5,55.9c0,0,0,0-0.1-0.1c-0.1-0.1-0.2-0.2-0.3-0.3c-0.3-0.3-0.7-0.6-1.3-0.9
							c-0.6-0.3-1.3-0.5-2.1-0.6C88.4,54,88,54,87.5,53.9c-0.4,0-0.9,0-1.3,0.1c-0.4,0.1-0.9,0.2-1.3,0.3c-0.4,0.1-0.8,0.3-1.1,0.5
							c-0.4,0.2-0.7,0.4-1,0.7c-0.1,0.1-0.3,0.2-0.4,0.4c-0.1,0.1-0.2,0.3-0.3,0.4c-0.2,0.3-0.4,0.5-0.5,0.7
							c-0.1,0.2-0.2,0.4-0.3,0.6c-0.2,0.3-0.2,0.5-0.2,0.5s0.2-0.1,0.5-0.3c0.1-0.1,0.3-0.2,0.5-0.3s0.5-0.2,0.7-0.3
							c0.1-0.1,0.3-0.1,0.4-0.2c0.1-0.1,0.3-0.1,0.4-0.2c0.3-0.1,0.6-0.2,0.9-0.3c0.2,0,0.3-0.1,0.5-0.1c0.2,0,0.3-0.1,0.5-0.1
							c0.3-0.1,0.7-0.1,1-0.2c0.3-0.1,0.7,0,1-0.1c0.3,0,0.7,0,1,0c0.7,0,1.3,0,1.9,0c0.6,0,1.1,0,1.4,0
							C92.3,56,92.5,55.9,92.5,55.9z"/>
						<path class="st31" d="M53.8,60.2c0,0,0.2-0.1,0.6-0.2c0.3-0.1,0.8-0.3,1.4-0.4c0.5-0.2,1.1-0.4,1.8-0.6c0.3-0.1,0.6-0.2,1-0.3
							c0.3-0.1,0.7-0.2,1-0.3c0.3-0.1,0.7-0.2,1-0.2c0.2,0,0.3,0,0.5-0.1c0.2,0,0.3,0,0.5,0c0.3,0,0.7,0,1,0c0.2,0,0.3,0,0.5,0
							c0.1,0,0.3,0,0.4,0.1c0.3,0,0.6,0,0.8,0.1s0.4,0.1,0.6,0.1c0.4,0.1,0.6,0.1,0.6,0.1s-0.1-0.2-0.4-0.4
							c-0.1-0.1-0.3-0.3-0.5-0.5c-0.2-0.2-0.4-0.3-0.7-0.5c-0.1-0.1-0.3-0.2-0.4-0.3c-0.2-0.1-0.3-0.1-0.5-0.2
							c-0.3-0.1-0.7-0.3-1.1-0.3c-0.4-0.1-0.8-0.1-1.3-0.1c-0.4,0-0.9,0-1.3,0.1c-0.4,0-0.8,0.2-1.3,0.3c-0.4,0.1-0.8,0.3-1.1,0.5
							c-0.7,0.4-1.3,0.8-1.7,1.3c-0.4,0.5-0.7,0.9-0.9,1.2c-0.1,0.2-0.2,0.3-0.2,0.4C53.8,60.2,53.8,60.2,53.8,60.2z"/>
						<path class="st38" d="M55.9,31.1c3.3-2.9,6.6-5.5,10.7-6.7c0.1,0,0.2-0.1,0.3-0.1c5.2,6.7,8.7,21.1,8.7,21.1l-0.7,0.1
							c-0.2,0-0.4-0.1-0.7-0.1c-1.7-0.2-5.6-1.5-7.1-1c0,0-3.3,1.2-7.3,2.6C59.2,43.3,57.2,35.6,55.9,31.1z"/>
						<path class="st39" d="M61.1,46.6c-6.4,2.3-15.5,5.5-15.5,5.5l-2.7-8.9c3.2-3,6.3-5.9,9.5-8.9c1.6-1.5,3.2-3,4.8-4.4
							C58.5,34.7,60.8,44.9,61.1,46.6z"/>
						<path class="st40" d="M45.3,58c0.7,0,1.5-0.2,2.1-0.7c18.7-15.1,45.9-5.9,46.2-5.8c1.7,0.6,3.7-0.3,4.3-2.1s-0.3-3.7-2.1-4.3
							c-1.3-0.4-31-10.5-52.6,6.9c-1.4,1.2-1.7,3.3-0.5,4.7C43.4,57.5,44.3,58,45.3,58z"/>
						<path class="st40" d="M43.8,54.6c0.2,0,0.4-0.1,0.5-0.2c17.8-14.3,41.3-9.5,50.6-6.8c0.5,0.1,0.6,0.2,0.7,0.2
							c0.5,0,0.8-0.4,0.8-0.8c0-0.4-0.3-0.8-0.7-0.8c-0.1,0-0.2-0.1-0.4-0.1c-9.5-2.8-33.7-7.7-52.1,7.1c-0.4,0.3-0.4,0.8-0.1,1.2
							C43.3,54.5,43.5,54.6,43.8,54.6z"/>
						<path class="st41" d="M88.9,19.6c0.9,1.4,1.9,4,0.7,5.5c-3.4,4.2-11.3-4.2-9.1-8.1C82.3,13.8,87.5,17.5,88.9,19.6z"/>
						<path class="st41" d="M77.3,16.8c2.7-0.6,2-4-0.6-4.3C73.6,12.1,73.7,17.7,77.3,16.8z"/>
						<path class="st19" d="M34.3,122.4c0,0.2,0,0.3,0,0.5c0.2,2.5,5.3,0,2.9-1.8C36.2,120.3,34.6,121.3,34.3,122.4z"/>
						<path class="st20" d="M30.8,116.8c0.3-0.5,1-1,1.3-0.1c0.2,0.5-0.5,1.2-1,1.1C30.6,117.6,30.6,117.2,30.8,116.8z"/>
						<path class="st22" d="M24.7,123c0,0,0,0.1,0.1,0.1c0.5,0.6,1.5,0.2,1.8-0.4c0.2-0.5,0.1-1-0.4-1.3
							C25.3,120.9,24.3,122.2,24.7,123z"/>
						<path class="st21" d="M27.5,130.6c-0.2,0.2-0.6,0.2-0.9,0c-0.9-0.6,0-2.7,1-1.9C28.2,129.1,28.1,130.2,27.5,130.6z"/>
					</g>
				</g>
				<g>
					<path class="st31" d="M58.3,87.8c0.8,2.5,3.5,2.8,5.7,2c3.3-1.2,6.7-2.4,9.8,0c0.3,0.2,0.5,0.5,0.7,0.7
						c0.2-0.3,0.4-0.5,0.6-0.7c2.5-2.2,5.5-1.5,8.4-1c2.4,0.4,5.3,0.8,7-1.3c0.6-0.7,0.9-1.7,0.7-2.5c2.7,3.8,1.1,10.3-3.4,12.1
						c-3.3,1.3-7.4,0.9-10.8,0c-1-0.3-1.9-1-2.4-1.9c-0.5,0.9-1.3,1.7-2.3,2c-3.7,1.3-8,1.6-11.8,0.2c-4.2-1.6-4.5-8.2-2.5-11.5
						C58.1,86.5,58.1,87.2,58.3,87.8z"/>
					<path class="st31" d="M81.8,89.1c-0.2,0-0.4-0.1-0.5-0.1c-1.9-0.5-6.4-0.3-6.5,2.5c0,0.8,0.5,1.6,1.2,2.1
						c0.7,0.5,1.5,0.7,2.4,0.8c1.7,0.2,3.4,0.1,5-0.4c-0.8-0.2-1.6-0.5-2.2-1c0.9,0.7,3.7-0.7,4.5-1.2c1.2-0.7,2.2-1.6,3.3-2.4
						C86.3,90,84.3,89.8,81.8,89.1z"/>
					<path class="st31" d="M67.2,93.2c0.1,0,0.2,0,0.2,0c-0.4,0.5-1.1,1-1.7,1.1c0,0,0.3,0.3,0.3,0.3c0.1,0.1,0.3,0.2,0.4,0.2
						c0.3,0.1,0.6,0.2,1,0.3c0.7,0.1,1.5,0.1,2.2-0.1c1.3-0.2,2.7-0.8,3.5-1.9c0.7-1.1,0.7-2.5-0.3-3.4c-1.5-1.2-3.3-1.1-5.1-0.6
						c-1.2,0.3-2.3,0.8-3.5,1.1c-0.4,0.1-2.8,0.8-3.1,0.5c0.6,0.6,1.4,0.9,2.2,1.1c0.8,0.2,1.6,0.1,2.4,0c-0.2,0.2-1.1,1.3-1.4,1.2
						C65.3,93.3,66.2,93.3,67.2,93.2z"/>
				</g>
			</g>
			<g>
				<g>
					<g>
						<g>
							<path class="st6" d="M75.5,111c6.8,0,12.6-0.7,14.6-1.6c0,6.2-7.1,10-14.6,10s-14.2-3.5-14.6-10
								C62.9,110.4,68.7,111,75.5,111z"/>
						</g>
					</g>
				</g>
				<path class="st30" d="M75.5,119.5c-5.4,0-10.3-1.8-12.8-5.2c0.1-0.6,0.2-1.2,0.3-1.5c-0.4-0.8-0.6-1.8-0.6-2.7c0,0,0-0.1,0-0.2
					c2.7,0.7,7.6,1.1,13.2,1.1c5.6,0,10.5-0.4,13.2-1.1c0,0.1,0,0.2,0,0.2c0,0.9-0.2,1.8-0.6,2.7c0.1,0.3,0.2,0.9,0.3,1.5
					C85.8,117.6,80.8,119.5,75.5,119.5z"/>
				<path class="st42" d="M86.6,113.5c0,0-4.1,2.6-12.4,2.3C77.7,116.7,83.7,115.7,86.6,113.5z"/>
			</g>
		</g>
	</g>
</g>
</svg>
