<?xml version="1.0" encoding="utf-8"?>
<!-- Generator: Adobe Illustrator 19.2.0, SVG Export Plug-In . SVG Version: 6.00 Build 0)  -->
<svg version="1.1" id="Layer_1" xmlns="http://www.w3.org/2000/svg" xmlns:xlink="http://www.w3.org/1999/xlink" x="0px" y="0px"
	 viewBox="0 0 60 51.3" style="enable-background:new 0 0 60 51.3;" xml:space="preserve">
<style type="text/css">
	.st0{fill:#FFDE9C;}
	.st1{clip-path:url(#SVGID_2_);}
	.st2{opacity:0.4;enable-background:new    ;}
	.st3{opacity:0.54;}
	.st4{stroke:#A70500;stroke-width:0.1949;}
	.st5{stroke:#550007;stroke-width:0.1949;}
	.st6{stroke:#1F0101;stroke-width:0.1949;}
	.st7{opacity:0.2;}
	.st8{clip-path:url(#SVGID_5_);}
	.st9{opacity:0.88;enable-background:new    ;}
	.st10{clip-path:url(#SVGID_7_);}
	.st11{fill:url(#SVGID_8_);}
	.st12{fill:#7B3700;}
	.st13{opacity:0.4;fill:#7B3700;enable-background:new    ;}
	.st14{fill:url(#SVGID_9_);}
	.st15{fill:url(#SVGID_10_);}
	.st16{fill:#BA0001;stroke:#A70500;stroke-width:0.1949;}
	.st17{fill:#710100;stroke:#550007;stroke-width:0.1949;}
	.st18{fill:#370003;stroke:#1F0101;stroke-width:0.1949;}
	.st19{fill:url(#SVGID_11_);}
	.st20{fill:url(#SVGID_12_);}
	.st21{fill:url(#SVGID_13_);}
	.st22{clip-path:url(#SVGID_15_);}
	.st23{fill:url(#SVGID_16_);}
	.st24{fill:url(#SVGID_17_);}
	.st25{fill:url(#SVGID_18_);}
	.st26{opacity:0.88;fill:#B4605B;enable-background:new    ;}
</style>
<g>
	<g>
		<path class="st0" d="M3.2,5.5C3,7.1,1.4,9.3,0.7,10.9c-1,2.4-1.1,5.1,0.1,7.4C3.3,23,8.3,24,13.2,24c3.7,0,10.8-2.3,13.5,1.4
			c2.3,3.1-0.7,11.2-1,14.7c-0.6,6.4,9.4,6.4,10,0c0.4-5,2.1-9.9,1.4-15C36.2,19.2,31.8,16,26.5,14c-4.4-1.7-9.9-0.1-14.4,0
			c-0.9,0-1.7-0.1-2.5-0.3c0.3,0.1,0.5,0.5,0.5,1c0.2-0.7,0.5-1.3,0.8-2c1.1-2.4,2.1-4.5,2.4-7.1C14.1-0.9,4.1-0.8,3.2,5.5L3.2,5.5z
			"/>
	</g>
</g>
<g>
	<g>
		<defs>
			<rect id="SVGID_1_" x="6" y="4.3" width="54" height="47"/>
		</defs>
		<clipPath id="SVGID_2_">
			<use xlink:href="#SVGID_1_"  style="overflow:visible;"/>
		</clipPath>
		<g class="st1">
			<g>
				<g>
					<g>
						<polygon points="41.4,43.2 31.7,55.1 120.5,124 130.3,112.2 						"/>
						<polygon points="39.5,45.8 39.3,46.1 127.9,115.3 128.2,115 						"/>
						<polygon class="st2" points="33.9,52.1 33.6,52.4 122.3,121.6 122.6,121.3 						"/>
					</g>
				</g>
				<g>
					<g>
						<path d="M125.7,127.9l5.9,4.7c0,0,2.6,1.9,4.1-0.2l6-7.6c0,0,1.7-1.7-0.5-3.8l-6.3-5L125.7,127.9z"/>
					</g>
				</g>
				<rect x="119.1" y="116.7" transform="matrix(0.6115 -0.7913 0.7913 0.6115 -45.0173 146.6219)" width="15.3" height="4.9"/>
			</g>
			<g class="st3">
				<path class="st4" d="M32,55.1c0,0,0.9,0.4,1.7-0.7c0,0,0.8-0.7,0.3-1.9c0,0,1.2,0.8,0,2.2C34,54.8,33,56.1,32,55.1z"/>
				<path class="st5" d="M34.1,52.5c0,0,5.3-0.3,5.5-6.8c0,0,1.3,2.5-1.1,5.3C38.4,51.1,36.6,53.3,34.1,52.5z"/>
				<path class="st6" d="M39.5,45.7c0,0,3-1.2,2.2-2.6c0,0,0.9,0.5,0.2,1.5C41.9,44.5,41.1,45.9,39.5,45.7z"/>
			</g>
			<g class="st7">
				<g>
					<path d="M26.8,44.8l5,10.5c0,0,0.8,0.6,1.9-0.7c0,0,0.6-0.7,0.3-1.8l-6.4-8.9C27.5,43.9,27.5,44.8,26.8,44.8z"/>
					<path d="M27.5,43.9l6.4,8.8c0,0,5.4-0.2,5.6-6.9l-9.9-4C29.6,41.8,29.7,43.9,27.5,43.9z"/>
					<path d="M29.6,41.8c0,0,9.2,4.4,10,3.9c0,0,3.1-1.1,2.1-2.7l-11.4-2.5C30.3,40.6,30.6,41.3,29.6,41.8z"/>
				</g>
				<g>
					<g>
						<path id="SVGID_3_" d="M26.6,44.5c0,0,0.4,0.3,0.7-0.8c0,0,2-0.2,1.9-2c0,0,0.8-0.2,0.8-1.1l0-0.1l-5.9-1.3L24,39.4l2.5,5.2
							L26.6,44.5z"/>
					</g>
					<g>
						<defs>
							<path id="SVGID_4_" d="M26.6,44.5c0,0,0.4,0.3,0.7-0.8c0,0,2-0.2,1.9-2c0,0,0.8-0.2,0.8-1.1l0-0.1l-5.9-1.3L24,39.4l2.5,5.2
								L26.6,44.5z"/>
						</defs>
						<clipPath id="SVGID_5_">
							<use xlink:href="#SVGID_4_"  style="overflow:visible;"/>
						</clipPath>
						<g class="st8">
							<polygon points="24.1,39.3 26.7,44.5 26.7,44.7 27.6,44 							"/>
							<path d="M24.1,39.3l3.4,4.7c0,0,2.1-0.1,2.1-2.1L24.1,39.3z"/>
							<path d="M24.1,39.3l5.6,2.7c0,0,1-0.6,0.7-1.3L24.1,39.3z"/>
						</g>
					</g>
					<path class="st9" d="M26.6,44.5c0,0,0.4,0.3,0.7-0.8c0,0,2-0.2,1.9-2c0,0,0.8-0.2,0.8-1.1c0,0,0.2,0,0.3,0.1
						c0,0,0.1,0.9-0.8,1.2c0,0,0.3,2.1-2,2.1c0,0,0,0.9-0.8,0.9C26.8,44.8,26.6,44.7,26.6,44.5z"/>
				</g>
			</g>
			<g>
				<defs>
					<rect id="SVGID_6_" x="6" y="4.3" width="54" height="47"/>
				</defs>
				<clipPath id="SVGID_7_">
					<use xlink:href="#SVGID_6_"  style="overflow:visible;"/>
				</clipPath>
				<g class="st10">
					<g>
						<g>
							<g>
								
									<linearGradient id="SVGID_8_" gradientUnits="userSpaceOnUse" x1="-215.8814" y1="699.2604" x2="-202.0446" y2="691.2072" gradientTransform="matrix(1.0017 -0.3119 0.4917 1.0265 -50.267 -698.7874)">
									<stop  offset="0" style="stop-color:#7A1908"/>
									<stop  offset="0.1009" style="stop-color:#B56015"/>
									<stop  offset="0.1788" style="stop-color:#DD901E"/>
									<stop  offset="0.2174" style="stop-color:#ECA222"/>
									<stop  offset="0.2483" style="stop-color:#B66712"/>
									<stop  offset="0.2706" style="stop-color:#934008"/>
									<stop  offset="0.4114" style="stop-color:#A65313"/>
									<stop  offset="0.7254" style="stop-color:#CC792A"/>
									<stop  offset="0.751" style="stop-color:#C9762A"/>
									<stop  offset="0.7708" style="stop-color:#BF6E29"/>
									<stop  offset="0.7886" style="stop-color:#AF6028"/>
									<stop  offset="0.8052" style="stop-color:#984C27"/>
									<stop  offset="0.8102" style="stop-color:#8F4426"/>
									<stop  offset="0.9205" style="stop-color:#904625"/>
									<stop  offset="0.9601" style="stop-color:#954D24"/>
									<stop  offset="0.9883" style="stop-color:#9D5820"/>
									<stop  offset="1" style="stop-color:#A2601E"/>
								</linearGradient>
								<polygon class="st11" points="42.7,39.7 33,51.5 121.8,120.4 131.5,108.6 								"/>
								<polygon class="st12" points="40.8,42.3 40.6,42.5 129.2,111.7 129.4,111.4 								"/>
								<polygon class="st13" points="35.2,48.5 34.9,48.8 123.6,118 123.8,117.7 								"/>
							</g>
						</g>
						<g>
							<g>
								
									<linearGradient id="SVGID_9_" gradientUnits="userSpaceOnUse" x1="-147.9286" y1="810.2262" x2="-135.0256" y2="802.1008" gradientTransform="matrix(0.9348 -0.3793 0.3795 0.9351 -37.8588 -685.8858)">
									<stop  offset="0" style="stop-color:#034EA2"/>
									<stop  offset="5.550000e-002" style="stop-color:#0269B5"/>
									<stop  offset="0.1636" style="stop-color:#0199D8"/>
									<stop  offset="0.2174" style="stop-color:#00ABE5"/>
									<stop  offset="0.2652" style="stop-color:#0086CC"/>
									<stop  offset="0.7523" style="stop-color:#00ACD6"/>
									<stop  offset="0.7722" style="stop-color:#00A9D4"/>
									<stop  offset="0.7877" style="stop-color:#009FD0"/>
									<stop  offset="0.8016" style="stop-color:#008FC8"/>
									<stop  offset="0.8145" style="stop-color:#0078BC"/>
									<stop  offset="0.821" style="stop-color:#0069B5"/>
									<stop  offset="0.9234" style="stop-color:#0067B3"/>
									<stop  offset="0.9602" style="stop-color:#0060AD"/>
									<stop  offset="0.9864" style="stop-color:#0055A2"/>
									<stop  offset="0.9946" style="stop-color:#004F9D"/>
								</linearGradient>
								<path class="st14" d="M127,124.3l5.9,4.7c0,0,2.6,1.9,4.1-0.2l6-7.6c0,0,1.7-1.7-0.5-3.8l-6.3-5L127,124.3z"/>
							</g>
						</g>
						
							<linearGradient id="SVGID_10_" gradientUnits="userSpaceOnUse" x1="-420.1116" y1="726.5981" x2="-404.7309" y2="726.3579" gradientTransform="matrix(0.6114 -0.7913 0.7913 0.6114 -194.6457 -654.945)">
							<stop  offset="0" style="stop-color:#034EA2"/>
							<stop  offset="5.550000e-002" style="stop-color:#0269B5"/>
							<stop  offset="0.1636" style="stop-color:#0199D8"/>
							<stop  offset="0.2174" style="stop-color:#00ABE5"/>
							<stop  offset="0.2652" style="stop-color:#0086CC"/>
							<stop  offset="0.7523" style="stop-color:#00ACD6"/>
							<stop  offset="0.7722" style="stop-color:#00A9D4"/>
							<stop  offset="0.7877" style="stop-color:#009FD0"/>
							<stop  offset="0.8016" style="stop-color:#008FC8"/>
							<stop  offset="0.8145" style="stop-color:#0078BC"/>
							<stop  offset="0.821" style="stop-color:#0069B5"/>
							<stop  offset="0.9234" style="stop-color:#0067B3"/>
							<stop  offset="0.9602" style="stop-color:#0060AD"/>
							<stop  offset="0.9864" style="stop-color:#0055A2"/>
							<stop  offset="0.9946" style="stop-color:#004F9D"/>
						</linearGradient>
						<polygon class="st15" points="130.8,108 121.5,120.1 125.3,123.1 134.7,111 						"/>
					</g>
					<g class="st3">
						<path class="st16" d="M33.3,51.5c0,0,0.9,0.4,1.7-0.7c0,0,0.8-0.7,0.3-1.9c0,0,1.2,0.8,0,2.2C35.3,51.2,34.3,52.5,33.3,51.5z"
							/>
						<path class="st17" d="M35.3,49c0,0,5.3-0.3,5.5-6.8c0,0,1.3,2.5-1.1,5.3C39.7,47.5,37.9,49.7,35.3,49z"/>
						<path class="st18" d="M40.8,42.1c0,0,3-1.2,2.2-2.7c0,0,0.9,0.5,0.2,1.5C43.2,40.9,42.4,42.3,40.8,42.1z"/>
					</g>
					<g>
						<g>
							
								<linearGradient id="SVGID_11_" gradientUnits="userSpaceOnUse" x1="-207.2058" y1="711.2486" x2="-201.4207" y2="709.4792" gradientTransform="matrix(0.9397 -0.3608 0.3546 0.9236 -28.0293 -684.0531)">
								<stop  offset="0" style="stop-color:#F1DECD"/>
								<stop  offset="0.9058" style="stop-color:#DDB184"/>
							</linearGradient>
							<path class="st19" d="M28.1,41.2l5,10.5c0,0,0.8,0.6,1.9-0.7c0,0,0.6-0.7,0.3-1.8l-6.4-8.9C28.8,40.4,28.8,41.2,28.1,41.2z"
								/>
							
								<linearGradient id="SVGID_12_" gradientUnits="userSpaceOnUse" x1="-203.1849" y1="710.2207" x2="-196.8635" y2="706.0364" gradientTransform="matrix(0.9397 -0.3608 0.3546 0.9236 -28.0293 -684.0531)">
								<stop  offset="0" style="stop-color:#D69F67"/>
								<stop  offset="0.9946" style="stop-color:#C26329"/>
							</linearGradient>
							<path class="st20" d="M28.8,40.3l6.4,8.8c0,0,5.4-0.2,5.6-6.9l-9.9-4C30.8,38.2,31,40.4,28.8,40.3z"/>
							
								<linearGradient id="SVGID_13_" gradientUnits="userSpaceOnUse" x1="-199.4236" y1="707.6076" x2="-194.014" y2="703.8737" gradientTransform="matrix(0.9397 -0.3608 0.3546 0.9236 -28.0293 -684.0531)">
								<stop  offset="0" style="stop-color:#D69F67"/>
								<stop  offset="0.9946" style="stop-color:#C04028"/>
							</linearGradient>
							<path class="st21" d="M30.8,38.2c0,0,9.2,4.4,10,4c0,0,3.1-1.1,2.1-2.7L31.6,37C31.6,37,31.8,37.8,30.8,38.2z"/>
						</g>
						<g>
							<g>
								<defs>
									<path id="SVGID_14_" d="M27.9,41c0,0,0.4,0.3,0.7-0.8c0,0,2-0.2,1.9-2c0,0,0.8-0.2,0.8-1.1l0-0.1l-5.9-1.3l-0.1,0.3
										l2.5,5.2L27.9,41z"/>
								</defs>
								<clipPath id="SVGID_15_">
									<use xlink:href="#SVGID_14_"  style="overflow:visible;"/>
								</clipPath>
								<g class="st22">
									
										<linearGradient id="SVGID_16_" gradientUnits="userSpaceOnUse" x1="-206.732" y1="701.6106" x2="-206.069" y2="701.4828" gradientTransform="matrix(0.9397 -0.3608 0.3546 0.9236 -28.0293 -684.0531)">
										<stop  offset="0" style="stop-color:#898989"/>
										<stop  offset="0.4591" style="stop-color:#B8B8B8"/>
										<stop  offset="0.8796" style="stop-color:#DEDEDE"/>
									</linearGradient>
									<polygon class="st23" points="25.4,35.7 27.9,40.9 28,41.1 28.8,40.4 									"/>
									
										<linearGradient id="SVGID_17_" gradientUnits="userSpaceOnUse" x1="-205.8539" y1="701.7968" x2="-204.4399" y2="700.9175" gradientTransform="matrix(0.9397 -0.3608 0.3546 0.9236 -28.0293 -684.0531)">
										<stop  offset="0" style="stop-color:#555555"/>
										<stop  offset="0.5281" style="stop-color:#3A3A3A"/>
										<stop  offset="0.827" style="stop-color:#292929"/>
									</linearGradient>
									<path class="st24" d="M25.4,35.7l3.4,4.7c0,0,2.1-0.1,2.1-2.1L25.4,35.7z"/>
									
										<linearGradient id="SVGID_18_" gradientUnits="userSpaceOnUse" x1="-204.2883" y1="700.7487" x2="-203.6621" y2="700.1537" gradientTransform="matrix(0.9397 -0.3608 0.3546 0.9236 -28.0293 -684.0531)">
										<stop  offset="7.900000e-002" style="stop-color:#101010"/>
										<stop  offset="0.7212" style="stop-color:#1D1D1D"/>
									</linearGradient>
									<path class="st25" d="M25.4,35.7l5.6,2.7c0,0,1-0.6,0.7-1.3L25.4,35.7z"/>
								</g>
							</g>
							<path class="st26" d="M27.9,41c0,0,0.4,0.3,0.7-0.8c0,0,2-0.2,1.9-2c0,0,0.8-0.2,0.8-1.1c0,0,0.2,0,0.3,0.1
								c0,0,0.1,0.9-0.8,1.2c0,0,0.3,2.1-2,2.1c0,0,0,0.9-0.8,0.9C28,41.2,27.9,41.1,27.9,41z"/>
						</g>
					</g>
				</g>
			</g>
		</g>
	</g>
</g>
</svg>
