<?xml version="1.0" encoding="utf-8"?>
<!-- Generator: Adobe Illustrator 19.2.0, SVG Export Plug-In . SVG Version: 6.00 Build 0)  -->
<svg version="1.1" id="Layer_1" xmlns="http://www.w3.org/2000/svg" xmlns:xlink="http://www.w3.org/1999/xlink" x="0px" y="0px"
	 viewBox="0 0 60.5 53.3" style="enable-background:new 0 0 60.5 53.3;" xml:space="preserve">
<style type="text/css">
	.st0{fill:#FFDE9C;}
	.st1{clip-path:url(#SVGID_2_);}
	.st2{opacity:0.4;enable-background:new    ;}
	.st3{opacity:0.54;}
	.st4{stroke:#A70500;stroke-width:0.1949;}
	.st5{stroke:#550007;stroke-width:0.1949;}
	.st6{stroke:#1F0101;stroke-width:0.1949;}
	.st7{opacity:0.2;}
	.st8{clip-path:url(#SVGID_5_);}
	.st9{opacity:0.88;enable-background:new    ;}
	.st10{clip-path:url(#SVGID_7_);}
	.st11{fill:url(#SVGID_8_);}
	.st12{fill:#7B3700;}
	.st13{opacity:0.4;fill:#7B3700;enable-background:new    ;}
	.st14{fill:url(#SVGID_9_);}
	.st15{fill:url(#SVGID_10_);}
	.st16{fill:#BA0001;stroke:#A70500;stroke-width:0.1949;}
	.st17{fill:#710100;stroke:#550007;stroke-width:0.1949;}
	.st18{fill:#370003;stroke:#1F0101;stroke-width:0.1949;}
	.st19{fill:url(#SVGID_11_);}
	.st20{fill:url(#SVGID_12_);}
	.st21{fill:url(#SVGID_13_);}
	.st22{clip-path:url(#SVGID_15_);}
	.st23{fill:url(#SVGID_16_);}
	.st24{fill:url(#SVGID_17_);}
	.st25{fill:url(#SVGID_18_);}
	.st26{opacity:0.88;fill:#B4605B;enable-background:new    ;}
</style>
<g>
	<g>
		<path class="st0" d="M3.2,7.5C3.4,6,2.1,9.3,2.5,8.3c-0.6,1.3-1.1,2.6-1.7,3.9c-1.2,3-1.1,6.5,0.4,9.3c2.8,5.5,8.8,6.9,14.5,6.9
			c2.9,0,9.9-1.9,11.4,0.1c1.6,2.1-1.1,10.7-1.4,13.5c-0.8,9.6,14.2,9.6,15,0c0.5-5.3,2.1-10.3,1.3-15.7c-1-6.8-6.2-10.6-12.2-12.8
			c-4.6-1.8-10.3-0.2-15.1-0.1c-1.2,0-0.8,0-1.9-0.2c2.6,0.7,1.2,6.1,2.8,2.7c1.3-2.9,2.3-5.3,2.7-8.4C18.8,3.4,14.4,0,10.7,0
			C6.2,0,3.8,3.4,3.2,7.5L3.2,7.5z"/>
	</g>
</g>
<g>
	<g>
		<defs>
			<rect id="SVGID_1_" x="6.5" y="6.3" width="54" height="47"/>
		</defs>
		<clipPath id="SVGID_2_">
			<use xlink:href="#SVGID_1_"  style="overflow:visible;"/>
		</clipPath>
		<g class="st1">
			<g>
				<g>
					<g>
						<polygon points="42,45.3 32.2,57.1 121.1,126 130.8,114.2 						"/>
						<polygon points="40,47.9 39.8,48.1 128.4,117.3 128.7,117 						"/>
						<polygon class="st2" points="34.5,54.1 34.2,54.4 122.8,123.6 123.1,123.3 						"/>
					</g>
				</g>
				<g>
					<g>
						<path d="M126.3,129.9l5.9,4.7c0,0,2.6,1.9,4.1-0.2l6-7.6c0,0,1.7-1.7-0.5-3.8l-6.3-5L126.3,129.9z"/>
					</g>
				</g>
				<rect x="119.7" y="118.7" transform="matrix(0.6115 -0.7913 0.7913 0.6115 -46.4109 147.8184)" width="15.3" height="4.9"/>
			</g>
			<g class="st3">
				<path class="st4" d="M32.5,57.1c0,0,0.9,0.4,1.7-0.7c0,0,0.8-0.7,0.3-1.9c0,0,1.2,0.8,0,2.2C34.5,56.8,33.5,58.1,32.5,57.1z"/>
				<path class="st5" d="M34.6,54.5c0,0,5.3-0.3,5.5-6.8c0,0,1.3,2.5-1.1,5.3C38.9,53.1,37.1,55.3,34.6,54.5z"/>
				<path class="st6" d="M40,47.7c0,0,3-1.2,2.2-2.6c0,0,0.9,0.5,0.2,1.5C42.4,46.5,41.6,47.9,40,47.7z"/>
			</g>
			<g class="st7">
				<g>
					<path d="M27.3,46.8l5,10.5c0,0,0.8,0.6,1.9-0.7c0,0,0.6-0.7,0.3-1.8L28,45.9C28,45.9,28,46.8,27.3,46.8z"/>
					<path d="M28,45.9l6.4,8.8c0,0,5.4-0.2,5.6-6.9l-9.9-4C30.1,43.8,30.2,45.9,28,45.9z"/>
					<path d="M30.1,43.8c0,0,9.2,4.4,10,3.9c0,0,3.1-1.1,2.1-2.7l-11.4-2.5C30.8,42.6,31.1,43.4,30.1,43.8z"/>
				</g>
				<g>
					<g>
						<path id="SVGID_3_" d="M27.2,46.6c0,0,0.4,0.3,0.7-0.8c0,0,2-0.2,1.9-2c0,0,0.8-0.2,0.8-1.1l0-0.1l-5.9-1.3l-0.1,0.3l2.5,5.2
							L27.2,46.6z"/>
					</g>
					<g>
						<defs>
							<path id="SVGID_4_" d="M27.2,46.6c0,0,0.4,0.3,0.7-0.8c0,0,2-0.2,1.9-2c0,0,0.8-0.2,0.8-1.1l0-0.1l-5.9-1.3l-0.1,0.3l2.5,5.2
								L27.2,46.6z"/>
						</defs>
						<clipPath id="SVGID_5_">
							<use xlink:href="#SVGID_4_"  style="overflow:visible;"/>
						</clipPath>
						<g class="st8">
							<polygon points="24.7,41.3 27.2,46.5 27.2,46.7 28.1,46 							"/>
							<path d="M24.7,41.3l3.4,4.7c0,0,2.1-0.1,2.1-2.1L24.7,41.3z"/>
							<path d="M24.7,41.3l5.6,2.7c0,0,1-0.6,0.7-1.3L24.7,41.3z"/>
						</g>
					</g>
					<path class="st9" d="M27.2,46.6c0,0,0.4,0.3,0.7-0.8c0,0,2-0.2,1.9-2c0,0,0.8-0.2,0.8-1.1c0,0,0.2,0,0.3,0.1
						c0,0,0.1,0.9-0.8,1.2c0,0,0.3,2.1-2,2.1c0,0,0,0.9-0.8,0.9C27.3,46.8,27.1,46.7,27.2,46.6z"/>
				</g>
			</g>
			<g>
				<defs>
					<rect id="SVGID_6_" x="6.5" y="6.3" width="54" height="47"/>
				</defs>
				<clipPath id="SVGID_7_">
					<use xlink:href="#SVGID_6_"  style="overflow:visible;"/>
				</clipPath>
				<g class="st10">
					<g>
						<g>
							<g>
								
									<linearGradient id="SVGID_8_" gradientUnits="userSpaceOnUse" x1="-215.3599" y1="701.2778" x2="-201.5231" y2="693.2245" gradientTransform="matrix(1.0017 -0.3119 0.4917 1.0265 -51.2599 -698.6782)">
									<stop  offset="0" style="stop-color:#7A1908"/>
									<stop  offset="0.1009" style="stop-color:#B56015"/>
									<stop  offset="0.1788" style="stop-color:#DD901E"/>
									<stop  offset="0.2174" style="stop-color:#ECA222"/>
									<stop  offset="0.2483" style="stop-color:#B66712"/>
									<stop  offset="0.2706" style="stop-color:#934008"/>
									<stop  offset="0.4114" style="stop-color:#A65313"/>
									<stop  offset="0.7254" style="stop-color:#CC792A"/>
									<stop  offset="0.751" style="stop-color:#C9762A"/>
									<stop  offset="0.7708" style="stop-color:#BF6E29"/>
									<stop  offset="0.7886" style="stop-color:#AF6028"/>
									<stop  offset="0.8052" style="stop-color:#984C27"/>
									<stop  offset="0.8102" style="stop-color:#8F4426"/>
									<stop  offset="0.9205" style="stop-color:#904625"/>
									<stop  offset="0.9601" style="stop-color:#954D24"/>
									<stop  offset="0.9883" style="stop-color:#9D5820"/>
									<stop  offset="1" style="stop-color:#A2601E"/>
								</linearGradient>
								<polygon class="st11" points="43.2,41.7 33.5,53.5 122.3,122.4 132.1,110.6 								"/>
								<polygon class="st12" points="41.3,44.3 41.1,44.6 129.7,113.7 130,113.5 								"/>
								<polygon class="st13" points="35.7,50.5 35.4,50.8 124.1,120 124.4,119.7 								"/>
							</g>
						</g>
						<g>
							<g>
								
									<linearGradient id="SVGID_9_" gradientUnits="userSpaceOnUse" x1="-147.4071" y1="812.2435" x2="-134.5041" y2="804.1181" gradientTransform="matrix(0.9348 -0.3793 0.3795 0.9351 -38.5904 -685.5571)">
									<stop  offset="0" style="stop-color:#034EA2"/>
									<stop  offset="5.550000e-002" style="stop-color:#0269B5"/>
									<stop  offset="0.1636" style="stop-color:#0199D8"/>
									<stop  offset="0.2174" style="stop-color:#00ABE5"/>
									<stop  offset="0.2652" style="stop-color:#0086CC"/>
									<stop  offset="0.7523" style="stop-color:#00ACD6"/>
									<stop  offset="0.7722" style="stop-color:#00A9D4"/>
									<stop  offset="0.7877" style="stop-color:#009FD0"/>
									<stop  offset="0.8016" style="stop-color:#008FC8"/>
									<stop  offset="0.8145" style="stop-color:#0078BC"/>
									<stop  offset="0.821" style="stop-color:#0069B5"/>
									<stop  offset="0.9234" style="stop-color:#0067B3"/>
									<stop  offset="0.9602" style="stop-color:#0060AD"/>
									<stop  offset="0.9864" style="stop-color:#0055A2"/>
									<stop  offset="0.9946" style="stop-color:#004F9D"/>
								</linearGradient>
								<path class="st14" d="M127.5,126.3l5.9,4.7c0,0,2.6,1.9,4.1-0.2l6-7.6c0,0,1.7-1.7-0.5-3.8l-6.3-5L127.5,126.3z"/>
							</g>
						</g>
						
							<linearGradient id="SVGID_10_" gradientUnits="userSpaceOnUse" x1="-419.5901" y1="728.6154" x2="-404.2094" y2="728.3752" gradientTransform="matrix(0.6114 -0.7913 0.7913 0.6114 -196.0394 -653.7484)">
							<stop  offset="0" style="stop-color:#034EA2"/>
							<stop  offset="5.550000e-002" style="stop-color:#0269B5"/>
							<stop  offset="0.1636" style="stop-color:#0199D8"/>
							<stop  offset="0.2174" style="stop-color:#00ABE5"/>
							<stop  offset="0.2652" style="stop-color:#0086CC"/>
							<stop  offset="0.7523" style="stop-color:#00ACD6"/>
							<stop  offset="0.7722" style="stop-color:#00A9D4"/>
							<stop  offset="0.7877" style="stop-color:#009FD0"/>
							<stop  offset="0.8016" style="stop-color:#008FC8"/>
							<stop  offset="0.8145" style="stop-color:#0078BC"/>
							<stop  offset="0.821" style="stop-color:#0069B5"/>
							<stop  offset="0.9234" style="stop-color:#0067B3"/>
							<stop  offset="0.9602" style="stop-color:#0060AD"/>
							<stop  offset="0.9864" style="stop-color:#0055A2"/>
							<stop  offset="0.9946" style="stop-color:#004F9D"/>
						</linearGradient>
						<polygon class="st15" points="131.3,110 122,122.2 125.8,125.1 135.2,113 						"/>
					</g>
					<g class="st3">
						<path class="st16" d="M33.8,53.5c0,0,0.9,0.4,1.7-0.7c0,0,0.8-0.7,0.3-1.9c0,0,1.2,0.8,0,2.2C35.8,53.2,34.8,54.5,33.8,53.5z"
							/>
						<path class="st17" d="M35.9,51c0,0,5.3-0.3,5.5-6.8c0,0,1.3,2.5-1.1,5.3C40.2,49.5,38.4,51.7,35.9,51z"/>
						<path class="st18" d="M41.3,44.1c0,0,3-1.2,2.2-2.7c0,0,0.9,0.5,0.2,1.5C43.7,42.9,42.9,44.3,41.3,44.1z"/>
					</g>
					<g>
						<g>
							
								<linearGradient id="SVGID_11_" gradientUnits="userSpaceOnUse" x1="-206.6843" y1="713.2659" x2="-200.8992" y2="711.4966" gradientTransform="matrix(0.9397 -0.3608 0.3546 0.9236 -28.7132 -683.7108)">
								<stop  offset="0" style="stop-color:#F1DECD"/>
								<stop  offset="0.9058" style="stop-color:#DDB184"/>
							</linearGradient>
							<path class="st19" d="M28.6,43.3l5,10.5c0,0,0.8,0.6,1.9-0.7c0,0,0.6-0.7,0.3-1.8l-6.4-8.9C29.3,42.4,29.3,43.3,28.6,43.3z"
								/>
							
								<linearGradient id="SVGID_12_" gradientUnits="userSpaceOnUse" x1="-202.6634" y1="712.238" x2="-196.342" y2="708.0538" gradientTransform="matrix(0.9397 -0.3608 0.3546 0.9236 -28.7132 -683.7108)">
								<stop  offset="0" style="stop-color:#D69F67"/>
								<stop  offset="0.9946" style="stop-color:#C26329"/>
							</linearGradient>
							<path class="st20" d="M29.3,42.4l6.4,8.8c0,0,5.4-0.2,5.6-6.9l-9.9-4C31.4,40.3,31.5,42.4,29.3,42.4z"/>
							
								<linearGradient id="SVGID_13_" gradientUnits="userSpaceOnUse" x1="-198.9021" y1="709.625" x2="-193.4925" y2="705.891" gradientTransform="matrix(0.9397 -0.3608 0.3546 0.9236 -28.7132 -683.7108)">
								<stop  offset="0" style="stop-color:#D69F67"/>
								<stop  offset="0.9946" style="stop-color:#C04028"/>
							</linearGradient>
							<path class="st21" d="M31.4,40.3c0,0,9.2,4.4,10,4c0,0,3.1-1.1,2.1-2.7l-11.4-2.5C32.1,39.1,32.4,39.8,31.4,40.3z"/>
						</g>
						<g>
							<g>
								<defs>
									<path id="SVGID_14_" d="M28.4,43c0,0,0.4,0.3,0.7-0.8c0,0,2-0.2,1.9-2c0,0,0.8-0.2,0.8-1.1l0-0.1l-5.9-1.3l-0.1,0.3
										l2.5,5.2L28.4,43z"/>
								</defs>
								<clipPath id="SVGID_15_">
									<use xlink:href="#SVGID_14_"  style="overflow:visible;"/>
								</clipPath>
								<g class="st22">
									
										<linearGradient id="SVGID_16_" gradientUnits="userSpaceOnUse" x1="-206.2105" y1="703.628" x2="-205.5475" y2="703.5002" gradientTransform="matrix(0.9397 -0.3608 0.3546 0.9236 -28.7132 -683.7108)">
										<stop  offset="0" style="stop-color:#898989"/>
										<stop  offset="0.4591" style="stop-color:#B8B8B8"/>
										<stop  offset="0.8796" style="stop-color:#DEDEDE"/>
									</linearGradient>
									<polygon class="st23" points="25.9,37.7 28.5,43 28.5,43.2 29.4,42.4 									"/>
									
										<linearGradient id="SVGID_17_" gradientUnits="userSpaceOnUse" x1="-205.3324" y1="703.8141" x2="-203.9184" y2="702.9349" gradientTransform="matrix(0.9397 -0.3608 0.3546 0.9236 -28.7132 -683.7108)">
										<stop  offset="0" style="stop-color:#555555"/>
										<stop  offset="0.5281" style="stop-color:#3A3A3A"/>
										<stop  offset="0.827" style="stop-color:#292929"/>
									</linearGradient>
									<path class="st24" d="M25.9,37.7l3.4,4.7c0,0,2.1-0.1,2.1-2.1L25.9,37.7z"/>
									
										<linearGradient id="SVGID_18_" gradientUnits="userSpaceOnUse" x1="-203.7668" y1="702.766" x2="-203.1406" y2="702.1711" gradientTransform="matrix(0.9397 -0.3608 0.3546 0.9236 -28.7132 -683.7108)">
										<stop  offset="7.900000e-002" style="stop-color:#101010"/>
										<stop  offset="0.7212" style="stop-color:#1D1D1D"/>
									</linearGradient>
									<path class="st25" d="M25.9,37.7l5.6,2.7c0,0,1-0.6,0.7-1.3L25.9,37.7z"/>
								</g>
							</g>
							<path class="st26" d="M28.4,43c0,0,0.4,0.3,0.7-0.8c0,0,2-0.2,1.9-2c0,0,0.8-0.2,0.8-1.1c0,0,0.2,0,0.3,0.1
								c0,0,0.1,0.9-0.8,1.2c0,0,0.3,2.1-2,2.1c0,0,0,0.9-0.8,0.9C28.6,43.2,28.4,43.1,28.4,43z"/>
						</g>
					</g>
				</g>
			</g>
		</g>
	</g>
</g>
</svg>
