<?xml version="1.0" encoding="utf-8"?>
<!-- Generator: Adobe Illustrator 19.2.0, SVG Export Plug-In . SVG Version: 6.00 Build 0)  -->
<svg version="1.1" id="Symbol_Editing_Mode" xmlns="http://www.w3.org/2000/svg" xmlns:xlink="http://www.w3.org/1999/xlink"
	 x="0px" y="0px" viewBox="0 0 41.9 35.3" style="enable-background:new 0 0 41.9 35.3;" xml:space="preserve">
<style type="text/css">
	.st0{opacity:0.2;enable-background:new    ;}
	.st1{fill:url(#SVGID_1_);}
	.st2{fill:#39891B;}
	.st3{fill:#82E85D;}
	.st4{fill:#FFFFFF;}
</style>
<g id="Element_Checkmark_ON_1_">
	<g>
		<path class="st0" d="M40.7,9.1l-4.8-5c-1-1-2.2-1.4-2.9-0.9l-13,12.7c-1.5,1.5-3.9,1.3-5.3-0.3L9.4,9.2C8.7,8.5,7.1,9,5.9,10.2
			L1,15.1c-1,1-1.4,2.3-0.8,2.9l13.6,16.9c0.6,0.7,2.1,0.5,3.3-0.6l24.4-21.6C42.3,12,41.9,10.3,40.7,9.1z"/>
		
			<radialGradient id="SVGID_1_" cx="20.9472" cy="13.9723" r="18.7451" gradientTransform="matrix(1 0 0 -1 0 30.1628)" gradientUnits="userSpaceOnUse">
			<stop  offset="0" style="stop-color:#76DD51"/>
			<stop  offset="1" style="stop-color:#58C239"/>
		</radialGradient>
		<path class="st1" d="M40.7,6.1l-4.8-5c-1-1-2.2-1.4-2.9-0.9l-13,12.7c-1.5,1.5-3.9,1.3-5.3-0.3L9.4,6.3C8.7,5.6,7.1,6,5.9,7.2
			L1,12.2c-1,1-1.4,2.3-0.8,2.9L13.8,32c0.6,0.7,2.1,0.5,3.3-0.6L41.6,9.7C42.3,9,41.9,7.4,40.7,6.1z"/>
		<path class="st2" d="M40.5,5.9L17.1,26.6c-1.2,1.1-2.7,1.3-3.3,0.6L1.4,11.8L1,12.2c-1,1-1.4,2.3-0.8,2.9L13.8,32
			c0.6,0.7,2.1,0.5,3.3-0.6L41.6,9.7c0.7-0.7,0.3-2.4-0.8-3.6L40.5,5.9z"/>
		<g>
			<path class="st3" d="M29.2,15.9c0,0-0.4,0.4-1,1c-0.6,0.6-1.6,1.5-2.7,2.6c-1.1,1.1-2.4,2.3-3.9,3.7c-0.7,0.7-1.5,1.3-2.2,2
				c-0.4,0.3-0.8,0.7-1.1,1c-0.4,0.3-0.7,0.7-1.2,1c-0.5,0.3-1,0.6-1.6,0.7c-0.6,0.1-1.4,0.1-1.9-0.5c-0.7-0.9-1.3-1.6-1.9-2.4
				c-1.2-1.5-2.3-3-3.2-4.3c-0.9-1.3-1.7-2.3-2.2-3.1c-0.5-0.7-0.8-1.2-0.8-1.2s0.4,0.4,1,1c0.6,0.7,1.5,1.6,2.5,2.8
				c1,1.2,2.2,2.5,3.5,4c0.6,0.7,1.2,1.5,1.9,2.3c0.2,0.2,0.5,0.2,0.9,0.1c0.4-0.1,0.8-0.3,1.2-0.5c0.4-0.3,0.8-0.6,1.1-1
				c0.4-0.3,0.8-0.7,1.2-1c0.8-0.7,1.5-1.3,2.3-2c1.5-1.3,2.9-2.4,4.1-3.4c1.2-1,2.2-1.8,3-2.4C28.8,16.2,29.2,15.9,29.2,15.9z"/>
		</g>
		<path class="st4" d="M34.7,2.4c0.2,0.4-0.1,1-0.6,1.3c-0.5,0.3-1.2,0.2-1.4-0.1s0-1,0.6-1.3C33.8,1.9,34.5,2,34.7,2.4z"/>
		<path class="st4" d="M27.3,8.6c-0.2-0.4,0.8-1.3,2-2.3c1.2-1,2.3-1.8,2.6-1.5c0.3,0.3-0.3,1.6-1.6,2.7C28.9,8.6,27.5,9,27.3,8.6z"
			/>
	</g>
</g>
</svg>
