<?xml version="1.0" encoding="utf-8"?>
<!-- Generator: Adobe Illustrator 19.2.0, SVG Export Plug-In . SVG Version: 6.00 Build 0)  -->
<svg version="1.1" id="Isolation_Mode" xmlns="http://www.w3.org/2000/svg" xmlns:xlink="http://www.w3.org/1999/xlink" x="0px"
	 y="0px" viewBox="0 0 112.4 112.4" style="enable-background:new 0 0 112.4 112.4;" xml:space="preserve">
<style type="text/css">
	.st0{fill:url(#SVGID_1_);}
	.st1{opacity:0.5;fill:#FFFFFF;enable-background:new    ;}
	.st2{fill:url(#SVGID_2_);}
	.st3{fill:url(#SVGID_3_);}
	.st4{opacity:0.5;fill:url(#SVGID_4_);enable-background:new    ;}
	.st5{opacity:0.5;fill:url(#SVGID_5_);enable-background:new    ;}
	.st6{opacity:0.5;fill:url(#SVGID_6_);enable-background:new    ;}
	.st7{fill:#FFFFFF;}
	.st8{fill:url(#SVGID_7_);}
	.st9{fill:none;}
	.st10{fill:#FFC118;}
	.st11{fill:#FFDE00;}
</style>
<g>
	<g>
		
			<linearGradient id="SVGID_1_" gradientUnits="userSpaceOnUse" x1="-91.0098" y1="666.7061" x2="21.4222" y2="666.7061" gradientTransform="matrix(1 0 0 1 91.0098 -610.4896)">
			<stop  offset="0" style="stop-color:#47FFF0"/>
			<stop  offset="0.6909" style="stop-color:#00A0E4"/>
			<stop  offset="1" style="stop-color:#008CD3"/>
		</linearGradient>
		<path class="st0" d="M112.4,56.2c0,31-25.2,56.2-56.2,56.2C25.2,112.4,0,87.3,0,56.2C0,25.2,25.2,0,56.2,0
			C87.3,0,112.4,25.2,112.4,56.2z"/>
		<path class="st1" d="M62.6,28.4C71.3,22.6,80.5,17.8,90,14C80.9,6.5,69.2,2,56.5,2C27.5,2,3.9,25.5,3.9,54.6
			c0,11.5,3.7,22.1,9.9,30.8C23.2,62,41.9,42.3,62.6,28.4z"/>
		<g>
			
				<linearGradient id="SVGID_2_" gradientUnits="userSpaceOnUse" x1="-32.5089" y1="643.2161" x2="-44.8851" y2="770.444" gradientTransform="matrix(1 0 0 1 91.0098 -610.4896)">
				<stop  offset="0.1833" style="stop-color:#343333"/>
				<stop  offset="1" style="stop-color:#1D1D1B"/>
			</linearGradient>
			<path class="st2" d="M56.2,0c29.9,0,54.1,24.2,54.1,54.1c0,29.9-24.2,54.1-54.1,54.1C26.3,108.2,2.1,84,2.1,54.1
				C2.1,24.2,26.3,0,56.2,0C25.2,0,0,25.2,0,56.2c0,31,25.2,56.2,56.2,56.2c31,0,56.2-25.2,56.2-56.2C112.4,25.2,87.3,0,56.2,0z"/>
		</g>
		
			<linearGradient id="SVGID_3_" gradientUnits="userSpaceOnUse" x1="-62.1513" y1="624.8214" x2="-6.2127" y2="710.462" gradientTransform="matrix(1 0 0 1 91.0098 -610.4896)">
			<stop  offset="0" style="stop-color:#D870A9"/>
			<stop  offset="0.5" style="stop-color:#C8007F"/>
			<stop  offset="1" style="stop-color:#A11880"/>
		</linearGradient>
		<circle class="st3" cx="56.2" cy="56.2" r="40.4"/>
		
			<linearGradient id="SVGID_4_" gradientUnits="userSpaceOnUse" x1="-49.068" y1="608.3146" x2="-27.2852" y2="697.4258" gradientTransform="matrix(1 0 0 1 91.0098 -610.4896)">
			<stop  offset="0" style="stop-color:#D870A9"/>
			<stop  offset="0.5" style="stop-color:#C8007F"/>
			<stop  offset="1" style="stop-color:#A11880"/>
		</linearGradient>
		<path class="st4" d="M92.7,56.2c0,20.1-16.3,36.5-36.5,36.5c-20.1,0-36.5-16.3-36.5-36.5c0-20.1,16.3-36.5,36.5-36.5
			C76.4,19.7,92.7,36.1,92.7,56.2z"/>
		
			<linearGradient id="SVGID_5_" gradientUnits="userSpaceOnUse" x1="-31.3877" y1="661.7388" x2="72.223" y2="764.1585" gradientTransform="matrix(1 0 0 1 91.0098 -610.4896)">
			<stop  offset="0" style="stop-color:#D870A9"/>
			<stop  offset="0.5" style="stop-color:#C8007F"/>
			<stop  offset="1" style="stop-color:#A11880"/>
		</linearGradient>
		<path class="st5" d="M41.6,62.1c11.3,1,23.2,0.9,34.2-2.2c6.1-1.7,11.7-4.2,16.7-7.4c-1.9-18.4-17.4-32.7-36.3-32.7
			c-19.7,0-35.7,15.6-36.4,35.1C26.2,59,33.6,61.3,41.6,62.1z"/>
		
			<linearGradient id="SVGID_6_" gradientUnits="userSpaceOnUse" x1="-32.2205" y1="662.5887" x2="71.4033" y2="765.0214" gradientTransform="matrix(1 0 0 1 91.0098 -610.4896)">
			<stop  offset="0" style="stop-color:#D870A9"/>
			<stop  offset="0.5" style="stop-color:#C8007F"/>
			<stop  offset="1" style="stop-color:#A11880"/>
		</linearGradient>
		<path class="st6" d="M71,22.8c-4.5-2-9.5-3.1-14.7-3.1c-19.7,0-35.7,15.6-36.4,35.1c2.4,1.6,5,2.9,7.7,4
			C36.6,41.7,52.8,30.6,71,22.8z"/>
	</g>
	<path class="st7" d="M46.6,4.1c0,0-35.4,6.8-40.3,43.4C4.8,36.1,14.9,7.5,46.6,4.1z"/>
	
		<linearGradient id="SVGID_7_" gradientUnits="userSpaceOnUse" x1="-54.8728" y1="645.2622" x2="-27.8109" y2="708.2971" gradientTransform="matrix(1 0 0 1 91.0098 -610.4896)">
		<stop  offset="0" style="stop-color:#D870A9"/>
		<stop  offset="0.5" style="stop-color:#C8007F"/>
		<stop  offset="1" style="stop-color:#A11880"/>
	</linearGradient>
	<path class="st8" d="M53.2,20.3c0,0-27.9,5.3-31.8,34.2C20.2,45.6,28.2,23,53.2,20.3z"/>
</g>
<g id="Element_Star_Filled_Big_1_">
	<path class="st9" d="M82.1,57.3c2.1-2.1,3-4.6,2.6-6.9c0.2-1,0.1-2-0.2-3c-0.8-2.6-3.2-4.4-6.6-4.9L73,41.8L68.3,41
		c-0.1,0-0.4-0.2-0.5-0.3c-0.6-1.2-2.4-5.1-4.3-8.9c-1.6-3.4-4.1-5.4-6.9-5.4l0,0c-2.5,0-4.7,1.6-6,4.3l-1.3,2.7l-3,6.4
		c-0.2,0.5-0.9,1.1-1.2,1.2l-5.4,0.8l-4.2,0.6c-3,0.4-5.2,2.1-5.9,4.6c-0.3,1-0.4,2-0.2,3.1c-0.4,2.7,0.8,5.7,3.5,8.3l1,1
		c2.4,2.4,4,4.5,4.7,5.7l-1.2,7.5c-0.2,1.2-0.2,2.2-0.1,3.1c-0.3,3.1,0.7,5,1.6,6.1c1.2,1.4,2.9,2.2,4.8,2.2c1.4,0,2.9-0.4,4.5-1.3
		l7.2-3.9l1.3-0.7c0,0,0.1,0,0.1,0c0.3,0,0.6,0.1,0.8,0.2l8.7,4.7c1.4,0.7,2.7,1.1,4,1.1c1.9,0,3.5-0.8,4.7-2.2
		c0.9-1.1,1.9-3.2,1.6-6.4c0.1-1,0.1-2.1-0.2-3.4l-1.1-6.7l-0.2-1c0-0.1,0.1-0.1,0.1-0.2L82.1,57.3z"/>
	<g>
		<g>
			<path class="st10" d="M56.6,29.7c1.3,0,2.7,1.1,3.7,3.4c1.9,4.1,3.9,8.2,4.4,9.2c0.5,1,1.9,2,3.2,2.2c1.3,0.2,5.7,0.9,9.8,1.5
				c4.1,0.6,5.2,3.5,2.2,6.5c-2.9,2.9-6.1,6.2-7.1,7.2c-1,1-1.7,2.5-1.5,3.4c0.1,0.9,0.9,5.4,1.7,10.1c0.6,3.6-0.6,5.7-2.7,5.7
				c-0.7,0-1.5-0.2-2.4-0.7c-3.6-2-7.5-4.1-8.8-4.8c-0.7-0.4-1.6-0.6-2.5-0.6c-0.6,0-1.2,0.1-1.6,0.3c-1,0.5-4.9,2.7-8.8,4.8
				c-1.1,0.6-2,0.9-2.9,0.9c-2.2,0-3.3-1.9-2.8-5.1c0.7-4.4,1.5-9,1.7-10.1c0.2-1.2-2.6-5.1-6.2-8.8l-1-1c-3.6-3.7-3.3-7.1,0.7-7.8
				c4-0.6,8.4-1.3,9.8-1.5c1.4-0.2,3.1-1.7,3.9-3.2c0.8-1.6,2.7-5.7,4.4-9.2C54.6,30.5,55.6,29.7,56.6,29.7"/>
		</g>
	</g>
	<g>
		<g>
			<path class="st11" d="M53.8,36.7c2.2-4.6,4.9-2.5,6.5,0.8c1.6,3.3,3.1,6.7,3.5,7.5c0.4,0.8,1,1.8,2,1.9c1,0.2,4.6,0.7,7.9,1.2
				c3.3,0.5,4.1,2.9,1.8,5.3c-2.3,2.4-4.9,5-5.7,5.9c-0.8,0.8-1.4,2.1-1.2,2.8c0.1,0.7,0.7,4.4,1.3,8.3c0.6,3.8-1.2,5.7-4.1,4.1
				c-2.9-1.6-6.1-3.4-7.1-3.9c-1-0.6-2.5-0.6-3.3-0.2c-0.8,0.4-4,2.2-7.1,3.9c-3.1,1.7-5.1,0.2-4.5-3.4c0.6-3.6,1.2-7.3,1.3-8.3
				c0.2-1-2.1-4.2-5-7.2l-0.8-0.8c-2.9-3-2.6-5.8,0.6-6.3c3.2-0.5,6.1-1.1,7.2-1.3c1.1-0.2,2.5-1.4,3.1-2.6
				C50.9,42.9,52.4,39.5,53.8,36.7z"/>
		</g>
	</g>
	<path class="st7" d="M47.9,49c0.1,0.9-1.9,2-4.5,2.4c-2.6,0.4-4.9,0-5-0.9s1.9-2,4.5-2.4C45.5,47.6,47.8,48.1,47.9,49z"/>
	<path class="st7" d="M74.7,50c-0.1,0.9-2.3,1.5-4.9,1.3c-2.6-0.2-4.7-1.1-4.7-2.1c0.1-0.9,2.3-1.5,4.9-1.3
		C72.6,48.1,74.7,49.1,74.7,50z"/>
	<path class="st7" d="M56.3,36.2c0.7,0.3,0.8,1.6,0.3,2.9c-0.5,1.4-1.5,2.2-2.1,2c-0.7-0.3-0.8-1.6-0.3-2.9
		C54.7,36.8,55.6,35.9,56.3,36.2z"/>
</g>
</svg>
