<?xml version="1.0" encoding="utf-8"?>
<!-- Generator: Adobe Illustrator 16.0.0, SVG Export Plug-In . SVG Version: 6.00 Build 0)  -->
<!DOCTYPE svg PUBLIC "-//W3C//DTD SVG 1.1//EN" "http://www.w3.org/Graphics/SVG/1.1/DTD/svg11.dtd">
<svg version="1.1" id="Layer_1" xmlns="http://www.w3.org/2000/svg" xmlns:xlink="http://www.w3.org/1999/xlink" x="0px" y="0px"
	 width="48px" height="48px" viewBox="0 0 48 48" enable-background="new 0 0 48 48" xml:space="preserve">
<g>
	<path fill="#3997D3" d="M1,42.75c0,1.657,1.343,3,3,3h39.834c1.657,0,3-1.343,3-3V5.303c0-1.657-1.343-3-3-3H4
		c-1.657,0-3,1.343-3,3V42.75z"/>
</g>
<g>
	<g>
		<path fill="#FFFFFF" d="M40.368,36.617c-1.117-1.664-2.814-3.663-4.78-5.629c-1.079-1.079-2.212-2.116-3.276-3
			c-0.124-0.103-0.288-0.14-0.442-0.098c-0.155,0.041-0.281,0.155-0.337,0.305c-0.167,0.447-0.437,0.86-0.806,1.229
			c-0.302,0.303-0.616,0.542-0.934,0.708c-0.132,0.07-0.226,0.195-0.256,0.342c-0.028,0.146,0.012,0.298,0.107,0.412
			c0.857,1.024,1.858,2.114,2.896,3.152c3.573,3.573,7.046,6.068,8.443,6.068c0.215,0,0.383-0.059,0.498-0.175
			C42.031,39.383,41.18,37.825,40.368,36.617z"/>
		<path fill="#FFFFFF" d="M25.895,26.424c0.09,0.557,0.188,1.188,0.512,1.886c0.44,0.949,1.186,1.515,1.992,1.516l0,0
			c0.608,0,1.222-0.306,1.823-0.905c0.852-0.853,1.106-1.969,0.687-2.986c-0.561-1.352-2.157-2.225-4.07-2.225
			c-0.42,0-0.86,0.041-1.308,0.121c-0.174,0.031-0.317,0.154-0.378,0.322c-0.06,0.167-0.023,0.354,0.093,0.488
			C25.696,25.16,25.788,25.745,25.895,26.424z"/>
		<path fill="#FFFFFF" d="M38.69,10.095H7.854c-0.273,0-0.494,0.221-0.494,0.494v20.938c0,0.272,0.221,0.495,0.494,0.495h21.147
			l-1.011-1.299c-2.045,0-2.653-1.971-2.832-1.971H10.627v-15.39h25.29v15.39h-1.16l3.147,3.27h0.786
			c0.272,0,0.495-0.223,0.495-0.495V10.589C39.186,10.316,38.963,10.095,38.69,10.095z"/>
		<path fill="#FFFFFF" d="M24.436,23.11c0.093,0.087,0.214,0.133,0.337,0.133c0.046,0,0.092-0.006,0.138-0.02
			c0.312-0.09,0.77-0.22,1.188-0.331c0.101-0.027,0.192-0.085,0.258-0.167c0.115-0.143,0.251-0.293,0.35-0.402
			c0.492-0.547,1.167-1.296,0.87-2.187c-0.153-0.446-0.457-0.775-0.881-0.952c-0.225-0.094-0.468-0.14-0.744-0.14
			c-0.956,0-2.161,0.58-3.438,1.192c-0.569,0.273-1.476,0.709-2.005,0.863c0.125-0.316,0.372-0.758,0.545-1.068
			c0.302-0.539,0.613-1.095,0.774-1.639c0.349-1.184-0.195-1.819-0.553-2.095c-0.001,0-0.007-0.005-0.007-0.005
			c-0.322-0.241-0.68-0.363-1.065-0.363c-1.1,0-2.209,0.975-3.1,1.759c-0.365,0.321-0.648,0.564-0.848,0.708
			c-0.158,0.114-0.235,0.311-0.194,0.503l0.199,0.948c0.032,0.151,0.134,0.279,0.273,0.345c0.141,0.066,0.303,0.062,0.44-0.01
			c0.427-0.225,0.871-0.615,1.384-1.067c0.422-0.37,0.857-0.753,1.256-1.014c0.168-0.11,0.294-0.175,0.385-0.212
			c-0.113,0.34-0.423,0.894-0.603,1.216c-0.307,0.547-0.624,1.113-0.772,1.656c-0.352,1.278,0.391,1.878,0.723,2.075
			c0.246,0.147,0.522,0.219,0.844,0.219c0.849,0,1.913-0.511,3.144-1.103c0.614-0.295,1.249-0.6,1.783-0.797
			c0.041-0.015,0.083-0.029,0.122-0.043c-0.377,0.419-0.821,0.934-0.951,1.535C24.254,22.815,24.309,22.992,24.436,23.11z"/>
	</g>
</g>
</svg>
