<?xml version="1.0" encoding="utf-8"?>
<!-- Generator: Adobe Illustrator 16.0.0, SVG Export Plug-In . SVG Version: 6.00 Build 0)  -->
<!DOCTYPE svg PUBLIC "-//W3C//DTD SVG 1.1//EN" "http://www.w3.org/Graphics/SVG/1.1/DTD/svg11.dtd">
<svg version="1.1" id="Layer_1" xmlns="http://www.w3.org/2000/svg" xmlns:xlink="http://www.w3.org/1999/xlink" x="0px" y="0px"
	 width="48px" height="48px" viewBox="0 0 48 48" enable-background="new 0 0 48 48" xml:space="preserve">
<g>
	<path fill="#1473A9" d="M1,42.75c0,1.657,1.343,3,3,3h39.834c1.657,0,3-1.343,3-3V5.303c0-1.657-1.343-3-3-3H4
		c-1.657,0-3,1.343-3,3V42.75z"/>
</g>
<g>
	<g>
		<g>
			<path fill="#FFFFFF" d="M40.031,9.198h-13.41V7.135h-5.158v2.063H8.052V29.83h5.511l-2.579,9.283h4.166l1.146-4.125h15.492
				l1.146,4.125h4.165l-2.578-9.283h5.511V9.198z M22.494,8.167h3.096v1.031h-3.096V8.167z M14.365,38.082h-2.024l2.292-8.252h2.024
				L14.365,38.082z M16.582,33.957l0.287-1.033h11.299v-1.031H17.155l0.573-2.063h12.627l0.572,2.063H29.2v1.031h2.015l0.286,1.033
				H16.582z M35.742,38.082h-2.024l-2.293-8.252h2.024L35.742,38.082z M39,28.799h-4.767h-4.166H18.015H13.85H9.084V10.229h12.379
				h5.158H39V28.799z"/>
			<path fill="#FFFFFF" d="M21.979,16.935c0,0.349,0.033,0.694,0.097,1.034l-2.167-2.312l-9.66,10.734l0.767,0.689l8.909-9.898
				l7.352,7.843l0.753-0.706l-3.652-3.895l3.257-3.255l8.919,9.911l0.768-0.689l-5.279-5.868c0.831-1.012,1.285-2.268,1.285-3.588
				c0-3.129-2.545-5.673-5.673-5.673C24.523,11.262,21.979,13.806,21.979,16.935z M27.652,12.292c2.559,0,4.642,2.083,4.642,4.643
				c0,1.025-0.338,2.003-0.955,2.81l-3.667-4.075l-3.859,3.859c-0.518-0.764-0.802-1.666-0.802-2.594
				C23.01,14.375,25.093,12.292,27.652,12.292z"/>
			<rect x="32.294" y="25.703" fill="#FFFFFF" width="1.031" height="1.031"/>
			<rect x="30.231" y="25.703" fill="#FFFFFF" width="1.031" height="1.031"/>
			<rect x="28.168" y="25.703" fill="#FFFFFF" width="1.032" height="1.031"/>
		</g>
	</g>
</g>
</svg>
