<?xml version="1.0" encoding="utf-8"?>
<!-- Generator: Adobe Illustrator 16.0.0, SVG Export Plug-In . SVG Version: 6.00 Build 0)  -->
<!DOCTYPE svg PUBLIC "-//W3C//DTD SVG 1.1//EN" "http://www.w3.org/Graphics/SVG/1.1/DTD/svg11.dtd">
<svg version="1.1" id="Capa_1" xmlns="http://www.w3.org/2000/svg" xmlns:xlink="http://www.w3.org/1999/xlink" x="0px" y="0px"
	 width="512px" height="512px" viewBox="0 0 512 512" enable-background="new 0 0 512 512" xml:space="preserve">
<g>
	<path fill="#FFFFFF" d="M512,68.267V0H0v68.267h17.066V409.6H8.533C3.815,409.6,0,413.414,0,418.133
		c0,4.72,3.814,8.534,8.533,8.534h8.533h230.4v17.066c0,0.401,0.179,0.751,0.23,1.144c-14.806,3.729-25.831,17.041-25.831,32.99
		C221.866,496.691,237.175,512,256,512c18.824,0,34.133-15.309,34.133-34.133c0-15.949-11.024-29.262-25.83-32.99
		c0.051-0.393,0.23-0.742,0.23-1.144v-17.066h230.399h8.533c4.72,0,8.534-3.814,8.534-8.534c0-4.719-3.814-8.533-8.534-8.533h-8.533
		V68.267H512z M273.067,477.867c0,9.412-7.654,17.066-17.066,17.066s-17.067-7.654-17.067-17.066
		c0-9.413,7.655-17.067,17.067-17.067S273.067,468.454,273.067,477.867z M477.866,409.6H34.133V68.267h443.733V409.6z"/>
	<path fill="#FFFFFF" d="M256,375.467c75.28,0,136.533-61.252,136.533-136.533S331.281,102.4,256,102.4
		c-75.281,0-136.533,61.252-136.533,136.534S180.719,375.467,256,375.467z M213.333,179.2c0-3.115,1.698-5.982,4.429-7.484
		c2.73-1.493,6.051-1.374,8.695,0.282l93.867,59.733c2.448,1.57,3.942,4.284,3.942,7.202c0,2.918-1.494,5.632-3.951,7.202
		l-93.866,59.733c-1.399,0.879-2.987,1.331-4.583,1.331c-1.408,0-2.824-0.351-4.104-1.05c-2.73-1.502-4.429-4.369-4.429-7.484V179.2
		z"/>
</g>
</svg>
