<?xml version="1.0" encoding="utf-8"?>
<!-- Generator: Adobe Illustrator 16.0.0, SVG Export Plug-In . SVG Version: 6.00 Build 0)  -->
<!DOCTYPE svg PUBLIC "-//W3C//DTD SVG 1.1//EN" "http://www.w3.org/Graphics/SVG/1.1/DTD/svg11.dtd">
<svg version="1.1" id="Capa_1" xmlns="http://www.w3.org/2000/svg" xmlns:xlink="http://www.w3.org/1999/xlink" x="0px" y="0px"
	 width="512px" height="512px" viewBox="0 0 512 512" enable-background="new 0 0 512 512" xml:space="preserve">
<g>
	<g>
		<path fill="#575656" d="M503.203,244.878c-1.033-1.309-25.842-32.43-68.372-63.676c-56.833-41.755-118.673-63.826-178.833-63.826
			c-60.158,0-121.998,22.071-178.833,63.826c-42.53,31.245-67.338,62.367-68.372,63.676L0,256l8.794,11.122
			c1.034,1.31,25.843,32.432,68.372,63.678c56.835,41.754,118.675,63.824,178.833,63.824c60.159,0,121.999-22.07,178.832-63.824
			c42.53-31.246,67.339-62.368,68.372-63.678L512,256L503.203,244.878z M255.998,353.112c-53.548,0-97.113-43.563-97.113-97.113
			c0-8.39,1.069-16.534,3.079-24.305l-22.171-3.731c-2.173,8.995-3.325,18.383-3.325,28.036c0,34.589,14.775,65.79,38.338,87.636
			c-30.331-11.204-56.123-26.927-75.589-41.146c-24.116-17.614-42.19-35.43-52.494-46.491c10.309-11.065,28.38-28.878,52.494-46.491
			c19.466-14.219,45.259-29.941,75.589-41.146l14.874,16.766c17.371-16.266,40.7-26.241,66.318-26.241
			c53.547,0,97.111,43.564,97.111,97.113C353.11,309.549,309.546,353.112,255.998,353.112z M412.78,302.49
			c-19.468,14.219-45.259,29.941-75.589,41.146c23.562-21.846,38.336-53.046,38.336-87.638s-14.774-65.791-38.336-87.637
			c30.331,11.206,56.121,26.928,75.589,41.146c24.116,17.614,42.19,35.429,52.494,46.49
			C454.965,267.064,436.894,284.879,412.78,302.49z"/>
		<path fill="#575656" d="M194.2,237.122c-1.823,5.973-2.811,12.309-2.811,18.878c0,35.681,28.926,64.609,64.608,64.609
			c35.682,0,64.606-28.927,64.606-64.609s-28.925-64.608-64.606-64.608c-17.38,0-33.145,6.875-44.758,18.039l31.868,35.921
			L194.2,237.122z"/>
	</g>
</g>
</svg>
