<?xml version="1.0" encoding="utf-8"?>
<!-- Generator: Adobe Illustrator 16.0.0, SVG Export Plug-In . SVG Version: 6.00 Build 0)  -->
<!DOCTYPE svg PUBLIC "-//W3C//DTD SVG 1.1//EN" "http://www.w3.org/Graphics/SVG/1.1/DTD/svg11.dtd">
<svg version="1.1" id="Capa_1" xmlns="http://www.w3.org/2000/svg" xmlns:xlink="http://www.w3.org/1999/xlink" x="0px" y="0px"
	 width="512px" height="512px" viewBox="0 0 512 512" enable-background="new 0 0 512 512" xml:space="preserve">
<path fill="#575656" d="M511.153,159.931c-7.474-82.26-65.697-141.94-138.563-141.94c-48.545,0-92.992,26.123-118.003,67.991
	c-24.784-42.41-67.411-68.001-115.178-68.001C66.554,17.98,8.321,77.661,0.857,159.92c-0.591,3.634-3.013,22.756,4.353,53.94
	c10.614,44.98,35.133,85.893,70.886,118.289l178.374,161.87L435.905,332.16c35.753-32.406,60.271-73.31,70.887-118.299
	C514.156,182.686,511.734,163.564,511.153,159.931z M157.537,97.522c-43.434,0-78.773,35.34-78.773,78.774
	c0,5.445-4.401,9.847-9.847,9.847s-9.847-4.402-9.847-9.847c0-54.295,44.172-98.467,98.467-98.467c5.445,0,9.847,4.401,9.847,9.847
	S162.973,97.522,157.537,97.522z"/>
</svg>
