<?xml version="1.0" encoding="utf-8"?>
<!-- Generator: Adobe Illustrator 16.0.0, SVG Export Plug-In . SVG Version: 6.00 Build 0)  -->
<!DOCTYPE svg PUBLIC "-//W3C//DTD SVG 1.1//EN" "http://www.w3.org/Graphics/SVG/1.1/DTD/svg11.dtd">
<svg version="1.1" id="button_x5F_big" xmlns="http://www.w3.org/2000/svg" xmlns:xlink="http://www.w3.org/1999/xlink" x="0px"
	 y="0px" width="124px" height="128px" viewBox="0 0 124 128" enable-background="new 0 0 124 128" xml:space="preserve">
<g id="btn_x5F_big_x5F_menu_x5F_reload_x5F_brown">
	<g>
		<g>
			<g>
				<g>
					<g opacity="0.2">
						<circle cx="62" cy="66" r="62"/>
					</g>
					<g>
						<circle fill="#CF883C" cx="62" cy="62" r="62"/>
					</g>
				</g>
				<path fill="#A56226" d="M62,73.88c-20.399,0-38.494,9.854-49.793,25.06C23.506,114.146,41.601,124,62,124
					s38.494-9.854,49.793-25.061C100.494,83.734,82.399,73.88,62,73.88z"/>
				<path fill="#FCC38B" d="M62,0C38.123,0,17.413,13.505,7.054,33.285C17.413,53.064,38.123,66.569,62,66.569
					c23.876,0,44.587-13.505,54.946-33.284C106.587,13.505,85.876,0,62,0z"/>
				<circle fill="#FCC38B" cx="62" cy="59.774" r="54.946"/>
				<path fill="#E7A149" d="M114.823,57.652c0,29.174-23.649,52.823-52.823,52.823c-26.334,0-48.166-19.27-52.168-44.478l10.6-3.674
					l-11.01,0.452c0,0-0.245-3.396-0.245-5.124C9.177,28.479,32.826,4.828,62,4.828c27.223,0,49.636,20.593,52.512,47.051
					l-11.104-0.383l11.398,4.761C114.817,56.721,114.823,57.186,114.823,57.652z"/>
				<circle fill="#A56226" cx="62" cy="57.652" r="39.271"/>
				<path fill="#874F21" d="M62,24.741c20.617,0,37.511,15.891,39.131,36.091c0.085-1.05,0.14-2.108,0.14-3.18
					c0-21.688-17.582-39.271-39.271-39.271S22.729,35.964,22.729,57.652c0,1.071,0.055,2.13,0.139,3.18
					C24.489,40.632,41.383,24.741,62,24.741z"/>
				<polygon fill="#A56226" points="0,64.012 7.054,59.774 20.432,62.324 9.177,63.147 				"/>
				<polygon fill="#A56226" points="123.839,53.184 116.785,48.947 103.407,51.496 114.662,52.32 				"/>
			</g>
		</g>
	</g>
</g>
</svg>
