<?xml version="1.0" encoding="utf-8"?>
<!-- Generator: Adobe Illustrator 16.0.0, SVG Export Plug-In . SVG Version: 6.00 Build 0)  -->
<!DOCTYPE svg PUBLIC "-//W3C//DTD SVG 1.1//EN" "http://www.w3.org/Graphics/SVG/1.1/DTD/svg11.dtd">
<svg version="1.1" id="Isolation_Mode" xmlns="http://www.w3.org/2000/svg" xmlns:xlink="http://www.w3.org/1999/xlink" x="0px"
	 y="0px" width="366.17px" height="290.825px" viewBox="0 0 366.17 290.825" enable-background="new 0 0 366.17 290.825"
	 xml:space="preserve">
<g>
	<g>
		<g>
			<path fill="#FF5D15" d="M339.799,185.086c0,0,8.492,30.605-17.703,47.534C322.096,232.62,358.301,224.52,339.799,185.086z"/>
			<path fill="#FF5D15" d="M359.313,173.946c0,0,11.086,46.178-24.4,72.073C334.912,246.02,383.779,233.355,359.313,173.946z"/>
		</g>
		<g>
			<path fill="#FF5D15" d="M25.252,134.393c0,0-6.606-31.07,20.579-46.36C45.831,88.032,9.197,93.898,25.252,134.393z"/>
			<path fill="#FF5D15" d="M5.093,144.318c0,0-8.24-46.773,28.763-70.445C33.855,73.873-15.69,83.52,5.093,144.318z"/>
		</g>
		<g>
			<g>
				<g>
					
						<rect x="184.793" y="7.73" transform="matrix(0.9966 0.0827 -0.0827 0.9966 2.9105 -15.6192)" fill="#434244" width="10.561" height="39.216"/>
					<g>
						<path fill="#59595B" d="M218.627,11.546c-0.414,4.981-12.863,8.014-27.809,6.773c-14.941-1.239-26.722-6.285-26.309-11.266
							c0.415-4.985,12.867-8.016,27.81-6.775C207.257,1.518,219.042,6.563,218.627,11.546z"/>
						<path opacity="0.5" fill="#59595B" d="M202.343,1.768c2.277,1.591,3.545,3.348,3.4,5.114
							c-0.415,4.982-11.78,8.105-25.381,6.975c-4.998-0.413-9.59-1.347-13.396-2.605c4.159,3.356,13.186,6.185,23.852,7.068
							c14.946,1.24,27.395-1.792,27.809-6.773C218.94,7.751,212.175,3.927,202.343,1.768z"/>
						<path opacity="0.3" fill="#FFFFFF" d="M188.181,4.369c-0.032,1.483-3.15,2.624-6.971,2.551
							c-3.823-0.075-6.897-1.335-6.87-2.818c0.028-1.485,3.15-2.627,6.972-2.553C185.136,1.625,188.208,2.886,188.181,4.369z"/>
					</g>
				</g>
				<g>
					<g>
						<g>
							<path fill="#FF5D15" d="M327.926,146.706c5.092,73.909-55.28,138.264-134.838,143.745
								C113.527,295.934,44.9,240.467,39.807,166.559C34.716,92.652,95.087,28.296,174.646,22.813
								C254.207,17.331,322.836,72.799,327.926,146.706z"/>
							<path opacity="0.5" fill="#910E36" d="M303.863,144.902c4.467,64.787-47.582,121.143-116.25,125.873
								c-68.665,4.73-127.95-43.949-132.415-108.738C50.735,97.25,102.782,40.896,171.449,36.166
								C240.119,31.434,299.402,80.116,303.863,144.902z"/>
							
								<ellipse transform="matrix(0.9976 -0.0687 0.0687 0.9976 -10.0877 12.604)" fill="#F9ECBB" cx="178.089" cy="152.873" rx="120.417" ry="113.617"/>
							<path opacity="0.5" fill="#910E36" d="M262.2,43.188c31.636,22.258,53.028,56.705,55.774,96.568
								c5.051,73.281-54.808,137.093-133.694,142.529c-42.777,2.946-82.358-11.883-110.444-37.752
								c28.517,30.891,71.952,49.178,119.251,45.918c79.558-5.481,139.93-69.836,134.838-143.745
								C324.889,102.641,299.266,65.133,262.2,43.188z"/>
						</g>
						<g>
							<circle fill="#EDBE5F" cx="283.227" cy="176.466" r="5.253"/>
							<path fill="#EDBE5F" d="M264.903,218.438c0.199,2.895-1.983,5.403-4.878,5.603s-5.4-1.984-5.598-4.879
								c-0.203-2.895,1.983-5.402,4.876-5.602C262.198,213.361,264.703,215.547,264.903,218.438z"/>
							<path fill="#EDBE5F" d="M220.251,246.96c0.201,2.895-1.984,5.401-4.877,5.601c-2.896,0.202-5.403-1.984-5.604-4.879
								c-0.199-2.893,1.986-5.4,4.881-5.6C217.546,241.883,220.052,244.066,220.251,246.96z"/>
							<circle fill="#EDBE5F" cx="155.69" cy="252.285" r="5.252"/>
							<circle fill="#EDBE5F" cx="110.219" cy="229.097" r="5.253"/>
							<circle fill="#EDBE5F" cx="75.411" cy="182.357" r="5.252"/>
							<path fill="#EDBE5F" d="M76.519,133.146c0.199,2.893-1.986,5.402-4.879,5.6c-2.894,0.199-5.404-1.984-5.603-4.879
								c-0.197-2.893,1.987-5.402,4.881-5.601C73.811,128.067,76.318,130.252,76.519,133.146z"/>
							<circle fill="#EDBE5F" cx="93.605" cy="89.849" r="5.252"/>
							<circle fill="#EDBE5F" cx="134.591" cy="60.704" r="5.253"/>
							<path fill="#EDBE5F" d="M190.993,51.551c0.199,2.893-1.983,5.4-4.877,5.6c-2.893,0.203-5.402-1.984-5.602-4.877
								c-0.198-2.895,1.985-5.402,4.88-5.603C188.286,46.473,190.796,48.657,190.993,51.551z"/>
							<path fill="#EDBE5F" d="M249.435,70.34c0.197,2.894-1.983,5.401-4.88,5.6c-2.893,0.199-5.398-1.984-5.6-4.879
								c-0.199-2.893,1.983-5.4,4.876-5.6C246.729,65.262,249.236,67.445,249.435,70.34z"/>
							<path fill="#EDBE5F" d="M282.617,118.944c0.197,2.894-1.986,5.403-4.881,5.601c-2.891,0.202-5.4-1.984-5.598-4.879
								c-0.199-2.893,1.984-5.4,4.877-5.6S282.416,116.052,282.617,118.944z"/>
						</g>
					</g>
				</g>
				<path opacity="0.3" fill="#FFFFFF" d="M45.261,166.586c-3.798-55.125,27.784-105.084,76.62-130.581
					c-51.753,23.37-85.958,74.181-82.074,130.554c3.594,52.145,38.817,95.104,87.189,113.961
					C81.362,259.646,48.759,217.344,45.261,166.586z"/>
			</g>
			<g>
				<g>
					<g>
						<g>
							<path fill="#FFFFFF" d="M191.965,114.723c1.746,25.273-14.921,47.01-37.223,48.547c-22.301,1.539-41.796-17.707-43.54-42.982
								c-1.746-25.276,14.919-47.014,37.222-48.549C170.729,70.203,190.221,89.447,191.965,114.723z"/>
						</g>
						<g>
							<path fill="#FFFFFF" d="M252.656,157.383c-16.674,19.076-43.833,22.61-60.665,7.897
								c-16.83-14.714-16.958-42.108-0.282-61.182c16.673-19.076,43.833-22.614,60.665-7.899
								C269.202,110.914,269.33,138.307,252.656,157.383z"/>
						</g>
						<g>
							<g>
								<path d="M221.994,135.011c-0.006,6.597-5.361,11.944-11.962,11.935c-6.599-0.006-11.941-5.365-11.934-11.961
									c0.009-6.6,5.365-11.944,11.965-11.938C216.659,123.055,222.005,128.412,221.994,135.011z"/>
								<path fill="#FFFFFF" d="M225.844,127.546c-0.002,3.299-2.677,5.97-5.978,5.968c-3.302-0.006-5.97-2.684-5.965-5.98
									c0.003-3.301,2.68-5.975,5.979-5.971C223.181,121.566,225.853,124.246,225.844,127.546z"/>
								<path fill="#FFFFFF" d="M204.318,140.541c-0.007,2.834-2.304,5.128-5.136,5.126c-2.833-0.003-5.13-2.304-5.123-5.138
									c0-2.833,2.299-5.127,5.136-5.124C202.026,135.41,204.321,137.71,204.318,140.541z"/>
							</g>
							<g>
								<path d="M147.355,122.086c-1.899,6.32,1.68,12.986,7.999,14.887c6.325,1.901,12.986-1.682,14.889-8.002
									c1.901-6.319-1.683-12.983-8.006-14.885C155.917,112.186,149.256,115.77,147.355,122.086z"/>
								<path fill="#FFFFFF" d="M145.827,113.827c-0.952,3.155,0.837,6.49,3.998,7.441c3.163,0.952,6.494-0.839,7.443-3.999
									c0.947-3.162-0.843-6.492-4.004-7.447C150.108,108.877,146.774,110.668,145.827,113.827z"/>
								<path fill="#FFFFFF" d="M162.674,132.495c-0.813,2.715,0.721,5.573,3.436,6.389c2.715,0.819,5.576-0.72,6.39-3.435
									c0.814-2.713-0.721-5.574-3.433-6.391C166.353,128.242,163.493,129.779,162.674,132.495z"/>
							</g>
						</g>
					</g>
					<g>
						<g>
							<polygon fill="#467CBE" points="164.654,172.209 108.358,133.276 78.467,132.859 91.153,157.373 163.346,177.365 							"/>
							<path opacity="0.5" fill="#467CBE" d="M91.153,157.373l72.193,19.992l1.148-4.514c-0.013-0.004-51.976-19.583-63.407-24.712
								c-11.432-5.125-4.849-15.03-4.849-15.032l-17.771-0.248L91.153,157.373z"/>
						</g>
						<g>
							<polygon fill="#467CBE" points="181.805,180.609 276.783,137.526 303.792,139.914 290.073,160.857 182.503,185.381 							
								"/>
							<path opacity="0.5" fill="#467CBE" d="M290.073,160.857l-107.57,24.523l-0.615-4.18c0.009,0,89.287-26.025,100.077-29.592
								c10.793-3.568,5.768-13.115,5.768-13.115l16.059,1.42L290.073,160.857z"/>
						</g>
						<g>
							<path fill="#A26621" d="M204.359,174.617c-1.479,7.489-11.274,13.047-23.533,12.697c-14.473-0.41-28.123-8.736-27.88-19.168
								c0.256-11.211,15.967-17.248,31.88-13.467C198.063,157.821,205.913,166.726,204.359,174.617z"/>
							<path opacity="0.4" fill="#A26621" d="M193.833,158.086c1.598,3.007,2.278,6.17,1.766,9.254
								c-1.367,8.374-11.517,14.234-24.386,13.392c-5.284-0.345-10.423-1.742-14.971-3.94c4.943,6.146,14.495,10.243,24.585,10.523
								c12.258,0.35,22.054-5.208,23.533-12.697C205.547,168.643,201.435,162.256,193.833,158.086z"/>
							<path opacity="0.3" fill="#FFFFFF" d="M180.124,162.663c-0.221,2.877-3.515,5.083-7.486,4.981
								c-4.167-0.104-7.621-2.679-7.527-5.807c0.068-3.199,3.792-5.529,8.114-5.159C177.343,157.032,180.343,159.73,180.124,162.663
								z"/>
						</g>
					</g>
				</g>
				<g>
					<path fill="#610000" d="M140.165,193.666c0,0,39.623,17.969,67.821,1.451c0,0-0.401,33.129-30.912,31.877
						C146.56,225.74,140.165,193.666,140.165,193.666z"/>
					<path fill="#B21943" d="M156.533,219.846c5.185,3.9,11.855,6.793,20.541,7.148c13.374,0.551,20.967-5.514,25.273-12.491
						C174.374,203.604,156.644,219.744,156.533,219.846z"/>
				</g>
			</g>
		</g>
	</g>
</g>
</svg>
