<?xml version="1.0" encoding="utf-8"?>
<!-- Generator: Adobe Illustrator 19.2.0, SVG Export Plug-In . SVG Version: 6.00 Build 0)  -->
<svg version="1.1" id="Layer_1" xmlns="http://www.w3.org/2000/svg" xmlns:xlink="http://www.w3.org/1999/xlink" x="0px" y="0px"
	 viewBox="0 0 135.4 43.9" style="enable-background:new 0 0 135.4 43.9;" xml:space="preserve">
<style type="text/css">
	.st0{fill:#FF931E;}
</style>
<g>
	<path class="st0" d="M12.7,43.8c-1.8,0-3.3-0.1-4.6-0.3c-1.3-0.2-2.4-0.5-3.4-0.9c-0.9-0.4-1.7-0.8-2.3-1.4
		c-0.6-0.5-1.1-1.1-1.4-1.7c-0.3-0.6-0.6-1.3-0.7-2C0.1,36.8,0,36,0,35.3c0-0.3,0-0.6,0-1c0-0.4,0.1-0.8,0.1-1.3
		c0.1-0.4,0.1-0.9,0.2-1.3c0.1-0.4,0.1-0.9,0.2-1.2l5.1,0.4c-0.1,0.6-0.2,1.1-0.3,1.7c-0.1,0.6-0.1,1.1-0.1,1.7
		c0,0.9,0.1,1.6,0.3,2.2c0.2,0.6,0.7,1.1,1.3,1.5c0.7,0.4,1.6,0.7,2.7,0.8s2.7,0.3,4.5,0.3h14.1c0.5,0,0.9-0.1,1.3-0.2
		c0.3-0.1,0.6-0.3,0.8-0.5c0.2-0.2,0.4-0.6,0.5-1c0.1-0.4,0.2-0.9,0.2-1.6V25.7h5.8v10.9c0,0.3,0,0.5,0,0.8c0,0.3,0,0.5-0.1,0.8
		c0.7,0.3,1.5,0.5,2.3,0.7c0.8,0.1,1.7,0.2,2.6,0.2h0.2c0.4,0,0.7,0,1,0.1c0.3,0.1,0.4,0.2,0.6,0.3c0.1,0.1,0.2,0.3,0.2,0.5
		c0,0.2,0.1,0.4,0.1,0.7v1.6c0,0.4,0,0.7-0.1,0.9c-0.1,0.2-0.2,0.4-0.3,0.5c-0.1,0.1-0.3,0.2-0.6,0.2c-0.2,0-0.5,0.1-0.9,0.1h-0.2
		c-1.5,0-2.7-0.2-3.8-0.5c-1-0.3-2-0.8-2.8-1.3c-0.5,0.6-1.2,1-1.9,1.3c-0.8,0.3-1.7,0.5-2.8,0.5H12.7z M13.4,17.3
		c0-0.4,0.1-0.8,0.2-1.1c0.1-0.3,0.4-0.6,0.6-0.9c0.3-0.3,0.6-0.5,0.9-0.6c0.3-0.1,0.7-0.2,1.1-0.2c0.4,0,0.8,0.1,1.1,0.2
		c0.3,0.1,0.6,0.4,0.9,0.6c0.3,0.3,0.5,0.6,0.6,0.9c0.1,0.3,0.2,0.7,0.2,1.1c0,0.4-0.1,0.8-0.2,1.1c-0.1,0.3-0.4,0.6-0.6,0.9
		c-0.3,0.3-0.6,0.5-0.9,0.6c-0.3,0.1-0.7,0.2-1.1,0.2c-0.4,0-0.8-0.1-1.1-0.2c-0.3-0.1-0.6-0.4-0.9-0.6c-0.3-0.3-0.5-0.6-0.6-0.9
		C13.4,18.1,13.4,17.7,13.4,17.3z M20,17.3c0-0.4,0.1-0.8,0.2-1.1c0.1-0.3,0.4-0.6,0.6-0.9c0.3-0.3,0.6-0.5,0.9-0.6s0.7-0.2,1.1-0.2
		s0.8,0.1,1.1,0.2c0.3,0.1,0.6,0.4,0.9,0.6c0.3,0.3,0.5,0.6,0.6,0.9c0.1,0.3,0.2,0.7,0.2,1.1c0,0.4-0.1,0.8-0.2,1.1
		c-0.1,0.3-0.4,0.6-0.6,0.9c-0.3,0.3-0.6,0.5-0.9,0.6c-0.3,0.1-0.7,0.2-1.1,0.2s-0.8-0.1-1.1-0.2c-0.3-0.1-0.6-0.4-0.9-0.6
		c-0.3-0.3-0.5-0.6-0.6-0.9C20.1,18.1,20,17.7,20,17.3z"/>
	<path class="st0" d="M52.7,36.5c0,0.3,0,0.5,0,0.8c0,0.3,0,0.5-0.1,0.8c0.7,0.3,1.5,0.5,2.3,0.7c0.8,0.1,1.7,0.2,2.6,0.2h0.2
		c0.4,0,0.7,0,1,0.1c0.2,0.1,0.4,0.2,0.5,0.3c0.1,0.1,0.2,0.3,0.2,0.5c0,0.2,0,0.4,0,0.7v1.6c0,0.4,0,0.7-0.1,0.9
		c0,0.2-0.1,0.4-0.3,0.5c-0.1,0.1-0.3,0.2-0.5,0.2c-0.2,0-0.5,0.1-0.9,0.1h-0.2c-1.5,0-2.7-0.2-3.8-0.5c-1-0.3-2-0.8-2.8-1.3
		c-0.5,0.6-1.2,1-1.9,1.3c-0.8,0.3-1.7,0.5-2.8,0.5h-4.5c-0.4,0-0.6,0-0.9-0.1c-0.2,0-0.4-0.1-0.5-0.2c-0.1-0.1-0.2-0.3-0.3-0.5
		c0-0.2-0.1-0.5-0.1-0.9v-1.6c0-0.3,0-0.5,0-0.7c0-0.2,0.1-0.4,0.2-0.5c0.1-0.1,0.3-0.2,0.5-0.3c0.2-0.1,0.6-0.1,1-0.1h2.5
		c0.5,0,0.9-0.1,1.3-0.2c0.3-0.1,0.6-0.3,0.8-0.5c0.2-0.2,0.4-0.6,0.5-1c0.1-0.4,0.2-0.9,0.2-1.6V25.7h5.8V36.5z M46.9,17.3
		c0-0.4,0.1-0.8,0.2-1.1c0.1-0.3,0.4-0.6,0.6-0.9c0.3-0.3,0.6-0.5,0.9-0.6c0.3-0.1,0.7-0.2,1.1-0.2c0.4,0,0.8,0.1,1.1,0.2
		c0.3,0.1,0.6,0.4,0.9,0.6c0.3,0.3,0.5,0.6,0.6,0.9c0.1,0.3,0.2,0.7,0.2,1.1c0,0.4-0.1,0.8-0.2,1.1c-0.1,0.3-0.4,0.6-0.6,0.9
		c-0.3,0.3-0.6,0.5-0.9,0.6c-0.3,0.1-0.7,0.2-1.1,0.2c-0.4,0-0.8-0.1-1.1-0.2c-0.3-0.1-0.6-0.4-0.9-0.6c-0.3-0.3-0.5-0.6-0.6-0.9
		C47,18.1,46.9,17.7,46.9,17.3z"/>
	<path class="st0" d="M88.5,39c0.5,0,0.9-0.1,1.3-0.2c0.3-0.1,0.6-0.3,0.8-0.5c0.2-0.2,0.4-0.6,0.5-1c0.1-0.4,0.2-0.9,0.2-1.6V25.7
		h5.8v10.9c0,0.3,0,0.5,0,0.8c0,0.3,0,0.5-0.1,0.8c0.7,0.3,1.5,0.5,2.3,0.7c0.8,0.1,1.7,0.2,2.6,0.2h0.2c0.4,0,0.7,0,1,0.1
		c0.2,0.1,0.4,0.2,0.5,0.3c0.1,0.1,0.2,0.3,0.2,0.5c0,0.2,0,0.4,0,0.7v1.6c0,0.4,0,0.7-0.1,0.9c0,0.2-0.1,0.4-0.3,0.5
		c-0.1,0.1-0.3,0.2-0.5,0.2c-0.2,0-0.5,0.1-0.9,0.1h-0.2c-1.5,0-2.7-0.2-3.8-0.5c-1-0.3-2-0.8-2.8-1.3c-0.5,0.6-1.2,1-1.9,1.3
		c-0.8,0.3-1.7,0.5-2.8,0.5h-1c-1.5,0-2.8-0.2-4-0.6c-1.2-0.4-2.2-1-3.1-1.6c-0.5,0.7-1.2,1.2-2,1.6c-0.8,0.4-1.9,0.6-3.1,0.6h-1
		c-1.5,0-2.8-0.2-4-0.6c-1.2-0.4-2.2-1-3.1-1.7c-0.5,0.7-1.2,1.3-2,1.7c-0.8,0.4-1.9,0.6-3.1,0.6h-6.6c-0.4,0-0.6,0-0.9-0.1
		c-0.2,0-0.4-0.1-0.5-0.2c-0.1-0.1-0.2-0.3-0.3-0.5c0-0.2-0.1-0.5-0.1-0.9v-1.6c0-0.3,0-0.5,0-0.7c0-0.2,0.1-0.4,0.2-0.5
		c0.1-0.1,0.3-0.2,0.5-0.3c0.2-0.1,0.6-0.1,1-0.1h4.6c0.5,0,0.9-0.1,1.3-0.2c0.3-0.1,0.6-0.3,0.8-0.5c0.2-0.2,0.4-0.6,0.5-1
		c0.1-0.4,0.2-0.9,0.2-1.6v-5.7h5.8v6.5c0,0.2,0,0.4,0,0.5c0,0.2,0,0.3,0,0.5c0.8,0.5,1.6,0.8,2.4,1c0.8,0.2,1.6,0.4,2.3,0.4
		c0.5,0,0.9-0.1,1.3-0.2c0.3-0.1,0.6-0.3,0.8-0.5c0.2-0.2,0.4-0.6,0.5-1c0.1-0.4,0.2-0.9,0.2-1.6v-7.7h5.8v8.5c0,0.2,0,0.4,0,0.5
		c0,0.2,0,0.4,0,0.5c0.8,0.4,1.6,0.8,2.4,1C87,38.9,87.8,39,88.5,39z"/>
	<path class="st0" d="M105.3,25.6c1-0.3,2.1-0.6,3.1-0.8c1-0.2,2.2-0.4,3.5-0.4c1.3,0,2.4,0.2,3.4,0.6c1,0.4,1.9,0.9,2.6,1.6
		c0.7,0.7,1.3,1.5,1.7,2.4c0.4,0.9,0.7,2,0.9,3.1c0.1,0.9,0.3,1.8,0.4,2.6c0.1,0.8,0.3,1.6,0.6,2.2c0.2,0.6,0.5,1.2,0.9,1.5
		c0.4,0.4,0.8,0.6,1.4,0.6v4.9h-21.9c-0.4,0-0.6,0-0.9-0.1c-0.2,0-0.4-0.1-0.5-0.2c-0.1-0.1-0.2-0.3-0.3-0.5c0-0.2-0.1-0.5-0.1-0.9
		v-1.6c0-0.3,0-0.5,0-0.7c0-0.2,0.1-0.4,0.2-0.5c0.1-0.1,0.3-0.2,0.5-0.3c0.2-0.1,0.6-0.1,1-0.1h14.6c-0.3-0.5-0.5-1-0.6-1.5
		c-0.1-0.5-0.2-1-0.3-1.6c-0.1-0.8-0.3-1.7-0.4-2.5c-0.2-0.8-0.4-1.6-0.8-2.2c-0.3-0.7-0.8-1.2-1.4-1.6c-0.6-0.4-1.3-0.6-2.2-0.6
		c-0.6,0-1.4,0.1-2.4,0.2c-1,0.2-2,0.5-3.1,0.9V25.6z"/>
	<path class="st0" d="M134.9,2.9c-0.2,0-0.5-0.1-0.9-0.1c-0.4,0-0.7-0.1-0.9-0.1c-0.5,0-0.9,0.1-1.2,0.3c-0.3,0.2-0.4,0.6-0.4,1.1
		c0,0.5,0.2,0.9,0.7,1.3c0.4,0.4,1.1,0.6,2,0.6h1.3v2.7h-8.3V6h2.2c-0.2-0.3-0.5-0.7-0.7-1.1c-0.2-0.4-0.3-0.9-0.3-1.4
		c0-0.4,0.1-0.9,0.3-1.3c0.2-0.4,0.4-0.8,0.8-1.1c0.4-0.3,0.8-0.6,1.4-0.8c0.6-0.2,1.2-0.3,2-0.3c0.3,0,0.7,0,1.1,0
		c0.4,0,0.8,0.1,1.4,0.2L134.9,2.9z M128.4,12h5.8v31.9h-5.8V12z"/>
</g>
</svg>
