<?xml version="1.0" encoding="utf-8"?>
<!-- Generator: Adobe Illustrator 16.0.0, SVG Export Plug-In . SVG Version: 6.00 Build 0)  -->
<!DOCTYPE svg PUBLIC "-//W3C//DTD SVG 1.1//EN" "http://www.w3.org/Graphics/SVG/1.1/DTD/svg11.dtd">
<svg version="1.1" id="Layer_1" xmlns="http://www.w3.org/2000/svg" xmlns:xlink="http://www.w3.org/1999/xlink" x="0px" y="0px"
	 width="1003.257px" height="559.816px" viewBox="-119.423 3.5 1003.257 559.816"
	 enable-background="new -119.423 3.5 1003.257 559.816" xml:space="preserve">
<g>
	<g>
		<path opacity="0.33" fill="#462900" stroke="#4A2E00" stroke-width="0.6653" enable-background="new    " d="M874.868,33.634
			c-1.007-1.304-2.679-2.109-4.592-2.209c-19.114-0.989-36.001-2.72-55.27-3.711c-5.279,2.057-10.328,3.096-16.213,3.577
			c-7.694,0.629-15.394-0.747-22.526-2.895c-15.427-0.228-31.179-0.35-47.228-0.35c-18.141,0-35.162,0.151-50.68,0.386
			c-2.37,0.145-4.705-0.092-6.814-0.691c-0.354,0.28-0.706,0.554-1.044,0.819c-46.408,0.794-775.624,2.284-778.589,2.504
			c-5.618,0.424-8.13,4.054-9.157,25.436c-0.633,13.017-0.437,460.273,0.516,475.028c1.79,27.869,4.583,28.234,8.812,28.793
			c19.809,2.607,770.835,2.996,800.623,2.996c38.561,0,82.247-0.616,116.864-1.662c60.446-1.814,61.481-3.451,63.191-6.166
			c2.453-3.881,3.618-33.262,4.003-45.712C878.069,467.778,875.747,34.767,874.868,33.634z"/>
		<path fill="#E2EDC3" d="M725.551,32.81c-68.751,0-819.428,2.132-831.895,2.758c-3.588,10.808-2.887,499.875,0.976,511.514
			c15.441,1.619,747.651,2.502,794.998,2.502c78.373,0,154.289-2.318,168.638-4.371c2.258-11.391,3.872-497.007,2.369-509.313
			C819.08,33.849,773.656,32.81,725.551,32.81z"/>
		<g>
			<path fill="#B06E0E" stroke="#8C5700" stroke-width="0.6653" d="M869.737,30.285c-0.99-1.272-2.646-2.058-4.537-2.152
				c-42.83-2.189-89.816-3.3-139.651-3.3c-76.531,0-831.51,2.646-835.549,2.946c-5.556,0.414-8.042,3.954-9.067,24.818
				c-0.621,12.708-0.417,459.544,0.516,473.948c1.779,27.187,4.533,27.549,8.713,28.09c19.587,2.55,770.017,2.932,799.468,2.932
				c38.123,0,81.322-0.607,115.552-1.623c59.764-1.773,60.785-3.367,62.482-6.017c2.423-3.788,3.573-32.464,3.957-44.611
				C872.909,464.332,870.606,31.39,869.737,30.285z M858.268,545.216c-14.349,2.05-90.265,4.37-168.638,4.37
				c-47.347,0-779.557-0.883-794.998-2.502c-3.865-11.641-4.564-500.708-0.976-511.516c12.465-0.626,763.144-2.758,831.895-2.758
				c48.106,0,93.529,1.04,135.086,3.091C862.14,48.209,860.525,533.824,858.268,545.216z"/>
			<path opacity="0.5" fill="#B06E0E" enable-background="new    " d="M858.521,33.469c-40.435-0.907-87.278-2.711-133.392-2.711
				c-62.53,0-810.612,1.696-829.07,2.514c-2.02,0.092-4.668,0.569-5.597,3.323c-2.607,15.486-2.056,493.484,0.935,509.444
				c0.486,3.297,3.829,3.444,5.623,3.591c17.408,1.435,748.56,2.32,791.865,2.32c72.478,0,144.521-2.469,167.199-4.542
				c2.063-0.188,5.137-0.275,5.406-3.797c1.853-15.601,2.94-490.322,1.949-506.104C863.439,35.121,862.934,33.572,858.521,33.469z
				 M858.268,545.216c-14.349,2.05-90.265,4.37-168.638,4.37c-47.347,0-779.557-0.883-794.998-2.502
				c-3.865-11.641-4.564-500.708-0.976-511.516c12.465-0.626,763.144-2.758,831.895-2.758c48.106,0,93.529,1.04,135.086,3.091
				C862.14,48.209,860.525,533.824,858.268,545.216z"/>
			<path opacity="0.5" fill="#B06E0E" enable-background="new    " d="M869.737,30.285c-0.99-1.272-2.646-2.058-4.537-2.152
				c-42.83-2.189-89.816-3.3-139.651-3.3c-76.531,0-831.51,2.646-835.549,2.946c-5.556,0.414-8.042,3.954-9.067,24.818
				c-0.621,12.708-0.417,459.544,0.516,473.948c1.779,27.187,4.533,27.549,8.713,28.09c19.587,2.55,770.017,2.932,799.468,2.932
				c38.123,0,81.322-0.607,115.552-1.623c59.764-1.773,60.785-3.367,62.482-6.017c2.423-3.788,3.573-32.464,3.957-44.611
				C872.909,464.332,870.606,31.39,869.737,30.285z M868.462,504.726c-0.372,11.63-1.498,39.075-3.862,42.704
				c-1.657,2.533-2.655,4.063-61.045,5.763c-33.442,0.97-75.644,1.551-112.896,1.551c-28.771,0-778.904-0.586-798.038-3.019
				c-4.091-0.521-6.783-0.867-8.511-26.898c-0.923-13.787-1.11-459.898-0.505-472.068c0.995-19.973,3.425-23.362,8.854-23.76
				c3.95-0.286,758.526-2.595,833.299-2.595c48.691,0,94.598,1.059,136.444,3.155c1.848,0.094,3.459,0.844,4.435,2.058
				C867.477,32.679,869.728,465.49,868.462,504.726z"/>
			<path fill="#C08B3E" d="M718.894,553.535c-0.005,0-0.014,0-0.018,0c-63.192,0-817.316-1.54-821.705-2.056
				c-8.352-0.976-10.876-1.27-11.123-41.771c-0.246-40.238,2.042-475.398,4.842-477.675c2.259-1.84,712.01-2.107,755.392-3.089
				c12.775-0.29,28.278-0.639,47.014-1.11c13.96-0.347,28.938-0.526,44.521-0.526c64.403,0,120.889,3.006,124.229,3.281
				c5.049,0.422,5.498,3.419,5.498,11.873c0,8.245-2.202,496.772-2.454,500.657c-0.263,4.114-4.858,5.687-5.056,5.756
				C823.812,552.739,763.305,553.535,718.894,553.535L718.894,553.535z M693.092,29.413c-18.75,0.172-34.229,0.82-47.017,1.11
				c-40.746,0.92-752.571,1.229-754.457,2.765c-2.497,2.043-4.484,436.592-4.239,476.414c0.243,39.655,2.706,39.938,9.996,40.791
				c4.231,0.494,759.553,2.047,821.501,2.047c0,0,0.013,0,0.018,0c44.374,0,104.804-0.798,140.775-4.616
				c-0.015-0.018,3.865-1.361,4.088-4.852c0.252-3.883,2.454-492.372,2.454-500.61c0-8.852-0.928-9.998-4.563-10.3
				C858.318,31.883,810.418,28.333,693.092,29.413z"/>
		</g>
		<path fill="#E2EDC3" d="M860.637,35.901c-41.557-2.051-86.979-3.091-135.086-3.091c-68.751,0-819.428,2.132-831.895,2.758
			c-3.588,10.808-2.887,499.875,0.976,511.514c15.441,1.619,747.651,2.502,794.998,2.502c78.373,0,154.289-2.318,168.638-4.371
			C860.525,533.824,862.14,48.209,860.637,35.901z"/>
	</g>
	<g opacity="0.2">
		<circle fill="#0F0F0F" cx="753.698" cy="143.525" r="124.928"/>
		<path fill="#9BA574" d="M628.77,143.525c0,0,0.021,0.766,0.062,2.251c0.069,1.483,0.02,3.692,0.299,6.555
			c0.383,5.723,1.33,14.16,4.231,24.497c2.874,10.304,7.685,22.603,16.009,35.024c8.246,12.395,19.863,25.048,35.229,35.093
			c7.669,5.004,16.207,9.37,25.453,12.773c9.24,3.423,19.239,5.691,29.62,6.812c1.294,0.181,2.604,0.238,3.916,0.33
			c1.312,0.083,2.627,0.167,3.947,0.252c1.322,0.021,2.649,0.042,3.979,0.063l1.999,0.032c0.607-0.004,1.33-0.042,1.99-0.061
			c1.352-0.047,2.707-0.094,4.066-0.141c1.354-0.063,2.678-0.216,4.023-0.32c2.683-0.168,5.38-0.609,8.09-0.966
			c5.394-0.901,10.821-2.006,16.149-3.663c2.693-0.726,5.31-1.738,7.971-2.643c1.313-0.501,2.612-1.051,3.923-1.575l1.964-0.797
			l1.927-0.894c20.647-9.353,39.243-24.969,52.26-44.805c6.488-9.92,11.604-20.831,15.073-32.296
			c1.751-5.731,2.964-11.621,3.89-17.552l0.559-4.471c0.211-1.488,0.248-2.994,0.382-4.49c0.116-1.499,0.239-2.996,0.242-4.5
			l0.106-4.445c-0.081-6.221-0.428-12.044-1.294-18.031c-0.926-5.931-2.139-11.82-3.89-17.551
			c-3.464-11.467-8.594-22.37-15.078-32.291c-13.015-19.835-31.616-35.44-52.257-44.797l-1.927-0.894l-1.963-0.798
			c-1.311-0.524-2.609-1.073-3.922-1.575c-2.661-0.905-5.277-1.917-7.971-2.643c-5.327-1.656-10.755-2.761-16.146-3.663
			c-2.711-0.357-5.4-0.797-8.104-0.968c-1.35-0.104-2.692-0.257-4.037-0.32c-1.345-0.047-2.687-0.094-4.023-0.14
			c-0.656-0.02-1.367-0.056-1.975-0.061l-2.019,0.032c-1.344,0.021-2.683,0.042-4.018,0.063c-1.314,0.084-2.625,0.168-3.931,0.251
			c-1.305,0.091-2.606,0.147-3.903,0.329c-10.381,1.12-20.379,3.387-29.618,6.81c-9.246,3.403-17.783,7.768-25.452,12.771
			c-15.364,10.043-26.986,22.693-35.23,35.089c-8.325,12.42-13.137,24.718-16.011,35.022c-2.901,10.337-3.848,18.773-4.231,24.497
			c-0.279,2.863-0.229,5.071-0.299,6.555C628.79,142.759,628.77,143.525,628.77,143.525z M628.77,143.525
			c0,0,0.018-0.766,0.053-2.251c0.064-1.483,0.006-3.693,0.273-6.557c0.361-5.727,1.275-14.17,4.14-24.529
			c0.366-1.292,0.743-2.617,1.129-3.977c0.45-1.34,0.912-2.713,1.385-4.119c0.442-1.417,1.021-2.821,1.586-4.266
			c0.575-1.44,1.11-2.935,1.806-4.397c2.547-5.95,5.811-12.176,9.889-18.454c8.123-12.547,19.69-25.321,34.953-35.79
			c7.641-5.193,16.185-9.772,25.488-13.398c9.297-3.646,19.404-6.145,29.951-7.485c1.312-0.208,2.652-0.294,3.991-0.413
			c1.34-0.11,2.685-0.221,4.033-0.333c1.334-0.046,2.673-0.093,4.016-0.14l2.018-0.07c0.74-0.009,1.379,0.016,2.074,0.022
			c1.366,0.022,2.735,0.044,4.109,0.066c1.374,0.038,2.747,0.167,4.128,0.248c2.766,0.123,5.521,0.518,8.303,0.833
			c5.533,0.816,11.116,1.845,16.612,3.438c2.778,0.694,5.481,1.678,8.233,2.559c1.358,0.489,2.702,1.027,4.06,1.541l2.034,0.783
			l1.998,0.88c10.716,4.603,20.94,10.853,30.242,18.479c4.666,3.803,8.984,8.067,13.114,12.535
			c4.106,4.498,7.832,9.37,11.307,14.439c3.454,5.089,6.47,10.494,9.182,16.062c2.686,5.587,4.855,11.427,6.724,17.366
			c1.843,5.953,3.132,12.074,4.116,18.242c0.921,6.142,1.331,12.581,1.407,18.622l-0.126,4.751c-0.012,1.564-0.144,3.122-0.271,4.68
			c-0.144,1.556-0.192,3.121-0.416,4.669l-0.6,4.648c-0.983,6.167-2.272,12.288-4.115,18.241
			c-1.869,5.938-4.036,11.779-6.726,17.364c-2.722,5.563-5.729,10.971-9.185,16.059c-3.475,5.069-7.2,9.94-11.306,14.438
			c-0.993,1.153-2.094,2.206-3.133,3.312l-1.579,1.637l-1.646,1.564c-1.108,1.03-2.184,2.094-3.315,3.09
			c-1.149,0.977-2.297,1.953-3.443,2.927c-9.3,7.626-19.523,13.876-30.237,18.479l-1.998,0.881l-2.033,0.782
			c-1.357,0.514-2.701,1.052-4.06,1.541c-2.751,0.88-5.454,1.864-8.231,2.559c-5.496,1.593-11.078,2.623-16.61,3.439
			c-2.782,0.314-5.53,0.709-8.317,0.834c-1.384,0.081-2.775,0.21-4.14,0.248c-1.359,0.021-2.716,0.043-4.067,0.064
			c-0.691,0.007-1.318,0.031-2.059,0.023l-2.037-0.07c-1.355-0.047-2.707-0.094-4.054-0.141c-1.343-0.111-2.682-0.222-4.017-0.333
			c-1.333-0.118-2.664-0.203-3.979-0.411c-10.546-1.339-20.652-3.838-29.949-7.482c-9.304-3.625-17.848-8.203-25.487-13.396
			c-15.262-10.467-26.833-23.236-34.955-35.785c-4.079-6.277-7.341-12.503-9.891-18.452c-0.696-1.462-1.23-2.957-1.807-4.397
			c-0.564-1.445-1.143-2.849-1.586-4.266c-0.473-1.406-0.934-2.779-1.385-4.119c-0.386-1.359-0.762-2.685-1.129-3.977
			c-2.864-10.359-3.778-18.802-4.14-24.529c-0.268-2.865-0.209-5.073-0.273-6.556C628.787,144.291,628.77,143.525,628.77,143.525z"
			/>
	</g>
	<g>
		<circle fill="#FAFFE9" cx="753.698" cy="132.525" r="124.928"/>
		<path fill="#9BA574" d="M628.77,132.525c0,0,0.021,0.766,0.062,2.251c0.069,1.483,0.02,3.692,0.299,6.555
			c0.383,5.723,1.33,14.16,4.231,24.497c2.874,10.304,7.685,22.603,16.009,35.024c8.246,12.395,19.863,25.048,35.229,35.093
			c7.669,5.004,16.207,9.37,25.453,12.773c9.24,3.423,19.239,5.691,29.62,6.812c1.294,0.181,2.604,0.238,3.916,0.33
			c1.312,0.083,2.627,0.167,3.947,0.252c1.322,0.021,2.649,0.042,3.979,0.063l1.999,0.032c0.607-0.004,1.33-0.042,1.99-0.061
			c1.352-0.047,2.707-0.094,4.066-0.141c1.354-0.063,2.678-0.216,4.023-0.32c2.683-0.168,5.38-0.609,8.09-0.966
			c5.394-0.901,10.821-2.006,16.149-3.663c2.693-0.726,5.31-1.738,7.971-2.643c1.313-0.501,2.612-1.051,3.923-1.575l1.964-0.797
			l1.927-0.894c20.647-9.353,39.243-24.969,52.26-44.805c6.488-9.92,11.604-20.831,15.073-32.296
			c1.751-5.731,2.964-11.621,3.89-17.552l0.559-4.471c0.211-1.488,0.248-2.994,0.382-4.49c0.116-1.499,0.239-2.996,0.242-4.5
			l0.106-4.445c-0.081-6.221-0.428-12.044-1.294-18.031c-0.926-5.931-2.139-11.82-3.89-17.551
			c-3.464-11.467-8.594-22.37-15.078-32.291c-13.015-19.835-31.616-35.44-52.257-44.797l-1.927-0.894l-1.963-0.798
			c-1.311-0.524-2.609-1.073-3.922-1.575c-2.661-0.905-5.277-1.917-7.971-2.643c-5.327-1.656-10.755-2.761-16.146-3.663
			c-2.711-0.357-5.4-0.797-8.104-0.968c-1.35-0.104-2.692-0.257-4.037-0.32c-1.345-0.047-2.687-0.094-4.023-0.14
			c-0.656-0.02-1.367-0.056-1.975-0.061l-2.019,0.032c-1.344,0.021-2.683,0.042-4.018,0.063c-1.314,0.084-2.625,0.168-3.931,0.251
			c-1.305,0.091-2.606,0.147-3.903,0.329c-10.381,1.12-20.379,3.387-29.618,6.81c-9.246,3.403-17.783,7.768-25.452,12.771
			c-15.364,10.043-26.986,22.693-35.23,35.089c-8.325,12.42-13.137,24.718-16.011,35.022c-2.901,10.337-3.848,18.773-4.231,24.497
			c-0.279,2.863-0.229,5.071-0.299,6.555C628.79,131.759,628.77,132.525,628.77,132.525z M628.77,132.525
			c0,0,0.018-0.766,0.053-2.251c0.064-1.483,0.006-3.693,0.273-6.557c0.361-5.727,1.275-14.17,4.14-24.529
			c0.366-1.292,0.743-2.617,1.129-3.977c0.45-1.34,0.912-2.713,1.385-4.119c0.442-1.417,1.021-2.821,1.586-4.266
			c0.575-1.44,1.11-2.935,1.806-4.397c2.547-5.95,5.811-12.176,9.889-18.454c8.123-12.547,19.69-25.321,34.953-35.79
			c7.641-5.193,16.185-9.772,25.488-13.398c9.297-3.646,19.404-6.145,29.951-7.485c1.312-0.208,2.652-0.294,3.991-0.413
			c1.34-0.11,2.685-0.221,4.033-0.333c1.334-0.046,2.673-0.093,4.016-0.14l2.018-0.07c0.74-0.009,1.379,0.016,2.074,0.022
			c1.366,0.022,2.735,0.044,4.109,0.066c1.374,0.038,2.747,0.167,4.128,0.248c2.766,0.123,5.521,0.518,8.303,0.833
			c5.533,0.816,11.116,1.845,16.612,3.438c2.778,0.694,5.481,1.678,8.233,2.559c1.358,0.489,2.702,1.027,4.06,1.541l2.034,0.783
			l1.998,0.88c10.716,4.603,20.94,10.853,30.242,18.479c4.666,3.803,8.984,8.067,13.114,12.535
			c4.106,4.498,7.832,9.37,11.307,14.439c3.454,5.089,6.47,10.494,9.182,16.062c2.686,5.587,4.855,11.427,6.724,17.366
			c1.843,5.953,3.132,12.074,4.116,18.242c0.921,6.142,1.331,12.581,1.407,18.622l-0.126,4.751c-0.012,1.564-0.144,3.122-0.271,4.68
			c-0.144,1.556-0.192,3.121-0.416,4.669l-0.6,4.648c-0.983,6.167-2.272,12.288-4.115,18.241
			c-1.869,5.938-4.036,11.779-6.726,17.364c-2.722,5.563-5.729,10.971-9.185,16.059c-3.475,5.069-7.2,9.94-11.306,14.438
			c-0.993,1.153-2.094,2.206-3.133,3.312l-1.579,1.637l-1.646,1.564c-1.108,1.03-2.184,2.094-3.315,3.09
			c-1.149,0.977-2.297,1.953-3.443,2.927c-9.3,7.626-19.523,13.876-30.237,18.479l-1.998,0.881l-2.033,0.782
			c-1.357,0.514-2.701,1.052-4.06,1.541c-2.751,0.88-5.454,1.864-8.231,2.559c-5.496,1.593-11.078,2.623-16.61,3.439
			c-2.782,0.314-5.53,0.709-8.317,0.834c-1.384,0.081-2.775,0.21-4.14,0.248c-1.359,0.021-2.716,0.043-4.067,0.064
			c-0.691,0.007-1.318,0.031-2.059,0.023l-2.037-0.07c-1.355-0.047-2.707-0.094-4.054-0.141c-1.343-0.111-2.682-0.222-4.017-0.333
			c-1.333-0.118-2.664-0.203-3.979-0.411c-10.546-1.339-20.652-3.838-29.949-7.482c-9.304-3.625-17.848-8.203-25.487-13.396
			c-15.262-10.467-26.833-23.236-34.955-35.785c-4.079-6.277-7.341-12.503-9.891-18.452c-0.696-1.462-1.23-2.957-1.807-4.397
			c-0.564-1.445-1.143-2.849-1.586-4.266c-0.473-1.406-0.934-2.779-1.385-4.119c-0.386-1.359-0.762-2.685-1.129-3.977
			c-2.864-10.359-3.778-18.802-4.14-24.529c-0.268-2.865-0.209-5.073-0.273-6.556C628.787,133.291,628.77,132.525,628.77,132.525z"
			/>
	</g>
	<g opacity="0.2">
		<path fill="#0F0F0F" d="M781.366,515.585c0,1.657-1.687,3-3.769,3H-70.119c-2.081,0-3.768-1.343-3.768-3V91.341
			c0-1.657,1.687-3,3.768-3h847.717c2.082,0,3.769,1.343,3.769,3V515.585z"/>
		<path fill="#9BA574" d="M781.614,515.616c0,0-0.02,0.155-0.059,0.464c-0.043,0.309-0.253,0.863-0.664,1.365
			c-0.442,0.497-1.142,0.983-2.082,1.225c-0.964,0.248-2.04,0.141-3.245,0.165c-4.854,0-12.056,0-21.45,0
			c-18.788,0-46.344,0.001-81.415,0.001c-35.072,0.033-77.658,0.073-126.508,0.119c-48.85,0.108-103.962,0.23-164.084,0.363
			c-120.245,0.21-260.531,0.454-410.837,0.716c-9.394,0.011-18.827,0.022-28.297,0.033c-2.367,0.003-4.737,0.006-7.109,0.008
			l-3.56,0.005l-1.781,0.002c-0.188-0.002-0.741,0.01-1.011-0.023c-0.277-0.019-0.576-0.033-1.066-0.158
			c-0.887-0.194-1.547-0.563-2.237-1.086c-0.655-0.548-1.201-1.313-1.471-2.236c-0.201-1.108-0.107-1.538-0.131-2.159l-0.002-1.785
			c-0.003-2.381-0.005-4.764-0.008-7.148c-0.022-19.082-0.045-38.301-0.067-57.638c-0.045-38.672-0.091-77.814-0.137-117.27
			c-0.092-78.911-0.186-159.074-0.28-239.237c0.091-0.834,0.008-0.629,0.299-1.549c0.247-0.724,0.546-1.034,0.871-1.48
			c0.689-0.766,1.522-1.271,2.386-1.593c0.433-0.139,0.877-0.261,1.32-0.317c0.429-0.042,0.95-0.081,1.204-0.069l1.879-0.003
			l7.515-0.011l15.029-0.022c10.018-0.015,20.033-0.03,30.044-0.044c20.021-0.03,40.023-0.06,59.985-0.089
			c39.925-0.06,79.693-0.118,119.149-0.177c78.911-0.085,156.569-0.168,231.722-0.249c75.153,0.069,147.801,0.136,216.691,0.199
			c34.445,0.097,67.95,0.19,100.36,0.281c16.205,0.065,32.136,0.129,47.773,0.191c3.909,0.019,7.8,0.037,11.672,0.055l2.901,0.014
			l1.447,0.007l0.724,0.003c0.107,0,0.664-0.002,0.871,0.026c0.284,0.038,0.381,0.002,0.818,0.1
			c0.367,0.086,0.795,0.161,1.097,0.305c0.642,0.254,1.268,0.603,1.811,1.118c0.276,0.251,0.533,0.525,0.744,0.87
			c0.235,0.311,0.397,0.69,0.535,1.083c0.167,0.375,0.17,0.818,0.223,1.229c0.018,0.343,0.003,0.508,0.006,0.771
			c-0.036,7.669-0.072,15.263-0.107,22.778c-0.279,60.122-0.535,115.234-0.762,164.084c-0.188,48.85-0.353,91.436-0.488,126.507
			c-0.137,70.143-0.215,110.225-0.215,110.225L781.614,515.616z M781.116,515.585c0,0-0.078-40.082-0.215-110.225
			c-0.136-35.071-0.3-77.658-0.488-126.507c-0.227-48.85-0.482-103.962-0.762-164.084c-0.035-7.516-0.071-15.109-0.107-22.778
			c-0.005-0.216,0.006-0.532-0.012-0.667c-0.046-0.055,0.021-0.118-0.043-0.177c-0.028-0.059-0.034-0.13-0.106-0.196
			c-0.031-0.076-0.108-0.145-0.192-0.215c-0.15-0.15-0.383-0.275-0.633-0.373c-0.131-0.073-0.195-0.04-0.288-0.092
			c-0.024-0.049-0.421-0.045-0.612-0.07c-1.877,0.005-3.759,0.011-5.646,0.017c-3.872,0.018-7.763,0.036-11.672,0.055
			c-15.638,0.063-31.568,0.126-47.773,0.191c-32.41,0.091-65.915,0.185-100.36,0.281c-68.891,0.063-141.538,0.13-216.691,0.199
			c-75.153-0.081-152.811-0.164-231.722-0.249c-39.456-0.059-79.224-0.117-119.149-0.177C24.682,90.49,4.68,90.46-15.341,90.43
			c-10.011-0.015-20.026-0.029-30.044-0.044l-15.029-0.022l-7.515-0.011l-1.879-0.003c-0.373-0.011-0.476,0.029-0.671,0.031
			c-0.176,0.019-0.341,0.075-0.503,0.115c-0.308,0.118-0.561,0.289-0.72,0.453c-0.029,0.061-0.164,0.233-0.092,0.118
			c-0.001-0.353-0.097,0.49-0.094,0.275c-0.094,80.163-0.188,160.327-0.28,239.237c-0.046,39.455-0.092,78.598-0.137,117.27
			c-0.022,19.337-0.045,38.556-0.067,57.638c-0.003,2.385-0.005,4.768-0.008,7.148l-0.002,1.785l-0.001,0.893
			c-0.014,0.385,0.046,0.356,0.03,0.508c0.084,0.218,0.222,0.464,0.479,0.686c0.144,0.093,0.278,0.21,0.452,0.283
			c0.176,0.074,0.353,0.162,0.485,0.179c0.081,0.054,0.375,0.089,0.691,0.105c0.322,0.036,0.365,0.005,0.769,0.016l1.781,0.002
			l3.56,0.005c2.372,0.002,4.742,0.005,7.109,0.008c9.47,0.011,18.903,0.022,28.297,0.033
			c150.306,0.262,290.592,0.506,410.837,0.716c60.122,0.133,115.234,0.255,164.084,0.363c48.85,0.046,91.436,0.086,126.508,0.119
			c35.071,0,62.627,0.001,81.415,0.001c9.395,0,16.597,0,21.45,0c1.213-0.021,2.301,0.072,3.121-0.149
			c0.84-0.216,1.45-0.646,1.827-1.066c0.354-0.466,0.493-0.802,0.547-1.102c0.039-0.309,0.059-0.464,0.059-0.464L781.116,515.585z"
			/>
	</g>
	<g>
		<path fill="#FAFFE9" d="M781.366,505.585c0,1.657-1.687,3-3.769,3H-70.119c-2.081,0-3.768-1.343-3.768-3V81.341
			c0-1.657,1.687-3,3.768-3h847.717c2.082,0,3.769,1.343,3.769,3V505.585z"/>
		<path fill="#9BA574" d="M781.614,505.616c0,0-0.02,0.155-0.059,0.464c-0.043,0.309-0.253,0.863-0.664,1.365
			c-0.442,0.497-1.142,0.983-2.082,1.225c-0.964,0.248-2.04,0.141-3.245,0.165c-4.854,0-12.056,0-21.45,0
			c-18.788,0-46.344,0.001-81.415,0.001c-35.072,0.033-77.658,0.073-126.508,0.119c-48.85,0.108-103.962,0.23-164.084,0.363
			c-120.245,0.21-260.531,0.454-410.837,0.716c-9.394,0.011-18.827,0.022-28.297,0.033c-2.367,0.003-4.737,0.006-7.109,0.008
			l-3.56,0.005l-1.781,0.002c-0.188-0.002-0.741,0.01-1.011-0.023c-0.277-0.019-0.576-0.033-1.066-0.158
			c-0.887-0.194-1.547-0.563-2.237-1.086c-0.655-0.548-1.201-1.313-1.471-2.236c-0.201-1.108-0.107-1.538-0.131-2.159l-0.002-1.785
			c-0.003-2.381-0.005-4.764-0.008-7.148c-0.022-19.082-0.045-38.301-0.067-57.638c-0.045-38.672-0.091-77.814-0.137-117.27
			c-0.092-78.911-0.186-159.074-0.28-239.237c0.091-0.834,0.008-0.629,0.299-1.549c0.247-0.724,0.546-1.034,0.871-1.48
			c0.689-0.766,1.522-1.271,2.386-1.593c0.433-0.139,0.877-0.261,1.32-0.317c0.429-0.042,0.95-0.081,1.204-0.069l1.879-0.003
			l7.515-0.011l15.029-0.022c10.018-0.015,20.033-0.03,30.044-0.044c20.021-0.03,40.023-0.06,59.985-0.089
			c39.925-0.06,79.693-0.118,119.149-0.177c78.911-0.085,156.569-0.168,231.722-0.249c75.153,0.069,147.801,0.136,216.691,0.199
			c34.445,0.097,67.95,0.19,100.36,0.281c16.205,0.065,32.136,0.129,47.773,0.191c3.909,0.019,7.8,0.037,11.672,0.055l2.901,0.014
			l1.447,0.007l0.724,0.003c0.107,0,0.664-0.002,0.871,0.026c0.284,0.038,0.381,0.002,0.818,0.1
			c0.367,0.086,0.795,0.161,1.097,0.305c0.642,0.254,1.268,0.603,1.811,1.118c0.276,0.251,0.533,0.525,0.744,0.87
			c0.235,0.311,0.397,0.69,0.535,1.083c0.167,0.375,0.17,0.818,0.223,1.229c0.018,0.343,0.003,0.508,0.006,0.771
			c-0.036,7.669-0.072,15.263-0.107,22.778c-0.279,60.122-0.535,115.234-0.762,164.084c-0.188,48.85-0.353,91.436-0.488,126.507
			c-0.137,70.143-0.215,110.225-0.215,110.225L781.614,505.616z M781.116,505.585c0,0-0.078-40.082-0.215-110.225
			c-0.136-35.071-0.3-77.658-0.488-126.507c-0.227-48.85-0.482-103.962-0.762-164.084c-0.035-7.516-0.071-15.109-0.107-22.778
			c-0.005-0.216,0.006-0.532-0.012-0.667c-0.046-0.055,0.021-0.118-0.043-0.177c-0.028-0.059-0.034-0.13-0.106-0.196
			c-0.031-0.076-0.108-0.145-0.192-0.215c-0.15-0.15-0.383-0.275-0.633-0.373c-0.131-0.073-0.195-0.04-0.288-0.092
			c-0.024-0.049-0.421-0.045-0.612-0.07c-1.877,0.005-3.759,0.011-5.646,0.017c-3.872,0.018-7.763,0.036-11.672,0.055
			c-15.638,0.063-31.568,0.126-47.773,0.191c-32.41,0.091-65.915,0.185-100.36,0.281c-68.891,0.063-141.538,0.13-216.691,0.199
			c-75.153-0.081-152.811-0.164-231.722-0.249c-39.456-0.059-79.224-0.117-119.149-0.177C24.682,80.49,4.68,80.46-15.341,80.43
			c-10.011-0.015-20.026-0.029-30.044-0.044l-15.029-0.022l-7.515-0.011l-1.879-0.003c-0.373-0.011-0.476,0.029-0.671,0.031
			c-0.176,0.019-0.341,0.075-0.503,0.115c-0.308,0.118-0.561,0.289-0.72,0.453c-0.029,0.061-0.164,0.233-0.092,0.118
			c-0.001-0.353-0.097,0.49-0.094,0.275c-0.094,80.163-0.188,160.327-0.28,239.237c-0.046,39.455-0.092,78.598-0.137,117.27
			c-0.022,19.337-0.045,38.556-0.067,57.638c-0.003,2.385-0.005,4.768-0.008,7.148l-0.002,1.785l-0.001,0.893
			c-0.014,0.385,0.046,0.356,0.03,0.508c0.084,0.218,0.222,0.464,0.479,0.686c0.144,0.093,0.278,0.21,0.452,0.283
			c0.176,0.074,0.353,0.162,0.485,0.179c0.081,0.054,0.375,0.089,0.691,0.105c0.322,0.036,0.365,0.005,0.769,0.016l1.781,0.002
			l3.56,0.005c2.372,0.002,4.742,0.005,7.109,0.008c9.47,0.011,18.903,0.022,28.297,0.033
			c150.306,0.262,290.592,0.506,410.837,0.716c60.122,0.133,115.234,0.255,164.084,0.363c48.85,0.046,91.436,0.086,126.508,0.119
			c35.071,0,62.627,0.001,81.415,0.001c9.395,0,16.597,0,21.45,0c1.213-0.021,2.301,0.072,3.121-0.149
			c0.84-0.216,1.45-0.646,1.827-1.066c0.354-0.466,0.493-0.802,0.547-1.102c0.039-0.309,0.059-0.464,0.059-0.464L781.116,505.585z"
			/>
	</g>
	<ellipse fill="#FAFFE9" cx="730.862" cy="148.93" rx="114.117" ry="116.62"/>
	<g>
		<g>
			
				<linearGradient id="SVGID_1_" gradientUnits="userSpaceOnUse" x1="506.8184" y1="158.7073" x2="493.6104" y2="175.6012" gradientTransform="matrix(0.8385 0.5449 -0.5449 0.8385 493.0641 -221.1597)">
				<stop  offset="0" style="stop-color:#F6CFB2"/>
				<stop  offset="0.2967" style="stop-color:#887363"/>
				<stop  offset="0.5774" style="stop-color:#27201C"/>
				<stop  offset="0.7023" style="stop-color:#000000"/>
			</linearGradient>
			<path opacity="0.7" fill="url(#SVGID_1_)" d="M825.346,184.421c-2.517-7.979-14.921-3.482-18.597,1.118
				c-0.23,0.287,0.223,0.445,0.43,0.295c2.325-1.59,4.202-1.519,6.98-1.703c5.354-0.361,6.415,6.304,5.856,9.619
				c-0.862,5.164-4.073,8.815-7.056,13.07c-0.387,0.56,0.407,0.821,0.822,0.543C820.599,202.936,827.875,192.52,825.346,184.421z"/>
			
				<radialGradient id="SVGID_2_" cx="207.1284" cy="110.4861" r="159.8614" fx="166.2648" fy="102.3667" gradientTransform="matrix(0.9595 0.2813 -0.2813 0.9595 581.1442 -50.2615)" gradientUnits="userSpaceOnUse">
				<stop  offset="0.2336" style="stop-color:#715142"/>
				<stop  offset="0.7429" style="stop-color:#33231A"/>
				<stop  offset="0.9811" style="stop-color:#715142"/>
			</radialGradient>
			<path fill="url(#SVGID_2_)" d="M666.944,156.812c0,0-15.172-41.557,9.79-76.725c0,0-8.478-1.018-15.124,2.896
				c-5.256,3.105,0.797-11.857,22.177-23.167c0,0-2.585-3.689-7.098-5.368c-3.201-1.209-6.466-2.695-4.448-3.988
				c14.803-9.457,25.516-3.743,25.516-3.743s-2.219-12.378,5.225-19.474c7.447-7.101-1.888,13.122,11.98,7.413
				c13.883-5.688,77.188-18.388,124.96,35.168c0,0,1.084,1.307,2.271-2.755c1.187-4.042-2.564-7.089,0.149-6.294
				c2.682,0.785,9.637,6.245,5.571,16.765c0,0,9.55-2.57,15.917,5.64c5.288,6.835-5.789-0.218-11.8,1.913
				c0,0,17.151,14.791,17.522,45.185c0,0,0.784,9.017-2.215,4.238c-2.994-4.8-2.945-3.311-2.447,1.712
				c0.464,5.031,3.252,12.197,6.851,13.253c3.607,1.054-0.153,3.851-6.182,1.106c0,0,3.177,14.116-2.313,26.186
				c-5.489,12.052-5.518,7.167-5.545,2.282c0,0-8.6,24.33-18.615,30.18c-10.017,5.846-2.797-3.749-1.783-12.236
				c0,0-9.313,25.1-29.436,30.428c-20.111,5.343-7.396,0.271-6.544-4.354c0,0-13.778,12.082-30.342,5.257
				C754.438,221.516,666.944,156.812,666.944,156.812z"/>
			<g opacity="0.5">
				
					<radialGradient id="SVGID_3_" cx="207.1304" cy="110.4915" r="159.851" fx="166.2694" fy="102.3726" gradientTransform="matrix(0.9595 0.2813 -0.2813 0.9595 581.1442 -50.2615)" gradientUnits="userSpaceOnUse">
					<stop  offset="0.2336" style="stop-color:#715142"/>
					<stop  offset="0.7429" style="stop-color:#33231A"/>
					<stop  offset="0.9811" style="stop-color:#715142"/>
				</radialGradient>
				<path opacity="0.5" fill="url(#SVGID_3_)" d="M857.077,167.023c1.642,20.624-21.309,43.929-16.704,35.763
					c4.59-8.194,11.937-38.252,3.985-24.857c-7.972,13.423-11.879,15.574-8.396,4.876c3.513-10.689,4.306-34.621,0.139-20.464
					c-4.15,14.167-16.375,23.411-12.893,15.269c3.479-8.138,2.285-29.004,0.158-14.248c-2.141,14.76-19.951,35.534-13.333,21.73
					c6.611-13.809,6.848-33.385,0.119-55.392c-6.733-21.994-18.767-36.731-14.653-29.921c4.099,6.818-2.105,29.649-1.076,19.452
					c1.039-10.194-11.317-19.673-7.913-19.643c3.417,0.014,2.007-1.861-3.479-8.1c-5.495-6.264,3.75-21.126-3.528-12.989
					c-7.259,8.111-1.154,14.781,2.105,16.96c3.283,2.179-0.003,1.704-0.003,1.704c-12.639-2.721-13.736-13.058-14.213-15.637
					c-0.465-2.582-1.771,0.208-1.771,0.208c-7.256,18.14,5.748,25.368,5.748,25.368c-27.521-8.553-20.904-26.136-20.904-26.136
					c-8.549,3.343-10.988,17.514-11.429,19.833c-0.432,2.317-0.956-0.048-0.956-0.048c-7.887-14.757,5.873-27.568,5.873-27.568
					c-10.185-1.031-18.364,4.381-23.143,7.377c-4.795,2.982-2.002,0.144-2.002,0.144c6.047-8.97,16.471-12.959,16.471-12.959
					c-8.395,0.243-16.067,5.752-16.067,5.752c-12.344,2.968-25.056,14.634-21.007,9.226c4.016-5.411,16.134-14.675,16.134-14.675
					c-35.614,5.309-40.114,32.304-45.676,54.602c-3.153,12.659-5.063,12.467-6.114,9.924c0.779,14.284,4.395,24.238,4.395,24.238
					s87.493,64.704,104.038,71.517c16.563,6.825,30.342-5.257,30.342-5.257c-0.853,4.625-13.567,9.697,6.544,4.354
					c20.123-5.328,29.436-30.428,29.436-30.428c-1.014,8.487-8.233,18.082,1.783,12.236c10.016-5.85,18.615-30.18,18.615-30.18
					c0.014,2.317,0.024,4.641,0.625,5.146C862.454,170.098,855.585,148.282,857.077,167.023z"/>
			</g>
			<g>
				<g>
					
						<radialGradient id="SVGID_4_" cx="121.0991" cy="192.9187" r="24.3786" fx="105.9642" fy="187.2787" gradientTransform="matrix(0.9434 0.332 -0.332 0.9434 604.5559 -74.8984)" gradientUnits="userSpaceOnUse">
						<stop  offset="0" style="stop-color:#EAD7CF"/>
						<stop  offset="0.0053" style="stop-color:#EAD6CE"/>
						<stop  offset="0.1913" style="stop-color:#EAC6B7"/>
						<stop  offset="0.2875" style="stop-color:#E9C3AA"/>
						<stop  offset="0.3818" style="stop-color:#E9C1A2"/>
						<stop  offset="0.5296" style="stop-color:#E4B99B"/>
						<stop  offset="0.7641" style="stop-color:#D6A287"/>
						<stop  offset="0.9923" style="stop-color:#C4856F"/>
					</radialGradient>
					<path fill="url(#SVGID_4_)" d="M673.288,146.078c0,0,2.253-9.961-6.039-12.869c-8.274-2.931-16.24,8.545-15.784,21.343
						c0.472,12.782,9.97,16.335,15.116,11.111C671.745,160.447,673.288,146.078,673.288,146.078z"/>
					<path fill="#C98047" d="M651.323,154.548c-0.288-8.07,2.796-16.049,7.664-19.83c2.639-2.057,5.518-2.636,8.306-1.644
						c8.302,2.918,6.151,12.94,6.126,13.014c-0.006,0.048-0.398,3.659-1.421,7.862c-0.937,3.881-2.63,9.083-5.316,11.802
						c-2.05,2.084-4.876,2.855-7.585,2.057C655.54,166.768,651.628,162.728,651.323,154.548z M659.169,134.927
						c-4.82,3.749-7.859,11.616-7.569,19.615c0.298,8.04,4.106,11.99,7.583,13.009c2.595,0.755,5.34,0.017,7.298-1.987
						c5.069-5.128,6.651-19.352,6.665-19.518c0.029-0.09,2.143-9.872-5.939-12.714c-0.151-0.045-0.289-0.092-0.43-0.133
						C664.228,132.441,661.585,133.046,659.169,134.927z"/>
				</g>
				<g>
					<g>
						<g opacity="0.39">
							<path fill="#E0A269" d="M658.61,161.604c-1.176-0.997-2.252-2.549-2.868-3.668c-3.271-5.971-1.705-15.699,3.358-20.353
								c2.588-2.334,5.924-2.467,8.441-0.378c2.105,1.706,3.191,4.577,2.946,7.688c-0.352,5.088-1.878,6.53-3.491,8.072
								c-0.59,0.569-1.221,1.156-1.787,2.015c-0.496,0.721-0.729,1.47-0.701,2.207c0.056,1.433,1.049,2.48,1.098,2.536
								c0.33,0.426,0.52,1.728,0.05,2.728c-0.802,1.651-2.862,1.605-6.155-0.221C659.222,162.077,658.918,161.869,658.61,161.604
								L658.61,161.604z M664.833,160.771c-0.263-0.299-1.301-1.571-1.381-3.395c-0.043-1.15,0.289-2.258,0.992-3.297
								c0.664-0.95,1.336-1.602,1.988-2.226c1.512-1.405,2.7-2.528,2.988-6.941c0.189-2.657-0.737-5.107-2.543-6.596
								c-1.708-1.411-4.521-2.108-7.152,0.32c-4.576,4.263-6.032,13.072-3.098,18.438c0.567,1.004,1.513,2.394,2.576,3.296
								c0.256,0.224,0.506,0.401,0.738,0.524c3.697,2.034,4.602,1.187,4.803,0.89C664.97,161.446,664.87,160.921,664.833,160.771
								L664.833,160.771z"/>
						</g>
						
							<radialGradient id="SVGID_5_" cx="-4.2217" cy="405.2004" r="21.7969" fx="-8.0198" fy="405.8402" gradientTransform="matrix(-0.9133 -0.4071 -0.4071 0.9133 824.0319 -224.394)" gradientUnits="userSpaceOnUse">
							<stop  offset="0" style="stop-color:#EFD6AC"/>
							<stop  offset="0.1762" style="stop-color:#EDD2A8"/>
							<stop  offset="0.358" style="stop-color:#E6C59D"/>
							<stop  offset="0.5425" style="stop-color:#DBB189"/>
							<stop  offset="0.7277" style="stop-color:#CC946F"/>
							<stop  offset="0.7669" style="stop-color:#C88D68"/>
							<stop  offset="0.8241" style="stop-color:#CC9570"/>
							<stop  offset="0.9149" style="stop-color:#D7AD85"/>
							<stop  offset="1" style="stop-color:#E5C89F"/>
						</radialGradient>
						<path opacity="0.6" fill="url(#SVGID_5_)" d="M665.462,159.758c0,0-2.51-2.571-0.442-5.615
							c2.099-3.006,4.628-2.78,5.012-9.344c0.46-6.452-5.739-11.104-10.524-6.82c-4.551,4.12-6.277,13.145-3.021,18.937
							c0.83,1.491,2.246,3.317,3.531,4.056C666.423,164.499,665.81,160.17,665.462,159.758z"/>
						<path opacity="0.72" fill="#E0A269" d="M659.507,137.978c4.785-4.283,10.984,0.368,10.524,6.82
							c-0.226,3.419-1.006,5.004-2.015,6.16c0.62-1.182,1.416-3.009,1.414-5.656c0.074-6.197-6.269-9.871-10.438-5.019
							c-2.877,3.417-4.245,9.614-3.471,14.386C653.692,148.971,655.505,141.585,659.507,137.978z"/>
						<g opacity="0.27">
							
								<radialGradient id="SVGID_6_" cx="-826.1489" cy="-3338.3225" r="10.4313" gradientTransform="matrix(-0.7396 -0.2852 -0.5458 1.227 -1771.588 4022.1802)" gradientUnits="userSpaceOnUse">
								<stop  offset="0.2688" style="stop-color:#AD6A43"/>
								<stop  offset="0.4541" style="stop-color:#A96642"/>
								<stop  offset="0.6412" style="stop-color:#9D5C3E"/>
								<stop  offset="0.8286" style="stop-color:#894A38"/>
								<stop  offset="0.8925" style="stop-color:#804235"/>
							</radialGradient>
							<path fill="url(#SVGID_6_)" d="M664.292,159.169c-0.876-1.853,0.387-4.44,0.387-4.44l0,0
								c-1.402,2.773,0.783,5.029,0.783,5.029c0.348,0.412,0.961,4.741-5.445,1.213c-1.285-0.738-2.701-2.564-3.531-4.056
								c-0.127-0.217-0.225-0.445-0.341-0.692C661.34,163.388,665.167,161.021,664.292,159.169z"/>
							<g>
								
									<radialGradient id="SVGID_7_" cx="-826.1489" cy="-3338.3225" r="10.4313" gradientTransform="matrix(-0.7396 -0.2852 -0.5458 1.227 -1771.588 4022.1802)" gradientUnits="userSpaceOnUse">
									<stop  offset="0.2688" style="stop-color:#AD6A43"/>
									<stop  offset="0.4541" style="stop-color:#A96642"/>
									<stop  offset="0.6412" style="stop-color:#9D5C3E"/>
									<stop  offset="0.8286" style="stop-color:#894A38"/>
									<stop  offset="0.8925" style="stop-color:#804235"/>
								</radialGradient>
								<path fill="url(#SVGID_7_)" d="M664.292,159.169c-0.876-1.853,0.387-4.44,0.387-4.44l0,0
									c-1.402,2.773,0.783,5.029,0.783,5.029c0.348,0.412,0.961,4.741-5.445,1.213c-1.285-0.738-2.701-2.564-3.531-4.056
									c-0.127-0.217-0.225-0.445-0.341-0.692C661.34,163.388,665.167,161.021,664.292,159.169z"/>
							</g>
						</g>
					</g>
					<g>
						
							<radialGradient id="SVGID_8_" cx="123.7246" cy="197.4529" r="14.1515" gradientTransform="matrix(0.9434 0.332 -0.332 0.9434 604.5554 -74.8974)" gradientUnits="userSpaceOnUse">
							<stop  offset="0" style="stop-color:#EAD7CF"/>
							<stop  offset="0.0052" style="stop-color:#EAD6CE"/>
							<stop  offset="0.1873" style="stop-color:#EAC6B7"/>
							<stop  offset="0.3848" style="stop-color:#E9C3AA"/>
							<stop  offset="0.5784" style="stop-color:#E9C1A2"/>
							<stop  offset="0.6786" style="stop-color:#E4B99B"/>
							<stop  offset="0.8376" style="stop-color:#D6A287"/>
							<stop  offset="0.9923" style="stop-color:#C4856F"/>
						</radialGradient>
						<path opacity="0.7" fill="url(#SVGID_8_)" d="M668.364,151.789c0,0-0.037,5.83-2.469,6.553
							C664.453,158.787,663.94,154.59,668.364,151.789z"/>
						
							<radialGradient id="SVGID_9_" cx="1049.1904" cy="303.5515" r="11.847" fx="1046.9717" fy="300.3604" gradientTransform="matrix(-0.8622 -0.5064 -0.5064 0.8622 1711.9707 436.6188)" gradientUnits="userSpaceOnUse">
							<stop  offset="0" style="stop-color:#EAD7CF"/>
							<stop  offset="0.0052" style="stop-color:#EAD6CE"/>
							<stop  offset="0.1873" style="stop-color:#EAC6B7"/>
							<stop  offset="0.3376" style="stop-color:#E9C3AA"/>
							<stop  offset="0.485" style="stop-color:#E9C1A2"/>
							<stop  offset="0.6078" style="stop-color:#E4B99B"/>
							<stop  offset="0.8026" style="stop-color:#D6A287"/>
							<stop  offset="0.9923" style="stop-color:#C4856F"/>
						</radialGradient>
						<path fill="url(#SVGID_9_)" d="M652.819,158.156c0,0,2.025,4.722,8.851,6.809
							C666.635,166.483,655.424,171.549,652.819,158.156z"/>
						
							<radialGradient id="SVGID_10_" cx="1050.4268" cy="261.6086" r="17.9826" gradientTransform="matrix(-0.8622 -0.5064 -0.5064 0.8622 1711.9707 436.6188)" gradientUnits="userSpaceOnUse">
							<stop  offset="0" style="stop-color:#EAD7CF"/>
							<stop  offset="0.0052" style="stop-color:#EAD6CE"/>
							<stop  offset="0.1873" style="stop-color:#EAC6B7"/>
							<stop  offset="0.3848" style="stop-color:#E9C3AA"/>
							<stop  offset="0.5784" style="stop-color:#E9C1A2"/>
							<stop  offset="0.6786" style="stop-color:#E4B99B"/>
							<stop  offset="0.8376" style="stop-color:#D6A287"/>
							<stop  offset="0.9923" style="stop-color:#C4856F"/>
						</radialGradient>
						<path opacity="0.7" fill="url(#SVGID_10_)" d="M672.585,144.399c0,0,1.322-6.488-3.517-9.682
							c-4.857-3.21-8.738,0.695-6.296-0.163c2.467-0.854,8.855,1.836,8.418,10.084C670.78,152.909,672.585,144.399,672.585,144.399z
							"/>
					</g>
				</g>
			</g>
			<g>
				<g>
					<path fill="#2C1A16" d="M779.719,82.175c0,0-0.521,1.278-0.622,3.28c-0.012,0.488-0.038,1.031,0.032,1.602
						c0.03,0.563,0.136,1.16,0.283,1.747c0.114,0.601,0.355,1.201,0.596,1.797c0.292,0.572,0.575,1.17,0.947,1.699
						c0.323,0.584,0.79,1.063,1.181,1.576c0.449,0.473,0.884,0.912,1.353,1.358c0.463,0.425,0.895,0.87,1.294,1.293
						c0.406,0.435,0.774,0.845,1.033,1.363c0.046,0.155,0.112,0.287,0.054,0.489c-0.027,0.178-0.187,0.323-0.32,0.358
						c-0.268,0.104-0.49,0.111-0.704,0.122c-0.41,0.006-0.771-0.007-1.07-0.035c-0.589-0.052-0.933-0.084-0.933-0.084
						s0.344,0,0.922-0.048c0.294-0.021,0.655-0.036,1.072-0.095c0.175-0.03,0.411-0.077,0.563-0.17
						c0.16-0.083,0.122-0.167,0.057-0.361c-0.221-0.394-0.619-0.782-1.04-1.174c-0.419-0.396-0.864-0.771-1.358-1.206
						c-0.454-0.422-0.932-0.904-1.415-1.366c-0.417-0.532-0.912-1.032-1.269-1.638c-0.395-0.568-0.684-1.209-0.962-1.826
						c-0.247-0.641-0.473-1.276-0.589-1.916c-0.161-0.635-0.213-1.271-0.209-1.865c-0.021-0.587,0.023-1.146,0.094-1.652
						C778.985,83.365,779.719,82.175,779.719,82.175z"/>
				</g>
				<path fill="#2C1A16" d="M805.021,190.939l1.788-4.921c0.559-1.661,1.039-3.343,1.558-5.007c0.48-1.682,0.859-3.396,1.28-5.094
					c0.346-1.706,0.649-3.43,0.967-5.144c0.169-1.748,0.488-3.474,0.57-5.219l0.178-2.617c0.041-0.87,0.018-1.751,0.025-2.625
					c0.062-1.746-0.102-3.49-0.175-5.233c-0.19-1.748-0.344-3.489-0.646-5.209c-0.251-1.736-0.635-3.444-1.017-5.153
					c-0.396-1.708-0.863-3.39-1.347-5.066c-1.003-3.336-2.034-6.688-3.144-10.006l-1.654-4.977
					c-0.569-1.644-1.208-3.284-1.823-4.928c-0.605-1.642-1.225-3.269-1.901-4.891c-0.649-1.61-1.313-3.236-2.011-4.835
					c-0.008-0.036-0.049-0.051-0.084-0.047c-0.014,0.014-0.046,0.047-0.036,0.076c0.105,1.814-0.17,3.644-0.511,5.432
					c-0.353,1.792-0.809,3.568-1.374,5.308c-0.29,0.861-0.605,1.728-1.013,2.54c-0.198,0.39-0.412,0.824-0.736,1.103
					c-0.178,0.16-0.356,0.106-0.438-0.109c-0.091-0.197-0.146-0.42-0.173-0.638c-0.147-0.896-0.053-1.804-0.115-2.728
					c-0.031-0.459-0.032-0.924-0.077-1.374l-0.226-1.358c-0.18-0.905-0.428-1.802-0.711-2.668c-0.279-0.873-0.582-1.738-0.963-2.574
					c-0.68-1.704-1.544-3.337-2.44-4.927c-1.813-3.191-3.881-6.227-6.179-9.095c-0.007-0.02-0.023-0.03-0.045-0.033l-0.01-0.002
					l-2.555-0.479l-1.244-0.343c-0.408-0.133-0.844-0.214-1.231-0.377l-1.207-0.473c-0.416-0.146-0.789-0.351-1.184-0.557
					c-0.373-0.203-0.776-0.378-1.138-0.616l-1.073-0.71c-0.375-0.232-0.671-0.536-1.022-0.799c-0.328-0.271-0.632-0.578-0.935-0.896
					c-0.295-0.299-0.6-0.616-0.857-0.956c-0.271-0.337-0.532-0.685-0.739-1.046c-0.508-0.715-0.863-1.496-1.193-2.29
					c-0.149-0.399-0.299-0.81-0.402-1.226c-0.114-0.414-0.191-0.838-0.236-1.255c-0.012-0.065-0.063-0.111-0.121-0.102
					c-0.057,0.001-0.098,0.026-0.104,0.08c-0.73,2.646-0.93,5.46-0.447,8.18c0.48,2.725,1.621,5.297,3.146,7.579
					c0.776,1.136,1.636,2.22,2.551,3.241c0.913,1.016,1.932,1.961,2.869,2.947c0.112,0.121,0.22,0.256,0.292,0.374
					c0.045,0.064,0.033,0.095,0.045,0.064c0,0-0.096,0.018-0.17,0.01c-0.313-0.019-0.648-0.104-0.975-0.186
					c-0.65-0.165-1.303-0.363-1.964-0.564l-3.92-1.203c-1.323-0.399-2.6-0.841-3.891-1.306c-0.645-0.245-1.312-0.428-1.923-0.704
					l-1.882-0.84c-1.265-0.5-2.405-1.244-3.619-1.904c-0.598-0.318-1.122-0.761-1.692-1.13c-0.552-0.396-1.133-0.77-1.617-1.233
					c-0.505-0.462-1.049-0.881-1.526-1.357l-1.391-1.504c-0.421-0.524-0.805-1.084-1.22-1.626c-0.384-0.561-0.686-1.172-1.051-1.759
					c-0.58-1.223-1.103-2.485-1.378-3.827c-0.297-1.313-0.439-2.689-0.284-4.026l0.004-0.011c0-0.062-0.049-0.117-0.114-0.121
					c-0.043-0.004-0.084,0.021-0.098,0.062l-1.391,2.61c-0.245,0.431-0.412,0.894-0.62,1.348l-0.598,1.343
					c-0.425,0.896-0.721,1.838-1.094,2.745c-0.367,0.924-0.634,1.872-0.948,2.804c-0.335,0.931-0.572,1.89-0.845,2.828
					c-0.277,0.945-0.491,1.904-0.726,2.863l-0.305,1.46l-0.258,1.441c-0.021,0.26-0.114,0.465-0.25,0.611
					c-0.164,0.16-0.394,0.155-0.604,0.084c-0.453-0.16-0.831-0.479-1.175-0.8l0.01,0.003l-0.963-1.724
					c-0.31-0.584-0.702-1.125-0.925-1.747l-0.761-1.82c-0.285-0.599-0.443-1.241-0.627-1.88c-0.183-0.636-0.414-1.255-0.523-1.909
					l-0.339-1.942c-0.139-0.638-0.118-1.31-0.172-1.969l-0.072-0.995c0-0.326,0.03-0.642,0.032-0.979
					c0.047-0.657,0.009-1.328,0.12-1.98c0.095-0.651,0.163-1.304,0.271-1.956l0.444-1.937l0.573-1.883
					c0.21-0.625,0.46-1.236,0.692-1.858c0.289-0.598,0.542-1.209,0.851-1.794c0.591-1.17,1.279-2.313,2.063-3.36
					c0.02-0.026,0.023-0.075-0.014-0.093c0.002-0.004-0.017-0.018-0.04-0.012c-3.305,0.105-6.557,1.002-9.619,2.229
					c-3.065,1.227-5.973,2.801-8.804,4.511l-4.217,2.611c-0.339,0.217-0.694,0.415-1.062,0.592
					c-0.195,0.087-0.389,0.171-0.577,0.174c-0.188-0.008-0.087-0.306-0.021-0.459c0.329-0.751,0.82-1.424,1.29-2.092l1.399-2.051
					l0.7-1.02l0.786-0.959c0.532-0.626,1.03-1.279,1.579-1.896c0.589-0.563,1.128-1.209,1.773-1.712
					c0.016-0.019,0.022-0.038,0.004-0.049c-0.014-0.021-0.026-0.021-0.039-0.014c-7.123,2.682-14.013,5.941-20.951,9.058
					c-1.736,0.765-3.48,1.537-5.265,2.182c-0.448,0.147-0.917,0.299-1.378,0.386c-0.232,0.032-0.477,0.076-0.691-0.014
					c-0.246-0.122-0.099-0.424,0.008-0.608c0.512-0.801,1.196-1.479,1.787-2.219c0.619-0.724,1.206-1.477,1.847-2.169l1.92-2.117
					c1.3-1.393,2.625-2.762,3.954-4.117c-1.338,1.348-2.662,2.721-3.954,4.117l-1.925,2.104c-0.655,0.695-1.239,1.444-1.857,2.16
					c-0.585,0.752-1.275,1.43-1.79,2.228c-0.104,0.182-0.27,0.501-0.007,0.644c0.234,0.091,0.479,0.052,0.712,0.014
					c0.473-0.093,0.918-0.235,1.379-0.389c1.794-0.63,3.536-1.404,5.274-2.17c6.943-3.103,13.83-6.356,20.959-9.021l-0.033-0.066
					c-0.647,0.517-1.187,1.157-1.777,1.73c-0.551,0.614-1.068,1.268-1.601,1.894l-0.778,0.968l-0.706,1.009l-1.4,2.046
					c-0.469,0.675-0.973,1.343-1.309,2.109c-0.029,0.092-0.064,0.192-0.08,0.309c-0.035,0.103,0.045,0.281,0.191,0.272
					c0.222-0.001,0.408-0.092,0.604-0.182c0.38-0.174,0.737-0.379,1.095-0.586l4.214-2.599c2.825-1.706,5.734-3.285,8.798-4.502
					c3.047-1.211,6.276-2.107,9.566-2.205l-0.051-0.105c-0.803,1.064-1.471,2.197-2.094,3.385c-0.299,0.587-0.561,1.2-0.841,1.797
					c-0.239,0.615-0.495,1.234-0.707,1.859l-0.585,1.899l-0.447,1.947c-0.111,0.652-0.176,1.304-0.269,1.967
					c-0.11,0.655-0.071,1.323-0.117,1.983c-0.019,0.341-0.04,0.677-0.039,0.997l0.072,0.994c0.043,0.655,0.033,1.334,0.171,1.98
					l0.328,1.967c0.111,0.644,0.351,1.271,0.523,1.91c0.18,0.646,0.337,1.29,0.632,1.891l0.769,1.841
					c0.22,0.626,0.609,1.166,0.918,1.756l0.97,1.741l0.014,0.021c0.358,0.343,0.749,0.66,1.25,0.847
					c0.235,0.091,0.565,0.094,0.779-0.115c0.189-0.204,0.294-0.481,0.315-0.707l0.261-1.464l0.3-1.438
					c0.246-0.956,0.447-1.909,0.735-2.854c0.282-0.941,0.521-1.899,0.834-2.827c0.323-0.928,0.588-1.876,0.962-2.783
					c0.362-0.91,0.671-1.854,1.078-2.738l0.61-1.339c0.214-0.447,0.373-0.918,0.606-1.342l1.396-2.598l-0.206-0.07
					c-0.151,1.385-0.011,2.773,0.296,4.119c0.281,1.354,0.809,2.637,1.394,3.878c0.354,0.59,0.671,1.209,1.059,1.771
					c0.408,0.553,0.8,1.122,1.227,1.657l1.409,1.525c0.479,0.477,1.02,0.903,1.535,1.365c0.503,0.473,1.083,0.851,1.644,1.25
					c0.577,0.377,1.098,0.831,1.709,1.151c1.192,0.652,2.352,1.402,3.635,1.913l1.891,0.85c0.621,0.283,1.285,0.473,1.921,0.718
					c1.292,0.463,2.584,0.915,3.898,1.311l3.917,1.213c0.665,0.192,1.326,0.394,1.976,0.557c0.346,0.085,0.671,0.173,1.051,0.196
					c0.098,0,0.19,0.021,0.332-0.071c0.168-0.14,0.067-0.328,0.035-0.4c-0.107-0.169-0.226-0.309-0.337-0.435
					c-0.956-0.99-1.959-1.914-2.858-2.943c-0.932-1.008-1.775-2.073-2.53-3.2c-1.52-2.261-2.652-4.795-3.128-7.474
					c-0.483-2.687-0.296-5.456,0.416-8.088l-0.225-0.019c0.057,0.442,0.135,0.872,0.257,1.296c0.097,0.429,0.255,0.842,0.403,1.251
					c0.337,0.804,0.705,1.606,1.213,2.327c0.227,0.38,0.483,0.725,0.769,1.059c0.256,0.353,0.553,0.685,0.87,0.99
					c0.304,0.308,0.603,0.629,0.946,0.89c0.349,0.277,0.665,0.576,1.038,0.821l1.09,0.72c0.375,0.233,0.77,0.404,1.162,0.619
					c0.384,0.201,0.768,0.403,1.183,0.543l1.22,0.484c0.405,0.176,0.829,0.254,1.25,0.384l1.261,0.35l2.569,0.471l-0.064-0.033
					c2.297,2.841,4.362,5.881,6.169,9.053c0.889,1.588,1.75,3.221,2.439,4.905c0.381,0.831,0.663,1.692,0.968,2.559
					c0.271,0.864,0.512,1.757,0.699,2.638l0.205,1.351c0.067,0.453,0.066,0.911,0.09,1.366c0.069,0.906-0.024,1.842,0.13,2.749
					c0.035,0.229,0.089,0.462,0.188,0.688c0.054,0.106,0.138,0.212,0.284,0.273c0.073,0.008,0.155-0.005,0.223-0.009l0.158-0.112
					c0.366-0.327,0.573-0.744,0.782-1.16c0.407-0.821,0.713-1.689,1.018-2.559c0.563-1.736,1.015-3.528,1.369-5.325
					c0.335-1.803,0.596-3.624,0.515-5.469l-0.136,0.033c0.696,1.597,1.355,3.211,2.02,4.841c0.681,1.613,1.303,3.238,1.907,4.879
					c0.603,1.644,1.259,3.263,1.829,4.907l1.652,4.981c1.131,3.315,2.142,6.658,3.168,9.993c0.48,1.688,0.947,3.373,1.35,5.065
					c0.393,1.714,0.766,3.417,1.019,5.146c0.313,1.722,0.464,3.467,0.651,5.197c0.082,1.751,0.244,3.49,0.193,5.245
					c-0.009,0.875,0.009,1.735-0.021,2.616l-0.18,2.616c-0.081,1.744-0.377,3.472-0.57,5.219c-0.296,1.717-0.602,3.441-0.946,5.145
					c-0.43,1.694-0.795,3.404-1.279,5.09c-0.518,1.67-0.99,3.359-1.536,5.007L805.021,190.939z"/>
			</g>
			<g>
				
					<radialGradient id="SVGID_11_" cx="198.3384" cy="162.8337" r="88.1906" fx="182.3456" fy="130.5292" gradientTransform="matrix(0.9595 0.2813 -0.2813 0.9595 581.1442 -50.2615)" gradientUnits="userSpaceOnUse">
					<stop  offset="0" style="stop-color:#EAD7CF"/>
					<stop  offset="0.0109" style="stop-color:#EAD6CE"/>
					<stop  offset="0.3956" style="stop-color:#EAC6B7"/>
					<stop  offset="0.5549" style="stop-color:#E9C3AA"/>
					<stop  offset="0.711" style="stop-color:#E9C1A2"/>
					<stop  offset="0.7791" style="stop-color:#E4B99B"/>
					<stop  offset="0.8871" style="stop-color:#D6A287"/>
					<stop  offset="0.9923" style="stop-color:#C4856F"/>
				</radialGradient>
				<path fill="url(#SVGID_11_)" d="M816.008,187.217c-11.785,2.333-22.584,33.289-10.986,3.723
					c11.595-29.566,4.515-46.641,0.979-58.297c-3.536-11.655-8.391-22.608-8.391-22.608c0.438,5.99-4.67,20.969-4.477,11.516
					c0.216-9.467-10.604-22.54-10.604-22.54c-14.427-2.01-15.12-12.106-15.12-12.106c-5.313,19.309,21.767,26.883-0.385,20.024
					c-22.152-6.865-19.887-20.848-19.887-20.848c-4.403,7.506-6.489,17.143-6.745,19.271c-0.253,2.116-2.224,0.076-2.224,0.076
					c-10.264-16.191,0.688-29.83,0.688-29.83c-13.659,0.39-27.814,14.923-23.715,8.442c4.107-6.501,6.918-8.606,6.918-8.606
					c-14.807,5.553-31.485,14.938-27.969,10.483c3.499-4.477,9.188-10.133,9.188-10.133l-7.734,3.479
					c0,0-15.564,8.123-21.301,37.693c-5.748,29.579-8.182,29.952-13.534,41.57c-5.36,11.61-10.479,43.675,25.64,66.968
					c0,0,13.838,12.842,38.608,13.26c11.751,0.218,47.938,4.009,68.05-22.496c5.356,7.972,23.715,5.952,31.74-8.904
					C831.954,194.01,824.938,185.431,816.008,187.217z"/>
				<path fill="#C98047" d="M686.287,225.616c-15.754-10.168-25.333-22.931-28.447-37.951c-2.447-11.837-0.186-22.839,2.755-29.188
					c1.033-2.274,1.953-4.083,2.828-5.819c3.523-6.93,6.066-11.934,10.672-35.721c2.979-15.309,8.625-24.761,12.846-29.994
					c4.572-5.687,8.504-7.781,8.558-7.802l7.733-3.48c0.054-0.024,0.114-0.012,0.163,0.043c0.033,0.063,0.023,0.131-0.016,0.177
					c-0.065,0.063-5.715,5.705-9.184,10.114c-0.462,0.58-0.455,0.79-0.442,0.85c0.017,0.022,0.027,0.054,0.106,0.08
					c0.934,0.273,5.511-1.797,11.3-4.421c4.935-2.249,11.088-5.032,16.855-7.202c0.063-0.016,0.133,0.002,0.18,0.065
					c0.019,0.069,0,0.128-0.052,0.182c-0.04,0.017-2.841,2.16-6.882,8.563c-0.763,1.205-0.72,1.407-0.685,1.439
					c0.298,0.097,1.701-0.788,3.331-1.82c4.496-2.812,12.833-8.035,20.945-8.264c0.049-0.006,0.105,0.019,0.133,0.072
					c0.014,0.05,0.008,0.107-0.028,0.146c-0.099,0.137-10.774,13.744-0.688,29.643c0.008,0.008,0.63,0.65,1.185,0.808
					c0.188,0.063,0.346,0.052,0.464-0.029c0.169-0.114,0.28-0.381,0.323-0.774c0.346-2.649,2.56-12.139,6.775-19.319
					c0.03-0.056,0.117-0.089,0.163-0.056c0.07,0.019,0.106,0.08,0.094,0.147c-0.012,0.034-0.536,3.517,1.63,7.785
					c3.63,7.139,11.876,10.966,18.168,12.903c0.866,0.274,1.657,0.517,2.373,0.747c1.7,0.526,3.02,0.938,3.994,1.218
					c0.533,0.158,2.121,0.624,2.307,0.526c-0.004-0.151-0.606-0.752-1.2-1.339c-3.081-3.046-10.264-10.18-7.278-21.073
					c0.024-0.069,0.081-0.11,0.146-0.104c0.074,0.008,0.121,0.066,0.137,0.122c-0.009,0.026,0.156,2.052,1.592,4.433
					c1.333,2.2,4.049,5.139,9.495,6.731c1.205,0.357,2.525,0.633,3.915,0.837c0.035-0.006,0.063,0.017,0.087,0.041
					c0.098,0.127,10.846,13.214,10.627,22.618c-0.052,2.573,0.308,2.877,0.407,2.904c0.061,0.021,0.145-0.03,0.203-0.074
					c1.305-1.051,3.924-9.933,3.607-14.329c-0.01-0.071,0.042-0.124,0.097-0.149c0.069-0.017,0.125,0.019,0.16,0.081
					c0.041,0.104,4.896,11.091,8.396,22.622c0.26,0.872,0.551,1.774,0.837,2.716c3.563,11.26,8.919,28.276-1.827,55.678
					c-1.471,3.771-2.58,6.531-3.393,8.538c-0.617,1.568-1.065,2.698-1.32,3.38c0.114-0.199,0.257-0.432,0.4-0.661
					c2.343-3.796,8.547-13.873,15.153-15.166c1.831-0.382,3.589-0.323,5.205,0.152c2.662,0.782,4.729,2.646,5.807,5.232
					c1.673,4.004,0.916,9.313-2.127,14.948c-6.007,11.14-17.999,15.321-26.116,12.941c-2.491-0.731-4.492-2.065-5.758-3.872
					c-7.933,10.396-19.329,17.29-33.857,20.511c-12.082,2.69-23.798,2.263-30.778,2.002c-1.308-0.044-2.422-0.09-3.409-0.104
					c-6.266-0.108-12.395-1.032-18.2-2.735C696.236,233.093,688.761,227.903,686.287,225.616z M793.121,216.178
					c1.226,1.834,3.196,3.19,5.698,3.92c8.017,2.353,19.868-1.801,25.809-12.808c2.994-5.564,3.746-10.792,2.11-14.709
					c-1.049-2.519-3.047-4.314-5.616-5.072c-1.577-0.467-3.292-0.521-5.096-0.154c-6.48,1.276-12.641,11.269-14.955,15.042
					c-0.863,1.376-0.904,1.435-1.046,1.391c-0.039-0.013-0.071-0.046-0.104-0.079c-0.059-0.151,0.034-0.424,1.577-4.275
					c0.813-2.007,1.921-4.767,3.394-8.536c10.71-27.299,5.362-44.272,1.825-55.509c-0.305-0.929-0.583-1.837-0.849-2.709
					c-3.009-9.891-7-19.383-8.084-21.92c-0.005,4.427-2.343,12.714-3.735,13.827c-0.156,0.134-0.304,0.179-0.444,0.138
					c-0.292-0.089-0.669-0.508-0.602-3.186c0.205-9.035-9.886-21.584-10.543-22.385c-1.38-0.197-2.687-0.479-3.915-0.833
					c-5.525-1.619-8.296-4.633-9.646-6.871c-0.978-1.618-1.376-3.051-1.526-3.847c-2.494,10.381,4.389,17.198,7.37,20.144
					c0.991,0.98,1.394,1.394,1.238,1.654c-0.134,0.237-0.529,0.23-2.621-0.378c-0.983-0.288-2.302-0.7-3.982-1.22
					c-0.728-0.233-1.519-0.473-2.396-0.741c-11.486-3.564-16.301-9.079-18.335-13.067c-1.654-3.271-1.756-6.104-1.703-7.308
					c-3.979,7.071-6.099,16.115-6.425,18.683c-0.052,0.48-0.206,0.804-0.438,0.961c-0.195,0.124-0.438,0.156-0.706,0.076
					c-0.633-0.196-1.282-0.852-1.328-0.912c-5.333-8.4-4.847-16.11-3.515-21.093c1.245-4.596,3.407-7.791,4.041-8.654
					c-7.948,0.35-16.102,5.456-20.502,8.22c-2.196,1.367-3.183,1.967-3.585,1.854c-0.081-0.027-0.149-0.085-0.178-0.166
					c-0.068-0.184-0.023-0.517,0.715-1.689c2.993-4.737,5.33-7.172,6.37-8.129c-5.55,2.115-11.391,4.757-16.129,6.911
					c-6.062,2.747-10.446,4.738-11.482,4.439c-0.19-0.06-0.262-0.171-0.277-0.256c-0.074-0.238,0.067-0.589,0.473-1.104
					c2.851-3.636,7.188-8.1,8.683-9.616l-7.048,3.179c-0.038,0.014-3.919,2.081-8.462,7.718c-4.191,5.219-9.814,14.627-12.77,29.869
					c-4.631,23.828-7.18,28.849-10.701,35.806c-0.887,1.744-1.801,3.533-2.836,5.806c-2.926,6.311-5.167,17.251-2.738,29.011
					c3.096,14.954,12.635,27.658,28.357,37.794c2.469,2.296,9.905,7.443,20.354,10.508c5.786,1.702,11.891,2.622,18.139,2.73
					c0.977,0.01,2.103,0.054,3.409,0.104c6.98,0.255,18.649,0.685,30.71-1.997c14.541-3.229,25.909-10.136,33.815-20.554
					c0.031-0.033,0.076-0.068,0.121-0.065c-0.001,0.007,0.021,0.003,0.04,0.014C793.068,216.139,793.096,216.155,793.121,216.178z"
					/>
			</g>
			<g>
				
					<radialGradient id="SVGID_12_" cx="898.2959" cy="526.6204" r="12.5037" fx="892.744" fy="531.4163" gradientTransform="matrix(0.9952 -0.0968 0.0968 0.9952 -240.6716 -262.3618)" gradientUnits="userSpaceOnUse">
					<stop  offset="0.0513" style="stop-color:#EAD7CF"/>
					<stop  offset="0.0585" style="stop-color:#EAD6CE"/>
					<stop  offset="0.314" style="stop-color:#EAC6B7"/>
					<stop  offset="0.3411" style="stop-color:#EAC5B4"/>
					<stop  offset="0.5045" style="stop-color:#E9C2A7"/>
					<stop  offset="0.651" style="stop-color:#E9C1A2"/>
					<stop  offset="0.7954" style="stop-color:#DBAA8F"/>
					<stop  offset="0.9923" style="stop-color:#C4856F"/>
				</radialGradient>
				<path fill="url(#SVGID_12_)" d="M699.661,183.731c-8.98-4.23-8.791-11.331-4.35-14.607c5.011-3.71,11.411,2.34,11.411,2.34
					s4.221,4.349,1.552,9.065C705.393,185.63,699.661,183.731,699.661,183.731z"/>
				<path fill="#C98047" d="M704.547,169.548c0,0-0.34-0.242-0.993-0.568c-0.317-0.168-0.719-0.348-1.206-0.546
					c-0.469-0.179-1.004-0.355-1.623-0.482c-0.63-0.106-1.302-0.207-2.021-0.164c-0.733,0.013-1.483,0.205-2.214,0.477
					c-0.73,0.328-1.415,0.781-1.991,1.376c-0.617,0.582-1.062,1.31-1.476,2.014c-0.179,0.397-0.352,0.78-0.487,1.183
					c-0.076,0.42-0.191,0.824-0.221,1.239c0.002,0.414-0.047,0.828,0.014,1.229c0.096,0.404,0.101,0.815,0.255,1.18
					c0.456,1.52,1.349,2.738,2.158,3.674c0.832,0.938,1.648,1.595,2.229,2.033c0.582,0.43,0.939,0.649,0.939,0.649
					s-0.353-0.23-0.904-0.692c-0.575-0.454-1.333-1.152-2.143-2.088c-0.808-0.945-1.654-2.161-2.083-3.636
					c-0.146-0.359-0.143-0.754-0.226-1.131c-0.056-0.389-0.01-0.793-0.004-1.195c0.042-0.394,0.156-0.79,0.223-1.182
					c0.14-0.383,0.317-0.743,0.477-1.113c0.406-0.721,0.847-1.427,1.412-1.991c0.553-0.587,1.206-1.021,1.902-1.356
					c0.712-0.273,1.432-0.475,2.146-0.488c0.7-0.058,1.383,0.029,1.985,0.13c1.202,0.233,2.178,0.614,2.836,0.919
					C704.192,169.316,704.547,169.548,704.547,169.548z"/>
				<path opacity="0.5" fill="#FFFFFF" d="M700.578,170.175c0.064,0.759-1.021,1.483-2.459,1.622
					c-1.437,0.139-2.66-0.358-2.731-1.127c-0.078-0.75,1.027-1.476,2.463-1.608C699.293,168.915,700.493,169.413,700.578,170.175z"
					/>
			</g>
			<path opacity="0.1" fill="#A45C2E" d="M805.021,190.939c11.595-29.566,4.515-46.641,0.979-58.297
				c-3.536-11.655-8.391-22.608-8.391-22.608c0.438,5.99-4.67,20.969-4.477,11.516c0.216-9.467-10.604-22.54-10.604-22.54
				c-14.427-2.01-15.12-12.106-15.12-12.106c-5.313,19.309,21.767,26.883-0.385,20.024c-22.152-6.865-19.887-20.848-19.887-20.848
				c-4.403,7.506-6.489,17.143-6.745,19.271c-0.253,2.116-2.224,0.076-2.224,0.076c-10.264-16.191,0.688-29.83,0.688-29.83
				c-13.659,0.39-27.814,14.923-23.715,8.442c4.107-6.501,6.918-8.606,6.918-8.606c-14.807,5.553-31.485,14.938-27.969,10.483
				c3.499-4.477,9.188-10.133,9.188-10.133l-7.734,3.479c0,0-6.101,3.185-12.072,12.848c2.735-3.72,6.255-7.034,10.728-9.096
				c0,0-2.776,3.214-4.298,7.161c-1.524,3.952,4.609-1.942,20.098-7.286l3.609-1.143c0,0-1.748,3.512-2.403,6.983
				c-0.657,3.478,5.294-4.295,22.613-10.945c0,0-9.18,16.343,2.749,29.375c11.929,13.016,2.361,0.692,8.143-11.542
				c5.773-12.215-9.277,7.907,32.178,16.393c0,0,5.691,0.571,2.092-3.405c-3.58-3.982,13.902,5.059,14.034,32.924
				c0.111,24.236-6.679,34.426-12.145,45.63c0,0,2.353,9.177-2.373,20.544c-7.461,17.954-27.074,29.06-63.042,26.822
				c-19.549-1.229-44.596-14.423-56.448-43.91c-0.236-0.538-0.47-1.092-0.712-1.644c2.832,12.032,10.65,25.3,28.055,36.522
				c0,0,13.838,12.842,38.608,13.26c11.653,0.212,47.218,3.915,67.428-21.73c3.53-4.952,6.198-9.88,8.054-13.803
				C800.754,201.931,802.131,198.283,805.021,190.939z"/>
			<path opacity="0.2" fill="#A45C2E" d="M805.021,190.939c11.595-29.566,4.515-46.641,0.979-58.297
				c-3.536-11.655-8.391-22.608-8.391-22.608c0.06,0.804,0.011,1.759-0.095,2.796c3.287,10.655,6.563,21.347,7.904,32.412
				c2.034,16.777-0.829,33.743-6.793,49.488c-5.485,14.467-13.167,27.45-26.282,36.136c-2.887,1.9-5.918,3.524-9.044,4.932
				c10.477-2.966,21.012-8.521,29.084-18.774c3.53-4.952,6.198-9.88,8.054-13.803C800.754,201.931,802.131,198.283,805.021,190.939z
				"/>
			<g>
				<g opacity="0.39">
					<path fill="#E0A269" d="M806.113,216.679c-0.466-0.053-0.868-0.14-1.235-0.258c-4.109-1.306-5.778-3.002-5.034-4.976
						c0.472-1.195,1.71-2.05,2.342-2.113c0.074,0.003,1.73,0.005,2.976-1.069c0.653-0.563,1.1-1.352,1.303-2.349
						c0.263-1.138,0.27-2.134,0.277-3.075c0.015-2.562,0.017-4.979,4.021-9.28c2.415-2.667,5.67-3.996,8.761-3.604
						c3.736,0.475,6.246,3.376,6.322,7.394c0.078,7.9-6.821,16.881-14.406,18.835C810.028,216.54,807.898,216.863,806.113,216.679
						L806.113,216.679z M801.916,210.804c-0.163,0.094-0.665,0.433-0.78,0.878c-0.113,0.394-0.092,1.837,4.515,3.333
						c0.292,0.087,0.643,0.156,1.016,0.198c1.588,0.174,3.52-0.123,4.801-0.446c6.814-1.771,13.052-9.933,13.009-17.125
						c-0.065-4.118-2.823-5.923-5.374-6.244c-2.67-0.339-5.463,0.805-7.533,3.074c-3.464,3.717-3.458,5.591-3.446,7.968
						c-0.022,1.046-0.028,2.116-0.314,3.415c-0.303,1.424-0.958,2.575-1.966,3.431C804.25,210.667,802.373,210.794,801.916,210.804
						L801.916,210.804z"/>
				</g>
				
					<radialGradient id="SVGID_13_" cx="-769.9658" cy="383.8484" r="25.0535" fx="-774.3314" fy="384.5837" gradientTransform="matrix(0.9224 0.3865 -0.3865 0.9224 1673.1897 145.3945)" gradientUnits="userSpaceOnUse">
					<stop  offset="0" style="stop-color:#EFD6AC"/>
					<stop  offset="0.1762" style="stop-color:#EDD2A8"/>
					<stop  offset="0.358" style="stop-color:#E6C59D"/>
					<stop  offset="0.5425" style="stop-color:#DBB189"/>
					<stop  offset="0.7277" style="stop-color:#CC946F"/>
					<stop  offset="0.7669" style="stop-color:#C88D68"/>
					<stop  offset="0.8241" style="stop-color:#CC9570"/>
					<stop  offset="0.9149" style="stop-color:#D7AD85"/>
					<stop  offset="1" style="stop-color:#E5C89F"/>
				</radialGradient>
				<path opacity="0.6" fill="url(#SVGID_13_)" d="M802.256,209.478c0,0,4.143,0.087,5.058-4.05
					c0.859-4.119-1.306-6.071,3.903-11.55c5.034-5.481,13.796-3.932,13.989,3.432c0.136,7.051-6.091,15.603-13.496,17.45
					c-1.895,0.48-4.534,0.736-6.164,0.236C797.536,212.399,801.642,209.531,802.256,209.478z"/>
				<path opacity="0.72" fill="#E0A269" d="M825.206,197.31c-0.193-7.363-8.955-8.913-13.989-3.432
					c-2.718,2.881-3.427,4.777-3.6,6.535c0.51-1.445,1.403-3.567,3.632-5.65c5.125-4.939,13.199-2.524,12.425,4.795
					c-0.604,5.096-4.69,11.135-9.31,14.246C820.587,210.849,825.324,203.502,825.206,197.31z"/>
				<g opacity="0.27">
					
						<radialGradient id="SVGID_14_" cx="-1791.3652" cy="-3323.0242" r="11.9812" gradientTransform="matrix(0.7144 0.3435 -0.5201 1.2381 355.2323 4943.8857)" gradientUnits="userSpaceOnUse">
						<stop  offset="0.2688" style="stop-color:#AD6A43"/>
						<stop  offset="0.4541" style="stop-color:#A96642"/>
						<stop  offset="0.6412" style="stop-color:#9D5C3E"/>
						<stop  offset="0.8286" style="stop-color:#894A38"/>
						<stop  offset="0.8925" style="stop-color:#804235"/>
					</radialGradient>
					<path fill="url(#SVGID_14_)" d="M803.683,209.994c2.241-0.723,3.423-3.823,3.423-3.823l0,0c-1.222,3.386-4.85,3.308-4.85,3.308
						c-0.614,0.053-4.72,2.921,3.29,5.519c1.63,0.5,4.27,0.244,6.164-0.236c0.275-0.066,0.564-0.166,0.841-0.261
						C802.46,215.802,801.438,210.72,803.683,209.994z"/>
					<g>
						
							<radialGradient id="SVGID_15_" cx="-1791.3652" cy="-3323.0242" r="11.9812" gradientTransform="matrix(0.7144 0.3435 -0.5201 1.2381 355.2323 4943.8857)" gradientUnits="userSpaceOnUse">
							<stop  offset="0.2688" style="stop-color:#AD6A43"/>
							<stop  offset="0.4541" style="stop-color:#A96642"/>
							<stop  offset="0.6412" style="stop-color:#9D5C3E"/>
							<stop  offset="0.8286" style="stop-color:#894A38"/>
							<stop  offset="0.8925" style="stop-color:#804235"/>
						</radialGradient>
						<path fill="url(#SVGID_15_)" d="M803.683,209.994c2.241-0.723,3.423-3.823,3.423-3.823l0,0
							c-1.222,3.386-4.85,3.308-4.85,3.308c-0.614,0.053-4.72,2.921,3.29,5.519c1.63,0.5,4.27,0.244,6.164-0.236
							c0.275-0.066,0.564-0.166,0.841-0.261C802.46,215.802,801.438,210.72,803.683,209.994z"/>
					</g>
				</g>
			</g>
			<defs>
				<filter id="Adobe_OpacityMaskFilter" filterUnits="userSpaceOnUse" x="705.79" y="113.444" width="28.449" height="54.161">
					<feFlood  style="flood-color:white;flood-opacity:1" result="back"/>
					<feBlend  in="SourceGraphic" in2="back" mode="normal"/>
				</filter>
			</defs>
			<mask maskUnits="userSpaceOnUse" x="705.79" y="113.444" width="28.449" height="54.161" id="SVGID_16_">
				<g filter="url(#Adobe_OpacityMaskFilter)">
					<defs>
						
							<filter id="Adobe_OpacityMaskFilter_1_" filterUnits="userSpaceOnUse" x="705.79" y="113.444" width="28.449" height="54.161">
							<feFlood  style="flood-color:white;flood-opacity:1" result="back"/>
							<feBlend  in="SourceGraphic" in2="back" mode="normal"/>
						</filter>
					</defs>
					<mask maskUnits="userSpaceOnUse" x="705.79" y="113.444" width="28.449" height="54.161" id="SVGID_16_">
						<g filter="url(#Adobe_OpacityMaskFilter_1_)">
						</g>
					</mask>
					<radialGradient id="SVGID_17_" cx="697.8633" cy="138.4465" r="45.4043" gradientUnits="userSpaceOnUse">
						<stop  offset="0" style="stop-color:#FFFFFF"/>
						<stop  offset="0.0741" style="stop-color:#FAFAFA"/>
						<stop  offset="0.1647" style="stop-color:#EBEBEB"/>
						<stop  offset="0.2641" style="stop-color:#D2D2D2"/>
						<stop  offset="0.3697" style="stop-color:#AFAFAF"/>
						<stop  offset="0.4803" style="stop-color:#838383"/>
						<stop  offset="0.595" style="stop-color:#4C4C4C"/>
						<stop  offset="0.711" style="stop-color:#0D0D0D"/>
						<stop  offset="0.733" style="stop-color:#000000"/>
					</radialGradient>
					<path mask="url(#SVGID_16_)" fill="url(#SVGID_17_)" d="M705.944,164.657c0,0,10.449-10.463,9.01-38.997
						c-1.276-25.172,26.349-7.321,17.553,16.408C721.132,172.718,703.987,169.137,705.944,164.657z"/>
				</g>
			</mask>
			<linearGradient id="SVGID_19_" gradientUnits="userSpaceOnUse" x1="705.79" y1="140.5242" x2="734.2393" y2="140.5242">
				<stop  offset="0" style="stop-color:#F6CFB2"/>
				<stop  offset="0.3536" style="stop-color:#FBE7D9;stop-opacity:0.5194"/>
				<stop  offset="0.7357" style="stop-color:#FFFFFF;stop-opacity:0"/>
			</linearGradient>
			<path opacity="0.7" fill="url(#SVGID_19_)" d="M705.944,164.657c0,0,10.449-10.463,9.01-38.997
				c-1.276-25.172,26.349-7.321,17.553,16.408C721.132,172.718,703.987,169.137,705.944,164.657z"/>
			
				<linearGradient id="SVGID_20_" gradientUnits="userSpaceOnUse" x1="450.1758" y1="193.6921" x2="461.627" y2="220.3083" gradientTransform="matrix(0.919 0.394 -0.394 0.919 419.93 -166.7884)">
				<stop  offset="0" style="stop-color:#F6CFB2"/>
				<stop  offset="0.3536" style="stop-color:#FBE7D9;stop-opacity:0.5194"/>
				<stop  offset="0.7357" style="stop-color:#FFFFFF;stop-opacity:0"/>
			</linearGradient>
			<path opacity="0.7" fill="url(#SVGID_20_)" d="M770.437,206.203c-4.287,5.327-18.08,8.786-24.909,0.508
				c-8.471-10.223,8.645-23.872,22.026-8.643C771.058,202.068,772.574,203.53,770.437,206.203z"/>
			
				<linearGradient id="SVGID_21_" gradientUnits="userSpaceOnUse" x1="345.2109" y1="223.4026" x2="355.5223" y2="247.3696" gradientTransform="matrix(0.7981 0.6026 -0.6026 0.7981 532.1436 -224.1508)">
				<stop  offset="0" style="stop-color:#F6CFB2"/>
				<stop  offset="0.3536" style="stop-color:#FBE7D9;stop-opacity:0.5194"/>
				<stop  offset="0.7357" style="stop-color:#FFFFFF;stop-opacity:0"/>
			</linearGradient>
			<path opacity="0.7" fill="url(#SVGID_21_)" d="M680.696,180.411c-4.903,3.725-17.706,3.776-21.895-4.933
				c-5.195-10.767,12.719-19.006,21.135-2.811C682.143,176.919,683.145,178.534,680.696,180.411z"/>
			<g>
				
					<radialGradient id="SVGID_22_" cx="212.7822" cy="107.5808" r="57.7985" gradientTransform="matrix(0.9595 0.2813 -0.2813 0.9595 581.1442 -50.2615)" gradientUnits="userSpaceOnUse">
					<stop  offset="0.1725" style="stop-color:#715142"/>
					<stop  offset="0.4931" style="stop-color:#523A2E"/>
					<stop  offset="0.8044" style="stop-color:#3B291F"/>
					<stop  offset="1" style="stop-color:#33231A"/>
				</radialGradient>
				<path fill="url(#SVGID_22_)" d="M741.216,133.356c0,0,7.696-9.639,24.365-2.7c12.994,5.407,14.735,22.725,18.05,20.435
					c3.319-2.31,1.48-22.144-17.244-29.604C743.454,112.358,731.161,132.661,741.216,133.356z"/>
				
					<radialGradient id="SVGID_23_" cx="226.6021" cy="84.1633" r="57.7884" fx="219.6142" fy="72.174" gradientTransform="matrix(0.9595 0.2813 -0.2813 0.9595 581.1442 -50.2615)" gradientUnits="userSpaceOnUse">
					<stop  offset="0.2336" style="stop-color:#715142"/>
					<stop  offset="0.4189" style="stop-color:#6D4E3F"/>
					<stop  offset="0.623" style="stop-color:#5F4437"/>
					<stop  offset="0.8353" style="stop-color:#493428"/>
					<stop  offset="1" style="stop-color:#33231A"/>
				</radialGradient>
				<path fill="url(#SVGID_23_)" d="M782.59,136.63c1.896,5.264,0.808,8.881-0.098,9.145c-2.123,0.591-3.345-12.708-18.769-18.437
					c-15.403-5.75-22.163,3.986-24.44,2.593c-1.373-0.839-0.667-2.705,0.104-4.034c-2.662,3.534-2.339,7.178,1.828,7.46
					c0,0,7.696-9.639,24.365-2.7c12.994,5.407,14.735,22.725,18.05,20.435C785.427,149.825,785.694,143.416,782.59,136.63z"/>
			</g>
			<g>
				
					<radialGradient id="SVGID_24_" cx="127.498" cy="97.738" r="62.3251" gradientTransform="matrix(0.9595 0.2813 -0.2813 0.9595 581.1442 -50.2615)" gradientUnits="userSpaceOnUse">
					<stop  offset="0.2336" style="stop-color:#715142"/>
					<stop  offset="0.4189" style="stop-color:#6D4E3F"/>
					<stop  offset="0.623" style="stop-color:#5F4437"/>
					<stop  offset="0.8353" style="stop-color:#493428"/>
					<stop  offset="1" style="stop-color:#33231A"/>
				</radialGradient>
				<path fill="url(#SVGID_24_)" d="M674.991,114.288c0,0,5.361-9.814,19.961-5.118c11.491,3.674,13.695,17.793,16.743,15.246
					c3.056-2.534,1.518-19.188-15.271-24.046C677.455,94.881,670.089,113.568,674.991,114.288z"/>
				
					<radialGradient id="SVGID_25_" cx="150.6919" cy="78.9895" r="62.3347" fx="138.8691" fy="61.7681" gradientTransform="matrix(0.9595 0.2813 -0.2813 0.9595 581.1442 -50.2615)" gradientUnits="userSpaceOnUse">
					<stop  offset="0.2336" style="stop-color:#715142"/>
					<stop  offset="0.4189" style="stop-color:#6D4E3F"/>
					<stop  offset="0.623" style="stop-color:#5F4437"/>
					<stop  offset="0.8353" style="stop-color:#493428"/>
					<stop  offset="1" style="stop-color:#33231A"/>
				</radialGradient>
				<path fill="url(#SVGID_25_)" d="M711.083,112.316c1.028,2.809,1.116,5.091,0.796,6.164c-0.993,3.363-2.637,0.688-2.637,0.688
					s-5.456-11.372-17.486-13.673c-12.031-2.3-14.999,5.365-16.731,4.612c-1.732-0.755,2.449-5.873,2.449-5.873l0,0
					c-4.229,4.211-5.081,9.671-2.482,10.054c0,0,5.361-9.814,19.961-5.118c11.491,3.674,13.695,17.793,16.743,15.246
					C713.323,123.066,713.645,117.736,711.083,112.316z"/>
			</g>
			<g>
				
					<radialGradient id="SVGID_26_" cx="293.6396" cy="189.0842" r="13.0568" fx="292.3807" fy="189.7738" gradientTransform="matrix(0.9595 0.2813 -0.2813 0.9595 581.1442 -50.2615)" gradientUnits="userSpaceOnUse">
					<stop  offset="0" style="stop-color:#EAD7CF"/>
					<stop  offset="0.0052" style="stop-color:#EAD6CE"/>
					<stop  offset="0.1873" style="stop-color:#EAC6B7"/>
					<stop  offset="0.3848" style="stop-color:#E9C3AA"/>
					<stop  offset="0.5784" style="stop-color:#E9C1A2"/>
					<stop  offset="0.6786" style="stop-color:#E4B99B"/>
					<stop  offset="0.8376" style="stop-color:#D6A287"/>
					<stop  offset="0.9923" style="stop-color:#C4856F"/>
				</radialGradient>
				<path opacity="0.7" fill="url(#SVGID_26_)" d="M806.648,200.761c0,0-4.866,4.631-3.542,7.248
					C803.882,209.565,807.786,206.671,806.648,200.761z"/>
				
					<radialGradient id="SVGID_27_" cx="288.9712" cy="202.0583" r="10.9683" fx="282.24" fy="200.6508" gradientTransform="matrix(0.9595 0.2813 -0.2813 0.9595 581.1442 -50.2615)" gradientUnits="userSpaceOnUse">
					<stop  offset="0" style="stop-color:#EAD7CF"/>
					<stop  offset="0.0052" style="stop-color:#EAD6CE"/>
					<stop  offset="0.1873" style="stop-color:#EAC6B7"/>
					<stop  offset="0.3376" style="stop-color:#E9C3AA"/>
					<stop  offset="0.485" style="stop-color:#E9C1A2"/>
					<stop  offset="0.6078" style="stop-color:#E4B99B"/>
					<stop  offset="0.8026" style="stop-color:#D6A287"/>
					<stop  offset="0.9923" style="stop-color:#C4856F"/>
				</radialGradient>
				<path fill="url(#SVGID_27_)" d="M811.926,216.772c0,0-7.317,1.164-11.849-2.747
					C795.535,210.144,798.647,225.149,811.926,216.772z"/>
				
					<radialGradient id="SVGID_28_" cx="293.9707" cy="154.0989" r="20.6827" gradientTransform="matrix(0.9595 0.2813 -0.2813 0.9595 581.1442 -50.2615)" gradientUnits="userSpaceOnUse">
					<stop  offset="0" style="stop-color:#EAD7CF"/>
					<stop  offset="0.0052" style="stop-color:#EAD6CE"/>
					<stop  offset="0.1873" style="stop-color:#EAC6B7"/>
					<stop  offset="0.3848" style="stop-color:#E9C3AA"/>
					<stop  offset="0.5784" style="stop-color:#E9C1A2"/>
					<stop  offset="0.6786" style="stop-color:#E4B99B"/>
					<stop  offset="0.8376" style="stop-color:#D6A287"/>
					<stop  offset="0.9923" style="stop-color:#C4856F"/>
				</radialGradient>
				<path opacity="0.7" fill="url(#SVGID_28_)" d="M808.956,192.465c0,0,4.397-6.21,10.899-4.67
					c6.503,1.535,6.299,7.887,5.093,5.155c-1.219-2.737-8.503-5.979-15.097,0.882C803.261,200.685,808.956,192.465,808.956,192.465z
					"/>
			</g>
			<g>
				<g>
					
						<radialGradient id="SVGID_29_" cx="348.2329" cy="197.9539" r="43.7123" fx="334.873" fy="195.9612" gradientTransform="matrix(1.0632 0.1754 -0.1726 1.0464 419.528 -102.8389)" gradientUnits="userSpaceOnUse">
						<stop  offset="0.0513" style="stop-color:#EAD7CF"/>
						<stop  offset="0.0588" style="stop-color:#EAD6CE"/>
						<stop  offset="0.3241" style="stop-color:#EAC6B7"/>
						<stop  offset="0.3486" style="stop-color:#EAC5B4"/>
						<stop  offset="0.4958" style="stop-color:#E9C2A7"/>
						<stop  offset="0.6278" style="stop-color:#E9C1A2"/>
						<stop  offset="0.7535" style="stop-color:#E5BDA0"/>
						<stop  offset="0.8791" style="stop-color:#DAB199"/>
						<stop  offset="0.9157" style="stop-color:#D5AC96"/>
						<stop  offset="0.9466" style="stop-color:#D2A893"/>
						<stop  offset="0.9805" style="stop-color:#C99A8B"/>
						<stop  offset="0.9923" style="stop-color:#C49487"/>
					</radialGradient>
					<path opacity="0.7" fill="url(#SVGID_29_)" d="M773.835,170.079c1.155-8.847-0.082-18.519-4.113-24.946
						c-1.777-2.841-4.659-5.324-7.794-6.609c-15.344-6.279-28.108,12.595-27.87,34.298c0.104,8.845,5.132,16.249,13.986,18.085
						c6.467,1.345,13.539,1.074,18.437-3.651C771.168,182.737,773.017,176.344,773.835,170.079z"/>
					<g>
						
							<radialGradient id="SVGID_30_" cx="416.1577" cy="165.1824" r="53.2139" gradientTransform="matrix(0.919 0.394 -0.394 0.919 419.93 -166.7884)" gradientUnits="userSpaceOnUse">
							<stop  offset="0.077" style="stop-color:#FFFFFF"/>
							<stop  offset="0.2034" style="stop-color:#FAF7F4"/>
							<stop  offset="0.4255" style="stop-color:#EBE2D7"/>
							<stop  offset="0.5197" style="stop-color:#E4D7C8"/>
							<stop  offset="0.8065" style="stop-color:#DCCCBC"/>
							<stop  offset="1" style="stop-color:#BDA398"/>
						</radialGradient>
						<path fill="url(#SVGID_30_)" d="M772.373,169.496c1.098-8.342-0.041-17.45-3.773-23.521c-1.644-2.654-4.302-4.982-7.207-6.191
							c-14.243-5.887-26.134,11.948-25.963,32.385c0.063,8.329,4.733,15.327,12.946,17.031c5.991,1.225,12.568,0.979,17.117-3.497
							C769.861,181.439,771.591,175.404,772.373,169.496z"/>
						<path fill="#6C6D70" d="M735.292,172.177c-0.105-13.012,4.569-25.013,11.939-30.582c4.346-3.284,9.304-3.973,14.218-1.94
							c2.874,1.191,5.588,3.522,7.272,6.249c3.559,5.771,4.972,14.597,3.781,23.603c-0.975,7.456-3.17,12.638-6.902,16.301
							c-3.898,3.829-9.875,5.038-17.256,3.52c-0.467-0.091-0.927-0.202-1.367-0.334
							C739.836,186.893,735.354,180.452,735.292,172.177z M747.41,141.821c-7.299,5.515-11.944,17.431-11.829,30.354
							c0.052,8.144,4.456,14.486,11.481,16.54c0.437,0.138,0.888,0.242,1.342,0.34c5.079,1.043,12.159,1.299,17.003-3.451
							c3.682-3.614,5.848-8.746,6.817-16.125c1.173-8.958-0.219-17.71-3.739-23.434c-1.66-2.668-4.33-4.963-7.146-6.136
							c-0.533-0.221-1.065-0.406-1.59-0.558C755.473,138.093,751.205,138.953,747.41,141.821z"/>
					</g>
					<g>
						<g>
							
								<radialGradient id="SVGID_31_" cx="355.6836" cy="245.6863" r="21.7154" fx="341.3296" fy="242.6592" gradientTransform="matrix(0.9927 0.1221 -0.1221 0.9927 425.3033 -110.8738)" gradientUnits="userSpaceOnUse">
								<stop  offset="0.129" style="stop-color:#A0D3ED"/>
								<stop  offset="0.2235" style="stop-color:#87C7DA"/>
								<stop  offset="0.4227" style="stop-color:#48A8A9"/>
								<stop  offset="0.6093" style="stop-color:#078977"/>
								<stop  offset="0.6564" style="stop-color:#078475"/>
								<stop  offset="0.7136" style="stop-color:#07756E"/>
								<stop  offset="0.7757" style="stop-color:#085D62"/>
								<stop  offset="0.7814" style="stop-color:#085A61"/>
								<stop  offset="0.9732" style="stop-color:#003D4E"/>
							</radialGradient>
							<path fill="url(#SVGID_31_)" d="M761.199,172.47c-1.98,9.938-9.264,16.855-16.301,15.455
								c-7.011-1.41-11.08-10.604-9.082-20.535c2.004-9.94,9.29-16.867,16.302-15.458
								C759.132,153.338,763.199,162.536,761.199,172.47z"/>
						</g>
						<g>
							<path opacity="0.8" fill="#A9D4D7" d="M758.287,169.552c0,0,2.203,4.985-1.744,12.217
								c-4.004,7.205-12.966,6.018-10.769,3.828c0,0,5.643,0.678,9.129-6.824C757.859,172.386,756.459,167.546,758.287,169.552z"/>
							<path opacity="0.8" fill="#A9D4D7" d="M737.907,173.266c0,0,0.445,6.647,3.648,8.609c3.221,1.967-3.119,3.572-4.914-3.495
								C735.232,172.61,737.769,171.552,737.907,173.266z"/>
						</g>
						<path opacity="0.8" fill="#EBF7F6" d="M750.496,184.628c1.064-0.606,2.088-1.011,3.007-1.838
							c1.166-1.063,1.652-2.533,2.278-3.934c0.072-0.143,0.271-0.075,0.254,0.074c-0.014,2.811-2.585,6.271-5.278,6.563
							C750.229,185.552,750.091,184.847,750.496,184.628z"/>
					</g>
				</g>
				
					<radialGradient id="SVGID_32_" cx="355.0156" cy="237.1692" r="14.7227" gradientTransform="matrix(0.9927 0.1221 -0.1221 0.9927 425.3033 -110.8738)" gradientUnits="userSpaceOnUse">
					<stop  offset="0.405" style="stop-color:#4C4244"/>
					<stop  offset="0.5903" style="stop-color:#363032"/>
					<stop  offset="0.908" style="stop-color:#090A0B"/>
				</radialGradient>
				<path fill="url(#SVGID_32_)" d="M756.111,173.082c-1.335,6.692-6.216,11.363-10.894,10.435
					c-4.689-0.962-7.393-7.137-6.05-13.821c1.339-6.703,6.218-11.37,10.89-10.428C754.756,160.205,757.459,166.385,756.111,173.082z
					"/>
				<path fill="#FFFFFF" d="M745.058,166.682c-0.905,2.544-3.019,4.088-4.729,3.466c-1.719-0.604-2.352-3.136-1.441-5.667
					c0.887-2.526,3.013-4.072,4.702-3.456C745.308,161.627,745.97,164.172,745.058,166.682z"/>
				<path fill="#FFFFFF" d="M754.218,185.709c-0.486,0.122-0.847,0.409-1.09,0.741c5.351,0.308,9.541-2.295,12.846-6.025
					c4.968-7.019,5.767-17.161,3.836-25.881c-3.343-15.003-20.214-15.854-27.747-4.057c-0.266,0.424,0.403,0.54,0.649,0.298
					c4.366-4.393,10.376-5.868,15.779-2.617c3.785,2.269,5.175,7.889,5.681,11.887C765.171,167.939,763.37,183.326,754.218,185.709z
					"/>
			</g>
			<g>
				<g>
					
						<radialGradient id="SVGID_33_" cx="274.6978" cy="220.4153" r="40.6368" fx="262.2778" fy="218.5629" gradientTransform="matrix(1.0549 0.2199 -0.2164 1.0383 444.6583 -144.5073)" gradientUnits="userSpaceOnUse">
						<stop  offset="0.0513" style="stop-color:#EAD7CF"/>
						<stop  offset="0.0588" style="stop-color:#EAD6CE"/>
						<stop  offset="0.3241" style="stop-color:#EAC6B7"/>
						<stop  offset="0.3486" style="stop-color:#EAC5B4"/>
						<stop  offset="0.4958" style="stop-color:#E9C2A7"/>
						<stop  offset="0.6278" style="stop-color:#E9C1A2"/>
						<stop  offset="0.7535" style="stop-color:#E5BDA0"/>
						<stop  offset="0.8791" style="stop-color:#DAB199"/>
						<stop  offset="0.9157" style="stop-color:#D5AC96"/>
						<stop  offset="0.9466" style="stop-color:#D2A893"/>
						<stop  offset="0.9805" style="stop-color:#C99A8B"/>
						<stop  offset="0.9923" style="stop-color:#C49487"/>
					</radialGradient>
					<path opacity="0.7" fill="url(#SVGID_33_)" d="M703.49,149.839c1.423-8.172,0.667-17.201-2.845-23.345
						c-1.543-2.687-4.124-5.109-6.978-6.435c-14-6.439-26.595,10.6-27.237,30.757c-0.25,8.224,4.145,15.309,12.287,17.354
						c5.943,1.497,12.538,1.527,17.269-2.67C700.52,161.495,702.485,155.621,703.49,149.839z"/>
					<g>
						
							<radialGradient id="SVGID_34_" cx="352.1021" cy="180.1755" r="52.6542" gradientTransform="matrix(0.919 0.394 -0.394 0.919 419.93 -166.7884)" gradientUnits="userSpaceOnUse">
							<stop  offset="0.077" style="stop-color:#FFFFFF"/>
							<stop  offset="0.2034" style="stop-color:#FAF7F4"/>
							<stop  offset="0.4255" style="stop-color:#EBE2D7"/>
							<stop  offset="0.5197" style="stop-color:#E4D7C8"/>
							<stop  offset="0.8065" style="stop-color:#DCCCBC"/>
							<stop  offset="1" style="stop-color:#BDA398"/>
						</radialGradient>
						<path fill="url(#SVGID_34_)" d="M702.146,149.235c1.355-7.702,0.665-16.207-2.57-21.988c-1.421-2.524-3.808-4.81-6.464-6.034
							c-12.981-6.022-24.739,10.073-25.371,29.058c-0.263,7.739,3.81,14.417,11.358,16.316c5.515,1.391,11.627,1.408,16.039-2.567
							C699.363,160.215,701.207,154.693,702.146,149.235z"/>
						<path fill="#6C6D70" d="M667.613,150.26c0.396-11.853,5.099-22.73,11.981-27.702c4.25-3.069,9.006-3.583,13.579-1.461
							c2.617,1.206,5.049,3.485,6.523,6.086c3.075,5.506,4.04,13.756,2.573,22.077c-1.188,6.876-3.414,11.602-7.033,14.86
							c-4.789,4.306-11.438,3.784-16.161,2.599c-0.224-0.054-0.425-0.11-0.626-0.169C671.497,164.504,667.335,158.27,667.613,150.26
							z M679.753,122.772c-6.82,4.92-11.484,15.717-11.878,27.498c-0.261,7.892,3.81,14.015,10.64,16.02
							c0.201,0.058,0.402,0.114,0.617,0.163c4.67,1.184,11.23,1.701,15.917-2.529c3.575-3.225,5.797-7.896,6.973-14.71
							c1.444-8.262,0.504-16.448-2.556-21.904c-1.434-2.554-3.838-4.787-6.404-5.979c-0.659-0.307-1.335-0.563-2.006-0.764
							C687.195,119.44,683.294,120.208,679.753,122.772z"/>
					</g>
				</g>
				<g>
					<g>
						
							<radialGradient id="SVGID_35_" cx="310.7959" cy="245.8713" r="20.7057" fx="297.1093" fy="242.985" gradientTransform="matrix(0.9962 0.0882 -0.0882 0.9962 392.7499 -118.0115)" gradientUnits="userSpaceOnUse">
							<stop  offset="0.129" style="stop-color:#A0D3ED"/>
							<stop  offset="0.2235" style="stop-color:#87C7DA"/>
							<stop  offset="0.4227" style="stop-color:#48A8A9"/>
							<stop  offset="0.6093" style="stop-color:#078977"/>
							<stop  offset="0.6564" style="stop-color:#078475"/>
							<stop  offset="0.7136" style="stop-color:#07756E"/>
							<stop  offset="0.7757" style="stop-color:#085D62"/>
							<stop  offset="0.7814" style="stop-color:#085A61"/>
							<stop  offset="0.9732" style="stop-color:#003D4E"/>
						</radialGradient>
						<path fill="url(#SVGID_35_)" d="M692.755,150.135c-1.576,9.532-8.304,16.362-15.038,15.251
							c-6.712-1.115-10.886-9.742-9.318-19.277c1.586-9.53,8.302-16.362,15.027-15.25
							C690.159,131.976,694.331,140.601,692.755,150.135z"/>
					</g>
					<g>
						<path opacity="0.8" fill="#A9D4D7" d="M690.548,144.674c0,0,1.836,6.33-2.055,13.269c-4.507,8.04-12.972,6.421-11.321,3.963
							c0,0,6.472-0.104,9.454-7.393C688.895,149.007,688.479,143.147,690.548,144.674z"/>
					</g>
					<path opacity="0.8" fill="#EBF7F6" d="M683.636,161.264c0.875-0.76,1.762-1.353,2.454-2.297
						c0.882-1.203,1.067-2.664,1.411-4.104c0.014-0.142,0.212-0.106,0.238,0.046c0.508,2.611-1.245,6.327-3.711,7.12
						C683.566,162.189,683.308,161.55,683.636,161.264z"/>
				</g>
				<g>
					
						<radialGradient id="SVGID_36_" cx="309.5181" cy="236.5813" r="14.0321" gradientTransform="matrix(0.9962 0.0882 -0.0882 0.9962 392.7499 -118.0115)" gradientUnits="userSpaceOnUse">
						<stop  offset="0.405" style="stop-color:#4C4244"/>
						<stop  offset="0.5903" style="stop-color:#363032"/>
						<stop  offset="0.908" style="stop-color:#090A0B"/>
					</radialGradient>
					<path fill="url(#SVGID_36_)" d="M687.394,149.659c-1.06,6.433-5.553,11.036-10.047,10.285
						c-4.498-0.741-7.264-6.542-6.219-12.968c1.078-6.427,5.574-11.031,10.057-10.278
						C685.683,137.441,688.449,143.235,687.394,149.659z"/>
					<path fill="#FFFFFF" d="M679.308,141.115c-0.858,2.407-2.87,3.879-4.508,3.304c-1.634-0.593-2.253-3.004-1.395-5.414
						c0.867-2.406,2.872-3.888,4.519-3.304C679.533,136.291,680.172,138.714,679.308,141.115z"/>
				</g>
				<path fill="#FFFFFF" d="M699.437,133.405c-3.747-11.717-19.573-13.11-24.662-2.081c-0.036,0.076,0.047,0.093,0.1,0.068
					c4.707-2.584,8.619-5.74,14.261-2.988c5.007,2.434,6.526,8.136,6.675,13.184c0.214,6.752-1.771,18.759-7.295,23.347
					c-0.342,0.288,0.105,0.598,0.41,0.486C700.017,161.286,702.646,143.446,699.437,133.405z"/>
				<path opacity="0.8" fill="#A9D4D7" d="M674.784,160.403c-0.472-0.955-1.264-1.521-1.963-2.325
					c-1.137-1.313-1.859-2.834-2.439-4.453c-1.09-3.173-0.225-6.215,0.215-9.386c0.028-0.178-0.215-0.209-0.31-0.098
					c-2.1,2.492-2.179,6.092-1.72,9.174c0.413,2.823,1.827,7.266,4.945,8.104C674.019,161.557,675.124,161.097,674.784,160.403z"/>
			</g>
			
				<radialGradient id="SVGID_37_" cx="404.1221" cy="232.5315" r="22.8008" gradientTransform="matrix(0.919 0.394 -0.394 0.919 419.93 -166.7884)" gradientUnits="userSpaceOnUse">
				<stop  offset="0.0513" style="stop-color:#EAD7CF"/>
				<stop  offset="0.0588" style="stop-color:#EAD6CE"/>
				<stop  offset="0.3241" style="stop-color:#EAC6B7"/>
				<stop  offset="0.3486" style="stop-color:#EAC5B4"/>
				<stop  offset="0.4958" style="stop-color:#E9C2A7"/>
				<stop  offset="0.6278" style="stop-color:#E9C1A2"/>
				<stop  offset="0.7535" style="stop-color:#E5BDA0"/>
				<stop  offset="0.8791" style="stop-color:#DAB199"/>
				<stop  offset="0.9157" style="stop-color:#D5AC96"/>
				<stop  offset="0.9466" style="stop-color:#D2A893"/>
				<stop  offset="0.9805" style="stop-color:#C99A8B"/>
				<stop  offset="0.9923" style="stop-color:#C49487"/>
			</radialGradient>
			<path opacity="0.7" fill="url(#SVGID_37_)" d="M726.298,204.108c0.207,1.576,0.918,3.523,2.242,5.523
				c1.327,1.982-1.304,1.534-1.761,0.924c-0.526-0.663-1.364-1.511-2.896,2.852c-1.535,4.38-6.895,13.046-17.506,10.957
				c-10.61-2.098-17.32-8.578-19.73-16.929c-2.416-8.342-0.988-10.537-5.498-14.867c-4.514-4.325-4.858-7.612-3.353-5.732
				c1.515,1.887,12.189,9.083,24.735,12.48c12.541,3.4,20.637,5.063,21.446,3.324C724.767,200.897,725.709,199.42,726.298,204.108z"
				/>
			<g>
				<g>
					<path opacity="0.62" fill="#C9724B" d="M725.232,206.636c0,0-3.541,20.313-19.893,16.773
						c-16.345-3.549-19.956-20.339-19.013-28.75c0,0-5.91-3.687-7.541-6.37c0,0,4.794,4.111,11.842,7.173
						c12.916,5.625,27.075,9.761,34.824,9.315L725.232,206.636z"/>
					
						<radialGradient id="SVGID_38_" cx="1074.3242" cy="264.594" r="19.2331" fx="1075.2408" fy="264.6104" gradientTransform="matrix(-0.917 -0.399 -0.399 0.917 1793.3186 394.6056)" gradientUnits="userSpaceOnUse">
						<stop  offset="0.0675" style="stop-color:#761323"/>
						<stop  offset="0.2412" style="stop-color:#711422"/>
						<stop  offset="0.4452" style="stop-color:#631620"/>
						<stop  offset="0.6638" style="stop-color:#4B191C"/>
						<stop  offset="0.6898" style="stop-color:#481A1B"/>
						<stop  offset="0.8377" style="stop-color:#3D181A"/>
						<stop  offset="1" style="stop-color:#2B1418"/>
					</radialGradient>
					<path fill="url(#SVGID_38_)" d="M698.237,199.969c19.632,7.022,26.791,5.737,26.791,5.737s-3.709,19.046-18.371,16.554
						c-13.057-2.211-20.313-14.646-19.852-27.51C689.698,196.453,693.418,198.249,698.237,199.969z"/>
					<path opacity="0.5" fill="#AE5E36" d="M701.875,223.796c0,0,0.125,0.125,0.351,0.34c0.239,0.201,0.522,0.535,0.979,0.821
						c0.439,0.337,0.972,0.656,1.589,0.958c0.323,0.119,0.654,0.247,0.973,0.383c0.348,0.085,0.699,0.188,1.051,0.257
						c0.359,0.051,0.722,0.122,1.084,0.128c0.343,0.028,0.703,0.012,1.042-0.018c0.678-0.046,1.302-0.218,1.815-0.369
						c1.036-0.351,1.585-0.799,1.585-0.799s-0.646,0.271-1.677,0.453c-0.502,0.111-1.105,0.169-1.745,0.16
						c-0.324,0.018-0.647-0.008-0.993-0.031c-0.331-0.001-0.656-0.089-0.994-0.132c-0.334-0.058-0.657-0.145-0.996-0.225
						c-0.308-0.101-0.626-0.207-0.94-0.314c-0.585-0.24-1.146-0.47-1.597-0.737c-0.467-0.223-0.831-0.479-1.103-0.628
						C702.034,223.883,701.875,223.796,701.875,223.796z"/>
					<g>
						
							<radialGradient id="SVGID_39_" cx="1064.542" cy="270.0012" r="11.8815" fx="1071.7722" fy="268.2409" gradientTransform="matrix(-0.917 -0.399 -0.399 0.917 1793.3186 394.6056)" gradientUnits="userSpaceOnUse">
							<stop  offset="0.1746" style="stop-color:#9F2D31"/>
							<stop  offset="0.3432" style="stop-color:#9B2C30"/>
							<stop  offset="0.4942" style="stop-color:#912A2E"/>
							<stop  offset="0.6385" style="stop-color:#7E262A"/>
							<stop  offset="0.7786" style="stop-color:#652024"/>
							<stop  offset="0.9146" style="stop-color:#44191D"/>
							<stop  offset="1" style="stop-color:#2B1418"/>
						</radialGradient>
						<path fill="url(#SVGID_39_)" d="M720.097,216.732c-2.839,3.672-7.112,6.607-13.439,5.527c-2.225-0.376-4.273-1.08-6.151-1.992
							C707.011,212.91,718.751,216.311,720.097,216.732z"/>
						
							<linearGradient id="SVGID_40_" gradientUnits="userSpaceOnUse" x1="1054.7197" y1="256.7522" x2="1086.6166" y2="263.2026" gradientTransform="matrix(-0.917 -0.399 -0.399 0.917 1793.3186 394.6056)">
							<stop  offset="0" style="stop-color:#A08071"/>
							<stop  offset="0.0134" style="stop-color:#A78777"/>
							<stop  offset="0.0806" style="stop-color:#C6A893"/>
							<stop  offset="0.1367" style="stop-color:#D9BDA5"/>
							<stop  offset="0.1743" style="stop-color:#E0C4AB"/>
							<stop  offset="0.2387" style="stop-color:#E6CCB7"/>
							<stop  offset="0.3807" style="stop-color:#EFDACC"/>
							<stop  offset="0.5199" style="stop-color:#F5E2D9"/>
							<stop  offset="0.6519" style="stop-color:#F7E5DD"/>
							<stop  offset="0.7117" style="stop-color:#F2DFD5"/>
							<stop  offset="0.8064" style="stop-color:#E5CFBE"/>
							<stop  offset="0.8496" style="stop-color:#DEC6B1"/>
							<stop  offset="0.9193" style="stop-color:#CCB29C"/>
							<stop  offset="1" style="stop-color:#B4957E"/>
						</linearGradient>
						<path fill="url(#SVGID_40_)" d="M694.958,198.721c1.031,0.409,2.126,0.834,3.279,1.247
							c19.632,7.022,26.791,5.737,26.791,5.737s-0.488,2.523-1.818,5.612c-8.861,0.932-17.183-1.241-21.32-3.408
							C697.622,205.674,695.688,201.794,694.958,198.721z"/>
					</g>
					<path opacity="0.68" fill="#B54E46" d="M707.953,220.356c-2.226,0.54-4.38,0.248-4.808-0.644
						c-0.443-0.91,1.016-2.085,3.26-2.619c2.241-0.557,4.396-0.263,4.816,0.647C711.633,218.652,710.165,219.824,707.953,220.356z"
						/>
					<g opacity="0.8">
						
							<linearGradient id="SVGID_41_" gradientUnits="userSpaceOnUse" x1="1076.4395" y1="261.5896" x2="1077.6064" y2="261.5896" gradientTransform="matrix(-0.917 -0.399 -0.399 0.917 1793.3186 394.6056)">
							<stop  offset="0.1043" style="stop-color:#E0C4AB"/>
							<stop  offset="0.1364" style="stop-color:#DABEA5"/>
							<stop  offset="0.2592" style="stop-color:#C9AC94"/>
							<stop  offset="0.4055" style="stop-color:#BD9F87"/>
							<stop  offset="0.5965" style="stop-color:#B69780"/>
							<stop  offset="1" style="stop-color:#B4957E"/>
						</linearGradient>
						<path opacity="0.56" fill="url(#SVGID_41_)" d="M701.04,206.536l-0.163,0.685c-0.112-0.066-0.174-0.208-0.142-0.336
							l1.005-4.572c0.063,0.014,0.132,0.033,0.184,0.044L701.04,206.536z"/>
						<g>
							<path opacity="0.37" fill="#F1EEE2" d="M701.482,207.679c-0.206-0.209-0.354-0.357-0.394-0.371l1.07-4.9
								c0.103,0.019,0.201,0.029,0.304,0.049C702.205,203.483,701.589,205.994,701.482,207.679z"/>
						</g>
					</g>
					<g opacity="0.8">
						
							<linearGradient id="SVGID_42_" gradientUnits="userSpaceOnUse" x1="1081.583" y1="260.5696" x2="1082.2754" y2="260.5696" gradientTransform="matrix(-0.917 -0.399 -0.399 0.917 1793.3186 394.6056)">
							<stop  offset="0.1043" style="stop-color:#E0C4AB"/>
							<stop  offset="0.1364" style="stop-color:#DABEA5"/>
							<stop  offset="0.2592" style="stop-color:#C9AC94"/>
							<stop  offset="0.4055" style="stop-color:#BD9F87"/>
							<stop  offset="0.5965" style="stop-color:#B69780"/>
							<stop  offset="1" style="stop-color:#B4957E"/>
						</linearGradient>
						<path opacity="0.56" fill="url(#SVGID_42_)" d="M697.182,202.527l-0.233,0.83c-0.111-0.065-0.154-0.235-0.11-0.396l0.659-2.6
							l0.212,0.09L697.182,202.527z"/>
						<g>
							<path opacity="0.37" fill="#F1EEE2" d="M698.171,200.653c-0.261,1.098-0.518,2.253-0.644,3.21
								c-0.185-0.232-0.337-0.406-0.364-0.427l0.741-2.908L698.171,200.653z"/>
						</g>
					</g>
					<g>
						
							<linearGradient id="SVGID_43_" gradientUnits="userSpaceOnUse" x1="38.583" y1="346.2454" x2="40.9141" y2="346.2454" gradientTransform="matrix(0.84 0.5424 -0.5424 0.84 860.8945 -105.9898)">
							<stop  offset="0.1043" style="stop-color:#E0C4AB"/>
							<stop  offset="0.1364" style="stop-color:#DABEA5"/>
							<stop  offset="0.2592" style="stop-color:#C9AC94"/>
							<stop  offset="0.4055" style="stop-color:#BD9F87"/>
							<stop  offset="0.5965" style="stop-color:#B69780"/>
							<stop  offset="1" style="stop-color:#B4957E"/>
						</linearGradient>
						<path opacity="0.2" fill="url(#SVGID_43_)" d="M707.157,203.436c-0.105-0.02-0.201,0.031-0.226,0.178l-1.155,5.572
							c-0.022,0.136,0.031,0.23,0.129,0.27l0.189-0.688L707.157,203.436z"/>
						<g>
							<path opacity="0.37" fill="#F1EEE2" d="M707.373,203.806c-0.021-0.006-0.058,0.142-0.069,0.137l-1.197,5.508
								c0.04,0.015,0.188,0.096,0.372,0.205c0.174-1.983,1.144-5.633,1.165-5.67C707.489,203.896,707.392,203.823,707.373,203.806z"
								/>
						</g>
					</g>
					<g opacity="0.8">
						
							<linearGradient id="SVGID_44_" gradientUnits="userSpaceOnUse" x1="1065.2539" y1="260.3337" x2="1066.5254" y2="260.3337" gradientTransform="matrix(-0.917 -0.399 -0.399 0.917 1793.3186 394.6056)">
							<stop  offset="0.1043" style="stop-color:#E0C4AB"/>
							<stop  offset="0.1364" style="stop-color:#DABEA5"/>
							<stop  offset="0.2592" style="stop-color:#C9AC94"/>
							<stop  offset="0.4055" style="stop-color:#BD9F87"/>
							<stop  offset="0.5965" style="stop-color:#B69780"/>
							<stop  offset="1" style="stop-color:#B4957E"/>
						</linearGradient>
						<path opacity="0.56" fill="url(#SVGID_44_)" d="M711.73,210.062l-0.188,0.686c-0.092-0.021-0.139-0.142-0.119-0.267
							l1.039-5.036c0.063-0.02,0.132-0.034,0.202-0.044L711.73,210.062z"/>
						<g>
							<path opacity="0.37" fill="#F1EEE2" d="M712.116,210.948c-0.185-0.105-0.33-0.2-0.375-0.204l1.185-5.396
								c0.118-0.021,0.229-0.027,0.346-0.038C713.196,205.598,712.298,209.042,712.116,210.948z"/>
						</g>
					</g>
					<g opacity="0.7">
						
							<linearGradient id="SVGID_45_" gradientUnits="userSpaceOnUse" x1="1060.001" y1="258.7229" x2="1061.25" y2="258.7229" gradientTransform="matrix(-0.917 -0.399 -0.399 0.917 1793.3186 394.6056)">
							<stop  offset="0.1043" style="stop-color:#E0C4AB"/>
							<stop  offset="0.1364" style="stop-color:#DABEA5"/>
							<stop  offset="0.2592" style="stop-color:#C9AC94"/>
							<stop  offset="0.4055" style="stop-color:#BD9F87"/>
							<stop  offset="0.5965" style="stop-color:#B69780"/>
							<stop  offset="1" style="stop-color:#B4957E"/>
						</linearGradient>
						<path opacity="0.56" fill="url(#SVGID_45_)" d="M718.108,206.122l-0.899,4.455l-0.169,0.699
							c-0.098-0.039-0.162-0.137-0.13-0.271l1.018-4.9C717.983,206.099,718.054,206.119,718.108,206.122z"/>
						<g>
							<path opacity="0.37" fill="#F1EEE2" d="M718.658,206.23c-0.261,1.026-0.908,3.662-1.044,5.246
								c-0.186-0.106-0.329-0.205-0.373-0.204l1.097-5.112C718.453,206.182,718.55,206.193,718.658,206.23z"/>
						</g>
					</g>
					<g>
						<path fill="#AE5E36" d="M677.634,186.602c0,0,0.066,0.193,0.276,0.519c0.207,0.337,0.483,0.828,0.96,1.375
							c0.239,0.274,0.457,0.608,0.76,0.918c0.305,0.308,0.645,0.648,0.998,1.008c0.668,0.761,1.592,1.427,2.554,2.209
							c0.253,0.202,0.485,0.392,0.748,0.595c0.262,0.178,0.529,0.361,0.819,0.549c0.563,0.361,1.143,0.739,1.739,1.128
							c1.157,0.828,2.52,1.437,3.893,2.173c0.696,0.323,1.391,0.724,2.111,1.032c0.749,0.31,1.493,0.622,2.242,0.918
							c1.502,0.591,3.021,1.32,4.591,1.802c1.552,0.508,3.116,1.015,4.656,1.519c1.524,0.516,3.105,0.877,4.592,1.31
							c0.73,0.192,1.461,0.415,2.191,0.575c0.731,0.152,1.444,0.299,2.128,0.438c1.404,0.287,2.712,0.564,3.941,0.714
							c1.22,0.181,2.349,0.343,3.353,0.376c1,0.08,1.879,0.128,2.592,0.104c0.725,0.012,1.286-0.048,1.679-0.068
							c0.38-0.042,0.571-0.088,0.571-0.088s-0.199,0.032-0.582,0.03c-0.389,0.001-0.94,0.001-1.652-0.051
							c-0.729-0.025-1.592-0.126-2.582-0.265c-0.99-0.108-2.094-0.34-3.299-0.565c-1.206-0.188-2.5-0.514-3.863-0.848
							c-0.682-0.171-1.387-0.342-2.103-0.516c-0.701-0.209-1.429-0.406-2.174-0.625c-1.464-0.445-2.993-0.813-4.515-1.344
							c-1.535-0.52-3.089-1.057-4.643-1.582c-1.576-0.465-3.046-1.154-4.557-1.71c-0.74-0.295-1.493-0.589-2.223-0.874
							c-0.725-0.31-1.402-0.689-2.096-1.023c-1.361-0.709-2.748-1.249-3.9-2.014c-0.62-0.363-1.197-0.714-1.768-1.044
							c-0.271-0.18-0.559-0.344-0.826-0.502c-0.267-0.192-0.511-0.38-0.747-0.562c-0.976-0.742-1.942-1.345-2.646-2.041
							c-0.362-0.328-0.721-0.642-1.045-0.929c-0.307-0.302-0.544-0.608-0.797-0.871c-0.503-0.512-0.834-0.965-1.061-1.275
							C677.726,186.789,677.634,186.602,677.634,186.602z"/>
						<path fill="#AE5E36" d="M692.398,197.635c-0.99-0.366-1.881-0.935-2.822-1.384l-2.791-1.441l0.095-0.052
							c-0.003,1.348,0.008,2.687,0.175,4.021c0.038,0.674,0.158,1.326,0.255,1.989c0.109,0.655,0.229,1.32,0.419,1.965
							c0.264,1.309,0.694,2.585,1.152,3.845l0.788,1.846l0.917,1.769c0.671,1.147,1.385,2.272,2.226,3.308
							c0.38,0.547,0.849,1.021,1.303,1.506l0.682,0.729l0.737,0.657c0.5,0.451,0.978,0.897,1.528,1.268
							c0.535,0.373,1.047,0.818,1.631,1.119c0.574,0.327,1.119,0.705,1.72,0.984l1.801,0.819l1.866,0.615
							c0.611,0.211,1.301,0.307,1.942,0.462c1.267,0.302,2.605,0.396,3.885,0.331c2.604-0.092,5.135-1.07,7.164-2.729
							c2.044-1.639,3.626-3.834,4.892-6.143c1.259-2.352,2.21-4.874,2.829-7.459l0.299,0.295c-0.618,0.063-1.196,0.076-1.769,0.063
							c-0.584-0.03-1.154-0.042-1.737-0.082c-1.14-0.155-2.302-0.211-3.429-0.443c-1.137-0.228-2.28-0.372-3.404-0.643l-3.354-0.792
							c-1.13-0.248-2.21-0.613-3.332-0.915c-1.097-0.316-2.201-0.614-3.301-0.951l-6.526-2.222L692.398,197.635z M704.788,202.114
							c1.104,0.33,2.199,0.613,3.313,0.923c1.112,0.297,2.208,0.646,3.334,0.879l3.367,0.719c1.115,0.227,2.264,0.362,3.394,0.544
							c1.122,0.21,2.276,0.223,3.415,0.348c0.568,0.022,1.145,0.02,1.714,0.029c0.552-0.002,1.138-0.034,1.668-0.1l0.355-0.046
							l-0.067,0.342c-0.562,2.671-1.476,5.243-2.689,7.688c-1.217,2.426-2.839,4.709-4.993,6.471
							c-2.114,1.782-4.847,2.874-7.637,2.997c-1.391,0.092-2.779-0.047-4.125-0.374c-0.661-0.167-1.327-0.261-1.979-0.486
							l-1.956-0.672l-1.874-0.867c-0.605-0.299-1.177-0.695-1.769-1.039c-0.619-0.324-1.122-0.793-1.671-1.188
							c-0.576-0.394-1.07-0.864-1.562-1.334l-0.754-0.701l-0.681-0.767c-0.445-0.516-0.904-1.018-1.286-1.588
							c-0.83-1.076-1.534-2.258-2.195-3.442l-0.88-1.839l-0.751-1.891c-0.425-1.289-0.826-2.584-1.073-3.909
							c-0.166-0.658-0.268-1.333-0.349-2.008c-0.097-0.66-0.191-1.329-0.228-2.008c-0.118-1.351-0.08-2.699-0.089-4.051l0.009-0.095
							l0.099,0.038l2.77,1.478c0.947,0.463,1.834,1.038,2.816,1.404l5.804,2.399L704.788,202.114z"/>
					</g>
					<g opacity="0.1">
						
							<linearGradient id="SVGID_46_" gradientUnits="userSpaceOnUse" x1="1070.7754" y1="274.7493" x2="1068.8351" y2="243.1608" gradientTransform="matrix(-0.917 -0.399 -0.399 0.917 1793.3186 394.6056)">
							<stop  offset="0.0968" style="stop-color:#815A46"/>
							<stop  offset="0.1319" style="stop-color:#7D5743"/>
							<stop  offset="0.1688" style="stop-color:#704D3B"/>
							<stop  offset="0.2064" style="stop-color:#5B3D2E"/>
							<stop  offset="0.2443" style="stop-color:#3E261B"/>
							<stop  offset="0.2545" style="stop-color:#351F15"/>
						</linearGradient>
						<path fill="url(#SVGID_46_)" d="M698.237,199.969c19.632,7.022,26.791,5.737,26.791,5.737s-0.488,2.523-1.818,5.612
							c-0.893,0.093-1.793,0.145-2.669,0.188c0.277-0.041,1.425-0.358,1.856-2.422c0.497-2.359-0.904-2.686-3.162-2.829
							c0,0-1.127-0.133-1.116,0.98c0,0,0.133-0.851-1.152-1.069c-1.578-0.268-4.25-0.978-4.379-0.376c0,0-0.063-0.529-1.935-1.096
							c-1.869-0.553-3.518-1.161-3.626-0.586c0,0,0.076-0.42-1.834-0.905c-1.929-0.505-3.233-0.988-3.301-0.659
							c0,0-0.093-0.605-2.168-1.224c-2.078-0.624-2.185-0.181-2.185-0.181s-0.138-0.565-1.133-0.823
							c-0.447-0.114-0.654,0.108-0.782,0.484c-0.288-0.721-0.511-1.425-0.667-2.079
							C695.989,199.131,697.084,199.555,698.237,199.969z"/>
					</g>
				</g>
				<path fill="#AE5E36" d="M725.093,201.73c0,0-0.131,0.547-0.146,1.376c-0.014,0.436,0.021,0.922,0.062,1.45
					c0.098,0.496,0.171,1.068,0.307,1.609c0.208,0.53,0.329,1.084,0.584,1.541c0.246,0.48,0.448,0.925,0.716,1.248
					c0.521,0.677,0.897,1.069,0.897,1.069s-0.225-0.513-0.624-1.227c-0.215-0.346-0.318-0.83-0.52-1.274
					c-0.241-0.456-0.323-1-0.505-1.512c-0.159-0.507-0.253-1.053-0.361-1.538c-0.065-0.501-0.204-0.968-0.23-1.38
					C725.139,202.28,725.093,201.73,725.093,201.73z"/>
			</g>
		</g>
	</g>
</g>
</svg>
