<?xml version="1.0" encoding="utf-8"?>
<!-- Generator: Adobe Illustrator 19.2.0, SVG Export Plug-In . SVG Version: 6.00 Build 0)  -->
<svg version="1.1" id="button_x5F_big" xmlns="http://www.w3.org/2000/svg" xmlns:xlink="http://www.w3.org/1999/xlink" x="0px"
	 y="0px" viewBox="0 0 45.3 57.3" style="enable-background:new 0 0 45.3 57.3;" xml:space="preserve">
<style type="text/css">
	.st0{opacity:0.2;}
	.st1{fill:#FFFFFF;}
</style>
<g id="btn_x5F_big_x5F_sound_x5F_music_x5F_brown">
	<g>
		<g>
			<g>
				<g class="st0">
					<path d="M45.3,39.6L45.3,39.6L39.3,4L5.1,21.3l6,23c-1-0.4-2-0.6-3.2-0.6c-4.4,0-8,3-8,6.8s3.6,6.8,8,6.8s8-3,8-6.8
						c0-0.2,0-0.4,0-0.5h0l0,0c0-0.3-0.1-0.6-0.1-0.8l-3.2-19.8l23-12.2c0,0,1.8,9.3,3.3,16.6c-0.5-0.1-1-0.1-1.5-0.1
						c-4.4,0-8,3-8,6.8c0,3.8,3.6,6.8,8,6.8s8-3,8-6.8C45.3,40,45.3,39.8,45.3,39.6z"/>
				</g>
				<g>
					<path class="st1" d="M45.3,35.6L45.3,35.6L39.3,0L5.1,17.3l6,23c-1-0.4-2-0.6-3.2-0.6c-4.4,0-8,3-8,6.8s3.6,6.8,8,6.8
						s8-3,8-6.8c0-0.2,0-0.4,0-0.5h0l0,0c0-0.3-0.1-0.6-0.1-0.8l-3.2-19.8l23-12.2c0,0,1.8,9.3,3.3,16.6c-0.5-0.1-1-0.1-1.5-0.1
						c-4.4,0-8,3-8,6.8c0,3.8,3.6,6.8,8,6.8s8-3,8-6.8C45.3,36,45.3,35.8,45.3,35.6z"/>
				</g>
			</g>
		</g>
	</g>
</g>
</svg>
