<?xml version="1.0" encoding="utf-8"?>
<!-- Generator: Adobe Illustrator 19.2.0, SVG Export Plug-In . SVG Version: 6.00 Build 0)  -->
<svg version="1.1" id="Layer_1" xmlns="http://www.w3.org/2000/svg" xmlns:xlink="http://www.w3.org/1999/xlink" x="0px" y="0px"
	 viewBox="0 0 264 53.6" style="enable-background:new 0 0 264 53.6;" xml:space="preserve">
<style type="text/css">
	.st0{fill:#FF931E;}
</style>
<g>
	<path class="st0" d="M24.7,43.6c0-0.3-0.1-0.7-0.2-1c-0.2-0.3-0.4-0.6-0.6-1c-0.3-0.3-0.6-0.6-0.9-0.9c-0.3-0.3-0.7-0.6-1-0.8
		c-0.5-0.4-1.1-0.9-1.6-1.3c-0.6-0.5-1.1-1-1.5-1.6c-0.4-0.6-0.8-1.2-1.1-1.8c-0.3-0.6-0.4-1.3-0.4-2c0-1.4,0.3-2.5,0.9-3.5
		c0.6-1,1.4-1.7,2.3-2.3c0.9-0.6,2-1,3.1-1.3c1.1-0.3,2.2-0.4,3.3-0.4c0.8,0,1.5,0.1,2.2,0.2c0.7,0.1,1.4,0.3,1.9,0.4
		c0.7,0.2,1.3,0.3,1.9,0.6l-1.3,5c-0.6-0.3-1.1-0.5-1.7-0.7c-0.5-0.2-1-0.3-1.6-0.5c-0.6-0.1-1.1-0.2-1.6-0.2c-0.4,0-0.8,0-1.2,0.1
		c-0.4,0.1-0.8,0.2-1.2,0.4c-0.4,0.2-0.7,0.5-0.9,0.8c-0.2,0.3-0.4,0.8-0.4,1.3c0,0.3,0.1,0.6,0.3,0.9c0.2,0.3,0.4,0.6,0.7,0.9
		c0.3,0.3,0.6,0.6,0.9,0.9c0.3,0.3,0.7,0.6,1,0.9c0.5,0.4,1,0.8,1.6,1.3c0.5,0.5,1,1,1.5,1.5c0.4,0.5,0.8,1.1,1.1,1.6
		c0.3,0.6,0.4,1.1,0.4,1.7c0,0.8-0.2,1.7-0.5,2.5c-0.3,0.9-0.7,1.7-1.3,2.5c-0.6,0.8-1.3,1.6-2.1,2.3c-0.8,0.7-1.8,1.3-2.9,1.9
		c-1.1,0.5-2.3,1-3.6,1.3c-1.3,0.3-2.7,0.5-4.2,0.5c-2,0-3.8-0.2-5.4-0.6c-1.6-0.4-3-0.9-4.1-1.5c-1.2-0.6-2.2-1.4-3-2.2
		c-0.8-0.8-1.5-1.7-2-2.6c-0.5-0.9-0.9-1.8-1.1-2.8C0.1,43,0,42.2,0,41.3c0-1.7,0.3-3.3,0.9-4.9c0.6-1.6,1.4-3,2.3-4.3l4.7,2.6
		c-0.7,0.9-1.3,1.9-1.6,3c-0.3,1.1-0.5,2.2-0.5,3.3C5.8,42,6,43,6.4,44c0.4,0.9,1,1.8,1.8,2.5c0.8,0.7,1.9,1.2,3.2,1.6
		s2.8,0.6,4.6,0.6c1.2,0,2.3-0.1,3.4-0.4c1.1-0.3,2-0.6,2.8-1.1c0.8-0.5,1.4-1,1.9-1.6C24.5,45,24.7,44.3,24.7,43.6z"/>
	<path class="st0" d="M34.5,48.1c1.3-0.3,2.3-0.6,3.1-1c0.8-0.4,1.4-0.9,1.9-1.4c0.4-0.6,0.7-1.2,0.9-2c0.2-0.8,0.2-1.7,0.2-2.7
		V25.6h5.8V39h4.5c0.4,0,0.7,0,1,0.1c0.2,0.1,0.4,0.2,0.5,0.3c0.1,0.1,0.2,0.3,0.2,0.5c0,0.2,0,0.4,0,0.7v1.6c0,0.4,0,0.7-0.1,0.9
		c0,0.2-0.1,0.4-0.3,0.5c-0.1,0.1-0.3,0.2-0.5,0.2c-0.2,0-0.5,0.1-0.9,0.1h-4.8c-0.2,1.4-0.6,2.6-1.2,3.7c-0.5,1-1.3,1.9-2.1,2.6
		c-0.9,0.7-1.9,1.3-3.2,1.8c-1.2,0.5-2.7,0.8-4.3,1.1L34.5,48.1z"/>
	<path class="st0" d="M54,25.6c1-0.3,2.1-0.6,3.1-0.8c1-0.2,2.2-0.4,3.5-0.4c1.3,0,2.4,0.2,3.4,0.6c1,0.4,1.9,0.9,2.6,1.6
		c0.7,0.7,1.3,1.5,1.7,2.4c0.4,0.9,0.7,2,0.9,3.1c0.1,0.9,0.3,1.8,0.4,2.6c0.1,0.8,0.3,1.6,0.6,2.2c0.2,0.6,0.5,1.2,0.9,1.5
		c0.4,0.4,0.8,0.6,1.4,0.6v4.9H50.7c-0.4,0-0.6,0-0.9-0.1c-0.2,0-0.4-0.1-0.5-0.2c-0.1-0.1-0.2-0.3-0.3-0.5c0-0.2-0.1-0.5-0.1-0.9
		v-1.6c0-0.3,0-0.5,0-0.7c0-0.2,0.1-0.4,0.2-0.5c0.1-0.1,0.3-0.2,0.5-0.3c0.2-0.1,0.6-0.1,1-0.1h14.6c-0.3-0.5-0.5-1-0.6-1.5
		c-0.1-0.5-0.2-1-0.3-1.6c-0.1-0.8-0.3-1.7-0.4-2.5c-0.2-0.8-0.4-1.6-0.8-2.2c-0.3-0.7-0.8-1.2-1.4-1.6c-0.6-0.4-1.3-0.6-2.2-0.6
		c-0.6,0-1.4,0.1-2.4,0.2c-1,0.2-2,0.5-3.1,0.9V25.6z M57.4,17.3c0-0.4,0.1-0.8,0.2-1.1c0.1-0.3,0.4-0.6,0.6-0.9
		c0.3-0.3,0.6-0.5,0.9-0.6c0.3-0.1,0.7-0.2,1.1-0.2s0.8,0.1,1.1,0.2c0.3,0.1,0.6,0.4,0.9,0.6c0.3,0.3,0.5,0.6,0.6,0.9
		c0.1,0.3,0.2,0.7,0.2,1.1c0,0.4-0.1,0.8-0.2,1.1c-0.1,0.3-0.4,0.6-0.6,0.9s-0.6,0.5-0.9,0.6c-0.3,0.1-0.7,0.2-1.1,0.2
		s-0.8-0.1-1.1-0.2c-0.3-0.1-0.6-0.4-0.9-0.6c-0.3-0.3-0.5-0.6-0.6-0.9C57.5,18.1,57.4,17.7,57.4,17.3z"/>
	<path class="st0" d="M83.7,2.9c-0.2,0-0.5-0.1-0.9-0.1c-0.4,0-0.7-0.1-0.9-0.1c-0.5,0-0.9,0.1-1.2,0.3c-0.3,0.2-0.4,0.6-0.4,1.1
		c0,0.5,0.2,0.9,0.7,1.3C81.3,5.8,82,6,82.9,6h1.3v2.7H76V6h2.2c-0.2-0.3-0.5-0.7-0.7-1.1c-0.2-0.4-0.3-0.9-0.3-1.4
		c0-0.4,0.1-0.9,0.3-1.3c0.2-0.4,0.4-0.8,0.8-1.1c0.4-0.3,0.8-0.6,1.4-0.8c0.6-0.2,1.2-0.3,2-0.3c0.3,0,0.7,0,1.1,0
		c0.4,0,0.8,0.1,1.4,0.2L83.7,2.9z M77.2,12H83v31.9h-5.8V12z"/>
	<path class="st0" d="M107.3,43.8c-1.4,0-2.7-0.2-3.8-0.7c-1.1-0.4-2.1-1-2.8-1.8c-0.8-0.7-1.4-1.6-1.8-2.6c-0.4-1-0.6-2.1-0.6-3.2
		c0-1.2,0.1-2.4,0.4-3.4c0.3-1,0.7-2,1.1-2.8c0.5-0.8,1-1.6,1.7-2.2c0.6-0.6,1.3-1.2,2-1.6c0.7-0.4,1.4-0.8,2.2-1
		c0.7-0.2,1.5-0.3,2.2-0.3c1.1,0,2.2,0.2,3.3,0.7c1.1,0.5,2.1,1.2,3,2.1c0.9,0.9,1.6,2.1,2.2,3.6c0.6,1.4,0.8,3.1,0.8,5
		c0,1.1-0.2,2.1-0.6,3.1c-0.4,1-1,1.9-1.8,2.7c-0.8,0.8-1.7,1.4-2.8,1.8c-1.1,0.5-2.3,0.7-3.6,0.7H107.3z M101.4,17.3
		c0-0.4,0.1-0.8,0.2-1.1c0.1-0.3,0.4-0.6,0.6-0.9c0.3-0.3,0.6-0.5,0.9-0.6c0.3-0.1,0.7-0.2,1.1-0.2s0.8,0.1,1.1,0.2
		c0.3,0.1,0.6,0.4,0.9,0.6c0.3,0.3,0.5,0.6,0.6,0.9c0.1,0.3,0.2,0.7,0.2,1.1c0,0.4-0.1,0.8-0.2,1.1c-0.1,0.3-0.4,0.6-0.6,0.9
		c-0.3,0.3-0.6,0.5-0.9,0.6c-0.3,0.1-0.7,0.2-1.1,0.2s-0.8-0.1-1.1-0.2c-0.3-0.1-0.6-0.4-0.9-0.6c-0.3-0.3-0.5-0.6-0.6-0.9
		C101.4,18.1,101.4,17.7,101.4,17.3z M103.6,34.8c0,1.4,0.4,2.4,1.1,3.1c0.7,0.7,1.7,1,3,1h0.5c0.6,0,1.1-0.1,1.6-0.3
		c0.4-0.2,0.8-0.5,1.1-0.9c0.3-0.4,0.5-0.8,0.6-1.3c0.1-0.5,0.2-1,0.2-1.6c0-1-0.1-1.9-0.4-2.7c-0.2-0.8-0.5-1.4-0.9-1.9
		c-0.4-0.5-0.8-0.9-1.3-1.2c-0.5-0.3-0.9-0.4-1.3-0.4c-0.5,0-1.1,0.1-1.6,0.4c-0.5,0.3-1,0.6-1.4,1.2c-0.4,0.5-0.7,1.2-1,1.9
		C103.7,32.9,103.6,33.8,103.6,34.8z M108,17.3c0-0.4,0.1-0.8,0.2-1.1c0.1-0.3,0.4-0.6,0.6-0.9c0.3-0.3,0.6-0.5,0.9-0.6
		c0.3-0.1,0.7-0.2,1.1-0.2c0.4,0,0.8,0.1,1.1,0.2c0.3,0.1,0.6,0.4,0.9,0.6c0.3,0.3,0.5,0.6,0.6,0.9c0.1,0.3,0.2,0.7,0.2,1.1
		c0,0.4-0.1,0.8-0.2,1.1c-0.1,0.3-0.4,0.6-0.6,0.9c-0.3,0.3-0.6,0.5-0.9,0.6c-0.3,0.1-0.7,0.2-1.1,0.2c-0.4,0-0.8-0.1-1.1-0.2
		c-0.3-0.1-0.6-0.4-0.9-0.6c-0.3-0.3-0.5-0.6-0.6-0.9C108.1,18.1,108,17.7,108,17.3z"/>
	<path class="st0" d="M119.1,48.1c1.3-0.3,2.3-0.6,3.1-1c0.8-0.4,1.4-0.9,1.9-1.4c0.4-0.6,0.7-1.2,0.9-2c0.2-0.8,0.2-1.7,0.2-2.7
		V25.6h5.8V39h4.5c0.4,0,0.7,0,1,0.1c0.2,0.1,0.4,0.2,0.5,0.3c0.1,0.1,0.2,0.3,0.2,0.5c0,0.2,0,0.4,0,0.7v1.6c0,0.4,0,0.7-0.1,0.9
		c0,0.2-0.1,0.4-0.3,0.5c-0.1,0.1-0.3,0.2-0.5,0.2c-0.2,0-0.5,0.1-0.9,0.1h-4.8c-0.2,1.4-0.6,2.6-1.2,3.7c-0.5,1-1.3,1.9-2.1,2.6
		c-0.9,0.7-1.9,1.3-3.2,1.8c-1.2,0.5-2.7,0.8-4.3,1.1L119.1,48.1z"/>
	<path class="st0" d="M150.8,44.1c-1.1,0-2-0.1-2.8-0.3c-0.8-0.2-1.6-0.4-2.2-0.7s-1.2-0.6-1.7-1c-0.5-0.4-0.9-0.7-1.3-1.1
		c-1.3,1.8-3.2,2.8-5.7,2.8h-1.8c-0.4,0-0.6,0-0.9-0.1c-0.2,0-0.4-0.1-0.5-0.2c-0.1-0.1-0.2-0.3-0.3-0.5c0-0.2-0.1-0.5-0.1-0.9v-1.6
		c0-0.3,0-0.5,0-0.7c0-0.2,0.1-0.4,0.2-0.5c0.1-0.1,0.3-0.2,0.5-0.3c0.2-0.1,0.6-0.1,1-0.1h1.1c0.7,0,1.4-0.2,1.9-0.6
		c0.5-0.4,0.9-1,1.2-1.8c0.7-2.4,1.6-4.4,2.5-5.8c0.9-1.5,1.9-2.6,2.9-3.4c1-0.8,2-1.3,2.9-1.6c1-0.3,1.8-0.4,2.6-0.4
		c1.1,0,2.1,0.1,3,0.4c0.9,0.3,1.7,0.7,2.4,1.2c0.7,0.5,1.3,1.1,1.9,1.7c0.5,0.7,1,1.3,1.3,2.1c0.3,0.7,0.6,1.5,0.8,2.3
		c0.2,0.8,0.3,1.5,0.3,2.3c0,1.2-0.2,2.3-0.6,3.3c-0.4,1.1-1,2-1.8,2.8c-0.8,0.8-1.7,1.5-2.9,2C153.6,43.8,152.3,44.1,150.8,44.1z
		 M154.5,35.1c0-0.5-0.1-1.1-0.3-1.7c-0.2-0.6-0.5-1.2-0.9-1.7c-0.4-0.5-0.9-1-1.4-1.3c-0.6-0.3-1.2-0.5-2-0.5c-0.7,0-1.4,0.2-2,0.7
		c-0.6,0.4-1.1,1-1.6,1.7c-0.5,0.7-0.9,1.5-1.2,2.4c-0.3,0.9-0.6,1.9-0.8,2.8c0.2,0.2,0.5,0.4,0.9,0.6c0.4,0.2,0.9,0.4,1.4,0.6
		c0.5,0.2,1,0.3,1.6,0.4c0.5,0.1,1.1,0.2,1.5,0.2c0.7,0,1.4-0.1,2-0.2c0.6-0.2,1.1-0.4,1.5-0.7c0.4-0.3,0.7-0.8,1-1.3
		C154.4,36.5,154.5,35.9,154.5,35.1z"/>
	<path class="st0" d="M196.5,12h5.8v27.5c0,2-0.3,3.9-0.9,5.6c-0.6,1.7-1.5,3.2-2.7,4.5c-1.2,1.3-2.7,2.2-4.4,2.9
		c-1.7,0.7-3.7,1-5.9,1c-2.4,0-4.5-0.3-6.2-1c-1.8-0.7-3.2-1.6-4.4-2.7c-1.2-1.1-2-2.4-2.6-3.9c-0.6-1.5-0.9-3-0.9-4.7
		c0-0.8,0.1-1.5,0.2-2.4c0.1-0.8,0.4-1.6,0.6-2.5c0.3-0.8,0.6-1.6,0.9-2.4c0.4-0.8,0.7-1.5,1.2-2.1l4.6,2.6
		c-0.3,0.4-0.5,0.8-0.7,1.3c-0.2,0.5-0.4,1-0.5,1.6c-0.1,0.6-0.2,1.1-0.3,1.7c-0.1,0.6-0.1,1.1-0.1,1.7c0,1.1,0.2,2.2,0.6,3.1
		c0.4,1,0.9,1.8,1.7,2.6c0.7,0.7,1.6,1.3,2.7,1.7c1.1,0.4,2.3,0.6,3.7,0.6c1.3,0,2.4-0.2,3.3-0.6c0.9-0.4,1.7-1,2.4-1.8
		c0.6-0.8,1.1-1.8,1.4-2.9c0.3-1.1,0.5-2.4,0.5-3.9V12z"/>
	<path class="st0" d="M211,48.8c1.3-0.1,2.5-0.4,3.6-0.7c1.1-0.3,2.1-0.7,3-1.2c0.9-0.5,1.6-1,2.3-1.5c0.6-0.6,1.1-1.2,1.4-1.8
		c-0.6,0.1-1.2,0.2-1.8,0.3c-0.6,0.1-1.1,0.1-1.6,0.1c-1.9,0-3.4-0.3-4.7-0.8c-1.3-0.5-2.4-1.3-3.2-2.1c-0.8-0.9-1.4-1.8-1.8-2.9
		c-0.4-1.1-0.6-2.1-0.6-3.1c0-1.4,0.3-2.8,0.8-4c0.5-1.2,1.3-2.3,2.2-3.2c0.9-0.9,2.1-1.6,3.3-2.1c1.3-0.5,2.6-0.8,4.1-0.8
		c0.7,0,1.3,0.1,2,0.2c0.7,0.1,1.4,0.3,2.1,0.6c0.7,0.3,1.3,0.7,1.9,1.2c0.6,0.5,1.2,1.2,1.6,2c0.5,0.8,0.8,1.7,1.1,2.8
		c0.3,1.1,0.4,2.4,0.4,3.8v3.8c0,2.5-0.4,4.6-1.2,6.3c-0.8,1.7-1.9,3.1-3.4,4.2c-1.5,1.1-3.2,1.9-5.2,2.5c-2,0.6-4.2,1-6.6,1.2
		l-0.5-4.7H211z M218.6,39.2c0.3,0,0.5,0,0.8,0c0.3,0,0.6-0.1,0.8-0.1c0.3,0,0.5-0.1,0.8-0.2c0.2-0.1,0.4-0.1,0.6-0.2v-1.9
		c0-1.5-0.1-2.8-0.4-3.7c-0.2-1-0.6-1.7-1-2.2c-0.4-0.5-0.8-0.9-1.3-1.1c-0.5-0.2-1-0.3-1.5-0.3c-0.6,0-1.1,0.1-1.6,0.4
		c-0.5,0.2-1,0.6-1.4,1c-0.4,0.4-0.7,0.9-1,1.5c-0.2,0.6-0.4,1.3-0.4,2c0,0.7,0.1,1.4,0.3,2c0.2,0.6,0.6,1.1,1,1.5
		c0.4,0.4,1,0.8,1.7,1C216.8,39.1,217.6,39.2,218.6,39.2z"/>
	<path class="st0" d="M232.7,12h5.8v23.3c0,0.7,0.1,1.4,0.2,1.8c0.1,0.5,0.3,0.9,0.5,1.1c0.2,0.3,0.5,0.5,0.8,0.6
		c0.3,0.1,0.7,0.2,1.2,0.2h1.1c0.4,0,0.7,0,1,0.1c0.2,0.1,0.4,0.2,0.5,0.3c0.1,0.1,0.2,0.3,0.2,0.5c0,0.2,0,0.4,0,0.7v1.6
		c0,0.4,0,0.7-0.1,0.9c0,0.2-0.1,0.4-0.3,0.5c-0.1,0.1-0.3,0.2-0.5,0.2c-0.2,0-0.5,0.1-0.9,0.1h-2.5c-1.2,0-2.3-0.2-3.2-0.5
		c-0.9-0.4-1.6-0.9-2.2-1.5c-0.6-0.6-1-1.4-1.3-2.3c-0.3-0.9-0.4-1.9-0.4-3V12z"/>
	<path class="st0" d="M245.5,25.6c1-0.3,2.1-0.6,3.1-0.8c1-0.2,2.2-0.4,3.5-0.4c1.3,0,2.4,0.2,3.4,0.6c1,0.4,1.9,0.9,2.6,1.6
		c0.7,0.7,1.3,1.5,1.7,2.4c0.4,0.9,0.7,2,0.9,3.1c0.1,0.9,0.3,1.8,0.4,2.6c0.1,0.8,0.3,1.6,0.6,2.2c0.2,0.6,0.5,1.2,0.9,1.5
		c0.4,0.4,0.8,0.6,1.4,0.6v4.9h-21.9c-0.4,0-0.6,0-0.9-0.1c-0.2,0-0.4-0.1-0.5-0.2c-0.1-0.1-0.2-0.3-0.3-0.5c0-0.2-0.1-0.5-0.1-0.9
		v-1.6c0-0.3,0-0.5,0-0.7c0-0.2,0.1-0.4,0.2-0.5c0.1-0.1,0.3-0.2,0.5-0.3c0.2-0.1,0.6-0.1,1-0.1h14.6c-0.3-0.5-0.5-1-0.6-1.5
		c-0.1-0.5-0.2-1-0.3-1.6c-0.1-0.8-0.3-1.7-0.4-2.5c-0.2-0.8-0.4-1.6-0.8-2.2c-0.3-0.7-0.8-1.2-1.4-1.6c-0.6-0.4-1.3-0.6-2.2-0.6
		c-0.6,0-1.4,0.1-2.4,0.2c-1,0.2-2,0.5-3.1,0.9V25.6z"/>
</g>
</svg>
