<?xml version="1.0" encoding="utf-8"?>
<!-- Generator: Adobe Illustrator 16.0.0, SVG Export Plug-In . SVG Version: 6.00 Build 0)  -->
<!DOCTYPE svg PUBLIC "-//W3C//DTD SVG 1.1//EN" "http://www.w3.org/Graphics/SVG/1.1/DTD/svg11.dtd">
<svg version="1.1" id="Isolation_Mode" xmlns="http://www.w3.org/2000/svg" xmlns:xlink="http://www.w3.org/1999/xlink" x="0px"
	 y="0px" width="203.99px" height="211.1px" viewBox="0 0 203.99 211.1" enable-background="new 0 0 203.99 211.1"
	 xml:space="preserve">
<circle fill="#FFFFFF" cx="105.987" cy="107.676" r="83.675"/>
<circle fill="#1873C6" cx="105.987" cy="107.676" r="73.671"/>
<g>
	<defs>
		<circle id="SVGID_1_" cx="105.987" cy="107.676" r="73.671"/>
	</defs>
	<clipPath id="SVGID_2_">
		<use xlink:href="#SVGID_1_"  overflow="visible"/>
	</clipPath>
	<g clip-path="url(#SVGID_2_)">
		
			<line fill="none" stroke="#0E4576" stroke-linecap="round" stroke-linejoin="round" stroke-miterlimit="10" x1="92.912" y1="82.379" x2="105.643" y2="122.241"/>
		
			<line fill="none" stroke="#0E4576" stroke-linecap="round" stroke-linejoin="round" stroke-miterlimit="10" x1="90.685" y1="-89.479" x2="90.685" y2="60.951"/>
		<g>
			<path fill="#D87819" d="M93.716,55.157c0,1.68-1.363,3.042-3.042,3.042l0,0c-1.68,0-3.042-1.362-3.042-3.042v-6.859
				c0-1.68,1.363-3.041,3.042-3.041l0,0c1.679,0,3.042,1.361,3.042,3.041V55.157z"/>
			<path fill="#FF9C31" d="M102.366,70.999c-1.811,0-3.278,1.467-3.278,3.277c0,4.641-3.763,8.404-8.403,8.404
				c-4.642,0-8.404-3.763-8.404-8.404c0-4.618,3.727-8.363,8.336-8.399c0.02,0,0.039,0.002,0.058,0.002
				c2.081,0,3.769-1.688,3.769-3.769v-8.5h-7.538v6.19c-6.432,1.674-11.18,7.52-11.18,14.476c0,8.261,6.697,14.959,14.959,14.959
				c8.261,0,14.958-6.698,14.958-14.959C105.643,72.466,104.175,70.999,102.366,70.999z"/>
		</g>
		
			<rect x="66.232" y="116.5" transform="matrix(0.9557 0.2944 -0.2944 0.9557 43.4018 -20.7652)" fill="#53AEBA" width="48.884" height="34.559"/>
		<g>
			<path fill="#FFFFFF" d="M90.617,136.111c0.215-1.272,0.129-2.549-0.218-3.747l1.961-0.57c-0.437-1.502-1.218-2.913-2.258-4.076
				l-1.523,1.363c-0.818-0.915-1.842-1.668-3.049-2.169l0.782-1.88l-0.055-0.024c-1.473-0.602-3.021-0.857-4.6-0.761l0.125,2.041
				c-1.271,0.079-2.502,0.438-3.603,1.052l-0.993-1.782c-1.37,0.763-2.569,1.844-3.466,3.122l1.671,1.174
				c-0.357,0.509-0.669,1.061-0.915,1.662c-0.243,0.595-0.407,1.202-0.509,1.811l-2.013-0.335c-0.258,1.54-0.161,3.15,0.279,4.655
				l1.958-0.572c0.354,1.209,0.978,2.33,1.828,3.278l-1.521,1.366c1.057,1.177,2.339,2.082,3.812,2.687l0.773-1.884
				c0.005,0.002,0.01,0.005,0.015,0.007c1.21,0.495,2.467,0.679,3.689,0.605l0.121,2.042c1.558-0.093,3.105-0.543,4.474-1.302
				l-0.99-1.784c1.091-0.605,2.05-1.455,2.792-2.508l1.669,1.177c0.455-0.646,0.839-1.347,1.14-2.083
				c0.292-0.717,0.507-1.465,0.635-2.223L90.617,136.111z M81.016,137.834c-1.725-0.704-2.551-2.674-1.846-4.399
				c0.705-1.726,2.674-2.552,4.399-1.847s2.552,2.674,1.847,4.399C84.711,137.712,82.742,138.539,81.016,137.834z"/>
			<path fill="#FFFFFF" d="M107.649,132.449l1.654,0.36c0.277-1.268,0.266-2.604-0.032-3.864l-1.651,0.391
				c-0.234-0.991-0.683-1.945-1.364-2.789l1.314-1.061l-0.029-0.039c-0.837-1.022-1.864-1.82-3.054-2.375l-0.716,1.539
				c-0.957-0.447-1.998-0.671-3.043-0.66l-0.018-1.691c-1.302,0.014-2.603,0.326-3.762,0.903l0.753,1.517
				c-0.462,0.229-0.908,0.508-1.325,0.849c-0.413,0.338-0.772,0.716-1.087,1.12l-1.335-1.043c-0.798,1.022-1.365,2.233-1.639,3.506
				l1.654,0.358c-0.221,1.021-0.208,2.085,0.036,3.113l-1.65,0.394c0.305,1.276,0.882,2.441,1.716,3.466l1.31-1.067
				c0.003,0.004,0.005,0.008,0.007,0.011c0.687,0.839,1.53,1.47,2.451,1.902l-0.719,1.535c1.172,0.55,2.478,0.833,3.777,0.821
				l-0.017-1.691c1.035-0.009,2.07-0.25,3.029-0.724l0.75,1.518c0.587-0.289,1.145-0.648,1.655-1.067
				c0.498-0.406,0.949-0.867,1.343-1.369l-1.332-1.046C106.985,134.424,107.429,133.458,107.649,132.449z M102.583,133.117
				c-1.196,0.979-2.96,0.803-3.938-0.394c-0.979-1.196-0.802-2.959,0.395-3.939c1.196-0.979,2.959-0.801,3.938,0.395
				C103.956,130.375,103.779,132.139,102.583,133.117z"/>
		</g>
		<polygon opacity="0.1" points="119.12,124.462 108.946,157.488 62.228,143.097 		"/>
		
			<line fill="none" stroke="#0E4576" stroke-linecap="round" stroke-linejoin="round" stroke-miterlimit="10" x1="90.685" y1="82.68" x2="69.282" y2="145.27"/>
	</g>
	<g clip-path="url(#SVGID_2_)">
		<path fill="#FF671B" stroke="#FAAF3B" stroke-miterlimit="10" d="M202.658,94.214h-74.334c-2.209,0-4,1.791-4,4v15
			c0,2.209,1.791,4,4,4h56.663l12.081,10.462v-10.462h5.59c2.209,0,4-1.791,4-4v-15C206.658,96.005,204.867,94.214,202.658,94.214z"
			/>
		<g>
			<path fill="#F1F1F1" d="M131.89,101.797h1.044v5.409c0,2.146-1.056,2.806-2.447,2.806c-0.384,0-0.852-0.084-1.115-0.192
				l0.156-0.852c0.216,0.084,0.527,0.156,0.875,0.156c0.936,0,1.487-0.42,1.487-2.003V101.797z"/>
			<path fill="#F1F1F1" d="M135.982,107.338l-0.84,2.542h-1.079l2.746-8.083h1.26l2.759,8.083h-1.115l-0.864-2.542H135.982z
				 M138.633,106.522l-0.791-2.327c-0.181-0.527-0.3-1.007-0.42-1.475h-0.024c-0.12,0.48-0.252,0.972-0.407,1.463l-0.792,2.338
				H138.633z"/>
			<path fill="#F1F1F1" d="M143.158,109.88l-2.639-8.083h1.128l1.259,3.982c0.348,1.091,0.647,2.075,0.863,3.022h0.024
				c0.228-0.935,0.563-1.955,0.924-3.01l1.367-3.994h1.115l-2.891,8.083H143.158z"/>
			<path fill="#F1F1F1" d="M148.703,107.338l-0.84,2.542h-1.079l2.746-8.083h1.26l2.759,8.083h-1.115l-0.864-2.542H148.703z
				 M151.354,106.522l-0.791-2.327c-0.181-0.527-0.3-1.007-0.42-1.475h-0.024c-0.12,0.48-0.252,0.972-0.407,1.463l-0.792,2.338
				H151.354z"/>
			<path fill="#F1F1F1" d="M157.139,108.609c0.468,0.288,1.151,0.528,1.871,0.528c1.067,0,1.691-0.563,1.691-1.379
				c0-0.755-0.433-1.187-1.523-1.607c-1.319-0.468-2.135-1.151-2.135-2.291c0-1.259,1.043-2.195,2.614-2.195
				c0.827,0,1.428,0.192,1.787,0.396l-0.288,0.852c-0.264-0.144-0.804-0.384-1.535-0.384c-1.104,0-1.523,0.66-1.523,1.211
				c0,0.755,0.492,1.127,1.607,1.559c1.367,0.528,2.063,1.188,2.063,2.375c0,1.248-0.924,2.327-2.831,2.327
				c-0.779,0-1.631-0.228-2.063-0.516L157.139,108.609z"/>
			<path fill="#F1F1F1" d="M168.848,109.617c-0.384,0.192-1.151,0.384-2.135,0.384c-2.279,0-3.994-1.439-3.994-4.09
				c0-2.531,1.715-4.246,4.222-4.246c1.008,0,1.644,0.216,1.919,0.36l-0.252,0.852c-0.396-0.192-0.959-0.336-1.631-0.336
				c-1.895,0-3.154,1.211-3.154,3.334c0,1.979,1.14,3.25,3.106,3.25c0.636,0,1.283-0.132,1.703-0.336L168.848,109.617z"/>
			<path fill="#F1F1F1" d="M170.159,101.905c0.528-0.108,1.283-0.168,2.003-0.168c1.115,0,1.835,0.204,2.339,0.66
				c0.408,0.36,0.636,0.912,0.636,1.535c0,1.067-0.672,1.775-1.523,2.063v0.036c0.624,0.216,0.996,0.792,1.188,1.631
				c0.264,1.127,0.456,1.907,0.624,2.219h-1.079c-0.133-0.228-0.313-0.923-0.54-1.931c-0.24-1.115-0.672-1.535-1.619-1.571h-0.983
				v3.502h-1.044V101.905z M171.203,105.587h1.067c1.115,0,1.823-0.612,1.823-1.535c0-1.043-0.756-1.5-1.859-1.511
				c-0.504,0-0.863,0.048-1.031,0.096V105.587z"/>
			<path fill="#F1F1F1" d="M177.658,101.797v8.083h-1.044v-8.083H177.658z"/>
			<path fill="#F1F1F1" d="M179.483,101.893c0.504-0.084,1.164-0.156,2.003-0.156c1.032,0,1.787,0.24,2.268,0.672
				c0.443,0.384,0.707,0.971,0.707,1.691c0,0.731-0.216,1.307-0.624,1.727c-0.551,0.587-1.451,0.888-2.47,0.888
				c-0.313,0-0.601-0.012-0.84-0.072v3.238h-1.044V101.893z M180.527,105.791c0.228,0.06,0.516,0.084,0.863,0.084
				c1.26,0,2.027-0.612,2.027-1.727c0-1.067-0.756-1.583-1.907-1.583c-0.456,0-0.804,0.036-0.983,0.084V105.791z"/>
			<path fill="#F1F1F1" d="M187.401,102.684h-2.458v-0.887h5.984v0.887h-2.471v7.196h-1.056V102.684z"/>
		</g>
	</g>
	<g clip-path="url(#SVGID_2_)">
		<path fill="#FF671B" stroke="#FAAF3B" stroke-width="1.4007" stroke-miterlimit="10" d="M119.031,169.138l49.812-3.583
			c1.417,0,2.568-1.604,2.568-3.583l-2.867-14.565c0-1.978-1.15-3.582-2.568-3.582l-33.506,1.13l-7.756-9.37v9.37h-3.588
			c-1.416,0-2.568,1.606-2.568,3.583l-2.094,17.017C116.464,167.534,117.614,169.138,119.031,169.138z"/>
		<g>
			<path fill="#F1F1F1" d="M136.852,160.946c-0.595,0.297-1.784,0.595-3.308,0.595c-3.531,0-6.189-2.23-6.189-6.338
				c0-3.921,2.658-6.579,6.542-6.579c1.561,0,2.546,0.334,2.974,0.558l-0.39,1.32c-0.613-0.298-1.487-0.521-2.528-0.521
				c-2.936,0-4.888,1.877-4.888,5.167c0,3.066,1.766,5.037,4.813,5.037c0.985,0,1.989-0.205,2.639-0.521L136.852,160.946z"/>
			<path fill="#F1F1F1" d="M143.603,151.467v4.367h4.2v1.115h-4.2v4.405h-1.189v-4.405h-4.2v-1.115h4.2v-4.367H143.603z"/>
			<path fill="#F1F1F1" d="M154.683,151.467v4.367h4.2v1.115h-4.2v4.405h-1.189v-4.405h-4.201v-1.115h4.201v-4.367H154.683z"/>
		</g>
	</g>
	<g clip-path="url(#SVGID_2_)">
		<path fill="#FF671B" stroke="#FAAF3B" stroke-miterlimit="10" d="M69.56,96.368l-37.474,5.084c-1.02,0-1.847-1.24-1.847-2.77
			l-0.923-14.599c0-1.529,0.827-2.77,1.847-2.77l30.241-0.869l5.576-7.243v7.243l5.623-0.327c1.02,0,1.846,1.24,1.846,2.77
			l-2.455,10.699C71.993,95.116,70.579,96.368,69.56,96.368z"/>
		<g>
			<path fill="#F1F1F1" d="M36.394,85.069c0.595-0.099,1.373-0.184,2.365-0.184c1.217,0,2.109,0.283,2.676,0.793
				c0.523,0.453,0.836,1.147,0.836,1.997c0,0.864-0.256,1.543-0.736,2.039c-0.652,0.694-1.714,1.048-2.918,1.048
				c-0.367,0-0.707-0.014-0.99-0.085V94.5h-1.232V85.069z M37.626,89.671c0.269,0.071,0.608,0.099,1.02,0.099
				c1.486,0,2.393-0.722,2.393-2.039c0-1.26-0.893-1.869-2.252-1.869c-0.537,0-0.948,0.042-1.16,0.099V89.671z"/>
			<path fill="#F1F1F1" d="M45.159,84.956v3.993h4.617v-3.993h1.246V94.5h-1.246v-4.475h-4.617V94.5h-1.231v-9.544H45.159z"/>
			<path fill="#F1F1F1" d="M53.161,85.069c0.595-0.099,1.373-0.184,2.365-0.184c1.217,0,2.109,0.283,2.676,0.793
				c0.523,0.453,0.836,1.147,0.836,1.997c0,0.864-0.256,1.543-0.736,2.039c-0.652,0.694-1.714,1.048-2.918,1.048
				c-0.367,0-0.707-0.014-0.99-0.085V94.5h-1.232V85.069z M54.394,89.671c0.269,0.071,0.608,0.099,1.02,0.099
				c1.486,0,2.393-0.722,2.393-2.039c0-1.26-0.893-1.869-2.252-1.869c-0.537,0-0.948,0.042-1.16,0.099V89.671z"/>
		</g>
	</g>
	<path opacity="0.5" clip-path="url(#SVGID_2_)" fill="none" stroke="#FFFFFF" stroke-miterlimit="10" d="M155.393,49.067h-2.418
		c-0.129-0.582-0.273-1.157-0.451-1.719l2.082-1.207c0.957-0.554,1.283-1.777,0.729-2.733l-2.502-4.318
		c-0.555-0.955-1.779-1.281-2.734-0.728l-2.103,1.219c-0.402-0.436-0.823-0.854-1.262-1.254l1.208-2.109
		c0.549-0.959,0.217-2.182-0.742-2.73l-4.332-2.479c-0.958-0.549-2.181-0.217-2.729,0.742l-1.194,2.086
		c-0.527-0.162-1.068-0.293-1.613-0.414v-2.418c0-1.105-0.896-2-2-2h-4.991c-1.104,0-2,0.895-2,2v2.418
		c-0.581,0.129-1.157,0.272-1.719,0.449l-1.207-2.082c-0.554-0.955-1.777-1.281-2.733-0.727l-4.318,2.502
		c-0.955,0.555-1.281,1.777-0.728,2.733l1.219,2.104c-0.436,0.402-0.853,0.822-1.253,1.261l-2.111-1.208
		c-0.958-0.549-2.181-0.217-2.729,0.742l-2.479,4.332c-0.549,0.959-0.217,2.181,0.742,2.729l2.086,1.195
		c-0.163,0.527-0.293,1.068-0.414,1.613h-2.419c-1.104,0-2,0.896-2,2v4.992c0,1.104,0.896,2,2,2h2.419
		c0.129,0.58,0.272,1.156,0.45,1.719l-2.082,1.207c-0.956,0.553-1.282,1.777-0.728,2.732l2.502,4.318
		c0.555,0.957,1.778,1.281,2.733,0.729l2.104-1.219c0.402,0.436,0.822,0.852,1.261,1.252l-1.208,2.111
		c-0.549,0.959-0.217,2.181,0.742,2.729l4.332,2.48c0.959,0.549,2.181,0.215,2.729-0.742l1.194-2.088
		c0.527,0.164,1.068,0.295,1.613,0.416v2.418c0,1.104,0.896,2,2,2h4.991c1.104,0,2-0.896,2-2v-2.418
		c0.581-0.131,1.157-0.273,1.72-0.451l1.206,2.082c0.555,0.955,1.778,1.281,2.733,0.729l4.319-2.504
		c0.956-0.553,1.28-1.776,0.728-2.733l-1.22-2.104c0.437-0.402,0.853-0.822,1.253-1.262l2.111,1.209
		c0.959,0.549,2.182,0.217,2.73-0.742l2.479-4.332c0.549-0.959,0.217-2.182-0.742-2.73l-2.088-1.193
		c0.164-0.527,0.295-1.068,0.416-1.613h2.418c1.105,0,2-0.896,2-2v-4.992C157.393,49.963,156.498,49.067,155.393,49.067z
		 M132.834,67.383c-7.634,0-13.82-6.188-13.82-13.82c0-7.632,6.187-13.82,13.82-13.82c7.633,0,13.819,6.188,13.819,13.82
		C146.654,61.196,140.467,67.383,132.834,67.383z"/>
	<path opacity="0.5" clip-path="url(#SVGID_2_)" fill="#FF8558" d="M61.421,142.373v-6.748h-3.393
		c-0.224-0.744-0.52-1.459-0.881-2.132l2.397-2.397l-4.773-4.773l-2.397,2.397c-0.674-0.36-1.387-0.655-2.132-0.88v-3.393h-6.749
		v3.393c-0.745,0.225-1.458,0.52-2.132,0.88l-2.397-2.397l-4.773,4.773l2.397,2.397c-0.361,0.673-0.657,1.388-0.881,2.132h-3.393
		v6.748h3.393c0.224,0.745,0.52,1.46,0.881,2.133l-2.397,2.397l4.773,4.772l2.397-2.396c0.674,0.36,1.387,0.655,2.132,0.88v3.393
		h6.749v-3.393c0.745-0.225,1.458-0.52,2.132-0.88l2.397,2.396l4.773-4.772l-2.397-2.397c0.361-0.673,0.657-1.388,0.881-2.133
		H61.421z M46.869,145.598c-3.645,0-6.599-2.954-6.599-6.598c0-3.645,2.954-6.599,6.599-6.599s6.599,2.954,6.599,6.599
		C53.467,142.644,50.513,145.598,46.869,145.598z"/>
</g>
</svg>
