<?xml version="1.0" encoding="utf-8"?>
<!-- Generator: Adobe Illustrator 22.1.0, SVG Export Plug-In . SVG Version: 6.00 Build 0)  -->
<svg version="1.1" id="Layer_1" xmlns="http://www.w3.org/2000/svg" xmlns:xlink="http://www.w3.org/1999/xlink" x="0px" y="0px"
	 viewBox="0 0 58.9 58.9" style="enable-background:new 0 0 58.9 58.9;" xml:space="preserve">
<style type="text/css">
	.st0{fill:url(#SVGID_1_);}
	.st1{fill:#FFFFFF;}
</style>
<g>
	
		<linearGradient id="SVGID_1_" gradientUnits="userSpaceOnUse" x1="-152.5695" y1="-440.2874" x2="-152.5695" y2="-497.7149" gradientTransform="matrix(1 0 0 -1 182.0195 -439.3477)">
		<stop  offset="0" style="stop-color:#7BBF40"/>
		<stop  offset="1" style="stop-color:#47A537"/>
	</linearGradient>
	<path class="st0" d="M58.9,50c0,4.9-4,8.8-8.8,8.8H8.8C4,58.9,0,54.9,0,50V8.8C0,4,4,0,8.8,0H50c4.9,0,8.8,4,8.8,8.8V50H58.9z"/>
</g>
<g>
</g>
<g>
	<rect x="18.6" y="16.6" class="st1" width="2.1" height="6.8"/>
	<path class="st1" d="M44.8,10.8H13.6c-1.1,0-1.9,0.9-1.9,2.1v33.9c0,1.2,0.9,2.1,1.9,2.1h31.2c1.1,0,1.9-0.9,1.9-2.1V12.9
		C46.8,11.8,45.9,10.8,44.8,10.8z M29.6,36.9c-2.6,0-4.7-2.1-4.7-4.7c0-2.6,2.1-4.7,4.7-4.7c2.6,0,4.7,2.1,4.7,4.7
		C34.3,34.8,32.2,36.9,29.6,36.9z M42.2,23.5c0,1.1-0.9,1.9-1.9,1.9H18.2c-1.1,0-1.9-0.9-1.9-1.9v-7.1c0-1.1,0.9-1.9,1.9-1.9h22.1
		c1.1,0,1.9,0.9,1.9,1.9L42.2,23.5L42.2,23.5z"/>
	<circle class="st1" cx="29.6" cy="32.2" r="2"/>
</g>
</svg>
