<?xml version="1.0" encoding="utf-8"?>
<!-- Generator: Adobe Illustrator 16.0.0, SVG Export Plug-In . SVG Version: 6.00 Build 0)  -->
<!DOCTYPE svg PUBLIC "-//W3C//DTD SVG 1.1//EN" "http://www.w3.org/Graphics/SVG/1.1/DTD/svg11.dtd">
<svg version="1.1" id="Isolation_Mode" xmlns="http://www.w3.org/2000/svg" xmlns:xlink="http://www.w3.org/1999/xlink" x="0px"
	 y="0px" width="800px" height="800px" viewBox="0 0 800 800" enable-background="new 0 0 800 800" xml:space="preserve">
<g>
	<g>
		<g>
			<path fill="#A03333" d="M434.357,680.524c8.844,1.897,7.729-13.396,2.859-12.972c-3.156-0.561-6.77,2.033-7.48,5.101
				C428.92,676.179,430.678,679.734,434.357,680.524z M432.038,671.552c1.362-1.892,3.08-2.262,5.067-2.697
				c2.381,1.163,2.894,3.845,2.221,6.385c-0.682,2.573-3.396,4.894-6.06,2.992C431.129,676.706,430.449,673.76,432.038,671.552z"/>
			<path fill="#D6514D" d="M433.267,678.231c2.663,1.901,5.378-0.419,6.06-2.992c0.673-2.54,0.16-5.222-2.221-6.385
				c-1.987,0.436-3.705,0.806-5.067,2.697C430.449,673.76,431.129,676.706,433.267,678.231z"/>
			<path fill="#FFE6F2" d="M431.043,672.509c0.26-1.964,1.845-3.486,3.791-3.755c0.416-0.058,0.88,0.102,0.981,0.567
				c0.253,1.159,0.182,2.301-0.232,3.414c-0.293,0.786-0.882,1.805-1.713,2.167c-0.608,0.477-1.495,0.531-2.12,0.066
				C430.994,674.408,430.93,673.368,431.043,672.509z"/>
		</g>
		<g>
			<path fill="#A03333" d="M439.337,603.762c8.843,1.897,7.729-13.396,2.858-12.972c-3.156-0.561-6.77,2.033-7.479,5.101
				C433.899,599.416,435.656,602.972,439.337,603.762z M437.017,594.789c1.362-1.892,3.081-2.262,5.067-2.697
				c2.382,1.163,2.895,3.845,2.222,6.385c-0.682,2.573-3.397,4.894-6.061,2.992C436.107,599.943,435.428,596.997,437.017,594.789z"
				/>
			<path fill="#D6514D" d="M438.245,601.469c2.663,1.901,5.379-0.419,6.061-2.992c0.673-2.54,0.16-5.222-2.222-6.385
				c-1.986,0.436-3.705,0.806-5.067,2.697C435.428,596.997,436.107,599.943,438.245,601.469z"/>
			<path fill="#FFE6F2" d="M436.021,595.746c0.26-1.964,1.846-3.486,3.791-3.755c0.416-0.058,0.88,0.102,0.981,0.567
				c0.253,1.159,0.182,2.301-0.232,3.414c-0.292,0.786-0.882,1.805-1.713,2.168c-0.607,0.476-1.494,0.53-2.119,0.065
				C435.974,597.646,435.908,596.605,436.021,595.746z"/>
		</g>
		<g>
			<path fill="#FFAA00" d="M440.081,588.371c8.844,1.896,7.729-13.397,2.859-12.973c-3.156-0.56-6.77,2.034-7.48,5.102
				C434.644,584.025,436.401,587.581,440.081,588.371z M437.762,579.398c1.362-1.892,3.08-2.262,5.067-2.697
				c2.382,1.163,2.894,3.845,2.221,6.384c-0.682,2.574-3.396,4.895-6.06,2.993C436.853,584.552,436.173,581.605,437.762,579.398z"/>
			<path fill="#D66D38" d="M438.99,586.078c2.663,1.901,5.378-0.419,6.06-2.993c0.673-2.539,0.161-5.221-2.221-6.384
				c-1.987,0.436-3.705,0.806-5.067,2.697C436.173,581.605,436.853,584.552,438.99,586.078z"/>
			<path fill="#FFE6F2" d="M436.767,580.355c0.26-1.964,1.845-3.487,3.791-3.755c0.416-0.058,0.88,0.101,0.981,0.566
				c0.253,1.159,0.182,2.301-0.232,3.415c-0.293,0.785-0.883,1.804-1.713,2.167c-0.608,0.477-1.495,0.53-2.12,0.066
				C436.718,582.254,436.653,581.214,436.767,580.355z"/>
		</g>
	</g>
	<g>
		<g>
			<path fill="#F1CA13" d="M534.655,691.793c15.9,0.038,31.8-0.163,47.695-0.556c16.272-0.401,32.764-2.058,49.03-1.705
				c-0.323-7.378,0.211-14.874,0.288-22.251c0.088-8.525,0.177-17.05,0.265-25.574c0.177-17.026-0.04-34.147,0.847-51.149
				c0.005-0.077,0.041-0.128,0.081-0.174c-0.331-4.009-0.078-8.136-0.172-12.111c-0.131-5.563-0.601-11.292-0.024-16.845
				c-30.777,0.968-61.585,1.057-92.374,1.293c-31.216,0.24-62.457,0.854-93.674,0.533c-0.573,0.633-0.893,1.447-1.104,2.26
				c-0.096,0.366-0.115,0.76-0.118,1.16c-0.002,0.141,0,0.281-0.001,0.422c0.003,0.322,0.005,0.643-0.021,0.953
				c-0.146,8.53-0.902,17.097-1.388,25.583c-0.646,11.313-1.266,22.627-1.914,33.939c-0.648,11.313-1.301,22.627-1.965,33.939
				c-0.532,9.054-0.519,18.389-1.495,27.461C470.627,690.454,502.597,691.718,534.655,691.793z"/>
			<path fill="#808080" d="M436.121,693.454c0.037,1.036,1.718,1.367,1.888,0.256c0.113-0.736,0.199-1.48,0.295-2.222
				c32.038,2.102,64.253,2.725,96.352,2.727c16.563,0.001,33.126-0.211,49.682-0.687c15.608-0.448,31.733-0.188,47.234-2.207
				c0.398,0.692,1.592,0.548,1.664-0.434c0.623-8.451,0.09-17.096,0.127-25.574c0.038-8.524,0.075-17.049,0.112-25.574
				c0.066-15.129,0.437-30.33,0.011-45.461c0.158,0.101,0.421,0.052,0.458-0.161c1.013-5.778,0.25-11.961,0.283-17.816
				c0.03-5.26,0.239-10.681-0.553-15.891c-0.043-0.284-0.256-0.371-0.467-0.329c-0.007-0.019-0.016-0.04-0.021-0.058
				c-31.622-0.534-63.263-0.138-94.886,0.09c-30.619,0.221-61.27,0.078-91.88,0.852c-0.216,0.031-0.429,0.071-0.631,0.134
				c-0.592,0.186-1.016,0.652-1.367,1.199c-0.029,0.075-0.061,0.15-0.087,0.225c-0.098,0.283-0.18,0.556-0.279,0.809
				c-1.302,10.016-1.548,20.231-2.155,30.299c-0.683,11.313-1.391,22.626-2.07,33.939c-0.681,11.313-1.356,22.626-2.021,33.939
				C437.19,672.048,435.75,682.908,436.121,693.454z M438.611,688.972c0.977-9.072,0.963-18.407,1.495-27.461
				c0.664-11.313,1.316-22.626,1.965-33.939c0.648-11.313,1.269-22.627,1.914-33.939c0.485-8.486,1.242-17.054,1.388-25.583
				c0.025-0.31,0.023-0.631,0.021-0.953c0.001-0.141-0.001-0.281,0.001-0.422c0.003-0.4,0.022-0.794,0.118-1.16
				c0.212-0.813,0.531-1.627,1.104-2.26c31.217,0.321,62.458-0.293,93.674-0.533c30.789-0.236,61.597-0.325,92.374-1.293
				c-0.576,5.553-0.106,11.281,0.024,16.845c0.094,3.976-0.159,8.103,0.172,12.111c-0.04,0.046-0.076,0.097-0.081,0.174
				c-0.887,17.002-0.67,34.123-0.847,51.149c-0.088,8.524-0.177,17.049-0.265,25.574c-0.077,7.377-0.611,14.873-0.288,22.251
				c-16.267-0.353-32.758,1.304-49.03,1.705c-15.896,0.393-31.795,0.594-47.695,0.556
				C502.597,691.718,470.627,690.454,438.611,688.972z"/>
		</g>
		<g>
			<g>
				<path fill="#666666" d="M533.764,687.588c31.954,0.693,63.935,2.001,95.792,4.643c-0.086-0.144-0.148-0.309-0.139-0.522
					c0.701-15.629,0.698-31.426,2.086-47.01c-31.532,1.113-63.202,0.518-94.749,0.527c-31.599,0.011-63.201,0.098-94.798-0.122
					c0.284,6.976-0.529,14.095-0.895,21.061c-0.38,7.254-0.484,14.585-1.134,21.823C471.14,686.645,502.541,686.91,533.764,687.588z
					"/>
				<path fill="#666666" d="M446.47,572.592c61.67-1.021,123.368-2.196,185.047-2.359c0.771-0.868,0.412-4.158,0.417-4.965
					c0.006-0.9-0.103-1.839,0.091-2.697c-30.46,0.874-60.963,1.008-91.433,1.377c-31.207,0.378-62.544,1.61-93.746,1.007
					c-0.019,0-0.03-0.009-0.048-0.01c-0.086,1.007-0.262,2.018-0.34,3.018C446.337,569.505,446.363,571.051,446.47,572.592z"/>
			</g>
			<path opacity="0.5" fill="#808080" d="M533.87,687.088c-31.258-0.678-62.695-0.943-93.942,0.399
				c0.327-3.646,0.517-7.314,0.672-10.985c2.1,3.255,6.112,4.815,10.284,4.675c5.006-0.169,9.74-3.506,13.679-6.279
				c6.722-4.733,12.615-9.265,21.049-10.101c8.49-0.842,16.905,3.037,24.465,6.343c9.659,4.225,19.454,7.006,29.873,8.605
				c19.369,2.974,41.277,4.353,60.236-1.319c15.949-4.772,29.167-17.635,31.232-34.219c0.102-0.003,0.202-0.005,0.304-0.009
				c-1.39,15.584-1.387,31.381-2.088,47.01c-0.01,0.214,0.052,0.379,0.139,0.522C597.879,689.089,565.862,687.781,533.87,687.088z"
				/>
			<path opacity="0.5" fill="#808080" d="M461.946,686.889c3.974-10.764,15.562-19.351,26.935-19.921
				c6.192-0.311,12.251,2.287,17.235,5.733c4.066,2.812,9.46,7.831,10.254,12.926c0.016,0.104-0.088,0.223-0.195,0.149
				c-0.683-0.46-1.315-0.997-1.93-1.563c-0.151,0.372-0.658,0.507-0.944,0.09c-5.36-7.818-14.28-12.159-23.756-12.613
				c-4.963-0.237-9.289,1.719-13.006,4.847c-3.531,2.972-5.343,7.484-8.908,10.298c-0.779,0.614-2.069,0.079-1.763-1.026
				c0.017-0.059,0.04-0.113,0.057-0.171c-0.67,0.808-1.359,1.599-2.111,2.339C463.061,688.718,461.544,687.979,461.946,686.889z"/>
			<path opacity="0.5" fill="#808080" d="M631.517,570.232c-61.679,0.164-123.377,1.339-185.047,2.359
				c-0.106-1.541-0.133-3.087-0.012-4.63c0.078-1,0.254-2.011,0.34-3.018c0.018,0.001,0.029,0.01,0.048,0.01
				c0.477,0.009,0.954,0.009,1.432,0.018c-0.007,0.313-0.013,0.625-0.021,0.937c0.193,0.405,0.465,0.803,0.757,1.177
				c3.965,2,8.704,2.125,13.288,2.126c7.936,0.002,15.873-0.077,23.809-0.115c16.534-0.078,33.068-0.156,49.602-0.233l47.618-0.225
				c7.937-0.037,15.873-0.067,23.809-0.087c7.379-0.018,21.226,2.491,24.878-5.982c0.003,0,0.006,0,0.009,0
				c-0.193,0.858-0.085,1.797-0.091,2.697C631.929,566.074,632.288,569.364,631.517,570.232z"/>
			<g>
				<path fill="#5A5A5A" d="M437.943,689.642c0.069,0.863,1.053,1.009,1.557,0.504c32.099-0.408,64.136-0.977,96.24-0.345
					c31.646,0.623,63.238,2.238,94.836,4.01c0.798,0.045,0.917-0.928,0.414-1.328c0.237-0.157,0.416-0.408,0.427-0.774
					c0.475-15.735,1.681-31.589,1.439-47.329c0-0.016-0.007-0.025-0.008-0.04c0.156-0.345-0.009-0.835-0.512-0.853
					c-31.81-1.108-63.758-0.451-95.583-0.416c-31.861,0.035-63.725-0.01-95.583,0.264c-0.86,0.007-1.068,1.004-0.629,1.496
					c-1.048,7.011-1.008,14.263-1.393,21.334c-0.406,7.457-1.113,14.966-1.208,22.437
					C437.775,688.929,437.775,689.323,437.943,689.642z M439.928,687.987c0.649-7.238,0.754-14.569,1.134-21.823
					c0.365-6.966,1.179-14.085,0.895-21.061c31.597,0.22,63.199,0.133,94.798,0.122c31.547-0.01,63.217,0.586,94.749-0.527
					c-1.388,15.584-1.385,31.381-2.086,47.01c-0.01,0.214,0.053,0.379,0.139,0.522c-31.857-2.642-63.838-3.949-95.792-4.643
					C502.541,686.91,471.14,686.645,439.928,687.987z"/>
				<path fill="#5A5A5A" d="M445.043,573.555c0.011,0.238,0.114,0.417,0.26,0.537c0.143,0.313,0.428,0.557,0.881,0.552
					c61.988-0.678,124.012-1.197,185.985-2.742c0.564-0.014,0.825-0.473,0.798-0.907c0.292-0.573,0.309-1.411,0.247-2.101
					c-0.131-1.449-0.101-2.898-0.142-4.352c-0.023-0.86,0.046-1.624-0.218-2.358c0.105-0.326-0.063-0.745-0.512-0.747
					c-31.241-0.151-62.507,0.471-93.746,0.843c-22.753,0.271-45.586,0.094-68.368,0.528c-7.519-1.152-15.839-0.427-23.313-0.072
					c-0.139,0.007-0.251,0.05-0.35,0.109c-0.028,0.014-0.06,0.026-0.085,0.045c-0.114-0.013-0.23,0.02-0.305,0.154
					C444.576,565.956,444.893,570.347,445.043,573.555z M446.458,567.962c0.078-1,0.254-2.011,0.34-3.018
					c0.018,0.001,0.029,0.01,0.048,0.01c31.202,0.603,62.539-0.628,93.746-1.007c30.47-0.37,60.973-0.503,91.433-1.377
					c-0.193,0.858-0.085,1.797-0.091,2.697c-0.005,0.807,0.354,4.097-0.417,4.965c-61.679,0.164-123.377,1.339-185.047,2.359
					C446.363,571.051,446.337,569.505,446.458,567.962z"/>
			</g>
		</g>
	</g>
	<g>
		<g>
			<path fill="#FFFFFF" d="M667.301,579.188c-2.913-3.31-6.324-6.179-9.896-8.744c-6.531-4.69-14.108-7.719-21.962-9.298
				c0.01,5.623,0.043,11.677-0.521,17.396c0.063,2.751,0.129,5.503,0.168,8.256c0.266-0.146,0.55-0.24,0.846-0.302
				c0.352-0.106,0.72-0.178,1.035-0.264c0.694-0.188,1.485-0.425,2.245-0.438c4.726-1.665,10.586-1.535,15.376-1.7
				c5.563-0.192,11.669,0.043,17.182,1.414c0.009-0.013,0.022-0.021,0.03-0.034c0.059-0.101,0.113-0.219,0.166-0.336
				C670.327,583.246,668.94,581.051,667.301,579.188z"/>
			<path fill="#FFFFFF" d="M634.012,685.281c0.281,2.603,6.66,0.611,8.897,1.671c5.617-24.161,44.855-24.674,53.137-2.085
				c10.022,1.402,18.761,1.117,28.7-0.685c-0.577-3.914-0.211-8.001-0.579-11.961c-0.477-5.116-1.781-10.004-3.166-14.908
				c-0.677-0.388-1.232-1.214-1.776-1.704c-1.666-0.644-3.287-1.412-4.908-2.157c-1.998-0.919-4.584-1.556-5.947-3.334
				c-0.07-0.091-0.098-0.188-0.097-0.284c-6.37-9.962-11.192-21.133-16.936-31.477c-5.555-10.005-11.683-19.703-17.225-29.707
				c-0.266-0.224-0.521-0.47-0.801-0.646c-0.301-0.19-0.584-0.401-0.866-0.613c-5.317-0.248-10.594-1.038-15.939-1.117
				c-5.42-0.08-11.18,1.228-16.604,1.103c-0.395,0.033-0.791,0.063-1.188,0.105c-1.03,0.11-2.373,0.456-3.438,0.246
				c-0.058-0.004-0.114,0.011-0.173,0c0.02,1.622,0.03,3.243,0.021,4.865c-0.063,10.568-0.18,21.136-0.233,31.704
				s-0.188,21.137-0.311,31.704c-0.11,9.447,0.403,19.374-0.819,28.771C633.892,684.896,633.989,685.065,634.012,685.281z"/>
		</g>
		<g>
			<path fill="#CCCCCC" d="M634.282,679.219c0.027,0.002,0.056-0.004,0.083,0c0.005-0.303,0.113-0.59,0.29-0.829
				c-0.101-0.115-0.192-0.24-0.292-0.356c0.407-7.324,0.134-14.816,0.218-22.031c0.123-10.567,0.257-21.136,0.311-31.704
				c0.01-1.896,0.027-3.79,0.041-5.686c0.069-0.593,0.137-1.186,0.218-1.777c-0.063,0.044-0.133,0.079-0.206,0.107
				c0.059-8.116,0.133-16.232,0.181-24.349c0.009-1.622-0.002-3.243-0.021-4.865c0.059,0.011,0.115-0.004,0.173,0
				c1.064,0.21,2.407-0.136,3.438-0.246c0.396-0.043,0.793-0.072,1.188-0.105c4.637,0.107,9.518-0.827,14.224-1.053
				c-0.03,0.031-0.055,0.069-0.085,0.1c0.099-0.042,0.2-0.073,0.299-0.113c0.728-0.031,1.45-0.047,2.167-0.036
				c3.163,0.047,6.302,0.342,9.438,0.627c-0.08,0.104-0.201,0.183-0.371,0.196c-8.454,0.725-14.885,2.954-20.233,9.898
				c-4.555,5.913-6.362,13.636-7.31,20.883c-0.986,7.552-0.848,15.278-1.035,22.879c-0.156,6.299,0.556,13.578-0.543,19.986
				c0.189,3.001,0.498,5.977,1.146,8.891c2.685-0.017,5.369-0.038,8.053-0.047c2.211-0.007,4.665-0.366,6.738,0.445
				c0.038-0.022,0.074-0.05,0.112-0.073c0.292-0.193,0.565-0.373,0.815-0.534c0.037-0.024,0.077-0.045,0.114-0.068
				c0.42-0.551,0.937-1.051,1.373-1.531c1.037-1.671,2.481-3.143,3.912-4.388c0.913-0.795,2.07-1.411,3.266-2.001
				c1.256-0.964,2.667-1.829,4.088-2.259c0.27-0.199,0.52-0.413,0.756-0.638c0.414-0.557,0.75-1.208,0.957-1.707
				c0.495-1.194,0.021-2.439,0.377-3.634c0.052-0.173,0.254-0.263,0.413-0.168c1.323,0.789,1.171,2.589,0.723,3.902
				c0.073,1.973-1.983,3.518-3.827,4.495c-1.555,1.034-3.235,1.971-4.579,3.224c-0.743,0.694-1.427,1.448-2.07,2.234
				c1.633-0.527,3.312-0.919,4.982-1.207c6.554-1.13,13.242,0.332,19.039,3.436c6.663,3.568,21.787,20.578,26.247,4.847
				c0.096-0.337,0.408-0.426,0.664-0.336c0.192-0.299,0.541-0.517,0.912-0.562c0.377-0.045,0.769,0.05,1.139,0.168
				c2.696-0.133,6.55,2.209,8.386,2.949c1.36,0.549,2.983,1.268,4.191,2.135c0.022,1.633,0.072,3.26,0.247,4.864
				c-0.235,0.186-0.49,0.373-0.789,0.564c-0.474,0.303-0.973,0.573-1.482,0.829c-8.967,1.429-17.102,1.581-26.31,0.292
				c-8.028-21.898-45.149-22.084-52.528-0.061c-0.071-0.033-0.143-0.066-0.217-0.096c-0.001,0.002-0.002,0.003-0.002,0.005
				c-0.004-0.002-0.007-0.004-0.01-0.005c-0.305,0.456-0.832,0.732-1.448,0.49c-1.043-0.411-2.023-0.897-2.944-1.464
				c-0.313,0.478-0.872,0.777-1.506,0.558c-0.311-0.108-0.6-0.231-0.882-0.361c-0.302,0.822-1.185,1.376-2.103,0.811
				c-0.215-0.132-0.412-0.278-0.594-0.437C634.021,682.626,634.168,680.928,634.282,679.219z"/>
			<path fill="#CCCCCC" d="M719.225,655.609c0.369,0.333,0.748,0.815,1.162,1.216c-0.053-0.003-0.107-0.014-0.166-0.035
				c-6.611-2.441-12.72-4.688-19.813-5.346c-0.044-0.005-0.08-0.026-0.122-0.036c-0.17,0.008-0.34,0.013-0.509,0.021
				c-2.828,0.151-5.844,0.573-8.593-0.241c-0.414-0.123-0.374-0.66,0-0.799c2.344-0.87,4.907-0.75,7.381-0.8
				c0.433-0.009,0.871-0.026,1.313-0.046c0.08-0.038,0.156-0.079,0.26-0.097c4.179-0.715,4.094-4.076,3.392-7.687
				c1.505,2.749,3.069,5.454,4.744,8.073c-0.001,0.096,0.026,0.193,0.097,0.284c1.363,1.778,3.949,2.415,5.947,3.334
				C715.938,654.197,717.559,654.966,719.225,655.609z"/>
		</g>
		<path fill="#CCCCCC" d="M654.592,584.095c-4.79,0.165-10.65,0.035-15.376,1.7c-0.76,0.014-1.551,0.25-2.245,0.438
			c-0.315,0.086-0.684,0.157-1.035,0.264c-0.296,0.062-0.58,0.155-0.846,0.302c-0.039-2.753-0.105-5.505-0.168-8.256
			c0.564-5.719,0.531-11.773,0.521-17.396c0.241,0.048,0.479,0.111,0.72,0.162c0.969,6.374,2.343,12.668,6.665,17.718
			c3.399,3.972,7.855,4.653,12.46,5.051C655.057,584.084,654.821,584.087,654.592,584.095z"/>
		<path fill="#B3B3B3" d="M632.529,685.137c-0.839,1.579,0.872,3.086,2.472,3.206c1.685,0.128,3.395,0.042,5.083,0.038
			c0.964-0.002,1.899,0.172,2.664-0.194c0.209,0.575,1.047,0.876,1.371,0.188c4.992-10.598,13.205-18.841,25.899-18.36
			c11.673,0.443,18.7,6.467,25.076,15.514c-0.039,0.296,0.095,0.599,0.497,0.701c9.393,2.407,20.316,2.021,29.475-1.234
			c0.098,0.009,0.188-0.029,0.255-0.104c0.21-0.12,0.252-0.345,0.171-0.522c2.192-8.5-0.601-20.537-3.854-28.666
			c-0.393-0.363-0.772-0.74-1.16-1.114c-0.147-0.143-0.31-0.268-0.467-0.397c-1.805-1.029-3.699-1.906-5.566-2.807
			c-1.12-0.54-2.275-1.278-3.482-1.725c-0.742-0.559-1.471-1.14-2.197-1.714c-3.99-10.609-10.158-20.797-15.637-30.635
			c-5.835-10.478-11.764-21.185-18.751-30.944c-0.128-0.179-0.296-0.257-0.467-0.282c-2.089-6.771-10.242-13.263-15.718-16.988
			c-7.018-4.774-14.696-8.021-23.031-9.604c-0.242,0.132-0.476,0.281-0.698,0.449c-0.055,0.271-0.116,0.53-0.158,0.739
			c-0.056,0.272-0.088,0.582-0.121,0.899c0.015,1.621,0,3.241-0.026,4.861c-0.375,3.935-0.577,8.007-0.408,11.888
			c-0.216,4.753-0.445,9.507-0.525,14.266c-0.178,10.567-0.3,21.137-0.486,31.704c-0.186,10.567-0.292,21.136-0.408,31.704
			C632.225,665.558,631.445,675.624,632.529,685.137z M671.97,585.139c-0.053,0.117-0.107,0.235-0.166,0.336
			c-0.008,0.014-0.021,0.021-0.03,0.034c-5.513-1.371-11.619-1.606-17.182-1.414c-4.79,0.165-10.65,0.035-15.376,1.7
			c-0.76,0.014-1.551,0.25-2.245,0.438c-0.315,0.086-0.684,0.157-1.035,0.264c-0.296,0.062-0.58,0.155-0.846,0.302
			c-0.039-2.753-0.105-5.505-0.168-8.256c0.564-5.719,0.531-11.773,0.521-17.396c7.854,1.579,15.431,4.608,21.962,9.298
			c3.571,2.564,6.982,5.434,9.896,8.744C668.94,581.051,670.327,583.246,671.97,585.139z M633.762,684.773
			c1.223-9.397,0.709-19.324,0.819-28.771c0.123-10.567,0.257-21.136,0.311-31.704s0.171-21.136,0.233-31.704
			c0.009-1.622-0.002-3.243-0.021-4.865c0.059,0.011,0.115-0.004,0.173,0c1.064,0.21,2.407-0.136,3.438-0.246
			c0.396-0.043,0.793-0.072,1.188-0.105c5.425,0.125,11.185-1.183,16.604-1.103c5.346,0.079,10.622,0.869,15.939,1.117
			c0.282,0.212,0.565,0.423,0.866,0.613c0.279,0.176,0.535,0.422,0.801,0.646c5.542,10.004,11.67,19.702,17.225,29.707
			c5.743,10.344,10.565,21.515,16.936,31.477c-0.001,0.096,0.026,0.193,0.097,0.284c1.363,1.778,3.949,2.415,5.947,3.334
			c1.621,0.745,3.242,1.514,4.908,2.157c0.544,0.49,1.1,1.316,1.776,1.704c1.385,4.904,2.689,9.792,3.166,14.908
			c0.368,3.96,0.002,8.047,0.579,11.961c-9.939,1.802-18.678,2.087-28.7,0.685c-8.281-22.589-47.52-22.076-53.137,2.085
			c-2.237-1.06-8.616,0.932-8.897-1.671C633.989,685.065,633.892,684.896,633.762,684.773z"/>
	</g>
	<g>
		<g>
			<path fill="#666666" d="M580.638,699.136c11.792,0.028,23.584-0.049,35.373-0.218c12.154-0.175,24.575-1.159,36.703-0.246
				c0.3-0.203,0.575-0.402,0.637-0.511c0.954-1.688,1.221-3.715,1.19-5.612c-0.031-1.985-0.909-3.802-1.891-5.471
				c-0.62-1.055-0.918-1.126-1.08-1.563c-0.146,0.118-0.326,0.21-0.566,0.231c-11.839,1.056-23.99,0.269-35.873,0.317
				c-11.957,0.049-23.916-0.037-35.873-0.083c-11.958-0.047-23.915-0.067-35.873-0.078c-11.053-0.01-23.047,1.276-33.964-0.574
				c-0.904,1.544-2.224,5.79-2.363,6.412c-0.46,2.051-0.219,3.991,0.051,5.974c0.089-0.008,0.176-0.018,0.272-0.016
				C531.811,698.207,556.194,699.075,580.638,699.136z"/>
			<path fill="#5A5A5A" d="M509.421,685.329c0.877,0.148,1.764,0.271,2.653,0.381c3.116,5.07,11.11,4.934,16.492,5.531
				c5.841,0.648,11.7,1.128,17.563,1.538c12.383,0.865,24.801,1.191,37.211,1.319c11.771,0.122,23.542-0.018,35.313-0.152
				c11.361-0.131,22.807,0.678,30.725-8.084c0.542-0.041,1.087-0.066,1.627-0.115c0.24-0.021,0.42-0.113,0.566-0.231
				c0.162,0.437,0.46,0.508,1.08,1.563c0.981,1.669,1.859,3.485,1.891,5.471c0.03,1.897-0.236,3.924-1.19,5.612
				c-0.062,0.108-0.337,0.308-0.637,0.511c-12.128-0.913-24.549,0.071-36.703,0.246c-11.789,0.169-23.581,0.246-35.373,0.218
				c-24.443-0.061-48.827-0.929-73.257-1.437c-0.097-0.002-0.184,0.008-0.272,0.016c-0.27-1.982-0.511-3.923-0.051-5.974
				C507.197,691.119,508.517,686.873,509.421,685.329z"/>
			<path fill="#4D4D4D" d="M510.933,692.193c0.126-0.93,1.403-1.592,2.248-1.276c10.136,3.78,20.815,4.749,31.522,5.569
				c11.191,0.856,22.41,1.307,33.631,1.473s22.445-0.075,33.654-0.601c5.931-0.278,11.859-0.661,17.783-1.047
				c6.388-0.416,13.575-0.293,17.556-6.228c0.4-0.597,1.348-0.417,1.537,0.155c1.494-0.361,3.083,1.736,1.779,3.264
				c-1.771,2.075-3.771,3.638-5.928,4.825c-9.554-0.165-19.21,0.453-28.705,0.59c-11.789,0.169-23.581,0.246-35.373,0.218
				c-22.944-0.057-45.837-0.822-68.764-1.336C511.021,696.19,510.643,694.338,510.933,692.193z"/>
			<path fill="#5A5A5A" d="M505.724,700.227c0.235,0.508,0.894,0.525,1.304,0.242c0.105,0.021,0.214,0.038,0.331,0.045
				c25.174,1.457,50.56,1.633,75.782,1.635c12.635,0,25.27-0.13,37.899-0.397c10.441-0.221,21.1-0.069,31.414-1.524
				c0.381,0.191,0.635,0.194,1.312,0.22c0.347,0.014,0.688-0.199,0.86-0.493c1.629-2.787,2.428-6.254,1.449-9.43
				c-0.588-1.906-1.891-5.419-4.156-5.813c-0.033-0.426-0.331-0.833-0.915-0.886c-11.839-1.066-23.99-0.293-35.873-0.354
				c-11.957-0.062-23.916,0.012-35.873,0.046c-11.958,0.035-23.915,0.043-35.873,0.041c-10.709-0.002-22.297-1.213-32.939,0.384
				c-0.076-0.443-0.736-0.764-1.131-0.376C505.321,687.494,503.291,694.992,505.724,700.227z M507.381,697.699
				c-0.097-0.002-0.184,0.008-0.272,0.016c-0.27-1.982-0.511-3.923-0.051-5.974c0.14-0.622,1.459-4.868,2.363-6.412
				c10.917,1.851,22.911,0.564,33.964,0.574c11.958,0.011,23.915,0.031,35.873,0.078c11.957,0.046,23.916,0.132,35.873,0.083
				c11.883-0.049,24.034,0.738,35.873-0.317c0.24-0.021,0.42-0.113,0.566-0.231c0.162,0.437,0.46,0.508,1.08,1.563
				c0.981,1.669,1.859,3.485,1.891,5.471c0.03,1.897-0.236,3.924-1.19,5.612c-0.062,0.108-0.337,0.308-0.637,0.511
				c-12.128-0.913-24.549,0.071-36.703,0.246c-11.789,0.169-23.581,0.246-35.373,0.218
				C556.194,699.075,531.811,698.207,507.381,697.699z"/>
		</g>
		<g>
			<path fill="#666666" d="M439.459,696.124c2.223,2.349,5.76,3.058,8.798,3.599c6.67,1.187,13.965-0.119,20.44,1.623
				c1.241,0.1,2.455,0.011,3.539-0.97c2.04-1.846,1.41-5.598,1.255-8.026c-0.195-3.057-1.284-5.75-4.15-6.933
				c-4.313,1.751-9.93,0.963-14.462,0.896c-5.229-0.076-11.462,0.216-16.474-1.541c-0.574,1.261-1.43,2.404-1.942,3.709
				c-0.174,0.44-0.276,0.885-0.336,1.331C437.19,692.078,437.607,694.167,439.459,696.124z"/>
			<path fill="#5A5A5A" d="M447.287,692.094c6.012,0.802,12.437-0.961,16.311-5.585c2.022-0.092,3.991-0.381,5.743-1.092
				c2.866,1.183,3.955,3.876,4.15,6.933c0.155,2.429,0.785,6.181-1.255,8.026c-1.084,0.98-2.298,1.069-3.539,0.97
				c-6.476-1.742-13.771-0.437-20.44-1.623c-3.038-0.541-6.575-1.25-8.798-3.599c-1.852-1.957-2.269-4.046-3.332-6.312
				c0.06-0.446,0.162-0.891,0.336-1.331c0.009-0.023,0.021-0.045,0.031-0.068c0.273,0.104,0.577,0.234,0.952,0.402
				C440.803,690.316,443.596,691.602,447.287,692.094z"/>
			<path fill="#4D4D4D" d="M455.154,695.422c4.975-1.464,8.354-4.989,10.905-9.144c1.146-0.173,2.252-0.443,3.281-0.861
				c2.866,1.183,3.955,3.876,4.15,6.933c0.155,2.429,0.785,6.181-1.255,8.026c-1.084,0.98-2.298,1.069-3.539,0.97
				c-6.476-1.742-13.771-0.437-20.44-1.623c-3.038-0.541-6.575-1.25-8.798-3.599c-0.559-0.59-0.978-1.193-1.332-1.81
				C443.679,696.107,449.246,697.16,455.154,695.422z"/>
			<path fill="#5A5A5A" d="M434.227,691.986c0.068,4.305,5.012,8.18,8.829,9.313c3.841,1.141,7.839,1.537,11.835,1.682
				c3.441,0.124,7.197,0.493,10.693-0.034c2.482,0.08,4.823,1.063,7.226-0.399c2.023-1.231,2.84-4.178,2.796-6.377
				c-0.077-3.835-0.535-11.861-5.764-11.719c-4.533-1.483-10.207-0.275-14.963-0.423c-5.473-0.169-11.46-1.527-16.855-0.838
				c-0.337,0.042-0.552,0.244-0.641,0.484C435.387,685.459,433.603,689.155,434.227,691.986z M436.127,689.813
				c0.06-0.446,0.162-0.891,0.336-1.331c0.513-1.305,1.368-2.448,1.942-3.709c5.012,1.757,11.245,1.465,16.474,1.541
				c4.532,0.066,10.149,0.854,14.462-0.896c2.866,1.183,3.955,3.876,4.15,6.933c0.155,2.429,0.785,6.181-1.255,8.026
				c-1.084,0.98-2.298,1.069-3.539,0.97c-6.476-1.742-13.771-0.437-20.44-1.623c-3.038-0.541-6.575-1.25-8.798-3.599
				C437.607,694.167,437.19,692.078,436.127,689.813z"/>
		</g>
		<g>
			<path fill="#666666" d="M691.362,699.087c10.408,0.76,20.605,0.108,30.997-0.061c5.471-2.795,6.602-11.955,8.207-17.439
				c-0.549-0.364-1.094-0.741-1.664-1.07c-0.352-0.202-0.744-0.359-1.082-0.581c-1.607,4.667-7.443,5.465-11.834,5.649
				c-9.127,0.384-18.32,0.172-27.458,0.23c0.496,1.729,0.441,3.694,0.75,5.428C689.738,693.825,691.3,696.496,691.362,699.087z"/>
			<path fill="#5A5A5A" d="M687.341,691.777c0.511,2.405,1.048,5.746,2.843,7.612c-0.445,0.57-0.186,1.695,0.789,1.768
				c9.868,0.739,20.236,1.193,30.109-0.21c6.639,1.461,10.55-15.905,10.373-19.829c-0.008-0.16-0.106-0.253-0.222-0.305
				c-0.465-0.592-1.015-1.056-1.653-1.458c-0.567-0.358-1.238-0.778-1.922-0.652c-0.211,0.04-0.351,0.247-0.381,0.461
				c-5.162,5.113-11.664,4.407-18.514,4.464c-6.947,0.059-13.895,0.116-20.842,0.175c-0.856,0.007-1.137,0.878-0.864,1.473
				C686.388,687.291,686.916,689.781,687.341,691.777z M689.278,691.243c-0.309-1.733-0.254-3.698-0.75-5.428
				c9.138-0.059,18.331,0.153,27.458-0.23c4.391-0.185,10.227-0.982,11.834-5.649c0.338,0.222,0.73,0.379,1.082,0.581
				c0.57,0.329,1.115,0.706,1.664,1.07c-1.605,5.484-2.736,14.645-8.207,17.439c-10.392,0.169-20.589,0.82-30.997,0.061
				C691.3,696.496,689.738,693.825,689.278,691.243z"/>
			<path fill="#5A5A5A" d="M691.362,699.087c-0.063-2.591-1.624-5.262-2.084-7.844c-0.043-0.245-0.068-0.503-0.101-0.757
				c3.073,0.287,6.122,1.011,9.194,1.345c3.782,0.412,7.595,0.422,11.392,0.296c8.174-0.271,14.605-1.85,19.943-7.238
				c-1.303,5.309-2.873,11.852-7.348,14.138C711.968,699.195,701.771,699.847,691.362,699.087z"/>
			<path fill="#4D4D4D" d="M709.893,695.394c4.074-0.336,8.176-0.854,12.112-1.976c2.53-0.721,4.66-2.318,6.564-4.177
				c-1.198,4.108-2.915,8.102-6.21,9.785c-10.392,0.169-20.589,0.82-30.997,0.061c-0.028-1.185-0.375-2.387-0.781-3.59
				C697.017,695.956,703.438,695.926,709.893,695.394z"/>
		</g>
	</g>
	<g>
		<g>
			<g>
				<path fill="#4D4D4D" d="M674.472,720.02c14.078-2.177,19.89-15.823,18.822-28.524c-0.004-0.049,0.005-0.089,0.013-0.13
					c-2.388-10.01-9.429-17.57-20.987-18.653c-13.788-1.292-25.167,10.296-25.713,23.606
					C645.993,711.294,660.283,722.213,674.472,720.02z"/>
				<path fill="#5A5A5A" d="M646.606,696.318c0.546-13.311,11.925-24.898,25.713-23.606c11.559,1.083,18.6,8.644,20.987,18.653
					c-0.008,0.041-0.017,0.081-0.013,0.13c0.193,2.306,0.157,4.642-0.11,6.936c-0.104-0.058-0.192-0.144-0.244-0.267
					c-0.858-2.021-0.905-3.878-1.32-6.078c-0.715-3.784-2.512-7.28-4.87-10.291c-4.826-6.159-13.058-8.591-20.584-7.468
					c-8.339,1.245-12.617,7.567-15.501,14.828c-1.479,3.722-2.247,7.543-2.524,11.531c-0.146,2.103,0.279,4.099,0.645,6.113
					C647.261,703.667,646.45,700.125,646.606,696.318z"/>
				<path fill="#333333" d="M654.749,681.078c0.367-0.193,0.692,0.184,0.535,0.534c-1.581,3.519-3.98,6.211-5.011,10.093
					c-1.278,4.813-0.023,9.188,1.323,13.786c0.104,0.358-0.376,0.519-0.571,0.241C646.435,699.204,646.813,685.252,654.749,681.078z
					"/>
				<path fill="#333333" d="M644.268,697.887c1.262,14.599,13.993,27.019,29.278,24.644c11.595-1.802,21.66-11.98,21.895-23.581
					c0.032-0.056,0.063-0.111,0.078-0.185c3.08-14.538-10.473-28.58-24.775-28.299C656.369,670.747,642.957,682.723,644.268,697.887
					z M646.606,696.318c0.546-13.311,11.925-24.898,25.713-23.606c9.065,0.85,15.339,5.692,18.781,12.568
					c-0.498-0.031-1.037-0.003-1.424,0.278c-0.497,0.362-0.563,1.327,0.191,1.464c0.662,0.119,1.259-0.163,1.816-0.501
					c0.67,1.534,1.219,3.15,1.622,4.844c-0.008,0.041-0.017,0.081-0.013,0.13c0.021,0.259,0.025,0.519,0.041,0.777
					c-0.404,0.034-0.816,0.145-1.157,0.261c-0.693,0.237-0.629,1.438,0.184,1.352c0.304-0.032,0.684-0.079,1.044-0.174
					c0.042,2.072-0.098,4.149-0.428,6.18c-0.642-0.184-1.34-0.221-1.897,0.062c-0.55,0.279-0.539,0.999-0.183,1.413
					c0.359,0.416,1.021,0.626,1.653,0.694c-0.484,2.061-1.172,4.052-2.072,5.912c-0.221-0.12-0.446-0.232-0.664-0.35
					c-0.41-0.223-0.806-0.402-1.276-0.266c-0.181,0.052-0.326,0.262-0.257,0.451c0.191,0.527,0.608,0.731,1.088,0.961
					c0.185,0.088,0.37,0.185,0.558,0.276c-0.689,1.267-1.488,2.46-2.39,3.568c-0.394-0.604-1.054-1.213-1.31-1.382
					c-0.685-0.451-1.594,0.447-1.134,1.133c0.305,0.453,0.726,0.757,1.146,1.097c0.105,0.085,0.222,0.173,0.343,0.255
					c-1.156,1.241-2.469,2.342-3.934,3.276c-0.017-0.046-0.032-0.092-0.049-0.138c-0.181-0.516-0.409-0.908-0.849-1.238
					c-0.311-0.233-0.827,0.007-0.904,0.368c-0.114,0.542,0.007,0.997,0.211,1.501c0.047,0.117,0.093,0.233,0.141,0.349
					c-1.475,0.774-3.088,1.388-4.845,1.812c-0.011-0.562-0.177-1.15-0.535-1.521c-0.438-0.453-1.31-0.257-1.449,0.382
					c-0.104,0.475,0.026,1.015,0.268,1.48c-0.056,0.01-0.108,0.023-0.165,0.033c-1.938,0.299-3.878,0.346-5.781,0.18
					c0.022-0.053,0.045-0.101,0.067-0.159c0.121-0.318,0.26-0.61,0.256-0.956c-0.004-0.339-0.393-0.589-0.693-0.398
					c-0.429,0.271-0.871,0.817-0.981,1.357c-2.761-0.397-5.421-1.262-7.867-2.513c0.161-0.027,0.318-0.092,0.45-0.238
					c0.23-0.255,0.395-0.504,0.541-0.813c0.407-0.855-0.561-1.587-1.283-0.989c-0.264,0.219-0.463,0.438-0.654,0.725
					c-0.18,0.268-0.158,0.546-0.042,0.782c-2.265-1.289-4.317-2.923-6.056-4.837c0.154-0.104,0.305-0.212,0.48-0.307
					c0.211-0.114,0.426-0.209,0.588-0.392c0.2-0.226,0.288-0.572,0.109-0.843c-0.56-0.847-1.823-0.696-2.491-0.055
					C648.132,706.636,646.384,701.749,646.606,696.318z"/>
			</g>
			<g>
				<path fill="#CCCCCC" d="M673.348,710.289c8.008-1.281,11.95-8.065,11.879-15.206c-1.021-7.244-5.805-12.795-13.726-13.64
					c-9.523-1.016-15.523,6.618-16.15,15.248C654.606,706.938,664.519,711.701,673.348,710.289z"/>
				<path fill="#B3B3B3" d="M654.089,700.394c3.786,11.123,16.966,15.223,26.321,7.998c2.908-2.246,4.667-5.377,5.407-8.793
					c2.866-7.978-3.551-18.172-12.275-19.172C663.262,679.249,650.188,688.931,654.089,700.394z M656.984,697.175
					c0.121-8.012,9.402-15.635,17.46-12.838c8.36,2.902,9.466,10.071,7.417,17.419c-1.147,2.285-2.959,4.242-5.372,5.451
					C669.058,710.93,656.838,706.967,656.984,697.175z"/>
				<path fill="#999999" d="M652.593,698.282c1.121,10.83,12.593,18.065,23.12,14.051c7.931-3.024,14.088-11.485,11.225-19.785
					c-0.868-7.751-8.782-14.043-16.972-13.588C659.589,679.538,651.463,687.354,652.593,698.282z M655.351,696.691
					c0.627-8.63,6.627-16.264,16.15-15.248c7.921,0.845,12.704,6.396,13.726,13.64c0.071,7.141-3.871,13.925-11.879,15.206
					C664.519,711.701,654.606,706.938,655.351,696.691z"/>
			</g>
			<path fill="#FFFFFF" d="M664.092,687.21c1.57-4.601,8.814-4.749,12.459-2.831c4.56,2.398,9.323,9.223,5.883,14.292
				c-0.447,0.66-1.539,0.624-1.757-0.229c-1.093-4.283-0.84-7.935-4.943-10.711c-3.869-2.618-7.192-1.44-11.122-0.001
				C664.314,687.838,663.992,687.502,664.092,687.21z"/>
		</g>
		<g>
			<g>
				<path fill="#4D4D4D" d="M494.805,720.02c14.078-2.177,19.89-15.823,18.822-28.524c-0.004-0.049,0.005-0.089,0.014-0.13
					c-2.388-10.01-9.43-17.57-20.988-18.653c-13.788-1.292-25.167,10.296-25.713,23.606
					C466.326,711.294,480.616,722.213,494.805,720.02z"/>
				<path fill="#5A5A5A" d="M466.939,696.318c0.546-13.311,11.925-24.898,25.713-23.606c11.559,1.083,18.601,8.644,20.988,18.653
					c-0.009,0.041-0.018,0.081-0.014,0.13c0.193,2.306,0.158,4.642-0.11,6.936c-0.104-0.058-0.192-0.144-0.244-0.267
					c-0.858-2.021-0.905-3.878-1.32-6.078c-0.715-3.784-2.511-7.28-4.87-10.291c-4.826-6.159-13.058-8.591-20.584-7.468
					c-8.339,1.245-12.617,7.567-15.501,14.828c-1.479,3.722-2.247,7.543-2.524,11.531c-0.146,2.103,0.28,4.099,0.646,6.113
					C467.595,703.667,466.784,700.125,466.939,696.318z"/>
				<path fill="#333333" d="M475.083,681.078c0.366-0.193,0.691,0.184,0.534,0.534c-1.581,3.519-3.98,6.211-5.011,10.093
					c-1.277,4.813-0.022,9.188,1.323,13.786c0.104,0.358-0.376,0.519-0.571,0.241C466.769,699.204,467.146,685.252,475.083,681.078z
					"/>
				<path fill="#333333" d="M464.602,697.887c1.261,14.599,13.993,27.019,29.278,24.644c11.594-1.802,21.659-11.98,21.895-23.581
					c0.031-0.056,0.063-0.111,0.078-0.185c3.08-14.538-10.474-28.58-24.775-28.299C476.703,670.747,463.291,682.723,464.602,697.887
					z M466.939,696.318c0.546-13.311,11.925-24.898,25.713-23.606c9.065,0.85,15.339,5.692,18.781,12.568
					c-0.498-0.031-1.037-0.003-1.423,0.278c-0.497,0.362-0.564,1.327,0.191,1.464c0.662,0.119,1.258-0.163,1.815-0.501
					c0.67,1.534,1.219,3.15,1.623,4.844c-0.009,0.041-0.018,0.081-0.014,0.13c0.021,0.259,0.025,0.519,0.042,0.777
					c-0.405,0.034-0.817,0.145-1.157,0.261c-0.694,0.237-0.629,1.438,0.183,1.352c0.305-0.032,0.685-0.079,1.045-0.174
					c0.041,2.072-0.099,4.149-0.429,6.18c-0.642-0.184-1.34-0.221-1.897,0.062c-0.55,0.279-0.538,0.999-0.182,1.413
					c0.358,0.416,1.02,0.626,1.652,0.694c-0.483,2.061-1.172,4.052-2.072,5.912c-0.22-0.12-0.446-0.232-0.664-0.35
					c-0.41-0.223-0.806-0.402-1.276-0.266c-0.181,0.052-0.326,0.262-0.257,0.451c0.191,0.527,0.608,0.731,1.089,0.961
					c0.185,0.088,0.369,0.185,0.557,0.276c-0.688,1.267-1.488,2.46-2.389,3.568c-0.395-0.604-1.054-1.213-1.311-1.382
					c-0.684-0.451-1.594,0.447-1.133,1.133c0.304,0.453,0.725,0.757,1.145,1.097c0.105,0.085,0.222,0.173,0.344,0.255
					c-1.157,1.241-2.47,2.342-3.935,3.276c-0.016-0.046-0.032-0.092-0.048-0.138c-0.181-0.516-0.41-0.908-0.85-1.238
					c-0.311-0.233-0.827,0.007-0.903,0.368c-0.115,0.542,0.006,0.997,0.21,1.501c0.047,0.117,0.094,0.233,0.141,0.349
					c-1.475,0.774-3.088,1.388-4.845,1.812c-0.011-0.562-0.177-1.15-0.535-1.521c-0.438-0.453-1.31-0.257-1.449,0.382
					c-0.104,0.475,0.026,1.015,0.269,1.48c-0.057,0.01-0.109,0.023-0.166,0.033c-1.938,0.299-3.877,0.346-5.781,0.18
					c0.022-0.053,0.045-0.101,0.067-0.159c0.122-0.318,0.261-0.61,0.256-0.956c-0.004-0.339-0.392-0.589-0.693-0.398
					c-0.428,0.271-0.871,0.817-0.98,1.357c-2.761-0.397-5.422-1.262-7.867-2.513c0.16-0.027,0.317-0.092,0.45-0.238
					c0.229-0.255,0.394-0.504,0.54-0.813c0.407-0.855-0.561-1.587-1.282-0.989c-0.264,0.219-0.464,0.438-0.655,0.725
					c-0.18,0.268-0.158,0.546-0.042,0.782c-2.265-1.289-4.316-2.923-6.056-4.837c0.155-0.104,0.306-0.212,0.48-0.307
					c0.211-0.114,0.426-0.209,0.589-0.392c0.199-0.226,0.287-0.572,0.108-0.843c-0.56-0.847-1.823-0.696-2.491-0.055
					C468.465,706.636,466.717,701.749,466.939,696.318z"/>
			</g>
			<g>
				<path fill="#CCCCCC" d="M493.682,710.289c8.007-1.281,11.949-8.065,11.879-15.206c-1.021-7.244-5.806-12.795-13.727-13.64
					c-9.523-1.016-15.523,6.618-16.15,15.248C474.939,706.938,484.852,711.701,493.682,710.289z"/>
				<path fill="#B3B3B3" d="M474.423,700.394c3.786,11.123,16.965,15.223,26.32,7.998c2.909-2.246,4.667-5.377,5.407-8.793
					c2.866-7.978-3.551-18.172-12.274-19.172C483.596,679.249,470.521,688.931,474.423,700.394z M477.318,697.175
					c0.12-8.012,9.402-15.635,17.459-12.838c8.36,2.902,9.467,10.071,7.418,17.419c-1.148,2.285-2.96,4.242-5.373,5.451
					C489.391,710.93,477.171,706.967,477.318,697.175z"/>
				<path fill="#999999" d="M472.927,698.282c1.12,10.83,12.592,18.065,23.12,14.051c7.931-3.024,14.087-11.485,11.224-19.785
					c-0.868-7.751-8.782-14.043-16.972-13.588C479.923,679.538,471.796,687.354,472.927,698.282z M475.684,696.691
					c0.627-8.63,6.627-16.264,16.15-15.248c7.921,0.845,12.705,6.396,13.727,13.64c0.07,7.141-3.872,13.925-11.879,15.206
					C484.852,711.701,474.939,706.938,475.684,696.691z"/>
			</g>
			<path fill="#FFFFFF" d="M484.426,687.21c1.569-4.601,8.813-4.749,12.458-2.831c4.561,2.398,9.323,9.223,5.883,14.292
				c-0.447,0.66-1.538,0.624-1.756-0.229c-1.094-4.283-0.841-7.935-4.944-10.711c-3.868-2.618-7.192-1.44-11.122-0.001
				C484.647,687.838,484.326,687.502,484.426,687.21z"/>
		</g>
	</g>
	<g>
		<g>
			<path fill="#FFF385" d="M722.957,680.617c2.403-1.54,4.274-3.147,5.193-6.238c1.44-4.847-2.128-9.375-6.572-10.727
				c-5.938-1.807-5.217,6.896-5.095,9.987c0.049,1.241,0.192,2.476,0.362,3.705C717.381,681.225,720.277,681.559,722.957,680.617z"
				/>
			<path fill="#FF7F00" d="M716.277,680.577c-0.315-0.519-0.595-1.121-0.818-1.835c-0.997-3.177-0.846-7.283-0.613-10.566
				c0.112-1.597,0.158-3.094,0.699-4.276c-3.422,0.998-5.925,3.333-6.744,7.055C707.756,675.698,711.498,680.58,716.277,680.577z"/>
		</g>
		<g>
			<path fill="#FFCE00" d="M716.846,677.345c-0.17-1.229-0.313-2.464-0.362-3.705c-0.098-2.476-0.575-8.548,2.288-9.939
				c0.006,0.043,0.025,0.079,0.024,0.126c-0.036,2.576-0.013,5.048,0.769,7.53c1.211,3.854,6.238,5.679,8.286,2.532
				c0.013-0.027,0.025-0.054,0.038-0.082c0.037-0.079,0.088-0.151,0.146-0.217c0.177-0.328,0.313-0.716,0.428-1.136
				c-0.022,0.632-0.119,1.275-0.313,1.925c-0.919,3.091-2.79,4.698-5.193,6.238C720.277,681.559,717.381,681.225,716.846,677.345z"
				/>
			<path fill="#D66D38" d="M708.801,670.954c0.311-1.414,0.868-2.626,1.624-3.643c0.357,2.171-0.11,4.143,0.827,6.384
				c0.647,1.549,1.891,2.707,3.342,3.495c0.129,0.122,0.262,0.229,0.422,0.331c0.045,0.028,0.094,0.047,0.141,0.071
				c0.086,0.394,0.186,0.778,0.303,1.149c0.224,0.714,0.503,1.316,0.818,1.835C711.498,680.58,707.756,675.698,708.801,670.954z"/>
		</g>
		<path fill="#FFAA00" d="M707.154,673.038c0.572,5.257,4.283,9.789,9.918,9.317c0.247-0.021,0.42-0.128,0.549-0.269
			c1.688,1.243,3.902,1.02,6.012-0.17c4.932-1.41,7.17-7.359,6.238-12.162c-0.905-4.658-6.867-9.585-11.815-7.975
			c-0.4,0.13-0.745,0.289-1.046,0.472c-0.042-0.005-0.078-0.019-0.124-0.016C711.494,662.549,706.539,667.386,707.154,673.038z
			 M716.846,677.345c-0.17-1.229-0.313-2.464-0.362-3.705c-0.122-3.091-0.843-11.794,5.095-9.987
			c4.444,1.352,8.013,5.88,6.572,10.727c-0.919,3.091-2.79,4.698-5.193,6.238C720.277,681.559,717.381,681.225,716.846,677.345z
			 M708.801,670.954c0.819-3.722,3.322-6.057,6.744-7.055c-0.541,1.183-0.587,2.68-0.699,4.276
			c-0.232,3.283-0.384,7.39,0.613,10.566c0.224,0.714,0.503,1.316,0.818,1.835C711.498,680.58,707.756,675.698,708.801,670.954z"/>
	</g>
	<g>
		<path fill="#A03333" d="M674.641,658.56c2.979,1.697,7.139,0.545,7.921-3.104c0.393-1.831-0.208-3.767-1.474-4.815
			c-0.951-2.312-5.639-1.84-7.129-0.262C671.756,652.71,671.574,656.813,674.641,658.56z M676.114,651.26
			c1.379-0.633,2.441,0.003,3.622,0.452c0.906,1.038,1.086,2.794,0.307,3.95c-0.987,1.465-3.238,1.89-4.561,0.534
			C674.146,654.827,674.187,652.144,676.114,651.26z"/>
		<path fill="#D6514D" d="M675.482,656.196c1.322,1.355,3.573,0.931,4.561-0.534c0.779-1.156,0.6-2.912-0.307-3.95
			c-1.181-0.449-2.243-1.085-3.622-0.452C674.187,652.144,674.146,654.827,675.482,656.196z"/>
		<path opacity="0.8" fill="#FFFFFF" d="M676.49,651.081c1.126-1.44,3.438-0.068,4.146,1.083c0.471,0.767,0.588,1.915,0.118,2.708
			c-0.36,0.61-0.929,1.348-1.724,1.266c-0.27-0.028-0.443-0.192-0.467-0.467c-0.031-0.386,0.116-0.756,0.132-1.139
			c0.017-0.408-0.042-0.849-0.155-1.239c-0.236-0.811-1.348-0.869-1.926-1.252C676.257,651.805,676.241,651.4,676.49,651.081z"/>
	</g>
	<g>
		<path fill="#A03333" d="M447.391,658.56c2.979,1.697,7.139,0.545,7.921-3.104c0.393-1.831-0.208-3.767-1.474-4.815
			c-0.951-2.312-5.639-1.84-7.129-0.262C444.506,652.71,444.324,656.813,447.391,658.56z M448.864,651.26
			c1.379-0.633,2.441,0.003,3.622,0.452c0.906,1.038,1.086,2.794,0.307,3.95c-0.987,1.465-3.238,1.89-4.561,0.534
			C446.896,654.827,446.937,652.144,448.864,651.26z"/>
		<path fill="#D6514D" d="M448.232,656.196c1.322,1.355,3.573,0.931,4.561-0.534c0.779-1.156,0.6-2.912-0.307-3.95
			c-1.181-0.449-2.243-1.085-3.622-0.452C446.937,652.144,446.896,654.827,448.232,656.196z"/>
		<path opacity="0.8" fill="#FFFFFF" d="M449.24,651.081c1.126-1.44,3.438-0.068,4.146,1.083c0.471,0.767,0.588,1.915,0.118,2.708
			c-0.36,0.61-0.929,1.348-1.724,1.266c-0.27-0.028-0.443-0.192-0.467-0.467c-0.031-0.386,0.116-0.756,0.132-1.139
			c0.017-0.408-0.042-0.849-0.155-1.239c-0.236-0.811-1.348-0.869-1.926-1.252C449.007,651.805,448.991,651.4,449.24,651.081z"/>
	</g>
	<g>
		<path fill="#E6E6E6" d="M636.389,669.25c0.07,0.222,0.218,0.392,0.387,0.54c2.562-0.117,5.121-0.178,7.686-0.229
			c1.964-0.038,4.106-0.332,6.039,0.108c0.637-0.118,1.226-0.346,1.792-0.667c1.717-2.479,4.402-4.633,6.592-6.523
			c2.299-1.985,5.068-4.021,7.966-5.057c0.172-0.314,0.532-0.604,0.732-0.867c0.077-0.102,0.139-0.209,0.196-0.318
			c-0.273-10.419,0.518-20.931,0.474-31.357c-0.048-11.396-0.512-22.763-0.97-34.142c-0.489-0.32-1.116-0.334-1.675-0.372
			c-0.272-0.019-0.561-0.024-0.843-0.036c-3.44,0.342-7.069-0.02-10.445-0.024c-5.555-0.01-11.166,0.23-16.713-0.161
			c-0.021,0.027-0.026,0.06-0.056,0.081c-0.356,0.255-0.508,0.686-0.687,1.066c-0.025,0.053-0.033,0.102-0.053,0.152
			c-0.292,5.864,0.638,12.068,0.573,17.946c-0.071,6.555-0.188,13.108-0.313,19.662c-0.257,13.325-0.272,26.68-0.776,39.998
			C636.326,669.117,636.364,669.174,636.389,669.25z"/>
		<path fill="#CCCCCC" d="M636.775,669.79c-0.169-0.148-0.316-0.318-0.387-0.54c-0.024-0.076-0.063-0.133-0.094-0.199
			c0.504-13.318,0.52-26.673,0.776-39.998c0.126-6.554,0.242-13.107,0.313-19.662c0.064-5.878-0.865-12.082-0.573-17.946
			c0.02-0.051,0.027-0.1,0.053-0.152c0.179-0.381,0.33-0.812,0.687-1.066c0.029-0.021,0.035-0.054,0.056-0.081
			c5.547,0.392,11.158,0.151,16.713,0.161c3.376,0.005,7.005,0.366,10.445,0.024c0.282,0.012,0.57,0.018,0.843,0.036
			c0.559,0.038,1.186,0.052,1.675,0.372c0.007,0.164,0.013,0.328,0.02,0.493c-8.495,0.078-15.98,2.249-21.298,9.564
			c-5.244,7.216-5.569,16.914-5.427,25.463c0.141,8.457,0.717,17.472,6.337,24.259c2.656,3.207,6.454,5.17,10.398,6.253
			c3.688,1.013,7.059,0.339,10.465-0.578c0,0.015,0,0.03,0.001,0.045c-0.058,0.109-0.119,0.217-0.196,0.318
			c-0.2,0.264-0.561,0.553-0.732,0.867c-2.897,1.035-5.667,3.071-7.966,5.057c-2.189,1.891-4.875,4.045-6.591,6.523
			c-0.002,0.001-0.003,0.001-0.004,0.002c-0.565,0.32-1.153,0.547-1.789,0.665c-1.933-0.44-4.075-0.146-6.039-0.108
			C641.896,669.612,639.337,669.673,636.775,669.79z"/>
		<path fill="#999999" d="M634.458,670.345c0.01,0.742,0.718,1.002,1.243,0.796c0.097,0.056,0.208,0.096,0.348,0.099
			c3.205,0.068,6.408,0.049,9.614-0.015c2.109-0.042,4.223,0.245,6.135-0.71c0.017-0.008,0.024-0.024,0.037-0.036
			c2.843-1.944,5.138-4.757,7.966-6.811c1.052-0.764,2.154-1.485,3.254-2.213c0.776-0.62,1.633-1.177,2.383-1.72
			c0.715-0.518,1.496-0.893,2.288-1.271c0.556-0.266,1.062-0.939,1.455-1.646c0.07-0.275,0.134-0.554,0.25-0.804
			c1.178-10.886,0.719-22.173,0.553-33.075c-0.168-10.979-0.665-22.03-1.685-32.964c-0.012-0.124-0.063-0.217-0.128-0.295
			c0.038-0.077,0.013-0.183-0.085-0.211c-4.893-1.416-10.658-0.589-15.728-0.612c-5.218-0.023-10.482-0.255-15.687,0.163
			c-0.259,0.021-0.419,0.169-0.482,0.348c-0.115,0.07-0.199,0.186-0.187,0.359c0.26,3.782-0.524,7.959-0.721,11.798
			c-0.167,3.279-0.271,6.548-0.324,9.831c-0.107,6.555-0.153,13.108-0.206,19.663C634.647,644.12,634.287,657.244,634.458,670.345z
			 M636.295,669.051c0.504-13.318,0.52-26.673,0.776-39.998c0.126-6.554,0.242-13.107,0.313-19.662
			c0.064-5.878-0.865-12.082-0.573-17.946c0.02-0.051,0.027-0.1,0.053-0.152c0.179-0.381,0.33-0.812,0.687-1.066
			c0.029-0.021,0.035-0.054,0.056-0.081c5.547,0.392,11.158,0.151,16.713,0.161c3.376,0.005,7.005,0.366,10.445,0.024
			c0.282,0.012,0.57,0.018,0.843,0.036c0.559,0.038,1.186,0.052,1.675,0.372c0.458,11.379,0.922,22.745,0.97,34.142
			c0.044,10.427-0.747,20.938-0.474,31.357c-0.058,0.109-0.119,0.217-0.196,0.318c-0.2,0.264-0.561,0.553-0.732,0.867
			c-2.897,1.035-5.667,3.071-7.966,5.057c-2.189,1.891-4.875,4.045-6.592,6.523c-0.566,0.321-1.155,0.549-1.792,0.667
			c-1.933-0.44-4.075-0.146-6.039-0.108c-2.564,0.051-5.124,0.111-7.686,0.229c-0.169-0.148-0.316-0.318-0.387-0.54
			C636.364,669.174,636.326,669.117,636.295,669.051z"/>
	</g>
	<g>
		<path fill="#CCE2ED" d="M640.621,640.622c0.027,0.355,0.138,0.703,0.282,1.026c0.135,0.301,0.378,0.543,0.58,0.803
			c4.603,0.268,9.199,0.451,13.813,0.41c2.482-0.022,4.96-0.14,7.438-0.265c0.009,0,0.018,0.001,0.025,0.001
			c0.497-0.596,0.854-1.214,1.141-1.969c0.165-0.436,0.212-0.882,0.255-1.326c-0.551-6.512-0.337-13.186-0.541-19.68
			c-0.246-7.83-0.734-15.746-0.562-23.586c-0.119-0.104-0.238-0.207-0.38-0.288c-0.162-0.092-0.315-0.141-0.453-0.217
			c-6.688,0.357-13.646,0.412-20.308,0.005c-0.07,0.064-0.145,0.124-0.22,0.192c-0.108,0.1-0.198,0.219-0.277,0.346
			c0.585,14.687-1.019,29.448-0.894,44.12C640.576,640.327,640.608,640.461,640.621,640.622z"/>
		<path opacity="0.5" fill="#9FC2CC" d="M640.903,641.648c-0.145-0.323-0.255-0.671-0.282-1.026c-0.013-0.161-0.045-0.295-0.1-0.427
			c-0.125-14.672,1.479-29.434,0.894-44.12c0.079-0.127,0.169-0.246,0.277-0.346c0.075-0.068,0.149-0.128,0.22-0.192
			c6.662,0.407,13.62,0.353,20.308-0.005c0.138,0.076,0.291,0.125,0.453,0.217c0.142,0.081,0.261,0.185,0.38,0.288
			c-0.02,0.887-0.028,1.775-0.032,2.663c-3.624,1.118-7.775,0.892-11.492,1.03c-1.991,0.073-4.135,0.224-6.289,0.276
			c-0.21,0.213-0.406,0.437-0.586,0.67c-0.222,6.318-0.781,12.633-0.886,18.956c-0.124,7.526,1.116,15.42,0.899,22.987
			c-1.062-0.051-2.122-0.107-3.184-0.169C641.281,642.191,641.038,641.949,640.903,641.648z"/>
		<path fill="#97B9C6" d="M639.769,641.715c0.113,0.457,0.288,0.851,0.529,1.206c0.271,0.192,0.603,0.335,0.927,0.499
			c7.756,0.928,15.576,1.054,23.367,0.476c0.433-0.032,0.882-0.518,0.662-0.956c0.051-0.063,0.089-0.136,0.097-0.222
			c0.707-8.223-0.126-16.767-0.271-25.02c-0.134-7.673-0.029-15.447-0.656-23.095c-0.002-0.03-0.014-0.053-0.019-0.08
			c-0.062-0.037-0.123-0.075-0.183-0.106c-0.302-0.159-0.633-0.188-0.951-0.254c-0.016,0.016-0.035,0.027-0.049,0.045
			c-7.23-0.458-14.836-0.571-22.052-0.128c-0.153,0.01-0.271,0.062-0.372,0.129c-0.245,0.018-0.481,0.187-0.507,0.514
			C639.071,610.332,640.485,626.108,639.769,641.715z M640.521,640.195c-0.125-14.672,1.479-29.434,0.894-44.12
			c0.079-0.127,0.169-0.246,0.277-0.346c0.075-0.068,0.149-0.128,0.22-0.192c6.662,0.407,13.62,0.353,20.308-0.005
			c0.138,0.076,0.291,0.125,0.453,0.217c0.142,0.081,0.261,0.185,0.38,0.288c-0.173,7.84,0.315,15.756,0.562,23.586
			c0.204,6.494-0.01,13.168,0.541,19.68c-0.043,0.444-0.09,0.891-0.255,1.326c-0.286,0.755-0.644,1.373-1.141,1.969
			c-0.008,0-0.017-0.001-0.025-0.001c-2.479,0.125-4.956,0.242-7.438,0.265c-4.613,0.041-9.21-0.143-13.813-0.41
			c-0.202-0.26-0.445-0.502-0.58-0.803c-0.145-0.323-0.255-0.671-0.282-1.026C640.608,640.461,640.576,640.327,640.521,640.195z"/>
	</g>
	<g>
		<path fill="#CCE2ED" d="M675.676,640.167c1.719,2.383,11.151,1.786,12.683,1.824c3.253,0.08,6.505,0.16,9.757,0.241
			c-3.283-7.596-6.824-15.054-10.629-22.404c-4.059-7.838-8.021-16.96-13.765-23.748c-0.066,0.146-0.122,0.328-0.164,0.564
			C674.155,611.195,674.299,625.629,675.676,640.167z"/>
		<path opacity="0.5" fill="#9FC2CC" d="M675.676,640.167c-1.377-14.538-1.521-28.972-2.118-43.522
			c0.042-0.236,0.098-0.419,0.164-0.564c1.768,2.09,3.354,4.414,4.839,6.841c-0.787,1.53-1.435,3.119-1.697,5.188
			c-0.055,0.429-0.098,0.86-0.132,1.294c0.112,3.16,0.169,6.294,0.378,9.263c0.317,4.519,0.615,9.038,0.912,13.558
			c0.201,3.079,0.759,6.252,0.081,9.21C676.985,641.154,676.097,640.751,675.676,640.167z"/>
		<path fill="#97B9C6" d="M673.941,639.102c-0.564,2.464,1.419,4.123,3.988,4.269c7.151,0.404,14.334,0.427,21.494,0.593
			c0.708,0.017,0.974-0.719,0.734-1.278c-3.907-9.102-8.078-18.122-12.73-26.87c-3.655-6.873-7.16-15.739-12.881-21.156
			c-0.104-0.099-0.213-0.156-0.322-0.19c-0.112-0.088-0.255-0.142-0.437-0.118c-2.075,0.271-1.664,2.275-1.633,3.928
			c0.04,2.059-0.312,4.602,0.228,6.679C672.234,616.326,673.011,627.871,673.941,639.102z M673.558,596.645
			c0.042-0.236,0.098-0.419,0.164-0.564c5.743,6.788,9.706,15.91,13.765,23.748c3.805,7.351,7.346,14.809,10.629,22.404
			c-3.252-0.081-6.504-0.161-9.757-0.241c-1.531-0.038-10.964,0.559-12.683-1.824C674.299,625.629,674.155,611.195,673.558,596.645z
			"/>
	</g>
</g>
<path fill="#B71C37" d="M461.188,590.604l-7.486,10.17c0,0,38.803,0,40.793,0c2.063,0,2.035,0.783,1.027,2.148
	c-1.023,1.387-2.736,3.796-3.778,5.204c-0.529,0.714-1.486,2.016,1.685,2.016c3.352,0,16.682,0,16.682,0s2.689-3.659,4.942-6.718
	c3.066-4.161,0.266-12.82-10.695-12.82C494.545,590.604,461.188,590.604,461.188,590.604L461.188,590.604z"/>
<path fill="#B71C37" d="M450.674,623.733l15.034-20.428c0,0,16.665,0,18.655,0c2.063,0,2.035,0.783,1.028,2.148
	c-1.024,1.387-2.766,3.771-3.808,5.179c-0.529,0.715-1.485,2.019,1.684,2.019c3.353,0,24.994,0,24.994,0
	c-2.079,2.848-8.821,11.081-20.928,11.081C477.521,623.733,450.674,623.733,450.674,623.733L450.674,623.733z"/>
<path fill="#B71C37" d="M536.773,612.648l-8.152,11.084h-21.506c0,0,8.148-11.081,8.156-11.081L536.773,612.648L536.773,612.648z"/>
<polygon fill="#B71C37" points="569.721,610.142 517.118,610.142 531.502,590.604 553.002,590.604 544.758,601.807 554.354,601.807 
	562.602,590.604 584.1,590.604 "/>
<path fill="#B71C37" d="M567.872,612.651l-8.155,11.081h-21.498c0,0,8.148-11.081,8.156-11.081H567.872L567.872,612.651z"/>
<path fill="#B71C37" d="M613.873,590.604l-14.382,19.538h-22.78c0,0,14.385-19.538,14.392-19.538H613.873L613.873,590.604z"/>
<path fill="#B71C37" d="M574.867,612.651c0,0-1.572,2.147-2.336,3.18c-2.699,3.649-0.313,7.901,8.5,7.901
	c10.178,0,34.527,0,34.527,0l8.156-11.081H574.867L574.867,612.651z"/>
</svg>
