<?xml version="1.0" encoding="iso-8859-1"?>
<!-- Generator: Adobe Illustrator 19.0.0, SVG Export Plug-In . SVG Version: 6.00 Build 0)  -->
<svg version="1.1" id="Layer_1" xmlns="http://www.w3.org/2000/svg" xmlns:xlink="http://www.w3.org/1999/xlink" x="0px" y="0px"
	 viewBox="0 0 512 512" style="enable-background:new 0 0 512 512;" xml:space="preserve">
<path style="fill:#7F8499;" d="M494.345,58.42H17.655C7.905,58.42,0,66.324,0,76.075v70.621c0,9.75,7.905,17.655,17.655,17.655
	h61.792h353.106h61.792c9.75,0,17.655-7.905,17.655-17.655V76.075C512,66.324,504.095,58.42,494.345,58.42z"/>
<path style="fill:#464655;" d="M459.034,120.213H52.966c-4.875,0-8.828-3.953-8.828-8.828l0,0c0-4.875,3.953-8.828,8.828-8.828
	h406.069c4.875,0,8.828,3.953,8.828,8.828l0,0C467.862,116.26,463.91,120.213,459.034,120.213z"/>
<path style="fill:#F1F4FB;" d="M79.448,102.558v329.994c0,3.342,1.888,6.399,4.877,7.894l22.508,11.263
	c4.972,2.488,10.826,2.488,15.798,0.001l19.502-9.754c4.971-2.486,10.824-2.486,15.795,0l19.505,9.756
	c4.971,2.486,10.824,2.486,15.795,0l19.503-9.754c4.972-2.487,10.825-2.486,15.797,0.001l19.492,9.752
	c4.972,2.487,10.826,2.487,15.798,0l19.501-9.754c4.97-2.486,10.82-2.487,15.791-0.003l19.54,9.766
	c4.968,2.483,10.814,2.484,15.781,0.002l19.57-9.774c4.967-2.481,10.81-2.481,15.777,0l19.569,9.773
	c4.969,2.482,10.816,2.481,15.784-0.003l22.539-11.27c2.99-1.495,4.879-4.552,4.879-7.895V102.558H79.448z"/>
<g>
	<path style="fill:#C7CFE2;" d="M247.172,208.489H141.241c-4.879,0-8.828-3.953-8.828-8.828s3.948-8.828,8.828-8.828h105.931
		c4.879,0,8.828,3.953,8.828,8.828S252.052,208.489,247.172,208.489z"/>
	<path style="fill:#C7CFE2;" d="M317.793,164.351H141.241c-4.879,0-8.828-3.953-8.828-8.828c0-4.875,3.948-8.828,8.828-8.828
		h176.552c4.879,0,8.828,3.953,8.828,8.828C326.621,160.398,322.673,164.351,317.793,164.351z"/>
	<path style="fill:#C7CFE2;" d="M370.759,208.489h-35.31c-4.879,0-8.828-3.953-8.828-8.828s3.948-8.828,8.828-8.828h35.31
		c4.879,0,8.828,3.953,8.828,8.828S375.638,208.489,370.759,208.489z"/>
	<path style="fill:#C7CFE2;" d="M370.759,252.627h-35.31c-4.879,0-8.828-3.953-8.828-8.828c0-4.875,3.948-8.828,8.828-8.828h35.31
		c4.879,0,8.828,3.953,8.828,8.828C379.586,248.674,375.638,252.627,370.759,252.627z"/>
</g>
<g>
	<path style="fill:#AFB9D2;" d="M300.138,208.489h-17.655c-4.879,0-8.828-3.953-8.828-8.828s3.948-8.828,8.828-8.828h17.655
		c4.879,0,8.828,3.953,8.828,8.828S305.017,208.489,300.138,208.489z"/>
	<path style="fill:#AFB9D2;" d="M300.138,252.627h-17.655c-4.879,0-8.828-3.953-8.828-8.828c0-4.875,3.948-8.828,8.828-8.828h17.655
		c4.879,0,8.828,3.953,8.828,8.828C308.966,248.674,305.017,252.627,300.138,252.627z"/>
</g>
<path style="fill:#C7CFE2;" d="M247.172,252.627H141.241c-4.879,0-8.828-3.953-8.828-8.828c0-4.875,3.948-8.828,8.828-8.828h105.931
	c4.879,0,8.828,3.953,8.828,8.828C256,248.674,252.052,252.627,247.172,252.627z"/>
<g>
	<path style="fill:#AFB9D2;" d="M158.897,296.765h-17.655c-4.879,0-8.828-3.953-8.828-8.828c0-4.875,3.948-8.828,8.828-8.828h17.655
		c4.879,0,8.828,3.953,8.828,8.828C167.724,292.812,163.776,296.765,158.897,296.765z"/>
	<path style="fill:#AFB9D2;" d="M211.862,296.765h-17.655c-4.879,0-8.828-3.953-8.828-8.828c0-4.875,3.948-8.828,8.828-8.828h17.655
		c4.879,0,8.828,3.953,8.828,8.828C220.69,292.812,216.742,296.765,211.862,296.765z"/>
	<path style="fill:#AFB9D2;" d="M317.793,296.765h-17.655c-4.879,0-8.828-3.953-8.828-8.828c0-4.875,3.948-8.828,8.828-8.828h17.655
		c4.879,0,8.828,3.953,8.828,8.828C326.621,292.812,322.673,296.765,317.793,296.765z"/>
	<path style="fill:#AFB9D2;" d="M264.828,296.765h-17.655c-4.879,0-8.828-3.953-8.828-8.828c0-4.875,3.948-8.828,8.828-8.828h17.655
		c4.879,0,8.828,3.953,8.828,8.828C273.655,292.812,269.707,296.765,264.828,296.765z"/>
	<path style="fill:#AFB9D2;" d="M370.759,296.765h-17.655c-4.879,0-8.828-3.953-8.828-8.828c0-4.875,3.948-8.828,8.828-8.828h17.655
		c4.879,0,8.828,3.953,8.828,8.828C379.586,292.812,375.638,296.765,370.759,296.765z"/>
</g>
<g>
	<path style="fill:#C7CFE2;" d="M335.448,340.903H176.552c-4.879,0-8.828-3.953-8.828-8.828s3.948-8.828,8.828-8.828h158.897
		c4.879,0,8.828,3.953,8.828,8.828S340.328,340.903,335.448,340.903z"/>
	<path style="fill:#C7CFE2;" d="M300.138,385.04h-88.276c-4.879,0-8.828-3.953-8.828-8.828s3.948-8.828,8.828-8.828h88.276
		c4.879,0,8.828,3.953,8.828,8.828S305.017,385.04,300.138,385.04z"/>
</g>
<rect x="79.448" y="102.554" style="fill:#D5DCED;" width="353.103" height="17.655"/>
<g>
</g>
<g>
</g>
<g>
</g>
<g>
</g>
<g>
</g>
<g>
</g>
<g>
</g>
<g>
</g>
<g>
</g>
<g>
</g>
<g>
</g>
<g>
</g>
<g>
</g>
<g>
</g>
<g>
</g>
</svg>
