<?xml version="1.0" encoding="utf-8"?>
<!-- Generator: Adobe Illustrator 21.0.0, SVG Export Plug-In . SVG Version: 6.00 Build 0)  -->
<svg version="1.1" id="Layer_1" xmlns="http://www.w3.org/2000/svg" xmlns:xlink="http://www.w3.org/1999/xlink" x="0px" y="0px"
	 viewBox="0 0 180 180" style="enable-background:new 0 0 180 180;" xml:space="preserve">
<style type="text/css">
	.st0{fill:#FFFFFF;}
	.st1{display:none;}
	.st2{display:inline;}
	.st3{fill:url(#SVGID_1_);}
	.st4{fill:#F47769;}
	.st5{clip-path:url(#SVGID_4_);}
	.st6{fill:#FBC6A4;}
	.st7{fill:#EAAD85;}
	.st8{fill:#CE7754;}
	.st9{fill:#8F494A;}
	.st10{fill:#6D3334;}
	.st11{fill:#EAEBEC;}
	.st12{fill:#C4C5C7;}
	.st13{fill:#E7DDDC;}
	.st14{fill:#9EA0A3;}
	.st15{fill:#B9BBBD;}
	.st16{fill:#818385;}
	.st17{fill:#5C5D60;}
	.st18{fill:#4E4F51;}
	.st19{fill:#F05A30;}
	.st20{fill:#E1492A;}
	.st21{fill:#F37A53;}
	.st22{fill:#F4C1A8;}
	.st23{fill:#5E2820;}
	.st24{fill:#F8AF9A;}
	.st25{fill:#FBD3C4;}
	.st26{fill:#FCD8C1;}
	.st27{fill:#4D1F1C;}
	.st28{fill:#321514;}
	.st29{fill:#EC756C;}
	.st30{fill:#F48F87;}
	.st31{fill:#F7B0AD;}
	.st32{fill:#D9DBDC;}
	.st33{fill:#9DC2E7;}
	.st34{fill:#231F20;}
	.st35{fill:#723026;}
	.st36{fill:#8A4A37;}
	.st37{fill:#D5956A;}
	.st38{fill:#C73822;}
	.st39{fill:#A92B16;}
</style>
<rect class="st0" width="180" height="180"/>
<g>
	<g>
		<g>
			<g class="st1">
				<g class="st2">
					<g>
						
							<radialGradient id="SVGID_1_" cx="96.3333" cy="191" r="167.1662" gradientTransform="matrix(1 0 0 -1 0 275)" gradientUnits="userSpaceOnUse">
							<stop  offset="0" style="stop-color:#FFFFFF"/>
							<stop  offset="1" style="stop-color:#FFA194;stop-opacity:0.6"/>
						</radialGradient>
						<rect id="SVGID_2_" x="0.4" y="0.1" class="st3" width="180" height="180"/>
					</g>
				</g>
			</g>
			<g>
				<g>
					<g>
						<path class="st4" d="M168.9,173.6h-2.6V173h2.6V173.6z M163.1,173.6h-2.6V173h2.6V173.6z M157.3,173.6h-2.6V173h2.6V173.6z
							 M151.5,173.6H149V173h2.6v0.6H151.5z M145.8,173.6h-2.6V173h2.6V173.6z M140,173.6h-2.6V173h2.6V173.6z M134.2,173.6h-2.6
							V173h2.6V173.6z M128.5,173.6h-2.6V173h2.6V173.6z M122.7,173.6h-2.6V173h2.6V173.6z M116.9,173.6h-2.6V173h2.6V173.6z
							 M111.2,173.6h-2.6V173h2.6V173.6z M105.4,173.6h-2.6V173h2.6V173.6z M99.6,173.6H97V173h2.6V173.6z M93.9,173.6h-2.6V173h2.6
							V173.6z M88.1,173.6h-2.6V173h2.6V173.6z M82.3,173.6h-2.6V173h2.6V173.6z M76.5,173.6H74V173h2.6L76.5,173.6L76.5,173.6z
							 M70.8,173.6h-2.6V173h2.6V173.6z M65,173.6h-2.6V173H65V173.6z M59.2,173.6h-2.6V173h2.6V173.6z M53.5,173.6h-2.6V173h2.6
							V173.6z M47.7,173.6h-2.6V173h2.6V173.6z M41.9,173.6h-2.6V173h2.6V173.6z M36.2,173.6h-2.6V173h2.6V173.6z M30.4,173.6h-2.6
							V173h2.6V173.6z M24.6,173.6H22V173h2.6V173.6z M18.9,173.6h-2.6V173h2.6V173.6z M13.1,173.6H12c-0.5,0-1-0.1-1.5-0.2l0.2-0.6
							c0.4,0.1,0.9,0.2,1.3,0.2h1.1V173.6z M171.5,172.8l-0.3-0.5c0.7-0.4,1.2-1,1.6-1.8l0.6,0.3
							C172.9,171.6,172.3,172.3,171.5,172.8z M7.8,171.3c-0.5-0.8-0.8-1.7-0.8-2.6h0.6c0,0.8,0.3,1.6,0.7,2.2L7.8,171.3z
							 M173.9,167.5h-0.6V165h0.6V167.5z M7.6,165.5H6.9V163h0.6L7.6,165.5L7.6,165.5z M173.9,161.8h-0.6v-2.6h0.6V161.8z
							 M7.6,159.8H6.9v-2.6h0.6L7.6,159.8L7.6,159.8z M173.9,156h-0.6v-2.6h0.6V156z M7.6,154H6.9v-2.6h0.6L7.6,154L7.6,154z
							 M173.9,150.2h-0.6v-2.6h0.6V150.2z M7.6,148.2H6.9v-2.6h0.6L7.6,148.2L7.6,148.2z M173.9,144.4h-0.6v-2.6h0.6V144.4z
							 M7.6,142.4H6.9v-2.6h0.6L7.6,142.4L7.6,142.4z M173.9,138.7h-0.6v-2.6h0.6V138.7z M7.6,136.7H6.9v-2.6h0.6L7.6,136.7
							L7.6,136.7z M173.9,132.9h-0.6v-2.6h0.6V132.9z M7.6,130.9H6.9v-2.6h0.6L7.6,130.9L7.6,130.9z M173.9,127.1h-0.6v-2.6h0.6
							V127.1z M7.6,125.1H6.9v-2.6h0.6L7.6,125.1L7.6,125.1z M173.9,121.4h-0.6v-2.6h0.6V121.4z M7.6,119.4H6.9v-2.6h0.6L7.6,119.4
							L7.6,119.4z M173.9,115.6h-0.6V113h0.6V115.6z M7.6,113.6H6.9V111h0.6L7.6,113.6L7.6,113.6z M173.9,109.8h-0.6v-2.6h0.6V109.8
							z M7.6,107.8H6.9v-2.6h0.6L7.6,107.8L7.6,107.8z M173.9,104.1h-0.6v-2.6h0.6V104.1z M7.6,102.1H6.9v-2.6h0.6L7.6,102.1
							L7.6,102.1z M173.9,98.3h-0.6v-2.6h0.6V98.3z M7.6,96.3H6.9v-2.6h0.6L7.6,96.3L7.6,96.3z M173.9,92.5h-0.6V90h0.6V92.5z
							 M7.6,90.5H6.9V88h0.6L7.6,90.5L7.6,90.5z M173.9,86.8h-0.6v-2.6h0.6V86.8z M7.6,84.8H6.9v-2.6h0.6L7.6,84.8L7.6,84.8z
							 M173.9,81h-0.6v-2.6h0.6V81z M7.6,79H6.9v-2.6h0.6L7.6,79L7.6,79z M173.9,75.2h-0.6v-2.6h0.6V75.2z M7.6,73.2H6.9v-2.6h0.6
							L7.6,73.2L7.6,73.2z M173.9,69.4h-0.6v-2.6h0.6V69.4z M7.6,67.4H6.9v-2.6h0.6L7.6,67.4L7.6,67.4z M173.9,63.7h-0.6v-2.6h0.6
							V63.7z M7.6,61.7H6.9v-2.6h0.6L7.6,61.7L7.6,61.7z M173.9,57.9h-0.6v-2.6h0.6V57.9z M7.6,55.9H6.9v-2.6h0.6L7.6,55.9L7.6,55.9
							z M173.9,52.1h-0.6v-2.6h0.6V52.1z M7.6,50.1H6.9v-2.6h0.6L7.6,50.1L7.6,50.1z M173.9,46.4h-0.6v-2.6h0.6V46.4z M7.6,44.4H6.9
							v-2.6h0.6L7.6,44.4L7.6,44.4z M173.9,40.6h-0.6V38h0.6V40.6z M7.6,38.6H6.9V36h0.6L7.6,38.6L7.6,38.6z M173.9,34.8h-0.6v-2.6
							h0.6V34.8z M7.6,32.8H6.9v-2.6h0.6L7.6,32.8L7.6,32.8z M173.9,29.1h-0.6v-2.6h0.6V29.1z M7.6,27.1H6.9v-2.6h0.6L7.6,27.1
							L7.6,27.1z M173.9,23.3h-0.6v-2.6h0.6V23.3z M7.6,21.3H6.9v-2.6h0.6L7.6,21.3L7.6,21.3z M173.9,17.5h-0.6V15h0.6V17.5z
							 M7.6,15.5H6.9V13h0.6L7.6,15.5L7.6,15.5z M173.9,11.8h-0.6v-0.1c0-0.8-0.2-1.5-0.6-2.2l0.6-0.3c0.4,0.8,0.7,1.6,0.7,2.5
							L173.9,11.8L173.9,11.8z M7.9,9.9L7.3,9.7c0.4-0.9,1-1.6,1.7-2.1l0.4,0.5C8.8,8.6,8.2,9.2,7.9,9.9z M170.4,7.6
							c-0.5-0.2-1-0.3-1.6-0.3H168V6.6h0.8c0.6,0,1.2,0.1,1.8,0.3L170.4,7.6z M164.8,7.3h-2.6V6.6h2.6V7.3z M159,7.3h-2.6V6.6h2.6
							V7.3z M153.3,7.3h-2.6V6.6h2.6V7.3z M147.5,7.3h-2.6V6.6h2.6V7.3z M141.7,7.3h-2.6V6.6h2.6V7.3z M136,7.3h-2.6V6.6h2.6V7.3z
							 M130.2,7.3h-2.6V6.6h2.6V7.3z M124.4,7.3h-2.6V6.6h2.6V7.3z M118.6,7.3H116V6.6h2.6V7.3z M112.9,7.3h-2.6V6.6h2.6V7.3z
							 M107.1,7.3h-2.6V6.6h2.6V7.3z M101.3,7.3h-2.6V6.6h2.6V7.3z M95.6,7.3H93V6.6h2.6V7.3z M89.8,7.3h-2.6V6.6h2.6V7.3z M84,7.3
							h-2.6V6.6H84V7.3z M78.3,7.3h-2.6V6.6h2.6V7.3z M72.5,7.3h-2.6V6.6h2.6V7.3z M66.7,7.3h-2.6V6.6h2.6V7.3z M61,7.3h-2.6V6.6H61
							V7.3z M55.2,7.3h-2.6V6.6h2.6V7.3z M49.4,7.3h-2.6V6.6h2.6V7.3z M43.6,7.3H41V6.6h2.6V7.3z M37.9,7.3h-2.6V6.6h2.6V7.3z
							 M32.1,7.3h-2.6V6.6h2.6V7.3z M26.3,7.3h-2.6V6.6h2.6V7.3z M20.6,7.3H18V6.6h2.6V7.3z M14.8,7.3h-2.6V6.6h2.6
							C14.8,6.6,14.8,7.3,14.8,7.3z"/>
					</g>
				</g>
			</g>
		</g>
	</g>
</g>
<g>
	<g>
		<g>
			<defs>
				<ellipse id="SVGID_3_" cx="86.5" cy="45.7" rx="129.7" ry="117"/>
			</defs>
			<clipPath id="SVGID_4_">
				<use xlink:href="#SVGID_3_"  style="overflow:visible;"/>
			</clipPath>
			<g class="st5">
				<g>
					<path class="st6" d="M106.6,125.2c0,0,4.7,12.8,12.4,21c-0.5,1.5,0.4,3.3,2.1,4.9c0.9,1.5,1.7,2.4,2.2,1.9s-0.6-2.1-0.8-2.5
						c0.1,0,1.6,1.9,2,2.2c0.9,0.9,1.8,0.2,1.2-0.7c-0.5-0.7-1.8-2.4-1.8-2.4c0.1,0.1,2,1.7,2.3,2c1,0.9,2.2-0.1,1-1.1
						c-0.8-0.7-2.2-1.9-2.3-2.1c0.1,0,1.3,0.6,2.1,1c1.3,0.5,1.9-0.5,0.6-1.3c-1-0.7-3.4-2.4-3.4-2.4s1.9-0.6,1.6-1.7
						c-0.4-1.1-3.7,0.2-3.7,0.2s-5.3-6.9-10.9-19.4C109.1,121.5,106.6,125.2,106.6,125.2z"/>
					<path class="st7" d="M109,130.1c-1-2.8-1.9-4.3-1.9-4.3s2-4.3,3.9-1.2c0.4,1.6,0.7,2.2,1.2,3.7
						C111.3,126.6,108.7,126.8,109,130.1z"/>
					<path class="st8" d="M121.7,146.7v-0.1c0-0.1,0.1-0.1,0.2-0.1c1,0.6,1.9-0.2,2.2-0.8c0-0.1,0.1-0.1,0.2,0c0.1,0,0.1,0.1,0,0.2
						C124,146.5,123,147.5,121.7,146.7C121.7,146.8,121.7,146.7,121.7,146.7z"/>
				</g>
				<g>
					<g>
						<polygon class="st6" points="97.2,215.6 98.2,220.1 102.2,219.5 101.3,214.7 						"/>
						<path class="st9" d="M97.7,218.2c0,0,0.4,5.1,0.6,7.5c3.7,2.5,14.2,2.5,17.8,1.2c2.2-2.2,1.1-8.1-3.4-9.9
							c-4.5-1.8-7.6,1.7-8.4,2.5c-0.6-0.3-2.2-0.8-2.2-0.8l-0.4-1.2C101.8,217.4,101,218.2,97.7,218.2z"/>
						<path class="st10" d="M101.6,218L101.6,218c-0.4,0.5-2.1,2-1.9,3.8c3.4,2.2,15,4.8,16.1-1.6l0,0c0.9,1.9,1.5,4.6,0.1,5.9
							c-3.4,1.2-13.5,1.4-16.9-0.8c-0.2-2-0.7-6.5-0.7-6.5C101.3,218.8,101.6,218,101.6,218z"/>
						<path class="st11" d="M98.1,223.9c1.4,1,9.3,3.2,19.2,0.5c0.7,2-0.6,3-0.6,3s-9.7,2.8-18.5-0.8
							C97.4,226.1,98.1,223.9,98.1,223.9z"/>
						<path class="st12" d="M98.1,223.9c0.1,0.1,0.2,0.1,0.3,0.2c0,0.5,0.1,1,0.4,1.2c8.8,3.6,18.5,0.8,18.5,0.8s0.1-0.1,0.2-0.2
							c-0.1,1.1-0.8,1.6-0.8,1.6s-9.7,2.8-18.5-0.8C97.4,226.1,98.1,223.9,98.1,223.9z"/>
						<path class="st13" d="M100.5,220.4c0.1,0,0.2-0.1,0.2-0.1c0.9-1.7,2.2-1.1,2.3-1.1c0.1,0.1,0.3,0,0.4-0.1s0-0.3-0.1-0.4
							c0,0-1.9-0.9-3,1.3C100.2,220.1,100.3,220.3,100.5,220.4C100.4,220.4,100.4,220.4,100.5,220.4z"/>
						<path class="st13" d="M103.6,221.6c0.1-0.1,0.1-0.2,0.1-0.2c-0.3-1.9,1.1-2.2,1.1-2.2c0.2,0,0.3-0.2,0.2-0.3
							c0-0.2-0.2-0.2-0.3-0.2c0,0-2,0.5-1.6,2.9c0,0.2,0.2,0.3,0.3,0.2C103.5,221.7,103.5,221.7,103.6,221.6z"/>
					</g>
					<g>
						<polygon class="st6" points="79.1,214.5 78,220.2 82.5,220.2 83.1,214.9 						"/>
						<path class="st9" d="M78.4,217.7c0,0-0.3,1.1-0.3,1.5c-2.5-0.3-5.9,2.5-5.7,8.3c5,2.7,13.9,0.9,13.9,0.9s2-6.1-3.6-9
							c0.1-1.3,0-1.4,0-1.4S80.6,219,78.4,217.7z"/>
						<path class="st10" d="M73.9,223.5c4.4,1.9,11.3,0.6,11.7,0.5c0.6,2.1,0,4.1,0,4.1s-7.8,1.6-12.2-0.8
							C73.3,225.9,73.5,224.6,73.9,223.5z"/>
						<path class="st11" d="M72.5,225.5c1.9,0.9,10,2.3,14.4,0.6c1.2,1.5,0.1,2.7-0.6,3.1c-2.6,1-9.8,1.7-14-1
							C71.6,227.1,72.5,225.5,72.5,225.5z"/>
						<path class="st12" d="M72.3,226.8c4.2,2.7,11.3,2,14,1c0.3-0.2,0.8-0.6,1-1.1c0.6,1.2-0.3,2.2-0.9,2.5c-2.6,1-9.8,1.7-14-1
							c-0.4-0.6-0.4-1.3-0.3-1.8C72.2,226.6,72.2,226.7,72.3,226.8z"/>
						<path class="st13" d="M78.9,219.5c0.1,0,0.2,0,0.3,0c1.5-1.1,2.5,0,2.5,0c0.1,0.1,0.3,0.1,0.4,0s0.1-0.3,0-0.4
							c0,0-1.3-1.6-3.3-0.1c-0.1,0.1-0.2,0.3-0.1,0.4C78.8,219.5,78.8,219.5,78.9,219.5z"/>
						<path class="st13" d="M78.1,221.2c0.1,0,0.2,0,0.3-0.1c2-1.5,3.2,0,3.3,0.1c0.1,0.2,0.4,0.2,0.5,0.1c0.2-0.1,0.2-0.4,0.1-0.5
							c0,0-1.7-2.1-4.3-0.2c-0.2,0.1-0.2,0.4-0.1,0.5C77.9,221.1,78,221.1,78.1,221.2z"/>
					</g>
					<path class="st14" d="M75.4,151c0,0-0.4,49.5-1.6,63.4c1.2,2.2,7.2,2.5,10.1,1.5c2.6-12.2,8.6-50.1,8.6-50.1s2.7,43.2,3.3,49.1
						c4.9,2.3,10.1-0.6,10.2-1c0-0.1,3.3-31.6,1.9-64C95.7,150.9,75.4,151,75.4,151z"/>
					<path class="st15" d="M106.8,171.2c-0.4-6.7-6.5-7.9-5.9-1.5s4,18.6,4.6,25.1C106.9,186.5,107,174.4,106.8,171.2z"/>
					<path class="st16" d="M107,152.7c0,0,0.3,8.6,0.4,10.1c-8.7-8.6-25.9-5.2-30.7,4.7c0.7-9-0.4-16.6-0.4-16.6L107,152.7z"/>
					<path class="st17" d="M95.2,209.1c0,0-1.2,4.1,0.7,7c4.2,1.2,9.6,0.1,11.1-1.2c0.7-4.3-1-6.6-1-6.6S105.1,209.8,95.2,209.1z"/>
					<path class="st18" d="M95.8,209.6c4.2,0.3,5.9,0.3,8.2-0.1c-0.8,0.9-8.7,2.7-6.1,4.4c4.5,3,7.4,0.9,8.7-0.8c0,0.5,0,1-0.1,1.6
						c-1.1,0.7-3.7,2.3-10.1,0.8C94.7,212.9,95.8,209.6,95.8,209.6z"/>
					<path class="st17" d="M74.2,208.5c1.3,0.6,3.4,2.2,10.9,1.4c0.3,2.8-0.1,6.4-0.6,6.7c-3.1,0.7-8,1.3-11.5-1.3
						C72.4,211.5,74.2,208.5,74.2,208.5z"/>
					<path class="st18" d="M81.3,214.4c1.6-0.4,3.6-2.1-0.9-3.9c1.6,0.2,2.8,0.2,4.6,0.1c0.3,2.3-0.5,5.4-1,5.6
						c-3.1,0.5-7.2,1-10.4-1.2c-0.1-0.6-0.1-1.1-0.1-1.7C76.7,215,78.5,214.9,81.3,214.4z"/>
				</g>
				<g>
					<path class="st19" d="M76.3,107.9c2.2-1.4,5.2-2.2,9.2-3.1c6.3-0.7,9.4-0.3,9.4-0.3c3,0.8,5.1,1.7,7.7,3
						c1.7,3.4,2.9,8.5,3.9,13.5c1.1,5.4,3.6,23.1,4.8,32c-10.4,6.5-36,6.8-40.4,1C72.9,140.1,73.3,114.8,76.3,107.9z"/>
					<path class="st20" d="M86.7,151.4c9.5,4,20.2-8.3,20.6-15.2c0.8,4.9,2.6,15,1.9,15.7c-2,2.5-17.7,7.4-36.2,2.8
						c-0.5-10.9,2.3-25.3,2.9-29.4C75.6,138,77.2,147.3,86.7,151.4z"/>
					<path class="st21" d="M102.8,116.3c-2.5-6.2-7.9-4.9-5.4,1s6.2,10.7,6.9,18.8C105.1,127.4,104,119.3,102.8,116.3z"/>
				</g>
				<g>
					<path class="st22" d="M92,96.8c0,0,0.4,4,0.6,7.2c1.2,0.4,2.8,0.4,3.5,0.7c-0.5,4.3-10.1,4.3-12.7,0.7c1.1-0.4,2.4-0.8,3.1-1.1
						c-0.1-2.6-0.1-4.8-0.1-7.5C89.3,97,92,96.8,92,96.8z"/>
				</g>
				<path class="st7" d="M85.9,104.6c0.2-0.1,0.4-0.1,0.5-0.2c-0.1-2.6-0.1-4.8-0.1-7.5c2.5,0.1,4.8,0,5.5,0
					c0.1,1.3,0.2,2.9,0.3,4.3c0.1,0,0.2,0.1,0.3,0.1c0.1,0.9,0.1,1.9,0.2,2.8c0.3,0.1,0.7,0.2,1,0.3
					C91.5,105.3,88.4,105.4,85.9,104.6z"/>
				<path class="st0" d="M94.4,104.5c-0.1,1.4-6.2,3.6-9.1,0.2c-1.7-0.5-3.3,0.9-3.3,0.9s2.1,4.4,8.2,4c6.7-0.5,7.5-4.2,7.5-4.2
					S96.4,104.1,94.4,104.5z"/>
				<g>
					<g>
						<path class="st23" d="M113.8,52.2c0.8,0,5,5.4,4.1,9.6s0.8,4.7,2.2,4.9c-2.5,1-3.9,0.7-4.8-1.7c-1-2.5-1.7-6.4-4.3-7.9
							C111.7,54.3,113.8,52.2,113.8,52.2z"/>
						<g>
							<path class="st6" d="M114.6,59.5c3.5,8.2,5,33.5-16.5,40.9c-22.6,7.7-36.6-7.2-41.4-22.9c-5.8-19,8.3-32.3,21.7-35.4
								C99.3,37.3,110,48.6,114.6,59.5z"/>
							<path class="st7" d="M78.4,42.1c-13.4,3-27.6,16.4-21.7,35.4c0.8,2.6,1.9,5.2,3.2,7.7c0.7-0.3,1.4-0.8,2-1.4
								c0.9,0.6,0.6-4,0.6-4s3.5,1.7,7.2-0.2c-4.6-0.1-7.8-3.6-4.6-9.9C68.3,63.3,83,65,87.9,58.2c0,0-0.5,5.6-5.4,8.4
								c7.3-0.9,11-7.4,11-7.4s2.7,5.5-0.7,8.8c4.6-1.4,7-6.8,6-11.8c3.4,2.5,10.3,4.7,15.7,3C109.8,48.5,99.2,37.4,78.4,42.1z"/>
							<path class="st24" d="M103.5,80c0.2,2.1,3.4,3.4,6.5,2.3s4.5-3.8,4.1-6.2c-0.4-2.2-3.4-3.8-6.3-1.2
								C105.1,77.3,103.2,77.8,103.5,80z"/>
							
								<ellipse transform="matrix(0.9894 -0.145 0.145 0.9894 -9.7916 17.0547)" class="st25" cx="112.1" cy="75.7" rx="0.6" ry="0.5"/>
							
								<ellipse transform="matrix(0.9891 -0.1471 0.1471 0.9891 -10.2046 14.6133)" class="st26" cx="93.7" cy="76.3" rx="0.8" ry="0.5"/>
							<path class="st24" d="M68.7,86.2c0.5,2.8,3.5,4.4,7.2,4.1c3.6-0.3,6.8-3.5,5.8-6c-1-2.4-2.8-1.3-7.1-2.2
								C70.5,81.1,68.2,83.4,68.7,86.2z"/>
							
								<ellipse transform="matrix(0.9836 -0.1806 0.1806 0.9836 -14.0473 14.3169)" class="st25" cx="71.6" cy="84.3" rx="0.6" ry="0.5"/>
							<path class="st23" d="M104.2,59.2c-3.3-1-4,2.7-1.8,2.7c2.4,0,4.3,0.9,4.6,0.7C107.7,62.1,106.1,59.8,104.2,59.2z"/>
							<path class="st23" d="M73.7,64.5c2.8-2,4.7,1.2,2.6,1.9c-2.2,0.8-3.8,2.3-4.2,2.2C71.4,68.4,72.1,65.7,73.7,64.5z"/>
							<path class="st7" d="M56.3,76.8c-1.5-5.3-0.5-10.1,2-14.2c-1.2,3.4-1.6,8.1-0.4,12.3c4.4,15.6,19.6,30.7,40.1,23
								c14.1-5.3,17.6-18.8,17.8-29.1c0.5,10.5-1.4,23.4-17.9,30.3C78.5,107.3,60.7,92.4,56.3,76.8z"/>
						</g>
						<g>
							<path class="st27" d="M100.3,81.7c0,0,1.9,12.3-6.8,13.9s-8.2-10.7-8.2-10.7S91.8,86.2,100.3,81.7z"/>
							<path class="st28" d="M92.3,84.6c-0.1,3.1-0.8,7.5-4.2,9.5c-3-3-2.7-9.2-2.7-9.2S88,85.4,92.3,84.6z"/>
							<path class="st29" d="M98.5,92.4c-1,1.5-2.6,2.8-5,3.2c-4.3,0.8-6.3-1.8-7.3-4.7c0.3-0.6,1.7-1.2,3.1-0.6
								C90.7,87.9,96.2,89.5,98.5,92.4z"/>
							<path class="st30" d="M87.7,90.6c0.7-0.3,1.5-0.1,1.9,0.1c0.3-0.5,0.7-1.1,2-1.2c3.2-0.2,7.3,3.1,3.2,4.8
								C90.6,96,85.2,91.7,87.7,90.6z"/>
							<path class="st31" d="M94.4,90.7c-0.7-0.7-2.4-1.1-2.9-0.6c-0.6,0.5,0.9,1.4,1.9,1.5S94.8,91.2,94.4,90.7z"/>
							<path class="st0" d="M97.8,82.9c0.4,1.3,0.2,2.3-1.5,3c-1.6,0.7-3.9,1.2-5.6,1.3c-2,0.1-3-0.8-2.9-2.1
								C91.1,84.9,93.8,84.5,97.8,82.9z"/>
						</g>
						<g>
							
								<ellipse transform="matrix(0.6575 -0.7535 0.7535 0.6575 -29.6469 84.1158)" class="st7" cx="77.7" cy="74.7" rx="5.3" ry="5.6"/>
							<path class="st7" d="M75.3,78.3c-1.7,0.5-1.9,1.4-0.5,1.9s3.9,0.6,5.6,0c1.7-0.5,1.9-1.4,0.5-1.9S77,77.8,75.3,78.3z"/>
							
								<ellipse transform="matrix(0.6574 -0.7535 0.7535 0.6574 -29.3695 84.162)" class="st0" cx="77.9" cy="74.4" rx="5.2" ry="5.5"/>
							<path class="st32" d="M73.4,73.4c-0.1,1.4,0.5,2.9,1.7,4c2,1.8,5,1.7,6.7-0.3c0.5-0.5,0.8-1.2,0.9-1.8c0,1-0.4,1.9-1.1,2.7
								c-1.7,1.9-4.7,2-6.7,0.3C73.5,76.9,72.9,75,73.4,73.4z"/>
							
								<ellipse transform="matrix(0.9747 -0.2236 0.2236 0.9747 -14.6737 19.2127)" class="st33" cx="77.5" cy="74.4" rx="2.8" ry="3"/>
							<path class="st34" d="M79.3,74.1c0.2,1-0.3,2-1.3,2.2c-0.9,0.2-1.9-0.4-2.1-1.4s0.3-2,1.3-2.2C78.1,72.4,79,73.1,79.3,74.1z"
								/>
							
								<ellipse transform="matrix(0.9748 -0.2231 0.2231 0.9748 -14.3268 19.3784)" class="st0" cx="78.6" cy="73.1" rx="0.7" ry="0.8"/>
							
								<ellipse transform="matrix(0.9744 -0.225 0.225 0.9744 -15.0092 19.1002)" class="st0" cx="76.3" cy="75.4" rx="0.4" ry="0.5"/>
						</g>
						<g>
							<path class="st7" d="M98,68.6c-0.5,3,1.4,5.7,4.2,6.2c2.8,0.4,5.5-1.6,5.9-4.6c0.5-3-1.4-5.7-4.2-6.2
								C101.1,63.5,98.4,65.6,98,68.6z"/>
							<path class="st7" d="M100.6,73.4c-1.6,0.5-1.9,1.3-0.5,1.9c1.3,0.5,3.7,0.5,5.4,0c1.6-0.5,1.9-1.3,0.5-1.9
								C104.7,72.9,102.3,72.9,100.6,73.4z"/>
							<path class="st0" d="M98.5,68.6c-0.5,2.9,1.4,5.7,4.2,6.1c2.8,0.4,5.4-1.6,5.9-4.5s-1.4-5.7-4.2-6.1
								C101.6,63.6,99,65.6,98.5,68.6z"/>
							<path class="st32" d="M99.2,69c0.1-0.6,0.3-1.1,0.6-1.6c-0.1,0.3-0.2,0.6-0.2,0.9c-0.4,2.6,1.2,5,3.7,5.4
								c1.4,0.2,2.8-0.3,3.8-1.3c-0.9,1.4-2.6,2.2-4.2,1.9C100.4,73.9,98.8,71.5,99.2,69z"/>
							
								<ellipse transform="matrix(0.9748 -0.2232 0.2232 0.9748 -12.8578 24.6459)" class="st33" cx="102.6" cy="69.2" rx="2.8" ry="2.9"/>
							
								<ellipse transform="matrix(0.9748 -0.2231 0.2231 0.9748 -12.855 24.612)" class="st34" cx="102.5" cy="69.2" rx="1.7" ry="1.7"/>
							<path class="st0" d="M102.8,68.3c0.1,0.4,0.5,0.7,0.8,0.6c0.4-0.1,0.6-0.5,0.5-0.9s-0.5-0.7-0.8-0.6
								C102.9,67.5,102.7,67.9,102.8,68.3z"/>
							<path class="st0" d="M100.7,69.8c0.1,0.2,0.3,0.4,0.5,0.3s0.4-0.3,0.3-0.5s-0.3-0.4-0.5-0.3
								C100.8,69.4,100.6,69.6,100.7,69.8z"/>
						</g>
						<path class="st8" d="M94,79.6C94,79.6,94.1,79.6,94,79.6c1.2-0.6,1.7-1.6,1.5-2.7c-0.2-1-1-1.9-1.8-2
							c-0.5-0.1-1.6,0.1-2.3,1.9c0,0.1,0,0.2,0.1,0.2s0.2,0,0.2-0.1c0.5-1.2,1.2-1.8,2-1.7c0.7,0.1,1.4,0.8,1.6,1.7
							c0.1,0.5,0.1,1.6-1.3,2.3c-0.1,0-0.1,0.1-0.1,0.2C93.9,79.6,94,79.6,94,79.6z"/>
						<g>
							<path class="st23" d="M86.6,56c0,0-2.2,6-5.9,8.7c5-1.5,10.8-7.8,10.8-7.8s2.4,5.9-1.1,9.3c3.3-0.5,8.3-8.5,8.8-11
								c6.8,5,27.2,8.9,23.7-15.9c-1.7,3.4-2.9,4.2-5.5,4.2c0.5-1.6,0.1-4.3-0.8-5.2c-0.1,2.3-1,5.2-4.6,2.1
								c-3.6-3.2-4.9-11.7-19.1-14.6s-27.7,0.1-30.6,9.3c-8,0.2-12.3,5.8-13.1,12.5s-3.8,7.3-5.9,7.5c1.5,0.8,2.4,0.7,4,0.1
								c-1.1,2.9-3.3,3.6-0.4,8.3c2.9,4.7,7.8,16.5,2.3,18.4c0.7,3.2,7.4,6.1,11.9,1.7c1,0.6,0.6-4.1,0.6-4.1s2.2,3.7,6,1.7
								c-2.9-1.8-6.6-5.7-3.2-12.2C67.7,62.4,81.6,63.1,86.6,56z"/>
							<path class="st35" d="M86.1,48.3c0,0,6.6,6.7-5.4,16.4c14.1-3.1,14.6-13.8,12.1-18.2c3.8,2.7,2.8,16.5-2.8,19.9
								c5.7,0.3,14.6-13.4,6-22.3c8.5,10.5,29.5,21.5,26.8-4.9c-1.7,2.7-5.6,5.6-10,6.2c4-1.7,4.6-6.4,3.7-7.2
								c-0.1,2.3-1,5.2-4.6,2.1c-3.6-3.2-4.9-11.7-19.1-14.6S65.1,25.8,62.2,35c-8,0.2-12.3,5.8-13.1,12.5s-3.8,7.3-5.9,7.5
								c1.5,0.8,5-1.7,6.6-2.4c-0.7,4.2-6,6.1-3.1,10.8s-0.7,5.3-3,5.3c0.1,2.2,4.3,8.5,11.4,2.6c-3.6,4.3-0.6,8.6-6.1,10.6
								c0.7,3.2,7.4,6.1,11.9,1.7c1,0.6-2.5-8-2.5-8s3.3,4.7,5.1,4.3c-1.6-2.4-4.4-6.1-1.1-12.6C65.8,60.7,90.3,59,86.1,48.3z"/>
							<path class="st35" d="M64.8,32.9c0,0-1.4-4.2,0.8-6.7c-3.1,0.1-4.3,3.8-3.8,6.4c-4.3-2.4-7.6,1.2-7.6,1.2s6.3-0.3,7.4,2
								C65,36.8,64.8,32.9,64.8,32.9z"/>
							<path class="st23" d="M104.8,43.7c0,0,9.1,8.2,17.1-0.6c-2.6,7-6.5,12.3-14.2,8.9c4.4,0.2,7-0.8,9.5-3.5
								C112.8,49.2,107.3,46.8,104.8,43.7z"/>
							<path class="st23" d="M74.1,43.1c-0.4-0.2,13.8,3.9,10.1,9.2c-3.7,5.3-14.3,6.3-18,9.4c1-2.2,5-3.9,9.6-6.1
								C80.3,53.4,83.5,47.1,74.1,43.1z"/>
							<path class="st36" d="M62.2,36.1c0,0-8.3-0.6-11.4,9C52.6,41.7,56.6,37.7,62.2,36.1z"/>
							<path class="st23" d="M107.8,37.7c0,0,4.6,5.7,8.1,4.2C113.9,43.2,111.1,45,107.8,37.7z"/>
							<path class="st23" d="M94.7,44.4c0,0,8.3,6.3,2,14.3C97.5,53.7,99.1,52,94.7,44.4z"/>
							<path class="st36" d="M62.7,38.8c-2.1-1.5-12.6,8.7-10,18.7c2-7.6,5.3-10.2,5.3-10.2s-4.2,5.2-2.8,16.6
								c4.3-12.5,9.7-16,9.7-16s-3.8,9-6.6,13.8c8.7-7.2,11.6-18.1,9.6-20.6c-2-2-8.4,7.8-8.4,7.8S64.5,40,62.7,38.8z"/>
							<path class="st36" d="M64.9,33.4c4.8-5.3,13.8-11,31.3-4.6c-9-1.9-15.2,0.3-15.2,0.3s20.2,1.1,27.3,11.6
								c-6.5-6.1-20.8-10.4-33-6.9c7.5,2.3,18.5,3.3,18.5,3.3S77.1,40,70.7,35.3c4.9,5.5,11.8,7,11.8,7s-12.6-1.1-16.7-7.7
								c3.5-2.4,7.9-4.2,15.3-4.1C74.7,27.3,64.9,33.4,64.9,33.4z"/>
						</g>
						<g>
							<path class="st6" d="M62.1,81c0,0-2.3-3.3-6.2-1.9c-4.2,1.5-2.9,7.7,1,10.2s8.6,0.9,8.5-2.6L62.1,81z"/>
							<path class="st7" d="M56.4,79.3c1-0.4,1.9-0.4,2.7-0.2c-0.6-0.1-1.2-0.1-1.9,0.2c-3.9,1.5-2.3,6.1,0.2,8.2
								c3.3,2.8,7.1,1.6,8-1.1c0.1,3.2-4.3,4.7-8,2.4C53.7,86.4,52.5,80.6,56.4,79.3z"/>
							<path class="st37" d="M55.9,81c2.3-1.8,7,2.4,4.9,6.8c-0.4-4.4-2.4-5-3.3-2.3c-0.6-1.2-0.3-2.3,1.3-2.9
								C57.8,81.1,55.9,81,55.9,81z"/>
						</g>
					</g>
				</g>
				<g>
					<path class="st6" d="M67.4,123.3c0,0-2.2,2-3.6,6c-1.1,3-4.4,20.3,14.5,23.2c0.7,1.1,2.5,3.2,3.1,2.4c0.3-0.5-1.1-2.1-1.1-2.1
						s3.1,2.4,3.7,0.9c0.4-1.1-2.5-2.5-2.5-2.5s3.7,0.7,3.9-0.6c0.2-1.3-3.9-1.2-3.9-1.2s3.5-0.7,3.2-1.9s-5.4,0.8-5.4,0.8
						s1.2-1.7,0.1-2.1c-1.1-0.3-2.1,2.8-2.1,2.8s-12.9-4.1-9.9-15.9c1.1-4.3,3-6.3,3-6.4C69.9,123.4,67.4,123.3,67.4,123.3z"/>
					<path class="st7" d="M64.8,127.9c1.1-2.2,1.9-3.5,1.9-3.5s4.3-0.9,2.8,2.4c-0.5,0.6-1.2,1.7-1.9,3.2
						C68.2,128.3,66.5,126.6,64.8,127.9z"/>
				</g>
				<g>
					<g>
						<g>
							<path class="st38" d="M102.4,107.3c3.2,1.2,10.6,6.4,14.4,15.3c-3.7,3.8-9.4,4.7-9.4,4.7s-1.5-4.1-3.1-9.6
								C102.6,111.8,102.4,107.3,102.4,107.3z"/>
						</g>
					</g>
				</g>
				<path class="st39" d="M116.4,121.9c-0.2-0.5-0.5-1.1-0.8-1.6c-3.5,2.5-9.4-0.4-11.1-5.7c-0.9-2.8-1.2-4.4-1-6.7
					c-0.4-0.2-0.8-0.4-1.2-0.5c0,0,0.1,2.8,1,6.8c0.2,0.9,0.4,1.8,0.7,2.8c1.6,5.4,3.1,9.6,3.1,9.6S112.8,125.6,116.4,121.9z"/>
				<g>
					<g>
						<g>
							<path class="st38" d="M76.3,107.9c-3.1,1.4-10,7.3-13.1,16.5c4,3.5,10.1,3.8,10.1,3.8s0.8-4.1,1.9-9.6
								C76.5,112.4,76.3,107.9,76.3,107.9z"/>
						</g>
					</g>
				</g>
				<path class="st39" d="M63.6,123.6c0.2-0.6,0.4-1.1,0.7-1.7c3.7,2.2,9.3-1.1,10.6-6.6c0.7-2.9,0.8-4.5,0.4-6.8
					c0.4-0.2,0.8-0.5,1.1-0.6c0,0,0.1,2.8-0.4,6.8c-0.1,0.9-0.3,1.8-0.5,2.8c-1.1,5.5-2.3,9.8-2.3,9.8S67.5,126.9,63.6,123.6z"/>
			</g>
		</g>
	</g>
</g>
</svg>
