<?xml version="1.0" encoding="utf-8"?>
<!-- Generator: Adobe Illustrator 21.0.0, SVG Export Plug-In . SVG Version: 6.00 Build 0)  -->
<svg version="1.1" id="Layer_1" xmlns="http://www.w3.org/2000/svg" xmlns:xlink="http://www.w3.org/1999/xlink" x="0px" y="0px"
	 viewBox="0 0 180 180" style="enable-background:new 0 0 180 180;" xml:space="preserve">
<style type="text/css">
	.st0{fill:#FFFFFF;}
	.st1{display:none;}
	.st2{display:inline;}
	.st3{fill:url(#SVGID_1_);}
	.st4{fill:#F47769;}
	.st5{clip-path:url(#SVGID_4_);}
	.st6{fill:#FBC6A4;}
	.st7{fill:#EAAD85;}
	.st8{fill:#CE7754;}
	.st9{fill:#8F494A;}
	.st10{fill:#6D3334;}
	.st11{fill:#EAEBEC;}
	.st12{fill:#C4C5C7;}
	.st13{fill:#E7DDDC;}
	.st14{fill:#9EA0A3;}
	.st15{fill:#B9BBBD;}
	.st16{fill:#818385;}
	.st17{fill:#5C5D60;}
	.st18{fill:#4E4F51;}
	.st19{fill:#F05A30;}
	.st20{fill:#E1492A;}
	.st21{fill:#F37A53;}
	.st22{fill:#F4C1A8;}
	.st23{fill:#5E2820;}
	.st24{fill:#F8AF9A;}
	.st25{fill:#FBD3C4;}
	.st26{fill:#FCD8C1;}
	.st27{fill:#4D1F1C;}
	.st28{fill:#321514;}
	.st29{fill:#EC756C;}
	.st30{fill:#F48F87;}
	.st31{fill:#F7B0AD;}
	.st32{fill:#D9DBDC;}
	.st33{fill:#9DC2E7;}
	.st34{fill:#231F20;}
	.st35{fill:#723026;}
	.st36{fill:#8A4A37;}
	.st37{fill:#D5956A;}
	.st38{fill:#C73822;}
	.st39{fill:#A92B16;}
	.st40{fill:#4C73BF;}
</style>
<rect class="st0" width="180" height="180"/>
<g>
	<g>
		<g>
			<g class="st1">
				<g class="st2">
					<g>
						
							<radialGradient id="SVGID_1_" cx="96.3333" cy="191" r="167.1662" gradientTransform="matrix(1 0 0 -1 0 275)" gradientUnits="userSpaceOnUse">
							<stop  offset="0" style="stop-color:#FFFFFF"/>
							<stop  offset="1" style="stop-color:#FFA194;stop-opacity:0.6"/>
						</radialGradient>
						<rect id="SVGID_2_" x="0.4" y="0.1" class="st3" width="180" height="180"/>
					</g>
				</g>
			</g>
			<g>
				<g>
					<g>
						<path class="st4" d="M168.9,173.6h-2.6V173h2.6V173.6z M163.1,173.6h-2.6V173h2.6V173.6z M157.3,173.6h-2.6V173h2.6V173.6z
							 M151.5,173.6H149V173h2.6v0.6H151.5z M145.8,173.6h-2.6V173h2.6V173.6z M140,173.6h-2.6V173h2.6V173.6z M134.2,173.6h-2.6
							V173h2.6V173.6z M128.5,173.6h-2.6V173h2.6V173.6z M122.7,173.6h-2.6V173h2.6V173.6z M116.9,173.6h-2.6V173h2.6V173.6z
							 M111.2,173.6h-2.6V173h2.6V173.6z M105.4,173.6h-2.6V173h2.6V173.6z M99.6,173.6H97V173h2.6V173.6z M93.9,173.6h-2.6V173h2.6
							V173.6z M88.1,173.6h-2.6V173h2.6V173.6z M82.3,173.6h-2.6V173h2.6V173.6z M76.5,173.6H74V173h2.6L76.5,173.6L76.5,173.6z
							 M70.8,173.6h-2.6V173h2.6V173.6z M65,173.6h-2.6V173H65V173.6z M59.2,173.6h-2.6V173h2.6V173.6z M53.5,173.6h-2.6V173h2.6
							V173.6z M47.7,173.6h-2.6V173h2.6V173.6z M41.9,173.6h-2.6V173h2.6V173.6z M36.2,173.6h-2.6V173h2.6V173.6z M30.4,173.6h-2.6
							V173h2.6V173.6z M24.6,173.6H22V173h2.6V173.6z M18.9,173.6h-2.6V173h2.6V173.6z M13.1,173.6H12c-0.5,0-1-0.1-1.5-0.2l0.2-0.6
							c0.4,0.1,0.9,0.2,1.3,0.2h1.1V173.6z M171.5,172.8l-0.3-0.5c0.7-0.4,1.2-1,1.6-1.8l0.6,0.3
							C172.9,171.6,172.3,172.3,171.5,172.8z M7.8,171.3c-0.5-0.8-0.8-1.7-0.8-2.6h0.6c0,0.8,0.3,1.6,0.7,2.2L7.8,171.3z
							 M173.9,167.5h-0.6V165h0.6V167.5z M7.6,165.5H6.9V163h0.6L7.6,165.5L7.6,165.5z M173.9,161.8h-0.6v-2.6h0.6V161.8z
							 M7.6,159.8H6.9v-2.6h0.6L7.6,159.8L7.6,159.8z M173.9,156h-0.6v-2.6h0.6V156z M7.6,154H6.9v-2.6h0.6L7.6,154L7.6,154z
							 M173.9,150.2h-0.6v-2.6h0.6V150.2z M7.6,148.2H6.9v-2.6h0.6L7.6,148.2L7.6,148.2z M173.9,144.4h-0.6v-2.6h0.6V144.4z
							 M7.6,142.4H6.9v-2.6h0.6L7.6,142.4L7.6,142.4z M173.9,138.7h-0.6v-2.6h0.6V138.7z M7.6,136.7H6.9v-2.6h0.6L7.6,136.7
							L7.6,136.7z M173.9,132.9h-0.6v-2.6h0.6V132.9z M7.6,130.9H6.9v-2.6h0.6L7.6,130.9L7.6,130.9z M173.9,127.1h-0.6v-2.6h0.6
							V127.1z M7.6,125.1H6.9v-2.6h0.6L7.6,125.1L7.6,125.1z M173.9,121.4h-0.6v-2.6h0.6V121.4z M7.6,119.4H6.9v-2.6h0.6L7.6,119.4
							L7.6,119.4z M173.9,115.6h-0.6V113h0.6V115.6z M7.6,113.6H6.9V111h0.6L7.6,113.6L7.6,113.6z M173.9,109.8h-0.6v-2.6h0.6V109.8
							z M7.6,107.8H6.9v-2.6h0.6L7.6,107.8L7.6,107.8z M173.9,104.1h-0.6v-2.6h0.6V104.1z M7.6,102.1H6.9v-2.6h0.6L7.6,102.1
							L7.6,102.1z M173.9,98.3h-0.6v-2.6h0.6V98.3z M7.6,96.3H6.9v-2.6h0.6L7.6,96.3L7.6,96.3z M173.9,92.5h-0.6V90h0.6V92.5z
							 M7.6,90.5H6.9V88h0.6L7.6,90.5L7.6,90.5z M173.9,86.8h-0.6v-2.6h0.6V86.8z M7.6,84.8H6.9v-2.6h0.6L7.6,84.8L7.6,84.8z
							 M173.9,81h-0.6v-2.6h0.6V81z M7.6,79H6.9v-2.6h0.6L7.6,79L7.6,79z M173.9,75.2h-0.6v-2.6h0.6V75.2z M7.6,73.2H6.9v-2.6h0.6
							L7.6,73.2L7.6,73.2z M173.9,69.4h-0.6v-2.6h0.6V69.4z M7.6,67.4H6.9v-2.6h0.6L7.6,67.4L7.6,67.4z M173.9,63.7h-0.6v-2.6h0.6
							V63.7z M7.6,61.7H6.9v-2.6h0.6L7.6,61.7L7.6,61.7z M173.9,57.9h-0.6v-2.6h0.6V57.9z M7.6,55.9H6.9v-2.6h0.6L7.6,55.9L7.6,55.9
							z M173.9,52.1h-0.6v-2.6h0.6V52.1z M7.6,50.1H6.9v-2.6h0.6L7.6,50.1L7.6,50.1z M173.9,46.4h-0.6v-2.6h0.6V46.4z M7.6,44.4H6.9
							v-2.6h0.6L7.6,44.4L7.6,44.4z M173.9,40.6h-0.6V38h0.6V40.6z M7.6,38.6H6.9V36h0.6L7.6,38.6L7.6,38.6z M173.9,34.8h-0.6v-2.6
							h0.6V34.8z M7.6,32.8H6.9v-2.6h0.6L7.6,32.8L7.6,32.8z M173.9,29.1h-0.6v-2.6h0.6V29.1z M7.6,27.1H6.9v-2.6h0.6L7.6,27.1
							L7.6,27.1z M173.9,23.3h-0.6v-2.6h0.6V23.3z M7.6,21.3H6.9v-2.6h0.6L7.6,21.3L7.6,21.3z M173.9,17.5h-0.6V15h0.6V17.5z
							 M7.6,15.5H6.9V13h0.6L7.6,15.5L7.6,15.5z M173.9,11.8h-0.6v-0.1c0-0.8-0.2-1.5-0.6-2.2l0.6-0.3c0.4,0.8,0.7,1.6,0.7,2.5
							L173.9,11.8L173.9,11.8z M7.9,9.9L7.3,9.7c0.4-0.9,1-1.6,1.7-2.1l0.4,0.5C8.8,8.6,8.2,9.2,7.9,9.9z M170.4,7.6
							c-0.5-0.2-1-0.3-1.6-0.3H168V6.6h0.8c0.6,0,1.2,0.1,1.8,0.3L170.4,7.6z M164.8,7.3h-2.6V6.6h2.6V7.3z M159,7.3h-2.6V6.6h2.6
							V7.3z M153.3,7.3h-2.6V6.6h2.6V7.3z M147.5,7.3h-2.6V6.6h2.6V7.3z M141.7,7.3h-2.6V6.6h2.6V7.3z M136,7.3h-2.6V6.6h2.6V7.3z
							 M130.2,7.3h-2.6V6.6h2.6V7.3z M124.4,7.3h-2.6V6.6h2.6V7.3z M118.6,7.3H116V6.6h2.6V7.3z M112.9,7.3h-2.6V6.6h2.6V7.3z
							 M107.1,7.3h-2.6V6.6h2.6V7.3z M101.3,7.3h-2.6V6.6h2.6V7.3z M95.6,7.3H93V6.6h2.6V7.3z M89.8,7.3h-2.6V6.6h2.6V7.3z M84,7.3
							h-2.6V6.6H84V7.3z M78.3,7.3h-2.6V6.6h2.6V7.3z M72.5,7.3h-2.6V6.6h2.6V7.3z M66.7,7.3h-2.6V6.6h2.6V7.3z M61,7.3h-2.6V6.6H61
							V7.3z M55.2,7.3h-2.6V6.6h2.6V7.3z M49.4,7.3h-2.6V6.6h2.6V7.3z M43.6,7.3H41V6.6h2.6V7.3z M37.9,7.3h-2.6V6.6h2.6V7.3z
							 M32.1,7.3h-2.6V6.6h2.6V7.3z M26.3,7.3h-2.6V6.6h2.6V7.3z M20.6,7.3H18V6.6h2.6V7.3z M14.8,7.3h-2.6V6.6h2.6
							C14.8,6.6,14.8,7.3,14.8,7.3z"/>
					</g>
				</g>
			</g>
		</g>
	</g>
</g>
<g>
	<g>
		<defs>
			<ellipse id="SVGID_3_" cx="58.7" cy="55.3" rx="110.8" ry="100"/>
		</defs>
		<clipPath id="SVGID_4_">
			<use xlink:href="#SVGID_3_"  style="overflow:visible;"/>
		</clipPath>
		<g class="st5">
			<g>
				<path class="st6" d="M75.9,123.3c0,0,4.1,10.9,10.6,17.9c-0.4,1.3,0.3,2.8,1.8,4.2c0.7,1.3,1.5,2,1.9,1.7
					c0.5-0.4-0.5-1.8-0.7-2.1c0.1,0,1.4,1.6,1.7,1.9c0.7,0.7,1.5,0.1,1-0.6c-0.4-0.6-1.5-2-1.6-2.1c0.1,0,1.7,1.4,2,1.7
					c0.9,0.8,1.8-0.1,0.9-1c-0.7-0.6-1.9-1.7-1.9-1.8c0.1,0,1.1,0.6,1.8,0.8c1.1,0.5,1.6-0.4,0.5-1.1c-0.9-0.6-2.9-2.1-2.9-2.1
					s1.7-0.5,1.3-1.5c-0.3-0.9-3.2,0.1-3.2,0.1s-4.5-5.9-9.4-16.6C78,120.2,75.9,123.3,75.9,123.3z"/>
				<path class="st7" d="M77.9,127.5c-0.9-2.4-1.6-3.7-1.6-3.7s1.7-3.7,3.4-1c0.4,1.4,0.6,1.9,1,3.1
					C79.9,124.5,77.7,124.7,77.9,127.5z"/>
				<path class="st8" d="M88.8,141.7C88.8,141.7,88.8,141.6,88.8,141.7c0-0.2,0.1-0.2,0.2-0.1c0.9,0.5,1.6-0.2,1.9-0.7
					c0-0.1,0.1-0.1,0.1,0c0.1,0,0.1,0.1,0,0.2C90.7,141.5,89.9,142.3,88.8,141.7L88.8,141.7z"/>
			</g>
			<g>
				<g>
					<polygon class="st6" points="67.9,200.6 68.7,204.4 72.1,203.9 71.3,199.8 					"/>
					<path class="st9" d="M68.3,202.8c0,0,0.4,4.4,0.5,6.4c3.2,2.1,12.1,2.2,15.2,1c1.9-1.9,0.9-6.9-2.9-8.4s-6.5,1.4-7.2,2.2
						c-0.5-0.3-1.9-0.7-1.9-0.7l-0.3-1C71.7,202.1,71.1,202.8,68.3,202.8z"/>
					<path class="st10" d="M71.6,202.6L71.6,202.6c-0.4,0.4-1.8,1.7-1.6,3.2c2.9,1.9,12.8,4.1,13.7-1.4l0,0c0.7,1.6,1.3,3.9,0.1,5
						c-2.9,1-11.5,1.2-14.5-0.6c-0.2-1.7-0.6-5.6-0.6-5.6C71.4,203.3,71.6,202.6,71.6,202.6z"/>
					<path class="st11" d="M68.6,207.6c1.2,0.8,8,2.7,16.4,0.5c0.6,1.7-0.5,2.6-0.5,2.6s-8.3,2.4-15.8-0.6
						C68,209.6,68.6,207.6,68.6,207.6z"/>
					<path class="st12" d="M68.6,207.6c0.1,0,0.2,0.1,0.3,0.2c0,0.4,0.1,0.8,0.3,1c7.5,3.1,15.8,0.6,15.8,0.6s0.1-0.1,0.2-0.2
						c-0.1,0.9-0.7,1.4-0.7,1.4s-8.3,2.4-15.8-0.6C68,209.6,68.6,207.6,68.6,207.6z"/>
					<path class="st13" d="M70.7,204.7c0.1,0,0.1-0.1,0.2-0.1c0.8-1.5,1.9-0.9,1.9-0.9c0.1,0.1,0.3,0,0.3-0.1c0.1-0.1,0-0.3-0.1-0.3
						c0,0-1.6-0.8-2.6,1.1c-0.1,0.1,0,0.3,0.1,0.3C70.5,204.7,70.6,204.7,70.7,204.7z"/>
					<path class="st13" d="M73.3,205.7c0-0.1,0.1-0.1,0.1-0.2c-0.3-1.6,0.9-1.9,1-1.9s0.2-0.2,0.2-0.3s-0.2-0.2-0.3-0.2
						c0,0-1.7,0.4-1.4,2.5c0,0.1,0.1,0.2,0.3,0.2C73.2,205.8,73.3,205.8,73.3,205.7z"/>
				</g>
				<g>
					<polygon class="st6" points="52.4,199.6 51.4,204.5 55.3,204.5 55.8,200 					"/>
					<path class="st9" d="M51.8,202.4c0,0-0.2,1-0.2,1.3c-2.2-0.3-5,2.2-4.9,7.1c4.3,2.3,11.9,0.8,11.9,0.8s1.7-5.2-3.1-7.7
						c0.1-1.1,0-1.2,0-1.2S53.6,203.4,51.8,202.4z"/>
					<path class="st10" d="M47.9,207.4c3.7,1.6,9.7,0.5,10,0.5c0.5,1.8,0,3.5,0,3.5s-6.7,1.3-10.5-0.7
						C47.4,209.4,47.6,208.3,47.9,207.4z"/>
					<path class="st11" d="M46.7,209c1.6,0.8,8.6,1.9,12.3,0.5c1,1.3,0.1,2.3-0.5,2.6c-2.3,0.9-8.4,1.5-11.9-0.8
						C45.9,210.4,46.7,209,46.7,209z"/>
					<path class="st12" d="M46.5,210.2c3.6,2.3,9.7,1.7,11.9,0.8c0.3-0.2,0.7-0.5,0.8-0.9c0.5,1-0.3,1.9-0.8,2.2
						c-2.3,0.9-8.4,1.5-11.9-0.8c-0.3-0.5-0.3-1.1-0.2-1.5C46.4,210,46.5,210.1,46.5,210.2z"/>
					<path class="st13" d="M52.2,203.9c0.1,0,0.1,0,0.2,0c1.3-1,2.1,0,2.1,0c0.1,0.1,0.2,0.1,0.3,0s0.1-0.2,0-0.3
						c0,0-1.1-1.4-2.8-0.1c-0.1,0.1-0.1,0.2-0.1,0.3C52.1,203.9,52.1,203.9,52.2,203.9z"/>
					<path class="st13" d="M51.5,205.3c0.1,0,0.2,0,0.3,0c1.7-1.3,2.7,0,2.8,0c0.1,0.1,0.3,0.2,0.4,0.1c0.1-0.1,0.2-0.3,0.1-0.4
						c0,0-1.5-1.8-3.7-0.2c-0.1,0.1-0.2,0.3-0.1,0.4S51.4,205.3,51.5,205.3z"/>
				</g>
				<path class="st14" d="M49.2,145.4c0,0-0.3,42.3-1.3,54.2c1,1.9,6.2,2.1,8.6,1.3c2.3-10.5,7.4-42.8,7.4-42.8s2.3,36.9,2.8,42
					c4.2,2,8.6-0.5,8.7-0.9c0-0.1,2.8-27,1.6-54.7C66.5,145.3,49.2,145.4,49.2,145.4z"/>
				<path class="st15" d="M76.1,162.6c-0.4-5.8-5.5-6.8-5.1-1.3c0.5,5.5,3.4,15.9,3.9,21.5C76.2,175.7,76.2,165.4,76.1,162.6z"/>
				<path class="st16" d="M76.2,146.8c0,0,0.2,7.4,0.4,8.6c-7.5-7.3-22.2-4.4-26.2,4c0.6-7.7-0.3-14.2-0.3-14.2L76.2,146.8z"/>
				<path class="st17" d="M66.1,195.1c0,0-1,3.5,0.6,6c3.6,1.1,8.2,0.1,9.5-1c0.6-3.7-0.8-5.6-0.8-5.6S74.6,195.6,66.1,195.1z"/>
				<path class="st18" d="M66.6,195.5c3.6,0.2,5.1,0.3,7-0.1c-0.7,0.8-7.4,2.3-5.2,3.8c3.8,2.5,6.3,0.7,7.4-0.7c0,0.4,0,0.9-0.1,1.4
					c-1,0.6-3.1,2-8.7,0.6C65.7,198.2,66.6,195.5,66.6,195.5z"/>
				<path class="st17" d="M48.2,194.5c1.1,0.5,2.9,1.8,9.3,1.2c0.3,2.4-0.1,5.4-0.5,5.7c-2.7,0.6-6.8,1.1-9.8-1.1
					C46.7,197.1,48.2,194.5,48.2,194.5z"/>
				<path class="st18" d="M54.3,199.6c1.4-0.3,3.1-1.8-0.8-3.4c1.4,0.2,2.4,0.2,4,0c0.2,2-0.5,4.6-0.8,4.8c-2.7,0.5-6.1,0.9-8.9-1
					c-0.1-0.5-0.1-1-0.1-1.4C50.3,200.1,51.8,200,54.3,199.6z"/>
			</g>
			<g>
				<path class="st19" d="M50,108.5c1.9-1.2,4.4-1.9,7.8-2.7c5.3-0.6,8.1-0.2,8.1-0.2c2.6,0.7,4.3,1.5,6.6,2.5
					c1.5,2.9,2.5,7.2,3.4,11.5c1,4.6,3.1,19.7,4.1,27.3c-8.9,5.6-30.8,5.8-34.6,0.9C47.1,136.1,47.4,114.4,50,108.5z"/>
				<path class="st20" d="M58.8,145.7c8.1,3.5,17.2-7.1,17.6-13c0.7,4.2,2.2,12.8,1.6,13.5c-1.7,2.1-15.1,6.3-30.9,2.4
					c-0.5-9.3,2-21.6,2.5-25.1C49.4,134.2,50.8,142.2,58.8,145.7z"/>
				<path class="st21" d="M72.7,115.7c-2.1-5.3-6.7-4.2-4.6,0.9c2.2,5,5.3,9.2,5.9,16.1C74.6,125.2,73.7,118.2,72.7,115.7z"/>
			</g>
			<g>
				<path class="st22" d="M63.4,99.1c0,0,0.3,3.4,0.5,6.2c1.1,0.4,2.4,0.4,3,0.6c-0.4,3.6-8.6,3.7-10.9,0.6c1-0.4,2.1-0.7,2.7-1
					c-0.1-2.2-0.1-4.1-0.1-6.4C61.1,99.2,63.4,99.1,63.4,99.1z"/>
			</g>
			<path class="st7" d="M58.2,105.7c0.2-0.1,0.3-0.1,0.5-0.2c-0.1-2.2-0.1-4.1-0.1-6.4c2.2,0.1,4.1,0,4.7,0c0.1,1.1,0.2,2.5,0.3,3.7
				c0.1,0,0.2,0.1,0.2,0.1c0.1,0.8,0.1,1.6,0.2,2.4c0.3,0.1,0.6,0.2,0.8,0.2C63,106.3,60.3,106.4,58.2,105.7z"/>
			<path class="st0" d="M65.5,105.6c-0.1,1.2-5.3,3.1-7.8,0.2c-1.5-0.4-2.9,0.8-2.9,0.8s1.8,3.8,7,3.4c5.7-0.4,6.4-3.6,6.4-3.6
				S67.2,105.3,65.5,105.6z"/>
			<g>
				<g>
					<path class="st23" d="M82.1,60.9c0.7,0,4.3,4.6,3.5,8.2s0.7,4,1.9,4.2c-2.1,0.8-3.3,0.6-4.1-1.5c-0.8-2.1-1.5-5.4-3.7-6.8
						C80.2,62.7,82.1,60.9,82.1,60.9z"/>
					<g>
						<path class="st6" d="M82.7,67.1c3,7,4.3,28.7-14.1,35c-19.3,6.6-31.3-6.1-35.4-19.6c-5-16.2,7.1-27.6,18.6-30.2
							C69.7,48.2,78.7,57.9,82.7,67.1z"/>
						<path class="st7" d="M51.8,52.3c-11.5,2.6-23.6,14-18.6,30.2c0.7,2.3,1.6,4.5,2.7,6.6c0.6-0.3,1.2-0.7,1.7-1.2
							c0.8,0.5,0.5-3.4,0.5-3.4s3,1.4,6.2-0.2c-3.9-0.1-6.7-3-3.9-8.5c2.8-5.4,15.3-4,19.5-9.8c0,0-0.4,4.7-4.7,7.2
							c6.3-0.8,9.4-6.3,9.4-6.3s2.3,4.7-0.6,7.5c4-1.2,6-5.8,5.1-10.1c2.9,2.1,8.8,4,13.4,2.5C78.6,57.7,69.5,48.2,51.8,52.3z"/>
						<path class="st24" d="M73.2,84.7c0.2,1.8,2.9,2.9,5.6,2c2.6-0.9,3.8-3.2,3.5-5.3c-0.3-1.9-2.9-3.3-5.4-1
							C74.6,82.3,73,82.8,73.2,84.7z"/>
						
							<ellipse transform="matrix(0.9894 -0.145 0.145 0.9894 -10.8947 12.5283)" class="st25" cx="80.5" cy="81" rx="0.5" ry="0.4"/>
						
							<ellipse transform="matrix(0.9891 -0.1471 0.1471 0.9891 -11.2816 10.4341)" class="st26" cx="64.9" cy="81.5" rx="0.6" ry="0.4"/>
						<path class="st24" d="M43.5,90c0.4,2.4,3,3.8,6.2,3.5c3.1-0.3,5.8-3,5-5.2c-0.8-2.1-2.4-1.1-6.1-1.9C45,85.6,43,87.6,43.5,90z
							"/>
						
							<ellipse transform="matrix(0.9836 -0.1806 0.1806 0.9836 -15.1905 9.7576)" class="st25" cx="46" cy="88.3" rx="0.5" ry="0.4"/>
						<path class="st23" d="M73.9,66.9c-2.8-0.8-3.4,2.3-1.6,2.3c2,0,3.7,0.8,4,0.6C76.8,69.4,75.5,67.4,73.9,66.9z"/>
						<path class="st23" d="M47.7,71.5c2.4-1.7,4,1,2.3,1.7c-1.9,0.7-3.2,2-3.5,1.9C45.8,74.8,46.4,72.4,47.7,71.5z"/>
						<path class="st7" d="M32.9,82c-1.3-4.6-0.4-8.6,1.7-12.1c-1.1,2.9-1.4,6.9-0.4,10.5C38,93.7,51,106.6,68.5,100
							c12.1-4.5,15-16,15.2-24.8c0.4,9-1.2,20-15.3,25.9C51.9,108,36.6,95.3,32.9,82z"/>
					</g>
					<g>
						<path class="st27" d="M70.5,86.1c0,0,1.6,10.5-5.8,11.9s-7-9.2-7-9.2S63.2,89.9,70.5,86.1z"/>
						<path class="st28" d="M63.6,88.6c-0.1,2.6-0.7,6.4-3.6,8.2c-2.5-2.6-2.3-7.9-2.3-7.9S60,89.3,63.6,88.6z"/>
						<path class="st29" d="M68.9,95.3c-0.9,1.3-2.2,2.4-4.3,2.7c-3.7,0.7-5.4-1.6-6.3-4c0.3-0.5,1.4-1.1,2.6-0.5
							C62.3,91.4,67,92.8,68.9,95.3z"/>
						<path class="st30" d="M59.7,93.7c0.6-0.2,1.3-0.1,1.6,0.1c0.2-0.4,0.6-0.9,1.7-1c2.8-0.2,6.2,2.6,2.7,4.1
							C62.2,98.4,57.6,94.7,59.7,93.7z"/>
						<path class="st31" d="M65.4,93.8c-0.6-0.6-2.1-0.9-2.5-0.5c-0.5,0.5,0.8,1.2,1.6,1.3C65.4,94.7,65.8,94.2,65.4,93.8z"/>
						<path class="st0" d="M68.3,87.1c0.3,1.1,0.2,2-1.3,2.6c-1.4,0.6-3.4,1-4.8,1.1c-1.7,0-2.5-0.7-2.5-1.8
							C62.6,88.9,64.9,88.5,68.3,87.1z"/>
					</g>
					<g>
						
							<ellipse transform="matrix(0.6575 -0.7535 0.7535 0.6575 -42.9407 66.0057)" class="st7" cx="51.1" cy="80.2" rx="4.6" ry="4.8"/>
						<path class="st7" d="M49.1,83.2c-1.4,0.4-1.6,1.2-0.5,1.7c1.2,0.5,3.3,0.5,4.8,0c1.4-0.4,1.7-1.2,0.5-1.7
							C52.7,82.8,50.6,82.8,49.1,83.2z"/>
						
							<ellipse transform="matrix(0.6574 -0.7535 0.7535 0.6574 -42.6659 66.038)" class="st0" cx="51.3" cy="79.9" rx="4.4" ry="4.7"/>
						<path class="st32" d="M47.5,79c-0.1,1.2,0.4,2.5,1.5,3.4c1.7,1.5,4.3,1.4,5.7-0.2c0.4-0.5,0.7-1,0.8-1.6
							c0,0.8-0.3,1.7-0.9,2.3c-1.4,1.6-4,1.7-5.7,0.2C47.6,82.1,47.1,80.4,47.5,79z"/>
						
							<ellipse transform="matrix(0.9747 -0.2236 0.2236 0.9747 -16.5745 13.4273)" class="st33" cx="51" cy="79.9" rx="2.4" ry="2.5"/>
						
							<ellipse transform="matrix(0.9744 -0.2247 0.2247 0.9744 -16.6447 13.5234)" class="st34" cx="51.1" cy="79.9" rx="1.5" ry="1.6"/>
						
							<ellipse transform="matrix(0.9748 -0.2231 0.2231 0.9748 -16.2727 13.5637)" class="st0" cx="51.9" cy="78.8" rx="0.6" ry="0.6"/>
						<ellipse transform="matrix(0.9744 -0.225 0.225 0.9744 -16.8772 13.3183)" class="st0" cx="50" cy="80.7" rx="0.4" ry="0.4"/>
					</g>
					<g>
						<path class="st7" d="M68.5,74.9c-0.4,2.5,1.2,4.9,3.6,5.3s4.7-1.4,5.1-3.9S76,71.4,73.6,71S68.9,72.4,68.5,74.9z"/>
						<path class="st7" d="M70.8,79c-1.4,0.4-1.6,1.1-0.4,1.6c1.1,0.4,3.2,0.5,4.6,0c1.4-0.4,1.6-1.1,0.4-1.6
							C74.2,78.6,72.2,78.6,70.8,79z"/>
						<path class="st0" d="M69,74.9c-0.4,2.5,1.2,4.9,3.6,5.2c2.4,0.4,4.6-1.4,5-3.9S76.4,71.3,74,71C71.6,70.7,69.4,72.4,69,74.9z"
							/>
						<path class="st32" d="M69.5,75.3c0.1-0.5,0.3-1,0.5-1.4c-0.1,0.2-0.2,0.5-0.2,0.8c-0.4,2.2,1.1,4.3,3.1,4.6
							c1.2,0.2,2.4-0.3,3.3-1.1c-0.8,1.2-2.2,1.9-3.6,1.6C70.6,79.4,69.2,77.4,69.5,75.3z"/>
						
							<ellipse transform="matrix(0.9748 -0.2232 0.2232 0.9748 -14.9995 18.0837)" class="st33" cx="72.5" cy="75.4" rx="2.4" ry="2.5"/>
						
							<ellipse transform="matrix(0.9748 -0.2231 0.2231 0.9748 -15.0028 18.0285)" class="st34" cx="72.3" cy="75.4" rx="1.4" ry="1.5"/>
						
							<ellipse transform="matrix(0.9749 -0.2226 0.2226 0.9749 -14.7467 18.1638)" class="st0" cx="73.2" cy="74.5" rx="0.6" ry="0.6"/>
						<path class="st0" d="M70.8,76c0,0.2,0.2,0.3,0.4,0.3c0.2,0,0.3-0.2,0.3-0.5c0-0.2-0.2-0.3-0.4-0.3
							C70.9,75.6,70.8,75.8,70.8,76z"/>
					</g>
					<path class="st8" d="M65.1,84.4C65.1,84.4,65.2,84.4,65.1,84.4c1-0.5,1.5-1.3,1.3-2.3c-0.2-0.9-0.8-1.6-1.6-1.7
						c-0.5,0-1.3,0.1-2,1.7c0,0.1,0,0.1,0.1,0.2c0.1,0,0.1,0,0.2-0.1c0.4-1,1-1.6,1.7-1.5c0.6,0.1,1.2,0.7,1.3,1.4
						c0.1,0.4,0.1,1.4-1.1,2c-0.1,0-0.1,0.1-0.1,0.2C65,84.3,65.1,84.4,65.1,84.4z"/>
					<g>
						<path class="st23" d="M58.8,64.2c0,0-1.9,5.1-5,7.4C58.1,70.3,63,65,63,65s2,5-1,7.9c2.8-0.4,7.1-7.3,7.5-9.4
							c5.8,4.3,23.2,7.6,20.3-13.6c-1.4,2.9-2.5,3.6-4.7,3.5c0.4-1.4,0.1-3.7-0.7-4.4c-0.1,2-0.8,4.5-3.9,1.8s-4.2-10-16.3-12.5
							c-12.2-2.5-23.6,0.1-26.1,7.9c-6.8,0.1-10.5,4.9-11.2,10.7s-3.3,6.2-5,6.4c1.3,0.6,2,0.6,3.4,0c-1,2.4-2.8,3.1-0.4,7.1
							c2.5,4,6.7,14.1,1.9,15.8c0.6,2.7,6.3,5.2,10.2,1.5c0.8,0.5,0.5-3.5,0.5-3.5s1.9,3.1,5.1,1.5c-2.5-1.6-5.6-4.8-2.8-10.4
							C42.6,69.6,54.5,70.2,58.8,64.2z"/>
						<path class="st35" d="M58.4,57.6c0,0,5.6,5.7-4.6,14c12-2.7,12.4-11.8,10.3-15.6c3.2,2.3,2.4,14.1-2.4,17
							c4.8,0.3,12.5-11.4,5.1-19.1c7.3,9,25.2,18.4,22.9-4.2c-1.5,2.3-4.8,4.8-8.5,5.3c3.4-1.4,3.9-5.5,3.2-6.2
							c-0.1,2-0.8,4.5-3.9,1.8s-4.2-10-16.3-12.5C52,35.6,40.6,38.2,38.1,46c-6.8,0.1-10.5,4.9-11.2,10.7s-3.3,6.2-5,6.4
							c1.3,0.6,4.3-1.5,5.7-2c-0.6,3.6-5.1,5.2-2.6,9.2s-0.6,4.5-2.5,4.5c0.1,1.9,3.7,7.3,9.7,2.2c-3.1,3.6-0.5,7.4-5.2,9
							c0.6,2.7,6.3,5.2,10.2,1.5c0.8,0.5-2.1-6.9-2.1-6.9s2.8,4.1,4.3,3.7c-1.3-2.1-3.8-5.2-0.9-10.8C41,68.1,61.9,66.8,58.4,57.6z"
							/>
						<path class="st35" d="M40.1,44.4c0,0-1.2-3.6,0.7-5.7c-2.7,0.1-3.7,3.3-3.3,5.5c-3.6-2.1-6.5,1-6.5,1s5.4-0.3,6.3,1.7
							C40.3,47.8,40.1,44.4,40.1,44.4z"/>
						<path class="st23" d="M74.3,53.6c0,0,7.7,7,14.6-0.5c-2.2,6-5.5,10.5-12.1,7.6c3.7,0.2,5.9-0.7,8.1-3
							C81.2,58.4,76.5,56.3,74.3,53.6z"/>
						<path class="st23" d="M48.1,53.1c-0.4-0.2,11.8,3.4,8.6,7.9s-12.2,5.4-15.4,8c0.8-1.9,4.3-3.3,8.2-5.2
							C53.4,62,56.1,56.6,48.1,53.1z"/>
						<path class="st36" d="M37.9,47.2c0,0-7.1-0.5-9.7,7.7C29.7,51.9,33.1,48.5,37.9,47.2z"/>
						<path class="st23" d="M76.9,48.5c0,0,3.9,4.9,6.9,3.6C82.1,53.2,79.7,54.8,76.9,48.5z"/>
						<path class="st23" d="M65.7,54.3c0,0,7.1,5.4,1.7,12.2C68.1,62.2,69.5,60.8,65.7,54.3z"/>
						<path class="st36" d="M38.4,49.4c-1.8-1.2-10.8,7.4-8.6,16c1.7-6.5,4.5-8.8,4.5-8.8s-3.6,4.5-2.4,14.2
							c3.6-10.7,8.3-13.7,8.3-13.7S37,64.9,34.6,69c7.4-6.1,9.9-15.5,8.2-17.6c-1.7-1.7-7.2,6.6-7.2,6.6S39.9,50.5,38.4,49.4z"/>
						<path class="st36" d="M40.2,44.8c4.1-4.5,11.8-9.4,26.7-4c-7.7-1.6-13,0.2-13,0.2s17.3,1,23.4,9.9C71.8,45.7,59.6,42,49.1,45
							c6.4,2.1,15.7,3,15.7,3S50.6,50.5,45,46.5c4.2,4.7,10.1,6,10.1,6s-10.7-1-14.2-6.6c3-2.1,6.7-3.6,13-3.5
							C48.6,39.7,40.2,44.8,40.2,44.8z"/>
					</g>
					<g>
						<path class="st6" d="M37.8,85.6c0,0-1.9-2.8-5.3-1.7c-3.6,1.3-2.5,6.6,0.9,8.7c3.4,2.1,7.4,0.7,7.3-2.2L37.8,85.6z"/>
						<path class="st7" d="M33,84c0.9-0.3,1.6-0.3,2.3-0.2c-0.5-0.1-1.1,0-1.6,0.2c-3.3,1.3-2,5.2,0.1,7c2.9,2.4,6.1,1.4,6.9-1
							c0.1,2.8-3.7,4-6.8,2.1C30.6,90.1,29.6,85.2,33,84z"/>
						<path class="st37" d="M32.5,85.6c2-1.5,6,2.1,4.2,5.8c-0.4-3.8-2.1-4.3-2.9-2c-0.5-1-0.3-2,1.1-2.5
							C34.2,85.6,32.5,85.6,32.5,85.6z"/>
					</g>
				</g>
			</g>
			<g>
				<path class="st6" d="M42.4,121.7c0,0-1.9,1.8-3.1,5.2c-0.9,2.5-3.7,17.3,12.4,19.9c0.6,0.9,2.2,2.8,2.7,2
					c0.3-0.4-0.9-1.8-0.9-1.8s2.6,2,3.1,0.8c0.4-0.9-2.2-2.2-2.2-2.2s3.1,0.6,3.3-0.5s-3.3-1-3.3-1s3-0.6,2.7-1.6
					c-0.3-1.1-4.6,0.7-4.6,0.7s1-1.5,0.1-1.8s-1.8,2.4-1.8,2.4s-11-3.5-8.4-13.6c1-3.7,2.5-5.4,2.6-5.5
					C44.5,121.8,42.4,121.7,42.4,121.7z"/>
				<path class="st7" d="M40.1,125.6c0.9-1.9,1.7-3,1.7-3s3.7-0.8,2.4,2c-0.4,0.5-1.1,1.5-1.6,2.7C43.1,126,41.6,124.5,40.1,125.6z"
					/>
			</g>
			<g>
				<g>
					<g>
						<path class="st38" d="M72.3,108c2.7,1,9,5.5,12.3,13.1c-3.1,3.3-8,4-8,4s-1.3-3.5-2.6-8.2C72.5,111.9,72.3,108,72.3,108z"/>
					</g>
				</g>
			</g>
			<path class="st39" d="M84.3,120.5c-0.2-0.5-0.4-0.9-0.7-1.4c-3,2.2-8-0.3-9.5-4.9c-0.8-2.4-1-3.8-0.8-5.7c-0.4-0.2-0.7-0.3-1-0.4
				c0,0,0.1,2.4,0.8,5.8c0.2,0.8,0.4,1.5,0.6,2.4c1.3,4.6,2.6,8.2,2.6,8.2S81.1,123.6,84.3,120.5z"/>
			<g>
				<g>
					<g>
						<path class="st38" d="M50,108.5c-2.6,1.2-8.5,6.2-11.2,14.1c3.4,3,8.6,3.2,8.6,3.2s0.7-3.5,1.6-8.2
							C50.1,112.4,50,108.5,50,108.5z"/>
					</g>
				</g>
			</g>
			<path class="st39" d="M39.1,121.9c0.2-0.5,0.4-1,0.6-1.4c3.1,1.9,7.9-1,9-5.7c0.6-2.4,0.7-3.9,0.4-5.8c0.3-0.2,0.7-0.4,0.9-0.5
				c0,0,0.1,2.4-0.4,5.8c-0.1,0.8-0.2,1.6-0.4,2.4c-0.9,4.7-2,8.4-2,8.4S42.5,124.8,39.1,121.9z"/>
		</g>
	</g>
</g>
<g>
	<path class="st40" d="M126.2,108.6h-4.9c-2.3,0-4-0.9-5.1-2.8c-0.9-1.4-1.4-4.3-1.6-8.5c0-1.8-0.4-4.9-1-9.5
		c-0.6-4.2-0.9-7.3-0.9-9.4c0-0.7,0-1.1,0.1-1.5c0-0.3,1.3-1.4,3.7-3.4c0,0.2,0.3,3.9,1,11.2c0.6,6.5,0.9,10.5,0.9,11.9
		c0,1.6,0.3,2.8,0.8,3.5c0.6,0.7,1.7,1.1,3.3,1.2c-2.5,0-1.2-0.1,3.7-0.1V108.6z"/>
	<path class="st40" d="M134.6,97.7c0,3-0.6,5.5-1.8,7.4c-1.5,2.3-3.7,3.5-6.6,3.5h-2.4v-7.3c5.1,0,7.6-0.6,7.6-1.7
		c0-0.2-0.4-0.8-1.3-1.8c-0.9-0.9-1.3-1.7-1.3-2.3c0-0.8,1.1-3.2,3.2-7.2C133.7,92,134.6,95.1,134.6,97.7z M133.6,81.8l-2.5,4.3
		l-4.5-3.1l2.6-4.3L133.6,81.8z"/>
	<path class="st40" d="M150.7,67.5c-0.2,0.9-0.5,1.6-0.8,1.9s-0.9,0.6-1.8,0.8l-9.3,2.7c0.8-1.6,2-2.6,3.7-3.1
		c-1.7-1.1-2.5-2.1-2.5-2.8c0-1.1,0.8-2.4,2.5-3.9c1.7-1.5,3.1-2.3,4.2-2.3c1.3,0,2,0.6,2,1.9c0,0.5-0.3,1.4-0.9,2.7
		c-1.3-0.8-2.4-1.3-3.2-1.3c-0.9,0-1.7,0.5-2.5,1.4c2.3,1.7,4.1,2.6,5.3,2.6C148.6,68,149.7,67.8,150.7,67.5z"/>
	<path class="st40" d="M147,99.4c0,2.5-0.6,5.1-1.7,7.8h-1.2c0-4-0.4-8.2-1.3-12.8c-1.4-7.4-2.1-12.1-2.1-14.1
		c0-1.2,0.4-2.4,1.3-3.6c0.3-0.5,1.2-1.5,2.6-3c0,2.7,0.4,7,1.2,12.8C146.6,92.3,147,96.6,147,99.4z"/>
</g>
</svg>
