<?xml version="1.0" encoding="utf-8"?>
<!-- Generator: Adobe Illustrator 21.0.0, SVG Export Plug-In . SVG Version: 6.00 Build 0)  -->
<svg version="1.1" id="Layer_1" xmlns="http://www.w3.org/2000/svg" xmlns:xlink="http://www.w3.org/1999/xlink" x="0px" y="0px"
	 viewBox="0 0 180 180" style="enable-background:new 0 0 180 180;" xml:space="preserve">
<style type="text/css">
	.st0{fill:#FFFFFF;}
	.st1{display:none;}
	.st2{display:inline;}
	.st3{fill:url(#SVGID_1_);}
	.st4{fill:#508906;}
	.st5{clip-path:url(#SVGID_4_);}
	.st6{fill:#CAECD3;}
	.st7{opacity:0.5;fill:#D0DBFD;enable-background:new    ;}
	.st8{fill:#4A9ECF;}
	.st9{opacity:0.5;}
	.st10{fill:#D0DBFD;}
	.st11{enable-background:new    ;}
	.st12{opacity:0.5;fill:#4A9ECF;enable-background:new    ;}
	.st13{opacity:0.5;fill:#23739B;enable-background:new    ;}
	.st14{opacity:0.6;fill:#113F6A;enable-background:new    ;}
	.st15{fill:#421794;}
	.st16{fill:#122B46;}
	.st17{opacity:0.45;}
	.st18{opacity:0.45;fill:#122B46;enable-background:new    ;}
	.st19{fill:#113F6A;}
	.st20{fill:#77AD74;}
	.st21{opacity:0.34;}
	.st22{opacity:0.34;fill:#77AD74;enable-background:new    ;}
	.st23{opacity:0.34;fill:#113F6A;enable-background:new    ;}
	.st24{fill:#6E7A82;}
	.st25{opacity:0.34;fill:#6E7A82;enable-background:new    ;}
	.st26{opacity:0.3;}
	.st27{opacity:0.5;enable-background:new    ;}
	.st28{fill:#1C6582;}
	.st29{fill:#F4D0A4;}
	.st30{fill:#F49166;}
	.st31{opacity:0.45;fill:#F4D0A4;enable-background:new    ;}
	.st32{opacity:0.25;fill:#FA8C89;enable-background:new    ;}
	.st33{fill:#297796;}
	.st34{fill:#3689B2;}
	.st35{fill:#FFE0C2;}
	.st36{opacity:0.62;fill:#F4D0A4;enable-background:new    ;}
	.st37{opacity:0.45;fill:#E8B277;enable-background:new    ;}
	.st38{fill:#FFFCF8;}
	.st39{fill:#FDE9CF;}
	.st40{fill:#1E0C29;}
	.st41{fill:#847966;}
	.st42{fill:#908774;}
	.st43{fill:#9E9482;}
	.st44{fill:#ADA497;}
	.st45{fill:#961207;}
	.st46{fill:#EFC19C;}
	.st47{fill:#D39D79;}
</style>
<rect class="st0" width="180" height="180"/>
<rect class="st0" width="180" height="180"/>
<g>
	<g>
		<g>
			<g class="st1">
				<g class="st2">
					<g>
						
							<radialGradient id="SVGID_1_" cx="96.3333" cy="-300" r="167.1662" gradientTransform="matrix(1 0 0 1 0 384)" gradientUnits="userSpaceOnUse">
							<stop  offset="0.173" style="stop-color:#FFFFFF"/>
							<stop  offset="1" style="stop-color:#36CDFF;stop-opacity:0.3"/>
						</radialGradient>
						<rect id="SVGID_2_" x="0.4" y="0.1" class="st3" width="180" height="180"/>
					</g>
				</g>
			</g>
			<g>
				<g>
					<g>
						<path class="st4" d="M168.9,173.6h-2.6V173h2.6V173.6z M163.1,173.6h-2.6V173h2.6V173.6z M157.3,173.6h-2.6V173h2.6V173.6z
							 M151.5,173.6H149V173h2.6v0.6H151.5z M145.8,173.6h-2.6V173h2.6V173.6z M140,173.6h-2.6V173h2.6V173.6z M134.2,173.6h-2.6
							V173h2.6V173.6z M128.5,173.6h-2.6V173h2.6V173.6z M122.7,173.6h-2.6V173h2.6V173.6z M116.9,173.6h-2.6V173h2.6V173.6z
							 M111.2,173.6h-2.6V173h2.6V173.6z M105.4,173.6h-2.6V173h2.6V173.6z M99.6,173.6H97V173h2.6V173.6z M93.9,173.6h-2.6V173h2.6
							V173.6z M88.1,173.6h-2.6V173h2.6V173.6z M82.3,173.6h-2.6V173h2.6V173.6z M76.5,173.6H74V173h2.6L76.5,173.6L76.5,173.6z
							 M70.8,173.6h-2.6V173h2.6V173.6z M65,173.6h-2.6V173H65V173.6z M59.2,173.6h-2.6V173h2.6V173.6z M53.5,173.6h-2.6V173h2.6
							V173.6z M47.7,173.6h-2.6V173h2.6V173.6z M41.9,173.6h-2.6V173h2.6V173.6z M36.2,173.6h-2.6V173h2.6V173.6z M30.4,173.6h-2.6
							V173h2.6V173.6z M24.6,173.6H22V173h2.6V173.6z M18.9,173.6h-2.6V173h2.6V173.6z M13.1,173.6H12c-0.5,0-1-0.1-1.5-0.2l0.2-0.6
							c0.4,0.1,0.9,0.2,1.3,0.2h1.1V173.6z M171.5,172.8l-0.3-0.5c0.7-0.4,1.2-1,1.6-1.8l0.6,0.3
							C172.9,171.6,172.3,172.3,171.5,172.8z M7.8,171.3c-0.5-0.8-0.8-1.7-0.8-2.6h0.6c0,0.8,0.3,1.6,0.7,2.2L7.8,171.3z
							 M173.9,167.5h-0.6V165h0.6V167.5z M7.6,165.5H6.9V163h0.6L7.6,165.5L7.6,165.5z M173.9,161.8h-0.6v-2.6h0.6V161.8z
							 M7.6,159.8H6.9v-2.6h0.6L7.6,159.8L7.6,159.8z M173.9,156h-0.6v-2.6h0.6V156z M7.6,154H6.9v-2.6h0.6L7.6,154L7.6,154z
							 M173.9,150.2h-0.6v-2.6h0.6V150.2z M7.6,148.2H6.9v-2.6h0.6L7.6,148.2L7.6,148.2z M173.9,144.4h-0.6v-2.6h0.6V144.4z
							 M7.6,142.4H6.9v-2.6h0.6L7.6,142.4L7.6,142.4z M173.9,138.7h-0.6v-2.6h0.6V138.7z M7.6,136.7H6.9v-2.6h0.6L7.6,136.7
							L7.6,136.7z M173.9,132.9h-0.6v-2.6h0.6V132.9z M7.6,130.9H6.9v-2.6h0.6L7.6,130.9L7.6,130.9z M173.9,127.1h-0.6v-2.6h0.6
							V127.1z M7.6,125.1H6.9v-2.6h0.6L7.6,125.1L7.6,125.1z M173.9,121.4h-0.6v-2.6h0.6V121.4z M7.6,119.4H6.9v-2.6h0.6L7.6,119.4
							L7.6,119.4z M173.9,115.6h-0.6V113h0.6V115.6z M7.6,113.6H6.9V111h0.6L7.6,113.6L7.6,113.6z M173.9,109.8h-0.6v-2.6h0.6V109.8
							z M7.6,107.8H6.9v-2.6h0.6L7.6,107.8L7.6,107.8z M173.9,104.1h-0.6v-2.6h0.6V104.1z M7.6,102.1H6.9v-2.6h0.6L7.6,102.1
							L7.6,102.1z M173.9,98.3h-0.6v-2.6h0.6V98.3z M7.6,96.3H6.9v-2.6h0.6L7.6,96.3L7.6,96.3z M173.9,92.5h-0.6V90h0.6V92.5z
							 M7.6,90.5H6.9V88h0.6L7.6,90.5L7.6,90.5z M173.9,86.8h-0.6v-2.6h0.6V86.8z M7.6,84.8H6.9v-2.6h0.6L7.6,84.8L7.6,84.8z
							 M173.9,81h-0.6v-2.6h0.6V81z M7.6,79H6.9v-2.6h0.6L7.6,79L7.6,79z M173.9,75.2h-0.6v-2.6h0.6V75.2z M7.6,73.2H6.9v-2.6h0.6
							L7.6,73.2L7.6,73.2z M173.9,69.4h-0.6v-2.6h0.6V69.4z M7.6,67.4H6.9v-2.6h0.6L7.6,67.4L7.6,67.4z M173.9,63.7h-0.6v-2.6h0.6
							V63.7z M7.6,61.7H6.9v-2.6h0.6L7.6,61.7L7.6,61.7z M173.9,57.9h-0.6v-2.6h0.6V57.9z M7.6,55.9H6.9v-2.6h0.6L7.6,55.9L7.6,55.9
							z M173.9,52.1h-0.6v-2.6h0.6V52.1z M7.6,50.1H6.9v-2.6h0.6L7.6,50.1L7.6,50.1z M173.9,46.4h-0.6v-2.6h0.6V46.4z M7.6,44.4H6.9
							v-2.6h0.6L7.6,44.4L7.6,44.4z M173.9,40.6h-0.6V38h0.6V40.6z M7.6,38.6H6.9V36h0.6L7.6,38.6L7.6,38.6z M173.9,34.8h-0.6v-2.6
							h0.6V34.8z M7.6,32.8H6.9v-2.6h0.6L7.6,32.8L7.6,32.8z M173.9,29.1h-0.6v-2.6h0.6V29.1z M7.6,27.1H6.9v-2.6h0.6L7.6,27.1
							L7.6,27.1z M173.9,23.3h-0.6v-2.6h0.6V23.3z M7.6,21.3H6.9v-2.6h0.6L7.6,21.3L7.6,21.3z M173.9,17.5h-0.6V15h0.6V17.5z
							 M7.6,15.5H6.9V13h0.6L7.6,15.5L7.6,15.5z M173.9,11.8h-0.6v-0.1c0-0.8-0.2-1.5-0.6-2.2l0.6-0.3c0.4,0.8,0.7,1.6,0.7,2.5
							L173.9,11.8L173.9,11.8z M7.9,9.9L7.3,9.7c0.4-0.9,1-1.6,1.7-2.1l0.4,0.5C8.8,8.6,8.2,9.2,7.9,9.9z M170.4,7.6
							c-0.5-0.2-1-0.3-1.6-0.3H168V6.6h0.8c0.6,0,1.2,0.1,1.8,0.3L170.4,7.6z M164.8,7.3h-2.6V6.6h2.6V7.3z M159,7.3h-2.6V6.6h2.6
							V7.3z M153.3,7.3h-2.6V6.6h2.6V7.3z M147.5,7.3h-2.6V6.6h2.6V7.3z M141.7,7.3h-2.6V6.6h2.6V7.3z M136,7.3h-2.6V6.6h2.6V7.3z
							 M130.2,7.3h-2.6V6.6h2.6V7.3z M124.4,7.3h-2.6V6.6h2.6V7.3z M118.6,7.3H116V6.6h2.6V7.3z M112.9,7.3h-2.6V6.6h2.6V7.3z
							 M107.1,7.3h-2.6V6.6h2.6V7.3z M101.3,7.3h-2.6V6.6h2.6V7.3z M95.6,7.3H93V6.6h2.6V7.3z M89.8,7.3h-2.6V6.6h2.6V7.3z M84,7.3
							h-2.6V6.6H84V7.3z M78.3,7.3h-2.6V6.6h2.6V7.3z M72.5,7.3h-2.6V6.6h2.6V7.3z M66.7,7.3h-2.6V6.6h2.6V7.3z M61,7.3h-2.6V6.6H61
							V7.3z M55.2,7.3h-2.6V6.6h2.6V7.3z M49.4,7.3h-2.6V6.6h2.6V7.3z M43.6,7.3H41V6.6h2.6V7.3z M37.9,7.3h-2.6V6.6h2.6V7.3z
							 M32.1,7.3h-2.6V6.6h2.6V7.3z M26.3,7.3h-2.6V6.6h2.6V7.3z M20.6,7.3H18V6.6h2.6V7.3z M14.8,7.3h-2.6V6.6h2.6
							C14.8,6.6,14.8,7.3,14.8,7.3z"/>
					</g>
				</g>
			</g>
		</g>
	</g>
</g>
<g>
	<g>
		<g>
			<g>
				<g>
					<g>
						<g>
							<g>
								<g>
									<defs>
										<ellipse id="SVGID_3_" cx="90" cy="46.9" rx="129.7" ry="117"/>
									</defs>
									<clipPath id="SVGID_4_">
										<use xlink:href="#SVGID_3_"  style="overflow:visible;"/>
									</clipPath>
									<g class="st5">
										<g>
											<ellipse class="st6" cx="81.3" cy="346.3" rx="66.6" ry="14.4"/>
											<g>
												<path class="st0" d="M112.6,189.7c0,0-3,11.6,6.5,14.3c0,0,2.4-4.1,1.6-8.3C119.9,191.6,113.5,188.7,112.6,189.7z"/>
												<path class="st7" d="M112.6,189.7c0,0-3,11.6,6.5,14.3c0,0,2.4-4.1,1.6-8.3C119.9,191.6,113.5,188.7,112.6,189.7z"/>
												<path class="st7" d="M112.6,189.7c0,0-3,11.6,6.5,14.3c0,0,2.4-4.1,1.6-8.3C119.9,191.6,113.5,188.7,112.6,189.7z"/>
												<g>
													<g>
														<path class="st8" d="M120.3,103.3c0,0,20,50.4,16.7,65c-3.5,14.5-33.7,30.9-46.8,33.2c0,0,6.5-5.2-1.8-15.6
															c0,0,31.8-16.9,32.2-24.5c0.4-7.7-12.8-33.4-12.8-33.4S105.4,112.9,120.3,103.3z"/>
														<g class="st9">
															<g>
																<path class="st10" d="M130.5,162.3c0-0.1-1.2-0.8-2.6-1.3c-0.7-0.2-1.5-0.4-2-0.4c-0.5-0.1-0.9,0-0.9,0
																	s-0.4,0-1,0.1s-1.3,0.3-1.9,0.7c-0.6,0.3-1.2,0.8-1.6,1.3c-0.3,0.4-0.6,0.8-0.5,0.8c0,0,0.3-0.3,0.6-0.6
																	c0.4-0.3,0.9-0.9,1.5-1.1c0.6-0.2,1.3-0.4,1.9-0.6c0.4-0.1,0.9-0.1,0.9-0.1s0.4,0,0.9,0s1.2,0.1,1.9,0.3
																	C129.2,161.8,130.5,162.4,130.5,162.3z"/>
															</g>
															<g>
																<path class="st10" d="M126.9,157.7c-0.1-0.1-1.1,0.2-2,0.6c-1,0.4-1.8,1.1-1.8,1.1s-0.8,0.7-1.5,1.4
																	c-0.7,0.8-1.2,1.7-1.1,1.7s0.7-0.8,1.4-1.4c0.8-0.7,1.6-1.4,1.6-1.4s0.8-0.7,1.7-1.2
																	C125.9,158.2,126.8,157.8,126.9,157.7z"/>
															</g>
														</g>
													</g>
													<g class="st11">
														<path class="st12" d="M88.4,185.9L88.4,185.9C88.3,185.9,88.3,185.9,88.4,185.9C88.3,185.9,88.3,185.9,88.4,185.9z"/>
														<path class="st13" d="M136.9,168.3L136.9,168.3c0.1-0.3,0.1-0.5,0.2-0.8c0-0.1,0.1-0.2,0-0.3c0.1-0.2,0-0.4,0.1-0.6
															c0-0.1,0-0.2,0-0.4s0-0.4,0-0.6c0-0.1,0-0.2,0-0.3c0-0.4,0-0.6,0-1c0,0,0,0,0-0.1c0-0.4,0-0.6-0.1-1.1
															c0-0.1,0-0.3,0-0.4c0-0.3,0-0.5-0.1-0.8c-0.1-0.1,0-0.3-0.1-0.4c0-0.3,0-0.5-0.1-0.9c-0.1-0.1,0-0.3-0.1-0.4
															c-0.1-0.4-0.1-0.9-0.1-1.2c0,0,0-0.1-0.1-0.1c-0.1-0.4-0.2-0.8-0.1-1.2c0-0.2-0.1-0.3-0.1-0.4
															c-0.1-0.3-0.1-0.6-0.1-0.9c0-0.2-0.1-0.3-0.2-0.5c-0.1-0.3-0.1-0.7-0.1-1c-0.1-0.1-0.1-0.3-0.1-0.4
															c-0.2-0.5-0.1-0.9-0.3-1.4c0-0.1-0.1-0.1,0-0.2c-0.1-0.4-0.1-0.9-0.2-1.2c0-0.2-0.1-0.3-0.2-0.5
															c-0.1-0.3-0.2-0.7-0.2-1c0-0.2-0.1-0.3-0.2-0.5c-0.1-0.4-0.2-0.7-0.2-1.1c-0.1-0.1-0.1-0.3-0.2-0.5
															c-0.2-0.5-0.2-1-0.4-1.5c0-0.1-0.1-0.1,0-0.2c-0.2-0.5-0.1-0.9-0.3-1.3c0-0.2-0.1-0.3-0.2-0.5
															c-0.1-0.4-0.2-0.7-0.3-1.1c0-0.2-0.1-0.3-0.2-0.5c-0.2-0.5-0.2-0.8-0.3-1.3c-0.1-0.1-0.1-0.3-0.2-0.5
															c-0.2-0.5-0.3-1-0.4-1.6c0-0.1-0.1-0.1,0-0.2c-0.2-0.5-0.2-0.9-0.4-1.4c0-0.2-0.1-0.3-0.2-0.5
															c-0.1-0.4-0.2-0.7-0.3-1.1c0-0.2-0.1-0.3-0.2-0.5c-0.2-0.5-0.3-0.8-0.3-1.3c-0.1-0.1-0.1-0.3-0.1-0.4
															c-0.3-0.5-0.3-1-0.5-1.6c0-0.1-0.1-0.1,0-0.2c-0.2-0.5-0.2-0.9-0.5-1.4c-0.1-0.1-0.1-0.3-0.2-0.5
															c-0.2-0.5-0.2-0.7-0.4-1.2c0-0.2-0.1-0.3-0.2-0.5c-0.2-0.5-0.3-0.8-0.4-1.3c-0.1-0.1,0-0.2-0.1-0.3
															c-0.3-0.5-0.3-1-0.6-1.5c0,0,0,0-0.1-0.1c-0.2-0.5-5.5-16.4-5.6-16.9c-0.1-0.1-0.1-0.3-0.2-0.5
															c-0.2-0.5-0.2-0.7-0.4-1.2c-0.1-0.1-0.1-0.3-0.2-0.5c-0.2-0.5-0.3-0.8-0.4-1.3c-0.1-0.1,0-0.2-0.1-0.3
															c-0.3-0.5-0.3-0.9-0.6-1.4l0,0c-0.2-0.1-0.3-0.2-0.3-0.2c0.3,0.5,12.7,46.7,8,50.5c-4.6,3.7-18.1-23.7-18.8-30.7
															c-0.6-6.8,2-12.7,1.8-12.7l0,0c-0.4,0.6-0.8,1.1-1.1,1.7l0,0c-0.3,0.6-0.8,1.4-1.1,2.3c-0.2,0.4-0.4,0.9-0.6,1.4
															c0,0.1-0.1,0.2-0.1,0.4c-0.1,0.4-0.3,1-0.4,1.3v0.1c-0.1,0.4-0.3,0.9-0.3,1.2c0,0.1-0.1,0.2-0.1,0.3
															c-0.1,0.4-0.2,0.8-0.2,1.2v0.1c0,0.4-0.1,0.7-0.1,1.1c0,0.1-0.1,0.2-0.1,0.2c0,0.4,0,0.7-0.1,1.1v0.1
															c0,0.4,0,0.6,0,0.9v0.1c0,0.3,0,0.6,0,0.9c0,0.9,0.1,1.7,0.3,2.6c0.1,0.1,0.1,0.1,0.1,0.3l0.1,0.1
															c0.1,0.1,0.1,0.1,0.1,0.3c0.1,0.1,0,0.2,0.1,0.3s0.1,0.1,0.1,0.3c0.1,0.1,0.1,0.3,0.3,0.5l0.1,0.1
															c0.1,0.1,0.2,0.4,0.3,0.5c0.1,0.1,0.1,0.1,0.1,0.3c0.1,0.3,0.2,0.5,0.2,0.6c0.1,0.1,0.1,0.1,0.1,0.3
															c0.1,0.3,0.3,0.5,0.4,0.8c0,0,0,0,0.1,0.1c1.2,2.5,2.9,6,4.5,9.6l0.1,0.1c0.2,0.5,0.4,0.9,0.5,1.3
															c0.1,0.1,0,0.2,0.1,0.3c0.2,0.5,0.3,0.7,0.5,1.2c0.1,0.1,0.1,0.3,0.2,0.4c0.2,0.4,0.3,0.7,0.4,1.1
															c0.1,0.1,0.1,0.3,0.2,0.5c0.2,0.4,0.2,0.6,0.4,1c0.1,0.1,0.1,0.3,0.2,0.5c0.1,0.3,0.2,0.6,0.3,0.9
															c0.1,0.1,0.1,0.3,0.3,0.5c0.1,0.3,0.2,0.6,0.4,0.9c0,0.2,0.1,0.3,0.3,0.5c0.1,0.3,0.3,0.5,0.3,0.8
															c0,0.2,0.1,0.3,0.3,0.5c0.1,0.3,0.3,0.5,0.3,0.8c0,0.2,0.1,0.3,0.2,0.5c0.1,0.3,0.3,0.5,0.2,0.8
															c0,0.2,0.1,0.3,0.2,0.5c0.1,0.3,0.2,0.5,0.2,0.7s0.1,0.3,0.2,0.5c0.1,0.3,0.2,0.5,0.2,0.7s0.1,0.3,0.2,0.5
															c0,0.2,0.2,0.5,0.2,0.6c0.1,0.1,0.1,0.3,0.2,0.5c0,0.2,0.1,0.4,0.1,0.6c0.1,0.1,0.1,0.3,0.1,0.4
															c0,0.2,0.1,0.4,0.1,0.6c0.1,0.1,0,0.2,0.1,0.4c0,0.2,0.1,0.4,0.1,0.6c0,0.1,0,0.2,0,0.3c0,0.3,0,0.5,0.1,0.8
															c0,0.2,0,0.4-0.1,0.6c-0.3,1.4-1.4,2.9-3.1,4.6c2.6-1.1,5.4-1.6,7.3-0.8c4.5,2.2-11.5,27.3-26.8,27.7
															c-2.3,0.1-4.1-0.2-5.5-0.6c1.5,5.7-2.1,8.7-2.1,8.7c5.2-0.9,13.5-4.3,21.4-8.7c5-2.8,9.8-6.1,14-9.6
															c1-0.8,2-1.8,2.9-2.6c0.9-0.9,1.8-1.8,2.7-2.7C134.1,174.7,136.1,171.4,136.9,168.3z"/>
													</g>
													<path class="st14" d="M95.2,184.2c1-0.5,2.1-1.1,3.1-1.6c4.1-2.3,7.9-5.2,7.9-5.2s1-0.7,2.4-1.7c1.5-1.1,3.2-2.5,5-4.1
														c0.9-0.9,1.8-1.5,2.6-2.3c0.8-0.8,1.6-1.4,2.5-1.8c0.8-0.5,1.7-0.6,2.1-0.5c0.5,0,0.9,0.2,0.9,0.2c0,0.1-0.3,0-0.9,0
														c-0.4,0.1-1.2,0.2-2,0.6c-1.4,0.9-3,2.7-4.8,4.3c-1.7,1.7-3.5,3.2-4.9,4.3s-2.4,1.9-2.4,1.9s-3.9,2.9-8.1,5
														c-1.1,0.6-2.2,1.1-3.1,1.6c-1.1,0.5-2,0.8-2.7,1.2c-0.7,0.5-1.3,1-1.4,1.4c-0.2,0.5-0.2,0.8-0.2,0.8s-0.2-0.4,0-0.9
														c0.1-0.5,0.6-1.2,1.3-1.8C93.2,185.2,94.2,184.7,95.2,184.2z"/>
													<path class="st14" d="M113.4,114.2c0,0-1,1.9-1.7,3.9s-1.1,4.1-1.3,4.1c-0.2-0.1,0.1-2.2,0.5-4.2
														c0.5-2.2,1.3-4.1,1.3-4.1s1-2,2.2-3.7c1.2-1.8,2.8-3.3,2.9-3.2c0.2,0.2-1.1,1.8-2.2,3.6
														C114.1,112.3,113.4,114.2,113.4,114.2z"/>
												</g>
												<g>
													<g>
														<g>
															<g>
																<path class="st15" d="M53.6,339c0,0-22.7-2.3-24.5,7.2s34.2-1.8,34.2-1.8l-0.4-9.4L53.6,339z"/>
																<path class="st16" d="M29.3,345.7c-0.1,0.2-0.1,0.4-0.2,0.5c-1.8,9.5,34.2-1.8,34.2-1.8l-0.1-2.4
																	C62.9,342.2,32.6,351.6,29.3,345.7z"/>
																<g>
																	<path class="st16" d="M46,340.3c0,0,0.4,0.5,0.5,1.2c0.2,0.7,0.2,1.4,0.3,1.4s0.3-0.7,0.2-1.5s-0.4-1.5-0.4-1.5
																		s-0.4-0.7-1-1.1l0,0c-0.2,0-0.4,0-0.6,0c0.1,0.1,0.3,0.3,0.4,0.4C45.7,339.7,46,340.3,46,340.3z"/>
																	<path class="st16" d="M47.8,339.3c0.4,0.4,0.8,1.1,0.8,1.1s0.4,0.5,0.5,1.2c0.2,0.6,0.1,1.4,0.2,1.4
																		s0.4-0.7,0.3-1.5c-0.1-0.8-0.4-1.5-0.4-1.5s-0.4-0.7-1.1-1.1c-0.1-0.1-0.3-0.2-0.4-0.2c-0.3,0-0.5,0-0.8,0
																		C47.1,338.9,47.5,339.1,47.8,339.3z"/>
																	<path class="st16" d="M51,339.4c0,0,0.4,0.4,0.6,1c0.3,0.5,0.4,1.2,0.4,1.2s0.2-0.7,0-1.4s-0.6-1.3-0.6-1.3
																		l-0.1-0.1c-0.3,0-0.6,0-1,0C50.8,339.1,51,339.4,51,339.4z"/>
																</g>
																<path class="st16" d="M58.7,344.9c0,0-9.5,2.6-20,3.2c-6.3,0.4-8.7-0.4-9.6-1.1c0,1.2,0.8,2,2.1,2.5
																	C40.6,350.1,58.7,344.9,58.7,344.9z"/>
																<g>
																	<path class="st16" d="M38.3,341c0,0.1-1.1,0.3-2,0.7s-1.8,1-1.8,1s-0.9,0.5-1.8,1.2s-1.6,1.4-1.7,1.4
																		c-0.1-0.1,0.6-0.9,1.4-1.7c0.8-0.8,1.8-1.4,1.8-1.4s1-0.6,2-0.9C37.3,341,38.3,340.9,38.3,341z"/>
																</g>
																<g>
																	<path class="st16" d="M41.2,340.4c0,0.2-0.6,0.4-0.6,0.4s-0.7-0.1-0.7-0.2c0-0.2,0.6-0.4,0.6-0.4
																		S41.1,340.2,41.2,340.4z"/>
																</g>
																<g class="st17">
																	<path class="st18" d="M62.9,335.1l-7.9,3.3c1.7,0.4,5.7,1.8,2.6,3.5c-3.8,2.1-20,4.6-24.5,3.8c-3-0.6-2-2.5-1-3.7
																		c-1.4,1-2.5,2.2-2.8,3.9l0,0c0-0.1,0-0.2,0.1-0.2c3.2,6,33.7-3.4,33.9-3.5L62.9,335.1z"/>
																</g>
															</g>
															<g>
																<path class="st15" d="M108.1,337.9c0,0,22.4-4.2,25,5.1c2.5,9.3-34.2,1.1-34.2,1.1l-0.4-9.4L108.1,337.9z"/>
																<path class="st16" d="M132.8,342.5c0.1,0.2,0.2,0.4,0.2,0.5c2.5,9.3-34.2,1.1-34.2,1.1l-0.1-2.4
																	C99.1,341.9,130.1,348.7,132.8,342.5z"/>
																<g>
																	<path class="st16" d="M115.7,338.6c0,0-0.3,0.6-0.4,1.2c-0.2,0.7-0.1,1.4-0.2,1.4s-0.4-0.7-0.4-1.5
																		s0.3-1.6,0.3-1.6s0.4-0.7,0.9-1.2l0,0c0.2,0,0.4,0,0.6,0c-0.1,0.1-0.3,0.3-0.4,0.4
																		C116,337.9,115.7,338.6,115.7,338.6z"/>
																	<path class="st16" d="M113.9,337.8c-0.4,0.4-0.7,1.1-0.7,1.1s-0.4,0.5-0.4,1.2c-0.2,0.7,0,1.4-0.1,1.4
																		c-0.1,0.1-0.4-0.7-0.4-1.5s0.4-1.6,0.4-1.6s0.4-0.7,1-1.1c0.1-0.1,0.2-0.2,0.4-0.2c0.3,0,0.5,0,0.8-0.1
																		C114.5,337.2,114.2,337.4,113.9,337.8z"/>
																	<path class="st16" d="M110.7,338.1c0,0-0.4,0.4-0.5,1.1c-0.2,0.6-0.2,1.2-0.3,1.2c-0.1,0-0.3-0.7-0.2-1.4
																		c0.1-0.7,0.5-1.3,0.5-1.3s0-0.1,0.1-0.1c0.3,0,0.6-0.1,1-0.1C110.9,337.8,110.7,338.1,110.7,338.1z"/>
																</g>
																<path class="st16" d="M103.5,344.2c0,0,9.6,1.8,20.2,1.5c6.3-0.2,8.6-1.2,9.5-1.9c0.1,1.2-0.6,2.1-1.9,2.6
																	C122,347.9,103.5,344.2,103.5,344.2z"/>
																<g>
																	<path class="st16" d="M123.5,338.6c0,0.1,1.1,0.2,2.1,0.5c1.1,0.4,1.9,0.9,1.9,0.9s1,0.4,1.8,1.1
																		c0.9,0.6,1.8,1.3,1.8,1.2c0.1-0.1-0.7-0.9-1.6-1.6s-1.8-1.2-1.8-1.2s-1-0.5-2.1-0.7
																		C124.5,338.5,123.5,338.6,123.5,338.6z"/>
																</g>
																<g>
																	<path class="st16" d="M120.6,338.2c0,0.2,0.6,0.3,0.6,0.3s0.7-0.1,0.7-0.3c0-0.2-0.6-0.3-0.6-0.3
																		S120.6,338.1,120.6,338.2z"/>
																</g>
																<g class="st17">
																	<path class="st18" d="M98.6,334.8l8.2,2.6c-1.6,0.6-5.5,2.4-2.3,3.8c3.9,1.8,20.2,3,24.8,1.7
																		c2.9-0.8,1.8-2.6,0.6-3.8c1.5,0.9,2.6,2,3.2,3.6l0,0c0-0.1-0.1-0.2-0.1-0.2c-2.7,6.2-33.8-0.6-34.1-0.6L98.6,334.8
																		z"/>
																</g>
															</g>
															<path class="st19" d="M71.2,188.1c0,0-11.9,89.7-18.4,148.7c0,0,4.8,1,6.5,1.1c1.4,0.1,5.8-0.3,5.8-0.3
																s19.4-112.8,25.5-115.7c7.8-3.8,0.4,99.4,2.1,114.2c0,0,6.7,4.6,15.3-0.5c0,0,1.5-140.8,1.8-151.2
																C110,174,70.9,180.5,71.2,188.1z"/>
															<path class="st20" d="M71.2,188.1c0,0-11.9,89.7-18.4,148.7c0,0,4.8,1,6.5,1.1c1.4,0.1,5.8-0.3,5.8-0.3
																s19.4-112.8,25.5-115.7c7.8-3.8,0.4,99.4,2.1,114.2c0,0,6.7,4.6,15.3-0.5c0,0,1.5-140.8,1.8-151.2
																C110,174,70.9,180.5,71.2,188.1z"/>
															<g class="st21">
																<g>
																	<path class="st20" d="M68.7,207.8c0-0.1,0.6,0.2,1.6,0.2s2.2-0.4,3.2-1.1c1.1-0.7,1.8-1.8,2.4-2.5
																		c0.5-0.8,0.7-1.4,0.7-1.4s0.3-0.6,0.6-1.5s0.6-2.2,1-3.4c0.3-1.2,0.5-2.5,0.6-3.5c0.2-1,0.2-1.6,0.3-1.6
																		c0,0,0,0.6,0,1.7c-0.1,1-0.3,2.3-0.4,3.6c-0.3,1.3-0.5,2.5-0.8,3.5s-0.5,1.6-0.5,1.6s-0.3,0.6-0.8,1.5
																		s-1.4,1.9-2.5,2.6s-2.5,1.1-3.5,1c-0.5,0-0.9-0.2-1.1-0.3C68.8,207.9,68.7,207.8,68.7,207.8z"/>
																</g>
																<g>
																	<path class="st20" d="M109.2,208.4c0,0-0.4-0.4-0.8-1.1c-0.4-0.7-0.9-1.7-1.4-2.7c-0.9-2-1.5-4.1-1.5-4.1
																		s-0.5-2.1-0.8-4.3c-0.1-1.1-0.2-2.2-0.2-3s0-1.4,0.1-1.4c0,0,0.1,0.5,0.2,1.4c0.1,0.8,0.2,1.9,0.4,3
																		c0.4,2.2,1,4.2,1,4.2s0.5,2.1,1.3,4.1c0.4,1.1,0.9,2,1.2,2.7C108.9,207.9,109.2,208.4,109.2,208.4z"/>
																</g>
																<g>
																	<path class="st20" d="M94.5,219.1"/>
																</g>
																<g>
																	<path class="st20" d="M90.3,221.6c0,0,0-0.3,0.1-0.6c0.1-0.4,0.2-1,0.3-1.7c0.2-1.4,0.4-3.2,0.8-5
																		c0.5-3.6,1-7.3,1-7.3s0.4-3.6,0.9-7.3c0.2-1.8,0.4-3.7,0.4-5c0.1-0.7,0.1-1.2,0.2-1.7c0-0.4,0.1-0.6,0.1-0.6
																		s0,0.3,0,0.6c0,0.4,0,1-0.1,1.7c-0.1,1.4-0.2,3.2-0.3,5.1c-0.3,3.7-0.7,7.3-0.7,7.3s-0.4,3.7-1.1,7.3
																		c-0.4,1.8-0.6,3.6-1,5c-0.2,0.7-0.3,1.2-0.4,1.7C90.4,221.5,90.3,221.6,90.3,221.6z"/>
																</g>
																<g>
																	<path class="st20" d="M91.5,213c0,0,0.2-0.1,0.4-0.2c0.2-0.1,0.4-0.1,0.5-0.2c0.2-0.1,0.4-0.3,0.6-0.4
																		c0.9-0.6,1.7-1.8,2.1-3.2c0.5-1.3,0.8-2.7,0.9-3.8c0.2-1.1,0.2-1.8,0.2-1.8s0.1-0.7,0.2-1.8s0.2-2.5,0.3-3.9
																		c0.1-1.4,0.2-2.9,0.4-3.9c0.1-0.5,0.3-1,0.4-1.2s0.2-0.4,0.3-0.4c0,0-0.3,0.7-0.4,1.8c-0.2,1.1-0.3,2.5-0.3,3.9
																		s-0.1,2.9-0.1,3.9c-0.1,1.1-0.1,1.8-0.1,1.8s-0.1,0.7-0.3,1.8c-0.2,1.1-0.4,2.5-1.1,3.9c-0.5,1.3-1.4,2.6-2.4,3.2
																		c-0.3,0.1-0.4,0.3-0.7,0.4c-0.2,0.1-0.4,0.1-0.5,0.2C91.7,213,91.5,213,91.5,213z"/>
																</g>
																<g>
																	<path class="st20" d="M97.5,221.5c0,0.1-1.7,0-3.2,0.1c-1.6,0-3.2,0.3-3.2,0.3s-1.6,0.1-3.2,0.6
																		c-0.8,0.3-1.5,0.5-2,0.9c-0.5,0.3-0.9,0.5-0.9,0.4c0,0,0.3-0.4,0.8-0.7c0.5-0.4,1.2-0.7,2-1.1
																		c1.6-0.6,3.2-0.8,3.2-0.8s1.7-0.2,3.2-0.1C95.9,221.2,97.5,221.4,97.5,221.5z"/>
																</g>
																<g>
																	<path class="st20" d="M94.6,220.1c0,0.1-1.5,0.4-2.8,1.1c-1.4,0.6-2.6,1.5-2.6,1.5s-1.3,0.8-2.5,1.8
																		c-1.1,1-2.2,2.1-2.2,2.1c-0.1,0,0.9-1.3,1.9-2.4c1.1-1.1,2.5-1.9,2.5-1.9s1.3-0.8,2.8-1.3
																		C93,220.4,94.6,220.1,94.6,220.1z"/>
																</g>
																<g>
																	<path class="st20" d="M63,336c0,0.1-1,0.1-1.8,0c-0.9-0.1-1.8-0.2-1.8-0.2s-0.9-0.2-1.8-0.4
																		c-0.9-0.3-1.8-0.6-1.7-0.7c0-0.1,0.9,0.2,1.8,0.4c0.9,0.2,1.8,0.3,1.8,0.3s0.9,0.2,1.8,0.4
																		C62,335.8,63,335.9,63,336z"/>
																</g>
																<g>
																	<path class="st20" d="M106.3,335.2c0,0.1-1.6,0.5-3.2,0.6c-1.7,0.1-3.3-0.1-3.3-0.1s-1.7-0.3-3.2-1
																		c-1.6-0.6-3-1.6-2.9-1.7c0-0.1,1.5,0.8,3.1,1.2c1.6,0.5,3.2,0.7,3.2,0.7s1.6,0.3,3.2,0.3
																		C104.6,335.5,106.3,335.1,106.3,335.2z"/>
																</g>
															</g>
															<g>
																<path class="st22" d="M85.8,225.2c-1.4,1.6-8.2,38.1-10.3,43.9s-6.9,11.3-10.7,7c-3.8-4.3,8.9-79.5,8.9-80.1
																	c-0.8-18.1,27.3-8,36-4.5c0.1-3.5,0.1-6,0.1-7c0.3-10.3-38.8-3.9-38.6,3.7c0,0-11.9,89.7-18.4,148.7
																	c0,0,4.8,1,6.5,1.1c1.4,0.1,5.8-0.3,5.8-0.3s18.4-107.1,25-115.3C88,223,86.6,224.4,85.8,225.2z"/>
																<path class="st22" d="M92.7,336.1c0,0,6.7,4.6,15.3-0.5c0,0,0.4-30.5,0.7-64.2c-2.6,9.9-7.5,9.4-9.7,4.6
																	c-2.6-5.9,3.2-50.1-1.9-53.2c-2-1.1-3.9-1.3-5.6-1C97.9,226.3,90.9,321.9,92.7,336.1z"/>
															</g>
														</g>
														<g>
															<g>
																<path class="st20" d="M106.2,266.9c0,0-0.1-0.4-0.1-1.1s0-1.8,0-3c0-2.5,0.1-5.7,0.2-9c0.1-6.6,0.1-13.1,0.1-13.1
																	s0.1-6.6,0.3-13.1c0-3.2,0.1-6.6,0.1-9c0-1.2,0.1-2.3,0.1-3s0.1-1.1,0.1-1.1s0.1,0.4,0.1,1.1c0.1,0.7,0.1,1.8,0.2,3
																	c0.1,2.5,0.2,5.7,0.3,9c0.1,6.6,0.1,13.1,0.1,13.1s-0.2,6.6-0.4,13.1c-0.2,3.2-0.4,6.6-0.5,9
																	c-0.1,1.2-0.2,2.3-0.3,3C106.3,266.6,106.2,266.9,106.2,266.9z"/>
															</g>
															<g>
																<path class="st20" d="M106,276.4c-0.2,0-0.2-0.7-0.2-1.3s-0.1-1.3-0.1-1.3s0.1-0.6,0.2-1.3c0.1-0.6,0.2-1.3,0.3-1.3
																	c0.2,0,0.4,0.6,0.5,1.3c0.1,0.7,0.2,1.3,0.2,1.3s-0.1,0.7-0.3,1.3C106.4,275.8,106.2,276.5,106,276.4z"/>
															</g>
															<g>
																<path class="st20" d="M67.1,275.5c-0.1,0.1-0.9-0.7-1.4-1.7s-0.9-2-0.9-2s-0.2-1.1-0.2-2.2c0.1-1.1,0.4-2.2,0.5-2.1
																	c0.2,0,0.1,1.1,0.3,2.1c0.2,1.1,0.4,2,0.4,2s0.2,1,0.4,2C66.7,274.5,67.2,275.4,67.1,275.5z"/>
															</g>
															<g>
																<path class="st20" d="M66.4,245.4c0.3,0-0.2,9-0.2,9s-1,9-1.2,8.9c-0.3,0,0.2-9,0.2-9S66.1,245.4,66.4,245.4z"/>
															</g>
														</g>
													</g>
													<g>
														<path class="st16" d="M69.9,185c0,0-6.7,6.7,13.1,7.7c16.6,0.9,26.6-1.6,27.6-4.6c1.1-3.4-1.7-6-1.7-6
															S70.6,182.5,69.9,185z"/>
														<path class="st18" d="M77.3,189.8c-1.5-2.5,6.7-0.4,17.2-0.9c8.3-0.4,14.2-2.8,16.3-4c-0.3-1.1-0.8-1.8-1.2-2.4
															c-0.4-0.2-0.8-0.4-1.2-0.5c-5.3,0.1-37.8,0.6-38.4,2.9c0,0-6.7,6.7,13.1,7.7c13.1,0.7,22.1-0.7,25.8-2.8
															C98.4,193.6,78.5,192,77.3,189.8z"/>
														<g>
															<path class="st23" d="M86.1,187.4c0,0-2.5,6.1,2.8,6.9c5.3,0.9,9.5-0.5,10.3-1.7c0.9-1.1,0.7-5.3-1.5-5.8
																C95.5,186.2,86.1,187.4,86.1,187.4z"/>
															<path class="st24" d="M87.2,186.8c0,0-2.5,6.1,2.8,6.9c5.3,0.9,9.5-0.5,10.3-1.7c0.9-1.1,0.7-5.3-1.5-5.8
																C96.5,185.7,87.2,186.8,87.2,186.8z"/>
															<path class="st24" d="M98.7,186.2c-0.8-0.2-2.5-0.2-4.2-0.1c1.3,0,2.5,0,3.1,0.2c2.2,0.6,2.4,4.6,1.5,5.8
																c-0.6,0.8-2.7,1.7-5.6,1.9c3.6-0.1,6.1-1.1,6.8-1.9C101.1,191,101,186.8,98.7,186.2z"/>
															<path class="st25" d="M91,192.6c-3.9-0.6-3.6-4-3.2-5.9c-0.4,0.1-0.8,0.1-0.8,0.1s-2.5,6.1,2.8,6.9
																c5.3,0.9,9.5-0.5,10.3-1.7c0.1-0.2,0.2-0.3,0.3-0.5C98.9,192.5,95.3,193.3,91,192.6z"/>
														</g>
													</g>
												</g>
												<g>
													<path class="st0" d="M82,94.3c0,0-19.6,3.2-25.9,7.4c0,0,7.6,22.7,3.2,33.2c3.3,10.7,5.8,21.8,7.3,32.9
														c0.4,3.2,0.8,6.5,1,9.7c0.2,3.1-1.1,7.4,2.9,8.2c2.7,0.6,5.4,1.2,8.2,1.7c7.5,1.3,15.3,2.1,22.8,1.1
														c3.2-0.4,7.2-0.8,9.6-3.2c1.8-1.8,1.9-4.4,2.3-6.7c0.9-5.7,1.7-11.3,2.5-17c2-13.8,4-27.7,5.3-41.6
														c0.3-2.6,0.4-5.3,0.6-7.8C122.5,94,95.3,94.3,82,94.3z"/>
													<path class="st8" d="M83,93.7c0,0-19.6,3.2-25.9,7.4c0,0,7.6,22.7,3.2,33.2c3.3,10.7,5.8,21.8,7.3,32.9
														c0.4,3.2,0.8,6.5,1,9.7c0.2,3.1-1.1,7.4,2.9,8.2c2.7,0.6,5.4,1.2,8.2,1.7c7.5,1.3,15.3,2.1,22.8,1.1
														c3.2-0.4,7.2-0.8,9.6-3.2c1.8-1.8,1.9-4.4,2.3-6.7c0.9-5.7,1.7-11.3,2.5-17c2-13.8,4-27.7,5.3-41.6
														c0.3-2.6,0.4-5.3,0.6-7.8C123.5,93.5,96.3,93.7,83,93.7z"/>
													<path class="st13" d="M113.3,178.8c0.4-2.9,0.9-5.8,1.3-8.6c-6.7,14.1-20.2,16.2-33.4,10
														c-15.6-7.4-18.8-58.5-18.6-59.1c0,0-1.4,6-3.2,14.6c3.2,10.5,5.6,21.3,7.1,32.2c0.4,3.2,0.8,6.5,1,9.7
														c0.2,3.1-1.1,7.4,2.9,8.2c2.7,0.6,5.4,1.2,8.2,1.7c7.5,1.3,15.3,2.1,22.8,1.1c3.2-0.4,7.2-0.8,9.6-3.2
														C112.8,183.7,112.9,181,113.3,178.8z"/>
													<g>
														<path class="st7" d="M78.7,107.3L78.7,107.3C78.7,107.2,78.7,107.2,78.7,107.3z"/>
														<path class="st10" d="M93.1,173.5c0,0,0.1,0.4,0.1,1.2c0,0.7,0,1.7,0.1,2.6c0,1.9,0,3.9,0,3.9s-0.1,1.9-0.1,3.9
															c-0.1,1-0.2,1.9-0.4,2.6c-0.2,0.7-0.4,1.1-0.4,1.1s0.2-0.4,0.3-1.1c0.1-0.7,0.2-1.7,0.2-2.6c0-1.9,0-3.9,0-3.9
															s0.1-1.9,0.1-3.9c0-1,0.1-1.9,0.1-2.6C93,174,93,173.5,93.1,173.5z"/>
													</g>
													<g class="st26">
														<path class="st0" d="M104.7,100.1c0.9,1.9,3.5,3.4,4.9,5.1c1.6,1.8,3.1,4.1,4.5,6.1c0.3,0.4,0.8,0.3,0.9-0.1
															c1.2-3.3,0.4-6.2-1.9-8.9c-1.7-2-5.2-4.6-8-3.3C104.5,99.1,104.5,99.6,104.7,100.1L104.7,100.1z"/>
													</g>
													<g class="st9">
														<path class="st10" d="M68.8,175.1c-0.8,3.8,2,10.9,6.7,10.4c0.6-0.1,1.1-0.9,0.6-1.4c-1.3-1.1-2.9-2-3.9-3.5
															c-1.1-1.8-1.4-3.8-2.2-5.7C69.7,174.4,68.9,174.6,68.8,175.1L68.8,175.1z"/>
													</g>
													<g class="st9">
														<path class="st10" d="M111.4,177.4c-1.1,1.8-2,3.7-3.7,5.2c-1.6,1.4-3.5,2.3-5.3,3.3c-0.5,0.4-0.3,1.1,0.3,1.1
															c4.6,0.3,9.3-5,9.2-9.5C111.9,177.3,111.5,177.1,111.4,177.4L111.4,177.4z"/>
													</g>
													<g class="st27">
														<path class="st28" d="M117.8,146.2c0,0,0-0.4,0.1-0.9s0.2-1.3,0.3-2.2c0.2-1.8,0.4-4.2,0.7-6.7
															c0.4-4.8,0.6-9.7,0.6-9.7s0.3-4.8,0.1-9.7c-0.1-2.5-0.3-4.8-0.4-6.7c-0.1-0.9-0.2-1.7-0.2-2.2
															c-0.1-0.5-0.1-0.9-0.1-0.9s0.1,0.3,0.2,0.8s0.2,1.3,0.4,2.2c0.3,1.8,0.4,4.2,0.5,6.7c0.3,4.9,0.1,9.7,0.1,9.7
															s-0.3,4.9-0.8,9.7c-0.3,2.5-0.6,4.8-0.9,6.7c-0.1,0.9-0.3,1.7-0.4,2.2C117.8,146,117.8,146.2,117.8,146.2z"/>
													</g>
												</g>
												<g>
													<g>
														<path class="st29" d="M111.1,174.6c-1.5-0.7-3.1-0.6-4.9,0c0-0.4,0-0.8-0.2-1.1c-1.2-2-5.7-2.2-4.8-0.1
															c0.4,1.1,0.4,2.6,0.3,3.9c-1.9,1.5-3.2,2.8-3.2,2.8s-5.5,6-0.6,9.6c4.8,3.6,9.6-2.3,10.5-2.4c0.9,0,0.7,2.8,1.2,3.9
															c0.4,1.1,4.4,0.4,5.6-4.2c1.2-4.6-0.7-6.5-0.7-6.5s2.6,1.7,3.2,0.4C118.3,179.7,116.1,177.1,111.1,174.6z"/>
														<path class="st30" d="M111.7,183.7c0.1,0,0.6,1,0.9,1.9c0.4,1,0.4,2.1,0.4,2.1s0,1.2-0.2,2.2
															c-0.2,0.5-0.4,1.1-0.8,1.4c-0.3,0.3-0.6,0.3-0.6,0.3s0.2-0.2,0.5-0.5c0.2-0.3,0.5-0.7,0.6-1.3c0.2-1,0.1-2.1,0.1-2.1
															s0-1.1-0.3-2C111.9,184.7,111.6,183.7,111.7,183.7z M113.8,179.9c-0.6-0.8-1.3-1.4-1.3-1.4s-0.8-0.7-1.6-1.2
															c-0.5-0.2-1-0.4-1.3-0.5c-0.4,0-0.6,0-0.6,0s0.4,0.1,0.6,0.2c0.4,0.1,0.7,0.3,1.3,0.6c0.8,0.6,1.5,1.2,1.5,1.2
															s0.8,0.7,1.5,1.4s1.2,1.5,1.3,1.4C114.8,181.6,114.4,180.6,113.8,179.9z M112.4,181.4c0.6,0.8,1.1,1.7,1.1,1.7
															s0.6,0.8,0.9,1.8c0.4,1,0.3,2,0.3,2c0.1,0,0.2-1.1-0.1-2.1c-0.2-1.1-0.7-2-0.7-2s-0.6-1-1.3-1.7
															c-0.7-0.8-1.5-1.5-1.6-1.4C111.1,179.7,111.8,180.5,112.4,181.4z M107,174.2c-0.3,0-0.7,0.1-1.1,0.2
															c-0.4,0.1-0.7,0.4-1,0.5c-0.2,0.2-0.3,0.2-0.3,0.2s-2.5,1.7-2.4,1.9s2.7-1.4,2.7-1.4s0.2-0.2,0.3-0.2
															c0.2-0.2,0.5-0.4,0.8-0.6s0.6-0.3,0.9-0.4c0.3-0.1,0.4,0,0.4,0C107.5,174.4,107.4,174.3,107,174.2z"/>
														<g>
															<path class="st31" d="M116.2,178.9c-0.1,1.2-5.7-1.4-5.9-1.6c-0.3-0.2,4.6,3.3,4.2,4.1c-0.3,0.9-3.2-1.7-3.2-1.7
																s3.1,4.8,2.3,5.3c-0.8,0.5-3.5-4.1-3.5-4.1c0.5,1,3,7.4,1.3,7.8c-1.7,0.4-2.5-4.2-2.5-4.2s-1.2,1.9-6.1,1.9
																c-3.8-0.1-3.8-4.9-3.6-7c-0.5,0.5-0.9,0.8-0.9,0.8s-1.2,1.3-2,3.1c-0.2,1.5-0.3,3.1-0.2,4.8c0.3,0.6,0.8,1.3,1.6,1.9
																c4.8,3.6,9.6-2.3,10.5-2.4c0.9,0,0.7,2.8,1.2,3.9s4.4,0.4,5.6-4.2c1.2-4.6-0.7-6.5-0.7-6.5s2.6,1.7,3.2,0.4
																c0.4-0.8-0.3-2.1-2.1-3.6C115.9,177.9,116.2,178.5,116.2,178.9z"/>
															<path class="st31" d="M102.6,171.9c0.2,0.2,0.3,0.3,0.5,0.4c2.3,2.4-0.2,4.2-0.9,4.6c0.5-0.3,1.9-1.2,3.1-1.6
																c0.7-0.3,2.2-0.8,3.6-1.2c-0.9,0-1.7,0.2-2.5,0.5c0-0.4,0-0.8-0.2-1.1C105.5,172.4,103.9,171.9,102.6,171.9z"/>
															<path class="st32" d="M102.1,177.1c-0.2,0.1-0.2,0.2-0.2,0.2L102.1,177.1z"/>
														</g>
													</g>
													<g>
														<path class="st8" d="M56.8,101.2c0,0-15,50.3-10.2,63.8c4.7,13.4,36.5,25.4,49.6,26c0,0,4.1-8.9,3.9-14
															c0,0-36.8-13.3-37.8-20.5s11-28.5,11-28.5S72.5,108.6,56.8,101.2z"/>
														<g>
															<g>
																<path class="st33" d="M66.7,109.4c0,0,0.3,0.3,0.8,0.9c0.4,0.6,1,1.4,1.4,2.3c1,1.7,1.6,3.6,1.6,3.6
																	s0.6,1.8,0.8,3.9c0.1,1,0.2,1.9,0.1,2.6s-0.1,1.2-0.1,1.2s0-0.4,0-1.2c-0.1-0.7-0.2-1.6-0.3-2.6
																	c-0.3-1.8-1-3.7-1-3.7s-0.5-1.8-1.3-3.6c-0.4-0.9-1-1.7-1.3-2.3C66.9,109.8,66.8,109.4,66.7,109.4z"/>
															</g>
															<g>
																<path class="st33" d="M72.8,113.8c0.1,0,0.3,1.1,0.4,2.3c0,1.2,0,2.3,0,2.3s-0.1,1.2-0.3,2.4
																	c-0.2,1.2-0.6,2.3-0.7,2.3s0.2-1.2,0.3-2.4c0.1-1.2,0.2-2.3,0.2-2.3s0.1-1.2,0.1-2.3
																	C72.7,115,72.7,113.8,72.8,113.8z"/>
															</g>
															<g>
																<path class="st33" d="M64.1,105.3c-0.1,0-0.7-0.7-1.5-1.4c-0.7-0.7-1.5-1.2-1.5-1.2s-0.7-0.7-1.6-1.2
																	c-0.8-0.5-1.7-1-1.7-1.1c0.1-0.1,1.1,0.2,1.9,0.7c0.9,0.5,1.7,1.1,1.7,1.1s0.8,0.7,1.5,1.4
																	C63.6,104.5,64.1,105.3,64.1,105.3z"/>
															</g>
															<g>
																<path class="st33" d="M52.3,158.7c0-0.1,1.2-0.9,2.4-1.5c0.6-0.3,1.4-0.5,1.9-0.6s0.9-0.1,0.9-0.1s0.4,0,1,0.1
																	c0.5,0,1.2,0.2,2,0.4c0.6,0.2,1.3,0.7,1.7,1s0.6,0.6,0.6,0.6s-0.3-0.2-0.6-0.5c-0.4-0.3-1-0.7-1.6-0.8
																	c-0.6-0.2-1.3-0.3-1.9-0.2c-0.4,0-0.9,0-0.9,0s-0.4,0-0.9,0.1s-1.2,0.2-1.8,0.5C53.7,158,52.5,158.8,52.3,158.7z"/>
															</g>
															<g>
																<path class="st33" d="M55.5,153.8c0-0.1,1.1,0,2.1,0.4c1,0.3,1.9,0.8,1.9,0.8s0.8,0.5,1.7,1.3
																	c0.7,0.7,1.4,1.4,1.3,1.4c-0.1,0-0.8-0.7-1.6-1.2c-0.8-0.6-1.7-1.1-1.7-1.1s-0.8-0.5-1.7-0.9
																	C56.5,154.2,55.5,153.9,55.5,153.8z"/>
															</g>
														</g>
													</g>
													<path class="st13" d="M96.3,175.6c1.3,3.1,1.3,7.8-8.4,8.7c-15,1.5-33.5-20.4-29.2-23.1c1.9-1.2,4.8-0.8,7.6-0.1l0,0
														c-0.2-0.2-0.3-0.3-0.4-0.3c-0.2-0.2-0.4-0.3-0.6-0.3c-0.2-0.2-0.3-0.3-0.4-0.3c-0.2-0.2-0.3-0.3-0.5-0.4
														c-0.2-0.2-0.3-0.2-0.3-0.3c-0.3-0.2-0.5-0.5-0.7-0.7c0-0.1-0.1-0.2-0.2-0.2c-0.2-0.2-0.3-0.3-0.4-0.5
														c0-0.1-0.1-0.2-0.2-0.2c-0.1-0.2-0.2-0.3-0.3-0.4c0-0.1-0.1-0.2-0.1-0.3c-0.1-0.3-0.1-0.4-0.1-0.6
														c-1-7.2,11-28.5,11-28.5s-0.1-1.9-0.6-4.8c-0.6-1-1.1-2-1.1-2.3c-0.1-1-0.3-2.3-0.7-3.9c-1-2.7-2.5-5.6-4.5-8.3
														c0.8,1.7,2.7,5.9,2.6,10.9c0,6.7-10.5,34.4-15.6,31.4c-5-2.9-0.7-33.1-0.6-33.6c0,0-0.1,0-0.3,0.2
														c-0.1,0.5-0.2,1.1-0.4,1.4c0,0,0,0.1-0.1,0.1c-0.1,0.5-0.2,0.9-0.4,1.3c-0.1,0.1,0,0.2-0.1,0.4
														c-0.1,0.5-0.1,0.8-0.3,1.3c-0.1,0.1,0,0.2-0.1,0.4c-0.1,0.5-0.2,0.9-0.3,1.4c0,0,0,0.1-0.1,0.1
														c-0.1,0.5-0.2,1.1-0.4,1.5c0,0.1,0,0.2,0,0.2c-0.1,0.5-0.2,0.8-0.3,1.3c-0.1,0.1-0.1,0.4-0.1,0.5
														c0,0.4-0.1,0.8-0.2,1.1c-0.1,0.1-0.1,0.4-0.1,0.5c-0.1,0.5-0.2,0.9-0.3,1.4L49,131c-0.1,0.5-0.2,1.1-0.3,1.6
														c-0.1,0.1,0,0.2-0.1,0.4c-0.1,0.5-0.1,0.8-0.3,1.3c0,0.2-0.1,0.4-0.1,0.5c0,0.4-0.2,0.7-0.2,1.1c0,0.2-0.1,0.4-0.1,0.5
														c-0.1,0.5-0.2,0.9-0.3,1.4l-0.1,0.1c-0.1,0.5-0.2,1-0.3,1.6c-0.1,0.1-0.1,0.4,0,0.4c0,0.4-0.1,0.8-0.2,1.1
														c0,0.2-0.1,0.4-0.1,0.5c0,0.4-0.2,0.7-0.1,1.1c0,0.2-0.1,0.4-0.1,0.5c-0.1,0.5-0.1,0.9-0.2,1.4c0,0.1-0.1,0.1,0,0.2
														c-0.1,0.5-0.2,1-0.2,1.5c-0.1,0.1,0,0.3,0,0.4c0,0.4-0.2,0.7-0.1,1.1c0,0.2-0.1,0.4-0.1,0.5c-0.1,0.4-0.2,0.7-0.1,1
														c0,0.2-0.1,0.4,0,0.4c0,0.4-0.1,0.9-0.2,1.2c0,0,0,0.1-0.1,0.1c0,0.4-0.1,0.9-0.1,1.3c-0.1,0.1,0,0.3,0,0.4
														c-0.1,0.4-0.1,0.7-0.1,1c0,0.2,0,0.3,0,0.4c0,0.3-0.1,0.6-0.1,0.9c-0.1,0.1,0,0.3,0,0.4c0,0.4,0,0.8,0,1.2v0.1
														c0,0.4,0,0.9,0,1.2c0,0.1,0,0.3,0,0.4c0,0.3,0,0.5,0,0.9c0,0.1,0,0.3,0,0.4c0,0.3,0,0.5,0,0.8c0,0.1,0,0.2,0,0.4
														c0,0.4,0,0.6,0.1,1l0,0c0,0.4,0,0.6,0.1,1c0,0.1,0.1,0.2,0,0.3c0,0.2,0,0.4,0.1,0.6c0,0.1,0.1,0.2,0,0.3
														c0.1,0.2,0,0.4,0.1,0.6c0,0.1,0.1,0.2,0.1,0.3c0.1,0.3,0.2,0.5,0.2,0.8c0.3,0.8,0.7,1.6,1.2,2.4
														c2.3,3.7,6.4,7.2,11.4,10.4c1.1,0.7,2.3,1.4,3.5,2.1c1.8,1,3.6,1.9,5.6,2.8c1.3,0.6,2.6,1.2,3.9,1.7
														c2.5,1.1,5.2,2.1,7.7,2.9c6.3,2.1,12.3,3.4,16.3,3.6c0,0,0.8-1.8,1.7-4.2c0.1-0.5,0.3-0.9,0.5-1.4
														c0.1-0.5,0.2-0.8,0.4-1.3c0.1-0.5,0.2-0.9,0.5-1.3c0.1-0.5,0.2-1.1,0.4-1.4c0.4-1.5,0.6-3,0.5-4.4
														C99.9,177,98.6,176.4,96.3,175.6z"/>
													<path class="st14" d="M89.5,175.3c-1.1-0.3-2.2-0.8-3.1-1.2c-4.3-1.8-8.3-4-8.3-4s-1.1-0.6-2.5-1.4
														c-1.5-0.8-3.5-2.1-5.4-3.3c-1-0.7-1.9-1.2-2.7-1.9c-0.9-0.6-1.8-1.1-2.7-1.4c-0.9-0.3-1.6-0.3-2.2-0.4
														c-0.5,0.1-0.9,0.2-0.8,0.3c0,0.1,0.3,0,0.9,0c0.4,0,1.2,0.1,2.1,0.4c1.5,0.6,3.3,2.2,5.2,3.6c1.9,1.3,3.8,2.6,5.3,3.6
														c1.5,0.9,2.5,1.5,2.5,1.5s4.1,2.2,8.6,3.8c1.1,0.4,2.2,0.8,3.3,1c1.1,0.3,2.1,0.5,2.9,0.8s1.4,0.8,1.5,1.2
														c0.2,0.3,0.2,0.7,0.3,0.7c0,0,0.1-0.4,0-0.9c-0.2-0.5-0.7-1-1.5-1.5C91.5,175.9,90.5,175.6,89.5,175.3z"/>
													<path class="st34" d="M64.7,110.9c0,0,1,1.6,1.9,3.4s1.5,3.7,1.7,3.6s-0.2-2-1-4c-0.7-2-1.8-3.7-1.8-3.7
														s-1.1-1.7-2.5-3.2s-3-2.9-3.1-2.8c-0.2,0.2,1.3,1.5,2.5,3.2C63.8,109.1,64.7,110.9,64.7,110.9z"/>
												</g>
												<g>
													<path class="st29" d="M101,190.8c1.1-1.2,2.7-1.7,4.6-1.8c-0.2-0.4-0.3-0.7-0.2-1.1c0.4-2.5,4.5-4.4,4.5-1.9
														c0,1.3,0.5,2.8,1.1,3.9c2.3,0.7,4,1.6,4,1.6s7.3,3.9,4,9.2c-3.2,5.3-9.8,1.3-10.7,1.5c-0.9,0.3,0.3,3.1,0.3,4.4
														s-4,2-6.7-2.1s-1.6-6.6-1.6-6.6s-1.8,2.5-2.9,1.5C96.1,198.4,97.2,195.1,101,190.8z"/>
													<path class="st30" d="M103.9,202c0.2,1.1,0.4,2.1,0.4,2.1s0.3,1.1,0.8,2c0.3,0.4,0.6,0.9,1,1.1s0.6,0.2,0.6,0.3
														c0,0-0.3,0.1-0.7-0.1c-0.4-0.1-0.9-0.5-1.2-1.1c-0.6-1-1-2.1-1-2.1s-0.3-1.1-0.4-2.3c-0.1-1.1,0.1-2.3,0.2-2.3
														C103.7,199.8,103.8,200.9,103.9,202z M100,199c0.1,0,0.3-1,0.7-1.9c0.4-1,0.9-1.8,0.9-1.8s0.4-0.9,1-1.8
														c0.3-0.4,0.6-0.8,0.9-1c0.3-0.3,0.5-0.4,0.5-0.4s-0.3,0-0.6,0.2c-0.3,0.2-0.8,0.5-1.1,1c-0.7,0.8-1.1,1.8-1.1,1.8
														s-0.4,1-0.7,1.9C100,198,100,199,100,199z M102.7,195.9c-0.1,0-0.5,1-1,2c-0.4,1.1-0.6,2.1-0.6,2.1s-0.2,1.1,0,2.3
														c0.1,1.1,0.6,2.1,0.7,2.1s-0.4-1.1-0.4-2.1c-0.1-1.1,0.2-2.1,0.2-2.1s0.2-1.1,0.4-2.1
														C102.4,196.9,102.8,195.9,102.7,195.9z M104.3,189.3c0,0,0.2-0.1,0.4-0.1c0.3-0.1,0.6,0,1,0c0.4,0.1,0.7,0.2,1,0.3
														s0.4,0.1,0.4,0.1s3,0.5,3,0.4s-2.9-0.9-2.9-0.9s-0.2,0-0.4-0.1s-0.6-0.1-1.1-0.2c-0.4,0-0.8,0-1.1,0.2
														C104.4,189.1,104.3,189.3,104.3,189.3z"/>
													<g>
														<path class="st31" d="M97.8,196.8c0.5,1.2,4.8-3.5,5-3.8s-3.1,4.9-2.5,5.6c0.6,0.7,2.4-2.9,2.4-2.9s-1.2,5.9-0.3,6
															c0.9,0.2,1.8-5.3,1.8-5.3c-0.1,1.1-0.2,8.4,1.5,8.2s0.9-5,0.9-5s1.8,1.4,6.4-0.4c3.5-1.5,1.8-6.1,0.9-8.2
															c0.7,0.3,1.1,0.4,1.1,0.4s1.6,0.9,3,2.3c0.7,1.3,1.4,2.9,1.9,4.6c-0.1,0.7-0.3,1.5-0.8,2.4c-3.2,5.3-9.8,1.3-10.7,1.5
															c-0.9,0.3,0.3,3.1,0.3,4.4s-4,2-6.7-2.1s-1.6-6.6-1.6-6.6s-1.8,2.5-2.9,1.5c-0.7-0.6-0.5-2.2,0.7-4.4
															C97.7,195.9,97.6,196.5,97.8,196.8z"/>
														<path class="st31" d="M107.9,185.1c-0.1,0.2-0.2,0.4-0.3,0.6c-1.3,3.2,1.7,4.1,2.5,4.3c-0.6-0.1-2.2-0.4-3.5-0.5
															c-0.8,0-2.4,0-3.8,0.1c0.8-0.3,1.7-0.4,2.5-0.4c-0.2-0.4-0.3-0.7-0.2-1.1C105.6,186.7,106.8,185.4,107.9,185.1z"/>
														<path class="st32" d="M110.2,189.9c0.2,0,0.3,0.1,0.3,0.1S110.4,190,110.2,189.9z"/>
													</g>
												</g>
											</g>
											<path class="st34" d="M101.5,121.2l15.2-0.6c0,0-1.1,16.9-8.2,15.5C101.5,134.6,101.5,121.2,101.5,121.2z"/>
											<g>
												<g>
													<g>
														<path class="st35" d="M81.7,89.3l0.4,8.5c0,0,5.6,6.4,16,1.1l-0.4-9.6C97.9,89.3,85.7,84.3,81.7,89.3z"/>
														<path class="st31" d="M98.1,95.8c-9.3,9.1-16.7-6.9-12.3-3.9c3.8,2.5,10.1,0,12-0.9v-0.4l-0.1-1.1
															c-0.1-0.2-0.2-0.4-0.4-0.4c-0.6-0.3-1.8-0.7-3.5-1.1c-1.8-0.3-3.9-0.5-5.7-1c-0.6,0-1.3,0-1.8,0.1c0,0,0,0-0.1,0
															c-0.3,0-0.5,0.1-0.9,0.1c0,0,0,0-0.1,0c-0.3,0.1-0.5,0.1-0.8,0.2h-0.1c-0.3,0.1-0.4,0.2-0.6,0.3c-0.1,0-0.1,0-0.2,0.1
															c-0.3,0.1-0.4,0.3-0.7,0.4c0,0-0.1,0-0.1,0.1c-0.2,0.1-0.4,0.3-0.5,0.4c-0.1,0-0.1,0.1-0.2,0.1
															c-0.2,0.2-0.4,0.4-0.5,0.5l0,0l0.4,8.5c0,0,5.6,6.4,16,1.1L98.1,95.8z"/>
													</g>
													<g>
														<g>
															<g>
																<g>
																	<g>
																		<path class="st29" d="M116.5,52.5c0,0,2.5-3.6,5.9-1.3c4,2.6,2,16.5-3.4,16.3C113.5,67.3,115.6,52.2,116.5,52.5z"
																			/>
																		<path class="st31" d="M116.5,52.5c0,0,2.5-3.6,5.9-1.3c4,2.6,2,16.5-3.4,16.3C113.5,67.3,115.6,52.2,116.5,52.5z"
																			/>
																		<g>
																			<g>
																				<path class="st30" d="M121.5,63.3c0-0.1-0.4,0-0.9-0.1c-0.3-0.1-0.4-0.3-0.6-0.4c-0.1-0.3-0.2-0.6,0-0.9
																					c0.1-0.3,0.3-0.6,0.5-0.8s0.4-0.3,0.9-0.6c0.4-0.4,0.6-1.1,0.5-1.4c-0.1-0.4-0.2-0.5-0.2-0.5s-0.1-0.2-0.3-0.4
																					c-0.1-0.2-0.3-0.3-0.5-0.4c-0.1-0.1-0.3-0.1-0.4-0.2c0,0,0,0-0.1,0l0,0c0,0,0-0.2,0-0.3s0-0.3,0.1-0.4
																					c0.1-0.5,0.3-1.1,0.5-1.5c0.5-1,1.3-1.3,1.3-1.4c0-0.2-1-0.1-1.8,0.9c-0.4,0.4-0.8,1.1-1,1.7
																					c-0.1,0.2-0.1,0.4-0.1,0.4c0,0.2-0.1,0.3-0.1,0.5c0,0.4,0,0.9,0,1.2c0.3,0,0.6,0,0.8,0.1c0.1,0,0.2,0.1,0.2,0.1
																					c0.1,0.1,0.2,0.2,0.3,0.3c0.1,0.2,0.1,0.2,0.1,0.2c0,0.1,0.1,0,0,0.1c-0.1,0.2-0.4,0.4-0.8,0.7
																					c-0.4,0.4-0.6,0.9-0.7,1.5s0,1.2,0.4,1.6c0.3,0.4,0.7,0.5,1.1,0.5C121.2,63.7,121.5,63.3,121.5,63.3z"/>
																			</g>
																		</g>
																		<path class="st36" d="M119,67.5c-5.4-0.2-3.4-15.3-2.5-15c0,0,1.2-1.8,3.1-2c-0.9,2.2,0.4,5.6,0.4,5.6
																			s1.4-2.3,2.2-1.5c0.8,0.8-0.4,4.4,1.2,4.7c0.5,0.1,0.9-0.3,1.1-0.9C124.2,62.8,122.1,67.5,119,67.5z"/>
																	</g>
																	<g class="st9">
																		<g>
																			<path class="st29" d="M124.1,54.2c0.3,0.8,0.1,1.6-0.3,1.8s-0.8-0.3-1.1-1.1c-0.3-0.8-0.1-1.6,0.3-1.8
																				C123.3,53,123.8,53.4,124.1,54.2z"/>
																			<path class="st29" d="M122.7,51.9c0.1,0.3,0,0.5-0.3,0.7s-0.5,0.1-0.6-0.2s0-0.5,0.3-0.7S122.6,51.7,122.7,51.9z
																				"/>
																		</g>
																	</g>
																</g>
																<path class="st35" d="M55.6,52.9c-0.4-12.4,4.6-32.4,30.8-32.6c26.2-0.2,30.2,28.6,30.2,28.6s2.7,10.6,2.5,18.7
																	c-0.4,8.1-4.6,20.1-23.3,22s-33.2-6-36.6-17.5c0,0-6.9-0.1-8.9-7.7C48.9,58.9,51.8,53.5,55.6,52.9z"/>
																<g>
																	<g>
																		<path class="st37" d="M55.6,52.9c-0.1-3.7,0.3-8.1,1.5-12.4c1-3.2,2.4-6.3,4.2-8.9c-3.8,6.3-4.4,15.8-4.2,21.6
																			C56.7,53.3,56,53,55.4,53C55.6,52.9,55.6,52.9,55.6,52.9z"/>
																		<path class="st37" d="M52.2,55c-1.1,2.1-1.4,4.7-0.8,7.5c1.8,7.6,8.9,7.7,8.9,7.7c3.3,11.6,17.8,19.4,36.6,17.5
																			c9.9-1.1,15.7-4.8,19.1-9.4c-3.1,5.3-9.1,10.1-20.3,11.2c-18.8,1.9-33.2-6-36.6-17.5c0,0-6.9-0.1-8.9-7.7
																			C49.4,60.7,50.4,57.2,52.2,55z"/>
																	</g>
																</g>
																<g>
																	<g>
																		<g>
																			<g>
																				<path class="st30" d="M54.3,67.1c-0.1,0,0,0.9,0.8,1.5c0.2,0.2,0.4,0.3,0.8,0.3c0.4,0,0.7-0.2,1-0.4
																					c0.3-0.3,0.5-0.7,0.5-1.1c0.1-0.4-0.1-1.1-0.4-1.4c-0.4-0.3-0.6-0.4-0.8-0.5s-0.3-0.3-0.4-0.4
																					c-0.2-0.4-0.2-0.9-0.1-1.1c0.2-0.5,0.6-0.6,0.6-0.6s0.1,0,0.3-0.1c0.1,0,0.2,0,0.3,0s0.1,0,0.2,0.1
																					c0,0,0,0,0.1,0.1s0.2,0.2,0.2,0.3c0.3,0.4,0.5,0.5,0.8,0.5c0.2,0,0.4-0.1,0.5-0.3c0.1-0.2,0.2-0.3,0.3-0.5
																					c0.1-0.4,0.2-1.2,0.2-1.6s0-0.7-0.1-1.1c-0.1-0.7-0.3-1.5-0.6-2.1s-0.7-1.1-1.1-1.3c-0.8-0.6-1.5-0.4-1.5-0.3
																					c0,0.1,0.5,0.2,1.1,0.8s1.1,1.8,1.1,3.1c0,0.4,0,0.6,0,1s0,0.3-0.1,0.4c0,0.1-0.2,0-0.1-0.1l0,0l-0.4-0.1
																					c-0.1-0.1-0.3-0.2-0.4-0.2c-0.3-0.1-0.4-0.1-0.6-0.1C56.1,61.9,56,62,56,62s-0.2,0.1-0.5,0.3
																					c-0.4,0.2-0.8,0.8-0.9,1.5c-0.2,0.7-0.1,1.6,0.4,2.3c0.2,0.4,0.4,0.6,0.8,0.8s0.5,0.3,0.7,0.4
																					c0.1,0.1,0.2,0.2,0.2,0.4c0,0.2-0.1,0.4-0.3,0.6c-0.3,0.4-0.7,0.4-1,0.3C54.6,67.7,54.4,67,54.3,67.1z"/>
																			</g>
																		</g>
																		<g class="st26">
																			<path class="st38" d="M53.1,57.2c-0.5,0.5-1.1,0.7-1.4,0.4c-0.3-0.4,0-1.1,0.5-1.7c0.5-0.5,1.1-0.7,1.4-0.4
																				C53.9,56,53.7,56.7,53.1,57.2z"/>
																			<path class="st38" d="M55.2,54.6c0.1,0.3,0,0.5-0.3,0.7s-0.5,0.1-0.6-0.2s0-0.5,0.3-0.7
																				C54.8,54.2,55.1,54.3,55.2,54.6z"/>
																		</g>
																	</g>
																</g>
															</g>
															<g>
																<path class="st30" d="M96.6,81.8c0.2,0,0.2,0.6,0,1.3c-0.1,0.6-0.4,1.2-0.4,1.2s-0.4,0.5-1.1,0.8
																	c-0.6,0.3-1.3,0.2-1.3,0s0.5-0.3,1-0.7c0.4-0.4,0.6-0.8,0.6-0.8s0.4-0.4,0.6-0.9C96.2,82.4,96.5,81.8,96.6,81.8z"/>
															</g>
															<g>
																<path class="st37" d="M90.8,68.1c0,0,3.4,0.9,7.8-2.5c0,0,2.3,1.3-1.7,3C91.8,70.8,90.8,68.1,90.8,68.1z"/>
																<g>
																	<path class="st30" d="M93,69.1c0-0.1,0.7,0.1,1.7,0s2.2-0.6,3.3-1.2c0.5-0.4,1-0.8,1.1-1.2c0.1-0.4-0.2-0.8-0.5-1
																		c-0.4-0.3-0.7-0.4-1-0.4c-0.3-0.1-0.4-0.1-0.4-0.1s-0.4-0.1-1,0c-0.3,0-0.7,0.1-1.1,0.2c-0.2,0.1-0.4,0.2-0.7,0.3
																		c-0.4,0.2-1,0.6-1.4,1c0-0.5,0-1.2-0.1-1.8c0-0.4,0-0.7,0-1.1c0-0.8,0-1.5,0-2.2c0-1.4,0.1-2.5,0.2-2.5
																		s0.3,1.1,0.4,2.5c0.1,0.7,0.2,1.5,0.2,2.3c0,0.4,0.1,0.8,0.1,1.1c0,0.1,0,0.2,0.1,0.2c0.1-0.1,0.1-0.1,0.2-0.1
																		c0.3-0.2,0.5-0.3,0.8-0.4c0.5-0.2,1-0.3,1.3-0.4c0.7-0.1,1.1,0,1.1,0s0.2,0,0.5,0.1c0.4,0.1,0.8,0.3,1.3,0.6
																		c0.3,0.2,0.5,0.4,0.7,0.8s0.3,0.8,0.1,1.2c-0.3,0.9-1,1.3-1.6,1.7c-1.3,0.6-2.6,1-3.7,1.1
																		C93.7,69.6,93,69.2,93,69.1z"/>
																</g>
																
																	<ellipse transform="matrix(0.9136 -0.4066 0.4066 0.9136 -18.7014 44.6031)" class="st39" cx="95.6" cy="66.3" rx="1.1" ry="0.5"/>
															</g>
														</g>
													</g>
													<g>
														<g>
															<g>
																<g>
																	<path class="st40" d="M103,60.3c0,0,0.1-0.1,0.3-0.3c0.2-0.2,0.4-0.5,0.8-0.8l0.1-0.1c0.7-0.6,1.6-1.3,2.7-1.6
																		c0.4-0.1,0.7-0.2,1.1-0.2c0.8,0,1.5,0.1,2,0.3c0.4,0.2,0.7,0.4,0.9,0.5c0.1,0.1,0.2,0.1,0.2,0.2
																		c0.1,0,0.1,0.1,0.1,0.1s0,0,0-0.1s-0.1-0.2-0.1-0.3c-0.1-0.2-0.4-0.5-0.8-0.9c-0.2-0.2-0.4-0.3-0.7-0.5
																		c-0.3-0.1-0.6-0.3-0.9-0.3c-0.3-0.1-0.7-0.1-1-0.1h-0.1c-0.3,0-0.7,0.1-1,0.2c-0.8,0.2-1.4,0.6-1.8,1.1
																		c-0.1,0.1-0.2,0.2-0.3,0.3c-0.3,0.3-0.6,0.7-0.7,1c-0.2,0.4-0.4,0.8-0.5,1C103,60.1,103,60.3,103,60.3z"/>
																</g>
															</g>
														</g>
													</g>
													<g>
														<g>
															<g>
																<g>
																	<path class="st40" d="M74,60.7c0,0,0.1-0.1,0.3-0.4c0.2-0.2,0.5-0.6,0.9-0.9l0.1-0.1c0.8-0.7,1.9-1.6,3.3-2
																		c0.4-0.1,0.9-0.2,1.3-0.2c0.9-0.1,1.8,0.1,2.5,0.4c0.5,0.2,0.9,0.4,1.1,0.6c0.1,0.1,0.2,0.2,0.3,0.2
																		c0.1,0,0.1,0.1,0.1,0.1s0,0-0.1-0.1c0-0.1-0.1-0.2-0.2-0.3c-0.2-0.3-0.5-0.7-0.9-1c-0.2-0.2-0.5-0.4-0.8-0.6
																		c-0.3-0.2-0.7-0.3-1.1-0.4c-0.4-0.1-0.8-0.2-1.3-0.2c-0.1,0-0.1,0-0.2,0c-0.4,0-0.8,0.1-1.2,0.2
																		c-0.9,0.3-1.7,0.8-2.3,1.3c-0.1,0.1-0.3,0.3-0.4,0.4c-0.4,0.4-0.7,0.8-0.9,1.2c-0.3,0.5-0.5,0.9-0.6,1.2
																		C74,60.6,74,60.7,74,60.7z"/>
																</g>
															</g>
														</g>
													</g>
												</g>
												<g>
													<path class="st7" d="M81.8,93.4c0.1,0,0.2-0.1,0.2-0.1c-0.4,0.1,0.9,3.3,1.1,3.8c0.6,1.1,1.6,2,2.6,2.7
														c2,1.4,4.7,2.3,7.2,1.6c1.6-0.4,3.2-1.1,4.1-2.5c1.2-1.8,1.3-3.6,1.1-5.5c2,2.4,3.9,5.1,4.9,8.1
														c0.9,2.6-0.4,10.6-4.4,8.6c-2-1.1-4-4.9-5.5-7c0,0-4.8,8.6-6.5,8.8c-3.1,0.4-5.7-3.9-6.7-6.2c-1.8-3.7-2.1-8.3,1-11.4
														C81.2,93.9,81.6,93.6,81.8,93.4z"/>
													<path class="st0" d="M81.6,91.8c0.1,0,0.2-0.1,0.2-0.1c-0.4,0.1,0.9,3.3,1.1,3.8c0.6,1.1,1.6,2,2.6,2.7
														c2,1.4,4.7,2.3,7.2,1.6c1.6-0.4,3.2-1.1,4.1-2.5c1.2-1.8,1.3-3.6,1.1-5.5c2,2.4,3.9,5.1,4.9,8.1
														c0.9,2.6-0.4,10.6-4.4,8.6c-2-1.1-4-4.9-5.5-7c0,0-4.8,8.6-6.5,8.8c-3.1,0.4-5.7-3.9-6.7-6.2c-1.8-3.7-2.1-8.3,1-11.4
														C80.9,92.3,81.2,92,81.6,91.8z"/>
													<g>
														<path class="st7" d="M86.5,107.7c-5.2-1.1-3.4-9.6-3.4-9.6s2.6,4.8,10,2.5s5.2-7.8,5-9c0.2,1.9,0,3.8-1.1,5.5
															c-1,1.3-2.5,2.1-4.1,2.5c-2.5,0.7-5.2-0.2-7.2-1.6c-1.1-0.7-1.9-1.7-2.6-2.7c-0.3-0.4-1.5-3.6-1.1-3.8
															c-0.1,0-0.2,0.1-0.2,0.1c-0.4,0.2-0.6,0.5-0.8,0.7c-3.1,3.1-2.7,7.7-1,11.4c1.1,2.3,3.8,6.6,6.7,6.2
															c0.6-0.1,1.6-1.2,2.6-2.6C88.4,107.9,87.5,107.9,86.5,107.7z"/>
														<path class="st7" d="M92.9,101.4c1.5,2,3.4,6,5.5,7c3.4,1.7,4.8-3.8,4.6-7.1c-0.5,2.3-1.3,4.6-2.3,5.5
															C98.7,109,92.9,101.4,92.9,101.4z"/>
													</g>
												</g>
											</g>
										</g>
										<path class="st41" d="M113.5,29.8c-7.8-9.4-25.9-11-35.9-8.8c-8.1,1.8-13,6.3-15,8.4c-4.2,4-11.9,12.9-11.1,23.7
											c0,0,1.1,2.7,2.9,0c0,0,0,2,5.1-0.9s15-11.6,18.2-14.5c0,0,1.3-0.7-0.5,1.6c-1.9,2.3-4.7,6.2,0.3,4.9
											c4.9-1.3,10.6-3.3,13.3-5.7c0,0-3.2,3.2-1.6,3.3s9.4-1.3,14.5-5c0,0,9,14.8,12.4,15.1c0,0,2.9,0.8,3.6-1.5
											C120.1,48.5,119.3,36.1,113.5,29.8z"/>
										<path class="st42" d="M117.9,41.6c-0.7-2.3-3.4-9.1-6.7-12.4c-3.9-4.3-10.7-6.6-22.3-7.1c-11.3-0.2-17.8,2.4-21.2,4.5
											c-0.4,0.2-0.7,0.3-1.1,0.5c0,0-10.9,8.4-13.7,19.3s5.8-5,9.6-7c3.7-2-3.7,6.4-6.4,9.6s0.4,2.4,7.8-1.9s15.2-13.2,17-12.1
											c1.9,1.1-1.3,4.7-3.6,6.2c-2.3,1.6,0.9,2,11.4-2.9s8.1-2.8,5.3-0.5c-2.8,2.3,5,0,11.2-3.6c0,0,6.2,14.1,10.6,14.6
											C120.2,49.3,118.8,44.5,117.9,41.6z"/>
										<path class="st43" d="M62.9,30.8c0,0-9,5.1-10.6,18.5c0,0,0.4,0.2,2.5-1.5C56.9,46.2,70.4,26.8,62.9,30.8L62.9,30.8z"/>
										<path class="st43" d="M77.2,35.6c0,0-10.2,11.5-19.5,15c0,0-2.5,0.5-0.6-1.5s4.3-6.8,9.2-10.3C71.1,35.3,80,33,77.2,35.6
											L77.2,35.6z"/>
										<path class="st43" d="M79.8,37.9c0,0-4.8,4.5-3.8,5.3s13.3-4,16.4-6.8C95.6,33.6,87.1,31.9,79.8,37.9L79.8,37.9z"/>
										<path class="st43" d="M96.6,35.6c0,0-5.4,2.3-5.5,3.8s7.2-0.9,11.2-3.1C106.3,34.1,101,33,96.6,35.6L96.6,35.6z"/>
										<path class="st43" d="M105,33.2c0,0,5.1,14.9,10.4,15.9c0,0,1.2,0.7,2.1-0.1s-1.1-9-3-12.1s2.6,1.7,3,6
											c0,0,1.3-2.6-1.4-6.8c-2.7-4.2-4.8-6.8-7.4-6.3C106.1,30.4,104.4,31.7,105,33.2L105,33.2z"/>
										<path class="st44" d="M60.4,33.1c0,0-3.8,2.8-6.2,9c-2.4,6.1,6.5-5.3,7.5-8C62.9,31.3,60.8,32.8,60.4,33.1L60.4,33.1z"/>
										<path class="st44" d="M71.1,36.6c0,0-4.1,0.9-7.6,5c-3.5,4.2,5.1-0.2,7.2-2.1C72.7,37.6,74.3,35.7,71.1,36.6L71.1,36.6z"
											/>
										<path class="st44" d="M89.1,34.5c0,0-4.3,0-8.5,3.3c-4.3,3.3,6.2,0.5,8.8-1.3C92.1,34.7,90.8,34.3,89.1,34.5L89.1,34.5z"
											/>
										<path class="st44" d="M100.8,34.6c0,0-3.7,0.5-5.4,2.1c-1.7,1.5,2.6,0,4.6-0.8S102.1,34.4,100.8,34.6L100.8,34.6z"/>
										<path class="st44" d="M115.9,42.6c0,0-4.1-11.2-6.5-11.5c-2.5-0.3-2.9,3.1,1.9,10C116,48.1,117.1,45,115.9,42.6
											L115.9,42.6z"/>
										<path class="st44" d="M115.1,46.7c0,0-3.6-4.6-4.3-3.5c-0.7,1.1,2.5,4.1,3.8,4.7C115.9,48.4,115.1,46.7,115.1,46.7
											L115.1,46.7z"/>
									</g>
								</g>
							</g>
						</g>
						<ellipse class="st45" cx="94.8" cy="78.1" rx="4.1" ry="0.9"/>
						<path class="st42" d="M97.8,72.6c0,0-4.6,1-9.2,0.3s-7.7,0.4-10,4.2c-2.3,3.8-4,2.2-4,2.2s-0.8,0.9,1.5,2.9
							c2.4,2,9.7,4.2,13.5-2.2c0,0,2.3-2.8,5.2-2.8c2.9,0,4.5,1.5,6,3s4.8,5.2,9.2,3.2c4.5-2,6-5.5,4-5.7s-4.5-1.8-5.9-2.9
							C106.6,73.5,102.8,71.1,97.8,72.6L97.8,72.6z"/>
						<path class="st43" d="M98.6,73.1c0,0-4.2,1.8-8.5,0.8c-4.4-1-7.4-0.6-10.4,3.1c0,0-2,3.7-4,3.1c0,0,1.4,1.4,3.5,0.5
							c0,0-1.2,1-2.3,0.8c0,0,3.5,2.9,7.3,1.5c3.8-1.5,3.5-6,9.6-6.6c6.2-0.6,7.2,2.3,8.8,3.9c1.6,1.6,6.5,3.2,9.2,1.1
							s-0.1-1.5-0.5-1.7c0,0,1.4-0.2,1.6-0.8c0.2-0.6-2.8-1.5-5.5-3.3C104.5,73.5,103.4,71.8,98.6,73.1L98.6,73.1z"/>
						<path class="st44" d="M88.4,74c0,0-5.2-1.6-8.7,3.8c0,0-0.9,1.4-0.3,1.3c0.6-0.2,4.6-3.5,7.4-3.9C89.7,74.8,89.5,74.3,88.4,74
							L88.4,74z"/>
						<path class="st44" d="M88.4,75.8c0,0-3.5,0.5-6,3.2s-3.2,2.5-4,2.4c0,0-0.6,0.4,0.2,0.7c0.8,0.3,5,1.2,7.2-1.5
							c2.3-2.7,2.9-4.5,4.8-4.7C92.4,75.8,89.9,75.4,88.4,75.8L88.4,75.8z"/>
						<path class="st44" d="M98.5,73.4c0,0,3.9-1.8,7.7,1.5c0,0,1.4,0.9,0.7,0.9C106.1,75.8,102.7,73,98.5,73.4L98.5,73.4z"/>
						<path class="st44" d="M98.1,74.3c0,0,5.8,0.1,7.7,3.5c1.8,3.5,5.1,2.4,5.9,2.1s-0.5,2.6-4.5,1.7c-4.1-1-4.2-2.7-5.7-4
							c-1.8-1.7-3-1.8-5.1-2C94.5,75.4,95.5,74.4,98.1,74.3L98.1,74.3z"/>
					</g>
				</g>
			</g>
		</g>
		<g>
			<g>
				<path class="st44" d="M72.5,50.4c-1.2,1.1-1.7,2.4-1.9,3.9c1.7-0.5,3.4-0.8,5.1-1c1.5-0.1,3.1-0.1,4.4,0.7
					c-0.8-1.2-1.9-2.3-3.4-2.8C75.3,50.7,74,50.6,72.5,50.4z"/>
				<path class="st44" d="M106.3,49.1c1.3,0.8,2,1.9,2.5,3.4c-1.6-0.1-3,0-4.6,0.3c-1.3,0.2-2.7,0.7-3.6,1.6
					c0.4-1.3,1.1-2.6,2.2-3.5C103.9,50,105,49.6,106.3,49.1z"/>
			</g>
			<g>
				<g>
					<g>
						<g>
							<path class="st46" d="M100.6,48.2c0,0-0.2,0.2-0.6,0.5s-1,0.7-1.8,1.2c-1.6,0.9-4,1.8-6.8,2.2c-2.8,0.3-5.3,0.1-7.1-0.1
								c-1.8-0.2-2.9-0.4-2.9-0.4s1.1,0,2.9,0s4.3,0,7-0.3s5.1-1,6.7-1.7c0.8-0.3,1.5-0.6,2-0.9C100.4,48.3,100.6,48.2,100.6,48.2z"
								/>
						</g>
					</g>
				</g>
				<g>
					<g>
						<g>
							<path class="st46" d="M100.4,46c0,0-0.2,0.2-0.6,0.5s-1,0.7-1.8,1.2c-1.6,0.9-4,1.8-6.8,2.2c-2.8,0.3-5.3,0.1-7.1-0.1
								c-1.8-0.2-2.9-0.4-2.9-0.4s1.1,0,2.9,0s4.3,0,7-0.3s5.1-1,6.7-1.7c0.8-0.3,1.5-0.6,2-0.9C100.1,46.1,100.4,46,100.4,46z"/>
						</g>
					</g>
				</g>
			</g>
		</g>
		<g>
			<g>
				<g>
					<g>
						<path class="st47" d="M106.5,67.5c0,0,0.6-0.1,1.6,0c0.9,0.1,2.3,0.4,3.6,1.3c1.3,0.8,2.1,1.9,2.7,2.6
							c0.6,0.7,0.9,1.3,0.9,1.3s-0.4-0.4-1.1-1.2c-0.6-0.6-1.6-1.7-2.8-2.4c-1.2-0.8-2.4-1.3-3.4-1.4
							C107.1,67.5,106.5,67.5,106.5,67.5z"/>
					</g>
				</g>
			</g>
			<g>
				<g>
					<g>
						<path class="st47" d="M105.6,68.9c0,0,0.6-0.1,1.6,0s2.3,0.4,3.6,1.3c1.3,0.8,2.1,1.9,2.7,2.6s0.9,1.3,0.9,1.3
							s-0.4-0.4-1.1-1.2c-0.6-0.6-1.6-1.7-2.8-2.4c-1.2-0.8-2.4-1.3-3.4-1.4C106.2,68.9,105.6,68.9,105.6,68.9z"/>
					</g>
				</g>
			</g>
		</g>
		<g>
			<g>
				<g>
					<g>
						<path class="st47" d="M80.3,67.8c0,0-0.6,0-1.6,0.2s-2.2,0.6-3.4,1.4c-1.2,0.8-2.1,1.8-2.8,2.4c-0.6,0.6-1.1,1.2-1.1,1.2
							s0.3-0.5,0.9-1.3c0.6-0.7,1.5-1.8,2.7-2.6c1.3-0.8,2.6-1.2,3.6-1.3C79.7,67.7,80.3,67.8,80.3,67.8z"/>
					</g>
				</g>
			</g>
			<g>
				<g>
					<g>
						<path class="st47" d="M81.2,69.1c0,0-0.6,0-1.6,0.2c-0.9,0.2-2.2,0.6-3.4,1.4c-1.2,0.8-2.1,1.8-2.8,2.4
							c-0.6,0.6-1.1,1.2-1.1,1.2s0.3-0.5,0.9-1.3c0.6-0.7,1.5-1.8,2.7-2.6c1.3-0.8,2.6-1.2,3.6-1.3C80.7,69.1,81.2,69.1,81.2,69.1z"
							/>
					</g>
				</g>
			</g>
		</g>
	</g>
</g>
</svg>
