<?xml version="1.0" encoding="utf-8"?>
<!-- Generator: Adobe Illustrator 21.0.0, SVG Export Plug-In . SVG Version: 6.00 Build 0)  -->
<svg version="1.1" id="Layer_1" xmlns="http://www.w3.org/2000/svg" xmlns:xlink="http://www.w3.org/1999/xlink" x="0px" y="0px"
	 viewBox="0 0 180 180" style="enable-background:new 0 0 180 180;" xml:space="preserve">
<style type="text/css">
	.st0{fill:#FFFFFF;}
	.st1{display:none;}
	.st2{display:inline;}
	.st3{fill:url(#SVGID_1_);}
	.st4{fill:#508906;}
	.st5{clip-path:url(#SVGID_4_);}
	.st6{fill:#F3B991;}
	.st7{fill:#EA9F6C;}
	.st8{fill:#0077BA;}
	.st9{fill:#066893;}
	.st10{fill:#DB8952;}
	.st11{fill:#17ABCE;}
	.st12{opacity:0.5;}
	.st13{fill:#D0DBFD;}
	.st14{opacity:0.5;fill:#179AAF;enable-background:new    ;}
	.st15{opacity:0.6;fill:#113F6A;enable-background:new    ;}
	.st16{opacity:0.5;fill:#167989;enable-background:new    ;}
	.st17{opacity:0.5;fill:#D0DBFD;enable-background:new    ;}
	.st18{fill:#421794;}
	.st19{opacity:0.45;fill:#421794;enable-background:new    ;}
	.st20{fill:#0D4349;}
	.st21{opacity:0.35;fill:#77AD74;enable-background:new    ;}
	.st22{opacity:0.25;fill:#167989;enable-background:new    ;}
	.st23{opacity:0.34;}
	.st24{fill:#113F6A;}
	.st25{opacity:0.5;fill:#0D4349;enable-background:new    ;}
	.st26{opacity:0.5;fill:#FF5E6C;enable-background:new    ;}
	.st27{opacity:0.5;enable-background:new    ;}
	.st28{fill:#F4D0A4;}
	.st29{fill:#F49166;}
	.st30{opacity:0.45;fill:#F4D0A4;enable-background:new    ;}
	.st31{opacity:0.25;fill:#FA8C89;enable-background:new    ;}
	.st32{fill:#EFC5A5;}
	.st33{fill:#E0E0E0;}
	.st34{fill:#BABABA;}
	.st35{fill:#F7F7F7;}
	.st36{fill:#FFE0C2;}
	.st37{opacity:0.45;enable-background:new    ;}
	.st38{fill:#E8B277;}
	.st39{fill:#EFC19C;}
	.st40{opacity:0.45;fill:#E8B277;enable-background:new    ;}
	.st41{fill:#FDE9CF;}
	.st42{fill:#DDDFE0;}
	.st43{fill:#A49089;}
	.st44{fill:#231F20;}
	.st45{fill:#EAAD85;}
	.st46{fill:#412820;}
	.st47{fill:#C12B3D;}
	.st48{fill:#FF5E6C;}
	.st49{opacity:0.1;fill:#5C0A0C;}
	.st50{opacity:0.5;fill:#FF5E6C;}
	.st51{fill:#4C73BF;}
</style>
<rect class="st0" width="180" height="180"/>
<rect class="st0" width="180" height="180"/>
<g>
	<g>
		<g>
			<g class="st1">
				<g class="st2">
					<g>
						
							<radialGradient id="SVGID_1_" cx="96.3333" cy="-300" r="167.1662" gradientTransform="matrix(1 0 0 1 0 384)" gradientUnits="userSpaceOnUse">
							<stop  offset="0.173" style="stop-color:#FFFFFF"/>
							<stop  offset="1" style="stop-color:#36CDFF;stop-opacity:0.3"/>
						</radialGradient>
						<rect id="SVGID_2_" x="0.4" y="0.1" class="st3" width="180" height="180"/>
					</g>
				</g>
			</g>
			<g>
				<g>
					<g>
						<path class="st4" d="M168.9,173.6h-2.6V173h2.6V173.6z M163.1,173.6h-2.6V173h2.6V173.6z M157.3,173.6h-2.6V173h2.6V173.6z
							 M151.5,173.6H149V173h2.6v0.6H151.5z M145.8,173.6h-2.6V173h2.6V173.6z M140,173.6h-2.6V173h2.6V173.6z M134.2,173.6h-2.6
							V173h2.6V173.6z M128.5,173.6h-2.6V173h2.6V173.6z M122.7,173.6h-2.6V173h2.6V173.6z M116.9,173.6h-2.6V173h2.6V173.6z
							 M111.2,173.6h-2.6V173h2.6V173.6z M105.4,173.6h-2.6V173h2.6V173.6z M99.6,173.6H97V173h2.6V173.6z M93.9,173.6h-2.6V173h2.6
							V173.6z M88.1,173.6h-2.6V173h2.6V173.6z M82.3,173.6h-2.6V173h2.6V173.6z M76.5,173.6H74V173h2.6L76.5,173.6L76.5,173.6z
							 M70.8,173.6h-2.6V173h2.6V173.6z M65,173.6h-2.6V173H65V173.6z M59.2,173.6h-2.6V173h2.6V173.6z M53.5,173.6h-2.6V173h2.6
							V173.6z M47.7,173.6h-2.6V173h2.6V173.6z M41.9,173.6h-2.6V173h2.6V173.6z M36.2,173.6h-2.6V173h2.6V173.6z M30.4,173.6h-2.6
							V173h2.6V173.6z M24.6,173.6H22V173h2.6V173.6z M18.9,173.6h-2.6V173h2.6V173.6z M13.1,173.6H12c-0.5,0-1-0.1-1.5-0.2l0.2-0.6
							c0.4,0.1,0.9,0.2,1.3,0.2h1.1V173.6z M171.5,172.8l-0.3-0.5c0.7-0.4,1.2-1,1.6-1.8l0.6,0.3
							C172.9,171.6,172.3,172.3,171.5,172.8z M7.8,171.3c-0.5-0.8-0.8-1.7-0.8-2.6h0.6c0,0.8,0.3,1.6,0.7,2.2L7.8,171.3z
							 M173.9,167.5h-0.6V165h0.6V167.5z M7.6,165.5H6.9V163h0.6L7.6,165.5L7.6,165.5z M173.9,161.8h-0.6v-2.6h0.6V161.8z
							 M7.6,159.8H6.9v-2.6h0.6L7.6,159.8L7.6,159.8z M173.9,156h-0.6v-2.6h0.6V156z M7.6,154H6.9v-2.6h0.6L7.6,154L7.6,154z
							 M173.9,150.2h-0.6v-2.6h0.6V150.2z M7.6,148.2H6.9v-2.6h0.6L7.6,148.2L7.6,148.2z M173.9,144.4h-0.6v-2.6h0.6V144.4z
							 M7.6,142.4H6.9v-2.6h0.6L7.6,142.4L7.6,142.4z M173.9,138.7h-0.6v-2.6h0.6V138.7z M7.6,136.7H6.9v-2.6h0.6L7.6,136.7
							L7.6,136.7z M173.9,132.9h-0.6v-2.6h0.6V132.9z M7.6,130.9H6.9v-2.6h0.6L7.6,130.9L7.6,130.9z M173.9,127.1h-0.6v-2.6h0.6
							V127.1z M7.6,125.1H6.9v-2.6h0.6L7.6,125.1L7.6,125.1z M173.9,121.4h-0.6v-2.6h0.6V121.4z M7.6,119.4H6.9v-2.6h0.6L7.6,119.4
							L7.6,119.4z M173.9,115.6h-0.6V113h0.6V115.6z M7.6,113.6H6.9V111h0.6L7.6,113.6L7.6,113.6z M173.9,109.8h-0.6v-2.6h0.6V109.8
							z M7.6,107.8H6.9v-2.6h0.6L7.6,107.8L7.6,107.8z M173.9,104.1h-0.6v-2.6h0.6V104.1z M7.6,102.1H6.9v-2.6h0.6L7.6,102.1
							L7.6,102.1z M173.9,98.3h-0.6v-2.6h0.6V98.3z M7.6,96.3H6.9v-2.6h0.6L7.6,96.3L7.6,96.3z M173.9,92.5h-0.6V90h0.6V92.5z
							 M7.6,90.5H6.9V88h0.6L7.6,90.5L7.6,90.5z M173.9,86.8h-0.6v-2.6h0.6V86.8z M7.6,84.8H6.9v-2.6h0.6L7.6,84.8L7.6,84.8z
							 M173.9,81h-0.6v-2.6h0.6V81z M7.6,79H6.9v-2.6h0.6L7.6,79L7.6,79z M173.9,75.2h-0.6v-2.6h0.6V75.2z M7.6,73.2H6.9v-2.6h0.6
							L7.6,73.2L7.6,73.2z M173.9,69.4h-0.6v-2.6h0.6V69.4z M7.6,67.4H6.9v-2.6h0.6L7.6,67.4L7.6,67.4z M173.9,63.7h-0.6v-2.6h0.6
							V63.7z M7.6,61.7H6.9v-2.6h0.6L7.6,61.7L7.6,61.7z M173.9,57.9h-0.6v-2.6h0.6V57.9z M7.6,55.9H6.9v-2.6h0.6L7.6,55.9L7.6,55.9
							z M173.9,52.1h-0.6v-2.6h0.6V52.1z M7.6,50.1H6.9v-2.6h0.6L7.6,50.1L7.6,50.1z M173.9,46.4h-0.6v-2.6h0.6V46.4z M7.6,44.4H6.9
							v-2.6h0.6L7.6,44.4L7.6,44.4z M173.9,40.6h-0.6V38h0.6V40.6z M7.6,38.6H6.9V36h0.6L7.6,38.6L7.6,38.6z M173.9,34.8h-0.6v-2.6
							h0.6V34.8z M7.6,32.8H6.9v-2.6h0.6L7.6,32.8L7.6,32.8z M173.9,29.1h-0.6v-2.6h0.6V29.1z M7.6,27.1H6.9v-2.6h0.6L7.6,27.1
							L7.6,27.1z M173.9,23.3h-0.6v-2.6h0.6V23.3z M7.6,21.3H6.9v-2.6h0.6L7.6,21.3L7.6,21.3z M173.9,17.5h-0.6V15h0.6V17.5z
							 M7.6,15.5H6.9V13h0.6L7.6,15.5L7.6,15.5z M173.9,11.8h-0.6v-0.1c0-0.8-0.2-1.5-0.6-2.2l0.6-0.3c0.4,0.8,0.7,1.6,0.7,2.5
							L173.9,11.8L173.9,11.8z M7.9,9.9L7.3,9.7c0.4-0.9,1-1.6,1.7-2.1l0.4,0.5C8.8,8.6,8.2,9.2,7.9,9.9z M170.4,7.6
							c-0.5-0.2-1-0.3-1.6-0.3H168V6.6h0.8c0.6,0,1.2,0.1,1.8,0.3L170.4,7.6z M164.8,7.3h-2.6V6.6h2.6V7.3z M159,7.3h-2.6V6.6h2.6
							V7.3z M153.3,7.3h-2.6V6.6h2.6V7.3z M147.5,7.3h-2.6V6.6h2.6V7.3z M141.7,7.3h-2.6V6.6h2.6V7.3z M136,7.3h-2.6V6.6h2.6V7.3z
							 M130.2,7.3h-2.6V6.6h2.6V7.3z M124.4,7.3h-2.6V6.6h2.6V7.3z M118.6,7.3H116V6.6h2.6V7.3z M112.9,7.3h-2.6V6.6h2.6V7.3z
							 M107.1,7.3h-2.6V6.6h2.6V7.3z M101.3,7.3h-2.6V6.6h2.6V7.3z M95.6,7.3H93V6.6h2.6V7.3z M89.8,7.3h-2.6V6.6h2.6V7.3z M84,7.3
							h-2.6V6.6H84V7.3z M78.3,7.3h-2.6V6.6h2.6V7.3z M72.5,7.3h-2.6V6.6h2.6V7.3z M66.7,7.3h-2.6V6.6h2.6V7.3z M61,7.3h-2.6V6.6H61
							V7.3z M55.2,7.3h-2.6V6.6h2.6V7.3z M49.4,7.3h-2.6V6.6h2.6V7.3z M43.6,7.3H41V6.6h2.6V7.3z M37.9,7.3h-2.6V6.6h2.6V7.3z
							 M32.1,7.3h-2.6V6.6h2.6V7.3z M26.3,7.3h-2.6V6.6h2.6V7.3z M20.6,7.3H18V6.6h2.6V7.3z M14.8,7.3h-2.6V6.6h2.6
							C14.8,6.6,14.8,7.3,14.8,7.3z"/>
					</g>
				</g>
			</g>
		</g>
	</g>
</g>
<g>
	<g>
		<g>
			<g>
				<g>
					<g>
						<g>
							<g>
								<g>
									<defs>
										<ellipse id="SVGID_3_" cx="48.3" cy="57.2" rx="110.9" ry="100"/>
									</defs>
									<clipPath id="SVGID_4_">
										<use xlink:href="#SVGID_3_"  style="overflow:visible;"/>
									</clipPath>
									<g class="st5">
										<g>
											<g>
												<g>
													<path class="st6" d="M38.8,233.9l-16.5,37.2h-9.6c0,0,9.6-35.2,11.9-38C30.7,225.7,38.4,226.3,38.8,233.9z"/>
													<path class="st7" d="M38.9,233.8L22.4,271h-4.8c0,0,8.3-17.1,11.1-24.2c1.4-3.5-7-6.1-7-6.3c1.3-3.9,2.4-6.8,2.9-7.5
														C30.8,225.6,38.5,226.2,38.9,233.8z"/>
												</g>
												<path class="st7" d="M60.3,232.9l-14.1,38.2h-9.6c0,0,9.5-40,11.9-42.7C52.5,223.5,59.9,224.3,60.3,232.9z"/>
											</g>
											<g>
												<g>
													<path class="st8" d="M-157.2,60.2c-4.3-8.1-7.9-16.5-9.5-18.5c-2.3-2.7-5.9-3.3-7.3-2.8c-1.5,0.4-7.2-0.3-8.8-1
														c-0.5-0.2,0.2-3.5-0.6-3.9c-1.7-0.9-11.3-1.2-12-0.5c-0.7,0.7-0.2,4.1-0.4,4.2c-3,2-8.1,0.3-9.9,0
														c-20.3-4-11.9,35.2-9.3,52.6c0.6,4.2-9.1,20.7-9.1,23.9c0,3.1,54.3,6.6,53.5,0.6c-0.8-5.9-3.7-27.6-3.7-27.6
														s1.1-7.4,3.7-15.8c0.2-0.7,0.7-4.3,1-6.8c0.1-0.4,13.4,18.8,14.3,19.2c6.3,2.5,10.9-2.7,8.8-5.9
														C-147.6,76-152.8,68.3-157.2,60.2z"/>
													<path class="st9" d="M-156.6,61c-4.3-8-8.5-17.4-10.1-19.3c-1.4-1.6-3.2-2.5-4.7-2.8c-1.1-0.2-9.8-0.3-11.4-1.1
														c-0.5-0.2,0.2-3.5-0.6-3.9c-1.7-0.9-11.3-1.2-12-0.5c-0.7,0.7-0.2,4.1-0.4,4.2c-3,2-8.1,0.3-9.9,0
														c-1.4-0.3-2.6-0.4-3.8-0.2c-0.5,0,0.8,0.5,2.2,2c1.2,1.3,2.5,3.5,2.7,6.9c0.4,8.6,2.2,22.7,2.4,32.9
														c0,0.4-2.7,0.2-5.8,1.6c-2,0.9-2.1,2.4,0.6,1.7c2.7-0.7,5.5-0.7,5.6-0.4c0.5,1.3,1.5,3.2,1.5,3.7
														c-0.6,5-6.4,8.4-10.9,6.6c-0.7-0.3-2.1-0.4-2.7-4.1c-1.9-12-4-42-4.5-39c-0.1,0.6-0.2,1.3-0.2,2
														c-1.2,12,0.7,30.9,2.2,40.8c0.6,4.2-7.6,18.9-7.6,22.1c0,3.1,54.3,6.6,53.5,0.6c-0.8-5.4-2.6-24.2-0.8-34.3
														c0.2-1.1,1.8-3.1,2-3.9c0.1-0.5,1.3-4.2,1.2-7.5c-0.1-2,12,14.2,13,14.6c6.3,2.5,10.9-2.7,8.8-5.9
														C-147.6,76-152.2,69.2-156.6,61z"/>
												</g>
												<g>
													<g>
														<path class="st7" d="M-189.7,52.7c0.2-0.3,1.5,1.2,3.3,2.2c1.3,0.8,3.1,1,3.7,1.9c1.4,1.9,2.4,6.2,2.4,6.2
															s21.4,7.7,31,13.8c5.1,3.3,3.7,10.7-3.9,9.1c-7-1.5-27.5-16.5-28.7-16.8c-1.6-0.3-6,1.7-9.2,0.8
															c-2.7-0.8-6.7-2.4-8.3-3.2c-1.6-0.8-1.8-1.8-0.4-1.6c1.5,0.3,4,1.6,5.1,1.6c0.7,0,0.5-0.6,0.3-0.7
															c-1.4-0.8-5.9-2.9-7.6-4.3c-1-0.9-0.4-1.7,0.4-1.5c1.4,0.3,4.2,1.4,4.3,1.2c0-0.1-3.3-1.6-4.1-2.3
															c-1-1-0.1-1.7,0.9-1.5c1.9,0.5,4.9,1.9,6.5,2.3c1.5,0.3,1-0.3,1-0.3s-4.8-2.4-5-2.6c-0.6-0.5-0.9-1-0.8-1.4
															c0.1-0.4,0.9-0.4,1.9-0.2c1.3,0.3,9,3.6,9,3.6s3.1,0.3,2.2-0.9c-0.5-0.7-2.6-1.7-3.6-2.5
															C-190.4,54.5-190.3,53.7-189.7,52.7z"/>
														<g>
															<path class="st10" d="M-185.7,58c-0.5-0.7-2.6-1.7-3.6-2.5c-0.5-0.4-0.8-0.8-0.9-1.2c0-0.1,0.9,0.8,2.2,1.7
																c0.9,0.6,2.2,1,2.8,1.9c0.3,0.4,0.2,1-0.7,1.5c-0.1,0-10.1-3.8-11.1-4.2C-196.1,55.3-185,58.9-185.7,58z"/>
															<path class="st10" d="M-201.6,60.2c1.4,0.3,4.2,1.4,4.3,1.2c0-0.1-3.3-1.6-4.1-2.3c-1-1-0.1-1.7,0.9-1.5
																c1.9,0.5,4.9,1.9,6.5,2.3c1.5,0.3,1-0.3,1-0.3s-4.8-2.4-5-2.6c-0.6-0.5-0.9-1-0.8-1.4c0-0.1,0.4,1,1.2,1.4
																c0.6,0.3,5.1,2.5,5.3,2.6c0,0.3,0.1,0.7-0.1,0.9c-0.8,0.9-8.5-2.8-8.6-2.5c0,0.2-0.6,0.4,0.5,1
																c2.4,1.4,7.8,3.6,7.8,3.9c0,0.1,0,0.5-0.8,0.4c-2.5-0.5-8-2.7-8-2.6c0,0.4-0.3,0.3,0.5,0.8c1.8,1.1,5.7,2.8,7.6,4.1
																c0.9,0.6,0.5,2.1,0.7,2.4c1.3,1.4,7,0.6,9.8,0.2c1.2-0.1,1.5,0.1,1.5,0.1s28.6,21.8,32.2,13.8
																c1.2-2.6-0.4-5.4-0.1-5.3c5.1,3.3,3.7,10.7-3.9,9.1c-7-1.5-27.5-16.5-28.7-16.8c-1.6-0.3-6,1.7-9.2,0.8
																c-2.7-0.8-6.7-2.4-8.3-3.2c-1.6-0.8-1.8-1.8-0.4-1.6c1.5,0.3,4,1.6,5.1,1.6c0.7,0,0.5-0.6,0.3-0.7
																c-1.4-0.8-5.9-2.9-7.6-4.3C-203,60.8-202.4,60-201.6,60.2z"/>
														</g>
													</g>
												</g>
												<g>
													<g>
														<path class="st7" d="M-158.9,99.3c0.1-0.4-1.9-0.3-3.8-0.9c-1.4-0.4-2.8-1.6-3.9-1.5c-2.3,0.3-6,2.5-6,2.5
															s-20.1-10.8-31-13.8c-5.8-1.6-10.1,4.5-3.7,9.2c5.8,4.2,30.5,9.2,31.6,10c1.3,1,2.9,5.7,5.7,7.4c2.3,1.5,6.3,3.4,8,4
															c1.7,0.6,2.5,0.1,1.4-0.8c-1.2-0.9-3.9-1.9-4.6-2.7c-0.5-0.5,0.1-0.8,0.3-0.7c1.6,0.5,6.1,2.4,8.2,2.7
															c1.3,0.2,1.4-0.9,0.8-1.3c-1.2-0.8-3.9-2.2-3.8-2.4c0-0.1,3.4,1.4,4.4,1.4c1.4,0.1,1.3-1.1,0.4-1.7
															c-1.6-1.1-4.7-2.3-6.1-3.3c-1.3-0.9-0.5-1-0.5-1s5,1.9,5.3,2c0.7,0.1,1.3,0,1.5-0.4c0.2-0.4-0.3-1-1.2-1.6
															c-1.1-0.8-8.7-4.3-8.7-4.3s-2.4-2.1-0.9-2.3c0.9-0.1,3,0.8,4.2,1C-159.6,101-159.1,100.4-158.9,99.3z"/>
														<g>
															<path class="st10" d="M-165.4,99.8c0.9-0.1,3,0.8,4.2,1c0.6,0.1,1.1,0,1.4-0.1c0.1-0.1-1.2-0.1-2.7-0.5
																c-1.1-0.3-2.2-1-3.3-0.8c-0.4,0.1-0.8,0.5-0.6,1.6c0,0.1,9.6,5,10.6,5.5C-156.4,105.8-166.5,100-165.4,99.8z"/>
															<path class="st10" d="M-156,113.3c-1.2-0.8-3.9-2.2-3.8-2.4c0-0.1,3.4,1.4,4.4,1.4c1.4,0.1,1.3-1.1,0.4-1.7
																c-1.6-1.1-4.7-2.3-6.1-3.3c-1.3-0.9-0.5-1-0.5-1s5,1.9,5.3,2c0.7,0.1,1.3,0,1.5-0.4c0.1-0.1-0.9,0.4-1.8,0.1
																c-0.6-0.2-5.2-2.1-5.4-2.1c-0.2,0.2-0.5,0.4-0.6,0.6c-0.1,1.2,7.8,4.5,7.7,4.7c-0.1,0.1,0.1,0.7-1,0.3
																c-2.6-0.9-7.9-3.4-8.1-3.1c-0.1,0.1-0.4,0.4,0.3,0.9c2.1,1.5,7.4,4.1,7.3,4.2c-0.3,0.3,0,0.5-0.9,0.2
																c-1.9-0.6-5.9-2.3-8.2-2.9c-1-0.2-1.8,1.1-2.2,1.1c-1.9,0-5.2-4.8-6.9-7.2c-0.7-1-1.1-1-1.1-1s-35-6.5-31.9-14.7
																c1-2.7,4.1-3.4,3.8-3.5c-5.8-1.6-10.1,4.5-3.7,9.2c5.8,4.2,30.5,9.2,31.6,10c1.3,1,2.9,5.7,5.7,7.4
																c2.3,1.5,6.3,3.4,8,4c1.7,0.6,2.5,0.1,1.4-0.8c-1.2-0.9-3.9-1.9-4.6-2.7c-0.5-0.5,0.1-0.8,0.3-0.7
																c1.6,0.5,6.1,2.4,8.2,2.7C-155.4,114.8-155.3,113.7-156,113.3z"/>
														</g>
													</g>
												</g>
											</g>
											<g>
												<g>
													<g>
														<path class="st11" d="M64.3,102.2c0,0,22.7,34.1,23.5,46.3c0.7,12.2-14.9,32.5-22.5,37.6c0,0,3-5.7-4.2-11.7
															c0,0,16.5-21.2,15.2-27.1c-1.3-6-14.7-22.8-14.7-22.8S56.8,113.4,64.3,102.2z"/>
														<g class="st12">
															<g>
																<path class="st13" d="M82.5,145.5c0-0.1-0.9-0.3-1.9-0.3c-0.5,0-1,0.1-1.3,0.2c-0.3,0.1-0.6,0.2-0.6,0.2
																	s-0.2,0.1-0.6,0.3c-0.3,0.2-0.7,0.6-1.1,1c-0.3,0.4-0.6,0.9-0.7,1.4c-0.2,0.4-0.2,0.7-0.2,0.7s0.2-0.3,0.2-0.7
																	c0.2-0.3,0.4-0.9,0.7-1.2s0.7-0.7,1.1-0.9c0.2-0.2,0.5-0.3,0.5-0.3s0.2-0.1,0.5-0.2c0.3-0.2,0.8-0.2,1.2-0.2
																	C81.6,145.4,82.5,145.6,82.5,145.5z"/>
															</g>
															<g>
																<path class="st13" d="M79.3,142.8c-0.1-0.1-0.7,0.4-1.1,1c-0.5,0.6-0.9,1.3-0.9,1.3s-0.4,0.7-0.7,1.5
																	c-0.2,0.8-0.4,1.6-0.3,1.6c0.1,0,0.2-0.8,0.6-1.5c0.3-0.7,0.7-1.5,0.7-1.5s0.3-0.7,0.8-1.4
																	C78.8,143.5,79.3,142.9,79.3,142.8z"/>
															</g>
														</g>
													</g>
													<g>
														<path class="st14" d="M60.9,174.4L60.9,174.4L60.9,174.4L60.9,174.4z"/>
														<path class="st14" d="M87.7,148.6L87.7,148.6c0-0.2-0.1-0.4-0.1-0.7c0-0.1,0-0.2-0.1-0.2c0-0.2-0.1-0.3-0.1-0.5
															c0-0.1-0.1-0.2-0.1-0.3c-0.1-0.2-0.1-0.3-0.2-0.5c0-0.1-0.1-0.2-0.1-0.2c-0.1-0.3-0.2-0.5-0.2-0.8c0,0,0,0,0-0.1
															c-0.1-0.3-0.2-0.5-0.2-0.8c0-0.1-0.1-0.2-0.1-0.3c-0.1-0.2-0.2-0.4-0.2-0.6c-0.1-0.1-0.1-0.2-0.2-0.3
															c-0.1-0.2-0.2-0.4-0.2-0.7c-0.1-0.1-0.1-0.2-0.2-0.3c-0.2-0.3-0.2-0.7-0.3-0.9c0,0,0-0.1-0.1-0.1
															c-0.2-0.3-0.2-0.6-0.3-0.9c-0.1-0.2-0.2-0.2-0.2-0.3c-0.2-0.2-0.2-0.4-0.2-0.7c-0.1-0.2-0.2-0.2-0.2-0.3
															c-0.2-0.2-0.2-0.5-0.2-0.7c-0.1-0.1-0.2-0.2-0.2-0.3c-0.2-0.3-0.2-0.7-0.5-1c0-0.1-0.1-0.1-0.1-0.2
															c-0.2-0.3-0.2-0.7-0.4-0.9c-0.1-0.2-0.2-0.2-0.2-0.3c-0.2-0.2-0.2-0.5-0.3-0.7c-0.1-0.2-0.2-0.2-0.2-0.3
															c-0.2-0.3-0.2-0.5-0.3-0.8c-0.1-0.1-0.2-0.2-0.2-0.3c-0.2-0.3-0.3-0.7-0.5-1.1c0-0.1-0.1-0.1-0.1-0.2
															c-0.2-0.3-0.2-0.7-0.5-0.9c-0.1-0.2-0.2-0.2-0.2-0.3c-0.2-0.3-0.2-0.5-0.4-0.8c-0.1-0.2-0.2-0.2-0.2-0.3
															c-0.2-0.3-0.2-0.6-0.5-0.9c-0.1-0.1-0.2-0.2-0.2-0.3c-0.2-0.3-0.4-0.7-0.6-1.1c0-0.1-0.1-0.1-0.1-0.2
															c-0.2-0.3-0.3-0.7-0.5-1c-0.1-0.2-0.2-0.2-0.2-0.3c-0.2-0.3-0.2-0.5-0.4-0.8c-0.1-0.2-0.2-0.2-0.2-0.3
															c-0.2-0.3-0.3-0.6-0.5-0.9c-0.1-0.1-0.2-0.2-0.2-0.3c-0.2-0.3-0.4-0.7-0.7-1.1c0-0.1-0.1-0.1-0.1-0.2
															c-0.2-0.3-0.3-0.7-0.6-1c-0.1-0.1-0.2-0.2-0.2-0.3c-0.2-0.3-0.2-0.5-0.5-0.8c-0.1-0.2-0.2-0.2-0.2-0.3
															c-0.2-0.3-0.3-0.6-0.5-0.9c-0.1-0.1-0.1-0.2-0.2-0.2c-0.2-0.3-0.4-0.7-0.7-1.1c0,0,0,0-0.1-0.1
															c-0.2-0.3-6.8-11.4-6.9-11.8c-0.1-0.1-0.2-0.2-0.2-0.3c-0.2-0.3-0.2-0.5-0.5-0.8c-0.1-0.1-0.2-0.2-0.2-0.3
															c-0.2-0.3-0.3-0.6-0.5-0.9c-0.1-0.1-0.1-0.2-0.2-0.2c-0.2-0.3-0.4-0.7-0.7-1l0,0c-0.2,0-0.2-0.1-0.2-0.1
															c0.2,0.3,17.4,33.2,15.2,37.2c-2.2,4-16.1-13.9-18-19.2c-1.8-5.1-1.3-10.4-1.5-10.3l0,0c-0.2,0.6-0.2,1.1-0.3,1.6l0,0
															c-0.1,0.6-0.2,1.3-0.2,2c-0.1,0.4-0.1,0.8-0.1,1.2c0,0.1,0,0.2,0,0.3c0,0.3,0,0.8,0,1.1v0.1c0,0.3,0,0.7,0.1,1
															c0,0.1,0,0.2,0,0.2c0,0.3,0.1,0.7,0.2,1v0.1c0.1,0.3,0.1,0.6,0.2,0.9c0,0.1,0,0.2,0,0.2c0.1,0.3,0.2,0.6,0.2,0.9v0.1
															c0.1,0.3,0.2,0.5,0.2,0.7v0.1c0.1,0.2,0.2,0.5,0.2,0.7c0.2,0.7,0.4,1.3,0.7,2c0.1,0.1,0.1,0.1,0.2,0.2l0.1,0.1
															c0.1,0.1,0.1,0.1,0.2,0.2c0.1,0.1,0.1,0.2,0.2,0.2c0.1,0.1,0.1,0.1,0.2,0.2c0.1,0.1,0.2,0.2,0.2,0.3l0.1,0.1
															c0.1,0.1,0.2,0.2,0.2,0.3c0.1,0.1,0.1,0.1,0.2,0.2c0.2,0.2,0.2,0.3,0.2,0.4c0.1,0.1,0.1,0.1,0.2,0.2
															c0.2,0.2,0.2,0.3,0.4,0.5c0,0,0,0,0.1,0.1c1.2,1.6,3,3.9,4.7,6.4l0.1,0.1c0.2,0.3,0.4,0.6,0.6,0.9
															c0.1,0.1,0.1,0.2,0.2,0.2c0.2,0.3,0.3,0.5,0.5,0.8c0.1,0.1,0.2,0.2,0.2,0.2c0.2,0.2,0.3,0.5,0.5,0.7
															c0.1,0.1,0.2,0.2,0.2,0.3c0.2,0.2,0.2,0.4,0.5,0.7c0.1,0.1,0.2,0.2,0.2,0.3c0.2,0.2,0.2,0.4,0.4,0.7
															c0.1,0.1,0.2,0.2,0.2,0.3c0.2,0.2,0.2,0.4,0.4,0.6c0.1,0.2,0.2,0.2,0.2,0.3c0.2,0.2,0.2,0.3,0.3,0.6
															c0.1,0.2,0.2,0.2,0.2,0.3c0.2,0.2,0.2,0.3,0.3,0.6c0.1,0.2,0.2,0.2,0.2,0.3c0.2,0.2,0.2,0.3,0.2,0.6
															c0.1,0.2,0.2,0.2,0.2,0.3c0.2,0.2,0.2,0.3,0.2,0.5c0.1,0.2,0.2,0.2,0.2,0.3c0.2,0.2,0.2,0.3,0.2,0.5
															c0.1,0.2,0.2,0.2,0.2,0.3c0.1,0.2,0.2,0.3,0.2,0.4c0.1,0.1,0.2,0.2,0.2,0.3c0.1,0.2,0.2,0.3,0.2,0.4
															c0,0.1,0.2,0.2,0.2,0.3c0.1,0.2,0.2,0.3,0.2,0.4c0.1,0.1,0.1,0.2,0.2,0.3c0.1,0.2,0.2,0.3,0.2,0.4s0.1,0.2,0.1,0.2
															c0.1,0.2,0.2,0.4,0.2,0.6c0.1,0.2,0.1,0.3,0.1,0.5c0.1,1.1-0.2,2.6-1.1,4.3c1.4-1.5,3-2.6,4.4-2.5
															c3.3,0.6-1.7,24.1-11.2,28.3c-1.5,0.7-2.6,0.9-3.5,0.9c2.1,4.1,0.5,7.3,0.5,7.3c3.1-2,7.6-6.7,11.7-12.2
															c2.5-3.4,4.9-7.2,6.9-10.9c0.5-0.9,0.9-1.9,1.3-2.8s0.8-1.9,1.1-2.8C87.2,154.3,87.9,151.2,87.7,148.6z"/>
													</g>
													<path class="st15" d="M64.8,171.4c0.5-0.7,1.1-1.4,1.6-2c2.1-2.9,3.9-6,3.9-6s0.5-0.8,1.1-2c0.7-1.2,1.6-2.8,2.3-4.4
														c0.4-0.9,0.8-1.6,1.1-2.5s0.7-1.5,1.1-2s0.9-0.9,1.2-0.9c0.3-0.2,0.6-0.1,0.6-0.1c0,0.1-0.2,0.1-0.5,0.2
														c-0.2,0.2-0.7,0.5-1.1,1c-0.7,1.1-1.3,2.9-2.1,4.6c-0.7,1.7-1.6,3.3-2.2,4.6c-0.7,1.2-1.1,2-1.1,2s-1.9,3.2-4.1,6
														c-0.6,0.7-1.1,1.4-1.6,2c-0.6,0.7-1.1,1.1-1.5,1.6c-0.3,0.6-0.6,1.1-0.6,1.5c0,0.4,0.1,0.7,0.1,0.7s-0.2-0.2-0.2-0.7
														c-0.1-0.4,0.2-1.1,0.5-1.7C63.8,172.6,64.3,172.1,64.8,171.4z"/>
													<path class="st15" d="M62,112.5c0,0-0.2,1.7-0.2,3.4c-0.1,1.7,0.2,3.4,0,3.5c-0.2,0-0.4-1.7-0.5-3.4
														c-0.2-1.8,0-3.5,0-3.5s0.2-1.8,0.7-3.4c0.4-1.7,1.1-3.3,1.1-3.2c0.2,0.1-0.3,1.7-0.7,3.3C62.1,110.7,62,112.5,62,112.5
														z"/>
												</g>
												<g>
													<path class="st0" d="M40.7,96.5c0,0-12.9,2.6-17.1,6c0,0,5,18.5,2.1,27.1c2.2,8.7,3.8,17.8,4.8,26.9
														c0.2,2.6,0.5,5.3,0.7,7.9c0.2,2.5-0.7,6,1.9,6.7c1.8,0.5,3.5,1,5.4,1.4c4.9,1.1,10,1.7,15,0.9c2.1-0.3,4.7-0.7,6.3-2.6
														c1.1-1.5,1.2-3.6,1.6-5.5c0.6-4.7,1.1-9.2,1.6-13.9c1.3-11.3,2.6-22.6,3.5-34c0.2-2.1,0.2-4.3,0.4-6.4
														C67.4,96.3,49.5,96.5,40.7,96.5z"/>
													<path class="st11" d="M40.7,96c0,0-12.9,2.6-17.1,6c0,0,5,18.5,2.1,27.1c2.2,8.7,3.8,17.8,4.8,26.9
														c0.2,2.6,0.5,5.3,0.7,7.9c0.2,2.5-0.7,6,1.9,6.7c1.8,0.5,3.5,1,5.4,1.4c4.9,1.1,10,1.7,15,0.9c2.1-0.3,4.7-0.7,6.3-2.6
														c1.1-1.5,1.2-3.6,1.6-5.5c0.6-4.7,1.1-9.2,1.6-13.9c1.3-11.3,2.6-22.6,3.5-34c0.2-2.1,0.2-4.3,0.4-6.4
														C67.4,95.9,49.5,96,40.7,96z"/>
													<path class="st16" d="M61.3,165.5c0.2-2.4,0.6-4.7,0.8-7c-4.4,11.5-13.3,13.2-22,8.2c-10.3-6-12.3-47.8-12.3-48.3
														c0,0-0.9,4.9-2.1,11.9c2.1,8.6,3.7,17.4,4.7,26.3c0.2,2.6,0.5,5.3,0.7,7.9c0.2,2.5-0.7,6,1.9,6.7
														c1.8,0.5,3.5,1,5.4,1.4c4.9,1.1,10,1.7,15,0.9c2.1-0.3,4.7-0.7,6.3-2.6C61,169.5,61.1,167.3,61.3,165.5z"/>
													<g>
														<path class="st17" d="M38.6,107.1L38.6,107.1C38.6,107.1,38.6,107.1,38.6,107.1z"/>
														<path class="st13" d="M48.1,161.2c0,0,0.1,0.3,0.1,1c0,0.6,0,1.4,0.1,2.1c0,1.6,0,3.2,0,3.2s-0.1,1.6-0.1,3.2
															c-0.1,0.8-0.2,1.6-0.2,2.1c-0.2,0.6-0.2,0.9-0.2,0.9s0.2-0.3,0.2-0.9c0.1-0.6,0.2-1.4,0.2-2.1c0-1.6,0-3.2,0-3.2
															s0.1-1.6,0.1-3.2c0-0.8,0.1-1.6,0.1-2.1C48,161.6,48,161.2,48.1,161.2z"/>
													</g>
													<g>
														<path class="st17" d="M51.7,162.2c-0.8,2.9-2.3,6-3.9,8.3c-0.2,0.2-0.2,0.3-0.3,0.3c-0.2,0-0.2-0.2-0.4-0.3
															c-0.4-0.6-0.8-1.1-1.1-1.7c-4.9-7-4.2-14.7-3.6-23.4c0.7-11.4,2-22.8,3.4-34.1c-1.6-0.9-2.9-3.9-2.9-3.9
															c-0.2-2,2.1-4.9,3.6-5.1c1.6-0.2,3.5,4.3,3.5,4.3s-0.2,3.2-2.2,4.5c0.2,1.1,3,28.9,3.6,36.4c0.2,2,0.3,4,0.6,6
															C52.2,156.6,52.5,159.3,51.7,162.2z"/>
														<g>
															<path class="st18" d="M52.2,161.9c-0.8,2.9-2.3,6-3.9,8.3c-0.2,0.2-0.2,0.3-0.3,0.3c-0.2,0-0.2-0.2-0.4-0.3
																c-0.4-0.6-0.8-1.1-1.1-1.7c-4.9-7-4.2-14.7-3.6-23.4c0.7-11.4,2-22.8,3.4-34.1c-1.6-0.9-2.9-3.9-2.9-3.9
																c-0.2-2,2.1-4.9,3.6-5.1c1.6-0.2,3.5,4.3,3.5,4.3s-0.2,3.2-2.2,4.5c0.2,1.1,3,28.9,3.6,36.4c0.2,2,0.3,4,0.6,6
																C52.9,156.2,53.1,158.9,52.2,161.9z"/>
															<path class="st19" d="M52.6,153.2c-0.1-0.3-0.1-0.6-0.1-0.8c-0.7,7.5-3.5,13.1-6.6,5c-3.2-8.3,0.3-44,1.1-44.7
																c0.6-0.4,1.6,4.7,2.2,7.9c-0.6-5.4-1-9.4-1.1-9.8c0.8-0.5,1.4-1.4,1.6-2.1c-0.5,0.5-2.3,2-3.6,0.6
																c-1.6-1.6-0.2-6.5-0.2-6.9c0,0-0.5,0.2-1.1,0.6c-1.1,1.1-2,2.8-1.9,4c0,0,1.2,2.9,2.9,3.9
																c-1.5,11.3-2.7,22.7-3.4,34.1c-0.6,8.7-1.3,16.4,3.6,23.4c0.4,0.6,0.8,1.1,1.1,1.7c0.2,0.2,0.2,0.3,0.4,0.3
																s0.2-0.2,0.3-0.3c1.6-2.3,3-5.4,3.9-8.3C53.1,158.9,52.9,156.2,52.6,153.2z"/>
															<path class="st18" d="M50.4,146.3c-0.2,0-1.6-14.7-1.6-14.7s-1.1-14.8-0.9-14.8c0.2,0,1.6,14.7,1.6,14.7
																S50.5,146.2,50.4,146.3z M51.1,153.9c0.1-1,0.1-2,0.1-2s-0.2-1-0.2-2c-0.2-1-0.3-2-0.4-2c-0.2,0-0.2,1-0.1,2
																c0,1,0,2,0,2s0.2,1,0.2,2c0.2,1,0.2,2,0.2,2C51,156,51.1,154.9,51.1,153.9z M48.7,108.4c0.2-0.7,0.2-1.4,0.2-1.4
																s-0.2-0.7-0.5-1.2c-0.3-0.6-0.8-0.8-0.9-0.7c-0.1,0.2,0.2,0.5,0.5,1s0.2,1,0.2,1s0.2,0.5,0.1,1.1
																c-0.1,0.6-0.2,1-0.2,1.1C48,109.4,48.4,109,48.7,108.4z"/>
														</g>
													</g>
													<g class="st12">
														<path class="st13" d="M55.7,101.3c0.6,1.6,2.3,2.8,3.2,4.2c1.1,1.5,2,3.3,2.9,5c0.2,0.3,0.5,0.2,0.6-0.1
															c0.8-2.7,0.2-5.1-1.2-7.3c-1.1-1.6-3.4-3.8-5.2-2.7C55.5,100.4,55.5,100.9,55.7,101.3L55.7,101.3z"/>
													</g>
													<g class="st12">
														<path class="st13" d="M32.1,162.5c-0.5,3.1,1.3,8.9,4.4,8.5c0.4-0.1,0.7-0.7,0.4-1.1c-0.8-0.9-1.9-1.6-2.5-2.9
															c-0.7-1.5-0.9-3.1-1.5-4.7C32.6,161.9,32.2,162.1,32.1,162.5L32.1,162.5z"/>
													</g>
													<g class="st12">
														<path class="st13" d="M60.1,164.4c-0.7,1.5-1.3,3-2.5,4.2c-1.1,1.1-2.3,1.9-3.5,2.7c-0.3,0.3-0.2,0.9,0.2,0.9
															c3,0.2,6.1-4.1,6-7.8C60.4,164.3,60.2,164.2,60.1,164.4L60.1,164.4z"/>
													</g>
													<g>
														<path class="st20" d="M64.3,138.9c0,0,0-0.3,0.1-0.7c0.1-0.4,0.2-1.1,0.2-1.8c0.2-1.5,0.2-3.4,0.5-5.5
															c0.2-3.9,0.4-7.9,0.4-7.9s0.2-3.9,0.1-7.9c-0.1-2-0.2-3.9-0.2-5.5c-0.1-0.7-0.2-1.4-0.2-1.8c-0.1-0.4-0.1-0.7-0.1-0.7
															s0.1,0.2,0.2,0.7c0.1,0.4,0.2,1.1,0.2,1.8c0.2,1.5,0.2,3.4,0.3,5.5c0.2,4,0.1,7.9,0.1,7.9s-0.2,4-0.5,7.9
															c-0.2,2-0.4,3.9-0.6,5.5c-0.1,0.7-0.2,1.4-0.2,1.8C64.3,138.8,64.3,138.9,64.3,138.9z"/>
													</g>
													<g>
														<g>
															<path class="st21" d="M62.3,174.3L62.3,174.3c-4.6-5.6-9.1-7.8-13.1-8.4c-8.8-1-15,7.4-15,7.4s-1.6,1.6-3.5,4.7
																c3.7,1.4,9.5,3.5,13.1,3.2c3.8-0.3,7.5-1.9,10.3-5.1c1.1,2,3.1,3.3,5.1,3.7c2,0.4,4,0.2,6-0.1
																C63.6,178,62.8,176.2,62.3,174.3z"/>
															<path class="st11" d="M70.1,132.3c-0.4-6.5-3-12.5-4.9-18.4c-1.5-4.5-3.1-12.7-6.4-15.9c-3-2.9-20.1-0.5-20.1-0.5
																s-13.1,6-13.5,8.6s6.7,26.7,8.1,35.9c0.7,4.3,1.4,8.6,2,12.9c0.9,7.8,1.4,15.4-2.7,22c3.6,1.4,7.4,2.4,11.1,2
																c3.8-0.3,7.5-1.9,10.3-5.1c1.1,2,3.1,3.3,5.1,3.7c2,0.4,4,0.2,6-0.1c-4.7-5.1-3.3-11.8-2.5-18.5
																c0.6-4.7,1.1-9.6,3.3-13.5C68.7,141.2,70.5,137.6,70.1,132.3z"/>
															<g>
																<path class="st22" d="M49.3,169.8L49.3,169.8c0.2,0,0.2,0,0.2-0.1C49.5,169.8,49.4,169.8,49.3,169.8z"/>
															</g>
															<g class="st23">
																<path class="st24" d="M59,141.2"/>
															</g>
															<g class="st12">
																<g>
																	<path class="st25" d="M63,121.2c-0.1,0-0.2-0.7-0.3-1.7c-0.2-1.1-0.5-2.4-0.8-3.7c-0.4-1.3-0.8-2.6-1.1-3.6
																		c-0.3-1-0.6-1.6-0.6-1.6s-3-10.8-2.8-10.9c0.2-0.1,3.7,10.5,3.7,10.5s0.2,0.7,0.5,1.7c0.2,1,0.7,2.4,1,3.8
																		c0.3,1.4,0.5,2.9,0.6,3.9C63.2,120.5,63.1,121.2,63,121.2z"/>
																</g>
																<g>
																	<path class="st26" d="M58.7,169.3c-0.1-0.1,0.7-1.5,1.2-2.9c0.6-1.5,0.9-3,0.9-3s0.5-1.5,0.7-3.1
																		c0.2-1.6,0.3-3.3,0.4-3.3c0.2,0,0.3,1.6,0.2,3.3c-0.1,1.7-0.5,3.3-0.5,3.3s-0.5,1.6-1.2,3
																		C59.8,168.2,58.8,169.4,58.7,169.3z"/>
																</g>
															</g>
															<g class="st27">
																<path class="st20" d="M38,166.3c0,0-0.3-0.7-0.6-1.3c-0.2-0.7-0.4-1.5-0.5-1.5c-0.1,0-0.1,0.8,0.2,1.6
																	c0.2,0.7,0.5,1.5,0.5,1.5s0.3,0.7,0.8,1.2c0.5,0.6,1.1,1,1.1,0.9c0-0.1-0.4-0.6-0.8-1.1
																	C38.3,166.9,38,166.3,38,166.3z"/>
																<path class="st20" d="M49,139.8c-0.7,0.2-1.7,0.2-2.7,0.2c-1,0-2-0.2-2.7-0.3c-0.3-0.1-0.7-0.2-0.9-0.2
																	c-0.2-0.1-0.3-0.1-0.3-0.1s-0.1,0-0.3-0.1c-0.2-0.1-0.5-0.2-0.8-0.3c-0.7-0.2-1.6-0.7-2.5-1.3
																	c-0.9-0.6-1.7-1.3-2.3-1.9c-0.6-0.6-1-1-1-1s0.3,0.5,0.8,1.1c0.6,0.7,1.4,1.4,2.2,2c0.9,0.7,1.8,1.1,2.5,1.5
																	c0.3,0.2,0.7,0.2,0.9,0.3c0.2,0.1,0.3,0.2,0.3,0.2s0.2,0,0.3,0.1c0.2,0.1,0.5,0.2,0.9,0.2c0.7,0.2,1.8,0.2,2.8,0.2
																	c1-0.1,2-0.2,2.8-0.5c0.7-0.2,1.2-0.5,1.2-0.5C50.2,139.5,49.7,139.6,49,139.8z"/>
																<path class="st20" d="M61.6,163.6c-0.1,0,0,0.9-0.2,1.7c-0.1,0.8-0.3,1.6-0.3,1.6s-0.2,0.8-0.6,1.6
																	c-0.3,0.7-0.8,1.4-0.7,1.5c0,0.1,0.7-0.5,1.1-1.2c0.4-0.7,0.7-1.6,0.7-1.6s0.2-0.9,0.2-1.8
																	C61.9,164.4,61.7,163.6,61.6,163.6z"/>
																<path class="st20" d="M64.3,137.1c-0.6,0.4-1.1,0.8-1.1,0.8s-0.6,0.4-1.1,0.8c-0.6,0.4-1.2,0.7-1.2,0.7
																	c0,0.1,0.7-0.1,1.4-0.4c0.7-0.2,1.3-0.7,1.3-0.7s0.6-0.5,1.1-1c0.6-0.6,1-1.1,1-1.2
																	C65.5,136.1,64.9,136.6,64.3,137.1z"/>
																<path class="st20" d="M55.6,126.1c-0.8-1.7-1.3-2.9-1.3-2.9s-0.6-1.1-1.3-2.9c-0.7-1.7-1.6-4.1-2.4-6.5
																	c-0.7-2.5-1.4-5-1.7-6.9c-0.2-1-0.3-1.8-0.4-2.3c-0.1-0.6-0.2-0.9-0.2-0.9s0,0.3,0.1,0.9c0.1,0.6,0.2,1.4,0.3,2.4
																	c0.3,2,0.9,4.5,1.6,6.9c0.7,2.5,1.6,4.9,2.3,6.7c0.7,1.8,1.3,2.9,1.3,2.9s0.6,1.1,1.3,2.9c0.8,1.7,1.8,4,2.5,6.5
																	s1.1,5.1,1.1,7c0,1-0.1,1.8-0.2,2.4s-0.2,0.9-0.2,0.9s0-0.1,0.1-0.2c0-0.2,0.1-0.3,0.2-0.7v-0.1
																	c0,0.2-0.1,0.6-0.1,0.8c-0.2,1.8-0.4,4.2-0.7,6.6c-0.3,2.4-0.7,4.7-1.1,6.5c-0.3,1.7-0.7,2.9-0.7,2.9
																	s-0.2,1.1-0.7,2.9c-0.4,1.7-1.1,4-1.6,6.4c-0.6,2.4-0.9,4.7-1,6.5c0,0.2,0,0.2,0,0.3c0.1-0.1,0.2-0.1,0.2-0.2
																	c0-0.1,0-0.1,0-0.2c0.1-1.8,0.5-4.2,1.1-6.5c0.6-2.3,1.3-4.6,1.7-6.3c0.5-1.7,0.7-2.9,0.7-2.9s0.2-1.1,0.6-2.9
																	c0.3-1.8,0.7-4.2,1.1-6.5s0.5-4.8,0.6-6.6c0.1-0.9,0.1-1.6,0.1-2.2c0-0.1,0-0.2,0-0.2c0-0.2,0-0.5,0.1-0.7
																	c0.1-2-0.2-4.7-0.9-7.2C57.4,130.2,56.4,127.8,55.6,126.1z"/>
															</g>
														</g>
													</g>
												</g>
												<g>
													<g>
														<path class="st28" d="M40.2,173.6c-0.7-1-1.8-1.4-3-1.4c0.2-0.3,0.2-0.6,0.2-0.9c-0.2-1.9-2.9-3.3-2.9-1.5
															c0,1-0.3,2.1-0.7,3.1c-1.6,0.6-2.6,1.2-2.6,1.2s-4.8,3-2.6,7.2c2.1,4.2,6.5,1,7,1.2c0.6,0.2-0.2,2.4-0.2,3.3
															s2.6,1.6,4.4-1.6c1.8-3.2,1.1-5.1,1.1-5.1s1.1,2,1.9,1.2C43.4,179.6,42.7,177,40.2,173.6z"/>
														<path class="st29" d="M38.4,180.7c0.1,0,0.2,0.9,0.2,1.7c0,0.9-0.2,1.7-0.2,1.7s-0.2,0.9-0.7,1.6
															c-0.2,0.3-0.5,0.7-0.8,0.8c-0.2,0.2-0.5,0.1-0.5,0.1s0.2-0.1,0.4-0.2c0.2-0.2,0.5-0.4,0.7-0.8
															c0.3-0.7,0.5-1.6,0.5-1.6s0.2-0.8,0.2-1.6C38.4,181.5,38.4,180.7,38.4,180.7z M40.6,178.4c-0.2-0.8-0.5-1.5-0.5-1.5
															s-0.3-0.7-0.7-1.4c-0.2-0.3-0.5-0.6-0.7-0.7c-0.2-0.2-0.4-0.2-0.4-0.2s0.2,0.2,0.3,0.3c0.2,0.2,0.4,0.4,0.7,0.8
															c0.3,0.7,0.7,1.4,0.7,1.4s0.3,0.7,0.6,1.5c0.2,0.7,0.4,1.5,0.5,1.5C40.8,180.1,40.8,179.2,40.6,178.4z M39.4,179.2
															c0.2,0.8,0.2,1.6,0.2,1.6s0.2,0.8,0.2,1.6c0,0.9-0.2,1.6-0.2,1.6c0.1,0,0.4-0.8,0.5-1.6c0.2-0.9,0-1.7,0-1.7
															s-0.2-0.9-0.4-1.6c-0.2-0.8-0.6-1.6-0.7-1.6C39,177.5,39.3,178.4,39.4,179.2z M37.8,172.2c-0.2-0.1-0.5-0.2-0.7-0.2
															c-0.2,0-0.5,0.1-0.7,0.1c-0.2,0.1-0.2,0.1-0.2,0.1s-1.9,0.6-1.9,0.7s2-0.3,2-0.3s0.2-0.1,0.2-0.1
															c0.2-0.1,0.4-0.2,0.7-0.2C37.3,172.2,37.5,172.2,37.8,172.2c0.1,0.1,0.2,0.2,0.2,0.2C38,172.4,38,172.3,37.8,172.2z"
															/>
														<g>
															<path class="st30" d="M42.4,178.4c-0.3,0.9-3.2-2.7-3.3-2.9c-0.1-0.2,2,3.8,1.6,4.3c-0.4,0.6-1.6-2.2-1.6-2.2
																s0.8,4.6,0.2,4.7c-0.7,0.2-1.1-4.2-1.1-4.2c0.1,0.9,0.2,6.5-1,6.4c-1.1-0.2-0.6-3.9-0.6-3.9s-1.1,1.1-4.2-0.3
																c-2.3-1.1-1.1-4.8-0.6-6.4c-0.5,0.2-0.7,0.3-0.7,0.3s-1.1,0.7-2,1.8c-0.5,1.1-0.9,2.3-1.2,3.6
																c0.1,0.6,0.2,1.2,0.5,1.9c2.1,4.2,6.5,1,7,1.2s-0.2,2.4-0.2,3.3c0,1,2.6,1.6,4.4-1.6c1.8-3.2,1.1-5.1,1.1-5.1
																s1.1,2,1.9,1.2c0.5-0.5,0.3-1.7-0.5-3.3C42.4,177.5,42.4,178.1,42.4,178.4z"/>
															<path class="st30" d="M35.6,169.1c0.1,0.2,0.2,0.3,0.2,0.4c0.8,2.5-1.1,3.2-1.6,3.3c0.4-0.1,1.5-0.3,2.3-0.3
																c0.5,0,1.6,0,2.5,0.1c-0.5-0.2-1.1-0.3-1.6-0.3c0.2-0.3,0.2-0.6,0.2-0.9C37.2,170.4,36.4,169.5,35.6,169.1z"/>
															<path class="st31" d="M34,173c-0.2,0-0.2,0.1-0.2,0.1L34,173z"/>
														</g>
													</g>
													<g>
														<path class="st11" d="M23.8,101.9c0,0-12.7,34.1-12.9,45.8c-0.2,11.6,8.4,29.9,16.3,34.1c0,0,4.6-5.6,5.6-9.6
															c0,0-11.4-20.7-10.3-26.5c1.1-5.8,5.1-18.6,5.1-18.6S31.7,112,23.8,101.9z"/>
													</g>
													<path class="st16" d="M26.4,170.1c0,2.8-0.4,6.4-3.2,4.2c-4.2-3.2-3.4-25.2-2-26.1c0.7-0.3,1.4,0.8,2,2.1l0,0
														c0-0.2-0.1-0.3-0.1-0.3c0-0.2-0.1-0.3-0.1-0.4c0-0.2-0.1-0.3-0.1-0.3c0-0.2-0.1-0.3-0.1-0.4c0-0.2-0.1-0.2-0.1-0.3
														c-0.1-0.2-0.1-0.5-0.1-0.7c0-0.1,0-0.2,0-0.2c0-0.2-0.1-0.3-0.1-0.5c0-0.1,0-0.2,0-0.2c0-0.2,0-0.3,0-0.4s0-0.2,0-0.2
														c0-0.2,0-0.3,0-0.5c0.5-5.8,2.3-18.6,2.3-18.6s0.2-1.5,0.3-3.8c-0.1-0.9-0.1-1.8-0.1-2c0.1-0.8,0.2-1.9,0.2-3.2
														c0-2.4-0.1-5-0.4-7.7c0,1.6,0.1,5.3-0.4,9.1c-0.7,5.1-6.4,23.3-7.5,19.5c-1.1-3.7,3.2-25.5,3.3-25.8c0,0,0,0-0.1,0.1
														c-0.1,0.3-0.2,0.7-0.2,1v0.1c-0.1,0.3-0.2,0.7-0.2,0.9c0,0.1,0,0.2-0.1,0.2c-0.1,0.3-0.1,0.6-0.2,0.9
														c0,0.1,0,0.2-0.1,0.2c-0.1,0.3-0.2,0.7-0.2,1v0.1c-0.1,0.3-0.2,0.7-0.2,1.1c0,0.1,0,0.2,0,0.2
														c-0.1,0.3-0.2,0.6-0.2,0.9c0,0.1-0.1,0.2-0.1,0.3c-0.1,0.3-0.1,0.6-0.2,0.8c0,0.1-0.1,0.2-0.1,0.3
														c-0.1,0.3-0.2,0.7-0.2,1v0.1c-0.1,0.3-0.2,0.7-0.2,1.1c0,0.1,0,0.2-0.1,0.2c-0.1,0.3-0.1,0.6-0.2,0.9
														c0,0.2-0.1,0.2-0.1,0.3c-0.1,0.3-0.1,0.5-0.2,0.8c0,0.2-0.1,0.2-0.1,0.3c-0.1,0.3-0.2,0.7-0.2,1v0.1
														c-0.1,0.3-0.2,0.7-0.2,1.1c0,0.1-0.1,0.2-0.1,0.3c-0.1,0.3-0.1,0.6-0.2,0.8c0,0.2-0.1,0.2-0.1,0.3
														c-0.1,0.3-0.1,0.5-0.2,0.8c0,0.2-0.1,0.2-0.1,0.3c-0.1,0.3-0.1,0.7-0.2,1c0,0.1,0,0.1,0,0.2c-0.1,0.3-0.2,0.7-0.2,1.1
														c0,0.1,0,0.2-0.1,0.3c-0.1,0.3-0.1,0.5-0.2,0.8c0,0.2-0.1,0.2-0.1,0.3c-0.1,0.2-0.1,0.5-0.1,0.7c0,0.2-0.1,0.2-0.1,0.3
														c-0.1,0.3-0.1,0.7-0.2,0.9v0.1c-0.1,0.3-0.1,0.7-0.2,1c0,0.1,0,0.2-0.1,0.3c-0.1,0.2-0.1,0.5-0.1,0.7
														c0,0.2,0,0.2-0.1,0.3c0,0.2-0.1,0.4-0.1,0.7c0,0.1,0,0.2-0.1,0.3c-0.1,0.3-0.1,0.6-0.1,0.9v0.1
														c-0.1,0.3-0.1,0.7-0.1,0.9c0,0.1,0,0.2,0,0.3c0,0.2,3.6,0.4,3.5,0.7c0,0.1,0,0.2,0,0.3c0,0.2-0.1,0.4-0.1,0.6
														c0,0.1,0,0.2,0,0.3c0,0.3-0.1,0.5-0.1,0.8l0,0c0,0.3-0.1,0.5-0.1,0.8c0,0.1,0,0.2,0,0.2c0,0.2,0,0.3,0,0.5
														c0,0.1,0,0.2,0,0.2c0,0.2,0,0.3,0,0.5c0,0.1,0,0.2,0,0.2c0,0.2,0,0.4,0,0.7c0,0.7,0,1.5,0.1,2.2
														c0.2,3.5-2.6,7.4-1.6,11.3c0.2,0.9,0.5,1.7,0.7,2.6c0.4,1.3,0.8,2.5,1.2,3.8c0.3,0.8,0.6,1.6,0.9,2.5
														c0.6,1.6,1.2,3.1,1.8,4.4c1.6,3.4,3,6.1,4.1,7.4c0,0,0.4-1.1,0.9-2.7c0.1-0.3,0.2-0.6,0.3-0.9c0.1-0.3,0.2-0.6,0.2-0.9
														c0.1-0.3,0.2-0.7,0.2-0.9c0.1-0.3,0.2-0.7,0.2-1c0.2-1.1,0.5-2.1,0.6-3.2C27.2,172.2,26.8,171.4,26.4,170.1z"/>
													<path class="st15" d="M26.7,167.9c-0.6-0.6-1.1-1.2-1.6-1.8c-2.2-2.6-4.2-5.5-4.2-5.5s7.7-0.7,7-1.8
														c-0.7-1.1-1.6-2.6-2.5-4.1c-0.5-0.8-0.8-1.5-1.2-2.2c-0.4-0.7-0.8-1.4-1.3-1.9c-0.5-0.5-0.9-0.7-1.2-0.9
														c-0.3-0.1-0.6-0.1-0.6,0s0.2,0.1,0.5,0.2c0.2,0.2,0.7,0.4,1.1,0.9c0.8,0.9,1.6,2.6,2.4,4.2c0.8,1.6,1.7,3.1,2.5,4.2
														s1.1,1.9,1.1,1.9s-6.1,2.9-3.8,5.4c0.6,0.7,1.1,1.2,1.8,1.7c0.6,0.6,1.1,1,1.6,1.5c0.4,0.5,0.7,1,0.7,1.4
														c0.1,0.3-0.1,0.6,0,0.7c0,0,0.2-0.2,0.2-0.7s-0.2-1-0.6-1.6C27.8,169,27.3,168.5,26.7,167.9z"/>
													<path class="st16" d="M26.4,111.6c0,0,0.2,1.6,0.4,3.2c0.2,1.6,0.1,3.3,0.2,3.3c0.2,0,0.3-1.6,0.3-3.3
														s-0.2-3.3-0.2-3.3s-0.2-1.6-0.8-3.2c-0.5-1.6-1.1-3.1-1.2-3c-0.2,0.1,0.5,1.6,0.8,3.2
														C26.3,109.9,26.4,111.6,26.4,111.6z"/>
												</g>
												<path class="st32" d="M37.3,93.5l14-0.2c0,0-0.6,3.8-0.5,7.4c0,1.5-14.1,1.2-14.1-0.2C36.6,97.5,37.3,94.3,37.3,93.5z"
													/>
												<g>
													<path class="st17" d="M37.9,95.8c0.1,0,0.2-0.1,0.2-0.1c-0.3,0.1,0.7,2.7,0.9,3.1c0.5,0.9,1.3,1.6,2.1,2.2
														c1.6,1.1,3.8,1.9,5.9,1.3c1.3-0.3,2.6-0.9,3.3-2c1-1.5,1.1-2.9,0.9-4.5c1.6,2,3.2,4.2,4,6.6c0.7,2.1-0.3,8.7-3.6,7
														c-1.6-0.9-3.3-4-4.5-5.7c0,0-3.9,7-5.3,7.2c-2.5,0.3-4.7-3.2-5.5-5.1c-1.5-3-1.7-6.8,0.8-9.3
														C37.4,96.2,37.7,96,37.9,95.8z"/>
													<path class="st0" d="M37.7,94.5c0.1,0,0.2-0.1,0.2-0.1c-0.3,0.1,0.7,2.7,0.9,3.1c0.5,0.9,1.3,1.6,2.1,2.2
														c1.6,1.1,3.8,1.9,5.9,1.3c1.3-0.3,2.6-0.9,3.3-2c1-1.5,1.1-2.9,0.9-4.5c1.6,2,3.2,4.2,4,6.6c0.7,2.1-0.3,8.7-3.6,7
														c-1.6-0.9-3.3-4-4.5-5.7c0,0-3.9,7-5.3,7.2c-2.5,0.3-4.7-3.2-5.5-5.1c-1.5-3-1.7-6.8,0.8-9.3
														C37.1,94.9,37.4,94.6,37.7,94.5z"/>
													<g>
														<path class="st17" d="M41.7,107.5c-4.2-0.9-2.8-7.8-2.8-7.8s2.1,3.9,8.2,2c6-1.9,4.2-6.4,4.1-7.4
															c0.2,1.6,0,3.1-0.9,4.5c-0.8,1.1-2,1.7-3.3,2c-2,0.6-4.2-0.2-5.9-1.3c-0.9-0.6-1.6-1.4-2.1-2.2
															c-0.2-0.3-1.2-2.9-0.9-3.1c-0.1,0-0.2,0.1-0.2,0.1c-0.3,0.2-0.5,0.4-0.7,0.6c-2.5,2.5-2.2,6.3-0.8,9.3
															c0.9,1.9,3.1,5.4,5.5,5.1c0.5-0.1,1.3-1,2.1-2.1C43.3,107.6,42.5,107.6,41.7,107.5z"/>
														<path class="st17" d="M46.9,102.3c1.2,1.6,2.8,4.9,4.5,5.7c2.8,1.4,3.9-3.1,3.8-5.8c-0.4,1.9-1.1,3.8-1.9,4.5
															C51.7,108.5,46.9,102.3,46.9,102.3z"/>
													</g>
												</g>
											</g>
											<g>
												<g>
													<g>
														<g>
															<g>
																<path class="st33" d="M28,40.1c-0.5-0.9-1.1-2.4,0.6-5.3c3.3-5.5,18.2-10.7,28.8-6.3c5.2,2.2,14.3,7.4,19,16.5
																	c16,25.7,3,30.4,3,30.4s1.2,8.2,0.3,11.8c-4.2,15.7-22.1,5.6-36.5,4.5c-8.4-0.7-12.9,1.5-19.9,0.1
																	C7,88.5,18,65.5,18,65.1c0-0.1,0.4-11.5,2.9-19.3C22.5,41.1,28,40.2,28,40.1z"/>
															</g>
															<g>
																<path class="st34" d="M68.1,47.7c-1-0.9-1.7-1.8-2.3-2.6c-1-1.5-1.1-2.2,0.2-0.8c1,1.2,2.5,2.6,4.4,3.7
																	c0.5,0.3-1-1.4-2.2-3.2c-1.4-2.2-2.5-4.7-1.6-4.2c0.1,0.1,1.7,3.2,4,5.8c0.9,1.1,2.9,2.3,4.3,3.8
																	c3.5,3.7,3.2-2.5,3.9-1.2c2.9,5.3,4.5,9.5,5.2,12.9c0.3,1.4,0.1,1.8-0.2,0.8c-0.3-1-0.7-2-1.2-3
																	C79.8,54.1,71.8,50.9,68.1,47.7z"/>
																<g>
																	<path class="st34" d="M18,78.6c0.1-0.8,0.2-0.9,0.5-0.1c0.1,0.4,0.3,3,1.1,4.7c1.4,3.1,3.2,4.2,4.4,4.5
																		c2.8,0.7,2.5-2,1-2.9c-4.1-2.6-3-14.4-2.8-20.6c0-0.1,0.9-9.4,1.3-10.3c0.2-0.4-0.2,7.7,0,7.3c0.7-1.4,1.4-3,1.7-4
																		c0.8-2.7,1.8-6.5,3.7-9.4c2.1-3.2,3.6-5.5,3.3-5.7c-0.1-0.1-2.2-0.1-3.7,0.8c-1.7,1-2.9,3-3.2,2.9
																		c-0.3-0.1,0.4-2,1.4-3.1c1.2-1.3,2.8-2,2.5-2.1c-0.5-0.3-0.9-0.5-0.7-0.5c0.1,0,1.7,0.4,2.3,0.5
																		c0.5,0.1-1.9-3.2-1.3-3.1c0.2,0,3.3,3.3,3.5,3.3c1.4,0.2,1.7,0.2,1.6,0.1c-0.2-0.3-0.5-0.7-0.9-1
																		c-0.8-0.7-2.8-4.4-2.7-4.6c0.7-1.4,1.1,1.2,3.1,3.1c0.1,0.1-0.7-1.5-0.2-3.3c0.5-1.8,2.4-3.9,6.1-5.1
																		c1.3,0-0.9,1-2.6,2.3c-1,0.8-1.6,2-1.8,2.5c-1.1,2.6,2.1,5.6,2.2,5.5c0.5-3.2,1.4-3.5,3-3.1c3.1,0.8,1,7,15,14.9
																		c4.7,2.6,16.2,4.2,19.9,4.8c1.1,0.2,2,0.2,2.8,0.2c0.1,0-2.5-0.7-4.6-2.4c-1.6-1.2-0.7-1.5,1.5-0.2
																		c2.4,1.4,5.5,2.3,5.5,2.4c-0.2,0.1-0.5,0.3-0.9,0.5c-0.2,0.1,0.7,1,1.3,2.1c0.8,1.7,1.4,3.8,1.1,3.9
																		c-0.1,0-1.2-2.4-2.4-4c-0.7-0.9-1.8-1.3-1.9-1.3c-0.5,0.2-0.9,0.3-1.1,0.2c-0.3,0,6.2,5.2,2.8,10.3
																		c0.8-5.5-4.5-10.5-4.8-10.6c-2.5-0.5-14.7-3.1-15.1-3.3c-0.5-0.3-0.5,0.1,2,1.8c2.9,1.9,8.4,5.5,9.2,10.4
																		c0.5,2.7,0.1,6-1,7.3c-0.5,0.6,2.4-0.6,2.5-0.7c8.2-5.1-0.8-12.3-2.4-15.1c-1-1.8,0.3-0.7,0.3-0.6
																		c0.3,0.9,8.8,6,7,11.9c-0.6,2.1-2.8,3.4-4.4,4.1c-1,0.5-0.9,1,0,1c0.8,0,1.7,0,2.6-0.2c1.6-0.4,2.9-1.7,3.2-1.6
																		c0.2,0-0.4,1-1.7,1.6c-1.1,0.5-2.9,0.8-2.7,0.8c1.7,0.2,3.5,0.1,5.2-0.4c-0.1,0-0.1,0.1-0.1,0.1s3.3,12.7-3.4,18
																		c2.2-3.4,2.8-7.2,2.8-10.4c0-3.7-0.7-3.5-0.9-1.1c-0.2,2.6-1.2,4.9-1.4,4.9c-0.2,0,0.4-2.8,0.4-5.5
																		c-0.1-2.1-1.1-4.1-1.2-4.1c-0.1,0-0.3,0-0.3,0.1c0.6,4.9-1,11-3.5,14.3c-0.4,0.5-1.2-0.1-0.8-0.6
																		c3.8-5.5,3.1-13.8,3-13.9c-0.8-0.5-2.8-0.5-3-0.5c-0.3,0-0.5,11.1-6.6,14.3c-0.9,0.4-1.9,0.7-2.9,0.8
																		c-1.2,0.2-1.9,0.8-0.7,1.2c0.5,0.1,1.1,0.2,1.7,0.3c1,0,2.6-0.3,4.1-0.9c0.9-0.3,1.1,0.3,0.4,0.8
																		c-1.3,0.9-2.7,1.2-2.8,1.3c-0.2,0.1,4.3,1.2,4,1.3c-1.5,0.5-6.6-0.6-6.6-0.6c-5.6-1-12.7-3-18.4-3.4
																		c-5.7-0.4-13.6,1.9-20.7-3.4C17.3,84.4,17.8,79.6,18,78.6z"/>
																</g>
															</g>
														</g>
														<path class="st35" d="M41,34.2c0,0,3.5-1.8,8.4,3.7c0.9,1,4.6,4.8,8.1,7.5c3.8,2.9,7.7,5,7.7,5.7
															c0,0.5-10.2-2.3-16.6-8c-0.8-0.7-1.3-1.6,0-0.8c2.7,1.8,7.3,4.6,8.1,4.2C53.9,44,49,38.6,46,36.5
															c-2.2-1.5-4-1.7-5-1.6C40.2,34.9,41,34.2,41,34.2z"/>
														<path class="st35" d="M48.5,28.8c-0.3,0.7,6.9,2.6,6.2,4.3c-0.7,1.7-6.2-1-6.5-0.3c-0.3,0.6,4.6,4.9,6.4,5.5
															c1.3,0.4,1.2,1.7-0.1,1.2c-1.3-0.5-7.6-5.6-7.9-6.5c-0.3-0.9,1.3-1.2,2.7-1.1c1.4,0.2,3.6,0.9,3.4,0.4
															c-0.2-0.4-5.4-2.4-5.6-3.3c-0.2-0.9,1.1-1,2.7-1.3c1.2-0.2,1.3,0.2,0.5,0.6C50,28.5,48.6,28.6,48.5,28.8z"/>
														<path class="st35" d="M82,68.9c-0.2,0.6-0.5,1.1-1,1.4c-1.3,0.7-2.3-0.8-2.8-0.3c-0.2,0.2-0.3,1.2-1.1,2.1
															c-0.3,0.3-0.6,0.6-0.9,0.9c-0.7,0.7-0.1,0.8,0.3,0.5c1.2-0.7,1.9-1.7,1.9-1.7s1.4,0.7,2.5,0.2
															c0.9-0.4,1.4-1.3,1.6-2.4C82.7,68.7,82.3,68,82,68.9z"/>
														<path class="st35" d="M73.1,68.3c0.1,1.1-0.3,2.9-0.5,3.4c-0.4,1,1.3,0.7,2.2-1c0.9-1.7-0.2-0.8-0.5-0.5
															c-0.3,0.3-0.7,0.8-0.7,0.4c0-0.2,0.3-2,0.1-3C73.4,66.2,72.9,66.8,73.1,68.3z"/>
													</g>
												</g>
												<path class="st35" d="M27.2,47.3c0,0-2,1.5-2.8,0.8c-0.9-0.7-0.7-3.7-1.4-3.3c-0.8,0.5-3.3,5.9-2.2,6.3
													c0.5,0.2,1.5-3.9,2-3.7c0.4,0.2-0.2,2,1.2,2.4C25.3,50.1,27.6,47.8,27.2,47.3z"/>
												<g>
													<g>
														<g>
															<path class="st36" d="M26.3,60.1c0.2-2.6,5.2-12.6,11.4-16.9c2.3-1.6,6.4,3.7,18.5,12.5c5.5,4,11.1,4.7,13.1,10.6
																c0.5,1.6-1.7,16.6-2.6,18.7c-1.8,4.1-5.7,8.3-13,9.7c-1.9,1.4-3.2,2.4-5.7,2.6c-3.1,0.3-7.4-0.7-9.4-3.3
																c-11.8-4.3-13.4-11.3-13.7-17.3c-2.4-0.2-5.3-2.7-3.4-8.7c0.9-2.9,4-0.2,4.1-0.7C25.8,64.1,26.2,60,26.3,60.1z"/>
														</g>
														<g class="st37">
															<path class="st38" d="M26.3,60c0.2-2.6,5.2-12.6,11.4-16.9c2.3-1.6,6.4,3.7,18.5,12.5c5.5,4,11.1,4.7,13.1,10.6
																c0.5,1.6-1.7,16.6-2.6,18.7c1-7.4,4.1-19.8-2.1-22c-0.6-0.2-7.6-2.9-11.1-6c-5.9-5.2-12.3-11.4-15.8-11.2
																c-2.1,0.1-7.1,6.9-8.8,10.3c-0.9,1.8-2.1,7.6-3,12.6c-0.2-0.7-0.5-1.3-0.5-1.3C25.9,64,26.3,59.9,26.3,60z"/>
															<path class="st38" d="M25.3,70.7c-0.4,2.1-0.3,2.9-0.5,4.1C20.4,73.3,22.2,65.8,25.3,70.7z"/>
														</g>
														<g>
															<g>
																<path class="st39" d="M54.6,55.4c-3.7-0.6-7.5-0.3-11.2,0.5c-0.3,0.1-0.3,0.6,0.2,0.5c1.2-0.2,4.1-0.5,6.6-0.5
																	c1.7,0,3.4,0.1,5.2,0.2C55.9,56.1,55.3,55.5,54.6,55.4z"/>
																<path class="st39" d="M53.8,58.9C52.5,59,51.3,59,50.1,59c-1.1,0-2.2-0.1-3.3-0.1c-1.4-0.1-1.2,0.5,0,0.6
																	c1,0.1,2,0.1,3.1,0.2c1.3,0,2.6,0,3.9-0.2C54.7,59.4,54.8,58.9,53.8,58.9z"/>
																<path class="st39" d="M56.8,81.9c0,0,2,1.4,2.1,3.6c0.1,2.1-1.5,4.3-1.5,4.3s3.3-1.7,2.7-4.8
																	C59.9,83.6,56.7,80.5,56.8,81.9z"/>
																<path class="st39" d="M38.6,81.3c0,0-2,1.4-2.1,3.6c-0.1,2.1,1.5,4.3,1.5,4.3s-3.3-1.7-2.7-4.8
																	C35.5,83,38.7,79.9,38.6,81.3z"/>
																<path class="st39" d="M30.9,72.7c0.1-0.1,0.1-0.1,0.1-0.2c-0.1-0.5-3.1-0.1-1.6,0.4c0,0,0.4,0,0.8,0
																	c-0.7,0.3-1.4,0.9-0.4,0.9c0,0,1.6-0.5,1.4-1C31.1,72.7,31,72.7,30.9,72.7z"/>
																<path class="st39" d="M67.2,72.9c1.5-0.5-1.5-1-1.6-0.4c0,0.1,0,0.2,0.1,0.2c-0.1,0-0.2,0-0.2,0.1
																	c-0.2,0.5,1.3,1,1.3,1c1,0,0.3-0.6-0.4-0.9C66.8,73,67.2,72.9,67.2,72.9z"/>
																<g>
																	<path class="st40" d="M45.5,78.3c0,0,2.7,0.9,6.5-1.7c0,0,1.8,1.2-1.5,2.4C46.2,80.5,45.5,78.3,45.5,78.3z"/>
																	<g>
																		<path class="st29" d="M47.2,79.2c0-0.1,0.6,0.1,1.4,0.1c0.8,0,1.8-0.4,2.7-0.8c0.4-0.3,0.9-0.6,1-0.9
																			c0.1-0.3-0.1-0.7-0.4-0.8c-0.3-0.3-0.6-0.4-0.8-0.4c-0.2-0.1-0.3-0.1-0.3-0.1s-0.3-0.1-0.8,0
																			c-0.2,0-0.6,0-0.9,0.1c-0.2,0.1-0.3,0.1-0.6,0.2c-0.3,0.1-0.8,0.4-1.2,0.8c0-0.4,0.1-1,0-1.5c0-0.3,0-0.6,0.1-0.9
																			c0-0.7,0.1-1.2,0.1-1.8c0.1-1.1,0.2-2,0.3-2c0.1,0,0.2,0.9,0.2,2.1c0,0.6,0.1,1.2,0.1,1.9c0,0.3,0,0.7,0,0.9
																			c0,0.1,0,0.2,0.1,0.2c0.1-0.1,0.1-0.1,0.2-0.1c0.3-0.1,0.4-0.2,0.7-0.3c0.4-0.1,0.8-0.2,1.1-0.3
																			c0.6,0,0.9,0.1,0.9,0.1s0.2,0,0.4,0.1c0.3,0.1,0.6,0.3,1,0.5c0.2,0.2,0.4,0.3,0.5,0.7c0.1,0.3,0.2,0.7,0,1
																			c-0.3,0.7-0.9,1-1.4,1.3c-1.1,0.4-2.2,0.7-3.1,0.7C47.8,79.6,47.2,79.3,47.2,79.2z"/>
																	</g>
																	
																		<ellipse transform="matrix(0.9348 -0.3551 0.3551 0.9348 -24.1278 22.5889)" class="st41" cx="49.5" cy="77" rx="0.9" ry="0.4"/>
																</g>
																<g>
																	<path class="st0" d="M40.4,71.5c0.2,2.6-1.7,4.8-4.1,4.9c-2.5,0.2-4.6-1.8-4.7-4.4c-0.2-2.6,1.7-4.8,4.1-5
																		C38.2,66.9,40.3,68.9,40.4,71.5z"/>
																	<path class="st42" d="M40.3,71.4c0-0.7-0.2-1.2-0.5-1.7c0,0,0,0,0,0.1c0.1,0.3,0.3,0.8,0.3,1.3
																		c0.1,2.2-1.5,4.1-3.5,4.2c-2.1,0.1-3.9-1.6-4-3.8c-0.1-2.2,1.8-3.2,3.9-3.3c1.6-0.1,2.7,0.3,3.3,1.3
																		c-0.7-1.4-2.2-2.4-3.9-2.3c-2.3,0.1-4.1,2.2-3.9,4.6c0.1,2.4,2.1,4.3,4.4,4.2S40.4,73.8,40.3,71.4z"/>
																	<path class="st43" d="M40.2,72.3c0.1,1.4-1,2.6-2.3,2.7c-1.3,0.1-2.5-1-2.6-2.4c-0.1-1.4,1-2.6,2.3-2.7
																		C38.9,69.8,40.1,70.9,40.2,72.3z"/>
																	<path class="st44" d="M39.9,72.6c0,0.8-0.5,1.5-1.3,1.6c-0.7,0-1.4-0.6-1.5-1.4c0-0.8,0.5-1.5,1.3-1.6
																		C39.2,71.2,39.9,71.8,39.9,72.6z"/>
																	<path class="st0" d="M40.2,71.4c0.1,0.4-0.3,0.8-0.7,0.8c-0.4,0.1-0.7-0.3-0.8-0.7c-0.1-0.4,0.3-0.8,0.7-0.8
																		C39.8,70.7,40.1,71,40.2,71.4z"/>
																	<path class="st0" d="M37.7,74.1c0,0.2-0.1,0.4-0.3,0.4c-0.2,0-0.4-0.2-0.4-0.3c0-0.2,0.2-0.4,0.3-0.4
																		C37.5,73.7,37.7,73.9,37.7,74.1z"/>
																	<path class="st45" d="M31.5,69.9c0,0,0.2-2.9,2.6-3.7c2.3-0.8,5.2,1.9,5.2,1.9S35,66.6,31.5,69.9z"/>
																	<path class="st46" d="M39.3,68.1c0,0-0.2,0-0.3,0c-0.2,0-0.6,0-1-0.1c-0.2,0-0.4,0-0.7,0c-0.2,0-0.5,0-0.7,0
																		c-0.2,0-0.5,0.1-0.7,0c-0.2,0-0.2,0.1-0.4,0.1c-0.1,0-0.2,0.1-0.3,0.1c-0.2,0-0.2,0.1-0.3,0.1
																		c-0.1,0-0.2,0.1-0.3,0.1c-0.2,0.1-0.5,0.1-0.7,0.2c-0.1,0-0.1,0.1-0.2,0.1c-0.1,0-0.1,0.1-0.2,0.1
																		c-0.1,0.1-0.2,0.1-0.3,0.1c-0.2,0.1-0.3,0.2-0.5,0.3c-0.2,0.1-0.3,0.1-0.4,0.3c-0.2,0.1-0.3,0.1-0.3,0.2
																		c-0.2,0.2-0.3,0.2-0.3,0.2s0.1-0.1,0.3-0.2c0.1-0.1,0.2-0.2,0.3-0.3c0.1-0.2,0.3-0.2,0.4-0.3
																		c0.1-0.1,0.2-0.2,0.3-0.2c0.1-0.1,0.2-0.2,0.3-0.1c0.2-0.2,0.4-0.2,0.6-0.4c0.2-0.1,0.4-0.2,0.8-0.3
																		c0.2-0.1,0.2-0.1,0.4-0.1c0.1-0.1,0.2-0.1,0.4-0.1c0.2,0,0.2-0.1,0.4-0.1c0.2,0,0.2-0.1,0.4-0.1l0.2,0
																		c0.1,0,0.2,0,0.2,0c0.2,0,0.2,0,0.4,0c0.2,0,0.5,0,0.7,0c0.1,0,0.2,0,0.3,0c0.1,0,0.2,0,0.3,0
																		c0.2,0,0.4,0.1,0.6,0.1c0.2,0,0.3,0.1,0.4,0.1C39.2,68.1,39.3,68.2,39.3,68.1C39.2,68.1,39.3,68.1,39.3,68.1z"/>
																</g>
																<g>
																	<g>
																		
																			<ellipse transform="matrix(0.1457 -0.9893 0.9893 0.1457 -21.0883 120.5024)" class="st0" cx="59.2" cy="72.5" rx="4.4" ry="4.2"/>
																		<path class="st42" d="M63.2,72.8c0.1-0.6,0.1-1.1-0.1-1.7c0.1,0.4,0.1,0.8,0,1.3c-0.3,2.1-2.2,3.6-4.2,3.3
																			c-1.9-0.3-3.3-2.2-3-4.3s2.3-2.6,4.3-2.3c1.4,0.2,2.4,0.8,2.8,1.8c-0.4-1.4-1.7-2.5-3.2-2.8
																			c-2.2-0.3-4.2,1.3-4.5,3.6c-0.4,2.3,1.1,4.4,3.3,4.8C60.8,76.8,62.8,75.2,63.2,72.8z"/>
																		<path class="st43" d="M63.1,73.4c-0.2,1.3-1.4,2.2-2.7,2.1c-1.2-0.1-2.1-1.4-1.9-2.7c0.2-1.3,1.4-2.2,2.6-2.1
																			C62.4,70.9,63.3,72.1,63.1,73.4z"/>
																		<path class="st44" d="M62.9,73.5c-0.1,0.7-0.8,1.3-1.5,1.1c-0.7-0.1-1.2-0.8-1.1-1.5s0.8-1.3,1.5-1.1
																			C62.5,72,63,72.7,62.9,73.5z"/>
																		<path class="st0" d="M63.2,72.1c0,0.4-0.4,0.6-0.8,0.6c-0.4,0-0.6-0.4-0.5-0.8c0-0.4,0.4-0.6,0.8-0.6
																			C63,71.4,63.3,71.7,63.2,72.1z"/>
																		<path class="st0" d="M60.6,74.5c0,0.2-0.2,0.3-0.4,0.3c-0.2,0-0.3-0.2-0.3-0.4S60,74,60.3,74
																			C60.5,74,60.6,74.2,60.6,74.5z"/>
																		<path class="st45" d="M55.4,69.9c0,0,0.8-2.7,3-2.9c2.3-0.3,4.5,2.8,4.5,2.8S59.2,67.5,55.4,69.9z"/>
																		<path class="st46" d="M63,69.8c0,0-0.1,0-0.3-0.1c-0.2-0.1-0.5-0.2-0.9-0.3c-0.2,0-0.4-0.1-0.6-0.1
																			c-0.2,0-0.4-0.1-0.6-0.1c-0.2,0-0.5,0-0.7,0c-0.2,0-0.2,0-0.3,0c-0.1,0-0.2,0-0.3,0c-0.1,0-0.2,0-0.3,0
																			c-0.1,0-0.2,0-0.3,0.1c-0.2,0-0.5,0.1-0.7,0.1c-0.1,0-0.1,0-0.2,0c-0.1,0-0.1,0-0.2,0.1c-0.1,0-0.2,0.1-0.3,0.1
																			c-0.2,0.1-0.4,0.1-0.6,0.1c-0.2,0.1-0.3,0.1-0.5,0.1c-0.2,0.1-0.3,0.1-0.3,0.1c-0.2,0.1-0.3,0.1-0.3,0.1
																			s0.1-0.1,0.3-0.2c0.1-0.1,0.2-0.2,0.3-0.2c0.2-0.1,0.3-0.1,0.4-0.2c0.1-0.1,0.2-0.1,0.3-0.1
																			c0.1-0.1,0.2-0.1,0.3-0.1c0.2-0.1,0.4-0.1,0.7-0.2c0.2-0.1,0.5-0.1,0.7-0.1c0.2,0,0.2,0,0.4-0.1
																			c0.1,0,0.2,0,0.4,0c0.2,0,0.2,0,0.4,0s0.2,0,0.4,0l0.2,0c0.1,0,0.1,0,0.2,0c0.2,0,0.2,0,0.3,0.1
																			c0.2,0,0.5,0.1,0.6,0.2c0.1,0,0.2,0.1,0.3,0.1c0.1,0,0.2,0.1,0.2,0.1c0.2,0.1,0.3,0.2,0.5,0.2
																			c0.2,0.1,0.2,0.1,0.3,0.2C62.7,69.6,62.8,69.7,63,69.8C62.9,69.7,63,69.8,63,69.8z"/>
																	</g>
																</g>
															</g>
															<g>
																<path class="st33" d="M62.7,63.4c-1.4,0-3.3,0.2-4.7,1c-1.7,1.1-2.8,2.7-2.8,0.7c0.1-3.6,5.8-3.3,8-3.1
																	c2.2,0.2,3.3,1.2,3.3,1.4C66.5,64,65.6,63.4,62.7,63.4z"/>
																<path class="st34" d="M56.3,64c-0.2,0.2-0.3,0.7-0.1,0.9c0.2,0.2,0.6,0.3,0.4,0.4c-1,0.7-1.5,1.2-1.5-0.2
																	c0.1-3.6,5.8-3.3,8-3.1c2.2,0.2,3.3,1.2,3.3,1.4c0,0.3-1.6-0.5-3.5-0.7C60.4,62.4,57.3,62.6,56.3,64z"/>
															</g>
															<g>
																<path class="st33" d="M32.9,63.4c1.4,0,3.3,0.2,4.7,1c1.7,1.1,2.8,2.7,2.8,0.7c-0.1-3.6-5.8-3.3-8-3.1
																	c-2.2,0.2-3.3,1.2-3.3,1.4C29.1,64,30.1,63.4,32.9,63.4z"/>
																<path class="st34" d="M39.3,64c0.2,0.2,0.3,0.7,0.1,0.9s-0.6,0.3-0.4,0.4c1,0.7,1.5,1.2,1.5-0.2
																	c-0.1-3.6-5.8-3.3-8-3.1c-2.2,0.2-3.3,1.2-3.3,1.4c0,0.3,1.6-0.5,3.5-0.7C35.2,62.4,38.3,62.6,39.3,64z"/>
															</g>
														</g>
														<g class="st12">
															<path class="st39" d="M51.3,64.8c0,0-0.7,2.4,0.4,3.7c1.1,1.3-0.2,1.2-0.7,0.4C50.4,68,49.9,65.6,51.3,64.8z"/>
															<path class="st39" d="M45.8,68.5c1.1-1.3,0.4-3.7,0.4-3.7c1.3,0.8,0.9,3.3,0.3,4.1C46,69.7,44.7,69.8,45.8,68.5z"/>
														</g>
													</g>
												</g>
												<g>
													<path class="st47" d="M41,82.3c0,0,7.2,5.4,12.9-0.7c0,0,0.4,7.4-5.1,8.1C43.3,90.5,40.4,85.3,41,82.3z"/>
													<path class="st47" d="M41,82.3c0,0,7.2,5.4,12.9-0.7c0,0,0.4,7.4-5.1,8.1C43.3,90.5,40.4,85.3,41,82.3z"/>
												</g>
												<path class="st48" d="M50.7,89.2c-1.4-2.1-7.2-3.1-9.1-3.4c1.1,2.3,3.6,4.4,7.2,4C49.5,89.6,50.1,89.4,50.7,89.2z"/>
												<path class="st0" d="M41,82.3c-0.1,0.6-0.1,1.3,0.1,2c1.9,2,4.6,3.7,8,2.7c1.9-0.6,2.8-3.6,2.8-3.6s0,0,0,0
													C46.6,86.4,41,82.3,41,82.3z"/>
												<g>
													<path class="st29" d="M41.5,81.3c0.1,0,0.1,0.3,0,0.7c0,0.4-0.2,0.7-0.2,0.7S41,82.9,40.6,83c-0.4,0.1-0.7-0.1-0.7-0.2
														c0,0,0.3,0,0.6-0.1c0.3-0.1,0.4-0.4,0.4-0.4s0.2-0.2,0.3-0.5C41.3,81.6,41.4,81.2,41.5,81.3z"/>
												</g>
												<g>
													<path class="st29" d="M55.2,82c0,0.1-0.3,0.3-0.7,0.2c-0.4-0.1-0.7-0.4-0.7-0.4s-0.2-0.3-0.3-0.7c-0.1-0.4,0-0.7,0-0.7
														c0.1,0,0.2,0.3,0.3,0.6c0.1,0.3,0.3,0.5,0.3,0.5s0.1,0.2,0.4,0.4C54.8,82,55.1,82,55.2,82z"/>
												</g>
												<path class="st49" d="M41,82.3c-0.1,0.6-0.1,1.3,0.1,2c0.6,0.6,1.2,1.2,1.9,1.7c-1.1-1.1-1.3-2.1,0.4-1.3
													c2.7,1.3,6.9,0,8.2-0.6c0.2-0.5,0.3-0.8,0.3-0.8s0,0,0,0C46.6,86.4,41,82.3,41,82.3z"/>
												<g>
													<path class="st29" d="M54,81.6c0,0-0.2,0.4-0.6,0.9c-0.5,0.5-1.2,1-2,1.4c-0.8,0.4-1.7,0.6-2.4,0.7
														c-0.7,0.1-1.1,0.1-1.1,0.1s-0.5,0-1.1,0c-0.7,0-1.6-0.2-2.4-0.5c-1.7-0.6-3.1-1.7-3-1.8c0.1-0.1,1.6,0.8,3.2,1.1
														c0.8,0.2,1.7,0.2,2.3,0.2c0.6,0,1,0,1,0s0.4,0,1-0.1c0.6,0,1.4-0.2,2.2-0.5c0.8-0.3,1.5-0.7,2-1
														C53.7,81.8,54,81.5,54,81.6z"/>
												</g>
												<path class="st50" d="M49.5,88.2c-0.3,0.6-1.1,1.3-3.3,0.7c-2.5-0.7-3.2-2.1-3.4-2.9c-0.5-0.1-1-0.2-1.3-0.2
													c1.1,2.3,3.6,4.4,7.2,4c0.7-0.1,1.3-0.3,1.8-0.6C50.4,88.8,50,88.5,49.5,88.2z"/>
											</g>
										</g>
									</g>
								</g>
							</g>
						</g>
					</g>
				</g>
			</g>
		</g>
	</g>
</g>
<g>
	<path class="st11" d="M114.8,77.1h-5.4c-2.3,0-3.4,0.3-3.4,0.8c0,0.3,0.6,0.7,1.9,1.1c1.7,0.5,2.9,1,3.6,1.4c1.3,0.8,1.9,1.8,1.9,3
		c0,2.1-1.9,3.8-5.6,5.1c-2.9,1-5.8,1.5-8.4,1.5c-2.4,0-4.6-0.7-6.5-2.1c-2.1-1.5-3.1-3.4-3.1-5.6c0-1.6,0.3-3.2,0.8-4.7
		c0.3-0.9,1-2.3,2-4.3l0.7,0.3c-0.9,2.1-1.3,3.7-1.3,4.8c0,4.5,3.8,6.8,11.4,6.8c1.3,0,2.7-0.1,4.3-0.3c2.3-0.3,3.5-0.8,3.5-1.4
		c0-0.3-0.5-0.5-1.6-0.5c-4.4,0-6.7-1.1-6.7-3.3c0-2.1,0.7-3.9,2.2-5.5c1.5-1.5,3.3-2.3,5.5-2.3h4.2V77.1z M106,92.5l-2,3l-3-2
		l-1.5,2.6l-3.3-2.3l2-3.1l2.9,2.2l1.8-2.8L106,92.5z"/>
	<path class="st11" d="M120.9,69.3c0,2.1-0.4,3.9-1.3,5.3c-1,1.7-2.6,2.5-4.7,2.5h-1.7v-5.2c3.6,0,5.5-0.4,5.5-1.2
		c0-0.2-0.3-0.6-0.9-1.3c-0.6-0.7-0.9-1.2-0.9-1.6c0-0.6,0.8-2.3,2.3-5.2C120.2,65.2,120.9,67.4,120.9,69.3z M123.1,58.6l-2,3l-3-2
		l-1.5,2.6l-3.3-2.3l2-3.1l2.9,2.2l1.8-2.8L123.1,58.6z"/>
	<path class="st11" d="M144.7,77.1h-3.3c-2.6,0-4.4-1.8-5.4-5.4c-1.7,3.3-4.3,4.9-7.7,4.9c-2.7,0-4.1-0.9-4.1-2.6
		c0-0.5,0.5-2.3,1.6-5.5l0.6,0.1c0.5,1.7,1.9,2.5,4.3,2.5c1.4,0,2.4-0.1,3-0.3c1-0.3,1.6-1,1.6-2.2c0-1-0.2-2.6-0.7-4.8
		c-0.4-2.2-0.7-3.9-0.7-5c0-0.4,0.3-1,1-1.7c0.6-0.5,1.1-1,1.6-1.5c0,1.9,0.1,3.5,0.4,4.7c0.6,3.1,1,5,1.1,5.7
		c0.6,2.6,1.1,4.3,1.6,4.9c0.5,0.6,1,0.9,1.7,0.9h3.3V77.1z"/>
	<path class="st11" d="M165.8,65.2l-0.6,4.1c-0.7,0.1-1.7,0.1-2.9,0.1c-2.5,0-4.8,0.5-6.9,1.5c-1,0.5-2.5,1.4-4.3,2.8
		c-1.8,1.4-3.2,2.3-4.2,2.8c-0.7,0.4-2,0.5-3.9,0.5v-5.2c2.3,0,4.2-0.2,5.6-0.6c1.2-0.3,3-1.1,5.2-2.2c-2-1-3.6-1.5-4.7-1.5
		c-0.7,0-1.3,0.3-1.7,1h-3.3c0.5-1.9,1-3.3,1.6-4.2c0.9-1.3,2.2-2,3.9-2c1,0,2.6,0.4,4.6,1.1c3.3,1.2,6.1,1.8,8.7,1.8
		c0.3,0,0.8,0,1.4-0.1C165.1,65.2,165.5,65.2,165.8,65.2z M158.4,79.1l-1.9,3.2l-3.2-2.4l2-3.1L158.4,79.1z"/>
</g>
<g>
	<path class="st51" d="M94.4,105.9c-2.6,2.5-3.9,4.9-3.9,7.5c0,2.5,1.3,5.1,3.8,7.6l-0.1,0.2c-1.6-0.9-2.9-2-3.8-3.3
		c-1-1.4-1.5-2.9-1.5-4.5c0-1.5,0.5-3,1.4-4.3c0.8-1.2,2.1-2.3,3.9-3.3L94.4,105.9z"/>
	<path class="st51" d="M107.9,118.4h-2.7c-1.1,0-1.7,0.1-1.7,0.4c0,0.2,0.3,0.3,0.9,0.5c0.9,0.3,1.5,0.5,1.8,0.7
		c0.6,0.4,0.9,0.9,0.9,1.5c0,1-0.9,1.9-2.8,2.5c-1.5,0.5-2.9,0.8-4.2,0.8c-1.2,0-2.3-0.3-3.3-1c-1-0.8-1.6-1.7-1.6-2.8
		c0-0.8,0.1-1.6,0.4-2.3c0.2-0.4,0.5-1.2,1-2.2l0.3,0.1c-0.4,1-0.7,1.8-0.7,2.4c0,2.3,1.9,3.4,5.7,3.4c0.6,0,1.3-0.1,2.2-0.2
		c1.2-0.2,1.7-0.4,1.7-0.7c0-0.2-0.3-0.3-0.8-0.3c-2.2,0-3.3-0.5-3.3-1.6c0-1.1,0.4-2,1.1-2.7c0.7-0.8,1.7-1.2,2.8-1.2h2.1V118.4z
		 M103.5,126.2l-1,1.5l-1.5-1l-0.8,1.3l-1.7-1.2l1-1.5l1.4,1.1l0.9-1.4L103.5,126.2z"/>
	<path class="st51" d="M111,114.5c0,1.1-0.2,2-0.7,2.6c-0.5,0.8-1.3,1.3-2.4,1.3h-0.9v-2.6c1.8,0,2.7-0.2,2.7-0.6
		c0-0.1-0.2-0.3-0.5-0.6c-0.3-0.3-0.5-0.6-0.5-0.8c0-0.3,0.4-1.2,1.2-2.6C110.7,112.5,111,113.6,111,114.5z M110.9,120.5l-1,1.6
		l-1.6-1.1l1-1.6L110.9,120.5z"/>
	<path class="st51" d="M116.7,103.7c-0.1,0.3-0.2,0.6-0.3,0.7c-0.1,0.1-0.3,0.2-0.7,0.3l-3.3,1c0.3-0.6,0.7-0.9,1.3-1.1
		c-0.6-0.4-0.9-0.7-0.9-1c0-0.4,0.3-0.8,0.9-1.4c0.6-0.5,1.1-0.8,1.5-0.8c0.5,0,0.7,0.2,0.7,0.7c0,0.2-0.1,0.5-0.3,1
		c-0.5-0.3-0.8-0.5-1.1-0.5c-0.3,0-0.6,0.2-0.9,0.5c0.8,0.6,1.5,0.9,1.9,0.9C116,103.9,116.3,103.9,116.7,103.7z"/>
	<path class="st51" d="M115.4,115.1c0,0.9-0.2,1.8-0.6,2.8h-0.4c0-1.4-0.2-2.9-0.5-4.6c-0.5-2.6-0.7-4.3-0.7-5
		c0-0.4,0.2-0.9,0.5-1.3c0.1-0.2,0.4-0.5,0.9-1.1c0,1,0.1,2.5,0.4,4.6C115.3,112.6,115.4,114.2,115.4,115.1z"/>
	<path class="st51" d="M126.1,106.8l-1,1.6l-1.5-1l-0.8,1.3l-1.6-1.1l0.9-1.5l1.5,1.1l0.9-1.4L126.1,106.8z M126.8,114.4
		c0,1.1-0.2,2-0.7,2.8c-0.6,0.9-1.4,1.3-2.5,1.3c-0.8,0-1.3-0.2-1.7-0.7c-0.4-0.5-0.6-1.1-0.6-1.8c0-0.8,0.1-1.5,0.3-2.2
		c0.2-0.8,0.6-1.6,1-2.4c0.6-1.1,1.2-1.7,1.7-1.7c0.8,0,1.4,0.6,1.9,1.9C126.6,112.5,126.8,113.4,126.8,114.4z M126,114.7
		c-0.9-1.1-1.8-1.7-2.6-1.7c-0.3,0-0.6,0.1-0.8,0.4c-0.2,0.2-0.4,0.5-0.4,0.8c0,0.7,0.5,1.1,1.6,1.1
		C124.3,115.3,125,115.1,126,114.7z"/>
	<path class="st51" d="M138.7,118.4H137c-1.3,0-2.2-0.9-2.7-2.7c-0.8,1.6-2.1,2.5-3.9,2.5c-1.4,0-2-0.4-2-1.3c0-0.3,0.3-1.2,0.8-2.7
		l0.3,0.1c0.2,0.8,1,1.3,2.1,1.3c0.7,0,1.2-0.1,1.5-0.2c0.5-0.2,0.8-0.5,0.8-1.1c0-0.5-0.1-1.3-0.3-2.4c-0.2-1.1-0.3-2-0.3-2.5
		c0-0.2,0.2-0.5,0.5-0.8c0.3-0.3,0.6-0.5,0.8-0.8c0,1,0.1,1.8,0.2,2.3c0.3,1.6,0.5,2.5,0.6,2.8c0.3,1.3,0.6,2.1,0.8,2.4
		c0.2,0.3,0.5,0.5,0.9,0.5h1.6V118.4z"/>
	<path class="st51" d="M140.6,107.8v0.2c0,0.8,0.1,1.9,0.4,3.4c0.3,1.5,0.4,2.6,0.4,3.4c0,0.9-0.2,1.8-0.6,2.4
		c-0.5,0.8-1.2,1.3-2.1,1.3h-0.9v-2.6c0.9,0,1.4,0,1.5-0.1c0.5-0.1,0.7-0.5,0.7-1.1c0-0.9-0.2-2.2-0.6-4.1c-0.4-2-0.6-3.4-0.7-4.2
		c-0.1-0.1-0.2-0.2-0.3-0.4c0.3-1,0.7-1.6,1.2-1.9c0,0.6,0.3,1.1,0.7,1.5s1,0.6,1.6,0.5L141,108L140.6,107.8z"/>
	<path class="st51" d="M146.2,115.1c0,0.9-0.2,1.8-0.6,2.8h-0.4c0-1.4-0.2-2.9-0.5-4.6c-0.5-2.6-0.7-4.3-0.7-5
		c0-0.4,0.2-0.9,0.5-1.3c0.1-0.2,0.4-0.5,0.9-1.1c0,1,0.1,2.5,0.4,4.6C146.1,112.6,146.2,114.2,146.2,115.1z"/>
	<path class="st51" d="M156.1,116c0,1.8-0.4,3.4-1.1,5c-0.9,2-2.2,2.9-3.8,2.9c-0.9,0-2.1-0.3-3.7-1l0.2-0.3
		c0.5,0.1,0.9,0.2,1.1,0.2c1,0,2.1-0.5,3.3-1.4c1.1-0.8,1.9-1.7,2.4-2.7c0.4-0.7,0.6-1.5,0.6-2.4c-0.5,0.7-1,1.1-1.5,1.1
		c-0.5,0-0.8-0.2-1.1-0.6c-0.2-0.3-0.3-0.7-0.3-1.2c0-0.8,0.2-1.6,0.5-2.4c0.4-1,0.9-1.5,1.6-1.5c0.6,0,1.1,0.6,1.4,1.8
		C156,114.3,156.1,115.2,156.1,116z M154.6,115c-0.2-0.7-0.5-1-1-1c-0.4,0-0.6,0.2-0.6,0.6c0,0.2,0.1,0.4,0.3,0.5s0.4,0.2,0.6,0.2
		C154.1,115.2,154.3,115.1,154.6,115z"/>
	<path class="st51" d="M158.3,121c2.6-2.5,3.9-4.9,3.9-7.5c0-2.5-1.3-5.1-3.8-7.6l0.1-0.2c1.6,0.9,2.9,2,3.8,3.3
		c1,1.4,1.5,2.9,1.5,4.6c0,1.5-0.5,2.9-1.4,4.3c-0.8,1.2-2.1,2.3-3.9,3.3L158.3,121z"/>
</g>
</svg>
