<?xml version="1.0" encoding="utf-8"?>
<!-- Generator: Adobe Illustrator 21.0.0, SVG Export Plug-In . SVG Version: 6.00 Build 0)  -->
<svg version="1.1" id="Layer_1" xmlns="http://www.w3.org/2000/svg" xmlns:xlink="http://www.w3.org/1999/xlink" x="0px" y="0px"
	 viewBox="0 0 180 180" style="enable-background:new 0 0 180 180;" xml:space="preserve">
<style type="text/css">
	.st0{fill:#FFFFFF;}
	.st1{display:none;}
	.st2{display:inline;}
	.st3{fill:url(#SVGID_1_);}
	.st4{fill:#508906;}
	.st5{clip-path:url(#SVGID_4_);}
	.st6{fill:#CAECD3;}
	.st7{opacity:0.5;fill:#D0DBFD;enable-background:new    ;}
	.st8{opacity:0.5;}
	.st9{fill:#D0DBFD;}
	.st10{opacity:0.6;fill:#113F6A;enable-background:new    ;}
	.st11{fill:#421794;}
	.st12{fill:#122B46;}
	.st13{opacity:0.45;}
	.st14{opacity:0.45;fill:#122B46;enable-background:new    ;}
	.st15{fill:#113F6A;}
	.st16{fill:#77AD74;}
	.st17{opacity:0.34;}
	.st18{opacity:0.34;fill:#77AD74;enable-background:new    ;}
	.st19{opacity:0.34;fill:#113F6A;enable-background:new    ;}
	.st20{fill:#6E7A82;}
	.st21{opacity:0.34;fill:#6E7A82;enable-background:new    ;}
	.st22{opacity:0.45;fill:#421794;enable-background:new    ;}
	.st23{fill:#F4D0A4;}
	.st24{fill:#F49166;}
	.st25{opacity:0.45;fill:#F4D0A4;enable-background:new    ;}
	.st26{opacity:0.25;fill:#FA8C89;enable-background:new    ;}
	.st27{fill:#FFE0C2;}
	.st28{opacity:0.62;fill:#F4D0A4;enable-background:new    ;}
	.st29{opacity:0.45;fill:#E8B277;enable-background:new    ;}
	.st30{fill:#7E3716;}
	.st31{opacity:0.25;fill:#7E3716;enable-background:new    ;}
	.st32{opacity:0.3;}
	.st33{fill:#FFFCF8;}
	.st34{fill:#931221;}
	.st35{fill:#FF5E6C;}
	.st36{opacity:0.1;fill:#5C0A0C;enable-background:new    ;}
	.st37{opacity:0.5;fill:#FF5E6C;enable-background:new    ;}
	.st38{fill:#FDE9CF;}
	.st39{opacity:0.1;fill:#EA2F69;enable-background:new    ;}
	.st40{fill:#BF5900;}
	.st41{fill:#DD7A37;}
	.st42{opacity:0.5;fill:#AA4A02;enable-background:new    ;}
	.st43{fill:#D88145;}
	.st44{opacity:0.25;fill:#471807;}
	.st45{opacity:0.2;}
	.st46{fill:#EAAD85;}
	.st47{fill:#DDDFE0;}
	.st48{fill:#A49089;}
	.st49{fill:#231F20;}
	.st50{fill:#412820;}
</style>
<rect class="st0" width="180" height="180"/>
<rect class="st0" width="180" height="180"/>
<g>
	<g>
		<g>
			<g class="st1">
				<g class="st2">
					<g>
						
							<radialGradient id="SVGID_1_" cx="96.3333" cy="-204" r="167.1662" gradientTransform="matrix(1 0 0 1 0 288)" gradientUnits="userSpaceOnUse">
							<stop  offset="0.173" style="stop-color:#FFFFFF"/>
							<stop  offset="1" style="stop-color:#36CDFF;stop-opacity:0.3"/>
						</radialGradient>
						<rect id="SVGID_2_" x="0.4" y="0.1" class="st3" width="180" height="180"/>
					</g>
				</g>
			</g>
			<g>
				<g>
					<g>
						<path class="st4" d="M168.9,173.6h-2.6V173h2.6V173.6z M163.1,173.6h-2.6V173h2.6V173.6z M157.3,173.6h-2.6V173h2.6V173.6z
							 M151.5,173.6H149V173h2.6v0.6H151.5z M145.8,173.6h-2.6V173h2.6V173.6z M140,173.6h-2.6V173h2.6V173.6z M134.2,173.6h-2.6
							V173h2.6V173.6z M128.5,173.6h-2.6V173h2.6V173.6z M122.7,173.6h-2.6V173h2.6V173.6z M116.9,173.6h-2.6V173h2.6V173.6z
							 M111.2,173.6h-2.6V173h2.6V173.6z M105.4,173.6h-2.6V173h2.6V173.6z M99.6,173.6H97V173h2.6V173.6z M93.9,173.6h-2.6V173h2.6
							V173.6z M88.1,173.6h-2.6V173h2.6V173.6z M82.3,173.6h-2.6V173h2.6V173.6z M76.5,173.6H74V173h2.6L76.5,173.6L76.5,173.6z
							 M70.8,173.6h-2.6V173h2.6V173.6z M65,173.6h-2.6V173H65V173.6z M59.2,173.6h-2.6V173h2.6V173.6z M53.5,173.6h-2.6V173h2.6
							V173.6z M47.7,173.6h-2.6V173h2.6V173.6z M41.9,173.6h-2.6V173h2.6V173.6z M36.2,173.6h-2.6V173h2.6V173.6z M30.4,173.6h-2.6
							V173h2.6V173.6z M24.6,173.6H22V173h2.6V173.6z M18.9,173.6h-2.6V173h2.6V173.6z M13.1,173.6H12c-0.5,0-1-0.1-1.5-0.2l0.2-0.6
							c0.4,0.1,0.9,0.2,1.3,0.2h1.1V173.6z M171.5,172.8l-0.3-0.5c0.7-0.4,1.2-1,1.6-1.8l0.6,0.3
							C172.9,171.6,172.3,172.3,171.5,172.8z M7.8,171.3c-0.5-0.8-0.8-1.7-0.8-2.6h0.6c0,0.8,0.3,1.6,0.7,2.2L7.8,171.3z
							 M173.9,167.5h-0.6V165h0.6V167.5z M7.6,165.5H6.9V163h0.6L7.6,165.5L7.6,165.5z M173.9,161.8h-0.6v-2.6h0.6V161.8z
							 M7.6,159.8H6.9v-2.6h0.6L7.6,159.8L7.6,159.8z M173.9,156h-0.6v-2.6h0.6V156z M7.6,154H6.9v-2.6h0.6L7.6,154L7.6,154z
							 M173.9,150.2h-0.6v-2.6h0.6V150.2z M7.6,148.2H6.9v-2.6h0.6L7.6,148.2L7.6,148.2z M173.9,144.4h-0.6v-2.6h0.6V144.4z
							 M7.6,142.4H6.9v-2.6h0.6L7.6,142.4L7.6,142.4z M173.9,138.7h-0.6v-2.6h0.6V138.7z M7.6,136.7H6.9v-2.6h0.6L7.6,136.7
							L7.6,136.7z M173.9,132.9h-0.6v-2.6h0.6V132.9z M7.6,130.9H6.9v-2.6h0.6L7.6,130.9L7.6,130.9z M173.9,127.1h-0.6v-2.6h0.6
							V127.1z M7.6,125.1H6.9v-2.6h0.6L7.6,125.1L7.6,125.1z M173.9,121.4h-0.6v-2.6h0.6V121.4z M7.6,119.4H6.9v-2.6h0.6L7.6,119.4
							L7.6,119.4z M173.9,115.6h-0.6V113h0.6V115.6z M7.6,113.6H6.9V111h0.6L7.6,113.6L7.6,113.6z M173.9,109.8h-0.6v-2.6h0.6V109.8
							z M7.6,107.8H6.9v-2.6h0.6L7.6,107.8L7.6,107.8z M173.9,104.1h-0.6v-2.6h0.6V104.1z M7.6,102.1H6.9v-2.6h0.6L7.6,102.1
							L7.6,102.1z M173.9,98.3h-0.6v-2.6h0.6V98.3z M7.6,96.3H6.9v-2.6h0.6L7.6,96.3L7.6,96.3z M173.9,92.5h-0.6V90h0.6V92.5z
							 M7.6,90.5H6.9V88h0.6L7.6,90.5L7.6,90.5z M173.9,86.8h-0.6v-2.6h0.6V86.8z M7.6,84.8H6.9v-2.6h0.6L7.6,84.8L7.6,84.8z
							 M173.9,81h-0.6v-2.6h0.6V81z M7.6,79H6.9v-2.6h0.6L7.6,79L7.6,79z M173.9,75.2h-0.6v-2.6h0.6V75.2z M7.6,73.2H6.9v-2.6h0.6
							L7.6,73.2L7.6,73.2z M173.9,69.4h-0.6v-2.6h0.6V69.4z M7.6,67.4H6.9v-2.6h0.6L7.6,67.4L7.6,67.4z M173.9,63.7h-0.6v-2.6h0.6
							V63.7z M7.6,61.7H6.9v-2.6h0.6L7.6,61.7L7.6,61.7z M173.9,57.9h-0.6v-2.6h0.6V57.9z M7.6,55.9H6.9v-2.6h0.6L7.6,55.9L7.6,55.9
							z M173.9,52.1h-0.6v-2.6h0.6V52.1z M7.6,50.1H6.9v-2.6h0.6L7.6,50.1L7.6,50.1z M173.9,46.4h-0.6v-2.6h0.6V46.4z M7.6,44.4H6.9
							v-2.6h0.6L7.6,44.4L7.6,44.4z M173.9,40.6h-0.6V38h0.6V40.6z M7.6,38.6H6.9V36h0.6L7.6,38.6L7.6,38.6z M173.9,34.8h-0.6v-2.6
							h0.6V34.8z M7.6,32.8H6.9v-2.6h0.6L7.6,32.8L7.6,32.8z M173.9,29.1h-0.6v-2.6h0.6V29.1z M7.6,27.1H6.9v-2.6h0.6L7.6,27.1
							L7.6,27.1z M173.9,23.3h-0.6v-2.6h0.6V23.3z M7.6,21.3H6.9v-2.6h0.6L7.6,21.3L7.6,21.3z M173.9,17.5h-0.6V15h0.6V17.5z
							 M7.6,15.5H6.9V13h0.6L7.6,15.5L7.6,15.5z M173.9,11.8h-0.6v-0.1c0-0.8-0.2-1.5-0.6-2.2l0.6-0.3c0.4,0.8,0.7,1.6,0.7,2.5
							L173.9,11.8L173.9,11.8z M7.9,9.9L7.3,9.7c0.4-0.9,1-1.6,1.7-2.1l0.4,0.5C8.8,8.6,8.2,9.2,7.9,9.9z M170.4,7.6
							c-0.5-0.2-1-0.3-1.6-0.3H168V6.6h0.8c0.6,0,1.2,0.1,1.8,0.3L170.4,7.6z M164.8,7.3h-2.6V6.6h2.6V7.3z M159,7.3h-2.6V6.6h2.6
							V7.3z M153.3,7.3h-2.6V6.6h2.6V7.3z M147.5,7.3h-2.6V6.6h2.6V7.3z M141.7,7.3h-2.6V6.6h2.6V7.3z M136,7.3h-2.6V6.6h2.6V7.3z
							 M130.2,7.3h-2.6V6.6h2.6V7.3z M124.4,7.3h-2.6V6.6h2.6V7.3z M118.6,7.3H116V6.6h2.6V7.3z M112.9,7.3h-2.6V6.6h2.6V7.3z
							 M107.1,7.3h-2.6V6.6h2.6V7.3z M101.3,7.3h-2.6V6.6h2.6V7.3z M95.6,7.3H93V6.6h2.6V7.3z M89.8,7.3h-2.6V6.6h2.6V7.3z M84,7.3
							h-2.6V6.6H84V7.3z M78.3,7.3h-2.6V6.6h2.6V7.3z M72.5,7.3h-2.6V6.6h2.6V7.3z M66.7,7.3h-2.6V6.6h2.6V7.3z M61,7.3h-2.6V6.6H61
							V7.3z M55.2,7.3h-2.6V6.6h2.6V7.3z M49.4,7.3h-2.6V6.6h2.6V7.3z M43.6,7.3H41V6.6h2.6V7.3z M37.9,7.3h-2.6V6.6h2.6V7.3z
							 M32.1,7.3h-2.6V6.6h2.6V7.3z M26.3,7.3h-2.6V6.6h2.6V7.3z M20.6,7.3H18V6.6h2.6V7.3z M14.8,7.3h-2.6V6.6h2.6
							C14.8,6.6,14.8,7.3,14.8,7.3z"/>
					</g>
				</g>
			</g>
		</g>
	</g>
</g>
<g>
	<g>
		<g>
			<g>
				<g>
					<g>
						<g>
							<defs>
								<ellipse id="SVGID_3_" cx="90.6" cy="50" rx="129.7" ry="117"/>
							</defs>
							<clipPath id="SVGID_4_">
								<use xlink:href="#SVGID_3_"  style="overflow:visible;"/>
							</clipPath>
							<g class="st5">
								<g>
									<ellipse class="st6" cx="80.6" cy="350.9" rx="66.6" ry="14.4"/>
									<g>
										<path class="st0" d="M111.9,194.3c0,0-3,11.6,6.5,14.3c0,0,2.4-4.1,1.6-8.3C119.2,196.2,112.8,193.3,111.9,194.3z"/>
										<path class="st7" d="M111.9,194.3c0,0-3,11.6,6.5,14.3c0,0,2.4-4.1,1.6-8.3C119.2,196.2,112.8,193.3,111.9,194.3z"/>
										<path class="st7" d="M111.9,194.3c0,0-3,11.6,6.5,14.3c0,0,2.4-4.1,1.6-8.3C119.2,196.2,112.8,193.3,111.9,194.3z"/>
										<g>
											<g>
												<path class="st0" d="M117,105.9c0,0,34.5,41.8,35.8,56.7c1.1,14.9-22.6,39.8-34.3,46c0,0,4.6-7-6.5-14.3
													c0,0,25.1-25.9,23.1-33.2c-2-7.4-22.4-27.9-22.4-27.9S105.7,119.6,117,105.9z"/>
												<g class="st8">
													<g>
														<path class="st9" d="M144.8,158.9c0-0.1-1.4-0.4-2.9-0.4c-0.7,0-1.5,0.1-2,0.2c-0.5,0.1-0.9,0.3-0.9,0.3
															s-0.4,0.1-0.9,0.4s-1.1,0.7-1.6,1.2c-0.5,0.5-0.9,1.1-1.1,1.7c-0.2,0.5-0.3,0.9-0.2,0.9c0,0,0.2-0.4,0.4-0.8
															c0.3-0.4,0.6-1.1,1.1-1.5s1.1-0.8,1.6-1.1c0.4-0.2,0.8-0.4,0.8-0.4s0.4-0.1,0.8-0.3c0.5-0.2,1.2-0.3,1.9-0.3
															C143.4,158.8,144.8,159,144.8,158.9z"/>
													</g>
													<g>
														<path class="st9" d="M139.9,155.6c-0.1-0.1-1,0.5-1.7,1.2c-0.8,0.7-1.4,1.6-1.4,1.6s-0.6,0.9-1,1.8
															c-0.4,1-0.6,2-0.5,2s0.4-1,0.9-1.8c0.5-0.9,1.1-1.8,1.1-1.8s0.5-0.9,1.2-1.7C139.1,156.4,139.9,155.7,139.9,155.6z"/>
													</g>
												</g>
											</g>
											<g>
												<path class="st7" d="M112,194.3L112,194.3C111.9,194.3,111.9,194.3,112,194.3C111.9,194.3,111.9,194.3,112,194.3z"/>
												<path class="st7" d="M152.7,162.6L152.7,162.6c0-0.3-0.1-0.5-0.1-0.8c0-0.1,0-0.2-0.1-0.3c0-0.2-0.1-0.4-0.1-0.6
													c0-0.1-0.1-0.2-0.1-0.4c-0.1-0.2-0.1-0.4-0.2-0.6c0-0.1-0.1-0.2-0.1-0.3c-0.1-0.4-0.2-0.6-0.3-1c0,0,0,0,0-0.1
													c-0.1-0.4-0.2-0.6-0.4-1c0-0.1-0.1-0.3-0.1-0.4c-0.1-0.3-0.2-0.5-0.3-0.7c-0.1-0.1-0.1-0.3-0.2-0.4
													c-0.1-0.3-0.2-0.5-0.4-0.8c-0.1-0.1-0.1-0.3-0.2-0.4c-0.2-0.4-0.4-0.8-0.5-1.1c0,0,0-0.1-0.1-0.1
													c-0.2-0.4-0.4-0.7-0.5-1.1c-0.1-0.2-0.2-0.3-0.2-0.4c-0.2-0.3-0.3-0.5-0.4-0.8c-0.1-0.2-0.2-0.3-0.3-0.4
													c-0.2-0.3-0.3-0.6-0.4-0.9c-0.1-0.1-0.2-0.3-0.2-0.4c-0.3-0.4-0.4-0.8-0.7-1.2c0-0.1-0.1-0.1-0.1-0.2
													c-0.2-0.4-0.4-0.8-0.6-1.1c-0.1-0.2-0.2-0.3-0.3-0.4c-0.2-0.3-0.4-0.6-0.5-0.9c-0.1-0.2-0.2-0.3-0.3-0.4
													c-0.2-0.4-0.4-0.6-0.5-1c-0.1-0.1-0.2-0.3-0.3-0.4c-0.3-0.4-0.5-0.9-0.8-1.3c0-0.1-0.1-0.1-0.1-0.2
													c-0.3-0.4-0.4-0.8-0.7-1.1c-0.1-0.2-0.2-0.3-0.3-0.4c-0.2-0.4-0.4-0.6-0.6-1c-0.1-0.2-0.2-0.3-0.3-0.4
													c-0.3-0.4-0.4-0.7-0.7-1.1c-0.1-0.1-0.2-0.3-0.3-0.4c-0.3-0.4-0.6-0.9-0.9-1.4c0-0.1-0.1-0.1-0.1-0.2
													c-0.3-0.4-0.5-0.8-0.8-1.2c-0.1-0.2-0.2-0.3-0.3-0.4c-0.2-0.4-0.4-0.6-0.6-1c-0.1-0.2-0.2-0.3-0.3-0.4
													c-0.3-0.4-0.5-0.7-0.7-1.1c-0.1-0.1-0.2-0.2-0.2-0.4c-0.4-0.4-0.6-0.9-1-1.4c0-0.1-0.1-0.1-0.1-0.2
													c-0.3-0.4-0.5-0.8-0.9-1.2c-0.1-0.1-0.2-0.3-0.3-0.4c-0.3-0.4-0.4-0.6-0.7-1c-0.1-0.2-0.2-0.3-0.3-0.4
													c-0.3-0.4-0.5-0.7-0.8-1.1c-0.1-0.1-0.1-0.2-0.2-0.3c-0.4-0.4-0.6-0.9-1-1.3c0,0,0,0-0.1-0.1
													c-0.3-0.4-10.3-13.9-10.5-14.4c-0.1-0.1-0.2-0.2-0.3-0.4c-0.3-0.4-0.4-0.6-0.7-1c-0.1-0.1-0.2-0.3-0.3-0.4
													c-0.3-0.4-0.5-0.7-0.8-1.1c-0.1-0.1-0.1-0.2-0.2-0.2c-0.4-0.4-0.6-0.8-1-1.2l0,0c-0.2,0-0.4-0.1-0.4-0.1
													c0.4,0.4,26.4,40.6,23.1,45.6c-3.3,4.9-24.5-17-27.3-23.5c-2.7-6.3-2-12.7-2.2-12.6l0,0c-0.2,0.7-0.4,1.3-0.5,2l0,0
													c-0.1,0.7-0.3,1.6-0.4,2.5c-0.1,0.5-0.1,1-0.1,1.5c0,0.1,0,0.2,0,0.4c0,0.4,0,1,0,1.4v0.1c0,0.4,0,0.9,0.1,1.2
													c0,0.1,0,0.2,0,0.3c0,0.4,0.1,0.8,0.2,1.2v0.1c0.1,0.4,0.1,0.7,0.2,1.1c0,0.1,0,0.2,0,0.2c0.1,0.4,0.2,0.7,0.3,1.1v0.1
													c0.1,0.4,0.2,0.6,0.3,0.9v0.1c0.1,0.3,0.2,0.6,0.3,0.9c0.3,0.8,0.6,1.6,1.1,2.4c0.1,0.1,0.1,0.1,0.2,0.2l0.1,0.1
													c0.1,0.1,0.1,0.1,0.2,0.2c0.1,0.1,0.1,0.2,0.2,0.2c0.1,0.1,0.1,0.1,0.2,0.2c0.1,0.1,0.2,0.2,0.4,0.4l0.1,0.1
													c0.1,0.1,0.3,0.3,0.4,0.4c0.1,0.1,0.1,0.1,0.2,0.2c0.2,0.2,0.3,0.4,0.4,0.5c0.1,0.1,0.1,0.1,0.2,0.2
													c0.2,0.2,0.4,0.4,0.6,0.6c0,0,0,0,0.1,0.1c1.9,2,4.6,4.8,7.2,7.8l0.1,0.1c0.3,0.4,0.6,0.7,0.9,1.1
													c0.1,0.1,0.1,0.2,0.2,0.2c0.3,0.4,0.5,0.6,0.8,1c0.1,0.1,0.2,0.2,0.3,0.3c0.3,0.3,0.5,0.6,0.7,0.9
													c0.1,0.1,0.2,0.2,0.3,0.4c0.3,0.3,0.4,0.5,0.7,0.8c0.1,0.1,0.2,0.3,0.3,0.4c0.2,0.3,0.4,0.5,0.6,0.8
													c0.1,0.1,0.2,0.3,0.4,0.4c0.2,0.3,0.4,0.5,0.6,0.7c0.1,0.2,0.2,0.3,0.4,0.4c0.2,0.3,0.4,0.4,0.5,0.7
													c0.1,0.2,0.2,0.3,0.4,0.4c0.2,0.3,0.4,0.4,0.5,0.7c0.1,0.2,0.2,0.3,0.3,0.4c0.2,0.3,0.4,0.4,0.4,0.7
													c0.1,0.2,0.2,0.3,0.3,0.4c0.2,0.2,0.3,0.4,0.4,0.6c0.1,0.2,0.2,0.3,0.3,0.4c0.2,0.2,0.3,0.4,0.4,0.6
													c0.1,0.2,0.2,0.3,0.3,0.4c0.1,0.2,0.3,0.4,0.4,0.5c0.1,0.1,0.2,0.3,0.3,0.4c0.1,0.2,0.2,0.4,0.3,0.5
													c0.1,0.1,0.2,0.3,0.2,0.4c0.1,0.2,0.2,0.4,0.3,0.5c0.1,0.1,0.1,0.2,0.2,0.4c0.1,0.2,0.2,0.4,0.3,0.5
													c0,0.1,0.1,0.2,0.1,0.3c0.1,0.3,0.2,0.5,0.3,0.7s0.1,0.4,0.1,0.6c0.1,1.4-0.4,3.2-1.6,5.3c2.1-1.8,4.6-3.2,6.7-3
													c5,0.7-2.6,29.5-17,34.6c-2.2,0.8-4,1.1-5.4,1.1c3.2,5,0.7,8.9,0.7,8.9c4.7-2.5,11.5-8.2,17.7-14.9
													c3.9-4.2,7.5-8.8,10.4-13.4c0.7-1.1,1.4-2.3,2-3.4s1.2-2.3,1.7-3.4C152,169.6,152.9,165.8,152.7,162.6z"/>
											</g>
											<path class="st10" d="M117.9,190.6c0.8-0.8,1.7-1.7,2.5-2.5c3.2-3.5,5.9-7.4,5.9-7.4s0.7-1,1.8-2.4
												c1.1-1.5,2.3-3.4,3.5-5.4c0.6-1.1,1.2-2,1.8-3c0.5-1,1.1-1.8,1.8-2.5c0.6-0.7,1.4-1.1,1.9-1.1c0.5-0.2,0.9-0.1,0.9-0.1
												c0,0.1-0.3,0.1-0.8,0.3c-0.4,0.2-1.1,0.6-1.7,1.2c-1.1,1.3-2,3.5-3.2,5.6c-1.1,2.1-2.4,4.1-3.3,5.6
												c-1,1.5-1.7,2.5-1.7,2.5s-2.8,3.9-6.2,7.3c-0.9,0.9-1.8,1.7-2.5,2.5c-0.9,0.8-1.7,1.4-2.2,2c-0.5,0.7-0.9,1.3-0.9,1.8
												c0,0.5,0.1,0.8,0.1,0.8s-0.3-0.3-0.3-0.8c-0.1-0.5,0.2-1.3,0.7-2.1C116.3,192.1,117.1,191.4,117.9,190.6z"/>
											<path class="st10" d="M113.7,118.4c0,0-0.4,2.1-0.4,4.2c-0.1,2.1,0.2,4.2,0,4.3c-0.2,0-0.6-2.1-0.8-4.2
												c-0.2-2.2,0-4.3,0-4.3s0.3-2.2,1-4.2c0.6-2.1,1.6-4,1.8-3.9c0.2,0.1-0.5,2.1-1,4.1C113.8,116.3,113.7,118.4,113.7,118.4z
												"/>
										</g>
										<g>
											<g>
												<g>
													<g>
														<path class="st11" d="M52.9,343.6c0,0-22.7-2.3-24.5,7.2s34.2-1.8,34.2-1.8l-0.4-9.4L52.9,343.6z"/>
														<path class="st12" d="M28.6,350.3c-0.1,0.2-0.1,0.4-0.2,0.5c-1.8,9.5,34.2-1.8,34.2-1.8l-0.1-2.4
															C62.2,346.8,31.9,356.2,28.6,350.3z"/>
														<g>
															<path class="st12" d="M45.3,344.9c0,0,0.4,0.5,0.5,1.2c0.2,0.7,0.2,1.4,0.3,1.4c0.1,0,0.3-0.7,0.2-1.5
																c-0.1-0.8-0.4-1.5-0.4-1.5s-0.4-0.7-1-1.1l0,0c-0.2,0-0.4,0-0.6,0c0.1,0.1,0.3,0.3,0.4,0.4
																C45,344.3,45.3,344.9,45.3,344.9z"/>
															<path class="st12" d="M47.1,343.9c0.4,0.4,0.8,1.1,0.8,1.1s0.4,0.5,0.5,1.2c0.2,0.6,0.1,1.4,0.2,1.4s0.4-0.7,0.3-1.5
																c-0.1-0.8-0.4-1.5-0.4-1.5s-0.4-0.7-1.1-1.1c-0.1-0.1-0.3-0.2-0.4-0.2c-0.3,0-0.5,0-0.8,0
																C46.4,343.5,46.8,343.7,47.1,343.9z"/>
															<path class="st12" d="M50.3,344c0,0,0.4,0.4,0.6,1c0.3,0.5,0.4,1.2,0.4,1.2s0.2-0.7,0-1.4s-0.6-1.3-0.6-1.3l-0.1-0.1
																c-0.3,0-0.6,0-1,0C50.1,343.7,50.3,344,50.3,344z"/>
														</g>
														<path class="st12" d="M58,349.5c0,0-9.5,2.6-20,3.2c-6.3,0.4-8.7-0.4-9.6-1.1c0,1.2,0.8,2,2.1,2.5
															C39.9,354.7,58,349.5,58,349.5z"/>
														<g>
															<path class="st12" d="M37.6,345.6c0,0.1-1.1,0.3-2,0.7s-1.8,1-1.8,1s-0.9,0.5-1.8,1.2c-0.9,0.7-1.6,1.4-1.7,1.4
																c-0.1-0.1,0.6-0.9,1.4-1.7c0.8-0.8,1.8-1.4,1.8-1.4s1-0.6,2-0.9C36.6,345.6,37.6,345.5,37.6,345.6z"/>
														</g>
														<g>
															<path class="st12" d="M40.5,345c0,0.2-0.6,0.4-0.6,0.4s-0.7-0.1-0.7-0.2c0-0.2,0.6-0.4,0.6-0.4S40.4,344.8,40.5,345z
																"/>
														</g>
														<g class="st13">
															<path class="st14" d="M62.2,339.7l-7.9,3.3c1.7,0.4,5.7,1.8,2.6,3.5c-3.8,2.1-20,4.6-24.5,3.8c-3-0.6-2-2.5-1-3.7
																c-1.4,1-2.5,2.2-2.8,3.9l0,0c0-0.1,0-0.2,0.1-0.2c3.2,6,33.7-3.4,33.9-3.5L62.2,339.7z"/>
														</g>
													</g>
													<g>
														<path class="st11" d="M107.4,342.5c0,0,22.4-4.2,25,5.1c2.5,9.3-34.2,1.1-34.2,1.1l-0.4-9.4L107.4,342.5z"/>
														<path class="st12" d="M132.1,347.1c0.1,0.2,0.2,0.4,0.2,0.5c2.5,9.3-34.2,1.1-34.2,1.1l-0.1-2.4
															C98.4,346.5,129.4,353.3,132.1,347.1z"/>
														<g>
															<path class="st12" d="M115,343.2c0,0-0.3,0.6-0.4,1.2c-0.2,0.7-0.1,1.4-0.2,1.4c-0.1,0-0.4-0.7-0.4-1.5
																c0-0.8,0.3-1.6,0.3-1.6s0.4-0.7,0.9-1.2l0,0c0.2,0,0.4,0,0.6,0c-0.1,0.1-0.3,0.3-0.4,0.4
																C115.3,342.5,115,343.2,115,343.2z"/>
															<path class="st12" d="M113.2,342.4c-0.4,0.4-0.7,1.1-0.7,1.1s-0.4,0.5-0.4,1.2c-0.2,0.7,0,1.4-0.1,1.4
																c-0.1,0.1-0.4-0.7-0.4-1.5c0-0.8,0.4-1.6,0.4-1.6s0.4-0.7,1-1.1c0.1-0.1,0.2-0.2,0.4-0.2c0.3,0,0.5,0,0.8-0.1
																C113.8,341.8,113.5,342,113.2,342.4z"/>
															<path class="st12" d="M110,342.7c0,0-0.4,0.4-0.5,1.1c-0.2,0.6-0.2,1.2-0.3,1.2c-0.1,0-0.3-0.7-0.2-1.4
																c0.1-0.7,0.5-1.3,0.5-1.3s0-0.1,0.1-0.1c0.3,0,0.6-0.1,1-0.1C110.2,342.4,110,342.7,110,342.7z"/>
														</g>
														<path class="st12" d="M102.8,348.8c0,0,9.6,1.8,20.2,1.5c6.3-0.2,8.6-1.2,9.5-1.9c0.1,1.2-0.6,2.1-1.9,2.6
															C121.3,352.5,102.8,348.8,102.8,348.8z"/>
														<g>
															<path class="st12" d="M122.8,343.2c0,0.1,1.1,0.2,2.1,0.5c1.1,0.4,1.9,0.9,1.9,0.9s1,0.4,1.8,1.1
																c0.9,0.6,1.8,1.3,1.8,1.2c0.1-0.1-0.7-0.9-1.6-1.6s-1.8-1.2-1.8-1.2s-1-0.5-2.1-0.7
																C123.8,343.1,122.8,343.2,122.8,343.2z"/>
														</g>
														<g>
															<path class="st12" d="M119.9,342.8c0,0.2,0.6,0.3,0.6,0.3s0.7-0.1,0.7-0.3c0-0.2-0.6-0.3-0.6-0.3
																S119.9,342.7,119.9,342.8z"/>
														</g>
														<g class="st13">
															<path class="st14" d="M97.9,339.4l8.2,2.6c-1.6,0.6-5.5,2.4-2.3,3.8c3.9,1.8,20.2,3,24.8,1.7
																c2.9-0.8,1.8-2.6,0.6-3.8c1.5,0.9,2.6,2,3.2,3.6l0,0c0-0.1-0.1-0.2-0.1-0.2c-2.7,6.2-33.8-0.6-34.1-0.6L97.9,339.4z"
																/>
														</g>
													</g>
													<path class="st15" d="M70.5,192.7c0,0-11.9,89.7-18.4,148.7c0,0,4.8,1,6.5,1.1c1.4,0.1,5.8-0.3,5.8-0.3
														s19.4-112.8,25.5-115.7c7.8-3.8,0.4,99.4,2.1,114.2c0,0,6.7,4.6,15.3-0.5c0,0,1.5-140.8,1.8-151.2
														C109.3,178.6,70.2,185.1,70.5,192.7z"/>
													<path class="st16" d="M70.5,192.7c0,0-11.9,89.7-18.4,148.7c0,0,4.8,1,6.5,1.1c1.4,0.1,5.8-0.3,5.8-0.3
														s19.4-112.8,25.5-115.7c7.8-3.8,0.4,99.4,2.1,114.2c0,0,6.7,4.6,15.3-0.5c0,0,1.5-140.8,1.8-151.2
														C109.3,178.6,70.2,185.1,70.5,192.7z"/>
													<g class="st17">
														<g>
															<path class="st16" d="M68,212.4c0-0.1,0.6,0.2,1.6,0.2s2.2-0.4,3.2-1.1c1.1-0.7,1.8-1.8,2.4-2.5
																c0.5-0.8,0.7-1.4,0.7-1.4s0.3-0.6,0.6-1.5s0.6-2.2,1-3.4c0.3-1.2,0.5-2.5,0.6-3.5c0.2-1,0.2-1.6,0.3-1.6
																c0,0,0,0.6,0,1.7c-0.1,1-0.3,2.3-0.4,3.6c-0.3,1.3-0.5,2.5-0.8,3.5c-0.3,1-0.5,1.6-0.5,1.6s-0.3,0.6-0.8,1.5
																c-0.5,0.9-1.4,1.9-2.5,2.6c-1.1,0.7-2.5,1.1-3.5,1c-0.5,0-0.9-0.2-1.1-0.3C68.1,212.5,68,212.4,68,212.4z"/>
														</g>
														<g>
															<path class="st16" d="M108.5,213c0,0-0.4-0.4-0.8-1.1c-0.4-0.7-0.9-1.7-1.4-2.7c-0.9-2-1.5-4.1-1.5-4.1
																s-0.5-2.1-0.8-4.3c-0.1-1.1-0.2-2.2-0.2-3s0-1.4,0.1-1.4c0,0,0.1,0.5,0.2,1.4c0.1,0.8,0.2,1.9,0.4,3
																c0.4,2.2,1,4.2,1,4.2s0.5,2.1,1.3,4.1c0.4,1.1,0.9,2,1.2,2.7C108.2,212.5,108.5,213,108.5,213z"/>
														</g>
														<g>
															<path class="st16" d="M93.8,223.7"/>
														</g>
														<g>
															<path class="st16" d="M89.6,226.2c0,0,0-0.3,0.1-0.6c0.1-0.4,0.2-1,0.3-1.7c0.2-1.4,0.4-3.2,0.8-5
																c0.5-3.6,1-7.3,1-7.3s0.4-3.6,0.9-7.3c0.2-1.8,0.4-3.7,0.4-5c0.1-0.7,0.1-1.2,0.2-1.7c0-0.4,0.1-0.6,0.1-0.6
																s0,0.3,0,0.6c0,0.4,0,1-0.1,1.7c-0.1,1.4-0.2,3.2-0.3,5.1c-0.3,3.7-0.7,7.3-0.7,7.3s-0.4,3.7-1.1,7.3
																c-0.4,1.8-0.6,3.6-1,5c-0.2,0.7-0.3,1.2-0.4,1.7C89.7,226.1,89.6,226.2,89.6,226.2z"/>
														</g>
														<g>
															<path class="st16" d="M90.8,217.6c0,0,0.2-0.1,0.4-0.2c0.2-0.1,0.4-0.1,0.5-0.2c0.2-0.1,0.4-0.3,0.6-0.4
																c0.9-0.6,1.7-1.8,2.1-3.2c0.5-1.3,0.8-2.7,0.9-3.8c0.2-1.1,0.2-1.8,0.2-1.8s0.1-0.7,0.2-1.8c0.1-1.1,0.2-2.5,0.3-3.9
																c0.1-1.4,0.2-2.9,0.4-3.9c0.1-0.5,0.3-1,0.4-1.2s0.2-0.4,0.3-0.4c0,0-0.3,0.7-0.4,1.8c-0.2,1.1-0.3,2.5-0.3,3.9
																c0,1.4-0.1,2.9-0.1,3.9c-0.1,1.1-0.1,1.8-0.1,1.8s-0.1,0.7-0.3,1.8c-0.2,1.1-0.4,2.5-1.1,3.9
																c-0.5,1.3-1.4,2.6-2.4,3.2c-0.3,0.1-0.4,0.3-0.7,0.4c-0.2,0.1-0.4,0.1-0.5,0.2C91,217.6,90.8,217.6,90.8,217.6z"/>
														</g>
														<g>
															<path class="st16" d="M96.8,226.1c0,0.1-1.7,0-3.2,0.1c-1.6,0-3.2,0.3-3.2,0.3s-1.6,0.1-3.2,0.6
																c-0.8,0.3-1.5,0.5-2,0.9c-0.5,0.3-0.9,0.5-0.9,0.4c0,0,0.3-0.4,0.8-0.7c0.5-0.4,1.2-0.7,2-1.1
																c1.6-0.6,3.2-0.8,3.2-0.8s1.7-0.2,3.2-0.1C95.2,225.8,96.8,226,96.8,226.1z"/>
														</g>
														<g>
															<path class="st16" d="M93.9,224.7c0,0.1-1.5,0.4-2.8,1.1c-1.4,0.6-2.6,1.5-2.6,1.5s-1.3,0.8-2.5,1.8
																c-1.1,1-2.2,2.1-2.2,2.1c-0.1,0,0.9-1.3,1.9-2.4c1.1-1.1,2.5-1.9,2.5-1.9s1.3-0.8,2.8-1.3
																C92.3,225,93.9,224.7,93.9,224.7z"/>
														</g>
														<g>
															<path class="st16" d="M62.3,340.6c0,0.1-1,0.1-1.8,0c-0.9-0.1-1.8-0.2-1.8-0.2s-0.9-0.2-1.8-0.4
																c-0.9-0.3-1.8-0.6-1.7-0.7c0-0.1,0.9,0.2,1.8,0.4c0.9,0.2,1.8,0.3,1.8,0.3s0.9,0.2,1.8,0.4
																C61.3,340.4,62.3,340.5,62.3,340.6z"/>
														</g>
														<g>
															<path class="st16" d="M105.6,339.8c0,0.1-1.6,0.5-3.2,0.6c-1.7,0.1-3.3-0.1-3.3-0.1s-1.7-0.3-3.2-1
																c-1.6-0.6-3-1.6-2.9-1.7c0-0.1,1.5,0.8,3.1,1.2c1.6,0.5,3.2,0.7,3.2,0.7s1.6,0.3,3.2,0.3
																C103.9,340.1,105.6,339.7,105.6,339.8z"/>
														</g>
													</g>
													<g>
														<path class="st18" d="M85.1,229.8c-1.4,1.6-8.2,38.1-10.3,43.9s-6.9,11.3-10.7,7c-3.8-4.3,8.9-79.5,8.9-80.1
															c-0.8-18.1,27.3-8,36-4.5c0.1-3.5,0.1-6,0.1-7c0.3-10.3-38.8-3.9-38.6,3.7c0,0-11.9,89.7-18.4,148.7
															c0,0,4.8,1,6.5,1.1c1.4,0.1,5.8-0.3,5.8-0.3s18.4-107.1,25-115.3C87.3,227.6,85.9,229,85.1,229.8z"/>
														<path class="st18" d="M92,340.7c0,0,6.7,4.6,15.3-0.5c0,0,0.4-30.5,0.7-64.2c-2.6,9.9-7.5,9.4-9.7,4.6
															c-2.6-5.9,3.2-50.1-1.9-53.2c-2-1.1-3.9-1.3-5.6-1C97.2,230.9,90.2,326.5,92,340.7z"/>
													</g>
												</g>
												<g>
													<g>
														<path class="st16" d="M105.5,271.5c0,0-0.1-0.4-0.1-1.1s0-1.8,0-3c0-2.5,0.1-5.7,0.2-9c0.1-6.6,0.1-13.1,0.1-13.1
															s0.1-6.6,0.3-13.1c0-3.2,0.1-6.6,0.1-9c0-1.2,0.1-2.3,0.1-3c0-0.7,0.1-1.1,0.1-1.1s0.1,0.4,0.1,1.1
															c0.1,0.7,0.1,1.8,0.2,3c0.1,2.5,0.2,5.7,0.3,9c0.1,6.6,0.1,13.1,0.1,13.1s-0.2,6.6-0.4,13.1c-0.2,3.2-0.4,6.6-0.5,9
															c-0.1,1.2-0.2,2.3-0.3,3C105.6,271.2,105.5,271.5,105.5,271.5z"/>
													</g>
													<g>
														<path class="st16" d="M105.3,281c-0.2,0-0.2-0.7-0.2-1.3s-0.1-1.3-0.1-1.3s0.1-0.6,0.2-1.3c0.1-0.6,0.2-1.3,0.3-1.3
															c0.2,0,0.4,0.6,0.5,1.3c0.1,0.7,0.2,1.3,0.2,1.3s-0.1,0.7-0.3,1.3C105.7,280.4,105.5,281.1,105.3,281z"/>
													</g>
													<g>
														<path class="st16" d="M66.4,280.1c-0.1,0.1-0.9-0.7-1.4-1.7c-0.5-1-0.9-2-0.9-2s-0.2-1.1-0.2-2.2
															c0.1-1.1,0.4-2.2,0.5-2.1c0.2,0,0.1,1.1,0.3,2.1c0.2,1.1,0.4,2,0.4,2s0.2,1,0.4,2C66,279.1,66.5,280,66.4,280.1z"/>
													</g>
													<g>
														<path class="st16" d="M65.7,250c0.3,0-0.2,9-0.2,9s-1,9-1.2,8.9c-0.3,0,0.2-9,0.2-9S65.4,250,65.7,250z"/>
													</g>
												</g>
											</g>
											<g>
												<path class="st12" d="M69.2,189.6c0,0-6.7,6.7,13.1,7.7c16.6,0.9,26.6-1.6,27.6-4.6c1.1-3.4-1.7-6-1.7-6
													S69.9,187.1,69.2,189.6z"/>
												<path class="st14" d="M76.6,194.4c-1.5-2.5,6.7-0.4,17.2-0.9c8.3-0.4,14.2-2.8,16.3-4c-0.3-1.1-0.8-1.8-1.2-2.4
													c-0.4-0.2-0.8-0.4-1.2-0.5c-5.3,0.1-37.8,0.6-38.4,2.9c0,0-6.7,6.7,13.1,7.7c13.1,0.7,22.1-0.7,25.8-2.8
													C97.7,198.2,77.8,196.6,76.6,194.4z"/>
												<g>
													<path class="st19" d="M85.4,192c0,0-2.5,6.1,2.8,6.9c5.3,0.9,9.5-0.5,10.3-1.7c0.9-1.1,0.7-5.3-1.5-5.8
														C94.8,190.8,85.4,192,85.4,192z"/>
													<path class="st20" d="M86.5,191.4c0,0-2.5,6.1,2.8,6.9c5.3,0.9,9.5-0.5,10.3-1.7c0.9-1.1,0.7-5.3-1.5-5.8
														C95.8,190.3,86.5,191.4,86.5,191.4z"/>
													<path class="st20" d="M98,190.8c-0.8-0.2-2.5-0.2-4.2-0.1c1.3,0,2.5,0,3.1,0.2c2.2,0.6,2.4,4.6,1.5,5.8
														c-0.6,0.8-2.7,1.7-5.6,1.9c3.6-0.1,6.1-1.1,6.8-1.9C100.4,195.6,100.3,191.4,98,190.8z"/>
													<path class="st21" d="M90.3,197.2c-3.9-0.6-3.6-4-3.2-5.9c-0.4,0.1-0.8,0.1-0.8,0.1s-2.5,6.1,2.8,6.9
														c5.3,0.9,9.5-0.5,10.3-1.7c0.1-0.2,0.2-0.3,0.3-0.5C98.2,197.1,94.6,197.9,90.3,197.2z"/>
												</g>
											</g>
										</g>
										<g>
											<path class="st0" d="M81.3,98.9c0,0-19.6,3.2-25.9,7.4c0,0,7.6,22.7,3.2,33.2c3.3,10.7,5.8,21.8,7.3,32.9
												c0.4,3.2,0.8,6.5,1,9.7c0.2,3.1-1.1,7.4,2.9,8.2c2.7,0.6,5.4,1.2,8.2,1.7c7.5,1.3,15.3,2.1,22.8,1.1
												c3.2-0.4,7.2-0.8,9.6-3.2c1.8-1.8,1.9-4.4,2.3-6.7c0.9-5.7,1.7-11.3,2.5-17c2-13.8,4-27.7,5.3-41.6
												c0.3-2.6,0.4-5.3,0.6-7.8C121.8,98.6,94.6,98.9,81.3,98.9z"/>
											<path class="st7" d="M81.3,98.3c0,0-19.6,3.2-25.9,7.4c0,0,7.6,22.7,3.2,33.2c3.3,10.7,5.8,21.8,7.3,32.9
												c0.4,3.2,0.8,6.5,1,9.7c0.2,3.1-1.1,7.4,2.9,8.2c2.7,0.6,5.4,1.2,8.2,1.7c7.5,1.3,15.3,2.1,22.8,1.1
												c3.2-0.4,7.2-0.8,9.6-3.2c1.8-1.8,1.9-4.4,2.3-6.7c0.9-5.7,1.7-11.3,2.5-17c2-13.8,4-27.7,5.3-41.6
												c0.3-2.6,0.4-5.3,0.6-7.8C121.8,98.1,94.6,98.3,81.3,98.3z"/>
											<path class="st7" d="M112.6,183.4c0.4-2.9,0.9-5.8,1.3-8.6c-6.7,14.1-20.2,16.2-33.4,10c-15.6-7.4-18.8-58.5-18.6-59.1
												c0,0-1.4,6-3.2,14.6c3.2,10.5,5.6,21.3,7.1,32.2c0.4,3.2,0.8,6.5,1,9.7c0.2,3.1-1.1,7.4,2.9,8.2c2.7,0.6,5.4,1.2,8.2,1.7
												c7.5,1.3,15.3,2.1,22.8,1.1c3.2-0.4,7.2-0.8,9.6-3.2C112.1,188.3,112.2,185.6,112.6,183.4z"/>
											<g>
												<path class="st7" d="M78,111.9L78,111.9C78,111.8,78,111.8,78,111.9z"/>
												<path class="st9" d="M92.4,178.1c0,0,0.1,0.4,0.1,1.2c0,0.7,0,1.7,0.1,2.6c0,1.9,0,3.9,0,3.9s-0.1,1.9-0.1,3.9
													c-0.1,1-0.2,1.9-0.4,2.6c-0.2,0.7-0.4,1.1-0.4,1.1s0.2-0.4,0.3-1.1c0.1-0.7,0.2-1.7,0.2-2.6c0-1.9,0-3.9,0-3.9
													s0.1-1.9,0.1-3.9c0-1,0.1-1.9,0.1-2.6C92.3,178.6,92.3,178.1,92.4,178.1z"/>
											</g>
											<g>
												<path class="st7" d="M97.9,179.3c-1.3,3.5-3.5,7.4-5.9,10.2c-0.2,0.2-0.4,0.4-0.5,0.4c-0.3,0-0.4-0.2-0.6-0.4
													c-0.6-0.7-1.2-1.4-1.8-2.1c-7.5-8.6-6.4-18-5.5-28.7c1.1-13.9,3-27.9,5.2-41.7c-2.5-1.1-4.4-4.8-4.4-4.8
													c-0.4-2.4,3.2-6,5.5-6.2c2.3-0.3,5.4,5.3,5.4,5.3s-0.2,3.9-3.3,5.5c0.2,1.4,4.6,35.4,5.5,44.6c0.3,2.5,0.5,4.9,0.9,7.3
													C98.7,172.5,99.1,175.8,97.9,179.3z"/>
												<g>
													<path class="st11" d="M98.8,178.9c-1.3,3.5-3.5,7.4-5.9,10.2c-0.2,0.2-0.4,0.4-0.5,0.4c-0.3,0-0.4-0.2-0.6-0.4
														c-0.6-0.7-1.2-1.4-1.8-2.1c-7.5-8.6-6.4-18-5.5-28.7c1.1-13.9,3-27.9,5.2-41.7c-2.5-1.1-4.4-4.8-4.4-4.8
														c-0.4-2.4,3.2-6,5.5-6.2c2.3-0.3,5.4,5.3,5.4,5.3s-0.2,3.9-3.3,5.5c0.2,1.4,4.6,35.4,5.5,44.6c0.3,2.5,0.5,4.9,0.9,7.3
														C99.8,172,100.1,175.3,98.8,178.9z"/>
													<path class="st22" d="M99.3,168.3c-0.1-0.4-0.1-0.7-0.1-1c-1,9.2-5.3,16-10.1,6.1c-4.9-10.2,0.5-53.9,1.8-54.7
														c0.9-0.5,2.5,5.7,3.4,9.7c-0.9-6.6-1.5-11.5-1.6-12c1.3-0.6,2.1-1.7,2.5-2.6c-0.8,0.6-3.5,2.5-5.5,0.7
														c-2.4-2-0.4-8-0.2-8.4c0,0-0.7,0.3-1.7,0.7c-1.7,1.3-3.1,3.4-2.8,4.9c0,0,1.9,3.6,4.4,4.8c-2.2,13.8-4.1,27.8-5.2,41.7
														c-0.9,10.7-2,20.1,5.5,28.7c0.6,0.7,1.2,1.4,1.8,2.1c0.2,0.2,0.4,0.4,0.6,0.4c0.3,0,0.4-0.2,0.5-0.4
														c2.5-2.8,4.6-6.6,5.9-10.2C100.1,175.3,99.8,172,99.3,168.3z"/>
													<path class="st11" d="M95.9,159.8c-0.3,0-2.5-18-2.5-18s-1.7-18.1-1.4-18.1c0.3,0,2.5,18,2.5,18S96.2,159.7,95.9,159.8
														z M97.1,169.2c0.1-1.2,0.1-2.5,0.1-2.5s-0.2-1.2-0.4-2.5c-0.2-1.2-0.5-2.5-0.6-2.5c-0.2,0-0.2,1.2-0.1,2.5
														c0,1.2,0,2.5,0,2.5s0.2,1.2,0.3,2.5c0.2,1.2,0.3,2.5,0.4,2.5C96.9,171.7,97,170.4,97.1,169.2z M93.4,113.4
														c0.4-0.8,0.3-1.7,0.3-1.7s-0.2-0.9-0.7-1.5c-0.5-0.7-1.3-1-1.4-0.8c-0.1,0.2,0.4,0.6,0.7,1.2c0.3,0.6,0.3,1.2,0.3,1.2
														s0.2,0.6,0.1,1.3c-0.1,0.7-0.4,1.2-0.4,1.4C92.3,114.7,93,114.2,93.4,113.4z"/>
												</g>
											</g>
											<g class="st8">
												<path class="st9" d="M104,104.7c0.9,1.9,3.5,3.4,4.9,5.1c1.6,1.8,3.1,4.1,4.5,6.1c0.3,0.4,0.8,0.3,0.9-0.1
													c1.2-3.3,0.4-6.2-1.9-8.9c-1.7-2-5.2-4.6-8-3.3C103.8,103.7,103.8,104.2,104,104.7L104,104.7z"/>
											</g>
											<g class="st8">
												<path class="st9" d="M68.1,179.7c-0.8,3.8,2,10.9,6.7,10.4c0.6-0.1,1.1-0.9,0.6-1.4c-1.3-1.1-2.9-2-3.9-3.5
													c-1.1-1.8-1.4-3.8-2.2-5.7C69,179,68.2,179.2,68.1,179.7L68.1,179.7z"/>
											</g>
											<g class="st8">
												<path class="st9" d="M110.7,182c-1.1,1.8-2,3.7-3.7,5.2c-1.6,1.4-3.5,2.3-5.3,3.3c-0.5,0.4-0.3,1.1,0.3,1.1
													c4.6,0.3,9.3-5,9.2-9.5C111.2,181.9,110.8,181.7,110.7,182L110.7,182z"/>
											</g>
											<g>
												<path class="st9" d="M117.1,150.8c0,0,0-0.4,0.1-0.9c0.1-0.5,0.2-1.3,0.3-2.2c0.2-1.8,0.4-4.2,0.7-6.7
													c0.4-4.8,0.6-9.7,0.6-9.7s0.3-4.8,0.1-9.7c-0.1-2.5-0.3-4.8-0.4-6.7c-0.1-0.9-0.2-1.7-0.2-2.2c-0.1-0.5-0.1-0.9-0.1-0.9
													s0.1,0.3,0.2,0.8c0.1,0.5,0.2,1.3,0.4,2.2c0.3,1.8,0.4,4.2,0.5,6.7c0.3,4.9,0.1,9.7,0.1,9.7s-0.3,4.9-0.8,9.7
													c-0.3,2.5-0.6,4.8-0.9,6.7c-0.1,0.9-0.3,1.7-0.4,2.2C117.1,150.6,117.1,150.8,117.1,150.8z"/>
											</g>
										</g>
										<g>
											<g>
												<path class="st23" d="M80.2,194c-1.1-1.2-2.7-1.7-4.6-1.7c0.2-0.4,0.3-0.7,0.2-1.1c-0.4-2.3-4.5-4.1-4.5-1.8
													c0,1.2-0.5,2.6-1.1,3.8c-2.3,0.7-4,1.5-4,1.5s-7.3,3.7-4,8.8c3.2,5.1,9.8,1.2,10.7,1.5s-0.3,2.9-0.3,4.1
													c0,1.2,4,1.9,6.7-2s1.6-6.3,1.6-6.3s1.8,2.5,2.9,1.5C85.1,201.3,84,198.1,80.2,194z"/>
												<path class="st24" d="M77.5,202.7c0.1,0,0.2,1.1,0.2,2.1c0,1.1-0.4,2.1-0.4,2.1s-0.4,1.1-1,2c-0.4,0.4-0.8,0.9-1.2,1
													c-0.4,0.2-0.7,0.1-0.7,0.1s0.3-0.1,0.6-0.3s0.7-0.5,1-1c0.5-0.9,0.8-1.9,0.8-1.9s0.4-1,0.4-2
													C77.4,203.7,77.4,202.7,77.5,202.7z M80.9,199.9c-0.3-1-0.7-1.8-0.7-1.8s-0.5-0.9-1.1-1.7c-0.4-0.4-0.8-0.7-1.1-0.9
													c-0.4-0.2-0.6-0.2-0.6-0.2s0.3,0.2,0.5,0.4c0.3,0.2,0.6,0.5,1,1c0.5,0.8,1,1.7,1,1.7s0.5,0.9,0.9,1.8
													c0.4,0.9,0.6,1.8,0.7,1.8C81.2,201.9,81.1,200.8,80.9,199.9z M79,200.8c0.3,1,0.4,2,0.4,2s0.3,1,0.2,2
													c0,1.1-0.4,2-0.4,2c0.1,0,0.6-1,0.7-2c0.2-1.1,0-2.1,0-2.1s-0.2-1.1-0.6-2c-0.4-1-0.9-1.9-1-1.9
													C78.4,198.8,78.8,199.8,79,200.8z M76.5,192.2c-0.3-0.1-0.7-0.2-1.1-0.2c-0.4,0-0.8,0.1-1.1,0.1
													c-0.3,0.1-0.4,0.1-0.4,0.1s-2.9,0.7-2.9,0.9c0,0.2,3-0.4,3-0.4s0.2-0.1,0.4-0.1c0.3-0.1,0.6-0.2,1-0.3
													c0.4-0.1,0.7-0.1,1,0c0.3,0,0.4,0.1,0.4,0.1C76.9,192.5,76.8,192.4,76.5,192.2z"/>
												<g>
													<path class="st25" d="M83.5,199.8c-0.5,1.1-4.8-3.3-5-3.6c-0.2-0.3,3.1,4.7,2.5,5.3c-0.6,0.7-2.4-2.7-2.4-2.7
														s1.2,5.6,0.3,5.8c-0.9,0.2-1.8-5.1-1.8-5.1c0.1,1.1,0.2,8-1.5,7.8c-1.7-0.2-0.9-4.8-0.9-4.8s-1.8,1.3-6.4-0.4
														c-3.5-1.4-1.8-5.9-0.9-7.8c-0.7,0.3-1.1,0.4-1.1,0.4s-1.6,0.8-3,2.2c-0.7,1.3-1.4,2.8-1.9,4.4c0.1,0.7,0.3,1.5,0.8,2.3
														c3.2,5.1,9.8,1.2,10.7,1.5c0.9,0.3-0.3,2.9-0.3,4.1s4,1.9,6.7-2c2.7-3.9,1.6-6.3,1.6-6.3s1.8,2.5,2.9,1.5
														c0.7-0.6,0.5-2.1-0.7-4.1C83.5,198.8,83.6,199.5,83.5,199.8z"/>
													<path class="st25" d="M73.2,188.5c0.1,0.2,0.2,0.4,0.3,0.5c1.3,3.1-1.7,3.9-2.5,4c0.6-0.1,2.2-0.4,3.5-0.4
														c0.8,0,2.4,0,3.8,0.1c-0.8-0.3-1.7-0.4-2.5-0.4c0.2-0.4,0.3-0.7,0.2-1.1C75.7,190,74.4,188.9,73.2,188.5z"/>
													<path class="st26" d="M70.9,193.2c-0.2,0-0.3,0.1-0.3,0.1S70.9,193.2,70.9,193.2z"/>
												</g>
											</g>
											<g>
												<path class="st0" d="M55.3,106.2c0,0-31.8,41.8-32,56.1c-0.3,14.2,25.2,36.6,37.2,41.8c0,0,7-6.9,8.6-11.7
													c0,0-29.7-25.4-28.1-32.5c1.6-7.1,20.3-22.8,20.3-22.8S67.4,118.6,55.3,106.2z"/>
												<g class="st8">
													<g>
														<path class="st9" d="M61.7,117.3c0,0,0.2,0.4,0.4,1.1c0.2,0.7,0.4,1.7,0.5,2.6c0.3,1.9,0.2,3.9,0.2,3.9
															s-0.1,1.9-0.6,3.9c-0.3,1-0.5,1.8-0.8,2.5c-0.3,0.7-0.5,1.1-0.5,1.1c0,0,0.1-0.4,0.4-1.1c0.2-0.7,0.4-1.6,0.6-2.5
															c0.4-1.8,0.4-3.8,0.4-3.8s0.2-1.9,0-3.8c-0.1-1-0.3-1.9-0.4-2.6C61.7,117.8,61.7,117.4,61.7,117.3z"/>
													</g>
													<g>
														<path class="st9" d="M65.8,123.6c0.1,0-0.1,1.1-0.4,2.3c-0.4,1.1-0.8,2.2-0.8,2.2s-0.5,1.1-1.1,2.1
															c-0.6,1.1-1.4,1.9-1.5,1.9c-0.1,0,0.6-1.1,1.1-2.1c0.5-1.1,1-2.1,1-2.1s0.5-1.1,0.9-2.1
															C65.3,124.7,65.7,123.6,65.8,123.6z"/>
													</g>
													<g>
														<path class="st9" d="M60.6,112.6c-0.1,0-0.4-0.9-0.9-1.8c-0.4-0.9-1-1.7-1-1.7s-0.4-0.9-1.1-1.7
															c-0.6-0.8-1.2-1.5-1.2-1.6c0.1-0.1,0.9,0.6,1.5,1.3c0.7,0.8,1.2,1.6,1.2,1.6s0.5,0.9,0.9,1.8
															C60.5,111.7,60.7,112.6,60.6,112.6z"/>
													</g>
													<g>
														<path class="st9" d="M30.8,158.4c0-0.1,1.4-0.4,2.8-0.5c0.7-0.1,1.5,0,2,0.1c0.5,0.1,0.9,0.2,0.9,0.2s0.4,0.1,0.9,0.4
															c0.5,0.2,1.1,0.6,1.7,1.1c0.5,0.4,1,1.1,1.2,1.5c0.3,0.4,0.3,0.8,0.3,0.8s-0.2-0.3-0.4-0.7c-0.3-0.4-0.7-1-1.2-1.3
															c-0.5-0.4-1.1-0.7-1.7-0.9c-0.4-0.2-0.8-0.3-0.8-0.3s-0.4-0.1-0.9-0.2c-0.5-0.1-1.2-0.2-1.9-0.2
															C32.3,158.2,30.9,158.5,30.8,158.4z"/>
													</g>
													<g>
														<path class="st9" d="M35.5,154.9c0-0.1,1,0.4,1.8,1.1c0.8,0.6,1.5,1.4,1.5,1.4s0.6,0.8,1.1,1.8
															c0.4,0.9,0.8,1.8,0.7,1.8c-0.1,0-0.5-0.9-1.1-1.7c-0.5-0.8-1.2-1.6-1.2-1.6s-0.6-0.8-1.3-1.5
															C36.3,155.6,35.5,155,35.5,154.9z"/>
													</g>
												</g>
											</g>
											<path class="st7" d="M66,189.7c0.1,3.4-1.5,7.8-10.9,5.2c-14.6-3.9-24.1-30.9-19.2-31.9c2.2-0.4,4.8,1,7.1,2.6l0,0
												c-0.1-0.2-0.2-0.4-0.3-0.4c-0.1-0.2-0.3-0.4-0.4-0.5c-0.1-0.2-0.2-0.4-0.3-0.4c-0.1-0.2-0.2-0.4-0.3-0.5
												c-0.1-0.2-0.2-0.3-0.2-0.4c-0.2-0.3-0.3-0.6-0.4-0.9c0-0.1,0-0.2-0.1-0.2c-0.1-0.2-0.2-0.4-0.2-0.6c0-0.1,0-0.2-0.1-0.3
												c0-0.2-0.1-0.4-0.1-0.5c0-0.1,0-0.2,0-0.3c0-0.3,0-0.4,0.1-0.6c1.6-7.1,20.3-22.8,20.3-22.8s0.6-1.8,1.1-4.7
												c-0.2-1.1-0.3-2.2-0.2-2.5c0.3-1,0.5-2.3,0.7-3.9c0-2.9-0.4-6.1-1.3-9.4c0.1,1.9,0.4,6.5-1.4,11.1
												c-2.4,6.3-22,28.5-25.7,23.9c-3.7-4.5,11-31.2,11.3-31.6c0,0-0.1,0-0.4,0.1c-0.3,0.4-0.6,0.9-0.9,1.2c0,0,0,0.1-0.1,0.1
												c-0.3,0.4-0.5,0.8-0.8,1.1c-0.1,0.1-0.1,0.2-0.2,0.3c-0.3,0.4-0.4,0.7-0.7,1.1c-0.1,0.1-0.1,0.2-0.2,0.3
												c-0.3,0.4-0.5,0.8-0.8,1.2c0,0,0,0.1-0.1,0.1c-0.3,0.4-0.6,0.9-0.9,1.3c0,0.1-0.1,0.2-0.1,0.2c-0.3,0.4-0.5,0.7-0.7,1.1
												c-0.1,0.1-0.2,0.3-0.3,0.4c-0.2,0.4-0.4,0.7-0.6,1c-0.1,0.1-0.2,0.3-0.3,0.4c-0.3,0.4-0.5,0.8-0.8,1.2l-0.1,0.1
												c-0.3,0.4-0.6,0.9-0.9,1.4c-0.1,0.1-0.1,0.2-0.2,0.3c-0.3,0.4-0.4,0.7-0.7,1.1c-0.1,0.2-0.2,0.3-0.3,0.4
												c-0.2,0.4-0.4,0.6-0.6,1c-0.1,0.2-0.2,0.3-0.3,0.4c-0.3,0.4-0.5,0.8-0.8,1.2l-0.1,0.1c-0.3,0.4-0.5,0.9-0.8,1.4
												c-0.1,0.1-0.2,0.3-0.2,0.4c-0.2,0.4-0.4,0.7-0.6,1c-0.1,0.2-0.2,0.3-0.3,0.4c-0.2,0.4-0.4,0.6-0.5,1
												c-0.1,0.2-0.2,0.3-0.3,0.4c-0.3,0.4-0.4,0.8-0.7,1.2c0,0.1-0.1,0.1-0.1,0.2c-0.3,0.4-0.5,0.9-0.7,1.3
												c-0.1,0.1-0.1,0.3-0.2,0.4c-0.2,0.4-0.4,0.6-0.5,1c-0.1,0.2-0.2,0.3-0.3,0.4c-0.2,0.3-0.4,0.6-0.4,0.9
												c-0.1,0.2-0.2,0.3-0.2,0.4c-0.2,0.4-0.4,0.8-0.6,1.1c0,0,0,0.1-0.1,0.1c-0.2,0.4-0.4,0.8-0.6,1.2
												c-0.1,0.1-0.1,0.3-0.2,0.4c-0.2,0.3-0.3,0.6-0.4,0.9c-0.1,0.2-0.1,0.3-0.2,0.4c-0.1,0.3-0.3,0.5-0.4,0.8
												c-0.1,0.1-0.1,0.3-0.2,0.4c-0.2,0.4-0.3,0.7-0.4,1.1v0.1c-0.2,0.4-0.3,0.8-0.4,1.1c0,0.1-0.1,0.3-0.1,0.4
												c-0.1,0.3-0.2,0.5-0.3,0.8c0,0.1-0.1,0.3-0.1,0.4c-0.1,0.3-0.2,0.5-0.3,0.7c0,0.1-0.1,0.2-0.1,0.4
												c-0.1,0.4-0.2,0.6-0.3,1l0,0c-0.1,0.4-0.2,0.6-0.3,1c0,0.1,0,0.2-0.1,0.3c-0.1,0.2-0.1,0.4-0.1,0.6c0,0.1,0,0.2-0.1,0.3
												c0,0.2-0.1,0.4-0.1,0.6c0,0.1,0,0.2,0,0.3c0,0.3,0,0.5-0.1,0.8c0,0.9,0.1,1.8,0.3,2.7c0.8,4.3,3.4,9,7,13.8
												c0.8,1.1,1.7,2.1,2.5,3.2c1.3,1.6,2.7,3.1,4.2,4.6c1,1,2,2,3,3c2,1.9,4.1,3.8,6.2,5.4c5.2,4.2,10.3,7.5,14,9.1
												c0,0,1.4-1.4,3.1-3.3c0.3-0.4,0.6-0.7,1-1.1c0.3-0.4,0.5-0.7,0.8-1.1c0.3-0.4,0.5-0.8,0.9-1.1c0.3-0.4,0.6-0.9,0.9-1.2
												c0.9-1.3,1.6-2.6,2-3.9C68.9,192.3,67.8,191.3,66,189.7z"/>
											<path class="st10" d="M59.7,187c-0.9-0.7-1.8-1.5-2.5-2.2c-3.4-3.2-6.3-6.7-6.3-6.7s-0.8-0.9-1.8-2.2
												c-1.1-1.3-2.5-3.2-3.9-5c-0.7-1-1.3-1.8-1.9-2.7s-1.3-1.7-2-2.3c-0.7-0.6-1.4-0.9-1.9-1.1c-0.5-0.1-0.9-0.1-0.9,0
												c0,0.1,0.3,0.1,0.8,0.3c0.4,0.2,1.1,0.5,1.8,1.1c1.2,1.1,2.3,3.2,3.6,5.2c1.3,1.9,2.6,3.8,3.7,5.2
												c1.1,1.4,1.8,2.3,1.8,2.3s3.1,3.5,6.7,6.6c0.9,0.8,1.8,1.5,2.7,2.1c0.9,0.7,1.8,1.2,2.4,1.8c0.6,0.6,1,1.2,1,1.7
												c0.1,0.4-0.1,0.7,0,0.8c0,0,0.2-0.3,0.3-0.8c0-0.5-0.3-1.2-0.9-1.9C61.4,188.3,60.6,187.7,59.7,187z"/>
											<path class="st9" d="M59.3,118c0,0,0.4,1.9,0.6,3.9c0.2,2,0.1,4,0.3,4c0.2,0,0.5-2,0.5-4.1s-0.4-4.1-0.4-4.1
												s-0.4-2-1.2-3.9c-0.8-1.9-1.8-3.8-1.9-3.7c-0.2,0.1,0.7,1.9,1.2,3.9C59,116,59.3,118,59.3,118z"/>
										</g>
										<g>
											<path class="st23" d="M100.3,195.4c1.1-1.2,2.7-1.7,4.6-1.8c-0.2-0.4-0.3-0.7-0.2-1.1c0.4-2.5,4.5-4.4,4.5-1.9
												c0,1.3,0.5,2.8,1.1,3.9c2.3,0.7,4,1.6,4,1.6s7.3,3.9,4,9.2c-3.2,5.3-9.8,1.3-10.7,1.5c-0.9,0.3,0.3,3.1,0.3,4.4
												s-4,2-6.7-2.1c-2.7-4.1-1.6-6.6-1.6-6.6s-1.8,2.5-2.9,1.5C95.4,203,96.5,199.7,100.3,195.4z"/>
											<path class="st24" d="M103.2,206.6c0.2,1.1,0.4,2.1,0.4,2.1s0.3,1.1,0.8,2c0.3,0.4,0.6,0.9,1,1.1
												c0.4,0.2,0.6,0.2,0.6,0.3c0,0-0.3,0.1-0.7-0.1c-0.4-0.1-0.9-0.5-1.2-1.1c-0.6-1-1-2.1-1-2.1s-0.3-1.1-0.4-2.3
												c-0.1-1.1,0.1-2.3,0.2-2.3C103,204.4,103.1,205.5,103.2,206.6z M99.3,203.6c0.1,0,0.3-1,0.7-1.9c0.4-1,0.9-1.8,0.9-1.8
												s0.4-0.9,1-1.8c0.3-0.4,0.6-0.8,0.9-1c0.3-0.3,0.5-0.4,0.5-0.4s-0.3,0-0.6,0.2s-0.8,0.5-1.1,1c-0.7,0.8-1.1,1.8-1.1,1.8
												s-0.4,1-0.7,1.9C99.3,202.6,99.3,203.6,99.3,203.6z M102,200.5c-0.1,0-0.5,1-1,2c-0.4,1.1-0.6,2.1-0.6,2.1
												s-0.2,1.1,0,2.3c0.1,1.1,0.6,2.1,0.7,2.1c0.1,0-0.4-1.1-0.4-2.1c-0.1-1.1,0.2-2.1,0.2-2.1s0.2-1.1,0.4-2.1
												C101.7,201.5,102.1,200.5,102,200.5z M103.6,193.9c0,0,0.2-0.1,0.4-0.1c0.3-0.1,0.6,0,1,0c0.4,0.1,0.7,0.2,1,0.3
												s0.4,0.1,0.4,0.1s3,0.5,3,0.4s-2.9-0.9-2.9-0.9s-0.2,0-0.4-0.1s-0.6-0.1-1.1-0.2c-0.4,0-0.8,0-1.1,0.2
												C103.7,193.7,103.6,193.9,103.6,193.9z"/>
											<g>
												<path class="st25" d="M97.1,201.4c0.5,1.2,4.8-3.5,5-3.8c0.2-0.3-3.1,4.9-2.5,5.6c0.6,0.7,2.4-2.9,2.4-2.9
													s-1.2,5.9-0.3,6c0.9,0.2,1.8-5.3,1.8-5.3c-0.1,1.1-0.2,8.4,1.5,8.2s0.9-5,0.9-5s1.8,1.4,6.4-0.4
													c3.5-1.5,1.8-6.1,0.9-8.2c0.7,0.3,1.1,0.4,1.1,0.4s1.6,0.9,3,2.3c0.7,1.3,1.4,2.9,1.9,4.6c-0.1,0.7-0.3,1.5-0.8,2.4
													c-3.2,5.3-9.8,1.3-10.7,1.5c-0.9,0.3,0.3,3.1,0.3,4.4s-4,2-6.7-2.1c-2.7-4.1-1.6-6.6-1.6-6.6s-1.8,2.5-2.9,1.5
													c-0.7-0.6-0.5-2.2,0.7-4.4C97,200.5,96.9,201.1,97.1,201.4z"/>
												<path class="st25" d="M107.2,189.7c-0.1,0.2-0.2,0.4-0.3,0.6c-1.3,3.2,1.7,4.1,2.5,4.3c-0.6-0.1-2.2-0.4-3.5-0.5
													c-0.8,0-2.4,0-3.8,0.1c0.8-0.3,1.7-0.4,2.5-0.4c-0.2-0.4-0.3-0.7-0.2-1.1C104.9,191.3,106.1,190,107.2,189.7z"/>
												<path class="st26" d="M109.5,194.5c0.2,0,0.3,0.1,0.3,0.1S109.7,194.6,109.5,194.5z"/>
											</g>
										</g>
										<path class="st9" d="M100.8,125.8l15.2-0.6c0,0-1.1,16.9-8.2,15.5C100.8,139.2,100.8,125.8,100.8,125.8z"/>
										<g>
											<g>
												<g>
													<path class="st27" d="M81,93.9l0.4,8.5c0,0,5.6,6.4,16,1.1l-0.4-9.6C97.2,93.9,85,88.9,81,93.9z"/>
													<path class="st25" d="M97.4,100.4c-9.3,9.1-16.7-6.9-12.3-3.9c3.8,2.5,10.1,0,12-0.9v-0.4l-0.1-1.1
														c-0.1-0.2-0.2-0.4-0.4-0.4c-0.6-0.3-1.8-0.7-3.5-1.1c-1.8-0.3-3.9-0.5-5.7-1c-0.6,0-1.3,0-1.8,0.1c0,0,0,0-0.1,0
														c-0.3,0-0.5,0.1-0.9,0.1c0,0,0,0-0.1,0c-0.3,0.1-0.5,0.1-0.8,0.2h-0.1c-0.3,0.1-0.4,0.2-0.6,0.3c-0.1,0-0.1,0-0.2,0.1
														c-0.3,0.1-0.4,0.3-0.7,0.4c0,0-0.1,0-0.1,0.1c-0.2,0.1-0.4,0.3-0.5,0.4c-0.1,0-0.1,0.1-0.2,0.1
														c-0.2,0.2-0.4,0.4-0.5,0.5l0,0l0.4,8.5c0,0,5.6,6.4,16,1.1L97.4,100.4z"/>
												</g>
												<g>
													<g>
														<g>
															<g>
																<g>
																	<path class="st23" d="M115.8,57.1c0,0,2.5-3.6,5.9-1.3c4,2.6,2,16.5-3.4,16.3C112.8,71.9,114.9,56.8,115.8,57.1z"
																		/>
																	<path class="st25" d="M115.8,57.1c0,0,2.5-3.6,5.9-1.3c4,2.6,2,16.5-3.4,16.3C112.8,71.9,114.9,56.8,115.8,57.1z"
																		/>
																	<g>
																		<g>
																			<path class="st24" d="M120.8,67.9c0-0.1-0.4,0-0.9-0.1c-0.3-0.1-0.4-0.3-0.6-0.4c-0.1-0.3-0.2-0.6,0-0.9
																				c0.1-0.3,0.3-0.6,0.5-0.8c0.2-0.2,0.4-0.3,0.9-0.6c0.4-0.4,0.6-1.1,0.5-1.4c-0.1-0.4-0.2-0.5-0.2-0.5
																				s-0.1-0.2-0.3-0.4c-0.1-0.2-0.3-0.3-0.5-0.4c-0.1-0.1-0.3-0.1-0.4-0.2c0,0,0,0-0.1,0l0,0c0,0,0-0.2,0-0.3
																				c0-0.1,0-0.3,0.1-0.4c0.1-0.5,0.3-1.1,0.5-1.5c0.5-1,1.3-1.3,1.3-1.4c0-0.2-1-0.1-1.8,0.9
																				c-0.4,0.4-0.8,1.1-1,1.7c-0.1,0.2-0.1,0.4-0.1,0.4c0,0.2-0.1,0.3-0.1,0.5c0,0.4,0,0.9,0,1.2c0.3,0,0.6,0,0.8,0.1
																				c0.1,0,0.2,0.1,0.2,0.1c0.1,0.1,0.2,0.2,0.3,0.3c0.1,0.2,0.1,0.2,0.1,0.2c0,0.1,0.1,0,0,0.1
																				c-0.1,0.2-0.4,0.4-0.8,0.7c-0.4,0.4-0.6,0.9-0.7,1.5c-0.1,0.6,0,1.2,0.4,1.6c0.3,0.4,0.7,0.5,1.1,0.5
																				C120.5,68.3,120.8,67.9,120.8,67.9z"/>
																		</g>
																	</g>
																	<path class="st28" d="M118.3,72.1c-5.4-0.2-3.4-15.3-2.5-15c0,0,1.2-1.8,3.1-2c-0.9,2.2,0.4,5.6,0.4,5.6
																		s1.4-2.3,2.2-1.5c0.8,0.8-0.4,4.4,1.2,4.7c0.5,0.1,0.9-0.3,1.1-0.9C123.5,67.4,121.4,72.1,118.3,72.1z"/>
																</g>
																<g class="st8">
																	<g>
																		<path class="st23" d="M123.4,58.8c0.3,0.8,0.1,1.6-0.3,1.8c-0.4,0.2-0.8-0.3-1.1-1.1c-0.3-0.8-0.1-1.6,0.3-1.8
																			C122.6,57.6,123.1,58,123.4,58.8z"/>
																		<path class="st23" d="M122,56.5c0.1,0.3,0,0.5-0.3,0.7c-0.3,0.2-0.5,0.1-0.6-0.2c-0.1-0.3,0-0.5,0.3-0.7
																			S121.9,56.3,122,56.5z"/>
																	</g>
																</g>
															</g>
															<path class="st27" d="M54.9,57.5c-0.4-12.4,4.6-32.4,30.8-32.6c26.2-0.2,30.2,28.6,30.2,28.6s2.7,10.6,2.5,18.7
																c-0.4,8.1-4.6,20.1-23.3,22s-33.2-6-36.6-17.5c0,0-6.9-0.1-8.9-7.7C48.2,63.5,51.1,58.1,54.9,57.5z"/>
															<g>
																<g>
																	<path class="st29" d="M54.9,57.5c-0.1-3.7,0.3-8.1,1.5-12.4c1-3.2,2.4-6.3,4.2-8.9c-3.8,6.3-4.4,15.8-4.2,21.6
																		c-0.4,0.1-1.1-0.2-1.7-0.2C54.9,57.5,54.9,57.5,54.9,57.5z"/>
																	<path class="st29" d="M51.5,59.6c-1.1,2.1-1.4,4.7-0.8,7.5c1.8,7.6,8.9,7.7,8.9,7.7c3.3,11.6,17.8,19.4,36.6,17.5
																		c9.9-1.1,15.7-4.8,19.1-9.4c-3.1,5.3-9.1,10.1-20.3,11.2c-18.8,1.9-33.2-6-36.6-17.5c0,0-6.9-0.1-8.9-7.7
																		C48.7,65.3,49.7,61.8,51.5,59.6z"/>
																</g>
															</g>
															<g>
																<path class="st30" d="M104.6,64.1c-0.1,2.5,1.1,4.5,2.5,4.5s2.5-2,2.6-4.5s-1.1-4.5-2.5-4.5
																	C105.8,59.5,104.7,61.5,104.6,64.1z"/>
																<path class="st31" d="M106,60c-0.2,0.6-0.3,1.2-0.3,1.9c-0.1,2.5,1.1,4.5,2.5,4.5c0.4,0,0.8-0.2,1.1-0.5
																	c-0.4,1.5-1.3,2.5-2.3,2.5c-1.4,0-2.5-2-2.5-4.5C104.6,62.3,105.2,60.8,106,60z"/>
																<g>
																	<path class="st30" d="M109.2,63.3c0.1,0.9-0.3,1.6-0.7,1.6s-0.9-0.6-0.9-1.5c-0.1-0.9,0.3-1.6,0.7-1.6
																		C108.7,61.8,109.1,62.4,109.2,63.3z"/>
																	<path class="st30" d="M107.4,61c0,0.2,0.2,0.4,0.4,0.4c0.2,0,0.4-0.2,0.4-0.4c0-0.2-0.2-0.4-0.4-0.4
																		S107.4,60.8,107.4,61z"/>
																</g>
															</g>
															<g>
																<path class="st30" d="M75.1,66.2c0.3,2.5,1.6,4.3,3,4.2c1.4-0.2,2.3-2.3,2-4.7c-0.3-2.5-1.6-4.3-3-4.2
																	C75.7,61.5,74.8,63.7,75.1,66.2z"/>
																<path class="st31" d="M75.9,62.1c-0.1,0.5-0.1,1.1,0,1.7c0.3,2.5,1.6,4.3,3,4.2c0.4-0.1,0.9-0.4,1.1-0.8
																	c-0.2,1.8-1,3-2,3.2c-1.4,0.2-2.7-1.7-3-4.2C74.9,64.5,75.2,63,75.9,62.1z"/>
																<g>
																	<path class="st30" d="M79.3,64.8c0.2,0.9-0.1,1.6-0.4,1.7c-0.4,0.1-0.9-0.5-1.1-1.3c-0.2-0.9,0.1-1.6,0.4-1.7
																		C78.6,63.3,79.1,63.9,79.3,64.8z"/>
																	
																		<ellipse transform="matrix(0.9928 -0.1199 0.1199 0.9928 -6.9539 9.7577)" class="st30" cx="77.6" cy="62.7" rx="0.4" ry="0.4"/>
																</g>
															</g>
															<g>
																<g>
																	<g>
																		<g>
																			<path class="st24" d="M53.6,71.7c-0.1,0,0,0.9,0.8,1.5c0.2,0.2,0.4,0.3,0.8,0.3c0.4,0,0.7-0.2,1-0.4
																				c0.3-0.3,0.5-0.7,0.5-1.1c0.1-0.4-0.1-1.1-0.4-1.4c-0.4-0.3-0.6-0.4-0.8-0.5c-0.2-0.1-0.3-0.3-0.4-0.4
																				c-0.2-0.4-0.2-0.9-0.1-1.1c0.2-0.5,0.6-0.6,0.6-0.6s0.1,0,0.3-0.1c0.1,0,0.2,0,0.3,0c0.1,0,0.1,0,0.2,0.1
																				c0,0,0,0,0.1,0.1c0.1,0.1,0.2,0.2,0.2,0.3c0.3,0.4,0.5,0.5,0.8,0.5c0.2,0,0.4-0.1,0.5-0.3
																				c0.1-0.2,0.2-0.3,0.3-0.5c0.1-0.4,0.2-1.2,0.2-1.6c0-0.4,0-0.7-0.1-1.1c-0.1-0.7-0.3-1.5-0.6-2.1
																				c-0.3-0.6-0.7-1.1-1.1-1.3c-0.8-0.6-1.5-0.4-1.5-0.3c0,0.1,0.5,0.2,1.1,0.8c0.6,0.6,1.1,1.8,1.1,3.1
																				c0,0.4,0,0.6,0,1c0,0.4,0,0.3-0.1,0.4c0,0.1-0.2,0-0.1-0.1l0,0l-0.4-0.1c-0.1-0.1-0.3-0.2-0.4-0.2
																				c-0.3-0.1-0.4-0.1-0.6-0.1c-0.4,0-0.5,0.1-0.5,0.1s-0.2,0.1-0.5,0.3c-0.4,0.2-0.8,0.8-0.9,1.5
																				c-0.2,0.7-0.1,1.6,0.4,2.3c0.2,0.4,0.4,0.6,0.8,0.8s0.5,0.3,0.7,0.4c0.1,0.1,0.2,0.2,0.2,0.4
																				c0,0.2-0.1,0.4-0.3,0.6c-0.3,0.4-0.7,0.4-1,0.3C53.9,72.3,53.7,71.6,53.6,71.7z"/>
																		</g>
																	</g>
																	<g class="st32">
																		<path class="st33" d="M52.4,61.8c-0.5,0.5-1.1,0.7-1.4,0.4c-0.3-0.4,0-1.1,0.5-1.7c0.5-0.5,1.1-0.7,1.4-0.4
																			C53.2,60.6,53,61.3,52.4,61.8z"/>
																		<path class="st33" d="M54.5,59.2c0.1,0.3,0,0.5-0.3,0.7c-0.3,0.2-0.5,0.1-0.6-0.2c-0.1-0.3,0-0.5,0.3-0.7
																			C54.1,58.8,54.4,58.9,54.5,59.2z"/>
																	</g>
																</g>
															</g>
														</g>
														<g>
															<path class="st34" d="M87,77.1c0,0,8,6,14.3-0.7c0,0,0.5,8.2-5.6,8.9C89.5,86.2,86.4,80.5,87,77.1z"/>
															<path class="st34" d="M87,77.1c0,0,8,6,14.3-0.7c0,0,0.5,8.2-5.6,8.9C89.5,86.2,86.4,80.5,87,77.1z"/>
														</g>
														<path class="st35" d="M97.7,84.8c-1.6-2.4-8-3.4-10-3.8c1.2,2.6,3.9,4.9,8,4.4C96.5,85.3,97.1,85.1,97.7,84.8z"/>
														<g>
															<path class="st24" d="M95.9,86.4c0.2,0,0.2,0.6,0,1.3c-0.1,0.6-0.4,1.2-0.4,1.2s-0.4,0.5-1.1,0.8
																c-0.6,0.3-1.3,0.2-1.3,0c0-0.2,0.5-0.3,1-0.7c0.4-0.4,0.6-0.8,0.6-0.8s0.4-0.4,0.6-0.9C95.5,87,95.8,86.4,95.9,86.4z
																"/>
														</g>
														<path class="st0" d="M87,77.1c-0.1,0.7-0.1,1.4,0.1,2.2c2.1,2.2,5.1,4.1,8.9,2.9c2.1-0.6,3.1-3.9,3.1-3.9l0,0
															C93.2,81.8,87,77.1,87,77.1z"/>
														<g>
															<path class="st24" d="M87.5,76c0.1,0,0.1,0.4,0.1,0.8c0,0.4-0.3,0.8-0.3,0.8s-0.3,0.4-0.7,0.4
																c-0.4,0.1-0.8-0.2-0.8-0.3c0-0.1,0.4,0,0.6-0.2c0.3-0.2,0.4-0.4,0.4-0.4s0.2-0.2,0.4-0.5C87.3,76.3,87.4,76,87.5,76z
																"/>
														</g>
														<g>
															<path class="st24" d="M102.6,76.9c0.1,0.1-0.4,0.4-0.8,0.2c-0.4-0.1-0.8-0.4-0.8-0.4s-0.3-0.4-0.4-0.8
																c-0.1-0.4,0-0.8,0-0.8c0.1,0,0.2,0.4,0.4,0.7c0.2,0.4,0.4,0.5,0.4,0.5s0.2,0.3,0.4,0.4
																C102.2,76.9,102.6,76.9,102.6,76.9z"/>
														</g>
														<path class="st36" d="M87,77.1c-0.1,0.7-0.1,1.4,0.1,2.2c0.6,0.7,1.3,1.3,2.2,1.8c-1.2-1.2-1.5-2.4,0.4-1.4
															c3,1.5,7.6,0,9-0.6c0.2-0.5,0.4-0.9,0.4-0.9l0,0C93.2,81.8,87,77.1,87,77.1z"/>
														<g>
															<path class="st24" d="M101.4,76.4c0.1,0-0.2,0.4-0.7,1.1c-0.5,0.5-1.3,1.1-2.3,1.6c-0.9,0.4-1.9,0.7-2.6,0.8
																c-0.7,0.1-1.2,0.2-1.2,0.2s-0.5,0-1.2,0c-0.8-0.1-1.8-0.2-2.7-0.5c-1.9-0.6-3.5-1.8-3.3-2c0.1-0.1,1.8,0.9,3.6,1.2
																c0.9,0.2,1.8,0.3,2.5,0.3s1.1-0.1,1.1-0.1s0.4,0,1.1-0.1c0.7-0.1,1.6-0.2,2.5-0.5c0.9-0.3,1.7-0.8,2.3-1.1
																C101,76.7,101.4,76.3,101.4,76.4z"/>
														</g>
														<path class="st37" d="M96.5,83.6c-0.3,0.6-1.1,1.4-3.7,0.8c-2.7-0.7-3.5-2.3-3.7-3.2c-0.6-0.1-1.1-0.2-1.4-0.3
															c1.2,2.6,3.9,4.9,8,4.4c0.8-0.1,1.5-0.4,2-0.6C97.4,84.3,97,84,96.5,83.6z"/>
														<g>
															<path class="st29" d="M90.1,72.7c0,0,3.4,0.9,7.8-2.5c0,0,2.3,1.3-1.7,3C91.1,75.4,90.1,72.7,90.1,72.7z"/>
															<g>
																<path class="st24" d="M92.3,73.7c0-0.1,0.7,0.1,1.7,0c1-0.1,2.2-0.6,3.3-1.2c0.5-0.4,1-0.8,1.1-1.2
																	c0.1-0.4-0.2-0.8-0.5-1c-0.4-0.3-0.7-0.4-1-0.4c-0.3-0.1-0.4-0.1-0.4-0.1s-0.4-0.1-1,0c-0.3,0-0.7,0.1-1.1,0.2
																	c-0.2,0.1-0.4,0.2-0.7,0.3c-0.4,0.2-1,0.6-1.4,1c0-0.5,0-1.2-0.1-1.8c0-0.4,0-0.7,0-1.1c0-0.8,0-1.5,0-2.2
																	c0-1.4,0.1-2.5,0.2-2.5c0.1,0,0.3,1.1,0.4,2.5c0.1,0.7,0.2,1.5,0.2,2.3c0,0.4,0.1,0.8,0.1,1.1c0,0.1,0,0.2,0.1,0.2
																	c0.1-0.1,0.1-0.1,0.2-0.1c0.3-0.2,0.5-0.3,0.8-0.4c0.5-0.2,1-0.3,1.3-0.4c0.7-0.1,1.1,0,1.1,0s0.2,0,0.5,0.1
																	c0.4,0.1,0.8,0.3,1.3,0.6c0.3,0.2,0.5,0.4,0.7,0.8c0.2,0.4,0.3,0.8,0.1,1.2c-0.3,0.9-1,1.3-1.6,1.7
																	c-1.3,0.6-2.6,1-3.7,1.1C93,74.2,92.3,73.8,92.3,73.7z"/>
															</g>
															
																<ellipse transform="matrix(0.9136 -0.4066 0.4066 0.9136 -20.633 44.6967)" class="st38" cx="94.9" cy="70.9" rx="1.1" ry="0.5"/>
														</g>
														<path class="st39" d="M84.5,72.6c0.1,2.5-3,4.6-6.8,4.8c-3.9,0.2-7.1-1.7-7.3-4.1c-0.1-2.5,3-4.6,6.8-4.8
															C81.1,68.2,84.4,70.1,84.5,72.6z M109.2,65.3c-3.8,0.9-6.3,3.5-5.8,6c0.5,2.5,4,3.7,7.8,2.8c3.8-0.9,6.3-3.5,5.8-6
															C116.4,65.7,112.9,64.4,109.2,65.3z"/>
													</g>
													<path class="st29" d="M66.9,39.1c20.9,16.1,45.1,4.6,45.1,4.6c1.1,1.5,2.4,4.6,3.3,7.6c-1.5-6.5-7.8-26.7-29.8-26.6
														c-26,0.2-31.2,20.2-30.8,32.6c-0.7,0.1-1.3,0.4-1.9,0.8c1,0.9,1.7,1.3,1.7,1.3c4.2,1.8,3.6,9.4,6,7.5
														c2.5-1.9,0.8-9.6,0.8-9.6C66.1,53.3,66.9,39.1,66.9,39.1z"/>
													<path class="st40" d="M53.9,57.5c0,0-6.4-3.9-6.2-13c0.3-10.9,6.7-15.7,15.9-15.4c0,0,9.3-14.1,23-13.8
														c13.7,0.4,17.5,11.7,22.9,11c5.3-0.8,7-2.5,7-2.5s0.3,5.8-2.5,7.6c0,0,4-1.1,5.9-2.5c0,0,0.5,6.8-2.7,11.5
														c0,0,3.2,6.3,1.6,10.7c-1.6,4.4-1.8,6.3-1.8,6.3s-3-12-5.6-15.6c0,0-24.2,11.5-45.1-4.6c0,0-0.8,14.2-5.3,18.3
														c0,0,1.6,7.6-0.8,9.6C57.5,66.9,58,59.4,53.9,57.5z"/>
													<g>
														<g>
															<path class="st40" d="M76.6,52.8c-0.1,0.2-0.9,0.1-1.5,0.2c-0.7,0.1-1.2,0.4-1.2,0.4s-0.6,0.1-1.1,0.5
																c-0.6,0.4-1.1,1-1.2,0.9c-0.3-0.1-0.2-1,0.4-1.8c0.3-0.4,0.6-0.7,0.9-0.9c0.3-0.2,0.5-0.4,0.5-0.4s0.3-0.1,0.6-0.1
																c0.4-0.1,0.8,0,1.2,0.1C76,52,76.6,52.6,76.6,52.8z"/>
														</g>
													</g>
													<g>
														<g>
															<path class="st40" d="M108.3,50.4c-0.2,0.2-0.9-0.2-1.5-0.4c-0.7-0.3-1.2-0.3-1.2-0.3s-0.1-0.1-0.4-0.1
																c-0.2,0-0.5,0-0.8,0c-0.3,0.1-0.6,0.2-0.8,0.4s-0.4,0.3-0.4,0.3c-0.1,0-0.2-0.3-0.1-0.6c0.1-0.4,0.4-0.8,0.8-1.1
																c0.4-0.3,0.9-0.4,1.2-0.5c0.4-0.1,0.6,0,0.6,0s0.3,0.1,0.5,0.2c0.4,0.2,0.7,0.4,1.1,0.7
																C108,49.5,108.5,50.2,108.3,50.4z"/>
														</g>
													</g>
													<path class="st41" d="M53.8,36.5c-0.1,0,0.4-1.1,1.1-2c0.7-1,1.6-1.7,1.6-1.7s1-0.7,2-1.1c0.5-0.2,1.1-0.4,1.6-0.3
														c0.4,0,0.7,0.1,0.7,0.2c0,0-0.3,0-0.7,0.1c-0.4,0.1-0.9,0.2-1.4,0.4c-1,0.4-1.8,1.1-1.8,1.1s-0.9,0.6-1.6,1.4
														C54.4,35.5,53.9,36.6,53.8,36.5z M56.8,38.7c0,0,0.3-0.5,0.7-1.3c0.4-0.7,1.1-1.7,1.9-2.5c0.8-0.8,1.8-1.6,2.5-1.9
														c0.8-0.4,1.4-0.4,1.4-0.4s-0.6-0.1-1.5,0.3c-0.9,0.4-1.8,1.1-2.7,1.9c-0.9,0.8-1.6,1.8-2.1,2.5
														c-0.5,0.8-0.8,1.3-0.8,1.3s-0.1,0.2-0.2,0.4c-0.1,0.3-0.3,0.6-0.4,1c-0.3,0.9-0.6,2-0.8,3.2c-0.2,1.2-0.2,2.4,0,3.2
														c0,0.4,0.1,0.8,0.2,1.1c0.1,0.3,0.1,0.4,0.1,0.4c0.1,0-0.1-0.6-0.1-1.5c-0.1-0.9,0-2,0.2-3.2c0.2-1.1,0.5-2.3,0.9-3.1
														c0.2-0.4,0.4-0.7,0.4-1C56.7,38.9,56.8,38.7,56.8,38.7z M62.4,37.3c-0.2,0.6-0.3,1.2-0.2,1.2c0.1,0,0.3-0.6,0.5-1.1
														c0.3-0.5,0.6-1.1,0.6-1.1s0.3-0.5,0.7-1c0.4-0.4,0.9-0.9,0.8-0.9c0-0.1-0.6,0.2-1.1,0.6c-0.5,0.4-0.9,1-0.9,1
														S62.6,36.6,62.4,37.3z M72.9,22.6c0,0,0.5-0.4,1.3-0.9c0.8-0.5,1.9-1.1,3.1-1.6c1.1-0.5,2.4-1,3.2-1.2s1.5-0.5,1.5-0.5
														s-0.6,0.1-1.6,0.4c-1,0.3-2.1,0.6-3.3,1.1s-2.4,1.1-3.2,1.5c-0.9,0.4-1.4,0.9-1.4,0.9s-0.5,0.4-1.3,1
														c-0.7,0.6-1.7,1.5-2.5,2.5c-0.8,1-1.5,2.1-1.8,3c-0.2,0.4-0.4,0.8-0.4,1.1c-0.1,0.3-0.1,0.4-0.1,0.4s0.3-0.6,0.7-1.4
														c0.4-0.9,1.1-1.9,1.9-2.8C70.7,23.9,72.9,22.6,72.9,22.6z M71.5,28.8c0.5-0.4,1.2-0.5,1.2-0.6s-0.7,0-1.3,0.3
														s-1.2,0.7-1.2,0.7s-0.5,0.4-1,1.1c-0.4,0.6-0.6,1.2-0.5,1.2c0.1,0,0.4-0.5,0.9-1.1s1-0.9,1-0.9S70.9,29.1,71.5,28.8z
														 M95.1,41.1c-1.3,0.2-3.1,0.4-4.9,0.4c-1.8,0-3.6-0.2-4.9-0.4c-0.7-0.1-1.2-0.3-1.6-0.3c-0.4-0.1-0.6-0.1-0.6-0.1
														s-0.2-0.1-0.6-0.2c-0.4-0.1-1-0.2-1.6-0.4c-1.3-0.4-3-1-4.6-1.7c-1.6-0.8-3.2-1.6-4.3-2.4c-1.1-0.7-1.8-1.2-1.8-1.2
														s0.2,0.2,0.4,0.4c0.4,0.3,0.7,0.6,1.3,1c1.1,0.8,2.6,1.8,4.3,2.5c1.7,0.8,3.3,1.4,4.6,1.8c0.6,0.2,1.2,0.4,1.6,0.4
														c0.4,0.1,0.6,0.2,0.6,0.2s0.3,0,0.6,0.1c0.4,0.1,1,0.2,1.6,0.3c1.3,0.2,3.2,0.4,4.9,0.4c1.8-0.1,3.6-0.3,4.9-0.5
														c0.7-0.1,1.2-0.3,1.6-0.4s0.6-0.2,0.6-0.2C97.2,40.8,96.4,40.9,95.1,41.1z M104.1,29c1.1,0.1,2.3,0.2,3.2,0.1
														s1.4-0.2,1.4-0.2s0.5-0.1,1.4-0.4c0.8-0.3,1.8-0.7,2.8-1.4c1-0.6,1.8-1.5,2.2-2.2c0.3-0.4,0.4-0.7,0.5-0.9
														c0.1-0.3,0.2-0.4,0.2-0.4s-0.3,0.4-0.8,1.1c-0.5,0.6-1.3,1.4-2.3,2c-1,0.6-1.9,1-2.7,1.2s-1.3,0.3-1.3,0.3
														s-0.5,0.1-1.4,0.2c-0.8,0.1-1.9,0.1-3.1,0c-1.1-0.1-2.2-0.3-3.1-0.4c-0.8-0.2-1.4-0.3-1.4-0.2c0,0,0.5,0.2,1.3,0.4
														C101.9,28.7,102.9,28.9,104.1,29z M107.9,34.1c1-0.2,1.6-0.4,1.6-0.4s0.6-0.2,1.5-0.7s1.9-1.5,2.6-2.5
														c0.7-1.1,1.2-2.4,1.6-3.2c0.4-1,0.5-1.6,0.5-1.6s-0.3,0.6-0.7,1.5c-0.4,0.9-1,2.1-1.8,3.2c-0.8,1.1-1.8,1.9-2.5,2.4
														c-0.9,0.4-1.5,0.6-1.5,0.6s-0.6,0.3-1.6,0.4c-1,0.3-2.3,0.4-3.5,0.5c-1.3,0.1-2.6,0.1-3.6,0.1c-1,0-1.7-0.1-1.7,0
														c0,0,0.6,0.2,1.7,0.3c1,0.1,2.3,0.2,3.6,0.1C105.6,34.4,106.9,34.3,107.9,34.1z M90.8,21.5c0.6,0.5,1.2,1.1,1.2,1.1
														s0.7,0.4,1.4,0.8c0.7,0.4,1.5,0.7,1.5,0.6s-0.6-0.5-1.3-1c-0.6-0.4-1.3-1-1.3-1s-0.7-0.4-1.3-0.9
														c-0.7-0.4-1.3-1-1.4-0.9C89.6,20.3,90.1,20.9,90.8,21.5z M113.7,36.6c0.7-0.5,1.7-1.3,2.5-2.2c0.8-0.9,1.6-1.8,2-2.6
														c0.4-0.8,0.6-1.3,0.6-1.3s-0.3,0.5-0.8,1.2c-0.5,0.7-1.2,1.7-2.1,2.5c-1.7,1.6-3.7,2.9-3.7,2.9s-1.9,1.3-4,2.5
														c-1.1,0.5-2.1,1.1-2.9,1.4c-0.8,0.4-1.4,0.5-1.3,0.6c0,0,0.6-0.1,1.4-0.4c0.9-0.3,1.9-0.7,3-1.2c2.2-1,4.1-2.4,4.1-2.4
														S113,37.1,113.7,36.6z M115.6,40.9c0.4-0.4,0.6-0.6,0.6-0.6s0.2-0.3,0.5-0.6c0.3-0.4,0.6-1,1-1.5
														c0.6-1.1,1.1-2.3,1.1-2.4c-0.1,0-0.7,1.1-1.4,2.1c-0.4,0.5-0.7,1.1-1.1,1.4c-0.3,0.4-0.5,0.6-0.5,0.6s-0.2,0.3-0.5,0.6
														c-0.4,0.4-0.8,0.8-1.3,1.1c-0.5,0.4-1.1,0.5-1.6,0.6c-0.4,0.1-0.8,0.1-0.8,0.1s0.4,0.2,0.8,0.1c0.5,0,1.1-0.2,1.8-0.4
														C114.7,41.7,115.2,41.3,115.6,40.9z M65.7,35.5c0-0.4-0.1-0.5-0.1-0.5c-0.1,0,0,0.8,0,1.8c0,1.1-0.1,2.6-0.3,4.1
														c-0.3,1.5-0.5,2.9-0.9,4c-0.2,0.5-0.3,1-0.4,1.3c-0.1,0.4-0.2,0.5-0.2,0.5s0,0.1-0.1,0.4c-0.1,0.3-0.3,0.8-0.4,1.2
														c-0.4,1.1-1.1,2.4-1.8,3.7c-0.8,1.3-1.6,2.5-2.3,3.4c-0.7,0.9-1.1,1.5-1.1,1.5s0.2-0.1,0.4-0.4
														c0.3-0.3,0.5-0.5,0.9-1.1c0.7-0.9,1.7-2.1,2.5-3.3c0.8-1.3,1.5-2.6,1.9-3.7c0.3-0.5,0.4-1,0.5-1.3
														c0.1-0.4,0.2-0.5,0.2-0.5s0.1-0.2,0.2-0.5c0.1-0.4,0.3-0.8,0.4-1.3c0.3-1.1,0.6-2.6,0.8-4.1s0.2-3,0.1-4.1
														C65.9,36.3,65.8,35.8,65.7,35.5z M51.1,50.4c0,0-0.6-1.3-0.9-2.7c-0.4-1.4-0.4-2.9-0.4-2.9s-0.2,1.5,0,3
														s0.8,2.9,0.8,2.9s0.6,1.4,1.5,2.6c0.9,1.2,2,2.2,2.1,2.1c0.1-0.1-1-1.1-1.8-2.4C51.7,51.7,51.1,50.4,51.1,50.4z
														 M58.9,58.6c0-0.1-0.5-0.5-0.9-1.1c-0.4-0.5-0.7-1.1-0.7-1.1s-0.4-0.6-0.6-1.2c-0.3-0.6-0.4-1.3-0.4-1.3
														c-0.1,0-0.2,0.7,0,1.5c0.2,0.7,0.4,1.4,0.4,1.4s0.4,0.6,0.9,1.1C58.2,58.4,58.8,58.7,58.9,58.6z M60.7,57.9
														c-0.3,1.1-0.8,2-0.8,2s-0.4,1-1.2,1.8c-0.8,0.8-1.8,1.3-1.8,1.3c0,0.1,1.1-0.3,2-1.1c0.9-0.8,1.5-1.8,1.5-1.8
														s0.5-1.1,0.7-2.2c0.2-1.1-0.2-2.3-0.2-2.3C60.8,55.8,61,56.9,60.7,57.9z M116.6,46.6c0,0,0.2-0.3,0.4-0.6
														c0.3-0.4,0.4-0.9,0.7-1.4c0.2-0.5,0.4-1,0.5-1.4c0.1-0.4,0-0.7,0-0.7s0,0.3-0.2,0.6c-0.2,0.4-0.4,0.9-0.7,1.3
														c-0.3,0.4-0.5,1-0.8,1.2c-0.3,0.4-0.4,0.5-0.4,0.5s-0.2,0.2-0.4,0.5c-0.3,0.3-0.7,0.6-1.1,0.8s-1,0.3-1.4,0.3
														c-0.4,0-0.6-0.1-0.7-0.1c0,0,0.2,0.2,0.6,0.3s1,0.1,1.6-0.1c0.5-0.2,1.1-0.5,1.3-0.8C116.4,46.8,116.6,46.6,116.6,46.6
														z M118.9,47.5c-0.1,0-0.4,0.6-0.8,1.2c-0.2,0.3-0.4,0.5-0.6,0.7c-0.2,0.2-0.4,0.3-0.4,0.3s-0.1,0.1-0.4,0.3
														c-0.2,0.2-0.5,0.3-0.9,0.4c-0.4,0.1-0.7,0.1-0.9,0c-0.1,0-0.2-0.1-0.2-0.1c0-0.1,0-0.1,0-0.1s-0.1,0-0.1,0.1
														c0,0.1,0.1,0.3,0.3,0.3c0.3,0.2,0.6,0.3,1.1,0.2c0.4,0,0.8-0.2,1.1-0.3c0.3-0.2,0.4-0.3,0.4-0.3s0.2-0.1,0.4-0.4
														c0.2-0.2,0.4-0.5,0.6-0.9C118.8,48.2,119,47.5,118.9,47.5z"/>
													<path class="st42" d="M73.8,22.4C73.8,22.4,73.8,22.4,73.8,22.4C73.8,22.4,73.8,22.4,73.8,22.4z M69.3,36.4
														c2.4-1.3,5.5,1.5,5.5,1.5s-6-5.3-2.6-8.2s7-4.2,7-4.2s-10.6,3.2-9.3,1.2c1.1-1.8,3.2-3.8,3.9-4.3
														c-1.1,1-8.4,7.5-7.4,3.4c0.1-0.2,0.1-0.4,0.2-0.6c-2,2.2-3.2,3.9-3.2,3.9c-5.6-0.2-10.2,1.6-13,5.4
														c1.4-0.9,3.4-2.1,3.9-1.8c0.9,0.6-2,5.7-2,5.7s3.3-3.7,4.1-2.9c0.7,0.7-1.8,7.9-1.8,7.9s3.8-6.4,5.1-5.7
														c1.3,0.7,0.3,5,0.3,5s2.4-5.1,4.6-3.9c0.5,0.3,0.9,0.9,1.1,1.8c0.3-2.1,0.4-3.6,0.4-3.6c2.7,2.1,5.4,3.7,8.2,4.9
														C71.4,40,67.9,37.3,69.3,36.4z M119.9,28.8c-1.8,1.4-5.9,2.5-5.9,2.5c2.7-1.9,2.5-7.6,2.5-7.6s-1.6,1.8-7,2.5
														c-2.4,0.4-4.5-1.7-7.2-4c1.2,1.7,2.4,3.6,1.6,4.4c-1.1,1.1-5,1-6.7,0.7c2.1,0.8,7.4,3.4,7.8,4.2c0.5,1-7.7,2.1-7.7,2.1
														s9.9,1,11,3.3c1.1,2.4-10.8,8.3-10.8,8.3s1.8-0.2,4.2-0.4c5.9-1.1,9.7-3,9.7-3c1.9,2.5,3.9,9.3,5,13
														c0.4,0.8,0.6,1.5,0.8,2c0.2-0.7,0.4-2,1.1-3.9c-0.4,0-0.6-0.2-0.8-0.4c-1.2-1.7-1.7-9.6-0.4-10.9
														c0.1-0.1,0.3-0.3,0.4-0.4c-0.2-0.4-0.4-0.8-0.4-0.8C120.4,35.7,119.9,28.8,119.9,28.8z M60.7,55.4c0,0,1.6,7.6-0.8,9.6
														c-2.5,1.9-1.8-5.5-6-7.5c0,0-5.9-3.6-6.2-11.7c0.4,2,1.1,4.8,2,5c1.4,0.3,0-4.8,0-4.8s4.5,6.7,6.9,6.7
														c2,0,6.7-4.7,8.2-6.4C64,49.8,62.7,53.6,60.7,55.4z"/>
													<g class="st8">
														<g>
															<g>
																<path class="st43" d="M51.3,35.1c-1.7,2-3.6,5.2-2.9,7.9c0.1,0.4,0.7,0.4,0.9,0.1c0.6-1,0.9-2.3,1.3-3.3
																	c0.5-1.3,1.1-2.5,1.9-3.7C53.1,35.3,51.9,34.4,51.3,35.1L51.3,35.1z"/>
															</g>
															<g>
																<path class="st43" d="M52.8,38.9c-1.2,0.8-2,2.1-2.3,3.5c-0.3,1.3-0.2,3.5,1.5,3.9c2.9,0.7,2.7-5.2,2.4-6.8
																	C54.3,38.8,53.3,38.6,52.8,38.9L52.8,38.9z"/>
															</g>
															<g>
																<path class="st43" d="M58.2,40c-1.1,0.4-1.7,2.2-1.9,3.2c-0.4,1.5-0.2,3,0.3,4.4c0.1,0.4,0.7,0.4,0.8,0
																	c0.4-1.3,0.7-2.6,0.9-3.9c0.2-1.1,0.6-2.5,0.4-3.5C58.6,40,58.4,39.9,58.2,40L58.2,40z"/>
															</g>
															<g>
																<path class="st43" d="M62.5,41.1c0,0-0.1,0.5-0.1,0.6c0,0.4-0.1,0.8-0.1,1.1c-0.1,0.7,0,1.2,0.2,1.9
																	c0.1,0.4,0.6,0.4,0.8,0.1c0.7-1.2,0.9-2.5,1.2-3.9c-0.2,0.2-0.4,0.4-0.5,0.6c0.1,0,0.1-0.1,0.2-0.1
																	c0.9-0.6,0.9-2.1-0.4-2.4C63.1,38.9,61.8,40.1,62.5,41.1L62.5,41.1z"/>
															</g>
															<g>
																<path class="st43" d="M73.1,26.8c2.3,0.1,4.2-1.2,6.3-1.9c2.5-0.8,4.7-0.9,7.3-0.9c1.1,0,1.5-1.2,0.8-1.9
																	c-3.8-4.2-13.2-2.3-15.8,2.5C71.3,25.6,72,26.8,73.1,26.8L73.1,26.8z"/>
															</g>
															<g>
																<path class="st43" d="M91.5,18.9c0.7,0.4,1.3,0.8,1.9,1.3c0.6,0.4,1.2,1,1.9,1.2c0.5,0.2,0.8-0.4,0.6-0.9
																	c-0.7-1.6-2.9-1.9-4.4-1.9C91.4,18.7,91.3,18.9,91.5,18.9L91.5,18.9z"/>
															</g>
															<g>
																<path class="st43" d="M72.4,38.7c4.1,4.1,11.5,6.1,17.2,6.2c0.4,0,0.5-0.6,0.1-0.7c-2.8-0.5-5.6-1-8.2-2
																	c-3-1.1-5.7-2.9-8.6-4.1C72.5,38,72.1,38.4,72.4,38.7L72.4,38.7z"/>
															</g>
															<g>
																<path class="st43" d="M73.1,33.9c5.1,6,19.6,7.6,26.2,3.9c0.6-0.4,0.5-1.4-0.2-1.5c-4.4-0.8-8.9-0.1-13.3-0.9
																	c-4-0.7-7.9-2.9-11.9-3.3C72.8,31.9,72.5,33.2,73.1,33.9L73.1,33.9z"/>
															</g>
															<g>
																<path class="st43" d="M103.4,37.6c0.4-0.1,0.7-0.2,1.1-0.2c0.4,0,0.7,0.1,1.1-0.2c0.3-0.2,0.4-0.6,0.1-0.9
																	c-0.6-0.6-1.9-0.1-2.5,0.3C102.4,36.9,102.8,37.8,103.4,37.6L103.4,37.6z"/>
															</g>
															<g>
																<path class="st43" d="M83.1,29.3c1.1,0.4,1.9,0.3,3,0.4c1.8,0.2,3.4,0.8,5.1,1.2c2.5,0.7,5.2,1.6,7.8,0.8
																	c0.7-0.2,1.1-1.1,0.7-1.8c-2-3.2-6-3.7-9.5-4.1c-2.5-0.3-7-1-7.8,2.3C82.3,28.7,82.6,29.1,83.1,29.3L83.1,29.3z"/>
															</g>
															<g>
																<path class="st43" d="M101.6,31.3c0.3,0.1,0.6,0.4,1,0.4c0.3,0,0.6-0.1,0.9-0.2c0.4-0.1,0.4-0.5,0.1-0.7
																	c-0.3-0.2-0.4-0.4-0.7-0.4c-0.3-0.1-0.6-0.1-0.9-0.1C101.4,30.2,101,31.1,101.6,31.3L101.6,31.3z"/>
															</g>
														</g>
													</g>
												</g>
												<g>
													<path class="st30" d="M105,63.9c0,2.5,1,4.5,2.4,4.5c1.4,0,2.5-2,2.6-4.5c0-2.5-1-4.5-2.4-4.5
														C106.2,59.5,105,61.5,105,63.9z"/>
													<path class="st44" d="M106.4,60c-0.2,0.6-0.3,1.2-0.3,2c0,2.5,1,4.5,2.4,4.5c0.4,0,0.8-0.2,1.2-0.5
														c-0.4,1.5-1.3,2.5-2.3,2.5c-1.4,0-2.5-2-2.4-4.5C105,62.2,105.6,60.7,106.4,60z"/>
													<g class="st45">
														<path class="st0" d="M109.5,63.2c0.1,0.9-0.3,1.6-0.7,1.6c-0.4,0-0.8-0.6-0.9-1.5c-0.1-0.9,0.3-1.6,0.7-1.6
															C109,61.7,109.4,62.3,109.5,63.2z"/>
														
															<ellipse transform="matrix(3.656035e-03 -1 1 3.656035e-03 46.8003 168.812)" class="st0" cx="108.1" cy="60.9" rx="0.3" ry="0.3"/>
													</g>
												</g>
												<g>
													<path class="st30" d="M75.4,66.1c0.3,2.5,1.6,4.3,3,4.2c1.4-0.2,2.3-2.3,2-4.8c-0.3-2.5-1.6-4.3-3-4.2
														C76,61.5,75.2,63.6,75.4,66.1z"/>
													<path class="st44" d="M76.3,62.1c-0.1,0.5-0.1,1.1,0,1.6c0.3,2.5,1.6,4.3,3,4.2c0.5-0.1,0.8-0.3,1.2-0.8
														c-0.2,1.7-0.9,3-2,3.1c-1.4,0.2-2.7-1.7-3-4.2C75.2,64.4,75.6,62.9,76.3,62.1z"/>
													<g class="st45">
														<g>
															<g>
																<path class="st0" d="M79.6,64.7c0.2,0.8,0,1.6-0.5,1.7c-0.4,0.1-0.9-0.5-1.1-1.3c-0.2-0.8,0-1.6,0.5-1.7
																	C79,63.2,79.5,63.8,79.6,64.7z"/>
															</g>
															<g>
																
																	<ellipse transform="matrix(0.9928 -0.1199 0.1199 0.9928 -6.9412 9.7965)" class="st0" cx="78" cy="62.6" rx="0.3" ry="0.3"/>
															</g>
														</g>
													</g>
												</g>
												<g>
													<path class="st46" d="M74.1,68.3c0,0-1.5-0.3-1.1,1.3c0.3,1.2,3,3.7,6.7,2.7c3.5-0.9,3.7-3,2.1-3.5
														C80.2,68.4,74.1,68.3,74.1,68.3z"/>
													<path class="st0" d="M83.5,64.8c0.4,3.2-1.7,6-4.7,6.3c-3,0.4-5.7-1.9-6.1-5.1c-0.4-3.2,1.8-6,4.7-6.4
														C80.4,59.3,83.1,61.6,83.5,64.8z"/>
													<path class="st47" d="M83.3,64.7c-0.1-0.8-0.3-1.5-0.7-2.1c0,0,0,0,0,0.1c0.2,0.4,0.4,1,0.5,1.6c0.3,2.7-1.5,5.1-4,5.4
														c-2.5,0.3-4.9-1.7-5.2-4.4c-0.3-2.7,2-4,4.5-4.3c1.9-0.2,3.3,0.2,4.1,1.4c-1-1.7-2.9-2.8-4.9-2.5
														c-2.8,0.3-4.8,3-4.4,5.9c0.3,2.9,2.9,5.1,5.7,4.8C81.7,70.3,83.6,67.6,83.3,64.7z"/>
													<path class="st48" d="M83.2,65.8c0.2,1.7-1,3.3-2.6,3.4c-1.6,0.2-3.1-1-3.3-2.8c-0.2-1.7,1-3.3,2.6-3.4
														C81.5,62.8,83,64.1,83.2,65.8z"/>
													<path class="st49" d="M82.9,66.2c0.1,1-0.5,1.9-1.5,2c-0.9,0.1-1.8-0.6-1.9-1.6c-0.1-1,0.5-1.9,1.5-2
														C81.9,64.5,82.8,65.2,82.9,66.2z"/>
													<path class="st0" d="M83.2,64.7c0.1,0.5-0.3,1-0.8,1c-0.5,0.1-0.9-0.3-1-0.8c-0.1-0.5,0.3-1,0.8-1
														C82.7,63.8,83.1,64.2,83.2,64.7z"/>
													<path class="st0" d="M80.3,68.1c0,0.3-0.1,0.5-0.4,0.5c-0.2,0-0.5-0.2-0.5-0.4c0-0.3,0.2-0.5,0.4-0.5
														C80,67.7,80.3,67.9,80.3,68.1z"/>
													<path class="st46" d="M72.5,63.4c0,0,0.1-3.6,2.9-4.7c2.7-1.1,6.5,2,6.5,2S76.5,59.2,72.5,63.4z"/>
													<path class="st50" d="M81.9,60.7c0,0-0.2,0-0.4,0c-0.3,0-0.7,0-1.2,0c-0.2,0-0.5,0-0.8,0c-0.3,0-0.6,0-0.8,0.1
														c-0.3,0-0.6,0.1-0.9,0.1c-0.2,0-0.3,0.1-0.5,0.1c-0.1,0-0.3,0.1-0.4,0.1c-0.2,0-0.3,0.1-0.4,0.1
														c-0.1,0-0.3,0.1-0.4,0.2c-0.3,0.1-0.6,0.2-0.8,0.3c-0.1,0-0.1,0.1-0.2,0.1c-0.1,0-0.1,0.1-0.2,0.1
														c-0.1,0.1-0.2,0.1-0.4,0.2c-0.2,0.1-0.4,0.3-0.6,0.4c-0.2,0.1-0.4,0.2-0.5,0.4c-0.2,0.1-0.3,0.2-0.4,0.3
														c-0.2,0.2-0.4,0.3-0.4,0.3s0.1-0.1,0.3-0.3c0.1-0.1,0.2-0.2,0.3-0.4c0.1-0.2,0.3-0.3,0.5-0.4c0.1-0.1,0.2-0.2,0.3-0.3
														c0.1-0.1,0.2-0.2,0.3-0.2c0.2-0.2,0.5-0.3,0.7-0.5c0.3-0.1,0.5-0.3,0.9-0.4c0.2-0.1,0.3-0.1,0.5-0.2
														c0.1-0.1,0.3-0.1,0.5-0.1c0.2,0,0.3-0.1,0.5-0.1c0.2,0,0.3-0.1,0.5-0.1l0.2,0c0.1,0,0.2,0,0.2,0c0.2,0,0.3,0,0.5,0
														c0.3,0,0.6,0,0.9,0c0.1,0,0.3,0,0.4,0c0.1,0,0.3,0,0.4,0c0.2,0,0.5,0.1,0.7,0.1c0.2,0,0.4,0.1,0.5,0.1
														c0.1,0,0.2,0.1,0.3,0.1C81.8,60.7,81.9,60.7,81.9,60.7z"/>
												</g>
												<g>
													<g>
														<path class="st46" d="M102.3,67.1c0,0-1.3-0.6-1.3,1c0,1.2,2,4,5.6,3.8c3.4-0.1,4-2.1,2.7-2.8
															C108,68.3,102.3,67.1,102.3,67.1z"/>
														
															<ellipse transform="matrix(9.042573e-02 -0.9959 0.9959 9.042573e-02 32.4234 164.8774)" class="st0" cx="106.5" cy="64.7" rx="5.4" ry="5.1"/>
														<path class="st47" d="M111.4,64.8c0.1-0.7,0-1.4-0.2-2.1c0.1,0.5,0.2,1,0.1,1.6c-0.2,2.6-2.4,4.5-4.9,4.3
															c-2.4-0.2-4.2-2.5-4-5.1c0.2-2.6,2.6-3.3,5.1-3.1c1.7,0.2,3,0.8,3.5,2c-0.6-1.7-2.2-3-4.1-3.2
															c-2.7-0.2-5.1,1.9-5.3,4.7c-0.3,2.8,1.7,5.3,4.4,5.6C108.7,69.8,111.1,67.7,111.4,64.8z"/>
														<path class="st48" d="M111.3,65.5c-0.2,1.6-1.5,2.8-3.1,2.7c-1.5-0.1-2.7-1.6-2.5-3.2c0.1-1.6,1.5-2.8,3-2.7
															C110.3,62.5,111.5,63.9,111.3,65.5z"/>
														<path class="st49" d="M111.1,65.7c-0.1,0.9-0.9,1.6-1.8,1.5c-0.9-0.1-1.5-0.9-1.4-1.8c0.1-0.9,0.9-1.6,1.7-1.5
															C110.5,63.9,111.2,64.7,111.1,65.7z"/>
														<path class="st0" d="M111.3,64c0,0.5-0.4,0.8-0.9,0.8c-0.5,0-0.8-0.5-0.7-0.9c0-0.5,0.4-0.8,0.9-0.8
															C111,63.1,111.4,63.5,111.3,64z"/>
														<path class="st0" d="M108.3,67c0,0.3-0.2,0.4-0.5,0.4c-0.2,0-0.4-0.2-0.4-0.5c0-0.3,0.2-0.4,0.5-0.4
															C108.2,66.5,108.3,66.7,108.3,67z"/>
														<path class="st46" d="M101.7,61.8c0,0,0.8-3.3,3.5-3.8c2.8-0.5,5.7,3.1,5.7,3.1S106.2,58.6,101.7,61.8z"/>
														<path class="st50" d="M110.9,61.1c0,0-0.1,0-0.4-0.1c-0.3-0.1-0.6-0.2-1.1-0.3c-0.2,0-0.5-0.1-0.7-0.1
															c-0.2,0-0.5-0.1-0.8-0.1c-0.3,0-0.6,0-0.8,0c-0.2,0-0.3,0-0.4,0c-0.1,0-0.3,0-0.4,0c-0.1,0-0.3,0-0.4,0
															c-0.1,0-0.3,0-0.4,0.1c-0.3,0-0.6,0.1-0.8,0.2c-0.1,0-0.1,0-0.2,0c-0.1,0-0.1,0-0.2,0.1c-0.1,0-0.3,0.1-0.4,0.1
															c-0.2,0.1-0.5,0.2-0.7,0.2c-0.2,0.1-0.4,0.2-0.6,0.2c-0.2,0.1-0.3,0.2-0.4,0.2c-0.2,0.1-0.4,0.2-0.4,0.2
															s0.1-0.1,0.3-0.3c0.1-0.1,0.2-0.2,0.4-0.3c0.2-0.1,0.3-0.2,0.5-0.3c0.1-0.1,0.2-0.1,0.3-0.2c0.1-0.1,0.2-0.1,0.4-0.2
															c0.2-0.1,0.5-0.2,0.8-0.3c0.3-0.1,0.6-0.2,0.9-0.2c0.2,0,0.3,0,0.5-0.1c0.1,0,0.3,0,0.5,0c0.2,0,0.3,0,0.5,0
															c0.2,0,0.3,0,0.5,0l0.2,0c0.1,0,0.1,0,0.2,0c0.2,0,0.3,0,0.4,0.1c0.3,0,0.6,0.1,0.8,0.2c0.1,0,0.2,0.1,0.4,0.1
															c0.1,0,0.2,0.1,0.3,0.1c0.2,0.1,0.4,0.2,0.6,0.2c0.2,0.1,0.3,0.1,0.4,0.2C110.6,60.9,110.7,61,110.9,61.1
															C110.8,61,110.9,61.1,110.9,61.1z"/>
													</g>
												</g>
											</g>
											<g>
												<path class="st7" d="M81.1,98c0.1,0,0.2-0.1,0.2-0.1c-0.4,0.1,0.9,3.3,1.1,3.8c0.6,1.1,1.6,2,2.6,2.7
													c2,1.4,4.7,2.3,7.2,1.6c1.6-0.4,3.2-1.1,4.1-2.5c1.2-1.8,1.3-3.6,1.1-5.5c2,2.4,3.9,5.1,4.9,8.1
													c0.9,2.6-0.4,10.6-4.4,8.6c-2-1.1-4-4.9-5.5-7c0,0-4.8,8.6-6.5,8.8c-3.1,0.4-5.7-3.9-6.7-6.2c-1.8-3.7-2.1-8.3,1-11.4
													C80.5,98.5,80.9,98.2,81.1,98z"/>
												<path class="st0" d="M80.9,96.4c0.1,0,0.2-0.1,0.2-0.1c-0.4,0.1,0.9,3.3,1.1,3.8c0.6,1.1,1.6,2,2.6,2.7
													c2,1.4,4.7,2.3,7.2,1.6c1.6-0.4,3.2-1.1,4.1-2.5c1.2-1.8,1.3-3.6,1.1-5.5c2,2.4,3.9,5.1,4.9,8.1
													c0.9,2.6-0.4,10.6-4.4,8.6c-2-1.1-4-4.9-5.5-7c0,0-4.8,8.6-6.5,8.8c-3.1,0.4-5.7-3.9-6.7-6.2c-1.8-3.7-2.1-8.3,1-11.4
													C80.2,96.9,80.5,96.6,80.9,96.4z"/>
												<g>
													<path class="st7" d="M85.8,112.3c-5.2-1.1-3.4-9.6-3.4-9.6s2.6,4.8,10,2.5s5.2-7.8,5-9c0.2,1.9,0,3.8-1.1,5.5
														c-1,1.3-2.5,2.1-4.1,2.5c-2.5,0.7-5.2-0.2-7.2-1.6c-1.1-0.7-1.9-1.7-2.6-2.7c-0.3-0.4-1.5-3.6-1.1-3.8
														c-0.1,0-0.2,0.1-0.2,0.1c-0.4,0.2-0.6,0.5-0.8,0.7c-3.1,3.1-2.7,7.7-1,11.4c1.1,2.3,3.8,6.6,6.7,6.2
														c0.6-0.1,1.6-1.2,2.6-2.6C87.7,112.5,86.8,112.5,85.8,112.3z"/>
													<path class="st7" d="M92.2,106c1.5,2,3.4,6,5.5,7c3.4,1.7,4.8-3.8,4.6-7.1c-0.5,2.3-1.3,4.6-2.3,5.5
														C98,113.6,92.2,106,92.2,106z"/>
												</g>
											</g>
										</g>
									</g>
								</g>
							</g>
						</g>
					</g>
				</g>
			</g>
		</g>
	</g>
</g>
</svg>
