<?xml version="1.0" encoding="utf-8"?>
<!-- Generator: Adobe Illustrator 21.0.0, SVG Export Plug-In . SVG Version: 6.00 Build 0)  -->
<svg version="1.1" id="Layer_1" xmlns="http://www.w3.org/2000/svg" xmlns:xlink="http://www.w3.org/1999/xlink" x="0px" y="0px"
	 viewBox="0 0 180 180" style="enable-background:new 0 0 180 180;" xml:space="preserve">
<style type="text/css">
	.st0{fill:#FFFFFF;}
	.st1{fill:#508906;}
	.st2{clip-path:url(#SVGID_2_);}
	.st3{fill:#FBC6A4;}
	.st4{fill:#EAAD85;}
	.st5{fill:#437E49;}
	.st6{fill:#7DAF81;}
	.st7{fill:#295A31;}
	.st8{fill:#DBEDEF;}
	.st9{fill:#C8DDE0;}
	.st10{fill:#AAAAAA;}
	.st11{fill:#848383;}
	.st12{fill:#CCCBCB;}
	.st13{fill:#9F9F9E;}
	.st14{fill:#E0E0DF;}
	.st15{fill:#CE7754;}
	.st16{fill:#3B7241;}
	.st17{fill:#FFE142;}
	.st18{fill:#5B9B62;}
	.st19{fill:#F8AF9A;}
	.st20{fill:#FBD3C4;}
	.st21{fill:#FCD8C1;}
	.st22{fill:#712914;}
	.st23{fill:#4D1F1C;}
	.st24{fill:#321514;}
	.st25{fill:#EC756C;}
	.st26{fill:#F48F87;}
	.st27{fill:#F7B0AD;}
	.st28{fill:#D9DBDC;}
	.st29{fill:#72B5D9;}
	.st30{fill:#231F20;}
	.st31{fill:#D5956A;}
	.st32{fill:#5F1E07;}
	.st33{fill:#8A4A37;}
	.st34{fill:#67ABB9;}
	.st35{fill:#A1CED8;}
	.st36{fill:#4A96A5;}
	.st37{fill:#2C7885;}
</style>
<rect class="st0" width="180" height="180"/>
<rect class="st0" width="180" height="180"/>
<g>
	<g>
		<g>
			<path class="st1" d="M168.9,173.6h-2.6V173h2.6V173.6z M163.1,173.6h-2.6V173h2.6V173.6z M157.3,173.6h-2.6V173h2.6V173.6z
				 M151.5,173.6H149V173h2.6v0.6H151.5z M145.8,173.6h-2.6V173h2.6V173.6z M140,173.6h-2.6V173h2.6V173.6z M134.2,173.6h-2.6V173
				h2.6V173.6z M128.5,173.6h-2.6V173h2.6V173.6z M122.7,173.6h-2.6V173h2.6V173.6z M116.9,173.6h-2.6V173h2.6V173.6z M111.2,173.6
				h-2.6V173h2.6V173.6z M105.4,173.6h-2.6V173h2.6V173.6z M99.6,173.6H97V173h2.6V173.6z M93.9,173.6h-2.6V173h2.6V173.6z
				 M88.1,173.6h-2.6V173h2.6V173.6z M82.3,173.6h-2.6V173h2.6V173.6z M76.5,173.6H74V173h2.6L76.5,173.6L76.5,173.6z M70.8,173.6
				h-2.6V173h2.6V173.6z M65,173.6h-2.6V173H65V173.6z M59.2,173.6h-2.6V173h2.6V173.6z M53.5,173.6h-2.6V173h2.6V173.6z
				 M47.7,173.6h-2.6V173h2.6V173.6z M41.9,173.6h-2.6V173h2.6V173.6z M36.2,173.6h-2.6V173h2.6V173.6z M30.4,173.6h-2.6V173h2.6
				V173.6z M24.6,173.6H22V173h2.6V173.6z M18.9,173.6h-2.6V173h2.6V173.6z M13.1,173.6H12c-0.5,0-1-0.1-1.5-0.2l0.2-0.6
				c0.4,0.1,0.9,0.2,1.3,0.2h1.1V173.6z M171.5,172.8l-0.3-0.5c0.7-0.4,1.2-1,1.6-1.8l0.6,0.3C172.9,171.6,172.3,172.3,171.5,172.8z
				 M7.8,171.3c-0.5-0.8-0.8-1.7-0.8-2.6h0.6c0,0.8,0.3,1.6,0.7,2.2L7.8,171.3z M173.9,167.5h-0.6V165h0.6V167.5z M7.6,165.5H6.9
				V163h0.6L7.6,165.5L7.6,165.5z M173.9,161.8h-0.6v-2.6h0.6V161.8z M7.6,159.8H6.9v-2.6h0.6L7.6,159.8L7.6,159.8z M173.9,156h-0.6
				v-2.6h0.6V156z M7.6,154H6.9v-2.6h0.6L7.6,154L7.6,154z M173.9,150.2h-0.6v-2.6h0.6V150.2z M7.6,148.2H6.9v-2.6h0.6L7.6,148.2
				L7.6,148.2z M173.9,144.4h-0.6v-2.6h0.6V144.4z M7.6,142.4H6.9v-2.6h0.6L7.6,142.4L7.6,142.4z M173.9,138.7h-0.6v-2.6h0.6V138.7z
				 M7.6,136.7H6.9v-2.6h0.6L7.6,136.7L7.6,136.7z M173.9,132.9h-0.6v-2.6h0.6V132.9z M7.6,130.9H6.9v-2.6h0.6L7.6,130.9L7.6,130.9z
				 M173.9,127.1h-0.6v-2.6h0.6V127.1z M7.6,125.1H6.9v-2.6h0.6L7.6,125.1L7.6,125.1z M173.9,121.4h-0.6v-2.6h0.6V121.4z M7.6,119.4
				H6.9v-2.6h0.6L7.6,119.4L7.6,119.4z M173.9,115.6h-0.6V113h0.6V115.6z M7.6,113.6H6.9V111h0.6L7.6,113.6L7.6,113.6z M173.9,109.8
				h-0.6v-2.6h0.6V109.8z M7.6,107.8H6.9v-2.6h0.6L7.6,107.8L7.6,107.8z M173.9,104.1h-0.6v-2.6h0.6V104.1z M7.6,102.1H6.9v-2.6h0.6
				L7.6,102.1L7.6,102.1z M173.9,98.3h-0.6v-2.6h0.6V98.3z M7.6,96.3H6.9v-2.6h0.6L7.6,96.3L7.6,96.3z M173.9,92.5h-0.6V90h0.6V92.5
				z M7.6,90.5H6.9V88h0.6L7.6,90.5L7.6,90.5z M173.9,86.8h-0.6v-2.6h0.6V86.8z M7.6,84.8H6.9v-2.6h0.6L7.6,84.8L7.6,84.8z
				 M173.9,81h-0.6v-2.6h0.6V81z M7.6,79H6.9v-2.6h0.6L7.6,79L7.6,79z M173.9,75.2h-0.6v-2.6h0.6V75.2z M7.6,73.2H6.9v-2.6h0.6
				L7.6,73.2L7.6,73.2z M173.9,69.4h-0.6v-2.6h0.6V69.4z M7.6,67.4H6.9v-2.6h0.6L7.6,67.4L7.6,67.4z M173.9,63.7h-0.6v-2.6h0.6V63.7
				z M7.6,61.7H6.9v-2.6h0.6L7.6,61.7L7.6,61.7z M173.9,57.9h-0.6v-2.6h0.6V57.9z M7.6,55.9H6.9v-2.6h0.6L7.6,55.9L7.6,55.9z
				 M173.9,52.1h-0.6v-2.6h0.6V52.1z M7.6,50.1H6.9v-2.6h0.6L7.6,50.1L7.6,50.1z M173.9,46.4h-0.6v-2.6h0.6V46.4z M7.6,44.4H6.9
				v-2.6h0.6L7.6,44.4L7.6,44.4z M173.9,40.6h-0.6V38h0.6V40.6z M7.6,38.6H6.9V36h0.6L7.6,38.6L7.6,38.6z M173.9,34.8h-0.6v-2.6h0.6
				V34.8z M7.6,32.8H6.9v-2.6h0.6L7.6,32.8L7.6,32.8z M173.9,29.1h-0.6v-2.6h0.6V29.1z M7.6,27.1H6.9v-2.6h0.6L7.6,27.1L7.6,27.1z
				 M173.9,23.3h-0.6v-2.6h0.6V23.3z M7.6,21.3H6.9v-2.6h0.6L7.6,21.3L7.6,21.3z M173.9,17.5h-0.6V15h0.6V17.5z M7.6,15.5H6.9V13
				h0.6L7.6,15.5L7.6,15.5z M173.9,11.8h-0.6v-0.1c0-0.8-0.2-1.5-0.6-2.2l0.6-0.3c0.4,0.8,0.7,1.6,0.7,2.5L173.9,11.8L173.9,11.8z
				 M7.9,9.9L7.3,9.7c0.4-0.9,1-1.6,1.7-2.1l0.4,0.5C8.8,8.6,8.2,9.2,7.9,9.9z M170.4,7.6c-0.5-0.2-1-0.3-1.6-0.3H168V6.6h0.8
				c0.6,0,1.2,0.1,1.8,0.3L170.4,7.6z M164.8,7.3h-2.6V6.6h2.6V7.3z M159,7.3h-2.6V6.6h2.6V7.3z M153.3,7.3h-2.6V6.6h2.6V7.3z
				 M147.5,7.3h-2.6V6.6h2.6V7.3z M141.7,7.3h-2.6V6.6h2.6V7.3z M136,7.3h-2.6V6.6h2.6V7.3z M130.2,7.3h-2.6V6.6h2.6V7.3z
				 M124.4,7.3h-2.6V6.6h2.6V7.3z M118.6,7.3H116V6.6h2.6V7.3z M112.9,7.3h-2.6V6.6h2.6V7.3z M107.1,7.3h-2.6V6.6h2.6V7.3z
				 M101.3,7.3h-2.6V6.6h2.6V7.3z M95.6,7.3H93V6.6h2.6V7.3z M89.8,7.3h-2.6V6.6h2.6V7.3z M84,7.3h-2.6V6.6H84V7.3z M78.3,7.3h-2.6
				V6.6h2.6V7.3z M72.5,7.3h-2.6V6.6h2.6V7.3z M66.7,7.3h-2.6V6.6h2.6V7.3z M61,7.3h-2.6V6.6H61V7.3z M55.2,7.3h-2.6V6.6h2.6V7.3z
				 M49.4,7.3h-2.6V6.6h2.6V7.3z M43.6,7.3H41V6.6h2.6V7.3z M37.9,7.3h-2.6V6.6h2.6V7.3z M32.1,7.3h-2.6V6.6h2.6V7.3z M26.3,7.3
				h-2.6V6.6h2.6V7.3z M20.6,7.3H18V6.6h2.6V7.3z M14.8,7.3h-2.6V6.6h2.6C14.8,6.6,14.8,7.3,14.8,7.3z"/>
		</g>
	</g>
</g>
<g>
	<g>
		<g>
			<g>
				<g>
					<defs>
						<ellipse id="SVGID_1_" cx="90.6" cy="50" rx="129.7" ry="117"/>
					</defs>
					<clipPath id="SVGID_2_">
						<use xlink:href="#SVGID_1_"  style="overflow:visible;"/>
					</clipPath>
					<g class="st2">
						<g>
							<g>
								<g>
									<path class="st3" d="M82.7,176.1c0,0,1.6,8.1-8.9,21c1.2,1.2,4.1,2,4.1,2s11.2-8.6,10.5-24.8
										C85.3,174.5,82.7,176.1,82.7,176.1z"/>
									<path class="st4" d="M82,182.4C82,182.4,82,182.4,82,182.4c1.1-4,0.7-6.3,0.7-6.3s2.6-1.6,5.7-1.8c0.1,2.8-0.1,5.4-0.6,7.7
										C87.1,178.9,83,180.5,82,182.4z"/>
								</g>
								<g>
									<path class="st5" d="M74.6,195.5c-0.9-0.8-1.6,0.1-2.9,1.9c-1.2,1.6-3.4,2.1-3.3,3.4c1.5,5.1,11.4,11.6,15.3,8.6
										c3.6-3.2,2-7.8-1.8-6.7c-0.6-0.6-2.4-1.6-3.2-1.8c0.7-0.6,0.9-1.2,0.3-1.8C78.4,199.5,74.9,197.7,74.6,195.5z"/>
									<path class="st6" d="M85.4,206c0.2-1.4-0.5-3-1.6-3c-1.1,0,1.9,3.8-0.6,5.2C84.8,208.1,85.3,206.4,85.4,206z"/>
									<path class="st7" d="M74.6,195.6c0.1,0.4,0.2,0.7,0.5,1.1c-1.2,1.4-3.1,1.9-3,3.1c1.2,4,7.4,8.8,12,9.3
										c-0.1,0.1-0.2,0.2-0.4,0.3c-3.9,2.9-13.2-3.5-14.7-8.6c-0.2-1.3,1.8-1.3,3-2.9C73.3,196,73.7,194.8,74.6,195.6z"/>
									<path class="st8" d="M84.3,208.8c-1.9,0.9-13.4-2.8-14.6-9.8c-1-0.3-2.5,1-2.4,1.8c1.1,2.9,2.9,5.5,7.4,8.1
										c3.9,2.2,7.5,2.5,8.6,1.9C85,210,84.3,208.8,84.3,208.8z"/>
									<path class="st9" d="M69.8,199.4c0,0.1,0,0.2,0.1,0.3c-0.3,0.3-0.6,0.4-0.5,0.7c1.1,2.9,2.9,5.5,7.4,8.1
										c2.7,1.6,4.9,1.8,6.6,1.8c-0.1,0.1-0.2,0.1-0.3,0.2c-1.1,0.6-4,0.5-7.9-1.7c-3.7-2.1-6.1-4.8-7.2-7.7
										C67.8,200.1,68.9,199,69.8,199.4z"/>
									<path class="st8" d="M82,202.6c0.4,0.8-0.3,2-1.1,2.4c-1,0.4-2.9-1.2-3.4-2.2c0.2-1.2,1.2-2,1.2-2S81.1,200.7,82,202.6z"/>
									<path class="st9" d="M79.5,201c-0.3,0.3-0.8,0.9-1,1.8c0.4,0.7,1.8,1.5,2.8,1.8c-0.1,0.1-0.2,0.1-0.3,0.2
										c-1,0.4-2.7-0.8-3.2-1.7c0.2-1.2,1-1.9,1-1.9S79.1,200.9,79.5,201z"/>
								</g>
							</g>
							<g>
								<g>
									<path class="st3" d="M107.6,171.1c0,0,6.3,7.5,4.5,31.5c-1.9,1.3-4.9,0.2-4.9,0.2s1.9-15.5-4.5-29.1
										C105.4,171.8,107.6,171.1,107.6,171.1z"/>
									<path class="st4" d="M102.7,173.6c2.1-1.4,3.9-2.1,4.6-2.4c0.1,0,0.2,0,0.4,0c0.3,0.4,1.9,2.6,3.2,7.7
										c-2.2-2.9-5.4-3.2-5.2,2.6C104.9,178.9,104,176.2,102.7,173.6z"/>
								</g>
								<g>
									<path class="st5" d="M107,201.4c-1.1,0-1.1,1.1-0.9,3.2c0.1,1.9-1.1,3.7-0.2,4.5c4.3,2.8,15.4,1.3,16.4-3.3
										c0.6-4.6-3.4-6.9-5.5-3.7c-0.8-0.1-2.7,0.3-3.4,0.7c0.2-0.8-0.1-1.4-0.9-1.5C112.3,202,108.6,202.8,107,201.4z"/>
									<path class="st6" d="M121.3,202.3c-0.7-1.1-2.2-1.9-3.1-1.2c-0.8,0.7,3.7,1.6,2.8,4.1C122.3,204.1,121.6,202.7,121.3,202.3
										z"/>
									<path class="st7" d="M107.1,201.5c0.3,0.3,0.6,0.4,1,0.5c0,1.8-1.1,3.3-0.2,4.1c3.3,2.1,10.8,1.7,14.4-0.7
										c0,0.2,0,0.3,0,0.5c-1,4.5-11.7,5.7-16,2.9c-0.9-0.8,0.5-2.1,0.3-4C106.5,202.6,106,201.5,107.1,201.5z"/>
									<path class="st8" d="M122.3,205c-0.8,1.8-11.4,6.3-16.6,2c-0.9,0.3-1.2,2.2-0.6,2.8c2.6,1.4,5.5,2.2,10.3,1.3
										c4.2-0.8,6.9-2.8,7.4-4C123.5,205.5,122.3,205,122.3,205z"/>
									<path class="st9" d="M106,207.2c0.1,0.1,0.1,0.1,0.2,0.1c0,0.5-0.2,0.6,0,0.9c2.6,1.4,5.5,2.2,10.3,1.3
										c2.9-0.6,4.7-1.8,5.9-2.8c0,0.1-0.1,0.2-0.1,0.3c-0.4,1.1-2.6,2.8-6.8,3.7c-3.9,0.8-7.4,0.3-10-1.1
										C105,209,105.1,207.5,106,207.2z"/>
									<path class="st8" d="M116.9,202c0.7,0.3,1.1,1.6,0.7,2.4c-0.5,0.9-2.9,0.9-3.8,0.6c-0.6-1-0.4-2.2-0.4-2.2
										S115,201.2,116.9,202z"/>
									<path class="st9" d="M114,202.3c0,0.4,0,1.2,0.4,1.9c0.7,0.3,2.2-0.1,3.1-0.5c0,0.1-0.1,0.2-0.1,0.3
										c-0.5,0.9-2.5,1.1-3.4,0.7c-0.6-1-0.5-2-0.5-2S113.6,202.6,114,202.3z"/>
								</g>
							</g>
							<g>
								<path class="st10" d="M86.2,157.3c0,0,7.8,12.2,9,19.6c1.7,1.6,18.1-2.6,17.9-5.7c-0.8-5.2-4.6-16.1-7.5-19.4
									C95.6,153.7,86.2,157.3,86.2,157.3z"/>
								<path class="st11" d="M109.8,161.8c-0.1-0.3-1.1-4.6-2.7-6.3c-6.6-1.7-11.3-1.7-11.3-1.7L93,167.9c0,0,1.8,4.2,3.1,8
									c-0.7-10.6,2-16,5.6-16.5C105.3,159,109.8,161.8,109.8,161.8z"/>
								<path class="st11" d="M113.1,170.9c0,0-7,5.8-18,5.7c-0.3,0.9,0.4,1.9,0.4,1.9s9.8,0.9,17.8-5.3
									C114,172,113.1,170.9,113.1,170.9z"/>
							</g>
							<g>
								<path class="st12" d="M77.2,152.4c0,0,0,13-3.6,19.6c0.4,2.3,18,8.6,19.7,6c2.5-4.6,5.2-16.2,2.8-24.6
									C87,148.9,77.2,152.4,77.2,152.4z"/>
								<path class="st13" d="M96.3,161.4c0,0,0-6-1.4-8.8c-4.4-0.9-17.2-1.3-17.2-1.3s0.6,3.8-0.1,7.7c3.9-4.1,6.1-4.7,10.5-4.1
									C92.4,155.6,96.3,161.4,96.3,161.4z"/>
								<path class="st14" d="M95.3,165.4c-0.4-4.3-3.3-5.7-3.6-1.6c-0.3,4.2,1.8,8.4,1.5,12.7C95.3,171,95.5,167.7,95.3,165.4z"/>
								<path class="st11" d="M93.6,177.7c0,0-11.1,0.7-19.8-6c-0.8,0.6-0.8,1.7-0.8,1.7s9.3,6.4,19.4,6.2
									C93.7,179.2,93.6,177.7,93.6,177.7z"/>
							</g>
							<g>
								<path class="st3" d="M112.3,129c0,0-3,4.6,2,20.1c3.6,5.9,2.4,8.4,1.8,7.4c0.4,1.9-1,2.8-1.2,0.6c0.3,2.4-1.5,2.7-1.8,0.6
									c-0.1,1.3-1.6,2.2-2-0.9c-0.2-1.9-0.5-3.6-0.5-3.6s-1.6,2.6-2.4,1.5c-0.8-1.1,1.4-4.1,2.1-5.1c-0.5-3.6-10.2-18-4.7-27.2
									C109.2,122.1,112.3,129,112.3,129z"/>
								<path class="st15" d="M113,158.1c0,0.1,0.1,0.1,0.1,0.1c0.1,0,0.1-0.1,0.1-0.2c-0.1-1.9-0.5-3.9-0.5-4
									c0-0.1-0.1-0.1-0.2-0.1c-0.1,0-0.1,0.1-0.1,0.2l0,0C112.5,154.2,112.9,156.2,113,158.1C113,158.1,113,158.1,113,158.1z"/>
								<path class="st15" d="M114.8,157.6c0,0.1,0.1,0.1,0.1,0.1c0.1,0,0.1-0.1,0.1-0.2c0-0.8-0.4-2.8-0.8-4c0-0.1-0.1-0.1-0.2-0.1
									c-0.1,0-0.1,0.1-0.1,0.2C114.4,154.8,114.8,156.8,114.8,157.6C114.8,157.6,114.8,157.6,114.8,157.6z"/>
								<path class="st15" d="M115.1,153.1C115.1,153.2,115.1,153.2,115.1,153.1c0.5,1.2,0.9,3.6,0.9,3.6c0,0.1,0.1,0.1,0.2,0.1
									c0.1,0,0.1-0.1,0.1-0.2c0-0.1-0.4-2.4-0.9-3.6c0-0.1-0.1-0.1-0.2-0.1C115.2,153,115.1,153.1,115.1,153.1z"/>
							</g>
							<g>
								<path class="st16" d="M105.9,117.5c1.9,2.5,6.8,8.5,7.8,12c-1.3,3.1-5.8,6.6-8,6.5c-2.6-3.4-4.6-9.1-4.6-9.1L105.9,117.5z"
									/>
								<path class="st7" d="M110.9,130.1c-6.7,4.5-4.6-1-3.2-6c-4.4,6-3.6,8.3-3.6,8.3s0.6,1.6,1.4,2.1
									C107.5,133.7,109.2,132.4,110.9,130.1z"/>
								<path class="st5" d="M109.9,123.3c-1.1-1.5-2.1-0.9-1.1,0.5c1.1,1.4,2.7,3.1,3.5,5.2C111.8,126.6,110.4,124,109.9,123.3z"/>
								<path class="st17" d="M113.2,128.3c-0.7,1.4-4,5.2-8,7c-0.1,0.5,0.7,1.4,1,1.5c3.1-1.4,6.9-4.5,8-6.6
									C114.1,129.3,113.2,128.3,113.2,128.3z"/>
							</g>
							<path class="st3" d="M104.4,116.6c0,0-2.7-1.4-4.7-2.1c0.2-1.4,0.9-3.7,0.9-3.7l-4.2-0.8c0,0-0.6,2.3-0.8,3.7
								c-1.2,0.1-4.3,0.4-4.3,0.4s3.8,10.7,8.8,11.5C105.2,126.3,104.4,116.6,104.4,116.6z"/>
							<g>
								<path class="st18" d="M99.5,119c3.3-0.2,2.8-2.6,2.1-3.8c5.2,1.6,6.6,4.2,7.7,9.3c1,4.9,1.6,11.8-0.3,30.4
									c-4.7,5.2-32-1.4-34.6-4.9c0.6-4.3,8.8-18.9,11.9-34c1.2-1.6,3.7-2,6.9-2.1C93.5,115.1,93.8,118.5,99.5,119z"/>
								<path class="st5" d="M86,123.5c-0.6,4-0.2,22.4,7.2,27.5c7.4,5.2,14.5,3,15.6-4.6c-0.2,4.2-0.3,7.8-1.1,8.3
									c-2.2,1.6-16.9,2.4-32-4.9c1.7-6.2,8.4-23,9.8-26.2C86.8,120.3,86,123.5,86,123.5z"/>
								<path class="st6" d="M107.5,127.1c-2-5.3-6.6-4.2-4.5,0.8c2.1,5,5.2,9.1,5.7,15.9C109.3,136.5,108.5,129.6,107.5,127.1z"/>
							</g>
							<g>
								<path class="st3" d="M85.7,116.2c0,0-4.9,1.5-8.7,3.5c-3.3,1.7-20,8-5.8,26.9c-0.4,1.5-0.8,4.8,0.4,4.6c0.6-0.1,1-2.6,1-2.6
									s0.3,4.5,2.1,3.9c1.3-0.5,0.2-4.2,0.2-4.2s2.3,3.7,3.6,2.9c1.3-0.8-2-4.3-2-4.3s3.3,2.6,4.2,1.3c0.8-1.3-4.9-4.1-4.9-4.1
									s2.4-0.4,1.9-1.6c-0.6-1.2-4.1,0.4-4.1,0.4s-10.2-10.7,2.4-17.3c4.7-2.4,9-4.1,9.1-4.1C87.6,118.5,85.7,116.2,85.7,116.2z"
									/>
								<path class="st4" d="M82.3,117.9c1.9,0.1,2.3,1.8,1.9,3.2c0.4-0.2,0.9-0.4,1.5-0.6c1-1.7,0.7-3.1,0.3-3.8
									C84.9,117,83.6,117.3,82.3,117.9C82.3,117.9,82.3,117.9,82.3,117.9z"/>
							</g>
							<g>
								<path class="st16" d="M88.5,114.5c-4.4,0-10.6,1.3-15,3.9c-0.2,2,2.1,8.4,3.7,9.3c2.4-0.1,7.8-2.4,7.8-2.4
									S90.2,119.5,88.5,114.5z"/>
								<path class="st7" d="M84.9,124.8c0,0-7.4,1.3-9.8-6.4c0.6,3.5,2.7,7.5,3.6,7.9C80.5,126.4,84.9,124.8,84.9,124.8z"/>
								<path class="st5" d="M85.6,115.3c2.3,0,2.5,1.5,0.3,1.4c-2.2-0.1-5.1-0.5-7.8,0.3C80.8,115.8,84.5,115.3,85.6,115.3z"/>
								<path class="st17" d="M74.4,117.8c-0.2,1.3,1.1,5.9,3.7,9.8c-0.6,0.4-1.3,0.5-1.5,0.5c-1.2-0.4-4.4-7.3-3.8-9.3
									C73.4,118.1,74.4,117.8,74.4,117.8z"/>
							</g>
							<path class="st17" d="M100.9,114.9c0.6,1.1,0.2,3.1-2.2,2.9c-2.4-0.2-4.4-2.3-4.7-4c-0.9-0.2-1.8,0-1.8,0s0.7,5.1,6.8,5.5
								c4,0.3,3.6-3.3,3.2-4C101.8,115,100.9,114.9,100.9,114.9z"/>
							<g>
								<g>
									<g>
										<path class="st3" d="M93.9,109c0,0,0.8,4.2,0.5,6c1.2,1.3,3.7,0.5,4.8-0.3c-0.4-2.4-0.6-5.7-0.6-5.7L93.9,109z"/>
									</g>
								</g>
							</g>
							<path class="st4" d="M99.8,109l-5.9-0.1c0,0,0.6,2.5,0.7,4.4c1.4,0.7,4.1,0.3,5.6-0.2C99.9,111.1,99.8,109,99.8,109z"/>
							<g>
								<g>
									<path class="st3" d="M124.8,59.4c4.6,9.5,9.4,39.3-17.3,49.9c-26.5,10.6-44.1-6.4-50.9-25c-8.1-22.4,8-39.1,23.9-43.6
										C105.2,33.8,118.6,46.7,124.8,59.4z"/>
									<path class="st4" d="M127.1,66.3c-0.7-2.8-1.5-5.2-2.3-6.9c-6.2-12.7-19.6-25.5-44.3-18.6c-15.9,4.4-32,21.2-23.9,43.6
										c0.9,2.6,2.1,5.2,3.5,7.7c0-1.8-0.6-3.2-0.6-3.2s3.4,5.2,11.7,3c-6.3-1.4-11.4-8.1-11.3-18.5C62.7,84.5,68.6,85,68.6,85
										s-9.9-12.3,0.5-21.8c-6.1,9.5,2.2,13.8,2.2,13.8s-7-18.5,29.3-22.5C99.9,61.9,91.7,65,91.7,65s7.7,0.9,18-11.1
										c1.9,3,6.4,8.9,12.5,9.5c-5.7-5-5.3-9.1-5.3-9.1S123.7,57.3,127.1,66.3z"/>
									<path class="st19" d="M114.7,84.4c0.4,2.5,4.3,3.8,7.9,2.4c3.6-1.5,5.2-4.8,4.5-7.7c-0.6-2.7-4.3-4.4-7.6-1.1
										C116.4,81.1,114.3,81.8,114.7,84.4z"/>
									
										<ellipse transform="matrix(0.9806 -0.1959 0.1959 0.9806 -13.0257 25.9437)" class="st20" cx="124.7" cy="78.8" rx="0.8" ry="0.6"/>
									
										<ellipse transform="matrix(0.9807 -0.1953 0.1953 0.9807 -13.7489 21.6222)" class="st21" cx="102.8" cy="80.5" rx="0.9" ry="0.6"/>
									<path class="st19" d="M73.5,93.9c0.8,3.3,4.4,5.1,8.9,4.5c4.3-0.6,8-4.6,6.6-7.6c-1.3-2.8-3.4-1.4-8.6-2.2
										C75.3,87.7,72.7,90.6,73.5,93.9z"/>
									
										<ellipse transform="matrix(0.9736 -0.2282 0.2282 0.9736 -18.8407 19.9483)" class="st20" cx="76.8" cy="91.4" rx="0.7" ry="0.6"/>
									<path class="st22" d="M114.3,59.5c-4-0.9-4.7,3.5-2,3.4c2.8-0.1,5.2,0.8,5.6,0.5C118.7,62.8,116.6,60.1,114.3,59.5z"/>
									<path class="st22" d="M77.9,67.1c3.2-2.6,5.7,1.1,3.3,2.2c-2.6,1.1-4.4,3-4.8,2.9C75.4,71.9,76.1,68.5,77.9,67.1z"/>
									<path class="st4" d="M56.1,83.6c-2.1-6.3-1.2-12,1.5-17.1c-1.3,4.1-1.4,9.8,0.2,14.7c6.1,18.4,25.3,34.4,49.4,24.1
										c12-5.1,15.8-12.7,18.7-18.7c-2,8-7.2,15.7-18.7,21.2C84.5,118.7,62.3,101.9,56.1,83.6z"/>
									<g>
										<path class="st23" d="M111,86.6c0,0,3,14.6-7.3,17c-10.3,2.4-10.4-12.3-10.4-12.3S101.1,92.5,111,86.6z"/>
										<path class="st24" d="M101.5,90.5c0.1,3.7-0.6,9-4.5,11.7c-3.7-3.4-3.8-10.9-3.8-10.9S96.5,91.8,101.5,90.5z"/>
										<path class="st25" d="M109.4,99.5c-1.2,1.9-3,3.5-5.8,4.1c-5.1,1.2-7.7-1.8-9-5.2c0.3-0.7,1.9-1.6,3.7-0.9
											C99.8,94.6,106.5,96.2,109.4,99.5z"/>
										<path class="st26" d="M96.4,98c0.8-0.4,1.8-0.3,2.2,0c0.3-0.6,0.8-1.3,2.4-1.5c3.9-0.4,8.9,3.3,4.1,5.5
											C100.2,104.3,93.6,99.5,96.4,98z"/>
										<path class="st27" d="M104.4,97.8c-0.9-0.8-3-1.2-3.5-0.6c-0.6,0.7,1.2,1.6,2.4,1.7C104.5,98.9,105,98.3,104.4,97.8z"/>
										<path class="st0" d="M108,88.2c0.5,1.5,0.4,2.7-1.6,3.7c-1.9,0.9-4.6,1.7-6.6,1.8c-2.3,0.2-3.6-0.7-3.6-2.3
											C100.2,91,103.3,90.3,108,88.2z"/>
									</g>
									<path class="st15" d="M103.3,84.5c0,0,0.1,0,0.1,0c1.3-0.7,1.9-1.9,1.6-3.3c-0.3-1.2-1.3-2.2-2.3-2.2
										c-0.6,0-1.9,0.2-2.7,2.5c0,0.1,0,0.2,0.1,0.2c0.1,0,0.2,0,0.2-0.1c0.5-1.5,1.4-2.3,2.3-2.2c0.9,0.1,1.7,0.9,2,1.9
										c0.1,0.5,0.2,1.9-1.4,2.8c-0.1,0.1-0.1,0.2-0.1,0.3C103.2,84.5,103.2,84.5,103.3,84.5z"/>
									<g>
										
											<ellipse transform="matrix(0.6591 -0.7521 0.7521 0.6591 -30.1551 89.5219)" class="st4" cx="83.7" cy="78" rx="7" ry="7.4"/>
										<path class="st4" d="M80.5,82.7c-2.2,0.7-2.5,1.8-0.7,2.5c1.8,0.7,5.1,0.8,7.4,0.1c2.2-0.7,2.5-1.8,0.7-2.6
											C86.1,82.1,82.8,82,80.5,82.7z"/>
										<path class="st0" d="M88.5,72.5c3,2.6,3.4,7.1,0.9,9.9c-2.5,2.8-7,3-10,0.4c-3-2.6-3.4-7.1-0.9-9.9
											C81,70,85.5,69.8,88.5,72.5z"/>
										<path class="st28" d="M78,76.2c-0.1,1.9,0.7,3.8,2.3,5.2c2.7,2.3,6.6,2.2,8.8-0.3c0.6-0.7,1-1.5,1.2-2.4
											c-0.1,1.3-0.5,2.6-1.4,3.6c-2.2,2.5-6.2,2.7-8.8,0.3C78.2,80.9,77.4,78.4,78,76.2z"/>
										
											<ellipse transform="matrix(0.9752 -0.2213 0.2213 0.9752 -15.3117 21.1569)" class="st29" cx="86.8" cy="78.9" rx="3.7" ry="3.9"/>
										
											<ellipse transform="matrix(0.9753 -0.221 0.221 0.9753 -15.3756 21.3649)" class="st30" cx="87.8" cy="79.4" rx="2.3" ry="2.4"/>
										
											<ellipse transform="matrix(0.9752 -0.2212 0.2212 0.9752 -14.9843 21.5878)" class="st0" cx="88.9" cy="77.7" rx="0.9" ry="1"/>
										
											<ellipse transform="matrix(0.975 -0.2224 0.2224 0.975 -15.9423 21.3572)" class="st0" cx="86.9" cy="81.5" rx="0.6" ry="0.6"/>
									</g>
									<g>
										
											<ellipse transform="matrix(0.1597 -0.9872 0.9872 0.1597 25.0698 172.8298)" class="st4" cx="114.1" cy="71.7" rx="6.5" ry="6.2"/>
										<path class="st4" d="M111.1,76.5c-1.9,0.6-2.2,1.6-0.6,2.2c1.6,0.6,4.5,0.7,6.4,0.1c1.9-0.6,2.2-1.6,0.6-2.2
											C116,75.9,113.1,75.9,111.1,76.5z"/>
										<path class="st0" d="M108.6,70.7c-0.6,3.5,1.7,6.8,5,7.3c3.3,0.5,6.5-1.9,7-5.4c0.6-3.5-1.7-6.8-5-7.3
											C112.4,64.8,109.2,67.2,108.6,70.7z"/>
										<path class="st28" d="M109.4,71.2c0.1-0.7,0.4-1.3,0.7-1.9c-0.1,0.3-0.2,0.7-0.3,1.1c-0.5,3.1,1.5,6,4.4,6.5
											c1.7,0.3,3.4-0.4,4.6-1.6c-1.1,1.6-3.1,2.6-5.1,2.3C110.9,77.1,108.9,74.2,109.4,71.2z"/>
										
											<ellipse transform="matrix(0.9751 -0.2216 0.2216 0.9751 -13.2788 27.6575)" class="st29" cx="116.6" cy="73" rx="3.3" ry="3.5"/>
										
											<ellipse transform="matrix(0.9751 -0.2219 0.2219 0.9751 -13.3767 27.9588)" class="st30" cx="117.7" cy="73.5" rx="2" ry="2.1"/>
										
											<ellipse transform="matrix(0.975 -0.2221 0.2221 0.975 -13.0428 28.122)" class="st0" cx="118.5" cy="72.1" rx="0.8" ry="0.9"/>
										
											<ellipse transform="matrix(0.9746 -0.2242 0.2242 0.9746 -13.8686 28.0498)" class="st0" cx="116.6" cy="75.1" rx="0.5" ry="0.5"/>
									</g>
								</g>
								<g>
									<path class="st3" d="M63.3,88.3c0,0-2.9-3.8-7.6-2c-4.9,2-3,9.4,1.8,12.1c4.9,2.7,10.4,0.5,10-3.6L63.3,88.3z"/>
									<path class="st4" d="M56.4,86.5c1.2-0.5,2.2-0.6,3.2-0.4c-0.7-0.1-1.5,0-2.3,0.4c-4.5,2.1-2.4,7.5,0.7,9.8
										c4.2,3.2,8.6,1.5,9.5-1.8c0.3,3.9-4.9,5.9-9.4,3.4C53.5,95.2,51.8,88.3,56.4,86.5z"/>
									<path class="st31" d="M55.9,88.6c2.6-2.3,8.5,2.5,6.3,7.9c-0.8-5.3-3.2-5.9-4.1-2.6c-0.8-1.4-0.5-2.7,1.3-3.6
										C58.2,88.6,55.9,88.6,55.9,88.6z"/>
								</g>
								<path class="st22" d="M55.2,87.1c0.8,0.7,3.9,6.1,3.7,7c1.7-3.3,0.1-6.7,0.1-6.7s5.4,3.7,13.6,1.5
									c-6.3-1.4-13.3-6.6-13.2-17.1c2.9,11.3,9.4,11.4,9.4,11.4s-10.5-12-0.1-21.5C62.7,71.2,68,75.6,68,75.6s-1-20.6,32.2-22.7
									c-0.8,4.7-12.4,8.1-12.4,8.1s11,1.8,21.5-8.7c1.9,3,8.5,8.4,14.6,8.9c-3.3-3.6-7.4-8.5-7.4-8.5s7.4,3.3,10.7,13.2
									c-1.7-12-6.7-20.8-6.7-20.8s-12.7-14.9-23.4-15.3c0.5-1.5-35.4-2.9-40.9,13.1c-10.5-1.7-10.6,16.7-11.3,23.4
									C50.1,76.7,53.9,88.6,50,93C54.1,91,55.2,87.1,55.2,87.1z"/>
								<path class="st32" d="M120.5,45.2c0,0-11.4-13.5-21.8-15.2c-0.1,0-0.1,0-0.2,0c-0.1,0-0.2-0.1-0.3-0.1
									c-0.4-0.1-0.8-0.1-1.2-0.1c0.5-1.5-35.4-2.9-40.9,13.1C45.7,41.2,42.3,59,44.9,66.3c2,4.1,4.9,11.8,6.1,15.8
									c3.6-9.8,11.2-19.9,11.2-19.9s3.8-3.1,10.1-7.6c15.1-9.4,36.5-15.6,50.4-3.9c0.1-0.1,0.2-0.1,0.2-0.2
									C121.6,47.1,120.5,45.2,120.5,45.2z"/>
								<path class="st33" d="M59.2,45.1c4.6-15,16-18.5,28.1-16c-18.2,1.7-22,11.4-25.5,16.3c12.5-7.5,18.7-3.7,18.7-3.7
									S70.4,41,61.6,49.2c-3,2.8-7.9,6.8-8.4,20.4c-6.1-15,5.7-21.8,5.7-21.8S48.8,49.5,45.7,58C47.4,45.4,59.2,45.1,59.2,45.1z"
									/>
								<g>
									<path class="st34" d="M61.8,60.3c0,0-7.9,10.3-11.3,20.5C37.7,60.7,41.8,34,67.3,25.6c22.2-7.3,32.9,3.6,39.5,6.1
										C82.5,43.5,61.8,60.3,61.8,60.3z"/>
									<path class="st35" d="M59.3,62.6c10.8-10.2,45.2-33.7,62.6-19c10.1-8,8.9-17.7-6.9-18.9C96.4,23.3,68.5,34.6,59.3,62.6z"/>
									<path class="st36" d="M61.8,60.3c16.3-13,43-26.2,60.5-11.5c10.1-8,11.2-23-6.9-23.3C101.5,25.3,72.3,32.9,61.8,60.3z"/>
									<path class="st36" d="M61.8,29.8c-5.4,3-24.5,19.5-12.7,42.9c2.7-7.9,11-13.2,11-13.2s-9.8,4.5-10.9-5.5
										C47.8,41,61.8,29.8,61.8,29.8z"/>
									<path class="st37" d="M114.9,27.4c-8.8,1-32.4,1.5-49.6,28.9c8-6.5,19.9-17,45.2-14.2c-7.5-3.4-24.7,0.2-20.9-4
										C96.1,31.1,114.9,27.4,114.9,27.4z"/>
								</g>
							</g>
						</g>
					</g>
				</g>
			</g>
		</g>
	</g>
</g>
</svg>
