<?xml version="1.0" encoding="utf-8"?>
<!-- Generator: Adobe Illustrator 21.0.0, SVG Export Plug-In . SVG Version: 6.00 Build 0)  -->
<svg version="1.1" id="Layer_1" xmlns="http://www.w3.org/2000/svg" xmlns:xlink="http://www.w3.org/1999/xlink" x="0px" y="0px"
	 viewBox="0 0 180 180" style="enable-background:new 0 0 180 180;" xml:space="preserve">
<style type="text/css">
	.st0{fill:#FFFFFF;}
	.st1{display:none;}
	.st2{display:inline;}
	.st3{fill:url(#SVGID_1_);}
	.st4{fill:#508906;}
	.st5{clip-path:url(#SVGID_4_);}
	.st6{fill:#FBC6A4;}
	.st7{fill:#CE7754;}
	.st8{fill:#D6E3F3;}
	.st9{fill:#BCC6D5;}
	.st10{fill:#EAAD85;}
	.st11{fill:#558FB4;}
	.st12{fill:#3C789E;}
	.st13{fill:#C7C4CD;}
	.st14{fill:#316A8C;}
	.st15{fill:#919091;}
	.st16{fill:#727373;}
	.st17{fill:#A8A7A8;}
	.st18{fill:#115A78;}
	.st19{fill:#E4E0EA;}
	.st20{fill:#72301D;}
	.st21{fill:#F8AF9A;}
	.st22{fill:#FBD3C4;}
	.st23{fill:#FCD8C1;}
	.st24{fill:#712914;}
	.st25{fill:#4D1F1C;}
	.st26{fill:#321514;}
	.st27{fill:#EC756C;}
	.st28{fill:#F48F87;}
	.st29{fill:#F7B0AD;}
	.st30{fill:#D9DBDC;}
	.st31{fill:#896F68;}
	.st32{fill:#231F20;}
	.st33{fill:#8A4A37;}
	.st34{fill:#5E281A;}
	.st35{fill:#D5956A;}
	.st36{fill:#515252;}
</style>
<rect class="st0" width="180" height="180"/>
<rect class="st0" width="180" height="180"/>
<g>
	<g>
		<g>
			<g class="st1">
				<g class="st2">
					<g>
						
							<radialGradient id="SVGID_1_" cx="96.3333" cy="-108" r="167.1662" gradientTransform="matrix(1 0 0 1 0 192)" gradientUnits="userSpaceOnUse">
							<stop  offset="0.173" style="stop-color:#FFFFFF"/>
							<stop  offset="1" style="stop-color:#36CDFF;stop-opacity:0.3"/>
						</radialGradient>
						<rect id="SVGID_2_" x="0.4" y="0.1" class="st3" width="180" height="180"/>
					</g>
				</g>
			</g>
			<g>
				<g>
					<g>
						<path class="st4" d="M168.9,173.6h-2.6V173h2.6V173.6z M163.1,173.6h-2.6V173h2.6V173.6z M157.3,173.6h-2.6V173h2.6V173.6z
							 M151.5,173.6H149V173h2.6v0.6H151.5z M145.8,173.6h-2.6V173h2.6V173.6z M140,173.6h-2.6V173h2.6V173.6z M134.2,173.6h-2.6
							V173h2.6V173.6z M128.5,173.6h-2.6V173h2.6V173.6z M122.7,173.6h-2.6V173h2.6V173.6z M116.9,173.6h-2.6V173h2.6V173.6z
							 M111.2,173.6h-2.6V173h2.6V173.6z M105.4,173.6h-2.6V173h2.6V173.6z M99.6,173.6H97V173h2.6V173.6z M93.9,173.6h-2.6V173h2.6
							V173.6z M88.1,173.6h-2.6V173h2.6V173.6z M82.3,173.6h-2.6V173h2.6V173.6z M76.5,173.6H74V173h2.6L76.5,173.6L76.5,173.6z
							 M70.8,173.6h-2.6V173h2.6V173.6z M65,173.6h-2.6V173H65V173.6z M59.2,173.6h-2.6V173h2.6V173.6z M53.5,173.6h-2.6V173h2.6
							V173.6z M47.7,173.6h-2.6V173h2.6V173.6z M41.9,173.6h-2.6V173h2.6V173.6z M36.2,173.6h-2.6V173h2.6V173.6z M30.4,173.6h-2.6
							V173h2.6V173.6z M24.6,173.6H22V173h2.6V173.6z M18.9,173.6h-2.6V173h2.6V173.6z M13.1,173.6H12c-0.5,0-1-0.1-1.5-0.2l0.2-0.6
							c0.4,0.1,0.9,0.2,1.3,0.2h1.1V173.6z M171.5,172.8l-0.3-0.5c0.7-0.4,1.2-1,1.6-1.8l0.6,0.3
							C172.9,171.6,172.3,172.3,171.5,172.8z M7.8,171.3c-0.5-0.8-0.8-1.7-0.8-2.6h0.6c0,0.8,0.3,1.6,0.7,2.2L7.8,171.3z
							 M173.9,167.5h-0.6V165h0.6V167.5z M7.6,165.5H6.9V163h0.6L7.6,165.5L7.6,165.5z M173.9,161.8h-0.6v-2.6h0.6V161.8z
							 M7.6,159.8H6.9v-2.6h0.6L7.6,159.8L7.6,159.8z M173.9,156h-0.6v-2.6h0.6V156z M7.6,154H6.9v-2.6h0.6L7.6,154L7.6,154z
							 M173.9,150.2h-0.6v-2.6h0.6V150.2z M7.6,148.2H6.9v-2.6h0.6L7.6,148.2L7.6,148.2z M173.9,144.4h-0.6v-2.6h0.6V144.4z
							 M7.6,142.4H6.9v-2.6h0.6L7.6,142.4L7.6,142.4z M173.9,138.7h-0.6v-2.6h0.6V138.7z M7.6,136.7H6.9v-2.6h0.6L7.6,136.7
							L7.6,136.7z M173.9,132.9h-0.6v-2.6h0.6V132.9z M7.6,130.9H6.9v-2.6h0.6L7.6,130.9L7.6,130.9z M173.9,127.1h-0.6v-2.6h0.6
							V127.1z M7.6,125.1H6.9v-2.6h0.6L7.6,125.1L7.6,125.1z M173.9,121.4h-0.6v-2.6h0.6V121.4z M7.6,119.4H6.9v-2.6h0.6L7.6,119.4
							L7.6,119.4z M173.9,115.6h-0.6V113h0.6V115.6z M7.6,113.6H6.9V111h0.6L7.6,113.6L7.6,113.6z M173.9,109.8h-0.6v-2.6h0.6V109.8
							z M7.6,107.8H6.9v-2.6h0.6L7.6,107.8L7.6,107.8z M173.9,104.1h-0.6v-2.6h0.6V104.1z M7.6,102.1H6.9v-2.6h0.6L7.6,102.1
							L7.6,102.1z M173.9,98.3h-0.6v-2.6h0.6V98.3z M7.6,96.3H6.9v-2.6h0.6L7.6,96.3L7.6,96.3z M173.9,92.5h-0.6V90h0.6V92.5z
							 M7.6,90.5H6.9V88h0.6L7.6,90.5L7.6,90.5z M173.9,86.8h-0.6v-2.6h0.6V86.8z M7.6,84.8H6.9v-2.6h0.6L7.6,84.8L7.6,84.8z
							 M173.9,81h-0.6v-2.6h0.6V81z M7.6,79H6.9v-2.6h0.6L7.6,79L7.6,79z M173.9,75.2h-0.6v-2.6h0.6V75.2z M7.6,73.2H6.9v-2.6h0.6
							L7.6,73.2L7.6,73.2z M173.9,69.4h-0.6v-2.6h0.6V69.4z M7.6,67.4H6.9v-2.6h0.6L7.6,67.4L7.6,67.4z M173.9,63.7h-0.6v-2.6h0.6
							V63.7z M7.6,61.7H6.9v-2.6h0.6L7.6,61.7L7.6,61.7z M173.9,57.9h-0.6v-2.6h0.6V57.9z M7.6,55.9H6.9v-2.6h0.6L7.6,55.9L7.6,55.9
							z M173.9,52.1h-0.6v-2.6h0.6V52.1z M7.6,50.1H6.9v-2.6h0.6L7.6,50.1L7.6,50.1z M173.9,46.4h-0.6v-2.6h0.6V46.4z M7.6,44.4H6.9
							v-2.6h0.6L7.6,44.4L7.6,44.4z M173.9,40.6h-0.6V38h0.6V40.6z M7.6,38.6H6.9V36h0.6L7.6,38.6L7.6,38.6z M173.9,34.8h-0.6v-2.6
							h0.6V34.8z M7.6,32.8H6.9v-2.6h0.6L7.6,32.8L7.6,32.8z M173.9,29.1h-0.6v-2.6h0.6V29.1z M7.6,27.1H6.9v-2.6h0.6L7.6,27.1
							L7.6,27.1z M173.9,23.3h-0.6v-2.6h0.6V23.3z M7.6,21.3H6.9v-2.6h0.6L7.6,21.3L7.6,21.3z M173.9,17.5h-0.6V15h0.6V17.5z
							 M7.6,15.5H6.9V13h0.6L7.6,15.5L7.6,15.5z M173.9,11.8h-0.6v-0.1c0-0.8-0.2-1.5-0.6-2.2l0.6-0.3c0.4,0.8,0.7,1.6,0.7,2.5
							L173.9,11.8L173.9,11.8z M7.9,9.9L7.3,9.7c0.4-0.9,1-1.6,1.7-2.1l0.4,0.5C8.8,8.6,8.2,9.2,7.9,9.9z M170.4,7.6
							c-0.5-0.2-1-0.3-1.6-0.3H168V6.6h0.8c0.6,0,1.2,0.1,1.8,0.3L170.4,7.6z M164.8,7.3h-2.6V6.6h2.6V7.3z M159,7.3h-2.6V6.6h2.6
							V7.3z M153.3,7.3h-2.6V6.6h2.6V7.3z M147.5,7.3h-2.6V6.6h2.6V7.3z M141.7,7.3h-2.6V6.6h2.6V7.3z M136,7.3h-2.6V6.6h2.6V7.3z
							 M130.2,7.3h-2.6V6.6h2.6V7.3z M124.4,7.3h-2.6V6.6h2.6V7.3z M118.6,7.3H116V6.6h2.6V7.3z M112.9,7.3h-2.6V6.6h2.6V7.3z
							 M107.1,7.3h-2.6V6.6h2.6V7.3z M101.3,7.3h-2.6V6.6h2.6V7.3z M95.6,7.3H93V6.6h2.6V7.3z M89.8,7.3h-2.6V6.6h2.6V7.3z M84,7.3
							h-2.6V6.6H84V7.3z M78.3,7.3h-2.6V6.6h2.6V7.3z M72.5,7.3h-2.6V6.6h2.6V7.3z M66.7,7.3h-2.6V6.6h2.6V7.3z M61,7.3h-2.6V6.6H61
							V7.3z M55.2,7.3h-2.6V6.6h2.6V7.3z M49.4,7.3h-2.6V6.6h2.6V7.3z M43.6,7.3H41V6.6h2.6V7.3z M37.9,7.3h-2.6V6.6h2.6V7.3z
							 M32.1,7.3h-2.6V6.6h2.6V7.3z M26.3,7.3h-2.6V6.6h2.6V7.3z M20.6,7.3H18V6.6h2.6V7.3z M14.8,7.3h-2.6V6.6h2.6
							C14.8,6.6,14.8,7.3,14.8,7.3z"/>
					</g>
				</g>
			</g>
		</g>
	</g>
</g>
<g>
	<g>
		<g>
			<g>
				<g>
					<defs>
						<ellipse id="SVGID_3_" cx="90.6" cy="50" rx="129.7" ry="117"/>
					</defs>
					<clipPath id="SVGID_4_">
						<use xlink:href="#SVGID_3_"  style="overflow:visible;"/>
					</clipPath>
					<g class="st5">
						<g>
							<g>
								<path class="st6" d="M134,149.5c0,0,1.4,2.3,0.7,4.4c-0.6,1.6-1.2,3.3-0.2,4c1.4,1,2.5-2.4,2.5-2.4s2.4,2,2,4.5
									c-0.4,2.5,1.2,4.2,2.1,1c1.5,1.4,2.5-0.2,2.4-2c1,1.9,2.5,0.7,1.7-1.5c1,1.1,1.5-0.2,0.8-1.7c-1.4-3-5.9-7.3-8.9-7.8
									C135.9,148.7,134,149.5,134,149.5z"/>
								<path class="st7" d="M141,161.1C141,161.1,141,161.1,141,161.1c-0.2,0-0.2-0.2-0.2-0.2c0.4-1.4-0.7-3.8-0.7-3.8
									c0-0.1,0-0.2,0.1-0.3c0.1,0,0.2,0,0.3,0.1c0,0.1,1.2,2.6,0.7,4.1C141.2,161.1,141.1,161.1,141,161.1z"/>
								<path class="st7" d="M143.4,159.2c-0.1,0-0.2-0.1-0.2-0.2c0-1.5-1.5-3.3-1.5-3.3c-0.1-0.1-0.1-0.2,0-0.3
									c0.1-0.1,0.2-0.1,0.3,0c0.1,0.1,1.6,2,1.6,3.6C143.6,159.1,143.5,159.2,143.4,159.2z"/>
								<path class="st7" d="M145.1,157.6c-0.1,0-0.2-0.1-0.2-0.1c-0.4-1.6-1.8-3.1-1.8-3.1c-0.1-0.1-0.1-0.2,0-0.3
									c0.1-0.1,0.2-0.1,0.3,0c0.1,0.1,1.4,1.6,1.9,3.2C145.3,157.5,145.2,157.6,145.1,157.6C145.1,157.6,145.1,157.6,145.1,157.6z
									"/>
							</g>
							<g>
								<path class="st8" d="M92.7,111.7c-6.5,3-14.2,7.7-9.8,17.7c5.8,13.2,2.5,22.6,0.7,33.9c8.3,4.4,33.9,1.2,43.4-4.4
									c-7.3-21.7-1.6-36.1-9-43.5C112.4,109.9,100.4,108.1,92.7,111.7z"/>
								<g>
									<g>
										<g>
											<path class="st9" d="M103.2,165c2.2-27.8-11.1-50.6-12.2-52.5c-6,3.1-12.1,7.7-8.1,16.8c5.8,13.2,2.5,22.6,0.7,33.9
												C87.4,165.4,95.1,165.8,103.2,165z"/>
										</g>
										<g>
											<path class="st9" d="M121.2,136.6c-1-6.9-1.1-16.8-2.9-20.7c-0.1-0.1-0.3-0.3-0.4-0.4c-1.5-1.5-3.6-2.8-5.9-3.7
												c-1.2-0.4-2.3-0.8-3.2-1c-0.7-0.2-1.3-0.3-2-0.4c0.6,2.1,8.6,32.2,9.5,52.5c3.6-0.9,6.9-2,9.4-3.3
												C124.7,155.1,122.2,142.8,121.2,136.6z"/>
										</g>
									</g>
								</g>
							</g>
							<g>
								<path class="st6" d="M118.4,180.1c0,0,3.2,15.7,12.8,33.9c-1,1.6-4.1,2.9-4.1,2.9s-13.2-23.8-14.7-37.4
									C114.2,177.7,118.4,180.1,118.4,180.1z"/>
								<path class="st10" d="M113.3,182c0,0,0.6,2.4,1.3,4.6c0.3-3.4,2.3-4,4.6-1.4c-0.6-2.1-1-4-1-4L113.3,182z"/>
								<path class="st8" d="M120.8,204.7c0.3-1.4,2.9-3.2,4.7-2.7c1.3,3,5.5,10.9,6.7,12.5c-1.9,2.4-6,3.6-6,3.6L120.8,204.7z"/>
							</g>
							<g>
								<path class="st6" d="M100.2,184c0,3.5-2.6,17.9-16.6,19c-2.6-0.8-2.6-3.5-2.6-3.5s1-0.2,1.9-0.7c8.6-1.7,11.1-10.7,10.5-18
									C95.7,180.6,100.2,184,100.2,184z"/>
								<path class="st10" d="M93.9,182.1c0,0,0.2,2.4-0.3,4.6c2.6-2.8,4.8-1.3,5.3,2.1c0.8-3.1,0.4-4.6,0.4-4.6L93.9,182.1z"/>
								<path class="st8" d="M84.1,198.6c0,0-0.6,2.3,1.4,4.3c-2.1,0.5-5.4,0.7-8-0.1c-2.1-2-0.5-4.8-0.5-4.8S79.5,199.4,84.1,198.6
									z"/>
							</g>
							<g>
								<path class="st11" d="M77,197.8c-0.6,0.6-1.8,4.6,1.5,5.2c1.3,1,2.6,8,0.3,9.4c-2.6,1.6-6.2-0.8-7.3-4.5
									c-1.5-4.7-1.7-8.2,0.2-10.3C73.5,196.7,77,197.8,77,197.8z"/>
								<path class="st12" d="M72.4,198.4c-1.9,2.1-1.7,5.6-0.2,10.3c0.4,1.1,0.9,2.1,1.6,2.9c1.1,1,2.4,1.5,3.6,1.3
									c-0.9-0.9,2.5-0.3,1.5-1.3c-6.6-6.2-5.2-10.3-3.3-12.4c0.3-0.1,0.6-0.2,0.9-0.3c0.1-0.3,0.2-0.5,0.2-0.7
									C75.6,198,73.6,197.7,72.4,198.4z"/>
								<path class="st13" d="M73.3,206.8c-1.4-3.2-1.8-7.3-0.5-9.4c-0.4,0-1.4-0.1-1.7,0.1c-1.9,2.1-1.5,6.1,0.2,10.4
									c1.3,3.6,5,6.2,7.4,5.1c0.3-0.2,0.7-0.9,0.9-1.3C77.2,212.3,74.6,209.8,73.3,206.8z"/>
							</g>
							<path class="st14" d="M119.3,114.7c0,0,4.9,3.7,8.8,12.9c4.7,11.2,11.8,20.6,11.8,20.6s-4.3,1.2-5.8,4.7
								c-11.8-13.3-12.6-22.9-12.6-22.9S120.6,119.2,119.3,114.7z"/>
							<g>
								<g>
									<g>
										<g>
											<path class="st6" d="M99.9,106.2l0.6,3.5c0,0,2.1,0,3.9,0.2c1.8,0.1-0.6,4.1-4.3,4.8c-4.8,0.9-6.4-3.4-6.4-3.4l3.5-1
												l-0.1-3.8L99.9,106.2z"/>
										</g>
									</g>
								</g>
								<path class="st10" d="M97.2,109.4c0.9,0.1,2,0,2.9-0.1c0.1,0,0.3,0,0.4-0.1l-0.5-3l-2.9,0.2L97.2,109.4z"/>
							</g>
							<g>
								<path class="st0" d="M96.3,110.5c-0.4,1,0.7,4.1,4.4,4.1c0.4,3.4-4.6,5.5-7.1,3.2c-2.7-2.6-1.7-5.7-1.7-5.7
									S94.7,110.3,96.3,110.5z"/>
								<path class="st0" d="M102.2,109.7c0.6,0.6,1.5,3.9-1.5,4.9c1.3,2,5.3,2.7,6.6,1.6c2.6-2.2,0.8-5.6-1.1-6.2
									C104.4,109.3,102.2,109.7,102.2,109.7z"/>
							</g>
							<g>
								<path class="st15" d="M86.2,162.6c-3.2,3.8-7.4,13.1-8.4,19c1.8,2.4,6.9,3.5,10.6,1.9c3.7-1.6,7.5-0.7,10.4,1.8
									c2.9,2.4,9.6,1.7,12.6-1c3-2.7,6.3-2.1,10.2-0.9c3.9,1.2,6.1-2.4,7.9-4.4c1.8-2,7.2,0.2,8.3-1.7
									c-4.2-10.1-10.8-16.9-14.3-20.5C116.1,155.1,92.1,159.6,86.2,162.6z"/>
								<path class="st16" d="M123.2,156.6c-7.4-1.4-30.5,2.9-36.7,5.8c-1.1,2.6-4.5,11.1-6.4,17.7c0.6,1.7,4.6,3.5,9.6,0
									c-3.9-1.2-8.1-5.2-1.3-11.8C94.8,162.1,120.5,156.5,123.2,156.6z"/>
								<path class="st16" d="M104.7,164.9c3.3,3.3,5.2,14.6,1.2,16.6C101.8,183.5,102.8,163,104.7,164.9z"/>
								<path class="st16" d="M115.8,163.7c0,0,10,10.8,6.6,14.1C118.8,181.1,112.7,163.7,115.8,163.7z"/>
								<path class="st17" d="M126.1,163.2c0,0,8.8,8.1,6.2,10.9C129.7,177,123.6,163.4,126.1,163.2z"/>
								<path class="st17" d="M95.3,168.6c0,0,3.1,11.5-0.6,12.6C91,182.2,93.1,167.4,95.3,168.6z"/>
							</g>
							<g>
								<path class="st11" d="M89.6,113.2c0,0,15.2,24.6,12.1,54.5c-6,0.9-16.3,2.2-21.4-0.1c0.5-8,7.1-17.3-2.2-39.8
									C76.2,123.3,79.3,119.2,89.6,113.2z"/>
								<path class="st12" d="M82,131.8c1.7,3.9,8.7,15,6.9,23.1c-1.7,8.1,12,11,12,11s-10,2.7-18.3,0.4C87,149.1,82,131.8,82,131.8
									z"/>
							</g>
							<g>
								<path class="st11" d="M108.7,110.4c0,0,9.1,33.5,9.6,54.5c3.9-0.5,9.9-3.6,9.9-3.6s-3.9-16.8-5-24.5
									c-1.2-7.7-1.2-19.3-3.6-21.8C117.1,112.4,108.7,110.4,108.7,110.4z"/>
								<path class="st12" d="M120.8,127.2c0,0,4.6,29.4,6,33.4c-2.8,2.1-7.7,2.3-7.7,2.3S125.2,160.5,120.8,127.2z"/>
							</g>
							<g>
								<path class="st6" d="M84.3,142.6c0,0,3.1-0.5,4.9-1.4c0-1.8,0.5-3.2,2.1-3.3c0.3,0.9,0.2,1.8,0.2,1.8s6.7-2.3,7.5-0.6
									c0.5,1.1-0.3,1.5-0.3,1.5s2.5,1.4-0.6,2.3c2.3,1.3,0.7,2.2-0.5,2.6c1.8,1.2,0.1,2.3-1.2,2.2c-2.4-0.2-6.8-0.7-6.8-0.7
									s-3.2,0.8-5.3,0.6C82.3,147.5,84.3,142.6,84.3,142.6z"/>
								<path class="st10" d="M86.1,142.6c0,0,1.8-0.4,3-0.9c-0.9,1.7-1.3,4.6,1,4.6c-1.9,0.5-4.7,0.8-4.7,0.8L86.1,142.6z"/>
							</g>
							<path class="st14" d="M81,119.3c-4.6,2.2-13,15.2-10,24.1c3.2,9.3,15.4,6.1,15.4,6.1s2.7-5.3,0.5-8.1
								c-3.6,0.6-8.2,0.4-8.2-3.2s1.8-7.2,1.8-7.2S83,123.9,81,119.3z"/>
							<path class="st18" d="M73.6,140.7c-1.6-4.7,0.4-11.1,3.6-15.3c-4.2,4.4-7.2,12.1-5.2,17.8c3,8.6,14.4,5.6,14.4,5.6
								s0.5-1,0.9-2.3C84,146.6,76.1,147.7,73.6,140.7z"/>
							<g>
								<path class="st11" d="M125,215c5.9-5.1,15.7-10.8,17.2-1.6c-1.4,3.8-7.4,6.8-14.2,7C126.6,220.5,124.7,219.3,125,215z"/>
								<path class="st12" d="M128.8,218.8c5.9-0.1,11.1-2.4,13.3-5.4c-0.3-1.5-0.8-2.6-1.5-3.4c-2.7,1.7-6.4,2.8-10.5,2.9
									c-0.5,0-1.1-0.2-1.7-0.6c-1,0.7-1.9,1.4-2.8,2.1C125.9,217.8,127.6,218.8,128.8,218.8z"/>
								<path class="st19" d="M142.7,214.4c0-0.2,0.1-1-0.6-2c-4-3.5-15.2,4.3-16.5,6.5c0.1,1.2,0.9,2.1,1.7,2.1
									C134.1,220.9,141.2,218.2,142.7,214.4z"/>
								<path class="st13" d="M142.7,214.7c0-0.2-0.1-0.4-0.1-0.6c-4-3.5-15.1,4.1-16.3,6.3c0.6,1,1.5,1.3,2.3,1.3
									C135.3,221.6,141.2,218.6,142.7,214.7z"/>
							</g>
							<g>
								<path class="st20" d="M99,29.7c-3.6-0.5-2.1-4.4,2.7-4.8c-8.9-13.5,6.4-11.6,9.5-5.9c1.1-11.2,14.9-7.2,10.7,1.5
									c6.9-0.8,1.8,8.2-5,7.7c-0.4,2.7-7.3,6.7-7.3,6.7L99,29.7z"/>
								<path class="st20" d="M53.9,47.6c2.3-2.8-1.4-4.6-5.3-1.7c-2.5-16-12.5-4.2-11,2c-8.4-7.5-15.8,4.8-6.8,8.3
									c-5.7,4.1,4.2,7.2,8.8,2.3c2.1,1.7,9.9,0,9.9,0L53.9,47.6z"/>
								<path class="st11" d="M48.3,43.3c-2.9,0.3-10.6,10.6-8.7,15.3c1.8,3,4.3,2.8,4.3,2.8l7.9-16.9
									C51.8,44.4,52.1,42.9,48.3,43.3z"/>
								<path class="st11" d="M115.6,30.6c-0.2-2.9-10.2-11.1-14.9-9.3c-3.1,1.7-2.9,4.2-2.9,4.2l16.6,8.6
									C114.3,34.1,115.8,34.4,115.6,30.6z"/>
								<g>
									<g>
										<path class="st6" d="M123.5,54.2c5.1,9.2,11.1,38.7-15,50.5c-26,11.8-44.3-4.4-51.9-22.5c-9.1-21.9,6.2-39.4,21.8-44.5
											C102.8,29.7,116.7,41.9,123.5,54.2z"/>
										<path class="st10" d="M123.5,54.2c-6.8-12.4-20.7-24.6-45-16.5c-15.6,5.2-30.9,22.6-21.8,44.5c1,2.4,2.1,4.7,3.5,6.9
											c12.6-12.7,10.1-31.5,10.1-31.5c9.2,13.7,29.6-0.1,33.6-5.2c8-10.2,20,1.1,22.3,9.9c0.2,0.2,0.3,0.4,0.5,0.6
											C125.8,59.3,124.6,56.3,123.5,54.2z"/>
										<path class="st21" d="M112.6,79.9c0.5,2.5,4.5,3.6,8,2c3.5-1.6,4.9-5,4.1-7.9c-0.7-2.6-4.5-4.1-7.6-0.7
											C114.2,76.5,112.1,77.4,112.6,79.9z"/>
										
											<ellipse transform="matrix(0.9711 -0.2387 0.2387 0.9711 -14.0978 31.3331)" class="st22" cx="122.3" cy="73.9" rx="0.8" ry="0.6"/>
										
											<ellipse transform="matrix(0.971 -0.2389 0.2389 0.971 -15.3878 26.2543)" class="st23" cx="100.6" cy="76.6" rx="0.9" ry="0.6"/>
										<path class="st21" d="M72.6,89.3c0.9,3.3,4.7,4.8,9,4c4.2-0.8,7.7-4.9,6.2-7.8c-1.4-2.8-3.4-1.2-8.7-1.8
											C74.1,83.1,71.6,86,72.6,89.3z"/>
										
											<ellipse transform="matrix(0.9617 -0.2742 0.2742 0.9617 -20.865 24.1174)" class="st22" cx="75.8" cy="86.7" rx="0.7" ry="0.6"/>
										<path class="st24" d="M111.2,55.1c-4.1-0.8-4.5,3.7-1.9,3.4c2.8-0.3,5.3,0.6,5.6,0.2C115.6,58.2,113.4,55.6,111.2,55.1z"
											/>
										<path class="st24" d="M75.2,64.3c3.1-2.7,5.7,0.9,3.4,2c-2.6,1.2-4.2,3.2-4.7,3.1C72.9,69.2,73.4,65.9,75.2,64.3z"/>
										<path class="st10" d="M56.2,81.5c-2.4-6.2-1.7-11.9,0.7-17.1c-1.1,4.2-1,9.8,0.9,14.7c7,18,26.8,34.3,50.4,22.8
											c16.2-7.9,18.8-24.3,17.9-36.6c1.7,12.4,1,28-17.8,38C86.1,115.2,63.1,99.6,56.2,81.5z"/>
									</g>
									<g>
										<path class="st25" d="M109,82.3c0,0,3.7,14.4-6.5,17.3c-10.2,2.9-10.9-11.8-10.9-11.8S99.5,88.6,109,82.3z"/>
										<path class="st26" d="M99.8,86.6c0.3,3.7-0.1,9-3.9,11.8c-3.9-3.3-4.3-10.7-4.3-10.7S94.9,88.1,99.8,86.6z"/>
										<path class="st27" d="M108.1,95.2c-1.1,2-2.8,3.6-5.6,4.4c-5,1.4-7.8-1.4-9.2-4.7c0.3-0.7,1.9-1.7,3.6-1.1
											C98.3,90.7,105.1,92.1,108.1,95.2z"/>
										<path class="st28" d="M95,94.3c0.7-0.4,1.8-0.3,2.2-0.1c0.3-0.6,0.7-1.4,2.3-1.6c3.8-0.6,9,2.9,4.3,5.3
											C99.1,100.4,92.3,95.9,95,94.3z"/>
										<path class="st29" d="M103,93.7c-0.9-0.7-3-1-3.5-0.4c-0.6,0.7,1.3,1.5,2.4,1.5C103.1,94.9,103.6,94.2,103,93.7z"/>
										<path class="st0" d="M106.2,84c0.6,1.5,0.5,2.7-1.5,3.8c-1.8,1-4.5,1.9-6.5,2.1c-2.3,0.3-3.6-0.6-3.7-2.2
											C98.5,87.2,101.6,86.3,106.2,84z"/>
									</g>
									<path class="st7" d="M101.3,80.6c0,0,0.1,0,0.1,0c1.2-0.8,1.8-2,1.4-3.3c-0.3-1.2-1.4-2.1-2.4-2.1c-0.6,0-1.8,0.3-2.5,2.6
										c0,0.1,0,0.2,0.1,0.2c0.1,0,0.2,0,0.2-0.1c0.5-1.5,1.2-2.3,2.2-2.3c0.9,0,1.8,0.8,2,1.8c0.1,0.5,0.3,1.9-1.3,2.9
										c-0.1,0.1-0.1,0.2-0.1,0.3C101.2,80.5,101.2,80.6,101.3,80.6z"/>
									<g>
										
											<ellipse transform="matrix(0.6235 -0.7819 0.7819 0.6235 -28.0465 91.982)" class="st10" cx="81.5" cy="75.1" rx="6.4" ry="6.8"/>
										<path class="st10" d="M78.8,79.5c-2,0.7-2.2,1.8-0.5,2.3c1.7,0.6,4.7,0.5,6.7-0.2c2-0.7,2.2-1.8,0.5-2.3
											C83.8,78.7,80.8,78.8,78.8,79.5z"/>
										<path class="st0" d="M85.6,69.9c2.8,2.3,3.4,6.3,1.3,9c-2.1,2.7-6.2,3-9,0.8c-2.8-2.3-3.4-6.3-1.3-9
											C78.7,67.9,82.8,67.6,85.6,69.9z"/>
										<path class="st30" d="M76.2,73.7c0,1.7,0.8,3.4,2.3,4.6c2.5,2,6.1,1.7,8-0.7c0.5-0.7,0.9-1.4,1-2.2c0,1.2-0.4,2.3-1.1,3.3
											c-1.9,2.4-5.5,2.7-8,0.7C76.6,78,75.8,75.7,76.2,73.7z"/>
										
											<ellipse transform="matrix(0.9639 -0.2664 0.2664 0.9639 -17.2336 24.4067)" class="st31" cx="81.3" cy="75.7" rx="3.4" ry="3.6"/>
										<path class="st32" d="M83.3,75.3c0.3,1.2-0.3,2.4-1.4,2.7c-1.1,0.3-2.3-0.4-2.6-1.6c-0.3-1.2,0.3-2.4,1.4-2.7
											C81.8,73.4,83,74.1,83.3,75.3z"/>
										
											<ellipse transform="matrix(0.9641 -0.2655 0.2655 0.9641 -16.758 24.4971)" class="st0" cx="82.2" cy="74.2" rx="0.9" ry="0.9"/>
										
											<ellipse transform="matrix(0.9638 -0.2667 0.2667 0.9638 -17.8135 24.2925)" class="st0" cx="80.5" cy="77.7" rx="0.5" ry="0.5"/>
									</g>
									<g>
										<path class="st10" d="M105.3,66.6c-0.4,3.6,2,6.8,5.4,7.2c3.4,0.4,6.4-2.2,6.9-5.8c0.4-3.6-2-6.8-5.4-7.2
											C108.8,60.4,105.7,63,105.3,66.6z"/>
										<path class="st10" d="M108.8,72.2c-1.9,0.7-2.1,1.7-0.5,2.2c1.6,0.6,4.5,0.4,6.4-0.2c1.9-0.7,2.1-1.7,0.5-2.2
											C113.5,71.4,110.7,71.5,108.8,72.2z"/>
										<path class="st0" d="M106,66.5c-0.4,3.5,2,6.7,5.3,7.1c3.3,0.4,6.4-2.2,6.8-5.7c0.4-3.5-2-6.7-5.3-7.1
											C109.4,60.4,106.4,63,106,66.5z"/>
										<path class="st30" d="M106.8,67c0.1-0.7,0.3-1.4,0.6-1.9c-0.1,0.4-0.2,0.7-0.2,1.1c-0.4,3.1,1.7,5.9,4.7,6.2
											c1.7,0.2,3.4-0.5,4.5-1.8c-1.1,1.7-2.9,2.7-5,2.5C108.5,72.8,106.4,70,106.8,67z"/>
										<path class="st31" d="M107.9,68.9c0.5,1.9,2.3,3,4.1,2.5c1.8-0.5,2.8-2.4,2.2-4.2c-0.5-1.9-2.4-3-4.1-2.5
											C108.4,65.2,107.4,67,107.9,68.9z"/>
										
											<ellipse transform="matrix(0.9636 -0.2672 0.2672 0.9636 -14.1709 32.1876)" class="st32" cx="111.2" cy="68.2" rx="2" ry="2.1"/>
										<path class="st0" d="M111.1,66.9c0.1,0.5,0.6,0.7,1,0.6c0.4-0.1,0.7-0.6,0.6-1.1c-0.1-0.5-0.6-0.7-1-0.6
											C111.2,66,111,66.4,111.1,66.9z"/>
										
											<ellipse transform="matrix(0.9631 -0.2691 0.2691 0.9631 -14.7226 32.2097)" class="st0" cx="110.1" cy="69.8" rx="0.5" ry="0.5"/>
									</g>
								</g>
								<g>
									<path class="st20" d="M86.4,22.3C61,24.6,54.8,40.9,54.8,40.9s-9.1,2.1-12.3,16.6c-3.6,16.8,5.6,26.4,14.3,35.4
										c19.1-11.4,11.9-37.2,11.9-37.2c9.4,14,30.2-0.1,34.3-5.3c8.2-10.4,20.4,1.1,22.7,10.1C130.7,42,110.7,20.2,86.4,22.3z"/>
									<path class="st33" d="M55.3,47.2c-2.8-1.2-12.6,13.2-7.2,24.3c0.5-9.4,3.7-13.3,3.7-13.3s-3.6,7.1,0.7,20.1
										C54.5,62.7,60,57.3,60,57.3s-2.2,11.5-4.4,17.8c8.4-10.5,9.1-24,6.3-26.4c-2.8-1.9-8,11.1-8,11.1S57.7,48.3,55.3,47.2z"/>
									<path class="st33" d="M62.5,39.1c5.5-8.2,16.4-17.9,39.9-12.4c-12-0.8-19.7,3.3-19.7,3.3s26.4-2.3,37.1,10.8
										c-9.2-7.2-28.4-10.4-43.8-3.3c10.1,2,24.4,1.4,24.4,1.4s-21.2,7.3-30.2,1.9c7.1,6.6,16.3,7.5,16.3,7.5S70,49,63.8,40.7
										c4.1-4,9.6-7.3,19.2-8.6C74.3,28.9,62.5,39.1,62.5,39.1z"/>
									<path class="st34" d="M65.7,52.1c0,0.8,8.6,26.5-11,40.6c-8.6-7.5-8.9-18.2-8.9-18.2s4.7,9,9.2,6.3
										C68.4,72.5,65.7,52.1,65.7,52.1z"/>
									<path class="st34" d="M68.3,51.1c7.5,7.2,20.3,7.1,29.4-1.6c9.1-8.7,14.7-6.5,17.5-3.5c-4.5-2-8-2.4-13.5,3
										C89.4,61.1,74,63.4,68.3,51.1z"/>
								</g>
								<g>
									<path class="st6" d="M63.1,86.4c0,0-3.1-3.7-7.7-1.6c-4.8,2.2-2.6,9.5,2.4,12c5,2.5,10.4,0.1,9.8-4.1L63.1,86.4z"/>
									<path class="st10" d="M56.1,84.9c1.2-0.5,2.2-0.7,3.1-0.6c-0.7,0-1.5,0.1-2.3,0.5c-4.4,2.3-2,7.6,1.1,9.7
										c4.3,3,8.6,1.1,9.4-2.3c0.5,3.8-4.6,6.1-9.2,3.8C53.7,93.7,51.6,87,56.1,84.9z"/>
									<path class="st35" d="M55.7,87.1c2.5-2.4,8.6,2.1,6.7,7.6c-1-5.2-3.4-5.7-4.2-2.4c-0.8-1.4-0.7-2.7,1.2-3.6
										C58,86.9,55.7,87.1,55.7,87.1z"/>
								</g>
								<path class="st11" d="M62.6,65.1c-4-1.8-10.2-1.6-10.8-0.5c-0.1,1.5,5.6,5.4,10.5,4.7C65.8,68.8,64.9,66.1,62.6,65.1z
									 M62.2,67.2c-0.5,1.8-7.6-1-7.6-1.7c0-0.5,2.8-0.3,4.3-0.1C60.8,65.8,62.4,66.4,62.2,67.2z"/>
								<path class="st11" d="M122.1,45.2c-0.6-3.8-3.6-8.4-4.6-8.4c-1.1,0.6-1.2,6.7,1.5,10C120.9,49.3,122.4,47.4,122.1,45.2z
									 M120.4,45.8c-1.5,0.4-2.8-6.2-2.3-6.5c0.3-0.2,1.5,2,2,3.2C120.7,44.2,121,45.7,120.4,45.8z"/>
								<g>
									<path class="st36" d="M80.5,88.2c-6.8-1.3-11.3-7.9-10.1-14.8c1.2-6.9,7.9-11.6,14.8-10.4l0.2,0
										c6.8,1.3,11.3,7.9,10.1,14.8c-1.2,6.9-7.9,11.6-14.8,10.4L80.5,88.2z M85.1,64.5l-0.2,0c-6.2-1.1-12.1,3-13.2,9.2
										c-1.1,6.1,3,12,9,13.2l0.2,0c6.2,1.1,12.1-3.1,13.2-9.2C95.2,71.6,91.2,65.6,85.1,64.5z"/>
									<path class="st36" d="M110.5,79.5c-6.8-1.3-11.3-7.9-10.1-14.8c1.2-6.9,7.9-11.6,14.8-10.4l0.2,0
										c6.8,1.3,11.3,7.9,10.1,14.8c-1.2,6.9-7.9,11.6-14.8,10.4L110.5,79.5z M115.1,55.8l-0.2,0c-6.2-1.1-12.1,3-13.2,9.2
										c-1.1,6.1,3,12,9,13.2l0.2,0c3,0.5,6-0.1,8.5-1.9c2.5-1.7,4.2-4.4,4.7-7.4C125.2,62.9,121.2,57,115.1,55.8z"/>
									<path class="st36" d="M94.2,71.9c-0.2,0-0.5-0.2-0.5-0.5c-0.1-0.4,0.1-0.7,0.5-0.9l6.6-1.9c0.4-0.1,0.7,0.1,0.8,0.5
										c0.1,0.4-0.1,0.7-0.5,0.8l-6.6,1.9C94.4,71.9,94.3,71.9,94.2,71.9z"/>
									<path class="st36" d="M63.7,86.9c-0.2,0-0.3-0.1-0.4-0.3c-0.2-0.3-0.1-0.7,0.2-1l8-5.3c0.3-0.2,0.7-0.1,1,0.2
										c0.2,0.3,0.1,0.7-0.2,1l-8,5.3C64,86.9,63.8,87,63.7,86.9z"/>
									<path class="st36" d="M124.4,63.7c-0.2,0-0.4-0.2-0.5-0.5c-0.1-0.4,0.1-0.8,0.4-0.9l2.2-0.7c0.4-0.1,0.7,0.1,0.9,0.4
										c0.1,0.4-0.1,0.7-0.4,0.9l-2.2,0.7C124.6,63.7,124.5,63.7,124.4,63.7z"/>
								</g>
							</g>
						</g>
					</g>
				</g>
			</g>
		</g>
	</g>
</g>
</svg>
