<?xml version="1.0" encoding="utf-8"?>
<!-- Generator: Adobe Illustrator 21.0.0, SVG Export Plug-In . SVG Version: 6.00 Build 0)  -->
<svg version="1.1" id="Layer_1" xmlns="http://www.w3.org/2000/svg" xmlns:xlink="http://www.w3.org/1999/xlink" x="0px" y="0px"
	 viewBox="0 0 180 180" style="enable-background:new 0 0 180 180;" xml:space="preserve">
<style type="text/css">
	.st0{fill:#FFFFFF;}
	.st1{display:none;}
	.st2{display:inline;}
	.st3{fill:url(#SVGID_1_);}
	.st4{fill:#508906;}
	.st5{clip-path:url(#SVGID_4_);}
	.st6{fill:#FBC6A4;}
	.st7{fill:#E8AC84;}
	.st8{fill:#35B78B;}
	.st9{fill:#67C2A0;}
	.st10{fill:#8CCFB7;}
	.st11{fill:#1E9670;}
	.st12{fill:#7DB5A0;}
	.st13{fill:#197D5B;}
	.st14{fill:#DC9E76;}
	.st15{fill:#DCDEDF;}
	.st16{fill:#A38F88;}
	.st17{fill:#221F1F;}
	.st18{fill:#412820;}
	.st19{fill:#383638;}
	.st20{fill:#4D201C;}
	.st21{fill:#311615;}
	.st22{fill:#EB756C;}
	.st23{fill:#F48F86;}
	.st24{fill:#F7AFAC;}
	.st25{fill:#D4946A;}
	.st26{fill:#43322C;}
	.st27{fill:#715E53;}
	.st28{fill:#32241D;}
	.st29{fill:#CD7754;}
</style>
<rect class="st0" width="180" height="180"/>
<rect class="st0" width="180" height="180"/>
<g>
	<g>
		<g>
			<g class="st1">
				<g class="st2">
					<g>
						
							<radialGradient id="SVGID_1_" cx="96.3333" cy="287" r="167.1662" gradientTransform="matrix(1 0 0 -1 0 371)" gradientUnits="userSpaceOnUse">
							<stop  offset="0.173" style="stop-color:#FFFFFF"/>
							<stop  offset="1" style="stop-color:#36CDFF;stop-opacity:0.3"/>
						</radialGradient>
						<rect id="SVGID_2_" x="0.4" y="0.1" class="st3" width="180" height="180"/>
					</g>
				</g>
			</g>
			<g>
				<g>
					<g>
						<path class="st4" d="M168.9,173.6h-2.6V173h2.6V173.6z M163.1,173.6h-2.6V173h2.6V173.6z M157.3,173.6h-2.6V173h2.6V173.6z
							 M151.5,173.6H149V173h2.6v0.6H151.5z M145.8,173.6h-2.6V173h2.6V173.6z M140,173.6h-2.6V173h2.6V173.6z M134.2,173.6h-2.6
							V173h2.6V173.6z M128.5,173.6h-2.6V173h2.6V173.6z M122.7,173.6h-2.6V173h2.6V173.6z M116.9,173.6h-2.6V173h2.6V173.6z
							 M111.2,173.6h-2.6V173h2.6V173.6z M105.4,173.6h-2.6V173h2.6V173.6z M99.6,173.6H97V173h2.6V173.6z M93.9,173.6h-2.6V173h2.6
							V173.6z M88.1,173.6h-2.6V173h2.6V173.6z M82.3,173.6h-2.6V173h2.6V173.6z M76.5,173.6H74V173h2.6L76.5,173.6L76.5,173.6z
							 M70.8,173.6h-2.6V173h2.6V173.6z M65,173.6h-2.6V173H65V173.6z M59.2,173.6h-2.6V173h2.6V173.6z M53.5,173.6h-2.6V173h2.6
							V173.6z M47.7,173.6h-2.6V173h2.6V173.6z M41.9,173.6h-2.6V173h2.6V173.6z M36.2,173.6h-2.6V173h2.6V173.6z M30.4,173.6h-2.6
							V173h2.6V173.6z M24.6,173.6H22V173h2.6V173.6z M18.9,173.6h-2.6V173h2.6V173.6z M13.1,173.6H12c-0.5,0-1-0.1-1.5-0.2l0.2-0.6
							c0.4,0.1,0.9,0.2,1.3,0.2h1.1V173.6z M171.5,172.8l-0.3-0.5c0.7-0.4,1.2-1,1.6-1.8l0.6,0.3
							C172.9,171.6,172.3,172.3,171.5,172.8z M7.8,171.3c-0.5-0.8-0.8-1.7-0.8-2.6h0.6c0,0.8,0.3,1.6,0.7,2.2L7.8,171.3z
							 M173.9,167.5h-0.6V165h0.6V167.5z M7.6,165.5H6.9V163h0.6L7.6,165.5L7.6,165.5z M173.9,161.8h-0.6v-2.6h0.6V161.8z
							 M7.6,159.8H6.9v-2.6h0.6L7.6,159.8L7.6,159.8z M173.9,156h-0.6v-2.6h0.6V156z M7.6,154H6.9v-2.6h0.6L7.6,154L7.6,154z
							 M173.9,150.2h-0.6v-2.6h0.6V150.2z M7.6,148.2H6.9v-2.6h0.6L7.6,148.2L7.6,148.2z M173.9,144.4h-0.6v-2.6h0.6V144.4z
							 M7.6,142.4H6.9v-2.6h0.6L7.6,142.4L7.6,142.4z M173.9,138.7h-0.6v-2.6h0.6V138.7z M7.6,136.7H6.9v-2.6h0.6L7.6,136.7
							L7.6,136.7z M173.9,132.9h-0.6v-2.6h0.6V132.9z M7.6,130.9H6.9v-2.6h0.6L7.6,130.9L7.6,130.9z M173.9,127.1h-0.6v-2.6h0.6
							V127.1z M7.6,125.1H6.9v-2.6h0.6L7.6,125.1L7.6,125.1z M173.9,121.4h-0.6v-2.6h0.6V121.4z M7.6,119.4H6.9v-2.6h0.6L7.6,119.4
							L7.6,119.4z M173.9,115.6h-0.6V113h0.6V115.6z M7.6,113.6H6.9V111h0.6L7.6,113.6L7.6,113.6z M173.9,109.8h-0.6v-2.6h0.6V109.8
							z M7.6,107.8H6.9v-2.6h0.6L7.6,107.8L7.6,107.8z M173.9,104.1h-0.6v-2.6h0.6V104.1z M7.6,102.1H6.9v-2.6h0.6L7.6,102.1
							L7.6,102.1z M173.9,98.3h-0.6v-2.6h0.6V98.3z M7.6,96.3H6.9v-2.6h0.6L7.6,96.3L7.6,96.3z M173.9,92.5h-0.6V90h0.6V92.5z
							 M7.6,90.5H6.9V88h0.6L7.6,90.5L7.6,90.5z M173.9,86.8h-0.6v-2.6h0.6V86.8z M7.6,84.8H6.9v-2.6h0.6L7.6,84.8L7.6,84.8z
							 M173.9,81h-0.6v-2.6h0.6V81z M7.6,79H6.9v-2.6h0.6L7.6,79L7.6,79z M173.9,75.2h-0.6v-2.6h0.6V75.2z M7.6,73.2H6.9v-2.6h0.6
							L7.6,73.2L7.6,73.2z M173.9,69.4h-0.6v-2.6h0.6V69.4z M7.6,67.4H6.9v-2.6h0.6L7.6,67.4L7.6,67.4z M173.9,63.7h-0.6v-2.6h0.6
							V63.7z M7.6,61.7H6.9v-2.6h0.6L7.6,61.7L7.6,61.7z M173.9,57.9h-0.6v-2.6h0.6V57.9z M7.6,55.9H6.9v-2.6h0.6L7.6,55.9L7.6,55.9
							z M173.9,52.1h-0.6v-2.6h0.6V52.1z M7.6,50.1H6.9v-2.6h0.6L7.6,50.1L7.6,50.1z M173.9,46.4h-0.6v-2.6h0.6V46.4z M7.6,44.4H6.9
							v-2.6h0.6L7.6,44.4L7.6,44.4z M173.9,40.6h-0.6V38h0.6V40.6z M7.6,38.6H6.9V36h0.6L7.6,38.6L7.6,38.6z M173.9,34.8h-0.6v-2.6
							h0.6V34.8z M7.6,32.8H6.9v-2.6h0.6L7.6,32.8L7.6,32.8z M173.9,29.1h-0.6v-2.6h0.6V29.1z M7.6,27.1H6.9v-2.6h0.6L7.6,27.1
							L7.6,27.1z M173.9,23.3h-0.6v-2.6h0.6V23.3z M7.6,21.3H6.9v-2.6h0.6L7.6,21.3L7.6,21.3z M173.9,17.5h-0.6V15h0.6V17.5z
							 M7.6,15.5H6.9V13h0.6L7.6,15.5L7.6,15.5z M173.9,11.8h-0.6v-0.1c0-0.8-0.2-1.5-0.6-2.2l0.6-0.3c0.4,0.8,0.7,1.6,0.7,2.5
							L173.9,11.8L173.9,11.8z M7.9,9.9L7.3,9.7c0.4-0.9,1-1.6,1.7-2.1l0.4,0.5C8.8,8.6,8.2,9.2,7.9,9.9z M170.4,7.6
							c-0.5-0.2-1-0.3-1.6-0.3H168V6.6h0.8c0.6,0,1.2,0.1,1.8,0.3L170.4,7.6z M164.8,7.3h-2.6V6.6h2.6V7.3z M159,7.3h-2.6V6.6h2.6
							V7.3z M153.3,7.3h-2.6V6.6h2.6V7.3z M147.5,7.3h-2.6V6.6h2.6V7.3z M141.7,7.3h-2.6V6.6h2.6V7.3z M136,7.3h-2.6V6.6h2.6V7.3z
							 M130.2,7.3h-2.6V6.6h2.6V7.3z M124.4,7.3h-2.6V6.6h2.6V7.3z M118.6,7.3H116V6.6h2.6V7.3z M112.9,7.3h-2.6V6.6h2.6V7.3z
							 M107.1,7.3h-2.6V6.6h2.6V7.3z M101.3,7.3h-2.6V6.6h2.6V7.3z M95.6,7.3H93V6.6h2.6V7.3z M89.8,7.3h-2.6V6.6h2.6V7.3z M84,7.3
							h-2.6V6.6H84V7.3z M78.3,7.3h-2.6V6.6h2.6V7.3z M72.5,7.3h-2.6V6.6h2.6V7.3z M66.7,7.3h-2.6V6.6h2.6V7.3z M61,7.3h-2.6V6.6H61
							V7.3z M55.2,7.3h-2.6V6.6h2.6V7.3z M49.4,7.3h-2.6V6.6h2.6V7.3z M43.6,7.3H41V6.6h2.6V7.3z M37.9,7.3h-2.6V6.6h2.6V7.3z
							 M32.1,7.3h-2.6V6.6h2.6V7.3z M26.3,7.3h-2.6V6.6h2.6V7.3z M20.6,7.3H18V6.6h2.6V7.3z M14.8,7.3h-2.6V6.6h2.6
							C14.8,6.6,14.8,7.3,14.8,7.3z"/>
					</g>
				</g>
			</g>
		</g>
	</g>
</g>
<g>
	<g>
		<g>
			<g>
				<g>
					<g>
						<defs>
							<ellipse id="SVGID_3_" cx="90.6" cy="50" rx="129.7" ry="117"/>
						</defs>
						<clipPath id="SVGID_4_">
							<use xlink:href="#SVGID_3_"  style="overflow:visible;"/>
						</clipPath>
						<g class="st5">
							<g>
								<path class="st6" d="M100.1,95.1c0,0-0.4,2.1-0.4,7.7c4.8,0.6,11.2,3,11.2,3s-0.2,2.9-10.4,4.6s-16.9-5.3-16.9-5.3
									s4.8-2,10.1-2c0-2.2,0.5-7.7,0.5-7.7L100.1,95.1z"/>
								<path class="st7" d="M99.5,101.8c-2.1,0.4-4,0.3-5.8,0.1c0.2-2.5,0.5-6.5,0.5-6.5l6-0.3c0,0-0.4,1.9-0.4,6.7
									C99.7,101.8,99.6,101.8,99.5,101.8z"/>
								<g>
									<path class="st8" d="M67.3,113.9C63.5,128,70.9,155,71.7,196c2,2.8,54.7-0.5,55.7-2.2c0.9-1.7-5.6-25.2-6-41.1
										c-0.3-15.9,6.8-33.3,4.4-38c-2.4-4.8-17.2-10.4-21.1-11.1c-0.6,4.9-14.2,2.9-15.8-0.1C80.7,104.2,67.1,111.7,67.3,113.9z"
										/>
									<path class="st9" d="M117,140.6c0.6-6.9,1.7-14.1,3.4-19.3c2.8-8.2-10.1-14.6-12.5-2.4C107.4,121.6,109.9,136.6,117,140.6z
										"/>
									<path class="st10" d="M69.1,155.8c9.4,0.4,41.7,1.2,52.5-2.6l0,0c0,0.5,0.1,1.1,0.1,1.6v0.1c0,0.5,0.1,1.1,0.1,1.6
										c0,0.1,0,0.1,0,0.2c0,0.5,0.1,1,0.1,1.5c0,0.1,0,0.2,0,0.3c0.1,0.6,0.1,1.1,0.2,1.7v0.1c-4.8,1.1-25.4,5-52.4,2.2
										C69.5,160.2,69.2,158,69.1,155.8z M68,145.2c0.2,2.1,0.4,4.4,0.7,6.7c26.9,2.9,47.6-0.8,53-2c0-0.6,0.1-1.2,0.1-1.8
										c0-0.1,0-0.3,0-0.4c0-0.5,0.1-0.9,0.1-1.4c0-0.2,0-0.3,0-0.5c0-0.5,0.1-0.9,0.1-1.4c0-0.2,0-0.3,0-0.4
										c0.1-0.6,0.1-1.2,0.2-1.8C112.1,146.4,76.8,145.3,68,145.2z"/>
									<path class="st11" d="M74.2,195c17.5,2.4,45.9-0.5,51.9-2.7c-42.6,0.8-55.8-40.8-57.6-58.3C68.5,134,71.8,164.6,74.2,195z"
										/>
									<g>
										<path class="st12" d="M71.3,162.7c2.2,0.2,4.3,0.4,6.4,0.5c-1.3-2.4-2.4-4.8-3.4-7.2c-1.3,0-2.6-0.1-3.6-0.1
											C70.9,158.1,71.1,160.3,71.3,162.7z"/>
										<path class="st12" d="M69.6,145c0.2,2,0.5,4.3,0.7,6.8c0.9,0.1,1.7,0.1,2.5,0.2c-0.9-2.4-1.6-4.7-2.2-7
											C70.2,145,69.9,145,69.6,145z"/>
									</g>
									<path class="st13" d="M98.9,108.5c5.1-0.4,7.8-1.7,9.2-3.9c-0.5-0.7-2.4-1.3-3.7-1.2c-2.8,4.4-12.5,1.9-14.5,0.1
										c-1.4-0.6-3.1,0-3.8,0.4C87.2,105.6,91.9,109,98.9,108.5z"/>
								</g>
								<g>
									<path class="st6" d="M60.3,53.7C68.9,36,108.1,24.9,115,42.1c8.8,22,8.3,48.7-10,55.8c-20.4,8-35.2-8.2-41.1-14.7
										C55.2,73.5,57.9,59.6,60.3,53.7z"/>
									<path class="st7" d="M61.3,68.3l-2.4-13l0.5-5l17.1-6.6l21.1-8.3c0,0,16.1-0.5,18.3,5.3c2.2,5.7,3,13.8,3,13.8
										s-5.5-9.9-10.3-13.4c-9.1,8-34.3,12.4-41.2,12.3c-6.4,6.4-2.1,15.4,0.3,19.7L61.3,68.3z"/>
									<path class="st7" d="M119.2,75.1c-1.6,9-4.3,16.9-14.3,20.9c-20,8-37.1-8.2-40.4-14.7c-4.8-9.4-4.6-18.4-3-24.6
										c-1.1,6-0.7,13.9,3.5,22.2c3.3,6.6,20.4,22.7,40.4,14.7C114.5,90,117.1,83.1,119.2,75.1z"/>
									<path class="st14" d="M101.4,71.9c3.5-3.9-0.9-5.8-3.5-2.7C100.5,68.2,101.6,69.8,101.4,71.9z"/>
									<g>
										<path class="st7" d="M88.3,68.4c1.7,0.1,1.9,2.3-1.3,3.9c-3.4,1.7-6.5-0.1-7.1-1.2c-0.7-1.5,0.8-1.5,0.8-1.5
											S86.7,68.3,88.3,68.4z"/>
										
											<ellipse transform="matrix(0.9436 -0.3312 0.3312 0.9436 -17.0922 31.5181)" class="st0" cx="83.9" cy="65.9" rx="5.5" ry="5.8"/>
										<path class="st15" d="M85.8,70.9c-2.7,0.9-5.6-0.6-6.6-3.4s0.3-5.9,3-6.8c2-0.7,4-0.1,5.4,1.4C86.5,61,85,61,83.2,61.6
											c-2.5,0.9-4.4,2.6-3.5,5.2s3.6,4,6,3.1c2.5-0.9,3.7-3.6,2.8-6.2c-0.2-0.6-0.5-1.1-0.8-1.5c0-0.1,0-0.1,0-0.1
											c0.5,0.5,0.9,1.2,1.2,1.9C89.9,66.8,88.5,69.8,85.8,70.9z"/>
										<path class="st16" d="M82.4,63.2c-1.5,0.5-2.3,2.3-1.7,3.9c0.5,1.7,2.3,2.5,3.8,2c1.6-0.5,2.4-2.3,1.8-3.9
											S84,62.7,82.4,63.2z"/>
										<path class="st17" d="M82.6,64.7c-0.9,0.3-1.3,1.3-1,2.2c0.3,0.9,1.3,1.4,2.2,1.1c0.9-0.4,1.3-1.4,1-2.3
											C84.4,64.7,83.5,64.2,82.6,64.7z"/>
										<path class="st0" d="M83.6,63.5c-0.4,0.2-0.7,0.7-0.5,1.2c0.1,0.5,0.6,0.8,1.1,0.6c0.4-0.2,0.7-0.7,0.5-1.2
											C84.6,63.7,84.1,63.4,83.6,63.5z"/>
										<path class="st0" d="M82.1,67.8c-0.3,0.1-0.4,0.3-0.3,0.6c0.1,0.2,0.4,0.4,0.6,0.3c0.3-0.1,0.4-0.3,0.3-0.6
											C82.6,67.9,82.3,67.8,82.1,67.8z"/>
										<path class="st7" d="M86.5,60.4c0,0-4.4-2.2-6.8-0.5c-2.4,1.7-1.7,5.2-1.7,5.2C81,60.1,86.5,60.4,86.5,60.4z"/>
										<path class="st18" d="M86.6,60.4c-0.1-0.1-0.2-0.1-0.3-0.1s-0.3,0-0.5,0s-0.5,0-0.7,0c-0.1,0-0.3,0-0.4,0
											c-0.1,0.1-0.3,0.1-0.4,0.1c-0.3,0-0.6,0.1-0.9,0.2c-0.1,0-0.2,0.1-0.4,0.1c0,0.1-0.1,0.1-0.2,0.1l-0.2,0.1
											c-0.2,0.1-0.3,0.1-0.5,0.2c-0.1,0-0.2,0.1-0.4,0.2c-0.1,0-0.3,0.1-0.4,0.2s-0.3,0.2-0.4,0.3c-0.2,0.2-0.5,0.4-0.7,0.6
											c-0.2,0.2-0.4,0.4-0.6,0.6c-0.1,0.1-0.2,0.2-0.3,0.3s-0.1,0.2-0.2,0.3c-0.2,0.2-0.3,0.3-0.4,0.5c0,0.2-0.1,0.4-0.2,0.5
											c-0.1,0.3-0.2,0.4-0.2,0.4s0.1-0.1,0.3-0.3c0.1-0.1,0.2-0.3,0.3-0.4c0.1-0.2,0.2-0.3,0.4-0.5c0.1-0.1,0.3-0.3,0.5-0.5
											c0.1-0.1,0.2-0.2,0.3-0.3c0.1,0,0.1-0.1,0.2-0.1s0.1-0.1,0.2-0.1c0.2-0.2,0.4-0.3,0.7-0.5c0.1,0,0.3-0.1,0.4-0.2
											c0.1-0.1,0.3-0.1,0.4-0.2c0.1,0,0.3-0.1,0.4-0.2c0.1-0.1,0.3-0.1,0.4-0.2c0.2-0.1,0.5-0.2,0.8-0.3s0.5-0.2,0.8-0.3
											c0.2-0.1,0.5-0.1,0.7-0.2c0.4-0.1,0.8-0.2,1.1-0.2C86.4,60.4,86.6,60.4,86.6,60.4L86.6,60.4z"/>
									</g>
									<path class="st19" d="M76.2,60.3c0,0-0.2-4.3,2.7-5.8c1.6-0.9,3.3,1.4,1.3,2.3C77.9,57.8,76.2,60.3,76.2,60.3z"/>
									<path class="st19" d="M112.5,52.9c0,0-1.8-3.4-4.8-3.3c-1.7,0.1-2,2.7,0,2.5C110,51.8,112.5,52.9,112.5,52.9z"/>
									<g>
										<g>
											<path class="st7" d="M113.6,64c1.5,0.4,1.3,2.4-1.9,3.3c-3.5,1-6-1.3-6.3-2.4c-0.4-1.5,1-1.2,1-1.2S112.1,63.6,113.6,64z
												"/>
											
												<ellipse transform="matrix(0.9913 -0.1313 0.1313 0.9913 -6.9859 14.941)" class="st0" cx="109.8" cy="60.4" rx="5.1" ry="5.4"/>
											<path class="st15" d="M110.4,65.3c-2.6,0.4-5-1.6-5.4-4.4s1.5-5.4,4.1-5.7c1.9-0.3,3.6,0.7,4.6,2.2
												c-0.7-1.1-2.1-1.4-3.8-1.2c-2.4,0.3-4.5,1.6-4.2,4.1c0.4,2.5,2.6,4.3,5,4c2.4-0.3,4-2.7,3.7-5.2
												c-0.1-0.6-0.3-1.1-0.5-1.5c0.4,0.5,0.6,1.2,0.7,1.9C115,62.3,113.2,64.9,110.4,65.3z"/>
											<path class="st16" d="M108.9,57.8c-1.5,0.2-2.5,1.6-2.3,3.2s1.6,2.7,3.1,2.5s2.5-1.6,2.3-3.2
												C111.8,58.7,110.4,57.6,108.9,57.8z"/>
											<path class="st17" d="M108.7,59c-0.8,0.1-1.4,1-1.3,1.9c0.1,1,0.9,1.6,1.8,1.5c0.9-0.1,1.5-1,1.4-1.9
												C110.4,59.6,109.6,58.9,108.7,59z"/>
											<path class="st0" d="M109.9,58.4c-0.5,0.1-0.8,0.5-0.7,1c0,0.4,0.5,0.8,0.9,0.7c0.4-0.1,0.8-0.5,0.7-1
												C110.8,58.6,110.3,58.3,109.9,58.4z"/>
											<path class="st0" d="M107.7,62c-0.3,0-0.4,0.3-0.4,0.5c0.1,0.3,0.3,0.4,0.5,0.4c0.3,0,0.4-0.3,0.4-0.5
												C108.1,62.1,107.9,62,107.7,62z"/>
											<path class="st7" d="M113.3,56c0,0-3.6-2.8-6.1-1.7c-2.6,1.1-2.6,4.4-2.6,4.4C108.3,54.7,113.3,56,113.3,56z"/>
											<path class="st18" d="M113.1,56.3c-0.1,0-0.2-0.1-0.3-0.1c-0.2,0-0.3-0.1-0.5-0.1s-0.4-0.1-0.6-0.1c-0.2,0-0.3,0-0.4,0
												c-0.2,0-0.3,0-0.4,0c-0.2,0-0.5,0-0.8,0c-0.1,0-0.3,0-0.4,0s-0.1,0-0.2,0h-0.2c-0.2,0-0.3,0.1-0.5,0.1
												c-0.1,0-0.2,0.1-0.4,0.1c-0.1,0-0.3,0-0.4,0.1c-0.1,0.1-0.3,0.1-0.4,0.2c-0.3,0.1-0.6,0.3-0.8,0.4
												c-0.3,0.1-0.5,0.3-0.7,0.4c-0.1,0.1-0.2,0.1-0.3,0.2c-0.1,0-0.2,0.1-0.3,0.2c-0.1,0.1-0.3,0.3-0.4,0.4
												c-0.1,0.2-0.2,0.3-0.3,0.4c-0.1,0.2-0.2,0.3-0.2,0.3s0.1-0.1,0.3-0.3c0.1-0.1,0.3-0.2,0.4-0.3s0.3-0.2,0.5-0.3
												c0.2-0.1,0.4-0.3,0.6-0.4c0.1-0.1,0.2-0.1,0.3-0.2c0.1,0,0.1-0.1,0.2-0.1s0.1-0.1,0.2-0.1c0.3-0.1,0.5-0.2,0.8-0.3
												c0.1-0.1,0.3-0.1,0.4-0.2c0.1,0,0.3-0.1,0.4-0.1s0.3-0.1,0.4-0.1s0.3-0.1,0.4-0.1c0.3-0.1,0.5-0.2,0.8-0.2
												s0.6-0.1,0.8-0.1s0.5,0,0.7,0c0.5,0,0.8,0,1.1,0s0.4,0,0.4,0S113.3,56,113.1,56.3z"/>
										</g>
									</g>
									<g>
										<path class="st20" d="M92.3,78.9c0,0-0.9,12.7,8.1,11.3s7.4-14.1,7.4-14.1C99,80.5,92.3,78.9,92.3,78.9z"/>
										<path class="st21" d="M92.4,78.9c0,0-0.5,6.4,2.5,9.6c3.5-2.1,4.4-6.5,4.6-9.7C95.1,79.6,92.4,78.9,92.4,78.9z"/>
										<path class="st22" d="M96.2,84.7c-1.4-0.7-2.9-0.1-3.2,0.5c0.9,2.9,3,5.7,7.4,5c2.4-0.3,4.1-1.5,5.2-3.1
											C103.4,84.1,97.8,82.2,96.2,84.7z"/>
										<path class="st23" d="M101.7,88.9c4.3-1.6,0.2-5.1-3.1-5c-1.3,0-1.8,0.6-2.1,1.1c-0.4-0.2-1.2-0.4-1.9-0.1
											C92,85.9,97.4,90.6,101.7,88.9z"/>
										<path class="st24" d="M100.5,86.1c-1-0.2-2.5-1.1-1.9-1.6c0.5-0.5,2.2,0,2.9,0.7C101.9,85.7,101.4,86.2,100.5,86.1z"/>
										<path class="st0" d="M94.8,79.2c-0.1,1.4,0.9,2.3,2.9,2.3c1.7,0,4.1-0.4,5.8-1.1c1.8-0.7,2.1-1.8,1.7-3.1
											C101.1,78.8,98.3,79.1,94.8,79.2z"/>
									</g>
									<g>
										<path class="st6" d="M67.5,80.7c0,4-4.5,5.3-8.3,1.9s-4.9-10.8-0.8-11.9c3.8-1,6,3.1,6,3.1L67.5,80.7z"/>
										<path class="st7" d="M59.7,82c3.6,3.2,7.8,2.1,7.8-1.7c-1,3.1-4.6,4-7.8,0.3c-2.3-2.7-3.8-8.2,0-9.5
											c0.7-0.2,1.3-0.2,1.9,0C60.8,70.8,60,70.7,59,71C55.2,72,56.2,78.9,59.7,82z"/>
										<path class="st25" d="M61.2,75.2c-1.6,0.5-1.9,1.7-1.3,3.2c1-2.9,2.9-2,3.2,3.2c2.1-4.9-2.5-10.4-4.7-8.6
											C58.4,73,60.3,73.3,61.2,75.2z"/>
									</g>
									<path class="st26" d="M57.1,71.6c-0.3-8.6-8.1-15.8-7.6-23c-6.7-8.3,11.6-17.3,17-20.1s4.6-8.3,1-7.3
										c1.7-2.5,15.4-7.2,25.9,0.4c3.4-2,7.9-3,14.8-0.2c6.9,2.8,8.2,9.7,8.2,15.6s3.6,14.1,3,18.7c-1.6-4.7-4.3-11.6-11.5-16.7
										c-5.3,6.2-30.8,11.6-41.4,12.7c-5.1,4-6.3,11,1.2,21.4c-2.1,0.3-4.1,1.3-4.1,1.3S60.6,70.2,57.1,71.6z"/>
									<path class="st27" d="M72.7,31.7c6.4-1.3,7.8-1.3,12.9-4.2C80,37.1,64,40,64,40s5.8-3.3,7.8-5.4c-6.8,1.2-17.1,5.3-18.7,11
										c-1-2.3,0.1-7.3,8.2-11.3C70,30,74.6,25.7,73.9,22.5C78.3,27,72.7,31.7,72.7,31.7z"/>
									<path class="st27" d="M87.6,22c-4.7,0.1-7.8,1.4-7.8,1.4s10.6,0,15.2,1.4c-7-7.4-18.9-4.4-18.9-4.4S83.3,20,87.6,22z"/>
									<path class="st27" d="M110.4,29.6c-3.6-3.9-7.5-5.7-7.5-5.7s4-0.5,6.2-0.5c-6.9-3-12-0.1-12-0.1S106.4,26.8,110.4,29.6z"/>
									<path class="st28" d="M119.3,55.7c-1.6-4.7-4.3-13.5-11.5-18.6c-5.3,6.2-32,12.7-42.6,13.8c-5.1,4.1-6.1,11.3,1.4,21.7
										c-12-9.1-7.3-21.2-2.5-23.3c31.8-4.1,41.3-17.8,41.3-17.8C118.4,38.3,119.4,55.6,119.3,55.7z"/>
								</g>
								<g>
									<g>
										<path class="st6" d="M65.8,158.6c-3.6,20.1-8.7,31.9-8.7,31.9s-5.2-0.7-5.3,1c-0.2,1.6,2.8,1.9,2.8,1.9s-2.8,3.4-4,4.7
											c-1.5,1.7-0.3,2.9,1.3,1.7c0.9-0.7,2.5-2.1,2.6-2.1c-0.1,0.3-1.7,2.5-2.5,3.8c-1.3,1.9,0.7,3,1.8,1.3
											c0.3-0.6,2.4-3.6,2.5-3.7c-0.1,0.2-1.3,3-1.8,4.2c-0.6,1.4,1,2.2,1.9,0.6c0.4-0.7,1.9-3.8,2-3.9c-0.1,0.7-1.1,3.4-0.2,3.9
											c0.9,0.4,1.8-1.1,2.5-3.6c1.9-2.9,2.5-5.8,1.3-7.8c7.9-14.5,10.2-34.6,10.2-34.6S67.4,153.5,65.8,158.6z"/>
										<path class="st7" d="M65.1,164.3c0.3-2.3,0.5-3.2,0.5-5.7c1.8-5.1,6,0.4,6,0.4s-0.7,2.4-1.2,6.8
											C69.8,161,66,161.6,65.1,164.3z"/>
										<path class="st29" d="M58.3,194.3c-1.5,1.4-3.3,0.4-4.2-0.3c-0.1-0.1-0.1-0.2,0-0.3c0.1-0.1,0.2-0.1,0.3,0
											c0.7,0.7,2.3,1.6,3.5,0.4c0.1-0.1,0.2-0.1,0.3,0C58.3,194.2,58.3,194.2,58.3,194.3L58.3,194.3z"/>
									</g>
									<path class="st13" d="M75.3,132c0.5,10,0.2,39.9-9.5,57.1c-4.3,0.9-7.6-1.2-8.9-3.8c6.6-13.7,8.4-35.4,7.9-49.4
										c-0.5-13.6,1.3-21.3,2.6-22.9C68.5,117,72.9,123.3,75.3,132z"/>
								</g>
								<g>
									<g>
										<path class="st6" d="M133.3,158.8c6.1,19.4,12.7,30.5,12.7,30.5s5-1.2,5.4,0.4c0.4,1.7-2.5,2.3-2.5,2.3s3.2,2.9,4.6,4.1
											c1.7,1.5,0.6,2.9-1.1,1.9c-1.1-0.6-2.8-1.8-2.9-1.8c0.1,0.2,1.9,2.2,2.9,3.4c1.4,1.7-0.4,3-1.7,1.5
											c-0.4-0.5-2.9-3.2-3-3.3c0.1,0.1,1.7,2.7,2.3,3.9c0.8,1.4-0.7,2.3-1.8,0.9c-0.5-0.6-2.4-3.5-2.5-3.6
											c0.2,0.7,1.5,3.2,0.7,3.8c-0.8,0.6-1.9-0.8-2.9-3.2c-2.3-2.7-3.2-5.5-2.3-7.6c-9.8-13.3-14.6-33-14.6-33
											S130.8,154,133.3,158.8z"/>
										<path class="st7" d="M134.3,164.4c-0.6-2.2-0.9-3.1-1.2-5.6c-2.4-4.8-5.9,1.2-5.9,1.2s1,2.3,2.1,6.6
											C129.3,161.7,133.2,161.9,134.3,164.4z"/>
										<path class="st29" d="M145,193.2c1.7,1.3,3.3,0.1,4-0.8c0.1-0.1,0.1-0.2,0-0.3c-0.1-0.1-0.2-0.1-0.3,0
											c-0.6,0.8-2,1.9-3.4,0.9c-0.1-0.1-0.2-0.1-0.3,0C145,193.1,145,193.1,145,193.2S145.1,193.3,145,193.2z"/>
									</g>
									<path class="st13" d="M120.3,133.7c0.7,10,4.9,39.6,16.7,55.4c4.3,0.3,7.4-2.2,8.3-4.9c-8.4-12.8-12.9-34.1-14.2-48
										c-1.3-13.6-4-21-5.5-22.4C125,117.9,121.4,124.7,120.3,133.7z"/>
								</g>
							</g>
						</g>
					</g>
				</g>
			</g>
		</g>
	</g>
</g>
</svg>
