<?xml version="1.0" encoding="utf-8"?>
<!-- Generator: Adobe Illustrator 21.0.0, SVG Export Plug-In . SVG Version: 6.00 Build 0)  -->
<svg version="1.1" id="Layer_1" xmlns="http://www.w3.org/2000/svg" xmlns:xlink="http://www.w3.org/1999/xlink" x="0px" y="0px"
	 viewBox="0 0 58.9 58.9" style="enable-background:new 0 0 58.9 58.9;" xml:space="preserve">
<style type="text/css">
	.st0{fill:url(#SVGID_1_);}
	.st1{fill:#FFFFFF;}
</style>
<g>
	
		<linearGradient id="SVGID_1_" gradientUnits="userSpaceOnUse" x1="-152.5695" y1="500.2874" x2="-152.5695" y2="557.7149" gradientTransform="matrix(1 0 0 1 182.0195 -499.3477)">
		<stop  offset="0" style="stop-color:#7BBF40"/>
		<stop  offset="1" style="stop-color:#47A537"/>
	</linearGradient>
	<path class="st0" d="M58.9,50c0,4.9-4,8.8-8.8,8.8H8.8C4,58.9,0,54.9,0,50V8.8C0,4,4,0,8.8,0H50c4.9,0,8.8,4,8.8,8.8V50H58.9z"/>
</g>
<g>
	<g>
		<path class="st1" d="M46.4,17.8v-5.9c0-1.7-1.4-3.1-3.1-3.1H10.1C8.4,8.8,7,10.1,7,11.9v18.2c0,1.6,1.4,3.1,3,3.1h3.5
			c0.4,0,0.7-0.3,0.7-0.7c0-0.4-0.3-0.7-0.7-0.7H10c-1,0-1.8-0.8-1.8-1.7V11.9c0-1,0.8-1.7,1.8-1.7h33.3c1,0,1.8,0.8,1.8,1.7v5.9
			c0,0.4,0.3,0.7,0.7,0.7C46.1,18.4,46.3,18.2,46.4,17.8z"/>
	</g>
</g>
<rect x="7.7" y="12.6" class="st1" width="3.1" height="3.1"/>
<rect x="10.8" y="9.5" class="st1" width="3.1" height="3.1"/>
<rect x="7.7" y="25.1" class="st1" width="3.1" height="3.1"/>
<rect x="10.8" y="22" class="st1" width="3.1" height="3.1"/>
<rect x="7.7" y="18.9" class="st1" width="3.1" height="3.1"/>
<rect x="10.8" y="15.7" class="st1" width="3.1" height="3.1"/>
<rect x="14" y="12.6" class="st1" width="3.1" height="3.1"/>
<rect x="17.1" y="9.5" class="st1" width="3.1" height="3.1"/>
<rect x="14" y="18.9" class="st1" width="3.1" height="3.1"/>
<rect x="17.1" y="15.7" class="st1" width="3.1" height="3.1"/>
<rect x="20.1" y="12.6" class="st1" width="3.1" height="3.1"/>
<rect x="23.2" y="9.5" class="st1" width="3.1" height="3.1"/>
<rect x="23.2" y="15.7" class="st1" width="3.1" height="3.1"/>
<rect x="26.4" y="12.6" class="st1" width="3.1" height="3.1"/>
<rect x="29.5" y="9.5" class="st1" width="3.1" height="3.1"/>
<rect x="29.5" y="15.7" class="st1" width="3.1" height="3.1"/>
<rect x="32.5" y="12.6" class="st1" width="3.1" height="3.1"/>
<rect x="35.6" y="9.5" class="st1" width="3.1" height="3.1"/>
<rect x="35.6" y="15.7" class="st1" width="3.1" height="3.1"/>
<rect x="38.7" y="12.6" class="st1" width="3.1" height="3.1"/>
<rect x="41.9" y="9.5" class="st1" width="3.1" height="3.1"/>
<rect x="41.9" y="15.7" class="st1" width="3.1" height="3.1"/>
<rect x="10.9" y="28.2" class="st1" width="3.1" height="3.1"/>
<path class="st1" d="M40.3,31.8c1.8,0,3.3-1.5,3.3-3.3c0-1.8-1.5-3.3-3.3-3.3S37,26.6,37,28.4C37,30.2,38.5,31.8,40.3,31.8z
	 M40.3,26.3c1.1,0,2.1,1,2.1,2.1c0,1.1-1,2.1-2.1,2.1c-1.1,0-2.1-1-2.1-2.1C38.2,27.3,39.2,26.3,40.3,26.3z"/>
<g>
	<g>
		<path class="st1" d="M13.7,22.1v24.2c0,1.7,1.3,3,3,3h31.7c1.7,0,3-1.3,3-3V21.9c0-1.6-1.3-3-2.9-3H17.3c-0.4,0-0.7,0.3-0.7,0.7
			c0,0.4,0.3,0.7,0.7,0.7h31.1c0.9,0,1.7,0.7,1.7,1.7v24.5c0,0.9-0.7,1.7-1.7,1.7H16.7c-0.9,0-1.7-0.7-1.7-1.7V22.1
			c0-0.4-0.3-0.7-0.7-0.7C14,21.5,13.8,21.7,13.7,22.1z"/>
	</g>
</g>
<path class="st1" d="M48.3,48.6c0.2-0.3,0.2-0.7-0.1-1L36.1,36.9c-0.3-0.3-0.7-0.3-0.9,0l-3.5,3.3l-7-7.7c-0.1-0.1-0.3-0.2-0.5-0.2
	c-0.2,0-0.4,0.1-0.5,0.2l-8.5,7.9c-0.3,0.3-0.3,0.7,0,1c0.3,0.3,0.7,0.3,1,0l8.1-7.4l6.6,7.2l-3.5,3.5c-0.3,0.3-0.3,0.7,0,1
	s0.7,0.3,1,0l7.3-7.3l11.6,10.2c0.1,0.1,0.3,0.2,0.5,0.2C48,48.8,48.2,48.7,48.3,48.6z"/>
</svg>
