<?xml version="1.0" encoding="utf-8"?>
<!-- Generator: Adobe Illustrator 16.0.0, SVG Export Plug-In . SVG Version: 6.00 Build 0)  -->
<!DOCTYPE svg PUBLIC "-//W3C//DTD SVG 1.1//EN" "http://www.w3.org/Graphics/SVG/1.1/DTD/svg11.dtd">
<svg version="1.1" id="Capa_1" xmlns="http://www.w3.org/2000/svg" xmlns:xlink="http://www.w3.org/1999/xlink" x="0px" y="0px"
	 width="512px" height="512px" viewBox="0 0 512 512" enable-background="new 0 0 512 512" xml:space="preserve">
<g>
	<path fill="#FF9C00" d="M100.305,500.628c0,6.28,5.091,11.372,11.372,11.372h288.648c6.279,0,11.371-5.092,11.371-11.372V132.186
		H100.305V500.628L100.305,500.628z M319.965,194.888h42.643v247.914h-42.643V194.888z M234.679,194.888h42.643v247.914h-42.643
		V194.888z M149.393,194.888h42.643v247.914h-42.643V194.888z"/>
	<path fill="#FF9C00" d="M351.848,52.258V11.371c0-6.28-5.092-11.371-11.372-11.371H171.524c-6.281,0-11.372,5.091-11.372,11.371
		v40.887v7.107v7.107H80.666c-6.28,0-11.371,5.091-11.371,11.371V106.6c0,6.28,5.091,11.372,11.371,11.372h19.639h311.391h19.639
		c6.28,0,11.372-5.092,11.372-11.372V77.844c0-6.28-5.092-11.371-11.372-11.371h-79.486v-7.107V52.258z M309.204,64.134H202.796
		v-4.77v-7.107v-9.614h106.408v9.615v7.107V64.134z"/>
</g>
</svg>
