<?xml version="1.0" encoding="utf-8"?>
<!-- Generator: Adobe Illustrator 16.0.0, SVG Export Plug-In . SVG Version: 6.00 Build 0)  -->
<!DOCTYPE svg PUBLIC "-//W3C//DTD SVG 1.1//EN" "http://www.w3.org/Graphics/SVG/1.1/DTD/svg11.dtd">
<svg version="1.1" id="Layer_1" xmlns="http://www.w3.org/2000/svg" xmlns:xlink="http://www.w3.org/1999/xlink" x="0px" y="0px"
	 width="221.368px" height="73.735px" viewBox="0 0 221.368 73.735" enable-background="new 0 0 221.368 73.735"
	 xml:space="preserve">
<g>
	<g>
		<path fill="#FFFFFF" d="M18.234,31.167c-1.433,0-3.245-0.464-4.569-2.398c-0.746,0.406-1.731,0.683-3.032,0.683
			c-3.728,0-6.331-3.328-6.331-8.092c0-3.886,1.582-6.696,4.185-7.734c-0.8-0.032-1.438-0.691-1.438-1.499v-3.16
			c0-0.829,0.671-1.5,1.5-1.5h3.041c0.288,0,0.556,0.081,0.785,0.221c0.229-0.14,0.497-0.221,0.785-0.221h3.041
			c0.829,0,1.5,0.671,1.5,1.5v3.16c0,0.4-0.157,0.764-0.413,1.033c0.046,0,0.092,0,0.138,0c0.829,0,1.5,0.671,1.5,1.5v8.579
			c0,1.278,0.464,1.278,1.001,1.278h1.766c0.829,0,1.5,0.671,1.5,1.5v3.649c0,0.829-0.671,1.5-1.5,1.5H18.234z M11.638,18.965
			c-0.269,0-0.928,0.82-0.928,2.34c0,1.232,0.553,1.986,0.854,1.986c0.465,0,0.829-0.98,0.829-2.23v-2.096H11.638z"/>
		<path fill="#FFFFFF" d="M16.199,8.967v3.16h-3.041v-3.16H16.199 M11.589,8.967v3.16H8.548v-3.16H11.589 M17.425,14.66v8.579
			c0,1.798,0.833,2.778,2.501,2.778h1.766v3.649h-3.457c-1.963,0-3.336-1.116-4.12-3.351c-0.612,1.063-1.79,1.635-3.481,1.635
			c-2.943,0-4.831-2.832-4.831-6.592c0-4.059,1.839-6.673,5.075-6.673C10.877,14.66,13.061,14.66,17.425,14.66 M11.564,24.791
			c1.446,0,2.329-1.498,2.329-3.73v-3.596h-2.256c-1.397,0-2.428,1.716-2.428,3.84C9.21,23.212,10.191,24.791,11.564,24.791
			 M16.199,5.967h-3.041c-0.271,0-0.535,0.036-0.785,0.104c-0.25-0.067-0.513-0.104-0.785-0.104H8.548c-1.657,0-3,1.343-3,3v3.16
			c0,0.49,0.118,0.953,0.326,1.362c-1.933,1.681-3.072,4.443-3.072,7.871c0,5.558,3.293,9.592,7.831,9.592
			c0.996,0,1.847-0.141,2.571-0.37c1.676,1.752,3.72,2.086,5.031,2.086h3.457c1.657,0,3-1.343,3-3v-3.649c0-1.657-1.343-3-3-3
			h-1.267V14.66c0-0.994-0.483-1.875-1.228-2.421c0.001-0.037,0.002-0.075,0.002-0.112v-3.16C19.199,7.31,17.856,5.967,16.199,5.967
			L16.199,5.967z"/>
	</g>
	<g>
		<path fill="#FFFFFF" d="M20.902,31.167c-0.829,0-1.5-0.671-1.5-1.5v-3.649c0-0.829,0.671-1.5,1.5-1.5c0,0,2.334,0.001,2.336,0.001
			c0.058,0,0.234-0.258,0.234-1.116V12.127c0-0.829,0.671-1.5,1.5-1.5h3.457c0.829,0,1.5,0.671,1.5,1.5v11.139
			c0,0.428-0.023,0.844-0.069,1.252h2.174c0.829,0,1.5,0.671,1.5,1.5v3.649c0,0.829-0.671,1.5-1.5,1.5H20.902z"/>
		<path fill="#FFFFFF" d="M28.43,12.127v11.139c0,1.008-0.146,1.907-0.416,2.752h4.021v3.649H20.902v-3.649h2.33
			c1.152,0,1.74-0.872,1.74-2.615V12.127H28.43 M28.43,9.127h-3.457c-1.657,0-3,1.343-3,3v10.891h-1.07c-1.657,0-3,1.343-3,3v3.649
			c0,1.657,1.343,3,3,3h11.133c1.657,0,3-1.343,3-3v-3.649c0-1.657-1.343-3-3-3H31.43V12.127C31.43,10.47,30.086,9.127,28.43,9.127
			L28.43,9.127z"/>
	</g>
	<g>
		<path fill="#FFFFFF" d="M31.321,31.167c-0.829,0-1.5-0.671-1.5-1.5v-3.649c0-0.829,0.671-1.5,1.5-1.5h12.065
			c-0.561-1.496-1.803-2.475-3.312-2.475c-0.996,0-2.254,0.61-2.993,1.451c-0.286,0.326-0.697,0.51-1.127,0.51
			c-0.034,0-0.068-0.001-0.102-0.003c-0.466-0.032-0.891-0.279-1.149-0.668l-1.717-2.589c-0.37-0.56-0.323-1.298,0.115-1.806
			c1.949-2.261,4.377-3.407,7.217-3.407c6.379,0.031,10.033,4.728,10.033,12.885v1.253c0,0.829-0.671,1.5-1.5,1.5H31.321z"/>
		<path fill="#FFFFFF" d="M40.32,17.029c5.615,0.027,8.533,4.275,8.533,11.385v1.253H31.321v-3.649H45.2
			c-0.147-3.078-2.256-5.475-5.125-5.475c-1.472,0-3.139,0.844-4.12,1.961c-0.343-0.518-0.906-1.362-1.716-2.588
			C35.906,17.982,37.941,17.029,40.32,17.029 M40.32,14.029c-3.25,0-6.138,1.358-8.353,3.928c-0.877,1.017-0.971,2.492-0.231,3.612
			c0.37,0.561,0.689,1.042,0.959,1.448h-1.374c-1.657,0-3,1.343-3,3v3.649c0,1.657,1.343,3,3,3h17.532c1.657,0,3-1.343,3-3v-1.253
			c0-8.972-4.306-14.35-11.519-14.385C40.33,14.029,40.325,14.029,40.32,14.029L40.32,14.029z"/>
	</g>
	<g>
		<path fill="#FFFFFF" d="M50.908,35.661c-0.829,0-1.5-0.671-1.5-1.5v-3.077c0-0.829,0.671-1.5,1.5-1.5
			c1.222,0,1.885-0.334,1.885-2.096v-10.16c0-0.829,0.671-1.5,1.5-1.5h3.457c0.829,0,1.5,0.671,1.5,1.5v7.189h2.129
			c0.829,0,1.5,0.671,1.5,1.5v3.649c0,0.829-0.671,1.5-1.5,1.5h-2.655C57.911,33.433,55.854,35.661,50.908,35.661z"/>
		<path fill="#FFFFFF" d="M57.75,17.328v8.689h3.629v3.649h-3.801c-0.563,2.996-2.771,4.494-6.67,4.494v-3.077
			c2.256,0,3.385-1.199,3.385-3.596v-10.16H57.75 M57.75,14.328h-3.457c-1.657,0-3,1.343-3,3v10.16c0,0.278-0.025,0.462-0.048,0.574
			c-0.077,0.012-0.187,0.021-0.336,0.021c-1.657,0-3,1.343-3,3v3.077c0,1.657,1.343,3,3,3c5.216,0,7.658-2.261,8.796-4.494h1.674
			c1.657,0,3-1.343,3-3v-3.649c0-1.657-1.343-3-3-3H60.75v-5.689C60.75,15.671,59.407,14.328,57.75,14.328L57.75,14.328z"/>
	</g>
	<g>
		<path fill="#FFFFFF" d="M68.855,33.51c-2.25,0-4.102-0.807-5.406-2.343h-3.005c-0.829,0-1.5-0.671-1.5-1.5v-3.649
			c0-0.829,0.671-1.5,1.5-1.5h1.339c0.508-3.97,3.083-6.374,6.973-6.374c3.918,0,6.602,2.454,7.139,6.374h1.467
			c0.829,0,1.5,0.671,1.5,1.5v3.649c0,0.829-0.671,1.5-1.5,1.5h-3.167C72.916,32.703,71.086,33.51,68.855,33.51z M68.659,24.194
			c-0.204,0-0.585,0.542-0.585,1.577c0,0.167,0.022,1.633,0.781,1.633c0.636,0,0.73-0.92,0.73-1.469
			c0-1.741-0.478-1.741-0.682-1.741H68.659z"/>
		<path fill="#FFFFFF" d="M68.757,19.644c3.58,0,5.738,2.37,5.738,6.374h2.868v3.649H73.44c-1.005,1.553-2.55,2.343-4.585,2.343
			c-2.084,0-3.629-0.79-4.659-2.343h-3.752v-3.649h2.747C63.191,22.096,65.201,19.644,68.757,19.644 M68.855,28.904
			c1.397,0,2.23-1.145,2.23-2.969c0-2.152-0.734-3.241-2.182-3.241h-0.245c-1.251,0-2.085,1.308-2.085,3.077
			C66.574,27.598,67.408,28.904,68.855,28.904 M68.757,16.644c-4.22,0-7.229,2.421-8.216,6.374h-0.097c-1.657,0-3,1.343-3,3v3.649
			c0,1.657,1.343,3,3,3h2.348c1.547,1.539,3.613,2.343,6.063,2.343c2.392,0,4.466-0.821,5.997-2.343h2.511c1.657,0,3-1.343,3-3
			v-3.649c0-1.657-1.343-3-3-3h-0.241C76.09,19.108,72.984,16.644,68.757,16.644L68.757,16.644z"/>
	</g>
	<g>
		<path fill="#FFFFFF" d="M76.084,31.167c-0.829,0-1.5-0.671-1.5-1.5v-3.649c0-0.829,0.671-1.5,1.5-1.5c0,0,2.529,0.001,2.531,0.001
			c0.048,0,0.236-0.268,0.236-1.171V12.127c0-0.829,0.671-1.5,1.5-1.5h3.433c0.829,0,1.5,0.671,1.5,1.5V24.41
			c0,1.756-0.463,3.268-1.377,4.493c-1.068,1.476-2.659,2.264-4.586,2.264H76.084z"/>
		<path fill="#FFFFFF" d="M83.784,12.127V24.41c0,1.443-0.368,2.643-1.079,3.596c-0.809,1.116-1.938,1.661-3.384,1.661h-3.237
			v-3.649h2.526c1.152,0,1.741-0.898,1.741-2.67V12.127H83.784 M83.784,9.127h-3.433c-1.657,0-3,1.343-3,3v10.891h-1.268
			c-1.657,0-3,1.343-3,3v3.649c0,1.657,1.343,3,3,3h3.237c2.428,0,4.438-1.003,5.813-2.901c1.086-1.456,1.649-3.269,1.649-5.355
			V12.127C86.784,10.47,85.441,9.127,83.784,9.127L83.784,9.127z"/>
	</g>
	<g>
		<path fill="#FFFFFF" d="M86.283,31.167c-0.829,0-1.5-0.671-1.5-1.5V12.1c0-0.829,0.671-1.5,1.5-1.5h3.434
			c0.829,0,1.5,0.671,1.5,1.5v17.567c0,0.829-0.671,1.5-1.5,1.5H86.283z"/>
		<path fill="#FFFFFF" d="M89.717,12.1v17.567h-3.434V12.1H89.717 M89.717,9.1h-3.434c-1.657,0-3,1.343-3,3v17.567
			c0,1.657,1.343,3,3,3h3.434c1.657,0,3-1.343,3-3V12.1C92.717,10.443,91.374,9.1,89.717,9.1L89.717,9.1z"/>
	</g>
	<g>
		<path fill="#FFFFFF" d="M104.77,31.167c-6.202,0-9.617-3.241-9.617-9.126v-4.74c0-0.829,0.671-1.5,1.5-1.5h3.385
			c0.829,0,1.5,0.671,1.5,1.5v4.74c0,0.731,0.117,1.675,0.673,2.026c0.27,0.176,0.944,0.451,2.633,0.451h6.326
			c1.027,0,1.311-0.102,1.339-0.113c0.351-0.167,0.398-0.801,0.398-1.166v-5.911c0-0.829,0.672-1.5,1.5-1.5h3.384
			c0.828,0,1.5,0.671,1.5,1.5v7.845c0,3.697-2.162,5.994-5.644,5.994H104.77z M108.178,18.828c-0.288,0-0.556-0.081-0.785-0.221
			c-0.229,0.14-0.497,0.221-0.785,0.221h-3.065c-0.829,0-1.5-0.671-1.5-1.5v-3.159c0-0.829,0.671-1.5,1.5-1.5h3.065
			c0.288,0,0.556,0.081,0.785,0.221c0.229-0.14,0.497-0.221,0.785-0.221h3.064c0.828,0,1.5,0.671,1.5,1.5v3.159
			c0,0.829-0.672,1.5-1.5,1.5H108.178z"/>
		<path fill="#FFFFFF" d="M111.242,14.169v3.159h-3.064v-3.159H111.242 M106.608,14.169v3.159h-3.065v-3.159H106.608
			 M100.037,17.301v4.74c0,1.606,0.465,2.723,1.373,3.295c0.711,0.463,1.839,0.682,3.433,0.682h6.326
			c0.981,0,1.644-0.082,2.011-0.272c0.81-0.382,1.227-1.226,1.227-2.506v-5.911h3.384v7.845c0,2.833-1.496,4.494-4.144,4.494h-8.877
			c-5.42,0-8.117-2.533-8.117-7.626v-4.74H100.037 M111.242,11.169h-3.064c-0.271,0-0.535,0.036-0.785,0.104
			c-0.25-0.067-0.513-0.104-0.785-0.104h-3.065c-1.657,0-3,1.343-3,3v0.174c-0.165-0.028-0.333-0.042-0.506-0.042h-3.385
			c-1.657,0-3,1.343-3,3v4.74c0,6.753,4.052,10.626,11.117,10.626h8.877c4.272,0,7.144-3.012,7.144-7.494v-7.845
			c0-1.657-1.343-3-3-3h-3.384c-0.055,0-0.109,0.001-0.164,0.004v-0.164C114.242,12.512,112.899,11.169,111.242,11.169
			L111.242,11.169z M103.543,20.328h3.065c0.271,0,0.535-0.036,0.785-0.104c0.25,0.067,0.513,0.104,0.785,0.104h3.064
			c0.055,0,0.109-0.001,0.164-0.004v2.692c-0.072,0.001-0.151,0.002-0.237,0.002h-6.326c-1.03,0-1.523-0.111-1.717-0.172
			c-0.037-0.123-0.088-0.373-0.088-0.805v-1.755C103.202,20.313,103.371,20.328,103.543,20.328L103.543,20.328z"/>
	</g>
	<g>
		<path fill="#FFFFFF" d="M119.819,35.661c-0.828,0-1.5-0.671-1.5-1.5v-3.077c0-0.829,0.672-1.5,1.5-1.5
			c1.222,0,1.884-0.334,1.884-2.096v-10.16c0-0.455,0.202-0.862,0.521-1.137c-0.204-0.256-0.325-0.58-0.325-0.933v-3.132
			c0-0.829,0.672-1.5,1.5-1.5h3.04c0.828,0,1.5,0.671,1.5,1.5v3.132c0,0.347-0.117,0.666-0.315,0.92
			c0.328,0.275,0.536,0.688,0.536,1.149v7.189h2.13c0.828,0,1.5,0.671,1.5,1.5v3.649c0,0.829-0.672,1.5-1.5,1.5h-2.655
			C126.822,33.433,124.766,35.661,119.819,35.661z"/>
		<path fill="#FFFFFF" d="M126.439,12.127v3.132h-3.04v-3.132H126.439 M126.66,17.328v8.689h3.63v3.649h-3.801
			c-0.563,2.996-2.771,4.494-6.67,4.494v-3.077c2.256,0,3.384-1.199,3.384-3.596v-10.16H126.66 M126.439,9.127h-3.04
			c-1.657,0-3,1.343-3,3v3.132c0,0.266,0.034,0.523,0.1,0.769c-0.189,0.393-0.296,0.834-0.296,1.3v10.16
			c0,0.278-0.024,0.462-0.049,0.575c-0.076,0.011-0.186,0.021-0.335,0.021c-1.657,0-3,1.343-3,3v3.077c0,1.657,1.343,3,3,3
			c5.216,0,7.657-2.261,8.796-4.494h1.675c1.657,0,3-1.343,3-3v-3.649c0-1.657-1.343-3-3-3h-0.63v-5.689
			c0-0.479-0.112-0.932-0.312-1.333c0.06-0.236,0.091-0.482,0.091-0.736v-3.132C129.439,10.47,128.097,9.127,126.439,9.127
			L126.439,9.127z"/>
	</g>
	<g>
		<path fill="#FFFFFF" d="M129.502,31.167c-0.828,0-1.5-0.671-1.5-1.5v-3.649c0-0.829,0.672-1.5,1.5-1.5c0,0,2.26,0.001,2.262,0.001
			c0.058,0,0.234-0.258,0.234-1.116v-6.074c0-0.202,0.04-0.394,0.112-0.57c-0.012,0-3.075,0-3.075,0c-0.828,0-1.5-0.671-1.5-1.5
			v-3.132c0-0.829,0.672-1.5,1.5-1.5h3.041c0.288,0,0.557,0.081,0.785,0.222c0.229-0.141,0.497-0.222,0.785-0.222h3.04
			c0.828,0,1.5,0.671,1.5,1.5v3.132c0,0.335-0.11,0.646-0.297,0.896c0.346,0.275,0.566,0.698,0.566,1.174v5.938
			c0,0.428-0.022,0.844-0.069,1.252h2.174c0.828,0,1.5,0.671,1.5,1.5v3.649c0,0.829-0.672,1.5-1.5,1.5H129.502z"/>
		<path fill="#FFFFFF" d="M136.687,12.127v3.132h-3.04v-3.132H136.687 M132.076,12.127v3.132h-3.041v-3.132H132.076 M136.956,17.328
			v5.938c0,1.008-0.147,1.907-0.417,2.752h4.021v3.649h-11.059v-3.649h2.256c1.152,0,1.74-0.872,1.74-2.615v-6.074H136.956
			 M136.687,9.127h-3.04c-0.271,0-0.535,0.036-0.785,0.104c-0.25-0.068-0.514-0.104-0.785-0.104h-3.041c-1.657,0-3,1.343-3,3v3.132
			c0,1.657,1.343,3,3,3h1.463v4.759h-0.996c-1.657,0-3,1.343-3,3v3.649c0,1.657,1.343,3,3,3h11.059c1.657,0,3-1.343,3-3v-3.649
			c0-1.657-1.343-3-3-3h-0.604v-5.689c0-0.505-0.125-0.98-0.345-1.398c0.049-0.216,0.075-0.44,0.075-0.671v-3.132
			C139.687,10.47,138.344,9.127,136.687,9.127L136.687,9.127z"/>
	</g>
	<g>
		<path fill="#FFFFFF" d="M147.669,35.688c-0.828,0-1.5-0.671-1.5-1.5v-3.021h-6.321c-0.828,0-1.5-0.671-1.5-1.5v-3.649
			c0-0.829,0.672-1.5,1.5-1.5h12.064c-0.561-1.496-1.802-2.475-3.312-2.475c-0.979,0-2.266,0.624-2.992,1.45
			c-0.285,0.326-0.697,0.511-1.127,0.511c-0.033,0-0.067-0.001-0.102-0.003c-0.466-0.032-0.891-0.279-1.149-0.668l-1.718-2.589
			c-0.37-0.56-0.322-1.298,0.116-1.807c1.95-2.26,4.379-3.407,7.218-3.407c6.379,0.031,10.033,4.728,10.033,12.885v1.253
			c0,0.829-0.672,1.5-1.5,1.5h-5.146v3.021c0,0.829-0.672,1.5-1.5,1.5H147.669z"/>
		<path fill="#FFFFFF" d="M148.847,17.029c5.615,0.027,8.533,4.275,8.533,11.385v1.253h-17.532v-3.649h13.878
			c-0.146-3.078-2.256-5.475-5.125-5.475c-1.471,0-3.139,0.844-4.119,1.961c-0.343-0.518-0.907-1.362-1.717-2.588
			C144.433,17.982,146.468,17.029,148.847,17.029 M150.734,31.029v3.159h-3.065v-3.159H150.734 M148.847,14.029
			c-3.249,0-6.138,1.358-8.354,3.927c-0.877,1.017-0.972,2.493-0.231,3.613c0.37,0.561,0.688,1.042,0.959,1.448h-1.373
			c-1.657,0-3,1.343-3,3v3.649c0,1.657,1.343,3,3,3h4.821v1.521c0,1.657,1.343,3,3,3h3.065c1.657,0,3-1.343,3-3v-1.521h3.646
			c1.657,0,3-1.343,3-3v-1.253c0-8.972-4.306-14.35-11.519-14.385C148.856,14.029,148.852,14.029,148.847,14.029L148.847,14.029z"/>
	</g>
	<g>
		<path fill="#FFFFFF" d="M159.901,31.167c-0.828,0-1.5-0.671-1.5-1.5V12.1c0-0.829,0.672-1.5,1.5-1.5h3.433
			c0.828,0,1.5,0.671,1.5,1.5v17.567c0,0.829-0.672,1.5-1.5,1.5H159.901z"/>
		<path fill="#FFFFFF" d="M163.334,12.1v17.567h-3.433V12.1H163.334 M163.334,9.1h-3.433c-1.657,0-3,1.343-3,3v17.567
			c0,1.657,1.343,3,3,3h3.433c1.657,0,3-1.343,3-3V12.1C166.334,10.443,164.991,9.1,163.334,9.1L163.334,9.1z"/>
	</g>
	<g>
		<path fill="#FFFFFF" d="M171.006,31.167c-0.828,0-1.5-0.671-1.5-1.5v-3.649c0-0.829,0.672-1.5,1.5-1.5h7.272
			c-0.342-1.633-1.476-2.502-4.6-2.502c-0.828,0-1.5-0.671-1.5-1.5v-3.188c0-0.829,0.672-1.5,1.5-1.5c2.414,0,4.044,0.197,5.13,0.62
			c3.512,1.385,5.549,4.149,5.955,8.042h2.132c0.828,0,1.5,0.671,1.5,1.5v3.677c0,0.829-0.672,1.5-1.5,1.5H171.006z"/>
		<path fill="#FFFFFF" d="M173.679,17.328c2.157,0,3.678,0.164,4.585,0.518c3.384,1.335,5.076,4.031,5.076,8.145h3.556v3.677h-15.89
			v-3.649h8.9c0-3.813-1.863-5.502-6.228-5.502V17.328 M173.679,14.328c-1.657,0-3,1.343-3,3v3.188c0,1.045,0.534,1.965,1.344,2.502
			h-1.017c-1.657,0-3,1.343-3,3v3.649c0,1.657,1.343,3,3,3h15.89c1.657,0,3-1.343,3-3V25.99c0-1.657-1.343-3-3-3h-0.837
			c-0.935-4.667-4.028-6.884-6.694-7.935C178.071,14.551,176.321,14.328,173.679,14.328L173.679,14.328z"/>
	</g>
	<g>
		<path fill="#FFFFFF" d="M200.328,31.167c-2.357,0-4.37-0.297-6.13-0.908c-1.761,0.611-3.773,0.908-6.131,0.908h-2.231
			c-0.828,0-1.5-0.671-1.5-1.5v-3.649c0-0.829,0.672-1.5,1.5-1.5h1.764c-0.409-1.006-0.615-2.071-0.615-3.186
			c0-0.822,0.122-1.68,0.353-2.483c0.666-2.243,2.076-3.91,3.917-4.759h-0.881c-0.828,0-1.5-0.671-1.5-1.5V9.457
			c0-0.829,0.672-1.5,1.5-1.5h3.04c0.293,0,0.566,0.084,0.797,0.229c0.23-0.145,0.504-0.229,0.797-0.229h3.041
			c0.828,0,1.5,0.671,1.5,1.5v3.133c0,0.829-0.672,1.5-1.5,1.5h-0.888c1.85,0.85,3.253,2.518,3.898,4.758
			c0.233,0.811,0.353,1.647,0.353,2.484c0,1.115-0.206,2.18-0.615,3.186h1.519c0.828,0,1.5,0.671,1.5,1.5v3.649
			c0,0.829-0.672,1.5-1.5,1.5H200.328z M193.435,19.787c-0.223,0.344-0.336,0.772-0.336,1.273c0,0.882,0.265,1.486,0.857,1.959
			c0.084,0.069,0.166,0.135,0.247,0.198c0.088-0.064,0.178-0.133,0.271-0.206c0.583-0.465,0.848-1.07,0.848-1.952
			c0-0.167-0.031-1.633-1.123-1.633C193.922,19.428,193.695,19.489,193.435,19.787z"/>
		<path fill="#FFFFFF" d="M198.048,9.457v3.133h-3.041V9.457H198.048 M193.413,9.457v3.133h-3.04V9.457H193.413 M194.198,14.959
			c2.623,0,4.658,1.662,5.419,4.304c0.196,0.681,0.294,1.389,0.294,2.069c0,1.635-0.539,3.133-1.594,4.467
			c0.294,0.137,0.956,0.219,2.011,0.219h1.986v3.649h-1.986c-2.379,0-4.414-0.327-6.13-1.008c-1.717,0.681-3.752,1.008-6.131,1.008
			h-2.231v-3.649h2.231c1.079,0,1.741-0.082,2.011-0.219c-1.055-1.334-1.594-2.832-1.594-4.467c0-0.681,0.099-1.389,0.294-2.069
			C189.563,16.621,191.623,14.959,194.198,14.959 M194.198,25.01c0.392-0.219,0.784-0.49,1.201-0.817
			c0.956-0.763,1.422-1.798,1.422-3.132c0-1.717-0.98-3.133-2.623-3.133c-0.81,0-1.447,0.327-1.962,0.953
			c-0.417,0.6-0.638,1.335-0.638,2.18c0,1.334,0.466,2.369,1.422,3.132C193.413,24.52,193.806,24.791,194.198,25.01 M198.048,6.457
			h-3.041c-0.276,0-0.543,0.037-0.797,0.107c-0.254-0.07-0.521-0.107-0.797-0.107h-3.04c-1.657,0-3,1.343-3,3v3.133
			c0,0.751,0.275,1.438,0.731,1.963c-0.989,1.034-1.752,2.341-2.202,3.855c-0.28,0.976-0.418,1.951-0.418,2.924
			c0,0.576,0.047,1.141,0.14,1.693c-1.558,0.109-2.788,1.407-2.788,2.993v3.649c0,1.657,1.343,3,3,3h2.231
			c2.314,0,4.332-0.272,6.131-0.83c1.798,0.557,3.815,0.83,6.13,0.83h1.986c1.657,0,3-1.343,3-3v-3.649
			c0-1.503-1.105-2.748-2.547-2.966c0.096-0.561,0.144-1.134,0.144-1.72c0-0.978-0.139-1.954-0.411-2.9
			c-0.438-1.523-1.196-2.836-2.187-3.875c0.457-0.527,0.734-1.214,0.734-1.967V9.457C201.048,7.8,199.705,6.457,198.048,6.457
			L198.048,6.457z"/>
	</g>
	<g>
		<path fill="#FFFFFF" d="M201.01,31.167c-0.828,0-1.5-0.671-1.5-1.5v-3.649c0-0.829,0.672-1.5,1.5-1.5c0,0,2.529,0.001,2.531,0.001
			c0.049,0,0.236-0.268,0.236-1.171V12.127c0-0.829,0.672-1.5,1.5-1.5h3.433c0.828,0,1.5,0.671,1.5,1.5V24.41
			c0,1.756-0.463,3.268-1.377,4.493c-1.07,1.476-2.66,2.264-4.586,2.264H201.01z"/>
		<path fill="#FFFFFF" d="M208.71,12.127V24.41c0,1.443-0.368,2.643-1.079,3.596c-0.81,1.116-1.938,1.661-3.384,1.661h-3.237v-3.649
			h2.526c1.152,0,1.741-0.898,1.741-2.67V12.127H208.71 M208.71,9.127h-3.433c-1.657,0-3,1.343-3,3v10.891h-1.268
			c-1.657,0-3,1.343-3,3v3.649c0,1.657,1.343,3,3,3h3.237c2.427,0,4.437-1.003,5.813-2.9c1.087-1.457,1.65-3.271,1.65-5.357V12.127
			C211.71,10.47,210.367,9.127,208.71,9.127L208.71,9.127z"/>
	</g>
</g>
<g>
	<linearGradient id="SVGID_1_" gradientUnits="userSpaceOnUse" x1="13.5088" y1="15.2271" x2="14.1748" y2="33.894">
		<stop  offset="0" style="stop-color:#2BC4F3"/>
		<stop  offset="0.5" style="stop-color:#00AEEE"/>
		<stop  offset="1" style="stop-color:#0095DA"/>
	</linearGradient>
	<path fill="url(#SVGID_1_)" d="M21.759,29.658h-3.457c-1.963,0-3.336-1.116-4.12-3.351c-0.612,1.063-1.79,1.635-3.481,1.635
		c-2.943,0-4.831-2.832-4.831-6.592c0-4.059,1.839-6.673,5.075-6.673c0-0.026,2.184-0.026,6.548-0.026v8.579
		c0,1.798,0.833,2.778,2.501,2.778h1.766V29.658z M11.656,12.118H8.615v-3.16h3.041V12.118z M13.961,21.052v-3.596h-2.256
		c-1.397,0-2.428,1.716-2.428,3.84c0,1.907,0.981,3.486,2.354,3.486C13.078,24.782,13.961,23.284,13.961,21.052z M16.267,12.118
		h-3.041v-3.16h3.041V12.118z"/>
	<linearGradient id="SVGID_2_" gradientUnits="userSpaceOnUse" x1="26.0708" y1="14.7778" x2="26.7369" y2="33.4469">
		<stop  offset="0" style="stop-color:#2BC4F3"/>
		<stop  offset="0.5" style="stop-color:#00AEEE"/>
		<stop  offset="1" style="stop-color:#0095DA"/>
	</linearGradient>
	<path fill="url(#SVGID_2_)" d="M32.103,29.658H20.97v-3.649h2.33c1.152,0,1.74-0.872,1.74-2.615V12.118h3.457v11.139
		c0,1.008-0.146,1.907-0.416,2.752h4.021V29.658z"/>
	<linearGradient id="SVGID_3_" gradientUnits="userSpaceOnUse" x1="39.6377" y1="14.2949" x2="40.3038" y2="32.9633">
		<stop  offset="0" style="stop-color:#2BC4F3"/>
		<stop  offset="0.5" style="stop-color:#00AEEE"/>
		<stop  offset="1" style="stop-color:#0095DA"/>
	</linearGradient>
	<path fill="url(#SVGID_3_)" d="M48.921,29.658H31.389v-3.649h13.879c-0.147-3.078-2.256-5.475-5.125-5.475
		c-1.472,0-3.139,0.844-4.12,1.961c-0.343-0.518-0.906-1.362-1.716-2.588c1.667-1.934,3.702-2.887,6.081-2.887
		c5.615,0.027,8.533,4.275,8.533,11.385V29.658z"/>
	<linearGradient id="SVGID_4_" gradientUnits="userSpaceOnUse" x1="55.6274" y1="13.7251" x2="56.2935" y2="32.3921">
		<stop  offset="0" style="stop-color:#2BC4F3"/>
		<stop  offset="0.5" style="stop-color:#00AEEE"/>
		<stop  offset="1" style="stop-color:#0095DA"/>
	</linearGradient>
	<path fill="url(#SVGID_4_)" d="M61.446,29.658h-3.801c-0.563,2.996-2.771,4.494-6.67,4.494v-3.077c2.256,0,3.385-1.199,3.385-3.596
		v-10.16h3.457v8.689h3.629V29.658z"/>
	<linearGradient id="SVGID_5_" gradientUnits="userSpaceOnUse" x1="68.4521" y1="13.2666" x2="69.1182" y2="31.9336">
		<stop  offset="0" style="stop-color:#2BC4F3"/>
		<stop  offset="0.5" style="stop-color:#00AEEE"/>
		<stop  offset="1" style="stop-color:#0095DA"/>
	</linearGradient>
	<path fill="url(#SVGID_5_)" d="M77.431,29.658h-3.923c-1.005,1.553-2.55,2.343-4.585,2.343c-2.084,0-3.629-0.79-4.659-2.343h-3.752
		v-3.649h2.747c0-3.922,2.01-6.374,5.565-6.374c3.58,0,5.738,2.37,5.738,6.374h2.868V29.658z M71.153,25.927
		c0-2.152-0.734-3.241-2.182-3.241h-0.245c-1.251,0-2.085,1.308-2.085,3.077c0,1.826,0.834,3.133,2.281,3.133
		C70.32,28.896,71.153,27.751,71.153,25.927z"/>
	<linearGradient id="SVGID_6_" gradientUnits="userSpaceOnUse" x1="79.7158" y1="12.8647" x2="80.3819" y2="31.5328">
		<stop  offset="0" style="stop-color:#2BC4F3"/>
		<stop  offset="0.5" style="stop-color:#00AEEE"/>
		<stop  offset="1" style="stop-color:#0095DA"/>
	</linearGradient>
	<path fill="url(#SVGID_6_)" d="M83.852,24.401c0,1.443-0.368,2.643-1.079,3.596c-0.809,1.116-1.938,1.661-3.384,1.661h-3.237
		v-3.649h2.526c1.152,0,1.741-0.898,1.741-2.67V12.118h3.433V24.401z"/>
	<linearGradient id="SVGID_7_" gradientUnits="userSpaceOnUse" x1="87.7715" y1="12.5776" x2="88.4375" y2="31.2457">
		<stop  offset="0" style="stop-color:#2BC4F3"/>
		<stop  offset="0.5" style="stop-color:#00AEEE"/>
		<stop  offset="1" style="stop-color:#0095DA"/>
	</linearGradient>
	<path fill="url(#SVGID_7_)" d="M89.784,29.658h-3.434V12.091h3.434V29.658z"/>
	<linearGradient id="SVGID_8_" gradientUnits="userSpaceOnUse" x1="107.0068" y1="11.8921" x2="107.6729" y2="30.5591">
		<stop  offset="0" style="stop-color:#2BC4F3"/>
		<stop  offset="0.5" style="stop-color:#00AEEE"/>
		<stop  offset="1" style="stop-color:#0095DA"/>
	</linearGradient>
	<path fill="url(#SVGID_8_)" d="M117.857,25.164c0,2.833-1.496,4.494-4.144,4.494h-8.877c-5.42,0-8.117-2.533-8.117-7.626v-4.74
		h3.385v4.74c0,1.606,0.465,2.723,1.373,3.295c0.711,0.463,1.839,0.682,3.433,0.682h6.326c0.981,0,1.644-0.082,2.011-0.272
		c0.81-0.382,1.227-1.226,1.227-2.506v-5.911h3.384V25.164z M106.676,17.319h-3.065V14.16h3.065V17.319z M111.31,17.319h-3.064
		V14.16h3.064V17.319z"/>
	<linearGradient id="SVGID_9_" gradientUnits="userSpaceOnUse" x1="124.4512" y1="11.2686" x2="125.1172" y2="29.9364">
		<stop  offset="0" style="stop-color:#2BC4F3"/>
		<stop  offset="0.5" style="stop-color:#00AEEE"/>
		<stop  offset="1" style="stop-color:#0095DA"/>
	</linearGradient>
	<path fill="url(#SVGID_9_)" d="M130.357,29.658h-3.801c-0.563,2.996-2.771,4.494-6.67,4.494v-3.077
		c2.256,0,3.384-1.199,3.384-3.596v-10.16h3.457v8.689h3.63V29.658z M126.507,15.25h-3.04v-3.132h3.04V15.25z"/>
	<linearGradient id="SVGID_10_" gradientUnits="userSpaceOnUse" x1="134.4951" y1="10.9102" x2="135.1611" y2="29.5771">
		<stop  offset="0" style="stop-color:#2BC4F3"/>
		<stop  offset="0.5" style="stop-color:#00AEEE"/>
		<stop  offset="1" style="stop-color:#0095DA"/>
	</linearGradient>
	<path fill="url(#SVGID_10_)" d="M132.144,15.25h-3.041v-3.132h3.041V15.25z M140.628,29.658h-11.059v-3.649h2.256
		c1.152,0,1.74-0.872,1.74-2.615v-6.074h3.458v5.938c0,1.008-0.147,1.907-0.417,2.752h4.021V29.658z M136.754,15.25h-3.04v-3.132
		h3.04V15.25z"/>
	<linearGradient id="SVGID_11_" gradientUnits="userSpaceOnUse" x1="148.0254" y1="10.4287" x2="148.6914" y2="29.0957">
		<stop  offset="0" style="stop-color:#2BC4F3"/>
		<stop  offset="0.5" style="stop-color:#00AEEE"/>
		<stop  offset="1" style="stop-color:#0095DA"/>
	</linearGradient>
	<path fill="url(#SVGID_11_)" d="M157.447,29.658h-17.532v-3.649h13.878c-0.146-3.078-2.256-5.475-5.125-5.475
		c-1.471,0-3.139,0.844-4.119,1.961c-0.343-0.518-0.907-1.362-1.717-2.588c1.668-1.934,3.703-2.887,6.082-2.887
		c5.615,0.027,8.533,4.275,8.533,11.385V29.658z M150.802,34.18h-3.065v-3.159h3.065V34.18z"/>
	<linearGradient id="SVGID_12_" gradientUnits="userSpaceOnUse" x1="161.2959" y1="9.9541" x2="161.9619" y2="28.6221">
		<stop  offset="0" style="stop-color:#2BC4F3"/>
		<stop  offset="0.5" style="stop-color:#00AEEE"/>
		<stop  offset="1" style="stop-color:#0095DA"/>
	</linearGradient>
	<path fill="url(#SVGID_12_)" d="M163.401,29.658h-3.433V12.091h3.433V29.658z"/>
	<linearGradient id="SVGID_13_" gradientUnits="userSpaceOnUse" x1="178.3594" y1="9.3472" x2="179.0253" y2="28.0127">
		<stop  offset="0" style="stop-color:#2BC4F3"/>
		<stop  offset="0.5" style="stop-color:#00AEEE"/>
		<stop  offset="1" style="stop-color:#0095DA"/>
	</linearGradient>
	<path fill="url(#SVGID_13_)" d="M186.963,29.658h-15.89v-3.649h8.9c0-3.813-1.863-5.502-6.228-5.502v-3.188
		c2.157,0,3.678,0.164,4.585,0.518c3.384,1.335,5.076,4.031,5.076,8.145h3.556V29.658z"/>
	<linearGradient id="SVGID_14_" gradientUnits="userSpaceOnUse" x1="193.4639" y1="8.8066" x2="194.1299" y2="27.4736">
		<stop  offset="0" style="stop-color:#2BC4F3"/>
		<stop  offset="0.5" style="stop-color:#00AEEE"/>
		<stop  offset="1" style="stop-color:#0095DA"/>
	</linearGradient>
	<path fill="url(#SVGID_14_)" d="M202.382,29.658h-1.986c-2.379,0-4.414-0.327-6.13-1.008c-1.717,0.681-3.752,1.008-6.131,1.008
		h-2.231v-3.649h2.231c1.079,0,1.741-0.082,2.011-0.219c-1.055-1.334-1.594-2.832-1.594-4.467c0-0.681,0.099-1.389,0.294-2.069
		c0.785-2.642,2.845-4.304,5.42-4.304c2.623,0,4.658,1.662,5.419,4.304c0.196,0.681,0.294,1.389,0.294,2.069
		c0,1.635-0.539,3.133-1.594,4.467c0.294,0.137,0.956,0.219,2.011,0.219h1.986V29.658z M193.48,12.581h-3.04V9.448h3.04V12.581z
		 M195.467,24.184c0.956-0.763,1.422-1.798,1.422-3.132c0-1.717-0.98-3.133-2.623-3.133c-0.81,0-1.447,0.327-1.962,0.953
		c-0.417,0.6-0.638,1.335-0.638,2.18c0,1.334,0.466,2.369,1.422,3.132c0.393,0.327,0.785,0.599,1.178,0.817
		C194.657,24.782,195.05,24.511,195.467,24.184z M198.115,12.581h-3.041V9.448h3.041V12.581z"/>
	<linearGradient id="SVGID_15_" gradientUnits="userSpaceOnUse" x1="204.4814" y1="8.4121" x2="205.1475" y2="27.0812">
		<stop  offset="0" style="stop-color:#2BC4F3"/>
		<stop  offset="0.5" style="stop-color:#00AEEE"/>
		<stop  offset="1" style="stop-color:#0095DA"/>
	</linearGradient>
	<path fill="url(#SVGID_15_)" d="M208.777,24.401c0,1.443-0.368,2.643-1.079,3.596c-0.81,1.116-1.938,1.661-3.384,1.661h-3.237
		v-3.649h2.526c1.152,0,1.741-0.898,1.741-2.67V12.118h3.433V24.401z"/>
</g>
<g>
	<linearGradient id="SVGID_16_" gradientUnits="userSpaceOnUse" x1="86.5576" y1="42.667" x2="86.5576" y2="56.0176">
		<stop  offset="0" style="stop-color:#F69453"/>
		<stop  offset="0.5" style="stop-color:#F37521"/>
		<stop  offset="1" style="stop-color:#F15A29"/>
	</linearGradient>
	<path fill="url(#SVGID_16_)" d="M92.378,55.912h-4.88c-2.476,0-3.523,0.801-3.523,2.83c0,1.904,1.143,2.832,3.452,2.832h2.452
		v3.482h-2.215c-4.641,0-7.021-2.43-7.021-6.314c0-3.257,1.856-5.611,4.928-6.163c0.595-0.101,1.737-0.15,3.475-0.15
		c-0.428-2.229-1.713-3.332-3.832-3.332c-0.547,0-1.023,0.101-1.452,0.275v-3.106c0.548-0.101,1.071-0.125,1.571-0.125
		c4.428,0,7.141,3.382,7.141,8.192C92.473,54.834,92.449,55.36,92.378,55.912z"/>
	<linearGradient id="SVGID_17_" gradientUnits="userSpaceOnUse" x1="98.4849" y1="42.667" x2="98.4849" y2="56.0176">
		<stop  offset="0" style="stop-color:#F69453"/>
		<stop  offset="0.5" style="stop-color:#F37521"/>
		<stop  offset="1" style="stop-color:#F15A29"/>
	</linearGradient>
	<path fill="url(#SVGID_17_)" d="M102.067,60.897h-3.142c-2.547,0-4.023-1.554-4.023-4.134V44.736h3.333v10.198
		c0,1.704,0.404,2.605,2.856,2.605h0.976V60.897z"/>
	<linearGradient id="SVGID_18_" gradientUnits="userSpaceOnUse" x1="111.4238" y1="42.667" x2="111.4238" y2="56.0176">
		<stop  offset="0" style="stop-color:#F69453"/>
		<stop  offset="0.5" style="stop-color:#F37521"/>
		<stop  offset="1" style="stop-color:#F15A29"/>
	</linearGradient>
	<path fill="url(#SVGID_18_)" d="M121.373,60.897h-19.899V57.54h13.521c-0.072-1.327-0.523-2.455-1.357-3.407
		c-0.928-1.078-2.166-1.629-3.666-1.629c-1.428,0-3.047,0.777-3.975,1.805c-0.333-0.477-0.881-1.254-1.666-2.381
		c1.618-1.779,3.57-2.656,5.879-2.656c1.404,0,2.643,0.275,3.714,0.803c2.547,1.277,4.046,3.758,4.451,7.466h2.999V60.897z
		 M111.947,65.057h-2.952V62.15h2.952V65.057z"/>
	<linearGradient id="SVGID_19_" gradientUnits="userSpaceOnUse" x1="125.7207" y1="42.667" x2="125.7207" y2="56.0176">
		<stop  offset="0" style="stop-color:#F69453"/>
		<stop  offset="0.5" style="stop-color:#F37521"/>
		<stop  offset="1" style="stop-color:#F15A29"/>
	</linearGradient>
	<path fill="url(#SVGID_19_)" d="M131.088,60.897h-10.734V57.54h2.189c1.119,0,1.689-0.802,1.689-2.405v-5.588h3.357v5.463
		c0,0.927-0.144,1.754-0.405,2.53h3.903V60.897z M127.327,47.644h-2.976v-2.882h2.976V47.644z"/>
	<linearGradient id="SVGID_20_" gradientUnits="userSpaceOnUse" x1="134.1836" y1="42.667" x2="134.1836" y2="56.0176">
		<stop  offset="0" style="stop-color:#F69453"/>
		<stop  offset="0.5" style="stop-color:#F37521"/>
		<stop  offset="1" style="stop-color:#F15A29"/>
	</linearGradient>
	<path fill="url(#SVGID_20_)" d="M137.755,56.063c0,1.327-0.357,2.43-1.048,3.307c-0.785,1.027-1.881,1.528-3.261,1.528h-2.833
		V57.54h2.119c1.118,0,1.689-0.827,1.689-2.455v-5.538h3.333V56.063z M137.564,65.057h-2.952V62.15h2.952V65.057z"/>
</g>
</svg>
