<?xml version="1.0" encoding="utf-8"?>
<!-- Generator: Adobe Illustrator 16.0.0, SVG Export Plug-In . SVG Version: 6.00 Build 0)  -->
<!DOCTYPE svg PUBLIC "-//W3C//DTD SVG 1.1//EN" "http://www.w3.org/Graphics/SVG/1.1/DTD/svg11.dtd">
<svg version="1.1" id="Layer_1" xmlns="http://www.w3.org/2000/svg" xmlns:xlink="http://www.w3.org/1999/xlink" x="0px" y="0px"
	 width="48px" height="48px" viewBox="0 0 48 48" enable-background="new 0 0 48 48" xml:space="preserve">
<g>
	<path fill="#3F529F" d="M1,42.75c0,1.657,1.343,3,3,3h39.834c1.657,0,3-1.343,3-3V5.303c0-1.657-1.343-3-3-3H4
		c-1.657,0-3,1.343-3,3V42.75z"/>
</g>
<g>
	<g>
		<path fill="#FFFFFF" d="M39.143,36.262V31.89V21.519v-1.325v-0.692c0-1.295-1.023-2.355-2.275-2.355h-7.775
			c-1.252,0-2.275,1.061-2.275,2.355v0.692v16.068v0.417c0,1.294,1.023,2.355,2.275,2.355h7.775c1.252,0,2.275-1.062,2.275-2.355
			V36.262L39.143,36.262z M33.961,38.047h-2.195c-0.326,0-0.59-0.276-0.59-0.613c0-0.338,0.264-0.613,0.59-0.613h2.195
			c0.324,0,0.588,0.275,0.588,0.613C34.549,37.771,34.285,38.047,33.961,38.047z M37.076,35.839c-0.012,0-0.031,0.006-0.043,0.006
			h-8.107c-0.013,0-0.031-0.006-0.043-0.006V20.359c0.012,0,0.03-0.007,0.043-0.007h8.107c0.012,0,0.025,0.007,0.037,0.007v15.479
			H37.076z M15.642,39.034h3.852h5.942c-0.398-0.693-0.631-1.496-0.631-2.355v-1.404h-2.19H11.753V12.275h16.67v2.815
			c0.221-0.03,0.441-0.055,0.669-0.055h1.863v-2.871v-0.386v-0.344c0-1-0.588-1.858-1.429-2.227
			c-0.282-0.122-0.589-0.189-0.913-0.189h-9.114h-7.967c-0.325,0-0.632,0.067-0.914,0.189c-0.84,0.368-1.429,1.227-1.429,2.227
			v0.436v21.797v2.95c0,1.337,1.049,2.416,2.337,2.416H15.642L15.642,39.034z M18.972,36.593h2.196c0.325,0,0.588,0.276,0.588,0.613
			c0,0.338-0.264,0.613-0.588,0.613h-2.196c-0.325,0-0.589-0.275-0.589-0.613C18.383,36.869,18.646,36.593,18.972,36.593z"/>
	</g>
</g>
</svg>
