<?xml version="1.0" encoding="utf-8"?>
<!-- Generator: Adobe Illustrator 16.0.0, SVG Export Plug-In . SVG Version: 6.00 Build 0)  -->
<!DOCTYPE svg PUBLIC "-//W3C//DTD SVG 1.1//EN" "http://www.w3.org/Graphics/SVG/1.1/DTD/svg11.dtd">
<svg version="1.1" id="Layer_1" xmlns="http://www.w3.org/2000/svg" xmlns:xlink="http://www.w3.org/1999/xlink" x="0px" y="0px"
	 width="48px" height="48px" viewBox="0 0 48 48" enable-background="new 0 0 48 48" xml:space="preserve">
<g>
	<path fill="#014358" d="M1,42.75c0,1.657,1.343,3,3,3h39.834c1.657,0,3-1.343,3-3V5.303c0-1.657-1.343-3-3-3H4
		c-1.657,0-3,1.343-3,3V42.75z"/>
</g>
<g>
	<g>
		<g>
			<path fill="#FFFFFF" d="M12.542,12.489c-0.001,0-0.002,0-0.002,0c-0.285,0-0.553,0.111-0.755,0.313
				c-0.205,0.204-0.318,0.476-0.318,0.766v16.17c0,0.593,0.484,1.076,1.08,1.078c2.51,0.006,6.716,0.528,9.617,3.565V17.458
				c0-0.201-0.051-0.39-0.148-0.546C19.634,13.077,15.058,12.495,12.542,12.489z"/>
			<path fill="#FFFFFF" d="M34.533,29.737v-16.17c0-0.29-0.111-0.562-0.316-0.766c-0.203-0.202-0.471-0.313-0.756-0.313
				c-0.001,0-0.002,0-0.003,0c-2.516,0.006-7.091,0.588-9.473,4.423c-0.097,0.156-0.148,0.345-0.148,0.546v16.923
				c2.901-3.037,7.106-3.561,9.616-3.565C34.049,30.813,34.533,30.33,34.533,29.737z"/>
			<path fill="#FFFFFF" d="M36.99,16.218h-0.782v13.519c0,1.515-1.233,2.749-2.751,2.753c-2.129,0.004-5.639,0.42-8.125,2.773
				c4.3-1.053,8.833-0.367,11.416,0.221c0.323,0.074,0.656-0.002,0.914-0.209c0.258-0.205,0.406-0.512,0.406-0.842V17.296
				C38.068,16.702,37.584,16.218,36.99,16.218z"/>
			<path fill="#FFFFFF" d="M9.793,29.737V16.218H9.011c-0.594,0-1.078,0.483-1.078,1.078v17.137c0,0.33,0.148,0.637,0.405,0.842
				c0.258,0.207,0.591,0.283,0.914,0.209c2.583-0.588,7.117-1.273,11.416-0.221c-2.486-2.354-5.996-2.77-8.125-2.773
				C11.026,32.486,9.793,31.252,9.793,29.737z"/>
		</g>
	</g>
</g>
</svg>
