<?xml version="1.0" encoding="utf-8"?>
<!-- Generator: Adobe Illustrator 16.0.0, SVG Export Plug-In . SVG Version: 6.00 Build 0)  -->
<!DOCTYPE svg PUBLIC "-//W3C//DTD SVG 1.1//EN" "http://www.w3.org/Graphics/SVG/1.1/DTD/svg11.dtd">
<svg version="1.1" id="Capa_1" xmlns="http://www.w3.org/2000/svg" xmlns:xlink="http://www.w3.org/1999/xlink" x="0px" y="0px"
	 width="512px" height="512px" viewBox="0 0 512 512" enable-background="new 0 0 512 512" xml:space="preserve">
<g>
	<g id="Double_Chevron_Left">
		<path fill="#01A951" d="M78.755,255.985l198.05-200.893c12.499-12.594,12.499-33.05,0-45.644
			c-12.498-12.594-32.729-12.594-45.197,0L11.087,233.165c-11.985,12.113-12.049,33.5,0,45.676L231.64,502.558
			c12.466,12.595,32.73,12.595,45.197,0c12.498-12.595,12.498-33.051,0-45.645L78.755,255.985z"/>
		<path fill="#01A951" d="M302.503,255.985L500.554,55.092c12.498-12.594,12.498-33.05,0-45.644
			c-12.499-12.594-32.731-12.594-45.198,0l-220.52,223.716c-11.985,12.113-12.05,33.5,0,45.676l220.52,223.717
			c12.498,12.595,32.731,12.595,45.198,0c12.498-12.595,12.498-33.051,0-45.645L302.503,255.985z"/>
	</g>
</g>
</svg>
