<?xml version="1.0" encoding="utf-8"?>
<!-- Generator: Adobe Illustrator 16.0.0, SVG Export Plug-In . SVG Version: 6.00 Build 0)  -->
<!DOCTYPE svg PUBLIC "-//W3C//DTD SVG 1.1//EN" "http://www.w3.org/Graphics/SVG/1.1/DTD/svg11.dtd">
<svg version="1.1" id="Capa_1" xmlns="http://www.w3.org/2000/svg" xmlns:xlink="http://www.w3.org/1999/xlink" x="0px" y="0px"
	 width="512px" height="512px" viewBox="0 0 512 512" enable-background="new 0 0 512 512" xml:space="preserve">
<g>
	<g id="Double_Chevron_Left">
		<path fill="#01A951" d="M433.246,256.021l-198.05,200.894c-12.498,12.594-12.498,33.05,0,45.644
			c12.498,12.596,32.73,12.596,45.197,0l220.521-223.716c11.985-12.112,12.05-33.5,0-45.677L280.363,9.448
			c-12.466-12.594-32.729-12.594-45.196,0c-12.498,12.595-12.498,33.051,0,45.645L433.246,256.021z"/>
		<path fill="#01A951" d="M209.499,256.021L11.448,456.914c-12.497,12.594-12.497,33.05,0,45.644
			c12.499,12.596,32.731,12.596,45.198,0l220.521-223.716c11.984-12.113,12.05-33.5,0-45.677L56.647,9.448
			c-12.498-12.594-32.73-12.594-45.197,0c-12.498,12.595-12.498,33.051,0,45.645L209.499,256.021z"/>
	</g>
</g>
</svg>
