<?xml version="1.0" encoding="utf-8"?>
<!-- Generator: Adobe Illustrator 16.0.0, SVG Export Plug-In . SVG Version: 6.00 Build 0)  -->
<!DOCTYPE svg PUBLIC "-//W3C//DTD SVG 1.1//EN" "http://www.w3.org/Graphics/SVG/1.1/DTD/svg11.dtd">
<svg version="1.1" id="Isolation_Mode" xmlns="http://www.w3.org/2000/svg" xmlns:xlink="http://www.w3.org/1999/xlink" x="0px"
	 y="0px" width="186px" height="195.602px" viewBox="0 0 186 195.602" enable-background="new 0 0 186 195.602"
	 xml:space="preserve">
<circle display="none" fill="#FFFFFF" cx="93.595" cy="96.677" r="83.675"/>
<circle display="none" fill="#014358" cx="93.595" cy="96.677" r="73.671"/>
<g display="none">
	<g display="inline">
		<g>
			<path fill="#FFFFFF" d="M67.952,69.926c-0.002,0-0.004,0-0.006,0c-0.676,0-1.312,0.264-1.791,0.742
				c-0.486,0.483-0.753,1.129-0.753,1.815v38.338c0,1.405,1.148,2.552,2.56,2.556c5.952,0.014,15.923,1.253,22.801,8.453V81.708
				c0-0.478-0.122-0.926-0.352-1.294C84.765,71.321,73.916,69.941,67.952,69.926z"/>
			<path fill="#FFFFFF" d="M120.09,110.821V72.483c0-0.686-0.264-1.332-0.75-1.815c-0.481-0.479-1.115-0.742-1.792-0.742
				c-0.002,0-0.005,0-0.007,0c-5.964,0.015-16.812,1.395-22.459,10.488c-0.229,0.369-0.35,0.817-0.35,1.294v40.123
				c6.878-7.2,16.847-8.442,22.798-8.453C118.942,113.373,120.09,112.227,120.09,110.821z"/>
			<path fill="#FFFFFF" d="M125.917,78.769h-1.854v32.053c0,3.591-2.925,6.518-6.523,6.527c-5.047,0.009-13.369,0.996-19.264,6.576
				c10.195-2.496,20.943-0.871,27.067,0.523c0.767,0.176,1.556-0.004,2.167-0.495c0.612-0.486,0.964-1.214,0.964-1.996V81.325
				C128.473,79.914,127.324,78.769,125.917,78.769z"/>
			<path fill="#FFFFFF" d="M61.433,110.821V78.769h-1.854c-1.409,0-2.556,1.146-2.556,2.556v40.631c0,0.782,0.351,1.51,0.96,1.996
				c0.613,0.491,1.402,0.671,2.167,0.495c6.125-1.394,16.874-3.019,27.067-0.523c-5.894-5.581-14.217-6.567-19.266-6.576
				C64.357,117.339,61.433,114.412,61.433,110.821z"/>
		</g>
	</g>
</g>
<circle display="none" fill="#FFFFFF" cx="93.595" cy="96.677" r="83.675"/>
<circle display="none" fill="#1E8A70" cx="93.595" cy="96.677" r="73.671"/>
<g display="none">
	<path display="inline" fill="#FFFFFF" d="M131.542,73.254H94.988l-0.003-0.003l-32.115-9.76c-0.41-0.125-0.846-0.051-1.186,0.203
		c-0.34,0.251-0.541,0.653-0.541,1.073v8.487h-3.492c-0.739,0-1.339,0.603-1.339,1.337v47.305c0,0.737,0.601,1.338,1.338,1.338
		h27.746v5.298h-5.074v1.34v1.335h28.546v-1.335v-1.34h-5.074v-5.298h27.746c0.734,0,1.337-0.601,1.337-1.338V74.592
		C132.879,73.851,132.279,73.254,131.542,73.254z M63.817,73.254v-6.681l21.975,6.681l4.402,1.337l3.061,0.932v0.407v44.099
		l-29.438-8.947V75.931v-1.337V73.254z M130.201,120.563H95.933V75.931h5.26v4.965l2.603-1.648l2.607,1.648v-4.965h23.808v44.626
		h-0.01V120.563L130.201,120.563z M88.72,84.112l-10.432-3.175v-1.76l10.432,3.178V84.112z M88.72,90.83l-10.432-3.174v-1.766
		l10.432,3.177V90.83z M88.72,97.604l-20.863-6.346V89.5l20.863,6.345V97.604z M88.72,104.317l-20.863-6.343V96.21l20.863,6.343
		V104.317z M88.72,111.097l-20.863-6.347v-1.761l20.863,6.339V111.097z M69.644,85.544l0.543-1.771l3.143,0.952l0.559,2.106
		l0.914,0.278l0.918,0.279l-2.927-10.413l-1.004-0.303l-1.004-0.303l-2.928,8.632l0.897,0.275L69.644,85.544z M71.766,78.791
		l1.097,4.157l-2.195-0.667L71.766,78.791z M126.207,104.438h-23.998v-1.763h23.999L126.207,104.438L126.207,104.438z
		 M126.207,111.213h-23.998v-1.761h23.999L126.207,111.213L126.207,111.213z M121.205,96.001h-3.263
		c-0.688-1.868-1.886-3.402-3.373-4.291c0.856-0.811,1.359-1.947,1.359-3.147c0-2.041-1.404-3.741-3.292-4.219
		c0.655-0.571,1.499-0.925,2.431-0.925c2.057,0,3.724,1.667,3.724,3.725c0,1.418-0.805,2.636-1.965,3.267
		C118.943,91.184,120.611,93.306,121.205,96.001z M113.323,91.83c1.173-0.629,1.971-1.844,1.971-3.264
		c0-2.061-1.667-3.728-3.725-3.728c-2.059,0-3.724,1.667-3.724,3.728c0,1.416,0.805,2.63,1.965,3.264
		c-2.117,0.771-3.783,2.894-4.384,5.589H117.7C117.109,94.724,115.443,92.601,113.323,91.83z"/>
</g>
<circle fill="#FFFFFF" cx="93.595" cy="96.677" r="83.675"/>
<circle fill="#B1B819" cx="93.595" cy="96.677" r="73.671"/>
<g>
	<g>
		<path fill="#FFFFFF" d="M89.453,114.32l-4.273-11.859L66.521,83.754l0.011-0.015l-5.985-5.986l-7.037,7.037l5.985,5.985
			l0.009-0.006l18.549,18.542L89.453,114.32z M58.345,87.004l-2.212-2.214l4.417-4.416l2.214,2.218L58.345,87.004z M80.938,105.351
			l2.77,0.496l0.027-3.58l0.613,0.61l2.435,6.772l-1.742,1.741l-6.392-2.791l-0.843-0.845l3.777,0.225L80.938,105.351z"/>
		<path fill="#FFFFFF" d="M118.479,78.526c-11.028,0-20.005,6.172-20.005,13.761c0,4.298,2.92,8.335,7.861,10.929l-3.846,6.713
			l1.656-0.254c0.11-0.022,11.148-1.736,18.724-3.978c9.927-2.943,15.625-7.832,15.625-13.41
			C138.493,84.699,129.516,78.526,118.479,78.526z M120.487,99.736h-4.323v-4.115h4.323V99.736z M124.004,90.371
			c-0.167,0.397-0.389,0.724-0.66,0.988c-0.266,0.264-0.569,0.481-0.898,0.656c-0.335,0.172-0.672,0.349-1.019,0.529
			c-0.234,0.125-0.43,0.25-0.583,0.376c-0.156,0.121-0.269,0.255-0.356,0.392c-0.081,0.139-0.14,0.298-0.171,0.479
			c-0.034,0.18-0.051,0.387-0.051,0.623h-3.846c-0.015-0.208-0.02-0.47-0.02-0.79c0-0.333,0.039-0.672,0.12-1.019
			c0.081-0.343,0.229-0.684,0.442-1.019c0.206-0.332,0.511-0.608,0.911-0.828c0.166-0.087,0.364-0.175,0.583-0.272
			c0.217-0.099,0.435-0.206,0.63-0.325c0.2-0.115,0.371-0.258,0.503-0.427c0.144-0.166,0.212-0.365,0.212-0.604
			c0-0.706-0.4-1.06-1.209-1.06c-0.498,0-0.847,0.18-1.06,0.542c-0.208,0.359-0.286,0.771-0.249,1.227h-4.342
			c0.039-0.652,0.171-1.292,0.393-1.923c0.222-0.629,0.562-1.194,1.014-1.692c0.459-0.5,1.043-0.905,1.756-1.215
			c0.72-0.313,1.585-0.471,2.613-0.471c1.009,0,1.859,0.138,2.557,0.407c0.691,0.267,1.248,0.614,1.678,1.037
			c0.435,0.423,0.75,0.889,0.95,1.396c0.201,0.505,0.315,0.989,0.345,1.443C124.25,89.463,124.17,89.979,124.004,90.371z"/>
		<path fill="#FFFFFF" d="M73.527,76.667h11.162v3.609h16.357v-3.609h11.156v0.506c0.911-0.205,1.844-0.365,2.793-0.481v-2.825
			h-13.949V67.83h-4.417c1.287-1.08,2.132-2.68,2.132-4.487c-0.007-3.249-2.652-5.889-5.9-5.889c-3.247,0-5.888,2.64-5.888,5.887
			c0,1.807,0.84,3.408,2.126,4.487h-4.416v6.04h-13.95v11.782l2.795,2.804V76.667z M92.864,60.25c1.705,0,3.089,1.386,3.089,3.09
			s-1.385,3.09-3.089,3.09c-1.706,0-3.091-1.386-3.091-3.09S91.161,60.25,92.864,60.25z"/>
		<path fill="#FFFFFF" d="M112.201,126.228H73.527v-18.785l-2.795-2.801v24.377h44.263v-19.557c-0.95,0.203-1.888,0.396-2.793,0.574
			V126.228z"/>
	</g>
</g>
<circle display="none" fill="#FFFFFF" cx="93.595" cy="96.677" r="83.675"/>
<circle display="none" fill="#EFCA2B" cx="93.595" cy="96.677" r="73.671"/>
<g display="none">
	<g display="inline">
		<path fill="#FFFFFF" d="M141.792,46.814c-6.063,5.202-25.831,22.5-25.452,26.342l0.026,0.245l0.882,1.175l-1.381,0.005
			l-0.232,0.01c-1.214,0.208-3.398,3.776-4.11,6.709c-0.821,3.399-0.005,6.133,2.373,7.914c0.138,0.103,0.285,0.184,0.428,0.28
			l-1.136,1.538l-1.838-1.268l-0.761,1.098l1.82,1.241l-8.501,11.527l3.99-2.246l5.965-8.285l1.324,0.907l0.747-1.098l-1.297-0.889
			l1.248-1.745c1.432,0.526,3.026,0.668,4.741,0.381c3.783-0.641,7.41-3.208,8.002-4.621c0.175-0.43,0.118-0.762,0.018-0.987
			l-0.266-0.991l1.005,0.3l0.449,0.02c0.826-0.137,1.958-0.332,7.887-18.756c2.84-8.874,5.444-17.817,5.479-17.903l0.806-2.81
			L141.792,46.814z M129.499,82.573l-3.631-1.074l1.093,3.975c-0.514,0.789-3.383,2.915-6.626,3.459
			c-1.226,0.201-2.349,0.135-3.37-0.155L117,88.732l13.176-20.486l-0.314-0.168l-14.269,19.678l-0.231,0.314
			c-0.138-0.088-0.295-0.153-0.435-0.251c-1.378-1.035-2.047-2.495-1.976-4.353c0.115-3.178,2.317-6.516,3.039-7.147l4.728-0.021
			l-2.629-3.491c0.447-2.002,7.85-9.47,16.677-17.483l0.6,3.55l2.918-0.853C134.57,70.095,130.875,80.857,129.499,82.573z
			 M138.697,56.695l-2.402,0.7l-0.504-2.989c1.609-1.45,3.245-2.907,4.901-4.345C140.034,52.278,139.37,54.499,138.697,56.695z"/>
		<path fill="#FFFFFF" d="M121.671,123.953c-3.167-1.273-6.801-1.917-10.822-1.917c-9.887,0-19.286,3.784-22.117,5.032v-18.085
			l1.316,1.45v-27.16c5.326-4.476,11.846-6.773,19.439-6.773c0.661,0,1.3,0.019,1.924,0.055l1.511-2.139
			c-1.098-0.089-2.238-0.15-3.432-0.15c-8.245,0-15.348,2.514-21.123,7.464c-5.781-4.953-12.882-7.464-21.125-7.464
			c-7.698,0-13.469,2.243-13.71,2.334l-0.708,0.278v4.55c-2.331,0.437-3.781,1.216-3.781,2.494c0,6.626,0,46.869,0,46.869h34.512
			c1.194,1.079,2.938,1.742,4.89,1.742c1.952,0,3.698-0.678,4.893-1.742h33.653c0,0,0-40.68,0-40.201
			c-1.896,1.4-5.326,2.127-5.326,2.127v31.241h0.005V123.953z M87.988,127.093c-2.869-1.184-12.737-4.933-22.625-4.933
			c-3.904,0-7.366,0.594-10.313,1.779V78.432c1.723-0.576,6.41-1.93,12.186-1.93c7.59,0,14.111,2.297,19.437,6.773v27.165
			l1.316-1.449V127.093z"/>
		<path fill="#FFFFFF" d="M58.571,85.393l0.468,1.771c11.818-3.13,22.445,2.668,22.556,2.729l0.891-1.603
			C82.033,88.037,71.117,82.073,58.571,85.393z"/>
		<path fill="#FFFFFF" d="M106.822,85.728c-2.098-0.253-7.006-0.843-13.188,1.097l0.55,1.757c5.813-1.829,10.272-1.286,12.422-1.027
			c0.454,0.055,0.806,0.093,1.032,0.098l0.054-1.834C107.493,85.811,107.206,85.773,106.822,85.728z"/>
		<path fill="#FFFFFF" d="M107.638,92.349l0.044-1.831c-0.185-0.007-0.477-0.046-0.855-0.091c-2.098-0.255-7.009-0.843-13.19,1.096
			l0.551,1.754c5.815-1.826,10.271-1.283,12.424-1.027C107.06,92.309,107.407,92.349,107.638,92.349z"/>
		<path fill="#FFFFFF" d="M93.629,96.068l0.55,1.749c5.803-1.825,9.304-1.388,10.999-1.182c0.386,0.052,0.69,0.083,0.934,0.088
			l0.042-1.831c-0.187-0.005-0.438-0.046-0.752-0.076C103.58,94.594,99.813,94.123,93.629,96.068z"/>
		<path fill="#FFFFFF" d="M58.571,90.589l0.468,1.774c11.818-3.135,22.445,2.663,22.556,2.717l0.891-1.6
			C82.033,93.228,71.117,87.265,58.571,90.589z"/>
		<path fill="#FFFFFF" d="M58.571,95.474l0.468,1.779c11.818-3.13,22.445,2.668,22.556,2.72l0.891-1.6
			C82.033,98.117,71.117,92.152,58.571,95.474z"/>
		<path fill="#FFFFFF" d="M58.571,100.83l0.468,1.774c11.818-3.135,22.445,2.663,22.556,2.722l0.891-1.606
			C82.033,103.463,71.117,97.498,58.571,100.83z"/>
		<path fill="#FFFFFF" d="M58.571,105.792l0.468,1.774c11.818-3.135,22.445,2.668,22.556,2.722l0.891-1.609
			C82.033,108.431,71.117,102.466,58.571,105.792z"/>
		<path fill="#FFFFFF" d="M58.571,110.883l0.468,1.774c11.818-3.13,22.445,2.663,22.556,2.722l0.891-1.597
			C82.033,113.521,71.117,107.556,58.571,110.883z"/>
		<path fill="#FFFFFF" d="M58.571,115.993l0.468,1.773c11.818-3.135,22.445,2.664,22.556,2.722l0.891-1.602
			C82.033,118.637,71.117,112.662,58.571,115.993z"/>
	</g>
</g>
<circle display="none" fill="#FFFFFF" cx="93.595" cy="96.677" r="83.675"/>
<circle display="none" fill="#FAB928" cx="93.595" cy="96.677" r="73.671"/>
<g display="none">
	<path display="inline" fill="#FFFFFF" d="M140.858,112.2v-2.624h-2.313v-2.444h-2.332V67.646c0-1.734-1.418-3.14-3.142-3.14H51.138
		c-1.733,0-3.141,1.409-3.141,3.14v54.623c0,1.732,1.416,3.134,3.141,3.134h60.721v4.844h2.446v4.279h1.926v3.944v2.264v0.221
		h22.173v-1.901v-0.573v-4.413h2.356v-6.466h2.279V112.2H140.858L140.858,112.2z M133.066,94.932c1.086,0,1.973,0.879,1.973,1.973
		c0,1.091-0.881,1.969-1.973,1.969c-1.093,0-1.972-0.878-1.972-1.969C131.094,95.812,131.984,94.932,133.066,94.932z
		 M107.307,119.124H54.273V70.786h75.651v34.764h-0.183h-0.357h-1.909V103.2h-4.12v-8.936h-2.104v-2.355h-5.018v2.355h-2.362v18.634
		h-2.241v-1.05h-3.759h-2.313h-0.18v6.502h1.925v0.774H107.307z M140.547,126.984h-2.27v4.983h-2.358v6.513h-17.198v-4.233h-1.923
		v-5.252h-2.449v-3.583v-0.698h-2.192v-2.452v-2.01H109.8v-1.124v-1.146h-1.923v-3.638h3.633v1.983h2.361v2.801v3.133v0.996h2.482
		v-0.996v-3.133V94.395h4.511v20.172h2.49v-8.875h3.899v9.843h2.484v-7.481h0.181h3.142h0.482v9.057h2.487v-7.486h0.166h1.702v2.749
		h2.643v14.613h0.006V126.984L140.547,126.984z M90.161,79.048c-8.77,0-15.875,7.111-15.875,15.875
		c0,8.772,7.111,15.874,15.875,15.874c8.762,0,15.875-7.107,15.875-15.874C106.037,86.16,98.929,79.048,90.161,79.048z
		 M84.755,103.794V86.067l15.357,8.865L84.755,103.794z"/>
</g>
<circle display="none" fill="#FFFFFF" cx="93.595" cy="96.677" r="83.675"/>
<circle display="none" fill="#ED7419" cx="93.595" cy="96.677" r="73.671"/>
<g display="none">
	<path display="inline" fill="#FFFFFF" d="M70.899,80.499c0-9.297,7.563-16.858,16.858-16.858c9.296,0,16.857,7.561,16.857,16.858
		c0,1.583-0.221,3.151-0.656,4.662l4.606,1.33c0.56-1.942,0.845-3.958,0.845-5.992c0-11.939-9.713-21.652-21.652-21.652
		S66.105,68.56,66.105,80.499c0,5.299,1.942,10.403,5.47,14.371l3.583-3.184C72.411,88.595,70.899,84.623,70.899,80.499z"/>
	<path display="inline" fill="#FFFFFF" d="M101.313,82.166c0.072-0.568,0.105-1.128,0.105-1.667c0-7.534-6.128-13.663-13.661-13.663
		s-13.663,6.128-13.663,13.663c0,3.077,1.006,5.985,2.907,8.412l3.774-2.958c-1.234-1.574-1.887-3.459-1.887-5.454
		c0-4.891,3.979-8.869,8.869-8.869c4.89,0,8.869,3.978,8.869,8.869c0,0.349-0.023,0.703-0.069,1.083L101.313,82.166z"/>
	<path display="inline" fill="#FFFFFF" d="M117.001,94.954c-2.251,0-4.076,1.825-4.076,4.073h-1.599v-4.388
		c0-2.253-1.825-4.077-4.074-4.077c-2.25,0-4.076,1.824-4.076,4.077v4.388h-1.597v-8.4c0-2.251-1.824-4.075-4.076-4.075
		c-2.25,0-4.074,1.824-4.074,4.075v8.4h-1.598V80.499c0-2.251-1.824-4.076-4.075-4.076s-4.075,1.824-4.075,4.076v30.168h-1.598
		v-9.839c0-2.249-1.825-4.076-4.075-4.076c-2.25,0-4.075,1.827-4.075,4.076v14.998c0,9.061,7.372,16.432,16.433,16.432h14.278
		c9.06,0,16.429-7.372,16.429-16.432V99.027C121.075,96.778,119.25,94.954,117.001,94.954z"/>
</g>
<circle display="none" fill="#FFFFFF" cx="93.595" cy="96.677" r="83.675"/>
<circle display="none" fill="#DA4214" cx="93.595" cy="96.677" r="73.671"/>
<g display="none">
	<g display="inline">
		<path fill="#FFFFFF" d="M61.979,122.855h65.23c0.78,0,1.303-0.525,1.303-1.306V68.062c0-0.782-0.522-1.303-1.303-1.303h-65.23
			c-0.783,0-1.306,0.521-1.306,1.303v53.488C60.674,122.331,61.196,122.855,61.979,122.855z M73.719,69.366v5.22h2.611v-5.22h16.962
			v19.569c0,0.783,0.522,1.306,1.303,1.306h24.787v-2.61H95.897V77.194h16.962c0.786,0,1.303-0.521,1.303-1.304v-3.914h-2.608v2.61
			H95.897v-5.22h30.01v26.093h-14.354v2.61h14.354v22.179H75.024v-15.656h7.828v9.134h2.608v-9.134h10.437v10.437
			c0,0.783,0.522,1.306,1.306,1.306h22.179v-2.608H98.509v-9.134h18.265v-2.611h-11.742v-6.521c0-0.782-0.522-1.304-1.306-1.304
			H91.986c-0.783,0-1.306,0.522-1.306,1.304v3.913h2.611v-2.61h9.128v5.218H73.719c-0.777,0-1.3,0.52-1.3,1.311v6.52h-5.223v2.608
			h5.223v7.828h-9.134V91.544h10.434c0.783,0,1.306-0.521,1.306-1.304v-6.524h-2.605v5.218h-9.134v-7.827h19.567v16.96h2.608V79.802
			c0-0.781-0.52-1.303-1.303-1.303H63.285v-9.134H73.719z"/>
		<path fill="#FFFFFF" d="M132.427,61.539H56.763c-0.783,0-1.306,0.523-1.306,1.304v63.929c0,0.781,0.522,1.303,1.306,1.303h44.354
			v10.434c0,0.525,0.392,1.042,0.783,1.175c0.262,0.13,0.392,0.13,0.52,0.13c0.392,0,0.786-0.13,0.914-0.389l10.048-11.35h19.045
			c0.783,0,1.306-0.522,1.306-1.303V62.843C133.732,62.063,133.21,61.539,132.427,61.539z M131.121,125.592h-18.262
			c-0.262,0-0.652,0.133-0.911,0.395l-8.223,9.128v-8.342c0-0.786-0.52-1.306-1.306-1.306H58.065V64.147h73.056V125.592z"/>
	</g>
</g>
<circle display="none" fill="#FFFFFF" cx="93.595" cy="96.677" r="83.675"/>
<circle display="none" fill="#B8181D" cx="93.595" cy="96.677" r="73.671"/>
<g display="none">
	<g display="inline">
		<path fill="#FFFFFF" d="M86.848,84.568l-7.659,40.21l-0.007-0.006l-32.381,4.8l43.206,15.506l38.47-5.171l11.865-50.094
			L86.848,84.568z M79.253,139.035l-10.607-4.051l5.111-0.683l11.899,3.971L79.253,139.035z M124.96,135.705l-42.793-12.108
			l6.878-35.488l45.91,5.395L124.96,135.705z"/>
		<path fill="#FFFFFF" d="M71.825,94.011l-2.499,2.51l-0.002-0.006l-0.727,0.729l-27.216,27.339l28.408-2.159L71.825,94.011z
			 M44.7,123.119l1.511-1.518l0.782,0.766l0.485-0.482l-0.782-0.776l0.704-0.713l1.33,1.322l0.482-0.488l-1.333-1.319l0.521-0.523
			l0.91,0.895l0.482-0.49l-0.907-0.89l0.716-0.725l1.33,1.317l0.481-0.49l-1.33-1.316l0.519-0.526l0.913,0.898l0.478-0.479
			l-0.905-0.903l0.661-0.669l1.332,1.319l0.48-0.485l-1.333-1.319l0.525-0.529l0.909,0.895l0.481-0.481l-0.913-0.895l0.724-0.725
			l1.33,1.313l0.482-0.484l-1.335-1.328l0.523-0.531l0.91,0.906l0.482-0.485l-0.91-0.903l0.646-0.641l0.023,0.019l0.347-0.375
			l0.998,0.989l0.485-0.482l-1.055-1.041l0.522-0.529l0.632,0.625l0.478-0.479l-0.624-0.627l0.719-0.722l1.049,1.047l0.478-0.493
			l-1.045-1.044L59.609,108l0.621,0.617l0.489-0.484l-0.618-0.631l0.707-0.713l1.169,1.159l0.48-0.484l-1.169-1.154l0.523-0.526
			l0.746,0.735l0.475-0.488l-0.738-0.727l0.716-0.729l1.168,1.151l0.48-0.49l-1.16-1.14l0.523-0.535l0.735,0.732l0.48-0.493
			l-0.731-0.724l0.661-0.664l1.156,1.148l0.482-0.49l-1.157-1.143l0.526-0.523l0.728,0.724l0.482-0.485l-0.729-0.724l0.723-0.719
			l1.149,1.14l0.48-0.485l-1.148-1.144l0.522-0.528l0.726,0.722l0.482-0.487l-0.726-0.716l1.519-1.527l-1.73,24.121L44.7,123.119z"
			/>
		<path fill="#FFFFFF" d="M65.186,118.148l0.862-12.042L53.15,119.065L65.186,118.148z M64.053,117.019l-7.745,0.594l8.298-8.335
			L64.053,117.019z"/>
		<path fill="#FFFFFF" d="M110.404,115.458c-1.864-1.112-4.291-0.49-5.406,1.374c-1.115,1.867-0.492,4.288,1.375,5.405
			c1.878,1.115,4.296,0.499,5.403-1.368C112.893,118.996,112.274,116.573,110.404,115.458z M110.019,119.816
			c-0.538,0.898-1.705,1.189-2.591,0.659c-0.906-0.538-1.196-1.699-0.662-2.597c0.53-0.895,1.699-1.192,2.595-0.658
			C110.258,117.751,110.553,118.921,110.019,119.816z"/>
		<path fill="#FFFFFF" d="M110.988,114.488c1.869,1.121,4.293,0.501,5.408-1.375c1.112-1.864,0.492-4.284-1.375-5.402
			c-1.877-1.116-4.298-0.494-5.411,1.368C108.498,110.947,109.11,113.378,110.988,114.488z M111.378,110.132
			c0.532-0.903,1.693-1.195,2.589-0.664c0.894,0.54,1.197,1.699,0.664,2.597c-0.535,0.898-1.702,1.195-2.597,0.661
			C111.134,112.194,110.839,111.03,111.378,110.132z"/>
		<path fill="#FFFFFF" d="M126.532,116.02l-3.977-2.376l-9.775,2.594l2.36,9.819l3.803,2.729l-2.181-10.169l0.021,0.005
			L126.532,116.02z M115.911,118.255c-0.286,0.479-0.903,0.636-1.379,0.347c-0.477-0.273-0.64-0.901-0.355-1.383
			c0.289-0.474,0.903-0.633,1.384-0.344C116.041,117.162,116.189,117.782,115.911,118.255z"/>
		<path fill="#FFFFFF" d="M55.339,92.18l0.817,1.003l1.603-1.295c1.365,0.783,2.941,1.25,4.621,1.273
			c5.315,0.085,9.707-4.162,9.796-9.474c0.089-5.315-4.161-9.708-9.475-9.796c-5.316-0.088-9.707,4.158-9.8,9.48
			c-0.018,1.133,0.178,2.22,0.523,3.239l-1.57,1.268l1.013,1.251l-7.764,6.295l2.466,3.048L55.339,92.18z M62.631,77.919
			c3.101,0.05,5.571,2.606,5.524,5.703c-0.059,3.095-2.616,5.569-5.708,5.516c-3.094-0.052-5.565-2.612-5.514-5.705
			C56.985,80.337,59.539,77.867,62.631,77.919z"/>
		<path fill="#FFFFFF" d="M103.853,71.829l0.152,0.03l0.861-0.322l-0.239,0.83l-0.035,0.153c-0.099,0.773,1.668,2.73,3.32,3.685
			c1.911,1.107,3.709,1.099,5.221-0.022c0.08-0.063,0.159-0.14,0.24-0.202l0.724,0.957l-1.099,0.895l0.531,0.651l1.077-0.87
			l5.46,7.202l-0.644-2.818l-3.946-5.092l0.782-0.643l-0.526-0.647l-0.776,0.626l-0.832-1.074c0.576-0.767,0.942-1.713,1.074-2.806
			c0.297-2.402-0.611-5.059-1.363-5.672c-0.223-0.183-0.446-0.207-0.595-0.183l-0.655-0.015l0.376-0.552l0.095-0.269
			c0.06-0.528,0.145-1.251-9.96-8.128c-4.85-3.32-9.806-6.489-9.85-6.522l-1.555-0.993l0.757,1.685
			C94.518,56.312,101.452,71.375,103.853,71.829z M98.607,55.829c6.645,4.421,12.502,8.578,13.295,9.72l-1.309,2.003l2.6,0.052
			c0.389,0.453,1.16,2.576,0.917,4.632c-0.094,0.782-0.342,1.447-0.702,2.013l-0.02-0.028l-10.054-11.648l-0.152,0.156l9.36,12.164
			l0.144,0.2c-0.074,0.067-0.144,0.147-0.226,0.21c-0.864,0.65-1.868,0.789-2.985,0.421c-1.906-0.632-3.527-2.565-3.778-3.119
			l0.835-2.861l-2.584,0.965c-1.125-0.626-4.331-6.445-7.597-13.226l2.255,0.278V55.829z M97.878,55.351l-0.005,1.579l-1.907-0.225
			c-0.585-1.235-1.167-2.491-1.751-3.75C95.443,53.751,96.666,54.548,97.878,55.351z"/>
		<path fill="#FFFFFF" d="M122.614,79.298l5.328-6.025l4.739-16.18h0.003l1.515-5.186l-6.094-1.777l-1.518,5.189l0.011,0.003
			l-4.681,16.063L122.614,79.298z M128.909,51.599l3.831,1.115l-0.563,1.918l-3.824-1.119L128.909,51.599z M123.748,72.944
			l1.275-1.162l0.578,1.706l2.01-1.087l-0.155,0.531l-3.033,3.434l-1.518-0.432l-0.407-4.432l0.217-0.729L123.748,72.944z"/>
		<path fill="#FFFFFF" d="M108.226,100.368c0.058-3.209-1.25-5.721-4.247-6.222c-2.296-0.382-4.188,0.669-4.951,1.177
			c0.033-0.669,0.069-1.408,0.088-1.838c0.025-0.58,1.038-0.883,1.526-1.351c0.3-0.278-0.011-1.009-0.011-1.009
			s-2.539,1.121-2.47,2.211c0.039,0.533,0.047,1.271,0.047,1.9c-0.719-0.472-2.223-1.254-4.346-1.149
			c-2.934,0.134-4.854,2.292-4.8,5.485c0.055,4.431,3.991,8.173,6.728,8.173c0.68,0,1.231-0.08,1.658-0.19l-0.061,0.32l0.506-0.253
			l0.234,0.917l0.325-0.793l0.513,0.559v-0.559l0.694,0.209l-0.166-0.496c0.449,0.154,1.107,0.298,1.982,0.298
			C104.228,107.756,108.17,104.787,108.226,100.368z M93.103,103.493c-1.109-1.416-0.768-3.434-0.768-3.434s0.735,1.87,1.501,3.023
			c0.766,1.159,2.07,2.082,2.07,2.082S94.226,104.917,93.103,103.493z"/>
		<path fill="#FFFFFF" d="M82.875,62.195l-1.354,1.194l-0.628,0.561l-6.114,5.408l-0.629,0.559l-1.324,1.162l1.182,1.338
			l0.785-0.694l0.538-0.477l3.482,3.934l4.741-0.648l-1.41,4.693l0.042,0.012l-0.009,0.007l3.496,3.952l-0.414,0.366l-0.787,0.69
			l1.179,1.338l10.052-8.89l-1.173-1.333l-1.487,1.31l-3.487-3.945l-4.76,0.713l1.425-4.758l-0.038-0.008l0.003-0.007l-3.488-3.948
			l1.355-1.192L82.875,62.195z M89.323,73.737l3.093,3.496l-6.112,5.406l-3.187-3.596l1.391-4.643L89.323,73.737z M85.255,68.875
			l-1.41,4.711l-4.705,0.701l-3.182-3.604l6.123-5.4L85.255,68.875z"/>
		<polygon fill="#FFFFFF" points="79.443,73.632 83.57,73.053 84.813,68.9 83.505,67.421 78.134,72.159 		"/>
		<polygon fill="#FFFFFF" points="92.029,77.231 91.527,76.664 90.042,77.686 88.191,78.36 87.392,79.967 86.093,81.473 
			86.59,82.031 		"/>
		<path fill="#FFFFFF" d="M83.95,60.171l-0.248-8.989l-35.552,0.979l0.241,8.985L83.95,60.171z M82.186,52.791l0.16,5.864
			l-1.893,0.049l-0.079-2.781l-1.121,0.031l0.069,2.777l-1.214,0.036l-0.05-1.805l-1.127,0.031l0.051,1.802l-1.668,0.048
			l-0.077-2.781l-1.128,0.025l0.079,2.791l-1.223,0.032l-0.054-1.804l-1.124,0.024l0.052,1.807l-1.646,0.048l-0.084-3.081
			L68.98,55.94l0.081,3.076l-1.215,0.037l-0.062-2.104l-1.129,0.032l0.063,2.1l-1.671,0.043l-0.085-3.069l-1.125,0.028l0.082,3.071
			l-1.213,0.039l-0.056-2.104l-1.133,0.03l0.063,2.103l-1.545,0.042l-0.084-3.08l-1.13,0.03l0.085,3.083l-1.218,0.032l-0.058-2.1
			l-1.126,0.028l0.055,2.101l-1.668,0.047l-0.086-3.08l-1.126,0.036l0.085,3.076l-1.221,0.029l-0.056-2.097l-1.128,0.032
			l0.065,2.103l-1.515,0.039l-0.158-5.862L82.186,52.791z"/>
	</g>
</g>
<circle display="none" fill="#FFFFFF" cx="93.595" cy="96.677" r="83.675"/>
<circle display="none" fill="#4C1B1B" cx="93.595" cy="96.677" r="73.671"/>
<g display="none">
	<g display="inline">
		<path fill="#FFFFFF" d="M100.225,116.96h-2.681V90.472h15.762c1.624,0,2.94-1.316,2.94-2.942s-1.316-2.943-2.94-2.943H75.898
			c-1.625,0-2.943,1.318-2.943,2.943s1.316,2.942,2.943,2.942h15.76v26.488h-2.682c-1.624,0-2.941,1.319-2.941,2.946
			c0,1.624,1.317,2.942,2.941,2.942h11.249c1.628,0,2.945-1.319,2.945-2.942C103.169,118.279,101.853,116.96,100.225,116.96z"/>
		<path fill="#FFFFFF" d="M81.044,103.28c0-1.627-1.316-2.943-2.942-2.943h-4.729h-8.343c-4.486,0-5.429-6.532-5.469-6.828
			l-2.525-18.266c-0.223-1.61-1.707-2.731-3.317-2.511c-1.611,0.222-2.735,1.707-2.512,3.317l2.521,18.238
			c0.337,2.619,1.688,6.717,4.602,9.364l-3.031,15.771c-0.305,1.596,0.74,3.136,2.334,3.443c1.599,0.308,3.139-0.739,3.445-2.335
			l2.75-14.306h7.117l2.748,14.306c0.271,1.409,1.504,2.387,2.886,2.387c0.185,0,0.372-0.016,0.559-0.052
			c1.595-0.307,2.64-1.847,2.334-3.443l-2.536-13.199h1.166C79.727,106.223,81.044,104.907,81.044,103.28z"/>
		<path fill="#FFFFFF" d="M135.486,72.732c-1.609-0.22-3.098,0.901-3.318,2.513l-2.528,18.282c-0.04,0.279-0.983,6.811-5.466,6.811
			h-8.345H111.1c-1.624,0-2.945,1.316-2.945,2.943c0,1.626,1.319,2.943,2.945,2.943h1.167l-2.537,13.199
			c-0.308,1.596,0.739,3.14,2.335,3.445c1.598,0.308,3.138-0.739,3.443-2.335l2.75-14.309h7.116l2.751,14.309
			c0.27,1.409,1.502,2.387,2.886,2.387c0.185,0,0.369-0.017,0.558-0.052c1.594-0.307,2.641-1.849,2.333-3.445l-3.03-15.771
			c2.915-2.642,4.264-6.734,4.6-9.335l2.523-18.265C138.218,74.439,137.094,72.954,135.486,72.732z"/>
	</g>
</g>
</svg>
