<svg id="Layer_1" data-name="Layer 1" xmlns="http://www.w3.org/2000/svg" viewBox="0 0 33.45 33.45"><defs><style>.cls-1{fill:#34b450;}.cls-2{fill:#fff;}</style></defs><title>Artboard 42</title><rect class="cls-1" width="33.45" height="33.45" rx="6.88" ry="6.88"/><path class="cls-2" d="M22.37,19.43a.36.36,0,0,0-.36-.36H19.87a.36.36,0,1,0,0,.72H22A.36.36,0,0,0,22.37,19.43Z"/><path class="cls-2" d="M20.94,10.14V8.36a.36.36,0,1,0-.71,0v1.78A1.79,1.79,0,0,0,22,11.93h3.22v6.79a.36.36,0,0,0,.71,0V11.57a.36.36,0,0,0-.35-.36H22A1.07,1.07,0,0,1,20.94,10.14Z"/><path class="cls-2" d="M22,14.79H19.15a.36.36,0,0,0,0,.71H22a.36.36,0,1,0,0-.71Z"/><path class="cls-2" d="M18.08,15.14a.36.36,0,0,0-.36-.35H15.58a.36.36,0,1,0,0,.71h2.14A.36.36,0,0,0,18.08,15.14Z"/><path class="cls-2" d="M15.58,16.93a.36.36,0,1,0,0,.71h.72a.36.36,0,0,0,0-.71Z"/><path class="cls-2" d="M15.58,13.36h3.57a.36.36,0,0,0,0-.72H15.58a.36.36,0,1,0,0,.72Z"/><path class="cls-2" d="M17.72,17.64H21.3a.36.36,0,0,0,0-.71H17.72a.36.36,0,0,0,0,.71Z"/><path class="cls-2" d="M19.87,21.22a.36.36,0,1,0,0,.71h.71a.36.36,0,1,0,0-.71Z"/><path class="cls-2" d="M18.44,19.07H15.58a.36.36,0,1,0,0,.72h2.86a.36.36,0,1,0,0-.72Z"/><path class="cls-2" d="M18.44,21.22H15.58a.36.36,0,1,0,0,.71h2.86a.36.36,0,1,0,0-.71Z"/><path class="cls-2" d="M27,20.93l-.72-.72a1.34,1.34,0,0,0-1.93,0L19.62,24.9a.33.33,0,0,0-.11.25v2.14a.36.36,0,0,0,.36.36H22a.33.33,0,0,0,.25-.11L27,22.86A1.3,1.3,0,0,0,27,20.93Zm-3.11.76.56.56-3.1,3.11-.57-.57Zm-3.61,5.24V25.3l1.63,1.63Zm2.14-.5-.57-.57,3.11-3.1.56.56Zm4.07-4.07-.46.46-1.64-1.64.46-.46a.62.62,0,0,1,.93,0l.71.71A.61.61,0,0,1,26.44,22.36Z"/><path class="cls-2" d="M18.44,26.93H9.15a1.07,1.07,0,0,1-1.07-1.07V8A1.07,1.07,0,0,1,9.15,6.93H20.44l3.46,3.46a.36.36,0,0,0,.51,0,.35.35,0,0,0,0-.5L20.84,6.32a.36.36,0,0,0-.26-.11H9.15A1.79,1.79,0,0,0,7.36,8V25.86a1.79,1.79,0,0,0,1.79,1.79h9.29a.36.36,0,1,0,0-.72Z"/><path class="cls-2" d="M18.44,23.36H15.58a.36.36,0,1,0,0,.72h2.86a.36.36,0,0,0,0-.72Z"/><path class="cls-2" d="M13.79,13a.36.36,0,0,0-.35-.36H11.29a.36.36,0,0,0-.35.36v2.14a.36.36,0,0,0,.35.36h2.15a.36.36,0,0,0,.35-.36Zm-.71,1.79H11.65V13.36h1.43Z"/><path class="cls-2" d="M11.29,24.08h2.15a.36.36,0,0,0,.35-.36V21.58a.36.36,0,0,0-.35-.36H11.29a.36.36,0,0,0-.35.36v2.14A.36.36,0,0,0,11.29,24.08Zm.36-2.15h1.43v1.43H11.65Z"/><path class="cls-2" d="M11.76,19.68a.33.33,0,0,0,.25.11h0a.37.37,0,0,0,.27-.16l1.42-2.14a.36.36,0,1,0-.59-.4L12,18.87l-.4-.41A.36.36,0,1,0,11,19Z"/></svg>