<svg id="Layer_1" data-name="Layer 1" xmlns="http://www.w3.org/2000/svg" viewBox="0 0 33.45 33.45"><defs><style>.cls-1{fill:#34b450;}.cls-2{fill:#fff;}</style></defs><title>Artboard 75</title><rect class="cls-1" width="33.45" height="33.45" rx="6.88" ry="6.88"/><path class="cls-2" d="M29.3,11l-.55-.17a1.57,1.57,0,0,0-.45-.07,1.5,1.5,0,0,0-1.39,1l-.31.94V12a.44.44,0,0,0-.14-.28L20.78,6.18a.38.38,0,0,0-.24-.1H9.41a.33.33,0,0,0-.35.35V7.5H7.78a.33.33,0,0,0-.35.35V28.61a.32.32,0,0,0,.35.34H24.63a.32.32,0,0,0,.34-.34V27.53h1.28a.33.33,0,0,0,.35-.34V22.51l1-1.32,0-.1,2.6-8.29A1.38,1.38,0,0,0,29.3,11ZM20.88,7.26l4.54,4.36H20.88Zm3.4,21H8.13V8.19h.93v19a.33.33,0,0,0,.35.34H24.28v.73Zm1.66-1.42H9.76V6.77H20.19V12a.33.33,0,0,0,.35.35h5.4v2.6l-1.63,5.13v.1l.07,4.4a.35.35,0,0,0,.63.18l.93-1.25v3.36ZM25,23.48,25,20.6l1.73.56ZM29.58,12.6l-2.49,7.93-2-.66L27.57,12a.76.76,0,0,1,.94-.48l.55.17A.73.73,0,0,1,29.58,12.6Z"/><path class="cls-2" d="M12.11,12.32h5a.33.33,0,0,0,.35-.35V8.44a.33.33,0,0,0-.35-.35h-5a.33.33,0,0,0-.34.35V12A.38.38,0,0,0,12.11,12.32Zm.35-3.54h4.3v2.84h-4.3Z"/><path class="cls-2" d="M11.42,15.58H22a.35.35,0,0,0,0-.7H11.42a.35.35,0,0,0,0,.7Z"/><path class="cls-2" d="M11.42,18.11H22a.35.35,0,0,0,0-.7H11.42a.35.35,0,0,0,0,.7Z"/><path class="cls-2" d="M11.42,20.64H22a.35.35,0,0,0,0-.7H11.42a.35.35,0,1,0,0,.7Z"/><path class="cls-2" d="M22.27,22.82a.33.33,0,0,0-.35-.35H11.42a.35.35,0,0,0,0,.7H22A.35.35,0,0,0,22.27,22.82Z"/><path class="cls-2" d="M23.41,25H18.18a.35.35,0,0,0,0,.7h5.2a.32.32,0,0,0,.34-.35A.32.32,0,0,0,23.41,25Z"/></svg>