<?xml version="1.0" encoding="utf-8"?>
<!-- Generator: Adobe Illustrator 21.0.0, SVG Export Plug-In . SVG Version: 6.00 Build 0)  -->
<svg version="1.1" id="Layer_1" xmlns="http://www.w3.org/2000/svg" xmlns:xlink="http://www.w3.org/1999/xlink" x="0px" y="0px"
	 viewBox="0 0 33.45 33.45" enable-background="new 0 0 33.45 33.45" xml:space="preserve">
<title>Artboard 46</title>
<path fill="#34B450" d="M6.88,0h19.69c3.8,0,6.88,3.08,6.88,6.88v19.69c0,3.8-3.08,6.88-6.88,6.88H6.88c-3.8,0-6.88-3.08-6.88-6.88
	V6.88C0,3.08,3.08,0,6.88,0z"/>
<g>
	<g>
		<g>
			<path fill="#FFFFFF" d="M24.548,7.947c0.326,0,0.59-0.263,0.59-0.589V5.5c0-0.71-0.577-1.287-1.286-1.287H11.395
				c-0.156,0-0.306,0.062-0.416,0.172L6.102,9.262c-0.111,0.111-0.172,0.26-0.172,0.417v17.638c0,0.711,0.578,1.288,1.288,1.288
				h16.634c0.709,0,1.286-0.578,1.286-1.287v-8.989c0-0.325-0.263-0.588-0.589-0.588c-0.325,0-0.589,0.262-0.589,0.588v8.99
				c0,0.06-0.049,0.11-0.109,0.11H7.217c-0.061,0-0.11-0.05-0.11-0.11v-17.05h3.59c0.71,0,1.287-0.577,1.287-1.287V5.39h11.867
				c0.059,0,0.109,0.05,0.109,0.11v1.858C23.96,7.683,24.223,7.947,24.548,7.947z M10.807,8.981c0,0.06-0.049,0.109-0.11,0.109H7.94
				l2.867-2.867V8.981z"/>
		</g>
	</g>
	<g>
		<g>
			<path fill="#FFFFFF" d="M29.081,8.995l-0.693-0.693c-0.776-0.777-2.041-0.777-2.817,0l-5.499,5.499h-9.538
				c-0.325,0-0.589,0.264-0.589,0.589c0,0.325,0.263,0.589,0.589,0.589h8.361l-3.544,3.543h-4.817c-0.325,0-0.589,0.263-0.589,0.59
				c0,0.324,0.263,0.588,0.589,0.588h3.639l-0.009,0.01c-0.072,0.072-0.124,0.161-0.151,0.259l-0.91,3.276h-2.57
				c-0.325,0-0.589,0.263-0.589,0.589s0.263,0.59,0.589,0.59h3.017c0,0,0.129-0.015,0.148-0.019
				c0.003-0.001,3.716-1.032,3.716-1.032c0.098-0.027,0.188-0.079,0.259-0.151l11.407-11.407
				C29.858,11.036,29.858,9.773,29.081,8.995z M14.397,22.986l0.48-1.731l1.25,1.25L14.397,22.986z M17.257,21.971l-1.844-1.844
				l9.416-9.417l1.845,1.845L17.257,21.971z M28.247,10.98l-0.741,0.742l-1.845-1.844l0.742-0.742c0.318-0.318,0.835-0.318,1.152,0
				l0.692,0.693C28.566,10.146,28.566,10.663,28.247,10.98z"/>
		</g>
	</g>
</g>
</svg>
