<svg id="Layer_1" data-name="Layer 1" xmlns="http://www.w3.org/2000/svg" viewBox="0 0 20.55 22.33"><defs><style>.cls-1{fill:#34b450;}</style></defs><title>Artboard 41</title><path class="cls-1" d="M9.6,0c.06.07.11.14.17.2l6.1,6.09a.67.67,0,0,1,.22.51c0,1.7,0,3.4,0,5.09a1.37,1.37,0,0,1,0,.29.45.45,0,0,1-.45.34.46.46,0,0,1-.42-.41,1.33,1.33,0,0,1,0-.2V7.16H8.93V.91h-8V20.55H7.47c.36,0,.56.15.57.43a.45.45,0,0,1-.4.46H0V.22C0,.15,0,.07,0,0Zm.24,1.61V6.24h4.64Z"/><path class="cls-1" d="M20.55,12.86a1.78,1.78,0,0,1-.5,1.35L14.23,20c-.47.46-.93.93-1.41,1.39a1,1,0,0,1-.36.21c-.83.23-1.66.45-2.5.66-.43.12-.71-.16-.59-.59.23-.84.46-1.68.71-2.51a.83.83,0,0,1,.24-.39c2.2-2.22,4.41-4.42,6.62-6.63a7.27,7.27,0,0,1,.54-.57,1.77,1.77,0,0,1,2-.32A1.73,1.73,0,0,1,20.55,12.86Zm-8.31,8L19,14l-1.21-1.22L11,19.47Z"/></svg>