<?xml version="1.0" encoding="utf-8"?>
<!-- Generator: Adobe Illustrator 21.0.0, SVG Export Plug-In . SVG Version: 6.00 Build 0)  -->
<svg version="1.1" id="Layer_1" xmlns="http://www.w3.org/2000/svg" xmlns:xlink="http://www.w3.org/1999/xlink" x="0px" y="0px"
	 viewBox="0 0 150 150" style="enable-background:new 0 0 150 150;" xml:space="preserve">
<style type="text/css">
	.st0{fill:none;stroke:#A0A0A0;stroke-miterlimit:10;}
	.st1{display:none;fill:none;stroke:#686868;stroke-width:2;stroke-miterlimit:10;}
	.st2{fill:#CFD8DC;}
	.st3{fill:#A0A0A0;}
	.st4{fill:none;}
	.st5{display:none;fill:#A0A0A0;}
	.st6{font-family:'ArialMT';}
	.st7{font-size:18px;}
</style>
<path class="st0" d="M142.3,147.6H8.8c-2.8,0-5-2.3-5-5l0-133.5c0-2.8,2.3-5,5-5h133.5c2.8,0,5,2.3,5,5v133.5
	C147.3,145.3,145.1,147.6,142.3,147.6z"/>
<path class="st1" d="M142.3,147.6H8.8c-2.8,0-5-2.3-5-5l0-133.5c0-2.8,2.3-5,5-5h133.5c2.8,0,5,2.3,5,5v133.5
	C147.3,145.3,145.1,147.6,142.3,147.6z"/>
<g id="click_map">
	<g>
		<path class="st2" d="M68,56.3L52.7,41c-0.3-0.3-0.8-0.3-1.1,0c-0.1,0.1-0.2,0.3-0.2,0.5v21.2c0,0.4,0.3,0.8,0.8,0.8
			c0.2,0,0.3-0.1,0.5-0.2l3.9-3l3.4,6.1c0.2,0.4,0.6,0.5,1,0.3l4.6-2.3c0.4-0.2,0.5-0.6,0.3-1c0,0,0,0,0,0l-3.2-5.7h4.8
			c0.4,0,0.8-0.3,0.8-0.8C68.2,56.6,68.2,56.4,68,56.3L68,56.3L68,56.3z"/>
		<g>
			<path class="st3" d="M47.8,52c-0.1,0-0.2,0-0.3-0.1c-5.8-2.6-8.4-9.4-5.8-15.2c2.6-5.8,9.4-8.4,15.2-5.8s8.4,9.4,5.8,15.2
				c0,0,0,0,0,0c-0.2,0.4-0.6,0.6-1,0.4c-0.4-0.2-0.6-0.6-0.4-1c2.2-5,0-10.9-5-13.1s-10.9,0-13.1,5s0,10.9,5,13.1
				c0.4,0.2,0.6,0.6,0.4,1C48.4,51.9,48.1,52,47.8,52L47.8,52L47.8,52z"/>
			<path class="st3" d="M49.6,47.8c-0.1,0-0.2,0-0.3-0.1c-3.4-1.6-4.9-5.7-3.3-9.1c1.6-3.4,5.7-4.9,9.1-3.3c3.4,1.6,4.9,5.7,3.3,9.1
				c0,0,0,0,0,0c-0.2,0.4-0.6,0.5-1,0.4s-0.5-0.6-0.4-1c1.2-2.7,0.1-5.9-2.6-7.1s-5.9-0.1-7.1,2.6c-1.2,2.7-0.1,5.9,2.6,7.1
				c0.4,0.2,0.5,0.6,0.4,1C50.2,47.6,49.9,47.8,49.6,47.8L49.6,47.8z"/>
		</g>
		<path class="st3" d="M115.1,79.6H35.2v-58H115L115.1,79.6L115.1,79.6z M37.2,77.6H113V23.6H37.2V77.6z"/>
		<circle class="st3" cx="80.5" cy="52.7" r="4.3"/>
		<polygon class="st3" points="63.6,73.3 109.8,73.3 101,53.9 98,56.6 93.8,49.1 81.1,65.9 76.2,60.8 		"/>
	</g>
	<g>
		<path class="st3" d="M45.2,116.1l1.7,0.4c-0.4,1.4-1,2.5-1.9,3.2s-2.1,1.1-3.4,1.1c-1.4,0-2.5-0.3-3.4-0.8c-0.9-0.6-1.5-1.4-2-2.5
			s-0.7-2.2-0.7-3.5c0-1.3,0.3-2.5,0.8-3.5c0.5-1,1.2-1.8,2.2-2.3c0.9-0.5,2-0.8,3.1-0.8c1.3,0,2.4,0.3,3.3,1s1.5,1.6,1.8,2.8
			l-1.7,0.4c-0.3-0.9-0.7-1.6-1.3-2s-1.3-0.6-2.1-0.6c-1,0-1.8,0.2-2.5,0.7s-1.1,1.1-1.4,1.9c-0.3,0.8-0.4,1.6-0.4,2.5
			c0,1.1,0.2,2.1,0.5,2.9c0.3,0.8,0.8,1.4,1.5,1.8s1.4,0.6,2.2,0.6c1,0,1.8-0.3,2.4-0.8S45,117.2,45.2,116.1z"/>
		<path class="st3" d="M48.8,120.7v-12.9h1.6v12.9H48.8z"/>
		<path class="st3" d="M52.8,109.6v-1.8h1.6v1.8H52.8z M52.8,120.7v-9.3h1.6v9.3H52.8z"/>
		<path class="st3" d="M62.9,117.2l1.6,0.2c-0.2,1.1-0.6,1.9-1.3,2.5c-0.7,0.6-1.6,0.9-2.6,0.9c-1.3,0-2.3-0.4-3.1-1.3
			c-0.8-0.8-1.2-2-1.2-3.6c0-1,0.2-1.9,0.5-2.6s0.8-1.3,1.5-1.7c0.7-0.4,1.4-0.6,2.2-0.6c1,0,1.8,0.3,2.5,0.8s1.1,1.2,1.2,2.2
			l-1.5,0.2c-0.1-0.6-0.4-1.1-0.8-1.4s-0.8-0.5-1.3-0.5c-0.8,0-1.4,0.3-1.9,0.9c-0.5,0.6-0.7,1.5-0.7,2.7c0,1.3,0.2,2.2,0.7,2.7
			s1.1,0.9,1.9,0.9c0.6,0,1.1-0.2,1.6-0.6S62.8,118,62.9,117.2z"/>
		<path class="st3" d="M65.8,120.7v-12.9h1.6v7.3l3.7-3.8h2l-3.6,3.5l3.9,5.9h-2l-3.1-4.8l-1.1,1.1v3.7H65.8z"/>
		<path class="st3" d="M80,120.7v-12.9h2.6l3,9.1c0.3,0.8,0.5,1.5,0.6,1.9c0.1-0.5,0.4-1.2,0.7-2.1l3.1-9h2.3v12.9h-1.6v-10.8
			l-3.7,10.8h-1.5l-3.7-11v11H80z"/>
		<path class="st3" d="M100.9,119.5c-0.6,0.5-1.2,0.8-1.7,1.1c-0.5,0.2-1.1,0.3-1.7,0.3c-1,0-1.8-0.3-2.4-0.8
			c-0.6-0.5-0.8-1.1-0.8-1.9c0-0.5,0.1-0.9,0.3-1.3c0.2-0.4,0.5-0.7,0.8-0.9s0.7-0.4,1.1-0.5c0.3-0.1,0.8-0.2,1.4-0.2
			c1.3-0.2,2.2-0.3,2.8-0.5c0-0.2,0-0.4,0-0.4c0-0.6-0.1-1.1-0.4-1.4c-0.4-0.4-1-0.5-1.8-0.5c-0.7,0-1.3,0.1-1.6,0.4
			s-0.6,0.7-0.8,1.4l-1.5-0.2c0.1-0.7,0.4-1.2,0.7-1.6c0.3-0.4,0.8-0.7,1.4-0.9c0.6-0.2,1.3-0.3,2.1-0.3c0.8,0,1.4,0.1,1.9,0.3
			s0.9,0.4,1.1,0.7c0.2,0.3,0.4,0.6,0.5,1.1c0.1,0.3,0.1,0.8,0.1,1.5v2.1c0,1.5,0,2.4,0.1,2.8c0.1,0.4,0.2,0.8,0.4,1.1h-1.7
			C101.1,120.3,101,119.9,100.9,119.5z M100.8,116c-0.6,0.2-1.4,0.4-2.6,0.6c-0.7,0.1-1.1,0.2-1.4,0.3s-0.5,0.3-0.6,0.5
			s-0.2,0.5-0.2,0.8c0,0.4,0.2,0.8,0.5,1.1s0.8,0.4,1.4,0.4c0.6,0,1.2-0.1,1.6-0.4s0.8-0.6,1-1.1c0.2-0.4,0.3-0.9,0.3-1.6V116z"/>
		<path class="st3" d="M104.8,124.2v-12.9h1.4v1.2c0.3-0.5,0.7-0.8,1.2-1.1c0.4-0.2,0.9-0.4,1.6-0.4c0.8,0,1.5,0.2,2.1,0.6
			s1.1,1,1.4,1.7c0.3,0.7,0.5,1.6,0.5,2.5c0,1-0.2,1.8-0.5,2.6c-0.3,0.8-0.8,1.4-1.5,1.8c-0.7,0.4-1.3,0.6-2.1,0.6
			c-0.5,0-1-0.1-1.4-0.3s-0.8-0.5-1-0.8v4.5H104.8z M106.3,116c0,1.2,0.2,2.1,0.7,2.7s1.1,0.9,1.8,0.9c0.7,0,1.3-0.3,1.8-0.9
			c0.5-0.6,0.8-1.5,0.8-2.8c0-1.2-0.2-2.1-0.7-2.7c-0.5-0.6-1.1-0.9-1.8-0.9c-0.7,0-1.3,0.3-1.8,0.9
			C106.5,113.9,106.3,114.8,106.3,116z"/>
	</g>
</g>
<rect x="3.8" y="107.8" class="st4" width="140.7" height="30"/>
<text id="text" transform="matrix(1 0 0 1 34.6407 120.6552)" class="st5 st6 st7">Click Map</text>
</svg>
