<?xml version="1.0" encoding="utf-8"?>
<!-- Generator: Adobe Illustrator 21.0.0, SVG Export Plug-In . SVG Version: 6.00 Build 0)  -->
<svg version="1.1" id="Layer_1" xmlns="http://www.w3.org/2000/svg" xmlns:xlink="http://www.w3.org/1999/xlink" x="0px" y="0px"
	 viewBox="0 0 150 150" style="enable-background:new 0 0 150 150;" xml:space="preserve">
<style type="text/css">
	.st0{fill:none;stroke:#A0A0A0;stroke-miterlimit:10;}
	.st1{display:none;fill:none;stroke:#686868;stroke-width:2;stroke-miterlimit:10;}
	.st2{fill:#CFD8DC;}
	.st3{fill:#A0A0A0;}
	.st4{fill:none;}
	.st5{display:none;fill:#A0A0A0;enable-background:new    ;}
	.st6{font-family:'ArialMT';}
	.st7{font-size:18px;}
</style>
<path class="st0" d="M142.3,147.6H8.8c-2.8,0-5-2.3-5-5V9.1c0-2.8,2.3-5,5-5h133.5c2.8,0,5,2.3,5,5v133.5
	C147.3,145.3,145.1,147.6,142.3,147.6z"/>
<path class="st1" d="M142.3,147.6H8.8c-2.8,0-5-2.3-5-5V9.1c0-2.8,2.3-5,5-5h133.5c2.8,0,5,2.3,5,5v133.5
	C147.3,145.3,145.1,147.6,142.3,147.6z"/>
<g id="click_map">
	<path class="st2" d="M72.9,41.8L62,30.8c-0.2-0.2-0.6-0.2-0.8,0c-0.1,0.1-0.1,0.2-0.1,0.4v15.1c0,0.3,0.2,0.6,0.6,0.6
		c0.1,0,0.2-0.1,0.4-0.1l2.8-2.1l2.4,4.4c0.1,0.3,0.4,0.4,0.7,0.2l3.3-1.6c0.3-0.1,0.4-0.4,0.2-0.7l0,0l-2.3-4.1h3.4
		c0.3,0,0.6-0.2,0.6-0.6C73.1,42,73.1,41.8,72.9,41.8L72.9,41.8L72.9,41.8z"/>
	<g>
		<path class="st3" d="M58.5,38.7c-0.1,0-0.1,0-0.2-0.1c-4.1-1.9-6-6.7-4.1-10.9c1.9-4.1,6.7-6,10.9-4.1c4.1,1.9,6,6.7,4.1,10.9l0,0
			c-0.1,0.3-0.4,0.4-0.7,0.3c-0.3-0.1-0.4-0.4-0.3-0.7c1.6-3.6,0-7.8-3.6-9.4c-3.6-1.6-7.8,0-9.4,3.6s0,7.8,3.6,9.4
			c0.3,0.1,0.4,0.4,0.3,0.7C58.9,38.6,58.7,38.7,58.5,38.7L58.5,38.7L58.5,38.7z"/>
		<path class="st3" d="M59.8,35.7c-0.1,0-0.1,0-0.2-0.1c-2.4-1.1-3.5-4.1-2.4-6.5s4.1-3.5,6.5-2.4c2.4,1.1,3.5,4.1,2.4,6.5l0,0
			c-0.1,0.3-0.4,0.4-0.7,0.3s-0.4-0.4-0.3-0.7c0.9-1.9,0.1-4.2-1.9-5.1s-4.2-0.1-5.1,1.9c-0.9,1.9-0.1,4.2,1.9,5.1
			c0.3,0.1,0.4,0.4,0.3,0.7C60.2,35.5,60,35.7,59.8,35.7L59.8,35.7z"/>
	</g>
	<circle class="st3" cx="91" cy="32" r="4"/>
	<polygon class="st3" points="75.3,51.1 118.2,51.1 110,33.1 107.2,35.6 103.3,28.6 91.5,44.2 87,39.5 	"/>
	<g>
		<path class="st3" d="M45.2,116.1l1.7,0.4c-0.4,1.4-1,2.5-1.9,3.2s-2.1,1.1-3.4,1.1c-1.4,0-2.5-0.3-3.4-0.8c-0.9-0.6-1.5-1.4-2-2.5
			s-0.7-2.2-0.7-3.5s0.3-2.5,0.8-3.5s1.2-1.8,2.2-2.3c0.9-0.5,2-0.8,3.1-0.8c1.3,0,2.4,0.3,3.3,1s1.5,1.6,1.8,2.8l-1.7,0.4
			c-0.3-0.9-0.7-1.6-1.3-2s-1.3-0.6-2.1-0.6c-1,0-1.8,0.2-2.5,0.7s-1.1,1.1-1.4,1.9c-0.3,0.8-0.4,1.6-0.4,2.5c0,1.1,0.2,2.1,0.5,2.9
			s0.8,1.4,1.5,1.8s1.4,0.6,2.2,0.6c1,0,1.8-0.3,2.4-0.8S45,117.2,45.2,116.1z"/>
		<path class="st3" d="M48.8,120.7v-12.9h1.6v12.9H48.8z"/>
		<path class="st3" d="M52.8,109.6v-1.8h1.6v1.8H52.8z M52.8,120.7v-9.3h1.6v9.3H52.8z"/>
		<path class="st3" d="M62.9,117.2l1.6,0.2c-0.2,1.1-0.6,1.9-1.3,2.5s-1.6,0.9-2.6,0.9c-1.3,0-2.3-0.4-3.1-1.3
			c-0.8-0.8-1.2-2-1.2-3.6c0-1,0.2-1.9,0.5-2.6s0.8-1.3,1.5-1.7c0.7-0.4,1.4-0.6,2.2-0.6c1,0,1.8,0.3,2.5,0.8s1.1,1.2,1.2,2.2
			l-1.5,0.2c-0.1-0.6-0.4-1.1-0.8-1.4s-0.8-0.5-1.3-0.5c-0.8,0-1.4,0.3-1.9,0.9s-0.7,1.5-0.7,2.7c0,1.3,0.2,2.2,0.7,2.7
			s1.1,0.9,1.9,0.9c0.6,0,1.1-0.2,1.6-0.6S62.8,118,62.9,117.2z"/>
		<path class="st3" d="M65.8,120.7v-12.9h1.6v7.3l3.7-3.8h2l-3.6,3.5l3.9,5.9h-2l-3.1-4.8l-1.1,1.1v3.7
			C67.2,120.7,65.8,120.7,65.8,120.7z"/>
		<path class="st3" d="M80,120.7v-12.9h2.6l3,9.1c0.3,0.8,0.5,1.5,0.6,1.9c0.1-0.5,0.4-1.2,0.7-2.1l3.1-9h2.3v12.9h-1.6v-10.8
			L87,120.6h-1.5l-3.7-11v11L80,120.7L80,120.7z"/>
		<path class="st3" d="M100.9,119.5c-0.6,0.5-1.2,0.8-1.7,1.1c-0.5,0.2-1.1,0.3-1.7,0.3c-1,0-1.8-0.3-2.4-0.8s-0.8-1.1-0.8-1.9
			c0-0.5,0.1-0.9,0.3-1.3c0.2-0.4,0.5-0.7,0.8-0.9s0.7-0.4,1.1-0.5c0.3-0.1,0.8-0.2,1.4-0.2c1.3-0.2,2.2-0.3,2.8-0.5
			c0-0.2,0-0.4,0-0.4c0-0.6-0.1-1.1-0.4-1.4c-0.4-0.4-1-0.5-1.8-0.5c-0.7,0-1.3,0.1-1.6,0.4s-0.6,0.7-0.8,1.4l-1.5-0.2
			c0.1-0.7,0.4-1.2,0.7-1.6c0.3-0.4,0.8-0.7,1.4-0.9c0.6-0.2,1.3-0.3,2.1-0.3c0.8,0,1.4,0.1,1.9,0.3s0.9,0.4,1.1,0.7
			c0.2,0.3,0.4,0.6,0.5,1.1c0.1,0.3,0.1,0.8,0.1,1.5v2.1c0,1.5,0,2.4,0.1,2.8s0.2,0.8,0.4,1.1h-1.7
			C101.1,120.3,101,119.9,100.9,119.5z M100.8,116c-0.6,0.2-1.4,0.4-2.6,0.6c-0.7,0.1-1.1,0.2-1.4,0.3s-0.5,0.3-0.6,0.5
			s-0.2,0.5-0.2,0.8c0,0.4,0.2,0.8,0.5,1.1s0.8,0.4,1.4,0.4s1.2-0.1,1.6-0.4s0.8-0.6,1-1.1c0.2-0.4,0.3-0.9,0.3-1.6
			C100.8,116.6,100.8,116,100.8,116z"/>
		<path class="st3" d="M104.8,124.2v-12.9h1.4v1.2c0.3-0.5,0.7-0.8,1.2-1.1c0.4-0.2,0.9-0.4,1.6-0.4c0.8,0,1.5,0.2,2.1,0.6
			s1.1,1,1.4,1.7s0.5,1.6,0.5,2.5c0,1-0.2,1.8-0.5,2.6c-0.3,0.8-0.8,1.4-1.5,1.8s-1.3,0.6-2.1,0.6c-0.5,0-1-0.1-1.4-0.3
			s-0.8-0.5-1-0.8v4.5L104.8,124.2L104.8,124.2z M106.3,116c0,1.2,0.2,2.1,0.7,2.7s1.1,0.9,1.8,0.9c0.7,0,1.3-0.3,1.8-0.9
			s0.8-1.5,0.8-2.8c0-1.2-0.2-2.1-0.7-2.7s-1.1-0.9-1.8-0.9c-0.7,0-1.3,0.3-1.8,0.9C106.5,113.9,106.3,114.8,106.3,116z"/>
	</g>
	<g>
		<path class="st3" d="M23.9,79.5c0.6,0,1-0.3,1-0.7v-1.5c0-0.4-0.5-0.7-1-0.7c-0.6,0-1,0.3-1,0.7v1.5
			C22.9,79.1,23.3,79.5,23.9,79.5z"/>
		<path class="st3" d="M28,79.5v-2.9c0-0.4-0.5-0.7-1-0.7c-0.6,0-1,0.3-1,0.7v2.9c0,0.4,0.5,0.7,1,0.7C27.5,80.2,28,79.9,28,79.5z"
			/>
		<path class="st3" d="M40.3,79.5v-2.9c0-0.4-0.5-0.7-1-0.7c-0.6,0-1,0.3-1,0.7v2.9c0,0.4,0.5,0.7,1,0.7
			C39.8,80.2,40.3,79.9,40.3,79.5z"/>
		<path class="st3" d="M32.1,80.9v-5.8c0-0.4-0.5-0.7-1-0.7c-0.6,0-1,0.3-1,0.7v5.8c0,0.4,0.5,0.7,1,0.7
			C31.6,81.6,32.1,81.3,32.1,80.9z"/>
		<path class="st3" d="M36.2,80.9v-5.8c0-0.4-0.5-0.7-1-0.7c-0.6,0-1,0.3-1,0.7v5.8c0,0.4,0.5,0.7,1,0.7
			C35.7,81.6,36.2,81.3,36.2,80.9z"/>
		<path class="st3" d="M44.4,82.4v-8.7c0-0.4-0.5-0.7-1-0.7c-0.6,0-1,0.3-1,0.7v8.7c0,0.4,0.5,0.7,1,0.7
			C44,83.1,44.4,82.8,44.4,82.4z"/>
		<path class="st3" d="M48.5,83.8V72.2c0-0.4-0.5-0.7-1-0.7c-0.6,0-1,0.3-1,0.7v11.6c0,0.4,0.5,0.7,1,0.7
			C48.1,84.5,48.5,84.2,48.5,83.8z"/>
		<path class="st3" d="M52.6,88.2V67.9c0-0.4-0.5-0.7-1-0.7c-0.6,0-1,0.3-1,0.7v20.3c0,0.4,0.5,0.7,1,0.7
			C52.2,88.9,52.6,88.6,52.6,88.2z"/>
		<path class="st3" d="M83.4,76.6c-0.6,0-1,0.3-1,0.7v1.5c0,0.4,0.5,0.7,1,0.7c0.6,0,1-0.3,1-0.7v-1.5C84.5,76.9,84,76.6,83.4,76.6z
			"/>
		<path class="st3" d="M81.4,79.5v-2.9c0-0.4-0.5-0.7-1-0.7c-0.6,0-1,0.3-1,0.7v2.9c0,0.4,0.5,0.7,1,0.7
			C80.9,80.2,81.4,79.9,81.4,79.5z"/>
		<path class="st3" d="M69.1,79.5v-2.9c0-0.4-0.5-0.7-1-0.7c-0.6,0-1,0.3-1,0.7v2.9c0,0.4,0.5,0.7,1,0.7
			C68.6,80.2,69.1,79.9,69.1,79.5z"/>
		<path class="st3" d="M77.3,80.9v-5.8c0-0.4-0.5-0.7-1-0.7c-0.6,0-1,0.3-1,0.7v5.8c0,0.4,0.5,0.7,1,0.7
			C76.8,81.6,77.3,81.3,77.3,80.9z"/>
		<path class="st3" d="M73.2,80.9v-5.8c0-0.4-0.5-0.7-1-0.7c-0.6,0-1,0.3-1,0.7v5.8c0,0.4,0.5,0.7,1,0.7
			C72.7,81.6,73.2,81.3,73.2,80.9z"/>
		<path class="st3" d="M64.9,82.4v-8.7c0-0.4-0.5-0.7-1-0.7c-0.6,0-1,0.3-1,0.7v8.7c0,0.4,0.5,0.7,1,0.7
			C64.5,83.1,64.9,82.8,64.9,82.4z"/>
		<path class="st3" d="M60.8,83.8V72.2c0-0.4-0.5-0.7-1-0.7c-0.6,0-1,0.3-1,0.7v11.6c0,0.4,0.5,0.7,1,0.7
			C60.4,84.5,60.8,84.2,60.8,83.8z"/>
		<path class="st3" d="M56.7,88.2V67.9c0-0.4-0.5-0.7-1-0.7c-0.6,0-1,0.3-1,0.7v20.3c0,0.4,0.5,0.7,1,0.7
			C56.3,88.9,56.7,88.6,56.7,88.2z"/>
		<path class="st3" d="M102.4,75.5c-0.6,0-1,0.5-1,1v2c0,0.6,0.5,1,1,1c0.6,0,1-0.5,1-1v-2C103.5,76,103,75.5,102.4,75.5z"/>
		<path class="st3" d="M100.4,79.6v-4.1c0-0.6-0.5-1-1-1c-0.6,0-1,0.5-1,1v4.1c0,0.6,0.5,1,1,1C99.9,80.6,100.4,80.2,100.4,79.6z"/>
		<path class="st3" d="M88.1,79.6v-4.1c0-0.6-0.5-1-1-1c-0.6,0-1,0.5-1,1v4.1c0,0.6,0.5,1,1,1C87.6,80.6,88.1,80.2,88.1,79.6z"/>
		<path class="st3" d="M96.3,81.6v-8.1c0-0.6-0.5-1-1-1c-0.6,0-1,0.5-1,1v8.1c0,0.6,0.5,1,1,1C95.8,82.6,96.3,82.2,96.3,81.6z"/>
		<path class="st3" d="M92.2,81.6v-8.1c0-0.6-0.5-1-1-1c-0.6,0-1,0.5-1,1v8.1c0,0.6,0.5,1,1,1C91.7,82.6,92.2,82.2,92.2,81.6z"/>
	</g>
	<g>
		<path class="st3" d="M118.2,16.7H67.9c-0.5,0-0.9,0.4-0.9,0.9c0,0.5,0.4,0.9,0.9,0.9h50.2c3.1,0,5.6,2.5,5.6,5.7v26.2
			c0,3.1-2.5,5.7-5.6,5.7H88c-0.5,0-0.9,0.4-0.9,0.9c0,0.5,0.4,0.9,0.9,0.9h30.2c4,0,7.3-3.3,7.3-7.4V24.1
			C125.5,20,122.2,16.7,118.2,16.7L118.2,16.7z"/>
		<path class="st3" d="M83.9,56.8l-11.4,7.8c-0.5,0.4-1,0.1-1.1,0c-0.1-0.1-0.6-0.5-0.4-1.1l1.6-6.4c0.1-0.3,0-0.5-0.2-0.7
			c-0.2-0.2-0.4-0.3-0.7-0.3H55.5c-3.1,0-5.6-2.5-5.6-5.7V24.1c0-3.1,2.5-5.7,5.6-5.7h8.3c0.5,0,0.9-0.4,0.9-0.9
			c0-0.5-0.4-0.9-0.9-0.9h-8.3c-4,0-7.3,3.3-7.3,7.4v26.2c0,4.1,3.3,7.4,7.3,7.4h15.2L69.3,63c-0.3,1.1,0.1,2.3,1.1,2.9
			c0.5,0.3,1,0.5,1.6,0.5c0.5,0,1.1-0.2,1.5-0.5l11.4-7.8c0.4-0.3,0.5-0.8,0.2-1.2C84.9,56.6,84.3,56.5,83.9,56.8L83.9,56.8z"/>
	</g>
</g>
<rect x="3.8" y="107.8" class="st4" width="140.7" height="30"/>
<text id="text" transform="matrix(1 0 0 1 34.6407 120.6552)" class="st5 st6 st7">Click Map</text>
</svg>
