<?xml version="1.0" encoding="utf-8"?>
<!-- Generator: Adobe Illustrator 16.0.0, SVG Export Plug-In . SVG Version: 6.00 Build 0)  -->
<!DOCTYPE svg PUBLIC "-//W3C//DTD SVG 1.1//EN" "http://www.w3.org/Graphics/SVG/1.1/DTD/svg11.dtd">
<svg version="1.1" id="Layer_1" xmlns="http://www.w3.org/2000/svg" xmlns:xlink="http://www.w3.org/1999/xlink" x="0px" y="0px"
	 width="48.311px" height="36.047px" viewBox="0 0 48.311 36.047" enable-background="new 0 0 48.311 36.047" xml:space="preserve">
<g>
	<g>
		<path fill="#FFFFFF" stroke="#000000" stroke-width="0.75" stroke-miterlimit="22.9256" d="M40.891,2.633
			c-0.917-1.051-2.111-0.875-3.354,0.284C31.866,8.208,26.194,13.5,20.522,18.792c-0.969,0.905-1.467,0.729-2.315-0.099l-8-7.782
			c-0.843-0.818-1.808-0.989-2.604-0.104L2.51,16.466c-0.844,0.938-0.678,1.601-0.006,2.315L15.69,32.759
			c1.484,1.575,3.861,1.888,5.593,0.321l24.029-21.777c1.052-0.954,1.495-1.727,0.521-2.996C44.301,6.323,42.537,4.525,40.891,2.633
			z"/>
		<path fill="#FFFFFF" stroke="#000000" stroke-width="0.75" stroke-miterlimit="10" d="M40.891,2.633
			c-0.917-1.051-2.111-0.875-3.354,0.284C31.866,8.208,26.194,13.5,20.522,18.792c-0.969,0.905-1.467,0.729-2.315-0.099l-8-7.782
			c-0.843-0.818-1.808-0.989-2.604-0.104L2.51,16.466c-0.844,0.938-0.678,1.601-0.006,2.315L15.69,32.759
			c1.484,1.575,3.861,1.888,5.593,0.321l24.029-21.777c1.052-0.954,1.495-1.727,0.521-2.996C44.301,6.323,42.537,4.525,40.891,2.633
			z"/>
	</g>
	<path opacity="0.1" enable-background="new    " d="M45.121,7.417L21.28,29.021c-1.729,1.566-4.104,1.254-5.59-0.32L3.31,15.577
		l-0.8,0.891c-0.844,0.936-0.68,1.601-0.006,2.313L15.69,32.759c1.484,1.575,3.861,1.888,5.59,0.321l24.029-21.777
		c1.055-0.954,1.5-1.727,0.521-2.996C45.598,8.008,45.362,7.71,45.121,7.417z"/>
</g>
</svg>
