<?xml version="1.0" encoding="utf-8"?>
<!-- Generator: Adobe Illustrator 16.0.0, SVG Export Plug-In . SVG Version: 6.00 Build 0)  -->
<!DOCTYPE svg PUBLIC "-//W3C//DTD SVG 1.1//EN" "http://www.w3.org/Graphics/SVG/1.1/DTD/svg11.dtd">
<svg version="1.1" id="Layer_1" xmlns="http://www.w3.org/2000/svg" xmlns:xlink="http://www.w3.org/1999/xlink" x="0px" y="0px"
	 width="91.565px" height="91.565px" viewBox="0 0 91.565 91.565" enable-background="new 0 0 91.565 91.565" xml:space="preserve">
<g>
	<circle opacity="0.3" fill="#3C3C3C" cx="45.783" cy="45.783" r="45.783"/>
	<path fill="#822303" d="M1.175,44.168c0,24.39,19.972,44.165,44.606,44.165c24.634,0,44.605-19.775,44.605-44.165
		C90.387,19.773,70.416,0,45.782,0C21.147,0,1.175,19.773,1.175,44.168z"/>
	<radialGradient id="SVGID_1_" cx="23.7246" cy="21.8481" r="47.037" gradientUnits="userSpaceOnUse">
		<stop  offset="0" style="stop-color:#FDE480"/>
		<stop  offset="1" style="stop-color:#EFBF22"/>
	</radialGradient>
	<ellipse fill="url(#SVGID_1_)" cx="45.786" cy="43.12" rx="43.083" ry="42.171"/>
	<path opacity="0.2" fill="#FFFFFF" d="M83.617,27.807c-8.021-10.072-21.924-16.725-37.721-16.725
		c-15.959,0-29.973,6.791-37.966,17.021C13.57,13.98,28.406,3.897,45.833,3.897C63.131,3.897,77.896,13.842,83.617,27.807z"/>
	<path opacity="0.5" fill="#FFFFFF" d="M32.201,19.818c0.394,0.842,0.068,1.902-0.727,2.369c0,0-1.601,1.316-3.471,2.417
		c-1.937,1.14-3.747,1.825-3.747,1.825c-0.795,0.467-1.759,0.166-2.153-0.676c0,0-0.744-0.918-1.61-2.766
		c-0.761-1.625-1.12-3.053-1.12-3.053c-0.16-0.932,0.052-1.729,0.726-2.369c0.776-0.738,1.975-1.564,3.459-2.438
		c1.73-1.018,3.758-1.804,3.758-1.804c0.795-0.468,1.76-0.167,2.154,0.675c0.72,1.158,0.746,1.307,1.54,2.996
		C31.737,18.547,32.201,19.818,32.201,19.818z"/>
	<path opacity="0.5" fill="#FFFFFF" d="M39.926,14.18c0.136,0.507-0.146,1.041-0.629,1.194c0,0-1.011,0.516-2.146,0.874
		c-1.178,0.377-2.24,0.522-2.24,0.522c-0.485,0.151-0.985-0.136-1.125-0.643c0,0-0.32-0.595-0.618-1.708
		c-0.264-0.98-0.322-1.803-0.322-1.803c0.001-0.525,0.197-0.933,0.629-1.197c0.499-0.303,1.239-0.6,2.141-0.887
		c1.053-0.332,2.247-0.504,2.247-0.504c0.482-0.152,0.986,0.133,1.121,0.639c0.286,0.721,0.286,0.807,0.558,1.827
		C39.793,13.429,39.926,14.18,39.926,14.18z"/>
</g>
</svg>
