<?xml version="1.0" encoding="utf-8"?>
<!-- Generator: Adobe Illustrator 16.0.0, SVG Export Plug-In . SVG Version: 6.00 Build 0)  -->
<!DOCTYPE svg PUBLIC "-//W3C//DTD SVG 1.1//EN" "http://www.w3.org/Graphics/SVG/1.1/DTD/svg11.dtd">
<svg version="1.1" id="Layer_1" xmlns="http://www.w3.org/2000/svg" xmlns:xlink="http://www.w3.org/1999/xlink" x="0px" y="0px"
	 width="55.567px" height="56.567px" viewBox="0 0 55.567 56.567" enable-background="new 0 0 55.567 56.567" xml:space="preserve">
<g>
	<g>
		<circle opacity="0.3" fill="#3C3C3C" cx="27.784" cy="28.784" r="27.784"/>
		<ellipse fill="#8C6239" cx="27.783" cy="26.804" rx="27.069" ry="26.802"/>
		<circle fill="#F7931E" cx="27.784" cy="26.804" r="25.258"/>
		<radialGradient id="SVGID_1_" cx="18.1895" cy="11.1567" r="14.8865" fx="18.9525" fy="10.6368" gradientUnits="userSpaceOnUse">
			<stop  offset="0" style="stop-color:#FDD28F"/>
			<stop  offset="1" style="stop-color:#FAAB2E"/>
		</radialGradient>
		<ellipse fill="url(#SVGID_1_)" cx="27.816" cy="26.575" rx="24.478" ry="24.209"/>
		<path opacity="0.4" fill="#FFFFFF" d="M50.743,16.875C45.876,10.763,37.438,6.726,27.853,6.726
			c-9.686,0-18.189,4.121-23.041,10.329C8.235,8.484,17.239,2.365,27.813,2.365C38.312,2.365,47.272,8.4,50.743,16.875z"/>
		<path opacity="0.15" d="M5.293,39.156c5.277,5.763,13.972,9.209,23.536,8.549c9.662-0.667,17.862-5.364,22.274-11.892
			C48.278,44.6,39.718,51.324,29.168,52.053C18.695,52.775,9.34,47.372,5.293,39.156z"/>
		<path opacity="0.5" fill="#FFFFFF" d="M19.542,12.027c0.238,0.511,0.041,1.154-0.441,1.438c0,0-0.972,0.799-2.107,1.467
			c-1.175,0.691-2.273,1.107-2.273,1.107c-0.482,0.283-1.066,0.101-1.307-0.41c0,0-0.451-0.557-0.977-1.678
			c-0.462-0.986-0.68-1.854-0.68-1.854c-0.098-0.564,0.031-1.049,0.44-1.438c0.472-0.448,1.198-0.949,2.1-1.479
			c1.05-0.618,2.28-1.095,2.28-1.095c0.482-0.284,1.068-0.102,1.307,0.409c0.438,0.703,0.453,0.793,0.936,1.818
			C19.261,11.256,19.542,12.027,19.542,12.027z"/>
		<path opacity="0.5" fill="#FFFFFF" d="M24.229,8.605c0.082,0.308-0.089,0.631-0.382,0.725c0,0-0.614,0.312-1.303,0.53
			c-0.714,0.229-1.358,0.317-1.358,0.317c-0.295,0.092-0.599-0.083-0.684-0.391c0,0-0.193-0.36-0.375-1.036
			c-0.16-0.595-0.195-1.094-0.195-1.094c0-0.319,0.119-0.566,0.383-0.727c0.303-0.185,0.751-0.364,1.299-0.538
			c0.639-0.202,1.363-0.307,1.363-0.307c0.293-0.092,0.598,0.081,0.68,0.388c0.174,0.438,0.174,0.49,0.338,1.109
			C24.149,8.149,24.229,8.605,24.229,8.605z"/>
	</g>
	<g>
		<g>
			
				<path fill-rule="evenodd" clip-rule="evenodd" fill="none" stroke="#F7931E" stroke-width="2.8575" stroke-miterlimit="22.9256" d="
				M17.477,36.249c-0.491-0.589-0.437-1.183,0.197-1.608l2.113-1.426c0.666-0.448,1.334-0.521,1.843,0.222
				c1.65,2.402,2.705,2.64,6.78,3.041c4.069,0.401,9.075-4.063,9.075-9.077s-4.063-9.077-9.075-9.077
				c-1.197,0-2.342,0.231-3.389,0.652l2.593,3.034c0.75,0.88,0.906,1.264-0.302,1.487l-12.22,2.266
				c-2.319,0.427-2.215,0.341-1.424-1.885l4.092-11.552c0.349-0.99,0.605-1.143,1.385-0.23l2.521,2.955
				c2.003-1.095,4.3-1.717,6.743-1.717c7.767,0,14.062,6.299,14.062,14.066c0,7.77-7.753,14.064-14.062,14.064
				C22.098,41.465,20.062,39.361,17.477,36.249z"/>
			<linearGradient id="SVGID_2_" gradientUnits="userSpaceOnUse" x1="13.1597" y1="26.4775" x2="42.4727" y2="26.4775">
				<stop  offset="0" style="stop-color:#C7723B"/>
				<stop  offset="1" style="stop-color:#5E2000"/>
			</linearGradient>
			<path fill-rule="evenodd" clip-rule="evenodd" fill="url(#SVGID_2_)" d="M17.477,36.249c-0.491-0.589-0.437-1.183,0.197-1.608
				l2.113-1.426c0.666-0.448,1.334-0.521,1.843,0.222c1.65,2.402,2.705,2.64,6.78,3.041c4.069,0.401,9.075-4.063,9.075-9.077
				s-4.063-9.077-9.075-9.077c-1.197,0-2.342,0.231-3.389,0.652l2.593,3.034c0.75,0.88,0.906,1.264-0.302,1.487l-12.22,2.266
				c-2.319,0.427-2.215,0.341-1.424-1.885l4.092-11.552c0.349-0.99,0.605-1.143,1.385-0.23l2.521,2.955
				c2.003-1.095,4.3-1.717,6.743-1.717c7.767,0,14.062,6.299,14.062,14.066c0,7.77-7.753,14.064-14.062,14.064
				C22.098,41.465,20.062,39.361,17.477,36.249z"/>
		</g>
		<path opacity="0.1" fill-rule="evenodd" clip-rule="evenodd" d="M40.665,27.4c0-7.463-5.813-13.572-13.161-14.037
			c0.302-0.019,0.602-0.029,0.906-0.029c7.767,0,14.062,6.299,14.062,14.066c0,7.77-7.753,14.064-14.062,14.064
			c-0.392,0-0.768-0.007-1.126-0.022C33.457,41.014,40.665,34.891,40.665,27.4z"/>
		<path opacity="0.1" fill-rule="evenodd" clip-rule="evenodd" d="M17.761,12.326c0.349-0.988,0.605-1.143,1.385-0.23l2.521,2.955
			c-0.436,0.186-0.865,0.393-1.278,0.618l-2.694-3.154L17.761,12.326z"/>
		<path opacity="0.1" fill-rule="evenodd" clip-rule="evenodd" d="M13.282,25.763l2.671-0.496l9.551-1.77
			c1.21-0.224,1.053-0.607,0.3-1.485l-2.593-3.036c1.049-0.421,2.191-0.652,3.389-0.652c0.306,0,0.607,0.015,0.904,0.044
			c-0.869,0.087-1.703,0.295-2.482,0.608l2.593,3.034c0.75,0.88,0.906,1.264-0.302,1.487L16.25,25.548l-1.157,0.215
			c-1.214,0.225-1.764,0.307-1.897,0.016C13.224,25.772,13.254,25.767,13.282,25.763z"/>
	</g>
</g>
</svg>
