<?xml version="1.0" encoding="utf-8"?>
<!-- Generator: Adobe Illustrator 16.0.0, SVG Export Plug-In . SVG Version: 6.00 Build 0)  -->
<!DOCTYPE svg PUBLIC "-//W3C//DTD SVG 1.1//EN" "http://www.w3.org/Graphics/SVG/1.1/DTD/svg11.dtd">
<svg version="1.1" id="Objects" xmlns="http://www.w3.org/2000/svg" xmlns:xlink="http://www.w3.org/1999/xlink" x="0px" y="0px"
	 width="165.161px" height="133.83px" viewBox="0 0 165.161 133.83" enable-background="new 0 0 165.161 133.83"
	 xml:space="preserve">
<g>
	
		<linearGradient id="SVGID_1_" gradientUnits="userSpaceOnUse" x1="-8.4199" y1="221.0586" x2="-8.4199" y2="89.0244" gradientTransform="matrix(-1 0 0 -1 74.1611 221.3301)">
		<stop  offset="0" style="stop-color:#74CCD4"/>
		<stop  offset="1" style="stop-color:#41C0BE"/>
	</linearGradient>
	<path fill="url(#SVGID_1_)" d="M0,51.271v73.057c0,5.228,4.275,9.503,9.502,9.503h146.156c5.227,0,9.502-4.275,9.502-9.503V51.271
		H0z"/>
	
		<linearGradient id="SVGID_2_" gradientUnits="userSpaceOnUse" x1="-8.4199" y1="221.0586" x2="-8.4199" y2="89.0244" gradientTransform="matrix(-1 0 0 -1 74.1611 221.3301)">
		<stop  offset="0" style="stop-color:#74CCD4"/>
		<stop  offset="1" style="stop-color:#41C0BE"/>
	</linearGradient>
	<path fill="url(#SVGID_2_)" d="M165.161,54.271V9.503c0-5.227-4.275-9.503-9.502-9.503H35.108L0,35.494v18.777H165.161z"/>
	<path d="M0.334,35.496l29.209,6.772c5.227,0,9.502-4.276,9.502-9.503L35.442,0L0.334,35.496z"/>
	<path fill="#FFFFFF" d="M0.333,35.448h25.516c5.227,0,9.503-4.276,9.503-9.502V0L0.333,35.448z"/>
	<rect x="0" y="51.375" fill="#FFFFFF" width="165.16" height="3"/>
</g>
</svg>
