<?xml version="1.0" encoding="utf-8"?>
<!-- Generator: Adobe Illustrator 16.0.0, SVG Export Plug-In . SVG Version: 6.00 Build 0)  -->
<!DOCTYPE svg PUBLIC "-//W3C//DTD SVG 1.1//EN" "http://www.w3.org/Graphics/SVG/1.1/DTD/svg11.dtd">
<svg version="1.1" id="Layer_1" xmlns="http://www.w3.org/2000/svg" xmlns:xlink="http://www.w3.org/1999/xlink" x="0px" y="0px"
	 width="166.127px" height="166.108px" viewBox="0 0 166.127 166.108" enable-background="new 0 0 166.127 166.108"
	 xml:space="preserve">
<g>
	<g>
		<path d="M85.077,116.884l81.05-81.031c-4.562-6.526-10.061-13.13-16.379-19.461C143.404,10.052,136.788,4.564,130.26,0
			L49.236,81.045c6.525,4.549,13.12,10.036,19.46,16.379C75.039,103.77,80.516,110.36,85.077,116.884z"/>
		<path d="M29.753,137.544c-3.057-3.068-7.004-4.964-11.428-5.886L0,166.108l35.136-18.686
			C34.111,143.671,32.444,140.223,29.753,137.544z"/>
		<path d="M44.994,142.175l31.574-16.794l0.25-0.236c-4.563-6.524-10.038-13.119-16.379-19.459
			c-6.343-6.346-12.936-11.831-19.46-16.382l-0.251,0.239l-17.204,32.361c5.659,1.084,10.61,3.502,14.489,7.38
			C41.502,132.788,43.762,137.203,44.994,142.175z"/>
	</g>
</g>
</svg>
