<?xml version="1.0" encoding="utf-8"?>
<!-- Generator: Adobe Illustrator 16.0.0, SVG Export Plug-In . SVG Version: 6.00 Build 0)  -->
<!DOCTYPE svg PUBLIC "-//W3C//DTD SVG 1.1//EN" "http://www.w3.org/Graphics/SVG/1.1/DTD/svg11.dtd">
<svg version="1.1" id="Isolation_Mode" xmlns="http://www.w3.org/2000/svg" xmlns:xlink="http://www.w3.org/1999/xlink" x="0px"
	 y="0px" width="41.775px" height="41.773px" viewBox="0 0 41.775 41.773" enable-background="new 0 0 41.775 41.773"
	 xml:space="preserve">
<g>
	<g>
		
			<linearGradient id="SVGID_1_" gradientUnits="userSpaceOnUse" x1="-52.614" y1="86.5959" x2="-81.2096" y2="122.2079" gradientTransform="matrix(1 0 0 -1 91 129.2739)">
			<stop  offset="0" style="stop-color:#FFFFFF"/>
			<stop  offset="1" style="stop-color:#B8BABC"/>
		</linearGradient>
		<circle fill="url(#SVGID_1_)" cx="20.888" cy="20.886" r="20.888"/>
	</g>
	<g>
		
			<radialGradient id="SVGID_2_" cx="-74.6897" cy="116.4319" r="18.34" gradientTransform="matrix(1 0 0 -1 91 129.2739)" gradientUnits="userSpaceOnUse">
			<stop  offset="0.1422" style="stop-color:#FFFFFF"/>
			<stop  offset="0.4353" style="stop-color:#F8F9FA"/>
			<stop  offset="0.8569" style="stop-color:#E5E9EB"/>
			<stop  offset="1" style="stop-color:#DDE2E5"/>
		</radialGradient>
		<path fill="url(#SVGID_2_)" d="M20.89,38.194c-9.545,0-17.311-7.765-17.311-17.308c0-9.542,7.766-17.306,17.311-17.306
			c9.543,0,17.307,7.763,17.307,17.306C38.196,30.429,30.433,38.194,20.89,38.194z"/>
		<g>
			<path fill="#8C98A0" d="M20.89,4.177c9.214,0,16.71,7.496,16.71,16.709c0,9.215-7.496,16.711-16.71,16.711
				c-9.217,0-16.714-7.497-16.714-16.711S11.674,4.177,20.89,4.177 M20.89,2.983c-9.892,0-17.906,8.015-17.906,17.902
				C2.984,30.774,11,38.79,20.89,38.79c9.886,0,17.902-8.017,17.902-17.905C38.793,10.997,30.775,2.983,20.89,2.983L20.89,2.983z"/>
		</g>
	</g>
</g>
<g>
	
		<radialGradient id="SVGID_3_" cx="-71.8318" cy="99.8596" r="11.737" gradientTransform="matrix(1 0 0 -1 91.0005 129.2739)" gradientUnits="userSpaceOnUse">
		<stop  offset="0" style="stop-color:#78CDD4"/>
		<stop  offset="1" style="stop-color:#41C0BE"/>
	</radialGradient>
	<polygon fill="url(#SVGID_3_)" points="33.386,14.75 28.706,10.074 16.439,22.343 11.694,17.595 7.013,22.277 16.433,31.7 
		16.439,31.687 16.453,31.7 	"/>
	<g>
		
			<linearGradient id="SVGID_4_" gradientUnits="userSpaceOnUse" x1="-71.7058" y1="124.1604" x2="-62.4456" y2="103.2706" gradientTransform="matrix(1 0 0 -1 91 129.2739)">
			<stop  offset="0" style="stop-color:#FFFFFF"/>
			<stop  offset="1" style="stop-color:#FFFFFF;stop-opacity:0"/>
		</linearGradient>
		<path fill="url(#SVGID_4_)" d="M24.762,20.593c1.176-0.224,2.339-0.41,3.48-0.562l4.397-4.4l-3.936-3.93L18.193,22.215
			C20.256,21.581,22.456,21.031,24.762,20.593z"/>
		
			<linearGradient id="SVGID_5_" gradientUnits="userSpaceOnUse" x1="-84.76" y1="118.3752" x2="-75.4987" y2="97.483" gradientTransform="matrix(1 0 0 -1 91 129.2739)">
			<stop  offset="0" style="stop-color:#FFFFFF"/>
			<stop  offset="1" style="stop-color:#FFFFFF;stop-opacity:0"/>
		</linearGradient>
		<path fill="url(#SVGID_5_)" d="M15.563,23.094l-3.869-3.873l-3.937,3.937l2.343,2.345C11.721,24.638,13.555,23.825,15.563,23.094z
			"/>
	</g>
</g>
</svg>
