<?xml version="1.0" encoding="utf-8"?>
<!-- Generator: Adobe Illustrator 16.0.0, SVG Export Plug-In . SVG Version: 6.00 Build 0)  -->
<!DOCTYPE svg PUBLIC "-//W3C//DTD SVG 1.1//EN" "http://www.w3.org/Graphics/SVG/1.1/DTD/svg11.dtd">
<svg version="1.1" id="Layer_1" xmlns="http://www.w3.org/2000/svg" xmlns:xlink="http://www.w3.org/1999/xlink" x="0px" y="0px"
	 width="3450.345px" height="2973.297px" viewBox="0 0 3450.345 2973.297" enable-background="new 0 0 3450.345 2973.297"
	 xml:space="preserve">
<g>
	<g>
		<g>
			<path fill="#9EC0DF" d="M1092.488,1777.147H935.037c-1.93,0-3.5-1.57-3.5-3.5v-160.701c0-1.93,1.57-3.5,3.5-3.5h157.451
				c1.93,0,3.5,1.57,3.5,3.5v160.701C1095.988,1775.577,1094.417,1777.147,1092.488,1777.147z M935.037,1610.446
				c-1.378,0-2.5,1.121-2.5,2.5v160.701c0,1.379,1.122,2.5,2.5,2.5h157.451c1.378,0,2.5-1.121,2.5-2.5v-160.701
				c0-1.379-1.122-2.5-2.5-2.5H935.037z"/>
			<g>
				<path fill="#9EC0DF" d="M969.592,1744.855h-1.848l-3.354-12.872h1.883l2.399,10.473h0.043l2.881-10.473h1.9l2.89,10.473h0.035
					l2.408-10.473h1.935l-3.406,12.872h-1.812l-2.942-10.675h-0.035L969.592,1744.855z"/>
				<path fill="#9EC0DF" d="M980.897,1740.153c0-1.396,0.388-2.568,1.165-3.521c0.776-0.951,1.833-1.427,3.17-1.427
					c1.366,0,2.435,0.481,3.205,1.444s1.156,2.131,1.156,3.503c0,1.378-0.382,2.551-1.147,3.52c-0.765,0.97-1.836,1.454-3.214,1.454
					c-1.325,0-2.379-0.47-3.161-1.41C981.288,1742.777,980.897,1741.589,980.897,1740.153z M982.508,1740.153
					c0,1.045,0.236,1.904,0.709,2.579c0.473,0.674,1.145,1.011,2.014,1.011c0.899,0,1.582-0.353,2.049-1.06
					c0.467-0.706,0.7-1.55,0.7-2.53c0-0.992-0.233-1.835-0.7-2.526c-0.467-0.692-1.15-1.038-2.049-1.038
					c-0.835,0-1.498,0.326-1.988,0.977C982.753,1738.217,982.508,1739.079,982.508,1740.153z"/>
				<path fill="#9EC0DF" d="M993.016,1744.855h-1.576v-9.378h1.489v1.559h0.035c0.683-1.221,1.562-1.83,2.636-1.83
					c0.169,0,0.306,0.017,0.411,0.052v1.638h-0.586c-0.707,0-1.284,0.239-1.734,0.718c-0.45,0.479-0.674,1.074-0.674,1.787V1744.855
					z"/>
				<path fill="#9EC0DF" d="M1004.96,1744.855h-1.489v-1.287h-0.035c-0.595,1.039-1.498,1.559-2.706,1.559
					c-1.302,0-2.309-0.496-3.021-1.488c-0.712-0.993-1.068-2.242-1.068-3.748c0-1.39,0.353-2.518,1.06-3.385
					c0.706-0.867,1.655-1.3,2.846-1.3c1.173,0,2.107,0.531,2.802,1.594l0.035-0.105v-4.711h1.577V1744.855z M998.27,1740.136
					c0,1.162,0.23,2.057,0.692,2.684c0.461,0.628,1.074,0.941,1.839,0.941c0.729,0,1.34-0.269,1.83-0.806s0.736-1.319,0.736-2.347
					c0-1.319-0.209-2.313-0.626-2.981c-0.417-0.669-1.052-1.003-1.904-1.003c-0.812,0-1.442,0.266-1.892,0.797
					S998.27,1738.857,998.27,1740.136z"/>
				<path fill="#9EC0DF" d="M1012.614,1738.147c-0.023-0.56-0.223-0.963-0.6-1.208c-0.377-0.245-0.918-0.368-1.625-0.368
					c-0.514,0-0.953,0.114-1.318,0.342c-0.365,0.228-0.547,0.555-0.547,0.98c0,0.339,0.108,0.589,0.324,0.749
					c0.216,0.161,0.683,0.331,1.401,0.513l1.559,0.394c0.946,0.239,1.622,0.545,2.027,0.915c0.406,0.371,0.608,0.889,0.608,1.555
					c0,0.922-0.337,1.671-1.011,2.246s-1.575,0.862-2.702,0.862c-1.313,0-2.307-0.272-2.981-0.818s-1.018-1.368-1.029-2.466h1.523
					c0.023,0.648,0.238,1.13,0.644,1.445s1.014,0.473,1.826,0.473c0.66,0,1.184-0.131,1.572-0.394s0.583-0.628,0.583-1.095
					c0-0.333-0.125-0.599-0.376-0.797s-0.748-0.383-1.489-0.552l-1.83-0.446c-0.741-0.188-1.289-0.466-1.642-0.837
					c-0.353-0.37-0.529-0.851-0.529-1.44c0-0.922,0.33-1.651,0.989-2.189c0.66-0.536,1.521-0.805,2.583-0.805
					c1.133,0,2.001,0.275,2.605,0.827c0.604,0.552,0.924,1.257,0.958,2.114H1012.614z"/>
				<path fill="#9EC0DF" d="M1020.941,1731.983h5.648c1.109,0,1.994,0.301,2.653,0.901c0.66,0.602,0.99,1.381,0.99,2.338
					c0,0.578-0.145,1.105-0.434,1.581s-0.72,0.845-1.292,1.107c0.803,0.304,1.393,0.707,1.771,1.209s0.567,1.146,0.567,1.935
					c0,1.109-0.4,2.021-1.201,2.732c-0.801,0.712-1.858,1.068-3.173,1.068h-5.53V1731.983z M1022.658,1737.43h3.161
					c0.922,0,1.598-0.168,2.027-0.503c0.429-0.336,0.644-0.86,0.644-1.572c0-0.613-0.203-1.08-0.609-1.401
					c-0.406-0.32-1.087-0.481-2.044-0.481h-3.179V1737.43z M1022.658,1743.367h3.713c0.911,0,1.594-0.212,2.049-0.635
					c0.456-0.424,0.683-0.994,0.683-1.712c0-0.73-0.254-1.274-0.762-1.634c-0.508-0.358-1.258-0.538-2.25-0.538h-3.433V1743.367z"/>
				<path fill="#9EC0DF" d="M1032.649,1738.332c0.035-1.057,0.378-1.842,1.029-2.355s1.598-0.771,2.841-0.771
					c0.993,0,1.824,0.225,2.496,0.674s1.007,1.098,1.007,1.944v5.402c0,0.368,0.166,0.552,0.499,0.552
					c0.134,0,0.307-0.023,0.517-0.07v1.147c-0.286,0.117-0.584,0.175-0.893,0.175c-0.537,0-0.937-0.115-1.2-0.346
					s-0.4-0.591-0.412-1.081c-0.899,1.016-2.029,1.523-3.389,1.523c-0.888,0-1.6-0.251-2.137-0.753s-0.806-1.156-0.806-1.962
					c0-0.823,0.233-1.488,0.701-1.996c0.467-0.508,1.147-0.814,2.04-0.92l2.785-0.341c0.502-0.076,0.753-0.447,0.753-1.112
					c0-0.49-0.182-0.867-0.547-1.13c-0.365-0.263-0.918-0.394-1.66-0.394c-0.66,0-1.166,0.146-1.519,0.438
					c-0.354,0.292-0.565,0.75-0.635,1.375H1032.649z M1038.42,1740.065c-0.117,0.123-0.346,0.222-0.688,0.298
					s-0.979,0.175-1.913,0.298c-0.689,0.082-1.195,0.251-1.52,0.508c-0.324,0.257-0.486,0.596-0.486,1.016
					c0,0.514,0.137,0.914,0.412,1.2c0.274,0.286,0.712,0.429,1.313,0.429c0.753,0,1.421-0.215,2.005-0.644
					c0.583-0.429,0.875-0.95,0.875-1.563V1740.065z"/>
				<path fill="#9EC0DF" d="M1050.206,1744.855h-1.576v-5.771c0-0.888-0.155-1.52-0.464-1.896c-0.31-0.377-0.823-0.565-1.542-0.565
					c-0.706,0-1.296,0.269-1.769,0.806c-0.473,0.537-0.709,1.308-0.709,2.312v5.114h-1.576v-9.378h1.489v1.322h0.035
					c0.74-1.062,1.684-1.594,2.833-1.594c1.061,0,1.873,0.281,2.435,0.845s0.844,1.37,0.844,2.421V1744.855z"/>
				<path fill="#9EC0DF" d="M1060.25,1744.855h-2.023l-2.924-4.737l-1.313,1.182v3.556h-1.524v-12.872h1.524v7.46l4.037-3.966h2.005
					l-3.582,3.493L1060.25,1744.855z"/>
			</g>
		</g>
	</g>
	<polygon fill="#9EC0DF" points="1052.703,1701.738 971.359,1701.738 971.359,1668.132 973.359,1668.132 973.359,1699.738 
		1050.703,1699.738 1050.703,1644.676 998.989,1644.676 998.989,1642.676 1052.703,1642.676 	"/>
	<rect x="994.098" y="1663.871" fill="#9EC0DF" width="39.67" height="2"/>
	<rect x="994.098" y="1672.838" fill="#9EC0DF" width="39.67" height="2"/>
	<rect x="994.098" y="1681.805" fill="#9EC0DF" width="39.67" height="2"/>
	<path fill="#9EC0DF" d="M982.414,1667.005c-7.17,0-13.003-5.833-13.003-13.003s5.833-13.004,13.003-13.004
		s13.003,5.834,13.003,13.004S989.583,1667.005,982.414,1667.005z M982.414,1641.998c-6.619,0-12.003,5.385-12.003,12.004
		c0,6.618,5.385,12.003,12.003,12.003s12.003-5.385,12.003-12.003C994.417,1647.383,989.032,1641.998,982.414,1641.998z"/>
	<g>
		<rect x="973.984" y="1653.502" fill="#9EC0DF" width="16.723" height="1"/>
		<g>
			<polygon fill="#9EC0DF" points="987.46,1651.641 988.463,1654.002 987.46,1656.364 993.06,1654.002 			"/>
		</g>
		<g>
			<polygon fill="#9EC0DF" points="977.231,1651.641 976.228,1654.002 977.231,1656.364 971.631,1654.002 			"/>
		</g>
	</g>
	<g>
		<rect x="981.846" y="1645.64" fill="#9EC0DF" width="1" height="16.724"/>
		<g>
			<polygon fill="#9EC0DF" points="984.708,1659.117 982.345,1660.121 979.985,1659.117 982.345,1664.717 			"/>
		</g>
		<g>
			<polygon fill="#9EC0DF" points="984.708,1648.885 982.345,1647.881 979.985,1648.885 982.345,1643.285 			"/>
		</g>
	</g>
</g>
</svg>
