<?xml version="1.0" encoding="utf-8"?>
<!-- Generator: Adobe Illustrator 16.0.0, SVG Export Plug-In . SVG Version: 6.00 Build 0)  -->
<!DOCTYPE svg PUBLIC "-//W3C//DTD SVG 1.1//EN" "http://www.w3.org/Graphics/SVG/1.1/DTD/svg11.dtd">
<svg version="1.1" id="Isolation_Mode" xmlns="http://www.w3.org/2000/svg" xmlns:xlink="http://www.w3.org/1999/xlink" x="0px"
	 y="0px" width="99.391px" height="72px" viewBox="133.609 696 99.391 72" enable-background="new 133.609 696 99.391 72"
	 xml:space="preserve">
<g>
	<g>
		<g opacity="0.2">
			<circle cx="174.536" cy="733.687" r="32.313"/>
		</g>
		<g>
			<circle fill="#CF873C" cx="174.536" cy="731.201" r="32.313"/>
		</g>
	</g>
	<path fill="#A56226" d="M174.577,737.394c-10.632,0-20.063,5.137-25.951,13.061c5.888,7.924,15.319,13.061,25.951,13.061
		c10.632,0,20.063-5.136,25.952-13.061C194.64,742.531,185.208,737.394,174.577,737.394z"/>
	<path fill="#FCC28B" d="M174.577,698.888c-12.444,0-23.238,7.038-28.636,17.348c5.398,10.31,16.192,17.347,28.636,17.347
		c12.445,0,23.239-7.037,28.637-17.347C197.816,705.926,187.021,698.888,174.577,698.888z"/>
	<circle fill="#FCC28B" cx="174.577" cy="730.042" r="28.636"/>
	<path fill="#E7A149" d="M202.107,728.935c0,15.205-12.326,27.532-27.531,27.532c-13.724,0-25.103-10.044-27.189-23.182l5.524-1.915
		l-5.738,0.234c0,0-0.128-1.769-0.128-2.67c0-15.205,12.326-27.531,27.531-27.531c14.188,0,25.87,10.733,27.368,24.522l-5.788-0.198
		l5.941,2.48C202.105,728.449,202.107,728.693,202.107,728.935z"/>
	<path fill="#E7A149" d="M202.107,728.935c0,15.205-12.326,27.532-27.531,27.532c-13.724,0-25.103-10.044-27.189-23.182l5.524-1.915
		l-5.738,0.234c0,0-0.128-1.769-0.128-2.67c0-15.205,12.326-27.531,27.531-27.531c14.188,0,25.87,10.733,27.368,24.522l-5.788-0.198
		l5.941,2.48C202.105,728.449,202.107,728.693,202.107,728.935z"/>
	<circle fill="#874F21" cx="174.577" cy="728.936" r="21.963"/>
	<circle fill="#A56226" cx="174.577" cy="729.784" r="21.113"/>
	<polygon fill="#A56226" points="142.265,732.25 145.941,730.042 152.913,731.37 147.047,731.799 	"/>
	<polygon fill="#A56226" points="206.806,726.608 203.13,724.399 196.158,725.727 202.024,726.157 	"/>
</g>
<g display="none">
	<path display="inline" opacity="0.2" enable-background="new    " d="M226.471,739.236l-4.749-4.927
		c-0.987-1.023-2.211-1.396-2.877-0.876l-12.848,12.455c-1.48,1.436-3.882,1.321-5.217-0.248l-5.338-6.275
		c-0.721-0.69-2.354-0.261-3.536,0.931l-4.819,4.858c-1.001,1.009-1.339,2.234-0.793,2.875l13.451,16.567
		c0.61,0.718,2.099,0.454,3.315-0.587l24.237-21.244C228.018,742.073,227.636,740.443,226.471,739.236z"/>
	
		<radialGradient id="SVGID_1_" cx="1.5684" cy="692.1448" r="1.0646" gradientTransform="matrix(17.4615 0 0 -17.2957 179.4724 12717.3594)" gradientUnits="userSpaceOnUse">
		<stop  offset="0" style="stop-color:#76DD51"/>
		<stop  offset="1" style="stop-color:#58C239"/>
	</radialGradient>
	<path display="inline" fill="url(#SVGID_1_)" d="M226.471,736.345l-4.749-4.926c-0.987-1.023-2.211-1.396-2.877-0.876
		l-12.848,12.455c-1.48,1.436-3.882,1.321-5.217-0.247l-5.338-6.276c-0.721-0.689-2.354-0.261-3.536,0.931l-4.819,4.858
		c-1.001,1.01-1.339,2.234-0.793,2.876l13.451,16.566c0.61,0.718,2.099,0.454,3.315-0.586l24.237-21.246
		C228.018,739.184,227.636,737.553,226.471,736.345z"/>
	<path display="inline" fill="#39891B" d="M226.225,736.089l-23.164,20.304c-1.217,1.041-2.704,1.305-3.315,0.587l-12.268-15.109
		l-0.391,0.394c-1.001,1.01-1.339,2.234-0.793,2.876l13.451,16.566c0.61,0.718,2.099,0.454,3.315-0.587l24.237-21.245
		c0.72-0.691,0.337-2.322-0.827-3.529L226.225,736.089z"/>
	<path display="inline" fill="#82E85D" d="M215.01,745.918c0,0-0.363,0.365-0.996,1.004c-0.645,0.627-1.565,1.522-2.67,2.598
		c-1.112,1.064-2.428,2.288-3.841,3.595c-0.713,0.646-1.449,1.314-2.198,1.993c-0.376,0.337-0.755,0.677-1.136,1.018
		c-0.386,0.33-0.742,0.691-1.221,1.03c-0.477,0.326-0.997,0.586-1.595,0.712c-0.572,0.117-1.335,0.121-1.924-0.438l-0.107-0.112
		l-0.06-0.073l-0.117-0.147l-0.235-0.294l-0.467-0.583c-0.307-0.39-0.608-0.773-0.907-1.151c-1.187-1.515-2.272-2.946-3.187-4.187
		c-0.921-1.234-1.647-2.297-2.168-3.029c-0.52-0.734-0.798-1.17-0.798-1.17s0.367,0.361,0.98,1.021
		c0.609,0.661,1.501,1.591,2.521,2.746c1.026,1.149,2.204,2.507,3.443,3.979c0.604,0.724,1.228,1.471,1.861,2.229
		c0.157,0.169,0.541,0.22,0.948,0.136c0.406-0.077,0.827-0.275,1.197-0.523c0.365-0.247,0.743-0.611,1.136-0.941
		c0.389-0.332,0.774-0.664,1.158-0.992c0.771-0.652,1.529-1.295,2.264-1.917c1.48-1.229,2.866-2.373,4.068-3.338
		c1.21-0.954,2.219-1.749,2.925-2.306C214.601,746.23,215.01,745.918,215.01,745.918z"/>
	<path display="inline" fill="#FFFFFF" d="M220.509,732.671c0.214,0.416-0.072,0.949-0.614,1.232
		c-0.542,0.285-1.168,0.238-1.425-0.144c-0.257-0.383-0.014-0.986,0.569-1.304C219.624,732.139,220.294,732.256,220.509,732.671z"/>
	<path display="inline" fill="#FFFFFF" d="M213.12,738.777c-0.21-0.36,0.752-1.236,1.967-2.216c1.214-0.979,2.264-1.753,2.553-1.487
		c0.29,0.266-0.339,1.561-1.632,2.634C214.714,738.781,213.33,739.136,213.12,738.777z"/>
</g>
<g>
	<path opacity="0.5" fill="#191B23" d="M199.765,762.224c-0.634,0-1.303-0.155-1.991-0.464c-0.354-0.144-0.769-0.339-1.221-0.569
		c-0.465-0.238-0.912-0.498-1.33-0.773c-0.442-0.292-0.824-0.59-1.138-0.885c-0.6-0.566-0.892-1.154-0.892-1.8
		c0-0.755,0.369-1.467,1.127-2.176c0.478-0.469,1.065-1.018,1.736-1.62c0.656-0.59,1.385-1.226,2.165-1.892
		c0.781-0.667,1.611-1.362,2.466-2.067c0.473-0.391,0.96-0.783,1.451-1.175c-0.248-0.353-0.493-0.702-0.731-1.047
		c-0.536-0.774-1.045-1.513-1.526-2.217c-0.49-0.715-0.938-1.381-1.333-1.979c-0.399-0.604-0.745-1.131-1.036-1.576l-0.044-0.069
		l-0.01-0.019c-0.823-1.546-0.271-2.471,0.129-2.887c0.479-0.497,1.16-0.736,2.35-0.829c0.146-0.019,0.372-0.032,0.593-0.032h1.575
		c0.339,0,0.705,0.006,1.1,0.015c0.392,0.009,0.785,0.023,1.178,0.04c1.117,0.074,1.975,0.297,2.637,0.683
		c0.594,0.348,1.123,0.794,1.57,1.331l0.069,0.082l0.059,0.092c0.338,0.533,0.744,1.144,1.205,1.817l0.424,0.622
		c0.909-0.729,1.771-1.415,2.566-2.043c1.228-0.968,2.331-1.79,3.277-2.444c0.752-0.501,1.54-0.752,2.348-0.752
		c0.657,0,1.365,0.129,2.104,0.386l0.075,0.028c0.708,0.303,1.365,0.662,1.974,1.072c0.57,0.386,1.063,0.75,1.465,1.086
		c1.362,1.123,1.214,2.315,1.087,2.775c-0.191,0.69-0.641,1.309-1.338,1.836l-4.196,3.179c-1.222,0.927-2.503,1.901-3.847,2.926
		c0.795,1.146,1.563,2.257,2.301,3.328c0.957,1.391,1.862,2.688,2.691,3.854c1.213,1.341,0.604,2.456,0.387,2.768
		c-0.559,0.796-1.527,0.977-2.309,1.047c-0.731,0.04-1.461,0.06-2.188,0.06c-0.716,0-1.466-0.02-2.228-0.054
		c-0.469-0.025-0.887-0.08-1.246-0.165c-0.355-0.084-0.695-0.194-1.013-0.331c-0.351-0.152-0.684-0.347-0.991-0.578
		c-0.256-0.193-0.513-0.417-0.786-0.684c-0.375-0.348-0.893-0.954-1.573-1.846c-0.351-0.459-0.74-0.982-1.163-1.563
		c-0.869,0.702-1.698,1.386-2.472,2.039c-1.162,0.982-2.236,1.873-3.194,2.646C201.417,761.946,200.637,762.224,199.765,762.224z"/>
	<path fill="#F33703" d="M199.593,760.815c-0.556,0-1.15-0.14-1.767-0.416c-0.35-0.144-0.757-0.334-1.194-0.559
		c-0.448-0.228-0.877-0.478-1.277-0.741c-0.415-0.274-0.772-0.551-1.063-0.827c-0.484-0.455-0.719-0.912-0.719-1.396
		c0-0.595,0.312-1.176,0.953-1.774c0.478-0.47,1.063-1.015,1.728-1.612c0.652-0.587,1.377-1.219,2.154-1.883
		c0.774-0.66,1.602-1.354,2.459-2.062c0.602-0.496,1.224-0.996,1.853-1.491c-0.352-0.495-0.696-0.986-1.03-1.469
		c-0.536-0.773-1.044-1.513-1.525-2.215c-0.489-0.714-0.935-1.377-1.328-1.972c-0.399-0.604-0.745-1.129-1.035-1.573l-0.029-0.045
		l-0.01-0.019c-0.619-1.163-0.314-1.852,0.049-2.227c0.375-0.391,0.954-0.584,1.995-0.664c0.146-0.019,0.351-0.029,0.551-0.029
		h1.575c0.334,0,0.696,0.004,1.087,0.013c0.389,0.011,0.778,0.023,1.167,0.042c1.021,0.065,1.798,0.264,2.385,0.605
		c0.538,0.315,1.017,0.722,1.424,1.209l0.046,0.056l0.04,0.063c0.342,0.536,0.75,1.152,1.216,1.832c0.247,0.36,0.5,0.731,0.76,1.112
		c1.082-0.871,2.098-1.681,3.026-2.412c1.221-0.962,2.313-1.776,3.249-2.424c0.655-0.437,1.337-0.655,2.036-0.655
		c0.596,0,1.243,0.12,1.923,0.355l0.06,0.022c0.662,0.284,1.283,0.623,1.862,1.015c0.556,0.377,1.035,0.731,1.421,1.053
		c1.075,0.885,1.03,1.763,0.908,2.206c-0.158,0.572-0.541,1.09-1.138,1.542c-1.021,0.771-4.197,3.18-4.197,3.18
		c-1.349,1.021-2.771,2.104-4.268,3.246c0.903,1.302,1.77,2.556,2.6,3.759c0.972,1.413,1.886,2.722,2.716,3.89
		c0.94,1.021,0.569,1.811,0.364,2.104c-0.424,0.605-1.201,0.752-1.906,0.813c-0.712,0.039-1.425,0.059-2.139,0.059
		c-0.708,0-1.449-0.02-2.201-0.056c-0.435-0.021-0.82-0.071-1.146-0.148c-0.323-0.077-0.633-0.178-0.921-0.303
		c-0.309-0.132-0.604-0.304-0.876-0.51c-0.237-0.179-0.477-0.389-0.732-0.639c-0.359-0.332-0.861-0.92-1.521-1.786
		c-0.44-0.576-0.942-1.255-1.496-2.02c-1.038,0.832-2.022,1.642-2.933,2.41c-1.166,0.986-2.237,1.872-3.184,2.639
		C200.998,760.577,200.333,760.815,199.593,760.815z"/>
	<path fill="#A20004" d="M199.593,760.264c-0.478,0-0.996-0.124-1.542-0.368c-0.344-0.142-0.742-0.327-1.169-0.546
		c-0.431-0.221-0.843-0.459-1.224-0.712c-0.389-0.256-0.722-0.515-0.989-0.767c-0.367-0.346-0.545-0.672-0.545-0.996
		c0-0.434,0.254-0.883,0.778-1.373c0.484-0.474,1.066-1.018,1.72-1.604c0.651-0.586,1.373-1.215,2.143-1.873
		c0.778-0.662,1.603-1.355,2.452-2.056c0.726-0.599,1.483-1.203,2.257-1.805c-0.457-0.639-0.903-1.274-1.332-1.894
		c-0.534-0.773-1.042-1.51-1.522-2.212c-0.483-0.705-0.929-1.368-1.323-1.965c-0.399-0.603-0.744-1.129-1.034-1.571l-0.014-0.021
		l-0.012-0.023c-0.362-0.681-0.371-1.207-0.028-1.562c0.269-0.28,0.76-0.428,1.64-0.496c0.144-0.019,0.325-0.028,0.509-0.028h1.575
		c0.331,0,0.688,0.005,1.073,0.014c0.385,0.008,0.77,0.022,1.155,0.039c0.928,0.061,1.621,0.235,2.131,0.532
		c0.483,0.282,0.914,0.649,1.281,1.088l0.023,0.028l0.02,0.031c0.354,0.554,0.766,1.175,1.227,1.848
		c0.352,0.514,0.717,1.048,1.095,1.604c1.259-1.016,2.43-1.948,3.487-2.782c1.209-0.954,2.293-1.762,3.221-2.404
		c0.557-0.37,1.134-0.556,1.722-0.556c0.534,0,1.121,0.108,1.744,0.325l0.039,0.016c0.611,0.263,1.202,0.584,1.754,0.957
		c0.538,0.365,1.002,0.707,1.377,1.021c0.794,0.653,0.835,1.25,0.729,1.636c-0.125,0.45-0.44,0.87-0.94,1.247
		c-1.021,0.772-4.197,3.181-4.197,3.181c-1.474,1.118-3.038,2.308-4.687,3.568c1.011,1.455,1.977,2.852,2.898,4.189
		c0.983,1.429,1.905,2.748,2.742,3.925c0.637,0.677,0.539,1.156,0.34,1.441c-0.234,0.333-0.683,0.507-1.501,0.58
		c-0.69,0.036-1.387,0.055-2.091,0.055c-0.703,0-1.435-0.019-2.174-0.053c-0.398-0.021-0.749-0.065-1.046-0.137
		c-0.295-0.069-0.575-0.161-0.831-0.271c-0.268-0.115-0.524-0.266-0.761-0.445c-0.217-0.163-0.44-0.357-0.68-0.592
		c-0.344-0.318-0.827-0.886-1.467-1.726c-0.528-0.694-1.141-1.526-1.825-2.479c-1.219,0.971-2.361,1.906-3.397,2.781
		c-1.185,1-2.252,1.885-3.175,2.63C200.751,760.068,200.203,760.264,199.593,760.264z"/>
	<g>
		<path fill="#FF1E13" d="M213.408,740.838c1.137-0.914,2.141-1.679,3.012-2.295c0.428-0.29,0.863-0.436,1.308-0.436
			c0.444,0,0.932,0.094,1.461,0.281c0.547,0.241,1.069,0.531,1.565,0.873c0.495,0.342,0.914,0.658,1.256,0.948
			c0.427,0.36,0.598,0.696,0.513,1.013c-0.086,0.317-0.317,0.619-0.692,0.911c-1.128,0.87-2.449,1.894-3.961,3.063
			c-1.513,1.172-3.124,2.423-4.833,3.756c1.059,1.556,2.067,3.043,3.025,4.461c0.958,1.421,1.829,2.693,2.615,3.821
			c0.308,0.324,0.406,0.567,0.295,0.73c-0.111,0.162-0.449,0.27-1.012,0.321c-1.249,0.067-2.564,0.067-3.949,0
			c-0.343-0.018-0.637-0.056-0.885-0.116c-0.248-0.06-0.478-0.138-0.692-0.229c-0.214-0.096-0.415-0.214-0.603-0.36
			c-0.188-0.145-0.385-0.319-0.59-0.525c-0.308-0.29-0.752-0.824-1.333-1.603s-1.265-1.73-2.051-2.858
			c-1.333,1.076-2.561,2.098-3.68,3.064c-1.12,0.966-2.116,1.807-2.987,2.524c-0.633,0.53-1.436,0.572-2.41,0.128
			c-0.325-0.137-0.684-0.307-1.077-0.513c-0.394-0.204-0.761-0.424-1.103-0.652c-0.341-0.231-0.628-0.458-0.859-0.68
			c-0.231-0.224-0.347-0.411-0.347-0.564c0-0.258,0.188-0.563,0.564-0.923c0.462-0.463,1-0.975,1.616-1.539
			c0.615-0.563,1.286-1.162,2.013-1.794c0.726-0.633,1.496-1.29,2.308-1.975c0.811-0.684,1.653-1.369,2.525-2.052
			c-0.53-0.751-1.047-1.5-1.551-2.243c-0.504-0.745-0.983-1.452-1.437-2.128c-0.453-0.675-0.868-1.304-1.243-1.885
			c-0.376-0.581-0.702-1.085-0.974-1.513c-0.222-0.428-0.261-0.718-0.116-0.872s0.542-0.257,1.192-0.309
			c0.137-0.016,0.282-0.024,0.436-0.024c0.171,0,0.342,0,0.513,0h0.974c0.309,0,0.641,0.004,1.001,0.013
			c0.358,0.008,0.717,0.022,1.076,0.038c0.77,0.052,1.355,0.196,1.756,0.437c0.402,0.239,0.756,0.548,1.064,0.923
			c0.342,0.547,0.73,1.146,1.167,1.794c0.435,0.649,0.892,1.333,1.372,2.053C211.019,742.775,212.271,741.754,213.408,740.838z"/>
	</g>
	<path fill="#F10701" d="M202.128,756.325c-2.152,0-4.193-0.555-5.989-1.523c-0.06,0.06-0.121,0.119-0.18,0.178
		c-0.375,0.359-0.564,0.665-0.564,0.923c0,0.153,0.116,0.341,0.347,0.564c0.231,0.222,0.518,0.448,0.859,0.68
		c0.342,0.229,0.709,0.448,1.103,0.652c0.393,0.206,0.751,0.376,1.077,0.513c0.974,0.444,1.777,0.402,2.41-0.128
		c0.688-0.567,1.455-1.213,2.298-1.934C203.041,756.299,202.587,756.325,202.128,756.325z"/>
	<path fill="#F10701" d="M217.649,755.75c-0.721,0.129-1.46,0.2-2.214,0.2c-2.351,0-4.57-0.662-6.481-1.803
		c0.345,0.479,0.663,0.916,0.955,1.306c0.581,0.778,1.026,1.313,1.333,1.603c0.205,0.206,0.401,0.381,0.59,0.525
		c0.188,0.146,0.389,0.265,0.603,0.36c0.214,0.092,0.444,0.17,0.692,0.229c0.248,0.061,0.542,0.099,0.885,0.116
		c1.384,0.067,2.7,0.067,3.949,0c0.563-0.052,0.901-0.159,1.012-0.321c0.111-0.163,0.013-0.406-0.295-0.73
		C218.349,756.766,218.006,756.27,217.649,755.75z"/>
	<path fill="#FFFFFF" d="M218.437,739.019c0.241,0.469-0.081,1.072-0.692,1.392c-0.612,0.32-1.318,0.268-1.608-0.161
		c-0.29-0.433-0.016-1.114,0.643-1.473C217.438,738.417,218.195,738.551,218.437,739.019z"/>
	<path fill="#FFFFFF" d="M210.1,745.908c-0.238-0.407,0.849-1.395,2.219-2.5s2.554-1.979,2.881-1.679
		c0.326,0.299-0.383,1.76-1.842,2.973C211.898,745.912,210.337,746.314,210.1,745.908z"/>
</g>
</svg>
