<?xml version="1.0" encoding="utf-8"?>
<!-- Generator: Adobe Illustrator 16.0.0, SVG Export Plug-In . SVG Version: 6.00 Build 0)  -->
<!DOCTYPE svg PUBLIC "-//W3C//DTD SVG 1.1//EN" "http://www.w3.org/Graphics/SVG/1.1/DTD/svg11.dtd">
<svg version="1.1" id="Layer_1" xmlns="http://www.w3.org/2000/svg" xmlns:xlink="http://www.w3.org/1999/xlink" x="0px" y="0px"
	 width="800.567px" height="618px" viewBox="111.717 0 800.567 618" enable-background="new 111.717 0 800.567 618"
	 xml:space="preserve">
<pattern  x="0.5" y="768.5" width="427.42" height="366.36" patternUnits="userSpaceOnUse" id="SVGID_9_" viewBox="0 -366.36 427.42 366.36" overflow="visible">
	<g>
		<polygon fill="none" points="0,0 427.42,0 427.42,-366.36 0,-366.36 		"/>
		<g>
			<polygon fill="none" points="0,0 427.42,0 427.42,-366.36 0,-366.36 			"/>
			<g>
				<polygon opacity="0.2" fill="#E7A149" enable-background="new    " points="0,-227.148 0,-183.114 427.42,-183.114 
					427.42,-227.148 				"/>
				<polygon opacity="0.15" fill="#E7A149" enable-background="new    " points="0,-273.052 0,-229.018 427.42,-229.018 
					427.42,-273.052 				"/>
				<polygon opacity="0.1" fill="#E7A149" enable-background="new    " points="0,-318.61 0,-274.576 427.42,-274.576 
					427.42,-318.61 				"/>
				<polygon opacity="0.15" fill="#E7A149" enable-background="new    " points="0,-364.512 0,-320.479 427.42,-320.479 
					427.42,-364.512 				"/>
				<polygon opacity="0.2" fill="#E7A149" enable-background="new    " points="0,-44.034 0,0 427.42,0 427.42,-44.034 				"/>
				<polygon opacity="0.15" fill="#E7A149" enable-background="new    " points="0,-89.936 0,-45.902 427.42,-45.902 
					427.42,-89.936 				"/>
				<polygon opacity="0.1" fill="#E7A149" enable-background="new    " points="0,-135.495 0,-91.461 427.42,-91.461 
					427.42,-135.495 				"/>
				<polygon opacity="0.15" fill="#E7A149" enable-background="new    " points="0,-181.397 0,-137.363 427.42,-137.363 
					427.42,-181.397 				"/>
			</g>
		</g>
	</g>
</pattern>
<g id="window_x5F_panel_x5F_level_1_">
	<g id="window_x5F_panel_x5F_level_2_">
		<g>
			<g>
				<g>
					<g opacity="0.2">
						<path d="M911.146,251.4c0,0,0-60.563,0-129.529c0-53.882,0-116.442,0-116.442s-62.848,0-145.726,0
							c-157.051,0-349.441,0-506.838,0c-83.442,0-146.866,0-146.866,0s0,63.074,0,116.442c0,66.225,0,123.617,0,123.617h4.094
							v119.331l-2.072,3.087v124.896l2.072,2.476c0,0,0-44.596,0,38.922c0,53.327,0,83.802,0,83.802s61.447,0,142.772,0
							c156.611,0,349.442,0,506.838,0c82.58,0,145.306,0,145.306,0s0-15.476,0-68.802c0-83.518,0-53.922,0-53.922l1.558-5.227
							V365.156l-2.828-1.867L908.574,251.4H911.146L911.146,251.4z"/>
					</g>
					<g>
						<path fill="#CF883C" d="M911.146,242.213c0,0,0-55.274,0-120.344c0-55.012,0-121.871,0-121.871s-62.848,0-145.726,0
							C608.37,0,415.979,0,258.583,0c-83.442,0-146.866,0-146.866,0s0,67.453,0,121.87c0,62.258,0,114.432,0,114.432h4.094v119.332
							l-2.072,3.087v124.895l2.072,2.477c0,0,0-38.599,0,48.106c0,51.596,0,78.374,0,78.374s61.447,0,142.772,0
							c156.611,0,349.442,0,506.838,0c82.58,0,145.306,0,145.306,0s0-11.778,0-63.374c0-86.705,0-63.106,0-63.106l1.558-5.227
							V355.971l-2.828-1.867l-0.882-111.89L911.146,242.213L911.146,242.213z"/>
					</g>
				</g>
				<path fill="#FCC38B" d="M905.5,232.515c0,0,0-50.708,0-110.645c0-51.172,0-113.729,0-113.729s-60.218,0-140.079,0
					c-156.455,0-349.952,0-506.838,0c-80.536,0-141.437,0-141.437,0s0,62.556,0,113.729c0,59.937,0,110.645,0,110.645h4.07v121.702
					h-4.07v121.702h4.07c0,0,0-31.355,0,58.278c0,48.615,0,70.232,0,70.232s58.934,0,137.366,0c156.017,0,349.939,0,506.838,0
					c79.782,0,140.079,0,140.079,0s0-6.617,0-55.232c0-89.634,0-73.277,0-73.277h4.07V354.217h-6.784V232.516L905.5,232.515
					L905.5,232.515z"/>
				<path fill="#E7A149" d="M902.786,7.045c0,0-58.96,0.123-137.365,0.286C609.258,7.492,415.19,7.691,258.583,7.852
					C179.501,8.017,119.86,8.141,119.86,8.141s0,63.204,0,113.729c0,56.93,0,104.349,0,104.349l33.588,8.594h-29.518v113.516
					l38.568,7.644l-42.639,1.324v114.033h31.072l-27.001,8.31c0,0,0-33.124,0,54.562c0,47.292,0,67.518,0,67.518s57.677,0,134.652,0
					c155.711,0,350.223,0,506.838,0c78.329,0,137.365,0,137.365,0s0-5.171,0-52.518c0-88.245,0-70.962,0-70.962l-39.296-6.909
					l43.366-2.296V354.22l-22.01,2.296l15.226-8.745V236.787l-21.758-3.097l24.472-9.325c0,0,0-46.392,0-102.493
					C902.786,71.169,902.786,7.045,902.786,7.045z"/>
				<path fill="#CF883C" d="M886.503,577.293c0,0-51.445,0-121.082,0c-154.169,0-352.148,0-506.838,0c-70.326,0-122.44,0-122.44,0
					s0-1.963,0-43.095c0-140.743,0-254.517,0-412.328c0-55.013,0-93.376,0-93.376s52.114,0,122.44,0c154.688,0,352.668,0,506.838,0
					c69.639,0,121.082,0,121.082,0s0,38.363,0,93.376c0,157.812,0,286.585,0,427.328
					C886.503,590.33,886.503,577.293,886.503,577.293z"/>
				<path fill="#A56226" d="M136.74,28.494l8.805,8.142c0,0,47.799,0,113.04,0c153.329,0,353.99,0,506.837,0
					c64.656,0,111.9,0,111.9,0l8.805-8.142c0,0-51.273,0-120.705,0c-154.144,0-352.255,0-506.837,0
					C188.576,28.494,136.74,28.494,136.74,28.494z"/>
				<path fill="#FCC38B" d="M136.74,577.293l8.805-8.142c0,0,47.799,0,113.04,0c153.329,0,353.99,0,506.837,0
					c64.656,0,111.9,0,111.9,0l8.805,8.142c0,0-51.273,0-120.705,0c-154.144,0-352.255,0-506.837,0
					C188.576,577.293,136.74,577.293,136.74,577.293z"/>
				<path fill="#FCC38B" d="M111.717,0l5.352,8.141c0,0,60.934,0,141.514,0c156.872,0,350.329,0,506.838,0
					c80.016,0,140.376,0,140.376,0L911.148,0c0,0-62.849,0-145.727,0C608.37,0,415.979,0,258.583,0C175.141,0,111.717,0,111.717,0z"
					/>
				<polygon fill="#A56226" points="908.573,241.7 903.365,232.497 878.294,233.56 903.828,225.898 911.146,241.7 				"/>
				<polygon fill="#A56226" points="884.845,356.028 903.365,354.217 909.455,354.217 909.41,348.464 901.441,347.826 				"/>
				<polygon fill="#A56226" points="912.283,481.138 907.487,471.328 863.441,471.328 905.469,475.723 910.725,486.365 				"/>
				<path fill="#A56226" d="M115.811,612.573l5.257-8.142c0,0,59.007,0,137.515,0c156.052,0,349.963,0,506.838,0
					c79.769,0,140.048,0,140.048,0l5.256,8.142c0,0-62.725,0-145.305,0c-157.396,0-350.227,0-506.838,0
					C177.256,612.573,115.811,612.573,115.811,612.573z"/>
				<polygon fill="#A56226" points="150.268,471.328 121.068,475.723 115.811,486.228 113.738,483.956 119.035,471.328 				"/>
				<polygon fill="#A56226" points="121.068,354.217 162.947,356.028 122.99,348.412 117.069,354.217 				"/>
				<polygon fill="#A56226" points="111.717,237.107 119.035,226.621 153.447,233.89 121.068,233.258 115.811,237.107 				"/>
				<g>
					
						<linearGradient id="SVGID_1_" gradientUnits="userSpaceOnUse" x1="-53.3013" y1="811.0959" x2="-53.3013" y2="821.5909" gradientTransform="matrix(1.3569 0 0 -1.3569 202.6223 1129.5956)">
						<stop  offset="0" style="stop-color:#F0B66C"/>
						<stop  offset="1" style="stop-color:#AA611D"/>
					</linearGradient>
					<ellipse fill="url(#SVGID_1_)" cx="130.297" cy="20.127" rx="8.406" ry="8.381"/>
					<g>
						<ellipse fill="#303030" cx="130.297" cy="20.127" rx="6.417" ry="6.399"/>
						<g>
							<path fill="#51504F" d="M130.297,17.411c2.581,0,4.729,1.759,5.358,4.133c0.121-0.457,0.206-0.927,0.206-1.419
								c0-3.063-2.49-5.547-5.564-5.547c-3.074,0-5.565,2.484-5.565,5.547c0,0.494,0.084,0.962,0.207,1.419
								C125.568,19.17,127.718,17.411,130.297,17.411z"/>
						</g>
						<ellipse fill="#848280" cx="130.133" cy="15.741" rx="1.539" ry="0.723"/>
					</g>
				</g>
				<g>
					
						<linearGradient id="SVGID_2_" gradientUnits="userSpaceOnUse" x1="507.2314" y1="811.0959" x2="507.2314" y2="821.5909" gradientTransform="matrix(1.3569 0 0 -1.3569 202.6223 1129.5956)">
						<stop  offset="0" style="stop-color:#F0B66C"/>
						<stop  offset="1" style="stop-color:#AA611D"/>
					</linearGradient>
					<ellipse fill="url(#SVGID_2_)" cx="890.885" cy="20.127" rx="8.405" ry="8.381"/>
					<g>
						<ellipse fill="#303030" cx="890.885" cy="20.127" rx="6.416" ry="6.399"/>
						<g>
							<path fill="#51504F" d="M890.885,17.411c2.579,0,4.729,1.759,5.358,4.133c0.12-0.457,0.206-0.927,0.206-1.419
								c0-3.063-2.49-5.547-5.564-5.547s-5.564,2.484-5.564,5.547c0,0.494,0.084,0.962,0.206,1.419
								C886.156,19.17,888.305,17.411,890.885,17.411z"/>
						</g>
						<ellipse fill="#848280" cx="890.721" cy="15.741" rx="1.538" ry="0.723"/>
					</g>
				</g>
				<g>
					
						<linearGradient id="SVGID_3_" gradientUnits="userSpaceOnUse" x1="-50.4565" y1="390.3206" x2="-50.4565" y2="400.8163" gradientTransform="matrix(1.3569 0 0 -1.3569 202.6223 1129.5956)">
						<stop  offset="0" style="stop-color:#F0B66C"/>
						<stop  offset="1" style="stop-color:#AA611D"/>
					</linearGradient>
					<ellipse fill="url(#SVGID_3_)" cx="134.158" cy="591.076" rx="8.406" ry="8.382"/>
					<g>
						<ellipse fill="#303030" cx="134.158" cy="591.076" rx="6.417" ry="6.399"/>
						<g>
							<path fill="#51504F" d="M134.158,588.362c2.581,0,4.729,1.758,5.358,4.133c0.121-0.457,0.206-0.927,0.206-1.42
								c0-3.063-2.49-5.547-5.564-5.547c-3.074,0-5.565,2.484-5.565,5.547c0,0.494,0.084,0.963,0.207,1.42
								C129.429,590.119,131.578,588.362,134.158,588.362z"/>
						</g>
						<ellipse fill="#848280" cx="133.993" cy="586.689" rx="1.539" ry="0.723"/>
					</g>
				</g>
				<g>
					
						<linearGradient id="SVGID_4_" gradientUnits="userSpaceOnUse" x1="508.2466" y1="390.6438" x2="508.2466" y2="401.1395" gradientTransform="matrix(1.3569 0 0 -1.3569 202.6223 1129.5956)">
						<stop  offset="0" style="stop-color:#F0B66C"/>
						<stop  offset="1" style="stop-color:#AA611D"/>
					</linearGradient>
					<ellipse fill="url(#SVGID_4_)" cx="892.262" cy="590.638" rx="8.406" ry="8.382"/>
					<g>
						<ellipse fill="#303030" cx="892.262" cy="590.638" rx="6.417" ry="6.399"/>
						<g>
							<path fill="#51504F" d="M892.262,587.923c2.581,0,4.729,1.759,5.358,4.133c0.121-0.457,0.206-0.927,0.206-1.419
								c0-3.064-2.49-5.547-5.564-5.547c-3.073,0-5.564,2.484-5.564,5.547c0,0.494,0.084,0.962,0.206,1.419
								C887.533,589.68,889.683,587.923,892.262,587.923z"/>
						</g>
						<ellipse fill="#848280" cx="892.098" cy="586.251" rx="1.539" ry="0.724"/>
					</g>
				</g>
			</g>
			<g>
				<path fill="#874F21" d="M877.005,569.152c0,0-47.097,0-111.584,0c-152.77,0-353.494,0-506.838,0c-65.184,0-112.942,0-112.942,0
					s0,1.481,0-34.953c0-136.856,0-256.392,0-412.328c0-50.47,0-85.234,0-85.234s47.758,0,112.942,0c153.344,0,354.068,0,506.838,0
					c64.487,0,111.584,0,111.584,0s0,34.764,0,85.234c0,155.937,0,273.472,0,410.328
					C877.005,568.633,877.005,569.152,877.005,569.152z"/>
				<pattern  id="SVGID_5_" xlink:href="#SVGID_9_" patternTransform="matrix(2.0956 0 0 -2.0015 18452.584 -30556.9883)">
				</pattern>
				<path display="none" fill="url(#SVGID_5_)" d="M877.005,719.152c0,0-47.097,0-111.584,0c-152.77,0-353.494,0-506.838,0
					c-65.184,0-112.942,0-112.942,0s0-23.519,0-59.953c0-136.856,0-381.392,0-537.328c0-50.47,0-85.234,0-85.234s47.758,0,112.942,0
					c153.344,0,354.068,0,506.838,0c64.487,0,111.584,0,111.584,0s0,34.764,0,85.234c0,155.937,0,400.472,0,537.328
					C877.005,695.633,877.005,719.152,877.005,719.152z"/>
				<path opacity="0.31" enable-background="new    " d="M145.641,36.636c0,0,0,34.764,0,85.234c0,155.937,0,275.472,0,412.328
					c0,36.435,0,34.953,0,34.953s47.758,0,112.942,0c153.344,0,354.068,0,506.838,0c64.487,0,111.584,0,111.584,0s0-0.519,0-36.953
					c0-136.856,0-254.392,0-410.328c0-50.47,0-85.234,0-85.234s-47.097,0-111.584,0c-152.77,0-353.494,0-506.838,0
					C193.399,36.636,145.641,36.636,145.641,36.636z M871.577,567.795c0,0-44.624,0-106.156,0c-151.872,0-354.354,0-506.838,0
					c-62.232,0-107.515,0-107.515,0s0,2.017,0-33.597c0-137.214,0-260.225,0-412.328c0-45.954,0-77.093,0-77.093s45.282,0,107.515,0
					c152.482,0,354.964,0,506.838,0c61.532,0,106.156,0,106.156,0s0,31.139,0,77.093c0,152.104,0,273.114,0,410.328
					C871.577,567.812,871.577,567.795,871.577,567.795z"/>
			</g>
		</g>
	</g>
</g>
<g id="nyt_x5F_exporter_x5F_info" display="none">
</g>
</svg>
