<?xml version="1.0" encoding="utf-8"?>
<!-- Generator: Adobe Illustrator 16.0.0, SVG Export Plug-In . SVG Version: 6.00 Build 0)  -->
<!DOCTYPE svg PUBLIC "-//W3C//DTD SVG 1.1//EN" "http://www.w3.org/Graphics/SVG/1.1/DTD/svg11.dtd">
<svg version="1.1" id="Layer_1" xmlns="http://www.w3.org/2000/svg" xmlns:xlink="http://www.w3.org/1999/xlink" x="0px" y="0px"
	 width="110.5px" height="110.25px" viewBox="143.5 0 110.5 110.25" enable-background="new 143.5 0 110.5 110.25"
	 xml:space="preserve">
<symbol  id="Button_Small_Dark_Blue" viewBox="-40 -42 80 84">
	<g id="Button_Big_Facebook_2_">
		<g>
			<g>
				<g>
					<g opacity="0.2">
						<path d="M40-2c0-22.091-17.909-40-40-40S-40-24.091-40-2s17.909,40,40,40S40,20.091,40-2z"/>
					</g>
					<g>
						<path fill="#3257A0" d="M40,2c0-22.091-17.909-40-40-40S-40-20.091-40,2s17.909,40,40,40S40,24.091,40,2z"/>
					</g>
				</g>
				<path fill="#254880" d="M0.052-5.665c-13.161,0-24.835-6.358-32.125-16.168C-24.783-31.642-13.109-38,0.052-38
					c13.161,0,24.835,6.358,32.125,16.168C24.887-12.023,13.213-5.665,0.052-5.665z"/>
				<path fill="#9CC3F7" d="M0.052,42c-15.404,0-28.766-8.713-35.449-21.474C-28.714,7.764-15.352-0.948,0.052-0.948
					c15.404,0,28.766,8.713,35.449,21.475C28.818,33.287,15.456,42,0.052,42z"/>
				<path fill="#9CC3F7" d="M35.501,3.436c0-19.577-15.871-35.448-35.449-35.448c-19.578,0-35.449,15.871-35.449,35.448
					c0,19.578,15.871,35.449,35.449,35.449C19.63,38.885,35.501,23.014,35.501,3.436z"/>
				<path fill="#597FE3" d="M34.132,4.805c0-18.821-15.258-34.08-34.08-34.08c-16.989,0-31.075,12.433-33.657,28.695l6.838,2.37
					l-7.103-0.291c0,0-0.158,2.191-0.158,3.306c0,18.822,15.258,34.08,34.08,34.08c17.563,0,32.023-13.285,33.878-30.354
					l-7.164,0.247l7.354-3.071C34.128,5.406,34.132,5.106,34.132,4.805z"/>
				<path fill="#3257A0" d="M25.388,4.805c0-13.993-11.343-25.336-25.336-25.336c-13.993,0-25.336,11.343-25.336,25.336
					s11.343,25.336,25.336,25.336C14.045,30.141,25.388,18.798,25.388,4.805z"/>
				<path fill="#254880" d="M0.052,26.038c13.301,0,24.201-10.252,25.246-23.284c0.054,0.677,0.09,1.36,0.09,2.052
					c0,13.992-11.343,25.336-25.336,25.336c-13.993,0-25.336-11.344-25.336-25.337c0-0.69,0.035-1.374,0.09-2.052
					C-24.149,15.786-13.249,26.038,0.052,26.038z"/>
				<polygon fill="#254880" points="-39.948,0.702 -35.397,3.436 -26.766,1.791 -34.028,1.259 				"/>
				<polygon fill="#254880" points="39.948,7.688 35.397,10.421 26.766,8.776 34.028,8.245 				"/>
			</g>
		</g>
	</g>
	<polygon display="none" fill="none" points="-40,42 40,42 40,-42 -40,-42 	"/>
</symbol>
<symbol  id="Button_Small_Soft_Blue" viewBox="-40 -42 80 84">
	<g id="Button_Big_Soft_Blue_1_">
		<g>
			<g>
				<g>
					<g opacity="0.2">
						<path d="M40-2c0-22.091-17.909-40-40-40S-40-24.091-40-2s17.909,40,40,40S40,20.091,40-2z"/>
					</g>
					<g>
						<path fill="#3479A3" d="M40,2c0-22.091-17.909-40-40-40S-40-20.091-40,2s17.909,40,40,40S40,24.091,40,2z"/>
					</g>
				</g>
				<path fill="#276482" d="M0.052-5.665c-13.161,0-24.835-6.358-32.125-16.168C-24.783-31.642-13.109-38,0.052-38
					c13.161,0,24.835,6.358,32.125,16.168C24.887-12.023,13.213-5.665,0.052-5.665z"/>
				<path fill="#A1E2FC" d="M0.052,42c-15.404,0-28.766-8.713-35.449-21.474C-28.714,7.764-15.352-0.948,0.052-0.948
					c15.404,0,28.766,8.713,35.449,21.475C28.818,33.287,15.456,42,0.052,42z"/>
				<path fill="#A1E2FC" d="M35.501,3.436c0-19.577-15.871-35.448-35.449-35.448c-19.578,0-35.449,15.871-35.449,35.448
					c0,19.578,15.871,35.449,35.449,35.449C19.63,38.885,35.501,23.014,35.501,3.436z"/>
				<path fill="#5DAAE7" d="M34.132,4.805c0-18.821-15.258-34.08-34.08-34.08c-16.989,0-31.075,12.433-33.657,28.695l6.838,2.37
					l-7.103-0.291c0,0-0.158,2.191-0.158,3.306c0,18.822,15.258,34.08,34.08,34.08c17.563,0,32.023-13.285,33.878-30.354
					l-7.164,0.247l7.354-3.071C34.128,5.406,34.132,5.106,34.132,4.805z"/>
				<path fill="#3479A3" d="M25.388,4.805c0-13.993-11.343-25.336-25.336-25.336c-13.993,0-25.336,11.343-25.336,25.336
					s11.343,25.336,25.336,25.336C14.045,30.141,25.388,18.798,25.388,4.805z"/>
				<path fill="#276482" d="M0.052,26.038c13.301,0,24.201-10.252,25.246-23.284c0.054,0.677,0.09,1.36,0.09,2.052
					c0,13.992-11.343,25.336-25.336,25.336c-13.993,0-25.336-11.344-25.336-25.337c0-0.69,0.035-1.374,0.09-2.052
					C-24.149,15.786-13.249,26.038,0.052,26.038z"/>
				<polygon fill="#276482" points="-39.948,0.702 -35.397,3.436 -26.766,1.791 -34.028,1.259 				"/>
				<polygon fill="#276482" points="39.948,7.688 35.397,10.421 26.766,8.776 34.028,8.245 				"/>
			</g>
		</g>
	</g>
	<polygon display="none" fill="none" points="-40,42 40,42 40,-42 -40,-42 	"/>
</symbol>
<g id="btn_x5F_medium_x5F_default_x5F_dark_x5F_blue">
	
		<use xlink:href="#Button_Small_Dark_Blue"  width="80" height="84" id="XMLID_40_" x="-40" y="-42" transform="matrix(1.2975 0 0 -1.2975 198.1865 54.4963)" overflow="visible"/>
</g>
<g id="Layer_1_1_">
</g>
<g id="btn_x5F_medium_x5F_default_x5F_blue" display="none">
	
		<use xlink:href="#Button_Small_Soft_Blue"  width="80" height="84" x="-40" y="-42" transform="matrix(1.2975 0 0 -1.2975 198.1865 54.4963)" display="inline" overflow="visible"/>
</g>
<g id="Layer_1_2_">
</g>
</svg>
