<?xml version="1.0" encoding="utf-8"?>
<!-- Generator: Adobe Illustrator 16.0.0, SVG Export Plug-In . SVG Version: 6.00 Build 0)  -->
<!DOCTYPE svg PUBLIC "-//W3C//DTD SVG 1.1//EN" "http://www.w3.org/Graphics/SVG/1.1/DTD/svg11.dtd">
<svg version="1.1" id="Isolation_Mode" xmlns="http://www.w3.org/2000/svg" xmlns:xlink="http://www.w3.org/1999/xlink" x="0px"
	 y="0px" width="254.987px" height="341.535px" viewBox="382.597 184.101 254.987 341.535"
	 enable-background="new 382.597 184.101 254.987 341.535" xml:space="preserve">
<g>
	<g opacity="0.2">
		<path d="M440.185,221.76c62.316,40.668,120.24,87.75,179.322,132.863c12.474,9.343,12.612,26.131,0.222,35.484
			c-59.327,45.498-117.636,92.826-180.924,132.834c-15.018,9.192-39.228-6.672-40.626-24.456
			c-4.71-84.983-4.08-167.514,1.884-252.42C401.725,228.27,425.581,212.514,440.185,221.76z"/>
	</g>
	<g>
		<path fill="#FFFFFF" d="M440.185,197.76c62.316,40.668,120.24,87.75,179.322,132.863c12.474,9.343,12.612,26.131,0.222,35.484
			c-59.327,45.498-117.636,92.826-180.924,132.834c-15.018,9.192-39.228-6.672-40.626-24.456
			c-4.71-84.983-4.08-167.514,1.884-252.42C401.725,204.27,425.581,188.514,440.185,197.76z"/>
	</g>
</g>
</svg>
