<?xml version="1.0" encoding="utf-8"?>
<!-- Generator: Adobe Illustrator 16.0.0, SVG Export Plug-In . SVG Version: 6.00 Build 0)  -->
<!DOCTYPE svg PUBLIC "-//W3C//DTD SVG 1.1//EN" "http://www.w3.org/Graphics/SVG/1.1/DTD/svg11.dtd">
<svg version="1.1" id="Isolation_Mode" xmlns="http://www.w3.org/2000/svg" xmlns:xlink="http://www.w3.org/1999/xlink" x="0px"
	 y="0px" width="36px" height="49px" viewBox="552.5 421.5 36 49" enable-background="new 552.5 421.5 36 49" xml:space="preserve">
<g>
	<g opacity="0.2">
		<path d="M576.529,438.516c-5.523,3.604-10.656,7.777-15.893,11.775c-1.107,0.829-1.118,2.316-0.02,3.146
			c5.258,4.033,10.426,8.228,16.036,11.774c1.332,0.816,3.478-0.591,3.602-2.168c0.417-7.532,0.361-14.85-0.167-22.375
			C579.938,439.094,577.825,437.696,576.529,438.516z"/>
	</g>
	<g>
		<path fill="#FFFFFF" d="M576.529,432.093c-5.523,3.604-10.656,7.777-15.893,11.776c-1.107,0.828-1.118,2.316-0.02,3.145
			c5.258,4.033,10.426,8.228,16.036,11.775c1.332,0.814,3.478-0.592,3.602-2.17c0.417-7.531,0.361-14.848-0.167-22.373
			C579.938,432.67,577.825,431.273,576.529,432.093z"/>
	</g>
</g>
</svg>
