<?xml version="1.0" encoding="utf-8"?>
<!-- Generator: Adobe Illustrator 19.2.0, SVG Export Plug-In . SVG Version: 6.00 Build 0)  -->
<svg version="1.1" id="Isolation_Mode" xmlns="http://www.w3.org/2000/svg" xmlns:xlink="http://www.w3.org/1999/xlink" x="0px"
	 y="0px" viewBox="0 0 47.8 57.7" style="enable-background:new 0 0 47.8 57.7;" xml:space="preserve">
<style type="text/css">
	.st0{opacity:0.2;}
	.st1{fill:#FFFFFF;}
	.st2{fill:#3479A3;}
</style>
<g>
	<g class="st0">
		<path d="M27.4,5.3L12.8,20.6H3.3c-1.9,0-3.4,1.7-3.3,3.7l0.6,17.1c0.1,1.9,1.6,3.4,3.4,3.4l9.5-0.1L30,57c2.6,2,6.3-0.2,6.1-3.6
			L34,8C33.8,4.5,29.7,2.8,27.4,5.3z M43.1,20.1c-1.2-1.2-3.2-0.9-4.1,0.6l-0.8,1.4c-0.6,1.1-0.4,2.4,0.5,3.3
			c1.5,1.5,2.3,3.5,2.3,5.6c0,1.7-0.5,3.3-1.5,4.6c-0.7,1-0.8,2.3,0,3.3l1,1.2c1.1,1.3,3.1,1.3,4.1,0c2.1-2.6,3.2-5.8,3.2-9.1
			C47.8,26.8,46.1,22.9,43.1,20.1z"/>
	</g>
	<g>
		<path class="st1" d="M27.4,1.2L12.8,16.5H3.3c-1.9,0-3.4,1.7-3.3,3.7l0.6,17.1c0.1,1.9,1.6,3.4,3.4,3.4l9.5-0.1L30,52.9
			c2.6,2,6.3-0.2,6.1-3.6L34,3.9C33.8,0.4,29.7-1.3,27.4,1.2z M43.1,16c-1.2-1.2-3.2-0.9-4.1,0.6L38.2,18c-0.6,1.1-0.4,2.4,0.5,3.3
			c1.5,1.5,2.3,3.5,2.3,5.6c0,1.7-0.5,3.3-1.5,4.6c-0.7,1-0.8,2.3,0,3.3l1,1.2c1.1,1.3,3.1,1.3,4.1,0c2.1-2.6,3.2-5.8,3.2-9.1
			C47.8,22.7,46.1,18.7,43.1,16z"/>
	</g>
</g>
<rect x="-7.5" y="23.7" transform="matrix(0.5251 -0.851 0.851 0.5251 -10.6181 32.6202)" class="st2" width="62.7" height="4.3"/>
<rect x="-4.5" y="25.7" transform="matrix(0.5252 -0.851 0.851 0.5252 -10.9048 36.1022)" class="st1" width="62.8" height="4.3"/>
</svg>
