<?xml version="1.0" encoding="utf-8"?>
<!-- Generator: Adobe Illustrator 21.0.0, SVG Export Plug-In . SVG Version: 6.00 Build 0)  -->
<svg version="1.1" id="Layer_1" xmlns="http://www.w3.org/2000/svg" xmlns:xlink="http://www.w3.org/1999/xlink" x="0px" y="0px"
	 viewBox="0 0 47.4 61.7" style="enable-background:new 0 0 47.4 61.7;" xml:space="preserve">
<style type="text/css">
	.st0{opacity:0.1;}
	.st1{fill:#474747;}
	.st2{fill:#FFB600;}
	.st3{opacity:5.000000e-02;}
	.st4{clip-path:url(#SVGID_2_);}
	.st5{opacity:0.2;}
	.st6{clip-path:url(#SVGID_4_);fill:#828282;}
	.st7{clip-path:url(#SVGID_6_);fill:none;stroke:#B7B7B7;stroke-width:1.9636;stroke-miterlimit:10;}
	.st8{clip-path:url(#SVGID_8_);fill:#828282;}
	.st9{fill:#FFFFFF;stroke:#D6D6D6;stroke-width:0.5;stroke-miterlimit:10;}
	.st10{fill:#EBEBEB;}
	.st11{fill:#FF9B17;}
</style>
<g>
	<g class="st0">
		<path class="st1" d="M16.4,38.8H6.1C2.7,38.8,0,36,0,32.6V22.2c0-3.4,2.7-6.1,6.1-6.1h10.3c3.4,0,6.1,2.7,6.1,6.1v10.3
			C22.7,36,19.9,38.8,16.4,38.8z"/>
	</g>
	<g>
		<path class="st2" d="M25,31.8H14.7c-3.4,0-6.1-2.7-6.1-6.1V15.3c0-3.4,2.7-6.1,6.1-6.1H25c3.4,0,6.1,2.7,6.1,6.1v10.3
			C31.3,29.1,28.5,31.8,25,31.8z"/>
	</g>
	<g>
		<rect x="11.8" y="42.3" transform="matrix(0.7072 -0.707 0.707 0.7072 -25.268 24.9994)" class="st2" width="11.6" height="1.4"/>
	</g>
	<g>
		
			<rect x="17.7" y="43.5" transform="matrix(0.7071 -0.7071 0.7071 0.7071 -24.9008 28.2993)" class="st2" width="8.1" height="1.4"/>
	</g>
	<g class="st3">
		<g>
			<g>
				<g>
					<g>
						<defs>
							<rect id="SVGID_1_" x="10" y="14.7" width="21.3" height="16.7"/>
						</defs>
						<clipPath id="SVGID_2_">
							<use xlink:href="#SVGID_1_"  style="overflow:visible;"/>
						</clipPath>
						<path class="st4" d="M10,26.2v5.2h15.5c3.2,0,5.8-2.6,5.8-5.8v-11C25.6,20.3,17.8,23.9,10,26.2"/>
					</g>
				</g>
			</g>
		</g>
	</g>
	<g>
		<g class="st5">
			<g>
				<g>
					<g>
						<g>
							<defs>
								
									<rect id="SVGID_3_" x="25.8" y="30.4" transform="matrix(0.9999 -1.354902e-02 1.354902e-02 0.9999 -0.62 0.4829)" width="19" height="31.1"/>
							</defs>
							<clipPath id="SVGID_4_">
								<use xlink:href="#SVGID_3_"  style="overflow:visible;"/>
							</clipPath>
							<path class="st6" d="M26.2,54.5V31.3l18,14.4c0.4,0.3,0.3,1-0.3,1.2l-6.8,0.9c-0.4,0-0.7,0.6-0.4,0.9L41.9,59
								c0.1,0.3,0,0.7-0.3,0.9L39,61.2c-0.3,0.1-0.7,0-0.9-0.3l-5-10.3c-0.1-0.4-0.7-0.4-1-0.1L27.6,55C27,55.3,26.2,55.1,26.2,54.5
								"/>
						</g>
					</g>
				</g>
				<g>
					<g>
						<g>
							<defs>
								
									<rect id="SVGID_5_" x="25.8" y="30.4" transform="matrix(0.9999 -1.354902e-02 1.354902e-02 0.9999 -0.62 0.4829)" width="19" height="31.1"/>
							</defs>
							<clipPath id="SVGID_6_">
								<use xlink:href="#SVGID_5_"  style="overflow:visible;"/>
							</clipPath>
							<path class="st7" d="M26.2,54.5V31.3l18,14.4c0.4,0.3,0.3,1-0.3,1.2l-6.8,0.9c-0.4,0-0.7,0.6-0.4,0.9L41.9,59
								c0.1,0.3,0,0.7-0.3,0.9L39,61.2c-0.3,0.1-0.7,0-0.9-0.3l-5-10.3c-0.1-0.4-0.7-0.4-1-0.1L27.6,55C27,55.3,26.2,55.1,26.2,54.5
								z"/>
						</g>
					</g>
				</g>
				<g>
					<g>
						<g>
							<defs>
								
									<rect id="SVGID_7_" x="25.8" y="30.4" transform="matrix(0.9999 -1.354902e-02 1.354902e-02 0.9999 -0.62 0.4829)" width="19" height="31.1"/>
							</defs>
							<clipPath id="SVGID_8_">
								<use xlink:href="#SVGID_7_"  style="overflow:visible;"/>
							</clipPath>
							<path class="st8" d="M44.1,45.8l-18-14.4l13.7,29.2l1.3-0.7c0.3-0.1,0.4-0.6,0.3-0.9l-5.1-10.3c-0.1-0.4,0-0.9,0.4-0.9
								l6.8-0.9C44.2,46.7,44.5,46,44.1,45.8"/>
						</g>
					</g>
				</g>
			</g>
		</g>
		<path class="st9" d="M27,46.7V23.5l18,14.4c0.4,0.3,0.3,1-0.3,1.2L37.9,40c-0.4,0-0.7,0.6-0.4,0.9l5.1,10.3c0.1,0.3,0,0.7-0.3,0.9
			l-2.6,1.3c-0.3,0.1-0.7,0-0.9-0.3l-5-10.3c-0.1-0.4-0.7-0.4-1-0.1l-4.4,4.5C27.7,47.6,27,47.3,27,46.7"/>
		<path class="st10" d="M44.8,37.9l-18-14.4l13.7,29.2l1.3-0.7c0.3-0.1,0.4-0.6,0.3-0.9L37,40.8c-0.1-0.4,0-0.9,0.4-0.9l6.8-0.9
			C45,39,45.3,38.3,44.8,37.9"/>
		<path class="st11" d="M45.9,8.3c-2,0-3.6,1.7-3.6,3.7c0-2-1.7-3.6-3.7-3.6V8.3c2,0,3.6-1.7,3.6-3.7C42.2,6.7,43.8,8.3,45.9,8.3
			L45.9,8.3z"/>
		<path class="st11" d="M15.8,3c-1.6,0-3,1.4-3,3c0-1.6-1.4-3-3-3l0,0c1.6,0,3-1.4,3-3C12.8,1.6,14.1,3,15.8,3L15.8,3z"/>
		<path class="st11" d="M9.8,43.2c-1.4,0-2.7,1.2-2.7,2.7c0-1.4-1.2-2.7-2.7-2.7l0,0c1.4,0,2.7-1.2,2.7-2.7
			C7.2,42,8.3,43.2,9.8,43.2L9.8,43.2z"/>
		<path class="st11" d="M47.4,25.8c-1.1,0-2,1-2,2.1c0-1.1-1-2-2.1-2l0,0c1.1,0,2-1,2-2.1C45.4,25,46.3,25.8,47.4,25.8L47.4,25.8z"
			/>
	</g>
</g>
</svg>
