<?xml version="1.0" encoding="utf-8"?>
<!-- Generator: Adobe Illustrator 19.2.0, SVG Export Plug-In . SVG Version: 6.00 Build 0)  -->
<svg version="1.1" id="Layer_1" xmlns="http://www.w3.org/2000/svg" xmlns:xlink="http://www.w3.org/1999/xlink" x="0px" y="0px"
	 viewBox="0 0 42.3 13.9" style="enable-background:new 0 0 42.3 13.9;" xml:space="preserve">
<style type="text/css">
	.st0{fill:#606060;}
</style>
<g>
	<path class="st0" d="M2,1.6L1.4,2.3C1.3,2.3,1.2,2.4,1.2,2.4c0,0-0.1,0-0.1,0S1,2.3,1,2.3L0.2,1.5C0.1,1.4,0,1.4,0,1.3
		c0-0.1,0-0.1,0.1-0.2L1,0.2c0.1,0,0.1-0.1,0.2-0.1c0.1,0,0.2,0.1,0.3,0.2L2,0.9c0.1,0.1,0.1,0.1,0.1,0.1c0,0,0.1,0,0.2-0.1l0.6-0.6
		c0.1,0,0.1-0.1,0.2-0.1c0.1,0,0.2,0,0.2,0.1l0.8,0.8c0,0,0,0.1,0,0.1c0,0,0,0.1,0,0.1c0,0.1-0.1,0.2-0.2,0.2L3.4,2.3
		c-0.1,0-0.1,0.1-0.2,0.1c-0.1,0-0.2,0-0.2-0.1L2.3,1.7C2.3,1.6,2.2,1.5,2.2,1.5C2.1,1.5,2.1,1.6,2,1.6z M3.9,4.7L3.7,4.1l1.3-1.8
		c0.1,0.4,0.2,1,0.4,1.8c0,0.2,0.2,0.8,0.4,1.9C5.8,6.7,5.9,7.2,6,7.5C6.1,7.8,6.2,8,6.3,8.1c0.1,0.1,0.2,0.1,0.4,0.1
		c0.1,0,0.1,0,0.2,0s0.1,0,0.2,0h0.1h0.5v2.1H6.2c-0.4,0-0.7-0.1-0.9-0.3C5.2,9.9,5,9.6,4.9,9.3c0-0.1-0.1-0.4-0.2-1
		C4.6,8.3,4.4,8.5,4.2,8.8C4,9.2,3.8,9.5,3.8,9.5C3.6,9.8,3.4,9.9,3.2,9.9c-0.1,0-0.1,0-0.2,0C2.7,9.8,2.5,9.7,2.2,9.7
		c-0.8-0.2-1.5-0.3-2-0.3l0-0.3c0-0.7,0.1-1.2,0.2-1.7c0.1-0.4,0.3-0.7,0.5-0.8c0.2-0.3,0.6-0.7,1.2-1.1C2.7,5.1,3.3,4.8,3.9,4.7z
		 M4,5.7c-0.1,0-0.2,0.1-0.4,0.2c0,0-0.2,0.2-0.5,0.7C2.9,6.7,2.6,6.8,2.3,6.9C2,7,1.8,7.1,1.7,7.4c0.2,0.1,0.6,0.2,1,0.3
		c0.4,0.1,0.8,0.1,1.2,0.1c0.1,0,0.3,0,0.4,0c0.1,0,0.2,0,0.3-0.1C4.5,7.5,4.4,7.1,4.2,6.5C4.2,6.2,4.1,6,4,5.7z"/>
	<path class="st0" d="M12.8,8.1c-0.3,0.2-0.6,0.5-1,0.9c-0.5,0.5-0.8,0.8-0.9,0.9c-0.4,0.3-0.7,0.4-1,0.4H6.6V8.2h2.9
		c0.6,0,1.2-0.2,1.9-0.5c0.4-0.2,0.7-0.3,0.8-0.4c-0.5-0.3-1-0.5-1.6-0.7c-0.5-0.2-0.9-0.3-1.2-0.3c-0.4,0-0.7,0.1-1,0.2
		C8.2,6.7,8,6.9,7.7,7.1c0.1-0.4,0.2-0.7,0.3-1C8.2,5.7,8.4,5.3,8.6,5c0.3-0.4,0.7-0.6,1.1-0.7c0.2,0,0.3,0,0.5,0
		c0.4,0,0.9,0.1,1.5,0.3c0.5,0.2,1.1,0.4,1.7,0.7c0.5,0.2,1,0.3,1.7,0.4c0.5,0.1,1.1,0.1,1.7,0.1c-0.1,0.3-0.3,0.6-0.5,1
		c-0.2,0.4-0.3,0.7-0.4,0.9c-0.3-0.1-0.6-0.2-0.9-0.2c-0.3,0-0.5,0-0.8,0.1c-0.2,0-0.5,0.1-0.9,0.2c0,0.1,0.1,0.2,0.2,0.3
		c0.1,0.1,0.1,0.1,0.2,0.1h3.4v2.1h-3.5c-0.2,0-0.4-0.2-0.6-0.7c-0.1-0.4-0.2-0.8-0.2-1.3c0-0.1,0-0.1,0-0.2
		C12.8,8.2,12.8,8.1,12.8,8.1z M10.7,12.5c0.1,0.1,0.1,0.1,0.1,0.2c0,0.1-0.1,0.2-0.2,0.2l-0.9,0.8c0,0-0.1,0.1-0.2,0.1
		c-0.1,0-0.1,0-0.1,0c0,0-0.1,0-0.1-0.1l-0.8-0.8c-0.1-0.1-0.2-0.2-0.2-0.2c0,0,0-0.1,0-0.1s0-0.1,0.1-0.1l0.9-0.8
		c0.1-0.1,0.2-0.1,0.3-0.1c0.1,0,0.1,0,0.2,0L10.7,12.5z"/>
	<path class="st0" d="M20.4,6.2l1.5-1.8C21.9,4.6,22,4.8,22,5c0,0.2,0,0.5,0,0.7c0,0.4,0,0.8-0.1,1.1c0,0.4-0.1,0.7-0.2,1v0
		c0,0.1,0.1,0.2,0.3,0.2c0.2,0.1,0.4,0.1,0.7,0.1h0.4v2.1h-1.1c-0.5,0-0.8-0.1-1.1-0.3c-0.1-0.1-0.2-0.4-0.3-0.7
		c-0.1,0.3-0.2,0.5-0.4,0.7c-0.2,0.2-0.4,0.3-0.7,0.3h-3.3V8.2H20c0.1,0,0.2-0.1,0.4-0.4c0.1-0.3,0.2-0.6,0.2-0.9c0-0.1,0-0.3,0-0.4
		C20.5,6.5,20.5,6.3,20.4,6.2z M19.1,13.1l-0.7,0.7c-0.1,0.1-0.1,0.1-0.2,0.1c0,0-0.1,0-0.1,0s-0.1,0-0.1-0.1L17.1,13
		C17,12.9,17,12.8,17,12.7c0-0.1,0-0.1,0.1-0.2l0.9-0.9c0.1,0,0.1,0,0.2,0c0.1,0,0.2,0,0.3,0.1l0.6,0.6c0.1,0.1,0.1,0.1,0.1,0.1
		c0,0,0.1,0,0.2-0.1l0.7-0.7c0,0,0.1,0,0.1,0s0.1,0,0.1,0c0.1,0,0.2,0,0.3,0.1l0.9,0.8c0.1,0.1,0.1,0.2,0.1,0.2
		c0,0.1-0.1,0.1-0.2,0.2l-0.9,0.8c0,0-0.1,0.1-0.2,0.1s-0.2,0-0.2-0.1l-0.6-0.7C19.3,13,19.3,13,19.2,13C19.2,13,19.2,13,19.1,13.1z
		"/>
	<path class="st0" d="M26.7,6.2l1.5-1.8c0,0.2,0.1,0.4,0.1,0.6c0,0.2,0,0.5,0,0.7c0,0.4,0,0.8-0.1,1.1c0,0.4-0.1,0.7-0.2,1v0
		c0,0.1,0.1,0.2,0.3,0.2c0.2,0.1,0.4,0.1,0.7,0.1h0.4v2.1h-1.1c-0.5,0-0.8-0.1-1.1-0.3c-0.1-0.1-0.2-0.4-0.3-0.7
		c-0.1,0.3-0.2,0.5-0.4,0.7c-0.2,0.2-0.4,0.3-0.7,0.3h-3.3V8.2h3.6c0.1,0,0.2-0.1,0.4-0.4c0.1-0.3,0.2-0.6,0.2-0.9
		c0-0.1,0-0.3,0-0.4C26.8,6.5,26.8,6.3,26.7,6.2z M26,2.6l-0.7,0.7c-0.1,0.1-0.1,0.1-0.2,0.1c0,0-0.1,0-0.1,0s-0.1,0-0.1-0.1
		l-0.9-0.9c-0.1,0-0.1-0.1-0.1-0.1c0,0,0-0.1,0-0.1c0-0.1,0-0.1,0.1-0.2l1-0.9C24.9,1,25,1,25.1,1c0.1,0,0.2,0.1,0.3,0.2L26,1.8
		c0.1,0.1,0.1,0.1,0.2,0.1c0,0,0.1,0,0.1,0s0.1-0.1,0.1-0.1L27,1.1c0,0,0.1,0,0.1-0.1c0,0,0.1,0,0.1,0c0.1,0,0.2,0.1,0.3,0.2L28.5,2
		c0.1,0.1,0.1,0.2,0.1,0.2c0,0.1-0.1,0.2-0.2,0.2l-0.9,0.9c-0.1,0.1-0.1,0.1-0.2,0.1c-0.1,0-0.2,0-0.2-0.1l-0.7-0.7
		c-0.1-0.1-0.2-0.1-0.2-0.1C26.1,2.5,26.1,2.6,26,2.6z"/>
	<path class="st0" d="M33,6.2l1.5-1.8c0,0.2,0.1,0.4,0.1,0.6c0,0.2,0,0.5,0,0.7c0,0.4,0,0.8-0.1,1.1c0,0.4-0.1,0.7-0.2,1v0
		c0,0.1,0.1,0.2,0.3,0.2c0.2,0.1,0.4,0.1,0.7,0.1h0.4v2.1h-1.1c-0.5,0-0.8-0.1-1.1-0.3c-0.1-0.1-0.2-0.4-0.3-0.7
		c-0.1,0.3-0.2,0.5-0.4,0.7c-0.2,0.2-0.4,0.3-0.7,0.3H29V8.2h3.6c0.1,0,0.2-0.1,0.4-0.4c0.1-0.3,0.2-0.6,0.2-0.9c0-0.1,0-0.3,0-0.4
		C33.1,6.5,33,6.3,33,6.2z M33.6,2.2c0.1,0.1,0.1,0.1,0.1,0.2c0,0.1-0.1,0.2-0.2,0.2l-0.8,0.8c-0.1,0-0.1,0.1-0.2,0.1
		c-0.1,0-0.1,0-0.2-0.1l-0.8-0.8c-0.1-0.1-0.2-0.1-0.2-0.2c0,0,0,0,0-0.1c0,0,0-0.1,0.1-0.1l0.9-0.8c0,0,0.1-0.1,0.1-0.1
		c0.1,0,0.1,0,0.2,0c0,0,0.1,0,0.1,0c0,0,0.1,0,0.1,0L33.6,2.2z"/>
	<path class="st0" d="M37.8,8.3c0-0.3-0.1-1-0.2-2c-0.1-0.8-0.3-1.7-0.4-2.5c-0.2-0.9-0.3-1.3-0.3-1.4c-0.1-0.1-0.1-0.2-0.1-0.3
		c0-0.1,0-0.1-0.1-0.2c0.3-0.4,0.5-0.7,0.6-0.9c0.3-0.4,0.5-0.7,0.6-0.9c0.1,0.5,0.4,1,0.7,1.4c0.3,0.4,0.5,0.6,0.8,0.8
		c-0.2,0.2-0.3,0.4-0.4,0.5c-0.1,0.1-0.2,0.2-0.3,0.4v0.1c0,0.2,0,0.6,0.1,1.3c0,0,0.1,0.7,0.2,1.9C38.9,6.9,39,7.3,39,7.5
		c0,0.3-0.1,0.8-0.2,1.5c-0.1,0.2-0.2,0.6-0.3,1.1c0,0.1-0.1,0.2-0.3,0.3c-0.1,0.1-0.3,0.1-0.4,0.1h-0.1h-2.6V8.3H37.8z"/>
	<path class="st0" d="M41.8,1c0,0.5,0,1.3,0.1,2.3c0.1,1,0.2,1.9,0.3,2.9s0.1,1.7,0.1,2.1c-0.1,0.6-0.3,1.1-0.5,1.5
		c-0.1,0.1-0.3,0.4-0.6,0.8l-0.9-7.8L41.8,1z"/>
</g>
</svg>
