<?xml version="1.0" encoding="utf-8"?>
<!-- Generator: Adobe Illustrator 16.0.0, SVG Export Plug-In . SVG Version: 6.00 Build 0)  -->
<!DOCTYPE svg PUBLIC "-//W3C//DTD SVG 1.1//EN" "http://www.w3.org/Graphics/SVG/1.1/DTD/svg11.dtd">
<svg version="1.1" id="Capa_1" xmlns="http://www.w3.org/2000/svg" xmlns:xlink="http://www.w3.org/1999/xlink" x="0px" y="0px"
	 width="512px" height="512px" viewBox="0 0 512 512" enable-background="new 0 0 512 512" xml:space="preserve">
<path fill="#FFFFFF" d="M256,12.8C114.842,12.8,0,116.156,0,243.2c0,44.407,14.046,87.424,40.687,124.62
	c-5.043,55.783-18.56,97.195-38.187,116.813c-2.594,2.594-3.242,6.562-1.604,9.839c1.451,2.927,4.438,4.728,7.638,4.728
	c0.393,0,0.785-0.025,1.186-0.086c3.456-0.486,83.738-12.04,141.808-45.559C184.499,466.858,219.622,473.6,256,473.6
	c141.158,0,256-103.355,256-230.399C512,116.156,397.158,12.8,256,12.8z M136.533,277.334c-18.824,0-34.134-15.31-34.134-34.134
	c0-18.825,15.31-34.133,34.134-34.133s34.133,15.309,34.133,34.133C170.666,262.024,155.358,277.334,136.533,277.334z M256,277.334
	c-18.825,0-34.134-15.31-34.134-34.134c0-18.825,15.309-34.133,34.134-34.133c18.824,0,34.133,15.309,34.133,34.133
	C290.133,262.024,274.824,277.334,256,277.334z M375.466,277.334c-18.824,0-34.133-15.31-34.133-34.134
	c0-18.825,15.309-34.133,34.133-34.133c18.825,0,34.134,15.309,34.134,34.133C409.6,262.024,394.291,277.334,375.466,277.334z"/>
</svg>
