<?xml version="1.0" encoding="utf-8"?>
<!-- Generator: Adobe Illustrator 21.0.0, SVG Export Plug-In . SVG Version: 6.00 Build 0)  -->
<svg version="1.1" id="Layer_1" xmlns="http://www.w3.org/2000/svg" xmlns:xlink="http://www.w3.org/1999/xlink" x="0px" y="0px"
	 viewBox="0 0 58.9 58.9" style="enable-background:new 0 0 58.9 58.9;" xml:space="preserve">
<style type="text/css">
	.st0{fill:url(#SVGID_1_);}
	.st1{fill:#FFFFFF;}
</style>
<g>
	
		<linearGradient id="SVGID_1_" gradientUnits="userSpaceOnUse" x1="-152.5695" y1="500.2874" x2="-152.5695" y2="557.7149" gradientTransform="matrix(1 0 0 1 182.0195 -499.3477)">
		<stop  offset="0" style="stop-color:#7BBF40"/>
		<stop  offset="1" style="stop-color:#47A537"/>
	</linearGradient>
	<path class="st0" d="M58.9,50c0,4.9-4,8.8-8.8,8.8H8.8C4,58.9,0,54.9,0,50V8.8C0,4,4,0,8.8,0H50c4.9,0,8.8,4,8.8,8.8V50H58.9z"/>
</g>
<path class="st1" d="M43.4,10.6c0,0.9-0.7,1.6-1.6,1.6c-2.6,0-4.7,2.1-4.7,4.7v24.4c0,2.6,2.1,4.7,4.7,4.7c0.9,0,1.6,0.7,1.6,1.6
	S42.7,49,41.8,49c-2.6,0-4.8-1.2-6.3-3.1c-1.4,1.9-3.7,3.1-6.3,3.1c-0.9,0-1.6-0.7-1.6-1.6s0.7-1.6,1.6-1.6c2.6,0,4.7-2.1,4.7-4.7
	V16.8c0-2.6-2.1-4.7-4.7-4.7c-0.9,0-1.6-0.7-1.6-1.6c0-0.9,0.7-1.6,1.6-1.6c2.6,0,4.8,1.2,6.3,3.1C37,10.2,39.2,9,41.8,9
	C42.7,9,43.4,9.7,43.4,10.6z M47.9,36.6c-0.9,0-1.6,0.7-1.6,1.6l0,0c0,0.9,0.7,1.6,1.6,1.6s1.6-0.7,1.6-1.6l0,0
	C49.5,37.3,48.8,36.6,47.9,36.6z M11,36.6c-0.9,0-1.6,0.7-1.6,1.6l0,0c0,0.9,0.7,1.6,1.6,1.6s1.6-0.7,1.6-1.6l0,0
	C12.6,37.3,11.9,36.6,11,36.6z M29.5,21.3c0.9,0,1.6-0.7,1.6-1.6l0,0c0-0.9-0.7-1.6-1.6-1.6s-1.6,0.7-1.6,1.6l0,0
	C27.9,20.6,28.6,21.3,29.5,21.3z M43.3,19.8c0-0.9-0.7-1.6-1.6-1.6s-1.6,0.7-1.6,1.6l0,0c0,0.9,0.7,1.6,1.6,1.6S43.3,20.6,43.3,19.8
	L43.3,19.8z M47.9,18.2c-0.9,0-1.6,0.7-1.6,1.6l0,0c0,0.9,0.7,1.6,1.6,1.6s1.6-0.7,1.6-1.6l0,0C49.5,18.9,48.8,18.2,47.9,18.2z
	 M17.1,18.2c-0.9,0-1.6,0.7-1.6,1.6l0,0c0,0.9,0.7,1.6,1.6,1.6s1.6-0.7,1.6-1.6l0,0C18.7,18.9,18,18.2,17.1,18.2z M11,18.2
	c-0.9,0-1.6,0.7-1.6,1.6l0,0c0,0.9,0.7,1.6,1.6,1.6s1.6-0.7,1.6-1.6l0,0C12.6,18.9,11.9,18.2,11,18.2z M23.4,18.2
	c-0.9,0-1.6,0.7-1.6,1.6l0,0c0,0.9,0.7,1.6,1.6,1.6s1.6-0.7,1.6-1.6l0,0C24.9,18.9,24.2,18.2,23.4,18.2z M27.9,38.2
	c0,0.9,0.7,1.6,1.6,1.6c0.9,0,1.6-0.7,1.6-1.6l0,0c0-0.9-0.7-1.6-1.6-1.6S27.9,37.3,27.9,38.2L27.9,38.2z M41.7,36.6
	c-0.9,0-1.6,0.7-1.6,1.6l0,0c0,0.9,0.7,1.6,1.6,1.6s1.6-0.7,1.6-1.6l0,0C43.3,37.3,42.6,36.6,41.7,36.6z M17.1,36.6
	c-0.9,0-1.6,0.7-1.6,1.6l0,0c0,0.9,0.7,1.6,1.6,1.6s1.6-0.7,1.6-1.6l0,0C18.7,37.3,18,36.6,17.1,36.6z M23.4,36.6
	c-0.9,0-1.6,0.7-1.6,1.6l0,0c0,0.9,0.7,1.6,1.6,1.6s1.6-0.7,1.6-1.6l0,0C24.9,37.3,24.2,36.6,23.4,36.6z M47.9,30.6
	c-0.9,0-1.6,0.7-1.6,1.6l0,0c0,0.9,0.7,1.6,1.6,1.6s1.6-0.7,1.6-1.6l0,0C49.5,31.3,48.8,30.6,47.9,30.6z M47.9,24.5
	c-0.9,0-1.6,0.7-1.6,1.6l0,0c0,0.9,0.7,1.6,1.6,1.6s1.6-0.7,1.6-1.6l0,0C49.5,25.2,48.8,24.5,47.9,24.5z M11,30.6
	c-0.9,0-1.6,0.7-1.6,1.6l0,0c0,0.9,0.7,1.6,1.6,1.6s1.6-0.7,1.6-1.6l0,0C12.6,31.3,11.9,30.6,11,30.6z M11,24.5
	c-0.9,0-1.6,0.7-1.6,1.6l0,0c0,0.9,0.7,1.6,1.6,1.6s1.6-0.7,1.6-1.6l0,0C12.6,25.2,11.9,24.5,11,24.5z"/>
</svg>
