<?xml version="1.0" encoding="utf-8"?>
<!-- Generator: Adobe Illustrator 21.0.0, SVG Export Plug-In . SVG Version: 6.00 Build 0)  -->
<svg version="1.1" id="Layer_1" xmlns="http://www.w3.org/2000/svg" xmlns:xlink="http://www.w3.org/1999/xlink" x="0px" y="0px"
	 viewBox="0 0 58.9 58.9" style="enable-background:new 0 0 58.9 58.9;" xml:space="preserve">
<style type="text/css">
	.st0{fill:url(#SVGID_1_);}
	.st1{fill:#FFFFFF;}
</style>
<g>
	
		<linearGradient id="SVGID_1_" gradientUnits="userSpaceOnUse" x1="-152.5695" y1="518.2874" x2="-152.5695" y2="575.7149" gradientTransform="matrix(1 0 0 1 182.0195 -517.3477)">
		<stop  offset="0" style="stop-color:#7BBF40"/>
		<stop  offset="1" style="stop-color:#47A537"/>
	</linearGradient>
	<path class="st0" d="M58.9,50c0,4.9-4,8.8-8.8,8.8H8.8C4,58.9,0,54.9,0,50V8.8C0,4,4,0,8.8,0H50c4.9,0,8.8,4,8.8,8.8V50H58.9z"/>
</g>
<g>
	<path class="st1" d="M9.7,10.3h6.9v6.9H9.7V10.3z"/>
	<path class="st1" d="M42.7,10.3h6.9v6.9h-6.9V10.3z"/>
	<path class="st1" d="M12,12.6h2.3v2.3H12V12.6z"/>
	<path class="st1" d="M45,12.6h2.3v2.3H45V12.6z"/>
	<g>
		<g>
			<path class="st1" d="M12.4,26.1c-0.3,0-0.6,0.3-0.6,0.6V28c0,0.3,0.3,0.6,0.6,0.6S13,28.3,13,28v-1.3
				C13,26.4,12.7,26.1,12.4,26.1z"/>
		</g>
	</g>
	<g>
		<g>
			<path class="st1" d="M12.4,22c-0.3,0-0.6,0.3-0.6,0.6V24c0,0.3,0.3,0.6,0.6,0.6S13,24.3,13,24v-1.3C13,22.3,12.7,22,12.4,22z"/>
		</g>
	</g>
	<g>
		<g>
			<path class="st1" d="M12.4,30.1c-0.3,0-0.6,0.3-0.6,0.6V32c0,0.3,0.3,0.6,0.6,0.6S13,32.3,13,32v-1.3
				C13,30.4,12.7,30.1,12.4,30.1z"/>
		</g>
	</g>
	<g>
		<g>
			<path class="st1" d="M12.4,18c-0.3,0-0.6,0.3-0.6,0.6V20c0,0.3,0.3,0.6,0.6,0.6S13,20.3,13,20v-1.3C13,18.3,12.7,18,12.4,18z"/>
		</g>
	</g>
	<g>
		<g>
			<path class="st1" d="M12.4,34.1c-0.3,0-0.6,0.3-0.6,0.6V36c0,0.3,0.3,0.6,0.6,0.6S13,36.3,13,36v-1.3
				C13,34.4,12.7,34.1,12.4,34.1z"/>
		</g>
	</g>
	<g>
		<g>
			<path class="st1" d="M12.4,38.2c-0.3,0-0.6,0.3-0.6,0.6v1.3c0,0.3,0.3,0.6,0.6,0.6s0.6-0.3,0.6-0.6v-1.3
				C13,38.5,12.7,38.2,12.4,38.2z"/>
		</g>
	</g>
	<g>
		<g>
			<path class="st1" d="M47.3,26.1c-0.3,0-0.6,0.3-0.6,0.6V28c0,0.3,0.3,0.6,0.6,0.6s0.6-0.3,0.6-0.6v-1.3
				C48,26.4,47.7,26.1,47.3,26.1z"/>
		</g>
	</g>
	<g>
		<g>
			<path class="st1" d="M47.3,22c-0.3,0-0.6,0.3-0.6,0.6V24c0,0.3,0.3,0.6,0.6,0.6s0.6-0.3,0.6-0.6v-1.3C48,22.3,47.7,22,47.3,22z"
				/>
		</g>
	</g>
	<g>
		<g>
			<path class="st1" d="M47.3,30.1c-0.3,0-0.6,0.3-0.6,0.6V32c0,0.3,0.3,0.6,0.6,0.6s0.6-0.3,0.6-0.6v-1.3
				C48,30.4,47.7,30.1,47.3,30.1z"/>
		</g>
	</g>
	<g>
		<g>
			<path class="st1" d="M47.3,18c-0.3,0-0.6,0.3-0.6,0.6V20c0,0.3,0.3,0.6,0.6,0.6s0.6-0.3,0.6-0.6v-1.3C48,18.3,47.7,18,47.3,18z"
				/>
		</g>
	</g>
	<g>
		<g>
			<path class="st1" d="M47.3,34.1c-0.3,0-0.6,0.3-0.6,0.6V36c0,0.3,0.3,0.6,0.6,0.6s0.6-0.3,0.6-0.6v-1.3
				C48,34.4,47.7,34.1,47.3,34.1z"/>
		</g>
	</g>
	<g>
		<g>
			<path class="st1" d="M47.3,38.2c-0.3,0-0.6,0.3-0.6,0.6v1.3c0,0.3,0.3,0.6,0.6,0.6s0.6-0.3,0.6-0.6v-1.3
				C48,38.5,47.7,38.2,47.3,38.2z"/>
		</g>
	</g>
	<g>
		<g>
			<path class="st1" d="M28.5,46.2h-1.3c-0.3,0-0.6,0.3-0.6,0.6s0.3,0.6,0.6,0.6h1.3c0.3,0,0.6-0.3,0.6-0.6S28.9,46.2,28.5,46.2z"/>
		</g>
	</g>
	<g>
		<g>
			<path class="st1" d="M24.5,46.2h-1.3c-0.3,0-0.6,0.3-0.6,0.6s0.3,0.6,0.6,0.6h1.3c0.3,0,0.6-0.3,0.6-0.6S24.8,46.2,24.5,46.2z"/>
		</g>
	</g>
	<g>
		<g>
			<path class="st1" d="M32.5,46.2h-1.3c-0.3,0-0.6,0.3-0.6,0.6s0.3,0.6,0.6,0.6h1.3c0.3,0,0.6-0.3,0.6-0.6
				C33.2,46.5,32.9,46.2,32.5,46.2z"/>
		</g>
	</g>
	<g>
		<g>
			<path class="st1" d="M20.4,46.2h-1.3c-0.3,0-0.6,0.3-0.6,0.6s0.3,0.6,0.6,0.6h1.3c0.3,0,0.6-0.3,0.6-0.6
				C21.1,46.5,20.8,46.2,20.4,46.2z"/>
		</g>
	</g>
	<g>
		<g>
			<path class="st1" d="M36.6,46.2h-1.3c-0.3,0-0.6,0.3-0.6,0.6s0.3,0.6,0.6,0.6h1.3c0.3,0,0.6-0.3,0.6-0.6
				C37.2,46.5,36.9,46.2,36.6,46.2z"/>
		</g>
	</g>
	<g>
		<g>
			<path class="st1" d="M40.6,46.2h-1.3c-0.3,0-0.6,0.3-0.6,0.6s0.3,0.6,0.6,0.6h1.3c0.3,0,0.6-0.3,0.6-0.6
				C41.2,46.5,41,46.2,40.6,46.2z"/>
		</g>
	</g>
	<g>
		<g>
			<path class="st1" d="M28.5,11.3h-1.3c-0.3,0-0.6,0.3-0.6,0.6s0.3,0.6,0.6,0.6h1.3c0.3,0,0.6-0.3,0.6-0.6S28.9,11.3,28.5,11.3z"/>
		</g>
	</g>
	<g>
		<g>
			<path class="st1" d="M24.5,11.3h-1.3c-0.3,0-0.6,0.3-0.6,0.6s0.3,0.6,0.6,0.6h1.3c0.3,0,0.6-0.3,0.6-0.6S24.8,11.3,24.5,11.3z"/>
		</g>
	</g>
	<g>
		<g>
			<path class="st1" d="M32.5,11.3h-1.3c-0.3,0-0.6,0.3-0.6,0.6s0.3,0.6,0.6,0.6h1.3c0.3,0,0.6-0.3,0.6-0.6
				C33.2,11.6,32.9,11.3,32.5,11.3z"/>
		</g>
	</g>
	<g>
		<g>
			<path class="st1" d="M20.4,11.3h-1.3c-0.3,0-0.6,0.3-0.6,0.6s0.3,0.6,0.6,0.6h1.3c0.3,0,0.6-0.3,0.6-0.6
				C21.1,11.6,20.8,11.3,20.4,11.3z"/>
		</g>
	</g>
	<g>
		<g>
			<path class="st1" d="M36.6,11.3h-1.3c-0.3,0-0.6,0.3-0.6,0.6s0.3,0.6,0.6,0.6h1.3c0.3,0,0.6-0.3,0.6-0.6
				C37.2,11.6,36.9,11.3,36.6,11.3z"/>
		</g>
	</g>
	<g>
		<g>
			<path class="st1" d="M40.6,11.3h-1.3c-0.3,0-0.6,0.3-0.6,0.6s0.3,0.6,0.6,0.6h1.3c0.3,0,0.6-0.3,0.6-0.6
				C41.2,11.6,41,11.3,40.6,11.3z"/>
		</g>
	</g>
	<g>
		<path class="st1" d="M9.7,42.3h6.9v6.9H9.7V42.3z"/>
		<path class="st1" d="M42.7,42.3h6.9v6.9h-6.9V42.3z"/>
		<path class="st1" d="M12,44.6h2.3v2.3H12V44.6z"/>
		<path class="st1" d="M45,44.6h2.3v2.3H45V44.6z"/>
	</g>
</g>
</svg>
