<?xml version="1.0" encoding="utf-8"?>
<!-- Generator: Adobe Illustrator 21.0.0, SVG Export Plug-In . SVG Version: 6.00 Build 0)  -->
<svg version="1.1" id="Layer_1" xmlns="http://www.w3.org/2000/svg" xmlns:xlink="http://www.w3.org/1999/xlink" x="0px" y="0px"
	 viewBox="0 0 58.9 58.9" style="enable-background:new 0 0 58.9 58.9;" xml:space="preserve">
<style type="text/css">
	.st0{fill:url(#SVGID_1_);}
	.st1{fill:#FFFFFF;}
</style>
<g>
	
		<linearGradient id="SVGID_1_" gradientUnits="userSpaceOnUse" x1="-152.5695" y1="-460.2874" x2="-152.5695" y2="-517.7149" gradientTransform="matrix(1 0 0 -1 182.0195 -459.3477)">
		<stop  offset="0" style="stop-color:#7BBF40"/>
		<stop  offset="1" style="stop-color:#47A537"/>
	</linearGradient>
	<path class="st0" d="M58.9,50c0,4.9-4,8.8-8.8,8.8H8.8C4,58.9,0,54.9,0,50V8.8C0,4,4,0,8.8,0H50c4.9,0,8.8,4,8.8,8.8V50H58.9z"/>
</g>
<g>
	<g>
		<path class="st1" d="M47.5,27.2c-0.4,0-0.7,0.3-0.7,0.7v15.2c0,1-0.8,1.8-1.8,1.8H11.1c-1,0-1.8-0.8-1.8-1.8V17
			c0-1,0.8-1.8,1.8-1.8H36c0.4,0,0.7-0.3,0.7-0.7c0-0.4-0.3-0.7-0.7-0.7H11.1C9.4,13.8,8,15.3,8,17v26.1c0,1.8,1.4,3.2,3.2,3.2H45
			c1.8,0,3.2-1.4,3.2-3.2V27.9C48.1,27.5,47.8,27.2,47.5,27.2z"/>
	</g>
</g>
<g>
	<g>
		<path class="st1" d="M45.6,9.4c-4.7,0-8.5,3.8-8.5,8.5s3.8,8.5,8.5,8.5c1.9,0,3.8-0.7,5.4-1.9c0.3-0.2,0.3-0.7,0.1-1
			c-0.2-0.3-0.7-0.3-1-0.1c-1.3,1-2.9,1.6-4.5,1.6c-3.9,0-7.1-3.2-7.1-7.1s3.2-7.1,7.1-7.1c3.9,0,7.1,3.2,7.1,7.1
			c0,1.4-0.4,2.8-1.2,4c-0.2,0.3-0.1,0.7,0.2,1c0.3,0.2,0.7,0.1,1-0.2c0.9-1.4,1.5-3,1.5-4.7C54.1,13.2,50.3,9.4,45.6,9.4z"/>
	</g>
</g>
<g>
	<g>
		<path class="st1" d="M49,20.3l-2.4-2.4l2.4-2.4c0.3-0.3,0.3-0.7,0-1c-0.3-0.3-0.7-0.3-1,0L45.6,17l-2.4-2.4c-0.3-0.3-0.7-0.3-1,0
			c-0.3,0.3-0.3,0.7,0,1l2.4,2.4l-2.4,2.4c-0.3,0.3-0.3,0.7,0,1c0.1,0.1,0.3,0.2,0.5,0.2s0.4-0.1,0.5-0.2l2.4-2.4l2.4,2.4
			c0.1,0.1,0.3,0.2,0.5,0.2s0.4-0.1,0.5-0.2C49.3,21,49.3,20.6,49,20.3z"/>
	</g>
</g>
<path class="st1" d="M19.2,28.9c1.9,0,3.5-1.6,3.5-3.5c0-1.9-1.6-3.5-3.5-3.5s-3.5,1.6-3.5,3.5S17.3,28.9,19.2,28.9z M19.2,23.2
	c1.2,0,2.2,1,2.2,2.2c0,1.2-1,2.2-2.2,2.2c-1.2,0-2.2-1-2.2-2.2C17,24.2,18,23.2,19.2,23.2z"/>
<path class="st1" d="M11.8,45.7c0.2,0,0.4-0.1,0.5-0.2l12.4-10.9l7.8,7.8c0.3,0.3,0.8,0.3,1.1,0c0.3-0.3,0.3-0.8,0-1.1l-3.7-3.7
	l7-7.7l8.6,7.9c0.3,0.3,0.8,0.3,1.1,0c0.3-0.3,0.3-0.8,0-1.1l-9.1-8.4c-0.1-0.1-0.3-0.2-0.5-0.2c-0.2,0-0.4,0.1-0.5,0.2l-7.5,8.2
	L25.3,33c-0.3-0.3-0.7-0.3-1,0l-13,11.4c-0.3,0.3-0.3,0.8-0.1,1.1C11.3,45.6,11.6,45.7,11.8,45.7z"/>
</svg>
