<?xml version="1.0" encoding="utf-8"?>
<!-- Generator: Adobe Illustrator 21.0.0, SVG Export Plug-In . SVG Version: 6.00 Build 0)  -->
<svg version="1.1" id="Layer_1" xmlns="http://www.w3.org/2000/svg" xmlns:xlink="http://www.w3.org/1999/xlink" x="0px" y="0px"
	 viewBox="0 0 58.9 58.9" style="enable-background:new 0 0 58.9 58.9;" xml:space="preserve">
<style type="text/css">
	.st0{fill:url(#SVGID_1_);}
	.st1{fill:#FFFFFF;}
	.st2{opacity:0.2;}
	.st3{fill:#545454;}
</style>
<g>
	
		<linearGradient id="SVGID_1_" gradientUnits="userSpaceOnUse" x1="-152.5695" y1="-460.2874" x2="-152.5695" y2="-517.7149" gradientTransform="matrix(1 0 0 -1 182.0195 -459.3477)">
		<stop  offset="0" style="stop-color:#7BBF40"/>
		<stop  offset="1" style="stop-color:#47A537"/>
	</linearGradient>
	<path class="st0" d="M58.9,50c0,4.9-4,8.8-8.8,8.8H8.8C4,58.9,0,54.9,0,50V8.8C0,4,4,0,8.8,0H50c4.9,0,8.8,4,8.8,8.8V50H58.9z"/>
</g>
<g>
	<g>
		<g>
			<path class="st1" d="M31.1,30.9V10.6c0-0.4-0.3-0.6-0.6-0.6H10c-0.4,0-0.6,0.3-0.6,0.6V31c0,0.4,0.3,0.6,0.6,0.6h20.5
				C30.8,31.5,31.1,31.2,31.1,30.9z M29.9,30.3H10.6V11.1H30l0,0L29.9,30.3L29.9,30.3z"/>
		</g>
	</g>
	<g>
		<g>
			<path class="st1" d="M50.3,47.8V27.4c0-0.4-0.3-0.6-0.6-0.6H29.2c-0.4,0-0.6,0.3-0.6,0.6v20.4c0,0.4,0.3,0.6,0.6,0.6h20.5
				C50.1,48.4,50.3,48.1,50.3,47.8z M49.1,47.2H29.8V28h19.4l0,0L49.1,47.2L49.1,47.2z"/>
		</g>
	</g>
	<g class="st2">
		<rect x="18.2" y="18.5" class="st3" width="22.3" height="22.2"/>
	</g>
	<g>
		<rect x="19.7" y="16.9" class="st1" width="22.3" height="22.2"/>
	</g>
</g>
<g>
	<circle class="st1" cx="20.8" cy="20" r="0.2"/>
	<circle class="st1" cx="26.3" cy="24.1" r="0.2"/>
	<path class="st1" d="M10.5,16.4c0-0.1-0.1-0.2-0.1-0.2v0.4C10.5,16.6,10.5,16.5,10.5,16.4z"/>
	<path class="st1" d="M30.2,16.4c0,0.1,0.1,0.2,0.2,0.2c0,0,0.1,0,0.1,0v-0.4c0,0-0.1,0-0.1,0C30.3,16.2,30.2,16.3,30.2,16.4z"/>
	<circle class="st1" cx="18.3" cy="16.6" r="0.2"/>
	<circle class="st1" cx="18.3" cy="15.2" r="0.2"/>
	<circle class="st1" cx="29.7" cy="13" r="0.2"/>
	<circle class="st1" cx="14" cy="26.8" r="0.2"/>
	<circle class="st1" cx="28.3" cy="20.7" r="0.2"/>
	<circle class="st1" cx="27.6" cy="15.5" r="0.2"/>
	<circle class="st1" cx="27" cy="24.2" r="0.2"/>
	<circle class="st1" cx="21.9" cy="19.6" r="0.2"/>
	<circle class="st1" cx="21.2" cy="28.2" r="0.2"/>
	<circle class="st1" cx="23" cy="30" r="0.2"/>
	<circle class="st1" cx="11.7" cy="30" r="0.2"/>
	<circle class="st1" cx="23.7" cy="23.5" r="0.2"/>
	<circle class="st1" cx="11" cy="25.2" r="0.2"/>
	<circle class="st1" cx="27.1" cy="25" r="0.2"/>
	<circle class="st1" cx="19.7" cy="19.6" r="0.2"/>
	<circle class="st1" cx="20.4" cy="24.5" r="0.2"/>
	<circle class="st1" cx="16.1" cy="11.2" r="0.2"/>
	<circle class="st1" cx="13.7" cy="12.8" r="0.2"/>
	<circle class="st1" cx="25.6" cy="11.4" r="0.2"/>
	<circle class="st1" cx="26.9" cy="11.6" r="0.2"/>
	<circle class="st1" cx="27.7" cy="27.3" r="0.2"/>
	<circle class="st1" cx="20.5" cy="19.4" r="0.2"/>
	<circle class="st1" cx="25.3" cy="17" r="0.2"/>
	<circle class="st1" cx="23.2" cy="19.1" r="0.2"/>
	<circle class="st1" cx="24.9" cy="19.8" r="0.2"/>
	<circle class="st1" cx="29.6" cy="23.1" r="0.2"/>
	<circle class="st1" cx="29.5" cy="20.4" r="0.2"/>
	<circle class="st1" cx="29.9" cy="11.4" r="0.2"/>
	<circle class="st1" cx="29.6" cy="30.8" r="0.2"/>
	<circle class="st1" cx="19" cy="25.9" r="0.2"/>
	<circle class="st1" cx="23.4" cy="16.3" r="0.2"/>
	<circle class="st1" cx="24" cy="16.9" r="0.2"/>
	<circle class="st1" cx="24.8" cy="15.8" r="0.2"/>
	<circle class="st1" cx="11.4" cy="14.2" r="0.2"/>
	<circle class="st1" cx="25.7" cy="30.8" r="0.2"/>
	<circle class="st1" cx="28.6" cy="28.4" r="0.2"/>
	<circle class="st1" cx="21.4" cy="12.8" r="0.2"/>
	<circle class="st1" cx="19.7" cy="12.2" r="0.2"/>
	<circle class="st1" cx="29.9" cy="14.5" r="0.2"/>
	<path class="st1" d="M10.7,14.4c0-0.1-0.1-0.2-0.2-0.2c0,0-0.1,0-0.1,0v0.4c0,0,0.1,0,0.1,0C10.6,14.6,10.7,14.5,10.7,14.4z"/>
	<path class="st1" d="M30.4,14.4c0,0.1,0.1,0.2,0.1,0.2v-0.4C30.4,14.2,30.4,14.3,30.4,14.4z"/>
	<circle class="st1" cx="27.3" cy="12.7" r="0.2"/>
	<circle class="st1" cx="26.4" cy="26.9" r="0.2"/>
	<circle class="st1" cx="28.4" cy="16" r="0.2"/>
	<circle class="st1" cx="29.6" cy="16" r="0.2"/>
	<circle class="st1" cx="18" cy="15.8" r="0.2"/>
	<circle class="st1" cx="13.8" cy="20.9" r="0.2"/>
	<circle class="st1" cx="14.1" cy="19.2" r="0.2"/>
	<circle class="st1" cx="21.3" cy="19.3" r="0.2"/>
	<circle class="st1" cx="25.5" cy="20.8" r="0.2"/>
	<circle class="st1" cx="17.7" cy="11.7" r="0.2"/>
	<circle class="st1" cx="22.1" cy="29.7" r="0.2"/>
	<circle class="st1" cx="22.8" cy="29.3" r="0.2"/>
	<circle class="st1" cx="21.1" cy="20.7" r="0.3"/>
	<circle class="st1" cx="11" cy="16.1" r="0.2"/>
	<circle class="st1" cx="25.7" cy="23.7" r="0.2"/>
	<circle class="st1" cx="24.7" cy="25" r="0.2"/>
	<circle class="st1" cx="30.1" cy="17.1" r="0.2"/>
	<circle class="st1" cx="17.3" cy="20.9" r="0.2"/>
	<circle class="st1" cx="26.1" cy="16.9" r="0.2"/>
	<circle class="st1" cx="26.8" cy="15.5" r="0.2"/>
	<circle class="st1" cx="29.8" cy="19.5" r="0.2"/>
	<circle class="st1" cx="11.5" cy="25.8" r="0.2"/>
	<circle class="st1" cx="12.3" cy="26.2" r="0.2"/>
	<circle class="st1" cx="17.3" cy="29.4" r="0.2"/>
	<circle class="st1" cx="16.2" cy="30.7" r="0.2"/>
	<circle class="st1" cx="20.5" cy="11.3" r="0.2"/>
	<circle class="st1" cx="20.7" cy="13.2" r="0.2"/>
	<circle class="st1" cx="21.3" cy="11.7" r="0.2"/>
	<circle class="st1" cx="16.6" cy="18.2" r="0.2"/>
	<circle class="st1" cx="17" cy="20.3" r="0.2"/>
	<circle class="st1" cx="14.9" cy="19" r="0.2"/>
	<circle class="st1" cx="17.7" cy="19.3" r="0.2"/>
	<circle class="st1" cx="19.6" cy="18.8" r="0.2"/>
	<circle class="st1" cx="17.3" cy="17.9" r="0.2"/>
	<circle class="st1" cx="19" cy="19.5" r="0.2"/>
	<circle class="st1" cx="17.9" cy="17.2" r="0.2"/>
	<circle class="st1" cx="19.3" cy="17.1" r="0.5"/>
	<circle class="st1" cx="16.3" cy="23.6" r="0.2"/>
	<circle class="st1" cx="17.4" cy="22.3" r="0.2"/>
	<circle class="st1" cx="20.6" cy="14.1" r="0.3"/>
	<circle class="st1" cx="27.2" cy="25.8" r="0.2"/>
	<circle class="st1" cx="27" cy="20.8" r="0.2"/>
	<circle class="st1" cx="18.3" cy="14.4" r="0.2"/>
	<circle class="st1" cx="19.5" cy="13.1" r="0.3"/>
	<circle class="st1" cx="12.5" cy="11.8" r="0.2"/>
	<circle class="st1" cx="14.5" cy="13.2" r="0.2"/>
	<circle class="st1" cx="24.9" cy="25.7" r="0.2"/>
	<circle class="st1" cx="25.8" cy="26.1" r="0.3"/>
	<circle class="st1" cx="26.2" cy="25.2" r="0.2"/>
	<circle class="st1" cx="25.7" cy="24.6" r="0.2"/>
	<path class="st1" d="M10.7,21.4c0-0.1-0.1-0.2-0.2-0.2c0,0,0,0,0,0v0.4c0,0,0,0,0,0C10.6,21.6,10.7,21.5,10.7,21.4z"/>
	<path class="st1" d="M30.3,21.4c0,0.1,0.1,0.2,0.2,0.2v-0.4C30.4,21.2,30.3,21.2,30.3,21.4z"/>
	<circle class="st1" cx="27.9" cy="21.5" r="0.2"/>
	<circle class="st1" cx="15.7" cy="22.8" r="0.2"/>
	<circle class="st1" cx="16.6" cy="22" r="0.2"/>
	<circle class="st1" cx="15" cy="20.3" r="0.2"/>
	<circle class="st1" cx="16.6" cy="21.2" r="0.2"/>
	<circle class="st1" cx="11.9" cy="19.3" r="0.2"/>
	<circle class="st1" cx="12.8" cy="20.3" r="0.3"/>
	<circle class="st1" cx="17.6" cy="13.9" r="0.2"/>
	<circle class="st1" cx="17.7" cy="14.9" r="0.2"/>
	<circle class="st1" cx="27.8" cy="11.5" r="0.2"/>
	<circle class="st1" cx="29.8" cy="12.2" r="0.2"/>
	<circle class="st1" cx="27.7" cy="28.2" r="0.2"/>
	<circle class="st1" cx="28.3" cy="29.2" r="0.3"/>
	<circle class="st1" cx="19.3" cy="23.1" r="0.2"/>
	<circle class="st1" cx="18.2" cy="23.2" r="0.2"/>
	<circle class="st1" cx="17.8" cy="25.3" r="0.2"/>
	<circle class="st1" cx="20" cy="23.5" r="0.2"/>
	<circle class="st1" cx="27.3" cy="13.9" r="0.2"/>
	<circle class="st1" cx="29.9" cy="13.7" r="0.2"/>
	<circle class="st1" cx="28.5" cy="15.2" r="0.2"/>
	<circle class="st1" cx="29.2" cy="15.2" r="0.2"/>
	<circle class="st1" cx="29" cy="12.7" r="0.2"/>
	<circle class="st1" cx="28.1" cy="12.7" r="0.4"/>
	<circle class="st1" cx="27.7" cy="14.8" r="0.2"/>
	<circle class="st1" cx="17.7" cy="30.1" r="0.2"/>
	<circle class="st1" cx="21.3" cy="29" r="0.2"/>
	<circle class="st1" cx="20.4" cy="28.2" r="0.2"/>
	<circle class="st1" cx="19.8" cy="30.2" r="0.3"/>
	<circle class="st1" cx="19.3" cy="29.2" r="0.3"/>
	<circle class="st1" cx="16.8" cy="25.9" r="0.2"/>
	<circle class="st1" cx="19.1" cy="28.2" r="0.2"/>
	<circle class="st1" cx="11.2" cy="27.7" r="0.2"/>
	<circle class="st1" cx="14" cy="28.4" r="0.2"/>
	<circle class="st1" cx="13.4" cy="27.3" r="0.2"/>
	<circle class="st1" cx="12.6" cy="27" r="0.2"/>
	<circle class="st1" cx="24.1" cy="17.7" r="0.2"/>
	<circle class="st1" cx="22.2" cy="17.6" r="0.2"/>
	<circle class="st1" cx="22.1" cy="18.6" r="0.3"/>
	<circle class="st1" cx="29.4" cy="17.6" r="0.2"/>
	<circle class="st1" cx="29.5" cy="18.8" r="0.2"/>
	<circle class="st1" cx="26.5" cy="17.6" r="0.2"/>
	<circle class="st1" cx="28.1" cy="20.1" r="0.2"/>
	<circle class="st1" cx="27.2" cy="19.8" r="0.2"/>
	<circle class="st1" cx="27.3" cy="16.5" r="0.4"/>
	<circle class="st1" cx="28.9" cy="19.9" r="0.3"/>
	<circle class="st1" cx="24.8" cy="16.5" r="0.2"/>
	<circle class="st1" cx="24.1" cy="15.3" r="0.3"/>
	<circle class="st1" cx="15" cy="13.8" r="0.2"/>
	<circle class="st1" cx="12.8" cy="12.9" r="0.2"/>
	<circle class="st1" cx="11.3" cy="15.1" r="0.3"/>
	<circle class="st1" cx="26.7" cy="29.9" r="0.2"/>
	<path class="st1" d="M26.6,11c0.1,0,0.1,0,0.2-0.1h-0.4C26.4,11,26.5,11,26.6,11z"/>
	<path class="st1" d="M26.6,30.6c-0.1,0-0.3,0.1-0.3,0.3c0,0.1,0,0.1,0.1,0.2h0.4c0,0,0.1-0.1,0.1-0.2
		C26.8,30.7,26.7,30.6,26.6,30.6z"/>
	<circle class="st1" cx="26.9" cy="23.6" r="0.2"/>
	<circle class="st1" cx="27.3" cy="22.2" r="0.2"/>
	<circle class="st1" cx="11.8" cy="16.1" r="0.2"/>
	<circle class="st1" cx="12.4" cy="17.6" r="0.3"/>
	<circle class="st1" cx="22.6" cy="19.5" r="0.2"/>
	<circle class="st1" cx="21.9" cy="20.3" r="0.2"/>
	<circle class="st1" cx="22.8" cy="22.3" r="0.2"/>
	<circle class="st1" cx="24.6" cy="20.5" r="0.3"/>
	<circle class="st1" cx="24.2" cy="28.1" r="0.2"/>
	<circle class="st1" cx="13.6" cy="30.6" r="0.2"/>
	<circle class="st1" cx="20.9" cy="27.6" r="0.2"/>
	<circle class="st1" cx="23.3" cy="27.3" r="0.2"/>
	<circle class="st1" cx="23.1" cy="28.2" r="0.3"/>
	<circle class="st1" cx="22" cy="23.4" r="0.2"/>
	<circle class="st1" cx="24" cy="25.6" r="0.2"/>
	<circle class="st1" cx="24" cy="24.4" r="0.2"/>
	<circle class="st1" cx="23.1" cy="26.5" r="0.2"/>
	<circle class="st1" cx="22.8" cy="23.3" r="0.2"/>
	<circle class="st1" cx="21" cy="24" r="0.3"/>
	<circle class="st1" cx="15.1" cy="23.5" r="0.2"/>
	<circle class="st1" cx="13.3" cy="26.4" r="0.2"/>
	<circle class="st1" cx="16.7" cy="24.8" r="0.4"/>
	<circle class="st1" cx="23" cy="15.8" r="0.2"/>
	<circle class="st1" cx="22.8" cy="16.7" r="0.3"/>
	<circle class="st1" cx="14.4" cy="27.6" r="0.2"/>
	<circle class="st1" cx="16.3" cy="26.5" r="0.2"/>
	<circle class="st1" cx="16" cy="28.7" r="0.2"/>
	<circle class="st1" cx="23.5" cy="29.5" r="0.2"/>
	<circle class="st1" cx="10.7" cy="30" r="0.2"/>
	<path class="st1" d="M11.4,10.9h-0.3c0,0,0.1,0,0.1,0C11.4,11,11.4,11,11.4,10.9z"/>
	<path class="st1" d="M11.6,30.7c0-0.2-0.1-0.3-0.3-0.3c-0.2,0-0.3,0.1-0.3,0.3c0,0.1,0.1,0.2,0.2,0.3h0.3
		C11.6,31,11.6,30.9,11.6,30.7z"/>
	<circle class="st1" cx="16.4" cy="17.3" r="0.2"/>
	<circle class="st1" cx="15.4" cy="15.7" r="0.2"/>
	<circle class="st1" cx="15.9" cy="18.1" r="0.2"/>
	<circle class="st1" cx="14.2" cy="18.3" r="0.2"/>
	<circle class="st1" cx="13.5" cy="17.6" r="0.3"/>
	<circle class="st1" cx="20.1" cy="27.5" r="0.2"/>
	<circle class="st1" cx="25.5" cy="19.4" r="0.2"/>
	<circle class="st1" cx="25.9" cy="18" r="0.2"/>
	<circle class="st1" cx="25.3" cy="18.7" r="0.2"/>
	<circle class="st1" cx="25" cy="21.5" r="0.2"/>
	<circle class="st1" cx="24.3" cy="23.7" r="0.2"/>
	<circle class="st1" cx="23.4" cy="22.7" r="0.2"/>
	<circle class="st1" cx="26" cy="22.7" r="0.3"/>
	<circle class="st1" cx="13.9" cy="22" r="0.2"/>
	<circle class="st1" cx="11.6" cy="24.7" r="0.2"/>
	<circle class="st1" cx="11" cy="22.3" r="0.2"/>
	<circle class="st1" cx="12.4" cy="25.2" r="0.4"/>
	<circle class="st1" cx="13" cy="21.5" r="0.2"/>
	<circle class="st1" cx="14.3" cy="22.7" r="0.2"/>
	<circle class="st1" cx="28.2" cy="27.8" r="0.2"/>
	<circle class="st1" cx="29.4" cy="29" r="0.2"/>
	<circle class="st1" cx="28.8" cy="26.3" r="0.2"/>
	<circle class="st1" cx="28.3" cy="26.9" r="0.2"/>
	<path class="st1" d="M11,29c0-0.2-0.2-0.4-0.4-0.4c-0.1,0-0.2,0-0.2,0.1v0.7c0.1,0,0.1,0.1,0.2,0.1C10.9,29.4,11,29.2,11,29z"/>
	<path class="st1" d="M30.3,29c0,0.1,0.1,0.3,0.2,0.3v-0.7C30.4,28.7,30.3,28.8,30.3,29z"/>
	<path class="st1" d="M10.5,22.8c0-0.1,0-0.1-0.1-0.2V23C10.5,22.9,10.5,22.9,10.5,22.8z"/>
	<path class="st1" d="M30.2,22.8c0,0.1,0.1,0.2,0.2,0.2c0,0,0.1,0,0.1,0v-0.4c0,0-0.1,0-0.1,0C30.3,22.6,30.2,22.7,30.2,22.8z"/>
	<path class="st1" d="M10.4,25.4v0.4c0-0.1,0.1-0.1,0.1-0.2S10.4,25.4,10.4,25.4z"/>
	<path class="st1" d="M30.2,25.2c-0.2,0-0.4,0.2-0.4,0.4c0,0.2,0.2,0.4,0.4,0.4c0.1,0,0.2-0.1,0.3-0.2v-0.4
		C30.4,25.3,30.3,25.2,30.2,25.2z"/>
	<circle class="st1" cx="28.9" cy="23.2" r="0.2"/>
	<circle class="st1" cx="28.3" cy="25.3" r="0.3"/>
	<circle class="st1" cx="29.2" cy="25.3" r="0.3"/>
	<circle class="st1" cx="27.8" cy="24.6" r="0.2"/>
	<circle class="st1" cx="27.9" cy="23.2" r="0.4"/>
	<circle class="st1" cx="11.1" cy="19.4" r="0.2"/>
	<path class="st1" d="M30.2,18.8c0,0.1,0.1,0.2,0.2,0.2c0,0,0.1,0,0.1,0v-0.4c0,0-0.1,0-0.1,0C30.3,18.6,30.2,18.7,30.2,18.8z"/>
	<path class="st1" d="M10.5,18.8c0-0.1-0.1-0.2-0.1-0.2V19C10.5,18.9,10.5,18.9,10.5,18.8z"/>
	<circle class="st1" cx="12.6" cy="18.5" r="0.3"/>
	<circle class="st1" cx="25" cy="27.9" r="0.2"/>
	<circle class="st1" cx="25.5" cy="26.9" r="0.2"/>
	<circle class="st1" cx="26.4" cy="28.8" r="0.2"/>
	<circle class="st1" cx="26.9" cy="27.7" r="0.2"/>
	<circle class="st1" cx="25.5" cy="29" r="0.4"/>
	<circle class="st1" cx="17.6" cy="13.1" r="0.2"/>
	<circle class="st1" cx="16.9" cy="11.5" r="0.3"/>
	<circle class="st1" cx="24.1" cy="13.3" r="0.2"/>
	<circle class="st1" cx="24.6" cy="12" r="0.3"/>
	<circle class="st1" cx="22.9" cy="30.7" r="0.2"/>
	<circle class="st1" cx="23.1" cy="14.3" r="0.6"/>
	<circle class="st1" cx="21.9" cy="13.7" r="0.4"/>
	<circle class="st1" cx="19.9" cy="22.1" r="0.2"/>
	<circle class="st1" cx="19.9" cy="20.7" r="0.5"/>
	<circle class="st1" cx="18.5" cy="22.4" r="0.2"/>
	<circle class="st1" cx="19.8" cy="25.9" r="0.2"/>
	<circle class="st1" cx="20.2" cy="25.2" r="0.2"/>
	<circle class="st1" cx="20.9" cy="26.7" r="0.3"/>
	<circle class="st1" cx="15.6" cy="11.8" r="0.3"/>
	<circle class="st1" cx="13.8" cy="11.8" r="0.5"/>
	<circle class="st1" cx="26.4" cy="14.8" r="0.2"/>
	<circle class="st1" cx="25.1" cy="15" r="0.3"/>
	<circle class="st1" cx="24.9" cy="13.1" r="0.3"/>
	<circle class="st1" cx="26.1" cy="12.5" r="0.6"/>
	<path class="st1" d="M18.4,11.2c0.2,0,0.4-0.1,0.4-0.2H18C18.1,11.1,18.2,11.2,18.4,11.2z"/>
	<path class="st1" d="M18.4,30.3c-0.3,0-0.5,0.2-0.5,0.5c0,0.1,0,0.2,0.1,0.3h0.9c0-0.1,0.1-0.2,0.1-0.3
		C18.9,30.5,18.7,30.3,18.4,30.3z"/>
	<circle class="st1" cx="13.5" cy="16.6" r="0.2"/>
	<circle class="st1" cx="19.4" cy="11.5" r="0.3"/>
	<path class="st1" d="M10.6,15.3c0-0.1-0.1-0.3-0.2-0.3v0.7C10.5,15.6,10.6,15.4,10.6,15.3z"/>
	<path class="st1" d="M29.9,15.3c0,0.2,0.2,0.4,0.4,0.4c0.1,0,0.1,0,0.2,0V15c-0.1,0-0.1,0-0.2,0C30.1,14.9,29.9,15.1,29.9,15.3z"/>
	<circle class="st1" cx="26.9" cy="13.3" r="0.2"/>
	<circle class="st1" cx="28.6" cy="30.3" r="0.3"/>
	<circle class="st1" cx="18.4" cy="20.2" r="0.4"/>
	<circle class="st1" cx="17.4" cy="24" r="0.3"/>
	<circle class="st1" cx="19" cy="15.6" r="0.3"/>
	<circle class="st1" cx="27.2" cy="26.6" r="0.3"/>
	<circle class="st1" cx="29" cy="16.5" r="0.3"/>
	<circle class="st1" cx="16.9" cy="16.2" r="0.6"/>
	<circle class="st1" cx="14" cy="20.1" r="0.4"/>
	<circle class="st1" cx="26" cy="30" r="0.2"/>
	<circle class="st1" cx="20.7" cy="18.2" r="0.6"/>
	<circle class="st1" cx="13.5" cy="18.7" r="0.3"/>
	<circle class="st1" cx="26.2" cy="20.2" r="0.5"/>
	<circle class="st1" cx="18.3" cy="29" r="0.4"/>
	<circle class="st1" cx="18.5" cy="12.3" r="0.5"/>
	<path class="st1" d="M21.8,10.9h-0.7c0.1,0.1,0.2,0.1,0.3,0.1S21.7,11,21.8,10.9z"/>
	<path class="st1" d="M22,30.6c0-0.3-0.3-0.6-0.6-0.6c-0.3,0-0.6,0.3-0.6,0.6c0,0.2,0.1,0.3,0.2,0.5h0.7C21.9,30.9,22,30.8,22,30.6z
		"/>
	<circle class="st1" cx="22.1" cy="28.9" r="0.3"/>
	<circle class="st1" cx="14.8" cy="29.5" r="0.7"/>
	<circle class="st1" cx="21.3" cy="22.2" r="0.7"/>
	<circle class="st1" cx="11.3" cy="16.9" r="0.3"/>
	<circle class="st1" cx="25" cy="24.1" r="0.3"/>
	<circle class="st1" cx="30.1" cy="17.9" r="0.3"/>
	<circle class="st1" cx="17.8" cy="21.6" r="0.3"/>
	<circle class="st1" cx="25.1" cy="17.8" r="0.3"/>
	<circle class="st1" cx="25.9" cy="15.9" r="0.4"/>
	<path class="st1" d="M10.6,20.2c0-0.2-0.1-0.3-0.2-0.3v0.7C10.5,20.5,10.6,20.4,10.6,20.2z"/>
	<path class="st1" d="M30,20.2c0,0.2,0.2,0.4,0.4,0.4c0,0,0.1,0,0.1,0v-0.7c0,0-0.1,0-0.1,0C30.2,19.9,30,20.1,30,20.2z"/>
	<circle class="st1" cx="11.4" cy="26.8" r="0.4"/>
	<circle class="st1" cx="16.5" cy="29.8" r="0.4"/>
	<circle class="st1" cx="20.6" cy="12.2" r="0.4"/>
	<circle class="st1" cx="16.1" cy="19.4" r="0.7"/>
	<circle class="st1" cx="24.4" cy="27" r="0.5"/>
	<circle class="st1" cx="18.4" cy="18.4" r="0.6"/>
	<circle class="st1" cx="16.8" cy="22.9" r="0.4"/>
	<circle class="st1" cx="19.7" cy="14.7" r="0.4"/>
	<circle class="st1" cx="28" cy="26.2" r="0.3"/>
	<circle class="st1" cx="11.8" cy="20.9" r="0.5"/>
	<circle class="st1" cx="26.3" cy="21.4" r="0.4"/>
	<circle class="st1" cx="18.9" cy="13.7" r="0.4"/>
	<path class="st1" d="M30.5,12.8v-0.5c0,0.1,0,0.2,0,0.3C30.5,12.6,30.5,12.7,30.5,12.8z"/>
	<path class="st1" d="M11.2,13.3c0.4,0,0.8-0.4,0.8-0.8c0-0.4-0.4-0.8-0.8-0.8c-0.4,0-0.7,0.2-0.8,0.6v0.5
		C10.5,13.1,10.8,13.3,11.2,13.3z"/>
	<circle class="st1" cx="24.2" cy="19.1" r="0.4"/>
	<circle class="st1" cx="15.3" cy="12.8" r="0.4"/>
	<circle class="st1" cx="25.4" cy="25.3" r="0.2"/>
	<circle class="st1" cx="29.3" cy="21.8" r="0.7"/>
	<circle class="st1" cx="15.3" cy="21.6" r="0.7"/>
	<circle class="st1" cx="29.8" cy="29.9" r="0.4"/>
	<circle class="st1" cx="12.6" cy="19.5" r="0.3"/>
	<circle class="st1" cx="16.4" cy="14.4" r="0.8"/>
	<circle class="st1" cx="28.9" cy="11.6" r="0.5"/>
	<circle class="st1" cx="27.3" cy="28.9" r="0.3"/>
	<circle class="st1" cx="18.9" cy="24.5" r="0.8"/>
	<circle class="st1" cx="28.7" cy="13.9" r="0.7"/>
	<circle class="st1" cx="17.1" cy="30.6" r="0.3"/>
	<circle class="st1" cx="20.3" cy="29.2" r="0.4"/>
	<circle class="st1" cx="24.5" cy="14.1" r="0.3"/>
	<circle class="st1" cx="17.9" cy="27.1" r="1"/>
	<circle class="st1" cx="12.5" cy="28.7" r="0.9"/>
	<circle class="st1" cx="23.1" cy="18.1" r="0.4"/>
	<circle class="st1" cx="28" cy="18.4" r="1"/>
	<circle class="st1" cx="24.2" cy="16.2" r="0.2"/>
	<circle class="st1" cx="13.3" cy="14.7" r="1.2"/>
	<circle class="st1" cx="27.4" cy="30.4" r="0.4"/>
	<circle class="st1" cx="27" cy="22.8" r="0.2"/>
	<circle class="st1" cx="12.5" cy="16.7" r="0.3"/>
	<circle class="st1" cx="23.2" cy="20.8" r="0.8"/>
	<circle class="st1" cx="24.6" cy="28.9" r="0.3"/>
	<path class="st1" d="M12.5,11.1c0.1,0,0.3-0.1,0.4-0.2h-0.7C12.3,11,12.4,11.1,12.5,11.1z"/>
	<path class="st1" d="M12.5,30.2c-0.3,0-0.5,0.2-0.5,0.5c0,0.1,0.1,0.2,0.1,0.3h0.7c0.1-0.1,0.1-0.2,0.1-0.3
		C13,30.4,12.8,30.2,12.5,30.2z"/>
	<circle class="st1" cx="22.1" cy="27.3" r="0.6"/>
	<circle class="st1" cx="22.5" cy="25" r="1"/>
	<circle class="st1" cx="14.8" cy="25.2" r="1.1"/>
	<circle class="st1" cx="21.2" cy="15.9" r="1"/>
	<circle class="st1" cx="15.7" cy="27.5" r="0.6"/>
	<path class="st1" d="M24.3,11.2c0.2,0,0.5-0.1,0.6-0.3h-1.2C23.9,11.1,24.1,11.2,24.3,11.2z"/>
	<path class="st1" d="M24.3,29.8c-0.4,0-0.8,0.3-0.8,0.8c0,0.2,0.1,0.3,0.2,0.5h1.2c0.1-0.1,0.2-0.3,0.2-0.5
		C25.1,30.1,24.7,29.8,24.3,29.8z"/>
	<path class="st1" d="M30.3,30.7c0,0.1,0.1,0.2,0.2,0.2v-0.4C30.4,30.5,30.3,30.6,30.3,30.7z"/>
	<path class="st1" d="M10.6,30.7c0-0.1-0.1-0.2-0.2-0.2c0,0,0,0,0,0v0.4c0,0,0,0,0,0C10.5,30.9,10.6,30.8,10.6,30.7z"/>
	<circle class="st1" cx="15" cy="17.1" r="0.8"/>
	<circle class="st1" cx="19.9" cy="26.7" r="0.3"/>
	<circle class="st1" cx="26" cy="18.8" r="0.3"/>
	<circle class="st1" cx="24.6" cy="22.5" r="0.6"/>
	<circle class="st1" cx="12.6" cy="23.2" r="1.1"/>
	<path class="st1" d="M10.4,26.9v1c0.1-0.1,0.2-0.3,0.2-0.5C10.6,27.3,10.5,27.1,10.4,26.9z"/>
	<path class="st1" d="M29.8,26.6c-0.5,0-0.9,0.4-0.9,0.9c0,0.5,0.4,0.9,0.9,0.9c0.3,0,0.6-0.1,0.7-0.4v-1
		C30.3,26.7,30.1,26.6,29.8,26.6z"/>
	<path class="st1" d="M10.9,24.1c0-0.3-0.2-0.6-0.5-0.7v1.3C10.7,24.7,10.9,24.4,10.9,24.1z"/>
	<path class="st1" d="M29.7,24.1c0,0.4,0.3,0.7,0.7,0.7c0.1,0,0.1,0,0.2,0v-1.3c-0.1,0-0.1,0-0.2,0C30,23.4,29.7,23.7,29.7,24.1z"/>
	<circle class="st1" cx="28.7" cy="24.3" r="0.5"/>
	<circle class="st1" cx="11.3" cy="18.3" r="0.6"/>
	<circle class="st1" cx="25.9" cy="27.9" r="0.5"/>
	<circle class="st1" cx="16.7" cy="12.6" r="0.5"/>
	<circle class="st1" cx="16.9" cy="28.7" r="0.2"/>
	<circle class="st1" cx="22.9" cy="12.3" r="0.9"/>
	<circle class="st1" cx="19.1" cy="21.6" r="0.4"/>
	<circle class="st1" cx="20.5" cy="25.9" r="0.2"/>
	<path class="st1" d="M14.9,30.9c-0.1,0-0.2,0-0.3,0.1h0.5C15.1,31,15,30.9,14.9,30.9z"/>
	<path class="st1" d="M14.9,11.5c0.2,0,0.3-0.2,0.3-0.3c0-0.1,0-0.2-0.1-0.2h-0.5c0,0.1-0.1,0.1-0.1,0.2
		C14.5,11.3,14.7,11.5,14.9,11.5z"/>
	<circle class="st1" cx="25.7" cy="14" r="0.5"/>
</g>
<g>
	<circle class="st1" cx="39.9" cy="36.6" r="0.2"/>
	<circle class="st1" cx="45.3" cy="40.7" r="0.2"/>
	<path class="st1" d="M29.6,33.1c0-0.1-0.1-0.2-0.1-0.2v0.4C29.5,33.2,29.6,33.1,29.6,33.1z"/>
	<path class="st1" d="M49.2,33.1c0,0.1,0.1,0.2,0.2,0.2c0,0,0.1,0,0.1,0v-0.4c0,0-0.1,0-0.1,0C49.3,32.8,49.2,32.9,49.2,33.1z"/>
	<circle class="st1" cx="37.4" cy="33.2" r="0.2"/>
	<circle class="st1" cx="37.4" cy="31.8" r="0.2"/>
	<circle class="st1" cx="48.7" cy="29.6" r="0.2"/>
	<circle class="st1" cx="33" cy="43.5" r="0.2"/>
	<circle class="st1" cx="47.4" cy="37.4" r="0.2"/>
	<circle class="st1" cx="46.6" cy="32.2" r="0.2"/>
	<circle class="st1" cx="46" cy="40.9" r="0.2"/>
	<circle class="st1" cx="40.9" cy="36.3" r="0.2"/>
	<circle class="st1" cx="40.3" cy="44.8" r="0.2"/>
	<circle class="st1" cx="42.1" cy="46.6" r="0.2"/>
	<circle class="st1" cx="30.7" cy="46.6" r="0.2"/>
	<circle class="st1" cx="42.7" cy="40.1" r="0.2"/>
	<circle class="st1" cx="30.1" cy="41.8" r="0.2"/>
	<circle class="st1" cx="46.2" cy="41.7" r="0.2"/>
	<circle class="st1" cx="38.8" cy="36.2" r="0.2"/>
	<circle class="st1" cx="39.5" cy="41.1" r="0.2"/>
	<circle class="st1" cx="35.1" cy="27.8" r="0.2"/>
	<circle class="st1" cx="32.8" cy="29.4" r="0.2"/>
	<circle class="st1" cx="44.7" cy="28.1" r="0.2"/>
	<circle class="st1" cx="46" cy="28.3" r="0.2"/>
	<circle class="st1" cx="46.8" cy="43.9" r="0.2"/>
	<circle class="st1" cx="39.6" cy="36" r="0.2"/>
	<circle class="st1" cx="44.3" cy="33.6" r="0.2"/>
	<circle class="st1" cx="42.3" cy="35.7" r="0.2"/>
	<circle class="st1" cx="43.9" cy="36.4" r="0.2"/>
	<circle class="st1" cx="48.6" cy="39.7" r="0.2"/>
	<circle class="st1" cx="48.5" cy="37" r="0.2"/>
	<circle class="st1" cx="49" cy="28" r="0.2"/>
	<circle class="st1" cx="48.7" cy="47.4" r="0.2"/>
	<circle class="st1" cx="38.1" cy="42.5" r="0.2"/>
	<circle class="st1" cx="42.5" cy="32.9" r="0.2"/>
	<circle class="st1" cx="43" cy="33.5" r="0.2"/>
	<circle class="st1" cx="43.9" cy="32.4" r="0.2"/>
	<circle class="st1" cx="30.5" cy="30.8" r="0.2"/>
	<circle class="st1" cx="44.7" cy="47.4" r="0.2"/>
	<circle class="st1" cx="47.7" cy="45" r="0.2"/>
	<circle class="st1" cx="40.4" cy="29.4" r="0.2"/>
	<circle class="st1" cx="38.7" cy="28.8" r="0.2"/>
	<circle class="st1" cx="49" cy="31.2" r="0.2"/>
	<path class="st1" d="M29.8,31c0-0.1-0.1-0.2-0.2-0.2c0,0-0.1,0-0.1,0v0.4c0,0,0.1,0,0.1,0C29.7,31.2,29.8,31.1,29.8,31z"/>
	<path class="st1" d="M49.4,31c0,0.1,0.1,0.2,0.1,0.2v-0.4C49.5,30.8,49.4,30.9,49.4,31z"/>
	<circle class="st1" cx="46.3" cy="29.3" r="0.2"/>
	<circle class="st1" cx="45.4" cy="43.5" r="0.2"/>
	<circle class="st1" cx="47.5" cy="32.6" r="0.2"/>
	<circle class="st1" cx="48.7" cy="32.6" r="0.2"/>
	<circle class="st1" cx="37.1" cy="32.4" r="0.2"/>
	<circle class="st1" cx="32.8" cy="37.5" r="0.2"/>
	<circle class="st1" cx="33.2" cy="35.8" r="0.2"/>
	<circle class="st1" cx="40.3" cy="35.9" r="0.2"/>
	<circle class="st1" cx="44.5" cy="37.5" r="0.2"/>
	<circle class="st1" cx="36.8" cy="28.3" r="0.2"/>
	<circle class="st1" cx="41.1" cy="46.3" r="0.2"/>
	<circle class="st1" cx="41.8" cy="45.9" r="0.2"/>
	<circle class="st1" cx="40.2" cy="37.3" r="0.3"/>
	<circle class="st1" cx="30.1" cy="32.7" r="0.2"/>
	<circle class="st1" cx="44.8" cy="40.3" r="0.2"/>
	<circle class="st1" cx="43.8" cy="41.6" r="0.2"/>
	<circle class="st1" cx="49.2" cy="33.7" r="0.2"/>
	<circle class="st1" cx="36.4" cy="37.6" r="0.2"/>
	<circle class="st1" cx="45.1" cy="33.5" r="0.2"/>
	<circle class="st1" cx="45.9" cy="32.1" r="0.2"/>
	<circle class="st1" cx="48.9" cy="36.1" r="0.2"/>
	<circle class="st1" cx="30.6" cy="42.4" r="0.2"/>
	<circle class="st1" cx="31.3" cy="42.8" r="0.2"/>
	<circle class="st1" cx="36.4" cy="46" r="0.2"/>
	<circle class="st1" cx="35.3" cy="47.3" r="0.2"/>
	<circle class="st1" cx="39.5" cy="27.9" r="0.2"/>
	<circle class="st1" cx="39.7" cy="29.8" r="0.2"/>
	<circle class="st1" cx="40.4" cy="28.3" r="0.2"/>
	<circle class="st1" cx="35.7" cy="34.8" r="0.2"/>
	<circle class="st1" cx="36.1" cy="36.9" r="0.2"/>
	<circle class="st1" cx="33.9" cy="35.6" r="0.2"/>
	<circle class="st1" cx="36.7" cy="35.9" r="0.2"/>
	<circle class="st1" cx="38.6" cy="35.4" r="0.2"/>
	<circle class="st1" cx="36.4" cy="34.6" r="0.2"/>
	<circle class="st1" cx="38.1" cy="36.1" r="0.2"/>
	<circle class="st1" cx="37" cy="33.9" r="0.2"/>
	<circle class="st1" cx="38.4" cy="33.7" r="0.5"/>
	<circle class="st1" cx="35.3" cy="40.2" r="0.2"/>
	<circle class="st1" cx="36.5" cy="38.9" r="0.2"/>
	<circle class="st1" cx="39.6" cy="30.7" r="0.3"/>
	<circle class="st1" cx="46.2" cy="42.4" r="0.2"/>
	<circle class="st1" cx="46.1" cy="37.4" r="0.2"/>
	<circle class="st1" cx="37.4" cy="31" r="0.2"/>
	<circle class="st1" cx="38.6" cy="29.7" r="0.3"/>
	<circle class="st1" cx="31.5" cy="28.4" r="0.2"/>
	<circle class="st1" cx="33.5" cy="29.8" r="0.2"/>
	<circle class="st1" cx="44" cy="42.3" r="0.2"/>
	<circle class="st1" cx="44.9" cy="42.7" r="0.3"/>
	<circle class="st1" cx="45.2" cy="41.8" r="0.2"/>
	<circle class="st1" cx="44.7" cy="41.3" r="0.2"/>
	<path class="st1" d="M29.7,38c0-0.1-0.1-0.2-0.2-0.2c0,0,0,0,0,0v0.4c0,0,0,0,0,0C29.6,38.2,29.7,38.1,29.7,38z"/>
	<path class="st1" d="M49.4,38c0,0.1,0.1,0.2,0.2,0.2v-0.4C49.5,37.8,49.4,37.9,49.4,38z"/>
	<circle class="st1" cx="47" cy="38.1" r="0.2"/>
	<circle class="st1" cx="34.8" cy="39.4" r="0.2"/>
	<circle class="st1" cx="35.6" cy="38.6" r="0.2"/>
	<circle class="st1" cx="34.1" cy="36.9" r="0.2"/>
	<circle class="st1" cx="35.6" cy="37.8" r="0.2"/>
	<circle class="st1" cx="30.9" cy="35.9" r="0.2"/>
	<circle class="st1" cx="31.8" cy="36.9" r="0.3"/>
	<circle class="st1" cx="36.7" cy="30.5" r="0.2"/>
	<circle class="st1" cx="36.8" cy="31.6" r="0.2"/>
	<circle class="st1" cx="46.8" cy="28.1" r="0.2"/>
	<circle class="st1" cx="48.9" cy="28.8" r="0.2"/>
	<circle class="st1" cx="46.8" cy="44.8" r="0.2"/>
	<circle class="st1" cx="47.3" cy="45.9" r="0.3"/>
	<circle class="st1" cx="38.4" cy="39.7" r="0.2"/>
	<circle class="st1" cx="37.3" cy="39.8" r="0.2"/>
	<circle class="st1" cx="36.9" cy="41.9" r="0.2"/>
	<circle class="st1" cx="39.1" cy="40.1" r="0.2"/>
	<circle class="st1" cx="46.4" cy="30.5" r="0.2"/>
	<circle class="st1" cx="49" cy="30.3" r="0.2"/>
	<circle class="st1" cx="47.5" cy="31.8" r="0.2"/>
	<circle class="st1" cx="48.3" cy="31.8" r="0.2"/>
	<circle class="st1" cx="48.1" cy="29.3" r="0.2"/>
	<circle class="st1" cx="47.1" cy="29.3" r="0.4"/>
	<circle class="st1" cx="46.7" cy="31.4" r="0.2"/>
	<circle class="st1" cx="36.7" cy="46.7" r="0.2"/>
	<circle class="st1" cx="40.4" cy="45.6" r="0.2"/>
	<circle class="st1" cx="39.4" cy="44.8" r="0.2"/>
	<circle class="st1" cx="38.9" cy="46.8" r="0.3"/>
	<circle class="st1" cx="38.4" cy="45.8" r="0.3"/>
	<circle class="st1" cx="35.9" cy="42.5" r="0.2"/>
	<circle class="st1" cx="38.1" cy="44.8" r="0.2"/>
	<circle class="st1" cx="30.3" cy="44.3" r="0.2"/>
	<circle class="st1" cx="33.1" cy="45" r="0.2"/>
	<circle class="st1" cx="32.5" cy="44" r="0.2"/>
	<circle class="st1" cx="31.6" cy="43.6" r="0.2"/>
	<circle class="st1" cx="43.2" cy="34.3" r="0.2"/>
	<circle class="st1" cx="41.3" cy="34.2" r="0.2"/>
	<circle class="st1" cx="41.2" cy="35.2" r="0.3"/>
	<circle class="st1" cx="48.5" cy="34.2" r="0.2"/>
	<circle class="st1" cx="48.6" cy="35.4" r="0.2"/>
	<circle class="st1" cx="45.5" cy="34.3" r="0.2"/>
	<circle class="st1" cx="47.2" cy="36.7" r="0.2"/>
	<circle class="st1" cx="46.3" cy="36.5" r="0.2"/>
	<circle class="st1" cx="46.4" cy="33.1" r="0.4"/>
	<circle class="st1" cx="47.9" cy="36.5" r="0.3"/>
	<circle class="st1" cx="43.9" cy="33.1" r="0.2"/>
	<circle class="st1" cx="43.2" cy="31.9" r="0.3"/>
	<circle class="st1" cx="34" cy="30.4" r="0.2"/>
	<circle class="st1" cx="31.9" cy="29.5" r="0.2"/>
	<circle class="st1" cx="30.4" cy="31.7" r="0.3"/>
	<circle class="st1" cx="45.7" cy="46.5" r="0.2"/>
	<path class="st1" d="M45.6,27.6c0.1,0,0.1,0,0.2-0.1h-0.4C45.5,27.6,45.5,27.6,45.6,27.6z"/>
	<path class="st1" d="M45.6,47.2c-0.1,0-0.3,0.1-0.3,0.3c0,0.1,0,0.1,0.1,0.2h0.4c0,0,0.1-0.1,0.1-0.2
		C45.9,47.3,45.8,47.2,45.6,47.2z"/>
	<circle class="st1" cx="46" cy="40.2" r="0.2"/>
	<circle class="st1" cx="46.4" cy="38.8" r="0.2"/>
	<circle class="st1" cx="30.9" cy="32.7" r="0.2"/>
	<circle class="st1" cx="31.5" cy="34.2" r="0.3"/>
	<circle class="st1" cx="41.6" cy="36.1" r="0.2"/>
	<circle class="st1" cx="40.9" cy="36.9" r="0.2"/>
	<circle class="st1" cx="41.9" cy="38.9" r="0.2"/>
	<circle class="st1" cx="43.6" cy="37.1" r="0.3"/>
	<circle class="st1" cx="43.3" cy="44.7" r="0.2"/>
	<circle class="st1" cx="32.6" cy="47.2" r="0.2"/>
	<circle class="st1" cx="39.9" cy="44.2" r="0.2"/>
	<circle class="st1" cx="42.3" cy="43.9" r="0.2"/>
	<circle class="st1" cx="42.2" cy="44.8" r="0.3"/>
	<circle class="st1" cx="41" cy="40" r="0.2"/>
	<circle class="st1" cx="43.1" cy="42.2" r="0.2"/>
	<circle class="st1" cx="43.1" cy="41" r="0.2"/>
	<circle class="st1" cx="42.2" cy="43.1" r="0.2"/>
	<circle class="st1" cx="41.9" cy="40" r="0.2"/>
	<circle class="st1" cx="40.1" cy="40.6" r="0.3"/>
	<circle class="st1" cx="34.1" cy="40.1" r="0.2"/>
	<circle class="st1" cx="32.4" cy="43" r="0.2"/>
	<circle class="st1" cx="35.8" cy="41.4" r="0.4"/>
	<circle class="st1" cx="42" cy="32.4" r="0.2"/>
	<circle class="st1" cx="41.9" cy="33.3" r="0.3"/>
	<circle class="st1" cx="33.5" cy="44.2" r="0.2"/>
	<circle class="st1" cx="35.4" cy="43.1" r="0.2"/>
	<circle class="st1" cx="35.1" cy="45.4" r="0.2"/>
	<circle class="st1" cx="42.6" cy="46.1" r="0.2"/>
	<circle class="st1" cx="29.7" cy="46.6" r="0.2"/>
	<path class="st1" d="M30.5,27.5h-0.3c0,0,0.1,0,0.1,0C30.4,27.6,30.5,27.6,30.5,27.5z"/>
	<path class="st1" d="M30.7,47.4c0-0.2-0.1-0.3-0.3-0.3c-0.2,0-0.3,0.1-0.3,0.3c0,0.1,0.1,0.2,0.2,0.3h0.3
		C30.6,47.6,30.7,47.5,30.7,47.4z"/>
	<circle class="st1" cx="35.4" cy="33.9" r="0.2"/>
	<circle class="st1" cx="34.5" cy="32.3" r="0.2"/>
	<circle class="st1" cx="35" cy="34.7" r="0.2"/>
	<circle class="st1" cx="33.2" cy="34.9" r="0.2"/>
	<circle class="st1" cx="32.6" cy="34.3" r="0.3"/>
	<circle class="st1" cx="39.2" cy="44.1" r="0.2"/>
	<circle class="st1" cx="44.6" cy="36" r="0.2"/>
	<circle class="st1" cx="45" cy="34.6" r="0.2"/>
	<circle class="st1" cx="44.4" cy="35.3" r="0.2"/>
	<circle class="st1" cx="44.1" cy="38.1" r="0.2"/>
	<circle class="st1" cx="43.3" cy="40.3" r="0.2"/>
	<circle class="st1" cx="42.4" cy="39.3" r="0.2"/>
	<circle class="st1" cx="45" cy="39.3" r="0.3"/>
	<circle class="st1" cx="32.9" cy="38.6" r="0.2"/>
	<circle class="st1" cx="30.7" cy="41.3" r="0.2"/>
	<circle class="st1" cx="30.1" cy="39" r="0.2"/>
	<circle class="st1" cx="31.5" cy="41.8" r="0.4"/>
	<circle class="st1" cx="32.1" cy="38.1" r="0.2"/>
	<circle class="st1" cx="33.4" cy="39.3" r="0.2"/>
	<circle class="st1" cx="47.3" cy="44.4" r="0.2"/>
	<circle class="st1" cx="48.5" cy="45.6" r="0.2"/>
	<circle class="st1" cx="47.9" cy="42.9" r="0.2"/>
	<circle class="st1" cx="47.4" cy="43.5" r="0.2"/>
	<path class="st1" d="M30.1,45.6c0-0.2-0.2-0.4-0.4-0.4c-0.1,0-0.2,0-0.2,0.1v0.7c0.1,0,0.1,0.1,0.2,0.1
		C29.9,46,30.1,45.8,30.1,45.6z"/>
	<path class="st1" d="M49.4,45.6c0,0.1,0.1,0.3,0.2,0.3v-0.7C49.5,45.3,49.4,45.4,49.4,45.6z"/>
	<path class="st1" d="M29.6,39.4c0-0.1,0-0.1-0.1-0.2v0.4C29.5,39.6,29.6,39.5,29.6,39.4z"/>
	<path class="st1" d="M49.2,39.4c0,0.1,0.1,0.2,0.2,0.2c0,0,0.1,0,0.1,0v-0.4c0,0-0.1,0-0.1,0C49.3,39.2,49.2,39.3,49.2,39.4z"/>
	<path class="st1" d="M29.5,42v0.4c0-0.1,0.1-0.1,0.1-0.2S29.5,42.1,29.5,42z"/>
	<path class="st1" d="M49.3,41.8c-0.2,0-0.4,0.2-0.4,0.4c0,0.2,0.2,0.4,0.4,0.4c0.1,0,0.2-0.1,0.3-0.2V42
		C49.5,41.9,49.4,41.8,49.3,41.8z"/>
	<circle class="st1" cx="47.9" cy="39.8" r="0.2"/>
	<circle class="st1" cx="47.4" cy="41.9" r="0.3"/>
	<circle class="st1" cx="48.2" cy="42" r="0.3"/>
	<circle class="st1" cx="46.8" cy="41.3" r="0.2"/>
	<circle class="st1" cx="46.9" cy="39.9" r="0.4"/>
	<circle class="st1" cx="30.1" cy="36" r="0.2"/>
	<path class="st1" d="M49.2,35.4c0,0.1,0.1,0.2,0.2,0.2c0,0,0.1,0,0.1,0v-0.4c0,0-0.1,0-0.1,0C49.3,35.2,49.2,35.3,49.2,35.4z"/>
	<path class="st1" d="M29.6,35.4c0-0.1-0.1-0.2-0.1-0.2v0.4C29.5,35.6,29.6,35.5,29.6,35.4z"/>
	<circle class="st1" cx="31.6" cy="35.1" r="0.3"/>
	<circle class="st1" cx="44" cy="44.6" r="0.2"/>
	<circle class="st1" cx="44.6" cy="43.5" r="0.2"/>
	<circle class="st1" cx="45.5" cy="45.4" r="0.2"/>
	<circle class="st1" cx="46" cy="44.4" r="0.2"/>
	<circle class="st1" cx="44.6" cy="45.6" r="0.4"/>
	<circle class="st1" cx="36.7" cy="29.7" r="0.2"/>
	<circle class="st1" cx="35.9" cy="28.1" r="0.3"/>
	<circle class="st1" cx="43.2" cy="30" r="0.2"/>
	<circle class="st1" cx="43.7" cy="28.6" r="0.3"/>
	<circle class="st1" cx="41.9" cy="47.4" r="0.2"/>
	<circle class="st1" cx="42.1" cy="30.9" r="0.6"/>
	<circle class="st1" cx="40.9" cy="30.3" r="0.4"/>
	<circle class="st1" cx="38.9" cy="38.7" r="0.2"/>
	<circle class="st1" cx="39" cy="37.3" r="0.5"/>
	<circle class="st1" cx="37.6" cy="39" r="0.2"/>
	<circle class="st1" cx="38.9" cy="42.5" r="0.2"/>
	<circle class="st1" cx="39.3" cy="41.8" r="0.2"/>
	<circle class="st1" cx="39.9" cy="43.3" r="0.3"/>
	<circle class="st1" cx="34.6" cy="28.5" r="0.3"/>
	<circle class="st1" cx="32.9" cy="28.4" r="0.5"/>
	<circle class="st1" cx="45.5" cy="31.5" r="0.2"/>
	<circle class="st1" cx="44.2" cy="31.6" r="0.3"/>
	<circle class="st1" cx="44" cy="29.7" r="0.3"/>
	<circle class="st1" cx="45.2" cy="29.1" r="0.6"/>
	<path class="st1" d="M37.5,27.8c0.2,0,0.4-0.1,0.4-0.2H37C37.1,27.7,37.3,27.8,37.5,27.8z"/>
	<path class="st1" d="M37.5,46.9c-0.3,0-0.5,0.2-0.5,0.5c0,0.1,0,0.2,0.1,0.3h0.9c0-0.1,0.1-0.2,0.1-0.3
		C38,47.1,37.8,46.9,37.5,46.9z"/>
	<circle class="st1" cx="32.6" cy="33.2" r="0.2"/>
	<circle class="st1" cx="38.5" cy="28.1" r="0.3"/>
	<path class="st1" d="M29.7,31.9c0-0.1-0.1-0.3-0.2-0.3v0.7C29.6,32.2,29.7,32.1,29.7,31.9z"/>
	<path class="st1" d="M49,31.9c0,0.2,0.2,0.4,0.4,0.4c0.1,0,0.1,0,0.2,0v-0.7c-0.1,0-0.1,0-0.2,0C49.2,31.5,49,31.7,49,31.9z"/>
	<circle class="st1" cx="45.9" cy="29.9" r="0.2"/>
	<circle class="st1" cx="47.6" cy="46.9" r="0.3"/>
	<circle class="st1" cx="37.4" cy="36.8" r="0.4"/>
	<circle class="st1" cx="36.4" cy="40.6" r="0.3"/>
	<circle class="st1" cx="38.1" cy="32.2" r="0.3"/>
	<circle class="st1" cx="46.2" cy="43.2" r="0.3"/>
	<circle class="st1" cx="48.1" cy="33.1" r="0.3"/>
	<circle class="st1" cx="36" cy="32.8" r="0.6"/>
	<circle class="st1" cx="33.1" cy="36.7" r="0.4"/>
	<circle class="st1" cx="45" cy="46.7" r="0.2"/>
	<circle class="st1" cx="39.7" cy="34.8" r="0.6"/>
	<circle class="st1" cx="32.5" cy="35.3" r="0.3"/>
	<circle class="st1" cx="45.2" cy="36.8" r="0.5"/>
	<circle class="st1" cx="37.3" cy="45.6" r="0.4"/>
	<circle class="st1" cx="37.5" cy="29" r="0.5"/>
	<path class="st1" d="M40.8,27.5h-0.7c0.1,0.1,0.2,0.1,0.3,0.1C40.6,27.7,40.7,27.6,40.8,27.5z"/>
	<path class="st1" d="M41.1,47.2c0-0.3-0.3-0.6-0.6-0.6c-0.3,0-0.6,0.3-0.6,0.6c0,0.2,0.1,0.3,0.2,0.5h0.7
		C41,47.5,41.1,47.4,41.1,47.2z"/>
	<circle class="st1" cx="41.1" cy="45.6" r="0.3"/>
	<circle class="st1" cx="33.9" cy="46.2" r="0.7"/>
	<circle class="st1" cx="40.3" cy="38.8" r="0.7"/>
	<circle class="st1" cx="30.4" cy="33.5" r="0.3"/>
	<circle class="st1" cx="44" cy="40.7" r="0.3"/>
	<circle class="st1" cx="49.2" cy="34.5" r="0.3"/>
	<circle class="st1" cx="36.9" cy="38.2" r="0.3"/>
	<circle class="st1" cx="44.1" cy="34.4" r="0.3"/>
	<circle class="st1" cx="44.9" cy="32.6" r="0.4"/>
	<path class="st1" d="M29.7,36.9c0-0.2-0.1-0.3-0.2-0.3v0.7C29.6,37.1,29.7,37,29.7,36.9z"/>
	<path class="st1" d="M49.1,36.9c0,0.2,0.2,0.4,0.4,0.4c0,0,0.1,0,0.1,0v-0.7c0,0-0.1,0-0.1,0C49.2,36.5,49.1,36.7,49.1,36.9z"/>
	<circle class="st1" cx="30.5" cy="43.4" r="0.4"/>
	<circle class="st1" cx="35.6" cy="46.4" r="0.4"/>
	<circle class="st1" cx="39.7" cy="28.8" r="0.4"/>
	<circle class="st1" cx="35.2" cy="36" r="0.7"/>
	<circle class="st1" cx="43.4" cy="43.6" r="0.5"/>
	<circle class="st1" cx="37.5" cy="35" r="0.6"/>
	<circle class="st1" cx="35.9" cy="39.5" r="0.4"/>
	<circle class="st1" cx="38.7" cy="31.3" r="0.4"/>
	<circle class="st1" cx="47" cy="42.8" r="0.3"/>
	<circle class="st1" cx="30.8" cy="37.5" r="0.5"/>
	<circle class="st1" cx="45.4" cy="38.1" r="0.4"/>
	<circle class="st1" cx="37.9" cy="30.3" r="0.4"/>
	<path class="st1" d="M49.6,29.4v-0.5c0,0.1,0,0.2,0,0.3C49.5,29.2,49.5,29.3,49.6,29.4z"/>
	<path class="st1" d="M30.2,30c0.4,0,0.8-0.4,0.8-0.8c0-0.4-0.4-0.8-0.8-0.8c-0.4,0-0.7,0.2-0.8,0.6v0.5C29.6,29.7,29.9,30,30.2,30z
		"/>
	<circle class="st1" cx="43.2" cy="35.7" r="0.4"/>
	<circle class="st1" cx="34.4" cy="29.4" r="0.4"/>
	<circle class="st1" cx="44.5" cy="41.9" r="0.2"/>
	<circle class="st1" cx="48.3" cy="38.4" r="0.7"/>
	<circle class="st1" cx="34.4" cy="38.2" r="0.7"/>
	<circle class="st1" cx="48.8" cy="46.5" r="0.4"/>
	<circle class="st1" cx="31.7" cy="36.1" r="0.3"/>
	<circle class="st1" cx="35.4" cy="31.1" r="0.8"/>
	<circle class="st1" cx="48" cy="28.2" r="0.5"/>
	<circle class="st1" cx="46.4" cy="45.5" r="0.3"/>
	<circle class="st1" cx="38" cy="41.1" r="0.8"/>
	<circle class="st1" cx="47.7" cy="30.6" r="0.7"/>
	<circle class="st1" cx="36.1" cy="47.3" r="0.3"/>
	<circle class="st1" cx="39.4" cy="45.8" r="0.4"/>
	<circle class="st1" cx="43.5" cy="30.7" r="0.3"/>
	<circle class="st1" cx="37" cy="43.7" r="1"/>
	<circle class="st1" cx="31.6" cy="45.3" r="0.9"/>
	<circle class="st1" cx="42.2" cy="34.7" r="0.4"/>
	<circle class="st1" cx="47" cy="35" r="1"/>
	<circle class="st1" cx="43.2" cy="32.8" r="0.2"/>
	<circle class="st1" cx="32.3" cy="31.3" r="1.2"/>
	<circle class="st1" cx="46.5" cy="47.1" r="0.4"/>
	<circle class="st1" cx="46.1" cy="39.4" r="0.2"/>
	<circle class="st1" cx="31.6" cy="33.3" r="0.3"/>
	<circle class="st1" cx="42.2" cy="37.5" r="0.8"/>
	<circle class="st1" cx="43.6" cy="45.5" r="0.3"/>
	<path class="st1" d="M31.6,27.7c0.1,0,0.3-0.1,0.4-0.2h-0.7C31.3,27.6,31.4,27.7,31.6,27.7z"/>
	<path class="st1" d="M31.6,46.8c-0.3,0-0.5,0.2-0.5,0.5c0,0.1,0.1,0.2,0.1,0.3h0.7c0.1-0.1,0.1-0.2,0.1-0.3
		C32.1,47,31.9,46.8,31.6,46.8z"/>
	<circle class="st1" cx="41.1" cy="44" r="0.6"/>
	<circle class="st1" cx="41.5" cy="41.6" r="1"/>
	<circle class="st1" cx="33.8" cy="41.8" r="1.1"/>
	<circle class="st1" cx="40.3" cy="32.5" r="1"/>
	<circle class="st1" cx="34.8" cy="44.1" r="0.6"/>
	<path class="st1" d="M43.4,27.8c0.2,0,0.5-0.1,0.6-0.3h-1.2C42.9,27.7,43.1,27.8,43.4,27.8z"/>
	<path class="st1" d="M43.4,46.4c-0.4,0-0.8,0.3-0.8,0.8c0,0.2,0.1,0.3,0.2,0.5H44c0.1-0.1,0.2-0.3,0.2-0.5
		C44.1,46.8,43.8,46.4,43.4,46.4z"/>
	<path class="st1" d="M49.4,47.3c0,0.1,0.1,0.2,0.2,0.2v-0.4C49.4,47.1,49.4,47.2,49.4,47.3z"/>
	<path class="st1" d="M29.7,47.3c0-0.1-0.1-0.2-0.2-0.2c0,0,0,0,0,0v0.4c0,0,0,0,0,0C29.6,47.5,29.7,47.4,29.7,47.3z"/>
	<circle class="st1" cx="34" cy="33.7" r="0.8"/>
	<circle class="st1" cx="39" cy="43.3" r="0.3"/>
	<circle class="st1" cx="45.1" cy="35.4" r="0.3"/>
	<circle class="st1" cx="43.7" cy="39.2" r="0.6"/>
	<circle class="st1" cx="31.7" cy="39.8" r="1.1"/>
	<path class="st1" d="M29.5,43.6v1c0.1-0.1,0.2-0.3,0.2-0.5S29.6,43.7,29.5,43.6z"/>
	<path class="st1" d="M48.8,43.2c-0.5,0-0.9,0.4-0.9,0.9c0,0.5,0.4,0.9,0.9,0.9c0.3,0,0.6-0.1,0.7-0.4v-1
		C49.4,43.3,49.1,43.2,48.8,43.2z"/>
	<path class="st1" d="M30,40.7c0-0.3-0.2-0.6-0.5-0.7v1.3C29.8,41.3,30,41,30,40.7z"/>
	<path class="st1" d="M48.7,40.7c0,0.4,0.3,0.7,0.7,0.7c0.1,0,0.1,0,0.2,0v-1.3c-0.1,0-0.1,0-0.2,0C49,40,48.7,40.3,48.7,40.7z"/>
	<circle class="st1" cx="47.8" cy="40.9" r="0.5"/>
	<circle class="st1" cx="30.4" cy="34.9" r="0.6"/>
	<circle class="st1" cx="45" cy="44.5" r="0.5"/>
	<circle class="st1" cx="35.8" cy="29.2" r="0.5"/>
	<circle class="st1" cx="36" cy="45.3" r="0.2"/>
	<circle class="st1" cx="42" cy="28.9" r="0.9"/>
	<circle class="st1" cx="38.2" cy="38.3" r="0.4"/>
	<circle class="st1" cx="39.6" cy="42.5" r="0.2"/>
	<path class="st1" d="M33.9,47.5c-0.1,0-0.2,0-0.3,0.1h0.5C34.1,47.6,34.1,47.5,33.9,47.5z"/>
	<path class="st1" d="M33.9,28.1c0.2,0,0.3-0.2,0.3-0.3c0-0.1,0-0.2-0.1-0.2h-0.5c0,0.1-0.1,0.1-0.1,0.2
		C33.6,28,33.8,28.1,33.9,28.1z"/>
	<circle class="st1" cx="44.8" cy="30.6" r="0.5"/>
</g>
</svg>
