<?xml version="1.0" encoding="utf-8"?>
<!-- Generator: Adobe Illustrator 21.0.0, SVG Export Plug-In . SVG Version: 6.00 Build 0)  -->
<svg version="1.1" id="Layer_1" xmlns="http://www.w3.org/2000/svg" xmlns:xlink="http://www.w3.org/1999/xlink" x="0px" y="0px"
	 viewBox="0 0 58.9 58.9" style="enable-background:new 0 0 58.9 58.9;" xml:space="preserve">
<style type="text/css">
	.st0{fill:url(#SVGID_1_);}
	.st1{opacity:0.2;}
	.st2{fill:#545454;}
	.st3{fill:#FFFFFF;}
</style>
<g>
	
		<linearGradient id="SVGID_1_" gradientUnits="userSpaceOnUse" x1="-152.5695" y1="518.2874" x2="-152.5695" y2="575.7149" gradientTransform="matrix(1 0 0 1 182.0195 -517.3477)">
		<stop  offset="0" style="stop-color:#7BBF40"/>
		<stop  offset="1" style="stop-color:#47A537"/>
	</linearGradient>
	<path class="st0" d="M58.9,50c0,4.9-4,8.8-8.8,8.8H8.8C4,58.9,0,54.9,0,50V8.8C0,4,4,0,8.8,0H50c4.9,0,8.8,4,8.8,8.8V50H58.9z"/>
</g>
<g class="st1">
	<rect x="17.2" y="12.3" class="st2" width="29.5" height="29.3"/>
</g>
<g>
	<circle class="st3" cx="22.8" cy="34.2" r="0.2"/>
	<circle class="st3" cx="29.5" cy="39.1" r="0.2"/>
	<path class="st3" d="M10.3,29.8c0-0.1-0.1-0.2-0.1-0.2V30C10.3,30,10.3,29.9,10.3,29.8z"/>
	<path class="st3" d="M34.3,29.8c0,0.1,0.1,0.2,0.2,0.2h0.1v-0.5h-0.1C34.4,29.5,34.3,29.7,34.3,29.8z"/>
	<circle class="st3" cx="19.8" cy="30" r="0.2"/>
	<circle class="st3" cx="19.8" cy="28.3" r="0.2"/>
	<circle class="st3" cx="33.7" cy="25.7" r="0.2"/>
	<circle class="st3" cx="14.6" cy="42.4" r="0.2"/>
	<circle class="st3" cx="32" cy="35" r="0.2"/>
	<circle class="st3" cx="31.1" cy="28.7" r="0.2"/>
	<circle class="st3" cx="30.4" cy="39.3" r="0.2"/>
	<circle class="st3" cx="24.2" cy="33.7" r="0.2"/>
	<circle class="st3" cx="23.3" cy="44.1" r="0.2"/>
	<circle class="st3" cx="25.5" cy="46.3" r="0.2"/>
	<circle class="st3" cx="11.8" cy="46.3" r="0.2"/>
	<circle class="st3" cx="26.4" cy="38.4" r="0.2"/>
	<circle class="st3" cx="10.9" cy="40.5" r="0.2"/>
	<circle class="st3" cx="30.5" cy="40.2" r="0.2"/>
	<circle class="st3" cx="21.5" cy="33.7" r="0.2"/>
	<circle class="st3" cx="22.4" cy="39.6" r="0.2"/>
	<circle class="st3" cx="17.1" cy="23.5" r="0.2"/>
	<circle class="st3" cx="14.2" cy="25.4" r="0.2"/>
	<circle class="st3" cx="28.7" cy="23.7" r="0.2"/>
	<circle class="st3" cx="30.3" cy="24" r="0.2"/>
	<circle class="st3" cx="31.2" cy="43" r="0.2"/>
	<circle class="st3" cx="22.5" cy="33.4" r="0.2"/>
	<circle class="st3" cx="28.3" cy="30.5" r="0.2"/>
	<circle class="st3" cx="25.8" cy="33.1" r="0.2"/>
	<circle class="st3" cx="27.8" cy="33.9" r="0.2"/>
	<circle class="st3" cx="33.5" cy="37.9" r="0.2"/>
	<circle class="st3" cx="33.4" cy="34.6" r="0.2"/>
	<circle class="st3" cx="33.9" cy="23.7" r="0.2"/>
	<circle class="st3" cx="33.5" cy="47.3" r="0.2"/>
	<circle class="st3" cx="20.7" cy="41.3" r="0.2"/>
	<circle class="st3" cx="26" cy="29.7" r="0.2"/>
	<circle class="st3" cx="26.7" cy="30.4" r="0.2"/>
	<circle class="st3" cx="27.7" cy="29.1" r="0.2"/>
	<circle class="st3" cx="11.4" cy="27.1" r="0.2"/>
	<circle class="st3" cx="28.8" cy="47.3" r="0.2"/>
	<circle class="st3" cx="32.3" cy="44.4" r="0.2"/>
	<circle class="st3" cx="23.6" cy="25.4" r="0.2"/>
	<circle class="st3" cx="21.5" cy="24.7" r="0.2"/>
	<circle class="st3" cx="33.9" cy="27.5" r="0.2"/>
	<path class="st3" d="M10.6,27.4c0-0.1-0.1-0.2-0.2-0.2h-0.1v0.5h0.1C10.4,27.6,10.6,27.5,10.6,27.4z"/>
	<path class="st3" d="M34.5,27.4c0,0.1,0.1,0.2,0.1,0.2v-0.5C34.5,27.1,34.5,27.2,34.5,27.4z"/>
	<circle class="st3" cx="30.7" cy="25.3" r="0.2"/>
	<circle class="st3" cx="29.7" cy="42.6" r="0.2"/>
	<circle class="st3" cx="32.1" cy="29.3" r="0.2"/>
	<circle class="st3" cx="33.5" cy="29.3" r="0.2"/>
	<circle class="st3" cx="19.4" cy="29.1" r="0.2"/>
	<circle class="st3" cx="14.3" cy="35.3" r="0.2"/>
	<circle class="st3" cx="14.7" cy="33.2" r="0.2"/>
	<circle class="st3" cx="23.5" cy="33.3" r="0.2"/>
	<circle class="st3" cx="28.6" cy="35.1" r="0.2"/>
	<circle class="st3" cx="19.1" cy="24.1" r="0.2"/>
	<circle class="st3" cx="24.4" cy="46" r="0.2"/>
	<circle class="st3" cx="25.3" cy="45.5" r="0.2"/>
	<circle class="st3" cx="23.2" cy="35" r="0.4"/>
	<circle class="st3" cx="10.9" cy="29.4" r="0.2"/>
	<circle class="st3" cx="28.8" cy="38.7" r="0.2"/>
	<circle class="st3" cx="27.6" cy="40.2" r="0.2"/>
	<circle class="st3" cx="34.1" cy="30.6" r="0.2"/>
	<circle class="st3" cx="18.6" cy="35.3" r="0.2"/>
	<circle class="st3" cx="29.3" cy="30.4" r="0.2"/>
	<circle class="st3" cx="30.1" cy="28.7" r="0.2"/>
	<circle class="st3" cx="33.8" cy="33.6" r="0.2"/>
	<circle class="st3" cx="11.5" cy="41.2" r="0.2"/>
	<circle class="st3" cx="12.5" cy="41.7" r="0.2"/>
	<circle class="st3" cx="18.6" cy="45.6" r="0.2"/>
	<circle class="st3" cx="17.3" cy="47.2" r="0.2"/>
	<circle class="st3" cx="22.5" cy="23.6" r="0.2"/>
	<circle class="st3" cx="22.7" cy="25.9" r="0.2"/>
	<circle class="st3" cx="23.5" cy="24.1" r="0.2"/>
	<circle class="st3" cx="17.7" cy="32" r="0.2"/>
	<circle class="st3" cx="18.2" cy="34.5" r="0.2"/>
	<circle class="st3" cx="15.7" cy="32.9" r="0.2"/>
	<circle class="st3" cx="19.1" cy="33.3" r="0.2"/>
	<circle class="st3" cx="21.4" cy="32.7" r="0.2"/>
	<circle class="st3" cx="18.6" cy="31.6" r="0.2"/>
	<circle class="st3" cx="20.7" cy="33.6" r="0.2"/>
	<circle class="st3" cx="19.3" cy="30.8" r="0.2"/>
	<circle class="st3" cx="21" cy="30.6" r="0.6"/>
	<circle class="st3" cx="17.4" cy="38.5" r="0.2"/>
	<circle class="st3" cx="18.7" cy="37" r="0.2"/>
	<circle class="st3" cx="22.6" cy="27" r="0.4"/>
	<circle class="st3" cx="30.6" cy="41.2" r="0.2"/>
	<circle class="st3" cx="30.4" cy="35.1" r="0.2"/>
	<circle class="st3" cx="19.8" cy="27.4" r="0.2"/>
	<circle class="st3" cx="21.3" cy="25.8" r="0.4"/>
	<circle class="st3" cx="12.8" cy="24.2" r="0.2"/>
	<circle class="st3" cx="15.2" cy="25.9" r="0.2"/>
	<circle class="st3" cx="27.8" cy="41.1" r="0.2"/>
	<circle class="st3" cx="28.9" cy="41.6" r="0.4"/>
	<circle class="st3" cx="29.4" cy="40.5" r="0.2"/>
	<circle class="st3" cx="28.8" cy="39.8" r="0.2"/>
	<path class="st3" d="M10.6,35.9c0-0.1-0.1-0.2-0.2-0.2l0,0v0.5l0,0C10.4,36.1,10.6,36,10.6,35.9z"/>
	<path class="st3" d="M34.4,35.9c0,0.1,0.1,0.2,0.2,0.2v-0.5C34.5,35.6,34.4,35.6,34.4,35.9z"/>
	<circle class="st3" cx="31.5" cy="36" r="0.2"/>
	<circle class="st3" cx="16.6" cy="37.6" r="0.2"/>
	<circle class="st3" cx="17.7" cy="36.6" r="0.2"/>
	<circle class="st3" cx="15.8" cy="34.5" r="0.2"/>
	<circle class="st3" cx="17.7" cy="35.6" r="0.2"/>
	<circle class="st3" cx="12" cy="33.3" r="0.2"/>
	<circle class="st3" cx="13.1" cy="34.5" r="0.4"/>
	<circle class="st3" cx="19" cy="26.7" r="0.2"/>
	<circle class="st3" cx="19.1" cy="28" r="0.2"/>
	<circle class="st3" cx="31.4" cy="23.8" r="0.2"/>
	<circle class="st3" cx="33.8" cy="24.7" r="0.2"/>
	<circle class="st3" cx="31.2" cy="44.1" r="0.2"/>
	<circle class="st3" cx="32" cy="45.3" r="0.4"/>
	<circle class="st3" cx="21" cy="37.9" r="0.2"/>
	<circle class="st3" cx="19.7" cy="38.1" r="0.2"/>
	<circle class="st3" cx="19.2" cy="40.6" r="0.2"/>
	<circle class="st3" cx="21.9" cy="38.4" r="0.2"/>
	<circle class="st3" cx="30.7" cy="26.7" r="0.2"/>
	<circle class="st3" cx="33.9" cy="26.5" r="0.2"/>
	<circle class="st3" cx="32.2" cy="28.3" r="0.2"/>
	<circle class="st3" cx="33.1" cy="28.3" r="0.2"/>
	<circle class="st3" cx="32.8" cy="25.3" r="0.2"/>
	<circle class="st3" cx="31.7" cy="25.3" r="0.5"/>
	<circle class="st3" cx="31.2" cy="27.8" r="0.2"/>
	<circle class="st3" cx="19.1" cy="46.4" r="0.2"/>
	<circle class="st3" cx="23.5" cy="45.1" r="0.2"/>
	<circle class="st3" cx="22.4" cy="44.1" r="0.2"/>
	<circle class="st3" cx="21.6" cy="46.6" r="0.4"/>
	<circle class="st3" cx="21" cy="45.3" r="0.4"/>
	<circle class="st3" cx="18" cy="41.3" r="0.2"/>
	<circle class="st3" cx="20.8" cy="44.1" r="0.2"/>
	<circle class="st3" cx="11.2" cy="43.5" r="0.2"/>
	<circle class="st3" cx="14.6" cy="44.4" r="0.2"/>
	<circle class="st3" cx="13.8" cy="43" r="0.2"/>
	<circle class="st3" cx="12.9" cy="42.7" r="0.2"/>
	<circle class="st3" cx="26.9" cy="31.4" r="0.2"/>
	<circle class="st3" cx="24.5" cy="31.2" r="0.2"/>
	<circle class="st3" cx="24.4" cy="32.5" r="0.4"/>
	<circle class="st3" cx="33.3" cy="31.2" r="0.2"/>
	<circle class="st3" cx="33.4" cy="32.7" r="0.2"/>
	<circle class="st3" cx="29.8" cy="31.2" r="0.2"/>
	<circle class="st3" cx="31.7" cy="34.3" r="0.2"/>
	<circle class="st3" cx="30.6" cy="33.9" r="0.2"/>
	<circle class="st3" cx="30.7" cy="29.9" r="0.5"/>
	<circle class="st3" cx="32.7" cy="34" r="0.4"/>
	<circle class="st3" cx="27.7" cy="29.9" r="0.2"/>
	<circle class="st3" cx="26.9" cy="28.4" r="0.4"/>
	<circle class="st3" cx="15.8" cy="26.6" r="0.2"/>
	<circle class="st3" cx="13.1" cy="25.5" r="0.2"/>
	<circle class="st3" cx="11.3" cy="28.2" r="0.4"/>
	<circle class="st3" cx="30" cy="46.2" r="0.2"/>
	<path class="st3" d="M29.9,23.2c0.1,0,0.1,0,0.2-0.1h-0.5C29.7,23.2,29.8,23.2,29.9,23.2z"/>
	<path class="st3" d="M29.9,47c-0.1,0-0.4,0.1-0.4,0.4c0,0.1,0,0.1,0.1,0.2h0.5c0,0,0.1-0.1,0.1-0.2C30.1,47.2,30,47,29.9,47z"/>
	<circle class="st3" cx="30.3" cy="38.5" r="0.2"/>
	<circle class="st3" cx="30.7" cy="36.8" r="0.2"/>
	<circle class="st3" cx="11.9" cy="29.4" r="0.2"/>
	<circle class="st3" cx="12.6" cy="31.2" r="0.4"/>
	<circle class="st3" cx="25" cy="33.6" r="0.2"/>
	<circle class="st3" cx="24.2" cy="34.5" r="0.2"/>
	<circle class="st3" cx="25.3" cy="37" r="0.2"/>
	<circle class="st3" cx="27.5" cy="34.8" r="0.4"/>
	<circle class="st3" cx="27" cy="44" r="0.2"/>
	<circle class="st3" cx="14.1" cy="47" r="0.2"/>
	<circle class="st3" cx="23" cy="43.4" r="0.2"/>
	<circle class="st3" cx="25.9" cy="43" r="0.2"/>
	<circle class="st3" cx="25.6" cy="44.1" r="0.4"/>
	<circle class="st3" cx="24.3" cy="38.3" r="0.2"/>
	<circle class="st3" cx="26.7" cy="41" r="0.2"/>
	<circle class="st3" cx="26.7" cy="39.5" r="0.2"/>
	<circle class="st3" cx="25.6" cy="42.1" r="0.2"/>
	<circle class="st3" cx="25.3" cy="38.2" r="0.2"/>
	<circle class="st3" cx="23.1" cy="39" r="0.4"/>
	<circle class="st3" cx="15.9" cy="38.4" r="0.2"/>
	<circle class="st3" cx="13.7" cy="41.9" r="0.2"/>
	<circle class="st3" cx="17.9" cy="40" r="0.5"/>
	<circle class="st3" cx="25.5" cy="29.1" r="0.2"/>
	<circle class="st3" cx="25.3" cy="30.2" r="0.4"/>
	<circle class="st3" cx="15.1" cy="43.4" r="0.2"/>
	<circle class="st3" cx="17.4" cy="42.1" r="0.2"/>
	<circle class="st3" cx="17" cy="44.7" r="0.2"/>
	<circle class="st3" cx="26.1" cy="45.7" r="0.2"/>
	<circle class="st3" cx="10.6" cy="46.3" r="0.2"/>
	<path class="st3" d="M11.4,23.1h-0.4h0.1C11.4,23.2,11.4,23.2,11.4,23.1z"/>
	<path class="st3" d="M11.7,47.2c0-0.2-0.1-0.4-0.4-0.4s-0.4,0.1-0.4,0.4c0,0.1,0.1,0.2,0.2,0.4h0.4C11.7,47.5,11.7,47.4,11.7,47.2z
		"/>
	<circle class="st3" cx="17.5" cy="30.9" r="0.2"/>
	<circle class="st3" cx="16.3" cy="28.9" r="0.2"/>
	<circle class="st3" cx="16.9" cy="31.9" r="0.2"/>
	<circle class="st3" cx="14.8" cy="32.1" r="0.2"/>
	<circle class="st3" cx="14" cy="31.2" r="0.4"/>
	<circle class="st3" cx="22" cy="43.3" r="0.2"/>
	<circle class="st3" cx="28.6" cy="33.4" r="0.2"/>
	<circle class="st3" cx="29" cy="31.7" r="0.2"/>
	<circle class="st3" cx="28.3" cy="32.6" r="0.2"/>
	<circle class="st3" cx="27.9" cy="36" r="0.2"/>
	<circle class="st3" cx="27.1" cy="38.7" r="0.2"/>
	<circle class="st3" cx="26" cy="37.4" r="0.2"/>
	<circle class="st3" cx="29.2" cy="37.4" r="0.4"/>
	<circle class="st3" cx="14.5" cy="36.6" r="0.2"/>
	<circle class="st3" cx="11.7" cy="39.9" r="0.2"/>
	<circle class="st3" cx="10.9" cy="37" r="0.2"/>
	<circle class="st3" cx="12.6" cy="40.5" r="0.5"/>
	<circle class="st3" cx="13.4" cy="36" r="0.2"/>
	<circle class="st3" cx="14.9" cy="37.4" r="0.2"/>
	<circle class="st3" cx="31.8" cy="43.6" r="0.2"/>
	<circle class="st3" cx="33.3" cy="45.1" r="0.2"/>
	<circle class="st3" cx="32.6" cy="41.8" r="0.2"/>
	<circle class="st3" cx="32" cy="42.6" r="0.2"/>
	<path class="st3" d="M10.9,45.1c0-0.2-0.2-0.5-0.5-0.5c-0.1,0-0.2,0-0.2,0.1v0.9c0.1,0,0.1,0.1,0.2,0.1
		C10.8,45.6,10.9,45.3,10.9,45.1z"/>
	<path class="st3" d="M34.4,45.1c0,0.1,0.1,0.4,0.2,0.4v-0.9C34.5,44.7,34.4,44.9,34.4,45.1z"/>
	<path class="st3" d="M10.3,37.6c0-0.1,0-0.1-0.1-0.2v0.5C10.3,37.7,10.3,37.7,10.3,37.6z"/>
	<path class="st3" d="M34.3,37.6c0,0.1,0.1,0.2,0.2,0.2h0.1v-0.5h-0.1C34.4,37.3,34.3,37.4,34.3,37.6z"/>
	<path class="st3" d="M10.2,40.7v0.5c0-0.1,0.1-0.1,0.1-0.2S10.2,40.7,10.2,40.7z"/>
	<path class="st3" d="M34.3,40.5c-0.2,0-0.5,0.2-0.5,0.5s0.2,0.5,0.5,0.5c0.1,0,0.2-0.1,0.4-0.2v-0.5C34.5,40.6,34.4,40.5,34.3,40.5
		z"/>
	<circle class="st3" cx="32.7" cy="38.1" r="0.2"/>
	<circle class="st3" cx="32" cy="40.6" r="0.4"/>
	<circle class="st3" cx="33.1" cy="40.6" r="0.4"/>
	<circle class="st3" cx="31.4" cy="39.8" r="0.2"/>
	<circle class="st3" cx="31.5" cy="38.1" r="0.5"/>
	<circle class="st3" cx="11.1" cy="33.4" r="0.2"/>
	<path class="st3" d="M34.3,32.7c0,0.1,0.1,0.2,0.2,0.2h0.1v-0.5h-0.1C34.4,32.5,34.3,32.6,34.3,32.7z"/>
	<path class="st3" d="M10.3,32.7c0-0.1-0.1-0.2-0.1-0.2v0.5C10.3,32.8,10.3,32.8,10.3,32.7z"/>
	<circle class="st3" cx="12.9" cy="32.3" r="0.4"/>
	<circle class="st3" cx="27.9" cy="43.8" r="0.2"/>
	<circle class="st3" cx="28.6" cy="42.6" r="0.2"/>
	<circle class="st3" cx="29.7" cy="44.9" r="0.2"/>
	<circle class="st3" cx="30.3" cy="43.5" r="0.2"/>
	<circle class="st3" cx="28.6" cy="45.1" r="0.5"/>
	<circle class="st3" cx="19" cy="25.8" r="0.2"/>
	<circle class="st3" cx="18.1" cy="23.8" r="0.4"/>
	<circle class="st3" cx="26.9" cy="26" r="0.2"/>
	<circle class="st3" cx="27.5" cy="24.4" r="0.4"/>
	<circle class="st3" cx="25.4" cy="47.2" r="0.2"/>
	<circle class="st3" cx="25.6" cy="27.2" r="0.7"/>
	<circle class="st3" cx="24.2" cy="26.5" r="0.5"/>
	<circle class="st3" cx="21.7" cy="36.7" r="0.2"/>
	<circle class="st3" cx="21.7" cy="35" r="0.6"/>
	<circle class="st3" cx="20" cy="37.1" r="0.2"/>
	<circle class="st3" cx="21.6" cy="41.3" r="0.2"/>
	<circle class="st3" cx="22.1" cy="40.5" r="0.2"/>
	<circle class="st3" cx="23" cy="42.3" r="0.4"/>
	<circle class="st3" cx="16.5" cy="24.2" r="0.4"/>
	<circle class="st3" cx="14.3" cy="24.2" r="0.6"/>
	<circle class="st3" cx="29.7" cy="27.8" r="0.2"/>
	<circle class="st3" cx="28.1" cy="28.1" r="0.4"/>
	<circle class="st3" cx="27.8" cy="25.8" r="0.4"/>
	<circle class="st3" cx="29.3" cy="25" r="0.7"/>
	<path class="st3" d="M19.9,23.5c0.2,0,0.5-0.1,0.5-0.2h-1C19.6,23.3,19.7,23.5,19.9,23.5z"/>
	<path class="st3" d="M19.9,46.7c-0.4,0-0.6,0.2-0.6,0.6c0,0.1,0,0.2,0.1,0.4h1.1c0-0.1,0.1-0.2,0.1-0.4
		C20.5,46.9,20.3,46.7,19.9,46.7z"/>
	<circle class="st3" cx="14" cy="30" r="0.2"/>
	<circle class="st3" cx="21.1" cy="23.8" r="0.4"/>
	<path class="st3" d="M10.4,28.4c0-0.1-0.1-0.4-0.2-0.4v0.9C10.3,28.8,10.4,28.6,10.4,28.4z"/>
	<path class="st3" d="M33.9,28.4c0,0.2,0.2,0.5,0.5,0.5c0.1,0,0.1,0,0.2,0v-0.9c-0.1,0-0.1,0-0.2,0C34.1,28,33.9,28.2,33.9,28.4z"/>
	<circle class="st3" cx="30.3" cy="26" r="0.2"/>
	<circle class="st3" cx="32.3" cy="46.7" r="0.4"/>
	<circle class="st3" cx="19.9" cy="34.4" r="0.5"/>
	<circle class="st3" cx="18.7" cy="39" r="0.4"/>
	<circle class="st3" cx="20.7" cy="28.8" r="0.4"/>
	<circle class="st3" cx="30.6" cy="42.2" r="0.4"/>
	<circle class="st3" cx="32.8" cy="29.9" r="0.4"/>
	<circle class="st3" cx="18.1" cy="29.5" r="0.7"/>
	<circle class="st3" cx="14.6" cy="34.3" r="0.5"/>
	<circle class="st3" cx="29.2" cy="46.3" r="0.2"/>
	<circle class="st3" cx="22.7" cy="32" r="0.7"/>
	<circle class="st3" cx="14" cy="32.6" r="0.4"/>
	<circle class="st3" cx="29.4" cy="34.4" r="0.6"/>
	<circle class="st3" cx="19.8" cy="45.1" r="0.5"/>
	<circle class="st3" cx="20" cy="24.8" r="0.6"/>
	<path class="st3" d="M24.1,23.1h-0.9c0.1,0.1,0.2,0.1,0.4,0.1C23.7,23.2,23.9,23.2,24.1,23.1z"/>
	<path class="st3" d="M24.3,47c0-0.4-0.4-0.7-0.7-0.7s-0.7,0.4-0.7,0.7c0,0.2,0.1,0.4,0.2,0.6h0.9C24.2,47.4,24.3,47.3,24.3,47z"/>
	<circle class="st3" cx="24.4" cy="45" r="0.4"/>
	<circle class="st3" cx="15.5" cy="45.7" r="0.9"/>
	<circle class="st3" cx="23.5" cy="36.8" r="0.9"/>
	<circle class="st3" cx="11.3" cy="30.4" r="0.4"/>
	<circle class="st3" cx="27.9" cy="39.1" r="0.4"/>
	<circle class="st3" cx="34.1" cy="31.6" r="0.4"/>
	<circle class="st3" cx="19.2" cy="36.1" r="0.4"/>
	<circle class="st3" cx="28.1" cy="31.5" r="0.4"/>
	<circle class="st3" cx="29" cy="29.2" r="0.5"/>
	<path class="st3" d="M10.4,34.4c0-0.2-0.1-0.4-0.2-0.4v0.9C10.3,34.8,10.4,34.6,10.4,34.4z"/>
	<path class="st3" d="M34,34.4c0,0.2,0.2,0.5,0.5,0.5h0.1V34h-0.1C34.3,34,34,34.3,34,34.4z"/>
	<circle class="st3" cx="11.4" cy="42.4" r="0.5"/>
	<circle class="st3" cx="17.6" cy="46.1" r="0.5"/>
	<circle class="st3" cx="22.6" cy="24.7" r="0.5"/>
	<circle class="st3" cx="17.1" cy="33.4" r="0.9"/>
	<circle class="st3" cx="27.2" cy="42.7" r="0.6"/>
	<circle class="st3" cx="19.9" cy="32.2" r="0.7"/>
	<circle class="st3" cx="18" cy="37.7" r="0.5"/>
	<circle class="st3" cx="21.5" cy="27.7" r="0.5"/>
	<circle class="st3" cx="31.6" cy="41.7" r="0.4"/>
	<circle class="st3" cx="11.9" cy="35.3" r="0.6"/>
	<circle class="st3" cx="29.5" cy="35.9" r="0.5"/>
	<circle class="st3" cx="20.5" cy="26.5" r="0.5"/>
	<path class="st3" d="M34.6,25.4v-0.6c0,0.1,0,0.2,0,0.4C34.6,25.2,34.6,25.3,34.6,25.4z"/>
	<path class="st3" d="M11.2,26c0.5,0,1-0.5,1-1s-0.5-1-1-1c-0.5,0-0.9,0.2-1,0.7v0.6C10.3,25.8,10.7,26,11.2,26z"/>
	<circle class="st3" cx="27" cy="33.1" r="0.5"/>
	<circle class="st3" cx="16.2" cy="25.4" r="0.5"/>
	<circle class="st3" cx="28.4" cy="40.6" r="0.2"/>
	<circle class="st3" cx="33.2" cy="36.4" r="0.9"/>
	<circle class="st3" cx="16.2" cy="36.1" r="0.9"/>
	<circle class="st3" cx="33.8" cy="46.2" r="0.5"/>
	<circle class="st3" cx="12.9" cy="33.6" r="0.4"/>
	<circle class="st3" cx="17.5" cy="27.4" r="1"/>
	<circle class="st3" cx="32.7" cy="24" r="0.6"/>
	<circle class="st3" cx="30.7" cy="45" r="0.4"/>
	<circle class="st3" cx="20.5" cy="39.6" r="1"/>
	<circle class="st3" cx="32.4" cy="26.7" r="0.9"/>
	<circle class="st3" cx="18.3" cy="47" r="0.4"/>
	<circle class="st3" cx="22.2" cy="45.3" r="0.5"/>
	<circle class="st3" cx="27.3" cy="27" r="0.4"/>
	<circle class="st3" cx="19.3" cy="42.8" r="1.2"/>
	<circle class="st3" cx="12.8" cy="44.7" r="1.1"/>
	<circle class="st3" cx="25.6" cy="31.9" r="0.5"/>
	<circle class="st3" cx="31.6" cy="32.2" r="1.2"/>
	<circle class="st3" cx="27" cy="29.5" r="0.2"/>
	<circle class="st3" cx="13.7" cy="27.7" r="1.5"/>
	<circle class="st3" cx="30.9" cy="46.8" r="0.5"/>
	<circle class="st3" cx="30.4" cy="37.6" r="0.2"/>
	<circle class="st3" cx="12.8" cy="30.2" r="0.4"/>
	<circle class="st3" cx="25.8" cy="35.1" r="1"/>
	<circle class="st3" cx="27.5" cy="45" r="0.4"/>
	<path class="st3" d="M12.8,23.3c0.1,0,0.4-0.1,0.5-0.2h-0.9C12.5,23.2,12.6,23.3,12.8,23.3z"/>
	<path class="st3" d="M12.8,46.6c-0.4,0-0.6,0.2-0.6,0.6c0,0.1,0.1,0.2,0.1,0.4h0.9c0.1-0.1,0.1-0.2,0.1-0.4
		C13.4,46.8,13.1,46.6,12.8,46.6z"/>
	<circle class="st3" cx="24.4" cy="43" r="0.7"/>
	<circle class="st3" cx="24.9" cy="40.2" r="1.2"/>
	<circle class="st3" cx="15.5" cy="40.5" r="1.3"/>
	<circle class="st3" cx="23.3" cy="29.2" r="1.2"/>
	<circle class="st3" cx="16.6" cy="43.3" r="0.7"/>
	<path class="st3" d="M27.1,23.5c0.2,0,0.6-0.1,0.7-0.4h-1.5C26.6,23.3,26.9,23.5,27.1,23.5z"/>
	<path class="st3" d="M27.1,46.1c-0.5,0-1,0.4-1,1c0,0.2,0.1,0.4,0.2,0.6h1.5c0.1-0.1,0.2-0.4,0.2-0.6
		C28.1,46.4,27.6,46.1,27.1,46.1z"/>
	<path class="st3" d="M34.4,47.2c0,0.1,0.1,0.2,0.2,0.2v-0.5C34.5,46.9,34.4,47,34.4,47.2z"/>
	<path class="st3" d="M10.4,47.2c0-0.1-0.1-0.2-0.2-0.2l0,0v0.5l0,0C10.3,47.4,10.4,47.3,10.4,47.2z"/>
	<circle class="st3" cx="15.8" cy="30.6" r="1"/>
	<circle class="st3" cx="21.7" cy="42.3" r="0.4"/>
	<circle class="st3" cx="29.2" cy="32.7" r="0.4"/>
	<circle class="st3" cx="27.5" cy="37.2" r="0.7"/>
	<circle class="st3" cx="12.9" cy="38.1" r="1.3"/>
	<path class="st3" d="M10.2,42.6v1.2c0.1-0.1,0.2-0.4,0.2-0.6C10.4,43,10.3,42.8,10.2,42.6z"/>
	<path class="st3" d="M33.8,42.2c-0.6,0-1.1,0.5-1.1,1.1s0.5,1.1,1.1,1.1c0.4,0,0.7-0.1,0.9-0.5v-1.2C34.4,42.3,34.1,42.2,33.8,42.2
		z"/>
	<path class="st3" d="M10.8,39.1c0-0.4-0.2-0.7-0.6-0.9v1.6C10.6,39.9,10.8,39.5,10.8,39.1z"/>
	<path class="st3" d="M33.7,39.1c0,0.5,0.4,0.9,0.9,0.9c0.1,0,0.1,0,0.2,0v-1.6c-0.1,0-0.1,0-0.2,0C34,38.3,33.7,38.7,33.7,39.1z"/>
	<circle class="st3" cx="32.4" cy="39.4" r="0.6"/>
	<circle class="st3" cx="11.3" cy="32.1" r="0.7"/>
	<circle class="st3" cx="29" cy="43.8" r="0.6"/>
	<circle class="st3" cx="17.9" cy="25.2" r="0.6"/>
	<circle class="st3" cx="18.1" cy="44.7" r="0.2"/>
	<circle class="st3" cx="25.4" cy="24.8" r="1.1"/>
	<circle class="st3" cx="20.8" cy="36.1" r="0.5"/>
	<circle class="st3" cx="22.5" cy="41.3" r="0.2"/>
	<path class="st3" d="M15.7,47.4c-0.1,0-0.2,0-0.4,0.1h0.6C15.9,47.5,15.8,47.4,15.7,47.4z"/>
	<path class="st3" d="M15.7,23.8c0.2,0,0.4-0.2,0.4-0.4c0-0.1,0-0.2-0.1-0.2h-0.6c0,0.1-0.1,0.1-0.1,0.2
		C15.2,23.6,15.4,23.8,15.7,23.8z"/>
	<circle class="st3" cx="28.8" cy="26.9" r="0.6"/>
</g>
<g>
	<rect x="19.2" y="10.3" class="st3" width="29.5" height="29.3"/>
</g>
<g>
	<g>
		<path class="st3" d="M35.5,47.7V22.9c0-0.5-0.3-0.7-0.7-0.7H9.9c-0.5,0-0.7,0.3-0.7,0.7v24.8c0,0.5,0.3,0.7,0.7,0.7h24.9
			C35.2,48.3,35.5,48,35.5,47.7z M34,46.9H10.6V23.6h23.6l0,0v23.3H34z"/>
	</g>
</g>
</svg>
