<?xml version="1.0" encoding="utf-8"?>
<!-- Generator: Adobe Illustrator 21.0.0, SVG Export Plug-In . SVG Version: 6.00 Build 0)  -->
<svg version="1.1" id="Layer_1" xmlns="http://www.w3.org/2000/svg" xmlns:xlink="http://www.w3.org/1999/xlink" x="0px" y="0px"
	 viewBox="0 0 58.9 58.9" style="enable-background:new 0 0 58.9 58.9;" xml:space="preserve">
<style type="text/css">
	.st0{fill:url(#SVGID_1_);}
	.st1{fill:#FFFFFF;}
</style>
<g>
	
		<linearGradient id="SVGID_1_" gradientUnits="userSpaceOnUse" x1="-152.5925" y1="-478.2874" x2="-152.5925" y2="-535.7149" gradientTransform="matrix(1 0 0 -1 182.0195 -477.3477)">
		<stop  offset="0" style="stop-color:#7BBF40"/>
		<stop  offset="1" style="stop-color:#47A537"/>
	</linearGradient>
	<path class="st0" d="M58.9,50c0,4.9-4,8.8-8.8,8.8H8.8C4,58.9,0,54.9,0,50V8.8C0,4,4,0,8.8,0H50c4.9,0,8.8,4,8.8,8.8V50z"/>
</g>
<g>
	<g>
		<path class="st1" d="M45.7,14.8h-7.9v-1.3c0-2.3-1.9-4.2-4.2-4.2h-7.5c-2.3,0-4.2,1.9-4.2,4.2v1.3h-7.9c-0.6,0-1.1,0.5-1.1,1.1
			c0,0.6,0.5,1.1,1.1,1.1H16v24.7c0,3.1,2.5,5.6,5.6,5.6h16.5c3.1,0,5.6-2.5,5.6-5.6V16.9h1.9c0.6,0,1.1-0.5,1.1-1.1
			C46.7,15.2,46.3,14.8,45.7,14.8z M24.1,13.5c0-1.1,0.9-2.1,2.1-2.1h7.5c1.1,0,2.1,0.9,2.1,2.1v1.3H24.1V13.5z M41.7,41.6
			c0,1.9-1.6,3.5-3.5,3.5H21.6c-1.9,0-3.5-1.6-3.5-3.5V16.9h23.6L41.7,41.6L41.7,41.6z"/>
		<path class="st1" d="M29.9,41.3c0.6,0,1.1-0.5,1.1-1.1V21.7c0-0.6-0.5-1.1-1.1-1.1s-1.1,0.5-1.1,1.1v18.6
			C28.8,40.9,29.3,41.3,29.9,41.3z"/>
		<path class="st1" d="M23,40.2c0.6,0,1.1-0.5,1.1-1.1V22.8c0-0.6-0.5-1.1-1.1-1.1c-0.6,0-1.1,0.5-1.1,1.1v16.3
			C22,39.7,22.4,40.2,23,40.2z"/>
		<path class="st1" d="M36.7,40.2c0.6,0,1.1-0.5,1.1-1.1V22.8c0-0.6-0.5-1.1-1.1-1.1s-1.1,0.5-1.1,1.1v16.3
			C35.7,39.7,36.2,40.2,36.7,40.2z"/>
	</g>
</g>
</svg>
