<?xml version="1.0" encoding="utf-8"?>
<!-- Generator: Adobe Illustrator 21.0.0, SVG Export Plug-In . SVG Version: 6.00 Build 0)  -->
<svg version="1.1" id="Layer_1" xmlns="http://www.w3.org/2000/svg" xmlns:xlink="http://www.w3.org/1999/xlink" x="0px" y="0px"
	 viewBox="0 0 58.9 58.9" style="enable-background:new 0 0 58.9 58.9;" xml:space="preserve">
<style type="text/css">
	.st0{fill:#FFFFFF;}
</style>
<g>
	<g>
		<path class="st0" d="M49.5,29.4l-5.3-5.3L32.5,35.6L29.4,45l9.3-3.2l11.6-11.6L49.5,29.4L49.5,29.4z M31.2,43.2l1.7-5.5l3.7,3.7
			L31.2,43.2z"/>
		<path class="st0" d="M53.5,26.4L48,20.8c-0.2-0.2-0.5-0.2-0.6,0L45.1,23c-0.2,0.2-0.2,0.5,0,0.6l5.5,5.5c0.2,0.2,0.5,0.2,0.6,0
			l2.2-2.2C53.7,26.8,53.7,26.6,53.5,26.4z"/>
		<path class="st0" d="M9.3,36.6V17.9h28.5v8.3l2.6-2.6v-8.2c0-0.4-0.3-0.7-0.7-0.7H6.9c-0.4,0-0.7,0.3-0.7,0.7v28.5
			c0,0.4,0.3,0.7,0.7,0.7h20.6l2.7-8H9.3z"/>
		<path class="st0" d="M18.3,31.6c-5-10-8.3,2.7-8.3,2.7h7.4h2h10.7C24.4,19.3,20,27,18.3,31.6z"/>
		<circle class="st0" cx="30.8" cy="22.2" r="2.8"/>
	</g>
</g>
</svg>
