<?xml version="1.0" encoding="utf-8"?>
<!-- Generator: Adobe Illustrator 21.0.0, SVG Export Plug-In . SVG Version: 6.00 Build 0)  -->
<svg version="1.1" id="Layer_1" xmlns="http://www.w3.org/2000/svg" xmlns:xlink="http://www.w3.org/1999/xlink" x="0px" y="0px"
	 viewBox="0 0 58.9 58.9" style="enable-background:new 0 0 58.9 58.9;" xml:space="preserve">
<style type="text/css">
	.st0{fill:url(#SVGID_1_);}
	.st1{fill:#FFFFFF;}
</style>
<g>
	
		<linearGradient id="SVGID_1_" gradientUnits="userSpaceOnUse" x1="-152.5695" y1="518.2874" x2="-152.5695" y2="575.7149" gradientTransform="matrix(1 0 0 1 182.0195 -517.3477)">
		<stop  offset="0" style="stop-color:#7BBF40"/>
		<stop  offset="1" style="stop-color:#47A537"/>
	</linearGradient>
	<path class="st0" d="M58.9,50c0,4.9-4,8.8-8.8,8.8H8.8C4,58.9,0,54.9,0,50V8.8C0,4,4,0,8.8,0H50c4.9,0,8.8,4,8.8,8.8V50H58.9z"/>
</g>
<path class="st1" d="M29.3,8.9L29.3,8.9c3.4,0,6.7,1.8,9.3,4.9l-2.8,2.9h7.8V9l-3.1,3.1c-3.1-3.6-7-5.7-11.1-5.7l0,0
	c-4.9,0-9.3,2.6-12.7,7.5l2.1,1.5C21.6,11.3,25.2,8.9,29.3,8.9z"/>
<g>
	<g>
		<path class="st1" d="M50.2,19.9c-0.3-0.1-0.7-0.1-1,0.1L35.9,31.4c-0.2,0.2-0.3,0.4-0.3,0.7c0,0.3,0.1,0.5,0.3,0.7l13.4,11.3
			c0.2,0.1,0.4,0.2,0.6,0.2c0.1,0,0.3,0,0.4-0.1c0.3-0.1,0.5-0.5,0.5-0.8V20.8C50.7,20.4,50.5,20.1,50.2,19.9z M49,41.5l-11.1-9.4
			L49,22.7V41.5z"/>
	</g>
</g>
<g>
	<g>
		<path class="st1" d="M24.5,31.4L11,20.1c-0.3-0.2-0.6-0.3-1-0.1c-0.3,0.1-0.5,0.5-0.5,0.8v22.7c0,0.3,0.2,0.7,0.5,0.8
			c0.1,0.1,0.2,0.1,0.4,0.1c0.2,0,0.4-0.1,0.6-0.2l13.4-11.3c0.2-0.2,0.3-0.4,0.3-0.7C24.8,31.8,24.7,31.6,24.5,31.4z M22.5,32.1
			l-11.1,9.4"/>
	</g>
</g>
<g>
	<g>
		<path class="st1" d="M30.2,40.1c-0.5,0-0.9,0.4-0.9,0.9v3.6c0,0.5,0.4,0.9,0.9,0.9s0.9-0.4,0.9-0.9V41
			C31.1,40.5,30.7,40.1,30.2,40.1z"/>
	</g>
</g>
<g>
	<g>
		<path class="st1" d="M30.2,47.3c-0.5,0-0.9,0.4-0.9,0.9v3.6c0,0.5,0.4,0.9,0.9,0.9s0.9-0.4,0.9-0.9v-3.6
			C31.1,47.7,30.7,47.3,30.2,47.3z"/>
	</g>
</g>
<g>
	<g>
		<path class="st1" d="M30.2,33c-0.5,0-0.9,0.4-0.9,0.9v3.6c0,0.5,0.4,0.9,0.9,0.9s0.9-0.4,0.9-0.9v-3.6C31.1,33.4,30.7,33,30.2,33z
			"/>
	</g>
</g>
<g>
	<g>
		<path class="st1" d="M30.2,18.7c-0.5,0-0.9,0.4-0.9,0.9v3.6c0,0.5,0.4,0.9,0.9,0.9s0.9-0.4,0.9-0.9v-3.6
			C31.1,19.1,30.7,18.7,30.2,18.7z"/>
	</g>
</g>
<g>
	<g>
		<path class="st1" d="M30.2,25.8c-0.5,0-0.9,0.4-0.9,0.9v3.6c0,0.5,0.4,0.9,0.9,0.9s0.9-0.4,0.9-0.9v-3.6
			C31.1,26.2,30.7,25.8,30.2,25.8z"/>
	</g>
</g>
</svg>
