<?xml version="1.0" encoding="utf-8"?>
<!-- Generator: Adobe Illustrator 21.0.0, SVG Export Plug-In . SVG Version: 6.00 Build 0)  -->
<svg version="1.1" id="Layer_1" xmlns="http://www.w3.org/2000/svg" xmlns:xlink="http://www.w3.org/1999/xlink" x="0px" y="0px"
	 viewBox="0 0 58.9 58.9" style="enable-background:new 0 0 58.9 58.9;" xml:space="preserve">
<style type="text/css">
	.st0{fill:url(#SVGID_1_);}
	.st1{fill:#FFFFFF;}
</style>
<g>
	
		<linearGradient id="SVGID_1_" gradientUnits="userSpaceOnUse" x1="-152.5695" y1="-460.2874" x2="-152.5695" y2="-517.7149" gradientTransform="matrix(1 0 0 -1 182.0195 -459.3477)">
		<stop  offset="0" style="stop-color:#7BBF40"/>
		<stop  offset="1" style="stop-color:#47A537"/>
	</linearGradient>
	<path class="st0" d="M58.9,50c0,4.9-4,8.8-8.8,8.8H8.8C4,58.9,0,54.9,0,50V8.8C0,4,4,0,8.8,0H50c4.9,0,8.8,4,8.8,8.8V50H58.9z"/>
</g>
<g>
	<path class="st1" d="M9.3,10.6h2.6v2.6H9.3V10.6z"/>
	<path class="st1" d="M46.8,10.6h2.6v2.6h-2.6V10.6z"/>
	<g>
		<g>
			<path class="st1" d="M9.8,26c-0.3,0-0.7,0.3-0.7,0.7v1.5c0,0.3,0.3,0.7,0.7,0.7c0.3,0,0.7-0.3,0.7-0.7v-1.5
				C10.4,26.3,10.1,26,9.8,26z"/>
		</g>
	</g>
	<g>
		<g>
			<path class="st1" d="M9.8,21.3c-0.3,0-0.7,0.3-0.7,0.7v1.6c0,0.3,0.3,0.7,0.7,0.7c0.3,0,0.7-0.3,0.7-0.7v-1.5
				C10.4,21.7,10.1,21.3,9.8,21.3z"/>
		</g>
	</g>
	<g>
		<g>
			<path class="st1" d="M9.8,30.5c-0.3,0-0.7,0.3-0.7,0.7v1.5c0,0.3,0.3,0.7,0.7,0.7c0.3,0,0.7-0.3,0.7-0.7v-1.5
				C10.4,30.9,10.1,30.5,9.8,30.5z"/>
		</g>
	</g>
	<g>
		<g>
			<path class="st1" d="M9.8,16.8c-0.3,0-0.7,0.3-0.7,0.7V19c0,0.3,0.3,0.7,0.7,0.7c0.3,0,0.7-0.3,0.7-0.7v-1.5
				C10.4,17.1,10.1,16.8,9.8,16.8z"/>
		</g>
	</g>
	<g>
		<g>
			<path class="st1" d="M9.8,35.1c-0.3,0-0.7,0.3-0.7,0.7v1.5c0,0.3,0.3,0.7,0.7,0.7c0.3,0,0.7-0.3,0.7-0.7v-1.5
				C10.4,35.4,10.1,35.1,9.8,35.1z"/>
		</g>
	</g>
	<g>
		<g>
			<path class="st1" d="M9.8,39.7c-0.3,0-0.7,0.3-0.7,0.7v1.5c0,0.3,0.3,0.7,0.7,0.7c0.3,0,0.7-0.3,0.7-0.7v-1.5
				C10.4,40.1,10.1,39.7,9.8,39.7z"/>
		</g>
	</g>
	<g>
		<g>
			<path class="st1" d="M49.4,26c-0.3,0-0.7,0.3-0.7,0.7v1.5c0,0.3,0.3,0.7,0.7,0.7c0.3,0,0.7-0.3,0.7-0.7v-1.5
				C50.2,26.3,49.8,26,49.4,26z"/>
		</g>
	</g>
	<g>
		<g>
			<path class="st1" d="M49.4,21.3c-0.3,0-0.7,0.3-0.7,0.7v1.6c0,0.3,0.3,0.7,0.7,0.7c0.3,0,0.7-0.3,0.7-0.7v-1.5
				C50.2,21.7,49.8,21.3,49.4,21.3z"/>
		</g>
	</g>
	<g>
		<g>
			<path class="st1" d="M49.4,30.5c-0.3,0-0.7,0.3-0.7,0.7v1.5c0,0.3,0.3,0.7,0.7,0.7c0.3,0,0.7-0.3,0.7-0.7v-1.5
				C50.2,30.9,49.8,30.5,49.4,30.5z"/>
		</g>
	</g>
	<g>
		<g>
			<path class="st1" d="M49.4,16.8c-0.3,0-0.7,0.3-0.7,0.7V19c0,0.3,0.3,0.7,0.7,0.7c0.3,0,0.7-0.3,0.7-0.7v-1.5
				C50.2,17.1,49.8,16.8,49.4,16.8z"/>
		</g>
	</g>
	<g>
		<g>
			<path class="st1" d="M49.4,35.1c-0.3,0-0.7,0.3-0.7,0.7v1.5c0,0.3,0.3,0.7,0.7,0.7c0.3,0,0.7-0.3,0.7-0.7v-1.5
				C50.2,35.4,49.8,35.1,49.4,35.1z"/>
		</g>
	</g>
	<g>
		<g>
			<path class="st1" d="M49.4,39.7c-0.3,0-0.7,0.3-0.7,0.7v1.5c0,0.3,0.3,0.7,0.7,0.7c0.3,0,0.7-0.3,0.7-0.7v-1.5
				C50.2,40.1,49.8,39.7,49.4,39.7z"/>
		</g>
	</g>
	<g>
		<g>
			<path class="st1" d="M28,48.8h-1.5c-0.3,0-0.7,0.3-0.7,0.7c0,0.3,0.3,0.7,0.7,0.7H28c0.3,0,0.7-0.3,0.7-0.7
				C28.7,49.1,28.5,48.8,28,48.8z"/>
		</g>
	</g>
	<g>
		<g>
			<path class="st1" d="M23.5,48.8H22c-0.3,0-0.7,0.3-0.7,0.7c0,0.3,0.3,0.7,0.7,0.7h1.5c0.3,0,0.7-0.3,0.7-0.7
				C24.2,49.1,23.8,48.8,23.5,48.8z"/>
		</g>
	</g>
	<g>
		<g>
			<path class="st1" d="M32.6,48.8h-1.5c-0.3,0-0.7,0.3-0.7,0.7c0,0.3,0.3,0.7,0.7,0.7h1.5c0.3,0,0.7-0.3,0.7-0.7
				C33.4,49.1,33,48.8,32.6,48.8z"/>
		</g>
	</g>
	<g>
		<g>
			<path class="st1" d="M18.8,48.8h-1.5c-0.3,0-0.7,0.3-0.7,0.7c0,0.3,0.3,0.7,0.7,0.7h1.5c0.3,0,0.7-0.3,0.7-0.7
				C19.6,49.1,19.3,48.8,18.8,48.8z"/>
		</g>
	</g>
	<g>
		<g>
			<path class="st1" d="M37.2,48.8h-1.5c-0.3,0-0.7,0.3-0.7,0.7c0,0.3,0.3,0.7,0.7,0.7h1.5c0.3,0,0.7-0.3,0.7-0.7
				C37.9,49.1,37.6,48.8,37.2,48.8z"/>
		</g>
	</g>
	<g>
		<g>
			<path class="st1" d="M41.8,48.8h-1.5c-0.3,0-0.7,0.3-0.7,0.7c0,0.3,0.3,0.7,0.7,0.7h1.5c0.3,0,0.7-0.3,0.7-0.7
				C42.5,49.1,42.2,48.8,41.8,48.8z"/>
		</g>
	</g>
	<g>
		<g>
			<path class="st1" d="M28,9.2h-1.5c-0.3,0-0.7,0.3-0.7,0.7s0.3,0.7,0.7,0.7H28c0.3,0,0.7-0.3,0.7-0.7S28.5,9.2,28,9.2z"/>
		</g>
	</g>
	<g>
		<g>
			<path class="st1" d="M23.5,9.2H22c-0.3,0-0.7,0.3-0.7,0.7s0.3,0.7,0.7,0.7h1.5c0.3,0,0.7-0.3,0.7-0.7S23.8,9.2,23.5,9.2z"/>
		</g>
	</g>
	<g>
		<g>
			<path class="st1" d="M32.6,9.2h-1.5c-0.3,0-0.7,0.3-0.7,0.7s0.3,0.7,0.7,0.7h1.5c0.3,0,0.7-0.3,0.7-0.7C33.4,9.5,33,9.2,32.6,9.2
				z"/>
		</g>
	</g>
	<g>
		<g>
			<path class="st1" d="M18.8,9.2h-1.5c-0.3,0-0.7,0.3-0.7,0.7s0.3,0.7,0.7,0.7h1.5c0.3,0,0.7-0.3,0.7-0.7
				C19.6,9.5,19.3,9.2,18.8,9.2z"/>
		</g>
	</g>
	<g>
		<g>
			<path class="st1" d="M37.2,9.2h-1.5c-0.3,0-0.7,0.3-0.7,0.7s0.3,0.7,0.7,0.7h1.5c0.3,0,0.7-0.3,0.7-0.7
				C37.9,9.5,37.6,9.2,37.2,9.2z"/>
		</g>
	</g>
	<g>
		<g>
			<path class="st1" d="M41.8,9.2h-1.5c-0.3,0-0.7,0.3-0.7,0.7s0.3,0.7,0.7,0.7h1.5c0.3,0,0.7-0.3,0.7-0.7
				C42.5,9.5,42.2,9.2,41.8,9.2z"/>
		</g>
	</g>
	<g>
		<path class="st1" d="M9.3,47h2.6v2.6H9.3V47z"/>
		<path class="st1" d="M46.8,47h2.6v2.6h-2.6V47z"/>
	</g>
</g>
<g>
	<g>
		<g>
			<path class="st1" d="M38.5,22.7H24.4c-0.7,0-1.3,0.6-1.3,1.3V38c0,0.7,0.6,1.3,1.3,1.3h14.1c0.7,0,1.3-0.6,1.3-1.3V23.9
				C39.8,23.2,39.2,22.7,38.5,22.7z M38.5,38H24.4V23.9h14.1V38z"/>
			<path class="st1" d="M20.6,20.1h14.1v1.3h1.3v-1.3c0-0.7-0.6-1.3-1.3-1.3H20.6c-0.7,0-1.3,0.6-1.3,1.3v14.1
				c0,0.7,0.6,1.3,1.3,1.3h1.3v-1.3h-1.3V20.1z"/>
		</g>
	</g>
</g>
</svg>
