<?xml version="1.0" encoding="utf-8"?>
<!-- Generator: Adobe Illustrator 21.0.0, SVG Export Plug-In . SVG Version: 6.00 Build 0)  -->
<svg version="1.1" id="Layer_1" xmlns="http://www.w3.org/2000/svg" xmlns:xlink="http://www.w3.org/1999/xlink" x="0px" y="0px"
	 viewBox="0 0 58.9 58.9" style="enable-background:new 0 0 58.9 58.9;" xml:space="preserve">
<style type="text/css">
	.st0{fill:#7DBF4E;}
	.st1{fill:#A7DB7F;}
</style>
<g>
	<g>
		<path class="st0" d="M49.5,27.2c-0.4,0-0.7,0.3-0.7,0.7v15.2c0,1-0.8,1.8-1.8,1.8H13.1c-1,0-1.8-0.8-1.8-1.8V17
			c0-1,0.8-1.8,1.8-1.8H38c0.4,0,0.7-0.3,0.7-0.7s-0.3-0.7-0.7-0.7H13.1c-1.7,0-3.1,1.5-3.1,3.2v26.1c0,1.8,1.4,3.2,3.2,3.2H47
			c1.8,0,3.2-1.4,3.2-3.2V27.9C50.1,27.5,49.8,27.2,49.5,27.2z"/>
	</g>
</g>
<g>
	<g>
		<path class="st0" d="M10,27.9v15.2c0,1.8,1.4,3.2,3.2,3.2H47c1.8,0,3.2-1.4,3.2-3.2V17c0-1.7-1.4-3.2-3.1-3.2H22.2
			c-0.4,0-0.7,0.3-0.7,0.7s0.3,0.7,0.7,0.7h24.9c1,0,1.8,0.8,1.8,1.8v26.1c0,1-0.8,1.8-1.8,1.8H13.2c-1,0-1.8-0.8-1.8-1.8V27.9
			c0-0.4-0.3-0.7-0.7-0.7C10.4,27.2,10.1,27.5,10,27.9z"/>
	</g>
</g>
<rect x="10.7" y="19.4" class="st1" width="4.2" height="4.2"/>
<rect x="14.9" y="15.2" class="st1" width="4.2" height="4.2"/>
<rect x="10.7" y="36.6" class="st1" width="4.2" height="4.2"/>
<rect x="14.9" y="32.3" class="st1" width="4.2" height="4.2"/>
<rect x="10.7" y="28.1" class="st1" width="4.2" height="4.2"/>
<rect x="14.9" y="23.7" class="st1" width="4.2" height="4.2"/>
<rect x="15.1" y="40.8" class="st1" width="4.2" height="4.2"/>
<rect x="19.2" y="19.5" class="st1" width="4.2" height="4.2"/>
<rect x="23.4" y="15.3" class="st1" width="4.2" height="4.2"/>
<rect x="19.2" y="36.6" class="st1" width="4.2" height="4.2"/>
<rect x="23.4" y="32.4" class="st1" width="4.2" height="4.2"/>
<rect x="19.2" y="28.1" class="st1" width="4.2" height="4.2"/>
<rect x="23.4" y="23.8" class="st1" width="4.2" height="4.2"/>
<rect x="23.6" y="40.9" class="st1" width="4.2" height="4.2"/>
<rect x="31.9" y="15.2" class="st0" width="17.4" height="29.9"/>
<rect x="27.7" y="19.7" class="st1" width="4.2" height="4.2"/>
<rect x="27.7" y="36.8" class="st1" width="4.2" height="4.2"/>
<rect x="27.7" y="28.3" class="st1" width="4.2" height="4.2"/>
</svg>
