<?xml version="1.0" encoding="utf-8"?>
<!-- Generator: Adobe Illustrator 16.0.0, SVG Export Plug-In . SVG Version: 6.00 Build 0)  -->
<!DOCTYPE svg PUBLIC "-//W3C//DTD SVG 1.1//EN" "http://www.w3.org/Graphics/SVG/1.1/DTD/svg11.dtd">
<svg version="1.1" xmlns="http://www.w3.org/2000/svg" xmlns:xlink="http://www.w3.org/1999/xlink" x="0px" y="0px"
	 width="248.988px" height="250.487px" viewBox="0 0 248.988 250.487" enable-background="new 0 0 248.988 250.487"
	 xml:space="preserve">
<g id="BACKGROUND">
	<path opacity="0.1" fill="#515151" d="M129.884,31.764c-53.311,0-96.527,43.217-96.527,96.527
		c0,28.813,12.628,54.672,32.647,72.359l-20.09,39.32L86.7,214.637c11.54,5.783,24.399,9.318,38.005,10.039l0.006,0.005
		c0.378,0.021,0.76,0.03,1.14,0.046c0.441,0.018,0.882,0.041,1.324,0.053c0.9,0.025,1.803,0.04,2.709,0.04
		c28.803,0,54.654-12.62,72.341-32.626c0.001-0.001,0.001-0.002,0.002-0.003l0,0c15.048-17.023,24.186-39.392,24.186-63.899
		c0-0.746-0.01-1.489-0.028-2.231C225.198,73.781,182.45,31.764,129.884,31.764z"/>
</g>
<g id="OBJECTS">
	<path fill="#66BB6A" d="M116.352,18.231c-53.311,0-96.528,43.217-96.528,96.528c0,28.813,12.628,54.672,32.647,72.358l-20.09,39.32
		l40.787-25.333c12.995,6.512,27.66,10.182,43.184,10.182c53.311,0,96.527-43.217,96.527-96.527
		C212.879,61.448,169.663,18.231,116.352,18.231z"/>
	<linearGradient id="SVGID_1_" gradientUnits="userSpaceOnUse" x1="178.5327" y1="187.5625" x2="77.0328" y2="62.5626">
		<stop  offset="0" style="stop-color:#FFFFFF;stop-opacity:0"/>
		<stop  offset="1" style="stop-color:#000000"/>
	</linearGradient>
	<path opacity="0.8" fill="url(#SVGID_1_)" d="M152.035,63.786c-8.216,0-15.754,2.893-21.66,7.71L112.314,53.48
		c-3.732-4.042-9.059-6.588-14.993-6.588c-11.28,0-20.424,9.144-20.424,20.424c0,5.935,2.547,11.262,6.588,14.993l16.199,16.199
		c0.167,0.18,0.322,0.371,0.495,0.545c-5.143-2.765-11.022-4.336-17.27-4.336c-20.175,0-36.53,16.354-36.53,36.529
		c0,10.382,4.338,19.744,11.292,26.395l53.507,53.506c1.714,0.091,3.438,0.139,5.174,0.139c53.311,0,96.527-43.217,96.527-96.527
		c0-1.478-0.038-2.947-0.104-4.408l-35.931-35.93C170.601,67.873,161.797,63.786,152.035,63.786z"/>
	<linearGradient id="SVGID_2_" gradientUnits="userSpaceOnUse" x1="178.9321" y1="193.3198" x2="131.741" y2="146.1287">
		<stop  offset="0.2296" style="stop-color:#FFFFFF"/>
		<stop  offset="0.2996" style="stop-color:#F9F9F9"/>
		<stop  offset="0.3967" style="stop-color:#E7E7E7"/>
		<stop  offset="0.5098" style="stop-color:#C9C9C9"/>
		<stop  offset="0.6348" style="stop-color:#A0A0A0"/>
		<stop  offset="0.7697" style="stop-color:#6B6B6B"/>
		<stop  offset="0.9106" style="stop-color:#2C2C2C"/>
		<stop  offset="1" style="stop-color:#000000"/>
	</linearGradient>
	<path opacity="0.8" fill="url(#SVGID_2_)" d="M188.695,178.658l-35.612-35.612c-3.147-3.295-7.575-5.358-12.492-5.358
		c-9.549,0-17.29,7.741-17.29,17.29c0,4.917,2.063,9.345,5.358,12.493l32.697,32.697
		C171.732,194.689,180.989,187.376,188.695,178.658z"/>
	<g>
		<circle fill="#FAFAFA" cx="82.909" cy="131.247" r="36.53"/>
		<g>
			<g>
				<polygon fill="#424242" points="85.774,144.55 80.044,144.55 80.044,134.001 89.069,126.195 89.069,117.981 86.561,115.473 
					79.258,115.473 76.75,117.981 76.75,124.712 71.021,124.712 71.021,115.608 76.885,109.744 88.934,109.744 94.798,115.608 
					94.798,128.814 85.774,136.621 				"/>
			</g>
			<rect x="80.044" y="146.977" fill="#424242" width="5.729" height="5.772"/>
		</g>
	</g>
	<g>
		<circle fill="#FAFAFA" cx="140.59" cy="154.978" r="17.29"/>
		<g>
			<polygon fill="#424242" points="137.782,144.721 139.224,161.324 141.957,161.324 143.399,144.721 			"/>
			<rect x="139.224" y="162.481" fill="#424242" width="2.732" height="2.753"/>
		</g>
	</g>
	<g>
		<circle fill="#FAFAFA" cx="152.034" cy="98.075" r="34.29"/>
		<polygon fill="#424242" points="145.28,104.325 135.62,96.578 130.992,102.347 145.8,114.22 173.078,87.183 167.872,81.93 		"/>
	</g>
	<g>
		<circle fill="#FAFAFA" cx="97.321" cy="67.316" r="20.424"/>
		<polygon fill="#424242" points="103.124,58.398 97.321,64.203 91.517,58.398 88.403,61.512 94.207,67.316 88.403,73.12 
			91.517,76.234 97.321,70.43 103.124,76.234 106.238,73.12 100.434,67.316 106.238,61.512 		"/>
	</g>
</g>
</svg>
