<?xml version="1.0" encoding="utf-8"?>
<!-- Generator: Adobe Illustrator 21.0.0, SVG Export Plug-In . SVG Version: 6.00 Build 0)  -->
<svg version="1.1" id="Layer_1" xmlns="http://www.w3.org/2000/svg" xmlns:xlink="http://www.w3.org/1999/xlink" x="0px" y="0px"
	 viewBox="0 0 58.9 58.9" style="enable-background:new 0 0 58.9 58.9;" xml:space="preserve">
<style type="text/css">
	.st0{fill:url(#SVGID_1_);}
	.st1{fill:#FFFFFF;}
</style>
<g>
	
		<linearGradient id="SVGID_1_" gradientUnits="userSpaceOnUse" x1="-152.5925" y1="-478.2874" x2="-152.5925" y2="-535.7149" gradientTransform="matrix(1 0 0 -1 182.0195 -477.3477)">
		<stop  offset="0" style="stop-color:#7BBF40"/>
		<stop  offset="1" style="stop-color:#47A537"/>
	</linearGradient>
	<path class="st0" d="M58.9,50c0,4.9-4,8.8-8.8,8.8H8.8C4,58.9,0,54.9,0,50V8.8C0,4,4,0,8.8,0H50c4.9,0,8.8,4,8.8,8.8V50z"/>
</g>
<path class="st1" d="M9.9,12.1h7.4v3.7H9.9V12.1z M9.9,17.3h7.4v25.1H9.9V17.3z M11.2,37.7c0,1.3,1,2.3,2.3,2.3c1.3,0,2.3-1,2.3-2.3
	c0-1.3-1-2.3-2.3-2.3C12.3,35.4,11.2,36.4,11.2,37.7z M9.9,46.8h7.4v-3H9.9V46.8z M18.7,43.3v0.5v3h9.6v-3.5
	c-0.4-0.3-1.6-0.9-4.4-0.9C21.2,42.3,19.5,42.9,18.7,43.3z M18.7,22.1c0.8,0.4,2.5,1,5.2,1c2.8,0,4-0.7,4.4-0.9v-2.6h-9.6V22.1z
	 M18.7,23.7v18c1.1-0.4,2.8-0.8,5.2-0.8c2.2,0,3.5,0.4,4.4,0.7V23.8c-0.9,0.4-2.3,0.7-4.4,0.7C21.5,24.5,19.8,24.1,18.7,23.7z
	 M44,11.9l-5.1,1l0.7,3.6l5.1-1L44,11.9z M50.1,41.6l-5.1,1L40,18l5.1-1L50.1,41.6z M48.3,37.2c-0.3-1.2-1.3-2.1-2.2-1.9
	c-1,0.2-1.6,1.4-1.3,2.6C45,39.1,46,40,47,39.8C48,39.6,48.6,38.4,48.3,37.2z M50.4,43l-5.1,1l0.6,2.9l5.1-1L50.4,43z M30.6,15.8
	h7.4v-3.7h-7.4V15.8z M30.6,46.8h7.4v-3h-7.4V46.8z M30.6,38.7h7.4V20.9h-7.4V38.7z M30.6,42.3h7.4v-2.2h-7.4V42.3z M30.6,19.5h7.4
	v-2.2h-7.4V19.5z"/>
</svg>
