<?xml version="1.0" encoding="utf-8"?>
<!-- Generator: Adobe Illustrator 16.0.0, SVG Export Plug-In . SVG Version: 6.00 Build 0)  -->
<!DOCTYPE svg PUBLIC "-//W3C//DTD SVG 1.1//EN" "http://www.w3.org/Graphics/SVG/1.1/DTD/svg11.dtd">
<svg version="1.1" id="Layer_1" xmlns="http://www.w3.org/2000/svg" xmlns:xlink="http://www.w3.org/1999/xlink" x="0px" y="0px"
	 width="195.898px" height="46.851px" viewBox="-48.314 10.96 195.898 46.851"
	 enable-background="new -48.314 10.96 195.898 46.851" xml:space="preserve">
<g>
	<linearGradient id="SVGID_1_" gradientUnits="userSpaceOnUse" x1="-33.4219" y1="4.8025" x2="-33.4219" y2="75.916">
		<stop  offset="0" style="stop-color:#F69453"/>
		<stop  offset="0.5" style="stop-color:#F37521"/>
		<stop  offset="1" style="stop-color:#F15A29"/>
	</linearGradient>
	<path fill="url(#SVGID_1_)" d="M-36.156,38.141v-23.03c-2.019,0.082-3.752,0.228-5.2,0.439c-2.816,0.407-5.136,1.091-6.958,2.051
		l1.123-3.308l1.123-3.333h12.817h14.722l-0.903,3.162l-0.928,3.162c-2.246-0.846-4.159-1.448-5.737-1.807
		c-1.384-0.293-2.8-0.464-4.248-0.513v23.177c0,2.212,0.11,4.131,0.329,5.758c0.221,1.627,0.606,3.399,1.16,5.318h-4.37h-4.395
		c0.553-1.87,0.936-3.619,1.147-5.245C-36.263,42.345-36.156,40.402-36.156,38.141z"/>
	<linearGradient id="SVGID_2_" gradientUnits="userSpaceOnUse" x1="-7.3354" y1="4.802" x2="-7.3355" y2="75.9159">
		<stop  offset="0" style="stop-color:#F69453"/>
		<stop  offset="0.5" style="stop-color:#F37521"/>
		<stop  offset="1" style="stop-color:#F15A29"/>
	</linearGradient>
	<path fill="url(#SVGID_2_)" d="M-14.428,41.453V30.443c0-1.432-0.082-2.718-0.244-3.857c-0.163-1.139-0.456-2.441-0.879-3.906
		h3.198h3.223v4.712l4.126-4.639c1.221-0.439,2.393-0.659,3.516-0.659c0.928,0,1.717,0.179,2.368,0.537l-1.074,5.713l-0.244-0.171
		c-0.993-0.732-2.173-1.099-3.54-1.099c-1.01,0-2.328,0.375-3.955,1.123l-1.196,0.537v12.72c0,2.067,0.086,3.666,0.256,4.797
		c0.172,1.132,0.468,2.121,0.892,2.967h-3.784h-3.784c0.423-0.813,0.716-1.79,0.879-2.93C-14.51,45.149-14.428,43.537-14.428,41.453
		z"/>
	<linearGradient id="SVGID_3_" gradientUnits="userSpaceOnUse" x1="12.9648" y1="4.802" x2="12.9648" y2="75.9156">
		<stop  offset="0" style="stop-color:#F69453"/>
		<stop  offset="0.5" style="stop-color:#F37521"/>
		<stop  offset="1" style="stop-color:#F15A29"/>
	</linearGradient>
	<path fill="url(#SVGID_3_)" d="M21.998,30.443l-4.37,11.719c-1.677,4.443-3.19,7.82-4.541,10.132
		c-1.352,2.311-2.824,4.068-4.419,5.273H1.649c1.809-1.449,3.372-3.038,4.691-4.764c1.319-1.728,2.614-3.894,3.885-6.5l0.709-1.319
		v0.01L4.664,30.443C3.932,28.734,3.22,27.31,2.527,26.17c-0.691-1.139-1.542-2.303-2.551-3.491h3.636h3.637
		c0.098,0.57,0.284,1.262,0.562,2.075c0.276,0.814,0.732,1.986,1.367,3.516l4.591,11.45h-0.002l3.832-11.45
		c0.391-1.155,0.638-2.144,0.744-2.966c0.105-0.822,0.094-1.697-0.036-2.625h3.811h3.836c-0.766,1.009-1.44,2.083-2.026,3.223
		C23.356,27.041,22.714,28.555,21.998,30.443z"/>
	<linearGradient id="SVGID_4_" gradientUnits="userSpaceOnUse" x1="52.2471" y1="4.802" x2="52.2471" y2="75.9158">
		<stop  offset="0" style="stop-color:#F69453"/>
		<stop  offset="0.5" style="stop-color:#F37521"/>
		<stop  offset="1" style="stop-color:#F15A29"/>
	</linearGradient>
	<path fill="url(#SVGID_4_)" d="M50.563,49.803c-2.588,0-4.582-0.554-5.981-1.66c-1.4-1.106-2.1-2.686-2.1-4.736
		c0-1.367,0.492-2.653,1.478-3.857c0.984-1.204,2.314-2.156,3.991-2.856l7.813-3.223v-2.417c0-1.448-0.448-2.6-1.343-3.455
		c-0.896-0.854-2.1-1.282-3.613-1.282c-0.977,0-1.92,0.167-2.83,0.498c-0.911,0.332-1.912,0.879-3.002,1.64l1.462-5.092
		c1.041-0.439,2.051-0.761,3.027-0.964c0.977-0.203,1.969-0.305,2.979-0.305c2.864,0,5.017,0.749,6.458,2.246
		c1.439,1.498,2.16,3.735,2.16,6.714v10.4c0,2.214,0.069,3.887,0.207,5.018c0.139,1.131,0.387,2.047,0.745,2.746h-3.125h-3.125
		v-2.539l-4.126,3.076L50.563,49.803z M55.763,45.189v-7.3h-6.836c-0.163,0-0.37,0.493-0.622,1.477
		c-0.253,0.985-0.379,1.811-0.379,2.478c0,1.254,0.406,2.193,1.221,2.82c0.813,0.627,2.034,0.939,3.662,0.939
		c1.009,0,1.978-0.139,2.905-0.415H55.763z"/>
	<linearGradient id="SVGID_5_" gradientUnits="userSpaceOnUse" x1="77.479" y1="4.8025" x2="77.479" y2="75.916">
		<stop  offset="0" style="stop-color:#F69453"/>
		<stop  offset="0.5" style="stop-color:#F37521"/>
		<stop  offset="1" style="stop-color:#F15A29"/>
	</linearGradient>
	<path fill="url(#SVGID_5_)" d="M72.022,42.113c0,0.456,0.276,0.843,0.83,1.159c0.553,0.318,1.236,0.477,2.051,0.477h5.713
		c2.278,0,3.946,0.473,5.005,1.416c1.058,0.944,1.587,2.441,1.587,4.492c0,2.278-1.107,4.207-3.32,5.786
		c-2.214,1.579-4.924,2.368-8.13,2.368c-3.256,0-5.697-0.322-7.324-0.965c-1.628-0.643-2.441-1.607-2.441-2.893
		c0-0.651,0.325-1.379,0.977-2.186c0.65-0.805,1.953-2.096,3.906-3.869c-1.367-0.113-2.45-0.342-3.247-0.684
		c-1.091-0.472-1.636-1.188-1.636-2.148c0-0.716,0.293-1.359,0.879-1.929s2.132-1.709,4.639-3.418
		c-0.961-0.407-1.84-0.977-2.637-1.709c-1.774-1.627-2.661-3.67-2.661-6.128c0-2.799,0.887-5.131,2.661-6.995
		c1.773-1.863,4.004-2.795,6.689-2.795c2.051,0,3.849,0.521,5.396,1.563h2.734c1.058,0,2.096-0.049,3.112-0.146
		c1.018-0.098,1.737-0.211,2.161-0.342l-0.562,4.199l-4.297,0.024c0.553,1.188,0.83,2.539,0.83,4.053
		c0,2.588-0.891,4.741-2.674,6.458c-1.781,1.717-4.016,2.576-6.701,2.576c-0.684,0-1.343-0.057-1.978-0.171
		c-0.439,0.195-0.814,0.472-1.123,0.83C72.169,41.478,72.022,41.803,72.022,42.113z M75.27,25.804c-1.237,0-2.23,0.444-2.979,1.331
		c-0.749,0.887-1.123,2.063-1.123,3.528c0,1.677,0.46,3.113,1.379,4.309c0.92,1.196,2.022,1.794,3.309,1.794h-0.024
		c1.27,0,2.278-0.435,3.027-1.306c0.748-0.871,1.123-2.046,1.123-3.528c0-1.709-0.452-3.157-1.354-4.346
		c-0.904-1.188-2.015-1.782-3.333-1.782H75.27z M71.461,50.731c0,0.96,0.402,1.668,1.209,2.124c0.805,0.456,2.054,0.684,3.747,0.684
		c1.855,0,3.227-0.24,4.114-0.72c0.887-0.48,1.33-1.217,1.33-2.21c0-0.813-0.317-1.46-0.952-1.94s-1.498-0.721-2.588-0.721h-5.225
		c-0.456,0.293-0.843,0.708-1.159,1.245C71.619,49.73,71.461,50.242,71.461,50.731z"/>
	<linearGradient id="SVGID_6_" gradientUnits="userSpaceOnUse" x1="99.2681" y1="4.802" x2="99.2681" y2="75.9158">
		<stop  offset="0" style="stop-color:#F69453"/>
		<stop  offset="0.5" style="stop-color:#F37521"/>
		<stop  offset="1" style="stop-color:#F15A29"/>
	</linearGradient>
	<path fill="url(#SVGID_6_)" d="M97.584,49.803c-2.588,0-4.582-0.554-5.981-1.66c-1.4-1.106-2.1-2.686-2.1-4.736
		c0-1.367,0.492-2.653,1.478-3.857c0.984-1.204,2.314-2.156,3.991-2.856l7.813-3.223v-2.417c0-1.448-0.448-2.6-1.343-3.455
		c-0.896-0.854-2.1-1.282-3.613-1.282c-0.977,0-1.92,0.167-2.83,0.498c-0.911,0.332-1.912,0.879-3.002,1.64l1.462-5.092
		c1.041-0.439,2.051-0.761,3.027-0.964c0.977-0.203,1.969-0.305,2.979-0.305c2.864,0,5.017,0.749,6.458,2.246
		c1.439,1.498,2.16,3.735,2.16,6.714v10.4c0,2.214,0.069,3.887,0.207,5.018c0.139,1.131,0.387,2.047,0.745,2.746h-3.125h-3.125
		v-2.539l-4.126,3.076L97.584,49.803z M102.784,45.189v-7.3h-6.836c-0.163,0-0.37,0.493-0.622,1.477
		c-0.253,0.985-0.379,1.811-0.379,2.478c0,1.254,0.406,2.193,1.221,2.82c0.813,0.627,2.034,0.939,3.662,0.939
		c1.009,0,1.978-0.139,2.905-0.415H102.784z"/>
	<linearGradient id="SVGID_7_" gradientUnits="userSpaceOnUse" x1="117.1396" y1="4.8025" x2="117.1396" y2="75.916">
		<stop  offset="0" style="stop-color:#F69453"/>
		<stop  offset="0.5" style="stop-color:#F37521"/>
		<stop  offset="1" style="stop-color:#F15A29"/>
	</linearGradient>
	<path fill="url(#SVGID_7_)" d="M114.479,41.453V30.443c0-1.432-0.082-2.718-0.244-3.857c-0.163-1.139-0.456-2.441-0.879-3.906
		h3.784h3.784c-0.424,0.847-0.721,1.839-0.891,2.979c-0.172,1.14-0.257,2.734-0.257,4.785v11.011c0,2.067,0.085,3.666,0.257,4.797
		c0.17,1.132,0.467,2.121,0.891,2.967h-3.784h-3.784c0.423-0.813,0.716-1.79,0.879-2.93
		C114.396,45.149,114.479,43.537,114.479,41.453z M117.006,11.595c0.995,0,1.841,0.399,2.535,1.196
		c0.694,0.798,1.041,1.774,1.041,2.93c0,1.156-0.347,2.128-1.041,2.917c-0.694,0.79-1.54,1.184-2.535,1.184
		c-0.997,0-1.842-0.395-2.536-1.184c-0.694-0.789-1.041-1.762-1.041-2.917c0-1.155,0.347-2.132,1.041-2.93
		C115.164,11.994,116.009,11.595,117.006,11.595z"/>
	<linearGradient id="SVGID_8_" gradientUnits="userSpaceOnUse" x1="136.4883" y1="4.802" x2="136.4883" y2="75.9159">
		<stop  offset="0" style="stop-color:#F69453"/>
		<stop  offset="0.5" style="stop-color:#F37521"/>
		<stop  offset="1" style="stop-color:#F15A29"/>
	</linearGradient>
	<path fill="url(#SVGID_8_)" d="M126.515,41.453V30.443c0-1.448-0.082-2.742-0.244-3.882c-0.163-1.139-0.456-2.433-0.879-3.882
		h3.198h3.223v4.614l4.028-4.639c1.367-0.374,2.506-0.562,3.418-0.562c2.408,0,4.239,0.753,5.493,2.258
		c1.253,1.506,1.88,3.699,1.88,6.58v10.522c0,2.214,0.069,3.887,0.207,5.018c0.139,1.131,0.387,2.047,0.745,2.746h-3.687h-3.687
		c0.423-0.813,0.716-1.79,0.879-2.93c0.162-1.139,0.244-2.75,0.244-4.834v-9.79c0-1.546-0.358-2.698-1.074-3.455
		c-0.717-0.757-1.815-1.135-3.296-1.135c-1.01,0-2.328,0.375-3.955,1.123l-1.196,0.537v12.72c0,2.067,0.085,3.666,0.257,4.797
		c0.17,1.132,0.467,2.121,0.891,2.967h-3.784h-3.784c0.423-0.813,0.716-1.79,0.879-2.93
		C126.433,45.149,126.515,43.537,126.515,41.453z"/>
</g>
</svg>
