<?xml version="1.0" encoding="utf-8"?>
<!-- Generator: Adobe Illustrator 16.0.0, SVG Export Plug-In . SVG Version: 6.00 Build 0)  -->
<!DOCTYPE svg PUBLIC "-//W3C//DTD SVG 1.1//EN" "http://www.w3.org/Graphics/SVG/1.1/DTD/svg11.dtd">
<svg version="1.1" id="Layer_1" xmlns="http://www.w3.org/2000/svg" xmlns:xlink="http://www.w3.org/1999/xlink" x="0px" y="0px"
	 width="228.921px" height="149.061px" viewBox="-645.797 -88.593 228.921 149.061"
	 enable-background="new -645.797 -88.593 228.921 149.061" xml:space="preserve">
<g>
	<g opacity="0.2">
		<path fill="#1C1C1C" d="M-610.515-65.98c-1.234,0.631-2.324,1.064-3.27,1.301c-0.946,0.236-2.064,0.355-3.354,0.355
			c-3.117,0-5.712-1.021-7.786-3.062s-3.11-4.601-3.11-7.681c0-3.368,1.1-6.165,3.298-8.391c2.198-2.227,4.954-3.34,8.266-3.34
			c1.048,0,2.011,0.077,2.887,0.229c0.877,0.153,1.779,0.406,2.707,0.759v3.604c-0.844-0.63-1.778-1.113-2.803-1.447
			c-1.025-0.334-2.08-0.501-3.166-0.501c-2.17,0-3.977,0.817-5.419,2.449c-1.442,1.633-2.163,3.678-2.163,6.137
			c0,2.468,0.679,4.518,2.038,6.15c1.359,1.633,3.059,2.449,5.1,2.449c1.373,0,2.59-0.2,3.652-0.601s2.159-1.071,3.291-2.012
			L-610.515-65.98z"/>
		<path fill="#1C1C1C" d="M-607.091-66.446c-1.271-1.415-1.907-3.189-1.907-5.323c0-2.394,0.708-4.383,2.122-5.97
			c1.415-1.586,3.184-2.379,5.309-2.379c1.92,0,3.514,0.709,4.78,2.129s1.899,3.196,1.899,5.33c0,2.394-0.705,4.381-2.115,5.962
			c-1.41,1.582-3.182,2.373-5.315,2.373C-604.229-64.324-605.821-65.031-607.091-66.446z M-598.749-68.325
			c0.478-0.914,0.716-1.983,0.716-3.208c0-1.929-0.464-3.476-1.391-4.641c-0.928-1.164-2.185-1.774-3.771-1.83
			c-0.816,0.334-1.463,0.963-1.941,1.886c-0.478,0.923-0.717,1.997-0.717,3.221c0,1.93,0.463,3.475,1.392,4.634
			c0.928,1.16,2.185,1.768,3.771,1.823C-599.874-66.782-599.227-67.411-598.749-68.325z"/>
		<path fill="#1C1C1C" d="M-592.063-69.083v-6.276c0-0.825-0.046-1.563-0.139-2.212s-0.26-1.387-0.501-2.212h1.823h1.836v2.63
			l2.296-2.644c0.779-0.213,1.428-0.32,1.948-0.32c1.373,0,2.416,0.429,3.131,1.287c0.714,0.858,1.071,2.108,1.071,3.75v5.998
			c0,1.262,0.039,2.215,0.118,2.859c0.079,0.645,0.22,1.167,0.425,1.566h-2.102h-2.101c0.241-0.464,0.408-1.021,0.501-1.67
			c0.093-0.649,0.139-1.568,0.139-2.755v-5.58c0-0.881-0.205-1.538-0.612-1.969c-0.408-0.432-1.035-0.647-1.878-0.647
			c-0.576,0-1.327,0.214-2.254,0.64l-0.682,0.306v7.25c0,1.178,0.049,2.09,0.146,2.734c0.097,0.645,0.267,1.208,0.508,1.691h-2.157
			h-2.157c0.241-0.464,0.408-1.021,0.501-1.67S-592.063-67.896-592.063-69.083z"/>
		<path fill="#1C1C1C" d="M-576.826-69.083v-6.276c0-0.825-0.046-1.563-0.139-2.212s-0.26-1.387-0.501-2.212h1.823h1.836v2.63
			l2.296-2.644c0.779-0.213,1.428-0.32,1.948-0.32c1.373,0,2.417,0.429,3.131,1.287c0.714,0.858,1.071,2.108,1.071,3.75v5.998
			c0,1.262,0.039,2.215,0.118,2.859c0.079,0.645,0.22,1.167,0.424,1.566h-2.101h-2.101c0.241-0.464,0.408-1.021,0.501-1.67
			c0.092-0.649,0.139-1.568,0.139-2.755v-5.58c0-0.881-0.205-1.538-0.612-1.969c-0.408-0.432-1.035-0.647-1.878-0.647
			c-0.576,0-1.327,0.214-2.254,0.64l-0.682,0.306v7.25c0,1.178,0.049,2.09,0.146,2.734c0.097,0.645,0.267,1.208,0.508,1.691h-2.157
			h-2.157c0.241-0.464,0.408-1.021,0.501-1.67S-576.826-67.896-576.826-69.083z"/>
		<path fill="#1C1C1C" d="M-555.41-64.324c-2.087,0-3.799-0.698-5.135-2.095c-1.335-1.396-2.003-3.188-2.003-5.378
			c0-2.384,0.586-4.367,1.76-5.949c1.173-1.582,2.641-2.373,4.404-2.373h0.028c1.725,0,3.054,0.598,3.986,1.795
			c0.933,1.197,1.399,2.904,1.399,5.121v1.364h-8.374c0.148,1.374,0.547,2.515,1.197,3.423c0.827,1.15,1.949,1.726,3.369,1.726
			c0.64,0,1.271-0.084,1.893-0.253c0.622-0.169,1.183-0.409,1.685-0.719l-1.202,2.907c-0.659,0.176-1.189,0.292-1.593,0.348
			C-554.401-64.352-554.872-64.324-555.41-64.324z M-553.443-73.94c-0.009-1.317-0.252-2.324-0.73-3.02
			c-0.478-0.696-1.176-1.044-2.095-1.044h0.014c-1.002,0-1.777,0.427-2.325,1.28c-0.436,0.687-0.701,1.614-0.793,2.783H-553.443z"/>
		<path fill="#1C1C1C" d="M-538.823-64.756c-0.687,0.176-1.241,0.292-1.663,0.348c-0.422,0.056-0.921,0.084-1.496,0.084
			c-2.004,0-3.672-0.705-5.003-2.115c-1.332-1.41-1.997-3.182-1.997-5.316c0-2.393,0.737-4.385,2.212-5.977
			c1.475-1.591,3.321-2.386,5.538-2.386c0.594,0,1.111,0.021,1.552,0.063c0.44,0.042,1.051,0.132,1.83,0.271l-0.153,3.489
			c-0.556-0.602-1.11-1.037-1.661-1.306c-0.551-0.268-1.157-0.403-1.814-0.403c-1.335,0-2.395,0.504-3.177,1.51
			c-0.784,1.006-1.175,2.368-1.175,4.084c0,1.753,0.415,3.145,1.245,4.174c0.831,1.03,1.951,1.545,3.36,1.545
			c0.482,0,0.983-0.071,1.502-0.211c0.519-0.141,1.22-0.395,2.101-0.761L-538.823-64.756z"/>
		<path fill="#1C1C1C" d="M-531.044-64.324c-1.188,0-2.052-0.353-2.595-1.058c-0.542-0.705-0.814-1.832-0.814-3.382v-8.934h-2.143
			v-0.007l5.142-5.42h0.021v3.34h3.521v2.087h-3.521v7.667c0,1.021,0.174,1.784,0.521,2.289c0.348,0.506,0.87,0.758,1.565,0.758
			c0.427,0,0.818-0.051,1.176-0.153s0.787-0.283,1.288-0.543l-1.197,2.909c-0.529,0.176-0.991,0.294-1.385,0.354
			C-529.859-64.355-530.386-64.324-531.044-64.324z"/>
		<path fill="#1C1C1C" d="M-511.02-64.324c-1.865,0-3.342-0.584-4.432-1.753c-1.09-1.169-1.635-2.75-1.635-4.745
			c0-2.662,0.753-4.877,2.261-6.645c1.507-1.768,3.397-2.651,5.67-2.651c0.612,0,1.183,0.083,1.711,0.25v-1.183
			c0-0.983-0.046-1.799-0.139-2.449c-0.093-0.649-0.26-1.308-0.501-1.976l2.115-0.432l2.129-0.445
			c-0.223,0.612-0.375,1.341-0.459,2.185s-0.125,2.031-0.125,3.562v11.522c0,1.178,0.049,2.09,0.146,2.734
			c0.098,0.645,0.267,1.208,0.508,1.691h-1.837h-1.837v-2.06l-1.795,2.032C-509.935-64.435-510.529-64.315-511.02-64.324z
			 M-510.185-77.975c-1.346,0-2.315,0.457-2.908,1.371c-0.594,0.914-0.891,2.405-0.891,4.474c0,1.651,0.359,2.962,1.078,3.931
			c0.719,0.97,1.691,1.454,2.916,1.454c0.593,0,1.146-0.111,1.656-0.334l0.891-0.473v-9.546
			C-508.149-77.683-509.063-77.975-510.185-77.975z"/>
		<path fill="#1C1C1C" d="M-499.888-66.446c-1.271-1.415-1.907-3.189-1.907-5.323c0-2.394,0.708-4.383,2.123-5.97
			c1.415-1.586,3.184-2.379,5.309-2.379c1.92,0,3.514,0.709,4.78,2.129s1.899,3.196,1.899,5.33c0,2.394-0.706,4.381-2.115,5.962
			c-1.41,1.582-3.182,2.373-5.315,2.373C-497.026-64.324-498.617-65.031-499.888-66.446z M-491.545-68.325
			c0.478-0.914,0.716-1.983,0.716-3.208c0-1.929-0.464-3.476-1.392-4.641c-0.928-1.164-2.185-1.774-3.771-1.83
			c-0.816,0.334-1.463,0.963-1.941,1.886c-0.478,0.923-0.717,1.997-0.717,3.221c0,1.93,0.464,3.475,1.392,4.634
			c0.928,1.16,2.185,1.768,3.771,1.823C-492.67-66.782-492.023-67.411-491.545-68.325z"/>
		<path fill="#1C1C1C" d="M-481.116-64.324c-1.188,0-2.052-0.353-2.595-1.058c-0.542-0.705-0.814-1.832-0.814-3.382v-8.934h-2.143
			v-0.007l5.142-5.42h0.021v3.34h3.521v2.087h-3.521v7.667c0,1.021,0.174,1.784,0.522,2.289c0.348,0.506,0.87,0.758,1.565,0.758
			c0.426,0,0.818-0.051,1.176-0.153c0.357-0.102,0.786-0.283,1.287-0.543l-1.196,2.909c-0.529,0.176-0.991,0.294-1.385,0.354
			C-479.932-64.355-480.458-64.324-481.116-64.324z"/>
		<path fill="#1C1C1C" d="M-468.455-76.556c-0.426-0.501-0.862-0.867-1.306-1.099c-0.445-0.232-0.94-0.348-1.487-0.348
			c-0.602,0-1.103,0.158-1.501,0.473c-0.398,0.316-0.597,0.71-0.597,1.183c0,0.464,0.134,0.881,0.404,1.252
			c0.259,0.371,0.755,0.839,1.487,1.405c1.232,0.956,2.098,1.795,2.599,2.519c0.491,0.714,0.737,1.489,0.737,2.324
			c0,1.299-0.452,2.377-1.358,3.235c-0.905,0.858-2.045,1.288-3.419,1.288c-0.752,0-1.395-0.044-1.929-0.132
			c-0.534-0.088-1.19-0.257-1.971-0.508v-3.604c0.585,0.706,1.17,1.229,1.755,1.573c0.585,0.343,1.185,0.515,1.797,0.515
			c0.594,0,1.086-0.174,1.477-0.521c0.39-0.348,0.584-0.787,0.584-1.315c0-0.426-0.158-0.839-0.473-1.238
			c-0.305-0.39-0.898-0.923-1.779-1.6c-1.112-0.863-1.896-1.642-2.349-2.338c-0.447-0.686-0.671-1.452-0.671-2.296
			c0-1.243,0.494-2.275,1.482-3.096c0.987-0.821,2.229-1.231,3.722-1.231c0.547,0,1.02,0.046,1.418,0.139
			c0.399,0.093,0.858,0.26,1.377,0.501V-76.556z"/>
		<path fill="#1C1C1C" d="M-452.729-64.324c-1.188,0-2.052-0.353-2.595-1.058c-0.542-0.705-0.814-1.832-0.814-3.382v-8.934h-2.143
			v-0.007l5.142-5.42h0.021v3.34h3.521v2.087h-3.521v7.667c0,1.021,0.174,1.784,0.522,2.289c0.348,0.506,0.87,0.758,1.565,0.758
			c0.426,0,0.818-0.051,1.176-0.153c0.357-0.102,0.787-0.283,1.287-0.543l-1.196,2.909c-0.529,0.176-0.991,0.294-1.385,0.354
			C-451.544-64.355-452.07-64.324-452.729-64.324z"/>
		<path fill="#1C1C1C" d="M-446.272-66.446c-1.271-1.415-1.907-3.189-1.907-5.323c0-2.394,0.708-4.383,2.122-5.97
			s3.184-2.379,5.309-2.379c1.92,0,3.514,0.709,4.78,2.129s1.899,3.196,1.899,5.33c0,2.394-0.706,4.381-2.115,5.962
			c-1.411,1.582-3.182,2.373-5.315,2.373C-443.411-64.324-445.001-65.031-446.272-66.446z M-437.93-68.325
			c0.478-0.914,0.716-1.983,0.716-3.208c0-1.929-0.464-3.476-1.392-4.641c-0.928-1.164-2.185-1.774-3.771-1.83
			c-0.816,0.334-1.463,0.963-1.941,1.886c-0.479,0.923-0.717,1.997-0.717,3.221c0,1.93,0.463,3.475,1.392,4.634
			c0.927,1.16,2.185,1.768,3.771,1.823C-439.055-66.782-438.408-67.411-437.93-68.325z"/>
		<path fill="#1C1C1C" d="M-625.202-37.621v8.614c0,1.178,0.049,2.09,0.146,2.734c0.098,0.645,0.267,1.208,0.508,1.69h-2.157h-2.157
			c0.241-0.463,0.408-1.02,0.501-1.669c0.092-0.649,0.139-1.568,0.139-2.755v-8.614h-1.642v-0.042l1.099-2.045h0.543v-1.211
			c0-1.716,0.45-3.052,1.35-4.008c0.9-0.955,2.161-1.433,3.785-1.433c0.565,0,1.069,0.035,1.51,0.104
			c0.44,0.069,0.888,0.188,1.343,0.355l-0.71,2.992c-0.39-0.445-0.761-0.773-1.113-0.981c-0.353-0.209-0.719-0.313-1.1-0.313
			c-0.687,0-1.199,0.211-1.538,0.633c-0.339,0.422-0.508,1.06-0.508,1.914v1.948h3.034v2.087H-625.202z"/>
		<path fill="#1C1C1C" d="M-619.427-26.37c-1.271-1.415-1.907-3.188-1.907-5.322c0-2.394,0.708-4.383,2.123-5.97
			c1.415-1.586,3.184-2.379,5.309-2.379c1.92,0,3.514,0.709,4.78,2.129s1.899,3.196,1.899,5.33c0,2.393-0.705,4.381-2.115,5.962
			c-1.41,1.582-3.182,2.373-5.315,2.373C-616.565-24.248-618.157-24.955-619.427-26.37z M-611.085-28.249
			c0.478-0.914,0.716-1.983,0.716-3.208c0-1.929-0.464-3.476-1.391-4.641c-0.928-1.164-2.185-1.774-3.771-1.83
			c-0.816,0.334-1.463,0.963-1.941,1.886c-0.478,0.923-0.717,1.997-0.717,3.221c0,1.93,0.464,3.475,1.392,4.634
			c0.928,1.16,2.185,1.768,3.771,1.823C-612.21-26.706-611.563-27.335-611.085-28.249z"/>
		<path fill="#1C1C1C" d="M-604.329-29.007v-6.276c0-0.816-0.047-1.549-0.139-2.199c-0.093-0.649-0.26-1.392-0.501-2.226h1.823
			h1.837v2.686l2.352-2.644c0.696-0.25,1.364-0.375,2.004-0.375c0.529,0,0.979,0.102,1.35,0.306l-0.612,3.256l-0.139-0.097
			c-0.566-0.417-1.238-0.626-2.018-0.626c-0.575,0-1.327,0.213-2.254,0.64l-0.682,0.306v7.25c0,1.178,0.049,2.09,0.146,2.734
			c0.098,0.645,0.267,1.208,0.508,1.69h-2.157h-2.157c0.241-0.463,0.408-1.02,0.501-1.669
			C-604.376-26.901-604.329-27.82-604.329-29.007z"/>
		<path fill="#1C1C1C" d="M-594.102-29.007v-6.276c0-0.816-0.046-1.549-0.139-2.199c-0.093-0.649-0.26-1.392-0.501-2.226h1.823
			h1.836v2.908l1.89-2.338l0.681-0.403c0.648-0.334,1.389-0.501,2.223-0.501c1.195,0,2.107,0.375,2.737,1.127
			c0.472,0.557,0.759,1.308,0.861,2.254l2.244-2.505l0.613-0.348c0.65-0.352,1.343-0.528,2.077-0.528
			c1.17,0,2.063,0.366,2.676,1.099s0.92,1.805,0.92,3.214v6.721c0,1.28,0.037,2.245,0.111,2.895c0.074,0.649,0.208,1.16,0.403,1.53
			h-2.087h-2.087c0.241-0.463,0.408-1.02,0.5-1.669s0.139-1.568,0.139-2.755v-5.775c0-0.816-0.19-1.424-0.572-1.823
			c-0.381-0.399-0.962-0.599-1.744-0.599c-0.725,0-1.525,0.246-2.399,0.738l-0.725,0.445v7.013c0,1.178,0.048,2.09,0.146,2.734
			c0.097,0.645,0.267,1.208,0.508,1.69h-2.157h-2.157c0.241-0.463,0.408-1.02,0.501-1.669s0.139-1.568,0.139-2.755v-5.761
			c0-0.825-0.189-1.438-0.569-1.836c-0.38-0.399-0.962-0.599-1.749-0.599c-0.667,0-1.486,0.255-2.457,0.766l-0.667,0.348v7.083
			c0,1.178,0.049,2.09,0.146,2.734c0.097,0.645,0.267,1.208,0.508,1.69h-2.157h-2.157c0.241-0.463,0.408-1.02,0.501-1.669
			S-594.102-27.82-594.102-29.007z"/>
		<path fill="#1C1C1C" d="M-557.574-24.248c-1.188,0-2.053-0.352-2.595-1.057c-0.543-0.705-0.814-1.832-0.814-3.382v-8.934h-2.143
			v-0.007l5.142-5.42h0.021v3.34h3.521v2.087h-3.521v7.667c0,1.021,0.174,1.784,0.522,2.289c0.348,0.506,0.87,0.758,1.565,0.758
			c0.426,0,0.818-0.051,1.176-0.153c0.357-0.102,0.786-0.283,1.287-0.543l-1.197,2.908c-0.529,0.176-0.991,0.294-1.384,0.355
			C-556.389-24.279-556.916-24.248-557.574-24.248z"/>
		<path fill="#1C1C1C" d="M-551.952-29.007v-11.967c0-0.983-0.046-1.799-0.139-2.449c-0.093-0.649-0.26-1.308-0.501-1.976
			l2.157-0.432l2.157-0.445c-0.241,0.687-0.411,1.452-0.508,2.296c-0.098,0.845-0.146,1.995-0.146,3.451v3.451l2.296-2.644
			c0.779-0.213,1.428-0.32,1.948-0.32c1.373,0,2.417,0.429,3.131,1.287c0.714,0.858,1.071,2.108,1.071,3.75v5.998
			c0,1.262,0.039,2.215,0.118,2.859c0.079,0.645,0.22,1.167,0.425,1.565h-2.102h-2.101c0.241-0.463,0.408-1.02,0.501-1.669
			c0.093-0.649,0.139-1.568,0.139-2.755v-5.58c0-0.881-0.205-1.538-0.612-1.969c-0.408-0.431-1.035-0.647-1.878-0.647
			c-0.575,0-1.327,0.213-2.254,0.64l-0.682,0.306v7.25c0,1.178,0.048,2.09,0.146,2.734c0.097,0.645,0.267,1.208,0.508,1.69h-2.157
			h-2.157c0.241-0.463,0.408-1.02,0.501-1.669S-551.952-27.82-551.952-29.007z"/>
		<path fill="#1C1C1C" d="M-530.439-24.248c-2.087,0-3.799-0.698-5.135-2.094c-1.336-1.396-2.004-3.188-2.004-5.378
			c0-2.384,0.587-4.367,1.76-5.949s2.642-2.373,4.404-2.373h0.028c1.726,0,3.055,0.598,3.987,1.795
			c0.933,1.197,1.398,2.904,1.398,5.121l0,1.364h-8.374c0.148,1.374,0.547,2.515,1.197,3.423c0.826,1.15,1.949,1.726,3.368,1.726
			c0.64,0,1.271-0.084,1.893-0.254c0.622-0.169,1.184-0.408,1.685-0.719l-1.202,2.907c-0.659,0.176-1.19,0.292-1.593,0.348
			C-529.43-24.276-529.901-24.248-530.439-24.248z M-528.472-33.864c-0.009-1.317-0.252-2.324-0.73-3.02s-1.176-1.044-2.095-1.044
			h0.014c-1.002,0-1.777,0.427-2.325,1.28c-0.436,0.687-0.701,1.614-0.793,2.783H-528.472z"/>
		<path fill="#1C1C1C" d="M-513.936-35.283c0-0.816-0.046-1.549-0.139-2.199c-0.093-0.649-0.26-1.392-0.5-2.226h1.823h1.837v2.63
			l2.059-2.436l0.376-0.194c0.482-0.223,1.058-0.334,1.726-0.334c1.604,0,2.903,0.747,3.896,2.24
			c0.993,1.494,1.489,3.437,1.489,5.831c0,2.468-0.471,4.372-1.413,5.712c-0.942,1.341-2.285,2.011-4.028,2.011
			c-1.568-0.009-2.936-0.515-4.105-1.517v1.559c0,0.807,0.048,1.535,0.146,2.185c0.097,0.649,0.267,1.396,0.508,2.24h-2.157h-2.157
			c0.241-0.826,0.408-1.563,0.5-2.212s0.139-1.387,0.139-2.212V-35.283z M-508.369-26.641c1.243,0,2.203-0.453,2.88-1.357
			s1.016-2.192,1.016-3.861c0-1.642-0.327-2.943-0.981-3.903c-0.654-0.96-1.538-1.44-2.651-1.44c-0.557,0-1.188,0.144-1.892,0.432
			c-0.297,0.121-0.604,0.269-0.918,0.445v8.335C-510.229-27.091-509.381-26.641-508.369-26.641z"/>
		<path fill="#1C1C1C" d="M-498.281-29.007v-6.276c0-0.816-0.046-1.549-0.139-2.199c-0.093-0.649-0.26-1.392-0.501-2.226h2.157
			h2.157c-0.241,0.482-0.411,1.048-0.508,1.697c-0.098,0.65-0.146,1.559-0.146,2.728v6.276c0,1.178,0.048,2.09,0.146,2.734
			c0.097,0.645,0.267,1.208,0.508,1.69h-2.157h-2.157c0.241-0.463,0.408-1.02,0.501-1.669S-498.281-27.82-498.281-29.007z
			 M-496.84-46.026c0.568,0,1.049,0.228,1.445,0.682c0.396,0.455,0.594,1.011,0.594,1.669c0,0.659-0.198,1.213-0.594,1.663
			c-0.396,0.45-0.877,0.675-1.445,0.675s-1.05-0.225-1.445-0.675c-0.396-0.45-0.593-1.004-0.593-1.663
			c0-0.658,0.197-1.215,0.593-1.669C-497.89-45.798-497.408-46.026-496.84-46.026z"/>
		<path fill="#1C1C1C" d="M-482.32-24.679c-0.687,0.176-1.241,0.292-1.663,0.348c-0.423,0.056-0.921,0.083-1.496,0.083
			c-2.004,0-3.671-0.705-5.002-2.115c-1.332-1.41-1.997-3.182-1.997-5.316c0-2.394,0.738-4.385,2.213-5.977
			c1.475-1.591,3.32-2.386,5.538-2.386c0.593,0,1.111,0.021,1.552,0.063c0.44,0.042,1.05,0.132,1.83,0.271l-0.153,3.489
			c-0.556-0.602-1.11-1.037-1.661-1.306c-0.552-0.269-1.157-0.403-1.814-0.403c-1.335,0-2.394,0.504-3.177,1.51
			c-0.784,1.007-1.175,2.369-1.175,4.084c0,1.753,0.415,3.145,1.245,4.174s1.95,1.545,3.36,1.545c0.482,0,0.983-0.071,1.502-0.211
			c0.519-0.141,1.219-0.395,2.101-0.761L-482.32-24.679z"/>
		<path fill="#1C1C1C" d="M-474.541-24.248c-1.188,0-2.053-0.352-2.595-1.057s-0.814-1.832-0.814-3.382v-8.934h-2.143v-0.007
			l5.142-5.42h0.021v3.34h3.521v2.087h-3.521v7.667c0,1.021,0.174,1.784,0.522,2.289c0.348,0.506,0.87,0.758,1.565,0.758
			c0.426,0,0.818-0.051,1.176-0.153c0.356-0.102,0.786-0.283,1.287-0.543l-1.197,2.908c-0.529,0.176-0.991,0.294-1.384,0.355
			C-473.356-24.279-473.883-24.248-474.541-24.248z"/>
		<path fill="#1C1C1C" d="M-466.066-35.288v5.629c0,0.872,0.202,1.518,0.605,1.939c0.404,0.422,1.018,0.632,1.844,0.632
			c0.659,0,1.447-0.181,2.366-0.542l0.501-0.195v-7.464c0-0.825-0.047-1.562-0.139-2.21c-0.093-0.648-0.26-1.385-0.501-2.209h2.157
			h2.157c-0.242,0.482-0.411,1.048-0.508,1.697c-0.097,0.65-0.146,1.559-0.146,2.728v6.276c0,1.178,0.049,2.09,0.146,2.734
			c0.098,0.645,0.266,1.208,0.508,1.69h-1.753h-1.768v-2.574l-2.379,2.576c-0.863,0.221-1.512,0.332-1.948,0.332
			c-1.363,0-2.398-0.361-3.103-1.084c-0.705-0.723-1.058-1.774-1.058-3.156v-6.798c0-0.815-0.047-1.548-0.139-2.196
			c-0.093-0.649-0.26-1.391-0.501-2.225h2.157h2.157c-0.242,0.481-0.413,1.047-0.515,1.696
			C-466.021-37.363-466.066-36.455-466.066-35.288z"/>
		<path fill="#1C1C1C" d="M-453.515-29.007v-6.276c0-0.816-0.047-1.549-0.139-2.199c-0.093-0.649-0.26-1.392-0.501-2.226h1.823
			h1.836v2.686l2.352-2.644c0.696-0.25,1.364-0.375,2.004-0.375c0.528,0,0.978,0.102,1.35,0.306l-0.612,3.256l-0.139-0.097
			c-0.566-0.417-1.238-0.626-2.018-0.626c-0.576,0-1.327,0.213-2.254,0.64l-0.682,0.306v7.25c0,1.178,0.049,2.09,0.146,2.734
			c0.097,0.645,0.266,1.208,0.508,1.69h-2.157h-2.157c0.241-0.463,0.408-1.02,0.501-1.669
			C-453.562-26.901-453.515-27.82-453.515-29.007z"/>
		<path fill="#1C1C1C" d="M-436.9-24.248c-2.087,0-3.799-0.698-5.135-2.094c-1.336-1.396-2.004-3.188-2.004-5.378
			c0-2.384,0.586-4.367,1.76-5.949c1.173-1.582,2.641-2.373,4.404-2.373h0.028c1.725,0,3.054,0.598,3.986,1.795
			c0.933,1.197,1.399,2.904,1.399,5.121v1.364h-8.374c0.147,1.374,0.547,2.515,1.196,3.423c0.827,1.15,1.948,1.726,3.369,1.726
			c0.64,0,1.271-0.084,1.893-0.254c0.622-0.169,1.184-0.408,1.685-0.719l-1.202,2.907c-0.659,0.176-1.189,0.292-1.593,0.348
			C-435.891-24.276-436.363-24.248-436.9-24.248z M-434.933-33.864c-0.009-1.317-0.252-2.324-0.731-3.02
			c-0.478-0.696-1.176-1.044-2.095-1.044h0.014c-1.002,0-1.777,0.427-2.325,1.28c-0.436,0.687-0.701,1.614-0.793,2.783H-434.933z"/>
		<path fill="#1C1C1C" d="M-638.756,15.828c-1.475,0-2.612-0.315-3.409-0.946c-0.798-0.63-1.197-1.53-1.197-2.699
			c0-0.779,0.281-1.512,0.842-2.199c0.561-0.686,1.319-1.229,2.275-1.628l4.453-1.837V5.141c0-0.825-0.255-1.482-0.765-1.969
			c-0.51-0.487-1.197-0.73-2.06-0.73c-0.557,0-1.094,0.095-1.613,0.284c-0.519,0.189-1.09,0.5-1.71,0.935l0.833-2.902
			c0.594-0.25,1.169-0.434,1.726-0.549s1.122-0.174,1.698-0.174c1.632,0,2.859,0.427,3.681,1.28
			c0.821,0.854,1.231,2.129,1.231,3.827v5.928c0,1.262,0.039,2.215,0.118,2.859c0.079,0.645,0.22,1.167,0.424,1.565h-1.781h-1.781
			v-1.447l-2.352,1.753L-638.756,15.828z M-635.792,13.198V9.037h-3.896c-0.093,0-0.211,0.281-0.355,0.842
			c-0.144,0.562-0.216,1.032-0.216,1.413c0,0.714,0.232,1.25,0.696,1.607c0.464,0.357,1.16,0.536,2.087,0.536
			c0.575,0,1.127-0.079,1.656-0.237H-635.792z"/>
		<path fill="#1C1C1C" d="M-629.099,11.069V4.793c0-0.825-0.046-1.563-0.139-2.212s-0.26-1.387-0.501-2.213h1.823h1.836v2.63
			l2.296-2.644c0.779-0.213,1.428-0.32,1.948-0.32c1.373,0,2.417,0.429,3.131,1.288c0.714,0.858,1.071,2.108,1.071,3.75v5.998
			c0,1.262,0.039,2.215,0.118,2.859c0.079,0.645,0.22,1.167,0.425,1.565h-2.102h-2.101c0.241-0.463,0.408-1.02,0.501-1.669
			c0.093-0.649,0.139-1.568,0.139-2.755v-5.58c0-0.881-0.205-1.538-0.612-1.969c-0.408-0.431-1.035-0.647-1.878-0.647
			c-0.576,0-1.327,0.213-2.254,0.64l-0.682,0.306v7.25c0,1.178,0.049,2.09,0.146,2.734c0.097,0.645,0.267,1.208,0.508,1.69h-2.157
			h-2.157c0.241-0.463,0.408-1.02,0.501-1.669S-629.099,12.257-629.099,11.069z"/>
		<path fill="#1C1C1C" d="M-608.49,15.828c-1.865,0-3.342-0.584-4.432-1.753c-1.09-1.168-1.635-2.75-1.635-4.745
			c0-2.662,0.754-4.877,2.261-6.645c1.507-1.767,3.397-2.651,5.67-2.651c0.612,0,1.183,0.083,1.712,0.25v-1.183
			c0-0.983-0.046-1.799-0.139-2.449c-0.093-0.649-0.26-1.308-0.501-1.976l2.115-0.431l2.129-0.445
			c-0.223,0.612-0.376,1.341-0.459,2.185c-0.083,0.845-0.125,2.032-0.125,3.563v11.522c0,1.178,0.049,2.09,0.146,2.734
			c0.098,0.645,0.267,1.208,0.508,1.69h-1.836h-1.837v-2.059l-1.795,2.031C-607.404,15.717-607.999,15.837-608.49,15.828z
			 M-607.655,2.177c-1.346,0-2.315,0.457-2.909,1.371c-0.594,0.914-0.891,2.405-0.891,4.474c0,1.651,0.359,2.961,1.079,3.931
			c0.719,0.97,1.691,1.455,2.916,1.455c0.593,0,1.145-0.111,1.656-0.334l0.891-0.473V3.054
			C-605.619,2.469-606.533,2.177-607.655,2.177z"/>
		<path fill="#1C1C1C" d="M-589.175,11.069V-0.898c0-0.983-0.047-1.799-0.139-2.449c-0.093-0.649-0.26-1.308-0.501-1.976
			l2.157-0.431l2.157-0.445c-0.241,0.687-0.41,1.452-0.508,2.296c-0.097,0.845-0.146,1.995-0.146,3.451v11.522
			c0,1.178,0.049,2.09,0.146,2.734c0.098,0.645,0.267,1.208,0.508,1.69h-2.157h-2.157c0.241-0.463,0.408-1.02,0.501-1.669
			C-589.222,13.175-589.175,12.257-589.175,11.069z"/>
		<path fill="#1C1C1C" d="M-576.151,15.828c-2.087,0-3.799-0.698-5.135-2.094c-1.335-1.396-2.003-3.188-2.003-5.378
			c0-2.384,0.586-4.367,1.76-5.949c1.173-1.582,2.641-2.373,4.404-2.373h0.028c1.726,0,3.055,0.599,3.987,1.795
			c0.933,1.197,1.398,2.904,1.398,5.121l0,1.364h-8.374c0.148,1.373,0.547,2.514,1.197,3.423c0.826,1.15,1.949,1.726,3.369,1.726
			c0.64,0,1.271-0.084,1.892-0.254c0.622-0.169,1.184-0.408,1.685-0.719l-1.202,2.907c-0.659,0.176-1.19,0.292-1.593,0.348
			S-575.613,15.828-576.151,15.828z M-574.184,6.213c-0.009-1.317-0.252-2.324-0.73-3.02s-1.176-1.044-2.095-1.044h0.014
			c-1.002,0-1.777,0.427-2.325,1.28c-0.436,0.687-0.701,1.614-0.793,2.783H-574.184z"/>
		<path fill="#1C1C1C" d="M-565.186,15.828c-1.475,0-2.612-0.315-3.409-0.946c-0.798-0.63-1.197-1.53-1.197-2.699
			c0-0.779,0.281-1.512,0.842-2.199c0.561-0.686,1.319-1.229,2.275-1.628l4.453-1.837V5.141c0-0.825-0.255-1.482-0.765-1.969
			c-0.511-0.487-1.197-0.73-2.06-0.73c-0.557,0-1.094,0.095-1.613,0.284c-0.519,0.189-1.09,0.5-1.71,0.935l0.833-2.902
			c0.594-0.25,1.169-0.434,1.726-0.549s1.122-0.174,1.698-0.174c1.632,0,2.859,0.427,3.68,1.28c0.821,0.854,1.232,2.129,1.232,3.827
			v5.928c0,1.262,0.039,2.215,0.118,2.859c0.079,0.645,0.22,1.167,0.424,1.565h-1.781h-1.781v-1.447l-2.352,1.753L-565.186,15.828z
			 M-562.222,13.198V9.037h-3.896c-0.093,0-0.211,0.281-0.355,0.842c-0.144,0.562-0.216,1.032-0.216,1.413
			c0,0.714,0.232,1.25,0.696,1.607c0.464,0.357,1.16,0.536,2.087,0.536c0.575,0,1.127-0.079,1.656-0.237H-562.222z"/>
		<path fill="#1C1C1C" d="M-555.458,11.069V4.793c0-0.816-0.047-1.549-0.139-2.199c-0.093-0.649-0.26-1.392-0.501-2.227h1.823h1.837
			v2.686l2.352-2.644c0.696-0.25,1.364-0.376,2.004-0.376c0.529,0,0.979,0.103,1.35,0.306l-0.612,3.256l-0.139-0.097
			c-0.566-0.417-1.238-0.626-2.018-0.626c-0.575,0-1.327,0.213-2.254,0.64l-0.682,0.306v7.25c0,1.178,0.049,2.09,0.146,2.734
			c0.098,0.645,0.267,1.208,0.508,1.69h-2.157h-2.157c0.241-0.463,0.408-1.02,0.501-1.669
			C-555.505,13.175-555.458,12.257-555.458,11.069z"/>
		<path fill="#1C1C1C" d="M-545.022,11.069V4.793c0-0.825-0.047-1.563-0.139-2.212c-0.093-0.649-0.26-1.387-0.501-2.213h1.823h1.837
			v2.63l2.296-2.644c0.779-0.213,1.429-0.32,1.948-0.32c1.373,0,2.417,0.429,3.131,1.288c0.714,0.858,1.071,2.108,1.071,3.75v5.998
			c0,1.262,0.04,2.215,0.119,2.859c0.079,0.645,0.22,1.167,0.424,1.565h-2.101h-2.102c0.241-0.463,0.408-1.02,0.501-1.669
			s0.139-1.568,0.139-2.755v-5.58c0-0.881-0.204-1.538-0.612-1.969c-0.408-0.431-1.034-0.647-1.878-0.647
			c-0.575,0-1.327,0.213-2.254,0.64l-0.682,0.306v7.25c0,1.178,0.049,2.09,0.146,2.734c0.098,0.645,0.267,1.208,0.508,1.69h-2.157
			h-2.157c0.241-0.463,0.408-1.02,0.501-1.669C-545.069,13.175-545.022,12.257-545.022,11.069z"/>
		<path fill="#1C1C1C" d="M-511.75,15.397c-0.687,0.176-1.241,0.292-1.663,0.348c-0.422,0.056-0.921,0.083-1.496,0.083
			c-2.004,0-3.672-0.705-5.003-2.115c-1.332-1.41-1.997-3.182-1.997-5.316c0-2.394,0.737-4.385,2.212-5.977
			c1.475-1.591,3.321-2.387,5.538-2.387c0.594,0,1.111,0.021,1.552,0.063c0.44,0.042,1.051,0.132,1.83,0.271l-0.153,3.489
			c-0.556-0.602-1.11-1.037-1.661-1.305s-1.157-0.403-1.814-0.403c-1.335,0-2.395,0.503-3.177,1.51
			c-0.784,1.007-1.175,2.368-1.175,4.084c0,1.753,0.415,3.145,1.245,4.174c0.831,1.03,1.951,1.545,3.36,1.545
			c0.482,0,0.983-0.071,1.502-0.211c0.519-0.141,1.22-0.395,2.101-0.761L-511.75,15.397z"/>
		<path fill="#1C1C1C" d="M-506.978,13.706c-1.271-1.415-1.907-3.188-1.907-5.322c0-2.394,0.708-4.383,2.122-5.97
			c1.415-1.586,3.184-2.38,5.309-2.38c1.92,0,3.514,0.71,4.78,2.129s1.899,3.196,1.899,5.33c0,2.393-0.706,4.381-2.115,5.962
			c-1.41,1.582-3.182,2.373-5.315,2.373C-504.116,15.828-505.707,15.121-506.978,13.706z M-498.635,11.827
			c0.477-0.914,0.716-1.983,0.716-3.208c0-1.929-0.464-3.476-1.392-4.641c-0.928-1.164-2.185-1.774-3.771-1.83
			c-0.816,0.334-1.463,0.963-1.941,1.886c-0.478,0.923-0.717,1.997-0.717,3.221c0,1.93,0.463,3.475,1.392,4.634
			c0.928,1.16,2.185,1.768,3.771,1.823C-499.76,13.37-499.113,12.741-498.635,11.827z"/>
		<path fill="#1C1C1C" d="M-489.194,4.788v5.629c0,0.871,0.202,1.518,0.605,1.939c0.403,0.422,1.018,0.632,1.844,0.632
			c0.658,0,1.447-0.181,2.365-0.542l0.501-0.195V4.788c0-0.825-0.047-1.562-0.139-2.21c-0.093-0.648-0.26-1.385-0.501-2.21h2.157
			h2.157c-0.242,0.483-0.411,1.049-0.508,1.698c-0.098,0.65-0.146,1.559-0.146,2.728v6.276c0,1.178,0.048,2.09,0.146,2.734
			c0.097,0.645,0.266,1.208,0.508,1.69h-1.753h-1.767V12.92l-2.379,2.576c-0.863,0.221-1.513,0.332-1.948,0.332
			c-1.364,0-2.398-0.361-3.103-1.084c-0.706-0.723-1.058-1.774-1.058-3.156V4.789c0-0.815-0.047-1.548-0.139-2.196
			c-0.093-0.649-0.26-1.391-0.501-2.225h2.157h2.157c-0.241,0.482-0.413,1.047-0.515,1.696
			C-489.148,2.713-489.194,3.621-489.194,4.788z"/>
		<path fill="#1C1C1C" d="M-476.712,11.069V4.793c0-0.825-0.047-1.563-0.139-2.212c-0.093-0.649-0.26-1.387-0.501-2.213h1.823h1.836
			v2.63l2.296-2.644c0.779-0.213,1.428-0.32,1.948-0.32c1.373,0,2.416,0.429,3.131,1.288c0.714,0.858,1.071,2.108,1.071,3.75v5.998
			c0,1.262,0.039,2.215,0.118,2.859c0.079,0.645,0.22,1.167,0.424,1.565h-2.101h-2.101c0.241-0.463,0.408-1.02,0.501-1.669
			c0.092-0.649,0.139-1.568,0.139-2.755v-5.58c0-0.881-0.205-1.538-0.612-1.969c-0.409-0.431-1.035-0.647-1.878-0.647
			c-0.576,0-1.328,0.213-2.254,0.64l-0.682,0.306v7.25c0,1.178,0.049,2.09,0.146,2.734c0.097,0.645,0.266,1.208,0.508,1.69h-2.157
			h-2.157c0.241-0.463,0.408-1.02,0.501-1.669C-476.759,13.175-476.712,12.257-476.712,11.069z"/>
		<path fill="#1C1C1C" d="M-457.731,15.828c-1.188,0-2.052-0.352-2.595-1.058c-0.542-0.705-0.814-1.832-0.814-3.381V2.455h-2.143
			V2.448l5.142-5.42h0.021v3.339h3.521v2.087h-3.521v7.667c0,1.021,0.174,1.784,0.522,2.289c0.348,0.506,0.87,0.758,1.565,0.758
			c0.426,0,0.818-0.051,1.176-0.153c0.356-0.102,0.786-0.283,1.287-0.543l-1.197,2.908c-0.529,0.176-0.99,0.294-1.384,0.355
			C-456.547,15.798-457.073,15.828-457.731,15.828z"/>
		<path fill="#1C1C1C" d="M-452.04,11.069V4.793c0-0.816-0.047-1.549-0.139-2.199c-0.093-0.649-0.26-1.392-0.501-2.227h2.157h2.157
			c-0.242,0.483-0.411,1.049-0.508,1.698c-0.098,0.65-0.146,1.559-0.146,2.728v6.276c0,1.178,0.049,2.09,0.146,2.734
			c0.097,0.645,0.266,1.208,0.508,1.69h-2.157h-2.157c0.241-0.463,0.408-1.02,0.501-1.669
			C-452.087,13.175-452.04,12.257-452.04,11.069z M-450.6-5.949c0.568,0,1.049,0.228,1.445,0.682
			c0.395,0.455,0.593,1.012,0.593,1.67c0,0.659-0.198,1.213-0.593,1.663c-0.396,0.45-0.877,0.675-1.445,0.675
			s-1.05-0.225-1.446-0.675c-0.396-0.45-0.593-1.004-0.593-1.663c0-0.658,0.197-1.215,0.593-1.67
			C-451.649-5.722-451.167-5.949-450.6-5.949z"/>
		<path fill="#1C1C1C" d="M-445.18,11.069V4.793c0-0.825-0.047-1.563-0.139-2.212c-0.093-0.649-0.26-1.387-0.501-2.213h1.823h1.837
			v2.63l2.296-2.644c0.779-0.213,1.428-0.32,1.948-0.32c1.373,0,2.416,0.429,3.131,1.288c0.714,0.858,1.072,2.108,1.072,3.75v5.998
			c0,1.262,0.039,2.215,0.118,2.859c0.078,0.645,0.22,1.167,0.424,1.565h-2.101h-2.101c0.241-0.463,0.408-1.02,0.501-1.669
			c0.092-0.649,0.139-1.568,0.139-2.755v-5.58c0-0.881-0.205-1.538-0.612-1.969c-0.409-0.431-1.035-0.647-1.879-0.647
			c-0.576,0-1.327,0.213-2.254,0.64l-0.682,0.306v7.25c0,1.178,0.049,2.09,0.146,2.734c0.098,0.645,0.266,1.208,0.508,1.69h-2.157
			h-2.157c0.241-0.463,0.408-1.02,0.501-1.669C-445.227,13.175-445.18,12.257-445.18,11.069z"/>
		<path fill="#1C1C1C" d="M-427.368,11.445c0,0.26,0.157,0.48,0.473,0.661c0.315,0.181,0.705,0.271,1.169,0.271h3.256
			c1.298,0,2.249,0.269,2.853,0.807c0.603,0.538,0.904,1.391,0.904,2.56c0,1.299-0.631,2.398-1.893,3.298
			c-1.262,0.9-2.806,1.35-4.634,1.35c-1.856,0-3.247-0.184-4.174-0.55c-0.928-0.366-1.392-0.916-1.392-1.649
			c0-0.371,0.185-0.786,0.557-1.246c0.371-0.459,1.113-1.194,2.227-2.206c-0.779-0.064-1.397-0.195-1.851-0.39
			c-0.622-0.269-0.932-0.677-0.932-1.224c0-0.408,0.167-0.775,0.501-1.1c0.334-0.324,1.215-0.974,2.644-1.948
			c-0.548-0.231-1.049-0.557-1.503-0.974c-1.012-0.927-1.517-2.091-1.517-3.493c0-1.595,0.505-2.924,1.517-3.987
			c1.01-1.062,2.282-1.593,3.813-1.593c1.169,0,2.193,0.297,3.076,0.891h1.558c0.603,0,1.194-0.028,1.774-0.083
			c0.579-0.056,0.99-0.12,1.231-0.195l-0.32,2.394l-2.449,0.014c0.315,0.677,0.473,1.447,0.473,2.31
			c0,1.475-0.508,2.702-1.524,3.681c-1.016,0.979-2.289,1.468-3.82,1.468c-0.39,0-0.765-0.032-1.127-0.098
			c-0.25,0.111-0.464,0.27-0.64,0.473C-427.285,11.083-427.368,11.269-427.368,11.445z M-425.518,2.149
			c-0.705,0-1.271,0.253-1.697,0.758c-0.427,0.506-0.64,1.176-0.64,2.011c0,0.956,0.262,1.774,0.786,2.456
			c0.523,0.682,1.152,1.023,1.885,1.023h-0.014c0.724,0,1.298-0.248,1.726-0.745c0.426-0.496,0.64-1.166,0.64-2.011
			c0-0.974-0.258-1.799-0.772-2.477c-0.515-0.677-1.148-1.016-1.899-1.016H-425.518z M-427.688,16.357
			c0,0.547,0.229,0.951,0.688,1.211c0.459,0.259,1.171,0.39,2.136,0.39c1.058,0,1.838-0.137,2.345-0.411
			c0.505-0.274,0.758-0.694,0.758-1.259c0-0.464-0.181-0.833-0.542-1.106c-0.362-0.273-0.854-0.411-1.475-0.411h-2.978
			c-0.26,0.167-0.48,0.404-0.661,0.71C-427.598,15.786-427.688,16.078-427.688,16.357z"/>
		<path fill="#1C1C1C" d="M-645.157,51.145v-6.275c0-0.816-0.046-1.549-0.139-2.198c-0.093-0.65-0.26-1.392-0.501-2.227h2.157h2.157
			c-0.242,0.483-0.411,1.048-0.508,1.698c-0.097,0.649-0.146,1.559-0.146,2.728v6.275c0,1.179,0.049,2.09,0.146,2.734
			c0.098,0.645,0.267,1.208,0.508,1.691h-2.157h-2.157c0.241-0.464,0.408-1.021,0.501-1.67
			C-645.203,53.25-645.157,52.332-645.157,51.145z M-643.716,34.127c0.568,0,1.049,0.227,1.445,0.682
			c0.396,0.455,0.594,1.012,0.594,1.67c0,0.659-0.198,1.213-0.594,1.663s-0.877,0.675-1.445,0.675c-0.568,0-1.05-0.225-1.446-0.675
			c-0.396-0.45-0.593-1.004-0.593-1.663c0-0.658,0.197-1.215,0.593-1.67C-644.766,34.354-644.285,34.127-643.716,34.127z"/>
		<path fill="#1C1C1C" d="M-638.296,51.145v-6.275c0-0.825-0.047-1.563-0.139-2.213c-0.093-0.649-0.26-1.387-0.501-2.212h1.823
			h1.837v2.63l2.296-2.644c0.779-0.213,1.429-0.32,1.948-0.32c1.373,0,2.417,0.429,3.131,1.287s1.072,2.108,1.072,3.75v5.997
			c0,1.263,0.039,2.216,0.118,2.86c0.079,0.644,0.22,1.166,0.424,1.565h-2.101h-2.102c0.241-0.464,0.408-1.021,0.501-1.67
			c0.093-0.65,0.139-1.568,0.139-2.756v-5.58c0-0.881-0.204-1.537-0.612-1.969s-1.034-0.646-1.878-0.646
			c-0.575,0-1.327,0.213-2.254,0.64l-0.682,0.306v7.25c0,1.179,0.049,2.09,0.146,2.734c0.098,0.645,0.267,1.208,0.508,1.691h-2.157
			h-2.157c0.241-0.464,0.408-1.021,0.501-1.67C-638.343,53.25-638.296,52.332-638.296,51.145z"/>
		<path fill="#1C1C1C" d="M-610.647,55.905c-1.475,0-2.611-0.316-3.409-0.946c-0.798-0.631-1.197-1.531-1.197-2.7
			c0-0.779,0.281-1.512,0.842-2.198c0.561-0.687,1.319-1.229,2.275-1.628l4.453-1.837v-1.378c0-0.825-0.255-1.481-0.766-1.969
			s-1.197-0.73-2.06-0.73c-0.557,0-1.094,0.095-1.613,0.284c-0.519,0.188-1.089,0.5-1.71,0.934l0.833-2.902
			c0.594-0.25,1.169-0.434,1.726-0.549c0.557-0.116,1.123-0.174,1.698-0.174c1.632,0,2.859,0.427,3.681,1.28
			c0.821,0.853,1.231,2.129,1.231,3.827v5.928c0,1.263,0.039,2.216,0.118,2.86c0.079,0.644,0.22,1.166,0.424,1.565h-1.781h-1.781
			v-1.447l-2.352,1.753L-610.647,55.905z M-607.683,53.274v-4.16h-3.896c-0.093,0-0.211,0.281-0.355,0.842
			c-0.144,0.561-0.215,1.032-0.215,1.412c0,0.715,0.231,1.25,0.695,1.607s1.16,0.536,2.087,0.536c0.575,0,1.127-0.079,1.656-0.237
			H-607.683z"/>
		<path fill="#1C1C1C" d="M-594.047,43.672c-0.426-0.5-0.862-0.866-1.307-1.099s-0.94-0.348-1.487-0.348
			c-0.602,0-1.103,0.158-1.501,0.473s-0.598,0.71-0.598,1.183c0,0.464,0.135,0.881,0.404,1.253c0.26,0.371,0.755,0.839,1.487,1.405
			c1.232,0.956,2.098,1.795,2.599,2.519c0.491,0.714,0.737,1.489,0.737,2.324c0,1.298-0.453,2.377-1.358,3.235
			s-2.045,1.287-3.419,1.287c-0.752,0-1.395-0.045-1.929-0.133c-0.534-0.088-1.191-0.257-1.971-0.508V51.66
			c0.585,0.705,1.17,1.229,1.755,1.572c0.585,0.344,1.185,0.515,1.797,0.515c0.594,0,1.086-0.174,1.477-0.521
			c0.39-0.349,0.585-0.786,0.585-1.315c0-0.427-0.157-0.839-0.473-1.238c-0.306-0.39-0.899-0.923-1.779-1.601
			c-1.112-0.862-1.896-1.642-2.35-2.338c-0.447-0.686-0.67-1.451-0.67-2.296c0-1.242,0.494-2.275,1.481-3.096
			c0.987-0.821,2.229-1.231,3.722-1.231c0.547,0,1.021,0.046,1.418,0.139c0.399,0.093,0.858,0.26,1.378,0.501V43.672z"/>
		<path fill="#1C1C1C" d="M-581.898,55.473c-0.687,0.177-1.241,0.292-1.663,0.348c-0.422,0.056-0.921,0.084-1.496,0.084
			c-2.004,0-3.671-0.706-5.002-2.115c-1.332-1.41-1.997-3.183-1.997-5.316c0-2.393,0.738-4.386,2.213-5.976
			c1.475-1.591,3.321-2.387,5.538-2.387c0.594,0,1.111,0.021,1.552,0.063c0.44,0.042,1.05,0.132,1.83,0.271l-0.153,3.49
			c-0.556-0.603-1.11-1.037-1.661-1.306c-0.551-0.268-1.157-0.403-1.814-0.403c-1.335,0-2.394,0.503-3.177,1.51
			c-0.784,1.006-1.175,2.368-1.175,4.084c0,1.753,0.415,3.145,1.245,4.175c0.83,1.029,1.95,1.544,3.36,1.544
			c0.481,0,0.982-0.07,1.502-0.211c0.519-0.141,1.22-0.396,2.101-0.761L-581.898,55.473z"/>
		<path fill="#1C1C1C" d="M-571.684,55.905c-2.087,0-3.799-0.699-5.135-2.095c-1.335-1.396-2.003-3.189-2.003-5.378
			c0-2.384,0.586-4.367,1.76-5.949c1.173-1.582,2.641-2.373,4.404-2.373h0.028c1.725,0,3.054,0.599,3.986,1.795
			c0.933,1.196,1.398,2.903,1.398,5.121l0,1.363h-8.374c0.148,1.373,0.547,2.515,1.197,3.423c0.826,1.151,1.949,1.726,3.369,1.726
			c0.64,0,1.271-0.084,1.893-0.253c0.622-0.17,1.183-0.409,1.685-0.719l-1.202,2.906c-0.659,0.177-1.19,0.292-1.593,0.348
			S-571.146,55.905-571.684,55.905z M-569.717,46.288c-0.009-1.317-0.252-2.323-0.73-3.02c-0.478-0.695-1.176-1.043-2.095-1.043
			h0.014c-1.002,0-1.777,0.427-2.325,1.28c-0.436,0.687-0.701,1.614-0.793,2.783H-569.717z"/>
		<path fill="#1C1C1C" d="M-564.197,51.145v-6.275c0-0.825-0.047-1.563-0.139-2.213c-0.093-0.649-0.26-1.387-0.501-2.212h1.823
			h1.837v2.63l2.296-2.644c0.779-0.213,1.429-0.32,1.948-0.32c1.373,0,2.417,0.429,3.131,1.287c0.714,0.858,1.071,2.108,1.071,3.75
			v5.997c0,1.263,0.04,2.216,0.119,2.86c0.079,0.644,0.22,1.166,0.424,1.565h-2.101h-2.102c0.241-0.464,0.408-1.021,0.501-1.67
			c0.093-0.65,0.139-1.568,0.139-2.756v-5.58c0-0.881-0.204-1.537-0.612-1.969s-1.034-0.646-1.878-0.646
			c-0.575,0-1.327,0.213-2.254,0.64l-0.682,0.306v7.25c0,1.179,0.049,2.09,0.146,2.734c0.098,0.645,0.267,1.208,0.508,1.691h-2.157
			h-2.157c0.241-0.464,0.408-1.021,0.501-1.67C-564.244,53.25-564.197,52.332-564.197,51.145z"/>
		<path fill="#1C1C1C" d="M-543.589,55.905c-1.865,0-3.342-0.585-4.432-1.754s-1.635-2.751-1.635-4.745
			c0-2.662,0.753-4.877,2.261-6.645c1.507-1.767,3.397-2.651,5.67-2.651c0.612,0,1.183,0.083,1.711,0.25v-1.183
			c0-0.984-0.046-1.799-0.139-2.449c-0.093-0.649-0.26-1.308-0.501-1.976l2.115-0.431l2.129-0.445
			c-0.223,0.612-0.375,1.34-0.459,2.185c-0.083,0.845-0.125,2.032-0.125,3.563v11.521c0,1.179,0.049,2.09,0.146,2.734
			c0.097,0.645,0.266,1.208,0.508,1.691h-1.837h-1.837v-2.06l-1.795,2.031C-542.503,55.793-543.098,55.913-543.589,55.905z
			 M-542.754,42.253c-1.346,0-2.315,0.457-2.908,1.371c-0.594,0.914-0.891,2.404-0.891,4.474c0,1.651,0.359,2.961,1.078,3.931
			s1.691,1.454,2.916,1.454c0.594,0,1.146-0.111,1.656-0.334l0.891-0.473V43.13C-540.718,42.546-541.632,42.253-542.754,42.253z"/>
		<path fill="#1C1C1C" d="M-533.222,51.145v-6.275c0-0.816-0.046-1.549-0.139-2.198c-0.093-0.65-0.26-1.392-0.5-2.227h2.157h2.157
			c-0.241,0.483-0.411,1.048-0.508,1.698c-0.098,0.649-0.146,1.559-0.146,2.728v6.275c0,1.179,0.048,2.09,0.146,2.734
			c0.097,0.645,0.267,1.208,0.508,1.691h-2.157h-2.157c0.241-0.464,0.408-1.021,0.5-1.67
			C-533.269,53.25-533.222,52.332-533.222,51.145z M-531.782,34.127c0.568,0,1.049,0.227,1.445,0.682
			c0.396,0.455,0.594,1.012,0.594,1.67c0,0.659-0.198,1.213-0.594,1.663c-0.396,0.45-0.877,0.675-1.445,0.675
			s-1.05-0.225-1.445-0.675c-0.396-0.45-0.593-1.004-0.593-1.663c0-0.658,0.197-1.215,0.593-1.67
			C-532.832,34.354-532.35,34.127-531.782,34.127z"/>
		<path fill="#1C1C1C" d="M-526.362,51.145v-6.275c0-0.825-0.046-1.563-0.139-2.213c-0.093-0.649-0.26-1.387-0.501-2.212h1.823
			h1.836v2.63l2.296-2.644c0.779-0.213,1.428-0.32,1.948-0.32c1.373,0,2.416,0.429,3.131,1.287c0.714,0.858,1.071,2.108,1.071,3.75
			v5.997c0,1.263,0.039,2.216,0.118,2.86c0.079,0.644,0.22,1.166,0.425,1.565h-2.102h-2.101c0.241-0.464,0.408-1.021,0.501-1.67
			c0.093-0.65,0.139-1.568,0.139-2.756v-5.58c0-0.881-0.205-1.537-0.612-1.969c-0.408-0.432-1.035-0.646-1.878-0.646
			c-0.576,0-1.327,0.213-2.254,0.64l-0.682,0.306v7.25c0,1.179,0.049,2.09,0.146,2.734c0.097,0.645,0.267,1.208,0.508,1.691h-2.157
			h-2.157c0.241-0.464,0.408-1.021,0.501-1.67C-526.408,53.25-526.362,52.332-526.362,51.145z"/>
		<path fill="#1C1C1C" d="M-508.55,51.521c0,0.26,0.158,0.48,0.473,0.661s0.705,0.271,1.169,0.271h3.256
			c1.298,0,2.25,0.269,2.853,0.807c0.603,0.539,0.905,1.392,0.905,2.561c0,1.299-0.631,2.397-1.893,3.298
			c-1.262,0.9-2.807,1.35-4.634,1.35c-1.855,0-3.247-0.184-4.175-0.55c-0.928-0.365-1.392-0.915-1.392-1.648
			c0-0.371,0.186-0.786,0.557-1.245c0.371-0.46,1.113-1.194,2.227-2.206c-0.779-0.065-1.396-0.194-1.851-0.39
			c-0.622-0.269-0.933-0.678-0.933-1.225c0-0.407,0.167-0.774,0.501-1.099c0.334-0.325,1.215-0.975,2.644-1.948
			c-0.547-0.232-1.048-0.557-1.503-0.975c-1.011-0.928-1.517-2.092-1.517-3.492c0-1.597,0.505-2.925,1.517-3.987
			c1.011-1.062,2.282-1.593,3.813-1.593c1.169,0,2.194,0.297,3.075,0.891h1.559c0.603,0,1.194-0.028,1.774-0.083
			c0.58-0.056,0.99-0.121,1.231-0.195l-0.32,2.393l-2.449,0.015c0.315,0.677,0.473,1.447,0.473,2.31
			c0,1.476-0.508,2.702-1.523,3.681c-1.016,0.979-2.289,1.468-3.82,1.468c-0.39,0-0.766-0.032-1.127-0.097
			c-0.25,0.111-0.464,0.269-0.64,0.473C-508.467,51.159-508.55,51.344-508.55,51.521z M-506.699,42.225
			c-0.706,0-1.271,0.253-1.698,0.758c-0.427,0.506-0.64,1.176-0.64,2.011c0,0.956,0.262,1.774,0.786,2.456
			c0.524,0.682,1.152,1.022,1.886,1.022h-0.014c0.724,0,1.298-0.247,1.726-0.744c0.427-0.496,0.64-1.166,0.64-2.011
			c0-0.974-0.257-1.8-0.772-2.477c-0.515-0.678-1.148-1.016-1.899-1.016H-506.699z M-508.87,56.433c0,0.547,0.229,0.95,0.689,1.211
			c0.459,0.26,1.171,0.39,2.136,0.39c1.058,0,1.839-0.137,2.345-0.411c0.505-0.273,0.758-0.692,0.758-1.259
			c0-0.464-0.181-0.832-0.542-1.106s-0.854-0.41-1.475-0.41h-2.978c-0.26,0.167-0.48,0.403-0.661,0.709
			C-508.78,55.863-508.87,56.155-508.87,56.433z"/>
		<path fill="#1C1C1C" d="M-487.789,53.782c-1.271-1.415-1.906-3.189-1.906-5.323c0-2.394,0.707-4.383,2.122-5.969
			c1.414-1.586,3.184-2.38,5.309-2.38c1.92,0,3.514,0.71,4.78,2.129c1.267,1.419,1.9,3.196,1.9,5.329
			c0,2.394-0.706,4.381-2.115,5.963c-1.411,1.582-3.183,2.373-5.316,2.373C-484.927,55.905-486.518,55.198-487.789,53.782z
			 M-479.446,51.904c0.478-0.914,0.717-1.983,0.717-3.208c0-1.93-0.464-3.476-1.392-4.641c-0.928-1.164-2.185-1.774-3.771-1.83
			c-0.817,0.334-1.464,0.962-1.941,1.885c-0.478,0.923-0.716,1.997-0.716,3.222c0,1.93,0.463,3.475,1.392,4.634
			c0.927,1.159,2.185,1.768,3.771,1.823C-480.572,53.446-479.924,52.818-479.446,51.904z"/>
		<path fill="#1C1C1C" d="M-472.69,51.145v-6.275c0-0.816-0.047-1.549-0.139-2.198c-0.093-0.65-0.26-1.392-0.501-2.227h1.823h1.836
			v2.686l2.352-2.644c0.696-0.25,1.364-0.376,2.003-0.376c0.529,0,0.979,0.102,1.35,0.306l-0.612,3.256l-0.139-0.097
			c-0.566-0.418-1.238-0.626-2.018-0.626c-0.576,0-1.327,0.213-2.254,0.64l-0.682,0.306v7.25c0,1.179,0.049,2.09,0.146,2.734
			c0.097,0.645,0.266,1.208,0.508,1.691h-2.157h-2.157c0.241-0.464,0.408-1.021,0.501-1.67
			C-472.737,53.25-472.69,52.332-472.69,51.145z"/>
		<path fill="#1C1C1C" d="M-456.882,55.905c-1.865,0-3.342-0.585-4.432-1.754c-1.091-1.169-1.635-2.751-1.635-4.745
			c0-2.662,0.753-4.877,2.261-6.645c1.507-1.767,3.397-2.651,5.67-2.651c0.612,0,1.183,0.083,1.712,0.25v-1.183
			c0-0.984-0.047-1.799-0.139-2.449c-0.093-0.649-0.26-1.308-0.501-1.976l2.115-0.431l2.129-0.445
			c-0.223,0.612-0.376,1.34-0.459,2.185c-0.083,0.845-0.125,2.032-0.125,3.563v11.521c0,1.179,0.049,2.09,0.146,2.734
			c0.098,0.645,0.266,1.208,0.508,1.691h-1.836h-1.837v-2.06l-1.795,2.031C-455.797,55.793-456.391,55.913-456.882,55.905z
			 M-456.047,42.253c-1.346,0-2.315,0.457-2.909,1.371c-0.594,0.914-0.891,2.404-0.891,4.474c0,1.651,0.359,2.961,1.079,3.931
			c0.718,0.97,1.691,1.454,2.916,1.454c0.593,0,1.145-0.111,1.656-0.334l0.891-0.473V43.13
			C-454.012,42.546-454.926,42.253-456.047,42.253z"/>
		<path fill="#1C1C1C" d="M-440.31,55.905c-2.087,0-3.799-0.699-5.135-2.095c-1.335-1.396-2.003-3.189-2.003-5.378
			c0-2.384,0.586-4.367,1.76-5.949c1.173-1.582,2.641-2.373,4.404-2.373h0.027c1.726,0,3.055,0.599,3.987,1.795
			c0.933,1.196,1.398,2.903,1.398,5.121v1.363h-8.374c0.148,1.373,0.547,2.515,1.197,3.423c0.826,1.151,1.948,1.726,3.369,1.726
			c0.64,0,1.271-0.084,1.893-0.253c0.622-0.17,1.184-0.409,1.685-0.719l-1.202,2.906c-0.659,0.177-1.19,0.292-1.593,0.348
			S-439.772,55.905-440.31,55.905z M-438.342,46.288c-0.008-1.317-0.252-2.323-0.73-3.02c-0.478-0.695-1.176-1.043-2.095-1.043
			h0.014c-1.002,0-1.777,0.427-2.325,1.28c-0.436,0.687-0.701,1.614-0.793,2.783H-438.342z"/>
		<path fill="#1C1C1C" d="M-432.753,51.145v-6.275c0-0.816-0.047-1.549-0.139-2.198c-0.093-0.65-0.26-1.392-0.501-2.227h1.823h1.836
			v2.686l2.352-2.644c0.696-0.25,1.363-0.376,2.003-0.376c0.529,0,0.979,0.102,1.35,0.306l-0.612,3.256l-0.139-0.097
			c-0.566-0.418-1.239-0.626-2.018-0.626c-0.576,0-1.328,0.213-2.254,0.64l-0.682,0.306v7.25c0,1.179,0.049,2.09,0.146,2.734
			c0.097,0.645,0.266,1.208,0.508,1.691h-2.157h-2.157c0.241-0.464,0.408-1.021,0.501-1.67
			C-432.8,53.25-432.753,52.332-432.753,51.145z"/>
		<path fill="#1C1C1C" d="M-419.875,51.187c0.661,0,1.218,0.229,1.675,0.688c0.456,0.46,0.684,1.019,0.684,1.677
			c0,0.659-0.228,1.216-0.684,1.67c-0.457,0.455-1.014,0.683-1.675,0.683c-0.661,0-1.22-0.228-1.675-0.683
			c-0.456-0.454-0.684-1.011-0.684-1.67c0-0.658,0.228-1.217,0.684-1.677C-421.094,51.416-420.536,51.187-419.875,51.187z"/>
	</g>
	<g>
		<path fill="#1C75BA" d="M-609.875-67.775c-1.234,0.631-2.324,1.064-3.27,1.301c-0.946,0.237-2.064,0.355-3.354,0.355
			c-3.117,0-5.712-1.02-7.786-3.061c-2.074-2.041-3.11-4.602-3.11-7.682c0-3.367,1.1-6.165,3.298-8.391
			c2.198-2.227,4.954-3.34,8.266-3.34c1.048,0,2.011,0.077,2.887,0.229c0.877,0.153,1.779,0.406,2.707,0.759V-84
			c-0.844-0.631-1.778-1.113-2.803-1.447c-1.025-0.334-2.08-0.501-3.166-0.501c-2.17,0-3.977,0.816-5.419,2.449
			c-1.442,1.633-2.163,3.679-2.163,6.137c0,2.468,0.679,4.519,2.038,6.151c1.359,1.633,3.059,2.449,5.1,2.449
			c1.373,0,2.59-0.2,3.652-0.6c1.062-0.401,2.159-1.071,3.291-2.012L-609.875-67.775z"/>
		<path fill="#1C75BA" d="M-606.451-68.241c-1.271-1.415-1.907-3.188-1.907-5.323c0-2.393,0.708-4.383,2.122-5.969
			c1.415-1.586,3.184-2.38,5.309-2.38c1.92,0,3.514,0.71,4.78,2.129c1.266,1.419,1.899,3.196,1.899,5.33
			c0,2.393-0.706,4.381-2.115,5.962c-1.41,1.582-3.182,2.373-5.315,2.373C-603.589-66.119-605.181-66.826-606.451-68.241z
			 M-598.109-70.12c0.477-0.914,0.716-1.983,0.716-3.208c0-1.93-0.464-3.476-1.392-4.641c-0.928-1.164-2.185-1.774-3.771-1.83
			c-0.816,0.334-1.463,0.963-1.941,1.886c-0.478,0.923-0.717,1.997-0.717,3.221c0,1.93,0.463,3.475,1.392,4.634
			c0.928,1.16,2.185,1.767,3.771,1.823C-599.234-68.577-598.587-69.206-598.109-70.12z"/>
		<path fill="#1C75BA" d="M-591.423-70.878v-6.276c0-0.825-0.046-1.563-0.139-2.212s-0.26-1.387-0.501-2.213h1.823h1.836v2.63
			l2.296-2.644c0.779-0.213,1.428-0.32,1.948-0.32c1.373,0,2.417,0.429,3.131,1.287c0.714,0.858,1.071,2.108,1.071,3.75v5.998
			c0,1.262,0.039,2.215,0.118,2.859c0.079,0.645,0.22,1.167,0.424,1.565h-2.101h-2.101c0.241-0.463,0.408-1.02,0.501-1.67
			c0.093-0.649,0.139-1.567,0.139-2.755v-5.58c0-0.881-0.205-1.538-0.612-1.969c-0.408-0.431-1.035-0.647-1.878-0.647
			c-0.576,0-1.327,0.213-2.254,0.64l-0.682,0.306v7.25c0,1.178,0.049,2.09,0.146,2.734c0.097,0.645,0.267,1.208,0.508,1.69h-2.157
			h-2.157c0.241-0.463,0.408-1.02,0.501-1.67C-591.469-68.772-591.423-69.691-591.423-70.878z"/>
		<path fill="#1C75BA" d="M-576.186-70.878v-6.276c0-0.825-0.046-1.563-0.139-2.212s-0.26-1.387-0.501-2.213h1.823h1.837v2.63
			l2.296-2.644c0.779-0.213,1.428-0.32,1.948-0.32c1.373,0,2.417,0.429,3.131,1.287c0.714,0.858,1.071,2.108,1.071,3.75v5.998
			c0,1.262,0.039,2.215,0.118,2.859c0.079,0.645,0.22,1.167,0.424,1.565h-2.101h-2.101c0.241-0.463,0.408-1.02,0.501-1.67
			c0.092-0.649,0.139-1.567,0.139-2.755v-5.58c0-0.881-0.205-1.538-0.612-1.969c-0.408-0.431-1.035-0.647-1.878-0.647
			c-0.576,0-1.327,0.213-2.254,0.64l-0.682,0.306v7.25c0,1.178,0.049,2.09,0.146,2.734c0.097,0.645,0.266,1.208,0.508,1.69h-2.157
			h-2.157c0.241-0.463,0.408-1.02,0.501-1.67C-576.232-68.772-576.186-69.691-576.186-70.878z"/>
		<path fill="#1C75BA" d="M-554.77-66.119c-2.087,0-3.799-0.698-5.135-2.094c-1.335-1.396-2.003-3.188-2.003-5.378
			c0-2.384,0.586-4.367,1.76-5.949c1.173-1.582,2.641-2.373,4.404-2.373h0.028c1.725,0,3.054,0.599,3.986,1.795
			c0.933,1.196,1.398,2.904,1.398,5.121l0,1.364h-8.374c0.148,1.373,0.547,2.514,1.197,3.423c0.826,1.15,1.949,1.725,3.369,1.725
			c0.64,0,1.271-0.084,1.893-0.253c0.622-0.169,1.183-0.408,1.685-0.719l-1.202,2.907c-0.659,0.176-1.19,0.292-1.593,0.348
			S-554.232-66.119-554.77-66.119z M-552.803-75.735c-0.009-1.317-0.252-2.324-0.73-3.02c-0.478-0.695-1.176-1.043-2.095-1.043
			h0.014c-1.002,0-1.777,0.427-2.325,1.28c-0.436,0.687-0.701,1.614-0.793,2.783H-552.803z"/>
		<path fill="#1C75BA" d="M-538.183-66.551c-0.687,0.176-1.241,0.292-1.663,0.348c-0.422,0.056-0.921,0.083-1.496,0.083
			c-2.004,0-3.672-0.705-5.003-2.115c-1.332-1.41-1.997-3.182-1.997-5.315c0-2.394,0.737-4.386,2.212-5.977s3.321-2.387,5.538-2.387
			c0.594,0,1.111,0.021,1.552,0.063c0.44,0.042,1.051,0.132,1.83,0.271l-0.153,3.489c-0.556-0.602-1.11-1.037-1.661-1.305
			s-1.157-0.403-1.814-0.403c-1.335,0-2.395,0.503-3.177,1.51c-0.784,1.007-1.175,2.368-1.175,4.084
			c0,1.753,0.415,3.145,1.245,4.174s1.951,1.544,3.36,1.544c0.482,0,0.983-0.07,1.502-0.211c0.519-0.141,1.22-0.395,2.101-0.761
			L-538.183-66.551z"/>
		<path fill="#1C75BA" d="M-530.404-66.119c-1.188,0-2.052-0.352-2.595-1.058c-0.542-0.705-0.814-1.832-0.814-3.381v-8.934h-2.143
			v-0.007l5.142-5.42h0.021v3.339h3.521v2.087h-3.521v7.667c0,1.021,0.174,1.784,0.522,2.289c0.348,0.506,0.87,0.758,1.565,0.758
			c0.427,0,0.818-0.051,1.176-0.153c0.357-0.102,0.787-0.282,1.287-0.542l-1.196,2.908c-0.529,0.176-0.991,0.294-1.385,0.355
			C-529.219-66.15-529.746-66.119-530.404-66.119z"/>
		<path fill="#1C75BA" d="M-510.38-66.119c-1.865,0-3.342-0.584-4.432-1.753c-1.09-1.169-1.635-2.75-1.635-4.745
			c0-2.662,0.754-4.877,2.261-6.645c1.507-1.767,3.398-2.651,5.671-2.651c0.612,0,1.183,0.083,1.711,0.25v-1.183
			c0-0.983-0.046-1.799-0.139-2.449c-0.093-0.649-0.26-1.308-0.501-1.976l2.115-0.431l2.129-0.445
			c-0.223,0.612-0.375,1.341-0.459,2.185c-0.083,0.845-0.125,2.032-0.125,3.563v11.522c0,1.178,0.049,2.09,0.146,2.734
			c0.098,0.645,0.267,1.208,0.508,1.69h-1.837h-1.837v-2.06l-1.795,2.032C-509.294-66.231-509.889-66.11-510.38-66.119z
			 M-509.545-79.77c-1.346,0-2.315,0.457-2.908,1.371c-0.594,0.914-0.891,2.405-0.891,4.474c0,1.651,0.359,2.961,1.078,3.931
			c0.719,0.97,1.691,1.454,2.916,1.454c0.593,0,1.146-0.111,1.656-0.334l0.891-0.473v-9.546
			C-507.509-79.478-508.423-79.77-509.545-79.77z"/>
		<path fill="#1C75BA" d="M-499.248-68.241c-1.271-1.415-1.907-3.188-1.907-5.323c0-2.393,0.707-4.383,2.122-5.969
			c1.415-1.586,3.184-2.38,5.309-2.38c1.92,0,3.514,0.71,4.78,2.129c1.266,1.419,1.899,3.196,1.899,5.33
			c0,2.393-0.706,4.381-2.115,5.962c-1.41,1.582-3.182,2.373-5.315,2.373C-496.386-66.119-497.977-66.826-499.248-68.241z
			 M-490.905-70.12c0.477-0.914,0.716-1.983,0.716-3.208c0-1.93-0.464-3.476-1.392-4.641c-0.928-1.164-2.185-1.774-3.771-1.83
			c-0.816,0.334-1.463,0.963-1.941,1.886c-0.478,0.923-0.717,1.997-0.717,3.221c0,1.93,0.463,3.475,1.392,4.634
			c0.928,1.16,2.185,1.767,3.771,1.823C-492.03-68.577-491.383-69.206-490.905-70.12z"/>
		<path fill="#1C75BA" d="M-480.476-66.119c-1.188,0-2.052-0.352-2.595-1.058c-0.542-0.705-0.814-1.832-0.814-3.381v-8.934h-2.143
			v-0.007l5.142-5.42h0.021v3.339h3.521v2.087h-3.521v7.667c0,1.021,0.174,1.784,0.522,2.289c0.348,0.506,0.87,0.758,1.565,0.758
			c0.426,0,0.818-0.051,1.176-0.153c0.356-0.102,0.786-0.282,1.287-0.542l-1.197,2.908c-0.528,0.176-0.99,0.294-1.384,0.355
			C-479.292-66.15-479.817-66.119-480.476-66.119z"/>
		<path fill="#1C75BA" d="M-467.815-78.351c-0.426-0.501-0.862-0.867-1.306-1.099c-0.445-0.232-0.94-0.348-1.487-0.348
			c-0.602,0-1.103,0.158-1.501,0.473c-0.398,0.316-0.597,0.71-0.597,1.183c0,0.464,0.134,0.882,0.404,1.252
			c0.259,0.372,0.755,0.84,1.487,1.406c1.232,0.956,2.098,1.795,2.599,2.519c0.491,0.714,0.737,1.489,0.737,2.324
			c0,1.299-0.452,2.377-1.358,3.235c-0.905,0.858-2.045,1.287-3.419,1.287c-0.752,0-1.395-0.044-1.929-0.132
			c-0.534-0.088-1.19-0.257-1.971-0.508v-3.604c0.585,0.706,1.17,1.229,1.755,1.573c0.585,0.343,1.185,0.515,1.797,0.515
			c0.594,0,1.086-0.174,1.477-0.522c0.39-0.348,0.584-0.786,0.584-1.315c0-0.427-0.158-0.839-0.473-1.238
			c-0.305-0.39-0.898-0.923-1.78-1.601c-1.111-0.862-1.895-1.642-2.349-2.337c-0.447-0.687-0.671-1.452-0.671-2.296
			c0-1.243,0.494-2.275,1.482-3.096c0.987-0.821,2.229-1.231,3.722-1.231c0.547,0,1.02,0.047,1.418,0.139
			c0.399,0.093,0.858,0.26,1.377,0.501V-78.351z"/>
		<path fill="#1C75BA" d="M-452.089-66.119c-1.188,0-2.052-0.352-2.595-1.058c-0.542-0.705-0.814-1.832-0.814-3.381v-8.934h-2.143
			v-0.007l5.142-5.42h0.021v3.339h3.521v2.087h-3.521v7.667c0,1.021,0.174,1.784,0.522,2.289c0.348,0.506,0.87,0.758,1.565,0.758
			c0.426,0,0.818-0.051,1.176-0.153c0.357-0.102,0.786-0.282,1.287-0.542l-1.196,2.908c-0.529,0.176-0.991,0.294-1.385,0.355
			C-450.904-66.15-451.43-66.119-452.089-66.119z"/>
		<path fill="#1C75BA" d="M-445.632-68.241c-1.271-1.415-1.907-3.188-1.907-5.323c0-2.393,0.707-4.383,2.122-5.969
			c1.415-1.586,3.184-2.38,5.309-2.38c1.92,0,3.514,0.71,4.78,2.129c1.266,1.419,1.899,3.196,1.899,5.33
			c0,2.393-0.706,4.381-2.115,5.962c-1.411,1.582-3.182,2.373-5.315,2.373C-442.771-66.119-444.361-66.826-445.632-68.241z
			 M-437.29-70.12c0.477-0.914,0.716-1.983,0.716-3.208c0-1.93-0.464-3.476-1.392-4.641c-0.928-1.164-2.185-1.774-3.771-1.83
			c-0.816,0.334-1.463,0.963-1.941,1.886c-0.479,0.923-0.717,1.997-0.717,3.221c0,1.93,0.463,3.475,1.392,4.634
			c0.927,1.16,2.185,1.767,3.771,1.823C-438.415-68.577-437.768-69.206-437.29-70.12z"/>
		<path fill="#1C75BA" d="M-624.562-39.416v8.614c0,1.178,0.049,2.09,0.146,2.734c0.098,0.645,0.267,1.208,0.508,1.69h-2.157h-2.157
			c0.241-0.463,0.408-1.02,0.501-1.67c0.092-0.649,0.139-1.567,0.139-2.755v-8.614h-1.642v-0.042l1.099-2.045h0.543v-1.21
			c0-1.716,0.45-3.052,1.35-4.008c0.9-0.955,2.161-1.433,3.785-1.433c0.565,0,1.069,0.035,1.51,0.104
			c0.44,0.069,0.888,0.188,1.343,0.354l-0.71,2.992c-0.39-0.445-0.761-0.772-1.113-0.981c-0.353-0.208-0.72-0.313-1.1-0.313
			c-0.687,0-1.199,0.211-1.538,0.633c-0.339,0.422-0.508,1.06-0.508,1.913v1.948h3.034v2.087H-624.562z"/>
		<path fill="#1C75BA" d="M-618.787-28.165c-1.271-1.415-1.907-3.189-1.907-5.323c0-2.393,0.708-4.383,2.122-5.97
			c1.415-1.586,3.184-2.379,5.309-2.379c1.92,0,3.514,0.71,4.78,2.129c1.266,1.419,1.899,3.196,1.899,5.329
			c0,2.394-0.706,4.381-2.115,5.963c-1.41,1.582-3.182,2.373-5.315,2.373C-615.925-26.043-617.517-26.75-618.787-28.165z
			 M-610.445-30.044c0.477-0.914,0.716-1.983,0.716-3.208c0-1.93-0.464-3.476-1.392-4.641s-2.185-1.774-3.771-1.83
			c-0.816,0.334-1.463,0.963-1.941,1.886c-0.478,0.923-0.717,1.997-0.717,3.221c0,1.93,0.463,3.475,1.392,4.634
			c0.928,1.16,2.185,1.767,3.771,1.823C-611.57-28.501-610.923-29.13-610.445-30.044z"/>
		<path fill="#1C75BA" d="M-603.689-30.802v-6.276c0-0.816-0.047-1.549-0.139-2.199c-0.093-0.649-0.26-1.392-0.501-2.227h1.823
			h1.837v2.686l2.352-2.644c0.696-0.25,1.364-0.376,2.004-0.376c0.529,0,0.979,0.102,1.35,0.306l-0.612,3.256l-0.139-0.098
			c-0.566-0.417-1.238-0.626-2.018-0.626c-0.575,0-1.327,0.213-2.254,0.64l-0.682,0.306v7.25c0,1.178,0.049,2.09,0.146,2.734
			c0.098,0.645,0.267,1.208,0.508,1.69h-2.157h-2.157c0.241-0.463,0.408-1.02,0.501-1.67
			C-603.736-28.696-603.689-29.615-603.689-30.802z"/>
		<path fill="#1C75BA" d="M-593.461-30.802v-6.276c0-0.816-0.046-1.549-0.139-2.199c-0.093-0.649-0.26-1.392-0.501-2.227h1.823
			h1.836v2.908l1.89-2.337l0.681-0.404c0.648-0.334,1.389-0.501,2.223-0.501c1.195,0,2.107,0.376,2.737,1.127
			c0.472,0.557,0.759,1.308,0.861,2.254l2.244-2.504l0.613-0.348c0.65-0.352,1.343-0.529,2.077-0.529c1.171,0,2.063,0.367,2.676,1.1
			s0.92,1.804,0.92,3.214v6.721c0,1.28,0.037,2.245,0.111,2.894c0.074,0.65,0.208,1.16,0.403,1.531h-2.087h-2.087
			c0.241-0.463,0.408-1.02,0.501-1.67c0.093-0.649,0.139-1.567,0.139-2.755v-5.775c0-0.816-0.19-1.424-0.572-1.823
			c-0.381-0.398-0.962-0.598-1.744-0.598c-0.725,0-1.525,0.246-2.399,0.737l-0.726,0.445v7.014c0,1.178,0.049,2.09,0.146,2.734
			c0.097,0.645,0.267,1.208,0.508,1.69h-2.157h-2.157c0.241-0.463,0.408-1.02,0.501-1.67c0.093-0.649,0.139-1.567,0.139-2.755
			v-5.761c0-0.825-0.189-1.438-0.569-1.837c-0.379-0.398-0.962-0.598-1.749-0.598c-0.666,0-1.485,0.255-2.457,0.765l-0.667,0.348
			v7.083c0,1.178,0.049,2.09,0.146,2.734c0.097,0.645,0.266,1.208,0.508,1.69h-2.157h-2.157c0.241-0.463,0.408-1.02,0.501-1.67
			C-593.508-28.696-593.461-29.615-593.461-30.802z"/>
		<path fill="#1C75BA" d="M-556.934-26.043c-1.188,0-2.053-0.352-2.595-1.058c-0.543-0.705-0.814-1.832-0.814-3.381v-8.934h-2.143
			v-0.007l5.142-5.42h0.021v3.339h3.521v2.087h-3.521v7.667c0,1.021,0.174,1.784,0.522,2.289c0.348,0.505,0.87,0.758,1.565,0.758
			c0.426,0,0.818-0.051,1.176-0.153c0.357-0.102,0.786-0.282,1.287-0.542l-1.197,2.908c-0.529,0.176-0.991,0.294-1.385,0.355
			C-555.749-26.073-556.275-26.043-556.934-26.043z"/>
		<path fill="#1C75BA" d="M-551.312-30.802v-11.967c0-0.983-0.046-1.799-0.139-2.449c-0.093-0.649-0.26-1.308-0.501-1.976
			l2.157-0.431l2.157-0.445c-0.241,0.687-0.411,1.452-0.508,2.296c-0.098,0.845-0.146,1.995-0.146,3.451v3.451l2.296-2.644
			c0.779-0.213,1.428-0.32,1.948-0.32c1.373,0,2.416,0.429,3.131,1.287c0.714,0.858,1.071,2.108,1.071,3.75v5.998
			c0,1.262,0.039,2.215,0.118,2.859c0.079,0.645,0.22,1.167,0.425,1.565h-2.102h-2.101c0.241-0.463,0.408-1.02,0.501-1.67
			c0.093-0.649,0.139-1.567,0.139-2.755v-5.58c0-0.881-0.205-1.538-0.612-1.969c-0.408-0.431-1.035-0.647-1.878-0.647
			c-0.576,0-1.327,0.213-2.254,0.64l-0.682,0.306v7.25c0,1.178,0.048,2.09,0.146,2.734c0.097,0.645,0.267,1.208,0.508,1.69h-2.157
			h-2.157c0.241-0.463,0.408-1.02,0.501-1.67C-551.358-28.696-551.312-29.615-551.312-30.802z"/>
		<path fill="#1C75BA" d="M-529.799-26.043c-2.087,0-3.799-0.698-5.135-2.094c-1.336-1.396-2.004-3.189-2.004-5.378
			c0-2.384,0.587-4.367,1.76-5.949c1.173-1.582,2.642-2.373,4.404-2.373h0.028c1.726,0,3.055,0.599,3.987,1.795
			c0.932,1.196,1.398,2.904,1.398,5.121l0,1.364h-8.374c0.148,1.373,0.547,2.514,1.197,3.423c0.826,1.151,1.949,1.726,3.368,1.726
			c0.64,0,1.271-0.084,1.893-0.253c0.622-0.169,1.184-0.408,1.685-0.719l-1.202,2.907c-0.659,0.176-1.19,0.292-1.593,0.348
			C-528.79-26.071-529.261-26.043-529.799-26.043z M-527.832-35.658c-0.009-1.317-0.252-2.324-0.73-3.02s-1.176-1.043-2.095-1.043
			h0.014c-1.002,0-1.777,0.427-2.325,1.28c-0.436,0.687-0.701,1.614-0.793,2.783H-527.832z"/>
		<path fill="#1C75BA" d="M-513.295-37.078c0-0.816-0.046-1.549-0.139-2.199c-0.093-0.649-0.26-1.392-0.501-2.227h1.823h1.837v2.63
			l2.059-2.435l0.376-0.195c0.482-0.223,1.058-0.334,1.726-0.334c1.604,0,2.903,0.747,3.896,2.241s1.489,3.437,1.489,5.83
			c0,2.468-0.471,4.372-1.413,5.712c-0.942,1.341-2.285,2.011-4.028,2.011c-1.568-0.009-2.937-0.515-4.105-1.517v1.559
			c0,0.807,0.048,1.535,0.146,2.185c0.097,0.649,0.267,1.396,0.508,2.24h-2.157h-2.157c0.241-0.826,0.408-1.563,0.501-2.212
			c0.093-0.65,0.139-1.387,0.139-2.212V-37.078z M-507.729-28.437c1.243,0,2.203-0.452,2.88-1.356
			c0.677-0.905,1.016-2.192,1.016-3.862c0-1.642-0.327-2.943-0.981-3.903c-0.654-0.96-1.538-1.44-2.651-1.44
			c-0.557,0-1.188,0.144-1.893,0.431c-0.297,0.121-0.603,0.27-0.918,0.445v8.335C-509.589-28.886-508.741-28.437-507.729-28.437z"/>
		<path fill="#1C75BA" d="M-497.641-30.802v-6.276c0-0.816-0.046-1.549-0.139-2.199c-0.093-0.649-0.26-1.392-0.501-2.227h2.157
			h2.157c-0.241,0.483-0.411,1.048-0.508,1.698c-0.098,0.649-0.146,1.559-0.146,2.728v6.276c0,1.178,0.049,2.09,0.146,2.734
			c0.097,0.645,0.267,1.208,0.508,1.69h-2.157h-2.157c0.241-0.463,0.408-1.02,0.501-1.67
			C-497.687-28.696-497.641-29.615-497.641-30.802z M-496.2-47.821c0.568,0,1.049,0.228,1.445,0.682
			c0.396,0.455,0.594,1.012,0.594,1.67c0,0.659-0.198,1.213-0.594,1.663c-0.396,0.45-0.877,0.675-1.445,0.675
			s-1.05-0.225-1.445-0.675c-0.396-0.45-0.593-1.004-0.593-1.663c0-0.658,0.197-1.215,0.593-1.67
			C-497.25-47.593-496.768-47.821-496.2-47.821z"/>
		<path fill="#1C75BA" d="M-481.68-26.474c-0.687,0.176-1.241,0.292-1.663,0.348c-0.423,0.056-0.921,0.083-1.496,0.083
			c-2.004,0-3.671-0.705-5.002-2.115c-1.332-1.41-1.997-3.182-1.997-5.315c0-2.394,0.738-4.386,2.212-5.977
			c1.475-1.591,3.321-2.387,5.539-2.387c0.593,0,1.11,0.021,1.552,0.063c0.44,0.042,1.05,0.132,1.83,0.271l-0.153,3.489
			c-0.556-0.602-1.11-1.037-1.661-1.305c-0.552-0.269-1.157-0.403-1.814-0.403c-1.335,0-2.394,0.503-3.177,1.51
			c-0.783,1.007-1.175,2.368-1.175,4.084c0,1.753,0.415,3.145,1.245,4.175s1.95,1.544,3.36,1.544c0.482,0,0.983-0.07,1.502-0.211
			c0.52-0.141,1.22-0.395,2.102-0.761L-481.68-26.474z"/>
		<path fill="#1C75BA" d="M-473.901-26.043c-1.188,0-2.053-0.352-2.595-1.058c-0.543-0.705-0.814-1.832-0.814-3.381v-8.934h-2.143
			v-0.007l5.142-5.42h0.021v3.339h3.521v2.087h-3.521v7.667c0,1.021,0.174,1.784,0.522,2.289c0.348,0.505,0.87,0.758,1.565,0.758
			c0.426,0,0.818-0.051,1.176-0.153c0.356-0.102,0.786-0.282,1.287-0.542l-1.197,2.908c-0.529,0.176-0.991,0.294-1.385,0.355
			C-472.716-26.073-473.243-26.043-473.901-26.043z"/>
		<path fill="#1C75BA" d="M-465.427-37.083v5.629c0,0.872,0.202,1.518,0.605,1.939c0.404,0.422,1.018,0.632,1.844,0.632
			c0.659,0,1.447-0.181,2.366-0.542l0.501-0.195v-7.464c0-0.825-0.047-1.562-0.139-2.21c-0.093-0.648-0.26-1.385-0.501-2.21h2.157
			h2.157c-0.242,0.483-0.411,1.048-0.508,1.698c-0.097,0.649-0.146,1.559-0.146,2.728v6.276c0,1.178,0.049,2.09,0.146,2.734
			c0.098,0.645,0.266,1.208,0.508,1.69h-1.753h-1.768v-2.574l-2.379,2.576c-0.863,0.221-1.512,0.332-1.948,0.332
			c-1.363,0-2.398-0.361-3.103-1.084c-0.705-0.723-1.058-1.774-1.058-3.156v-6.798c0-0.815-0.047-1.548-0.139-2.197
			c-0.093-0.648-0.26-1.391-0.501-2.225h2.157h2.157c-0.242,0.482-0.413,1.047-0.515,1.696
			C-465.38-39.158-465.427-38.25-465.427-37.083z"/>
		<path fill="#1C75BA" d="M-452.875-30.802v-6.276c0-0.816-0.047-1.549-0.139-2.199c-0.093-0.649-0.26-1.392-0.501-2.227h1.823
			h1.836v2.686l2.352-2.644c0.696-0.25,1.364-0.376,2.003-0.376c0.529,0,0.979,0.102,1.35,0.306l-0.612,3.256l-0.139-0.098
			c-0.566-0.417-1.238-0.626-2.018-0.626c-0.576,0-1.327,0.213-2.254,0.64l-0.682,0.306v7.25c0,1.178,0.049,2.09,0.146,2.734
			c0.097,0.645,0.266,1.208,0.508,1.69h-2.157h-2.157c0.241-0.463,0.408-1.02,0.501-1.67
			C-452.922-28.696-452.875-29.615-452.875-30.802z"/>
		<path fill="#1C75BA" d="M-436.26-26.043c-2.087,0-3.799-0.698-5.134-2.094c-1.336-1.396-2.004-3.189-2.004-5.378
			c0-2.384,0.586-4.367,1.76-5.949c1.173-1.582,2.641-2.373,4.404-2.373h0.028c1.725,0,3.054,0.599,3.986,1.795
			c0.933,1.196,1.399,2.904,1.399,5.121v1.364h-8.374c0.147,1.373,0.547,2.514,1.196,3.423c0.826,1.151,1.948,1.726,3.369,1.726
			c0.64,0,1.271-0.084,1.893-0.253c0.622-0.169,1.184-0.408,1.685-0.719l-1.202,2.907c-0.659,0.176-1.189,0.292-1.593,0.348
			C-435.251-26.071-435.723-26.043-436.26-26.043z M-434.293-35.658c-0.008-1.317-0.252-2.324-0.73-3.02
			c-0.478-0.696-1.176-1.043-2.095-1.043h0.014c-1.002,0-1.777,0.427-2.325,1.28c-0.436,0.687-0.701,1.614-0.793,2.783H-434.293z"/>
		<path fill="#1C75BA" d="M-638.116,14.033c-1.475,0-2.612-0.316-3.409-0.946c-0.798-0.63-1.197-1.531-1.197-2.7
			c0-0.779,0.281-1.512,0.842-2.198s1.319-1.229,2.275-1.628l4.453-1.837V3.346c0-0.825-0.255-1.482-0.765-1.969
			c-0.511-0.487-1.197-0.731-2.06-0.731c-0.557,0-1.094,0.095-1.613,0.284c-0.519,0.189-1.09,0.5-1.71,0.935l0.833-2.902
			c0.594-0.25,1.169-0.434,1.726-0.55c0.557-0.116,1.122-0.174,1.698-0.174c1.632,0,2.859,0.427,3.68,1.28
			c0.821,0.854,1.232,2.129,1.232,3.827v5.928c0,1.262,0.039,2.215,0.118,2.86c0.079,0.645,0.22,1.167,0.424,1.565h-1.781h-1.781
			v-1.447l-2.352,1.753L-638.116,14.033z M-635.152,11.403V7.242h-3.896c-0.093,0-0.211,0.281-0.355,0.842
			c-0.144,0.562-0.216,1.032-0.216,1.412c0,0.715,0.232,1.25,0.696,1.607c0.464,0.357,1.16,0.536,2.087,0.536
			c0.575,0,1.127-0.079,1.656-0.236H-635.152z"/>
		<path fill="#1C75BA" d="M-628.458,9.274V2.998c0-0.826-0.046-1.563-0.139-2.213c-0.093-0.649-0.26-1.387-0.501-2.212h1.823h1.836
			v2.63l2.296-2.644c0.779-0.213,1.428-0.32,1.948-0.32c1.373,0,2.417,0.429,3.131,1.287c0.714,0.858,1.071,2.108,1.071,3.75v5.997
			c0,1.262,0.039,2.215,0.118,2.86c0.079,0.645,0.22,1.167,0.425,1.565h-2.102h-2.101c0.241-0.463,0.408-1.02,0.501-1.67
			c0.093-0.649,0.139-1.567,0.139-2.755v-5.58c0-0.881-0.205-1.538-0.612-1.969c-0.408-0.431-1.035-0.647-1.878-0.647
			c-0.576,0-1.327,0.213-2.254,0.64l-0.682,0.306v7.25c0,1.179,0.049,2.09,0.146,2.734c0.097,0.645,0.267,1.208,0.508,1.691h-2.157
			h-2.157c0.241-0.463,0.408-1.02,0.501-1.67C-628.505,11.38-628.458,10.462-628.458,9.274z"/>
		<path fill="#1C75BA" d="M-607.85,14.033c-1.865,0-3.342-0.584-4.432-1.753c-1.09-1.169-1.635-2.75-1.635-4.745
			c0-2.662,0.754-4.877,2.261-6.645s3.397-2.651,5.67-2.651c0.612,0,1.183,0.083,1.712,0.25v-1.183c0-0.983-0.047-1.8-0.139-2.449
			c-0.093-0.649-0.26-1.308-0.501-1.976l2.115-0.431l2.129-0.445c-0.223,0.612-0.376,1.34-0.459,2.185
			c-0.083,0.845-0.125,2.032-0.125,3.563V9.274c0,1.179,0.049,2.09,0.146,2.734c0.098,0.645,0.267,1.208,0.508,1.691h-1.836h-1.837
			v-2.06l-1.795,2.032C-606.765,13.922-607.358,14.042-607.85,14.033z M-607.015,0.382c-1.346,0-2.315,0.457-2.909,1.371
			c-0.594,0.914-0.891,2.405-0.891,4.474c0,1.652,0.359,2.962,1.079,3.931c0.719,0.97,1.691,1.454,2.915,1.454
			c0.594,0,1.146-0.111,1.656-0.334l0.891-0.473V1.259C-604.979,0.674-605.893,0.382-607.015,0.382z"/>
		<path fill="#1C75BA" d="M-588.535,9.274V-2.693c0-0.983-0.047-1.8-0.139-2.449c-0.093-0.649-0.26-1.308-0.501-1.976l2.157-0.431
			l2.157-0.445c-0.241,0.687-0.41,1.452-0.508,2.296c-0.097,0.845-0.146,1.995-0.146,3.451V9.274c0,1.179,0.049,2.09,0.146,2.734
			c0.098,0.645,0.267,1.208,0.508,1.691h-2.157h-2.157c0.241-0.463,0.408-1.02,0.501-1.67
			C-588.582,11.38-588.535,10.462-588.535,9.274z"/>
		<path fill="#1C75BA" d="M-575.511,14.033c-2.087,0-3.799-0.698-5.135-2.094c-1.336-1.396-2.003-3.189-2.003-5.378
			c0-2.384,0.586-4.367,1.76-5.949c1.173-1.582,2.641-2.373,4.404-2.373h0.028c1.726,0,3.055,0.599,3.987,1.795
			c0.933,1.197,1.398,2.904,1.398,5.121l0,1.364h-8.374c0.148,1.373,0.547,2.514,1.197,3.423c0.826,1.151,1.949,1.726,3.369,1.726
			c0.64,0,1.271-0.084,1.892-0.253c0.622-0.169,1.184-0.408,1.685-0.719l-1.202,2.907c-0.659,0.176-1.19,0.292-1.593,0.348
			C-574.502,14.005-574.973,14.033-575.511,14.033z M-573.543,4.417c-0.009-1.317-0.252-2.324-0.73-3.02s-1.176-1.043-2.095-1.043
			h0.014c-1.002,0-1.777,0.427-2.325,1.28c-0.436,0.687-0.701,1.614-0.793,2.783H-573.543z"/>
		<path fill="#1C75BA" d="M-564.545,14.033c-1.475,0-2.612-0.316-3.409-0.946c-0.798-0.63-1.197-1.531-1.197-2.7
			c0-0.779,0.281-1.512,0.842-2.198s1.319-1.229,2.275-1.628l4.453-1.837V3.346c0-0.825-0.255-1.482-0.765-1.969
			c-0.511-0.487-1.197-0.731-2.06-0.731c-0.557,0-1.094,0.095-1.613,0.284s-1.09,0.5-1.71,0.935l0.833-2.902
			c0.594-0.25,1.169-0.434,1.726-0.55c0.557-0.116,1.122-0.174,1.698-0.174c1.632,0,2.859,0.427,3.68,1.28
			c0.821,0.854,1.232,2.129,1.232,3.827v5.928c0,1.262,0.039,2.215,0.118,2.86c0.079,0.645,0.22,1.167,0.424,1.565h-1.781h-1.781
			v-1.447l-2.352,1.753L-564.545,14.033z M-561.582,11.403V7.242h-3.896c-0.093,0-0.211,0.281-0.355,0.842
			c-0.144,0.562-0.216,1.032-0.216,1.412c0,0.715,0.232,1.25,0.696,1.607c0.464,0.357,1.16,0.536,2.087,0.536
			c0.575,0,1.127-0.079,1.656-0.236H-561.582z"/>
		<path fill="#1C75BA" d="M-554.818,9.274V2.998c0-0.816-0.047-1.549-0.139-2.199c-0.093-0.649-0.26-1.392-0.501-2.227h1.823h1.837
			v2.686l2.352-2.644c0.696-0.25,1.364-0.376,2.004-0.376c0.529,0,0.979,0.102,1.35,0.306l-0.612,3.256l-0.139-0.098
			c-0.566-0.417-1.238-0.626-2.018-0.626c-0.575,0-1.327,0.213-2.254,0.64l-0.682,0.306v7.25c0,1.179,0.049,2.09,0.146,2.734
			c0.098,0.645,0.267,1.208,0.508,1.691h-2.157h-2.157c0.241-0.463,0.408-1.02,0.501-1.67
			C-554.865,11.38-554.818,10.462-554.818,9.274z"/>
		<path fill="#1C75BA" d="M-544.382,9.274V2.998c0-0.826-0.047-1.563-0.139-2.213c-0.093-0.649-0.26-1.387-0.501-2.212h1.823h1.837
			v2.63l2.296-2.644c0.779-0.213,1.429-0.32,1.948-0.32c1.373,0,2.417,0.429,3.131,1.287c0.714,0.858,1.071,2.108,1.071,3.75v5.997
			c0,1.262,0.04,2.215,0.119,2.86c0.079,0.645,0.22,1.167,0.424,1.565h-2.101h-2.102c0.241-0.463,0.408-1.02,0.501-1.67
			c0.093-0.649,0.139-1.567,0.139-2.755v-5.58c0-0.881-0.204-1.538-0.612-1.969s-1.034-0.647-1.878-0.647
			c-0.575,0-1.327,0.213-2.254,0.64l-0.682,0.306v7.25c0,1.179,0.049,2.09,0.146,2.734c0.097,0.645,0.267,1.208,0.508,1.691h-2.157
			h-2.157c0.241-0.463,0.408-1.02,0.501-1.67C-544.429,11.38-544.382,10.462-544.382,9.274z"/>
		<path fill="#1C75BA" d="M-511.11,13.602c-0.687,0.176-1.241,0.292-1.663,0.348c-0.422,0.056-0.921,0.083-1.496,0.083
			c-2.003,0-3.671-0.705-5.002-2.115c-1.332-1.41-1.997-3.182-1.997-5.315c0-2.394,0.737-4.386,2.212-5.977s3.321-2.387,5.538-2.387
			c0.594,0,1.111,0.021,1.552,0.063c0.44,0.042,1.051,0.132,1.83,0.271l-0.153,3.489c-0.556-0.602-1.11-1.037-1.661-1.305
			s-1.157-0.403-1.814-0.403c-1.335,0-2.395,0.503-3.177,1.51c-0.784,1.007-1.175,2.368-1.175,4.084
			c0,1.753,0.415,3.145,1.245,4.175s1.951,1.544,3.36,1.544c0.482,0,0.983-0.07,1.502-0.211c0.519-0.141,1.22-0.394,2.101-0.761
			L-511.11,13.602z"/>
		<path fill="#1C75BA" d="M-506.337,11.911c-1.271-1.415-1.907-3.189-1.907-5.323c0-2.394,0.707-4.383,2.122-5.97
			c1.415-1.586,3.184-2.379,5.309-2.379c1.92,0,3.513,0.709,4.78,2.129c1.266,1.419,1.899,3.196,1.899,5.33
			c0,2.394-0.706,4.381-2.115,5.963c-1.41,1.582-3.182,2.373-5.315,2.373C-503.476,14.033-505.067,13.326-506.337,11.911z
			 M-497.995,10.032c0.477-0.914,0.716-1.983,0.716-3.208c0-1.93-0.464-3.477-1.392-4.641c-0.928-1.164-2.185-1.774-3.771-1.83
			c-0.816,0.334-1.463,0.963-1.941,1.885c-0.478,0.923-0.717,1.997-0.717,3.222c0,1.93,0.463,3.475,1.392,4.634
			c0.928,1.16,2.185,1.767,3.771,1.823C-499.12,11.574-498.473,10.947-497.995,10.032z"/>
		<path fill="#1C75BA" d="M-488.554,2.993v5.629c0,0.872,0.202,1.518,0.605,1.939c0.403,0.422,1.018,0.632,1.844,0.632
			c0.658,0,1.447-0.181,2.365-0.542l0.501-0.195V2.993c0-0.825-0.047-1.562-0.139-2.21c-0.093-0.648-0.26-1.385-0.501-2.21h2.157
			h2.157c-0.242,0.483-0.411,1.048-0.508,1.698c-0.098,0.649-0.146,1.559-0.146,2.728v6.275c0,1.179,0.049,2.09,0.146,2.734
			c0.097,0.645,0.266,1.208,0.508,1.691h-1.753h-1.767v-2.574l-2.379,2.576c-0.863,0.221-1.513,0.332-1.948,0.332
			c-1.364,0-2.398-0.361-3.103-1.084c-0.706-0.723-1.058-1.775-1.058-3.156V2.994c0-0.815-0.047-1.548-0.139-2.197
			c-0.093-0.649-0.26-1.391-0.501-2.225h2.157h2.157c-0.241,0.482-0.413,1.047-0.515,1.696
			C-488.508,0.918-488.554,1.826-488.554,2.993z"/>
		<path fill="#1C75BA" d="M-476.072,9.274V2.998c0-0.826-0.047-1.563-0.139-2.213c-0.093-0.649-0.26-1.387-0.501-2.212h1.823h1.837
			v2.63l2.296-2.644c0.779-0.213,1.428-0.32,1.948-0.32c1.373,0,2.416,0.429,3.131,1.287c0.714,0.858,1.071,2.108,1.071,3.75v5.997
			c0,1.262,0.039,2.215,0.118,2.86c0.078,0.645,0.22,1.167,0.424,1.565h-2.101h-2.101c0.241-0.463,0.408-1.02,0.501-1.67
			c0.092-0.649,0.139-1.567,0.139-2.755v-5.58c0-0.881-0.205-1.538-0.612-1.969c-0.409-0.431-1.035-0.647-1.879-0.647
			c-0.576,0-1.327,0.213-2.254,0.64l-0.682,0.306v7.25c0,1.179,0.049,2.09,0.146,2.734c0.098,0.645,0.267,1.208,0.508,1.691h-2.157
			h-2.157c0.241-0.463,0.408-1.02,0.501-1.67C-476.119,11.38-476.072,10.462-476.072,9.274z"/>
		<path fill="#1C75BA" d="M-457.091,14.033c-1.188,0-2.052-0.352-2.595-1.058c-0.542-0.705-0.814-1.832-0.814-3.381V0.66h-2.143
			V0.654l5.142-5.42h0.021v3.34h3.521V0.66h-3.521v7.667c0,1.021,0.174,1.784,0.522,2.289c0.348,0.505,0.87,0.758,1.565,0.758
			c0.426,0,0.818-0.051,1.176-0.153c0.356-0.102,0.786-0.283,1.287-0.542l-1.197,2.908c-0.529,0.176-0.99,0.294-1.384,0.355
			C-455.907,14.003-456.433,14.033-457.091,14.033z"/>
		<path fill="#1C75BA" d="M-451.4,9.274V2.998c0-0.816-0.047-1.549-0.139-2.199c-0.093-0.649-0.26-1.392-0.501-2.227h2.157h2.157
			c-0.242,0.483-0.411,1.048-0.508,1.698c-0.097,0.649-0.146,1.559-0.146,2.728v6.275c0,1.179,0.049,2.09,0.146,2.734
			c0.098,0.645,0.267,1.208,0.508,1.691h-2.157h-2.157c0.241-0.463,0.408-1.02,0.501-1.67C-451.447,11.38-451.4,10.462-451.4,9.274z
			 M-449.959-7.744c0.568,0,1.049,0.227,1.445,0.682c0.395,0.455,0.593,1.012,0.593,1.67c0,0.659-0.198,1.213-0.593,1.663
			c-0.396,0.45-0.877,0.675-1.445,0.675s-1.05-0.225-1.446-0.675c-0.396-0.45-0.593-1.004-0.593-1.663
			c0-0.658,0.197-1.215,0.593-1.67C-451.009-7.517-450.527-7.744-449.959-7.744z"/>
		<path fill="#1C75BA" d="M-444.54,9.274V2.998c0-0.826-0.047-1.563-0.139-2.213c-0.093-0.649-0.26-1.387-0.501-2.212h1.823h1.837
			v2.63l2.296-2.644c0.779-0.213,1.428-0.32,1.948-0.32c1.373,0,2.416,0.429,3.131,1.287c0.714,0.858,1.072,2.108,1.072,3.75v5.997
			c0,1.262,0.039,2.215,0.118,2.86c0.078,0.645,0.22,1.167,0.424,1.565h-2.101h-2.101c0.241-0.463,0.408-1.02,0.5-1.67
			c0.092-0.649,0.139-1.567,0.139-2.755v-5.58c0-0.881-0.204-1.538-0.612-1.969c-0.409-0.431-1.035-0.647-1.879-0.647
			c-0.576,0-1.327,0.213-2.254,0.64l-0.682,0.306v7.25c0,1.179,0.049,2.09,0.146,2.734c0.098,0.645,0.266,1.208,0.508,1.691h-2.157
			h-2.157c0.241-0.463,0.408-1.02,0.501-1.67C-444.586,11.38-444.54,10.462-444.54,9.274z"/>
		<path fill="#1C75BA" d="M-426.728,9.65c0,0.26,0.157,0.48,0.473,0.661c0.315,0.181,0.705,0.271,1.169,0.271h3.256
			c1.298,0,2.249,0.27,2.853,0.807c0.603,0.539,0.904,1.392,0.904,2.561c0,1.298-0.631,2.398-1.893,3.298
			c-1.262,0.9-2.806,1.35-4.634,1.35c-1.856,0-3.248-0.183-4.174-0.549c-0.928-0.367-1.392-0.917-1.392-1.649
			c0-0.372,0.185-0.786,0.557-1.246c0.371-0.459,1.113-1.194,2.227-2.206c-0.779-0.065-1.397-0.195-1.851-0.39
			c-0.622-0.269-0.932-0.677-0.932-1.225c0-0.408,0.167-0.774,0.501-1.099s1.215-0.974,2.644-1.948
			c-0.548-0.232-1.049-0.557-1.503-0.974c-1.012-0.927-1.517-2.092-1.517-3.493c0-1.595,0.505-2.924,1.517-3.987
			c1.01-1.062,2.282-1.593,3.813-1.593c1.169,0,2.193,0.297,3.075,0.891h1.559c0.603,0,1.194-0.028,1.774-0.083
			c0.579-0.056,0.99-0.121,1.231-0.195l-0.32,2.394l-2.449,0.014c0.315,0.678,0.473,1.447,0.473,2.31
			c0,1.475-0.508,2.702-1.524,3.681c-1.016,0.979-2.289,1.468-3.82,1.468c-0.39,0-0.765-0.032-1.127-0.097
			c-0.25,0.111-0.464,0.269-0.64,0.473C-426.645,9.288-426.728,9.473-426.728,9.65z M-424.877,0.354
			c-0.705,0-1.271,0.253-1.698,0.758c-0.427,0.506-0.64,1.176-0.64,2.011c0,0.956,0.262,1.774,0.786,2.456
			c0.523,0.682,1.152,1.023,1.885,1.023h-0.014c0.724,0,1.298-0.248,1.726-0.745c0.426-0.496,0.64-1.166,0.64-2.011
			c0-0.974-0.258-1.799-0.772-2.477c-0.515-0.677-1.148-1.016-1.899-1.016H-424.877z M-427.048,14.562
			c0,0.547,0.229,0.951,0.688,1.21c0.459,0.26,1.171,0.39,2.136,0.39c1.058,0,1.838-0.137,2.345-0.41
			c0.505-0.274,0.758-0.694,0.758-1.26c0-0.464-0.181-0.832-0.543-1.106c-0.361-0.273-0.854-0.411-1.475-0.411h-2.978
			c-0.26,0.167-0.48,0.404-0.661,0.709C-426.958,13.991-427.048,14.283-427.048,14.562z"/>
		<path fill="#1C75BA" d="M-644.517,49.35v-6.275c0-0.817-0.046-1.549-0.139-2.199c-0.093-0.65-0.26-1.392-0.501-2.227H-643h2.157
			c-0.242,0.483-0.411,1.048-0.508,1.698c-0.097,0.649-0.146,1.559-0.146,2.728v6.275c0,1.179,0.049,2.09,0.146,2.734
			c0.098,0.645,0.267,1.208,0.508,1.69H-643h-2.157c0.241-0.463,0.408-1.02,0.501-1.669
			C-644.563,51.455-644.517,50.537-644.517,49.35z M-643.077,32.332c0.568,0,1.049,0.227,1.445,0.682
			c0.396,0.455,0.593,1.011,0.593,1.67c0,0.658-0.198,1.213-0.593,1.663c-0.396,0.45-0.877,0.675-1.445,0.675
			c-0.568,0-1.049-0.226-1.445-0.675c-0.396-0.449-0.593-1.004-0.593-1.663c0-0.659,0.198-1.215,0.593-1.67
			C-644.126,32.559-643.645,32.332-643.077,32.332z"/>
		<path fill="#1C75BA" d="M-637.656,49.35v-6.275c0-0.826-0.047-1.563-0.139-2.213c-0.093-0.649-0.26-1.387-0.501-2.212h1.823h1.837
			v2.63l2.296-2.644c0.779-0.213,1.429-0.32,1.948-0.32c1.373,0,2.417,0.429,3.131,1.287c0.714,0.858,1.071,2.108,1.071,3.75v5.997
			c0,1.262,0.04,2.215,0.119,2.859c0.079,0.645,0.22,1.167,0.424,1.565h-2.101h-2.102c0.241-0.463,0.408-1.02,0.501-1.669
			c0.093-0.65,0.139-1.568,0.139-2.756v-5.58c0-0.881-0.204-1.538-0.612-1.969c-0.408-0.432-1.034-0.647-1.878-0.647
			c-0.575,0-1.327,0.213-2.254,0.64l-0.682,0.306v7.25c0,1.179,0.049,2.09,0.146,2.734c0.098,0.645,0.267,1.208,0.508,1.69h-2.157
			h-2.157c0.241-0.463,0.408-1.02,0.501-1.669C-637.703,51.455-637.656,50.537-637.656,49.35z"/>
		<path fill="#1C75BA" d="M-610.007,54.109c-1.475,0-2.611-0.315-3.409-0.946c-0.798-0.63-1.197-1.53-1.197-2.699
			c0-0.779,0.281-1.513,0.842-2.198c0.561-0.687,1.319-1.229,2.275-1.628l4.453-1.837v-1.378c0-0.825-0.255-1.482-0.766-1.969
			c-0.51-0.487-1.197-0.73-2.06-0.73c-0.557,0-1.094,0.095-1.613,0.285c-0.519,0.188-1.09,0.5-1.71,0.934l0.833-2.902
			c0.594-0.25,1.169-0.434,1.726-0.55s1.122-0.174,1.698-0.174c1.632,0,2.859,0.427,3.681,1.28c0.821,0.853,1.231,2.129,1.231,3.827
			v5.928c0,1.262,0.039,2.215,0.118,2.859c0.079,0.645,0.22,1.167,0.424,1.565h-1.781h-1.781v-1.446l-2.352,1.753L-610.007,54.109z
			 M-607.042,51.479v-4.16h-3.896c-0.093,0-0.211,0.28-0.355,0.842c-0.144,0.561-0.216,1.032-0.216,1.412
			c0,0.714,0.232,1.25,0.696,1.607s1.16,0.536,2.087,0.536c0.575,0,1.127-0.079,1.656-0.237H-607.042z"/>
		<path fill="#1C75BA" d="M-593.407,41.878c-0.426-0.501-0.862-0.867-1.307-1.1c-0.445-0.232-0.94-0.348-1.487-0.348
			c-0.602,0-1.102,0.157-1.5,0.473c-0.398,0.315-0.598,0.709-0.598,1.183c0,0.463,0.135,0.881,0.404,1.252
			c0.26,0.372,0.755,0.84,1.487,1.406c1.232,0.955,2.098,1.795,2.599,2.519c0.491,0.714,0.737,1.488,0.737,2.323
			c0,1.299-0.453,2.377-1.358,3.235s-2.045,1.287-3.419,1.287c-0.752,0-1.395-0.044-1.929-0.132
			c-0.534-0.088-1.191-0.258-1.971-0.508v-3.604c0.585,0.706,1.17,1.229,1.755,1.573c0.585,0.343,1.185,0.515,1.797,0.515
			c0.594,0,1.086-0.174,1.477-0.522c0.39-0.348,0.585-0.786,0.585-1.314c0-0.427-0.158-0.84-0.473-1.238
			c-0.306-0.39-0.899-0.923-1.779-1.601c-1.112-0.862-1.896-1.642-2.35-2.338c-0.447-0.687-0.671-1.451-0.671-2.296
			c0-1.243,0.494-2.275,1.482-3.096c0.987-0.821,2.229-1.231,3.722-1.231c0.547,0,1.02,0.046,1.418,0.139
			c0.399,0.093,0.858,0.26,1.378,0.501V41.878z"/>
		<path fill="#1C75BA" d="M-581.258,53.678c-0.687,0.176-1.241,0.292-1.663,0.348c-0.422,0.056-0.921,0.083-1.496,0.083
			c-2.004,0-3.671-0.705-5.002-2.114c-1.332-1.41-1.997-3.183-1.997-5.316c0-2.394,0.738-4.386,2.213-5.977
			c1.475-1.59,3.321-2.386,5.538-2.386c0.594,0,1.111,0.021,1.552,0.063c0.44,0.042,1.05,0.132,1.83,0.271l-0.153,3.489
			c-0.556-0.602-1.11-1.037-1.661-1.306c-0.551-0.268-1.157-0.402-1.814-0.402c-1.335,0-2.394,0.503-3.177,1.51
			c-0.784,1.006-1.175,2.368-1.175,4.084c0,1.753,0.415,3.145,1.245,4.174c0.83,1.03,1.95,1.545,3.36,1.545
			c0.481,0,0.982-0.07,1.502-0.211c0.519-0.142,1.22-0.396,2.101-0.762L-581.258,53.678z"/>
		<path fill="#1C75BA" d="M-571.044,54.109c-2.087,0-3.799-0.698-5.135-2.094s-2.003-3.189-2.003-5.378
			c0-2.385,0.586-4.367,1.76-5.949c1.173-1.582,2.641-2.373,4.404-2.373h0.028c1.726,0,3.055,0.598,3.987,1.795
			c0.933,1.197,1.398,2.904,1.398,5.121l0,1.364h-8.374c0.148,1.373,0.547,2.514,1.197,3.423c0.826,1.15,1.949,1.726,3.369,1.726
			c0.64,0,1.271-0.084,1.892-0.253c0.622-0.17,1.184-0.409,1.685-0.72l-1.202,2.907c-0.659,0.176-1.19,0.292-1.593,0.348
			C-570.035,54.081-570.506,54.109-571.044,54.109z M-569.077,44.493c-0.009-1.317-0.252-2.324-0.73-3.02s-1.176-1.043-2.095-1.043
			h0.014c-1.002,0-1.777,0.427-2.325,1.28c-0.436,0.686-0.701,1.614-0.793,2.783H-569.077z"/>
		<path fill="#1C75BA" d="M-563.557,49.35v-6.275c0-0.826-0.047-1.563-0.139-2.213c-0.093-0.649-0.26-1.387-0.501-2.212h1.823h1.837
			v2.63l2.296-2.644c0.779-0.213,1.429-0.32,1.948-0.32c1.373,0,2.417,0.429,3.131,1.287c0.714,0.858,1.071,2.108,1.071,3.75v5.997
			c0,1.262,0.04,2.215,0.119,2.859c0.079,0.645,0.22,1.167,0.424,1.565h-2.101h-2.102c0.241-0.463,0.408-1.02,0.501-1.669
			c0.093-0.65,0.139-1.568,0.139-2.756v-5.58c0-0.881-0.204-1.538-0.612-1.969c-0.408-0.432-1.034-0.647-1.878-0.647
			c-0.575,0-1.327,0.213-2.254,0.64l-0.682,0.306v7.25c0,1.179,0.048,2.09,0.146,2.734c0.097,0.645,0.267,1.208,0.508,1.69h-2.157
			h-2.157c0.241-0.463,0.408-1.02,0.501-1.669C-563.604,51.455-563.557,50.537-563.557,49.35z"/>
		<path fill="#1C75BA" d="M-542.949,54.109c-1.865,0-3.342-0.584-4.432-1.753c-1.09-1.169-1.635-2.751-1.635-4.745
			c0-2.662,0.753-4.877,2.261-6.645c1.507-1.767,3.397-2.651,5.67-2.651c0.612,0,1.183,0.083,1.711,0.25v-1.183
			c0-0.984-0.046-1.8-0.139-2.449c-0.093-0.65-0.26-1.308-0.501-1.976l2.115-0.431l2.129-0.445c-0.223,0.612-0.375,1.34-0.459,2.185
			c-0.083,0.844-0.125,2.032-0.125,3.563V49.35c0,1.179,0.049,2.09,0.146,2.734c0.098,0.645,0.267,1.208,0.508,1.69h-1.837h-1.837
			v-2.059l-1.795,2.031C-541.863,53.997-542.458,54.118-542.949,54.109z M-542.114,40.458c-1.346,0-2.315,0.457-2.908,1.371
			c-0.594,0.914-0.891,2.405-0.891,4.474c0,1.651,0.359,2.961,1.078,3.931s1.691,1.454,2.916,1.454c0.594,0,1.146-0.111,1.656-0.334
			l0.891-0.473v-9.546C-540.078,40.75-540.992,40.458-542.114,40.458z"/>
		<path fill="#1C75BA" d="M-532.582,49.35v-6.275c0-0.817-0.046-1.549-0.139-2.199c-0.093-0.65-0.26-1.392-0.501-2.227h2.157h2.157
			c-0.241,0.483-0.411,1.048-0.508,1.698c-0.098,0.649-0.146,1.559-0.146,2.728v6.275c0,1.179,0.048,2.09,0.146,2.734
			c0.097,0.645,0.267,1.208,0.508,1.69h-2.157h-2.157c0.241-0.463,0.408-1.02,0.501-1.669
			C-532.628,51.455-532.582,50.537-532.582,49.35z M-531.142,32.332c0.568,0,1.049,0.227,1.445,0.682
			c0.396,0.455,0.594,1.011,0.594,1.67c0,0.658-0.198,1.213-0.594,1.663c-0.396,0.45-0.877,0.675-1.445,0.675
			s-1.05-0.226-1.445-0.675c-0.396-0.449-0.593-1.004-0.593-1.663c0-0.659,0.197-1.215,0.593-1.67
			C-532.191,32.559-531.709,32.332-531.142,32.332z"/>
		<path fill="#1C75BA" d="M-525.722,49.35v-6.275c0-0.826-0.046-1.563-0.139-2.213c-0.093-0.649-0.26-1.387-0.501-2.212h1.823h1.836
			v2.63l2.296-2.644c0.779-0.213,1.428-0.32,1.948-0.32c1.373,0,2.417,0.429,3.131,1.287c0.714,0.858,1.071,2.108,1.071,3.75v5.997
			c0,1.262,0.039,2.215,0.118,2.859c0.079,0.645,0.22,1.167,0.424,1.565h-2.101h-2.101c0.241-0.463,0.408-1.02,0.501-1.669
			c0.093-0.65,0.139-1.568,0.139-2.756v-5.58c0-0.881-0.205-1.538-0.612-1.969c-0.408-0.432-1.035-0.647-1.878-0.647
			c-0.576,0-1.327,0.213-2.254,0.64l-0.682,0.306v7.25c0,1.179,0.049,2.09,0.146,2.734c0.097,0.645,0.267,1.208,0.508,1.69h-2.157
			h-2.157c0.241-0.463,0.408-1.02,0.501-1.669C-525.768,51.455-525.722,50.537-525.722,49.35z"/>
		<path fill="#1C75BA" d="M-507.91,49.726c0,0.26,0.158,0.479,0.473,0.661c0.315,0.181,0.705,0.271,1.169,0.271h3.256
			c1.298,0,2.25,0.269,2.853,0.807c0.603,0.538,0.904,1.392,0.904,2.561c0,1.299-0.631,2.397-1.892,3.298
			c-1.262,0.9-2.807,1.35-4.634,1.35c-1.855,0-3.247-0.184-4.175-0.55s-1.392-0.915-1.392-1.648c0-0.371,0.186-0.786,0.557-1.246
			c0.371-0.459,1.113-1.193,2.227-2.205c-0.779-0.065-1.396-0.195-1.851-0.39c-0.622-0.269-0.933-0.678-0.933-1.225
			c0-0.408,0.167-0.774,0.501-1.1c0.334-0.324,1.215-0.974,2.644-1.948c-0.547-0.231-1.048-0.557-1.503-0.974
			c-1.011-0.928-1.517-2.092-1.517-3.493c0-1.596,0.505-2.924,1.517-3.986s2.282-1.593,3.813-1.593c1.169,0,2.194,0.296,3.075,0.891
			h1.559c0.603,0,1.194-0.028,1.774-0.083c0.58-0.056,0.99-0.121,1.231-0.195l-0.32,2.394l-2.449,0.014
			c0.315,0.678,0.473,1.447,0.473,2.31c0,1.475-0.508,2.702-1.523,3.681c-1.016,0.979-2.29,1.468-3.82,1.468
			c-0.39,0-0.766-0.032-1.127-0.098c-0.25,0.111-0.464,0.27-0.64,0.474C-507.827,49.364-507.91,49.549-507.91,49.726z
			 M-506.059,40.43c-0.706,0-1.271,0.253-1.698,0.758c-0.427,0.505-0.64,1.176-0.64,2.011c0,0.956,0.262,1.774,0.786,2.456
			c0.524,0.682,1.152,1.022,1.886,1.022h-0.014c0.724,0,1.298-0.248,1.726-0.744c0.427-0.497,0.64-1.166,0.64-2.011
			c0-0.974-0.257-1.799-0.772-2.477c-0.515-0.677-1.148-1.016-1.899-1.016H-506.059z M-508.23,54.638
			c0,0.547,0.229,0.95,0.689,1.211c0.459,0.26,1.171,0.39,2.136,0.39c1.058,0,1.839-0.137,2.345-0.411
			c0.505-0.273,0.758-0.693,0.758-1.259c0-0.464-0.181-0.833-0.542-1.106c-0.362-0.274-0.854-0.411-1.475-0.411h-2.978
			c-0.26,0.167-0.48,0.404-0.661,0.71C-508.14,54.068-508.23,54.36-508.23,54.638z"/>
		<path fill="#1C75BA" d="M-487.148,51.987c-1.271-1.415-1.906-3.188-1.906-5.322c0-2.394,0.707-4.383,2.122-5.97
			c1.414-1.586,3.184-2.379,5.309-2.379c1.92,0,3.514,0.709,4.78,2.129c1.267,1.419,1.899,3.197,1.899,5.33
			c0,2.394-0.705,4.381-2.115,5.963c-1.411,1.582-3.183,2.372-5.316,2.372C-484.287,54.109-485.878,53.402-487.148,51.987z
			 M-478.806,50.109c0.478-0.914,0.717-1.983,0.717-3.208c0-1.93-0.464-3.476-1.392-4.641c-0.928-1.165-2.185-1.774-3.771-1.83
			c-0.817,0.334-1.464,0.962-1.941,1.885c-0.478,0.923-0.716,1.997-0.716,3.222c0,1.93,0.463,3.475,1.391,4.634
			c0.927,1.159,2.185,1.768,3.771,1.823C-479.932,51.651-479.285,51.023-478.806,50.109z"/>
		<path fill="#1C75BA" d="M-472.05,49.35v-6.275c0-0.817-0.047-1.549-0.139-2.199c-0.093-0.65-0.26-1.392-0.501-2.227h1.823h1.836
			v2.686l2.352-2.644c0.696-0.25,1.363-0.375,2.003-0.375c0.529,0,0.979,0.102,1.35,0.306l-0.612,3.256l-0.139-0.098
			c-0.566-0.417-1.239-0.626-2.018-0.626c-0.576,0-1.328,0.213-2.254,0.64l-0.682,0.306v7.25c0,1.179,0.049,2.09,0.146,2.734
			c0.097,0.645,0.266,1.208,0.508,1.69h-2.157h-2.157c0.241-0.463,0.408-1.02,0.501-1.669
			C-472.097,51.455-472.05,50.537-472.05,49.35z"/>
		<path fill="#1C75BA" d="M-456.242,54.109c-1.865,0-3.342-0.584-4.432-1.753c-1.091-1.169-1.635-2.751-1.635-4.745
			c0-2.662,0.753-4.877,2.261-6.645c1.507-1.767,3.397-2.651,5.67-2.651c0.612,0,1.183,0.083,1.712,0.25v-1.183
			c0-0.984-0.047-1.8-0.139-2.449c-0.093-0.65-0.26-1.308-0.501-1.976l2.115-0.431l2.129-0.445c-0.223,0.612-0.376,1.34-0.459,2.185
			c-0.083,0.844-0.125,2.032-0.125,3.563V49.35c0,1.179,0.049,2.09,0.146,2.734c0.098,0.645,0.266,1.208,0.508,1.69h-1.837h-1.836
			v-2.059l-1.795,2.031C-455.157,53.997-455.751,54.118-456.242,54.109z M-455.408,40.458c-1.345,0-2.315,0.457-2.908,1.371
			c-0.594,0.914-0.891,2.405-0.891,4.474c0,1.651,0.359,2.961,1.079,3.931c0.718,0.97,1.691,1.454,2.915,1.454
			c0.593,0,1.146-0.111,1.656-0.334l0.891-0.473v-9.546C-453.372,40.75-454.286,40.458-455.408,40.458z"/>
		<path fill="#1C75BA" d="M-439.669,54.109c-2.087,0-3.799-0.698-5.135-2.094c-1.335-1.396-2.003-3.189-2.003-5.378
			c0-2.385,0.586-4.367,1.76-5.949c1.173-1.582,2.641-2.373,4.404-2.373h0.028c1.726,0,3.055,0.598,3.987,1.795
			c0.933,1.197,1.398,2.904,1.398,5.121v1.364h-8.374c0.148,1.373,0.547,2.514,1.197,3.423c0.826,1.15,1.948,1.726,3.369,1.726
			c0.64,0,1.271-0.084,1.892-0.253c0.622-0.17,1.184-0.409,1.685-0.72l-1.202,2.907c-0.659,0.176-1.19,0.292-1.593,0.348
			C-438.661,54.081-439.132,54.109-439.669,54.109z M-437.702,44.493c-0.008-1.317-0.252-2.324-0.73-3.02
			c-0.478-0.696-1.176-1.043-2.095-1.043h0.014c-1.002,0-1.777,0.427-2.325,1.28c-0.436,0.686-0.701,1.614-0.793,2.783H-437.702z"/>
		<path fill="#1C75BA" d="M-432.113,49.35v-6.275c0-0.817-0.047-1.549-0.139-2.199c-0.093-0.65-0.26-1.392-0.501-2.227h1.823h1.837
			v2.686l2.352-2.644c0.695-0.25,1.363-0.375,2.003-0.375c0.529,0,0.979,0.102,1.35,0.306L-424,41.878l-0.139-0.098
			c-0.566-0.417-1.239-0.626-2.018-0.626c-0.576,0-1.327,0.213-2.254,0.64l-0.682,0.306v7.25c0,1.179,0.049,2.09,0.146,2.734
			c0.098,0.645,0.267,1.208,0.508,1.69h-2.157h-2.157c0.241-0.463,0.408-1.02,0.501-1.669
			C-432.16,51.455-432.113,50.537-432.113,49.35z"/>
		<path fill="#1C75BA" d="M-419.235,49.392c0.661,0,1.219,0.229,1.675,0.688c0.456,0.459,0.684,1.019,0.684,1.677
			s-0.228,1.215-0.684,1.67c-0.457,0.455-1.014,0.682-1.675,0.682c-0.661,0-1.219-0.227-1.675-0.682s-0.684-1.012-0.684-1.67
			s0.228-1.218,0.684-1.677S-419.896,49.392-419.235,49.392z"/>
	</g>
</g>
</svg>
