<?xml version="1.0" encoding="utf-8"?>
<!-- Generator: Adobe Illustrator 19.2.0, SVG Export Plug-In . SVG Version: 6.00 Build 0)  -->
<svg version="1.1" id="Layer_1" xmlns="http://www.w3.org/2000/svg" xmlns:xlink="http://www.w3.org/1999/xlink" x="0px" y="0px"
	 viewBox="0 0 168.4 156.8" style="enable-background:new 0 0 168.4 156.8;" xml:space="preserve">
<style type="text/css">
	.st0{opacity:0.4;enable-background:new    ;}
	.st1{fill:#FFDE9C;}
	.st2{opacity:0.5;}
	.st3{fill:#AEC90B;}
	.st4{fill:#DAE182;}
	.st5{fill:#C6D65D;}
	.st6{fill:#532913;}
	.st7{opacity:0.2;clip-path:url(#SVGID_2_);}
	.st8{fill:#020202;}
	.st9{opacity:0.5;fill:#020202;enable-background:new    ;}
	.st10{opacity:0.2;fill:#020202;enable-background:new    ;}
	.st11{fill:url(#SVGID_3_);stroke:#DFF275;stroke-width:2;stroke-miterlimit:10;}
	.st12{clip-path:url(#SVGID_5_);}
	.st13{fill:#FFCE03;}
	.st14{fill:#FFE42D;}
	.st15{fill:#FF3829;}
	.st16{fill:#EF5355;}
	.st17{fill:#D42C40;}
	.st18{fill:#CFE9EF;}
	.st19{fill:#CE4749;}
	.st20{fill:#E51717;}
	.st21{fill:#47BCEC;}
	.st22{fill:#E99423;}
	.st23{fill:#2F8942;}
	.st24{fill:#8A55A1;}
	.st25{fill:#EF4B53;}
	.st26{fill:#2E6A2E;}
	.st27{fill:#B6313E;}
	.st28{fill:#567C7D;}
	.st29{opacity:0.5;fill:#567C7D;enable-background:new    ;}
	.st30{fill:#6D3B40;}
	.st31{opacity:0.5;fill:#6D3B40;enable-background:new    ;}
	.st32{fill:#FFFFFF;}
	.st33{fill:#341A10;}
	.st34{fill:#C41010;}
	.st35{fill:#FCC58C;}
	.st36{fill:#F58E7A;}
	.st37{fill:#F8A882;}
	.st38{fill:#1D1D1D;}
	.st39{fill:#557878;}
	.st40{fill:#476D6C;}
	.st41{fill:#3A605D;}
	.st42{fill:#688885;}
	.st43{fill:#FFEAB3;}
	.st44{clip-path:url(#SVGID_7_);}
	.st45{fill:#542914;}
	.st46{fill:#455100;}
</style>
<g>
	<polygon class="st0" points="153.3,41.5 145,156.7 8.2,156.7 0,41.5 	"/>
	<rect x="8.4" y="10.8" class="st1" width="136.4" height="145.9"/>
	<g class="st2">
		<path class="st3" d="M128.7,112.2c-2-1.5-4.7-1.3-6.9-2.5c-1.4-2.9-1.9-6.1-1.8-9.3c1-1.6,1.9-3.3,3.2-4.7c1.9-1.5,4-2.7,6.1-3.8
			c0.8-0.8,1.6-1.5,2.5-2.2c1.4,0.1,2.7,0.7,4.2,0.9l-0.5-1.4c0.9-0.2,1.8-0.5,2.6-0.7c1.2,0.8,2,2.6,0.7,3.6
			c-1.3,0.9-2.4-0.7-3.2-1.4c-0.2,0.4-0.5,1.1-0.7,1.5l0.3-0.2c0.8,1.5,1.7,3,3.2,4c1,2.1,1.8,4.3,1.3,6.6
			C138.5,107.8,133.6,111.1,128.7,112.2L128.7,112.2z M62.2,10.8c0.9,0.1,1.6,0.4,2.3,1c-0.7,0.8-1.3,1.5-2,2.2
			c-0.1,3-1.9,5.3-3.8,7.4c1.1,0.9,2.2,1.8,3.2,2.6c-1.2,0.9-2.6,0.7-4,0.3c-1,0.8-2.2,1.4-2.9,2.4c-1,1.3-0.7,3-0.8,4.5
			c-1.9,1.7-4.1,3.1-6.8,2.9c-0.6,0.5-1.2,1.1-1.8,1.6c-1.7-0.3-3.4-0.8-5.1-1c-0.7,0.8-1.3,1.5-2,2.2c-0.8-0.8-1.4-1.9-2.4-2.5
			c-1.6-0.2-3.3-0.1-4.9-0.5c-2.4-1.9-4.2-4.9-7.6-5.4c-0.7-1.6-1.4-3.2-2.2-4.8c0.2-1.3-0.1-2.5-1-3.4c-1-2.7-0.8-5.6,0.1-8.2
			c-0.3-0.4-0.7-0.8-1-1.2L62.2,10.8L62.2,10.8z M113.8,114.1c-2.4-0.5-6.3,0.2-6.9-3.1c-0.1-2.6,3.2-3.5,5.3-4.1
			c1.3,0.7,3.1,1.1,3.3,2.8C116,111.4,114.5,112.7,113.8,114.1L113.8,114.1z M42.6,70.5c-1.3-0.7-0.7-2.2-0.8-3.4
			c1.5-0.3,3.1-0.5,4.6-0.4c0,1,0.1,2,0.1,3C45.8,71,43.8,71.5,42.6,70.5L42.6,70.5z M27.3,97.1c-4,1.1-8.4-0.1-11.2-3.2
			c-0.6-0.9-1.3-1.8-1.9-2.6c-1.4-3.3-1.7-7-0.8-10.6c1.8-2.1,3.5-4.7,6.2-5.8c2.8-1.2,5.8,0.2,8.7-0.1c1.1,1.1,2.2,2.1,3.3,3.2
			c0,0.9,0,1.9,0.1,2.8c0.8,0.1,1.5,0.2,2.3,0.3c1.2,2.9,1.3,6.1,0.8,9.1C33.7,93.6,30.3,95.5,27.3,97.1L27.3,97.1z M93.4,115.3
			c-0.3,0.7-0.7,1.3-1,2c-0.3-0.3-1.1-1-1.5-1.3c-1.9-0.3-3.3-1.5-4.5-3c-0.4-1-0.8-2.1-1.1-3.1c1.6-2.2,3.1-5.2,6-5.9
			c3.6-1.2,7.9,1.5,8,5.4c-0.3,1.3-0.8,2.5-1.2,3.7c-0.8,0.2-1.6,0.3-2.4,0.5c0.2,0.8,0.5,1.6,0.7,2.5
			C95.4,115.8,94.4,115.5,93.4,115.3L93.4,115.3z M53.1,47.4c2.2-0.6,3.9-2.2,5.5-3.6c1.4-2,1.1-4.7,0.5-6.9
			c-1.5-0.8-3.1-1.4-4.6-2.1c-2.1,2.1-5.7,1.6-7.1,4.4c-1.4,1.6-0.3,3.9-0.1,5.7C49.2,45.8,51,47.2,53.1,47.4L53.1,47.4z
			 M27.9,110.3c0.3-2.3,1.9-4.5,4.4-4.2c2.7,1.1,1.9,4.7,0,6.1C30.6,113.4,29.3,111.2,27.9,110.3L27.9,110.3z M67.2,76.3
			C64.9,75.5,69,74.6,67.2,76.3L67.2,76.3z M69.5,110.3c3.1-1.5,2.9-5.5,4.7-8c1.4-0.7,3.5-0.5,4.2-2.2c0.7-1.5,1.1-3.2,1.6-4.8
			c-1.2-3.8-5-5.9-8.9-5.5c-2.3-2.6-1.5-6.3-2.9-9.3c-0.7-3.2-4-4.3-6.3-6c-2.2,0-4.5,0.1-6.7,0c-1.4,0.7-2.9,1.2-4.5,1.4
			c-2.7,1.3-4.3,3.8-5.2,6.6c-1,1.6-3.3,3.5-2,5.5c0.8,1.4,2.1,2.3,3.3,3.3c0,1.3,0.1,2.5,0.2,3.8c0.8-0.2,1.6-0.4,2.5-0.6
			c0.2,0.2,0.7,0.7,0.9,0.9c-0.1,1-0.2,1.9-0.2,2.9c0.9-0.8,1.8-1.5,2.8-2.2c0.9,0.5,1,1.6,1.3,2.5c1.5-2.3,3.6,0.1,4.9,1.4
			c-0.1,1.9-1.4,3.5-2.4,5.1c-2,2.7-6.1,0.9-8.2,3.4c-2.8,2-3.6,6-1.9,9c1.6,3,5.7,3.6,8.7,2.5c2.6-1.8,3.3-5.4,6.1-7.2
			C64.3,112,67.1,111.9,69.5,110.3L69.5,110.3z M107.4,54.6c2.6-4.8-0.1-13.6-0.7-15.7c-0.5-2-2-3.4-3.6-4.6c-2.3-1.5-2.6-4.9-5.3-6
			c-4.4-1.1-9-2.3-13.5-1c-2.3,0.4-4,2.1-6.2,2.8C76.1,30,74,28.5,72,29.9c0.1,0.7,0.2,2,0.3,2.6c-1.1,0.2-2.3,0.2-3.4,0.5
			c-1.2,2.6-2,5.5-1.6,8.4c0.3,2.7-0.2,5.4-0.8,8c-1.6,1.3-3.6,2.7-3.3,5.1c0.9,1,1.9,2,2.6,3.2c0.5,1.7,0.2,3.5,0.6,5.2
			c2.1,3.8,11.8,6.1,15.8,7.2c0.5,0.2-0.2,4.1-0.7,7.7c-1.4,9.9,4.2,7.6,3.4,1.2c-0.5-4.3-1.5-9.4,0.7-11.3c1.6-1.4,6.2-1,8,3.9
			c6.4,17.3,9.8,8.7,1.4-0.6c-5.4-6-4.3-12.4,2.8-8.5C125.5,77.9,102.6,63.6,107.4,54.6L107.4,54.6z M40,47.1
			c-1.1-0.4-1.9-1.3-2.8-2c0.3-0.7,0.7-1.5,1.1-2.2c0.5-0.3,1.4-1,1.9-1.3c0.9,0.8,2.4,1.3,2.2,2.7C42.6,45.8,41.2,46.7,40,47.1
			L40,47.1z M22.5,140.7c1.1,0.5,1.2,1.1,0,1.7C21.4,141.9,21.4,141.3,22.5,140.7z"/>
		<path class="st4" d="M145,24.2c-0.4-0.4-0.8-0.8-1.3-1.1c-1.1,1-1.5,2.5-2.4,3.6c-1.4,1.9-1.2,4.4-1.1,6.6c0.3,1.3,1,2.4,1.1,3.8
			c0.4,0.2,0.8,0.4,1.2,0.7c-0.1,0.3-0.2,0.7-0.3,1c0.1,0.3,0.4,0.8,0.5,1.1c-0.8,0.8-1.4,1.8-2.6,2.1c-1.4,0.3-2.8,0.4-4.2,0.7
			c-0.2-0.1-0.8-0.4-1-0.5c-0.1-0.3-0.2-1.1-0.3-1.5c0.2-2.5,0.6-5.3,2.6-7.2c1.1-2,0.5-4.3,0.7-6.4c0.1-2,0.7-4.1-0.3-5.9
			c-1.5-0.3-3.1-0.9-4.7-0.4c-1.9,0.5-3.7,1.2-5.6,1c-0.4-1-0.6-2.1-1.1-3.1c-0.8-0.4-1.7-0.7-2.6-0.9c-0.5,0.3-1,0.7-1.5,1
			c-0.8-1.9-2.3-3.6-4.4-3.9c-1,0-2,0.2-3.1,0.3c-0.4-1-0.1-2.9-1.6-3.1c-0.7-0.3-2,0-2.3-0.9c0-0.1,0.1-0.3,0.2-0.4H145L145,24.2
			L145,24.2z M90.9,10.8c0.1,0.4,0.3,1.3,0.3,1.7c1.1,0.4,2.3,0.7,3.5,0.9c0.3,0.8,0.8,1.5,1.4,2.2c0.8-0.2,1.5-0.4,2.2-0.5
			c-0.2,0.8-0.5,1.5-0.8,2.2c0.5,1.5,1.6,2.6,3.1,3.2c-0.1,0.7-0.8,1.2-1.1,1.9c0.5,0.6,1.2,1,1.8,1.5c-0.4,0.2-1.2,0.7-1.5,1
			c0.2,1,0.6,2,1,3c-1,0.5-1.9,1.4-2.4,2.4c0.3,0.3,0.8,1,1,1.3c-1.2,0.4-2.3,1-2.2,2.4c-0.5,0-1,0-1.5,0c0.2,0.3,0.5,0.9,0.6,1.2
			c-0.3-0.1-1-0.4-1.3-0.6c0,0.6,0,1.1,0,1.7c-1.1,0-2.2,0.1-3.2,0.3c-0.3,0.5-0.6,1-0.9,1.5c-0.3-0.2-0.9-0.7-1.2-0.9
			c-0.2,0-0.6-0.1-0.9-0.2c-0.3,0.3-0.5,0.7-0.9,1.1c-0.4-0.4-0.9-0.8-1.3-1.2c-0.6-0.4-1.3,0.3-1.8,0.5c-0.8-0.2-1.7-0.5-2.5-0.8
			c-0.6-1.1-1.5-2-2.6-2.7c-0.5,0.2-1.1,0.4-1.8,0.7c-0.3-0.7-0.1-1.5,0-2.2c-0.6-0.3-1.2-0.6-1.8-0.9c0.2-1.4,0.2-3-0.5-4.3
			c-0.6-0.2-1.2-0.3-1.8-0.4c0.4-0.7,0.9-1.3,1.2-2.1c0-0.9-0.6-1.6-0.8-2.4c0.6-0.8,1.2-1.6,1.8-2.5c-0.2-0.8-0.5-1.5-0.7-2.3
			c0.5,0,0.9,0,1.4,0.1c0.9-0.8,1.3-1.9,1.3-3.1c2-0.3,3.3-2.1,5-2.9c2.1,0.5,4.3,0.2,6.4,0.1C89.8,11.5,90.5,11.1,90.9,10.8
			L90.9,10.8L90.9,10.8z M43.8,15.2c-0.2-0.5-0.4-1.1-0.7-1.7c-0.6,0-1.2,0.1-1.8,0.2c-0.6-0.5-1.1-1.1-1.6-1.6
			c-0.4,0.1-0.8,0.3-1.2,0.4c-2.1-2-4.5,1.1-6.8-0.1c-0.1,0.4-0.2,0.8-0.3,1.2c-0.9,0.8-1.9,1.4-2.9,2.1c-0.8,1-1.3,2.1-2.2,3.1
			c0,0.8,0.1,1.5,0.1,2.3c-0.3,0.4-0.7,0.8-1,1.2c0.8,2.4,0.8,5,2.1,7.2c1.3,0.5,2.5,1.4,3.5,2.2c-0.1,0.3-0.2,1-0.3,1.3
			c1.1-0.1,2.2,0,3.1,0.8c0.5-0.2,1.1-0.5,1.6-0.7c0.3,0.6,0.7,1.2,1.1,1.8c0.6-0.5,1.1-1.1,1.7-1.4c0.7,0.1,1.3,0.3,1.9,0.5
			c0.9-1.2,2.4-1.4,3.8-1.8c0.4-1,0.7-2,1.1-2.9c0.7-0.2,1.3-0.3,2-0.4c-0.2-0.7-0.4-1.4-0.7-2c0.4-0.1,1.1-0.4,1.4-0.6
			c-0.2-0.7-0.5-1.5-0.7-2.2c0.2-0.7,0.9-1.1,1.3-1.6c-0.5-0.2-0.9-0.4-1.4-0.6c-0.1-0.4-0.1-0.9-0.2-1.3c0.3-0.5,0.6-1,0.9-1.5
			c-0.3-0.1-1-0.4-1.4-0.5c-0.3-0.5-0.5-1-0.8-1.4c0.1-0.3,0.2-1,0.3-1.3C45.3,15.5,44.6,15.4,43.8,15.2L43.8,15.2z M33.1,62.4
			c-0.7,1,0.7,1.6,1.5,1.9c0.3-0.5,0.5-1.1,0.8-1.6C35.1,61.6,33.4,61.1,33.1,62.4L33.1,62.4z M73,60c-0.4-1.1-1.4-1.7-2.4-2.3
			c-1.1,0.3-2-0.4-2.5-1.3c-1-0.2-2-0.4-3-0.9c-0.6,0.4-1.1,0.9-1.7,1.4c-0.4-0.6-0.9-1.2-1.4-1.8c-0.4,0.7-0.7,1.4-1.3,2
			c-0.9,0.2-1.4-0.8-2.1-1.1c-0.9,0.3-0.2,1.8-1,2.2c-1.3,0.7-2.6,1.4-4,2c0.1,0.6,0.1,1.2,0.2,1.9c-1.5,0.9-2,2.7-3.2,3.9
			c1.4,0.8,1.5,2.5,1,3.8c-0.7,0.6-2,0.7-2.2,1.7c0.8,0.3,1.6,0.4,2.4,0.4c0.3,1.2,0.7,2.4,0.9,3.6c-0.3,0.2-1,0.5-1.3,0.7
			c0,0.3,0,0.8,0,1.1c0.8-0.2,1.5-0.4,2.3-0.5c0.4,1,0.7,2,1.2,3c0.8,0.3,1.5,0.3,2.3,0.6c0.4,0.6,0.8,1.2,1.1,1.9
			c0.6-0.1,1.2-0.2,1.8-0.2c0.4,0.5,0.8,1.1,1.2,1.7c0.2-0.2,0.6-0.5,0.8-0.7c0.9,0.4,1.9,0.7,2.9,0.2c1.1,0.3,2.1,0.1,3-0.5
			c0.4,0,0.8,0,1.1,0c0.6-0.7,1.1-1.3,1.7-1.9c0.7-0.1,1.3-0.2,1.9-0.3c0.2-0.5,0.3-1.1,0.4-1.6c0.8-0.8,1.6-1.5,2.3-2.4
			c0.8-1.6,0.2-3.7,1.5-5.1c1.5-1.2-1.4-2.5-0.4-4c0.8-1.3-0.1-2.7-0.4-4C75.5,61.8,73.4,61.5,73,60L73,60z M62.5,37.7
			c-0.8-0.7-1.5,0.5-2,1c0.4,0.3,0.9,0.7,1.4,1C62.9,39.7,63.5,38.3,62.5,37.7L62.5,37.7z M36.9,55.9c1.4-0.1,2.8,0.2,3.7,1.4
			c0,0.9,0.2,1.9-0.4,2.7c-0.6,1-1.8,1.1-2.8,1.4c-0.8-0.8-2-1.3-2-2.5C35.3,57.8,36.1,56.8,36.9,55.9L36.9,55.9z M107.7,83.5
			c-1.5-0.2-3.1-0.4-4.6-0.7c-1.7,0.9-3,2.3-3.9,4c0,0.7,0.1,1.4,0.1,2.1c0.2,0.7,0.4,1.4,0.4,2.1c0.6,0.7,1.2,1.5,2,2
			c1.5,0.6,3.4,0.9,5,0c1.7-0.8,2.4-2.7,3.6-4.1C110.5,86.8,109.2,84.9,107.7,83.5L107.7,83.5z M125.2,80.1
			c-0.1-0.1-0.4-0.3-0.6-0.4c0.1-0.2,0.3-0.5,0.4-0.6c-0.9,0.3-1.9,0.1-2.7-0.3c-1.2,0.2-2.5,0.4-3.7,0.5c-0.7,0.4-1.4,0.7-2.1,1.1
			c-0.3,1.2-0.8,2.4-1.6,3.4c-0.3,1.5,0.6,2.7,0.9,4.2c-0.6,0.1-1.1-0.1-1.7-0.3c-0.5,0.3-1,0.7-1.5,1c-0.5,0.4-1,0.9-1.5,1.3
			c-0.2,1.5-0.5,3.3,0.5,4.6c2,3.1,7.3,2.5,8.9-0.7c-0.1-0.6-0.3-1.1-0.5-1.6c0.1-0.3,0.3-1,0.4-1.3c0.6,0.2,1.2,0.5,1.9,0.7
			c1.9,0,3.5-1.2,4-3.1c0.2-0.1,0.7-0.3,0.9-0.5c0.3-1.1,0.8-2.2,0.9-3.4C127.9,82.7,126.3,81.4,125.2,80.1L125.2,80.1z M128.7,44.9
			c-0.2-1.5,0.1-3-0.9-4.3c0.1-0.2,0.3-0.5,0.4-0.8c-0.1-0.8-0.2-1.7-0.3-2.5c-1.2-0.9-2.4-2-2.3-3.6c-1-0.6-2-1.1-3.2-1.4
			c-0.1-0.2-0.3-0.7-0.4-0.9c-1.3-0.4-2.5-1-3.8-1.5c-0.9,0.2-1.8,0.4-2.7,0.7c-0.3-0.2-0.7-0.4-1-0.7c-3.1-0.3-5.7,1.9-8,3.7
			c-0.6,0.4-0.8,1.2-1.2,1.9c-1.4,0.8-2,2.3-2.6,3.7c0.1,0.2,0.4,0.6,0.6,0.9c-0.1,0.1-0.4,0.2-0.6,0.3c0.6,1.3-0.1,2.4-1.1,3.3
			c0.4,0.4,0.9,0.8,1.4,1.2c0.1,1.1,0.2,2.1,0.2,3.2c-0.1,0.4-0.2,0.9-0.3,1.4c0.7,0.4,1.4,0.8,2.1,1.2c0,0.3,0.1,1.1,0.1,1.4
			c1.6,1.6,3.5,3.1,5.6,4.2c1.1,0.1,2.3-0.6,3.5-0.2c0.9,1,1.6,2.1,2.4,3.2c0,1.3-0.4,2.9,0.4,4c0.9,1.4,2.6,2,3.4,3.5
			c0.6,1.3,2.2,0.7,3.3,0.9c0.4,0.5,0.8,1.1,1.1,1.6c1.4-0.6,2.8-1.3,4.3-1.5c0.6,0.5,1.2,1,1.9,1.4c0.5-0.8,0.6-2.2,1.8-2.1
			c0.7-0.1,1.4,0,2-0.3c0.3-0.7,0.5-1.4,0.9-2c0.6-0.5,1.5-0.7,2.1-1.3c0-0.7-0.1-1.5,0.1-2.2c0.4-0.7,0.9-1.3,1.3-2
			c0-1.4,0-2.7,0.2-4c-1-1.6-1.8-3.3-2.4-5c-1.1-1.4-2.5-2.6-3.8-3.8C132.1,45,130.2,45.5,128.7,44.9z"/>
		<path class="st5" d="M133.3,110.5c0.1-0.2,0.1-0.4,0.2-0.7c0.7-0.3,1.4-0.7,2-1.1c0.1,0,0.2,0,0.3,0
			C135.1,109.4,134.2,110,133.3,110.5L133.3,110.5z M67.2,76.3C64.9,75.5,69,74.6,67.2,76.3L67.2,76.3z M69,82.7
			c-0.2-0.7-0.4-1.4-0.7-2.1c-0.7-3.2-4-4.3-6.3-6c-2.2,0-4.5,0.1-6.7,0c-0.9,0.4-1.8,0.8-2.7,1.1c0,0,0,0,0,0.1
			c-0.3,0.2-1,0.5-1.3,0.7c0,0.3,0,0.8,0,1.1c0.8-0.2,1.5-0.4,2.3-0.5c0.4,1,0.7,2,1.2,3c0.8,0.3,1.5,0.3,2.3,0.6
			c0.4,0.6,0.8,1.2,1.1,1.9c0.6-0.1,1.2-0.2,1.8-0.2c0.4,0.5,0.8,1.1,1.2,1.7c0.2-0.2,0.6-0.5,0.8-0.7c0.9,0.4,1.9,0.7,2.9,0.2
			c1.1,0.3,2.1,0.1,3-0.5C68.2,82.7,68.6,82.7,69,82.7L69,82.7z M107.3,53.6c-0.7-0.5-1.4-1.2-2-1.8c0-0.3-0.1-1.1-0.1-1.4
			c-0.7-0.4-1.4-0.8-2.1-1.2c0.1-0.4,0.2-0.9,0.3-1.4c-0.1-1.1-0.1-2.1-0.2-3.2c-0.4-0.4-0.9-0.8-1.4-1.2c1-0.9,1.7-2,1.1-3.3
			c0.2-0.1,0.4-0.3,0.6-0.3c-0.2-0.2-0.5-0.7-0.6-0.9c0.5-1.2,1-2.4,2-3.3c0.9,0.9,1.6,1.9,1.9,3.1c1.1,3.6,1.7,7.6,1.5,11.4
			C108.3,51.6,107.9,52.6,107.3,53.6L107.3,53.6z M99.1,29.2c-0.3,0.3-0.5,0.7-0.8,1c0.3,0.3,0.8,1,1,1.3c-1.2,0.4-2.3,1-2.2,2.4
			c-0.5,0-1,0-1.5,0c0.2,0.3,0.5,0.9,0.6,1.2c-0.3-0.1-1-0.4-1.3-0.6c0,0.6,0,1.1,0,1.7c-1.1,0-2.2,0.1-3.2,0.3
			c-0.3,0.5-0.6,1-0.9,1.5c-0.3-0.2-0.9-0.7-1.2-0.9c-0.2,0-0.6-0.1-0.9-0.2c-0.3,0.3-0.5,0.7-0.9,1.1c-0.4-0.4-0.9-0.8-1.3-1.2
			c-0.6-0.4-1.3,0.3-1.8,0.5c-0.8-0.2-1.7-0.5-2.5-0.8c-0.6-1.1-1.5-2-2.6-2.7c-0.5,0.2-1.1,0.4-1.8,0.7c-0.3-0.7-0.1-1.5,0-2.2
			c-0.6-0.3-1.2-0.6-1.8-0.9c0.1-0.6,0.1-1.2,0.1-1.8c0.7,0.2,1.4,0.4,2.1,0.5c2.2-0.7,3.9-2.4,6.2-2.8c4.5-1.3,9.1-0.1,13.5,1
			C98.3,28.6,98.7,28.9,99.1,29.2L99.1,29.2z M64.5,56.1c0.2-0.2,0.5-0.4,0.7-0.5c0.9,0.4,1.9,0.7,3,0.9c0.5,1,1.3,1.6,2.5,1.3
			c0.9,0.6,1.9,1.2,2.4,2.3c0.4,1.5,2.5,1.8,2.8,3.3c0.4,1.3,1.3,2.7,0.4,4c-0.5,0.8,0.1,1.5,0.5,2.2l0,0c-3.9-1.1-8.3-2.8-10.3-6.6
			c-0.4-1.7-0.1-3.5-0.6-5.2C65.4,57.1,65,56.6,64.5,56.1L64.5,56.1z M43.2,13.5c-0.6,0-1.2,0.1-1.8,0.2c-0.6-0.5-1.1-1.1-1.6-1.6
			c-0.4,0.1-0.8,0.3-1.2,0.4c-2.1-2-4.5,1.1-6.8-0.1c-0.1,0.4-0.2,0.8-0.3,1.2c-0.9,0.8-1.9,1.4-2.9,2.1c-0.8,1-1.3,2.1-2.2,3.1
			c0,0.8,0.1,1.5,0.1,2.3c-0.3,0.4-0.7,0.8-1,1.2c0.8,2.4,0.8,5,2.1,7.2c1.3,0.5,2.5,1.4,3.5,2.2c-0.1,0.3-0.2,1-0.3,1.3
			c1.1-0.1,2.2,0,3.1,0.8c0.5-0.2,1.1-0.5,1.6-0.7c0.3,0.6,0.7,1.2,1.1,1.8c0.6-0.5,1.1-1.1,1.7-1.4c0.7,0.1,1.3,0.3,1.9,0.5
			c0.9-1.2,2.4-1.4,3.8-1.8c0.4-1,0.7-2,1.1-2.9c0.7-0.2,1.3-0.3,2-0.4c-0.2-0.7-0.4-1.4-0.7-2c0.4-0.1,1.1-0.4,1.4-0.6
			c-0.2-0.7-0.5-1.5-0.7-2.2c0.2-0.7,0.9-1.1,1.3-1.6c-0.5-0.2-0.9-0.4-1.4-0.6c-0.1-0.4-0.1-0.9-0.2-1.3c0.3-0.5,0.6-1,0.9-1.5
			c-0.3-0.1-1-0.4-1.4-0.5c-0.3-0.5-0.5-1-0.8-1.4c0.1-0.3,0.2-1,0.3-1.3c-0.8-0.1-1.5-0.2-2.2-0.4C43.6,14.7,43.4,14.1,43.2,13.5z"
			/>
	</g>
</g>
<g>
	<g>
		<path class="st6" d="M88.7,118.6c-0.1,0-0.1,0.4,0,0.9c0.1,0.5,0.5,1.3,1.2,1.9c0.7,0.6,1.5,0.9,2,0.9c0.6,0.1,0.9,0,0.9-0.1
			c0-0.2-1.3-0.3-2.4-1.3c-0.6-0.5-0.9-1.1-1.2-1.5C89,118.8,88.8,118.5,88.7,118.6z"/>
	</g>
	<g>
		<path class="st6" d="M62.5,118c0.1,0,0.1,0.4,0,0.9c-0.1,0.5-0.5,1.3-1.2,1.9c-0.7,0.6-1.5,0.9-2,0.9c-0.6,0.1-0.9,0-0.9-0.1
			c0-0.2,1.3-0.3,2.4-1.3c0.6-0.5,0.9-1.1,1.2-1.5C62.2,118.3,62.4,118,62.5,118z"/>
	</g>
</g>
<g>
	<g>
		<defs>
			<rect id="SVGID_1_" x="4.4" y="10.8" width="136.6" height="145.9"/>
		</defs>
		<clipPath id="SVGID_2_">
			<use xlink:href="#SVGID_1_"  style="overflow:visible;"/>
		</clipPath>
		<g class="st7">
			<g>
				<g>
					<g>
						<path class="st8" d="M82.8,45.4c0,0-15.2-12.4-30.6,0.7c0,0-9.6,14-17.6,12.9c0,0-11-1.8-6.7-15.6c2.5-8,8.5-15.2,15.3-20
							c6.3-4.4,13.9-6.8,21.5-5.6c8.3,1.3,18.2,5.6,22.5,13.3C90.2,36.5,87,41.8,82.8,45.4z"/>
						<path class="st8" d="M51.8,21.8c-3.3-2.8,0.2-9.7,4-6.9c1.6,1.1,1.2,4,1,5.5L51.8,21.8z"/>
						<path class="st8" d="M39.4,30c12-14.8,36.9-14.6,47.7,1.5c0.3,0.5,0.6,1,0.9,1.5c1.4,4.7-1.5,9.2-5.2,12.4
							c0,0-15.2-12.4-30.6,0.7c0,0-3.5,5.1-8,8.9c-3.7-0.6-7.1-1.1-9-4.9C31.5,43.1,34.9,35.6,39.4,30z"/>
						<path class="st8" d="M89.7,59.5c0,0,17.6,63.1-3.6,122.4l-38.6,28.8c-1.4-7.5-2.7-14.9-4.1-22.4c-0.9-4.8-1.7-9.5-2.6-14.3
							c-0.1-0.6-0.2-1.1-0.3-1.7c0-0.3-0.1-0.4,0-0.7c0.1-0.2,0.2-0.5,0.3-0.7c0-0.1,0.1-0.2,0.1-0.4c0-0.2-0.1-0.3-0.3-0.5
							c-0.1-0.2-0.3-0.3-0.4-0.5c0-0.1-0.1-0.1-0.1-0.2c0-0.1,0-0.2,0-0.3c0.6-2.9,1.3-5.7,2-8.6c1.9-8,3.5-16,4.3-24.1
							c2.3-24.1,2.2-47.9-5-71.1l5.3-6.4c0,0,32.4-2.8,33.2-2.8C80.7,56.2,89.7,59.5,89.7,59.5z"/>
						<g>
							<polygon class="st8" points="95.1,121.8 105.9,118.9 116.3,106.9 118,108.4 106.8,121.3 94.8,124.8 							"/>
						</g>
						<path class="st8" d="M51.1,125.1l-8,8.8l-14.7,3.8l0.2,1.5l15.1-3.1l9.2-9.2C53,126.7,50.9,125.5,51.1,125.1z"/>
						<path class="st8" d="M36.7,127.2c-2.5-2.1-6.7-2.8-9.7-2.9c-2.4,0-4.8,0.3-6.9,1.4c-6.1,3-7.5,11.5-2.2,16.2
							c2,1.7,4.5,2.5,7.1,2.7c2.6,0.2,6.9,0.8,9.1-0.9c2.3-1.7,0.2-5,1.9-6.8c0.4-0.4,1-0.8,1.4-1.2c0.9-0.9,1.3-2.1,1.4-3.3
							C39.1,130.1,38.2,128.4,36.7,127.2z"/>
						<path class="st8" d="M17,128.6c-0.2-0.2-0.4-0.3-0.8-0.3c-1.8,0-2.8,5.2-1.3,5.3C15.8,133.6,18,129.8,17,128.6z"/>
						<path class="st8" d="M16.7,131.4c0.3,0,0.5,0,0.7,0.2c0.4,0.2,0.5,0.6,0.6,1.1c0.2,1.6-1.2,2.8-2.6,3.6
							C13,137.5,13.7,131.4,16.7,131.4z"/>
						<path class="st8" d="M59.8,113.8c-0.6,14.6-3.7,29.4-7.1,43.7c-1.8,7.4-3.6,14.8-5.2,22.3c-1.5,6.8,1.6,11.1,9.1,10.4
							c9.6-0.9,11.8-9.9,14.1-17.8c2.6-9,4.4-18.2,5.9-27.4c2.5-14.8,3.9-30,2.7-45c-0.6-7.4-1.7-14.9-3.1-22.2
							c-1-5.5-2.2-11-3.7-16.4c-0.2-0.9-1.1-6.2-2.2-6.5c-0.6-0.2-1.7-1.5-2.6-1.9c-1.2-0.6-2.9-0.9-4.3-0.9
							c-3.1,0.1-6.5,1.4-9.7,1.8c1.1,7.1,2.1,14.2,3,21.2C58.6,87.8,60.3,101,59.8,113.8z"/>
						<path class="st8" d="M25,134.7c-0.2,0.9-0.1,1.8,0.2,2.7c0.7,2,2.7,3.6,4.9,3.9c1.1,0.1,2.3-0.1,2.9-1
							c0.6-0.9,0.3-2.1,0.3-3.2c0-2.5,3.3-4.1,0.2-6c-0.9-0.6-2-0.7-3.1-0.7c-1.2,0.1-2.5,0.4-3.4,1.2
							C25.9,132.3,25.2,133.5,25,134.7z"/>
						<ellipse class="st8" cx="26.7" cy="127.6" rx="2" ry="2.1"/>
						<ellipse class="st8" cx="22.3" cy="140.6" rx="2" ry="2.1"/>
						<ellipse class="st8" cx="21" cy="132.8" rx="2" ry="2.1"/>
						<g>
							<path class="st8" d="M125.1,98.7c3.5,0.3,1.9,4.9,0.9,6.8c-0.6,1.3-1.6,2.5-2.9,2.8c-0.1,0.1-0.3-0.4-0.4-0.5
								c-0.1-0.1-0.1-0.3-0.1-0.4c0.1-2.2,0.3-4.4,0.8-6.5c0.1-0.5,0.2-1,0.5-1.4C124.2,99.1,124.6,98.6,125.1,98.7z"/>
							<path class="st8" d="M117.7,109.8c0.5,0.1,1,0.2,1.7,0.3c1,0.1,2,0.2,3,0.3c0,0,1.8-11.5,1.8-11.5c0.1-0.4-3.6,0.9-3.7,1
								c-1.7,1.1-3,2.2-3.7,4.3c-0.6,1.5-0.8,3.2-0.9,4.8C116.5,109.4,117.1,109.6,117.7,109.8z"/>
							<path class="st8" d="M120.6,87.1c-0.2,0.3,0.4,22.7,0.3,23c-0.1,0.3,0.1,1.4,1.2,1.8c0,0,1.2,0.6,1.7-2l2.6-22.4
								c0,0-3.5-1.4-3.9-1.3C122.1,86.4,120.6,87.1,120.6,87.1z"/>
							<path class="st8" d="M119.6,108.6c1.5-0.4,2-2.5,1.5-3.8c1.3-0.2,4.6-0.6,4.2-2.7c-0.3-1.6-2.7-0.9-3.8-0.7
								c-2.1,0.3-3.7,1.3-4.5,3.4L119.6,108.6z"/>
							<path class="st8" d="M119.6,108.9C119.7,108.9,119.7,108.9,119.6,108.9c0.7-0.2,1.2-0.6,1.5-1.3c0.4-0.8,0.5-1.7,0.2-2.6
								c1.1-0.2,3.1-0.5,3.8-1.6c0.3-0.4,0.4-0.9,0.3-1.4c-0.3-1.6-2.2-1.3-3.4-1c-0.2,0-0.4,0.1-0.6,0.1c-2.3,0.3-3.9,1.5-4.7,3.5
								c-0.1,0.1,0,0.3,0.1,0.3c0.1,0.1,0.3,0,0.3-0.1c0.7-1.9,2.1-3,4.3-3.2c0.2,0,0.4-0.1,0.6-0.1c1.4-0.3,2.7-0.4,2.9,0.6
								c0.1,0.4,0,0.7-0.2,1c-0.7,0.9-2.6,1.2-3.6,1.4l-0.2,0c-0.1,0-0.1,0.1-0.2,0.1c0,0.1,0,0.1,0,0.2c0.3,0.7,0.2,1.7-0.1,2.5
								c-0.2,0.4-0.5,0.8-1.2,1c-0.1,0-0.2,0.2-0.2,0.3C119.4,108.8,119.5,108.9,119.6,108.9z"/>
							<path class="st8" d="M126.4,87.7c-0.6-0.2-3.2-1-3.5-1c-0.2,0-0.6-0.1-1.1-0.2c-0.5,0.3-1.2,0.5-1.2,0.5c0,0.1,0,1,0,2.4
								c1,0.4,3.1,0.9,5.5,0.3L126.4,87.7z"/>
							<g>
								<path class="st8" d="M119.8,88.3c0,0,4.6,1.5,7.2,0.3l-0.4-9.5l-4.6-0.5L119.8,88.3z"/>
								<path class="st9" d="M120.6,88.5c0.9,0.2,2.4,0.5,3.9,0.5c0.2-2.7,0.7-9.9,0.7-10.1l0,0l-2.5-0.2L120.6,88.5z"/>
								<path class="st8" d="M125.5,83.5c0,0.3,0,0.5,0.1,0.8c0.1,0.2,0.2,0.3,0.3,0.3c0.2,0,0.4-0.2,0.4-0.4c0.2-0.5,0.1-1,0-1.5
									c0-0.2-0.1-1-0.5-1C125.6,81.7,125.5,83.1,125.5,83.5C125.5,83.4,125.5,83.4,125.5,83.5z"/>
								<path class="st8" d="M126.5,86.8c-0.1,0.1-0.1,0.1-0.3,0.2c-0.7,0.1-0.8-1.2-0.2-1.4C126.7,85.3,126.8,86.3,126.5,86.8z"/>
							</g>
							<path class="st8" d="M129.7,71.7c-0.5-2.1-1.6-6.5,1.2-7.4c-3.8-0.3-7.3,1.7-9.7,4.6c-1.8,2.2-2.7,5.8-1.4,8.4
								c1.7,3.4,5.6,4.1,8.6,1.7C130.2,77.3,130.2,73.9,129.7,71.7z"/>
							<path class="st9" d="M127.8,72.3c-0.4-1.6-1.3-5,0.9-5.8c-2.9-0.2-5.6,1.3-7.5,3.5c-1.4,1.7-2.1,4.5-1.1,6.5
								c1.4,2.6,4.4,3.2,6.6,1.3C128.2,76.6,128.2,73.9,127.8,72.3z"/>
							<path class="st9" d="M128.4,74.2c0,0.2,0.1,0.3,0.2,0.4c0.2,0.2,0.6,0.2,0.9-0.1c0.1-0.1,0.1-0.2,0.1-0.3
								c0.1-0.5,0.1-2.8-0.9-2.7C127.9,71.7,128.3,73.7,128.4,74.2z"/>
							<g>
								<path class="st8" d="M130.9,64.3c-3.8-0.3-7.3,1.7-9.7,4.6c-0.5,0.6-0.9,1.3-1.3,2.1c0.9,1.2,1.9-0.8,2.8-0.5
									c0.4,0.1,0.6,0.5,0.7,0.9c0.2,1,0.3,2.3,1.7,2c1.4-0.3,0.8-2,1.8-2.6c1-0.6,1.5,0.9,2.6,0.4C129,68.8,128.3,65.2,130.9,64.3
									z"/>
								<path class="st8" d="M120.3,71.3c0.8,0.4,1.7-1.1,2.5-0.9c0.4,0.1,0.6,0.5,0.7,0.9c0.2,1,0.3,2.3,1.7,2
									c1.4-0.3,0.8-2,1.8-2.6c0.2-0.1,0.3-0.1,0.4-0.1c-0.4-3,0.5-5.4,0.4-5.3C122.9,66.3,120.6,70.6,120.3,71.3z"/>
							</g>
							<g>
								<path class="st8" d="M133.9,65.3c1.8,0.2,2.4,4.8,0.2,4.9c-0.6,0-1.2-0.4-1.4-0.9c-0.4-0.9-0.6-3.8,1-4
									C133.8,65.3,133.9,65.3,133.9,65.3z"/>
								
									<ellipse transform="matrix(0.9606 -0.278 0.278 0.9606 -13.3039 40.0343)" class="st8" cx="134.5" cy="66.9" rx="0.6" ry="1.3"/>
							</g>
							<g>
								<path class="st8" d="M135.7,75.8c-0.6-1.4-3.6,0-1.6,1.4C135.6,78.2,136.3,77.2,135.7,75.8z"/>
								
									<ellipse transform="matrix(0.3189 -0.9478 0.9478 0.3189 20.2387 179.4255)" class="st8" cx="135" cy="75.6" rx="0.2" ry="0.3"/>
							</g>
						</g>
						<g>
							<g>
								<ellipse class="st8" cx="82.2" cy="87.2" rx="6.5" ry="8.7"/>
								<path class="st8" d="M79.4,86.9c1.1,0,2-1,2-2.2c0-0.8-0.4-1.5-0.9-1.9c0.5-0.3,1-0.5,1.6-0.5c2.1,0,3.8,2.3,3.8,5.1
									c0,2.8-1.7,5.1-3.8,5.1s-3.8-2.3-3.8-5.1c0-0.3,0-0.6,0.1-0.9C78.6,86.7,79,86.9,79.4,86.9z"/>
							</g>
							<circle class="st8" cx="80.1" cy="89" r="0.6"/>
						</g>
						<path class="st8" d="M40.8,174.1c-0.1-0.6-0.2-1.1-0.3-1.7c0-0.3-0.1-0.4,0-0.7c0.1-0.2,0.2-0.5,0.3-0.7
							c0-0.1,0.1-0.2,0.1-0.4c0-0.2-0.1-0.3-0.3-0.5c-0.1-0.2-0.3-0.3-0.4-0.5c0-0.1-0.1-0.1-0.1-0.2c0-0.1,0-0.2,0-0.3
							c0.6-2.9,1.3-5.7,2-8.6c1.9-8,3.5-16,4.3-24.1c2.3-24.1,2.2-47.9-5-71.1l2.9-3.5l7.1-3.3c1.5-0.1,3.2-0.3,5.2-0.4
							c1.2,7,2.1,14,2.9,21.1c1.3,12,1.9,24.1,1.8,36.2c-0.1,7.1-0.4,14.2-1.1,21.3c-0.5,4.6-1.4,9-2.2,13.5
							c-1.3,7.1-3.8,14-5.9,20.9c-0.5,1.7-1.5,4.3-2.7,5.7c-1.2,1.4-2.8,0.6-4.3,0.2c-0.3-0.1-3.6-0.8-3.7-1
							C41.1,175.4,41,174.7,40.8,174.1z"/>
						<g>
							<path class="st8" d="M86.3,181.2c-0.1,0.3-0.2,0.5-0.3,0.8l-38.6,28.8L40,169.4c0.4-0.2,0.8-0.3,1.2-0.4
								c2.6-0.3,7-0.5,8.7,2.1c0.6,0.8,0.8,1.8,1,2.8c1.1-4.2,5-7.4,9.4-6.5c9.8,1.9,8.6,11.1,8.6,11.1c3.1-6.9,9.6-4.4,9.6-4.4
								C82.3,175.3,84.7,177.9,86.3,181.2z"/>
							<path class="st8" d="M49.9,171.1c0.6,0.8,0.8,1.8,1,2.8c0.6-2.2,1.9-4.1,3.7-5.3c-1.3,9.1-4.1,31.8-4.1,31.8
								s-2.2,0.2-4.9,0.4L40,169.4c0.4-0.2,0.8-0.3,1.2-0.4C43.9,168.7,48.2,168.6,49.9,171.1z"/>
							<path class="st8" d="M50.9,173.9c1.1-4.2,5-7.4,9.4-6.5c7.7,1.5,8.6,7.4,8.6,9.9l-13.7,27l-7.1-0.8l2.5-30.5
								C50.8,173.3,50.9,173.6,50.9,173.9z"/>
						</g>
						<path class="st8" d="M44.6,194.9c7.4-1,12.9,3.3,15.7,6.2l-12.8,9.6L44.6,194.9z"/>
						<path class="st8" d="M62.6,35.1c1.7-0.5,3.6-0.8,5.7-0.8c5,0,11.4,1.8,14.4,6.1c3.9,5.7,6,12.7,7.6,19.3
							c-1.3-0.9-3.7-0.9-5.3-1.3c-2.5-0.6-5.1-1-7.6-1.3c-2.4-0.3-4.8-0.6-7.2-0.9c-1.7-0.2-5.6-1.5-7.1-1l-21.5,7.7L38.9,54
							c3.2-3,6.3-5.9,9.5-8.9C53,40.9,57.1,36.8,62.6,35.1z"/>
						<g>
							<g>
								<ellipse class="st8" cx="59.2" cy="88.1" rx="6.5" ry="8.7"/>
								<path class="st8" d="M56.4,87.7c1.1,0,2-1,2-2.2c0-0.8-0.4-1.5-0.9-1.9c0.5-0.3,1-0.5,1.6-0.5c2.1,0,3.8,2.3,3.8,5.1
									S61,93.3,59,93.3c-2.1,0-3.8-2.3-3.8-5.1c0-0.3,0-0.6,0.1-0.9C55.6,87.6,56,87.7,56.4,87.7z"/>
							</g>
							<circle class="st8" cx="57.1" cy="89.9" r="0.6"/>
						</g>
						<path class="st8" d="M88.5,66.7c0,0,0,0-0.1-0.1c-0.1-0.1-0.2-0.2-0.3-0.3c-0.3-0.3-0.7-0.6-1.3-0.9c-0.6-0.3-1.3-0.5-2.1-0.6
							c-0.4-0.1-0.8-0.1-1.2-0.1c-0.4,0-0.9,0-1.3,0.1c-0.4,0.1-0.9,0.2-1.3,0.3c-0.4,0.1-0.8,0.3-1.1,0.5c-0.4,0.2-0.7,0.4-1,0.7
							c-0.1,0.1-0.3,0.2-0.4,0.4c-0.1,0.1-0.2,0.3-0.3,0.4c-0.2,0.3-0.4,0.5-0.5,0.7c-0.1,0.2-0.2,0.4-0.3,0.6
							c-0.2,0.3-0.2,0.5-0.2,0.5s0.2-0.1,0.5-0.3c0.1-0.1,0.3-0.2,0.5-0.3s0.5-0.2,0.7-0.3c0.1-0.1,0.3-0.1,0.4-0.2
							c0.1-0.1,0.3-0.1,0.4-0.2c0.3-0.1,0.6-0.2,0.9-0.3c0.2,0,0.3-0.1,0.5-0.1c0.2,0,0.3-0.1,0.5-0.1c0.3-0.1,0.7-0.1,1-0.2
							c0.3-0.1,0.7,0,1-0.1c0.3,0,0.7,0,1,0c0.7,0,1.3,0,1.9,0c0.6,0,1.1,0,1.4,0C88.3,66.7,88.5,66.7,88.5,66.7z"/>
						<path class="st8" d="M49.8,71c0,0,0.2-0.1,0.6-0.2c0.3-0.1,0.8-0.3,1.4-0.4c0.5-0.2,1.1-0.4,1.8-0.6c0.3-0.1,0.6-0.2,1-0.3
							c0.3-0.1,0.7-0.2,1-0.3c0.3-0.1,0.7-0.2,1-0.2c0.2,0,0.3,0,0.5-0.1c0.2,0,0.3,0,0.5,0c0.3,0,0.7,0,1,0c0.2,0,0.3,0,0.5,0
							c0.1,0,0.3,0,0.4,0.1c0.3,0,0.6,0,0.8,0.1s0.4,0.1,0.6,0.1c0.4,0.1,0.6,0.1,0.6,0.1s-0.1-0.2-0.4-0.4
							c-0.1-0.1-0.3-0.3-0.5-0.5c-0.2-0.2-0.4-0.3-0.7-0.5c-0.1-0.1-0.3-0.2-0.4-0.3c-0.2-0.1-0.3-0.1-0.5-0.2
							c-0.3-0.1-0.7-0.3-1.1-0.3c-0.4-0.1-0.8-0.1-1.3-0.1c-0.4,0-0.9,0-1.3,0.1c-0.4,0-0.8,0.2-1.3,0.3c-0.4,0.1-0.8,0.3-1.1,0.5
							c-0.7,0.4-1.3,0.8-1.7,1.3c-0.4,0.5-0.7,0.9-0.9,1.2c-0.1,0.2-0.2,0.3-0.2,0.4C49.8,70.9,49.8,71,49.8,71z"/>
						<path class="st8" d="M51.9,41.9c3.3-2.9,6.6-5.5,10.7-6.7c0.1,0,0.2-0.1,0.3-0.1c5.2,6.7,8.7,21.1,8.7,21.1l-0.7,0.1
							c-0.2,0-0.4-0.1-0.7-0.1c-1.7-0.2-5.6-1.5-7.1-1c0,0-3.3,1.2-7.3,2.6C55.2,54.1,53.2,46.4,51.9,41.9z"/>
						<path class="st8" d="M57.1,57.3c-6.4,2.3-15.5,5.5-15.5,5.5L38.9,54c3.2-3,6.3-5.9,9.5-8.9c1.6-1.5,3.2-3,4.8-4.4
							C54.5,45.5,56.8,55.7,57.1,57.3z"/>
						<path class="st8" d="M41.3,68.8c0.7,0,1.5-0.2,2.1-0.7c18.7-15.1,45.9-5.9,46.2-5.8c1.7,0.6,3.7-0.3,4.3-2.1s-0.3-3.7-2.1-4.3
							c-1.3-0.4-31-10.5-52.6,6.9c-1.4,1.2-1.7,3.3-0.5,4.7C39.4,68.3,40.3,68.8,41.3,68.8z"/>
						<path class="st8" d="M39.8,65.4c0.2,0,0.4-0.1,0.5-0.2c17.8-14.3,41.3-9.5,50.6-6.8c0.5,0.1,0.6,0.2,0.7,0.2
							c0.5,0,0.8-0.4,0.8-0.8c0-0.4-0.3-0.8-0.7-0.8c-0.1,0-0.2-0.1-0.4-0.1c-9.5-2.8-33.7-7.7-52.1,7.1c-0.4,0.3-0.4,0.8-0.1,1.2
							C39.3,65.3,39.5,65.4,39.8,65.4z"/>
						<path class="st8" d="M84.9,30.4c0.9,1.4,1.9,4,0.7,5.5c-3.4,4.2-11.3-4.2-9.1-8.1C78.3,24.6,83.5,28.3,84.9,30.4z"/>
						<path class="st8" d="M73.3,27.6c2.7-0.6,2-4-0.6-4.3C69.6,22.9,69.7,28.5,73.3,27.6z"/>
						<path class="st8" d="M30.3,133.2c0,0.2,0,0.3,0,0.5c0.2,2.5,5.3,0,2.9-1.8C32.2,131.1,30.6,132.1,30.3,133.2z"/>
						<path class="st8" d="M26.8,127.6c0.3-0.5,1-1,1.3-0.1c0.2,0.5-0.5,1.2-1,1.1C26.6,128.4,26.6,127.9,26.8,127.6z"/>
						<path class="st8" d="M20.7,133.8c0,0,0,0.1,0.1,0.1c0.5,0.6,1.5,0.2,1.8-0.4c0.2-0.5,0.1-1-0.4-1.3
							C21.3,131.7,20.3,133,20.7,133.8z"/>
						<path class="st8" d="M23.5,141.4c-0.2,0.2-0.6,0.2-0.9,0c-0.9-0.6,0-2.7,1-1.9C24.2,139.9,24.1,141,23.5,141.4z"/>
					</g>
				</g>
				<g>
					<path class="st8" d="M54.3,98.6c0.8,2.5,3.5,2.8,5.7,2c3.3-1.2,6.7-2.4,9.8,0c0.3,0.2,0.5,0.5,0.7,0.7c0.2-0.3,0.4-0.5,0.6-0.7
						c2.5-2.2,5.5-1.5,8.4-1c2.4,0.4,5.3,0.8,7-1.3c0.6-0.7,0.9-1.7,0.7-2.5c2.7,3.8,1.1,10.3-3.4,12.1c-3.3,1.3-7.4,0.9-10.8,0
						c-1-0.3-1.9-1-2.4-1.9c-0.5,0.9-1.3,1.7-2.3,2c-3.7,1.3-8,1.6-11.8,0.2c-4.2-1.6-4.5-8.2-2.5-11.5C54.1,97.3,54.1,98,54.3,98.6
						z"/>
					<path class="st8" d="M77.8,99.9c-0.2,0-0.4-0.1-0.5-0.1c-1.9-0.5-6.4-0.3-6.5,2.5c0,0.8,0.5,1.6,1.2,2.1
						c0.7,0.5,1.5,0.7,2.4,0.8c1.7,0.2,3.4,0.1,5-0.4c-0.8-0.2-1.6-0.5-2.2-1c0.9,0.7,3.7-0.7,4.5-1.2c1.2-0.7,2.2-1.6,3.3-2.4
						C82.3,100.8,80.3,100.6,77.8,99.9z"/>
					<path class="st8" d="M63.2,104c0.1,0,0.2,0,0.2,0c-0.4,0.5-1.1,1-1.7,1.1c0,0,0.3,0.3,0.3,0.3c0.1,0.1,0.3,0.2,0.4,0.2
						c0.3,0.1,0.6,0.2,1,0.3c0.7,0.1,1.5,0.1,2.2-0.1c1.3-0.2,2.7-0.8,3.5-1.9c0.7-1.1,0.7-2.5-0.3-3.4c-1.5-1.2-3.3-1.1-5.1-0.6
						c-1.2,0.3-2.3,0.8-3.5,1.1c-0.4,0.1-2.8,0.8-3.1,0.5c0.6,0.6,1.4,0.9,2.2,1.1c0.8,0.2,1.6,0.1,2.4,0c-0.2,0.2-1.1,1.3-1.4,1.2
						C61.3,104.1,62.2,104,63.2,104z"/>
				</g>
			</g>
			<g>
				<g>
					<g>
						<g>
							<path class="st8" d="M71.5,121.8c6.8,0,12.6-0.7,14.6-1.6c0,6.2-7.1,10-14.6,10c-7.5,0-14.2-3.5-14.6-10
								C58.9,121.1,64.7,121.8,71.5,121.8z"/>
						</g>
					</g>
				</g>
				<path class="st8" d="M71.5,130.3c-5.4,0-10.3-1.8-12.8-5.2c0.1-0.6,0.2-1.2,0.3-1.5c-0.4-0.8-0.6-1.8-0.6-2.7c0,0,0-0.1,0-0.2
					c2.7,0.7,7.6,1.1,13.2,1.1c5.6,0,10.5-0.4,13.2-1.1c0,0.1,0,0.2,0,0.2c0,0.9-0.2,1.8-0.6,2.7c0.1,0.3,0.2,0.9,0.3,1.5
					C81.8,128.4,76.8,130.3,71.5,130.3z"/>
				<path class="st8" d="M82.6,124.2c0,0-4.1,2.6-12.4,2.3C73.7,127.5,79.7,126.5,82.6,124.2z"/>
			</g>
		</g>
	</g>
</g>
<path class="st10" d="M62.1,54.4c0,6.4,5.2,11.5,11.5,11.5c11.3,0,30.3-5.2,39.7,2.2c9.5,7.4,3.6,18.7-8.8,18.6
	c13.9,5.3,21.8-3.3,31.6-14.1c6.4-7,7.6-5.8,15.8-7.3c7.3-1.4,16.5,0.5,16.5-11c0-2.3,0-38.3,0-38.3c0-6.4-5.2-11.5-11.5-11.5H73.6
	C67.2,4.5,62,9.7,62,16L62.1,54.4L62.1,54.4z"/>
<radialGradient id="SVGID_3_" cx="92.5359" cy="-681.4008" r="102.9611" gradientTransform="matrix(1 0 0 -1 0 -678.0567)" gradientUnits="userSpaceOnUse">
	<stop  offset="0" style="stop-color:#CAE815"/>
	<stop  offset="1" style="stop-color:#A7CA15"/>
</radialGradient>
<path class="st11" d="M56.7,51.2c0,6.4,5.2,11.5,11.5,11.5c11.3,0,30.3-5.2,39.7,2.2c9.5,7.4,3.6,18.7-8.8,18.6
	c13.9,5.3,21.8-3.3,31.6-14.1c6.4-7,7.6-5.8,15.8-7.3c7.3-1.4,16.5,0.5,16.5-11c0-2.3,0-38.3,0-38.3c0-6.4-5.2-11.5-11.5-11.5H68.2
	c-6.4,0-11.5,5.2-11.5,11.5L56.7,51.2L56.7,51.2z"/>
<g>
	<g>
		<defs>
			<rect id="SVGID_4_" x="8.4" y="10.8" width="136.6" height="145.9"/>
		</defs>
		<clipPath id="SVGID_5_">
			<use xlink:href="#SVGID_4_"  style="overflow:visible;"/>
		</clipPath>
		<g class="st12">
			<g>
				<g>
					<g>
						<path class="st13" d="M86.8,45.4c0,0-15.2-12.4-30.6,0.7c0,0-9.6,14-17.6,12.9c0,0-11-1.8-6.7-15.6c2.5-8,8.5-15.2,15.3-20
							c6.3-4.4,13.9-6.8,21.5-5.6c8.3,1.3,18.2,5.6,22.5,13.3C94.2,36.5,91,41.8,86.8,45.4z"/>
						<path class="st13" d="M55.8,21.8c-3.3-2.8,0.2-9.7,4-6.9c1.6,1.1,1.2,4,1,5.5L55.8,21.8z"/>
						<path class="st14" d="M43.4,30c12-14.8,36.9-14.6,47.7,1.5c0.3,0.5,0.6,1,0.9,1.5c1.4,4.7-1.5,9.2-5.2,12.4
							c0,0-15.2-12.4-30.6,0.7c0,0-3.5,5.1-8,8.9c-3.7-0.6-7.1-1.1-9-4.9C35.5,43.1,38.9,35.6,43.4,30z"/>
						<path class="st15" d="M93.7,59.5c0,0,17.6,63.1-3.6,122.4l-38.6,28.8c-1.4-7.5-2.7-14.9-4.1-22.4c-0.9-4.8-1.7-9.5-2.6-14.3
							c-0.1-0.6-0.2-1.1-0.3-1.7c0-0.3-0.1-0.4,0-0.7c0.1-0.2,0.2-0.5,0.3-0.7c0-0.1,0.1-0.2,0.1-0.4c0-0.2-0.1-0.3-0.3-0.5
							c-0.1-0.2-0.3-0.3-0.4-0.5c0-0.1-0.1-0.1-0.1-0.2c0-0.1,0-0.2,0-0.3c0.6-2.9,1.3-5.7,2-8.6c1.9-8,3.5-16,4.3-24.1
							c2.3-24.1,2.2-47.9-5-71.1l5.3-6.4c0,0,32.4-2.8,33.2-2.8C84.7,56.2,93.7,59.5,93.7,59.5z"/>
						<g>
							<polygon class="st16" points="99.1,121.8 109.9,118.9 120.3,106.9 122,108.4 110.8,121.3 98.8,124.8 							"/>
						</g>
						<path class="st17" d="M55.1,125.1l-8,8.8l-14.7,3.8l0.2,1.5l15.1-3.1l9.2-9.2C57,126.7,54.9,125.5,55.1,125.1z"/>
						<path class="st18" d="M40.7,127.2c-2.5-2.1-6.7-2.8-9.7-2.9c-2.4,0-4.8,0.3-6.9,1.4c-6.1,3-7.5,11.5-2.2,16.2
							c2,1.7,4.5,2.5,7.1,2.7c2.6,0.2,6.9,0.8,9.1-0.9c2.3-1.7,0.2-5,1.9-6.8c0.4-0.4,1-0.8,1.4-1.2c0.9-0.9,1.3-2.1,1.4-3.3
							C43.1,130.1,42.2,128.4,40.7,127.2z"/>
						<path class="st19" d="M21,128.6c-0.2-0.2-0.4-0.3-0.8-0.3c-1.8,0-2.8,5.2-1.3,5.3C19.8,133.6,22,129.8,21,128.6z"/>
						<path class="st16" d="M20.7,131.4c0.3,0,0.5,0,0.7,0.2c0.4,0.2,0.5,0.6,0.6,1.1c0.2,1.6-1.2,2.8-2.6,3.6
							C17,137.5,17.7,131.4,20.7,131.4z"/>
						<path class="st20" d="M63.8,113.8c-0.6,14.6-3.7,29.4-7.1,43.7c-1.8,7.4-3.6,14.8-5.2,22.3c-1.5,6.8,1.6,11.1,9.1,10.4
							c9.6-0.9,11.8-9.9,14.1-17.8c2.6-9,4.4-18.2,5.9-27.4c2.5-14.8,3.9-30,2.7-45c-0.6-7.4-1.7-14.9-3.1-22.2
							c-1-5.5-2.2-11-3.7-16.4c-0.2-0.9-1.1-6.2-2.2-6.5c-0.6-0.2-1.7-1.5-2.6-1.9c-1.2-0.6-2.9-0.9-4.3-0.9
							c-3.1,0.1-6.5,1.4-9.7,1.8c1.1,7.1,2.1,14.2,3,21.2C62.6,87.8,64.3,101,63.8,113.8z"/>
						<path class="st21" d="M29,134.7c-0.2,0.9-0.1,1.8,0.2,2.7c0.7,2,2.7,3.6,4.9,3.9c1.1,0.1,2.3-0.1,2.9-1
							c0.6-0.9,0.3-2.1,0.3-3.2c0-2.5,3.3-4.1,0.2-6c-0.9-0.6-2-0.7-3.1-0.7c-1.2,0.1-2.5,0.4-3.4,1.2
							C29.9,132.3,29.2,133.5,29,134.7z"/>
						<ellipse class="st22" cx="30.7" cy="127.6" rx="2" ry="2.1"/>
						<ellipse class="st23" cx="26.3" cy="140.6" rx="2" ry="2.1"/>
						<ellipse class="st24" cx="25" cy="132.8" rx="2" ry="2.1"/>
						<g>
							<path class="st25" d="M129.1,98.7c3.5,0.3,1.9,4.9,0.9,6.8c-0.6,1.3-1.6,2.5-2.9,2.8c-0.1,0.1-0.3-0.4-0.4-0.5
								c-0.1-0.1-0.1-0.3-0.1-0.4c0.1-2.2,0.3-4.4,0.8-6.5c0.1-0.5,0.2-1,0.5-1.4C128.2,99.1,128.6,98.6,129.1,98.7z"/>
							<path class="st16" d="M121.7,109.8c0.5,0.1,1,0.2,1.7,0.3c1,0.1,2,0.2,3,0.3c0,0,1.8-11.5,1.8-11.5c0.1-0.4-3.6,0.9-3.7,1
								c-1.7,1.1-3,2.2-3.7,4.3c-0.6,1.5-0.8,3.2-0.9,4.8C120.5,109.4,121.1,109.6,121.7,109.8z"/>
							<path class="st26" d="M124.6,87.1c-0.2,0.3,0.4,22.7,0.3,23c-0.1,0.3,0.1,1.4,1.2,1.8c0,0,1.2,0.6,1.7-2l2.6-22.4
								c0,0-3.5-1.4-3.9-1.3C126.1,86.4,124.6,87.1,124.6,87.1z"/>
							<path class="st16" d="M123.6,108.6c1.5-0.4,2-2.5,1.5-3.8c1.3-0.2,4.6-0.6,4.2-2.7c-0.3-1.6-2.7-0.9-3.8-0.7
								c-2.1,0.3-3.7,1.3-4.5,3.4L123.6,108.6z"/>
							<path class="st27" d="M123.6,108.9C123.7,108.9,123.7,108.9,123.6,108.9c0.7-0.2,1.2-0.6,1.5-1.3c0.4-0.8,0.5-1.7,0.2-2.6
								c1.1-0.2,3.1-0.5,3.8-1.6c0.3-0.4,0.4-0.9,0.3-1.4c-0.3-1.6-2.2-1.3-3.4-1c-0.2,0-0.4,0.1-0.6,0.1c-2.3,0.3-3.9,1.5-4.7,3.5
								c-0.1,0.1,0,0.3,0.1,0.3c0.1,0.1,0.3,0,0.3-0.1c0.7-1.9,2.1-3,4.3-3.2c0.2,0,0.4-0.1,0.6-0.1c1.4-0.3,2.7-0.4,2.9,0.6
								c0.1,0.4,0,0.7-0.2,1c-0.7,0.9-2.6,1.2-3.6,1.4l-0.2,0c-0.1,0-0.1,0.1-0.2,0.1c0,0.1,0,0.1,0,0.2c0.3,0.7,0.2,1.7-0.1,2.5
								c-0.2,0.4-0.5,0.8-1.2,1c-0.1,0-0.2,0.2-0.2,0.3C123.4,108.8,123.5,108.9,123.6,108.9z"/>
							<path class="st26" d="M130.4,87.7c-0.6-0.2-3.2-1-3.5-1c-0.2,0-0.6-0.1-1.1-0.2c-0.5,0.3-1.2,0.5-1.2,0.5c0,0.1,0,1,0,2.4
								c1,0.4,3.1,0.9,5.5,0.3L130.4,87.7z"/>
							<g>
								<path class="st28" d="M123.8,88.3c0,0,4.6,1.5,7.2,0.3l-0.4-9.5l-4.6-0.5L123.8,88.3z"/>
								<path class="st29" d="M124.6,88.5c0.9,0.2,2.4,0.5,3.9,0.5c0.2-2.7,0.7-9.9,0.7-10.1l0,0l-2.5-0.2L124.6,88.5z"/>
								<path class="st28" d="M129.5,83.5c0,0.3,0,0.5,0.1,0.8c0.1,0.2,0.2,0.3,0.3,0.3c0.2,0,0.4-0.2,0.4-0.4c0.2-0.5,0.1-1,0-1.5
									c0-0.2-0.1-1-0.5-1C129.6,81.7,129.5,83.1,129.5,83.5C129.5,83.4,129.5,83.4,129.5,83.5z"/>
								<path class="st28" d="M130.5,86.8c-0.1,0.1-0.1,0.1-0.3,0.2c-0.7,0.1-0.8-1.2-0.2-1.4C130.7,85.3,130.8,86.3,130.5,86.8z"/>
							</g>
							<path class="st30" d="M133.7,71.7c-0.5-2.1-1.6-6.5,1.2-7.4c-3.8-0.3-7.3,1.7-9.7,4.6c-1.8,2.2-2.7,5.8-1.4,8.4
								c1.7,3.4,5.6,4.1,8.6,1.7C134.2,77.3,134.2,73.9,133.7,71.7z"/>
							<path class="st31" d="M131.8,72.3c-0.4-1.6-1.3-5,0.9-5.8c-2.9-0.2-5.6,1.3-7.5,3.5c-1.4,1.7-2.1,4.5-1.1,6.5
								c1.4,2.6,4.4,3.2,6.6,1.3C132.2,76.6,132.2,73.9,131.8,72.3z"/>
							<path class="st31" d="M132.4,74.2c0,0.2,0.1,0.3,0.2,0.4c0.2,0.2,0.6,0.2,0.9-0.1c0.1-0.1,0.1-0.2,0.1-0.3
								c0.1-0.5,0.1-2.8-0.9-2.7C131.9,71.7,132.3,73.7,132.4,74.2z"/>
							<g>
								<path class="st21" d="M134.9,64.3c-3.8-0.3-7.3,1.7-9.7,4.6c-0.5,0.6-0.9,1.3-1.3,2.1c0.9,1.2,1.9-0.8,2.8-0.5
									c0.4,0.1,0.6,0.5,0.7,0.9c0.2,1,0.3,2.3,1.7,2c1.4-0.3,0.8-2,1.8-2.6c1-0.6,1.5,0.9,2.6,0.4C133,68.8,132.3,65.2,134.9,64.3
									z"/>
								<path class="st21" d="M124.3,71.3c0.8,0.4,1.7-1.1,2.5-0.9c0.4,0.1,0.6,0.5,0.7,0.9c0.2,1,0.3,2.3,1.7,2
									c1.4-0.3,0.8-2,1.8-2.6c0.2-0.1,0.3-0.1,0.4-0.1c-0.4-3,0.5-5.4,0.4-5.3C126.9,66.3,124.6,70.6,124.3,71.3z"/>
							</g>
							<g>
								<path class="st21" d="M137.9,65.3c1.8,0.2,2.4,4.8,0.2,4.9c-0.6,0-1.2-0.4-1.4-0.9c-0.4-0.9-0.6-3.8,1-4
									C137.8,65.3,137.9,65.3,137.9,65.3z"/>
								
									<ellipse transform="matrix(0.9606 -0.278 0.278 0.9606 -13.1463 41.1464)" class="st21" cx="138.5" cy="66.9" rx="0.6" ry="1.3"/>
							</g>
							<g>
								<path class="st21" d="M139.7,75.8c-0.6-1.4-3.6,0-1.6,1.4C139.6,78.2,140.3,77.2,139.7,75.8z"/>
								
									<ellipse transform="matrix(0.3189 -0.9478 0.9478 0.3189 22.9636 183.2178)" class="st21" cx="139" cy="75.6" rx="0.2" ry="0.3"/>
							</g>
						</g>
						<g>
							<g>
								<ellipse class="st32" cx="86.2" cy="87.2" rx="6.5" ry="8.7"/>
								<path class="st33" d="M83.4,86.9c1.1,0,2-1,2-2.2c0-0.8-0.4-1.5-0.9-1.9c0.5-0.3,1-0.5,1.6-0.5c2.1,0,3.8,2.3,3.8,5.1
									c0,2.8-1.7,5.1-3.8,5.1c-2.1,0-3.8-2.3-3.8-5.1c0-0.3,0-0.6,0.1-0.9C82.6,86.7,83,86.9,83.4,86.9z"/>
							</g>
							<circle class="st32" cx="84.1" cy="89" r="0.6"/>
						</g>
						<path class="st34" d="M44.8,174.1c-0.1-0.6-0.2-1.1-0.3-1.7c0-0.3-0.1-0.4,0-0.7c0.1-0.2,0.2-0.5,0.3-0.7
							c0-0.1,0.1-0.2,0.1-0.4c0-0.2-0.1-0.3-0.3-0.5c-0.1-0.2-0.3-0.3-0.4-0.5c0-0.1-0.1-0.1-0.1-0.2c0-0.1,0-0.2,0-0.3
							c0.6-2.9,1.3-5.7,2-8.6c1.9-8,3.5-16,4.3-24.1c2.3-24.1,2.2-47.9-5-71.1l2.9-3.5l7.1-3.3c1.5-0.1,3.2-0.3,5.2-0.4
							c1.2,7,2.1,14,2.9,21.1c1.3,12,1.9,24.1,1.8,36.2c-0.1,7.1-0.4,14.2-1.1,21.3c-0.5,4.6-1.4,9-2.2,13.5
							c-1.3,7.1-3.8,14-5.9,20.9c-0.5,1.7-1.5,4.3-2.7,5.7c-1.2,1.4-2.8,0.6-4.3,0.2c-0.3-0.1-3.6-0.8-3.7-1
							C45.1,175.4,45,174.7,44.8,174.1z"/>
						<g>
							<path class="st35" d="M90.3,181.2c-0.1,0.3-0.2,0.5-0.3,0.8l-38.6,28.8L44,169.4c0.4-0.2,0.8-0.3,1.2-0.4
								c2.6-0.3,7-0.5,8.7,2.1c0.6,0.8,0.8,1.8,1,2.8c1.1-4.2,5-7.4,9.4-6.5c9.8,1.9,8.6,11.1,8.6,11.1c3.1-6.9,9.6-4.4,9.6-4.4
								C86.3,175.3,88.7,177.9,90.3,181.2z"/>
							<path class="st36" d="M53.9,171.1c0.6,0.8,0.8,1.8,1,2.8c0.6-2.2,1.9-4.1,3.7-5.3c-1.3,9.1-4.1,31.8-4.1,31.8
								s-2.2,0.2-4.9,0.4L44,169.4c0.4-0.2,0.8-0.3,1.2-0.4C47.9,168.7,52.2,168.6,53.9,171.1z"/>
							<path class="st37" d="M54.9,173.9c1.1-4.2,5-7.4,9.4-6.5c7.7,1.5,8.6,7.4,8.6,9.9l-13.7,27l-7.1-0.8l2.5-30.5
								C54.8,173.3,54.9,173.6,54.9,173.9z"/>
						</g>
						<path class="st38" d="M48.6,194.9c7.4-1,12.9,3.3,15.7,6.2l-12.8,9.6L48.6,194.9z"/>
						<path class="st39" d="M66.6,35.1c1.7-0.5,3.6-0.8,5.7-0.8c5,0,11.4,1.8,14.4,6.1c3.9,5.7,6,12.7,7.6,19.3
							c-1.3-0.9-3.7-0.9-5.3-1.3c-2.5-0.6-5.1-1-7.6-1.3c-2.4-0.3-4.8-0.6-7.2-0.9c-1.7-0.2-5.6-1.5-7.1-1l-21.5,7.7L43,54
							c3.2-3,6.3-5.9,9.5-8.9C57,40.9,61.1,36.8,66.6,35.1z"/>
						<g>
							<g>
								<ellipse class="st32" cx="63.2" cy="88.1" rx="6.5" ry="8.7"/>
								<path class="st33" d="M60.4,87.7c1.1,0,2-1,2-2.2c0-0.8-0.4-1.5-0.9-1.9c0.5-0.3,1-0.5,1.6-0.5c2.1,0,3.8,2.3,3.8,5.1
									S65,93.3,63,93.3c-2.1,0-3.8-2.3-3.8-5.1c0-0.3,0-0.6,0.1-0.9C59.6,87.6,60,87.7,60.4,87.7z"/>
							</g>
							<circle class="st32" cx="61.1" cy="89.9" r="0.6"/>
						</g>
						<path class="st33" d="M92.5,66.7c0,0,0,0-0.1-0.1c-0.1-0.1-0.2-0.2-0.3-0.3c-0.3-0.3-0.7-0.6-1.3-0.9
							c-0.6-0.3-1.3-0.5-2.1-0.6c-0.4-0.1-0.8-0.1-1.2-0.1c-0.4,0-0.9,0-1.3,0.1c-0.4,0.1-0.9,0.2-1.3,0.3c-0.4,0.1-0.8,0.3-1.1,0.5
							c-0.4,0.2-0.7,0.4-1,0.7c-0.1,0.1-0.3,0.2-0.4,0.4c-0.1,0.1-0.2,0.3-0.3,0.4c-0.2,0.3-0.4,0.5-0.5,0.7
							c-0.1,0.2-0.2,0.4-0.3,0.6c-0.2,0.3-0.2,0.5-0.2,0.5s0.2-0.1,0.5-0.3c0.1-0.1,0.3-0.2,0.5-0.3s0.5-0.2,0.7-0.3
							c0.1-0.1,0.3-0.1,0.4-0.2c0.1-0.1,0.3-0.1,0.4-0.2c0.3-0.1,0.6-0.2,0.9-0.3c0.2,0,0.3-0.1,0.5-0.1c0.2,0,0.3-0.1,0.5-0.1
							c0.3-0.1,0.7-0.1,1-0.2c0.3-0.1,0.7,0,1-0.1c0.3,0,0.7,0,1,0c0.7,0,1.3,0,1.9,0c0.6,0,1.1,0,1.4,0
							C92.3,66.7,92.5,66.7,92.5,66.7z"/>
						<path class="st33" d="M53.8,71c0,0,0.2-0.1,0.6-0.2c0.3-0.1,0.8-0.3,1.4-0.4c0.5-0.2,1.1-0.4,1.8-0.6c0.3-0.1,0.6-0.2,1-0.3
							c0.3-0.1,0.7-0.2,1-0.3c0.3-0.1,0.7-0.2,1-0.2c0.2,0,0.3,0,0.5-0.1c0.2,0,0.3,0,0.5,0c0.3,0,0.7,0,1,0c0.2,0,0.3,0,0.5,0
							c0.1,0,0.3,0,0.4,0.1c0.3,0,0.6,0,0.8,0.1s0.4,0.1,0.6,0.1c0.4,0.1,0.6,0.1,0.6,0.1s-0.1-0.2-0.4-0.4
							c-0.1-0.1-0.3-0.3-0.5-0.5c-0.2-0.2-0.4-0.3-0.7-0.5c-0.1-0.1-0.3-0.2-0.4-0.3c-0.2-0.1-0.3-0.1-0.5-0.2
							c-0.3-0.1-0.7-0.3-1.1-0.3c-0.4-0.1-0.8-0.1-1.3-0.1c-0.4,0-0.9,0-1.3,0.1c-0.4,0-0.8,0.2-1.3,0.3c-0.4,0.1-0.8,0.3-1.1,0.5
							c-0.7,0.4-1.3,0.8-1.7,1.3c-0.4,0.5-0.7,0.9-0.9,1.2c-0.1,0.2-0.2,0.3-0.2,0.4C53.8,70.9,53.8,71,53.8,71z"/>
						<path class="st40" d="M55.9,41.9c3.3-2.9,6.6-5.5,10.7-6.7c0.1,0,0.2-0.1,0.3-0.1c5.2,6.7,8.7,21.1,8.7,21.1l-0.7,0.1
							c-0.2,0-0.4-0.1-0.7-0.1c-1.7-0.2-5.6-1.5-7.1-1c0,0-3.3,1.2-7.3,2.6C59.2,54.1,57.2,46.4,55.9,41.9z"/>
						<path class="st41" d="M61.1,57.3c-6.4,2.3-15.5,5.5-15.5,5.5L42.9,54c3.2-3,6.3-5.9,9.5-8.9c1.6-1.5,3.2-3,4.8-4.4
							C58.5,45.5,60.8,55.7,61.1,57.3z"/>
						<path class="st42" d="M45.3,68.8c0.7,0,1.5-0.2,2.1-0.7c18.7-15.1,45.9-5.9,46.2-5.8c1.7,0.6,3.7-0.3,4.3-2.1
							s-0.3-3.7-2.1-4.3c-1.3-0.4-31-10.5-52.6,6.9c-1.4,1.2-1.7,3.3-0.5,4.7C43.4,68.3,44.3,68.8,45.3,68.8z"/>
						<path class="st42" d="M43.8,65.4c0.2,0,0.4-0.1,0.5-0.2c17.8-14.3,41.3-9.5,50.6-6.8c0.5,0.1,0.6,0.2,0.7,0.2
							c0.5,0,0.8-0.4,0.8-0.8c0-0.4-0.3-0.8-0.7-0.8c-0.1,0-0.2-0.1-0.4-0.1c-9.5-2.8-33.7-7.7-52.1,7.1c-0.4,0.3-0.4,0.8-0.1,1.2
							C43.3,65.3,43.5,65.4,43.8,65.4z"/>
						<path class="st43" d="M88.9,30.4c0.9,1.4,1.9,4,0.7,5.5c-3.4,4.2-11.3-4.2-9.1-8.1C82.3,24.6,87.5,28.3,88.9,30.4z"/>
						<path class="st43" d="M77.3,27.6c2.7-0.6,2-4-0.6-4.3C73.6,22.9,73.7,28.5,77.3,27.6z"/>
						<path class="st21" d="M34.3,133.2c0,0.2,0,0.3,0,0.5c0.2,2.5,5.3,0,2.9-1.8C36.2,131.1,34.6,132.1,34.3,133.2z"/>
						<path class="st22" d="M30.8,127.6c0.3-0.5,1-1,1.3-0.1c0.2,0.5-0.5,1.2-1,1.1C30.6,128.4,30.6,127.9,30.8,127.6z"/>
						<path class="st24" d="M24.7,133.8c0,0,0,0.1,0.1,0.1c0.5,0.6,1.5,0.2,1.8-0.4c0.2-0.5,0.1-1-0.4-1.3
							C25.3,131.7,24.3,133,24.7,133.8z"/>
						<path class="st23" d="M27.5,141.4c-0.2,0.2-0.6,0.2-0.9,0c-0.9-0.6,0-2.7,1-1.9C28.2,139.9,28.1,141,27.5,141.4z"/>
					</g>
				</g>
				<g>
					<path class="st33" d="M58.3,98.6c0.8,2.5,3.5,2.8,5.7,2c3.3-1.2,6.7-2.4,9.8,0c0.3,0.2,0.5,0.5,0.7,0.7
						c0.2-0.3,0.4-0.5,0.6-0.7c2.5-2.2,5.5-1.5,8.4-1c2.4,0.4,5.3,0.8,7-1.3c0.6-0.7,0.9-1.7,0.7-2.5c2.7,3.8,1.1,10.3-3.4,12.1
						c-3.3,1.3-7.4,0.9-10.8,0c-1-0.3-1.9-1-2.4-1.9c-0.5,0.9-1.3,1.7-2.3,2c-3.7,1.3-8,1.6-11.8,0.2c-4.2-1.6-4.5-8.2-2.5-11.5
						C58.1,97.3,58.1,98,58.3,98.6z"/>
					<path class="st33" d="M81.8,99.9c-0.2,0-0.4-0.1-0.5-0.1c-1.9-0.5-6.4-0.3-6.5,2.5c0,0.8,0.5,1.6,1.2,2.1
						c0.7,0.5,1.5,0.7,2.4,0.8c1.7,0.2,3.4,0.1,5-0.4c-0.8-0.2-1.6-0.5-2.2-1c0.9,0.7,3.7-0.7,4.5-1.2c1.2-0.7,2.2-1.6,3.3-2.4
						C86.3,100.8,84.3,100.6,81.8,99.9z"/>
					<path class="st33" d="M67.2,104c0.1,0,0.2,0,0.2,0c-0.4,0.5-1.1,1-1.7,1.1c0,0,0.3,0.3,0.3,0.3c0.1,0.1,0.3,0.2,0.4,0.2
						c0.3,0.1,0.6,0.2,1,0.3c0.7,0.1,1.5,0.1,2.2-0.1c1.3-0.2,2.7-0.8,3.5-1.9c0.7-1.1,0.7-2.5-0.3-3.4c-1.5-1.2-3.3-1.1-5.1-0.6
						c-1.2,0.3-2.3,0.8-3.5,1.1c-0.4,0.1-2.8,0.8-3.1,0.5c0.6,0.6,1.4,0.9,2.2,1.1c0.8,0.2,1.6,0.1,2.4,0c-0.2,0.2-1.1,1.3-1.4,1.2
						C65.3,104.1,66.2,104,67.2,104z"/>
				</g>
			</g>
		</g>
	</g>
	<g>
		<defs>
			<rect id="SVGID_6_" x="8.4" y="10.8" width="136.6" height="145.9"/>
		</defs>
		<clipPath id="SVGID_7_">
			<use xlink:href="#SVGID_6_"  style="overflow:visible;"/>
		</clipPath>
		<g class="st44">
			<path class="st45" d="M64,129.6c0-6.1,5.3-11,11.8-11s11.8,4.9,11.8,11c0,6.1-5.3,1.3-11.8,1.3C69.2,130.9,64,135.7,64,129.6z"/>
			<path class="st32" d="M83.5,132.4c0,0,0-0.1,0-0.1c0-1.6-3.5-3-7.8-3c-4.3,0-7.8,1.3-7.8,3c0,0,0,0.1,0,0.1
				c2.1-0.5,4.8-1.5,7.9-1.5C78.7,130.9,81.4,131.9,83.5,132.4z"/>
			<path class="st32" d="M69,120.5c1.8,0.3,4.2,0.5,6.7,0.5s4.9-0.2,6.7-0.5c-1.9-1.2-4.2-2-6.7-2C73.2,118.6,70.9,119.3,69,120.5z"
				/>
		</g>
	</g>
</g>
<g>
	<path class="st46" d="M106.2,33.1c0,1,0,1.8,0.1,2.4c0.1,0.7,0.2,1.3,0.4,2h-1.6h-1.6c0.2-0.7,0.3-1.3,0.4-2s0.1-1.5,0.1-2.4v-8.6
		c-0.3-0.5-0.6-0.8-0.9-1.1c-0.5-0.7-0.9-1-1.1-1.1h1.8h1.8c0.4,0.8,0.8,1.4,1.2,2c0.4,0.6,0.9,1.2,1.4,2l5.9,7.6v-7.1
		c0-1,0-1.8-0.1-2.4c-0.1-0.6-0.2-1.3-0.4-2h1.6h1.6c-0.2,0.7-0.3,1.4-0.4,2s-0.1,1.5-0.1,2.4v7.2c0,0.7,0,1.5,0.1,2.2
		s0.2,1.2,0.4,1.5h-1.6h-1.6c0-0.2-0.2-0.6-0.6-1.2c-0.3-0.6-0.8-1.1-1.2-1.7l-5.8-7.6L106.2,33.1L106.2,33.1z"/>
	<path class="st46" d="M120.1,36.3c-0.9-1-1.4-2.2-1.4-3.7c0-1.7,0.5-3.1,1.5-4.2c1-1.1,2.3-1.7,3.8-1.7c1.4,0,2.5,0.5,3.4,1.5
		s1.3,2.2,1.3,3.7c0,1.7-0.5,3.1-1.5,4.2s-2.3,1.7-3.8,1.7C122.1,37.8,121,37.3,120.1,36.3z M126,35c0.3-0.6,0.5-1.4,0.5-2.3
		c0-1.4-0.3-2.4-1-3.3c-0.7-0.8-1.5-1.2-2.7-1.3c-0.6,0.2-1,0.7-1.4,1.3c-0.3,0.6-0.5,1.4-0.5,2.3c0,1.4,0.3,2.4,1,3.3
		c0.7,0.8,1.5,1.2,2.7,1.3C125.2,36,125.7,35.6,126,35z"/>
	<path class="st46" d="M132.5,34.5c0.5,0,0.9,0.2,1.2,0.5s0.5,0.7,0.5,1.2s-0.2,0.9-0.5,1.2s-0.7,0.5-1.2,0.5s-0.9-0.2-1.2-0.5
		s-0.5-0.7-0.5-1.2s0.2-0.9,0.5-1.2S132,34.5,132.5,34.5z"/>
	<path class="st46" d="M138.8,34.5c0.5,0,0.9,0.2,1.2,0.5s0.5,0.7,0.5,1.2s-0.2,0.9-0.5,1.2s-0.7,0.5-1.2,0.5s-0.9-0.2-1.2-0.5
		s-0.5-0.7-0.5-1.2s0.2-0.9,0.5-1.2S138.3,34.5,138.8,34.5z"/>
	<path class="st46" d="M145.1,34.5c0.5,0,0.9,0.2,1.2,0.5s0.5,0.7,0.5,1.2s-0.2,0.9-0.5,1.2s-0.7,0.5-1.2,0.5s-0.9-0.2-1.2-0.5
		s-0.5-0.7-0.5-1.2s0.2-0.9,0.5-1.2S144.7,34.5,145.1,34.5z"/>
</g>
</svg>
