<?xml version="1.0" encoding="UTF-8" ?>
<!DOCTYPE svg PUBLIC "-//W3C//DTD SVG 1.1//EN" "http://www.w3.org/Graphics/SVG/1.1/DTD/svg11.dtd">
<svg width="240pt" height="149pt" viewBox="0 0 240 149" version="1.1" xmlns="http://www.w3.org/2000/svg">
<g id="#fefefeff">
<path fill="#fefefe" opacity="1.00" d=" M 36.56 138.86 C 41.58 128.34 45.78 117.44 51.03 107.02 C 56.45 118.44 61.00 130.26 66.70 141.55 C 68.36 141.49 70.49 142.19 71.74 140.73 C 72.83 139.82 72.63 138.25 72.80 136.99 C 72.88 131.65 72.74 126.30 73.09 120.97 C 73.16 117.93 73.45 114.68 72.19 111.83 C 70.65 110.72 68.78 110.10 67.50 108.64 C 73.69 108.58 79.89 108.57 86.08 108.54 C 90.41 108.80 95.67 111.19 96.17 116.05 C 97.18 119.78 95.01 123.75 91.38 124.99 C 91.28 126.08 91.12 127.24 91.81 128.20 C 94.03 132.27 96.51 136.21 98.87 140.20 C 100.33 140.55 102.53 139.83 103.02 141.91 C 103.84 141.08 104.66 140.25 105.48 139.42 C 105.70 130.40 105.56 121.39 105.56 112.37 C 104.07 111.29 102.41 110.49 100.66 109.94 C 100.57 109.58 100.39 108.87 100.30 108.51 C 106.22 108.74 112.13 108.53 118.05 108.51 C 122.21 108.54 127.09 110.34 128.34 114.72 C 130.19 119.18 127.41 124.00 123.32 125.97 C 125.69 130.30 128.06 134.62 130.52 138.89 C 131.26 140.66 133.48 140.17 135.00 140.45 C 134.83 140.88 134.50 141.74 134.33 142.16 C 133.75 142.47 132.59 143.08 132.01 143.39 C 130.53 143.45 129.05 143.51 127.57 143.59 C 122.61 139.31 120.83 132.76 117.16 127.52 C 115.42 127.42 113.68 127.34 111.93 127.27 C 112.04 131.88 111.29 136.61 112.66 141.10 C 114.16 141.67 116.71 141.10 116.82 143.46 C 111.60 142.90 105.98 144.54 101.04 142.59 C 98.29 143.95 94.70 144.05 92.68 141.41 C 89.43 137.07 87.41 131.96 84.39 127.46 C 82.70 127.40 81.01 127.37 79.32 127.36 C 79.28 131.89 78.80 136.50 79.88 140.95 C 81.53 141.47 83.56 141.59 84.39 143.41 C 74.28 143.39 64.14 143.77 54.04 143.20 C 55.40 142.15 56.78 141.12 58.17 140.10 C 58.20 139.80 58.27 139.21 58.30 138.92 C 57.41 136.44 56.49 133.98 55.51 131.54 C 51.31 131.44 47.11 131.43 42.91 131.58 C 42.61 132.18 42.02 133.39 41.72 133.99 C 41.19 135.97 39.85 138.08 40.75 140.14 C 42.47 141.33 44.37 142.21 46.15 143.31 C 41.44 143.67 36.72 143.49 32.01 143.30 C 33.67 141.99 35.76 140.95 36.56 138.86 M 80.00 110.65 C 78.53 115.19 79.47 120.04 79.34 124.72 C 82.72 124.83 86.27 124.92 89.34 123.25 C 91.24 119.37 90.10 114.89 87.25 111.82 C 84.91 111.02 82.46 110.66 80.00 110.65 M 111.88 116.00 C 112.04 118.81 111.47 121.81 112.30 124.50 C 115.70 125.30 119.21 124.53 122.35 123.16 C 122.94 119.86 123.37 115.92 120.99 113.20 C 119.12 110.86 115.82 110.35 113.02 110.83 C 111.41 112.08 112.05 114.25 111.88 116.00 M 44.09 128.62 C 47.39 128.68 50.69 128.67 54.00 128.61 C 53.23 124.37 50.95 120.65 49.05 116.86 C 47.26 120.72 45.41 124.57 44.09 128.62 Z" />
<path fill="#fefefe" opacity="1.00" d=" M 144.60 108.81 C 150.47 107.56 157.28 107.93 161.96 112.14 C 170.74 120.04 168.56 136.63 157.97 141.94 C 154.02 144.14 149.31 143.89 144.95 143.57 C 139.38 142.66 134.59 138.42 132.72 133.13 C 131.91 129.84 131.96 126.39 132.31 123.04 C 133.25 116.47 138.19 110.67 144.60 108.81 M 145.45 110.77 C 140.36 112.39 138.12 118.10 138.30 123.05 C 137.93 128.26 139.07 133.59 142.06 137.92 C 145.71 142.91 154.26 143.05 157.99 138.07 C 160.16 135.85 160.65 132.67 161.12 129.75 C 161.71 123.63 160.35 116.78 155.54 112.57 C 152.74 110.39 148.83 109.76 145.45 110.77 Z" />
<path fill="#fefefe" opacity="1.00" d=" M 202.93 112.70 C 204.01 110.97 205.49 109.57 207.02 108.24 C 207.60 108.29 208.76 108.38 209.34 108.43 C 210.35 110.14 211.81 111.83 211.49 113.98 C 211.45 118.79 207.26 122.29 203.18 124.05 C 203.11 121.90 205.01 120.64 206.30 119.21 C 206.35 118.32 206.46 116.55 206.51 115.67 C 205.34 114.65 204.15 113.66 202.93 112.70 Z" />
<path fill="#fefefe" opacity="1.00" d=" M 215.26 111.48 C 218.91 107.25 225.51 107.43 230.01 110.16 C 231.16 109.84 232.31 109.52 233.46 109.20 C 233.63 112.59 234.19 115.94 234.42 119.32 C 234.01 119.36 233.19 119.43 232.78 119.47 C 231.40 116.37 229.99 112.82 226.71 111.29 C 224.12 109.77 220.30 109.79 218.29 112.23 C 216.65 113.77 217.56 116.16 217.68 118.09 C 222.10 120.55 227.01 122.05 231.28 124.78 C 237.26 129.04 236.01 139.47 229.52 142.63 C 224.66 144.96 219.15 143.30 214.40 141.52 C 213.58 138.17 212.74 134.81 212.36 131.37 C 212.79 131.42 213.65 131.52 214.08 131.56 C 215.15 134.88 216.74 138.28 219.78 140.22 C 222.38 141.68 225.87 142.21 228.47 140.45 C 231.51 138.76 232.47 133.70 229.52 131.46 C 224.49 127.78 217.50 127.27 213.52 122.10 C 213.21 118.55 212.29 114.22 215.26 111.48 Z" />
<path fill="#fefefe" opacity="1.00" d=" M 6.12 108.55 C 13.22 109.25 20.51 107.47 27.47 109.36 C 31.35 110.24 34.10 114.09 33.68 118.03 C 33.21 120.73 30.93 122.47 28.92 124.07 C 32.41 125.20 36.40 127.76 35.97 131.98 C 36.91 137.88 31.82 143.05 26.11 143.39 C 19.47 143.67 12.82 143.26 6.17 143.56 C 6.59 142.14 7.58 141.28 9.13 140.96 C 9.44 140.51 10.08 139.62 10.40 139.18 C 10.40 131.79 10.36 124.39 10.43 117.00 C 10.54 115.19 10.06 113.44 9.50 111.74 C 8.40 111.32 7.30 110.90 6.21 110.47 C 6.19 109.99 6.14 109.03 6.12 108.55 M 16.63 111.59 C 16.33 115.54 16.17 119.52 16.59 123.48 C 20.31 123.51 24.68 124.75 27.68 121.89 C 28.62 118.71 27.70 115.60 26.10 112.82 C 23.17 111.16 19.87 109.98 16.63 111.59 M 16.63 126.57 C 16.43 130.92 15.69 135.61 17.13 139.77 C 20.69 142.95 27.45 141.77 29.45 137.21 C 29.64 134.17 30.23 130.57 27.62 128.33 C 24.48 126.05 20.32 126.02 16.63 126.57 Z" />
<path fill="#fefefe" opacity="1.00" d=" M 164.27 108.59 C 167.52 108.57 170.76 108.57 174.01 108.56 C 181.50 116.87 189.03 125.16 196.64 133.38 C 196.80 126.25 197.23 119.06 196.36 111.97 C 194.25 111.24 191.88 110.71 190.62 108.67 C 195.11 108.59 199.61 108.57 204.10 108.68 C 202.31 110.22 199.25 111.31 199.34 114.14 C 199.14 124.08 199.31 134.04 199.25 143.98 C 195.49 142.27 193.55 138.20 190.52 135.55 C 184.18 129.63 179.30 122.21 172.42 116.90 C 172.33 123.46 172.14 130.04 172.50 136.60 C 172.52 139.80 175.42 141.88 178.43 141.89 L 178.60 143.62 C 174.08 143.39 169.56 143.46 165.03 143.47 C 165.58 141.40 167.74 140.91 169.38 140.07 C 169.98 131.44 169.72 122.75 169.50 114.12 C 169.34 111.02 165.02 111.28 164.27 108.59 Z" />
</g>
<g id="#f9cb22ff">
<path fill="#f9cb22" opacity="1.00" d=" M 103.58 0.00 L 103.61 0.00 C 103.41 4.24 105.14 8.22 105.94 12.31 C 108.22 23.90 111.39 35.29 113.47 46.93 C 114.99 53.14 115.64 59.62 118.16 65.55 C 118.83 59.73 118.41 53.86 118.54 48.02 C 118.51 32.01 118.51 16.01 118.52 0.00 L 123.52 0.00 C 123.27 21.31 123.61 42.62 123.35 63.93 C 123.78 63.86 124.64 63.73 125.08 63.66 C 128.63 44.64 133.39 25.87 137.43 6.95 C 137.58 5.36 138.49 3.13 136.52 2.31 C 138.59 2.04 140.65 1.67 142.72 1.34 C 140.43 17.14 136.14 32.56 132.86 48.16 C 131.47 55.60 129.02 62.83 128.32 70.39 C 124.90 70.99 121.42 70.30 117.99 70.72 C 109.34 71.74 101.31 77.45 98.11 85.66 C 92.67 86.26 87.18 86.29 81.72 85.87 C 80.81 85.59 78.97 85.05 78.06 84.77 C 61.34 81.74 44.61 78.70 27.91 75.58 C 20.01 74.37 12.12 73.14 4.30 71.50 C 4.76 69.91 5.22 68.32 5.68 66.73 C 18.73 69.65 31.95 71.78 45.09 74.23 C 59.48 75.89 73.45 80.84 88.02 80.80 C 80.11 77.09 71.64 74.84 63.56 71.57 C 47.68 65.71 31.88 59.63 15.90 54.08 C 15.88 53.09 15.85 51.12 15.84 50.14 C 18.35 50.34 20.93 50.50 23.27 51.52 C 35.18 56.52 47.53 60.36 59.48 65.27 C 71.20 69.31 82.56 74.47 94.49 77.85 C 95.95 78.60 97.41 79.37 98.87 80.14 C 90.11 74.07 80.38 69.54 71.54 63.56 C 56.99 55.30 42.66 46.65 28.27 38.10 C 29.10 36.83 29.54 35.13 30.98 34.40 C 35.95 36.78 40.39 40.12 45.20 42.79 C 55.92 48.59 66.00 55.50 76.70 61.35 C 85.15 66.54 93.73 71.53 102.25 76.63 C 84.76 61.20 67.26 45.77 49.80 30.31 C 47.56 28.24 43.73 26.43 44.54 22.78 C 45.55 22.60 46.56 22.42 47.57 22.24 C 66.67 38.63 84.99 55.91 104.33 72.01 C 96.68 60.95 88.15 50.54 80.37 39.57 C 73.95 31.68 68.47 23.07 62.03 15.20 C 62.79 14.03 63.24 11.92 65.10 12.23 C 68.91 15.38 71.12 19.92 74.13 23.75 C 78.50 29.44 82.94 35.08 86.96 41.01 C 94.80 50.87 101.81 61.36 109.93 70.99 C 105.10 62.20 101.22 52.92 97.02 43.82 C 91.41 32.38 86.34 20.69 80.96 9.14 C 80.29 7.77 80.58 6.23 80.56 4.77 C 81.99 4.78 83.42 4.79 84.85 4.81 C 85.34 6.92 85.84 9.04 86.75 11.03 C 91.40 21.18 96.40 31.17 100.80 41.43 C 104.85 50.36 109.36 59.07 113.32 68.03 C 109.23 45.80 103.18 23.94 99.14 1.70 C 100.25 1.28 102.47 0.43 103.58 0.00 Z" />
<path fill="#f9cb22" opacity="1.00" d=" M 157.18 5.46 C 158.78 5.89 160.36 6.35 161.94 6.82 C 159.84 12.86 156.52 18.37 154.16 24.30 C 149.74 34.63 144.48 44.57 140.19 54.96 C 138.17 59.34 135.79 63.58 134.39 68.23 C 148.74 49.70 162.46 30.69 176.74 12.12 C 177.80 13.25 180.52 14.35 179.18 16.23 C 165.29 35.11 151.07 53.77 137.09 72.59 C 155.50 56.84 173.45 40.56 191.63 24.55 C 192.88 23.01 194.96 23.56 196.68 23.34 C 196.55 24.20 196.28 25.92 196.15 26.78 C 178.12 42.42 160.31 58.34 142.59 74.34 C 141.75 74.90 140.33 75.02 140.00 76.16 L 139.41 77.58 C 136.65 74.14 132.25 73.16 128.77 70.75 L 128.59 70.33 C 128.94 68.69 129.31 67.05 129.73 65.43 C 132.06 61.99 133.60 58.11 135.36 54.37 C 140.60 42.87 145.82 31.35 151.12 19.88 C 153.39 15.18 155.73 10.49 157.18 5.46 Z" />
<path fill="#f9cb22" opacity="1.00" d=" M 202.65 38.75 C 205.33 37.02 208.07 34.99 211.44 35.25 C 211.45 36.18 211.45 38.06 211.45 38.99 C 201.52 44.93 191.45 50.64 181.71 56.90 C 168.44 64.56 155.24 72.37 142.36 80.68 C 142.09 80.16 141.53 79.12 141.25 78.60 C 142.38 73.79 147.18 72.01 151.04 69.89 C 168.19 59.42 185.41 49.06 202.65 38.75 Z" />
<path fill="#f9cb22" opacity="1.00" d=" M 203.47 56.99 C 210.49 54.59 217.09 50.58 224.60 49.92 C 224.57 50.96 224.51 53.03 224.49 54.07 C 206.34 60.31 188.60 67.69 170.55 74.21 C 162.84 76.61 155.70 80.64 147.78 82.40 C 150.27 82.38 152.77 82.19 155.22 81.71 C 171.49 78.84 187.68 75.47 204.00 72.88 C 214.43 70.91 224.81 68.55 235.36 67.31 C 235.72 68.63 236.10 69.95 236.48 71.28 C 228.24 73.35 219.83 74.53 211.47 75.99 C 197.28 78.27 183.22 81.24 169.05 83.65 C 167.32 83.95 165.61 84.34 163.94 84.89 L 162.57 85.92 C 156.60 86.17 150.61 85.96 144.64 85.70 C 144.13 84.48 143.61 83.27 143.09 82.07 C 143.08 81.63 143.05 80.76 143.04 80.32 C 147.14 77.86 151.79 76.62 156.22 74.91 C 172.08 69.23 187.54 62.48 203.47 56.99 Z" />
</g>
<g id="#eb1c21ff">
<path fill="#eb1c21" opacity="1.00" d=" M 128.32 70.39 L 128.59 70.33 L 128.77 70.75 C 132.25 73.16 136.65 74.14 139.41 77.58 L 140.00 76.16 C 140.31 76.77 140.94 77.99 141.25 78.60 C 141.53 79.12 142.09 80.16 142.36 80.68 C 142.54 81.03 142.91 81.72 143.09 82.07 C 143.61 83.27 144.13 84.48 144.64 85.70 C 150.61 85.96 156.60 86.17 162.57 85.92 C 188.38 85.90 214.19 85.90 240.00 85.91 L 240.00 95.42 C 205.92 95.50 171.84 95.32 137.76 95.50 C 136.38 91.77 134.98 87.82 131.91 85.11 C 127.33 80.47 119.56 80.03 114.05 83.22 C 109.79 85.97 107.49 90.75 105.97 95.42 C 70.65 95.44 35.32 95.43 0.00 95.42 L 0.00 86.04 C 27.24 85.63 54.48 86.14 81.72 85.87 C 87.18 86.29 92.67 86.26 98.11 85.66 C 101.31 77.45 109.34 71.74 117.99 70.72 C 121.42 70.30 124.90 70.99 128.32 70.39 Z" />
</g>
<g id="#029066ff">
<path fill="#029066" opacity="1.00" d=" M 0.00 103.32 C 80.00 103.35 160.00 103.35 240.00 103.33 L 240.00 149.00 L 0.00 149.00 L 0.00 103.32 M 36.56 138.86 C 35.76 140.95 33.67 141.99 32.01 143.30 C 36.72 143.49 41.44 143.67 46.15 143.31 C 44.37 142.21 42.47 141.33 40.75 140.14 C 39.85 138.08 41.19 135.97 41.72 133.99 C 42.02 133.39 42.61 132.18 42.91 131.58 C 47.11 131.43 51.31 131.44 55.51 131.54 C 56.49 133.98 57.41 136.44 58.30 138.92 C 58.27 139.21 58.20 139.80 58.17 140.10 C 56.78 141.12 55.40 142.15 54.04 143.20 C 64.14 143.77 74.28 143.39 84.39 143.41 C 83.56 141.59 81.53 141.47 79.88 140.95 C 78.80 136.50 79.28 131.89 79.32 127.36 C 81.01 127.37 82.70 127.40 84.39 127.46 C 87.41 131.96 89.43 137.07 92.68 141.41 C 94.70 144.05 98.29 143.95 101.04 142.59 C 105.98 144.54 111.60 142.90 116.82 143.46 C 116.71 141.10 114.16 141.67 112.66 141.10 C 111.29 136.61 112.04 131.88 111.93 127.27 C 113.68 127.34 115.42 127.42 117.16 127.52 C 120.83 132.76 122.61 139.31 127.57 143.59 C 129.05 143.51 130.53 143.45 132.01 143.39 C 132.59 143.08 133.75 142.47 134.33 142.16 C 134.50 141.74 134.83 140.88 135.00 140.45 C 133.48 140.17 131.26 140.66 130.52 138.89 C 128.06 134.62 125.69 130.30 123.32 125.97 C 127.41 124.00 130.19 119.18 128.34 114.72 C 127.09 110.34 122.21 108.54 118.05 108.51 C 112.13 108.53 106.22 108.74 100.30 108.51 C 100.39 108.87 100.57 109.58 100.66 109.94 C 102.41 110.49 104.07 111.29 105.56 112.37 C 105.56 121.39 105.70 130.40 105.48 139.42 C 104.66 140.25 103.84 141.08 103.02 141.91 C 102.53 139.83 100.33 140.55 98.87 140.20 C 96.51 136.21 94.03 132.27 91.81 128.20 C 91.12 127.24 91.28 126.08 91.38 124.99 C 95.01 123.75 97.18 119.78 96.17 116.05 C 95.67 111.19 90.41 108.80 86.08 108.54 C 79.89 108.57 73.69 108.58 67.50 108.64 C 68.78 110.10 70.65 110.72 72.19 111.83 C 73.45 114.68 73.16 117.93 73.09 120.97 C 72.74 126.30 72.88 131.65 72.80 136.99 C 72.63 138.25 72.83 139.82 71.74 140.73 C 70.49 142.19 68.36 141.49 66.70 141.55 C 61.00 130.26 56.45 118.44 51.03 107.02 C 45.78 117.44 41.58 128.34 36.56 138.86 M 144.60 108.81 C 138.19 110.67 133.25 116.47 132.31 123.04 C 131.96 126.39 131.91 129.84 132.72 133.13 C 134.59 138.42 139.38 142.66 144.95 143.57 C 149.31 143.89 154.02 144.14 157.97 141.94 C 168.56 136.63 170.74 120.04 161.96 112.14 C 157.28 107.93 150.47 107.56 144.60 108.81 M 202.93 112.70 C 204.15 113.66 205.34 114.65 206.51 115.67 C 206.46 116.55 206.35 118.32 206.30 119.21 C 205.01 120.64 203.11 121.90 203.18 124.05 C 207.26 122.29 211.45 118.79 211.49 113.98 C 211.81 111.83 210.35 110.14 209.34 108.43 C 208.76 108.38 207.60 108.29 207.02 108.24 C 205.49 109.57 204.01 110.97 202.93 112.70 M 215.26 111.48 C 212.29 114.22 213.21 118.55 213.52 122.10 C 217.50 127.27 224.49 127.78 229.52 131.46 C 232.47 133.70 231.51 138.76 228.47 140.45 C 225.87 142.21 222.38 141.68 219.78 140.22 C 216.74 138.28 215.15 134.88 214.08 131.56 C 213.65 131.52 212.79 131.42 212.36 131.37 C 212.74 134.81 213.58 138.17 214.40 141.52 C 219.15 143.30 224.66 144.96 229.52 142.63 C 236.01 139.47 237.26 129.04 231.28 124.78 C 227.01 122.05 222.10 120.55 217.68 118.09 C 217.56 116.16 216.65 113.77 218.29 112.23 C 220.30 109.79 224.12 109.77 226.71 111.29 C 229.99 112.82 231.40 116.37 232.78 119.47 C 233.19 119.43 234.01 119.36 234.42 119.32 C 234.19 115.94 233.63 112.59 233.46 109.20 C 232.31 109.52 231.16 109.84 230.01 110.16 C 225.51 107.43 218.91 107.25 215.26 111.48 M 6.12 108.55 C 6.14 109.03 6.19 109.99 6.21 110.47 C 7.30 110.90 8.40 111.32 9.50 111.74 C 10.06 113.44 10.54 115.19 10.43 117.00 C 10.36 124.39 10.40 131.79 10.40 139.18 C 10.08 139.62 9.44 140.51 9.13 140.96 C 7.58 141.28 6.59 142.14 6.17 143.56 C 12.82 143.26 19.47 143.67 26.11 143.39 C 31.82 143.05 36.91 137.88 35.97 131.98 C 36.40 127.76 32.41 125.20 28.92 124.07 C 30.93 122.47 33.21 120.73 33.68 118.03 C 34.10 114.09 31.35 110.24 27.47 109.36 C 20.51 107.47 13.22 109.25 6.12 108.55 M 164.27 108.59 C 165.02 111.28 169.34 111.02 169.50 114.12 C 169.72 122.75 169.98 131.44 169.38 140.07 C 167.74 140.91 165.58 141.40 165.03 143.47 C 169.56 143.46 174.08 143.39 178.60 143.62 L 178.43 141.89 C 175.42 141.88 172.52 139.80 172.50 136.60 C 172.14 130.04 172.33 123.46 172.42 116.90 C 179.30 122.21 184.18 129.63 190.52 135.55 C 193.55 138.20 195.49 142.27 199.25 143.98 C 199.31 134.04 199.14 124.08 199.34 114.14 C 199.25 111.31 202.31 110.22 204.10 108.68 C 199.61 108.57 195.11 108.59 190.62 108.67 C 191.88 110.71 194.25 111.24 196.36 111.97 C 197.23 119.06 196.80 126.25 196.64 133.38 C 189.03 125.16 181.50 116.87 174.01 108.56 C 170.76 108.57 167.52 108.57 164.27 108.59 Z" />
<path fill="#029066" opacity="1.00" d=" M 145.45 110.77 C 148.83 109.76 152.74 110.39 155.54 112.57 C 160.35 116.78 161.71 123.63 161.12 129.75 C 160.65 132.67 160.16 135.85 157.99 138.07 C 154.26 143.05 145.71 142.91 142.06 137.92 C 139.07 133.59 137.93 128.26 138.30 123.05 C 138.12 118.10 140.36 112.39 145.45 110.77 Z" />
<path fill="#029066" opacity="1.00" d=" M 16.63 111.59 C 19.87 109.98 23.17 111.16 26.10 112.82 C 27.70 115.60 28.62 118.71 27.68 121.89 C 24.68 124.75 20.31 123.51 16.59 123.48 C 16.17 119.52 16.33 115.54 16.63 111.59 Z" />
<path fill="#029066" opacity="1.00" d=" M 80.00 110.65 C 82.46 110.66 84.91 111.02 87.25 111.82 C 90.10 114.89 91.24 119.37 89.34 123.25 C 86.27 124.92 82.72 124.83 79.34 124.72 C 79.47 120.04 78.53 115.19 80.00 110.65 Z" />
<path fill="#029066" opacity="1.00" d=" M 111.88 116.00 C 112.05 114.25 111.41 112.08 113.02 110.83 C 115.82 110.35 119.12 110.86 120.99 113.20 C 123.37 115.92 122.94 119.86 122.35 123.16 C 119.21 124.53 115.70 125.30 112.30 124.50 C 111.47 121.81 112.04 118.81 111.88 116.00 Z" />
<path fill="#029066" opacity="1.00" d=" M 44.09 128.62 C 45.41 124.57 47.26 120.72 49.05 116.86 C 50.95 120.65 53.23 124.37 54.00 128.61 C 50.69 128.67 47.39 128.68 44.09 128.62 Z" />
<path fill="#029066" opacity="1.00" d=" M 16.63 126.57 C 20.32 126.02 24.48 126.05 27.62 128.33 C 30.23 130.57 29.64 134.17 29.45 137.21 C 27.45 141.77 20.69 142.95 17.13 139.77 C 15.69 135.61 16.43 130.92 16.63 126.57 Z" />
</g>
</svg>
