<?xml version="1.0" encoding="UTF-8" ?>
<!DOCTYPE svg PUBLIC "-//W3C//DTD SVG 1.1//EN" "http://www.w3.org/Graphics/SVG/1.1/DTD/svg11.dtd">
<svg width="248pt" height="203pt" viewBox="0 0 248 203" version="1.1" xmlns="http://www.w3.org/2000/svg">
<g id="#8e64abff">
<path fill="#8e64ab" opacity="1.00" d=" M 0.00 0.00 L 4.14 0.00 C 3.34 3.22 1.84 6.64 3.02 9.96 C 5.61 18.56 11.06 26.21 18.00 31.87 C 21.22 34.28 24.76 36.80 28.93 37.03 C 36.63 37.52 44.33 35.97 51.66 33.71 C 56.67 31.95 62.40 30.05 65.04 25.01 C 69.09 17.34 68.35 8.33 67.53 0.00 L 74.69 0.00 C 75.89 3.61 77.67 6.96 80.23 9.79 C 81.17 12.95 80.82 16.40 81.68 19.61 C 69.56 26.08 58.70 34.98 50.28 45.87 C 41.80 44.14 33.29 42.52 24.69 41.57 C 20.79 41.10 16.68 41.61 12.94 40.21 C 7.77 37.54 2.57 34.12 0.00 28.67 L 0.00 0.00 Z" />
<path fill="#8e64ab" opacity="1.00" d=" M 222.10 0.00 L 230.71 0.00 C 230.88 4.08 231.79 8.07 232.25 12.11 C 230.42 16.93 226.97 21.02 223.33 24.59 C 221.89 18.85 220.93 12.97 220.48 7.07 C 220.25 4.60 221.17 2.23 222.10 0.00 Z" />
<path fill="#8e64ab" opacity="1.00" d=" M 0.00 82.14 C 11.24 78.73 22.92 77.43 34.62 77.02 C 33.83 80.03 33.11 83.06 32.56 86.12 C 27.89 85.97 22.98 85.62 18.60 87.61 C 13.68 89.41 10.10 93.52 5.20 95.35 C 2.86 96.11 1.43 98.17 0.00 100.03 L 0.00 82.14 Z" />
</g>
<g id="#bb9cd5ff">
<path fill="#bb9cd5" opacity="1.00" d=" M 4.14 0.00 L 5.67 0.00 C 4.37 3.85 3.15 8.16 4.81 12.10 C 7.79 19.47 12.95 25.81 18.90 31.00 C 21.83 33.35 25.10 35.81 29.00 35.97 C 33.62 36.25 38.29 35.85 42.78 34.68 C 48.81 33.20 55.07 31.81 60.33 28.37 C 64.48 25.66 65.96 20.59 66.68 15.96 C 67.27 10.66 67.20 5.22 66.02 0.00 L 67.53 0.00 C 68.35 8.33 69.09 17.34 65.04 25.01 C 62.40 30.05 56.67 31.95 51.66 33.71 C 44.33 35.97 36.63 37.52 28.93 37.03 C 24.76 36.80 21.22 34.28 18.00 31.87 C 11.06 26.21 5.61 18.56 3.02 9.96 C 1.84 6.64 3.34 3.22 4.14 0.00 Z" />
<path fill="#bb9cd5" opacity="1.00" d=" M 15.94 0.00 L 17.15 0.00 C 16.47 2.83 15.97 5.92 17.32 8.66 C 19.49 13.58 22.50 18.06 25.27 22.66 C 27.29 25.64 29.81 29.70 34.02 28.98 C 42.28 28.09 50.55 24.34 55.80 17.77 C 58.63 11.99 55.64 5.67 54.00 0.00 L 54.90 0.00 C 57.50 5.50 59.53 12.13 57.09 18.03 C 51.53 26.66 40.72 28.97 31.26 30.35 C 28.79 28.73 26.31 26.97 24.75 24.40 C 21.29 18.89 17.58 13.37 15.78 7.06 C 15.03 4.75 15.39 2.31 15.94 0.00 Z" />
<path fill="#bb9cd5" opacity="1.00" d=" M 24.94 0.00 L 26.58 0.00 C 24.94 5.40 28.09 10.56 30.81 15.00 C 32.45 17.67 36.01 19.97 39.14 18.41 C 42.41 16.81 45.12 14.23 47.43 11.46 C 49.45 9.00 48.25 5.68 48.01 2.86 C 43.11 2.29 38.09 2.90 33.44 4.55 C 33.22 4.92 32.79 5.65 32.57 6.02 C 33.21 9.72 37.25 11.14 39.94 13.15 C 41.08 11.24 41.91 9.17 42.43 7.01 C 41.59 6.82 39.90 6.44 39.06 6.24 C 40.30 5.83 41.53 5.42 42.77 5.00 C 43.26 8.60 42.53 12.12 39.68 14.56 C 36.92 12.24 33.49 10.52 31.46 7.46 C 31.43 5.70 32.30 3.75 34.18 3.36 C 38.10 2.27 42.22 1.39 46.31 1.65 C 49.09 1.79 49.40 4.89 49.65 7.04 C 50.35 12.13 45.58 15.36 42.02 17.99 C 39.16 20.34 34.64 20.80 31.91 18.01 C 27.30 13.22 25.10 6.57 24.94 0.00 Z" />
<path fill="#bb9cd5" opacity="1.00" d=" M 129.57 0.00 L 130.86 0.00 C 135.34 6.18 143.36 7.93 150.51 8.67 C 159.11 9.17 169.17 7.61 174.44 0.00 L 176.22 0.00 C 170.45 9.34 158.03 10.64 148.10 9.51 C 141.28 8.27 133.19 6.62 129.57 0.00 Z" />
<path fill="#bb9cd5" opacity="1.00" d=" M 186.62 0.00 L 188.19 0.00 C 182.62 7.83 173.31 11.93 164.50 14.99 C 167.42 12.14 171.44 11.07 174.92 9.13 C 179.21 6.65 183.84 4.28 186.62 0.00 Z" />
<path fill="#bb9cd5" opacity="1.00" d=" M 212.39 0.00 L 214.10 0.00 C 206.11 10.92 195.70 19.89 184.29 27.07 C 184.02 26.89 183.49 26.54 183.22 26.37 C 194.05 18.93 204.60 10.71 212.39 0.00 Z" />
<path fill="#bb9cd5" opacity="1.00" d=" M 219.37 0.00 L 222.10 0.00 C 221.17 2.23 220.25 4.60 220.48 7.07 C 220.93 12.97 221.89 18.85 223.33 24.59 C 226.97 21.02 230.42 16.93 232.25 12.11 C 231.79 8.07 230.88 4.08 230.71 0.00 L 231.67 0.00 C 231.79 3.51 232.35 6.99 233.55 10.30 C 234.85 6.93 235.75 3.42 236.92 0.00 L 238.20 0.00 C 237.27 4.51 235.63 8.80 234.23 13.16 C 235.26 19.67 237.78 25.97 241.14 31.63 C 242.62 34.40 245.39 35.95 248.00 37.48 L 248.00 39.30 C 245.38 37.27 242.24 35.73 240.35 32.92 C 236.90 27.58 234.98 21.48 233.04 15.49 C 229.96 19.21 226.77 22.85 223.91 26.75 C 226.22 32.70 228.59 38.72 232.92 43.54 C 237.77 41.84 242.87 41.05 248.00 40.79 L 248.00 41.93 C 243.35 42.46 238.69 43.18 234.35 45.00 C 238.47 49.02 242.87 52.86 248.00 55.53 L 248.00 57.44 C 242.64 53.96 237.86 49.72 232.86 45.77 C 230.04 46.09 227.61 47.79 225.10 49.01 C 220.39 51.71 215.37 54.04 211.34 57.76 C 211.13 57.38 210.71 56.62 210.50 56.24 C 216.99 51.45 224.09 47.58 231.31 44.02 C 227.49 39.13 225.11 33.37 222.83 27.66 C 216.27 33.56 209.06 38.67 202.61 44.70 C 202.36 44.38 201.87 43.76 201.62 43.44 C 208.63 37.82 216.31 32.82 222.11 25.86 C 220.43 20.14 220.77 13.95 218.68 8.39 C 213.01 19.24 206.14 30.07 196.05 37.29 C 195.77 37.04 195.23 36.53 194.96 36.28 C 205.30 28.63 212.57 17.66 218.33 6.33 C 219.14 4.32 219.11 2.12 219.37 0.00 Z" />
<path fill="#bb9cd5" opacity="1.00" d=" M 0.00 28.67 C 2.57 34.12 7.77 37.54 12.94 40.21 C 16.68 41.61 20.79 41.10 24.69 41.57 C 33.29 42.52 41.80 44.14 50.28 45.87 C 50.06 46.15 49.60 46.69 49.37 46.96 C 38.95 44.64 28.41 42.40 17.70 42.11 C 26.99 46.75 37.36 50.15 47.87 48.99 C 47.68 49.25 47.32 49.77 47.13 50.03 C 39.38 51.01 31.66 49.09 24.39 46.53 C 20.84 45.30 17.69 43.10 14.06 42.12 C 9.36 41.61 4.66 42.55 0.00 43.09 L 0.00 41.49 C 3.50 41.24 7.00 41.02 10.49 40.77 C 6.85 37.93 2.82 35.45 0.00 31.71 L 0.00 28.67 Z" />
<path fill="#bb9cd5" opacity="1.00" d=" M 0.00 49.83 C 3.65 52.21 6.88 55.60 11.08 56.92 C 22.01 55.35 33.06 53.87 44.12 54.94 C 43.90 55.28 43.47 55.96 43.25 56.30 C 33.26 56.05 23.17 56.02 13.34 58.01 C 16.48 60.42 20.21 61.85 23.89 63.21 C 29.14 65.11 34.74 63.48 40.02 62.65 C 39.88 62.94 39.59 63.51 39.45 63.80 C 34.23 64.42 28.82 66.13 23.63 64.42 C 19.07 63.32 15.10 60.79 10.88 58.89 C 7.25 58.48 3.62 59.87 0.00 60.20 L 0.00 59.20 C 2.80 58.55 5.65 58.11 8.47 57.60 C 5.90 55.28 2.92 53.51 0.00 51.66 L 0.00 49.83 Z" />
<path fill="#bb9cd5" opacity="1.00" d=" M 236.05 85.20 C 239.01 81.70 243.86 81.22 248.00 80.02 L 248.00 81.56 C 244.67 82.60 240.68 82.49 238.05 85.08 C 234.40 88.48 232.74 93.33 230.46 97.65 C 227.65 103.09 225.94 109.00 224.52 114.93 C 224.39 116.20 223.37 116.94 222.50 117.72 L 222.07 116.61 C 225.33 105.59 229.55 94.73 236.05 85.20 Z" />
<path fill="#bb9cd5" opacity="1.00" d=" M 0.00 121.51 C 1.27 126.47 3.44 131.19 6.76 135.11 C 6.69 150.64 6.61 166.18 6.77 181.71 C 4.48 182.39 2.19 183.12 0.00 184.09 L 0.00 182.85 C 0.91 182.45 2.76 182.52 2.73 181.18 C 1.97 180.39 1.06 180.18 0.00 180.57 L 0.00 178.98 C 2.02 179.56 4.07 180.00 6.13 180.44 C 6.21 175.24 6.26 170.03 6.14 164.83 C 4.10 164.47 2.05 164.11 0.00 163.76 L 0.00 163.14 C 2.04 163.14 4.08 163.14 6.12 163.14 C 6.18 159.17 6.81 155.10 5.90 151.19 C 4.16 149.16 1.93 147.65 0.00 145.81 L 0.00 143.79 C 1.86 145.77 3.95 147.50 6.05 149.20 C 6.19 145.17 6.72 141.07 6.03 137.06 C 4.31 133.42 1.66 130.29 0.00 126.61 L 0.00 121.51 Z" />
<path fill="#bb9cd5" opacity="1.00" d=" M 241.91 129.74 C 243.75 132.19 245.80 134.48 248.00 136.63 L 248.00 137.84 C 245.96 136.08 243.89 134.35 241.92 132.52 C 241.84 136.94 241.14 141.45 242.07 145.83 C 243.73 148.01 246.03 149.59 248.00 151.48 L 248.00 152.51 C 246.02 151.16 243.95 149.94 241.90 148.72 C 241.64 153.46 241.65 158.22 241.88 162.97 C 243.92 163.34 245.97 163.71 248.00 164.18 L 248.00 164.97 C 245.74 164.70 243.48 164.43 241.23 164.15 C 241.44 153.22 241.20 142.29 241.31 131.36 C 241.46 130.95 241.76 130.14 241.91 129.74 Z" />
<path fill="#bb9cd5" opacity="1.00" d=" M 0.00 200.79 C 2.05 199.24 4.13 197.74 6.14 196.14 C 6.33 196.36 6.69 196.80 6.88 197.02 C 4.60 198.82 2.26 200.53 0.00 202.34 L 0.00 200.79 Z" />
</g>
<g id="#8d64aaff">
<path fill="#8d64aa" opacity="1.00" d=" M 5.67 0.00 L 15.94 0.00 C 15.39 2.31 15.03 4.75 15.78 7.06 C 17.58 13.37 21.29 18.89 24.75 24.40 C 26.31 26.97 28.79 28.73 31.26 30.35 C 40.72 28.97 51.53 26.66 57.09 18.03 C 59.53 12.13 57.50 5.50 54.90 0.00 L 66.02 0.00 C 67.20 5.22 67.27 10.66 66.68 15.96 C 65.96 20.59 64.48 25.66 60.33 28.37 C 55.07 31.81 48.81 33.20 42.78 34.68 C 38.29 35.85 33.62 36.25 29.00 35.97 C 25.10 35.81 21.83 33.35 18.90 31.00 C 12.95 25.81 7.79 19.47 4.81 12.10 C 3.15 8.16 4.37 3.85 5.67 0.00 Z" />
<path fill="#8d64aa" opacity="1.00" d=" M 101.94 0.00 L 107.69 0.00 C 109.11 3.48 110.99 6.74 113.40 9.63 C 110.39 10.05 107.38 10.56 104.41 11.23 C 104.37 7.36 103.75 3.47 101.94 0.00 Z" />
<path fill="#8d64aa" opacity="1.00" d=" M 130.86 0.00 L 143.52 0.00 C 145.91 1.26 148.15 3.14 150.94 3.36 C 154.15 3.39 156.87 1.50 159.57 0.00 L 174.44 0.00 C 169.17 7.61 159.11 9.17 150.51 8.67 C 143.36 7.93 135.34 6.18 130.86 0.00 Z" />
<path fill="#8d64aa" opacity="1.00" d=" M 195.36 0.00 L 212.39 0.00 C 204.60 10.71 194.05 18.93 183.22 26.37 C 181.34 25.14 179.47 23.90 177.58 22.70 C 178.92 21.70 180.30 20.74 181.58 19.66 C 184.05 17.84 184.30 14.47 186.24 12.22 C 189.49 8.30 192.35 4.09 195.36 0.00 Z" />
<path fill="#8d64aa" opacity="1.00" d=" M 214.10 0.00 L 219.37 0.00 C 219.11 2.12 219.14 4.32 218.33 6.33 C 212.57 17.66 205.30 28.63 194.96 36.28 C 191.54 33.05 188.01 29.94 184.29 27.07 C 195.70 19.89 206.11 10.92 214.10 0.00 Z" />
<path fill="#8d64aa" opacity="1.00" d=" M 238.20 0.00 L 243.26 0.00 C 242.57 2.62 241.81 5.27 241.77 8.00 C 242.58 12.99 245.02 17.55 248.00 21.57 L 248.00 37.48 C 245.39 35.95 242.62 34.40 241.14 31.63 C 237.78 25.97 235.26 19.67 234.23 13.16 C 235.63 8.80 237.27 4.51 238.20 0.00 Z" />
<path fill="#8d64aa" opacity="1.00" d=" M 223.91 26.75 C 226.77 22.85 229.96 19.21 233.04 15.49 C 234.98 21.48 236.90 27.58 240.35 32.92 C 242.24 35.73 245.38 37.27 248.00 39.30 L 248.00 40.79 C 242.87 41.05 237.77 41.84 232.92 43.54 C 228.59 38.72 226.22 32.70 223.91 26.75 Z" />
<path fill="#8d64aa" opacity="1.00" d=" M 202.61 44.70 C 209.06 38.67 216.27 33.56 222.83 27.66 C 225.11 33.37 227.49 39.13 231.31 44.02 C 224.09 47.58 216.99 51.45 210.50 56.24 C 208.15 52.20 205.48 48.37 202.61 44.70 Z" />
<path fill="#8d64aa" opacity="1.00" d=" M 0.00 43.09 C 4.66 42.55 9.36 41.61 14.06 42.12 C 17.69 43.10 20.84 45.30 24.39 46.53 C 31.66 49.09 39.38 51.01 47.13 50.03 C 46.11 51.66 45.15 53.32 44.12 54.94 C 33.06 53.87 22.01 55.35 11.08 56.92 C 6.88 55.60 3.65 52.21 0.00 49.83 L 0.00 43.09 Z" />
<path fill="#8d64aa" opacity="1.00" d=" M 234.35 45.00 C 238.69 43.18 243.35 42.46 248.00 41.93 L 248.00 55.53 C 242.87 52.86 238.47 49.02 234.35 45.00 Z" />
<path fill="#8d64aa" opacity="1.00" d=" M 225.10 49.01 C 227.61 47.79 230.04 46.09 232.86 45.77 C 237.86 49.72 242.64 53.96 248.00 57.44 L 248.00 80.02 C 243.86 81.22 239.01 81.70 236.05 85.20 C 229.55 94.73 225.33 105.59 222.07 116.61 C 221.85 116.06 221.42 114.98 221.20 114.44 C 223.36 99.36 222.40 83.45 216.42 69.30 C 217.21 68.46 217.99 67.60 218.80 66.78 C 217.72 66.90 216.63 66.95 215.56 67.06 C 214.40 63.86 212.96 60.76 211.34 57.76 C 215.37 54.04 220.39 51.71 225.10 49.01 Z" />
<path fill="#8d64aa" opacity="1.00" d=" M 0.00 70.02 C 12.06 66.86 24.77 67.82 36.94 69.82 C 36.11 72.20 35.32 74.60 34.62 77.02 C 22.92 77.43 11.24 78.73 0.00 82.14 L 0.00 70.02 Z" />
<path fill="#8d64aa" opacity="1.00" d=" M 18.60 87.61 C 22.98 85.62 27.89 85.97 32.56 86.12 C 31.89 90.30 31.64 94.53 31.68 98.76 C 30.88 99.99 30.17 101.27 29.44 102.54 C 24.22 102.24 18.99 104.43 15.78 108.57 C 14.05 111.31 13.69 114.60 13.32 117.74 C 11.41 117.73 9.51 117.69 7.61 117.66 C 6.02 123.34 7.24 129.30 6.76 135.11 C 3.44 131.19 1.27 126.47 0.00 121.51 L 0.00 100.03 C 1.43 98.17 2.86 96.11 5.20 95.35 C 10.10 93.52 13.68 89.41 18.60 87.61 Z" />
<path fill="#8d64aa" opacity="1.00" d=" M 22.61 196.76 C 35.58 196.70 48.54 196.73 61.50 196.73 C 63.12 198.85 64.72 200.99 66.48 203.00 L 53.57 203.00 C 47.60 199.82 40.69 198.86 33.99 199.21 C 30.67 199.34 27.72 201.00 25.17 203.00 L 12.37 203.00 C 14.99 199.78 18.94 198.37 22.61 196.76 Z" />
<path fill="#8d64aa" opacity="1.00" d=" M 91.71 196.73 C 94.87 196.72 98.03 196.77 101.19 196.83 C 100.68 198.94 101.15 201.13 102.20 203.00 L 95.23 203.00 C 93.93 200.98 92.82 198.86 91.71 196.73 Z" />
<path fill="#8d64aa" opacity="1.00" d=" M 101.60 196.83 C 105.02 196.74 108.45 196.70 111.87 196.72 C 111.89 198.81 111.92 200.90 111.94 203.00 L 102.57 203.00 C 103.06 200.89 102.53 198.73 101.60 196.83 Z" />
<path fill="#8d64aa" opacity="1.00" d=" M 125.81 196.71 C 128.72 196.71 131.63 196.72 134.54 196.72 C 134.57 198.82 134.73 200.92 135.11 203.00 L 126.98 203.00 C 126.51 200.92 126.16 198.81 125.81 196.71 Z" />
<path fill="#8d64aa" opacity="1.00" d=" M 190.64 196.79 C 194.87 196.70 199.11 196.70 203.35 196.81 C 202.81 198.83 202.84 200.96 203.26 203.00 L 190.38 203.00 C 191.07 201.00 191.18 198.83 190.64 196.79 Z" />
</g>
<g id="#8e64aaff">
<path fill="#8e64aa" opacity="1.00" d=" M 17.15 0.00 L 24.94 0.00 C 25.10 6.57 27.30 13.22 31.91 18.01 C 34.64 20.80 39.16 20.34 42.02 17.99 C 45.58 15.36 50.35 12.13 49.65 7.04 C 49.40 4.89 49.09 1.79 46.31 1.65 C 42.22 1.39 38.10 2.27 34.18 3.36 C 32.30 3.75 31.43 5.70 31.46 7.46 C 33.49 10.52 36.92 12.24 39.68 14.56 C 42.53 12.12 43.26 8.60 42.77 5.00 C 41.53 5.42 40.30 5.83 39.06 6.24 C 39.90 6.44 41.59 6.82 42.43 7.01 C 41.91 9.17 41.08 11.24 39.94 13.15 C 37.25 11.14 33.21 9.72 32.57 6.02 C 32.79 5.65 33.22 4.92 33.44 4.55 C 38.09 2.90 43.11 2.29 48.01 2.86 C 48.25 5.68 49.45 9.00 47.43 11.46 C 45.12 14.23 42.41 16.81 39.14 18.41 C 36.01 19.97 32.45 17.67 30.81 15.00 C 28.09 10.56 24.94 5.40 26.58 0.00 L 54.00 0.00 C 55.64 5.67 58.63 11.99 55.80 17.77 C 50.55 24.34 42.28 28.09 34.02 28.98 C 29.81 29.70 27.29 25.64 25.27 22.66 C 22.50 18.06 19.49 13.58 17.32 8.66 C 15.97 5.92 16.47 2.83 17.15 0.00 Z" />
<path fill="#8e64aa" opacity="1.00" d=" M 107.69 0.00 L 121.02 0.00 C 122.80 2.09 123.71 4.71 125.00 7.09 C 127.37 7.91 129.89 8.23 132.35 8.70 C 126.02 8.60 119.68 8.78 113.40 9.63 C 110.99 6.74 109.11 3.48 107.69 0.00 Z" />
<path fill="#8e64aa" opacity="1.00" d=" M 238.05 85.08 C 240.68 82.49 244.67 82.60 248.00 81.56 L 248.00 91.58 C 244.56 94.51 240.10 97.16 239.06 101.90 C 237.93 106.65 237.19 111.64 237.92 116.50 C 238.19 116.65 238.74 116.94 239.01 117.08 C 239.47 111.79 238.49 106.03 240.90 100.98 C 242.62 97.99 245.55 96.01 248.00 93.67 L 248.00 136.63 C 245.80 134.48 243.75 132.19 241.91 129.74 C 241.76 130.14 241.46 130.95 241.31 131.36 C 240.43 127.06 242.51 121.50 239.90 117.98 C 234.13 117.29 228.30 117.83 222.50 117.72 L 222.50 117.72 C 223.37 116.94 224.39 116.20 224.52 114.93 C 225.94 109.00 227.65 103.09 230.46 97.65 C 232.74 93.33 234.40 88.48 238.05 85.08 Z" />
<path fill="#8e64aa" opacity="1.00" d=" M 113.88 196.72 C 117.50 196.71 121.12 196.72 124.74 196.71 C 124.82 198.80 124.91 200.90 124.99 203.00 L 113.78 203.00 C 113.81 200.91 113.84 198.81 113.88 196.72 Z" />
</g>
<g id="#9065aaff">
<path fill="#9065aa" opacity="1.00" d=" M 74.69 0.00 L 81.94 0.00 C 82.55 2.11 82.91 4.31 83.77 6.34 C 84.90 8.19 86.61 9.59 88.05 11.20 C 88.99 12.60 89.93 14.01 90.88 15.42 C 87.73 16.63 84.73 18.17 81.68 19.61 C 80.82 16.40 81.17 12.95 80.23 9.79 C 77.67 6.96 75.89 3.61 74.69 0.00 Z" />
<path fill="#9065aa" opacity="1.00" d=" M 167.81 196.73 C 171.16 196.74 174.51 196.71 177.86 196.71 C 177.93 198.81 178.00 200.90 178.07 203.00 L 170.42 203.00 C 169.54 200.91 168.75 198.79 167.81 196.73 Z" />
</g>
<g id="#8b68a9ff">
<path fill="#8b68a9" opacity="1.00" d=" M 81.94 0.00 L 85.78 0.00 C 86.83 3.67 87.37 7.45 88.05 11.20 C 86.61 9.59 84.90 8.19 83.77 6.34 C 82.91 4.31 82.55 2.11 81.94 0.00 Z" />
</g>
<g id="#8f66abff">
<path fill="#8f66ab" opacity="1.00" d=" M 85.78 0.00 L 92.96 0.00 C 93.50 2.62 93.15 5.71 95.14 7.80 C 96.63 9.57 98.53 10.92 100.35 12.34 C 97.17 13.31 94.01 14.32 90.88 15.42 C 89.93 14.01 88.99 12.60 88.05 11.20 C 87.37 7.45 86.83 3.67 85.78 0.00 Z" />
<path fill="#8f66ab" opacity="1.00" d=" M 239.45 203.00 C 242.23 200.47 245.11 198.07 248.00 195.67 L 248.00 203.00 L 239.45 203.00 Z" />
</g>
<g id="#8e66aaff">
<path fill="#8e66aa" opacity="1.00" d=" M 92.96 0.00 L 101.94 0.00 C 103.75 3.47 104.37 7.36 104.41 11.23 C 103.04 11.56 101.69 11.94 100.35 12.34 C 98.53 10.92 96.63 9.57 95.14 7.80 C 93.15 5.71 93.50 2.62 92.96 0.00 Z" />
</g>
<g id="#8e65abff">
<path fill="#8e65ab" opacity="1.00" d=" M 121.02 0.00 L 129.57 0.00 C 133.19 6.62 141.28 8.27 148.10 9.51 C 158.03 10.64 170.45 9.34 176.22 0.00 L 186.62 0.00 C 183.84 4.28 179.21 6.65 174.92 9.13 C 171.44 11.07 167.42 12.14 164.50 14.99 C 173.31 11.93 182.62 7.83 188.19 0.00 L 195.36 0.00 C 192.35 4.09 189.49 8.30 186.24 12.22 C 184.30 14.47 184.05 17.84 181.58 19.66 C 180.30 20.74 178.92 21.70 177.58 22.70 C 163.94 14.37 148.22 9.94 132.35 8.70 C 129.89 8.23 127.37 7.91 125.00 7.09 C 123.71 4.71 122.80 2.09 121.02 0.00 Z" />
<path fill="#8e65ab" opacity="1.00" d=" M 218.68 8.39 C 220.77 13.95 220.43 20.14 222.11 25.86 C 216.31 32.82 208.63 37.82 201.62 43.44 C 199.90 41.27 198.05 39.20 196.05 37.29 C 206.14 30.07 213.01 19.24 218.68 8.39 Z" />
<path fill="#8e65ab" opacity="1.00" d=" M 0.00 31.71 C 2.82 35.45 6.85 37.93 10.49 40.77 C 7.00 41.02 3.50 41.24 0.00 41.49 L 0.00 31.71 Z" />
</g>
<g id="#a985c6ff">
<path fill="#a985c6" opacity="1.00" d=" M 143.52 0.00 L 147.16 0.00 C 148.44 0.61 149.66 1.43 151.05 1.79 C 152.74 1.71 154.15 0.60 155.68 0.00 L 159.57 0.00 C 156.87 1.50 154.15 3.39 150.94 3.36 C 148.15 3.14 145.91 1.26 143.52 0.00 Z" />
</g>
<g id="#8764a4ff">
<path fill="#8764a4" opacity="1.00" d=" M 147.16 0.00 L 155.68 0.00 C 154.15 0.60 152.74 1.71 151.05 1.79 C 149.66 1.43 148.44 0.61 147.16 0.00 Z" />
</g>
<g id="#8f65a8ff">
<path fill="#8f65a8" opacity="1.00" d=" M 231.67 0.00 L 236.92 0.00 C 235.75 3.42 234.85 6.93 233.55 10.30 C 232.35 6.99 231.79 3.51 231.67 0.00 Z" />
</g>
<g id="#ad89c8ff">
<path fill="#ad89c8" opacity="1.00" d=" M 243.26 0.00 L 245.07 0.00 C 244.04 3.56 242.60 7.41 243.88 11.10 C 244.65 13.89 246.39 16.24 248.00 18.59 L 248.00 21.57 C 245.02 17.55 242.58 12.99 241.77 8.00 C 241.81 5.27 242.57 2.62 243.26 0.00 Z" />
</g>
<g id="#9164aaff">
<path fill="#9164aa" opacity="1.00" d=" M 245.07 0.00 L 248.00 0.00 L 248.00 18.59 C 246.39 16.24 244.65 13.89 243.88 11.10 C 242.60 7.41 244.04 3.56 245.07 0.00 Z" />
</g>
<g id="#ffe053ff">
<path fill="#ffe053" opacity="1.00" d=" M 113.40 9.63 C 119.68 8.78 126.02 8.60 132.35 8.70 C 148.22 9.94 163.94 14.37 177.58 22.70 C 179.47 23.90 181.34 25.14 183.22 26.37 C 183.49 26.54 184.02 26.89 184.29 27.07 C 188.01 29.94 191.54 33.05 194.96 36.28 C 195.23 36.53 195.77 37.04 196.05 37.29 C 198.05 39.20 199.90 41.27 201.62 43.44 C 201.87 43.76 202.36 44.38 202.61 44.70 C 205.48 48.37 208.15 52.20 210.50 56.24 C 210.71 56.62 211.13 57.38 211.34 57.76 C 212.96 60.76 214.40 63.86 215.56 67.06 C 216.63 66.95 217.72 66.90 218.80 66.78 C 217.99 67.60 217.21 68.46 216.42 69.30 C 222.40 83.45 223.36 99.36 221.20 114.44 C 219.73 110.86 216.65 108.47 213.51 106.44 C 212.42 106.42 211.34 106.40 210.25 106.39 C 209.03 103.03 207.82 99.32 204.72 97.20 C 202.13 95.57 198.97 96.34 196.22 97.08 C 193.64 94.29 189.98 91.77 186.00 92.90 C 182.47 93.41 181.01 96.98 179.58 99.76 C 178.16 98.64 176.86 97.16 175.01 96.79 C 172.07 96.19 169.36 97.81 166.84 99.07 C 165.65 97.76 164.11 96.66 163.30 95.06 C 162.78 90.66 162.98 86.07 161.19 81.91 C 159.09 77.05 156.10 72.64 153.39 68.11 C 156.78 65.32 160.85 63.01 163.12 59.13 C 165.19 54.80 162.16 50.41 161.96 46.12 C 165.15 39.79 167.90 32.40 165.51 25.32 C 164.93 23.75 163.46 21.03 161.47 22.43 C 157.18 24.73 155.36 29.53 153.62 33.78 C 150.81 34.87 147.47 35.10 145.19 37.22 C 142.14 41.13 142.30 46.41 142.01 51.11 C 140.72 50.24 139.46 49.29 138.02 48.67 C 135.65 48.01 134.20 50.38 132.56 51.61 C 127.24 53.17 122.42 55.94 117.92 59.13 C 114.37 57.15 110.99 54.81 108.28 51.74 C 106.48 49.99 104.89 47.27 101.99 47.56 C 97.53 47.79 94.44 51.49 90.97 53.85 C 86.86 57.22 81.76 59.32 78.07 63.18 C 78.49 67.49 81.60 71.83 86.00 72.73 C 89.43 72.79 91.76 69.91 94.04 67.78 C 93.39 70.34 92.50 73.01 93.08 75.68 C 94.63 78.79 98.55 77.08 101.07 76.90 C 99.37 76.16 97.59 75.64 95.83 75.09 C 97.55 75.13 99.27 75.20 100.99 75.24 C 101.05 75.66 101.17 76.50 101.23 76.92 C 98.39 81.19 94.82 85.13 93.09 90.03 C 91.53 97.07 92.99 104.32 92.81 111.45 C 91.33 113.44 89.98 115.53 88.72 117.68 C 86.56 117.69 84.41 117.70 82.25 117.73 C 83.08 108.99 75.87 100.36 66.87 100.80 C 66.52 96.57 65.43 91.65 61.25 89.62 C 56.03 87.35 50.16 89.61 46.09 93.12 C 40.51 91.69 35.42 94.94 31.68 98.76 C 31.64 94.53 31.89 90.30 32.56 86.12 C 33.11 83.06 33.83 80.03 34.62 77.02 C 35.32 74.60 36.11 72.20 36.94 69.82 C 37.16 69.21 37.39 68.60 37.63 68.00 C 38.20 66.59 38.80 65.18 39.45 63.80 C 39.59 63.51 39.88 62.94 40.02 62.65 C 41.08 60.53 42.08 58.37 43.25 56.30 C 43.47 55.96 43.90 55.28 44.12 54.94 C 45.15 53.32 46.11 51.66 47.13 50.03 C 47.32 49.77 47.68 49.25 47.87 48.99 C 48.24 48.48 49.00 47.47 49.37 46.96 C 49.60 46.69 50.06 46.15 50.28 45.87 C 58.70 34.98 69.56 26.08 81.68 19.61 C 84.73 18.17 87.73 16.63 90.88 15.42 C 94.01 14.32 97.17 13.31 100.35 12.34 C 101.69 11.94 103.04 11.56 104.41 11.23 C 107.38 10.56 110.39 10.05 113.40 9.63 Z" />
</g>
<g id="#000000ff">
<path fill="#000000" opacity="1.00" d=" M 161.47 22.43 C 163.46 21.03 164.93 23.75 165.51 25.32 C 167.90 32.40 165.15 39.79 161.96 46.12 C 162.16 50.41 165.19 54.80 163.12 59.13 C 160.85 63.01 156.78 65.32 153.39 68.11 C 156.10 72.64 159.09 77.05 161.19 81.91 C 162.98 86.07 162.78 90.66 163.30 95.06 C 164.11 96.66 165.65 97.76 166.84 99.07 C 169.36 97.81 172.07 96.19 175.01 96.79 C 176.86 97.16 178.16 98.64 179.58 99.76 C 181.01 96.98 182.47 93.41 186.00 92.90 C 189.98 91.77 193.64 94.29 196.22 97.08 C 198.97 96.34 202.13 95.57 204.72 97.20 C 207.82 99.32 209.03 103.03 210.25 106.39 C 211.34 106.40 212.42 106.42 213.51 106.44 C 216.65 108.47 219.73 110.86 221.20 114.44 C 221.42 114.98 221.85 116.06 222.07 116.61 L 222.50 117.72 L 222.50 117.72 C 228.30 117.83 234.13 117.29 239.90 117.98 C 242.51 121.50 240.43 127.06 241.31 131.36 C 241.20 142.29 241.44 153.22 241.23 164.15 C 241.08 170.11 241.19 176.08 241.11 182.05 C 241.00 186.93 241.61 191.88 240.45 196.69 C 239.83 196.69 238.58 196.70 237.96 196.71 C 234.69 196.74 231.42 196.70 228.16 196.70 C 227.64 196.71 226.61 196.73 226.09 196.74 C 224.68 196.77 223.27 196.79 221.86 196.82 L 221.47 196.82 C 219.29 196.77 217.11 196.75 214.93 196.73 L 213.71 196.71 C 210.39 196.69 207.06 196.74 203.74 196.81 L 203.35 196.81 C 199.11 196.70 194.87 196.70 190.64 196.79 L 190.25 196.79 C 186.43 196.72 182.62 196.72 178.81 196.72 L 177.86 196.71 C 174.51 196.71 171.16 196.74 167.81 196.73 C 167.27 196.73 166.19 196.72 165.65 196.71 C 163.79 196.71 161.93 196.71 160.07 196.70 C 158.61 196.70 157.15 196.71 155.69 196.73 C 154.34 196.75 152.99 196.79 151.64 196.82 L 151.24 196.82 C 146.12 196.67 141.00 196.74 135.88 196.72 L 134.54 196.72 C 131.63 196.72 128.72 196.71 125.81 196.71 L 124.74 196.71 C 121.12 196.72 117.50 196.71 113.88 196.72 C 113.38 196.72 112.37 196.72 111.87 196.72 C 108.45 196.70 105.02 196.74 101.60 196.83 L 101.19 196.83 C 98.03 196.77 94.87 196.72 91.71 196.73 C 91.07 196.73 89.79 196.73 89.15 196.73 C 86.65 196.73 84.16 196.73 81.67 196.75 C 80.92 196.75 79.42 196.74 78.67 196.74 C 78.24 196.74 77.37 196.72 76.94 196.72 C 76.43 196.71 75.41 196.70 74.91 196.70 C 71.23 196.71 67.55 196.78 63.88 196.77 C 63.28 196.76 62.09 196.74 61.50 196.73 C 48.54 196.73 35.58 196.70 22.61 196.76 C 21.17 196.74 19.72 196.75 18.27 196.76 C 14.64 196.77 11.01 196.71 7.38 196.55 C 6.58 191.64 7.01 186.65 6.77 181.71 C 6.61 166.18 6.69 150.64 6.76 135.11 C 7.24 129.30 6.02 123.34 7.61 117.66 C 9.51 117.69 11.41 117.73 13.32 117.74 C 13.69 114.60 14.05 111.31 15.78 108.57 C 18.99 104.43 24.22 102.24 29.44 102.54 C 30.17 101.27 30.88 99.99 31.68 98.76 C 35.42 94.94 40.51 91.69 46.09 93.12 C 50.16 89.61 56.03 87.35 61.25 89.62 C 65.43 91.65 66.52 96.57 66.87 100.80 C 75.87 100.36 83.08 108.99 82.25 117.73 C 84.41 117.70 86.56 117.69 88.72 117.68 C 89.98 115.53 91.33 113.44 92.81 111.45 C 92.99 104.32 91.53 97.07 93.09 90.03 C 94.82 85.13 98.39 81.19 101.23 76.92 C 101.17 76.50 101.05 75.66 100.99 75.24 C 101.63 75.11 102.91 74.84 103.55 74.71 C 103.94 74.00 104.73 72.56 105.12 71.84 C 101.95 68.88 99.35 65.37 96.09 62.50 C 94.99 66.55 95.00 70.76 95.12 74.93 L 95.83 75.09 C 97.59 75.64 99.37 76.16 101.07 76.90 C 98.55 77.08 94.63 78.79 93.08 75.68 C 92.50 73.01 93.39 70.34 94.04 67.78 C 91.76 69.91 89.43 72.79 86.00 72.73 C 81.60 71.83 78.49 67.49 78.07 63.18 C 81.76 59.32 86.86 57.22 90.97 53.85 C 94.44 51.49 97.53 47.79 101.99 47.56 C 104.89 47.27 106.48 49.99 108.28 51.74 C 110.99 54.81 114.37 57.15 117.92 59.13 C 122.42 55.94 127.24 53.17 132.56 51.61 C 134.20 50.38 135.65 48.01 138.02 48.67 C 139.46 49.29 140.72 50.24 142.01 51.11 C 142.30 46.41 142.14 41.13 145.19 37.22 C 147.47 35.10 150.81 34.87 153.62 33.78 C 155.36 29.53 157.18 24.73 161.47 22.43 M 162.14 22.76 C 163.37 31.39 159.72 39.63 156.31 47.34 C 155.21 50.21 153.43 52.93 153.27 56.07 C 152.21 57.95 151.34 59.93 150.33 61.83 C 150.94 63.70 151.79 65.48 152.84 67.14 C 155.36 64.58 158.27 62.36 160.39 59.42 C 163.03 55.99 161.71 51.41 161.06 47.54 C 158.71 49.64 157.16 52.54 154.50 54.29 C 159.77 47.54 164.34 39.72 164.79 30.96 C 164.80 28.09 164.62 24.66 162.14 22.76 M 154.42 34.37 C 151.15 35.84 146.97 36.78 145.30 40.32 C 143.98 43.71 143.43 47.37 143.27 50.98 C 143.02 54.01 145.75 56.59 144.65 59.66 C 141.69 59.31 140.46 55.47 137.60 54.45 C 135.11 52.54 134.08 56.21 132.68 57.61 C 130.46 58.08 131.85 54.76 131.31 53.57 C 128.92 54.57 126.58 55.68 124.24 56.81 C 125.44 57.89 127.00 59.00 126.36 60.86 C 125.41 62.57 123.82 63.77 122.44 65.11 C 126.68 67.12 126.54 72.42 126.32 76.40 C 125.75 72.82 125.68 68.84 122.96 66.08 C 119.45 66.38 116.83 68.99 114.64 71.51 C 112.60 74.11 110.70 77.42 111.62 80.84 C 113.30 84.11 117.54 82.94 120.48 82.92 C 117.67 84.37 113.31 84.94 111.30 81.94 C 109.14 78.40 111.45 74.29 113.35 71.19 C 115.32 68.57 117.90 65.48 121.52 65.61 C 122.68 64.20 122.79 62.78 121.83 61.34 C 117.68 63.26 114.24 66.27 111.28 69.70 C 109.60 69.20 107.82 69.35 106.10 69.11 C 107.18 70.69 105.87 72.11 105.21 73.43 C 101.74 79.25 97.16 84.50 94.85 90.95 C 93.70 96.96 94.99 103.06 95.29 109.09 C 98.61 106.62 101.99 104.18 105.86 102.62 C 103.19 99.98 100.17 97.09 101.91 92.86 C 101.14 93.61 99.60 95.13 98.83 95.88 C 100.52 92.62 103.22 89.13 107.40 90.25 C 107.48 90.90 107.64 92.18 107.73 92.82 C 107.48 92.44 106.98 91.66 106.73 91.28 C 106.14 91.23 104.96 91.14 104.37 91.10 C 103.91 91.52 102.99 92.36 102.53 92.78 C 102.28 96.71 103.87 100.50 107.50 102.33 C 100.73 105.57 94.51 110.56 91.24 117.46 C 95.70 117.38 100.72 118.82 104.80 116.63 C 106.11 117.29 107.50 117.83 109.00 117.70 C 114.01 117.69 119.01 117.70 124.02 117.68 C 120.07 114.59 115.41 111.89 113.42 107.03 C 114.10 105.31 114.92 103.58 116.47 102.48 C 122.52 97.67 130.11 94.31 137.95 94.67 C 142.59 95.01 147.99 96.50 149.92 101.24 C 148.60 107.82 143.35 112.58 138.97 117.31 C 145.19 118.21 151.53 117.36 157.80 117.74 C 156.04 111.04 159.48 104.22 164.93 100.34 C 161.75 95.38 156.00 92.88 150.57 91.20 C 150.59 90.91 150.63 90.32 150.65 90.02 C 151.96 88.89 152.92 87.45 153.77 85.95 C 153.34 85.20 152.46 83.68 152.02 82.93 C 150.67 84.09 149.31 85.26 147.89 86.33 C 149.18 82.85 152.89 81.12 156.38 82.49 C 155.61 82.62 154.05 82.89 153.27 83.03 C 153.68 84.20 154.22 85.34 154.49 86.56 C 153.64 88.00 152.59 89.31 151.60 90.65 C 154.72 91.48 157.77 92.55 160.75 93.78 C 160.68 89.54 160.88 85.04 158.83 81.17 C 155.48 74.58 151.42 68.32 148.74 61.39 C 148.44 60.55 148.31 59.68 148.36 58.78 C 148.58 59.52 149.01 61.00 149.23 61.74 C 151.37 60.62 151.24 57.94 152.06 55.95 C 155.44 45.33 162.27 35.28 161.40 23.74 C 157.88 26.34 156.21 30.54 154.42 34.37 M 99.11 49.94 C 92.40 54.20 86.13 59.17 79.19 63.08 L 79.48 64.04 C 79.51 64.16 79.59 64.39 79.63 64.51 C 80.59 68.09 84.24 71.29 88.11 70.48 C 94.13 66.26 97.79 59.15 98.66 51.93 C 105.40 54.49 105.03 63.09 106.64 68.94 C 109.97 67.43 110.69 63.48 113.78 61.75 C 114.52 61.07 115.83 60.72 115.79 59.52 C 111.78 57.25 107.89 54.69 104.95 51.07 C 103.68 49.05 101.06 48.75 99.11 49.94 M 99.22 52.91 C 99.00 55.81 97.85 58.56 97.51 61.42 C 99.81 64.81 102.27 68.17 105.37 70.87 C 105.24 64.55 104.35 57.26 99.22 52.91 M 47.31 94.26 C 52.66 101.82 51.33 111.40 50.60 120.06 C 52.88 120.54 55.35 121.81 57.62 120.63 C 62.32 118.58 63.75 112.99 64.65 108.41 C 65.09 103.78 65.91 98.60 63.63 94.34 C 60.16 88.63 51.63 90.54 47.31 94.26 M 186.18 94.33 C 183.10 95.44 181.48 98.94 180.97 101.98 C 181.72 105.97 183.71 109.77 183.43 113.91 C 183.39 115.56 182.94 117.23 183.22 118.88 C 186.70 120.26 191.03 121.59 194.51 119.57 C 197.91 114.62 198.11 108.01 196.62 102.36 C 195.28 97.99 191.34 92.86 186.18 94.33 M 38.69 95.76 C 35.69 97.59 32.56 99.71 31.01 102.98 C 31.73 104.99 33.97 106.07 35.19 107.82 C 39.17 112.23 39.98 118.44 39.58 124.15 C 41.93 124.43 44.99 125.92 46.85 123.74 C 49.44 120.04 49.81 115.35 49.65 110.96 C 49.72 105.99 49.41 100.67 46.59 96.41 C 44.80 93.77 41.07 94.30 38.69 95.76 M 197.25 98.53 C 199.88 105.70 200.25 114.15 196.43 120.96 C 197.96 121.97 199.43 123.12 201.15 123.81 C 203.07 123.71 204.24 121.90 205.42 120.61 C 209.51 114.31 209.72 105.16 204.53 99.42 C 202.57 97.43 199.65 97.47 197.25 98.53 M 170.20 99.25 C 164.46 101.79 159.43 107.50 159.50 114.08 C 159.37 119.62 164.50 124.52 169.98 124.45 C 177.02 124.71 182.94 117.26 181.46 110.47 C 180.78 106.54 179.45 102.44 176.43 99.67 C 174.74 98.01 172.17 98.42 170.20 99.25 M 67.04 102.50 C 66.98 109.81 64.74 117.16 60.26 122.98 C 61.52 124.58 62.64 126.39 64.35 127.56 C 66.67 128.77 69.29 128.11 71.70 127.64 C 76.17 123.73 80.97 118.43 79.73 111.98 C 78.22 106.46 72.74 102.55 67.04 102.50 M 23.25 105.51 C 19.34 107.21 15.55 110.51 15.60 115.14 C 15.45 119.59 14.75 125.18 18.45 128.46 C 21.43 131.46 26.04 131.43 29.96 131.21 C 33.90 130.99 37.10 127.74 37.61 123.89 C 38.44 117.85 36.80 111.04 32.13 106.85 C 29.76 104.76 26.13 104.02 23.25 105.51 M 203.00 125.56 C 203.66 127.51 204.81 129.54 207.00 130.01 C 210.79 131.45 214.54 128.79 216.82 125.93 C 219.10 122.94 221.13 119.01 219.77 115.19 C 218.31 111.15 214.66 108.49 210.58 107.48 C 209.98 113.96 208.97 121.71 203.00 125.56 M 9.05 119.78 C 9.05 144.76 8.99 169.73 9.09 194.71 C 85.70 194.68 162.30 194.67 238.91 194.72 C 239.03 169.73 238.92 144.74 238.97 119.76 C 233.42 119.74 227.88 119.67 222.34 119.79 C 219.85 125.18 216.29 131.23 209.98 132.42 C 205.84 133.03 202.81 129.76 201.51 126.21 C 198.96 125.39 196.64 124.02 194.98 121.89 C 190.45 123.59 185.50 122.36 181.48 119.94 C 179.42 122.46 176.97 124.65 174.14 126.27 C 170.51 126.30 166.56 126.75 163.32 124.76 C 161.16 123.65 160.04 121.42 158.38 119.77 C 132.90 119.63 107.42 119.80 81.94 119.69 C 80.07 119.35 79.64 121.61 78.78 122.75 C 76.17 127.45 70.73 132.00 65.04 130.11 C 61.81 129.24 60.41 125.80 58.95 123.12 C 55.89 123.45 52.88 122.73 50.06 121.59 C 49.05 123.65 48.31 126.16 46.07 127.25 C 43.53 127.56 41.14 126.32 38.66 125.95 C 36.74 133.47 27.39 134.88 21.07 132.58 C 16.02 130.59 13.07 124.96 13.48 119.66 C 12.00 119.70 10.53 119.74 9.05 119.78 Z" />
</g>
<g id="#ffddd1ff">
<path fill="#ffddd1" opacity="1.00" d=" M 162.14 22.76 C 164.62 24.66 164.80 28.09 164.79 30.96 C 164.34 39.72 159.77 47.54 154.50 54.29 C 154.07 54.87 153.66 55.47 153.27 56.07 C 153.43 52.93 155.21 50.21 156.31 47.34 C 159.72 39.63 163.37 31.39 162.14 22.76 Z" />
</g>
<g id="#b77811ff">
<path fill="#b77811" opacity="1.00" d=" M 154.42 34.37 C 156.21 30.54 157.88 26.34 161.40 23.74 C 162.27 35.28 155.44 45.33 152.06 55.95 C 151.24 57.94 151.37 60.62 149.23 61.74 C 149.01 61.00 148.58 59.52 148.36 58.78 C 148.31 59.68 148.44 60.55 148.74 61.39 C 151.42 68.32 155.48 74.58 158.83 81.17 C 160.88 85.04 160.68 89.54 160.75 93.78 C 157.77 92.55 154.72 91.48 151.60 90.65 C 152.59 89.31 153.64 88.00 154.49 86.56 C 154.22 85.34 153.68 84.20 153.27 83.03 C 154.05 82.89 155.61 82.62 156.38 82.49 C 152.89 81.12 149.18 82.85 147.89 86.33 C 149.31 85.26 150.67 84.09 152.02 82.93 C 152.46 83.68 153.34 85.20 153.77 85.95 C 152.92 87.45 151.96 88.89 150.65 90.02 C 150.63 90.32 150.59 90.91 150.57 91.20 C 156.00 92.88 161.75 95.38 164.93 100.34 C 159.48 104.22 156.04 111.04 157.80 117.74 C 151.53 117.36 145.19 118.21 138.97 117.31 C 143.35 112.58 148.60 107.82 149.92 101.24 C 147.99 96.50 142.59 95.01 137.95 94.67 C 130.11 94.31 122.52 97.67 116.47 102.48 C 114.92 103.58 114.10 105.31 113.42 107.03 C 115.41 111.89 120.07 114.59 124.02 117.68 C 119.01 117.70 114.01 117.69 109.00 117.70 C 107.50 117.83 106.11 117.29 104.80 116.63 C 100.72 118.82 95.70 117.38 91.24 117.46 C 94.51 110.56 100.73 105.57 107.50 102.33 C 103.87 100.50 102.28 96.71 102.53 92.78 C 102.99 92.36 103.91 91.52 104.37 91.10 C 104.96 91.14 106.14 91.23 106.73 91.28 C 106.98 91.66 107.48 92.44 107.73 92.82 C 107.64 92.18 107.48 90.90 107.40 90.25 C 103.22 89.13 100.52 92.62 98.83 95.88 C 99.60 95.13 101.14 93.61 101.91 92.86 C 100.17 97.09 103.19 99.98 105.86 102.62 C 101.99 104.18 98.61 106.62 95.29 109.09 C 94.99 103.06 93.70 96.96 94.85 90.95 C 97.16 84.50 101.74 79.25 105.21 73.43 C 105.87 72.11 107.18 70.69 106.10 69.11 C 107.82 69.35 109.60 69.20 111.28 69.70 C 114.24 66.27 117.68 63.26 121.83 61.34 C 122.79 62.78 122.68 64.20 121.52 65.61 C 117.90 65.48 115.32 68.57 113.35 71.19 C 111.45 74.29 109.14 78.40 111.30 81.94 C 113.31 84.94 117.67 84.37 120.48 82.92 C 120.85 82.89 121.60 82.84 121.97 82.81 C 122.76 82.99 124.33 83.34 125.12 83.51 C 125.69 83.18 126.84 82.53 127.41 82.21 C 127.15 80.95 126.90 79.70 126.66 78.45 C 126.53 77.77 126.42 77.08 126.32 76.40 C 126.54 72.42 126.68 67.12 122.44 65.11 C 123.82 63.77 125.41 62.57 126.36 60.86 C 127.00 59.00 125.44 57.89 124.24 56.81 C 126.58 55.68 128.92 54.57 131.31 53.57 C 131.85 54.76 130.46 58.08 132.68 57.61 C 134.08 56.21 135.11 52.54 137.60 54.45 C 140.46 55.47 141.69 59.31 144.65 59.66 C 145.75 56.59 143.02 54.01 143.27 50.98 C 143.43 47.37 143.98 43.71 145.30 40.32 C 146.97 36.78 151.15 35.84 154.42 34.37 M 134.51 59.84 C 129.02 62.14 127.39 69.21 128.68 74.53 C 129.23 77.53 131.88 79.30 133.65 81.54 C 135.40 81.25 137.17 81.00 138.91 80.62 L 138.88 80.21 L 139.79 80.10 C 144.74 77.47 146.54 70.75 143.97 65.86 C 142.29 62.39 138.68 58.90 134.51 59.84 M 144.90 80.84 C 142.96 83.35 139.72 83.27 136.85 83.48 C 139.21 83.77 141.89 84.44 144.05 83.09 C 145.98 81.58 146.09 78.84 145.58 76.64 C 145.29 78.03 145.08 79.43 144.90 80.84 M 106.98 81.22 C 108.87 84.46 111.40 87.50 114.79 89.23 C 118.45 90.41 121.68 87.46 124.00 85.00 C 121.13 86.28 118.42 89.29 115.02 88.21 C 111.76 86.67 109.67 83.52 106.98 81.22 M 151.25 111.14 C 149.92 111.13 148.49 113.18 150.14 113.91 C 152.14 115.04 153.85 111.08 151.25 111.14 Z" />
<path fill="#b77811" opacity="1.00" d=" M 47.31 94.26 C 51.63 90.54 60.16 88.63 63.63 94.34 C 65.91 98.60 65.09 103.78 64.65 108.41 C 63.75 112.99 62.32 118.58 57.62 120.63 C 55.35 121.81 52.88 120.54 50.60 120.06 C 51.33 111.40 52.66 101.82 47.31 94.26 Z" />
<path fill="#b77811" opacity="1.00" d=" M 38.69 95.76 C 41.07 94.30 44.80 93.77 46.59 96.41 C 49.41 100.67 49.72 105.99 49.65 110.96 C 49.81 115.35 49.44 120.04 46.85 123.74 C 44.99 125.92 41.93 124.43 39.58 124.15 C 39.98 118.44 39.17 112.23 35.19 107.82 C 33.97 106.07 31.73 104.99 31.01 102.98 C 32.56 99.71 35.69 97.59 38.69 95.76 Z" />
<path fill="#b77811" opacity="1.00" d=" M 170.20 99.25 C 172.17 98.42 174.74 98.01 176.43 99.67 C 179.45 102.44 180.78 106.54 181.46 110.47 C 182.94 117.26 177.02 124.71 169.98 124.45 C 164.50 124.52 159.37 119.62 159.50 114.08 C 159.43 107.50 164.46 101.79 170.20 99.25 Z" />
<path fill="#b77811" opacity="1.00" d=" M 23.25 105.51 C 26.13 104.02 29.76 104.76 32.13 106.85 C 36.80 111.04 38.44 117.85 37.61 123.89 C 37.10 127.74 33.90 130.99 29.96 131.21 C 26.04 131.43 21.43 131.46 18.45 128.46 C 14.75 125.18 15.45 119.59 15.60 115.14 C 15.55 110.51 19.34 107.21 23.25 105.51 Z" />
</g>
<g id="#8f63aaff">
<path fill="#8f63aa" opacity="1.00" d=" M 17.70 42.11 C 28.41 42.40 38.95 44.64 49.37 46.96 C 49.00 47.47 48.24 48.48 47.87 48.99 C 37.36 50.15 26.99 46.75 17.70 42.11 Z" />
</g>
<g id="#ba7911ff">
<path fill="#ba7911" opacity="1.00" d=" M 154.50 54.29 C 157.16 52.54 158.71 49.64 161.06 47.54 C 161.71 51.41 163.03 55.99 160.39 59.42 C 158.27 62.36 155.36 64.58 152.84 67.14 C 151.79 65.48 150.94 63.70 150.33 61.83 C 151.34 59.93 152.21 57.95 153.27 56.07 C 153.66 55.47 154.07 54.87 154.50 54.29 Z" />
</g>
<g id="#bb7911ff">
<path fill="#bb7911" opacity="1.00" d=" M 99.11 49.94 C 101.06 48.75 103.68 49.05 104.95 51.07 C 107.89 54.69 111.78 57.25 115.79 59.52 C 115.83 60.72 114.52 61.07 113.78 61.75 C 110.69 63.48 109.97 67.43 106.64 68.94 C 105.03 63.09 105.40 54.49 98.66 51.93 C 97.79 59.15 94.13 66.26 88.11 70.48 C 84.24 71.29 80.59 68.09 79.63 64.51 L 79.48 64.04 L 79.19 63.08 C 86.13 59.17 92.40 54.20 99.11 49.94 Z" />
</g>
<g id="#8c62a5ff">
<path fill="#8c62a5" opacity="1.00" d=" M 0.00 51.66 C 2.92 53.51 5.90 55.28 8.47 57.60 C 5.65 58.11 2.80 58.55 0.00 59.20 L 0.00 51.66 Z" />
</g>
<g id="#ffd4d8ff">
<path fill="#ffd4d8" opacity="1.00" d=" M 99.22 52.91 C 104.35 57.26 105.24 64.55 105.37 70.87 C 102.27 68.17 99.81 64.81 97.51 61.42 C 97.85 58.56 99.00 55.81 99.22 52.91 Z" />
</g>
<g id="#8e63aaff">
<path fill="#8e63aa" opacity="1.00" d=" M 13.34 58.01 C 23.17 56.02 33.26 56.05 43.25 56.30 C 42.08 58.37 41.08 60.53 40.02 62.65 C 34.74 63.48 29.14 65.11 23.89 63.21 C 20.21 61.85 16.48 60.42 13.34 58.01 Z" />
</g>
<g id="#8d64abff">
<path fill="#8d64ab" opacity="1.00" d=" M 0.00 60.20 C 3.62 59.87 7.25 58.48 10.88 58.89 C 15.10 60.79 19.07 63.32 23.63 64.42 C 28.82 66.13 34.23 64.42 39.45 63.80 C 38.80 65.18 38.20 66.59 37.63 68.00 C 25.13 67.19 12.27 65.25 0.00 68.80 L 0.00 60.20 Z" />
</g>
<g id="#030005ff">
<path fill="#030005" opacity="1.00" d=" M 134.51 59.84 C 138.68 58.90 142.29 62.39 143.97 65.86 C 146.54 70.75 144.74 77.47 139.79 80.10 C 141.50 78.18 143.45 76.20 143.92 73.56 C 145.30 68.44 142.06 62.52 136.97 61.03 C 133.21 60.35 130.46 63.91 129.66 67.18 C 128.27 71.22 129.16 75.66 131.60 79.11 C 132.67 76.84 134.71 76.24 137.01 76.58 C 137.18 77.37 137.53 78.95 137.70 79.74 C 138.00 79.86 138.59 80.10 138.88 80.21 L 138.91 80.62 C 137.17 81.00 135.40 81.25 133.65 81.54 C 131.88 79.30 129.23 77.53 128.68 74.53 C 127.39 69.21 129.02 62.14 134.51 59.84 Z" />
<path fill="#030005" opacity="1.00" d=" M 106.98 81.22 C 109.67 83.52 111.76 86.67 115.02 88.21 C 118.42 89.29 121.13 86.28 124.00 85.00 C 121.68 87.46 118.45 90.41 114.79 89.23 C 111.40 87.50 108.87 84.46 106.98 81.22 Z" />
</g>
<g id="#fcfefdff">
<path fill="#fcfefd" opacity="1.00" d=" M 129.66 67.18 C 130.46 63.91 133.21 60.35 136.97 61.03 C 142.06 62.52 145.30 68.44 143.92 73.56 C 143.45 76.20 141.50 78.18 139.79 80.10 L 138.88 80.21 C 138.59 80.10 138.00 79.86 137.70 79.74 C 137.53 78.95 137.18 77.37 137.01 76.58 C 134.71 76.24 132.67 76.84 131.60 79.11 C 129.16 75.66 128.27 71.22 129.66 67.18 Z" />
</g>
<g id="#b97713ff">
<path fill="#b97713" opacity="1.00" d=" M 96.09 62.50 C 99.35 65.37 101.95 68.88 105.12 71.84 C 104.73 72.56 103.94 74.00 103.55 74.71 C 102.91 74.84 101.63 75.11 100.99 75.24 C 99.27 75.20 97.55 75.13 95.83 75.09 L 95.12 74.93 C 95.00 70.76 94.99 66.55 96.09 62.50 Z" />
</g>
<g id="#6c555dff">
<path fill="#6c555d" opacity="1.00" d=" M 79.63 64.51 C 79.59 64.39 79.51 64.16 79.48 64.04 L 79.63 64.51 Z" />
</g>
<g id="#b594cfff">
<path fill="#b594cf" opacity="1.00" d=" M 0.00 68.80 C 12.27 65.25 25.13 67.19 37.63 68.00 C 37.39 68.60 37.16 69.21 36.94 69.82 C 24.77 67.82 12.06 66.86 0.00 70.02 L 0.00 68.80 Z" />
</g>
<g id="#fbfefdff">
<path fill="#fbfefd" opacity="1.00" d=" M 114.64 71.51 C 116.83 68.99 119.45 66.38 122.96 66.08 C 125.68 68.84 125.75 72.82 126.32 76.40 C 126.42 77.08 126.53 77.77 126.66 78.45 C 123.86 77.79 120.55 79.57 121.97 82.81 C 121.60 82.84 120.85 82.89 120.48 82.92 C 117.54 82.94 113.30 84.11 111.62 80.84 C 110.70 77.42 112.60 74.11 114.64 71.51 Z" />
</g>
<g id="#010407ff">
<path fill="#010407" opacity="1.00" d=" M 144.90 80.84 C 145.08 79.43 145.29 78.03 145.58 76.64 C 146.09 78.84 145.98 81.58 144.05 83.09 C 141.89 84.44 139.21 83.77 136.85 83.48 C 139.72 83.27 142.96 83.35 144.90 80.84 Z" />
<path fill="#010407" opacity="1.00" d=" M 121.97 82.81 C 120.55 79.57 123.86 77.79 126.66 78.45 C 126.90 79.70 127.15 80.95 127.41 82.21 C 126.84 82.53 125.69 83.18 125.12 83.51 C 124.33 83.34 122.76 82.99 121.97 82.81 Z" />
</g>
<g id="#ac87c9ff">
<path fill="#ac87c9" opacity="1.00" d=" M 239.06 101.90 C 240.10 97.16 244.56 94.51 248.00 91.58 L 248.00 93.67 C 245.55 96.01 242.62 97.99 240.90 100.98 C 238.49 106.03 239.47 111.79 239.01 117.08 C 238.74 116.94 238.19 116.65 237.92 116.50 C 237.19 111.64 237.93 106.65 239.06 101.90 Z" />
</g>
<g id="#b87711ff">
<path fill="#b87711" opacity="1.00" d=" M 186.18 94.33 C 191.34 92.86 195.28 97.99 196.62 102.36 C 198.11 108.01 197.91 114.62 194.51 119.57 C 191.03 121.59 186.70 120.26 183.22 118.88 C 182.94 117.23 183.39 115.56 183.43 113.91 C 183.71 109.77 181.72 105.97 180.97 101.98 C 181.48 98.94 183.10 95.44 186.18 94.33 Z" />
</g>
<g id="#b9780eff">
<path fill="#b9780e" opacity="1.00" d=" M 197.25 98.53 C 199.65 97.47 202.57 97.43 204.53 99.42 C 209.72 105.16 209.51 114.31 205.42 120.61 C 204.24 121.90 203.07 123.71 201.15 123.81 C 199.43 123.12 197.96 121.97 196.43 120.96 C 200.25 114.15 199.88 105.70 197.25 98.53 Z" />
<path fill="#b9780e" opacity="1.00" d=" M 203.00 125.56 C 208.97 121.71 209.98 113.96 210.58 107.48 C 214.66 108.49 218.31 111.15 219.77 115.19 C 221.13 119.01 219.10 122.94 216.82 125.93 C 214.54 128.79 210.79 131.45 207.00 130.01 C 204.81 129.54 203.66 127.51 203.00 125.56 Z" />
</g>
<g id="#b9780fff">
<path fill="#b9780f" opacity="1.00" d=" M 67.04 102.50 C 72.74 102.55 78.22 106.46 79.73 111.98 C 80.97 118.43 76.17 123.73 71.70 127.64 C 69.29 128.11 66.67 128.77 64.35 127.56 C 62.64 126.39 61.52 124.58 60.26 122.98 C 64.74 117.16 66.98 109.81 67.04 102.50 Z" />
</g>
<g id="#614311ff">
<path fill="#614311" opacity="1.00" d=" M 151.25 111.14 C 153.85 111.08 152.14 115.04 150.14 113.91 C 148.49 113.18 149.92 111.13 151.25 111.14 Z" />
</g>
<g id="#ffffffff">
<path fill="#ffffff" opacity="1.00" d=" M 9.05 119.78 C 10.53 119.74 12.00 119.70 13.48 119.66 C 13.07 124.96 16.02 130.59 21.07 132.58 C 27.39 134.88 36.74 133.47 38.66 125.95 C 41.14 126.32 43.53 127.56 46.07 127.25 C 48.31 126.16 49.05 123.65 50.06 121.59 C 52.88 122.73 55.89 123.45 58.95 123.12 C 60.41 125.80 61.81 129.24 65.04 130.11 C 70.73 132.00 76.17 127.45 78.78 122.75 C 79.64 121.61 80.07 119.35 81.94 119.69 C 107.42 119.80 132.90 119.63 158.38 119.77 C 160.04 121.42 161.16 123.65 163.32 124.76 C 166.56 126.75 170.51 126.30 174.14 126.27 C 176.97 124.65 179.42 122.46 181.48 119.94 C 185.50 122.36 190.45 123.59 194.98 121.89 C 196.64 124.02 198.96 125.39 201.51 126.21 C 202.81 129.76 205.84 133.03 209.98 132.42 C 216.29 131.23 219.85 125.18 222.34 119.79 C 227.88 119.67 233.42 119.74 238.97 119.76 C 238.92 144.74 239.03 169.73 238.91 194.72 C 162.30 194.67 85.70 194.68 9.09 194.71 C 8.99 169.73 9.05 144.76 9.05 119.78 M 127.05 137.99 C 125.66 139.57 123.69 140.65 122.80 142.63 C 124.18 142.62 125.56 142.61 126.94 142.59 C 127.00 148.77 126.69 154.97 127.03 161.15 C 127.12 164.44 129.65 167.41 133.04 167.50 C 136.88 168.57 140.13 165.16 143.82 165.60 C 144.20 165.86 144.98 166.40 145.36 166.66 C 155.39 170.33 167.31 163.63 170.22 153.54 C 171.34 150.02 171.26 145.69 168.70 142.81 C 170.79 142.43 172.92 142.27 175.04 142.52 C 176.07 148.95 175.40 155.51 175.50 161.99 C 175.68 164.49 173.04 165.52 171.55 166.99 C 175.88 167.01 180.22 166.81 184.55 166.97 C 186.76 168.33 185.63 164.03 184.24 166.21 C 182.74 164.99 179.99 164.41 180.29 161.95 C 180.19 157.31 180.27 152.66 180.24 148.02 C 179.97 145.81 181.64 144.22 182.86 142.62 C 185.51 142.17 188.26 141.19 190.90 142.32 C 193.44 143.07 194.38 145.72 195.79 147.68 C 195.95 153.00 195.63 158.33 196.05 163.64 C 195.26 165.10 193.49 165.70 192.44 166.96 C 197.09 166.93 201.74 167.03 206.38 166.91 C 205.32 165.21 203.04 165.52 201.48 164.58 C 199.94 162.73 200.76 160.14 200.57 157.95 C 200.40 152.49 201.54 146.00 197.31 141.70 C 193.17 136.99 185.05 137.77 181.46 142.78 C 181.12 142.81 180.45 142.88 180.11 142.92 C 180.19 141.14 180.25 139.35 180.29 137.58 C 176.22 139.51 171.98 141.26 167.42 141.58 C 165.94 140.16 164.07 139.05 162.00 138.80 C 151.54 137.14 140.61 145.54 139.62 156.11 C 139.37 158.80 139.82 161.77 141.66 163.87 C 138.54 165.15 132.94 166.56 131.88 162.03 C 131.40 155.58 131.83 149.10 131.63 142.63 C 134.68 142.61 137.72 142.59 140.76 142.59 C 141.42 141.20 142.08 139.82 142.73 138.43 C 139.18 139.82 135.33 139.43 131.61 139.50 C 131.73 137.09 131.80 134.67 131.75 132.25 C 130.03 134.04 128.71 136.15 127.05 137.99 M 23.77 140.69 C 16.39 145.18 14.05 156.42 19.72 163.14 C 23.62 168.30 31.38 168.77 36.82 165.93 C 38.74 164.68 41.29 163.43 41.38 160.81 C 38.13 162.65 34.94 165.56 30.88 164.63 C 22.96 163.06 19.18 153.13 22.17 146.07 C 23.13 142.80 26.40 140.03 29.94 140.79 C 33.88 141.06 36.43 144.22 38.93 146.87 C 39.16 144.68 39.55 142.33 38.76 140.23 C 34.21 137.69 28.20 137.95 23.77 140.69 M 43.54 145.46 C 42.53 148.21 46.70 148.16 48.35 148.71 C 48.23 146.55 47.26 144.27 48.18 142.17 C 50.33 139.90 53.94 140.30 56.51 141.61 C 59.67 144.03 58.83 148.43 58.91 151.89 C 54.45 152.72 49.67 153.32 45.90 156.04 C 42.29 158.40 42.27 164.84 46.31 166.79 C 50.68 168.76 55.66 166.93 59.27 164.22 C 60.26 165.16 61.24 166.09 62.22 167.04 C 64.88 167.47 67.82 167.41 69.89 165.44 C 68.15 165.05 66.20 165.27 64.64 164.33 C 63.00 160.07 63.92 155.42 63.73 150.99 C 63.61 147.70 64.31 143.81 61.83 141.18 C 56.41 136.33 45.80 138.12 43.54 145.46 M 66.96 141.51 C 68.48 142.07 70.06 142.47 71.60 143.00 C 72.33 144.56 72.28 146.33 72.35 148.02 C 72.39 157.00 72.30 165.99 72.39 174.97 C 72.47 176.94 72.14 178.88 71.67 180.79 C 70.46 181.40 69.25 182.04 68.09 182.77 C 71.37 183.30 74.69 182.87 77.99 183.07 C 79.99 183.08 82.11 183.38 83.94 182.40 C 81.63 181.62 78.09 181.95 77.38 178.96 C 76.66 174.63 77.19 170.18 77.13 165.81 C 80.58 167.26 84.45 168.27 88.15 167.18 C 95.71 165.03 99.95 156.29 98.38 148.86 C 97.69 143.68 93.31 138.89 87.94 138.65 C 83.74 138.08 79.99 140.60 77.07 143.34 C 77.11 141.30 77.12 139.26 77.11 137.23 C 74.03 139.32 70.47 140.41 66.96 141.51 M 214.09 139.06 C 204.02 142.33 201.19 157.08 208.91 164.14 C 213.35 168.79 221.05 168.57 226.06 164.98 C 227.60 163.85 229.75 162.75 229.42 160.46 C 226.09 162.64 222.21 165.47 218.01 164.05 C 211.97 162.59 208.94 155.91 209.12 150.14 C 215.92 149.87 222.73 150.40 229.53 149.97 L 228.69 148.67 L 229.01 148.41 C 227.90 141.71 220.69 136.70 214.09 139.06 M 105.37 140.35 C 102.22 142.27 100.82 146.76 103.05 149.90 C 106.25 154.33 112.51 154.11 116.27 157.71 C 119.73 161.10 115.39 166.87 111.10 165.89 C 106.09 165.95 103.53 160.89 102.46 156.70 C 99.92 158.76 101.83 162.60 101.52 165.40 C 105.44 166.35 109.36 168.40 113.48 167.37 C 117.84 166.60 121.67 162.53 121.38 157.99 C 121.58 154.03 117.65 151.66 114.39 150.51 C 111.24 149.16 107.06 148.46 105.51 145.01 C 104.99 140.25 111.47 138.99 114.66 141.27 C 117.27 142.10 117.24 145.71 119.89 146.38 C 119.63 144.29 119.92 141.98 119.05 140.04 C 114.80 138.16 109.42 137.73 105.37 140.35 Z" />
<path fill="#ffffff" opacity="1.00" d=" M 156.14 140.19 C 160.27 139.01 164.96 141.78 165.53 146.11 C 166.65 152.81 164.26 160.60 158.49 164.54 C 154.38 167.45 147.45 166.61 145.64 161.42 C 142.90 153.27 147.13 142.11 156.14 140.19 Z" />
<path fill="#ffffff" opacity="1.00" d=" M 80.46 142.47 C 84.34 140.73 89.24 141.80 91.76 145.30 C 95.17 149.81 95.71 156.31 93.33 161.40 C 90.32 167.51 79.65 167.32 77.31 160.75 C 76.73 156.56 77.19 152.29 77.07 148.07 C 76.68 145.62 78.47 143.59 80.46 142.47 Z" />
</g>
<g id="#8e63abff">
<path fill="#8e63ab" opacity="1.00" d=" M 0.00 126.61 C 1.66 130.29 4.31 133.42 6.03 137.06 C 6.72 141.07 6.19 145.17 6.05 149.20 C 3.95 147.50 1.86 145.77 0.00 143.79 L 0.00 126.61 Z" />
</g>
<g id="#51227bff">
<path fill="#51227b" opacity="1.00" d=" M 127.05 137.99 C 128.71 136.15 130.03 134.04 131.75 132.25 C 131.80 134.67 131.73 137.09 131.61 139.50 C 135.33 139.43 139.18 139.82 142.73 138.43 C 142.08 139.82 141.42 141.20 140.76 142.59 C 137.72 142.59 134.68 142.61 131.63 142.63 C 131.83 149.10 131.40 155.58 131.88 162.03 C 132.94 166.56 138.54 165.15 141.66 163.87 C 142.35 164.47 143.07 165.04 143.82 165.60 C 140.13 165.16 136.88 168.57 133.04 167.50 C 129.65 167.41 127.12 164.44 127.03 161.15 C 126.69 154.97 127.00 148.77 126.94 142.59 C 125.56 142.61 124.18 142.62 122.80 142.63 C 123.69 140.65 125.66 139.57 127.05 137.99 Z" />
</g>
<g id="#8f64abff">
<path fill="#8f64ab" opacity="1.00" d=" M 241.92 132.52 C 243.89 134.35 245.96 136.08 248.00 137.84 L 248.00 151.48 C 246.03 149.59 243.73 148.01 242.07 145.83 C 241.14 141.45 241.84 136.94 241.92 132.52 Z" />
<path fill="#8f64ab" opacity="1.00" d=" M 63.88 196.77 C 67.55 196.78 71.23 196.71 74.91 196.70 C 75.33 198.80 75.74 200.91 76.25 203.00 L 69.23 203.00 C 67.36 201.00 65.71 198.80 63.88 196.77 Z" />
</g>
<g id="#532380ff">
<path fill="#532380" opacity="1.00" d=" M 23.77 140.69 C 28.20 137.95 34.21 137.69 38.76 140.23 C 39.55 142.33 39.16 144.68 38.93 146.87 C 36.43 144.22 33.88 141.06 29.94 140.79 C 26.40 140.03 23.13 142.80 22.17 146.07 C 19.18 153.13 22.96 163.06 30.88 164.63 C 34.94 165.56 38.13 162.65 41.38 160.81 C 41.29 163.43 38.74 164.68 36.82 165.93 C 31.38 168.77 23.62 168.30 19.72 163.14 C 14.05 156.42 16.39 145.18 23.77 140.69 Z" />
</g>
<g id="#52217dff">
<path fill="#52217d" opacity="1.00" d=" M 43.54 145.46 C 45.80 138.12 56.41 136.33 61.83 141.18 C 64.31 143.81 63.61 147.70 63.73 150.99 C 63.92 155.42 63.00 160.07 64.64 164.33 C 66.20 165.27 68.15 165.05 69.89 165.44 C 67.82 167.41 64.88 167.47 62.22 167.04 C 61.24 166.09 60.26 165.16 59.27 164.22 C 55.66 166.93 50.68 168.76 46.31 166.79 C 42.27 164.84 42.29 158.40 45.90 156.04 C 49.67 153.32 54.45 152.72 58.91 151.89 C 58.83 148.43 59.67 144.03 56.51 141.61 C 53.94 140.30 50.33 139.90 48.18 142.17 C 47.26 144.27 48.23 146.55 48.35 148.71 C 46.70 148.16 42.53 148.21 43.54 145.46 M 48.02 161.05 C 47.99 165.19 53.46 166.68 56.50 164.59 C 60.46 162.25 58.46 157.06 58.98 153.34 C 54.58 153.70 47.57 155.43 48.02 161.05 Z" />
</g>
<g id="#51217cff">
<path fill="#51217c" opacity="1.00" d=" M 66.96 141.51 C 70.47 140.41 74.03 139.32 77.11 137.23 C 77.12 139.26 77.11 141.30 77.07 143.34 C 79.99 140.60 83.74 138.08 87.94 138.65 C 93.31 138.89 97.69 143.68 98.38 148.86 C 99.95 156.29 95.71 165.03 88.15 167.18 C 84.45 168.27 80.58 167.26 77.13 165.81 C 77.19 170.18 76.66 174.63 77.38 178.96 C 78.09 181.95 81.63 181.62 83.94 182.40 C 82.11 183.38 79.99 183.08 77.99 183.07 C 74.69 182.87 71.37 183.30 68.09 182.77 C 69.25 182.04 70.46 181.40 71.67 180.79 C 72.14 178.88 72.47 176.94 72.39 174.97 C 72.30 165.99 72.39 157.00 72.35 148.02 C 72.28 146.33 72.33 144.56 71.60 143.00 C 70.06 142.47 68.48 142.07 66.96 141.51 M 80.46 142.47 C 78.47 143.59 76.68 145.62 77.07 148.07 C 77.19 152.29 76.73 156.56 77.31 160.75 C 79.65 167.32 90.32 167.51 93.33 161.40 C 95.71 156.31 95.17 149.81 91.76 145.30 C 89.24 141.80 84.34 140.73 80.46 142.47 Z" />
</g>
<g id="#512078ff">
<path fill="#512078" opacity="1.00" d=" M 167.42 141.58 C 171.98 141.26 176.22 139.51 180.29 137.58 C 180.25 139.35 180.19 141.14 180.11 142.92 C 180.45 142.88 181.12 142.81 181.46 142.78 L 182.86 142.62 C 181.64 144.22 179.97 145.81 180.24 148.02 C 180.27 152.66 180.19 157.31 180.29 161.95 C 179.99 164.41 182.74 164.99 184.24 166.21 L 184.55 166.97 C 180.22 166.81 175.88 167.01 171.55 166.99 C 173.04 165.52 175.68 164.49 175.50 161.99 C 175.40 155.51 176.07 148.95 175.04 142.52 C 172.92 142.27 170.79 142.43 168.70 142.81 C 168.28 142.39 167.85 141.98 167.42 141.58 Z" />
</g>
<g id="#552381ff">
<path fill="#552381" opacity="1.00" d=" M 214.09 139.06 C 220.69 136.70 227.90 141.71 229.01 148.41 C 228.89 148.40 228.65 148.37 228.53 148.36 L 228.69 148.67 L 229.53 149.97 C 222.73 150.40 215.92 149.87 209.12 150.14 C 208.94 155.91 211.97 162.59 218.01 164.05 C 222.21 165.47 226.09 162.64 229.42 160.46 C 229.75 162.75 227.60 163.85 226.06 164.98 C 221.05 168.57 213.35 168.79 208.91 164.14 C 201.19 157.08 204.02 142.33 214.09 139.06 M 213.85 140.63 C 210.94 141.80 210.10 145.08 209.22 147.77 C 213.92 148.67 218.75 148.17 223.51 148.11 C 224.21 143.17 218.48 138.40 213.85 140.63 Z" />
</g>
<g id="#52227fff">
<path fill="#52227f" opacity="1.00" d=" M 105.37 140.35 C 109.42 137.73 114.80 138.16 119.05 140.04 C 119.92 141.98 119.63 144.29 119.89 146.38 C 117.24 145.71 117.27 142.10 114.66 141.27 C 111.47 138.99 104.99 140.25 105.51 145.01 C 107.06 148.46 111.24 149.16 114.39 150.51 C 117.65 151.66 121.58 154.03 121.38 157.99 C 121.67 162.53 117.84 166.60 113.48 167.37 C 109.36 168.40 105.44 166.35 101.52 165.40 C 101.83 162.60 99.92 158.76 102.46 156.70 C 103.53 160.89 106.09 165.95 111.10 165.89 C 115.39 166.87 119.73 161.10 116.27 157.71 C 112.51 154.11 106.25 154.33 103.05 149.90 C 100.82 146.76 102.22 142.27 105.37 140.35 Z" />
</g>
<g id="#e5191eff">
<path fill="#e5191e" opacity="1.00" d=" M 139.62 156.11 C 140.61 145.54 151.54 137.14 162.00 138.80 C 164.07 139.05 165.94 140.16 167.42 141.58 C 167.85 141.98 168.28 142.39 168.70 142.81 C 171.26 145.69 171.34 150.02 170.22 153.54 C 167.31 163.63 155.39 170.33 145.36 166.66 C 144.98 166.40 144.20 165.86 143.82 165.60 C 143.07 165.04 142.35 164.47 141.66 163.87 C 139.82 161.77 139.37 158.80 139.62 156.11 M 156.14 140.19 C 147.13 142.11 142.90 153.27 145.64 161.42 C 147.45 166.61 154.38 167.45 158.49 164.54 C 164.26 160.60 166.65 152.81 165.53 146.11 C 164.96 141.78 160.27 139.01 156.14 140.19 Z" />
</g>
<g id="#532281ff">
<path fill="#532281" opacity="1.00" d=" M 181.46 142.78 C 185.05 137.77 193.17 136.99 197.31 141.70 C 201.54 146.00 200.40 152.49 200.57 157.95 C 200.76 160.14 199.94 162.73 201.48 164.58 C 203.04 165.52 205.32 165.21 206.38 166.91 C 201.74 167.03 197.09 166.93 192.44 166.96 C 193.49 165.70 195.26 165.10 196.05 163.64 C 197.57 159.01 196.88 154.02 196.92 149.23 C 196.64 148.84 196.07 148.07 195.79 147.68 C 194.38 145.72 193.44 143.07 190.90 142.32 C 188.26 141.19 185.51 142.17 182.86 142.62 L 181.46 142.78 Z" />
</g>
<g id="#fcfefbff">
<path fill="#fcfefb" opacity="1.00" d=" M 213.85 140.63 C 218.48 138.40 224.21 143.17 223.51 148.11 C 218.75 148.17 213.92 148.67 209.22 147.77 C 210.10 145.08 210.94 141.80 213.85 140.63 Z" />
</g>
<g id="#8d66acff">
<path fill="#8d66ac" opacity="1.00" d=" M 0.00 145.81 C 1.93 147.65 4.16 149.16 5.90 151.19 C 6.81 155.10 6.18 159.17 6.12 163.14 C 4.08 163.14 2.04 163.14 0.00 163.14 L 0.00 145.81 Z" />
</g>
<g id="#360c6dff">
<path fill="#360c6d" opacity="1.00" d=" M 195.79 147.68 C 196.07 148.07 196.64 148.84 196.92 149.23 C 196.88 154.02 197.57 159.01 196.05 163.64 C 195.63 158.33 195.95 153.00 195.79 147.68 Z" />
</g>
<g id="#130039ff">
<path fill="#130039" opacity="1.00" d=" M 228.53 148.36 C 228.65 148.37 228.89 148.40 229.01 148.41 L 228.69 148.67 L 228.53 148.36 Z" />
</g>
<g id="#8a64aaff">
<path fill="#8a64aa" opacity="1.00" d=" M 241.90 148.72 C 243.95 149.94 246.02 151.16 248.00 152.51 L 248.00 164.18 C 245.97 163.71 243.92 163.34 241.88 162.97 C 241.65 158.22 241.64 153.46 241.90 148.72 Z" />
</g>
<g id="#fefcfaff">
<path fill="#fefcfa" opacity="1.00" d=" M 48.02 161.05 C 47.57 155.43 54.58 153.70 58.98 153.34 C 58.46 157.06 60.46 162.25 56.50 164.59 C 53.46 166.68 47.99 165.19 48.02 161.05 Z" />
</g>
<g id="#8c63a9ff">
<path fill="#8c63a9" opacity="1.00" d=" M 0.00 163.76 C 2.05 164.11 4.10 164.47 6.14 164.83 C 6.26 170.03 6.21 175.24 6.13 180.44 C 4.07 180.00 2.02 179.56 0.00 178.98 L 0.00 163.76 Z" />
</g>
<g id="#8f64a9ff">
<path fill="#8f64a9" opacity="1.00" d=" M 241.23 164.15 C 243.48 164.43 245.74 164.70 248.00 164.97 L 248.00 180.19 C 245.90 179.91 243.80 179.64 241.70 179.36 C 241.72 180.51 241.74 181.67 241.77 182.84 C 243.84 182.52 245.92 182.20 248.00 181.90 L 248.00 189.05 C 245.81 188.54 243.57 188.25 241.33 188.10 C 243.06 189.97 245.66 189.96 248.00 190.31 L 248.00 193.53 C 245.51 196.03 242.73 198.21 239.87 200.27 C 240.01 199.37 240.30 197.58 240.45 196.69 C 241.61 191.88 241.00 186.93 241.11 182.05 C 241.19 176.08 241.08 170.11 241.23 164.15 Z" />
</g>
<g id="#242039ff">
<path fill="#242039" opacity="1.00" d=" M 184.24 166.21 C 185.63 164.03 186.76 168.33 184.55 166.97 L 184.24 166.21 Z" />
</g>
<g id="#a88ac6ff">
<path fill="#a88ac6" opacity="1.00" d=" M 241.70 179.36 C 243.80 179.64 245.90 179.91 248.00 180.19 L 248.00 181.90 C 245.92 182.20 243.84 182.52 241.77 182.84 C 241.74 181.67 241.72 180.51 241.70 179.36 Z" />
</g>
<g id="#8b64a7ff">
<path fill="#8b64a7" opacity="1.00" d=" M 0.00 180.57 C 1.06 180.18 1.97 180.39 2.73 181.18 C 2.76 182.52 0.91 182.45 0.00 182.85 L 0.00 180.57 Z" />
<path fill="#8b64a7" opacity="1.00" d=" M 28.39 203.00 C 29.88 202.28 31.27 201.17 32.98 201.04 C 38.23 200.63 43.71 200.73 48.58 203.00 L 28.39 203.00 Z" />
</g>
<g id="#8f64aaff">
<path fill="#8f64aa" opacity="1.00" d=" M 0.00 184.09 C 2.19 183.12 4.48 182.39 6.77 181.71 C 7.01 186.65 6.58 191.64 7.38 196.55 C 11.01 196.71 14.64 196.77 18.27 196.76 C 15.08 197.97 12.28 200.00 10.56 203.00 L 0.00 203.00 L 0.00 202.34 C 2.26 200.53 4.60 198.82 6.88 197.02 C 6.69 196.80 6.33 196.36 6.14 196.14 C 4.13 197.74 2.05 199.24 0.00 200.79 L 0.00 189.20 C 1.99 189.15 4.25 190.03 6.08 189.04 C 4.49 187.60 1.98 188.24 0.00 187.85 L 0.00 184.09 Z" />
</g>
<g id="#b291ceff">
<path fill="#b291ce" opacity="1.00" d=" M 0.00 187.85 C 1.98 188.24 4.49 187.60 6.08 189.04 C 4.25 190.03 1.99 189.15 0.00 189.20 L 0.00 187.85 Z" />
</g>
<g id="#b189ccff">
<path fill="#b189cc" opacity="1.00" d=" M 241.33 188.10 C 243.57 188.25 245.81 188.54 248.00 189.05 L 248.00 190.31 C 245.66 189.96 243.06 189.97 241.33 188.10 Z" />
</g>
<g id="#aa89c6ff">
<path fill="#aa89c6" opacity="1.00" d=" M 239.87 200.27 C 242.73 198.21 245.51 196.03 248.00 193.53 L 248.00 195.67 C 245.11 198.07 242.23 200.47 239.45 203.00 L 237.80 203.00 C 237.85 200.90 237.91 198.80 237.96 196.71 C 238.58 196.70 239.83 196.69 240.45 196.69 C 240.30 197.58 240.01 199.37 239.87 200.27 Z" />
</g>
<g id="#ae8bc6ff">
<path fill="#ae8bc6" opacity="1.00" d=" M 18.27 196.76 C 19.72 196.75 21.17 196.74 22.61 196.76 C 18.94 198.37 14.99 199.78 12.37 203.00 L 10.56 203.00 C 12.28 200.00 15.08 197.97 18.27 196.76 Z" />
</g>
<g id="#aa86c4ff">
<path fill="#aa86c4" opacity="1.00" d=" M 61.50 196.73 C 62.09 196.74 63.28 196.76 63.88 196.77 C 65.71 198.80 67.36 201.00 69.23 203.00 L 66.48 203.00 C 64.72 200.99 63.12 198.85 61.50 196.73 Z" />
</g>
<g id="#ae90cbff">
<path fill="#ae90cb" opacity="1.00" d=" M 74.91 196.70 C 75.41 196.70 76.43 196.71 76.94 196.72 C 77.37 198.80 77.70 200.91 78.14 203.00 L 76.25 203.00 C 75.74 200.91 75.33 198.80 74.91 196.70 Z" />
</g>
<g id="#8d66a7ff">
<path fill="#8d66a7" opacity="1.00" d=" M 76.94 196.72 C 77.37 196.72 78.24 196.74 78.67 196.74 C 79.63 198.81 80.47 200.93 81.45 203.00 L 78.14 203.00 C 77.70 200.91 77.37 198.80 76.94 196.72 Z" />
</g>
<g id="#b08ec8ff">
<path fill="#b08ec8" opacity="1.00" d=" M 78.67 196.74 C 79.42 196.74 80.92 196.75 81.67 196.75 C 82.16 198.84 82.64 200.93 83.24 203.00 L 81.45 203.00 C 80.47 200.93 79.63 198.81 78.67 196.74 Z" />
</g>
<g id="#8f66acff">
<path fill="#8f66ac" opacity="1.00" d=" M 81.67 196.75 C 84.16 196.73 86.65 196.73 89.15 196.73 C 89.11 198.82 89.06 200.91 89.02 203.00 L 83.24 203.00 C 82.64 200.93 82.16 198.84 81.67 196.75 Z" />
</g>
<g id="#ae8dc9ff">
<path fill="#ae8dc9" opacity="1.00" d=" M 89.15 196.73 C 89.79 196.73 91.07 196.73 91.71 196.73 C 92.82 198.86 93.93 200.98 95.23 203.00 L 92.85 203.00 C 92.68 202.45 92.34 201.36 92.16 200.81 C 90.79 199.20 90.28 202.32 91.33 203.00 L 89.02 203.00 C 89.06 200.91 89.11 198.82 89.15 196.73 Z" />
</g>
<g id="#b995d3ff">
<path fill="#b995d3" opacity="1.00" d=" M 101.19 196.83 L 101.60 196.83 C 102.53 198.73 103.06 200.89 102.57 203.00 L 102.20 203.00 C 101.15 201.13 100.68 198.94 101.19 196.83 Z" />
</g>
<g id="#ad8ec8ff">
<path fill="#ad8ec8" opacity="1.00" d=" M 111.87 196.72 C 112.37 196.72 113.38 196.72 113.88 196.72 C 113.84 198.81 113.81 200.91 113.78 203.00 L 111.94 203.00 C 111.92 200.90 111.89 198.81 111.87 196.72 Z" />
</g>
<g id="#ab87c5ff">
<path fill="#ab87c5" opacity="1.00" d=" M 124.74 196.71 L 125.81 196.71 C 126.16 198.81 126.51 200.92 126.98 203.00 L 124.99 203.00 C 124.91 200.90 124.82 198.80 124.74 196.71 Z" />
</g>
<g id="#af89c7ff">
<path fill="#af89c7" opacity="1.00" d=" M 134.54 196.72 L 135.88 196.72 C 136.24 198.82 136.59 200.92 137.05 203.00 L 135.11 203.00 C 134.73 200.92 134.57 198.82 134.54 196.72 Z" />
</g>
<g id="#8e64a9ff">
<path fill="#8e64a9" opacity="1.00" d=" M 135.88 196.72 C 141.00 196.74 146.12 196.67 151.24 196.82 C 150.57 198.82 150.67 200.98 151.24 203.00 L 145.47 203.00 C 146.17 201.47 146.20 199.72 145.71 198.13 C 144.36 199.38 144.36 201.39 145.01 203.00 L 137.05 203.00 C 136.59 200.92 136.24 198.82 135.88 196.72 Z" />
</g>
<g id="#ab8ac8ff">
<path fill="#ab8ac8" opacity="1.00" d=" M 151.24 196.82 L 151.64 196.82 C 152.26 198.83 152.19 200.99 151.58 203.00 L 151.24 203.00 C 150.67 200.98 150.57 198.82 151.24 196.82 Z" />
</g>
<g id="#9066aaff">
<path fill="#9066aa" opacity="1.00" d=" M 151.64 196.82 C 152.99 196.79 154.34 196.75 155.69 196.73 C 158.18 198.24 161.26 199.69 161.55 203.00 L 151.58 203.00 C 152.19 200.99 152.26 198.83 151.64 196.82 Z" />
</g>
<g id="#a984c4ff">
<path fill="#a984c4" opacity="1.00" d=" M 155.69 196.73 C 157.15 196.71 158.61 196.70 160.07 196.70 C 161.68 198.57 162.82 200.75 163.78 203.00 L 161.55 203.00 C 161.26 199.69 158.18 198.24 155.69 196.73 Z" />
</g>
<g id="#8b62a8ff">
<path fill="#8b62a8" opacity="1.00" d=" M 160.07 196.70 C 161.93 196.71 163.79 196.71 165.65 196.71 C 166.77 198.83 167.87 200.96 169.13 203.00 L 163.78 203.00 C 162.82 200.75 161.68 198.57 160.07 196.70 Z" />
</g>
<g id="#a581beff">
<path fill="#a581be" opacity="1.00" d=" M 165.65 196.71 C 166.19 196.72 167.27 196.73 167.81 196.73 C 168.75 198.79 169.54 200.91 170.42 203.00 L 169.13 203.00 C 167.87 200.96 166.77 198.83 165.65 196.71 Z" />
</g>
<g id="#ad89c3ff">
<path fill="#ad89c3" opacity="1.00" d=" M 177.86 196.71 L 178.81 196.72 C 179.16 198.81 179.50 200.92 179.98 203.00 L 178.07 203.00 C 178.00 200.90 177.93 198.81 177.86 196.71 Z" />
</g>
<g id="#8d65a9ff">
<path fill="#8d65a9" opacity="1.00" d=" M 178.81 196.72 C 182.62 196.72 186.43 196.72 190.25 196.79 C 189.54 198.78 189.52 200.95 190.03 203.00 L 179.98 203.00 C 179.50 200.92 179.16 198.81 178.81 196.72 Z" />
<path fill="#8d65a9" opacity="1.00" d=" M 228.16 196.70 C 231.42 196.70 234.69 196.74 237.96 196.71 C 237.91 198.80 237.85 200.90 237.80 203.00 L 226.78 203.00 C 227.31 200.92 227.73 198.81 228.16 196.70 Z" />
</g>
<g id="#b995d4ff">
<path fill="#b995d4" opacity="1.00" d=" M 190.25 196.79 L 190.64 196.79 C 191.18 198.83 191.07 201.00 190.38 203.00 L 190.03 203.00 C 189.52 200.95 189.54 198.78 190.25 196.79 Z" />
</g>
<g id="#b693d1ff">
<path fill="#b693d1" opacity="1.00" d=" M 203.35 196.81 L 203.74 196.81 C 204.48 198.81 204.39 201.03 203.61 203.00 L 203.26 203.00 C 202.84 200.96 202.81 198.83 203.35 196.81 Z" />
</g>
<g id="#8e65a9ff">
<path fill="#8e65a9" opacity="1.00" d=" M 203.74 196.81 C 207.06 196.74 210.39 196.69 213.71 196.71 C 213.92 198.81 214.14 200.90 214.36 203.00 L 203.61 203.00 C 204.39 201.03 204.48 198.81 203.74 196.81 Z" />
</g>
<g id="#ac91caff">
<path fill="#ac91ca" opacity="1.00" d=" M 213.71 196.71 L 214.93 196.73 C 215.44 198.81 215.84 200.92 216.35 203.00 L 214.36 203.00 C 214.14 200.90 213.92 198.81 213.71 196.71 Z" />
</g>
<g id="#8e64acff">
<path fill="#8e64ac" opacity="1.00" d=" M 214.93 196.73 C 217.11 196.75 219.29 196.77 221.47 196.82 C 220.49 198.72 219.86 200.84 220.10 203.00 L 216.35 203.00 C 215.84 200.92 215.44 198.81 214.93 196.73 Z" />
</g>
<g id="#b391ceff">
<path fill="#b391ce" opacity="1.00" d=" M 221.47 196.82 L 221.86 196.82 C 222.32 198.99 221.72 201.20 220.47 203.00 L 220.10 203.00 C 219.86 200.84 220.49 198.72 221.47 196.82 Z" />
</g>
<g id="#8e63a8ff">
<path fill="#8e63a8" opacity="1.00" d=" M 221.86 196.82 C 223.27 196.79 224.68 196.77 226.09 196.74 C 225.66 198.82 225.33 200.92 224.89 203.00 L 220.47 203.00 C 221.72 201.20 222.32 198.99 221.86 196.82 Z" />
</g>
<g id="#ae8bcaff">
<path fill="#ae8bca" opacity="1.00" d=" M 226.09 196.74 C 226.61 196.73 227.64 196.71 228.16 196.70 C 227.73 198.81 227.31 200.92 226.78 203.00 L 224.89 203.00 C 225.33 200.92 225.66 198.82 226.09 196.74 Z" />
</g>
<g id="#b28dcbff">
<path fill="#b28dcb" opacity="1.00" d=" M 145.01 203.00 C 144.36 201.39 144.36 199.38 145.71 198.13 C 146.20 199.72 146.17 201.47 145.47 203.00 L 145.01 203.00 Z" />
</g>
<g id="#aa88c3ff">
<path fill="#aa88c3" opacity="1.00" d=" M 25.17 203.00 C 27.72 201.00 30.67 199.34 33.99 199.21 C 40.69 198.86 47.60 199.82 53.57 203.00 L 48.58 203.00 C 43.71 200.73 38.23 200.63 32.98 201.04 C 31.27 201.17 29.88 202.28 28.39 203.00 L 25.17 203.00 Z" />
</g>
<g id="#886ba3ff">
<path fill="#886ba3" opacity="1.00" d=" M 91.33 203.00 C 90.28 202.32 90.79 199.20 92.16 200.81 C 92.34 201.36 92.68 202.45 92.85 203.00 L 91.33 203.00 Z" />
</g>
</svg>
