<?xml version="1.0" encoding="UTF-8" ?>
<!DOCTYPE svg PUBLIC "-//W3C//DTD SVG 1.1//EN" "http://www.w3.org/Graphics/SVG/1.1/DTD/svg11.dtd">
<svg width="248pt" height="124pt" viewBox="0 0 248 124" version="1.1" xmlns="http://www.w3.org/2000/svg">
<g id="#ffffffff">
<path fill="#ffffff" opacity="1.00" d=" M 159.43 65.63 C 160.39 62.56 161.54 59.54 163.08 56.71 C 164.20 59.71 165.25 62.74 166.21 65.80 C 163.95 65.74 161.69 65.69 159.43 65.63 Z" />
</g>
<g id="#006fb9ff">
<path fill="#006fb9" opacity="1.00" d=" M 28.48 17.48 C 30.20 15.73 31.80 13.73 34.04 12.64 C 36.39 13.52 36.09 16.37 34.94 18.10 C 30.63 26.47 25.49 35.26 26.34 45.05 C 26.32 47.12 27.71 48.76 28.76 50.41 C 31.54 50.54 34.42 50.47 36.98 51.76 C 34.23 57.22 27.46 58.43 21.98 59.15 C 17.17 59.56 13.52 56.06 11.45 52.09 C 11.31 49.49 11.02 46.75 12.19 44.32 C 15.67 34.35 21.51 25.35 28.48 17.48 Z" />
<path fill="#006fb9" opacity="1.00" d=" M 115.62 19.01 C 123.53 17.33 131.86 23.85 131.92 31.98 C 132.69 40.03 125.06 47.48 117.01 46.44 C 108.71 46.59 102.32 37.83 104.17 29.96 C 105.22 24.40 109.93 19.67 115.62 19.01 M 113.51 25.71 C 107.88 29.49 109.64 40.43 116.97 40.75 C 122.44 41.82 126.85 36.15 125.60 31.02 C 125.06 25.42 118.02 22.61 113.51 25.71 Z" />
<path fill="#006fb9" opacity="1.00" d=" M 75.44 19.35 C 77.47 19.33 79.50 19.32 81.53 19.31 C 81.50 22.95 81.50 26.60 81.55 30.25 C 85.56 30.25 89.58 30.24 93.60 30.29 C 93.76 26.64 93.77 22.98 93.72 19.33 C 95.80 19.32 97.87 19.32 99.95 19.32 C 99.83 28.30 99.92 37.29 99.89 46.28 C 97.84 46.27 95.79 46.26 93.74 46.25 C 93.73 42.61 93.74 38.97 93.75 35.33 C 89.67 35.34 85.59 35.32 81.50 35.33 C 81.51 38.97 81.51 42.62 81.52 46.26 C 79.51 46.26 77.51 46.26 75.51 46.27 C 75.48 37.30 75.53 28.32 75.44 19.35 Z" />
<path fill="#006fb9" opacity="1.00" d=" M 135.55 19.33 C 140.99 19.59 146.61 18.59 151.91 20.10 C 161.38 23.53 162.80 38.22 154.73 43.84 C 148.97 47.31 141.97 45.98 135.60 46.31 C 135.54 37.32 135.61 28.32 135.55 19.33 M 141.62 24.14 C 141.63 29.89 141.62 35.63 141.64 41.38 C 144.90 41.35 148.61 41.58 151.22 39.23 C 154.58 35.71 154.60 29.32 151.03 25.94 C 148.41 23.72 144.79 24.22 141.62 24.14 Z" />
<path fill="#006fb9" opacity="1.00" d=" M 163.67 19.36 C 169.08 19.54 174.65 18.65 179.94 20.03 C 189.54 23.37 191.15 38.22 182.91 43.87 C 177.11 47.35 170.11 46.03 163.70 46.25 C 163.67 37.29 163.72 28.33 163.67 19.36 M 169.77 24.19 C 169.73 29.91 169.74 35.62 169.76 41.34 C 173.80 41.53 179.17 41.36 181.01 36.99 C 182.28 33.38 182.36 28.47 179.09 25.85 C 176.51 23.65 172.89 24.27 169.77 24.19 Z" />
<path fill="#006fb9" opacity="1.00" d=" M 192.04 19.32 C 197.94 19.30 203.84 19.34 209.74 19.29 C 209.75 20.91 209.77 22.54 209.79 24.17 C 205.95 24.15 202.11 24.15 198.26 24.14 C 198.26 26.00 198.26 27.86 198.27 29.72 C 201.98 29.74 205.70 29.74 209.41 29.73 C 209.42 31.38 209.43 33.03 209.44 34.68 C 205.72 34.68 202.00 34.69 198.28 34.67 C 198.27 36.89 198.27 39.11 198.28 41.33 C 202.32 41.31 206.36 41.30 210.41 41.34 C 210.05 42.90 211.06 45.25 209.36 46.18 C 203.60 46.43 197.84 46.16 192.08 46.28 C 192.09 37.29 192.07 28.31 192.04 19.32 Z" />
<path fill="#006fb9" opacity="1.00" d=" M 214.47 19.33 C 219.14 19.51 223.91 18.83 228.51 19.73 C 234.32 21.65 235.15 30.24 229.94 33.39 C 232.51 37.38 234.11 41.85 235.89 46.22 C 233.73 46.26 231.58 46.29 229.42 46.34 C 227.52 42.69 226.55 38.50 223.73 35.38 C 222.67 35.35 221.61 35.32 220.56 35.30 C 220.57 38.95 220.56 42.60 220.56 46.25 C 218.55 46.26 216.54 46.27 214.54 46.29 C 214.42 37.30 214.54 28.31 214.47 19.33 M 220.55 24.05 C 220.57 26.20 220.59 28.35 220.64 30.50 C 223.48 30.74 226.57 30.21 227.57 27.13 C 227.22 26.47 226.51 25.17 226.16 24.51 C 224.29 24.34 222.42 24.19 220.55 24.05 Z" />
<path fill="#006fb9" opacity="1.00" d=" M 87.84 82.62 C 129.21 82.51 170.60 82.12 211.97 82.68 C 220.38 82.82 228.85 82.59 237.17 83.96 C 225.82 85.17 214.35 84.20 202.98 85.17 C 173.98 85.44 144.98 85.37 115.98 85.26 C 112.28 85.16 108.49 85.64 104.87 84.61 C 96.21 83.17 87.33 84.69 78.60 83.84 C 81.67 83.40 84.75 83.01 87.84 82.62 Z" />
<path fill="#006fb9" opacity="1.00" d=" M 223.34 92.86 C 227.00 92.93 230.67 92.64 234.31 93.00 C 234.55 93.41 235.01 94.22 235.24 94.62 C 232.02 94.75 228.80 94.72 225.58 94.69 C 225.50 96.46 225.42 98.23 225.35 100.00 C 228.68 100.15 232.17 99.63 235.33 100.95 C 232.33 102.80 228.75 102.16 225.42 102.22 C 225.43 104.07 225.43 105.92 225.43 107.77 C 228.58 107.78 231.74 107.77 234.90 107.75 C 234.82 108.39 234.68 109.65 234.60 110.29 C 230.86 110.20 227.11 110.21 223.37 110.23 C 223.27 104.44 223.31 98.65 223.34 92.86 Z" />
<path fill="#006fb9" opacity="1.00" d=" M 75.47 93.13 L 77.46 92.51 C 77.53 97.60 77.49 102.69 77.50 107.78 C 80.40 107.78 83.31 107.78 86.22 107.78 C 86.35 108.27 86.60 109.26 86.72 109.75 C 82.97 110.37 79.15 110.28 75.36 110.21 C 75.38 104.52 75.10 98.82 75.47 93.13 Z" />
<path fill="#006fb9" opacity="1.00" d=" M 89.47 92.92 C 93.51 93.46 98.73 91.26 101.84 94.51 C 98.47 94.79 95.09 94.73 91.72 94.74 C 91.71 96.53 91.71 98.31 91.71 100.10 C 94.70 100.09 97.70 100.07 100.70 100.07 C 100.54 100.58 100.22 101.59 100.06 102.10 C 97.27 102.36 94.47 102.21 91.68 102.17 C 91.68 104.04 91.69 105.91 91.69 107.78 C 94.84 107.77 97.99 107.66 101.14 107.91 C 101.51 108.74 101.03 109.55 100.82 110.34 C 97.05 110.17 93.27 110.21 89.49 110.23 C 89.48 104.46 89.49 98.69 89.47 92.92 Z" />
<path fill="#006fb9" opacity="1.00" d=" M 107.53 99.60 C 108.49 97.19 109.10 94.50 110.94 92.57 C 113.16 92.94 113.48 95.29 114.25 97.00 C 115.87 101.41 117.89 105.69 119.01 110.27 C 118.44 110.26 117.30 110.24 116.73 110.23 C 116.15 108.38 115.56 106.53 114.99 104.68 C 112.65 104.66 110.30 104.64 107.96 104.62 C 107.04 106.72 106.10 108.81 105.11 110.88 L 103.79 109.68 C 104.67 106.20 106.37 102.99 107.53 99.60 M 108.36 102.66 C 110.26 102.68 112.17 102.69 114.07 102.69 C 113.20 100.17 112.28 97.66 111.32 95.16 C 110.34 97.66 109.39 100.18 108.36 102.66 Z" />
<path fill="#006fb9" opacity="1.00" d=" M 122.17 92.80 C 126.35 92.94 130.85 92.20 134.61 94.52 C 135.57 97.08 134.83 99.56 133.28 101.70 C 134.90 104.42 135.03 107.64 135.45 110.70 C 131.60 109.93 133.00 105.26 131.51 102.57 C 129.12 102.55 126.74 102.53 124.35 102.50 C 124.35 105.08 124.35 107.65 124.32 110.23 L 122.24 110.37 C 122.55 104.52 122.54 98.65 122.17 92.80 M 124.39 94.68 C 124.36 96.70 124.34 98.71 124.32 100.72 C 126.54 100.65 128.81 100.88 130.99 100.34 C 132.87 99.97 132.60 97.94 132.94 96.51 C 132.43 96.07 131.42 95.18 130.92 94.74 C 128.74 94.72 126.56 94.71 124.39 94.68 Z" />
<path fill="#006fb9" opacity="1.00" d=" M 139.50 93.19 C 139.89 93.05 140.69 92.78 141.09 92.64 C 144.84 96.69 147.20 101.79 150.50 106.20 C 150.65 101.74 150.58 97.29 150.60 92.84 C 151.12 92.84 152.17 92.85 152.70 92.85 C 152.71 98.67 152.77 104.48 152.60 110.30 C 152.14 110.28 151.22 110.24 150.75 110.22 C 147.57 105.71 144.73 100.97 141.57 96.45 C 141.46 101.05 141.55 105.66 141.45 110.26 C 140.96 110.27 139.96 110.29 139.47 110.30 C 139.46 104.59 139.27 98.88 139.50 93.19 Z" />
<path fill="#006fb9" opacity="1.00" d=" M 165.41 92.59 C 166.09 92.71 167.45 92.96 168.13 93.08 C 170.46 97.51 171.68 102.46 173.86 106.97 C 174.92 103.44 176.17 99.97 177.62 96.59 L 178.80 96.96 C 178.62 97.85 178.26 99.63 178.07 100.52 L 177.63 101.24 C 176.45 104.51 175.55 107.90 173.94 111.01 C 170.65 106.63 170.04 100.95 167.38 96.22 C 167.44 100.90 167.51 105.58 167.43 110.26 L 165.42 110.28 C 165.31 104.38 165.31 98.48 165.41 92.59 Z" />
<path fill="#006fb9" opacity="1.00" d=" M 178.60 93.60 C 179.39 93.30 180.98 92.70 181.78 92.40 C 181.60 98.53 181.65 104.67 181.70 110.80 L 179.84 110.03 C 180.28 104.52 180.20 98.93 178.60 93.60 Z" />
<path fill="#006fb9" opacity="1.00" d=" M 187.24 96.30 C 189.83 91.23 198.15 91.25 200.78 96.28 C 203.75 101.20 201.50 107.90 196.37 110.33 C 194.79 110.32 193.20 110.31 191.62 110.33 C 186.40 107.88 184.66 101.27 187.24 96.30 M 192.39 94.57 C 186.52 96.55 186.79 106.91 193.00 108.21 C 197.11 109.09 200.28 104.79 199.81 101.00 C 200.05 97.14 196.35 93.24 192.39 94.57 Z" />
<path fill="#006fb9" opacity="1.00" d=" M 205.86 93.76 C 208.66 91.93 212.68 92.92 215.90 93.23 C 219.69 94.27 219.43 99.14 217.10 101.52 C 217.48 102.28 217.87 103.05 218.26 103.81 C 218.55 106.08 218.92 108.33 219.32 110.59 C 214.82 110.66 217.70 104.94 215.11 102.85 C 212.90 102.24 210.55 102.58 208.28 102.49 C 208.05 105.39 209.11 108.77 206.87 111.12 C 204.85 105.58 206.02 99.53 205.86 93.76 M 208.31 94.66 C 208.27 96.68 208.24 98.70 208.22 100.73 C 211.01 100.36 216.28 101.93 216.71 97.81 C 216.55 93.49 211.13 94.95 208.31 94.66 Z" />
</g>
<g id="#99989eff">
<path fill="#99989e" opacity="1.00" d=" M 35.82 40.34 C 37.39 35.58 42.68 34.17 46.99 33.01 C 51.71 31.68 58.04 32.97 60.07 37.93 C 62.20 43.98 59.86 50.45 56.97 55.83 C 52.30 64.51 46.68 73.01 38.83 79.14 C 37.63 77.87 36.42 76.20 37.51 74.44 C 40.65 67.41 45.02 60.76 46.13 52.98 C 46.61 49.28 47.15 44.65 44.10 41.86 C 41.44 40.96 38.56 40.94 35.82 40.34 Z" />
<path fill="#99989e" opacity="1.00" d=" M 136.27 56.25 C 140.67 50.90 151.17 52.63 152.38 59.94 C 151.70 59.89 150.33 59.78 149.65 59.73 C 148.29 57.28 146.04 55.05 142.97 55.56 C 137.06 55.79 135.27 63.21 137.00 67.89 C 138.00 71.62 142.42 73.57 145.94 72.13 C 149.22 71.23 148.59 65.77 152.65 66.28 C 151.94 69.25 150.89 72.52 147.94 73.99 C 144.30 75.60 139.57 75.25 136.55 72.52 C 132.77 68.05 132.45 60.80 136.27 56.25 Z" />
<path fill="#99989e" opacity="1.00" d=" M 202.37 53.48 C 205.50 52.87 209.12 53.16 211.58 55.42 C 216.76 60.29 216.23 70.26 209.88 73.90 C 205.66 75.89 199.75 75.16 197.05 71.03 C 193.19 65.31 194.91 55.22 202.37 53.48 M 201.39 56.48 C 195.46 60.44 197.02 72.56 205.01 72.57 C 211.50 72.82 213.77 64.54 211.36 59.62 C 209.87 55.79 204.81 54.48 201.39 56.48 Z" />
<path fill="#99989e" opacity="1.00" d=" M 232.36 53.56 C 232.96 53.55 234.16 53.51 234.76 53.49 C 235.29 60.46 234.57 67.46 235.25 74.43 C 234.44 74.46 232.84 74.51 232.04 74.53 C 228.31 69.16 224.89 63.58 221.24 58.16 C 221.09 63.63 221.32 69.12 220.95 74.59 C 220.32 74.57 219.05 74.53 218.42 74.50 C 218.43 67.37 218.24 60.24 218.55 53.11 C 220.08 53.46 221.72 53.92 222.51 55.42 C 225.91 60.27 228.79 65.46 232.26 70.26 C 232.31 64.69 232.18 59.13 232.36 53.56 Z" />
<path fill="#99989e" opacity="1.00" d=" M 75.20 53.66 C 79.83 53.58 84.47 53.28 89.08 53.75 C 89.37 54.27 89.95 55.29 90.24 55.80 C 86.24 56.11 82.22 56.15 78.21 56.10 C 78.23 58.25 78.24 60.40 78.25 62.56 C 81.70 62.55 85.17 62.32 88.61 62.76 C 88.74 63.29 89.02 64.34 89.15 64.86 C 85.52 64.89 81.89 64.90 78.26 64.99 C 78.23 67.35 78.21 69.70 78.18 72.06 C 82.18 72.10 86.18 72.08 90.17 72.19 C 89.92 72.73 89.41 73.83 89.16 74.37 C 84.52 74.77 79.87 74.43 75.23 74.40 C 75.28 67.49 75.31 60.57 75.20 53.66 Z" />
<path fill="#99989e" opacity="1.00" d=" M 93.17 53.62 C 98.06 53.81 103.86 52.48 107.84 56.13 C 111.33 60.26 111.12 66.88 108.25 71.29 C 104.55 75.67 98.17 74.35 93.12 74.44 C 93.22 67.50 93.17 60.56 93.17 53.62 M 96.01 56.07 C 95.92 61.43 95.95 66.80 95.96 72.16 C 99.26 71.95 103.44 72.82 105.77 69.84 C 108.10 66.48 108.29 61.46 105.92 58.07 C 103.47 55.24 99.29 56.33 96.01 56.07 Z" />
<path fill="#99989e" opacity="1.00" d=" M 113.51 53.52 C 114.20 53.54 115.59 53.56 116.29 53.57 C 116.46 58.61 115.97 63.68 116.53 68.69 C 117.36 73.96 126.67 73.90 127.35 68.54 C 127.83 63.45 127.36 58.33 127.60 53.23 C 128.24 53.43 129.51 53.85 130.15 54.05 C 130.43 59.03 130.48 64.04 130.12 69.01 C 129.09 77.19 114.69 77.01 113.65 68.98 C 113.24 63.84 113.60 58.67 113.51 53.52 Z" />
<path fill="#99989e" opacity="1.00" d=" M 153.21 74.73 C 156.10 67.68 158.28 60.26 161.80 53.52 C 164.80 52.43 165.25 55.84 166.20 57.80 C 168.32 63.46 170.53 69.08 172.71 74.72 C 168.60 75.49 168.40 70.81 167.07 68.15 C 164.20 68.20 161.32 68.23 158.45 68.27 C 157.22 70.84 157.16 75.34 153.21 74.73 M 159.43 65.63 C 161.69 65.69 163.95 65.74 166.21 65.80 C 165.25 62.74 164.20 59.71 163.08 56.71 C 161.54 59.54 160.39 62.56 159.43 65.63 Z" />
<path fill="#99989e" opacity="1.00" d=" M 169.80 53.85 C 175.23 53.45 180.71 53.35 186.14 53.78 C 186.29 54.36 186.59 55.50 186.74 56.07 C 184.36 56.08 181.98 56.07 179.60 56.05 C 179.46 62.16 179.93 68.28 179.38 74.37 C 178.71 74.45 177.37 74.61 176.70 74.69 C 176.70 68.51 176.67 62.32 176.73 56.14 C 174.55 55.53 168.84 57.59 169.80 53.85 Z" />
<path fill="#99989e" opacity="1.00" d=" M 188.94 54.07 C 189.56 53.83 190.80 53.34 191.43 53.09 C 191.75 60.22 191.53 67.36 191.58 74.50 C 190.94 74.53 189.65 74.59 189.01 74.62 C 188.68 67.78 188.59 60.90 188.94 54.07 Z" />
<path fill="#99989e" opacity="1.00" d=" M 75.17 83.32 C 79.15 81.74 83.67 83.27 87.87 82.61 L 87.84 82.62 C 84.75 83.01 81.67 83.40 78.60 83.84 C 87.33 84.69 96.21 83.17 104.87 84.61 C 100.35 86.01 95.61 84.61 90.99 84.78 C 85.79 84.63 80.40 85.66 75.31 84.59 C 75.28 84.27 75.21 83.64 75.17 83.32 Z" />
<path fill="#99989e" opacity="1.00" d=" M 122.24 110.37 C 121.40 104.57 121.54 98.62 122.17 92.80 C 122.54 98.65 122.55 104.52 122.24 110.37 Z" />
<path fill="#99989e" opacity="1.00" d=" M 178.49 93.09 L 178.60 93.60 C 180.20 98.93 180.28 104.52 179.84 110.03 C 178.38 106.98 180.47 103.34 178.07 100.52 C 178.26 99.63 178.62 97.85 178.80 96.96 L 177.62 96.59 L 177.33 96.50 C 177.71 95.36 178.10 94.23 178.49 93.09 Z" />
<path fill="#99989e" opacity="1.00" d=" M 181.78 92.40 C 182.51 98.48 182.61 104.74 181.70 110.80 C 181.65 104.67 181.60 98.53 181.78 92.40 Z" />
</g>
</svg>
