<?xml version="1.0" encoding="UTF-8" ?>
<!DOCTYPE svg PUBLIC "-//W3C//DTD SVG 1.1//EN" "http://www.w3.org/Graphics/SVG/1.1/DTD/svg11.dtd">
<svg width="96pt" height="96pt" viewBox="0 0 96 96" version="1.1" xmlns="http://www.w3.org/2000/svg">
<g id="#feffffff">
</g>
<g id="#767a80ff">
<path fill="#767a80" opacity="1.00" d=" M 13.56 6.59 C 16.09 2.35 21.25 0.65 25.97 0.95 C 36.31 1.38 46.65 0.83 56.99 1.12 C 62.75 1.18 68.54 0.44 74.27 1.26 C 73.79 1.55 72.82 2.14 72.33 2.43 C 56.23 2.34 40.13 2.38 24.04 2.38 C 18.28 2.13 12.82 7.14 13.00 12.97 C 13.00 34.84 13.00 56.72 13.01 78.60 L 11.83 78.59 C 11.69 58.07 11.79 37.55 11.75 17.02 C 11.81 13.50 11.42 9.64 13.56 6.59 Z" />
</g>
<g id="#fdfeffff">
<path fill="#fdfeff" opacity="1.00" d=" M 74.27 1.26 C 75.10 1.34 75.92 1.46 76.74 1.63 L 75.46 1.77 C 75.36 1.97 75.16 2.35 75.06 2.54 C 77.51 3.73 80.13 5.03 81.41 7.59 C 83.50 10.67 82.94 14.51 83.00 18.02 C 83.02 38.23 82.95 58.45 83.02 78.66 C 59.69 78.51 36.35 78.69 13.01 78.60 C 13.00 56.72 13.00 34.84 13.00 12.97 C 12.82 7.14 18.28 2.13 24.04 2.38 C 40.13 2.38 56.23 2.34 72.33 2.43 C 72.82 2.14 73.79 1.55 74.27 1.26 M 37.70 11.45 C 38.26 16.01 37.12 20.74 38.49 25.19 C 39.83 25.70 41.15 26.25 42.48 26.79 C 44.07 27.56 45.68 28.30 47.29 29.05 C 47.26 24.33 47.42 19.61 47.25 14.90 C 46.72 14.74 45.66 14.41 45.12 14.25 C 43.22 13.19 41.24 12.30 39.33 11.25 C 38.92 11.30 38.11 11.40 37.70 11.45 M 48.54 14.82 C 48.47 19.57 48.52 24.32 48.50 29.08 C 51.50 27.75 54.46 26.31 57.52 25.11 C 57.89 20.42 57.67 15.70 57.70 10.99 C 54.55 12.06 51.82 14.12 48.54 14.82 M 28.31 30.13 C 27.02 34.63 28.03 39.41 27.58 44.02 C 31.46 45.48 35.29 49.16 39.64 47.81 C 42.76 47.36 46.25 46.25 48.22 43.65 L 48.60 44.42 C 51.74 45.43 54.61 47.07 57.68 48.23 L 58.95 48.42 C 62.01 46.92 65.13 45.57 68.20 44.11 C 68.50 43.79 69.10 43.15 69.40 42.83 C 68.93 38.58 69.93 34.07 68.18 30.04 C 65.27 31.94 60.89 32.19 58.97 35.16 C 58.56 34.92 57.74 34.44 57.33 34.20 C 54.77 32.85 52.12 31.68 49.48 30.51 L 50.09 30.47 C 48.84 30.46 47.58 30.46 46.33 30.46 C 44.87 31.20 43.39 31.89 41.89 32.53 C 40.39 33.09 39.10 34.07 37.74 34.89 C 34.98 32.56 31.34 31.97 28.31 30.13 M 18.04 55.55 C 19.05 55.99 20.11 56.29 21.21 56.46 C 22.22 61.32 21.53 66.32 21.63 71.24 C 21.73 73.01 20.45 73.88 18.75 73.83 C 21.37 75.05 24.62 73.92 27.48 74.36 C 27.49 74.18 27.51 73.81 27.53 73.63 C 26.89 73.55 25.63 73.41 25.00 73.34 C 24.04 68.35 24.57 63.19 24.63 58.14 C 24.50 56.15 26.81 56.04 28.12 55.30 C 24.76 55.49 21.39 55.25 18.04 55.55 M 28.93 55.39 C 29.90 55.82 30.90 56.18 31.91 56.53 C 32.35 62.08 32.48 67.69 31.83 73.22 C 31.36 73.37 30.42 73.68 29.95 73.83 C 30.10 73.94 30.41 74.16 30.56 74.27 C 35.07 74.07 39.76 75.09 44.08 73.38 C 44.76 72.53 45.45 71.68 46.14 70.83 C 46.19 70.10 46.28 68.65 46.32 67.93 C 44.83 65.88 42.87 64.23 40.16 64.32 C 42.84 63.36 44.85 61.13 44.06 58.15 C 43.36 57.43 42.65 56.70 41.96 55.97 C 37.71 54.73 33.27 55.61 28.93 55.39 M 47.73 55.74 C 49.07 56.22 51.61 55.98 51.30 58.11 C 51.30 63.11 51.40 68.12 51.10 73.12 C 50.04 73.46 48.97 73.80 47.90 74.15 C 51.16 74.31 54.42 74.39 57.67 74.15 C 56.96 73.92 55.54 73.46 54.83 73.23 C 53.80 67.73 54.20 61.93 54.71 56.37 C 55.47 56.30 56.99 56.17 57.75 56.10 C 57.53 55.89 57.09 55.48 56.87 55.27 C 53.82 55.71 50.72 54.95 47.73 55.74 M 58.97 55.16 C 59.77 55.85 60.69 56.33 61.72 56.60 C 61.58 62.17 61.82 67.74 61.66 73.31 C 60.97 73.44 59.61 73.71 58.92 73.84 C 60.10 74.72 61.65 74.20 62.99 74.31 C 66.69 74.11 70.64 75.05 74.07 73.21 C 79.76 70.08 79.80 60.94 74.61 57.29 C 70.12 53.79 64.14 55.92 58.97 55.16 Z" />
</g>
<g id="#5a5e61ff">
<path fill="#5a5e61" opacity="1.00" d=" M 75.06 2.54 C 75.16 2.35 75.36 1.97 75.46 1.77 L 76.74 1.63 C 80.34 3.98 83.93 7.38 84.01 11.99 C 84.06 34.24 83.98 56.50 84.07 78.75 L 83.02 78.66 C 82.95 58.45 83.02 38.23 83.00 18.02 C 82.94 14.51 83.50 10.67 81.41 7.59 C 80.13 5.03 77.51 3.73 75.06 2.54 Z" />
</g>
<g id="#143d87ff">
<path fill="#143d87" opacity="1.00" d=" M 37.70 11.45 C 38.11 11.40 38.92 11.30 39.33 11.25 C 41.24 12.30 43.22 13.19 45.12 14.25 C 45.82 17.99 45.89 21.81 45.79 25.61 C 44.68 26.00 43.58 26.40 42.48 26.79 C 41.15 26.25 39.83 25.70 38.49 25.19 C 37.12 20.74 38.26 16.01 37.70 11.45 Z" />
</g>
<g id="#173b86ff">
<path fill="#173b86" opacity="1.00" d=" M 48.54 14.82 C 51.82 14.12 54.55 12.06 57.70 10.99 C 57.67 15.70 57.89 20.42 57.52 25.11 C 54.46 26.31 51.50 27.75 48.50 29.08 C 48.52 24.32 48.47 19.57 48.54 14.82 Z" />
</g>
<g id="#182c62ff">
<path fill="#182c62" opacity="1.00" d=" M 45.12 14.25 C 45.66 14.41 46.72 14.74 47.25 14.90 C 47.42 19.61 47.26 24.33 47.29 29.05 C 45.68 28.30 44.07 27.56 42.48 26.79 C 43.58 26.40 44.68 26.00 45.79 25.61 C 45.89 21.81 45.82 17.99 45.12 14.25 Z" />
</g>
<g id="#b5a23aff">
<path fill="#b5a23a" opacity="1.00" d=" M 28.31 30.13 C 31.34 31.97 34.98 32.56 37.74 34.89 C 37.64 35.58 37.44 36.95 37.34 37.63 C 34.95 36.18 33.39 31.52 30.19 32.99 C 29.51 36.10 29.07 39.32 29.44 42.50 C 30.77 44.01 32.71 44.60 34.63 44.90 C 35.48 42.91 36.35 40.94 37.17 38.94 C 38.05 41.39 39.08 44.46 36.43 46.42 C 37.48 46.61 38.54 46.61 39.59 46.39 C 39.25 45.36 38.58 43.31 38.25 42.29 C 40.37 44.15 43.65 45.12 45.75 42.67 C 47.31 39.68 46.45 36.05 46.34 32.81 C 44.86 32.70 43.38 32.61 41.89 32.53 C 43.39 31.89 44.87 31.20 46.33 30.46 C 47.58 30.46 48.84 30.46 50.09 30.47 L 49.48 30.51 L 48.81 30.56 L 48.23 30.70 L 47.10 31.00 C 46.99 35.33 47.11 39.67 47.15 44.00 C 44.58 45.14 42.09 46.44 39.64 47.81 C 35.29 49.16 31.46 45.48 27.58 44.02 C 28.03 39.41 27.02 34.63 28.31 30.13 Z" />
</g>
<g id="#a22765ff">
<path fill="#a22765" opacity="1.00" d=" M 58.97 35.16 C 60.89 32.19 65.27 31.94 68.18 30.04 C 67.93 34.72 67.93 39.42 68.20 44.11 C 65.13 45.57 62.01 46.92 58.95 48.42 C 59.01 45.50 59.11 42.57 59.14 39.65 C 59.81 41.37 60.56 43.05 61.29 44.73 C 63.18 43.99 65.43 43.56 66.66 41.78 C 67.00 38.77 66.47 35.75 66.04 32.77 C 63.43 33.81 61.20 35.52 59.05 37.29 C 59.03 36.76 58.99 35.70 58.97 35.16 Z" />
</g>
<g id="#fbc3e7ff">
<path fill="#fbc3e7" opacity="1.00" d=" M 68.18 30.04 C 69.93 34.07 68.93 38.58 69.40 42.83 C 69.10 43.15 68.50 43.79 68.20 44.11 C 67.93 39.42 67.93 34.72 68.18 30.04 Z" />
</g>
<g id="#f2d291ff">
<path fill="#f2d291" opacity="1.00" d=" M 47.10 31.00 L 48.23 30.70 C 47.96 35.01 47.86 39.34 48.22 43.65 C 46.25 46.25 42.76 47.36 39.64 47.81 C 42.09 46.44 44.58 45.14 47.15 44.00 C 47.11 39.67 46.99 35.33 47.10 31.00 Z" />
</g>
<g id="#e9808eff">
<path fill="#e9808e" opacity="1.00" d=" M 48.23 30.70 L 48.81 30.56 C 49.01 35.17 49.22 39.82 48.60 44.42 L 48.22 43.65 C 47.86 39.34 47.96 35.01 48.23 30.70 Z" />
</g>
<g id="#a32060ff">
<path fill="#a32060" opacity="1.00" d=" M 48.81 30.56 L 49.48 30.51 C 52.12 31.68 54.77 32.85 57.33 34.20 C 57.34 34.75 57.35 35.85 57.36 36.40 C 55.07 35.16 52.72 34.02 50.33 32.99 C 49.93 35.93 49.39 38.97 50.11 41.92 C 50.39 44.46 53.60 44.04 55.46 44.69 C 56.05 43.75 56.65 42.81 57.25 41.87 C 57.25 43.99 57.37 46.12 57.68 48.23 C 54.61 47.07 51.74 45.43 48.60 44.42 C 49.22 39.82 49.01 35.17 48.81 30.56 Z" />
</g>
<g id="#c5a200ff">
<path fill="#c5a200" opacity="1.00" d=" M 30.19 32.99 C 33.39 31.52 34.95 36.18 37.34 37.63 C 37.30 37.96 37.21 38.62 37.17 38.94 C 36.35 40.94 35.48 42.91 34.63 44.90 C 32.71 44.60 30.77 44.01 29.44 42.50 C 29.07 39.32 29.51 36.10 30.19 32.99 Z" />
</g>
<g id="#c4a308ff">
<path fill="#c4a308" opacity="1.00" d=" M 37.74 34.89 C 39.10 34.07 40.39 33.09 41.89 32.53 C 43.38 32.61 44.86 32.70 46.34 32.81 C 46.45 36.05 47.31 39.68 45.75 42.67 C 43.65 45.12 40.37 44.15 38.25 42.29 C 38.58 43.31 39.25 45.36 39.59 46.39 C 38.54 46.61 37.48 46.61 36.43 46.42 C 39.08 44.46 38.05 41.39 37.17 38.94 C 37.21 38.62 37.30 37.96 37.34 37.63 C 37.44 36.95 37.64 35.58 37.74 34.89 Z" />
</g>
<g id="#c50469ff">
<path fill="#c50469" opacity="1.00" d=" M 50.33 32.99 C 52.72 34.02 55.07 35.16 57.36 36.40 C 57.34 38.22 57.27 40.04 57.25 41.87 C 56.65 42.81 56.05 43.75 55.46 44.69 C 53.60 44.04 50.39 44.46 50.11 41.92 C 49.39 38.97 49.93 35.93 50.33 32.99 Z" />
</g>
<g id="#c7016bff">
<path fill="#c7016b" opacity="1.00" d=" M 59.05 37.29 C 61.20 35.52 63.43 33.81 66.04 32.77 C 66.47 35.75 67.00 38.77 66.66 41.78 C 65.43 43.56 63.18 43.99 61.29 44.73 C 60.56 43.05 59.81 41.37 59.14 39.65 C 59.12 39.06 59.07 37.88 59.05 37.29 Z" />
</g>
<g id="#ef70b5ff">
<path fill="#ef70b5" opacity="1.00" d=" M 57.33 34.20 C 57.74 34.44 58.56 34.92 58.97 35.16 C 58.99 35.70 59.03 36.76 59.05 37.29 C 59.07 37.88 59.12 39.06 59.14 39.65 C 59.11 42.57 59.01 45.50 58.95 48.42 L 57.68 48.23 C 57.37 46.12 57.25 43.99 57.25 41.87 C 57.27 40.04 57.34 38.22 57.36 36.40 C 57.35 35.85 57.34 34.75 57.33 34.20 Z" />
</g>
<g id="#162d64ff">
<path fill="#162d64" opacity="1.00" d=" M 18.04 55.55 C 21.39 55.25 24.76 55.49 28.12 55.30 C 26.81 56.04 24.50 56.15 24.63 58.14 C 24.57 63.19 24.04 68.35 25.00 73.34 C 25.63 73.41 26.89 73.55 27.53 73.63 C 27.51 73.81 27.49 74.18 27.48 74.36 C 24.62 73.92 21.37 75.05 18.75 73.83 C 20.45 73.88 21.73 73.01 21.63 71.24 C 21.53 66.32 22.22 61.32 21.21 56.46 C 20.11 56.29 19.05 55.99 18.04 55.55 Z" />
<path fill="#162d64" opacity="1.00" d=" M 28.93 55.39 C 33.27 55.61 37.71 54.73 41.96 55.97 C 42.65 56.70 43.36 57.43 44.06 58.15 C 44.85 61.13 42.84 63.36 40.16 64.32 C 42.87 64.23 44.83 65.88 46.32 67.93 C 46.28 68.65 46.19 70.10 46.14 70.83 C 45.45 71.68 44.76 72.53 44.08 73.38 C 39.76 75.09 35.07 74.07 30.56 74.27 C 30.41 74.16 30.10 73.94 29.95 73.83 C 30.42 73.68 31.36 73.37 31.83 73.22 C 32.48 67.69 32.35 62.08 31.91 56.53 C 30.90 56.18 29.90 55.82 28.93 55.39 M 35.10 56.44 C 35.15 59.09 35.21 61.75 35.33 64.40 C 38.27 64.49 42.05 62.50 41.04 59.05 C 40.69 56.14 37.37 55.95 35.10 56.44 M 35.17 65.05 C 35.26 67.44 34.90 69.94 35.57 72.26 C 37.05 74.74 40.58 73.66 42.18 71.88 C 42.92 69.96 43.29 67.00 41.19 65.77 C 39.47 64.36 37.18 65.09 35.17 65.05 Z" />
<path fill="#162d64" opacity="1.00" d=" M 47.73 55.74 C 50.72 54.95 53.82 55.71 56.87 55.27 C 57.09 55.48 57.53 55.89 57.75 56.10 C 56.99 56.17 55.47 56.30 54.71 56.37 C 54.20 61.93 53.80 67.73 54.83 73.23 C 55.54 73.46 56.96 73.92 57.67 74.15 C 54.42 74.39 51.16 74.31 47.90 74.15 C 48.97 73.80 50.04 73.46 51.10 73.12 C 51.40 68.12 51.30 63.11 51.30 58.11 C 51.61 55.98 49.07 56.22 47.73 55.74 Z" />
</g>
<g id="#2d3f64ff">
<path fill="#2d3f64" opacity="1.00" d=" M 58.97 55.16 C 64.14 55.92 70.12 53.79 74.61 57.29 C 79.80 60.94 79.76 70.08 74.07 73.21 C 70.64 75.05 66.69 74.11 62.99 74.31 C 61.65 74.20 60.10 74.72 58.92 73.84 C 59.61 73.71 60.97 73.44 61.66 73.31 C 62.98 67.93 62.67 62.04 61.72 56.60 C 60.69 56.33 59.77 55.85 58.97 55.16 M 65.18 56.36 C 65.29 61.75 65.12 67.15 65.30 72.54 C 68.30 74.58 72.53 73.45 74.19 70.26 C 75.67 66.65 75.21 62.34 73.40 58.92 C 71.27 56.60 68.21 55.94 65.18 56.36 Z" />
</g>
<g id="#fbfeffff">
<path fill="#fbfeff" opacity="1.00" d=" M 35.10 56.44 C 37.37 55.95 40.69 56.14 41.04 59.05 C 42.05 62.50 38.27 64.49 35.33 64.40 C 35.21 61.75 35.15 59.09 35.10 56.44 Z" />
</g>
<g id="#8fa2c3ff">
<path fill="#8fa2c3" opacity="1.00" d=" M 61.72 56.60 C 62.67 62.04 62.98 67.93 61.66 73.31 C 61.82 67.74 61.58 62.17 61.72 56.60 Z" />
</g>
<g id="#fcfdffff">
<path fill="#fcfdff" opacity="1.00" d=" M 65.18 56.36 C 68.21 55.94 71.27 56.60 73.40 58.92 C 73.95 62.67 74.35 66.46 74.19 70.26 C 72.53 73.45 68.30 74.58 65.30 72.54 C 65.12 67.15 65.29 61.75 65.18 56.36 Z" />
</g>
<g id="#9cb2d5ff">
<path fill="#9cb2d5" opacity="1.00" d=" M 73.40 58.92 C 75.21 62.34 75.67 66.65 74.19 70.26 C 74.35 66.46 73.95 62.67 73.40 58.92 Z" />
</g>
<g id="#f2ffffff">
<path fill="#f2ffff" opacity="1.00" d=" M 35.17 65.05 C 37.18 65.09 39.47 64.36 41.19 65.77 C 43.29 67.00 42.92 69.96 42.18 71.88 C 40.58 73.66 37.05 74.74 35.57 72.26 C 34.90 69.94 35.26 67.44 35.17 65.05 Z" />
</g>
<g id="#214173ff">
<path fill="#214173" opacity="1.00" d=" M 11.83 78.59 L 13.01 78.60 C 36.35 78.69 59.69 78.51 83.02 78.66 L 84.07 78.75 C 84.39 83.10 83.84 87.77 80.60 91.01 C 79.29 87.29 82.49 84.03 82.88 80.39 C 80.26 80.31 77.38 79.83 75.17 81.59 C 74.08 82.13 73.00 82.69 71.94 83.26 C 72.04 84.83 73.34 86.01 74.31 87.12 C 73.73 86.84 72.57 86.28 71.99 86.00 L 72.01 88.03 C 72.89 87.99 74.66 87.91 75.55 87.87 C 75.42 90.31 71.83 89.43 71.10 87.79 C 70.58 85.49 70.99 82.98 70.14 80.77 C 67.34 79.71 64.31 81.32 61.52 81.82 C 60.43 82.45 58.33 82.83 59.05 84.54 C 59.78 85.43 60.53 86.30 61.32 87.14 C 60.58 86.86 59.11 86.30 58.37 86.02 C 58.95 87.65 60.15 88.37 61.98 88.17 C 62.52 88.23 63.59 88.35 64.12 88.40 C 61.19 89.92 57.89 89.83 55.30 87.67 C 56.18 85.75 58.38 83.83 57.52 81.59 C 55.37 79.42 51.74 79.98 49.65 81.96 C 48.78 81.98 47.04 82.02 46.17 82.04 C 45.83 81.64 45.14 80.84 44.79 80.43 C 41.70 80.36 38.61 80.34 35.51 80.24 C 35.88 81.24 36.27 82.23 36.70 83.21 C 35.61 82.81 34.52 82.40 33.43 81.99 C 33.45 81.56 33.47 80.70 33.48 80.27 C 30.06 80.18 26.65 80.33 23.25 80.67 C 24.45 82.20 25.45 83.87 26.10 85.71 C 25.54 85.51 24.44 85.10 23.89 84.89 C 23.69 84.24 23.30 82.95 23.10 82.31 C 22.36 83.27 21.64 84.26 20.92 85.24 C 21.03 84.36 21.26 82.60 21.37 81.71 C 19.05 83.09 20.39 86.18 19.84 88.35 C 17.46 85.73 18.92 82.68 20.51 80.11 C 18.07 80.15 15.63 80.22 13.20 80.33 C 13.29 86.26 17.88 92.39 24.15 92.51 C 38.76 92.90 53.38 92.54 68.00 92.82 C 71.56 93.04 75.13 91.50 78.64 92.57 C 76.85 93.61 74.91 94.45 72.80 94.48 C 56.53 94.40 40.26 94.50 23.99 94.45 C 22.24 94.45 20.49 94.15 18.85 93.52 C 12.98 91.14 11.13 84.38 11.83 78.59 Z" />
</g>
<g id="#143c8eff">
<path fill="#143c8e" opacity="1.00" d=" M 13.20 80.33 C 15.63 80.22 18.07 80.15 20.51 80.11 C 18.92 82.68 17.46 85.73 19.84 88.35 C 21.01 86.99 22.42 85.89 23.89 84.89 C 24.44 85.10 25.54 85.51 26.10 85.71 C 25.45 83.87 24.45 82.20 23.25 80.67 C 26.65 80.33 30.06 80.18 33.48 80.27 C 33.47 80.70 33.45 81.56 33.43 81.99 C 33.38 82.55 33.27 83.66 33.22 84.21 C 32.91 85.34 32.85 86.48 33.05 87.63 C 33.41 87.52 34.14 87.30 34.50 87.19 C 35.13 87.42 36.37 87.89 37.00 88.12 C 36.68 87.62 36.04 86.62 35.72 86.12 C 36.05 85.16 36.38 84.19 36.70 83.21 C 36.27 82.23 35.88 81.24 35.51 80.24 C 38.61 80.34 41.70 80.36 44.79 80.43 C 45.14 80.84 45.83 81.64 46.17 82.04 C 46.12 84.03 46.09 86.02 46.09 88.01 C 47.54 88.00 48.99 87.99 50.44 87.98 C 49.85 87.67 48.68 87.06 48.09 86.76 C 48.45 85.11 49.01 83.52 49.65 81.96 C 51.74 79.98 55.37 79.42 57.52 81.59 C 58.38 83.83 56.18 85.75 55.30 87.67 C 57.89 89.83 61.19 89.92 64.12 88.40 C 63.59 88.35 62.52 88.23 61.98 88.17 C 62.26 87.62 62.82 86.50 63.10 85.94 C 62.23 85.34 61.35 84.74 60.48 84.13 C 61.08 84.01 62.28 83.77 62.88 83.65 C 62.54 83.19 61.86 82.28 61.52 81.82 C 64.31 81.32 67.34 79.71 70.14 80.77 C 70.99 82.98 70.58 85.49 71.10 87.79 C 71.83 89.43 75.42 90.31 75.55 87.87 C 75.67 87.01 75.78 86.15 75.86 85.30 C 75.41 85.19 74.52 84.97 74.08 84.87 C 74.43 83.77 74.80 82.68 75.17 81.59 C 77.38 79.83 80.26 80.31 82.88 80.39 C 82.49 84.03 79.29 87.29 80.60 91.01 C 80.03 91.62 79.33 92.09 78.64 92.57 C 75.13 91.50 71.56 93.04 68.00 92.82 C 53.38 92.54 38.76 92.90 24.15 92.51 C 17.88 92.39 13.29 86.26 13.20 80.33 Z" />
</g>
<g id="#e9feffff">
<path fill="#e9feff" opacity="1.00" d=" M 33.43 81.99 C 34.52 82.40 35.61 82.81 36.70 83.21 C 36.38 84.19 36.05 85.16 35.72 86.12 C 36.04 86.62 36.68 87.62 37.00 88.12 C 36.37 87.89 35.13 87.42 34.50 87.19 C 34.72 86.00 34.98 84.78 34.77 83.57 C 34.39 83.73 33.61 84.05 33.22 84.21 C 33.27 83.66 33.38 82.55 33.43 81.99 Z" />
<path fill="#e9feff" opacity="1.00" d=" M 18.85 93.52 C 20.49 94.15 22.24 94.45 23.99 94.45 C 40.26 94.50 56.53 94.40 72.80 94.48 C 73.67 95.00 74.55 95.50 75.43 96.00 L 18.20 96.00 C 18.43 95.17 18.64 94.35 18.85 93.52 Z" />
</g>
<g id="#8dade9ff">
<path fill="#8dade9" opacity="1.00" d=" M 46.17 82.04 C 47.04 82.02 48.78 81.98 49.65 81.96 C 49.01 83.52 48.45 85.11 48.09 86.76 C 48.68 87.06 49.85 87.67 50.44 87.98 C 48.99 87.99 47.54 88.00 46.09 88.01 C 46.09 86.02 46.12 84.03 46.17 82.04 Z" />
</g>
<g id="#96b4e9ff">
<path fill="#96b4e9" opacity="1.00" d=" M 59.05 84.54 C 58.33 82.83 60.43 82.45 61.52 81.82 C 61.86 82.28 62.54 83.19 62.88 83.65 C 62.28 83.77 61.08 84.01 60.48 84.13 C 61.35 84.74 62.23 85.34 63.10 85.94 C 62.82 86.50 62.26 87.62 61.98 88.17 C 60.15 88.37 58.95 87.65 58.37 86.02 C 59.11 86.30 60.58 86.86 61.32 87.14 C 60.53 86.30 59.78 85.43 59.05 84.54 Z" />
</g>
<g id="#9ebfefff">
<path fill="#9ebfef" opacity="1.00" d=" M 71.94 83.26 C 73.00 82.69 74.08 82.13 75.17 81.59 C 74.80 82.68 74.43 83.77 74.08 84.87 C 74.52 84.97 75.41 85.19 75.86 85.30 C 75.78 86.15 75.67 87.01 75.55 87.87 C 74.66 87.91 72.89 87.99 72.01 88.03 L 71.99 86.00 C 72.57 86.28 73.73 86.84 74.31 87.12 C 73.34 86.01 72.04 84.83 71.94 83.26 Z" />
</g>
<g id="#b2d4f9ff">
<path fill="#b2d4f9" opacity="1.00" d=" M 21.37 81.71 C 21.26 82.60 21.03 84.36 20.92 85.24 C 21.64 84.26 22.36 83.27 23.10 82.31 C 23.30 82.95 23.69 84.24 23.89 84.89 C 22.42 85.89 21.01 86.99 19.84 88.35 C 20.39 86.18 19.05 83.09 21.37 81.71 Z" />
</g>
<g id="#819ecfff">
<path fill="#819ecf" opacity="1.00" d=" M 33.22 84.21 C 33.61 84.05 34.39 83.73 34.77 83.57 C 34.98 84.78 34.72 86.00 34.50 87.19 C 34.14 87.30 33.41 87.52 33.05 87.63 C 32.85 86.48 32.91 85.34 33.22 84.21 Z" />
</g>
</svg>
