<?xml version="1.0" encoding="UTF-8" ?>
<!DOCTYPE svg PUBLIC "-//W3C//DTD SVG 1.1//EN" "http://www.w3.org/Graphics/SVG/1.1/DTD/svg11.dtd">
<svg width="366pt" height="138pt" viewBox="0 0 366 138" version="1.1" xmlns="http://www.w3.org/2000/svg">
<g id="#fcfcfcff">
<path fill="#fcfcfc" opacity="1.00" d=" M 46.72 25.61 C 48.23 25.19 49.82 25.32 51.38 25.30 C 51.65 26.49 51.92 27.68 52.21 28.87 C 50.87 28.25 49.54 27.61 48.17 27.07 C 48.27 28.85 48.48 30.61 48.68 32.38 C 47.56 31.77 46.45 31.14 45.34 30.51 C 45.59 28.84 45.38 26.89 46.72 25.61 Z" />
<path fill="#fcfcfc" opacity="1.00" d=" M 50.02 35.05 C 51.76 33.49 52.54 31.09 54.55 29.79 C 54.72 32.32 54.91 34.89 54.43 37.40 C 51.85 40.29 47.60 39.79 44.16 40.75 C 44.22 40.16 44.34 38.98 44.40 38.39 C 46.29 37.31 48.29 36.39 50.02 35.05 Z" />
<path fill="#fcfcfc" opacity="1.00" d=" M 45.46 43.65 C 48.71 41.68 52.94 42.98 55.53 45.43 C 58.21 49.01 58.61 53.71 58.50 58.04 C 58.25 65.89 60.98 73.37 62.51 80.96 C 62.45 85.29 63.71 90.24 61.01 94.03 C 58.08 96.47 54.32 94.03 50.98 94.57 C 47.20 95.13 43.31 96.54 39.49 95.38 C 36.64 93.66 35.27 90.23 35.34 87.01 C 35.16 79.04 34.77 70.94 36.69 63.13 C 38.00 57.79 38.75 52.19 41.46 47.33 C 42.31 45.67 43.77 44.41 45.46 43.65 Z" />
</g>
<g id="#201d1cff">
<path fill="#201d1c" opacity="1.00" d=" M 42.31 11.84 C 50.84 10.36 59.91 12.35 67.27 16.84 C 78.03 24.60 83.13 37.76 85.29 50.42 C 88.04 66.21 86.94 82.97 80.67 97.82 C 76.95 106.30 70.80 114.18 62.09 117.88 C 49.80 123.21 34.15 121.02 24.54 111.42 C 17.58 104.28 13.42 94.80 11.55 85.09 C 9.19 75.05 8.54 64.52 10.34 54.34 C 11.96 41.68 16.10 28.56 25.56 19.52 C 30.05 15.07 36.25 13.06 42.31 11.84 M 40.29 14.09 C 34.18 15.37 28.65 18.91 24.84 23.84 C 17.91 32.32 16.06 43.54 14.80 54.09 C 13.48 71.80 14.68 90.59 23.92 106.21 C 27.96 112.07 34.41 116.05 41.19 118.00 C 50.31 119.81 60.56 118.04 67.52 111.53 C 76.78 103.29 79.72 90.49 81.32 78.71 C 81.79 66.23 82.63 53.41 79.04 41.26 C 76.87 32.86 73.40 24.08 66.08 18.86 C 58.79 13.33 49.04 12.46 40.29 14.09 Z" />
<path fill="#201d1c" opacity="1.00" d=" M 41.79 23.12 C 45.79 22.41 50.54 21.10 54.01 23.99 C 57.85 26.59 57.47 31.63 58.06 35.68 C 59.25 48.19 70.54 56.54 73.09 68.61 C 73.97 72.86 73.66 77.24 73.49 81.56 C 72.55 81.59 71.62 81.63 70.69 81.68 C 68.89 75.39 67.70 68.28 62.76 63.57 C 65.04 71.47 68.11 79.54 67.35 87.90 C 67.07 92.25 63.81 95.66 63.18 99.88 C 63.73 102.06 65.66 103.51 67.02 105.21 C 64.67 105.86 62.37 106.69 60.00 107.28 C 58.16 106.87 56.81 105.38 55.28 104.37 C 56.15 102.86 56.98 101.35 57.71 99.77 C 53.50 98.29 48.97 98.39 44.80 99.96 C 43.97 101.60 43.78 103.48 43.41 105.27 C 41.30 105.79 39.24 106.46 37.19 107.18 C 34.81 108.45 32.92 105.91 30.96 104.95 C 32.99 103.61 35.02 102.29 37.06 100.97 C 34.51 97.26 31.93 93.40 30.97 88.93 C 29.63 81.94 30.99 74.87 31.58 67.89 C 27.90 71.95 28.25 77.76 27.50 82.83 C 26.53 82.69 25.56 82.55 24.60 82.42 C 23.27 76.16 23.81 69.45 26.65 63.68 C 29.91 56.31 35.59 50.41 39.33 43.32 C 41.20 39.74 41.85 35.13 39.53 31.60 C 37.14 28.54 33.93 26.28 31.20 23.54 C 34.69 22.59 38.29 23.98 41.79 23.12 M 46.72 25.61 C 45.38 26.89 45.59 28.84 45.34 30.51 C 46.45 31.14 47.56 31.77 48.68 32.38 C 48.48 30.61 48.27 28.85 48.17 27.07 C 49.54 27.61 50.87 28.25 52.21 28.87 C 51.92 27.68 51.65 26.49 51.38 25.30 C 49.82 25.32 48.23 25.19 46.72 25.61 M 50.02 35.05 C 48.29 36.39 46.29 37.31 44.40 38.39 C 44.34 38.98 44.22 40.16 44.16 40.75 C 47.60 39.79 51.85 40.29 54.43 37.40 C 54.91 34.89 54.72 32.32 54.55 29.79 C 52.54 31.09 51.76 33.49 50.02 35.05 M 45.46 43.65 C 43.77 44.41 42.31 45.67 41.46 47.33 C 38.75 52.19 38.00 57.79 36.69 63.13 C 34.77 70.94 35.16 79.04 35.34 87.01 C 35.27 90.23 36.64 93.66 39.49 95.38 C 43.31 96.54 47.20 95.13 50.98 94.57 C 54.32 94.03 58.08 96.47 61.01 94.03 C 63.71 90.24 62.45 85.29 62.51 80.96 C 60.98 73.37 58.25 65.89 58.50 58.04 C 58.61 53.71 58.21 49.01 55.53 45.43 C 52.94 42.98 48.71 41.68 45.46 43.65 Z" />
</g>
<g id="#ef5423ff">
<path fill="#ef5423" opacity="1.00" d=" M 40.29 14.09 C 49.04 12.46 58.79 13.33 66.08 18.86 C 73.40 24.08 76.87 32.86 79.04 41.26 C 82.63 53.41 81.79 66.23 81.32 78.71 C 79.72 90.49 76.78 103.29 67.52 111.53 C 60.56 118.04 50.31 119.81 41.19 118.00 C 34.41 116.05 27.96 112.07 23.92 106.21 C 14.68 90.59 13.48 71.80 14.80 54.09 C 16.06 43.54 17.91 32.32 24.84 23.84 C 28.65 18.91 34.18 15.37 40.29 14.09 M 41.79 23.12 C 38.29 23.98 34.69 22.59 31.20 23.54 C 33.93 26.28 37.14 28.54 39.53 31.60 C 41.85 35.13 41.20 39.74 39.33 43.32 C 35.59 50.41 29.91 56.31 26.65 63.68 C 23.81 69.45 23.27 76.16 24.60 82.42 C 25.56 82.55 26.53 82.69 27.50 82.83 C 28.25 77.76 27.90 71.95 31.58 67.89 C 30.99 74.87 29.63 81.94 30.97 88.93 C 31.93 93.40 34.51 97.26 37.06 100.97 C 35.02 102.29 32.99 103.61 30.96 104.95 C 32.92 105.91 34.81 108.45 37.19 107.18 C 39.24 106.46 41.30 105.79 43.41 105.27 C 43.78 103.48 43.97 101.60 44.80 99.96 C 48.97 98.39 53.50 98.29 57.71 99.77 C 56.98 101.35 56.15 102.86 55.28 104.37 C 56.81 105.38 58.16 106.87 60.00 107.28 C 62.37 106.69 64.67 105.86 67.02 105.21 C 65.66 103.51 63.73 102.06 63.18 99.88 C 63.81 95.66 67.07 92.25 67.35 87.90 C 68.11 79.54 65.04 71.47 62.76 63.57 C 67.70 68.28 68.89 75.39 70.69 81.68 C 71.62 81.63 72.55 81.59 73.49 81.56 C 73.66 77.24 73.97 72.86 73.09 68.61 C 70.54 56.54 59.25 48.19 58.06 35.68 C 57.47 31.63 57.85 26.59 54.01 23.99 C 50.54 21.10 45.79 22.41 41.79 23.12 Z" />
</g>
<g id="#fc4e03ff">
<path fill="#fc4e03" opacity="1.00" d=" M 307.51 28.51 C 309.48 28.39 311.47 28.35 313.46 28.41 C 314.62 31.37 313.79 35.33 310.01 35.45 C 306.64 34.67 307.26 31.10 307.51 28.51 Z" />
<path fill="#fc4e03" opacity="1.00" d=" M 108.79 29.16 C 116.71 28.22 124.88 28.19 132.76 29.51 C 137.82 30.22 142.67 33.08 145.15 37.63 C 147.92 43.23 146.13 50.46 141.54 54.57 C 138.64 57.27 134.66 58.37 130.84 58.99 C 129.03 59.61 127.28 58.71 125.70 57.91 C 129.11 56.29 133.85 56.73 136.04 53.11 C 140.25 47.08 139.52 37.01 132.75 33.09 C 129.94 31.28 126.45 31.08 123.24 31.58 C 123.29 45.39 123.33 59.21 123.24 73.02 C 123.26 74.64 123.23 76.29 123.61 77.89 C 125.14 80.09 128.44 79.43 130.24 81.41 C 123.07 81.94 115.85 81.92 108.67 81.48 C 109.97 79.60 112.28 79.53 114.32 79.19 C 116.28 74.71 115.46 69.74 115.60 65.00 C 115.46 54.99 115.88 44.96 115.38 34.96 C 115.11 31.43 110.77 31.40 108.79 29.16 Z" />
<path fill="#fc4e03" opacity="1.00" d=" M 227.61 51.57 C 230.46 47.97 235.39 47.17 239.70 47.00 C 245.69 47.96 251.50 50.27 257.68 49.37 C 257.67 50.43 257.67 51.50 257.67 52.57 C 255.53 52.64 253.40 52.70 251.27 52.77 C 251.69 57.20 252.67 62.64 249.02 66.03 C 244.75 70.55 238.08 70.21 232.38 70.43 C 232.37 72.43 232.41 74.42 232.49 76.42 C 240.89 77.52 250.42 74.54 257.59 80.42 C 257.53 83.48 258.33 86.91 256.56 89.65 C 253.83 94.31 249.00 97.70 243.66 98.57 C 237.48 99.91 230.02 99.44 225.31 94.76 C 223.38 93.16 223.44 90.37 224.01 88.15 C 224.91 84.94 228.25 83.56 230.81 81.92 C 229.35 80.45 227.73 79.12 226.52 77.44 C 226.19 75.87 226.33 74.26 226.34 72.67 C 228.23 71.71 230.10 70.70 231.94 69.65 C 229.91 67.56 227.49 65.83 225.80 63.43 C 224.93 59.49 224.82 54.82 227.61 51.57 M 235.53 49.62 C 229.87 53.71 230.61 63.07 235.71 67.31 C 239.43 68.68 243.97 67.53 245.41 63.54 C 246.07 59.37 246.40 54.18 243.02 51.04 C 241.15 48.97 238.04 49.00 235.53 49.62 M 234.34 82.44 C 229.34 83.01 228.08 89.19 230.04 93.03 C 232.28 96.14 236.43 96.84 240.02 96.68 C 244.31 96.65 249.21 95.28 251.45 91.29 C 252.62 89.36 253.34 86.33 251.19 84.79 C 246.68 80.73 239.87 81.41 234.34 82.44 Z" />
<path fill="#fc4e03" opacity="1.00" d=" M 161.05 48.21 C 166.19 46.40 172.56 47.53 176.11 51.90 C 178.45 54.18 178.50 57.59 178.67 60.63 C 171.28 61.13 163.84 60.38 156.47 61.35 C 156.48 66.21 157.15 71.62 160.93 75.09 C 163.06 77.49 166.34 78.96 169.56 78.29 C 172.82 77.49 175.37 75.17 178.02 73.26 C 178.20 73.70 178.56 74.60 178.74 75.04 C 175.13 79.43 170.07 83.43 164.02 82.68 C 157.83 83.26 153.38 77.77 151.73 72.40 C 148.63 63.64 152.09 52.03 161.05 48.21 M 157.13 58.46 C 162.01 58.56 166.89 58.51 171.76 58.54 C 171.49 55.82 172.42 52.11 169.40 50.64 C 164.07 46.87 157.06 52.61 157.13 58.46 Z" />
<path fill="#fc4e03" opacity="1.00" d=" M 333.68 52.05 C 338.09 49.69 342.59 46.59 347.89 47.42 C 352.83 47.33 355.15 52.76 355.35 56.96 C 355.47 64.36 355.34 71.78 355.40 79.18 C 356.80 79.43 358.22 79.57 359.64 79.77 C 359.74 80.25 359.94 81.20 360.04 81.68 C 354.58 81.75 349.10 82.00 343.66 81.43 C 345.06 80.29 346.77 79.69 348.52 79.34 C 349.87 73.31 349.21 67.10 349.32 60.98 C 349.23 57.74 349.33 53.47 345.84 51.92 C 341.54 50.41 337.10 52.59 333.47 54.83 C 333.55 62.91 333.44 71.00 333.52 79.09 C 335.58 79.42 337.65 79.93 339.19 81.45 C 333.64 81.89 328.04 81.91 322.49 81.48 C 323.87 80.27 325.61 79.64 327.30 79.01 C 327.52 72.00 327.41 64.98 327.43 57.97 C 327.79 54.98 325.00 53.18 323.47 51.01 C 326.64 49.61 329.85 48.26 333.22 47.43 C 333.38 48.97 333.53 50.51 333.68 52.05 Z" />
<path fill="#fc4e03" opacity="1.00" d=" M 183.45 50.63 C 186.65 49.40 189.92 48.30 193.33 47.83 C 193.48 49.21 193.63 50.59 193.77 51.98 C 198.35 50.00 202.75 46.63 208.03 47.42 C 212.45 47.44 215.16 51.93 215.36 55.92 C 215.77 63.67 215.25 71.44 215.61 79.19 C 217.62 79.54 219.61 80.12 221.25 81.39 C 215.45 81.95 209.59 81.91 203.78 81.44 C 205.20 79.82 207.36 79.57 209.34 79.19 C 209.45 72.12 209.38 65.06 209.38 57.99 C 209.77 54.51 206.43 51.28 203.01 51.49 C 199.50 51.13 196.51 53.25 193.59 54.84 C 193.86 63.03 193.10 71.26 193.98 79.42 C 195.93 79.58 198.06 79.73 199.24 81.53 C 193.56 81.92 187.85 81.83 182.16 81.55 C 182.33 81.13 182.67 80.29 182.85 79.87 C 184.31 79.68 185.78 79.50 187.25 79.30 C 187.64 71.86 187.46 64.39 187.44 56.94 C 187.50 54.66 185.14 53.57 183.63 52.31 C 183.59 51.89 183.50 51.05 183.45 50.63 Z" />
<path fill="#fc4e03" opacity="1.00" d=" M 303.83 50.25 C 306.94 49.08 310.12 48.11 313.33 47.27 C 314.15 57.73 313.10 68.27 313.85 78.72 C 315.41 79.72 317.13 80.41 318.77 81.28 C 313.31 82.17 307.75 81.75 302.26 81.55 C 302.36 81.12 302.57 80.24 302.68 79.80 C 304.24 79.69 305.81 79.59 307.38 79.46 C 307.47 71.96 307.45 64.46 307.45 56.96 C 307.75 54.15 305.19 52.38 303.83 50.25 Z" />
<path fill="#fc4e03" opacity="1.00" d=" M 261.80 48.68 C 265.15 48.40 268.52 48.33 271.88 48.50 C 272.42 56.61 271.94 64.74 272.26 72.85 C 272.33 75.82 274.81 79.06 278.05 78.57 C 281.84 79.03 284.76 76.19 287.59 74.14 C 287.40 67.45 287.78 60.74 287.47 54.05 C 286.41 51.94 283.41 51.55 281.72 49.91 C 285.60 48.93 289.58 48.50 293.58 48.34 C 293.82 58.26 293.64 68.19 293.71 78.12 C 295.61 78.65 297.50 79.25 299.37 79.92 C 295.59 81.20 291.72 82.17 287.76 82.65 C 287.66 80.74 287.59 78.83 287.49 76.92 C 283.39 79.61 279.28 83.35 273.98 82.69 C 269.10 83.34 265.95 78.39 265.73 74.07 C 265.41 67.40 265.85 60.72 265.59 54.06 C 265.73 51.60 263.11 50.40 261.80 48.68 Z" />
</g>
</svg>
