<?xml version="1.0" encoding="UTF-8" ?>
<!DOCTYPE svg PUBLIC "-//W3C//DTD SVG 1.1//EN" "http://www.w3.org/Graphics/SVG/1.1/DTD/svg11.dtd">
<svg width="600pt" height="70pt" viewBox="0 0 600 70" version="1.1" xmlns="http://www.w3.org/2000/svg">
<g id="#fdfdfdff">
<path fill="#fdfdfd" opacity="1.00" d=" M 0.00 0.00 L 600.00 0.00 L 600.00 70.00 L 0.00 70.00 L 0.00 0.00 M 4.82 4.78 C 4.82 24.89 4.81 44.99 4.82 65.10 C 201.57 65.11 398.31 65.11 595.05 65.10 C 595.06 45.00 595.06 24.90 595.05 4.80 C 398.31 4.78 201.56 4.80 4.82 4.78 Z" />
<path fill="#fdfdfd" opacity="1.00" d=" M 25.75 16.93 C 32.91 18.37 42.16 18.43 46.31 25.52 C 46.94 34.65 46.24 43.87 46.65 53.03 C 45.06 51.25 43.28 49.52 40.93 48.83 C 34.91 46.77 28.50 46.36 22.23 45.59 C 23.85 36.10 24.95 26.52 25.75 16.93 Z" />
<path fill="#fdfdfd" opacity="1.00" d=" M 52.26 21.21 C 57.27 18.39 63.14 17.90 68.71 16.96 C 69.29 26.57 70.84 36.09 72.04 45.64 C 65.95 46.32 59.74 46.79 53.88 48.70 C 51.44 49.40 49.45 51.03 47.91 53.00 C 48.16 44.31 47.92 35.62 48.02 26.93 C 47.92 24.31 50.32 22.54 52.26 21.21 Z" />
<path fill="#fdfdfd" opacity="1.00" d=" M 94.67 26.03 C 96.90 21.00 102.72 18.64 107.96 18.80 C 112.51 18.61 116.77 21.43 121.34 20.28 C 121.27 23.08 121.27 25.88 121.34 28.67 C 117.40 23.66 110.38 21.58 104.32 23.39 C 101.33 24.41 98.75 28.94 101.81 31.26 C 107.52 34.72 115.03 32.49 120.64 36.24 C 125.41 39.48 125.19 47.26 120.54 50.51 C 114.93 54.47 107.47 53.79 101.22 51.89 C 98.77 51.03 96.10 51.22 93.99 52.80 C 94.07 49.74 94.07 46.67 93.99 43.60 C 99.58 48.47 107.62 50.97 114.86 48.84 C 118.29 48.00 119.58 42.57 116.00 41.05 C 110.15 38.60 103.16 39.86 97.72 36.21 C 94.35 34.17 93.08 29.59 94.67 26.03 Z" />
<path fill="#fdfdfd" opacity="1.00" d=" M 146.91 24.92 C 154.15 17.80 166.21 17.04 174.90 21.88 C 174.88 23.86 174.88 25.84 174.90 27.82 C 169.56 23.60 161.92 21.47 155.54 24.61 C 146.92 28.79 147.00 43.16 155.42 47.54 C 162.12 51.14 170.65 49.01 175.97 43.90 C 175.90 45.96 175.88 48.02 175.90 50.08 C 167.38 55.18 155.55 54.55 147.91 48.09 C 141.14 42.46 140.60 31.09 146.91 24.92 Z" />
<path fill="#fdfdfd" opacity="1.00" d=" M 312.06 19.24 C 316.32 19.05 320.58 19.15 324.85 19.06 C 323.40 20.50 320.98 21.65 321.14 24.01 C 321.11 32.21 321.06 40.42 321.10 48.62 C 327.48 48.07 334.66 50.21 340.13 45.86 C 339.12 48.20 338.18 50.58 337.40 53.02 C 336.05 52.35 334.62 51.78 333.08 51.93 C 325.94 51.96 318.79 51.90 311.65 52.00 C 312.79 50.97 313.93 49.93 315.06 48.88 C 315.04 40.25 315.16 31.61 315.02 22.97 C 315.13 21.14 313.54 19.94 312.06 19.24 Z" />
<path fill="#fdfdfd" opacity="1.00" d=" M 416.78 21.68 C 421.11 18.45 426.99 18.21 432.05 19.59 C 434.60 20.33 437.25 20.88 439.90 20.31 C 439.80 23.12 439.80 25.94 439.85 28.76 C 435.98 23.55 428.68 21.45 422.62 23.54 C 419.71 24.61 417.21 29.35 420.55 31.36 C 425.97 34.52 432.90 32.73 438.40 35.71 C 442.23 37.76 443.88 42.99 441.98 46.89 C 440.27 50.76 436.00 52.72 432.00 53.18 C 427.20 54.10 422.48 52.49 417.85 51.47 C 415.92 50.93 414.13 51.95 412.50 52.83 C 412.64 49.75 412.62 46.67 412.56 43.59 C 418.04 48.37 425.83 50.83 432.98 49.01 C 436.50 48.39 438.35 42.98 434.80 41.13 C 430.41 39.11 425.37 39.59 420.80 38.21 C 417.54 37.31 414.03 35.44 413.02 31.96 C 411.64 28.16 413.60 23.91 416.78 21.68 Z" />
<path fill="#fdfdfd" opacity="1.00" d=" M 547.95 23.85 C 555.34 17.73 566.48 17.34 574.79 21.82 C 574.78 23.82 574.79 25.81 574.84 27.81 C 569.50 23.69 561.96 21.47 555.60 24.53 C 546.86 28.64 546.88 43.15 555.36 47.55 C 562.05 51.14 570.53 48.99 575.87 43.93 C 575.81 45.98 575.80 48.03 575.81 50.08 C 568.92 54.23 559.99 54.50 552.70 51.23 C 548.05 49.15 544.03 45.15 542.89 40.07 C 541.28 34.29 543.27 27.65 547.95 23.85 Z" />
<path fill="#fdfdfd" opacity="1.00" d=" M 194.86 20.53 C 198.62 20.64 202.38 20.67 206.14 20.50 C 202.17 23.93 203.90 29.42 203.57 34.00 C 210.76 34.00 217.94 34.00 225.13 34.00 C 225.15 30.37 225.19 26.74 225.03 23.11 C 224.16 22.16 222.82 21.49 222.32 20.28 C 226.38 20.99 230.54 20.85 234.66 20.56 C 233.47 21.86 231.62 22.99 231.88 25.01 C 231.85 33.65 231.80 42.28 231.94 50.92 C 232.69 51.77 233.44 52.63 234.17 53.50 C 230.38 53.44 226.60 53.44 222.81 53.51 C 223.53 52.64 224.27 51.80 225.02 50.96 C 225.21 46.65 225.14 42.33 225.12 38.02 C 218.01 38.13 210.89 38.15 203.78 38.00 C 203.76 41.94 203.64 45.88 203.77 49.82 C 203.62 51.45 205.08 52.46 206.01 53.59 C 202.11 53.33 198.19 53.35 194.29 53.59 C 195.60 52.30 197.61 51.18 197.21 49.01 C 197.28 40.98 197.27 32.95 197.26 24.93 C 197.36 23.11 195.79 21.90 194.86 20.53 Z" />
<path fill="#fdfdfd" opacity="1.00" d=" M 459.70 24.94 C 461.06 23.11 462.41 21.28 463.73 19.42 C 466.74 21.52 470.58 20.32 473.99 20.63 C 480.92 20.33 487.94 21.15 494.81 19.99 C 493.48 21.87 492.22 23.80 490.96 25.73 C 487.59 23.55 483.34 24.94 479.58 24.57 C 479.63 33.05 479.28 41.54 479.57 50.02 C 479.33 51.79 481.26 52.53 482.32 53.55 C 478.21 53.40 474.09 53.44 469.99 53.56 C 471.01 52.93 472.03 52.32 473.08 51.73 C 473.61 42.69 473.13 33.62 473.24 24.57 C 468.72 24.56 464.18 24.25 459.70 24.94 Z" />
<path fill="#fdfdfd" opacity="1.00" d=" M 511.81 20.03 C 515.98 20.25 520.17 20.26 524.34 20.02 C 522.96 21.40 520.79 22.69 521.18 24.96 C 521.21 33.30 521.06 41.64 521.33 49.97 C 521.19 51.79 523.23 52.52 524.32 53.57 C 520.17 53.38 516.03 53.45 511.88 53.52 C 512.96 52.68 514.05 51.85 515.14 51.02 C 514.93 41.99 515.20 32.96 515.13 23.94 C 515.12 22.04 512.95 21.24 511.81 20.03 Z" />
<path fill="#fdfdfd" opacity="1.00" d=" M 264.36 21.56 C 273.57 18.25 285.35 20.57 291.26 28.78 C 294.77 33.48 294.69 40.34 291.13 44.99 C 282.80 56.02 263.98 56.31 255.17 45.71 C 251.95 41.95 250.94 36.41 252.84 31.82 C 254.81 26.81 259.40 23.31 264.36 21.56 M 270.15 24.26 C 264.86 25.25 260.14 29.46 259.25 34.88 C 257.99 41.51 263.19 48.17 269.70 49.36 C 277.21 51.31 286.00 46.06 286.74 38.08 C 287.77 29.35 278.37 22.28 270.15 24.26 Z" />
<path fill="#fdfdfd" opacity="1.00" d=" M 370.46 20.95 C 372.58 21.00 374.70 21.01 376.83 21.01 C 382.40 30.49 387.90 40.02 393.50 49.49 C 394.39 51.11 395.79 52.33 397.10 53.60 C 393.49 53.40 389.86 53.35 386.25 53.65 C 389.10 50.64 385.37 47.45 383.90 44.77 C 377.02 44.84 370.15 44.72 363.27 44.84 C 361.85 47.57 357.86 50.40 360.53 53.59 C 357.69 53.42 354.85 53.43 352.01 53.54 C 353.60 52.28 355.24 51.00 356.25 49.19 C 360.60 42.11 364.62 34.83 368.83 27.66 C 369.92 25.60 371.99 23.35 370.46 20.95 M 365.03 41.42 C 370.78 41.30 376.54 41.34 382.29 41.30 C 379.33 36.36 376.49 31.34 373.65 26.34 C 370.69 31.32 367.92 36.40 365.03 41.42 Z" />
</g>
<g id="#ea1d2eff">
<path fill="#ea1d2e" opacity="1.00" d=" M 4.82 4.78 C 201.56 4.80 398.31 4.78 595.05 4.80 C 595.06 24.90 595.06 45.00 595.05 65.10 C 398.31 65.11 201.57 65.11 4.82 65.10 C 4.81 44.99 4.82 24.89 4.82 4.78 M 25.75 16.93 C 24.95 26.52 23.85 36.10 22.23 45.59 C 28.50 46.36 34.91 46.77 40.93 48.83 C 43.28 49.52 45.06 51.25 46.65 53.03 C 46.24 43.87 46.94 34.65 46.31 25.52 C 42.16 18.43 32.91 18.37 25.75 16.93 M 52.26 21.21 C 50.32 22.54 47.92 24.31 48.02 26.93 C 47.92 35.62 48.16 44.31 47.91 53.00 C 49.45 51.03 51.44 49.40 53.88 48.70 C 59.74 46.79 65.95 46.32 72.04 45.64 C 70.84 36.09 69.29 26.57 68.71 16.96 C 63.14 17.90 57.27 18.39 52.26 21.21 M 94.67 26.03 C 93.08 29.59 94.35 34.17 97.72 36.21 C 103.16 39.86 110.15 38.60 116.00 41.05 C 119.58 42.57 118.29 48.00 114.86 48.84 C 107.62 50.97 99.58 48.47 93.99 43.60 C 94.07 46.67 94.07 49.74 93.99 52.80 C 96.10 51.22 98.77 51.03 101.22 51.89 C 107.47 53.79 114.93 54.47 120.54 50.51 C 125.19 47.26 125.41 39.48 120.64 36.24 C 115.03 32.49 107.52 34.72 101.81 31.26 C 98.75 28.94 101.33 24.41 104.32 23.39 C 110.38 21.58 117.40 23.66 121.34 28.67 C 121.27 25.88 121.27 23.08 121.34 20.28 C 116.77 21.43 112.51 18.61 107.96 18.80 C 102.72 18.64 96.90 21.00 94.67 26.03 M 146.91 24.92 C 140.60 31.09 141.14 42.46 147.91 48.09 C 155.55 54.55 167.38 55.18 175.90 50.08 C 175.88 48.02 175.90 45.96 175.97 43.90 C 170.65 49.01 162.12 51.14 155.42 47.54 C 147.00 43.16 146.92 28.79 155.54 24.61 C 161.92 21.47 169.56 23.60 174.90 27.82 C 174.88 25.84 174.88 23.86 174.90 21.88 C 166.21 17.04 154.15 17.80 146.91 24.92 M 312.06 19.24 C 313.54 19.94 315.13 21.14 315.02 22.97 C 315.16 31.61 315.04 40.25 315.06 48.88 C 313.93 49.93 312.79 50.97 311.65 52.00 C 318.79 51.90 325.94 51.96 333.08 51.93 C 334.62 51.78 336.05 52.35 337.40 53.02 C 338.18 50.58 339.12 48.20 340.13 45.86 C 334.66 50.21 327.48 48.07 321.10 48.62 C 321.06 40.42 321.11 32.21 321.14 24.01 C 320.98 21.65 323.40 20.50 324.85 19.06 C 320.58 19.15 316.32 19.05 312.06 19.24 M 416.78 21.68 C 413.60 23.91 411.64 28.16 413.02 31.96 C 414.03 35.44 417.54 37.31 420.80 38.21 C 425.37 39.59 430.41 39.11 434.80 41.13 C 438.35 42.98 436.50 48.39 432.98 49.01 C 425.83 50.83 418.04 48.37 412.56 43.59 C 412.62 46.67 412.64 49.75 412.50 52.83 C 414.13 51.95 415.92 50.93 417.85 51.47 C 422.48 52.49 427.20 54.10 432.00 53.18 C 436.00 52.72 440.27 50.76 441.98 46.89 C 443.88 42.99 442.23 37.76 438.40 35.71 C 432.90 32.73 425.97 34.52 420.55 31.36 C 417.21 29.35 419.71 24.61 422.62 23.54 C 428.68 21.45 435.98 23.55 439.85 28.76 C 439.80 25.94 439.80 23.12 439.90 20.31 C 437.25 20.88 434.60 20.33 432.05 19.59 C 426.99 18.21 421.11 18.45 416.78 21.68 M 547.95 23.85 C 543.27 27.65 541.28 34.29 542.89 40.07 C 544.03 45.15 548.05 49.15 552.70 51.23 C 559.99 54.50 568.92 54.23 575.81 50.08 C 575.80 48.03 575.81 45.98 575.87 43.93 C 570.53 48.99 562.05 51.14 555.36 47.55 C 546.88 43.15 546.86 28.64 555.60 24.53 C 561.96 21.47 569.50 23.69 574.84 27.81 C 574.79 25.81 574.78 23.82 574.79 21.82 C 566.48 17.34 555.34 17.73 547.95 23.85 M 194.86 20.53 C 195.79 21.90 197.36 23.11 197.26 24.93 C 197.27 32.95 197.28 40.98 197.21 49.01 C 197.61 51.18 195.60 52.30 194.29 53.59 C 198.19 53.35 202.11 53.33 206.01 53.59 C 205.08 52.46 203.62 51.45 203.77 49.82 C 203.64 45.88 203.76 41.94 203.78 38.00 C 210.89 38.15 218.01 38.13 225.12 38.02 C 225.14 42.33 225.21 46.65 225.02 50.96 C 224.27 51.80 223.53 52.64 222.81 53.51 C 226.60 53.44 230.38 53.44 234.17 53.50 C 233.44 52.63 232.69 51.77 231.94 50.92 C 231.80 42.28 231.85 33.65 231.88 25.01 C 231.62 22.99 233.47 21.86 234.66 20.56 C 230.54 20.85 226.38 20.99 222.32 20.28 C 222.82 21.49 224.16 22.16 225.03 23.11 C 225.19 26.74 225.15 30.37 225.13 34.00 C 217.94 34.00 210.76 34.00 203.57 34.00 C 203.90 29.42 202.17 23.93 206.14 20.50 C 202.38 20.67 198.62 20.64 194.86 20.53 M 459.70 24.94 C 464.18 24.25 468.72 24.56 473.24 24.57 C 473.13 33.62 473.61 42.69 473.08 51.73 C 472.03 52.32 471.01 52.93 469.99 53.56 C 474.09 53.44 478.21 53.40 482.32 53.55 C 481.26 52.53 479.33 51.79 479.57 50.02 C 479.28 41.54 479.63 33.05 479.58 24.57 C 483.34 24.94 487.59 23.55 490.96 25.73 C 492.22 23.80 493.48 21.87 494.81 19.99 C 487.94 21.15 480.92 20.33 473.99 20.63 C 470.58 20.32 466.74 21.52 463.73 19.42 C 462.41 21.28 461.06 23.11 459.70 24.94 M 511.81 20.03 C 512.95 21.24 515.12 22.04 515.13 23.94 C 515.20 32.96 514.93 41.99 515.14 51.02 C 514.05 51.85 512.96 52.68 511.88 53.52 C 516.03 53.45 520.17 53.38 524.32 53.57 C 523.23 52.52 521.19 51.79 521.33 49.97 C 521.06 41.64 521.21 33.30 521.18 24.96 C 520.79 22.69 522.96 21.40 524.34 20.02 C 520.17 20.26 515.98 20.25 511.81 20.03 M 264.36 21.56 C 259.40 23.31 254.81 26.81 252.84 31.82 C 250.94 36.41 251.95 41.95 255.17 45.71 C 263.98 56.31 282.80 56.02 291.13 44.99 C 294.69 40.34 294.77 33.48 291.26 28.78 C 285.35 20.57 273.57 18.25 264.36 21.56 M 370.46 20.95 C 371.99 23.35 369.92 25.60 368.83 27.66 C 364.62 34.83 360.60 42.11 356.25 49.19 C 355.24 51.00 353.60 52.28 352.01 53.54 C 354.85 53.43 357.69 53.42 360.53 53.59 C 357.86 50.40 361.85 47.57 363.27 44.84 C 370.15 44.72 377.02 44.84 383.90 44.77 C 385.37 47.45 389.10 50.64 386.25 53.65 C 389.86 53.35 393.49 53.40 397.10 53.60 C 395.79 52.33 394.39 51.11 393.50 49.49 C 387.90 40.02 382.40 30.49 376.83 21.01 C 374.70 21.01 372.58 21.00 370.46 20.95 Z" />
<path fill="#ea1d2e" opacity="1.00" d=" M 270.15 24.26 C 278.37 22.28 287.77 29.35 286.74 38.08 C 286.00 46.06 277.21 51.31 269.70 49.36 C 263.19 48.17 257.99 41.51 259.25 34.88 C 260.14 29.46 264.86 25.25 270.15 24.26 Z" />
<path fill="#ea1d2e" opacity="1.00" d=" M 365.03 41.42 C 367.92 36.40 370.69 31.32 373.65 26.34 C 376.49 31.34 379.33 36.36 382.29 41.30 C 376.54 41.34 370.78 41.30 365.03 41.42 Z" />
</g>
</svg>
