<?xml version="1.0" encoding="utf-8"?>
<!-- Generator: Adobe Illustrator 21.0.0, SVG Export Plug-In . SVG Version: 6.00 Build 0)  -->
<svg version="1.1" id="Layer_1" xmlns="http://www.w3.org/2000/svg" xmlns:xlink="http://www.w3.org/1999/xlink" x="0px" y="0px"
	 viewBox="0 0 162.2 168.2" style="enable-background:new 0 0 162.2 168.2;" xml:space="preserve">
<style type="text/css">
	.st0{opacity:0.2;fill:#D19743;enable-background:new    ;}
	.st1{fill:#F5852E;}
	.st2{fill:#FFD6BB;}
	.st3{fill:#FFFFFF;}
	.st4{opacity:0.2;fill:#F5852E;}
</style>
<g>
	<rect x="6.2" y="5" class="st0" width="156" height="163.2"/>
	<rect x="0.2" class="st1" width="156" height="163.2"/>
	<g id="XMLID_1269_">
		<path id="XMLID_1335_" class="st2" d="M149.1,144.9c-0.9,0-0.9,1.4,0,1.4C150,146.3,150,144.9,149.1,144.9z"/>
		<path id="XMLID_1334_" class="st2" d="M80.2,156c-0.4-0.4-1.2-0.1-1.2,0.5s0.8,0.9,1.2,0.5C80.6,156.7,80.6,156.4,80.2,156z"/>
		<polygon id="XMLID_1333_" class="st2" points="35,1.1 33.8,4.1 30.7,4.7 33.2,5.5 32.1,8.4 34.5,6.5 37.1,8.4 36.2,5.8 38.6,5 
			35.7,4.2 		"/>
		<polygon id="XMLID_1332_" class="st2" points="64.4,2.2 63.5,5.3 60.3,6.2 62.9,6.8 62,9.7 64.3,7.7 67,9.4 65.9,6.8 68.3,5.8 
			65.3,5.3 		"/>
		<polygon id="XMLID_1331_" class="st2" points="88.7,1 87.4,5 83.4,6 86.7,6.9 85.5,10.7 88.4,8 92,10.3 90.6,6.9 93.7,5.6 
			89.9,4.9 		"/>
		<polygon id="XMLID_1330_" class="st2" points="116.8,2.2 115.5,6.2 111.4,7.3 114.8,8.1 113.6,12 116.6,9.4 120.1,11.6 118.7,8.2 
			121.9,6.9 118,6.2 		"/>
		<polygon id="XMLID_1329_" class="st2" points="148.2,3.6 146.9,7.8 142.5,9 146.1,9.9 144.8,13.9 148,11.1 151.7,13.5 150.2,9.9 
			153.5,8.6 149.5,7.8 		"/>
		<polygon id="XMLID_1328_" class="st2" points="53.2,153.2 51.9,157.1 47.9,158.2 51.2,159 50,162.9 53,160.2 56.5,162.4 
			55.1,159.1 58.2,157.8 54.4,157.1 		"/>
		<polygon id="XMLID_1327_" class="st2" points="150,19.3 148.7,23.5 144.4,24.7 147.9,25.6 146.7,29.7 149.8,26.8 153.5,29.2 
			152,25.6 155.4,24.3 151.3,23.5 		"/>
		<polygon id="XMLID_1326_" class="st2" points="150.2,48 149,51.5 145.4,52.5 148.4,53.2 147.3,56.7 150,54.3 153.1,56.3 
			151.9,53.3 154.7,52.1 151.2,51.5 		"/>
		<polygon id="XMLID_1325_" class="st2" points="150.9,81.4 149.7,85.4 145.6,86.4 148.9,87.3 147.8,91.1 150.7,88.4 154.2,90.7 
			152.8,87.3 155.9,86 152.1,85.3 		"/>
		<polygon id="XMLID_1324_" class="st2" points="151.2,118.4 150.4,121.1 147.6,121.9 149.9,122.4 149.1,125 151.1,123.2 
			153.5,124.8 152.5,122.5 154.6,121.6 152.1,121.1 		"/>
		<polygon id="XMLID_1323_" class="st2" points="150.3,149.4 149,153.4 145,154.4 148.3,155.3 147.1,159.1 150.1,156.5 153.6,158.7 
			152.2,155.3 155.3,154 151.5,153.3 		"/>
		<polygon id="XMLID_1322_" class="st2" points="122,152.7 120.8,156.6 116.7,157.7 120,158.5 118.9,162.4 121.8,159.7 125.3,161.9 
			123.9,158.6 127,157.3 123.2,156.6 		"/>
		<polygon id="XMLID_1321_" class="st2" points="107.3,150.5 105.9,154.7 101.6,155.8 105.1,156.7 103.9,160.8 107,158 110.8,160.4 
			109.3,156.8 112.6,155.4 108.5,154.7 		"/>
		<polygon id="XMLID_1320_" class="st2" points="34.8,152.3 33.6,156 29.8,157 32.9,157.8 31.8,161.4 34.6,158.9 37.9,161 
			36.6,157.8 39.5,156.6 35.9,156 		"/>
		<polygon id="XMLID_1319_" class="st2" points="9.4,151.4 8,155.6 3.7,156.7 7.2,157.6 6,161.7 9.1,158.9 12.9,161.2 11.4,157.7 
			14.7,156.3 10.6,155.6 		"/>
		<polygon id="XMLID_1318_" class="st2" points="6,73.2 4.8,77.2 0.7,78.2 4,79.1 2.9,82.9 5.8,80.3 9.3,82.5 7.9,79.1 11,77.8 
			7.2,77.1 		"/>
		<polygon id="XMLID_1_" class="st2" points="6,94.9 4.8,98.8 0.7,99.9 4,100.7 2.9,104.6 5.8,101.9 9.3,104.1 7.9,100.8 11,99.5 
			7.2,98.8 		"/>
		<polygon id="XMLID_2_" class="st2" points="6,113.6 4.8,117.5 0.7,118.6 4,119.4 2.9,123.3 5.8,120.6 9.3,122.8 7.9,119.5 
			11,118.2 7.2,117.5 		"/>
		<polygon id="XMLID_4_" class="st2" points="9.3,137.5 8,141.5 4,142.6 7.3,143.4 6.1,147.2 9.1,144.6 12.6,146.8 11.2,143.4 
			14.3,142.2 10.5,141.5 		"/>
		<polygon id="XMLID_1317_" class="st2" points="6.5,53.2 5.2,57.1 1.2,58.2 4.5,59 3.3,62.9 6.2,60.2 9.8,62.4 8.4,59.1 11.5,57.8 
			7.7,57.1 		"/>
		<polygon id="XMLID_1316_" class="st2" points="5.3,34.7 4.1,38.6 0,39.7 3.3,40.5 2.2,44.4 5.1,41.7 8.6,43.9 7.2,40.6 10.3,39.3 
			6.5,38.6 		"/>
		<polygon id="XMLID_1315_" class="st2" points="7.9,7.5 6.7,11.2 2.8,12.2 6,13 4.9,16.7 7.7,14.2 11,16.3 9.7,13.1 12.6,11.9 
			9,11.2 		"/>
		<path id="XMLID_1314_" class="st2" d="M50.4,15.9c-0.7,0-0.7,1,0,1C51.1,16.9,51.1,15.9,50.4,15.9z"/>
		<path id="XMLID_1313_" class="st2" d="M50.6,6.5C50.5,6.5,50.5,6.5,50.6,6.5c-0.7-0.3-1.4,0.5-1.1,1.1c0,0,0,0,0,0.1
			c0.2,0.6,1,0.9,1.5,0.4C51.5,7.5,51.2,6.8,50.6,6.5z"/>
		<path id="XMLID_1312_" class="st2" d="M60.9,2c-0.8,0-0.8,1.2,0,1.2S61.7,2,60.9,2z"/>
		<path id="XMLID_1311_" class="st2" d="M85.5,24.3c-1.5,0-1.5,2.4,0,2.4C87.1,26.7,87.1,24.3,85.5,24.3z"/>
		<path id="XMLID_1310_" class="st2" d="M100.6,6c-1.5,0-1.5,2.3,0,2.3S102.1,6,100.6,6z"/>
		<path id="XMLID_1309_" class="st2" d="M123.5,3c-1.2,0-1.2,1.9,0,1.9S124.7,3,123.5,3z"/>
		<path id="XMLID_1308_" class="st2" d="M125.7,10.1c-1.3,0-1.3,2.1,0,2.1C127.1,12.1,127.1,10.1,125.7,10.1z"/>
		<path id="XMLID_1307_" class="st2" d="M148,23.1c-1.3,0-1.3,2.1,0,2.1C149.4,25.2,149.4,23.1,148,23.1z"/>
		<path id="XMLID_1306_" class="st2" d="M154.1,2.8c-0.1,0-0.1-0.1-0.2-0.1c-0.7-0.3-1.3,0.3-1,1c0,0.1,0.1,0.1,0.1,0.2
			c0.2,0.5,1,0.5,1.3,0.2C154.6,3.8,154.6,3.1,154.1,2.8z"/>
		<path id="XMLID_1305_" class="st2" d="M67.6,155.6c-1.7,0-1.7,2.6,0,2.6C69.2,158.2,69.2,155.6,67.6,155.6z"/>
		<path id="XMLID_1304_" class="st2" d="M151.8,59.5c-0.9,0-0.9,1.4,0,1.4C152.8,60.9,152.8,59.5,151.8,59.5z"/>
		<path id="XMLID_1303_" class="st2" d="M150,62.9c-1.4,0-1.4,2.2,0,2.2C151.5,65.1,151.5,62.9,150,62.9z"/>
		<path id="XMLID_1302_" class="st2" d="M149.9,94.6c-1.3,0-1.3,2,0,2C151.2,96.5,151.2,94.6,149.9,94.6z"/>
		<path id="XMLID_1301_" class="st2" d="M151.9,106.4c-1.8,0-1.8,2.8,0,2.8C153.7,109.2,153.7,106.4,151.9,106.4z"/>
		<path id="XMLID_1300_" class="st2" d="M152.7,132c-1.8,0-1.8,2.8,0,2.8S154.5,132,152.7,132z"/>
		<path id="XMLID_1299_" class="st2" d="M151,154.8c-1.1,0-1.1,1.8,0,1.8C152.1,156.5,152.1,154.8,151,154.8z"/>
		<path id="XMLID_1298_" class="st2" d="M130.8,156.8c-1.8,0-1.8,2.8,0,2.8S132.6,156.8,130.8,156.8z"/>
		<path id="XMLID_1297_" class="st2" d="M112,146c-1.7,0-1.7,2.6,0,2.6C113.7,148.7,113.7,146,112,146z"/>
		<path id="XMLID_1296_" class="st2" d="M140.6,156.9c-0.8,0-0.8,1.3,0,1.3C141.4,158.1,141.4,156.9,140.6,156.9z"/>
		<path id="XMLID_1295_" class="st2" d="M132.2,151.7c-1.7,0-1.7,2.6,0,2.6S133.9,151.7,132.2,151.7z"/>
		<path id="XMLID_1294_" class="st2" d="M70.2,157.9c-1,0-1,1.5,0,1.5C71.2,159.3,71.2,157.9,70.2,157.9z"/>
		<path id="XMLID_1293_" class="st2" d="M91.5,155.5c-2.2,0-2.2,3.4,0,3.4S93.7,155.5,91.5,155.5z"/>
		<path id="XMLID_1292_" class="st2" d="M11.7,126.5c-1,0-1,1.5,0,1.5C12.6,128,12.6,126.5,11.7,126.5z"/>
		<path id="XMLID_1291_" class="st2" d="M4.1,135.2c-1.5,0-1.5,2.3,0,2.3S5.6,135.2,4.1,135.2z"/>
		<path id="XMLID_1290_" class="st2" d="M8.2,141.7c-0.3-0.1-0.6-0.1-0.9,0c-1.2,0.4-1.2,2.1,0,2.4c0.3,0.1,0.6,0.1,0.9,0
			c0.5-0.1,1-0.7,0.9-1.2C9.1,142.4,8.8,141.8,8.2,141.7z"/>
		<path id="XMLID_1289_" class="st2" d="M5.9,90c-1.4,0-1.4,2.1,0,2.1C7.2,92.1,7.2,90,5.9,90z"/>
		<path id="XMLID_1288_" class="st2" d="M12,66.4c-1.9,0-1.9,3,0,3S13.9,66.4,12,66.4z"/>
		<path id="XMLID_1287_" class="st2" d="M7.8,45.8c-1,0-1,1.6,0,1.6C8.8,47.5,8.8,45.8,7.8,45.8z"/>
		<path id="XMLID_1286_" class="st2" d="M3,28.1L3,28.1c-0.6-0.4-1.2-0.2-1.7,0.2c0,0,0,0-0.1,0.1c-0.5,0.4-0.5,1.4,0,1.8
			c0,0,0,0,0.1,0.1c0.5,0.4,1.1,0.5,1.6,0.2c0,0,0.1,0,0.1-0.1C3.9,29.8,3.9,28.6,3,28.1z"/>
		<path id="XMLID_1285_" class="st2" d="M12.1,23.8c-0.3-0.1-0.6-0.2-0.9,0.1c-0.4,0.3-0.4,0.8-0.1,1.2c0.3,0.3,0.8,0.3,1.1,0
			C12.6,24.7,12.6,24,12.1,23.8z"/>
		<path id="XMLID_1284_" class="st2" d="M17.5,2.6c-1.9,0-1.9,3,0,3C19.5,5.6,19.5,2.6,17.5,2.6z"/>
		<path id="XMLID_1283_" class="st2" d="M18.7,0c-0.5,0-0.5,0.8,0,0.8S19.2,0,18.7,0z"/>
		<path id="XMLID_1282_" class="st2" d="M139.2,158.6c-1,0-1,1.6,0,1.6C140.2,160.1,140.2,158.6,139.2,158.6z"/>
		<path id="XMLID_1281_" class="st2" d="M156,147.3c-1,0-1,1.6,0,1.6C157,148.9,157,147.3,156,147.3z"/>
		<path id="XMLID_1280_" class="st2" d="M151.4,68.6c-1.1,0-1.1,1.8,0,1.8C152.6,70.3,152.6,68.6,151.4,68.6z"/>
		<path id="XMLID_1279_" class="st2" d="M152.5,23c-0.9,0-0.9,1.4,0,1.4S153.4,23,152.5,23z"/>
		<path id="XMLID_1278_" class="st2" d="M127.7,142.4c-0.6,0-1,0.8-0.5,1.3c0,0,0,0,0.1,0.1c0.3,0.3,0.7,0.3,1,0c0,0,0,0,0.1-0.1
			C128.7,143.2,128.3,142.4,127.7,142.4z"/>
		<path id="XMLID_1277_" class="st2" d="M154.4,97.8c0-1-1.5-1-1.6,0v0.1C152.8,98.9,154.4,98.9,154.4,97.8
			C154.4,97.8,154.4,97.8,154.4,97.8z"/>
		<path id="XMLID_1276_" class="st2" d="M149.8,133.2c-1.3,0-1.3,2,0,2S151.1,133.2,149.8,133.2z"/>
		<path id="XMLID_1275_" class="st2" d="M150.8,112.1c-1,0-1,1.5,0,1.5C151.7,113.6,151.7,112.1,150.8,112.1z"/>
		<path id="XMLID_1274_" class="st2" d="M23.9,156.6c-1.1,0-1.1,1.7,0,1.7C25,158.4,25,156.6,23.9,156.6z"/>
		<path id="XMLID_1273_" class="st2" d="M110.3,1.8c-0.5-0.4-1.2-0.2-1.5,0.3s-0.1,1.1,0.4,1.4s1.3,0,1.5-0.6
			C110.7,2.4,110.6,2.1,110.3,1.8z"/>
		<path id="XMLID_1272_" class="st2" d="M96.3,9.5l-0.2-0.1C95.6,9.1,95,9.4,95,10c0,0.5,0.6,0.9,1.1,0.6l0.2-0.1
			C96.7,10.3,96.7,9.7,96.3,9.5z"/>
		<path id="XMLID_1271_" class="st2" d="M132.8,6.8c-1.2,0-1.3,1.9,0,1.9C134.1,8.8,134.1,6.8,132.8,6.8z"/>
		<path id="XMLID_1270_" class="st2" d="M42.3,2.1c-0.8,0-0.8,1.2,0,1.2S43.1,2.1,42.3,2.1z"/>
		<path id="XMLID_3_" class="st2" d="M6.7,132.1c-1.4,0-1.4,2.1,0,2.1C8,134.2,8.1,132.1,6.7,132.1z"/>
		<polygon id="XMLID_5_" class="st2" points="151.6,35.2 150.4,38.7 146.8,39.7 149.8,40.4 148.7,43.9 151.3,41.5 154.5,43.5 
			153.2,40.5 156,39.3 152.6,38.7 		"/>
		<polygon id="XMLID_6_" class="st2" points="149.1,71.7 148,75 144.6,75.9 147.4,76.6 146.4,79.8 148.9,77.6 151.9,79.5 
			150.7,76.6 153.3,75.6 150.1,75 		"/>
	</g>
	<rect x="9.2" y="7.2" class="st3" width="137.9" height="148.8"/>
	<rect x="13.3" y="11.6" class="st4" width="129.8" height="140"/>
</g>
</svg>
