<?xml version="1.0" encoding="utf-8"?>
<!-- Generator: Adobe Illustrator 21.0.0, SVG Export Plug-In . SVG Version: 6.00 Build 0)  -->
<svg version="1.1" id="Layer_1" xmlns="http://www.w3.org/2000/svg" xmlns:xlink="http://www.w3.org/1999/xlink" x="0px" y="0px"
	 viewBox="0 0 911 636" style="enable-background:new 0 0 911 636;" xml:space="preserve">
<style type="text/css">
	.st0{fill:#FFAD36;}
	.st1{fill:#FFFFFF;stroke:#FFB45A;stroke-miterlimit:10;}
	.st2{fill:url(#SVGID_3_);}
</style>
<g>
	<path class="st0" d="M880.8,88.6H764.5c-11,0-20-9-20-20V22.1c0-11,9-20,20-20h116.3c11,0,20,9,20,20v46.5
		C900.8,79.6,891.8,88.6,880.8,88.6z"/>
	<g>
		<g>
			<g>
				<path class="st1" d="M888.8,629.7H23.9c-10.3,0-18.8-8.4-18.8-18.8V69.2c0-10.3,8.4-18.8,18.8-18.8h864.9
					c10.3,0,18.8,8.4,18.8,18.8v541.7C907.6,621.2,899.2,629.7,888.8,629.7"/>
			</g>
			<g>
				<defs>
					<rect id="SVGID_1_" x="-21.1" y="-35.9" width="960.3" height="670.6"/>
				</defs>
				<clipPath id="SVGID_2_">
					<use xlink:href="#SVGID_1_"  style="overflow:visible;"/>
				</clipPath>
			</g>
		</g>
		<linearGradient id="SVGID_3_" gradientUnits="userSpaceOnUse" x1="455.5" y1="327.9248" x2="455.5" y2="570.616">
			<stop  offset="0" style="stop-color:#FFFFFF;stop-opacity:0"/>
			<stop  offset="1" style="stop-color:#FFFFFF"/>
		</linearGradient>
		<rect y="328.8" class="st2" width="911" height="306"/>
	</g>
</g>
</svg>
