<?xml version="1.0" encoding="utf-8"?>
<!-- Generator: Adobe Illustrator 16.0.0, SVG Export Plug-In . SVG Version: 6.00 Build 0)  -->
<!DOCTYPE svg PUBLIC "-//W3C//DTD SVG 1.1//EN" "http://www.w3.org/Graphics/SVG/1.1/DTD/svg11.dtd">
<svg version="1.1" id="Capa_1" xmlns="http://www.w3.org/2000/svg" xmlns:xlink="http://www.w3.org/1999/xlink" x="0px" y="0px"
	 width="512px" height="512px" viewBox="0 0 512 512" enable-background="new 0 0 512 512" xml:space="preserve">
<g>
	<g>
		<path fill="#FFFFFF" d="M319.073,442.076c-6.186-6.188-9.591-14.401-9.587-23.125l0.003-21.256l-21.142,0.002
			c-8.728,0-16.938-3.407-23.121-9.59c-6.182-6.188-9.586-14.397-9.583-23.121l0.007-59.608c0.008-18.03,14.679-32.7,32.704-32.708
			l21.154-0.007l0.003-21.263c0-18.034,14.671-32.708,32.708-32.713l59.391-0.007h0.003c18.034,0,32.704,14.672,32.704,32.713
			l-0.007,21.25l21.136-0.004c8.729,0,16.938,3.407,23.12,9.59c1.117,1.121,2.115,2.328,3.048,3.571
			C501.751,250.694,512,215.121,512,179.831c0-77.226-62.828-140.052-140.052-140.052c-34.592,0-68.091,21.452-99.564,63.764
			c-6.21,8.345-11.704,16.67-16.384,24.315c-4.685-7.647-10.175-15.972-16.384-24.315c-31.477-42.31-64.974-63.764-99.566-63.764
			C62.824,39.779,0,102.607,0,179.831c0,40.014,13.102,80.405,38.938,120.054c19.878,30.5,47.369,60.674,81.706,89.68
			c57.589,48.647,114.481,77.326,116.876,78.52c6.828,3.415,13.818,4.136,18.479,4.136c4.659,0,11.648-0.721,18.48-4.136
			c1.32-0.66,19.265-9.703,44.762-25.856C319.188,442.173,319.127,442.13,319.073,442.076z"/>
	</g>
	<g>
		<path fill="#FFFFFF" d="M401.615,242.512h-0.004l-59.387,0.009c-4.733,0.001-8.609,3.875-8.609,8.609l-0.01,36.752
			c0,4.733-3.872,8.609-8.609,8.61l-36.633,0.011c-4.732,0.002-8.604,3.878-8.608,8.61l-0.003,59.604
			c-0.004,4.731,3.868,8.604,8.599,8.604c0.003,0,0.003,0,0.003,0l36.637-0.008h0.004c4.733,0,8.603,3.871,8.603,8.606
			l-0.007,36.759c-0.003,4.735,3.872,8.605,8.604,8.605l59.377-0.015c4.733,0,8.609-3.875,8.609-8.608l0.01-36.756
			c0-4.734,3.876-8.608,8.609-8.61l36.633-0.012c4.737-0.003,8.608-3.878,8.608-8.611l0.008-59.599c0-4.732-3.868-8.605-8.603-8.605
			h-0.004l-36.633,0.008c-4.734,0-8.606-3.871-8.606-8.604l0.012-36.755C410.215,246.386,406.347,242.512,401.615,242.512z"/>
	</g>
</g>
</svg>
