<?xml version="1.0" encoding="utf-8"?>
<!-- Generator: Adobe Illustrator 16.0.0, SVG Export Plug-In . SVG Version: 6.00 Build 0)  -->
<!DOCTYPE svg PUBLIC "-//W3C//DTD SVG 1.1//EN" "http://www.w3.org/Graphics/SVG/1.1/DTD/svg11.dtd">
<svg version="1.1" id="Isolation_Mode" xmlns="http://www.w3.org/2000/svg" xmlns:xlink="http://www.w3.org/1999/xlink" x="0px"
	 y="0px" width="6.385px" height="7.926px" viewBox="0 0 6.385 7.926" enable-background="new 0 0 6.385 7.926"
	 xml:space="preserve">
<path fill="#CECECE" d="M5.691,2.62H5.209V2.017C5.209,0.903,4.301,0,3.189,0C2.077,0,1.173,0.903,1.173,2.017V2.62H0.687
	C0.311,2.62,0,2.93,0,3.306v3.93c0,0.382,0.311,0.69,0.687,0.69h5.005c0.381,0,0.693-0.309,0.693-0.69v-3.93
	C6.385,2.93,6.072,2.62,5.691,2.62z M2.084,2.017c0-0.611,0.494-1.106,1.105-1.106c0.61,0,1.107,0.495,1.107,1.106V2.62H2.084V2.017
	z M3.563,6.109v1.002c0,0.044-0.037,0.074-0.078,0.074h-0.48c-0.036,0-0.072-0.03-0.072-0.074V6.109
	c-0.33-0.128-0.566-0.443-0.566-0.821c0-0.485,0.395-0.881,0.883-0.881c0.485,0,0.879,0.396,0.879,0.881
	C4.127,5.666,3.892,5.981,3.563,6.109z"/>
</svg>
