<?xml version="1.0" encoding="utf-8"?>
<!-- Generator: Adobe Illustrator 19.2.0, SVG Export Plug-In . SVG Version: 6.00 Build 0)  -->
<svg version="1.1" id="Isolation_Mode" xmlns="http://www.w3.org/2000/svg" xmlns:xlink="http://www.w3.org/1999/xlink" x="0px"
	 y="0px" viewBox="0 0 348.4 88" style="enable-background:new 0 0 348.4 88;" xml:space="preserve">
<style type="text/css">
	.st0{fill:#FFFFFF;}
</style>
<g>
	<g>
		<path class="st0" d="M154.3,43.9c0.8-0.2,2.2-0.4,3.5-0.4c1.9,0,3.2,0.4,4.1,1.3c0.8,0.7,1.3,1.7,1.3,3.1c0,1.7-1,3.2-2.5,3.9v0.1
			c1.4,0.4,3.1,1.8,3.1,4.4c0,1.5-0.5,2.7-1.3,3.5c-1,1.1-2.7,1.6-5.2,1.6c-1.3,0-2.4-0.1-3-0.2V43.9z M156.2,51.1h1.8
			c2.1,0,3.3-1.2,3.3-2.9c0-2.1-1.3-2.9-3.3-2.9c-0.9,0-1.4,0.1-1.7,0.2V51.1z M156.2,59.5c0.4,0.1,0.9,0.1,1.6,0.1
			c2,0,3.9-0.9,3.9-3.4c0-2.4-1.8-3.4-3.9-3.4h-1.6V59.5z"/>
		<path class="st0" d="M166.3,52.6c0-1.5,0-2.8-0.1-3.9h1.7l0.1,2.5h0.1c0.5-1.7,1.7-2.8,3-2.8c0.2,0,0.4,0,0.6,0.1v2.2
			c-0.2-0.1-0.4-0.1-0.7-0.1c-1.4,0-2.4,1.2-2.6,2.9c0,0.3-0.1,0.7-0.1,1.1v6.7h-1.9V52.6z"/>
		<path class="st0" d="M175.9,45.1c0,0.8-0.5,1.4-1.2,1.4c-0.7,0-1.2-0.6-1.2-1.4c0-0.8,0.5-1.4,1.2-1.4
			C175.4,43.7,175.9,44.3,175.9,45.1z M173.7,61.2V48.6h2v12.6H173.7z"/>
		<path class="st0" d="M188.2,48.6c0,0.9-0.1,1.9-0.1,3.5v7.3c0,2.9-0.5,4.7-1.5,5.7c-1,1.1-2.6,1.5-3.9,1.5c-1.3,0-2.7-0.4-3.6-1
			l0.5-1.7c0.7,0.5,1.8,1,3.2,1c2,0,3.5-1.2,3.5-4.4v-1.4h0c-0.6,1.2-1.8,2.1-3.4,2.1c-2.7,0-4.6-2.7-4.6-6.1c0-4.3,2.4-6.7,4.9-6.7
			c1.9,0,2.9,1.1,3.4,2.2h0l0.1-1.9H188.2z M186.2,53.6c0-0.4,0-0.7-0.1-1c-0.4-1.3-1.3-2.4-2.7-2.4c-1.9,0-3.2,1.8-3.2,4.8
			c0,2.5,1.1,4.5,3.2,4.5c1.2,0,2.3-0.9,2.7-2.3c0.1-0.4,0.2-0.8,0.2-1.2V53.6z"/>
		<path class="st0" d="M191.4,42.7h2v7.9h0c0.3-0.7,0.8-1.2,1.4-1.6c0.6-0.4,1.3-0.7,2-0.7c1.4,0,3.8,1,3.8,5.4v7.5h-2V54
			c0-2-0.6-3.7-2.5-3.7c-1.3,0-2.3,1-2.6,2.3c-0.1,0.3-0.1,0.7-0.1,1.1v7.6h-2V42.7z"/>
		<path class="st0" d="M206,45v3.6h2.8v1.7H206v6.8c0,1.6,0.4,2.4,1.5,2.4c0.5,0,0.9-0.1,1.1-0.2l0.1,1.7c-0.4,0.2-1,0.3-1.7,0.3
			c-0.9,0-1.7-0.3-2.1-1c-0.6-0.7-0.8-1.8-0.8-3.3v-6.9h-1.7v-1.7h1.7v-3L206,45z"/>
		<path class="st0" d="M217.8,43.7V51h7.3v-7.3h2v17.5h-2V53h-7.3v8.2h-1.9V43.7H217.8z"/>
		<path class="st0" d="M240.1,54.8c0,4.7-2.8,6.7-5.4,6.7c-2.9,0-5.2-2.5-5.2-6.5c0-4.2,2.4-6.7,5.4-6.7
			C238,48.3,240.1,51,240.1,54.8z M231.5,55c0,2.8,1.4,4.8,3.3,4.8c1.9,0,3.3-2.1,3.3-4.9c0-2.1-0.9-4.8-3.2-4.8
			C232.6,50.1,231.5,52.6,231.5,55z"/>
		<path class="st0" d="M242.6,52.6c0-1.5,0-2.8-0.1-3.9h1.7l0.1,2.5h0.1c0.5-1.7,1.7-2.8,3-2.8c0.2,0,0.4,0,0.6,0.1v2.2
			c-0.2-0.1-0.4-0.1-0.7-0.1c-1.4,0-2.4,1.2-2.6,2.9c0,0.3-0.1,0.7-0.1,1.1v6.7h-1.9V52.6z"/>
		<path class="st0" d="M252.2,45.1c0,0.8-0.5,1.4-1.3,1.4c-0.7,0-1.2-0.6-1.2-1.4c0-0.8,0.5-1.4,1.2-1.4
			C251.7,43.7,252.2,44.3,252.2,45.1z M250,61.2V48.6h2v12.6H250z"/>
		<path class="st0" d="M254,59.9l4.9-7.4c0.5-0.7,0.9-1.3,1.4-2v-0.1h-5.8v-1.8h8.2l0,1.4l-4.8,7.3c-0.4,0.7-0.9,1.3-1.4,2v0.1h6.3
			v1.8H254V59.9z"/>
		<path class="st0" d="M274.4,54.8c0,4.7-2.8,6.7-5.4,6.7c-2.9,0-5.2-2.5-5.2-6.5c0-4.2,2.4-6.7,5.4-6.7
			C272.3,48.3,274.4,51,274.4,54.8z M265.8,55c0,2.8,1.4,4.8,3.3,4.8c1.9,0,3.3-2.1,3.3-4.9c0-2.1-0.9-4.8-3.2-4.8
			C266.8,50.1,265.8,52.6,265.8,55z"/>
		<path class="st0" d="M276.8,52c0-1.3,0-2.4-0.1-3.4h1.7l0.1,2.1h0c0.5-1.2,1.8-2.4,3.6-2.4c1.5,0,3.8,1,3.8,5.4v7.5h-2V54
			c0-2-0.6-3.7-2.5-3.7c-1.3,0-2.3,1.1-2.6,2.3c-0.1,0.3-0.1,0.7-0.1,1.1v7.6h-2V52z"/>
		<path class="st0" d="M294,43.9c0.8-0.2,2.2-0.4,3.5-0.4c1.9,0,3.2,0.4,4.1,1.3c0.8,0.7,1.3,1.7,1.3,3.1c0,1.7-1,3.2-2.5,3.9v0.1
			c1.4,0.4,3.1,1.8,3.1,4.4c0,1.5-0.5,2.7-1.3,3.5c-1,1.1-2.7,1.6-5.2,1.6c-1.3,0-2.4-0.1-3-0.2V43.9z M296,51.1h1.8
			c2.1,0,3.3-1.2,3.3-2.9c0-2.1-1.3-2.9-3.3-2.9c-0.9,0-1.4,0.1-1.7,0.2V51.1z M296,59.5c0.4,0.1,0.9,0.1,1.6,0.1
			c2,0,3.9-0.9,3.9-3.4c0-2.4-1.8-3.4-3.9-3.4H296V59.5z"/>
		<path class="st0" d="M315.9,54.8c0,4.7-2.8,6.7-5.4,6.7c-2.9,0-5.2-2.5-5.2-6.5c0-4.2,2.4-6.7,5.4-6.7
			C313.8,48.3,315.9,51,315.9,54.8z M307.3,55c0,2.8,1.4,4.8,3.3,4.8c1.9,0,3.3-2.1,3.3-4.9c0-2.1-0.9-4.8-3.2-4.8
			C308.3,50.1,307.3,52.6,307.3,55z"/>
		<path class="st0" d="M328.2,54.8c0,4.7-2.8,6.7-5.4,6.7c-2.9,0-5.2-2.5-5.2-6.5c0-4.2,2.4-6.7,5.4-6.7
			C326.1,48.3,328.2,51,328.2,54.8z M319.6,55c0,2.8,1.4,4.8,3.3,4.8c1.9,0,3.3-2.1,3.3-4.9c0-2.1-0.9-4.8-3.2-4.8
			C320.6,50.1,319.6,52.6,319.6,55z"/>
		<path class="st0" d="M332.6,54.4L332.6,54.4c0.3-0.4,0.7-1,1-1.4l3.2-4.3h2.4l-4.2,5.2l4.8,7.4h-2.4l-3.7-6l-1,1.3v4.7h-1.9V42.7
			h1.9V54.4z"/>
		<path class="st0" d="M340.8,58.9c0.6,0.4,1.6,0.9,2.6,0.9c1.4,0,2.1-0.8,2.1-1.9c0-1.1-0.6-1.7-2-2.3c-1.9-0.8-2.9-2.1-2.9-3.6
			c0-2,1.4-3.7,3.7-3.7c1.1,0,2.1,0.4,2.7,0.8l-0.5,1.7c-0.4-0.3-1.2-0.7-2.2-0.7c-1.2,0-1.8,0.8-1.8,1.7c0,1,0.6,1.5,2.1,2.1
			c1.9,0.8,2.8,1.9,2.8,3.8c0,2.2-1.5,3.8-4,3.8c-1.2,0-2.3-0.3-3-0.9L340.8,58.9z"/>
	</g>
	<g>
		<g>
			<g>
				<path class="st0" d="M40.9,57.5c9.1-3.2,23.3-4.6,30.4,4.6c0.7,0.9,1.2,1.9,1.6,2.9c0.1,0.1,0.7,1.7,0.1,1
					c-7.6-9.8-22.9-5.5-32.5-3.1c-10.8,2.7-22,3.7-34.1,3.4l3.4-4.6C21,61.6,30.7,61.1,40.9,57.5z"/>
				<path class="st0" d="M17.1,67.5c5.3,0,20.3-2.2,26.8-3.3c10.5-1.8,20.2-1.6,28.9,4.9c2,1.5,1.1,2-1.2,0.8
					c-10.6-5.3-20.2-3.2-31.3-1.2c-5.6,1-18,2.6-23.7,2.6c-5,0-9.4,0-13.6,0l2.6-3.8C9,67.5,12.7,67.5,17.1,67.5z"/>
				<path class="st0" d="M105.9,57.5c-9.1-3.2-23.3-4.6-30.4,4.6c-0.7,0.9-1.2,1.9-1.6,2.9c-0.1,0.1-0.7,1.7-0.1,1
					c7.6-9.8,22.9-5.5,32.5-3.1c10.8,2.7,22,3.7,34.1,3.4l-3.4-4.6C125.8,61.6,116.1,61.1,105.9,57.5z"/>
				<path class="st0" d="M129.7,67.5c-5.3,0-20.3-2.2-26.8-3.3c-10.5-1.8-20.2-1.6-28.9,4.9c-2,1.5-1.1,2,1.2,0.8
					c10.6-5.3,20.2-3.2,31.3-1.2c5.6,1,18,2.6,23.7,2.6c5,0,9.4,0,13.6,0l-2.6-3.8C137.8,67.5,134.1,67.5,129.7,67.5z"/>
			</g>
			<g>
				<path class="st0" d="M89.9,20.3l-3.5-3.1c-2.8,5.2-5.3,8.3-6.4,14.5c1.5,0.3,2.4,0.5,4,0.8C85.2,27.1,86.4,26,89.9,20.3z"/>
				<path class="st0" d="M47.6,50.6c1.7-0.6,2.4,0.5,7.2,0.8c0-1.6,0-2.3-0.1-3.8c-3.9,0-5.1-1.9-7-1.4c-3.8,1-5.9,2.7-8.9-0.2
					l-0.6,4C41.3,52,43.6,52,47.6,50.6z"/>
				<path class="st0" d="M58.4,39l0.7-3.5c-8.6-1-6.3-0.9-9.9-7.3l-3.5,1.5C48.9,37.8,50.3,38.5,58.4,39z"/>
				<path class="st0" d="M70.3,31.7c-2.4-5.7-1.7-6.1-1.3-10.8l-3.9-0.5c-0.9,5.5-1.1,6.7,1.3,12.6L70.3,31.7z"/>
				<path class="st0" d="M91.3,39.9c7-4.9,5.5-4.9,8.9-9.5l-3.3-2c-3,4.1-1.8,4.5-7.8,8.3L91.3,39.9z"/>
				<path class="st0" d="M96,51.5c4-1.2,4.3-1.1,10.6-7.1l-2.2-2.6c-3.8,4-5.1,4.3-9.7,5.4L96,51.5z"/>
				<path class="st0" d="M62.9,50.2c0.2-5.5,3.8-10.8,10.6-11.3c6.9-0.5,13.4,4.4,12.9,11.1c-0.1,1.3-0.5,2.5-1.1,3.5
					c1.9-0.5,3.9-0.8,6-0.9c0.2-0.8,0.4-1.6,0.5-2.5c0.8-9.7-8.7-16.9-18.6-16.1c-9.9,0.8-15.1,8.4-15.4,16.4c0,0.8,0,1.6,0.1,2.3
					c1.9,0.2,3.8,0.5,5.6,1C63,52.7,62.8,51.5,62.9,50.2z"/>
			</g>
		</g>
	</g>
</g>
</svg>
