<?xml version="1.0" encoding="utf-8"?>
<!-- Generator: Adobe Illustrator 19.2.0, SVG Export Plug-In . SVG Version: 6.00 Build 0)  -->
<svg version="1.1" id="Layer_1" xmlns:svgjs="http://svgjs.com/svgjs"
	 xmlns="http://www.w3.org/2000/svg" xmlns:xlink="http://www.w3.org/1999/xlink" x="0px" y="0px" viewBox="0 0 512 512"
	 style="enable-background:new 0 0 512 512;" xml:space="preserve">
<style type="text/css">
	.st0{fill:#4FB9C1;}
	.st1{fill:#FFFFFF;}
</style>
<path class="st0" d="M437.1,74.9C337.2-25,174.8-25,74.9,74.9s-99.9,262.3,0,362.2s262.3,99.9,362.2,0
	C537,337.2,537,174.8,437.1,74.9z"/>
<g>
	<g>
		<g>
			<path class="st1" d="M364.1,114.3h-58c-2.9-25.1-24.2-44.6-50.1-44.6c-25.9,0-47.2,19.6-50.1,44.6h-58
				c-23.5,0-42.6,19.1-42.6,42.6v2.2c0,17.9,11.2,33.3,26.9,39.6v201.1c0,23.5,19.1,42.6,42.6,42.6h162.4
				c23.5,0,42.6-19.1,42.6-42.6V198.6c15.7-6.3,26.9-21.6,26.9-39.6v-2.2C406.7,133.4,387.6,114.3,364.1,114.3z M256,89.9
				c14.7,0,27,10.5,29.7,24.5h-59.4C229,100.4,241.3,89.9,256,89.9z M359.6,399.8c0,12.3-10,22.4-22.4,22.4H174.8
				c-12.3,0-22.4-10-22.4-22.4V201.7h207.2V399.8z M386.5,159.1c0,12.3-10,22.4-22.4,22.4H147.9c-12.3,0-22.4-10-22.4-22.4v-2.2
				c0-12.3,10-22.4,22.4-22.4h216.2c12.3,0,22.4,10,22.4,22.4L386.5,159.1L386.5,159.1z"/>
			<path class="st1" d="M201.9,396.3c5.6,0,10.1-4.5,10.1-10.1V272.6c0-5.6-4.5-10.1-10.1-10.1s-10.1,4.5-10.1,10.1v113.7
				C191.8,391.8,196.3,396.3,201.9,396.3z"/>
			<path class="st1" d="M256,396.3c5.6,0,10.1-4.5,10.1-10.1V272.6c0-5.6-4.5-10.1-10.1-10.1c-5.6,0-10.1,4.5-10.1,10.1v113.7
				C245.9,391.8,250.4,396.3,256,396.3z"/>
			<path class="st1" d="M310.1,396.3c5.6,0,10.1-4.5,10.1-10.1V272.6c0-5.6-4.5-10.1-10.1-10.1c-5.6,0-10.1,4.5-10.1,10.1v113.7
				C300,391.8,304.6,396.3,310.1,396.3z"/>
		</g>
	</g>
</g>
</svg>
