<?xml version="1.0" encoding="utf-8"?>
<!-- Generator: Adobe Illustrator 21.0.0, SVG Export Plug-In . SVG Version: 6.00 Build 0)  -->
<svg version="1.1" id="Layer_1" xmlns="http://www.w3.org/2000/svg" xmlns:xlink="http://www.w3.org/1999/xlink" x="0px" y="0px"
	 viewBox="0 0 231.5 209.5" style="enable-background:new 0 0 231.5 209.5;" xml:space="preserve">
<style type="text/css">
	.st0{fill:none;}
	.st1{clip-path:url(#SVGID_2_);}
	.st2{fill:#FFFFFF;}
	.st3{opacity:0.5;fill:url(#SVGID_3_);}
	.st4{opacity:0.5;fill:#E8F7FF;}
	.st5{opacity:0.8;}
	.st6{fill:#E8F7FF;}
	.st7{opacity:0.8;fill:url(#SVGID_4_);}
	.st8{fill:#D6EAF5;}
	.st9{fill:#454545;}
	.st10{fill:#EBEBEB;}
	.st11{opacity:0.1;fill:#606060;}
</style>
<path class="st0" d="M216.4,210.4h-201c-8.3,0-15-6.8-15-15v-179c0-8.3,6.8-15,15-15h201c8.3,0,15,6.8,15,15v179
	C231.4,203.7,224.6,210.4,216.4,210.4z"/>
<g>
	<defs>
		<path id="SVGID_1_" d="M216.3,209.3h-201c-8.3,0-15-6.8-15-15v-179c0-8.3,6.8-15,15-15h201c8.3,0,15,6.8,15,15v179
			C231.3,202.5,224.5,209.3,216.3,209.3z"/>
	</defs>
	<clipPath id="SVGID_2_">
		<use xlink:href="#SVGID_1_"  style="overflow:visible;"/>
	</clipPath>
	<g class="st1">
		<rect x="-31.5" y="-3.6" class="st2" width="325.2" height="216.8"/>
		<rect x="-31.5" y="166.5" class="st2" width="325.2" height="4"/>
		<g>
			<linearGradient id="SVGID_3_" gradientUnits="userSpaceOnUse" x1="1.9939" y1="166.1104" x2="228.7439" y2="166.1104">
				<stop  offset="0" style="stop-color:#ACACAC;stop-opacity:0.1"/>
				<stop  offset="0.5351" style="stop-color:#ACACAC"/>
				<stop  offset="1" style="stop-color:#ACACAC;stop-opacity:4.000000e-02"/>
			</linearGradient>
			<rect x="2" y="133.7" class="st3" width="226.8" height="64.8"/>
			<path class="st4" d="M219.5,117.2c3.1-3,5-6.9,5-11.1c0-3.1-1-6-2.7-8.5c-0.6-0.9-1.3-1.7-2.1-2.5c2.1-4.9,3.3-10.3,3.3-15.9
				c0-24.9-23.2-45.1-51.9-45.1c-17.1,0-32.3,7.2-41.7,18.3c-8.7-6.4-20.2-10.3-32.8-10.3C77,42.1,60.1,51.7,52,65.5
				c-1.6-0.2-3.3-0.4-5-0.4c-17,0-30.8,12.3-30.8,27.5c0,9.6,5.6,18.1,14,23c-2.1,1.8-4.1,3.8-5.8,5.9c-2.2,2.6-4.2,5.4-5.8,8.4
				c0.1,0.2,2,3.5,2.2,3.7h203.1c0.1-0.2,0.2-0.7,0.4-0.7c4.2-0.5,3.7,6.8,4.2-1.2c0-0.1,0-0.2,0-0.3c0-0.1,0-0.2,0-0.2
				c0-0.8,0.1-1.5,0.1-2.3C228.5,117.1,227.1,126.2,219.5,117.2z"/>
			<g class="st5">
				<path class="st6" d="M215.3,30.5h-22.2l8.8-1.7c0,0-1.1-2.6,1.7-2.3c0,0-0.4-3,2.3-2.3c0,0,0.2-3,3.5-2.7
					c3.3,0.3,1.8,3.8,1.8,3.8s3.5-2.4,5.4,0C218.5,27.7,215.3,30.5,215.3,30.5z"/>
				<path class="st6" d="M16.5,32.6h63.9L57.3,29c0,0-0.1-6.9-7.7-4.1c0,0-0.6-5.3-6.5-5.5c-5.9-0.3-5.5,4.8-5.5,4.8
					s-7.5-4.9-11.8-0.1c-4.4,4.8,2.6,6,2.6,6L16.5,32.6z"/>
				<path class="st6" d="M219.5,75.8h-31.2l12.4-2.3c0,0-1.6-3.6,2.3-3.3c0,0-0.5-4.2,3.2-3.3c0,0,0.2-4.2,4.9-3.8
					c4.7,0.4,2.6,5.4,2.6,5.4s4.9-3.4,7.5,0C223.9,71.9,219.5,75.8,219.5,75.8z"/>
			</g>
			<g>
				<linearGradient id="SVGID_4_" gradientUnits="userSpaceOnUse" x1="115.941" y1="28.8642" x2="115.941" y2="126.8644">
					<stop  offset="0" style="stop-color:#D6EAF5"/>
					<stop  offset="1" style="stop-color:#D6EAF5;stop-opacity:3.513514e-02"/>
				</linearGradient>
				<path class="st7" d="M196.2,119.2c0,0.8,0,51.6-0.1,52.4l-160.4,0.1c0-0.3,0-50.6,0-50.9c0-10.2,3-19.7,8.2-27.5l3.9,0v3.1h6.8
					V72.8h6.6V77h1.3V50.9h9v12.5H74V37.5l8.3,9v23.1H89v8.1l7.5,0.1v13.8h3.5V67l13.7-5.8V46.5h5.8v-3.3h0.9v3.2h1.8v27.8h9.2v12.3
					l14-7.1l11.9,7.5V31.8h9.7V69h2.6v-8.5h9v29.4h4.4v4.7h2.9V73.9l3.1-3.3c1.3,2.4,2,5.1,2,8c0,4-1.4,7.7-3.7,10.6
					C192.9,97.7,196.2,108.1,196.2,119.2z"/>
				<g class="st5">
					<rect x="172.5" y="79" class="st8" width="2.8" height="4"/>
					<rect x="167.2" y="79" class="st8" width="2.8" height="4"/>
					<rect x="162.1" y="79" class="st8" width="2.8" height="4"/>
					<rect x="151.7" y="91.6" class="st8" width="2.8" height="4"/>
					<rect x="146.8" y="91.6" class="st8" width="2.8" height="4"/>
					<rect x="141.8" y="91.6" class="st8" width="2.8" height="4"/>
					<rect x="136.6" y="91.6" class="st8" width="2.8" height="4"/>
					<rect x="121.7" y="83" class="st8" width="2.8" height="4"/>
					<rect x="116.5" y="83" class="st8" width="2.8" height="4"/>
					<rect x="111.7" y="83" class="st8" width="2.8" height="4"/>
					<rect x="106.7" y="83" class="st8" width="2.8" height="4"/>
					<rect x="101.6" y="83" class="st8" width="2.8" height="4"/>
					<rect x="81.4" y="83" class="st8" width="2.8" height="4"/>
					<rect x="76.3" y="83" class="st8" width="2.8" height="4"/>
					<rect x="71.4" y="83" class="st8" width="2.8" height="4"/>
					<rect x="66.4" y="83" class="st8" width="2.8" height="4"/>
					<rect x="172.5" y="86" class="st8" width="2.8" height="4"/>
					<rect x="167.2" y="86" class="st8" width="2.8" height="4"/>
					<rect x="162.1" y="86" class="st8" width="2.8" height="4"/>
					<rect x="151.7" y="98.6" class="st8" width="2.8" height="4"/>
					<rect x="146.8" y="98.6" class="st8" width="2.8" height="4"/>
					<rect x="141.8" y="98.6" class="st8" width="2.8" height="4"/>
					<rect x="136.6" y="98.6" class="st8" width="2.8" height="4"/>
					<rect x="121.7" y="90" class="st8" width="2.8" height="4"/>
					<rect x="116.5" y="90" class="st8" width="2.8" height="4"/>
					<rect x="111.7" y="90" class="st8" width="2.8" height="4"/>
					<rect x="106.7" y="90" class="st8" width="2.8" height="4"/>
					<rect x="101.6" y="90" class="st8" width="2.8" height="4"/>
					<rect x="81.4" y="90" class="st8" width="2.8" height="4"/>
					<rect x="76.3" y="90" class="st8" width="2.8" height="4"/>
					<rect x="71.4" y="90" class="st8" width="2.8" height="4"/>
					<rect x="66.4" y="90" class="st8" width="2.8" height="4"/>
					<rect x="172.5" y="93" class="st8" width="2.8" height="4"/>
					<rect x="167.2" y="93" class="st8" width="2.8" height="4"/>
					<rect x="162.1" y="93" class="st8" width="2.8" height="4"/>
					<rect x="151.7" y="105.5" class="st8" width="2.8" height="4"/>
					<rect x="146.8" y="105.5" class="st8" width="2.8" height="4"/>
					<rect x="141.8" y="105.5" class="st8" width="2.8" height="4"/>
					<rect x="136.6" y="105.5" class="st8" width="2.8" height="4"/>
					<rect x="121.7" y="96.9" class="st8" width="2.8" height="4"/>
					<rect x="116.5" y="96.9" class="st8" width="2.8" height="4"/>
					<rect x="111.7" y="96.9" class="st8" width="2.8" height="4"/>
					<rect x="106.7" y="96.9" class="st8" width="2.8" height="4"/>
					<rect x="101.6" y="96.9" class="st8" width="2.8" height="4"/>
					<rect x="81.4" y="96.9" class="st8" width="2.8" height="4"/>
					<rect x="76.3" y="96.9" class="st8" width="2.8" height="4"/>
					<rect x="71.4" y="96.9" class="st8" width="2.8" height="4"/>
					<rect x="66.4" y="96.9" class="st8" width="2.8" height="4"/>
					<rect x="172.5" y="100.3" class="st8" width="2.8" height="4"/>
					<rect x="167.2" y="100.3" class="st8" width="2.8" height="4"/>
					<rect x="162.1" y="100.3" class="st8" width="2.8" height="4"/>
					<rect x="151.7" y="112.9" class="st8" width="2.8" height="4"/>
					<rect x="146.8" y="112.9" class="st8" width="2.8" height="4"/>
					<rect x="141.8" y="112.9" class="st8" width="2.8" height="4"/>
					<rect x="136.6" y="112.9" class="st8" width="2.8" height="4"/>
					<rect x="121.7" y="104.3" class="st8" width="2.8" height="4"/>
					<rect x="116.5" y="104.3" class="st8" width="2.8" height="4"/>
					<rect x="111.7" y="104.3" class="st8" width="2.8" height="4"/>
					<rect x="106.7" y="104.3" class="st8" width="2.8" height="4"/>
					<rect x="101.6" y="104.3" class="st8" width="2.8" height="4"/>
					<rect x="81.4" y="104.3" class="st8" width="2.8" height="4"/>
					<rect x="76.3" y="104.3" class="st8" width="2.8" height="4"/>
					<rect x="71.4" y="104.3" class="st8" width="2.8" height="4"/>
					<rect x="66.4" y="104.3" class="st8" width="2.8" height="4"/>
					<rect x="172.5" y="107.3" class="st8" width="2.8" height="4"/>
					<rect x="167.2" y="107.3" class="st8" width="2.8" height="4"/>
					<rect x="162.1" y="107.3" class="st8" width="2.8" height="4"/>
					<rect x="151.7" y="119.9" class="st8" width="2.8" height="4"/>
					<rect x="146.8" y="119.9" class="st8" width="2.8" height="4"/>
					<rect x="141.8" y="119.9" class="st8" width="2.8" height="4"/>
					<rect x="136.6" y="119.9" class="st8" width="2.8" height="4"/>
					<rect x="121.7" y="111.3" class="st8" width="2.8" height="4"/>
					<rect x="116.5" y="111.3" class="st8" width="2.8" height="4"/>
					<rect x="111.7" y="111.3" class="st8" width="2.8" height="4"/>
					<rect x="106.7" y="111.3" class="st8" width="2.8" height="4"/>
					<rect x="101.6" y="111.3" class="st8" width="2.8" height="4"/>
					<rect x="81.4" y="111.3" class="st8" width="2.8" height="4"/>
					<rect x="71.4" y="111.3" class="st8" width="2.8" height="4"/>
					<rect x="76.3" y="111.3" class="st8" width="2.8" height="4"/>
					<rect x="66.4" y="111.3" class="st8" width="2.8" height="4"/>
					<rect x="172.5" y="114.2" class="st8" width="2.8" height="4"/>
					<rect x="167.2" y="114.2" class="st8" width="2.8" height="4"/>
					<rect x="162.1" y="114.2" class="st8" width="2.8" height="4"/>
					<rect x="151.7" y="126.8" class="st8" width="2.8" height="4"/>
					<rect x="146.8" y="126.8" class="st8" width="2.8" height="4"/>
					<rect x="141.8" y="126.8" class="st8" width="2.8" height="4"/>
					<rect x="136.6" y="126.8" class="st8" width="2.8" height="4"/>
					<rect x="121.7" y="118.2" class="st8" width="2.8" height="4"/>
					<rect x="116.5" y="118.2" class="st8" width="2.8" height="4"/>
					<rect x="111.7" y="118.2" class="st8" width="2.8" height="4"/>
					<rect x="106.7" y="118.2" class="st8" width="2.8" height="4"/>
					<rect x="101.6" y="118.2" class="st8" width="2.8" height="4"/>
					<rect x="81.4" y="118.2" class="st8" width="2.8" height="4"/>
					<rect x="71.4" y="118.2" class="st8" width="2.8" height="4"/>
					<rect x="66.4" y="118.2" class="st8" width="2.8" height="4"/>
				</g>
			</g>
			<g>
				<polygon class="st9" points="134.7,134.9 107.1,134.9 15.1,198.5 226.7,198.5 				"/>
				<polygon class="st10" points="132.5,134.9 109.3,134.9 31.7,198.5 210.1,198.5 				"/>
				<polygon class="st9" points="131.7,134.9 110.1,134.9 38.1,198.5 203.7,198.5 				"/>
				<polygon class="st9" points="134.7,134.9 107.1,134.9 15.1,198.5 226.7,198.5 				"/>
				<polygon class="st10" points="132.5,134.9 109.3,134.9 31.7,198.5 210.1,198.5 				"/>
				<polygon class="st9" points="131.7,134.9 110.1,134.9 37.7,198.5 204,198.5 				"/>
				<g>
					<path class="st10" d="M120.2,139.6l-0.2,5.3c0,0.2,0.2,0.3,0.5,0.3h0.8c0.3,0,0.5-0.1,0.5-0.3l-0.2-5.3c0-0.2-0.2-0.3-0.5-0.3
						h-0.4C120.4,139.3,120.2,139.4,120.2,139.6z"/>
					<path class="st10" d="M122.4,157.3l-0.4-9.9c0-0.2-0.2-0.3-0.5-0.3h-1c-0.3,0-0.5,0.1-0.5,0.3l-0.4,9.9c0,0.2,0.2,0.4,0.6,0.4
						h1.8C122.1,157.7,122.4,157.5,122.4,157.3z"/>
					<path class="st10" d="M121.5,137.9l-0.1-2.7c0-0.2-0.2-0.3-0.5-0.3l0,0c-0.3,0-0.5,0.1-0.5,0.3l-0.1,2.7c0,0.2,0.2,0.3,0.5,0.3
						h0.2C121.3,138.2,121.5,138.1,121.5,137.9z"/>
					<path class="st10" d="M117.7,192.5l-0.6,5.8c0,0.1,0.3,0.2,0.7,0.2h6.1c0.4,0,0.7-0.1,0.7-0.2l-0.6-5.8c0-0.1-0.3-0.2-0.7-0.2
						h-5C118,192.3,117.7,192.4,117.7,192.5z"/>
				</g>
				<g>
					<g>
						<polygon class="st2" points="126.6,189.3 115.5,189.3 117.8,160 123.7,160 						"/>
						<polygon class="st2" points="107.4,189.3 96.3,189.3 107.7,160 113.5,160 						"/>
						<polygon class="st2" points="88.1,189.3 77.1,189.3 97.5,160 103.4,160 						"/>
						<polygon class="st2" points="68.9,189.3 57.8,189.3 87.4,160 93.2,160 						"/>
						<polygon class="st2" points="49.7,189.3 38.6,189.3 77.2,160 83.1,160 						"/>
					</g>
					<g>
						<polygon class="st2" points="203.3,189.3 192.2,189.3 158.4,160 164.2,160 						"/>
						<polygon class="st2" points="184.1,189.3 173,189.3 148.2,160 154.1,160 						"/>
						<polygon class="st2" points="164.9,189.3 153.8,189.3 138.1,160 143.9,160 						"/>
						<polygon class="st2" points="145.7,189.3 134.6,189.3 127.9,160 133.8,160 						"/>
					</g>
				</g>
			</g>
		</g>
		<path class="st11" d="M227.9,134.4H8.9c-0.2,0-0.4-0.2-0.4-0.4l0,0c0-0.2,0.2-0.4,0.4-0.4h219c0.2,0,0.4,0.2,0.4,0.4l0,0
			C228.3,134.2,228.1,134.4,227.9,134.4z"/>
	</g>
</g>
</svg>
