<?xml version="1.0" encoding="UTF-8"?>
<!DOCTYPE svg PUBLIC "-//W3C//DTD SVG 1.1//EN" "http://www.w3.org/Graphics/SVG/1.1/DTD/svg11.dtd">
<!-- Creator: CorelDRAW X7 -->
<svg xmlns="http://www.w3.org/2000/svg" xml:space="preserve" width="13.0593mm" height="2.7513mm" version="1.1" style="shape-rendering:geometricPrecision; text-rendering:geometricPrecision; image-rendering:optimizeQuality; fill-rule:evenodd; clip-rule:evenodd"
viewBox="0 0 221384 46641"
 xmlns:xlink="http://www.w3.org/1999/xlink">
 <defs>
  <style type="text/css">
   <![CDATA[
    .fil2 {fill:#663333}
    .fil1 {fill:#663333;fill-rule:nonzero}
    .fil0 {fill:url(#id0);fill-rule:nonzero}
   ]]>
  </style>
  <linearGradient id="id0" gradientUnits="userSpaceOnUse" x1="24846.8" y1="20561.3" x2="71472.2" y2="20561.3">
   <stop offset="0" style="stop-opacity:1; stop-color:#995C2E"/>
   <stop offset="1" style="stop-opacity:1; stop-color:#663300"/>
  </linearGradient>
 </defs>
 <g id="Layer_x0020_1">
  <metadata id="CorelCorpID_0Corel-Layer"/>
  <g id="_1137745776">
   <path class="fil0" d="M14777 2643l66544 -2614c490,-51 980,-31 1455,52 1051,185 2036,675 2787,1348 764,685 1295,1566 1422,2514 51,373 37,758 -49,1144l-6944 31299c-291,1316 -939,2538 -1920,3409 -923,819 -2121,1328 -3581,1328l-11771 -406 474 -834 1128 629 778 -1344 6767 242c839,0 1533,-294 2067,-769 654,-582 1095,-1429 1300,-2357l6476 -29186c42,-193 49,-387 23,-576 -69,-519 -374,-1013 -813,-1408 -455,-408 -1046,-705 -1672,-813 -264,-48 -534,-60 -800,-31l-63700 2314c-157,17 -300,36 -423,60 -879,159 -1728,515 -2325,1017 -520,435 -835,985 -754,1595 9,63 19,113 26,149l5756 25035c214,932 657,1785 1313,2368 532,472 1220,765 2058,765l30034 1071c-244,409 -480,802 -568,990l1176 682 -29980 -1031c-1452,0 -2646,-507 -3565,-1324l-3 -3c-980,-870 -1627,-2092 -1929,-3404l-6172 -26844c-28,-119 -46,-217 -58,-302 -168,-1253 420,-2333 1404,-3156 900,-755 2151,-1287 3426,-1519 222,-39 425,-70 613,-90z"/>
   <path class="fil1" d="M25437 9739l19512 -2060c225,-23 452,-13 673,26 485,85 941,312 1288,622 353,317 599,724 658,1163 22,173 17,351 -22,529l-3213 14474c-134,608 -434,1173 -888,1576 -425,378 -980,614 -1654,614l-13447 0c-673,0 -1224,-234 -1649,-612l-2 -2c-453,-402 -753,-968 -892,-1573l-2854 -12414c-12,-54 -21,-102 -26,-141 -78,-578 193,-1078 648,-1459 417,-348 995,-594 1585,-702 103,-17 198,-32 283,-41zm18183 -98l-18195 1920c-73,7 -139,17 -197,28 -405,72 -798,239 -1074,469 -241,202 -387,456 -348,738 3,30 7,54 10,71l2663 11575c99,432 304,825 607,1095 246,218 565,354 951,354l12540 0c388,0 708,-137 956,-356 302,-269 505,-661 600,-1090l2995 -13496c19,-89 23,-179 11,-266 -33,-240 -173,-469 -377,-652 -210,-189 -483,-326 -773,-377 -122,-20 -247,-25 -369,-13z"/>
   <path class="fil2" d="M50185 33872c-103,180 -205,273 -334,500l-993 1721c183,107 371,210 553,317 201,120 288,215 528,354 -666,1153 -1230,2211 -1893,3358 941,543 1800,1085 2768,1645l5679 3278c980,565 1890,1046 2843,1596 163,-284 207,-509 451,-816 205,-257 546,-927 759,-1286 114,-190 162,-201 275,-389 187,-313 268,-547 461,-883 182,265 814,470 1102,636 651,-1128 1283,-2141 1943,-3284 341,104 652,353 951,509 164,86 171,85 271,-73 256,-402 510,-894 753,-1316 496,-859 993,-1720 1490,-2580l2187 -3787c-305,-176 -897,-463 -1129,-681l-4528 7821 -1128 -629 -1919 3372 -1154 -654 -1299 2221 -8957 -5188c205,-437 1205,-1971 1251,-2254l-1092 -645c333,-576 670,-1152 1000,-1730 331,-580 350,-473 -33,-697 -265,-154 -526,-314 -806,-436z"/>
   <path class="fil2" d="M53593 25342l-651 1127 1112 656 -621 1097 1107 639 7112 -12334 -1094 -621c-10,5 -17,7 -25,19l-48 44c-6,7 -15,17 -22,25l-5743 9946c-407,-235 -726,-395 -1127,-598z"/>
   <path class="fil2" d="M63952 17869l-5840 10077 1107 647 2582 -4475c244,74 2099,1142 2258,1305 244,253 2365,1399 2841,1675 9,-59 93,-36 -161,-191l-2243 -1289c-537,-307 -495,-95 224,-1339l-1688 -973c-221,-129 -289,-215 -529,-354l2563 -4440c-287,-166 -466,-341 -843,-532 -156,-80 -135,-38 -271,-111z"/>
   <path class="fil2" d="M66788 28468l650 -1105c-172,-100 -355,-236 -538,-265 -476,-276 -2597,-1422 -2841,-1675l-2594 4464 1121 647 1946 -3361 2256 1295z"/>
   <path class="fil2" d="M50048 26320c-95,158 -136,153 -351,529 -112,195 -225,390 -337,585l1066 617c-105,347 -1046,1970 -1222,2276l1102 636 -975 1687c-139,239 -166,366 -283,570l1088 628c460,-596 982,-1557 1339,-2246l-1100 -656 1282 -2232 -1114 -667 634 -1122c-366,-218 -731,-464 -1129,-605z"/>
   <path class="fil2" d="M50058 26278l1292 -2223 2243 1287 356 -532c95,-197 164,-365 305,-607l-2994 -1729c-481,-282 -363,-328 -751,345l-1432 2479c-148,249 -260,302 -33,446 216,137 833,535 1014,534z"/>
   <path class="fil2" d="M68324 30892c173,-8 34,51 173,-115 10,-10 85,-151 98,-177 44,-276 297,-591 443,-845l-2250 -1287 -2592 4496 1104 639 1954 -3352c262,99 867,451 1070,641z"/>
   <path class="fil2" d="M63969 17788c200,-348 482,-758 582,-1087l-2213 -1278 -635 1085 2266 1280z"/>
   <path class="fil2" d="M68324 30892c56,237 -542,841 -536,1092 4,135 916,535 1062,707 232,218 824,505 1129,681l-2187 3787 2226 -3855 -1101 -637c102,-175 133,-312 263,-536 114,-193 226,-390 338,-585 -1224,-707 -1160,-530 -923,-946 -13,26 -88,167 -98,177 -139,166 0,107 -173,115z"/>
   <path class="fil2" d="M60558 15906l1094 621 -7112 12334 -1107 -639 43 53c8,8 717,508 1073,613l7140 -12341 2243 1278c-1856,3208 -3789,6603 -5676,9790 -66,114 -147,215 -144,331l5840 -10077 17 -81 -2266 -1280 635 -1085c-171,122 -517,841 -661,1087l-1029 -587c-76,-27 -42,-17 -90,-17z"/>
   <path class="fil1" d="M105797 28175l-3826 0 3155 -10896 -6481 10896 -3938 0 -705 -11052 -2696 11052 -3938 0 4445 -16583 5371 0 740 11636 6944 -11636 5372 0 -4443 16583zm14309 0l-8557 0c-1188,0 -2045,-319 -2568,-957 -539,-622 -646,-1529 -326,-2725 383,-1431 1046,-2460 1989,-3082 940,-624 2276,-934 4012,-934l3777 0c160,-597 99,-1023 -180,-1284 -289,-239 -928,-357 -1912,-357l-5392 0 800 -2984 6557 0c1666,0 2831,387 3489,1158 663,771 783,1939 363,3507l-2052 7658zm-2949 -2938l495 -1845 -3345 0c-668,0 -1119,65 -1349,194 -238,128 -407,398 -517,808 -82,304 -73,524 30,665 59,61 181,101 371,132 189,30 436,46 739,46l3576 0zm16301 2938l-3645 0 1982 -7392c210,-786 232,-1283 66,-1498 -190,-195 -639,-290 -1334,-290l-2194 0 -2459 9180 -3645 0 3302 -12323 6059 0c1853,0 3077,361 3673,1082 595,725 678,1886 248,3497l-2053 7744zm13258 0l-3668 0 1983 -7403c197,-733 207,-1211 27,-1431 -120,-129 -271,-221 -449,-282 -197,-56 -488,-86 -864,-86l-2179 22 -2458 9180 -3645 0 4444 -16583 3644 0 -1142 4260 2437 0c1823,0 3042,356 3655,1066 614,714 704,1880 270,3504l-2055 7753zm13986 0l-8558 0c-1188,0 -2044,-319 -2568,-957 -539,-622 -646,-1529 -325,-2725 384,-1431 1047,-2460 1988,-3082 941,-624 2277,-934 4013,-934l3777 0c159,-597 100,-1023 -180,-1284 -290,-239 -929,-357 -1912,-357l-5391 0 798 -2984 6557 0c1667,0 2832,387 3491,1158 663,771 781,1939 361,3507l-2051 7658zm-2948 -2938l493 -1845 -3345 0c-667,0 -1117,65 -1349,194 -236,128 -407,398 -517,808 -81,304 -71,524 31,665 59,61 181,101 371,132 188,30 435,46 739,46l3577 0zm8806 2938l-3782 0 4444 -16583 3782 0 -4444 16583zm8541 0l-3212 0 903 -3371 3213 0 -904 3371zm11795 0l-4453 0c-544,0 -1037,-31 -1465,-90 -418,-60 -808,-133 -1152,-255 -624,-223 -1157,-618 -1585,-1157 -200,-253 -338,-575 -463,-934 -122,-351 -253,-728 -312,-1136 -58,-392 -51,-799 -20,-1216 32,-405 122,-858 252,-1347 244,-918 627,-1787 1149,-2592 516,-795 1135,-1533 1904,-2147 639,-508 1389,-840 2185,-1081 792,-239 1726,-368 2809,-368l4454 0 -831 3097 -3553 0c-739,0 -1348,36 -1812,134 -468,98 -850,305 -1168,546 -619,470 -1096,1266 -1402,2411 -170,637 -190,1179 -102,1625 86,433 205,926 620,1090l651 258c180,71 392,51 592,64 210,16 536,22 973,22l3553 0 -824 3076zm15259 -6180c-515,1926 -1517,3469 -2997,4627 -1477,1156 -3196,1736 -5159,1736 -1973,0 -3378,-587 -4241,-1736 -860,-1141 -1041,-2677 -519,-4627 510,-1908 1514,-3448 2994,-4614 1463,-1151 3184,-1734 5172,-1734 1963,0 3377,571 4235,1712 863,1149 1032,2697 515,4636zm-3782 0c273,-1023 219,-1820 -110,-2407 -316,-566 -865,-866 -1704,-866 -832,0 -1544,302 -2168,866 -598,541 -1061,1336 -1348,2407 -146,548 -207,1014 -205,1389 2,398 80,754 253,1056 322,561 893,843 1710,843 839,0 1551,-292 2162,-843 651,-587 1130,-1395 1410,-2445zm20675 6180l-3667 0 1975 -7368c202,-756 256,-1283 85,-1522 -168,-236 -638,-341 -1322,-324l-1421 34 -2460 9180 -3714 0 2460 -9180 -3030 0 -2459 9180 -3667 0 3302 -12323 12080 0c1758,0 2960,361 3598,1082 640,723 747,1890 317,3497l-2077 7744z"/>
   <path class="fil1" d="M4163 15916l32113 -3388c371,-39 744,-24 1107,39 800,140 1549,513 2119,1025 583,522 987,1192 1083,1914 39,285 29,577 -37,872l-5555 14590c-222,1000 -716,1931 -1462,2594 -703,624 -1615,1010 -2725,1010l-22130 0c-1107,0 -2014,-384 -2714,-1007l-3 -1c-745,-663 -1238,-1592 -1468,-2591l-4425 -11202c-20,-89 -35,-166 -44,-228 -127,-955 319,-1777 1068,-2403 685,-574 1636,-979 2607,-1156 170,-30 326,-52 466,-68zm29924 -161l-29946 3160c-118,12 -227,27 -322,44 -668,122 -1313,394 -1768,775 -396,332 -635,749 -573,1214 5,49 12,88 19,115l4109 9822c163,711 500,1360 999,1804 405,358 929,581 1566,581l20638 0c639,0 1166,-225 1573,-586 496,-443 832,-1087 988,-1794l5201 -12983c32,-146 37,-294 17,-438 -53,-395 -283,-771 -619,-1071 -346,-310 -797,-538 -1271,-621 -202,-33 -407,-44 -611,-22z"/>
   <path class="fil1" d="M94695 6386l-683 2546 -916 0 1826 -6811 2009 0c431,0 792,51 1083,151 292,100 517,240 677,423 159,183 257,407 291,667 32,259 5,549 -81,869 -85,319 -219,609 -400,872 -180,262 -404,488 -668,679 -265,190 -570,338 -916,445 -344,105 -720,159 -1129,159l-1093 0zm195 -731l1093 0c263,0 506,-35 726,-105 219,-69 412,-168 583,-293 170,-126 312,-273 429,-448 115,-174 203,-366 259,-574 116,-434 73,-773 -130,-1017 -202,-245 -575,-367 -1116,-367l-1093 0 -751 2804z"/>
   <path id="1" class="fil1" d="M101788 4045c351,0 652,57 905,174 251,119 448,285 588,500 141,216 222,475 248,780 24,305 -17,648 -117,1024 -102,382 -244,722 -434,1028 -187,303 -407,562 -665,778 -256,215 -540,379 -854,495 -314,117 -648,174 -999,174 -350,0 -652,-57 -905,-174 -254,-116 -452,-280 -593,-495 -141,-216 -224,-475 -253,-778 -23,-306 14,-646 116,-1028 100,-376 245,-719 435,-1024 190,-305 412,-564 670,-780 256,-215 542,-381 859,-500 314,-117 648,-174 999,-174zm-1151 4294c474,0 871,-161 1191,-478 321,-319 557,-765 711,-1336 152,-573 156,-1019 8,-1341 -151,-319 -463,-480 -937,-480 -241,0 -460,43 -660,124 -200,83 -378,202 -537,356 -163,156 -302,348 -420,573 -121,227 -219,483 -295,768 -77,285 -116,542 -117,766 -2,226 35,415 113,570 78,152 193,269 348,354 157,81 354,124 595,124z"/>
   <path id="2" class="fil1" d="M104475 4116l666 0c69,0 122,17 156,53 37,33 54,74 59,122l90 3100c-5,114 -12,226 -19,331 -5,107 -13,213 -27,322 55,-109 112,-215 170,-322 61,-105 125,-217 190,-331l1853 -3119c27,-48 66,-87 113,-119 49,-30 104,-47 163,-47l366 0c63,0 110,17 142,47 34,32 51,71 56,119l156 3119c5,112 9,221 5,329 -1,107 -5,214 -8,319 46,-105 95,-216 151,-329 56,-114 110,-221 166,-319l1772 -3100c28,-50 69,-92 122,-124 54,-34 110,-51 171,-51l635 0 -2847 4816 -670 0c-81,0 -124,-54 -127,-161l-188 -3267c-7,-73 -9,-147 -4,-222 5,-74 7,-147 12,-220 -36,73 -71,147 -108,224 -36,76 -75,151 -121,223l-1951 3262c-64,107 -144,161 -239,161l-637 0 -268 -4816z"/>
   <path id="3" class="fil1" d="M114305 4040c289,0 543,49 758,145 219,97 392,236 521,418 130,183 208,408 237,676 27,268 -5,573 -97,917 -37,134 -76,222 -115,266 -39,44 -100,66 -180,66l-3200 0c-77,305 -105,570 -92,795 15,228 71,414 163,565 93,151 220,264 385,337 164,75 359,114 588,114 212,0 402,-26 570,-75 164,-49 311,-103 437,-159 127,-58 234,-110 322,-160 88,-50 158,-74 212,-74 69,0 117,27 139,81l154 311c-139,125 -291,233 -463,327 -171,93 -347,169 -529,230 -181,58 -367,104 -550,134 -187,31 -367,44 -540,44 -332,0 -625,-56 -874,-169 -250,-112 -448,-277 -595,-494 -144,-217 -234,-486 -261,-807 -29,-318 11,-686 123,-1103 90,-336 228,-648 409,-939 181,-292 395,-546 646,-760 251,-213 532,-381 842,-503 312,-122 641,-183 990,-183zm-149 627c-408,0 -761,117 -1058,353 -296,233 -530,561 -700,976l2618 0c52,-195 73,-375 64,-536 -10,-162 -53,-305 -125,-422 -73,-118 -175,-210 -309,-274 -132,-67 -297,-97 -490,-97z"/>
   <path id="4" class="fil1" d="M116067 8932l1290 -4816 485 0c91,0 149,19 176,54 25,38 32,102 19,192l-156 798c261,-356 537,-632 834,-830 295,-200 605,-300 932,-300 132,0 247,16 349,45 98,33 187,75 263,131l-278 632c-42,78 -103,119 -180,119 -44,0 -107,-17 -191,-46 -85,-30 -207,-46 -373,-46 -294,0 -563,90 -809,268 -247,180 -483,439 -707,780l-808 3019 -846 0z"/>
   <path id="5" class="fil1" d="M123110 4040c288,0 543,49 758,145 219,97 392,236 520,418 131,183 209,408 238,676 27,268 -5,573 -97,917 -37,134 -76,222 -115,266 -39,44 -100,66 -180,66l-3200 0c-77,305 -105,570 -92,795 15,228 71,414 163,565 93,151 220,264 385,337 164,75 359,114 588,114 212,0 402,-26 570,-75 164,-49 311,-103 437,-159 127,-58 234,-110 322,-160 88,-50 158,-74 212,-74 69,0 117,27 139,81l154 311c-139,125 -291,233 -463,327 -171,93 -347,169 -529,230 -181,58 -367,104 -551,134 -186,31 -366,44 -539,44 -332,0 -625,-56 -874,-169 -250,-112 -448,-277 -595,-494 -144,-217 -234,-486 -261,-807 -29,-318 11,-686 123,-1103 90,-336 227,-648 409,-939 181,-292 395,-546 646,-760 251,-213 532,-381 842,-503 312,-122 641,-183 990,-183zm-149 627c-408,0 -761,117 -1058,353 -296,233 -530,561 -700,976l2618 0c52,-195 72,-375 64,-536 -10,-162 -53,-305 -125,-422 -73,-118 -175,-210 -309,-274 -132,-67 -297,-97 -490,-97z"/>
   <path id="6" class="fil1" d="M128259 8932c-121,0 -182,-59 -182,-176l82 -583c-273,249 -561,449 -867,600 -303,149 -627,225 -969,225 -277,0 -512,-54 -709,-159 -195,-107 -346,-261 -449,-468 -104,-207 -156,-463 -161,-770 -2,-308 51,-661 158,-1061 94,-354 230,-685 408,-992 176,-305 385,-569 626,-796 237,-224 501,-400 791,-529 294,-127 602,-193 928,-193 295,0 532,50 715,150 181,100 331,239 447,421l716 -2670 846 0 -1877 7001 -503 0zm-1473 -617c276,0 535,-64 776,-190 241,-127 478,-307 715,-537l624 -2331c-98,-209 -229,-356 -393,-439 -161,-85 -354,-127 -580,-127 -449,0 -839,159 -1166,481 -326,319 -568,775 -727,1370 -85,313 -129,581 -134,805 -7,224 22,407 89,551 67,144 165,251 299,317 135,66 300,100 497,100z"/>
   <path id="7" class="fil1" d="M132046 8932l1876 -7001 850 0 -785 2929c266,-246 549,-446 847,-595 299,-151 612,-225 945,-225 278,0 517,52 713,156 197,105 346,262 450,469 103,207 156,465 159,770 3,307 -48,658 -154,1058 -97,356 -233,685 -409,991 -178,307 -385,572 -622,794 -241,224 -507,400 -798,527 -292,129 -601,193 -923,193 -310,0 -557,-59 -742,-181 -185,-121 -329,-290 -434,-507l-159 441c-60,122 -148,181 -268,181l-546 0zm3277 -4218c-275,0 -534,67 -777,200 -244,134 -486,324 -727,568l-614 2294c97,207 227,353 390,436 165,84 358,127 587,127 449,0 836,-161 1163,-480 325,-320 568,-776 727,-1368 85,-314 129,-583 136,-809 3,-223 -29,-408 -94,-552 -66,-144 -167,-249 -300,-316 -134,-67 -298,-100 -491,-100z"/>
   <path id="8" class="fil1" d="M138233 10358c-45,63 -93,113 -145,151 -55,39 -126,57 -214,57l-627 0 1381 -1881 -761 -4564 733 0c72,0 123,19 155,54 31,38 51,78 58,122l463 3070c10,70 17,141 19,211 1,71 0,144 -4,217 41,-73 83,-146 124,-217 41,-70 86,-143 134,-216l2071 -3065c33,-50 77,-93 133,-127 54,-32 108,-49 162,-49l673 0 -4355 6237z"/>
   <path id="9" class="fil1" d="M142122 8412c22,-83 60,-161 109,-234 49,-73 108,-136 176,-192 64,-52 139,-96 220,-127 82,-32 163,-47 244,-47 84,0 156,15 221,47 64,31 117,75 156,127 39,56 64,119 74,192 12,73 4,151 -18,234 -22,86 -58,164 -107,237 -49,71 -109,132 -178,188 -66,54 -142,95 -224,126 -79,28 -161,45 -244,45 -81,0 -154,-17 -220,-45 -65,-31 -116,-72 -153,-126 -37,-56 -63,-117 -73,-188 -12,-73 -5,-151 17,-237zm956 -3564c21,-81 58,-159 107,-232 49,-73 109,-136 176,-191 65,-55 139,-97 221,-129 81,-31 163,-48 244,-48 83,0 156,17 220,48 65,32 117,74 156,129 39,55 65,118 75,191 12,73 3,151 -17,232 -24,88 -58,165 -109,238 -49,71 -108,134 -178,188 -66,54 -142,95 -222,125 -81,31 -162,46 -246,46 -81,0 -154,-15 -218,-46 -66,-30 -117,-71 -154,-125 -38,-54 -63,-117 -73,-188 -11,-73 -5,-150 18,-238z"/>
   <path class="fil1" d="M152867 31789l-214 795 -3462 0 -642 2395 2804 0 -205 765 -2804 0 -660 2465 3462 0 -214 795 -4443 0 1934 -7215 4444 0zm8 3814l2487 0 -205 765 -2487 0 205 -765zm4150 2575l3121 0 -222 826 -4096 0 1934 -7215 977 0 -1714 6389zm7060 -4357c306,0 573,53 804,155 231,101 415,249 551,442 136,193 220,432 249,717 31,283 -5,607 -102,970 -39,142 -78,235 -122,283 -42,46 -105,69 -189,69l-3391 0c-80,323 -112,604 -95,843 15,239 73,437 171,598 99,160 234,278 407,358 175,78 382,119 622,119 226,0 428,-27 604,-78 176,-53 332,-110 464,-170 134,-61 248,-117 341,-168 93,-54 168,-79 224,-79 74,0 124,29 149,86l163 329c-146,132 -310,248 -490,348 -182,98 -368,178 -561,242 -192,63 -388,110 -585,142 -197,33 -387,48 -571,48 -351,0 -660,-61 -924,-180 -265,-119 -475,-293 -631,-524 -154,-229 -247,-515 -276,-852 -31,-339 13,-729 132,-1170 95,-356 239,-688 431,-997 191,-308 418,-576 684,-803 267,-226 563,-404 894,-533 329,-129 678,-195 1047,-195zm-157 665c-432,0 -807,124 -1122,373 -314,249 -562,595 -740,1036l2772 0c56,-209 78,-399 66,-570 -10,-171 -54,-322 -130,-446 -78,-125 -187,-222 -327,-291 -141,-68 -314,-102 -519,-102zm5769 4518l-399 0c-86,0 -154,-14 -200,-39 -46,-27 -66,-87 -59,-173l25 -475c-166,120 -325,229 -478,326 -154,96 -310,176 -468,242 -159,66 -322,115 -490,149 -167,34 -350,51 -545,51 -197,0 -375,-29 -533,-85 -157,-54 -286,-139 -384,-249 -97,-112 -160,-253 -190,-424 -31,-168 -16,-369 47,-603 54,-202 163,-397 322,-583 163,-189 387,-355 672,-501 284,-144 639,-262 1062,-356 424,-91 926,-139 1502,-139l107 -400c107,-398 104,-700 -10,-903 -115,-204 -339,-307 -671,-307 -219,0 -409,27 -573,83 -165,56 -311,117 -438,187 -127,67 -237,130 -330,186 -95,54 -182,83 -258,83 -61,0 -108,-15 -146,-47 -35,-31 -62,-70 -76,-117l-86 -282c356,-273 713,-478 1074,-613 363,-136 741,-204 1138,-204 285,0 525,48 722,141 195,95 348,225 453,393 106,168 166,370 178,610 13,238 -17,501 -94,785l-874 3264zm-2177 -553c158,0 305,-15 446,-47 139,-33 274,-77 405,-134 132,-58 261,-128 390,-212 127,-82 254,-177 383,-282l283 -1056c-412,0 -770,27 -1073,78 -302,53 -554,119 -758,205 -205,83 -361,183 -474,297 -112,114 -189,241 -228,385 -35,134 -44,249 -27,346 17,98 55,178 112,240 58,61 132,107 226,136 93,29 196,44 315,44zm3535 553l1368 -5103 512 0c98,0 159,20 186,59 25,39 32,107 20,204l-166 844c277,-376 571,-670 883,-880 314,-212 643,-317 989,-317 140,0 262,17 369,49 105,33 199,78 280,138l-295 669c-46,83 -110,126 -190,126 -47,0 -115,-17 -203,-49 -88,-33 -221,-48 -395,-48 -312,0 -597,95 -858,285 -261,188 -510,464 -748,824l-857 3199 -895 0zm4054 0l1369 -5103 534 0c127,0 189,63 191,186l-80 557c289,-248 590,-445 904,-597 314,-151 649,-226 1009,-226 278,0 512,48 700,139 188,92 330,224 429,394 96,167 149,373 159,612 10,237 -24,501 -102,790l-869 3248 -897 0 871 -3248c104,-387 97,-687 -22,-901 -120,-211 -361,-320 -724,-320 -264,0 -527,64 -791,192 -265,127 -524,301 -777,520l-1007 3757 -897 0zm7960 -5103l-1367 5103 -895 0 1366 -5103 896 0zm630 -1599c-24,87 -61,167 -117,243 -56,74 -120,142 -195,202 -74,57 -156,105 -242,139 -87,33 -173,50 -260,50 -88,0 -162,-17 -230,-50 -66,-34 -120,-82 -163,-139 -44,-60 -73,-128 -86,-202 -14,-76 -9,-156 15,-243 24,-88 63,-171 117,-250 54,-78 120,-148 195,-207 74,-58 154,-104 237,-138 85,-34 170,-49 258,-49 86,0 164,15 232,49 68,34 126,80 168,138 44,59 71,129 86,207 14,79 9,162 -15,250zm-417 6702l1366 -5103 534 0c128,0 192,63 192,186l-78 557c287,-248 588,-445 902,-597 314,-151 649,-226 1009,-226 278,0 512,48 700,139 188,92 332,224 429,394 96,167 149,373 159,612 10,237 -24,501 -100,790l-871 3248 -895 0 869 -3248c104,-387 97,-687 -22,-901 -119,-211 -361,-320 -722,-320 -266,0 -529,64 -793,192 -265,127 -524,301 -777,520l-1007 3757 -895 0zm8700 -5183c222,0 422,24 604,72 179,49 333,122 466,215l1385 0 -90 334c-31,110 -121,183 -270,213l-600 80c56,219 48,461 -24,731 -66,247 -174,474 -323,676 -151,204 -329,378 -538,522 -208,144 -439,255 -693,332 -254,77 -520,116 -798,116 -240,0 -457,-29 -653,-83 -126,68 -226,142 -304,222 -76,79 -125,157 -145,234 -34,125 -11,218 69,283 81,64 198,110 351,137 154,29 332,43 537,43 206,0 416,0 628,0 213,0 417,18 612,55 193,38 361,99 498,184 139,84 236,201 293,350 58,150 55,345 -10,584 -59,218 -169,434 -334,639 -164,208 -371,391 -620,554 -248,161 -533,290 -853,387 -320,96 -668,145 -1041,145 -371,0 -686,-37 -947,-112 -260,-72 -467,-172 -619,-296 -151,-124 -249,-268 -299,-431 -47,-163 -49,-334 -1,-512 68,-251 205,-464 412,-641 206,-178 461,-317 768,-420 -126,-68 -217,-156 -272,-268 -56,-113 -59,-263 -8,-451 19,-71 52,-149 100,-227 47,-78 112,-156 186,-234 77,-74 163,-149 263,-219 98,-71 210,-132 331,-186 -214,-141 -360,-329 -439,-563 -80,-234 -78,-507 5,-819 68,-250 176,-474 325,-679 151,-204 331,-378 539,-521 210,-142 444,-252 702,-330 256,-77 526,-116 807,-116zm131 5447c33,-130 27,-234 -22,-312 -50,-80 -129,-141 -238,-183 -110,-42 -241,-75 -393,-95 -151,-22 -315,-32 -490,-32 -173,0 -351,0 -532,0 -182,0 -348,-20 -500,-66 -216,90 -400,202 -555,332 -154,131 -256,287 -305,468 -30,114 -29,220 3,320 33,99 99,185 201,256 101,73 239,129 410,172 171,42 380,64 629,64 240,0 462,-22 666,-68 203,-44 383,-107 537,-190 155,-81 282,-179 382,-291 101,-114 169,-238 207,-375zm-853 -2750c180,0 347,-25 500,-76 154,-49 288,-120 407,-210 118,-93 217,-200 298,-326 82,-127 141,-266 182,-418 84,-312 57,-560 -84,-746 -140,-185 -391,-276 -754,-276 -359,0 -656,91 -895,276 -241,186 -402,434 -487,746 -40,152 -52,291 -37,418 15,126 56,233 126,326 69,90 166,161 290,210 125,51 276,76 454,76zm11690 -4739l-220 825 -2331 0 -1712 6395 -977 0 1714 -6395 -2341 0 222 -825 5645 0zm1300 2042c305,0 573,53 804,155 230,101 413,249 551,442 135,193 218,432 249,717 29,283 -5,607 -103,970 -38,142 -78,235 -121,283 -42,46 -107,69 -190,69l-3392 0c-79,323 -110,604 -95,843 17,239 75,437 172,598 98,160 235,278 408,358 173,78 381,119 622,119 226,0 427,-27 604,-78 176,-53 330,-110 464,-170 134,-61 248,-117 341,-168 93,-54 166,-79 224,-79 73,0 122,29 147,86l165 329c-148,132 -311,248 -492,348 -180,98 -366,178 -559,242 -194,63 -389,110 -585,142 -197,33 -387,48 -572,48 -352,0 -659,-61 -925,-180 -265,-119 -475,-293 -629,-524 -154,-229 -248,-515 -278,-852 -31,-339 13,-729 132,-1170 95,-356 239,-688 431,-997 193,-308 420,-576 686,-803 265,-226 563,-404 892,-533 331,-129 680,-195 1049,-195zm-159 665c-432,0 -805,124 -1121,373 -315,249 -562,595 -740,1036l2773 0c56,-209 78,-399 66,-570 -10,-171 -54,-322 -132,-446 -76,-125 -185,-222 -326,-291 -140,-68 -315,-102 -520,-102zm5769 4518l-397 0c-88,0 -154,-14 -202,-39 -45,-27 -66,-87 -59,-173l27 -475c-166,120 -327,229 -480,326 -154,96 -308,176 -467,242 -158,66 -321,115 -490,149 -168,34 -350,51 -545,51 -198,0 -374,-29 -532,-85 -159,-54 -286,-139 -385,-249 -98,-112 -161,-253 -190,-424 -30,-168 -15,-369 48,-603 54,-202 161,-397 322,-583 161,-189 385,-355 671,-501 285,-144 639,-262 1063,-356 424,-91 924,-139 1501,-139l108 -400c107,-398 103,-700 -12,-903 -115,-204 -339,-307 -671,-307 -217,0 -407,27 -571,83 -165,56 -311,117 -438,187 -127,67 -239,130 -332,186 -93,54 -180,83 -258,83 -59,0 -107,-15 -144,-47 -37,-31 -64,-70 -78,-117l-85 -282c355,-273 712,-478 1075,-613 361,-136 741,-204 1136,-204 285,0 526,48 722,141 197,95 348,225 454,393 106,168 165,370 178,610 14,238 -18,501 -94,785l-875 3264zm-2177 -553c158,0 307,-15 446,-47 139,-33 275,-77 407,-134 130,-58 261,-128 388,-212 129,-82 256,-177 385,-282l283 -1056c-414,0 -771,27 -1073,78 -302,53 -556,119 -760,205 -203,83 -361,183 -473,297 -113,114 -189,241 -227,385 -37,134 -45,249 -29,346 19,98 56,178 112,240 58,61 133,107 226,136 93,29 198,44 315,44zm3536 553l1367 -5103 534 0c127,0 191,63 191,186l-76 526c251,-234 514,-422 785,-570 273,-147 563,-222 871,-222 346,0 600,95 763,287 161,191 244,449 251,776 120,-185 258,-346 409,-480 152,-133 310,-244 478,-332 167,-86 339,-151 512,-190 174,-40 344,-61 511,-61 268,0 497,44 684,129 186,87 330,210 434,375 101,164 157,366 169,607 14,239 -22,515 -105,824l-870 3248 -895 0 870 -3248c107,-400 102,-704 -17,-911 -120,-205 -346,-310 -678,-310 -148,0 -293,27 -441,80 -146,52 -283,127 -410,227 -129,102 -241,229 -341,381 -100,153 -178,331 -232,533l-870 3248 -895 0 870 -3248c110,-411 110,-717 0,-919 -110,-200 -324,-302 -639,-302 -222,0 -443,61 -665,180 -220,120 -439,283 -651,486l-1019 3803 -895 0z"/>
  </g>
 </g>
</svg>
