<svg id="Layer_1" data-name="Layer 1" xmlns="http://www.w3.org/2000/svg" viewBox="0 0 15.06 18.55"><defs><style>.cls-1{fill:#34b450;}</style></defs><title>Artboard 34</title><path class="cls-1" d="M10.09,6.72a.43.43,0,0,0-.43.43v8.21a.44.44,0,0,0,.43.44.44.44,0,0,0,.44-.44V7.15A.44.44,0,0,0,10.09,6.72Z"/><path class="cls-1" d="M5,6.72a.44.44,0,0,0-.44.43v8.21A.44.44,0,0,0,5,15.8a.44.44,0,0,0,.43-.44V7.15A.43.43,0,0,0,5,6.72Z"/><path class="cls-1" d="M1.23,5.52v10.7a2.43,2.43,0,0,0,.64,1.66,2.17,2.17,0,0,0,1.55.67h8.22a2.15,2.15,0,0,0,1.55-.67,2.39,2.39,0,0,0,.64-1.66V5.52a1.66,1.66,0,0,0-.43-3.26H11.18V1.72A1.71,1.71,0,0,0,9.46,0H5.6A1.76,1.76,0,0,0,4.38.5a1.72,1.72,0,0,0-.5,1.22v.54H1.66a1.66,1.66,0,0,0-.43,3.26ZM11.64,17.68H3.42A1.38,1.38,0,0,1,2.1,16.22V5.56H13V16.22A1.38,1.38,0,0,1,11.64,17.68Zm-6.89-16A.86.86,0,0,1,5,1.11.81.81,0,0,1,5.6.87H9.46a.81.81,0,0,1,.61.24.85.85,0,0,1,.24.61v.54H4.75ZM1.66,3.13H13.4a.78.78,0,1,1,0,1.56H1.66a.78.78,0,0,1,0-1.56Z"/><path class="cls-1" d="M7.53,6.72a.43.43,0,0,0-.43.43v8.21a.44.44,0,0,0,.43.44A.44.44,0,0,0,8,15.36V7.15A.44.44,0,0,0,7.53,6.72Z"/></svg>