<?xml version="1.0" encoding="utf-8"?>
<!-- Generator: Adobe Illustrator 19.2.0, SVG Export Plug-In . SVG Version: 6.00 Build 0)  -->
<svg version="1.1" id="Layer_1" xmlns="http://www.w3.org/2000/svg" xmlns:xlink="http://www.w3.org/1999/xlink" x="0px" y="0px"
	 viewBox="0 0 45.7 45.7" style="enable-background:new 0 0 45.7 45.7;" xml:space="preserve">
<style type="text/css">
	.st0{fill:#FFA800;}
	.st1{fill:#FFFFFF;}
</style>
<g>
	<g>
		<g>
			<g>
				<circle class="st0" cx="22.9" cy="22.9" r="22.9"/>
			</g>
		</g>
	</g>
	<g>
		<path class="st1" d="M12.2,33.1l1.6-5.7c-1-1.8-1.6-3.8-1.6-5.8c0-6.3,5.1-11.5,11.5-11.5s11.5,5.1,11.5,11.5S30,33.1,23.7,33.1
			c-2,0-3.9-0.5-5.6-1.5L12.2,33.1z M18.4,29.5l0.4,0.2c1.5,0.9,3.2,1.4,5,1.4c5.2,0,9.5-4.3,9.5-9.5s-4.3-9.5-9.5-9.5
			s-9.5,4.3-9.5,9.5c0,1.8,0.5,3.6,1.5,5.1l0.2,0.4L15,30.4L18.4,29.5z"/>
		<path class="st1" d="M20.4,16.3l-0.7,0c-0.2,0-0.5,0.1-0.6,0.2c-0.4,0.3-0.9,0.9-1.1,1.7c-0.3,1.2,0.1,2.6,1.2,4.1
			c1.1,1.4,3,3.7,6.5,4.7c1.1,0.3,2,0.1,2.7-0.3c0.5-0.3,0.9-0.9,1-1.5l0.1-0.6c0-0.2-0.1-0.4-0.2-0.4L26.8,23
			c-0.2-0.1-0.4,0-0.5,0.1l-1,1.3c-0.1,0.1-0.2,0.1-0.3,0.1c-0.7-0.2-2.9-1.2-4.2-3.6c-0.1-0.1,0-0.2,0-0.3l0.9-1.1
			c0.1-0.1,0.1-0.3,0.1-0.4l-1.1-2.5C20.7,16.4,20.6,16.3,20.4,16.3z"/>
	</g>
</g>
</svg>
