<?xml version="1.0" encoding="utf-8"?>
<!-- Generator: Adobe Illustrator 19.2.0, SVG Export Plug-In . SVG Version: 6.00 Build 0)  -->
<svg version="1.1" id="Layer_1" xmlns="http://www.w3.org/2000/svg" xmlns:xlink="http://www.w3.org/1999/xlink" x="0px" y="0px"
	 viewBox="0 0 45.7 45.7" style="enable-background:new 0 0 45.7 45.7;" xml:space="preserve">
<style type="text/css">
	.st0{fill:#FFA800;}
	.st1{fill:#FFFFFF;}
</style>
<g>
	<g>
		<g>
			<g>
				<circle class="st0" cx="22.9" cy="22.9" r="22.9"/>
			</g>
		</g>
	</g>
	<path class="st1" d="M35.7,30.9C35.7,30.9,35.7,30.9,35.7,30.9L35.7,30.9L34.5,32c-1.5,1.5-3.7,2.1-5.8,1.6
		c-2.1-0.6-4.1-1.5-5.9-2.6c-1.7-1.1-3.2-2.3-4.7-3.7c-1.3-1.3-2.5-2.7-3.5-4.2c-1.1-1.6-2-3.4-2.6-5.3c-0.7-2.2-0.1-4.6,1.5-6.2
		l1.4-1.4c0.4-0.4,1-0.4,1.4,0c0,0,0,0,0,0l4.3,4.3c0.4,0.4,0.4,1,0,1.4c0,0,0,0,0,0l-2.5,2.5c-0.7,0.7-0.8,1.9-0.2,2.7
		c0.9,1.3,1.9,2.4,3,3.5c1.2,1.2,2.6,2.3,4,3.3c0.8,0.6,1.9,0.5,2.6-0.2l2.4-2.5c0.4-0.4,1-0.4,1.4,0c0,0,0,0,0,0l4.3,4.3
		C36,29.9,36,30.5,35.7,30.9z"/>
</g>
</svg>
