<?xml version="1.0" encoding="utf-8"?>
<!-- Generator: Adobe Illustrator 16.0.0, SVG Export Plug-In . SVG Version: 6.00 Build 0)  -->
<!DOCTYPE svg PUBLIC "-//W3C//DTD SVG 1.1//EN" "http://www.w3.org/Graphics/SVG/1.1/DTD/svg11.dtd">
<svg version="1.1" id="Layer_1" xmlns="http://www.w3.org/2000/svg" xmlns:xlink="http://www.w3.org/1999/xlink" x="0px" y="0px"
	 width="235.398px" height="278.523px" viewBox="0 0 235.398 278.523" enable-background="new 0 0 235.398 278.523"
	 xml:space="preserve">
<g>
	<path d="M156.701,76.871c-5.523,0-10,4.476-10,10v135.48c0,5.523,4.477,10,10,10s10-4.477,10-10V86.871
		C166.701,81.347,162.225,76.871,156.701,76.871L156.701,76.871z M156.701,76.871"/>
	<path d="M117.701,76.871c-5.523,0-10,4.476-10,10v135.48c0,5.523,4.477,10,10,10s10-4.477,10-10V86.871
		C127.701,81.347,123.225,76.871,117.701,76.871L117.701,76.871z M117.701,76.871"/>
	<path d="M78.698,76.871c-5.523,0-10,4.476-10,10v135.48c0,5.523,4.477,10,10,10s10-4.477,10-10V86.871
		C88.698,81.347,84.222,76.871,78.698,76.871L78.698,76.871z M78.698,76.871"/>
	<path d="M225.398,30.699h-48.797V10c0-5.524-4.48-10-10-10H68.801c-5.524,0-10,4.476-10,10v20.699H10c-5.523,0-10,4.476-10,10
		c0,5.523,4.477,10,10,10h9.004l7,217.825c0,5.52,4.476,10,10,10h164.391c5.523,0,10-4.48,10-10l6-217.825h9.004
		c5.523,0,10-4.477,10-10C235.398,35.175,230.922,30.699,225.398,30.699L225.398,30.699z M78.801,20h77.801v10.699H78.801V20z
		 M190.395,258.523H46.004l-7-207.825h157.391L190.395,258.523z M190.395,258.523"/>
</g>
</svg>
