<?xml version="1.0" encoding="iso-8859-1"?>
<svg xmlns="http://www.w3.org/2000/svg" xmlns:xlink="http://www.w3.org/1999/xlink" version="1.1" viewBox="0 0 295.82 295.82" enable-background="new 0 0 295.82 295.82" width="512px" height="512px">
  <g>
    <g>
      <path d="m254.058,100.927l-93.967-93.967c-5.22-3.48-12.181-6.96-19.141-6.96h-62.645c-24.361,0-43.503,19.141-43.503,43.503v208.814c0,24.362 19.141,43.503 43.503,43.503h139.21c24.362,0 43.503-19.141 43.503-43.503v-132.249c-5.68434e-14-6.96-1.74-13.921-6.96-19.141zm-97.447-73.085l76.565,76.565h-50.463c-13.921,0-26.102-12.181-26.102-26.102v-50.463zm60.904,250.577h-139.21c-13.921,0-26.102-12.181-26.102-26.102v-208.814c0-13.921 12.181-26.102 26.102-26.102h60.904v60.904c0,24.362 19.141,43.503 43.503,43.503h60.904v130.509c0.001,13.921-12.18,26.102-26.101,26.102z" fill="#999898"/>
      <path d="m182.713,177.493h-26.102v-26.102c0-5.22-3.48-8.701-8.701-8.701-5.22,0-8.701,3.48-8.701,8.701v26.102h-26.102c-5.22,0-8.701,3.48-8.701,8.701 0,5.22 3.48,8.701 8.701,8.701h26.102v26.102c0,5.22 3.48,8.701 8.701,8.701 5.22,0 8.701-3.48 8.701-8.701v-26.102h26.102c5.22,0 8.701-3.48 8.701-8.701-0.001-5.221-3.481-8.701-8.701-8.701z" fill="#999898"/>
    </g>
  </g>
</svg>
