<?xml version="1.0" encoding="utf-8"?>
<!-- Generator: Adobe Illustrator 16.0.0, SVG Export Plug-In . SVG Version: 6.00 Build 0)  -->
<!DOCTYPE svg PUBLIC "-//W3C//DTD SVG 1.1//EN" "http://www.w3.org/Graphics/SVG/1.1/DTD/svg11.dtd">
<svg version="1.1" id="Layer_1" xmlns="http://www.w3.org/2000/svg" xmlns:xlink="http://www.w3.org/1999/xlink" x="0px" y="0px"
	 width="58.854px" height="58.852px" viewBox="0 0 58.854 58.852" enable-background="new 0 0 58.854 58.852" xml:space="preserve">
<g>
	<linearGradient id="SVGID_1_" gradientUnits="userSpaceOnUse" x1="29.4268" y1="0.9375" x2="29.4268" y2="58.367">
		<stop  offset="0" style="stop-color:#7BBF40"/>
		<stop  offset="1" style="stop-color:#47A537"/>
	</linearGradient>
	<path fill="url(#SVGID_1_)" d="M58.854,50.012c0,4.882-3.959,8.84-8.842,8.84H8.841C3.958,58.852,0,54.894,0,50.012V8.84
		C0,3.958,3.958,0,8.841,0h41.171c4.883,0,8.842,3.958,8.842,8.84V50.012z"/>
	<line fill="none" stroke="#FFFFFF" stroke-miterlimit="10" x1="29.426" y1="58.852" x2="29.426" y2="0"/>
	<line fill="none" stroke="#FFFFFF" stroke-miterlimit="10" x1="58.853" y1="29.426" x2="0" y2="29.426"/>
	<g>
		<g>
			<path fill="#FFFFFF" d="M49.511,43.893l-9.239-5.333c-0.175-0.102-0.392-0.102-0.568,0c-0.176,0.101-0.284,0.289-0.284,0.492
				v10.667c0,0.204,0.108,0.391,0.284,0.492c0.087,0.051,0.187,0.076,0.284,0.076c0.099,0,0.197-0.025,0.284-0.076l9.239-5.333
				c0.176-0.102,0.283-0.289,0.283-0.492C49.794,44.182,49.687,43.994,49.511,43.893z"/>
		</g>
		<path fill="#FFFFFF" d="M49.311,52.932h-9.406c-2.221,0-4.027-1.806-4.027-4.026v-9.041c0-2.22,1.807-4.027,4.027-4.027h9.406
			c2.22,0,4.026,1.807,4.026,4.027v9.041C53.337,51.125,51.531,52.932,49.311,52.932z M39.904,36.838
			c-1.669,0-3.027,1.358-3.027,3.027v9.041c0,1.669,1.358,3.026,3.027,3.026h9.406c1.669,0,3.026-1.357,3.026-3.026v-9.041
			c0-1.669-1.357-3.027-3.026-3.027H39.904z"/>
	</g>
	<path fill-rule="evenodd" clip-rule="evenodd" fill="#FFFFFF" d="M17.512,45.006L17.512,45.006c0-1.667,1.332-2.998,2.997-2.998
		c0.185,0,0.333,0,0.48,0.036c0.185,0,0.334-0.036,0.444-0.147c0.149-0.11,0.223-0.296,0.223-0.444V39.05
		c0-0.148-0.074-0.296-0.185-0.407c-0.148-0.11-0.297-0.148-0.482-0.148l-8.471-1.295c-0.259,0-0.518,0.26-0.518,0.591
		l-0.074,12.986c0,0,0,0,0,0.036c-0.037,1.59-1.406,2.924-3.035,2.924c-1.664,0-2.996-1.369-2.996-3.034
		c0-1.667,1.332-3.036,2.996-3.036c0.148,0,0.297,0,0.482,0.038c0.148,0.039,0.296-0.038,0.48-0.112
		c0.074-0.147,0.147-0.295,0.147-0.443V33.722l13.577,0.961v10.471c-0.037,1.59-1.405,2.921-3.07,2.921S17.512,46.671,17.512,45.006
		L17.512,45.006z"/>
	<g>
		<path fill="#FFFFFF" d="M5.273,14.706c0,0.103,0.002,0.204,0.006,0.305c0,0.032,0.002,0.061,0.003,0.092
			c0.001,0.038,0.003,0.077,0.005,0.115c0.312,0.254,2.218,1.714,4.939,1.714c0.125,0,0.252-0.003,0.378-0.009l0.001-4.543
			c-1.497-2.26-1.395-4.648-1.301-5.476C9.264,6.932,9.223,6.961,9.182,6.991L9.117,7.04c-0.07,0.052-0.138,0.104-0.206,0.158
			C8.862,7.235,8.813,7.275,8.765,7.315L8.719,7.352C8.685,7.38,8.651,7.41,8.617,7.438C8.267,7.739,7.933,8.068,7.629,8.416
			L7.581,8.471C7.532,8.528,7.484,8.584,7.438,8.642C7.385,8.706,7.333,8.771,7.281,8.837c-0.025,0.034-0.051,0.066-0.076,0.1
			C7.127,9.04,7.064,9.126,7.006,9.209l-0.021,0.03C6.831,9.461,6.685,9.691,6.551,9.922c-0.056,0.097-0.111,0.197-0.168,0.306
			l-0.02,0.039c-0.023,0.045-0.046,0.09-0.068,0.135l-0.017,0.035c-0.176,0.351-0.331,0.711-0.457,1.07
			c-0.055,0.155-0.107,0.315-0.16,0.492l-0.003,0.011c-0.021,0.074-0.042,0.147-0.062,0.22L5.59,12.25
			c-0.006,0.02-0.01,0.037-0.014,0.056l-0.011,0.041c-0.022,0.09-0.045,0.181-0.065,0.273L5.48,12.71
			c-0.022,0.104-0.043,0.209-0.062,0.314l-0.012,0.069c-0.019,0.111-0.036,0.224-0.051,0.333l-0.005,0.041
			c-0.014,0.107-0.026,0.223-0.039,0.354l-0.007,0.078c-0.01,0.118-0.017,0.236-0.022,0.351L5.281,14.32
			c-0.005,0.133-0.008,0.252-0.008,0.362l-0.132,0.01h0.131L5.273,14.706z"/>
		<path fill="#FFFFFF" d="M6.889,20.004c0.015,0.022,0.029,0.045,0.044,0.067l0.01,0.013c0.055,0.081,0.111,0.159,0.168,0.237
			l0.05,0.069c0.051,0.069,0.103,0.136,0.156,0.204c0.04,0.05,0.079,0.099,0.12,0.148l0.036,0.042
			c0.028,0.035,0.058,0.07,0.087,0.104c0.301,0.352,0.63,0.685,0.978,0.989l0.054,0.048c0.057,0.048,0.114,0.096,0.171,0.144
			c0.065,0.053,0.13,0.104,0.196,0.156c0.033,0.026,0.066,0.051,0.099,0.076c0.104,0.079,0.191,0.143,0.273,0.2l0.028,0.02
			c0.224,0.155,0.454,0.301,0.685,0.434c0.098,0.057,0.2,0.113,0.306,0.169l0.038,0.02c0.039,0.021,0.08,0.041,0.119,0.061
			c0.393-0.148,2.8-1.146,4.134-3.753l-3.935-2.271c-0.159,0.01-0.319,0.015-0.478,0.015c-2.462,0-4.284-1.162-4.914-1.626
			c0.005,0.055,0.011,0.109,0.017,0.164l0.01,0.084c0.011,0.093,0.023,0.182,0.036,0.271l0.006,0.047
			c0.015,0.099,0.032,0.197,0.05,0.296l0.017,0.088c0.017,0.086,0.034,0.171,0.054,0.257l0.012,0.053
			c0.005,0.021,0.01,0.041,0.015,0.062l0.014,0.055c0.017,0.074,0.036,0.147,0.055,0.221l0.009,0.033
			c0.004,0.017,0.009,0.033,0.014,0.049l0.011,0.037c0.026,0.091,0.053,0.183,0.082,0.275l0.027,0.083
			c0.033,0.1,0.067,0.201,0.104,0.302l0.02,0.054c0.046,0.125,0.091,0.24,0.137,0.35c0.16,0.383,0.345,0.757,0.551,1.114
			c0.057,0.097,0.117,0.197,0.181,0.3l0.023,0.035c0.026,0.042,0.054,0.083,0.081,0.124L6.889,20.004z"/>
		<path fill="#FFFFFF" d="M16.672,24.063c0.09-0.018,0.179-0.038,0.268-0.058l0.044-0.009c0.021-0.005,0.04-0.011,0.06-0.015
			l0.044-0.012c0.08-0.02,0.162-0.04,0.242-0.062l0.023-0.007c0.016-0.004,0.032-0.008,0.047-0.014l0.039-0.011
			c0.094-0.027,0.187-0.055,0.279-0.084l0.078-0.026c0.103-0.035,0.205-0.07,0.308-0.108l0.049-0.019
			c0.504-0.19,0.997-0.425,1.462-0.698c0.097-0.057,0.195-0.117,0.299-0.183l0.034-0.021c0.039-0.025,0.076-0.05,0.113-0.075
			c0.064-0.415,0.386-3.003-1.218-5.449l-3.92,2.296c-1.194,2.435-3.303,3.552-4.066,3.89c0.267,0.122,0.537,0.23,0.807,0.324
			c0.153,0.053,0.313,0.104,0.49,0.155l0.01,0.002c0.076,0.021,0.152,0.043,0.229,0.063l0.009,0.002
			c0.026,0.007,0.043,0.011,0.062,0.015l0.039,0.01c0.092,0.022,0.186,0.044,0.279,0.064l0.086,0.018
			c0.105,0.022,0.212,0.042,0.319,0.061l0.061,0.01c0.117,0.019,0.232,0.035,0.344,0.049l0.033,0.005
			c0.109,0.013,0.227,0.025,0.358,0.036l0.07,0.005c0.12,0.009,0.24,0.016,0.357,0.021l0.065,0.002
			c0.139,0.005,0.263,0.006,0.377,0.006h0c0.108-0.001,0.216-0.004,0.324-0.008l0.081-0.004c0.048-0.002,0.096-0.005,0.144-0.009
			l0.086-0.005c0.024-0.001,0.047-0.003,0.072-0.004l0.012-0.001c0.114-0.009,0.22-0.021,0.325-0.033l0.074-0.009
			c0.098-0.012,0.192-0.024,0.286-0.039l0.035-0.005c0.1-0.017,0.199-0.034,0.298-0.053l0.032,0.116h0l-0.022-0.117L16.672,24.063z"
			/>
		<path fill="#FFFFFF" d="M24.303,15.448c0.009-0.12,0.016-0.24,0.021-0.358l0.002-0.063c0.004-0.14,0.006-0.264,0.006-0.377
			c-0.001-0.109-0.004-0.217-0.009-0.324l-0.003-0.081c-0.002-0.047-0.005-0.094-0.008-0.141l-0.006-0.088
			c-0.001-0.024-0.003-0.049-0.005-0.074L24.3,13.928c-0.009-0.112-0.02-0.217-0.032-0.324l-0.009-0.076
			c-0.012-0.096-0.025-0.191-0.04-0.288l-0.004-0.03c-0.014-0.084-0.028-0.168-0.044-0.252c-0.786-0.641-1.767-0.961-2.916-0.954
			c-1.086,0.007-2,0.314-2.27,0.414l0.029,4.578c1.51,2.249,1.423,4.639,1.335,5.467c0.042-0.03,0.084-0.061,0.125-0.091
			l0.061-0.045c0.07-0.053,0.139-0.106,0.208-0.161c0.047-0.037,0.095-0.076,0.142-0.115l0.051-0.043
			c0.033-0.028,0.065-0.055,0.098-0.084c0.347-0.301,0.676-0.629,0.977-0.976l0.057-0.068c0.043-0.05,0.086-0.102,0.127-0.152
			c0.058-0.071,0.114-0.142,0.169-0.214c0.024-0.032,0.048-0.063,0.072-0.094c0.077-0.103,0.143-0.194,0.201-0.279l0.017-0.023
			c0.154-0.225,0.299-0.457,0.432-0.69c0.056-0.098,0.112-0.201,0.167-0.307l0.02-0.038c0.022-0.044,0.044-0.088,0.066-0.133
			l0.018-0.037c0.173-0.352,0.325-0.714,0.45-1.073c0.053-0.151,0.103-0.309,0.152-0.481c0.024-0.084,0.048-0.168,0.071-0.254
			l0.003-0.011c0.004-0.015,0.008-0.033,0.013-0.051l0.009-0.039c0.023-0.095,0.046-0.19,0.066-0.285l0.017-0.082
			c0.021-0.106,0.042-0.213,0.06-0.321l0.01-0.057c0.02-0.123,0.037-0.238,0.051-0.351l0.004-0.027
			c0.014-0.11,0.025-0.229,0.037-0.362L24.303,15.448z"/>
		<path fill="#FFFFFF" d="M17.617,5.588c-0.053-0.017-0.106-0.033-0.162-0.049l-0.021-0.006c-0.07-0.021-0.14-0.041-0.211-0.06
			L17.21,5.469c-0.016-0.005-0.035-0.01-0.054-0.014l-0.043-0.011c-0.091-0.023-0.182-0.046-0.274-0.066L16.752,5.36
			c-0.104-0.022-0.208-0.043-0.313-0.062l-0.063-0.011c-0.116-0.02-0.232-0.038-0.343-0.051l-0.03-0.004
			c-0.109-0.015-0.226-0.027-0.359-0.039l-0.068-0.007c-0.119-0.01-0.238-0.017-0.356-0.023l-0.063-0.002
			c-0.271-0.011-0.477-0.01-0.697-0.002c-0.027,0.001-0.054,0.001-0.082,0.003c-0.047,0.002-0.094,0.005-0.141,0.008l-0.084,0.005
			c-0.024,0.001-0.048,0.002-0.072,0.004l-0.021,0.001c-0.106,0.008-0.21,0.019-0.314,0.03l-0.08,0.009
			c-0.093,0.011-0.186,0.024-0.277,0.037L13.35,5.26c-0.1,0.015-0.199,0.033-0.296,0.05l-0.085,0.017
			c-0.088,0.017-0.175,0.035-0.263,0.055l-0.047,0.01c-0.019,0.004-0.039,0.009-0.058,0.014l-0.046,0.012
			c-0.079,0.019-0.158,0.038-0.237,0.06l-0.026,0.007c-0.017,0.005-0.034,0.01-0.05,0.015l-0.035,0.01
			c-0.092,0.026-0.184,0.054-0.276,0.083L11.85,5.618c-0.102,0.033-0.203,0.068-0.304,0.105l-0.049,0.018
			c-0.128,0.048-0.243,0.092-0.353,0.139c-0.378,0.159-0.75,0.344-1.105,0.551C9.942,6.486,9.845,6.545,9.74,6.611L9.706,6.633
			C9.668,6.657,9.631,6.682,9.594,6.707c-0.067,0.415-0.403,3,1.176,5.457l3.892-2.261C14.74,9.441,15.305,6.653,17.617,5.588z"/>
		<path fill="#FFFFFF" d="M21.294,11.767c1.096,0,2.046,0.284,2.832,0.844c-0.001-0.003-0.001-0.008-0.003-0.011l-0.009-0.04
			c-0.004-0.017-0.008-0.034-0.012-0.051l-0.011-0.045c-0.021-0.084-0.041-0.169-0.064-0.253l-0.029-0.104
			c-0.027-0.094-0.054-0.188-0.083-0.283l-0.025-0.077c-0.034-0.103-0.068-0.206-0.106-0.308l-0.018-0.05
			c-0.047-0.126-0.091-0.24-0.137-0.349l-0.004-0.01c-0.158-0.377-0.342-0.75-0.548-1.107c-0.057-0.097-0.117-0.198-0.181-0.299
			l-0.023-0.037c-0.026-0.042-0.054-0.082-0.081-0.123l-0.055-0.083c-0.015-0.023-0.03-0.047-0.045-0.07
			c-0.06-0.088-0.12-0.171-0.18-0.254l-0.043-0.06c-0.053-0.071-0.106-0.141-0.161-0.209c-0.037-0.047-0.074-0.094-0.113-0.14
			l-0.045-0.055c-0.027-0.033-0.054-0.064-0.082-0.097c-0.213-0.249-0.438-0.487-0.669-0.708c-0.098-0.092-0.195-0.181-0.297-0.271
			l-0.073-0.063c-0.049-0.042-0.097-0.083-0.146-0.124c-0.071-0.059-0.144-0.116-0.218-0.173c-0.03-0.024-0.061-0.047-0.092-0.071
			c-0.107-0.08-0.195-0.145-0.278-0.204l-0.023-0.016c-0.223-0.155-0.454-0.302-0.687-0.436c-0.098-0.057-0.197-0.112-0.305-0.169
			L19.238,6.24c-0.043-0.022-0.086-0.043-0.129-0.065L19.07,6.156c-0.337-0.168-0.682-0.317-1.026-0.441
			c-2.393,0.894-2.993,3.677-3.087,4.202l3.944,2.278C19.15,12.1,20.113,11.767,21.294,11.767z"/>
	</g>
	<g>
		<g>
			<rect x="37.948" y="5.786" fill="#FFFFFF" width="12.388" height="17.386"/>
		</g>
		<g>
			<g>
				<rect x="51.891" y="6.177" fill="#FFFFFF" width="2.47" height="1.683"/>
				<rect x="51.891" y="9.095" fill="#FFFFFF" width="2.47" height="1.686"/>
				<rect x="51.891" y="12.015" fill="#FFFFFF" width="2.47" height="1.684"/>
				<rect x="51.891" y="14.934" fill="#FFFFFF" width="2.47" height="1.684"/>
				<rect x="51.891" y="17.852" fill="#FFFFFF" width="2.47" height="1.685"/>
				<rect x="51.891" y="20.772" fill="#FFFFFF" width="2.47" height="1.685"/>
			</g>
			<g>
				<rect x="33.926" y="6.177" fill="#FFFFFF" width="2.47" height="1.683"/>
				<rect x="33.926" y="9.095" fill="#FFFFFF" width="2.47" height="1.686"/>
				<rect x="33.926" y="12.015" fill="#FFFFFF" width="2.47" height="1.684"/>
				<rect x="33.926" y="14.934" fill="#FFFFFF" width="2.47" height="1.684"/>
				<rect x="33.926" y="17.852" fill="#FFFFFF" width="2.47" height="1.685"/>
				<rect x="33.926" y="20.772" fill="#FFFFFF" width="2.47" height="1.685"/>
			</g>
		</g>
	</g>
</g>
</svg>
