<?xml version="1.0" encoding="utf-8"?>
<!-- Generator: Adobe Illustrator 16.0.0, SVG Export Plug-In . SVG Version: 6.00 Build 0)  -->
<!DOCTYPE svg PUBLIC "-//W3C//DTD SVG 1.1//EN" "http://www.w3.org/Graphics/SVG/1.1/DTD/svg11.dtd">
<svg version="1.1" id="Layer_1" xmlns="http://www.w3.org/2000/svg" xmlns:xlink="http://www.w3.org/1999/xlink" x="0px" y="0px"
	 width="133.224px" height="117.277px" viewBox="0 0 133.224 117.277" enable-background="new 0 0 133.224 117.277"
	 xml:space="preserve">
<g>
	<g>
		<linearGradient id="SVGID_1_" gradientUnits="userSpaceOnUse" x1="66.6118" y1="1.8687" x2="66.6118" y2="116.3113">
			<stop  offset="0" style="stop-color:#8AC651"/>
			<stop  offset="1" style="stop-color:#55AF47"/>
		</linearGradient>
		<path fill="url(#SVGID_1_)" d="M133.224,99.662c0,9.729-7.889,17.615-17.62,17.615H17.618C7.886,117.277,0,109.39,0,99.662V17.617
			C0,7.886,7.886,0,17.618,0h97.987c9.73,0,17.62,7.886,17.62,17.617V99.662z"/>
	</g>
	<g>
		<g>
			<path fill-rule="evenodd" clip-rule="evenodd" fill="#FFFFFF" d="M116.396,53.625V40.659l-13.685-1.219
				c-0.86-3.548-2.222-6.949-4.086-9.927l8.886-10.568l-9.246-9.102l-10.493,8.854c-3.015-1.902-6.344-3.228-9.927-4.05
				L76.699,0.852H63.69l-1.183,13.794c-3.543,0.822-6.878,2.148-9.887,4.05L42.089,9.843l-9.175,9.102l8.852,10.568
				c-1.9,2.978-3.264,6.379-4.123,9.927L23.99,40.659v12.966l13.653,1.078c0.859,3.583,2.222,6.984,4.123,9.96l-8.852,10.532
				l9.175,9.139l10.531-8.741c3.008,1.788,6.343,3.258,9.887,4.044l1.183,13.688h13.009l1.146-13.688
				c3.583-0.786,6.912-2.256,9.927-4.044l10.493,8.741l9.246-9.139l-8.886-10.532c1.864-2.977,3.227-6.378,4.086-9.96
				L116.396,53.625z M70.178,63.375c-8.991,0-16.269-7.204-16.269-16.231c0-8.997,7.278-16.343,16.269-16.343
				c9.028,0,16.265,7.346,16.265,16.343C86.443,56.171,79.206,63.375,70.178,63.375z"/>
		</g>
	</g>
	<g>
		<path fill="#FFFFFF" d="M43.805,101.351l11.931-6.947l-5.63-11.688l-12.867,4.791c-2.195-2.81-4.88-5.182-7.975-7.165
			l3.577-13.371l-12.244-4.393l-5.771,12.583c-3.614-0.42-7.202-0.3-10.674,0.476L0,68.505v27.918
			c4.318-4.032,10.663-5.589,16.59-3.464c8.5,3.048,12.833,12.406,9.795,20.873c-0.446,1.246-1.038,2.388-1.729,3.444h30.891
			L44.3,112.074C44.689,108.442,44.554,104.784,43.805,101.351z"/>
	</g>
</g>
</svg>
