<?xml version="1.0" encoding="iso-8859-1"?>
<!-- Generator: Adobe Illustrator 18.1.1, SVG Export Plug-In . SVG Version: 6.00 Build 0)  -->
<svg xmlns="http://www.w3.org/2000/svg" xmlns:xlink="http://www.w3.org/1999/xlink" version="1.1" id="Capa_1" x="0px" y="0px" viewBox="0 0 102.384 102.384" style="enable-background:new 0 0 102.384 102.384;" xml:space="preserve" width="512px" height="512px">
<g>
	<path d="M100.598,19.01h-48.88l-0.004-0.004L8.768,5.954C8.221,5.786,7.637,5.886,7.183,6.226   C6.728,6.562,6.46,7.099,6.46,7.661V19.01h-4.67C0.802,19.01,0,19.815,0,20.799v63.256c0,0.988,0.802,1.789,1.789,1.789h37.102   v7.086h-6.785v1.789v1.789h38.172V94.72v-1.789h-6.785v-7.086h37.102c0.984,0,1.789-0.802,1.789-1.789V20.799   C102.387,19.808,101.586,19.01,100.598,19.01z M10.035,19.01v-8.933l29.386,8.933l5.887,1.789l4.094,1.245v0.544v58.972   L10.035,69.593V22.589v-1.789V19.01z M98.808,82.269H52.981V22.589h7.032v6.639l3.482-2.205l3.486,2.205v-6.639h31.837v59.677   h-0.011V82.269z M43.336,33.529l-13.95-4.245V26.93l13.95,4.248V33.529z M43.336,42.512l-13.95-4.245v-2.362l13.95,4.248V42.512z    M43.336,51.57l-27.897-8.485v-2.351l27.897,8.482V51.57z M43.336,60.546l-27.897-8.482v-2.358l27.897,8.482V60.546z    M43.336,69.611l-27.897-8.485v-2.355l27.897,8.478V69.611z M17.826,35.444l0.727-2.369l4.202,1.274l0.748,2.817l1.22,0.372   l1.228,0.372l-3.915-13.925l-1.342-0.404l-1.342-0.404l-3.915,11.542l1.199,0.369L17.826,35.444z M20.664,26.414l1.467,5.558   l-2.935-0.891L20.664,26.414z M93.465,60.71H61.374v-2.358h32.092V60.71z M93.465,69.769H61.374v-2.355h32.092V69.769z    M86.776,49.426h-4.363c-0.92-2.498-2.523-4.549-4.513-5.737c1.149-1.084,1.822-2.602,1.822-4.209c0-2.727-1.879-5-4.406-5.64   c0.877-0.762,2.004-1.238,3.253-1.238c2.752,0,4.978,2.23,4.978,4.982c0,1.897-1.074,3.525-2.627,4.37   C83.752,42.984,85.982,45.822,86.776,49.426z M76.237,43.85c1.568-0.841,2.634-2.466,2.634-4.366c0-2.756-2.23-4.985-4.982-4.985   c-2.752,0-4.978,2.23-4.978,4.985c0,1.893,1.074,3.518,2.63,4.366c-2.831,1.031-5.06,3.869-5.862,7.473h16.409   C81.297,47.719,79.071,44.881,76.237,43.85z" fill="#FFFFFF"/>
</g>
<g>
</g>
<g>
</g>
<g>
</g>
<g>
</g>
<g>
</g>
<g>
</g>
<g>
</g>
<g>
</g>
<g>
</g>
<g>
</g>
<g>
</g>
<g>
</g>
<g>
</g>
<g>
</g>
<g>
</g>
</svg>
