<?xml version="1.0" encoding="utf-8"?>
<!-- Generator: Adobe Illustrator 16.0.0, SVG Export Plug-In . SVG Version: 6.00 Build 0)  -->
<!DOCTYPE svg PUBLIC "-//W3C//DTD SVG 1.1//EN" "http://www.w3.org/Graphics/SVG/1.1/DTD/svg11.dtd">
<svg version="1.1" id="Layer_1" xmlns="http://www.w3.org/2000/svg" xmlns:xlink="http://www.w3.org/1999/xlink" x="0px" y="0px"
	 width="48px" height="48px" viewBox="0 0 48 48" enable-background="new 0 0 48 48" xml:space="preserve">
<g>
	<path fill="#1E8A70" d="M1,42.75c0,1.657,1.343,3,3,3h39.834c1.657,0,3-1.343,3-3V5.303c0-1.657-1.343-3-3-3H4
		c-1.657,0-3,1.343-3,3V42.75z"/>
</g>
<g>
	<path fill="#FFFFFF" d="M38.485,14.591H24.154l-0.001-0.001l-12.591-3.827c-0.161-0.049-0.332-0.02-0.465,0.08
		c-0.133,0.099-0.212,0.256-0.212,0.421v3.327H9.516c-0.29,0-0.525,0.236-0.525,0.524v18.546c0,0.289,0.235,0.524,0.524,0.524
		h10.878v2.077h-1.989v0.525v0.523h11.191v-0.523v-0.525h-1.989v-2.077h10.878c0.288,0,0.524-0.235,0.524-0.524V15.116
		C39.01,14.825,38.774,14.591,38.485,14.591z M11.934,14.591v-2.619l8.615,2.619l1.726,0.524l1.2,0.365v0.16V32.93l-11.542-3.508
		V15.641v-0.524V14.591z M37.96,33.139H24.524V15.641h2.063v1.947l1.021-0.646l1.022,0.646v-1.947h9.334v17.496H37.96V33.139
		L37.96,33.139z M21.697,18.848l-4.09-1.245v-0.69l4.09,1.246V18.848z M21.697,21.482l-4.09-1.245v-0.692l4.09,1.246V21.482z
		 M21.697,24.138l-8.179-2.488V20.96l8.179,2.487V24.138z M21.697,26.77l-8.179-2.487v-0.691l8.179,2.487V26.77z M21.697,29.428
		l-8.179-2.488v-0.69l8.179,2.485V29.428z M14.218,19.41l0.213-0.694l1.232,0.374l0.219,0.826l0.358,0.109l0.36,0.109l-1.147-4.083
		l-0.394-0.119l-0.394-0.119l-1.148,3.384l0.352,0.108L14.218,19.41z M15.05,16.762l0.43,1.629l-0.861-0.261L15.05,16.762z
		 M36.394,26.817h-9.408v-0.691h9.409L36.394,26.817L36.394,26.817z M36.394,29.474h-9.408v-0.69h9.409L36.394,29.474L36.394,29.474
		z M34.433,23.509h-1.279c-0.27-0.732-0.739-1.334-1.322-1.682c0.336-0.318,0.533-0.763,0.533-1.234c0-0.8-0.551-1.466-1.291-1.654
		c0.257-0.224,0.588-0.363,0.953-0.363c0.807,0,1.46,0.654,1.46,1.46c0,0.556-0.315,1.034-0.771,1.281
		C33.546,21.621,34.2,22.453,34.433,23.509z M31.343,21.874c0.46-0.247,0.772-0.723,0.772-1.28c0-0.808-0.653-1.461-1.46-1.461
		c-0.808,0-1.46,0.654-1.46,1.461c0,0.555,0.315,1.031,0.771,1.28c-0.83,0.302-1.483,1.135-1.719,2.191h4.812
		C32.827,23.009,32.174,22.176,31.343,21.874z"/>
</g>
</svg>
