<?xml version="1.0" encoding="utf-8"?>
<!-- Generator: Adobe Illustrator 16.0.0, SVG Export Plug-In . SVG Version: 6.00 Build 0)  -->
<!DOCTYPE svg PUBLIC "-//W3C//DTD SVG 1.1//EN" "http://www.w3.org/Graphics/SVG/1.1/DTD/svg11.dtd">
<svg version="1.1" id="Layer_1" xmlns="http://www.w3.org/2000/svg" xmlns:xlink="http://www.w3.org/1999/xlink" x="0px" y="0px"
	 width="48px" height="48px" viewBox="0 0 48 48" enable-background="new 0 0 48 48" xml:space="preserve">
<g>
	<path fill="#B0B71D" d="M1,42.75c0,1.657,1.343,3,3,3h39.834c1.657,0,3-1.343,3-3V5.303c0-1.657-1.343-3-3-3H4
		c-1.657,0-3,1.343-3,3V42.75z"/>
</g>
<g>
	<g>
		<path fill="#FFFFFF" d="M21.882,31.326l-1.709-4.742l-7.461-7.481l0.004-0.006l-2.394-2.394l-2.814,2.814l2.394,2.394l0.003-0.002
			l7.417,7.415L21.882,31.326z M9.442,20.403l-0.885-0.885l1.766-1.766l0.885,0.887L9.442,20.403z M18.477,27.739l1.107,0.198
			l0.011-1.432l0.245,0.244l0.974,2.708l-0.697,0.696l-2.556-1.116L17.224,28.7l1.51,0.09L18.477,27.739z"/>
		<path fill="#FFFFFF" d="M33.489,17.013c-4.41,0-8,2.468-8,5.503c0,1.719,1.168,3.333,3.144,4.37l-1.538,2.685l0.662-0.102
			c0.044-0.009,4.458-0.694,7.487-1.591c3.97-1.177,6.248-3.132,6.248-5.362C41.492,19.481,37.902,17.013,33.489,17.013z
			 M34.292,25.494h-1.729v-1.646h1.729V25.494z M35.698,21.749c-0.066,0.159-0.155,0.29-0.264,0.395
			c-0.106,0.105-0.228,0.192-0.359,0.262c-0.134,0.069-0.269,0.14-0.407,0.211c-0.094,0.05-0.172,0.1-0.233,0.15
			c-0.063,0.048-0.107,0.102-0.143,0.157c-0.032,0.056-0.056,0.119-0.068,0.191c-0.014,0.072-0.021,0.155-0.021,0.249h-1.538
			c-0.006-0.083-0.008-0.188-0.008-0.316c0-0.133,0.016-0.269,0.048-0.407c0.032-0.137,0.092-0.273,0.177-0.407
			c0.082-0.133,0.204-0.243,0.364-0.331c0.066-0.035,0.146-0.07,0.233-0.109c0.087-0.04,0.174-0.083,0.252-0.13
			c0.08-0.046,0.148-0.103,0.201-0.171c0.058-0.066,0.085-0.146,0.085-0.242c0-0.282-0.16-0.424-0.483-0.424
			c-0.199,0-0.339,0.072-0.424,0.217c-0.083,0.144-0.114,0.308-0.1,0.491h-1.736c0.016-0.261,0.068-0.517,0.157-0.769
			c0.089-0.251,0.225-0.478,0.405-0.677c0.184-0.2,0.417-0.362,0.702-0.486c0.288-0.125,0.634-0.188,1.045-0.188
			c0.403,0,0.743,0.055,1.022,0.163c0.276,0.107,0.499,0.246,0.671,0.415c0.174,0.169,0.3,0.355,0.38,0.558
			c0.08,0.202,0.126,0.396,0.138,0.577C35.797,21.386,35.765,21.592,35.698,21.749z"/>
		<path fill="#FFFFFF" d="M15.513,16.269h4.463v1.443h6.541v-1.443h4.461v0.203c0.364-0.082,0.737-0.146,1.117-0.192v-1.13h-5.578
			v-2.414h-1.767c0.515-0.432,0.853-1.072,0.853-1.794c-0.003-1.299-1.061-2.355-2.359-2.355c-1.298,0-2.354,1.056-2.354,2.354
			c0,0.723,0.336,1.363,0.85,1.794h-1.766v2.415h-5.579v4.711l1.118,1.121V16.269z M23.246,9.704c0.682,0,1.235,0.554,1.235,1.236
			s-0.554,1.236-1.235,1.236c-0.682,0-1.236-0.554-1.236-1.236S22.565,9.704,23.246,9.704z"/>
		<path fill="#FFFFFF" d="M30.979,36.088H15.513v-7.512l-1.118-1.12v9.748h17.7v-7.82c-0.38,0.081-0.755,0.158-1.117,0.229V36.088z"
			/>
	</g>
</g>
</svg>
