<?xml version="1.0" encoding="utf-8"?>
<!-- Generator: Adobe Illustrator 16.0.0, SVG Export Plug-In . SVG Version: 6.00 Build 0)  -->
<!DOCTYPE svg PUBLIC "-//W3C//DTD SVG 1.1//EN" "http://www.w3.org/Graphics/SVG/1.1/DTD/svg11.dtd">
<svg version="1.1" id="Layer_1" xmlns="http://www.w3.org/2000/svg" xmlns:xlink="http://www.w3.org/1999/xlink" x="0px" y="0px"
	 width="48px" height="48px" viewBox="0 0 48 48" enable-background="new 0 0 48 48" xml:space="preserve">
<g>
	<path fill="#FBBA29" d="M1,42.75c0,1.657,1.343,3,3,3h39.834c1.657,0,3-1.343,3-3V5.303c0-1.657-1.343-3-3-3H4
		c-1.657,0-3,1.343-3,3V42.75z"/>
</g>
<g>
	<path fill="#FFFFFF" d="M40.248,27.656v-0.939H39.42v-0.875h-0.835V11.703c0-0.621-0.508-1.125-1.125-1.125H8.122
		c-0.621,0-1.125,0.504-1.125,1.125v19.559c0,0.62,0.507,1.122,1.125,1.122h21.743v1.734h0.876v1.532h0.689v1.412v0.811v0.079h7.939
		v-0.681v-0.205v-1.58h0.844v-2.315h0.816v-5.515H40.248L40.248,27.656z M37.458,21.473c0.389,0,0.706,0.315,0.706,0.707
		c0,0.391-0.315,0.705-0.706,0.705c-0.392,0-0.706-0.314-0.706-0.705C36.752,21.788,37.07,21.473,37.458,21.473z M28.234,30.136
		H9.244V12.827h27.089v12.448h-0.065H36.14h-0.684v-0.842H33.98v-3.2h-0.753v-0.843h-1.797v0.843h-0.846v6.672h-0.803V27.53h-1.346
		h-0.828h-0.064v2.328h0.689L28.234,30.136L28.234,30.136z M40.137,32.95h-0.813v1.784h-0.845v2.332h-6.158v-1.516h-0.688V33.67
		h-0.877v-1.283v-0.25h-0.785v-0.878v-0.72h-0.844v-0.402v-0.41h-0.688v-1.303h1.301v0.71h0.846v1.003v1.122v0.356h0.889v-0.356
		v-1.122v-8.856h1.615v7.223h0.892v-3.178h1.396v3.524h0.89v-2.679h0.064h1.125h0.173v3.243h0.891v-2.681h0.06h0.609v0.984h0.946
		v5.232L40.137,32.95L40.137,32.95L40.137,32.95z M22.095,15.786c-3.14,0-5.685,2.546-5.685,5.685c0,3.141,2.546,5.684,5.685,5.684
		c3.138,0,5.685-2.545,5.685-5.684C27.779,18.332,25.234,15.786,22.095,15.786z M20.159,24.646v-6.348l5.499,3.174L20.159,24.646z"
		/>
</g>
</svg>
