<?xml version="1.0" encoding="utf-8"?>
<!-- Generator: Adobe Illustrator 16.0.0, SVG Export Plug-In . SVG Version: 6.00 Build 0)  -->
<!DOCTYPE svg PUBLIC "-//W3C//DTD SVG 1.1//EN" "http://www.w3.org/Graphics/SVG/1.1/DTD/svg11.dtd">
<svg version="1.1" id="Layer_1" xmlns="http://www.w3.org/2000/svg" xmlns:xlink="http://www.w3.org/1999/xlink" x="0px" y="0px"
	 width="48px" height="48px" viewBox="0 0 48 48" enable-background="new 0 0 48 48" xml:space="preserve">
<g>
	<path fill="#4C1B1B" d="M1,42.75c0,1.657,1.343,3,3,3h39.834c1.657,0,3-1.343,3-3V5.303c0-1.657-1.343-3-3-3H4
		c-1.657,0-3,1.343-3,3V42.75z"/>
</g>
<g>
	<g>
		<g>
			<path fill="#FFFFFF" d="M43.095,35.345c-0.328-0.319-0.77-0.492-1.227-0.48c-2.422,0.063-4.685-0.473-6.728-1.948
				c-1.848-1.334-3.289-3.272-4.491-5.216c-0.672-1.087-1.306-2.44-3.119-3.809c-2.244-1.696-5.246-2.447-7.991-2.454v-3.715
				l4.058,3.047c1.841,0.471,3.621,1.291,5.113,2.547c1.35,1.138,2.009,2.195,2.578,3.154l0.733-0.323l0.437,2.167
				c0.892,1.3,1.821,2.397,2.865,3.255c0.123-0.237,0.171-0.517,0.113-0.8l-1.323-6.572c-0.073-0.36-0.304-0.667-0.628-0.837
				c-0.325-0.17-0.708-0.186-1.046-0.042l-1.711,0.733c-0.459-1.841-0.616-2.473-1.064-4.275l4.123-5.629
				c0.331-0.452,0.233-1.087-0.219-1.418c-0.452-0.331-1.088-0.233-1.419,0.219l-4.168,5.692l-2.843,0.749l-5.6-4.204v-0.671
				c0-0.38-0.172-0.739-0.467-0.978l-5.512-4.451c-0.388-0.314-0.943-0.314-1.332,0l-5.512,4.451
				c-0.295,0.238-0.467,0.598-0.467,0.978v24.59c0,0.343,0.277,0.621,0.62,0.621h1.486c0.342,0,0.62-0.278,0.62-0.621v-6.571h7.837
				v6.571c0,0.343,0.278,0.621,0.62,0.621h0.305c0.015,0,0.02,0,0.02,0h1.162c0.342,0,0.62-0.278,0.62-0.621V26.369
				c1.385,0.149,3.161,0.54,4.8,1.494c1.354,0.788,2.431,1.855,3.202,3.176c1.701,2.912,3.217,4.813,4.915,6.163
				c2.82,2.24,6.062,2.82,9.667,2.372c0.001,0,0.002,0,0.002,0c0.849-0.106,1.481-0.826,1.481-1.682v-1.335
				C43.606,36.101,43.422,35.663,43.095,35.345z M16.813,30.402L16.813,30.402H8.976v-2.98h7.837V30.402z M16.813,25.292
				L16.813,25.292H8.976v-3.065h7.837V25.292z"/>
		</g>
	</g>
	<g>
		<g>
			<path fill="#FFFFFF" d="M38.982,26.074c-4.238-3.383-3.938-3.15-4.039-3.211c0.035,0.125-0.024-0.159,0.754,3.705l1.766,1.41
				c0.525,0.42,1.292,0.333,1.712-0.192C39.594,27.26,39.508,26.494,38.982,26.074z"/>
		</g>
	</g>
	<g>
		<g>
			<circle fill="#FFFFFF" cx="26.041" cy="15.302" r="2.368"/>
		</g>
	</g>
</g>
</svg>
