<?xml version="1.0" encoding="utf-8"?>
<!-- Generator: Adobe Illustrator 16.0.0, SVG Export Plug-In . SVG Version: 6.00 Build 0)  -->
<!DOCTYPE svg PUBLIC "-//W3C//DTD SVG 1.1//EN" "http://www.w3.org/Graphics/SVG/1.1/DTD/svg11.dtd">
<svg version="1.1" id="Layer_1" xmlns="http://www.w3.org/2000/svg" xmlns:xlink="http://www.w3.org/1999/xlink" x="0px" y="0px"
	 width="48px" height="48px" viewBox="0 0 48 48" enable-background="new 0 0 48 48" xml:space="preserve">
<g>
	<path fill="#EE7419" d="M1,42.75c0,1.657,1.343,3,3,3h39.834c1.657,0,3-1.343,3-3V5.303c0-1.657-1.343-3-3-3H4
		c-1.657,0-3,1.343-3,3V42.75z"/>
</g>
<g>
	<path fill="#FFFFFF" d="M15.472,19.09c0-3.548,2.887-6.434,6.434-6.434c3.548,0,6.434,2.886,6.434,6.434
		c0,0.604-0.084,1.203-0.25,1.779l1.758,0.507c0.214-0.741,0.322-1.511,0.322-2.287c0-4.557-3.707-8.264-8.264-8.264
		s-8.264,3.707-8.264,8.264c0,2.022,0.741,3.97,2.087,5.484l1.368-1.215C16.049,22.18,15.472,20.664,15.472,19.09z"/>
	<path fill="#FFFFFF" d="M27.08,19.726c0.027-0.217,0.04-0.431,0.04-0.636c0-2.875-2.339-5.214-5.214-5.214
		s-5.214,2.339-5.214,5.214c0,1.174,0.384,2.284,1.109,3.21l1.44-1.129c-0.471-0.601-0.72-1.32-0.72-2.082
		c0-1.867,1.519-3.385,3.385-3.385s3.385,1.518,3.385,3.385c0,0.133-0.009,0.268-0.026,0.414L27.08,19.726z"/>
	<path fill="#FFFFFF" d="M33.067,24.606c-0.859,0-1.556,0.696-1.556,1.555h-0.61v-1.675c0-0.86-0.696-1.556-1.555-1.556
		s-1.556,0.696-1.556,1.556v1.675h-0.609v-3.206c0-0.859-0.696-1.555-1.556-1.555c-0.858,0-1.555,0.696-1.555,1.555v3.206h-0.61
		V19.09c0-0.859-0.696-1.556-1.555-1.556s-1.555,0.696-1.555,1.556v11.514h-0.61v-3.755c0-0.858-0.696-1.556-1.555-1.556
		s-1.555,0.697-1.555,1.556v5.724c0,3.458,2.813,6.271,6.271,6.271h5.449c3.458,0,6.271-2.813,6.271-6.271v-6.411
		C34.622,25.303,33.926,24.606,33.067,24.606z"/>
</g>
</svg>
