<?xml version="1.0" encoding="utf-8"?>
<!-- Generator: Adobe Illustrator 21.0.0, SVG Export Plug-In . SVG Version: 6.00 Build 0)  -->
<svg version="1.1" id="Layer_1" xmlns="http://www.w3.org/2000/svg" xmlns:xlink="http://www.w3.org/1999/xlink" x="0px" y="0px"
	 viewBox="0 0 150 150" style="enable-background:new 0 0 150 150;" xml:space="preserve">
<style type="text/css">
	.st0{fill:none;stroke:#A0A0A0;stroke-miterlimit:10;}
	.st1{display:none;fill:none;stroke:#686868;stroke-width:2;stroke-miterlimit:10;}
	.st2{display:none;}
	.st3{display:inline;}
	.st4{fill:#CFD8DC;}
	.st5{fill:#A0A0A0;}
	.st6{fill:none;}
	.st7{display:none;fill:#A0A0A0;}
	.st8{font-family:'ArialMT';}
	.st9{font-size:18px;}
	.st10{display:inline;fill:#A0A0A0;}
	.st11{fill:#CECECE;}
</style>
<path class="st0" d="M142.3,147.6H8.8c-2.8,0-5-2.3-5-5l0-133.5c0-2.8,2.3-5,5-5h133.5c2.8,0,5,2.3,5,5v133.5
	C147.3,145.3,145.1,147.6,142.3,147.6z"/>
<path class="st1" d="M142.3,147.6H8.8c-2.8,0-5-2.3-5-5l0-133.5c0-2.8,2.3-5,5-5h133.5c2.8,0,5,2.3,5,5v133.5
	C147.3,145.3,145.1,147.6,142.3,147.6z"/>
<g id="click_map" class="st2">
	<g class="st3">
		<path class="st4" d="M68,56.3L52.7,41c-0.3-0.3-0.8-0.3-1.1,0c-0.1,0.1-0.2,0.3-0.2,0.5v21.2c0,0.4,0.3,0.8,0.8,0.8
			c0.2,0,0.3-0.1,0.5-0.2l3.9-3l3.4,6.1c0.2,0.4,0.6,0.5,1,0.3l4.6-2.3c0.4-0.2,0.5-0.6,0.3-1c0,0,0,0,0,0l-3.2-5.7h4.8
			c0.4,0,0.8-0.3,0.8-0.8C68.2,56.6,68.2,56.4,68,56.3L68,56.3L68,56.3z"/>
		<g>
			<path class="st5" d="M47.8,52c-0.1,0-0.2,0-0.3-0.1c-5.8-2.6-8.4-9.4-5.8-15.2c2.6-5.8,9.4-8.4,15.2-5.8s8.4,9.4,5.8,15.2l0,0
				c-0.2,0.4-0.6,0.6-1,0.4c-0.4-0.2-0.6-0.6-0.4-1c2.2-5,0-10.9-5-13.1s-10.9,0-13.1,5s0,10.9,5,13.1c0.4,0.2,0.6,0.6,0.4,1
				C48.4,51.9,48.1,52,47.8,52L47.8,52L47.8,52z"/>
			<path class="st5" d="M49.6,47.8c-0.1,0-0.2,0-0.3-0.1c-3.4-1.6-4.9-5.7-3.3-9.1c1.6-3.4,5.7-4.9,9.1-3.3c3.4,1.6,4.9,5.7,3.3,9.1
				c0,0,0,0,0,0c-0.2,0.4-0.6,0.5-1,0.4s-0.5-0.6-0.4-1c1.2-2.7,0.1-5.9-2.6-7.1s-5.9-0.1-7.1,2.6c-1.2,2.7-0.1,5.9,2.6,7.1
				c0.4,0.2,0.5,0.6,0.4,1C50.2,47.6,49.9,47.8,49.6,47.8L49.6,47.8z"/>
		</g>
		<path class="st5" d="M115.1,79.6H35.2v-58H115L115.1,79.6L115.1,79.6z M37.2,77.6H113V23.6H37.2V77.6z"/>
		<circle class="st5" cx="80.5" cy="52.7" r="4.3"/>
		<polygon class="st5" points="63.6,73.3 109.8,73.3 101,53.9 98,56.6 93.8,49.1 81.1,65.9 76.2,60.8 		"/>
	</g>
	<g class="st3">
		<path class="st5" d="M45.2,116.1l1.7,0.4c-0.4,1.4-1,2.5-1.9,3.2s-2.1,1.1-3.4,1.1c-1.4,0-2.5-0.3-3.4-0.8c-0.9-0.6-1.5-1.4-2-2.5
			s-0.7-2.2-0.7-3.5c0-1.3,0.3-2.5,0.8-3.5c0.5-1,1.2-1.8,2.2-2.3c0.9-0.5,2-0.8,3.1-0.8c1.3,0,2.4,0.3,3.3,1s1.5,1.6,1.8,2.8
			l-1.7,0.4c-0.3-0.9-0.7-1.6-1.3-2s-1.3-0.6-2.1-0.6c-1,0-1.8,0.2-2.5,0.7s-1.1,1.1-1.4,1.9c-0.3,0.8-0.4,1.6-0.4,2.5
			c0,1.1,0.2,2.1,0.5,2.9c0.3,0.8,0.8,1.4,1.5,1.8s1.4,0.6,2.2,0.6c1,0,1.8-0.3,2.4-0.8S45,117.2,45.2,116.1z"/>
		<path class="st5" d="M48.8,120.7v-12.9h1.6v12.9H48.8z"/>
		<path class="st5" d="M52.8,109.6v-1.8h1.6v1.8H52.8z M52.8,120.7v-9.3h1.6v9.3H52.8z"/>
		<path class="st5" d="M62.9,117.2l1.6,0.2c-0.2,1.1-0.6,1.9-1.3,2.5c-0.7,0.6-1.6,0.9-2.6,0.9c-1.3,0-2.3-0.4-3.1-1.3
			c-0.8-0.8-1.2-2-1.2-3.6c0-1,0.2-1.9,0.5-2.6s0.8-1.3,1.5-1.7c0.7-0.4,1.4-0.6,2.2-0.6c1,0,1.8,0.3,2.5,0.8s1.1,1.2,1.2,2.2
			l-1.5,0.2c-0.1-0.6-0.4-1.1-0.8-1.4s-0.8-0.5-1.3-0.5c-0.8,0-1.4,0.3-1.9,0.9c-0.5,0.6-0.7,1.5-0.7,2.7c0,1.3,0.2,2.2,0.7,2.7
			s1.1,0.9,1.9,0.9c0.6,0,1.1-0.2,1.6-0.6S62.8,118,62.9,117.2z"/>
		<path class="st5" d="M65.8,120.7v-12.9h1.6v7.3l3.7-3.8h2l-3.6,3.5l3.9,5.9h-2l-3.1-4.8l-1.1,1.1v3.7H65.8z"/>
		<path class="st5" d="M80,120.7v-12.9h2.6l3,9.1c0.3,0.8,0.5,1.5,0.6,1.9c0.1-0.5,0.4-1.2,0.7-2.1l3.1-9h2.3v12.9h-1.6v-10.8
			l-3.7,10.8h-1.5l-3.7-11v11H80z"/>
		<path class="st5" d="M100.9,119.5c-0.6,0.5-1.2,0.8-1.7,1.1c-0.5,0.2-1.1,0.3-1.7,0.3c-1,0-1.8-0.3-2.4-0.8
			c-0.6-0.5-0.8-1.1-0.8-1.9c0-0.5,0.1-0.9,0.3-1.3c0.2-0.4,0.5-0.7,0.8-0.9s0.7-0.4,1.1-0.5c0.3-0.1,0.8-0.2,1.4-0.2
			c1.3-0.2,2.2-0.3,2.8-0.5c0-0.2,0-0.4,0-0.4c0-0.6-0.1-1.1-0.4-1.4c-0.4-0.4-1-0.5-1.8-0.5c-0.7,0-1.3,0.1-1.6,0.4
			s-0.6,0.7-0.8,1.4l-1.5-0.2c0.1-0.7,0.4-1.2,0.7-1.6c0.3-0.4,0.8-0.7,1.4-0.9c0.6-0.2,1.3-0.3,2.1-0.3c0.8,0,1.4,0.1,1.9,0.3
			s0.9,0.4,1.1,0.7c0.2,0.3,0.4,0.6,0.5,1.1c0.1,0.3,0.1,0.8,0.1,1.5v2.1c0,1.5,0,2.4,0.1,2.8c0.1,0.4,0.2,0.8,0.4,1.1h-1.7
			C101.1,120.3,101,119.9,100.9,119.5z M100.8,116c-0.6,0.2-1.4,0.4-2.6,0.6c-0.7,0.1-1.1,0.2-1.4,0.3s-0.5,0.3-0.6,0.5
			s-0.2,0.5-0.2,0.8c0,0.4,0.2,0.8,0.5,1.1s0.8,0.4,1.4,0.4c0.6,0,1.2-0.1,1.6-0.4s0.8-0.6,1-1.1c0.2-0.4,0.3-0.9,0.3-1.6V116z"/>
		<path class="st5" d="M104.8,124.2v-12.9h1.4v1.2c0.3-0.5,0.7-0.8,1.2-1.1c0.4-0.2,0.9-0.4,1.6-0.4c0.8,0,1.5,0.2,2.1,0.6
			s1.1,1,1.4,1.7c0.3,0.7,0.5,1.6,0.5,2.5c0,1-0.2,1.8-0.5,2.6c-0.3,0.8-0.8,1.4-1.5,1.8c-0.7,0.4-1.3,0.6-2.1,0.6
			c-0.5,0-1-0.1-1.4-0.3s-0.8-0.5-1-0.8v4.5H104.8z M106.3,116c0,1.2,0.2,2.1,0.7,2.7s1.1,0.9,1.8,0.9c0.7,0,1.3-0.3,1.8-0.9
			c0.5-0.6,0.8-1.5,0.8-2.8c0-1.2-0.2-2.1-0.7-2.7c-0.5-0.6-1.1-0.9-1.8-0.9c-0.7,0-1.3,0.3-1.8,0.9
			C106.5,113.9,106.3,114.8,106.3,116z"/>
	</g>
</g>
<rect x="3.8" y="107.8" class="st6" width="140.7" height="30"/>
<text id="text" transform="matrix(1 0 0 1 34.6407 120.6552)" class="st7 st8 st9">Click Map</text>
<g class="st2">
	<g class="st3">
		<path class="st5" d="M115.1,64.6H35.2v-28H115L115.1,64.6L115.1,64.6z M37.2,62.6H113V38.6H37.2V62.6z"/>
		<g>
			<path class="st5" d="M45.4,50.5c0-1.1,0.4-1.8,1-2.4s1.6-0.8,2.8-0.8c1,0,1.8,0.2,2.5,0.7s1,1.1,1,1.9v5.4c0,0.4,0.2,0.6,0.5,0.6
				c0.1,0,0.3,0,0.5-0.1v1.1c-0.3,0.1-0.6,0.2-0.9,0.2c-0.5,0-0.9-0.1-1.2-0.3s-0.4-0.6-0.4-1.1c-0.9,1-2,1.5-3.4,1.5
				c-0.9,0-1.6-0.3-2.1-0.8s-0.8-1.2-0.8-2s0.2-1.5,0.7-2s1.1-0.8,2-0.9l2.8-0.3c0.5-0.1,0.8-0.4,0.8-1.1c0-0.5-0.2-0.9-0.5-1.1
				s-1-0.3-1.7-0.3s-1.2,0.1-1.5,0.4c-0.4,0.3-0.6,0.8-0.6,1.4L45.4,50.5L45.4,50.5z M51.1,52.3c-0.1,0.1-0.3,0.2-0.7,0.3
				s-1,0.2-1.9,0.3c-0.7,0.1-1.2,0.3-1.5,0.5c-0.3,0.3-0.5,0.6-0.5,1c0,0.5,0.1,0.9,0.4,1.2c0.3,0.3,0.7,0.4,1.3,0.4
				c0.8,0,1.4-0.2,2-0.6s0.9-0.9,0.9-1.6V52.3L51.1,52.3z"/>
			<path class="st5" d="M55.3,57V44.2h1.6v4.7l0,0c0.7-1,1.6-1.5,2.7-1.5c1.2,0,2.1,0.4,2.8,1.3c0.7,0.9,1.1,2,1.1,3.4
				c0,1.6-0.4,2.8-1.1,3.8s-1.7,1.4-3,1.4c-1.1,0-2-0.5-2.6-1.4l0,0v1.2L55.3,57L55.3,57z M61.9,52.3c0-1.3-0.2-2.2-0.7-2.7
				s-1.1-0.8-1.9-0.8s-1.5,0.3-1.9,1s-0.6,1.6-0.6,2.8s0.3,2.1,0.8,2.6s1.1,0.8,1.8,0.8c0.8,0,1.4-0.3,1.8-1
				C61.7,54.4,61.9,53.5,61.9,52.3z"/>
		</g>
		<polygon class="st5" points="74.3,58.2 68.6,58.2 68.6,56.7 70.5,56.7 70.5,45.4 68.6,45.4 68.6,43.9 74.3,43.9 74.3,45.4 
			72.4,45.4 72.4,56.8 74.3,56.8 		"/>
	</g>
	<g class="st3">
		<path class="st5" d="M46.1,120.7v-12.9h8.7v1.5h-7v4h6v1.5h-6v5.9H46.1z"/>
		<path class="st5" d="M56.8,109.6v-1.8h1.6v1.8H56.8z M56.8,120.7v-9.3h1.6v9.3H56.8z"/>
		<path class="st5" d="M60.8,120.7v-12.9h1.6v12.9H60.8z"/>
		<path class="st5" d="M64.8,120.7v-12.9h1.6v12.9H64.8z"/>
		<path class="st5" d="M74,120.7v-12.9h4.8c1,0,1.8,0.1,2.4,0.4c0.6,0.3,1.1,0.7,1.4,1.2c0.3,0.5,0.5,1.1,0.5,1.7
			c0,0.6-0.2,1.1-0.4,1.6s-0.8,0.9-1.4,1.2c0.8,0.2,1.4,0.6,1.8,1.2c0.4,0.6,0.6,1.2,0.6,2c0,0.6-0.1,1.2-0.4,1.7
			c-0.3,0.5-0.6,0.9-0.9,1.2s-0.8,0.5-1.4,0.6c-0.6,0.1-1.3,0.2-2.1,0.2H74z M75.7,113.2h2.8c0.8,0,1.3,0,1.6-0.1
			c0.4-0.1,0.8-0.3,1-0.6c0.2-0.3,0.3-0.7,0.3-1.1c0-0.4-0.1-0.8-0.3-1.1c-0.2-0.3-0.5-0.5-0.9-0.7s-1-0.2-2-0.2h-2.6V113.2z
			 M75.7,119.1h3.2c0.6,0,0.9,0,1.2-0.1c0.4-0.1,0.7-0.2,1-0.4s0.5-0.4,0.7-0.7c0.2-0.3,0.3-0.7,0.3-1.1c0-0.5-0.1-0.9-0.4-1.3
			c-0.2-0.4-0.6-0.6-1-0.7c-0.4-0.1-1.1-0.2-1.9-0.2h-3V119.1z"/>
		<path class="st5" d="M85.2,116c0-1.7,0.5-3,1.4-3.8c0.8-0.7,1.8-1,2.9-1c1.3,0,2.3,0.4,3.1,1.3s1.2,2,1.2,3.5
			c0,1.2-0.2,2.1-0.5,2.8c-0.4,0.7-0.9,1.2-1.6,1.6s-1.4,0.6-2.3,0.6c-1.3,0-2.4-0.4-3.2-1.3C85.6,118.8,85.2,117.6,85.2,116z
			 M86.9,116c0,1.2,0.3,2.1,0.8,2.7c0.5,0.6,1.2,0.9,2,0.9c0.8,0,1.4-0.3,2-0.9s0.8-1.5,0.8-2.7c0-1.2-0.3-2-0.8-2.6
			c-0.5-0.6-1.2-0.9-2-0.9c-0.8,0-1.4,0.3-2,0.9S86.9,114.8,86.9,116z"/>
		<path class="st5" d="M94.8,120.7l3.4-4.9l-3.2-4.5h2l1.4,2.2c0.3,0.4,0.5,0.8,0.7,1c0.3-0.4,0.5-0.7,0.7-1l1.6-2.2h1.9l-3.2,4.4
			l3.5,4.9h-1.9l-1.9-2.9l-0.5-0.8l-2.5,3.7H94.8z"/>
	</g>
</g>
<g class="st2">
	<path class="st10" d="M62,80.7H38.2V57H62V80.7z M40.2,78.7H60V59H40.2V78.7z"/>
	<path class="st10" d="M50.1,45.1c-7.3,0-13.2-5.9-13.2-13.2s5.9-13.2,13.2-13.2s13.2,5.9,13.2,13.2C63.3,39.2,57.4,45.1,50.1,45.1z
		 M50.1,20.7c-6.2,0-11.2,5-11.2,11.2s5,11.2,11.2,11.2s11.2-5,11.2-11.2C61.3,25.7,56.3,20.7,50.1,20.7z"/>
	<circle class="st10" cx="103.4" cy="68.9" r="8.7"/>
	<rect x="95.2" y="23.8" class="st10" width="16.3" height="16.3"/>
	<g class="st3">
		<path class="st5" d="M65.9,42.8c-0.1,0-0.2,0-0.3-0.1l-1.2-0.9c-0.2-0.2-0.3-0.5-0.1-0.7c0.2-0.2,0.5-0.3,0.7-0.1l1.2,0.9
			c0.2,0.2,0.3,0.5,0.1,0.7C66.2,42.7,66.1,42.8,65.9,42.8z"/>
		<path class="st5" d="M89,61.1c-0.1,0-0.2,0-0.3-0.1l-2.3-1.8c-0.2-0.2-0.3-0.5-0.1-0.7c0.2-0.2,0.5-0.3,0.7-0.1l2.3,1.8
			c0.2,0.2,0.3,0.5,0.1,0.7C89.3,61,89.2,61.1,89,61.1z M84.4,57.4c-0.1,0-0.2,0-0.3-0.1l-2.3-1.8c-0.2-0.2-0.3-0.5-0.1-0.7
			c0.2-0.2,0.5-0.3,0.7-0.1l2.3,1.8c0.2,0.2,0.3,0.5,0.1,0.7C84.7,57.4,84.5,57.4,84.4,57.4z M79.8,53.8c-0.1,0-0.2,0-0.3-0.1
			l-2.3-1.8c-0.2-0.2-0.3-0.5-0.1-0.7c0.2-0.2,0.5-0.3,0.7-0.1l2.3,1.8c0.2,0.2,0.3,0.5,0.1,0.7C80.1,53.7,79.9,53.8,79.8,53.8z
			 M75.2,50.1c-0.1,0-0.2,0-0.3-0.1l-2.3-1.8c-0.2-0.2-0.3-0.5-0.1-0.7c0.2-0.2,0.5-0.3,0.7-0.1l2.3,1.8c0.2,0.2,0.3,0.5,0.1,0.7
			C75.5,50,75.3,50.1,75.2,50.1z M70.6,46.4c-0.1,0-0.2,0-0.3-0.1L68,44.5c-0.2-0.2-0.3-0.5-0.1-0.7c0.2-0.2,0.5-0.3,0.7-0.1
			l2.3,1.8c0.2,0.2,0.3,0.5,0.1,0.7C70.9,46.4,70.7,46.4,70.6,46.4z"/>
		<path class="st5" d="M92.5,63.9c-0.1,0-0.2,0-0.3-0.1l-1.2-1c-0.2-0.2-0.3-0.5-0.1-0.7c0.2-0.2,0.5-0.3,0.7-0.1l1.2,0.9
			c0.2,0.2,0.3,0.5,0.1,0.7C92.8,63.8,92.6,63.9,92.5,63.9z"/>
	</g>
	<g class="st3">
		<g>
			<path class="st5" d="M39,120.7v-12.9h2.6l3,9.1c0.3,0.8,0.5,1.5,0.6,1.9c0.1-0.5,0.4-1.2,0.7-2.1l3.1-9h2.3v12.9h-1.6v-10.8
				l-3.7,10.8h-1.5l-3.7-11v11H39z"/>
			<path class="st5" d="M59.9,119.5c-0.6,0.5-1.1,0.8-1.7,1.1s-1.1,0.3-1.7,0.3c-1,0-1.8-0.3-2.4-0.8c-0.6-0.5-0.8-1.1-0.8-1.9
				c0-0.5,0.1-0.9,0.3-1.3c0.2-0.4,0.5-0.7,0.8-0.9s0.7-0.4,1.1-0.5c0.3-0.1,0.8-0.2,1.4-0.2c1.3-0.2,2.2-0.3,2.8-0.5
				c0-0.2,0-0.4,0-0.4c0-0.6-0.1-1.1-0.4-1.4c-0.4-0.4-1-0.5-1.8-0.5c-0.7,0-1.3,0.1-1.6,0.4s-0.6,0.7-0.8,1.4l-1.5-0.2
				c0.1-0.7,0.4-1.2,0.7-1.6c0.3-0.4,0.8-0.7,1.4-0.9c0.6-0.2,1.3-0.3,2.1-0.3c0.8,0,1.4,0.1,1.9,0.3s0.9,0.4,1.1,0.7
				c0.2,0.3,0.4,0.6,0.5,1.1c0.1,0.3,0.1,0.8,0.1,1.5v2.1c0,1.5,0,2.4,0.1,2.8c0.1,0.4,0.2,0.8,0.4,1.1h-1.7
				C60.1,120.3,59.9,119.9,59.9,119.5z M59.8,116c-0.6,0.2-1.4,0.4-2.6,0.6c-0.7,0.1-1.1,0.2-1.4,0.3s-0.5,0.3-0.6,0.5
				s-0.2,0.5-0.2,0.8c0,0.4,0.2,0.8,0.5,1.1s0.8,0.4,1.4,0.4c0.6,0,1.2-0.1,1.6-0.4s0.8-0.6,1-1.1c0.2-0.4,0.3-0.9,0.3-1.6V116z"/>
			<path class="st5" d="M67.3,119.2l0.2,1.4c-0.4,0.1-0.8,0.1-1.2,0.1c-0.6,0-1-0.1-1.3-0.3s-0.5-0.4-0.7-0.7s-0.2-0.9-0.2-1.9v-5.4
				H63v-1.2h1.2V109l1.6-0.9v3.3h1.6v1.2h-1.6v5.5c0,0.5,0,0.7,0.1,0.9s0.1,0.2,0.3,0.3s0.3,0.1,0.5,0.1
				C66.8,119.3,67,119.3,67.3,119.2z"/>
			<path class="st5" d="M74.9,117.2l1.6,0.2c-0.2,1.1-0.6,1.9-1.3,2.5c-0.7,0.6-1.6,0.9-2.6,0.9c-1.3,0-2.3-0.4-3.1-1.3
				c-0.8-0.8-1.2-2-1.2-3.6c0-1,0.2-1.9,0.5-2.6s0.8-1.3,1.5-1.7c0.7-0.4,1.4-0.6,2.2-0.6c1,0,1.8,0.3,2.5,0.8s1.1,1.2,1.2,2.2
				l-1.5,0.2c-0.1-0.6-0.4-1.1-0.8-1.4s-0.8-0.5-1.3-0.5c-0.8,0-1.4,0.3-1.9,0.9c-0.5,0.6-0.7,1.5-0.7,2.7c0,1.3,0.2,2.2,0.7,2.7
				s1.1,0.9,1.9,0.9c0.6,0,1.1-0.2,1.6-0.6S74.8,118,74.9,117.2z"/>
			<path class="st5" d="M77.8,120.7v-12.9h1.6v4.6c0.7-0.9,1.7-1.3,2.8-1.3c0.7,0,1.3,0.1,1.8,0.4c0.5,0.3,0.9,0.6,1.1,1.1
				c0.2,0.5,0.3,1.2,0.3,2.1v5.9h-1.6v-5.9c0-0.8-0.2-1.4-0.5-1.7c-0.3-0.4-0.8-0.5-1.5-0.5c-0.5,0-0.9,0.1-1.3,0.4
				c-0.4,0.2-0.7,0.6-0.9,1s-0.3,1-0.3,1.7v5.1H77.8z"/>
			<path class="st5" d="M87.8,109.6v-1.8h1.6v1.8H87.8z M87.8,120.7v-9.3h1.6v9.3H87.8z"/>
			<path class="st5" d="M91.8,120.7v-9.3h1.4v1.3c0.7-1,1.7-1.5,3-1.5c0.6,0,1.1,0.1,1.6,0.3c0.5,0.2,0.8,0.5,1.1,0.8
				s0.4,0.7,0.5,1.2c0.1,0.3,0.1,0.8,0.1,1.5v5.7h-1.6V115c0-0.6-0.1-1.1-0.2-1.4s-0.3-0.6-0.7-0.8c-0.3-0.2-0.7-0.3-1.1-0.3
				c-0.7,0-1.3,0.2-1.7,0.6s-0.7,1.2-0.7,2.4v5.1H91.8z"/>
			<path class="st5" d="M101.6,121.4l1.5,0.2c0.1,0.5,0.2,0.8,0.5,1c0.4,0.3,0.9,0.4,1.6,0.4c0.7,0,1.3-0.1,1.7-0.4s0.7-0.7,0.8-1.2
				c0.1-0.3,0.1-1,0.1-2c-0.7,0.8-1.6,1.2-2.6,1.2c-1.3,0-2.3-0.5-3-1.4s-1.1-2-1.1-3.3c0-0.9,0.2-1.7,0.5-2.5
				c0.3-0.8,0.8-1.3,1.4-1.7s1.3-0.6,2.2-0.6c1.1,0,2,0.4,2.7,1.3v-1.1h1.5v8.1c0,1.5-0.1,2.5-0.4,3.1c-0.3,0.6-0.8,1.1-1.4,1.4
				c-0.6,0.4-1.4,0.5-2.4,0.5c-1.1,0-2-0.3-2.7-0.8C101.9,123.2,101.5,122.4,101.6,121.4z M102.9,115.8c0,1.2,0.2,2.1,0.7,2.7
				s1.1,0.8,1.8,0.8c0.7,0,1.3-0.3,1.8-0.8s0.7-1.4,0.7-2.6c0-1.1-0.3-2-0.8-2.6c-0.5-0.6-1.1-0.9-1.8-0.9c-0.7,0-1.3,0.3-1.8,0.9
				C103.1,113.8,102.9,114.7,102.9,115.8z"/>
		</g>
	</g>
</g>
<g class="st2">
	<g class="st3">
		<g>
			<g>
				<path class="st5" d="M103.6,22h-4.9c-0.6,0-1,0.5-1,1c0,0.6,0.5,1,1,1h4.9c2.2,0,4,1.8,4,4v41.4c0,2.2-1.8,4-4,4H75.1
					c-2.2,0-4-1.8-4-4V28.1c0-2.2,1.8-4,4-4h20.2c0.6,0,1-0.5,1-1c0-0.6-0.5-1-1-1H75.1c-3.4,0-6.1,2.7-6.1,6.1v41.4
					c0,3.4,2.7,6.1,6.1,6.1h28.5c3.4,0,6.1-2.7,6.1-6.1V28.1C109.7,24.8,106.9,22,103.6,22z"/>
			</g>
		</g>
		<g>
			<g>
				<path class="st5" d="M66.7,33.8H46.3c-3.4,0-6.1,2.7-6.1,6.1v27.2c0,0.6,0.5,1,1,1c0.6,0,1-0.5,1-1V39.9c0-2.2,1.8-4,4-4h20.4
					c0.6,0,1-0.5,1-1C67.7,34.2,67.2,33.8,66.7,33.8z"/>
			</g>
		</g>
		<g>
			<g>
				<path class="st5" d="M79.9,76.9c-0.6,0-1,0.5-1,1v3.3c0,2.2-1.8,4-4,4H46.3c-2.2,0-4-1.8-4-4V70.5c0-0.6-0.5-1-1-1
					c-0.6,0-1,0.5-1,1v10.7c0,3.4,2.7,6.1,6.1,6.1h28.5c3.4,0,6.1-2.7,6.1-6.1v-3.3C80.9,77.3,80.4,76.9,79.9,76.9z"/>
			</g>
		</g>
		<g>
			<g>
				<path class="st11" d="M66.5,69.6c-4.3,2.8-10,2.2-13.6-1.4c-4.2-4.2-4.2-11.1,0-15.3c1.3-1.3,2.8-2.2,4.4-2.7
					c0,0-0.1,0.1-0.1,0.1c-3.7,3.7-3.7,9.8,0,13.6c2.7,2.7,6.8,3.6,10.4,2.1c0.5-0.2,0.8-0.8,0.6-1.3c-0.2-0.5-0.8-0.8-1.3-0.6
					c-2.8,1.1-6,0.5-8.1-1.7c-2.9-2.9-2.9-7.7,0-10.6c1-1,2.2-1.7,3.6-2c0.5-0.1,0.8-0.6,0.8-1.1c0-0.5-0.4-0.9-0.9-1
					c-4-0.5-7.9,0.9-10.7,3.7c-2.4,2.4-3.8,5.7-3.8,9.1c0,3.4,1.3,6.7,3.8,9.1c2.5,2.5,5.8,3.8,9.1,3.8c2.5,0,4.9-0.7,7.1-2.1
					c0.5-0.3,0.6-1,0.3-1.4C67.6,69.4,67,69.3,66.5,69.6z"/>
			</g>
		</g>
		<g>
			<g>
				<g>
					<path class="st11" d="M118.1,44.7c-0.3-0.1-0.6,0-0.7,0.3l-0.6,1.4c-0.1,0.3,0,0.6,0.3,0.7c0.3,0.1,0.6,0,0.7-0.3l0.6-1.4
						C118.5,45.2,118.3,44.8,118.1,44.7z"/>
				</g>
			</g>
			<g>
				<g>
					<path class="st11" d="M116.5,48.5c-0.3-0.1-0.6,0-0.7,0.3l-0.6,1.4c-0.1,0.3,0,0.6,0.3,0.7c0.3,0.1,0.6,0,0.7-0.3l0.6-1.4
						C116.9,48.9,116.8,48.6,116.5,48.5z"/>
				</g>
			</g>
			<g>
				<g>
					<path class="st11" d="M119.5,48.4l-1.4-0.6c-0.3-0.1-0.6,0-0.7,0.3c-0.1,0.3,0,0.6,0.3,0.7l1.4,0.6c0.3,0.1,0.6,0,0.7-0.3
						C119.9,48.8,119.8,48.5,119.5,48.4z"/>
				</g>
			</g>
			<g>
				<g>
					<path class="st11" d="M115.8,46.8l-1.4-0.6c-0.3-0.1-0.6,0-0.7,0.3c-0.1,0.3,0,0.6,0.3,0.7l1.4,0.6c0.3,0.1,0.6,0,0.7-0.3
						C116.2,47.2,116.1,46.9,115.8,46.8z"/>
				</g>
			</g>
			<g>
				<g>
					<path class="st11" d="M33.2,74.4c-0.3,0-0.6,0.3-0.6,0.6v1.5c0,0.3,0.2,0.6,0.6,0.6c0.3,0,0.6-0.2,0.6-0.6v-1.5
						C33.7,74.6,33.5,74.4,33.2,74.4z"/>
				</g>
			</g>
			<g>
				<g>
					<path class="st11" d="M33.2,78.4c-0.3,0-0.6,0.3-0.6,0.6v1.5c0,0.3,0.2,0.6,0.6,0.6c0.3,0,0.6-0.2,0.6-0.6V79
						C33.7,78.7,33.5,78.4,33.2,78.4z"/>
				</g>
			</g>
			<g>
				<g>
					<path class="st11" d="M36,77.2h-1.5c-0.3,0-0.6,0.2-0.6,0.6c0,0.3,0.3,0.6,0.6,0.6H36c0.3,0,0.6-0.2,0.6-0.6
						C36.5,77.4,36.3,77.2,36,77.2z"/>
				</g>
			</g>
			<g>
				<g>
					<path class="st11" d="M31.9,77.2h-1.5c-0.3,0-0.6,0.2-0.6,0.6c0,0.3,0.3,0.6,0.6,0.6h1.5c0.3,0,0.6-0.2,0.6-0.6
						C32.5,77.4,32.2,77.2,31.9,77.2z"/>
				</g>
			</g>
			<g>
				<g>
					<path class="st11" d="M116.8,15.7c-0.3,0-0.6,0.3-0.6,0.6v1.5c0,0.3,0.2,0.6,0.6,0.6c0.3,0,0.6-0.2,0.6-0.6v-1.5
						C117.4,16,117.1,15.7,116.8,15.7z"/>
				</g>
			</g>
			<g>
				<g>
					<path class="st11" d="M116.8,19.8c-0.3,0-0.6,0.2-0.6,0.6v1.5c0,0.3,0.2,0.6,0.6,0.6c0.3,0,0.6-0.2,0.6-0.6v-1.5
						C117.4,20,117.1,19.8,116.8,19.8z"/>
				</g>
			</g>
			<g>
				<g>
					<path class="st11" d="M119.6,18.5h-1.5c-0.3,0-0.6,0.3-0.6,0.6c0,0.3,0.2,0.6,0.6,0.6h1.5c0.3,0,0.6-0.2,0.6-0.6
						C120.2,18.8,119.9,18.5,119.6,18.5z"/>
				</g>
			</g>
			<g>
				<g>
					<path class="st11" d="M115.5,18.5H114c-0.3,0-0.6,0.3-0.6,0.6c0,0.3,0.3,0.6,0.6,0.6h1.5c0.3,0,0.6-0.2,0.6-0.6
						C116.1,18.8,115.9,18.5,115.5,18.5z"/>
				</g>
			</g>
		</g>
		<g>
			<path class="st11" d="M103.3,33.2c-0.3,0-0.6-0.3-0.6-0.6v-3.7H99c-0.3,0-0.6-0.3-0.6-0.6c0-0.3,0.3-0.6,0.6-0.6h4.3
				c0.3,0,0.6,0.3,0.6,0.6v4.3C104,32.9,103.7,33.2,103.3,33.2z"/>
		</g>
		<g>
			<path class="st11" d="M75.3,64.6c0.3,0,0.6,0.3,0.6,0.6V69h3.7c0.3,0,0.6,0.3,0.6,0.6c0,0.3-0.3,0.6-0.6,0.6h-4.3
				c-0.3,0-0.6-0.3-0.6-0.6v-4.3C74.7,64.9,75,64.6,75.3,64.6z"/>
		</g>
		<g>
			<g>
				<g>
					<circle class="st11" cx="87.9" cy="61.2" r="1"/>
					<path class="st11" d="M95.8,44.2c0-4.4-3.6-7.9-7.9-7.9c-4.4,0-7.9,3.6-7.9,7.9c0,0.6,0.5,1,1,1c0.6,0,1-0.5,1-1
						c0-3.3,2.7-5.9,5.9-5.9s5.9,2.7,5.9,5.9c0,0,0,0,0,0.1c0,2.4-1.4,4.5-3.6,5.4c-2,0.9-3.3,2.9-3.3,5.1v2.4c0,0.6,0.5,1,1,1
						c0.6,0,1-0.5,1-1v-2.4c0-1.4,0.8-2.7,2.1-3.2C93.9,50.3,95.8,47.5,95.8,44.2C95.8,44.2,95.8,44.2,95.8,44.2z"/>
				</g>
			</g>
		</g>
	</g>
	<g class="st3">
		<path class="st5" d="M16.5,120.7v-12.9H19l3,9.1c0.3,0.8,0.5,1.5,0.6,1.9c0.1-0.5,0.4-1.2,0.7-2.1l3.1-9h2.3v12.9h-1.6v-10.8
			l-3.7,10.8h-1.5l-3.7-11v11H16.5z"/>
		<path class="st5" d="M37.7,117.6l1.6,0.2c-0.3,1-0.7,1.7-1.4,2.2s-1.6,0.8-2.7,0.8c-1.4,0-2.4-0.4-3.2-1.3c-0.8-0.8-1.2-2-1.2-3.5
			c0-1.6,0.4-2.8,1.2-3.7c0.8-0.9,1.9-1.3,3.1-1.3c1.2,0,2.3,0.4,3.1,1.3s1.2,2,1.2,3.6c0,0.1,0,0.2,0,0.4h-7c0.1,1,0.3,1.8,0.9,2.4
			s1.2,0.8,2,0.8c0.6,0,1.1-0.2,1.5-0.5S37.5,118.3,37.7,117.6z M32.5,115.1h5.2c-0.1-0.8-0.3-1.4-0.6-1.8c-0.5-0.6-1.2-0.9-2-0.9
			c-0.7,0-1.3,0.2-1.8,0.7S32.6,114.3,32.5,115.1z"/>
		<path class="st5" d="M41.3,120.7v-9.3h1.4v1.3c0.3-0.5,0.7-0.8,1.2-1.1s1-0.4,1.7-0.4c0.7,0,1.3,0.1,1.7,0.4s0.8,0.7,0.9,1.2
			c0.7-1.1,1.7-1.6,2.9-1.6c0.9,0,1.6,0.3,2.1,0.8s0.7,1.3,0.7,2.4v6.4h-1.6v-5.9c0-0.6-0.1-1.1-0.2-1.4s-0.3-0.5-0.6-0.7
			s-0.6-0.3-0.9-0.3c-0.7,0-1.2,0.2-1.6,0.7c-0.4,0.4-0.7,1.1-0.7,2.1v5.4h-1.6v-6.1c0-0.7-0.1-1.2-0.4-1.6s-0.7-0.5-1.3-0.5
			c-0.4,0-0.9,0.1-1.2,0.4s-0.7,0.6-0.8,1s-0.3,1.1-0.3,2v4.8H41.3z"/>
		<path class="st5" d="M55.7,116c0-1.7,0.5-3,1.4-3.8c0.8-0.7,1.8-1,2.9-1c1.3,0,2.3,0.4,3.1,1.3c0.8,0.8,1.2,2,1.2,3.5
			c0,1.2-0.2,2.1-0.5,2.8c-0.4,0.7-0.9,1.2-1.6,1.6s-1.4,0.6-2.3,0.6c-1.3,0-2.4-0.4-3.2-1.3S55.7,117.6,55.7,116z M57.4,116
			c0,1.2,0.3,2.1,0.8,2.7c0.5,0.6,1.2,0.9,2,0.9c0.8,0,1.4-0.3,2-0.9s0.8-1.5,0.8-2.7c0-1.2-0.3-2-0.8-2.6c-0.5-0.6-1.2-0.9-2-0.9
			c-0.8,0-1.4,0.3-2,0.9S57.4,114.8,57.4,116z"/>
		<path class="st5" d="M66.3,120.7v-9.3h1.4v1.4c0.4-0.7,0.7-1.1,1-1.3s0.6-0.3,1-0.3c0.5,0,1.1,0.2,1.6,0.5l-0.5,1.5
			c-0.4-0.2-0.8-0.3-1.2-0.3c-0.3,0-0.7,0.1-0.9,0.3s-0.5,0.5-0.6,0.9c-0.2,0.6-0.3,1.2-0.3,1.8v4.9H66.3z"/>
		<path class="st5" d="M72.3,124.2l-0.2-1.5c0.3,0.1,0.6,0.1,0.9,0.1c0.4,0,0.6-0.1,0.8-0.2s0.4-0.3,0.5-0.5
			c0.1-0.2,0.3-0.6,0.5-1.2c0-0.1,0.1-0.2,0.1-0.4l-3.5-9.4h1.7l1.9,5.4c0.3,0.7,0.5,1.4,0.7,2.2c0.2-0.7,0.4-1.4,0.6-2.1l2-5.4H80
			l-3.6,9.5c-0.4,1-0.7,1.7-0.9,2.1c-0.3,0.5-0.6,0.9-1,1.1c-0.4,0.2-0.8,0.4-1.3,0.4C73,124.4,72.6,124.4,72.3,124.2z"/>
		<path class="st5" d="M95.7,116.1l1.7,0.4c-0.4,1.4-1,2.5-1.9,3.2s-2.1,1.1-3.4,1.1c-1.4,0-2.5-0.3-3.4-0.8c-0.9-0.6-1.5-1.4-2-2.5
			c-0.5-1.1-0.7-2.2-0.7-3.5c0-1.3,0.3-2.5,0.8-3.5c0.5-1,1.2-1.8,2.2-2.3c0.9-0.5,2-0.8,3.1-0.8c1.3,0,2.4,0.3,3.3,1
			s1.5,1.6,1.8,2.8l-1.7,0.4c-0.3-0.9-0.7-1.6-1.3-2s-1.3-0.6-2.1-0.6c-1,0-1.8,0.2-2.5,0.7c-0.7,0.5-1.1,1.1-1.4,1.9
			c-0.3,0.8-0.4,1.6-0.4,2.5c0,1.1,0.2,2.1,0.5,2.9c0.3,0.8,0.8,1.4,1.5,1.8s1.4,0.6,2.2,0.6c1,0,1.8-0.3,2.4-0.8
			S95.5,117.2,95.7,116.1z"/>
		<path class="st5" d="M105.4,119.5c-0.6,0.5-1.2,0.8-1.7,1.1c-0.5,0.2-1.1,0.3-1.7,0.3c-1,0-1.8-0.3-2.4-0.8
			c-0.6-0.5-0.8-1.1-0.8-1.9c0-0.5,0.1-0.9,0.3-1.3c0.2-0.4,0.5-0.7,0.8-0.9s0.7-0.4,1.1-0.5c0.3-0.1,0.8-0.2,1.4-0.2
			c1.3-0.2,2.2-0.3,2.8-0.5c0-0.2,0-0.4,0-0.4c0-0.6-0.1-1.1-0.4-1.4c-0.4-0.4-1-0.5-1.8-0.5c-0.7,0-1.3,0.1-1.6,0.4
			s-0.6,0.7-0.8,1.4l-1.5-0.2c0.1-0.7,0.4-1.2,0.7-1.6c0.3-0.4,0.8-0.7,1.4-0.9c0.6-0.2,1.3-0.3,2.1-0.3c0.8,0,1.4,0.1,1.9,0.3
			s0.9,0.4,1.1,0.7c0.2,0.3,0.4,0.6,0.5,1.1c0.1,0.3,0.1,0.8,0.1,1.5v2.1c0,1.5,0,2.4,0.1,2.8c0.1,0.4,0.2,0.8,0.4,1.1h-1.7
			C105.6,120.3,105.5,119.9,105.4,119.5z M105.3,116c-0.6,0.2-1.4,0.4-2.6,0.6c-0.7,0.1-1.1,0.2-1.4,0.3s-0.5,0.3-0.6,0.5
			s-0.2,0.5-0.2,0.8c0,0.4,0.2,0.8,0.5,1.1s0.8,0.4,1.4,0.4c0.6,0,1.2-0.1,1.6-0.4s0.8-0.6,1-1.1c0.2-0.4,0.3-0.9,0.3-1.6V116z"/>
		<path class="st5" d="M109.3,120.7v-9.3h1.4v1.4c0.4-0.7,0.7-1.1,1-1.3c0.3-0.2,0.6-0.3,1-0.3c0.5,0,1.1,0.2,1.6,0.5l-0.5,1.5
			c-0.4-0.2-0.8-0.3-1.2-0.3c-0.3,0-0.7,0.1-0.9,0.3s-0.5,0.5-0.6,0.9c-0.2,0.6-0.3,1.2-0.3,1.8v4.9H109.3z"/>
		<path class="st5" d="M121.4,120.7v-1.2c-0.6,0.9-1.5,1.4-2.6,1.4c-0.7,0-1.4-0.2-2.1-0.6c-0.6-0.4-1.1-1-1.5-1.7
			c-0.3-0.7-0.5-1.6-0.5-2.5c0-0.9,0.2-1.8,0.5-2.5s0.8-1.3,1.4-1.7s1.3-0.6,2.1-0.6c0.6,0,1.1,0.1,1.5,0.4c0.4,0.2,0.8,0.5,1.1,0.9
			v-4.6h1.6v12.9H121.4z M116.4,116c0,1.2,0.3,2.1,0.8,2.7s1.1,0.9,1.8,0.9c0.7,0,1.3-0.3,1.8-0.8c0.5-0.6,0.7-1.4,0.7-2.6
			c0-1.3-0.2-2.2-0.7-2.8s-1.1-0.9-1.8-0.9c-0.7,0-1.3,0.3-1.8,0.9C116.6,113.9,116.4,114.8,116.4,116z"/>
		<path class="st5" d="M124.7,117.9l1.6-0.2c0.1,0.6,0.3,1.1,0.7,1.4s1,0.5,1.7,0.5c0.7,0,1.3-0.1,1.6-0.4s0.5-0.6,0.5-1
			c0-0.4-0.2-0.6-0.5-0.8c-0.2-0.1-0.8-0.3-1.6-0.5c-1.2-0.3-2-0.5-2.4-0.8c-0.4-0.2-0.8-0.5-1-0.9c-0.2-0.4-0.3-0.8-0.3-1.3
			c0-0.4,0.1-0.8,0.3-1.2c0.2-0.4,0.4-0.6,0.8-0.9c0.2-0.2,0.6-0.3,1-0.5s0.9-0.2,1.4-0.2c0.7,0,1.4,0.1,1.9,0.3
			c0.6,0.2,1,0.5,1.2,0.9c0.3,0.4,0.4,0.8,0.5,1.4l-1.5,0.2c-0.1-0.5-0.3-0.9-0.6-1.1c-0.3-0.3-0.8-0.4-1.4-0.4
			c-0.7,0-1.2,0.1-1.6,0.4s-0.5,0.5-0.5,0.8c0,0.2,0.1,0.4,0.2,0.6c0.1,0.2,0.3,0.3,0.6,0.4c0.2,0.1,0.6,0.2,1.4,0.4
			c1.1,0.3,1.9,0.5,2.3,0.7c0.4,0.2,0.8,0.5,1,0.8s0.4,0.8,0.4,1.4c0,0.5-0.2,1-0.5,1.5c-0.3,0.5-0.8,0.8-1.3,1.1
			c-0.6,0.3-1.2,0.4-2,0.4c-1.2,0-2.1-0.3-2.8-0.8C125.3,119.6,124.9,118.9,124.7,117.9z"/>
	</g>
</g>
<g>
	<g>
		<path class="st5" d="M57,66.6H19.1V28.7H57V66.6z M21.9,63.8h32.2V31.5H21.9V63.8z"/>
		<g>
			<path class="st5" d="M32.2,40.9h12l0.1,3.6h-0.5c-0.2-1.1-0.6-1.9-0.9-2.2s-1.2-0.5-2.4-0.5h-1.2v10.8c0,0.8,0.1,1.3,0.4,1.5
				s0.8,0.3,1.7,0.4V55h-6.2v-0.4c0.9-0.1,1.5-0.2,1.7-0.4s0.3-0.8,0.3-1.7V41.8H36c-1.2,0-2,0.2-2.4,0.5s-0.7,1.1-1,2.2H32
				L32.2,40.9z"/>
		</g>
		<path class="st5" d="M128.4,66.6H90.5V28.7h37.9V66.6L128.4,66.6z M93.4,63.8h32.2V31.5H93.4C93.4,31.5,93.4,63.8,93.4,63.8z"/>
		<g>
			<path class="st5" d="M104,54.6c0.8-0.1,1.4-0.2,1.6-0.5c0.2-0.2,0.3-0.8,0.3-1.7v-9.2c0-0.8-0.1-1.2-0.3-1.5
				c-0.2-0.2-0.7-0.4-1.5-0.4v-0.4h11.3l0.1,3h-0.6c-0.1-1-0.4-1.6-0.8-1.8c-0.4-0.3-1.2-0.4-2.4-0.4h-2.9c-0.3,0-0.5,0-0.5,0.1
				s-0.1,0.3-0.1,0.6v4.7h3.1c0.9,0,1.5-0.1,1.7-0.4s0.4-0.8,0.6-1.6h0.5V50h-0.5c-0.2-0.8-0.4-1.4-0.6-1.6s-1-0.4-1.9-0.4H108v4.6
				c0,0.8,0.1,1.3,0.4,1.5c0.2,0.2,0.8,0.4,1.6,0.4V55h-6V54.6L104,54.6z"/>
		</g>
		<g>
			<path class="st5" d="M67.7,46.3c0.7-0.8,1.7-1.2,2.9-1.2c1.2,0,2.1,0.4,2.9,1.1s1.1,1.8,1.1,3c0,1.2-0.4,2.2-1.1,3
				c-0.7,0.9-1.7,1.3-2.9,1.3c-1.1,0-2.1-0.4-2.8-1.2s-1.2-1.9-1.2-3.1C66.6,48.1,67,47.1,67.7,46.3z M69.1,46.1
				c-0.6,0.5-0.9,1.4-0.9,2.8c0,1,0.2,2,0.7,2.9s1.1,1.3,2,1.3c0.7,0,1.2-0.3,1.5-0.9s0.5-1.4,0.5-2.4s-0.2-2-0.7-2.9
				s-1.1-1.3-2-1.3C69.8,45.7,69.4,45.8,69.1,46.1z"/>
			<path class="st5" d="M75.2,53.1c0.5,0,0.9-0.1,1.1-0.3c0.2-0.1,0.3-0.4,0.3-0.9V48c0-0.6-0.1-1-0.2-1.2s-0.3-0.4-0.6-0.4
				c-0.1,0-0.1,0-0.2,0s-0.2,0-0.3,0.1v-0.3c0.3-0.1,0.7-0.2,1-0.4c0.3-0.1,0.6-0.2,0.7-0.3c0.3-0.1,0.6-0.2,0.9-0.4H78
				c0,0,0,0.1,0,0.2v1.4c0.4-0.5,0.7-0.9,1.1-1.2s0.7-0.4,1.1-0.4c0.3,0,0.5,0.1,0.7,0.3s0.3,0.4,0.3,0.7c0,0.2-0.1,0.4-0.2,0.6
				s-0.3,0.2-0.5,0.2s-0.4-0.1-0.7-0.3c-0.2-0.2-0.4-0.3-0.5-0.3c-0.2,0-0.5,0.2-0.8,0.5s-0.4,0.7-0.4,1v3.9c0,0.5,0.1,0.9,0.4,1
				c0.2,0.2,0.6,0.3,1.2,0.3v0.3h-4.3L75.2,53.1L75.2,53.1z"/>
		</g>
	</g>
	<g>
		<path class="st5" d="M25.6,120.7v-11.4h-4.2v-1.5h10.2v1.5h-4.3v11.4H25.6z"/>
		<path class="st5" d="M32.5,120.7v-9.3h1.4v1.4c0.4-0.7,0.7-1.1,1-1.3s0.6-0.3,1-0.3c0.5,0,1.1,0.2,1.6,0.5l-0.5,1.5
			c-0.4-0.2-0.8-0.3-1.2-0.3c-0.3,0-0.7,0.1-0.9,0.3s-0.5,0.5-0.6,0.9c-0.2,0.6-0.3,1.2-0.3,1.8v4.9H32.5z"/>
		<path class="st5" d="M44.6,120.7v-1.4c-0.7,1.1-1.7,1.6-3,1.6c-0.6,0-1.1-0.1-1.5-0.3s-0.8-0.5-1.1-0.8s-0.4-0.7-0.5-1.2
			c-0.1-0.3-0.1-0.8-0.1-1.5v-5.8H40v5.2c0,0.8,0,1.4,0.1,1.7c0.1,0.4,0.3,0.7,0.6,1c0.3,0.2,0.7,0.4,1.2,0.4s0.9-0.1,1.3-0.4
			s0.7-0.6,0.9-1c0.2-0.4,0.3-1,0.3-1.8v-5H46v9.3H44.6z"/>
		<path class="st5" d="M54.9,117.6l1.6,0.2c-0.3,1-0.7,1.7-1.4,2.2s-1.6,0.8-2.7,0.8c-1.4,0-2.4-0.4-3.2-1.3c-0.8-0.8-1.2-2-1.2-3.5
			c0-1.6,0.4-2.8,1.2-3.7s1.9-1.3,3.1-1.3c1.2,0,2.3,0.4,3.1,1.3s1.2,2,1.2,3.6c0,0.1,0,0.2,0,0.4h-7c0.1,1,0.3,1.8,0.9,2.4
			s1.2,0.8,2,0.8c0.6,0,1.1-0.2,1.5-0.5S54.6,118.3,54.9,117.6z M49.7,115.1h5.2c-0.1-0.8-0.3-1.4-0.6-1.8c-0.5-0.6-1.2-0.9-2-0.9
			c-0.7,0-1.3,0.2-1.8,0.7S49.7,114.3,49.7,115.1z"/>
		<path class="st5" d="M62.9,116c0-1.7,0.5-3,1.4-3.8c0.8-0.7,1.8-1,2.9-1c1.3,0,2.3,0.4,3.1,1.3s1.2,2,1.2,3.5
			c0,1.2-0.2,2.1-0.5,2.8c-0.4,0.7-0.9,1.2-1.6,1.6s-1.4,0.6-2.3,0.6c-1.3,0-2.4-0.4-3.2-1.3C63.3,118.8,62.9,117.6,62.9,116z
			 M64.5,116c0,1.2,0.3,2.1,0.8,2.7c0.5,0.6,1.2,0.9,2,0.9c0.8,0,1.4-0.3,2-0.9s0.8-1.5,0.8-2.7c0-1.2-0.3-2-0.8-2.6
			c-0.5-0.6-1.2-0.9-2-0.9c-0.8,0-1.4,0.3-2,0.9S64.5,114.8,64.5,116z"/>
		<path class="st5" d="M73.5,120.7v-9.3h1.4v1.4c0.4-0.7,0.7-1.1,1-1.3s0.6-0.3,1-0.3c0.5,0,1.1,0.2,1.6,0.5l-0.5,1.5
			c-0.4-0.2-0.8-0.3-1.2-0.3c-0.3,0-0.7,0.1-0.9,0.3c-0.3,0.2-0.5,0.5-0.6,0.9c-0.2,0.6-0.3,1.2-0.3,1.8v4.9H73.5z"/>
		<path class="st5" d="M84.8,120.7v-12.9h8.7v1.5h-7v4h6v1.5h-6v5.9H84.8z"/>
		<path class="st5" d="M101.6,119.5c-0.6,0.5-1.2,0.8-1.7,1.1c-0.5,0.2-1.1,0.3-1.7,0.3c-1,0-1.8-0.3-2.4-0.8
			c-0.6-0.5-0.8-1.1-0.8-1.9c0-0.5,0.1-0.9,0.3-1.3c0.2-0.4,0.5-0.7,0.8-0.9s0.7-0.4,1.1-0.5c0.3-0.1,0.8-0.2,1.4-0.2
			c1.3-0.2,2.2-0.3,2.8-0.5c0-0.2,0-0.4,0-0.4c0-0.6-0.1-1.1-0.4-1.4c-0.4-0.4-1-0.5-1.8-0.5c-0.7,0-1.3,0.1-1.6,0.4
			s-0.6,0.7-0.8,1.4l-1.5-0.2c0.1-0.7,0.4-1.2,0.7-1.6c0.3-0.4,0.8-0.7,1.4-0.9c0.6-0.2,1.3-0.3,2.1-0.3c0.8,0,1.4,0.1,1.9,0.3
			s0.9,0.4,1.1,0.7c0.2,0.3,0.4,0.6,0.5,1.1c0.1,0.3,0.1,0.8,0.1,1.5v2.1c0,1.5,0,2.4,0.1,2.8c0.1,0.4,0.2,0.8,0.4,1.1h-1.7
			C101.7,120.3,101.6,119.9,101.6,119.5z M101.5,116c-0.6,0.2-1.4,0.4-2.6,0.6c-0.7,0.1-1.1,0.2-1.4,0.3s-0.5,0.3-0.6,0.5
			s-0.2,0.5-0.2,0.8c0,0.4,0.2,0.8,0.5,1.1s0.8,0.4,1.4,0.4c0.6,0,1.2-0.1,1.6-0.4s0.8-0.6,1-1.1c0.2-0.4,0.3-0.9,0.3-1.6V116z"/>
		<path class="st5" d="M105.5,120.7v-12.9h1.6v12.9H105.5z"/>
		<path class="st5" d="M108.9,117.9l1.6-0.2c0.1,0.6,0.3,1.1,0.7,1.4s1,0.5,1.7,0.5c0.7,0,1.3-0.1,1.6-0.4s0.5-0.6,0.5-1
			c0-0.4-0.2-0.6-0.5-0.8c-0.2-0.1-0.8-0.3-1.6-0.5c-1.2-0.3-2-0.5-2.4-0.8c-0.4-0.2-0.8-0.5-1-0.9c-0.2-0.4-0.3-0.8-0.3-1.3
			c0-0.4,0.1-0.8,0.3-1.2c0.2-0.4,0.4-0.6,0.8-0.9c0.2-0.2,0.6-0.3,1-0.5s0.9-0.2,1.4-0.2c0.7,0,1.4,0.1,1.9,0.3
			c0.6,0.2,1,0.5,1.2,0.9c0.3,0.4,0.4,0.8,0.5,1.4l-1.5,0.2c-0.1-0.5-0.3-0.9-0.6-1.1c-0.3-0.3-0.8-0.4-1.4-0.4
			c-0.7,0-1.2,0.1-1.6,0.4s-0.5,0.5-0.5,0.8c0,0.2,0.1,0.4,0.2,0.6c0.1,0.2,0.3,0.3,0.6,0.4c0.2,0.1,0.6,0.2,1.4,0.4
			c1.1,0.3,1.9,0.5,2.3,0.7c0.4,0.2,0.8,0.5,1,0.8s0.4,0.8,0.4,1.4c0,0.5-0.2,1-0.5,1.5c-0.3,0.5-0.8,0.8-1.3,1.1
			c-0.6,0.3-1.2,0.4-2,0.4c-1.2,0-2.1-0.3-2.8-0.8C109.5,119.6,109,118.9,108.9,117.9z"/>
		<path class="st5" d="M124.9,117.6l1.6,0.2c-0.3,1-0.7,1.7-1.4,2.2s-1.6,0.8-2.7,0.8c-1.4,0-2.4-0.4-3.2-1.3
			c-0.8-0.8-1.2-2-1.2-3.5c0-1.6,0.4-2.8,1.2-3.7s1.9-1.3,3.1-1.3c1.2,0,2.3,0.4,3.1,1.3s1.2,2,1.2,3.6c0,0.1,0,0.2,0,0.4h-7
			c0.1,1,0.3,1.8,0.9,2.4s1.2,0.8,2,0.8c0.6,0,1.1-0.2,1.5-0.5S124.7,118.3,124.9,117.6z M119.7,115.1h5.2c-0.1-0.8-0.3-1.4-0.6-1.8
			c-0.5-0.6-1.2-0.9-2-0.9c-0.7,0-1.3,0.2-1.8,0.7S119.8,114.3,119.7,115.1z"/>
	</g>
</g>
</svg>
