<?xml version="1.0" encoding="utf-8"?>
<!-- Generator: Adobe Illustrator 16.0.0, SVG Export Plug-In . SVG Version: 6.00 Build 0)  -->
<!DOCTYPE svg PUBLIC "-//W3C//DTD SVG 1.1//EN" "http://www.w3.org/Graphics/SVG/1.1/DTD/svg11.dtd">
<svg version="1.1" id="Layer_1" xmlns="http://www.w3.org/2000/svg" xmlns:xlink="http://www.w3.org/1999/xlink" x="0px" y="0px"
	 width="48px" height="48px" viewBox="0 0 48 48" enable-background="new 0 0 48 48" xml:space="preserve">
<g>
	<path fill="#7D4493" d="M1,42.75c0,1.657,1.343,3,3,3h39.834c1.657,0,3-1.343,3-3V5.303c0-1.657-1.343-3-3-3H4
		c-1.657,0-3,1.343-3,3V42.75z"/>
</g>
<g>
	<path fill="#FFFFFF" d="M38.298,37.822c0,1.539-1.81,2.787-4.043,2.787H22.596c-1.745,0-3.218-0.765-3.787-1.831h3.925
		c2.159,0,3.852-1.261,3.852-2.866c0-0.993-0.665-1.889-1.748-2.405c0.007-0.068,0.011-0.137,0.011-0.205
		c0-0.249-0.041-0.49-0.11-0.724c0.541,0.008,1.055,0.097,1.515,0.255c0.819-1.194,2.566-2.022,4.609-2.022
		c2.825,0,5.116,1.578,5.116,3.525c0,0.315-0.08,0.614-0.191,0.906C37.26,35.658,38.298,36.655,38.298,37.822z M20.287,13.498
		c-0.78,0.064-1.56,0.146-2.337,0.241c1.406-2.347,2.96-4.641,4.66-6.868c1.738,1.979,3.348,4.03,4.828,6.139
		c0.536-0.657,1.083-1.306,1.646-1.948c1.312,1.909,2.519,3.862,3.621,5.846c-0.471-0.064-0.945-0.124-1.418-0.178
		c-0.099,1.095-0.196,2.19-0.294,3.284c0.408,0.048,0.815,0.098,1.223,0.153c-0.124,1.148-0.25,2.291-0.374,3.437
		c0.146,0.021,0.291,0.042,0.436,0.062c0.153-1.324,0.307-2.647,0.46-3.973c-0.348-0.05-0.694-0.098-1.04-0.142
		c1.043-1.201,2.14-2.375,3.286-3.512c0.778,1.483,1.498,2.979,2.161,4.487c-0.445-0.104-0.892-0.201-1.337-0.293
		c-0.215,1.314-0.429,2.628-0.642,3.941c0.335,0.069,0.671,0.144,1.005,0.218c-0.395,2.185-0.788,4.369-1.18,6.555
		c-1.102-0.722-2.536-1.175-4.123-1.175c-0.51,0-1.008,0.045-1.488,0.13c-0.261-1.871-1.907-3.412-4.039-3.423
		c-2.178-0.015-3.859,1.578-4.081,3.502c-0.343-0.059-0.695-0.097-1.062-0.097c-0.386,0-0.764,0.035-1.127,0.103
		c-0.065-0.605-0.129-1.208-0.193-1.811c-0.939,0.127-1.877,0.282-2.811,0.467c0.136,0.872,0.273,1.745,0.41,2.62
		c-0.01,0.009-0.025,0.018-0.036,0.026c-0.287-0.054-0.58-0.087-0.874-0.087c-0.208,0-0.409,0.019-0.604,0.042
		c-0.317-1.721-0.634-3.442-0.952-5.161c0.605-0.141,1.212-0.268,1.819-0.388c-0.126-0.83-0.254-1.665-0.382-2.497
		c-0.475,0.094-0.949,0.192-1.422,0.296c0.703-1.659,1.476-3.308,2.32-4.934c1.11,1.176,2.169,2.385,3.174,3.625
		c-0.063-0.731-0.127-1.461-0.191-2.192c0.46-0.051,0.92-0.095,1.378-0.133C20.565,17.738,20.426,15.619,20.287,13.498z
		 M19.769,25.099c-0.073-0.841-0.145-1.681-0.22-2.52c-0.391,0.043-0.784,0.091-1.175,0.142c0.089,0.839,0.176,1.679,0.265,2.517
		C19.018,25.186,19.394,25.142,19.769,25.099z M31.053,28.925c1.147,0.152,2.292,0.348,3.433,0.587
		c0.182-1.091,0.364-2.186,0.545-3.278c-1.204-0.254-2.414-0.46-3.63-0.621C31.284,26.716,31.168,27.82,31.053,28.925z
		 M28.511,18.636c0.572,0.038,1.144,0.085,1.715,0.138c0.036-0.468,0.072-0.937,0.109-1.405c-0.584-0.056-1.168-0.103-1.754-0.14
		C28.558,17.698,28.534,18.168,28.511,18.636z M27.648,24.235c0.908,0.051,1.812,0.124,2.718,0.221
		c0.068-0.81,0.14-1.614,0.208-2.425c-0.938-0.101-1.88-0.177-2.822-0.228C27.716,22.613,27.683,23.427,27.648,24.235z
		 M25.326,15.742c0.596-0.81,1.211-1.613,1.846-2.404c-0.61-0.021-1.225-0.034-1.836-0.038
		C25.332,14.113,25.33,14.928,25.326,15.742z M25.313,19.68c0.357,0.001,0.717,0.007,1.075,0.018
		c0.021-1.102,0.045-2.204,0.066-3.303c-0.377-0.011-0.751-0.016-1.129-0.018C25.319,17.478,25.315,18.58,25.313,19.68z
		 M23.75,22.646c0.012,0.556,0.022,1.111,0.035,1.668c0.619-0.017,1.238-0.02,1.858-0.015c0.005-0.555,0.011-1.111,0.017-1.667
		C25.021,22.625,24.386,22.63,23.75,22.646z M22.019,16.686c0.017,0.384,0.033,0.769,0.05,1.153c0.474-0.027,0.949-0.047,1.422-0.06
		c-0.009-0.386-0.017-0.771-0.027-1.154C22.982,16.639,22.501,16.658,22.019,16.686z M25.764,35.911c0-0.873-0.779-1.619-1.88-1.931
		c0.083-0.219,0.142-0.442,0.142-0.679c0-1.457-1.715-2.64-3.83-2.64c-1.529,0-2.838,0.619-3.451,1.512
		c-0.36-0.12-0.757-0.192-1.182-0.192c-1.501,0-2.717,0.84-2.717,1.873c0,0.042,0.015,0.084,0.018,0.124
		c-1.107,0.311-1.889,1.058-1.889,1.933c0,1.154,1.355,2.087,3.029,2.087h8.73C24.408,37.998,25.764,37.065,25.764,35.911z
		 M11.272,22.982c-0.439-2.829,1.498-5.478,4.327-5.917c1.262-0.196,2.486,0.083,3.496,0.701c-1.2-1.559-3.189-2.432-5.27-2.11
		c-3.039,0.472-5.119,3.319-4.646,6.358c0.378,2.428,2.272,4.243,4.569,4.631C12.464,25.88,11.52,24.571,11.272,22.982z"/>
</g>
</svg>
