<?xml version="1.0" encoding="utf-8"?>
<!-- Generator: Adobe Illustrator 16.0.0, SVG Export Plug-In . SVG Version: 6.00 Build 0)  -->
<!DOCTYPE svg PUBLIC "-//W3C//DTD SVG 1.1//EN" "http://www.w3.org/Graphics/SVG/1.1/DTD/svg11.dtd">
<svg version="1.1" id="Layer_1" xmlns="http://www.w3.org/2000/svg" xmlns:xlink="http://www.w3.org/1999/xlink" x="0px" y="0px"
	 width="48px" height="48px" viewBox="0 0 48 48" enable-background="new 0 0 48 48" xml:space="preserve">
<g>
	<path fill="#85CEE3" d="M1,42.75c0,1.657,1.343,3,3,3h39.834c1.657,0,3-1.343,3-3V5.303c0-1.657-1.343-3-3-3H4
		c-1.657,0-3,1.343-3,3V42.75z"/>
</g>
<g>
	<path fill="#FFFFFF" d="M23.501,8.333L8.334,17.812h30.333L23.501,8.333z M32.031,19.708l0.948,1.896v11.375h3.791V21.604
		l0.948-1.896H32.031z M24.448,19.708l0.947,1.896v11.375h3.792V21.604l0.948-1.896H24.448z M16.865,19.708l0.948,1.896v11.375
		h3.792V21.604l0.948-1.896H16.865z M9.282,19.708l0.948,1.896v11.375h3.792V21.604l0.947-1.896H9.282z M9.282,34.874l-0.948,3.792
		h30.333l-0.948-3.792H9.282z M25.396,14.021c0,1.047-0.849,1.896-1.895,1.896c-1.048,0-1.896-0.849-1.896-1.896
		c0-1.047,0.849-1.896,1.896-1.896C24.547,12.125,25.396,12.974,25.396,14.021z"/>
</g>
</svg>
