<?xml version="1.0" encoding="utf-8"?>
<!-- Generator: Adobe Illustrator 16.0.0, SVG Export Plug-In . SVG Version: 6.00 Build 0)  -->
<!DOCTYPE svg PUBLIC "-//W3C//DTD SVG 1.1//EN" "http://www.w3.org/Graphics/SVG/1.1/DTD/svg11.dtd">
<svg version="1.1" id="Layer_1" xmlns="http://www.w3.org/2000/svg" xmlns:xlink="http://www.w3.org/1999/xlink" x="0px" y="0px"
	 width="48px" height="48px" viewBox="0 0 48 48" enable-background="new 0 0 48 48" xml:space="preserve">
<g>
	<path fill="#113BED" d="M1,42.75c0,1.657,1.343,3,3,3h39.834c1.657,0,3-1.343,3-3V5.303c0-1.657-1.343-3-3-3H4
		c-1.657,0-3,1.343-3,3V42.75z"/>
</g>
<g>
	<g>
		<path fill="#FFFFFF" d="M38.975,38.754l-0.217-3.84l-0.434,0.17c-1.292,0.504-2.567,0.751-3.901,0.751
			c-1.987,0-3.688-0.55-5.188-1.034c-1.282-0.415-2.375-0.764-3.305-0.649c-1.361,0.164-2.041,1.216-2.381,2.272
			c-0.337-1.057-1.016-2.108-2.379-2.272c-0.929-0.112-2.023,0.236-3.306,0.65c-1.499,0.483-3.199,1.03-5.186,1.033
			c-1.332,0-2.608-0.247-3.902-0.751l-0.434-0.17l-0.215,3.84H6.612v1.512h33.823v-1.512H38.975z M8.825,38.415l0.142-2.539
			c1.227,0.427,2.443,0.638,3.712,0.638c2.095,0,3.924-0.593,5.393-1.065c1.204-0.389,2.216-0.722,3.018-0.623
			c1.797,0.218,2.075,2.688,2.116,3.592L8.825,38.415L8.825,38.415z M23.897,38.415c0.038-0.902,0.311-3.372,2.117-3.591
			c0.801-0.099,1.813,0.233,3.016,0.621c1.47,0.474,3.3,1.065,5.394,1.065c1.269,0,2.485-0.208,3.713-0.638l0.142,2.54
			L23.897,38.415L23.897,38.415z"/>
		<path fill="#FFFFFF" d="M18.099,30.484l2.104-0.909l-5.245-5.558l-1.985,0.857l0.416,7.639l2.041-0.879l-0.112-1.069l2.095-0.905
			L18.099,30.484z M15.153,28.962l-0.24-2.306l0.019-0.01l1.467,1.776L15.153,28.962z"/>
		<path fill="#FFFFFF" d="M32.705,27.703c0.09-0.066,0.178-0.154,0.262-0.264s0.142-0.241,0.169-0.394
			c0.025-0.151,0.018-0.325-0.034-0.519c-0.054-0.195-0.165-0.412-0.338-0.647l-1.454-1.986l-3.627,2.659l1.508,2.058
			c0.115,0.156,0.255,0.294,0.414,0.414c0.159,0.117,0.33,0.201,0.507,0.253c0.178,0.051,0.363,0.063,0.554,0.035
			c0.191-0.028,0.379-0.109,0.56-0.243c0.132-0.101,0.236-0.201,0.313-0.311c0.074-0.111,0.126-0.221,0.156-0.332
			c0.029-0.111,0.042-0.223,0.034-0.333c-0.009-0.112-0.029-0.221-0.064-0.32c0.175,0.08,0.347,0.123,0.514,0.123
			C32.348,27.904,32.521,27.838,32.705,27.703z M30.51,27.874c-0.069,0.054-0.137,0.082-0.201,0.092
			c-0.061,0.008-0.117,0.002-0.173-0.02c-0.055-0.022-0.107-0.057-0.155-0.101c-0.051-0.048-0.096-0.099-0.139-0.157l-0.479-0.654
			l0.678-0.494l0.513,0.699C30.746,27.502,30.729,27.715,30.51,27.874z M31.728,26.795c-0.12,0.088-0.225,0.111-0.314,0.076
			c-0.09-0.041-0.18-0.117-0.266-0.238l-0.432-0.588l0.55-0.404l0.432,0.59c0.083,0.114,0.133,0.221,0.146,0.318
			C31.857,26.646,31.817,26.729,31.728,26.795z"/>
		<path fill="#FFFFFF" d="M21.484,11.669c0.079,0.107,0.165,0.212,0.256,0.316c0.089,0.103,0.174,0.204,0.247,0.305l0.761-0.558
			c-0.066-0.069-0.128-0.144-0.182-0.218c-0.095-0.127-0.128-0.233-0.102-0.313c0.028-0.079,0.103-0.164,0.225-0.254l0.92-0.675
			l0.396,0.54l0.619-0.455l-0.396-0.539l0.802-0.588l-0.736-1.004l-0.802,0.588l-0.329-0.446l-0.62,0.455l0.329,0.446l-1.26,0.924
			c-0.18,0.131-0.302,0.262-0.367,0.393c-0.065,0.13-0.095,0.258-0.086,0.384c0.009,0.123,0.044,0.244,0.109,0.361
			C21.332,11.447,21.404,11.56,21.484,11.669z"/>
		<path fill="#FFFFFF" d="M23.765,15.275c-0.18,0.298-0.292,0.597-0.338,0.894c-0.048,0.297-0.033,0.586,0.038,0.863
			c0.075,0.278,0.207,0.536,0.402,0.777c0.192,0.242,0.438,0.453,0.742,0.635c0.283,0.171,0.573,0.288,0.87,0.349
			c0.299,0.063,0.592,0.064,0.87,0.005c0.282-0.058,0.548-0.177,0.795-0.355c0.247-0.179,0.469-0.424,0.656-0.737
			c0.17-0.281,0.272-0.559,0.312-0.834c0.038-0.275,0.024-0.535-0.037-0.776c-0.063-0.242-0.164-0.458-0.311-0.649
			c-0.144-0.192-0.313-0.348-0.509-0.465l-0.7,1.166c0.08,0.072,0.152,0.148,0.212,0.226c0.058,0.078,0.104,0.159,0.132,0.243
			c0.027,0.083,0.037,0.169,0.025,0.26c-0.008,0.089-0.044,0.184-0.104,0.285c-0.085,0.14-0.187,0.239-0.304,0.295
			c-0.117,0.057-0.243,0.083-0.377,0.076c-0.135-0.004-0.273-0.031-0.416-0.083c-0.141-0.05-0.274-0.114-0.404-0.192
			c-0.129-0.078-0.248-0.167-0.359-0.268c-0.112-0.102-0.202-0.21-0.269-0.327c-0.066-0.116-0.104-0.239-0.108-0.37
			c-0.004-0.13,0.033-0.266,0.119-0.406c0.074-0.123,0.157-0.207,0.249-0.256c0.094-0.049,0.185-0.079,0.274-0.089
			c0.09-0.011,0.171-0.004,0.245,0.016c0.073,0.02,0.132,0.037,0.173,0.05l0.695-1.155c-0.515-0.242-0.992-0.296-1.432-0.166
			C24.47,14.414,24.089,14.745,23.765,15.275z"/>
		<path fill="#FFFFFF" d="M30.254,21.247l0.384-1.093c-0.03-0.011-0.063-0.028-0.099-0.054c-0.031-0.025-0.059-0.061-0.079-0.105
			c-0.02-0.046-0.029-0.1-0.029-0.16c0-0.064,0.02-0.14,0.049-0.23c0.033-0.096,0.086-0.176,0.158-0.243
			c0.072-0.065,0.159-0.08,0.263-0.043c0.098,0.034,0.154,0.092,0.162,0.17c0.011,0.08,0.009,0.161-0.004,0.247
			c-0.014,0.106-0.035,0.223-0.066,0.353c-0.03,0.129-0.058,0.264-0.079,0.399c-0.021,0.137-0.032,0.274-0.037,0.412
			c-0.002,0.136,0.016,0.266,0.055,0.389c0.038,0.122,0.102,0.231,0.191,0.327c0.089,0.096,0.213,0.172,0.377,0.23
			c0.164,0.057,0.312,0.077,0.45,0.062c0.136-0.017,0.262-0.061,0.374-0.132c0.112-0.071,0.208-0.166,0.289-0.286
			c0.082-0.117,0.15-0.25,0.203-0.402c0.067-0.19,0.107-0.38,0.113-0.571c0.011-0.189-0.036-0.374-0.134-0.55l0.004-0.013
			c0.044,0.02,0.093,0.034,0.15,0.046c0.056,0.011,0.109,0.016,0.156,0.016l0.426-1.2c-0.124,0.033-0.248,0.035-0.378,0.005
			c-0.129-0.029-0.248-0.066-0.365-0.106l-1.265-0.446c-0.147-0.051-0.293-0.094-0.443-0.132c-0.149-0.037-0.297-0.031-0.442,0.021
			c-0.15,0.051-0.292,0.162-0.431,0.335c-0.141,0.174-0.273,0.444-0.402,0.813c-0.064,0.183-0.117,0.37-0.157,0.562
			c-0.043,0.193-0.056,0.376-0.035,0.551c0.02,0.176,0.074,0.336,0.174,0.483C29.884,21.047,30.04,21.163,30.254,21.247z
			 M31.695,19.598l0.287,0.101c0.158,0.066,0.262,0.159,0.308,0.281c0.048,0.12,0.045,0.248-0.002,0.382
			c-0.037,0.107-0.097,0.184-0.184,0.233c-0.081,0.048-0.158,0.061-0.231,0.035c-0.104-0.037-0.164-0.096-0.185-0.178
			c-0.021-0.084-0.022-0.196-0.008-0.336c0.008-0.087,0.015-0.174,0.021-0.26C31.709,19.768,31.706,19.683,31.695,19.598z"/>
		<path fill="#FFFFFF" d="M14.788,12.963c0.169,0.136,0.361,0.242,0.576,0.317c0.213,0.075,0.431,0.113,0.65,0.115
			c0.219,0.002,0.427-0.04,0.624-0.124c0.196-0.084,0.378-0.216,0.54-0.398c0.164-0.18,0.297-0.415,0.399-0.704
			c0.103-0.29,0.146-0.556,0.131-0.798c-0.013-0.243-0.072-0.459-0.172-0.647c-0.1-0.191-0.235-0.353-0.408-0.489
			c-0.172-0.136-0.365-0.242-0.58-0.317c-0.215-0.075-0.43-0.113-0.647-0.114c-0.217-0.002-0.425,0.04-0.622,0.125
			c-0.196,0.083-0.377,0.215-0.541,0.396c-0.163,0.181-0.295,0.417-0.398,0.705c-0.102,0.289-0.145,0.555-0.13,0.797
			c0.013,0.244,0.071,0.461,0.171,0.648C14.482,12.666,14.617,12.828,14.788,12.963z M15.195,11.331
			c0.04-0.112,0.097-0.192,0.169-0.241c0.073-0.05,0.152-0.079,0.238-0.089c0.085-0.01,0.176-0.004,0.268,0.018
			c0.093,0.022,0.18,0.047,0.264,0.076c0.083,0.029,0.167,0.064,0.252,0.105c0.087,0.042,0.161,0.094,0.223,0.156
			c0.063,0.063,0.107,0.135,0.133,0.221c0.026,0.084,0.02,0.183-0.02,0.292c-0.04,0.112-0.096,0.191-0.169,0.242
			c-0.073,0.049-0.154,0.079-0.241,0.088c-0.088,0.009-0.177,0.004-0.271-0.019c-0.093-0.021-0.181-0.047-0.263-0.076
			c-0.083-0.029-0.168-0.064-0.254-0.105c-0.084-0.042-0.159-0.093-0.22-0.154c-0.061-0.063-0.103-0.135-0.128-0.22
			C15.15,11.54,15.156,11.443,15.195,11.331z"/>
		<path fill="#FFFFFF" d="M23.066,26.498v2.953h0.789v-0.236h0.011c0.023,0.032,0.052,0.066,0.083,0.104
			c0.032,0.033,0.071,0.064,0.118,0.092c0.047,0.025,0.107,0.05,0.174,0.066c0.067,0.018,0.153,0.027,0.25,0.027
			c0.153,0,0.285-0.034,0.398-0.103c0.112-0.066,0.205-0.157,0.281-0.266c0.075-0.107,0.13-0.229,0.167-0.365
			s0.057-0.271,0.057-0.406c0-0.127-0.014-0.255-0.042-0.388c-0.026-0.134-0.074-0.253-0.144-0.36
			c-0.07-0.108-0.164-0.196-0.284-0.266c-0.119-0.067-0.268-0.104-0.447-0.104c-0.122,0-0.236,0.025-0.338,0.076
			c-0.103,0.052-0.184,0.121-0.247,0.213h-0.009v-1.04h-0.818V26.498z M23.927,28.015c0.025-0.049,0.063-0.09,0.109-0.121
			c0.046-0.029,0.105-0.047,0.179-0.047s0.135,0.018,0.181,0.047c0.046,0.031,0.082,0.072,0.111,0.121
			c0.026,0.052,0.046,0.108,0.056,0.171c0.009,0.063,0.015,0.125,0.015,0.189c0,0.063-0.006,0.127-0.015,0.192
			c-0.01,0.063-0.027,0.117-0.056,0.17c-0.028,0.051-0.065,0.093-0.111,0.123c-0.046,0.031-0.107,0.048-0.181,0.048
			s-0.133-0.017-0.179-0.048c-0.046-0.03-0.081-0.072-0.109-0.123c-0.028-0.053-0.048-0.109-0.059-0.17
			c-0.008-0.065-0.015-0.129-0.015-0.192c0-0.064,0.007-0.127,0.015-0.189C23.879,28.119,23.899,28.066,23.927,28.015z"/>
		<polygon fill="#FFFFFF" points="34.153,13.618 33.798,13.11 33.828,12.898 34.632,13.284 35.438,12.718 33.946,12.133 
			34.108,11.029 33.35,11.561 33.279,12.369 32.459,11.199 31.789,11.67 33.484,14.088 		"/>
		<path fill="#FFFFFF" d="M12.472,20.338c0.159,0.149,0.346,0.265,0.56,0.347c0.213,0.082,0.444,0.122,0.691,0.122
			c0.218,0,0.425-0.029,0.62-0.09c0.195-0.062,0.367-0.15,0.515-0.269c0.15-0.116,0.273-0.261,0.372-0.434
			c0.099-0.171,0.162-0.37,0.192-0.593h-1.19c-0.012,0.131-0.063,0.243-0.151,0.336c-0.086,0.095-0.198,0.142-0.332,0.142
			c-0.121,0-0.216-0.022-0.288-0.068c-0.071-0.047-0.125-0.108-0.162-0.184c-0.038-0.075-0.064-0.16-0.075-0.258
			c-0.013-0.097-0.02-0.195-0.02-0.295c0-0.102,0.006-0.2,0.02-0.295c0.012-0.099,0.038-0.184,0.075-0.259
			c0.037-0.075,0.092-0.137,0.164-0.185c0.071-0.049,0.167-0.073,0.289-0.073c0.131,0,0.236,0.035,0.315,0.107
			c0.079,0.068,0.126,0.17,0.139,0.308h1.183c-0.021-0.227-0.078-0.424-0.174-0.589c-0.094-0.167-0.215-0.304-0.364-0.412
			c-0.148-0.111-0.319-0.191-0.513-0.244c-0.193-0.052-0.396-0.078-0.611-0.078c-0.247,0-0.478,0.042-0.692,0.123
			c-0.215,0.082-0.403,0.199-0.561,0.349c-0.161,0.153-0.286,0.333-0.378,0.545c-0.093,0.212-0.139,0.446-0.139,0.703
			c0,0.26,0.046,0.495,0.139,0.705C12.187,20.01,12.312,20.189,12.472,20.338z"/>
		<path fill="#FFFFFF" d="M17.613,21.374l0.577,1.176l3.935-1.931l-0.455-0.926c-0.166,0.071-0.321,0.099-0.467,0.084
			c-0.145-0.016-0.279-0.062-0.398-0.139c-0.119-0.076-0.226-0.175-0.321-0.297c-0.094-0.121-0.176-0.255-0.242-0.4l-0.814,0.4
			l0.452,0.92L17.613,21.374z"/>
		<path fill="#FFFFFF" d="M35.35,32.283c0.255,0.006,0.502-0.01,0.737-0.045c0.234-0.037,0.451-0.108,0.65-0.219
			c0.201-0.111,0.369-0.29,0.505-0.537c0.111-0.201,0.172-0.397,0.179-0.594c0.01-0.196-0.025-0.379-0.112-0.556
			c-0.081-0.174-0.204-0.34-0.373-0.496c-0.165-0.157-0.363-0.296-0.596-0.425c-0.258-0.142-0.512-0.236-0.759-0.274
			c-0.248-0.042-0.481-0.028-0.704,0.03c-0.221,0.064-0.425,0.178-0.604,0.344c-0.185,0.167-0.342,0.388-0.472,0.661l1.036,0.571
			c0.122-0.241,0.268-0.408,0.434-0.506c0.165-0.1,0.359-0.087,0.58,0.034c0.128,0.07,0.22,0.165,0.272,0.282
			c0.055,0.119,0.029,0.267-0.066,0.441c-0.04,0.07-0.09,0.125-0.156,0.159c-0.066,0.036-0.138,0.063-0.216,0.074
			c-0.076,0.016-0.157,0.024-0.236,0.026c-0.081,0.005-0.154,0.007-0.218,0.011c-0.161,0.007-0.33,0.015-0.499,0.019
			c-0.17,0.005-0.337,0.016-0.504,0.03c-0.163,0.018-0.326,0.044-0.485,0.084c-0.155,0.037-0.305,0.089-0.447,0.156
			c-0.165,0.074-0.318,0.181-0.454,0.31c-0.136,0.132-0.25,0.291-0.343,0.487l3.326,1.831l0.515-0.937l-1.736-0.958l0.003-0.007
			C34.848,32.278,35.095,32.276,35.35,32.283z"/>
		<path fill="#FFFFFF" d="M36.475,17.178c0.045-0.041,0.093-0.069,0.148-0.088c0.056-0.017,0.114-0.022,0.179-0.017
			s0.127,0.021,0.191,0.047c0.046,0.021,0.092,0.045,0.141,0.079c0.046,0.031,0.085,0.067,0.118,0.104
			c0.03,0.04,0.053,0.084,0.066,0.132c0.01,0.048,0.004,0.098-0.016,0.148c-0.026,0.063-0.062,0.108-0.106,0.135
			c-0.046,0.028-0.094,0.044-0.147,0.048c-0.053,0.003-0.108-0.002-0.161-0.018c-0.055-0.015-0.106-0.032-0.156-0.052
			c-0.063-0.027-0.113-0.051-0.154-0.072c-0.039-0.021-0.076-0.042-0.11-0.06l-0.264,0.641c0.035,0.008,0.074,0.017,0.114,0.027
			c0.042,0.013,0.099,0.032,0.166,0.06c0.054,0.022,0.107,0.048,0.156,0.079c0.051,0.03,0.09,0.066,0.119,0.108
			c0.03,0.042,0.05,0.09,0.057,0.144c0.006,0.054-0.005,0.116-0.033,0.189c-0.057,0.135-0.134,0.214-0.234,0.237
			c-0.103,0.023-0.22,0.006-0.355-0.049c-0.08-0.033-0.15-0.076-0.209-0.125c-0.061-0.05-0.1-0.111-0.119-0.182
			c-0.057-0.121-0.045-0.27,0.033-0.443l-0.895-0.37c-0.021,0.04-0.045,0.101-0.076,0.178c-0.029,0.079-0.052,0.172-0.066,0.281
			c-0.013,0.105-0.008,0.22,0.008,0.343c0.021,0.122,0.064,0.247,0.14,0.373c0.072,0.127,0.186,0.25,0.333,0.372
			c0.149,0.122,0.345,0.233,0.591,0.334c0.268,0.111,0.504,0.165,0.709,0.167c0.205,0.004,0.384-0.024,0.531-0.085
			c0.147-0.061,0.268-0.141,0.358-0.244c0.092-0.103,0.156-0.203,0.2-0.303c0.05-0.123,0.078-0.231,0.087-0.325
			c0.008-0.094,0.003-0.178-0.013-0.247c-0.019-0.072-0.045-0.132-0.077-0.182c-0.034-0.049-0.067-0.09-0.101-0.124
			c-0.033-0.033-0.063-0.059-0.084-0.075c-0.024-0.018-0.034-0.029-0.032-0.035l0.005-0.01c0.001-0.003,0.022,0,0.075,0.01
			c0.048,0.009,0.108,0.002,0.181-0.02c0.069-0.023,0.148-0.071,0.232-0.145c0.083-0.073,0.161-0.198,0.231-0.37
			c0.029-0.069,0.043-0.161,0.04-0.276c-0.003-0.114-0.032-0.236-0.097-0.364c-0.064-0.13-0.162-0.257-0.3-0.385
			c-0.136-0.127-0.324-0.241-0.561-0.338c-0.185-0.075-0.369-0.125-0.551-0.147c-0.184-0.021-0.354-0.012-0.516,0.027
			c-0.165,0.042-0.313,0.119-0.443,0.23c-0.129,0.111-0.236,0.264-0.32,0.456l0.886,0.365
			C36.396,17.273,36.431,17.218,36.475,17.178z"/>
	</g>
</g>
</svg>
