<?xml version="1.0" encoding="utf-8"?>
<!-- Generator: Adobe Illustrator 16.0.0, SVG Export Plug-In . SVG Version: 6.00 Build 0)  -->
<!DOCTYPE svg PUBLIC "-//W3C//DTD SVG 1.1//EN" "http://www.w3.org/Graphics/SVG/1.1/DTD/svg11.dtd">
<svg version="1.1" id="Layer_1" xmlns="http://www.w3.org/2000/svg" xmlns:xlink="http://www.w3.org/1999/xlink" x="0px" y="0px"
	 width="48px" height="48px" viewBox="0 0 48 48" enable-background="new 0 0 48 48" xml:space="preserve">
<g>
	<path fill="#B75EEA" d="M1,42.75c0,1.657,1.343,3,3,3h39.834c1.657,0,3-1.343,3-3V5.303c0-1.657-1.343-3-3-3H4
		c-1.657,0-3,1.343-3,3V42.75z"/>
</g>
<g>
	<g>
		<g>
			<path fill="#FFFFFF" d="M34.492,19.237c2.308,0,4.165-1.862,4.165-4.16c0-2.299-1.857-4.165-4.165-4.165
				c-2.296,0-4.155,1.864-4.155,4.165C30.337,17.373,32.196,19.237,34.492,19.237z"/>
			<path fill="#FFFFFF" d="M37.833,19.915H31.16c-0.991,0-1.824,0.765-2.081,1.793l-3.962,8.112
				c-0.056-0.005-0.104-0.033-0.162-0.033h-1.527c-0.056,0-0.106,0.03-0.159,0.033l-3.962-8.11
				c-0.255-1.028-1.088-1.795-2.079-1.795h-6.677c-1.193,0-2.164,1.095-2.164,2.438V35.25h11.006v-7.322l2.403,4.444
				c0.233,0.772,0.868,1.331,1.633,1.331h1.526c0.766,0,1.402-0.559,1.637-1.331l2.401-4.444v7.322H40V22.352
				C39.998,21.009,39.026,19.915,37.833,19.915z"/>
			<path fill="#FFFFFF" d="M13.894,19.237c2.294,0,4.154-1.862,4.154-4.16c0.001-2.301-1.859-4.165-4.154-4.165
				c-2.307,0-4.167,1.864-4.167,4.165C9.727,17.373,11.587,19.237,13.894,19.237z"/>
		</g>
	</g>
</g>
</svg>
