<?xml version="1.0" encoding="utf-8"?>
<!-- Generator: Adobe Illustrator 16.0.0, SVG Export Plug-In . SVG Version: 6.00 Build 0)  -->
<!DOCTYPE svg PUBLIC "-//W3C//DTD SVG 1.1//EN" "http://www.w3.org/Graphics/SVG/1.1/DTD/svg11.dtd">
<svg version="1.1" id="Layer_1" xmlns="http://www.w3.org/2000/svg" xmlns:xlink="http://www.w3.org/1999/xlink" x="0px" y="0px"
	 width="48px" height="48px" viewBox="0 0 48 48" enable-background="new 0 0 48 48" xml:space="preserve">
<g>
	<path fill="#A58BD5" d="M1,42.75c0,1.657,1.343,3,3,3h39.834c1.657,0,3-1.343,3-3V5.303c0-1.657-1.343-3-3-3H4
		c-1.657,0-3,1.343-3,3V42.75z"/>
</g>
<g id="XMLID_9_">
	<path id="XMLID_80_" fill="#FFFFFF" d="M36.822,20.692c-2.64-0.97-5.271-1.002-7.85,0.123c-0.118-0.352-0.479-0.656-0.287-1.104
		c0.037-0.083-0.085-0.197-0.178-0.23c-0.2-0.069-0.207-0.22-0.229-0.392c-0.189-1.5-0.963-2.62-2.276-3.345
		c-0.399-0.221-0.604-0.516-0.734-0.926c-0.188-0.585-0.198-1.192-0.282-1.791c-0.06-0.43-0.199-0.806-0.687-0.913
		c-0.075-0.016-0.103-0.057-0.132-0.117c-0.101-0.209,0.034-1.148,0.195-1.333c0.347-0.401,0.332-0.838-0.057-1.193
		c-0.108-0.1-0.159-0.199-0.206-0.341c-0.168-0.516-0.01-1.027-0.015-1.539c-0.004-0.282-0.051-0.51-0.284-0.671
		c-0.186-0.128-0.388-0.132-0.581-0.011C22.975,7.062,22.865,7.3,22.928,7.57c0.091,0.387,0.008,0.774,0.041,1.162
		c0.025,0.289-0.061,0.586-0.336,0.811c-0.277,0.224-0.357,0.606-0.139,0.869c0.253,0.308,0.268,0.66,0.353,0.996
		c0.078,0.31,0.136,0.649-0.341,0.783c-0.305,0.086-0.42,0.403-0.473,0.705c-0.043,0.253-0.053,0.513-0.081,0.769
		c-0.063,0.578-0.147,1.152-0.438,1.667c-0.201,0.355-0.375,0.382-0.655,0.122c-0.267-0.247-0.718-0.285-0.939-0.015
		c-0.187,0.229-0.409,0.314-0.665,0.396c-0.234,0.075-0.433,0.224-0.612,0.395c-0.519,0.494-0.735,1.135-0.874,1.812
		c-0.119,0.58-0.092,1.186-0.302,1.748c-0.133,0.357-0.3,0.674-0.764,0.703c-0.23,0.015-0.49,0.143-0.56,0.367
		c-0.131,0.425-0.412,0.436-0.761,0.391c-0.165-0.022-0.335-0.007-0.503-0.001c-1.853,0.058-3.329,1.073-3.894,2.82
		c-0.563,1.74-0.421,3.385,0.991,4.743c0.567,0.547,1.125,1.104,1.661,1.68c0.8,0.86,1.416,1.827,1.67,3
		c0.057,0.262,0.031,0.363-0.235,0.469c-0.52,0.205-0.764,0.773-0.625,1.312c0.126,0.49,0.669,0.873,1.167,0.841
		c0.208-0.013,0.431-0.256,0.581-0.116c0.151,0.139,0.164,0.421,0.253,0.634c0.291,0.693,0.687,1.324,1.148,1.916
		c0.068,0.088,0.117,0.158,0.247,0.229l0.285,0.307c0.173,0.392,0.461,0.511,0.764,0.747c-0.107,0.009-0.182,0.015-0.256,0.02
		c-0.198,0.041-0.326,0.146-0.334,0.362c-0.017,0.019-0.042,0.033-0.05,0.056c-0.12,0.361,0.358,0.719,0.009,1.097
		c-0.03,0.031,0.09,0.194,0.195,0.262c0.142,0.091,0.297,0.07,0.45,0.071c2.893,0,5.785-0.008,8.678,0.003
		c1.209,0.004,1.201,0.02,1.184-1.188c-0.006-0.496-0.091-0.604-0.57-0.706c1.148-0.951,1.973-2.146,2.5-3.543
		c0.346-0.912,0.355-1.844,0.006-2.759c-0.507-1.323-1.07-2.621-1.941-3.758c-0.307-0.399-0.567-0.827-0.772-1.289
		c-0.16-0.357-0.179-0.709-0.101-1.091c0.33-1.571,1.24-2.761,2.472-3.717c1.917-1.486,4.079-2.138,6.513-1.799
		c0.688,0.096,1.353,0.291,2.117,0.43C38.4,21.475,37.663,21,36.822,20.692z M17.727,21.695c0.139-0.318-0.174-0.776,0.341-0.982
		c0.005,0.119,0.002,0.251,0.021,0.38c0.025,0.177,0.131,0.374,0.293,0.367c0.423-0.015,0.452,0.291,0.536,0.563
		c0.034,0.108,0.052,0.22,0.085,0.358c-0.404-0.2-0.779-0.385-1.154-0.571C17.796,21.786,17.692,21.775,17.727,21.695z
		 M18.039,30.048c-0.701,0.81-1.062,1.844-1.498,2.817c-0.041,0.092-0.082,0.184-0.146,0.33c-0.427-1.874-1.594-3.203-2.881-4.453
		c-0.296-0.289-0.58-0.588-0.874-0.879c-0.968-0.956-0.973-2.112-0.634-3.305c0.336-1.184,1.151-1.913,2.361-2.122
		c1.394-0.24,2.678,0.137,3.884,0.831c0.104,0.06,0.126,0.104,0.074,0.237c-0.298,0.761,0.083,1.302,0.877,1.244
		c0.165-0.011,0.192,0.03,0.197,0.175C19.467,26.771,19.342,28.544,18.039,30.048z M19.226,17.493
		c-0.165,0.321-0.288,0.653-0.396,0.998c-0.097,0.312-0.018,0.688-0.289,0.94c0.149-1.054-0.018-2.253,1.233-2.81
		C19.621,16.927,19.385,17.184,19.226,17.493z"/>
</g>
</svg>
