<?xml version="1.0" encoding="utf-8"?>
<!-- Generator: Adobe Illustrator 16.0.0, SVG Export Plug-In . SVG Version: 6.00 Build 0)  -->
<!DOCTYPE svg PUBLIC "-//W3C//DTD SVG 1.1//EN" "http://www.w3.org/Graphics/SVG/1.1/DTD/svg11.dtd">
<svg version="1.1" id="Layer_1" xmlns="http://www.w3.org/2000/svg" xmlns:xlink="http://www.w3.org/1999/xlink" x="0px" y="0px"
	 width="48px" height="48px" viewBox="0 0 48 48" enable-background="new 0 0 48 48" xml:space="preserve">
<g>
	<path fill="#220F82" d="M1,42.75c0,1.657,1.343,3,3,3h39.834c1.657,0,3-1.343,3-3V5.303c0-1.657-1.343-3-3-3H4
		c-1.657,0-3,1.343-3,3V42.75z"/>
</g>
<g>
	<path fill="#FFFFFF" d="M10.669,16.984c1.204,1.82,2.26,3.982,2.427,4.354c0.048,0.107,0.123,0.36,0.207,0.669
		c0.587-0.829,1.303-1.514,2.158-2.018c1.221-0.717,2.624-1.013,4.138-0.941c-0.365-0.581-0.698-1.179-0.858-1.645
		c-0.411-1.193-1.9-6.121-2.771-8.224c-0.871-2.104-4.188-0.607-6.115,0.489c-1.927,1.096-2.035,2.446-1.839,2.818
		C8.211,12.859,9.466,15.164,10.669,16.984z"/>
	<path fill="#FFFFFF" d="M18.06,23.764c2.563-1.057,3.111,0.226,3.111,0.226c0.813-0.754,0.245-1.645,0.245-1.645
		s0.205-0.382-0.127-0.773c-0.203-0.239-0.858-1.105-1.431-2.016c-1.515-0.071-2.918,0.224-4.139,0.941
		c-0.855,0.503-1.571,1.188-2.158,2.018c0.209,0.765,0.477,1.885,0.546,2.08c0.098,0.273,0.352,0.646,0.587,0.694
		c0.234,0.048,0.372,0.273,0.372,0.273c0.303,0.617,1.252,0.655,1.252,0.655S15.496,24.819,18.06,23.764z"/>
	<path fill="#FFFFFF" d="M37.186,29.197c-0.784-0.614-1.836-0.91-2.674-1.453c-2.165-1.405,0.64-2.699,1.568-3.536
		c1.577-1.421,1.99-3.06,1.338-5.048c-0.203-0.622-0.646-1.279-0.442-0.657c1.117,3.401-2.431,5.027-4.231,6.929
		c-0.664,0.701-0.572,1.461,0.117,2.159c1.333,1.352,5.344,2.494,2.858,4.596c-1.742,1.474-4.447,1.605-6.38,2.85
		c-0.26,0.168-0.291,0.62-0.029,0.805c1.897,1.326,4.525,1.007,6.394,2.212c-3.225,0.971-6.607,0.338-9.923,0.033
		c0.014-0.094,0.001-0.174,0.001-0.174c-0.421-2.583-0.464-3.144-0.269-4.435c0.195-1.292,0-1.409,0-1.409
		c-1.996-2.739-4.421-7.915-4.421-7.915c-0.323-0.538-1.604-0.766-3.19-0.059c-1.644,0.734-1.526,1.742-1.526,1.742l2.789,8.222
		c0.098,0.264,0.548,0.391,0.548,0.391c2.613,0.754,4.743,3.394,5.026,3.805s0.49,0.255,0.49,0.255l-3.047-6.824
		c-0.233-0.054-0.47-0.256-0.609-0.556c-0.203-0.434-0.122-0.899,0.179-1.039c0.301-0.141,0.709,0.098,0.912,0.532
		c0.152,0.327,0.143,0.671,0.001,0.881l2.905,6.563c-0.021-0.001-0.043-0.004-0.064-0.006c-0.648-0.056,0.033,0.771,1.854,1.001
		c4.059,0.509,5.646,0.478,9.558-0.352c0.402-0.084,0.409-0.597,0.146-0.865c-1.732-1.769-4.27-1.392-6.347-2.356
		C33.359,34.375,40.607,31.872,37.186,29.197z"/>
</g>
</svg>
