<?xml version="1.0" encoding="utf-8"?>
<!-- Generator: Adobe Illustrator 16.0.0, SVG Export Plug-In . SVG Version: 6.00 Build 0)  -->
<!DOCTYPE svg PUBLIC "-//W3C//DTD SVG 1.1//EN" "http://www.w3.org/Graphics/SVG/1.1/DTD/svg11.dtd">
<svg version="1.1" id="Layer_1" xmlns="http://www.w3.org/2000/svg" xmlns:xlink="http://www.w3.org/1999/xlink" x="0px" y="0px"
	 width="48px" height="48px" viewBox="0 0 48 48" enable-background="new 0 0 48 48" xml:space="preserve">
<g>
	<path fill="#D55400" d="M1,42.75c0,1.657,1.343,3,3,3h39.834c1.657,0,3-1.343,3-3V5.303c0-1.657-1.343-3-3-3H4
		c-1.657,0-3,1.343-3,3V42.75z"/>
</g>
<path id="XMLID_103_" fill="#FFFFFF" d="M19.794,22.677c0,0.39-0.316,0.705-0.705,0.705h-6.171c-0.389,0-0.705-0.315-0.705-0.705
	c0-0.389,0.315-0.705,0.705-0.705h6.171C19.478,21.972,19.794,22.288,19.794,22.677z M17.623,24.931h-3.239
	c-0.389,0-0.705,0.315-0.705,0.705s0.315,0.705,0.705,0.705h3.239c0.389,0,0.705-0.315,0.705-0.705S18.012,24.931,17.623,24.931z
	 M40.401,34.167c0.285,0.266,0.304,0.711,0.039,0.997c-1.177,1.271-3.103,1.152-5.541,1.003c-2.972-0.181-6.669-0.407-10.587,1.714
	c-0.209,0.114-0.461,0.114-0.671,0c-1.606-0.87-3.177-1.345-4.675-1.59v3.231c0,0.25-0.132,0.48-0.348,0.607s-0.481,0.13-0.7,0.01
	l-1.915-1.063l-1.915,1.063c-0.106,0.059-0.224,0.088-0.342,0.088c-0.124,0-0.248-0.032-0.358-0.098
	c-0.215-0.127-0.347-0.357-0.347-0.607v-3.354c-2.433,0.147-4.355,0.264-5.529-1.005c-0.264-0.286-0.247-0.731,0.039-0.997
	c0.286-0.264,0.732-0.247,0.996,0.039c0.722,0.78,2.354,0.681,4.42,0.555c2.906-0.178,6.858-0.42,11.009,1.704
	c4.15-2.124,8.102-1.882,11.008-1.704c2.065,0.126,3.698,0.226,4.42-0.555C39.67,33.92,40.116,33.903,40.401,34.167z M17.555,36.121
	c-1.085-0.087-2.125-0.074-3.103-0.03v2.234l1.209-0.671c0.213-0.118,0.471-0.118,0.684,0l1.209,0.671V36.121L17.555,36.121z
	 M28.159,19.718c0,0.39,0.315,0.705,0.705,0.705h6.17c0.391,0,0.706-0.315,0.706-0.705s-0.315-0.705-0.706-0.705h-6.17
	C28.475,19.013,28.159,19.328,28.159,19.718z M40.628,10.275v21.429c0,0.177-0.067,0.348-0.188,0.478
	c-1.177,1.271-3.103,1.154-5.541,1.005c-2.971-0.182-6.668-0.408-10.585,1.713c-0.007,0.005-0.015,0.008-0.023,0.012
	c-0.101,0.051-0.208,0.074-0.314,0.074c-0.049,0-0.2-0.013-0.346-0.091c-3.929-2.088-7.608-1.89-10.577-1.708
	c-2.439,0.149-4.365,0.267-5.541-1.005c-0.121-0.13-0.188-0.301-0.188-0.478V10.275c0-0.249,0.13-0.479,0.344-0.606
	c0.213-0.127,0.478-0.132,0.696-0.014c3.918,2.122,7.616,1.896,10.587,1.714c2.109-0.129,3.835-0.234,5.024,0.562
	c1.189-0.796,2.915-0.691,5.023-0.562c2.972,0.182,6.67,0.408,10.588-1.714c0.218-0.118,0.482-0.113,0.695,0.014
	C40.496,9.796,40.628,10.026,40.628,10.275z M23.271,13.162c-0.794-0.596-2.329-0.502-4.233-0.386
	c-2.741,0.167-6.412,0.393-10.303-1.365v19.982c0.795,0.596,2.33,0.502,4.233,0.385c0.866-0.052,1.826-0.11,2.855-0.11
	c2.229,0,4.787,0.274,7.448,1.477V13.162z M39.219,11.411c-3.892,1.757-7.563,1.533-10.305,1.365
	c-1.902-0.116-3.438-0.21-4.232,0.386v19.982c3.891-1.758,7.563-1.533,10.304-1.366c1.903,0.117,3.438,0.211,4.233-0.385V11.411
	L39.219,11.411z M35.034,21.972h-6.17c-0.39,0-0.705,0.315-0.705,0.705c0,0.39,0.315,0.705,0.705,0.705h6.17
	c0.391,0,0.706-0.315,0.706-0.705C35.74,22.288,35.425,21.972,35.034,21.972z M19.089,19.013h-6.171
	c-0.389,0-0.705,0.315-0.705,0.705s0.315,0.705,0.705,0.705h6.171c0.389,0,0.705-0.315,0.705-0.705S19.478,19.013,19.089,19.013z
	 M33.568,24.931H30.33c-0.389,0-0.704,0.315-0.704,0.705s0.315,0.705,0.704,0.705h3.238c0.39,0,0.705-0.315,0.705-0.705
	S33.958,24.931,33.568,24.931z"/>
</svg>
