<?xml version="1.0" encoding="utf-8"?>
<!-- Generator: Adobe Illustrator 16.0.0, SVG Export Plug-In . SVG Version: 6.00 Build 0)  -->
<!DOCTYPE svg PUBLIC "-//W3C//DTD SVG 1.1//EN" "http://www.w3.org/Graphics/SVG/1.1/DTD/svg11.dtd">
<svg version="1.1" id="Layer_1" xmlns="http://www.w3.org/2000/svg" xmlns:xlink="http://www.w3.org/1999/xlink" x="0px" y="0px"
	 width="48px" height="48px" viewBox="0 0 48 48" enable-background="new 0 0 48 48" xml:space="preserve">
<g>
	<path fill="#0D0D5E" d="M1,42.75c0,1.657,1.343,3,3,3h39.834c1.657,0,3-1.343,3-3V5.303c0-1.657-1.343-3-3-3H4
		c-1.657,0-3,1.343-3,3V42.75z"/>
</g>
<g>
	<path fill="#FFFFFF" d="M21.896,27.931c-0.003-0.002-0.006-0.004-0.009-0.007l-2.746-1.983l0.555-1.651l2.269,2.313
		C22.217,26.859,22.554,27,22.913,27c0.35,0,0.68-0.135,0.93-0.379c0.253-0.248,0.395-0.58,0.398-0.936
		c0.003-0.354-0.131-0.689-0.379-0.941l-2.273-2.318c0,0,0.203-4.646,0.179-4.704c-0.045-0.661-0.479-1.262-1.146-1.485
		l-1.947-0.654c-0.173-0.058-0.354-0.088-0.536-0.088c-0.161,0-0.401,0.008-0.621,0.104l-5.453,2.454
		c-0.007,0.003-0.016,0.007-0.022,0.011c-0.388,0.203-0.645,0.558-0.738,0.955c-0.002,0.007-0.005,0.014-0.007,0.021l-0.904,4.011
		c-0.176,0.779,0.314,1.556,1.095,1.732l0.039,0.009c0.105,0.024,0.213,0.036,0.32,0.036l0,0c0.681,0,1.261-0.465,1.411-1.129
		l0.744-3.298l1.502-0.676l-3.249,9.2l-5.248,0.879c-0.825,0.086-1.431,0.824-1.354,1.65l0.004,0.047
		c0.073,0.784,0.723,1.376,1.51,1.376c0.047,0,0.095-0.003,0.143-0.006c0.01-0.002,0.021-0.004,0.031-0.005l6.361-1.065
		c0.055-0.01,0.107-0.022,0.169-0.047c0.402-0.125,0.725-0.42,0.909-0.811c0.006-0.012,0.011-0.025,0.016-0.038L16,27.563
		l3.301,2.309l-0.503,4.851c-0.043,0.403,0.072,0.8,0.326,1.115c0.254,0.316,0.616,0.515,1.019,0.558l0.046,0.006
		c0.055,0.006,0.11,0.009,0.165,0.009c0.775,0,1.424-0.583,1.508-1.356l0.568-5.49C22.487,28.98,22.598,28.46,21.896,27.931z"/>
	<path fill="#FFFFFF" d="M40.661,34.622l-1.756-1.977c-0.078-0.088-0.189-0.141-0.308-0.145l-1.766-0.064l0.553-2.544
		c0.12,0.017,0.239,0.024,0.359,0.024c1.03,0,1.973-0.602,2.46-1.57c0.054-0.107,0.061-0.232,0.019-0.346
		c-0.042-0.112-0.13-0.203-0.242-0.247l-1.436-0.58c-0.108-0.469-0.462-0.844-0.917-0.986l-0.074-0.857
		c-0.015-0.171-0.129-0.316-0.292-0.371c-0.162-0.055-0.342-0.008-0.457,0.119l-0.27,0.298l-0.19-0.665
		c-0.05-0.18-0.212-0.306-0.399-0.313c-0.187-0.009-0.356,0.109-0.419,0.285l-1.687,4.649c-0.617-0.03-1.789-0.373-2.531-2.359
		c-0.813-2.179-2.328-3.166-3.457-3.611c-1.219-0.48-2.244-0.446-2.287-0.444c-0.236,0.01-0.422,0.21-0.412,0.448
		c0.008,0.238,0.209,0.421,0.447,0.414c0.036-0.002,3.56-0.101,4.901,3.496c0.274,0.736,0.745,1.633,1.52,2.239l-4.332,0.313
		c-0.942,0.079-1.87-0.302-2.483-1.018c-0.156-0.182-0.428-0.202-0.609-0.048c-0.18,0.154-0.202,0.427-0.047,0.607
		c0.603,0.704,1.439,1.155,2.34,1.289c-0.277,0.238-0.503,0.495-0.678,0.725l-1.53-0.262c-0.118-0.021-0.238,0.011-0.333,0.081
		L22.503,32.6c-0.092,0.069-0.152,0.173-0.167,0.286c-0.015,0.114,0.016,0.229,0.086,0.321l0.377,0.488
		c0.143,0.186,0.407,0.223,0.596,0.085l1.223-0.893l1.313,0.663l-1.125,0.516c-0.116,0.053-0.202,0.154-0.235,0.276l-0.644,2.3
		c-0.057,0.201,0.04,0.415,0.228,0.505l0.507,0.244c0.059,0.029,0.123,0.043,0.187,0.043c0.061,0,0.121-0.013,0.176-0.038
		c0.117-0.052,0.205-0.152,0.238-0.275l0.411-1.447l3.377-0.666c0.008-0.001,0.015-0.003,0.022-0.005
		c0.902-0.229,1.42-0.815,1.717-1.375c1.143,0.278,2.753,0.649,3.984,0.843c0.056,0.009,0.108,0.015,0.161,0.021l1.893,3.368
		c0.077,0.139,0.223,0.22,0.375,0.22c0.051,0,0.102-0.008,0.15-0.026l0.494-0.186c0.107-0.04,0.194-0.121,0.241-0.225
		c0.048-0.104,0.052-0.223,0.012-0.33l-1.13-3.021l0.989-0.123l1.838,1.44c0.076,0.06,0.169,0.092,0.266,0.092
		c0.019,0,0.037-0.001,0.056-0.004c0.114-0.015,0.219-0.075,0.288-0.167l0.273-0.362C40.806,35.005,40.797,34.775,40.661,34.622z"/>
	<path fill="#FFFFFF" d="M22.288,15.873c1.78,0,3.229-1.449,3.229-3.229s-1.449-3.229-3.229-3.229c-1.781,0-3.229,1.448-3.229,3.229
		S20.507,15.873,22.288,15.873z"/>
</g>
</svg>
