<?xml version="1.0" encoding="utf-8"?>
<!-- Generator: Adobe Illustrator 16.0.0, SVG Export Plug-In . SVG Version: 6.00 Build 0)  -->
<!DOCTYPE svg PUBLIC "-//W3C//DTD SVG 1.1//EN" "http://www.w3.org/Graphics/SVG/1.1/DTD/svg11.dtd">
<svg version="1.1" id="Layer_1" xmlns="http://www.w3.org/2000/svg" xmlns:xlink="http://www.w3.org/1999/xlink" x="0px" y="0px"
	 width="48px" height="48px" viewBox="0 0 48 48" enable-background="new 0 0 48 48" xml:space="preserve">
<g>
	<path fill="#C0CA33" d="M1,42.75c0,1.657,1.343,3,3,3h39.834c1.657,0,3-1.343,3-3V5.303c0-1.657-1.343-3-3-3H4
		c-1.657,0-3,1.343-3,3V42.75z"/>
</g>
<g>
	<path fill="#FFFFFF" d="M38.915,31.08l-6.039-9.906c-0.103-0.167-0.309-0.237-0.49-0.166l-0.723,0.281l-0.101-0.166
		c-0.15-0.246-0.454-0.349-0.722-0.244l-7.61,2.965l-7.611-2.965c-0.269-0.104-0.573-0.001-0.722,0.244l-0.102,0.167l-0.721-0.281
		c-0.182-0.071-0.388-0.001-0.49,0.166L7.543,31.08c-0.062,0.101-0.076,0.225-0.038,0.338c0.038,0.112,0.123,0.202,0.234,0.246
		l8.615,3.414l-1.124,7.224c-0.018,0.116,0.016,0.234,0.092,0.325c0.077,0.088,0.188,0.139,0.307,0.139h1.005
		c0.081,0,0.161-0.024,0.228-0.07l6.368-4.374l6.366,4.374c0.068,0.046,0.147,0.07,0.228,0.07h1.007
		c0.117,0,0.229-0.051,0.305-0.139c0.078-0.091,0.111-0.209,0.093-0.325l-1.123-7.224l8.615-3.414
		c0.111-0.044,0.196-0.134,0.234-0.246C38.991,31.305,38.978,31.181,38.915,31.08z M23.553,34.116v-5.155
		c0-0.177-0.145-0.321-0.322-0.321c-0.179,0-0.323,0.145-0.323,0.321v5.155l-11.712-4.642l4.457-7.309l7.363,2.869
		c0.138,0.054,0.292,0.054,0.431,0l7.362-2.869l4.457,7.309L23.553,34.116z"/>
	<path fill="#FFFFFF" d="M30.38,24.669c-0.064-0.166-0.252-0.249-0.417-0.184l-4.752,1.852c-0.166,0.065-0.248,0.252-0.182,0.417
		c0.049,0.128,0.17,0.206,0.299,0.206c0.039,0,0.079-0.007,0.117-0.022l4.752-1.853C30.362,25.021,30.444,24.835,30.38,24.669z"/>
	<path fill="#FFFFFF" d="M25.994,28.108c-0.165,0.065-0.248,0.252-0.183,0.417c0.05,0.128,0.171,0.206,0.301,0.206
		c0.038,0,0.078-0.007,0.116-0.022l4.752-1.853c0.166-0.064,0.248-0.251,0.184-0.417s-0.252-0.248-0.417-0.183L25.994,28.108z"/>
	<path fill="#FFFFFF" d="M26.657,30.461c0.05,0.126,0.171,0.204,0.302,0.204c0.038,0,0.077-0.007,0.115-0.021l4.752-1.853
		c0.166-0.064,0.249-0.252,0.184-0.417c-0.064-0.166-0.252-0.248-0.417-0.184l-4.752,1.852
		C26.676,30.107,26.593,30.294,26.657,30.461z"/>
	<path fill="#FFFFFF" d="M21.249,26.338l-4.751-1.852c-0.166-0.064-0.353,0.018-0.417,0.184c-0.065,0.166,0.017,0.352,0.183,0.417
		l4.752,1.853c0.039,0.016,0.078,0.022,0.117,0.022c0.129,0,0.251-0.078,0.301-0.206C21.496,26.59,21.415,26.403,21.249,26.338z"/>
	<path fill="#FFFFFF" d="M20.465,28.108l-4.752-1.852c-0.166-0.065-0.353,0.017-0.417,0.183s0.018,0.353,0.183,0.417l4.752,1.853
		c0.038,0.016,0.078,0.022,0.117,0.022c0.129,0,0.25-0.078,0.3-0.206C20.713,28.36,20.631,28.174,20.465,28.108z"/>
	<path fill="#FFFFFF" d="M19.619,30.042l-4.752-1.852c-0.166-0.064-0.352,0.018-0.417,0.184c-0.064,0.166,0.018,0.353,0.183,0.417
		l4.751,1.853c0.039,0.015,0.078,0.021,0.117,0.021c0.129,0,0.251-0.078,0.301-0.204C19.867,30.294,19.785,30.107,19.619,30.042z"/>
</g>
<g>
	<path fill="#FFFFFF" d="M33.524,7.878L33.497,7.46l-0.241-1.963l-0.241,0.209c-0.135,0.118-0.262,0.228-0.381,0.33
		C30.81,7.61,30.796,7.65,31.175,10.32l0.016,0.108c0.338,2.38,0.336,4.841,0.336,7.22c0,0.566,0,1.152,0.004,1.726l0.004,0.435
		l0.291-0.322C34.147,16.928,33.759,11.263,33.524,7.878z"/>
	<path fill="#FFFFFF" d="M28.804,11.417c0.003-0.195,0.007-0.392,0.011-0.589c0.042-2.097,0.082-4.078-0.456-5.075l-0.111-0.206
		l-0.16,0.17c-0.244,0.258-0.457,0.464-0.644,0.646c-0.929,0.906-1.134,1.184-0.763,2.883c0.199,0.92,0.762,4.943-0.377,6.357
		c-0.266,0.331-0.601,0.491-1.022,0.491l0,0c-0.102,0-0.21-0.01-0.321-0.029c-0.972-0.167-0.908-2.836-0.852-5.192
		c0.052-2.125,0.1-4.132-0.434-5.122l-0.111-0.206l-0.162,0.17c-0.244,0.258-0.456,0.464-0.643,0.646
		c-0.929,0.906-1.134,1.184-0.764,2.883c0.469,2.156,0.354,4.428,0.2,6.167c-0.038,0.438-0.573,0.635-1.086,0.635
		c-0.438,0-0.831-0.138-1.028-0.36c-0.745-0.84-0.841-1.985-0.942-3.197c-0.091-1.089-0.186-2.215-0.797-3.099l-0.11-0.159
		c0,0-0.688,0.118-0.803,0.788c-0.115,0.669-0.096,1.805-2.185,3.087c-0.237,0.146-0.483,0.295-0.723,0.459
		c-1.468,1.003-1.399,2.084-1.228,2.639c0.327,1.056,1.516,1.883,2.707,1.883c0.997,0,1.78-0.566,2.203-1.572
		c0.579,1.322,2.116,2.497,3.385,2.497c0.496,0,1.333-0.188,1.805-1.341c0.332,0.861,1.02,1.343,1.952,1.343
		c1.61,0,3.483-1.521,3.483-3.479c0.014-0.711,0.014-1.781,0.01-2.544C28.831,11.937,28.824,11.565,28.804,11.417z M17.117,15.628
		c-0.133,0.089-0.308,0.136-0.504,0.136c-0.292,0-0.867-0.107-1.526-0.8c0.716-0.641,1.548-1.089,2.476-1.333
		C17.671,14.196,17.456,15.402,17.117,15.628z"/>
</g>
</svg>
