<?xml version="1.0" encoding="utf-8"?>
<!-- Generator: Adobe Illustrator 16.0.0, SVG Export Plug-In . SVG Version: 6.00 Build 0)  -->
<!DOCTYPE svg PUBLIC "-//W3C//DTD SVG 1.1//EN" "http://www.w3.org/Graphics/SVG/1.1/DTD/svg11.dtd">
<svg version="1.1" id="Layer_1" xmlns="http://www.w3.org/2000/svg" xmlns:xlink="http://www.w3.org/1999/xlink" x="0px" y="0px"
	 width="48px" height="48px" viewBox="0 0 48 48" enable-background="new 0 0 48 48" xml:space="preserve">
<g>
	<path fill="#558B2F" d="M1,42.75c0,1.657,1.343,3,3,3h39.834c1.657,0,3-1.343,3-3V5.303c0-1.657-1.343-3-3-3H4
		c-1.657,0-3,1.343-3,3V42.75z"/>
</g>
<g>
	<g>
		<path fill="#FFFFFF" d="M33.961,16.849l-0.155,0.693h-0.292c0.255,0.427,0.401,0.938,0.401,1.498c0,1.75-1.32,3.069-3.07,3.069
			c-1.549,0-2.717-1.184-2.717-2.757c0-0.805,0.284-1.528,0.757-2.078l0.112-1.009c0.021-0.181,0.04-0.364,0.061-0.526
			c0.107-0.728,0.354-1.41,0.754-2.096c-1.761-0.806-3.768-1.225-5.896-1.225c-6.959,0-12.622,4.467-12.622,12.386
			s5.663,14.364,12.622,14.364c6.96,0,12.625-6.444,12.625-14.364C36.542,21.544,35.577,18.867,33.961,16.849z M23.917,37.22
			c-6.023,0-10.907-5.555-10.907-12.412h3.765l4.942-3.675l-1.979,3.707c0,0,9.786,2.038,15.086-0.032
			C34.824,31.665,29.943,37.22,23.917,37.22z"/>
		<path fill="#FFFFFF" d="M21.414,29.136c0-0.91-0.736-1.646-1.644-1.646c-0.911,0-1.648,0.735-1.648,1.646
			c0,0.911,0.737,1.649,1.648,1.649C20.678,30.784,21.414,30.045,21.414,29.136z M20.104,30.185c-0.466,0-0.843-0.379-0.843-0.844
			c0-0.467,0.375-0.846,0.843-0.846c0.467,0,0.847,0.379,0.847,0.846C20.953,29.806,20.571,30.185,20.104,30.185z"/>
		<path fill="#FFFFFF" d="M28.23,27.49c-0.908,0-1.646,0.735-1.646,1.646c0,0.911,0.738,1.649,1.646,1.649
			c0.911,0,1.65-0.738,1.65-1.649C29.881,28.226,29.142,27.49,28.23,27.49z M27.893,30.185c-0.466,0-0.844-0.379-0.844-0.844
			c0-0.467,0.378-0.846,0.844-0.846c0.468,0,0.846,0.379,0.846,0.846C28.738,29.806,28.36,30.185,27.893,30.185z"/>
		<path fill="#FFFFFF" d="M32.377,9.573c0.9,0.021,1.156,0.432,1.156,0.943c0,0.685-0.805,1.333-1.569,2.175
			c-1.079,1.157-1.607,2.117-1.764,3.175c-0.021,0.157-0.04,0.333-0.06,0.508h2.744c0.038-0.176,0.057-0.312,0.098-0.471
			c0.177-0.881,0.551-1.489,1.315-2.255c1.116-1.116,2.156-2.117,2.156-3.683c0-1.607-1.374-2.667-3.255-2.667
			c-1.47,0-2.589,0.393-3.313,0.844l0.37,1.978C30.786,9.79,31.511,9.573,32.377,9.573z"/>
		<path fill="#FFFFFF" d="M29.277,19.337c0,0.92,0.628,1.608,1.567,1.608c1.117,0,1.922-0.804,1.922-1.921
			c0-0.961-0.646-1.648-1.607-1.648C30.041,17.375,29.277,18.298,29.277,19.337z"/>
		<path fill="#FFFFFF" d="M25.357,32.543c-2.037-0.54-4.852,1.997-4.969,2.105l0.574,0.635c0.715-0.65,2.864-2.256,4.176-1.911
			c0.479,0.129,0.821,0.518,1.04,1.189l0.813-0.261C26.682,33.339,26.131,32.753,25.357,32.543z"/>
	</g>
</g>
</svg>
