<?xml version="1.0" encoding="utf-8"?>
<!-- Generator: Adobe Illustrator 16.0.0, SVG Export Plug-In . SVG Version: 6.00 Build 0)  -->
<!DOCTYPE svg PUBLIC "-//W3C//DTD SVG 1.1//EN" "http://www.w3.org/Graphics/SVG/1.1/DTD/svg11.dtd">
<svg version="1.1" id="Layer_1" xmlns="http://www.w3.org/2000/svg" xmlns:xlink="http://www.w3.org/1999/xlink" x="0px" y="0px"
	 width="48px" height="48px" viewBox="0 0 48 48" enable-background="new 0 0 48 48" xml:space="preserve">
<g>
	<path fill="#1B5E20" d="M1,42.75c0,1.657,1.343,3,3,3h39.834c1.657,0,3-1.343,3-3V5.303c0-1.657-1.343-3-3-3H4
		c-1.657,0-3,1.343-3,3V42.75z"/>
</g>
<g>
	<path fill-rule="evenodd" clip-rule="evenodd" fill="#FFFFFF" d="M15.288,34.441c-0.872,0.108-1.747,0.193-2.614,0.33
		c-1.605,0.254-3.034-0.915-3.04-2.534c-0.009-2.509-0.011-5.019,0-7.526c0.013-3.01,2.458-5.91,5.452-6.32
		c1.978-0.271,3.997-0.354,5.962,0.078c2.754,0.606,4.665,2.773,5.08,5.572c0.013,0.094,0.043,0.185,0.088,0.367
		c1.154-1.26,2.541-1.861,4.176-1.908c1.576-0.047,3.086,0.121,4.457,1.256c-3.27,0.576-6.338,1.451-8.849,3.724
		c-0.325-0.263-0.632-0.526-0.956-0.771c-2.213-1.658-4.755-2.485-7.446-2.932c-0.385-0.064-0.776-0.096-1.164-0.145
		c-1.008-0.127-1.008-0.128-1.321,0.799c1.942,0.443,3.932,0.777,5.839,1.372c1.38,0.431,2.65,1.215,3.975,1.829
		c0.703,0.325,1.469,0.4,2.117-0.016c2.42-1.552,5.096-2.351,7.898-2.771c1.312-0.197,2.641-0.271,4.076-0.413
		c-0.249,1.075-0.402,2.057-0.715,2.983c-0.27,0.799-0.126,1.436,0.352,2.066c0.423,0.559,0.523,1.205,0.25,1.827
		c-0.146,0.337-0.482,0.751-0.799,0.815c-0.361,0.075-0.803,0.154-1.186,0.059c-0.453-0.112-0.536,0.039-0.452,0.48
		c0.088-0.147,0.158-0.268,0.254-0.429c0.429,0.955-0.054,1.765-0.214,2.599c-0.018,0.098-0.227,0.203-0.36,0.228
		c-3.157,0.585-5.927,2.032-8.556,3.806c-0.27,0.182-0.631,0.263-0.96,0.311c-1.194,0.176-2.188-0.199-3.202-0.892
		c-2.306-1.573-4.83-2.71-7.603-3.233c-0.208-0.039-0.375-0.291-0.562-0.445C15.273,34.553,15.281,34.497,15.288,34.441z
		 M37.833,25.414c-1.264,0.17-2.408,0.284-3.537,0.484c-2.384,0.424-4.661,1.15-6.714,2.48c-0.301,0.195-0.451,0.406-0.448,0.801
		c0.022,2.784,0.011,5.568,0.013,8.354c0,0.143,0.019,0.286,0.031,0.459c0.107-0.053,0.162-0.071,0.207-0.102
		c2.491-1.66,5.13-2.99,8.074-3.645c0.09-0.02,0.229-0.046,0.253-0.106c0.226-0.551,0.491-1.096,0.627-1.67
		c0.183-0.772,0.249-1.569,0.397-2.351c0.024-0.134,0.202-0.238,0.432-0.49c0.058,0.58,0.098,0.979,0.147,1.492
		c0.366-0.938,0.212-1.399-0.453-1.611C37.175,28.189,37.488,26.869,37.833,25.414z M24.818,38.048c0-2.991-0.013-5.87,0.012-8.749
		c0.005-0.475-0.154-0.738-0.542-0.984c-2.031-1.289-4.272-1.998-6.615-2.415c-1.143-0.203-2.302-0.317-3.543-0.483
		c0.3,1.266,0.552,2.387,0.848,3.497c0.032,0.121,0.321,0.265,0.475,0.248c1.01-0.108,2.013-0.289,3.024-0.386
		c0.87-0.084,1.773-0.238,2.614-0.09c1.245,0.217,1.96,1.428,1.849,2.752c-0.104,1.252-1.1,2.18-2.466,2.336
		c-1.221,0.14-2.438,0.308-3.658,0.463C19.694,35.009,22.277,36.345,24.818,38.048z M26.3,38.342c0-3.258,0-6.459,0-9.67
		c-0.235,0-0.435,0-0.624,0c0,3.25,0,6.453,0,9.67C25.892,38.342,26.066,38.342,26.3,38.342z M38.415,29.854
		c-0.298,0.393-0.517,0.68-0.735,0.967c0.32,0.11,0.643,0.221,1.055,0.363c0-0.488,0.047-0.789-0.016-1.065
		c-0.043-0.188-0.206-0.435-0.369-0.487c-0.16-0.051-0.389,0.109-0.588,0.178c0.019,0.033,0.037,0.068,0.055,0.102
		C38.032,29.89,38.248,29.869,38.415,29.854z"/>
	<path fill-rule="evenodd" clip-rule="evenodd" fill="#FFFFFF" d="M24.855,12.476c-0.009,2.721-2.174,4.863-4.904,4.853
		c-2.708-0.01-4.905-2.209-4.888-4.891c0.016-2.673,2.255-4.892,4.925-4.881C22.674,7.568,24.864,9.781,24.855,12.476z"/>
	<path fill-rule="evenodd" clip-rule="evenodd" fill="#FFFFFF" d="M33.988,18.32c-0.006,1.951-1.615,3.548-3.563,3.537
		c-1.951-0.01-3.541-1.598-3.561-3.555c-0.02-1.965,1.605-3.592,3.58-3.587C32.436,14.721,33.995,16.309,33.988,18.32z"/>
	<path fill-rule="evenodd" clip-rule="evenodd" fill="#FFFFFF" d="M26.3,38.342c-0.233,0-0.408,0-0.624,0c0-3.217,0-6.42,0-9.67
		c0.189,0,0.389,0,0.624,0C26.3,31.883,26.3,35.084,26.3,38.342z"/>
	<path fill-rule="evenodd" clip-rule="evenodd" fill="#FFFFFF" d="M38.415,29.854c-0.167,0.016-0.383,0.036-0.599,0.057
		c-0.018-0.033-0.036-0.068-0.055-0.102c0.199-0.068,0.428-0.229,0.588-0.178c0.163,0.053,0.326,0.299,0.369,0.487
		c0.063,0.276,0.016,0.577,0.016,1.065C38.322,31.041,38,30.931,37.68,30.82C37.898,30.533,38.117,30.246,38.415,29.854z"/>
</g>
</svg>
