<?xml version="1.0" encoding="utf-8"?>
<!-- Generator: Adobe Illustrator 16.0.0, SVG Export Plug-In . SVG Version: 6.00 Build 0)  -->
<!DOCTYPE svg PUBLIC "-//W3C//DTD SVG 1.1//EN" "http://www.w3.org/Graphics/SVG/1.1/DTD/svg11.dtd">
<svg version="1.1" id="Layer_1" xmlns="http://www.w3.org/2000/svg" xmlns:xlink="http://www.w3.org/1999/xlink" x="0px" y="0px"
	 width="48px" height="48px" viewBox="0 0 48 48" enable-background="new 0 0 48 48" xml:space="preserve">
<g>
	<path fill="#424242" d="M1,42.75c0,1.657,1.343,3,3,3h39.834c1.657,0,3-1.343,3-3V5.303c0-1.657-1.343-3-3-3H4
		c-1.657,0-3,1.343-3,3V42.75z"/>
</g>
<g>
	<path fill="#FFFFFF" d="M35.35,12.418c-2.465-8.047-5.939,1.929-13.312,4.179c-7.367,2.25-15.831-4.064-13.367,3.972
		c2.462,8.046,12.667,20.077,20.034,17.821C36.071,36.123,37.805,20.458,35.35,12.418z M19.531,25.963
		c-1.836,1.572-5.309,0.175-5.309,0.175c-0.736-0.844,5.108-6.511,6.708-5.817C20.931,20.32,21.365,24.391,19.531,25.963z
		 M29.399,31.133c-0.883-0.121-1.659,0.023-2.478,0.336c-0.871,0.348-1.645,0.77-2.292,1.38c-0.655,0.608-1.199,1.465-1.578,2.626
		c-0.67-1.052-0.647-2.51-0.037-3.742c0.625-1.238,1.788-2.123,2.985-2.589c1.246-0.524,2.844-0.528,4.068,0.138
		c1.213,0.651,2.033,1.754,2.245,2.978C31.258,31.653,30.287,31.244,29.399,31.133z M29.311,22.597
		c-2.408-0.187-3.873-3.632-3.873-3.632c0.074-1.116,8.214-0.994,8.856,0.628C34.292,19.595,31.721,22.781,29.311,22.597z"/>
</g>
</svg>
