<?xml version="1.0" encoding="utf-8"?>
<!-- Generator: Adobe Illustrator 16.0.0, SVG Export Plug-In . SVG Version: 6.00 Build 0)  -->
<!DOCTYPE svg PUBLIC "-//W3C//DTD SVG 1.1//EN" "http://www.w3.org/Graphics/SVG/1.1/DTD/svg11.dtd">
<svg version="1.1" id="Layer_1" xmlns="http://www.w3.org/2000/svg" xmlns:xlink="http://www.w3.org/1999/xlink" x="0px" y="0px"
	 width="48px" height="48px" viewBox="0 0 48 48" enable-background="new 0 0 48 48" xml:space="preserve">
<g>
	<path fill="#A4BAED" d="M1,42.75c0,1.657,1.343,3,3,3h39.834c1.657,0,3-1.343,3-3V5.303c0-1.657-1.343-3-3-3H4
		c-1.657,0-3,1.343-3,3V42.75z"/>
</g>
<g>
	<path fill="#FFFFFF" d="M32.953,35.49c-6.451-0.625-2.648-11.718-1.308-10.77c2.791,1.376,2.648-1.937,7.153,2.209
		c1.818-5.314,0.811-9.568-1.362-8.161c-2.7,1.931-5.112,2.905-4.649,1.434c5.089-13.684-17.431-17.576-19.159-2.364
		c-0.992,1.888-4.395-1.949-5.723-1.82c-1.768,0.466-2.124,3.135-1.197,7.79c3.734-3.599,3.527-1.196,6.485-1.625
		c0.797,12.166,6.486,18.667,19.89,16.234c2.614-0.58,4.758,0.168,6.666,1.579C39.551,37.538,37.3,36.039,32.953,35.49z
		 M18.12,13.26l4.137,4.075C19.466,18.733,16.497,16.223,18.12,13.26z M27.716,21.927L27.716,21.927
		c-0.3,0.8-0.829,1.614-1.591,2.441l-0.588-0.932l-1.378,1.533l-0.926-1.636l-1.406,1.793L21.3,22.984l-1.363,1.39l-0.504-2.577
		l-1.465,1.264l-0.1-2.273l-0.648,0.481c-0.078-0.415-0.135-1.166-0.171-2.252c0.836,1.618,2.304,2.751,4.404,3.4
		c0.298,0.072,0.65,0.13,1.06,0.173C24.369,22.789,26.104,22.567,27.716,21.927L27.716,21.927L27.716,21.927z M25.456,17.798
		l5.364-2.223C31.213,18.93,27.517,20.142,25.456,17.798z"/>
</g>
</svg>
