<?xml version="1.0" encoding="utf-8"?>
<!-- Generator: Adobe Illustrator 16.0.0, SVG Export Plug-In . SVG Version: 6.00 Build 0)  -->
<!DOCTYPE svg PUBLIC "-//W3C//DTD SVG 1.1//EN" "http://www.w3.org/Graphics/SVG/1.1/DTD/svg11.dtd">
<svg version="1.1" id="Layer_1" xmlns="http://www.w3.org/2000/svg" xmlns:xlink="http://www.w3.org/1999/xlink" x="0px" y="0px"
	 width="48px" height="48px" viewBox="0 0 48 48" enable-background="new 0 0 48 48" xml:space="preserve">
<g>
	<path fill="#3F529F" d="M1,42.75c0,1.657,1.343,3,3,3h39.834c1.657,0,3-1.343,3-3V5.303c0-1.657-1.343-3-3-3H4
		c-1.657,0-3,1.343-3,3V42.75z"/>
</g>
<g>
	<path fill="#FFFFFF" d="M24.883,10.989H11.81c-0.403,0-0.73,0.327-0.73,0.73v13.073c0,0.403,0.327,0.731,0.73,0.731h13.073
		c0.403,0,0.73-0.328,0.73-0.731V11.72C25.613,11.316,25.286,10.989,24.883,10.989z M14.766,16.645c0-0.716,0.583-1.299,1.298-1.299
		s1.298,0.583,1.298,1.299c0,0.715-0.583,1.298-1.298,1.298S14.766,17.361,14.766,16.645z M22.18,24.062h-3.103v-2.078
		c0-0.414,0.162-0.805,0.455-1.098c0.292-0.293,0.682-0.454,1.096-0.454c0.856,0,1.552,0.696,1.552,1.552V24.062L22.18,24.062z
		 M20.628,18.971c-0.716,0-1.298-0.583-1.298-1.297c0-0.716,0.583-1.298,1.298-1.298s1.298,0.582,1.298,1.298
		C21.927,18.388,21.344,18.971,20.628,18.971z M16.064,19.404c0.856,0,1.552,0.695,1.552,1.552v3.106h-3.104v-3.106
		C14.513,20.099,15.209,19.404,16.064,19.404z M24.152,24.062h-0.512v-2.078c0-0.936-0.429-1.773-1.1-2.326
		c0.521-0.502,0.846-1.206,0.846-1.984c0-1.521-1.237-2.759-2.758-2.759c-0.767,0-1.46,0.314-1.96,0.82
		c-0.377-1.075-1.402-1.848-2.604-1.848c-1.521,0-2.759,1.237-2.759,2.759c0,0.779,0.326,1.482,0.846,1.984
		c-0.671,0.553-1.1,1.391-1.1,2.326v3.106h-0.512V12.45h11.612V24.062L24.152,24.062z"/>
	<path fill="#FFFFFF" d="M37.982,17.555h-4.774v-2.881c0-0.403-0.327-0.73-0.73-0.73h-4.583V9.361c0-0.404-0.327-0.73-0.729-0.73
		H9.528c-0.404,0-0.73,0.327-0.73,0.73v20.594c0,0.402,0.327,0.73,0.73,0.73h4.582v4.582c0,0.404,0.327,0.73,0.73,0.73h4.774v2.881
		c0,0.404,0.327,0.73,0.73,0.73h17.637c0.403,0,0.73-0.326,0.73-0.73V18.285C38.713,17.881,38.386,17.555,37.982,17.555z
		 M31.747,15.403v2.151h-3.853v-2.151H31.747z M23.358,30.686h3.807c0.018,0,0.036-0.002,0.054-0.004l1.429,1.43
		c0.138,0.137,0.323,0.213,0.517,0.213s0.379-0.076,0.517-0.213l3.765-3.768c0.642-0.641,0.994-1.492,0.994-2.398
		s-0.353-1.758-0.994-2.399c-0.641-0.642-1.492-0.994-2.398-0.994c-0.681,0-1.331,0.199-1.884,0.569
		c-0.384-0.255-0.816-0.429-1.269-0.513v-1.235h7.075v11.613H23.358V30.686L23.358,30.686z M27.895,24.113
		c0.281,0.094,0.54,0.253,0.753,0.466c0.285,0.286,0.748,0.286,1.033,0c0.364-0.365,0.851-0.565,1.366-0.565
		c0.517,0,1.002,0.201,1.366,0.565c0.365,0.365,0.566,0.851,0.566,1.367s-0.201,1.002-0.566,1.367l-3.249,3.248l-1.27-1.268V24.113
		L27.895,24.113z M10.259,10.091h16.176v19.133H10.259V10.091z M15.571,34.537v-3.852h4.044v3.852H15.571z M37.252,38.148H21.076
		v-7.463h0.822v3.031c0,0.402,0.327,0.73,0.73,0.73H35.7c0.404,0,0.73-0.328,0.73-0.73V20.644c0-0.403-0.326-0.73-0.73-0.73h-7.806
		v-0.898h9.357V38.148L37.252,38.148z"/>
</g>
</svg>
