<?xml version="1.0" encoding="utf-8"?>
<!-- Generator: Adobe Illustrator 16.0.0, SVG Export Plug-In . SVG Version: 6.00 Build 0)  -->
<!DOCTYPE svg PUBLIC "-//W3C//DTD SVG 1.1//EN" "http://www.w3.org/Graphics/SVG/1.1/DTD/svg11.dtd">
<svg version="1.1" id="Layer_1" xmlns="http://www.w3.org/2000/svg" xmlns:xlink="http://www.w3.org/1999/xlink" x="0px" y="0px"
	 width="48px" height="48px" viewBox="0 0 48 48" enable-background="new 0 0 48 48" xml:space="preserve">
<g>
	<path fill="#D25415" d="M1,42.75c0,1.657,1.343,3,3,3h39.834c1.657,0,3-1.343,3-3V5.303c0-1.657-1.343-3-3-3H4
		c-1.657,0-3,1.343-3,3V42.75z"/>
</g>
<g>
	<g>
		<path fill="#FFFFFF" d="M31.656,33.56c0.003-0.077-0.011-0.154-0.063-0.233c-1.014-1.526-2.784-2.656-4.209-3.782
			c-1.413-1.118-2.817-2.266-4.29-3.307c0.005-0.053,0.005-0.105-0.004-0.158c-0.386-2.02-3.773-0.896-4.876-0.415
			c-2.489,1.078-4.715,2.636-6.805,4.351c-0.263,0.215-0.077,0.561,0.189,0.635c1.748,1.35,3.513,2.672,5.243,4.044
			c1.691,1.342,3.361,3.096,5.306,4.054c0.167,0.083,0.332,0.081,0.471,0.027c0.142,0.223,0.471,0.313,0.628,0.008
			c1.476-2.866,4.896-4.047,7.976-4.113C31.854,34.655,31.999,33.899,31.656,33.56z"/>
		<path fill="#FFFFFF" d="M43.711,26.441c-0.139-0.522-0.636-0.777-1.067-1.051c-0.943-0.605-1.834-1.25-2.761-1.882
			c-2.311-1.581-4.116-3.809-6.547-5.216c-0.739-1.535-3.932,0.242-4.727,0.875c-1.687,1.339-4.007,4.054-3.715,6.397
			c0,0.01,0.005,0.018,0.008,0.027c-0.062,0.061-0.092,0.159-0.035,0.233c1.075,1.444,2.644,2.527,4.071,3.715
			c0.876,0.73,1.75,1.459,2.658,2.148c0.576,0.44,1.383,1.331,2.188,1.153c0.006-0.001,0.011-0.005,0.019-0.005
			c0.191,0.239,0.584,0.313,0.753-0.034c0.806-1.638,2.168-2.842,3.685-3.816c0.832-0.538,1.726-0.939,2.685-1.178
			c0.689-0.171,1.336,0.188,1.978-0.017c0.214-0.068,0.409-0.319,0.315-0.556c-0.013-0.028-0.027-0.049-0.041-0.076
			c0.146-0.015,0.262-0.064,0.396-0.197C43.711,26.827,43.762,26.626,43.711,26.441z"/>
		<path fill="#FFFFFF" d="M45.521,29.665c-0.642-0.621-1.292-1.3-2.099-1.703c-0.711-0.355-1.336,0.696-0.625,1.068
			c0.426,0.223,0.795,0.539,1.144,0.876c-2.332,0.992-4.72,1.917-6.9,3.194c-0.835,0.487-1.673,0.978-2.29,1.733
			c-0.835,1.026-0.787,2.584-2.688,2.117c-2.055-0.504-2.829-0.127-4.453,1.25c-1.976,1.678-4.233,2.977-6.031,4.849
			c-2.276-2.044-4.937-3.537-7.309-5.464c-1.721-1.396-1.596-3.538-2.606-5.361c-0.199-0.359-0.743-0.11-0.649,0.273
			c0.461,1.876,0.348,3.767,1.625,5.309c0.915,1.105,2.308,1.891,3.472,2.691c1.762,1.215,3.498,2.439,5.039,3.93
			c0.245,0.235,0.689,0.271,0.929,0c1.741-1.988,4.03-3.324,6.07-4.97c0.981-0.794,1.743-1.791,3.09-1.387
			c1.028,0.308,1.679,0.385,2.707,0.033c0.54-0.188,0.89-0.65,1.182-1.107c0.197-0.313,0.318-0.7,0.473-1.034
			c0.383-0.836,1.354-1.281,2.106-1.723c2.437-1.428,5.132-2.35,7.684-3.557C45.768,30.506,45.803,29.938,45.521,29.665z"/>
		<path fill="#FFFFFF" d="M37.998,37.133"/>
		<g>
			<g>
				<path fill="#FFFFFF" d="M7.763,12.611h3.1l0.408,1.396h3.115l-3.55-9.75H7.9l-3.591,9.75h3.018L7.763,12.611z M9.361,7.521
					h0.027l0.875,3.001H8.42L9.361,7.521z"/>
				<path fill="#FFFFFF" d="M16.92,18.914h5.531c0.427,0,0.845-0.064,1.256-0.194c0.412-0.127,0.773-0.313,1.09-0.559
					c0.32-0.246,0.576-0.556,0.77-0.921c0.197-0.368,0.3-0.801,0.3-1.292c0-0.354-0.048-0.67-0.145-0.942
					c-0.098-0.274-0.223-0.507-0.378-0.704c-0.157-0.194-0.332-0.355-0.538-0.482c-0.208-0.127-0.418-0.231-0.636-0.302
					c0.363-0.199,0.656-0.446,0.874-0.739c0.221-0.292,0.33-0.681,0.33-1.173c0-0.245-0.039-0.511-0.126-0.796
					c-0.08-0.29-0.235-0.554-0.471-0.802c-0.229-0.243-0.549-0.446-0.954-0.607c-0.406-0.16-0.929-0.24-1.563-0.24H16.92V18.914z
					 M19.926,11.48h1.583c0.309,0,0.563,0.05,0.748,0.153c0.185,0.101,0.28,0.274,0.28,0.516c0,0.321-0.093,0.536-0.274,0.642
					c-0.184,0.11-0.432,0.164-0.753,0.164h-1.583V11.48z M19.926,14.773h1.884c0.7,0,1.052,0.299,1.052,0.888
					c0,0.193-0.033,0.351-0.098,0.469c-0.064,0.114-0.151,0.209-0.259,0.279c-0.105,0.069-0.233,0.116-0.374,0.143
					c-0.143,0.025-0.293,0.039-0.449,0.039h-1.759v-1.817H19.926z"/>
				<path fill="#FFFFFF" d="M5.382,26.47c0.425,0.454,0.939,0.813,1.549,1.077c0.609,0.266,1.312,0.398,2.102,0.398
					c0.712,0,1.348-0.117,1.9-0.355c0.554-0.236,1.022-0.549,1.398-0.938c0.377-0.384,0.662-0.821,0.859-1.302
					c0.195-0.483,0.293-0.969,0.293-1.462h-2.945c-0.045,0.229-0.106,0.442-0.186,0.642c-0.076,0.2-0.176,0.374-0.298,0.519
					c-0.126,0.146-0.273,0.258-0.452,0.342c-0.174,0.083-0.393,0.122-0.647,0.122c-0.356,0-0.651-0.078-0.889-0.232
					C7.83,25.126,7.639,24.922,7.5,24.667c-0.141-0.254-0.243-0.542-0.306-0.861c-0.066-0.317-0.097-0.641-0.097-0.971
					s0.03-0.648,0.097-0.966c0.063-0.318,0.164-0.607,0.306-0.861c0.142-0.255,0.329-0.458,0.566-0.616
					c0.235-0.156,0.532-0.234,0.889-0.234c0.309,0,0.56,0.062,0.759,0.178c0.193,0.12,0.352,0.255,0.468,0.412
					c0.119,0.155,0.202,0.312,0.246,0.47c0.047,0.16,0.079,0.285,0.097,0.376h2.922c-0.13-1.229-0.559-2.18-1.287-2.847
					c-0.736-0.667-1.775-1.009-3.127-1.016c-0.754,0-1.436,0.119-2.041,0.371c-0.604,0.242-1.122,0.588-1.556,1.036
					c-0.431,0.446-0.764,0.983-0.996,1.613c-0.232,0.627-0.348,1.324-0.348,2.086c0,0.719,0.11,1.395,0.327,2.016
					C4.639,25.475,4.959,26.016,5.382,26.47z"/>
			</g>
		</g>
	</g>
</g>
</svg>
