<?xml version="1.0" encoding="utf-8"?>
<!-- Generator: Adobe Illustrator 16.0.0, SVG Export Plug-In . SVG Version: 6.00 Build 0)  -->
<!DOCTYPE svg PUBLIC "-//W3C//DTD SVG 1.1//EN" "http://www.w3.org/Graphics/SVG/1.1/DTD/svg11.dtd">
<svg version="1.1" id="Layer_1" xmlns="http://www.w3.org/2000/svg" xmlns:xlink="http://www.w3.org/1999/xlink" x="0px" y="0px"
	 width="48px" height="48px" viewBox="0 0 48 48" enable-background="new 0 0 48 48" xml:space="preserve">
<g>
	<path fill="#7F4996" d="M1,42.75c0,1.657,1.343,3,3,3h39.834c1.657,0,3-1.343,3-3V5.303c0-1.657-1.343-3-3-3H4
		c-1.657,0-3,1.343-3,3V42.75z"/>
</g>
<g>
	<g>
		<g>
			<path fill="#FFFFFF" d="M38.953,18.646c0,0.038-0.006,0.065-0.016,0.084c-0.027,0.093-0.066,0.196-0.117,0.308
				c-0.053,0.112-0.105,0.266-0.162,0.461l-0.195,0.028c-0.252,0.065-0.488,0.153-0.713,0.265c-0.111,0.056-0.219,0.103-0.32,0.14
				c-0.104,0.037-0.215,0.112-0.336,0.224c-0.447,0.335-0.918,0.764-1.412,1.286c0.047-0.27,0.164-0.541,0.35-0.811l0.699-0.755
				h-1.049c-0.307-0.009-0.498-0.107-0.572-0.293c-0.066-0.261-0.074-0.517-0.027-0.769c0.045-0.28,0.15-0.582,0.314-0.908
				c0.162-0.326,0.363-0.587,0.6-0.783c0.238-0.196,0.525-0.335,0.859-0.419c0.074-0.009,0.172-0.012,0.295-0.007
				c0.119,0.005,0.238,0.04,0.355,0.104c0.117,0.065,0.193,0.182,0.23,0.35c0.02,0.363-0.088,0.68-0.322,0.95
				c-0.4-0.447-0.889-0.489-1.467-0.125c-0.148,0.103-0.275,0.261-0.377,0.475c0.428,0.317,1.039,0.442,1.83,0.377l1.342-0.154
				h0.057l0.084-0.028H38.953z M38.211,32.482c0.037,1.006,0.037,1.813,0,2.418c-0.084,0.932-0.207,1.646-0.369,2.145
				c-0.164,0.499-0.316,0.916-0.461,1.252c-0.145,0.335-0.311,0.684-0.496,1.047l-1.342-13.988c-0.01-0.233,0.441-1.701,1.355-4.403
				l0.182-0.433l0.363,2.725l0.447,4.109l0.041,0.671l0.141,2.181l0.07,1.341L38.211,32.482z"/>
		</g>
		<g>
			<path fill="#FFFFFF" d="M19.68,17.074c-1.062,0.019-1.879-0.121-2.453-0.419c-0.573-0.298-0.999-0.673-1.279-1.125
				c-0.279-0.452-0.419-0.869-0.419-1.25c-0.112-1.137,0.091-2.399,0.608-3.788s1.06-2.236,1.628-2.543
				c-0.251,0.829-0.48,1.677-0.685,2.543c-0.308,1.407-0.219,2.39,0.266,2.949c0.484,0.559,1.267,0.839,2.348,0.839h11.599
				c-0.121-1.249-0.703-2.492-1.746-3.731l1.076-3.41c0.633,0.922,1.127,1.714,1.48,2.376s0.613,1.325,0.775,1.991
				c0.164,0.667,0.232,1.232,0.211,1.698c-0.023,0.466-0.15,1.039-0.379,1.719c-0.229,0.68-0.43,1.209-0.607,1.586
				s-0.662,0.566-1.453,0.566H19.68z M24.167,22.021c-0.914-0.271-1.659-0.862-2.236-1.775l2.025-1.775
				c0.568,0.634,1.281,1.225,2.138,1.775L24.167,22.021z"/>
		</g>
		<g>
			<path fill="#FFFFFF" d="M10.088,39.289c-1.062,0.02-1.879-0.121-2.453-0.418c-0.573-0.299-0.999-0.674-1.279-1.126
				c-0.279-0.452-0.419-0.868-0.419-1.251c-0.112-1.137,0.091-2.398,0.608-3.787s1.06-2.236,1.628-2.543
				c-0.251,0.828-0.48,1.677-0.685,2.543c-0.308,1.407-0.219,2.39,0.266,2.949c0.484,0.559,1.267,0.838,2.348,0.838h11.6
				c-0.121-1.248-0.704-2.492-1.747-3.73l1.076-3.41c0.634,0.922,1.127,1.714,1.481,2.375c0.354,0.662,0.613,1.326,0.776,1.992
				c0.163,0.666,0.233,1.232,0.209,1.697c-0.023,0.467-0.149,1.039-0.377,1.719c-0.228,0.681-0.431,1.209-0.608,1.588
				c-0.177,0.377-0.662,0.564-1.453,0.564H10.088z M18.18,24.657l-1.607,2.054c-0.783-0.251-1.654-0.764-2.613-1.537l-1.286,1.468
				c-0.969-0.392-1.831-0.908-2.585-1.552l1.831-2.11c0.754,0.643,1.537,1.188,2.348,1.635l1.481-1.537
				C16.606,23.805,17.417,24.331,18.18,24.657z"/>
		</g>
	</g>
</g>
</svg>
