<?xml version="1.0" encoding="utf-8"?>
<!-- Generator: Adobe Illustrator 16.0.0, SVG Export Plug-In . SVG Version: 6.00 Build 0)  -->
<!DOCTYPE svg PUBLIC "-//W3C//DTD SVG 1.1//EN" "http://www.w3.org/Graphics/SVG/1.1/DTD/svg11.dtd">
<svg version="1.1" id="Layer_1" xmlns="http://www.w3.org/2000/svg" xmlns:xlink="http://www.w3.org/1999/xlink" x="0px" y="0px"
	 width="48px" height="48px" viewBox="0 0 48 48" enable-background="new 0 0 48 48" xml:space="preserve">
<g>
	<path fill="#1B5EA8" d="M1,42.75c0,1.657,1.343,3,3,3h39.834c1.657,0,3-1.343,3-3V5.303c0-1.657-1.343-3-3-3H4
		c-1.657,0-3,1.343-3,3V42.75z"/>
</g>
<g>
	<path fill="#FFFFFF" d="M22.599,16.453h2.803c0.258,0,0.467-0.209,0.467-0.467c0-0.259-0.209-0.467-0.467-0.467h-2.803
		c-0.258,0-0.467,0.208-0.467,0.467C22.132,16.244,22.341,16.453,22.599,16.453z"/>
	<path fill="#FFFFFF" d="M29.605,22.992h-2.803c-0.258,0-0.467,0.209-0.467,0.468s0.209,0.467,0.467,0.467h2.803
		c0.259,0,0.468-0.208,0.468-0.467S29.864,22.992,29.605,22.992z"/>
	<path fill="#FFFFFF" d="M18.395,20.189h2.335c0.259,0,0.467-0.208,0.467-0.467s-0.208-0.467-0.467-0.467h-2.335
		c-0.258,0-0.467,0.208-0.467,0.467S18.137,20.189,18.395,20.189z"/>
	<path fill="#FFFFFF" d="M24,19.723c0,0.259,0.209,0.467,0.468,0.467h3.271c0.258,0,0.467-0.208,0.467-0.467
		s-0.209-0.467-0.467-0.467h-3.271C24.209,19.256,24,19.464,24,19.723z"/>
	<path fill="#FFFFFF" d="M22.599,20.189c0.126,0,0.243-0.051,0.332-0.136c0.084-0.088,0.136-0.21,0.136-0.331
		c0-0.122-0.051-0.243-0.136-0.332c-0.177-0.173-0.485-0.173-0.663,0c-0.084,0.089-0.136,0.21-0.136,0.332
		c0,0.121,0.051,0.243,0.136,0.331C22.356,20.138,22.478,20.189,22.599,20.189z"/>
	<path fill="#FFFFFF" d="M24.935,22.992h-4.671c-0.258,0-0.467,0.209-0.467,0.468s0.208,0.467,0.467,0.467h4.671
		c0.259,0,0.468-0.208,0.468-0.467S25.193,22.992,24.935,22.992z"/>
	<path fill="#FFFFFF" d="M18.395,23.927c0.126,0,0.243-0.052,0.332-0.136c0.084-0.089,0.135-0.21,0.135-0.331
		c0-0.122-0.051-0.244-0.135-0.332c-0.178-0.173-0.496-0.173-0.663,0c-0.085,0.088-0.136,0.21-0.136,0.332
		c0,0.121,0.047,0.242,0.136,0.331C18.147,23.875,18.269,23.927,18.395,23.927z"/>
	<path fill="#FFFFFF" d="M29.605,20.189c0.122,0,0.244-0.051,0.332-0.136c0.084-0.088,0.136-0.21,0.136-0.331
		c0-0.122-0.052-0.243-0.136-0.332c-0.178-0.173-0.485-0.173-0.663,0c-0.085,0.089-0.136,0.205-0.136,0.332
		c0,0.126,0.051,0.243,0.136,0.331C29.363,20.138,29.48,20.189,29.605,20.189z"/>
	<polygon fill="#FFFFFF" points="9.986,21.841 9.986,36.382 19.495,29.067 	"/>
	<polygon fill="#FFFFFF" points="20.422,29.532 10.706,37.007 37.295,37.007 27.578,29.532 	"/>
	<path fill="#FFFFFF" d="M13.678,23.461l6.422,5.138h7.802l6.421-5.138l3.268-2.47l-2.378-2.213v-5.595h-6.01l-4.015-3.737
		c-0.646-0.602-1.727-0.603-2.375,0l-4.013,3.737h-6.01v5.595l-2.378,2.213L13.678,23.461z M13.724,14.117h4.072h12.41h4.072v3.792
		v4.393l-6.703,5.362h-7.147l-6.704-5.362v-4.393V14.117z"/>
	<polygon fill="#FFFFFF" points="28.507,29.067 38.015,36.382 38.015,21.841 	"/>
</g>
</svg>
