<?xml version="1.0" encoding="utf-8"?>
<!-- Generator: Adobe Illustrator 22.1.0, SVG Export Plug-In . SVG Version: 6.00 Build 0)  -->
<svg version="1.1" id="Layer_1" xmlns="http://www.w3.org/2000/svg" xmlns:xlink="http://www.w3.org/1999/xlink" x="0px" y="0px"
	 viewBox="0 0 477.5 73.7" style="enable-background:new 0 0 477.5 73.7;" xml:space="preserve">
<style type="text/css">
	.st0{clip-path:url(#SVGID_2_);fill:#FFFFFF;}
	.st1{clip-path:url(#SVGID_4_);fill:none;stroke:#C3E4FF;stroke-width:2;stroke-miterlimit:10;}
</style>
<g>
	<g>
		<g>
			<g>
				<g>
					<g>
						<g>
							<g>
								<g>
									<defs>
										<rect id="SVGID_1_" width="477.5" height="73.7"/>
									</defs>
									<clipPath id="SVGID_2_">
										<use xlink:href="#SVGID_1_"  style="overflow:visible;"/>
									</clipPath>
									<path class="st0" d="M445.4,67.7H34.3C17.9,67.7,4.6,54.3,4.6,38v-3.6C4.6,18,18,4.7,34.3,4.7h411.1
										c16.4,0,29.7,13.4,29.7,29.7V38C475.2,54.4,461.8,67.7,445.4,67.7"/>
								</g>
							</g>
						</g>
					</g>
				</g>
				<g>
					<g>
						<g>
							<g>
								<g>
									<defs>
										<rect id="SVGID_3_" width="477.5" height="73.7"/>
									</defs>
									<clipPath id="SVGID_4_">
										<use xlink:href="#SVGID_3_"  style="overflow:visible;"/>
									</clipPath>
									<path class="st1" d="M445.4,67.7H34.3C17.9,67.7,4.6,54.3,4.6,38v-3.6C4.6,18,18,4.7,34.3,4.7h411.1
										c16.4,0,29.7,13.4,29.7,29.7V38C475.2,54.4,461.8,67.7,445.4,67.7z"/>
								</g>
							</g>
						</g>
					</g>
				</g>
			</g>
		</g>
	</g>
</g>
</svg>
