<?xml version="1.0" encoding="utf-8"?>
<!-- Generator: Adobe Illustrator 21.0.0, SVG Export Plug-In . SVG Version: 6.00 Build 0)  -->
<svg version="1.1" id="Layer_1" xmlns="http://www.w3.org/2000/svg" xmlns:xlink="http://www.w3.org/1999/xlink" x="0px" y="0px"
	 viewBox="0 0 86.7 81.8" style="enable-background:new 0 0 86.7 81.8;" xml:space="preserve">
<style type="text/css">
	.st0{fill:none;}
	.st1{fill:#6FB858;}
	.st2{fill:#FEFEFE;}
</style>
<g id="Layer_x0020_1">
	<path class="st0" d="M38.3,0.3c-40.1,13.1-38,49.6-38,49.6v31.7h76V49.9c0,0,0.2-2.9-0.5-7.2c-1.8,0.7-3.8,1-5.8,1
		c-9.4,0-17-7.6-17-17c0-5.7,2.9-10.8,7.2-13.9C54.9,7.8,47.7,3.4,38.3,0.3z"/>
	<path class="st1" d="M38.3,1.8c8.3,2.8,15.3,6.7,20.8,11.8c0.4-0.3,0.7-0.6,1.1-0.9C54.9,7.8,47.7,3.4,38.3,0.3l0,0
		c-40.1,13.1-38,49.6-38,49.6v31.7h76V49.9c0,0,0.2-2.9-0.5-7.2c-0.4,0.2-0.9,0.3-1.4,0.4c0.6,4,0.4,6.7,0.4,6.7l0,0v0v30.2H1.7
		V49.9v0l0,0c0-0.1-0.4-8.9,3.9-19.3C11.3,16.7,22.3,7.1,38.3,1.8z"/>
	<path class="st1" d="M38.3,1.5c4.2,1.4,8,3.1,11.5,5c3.4,1.9,6.5,4.2,9.3,6.7c0.1-0.1,0.3-0.2,0.4-0.3c0.1-0.1,0.2-0.2,0.3-0.2
		C57.2,10.3,54.2,8,50.7,6C47.1,3.9,43,2.1,38.3,0.5C-1.5,13.6,0.5,49.8,0.5,49.9l0,0v31.4H76V49.9l0,0c0,0,0.2-2.7-0.4-6.9
		c-0.1,0-0.3,0.1-0.4,0.1c-0.2,0.1-0.3,0.1-0.5,0.1c0.5,3.8,0.4,6.4,0.4,6.5h0v0l0,0l0,0v0v30.2v0.3h-0.3H1.7H1.4v-0.3V49.9v0h0l0,0
		h0c0-0.1-0.2-4,0.9-9.7c0.6-2.9,1.5-6.2,2.9-9.7c2.9-6.9,7.1-12.8,12.6-17.6c5.5-4.8,12.3-8.6,20.3-11.3H38.3L38.3,1.5z M49.6,7
		C46.1,5,42.4,3.4,38.3,2c-7.9,2.6-14.6,6.4-20,11.1c-5.4,4.8-9.6,10.6-12.5,17.5c-1.4,3.5-2.3,6.7-2.9,9.6
		c-1.1,5.6-0.9,9.5-0.9,9.6v0l0,0l0,0v0v30h72.7v-30v0l0,0l0,0h0c0-0.2,0.1-2.7-0.4-6.7l0-0.2l0.2-0.1c0.2-0.1,0.5-0.1,0.7-0.2
		c0.2-0.1,0.5-0.1,0.7-0.2l0.3-0.1l0,0.3c0.6,4.2,0.5,7.1,0.5,7.3v31.7v0.3h-0.3h-76H0v-0.3V49.9h0C0,49.4-1.8,13.1,38.2,0l0.1,0
		l0.1,0c4.8,1.6,8.9,3.4,12.6,5.5c3.6,2.1,6.8,4.5,9.5,6.9l0.2,0.2l-0.3,0.2c-0.2,0.1-0.4,0.3-0.6,0.4c-0.2,0.1-0.4,0.3-0.5,0.4
		l-0.2,0.1l-0.2-0.1C56.2,11.2,53,8.9,49.6,7z"/>
	<path class="st1" d="M38.3,10.4c6.3,2.4,11.7,5.7,16,9.8c-0.8,2-1.3,4.1-1.3,6.4c0,8.1,5.7,14.9,13.2,16.6c0.6,3.5,0.5,5.8,0.5,6.2
		l0,0.2v0.3v18.8H9.8V49.9v-0.3l0-0.3c0-0.1-0.2-7.3,3.3-15.7C17.6,22.9,26,15.1,38.3,10.4z"/>
	<path class="st1" d="M17.1,67.2v4l1.2-0.1c0.9-0.1,1.9-0.1,2.8-0.1c7,0,14,2.9,16.2,4.6l0.4,0.3l0.6,0.5l0.6-0.5l0.4-0.3
		c2.2-1.7,9.1-4.6,16.2-4.6c0.9,0,1.9,0,2.8,0.1l1.1,0.1v-4H17.1z"/>
	<path class="st2" d="M55.8,55.7c-0.5,0-0.8,0.4-0.8,0.8c0,0.5,0.4,0.8,0.8,0.8h4.4c0.5,0,0.8-0.4,0.8-0.8c0-0.5-0.4-0.8-0.8-0.8
		H55.8z"/>
	<path class="st2" d="M61.1,61.3c0-0.5-0.4-0.8-0.8-0.8h-5.4c-0.5,0-0.8,0.4-0.8,0.8c0,0.5,0.4,0.8,0.8,0.8h5.4
		C60.7,62.2,61.1,61.8,61.1,61.3z"/>
	<path class="st2" d="M60.2,62.9h-4.4c-0.5,0-0.8,0.4-0.8,0.8c0,0.5,0.4,0.8,0.8,0.8h4.4c0.5,0,0.8-0.4,0.8-0.8
		C61.1,63.3,60.7,62.9,60.2,62.9z"/>
	<path class="st2" d="M61.1,59c0-0.5-0.4-0.8-0.8-0.8h-6c-0.5,0-0.8,0.4-0.8,0.8c0,0.5,0.4,0.8,0.8,0.8h6
		C60.7,59.8,61.1,59.4,61.1,59z"/>
	<path class="st2" d="M15.3,56.6c0,0.5,0.4,0.8,0.8,0.8h4.4c0.5,0,0.8-0.4,0.8-0.8c0-0.5-0.4-0.8-0.8-0.8h-4.4
		C15.7,55.7,15.3,56.1,15.3,56.6z"/>
	<path class="st2" d="M15.3,59c0,0.5,0.4,0.8,0.8,0.8h6c0.5,0,0.8-0.4,0.8-0.8c0-0.5-0.4-0.8-0.8-0.8h-6
		C15.7,58.1,15.3,58.5,15.3,59z"/>
	<path class="st2" d="M15.3,61.3c0,0.5,0.4,0.8,0.8,0.8h5.4c0.5,0,0.8-0.4,0.8-0.8c0-0.5-0.4-0.8-0.8-0.8h-5.4
		C15.7,60.5,15.3,60.9,15.3,61.3z"/>
	<path class="st2" d="M15.3,63.7c0,0.5,0.4,0.8,0.8,0.8h4.4c0.5,0,0.8-0.4,0.8-0.8c0-0.5-0.4-0.8-0.8-0.8h-4.4
		C15.7,62.9,15.3,63.3,15.3,63.7z"/>
	<path class="st2" d="M45.7,29.1l0,0.4c0,0-0.2,4,1.3,5.5c0.2-0.6,0.6-1.6,1.5-2.3c-1.1-4.7-5.2-8.2-10.3-8.2c-5,0-9.2,3.5-10.3,8.2
		c0.3,0.2,1.3,0.7,1.5,2.2c0.6-0.4,1.7-1.7,1.3-5l-0.1-1l0.8,0.6c0,0,4.6,3.6,11.1,1.4c-0.5-0.3-1.2-0.7-1.7-1.2l-0.7-0.7H45.7z"/>
	<path class="st2" d="M49.6,31.9c0-0.2,0-0.5,0-0.7c0-6.3-5.1-11.3-11.3-11.3c-6.3,0-11.3,5.1-11.3,11.3c0,0.2,0,0.5,0,0.7
		c1.5-4.8,6-8.5,11.3-8.5C43.6,23.4,48.1,27.1,49.6,31.9z"/>
	<path class="st2" d="M51,36.4c0-1.6-0.7-3-1.6-3c-0.2,0-0.5,0.1-0.7,0.3c0,0,0,0,0,0c-0.9,0.9-1,2.1-1,2.1l0,0.6l-0.6-0.3
		c-2.1-1.2-2.2-4.9-2.2-6.2h-2.6c0.7,0.5,1.4,0.8,1.4,0.8l0.8,0.4l-0.9,0.4c-5.8,2.4-10.3,0.3-12-0.7c0.3,4.5-2.3,5.2-2.4,5.2
		L28.8,36v-0.5c0-1.2-0.6-1.8-0.9-2c0,0,0,0,0,0c-0.2-0.1-0.4-0.2-0.6-0.2c-0.9,0-1.6,1.3-1.6,3c0,1.6,0.7,3,1.6,3
		c0.4,0,0.8-0.3,1.1-0.8c1.4,4.1,5.3,7.1,9.9,7.1c4.6,0,8.5-3,10-7.1c0.3,0.5,0.7,0.9,1.1,0.9C50.2,39.3,51,38,51,36.4z M36.6,37.6
		L36.6,37.6c0.3-0.7,0.9-1.2,1.7-1.2c0.8,0,1.4,0.5,1.7,1.2c0.1,0.2,0,0.4-0.2,0.5c-0.2,0.1-0.4,0-0.5-0.2c-0.1-0.4-0.5-0.7-1-0.7
		c-0.4,0-0.8,0.3-0.9,0.7c-0.1,0.2-0.2,0.3-0.4,0.3c0,0-0.1,0-0.1,0C36.6,38,36.5,37.8,36.6,37.6z M44,34.9L44,34.9
		c0,0.9-0.7,1.6-1.6,1.6c-0.9,0-1.6-0.7-1.6-1.6c0-0.9,0.7-1.6,1.6-1.6C43.3,33.3,44,34,44,34.9z M34.1,36.5L34.1,36.5
		c-0.9,0-1.6-0.7-1.6-1.6c0-0.9,0.7-1.6,1.6-1.6c0.9,0,1.6,0.7,1.6,1.6C35.6,35.8,34.9,36.5,34.1,36.5z M38.2,41.1L38.2,41.1
		c1.5,0,2.9-0.1,4-0.9c-0.8,1.4-2.3,2.3-4,2.3c-1.7,0-3.2-0.9-4-2.3C35.4,40.9,36.8,41.1,38.2,41.1z"/>
	<g id="_1530747024">
		<path class="st2" d="M54,47.7c-1.2-0.6-4.7-2.2-8.1-1.4c-0.7-0.9-0.9-1.1-0.9-1.1s-0.4-0.4-1-0.1c-0.7,0.2-0.7,0.8-0.7,0.8
			c0,2.7-2.1,4.8-4.7,5h-0.7c-2.6-0.2-4.7-2.3-4.7-5c0,0-0.1-0.6-0.7-0.8c-0.5-0.2-1,0.1-1,0.1s-0.2,0.3-0.9,1.1
			c-3.3-0.8-6.8,0.7-8.1,1.4c10.9,0,15.7,5.1,15.7,5.1S43,47.7,54,47.7z"/>
	</g>
	<path class="st2" d="M60.8,55.3c0,0-0.6-1.1-1.6-1.3v1.1h1C60.3,55.1,60.6,55.1,60.8,55.3z"/>
	<path class="st2" d="M15.6,55.3c0,0,0.6-1.1,1.6-1.3v1.1h-1C16.1,55.1,15.8,55.1,15.6,55.3z"/>
	<g id="_1530750544">
		<path class="st2" d="M55.9,55.1h2.8v-6.3c-12.3-1.8-18.5,3.4-20,4.8v21.6c2-1.6,10.4-5.8,20-4.8v-5.2h-2.8c-0.9,0-1.5-0.7-1.5-1.5
			c0-0.3,0.1-0.6,0.3-0.9c-0.7-0.1-1.3-0.7-1.3-1.5c0-0.4,0.1-0.7,0.4-1c-0.6-0.2-1-0.8-1-1.4c0-0.8,0.7-1.5,1.5-1.5h0.4
			c-0.2-0.2-0.3-0.5-0.3-0.9C54.3,55.7,55,55.1,55.9,55.1z"/>
		<path class="st2" d="M17.8,48.7v6.3h2.8c0.8,0,1.5,0.7,1.5,1.5c0,0.3-0.1,0.6-0.3,0.9h0.4c0.8,0,1.5,0.7,1.5,1.5
			c0,0.6-0.4,1.2-1,1.4c0.2,0.3,0.4,0.6,0.4,1c0,0.8-0.6,1.4-1.3,1.5c0.2,0.2,0.3,0.6,0.3,0.9c0,0.9-0.7,1.5-1.5,1.5h-2.8v5.2
			c9.6-1,18,3.2,20,4.8V53.5C36.5,52.1,30.2,47,17.8,48.7z"/>
	</g>
	<g id="_1530749136">
		<path class="st2" d="M34,45.6c0,0.1,0,0.2,0,0.3c0,2.3,1.9,4.2,4.2,4.2c2.3,0,4.2-1.9,4.2-4.2c0-0.2,0-0.1,0-0.2
			c-0.9,0.4-1.9,0.6-2.9,0.7c-0.4,0-0.9,0.1-1.3,0.1C36.8,46.4,35.3,46.1,34,45.6z"/>
	</g>
	<path class="st1" d="M69.7,11.5c-4.3,0-8.2,1.7-11,4.5c-2.8,2.8-4.5,6.7-4.5,11s1.7,8.2,4.5,11c2.8,2.8,6.7,4.5,11,4.5
		c4.3,0,8.2-1.7,11-4.5c2.8-2.8,4.5-6.7,4.5-11c0-4.3-1.7-8.2-4.5-11C77.9,13.2,74,11.5,69.7,11.5z M57.7,15c3.1-3.1,7.3-5,12-5
		c4.7,0,9,1.9,12,5c3.1,3.1,5,7.3,5,12c0,4.7-1.9,9-5,12c-3.1,3.1-7.3,5-12,5c-4.7,0-9-1.9-12-5c-3.1-3.1-5-7.3-5-12
		S54.6,18,57.7,15z"/>
</g>
</svg>
