<?xml version="1.0" encoding="utf-8"?>
<!-- Generator: Adobe Illustrator 21.0.0, SVG Export Plug-In . SVG Version: 6.00 Build 0)  -->
<svg version="1.1" id="Layer_1" xmlns="http://www.w3.org/2000/svg" xmlns:xlink="http://www.w3.org/1999/xlink" x="0px" y="0px"
	 viewBox="0 0 37.8 42" style="enable-background:new 0 0 37.8 42;" xml:space="preserve">
<style type="text/css">
	.st0{opacity:0.3;fill:#9C9C9C;enable-background:new    ;}
	.st1{fill:#FFFFFF;stroke:#ADADAD;stroke-width:0.2;stroke-miterlimit:10;}
	.st2{fill-rule:evenodd;clip-rule:evenodd;fill:#2B3D4F;}
</style>
<g>
	<ellipse class="st0" cx="18.9" cy="23.6" rx="18.5" ry="18.4"/>
	<ellipse class="st1" cx="18.9" cy="18.8" rx="18.5" ry="18.4"/>
	<path class="st2" d="M28.1,19.4c-0.4,0-0.8,0.4-0.8,0.9c0,4.7-3.9,8.6-8.6,8.6c-4.8,0-8.6-3.9-8.6-8.6c0-4.5,3.4-8.2,7.8-8.6v1.9
		c0,0.3,0.2,0.6,0.4,0.7c0.1,0.1,0.3,0.1,0.4,0.1c0.1,0,0.3-0.1,0.4-0.1l4.8-2.8c0.2-0.2,0.4-0.4,0.4-0.7c0-0.3-0.1-0.6-0.4-0.7
		l-4.8-2.8c-0.1-0.1-0.3-0.1-0.4-0.1l0,0c-0.2,0.1-0.3,0.1-0.4,0.1c-0.2,0.2-0.4,0.4-0.4,0.7v2c-5.3,0.4-9.4,4.9-9.4,10.3
		c0,5.7,4.6,10.2,10.3,10.2c5.7,0,10.3-4.6,10.3-10.2C28.9,19.7,28.6,19.4,28.1,19.4L28.1,19.4z"/>
</g>
</svg>
