<?xml version="1.0" encoding="utf-8"?>
<!-- Generator: Adobe Illustrator 21.0.0, SVG Export Plug-In . SVG Version: 6.00 Build 0)  -->
<svg version="1.1" id="Layer_1" xmlns="http://www.w3.org/2000/svg" xmlns:xlink="http://www.w3.org/1999/xlink" x="0px" y="0px"
	 viewBox="0 0 87.7 43" style="enable-background:new 0 0 87.7 43;" xml:space="preserve">
<style type="text/css">
	.st0{opacity:0.3;fill:url(#SVGID_1_);enable-background:new    ;}
	.st1{opacity:0.75;fill:#FFFFFF;enable-background:new    ;}
	.st2{opacity:0.5;fill:url(#SVGID_2_);enable-background:new    ;}
</style>
<g>
	
		<linearGradient id="SVGID_1_" gradientUnits="userSpaceOnUse" x1="43.85" y1="1.2649" x2="43.85" y2="42.5635" gradientTransform="matrix(1 0 0 -1 0 43)">
		<stop  offset="0" style="stop-color:#C2C2C2"/>
		<stop  offset="1" style="stop-color:#808080"/>
	</linearGradient>
	<path class="st0" d="M87.7,33.1c0,4.7-3.8,8.5-8.5,8.5H8.5c-4.7,0-8.5-3.8-8.5-8.5V8.5C0,3.8,3.8,0,8.5,0h70.6
		c4.7,0,8.5,3.8,8.5,8.5L87.7,33.1L87.7,33.1z"/>
	<path class="st1" d="M79.2,41.6H8.5c-4.7,0-8.5-3.8-8.5-8.5v1.4C0,39.2,3.8,43,8.5,43h70.6c4.7,0,8.5-3.8,8.5-8.5v-1.4
		C87.7,37.8,83.9,41.6,79.2,41.6z"/>
	
		<linearGradient id="SVGID_2_" gradientUnits="userSpaceOnUse" x1="43.801" y1="32.3982" x2="43.801" y2="42.8982" gradientTransform="matrix(1 0 0 -1 0 43)">
		<stop  offset="0" style="stop-color:#C2C2C2"/>
		<stop  offset="1" style="stop-color:#808080"/>
	</linearGradient>
	<path class="st2" d="M79.2,0H8.5C3.8,0,0,3.8,0,8.5v2C0,5.9,3.8,2,8.5,2h70.6c4.7,0,8.5,3.8,8.5,8.5v-2C87.7,3.8,83.9,0,79.2,0z"/>
</g>
</svg>
