<?xml version="1.0" encoding="utf-8"?>
<!-- Generator: Adobe Illustrator 21.0.0, SVG Export Plug-In . SVG Version: 6.00 Build 0)  -->
<svg version="1.1" id="Layer_1" xmlns="http://www.w3.org/2000/svg" xmlns:xlink="http://www.w3.org/1999/xlink" x="0px" y="0px"
	 viewBox="0 0 995 674" style="enable-background:new 0 0 995 674;" xml:space="preserve">
<style type="text/css">
	.st0{opacity:0.1;}
	.st1{fill:#FFFFFF;}
</style>
<g>
	<path class="st0" d="M980,674H10c-5.5,0-10-4.5-10-10V16C0,10.5,4.5,6,10,6h970c5.5,0,10,4.5,10,10v648
		C990,669.5,985.5,674,980,674z"/>
	<path class="st1" d="M985,668H15c-5.5,0-10-4.5-10-10V10C5,4.5,9.5,0,15,0h970c5.5,0,10,4.5,10,10v648C995,663.5,990.5,668,985,668
		z"/>
</g>
</svg>
