<?xml version="1.0" encoding="utf-8"?>
<!-- Generator: Adobe Illustrator 19.2.0, SVG Export Plug-In . SVG Version: 6.00 Build 0)  -->
<svg version="1.1" id="Layer_1" xmlns="http://www.w3.org/2000/svg" xmlns:xlink="http://www.w3.org/1999/xlink" x="0px" y="0px"
	 viewBox="0 0 132.9 27.8" style="enable-background:new 0 0 132.9 27.8;" xml:space="preserve">
<style type="text/css">
	.st0{fill:#1C363C;}
</style>
<g>
	<path class="st0" d="M6.4,21.5V3.6H0V0h17.1v3.6h-6.4v17.8H6.4V21.5z"/>
	<path class="st0" d="M22.1,21.5H18V5.9h3.8v2.2c0.7-1,1.2-1.7,1.8-2.1s1.1-0.5,1.8-0.5c0.9,0,1.8,0.3,2.7,0.8l-1.3,3.6
		c-0.7-0.4-1.3-0.7-1.9-0.7s-1.1,0.2-1.5,0.5s-0.7,0.9-0.9,1.7s-0.3,2.6-0.3,5.2v4.9H22.1z"/>
	<path class="st0" d="M27.9,5.9h4.4L36,17l3.6-11h4.3l-5.5,15l-1,2.7c-0.4,0.9-0.7,1.6-1,2.1s-0.7,0.9-1.1,1.2
		c-0.4,0.3-0.9,0.5-1.6,0.7S32.4,28,31.6,28c-0.8,0-1.6-0.1-2.3-0.3l-0.4-3.2c0.6,0.1,1.2,0.2,1.7,0.2c1,0,1.7-0.3,2.1-0.8
		c0.5-0.6,0.8-1.3,1.1-2.1L27.9,5.9z"/>
	<path class="st0" d="M73.2,21.5h-4.7l-1.9-4.9H58l-1.8,4.9h-4.6L60,0h4.6L73.2,21.5z M65.2,13l-3-8l-2.9,8H65.2z"/>
	<path class="st0" d="M75,22.5l4.7,0.6c0.1,0.5,0.3,0.9,0.5,1.1c0.4,0.3,1,0.4,1.8,0.4c1.1,0,1.9-0.2,2.4-0.5c0.4-0.2,0.6-0.6,0.8-1
		c0.1-0.3,0.2-1,0.2-1.9V19c-1.2,1.7-2.8,2.5-4.7,2.5c-2.1,0-3.7-0.9-5-2.7c-1-1.4-1.4-3.1-1.4-5.2c0-2.6,0.6-4.6,1.9-6
		s2.8-2.1,4.7-2.1c1.9,0,3.5,0.8,4.8,2.5V5.9h3.9v14c0,1.8-0.2,3.2-0.5,4.1s-0.7,1.6-1.3,2.1s-1.3,0.9-2.2,1.2s-2.1,0.4-3.5,0.4
		c-2.6,0-4.5-0.5-5.6-1.4s-1.7-2-1.7-3.4C75,22.9,75,22.7,75,22.5z M78.7,13.4c0,1.7,0.3,2.9,1,3.6c0.6,0.8,1.4,1.2,2.4,1.2
		s1.9-0.4,2.5-1.2c0.7-0.8,1-2,1-3.5c0-1.6-0.3-2.8-1-3.6s-1.5-1.2-2.5-1.2s-1.8,0.4-2.4,1.1C79,10.6,78.7,11.8,78.7,13.4z"/>
	<path class="st0" d="M96.8,10.7L93.1,10c0.4-1.5,1.1-2.6,2.2-3.3s2.5-1.1,4.6-1.1c1.8,0,3.2,0.2,4.1,0.7c0.9,0.4,1.5,1,1.9,1.7
		s0.5,1.9,0.5,3.7v4.8c0,1.4,0.1,2.4,0.2,3c0.1,0.7,0.4,1.3,0.7,2.1h-4.1c-0.1-0.3-0.2-0.7-0.4-1.2c-0.1-0.2-0.1-0.4-0.1-0.5
		c-0.7,0.7-1.5,1.2-2.3,1.5s-1.7,0.5-2.6,0.5c-1.6,0-2.9-0.4-3.8-1.3s-1.4-2-1.4-3.3c0-0.9,0.2-1.7,0.6-2.4s1-1.2,1.8-1.6
		c0.8-0.4,1.8-0.7,3.3-1c1.9-0.4,3.3-0.7,4-1v-0.4c0-0.8-0.2-1.4-0.6-1.7s-1.1-0.5-2.2-0.5c-0.7,0-1.3,0.1-1.7,0.4
		C97.4,9.4,97.1,9.9,96.8,10.7z M102.3,14c-0.5,0.2-1.4,0.4-2.5,0.6s-1.9,0.5-2.2,0.7c-0.5,0.4-0.8,0.9-0.8,1.5
		c0,0.6,0.2,1.1,0.6,1.5s1,0.6,1.6,0.6c0.7,0,1.5-0.2,2.1-0.7c0.5-0.4,0.8-0.8,1-1.4c0.1-0.4,0.2-1,0.2-2
		C102.3,14.8,102.3,14,102.3,14z"/>
	<path class="st0" d="M110.4,3.8V0h4.1v3.8H110.4z M110.4,21.5V5.9h4.1v15.6H110.4z"/>
	<path class="st0" d="M132.9,21.5h-4.1v-7.9c0-1.7-0.1-2.8-0.3-3.3s-0.5-0.9-0.9-1.1s-0.9-0.4-1.4-0.4c-0.7,0-1.4,0.2-1.9,0.6
		s-1,0.9-1.2,1.6s-0.3,1.8-0.3,3.6v7h-4.1V5.9h3.8v2.3c1.4-1.8,3.1-2.6,5.1-2.6c0.9,0,1.7,0.2,2.5,0.5c0.8,0.3,1.3,0.7,1.7,1.3
		s0.7,1.1,0.8,1.7s0.2,1.6,0.2,2.8v9.6H132.9z"/>
</g>
</svg>
