<?xml version="1.0" encoding="utf-8"?>
<!-- Generator: Adobe Illustrator 16.0.0, SVG Export Plug-In . SVG Version: 6.00 Build 0)  -->
<!DOCTYPE svg PUBLIC "-//W3C//DTD SVG 1.1//EN" "http://www.w3.org/Graphics/SVG/1.1/DTD/svg11.dtd">
<svg version="1.1" id="Capa_1" xmlns="http://www.w3.org/2000/svg" xmlns:xlink="http://www.w3.org/1999/xlink" x="0px" y="0px"
	 width="768px" height="638.976px" viewBox="128 64.512 768 638.976" enable-background="new 128 64.512 768 638.976"
	 xml:space="preserve">
<g>
	<g>
		<path fill="#1084C3" d="M183.296,594.432c-29.184,0-55.296,24.576-55.296,53.76s26.112,55.296,55.296,55.296
			s53.76-26.112,53.76-55.296S212.48,594.432,183.296,594.432z"/>
		<path fill="#1084C3" d="M183.296,330.24C154.112,330.24,128,354.816,128,384c0,29.184,26.112,53.76,55.296,53.76
			s53.76-24.576,53.76-53.76C237.056,354.816,212.48,330.24,183.296,330.24z"/>
		<path fill="#1084C3" d="M379.904,168.96h465.409c27.647,0,50.688-21.504,50.688-49.152c0-27.647-23.04-50.688-50.688-50.688
			H379.904c-27.648,0-50.688,23.04-50.688,50.688C329.216,147.456,352.256,168.96,379.904,168.96z"/>
		<path fill="#1084C3" d="M183.296,64.512c-29.184,0-55.296,26.112-55.296,55.296c0,29.185,26.112,53.76,55.296,53.76
			s53.76-24.575,53.76-53.76C237.056,90.624,212.48,64.512,183.296,64.512z"/>
		<path fill="#1084C3" d="M845.313,333.312H379.904c-27.648,0-50.688,23.04-50.688,50.688c0,27.647,23.04,50.688,50.688,50.688
			h465.409C872.96,434.688,896,411.648,896,384C896,356.352,872.96,333.312,845.313,333.312z"/>
		<path fill="#1084C3" d="M845.313,597.504H379.904c-27.648,0-50.688,23.04-50.688,50.688c0,27.648,23.04,50.688,50.688,50.688
			h465.409c27.647,0,50.688-23.04,50.688-50.688C896,620.544,872.96,597.504,845.313,597.504z"/>
	</g>
</g>
</svg>
