<?xml version="1.0" encoding="utf-8"?>
<!-- Generator: Adobe Illustrator 16.0.0, SVG Export Plug-In . SVG Version: 6.00 Build 0)  -->
<!DOCTYPE svg PUBLIC "-//W3C//DTD SVG 1.1//EN" "http://www.w3.org/Graphics/SVG/1.1/DTD/svg11.dtd">
<svg version="1.1" id="Capa_1" xmlns="http://www.w3.org/2000/svg" xmlns:xlink="http://www.w3.org/1999/xlink" x="0px" y="0px"
	 width="768px" height="768px" viewBox="128 0 768 768" enable-background="new 128 0 768 768" xml:space="preserve">
<g>
	<g>
		<path fill="#1084C3" d="M512,0C300.269,0,128,172.256,128,384c0,211.743,172.269,384,384,384s384-172.257,384-384
			C896,172.256,723.731,0,512,0z M512,720.739c-185.679,0-336.738-151.06-336.738-336.738S326.321,47.262,512,47.262
			S848.738,198.322,848.738,384S697.679,720.739,512,720.739z"/>
		<path fill="#1084C3" d="M508.294,298.62c-35.257,0-60.233,28.626-60.233,63.834v217.034c0,35.259,24.976,63.81,60.233,63.81
			c35.249,0,60.203-28.551,60.203-63.81V362.454C568.497,327.215,543.543,298.62,508.294,298.62z"/>
		<path fill="#1084C3" d="M508.559,132.702c-36.428,0-65.981,29.544-65.981,65.971c0,36.416,29.553,65.927,65.981,65.927
			c36.396,0,65.939-29.511,65.939-65.927C574.498,162.246,544.955,132.702,508.559,132.702z"/>
	</g>
</g>
</svg>
