<?xml version="1.0" encoding="utf-8"?>
<!-- Generator: Adobe Illustrator 16.0.0, SVG Export Plug-In . SVG Version: 6.00 Build 0)  -->
<!DOCTYPE svg PUBLIC "-//W3C//DTD SVG 1.1//EN" "http://www.w3.org/Graphics/SVG/1.1/DTD/svg11.dtd">
<svg version="1.1" id="Layer_1" xmlns="http://www.w3.org/2000/svg" xmlns:xlink="http://www.w3.org/1999/xlink" x="0px" y="0px"
	 width="80.2px" height="103.15px" viewBox="0 0 80.2 103.15" enable-background="new 0 0 80.2 103.15" xml:space="preserve">
<g>
	<g>
		<path fill-rule="evenodd" clip-rule="evenodd" fill="#713E70" d="M57.95,57.45l-1.2-1.2c-1.533-1.5-3.116-4.1-4.75-7.8
			c-1.967-3.833-2.95-6.534-2.95-8.1c0.134-0.9-0.116-2.55-0.75-4.95c-0.633-2.067-0.75-4.05-0.35-5.95L51,21.2
			c1.733-4.6,2.316-7.184,1.75-7.75L52.3,13l4.55-4.6c3.834-3.233,7.233-5.333,10.2-6.3l1.101-0.2c3.199-0.3,5.55,0.317,7.05,1.85
			c0.566,0.566,1.066,1.217,1.5,1.95c2.1,3.1,2.566,7.05,1.399,11.85c-1.5,6.567-5.732,13.333-12.699,20.3l-7.25,5.95
			c-0.934,0.934-1.367,2.583-1.301,4.95L57.95,57.45z M74.75,5.7l-0.1-0.1C73.417,4.934,71.6,4.717,69.2,4.95
			c-2.8,0.233-4.634,0.983-5.5,2.25L74.75,5.7z M72.15,19.6c0.166-2.9-0.467-5.067-1.9-6.5c-2.633-2.6-5.283-3.15-7.95-1.65
			c-2.333,1.167-4.399,3.517-6.2,7.05c-1.666,3.4-2.716,6.833-3.149,10.3c-0.434,3.634-0.033,6.05,1.2,7.25
			c0.733,0.733,1.916,1,3.55,0.8c2.633-0.267,5.2-1.667,7.7-4.2C69.833,28.217,72.083,23.867,72.15,19.6z M8.7,24l0.55,0.55
			c0.567,0.6,1.434,0.967,2.6,1.1l3.75,0.55c3.767,0.733,7.25,2.917,10.45,6.55l0.1-0.15l-0.65-1.7l-0.85-1.35L21.5,26.9l-3.7-2.4
			l-6.2-1.85l0.3-0.1c3.067-0.033,5.9,0.317,8.5,1.05l3.5,1.75c-0.167,0.433-0.066,0.816,0.3,1.15c5.2,5.233,8.267,8.684,9.2,10.35
			c1.534,3.233,2.55,5.9,3.05,8c0.933,4.3,0.283,7.567-1.95,9.8c-1,1.033-2.267,1.717-3.8,2.05c-1.233,0.366-2.317,1.017-3.25,1.95
			c-1,1-1.25,2.183-0.75,3.55l2.4,3.899c2.467,3.334,2.533,6.167,0.2,8.5c-2.233,2.233-5.483,3.384-9.75,3.45l-0.7,0.05l0.25-0.5
			c0.5-1.199,1.667-3.433,3.5-6.699c3.066-6.7,3.267-11.4,0.6-14.101c-1.167-1.133-3.684-3.017-7.55-5.65l-8.6-5.95
			c-1.233-1.233-2.35-2.934-3.35-5.1l-1.3-2.6l-1-3.35c-0.066-3.7,2-6.85,6.2-9.45L8.7,24z M27.55,37.05
			c-1.8-1.8-3.033-2.883-3.7-3.25c-1.867-1.167-3.85-1.633-5.95-1.4c-3.466,0.267-5.117,1.933-4.95,5c0.2,2.5,1.05,4.517,2.55,6.05
			l6.55,3.05c4.833,1.667,8.083,1.667,9.75,0c1.367-1.367,1.184-3.283-0.55-5.75L27.55,37.05z M28.1,50.85l0.45-0.7L23,50.7
			c-2.967,0.533-3.833,1.399-2.6,2.6c0.867,0.9,1.8,1.2,2.8,0.9C24.434,54,26.067,52.883,28.1,50.85z"/>
		<path fill-rule="evenodd" clip-rule="evenodd" fill="#512D50" d="M52.3,13l0.45,0.45c0.566,0.566-0.017,3.15-1.75,7.75l-3.05,8.25
			c-0.4,1.9-0.283,3.883,0.35,5.95c0.634,2.4,0.884,4.05,0.75,4.95c0,1.566,0.983,4.267,2.95,8.1c1.634,3.7,3.217,6.3,4.75,7.8
			l1.2,1.2l0.1,0.1c0.167,0.434,0.2,0.9,0.101,1.4l0.1,1.649c0.033,4.467-1.217,7.617-3.75,9.45l-0.7,0.2l-0.3-0.1l-5.4-7.801
			l-0.35-0.3V61.8l-0.3-0.1l-0.25-0.2l0.1-0.15c0.134-1,0.067-2.949-0.2-5.85c-0.366-3.1-0.85-5.733-1.449-7.9l-1.601-6.85
			c-0.8-2.533-1.416-4.167-1.85-4.9l0.2-0.2l-0.2-0.45c0.066-1.367,0.366-2.6,0.899-3.7l1.301-3.7l0.199-0.4l0.101-0.55
			c0.866-2.034,2.283-4.967,4.25-8.8l-0.101-0.1l-0.1,0.1C49.45,16.917,50.634,15.233,52.3,13z M74.75,5.7L63.7,7.2
			c0.866-1.267,2.7-2.017,5.5-2.25c2.399-0.233,4.217-0.017,5.45,0.65L74.75,5.7z M23.9,25.35l4.75,2.8
			c0.567,0.3,1.184,0.55,1.85,0.75l5.2,3.3l2.6,2.15c0.667,0.633,1.534,1.933,2.601,3.9l1.75,3.25l0.1,0.75
			c0.733,2.066,1.2,3.85,1.4,5.35l1,6.6c0.233,7.866-2.301,14.45-7.601,19.75C34.583,76.917,31,79.267,26.8,81
			c-3.1,1.233-5.417,1.667-6.95,1.3c-0.667-0.2-1.217-0.517-1.65-0.95c-0.133-0.166-0.167-0.5-0.1-1l0.25-1.1l0.5-1.15l0.7-0.05
			c4.267-0.066,7.517-1.217,9.75-3.45c2.333-2.333,2.267-5.166-0.2-8.5L26.7,62.2c-0.5-1.367-0.25-2.55,0.75-3.55
			c0.933-0.934,2.017-1.584,3.25-1.95c1.533-0.333,2.8-1.017,3.8-2.05c2.233-2.233,2.883-5.5,1.95-9.8c-0.5-2.1-1.517-4.767-3.05-8
			c-0.933-1.667-4-5.117-9.2-10.35C23.833,26.167,23.733,25.783,23.9,25.35z M11.6,22.65l6.2,1.85l3.7,2.4l3.15,2.65l0.85,1.35
			l0.65,1.7l-0.1,0.15c-3.2-3.633-6.683-5.816-10.45-6.55l-3.75-0.55c-1.167-0.133-2.033-0.5-2.6-1.1L8.7,24l0.1-0.1l2.15-1.05
			l0.25-0.25h0.2L11.6,22.65z M54.6,61.9c0.801-0.801,1.117-1.7,0.95-2.7c-0.166-0.567-0.5-1.101-1-1.601
			c-1-1.033-2.066-0.982-3.2,0.15c-1.333,1.033-1.133,2.417,0.601,4.15l0.8,0.75C53.316,62.816,53.934,62.566,54.6,61.9z
			 M32.35,58.75l-0.25-0.2l-2.25,4.2l0.35,0.55c0.367,2.267,1.333,4.2,2.9,5.8c1.1,0.768,2.15,0.851,3.15,0.25
			C39.65,64.95,38.35,61.417,32.35,58.75z M28.1,50.85c-2.033,2.033-3.667,3.15-4.9,3.35c-1,0.3-1.934,0-2.8-0.9
			c-1.233-1.2-0.367-2.066,2.6-2.6l5.55-0.55L28.1,50.85z"/>
		<path fill-rule="evenodd" clip-rule="evenodd" fill="#181B27" d="M79.45,18.4c-1.601,6.767-5.767,13.517-12.5,20.25l-7.8,6.3
			C58.55,45.55,58.434,46.9,58.8,49l1.2,6.6c0.667,6.867-0.85,12.15-4.55,15.851l-1.4,1.2L49.6,68.2l-2.1-3.55l-0.1,0.1l-2.15,5
			c0.233,0.767,0.417,2.167,0.55,4.2l0.2,1.5l0.65,1.95L47.2,78.6c0.633,1.268,0.717,2.434,0.25,3.5
			c0.267,6.067-1.767,12.067-6.101,18l-0.25,0.25c4.167-6.333,5.983-12.416,5.45-18.25c-0.8-3.267-1.316-6.017-1.55-8.25L44.7,70.9
			l-0.75,0.149l-0.7-0.45c0.167,1,0.033,2.084-0.4,3.25c-0.866,2.9-3.033,6.084-6.5,9.551c-1.967,1.967-3.5,3.199-4.6,3.699
			c-1.1,0.434-2.75,1.733-4.95,3.9c-2.366,2.367-3.883,4.883-4.55,7.55c-0.233,1.533-0.233,3,0,4.4l-0.25,0.2L21.5,103
			c-0.167-1.267-0.066-3.1,0.3-5.5c0.367-2.533,0.917-4.15,1.65-4.85L34.1,83.7c4.333-4.333,6.883-7.9,7.65-10.7l0.65-2.2l-3.05,3.7
			c-4.333,4.333-8.767,7.184-13.3,8.55c-3.066,0.9-5.417,1.083-7.05,0.55c-0.9-0.267-1.633-0.699-2.2-1.3
			c-0.933-0.933-0.933-2.45,0-4.55l3.7-6.5c3.7-6.133,4.15-10.617,1.35-13.45c-1.033-1-3.467-2.717-7.3-5.149L8.85,48.8L5.4,45.55
			c-1.733-1.733-3.1-3.983-4.1-6.75L1,38c-1.9-5.333-1.083-9.767,2.45-13.3c2.767-2.733,6.466-3.884,11.1-3.45l3.15,0.05l4.1,1.35
			c1.8,0.633,3.117,1.2,3.95,1.7c0.633,0.5,1.85,1.15,3.65,1.95c1.667,0.8,2.817,1.533,3.45,2.2l6.25,4.2l-1.15-1.5l-0.8-1.5
			l-1-1.25c1.2-1.934,2.383-2.9,3.55-2.9c0.467-0.133,1.017,0.134,1.649,0.8c0.301,0.267,0.617,1.017,0.95,2.25l0.95-2.7
			c1.233-3.1,2.367-5.233,3.4-6.4c2.133-4.267,5.616-8.833,10.449-13.7c3.9-3.9,7.9-5.816,12-5.75
			c2.601-0.267,4.518,0.217,5.75,1.45l2.95,2.9C80.267,8,80.816,12.667,79.45,18.4z M52.3,13c-1.666,2.233-2.85,3.917-3.55,5.05
			l0.1-0.1l0.101,0.1c-1.967,3.833-3.384,6.767-4.25,8.8L44.6,27.4L44.4,27.8L43.1,31.5c-0.533,1.1-0.833,2.333-0.899,3.7l0.2,0.45
			l-0.2,0.2c0.434,0.733,1.05,2.367,1.85,4.9l1.601,6.85c0.6,2.167,1.083,4.8,1.449,7.9c0.268,2.9,0.334,4.85,0.2,5.85l-0.1,0.15
			l0.25,0.2l0.3,0.1v0.25l0.35,0.3l5.4,7.801l0.3,0.1l0.7-0.2c2.533-1.833,3.783-4.983,3.75-9.45l-0.1-1.649
			c0.1-0.5,0.066-0.967-0.101-1.4l-0.1-0.1l-1.101-8.7c-0.066-2.367,0.367-4.017,1.301-4.95l7.25-5.95
			C72.367,30.883,76.6,24.117,78.1,17.55c1.167-4.8,0.7-8.75-1.399-11.85c-0.434-0.733-0.934-1.384-1.5-1.95
			C73.7,2.217,71.35,1.6,68.15,1.9L67.05,2.1c-2.967,0.966-6.366,3.066-10.2,6.3L52.3,13z M38.6,8.85L37.85,9.6
			c-1.3,1.9-1.333,4.9-0.1,9c1.033,3.333,1.934,5.4,2.7,6.2l-0.101,0.1L39.7,24.25c-0.633-0.667-1.5-2.767-2.6-6.3
			c-1.133-4.5-0.867-7.567,0.8-9.2c0.567-0.6,1.233-0.7,2-0.3c0.467,0.233,0.8,0.55,1,0.95c0.699,0.733,1.133,1.383,1.3,1.95
			c0.434,1,0.517,2,0.25,3l-0.75,0.8c-0.967,0.2-1.566,0.2-1.8,0l-0.5-0.95l0.85,0.2l1,0.05L42,13.7c-0.233-1.2-0.5-2.017-0.8-2.45
			c-0.033-0.533-0.45-1.2-1.25-2C39.583,8.883,39.133,8.75,38.6,8.85z M36.7,24.9c-1.467,0.6-3.5-0.05-6.1-1.95
			c-1.667-1.1-3.333-2.467-5-4.1c-3.9-3.934-4.684-6.767-2.35-8.5c0.934-0.8,2.067-1.15,3.4-1.05c1.467,0,2.667,0.467,3.6,1.4
			c2.1,2.833,2.583,4.833,1.45,6l-1.85-0.15l-1.5-0.9l-0.15-0.3c0.133-0.133,0.617-0.034,1.45,0.3l1.2,0.15
			c0.566-0.6,0.517-1.433-0.15-2.5l-1.2-1.85c-0.633-0.667-1.217-1.017-1.75-1.05c-0.7-0.167-1.85-0.183-3.45-0.05l-1.45,1.45
			c-0.467,1.1-0.2,2.35,0.8,3.75l2.5,2.75l4.9,4c2.3,1.6,4.134,2.434,5.5,2.5L36.7,24.9z M41.95,29.6L41.9,29l-1.351-1.7
			c-0.767,0.067-1.3,0.25-1.6,0.55c-0.367,0.066-0.833,0.4-1.4,1c0.867,0.533,1.667,1.6,2.4,3.2l0.1,0.1
			c0.2,0.1,0.483-0.033,0.851-0.4l0.85-0.85L41.95,29.6z M23.9,25.35l-3.5-1.75c-2.6-0.733-5.433-1.083-8.5-1.05l-0.3,0.1l-0.2-0.05
			h-0.2l-0.25,0.25L8.8,23.9L8.7,24l-1.1,0.7c-4.2,2.6-6.267,5.75-6.2,9.45l1,3.35l1.3,2.6c1,2.167,2.117,3.867,3.35,5.1l8.6,5.95
			c3.867,2.633,6.383,4.517,7.55,5.65c2.667,2.7,2.466,7.4-0.6,14.101c-1.833,3.267-3,5.5-3.5,6.699l-0.25,0.5l-0.5,1.15l-0.25,1.1
			c-0.067,0.5-0.033,0.834,0.1,1c0.433,0.434,0.983,0.75,1.65,0.95c1.533,0.367,3.85-0.066,6.95-1.3
			c4.2-1.733,7.784-4.083,10.75-7.05c5.3-5.3,7.834-11.884,7.601-19.75l-1-6.6c-0.2-1.5-0.667-3.284-1.4-5.35l-0.1-0.75l-1.75-3.25
			c-1.067-1.967-1.934-3.267-2.601-3.9l-2.6-2.15l-5.2-3.3c-0.667-0.2-1.283-0.45-1.85-0.75L23.9,25.35z M41.2,32.75l-1.15,0.5h-0.2
			l1.05,0.85l0.449,0.45C41.117,34.184,41.066,33.583,41.2,32.75z M43.95,69.75c0.934-1.4,1.733-3.3,2.399-5.7l0.301-0.75
			L45.8,62.45c-0.533,2.533-1.383,4.816-2.55,6.85L43.95,69.75z"/>
		<path fill-rule="evenodd" clip-rule="evenodd" fill="#EB96D6" d="M72.15,19.6c-0.067,4.267-2.317,8.617-6.75,13.05
			c-2.5,2.534-5.067,3.933-7.7,4.2c-1.634,0.2-2.816-0.067-3.55-0.8c-1.233-1.2-1.634-3.616-1.2-7.25
			c0.434-3.467,1.483-6.9,3.149-10.3c1.801-3.533,3.867-5.883,6.2-7.05c2.667-1.5,5.317-0.95,7.95,1.65
			C71.684,14.533,72.316,16.7,72.15,19.6z M54.6,61.9c-0.666,0.666-1.283,0.916-1.85,0.75l-0.8-0.75
			c-1.733-1.733-1.934-3.117-0.601-4.15c1.134-1.133,2.2-1.184,3.2-0.15c0.5,0.5,0.834,1.033,1,1.601
			C55.717,60.2,55.4,61.1,54.6,61.9z M27.55,37.05l3.7,3.7c1.733,2.467,1.917,4.383,0.55,5.75c-1.667,1.667-4.917,1.667-9.75,0
			l-6.55-3.05c-1.5-1.534-2.35-3.55-2.55-6.05c-0.167-3.067,1.483-4.733,4.95-5c2.1-0.233,4.083,0.233,5.95,1.4
			C24.517,34.167,25.75,35.25,27.55,37.05z M32.35,58.75c6,2.667,7.3,6.2,3.9,10.6c-1,0.601-2.05,0.518-3.15-0.25
			c-1.567-1.6-2.533-3.533-2.9-5.8l-0.35-0.55l2.25-4.2L32.35,58.75z"/>
		<path fill-rule="evenodd" clip-rule="evenodd" fill="#2D3146" d="M41.95,29.6l-0.2,1.3l-0.85,0.85
			c-0.367,0.367-0.65,0.5-0.851,0.4l-0.1-0.1c-0.733-1.6-1.534-2.667-2.4-3.2c0.567-0.6,1.034-0.934,1.4-1
			c0.3-0.3,0.833-0.483,1.6-0.55L41.9,29L41.95,29.6z M43.95,69.75l-0.7-0.45c1.167-2.033,2.017-4.316,2.55-6.85l0.851,0.85
			l-0.301,0.75C45.684,66.45,44.884,68.35,43.95,69.75z"/>
	</g>
</g>
</svg>
