<?xml version="1.0" encoding="utf-8"?>
<!-- Generator: Adobe Illustrator 16.0.0, SVG Export Plug-In . SVG Version: 6.00 Build 0)  -->
<!DOCTYPE svg PUBLIC "-//W3C//DTD SVG 1.1//EN" "http://www.w3.org/Graphics/SVG/1.1/DTD/svg11.dtd">
<svg version="1.1" id="Layer_1" xmlns="http://www.w3.org/2000/svg" xmlns:xlink="http://www.w3.org/1999/xlink" x="0px" y="0px"
	 width="88.8px" height="65.15px" viewBox="0 0 88.8 65.15" enable-background="new 0 0 88.8 65.15" xml:space="preserve">
<g>
	<g>
		<path fill-rule="evenodd" clip-rule="evenodd" fill="#FFFFFF" d="M16.1,31v-1.35c0-0.767,0.034-1.35,0.101-1.75
			c0,0.1,0.017,0.2,0.05,0.3v0.05c0,0.167,0.033,0.35,0.1,0.55h0.25c0.034-0.1,0.084-0.966,0.15-2.6c0-0.133,0.017-0.233,0.05-0.3
			c0.067-0.5,0.267-0.883,0.6-1.15c0.167-0.133,0.35-0.25,0.55-0.35l0.1,0.05c0.4,1.133,0.55,2.333,0.45,3.6
			c0.2,0,0.367-0.05,0.5-0.15c-0.1,0.133-0.167,0.284-0.2,0.45c0.967-0.667,2-1.983,3.1-3.95c1.5-1.733,3.933-2.933,7.3-3.6
			c0.233,0.2,0.483,0.534,0.75,1c0.2,0.333,0.3,0.583,0.3,0.75c0,1.733-0.717,3.483-2.15,5.25c-1.166,1.267-2.183,2.467-3.05,3.6
			c-0.5,0.2-0.933,0.483-1.3,0.85c-0.767-0.5-1.533-0.883-2.3-1.15c0.3-0.267,0.633-0.65,1-1.15c0.399-0.667,0.6-1.167,0.6-1.5
			c-0.1-0.467-0.15-0.784-0.15-0.95c-1.167-0.2-1.95,0.233-2.35,1.3c-0.167,0.3-0.267,0.967-0.3,2c-0.867-0.167-1.783-0.167-2.75,0
			c0.6-0.667,0.9-1.1,0.9-1.3c-0.1-0.3-0.15-0.533-0.15-0.7c-0.3-0.033-0.55-0.033-0.75,0c-0.1,0-0.2,0.034-0.3,0.1
			c-0.667,0.2-1,0.85-1,1.95c0,0.066,0,0.117,0,0.15H16.1z M21.3,41.2c2.033,0.333,3.767,1.6,5.2,3.8c1.7,2.6,3.566,3.9,5.6,3.9
			c0.334,0,1.4-0.184,3.2-0.551h0.2c0.167,0.367,0.35,0.733,0.55,1.101c1.267,2.267,2.8,3.399,4.6,3.399c0.967,0,1.6-0.25,1.9-0.75
			c0.033-0.066,0.05-0.116,0.05-0.149c0.067-0.3,0.117-0.584,0.15-0.851c0.267,0,0.533,0,0.8,0c0.5,0,1.101-0.149,1.8-0.449
			c0.667-0.367,1.25-0.551,1.75-0.551c1.301,0,1.95,0.467,1.95,1.4v0.05c-0.1,0-0.183,0.033-0.25,0.101
			c-0.366,0.133-0.7,0.316-1,0.55c-1.566,0.7-3.017,1.3-4.35,1.8c-0.3,0.1-0.601,0.2-0.9,0.3c-2.566,0.867-4.783,1.3-6.65,1.3
			c-7.533,0-13.267-4.267-17.2-12.8c0.2-0.267,0.433-0.533,0.7-0.8c0.267-0.3,0.517-0.6,0.75-0.9c0.167,0,0.317,0,0.45,0
			c0,0.167,0,0.267,0,0.301c0.233,0.633,0.75,1.199,1.55,1.699c-0.033-0.066-0.083-0.149-0.15-0.25
			c-0.167-0.133-0.267-0.283-0.3-0.449C21.6,42.3,21.55,42.2,21.55,42.1C21.383,41.8,21.3,41.5,21.3,41.2z"/>
		<path fill-rule="evenodd" clip-rule="evenodd" fill="#281E1C" d="M49.05,51.55c0.667-0.333,1.317-0.666,1.95-1
			c0.066-0.333,0.166-0.55,0.3-0.649c0.067,0.1,0.134,0.216,0.2,0.35c0.233-0.1,0.483-0.2,0.75-0.3c0.2-0.233,0.434-0.45,0.7-0.65
			c0.233-0.566,0.5-0.95,0.8-1.149c0.066,0.033,0.117,0.083,0.15,0.149c2.199-2.399,4.066-4.899,5.6-7.5
			c0.033-0.267,0.117-0.5,0.25-0.7h0.15c0-0.033,0.016-0.083,0.05-0.149l0.1,0.149h0.15c0,0.267,0.017,0.517,0.05,0.75
			c0.267,2.567,0.684,4.517,1.25,5.851c0.967,2.366,2.75,4.45,5.35,6.25c0.2-0.3,0.301-0.767,0.301-1.4c0-1.1-0.567-2.616-1.7-4.55
			c-1.767-3-2.7-4.616-2.8-4.85c0-0.4,0.25-0.601,0.75-0.601l1.5,1.25c1.133,0.867,2.033,1.4,2.699,1.601h2.45
			c0.567-0.634,0.917-1.15,1.05-1.551c0-0.5-0.616-1.166-1.85-2c-1.5-1-3.15-1.449-4.95-1.35c-0.134,0-0.2-0.25-0.2-0.75
			c0-0.3,0.066-0.483,0.2-0.55c0.101-0.033,0.25-0.05,0.45-0.05c1.833,0.233,3.566-0.2,5.2-1.301c1.333-0.933,2-1.683,2-2.25
			c0-0.233-0.184-0.449-0.55-0.649c-0.467-0.267-0.717-0.434-0.75-0.5l-3.95,0.1c-0.267,0.101-0.55,0.3-0.851,0.601
			c-0.199,0.267-0.566,0.399-1.1,0.399c-0.2-0.066-0.35-0.116-0.45-0.149c-0.1-0.101-0.149-0.317-0.149-0.65L66.3,31.8
			c1.434-1.333,2.15-2.533,2.15-3.6c0-0.3-0.034-0.483-0.101-0.55c-0.033,0.067-0.083,0.067-0.149,0c-0.567,0.2-1.634,1-3.2,2.4
			c-0.967,0.867-1.75,1.5-2.35,1.9C62.883,32.45,63,33,63,33.6c0,1.067-0.684,2.117-2.05,3.15c-1.634,1.167-3.8,2.033-6.5,2.6
			c0.399,0.5,0.6,0.95,0.6,1.351c0,0.666-0.55,1.416-1.649,2.25c-1.4,0.967-3.117,1.45-5.15,1.45c-1.967,0-3.566-0.517-4.8-1.551
			c0.267,0,0.583,0,0.95,0c4.066,0,6.683-0.333,7.85-1c0.9-0.533,1.35-0.966,1.35-1.3c0-0.133-0.267-0.517-0.8-1.149
			c-0.566-0.601-0.884-0.967-0.95-1.101c2.867-0.833,4.7-1.399,5.5-1.7c2.867-1.066,4.301-2.066,4.301-3
			c0-0.533-0.317-1.133-0.95-1.8c-0.867-0.866-1.983-1.3-3.351-1.3c-0.399,0-1.184,0.25-2.35,0.75c-0.3-0.1-0.483-0.15-0.55-0.15
			c-0.101-0.1-0.15-0.333-0.15-0.7l3.5-3.1c2.3-2.366,3.45-4.283,3.45-5.75c0-0.667-0.2-1.283-0.6-1.85
			c-0.5-0.7-1.117-1.05-1.851-1.05c-2.3,0-4.3,0.967-6,2.9c-1.333,2.034-2.134,3.15-2.399,3.35c-0.5-0.133-0.75-0.466-0.75-1
			c0-0.2,0.933-1.667,2.8-4.4c1.833-2.967,2.75-5.167,2.75-6.6L55.15,12c-3.301,0.867-6.033,2.7-8.2,5.5
			c0.1,0.167,0.216,0.3,0.35,0.4c0,0.133-0.083,0.25-0.25,0.35c-0.167-0.1-0.3-0.167-0.399-0.2c-0.4,0.567-1.217,1.333-2.45,2.3
			c0.533-0.934,1.133-1.85,1.8-2.75c-3.533-2.167-6.6-3.25-9.2-3.25c-7.066,0-12.667,1.517-16.8,4.55c-3.5,2.6-5.25,5.567-5.25,8.9
			c0,1.134,0.1,2.317,0.3,3.55c0.367-0.1,0.717-0.217,1.05-0.35H16.2c0-0.033,0-0.083,0-0.15c0-1.1,0.333-1.75,1-1.95
			c0.1-0.066,0.2-0.1,0.3-0.1c0.2-0.033,0.45-0.033,0.75,0c0,0.167,0.05,0.4,0.15,0.7c0,0.2-0.3,0.633-0.9,1.3
			c0.967-0.167,1.883-0.167,2.75,0c0.033-1.033,0.133-1.7,0.3-2c0.4-1.066,1.184-1.5,2.35-1.3c0,0.167,0.05,0.483,0.15,0.95
			c0,0.333-0.2,0.833-0.6,1.5c-0.367,0.5-0.7,0.883-1,1.15c0.767,0.267,1.533,0.65,2.3,1.15c0.367-0.367,0.8-0.65,1.3-0.85
			c0.867-1.133,1.884-2.333,3.05-3.6c1.434-1.767,2.15-3.517,2.15-5.25c0-0.167-0.1-0.417-0.3-0.75c-0.267-0.466-0.517-0.8-0.75-1
			c-3.367,0.667-5.8,1.867-7.3,3.6c-1.1,1.967-2.133,3.284-3.1,3.95c0.033-0.167,0.1-0.317,0.2-0.45c-0.133,0.1-0.3,0.15-0.5,0.15
			c0.1-1.267-0.05-2.466-0.45-3.6l-0.1-0.05c-0.2,0.1-0.384,0.217-0.55,0.35c-0.333,0.267-0.533,0.65-0.6,1.15
			c-0.033,0.067-0.05,0.167-0.05,0.3c-0.066,1.633-0.117,2.5-0.15,2.6h-0.25c-0.066-0.2-0.1-0.383-0.1-0.55V28.2
			c-0.033-0.1-0.05-0.2-0.05-0.3v-0.15c-0.101-0.566-0.15-1.133-0.15-1.7c0-1.566,0.55-2.483,1.65-2.75c1.133-0.2,1.7,0.567,1.7,2.3
			l-0.05,1.7c2.233-4.333,4.8-6.883,7.7-7.65c3-0.833,4.5,0.617,4.5,4.35c0,1.267-1,3.067-3,5.4c-0.3,0.367-0.6,0.733-0.9,1.1
			c1.233-0.267,2.6-0.35,4.1-0.25l-0.5,0.3c-0.367-0.033-0.8-0.05-1.3-0.05c-1.034,0-1.983,0.2-2.851,0.6
			c-1.1,0.467-2.083,1.25-2.95,2.35c-0.1,0.1-0.2,0.267-0.3,0.5V34c-0.633,1.934-1.45,3.733-2.45,5.4
			c-0.167,0.666-0.2,1.267-0.1,1.8c0,0.3,0.083,0.6,0.25,0.899c0,0.101,0.05,0.2,0.15,0.301c0.033,0.166,0.133,0.316,0.3,0.449
			c0.066,0.101,0.117,0.184,0.15,0.25c-0.8-0.5-1.317-1.066-1.55-1.699c0-0.034,0-0.134,0-0.301c-0.033-0.166-0.05-0.35-0.05-0.55
			c-0.1,0.2-0.233,0.384-0.4,0.55C19.917,41.4,19.667,41.7,19.4,42c-0.267,0.267-0.5,0.533-0.7,0.8
			c3.933,8.533,9.667,12.8,17.2,12.8c1.867,0,4.083-0.433,6.65-1.3c0.3-0.1,0.6-0.2,0.9-0.3c1.333-0.5,2.783-1.1,4.35-1.8
			c0.3-0.233,0.634-0.417,1-0.55C48.867,51.583,48.95,51.55,49.05,51.55z M42.75,51.1c-0.033,0.267-0.083,0.551-0.15,0.851
			c0,0.033-0.017,0.083-0.05,0.149c-0.3,0.5-0.933,0.75-1.9,0.75c-1.8,0-3.333-1.133-4.6-3.399c-0.2-0.367-0.383-0.733-0.55-1.101
			c-0.033-0.133-0.1-0.316-0.2-0.55c-1.033-3.333-1.55-5.05-1.55-5.149c0-1.034,0.15-1.801,0.45-2.301
			c0.167,0.467,0.75,2.467,1.75,6c0.267,0.767,0.583,1.434,0.95,2c0.133,0.4,0.333,0.767,0.6,1.101c0.934,1.3,1.95,1.983,3.05,2.05
			h0.1c0.5,0,0.8-0.083,0.9-0.25c0-0.1,0-0.217,0-0.35c-0.167-0.567-0.6-1.334-1.3-2.301c-0.8-1.133-1.184-2-1.15-2.6
			c0.067-0.066,0.117-0.167,0.15-0.3c0.1-0.101,0.3-0.15,0.6-0.15c0.167,0,0.65,0.584,1.45,1.75c0.767,1.167,1.733,1.75,2.9,1.75
			c1.633,0,2.6-0.233,2.899-0.7c0.334-0.466,0.717-0.699,1.15-0.699c-0.7,2-2.483,2.866-5.35,2.6
			C42.867,50.45,42.816,50.733,42.75,51.1z M17.2,37.45L17.35,37.6c-0.166,0.233-0.316,0.517-0.45,0.851l0.05,0.05
			c-2.4,2.767-4.284,4.6-5.65,5.5l-0.35,0.4c1.866-0.567,4.483-1.767,7.85-3.601c-0.2-0.066-0.35-0.1-0.45-0.1
			c0.667-0.533,1.267-1.134,1.8-1.8c0.167-0.167,0.317-0.351,0.45-0.551c0.134-1.466,0.983-3.316,2.55-5.55
			c-0.067,0-0.1,0.017-0.1,0.05c-0.133-0.1-0.283-0.2-0.45-0.3c-0.233-0.1-0.466-0.183-0.7-0.25c-0.4-0.133-0.767-0.2-1.1-0.2
			c-1.133,0-3.15,0.2-6.05,0.6c-1.9,0.6-3.167,1.017-3.8,1.25c-4.5,1.3-6.8,1.95-6.9,1.95c0.467,0.466,1.283,0.933,2.45,1.399
			c1.233,0.5,2.733,0.75,4.5,0.75s3.35-0.383,4.75-1.149c0.667-0.4,2.316-1.317,4.95-2.75c-2.2,1.566-3.167,2.433-2.9,2.6
			C17.533,37.017,17.333,37.25,17.2,37.45z M14.65,38.3C12.617,39.033,10.833,39.4,9.3,39.4c-1.7,0-3.65-0.784-5.85-2.351
			C2.083,36.083,0.934,35.1,0,34.1c0.1-0.533,0.45-0.8,1.05-0.8c0.367,0,0.884,0.184,1.55,0.55C3.2,34.217,4.017,34.4,5.05,34.4
			c0.667,0,3.434-0.817,8.3-2.45c-0.033-0.367-0.05-0.733-0.05-1.1c0-9.1,4.917-14.767,14.75-17c3.9-0.934,7.717-1.017,11.45-0.25
			c0.333,0.1,0.684,0.183,1.05,0.25c-0.033-0.1-0.05-0.233-0.05-0.4c0-2.8,1.4-5.184,4.2-7.15c2.733-1.933,4.1-1.5,4.1,1.3
			c0,1.066-0.583,2.683-1.75,4.85c-0.8,1.6-1.566,2.65-2.3,3.15c0.6,0.4,1.166,0.833,1.7,1.3c0.667-0.966,1.399-1.917,2.2-2.85
			c2.133-2.533,3.967-3.883,5.5-4.05c1.666-0.133,2.5,1.267,2.5,4.2c0,0.367-0.2,0.983-0.601,1.85c-0.2,0.467-0.5,1.083-0.899,1.85
			c0.033,0,0.467-0.15,1.3-0.45c0.8-0.333,1.633-0.5,2.5-0.5c1.433,0,2.5,0.767,3.2,2.3c0.366,0.767,0.583,1.533,0.649,2.3
			c0,2.233-1.483,4.684-4.45,7.35c1.533,0.534,2.7,1.184,3.5,1.95c0.467-0.967,1.717-2.133,3.75-3.5
			c2.7-1.833,4.051-1.583,4.051,0.75c0,0.533-0.533,1.816-1.601,3.85c2.101-0.067,3.601,0.267,4.5,1
			c0.567,0.434,0.851,0.967,0.851,1.6c0,0.667-0.434,1.45-1.301,2.351c-0.8,0.866-1.75,1.55-2.85,2.05
			c0.934,0.934,1.833,1.7,2.7,2.3c0.366,0.366,0.55,0.934,0.55,1.7c0,0.899-0.383,1.684-1.15,2.35
			c-1.133,0.867-2.85,0.95-5.149,0.25c0.267,1.267,0.75,2.434,1.45,3.5c0.566,0.867,0.85,1.7,0.85,2.5c0,1.934-0.684,2.9-2.05,2.9
			c-2.434,0-4.351-2.084-5.75-6.25c-0.5-2.601-0.851-4.4-1.05-5.4c-0.5,1.167-1.217,2.283-2.15,3.351
			c-0.566,0.666-1.15,1.283-1.75,1.85c0.367-0.233,0.717-0.45,1.05-0.65c-0.899,0.767-1.783,1.483-2.649,2.15
			c0,0.167-0.033,0.366-0.101,0.6c0,0.934,0.601,2.267,1.8,4c0.4,0.667,0.95,1.483,1.65,2.45c0-0.066,0.033-0.1,0.1-0.1
			c0.134,0.267,0.283,0.55,0.45,0.85c0.2,0.3,0.434,0.634,0.7,1l-0.1,0.15H58.6c0.2,0.467,0.417,1,0.65,1.6
			c0.733,1.634,1.5,3.033,2.3,4.2c0.067,0.2-0.167,0.3-0.7,0.3c-1.166,0-2.184-1.066-3.05-3.2c-0.667-2.199-1-3.316-1-3.35
			c0-0.1,0.033-0.2,0.101-0.3c-0.7-0.566-1.467-1.384-2.301-2.45c-1.467-1.9-2.199-3.283-2.199-4.15c0-0.1,0.016-0.199,0.05-0.3
			c-0.233,0.167-0.45,0.351-0.65,0.55c0.033,0.4,0.05,0.884,0.05,1.45c0,0.5,0.25,2.184,0.75,5.05V57.9
			c0.233,0.5,0.5,1.033,0.801,1.6c0.8,1.434,1.833,2.634,3.1,3.6l0.1,0.25c-1.833-0.566-3.133-1.466-3.899-2.699
			c-0.167-0.5-0.317-0.934-0.45-1.301c-0.066,0.367-0.15,0.784-0.25,1.25c-0.3,1.767-0.5,3.284-0.6,4.551
			c-0.567-0.233-0.851-1.384-0.851-3.45c0-1.467,0.033-2.434,0.101-2.9c0.133-0.866,0.416-1.5,0.85-1.899v-0.2
			c-0.334-0.566-0.55-1.084-0.65-1.55c-0.033-0.267-0.05-1.134-0.05-2.601c0-0.2,0-0.399,0-0.6C45,55.917,40.033,57.9,35.9,57.9
			c-6.867,0-12.6-3.767-17.2-11.301c-0.534-0.899-1.034-1.783-1.5-2.649c-1.5,0.967-3.05,1.45-4.65,1.45L8.95,45.3
			c-0.167,0.2-0.25,0.05-0.25-0.45l3.35-2.899c1.2-1.033,2.2-1.9,3-2.601C14.883,38.983,14.75,38.634,14.65,38.3z M47.2,6.45
			c-1.634,0-3.083,1.233-4.351,3.7c-0.8,2.1-1.316,3.4-1.55,3.9c0.934,0.333,1.783,0.667,2.55,1c0.233-0.4,0.867-1.433,1.9-3.1
			c1.333-2.2,2-3.684,2-4.45c0.033-0.4,0.033-0.683,0-0.85C47.75,6.517,47.566,6.45,47.2,6.45z M39.4,0.95
			c-1.367,1.667-2.3,2.833-2.8,3.5c-0.933,1.133-1.5,2.05-1.7,2.75c-0.367-0.267-0.55-0.65-0.55-1.15c0-0.9,0.601-2.116,1.8-3.65
			C37.35,0.7,38.434,0.217,39.4,0.95z M31.6,3.3c1.134-2.333,2.417-3.433,3.851-3.3C34.017,2.033,32.733,3.133,31.6,3.3z M34.6,17.8
			c-0.966-0.2-1.983-0.216-3.05-0.05L31,17.5c3.3-1.467,4.95-1.133,4.95,1c0,0.5-0.25,1.083-0.75,1.75
			c-0.5,0.6-1.05,1.083-1.65,1.45c-0.1-0.367-0.15-0.8-0.15-1.3l0.6-0.9c0.4-0.566,0.6-1.1,0.6-1.6V17.8z M63.1,8.35
			c1.367-0.467,2.483,0.167,3.351,1.9c0.7,1.367,1.05,2.8,1.05,4.3c0,0.967-0.05,1.6-0.15,1.9c-0.232,0.867-0.833,1.316-1.8,1.35
			c0.5-1.2,0.75-2.267,0.75-3.2c0-1.167-0.183-2.283-0.55-3.35C65.15,9.684,64.267,8.717,63.1,8.35z M68.2,17.45
			c-0.101,0.233-0.15,0.1-0.15-0.4c0-0.2,0.384-0.883,1.15-2.05c0.7-1.066,0.933-2.367,0.7-3.9c0.866,0.1,1.3,0.867,1.3,2.3
			c0,0.767-0.233,1.517-0.7,2.25C69.9,16.583,69.133,17.184,68.2,17.45z M88.8,34.15c0,0.566-0.316,1.3-0.95,2.199
			c-0.732,0.967-1.5,1.584-2.3,1.851c-0.267,0.3-0.399,0.2-0.399-0.3c0-0.067,0.566-0.534,1.699-1.4
			c0.967-0.733,1.184-2.05,0.65-3.95C88.367,32.15,88.8,32.684,88.8,34.15z M83,32.15c-0.633-1.633-1.6-2.5-2.9-2.6
			c1.801-0.233,3.101,0.434,3.9,2c0.566,1.067,0.85,2.367,0.85,3.9c0,0.967-0.033,1.583-0.1,1.85c-0.2,0.867-0.7,1.5-1.5,1.9h-0.3
			c0.566-1.9,0.85-3.117,0.85-3.65C83.8,34.483,83.533,33.35,83,32.15z M36.15,34.75c0.5-5.8,2.833-10.167,7-13.1
			c-0.6,1.4-1.767,3.684-3.5,6.85c-1.533,2.867-2.583,5-3.15,6.4C36.3,34.967,36.184,34.917,36.15,34.75z M57.95,56.55
			c0.667-0.2,1.533-0.149,2.6,0.15c0.733,0.133,2.267,0.566,4.601,1.3c0,0.1,0.016,0.2,0.05,0.3c0,0.101-0.15,0.15-0.45,0.15
			c-3.9-0.5-6.084-0.983-6.55-1.45L57.95,56.55z"/>
		<path fill-rule="evenodd" clip-rule="evenodd" fill="#A6D573" d="M16.1,31c-0.333,0.133-0.683,0.25-1.05,0.35
			c-0.2-1.233-0.3-2.417-0.3-3.55c0-3.333,1.75-6.3,5.25-8.9c4.133-3.033,9.733-4.55,16.8-4.55c2.6,0,5.667,1.083,9.2,3.25
			c-0.667,0.9-1.267,1.816-1.8,2.75c1.233-0.967,2.05-1.733,2.45-2.3c0.1,0.034,0.232,0.1,0.399,0.2c0.167-0.1,0.25-0.217,0.25-0.35
			c-0.134-0.1-0.25-0.233-0.35-0.4c2.167-2.8,4.899-4.633,8.2-5.5l0.05,0.9c0,1.434-0.917,3.633-2.75,6.6
			c-1.867,2.733-2.8,4.2-2.8,4.4c0,0.534,0.25,0.867,0.75,1c0.266-0.2,1.066-1.316,2.399-3.35c1.7-1.933,3.7-2.9,6-2.9
			c0.733,0,1.351,0.35,1.851,1.05c0.399,0.566,0.6,1.183,0.6,1.85c0,1.467-1.15,3.384-3.45,5.75l-3.5,3.1c0,0.367,0.05,0.6,0.15,0.7
			c0.066,0,0.25,0.05,0.55,0.15c1.166-0.5,1.95-0.75,2.35-0.75c1.367,0,2.483,0.434,3.351,1.3c0.633,0.667,0.95,1.267,0.95,1.8
			c0,0.934-1.434,1.934-4.301,3c-0.8,0.301-2.633,0.867-5.5,1.7c0.066,0.134,0.384,0.5,0.95,1.101c0.533,0.633,0.8,1.017,0.8,1.149
			c0,0.334-0.449,0.767-1.35,1.3c-1.167,0.667-3.783,1-7.85,1c-0.367,0-0.684,0-0.95,0c1.233,1.034,2.833,1.551,4.8,1.551
			c2.033,0,3.75-0.483,5.15-1.45c1.1-0.834,1.649-1.584,1.649-2.25c0-0.4-0.2-0.851-0.6-1.351c2.7-0.566,4.866-1.433,6.5-2.6
			C62.316,35.717,63,34.667,63,33.6c0-0.6-0.117-1.149-0.35-1.649c0.6-0.4,1.383-1.034,2.35-1.9c1.566-1.4,2.633-2.2,3.2-2.4
			c0.066,0.067,0.116,0.067,0.149,0c0.066,0.067,0.101,0.25,0.101,0.55c0,1.066-0.717,2.267-2.15,3.6l-2.149,1.95
			c0,0.333,0.05,0.55,0.149,0.65c0.101,0.033,0.25,0.083,0.45,0.149c0.533,0,0.9-0.133,1.1-0.399c0.301-0.301,0.584-0.5,0.851-0.601
			l3.95-0.1c0.033,0.066,0.283,0.233,0.75,0.5c0.366,0.2,0.55,0.416,0.55,0.649c0,0.567-0.667,1.317-2,2.25
			c-1.634,1.101-3.367,1.534-5.2,1.301c-0.2,0-0.35,0.017-0.45,0.05c-0.134,0.066-0.2,0.25-0.2,0.55c0,0.5,0.066,0.75,0.2,0.75
			c1.8-0.1,3.45,0.35,4.95,1.35c1.233,0.834,1.85,1.5,1.85,2c-0.133,0.4-0.482,0.917-1.05,1.551H67.6
			c-0.666-0.2-1.566-0.733-2.699-1.601l-1.5-1.25c-0.5,0-0.75,0.2-0.75,0.601c0.1,0.233,1.033,1.85,2.8,4.85
			c1.133,1.934,1.7,3.45,1.7,4.55c0,0.634-0.101,1.101-0.301,1.4c-2.6-1.8-4.383-3.884-5.35-6.25
			c-0.566-1.334-0.983-3.283-1.25-5.851c-0.033-0.233-0.05-0.483-0.05-0.75h-0.15l-0.1-0.149c-0.034,0.066-0.05,0.116-0.05,0.149
			h-0.15c-0.133,0.2-0.217,0.434-0.25,0.7c-1.533,2.601-3.4,5.101-5.6,7.5c-0.033-0.066-0.084-0.116-0.15-0.149
			c-0.3,0.199-0.566,0.583-0.8,1.149c-0.267,0.2-0.5,0.417-0.7,0.65c-0.267,0.1-0.517,0.2-0.75,0.3
			c-0.066-0.134-0.133-0.25-0.2-0.35c-0.134,0.1-0.233,0.316-0.3,0.649c-0.633,0.334-1.283,0.667-1.95,1V51.5
			c0-0.934-0.649-1.4-1.95-1.4c-0.5,0-1.083,0.184-1.75,0.551c-0.699,0.3-1.3,0.449-1.8,0.449c-0.267,0-0.533,0-0.8,0
			c0.066-0.366,0.117-0.649,0.15-0.85c2.867,0.267,4.65-0.6,5.35-2.6c-0.434,0-0.816,0.233-1.15,0.699
			c-0.3,0.467-1.267,0.7-2.899,0.7c-1.167,0-2.134-0.583-2.9-1.75c-0.8-1.166-1.283-1.75-1.45-1.75c-0.3,0-0.5,0.05-0.6,0.15
			c-0.033,0.133-0.083,0.233-0.15,0.3c-0.033,0.6,0.351,1.467,1.15,2.6c0.7,0.967,1.133,1.733,1.3,2.301c0,0.133,0,0.25,0,0.35
			c-0.1,0.167-0.4,0.25-0.9,0.25h-0.1c-1.1-0.066-2.116-0.75-3.05-2.05c-0.267-0.334-0.467-0.7-0.6-1.101
			c-0.367-0.566-0.683-1.233-0.95-2c-1-3.533-1.583-5.533-1.75-6c-0.3,0.5-0.45,1.267-0.45,2.301c0,0.1,0.517,1.816,1.55,5.149
			c0.1,0.233,0.167,0.417,0.2,0.55h-0.2c-1.8,0.367-2.866,0.551-3.2,0.551c-2.033,0-3.899-1.301-5.6-3.9
			c-1.434-2.2-3.167-3.467-5.2-3.8c-0.1-0.533-0.066-1.134,0.1-1.8c1-1.667,1.817-3.467,2.45-5.4v-0.05c0.101-0.233,0.2-0.4,0.3-0.5
			c0.867-1.1,1.85-1.883,2.95-2.35c0.867-0.4,1.817-0.6,2.851-0.6c0.5,0,0.933,0.017,1.3,0.05l0.5-0.3
			c-1.5-0.1-2.867-0.017-4.1,0.25c0.3-0.367,0.6-0.733,0.9-1.1c2-2.333,3-4.133,3-5.4c0-3.733-1.5-5.183-4.5-4.35
			c-2.9,0.767-5.467,3.317-7.7,7.65l0.05-1.7c0-1.733-0.567-2.5-1.7-2.3c-1.101,0.267-1.65,1.184-1.65,2.75
			c0,0.567,0.05,1.134,0.15,1.7v0.15c-0.067,0.4-0.101,0.983-0.101,1.75V31z M47.2,6.45c0.366,0,0.55,0.066,0.55,0.2
			c0.033,0.167,0.033,0.45,0,0.85c0,0.767-0.667,2.25-2,4.45c-1.033,1.667-1.667,2.7-1.9,3.1c-0.767-0.333-1.616-0.667-2.55-1
			c0.233-0.5,0.75-1.8,1.55-3.9C44.117,7.684,45.566,6.45,47.2,6.45z M20.15,41.1c0.167-0.166,0.3-0.35,0.4-0.55
			c0,0.2,0.017,0.384,0.05,0.55C20.467,41.1,20.316,41.1,20.15,41.1z M34.6,17.8v0.1c0,0.5-0.2,1.034-0.6,1.6l-0.6,0.9
			c0,0.5,0.05,0.934,0.15,1.3c0.6-0.367,1.15-0.85,1.65-1.45c0.5-0.667,0.75-1.25,0.75-1.75c0-2.133-1.65-2.467-4.95-1l0.55,0.25
			C32.617,17.583,33.633,17.6,34.6,17.8z M36.15,34.75c0.034,0.167,0.15,0.217,0.35,0.15c0.566-1.4,1.617-3.534,3.15-6.4
			c1.733-3.167,2.9-5.45,3.5-6.85C38.983,24.583,36.65,28.95,36.15,34.75z"/>
		<path fill-rule="evenodd" clip-rule="evenodd" fill="#E4A94D" d="M17.2,37.45c0.133-0.2,0.333-0.434,0.6-0.7
			c-0.267-0.167,0.7-1.033,2.9-2.6c-2.634,1.433-4.284,2.35-4.95,2.75c-1.4,0.767-2.983,1.149-4.75,1.149S7.733,37.8,6.5,37.3
			c-1.167-0.467-1.983-0.934-2.45-1.399c0.1,0,2.4-0.65,6.9-1.95c0.633-0.233,1.899-0.65,3.8-1.25c2.9-0.4,4.917-0.6,6.05-0.6
			c0.333,0,0.7,0.066,1.1,0.2c0.233,0.067,0.467,0.15,0.7,0.25c0.167,0.1,0.317,0.2,0.45,0.3c0-0.033,0.033-0.05,0.1-0.05
			c-1.567,2.233-2.417,4.084-2.55,5.55c-0.133,0.2-0.283,0.384-0.45,0.551c-0.533,0.666-1.133,1.267-1.8,1.8
			c0.101,0,0.25,0.033,0.45,0.1c-3.366,1.834-5.983,3.033-7.85,3.601L11.3,44c1.367-0.9,3.25-2.733,5.65-5.5l-0.05-0.05
			c0.133-0.334,0.284-0.617,0.45-0.851L17.2,37.45z"/>
	</g>
</g>
</svg>
