<?xml version="1.0" encoding="utf-8"?>
<!-- Generator: Adobe Illustrator 16.0.0, SVG Export Plug-In . SVG Version: 6.00 Build 0)  -->
<!DOCTYPE svg PUBLIC "-//W3C//DTD SVG 1.1//EN" "http://www.w3.org/Graphics/SVG/1.1/DTD/svg11.dtd">
<svg version="1.1" id="Layer_1" xmlns="http://www.w3.org/2000/svg" xmlns:xlink="http://www.w3.org/1999/xlink" x="0px" y="0px"
	 width="73.85px" height="161.9px" viewBox="0 0 73.85 161.9" enable-background="new 0 0 73.85 161.9" xml:space="preserve">
<g>
	<g>
		<path fill-rule="evenodd" clip-rule="evenodd" fill="#4F2F2B" d="M21.9,21.7c-0.067-0.034-0.133-0.083-0.2-0.15
			c-3.367-3.066-5.817-5.1-7.35-6.1c-1.633-1.1-2.3-2.25-2-3.45c0.3-1.233,1.383-1.717,3.25-1.45c1.267,0.233,2.617,0.767,4.05,1.6
			c1,0.533,1.617,0.817,1.85,0.85c0.233,0.066,0.283-0.1,0.15-0.5c-0.267-0.7-0.483-1.833-0.65-3.4
			c-0.167-1.333-0.017-2.65,0.45-3.95c0.5-1.267,1.083-1.9,1.75-1.9c0.2,0,0.616,0.333,1.25,1c0.667,0.7,1.366,1.517,2.1,2.45
			c1.7,2.3,2.684,3.466,2.95,3.5c0.233,0,0.467-0.534,0.7-1.6c0.267-1.133,0.683-1.95,1.25-2.45c0.6-0.533,1.45-0.8,2.55-0.8
			c0.8,0,1.3-0.067,1.5-0.2s0.3-0.467,0.3-1c0-0.9,0.4-1.817,1.2-2.75S38.583,0,39.35,0c1.7,0,2.768,1.883,3.2,5.65
			c0.167,1.7,0.017,3.65-0.45,5.85c-0.433,2.233-1,3.9-1.699,5c-0.801,1.2-0.967,1.667-0.5,1.4c0.5-0.333,1.717-1.433,3.649-3.3
			c1.967-1.9,3.417-3.083,4.351-3.55c0.967-0.4,2.017-0.4,3.149,0c0.601,0.233,0.884,0.817,0.851,1.75
			c-0.033,0.934-0.384,2.017-1.051,3.25c-0.467,0.967-1.649,2.383-3.55,4.25c-1.2,1.167-2.1,1.967-2.7,2.4
			c-1-0.2-2.217-0.034-3.649,0.5c0.533-0.434,1.2-0.934,2-1.5c2.167-1.6,3.95-3.15,5.35-4.65c0.067-0.066,0.117-0.117,0.15-0.15
			c0.066-0.067,0.116-0.133,0.149-0.2c0.033-0.034,0.067-0.067,0.101-0.1l0.85-1.2c0.233-0.367,0.434-0.7,0.601-1H50.1
			c0.167-0.4,0.25-0.75,0.25-1.05c0-0.633-0.366-0.95-1.1-0.95s-1.383,0.333-1.95,1c-1.7,2-3.267,3.6-4.7,4.8
			c-0.1,0.066-0.183,0.133-0.25,0.2l-0.199,0.2l-3.051,2c-0.3,0.133-0.616,0.283-0.949,0.45c-0.033,0.033-0.067,0.05-0.101,0.05
			l-0.35,0.15v0.05h-0.05l-0.2,0.1c-0.033,0-0.067,0.017-0.101,0.05c-0.333,0.133-0.616,0.25-0.85,0.35h-0.05
			c-0.167,0.033-0.3,0.083-0.4,0.15c-0.033,0-0.066,0-0.1,0c-0.067,0.033-0.134,0.05-0.2,0.05h-0.025
			c-0.355,0.063-0.647,0.013-0.875-0.15c-0.067-0.034-0.117-0.083-0.15-0.15c-0.2-0.267-0.217-0.583-0.05-0.95s0.583-0.867,1.25-1.5
			V19.2h0.05c0.366-0.367,0.8-0.884,1.3-1.55c0.133-0.233,0.283-0.467,0.45-0.7l1.45-2.2c0.033-0.1,0.083-0.2,0.149-0.3
			c0.067-0.1,0.117-0.2,0.15-0.3c0.733-1.367,1.217-2.467,1.45-3.3C41.1,9.983,41.2,8.8,41.2,7.3c0-3.767-0.617-5.65-1.851-5.65
			c-0.5,0-0.949,0.567-1.35,1.7c-0.4,1.066-0.5,2.05-0.3,2.95c0.267,1.233,0.133,2.783-0.4,4.65c0,0.033,0,0.066,0,0.1
			c-0.3,1-0.717,2.117-1.25,3.35c-0.3,0.7-0.633,1.417-1,2.15c-0.5,1-0.983,1.9-1.45,2.7c-0.034,0.033-0.05,0.066-0.05,0.1l-0.65,1
			c-0.167,0.2-0.317,0.4-0.45,0.6c-0.6,0.767-1.134,1.316-1.6,1.65l-0.5,0.25c-0.067,0.033-0.133,0.066-0.2,0.1
			c-0.067,0-0.133,0.017-0.2,0.05H29.9c-0.078,0-0.145,0-0.2,0c-0.067,0-0.134-0.017-0.2-0.05c0.2,0.566,0.45,1.233,0.75,2
			c1.066,2.7,1.6,4.233,1.6,4.6c0,0.267-0.034,0.383-0.1,0.35l-0.15-0.1c-0.667-0.933-1.267-2.133-1.8-3.6
			c-0.133-0.434-0.267-0.867-0.4-1.3c0-0.033,0-0.067,0-0.1c-0.033-0.033-0.05-0.066-0.05-0.1c-0.034-0.134-0.067-0.284-0.1-0.45
			c-0.333-1.067-0.684-2.434-1.05-4.1h0.2l0.05,0.075v0.025c0,0.066,0.05,0.233,0.15,0.5c0-0.1,0-0.184,0-0.25
			c-0.067-1.2,0.017-2.583,0.25-4.15c0.033-0.434,0.083-0.867,0.15-1.3c0.2-1.2,0.2-2.066,0-2.6c-0.2-0.567-0.983-1.7-2.35-3.4
			c-0.767-0.967-1.483-1.783-2.15-2.45c-0.633-0.667-1-0.967-1.1-0.9C23,5.933,22.867,6.833,23,8.4s0.467,3.1,1,4.6
			c0.667,2.033,1.117,4.05,1.35,6.05c0.2,1.4,0.25,2.267,0.15,2.6c-0.066,0.233-0.283,0.317-0.65,0.25
			c-0.067,0-0.15-0.017-0.25-0.05c-0.233-0.067-0.434-0.1-0.6-0.1c-0.4-0.033-0.667,0.083-0.8,0.35c-0.1,0.133-0.3,0.15-0.6,0.05
			h-0.05C22.316,22.017,22.1,21.867,21.9,21.7z M6.4,36.65c-1.833,1.167-2.75,2.117-2.75,2.85c0,0.5,0.1,0.75,0.3,0.75
			c0.533,0,3.183-1.317,7.95-3.95c1.367-0.8,2.367-1.3,3-1.5c0.6-0.2,1.017-0.183,1.25,0.05c0.1,0.1,0.183,0.216,0.25,0.35v0.2
			c0,0.067-0.033,0.15-0.1,0.25c-0.033,0.1-0.1,0.2-0.2,0.3c0.7-0.367,1.433-0.667,2.2-0.9c0.267-0.133,0.55-0.233,0.85-0.3
			c0.933-0.267,1.883-0.434,2.85-0.5c0.133-0.033,0.267-0.05,0.4-0.05l0.35,0.35c-0.066,0.467-0.533,0.767-1.4,0.9l0.75-0.5
			l0.15-0.15c-0.233,0.067-0.45,0.133-0.65,0.2c-3.534,0.933-6.317,2.217-8.35,3.85c-0.367,0.333-0.833,0.816-1.4,1.45
			c-0.434,0.467-0.917,1.033-1.45,1.7c-0.1,0.167-0.2,0.35-0.3,0.55c-1.434,2.967-2.15,4.9-2.15,5.8c0,1.367,0.4,1.8,1.2,1.3
			c0.733-0.533,1.95-2.033,3.65-4.5V45.1c2.134-3.167,3.817-5.434,5.05-6.8c1.267-1.367,1.9-1.633,1.9-0.8c0,0.4-0.7,1.7-2.1,3.9
			c-0.233,0.4-0.45,0.8-0.65,1.2c-0.3,0.466-0.55,0.933-0.75,1.4c-0.333,0.767-0.45,1.217-0.35,1.35c0.233,0.367,0.3,1.617,0.2,3.75
			c-0.067,1.433,0,2.533,0.2,3.3c0.233,0.8,0.8,2.017,1.7,3.65c1.167,2.1,2.467,3.684,3.9,4.75c1.433,1.1,3.383,1.934,5.85,2.5
			c1.833,0.467,4.333,0.6,7.5,0.4c1.833-0.134,3.65-0.35,5.45-0.65c0.433-0.066,0.866-0.15,1.3-0.25c0.467-0.1,0.917-0.2,1.35-0.3
			c0.134-0.033,0.268-0.067,0.4-0.1c-0.2-0.8-0.367-1.983-0.5-3.55c0-0.067-0.017-0.133-0.05-0.2c-0.233-1.1-0.667-2.05-1.3-2.85
			c-1.268,0.2-3.167,0.333-5.7,0.4c-3.2,0.1-4.667,0.017-4.4-0.25c0.367-0.367,1.567-0.65,3.6-0.85c2.633-0.3,5.25-1.034,7.85-2.2
			h0.05c0-0.033,0.017-0.05,0.05-0.05c0.033-0.034,0.084-0.05,0.15-0.05c0.066-0.033,0.117-0.066,0.15-0.1
			c0.967-0.467,1.866-0.95,2.699-1.45c-0.199-0.3-0.399-0.6-0.6-0.9c-1.267-1.867-2.85-3.7-4.75-5.5l0.1-0.4
			c1.9,1.167,3.533,2.733,4.9,4.7c0.133,0.167,0.25,0.333,0.35,0.5c0.268,0.4,0.5,0.783,0.7,1.15c0.134-0.1,0.283-0.2,0.45-0.3
			c0.8-0.6,1.55-1.233,2.25-1.9c0.133-0.1,0.25-0.217,0.35-0.35c0.067-0.067,0.15-0.133,0.25-0.2c0-0.033,0.018-0.066,0.051-0.1
			h0.05c0.533-0.6,1.1-1.367,1.7-2.3c0.133-0.2,0.283-0.417,0.449-0.65c0.167-0.333,0.351-0.667,0.551-1
			c-0.301-0.233-0.617-0.483-0.95-0.75c-0.267-0.2-0.533-0.434-0.8-0.7C51.3,42.483,51.2,42.4,51.1,42.3
			c-1.6-1.533-2.85-2.7-3.75-3.5v-0.15c0.967,0.267,1.9,0.733,2.801,1.4c0.399,0.267,0.783,0.583,1.149,0.95
			c0.134,0.1,0.25,0.217,0.351,0.35c0.5,0.533,1.083,1.25,1.75,2.15c0.232-0.467,0.482-0.967,0.75-1.5
			c1.333-2.767,2.1-4.917,2.3-6.45c0.066-0.767,0.1-1.433,0.1-2c-0.033-0.533-0.1-0.8-0.2-0.8c-0.3,0-1.183-0.633-2.649-1.9
			c-0.9-0.767-1.567-1.284-2-1.55c0-0.033,0-0.066,0-0.1c0-0.6,0-1.034,0-1.3c0.066,0,0.149,0,0.25,0c0.267,0,0.566,0.067,0.899,0.2
			c0.334,0.167,0.584,0.333,0.75,0.5c0.5,0.466,1.384,1.133,2.65,2c1.267,0.9,2.217,1.75,2.85,2.55c0.7,0.867,1.25,1.5,1.65,1.9
			c0.566,0.567,1.066,1.867,1.5,3.9c0.434,2.033,0.65,4.083,0.65,6.15c0.033,2.533-0.367,4.683-1.2,6.45s-2.367,3.8-4.601,6.1
			c-1.899,1.9-3.35,3.2-4.35,3.9c-1.033,0.733-2.167,1.233-3.4,1.5c-0.833,0.167-1.333,0.3-1.5,0.4C47.55,63.65,47.4,64,47.4,64.5
			c0.066,0.667,0.883,3.283,2.449,7.85c0.268,0.8,0.5,1.733,0.7,2.8s0.3,1.95,0.3,2.65c0,1.667,0.184,3.033,0.551,4.101
			c0.133,0.433,0.267,1.533,0.399,3.3c0.167,1.767,0.267,3.683,0.3,5.75c0.101,2.833,0.233,4.933,0.4,6.3
			c0.167,1.434,0.417,2.533,0.75,3.3c0.367,0.867,0.583,1.767,0.65,2.7c0.1,0.934,0.1,2.366,0,4.3
			c-0.167,3.167-0.551,7.467-1.15,12.9c-0.566,5.366-1.217,10.483-1.95,15.35c-0.333,2.4-0.316,4.05,0.05,4.95
			c0.301,0.833,1.033,1.633,2.2,2.4c1.167,0.767,2.233,1.166,3.2,1.199c0.8,0,2.417,0.417,4.85,1.25
			c2.434,0.801,3.934,1.434,4.5,1.9c0.567,0.5,0.817,1,0.75,1.5c-0.033,0.5-0.383,0.95-1.05,1.35c-0.7,0.434-1.017,0.783-0.95,1.051
			c0.067,0.267,0.567,0.566,1.5,0.899c0.667,0.2,1.101,0.267,1.301,0.2l0.05-0.05c0.1-0.101,0.2-0.351,0.3-0.75
			c0.333,0.767,0.617,1.149,0.85,1.149c0.4,0,0.65,1.117,0.75,3.351c0,0.066,0,0.149,0,0.25c-0.267,0.267-0.533,0.533-0.8,0.8
			l-1.2,0.05c-0.8,0.033-1.649,0.066-2.55,0.101H64.5c-2.167,0.033-4.6,0.066-7.3,0.1c-1.601,0-2.884,0-3.851,0
			c-1.366-0.033-2.083-0.083-2.149-0.15c-0.167-0.133-2.717-0.199-7.65-0.199c-1.933,0-3.616-0.018-5.05-0.051
			c-2.233-0.066-3.883-0.166-4.95-0.3c-1.533-0.167-2.517-0.517-2.95-1.05l-0.05-0.05c-0.033-0.067-0.066-0.117-0.1-0.15
			c-0.167-0.333-0.233-0.649-0.2-0.95c0.066-0.267,0.267-0.583,0.6-0.949c0.466-0.434,0.6-0.684,0.4-0.75
			c-0.233-0.067-1.05-0.018-2.45,0.149l-3.05,0.3l-0.35-0.899v-0.05v-0.051c-0.133-0.566-0.2-1.1-0.2-1.6
			c0.5-0.667,0.95-1.25,1.35-1.75c0.134-0.066,0.283-0.134,0.45-0.2c0.566-0.233,1.333-0.6,2.3-1.1c1.867-1,3.184-1.8,3.95-2.4
			c0.867-0.667,1.417-1.217,1.65-1.649c0.267-0.467,0.4-1.117,0.4-1.95l-0.05-8.351c0-4.066-0.05-7.483-0.15-10.25
			c0-1.5,0.033-2.5,0.1-3c0.066-0.333,0.183-0.55,0.35-0.649c0.067-0.067,0.15-0.101,0.25-0.101h0.15
			c0.233,0.101,0.45,0.434,0.649,1v0.051c0,0.033,0.018,0.066,0.051,0.1v0.05c0.1,0.4,0.199,0.917,0.3,1.55
			c0.033,0.367,0.066,0.767,0.1,1.2c0.2,2.566,0.233,6.617,0.101,12.15l-0.2,9.1l-1.75,1.5c-1.233,1-2.767,1.934-4.6,2.8
			c-0.767,0.367-1.434,0.733-2,1.101c-0.567,0.399-0.85,0.683-0.85,0.85c0,0.4,0.717,0.467,2.15,0.2c1.4-0.3,2.8-0.783,4.2-1.45
			c1.5-0.767,2.45-0.95,2.85-0.55c0.1,0.1,0.183,0.233,0.25,0.4c0.033,0.166,0.033,0.366,0,0.6c-0.067,0.267-0.184,0.6-0.351,1
			c-0.066,0.1-0.133,0.2-0.199,0.3c-0.367,0.634-0.8,1.184-1.3,1.65c-0.1,0.1-0.2,0.2-0.3,0.3c-0.267,0.2-0.533,0.383-0.8,0.55
			c-0.2,0.101-0.367,0.217-0.5,0.351c-0.267,0.166-0.483,0.316-0.65,0.449c-0.167,0.134-0.284,0.25-0.35,0.351
			c-0.066,0.066-0.1,0.116-0.1,0.149v0.051c0,0.3,2.883,0.482,8.65,0.55c2.134,0.033,4.684,0.05,7.65,0.05c1.733,0,3.35,0,4.85,0
			c1.833-0.033,3.483-0.066,4.95-0.1c4.6-0.101,7.117-0.284,7.55-0.551c0.333-0.166,0.384-0.366,0.15-0.6
			c-0.2-0.233-0.8-0.566-1.8-1c-0.667-0.3-1.434-0.566-2.301-0.8c-0.833-0.2-1.5-0.3-2-0.3c-0.467,0-0.982-0.084-1.55-0.25
			c-0.533-0.167-0.95-0.351-1.25-0.551c-0.1-0.066-0.2-0.133-0.3-0.199c-0.233-0.233-0.367-0.417-0.4-0.551v-0.05
			c0-0.066,0-0.116,0-0.149c0.033-0.167,0.15-0.351,0.351-0.551c0-0.033,0.017-0.066,0.05-0.1c0.467-0.566,1.75-0.85,3.85-0.85
			c0.134,0,0.283,0,0.45,0c0.067,0,0.134,0,0.2,0c0.6-0.034,1.15-0.067,1.65-0.101c0.633-0.1,1-0.217,1.1-0.35
			c0.167-0.267-0.95-0.8-3.35-1.601c-2.434-0.8-4.134-1.199-5.101-1.199c-1,0-2.033-0.284-3.1-0.851c-1.033-0.6-2-1.417-2.9-2.45
			c-0.733-0.866-1.149-1.6-1.25-2.199c-0.1-0.601-0.066-2.184,0.101-4.75c0.232-3.467,0.517-5.617,0.85-6.45
			c0.333-0.834,0.6-2.75,0.8-5.75c0.067-0.934,0.15-1.817,0.25-2.65l0.45-4.399v-0.051c0.033-0.233,0.066-0.416,0.1-0.55
			c0.033-0.3,0.067-0.583,0.101-0.85c0.366-2.667,0.467-4.084,0.3-4.25c-0.1-0.067-0.65-0.033-1.65,0.1
			c-0.333,0.033-0.717,0.083-1.149,0.15c-0.267,0.033-0.533,0.066-0.8,0.1c-0.334,0.033-0.667,0.083-1,0.15
			c-0.101,0-0.184,0.017-0.25,0.05c-0.9,0.133-1.768,0.25-2.601,0.35v-0.05c-0.1,0-0.183,0.017-0.25,0.05
			c-0.467,0.033-0.899,0.051-1.3,0.051c-0.333,0-0.633,0-0.9,0c-0.166-0.034-0.316-0.051-0.449-0.051c-0.033,0-0.067,0-0.101,0
			c-0.2,0-0.383,0-0.55,0c-0.267-0.033-0.517-0.05-0.75-0.05v-0.05c-0.5-0.066-0.934-0.134-1.3-0.2c-0.4-0.1-0.733-0.217-1-0.35
			c-0.067-0.033-0.134-0.067-0.2-0.101c-0.033,0-0.066-0.017-0.1-0.05c-0.634-0.399-0.601-0.684,0.1-0.85
			c0.066,0,0.15-0.017,0.25-0.05c0.167-0.034,0.367-0.051,0.6-0.051c0.834-0.1,2.101-0.166,3.801-0.199
			c1.1-0.034,2.166-0.084,3.199-0.15c0.101-0.033,0.2-0.05,0.301-0.05c0.267-0.033,0.55-0.067,0.85-0.101
			c0.267-0.033,0.517-0.05,0.75-0.05c0.533-0.1,1-0.184,1.4-0.25c0.133-0.033,0.267-0.066,0.399-0.1c0.2-0.067,0.367-0.134,0.5-0.2
			L51.7,108l0.05-0.8l0.05-1.4v-1c-0.467,0.167-1.017,0.333-1.649,0.5c-0.934,0.233-1.617,0.417-2.051,0.55
			c-0.267,0.067-0.433,0.117-0.5,0.15c-0.166-0.033-0.316-0.117-0.449-0.25c-0.067-0.066-0.134-0.134-0.2-0.2
			c0.267-0.066,1.883-0.383,4.85-0.95v-0.149c0.101-1.867,0.067-2.967-0.1-3.3c-0.2-0.301-0.65-0.134-1.351,0.5
			c-0.467,0.466-2.1,0.916-4.899,1.35c-2.767,0.467-4.467,0.583-5.101,0.35c-1.699-0.633-0.649-1.217,3.15-1.75
			c0.133-0.033,0.283-0.05,0.45-0.05c0.033-0.033,0.066-0.05,0.1-0.05c0.101,0,0.2-0.017,0.3-0.05c0.301-0.033,0.601-0.084,0.9-0.15
			c1.3-0.233,2.316-0.5,3.05-0.8c0.233-0.1,0.45-0.2,0.65-0.3c0.167-0.134,0.3-0.25,0.399-0.351c0.067-0.066,0.134-0.133,0.2-0.199
			V99.6c0-0.033,0.017-0.05,0.05-0.05L50.2,95.8c-0.033-0.866-0.083-1.85-0.15-2.95c-0.366-5.666-0.8-10.467-1.3-14.399V78.4
			c-0.233-1.5-0.45-2.867-0.65-4.1c0,0.2,0,0.434,0,0.7c-0.133,2.5-0.267,4.75-0.399,6.75c-0.3,4.366-0.601,7.483-0.9,9.35
			c-0.033,0.233-0.066,0.45-0.1,0.65h-0.2c0.066-0.367,0.133-0.75,0.2-1.15c0.333-2.267,0.55-4.967,0.649-8.1
			c0-0.033,0.018-1.066,0.051-3.1c0-1.467,0.017-3.483,0.05-6.05c0.133-0.1,0.283-0.15,0.45-0.15
			c-0.167-0.867-0.351-1.684-0.551-2.45c-0.066-0.233-0.116-0.45-0.149-0.65c-0.033-0.067-0.05-0.133-0.05-0.2
			c-0.033-0.067-0.051-0.117-0.051-0.15c-0.066-0.233-0.133-0.467-0.199-0.7c-0.033-0.066-0.051-0.133-0.051-0.2
			c-0.1-0.233-0.166-0.45-0.199-0.65c-0.334-0.934-0.684-1.7-1.051-2.3c-0.366-0.667-0.717-1.067-1.05-1.2
			c-0.133-0.067-0.283-0.117-0.45-0.15c-0.199-0.033-0.433-0.033-0.699,0c-0.134,0.033-0.25,0.05-0.351,0.05l-3.7,0.65
			c-0.066,0-0.133,0.017-0.199,0.05c-0.067,0-0.117,0-0.15,0c-1.133,0.2-1.85,0.383-2.15,0.55c-0.366,0.2-0.467,0.533-0.3,1
			c0.267,0.533-0.017,1.933-0.85,4.2c-0.767,2.267-1.684,4.25-2.75,5.95c-1.2,1.967-2.45,4.2-3.75,6.7l-3.25,6.2
			c-1.034,1.933-1.7,4-2,6.199c-0.3,2.167-0.167,3.834,0.4,5c0.633,1.334,1.25,2.167,1.85,2.5c0.6,0.301,1.917,0.5,3.95,0.601
			l3.65,0.149l2.05-2.3c1.767-1.967,3.133-4.649,4.1-8.05c0.933-3.4,1.616-8,2.05-13.8c0.1-1.434,0.383-3.083,0.85-4.95
			c0.2-0.833,0.384-1.45,0.551-1.85c0.199-0.533,0.35-0.767,0.449-0.7c0.233,0.133,0.268,0.75,0.101,1.85
			c-0.033,0.233-0.067,0.467-0.101,0.7c-0.333,1.7-0.5,4.167-0.5,7.4c0,1.399-0.083,2.883-0.25,4.449
			c-0.166,1.533-0.366,2.733-0.6,3.601l-1.65,5.85c-0.433,1.634-1.017,3.05-1.75,4.25c-0.732,1.167-1.767,2.4-3.1,3.7
			c-0.566,0.566-1,1.1-1.3,1.6c-0.134,0.233-0.233,0.467-0.3,0.7c-0.033,0.066-0.05,0.134-0.05,0.2c-0.034,0.333,0,0.767,0.1,1.3
			c0.033,0.267,0.1,0.583,0.2,0.95c0.133,0.4,0.284,0.866,0.45,1.4c0.167,0.566,0.316,1.216,0.45,1.949
			c0,0.134,0.017,0.283,0.05,0.45c0.133,0.934,0.183,1.733,0.15,2.4c-0.066,0.566-0.133,1.033-0.2,1.399
			c-0.033,0.233-0.083,0.417-0.15,0.551c-0.2,0.267-0.55,0.449-1.05,0.55c-0.367,0.033-0.733,0.017-1.1-0.05
			c-0.4-0.067-0.684-0.2-0.85-0.4c-0.3-0.2-0.533-0.233-0.7-0.1c-0.2,0.166-0.434,0.566-0.7,1.199c-0.2,0.467-0.5,0.917-0.9,1.351
			c-0.367,0.399-0.733,0.666-1.1,0.8c-1.4,0.533-2.417,0.583-3.05,0.15c-0.634-0.434-1.167-1.584-1.6-3.45l-0.65-2.9l-0.85,1.95
			c-0.833,1.9-2.117,3.017-3.85,3.35c-1.767,0.334-2.867-0.316-3.3-1.949c-0.167-0.667,0.017-1.717,0.55-3.15
			c0.5-1.434,1.15-2.65,1.95-3.65c0.767-0.967,1-1.449,0.7-1.449c-0.3-0.034-1.033,0.416-2.2,1.35
			c-1.967,1.533-3.817,2.316-5.55,2.35C9.383,113.417,8.5,112.7,8.5,111.2c0-0.7,0.25-1.533,0.75-2.5c0.467-0.967,1-1.65,1.6-2.05
			c0.167-0.101,0.167-0.233,0-0.4c-0.2-0.167-0.483-0.316-0.85-0.45c-0.7-0.267-1.217-0.85-1.55-1.75
			c-0.367-0.899-0.417-1.7-0.15-2.399c0.233-0.634,1.033-1.184,2.4-1.65c1.366-0.4,2.866-0.6,4.5-0.6
			c1.966,0.066,3.517-0.167,4.65-0.7c1.167-0.5,1.816-1.217,1.95-2.15c0.167-1.267,0.7-3.017,1.6-5.25c0.9-2.2,1.867-4.116,2.9-5.75
			c1.333-2.2,2-3.417,2-3.649c0-0.2,0.867-1.8,2.6-4.8c2.6-4.4,3.9-7.717,3.9-9.95c0-0.5-0.167-0.817-0.5-0.95
			c-0.267-0.134-1.05-0.2-2.35-0.2c-3.333,0-6.8-0.983-10.4-2.95c-1.033-0.6-1.866-1.233-2.5-1.9c-0.633-0.7-1.35-1.75-2.15-3.15
			c-1.466-2.533-2.367-4.517-2.7-5.95c-0.333-1.467-0.233-2.883,0.3-4.25c0.233-0.6,0.383-1.117,0.45-1.55
			c0.066-0.434,0.033-0.65-0.1-0.65s-0.233,0.05-0.3,0.15c-0.133,0.1-0.2,0.217-0.2,0.35c0,0.333-0.8,1.4-2.4,3.2
			c-1,1.067-1.75,1.767-2.25,2.1s-1.05,0.467-1.65,0.4c-0.7-0.1-1.116-0.316-1.25-0.65c-0.1-0.333-0.133-1.45-0.1-3.35
			c0.066-2.566,0.267-4.066,0.6-4.5c0.333-0.433,0.6-0.933,0.8-1.5c0.1-0.333,0.1-0.55,0-0.65C8,41.083,7.7,41.1,7.2,41.2
			c-0.767,0.2-1.233,0.433-1.4,0.7c-0.267,0.4-0.983,0.633-2.15,0.7c-1.167,0.033-1.9-0.15-2.2-0.55C0.883,41.35,0.9,40.3,1.5,38.9
			c0.633-1.4,1.617-2.6,2.95-3.6c1.6-1.167,2.4-1.867,2.4-2.1c0-0.233-0.65-0.2-1.95,0.1c-2.4,0.567-3.95,0.1-4.65-1.4
			c-0.7-1.467-0.017-2.85,2.05-4.15c0.367-0.267,1.017-0.567,1.95-0.9c0.9-0.367,1.816-0.667,2.75-0.9
			c2.233-0.567,3.467-0.95,3.7-1.15c0.267-0.267-0.017-0.783-0.85-1.55c-1.2-1.133-1.6-2.15-1.2-3.05c0.4-0.934,1.55-1.534,3.45-1.8
			c1.333-0.133,2.65,0.067,3.95,0.6c1.333,0.6,2.9,1.683,4.7,3.25c0.967,0.833,1.8,1.517,2.5,2.05c0.5,0.4,0.95,0.717,1.35,0.95
			c0.1,0.066,0.2,0.117,0.3,0.15c0.034,0.033,0.067,0.067,0.1,0.1h0.05c0.233,0.1,0.45,0.217,0.65,0.35
			c0.733,0.466,1.35,0.983,1.85,1.55c0.6,0.767,0.733,1.3,0.4,1.6c-0.333,0.367-0.833,0.183-1.5-0.55c-0.6-0.7-1.134-1.05-1.6-1.05
			c-0.4,0-1.667-0.917-3.8-2.75c-2.066-1.767-3.517-2.867-4.35-3.3c-0.833-0.367-1.25-0.717-1.25-1.05c0-0.133-0.217-0.233-0.65-0.3
			c-0.433-0.067-0.967-0.067-1.6,0c-1.534,0.066-2.35,0.417-2.45,1.05c-0.066,0.3,0.316,0.733,1.15,1.3
			c0.8,0.533,2.25,1.35,4.35,2.45c4,1.967,6.283,3.117,6.85,3.45c0.633,0.333,0.95,0.617,0.95,0.85c0,0.267-0.217,0.4-0.65,0.4
			c-0.466,0-1.433-0.217-2.9-0.65c-1.467-0.467-2.367-0.817-2.7-1.05c-0.467-0.333-1.717-0.583-3.75-0.75
			c-1.566-0.133-3.267,0.017-5.1,0.45c-0.167,0-0.317,0.033-0.45,0.1H8.35C8.217,27.633,8.1,27.667,8,27.7
			c-0.733,0.2-1.417,0.433-2.05,0.7c-0.634,0.233-1.217,0.5-1.75,0.8c-0.267,0.167-0.517,0.333-0.75,0.5
			c-0.733,0.466-1.134,0.8-1.2,1c-0.033,0.066,0.033,0.15,0.2,0.25c0.1,0.066,0.25,0.15,0.45,0.25c0.7,0.233,1.4,0.3,2.1,0.2
			c0.934-0.167,2.367-0.317,4.3-0.45c0.6-0.034,1.233-0.067,1.9-0.1c1.566-0.067,2.767-0.083,3.6-0.05c0-0.033,0.017-0.066,0.05-0.1
			c1.3,0.133,3.233,0.466,5.8,1c0.233,0.033,0.467,0.083,0.7,0.15c0.433,0.066,0.883,0.133,1.35,0.2c0.5,0.067,1.017,0.15,1.55,0.25
			c1,0.1,2.083,0.217,3.25,0.35c0.467,0.067,0.967,0.117,1.5,0.15c0.066,0,0.133,0,0.2,0c0.233,0,0.433,0.033,0.6,0.1
			c0.2,0.033,0.3,0.117,0.3,0.25c-0.367,0.2-0.767,0.3-1.2,0.3c-0.533,0-1.133-0.017-1.8-0.05c-1.767-0.167-3.9-0.5-6.4-1
			c-0.2-0.067-0.4-0.117-0.6-0.15c-1.267-0.3-2.3-0.55-3.1-0.75c0.066,0.133,0.1,0.267,0.1,0.4c-0.034,0.033-0.05,0.083-0.05,0.15
			c-0.167,0.467-0.667,0.7-1.5,0.7c-1.467,0.033-3.45,0.717-5.95,2.05c-0.167,0.067-0.333,0.15-0.5,0.25
			c-0.233,0.133-0.483,0.267-0.75,0.4C7.617,35.85,6.967,36.25,6.4,36.65z M47.2,128.25c-0.7,4.133-1.101,6.983-1.2,8.55l-0.1,0.15
			c-0.101-0.233-0.15-0.601-0.15-1.101c0-1.166,0.333-4.1,1-8.8c0.1-0.6,0.184-1.167,0.25-1.7c0.5-3.333,0.967-5.717,1.4-7.149
			c0.1-0.4,0.199-0.733,0.3-1l0.149-0.05c0.067,0.033,0.101,0.166,0.101,0.399c0,0.101-0.333,2.134-1,6.101
			c-0.101,0.633-0.217,1.316-0.351,2.05C47.467,126.6,47.333,127.45,47.2,128.25z M21.75,16.55c-0.4-1.133-1.733-2.25-4-3.35
			c-2.267-1.067-3.4-1.117-3.4-0.15c0,0.233,0.15,0.483,0.45,0.75c0.3,0.267,0.65,0.483,1.05,0.65c0.4,0.167,1.05,0.6,1.95,1.3
			c0.833,0.7,1.65,1.467,2.45,2.3c1.367,1.367,2.217,2.133,2.55,2.3c0.333,0.2,0.533,0.017,0.6-0.55c0.067-0.333,0.034-0.667-0.1-1
			c-0.1-0.333-0.25-0.6-0.45-0.8C22.316,17.6,21.95,17.117,21.75,16.55z M32.15,9.55c-0.767,3.033-1.283,5.533-1.55,7.5
			c-0.233,2-0.133,2.867,0.3,2.6c0.333-0.2,1-1.333,2-3.4c0.8-1.7,1.483-3.467,2.05-5.3c0.533-1.867,0.683-2.917,0.45-3.15
			c-0.2-0.167-0.7-0.25-1.5-0.25c-0.5,0-0.85,0.133-1.05,0.4C32.583,8.217,32.35,8.75,32.15,9.55z M20.7,49.85
			c-0.034-0.733-0.05-1.633-0.05-2.7c0-0.667,0.217-2.033,0.65-4.1c0.134-0.566,0.25-1.066,0.35-1.5
			c0.267-1.066,0.467-1.767,0.6-2.1c-0.333,0-0.55,0.216-0.65,0.65h-0.25c0-0.2,0.15-0.467,0.45-0.8
			c0.267-0.267,0.45-0.433,0.55-0.5c0.1,0.033,0.216,0.05,0.35,0.05c0.1,0.066,0.15,0.216,0.15,0.45c0,0.033-0.267,1.25-0.8,3.65
			c-0.566,2.4-0.85,4.683-0.85,6.85c0,0.8,0.066,1.567,0.2,2.3c0.233,1.267,0.683,2.45,1.35,3.55
			c0.059,0.088,0.117,0.179,0.175,0.275c-0.058-0.092-0.116-0.167-0.175-0.225c-0.4-0.534-0.733-1.067-1-1.6
			c-0.434-0.833-0.733-1.684-0.9-2.55C20.783,51.15,20.733,50.583,20.7,49.85z M46.85,45.35L46.6,45.4h-0.1c0-0.1,0-0.183,0-0.25
			c-0.066-0.4-0.15-0.8-0.25-1.2c-0.633-2.867-2.083-5.617-4.35-8.25l0.199-0.05c1.533,1.433,2.65,3.05,3.351,4.85
			C45.717,41.1,46.184,42.717,46.85,45.35z M59.2,36.15c-0.4-0.267-0.733,0.3-1,1.7c-0.033,0.267-0.083,0.533-0.15,0.8
			c-0.467,1.633-1.366,3.6-2.7,5.9c-0.433,0.733-0.866,1.434-1.3,2.1l-0.2,0.25c-0.933,1.333-1.85,2.483-2.75,3.45
			c-0.166,0.133-0.333,0.283-0.5,0.45c-0.1,0.1-0.217,0.217-0.35,0.35c-0.6,0.5-1.283,1.033-2.05,1.6c0,0.033-0.017,0.05-0.05,0.05
			s-0.067,0.017-0.101,0.05c-0.033,0-0.066,0.017-0.1,0.05c0.333,0.967,0.517,1.9,0.55,2.8l-0.15,0.1
			c-0.133-0.8-0.416-1.667-0.85-2.6c-0.1,0.033-0.167,0.083-0.2,0.15c-0.233,0.133-0.467,0.267-0.7,0.4
			c-0.5,0.3-0.949,0.583-1.35,0.85c-0.1,0.033-0.2,0.083-0.3,0.15c-0.134,0.066-0.25,0.133-0.351,0.2c-0.033,0-0.066,0-0.1,0
			l-0.3,0.15c-0.101,0.066-0.2,0.117-0.3,0.15c-0.434,0.2-0.817,0.333-1.15,0.4c-0.033,0-0.083,0.017-0.15,0.05
			c0.5,0.533,0.851,1.2,1.051,2c0.033,0.133,0.066,0.45,0.1,0.95c0.033,0.567,0.083,1.417,0.15,2.55v1.2l0.5-0.15
			c0.967-0.233,1.85-0.467,2.649-0.7c0.067-0.033,0.15-0.066,0.25-0.1l0.45-0.1c0.2-0.1,0.417-0.184,0.65-0.25
			c0.133-0.067,0.267-0.117,0.399-0.15c0.333-0.134,0.634-0.25,0.9-0.35l0.75-0.35c0.066-0.067,0.133-0.117,0.2-0.15
			c0.133-0.067,0.267-0.133,0.399-0.2c0.167-0.133,0.367-0.283,0.601-0.45c0.366-0.267,0.767-0.583,1.199-0.95
			c0.2-0.2,0.434-0.4,0.7-0.6c0.033-0.067,0.083-0.117,0.15-0.15c0.267-0.267,0.566-0.55,0.899-0.85
			c0.268-0.267,0.567-0.55,0.9-0.85c0.033-0.066,0.066-0.117,0.1-0.15c0.101-0.1,0.2-0.183,0.301-0.25
			c0.1-0.133,0.199-0.25,0.3-0.35c0.267-0.267,0.533-0.533,0.8-0.8c0.2-0.267,0.4-0.517,0.6-0.75c0.2-0.233,0.384-0.45,0.551-0.65
			v-0.05c0.1-0.1,0.183-0.2,0.25-0.3c0.166-0.233,0.333-0.45,0.5-0.65c0.033-0.067,0.066-0.133,0.1-0.2h0.05v-0.05
			c0.134-0.233,0.267-0.45,0.4-0.65c0.167-0.333,0.333-0.667,0.5-1c0.033-0.134,0.083-0.267,0.149-0.4
			c0.134-0.333,0.25-0.683,0.351-1.05v0.05c0.066-0.2,0.116-0.417,0.149-0.65l0.301-2c0.1-1.033,0.1-2.167,0-3.4
			c-0.2-2.934-0.617-4.95-1.25-6.05C59.483,36.4,59.333,36.217,59.2,36.15z M38.55,77.85c-0.767,4.167-1.3,7.433-1.6,9.8
			c-0.233,1.633-0.351,2.816-0.351,3.55c0,0.767,0.084,1.816,0.25,3.149c0.067,0.567,0.15,1.2,0.25,1.9l-0.25,0.05
			c-0.066-0.566-0.116-1.1-0.149-1.6c-0.333-2.667-0.5-4.233-0.5-4.7c0-0.566,0.017-1.167,0.05-1.8c0.1-1.867,0.35-4.117,0.75-6.75
			c0.066-0.434,0.133-0.867,0.2-1.3c0.033-0.3,0.083-0.6,0.149-0.9c0.233-1.467,0.483-2.733,0.75-3.8
			c0.434-1.867,0.867-3.083,1.301-3.65c0.066,0.067,0.133,0.083,0.199,0.05c0,0.033,0,0.167,0,0.4
			c-0.033,0.133-0.05,0.283-0.05,0.45c-0.3,1.466-0.566,2.85-0.8,4.15C38.684,77.183,38.617,77.517,38.55,77.85z M12.85,38.15H12.8
			c-0.2,0.1-0.467,0.4-0.8,0.9c0.3-0.333,0.65-0.65,1.05-0.95c-0.033,0-0.066,0-0.1,0C12.917,38.1,12.883,38.117,12.85,38.15z
			 M26,54.7c0.066,0.466,0.15,0.883,0.25,1.25c0.333,1.3,0.816,2.45,1.45,3.45c0.433,0.667,0.933,1.267,1.5,1.8v0.2
			c-1.267-1.167-2.317-2.667-3.15-4.5c-0.4-0.867-0.683-1.7-0.85-2.5c-0.067-0.333-0.117-0.667-0.15-1
			c-0.066-0.367-0.1-0.717-0.1-1.05c0-0.7,0.05-1.25,0.15-1.65h0.3C25.6,52.3,25.8,53.633,26,54.7z M14.95,101.25
			c-1.434-0.3-2.583-0.283-3.45,0.05c-0.934,0.367-1.4,0.934-1.4,1.7s0.566,1.133,1.7,1.1c1.134-0.033,2.317-0.433,3.55-1.199
			l1.95-1.2L14.95,101.25z M32.05,113c0.4,1.2,0.767,2.033,1.1,2.5c0.333,0.533,0.517,0.35,0.55-0.55c0-0.667-0.3-2.267-0.9-4.8
			l-0.9-3.9h-2.25c-1.466,0-2.8-0.316-4-0.95c-1.233-0.633-2.167-1.517-2.8-2.649c-0.7-1.167-1.167-1.75-1.4-1.75
			c-0.3,0-1.65,0.916-4.05,2.75c-0.2,0.166-0.383,0.316-0.55,0.449c-2.133,1.667-3.617,2.917-4.45,3.75
			c-0.033,0.033-0.05,0.067-0.05,0.101c-0.034,0-0.05,0.017-0.05,0.05l-0.35,0.35c-0.034,0.033-0.05,0.067-0.05,0.101
			c-0.033,0.033-0.05,0.066-0.05,0.1l-0.05,0.05h0.025c-0.489,0.614-0.848,1.215-1.075,1.801c-0.066,0.166-0.1,0.316-0.1,0.449
			c-0.133,0.5,0.034,0.75,0.5,0.75h0.05c0.667-0.033,1.816-0.533,3.45-1.5c0.167-0.1,0.333-0.199,0.5-0.3
			c0.333-0.2,0.667-0.417,1-0.649c2.5-1.634,4.117-2.983,4.85-4.051c0.233-0.3,0.483-0.533,0.75-0.699
			c0.267-0.167,0.483-0.184,0.65-0.051c0.6,0.367,0.733,1.117,0.4,2.25c-0.366,1.134-1.2,2.584-2.5,4.351
			c-0.5,0.7-0.933,1.366-1.3,2V113c-0.033,0.033-0.066,0.066-0.1,0.1c-0.667,1-1.133,1.9-1.4,2.7c-0.167,0.467-0.267,0.9-0.3,1.3
			c-0.134,1.2,0.4,1.584,1.6,1.15c0.2-0.1,0.45-0.217,0.75-0.35c1-0.467,1.684-1.417,2.05-2.851l0.05-0.05c0-0.033,0-0.066,0-0.1
			c-0.267,0.3-0.517,0.566-0.75,0.8c0.067-0.167,0.417-0.7,1.05-1.601c0.2-0.633,0.433-1.217,0.7-1.75
			c0.1-0.166,0.183-0.316,0.25-0.449c0.034-0.067,0.067-0.117,0.1-0.15c0.033-0.1,0.066-0.184,0.1-0.25
			c0.066-0.134,0.15-0.267,0.25-0.4c0.066-0.066,0.117-0.149,0.15-0.25c0-0.033,0.017-0.05,0.05-0.05c0-0.033,0.017-0.05,0.05-0.05
			c0.167-0.233,0.333-0.434,0.5-0.6c0.167-0.2,0.333-0.351,0.5-0.45c0.233-0.167,0.45-0.25,0.65-0.25h0.05
			c0.5,0,0.783,0.217,0.85,0.649c0.034,0.434-0.2,0.983-0.7,1.65l-0.05,0.05c-0.3,0.367-0.45,0.7-0.45,1
			c-0.034,0.267,0.066,0.634,0.3,1.101c0.033,0.066,0.083,0.149,0.15,0.25c0.5,1,0.817,2.033,0.95,3.1v0.05l0.3,1.7
			c0.067,0.2,0.383,0.217,0.95,0.05c0.566-0.133,0.933-0.35,1.1-0.649c0.133-0.2,0.267-0.717,0.4-1.551
			c0.066-0.6,0.15-1.333,0.25-2.199c0-0.067,0-0.134,0-0.2c0-0.2,0.017-0.417,0.05-0.65v-0.1v-0.05
			c0.067-1.101,0.183-2.018,0.35-2.75c0.1-0.534,0.217-0.9,0.35-1.101c0.066-0.133,0.133-0.2,0.2-0.2
			c0.167-0.033,0.4,0.217,0.7,0.75s0.583,1.217,0.85,2.051C31.917,112.6,31.983,112.8,32.05,113z M28.5,98.35h-0.05
			c0.333-0.933,0.633-1.783,0.9-2.55c0.433-1.3,0.8-2.383,1.1-3.25c0.033-0.066,0.066-0.133,0.1-0.2
			c0.833-2.366,1.733-4.133,2.7-5.3h0.15c0.034,0,0.05,0.033,0.05,0.101c0.033,0.033,0.05,0.133,0.05,0.3
			c0,0.633-1.267,3.583-3.8,8.85c-0.167,0.333-0.333,0.684-0.5,1.05c-0.167,0.301-0.333,0.617-0.5,0.95L28.5,98.35z M28.05,113.15
			c-0.4,2.8-0.6,4.433-0.6,4.899l-0.25,0.15c-0.067-0.9-0.1-1.667-0.1-2.3c-0.067-1.034-0.1-1.684-0.1-1.95
			c0-0.601,0.184-1.684,0.55-3.25c0.267-1.233,0.5-2.05,0.7-2.45c0.066-0.134,0.133-0.217,0.2-0.25l0.1-0.1
			c0.033,0,0.05,0.116,0.05,0.35c0,0.033,0,0.083,0,0.15C28.566,109,28.383,110.583,28.05,113.15z M40.75,128.9
			c-0.133-3.233-0.15-5.967-0.05-8.2c0-0.134,0-0.267,0-0.4l-0.101-0.1v0.899l-0.25,0.101c0.167-0.9,0.25-1.65,0.25-2.25h0.25
			c0,0.033,0,0.066,0,0.1c0.233,1.967,0.417,4.367,0.551,7.2c0.033,0.5,0.066,1.033,0.1,1.6c0,0.834,0.017,1.684,0.05,2.551
			c0.134,5.866,0.25,9.666,0.351,11.399c-0.033,0.134-0.117,0.2-0.25,0.2c-0.367-4.2-0.634-7.934-0.801-11.2
			C40.816,130.133,40.783,129.5,40.75,128.9z"/>
		<path fill-rule="evenodd" clip-rule="evenodd" fill="#FFCC00" d="M53.8,155.75c-1.5,0-3.116,0-4.85,0
			c-2.967,0-5.517-0.017-7.65-0.05c-3.233-0.134-5.017-0.217-5.35-0.25l0.649-0.2c0.7-0.1,1.75-0.217,3.15-0.35
			c1.3-0.134,2.45-0.4,3.45-0.801c-0.101-0.333-0.3-0.55-0.601-0.649l-7.55-0.2c0.1-0.1,0.2-0.2,0.3-0.3
			c0.466-0.101,1.05-0.217,1.75-0.351c1.801-0.399,3.134-0.767,4-1.1l-0.1-0.15c-1.633-0.399-3.017-0.517-4.15-0.35
			c0.167-0.4,0.283-0.733,0.351-1c0.833-0.167,1.533-0.316,2.1-0.45c0.8-0.2,2.617-0.767,5.45-1.7c0.033-0.033,0.066-0.05,0.1-0.05
			c0.5,0.167,1.184,0.233,2.051,0.2l8.3,0.05c-0.533,0.066-1.833,0.233-3.9,0.5c-0.7,0.101-1.85,0.2-3.45,0.3v0.351
			c2.768,0.566,4.834,0.899,6.2,1c1.101,0.1,1.9,0.217,2.4,0.35c-2.2,0.033-3.767,0.101-4.7,0.2c-1.6,0.2-2.566,0.717-2.9,1.55
			l3.5,1.45v0.2c-0.467,0.166-0.8,0.35-1,0.55l-0.1,0.2C51.25,154.8,52.1,155.15,53.8,155.75z M61.75,149.15
			c0.066-0.067,0.117-0.134,0.15-0.2l0.05-0.25l-0.05-0.25l-3.551-1.15h-12.5c-0.3-0.033-0.583-0.116-0.85-0.25l-0.15-0.25H44.7
			c-0.2-0.2-0.317-0.399-0.351-0.6c0.033-0.101,0.2-0.233,0.5-0.4c-0.232-0.066-0.449-0.05-0.649,0.05
			c-0.233,0.101-0.351,0.301-0.351,0.601c0,0.1,0.018,0.217,0.051,0.35l-2.25-0.05l-3.801,0.7l0.101-0.101
			c2.066-0.767,3.267-1.199,3.6-1.3c1.601-0.5,3.45-0.95,5.55-1.35L47.2,144.6c-3,0.367-5.95,1.134-8.851,2.301
			c-5.433,2.133-8.517,3.316-9.25,3.55l-0.25,0.3l0.25,0.1c0.466-0.133,2.783-0.883,6.95-2.25c2.434-0.767,4.217-1.233,5.351-1.399
			c1.199,0,2.1,0.017,2.699,0.05c0.033,0.066,0.101,0.133,0.2,0.2c-1.267,0.5-2.183,0.85-2.75,1.05
			c-1.033,0.366-1.917,0.6-2.649,0.7c-0.634,0.066-1.2,0.133-1.7,0.2c-0.067-0.167-0.15-0.301-0.25-0.4
			c-0.4-0.4-1.35-0.217-2.85,0.55c-1.4,0.667-2.8,1.15-4.2,1.45c-1.433,0.267-2.15,0.2-2.15-0.2c0-0.167,0.283-0.45,0.85-0.85
			c0.566-0.367,1.233-0.733,2-1.101c1.833-0.866,3.367-1.8,4.6-2.8l1.75-1.5l0.2-9.1c0.133-5.533,0.1-9.584-0.101-12.15
			c-0.033-0.434-0.066-0.833-0.1-1.2c-0.101-0.633-0.2-1.149-0.3-1.55v-0.05c-0.033-0.033-0.051-0.066-0.051-0.1v-0.051
			c-0.199-0.566-0.416-0.899-0.649-1H35.8c-0.1,0-0.183,0.033-0.25,0.101c0-0.3,0-0.584,0-0.851c0-0.5,0-1.017,0-1.55
			c0-0.066,0-0.133,0-0.2c0.067-0.366,0.134-0.833,0.2-1.399c0.033-0.667-0.017-1.467-0.15-2.4c-0.034-0.167-0.05-0.316-0.05-0.45
			c-0.133-0.733-0.283-1.383-0.45-1.949c-0.167-0.534-0.317-1-0.45-1.4l3.3,0.1c-0.067,0.134-0.134,0.317-0.2,0.551
			c-0.1,0.033-0.184,0.05-0.25,0.05c-0.7,0.166-0.733,0.45-0.1,0.85c0.033,0.033,0.066,0.05,0.1,0.05
			c-0.267,1.101-0.4,1.983-0.4,2.65c0,0.4,0.2,0.8,0.601,1.2c0.167,0,0.3-0.067,0.399-0.2c0.167-0.333,0.25-0.9,0.25-1.7
			c0,0.033,0.134,1.217,0.4,3.55c0.233,2.467,0.35,4,0.35,4.601c0,0.733-0.149,2.283-0.449,4.649
			c-0.167,2.134,0.066,3.434,0.699,3.9c0.167-0.033,0.351-0.117,0.551-0.25c0.066-0.467,0.217-2.35,0.449-5.65
			c0.134-1.066,0.25-2.033,0.351-2.899c-0.101,2.233-0.083,4.967,0.05,8.2c-0.066,0.3-0.15,0.633-0.25,1
			c-0.833,3.5-1.25,5.732-1.25,6.699c0,0.2,0.066,0.533,0.2,1c0.133,0.467,0.2,0.834,0.2,1.101h0.199v-0.65
			c0-1.899,0.233-3.899,0.7-6c0.101-0.434,0.2-0.85,0.3-1.25c0.167,3.267,0.434,7,0.801,11.2c0.133,0,0.217-0.066,0.25-0.2
			c-0.101-1.733-0.217-5.533-0.351-11.399c-0.033-0.867-0.05-1.717-0.05-2.551c0.2-1.133,0.35-1.983,0.45-2.55l0.05,0.15v0.85h0.2
			l0.05-0.649c0-0.233-0.033-0.5-0.1-0.801C42.05,124.583,42,124.366,42,124.2c-0.133,0.267-0.333,0.95-0.6,2.05
			c-0.134-2.833-0.317-5.233-0.551-7.2c0.134-1.167,0.233-2.1,0.301-2.8c0.199-0.967,0.433-1.85,0.699-2.65
			c0.067,5.5,0.184,9.25,0.351,11.25l0.45-0.05c0.199-2.6,0.383-4.566,0.55-5.899c0.233-2.367,0.7-4.184,1.399-5.45
			c0.4,0.399,0.9,0.6,1.5,0.6c0.667,0,1.033-0.017,1.101-0.05c0.033-0.033,0.066-0.05,0.1-0.05c0,0.233-0.017,0.5-0.05,0.8
			c0-0.1-0.017-0.15-0.05-0.15l-0.2-0.1c-0.967,2-1.733,4.417-2.3,7.25c-0.533,2.633-0.8,5.167-0.8,7.6l0.949,5.5
			c0.167,0,0.25-0.05,0.25-0.149c-0.399-2-0.6-3.783-0.6-5.351c0-1.199,0.467-3.949,1.4-8.25c0.699-3.199,1.133-5.149,1.3-5.85
			c-0.067,0.9-0.167,1.9-0.3,3c-0.367,3.267-0.551,5.767-0.551,7.5c0,0.3,0.033,0.483,0.101,0.55c0.1-0.066,0.149-0.167,0.149-0.3
			c0.2-1.2,0.317-2.05,0.351-2.55c0.033,0.1,0.05,0.733,0.05,1.899c-0.066,0.533-0.15,1.101-0.25,1.7c-0.667,4.7-1,7.634-1,8.8
			c0,0.5,0.05,0.867,0.15,1.101l0.1-0.15c0.1-1.566,0.5-4.417,1.2-8.55c0.1,0.467,0.267,0.866,0.5,1.2
			c0.167-0.267,0.316-0.533,0.45-0.8v0.05c-0.301,1.433-0.65,3.683-1.051,6.75c-0.533,2.767-1.5,5.033-2.899,6.8
			c1.767-1.6,3.066-3.7,3.899-6.3c0.434-1.3,0.884-3.467,1.351-6.5c0.566-3.634,1.017-6.517,1.35-8.65
			c-0.1,0.833-0.183,1.717-0.25,2.65c-0.2,3-0.467,4.916-0.8,5.75c-0.333,0.833-0.617,2.983-0.85,6.45
			c-0.167,2.566-0.2,4.149-0.101,4.75c0.101,0.6,0.517,1.333,1.25,2.199c0.9,1.033,1.867,1.851,2.9,2.45
			c1.066,0.566,2.1,0.851,3.1,0.851c0.967,0,2.667,0.399,5.101,1.199c2.399,0.801,3.517,1.334,3.35,1.601
			c-0.1,0.133-0.467,0.25-1.1,0.35C62.9,149.083,62.35,149.116,61.75,149.15z M42.75,111.65c0.4,0,0.833-0.018,1.3-0.051
			c-0.066,0.167-0.133,0.334-0.2,0.5c-0.199,0.667-0.416,1.117-0.649,1.351C42.934,113.083,42.783,112.483,42.75,111.65z M35.725,22
			c-0.017,0.009-0.025,0.026-0.025,0.05l-0.85,2.25l0.05,0.6L35,25c0.133,0.033,0.333,0.05,0.6,0.05c0.033,0,3.367-2.083,10-6.25
			l-0.149,0.15c-1.2,0.9-2.184,1.65-2.95,2.25c-1.434,1.133-2.15,1.816-2.15,2.05c0,0.167,0.018,0.3,0.051,0.4
			c-0.533,0.4-0.884,0.7-1.051,0.9C39.15,24.75,39.033,25,39,25.3c-0.967-0.066-1.667-0.1-2.1-0.1C36.3,25.233,36,25.533,36,26.1
			c0.1,0.466,0.15,0.75,0.15,0.85c-0.101,0.333-0.25,0.583-0.45,0.75c-0.167,0.133-0.25,0.25-0.25,0.35
			c-2.5-0.767-3.75-0.6-3.75,0.5c0,0.3,0.167,0.517,0.5,0.65c0.233,0.1,0.7,0.267,1.4,0.5c-0.2,0.033-0.35,0.083-0.45,0.15
			c0.233,0.133,0.483,0.283,0.75,0.45c-0.533-0.3-1.083-0.6-1.65-0.9v0.15c0.233,0.133,0.467,0.283,0.7,0.45
			c-0.134,0.1-0.233,0.217-0.3,0.35c-0.033,0.333-0.083,0.533-0.15,0.6c-1.5-0.9-2.283-1.35-2.35-1.35c-0.2,0.133-0.3,0.333-0.3,0.6
			l0.5,0.4c0.1,0.1,0.15,0.267,0.15,0.5c0,0.767-0.233,1.367-0.7,1.8c-0.167-0.067-0.366-0.1-0.6-0.1c0-0.133,0.017-0.316,0.05-0.55
			c-0.066-0.434-0.35-0.65-0.85-0.65L28,31.65l-0.5,1c-1.167-0.133-2.25-0.25-3.25-0.35c0.1-0.066,0.167-0.133,0.2-0.2
			c0.033-0.067,0.05-0.167,0.05-0.3c-3.434-1.566-7.45-2.8-12.05-3.7c-1.034-0.2-2.2-0.4-3.5-0.6c1.833-0.434,3.533-0.583,5.1-0.45
			c2.033,0.167,3.283,0.417,3.75,0.75c0.333,0.233,1.233,0.583,2.7,1.05c1.467,0.433,2.434,0.65,2.9,0.65
			c0.433,0,0.65-0.133,0.65-0.4c0-0.233-0.316-0.517-0.95-0.85c-0.567-0.333-2.85-1.483-6.85-3.45c-2.1-1.1-3.55-1.917-4.35-2.45
			c-0.833-0.567-1.216-1-1.15-1.3c0.1-0.633,0.917-0.983,2.45-1.05c0.633-0.067,1.167-0.067,1.6,0c0.434,0.066,0.65,0.167,0.65,0.3
			c0,0.333,0.417,0.684,1.25,1.05c0.833,0.433,2.283,1.533,4.35,3.3c2.134,1.833,3.4,2.75,3.8,2.75c0.466,0,1,0.35,1.6,1.05
			c0.667,0.733,1.167,0.917,1.5,0.55c0.333-0.3,0.2-0.833-0.4-1.6c-0.5-0.567-1.116-1.083-1.85-1.55
			c-0.2-0.133-0.417-0.25-0.65-0.35H25c-0.033-0.033-0.066-0.067-0.1-0.1c-0.1-0.033-0.2-0.083-0.3-0.15
			c-0.4-0.233-0.85-0.55-1.35-0.95c-0.2-0.167-0.4-0.333-0.6-0.5c-0.167-0.333-0.317-0.667-0.45-1c-0.167-0.367-0.267-0.733-0.3-1.1
			c0.2,0.167,0.417,0.316,0.65,0.45h0.05c0.3,0.1,0.5,0.083,0.6-0.05c0.133-0.267,0.4-0.383,0.8-0.35c0.167,0,0.367,0.033,0.6,0.1
			c0.1,0.033,0.183,0.05,0.25,0.05c0.4,0.833,0.617,1.3,0.65,1.4c0.167,0.333,0.867,1.333,2.1,3c0.867,1.167,1.3,2.25,1.3,3.25
			c0,0.6,0.067,0.85,0.2,0.75c0.033-0.066,0.05-0.267,0.05-0.6c0-0.7-0.3-1.934-0.9-3.7c-0.566-1.733-0.85-2.934-0.85-3.6
			c0.067-0.967,0-2.217-0.2-3.75c-0.3-2.2-0.467-3.45-0.5-3.75v-1.25h0.05c0.566,1.533,1.117,3.683,1.65,6.45
			c0,0.031,0.017,0.073,0.05,0.125L28.4,20.15h-0.2c0.366,1.667,0.716,3.033,1.05,4.1c0.033,0.167,0.066,0.316,0.1,0.45
			c0,0.033,0.017,0.066,0.05,0.1c0,0.033,0,0.067,0,0.1c0.1,0.567,0.217,1.033,0.35,1.4c0.033-0.033,0.05-0.066,0.05-0.1
			c0.533,1.466,1.134,2.667,1.8,3.6l0.15,0.1c0.066,0.033,0.1-0.083,0.1-0.35c0-0.367-0.534-1.9-1.6-4.6
			c0.2-0.634,0.4-1.417,0.6-2.35c0.466-0.333,1-0.883,1.6-1.65c-0.067,0.1-0.117,0.183-0.15,0.25c-0.3,2.5-0.45,3.95-0.45,4.35
			c0,0.2,0.167,0.483,0.5,0.85c0.867-1.167,1.7-2.683,2.5-4.55C35.078,22.013,35.37,22.063,35.725,22z M28.85,16.35
			c-0.067-0.267-0.133-0.517-0.2-0.75c-0.767-3.1-1.517-4.65-2.25-4.65c-0.233,0-0.35,0.017-0.35,0.05l0.05,0.05
			c-0.067,0.067-0.1,0.267-0.1,0.6c0,1.733,0.083,3.383,0.25,4.95c0,0.066,0.2,1.767,0.6,5.1v1.95h-0.1
			c-0.133-0.2-0.533-0.95-1.2-2.25c0,0.1-0.017,0.183-0.05,0.25c0.1-0.333,0.05-1.2-0.15-2.6c-0.233-2-0.684-4.017-1.35-6.05
			c-0.533-1.5-0.867-3.033-1-4.6s0-2.467,0.4-2.7c0.1-0.067,0.467,0.233,1.1,0.9c0.667,0.667,1.383,1.483,2.15,2.45
			c1.367,1.7,2.15,2.833,2.35,3.4c0.2,0.533,0.2,1.4,0,2.6C28.934,15.483,28.883,15.917,28.85,16.35z M39.3,14.45
			c0.867-3.3,1.3-5.367,1.3-6.2c0-0.4-0.017-0.65-0.05-0.75C40.483,7.3,40.3,7.2,40,7.2c-0.733,0-1.633,1.25-2.7,3.75
			c0.533-1.867,0.667-3.417,0.4-4.65C37.5,5.4,37.6,4.417,38,3.35c0.4-1.133,0.85-1.7,1.35-1.7c1.233,0,1.851,1.883,1.851,5.65
			c0,1.5-0.101,2.684-0.3,3.55c-0.233,0.833-0.717,1.933-1.45,3.3C39.417,14.25,39.367,14.35,39.3,14.45z M32.15,9.55
			c0.2-0.8,0.433-1.333,0.7-1.6c0.2-0.267,0.55-0.4,1.05-0.4c0.8,0,1.3,0.083,1.5,0.25c0.233,0.233,0.083,1.283-0.45,3.15
			c-0.567,1.833-1.25,3.6-2.05,5.3c-1,2.066-1.667,3.2-2,3.4c-0.433,0.267-0.533-0.6-0.3-2.6
			C30.867,15.083,31.383,12.583,32.15,9.55z M42.35,18.4c0.067-0.067,0.15-0.133,0.25-0.2c1.434-1.2,3-2.8,4.7-4.8
			c0.567-0.667,1.217-1,1.95-1s1.1,0.317,1.1,0.95c0,0.3-0.083,0.65-0.25,1.05c-1.166,0.633-2.8,1.633-4.899,3
			c-2.667,1.733-4.267,2.75-4.8,3.05c0.199-0.2,0.916-0.933,2.149-2.2C42.479,18.319,42.412,18.369,42.35,18.4z M37.45,21.4
			c-0.101,0.1-0.184,0.2-0.25,0.3c0.033-0.067,0.083-0.15,0.149-0.25C37.383,21.417,37.417,21.4,37.45,21.4z M40.7,63.05
			c-1.8,0.3-3.617,0.517-5.45,0.65c-3.167,0.2-5.667,0.066-7.5-0.4c-2.467-0.566-4.417-1.4-5.85-2.5
			c-1.433-1.066-2.733-2.65-3.9-4.75c-0.9-1.633-1.467-2.85-1.7-3.65c-0.2-0.767-0.267-1.867-0.2-3.3
			c0.1-2.133,0.033-3.383-0.2-3.75c-0.1-0.133,0.017-0.583,0.35-1.35c0.2-0.467,0.45-0.934,0.75-1.4
			c0.233-0.233,0.45-0.45,0.65-0.65c0.8-0.733,1.467-1.333,2-1.8c-0.167,0.4-0.317,0.833-0.45,1.3c-0.9,2.9-1.35,4.683-1.35,5.35
			c0.066,0.4,0.1,0.667,0.1,0.8h0.2c0.2-1.167,0.85-2.483,1.95-3.95c0.633-0.833,1.15-1.533,1.55-2.1
			c-0.1,0.434-0.216,0.934-0.35,1.5c-0.433,2.067-0.65,3.434-0.65,4.1c0,1.067,0.017,1.967,0.05,2.7
			c-0.167,1.1-0.25,1.917-0.25,2.45c0.1,1.5,0.283,2.967,0.55,4.4c0.533,2.9,1.233,4.35,2.1,4.35c0.433,0,0.6-0.083,0.5-0.25
			c0-1.2-0.233-4.717-0.7-10.55c0-1,0.067-1.783,0.2-2.35c0.3-1.233,0.517-2.233,0.65-3h0.1c0,0.7,0.117,1.167,0.35,1.4
			c0.566-0.6,0.966-1.283,1.2-2.05c0.133-0.467,0.3-1.2,0.5-2.2l0.1,0.3c0.1,0.733,0.1,2.7,0,5.9c-0.033,2.233,0.267,4,0.9,5.3
			c0.3-1.467,0.534-3.417,0.7-5.85c0.066-0.867,0.15-1.95,0.25-3.25c0.367,0.333,0.767,0.633,1.2,0.9
			c1.067,0.633,2.05,1.05,2.95,1.25c0.333,1.8,0.867,3.833,1.6,6.1c0.3-0.034,0.483-0.134,0.55-0.3c0-0.033,0-0.2,0-0.5l-1.2-5.15
			c0.2,0,0.4-0.017,0.6-0.05c0.9-0.1,1.817-0.5,2.75-1.2c0.733,2.033,1.333,3.583,1.8,4.65c0.268-0.033,0.434-0.117,0.5-0.25
			c-0.232-0.9-0.816-2.517-1.75-4.85c0.167-0.167,0.334-0.35,0.5-0.55c0.601-0.6,1.134-1.267,1.601-2
			c0.033-0.033,0.066-0.067,0.1-0.1c0.2,0.3,0.4,0.567,0.601,0.8l0.1-0.25c-0.133-0.367-0.267-0.717-0.4-1.05
			c0.233-0.467,0.384-0.867,0.45-1.2c0.333-1.567-0.399-3.233-2.2-5c-0.133-0.134-0.267-0.25-0.399-0.35
			c0.8-0.034,1.35-0.083,1.649-0.15c0-0.233,0.018-0.4,0.051-0.5v-0.05c1.1,1.033,2.1,2.117,3,3.25c1.533,1.9,3.066,4.317,4.6,7.25
			c0,0.067,0,0.15,0,0.25h0.1c0.167,0.333,0.334,0.667,0.5,1l0.101-0.1c-0.101-0.333-0.217-0.65-0.351-0.95
			c-0.666-2.633-1.133-4.25-1.399-4.85c-0.7-1.8-1.817-3.417-3.351-4.85L41.9,35.7c2.267,2.633,3.717,5.383,4.35,8.25
			c-1.066-2.367-2.417-4.55-4.05-6.55c-1-1.233-2.101-2.383-3.3-3.45c0.333-0.067,0.566-0.167,0.699-0.3
			c0.601,0.833,1.417,1.467,2.45,1.9c1.2,0.467,2.417,0.55,3.65,0.25c1.167-0.3,2.316-1.033,3.45-2.2
			c0.333-0.333,0.616-0.65,0.85-0.95c0.566-0.767,0.85-1.467,0.85-2.1c0-1.033,0.117-1.55,0.351-1.55c0.066,0,0.233,0.1,0.5,0.3
			c0.433,0.267,1.1,0.783,2,1.55c1.467,1.267,2.35,1.9,2.649,1.9c0.101,0,0.167,0.267,0.2,0.8c0,0.567-0.033,1.233-0.1,2
			c-0.2,1.533-0.967,3.684-2.3,6.45c-0.268,0.533-0.518,1.033-0.75,1.5c-0.667-0.9-1.25-1.617-1.75-2.15
			C51.55,41.217,51.434,41.1,51.3,41c-0.133-0.3-0.283-0.6-0.45-0.9c-1.366-2.567-2.85-4.034-4.449-4.4l-0.051,0.25
			c1.567,1.233,2.834,2.6,3.801,4.1c-0.9-0.667-1.834-1.133-2.801-1.4v0.15c0.9,0.8,2.15,1.967,3.75,3.5
			c0.101,0.1,0.2,0.184,0.301,0.25c0.333,0.967,0.583,2,0.75,3.1c-0.601,0.933-1.167,1.7-1.7,2.3C50.25,47.316,50.1,46.9,50,46.7
			l-0.4,0.35v0.35c0,0.2,0.051,0.6,0.15,1.2c-0.7,0.667-1.45,1.3-2.25,1.9c-0.3-0.9-0.6-1.833-0.9-2.8
			c-0.199,0-0.333,0.05-0.399,0.15l-0.101,0.1C46.033,48.25,46,48.6,46,49c0,0.033,0,0.083,0,0.15c-1.367-1.967-3-3.533-4.9-4.7
			l-0.1,0.4c1.9,1.8,3.483,3.633,4.75,5.5c0.2,0.3,0.4,0.6,0.6,0.9c-0.833,0.5-1.732,0.983-2.699,1.45
			c-0.033,0.033-0.084,0.066-0.15,0.1c-0.066-0.033-0.117-0.066-0.15-0.1L43.2,52.9h0.05c-2.6,1.167-5.217,1.9-7.85,2.2
			c-2.033,0.2-3.233,0.483-3.6,0.85c-0.267,0.267,1.2,0.35,4.4,0.25c2.533-0.067,4.433-0.2,5.7-0.4c0.633,0.8,1.066,1.75,1.3,2.85
			c-0.134,0.067-0.217,0.167-0.25,0.3c-0.067,0.3-0.184,0.5-0.351,0.6c-0.633,0.267-1.033,0.533-1.199,0.8
			c-1.634-0.867-2.934-1.534-3.9-2c-1.8-0.833-3.267-1.25-4.4-1.25c-0.233,0-0.417,0.083-0.55,0.25
			c-0.167,0.167-0.233,0.367-0.2,0.6c-0.667-0.267-1.317-0.35-1.95-0.25c-0.033,0.233-0.05,0.433-0.05,0.6
			c0,0.367,0.767,1.067,2.3,2.1c1.7,1.133,3.2,1.7,4.5,1.7c0.232,0,0.366-0.1,0.399-0.3c0.067-0.233,0.2-0.35,0.4-0.35
			c0.433,0,0.983,0.3,1.649,0.9C40,62.683,40.367,62.917,40.7,63.05z M19.15,34.75c-0.3,0.066-0.583,0.167-0.85,0.3
			c0.134-0.167,0.7-0.8,1.7-1.9c0.267-0.3,0.5-0.55,0.7-0.75c2.5,0.5,4.633,0.833,6.4,1l-1.35,2.55v-0.8c-0.4-0.067-0.7-0.1-0.9-0.1
			c-0.633,0-1.3,0.483-2,1.45c-0.6,1.033-0.967,1.6-1.1,1.7v-0.15c0-0.066,0.017-0.133,0.05-0.2c0.533-0.7,0.8-1.233,0.8-1.6
			c0-0.133-0.233-0.4-0.7-0.8c-0.367,0.167-0.633,0.283-0.8,0.35v-0.1c0.1-0.167,0.267-0.4,0.5-0.7c0.2-0.067,0.417-0.133,0.65-0.2
			l-0.15,0.15l-0.75,0.5c0.867-0.134,1.333-0.434,1.4-0.9L22.4,34.2c-0.133,0-0.267,0.017-0.4,0.05c0-0.033,0-0.067,0-0.1
			c0-0.4-0.033-0.55-0.1-0.45c0-0.067-0.2-0.1-0.6-0.1c-0.133,0-0.467,0.167-1,0.5C19.934,34.333,19.55,34.55,19.15,34.75z
			 M11.85,40.3c0.667-0.4,1.433-0.85,2.3-1.35c1.733-1,3.55-2.05,5.45-3.15l-0.15,0.15c-1.167,1.133-3.317,3.083-6.45,5.85
			c-2.767,2.467-4.15,3.717-4.15,3.75c0.066,0.267,0.1,0.45,0.1,0.55c0,0.167-0.167,0.35-0.5,0.55c1.6-0.433,3.033-0.933,4.3-1.5
			h0.05c-1.7,2.467-2.917,3.967-3.65,4.5c-0.8,0.5-1.2,0.067-1.2-1.3c0-0.9,0.716-2.833,2.15-5.8c0.1-0.2,0.2-0.383,0.3-0.55
			C10.934,41.333,11.417,40.767,11.85,40.3z M9.1,35.05c0.167-0.1,0.333-0.183,0.5-0.25l0.25-0.1h0.4
			C9.816,34.833,9.434,34.95,9.1,35.05z M16.4,35.2c-0.067-0.134-0.15-0.25-0.25-0.35c-0.233-0.233-0.65-0.25-1.25-0.05
			c-0.633,0.2-1.633,0.7-3,1.5c-4.767,2.633-7.417,3.95-7.95,3.95c-0.2,0-0.3-0.25-0.3-0.75c0-0.733,0.917-1.684,2.75-2.85
			c1.867-0.3,3.617-0.683,5.25-1.15c1.667-0.467,4.15-1.35,7.45-2.65v0.05c-0.333,0.267-1.284,0.95-2.85,2.05
			C16.316,35.017,16.367,35.1,16.4,35.2z M22.75,55.65c-0.667-1.1-1.117-2.283-1.35-3.55l0.05-0.65c0.4-0.034,0.65-0.083,0.75-0.15
			c0.033-0.033,0.05-0.1,0.05-0.2c0.167,0.867,0.316,2.167,0.45,3.9C22.7,55.2,22.717,55.417,22.75,55.65z M21.75,54.1
			c0.267,0.533,0.6,1.066,1,1.6c0.066,1.066,0.1,1.816,0.1,2.25v0.35c-0.034,0-0.083,0.017-0.15,0.05V58.3
			C22.267,56.467,21.95,55.066,21.75,54.1z M39.35,27.6c-0.033,0.433-0.1,0.933-0.199,1.5c-1-0.3-1.684-0.6-2.051-0.9l0.4-0.25
			c0.6,0.066,1.184,0.2,1.75,0.4C39.283,28.083,39.316,27.833,39.35,27.6z M26.5,42.9c0.1,0.167,0.217,0.333,0.35,0.5
			c-0.1,1.567-0.15,3.367-0.15,5.4C26.667,47.233,26.6,45.267,26.5,42.9z M52.2,43.25c0.333,0.267,0.649,0.517,0.95,0.75
			c-0.2,0.333-0.384,0.667-0.551,1C52.533,44.467,52.4,43.883,52.2,43.25z M42,62.8c0.066-0.1,0.184-0.3,0.35-0.6
			c0.367,0.1,0.7,0.2,1,0.3C42.917,62.6,42.467,62.7,42,62.8z M54.05,46.65c0.434-0.667,0.867-1.367,1.3-2.1
			c1.334-2.3,2.233-4.267,2.7-5.9c0.067,0.4,0.134,0.767,0.2,1.1c0.267,1.033,0.4,2.3,0.4,3.8c0,1.8-0.051,3.5-0.15,5.1h-0.15
			c0.033-1.5-0.416-3.65-1.35-6.45c-0.2,0.133-0.316,0.216-0.35,0.25C56.617,42.517,56.6,42.7,56.6,43c0,1,0.117,2.233,0.351,3.7
			c0.366,2.233,0.583,3.566,0.649,4c-0.666-0.134-1.25-0.1-1.75,0.1c-0.3-0.5-0.583-1.533-0.85-3.1c-0.1-0.733-0.25-1.333-0.45-1.8
			C54.383,46.167,54.217,46.417,54.05,46.65z M53.85,46.9c0.233,1.333,0.351,3.05,0.351,5.15c0,0.367-0.101,0.917-0.3,1.65
			c-0.268,1-0.417,1.566-0.45,1.7c-0.934-0.9-1.634-2.25-2.101-4.05c-0.1-0.367-0.183-0.7-0.25-1
			C52,49.383,52.917,48.233,53.85,46.9z M50.25,51.15c0.033,0.133,0.066,0.267,0.1,0.4c0.5,2.3,0.75,3.85,0.75,4.65
			c0,0.233-0.149,0.583-0.449,1.05c-0.301,0.533-0.601,0.85-0.9,0.95c-0.367-1.4-0.883-3.217-1.55-5.45
			C48.967,52.183,49.65,51.65,50.25,51.15z M55.5,56.05c-0.333,0.3-0.633,0.583-0.9,0.85c0-0.733,0.051-1.3,0.15-1.7l0.1,0.2
			c-0.066,0.1-0.1,0.283-0.1,0.55l0.55,0.1H55.5z M53.7,57.75c-0.067,0.033-0.117,0.083-0.15,0.15c-0.066-0.1-0.133-0.183-0.2-0.25
			C53.35,57.617,53.467,57.65,53.7,57.75z M56.2,55.3c-0.101,0.1-0.2,0.217-0.3,0.35l0.05-0.95C56.05,54.9,56.133,55.1,56.2,55.3z
			 M57.6,53.75C57.4,53.983,57.2,54.233,57,54.5c-0.1-0.3-0.184-0.617-0.25-0.95c-0.2-0.867-0.3-1.55-0.3-2.05
			c0-0.233,0.033-0.367,0.1-0.4l0.15-0.15c0.1,0,0.399,0.167,0.899,0.5V53.75z M47.3,53.35c0.7,2.1,1.05,3.383,1.05,3.85
			c0,0.433-0.133,0.85-0.399,1.25c-0.7-0.434-1.417-1.4-2.15-2.9c-0.167-0.367-0.35-0.683-0.55-0.95c0.4-0.267,0.85-0.55,1.35-0.85
			C46.833,53.617,47.066,53.483,47.3,53.35z M44.95,54.75c0.1,0.167,0.167,0.283,0.2,0.35l-0.301,0.25
			c-0.066-0.067-0.149-0.2-0.25-0.4C44.7,54.883,44.816,54.816,44.95,54.75z M43.75,58.65c-0.033-0.5-0.066-0.817-0.1-0.95
			c-0.2-0.8-0.551-1.467-1.051-2c0.067-0.034,0.117-0.05,0.15-0.05c0.333-0.067,0.717-0.2,1.15-0.4
			c0.5,1.267,1.232,2.617,2.199,4.05c-0.333,0.1-0.767,0.017-1.3-0.25C44.333,58.816,43.983,58.683,43.75,58.65z M47.05,61.55
			c0.033-0.066,0.05-0.133,0.05-0.2c0.067,0.033,0.134,0.066,0.2,0.1C47.2,61.483,47.117,61.517,47.05,61.55z M48.4,61.1l-0.45-0.65
			L48.6,60.4c0.067,0.167,0.134,0.35,0.2,0.55C48.667,60.983,48.533,61.033,48.4,61.1z M43.4,64.55
			c0.066,0.367,0.316,1.083,0.75,2.15c0.566,1.433,0.883,2.333,0.949,2.7c-1.3-1.833-2.3-3.117-3-3.85l-0.25,0.15
			c0,0.566-0.05,0.9-0.149,1c-0.5,0-0.8,0.033-0.9,0.1c0,0.133-0.05,0.25-0.149,0.35l-0.25-0.5c-0.067-0.167-0.15-0.283-0.25-0.35
			l-0.5,0.15c0,0.4-0.051,0.633-0.15,0.7l-0.05-0.1c0-0.767-0.101-1.35-0.3-1.75c0.066-0.033,0.133-0.05,0.199-0.05l3.7-0.65
			C43.15,64.6,43.267,64.583,43.4,64.55z M44.1,64.55c0.167,0.033,0.317,0.083,0.45,0.15c0.333,0.133,0.684,0.533,1.05,1.2
			c0.367,0.6,0.717,1.367,1.051,2.3c-0.233,0-0.384,0.033-0.45,0.1L46.1,68.35v1.45c-0.232-0.667-0.416-1.217-0.55-1.65
			C45.083,66.816,44.6,65.617,44.1,64.55z M51.05,59.9c-0.133,0.067-0.267,0.133-0.399,0.2c-0.067,0.033-0.134,0.083-0.2,0.15
			c-0.033-0.1-0.05-0.2-0.05-0.3c0-0.267,0.232-0.733,0.699-1.4C51.1,59.05,51.083,59.5,51.05,59.9z M51.65,59.45
			c0-0.167,0.017-0.333,0.05-0.5c0.366,0,0.75-0.167,1.149-0.5v0.05C52.417,58.867,52.017,59.183,51.65,59.45z M36.95,87.65
			c0.3-2.367,0.833-5.634,1.6-9.8c0.134-0.3,0.267-0.583,0.4-0.85l-0.101-0.3c-0.033,0.066-0.066,0.116-0.1,0.15
			c0.233-1.3,0.5-2.684,0.8-4.15c0.533-1.367,0.934-2.35,1.2-2.95c0.033,0.167,0.1,0.333,0.2,0.5C40.983,70.617,41,71.1,41,71.7
			c0,0.833,0.3,1.466,0.9,1.9c0.199-0.067,0.35-0.167,0.449-0.3c0-0.9,0.051-2.183,0.15-3.85h0.1c0.233,1.3,0.434,2.35,0.601,3.15
			c0.066,0.3,0.133,0.566,0.2,0.8c-0.167,0.4-0.351,1.017-0.551,1.85c-0.467,1.867-0.75,3.517-0.85,4.95
			C41.566,86,40.883,90.6,39.95,94c-0.967,3.4-2.333,6.083-4.1,8.05l-2.05,2.3l-3.65-0.149c-2.033-0.101-3.35-0.3-3.95-0.601
			c-0.6-0.333-1.217-1.166-1.85-2.5c-0.567-1.166-0.7-2.833-0.4-5c0.3-2.199,0.966-4.267,2-6.199l3.25-6.2
			c1.3-2.5,2.55-4.733,3.75-6.7c1.066-1.7,1.983-3.684,2.75-5.95c0.833-2.267,1.116-3.667,0.85-4.2c-0.167-0.467-0.066-0.8,0.3-1
			c0.301-0.167,1.018-0.35,2.15-0.55l-0.4,0.35c-0.033,0.333-0.1,1.183-0.199,2.55c-0.067-0.233-0.134-0.4-0.2-0.5l-0.351,0.15
			c-0.1,1.066-0.267,2.167-0.5,3.3c-0.1,0.5-0.149,1.283-0.149,2.35C36.8,74.467,36.6,75,36.6,75.1c0,0.4,0.033,0.483,0.101,0.25
			h0.55c0.1-0.2,0.217-0.4,0.35-0.6c0.134,0.2,0.301,0.433,0.5,0.7c-0.267,1.066-0.517,2.333-0.75,3.8
			c-0.666,1.333-1.283,2.934-1.85,4.8c-0.066,0.167-0.117,0.333-0.15,0.5c-0.067-0.2-0.133-0.366-0.2-0.5
			c-0.667,0.566-1.3,1.367-1.9,2.4c-0.7,1.2-1.133,1.899-1.3,2.1V88.5c0.2-0.566,0.466-1.45,0.8-2.65c0.267-1.133,0.517-2,0.75-2.6
			l-0.1-0.3c-0.667,0.7-1.383,2.566-2.15,5.6c0.133-0.6,0.133-1.05,0-1.35h-0.2c0.467-4.101,1.733-7.5,3.8-10.2v0.2
			c0,0.033-0.083,0.216-0.25,0.55c-0.067,0.167,0.066,0.183,0.4,0.05c0.066-0.066,0.1-0.25,0.1-0.55c0-0.333-0.017-0.533-0.05-0.6
			c-0.033-0.033-0.133-0.083-0.3-0.15c-2.467,2.6-3.833,6.467-4.1,11.6c-0.8,2.334-1.2,3.801-1.2,4.4c0,0.434,0.05,0.583,0.15,0.45
			c0.267-0.033,0.583-0.233,0.95-0.601c-0.033,0.067-0.066,0.134-0.1,0.2c-0.3,0.867-0.667,1.95-1.1,3.25
			c-0.1-0.167-0.184-0.283-0.25-0.35c-0.333,0.066-0.583,0.217-0.75,0.45c-0.1,0.199-0.167,0.3-0.2,0.3c0-0.334,0-0.533,0-0.601
			c-0.1-0.267-0.317-0.399-0.65-0.399c-0.4,0-0.816,0.55-1.25,1.649c-0.367,0.967-0.55,1.7-0.55,2.2c0,0.867,0.216,1.851,0.65,2.95
			l0.25-0.05c-0.367-0.5-0.383-1.25-0.05-2.25c0.467-1.033,0.733-1.7,0.8-2c0.033,0.1,0.05,0.217,0.05,0.35
			c0.067,0.134,0.217,0.351,0.45,0.65c0.3-0.101,0.517-0.217,0.65-0.351l0.2-0.05c0.167-0.333,0.333-0.649,0.5-0.95
			c0,0.033,0.017,0.067,0.05,0.101c0,0.233-0.033,0.633-0.1,1.2c0.034,0.5,0.317,0.85,0.85,1.05c0.367-0.2,0.783-0.983,1.25-2.351
			c0.033,0.033,0.133,0.167,0.3,0.4c0.1,0.167,0.217,0.25,0.35,0.25c0.233,0,0.433-0.167,0.6-0.5c0.167-0.333,0.283-0.5,0.35-0.5
			c0.533,0,0.95-0.1,1.25-0.3v0.55l0.25-0.05c0-0.233,0-0.467,0-0.7c0.033-0.066,0.066-0.134,0.1-0.2
			c0.167-0.3,0.483-0.917,0.95-1.85c0,0.066,0.067,0.217,0.2,0.45c0.167,0.3,0.333,0.533,0.5,0.699
			c0.167-0.133,0.367-0.433,0.601-0.899c0.033,0.5,0.083,1.033,0.149,1.6l0.25-0.05c-0.1-0.7-0.183-1.333-0.25-1.9
			c0.2-0.5,0.45-1.149,0.75-1.949c0.7-1.834,1.051-3,1.051-3.5S38.633,88.1,38.6,88c-0.033-0.267-0.199-0.4-0.5-0.4
			c-0.232,0-0.383,0.033-0.449,0.101v0.1c-0.233,0.733-0.384,1.167-0.45,1.3c0.133-0.333,0.217-0.583,0.25-0.75
			C37.517,88.05,37.35,87.816,36.95,87.65z M46.8,91.1c0.3-1.866,0.601-4.983,0.9-9.35c0.133,1.3,0.2,2.6,0.2,3.9
			c0,0.199-0.067,0.85-0.2,1.949c-0.101,1.067-0.05,1.783,0.149,2.15c0.667-1.6,1-3.6,1-6c0-1.134-0.166-2.733-0.5-4.8l0.4-0.5
			c0.5,3.933,0.934,8.733,1.3,14.399c0.067,1.101,0.117,2.084,0.15,2.95c-0.033-0.267-0.05-0.55-0.05-0.85
			c-0.233-1.834-0.584-2.75-1.051-2.75c-0.267,0-0.416,0.033-0.449,0.1c-0.033,0.033-0.051,0.117-0.051,0.25
			c0,0.5,0.051,1.05,0.15,1.65h-0.1c-0.167-1.167-0.434-1.75-0.801-1.75c-0.232,0-0.366,0.033-0.399,0.1l0.05,0.05L47.35,93.2
			C47.15,92.533,46.967,91.833,46.8,91.1z M48.1,105.85c0.434-0.133,1.117-0.316,2.051-0.55c0.633-0.167,1.183-0.333,1.649-0.5v1
			c-0.767,0.134-1.583,0.2-2.45,0.2C48.917,105.934,48.5,105.883,48.1,105.85z M51.75,107.2L51.7,108l-2.15,0.75
			c-0.133,0.066-0.3,0.133-0.5,0.2c-2.167,0.1-4.933,0.267-8.3,0.5l1.8-0.4c0.434-0.1,0.733-0.3,0.9-0.6L43.1,108
			c0,0.1-0.899,0.25-2.699,0.45l0.699-0.75c-0.399-0.367-1.017-0.65-1.85-0.851c-0.867-0.133-1.4-0.233-1.6-0.3l0.449-0.2
			c0.7-0.066,1.684-0.217,2.95-0.449c0.233,0.3,1.233,0.633,3,1c2.134,0.433,4.117,0.649,5.95,0.649
			C50.467,107.55,51.05,107.434,51.75,107.2z M58.15,53.05V51.9c0.166,0.167,0.25,0.45,0.25,0.85
			C58.333,52.85,58.25,52.95,58.15,53.05z M59.45,51.2c-0.134,0.2-0.267,0.417-0.4,0.65c0.2-0.9,0.3-1.367,0.3-1.4H59.4
			C59.4,50.717,59.417,50.967,59.45,51.2z M60.45,48.75c-0.101,0.367-0.217,0.717-0.351,1.05c-0.066,0.133-0.116,0.267-0.149,0.4
			c-0.233-2.7-0.351-4.8-0.351-6.3c0-1.467,0.033-2.533,0.101-3.2v-0.05c0.366,0.867,0.6,2.017,0.7,3.45
			c0.033,0.733,0.05,2,0.05,3.8C60.45,48.2,60.45,48.483,60.45,48.75z M59.2,36.15c0.133,0.067,0.283,0.25,0.45,0.55
			c0.633,1.1,1.05,3.116,1.25,6.05c0.1,1.233,0.1,2.367,0,3.4C60.7,41.316,60.133,37.983,59.2,36.15z M51.25,53.55v-0.1l0.75,3
			l-0.1,0.35l-0.15-0.1C51.65,56.033,51.483,54.983,51.25,53.55z M55.15,51.4c0.199,0.567,0.3,0.95,0.3,1.15
			c0,0.467-0.15,0.85-0.45,1.15c-0.1-0.7-0.2-1.817-0.3-3.35C54.8,50.517,54.95,50.867,55.15,51.4z M46.1,56.85
			c0.2,0.5,0.301,0.9,0.301,1.2c-0.033-0.1-0.217-0.433-0.551-1c-0.232-0.433-0.366-0.8-0.399-1.1
			C45.65,56.05,45.867,56.35,46.1,56.85z M59.15,38.6L59.1,38.55c0-0.233-0.066-0.533-0.199-0.9V37.6
			C59.167,37.733,59.25,38.066,59.15,38.6z M36.05,14.4c-1.467,4.733-2.45,7.75-2.95,9.05v-0.1c0.1-0.867,0.267-2.233,0.5-4.1
			c0.466-0.8,0.95-1.7,1.45-2.7C35.417,15.816,35.75,15.1,36.05,14.4z M35.95,19.2c0-0.167,0.033-0.317,0.1-0.45
			c1.7-4.9,2.667-7.6,2.9-8.1c-0.267,2-0.833,4.333-1.7,7C36.75,18.316,36.316,18.833,35.95,19.2z M21.75,16.55
			c0.2,0.567,0.566,1.05,1.1,1.45c0.2,0.2,0.35,0.467,0.45,0.8c0.134,0.333,0.167,0.667,0.1,1c-0.067,0.567-0.267,0.75-0.6,0.55
			c-0.333-0.167-1.183-0.934-2.55-2.3c-0.8-0.833-1.617-1.6-2.45-2.3c-0.9-0.7-1.55-1.133-1.95-1.3c-0.4-0.167-0.75-0.384-1.05-0.65
			c-0.3-0.267-0.45-0.517-0.45-0.75c0-0.967,1.133-0.917,3.4,0.15C20.017,14.3,21.35,15.417,21.75,16.55z M31.7,31.35v-0.4
			c0.233,0,0.533,0.15,0.9,0.45l-0.4,0.2C31.967,31.433,31.8,31.35,31.7,31.35z M29.9,23c-0.033,0.066-0.05,0.133-0.05,0.2H29.7
			c0-0.067,0-0.134,0-0.2C29.755,23,29.822,23,29.9,23z M22.7,32.05c-0.467-0.066-0.917-0.133-1.35-0.2
			c0-0.034,0.017-0.05,0.05-0.05C21.633,31.8,22.066,31.883,22.7,32.05z M27.9,34.1c0.034,0.066-0.017,0.2-0.15,0.4
			c-0.133,0.233-0.25,0.383-0.35,0.45L27.9,34.1z M31.9,32.6c0.1,0.3,0.133,0.533,0.1,0.7v-0.1l-0.4-0.05l0.05-0.95
			C31.717,32.2,31.8,32.333,31.9,32.6z M5.95,28.4c2,0.4,3.767,0.8,5.3,1.2h-1.4c-2.233-0.2-4.117-0.333-5.65-0.4
			C4.733,28.9,5.316,28.633,5.95,28.4z M9.3,30.95C7.367,31.083,5.934,31.233,5,31.4c-0.7,0.1-1.4,0.033-2.1-0.2
			c-0.2-0.1-0.35-0.184-0.45-0.25H9.3z M24.6,40.45l0.05-0.05c0,0.633-0.133,1.183-0.4,1.65L24.6,40.45z M24.15,37.9
			c0,0.433-0.083,1-0.25,1.7c-0.167,0.7-0.333,1.233-0.5,1.6v-0.05C23.767,39.117,24.017,38.033,24.15,37.9z M21.75,48.7
			c0.133,0.2,0.1,0.5-0.1,0.9l0.1-0.8V48.7z M25.05,53.4c-0.2-0.2-0.383-0.383-0.55-0.55l-0.15,0.1c0.267,0.4,0.55,0.883,0.85,1.45
			c0.167,0.8,0.45,1.633,0.85,2.5c0.833,1.833,1.884,3.333,3.15,4.5v-0.2c0.566,0.566,1.2,1.066,1.9,1.5
			c-1.267-1.1-2.434-2.784-3.5-5.05c-0.567-1.167-1.1-2.15-1.6-2.95c-0.2-1.067-0.4-2.4-0.6-4h-0.3c-0.1,0.4-0.15,0.95-0.15,1.65
			C24.95,52.683,24.983,53.033,25.05,53.4z M35.1,59.1l-0.2-0.15c0.3,0.1,0.95,0.283,1.95,0.55c0.367,0.1,0.551,0.283,0.551,0.55
			v0.4L37.35,60.4c-0.467-0.133-0.933-0.367-1.399-0.7C35.517,59.367,35.233,59.167,35.1,59.1z M43.95,74.55
			c0.167,0.2,0.35,0.3,0.55,0.3c0.434,0,0.6-0.05,0.5-0.15c0-0.467,0.05-1.134,0.15-2c0-0.434-0.101-1.184-0.301-2.25l0.051,0.2
			c1.166,2.9,2,5.817,2.5,8.75c-0.033,2.034-0.051,3.067-0.051,3.1c-0.1,3.133-0.316,5.833-0.649,8.1
			c-0.4-2.066-0.601-4.35-0.601-6.85c0-0.5,0.051-0.833,0.15-1c0.033,0.1,0.133,0.45,0.3,1.05c0.134,0.434,0.267,0.783,0.4,1.05
			l0.25-0.05c-0.033-0.033-0.384-0.899-1.05-2.6l-0.45,0.75c0-0.2-0.083-0.367-0.25-0.5c-0.101,0.166-0.2,0.517-0.3,1.05v9.8
			c0.066,1.033-0.033,1.767-0.301,2.2c-0.533-1.367-0.767-3.25-0.699-5.65h-0.5c-0.033,0.834-0.167,2.084-0.4,3.75v2
			c0,0.934-0.1,1.5-0.3,1.7C42.717,97.333,42.6,97.366,42.6,97.4c0,0.033,0.117,0.416,0.351,1.149c0.2,0.733,0.3,1.25,0.3,1.55
			c0,0.167-0.017,0.283-0.05,0.351c-0.967-0.334-2.333,0.383-4.101,2.149L39.2,102.7c0.133-0.033,0.566-0.367,1.3-1
			c0.566-0.5,1.133-0.75,1.7-0.75c0.433,0,0.866,0.217,1.3,0.649c-3.8,0.533-4.85,1.117-3.15,1.75
			c0.634,0.233,2.334,0.117,5.101-0.35c2.8-0.434,4.433-0.884,4.899-1.35c0.7-0.634,1.15-0.801,1.351-0.5
			c0.167,0.333,0.2,1.433,0.1,3.3v0.149c-2.967,0.567-4.583,0.884-4.85,0.95c0.066,0.066,0.133,0.134,0.2,0.2
			c-1.134-0.1-1.9-0.1-2.301,0c0.101,0.133,0.317,0.283,0.65,0.45c0.7,0.066,2.767,0.149,6.2,0.25c-1.767,0.267-3.4,0.399-4.9,0.399
			c-2.667-0.566-4.399-0.916-5.2-1.05c0.101-0.033,0.2-0.066,0.301-0.1L42,105.6c-0.033-0.1-0.467-0.199-1.3-0.3
			c-1.967,0.533-3.783,0.8-5.45,0.8c-0.2,0-0.383,0-0.55,0c0.3-0.5,0.733-1.033,1.3-1.6c1.333-1.3,2.367-2.533,3.1-3.7
			c0.733-1.2,1.317-2.616,1.75-4.25l1.65-5.85c0.233-0.867,0.434-2.067,0.6-3.601c0.167-1.566,0.25-3.05,0.25-4.449
			c0-3.234,0.167-5.7,0.5-7.4C43.883,75.017,43.917,74.783,43.95,74.55z M34.45,108.3c-0.1-0.533-0.134-0.967-0.1-1.3
			c1.9,0.066,2.883,0.116,2.95,0.15c0.2,0.066,0.917,0.333,2.15,0.8L38.85,108c-0.133,0.066-0.883-0.05-2.25-0.35
			C35.8,107.483,35.083,107.7,34.45,108.3z M14.95,101.25l2.35,0.45l-1.95,1.2c-1.233,0.767-2.417,1.166-3.55,1.199
			c-1.133,0.033-1.7-0.333-1.7-1.1s0.466-1.333,1.4-1.7C12.367,100.967,13.517,100.95,14.95,101.25z M10.65,110.85
			c0-0.133,0.034-0.283,0.1-0.449c0.228-0.586,0.586-1.187,1.075-1.801c1.422-0.469,2.93-0.985,4.525-1.55l-0.25,0.2
			C15.066,108.15,13.25,109.35,10.65,110.85z M15.15,109.8c-0.267,0.101-0.5,0.2-0.7,0.3v-0.05c3.8-2.733,5.7-4.399,5.7-5
			c0-0.899-1.1-1.217-3.3-0.95c0.167-0.133,0.35-0.283,0.55-0.449c2.4-1.834,3.75-2.75,4.05-2.75c0.233,0,0.7,0.583,1.4,1.75
			c0.633,1.133,1.566,2.017,2.8,2.649c1.2,0.634,2.534,0.95,4,0.95h2.25l0.9,3.9c0.6,2.533,0.9,4.133,0.9,4.8
			c-0.034,0.899-0.217,1.083-0.55,0.55c-0.333-0.467-0.7-1.3-1.1-2.5c-0.1-0.533-0.217-1.083-0.35-1.65
			c0.033-1.166,0.05-2.116,0.05-2.85c-0.033-1.367-0.383-2.05-1.05-2.05c-0.233,0-0.367,0.05-0.4,0.149l-0.1,0.101
			c0.1,0.866,0.066,1.899-0.1,3.1c-0.133,0.2-0.25,0.566-0.35,1.101c-0.167,0.732-0.283,1.649-0.35,2.75v0.05
			c-0.002,0.072-0.019,0.156-0.05,0.25c0-1.4-0.034-2.517-0.1-3.351c-0.066-1.199-0.283-1.933-0.65-2.199c0-0.067,0-0.117,0-0.15
			c0-0.233-0.017-0.35-0.05-0.35l-0.1,0.1c-0.067,0.033-0.134,0.116-0.2,0.25c-0.233,0-0.383,0.033-0.45,0.1
			c-0.066,0.067-0.116,0.101-0.15,0.101c0.067,1-0.067,2.05-0.4,3.149c-0.167,0.601-0.5,1.467-1,2.601c0.133-0.567,0.3-1.567,0.5-3
			c0.167-1.3,0.25-2.05,0.25-2.25c0-0.267-0.066-0.434-0.2-0.5c-0.167-0.067-0.3-0.134-0.4-0.2c-0.367,0.3-0.733,0.7-1.1,1.2h-0.05
			c-0.2,0-0.417,0.083-0.65,0.25c0.5-1.033,0.75-1.767,0.75-2.2c0-0.267-0.05-0.45-0.15-0.55c-0.167-0.033-0.317-0.067-0.45-0.101
			c-2.333,2.7-4.25,4.733-5.75,6.101c0.367-0.634,0.8-1.3,1.3-2c1.3-1.767,2.134-3.217,2.5-4.351c0.333-1.133,0.2-1.883-0.4-2.25
			c-0.167-0.133-0.383-0.116-0.65,0.051c-0.267,0.166-0.517,0.399-0.75,0.699c-0.733,1.067-2.35,2.417-4.85,4.051
			C15.816,109.383,15.483,109.6,15.15,109.8z M29.7,96.3c2.533-5.267,3.8-8.217,3.8-8.85c0-0.167-0.017-0.267-0.05-0.3
			c0.5-0.934,0.933-1.584,1.3-1.95l0.1,0.149v0.9c-0.3,1.133-0.517,2.2-0.65,3.2c-0.267,0.7-0.583,1.416-0.95,2.149
			c-0.333,0.667-0.85,1.551-1.55,2.65c-0.833,1.233-1.367,2.05-1.6,2.45C29.934,96.6,29.8,96.467,29.7,96.3z M37,81.45
			c-0.4,2.633-0.65,4.883-0.75,6.75c-0.2,0.233-0.4,0.517-0.6,0.85c-0.4,0.867-0.716,1.5-0.95,1.9V90.8
			c0.066-0.2,0.216-1,0.45-2.399c0.133-0.9,0.233-1.567,0.3-2C35.85,84.733,36.367,83.083,37,81.45z M44.1,68.8v1.4
			c-0.066-0.667-0.149-1.233-0.25-1.7C43.917,68.6,44,68.7,44.1,68.8z M39.6,68.65h0.051c0,0.433,0.05,0.75,0.149,0.95
			c-0.233,0.8-0.417,1.367-0.55,1.7c0.066-0.333,0.15-1.083,0.25-2.25C39.533,68.917,39.566,68.783,39.6,68.65z M46.25,89.7h-0.1
			c-0.134-0.733-0.2-1.8-0.2-3.2C46.15,87.066,46.25,88.133,46.25,89.7z M48.3,100.5c-0.733,0.3-1.75,0.566-3.05,0.8
			c0.233-0.5,0.45-1.1,0.65-1.8c0.333-1.434,0.583-2.45,0.75-3.05h0.1C47.05,98.05,47.566,99.4,48.3,100.5z M43.85,92.8l0.051-0.2
			v-0.05c0.3,0.667,0.467,1.233,0.5,1.7c0.166,0.9,0.399,1.55,0.699,1.95c0,0.133-0.166,0.55-0.5,1.25
			c-0.366,0.7-0.616,1.116-0.75,1.25V92.8z M45.75,92.95L46.1,93c0,0.366-0.133,0.767-0.399,1.2L45.75,92.95z M49.35,99.85
			c-0.1,0.101-0.232,0.217-0.399,0.351c-0.101-0.467-0.283-1.134-0.55-2c-0.301-1.033-0.45-1.783-0.45-2.25H48l0.35,1.899
			c0.134,0.767,0.518,1.184,1.15,1.25C49.467,99.4,49.417,99.65,49.35,99.85z M44.35,101.45c-0.1,0.033-0.199,0.05-0.3,0.05
			c-0.033,0-0.066,0.017-0.1,0.05l-0.101-0.1V99.8c0.733-0.767,1.301-1.733,1.7-2.899c0.367-1.268,0.65-2.184,0.851-2.75
			C46.033,96.35,45.35,98.783,44.35,101.45z M50.1,110.8c1-0.133,1.551-0.167,1.65-0.1c0.167,0.166,0.066,1.583-0.3,4.25
			c-0.033,0.267-0.067,0.55-0.101,0.85c-0.033-0.033-0.05-0.066-0.05-0.1c-0.066-0.067-0.133-0.15-0.2-0.25
			c-0.699,1.433-1.3,3.566-1.8,6.399c-0.066,0.434-0.149,0.9-0.25,1.4c-0.2,0.533-0.383,1.184-0.55,1.95
			c-0.167,0.666-0.417,1.683-0.75,3.05l0.2-4.6c0.667-3.967,1-6,1-6.101c0-0.233-0.033-0.366-0.101-0.399L48.7,117.2
			c-0.101,0.267-0.2,0.6-0.3,1c0.199-1.567,0.35-2.767,0.449-3.601c0.167,0.033,0.351,0.084,0.551,0.15
			c0,0.833,0.066,1.434,0.199,1.8l0.4-0.05c0.1-0.367,0.15-0.85,0.15-1.45L50.1,110.8z M57.25,151.4c0.1,0.066,0.2,0.133,0.3,0.199
			c0.3,0.2,0.717,0.384,1.25,0.551c0.567,0.166,1.083,0.25,1.55,0.25c0.5,0,1.167,0.1,2,0.3c0.867,0.233,1.634,0.5,2.301,0.8
			c1,0.434,1.6,0.767,1.8,1c0.233,0.233,0.183,0.434-0.15,0.6c-0.433,0.267-2.95,0.45-7.55,0.551c0.033-0.034,0.066-0.067,0.1-0.101
			c0-0.033,0-0.149,0-0.35c-0.199-0.334-1.533-0.834-4-1.5c-2.732-0.7-4.383-1.233-4.949-1.601l0.55-0.1
			c0.733-0.1,2.233-0.25,4.5-0.45C55.85,151.483,56.617,151.434,57.25,151.4z M57.2,150.1l-1.75-0.55
			c-1-0.267-2.117-0.467-3.351-0.6l0.25-0.101l5.301-0.399c1.366,0,2.267,0.066,2.699,0.2c0.233,0.1,0.634,0.267,1.2,0.5
			c-0.167,0-0.316,0-0.45,0c-2.1,0-3.383,0.283-3.85,0.85C57.217,150.033,57.2,150.066,57.2,150.1z M33.75,154.15
			c1.467,0.066,3.1,0.116,4.9,0.149c-2.2,0.233-4.05,0.333-5.55,0.3C33.267,154.467,33.483,154.316,33.75,154.15z M48.15,111.05
			c0.267-0.033,0.533-0.066,0.8-0.1c-0.101,0.833-0.117,1.583-0.05,2.25h-0.15c-0.2-0.367-0.35-0.834-0.45-1.4
			C48.233,111.5,48.184,111.25,48.15,111.05z M44.3,111.6c0.833-0.1,1.7-0.217,2.601-0.35c-0.067,0.566-0.167,0.967-0.301,1.2
			l-0.649-0.75c-0.267,0.333-0.517,0.7-0.75,1.1c-0.233-0.133-0.467-0.316-0.7-0.55c-0.2-0.2-0.3-0.333-0.3-0.4
			C44.2,111.75,44.233,111.667,44.3,111.6z M40,111.55c0.233,0,0.483,0.017,0.75,0.05c-0.066,0.134-0.117,0.25-0.15,0.351
			C40.367,111.85,40.167,111.717,40,111.55z M43.65,114.25l0.05,0.1c-0.3,0.667-0.5,1.567-0.601,2.7
			c-0.066,0.601-0.149,1.434-0.25,2.5v-4.85L43.65,114.25z M39.95,112.95c0.133-0.067,0.267-0.067,0.399,0
			c0.167,0.1,0.25,0.283,0.25,0.55c0,0.4-0.133,1.316-0.399,2.75C40.033,114.75,39.95,113.65,39.95,112.95z M47.2,121.1v-0.05
			c0.033,0.2,0.017,0.517-0.05,0.95H47.1L47.2,121.1z M53.35,154.45c0.334,0,0.9,0.116,1.7,0.35c-1.033-0.2-1.933-0.3-2.7-0.3
			L53.35,154.45z M29.1,116.85c-0.133,0.834-0.267,1.351-0.4,1.551c-0.167,0.3-0.534,0.517-1.1,0.649
			c-0.567,0.167-0.883,0.15-0.95-0.05l-0.3-1.7c0.267-0.434,0.517-0.899,0.75-1.399c0,0.633,0.033,1.399,0.1,2.3l0.25-0.15
			c0-0.467,0.2-2.1,0.6-4.899c0.1-0.268,0.2-0.5,0.3-0.7c-0.1,0.8-0.083,1.616,0.05,2.45C28.533,115.667,28.767,116.316,29.1,116.85
			z M25.25,113.9c-0.233-0.467-0.333-0.834-0.3-1.101c0-0.3,0.15-0.633,0.45-1v1.2C25.4,113.167,25.35,113.467,25.25,113.9z
			 M17.5,115.8c1.233-0.899,2.233-1.649,3-2.25l-0.1,0.2c-0.067,0.133-0.433,0.75-1.1,1.85c-0.467,0.801-0.7,1.434-0.7,1.9
			c0,0.267,0.017,0.45,0.05,0.55c0.034,0.066,0.083,0.134,0.15,0.2c-1.2,0.434-1.733,0.05-1.6-1.15
			C17.233,116.7,17.333,116.267,17.5,115.8z"/>
		<path fill-rule="evenodd" clip-rule="evenodd" fill="#FF9900" d="M24.85,21.9c0.367,0.067,0.583-0.017,0.65-0.25
			c0.033-0.067,0.05-0.15,0.05-0.25c0.667,1.3,1.067,2.05,1.2,2.25h0.1V21.7c-0.4-3.333-0.6-5.034-0.6-5.1
			C26.083,15.033,26,13.383,26,11.65c0-0.333,0.033-0.533,0.1-0.6L26.05,11c0-0.033,0.117-0.05,0.35-0.05
			c0.733,0,1.483,1.55,2.25,4.65c0.067,0.233,0.133,0.483,0.2,0.75c-0.233,1.566-0.317,2.95-0.25,4.15c0,0.066,0,0.15,0,0.25
			c-0.1-0.267-0.15-0.434-0.15-0.5v-0.025c-0.034-0.052-0.05-0.094-0.05-0.125c-0.533-2.767-1.083-4.917-1.65-6.45H26.7v1.25
			c0.033,0.3,0.2,1.55,0.5,3.75c0.2,1.533,0.267,2.783,0.2,3.75c0,0.667,0.284,1.867,0.85,3.6c0.6,1.767,0.9,3,0.9,3.7
			c0,0.333-0.017,0.533-0.05,0.6c-0.133,0.1-0.2-0.15-0.2-0.75c0-1-0.433-2.083-1.3-3.25c-1.233-1.667-1.934-2.667-2.1-3
			C25.467,23.2,25.25,22.733,24.85,21.9z M37.25,17.65c0.867-2.667,1.434-5,1.7-7c-0.233,0.5-1.2,3.2-2.9,8.1
			c-0.066,0.133-0.1,0.283-0.1,0.45H35.9v0.05c-0.667,0.633-1.083,1.133-1.25,1.5s-0.15,0.683,0.05,0.95
			c0.033,0.066,0.083,0.116,0.15,0.15c-0.8,1.867-1.633,3.383-2.5,4.55c-0.333-0.367-0.5-0.65-0.5-0.85c0-0.4,0.15-1.85,0.45-4.35
			c0.033-0.067,0.083-0.15,0.15-0.25c0.133-0.2,0.283-0.4,0.45-0.6l0.65-1c0-0.034,0.017-0.067,0.05-0.1
			c-0.233,1.867-0.4,3.233-0.5,4.1v0.1c0.5-1.3,1.483-4.317,2.95-9.05c0.533-1.233,0.95-2.35,1.25-3.35c0-0.033,0-0.066,0-0.1
			c1.067-2.5,1.967-3.75,2.7-3.75c0.3,0,0.483,0.1,0.55,0.3c0.033,0.1,0.05,0.35,0.05,0.75c0,0.833-0.433,2.9-1.3,6.2
			c-0.066,0.1-0.116,0.2-0.149,0.3l-1.45,2.2C37.533,17.183,37.383,17.417,37.25,17.65z M40.95,23.2
			c-0.2,0.167-0.384,0.316-0.55,0.45c-0.033-0.1-0.051-0.233-0.051-0.4c0-0.233,0.717-0.917,2.15-2.05
			c0.767-0.6,1.75-1.35,2.95-2.25L45.6,18.8c-6.633,4.167-9.966,6.25-10,6.25c-0.267,0-0.467-0.017-0.6-0.05l-0.1-0.1l-0.05-0.6
			l0.85-2.25c0-0.024,0.008-0.041,0.025-0.05h0.025c0.066,0,0.133-0.017,0.2-0.05c0.033,0,0.066,0,0.1,0
			c0.101-0.067,0.233-0.117,0.4-0.15h0.05c0.233-0.1,0.517-0.217,0.85-0.35c-0.066,0.1-0.116,0.183-0.149,0.25
			c0.066-0.1,0.149-0.2,0.25-0.3l0.2-0.1h0.05v-0.05l0.35-0.15c0.033,0,0.067-0.017,0.101-0.05c0.333-0.167,0.649-0.316,0.949-0.45
			l3.051-2l0.199-0.2c0.063-0.031,0.13-0.081,0.2-0.15c-1.233,1.268-1.95,2-2.149,2.2c0.533-0.3,2.133-1.317,4.8-3.05
			c2.1-1.367,3.733-2.367,4.899-3h0.051c-0.167,0.3-0.367,0.633-0.601,1l-0.85,1.2c-0.033,0.033-0.067,0.066-0.101,0.1
			c-0.033,0.066-0.083,0.133-0.149,0.2c-0.033,0.033-0.083,0.083-0.15,0.15c-1.399,1.5-3.183,3.05-5.35,4.65
			C42.15,22.267,41.483,22.767,40.95,23.2z M39.35,27.6c-0.033,0.233-0.066,0.483-0.1,0.75c-0.566-0.2-1.15-0.333-1.75-0.4
			l-0.4,0.25c0.367,0.3,1.051,0.6,2.051,0.9c-0.067,0.133-0.117,0.283-0.15,0.45c-0.267,0.9-0.383,1.567-0.35,2
			c0.066,0.467,0.316,1.067,0.75,1.8c0.066,0.1,0.133,0.2,0.199,0.3c-0.133,0.133-0.366,0.233-0.699,0.3
			c1.199,1.066,2.3,2.216,3.3,3.45c1.633,2,2.983,4.183,4.05,6.55c0.1,0.4,0.184,0.8,0.25,1.2c-1.533-2.933-3.066-5.35-4.6-7.25
			c-0.9-1.133-1.9-2.217-3-3.25v0.05c-0.033,0.1-0.051,0.267-0.051,0.5c-0.3,0.066-0.85,0.116-1.649,0.15
			c-1.634-1.5-3.2-2.117-4.7-1.85c-1.267,0.2-2.367,0.566-3.3,1.1c-1.1,0.6-2,1.417-2.7,2.45c-0.934,1.4-1.4,2.3-1.4,2.7
			c0,0.833,0.417,1.816,1.25,2.95c0.033,0.066,0.083,0.133,0.15,0.2c0.1,2.367,0.167,4.333,0.2,5.9c0-2.033,0.05-3.833,0.15-5.4
			c0.3,0.367,0.633,0.717,1,1.05c-0.1,1.3-0.184,2.383-0.25,3.25c-0.167,2.433-0.4,4.383-0.7,5.85c-0.633-1.3-0.933-3.066-0.9-5.3
			c0.1-3.2,0.1-5.167,0-5.9l-0.1-0.3c-0.2,1-0.367,1.733-0.5,2.2c-0.233,0.767-0.633,1.45-1.2,2.05c-0.233-0.233-0.35-0.7-0.35-1.4
			h-0.1c-0.133,0.767-0.35,1.767-0.65,3c-0.133,0.567-0.2,1.35-0.2,2.35c0.467,5.833,0.7,9.35,0.7,10.55
			c0.1,0.167-0.067,0.25-0.5,0.25c-0.867,0-1.567-1.45-2.1-4.35c-0.267-1.434-0.45-2.9-0.55-4.4c0-0.533,0.083-1.35,0.25-2.45
			c0.033,0.733,0.083,1.3,0.15,1.7c0.167,0.867,0.466,1.717,0.9,2.55c0.2,0.966,0.517,2.367,0.95,4.2v0.05
			c0.066-0.034,0.116-0.05,0.15-0.05v-0.35c0-0.434-0.034-1.184-0.1-2.25c0.059,0.058,0.117,0.133,0.175,0.225
			c-0.058-0.096-0.116-0.187-0.175-0.275C22.717,55.417,22.7,55.2,22.7,55c-0.134-1.733-0.284-3.033-0.45-3.9
			c0,0.1-0.017,0.167-0.05,0.2c-0.1,0.067-0.35,0.117-0.75,0.15L21.4,52.1c-0.133-0.733-0.2-1.5-0.2-2.3
			c0-2.167,0.283-4.45,0.85-6.85c0.533-2.4,0.8-3.617,0.8-3.65c0-0.233-0.05-0.383-0.15-0.45c-0.134,0-0.25-0.017-0.35-0.05
			c-0.1,0.067-0.284,0.233-0.55,0.5c-0.3,0.333-0.45,0.6-0.45,0.8h0.25c0.1-0.434,0.316-0.65,0.65-0.65
			c-0.133,0.333-0.333,1.033-0.6,2.1c-0.4,0.567-0.917,1.267-1.55,2.1c-1.1,1.467-1.75,2.783-1.95,3.95h-0.2
			c0-0.133-0.034-0.4-0.1-0.8c0-0.667,0.45-2.45,1.35-5.35c0.133-0.467,0.283-0.9,0.45-1.3c-0.533,0.467-1.2,1.067-2,1.8
			c-0.2,0.2-0.417,0.417-0.65,0.65c0.2-0.4,0.417-0.8,0.65-1.2c1.4-2.2,2.1-3.5,2.1-3.9c0-0.833-0.633-0.567-1.9,0.8
			c-1.233,1.367-2.917,3.633-5.05,6.8v0.05h-0.05c-1.267,0.567-2.7,1.067-4.3,1.5c0.333-0.2,0.5-0.383,0.5-0.55
			c0-0.1-0.034-0.284-0.1-0.55c0-0.033,1.383-1.283,4.15-3.75c3.133-2.767,5.283-4.717,6.45-5.85l0.15-0.15
			c-1.9,1.1-3.717,2.15-5.45,3.15c-0.867,0.5-1.633,0.95-2.3,1.35c0.566-0.633,1.033-1.117,1.4-1.45
			c2.033-1.633,4.816-2.917,8.35-3.85c-0.233,0.3-0.4,0.533-0.5,0.7v0.1c0.167-0.066,0.433-0.183,0.8-0.35
			c0.467,0.4,0.7,0.667,0.7,0.8c0,0.367-0.267,0.9-0.8,1.6c-0.033,0.066-0.05,0.133-0.05,0.2v0.15c0.133-0.1,0.5-0.667,1.1-1.7
			c0.7-0.967,1.367-1.45,2-1.45c0.2,0,0.5,0.033,0.9,0.1v0.8l1.35-2.55c0.667,0.033,1.267,0.05,1.8,0.05c0.433,0,0.833-0.1,1.2-0.3
			c0-0.133-0.1-0.217-0.3-0.25c0.467-0.433,0.7-1.033,0.7-1.8c0-0.233-0.05-0.4-0.15-0.5l-0.5-0.4c0-0.267,0.1-0.467,0.3-0.6
			c0.067,0,0.85,0.45,2.35,1.35c0.066-0.067,0.117-0.267,0.15-0.6c0.067-0.133,0.167-0.25,0.3-0.35
			c-0.233-0.167-0.467-0.317-0.7-0.45V29.4c0.566,0.3,1.117,0.6,1.65,0.9c-0.267-0.167-0.517-0.316-0.75-0.45
			c0.1-0.067,0.25-0.117,0.45-0.15c-0.7-0.233-1.167-0.4-1.4-0.5c-0.333-0.134-0.5-0.35-0.5-0.65c0-1.1,1.25-1.267,3.75-0.5
			c0-0.1,0.083-0.217,0.25-0.35c0.2-0.167,0.35-0.417,0.45-0.75c0-0.1-0.051-0.384-0.15-0.85c0-0.567,0.3-0.867,0.9-0.9
			c0.433,0,1.133,0.033,2.1,0.1c-0.033,0.167-0.017,0.367,0.05,0.6c0,0.067,0.017,0.133,0.05,0.2v0.1c0,0.033,0.018,0.066,0.051,0.1
			c0.1,0.3,0.166,0.617,0.199,0.95c0,0.033,0,0.066,0,0.1V27.6z M50.15,40.05c-0.967-1.5-2.233-2.867-3.801-4.1L46.4,35.7
			c1.6,0.366,3.083,1.833,4.449,4.4c0.167,0.3,0.317,0.6,0.45,0.9C50.934,40.633,50.55,40.316,50.15,40.05z M51.4,42.55
			c0.267,0.267,0.533,0.5,0.8,0.7c0.2,0.633,0.333,1.217,0.399,1.75c-0.166,0.233-0.316,0.45-0.449,0.65
			C51.983,44.55,51.733,43.517,51.4,42.55z M50.45,47.95H50.4c-0.033,0.033-0.051,0.066-0.051,0.1c-0.1,0.067-0.183,0.133-0.25,0.2
			c-0.1,0.133-0.217,0.25-0.35,0.35c-0.1-0.6-0.15-1-0.15-1.2v-0.35L50,46.7C50.1,46.9,50.25,47.316,50.45,47.95z M47.5,50.5
			c-0.167,0.1-0.316,0.2-0.45,0.3c-0.2-0.367-0.433-0.75-0.7-1.15c-0.1-0.167-0.217-0.333-0.35-0.5c0-0.067,0-0.117,0-0.15
			c0-0.4,0.033-0.75,0.1-1.05l0.101-0.1c0.066-0.1,0.2-0.15,0.399-0.15C46.9,48.667,47.2,49.6,47.5,50.5z M43.25,52.9H43.2
			l0.149-0.2c0.033,0.033,0.084,0.066,0.15,0.1c-0.066,0-0.117,0.017-0.15,0.05c-0.033,0-0.05,0.017-0.05,0.05H43.25z M43.2,58.65
			c0.033,0.067,0.05,0.133,0.05,0.2c0.133,1.566,0.3,2.75,0.5,3.55c-0.133,0.033-0.267,0.067-0.4,0.1c-0.3-0.1-0.633-0.2-1-0.3
			c-0.166,0.3-0.283,0.5-0.35,0.6c-0.434,0.1-0.867,0.184-1.3,0.25c-0.333-0.133-0.7-0.367-1.101-0.7
			c-0.666-0.6-1.217-0.9-1.649-0.9c-0.2,0-0.333,0.116-0.4,0.35c-0.033,0.2-0.167,0.3-0.399,0.3c-1.3,0-2.8-0.567-4.5-1.7
			c-1.533-1.033-2.3-1.733-2.3-2.1c0-0.167,0.017-0.367,0.05-0.6c0.633-0.1,1.284-0.017,1.95,0.25c-0.034-0.233,0.033-0.434,0.2-0.6
			c0.134-0.167,0.317-0.25,0.55-0.25c1.133,0,2.6,0.417,4.4,1.25c0.967,0.466,2.267,1.133,3.9,2c0.166-0.267,0.566-0.534,1.199-0.8
			c0.167-0.1,0.283-0.3,0.351-0.6C42.983,58.816,43.066,58.717,43.2,58.65z M58.05,38.65c0.067-0.267,0.117-0.533,0.15-0.8
			c0.267-1.4,0.6-1.967,1-1.7c0.933,1.833,1.5,5.167,1.7,10l-0.301,2c-0.033,0.233-0.083,0.45-0.149,0.65v-0.05
			c0-0.267,0-0.55,0-0.85c0-1.8-0.017-3.067-0.05-3.8c-0.101-1.434-0.334-2.583-0.7-3.45v0.05c-0.067,0.667-0.101,1.733-0.101,3.2
			c0,1.5,0.117,3.6,0.351,6.3c-0.167,0.333-0.333,0.667-0.5,1c-0.033-0.233-0.05-0.483-0.05-0.75H59.35c0,0.033-0.1,0.5-0.3,1.4
			v0.05H59c-0.033,0.067-0.066,0.133-0.1,0.2c-0.167,0.2-0.334,0.417-0.5,0.65c0-0.4-0.084-0.684-0.25-0.85v1.15v0.05
			c-0.167,0.2-0.351,0.417-0.551,0.65v-2.3c-0.5-0.333-0.8-0.5-0.899-0.5l-0.15,0.15c-0.066,0.033-0.1,0.167-0.1,0.4
			c0,0.5,0.1,1.183,0.3,2.05c0.066,0.333,0.15,0.65,0.25,0.95c-0.267,0.267-0.533,0.533-0.8,0.8c-0.067-0.2-0.15-0.4-0.25-0.6
			l-0.05,0.95C55.8,55.717,55.7,55.8,55.6,55.9c-0.033,0.033-0.066,0.083-0.1,0.15h-0.2l-0.55-0.1c0-0.267,0.033-0.45,0.1-0.55
			l-0.1-0.2c-0.1,0.4-0.15,0.966-0.15,1.7c-0.333,0.3-0.633,0.583-0.899,0.85c-0.233-0.1-0.351-0.133-0.351-0.1
			c0.067,0.067,0.134,0.15,0.2,0.25c-0.267,0.2-0.5,0.4-0.7,0.6v-0.05c-0.399,0.333-0.783,0.5-1.149,0.5
			c-0.033,0.167-0.05,0.333-0.05,0.5c-0.233,0.167-0.434,0.316-0.601,0.45c0.033-0.4,0.05-0.85,0.05-1.35
			c-0.467,0.667-0.699,1.133-0.699,1.4c0,0.1,0.017,0.2,0.05,0.3L49.7,60.6c-0.267,0.1-0.567,0.216-0.9,0.35
			c-0.066-0.2-0.133-0.384-0.2-0.55l-0.649,0.05l0.45,0.65c-0.233,0.066-0.45,0.15-0.65,0.25l-0.45,0.1
			c-0.066-0.034-0.133-0.067-0.2-0.1c0,0.066-0.017,0.133-0.05,0.2c-0.8,0.233-1.683,0.467-2.649,0.7l-0.5,0.15v-1.2
			c-0.067-1.134-0.117-1.983-0.15-2.55c0.233,0.033,0.583,0.167,1.05,0.4c0.533,0.267,0.967,0.35,1.3,0.25
			c-0.967-1.433-1.699-2.783-2.199-4.05c0.1-0.033,0.199-0.083,0.3-0.15l0.3-0.15c0.033,0,0.066,0,0.1,0
			c0.101,0.2,0.184,0.333,0.25,0.4l0.301-0.25c-0.033-0.067-0.101-0.184-0.2-0.35c0.1-0.067,0.2-0.117,0.3-0.15
			c0.2,0.267,0.383,0.583,0.55,0.95c0.733,1.5,1.45,2.467,2.15,2.9c0.267-0.4,0.399-0.817,0.399-1.25c0-0.467-0.35-1.75-1.05-3.85
			c0.033-0.067,0.101-0.117,0.2-0.15c0.434,0.933,0.717,1.8,0.85,2.6l0.15-0.1c-0.033-0.9-0.217-1.833-0.55-2.8
			c0.033-0.033,0.066-0.05,0.1-0.05c0.033-0.034,0.067-0.05,0.101-0.05s0.05-0.017,0.05-0.05c0.667,2.233,1.183,4.05,1.55,5.45
			c0.3-0.1,0.6-0.417,0.9-0.95c0.3-0.467,0.449-0.817,0.449-1.05c0-0.8-0.25-2.35-0.75-4.65c-0.033-0.133-0.066-0.267-0.1-0.4
			c0.133-0.133,0.25-0.25,0.35-0.35c0.167-0.167,0.334-0.316,0.5-0.45c0.067,0.3,0.15,0.633,0.25,1c0.467,1.8,1.167,3.15,2.101,4.05
			c0.033-0.133,0.183-0.7,0.45-1.7c0.199-0.733,0.3-1.284,0.3-1.65c0-2.1-0.117-3.816-0.351-5.15l0.2-0.25
			c0.167-0.233,0.333-0.483,0.5-0.75c0.2,0.467,0.351,1.067,0.45,1.8c0.267,1.566,0.55,2.6,0.85,3.1c0.5-0.2,1.084-0.233,1.75-0.1
			c-0.066-0.434-0.283-1.767-0.649-4C56.717,45.233,56.6,44,56.6,43c0-0.3,0.018-0.483,0.051-0.55
			c0.033-0.034,0.149-0.117,0.35-0.25c0.934,2.8,1.383,4.95,1.35,6.45h0.15c0.1-1.6,0.15-3.3,0.15-5.1c0-1.5-0.134-2.767-0.4-3.8
			C58.184,39.417,58.117,39.05,58.05,38.65z M46.6,45.4l0.25-0.05c0.134,0.3,0.25,0.617,0.351,0.95L47.1,46.4
			C46.934,46.066,46.767,45.733,46.6,45.4z M39.35,41.9c0.134,0.333,0.268,0.683,0.4,1.05l-0.1,0.25c-0.2-0.233-0.4-0.5-0.601-0.8
			C39.15,42.2,39.25,42.033,39.35,41.9z M36.85,45.05c0.934,2.333,1.518,3.95,1.75,4.85c-0.066,0.133-0.232,0.217-0.5,0.25
			c-0.467-1.067-1.066-2.617-1.8-4.65c0.067-0.067,0.15-0.133,0.25-0.2L36.85,45.05z M32,46.6c0.333,0.066,0.65,0.117,0.95,0.15
			l1.2,5.15c0,0.3,0,0.467,0,0.5c-0.067,0.167-0.25,0.267-0.55,0.3C32.867,50.433,32.333,48.4,32,46.6z M46.1,56.85
			c-0.232-0.5-0.449-0.8-0.649-0.9c0.033,0.3,0.167,0.667,0.399,1.1c0.334,0.567,0.518,0.9,0.551,1
			C46.4,57.75,46.3,57.35,46.1,56.85z M55.15,51.4c-0.2-0.533-0.351-0.883-0.45-1.05c0.1,1.533,0.2,2.65,0.3,3.35
			c0.3-0.3,0.45-0.684,0.45-1.15C55.45,52.35,55.35,51.967,55.15,51.4z M51.25,53.55c0.233,1.434,0.4,2.483,0.5,3.15l0.15,0.1
			l0.1-0.35l-0.75-3V53.55z M59.15,38.6c0.1-0.534,0.017-0.867-0.25-1v0.05c0.133,0.367,0.199,0.667,0.199,0.9L59.15,38.6z
			 M29.4,24.9c0.133,0.433,0.267,0.867,0.4,1.3c0,0.033-0.017,0.066-0.05,0.1C29.617,25.933,29.5,25.467,29.4,24.9z M30.25,24.95
			c-0.3-0.767-0.55-1.434-0.75-2c0.066,0.033,0.133,0.05,0.2,0.05c0,0.066,0,0.133,0,0.2h0.15c0-0.067,0.017-0.134,0.05-0.2h0.05
			c0.066-0.033,0.133-0.05,0.2-0.05c0.067-0.034,0.133-0.067,0.2-0.1l0.5-0.25C30.65,23.533,30.45,24.316,30.25,24.95z M31.7,31.35
			c0.1,0,0.267,0.083,0.5,0.25l0.4-0.2c-0.367-0.3-0.667-0.45-0.9-0.45V31.35z M9.3,30.95H2.45c-0.167-0.1-0.233-0.184-0.2-0.25
			c0.066-0.2,0.467-0.534,1.2-1c0.233-0.167,0.483-0.333,0.75-0.5c1.533,0.066,3.417,0.2,5.65,0.4h1.4c-1.533-0.4-3.3-0.8-5.3-1.2
			c0.633-0.267,1.316-0.5,2.05-0.7c0.1-0.034,0.217-0.067,0.35-0.1H8.5c0.133-0.067,0.283-0.1,0.45-0.1c1.3,0.2,2.466,0.4,3.5,0.6
			c4.6,0.9,8.616,2.133,12.05,3.7c0,0.133-0.017,0.233-0.05,0.3c-0.034,0.066-0.1,0.133-0.2,0.2c-0.533-0.1-1.05-0.183-1.55-0.25
			c-0.634-0.167-1.067-0.25-1.3-0.25c-0.033,0-0.05,0.017-0.05,0.05c-0.233-0.067-0.467-0.117-0.7-0.15
			c-2.567-0.534-4.5-0.867-5.8-1c-0.034,0.033-0.05,0.066-0.05,0.1c-0.833-0.033-2.033-0.017-3.6,0.05
			C10.533,30.883,9.9,30.917,9.3,30.95z M6.4,36.65c0.567-0.4,1.217-0.8,1.95-1.2c0.267-0.134,0.517-0.267,0.75-0.4
			c0.333-0.1,0.716-0.217,1.15-0.35h-0.4L9.6,34.8c2.5-1.333,4.483-2.017,5.95-2.05c0.833,0,1.333-0.233,1.5-0.7
			c0-0.066,0.017-0.117,0.05-0.15c0-0.133-0.034-0.267-0.1-0.4c0.8,0.2,1.833,0.45,3.1,0.75c0.2,0.033,0.4,0.083,0.6,0.15
			c-0.2,0.2-0.434,0.45-0.7,0.75c-1,1.1-1.566,1.733-1.7,1.9c-0.767,0.233-1.5,0.533-2.2,0.9c0.1-0.1,0.167-0.2,0.2-0.3
			c0.067-0.1,0.1-0.183,0.1-0.25v-0.2c-0.033-0.1-0.083-0.184-0.15-0.25c1.566-1.1,2.517-1.784,2.85-2.05v-0.05
			c-3.3,1.3-5.784,2.183-7.45,2.65C10.017,35.967,8.267,36.35,6.4,36.65z M29.2,32.8c-0.067,0-0.134,0-0.2,0
			c-0.533-0.033-1.033-0.083-1.5-0.15l0.5-1l0.4-0.05c0.5,0,0.784,0.216,0.85,0.65C29.217,32.483,29.2,32.667,29.2,32.8z M22,34.25
			c-0.967,0.066-1.917,0.233-2.85,0.5c0.4-0.2,0.784-0.417,1.15-0.65c0.533-0.333,0.867-0.5,1-0.5c0.4,0,0.6,0.033,0.6,0.1
			c0.067-0.1,0.1,0.05,0.1,0.45C22,34.183,22,34.217,22,34.25z M27.9,34.1l-0.5,0.85c0.1-0.067,0.217-0.217,0.35-0.45
			C27.883,34.3,27.934,34.167,27.9,34.1z M31.9,32.6c-0.1-0.267-0.183-0.4-0.25-0.4l-0.05,0.95L32,33.2v0.1
			C32.033,33.133,32,32.9,31.9,32.6z M12.85,38.15c0.033-0.033,0.066-0.05,0.1-0.05c0.033,0,0.066,0,0.1,0
			c-0.4,0.3-0.75,0.617-1.05,0.95c0.333-0.5,0.6-0.8,0.8-0.9H12.85z M24.15,37.9c-0.133,0.133-0.383,1.217-0.75,3.25v0.05
			c0.167-0.367,0.333-0.9,0.5-1.6C24.066,38.9,24.15,38.333,24.15,37.9z M24.6,40.45l-0.35,1.6c0.267-0.467,0.4-1.017,0.4-1.65
			L24.6,40.45z M25.05,53.4c0.033,0.333,0.083,0.667,0.15,1c-0.3-0.567-0.583-1.05-0.85-1.45l0.15-0.1
			C24.667,53.017,24.85,53.2,25.05,53.4z M29.2,61.2c-0.567-0.534-1.067-1.134-1.5-1.8c-0.634-1-1.117-2.15-1.45-3.45
			c-0.1-0.367-0.184-0.784-0.25-1.25c0.5,0.8,1.033,1.783,1.6,2.95c1.066,2.267,2.233,3.95,3.5,5.05
			C30.4,62.267,29.767,61.767,29.2,61.2z M21.75,48.7v0.1l-0.1,0.8C21.85,49.2,21.883,48.9,21.75,48.7z M35.1,59.1
			c0.133,0.066,0.417,0.267,0.85,0.6c0.467,0.333,0.933,0.566,1.399,0.7l0.051,0.05v-0.4c0-0.267-0.184-0.45-0.551-0.55
			c-1-0.267-1.649-0.45-1.95-0.55L35.1,59.1z M39,65.3c0.033,0,0.083,0,0.15,0c0.199,0.4,0.3,0.983,0.3,1.75l0.05,0.1
			c0.1-0.067,0.15-0.3,0.15-0.7l0.5-0.15c0.1,0.067,0.183,0.184,0.25,0.35l0.25,0.5c0.1-0.1,0.149-0.217,0.149-0.35
			c0.101-0.066,0.4-0.1,0.9-0.1c0.1-0.1,0.149-0.434,0.149-1l0.25-0.15c0.7,0.733,1.7,2.017,3,3.85
			c-0.066-0.367-0.383-1.267-0.949-2.7c-0.434-1.067-0.684-1.784-0.75-2.15c0.267-0.033,0.5-0.033,0.699,0
			c0.5,1.067,0.983,2.267,1.45,3.6c0.134,0.433,0.317,0.983,0.55,1.65v-1.45L46.2,68.3c0.066-0.066,0.217-0.1,0.45-0.1
			c0.033,0.2,0.1,0.417,0.199,0.65c0,0.066,0.018,0.133,0.051,0.2c0.066,0.233,0.133,0.467,0.199,0.7
			c0,0.033,0.018,0.083,0.051,0.15c0,0.067,0.017,0.133,0.05,0.2c0.033,0.2,0.083,0.417,0.149,0.65
			c0.2,0.767,0.384,1.583,0.551,2.45c-0.167,0-0.317,0.05-0.45,0.15c-0.033,2.566-0.05,4.583-0.05,6.05
			c-0.5-2.933-1.334-5.85-2.5-8.75l-0.051-0.2c0.2,1.066,0.301,1.816,0.301,2.25c-0.101,0.866-0.15,1.533-0.15,2
			c0.1,0.1-0.066,0.15-0.5,0.15c-0.2,0-0.383-0.1-0.55-0.3c0.167-1.1,0.133-1.717-0.101-1.85c-0.1-0.067-0.25,0.167-0.449,0.7
			c-0.067-0.233-0.134-0.5-0.2-0.8c-0.167-0.8-0.367-1.85-0.601-3.15h-0.1c-0.1,1.667-0.15,2.95-0.15,3.85
			c-0.1,0.133-0.25,0.233-0.449,0.3C41.3,73.167,41,72.533,41,71.7c0-0.6-0.017-1.083-0.05-1.45c-0.101-0.167-0.167-0.333-0.2-0.5
			c-0.267,0.6-0.667,1.583-1.2,2.95c0-0.167,0.017-0.317,0.05-0.45c0-0.233,0-0.367,0-0.4c-0.066,0.033-0.133,0.017-0.199-0.05
			c-0.434,0.567-0.867,1.783-1.301,3.65c-0.199-0.267-0.366-0.5-0.5-0.7c-0.133,0.2-0.25,0.4-0.35,0.6H36.7
			C36.633,75.583,36.6,75.5,36.6,75.1c0-0.1,0.2-0.633,0.601-1.6c0-1.067,0.05-1.85,0.149-2.35c0.233-1.133,0.4-2.233,0.5-3.3
			L38.2,67.7c0.066,0.1,0.133,0.267,0.2,0.5c0.1-1.367,0.166-2.217,0.199-2.55L39,65.3z M29.7,96.3c0.1,0.167,0.233,0.3,0.4,0.4
			c0.233-0.4,0.767-1.217,1.6-2.45c0.7-1.1,1.216-1.983,1.55-2.65c0.367-0.733,0.684-1.449,0.95-2.149c0.133-1,0.35-2.067,0.65-3.2
			v-0.9l-0.1-0.149c-0.367,0.366-0.8,1.017-1.3,1.95c0-0.067-0.017-0.101-0.05-0.101h-0.15c-0.967,1.167-1.867,2.934-2.7,5.3
			c-0.366,0.367-0.683,0.567-0.95,0.601c-0.1,0.133-0.15-0.017-0.15-0.45c0-0.6,0.4-2.066,1.2-4.4c0.267-5.133,1.633-9,4.1-11.6
			c0.167,0.066,0.267,0.117,0.3,0.15c0.033,0.067,0.05,0.267,0.05,0.6c0,0.3-0.034,0.483-0.1,0.55
			c-0.333,0.133-0.467,0.117-0.4-0.05c0.167-0.333,0.25-0.517,0.25-0.55V77c-2.067,2.7-3.333,6.1-3.8,10.2h0.2
			c0.133,0.3,0.133,0.75,0,1.35c0.767-3.033,1.483-4.899,2.15-5.6l0.1,0.3c-0.233,0.6-0.483,1.467-0.75,2.6
			c-0.333,1.2-0.6,2.084-0.8,2.65v0.05c0.167-0.2,0.6-0.899,1.3-2.1c0.6-1.033,1.233-1.834,1.9-2.4c0.067,0.134,0.133,0.3,0.2,0.5
			c0.033-0.167,0.083-0.333,0.15-0.5c0.566-1.866,1.184-3.467,1.85-4.8c-0.066,0.3-0.116,0.6-0.149,0.9
			c-0.067,0.433-0.134,0.867-0.2,1.3c-0.633,1.633-1.15,3.283-1.55,4.95c-0.067,0.433-0.167,1.1-0.3,2
			C34.917,89.8,34.767,90.6,34.7,90.8v0.15c0.233-0.4,0.55-1.033,0.95-1.9c0.2-0.333,0.4-0.616,0.6-0.85
			c-0.033,0.633-0.05,1.233-0.05,1.8c0,0.467,0.167,2.033,0.5,4.7c-0.233,0.467-0.434,0.767-0.601,0.899
			c-0.166-0.166-0.333-0.399-0.5-0.699c-0.133-0.233-0.2-0.384-0.2-0.45c-0.466,0.933-0.783,1.55-0.95,1.85
			c-0.034,0.066-0.067,0.134-0.1,0.2c0,0.233,0,0.467,0,0.7l-0.25,0.05V96.7c-0.3,0.2-0.717,0.3-1.25,0.3
			c-0.067,0-0.184,0.167-0.35,0.5c-0.167,0.333-0.367,0.5-0.6,0.5c-0.133,0-0.25-0.083-0.35-0.25c-0.167-0.233-0.267-0.367-0.3-0.4
			C30.783,98.717,30.367,99.5,30,99.7c-0.533-0.2-0.816-0.55-0.85-1.05c0.067-0.567,0.1-0.967,0.1-1.2
			c-0.033-0.033-0.05-0.067-0.05-0.101C29.367,96.983,29.533,96.633,29.7,96.3z M34.35,107c0-0.066,0.017-0.134,0.05-0.2
			c0.067-0.233,0.167-0.467,0.3-0.7c0.167,0,0.35,0,0.55,0c1.667,0,3.483-0.267,5.45-0.8c0.833,0.101,1.267,0.2,1.3,0.3l-0.1,0.101
			c-0.101,0.033-0.2,0.066-0.301,0.1c0.801,0.134,2.533,0.483,5.2,1.05c1.5,0,3.134-0.133,4.9-0.399
			c-3.434-0.101-5.5-0.184-6.2-0.25c-0.333-0.167-0.55-0.317-0.65-0.45c0.4-0.1,1.167-0.1,2.301,0
			c0.133,0.133,0.283,0.217,0.449,0.25c0.067-0.033,0.233-0.083,0.5-0.15c0.4,0.033,0.817,0.084,1.25,0.15
			c0.867,0,1.684-0.066,2.45-0.2l-0.05,1.4c-0.7,0.233-1.283,0.35-1.75,0.35c-1.833,0-3.816-0.217-5.95-0.649
			c-1.767-0.367-2.767-0.7-3-1c-1.267,0.232-2.25,0.383-2.95,0.449l-0.449,0.2c0.199,0.066,0.732,0.167,1.6,0.3
			c0.833,0.2,1.45,0.483,1.85,0.851l-0.699,0.75c1.8-0.2,2.699-0.351,2.699-0.45l0.351,0.45c-0.167,0.3-0.467,0.5-0.9,0.6l-1.8,0.4
			c3.367-0.233,6.133-0.4,8.3-0.5c-0.133,0.033-0.267,0.066-0.399,0.1c-0.4,0.066-0.867,0.15-1.4,0.25
			c-0.233,0-0.483,0.017-0.75,0.05c-0.3,0.033-0.583,0.067-0.85,0.101c-0.101,0-0.2,0.017-0.301,0.05
			c-1.033,0.066-2.1,0.116-3.199,0.15c-1.7,0.033-2.967,0.1-3.801,0.199c-0.232,0-0.433,0.017-0.6,0.051
			c0.066-0.233,0.133-0.417,0.2-0.551l-3.3-0.1c-0.1-0.367-0.167-0.684-0.2-0.95c0.633-0.6,1.35-0.816,2.149-0.649
			c1.367,0.3,2.117,0.416,2.25,0.35l0.601-0.05c-1.233-0.467-1.95-0.733-2.15-0.8C37.233,107.116,36.25,107.066,34.35,107z
			 M16.85,104.1c2.2-0.267,3.3,0.051,3.3,0.95c0,0.601-1.9,2.267-5.7,5v0.05c0.2-0.1,0.433-0.199,0.7-0.3
			c-0.167,0.101-0.333,0.2-0.5,0.3c-1.633,0.967-2.783,1.467-3.45,1.5h-0.05c-0.466,0-0.633-0.25-0.5-0.75
			c2.6-1.5,4.417-2.699,5.45-3.6l0.25-0.2c-1.595,0.564-3.103,1.081-4.525,1.55H11.8l0.05-0.05c0-0.033,0.017-0.066,0.05-0.1
			c0-0.033,0.017-0.067,0.05-0.101L12.3,108c0-0.033,0.017-0.05,0.05-0.05c0-0.033,0.017-0.067,0.05-0.101
			C13.233,107.017,14.717,105.767,16.85,104.1z M36.85,94.35c-0.166-1.333-0.25-2.383-0.25-3.149c0-0.733,0.117-1.917,0.351-3.55
			c0.399,0.166,0.566,0.399,0.5,0.699c-0.033,0.167-0.117,0.417-0.25,0.75c0.066-0.133,0.217-0.566,0.45-1.3v-0.1
			c0.066-0.067,0.217-0.101,0.449-0.101c0.301,0,0.467,0.134,0.5,0.4c0.033,0.1,0.051,0.4,0.051,0.9S38.3,90.566,37.6,92.4
			C37.3,93.2,37.05,93.85,36.85,94.35z M29.35,95.8c-0.267,0.767-0.567,1.617-0.9,2.55h0.05c-0.133,0.134-0.35,0.25-0.65,0.351
			c-0.233-0.3-0.383-0.517-0.45-0.65c0-0.133-0.017-0.25-0.05-0.35c-0.067,0.3-0.333,0.967-0.8,2c-0.333,1-0.316,1.75,0.05,2.25
			L26.35,102c-0.434-1.1-0.65-2.083-0.65-2.95c0-0.5,0.183-1.233,0.55-2.2c0.434-1.1,0.85-1.649,1.25-1.649
			c0.333,0,0.55,0.133,0.65,0.399c0,0.067,0,0.267,0,0.601c0.034,0,0.1-0.101,0.2-0.3c0.167-0.233,0.417-0.384,0.75-0.45
			C29.167,95.517,29.25,95.633,29.35,95.8z M18.8,118.25c-0.066-0.066-0.116-0.134-0.15-0.2c-0.033-0.1-0.05-0.283-0.05-0.55
			c0-0.467,0.233-1.1,0.7-1.9c0.667-1.1,1.033-1.717,1.1-1.85l0.1-0.2c-0.767,0.601-1.767,1.351-3,2.25c0.267-0.8,0.733-1.7,1.4-2.7
			c0.034-0.033,0.067-0.066,0.1-0.1v-0.05c1.5-1.367,3.417-3.4,5.75-6.101c0.133,0.033,0.283,0.067,0.45,0.101
			c0.1,0.1,0.15,0.283,0.15,0.55c0,0.434-0.25,1.167-0.75,2.2c-0.167,0.1-0.333,0.25-0.5,0.45c-0.167,0.166-0.333,0.366-0.5,0.6
			c-0.034,0-0.05,0.017-0.05,0.05c-0.033,0-0.05,0.017-0.05,0.05c-0.033,0.101-0.083,0.184-0.15,0.25
			c-0.1,0.134-0.184,0.267-0.25,0.4c-0.034,0.066-0.067,0.15-0.1,0.25c-0.033,0.033-0.066,0.083-0.1,0.15
			c-0.067,0.133-0.15,0.283-0.25,0.449c-0.267,0.533-0.5,1.117-0.7,1.75c-0.634,0.9-0.983,1.434-1.05,1.601
			c0.233-0.233,0.483-0.5,0.75-0.8c0,0.033,0,0.066,0,0.1l-0.05,0.05c-0.367,1.434-1.05,2.384-2.05,2.851
			C19.25,118.033,19,118.15,18.8,118.25z M28.25,108.25c-0.2,0.4-0.434,1.217-0.7,2.45c-0.366,1.566-0.55,2.649-0.55,3.25
			c0,0.267,0.033,0.916,0.1,1.95c-0.233,0.5-0.483,0.966-0.75,1.399v-0.05c-0.133-1.066-0.45-2.1-0.95-3.1
			c-0.067-0.101-0.117-0.184-0.15-0.25c0.1-0.434,0.15-0.733,0.15-0.9v-1.2l0.05-0.05c0.5-0.667,0.733-1.217,0.7-1.65
			c-0.067-0.433-0.35-0.649-0.85-0.649c0.367-0.5,0.733-0.9,1.1-1.2c0.1,0.066,0.233,0.133,0.4,0.2c0.134,0.066,0.2,0.233,0.2,0.5
			c0,0.2-0.083,0.95-0.25,2.25c-0.2,1.433-0.367,2.433-0.5,3c0.5-1.134,0.833-2,1-2.601c0.333-1.1,0.467-2.149,0.4-3.149
			c0.034,0,0.083-0.033,0.15-0.101C27.867,108.283,28.017,108.25,28.25,108.25z M49.35,99.85c0.067-0.199,0.117-0.449,0.15-0.75
			c-0.633-0.066-1.017-0.483-1.15-1.25L48,95.95h-0.05c0,0.467,0.149,1.217,0.45,2.25c0.267,0.866,0.449,1.533,0.55,2
			c-0.2,0.1-0.417,0.2-0.65,0.3c-0.733-1.1-1.25-2.45-1.55-4.05h-0.1c-0.167,0.6-0.417,1.616-0.75,3.05c-0.2,0.7-0.417,1.3-0.65,1.8
			c-0.3,0.066-0.6,0.117-0.9,0.15c1-2.667,1.684-5.101,2.051-7.3c-0.2,0.566-0.483,1.482-0.851,2.75
			c-0.399,1.166-0.967,2.133-1.7,2.899v1.65l0.101,0.1c-0.167,0-0.317,0.017-0.45,0.05c-0.434-0.433-0.867-0.649-1.3-0.649
			c-0.567,0-1.134,0.25-1.7,0.75c-0.733,0.633-1.167,0.967-1.3,1L39.1,102.6c1.768-1.767,3.134-2.483,4.101-2.149
			c0.033-0.067,0.05-0.184,0.05-0.351c0-0.3-0.1-0.816-0.3-1.55C42.717,97.816,42.6,97.434,42.6,97.4
			c0-0.034,0.117-0.067,0.351-0.101c0.2-0.2,0.3-0.767,0.3-1.7v-2c0.233-1.666,0.367-2.916,0.4-3.75h0.5
			c-0.067,2.4,0.166,4.283,0.699,5.65c0.268-0.434,0.367-1.167,0.301-2.2v-9.8c0.1-0.533,0.199-0.884,0.3-1.05
			c0.167,0.133,0.25,0.3,0.25,0.5l0.45-0.75c0.666,1.7,1.017,2.566,1.05,2.6l-0.25,0.05c-0.134-0.267-0.267-0.616-0.4-1.05
			c-0.167-0.6-0.267-0.95-0.3-1.05c-0.1,0.167-0.15,0.5-0.15,1c0,2.5,0.2,4.783,0.601,6.85c-0.067,0.4-0.134,0.783-0.2,1.15h0.2
			c0.033-0.2,0.066-0.417,0.1-0.65c0.167,0.733,0.351,1.434,0.55,2.101L47.5,92.6l-0.05-0.05c0.033-0.066,0.167-0.1,0.399-0.1
			c0.367,0,0.634,0.583,0.801,1.75h0.1c-0.1-0.601-0.15-1.15-0.15-1.65c0-0.133,0.018-0.217,0.051-0.25
			c0.033-0.066,0.183-0.1,0.449-0.1c0.467,0,0.817,0.916,1.051,2.75c0,0.3,0.017,0.583,0.05,0.85L49.6,99.55
			c-0.033,0-0.05,0.017-0.05,0.05v0.051C49.483,99.717,49.417,99.783,49.35,99.85z M28.05,113.15c0.333-2.567,0.517-4.15,0.55-4.75
			c0.367,0.267,0.583,1,0.65,2.199c0.066,0.834,0.1,1.95,0.1,3.351c0.031-0.094,0.048-0.178,0.05-0.25v0.1
			c-0.033,0.233-0.05,0.45-0.05,0.65c0,0.066,0,0.133,0,0.2c-0.1,0.866-0.184,1.6-0.25,2.199c-0.333-0.533-0.567-1.183-0.7-1.949
			c-0.133-0.834-0.15-1.65-0.05-2.45C28.25,112.65,28.15,112.883,28.05,113.15z M32.05,113c-0.066-0.2-0.133-0.4-0.2-0.6
			c-0.267-0.834-0.55-1.518-0.85-2.051s-0.533-0.783-0.7-0.75c-0.066,0-0.133,0.067-0.2,0.2c0.167-1.2,0.2-2.233,0.1-3.1l0.1-0.101
			c0.033-0.1,0.167-0.149,0.4-0.149c0.667,0,1.017,0.683,1.05,2.05c0,0.733-0.017,1.684-0.05,2.85
			C31.833,111.917,31.95,112.467,32.05,113z M45.75,92.95L45.7,94.2c0.267-0.434,0.399-0.834,0.399-1.2L45.75,92.95z M43.85,92.8
			v5.9c0.134-0.134,0.384-0.55,0.75-1.25c0.334-0.7,0.5-1.117,0.5-1.25c-0.3-0.4-0.533-1.05-0.699-1.95
			c-0.033-0.467-0.2-1.033-0.5-1.7v0.05L43.85,92.8z M39.6,68.65c-0.033,0.133-0.066,0.267-0.1,0.4
			c-0.1,1.167-0.184,1.917-0.25,2.25c0.133-0.333,0.316-0.9,0.55-1.7c-0.1-0.2-0.149-0.517-0.149-0.95H39.6z M44.1,68.8
			c-0.1-0.1-0.183-0.2-0.25-0.3c0.101,0.467,0.184,1.033,0.25,1.7V68.8z M38.55,77.85c0.067-0.333,0.134-0.667,0.2-1
			c0.033-0.034,0.066-0.083,0.1-0.15L38.95,77C38.816,77.267,38.684,77.55,38.55,77.85z M48.75,78.45l-0.4,0.5
			c0.334,2.066,0.5,3.666,0.5,4.8c0,2.4-0.333,4.4-1,6c-0.199-0.367-0.25-1.083-0.149-2.15c0.133-1.1,0.2-1.75,0.2-1.949
			c0-1.301-0.067-2.601-0.2-3.9c0.133-2,0.267-4.25,0.399-6.75c0-0.267,0-0.5,0-0.7c0.2,1.233,0.417,2.6,0.65,4.1V78.45z
			 M46.25,89.7c0-1.567-0.1-2.634-0.3-3.2c0,1.4,0.066,2.467,0.2,3.2H46.25z M51.35,115.8c-0.033,0.134-0.066,0.316-0.1,0.55v0.051
			L50.8,120.8c-0.333,2.134-0.783,5.017-1.35,8.65c-0.467,3.033-0.917,5.2-1.351,6.5c-0.833,2.6-2.133,4.7-3.899,6.3
			c1.399-1.767,2.366-4.033,2.899-6.8c0.4-3.067,0.75-5.317,1.051-6.75v-0.05c-0.134,0.267-0.283,0.533-0.45,0.8
			c-0.233-0.334-0.4-0.733-0.5-1.2c0.133-0.8,0.267-1.65,0.399-2.55c0.134-0.733,0.25-1.417,0.351-2.05l-0.2,4.6
			c0.333-1.367,0.583-2.384,0.75-3.05c0.167-0.767,0.35-1.417,0.55-1.95c0.101-0.5,0.184-0.967,0.25-1.4
			c0.5-2.833,1.101-4.967,1.8-6.399c0.067,0.1,0.134,0.183,0.2,0.25C51.3,115.733,51.316,115.767,51.35,115.8z M50.1,110.8
			l0.051,4.25c0,0.601-0.051,1.083-0.15,1.45l-0.4,0.05c-0.133-0.366-0.199-0.967-0.199-1.8c-0.2-0.066-0.384-0.117-0.551-0.15
			c-0.1,0.834-0.25,2.033-0.449,3.601c-0.434,1.433-0.9,3.816-1.4,7.149c0-1.166-0.017-1.8-0.05-1.899
			c-0.033,0.5-0.15,1.35-0.351,2.55c0,0.133-0.05,0.233-0.149,0.3c-0.067-0.066-0.101-0.25-0.101-0.55
			c0-1.733,0.184-4.233,0.551-7.5c0.133-1.1,0.232-2.1,0.3-3c-0.167,0.7-0.601,2.65-1.3,5.85c-0.934,4.301-1.4,7.051-1.4,8.25
			c0,1.567,0.2,3.351,0.6,5.351c0,0.1-0.083,0.149-0.25,0.149l-0.949-5.5c0-2.433,0.267-4.967,0.8-7.6
			c0.566-2.833,1.333-5.25,2.3-7.25l0.2,0.1c0.033,0,0.05,0.051,0.05,0.15c0.033-0.3,0.05-0.566,0.05-0.8
			c-0.033,0-0.066,0.017-0.1,0.05c-0.067,0.033-0.434,0.05-1.101,0.05c-0.6,0-1.1-0.2-1.5-0.6c-0.699,1.267-1.166,3.083-1.399,5.45
			c-0.167,1.333-0.351,3.3-0.55,5.899l-0.45,0.05c-0.167-2-0.283-5.75-0.351-11.25c-0.267,0.801-0.5,1.684-0.699,2.65
			c-0.067,0.7-0.167,1.633-0.301,2.8c0-0.033,0-0.066,0-0.1H40.6c0,0.6-0.083,1.35-0.25,2.25l0.25-0.101V120.2l0.101,0.1
			c0,0.134,0,0.267,0,0.4c-0.101,0.866-0.217,1.833-0.351,2.899c-0.232,3.301-0.383,5.184-0.449,5.65
			c-0.2,0.133-0.384,0.217-0.551,0.25c-0.633-0.467-0.866-1.767-0.699-3.9c0.3-2.366,0.449-3.916,0.449-4.649
			c0-0.601-0.116-2.134-0.35-4.601c-0.267-2.333-0.4-3.517-0.4-3.55c0,0.8-0.083,1.367-0.25,1.7c-0.1,0.133-0.232,0.2-0.399,0.2
			c-0.4-0.4-0.601-0.8-0.601-1.2c0-0.667,0.134-1.55,0.4-2.65c0.066,0.033,0.133,0.067,0.2,0.101c0.267,0.133,0.6,0.25,1,0.35
			c0.366,0.066,0.8,0.134,1.3,0.2v0.05c0.167,0.167,0.367,0.3,0.6,0.4c0.033-0.101,0.084-0.217,0.15-0.351c0.167,0,0.35,0,0.55,0
			c0.033,0,0.067,0,0.101,0c0.133,0,0.283,0.017,0.449,0.051c0.268,0,0.567,0,0.9,0c0.033,0.833,0.184,1.433,0.45,1.8
			c0.233-0.233,0.45-0.684,0.649-1.351c0.067-0.166,0.134-0.333,0.2-0.5c0.067-0.033,0.15-0.05,0.25-0.05v0.05
			c-0.066,0.067-0.1,0.15-0.1,0.25c0,0.067,0.1,0.2,0.3,0.4c0.233,0.233,0.467,0.417,0.7,0.55c0.233-0.399,0.483-0.767,0.75-1.1
			l0.649,0.75c0.134-0.233,0.233-0.634,0.301-1.2c0.066-0.033,0.149-0.05,0.25-0.05c0.333-0.067,0.666-0.117,1-0.15
			c0.033,0.2,0.083,0.45,0.149,0.75c0.101,0.566,0.25,1.033,0.45,1.4h0.15c-0.067-0.667-0.051-1.417,0.05-2.25
			C49.383,110.883,49.767,110.833,50.1,110.8z M61.75,149.15c-0.066,0-0.133,0-0.2,0c-0.566-0.233-0.967-0.4-1.2-0.5
			c-0.433-0.134-1.333-0.2-2.699-0.2l-5.301,0.399l-0.25,0.101c1.233,0.133,2.351,0.333,3.351,0.6l1.75,0.55
			c-0.2,0.2-0.317,0.384-0.351,0.551c0,0.033,0,0.083,0,0.149v0.05c0.033,0.134,0.167,0.317,0.4,0.551
			c-0.633,0.033-1.4,0.083-2.3,0.149c-2.267,0.2-3.767,0.351-4.5,0.45l-0.55,0.1c0.566,0.367,2.217,0.9,4.949,1.601
			c2.467,0.666,3.801,1.166,4,1.5c0,0.2,0,0.316,0,0.35c-0.033,0.033-0.066,0.066-0.1,0.101c-1.467,0.033-3.117,0.066-4.95,0.1
			c-1.7-0.6-2.55-0.95-2.55-1.05l0.1-0.2c0.2-0.2,0.533-0.384,1-0.55v-0.2l-3.5-1.45c0.334-0.833,1.301-1.35,2.9-1.55
			c0.934-0.1,2.5-0.167,4.7-0.2c-0.5-0.133-1.3-0.25-2.4-0.35c-1.366-0.101-3.433-0.434-6.2-1v-0.351c1.601-0.1,2.75-0.199,3.45-0.3
			c2.067-0.267,3.367-0.434,3.9-0.5L46.9,148c-0.867,0.033-1.551-0.033-2.051-0.2c-0.033,0-0.066,0.017-0.1,0.05
			c-2.833,0.934-4.65,1.5-5.45,1.7c-0.566,0.134-1.267,0.283-2.1,0.45c0.033-0.233,0.033-0.434,0-0.6c0.5-0.067,1.066-0.134,1.7-0.2
			c0.732-0.101,1.616-0.334,2.649-0.7c0.567-0.2,1.483-0.55,2.75-1.05c-0.1-0.067-0.167-0.134-0.2-0.2
			c-0.6-0.033-1.5-0.05-2.699-0.05c-1.134,0.166-2.917,0.633-5.351,1.399c-4.167,1.367-6.483,2.117-6.95,2.25l-0.25-0.1l0.25-0.3
			c0.733-0.233,3.816-1.417,9.25-3.55c2.9-1.167,5.851-1.934,8.851-2.301L47.1,144.7c-2.1,0.399-3.949,0.85-5.55,1.35
			c-0.333,0.101-1.533,0.533-3.6,1.3l-0.101,0.101l3.801-0.7l2.25,0.05c-0.033-0.133-0.051-0.25-0.051-0.35
			c0-0.3,0.117-0.5,0.351-0.601c0.2-0.1,0.417-0.116,0.649-0.05c-0.3,0.167-0.467,0.3-0.5,0.4c0.033,0.2,0.15,0.399,0.351,0.6h0.149
			l0.15,0.25c0.267,0.134,0.55,0.217,0.85,0.25h12.5l3.551,1.15l0.05,0.25l-0.05,0.25C61.867,149.017,61.816,149.083,61.75,149.15z
			 M33.1,154.6c1.5,0.033,3.35-0.066,5.55-0.3c-1.801-0.033-3.434-0.083-4.9-0.149c0.133-0.134,0.3-0.25,0.5-0.351
			c0.267-0.167,0.533-0.35,0.8-0.55l7.55,0.2c0.301,0.1,0.5,0.316,0.601,0.649c-1,0.4-2.15,0.667-3.45,0.801
			c-1.4,0.133-2.45,0.25-3.15,0.35l-0.649,0.2c0.333,0.033,2.116,0.116,5.35,0.25c-5.767-0.067-8.65-0.25-8.65-0.55V155.1
			c0-0.033,0.034-0.083,0.1-0.149C32.816,154.85,32.934,154.733,33.1,154.6z M36.85,151c1.134-0.167,2.518-0.05,4.15,0.35l0.1,0.15
			c-0.866,0.333-2.199,0.7-4,1.1c-0.699,0.134-1.283,0.25-1.75,0.351c0.5-0.467,0.933-1.017,1.3-1.65
			C36.717,151.2,36.783,151.1,36.85,151z M43.65,114.25l-0.801,0.45v4.85c0.101-1.066,0.184-1.899,0.25-2.5
			c0.101-1.133,0.301-2.033,0.601-2.7L43.65,114.25z M39.95,112.95c0,0.7,0.083,1.8,0.25,3.3c0.267-1.434,0.399-2.35,0.399-2.75
			c0-0.267-0.083-0.45-0.25-0.55C40.217,112.883,40.083,112.883,39.95,112.95z M47.2,121.1L47.1,122h0.051
			c0.066-0.434,0.083-0.75,0.05-0.95V121.1z M41.4,126.25c0.267-1.1,0.467-1.783,0.6-2.05c0,0.166,0.05,0.383,0.15,0.649
			c0.066,0.301,0.1,0.567,0.1,0.801L42.2,126.3H42v-0.85l-0.05-0.15c-0.101,0.566-0.25,1.417-0.45,2.55
			C41.467,127.283,41.434,126.75,41.4,126.25z M40.75,128.9c0.033,0.6,0.066,1.232,0.1,1.899c-0.1,0.4-0.199,0.816-0.3,1.25
			c-0.467,2.101-0.7,4.101-0.7,6v0.65H39.65c0-0.267-0.067-0.634-0.2-1.101c-0.134-0.467-0.2-0.8-0.2-1
			c0-0.967,0.417-3.199,1.25-6.699C40.6,129.533,40.684,129.2,40.75,128.9z M53.35,154.45l-1,0.05c0.768,0,1.667,0.1,2.7,0.3
			C54.25,154.566,53.684,154.45,53.35,154.45z"/>
		<path fill-rule="evenodd" clip-rule="evenodd" d="M39.35,27.6v-0.25c0-0.034,0-0.067,0-0.1c-0.033-0.333-0.1-0.65-0.199-0.95
			c-0.033-0.033-0.051-0.066-0.051-0.1v-0.1c-0.033-0.067-0.05-0.133-0.05-0.2c-0.066-0.233-0.083-0.433-0.05-0.6
			c0.033-0.3,0.15-0.55,0.35-0.75c0.167-0.2,0.518-0.5,1.051-0.9c0.166-0.133,0.35-0.283,0.55-0.45c1.433-0.534,2.649-0.7,3.649-0.5
			c-0.133,0.066-0.232,0.133-0.3,0.2l-0.5,0.2h-0.05c-0.267,0-0.4,0.183-0.4,0.55c0,0.133,0.101,0.25,0.301,0.35
			c0.232,0.1,0.5,0.15,0.8,0.15c0.133,0,0.267,0.017,0.399,0.05c1.233,0.133,2.768,0.95,4.601,2.45c0.2,0.167,0.399,0.333,0.6,0.5
			c0.2,0.133,0.417,0.25,0.65,0.35c0.033,0.033,0.066,0.05,0.1,0.05c0.333,0.167,0.634,0.283,0.9,0.35c0,0.267,0,0.7,0,1.3
			c0,0.033,0,0.066,0,0.1c-0.267-0.2-0.434-0.3-0.5-0.3c-0.233,0-0.351,0.517-0.351,1.55c0,0.633-0.283,1.333-0.85,2.1
			c-0.233,0.3-0.517,0.617-0.85,0.95c-1.134,1.167-2.283,1.9-3.45,2.2c-1.233,0.3-2.45,0.217-3.65-0.25
			c-1.033-0.433-1.85-1.066-2.45-1.9c-0.066-0.1-0.133-0.2-0.199-0.3c-0.434-0.733-0.684-1.333-0.75-1.8
			c-0.033-0.433,0.083-1.1,0.35-2c0.033-0.167,0.083-0.316,0.15-0.45C39.25,28.533,39.316,28.033,39.35,27.6z M32,46.6
			c-0.9-0.2-1.883-0.617-2.95-1.25c-0.433-0.267-0.833-0.567-1.2-0.9c-0.367-0.333-0.7-0.684-1-1.05
			c-0.133-0.167-0.25-0.333-0.35-0.5c-0.066-0.067-0.117-0.133-0.15-0.2c-0.833-1.134-1.25-2.117-1.25-2.95c0-0.4,0.466-1.3,1.4-2.7
			c0.7-1.033,1.6-1.85,2.7-2.45c0.933-0.534,2.033-0.9,3.3-1.1c1.5-0.267,3.066,0.35,4.7,1.85c0.133,0.1,0.267,0.216,0.399,0.35
			c1.801,1.767,2.533,3.433,2.2,5c-0.066,0.333-0.217,0.733-0.45,1.2c-0.1,0.133-0.199,0.3-0.3,0.5
			c-0.033,0.033-0.066,0.067-0.1,0.1c-0.467,0.733-1,1.4-1.601,2c-0.166,0.2-0.333,0.383-0.5,0.55l-0.3,0.25
			c-0.1,0.067-0.183,0.133-0.25,0.2c-0.933,0.7-1.85,1.1-2.75,1.2c-0.2,0.033-0.4,0.05-0.6,0.05C32.65,46.717,32.333,46.667,32,46.6
			z M44.1,30.05c0,0.267,0.018,0.383,0.051,0.35c0.033,0,0.05-0.033,0.05-0.1c0.133,0.033,0.517,0.233,1.149,0.6
			c0.567,0.367,1.167,0.55,1.801,0.55c0.899,0,1.35-0.384,1.35-1.15c0-1.733-0.733-2.417-2.2-2.05
			C44.833,28.65,44.1,29.25,44.1,30.05z M35.5,36.95c-0.733,0-1.167,0.017-1.3,0.05c-0.5,0.066-0.75,0.267-0.75,0.6
			c0,0.267,0.033,0.383,0.1,0.35l0.05-0.1c0.033-0.067,0.15-0.117,0.35-0.15c0.2-0.067,0.333-0.083,0.4-0.05
			c-0.4,0.5-0.6,0.95-0.6,1.35c0,0.033,0.1,0.316,0.3,0.85c0.367,0.566,0.934,0.85,1.7,0.85c0.6,0,1.083-0.117,1.45-0.35
			c0.267-0.2,0.399-0.383,0.399-0.55C36.9,37.9,36.2,36.95,35.5,36.95z"/>
		<path fill-rule="evenodd" clip-rule="evenodd" fill="#FFFFFF" d="M44.1,30.05c0-0.8,0.733-1.4,2.2-1.8
			c1.467-0.367,2.2,0.316,2.2,2.05c0,0.767-0.45,1.15-1.35,1.15c-0.634,0-1.233-0.184-1.801-0.55
			c-0.633-0.367-1.017-0.567-1.149-0.6c0,0.067-0.017,0.1-0.05,0.1C44.117,30.433,44.1,30.316,44.1,30.05z M35.5,36.95
			c0.7,0,1.4,0.95,2.1,2.85c0,0.167-0.133,0.35-0.399,0.55c-0.367,0.233-0.851,0.35-1.45,0.35c-0.767,0-1.333-0.284-1.7-0.85
			c-0.2-0.534-0.3-0.817-0.3-0.85c0-0.4,0.2-0.85,0.6-1.35c-0.067-0.033-0.2-0.017-0.4,0.05c-0.2,0.033-0.317,0.083-0.35,0.15
			l-0.05,0.1c-0.066,0.033-0.1-0.083-0.1-0.35c0-0.333,0.25-0.534,0.75-0.6C34.333,36.967,34.767,36.95,35.5,36.95z"/>
		<path fill-rule="evenodd" clip-rule="evenodd" fill="#748E47" d="M69.1,156.45c0-0.101,0-0.184,0-0.25l0.051-2.65
			c0.033-2.2,0.25-3.967,0.649-5.3c0.467-1.367,1.067-2.1,1.8-2.2c0.434-0.066,0.75,0.066,0.95,0.4c0.233,0.3,0.483,1.033,0.75,2.2
			c0.033,0.199,0.083,0.416,0.15,0.649c-0.4,1.066-0.833,2.033-1.3,2.9C71.35,153.667,70.333,155.083,69.1,156.45z M64.05,160.75
			c-3.233,0.566-5.783,0.95-7.649,1.15h-5.45c-2.134-0.2-5.434-0.584-9.9-1.15c-2.8-0.333-5.116-0.617-6.95-0.85
			c-1.034-0.334-2.2-0.7-3.5-1.101c-0.934-0.3-1.8-0.583-2.6-0.85c0.133-0.167,0.35-0.317,0.65-0.45l0.95-0.05
			c-0.867-0.101-2.1-0.184-3.7-0.25c-1.933-0.767-3.3-1.45-4.1-2.05c0.233-0.301,0.45-0.584,0.65-0.851
			c0.133,0,0.283-0.017,0.45-0.05c0.8,0,1.784,0.116,2.95,0.35h4.4c-0.033,0.301,0.033,0.617,0.2,0.95
			c0.033,0.033,0.066,0.083,0.1,0.15c-0.094,0-0.185,0-0.275,0c0.091,0.002,0.2,0.019,0.325,0.05c0.433,0.533,1.417,0.883,2.95,1.05
			c1.067,0.134,2.717,0.233,4.95,0.3c1.267,0.301,2.05,0.584,2.35,0.851h1.25c0.4,0,1.45-0.05,3.15-0.15
			c1.833-0.1,2.967-0.184,3.4-0.25l4.699-0.05c0.967,0,2.25,0,3.851,0c2.7-0.033,5.133-0.066,7.3-0.1h0.05
			c0.4,0.033,0.867,0.083,1.4,0.149c0.267,0.033,0.866,0.117,1.8,0.25C66.65,158.8,65.417,159.783,64.05,160.75z M25.4,152.4
			c-0.4,0.033-0.9,0.05-1.5,0.05c0.333-0.467,0.667-0.9,1-1.3l0.5,1.199V152.4z M54.6,159.95c1.2,0.033,3.033-0.2,5.5-0.7h-5.75
			C54.35,159.45,54.434,159.684,54.6,159.95z"/>
		<path fill-rule="evenodd" clip-rule="evenodd" fill="#8EA756" d="M64.55,157.4c0.9-0.034,1.75-0.067,2.55-0.101l1.2-0.05
			c-0.167,0.167-0.35,0.35-0.55,0.55c-0.934-0.133-1.533-0.217-1.8-0.25C65.417,157.483,64.95,157.434,64.55,157.4z M50.95,161.9
			H39.8c-0.7-0.367-2.6-1.034-5.7-2c1.833,0.232,4.15,0.517,6.95,0.85C45.517,161.316,48.816,161.7,50.95,161.9z M56.4,161.9
			c1.866-0.2,4.416-0.584,7.649-1.15c-0.566,0.4-1.149,0.783-1.75,1.15H56.4z M25.9,157.2c1.6,0.066,2.833,0.149,3.7,0.25
			l-0.95,0.05c-0.3,0.133-0.517,0.283-0.65,0.45C27.233,157.684,26.533,157.434,25.9,157.2z M38.5,157.1
			c1.434,0.033,3.117,0.051,5.05,0.051c4.934,0,7.483,0.066,7.65,0.199c0.066,0.067,0.783,0.117,2.149,0.15l-4.699,0.05
			c-0.434,0.066-1.567,0.15-3.4,0.25c-1.7,0.101-2.75,0.15-3.15,0.15h-1.25C40.55,157.684,39.767,157.4,38.5,157.1z M30.55,155.7
			l0.05,0.05c-0.125-0.031-0.234-0.048-0.325-0.05C30.365,155.7,30.456,155.7,30.55,155.7z M54.6,159.95
			c-0.166-0.267-0.25-0.5-0.25-0.7h5.75C57.633,159.75,55.8,159.983,54.6,159.95z"/>
		<path fill-rule="evenodd" clip-rule="evenodd" fill="#394D2A" d="M73.45,149.3c-0.067-0.233-0.117-0.45-0.15-0.649
			c-0.267-1.167-0.517-1.9-0.75-2.2c-0.2-0.334-0.517-0.467-0.95-0.4c-0.732,0.101-1.333,0.833-1.8,2.2
			c-0.399,1.333-0.616,3.1-0.649,5.3L69.1,156.2c-0.1-2.233-0.35-3.351-0.75-3.351c-0.232,0-0.517-0.383-0.85-1.149
			c0.066-0.3,0.133-0.667,0.2-1.101c0.233-1.267,0.717-2.616,1.45-4.05c0.767-1.434,1.416-2.267,1.949-2.5
			c0.533-0.2,1.051-0.083,1.551,0.351c0.467,0.399,0.699,0.933,0.699,1.6c0,0.467,0.167,1.15,0.5,2.05
			C73.717,148.483,73.583,148.9,73.45,149.3z M25.2,150.75c0,0.5,0.066,1.033,0.2,1.6l-0.5-1.199
			C25,151.017,25.1,150.883,25.2,150.75z"/>
		<path fill-rule="evenodd" clip-rule="evenodd" fill="#546634" d="M25.4,152.4v0.05l0.35,0.899l3.05-0.3
			c1.4-0.167,2.217-0.217,2.45-0.149c0.2,0.066,0.066,0.316-0.4,0.75c-0.333,0.366-0.534,0.683-0.6,0.949h-4.4
			c-1.167-0.233-2.15-0.35-2.95-0.35c-0.167,0.033-0.317,0.05-0.45,0.05c0.5-0.667,0.983-1.283,1.45-1.85
			C24.5,152.45,25,152.434,25.4,152.4z"/>
	</g>
</g>
</svg>
