<?xml version="1.0" encoding="utf-8"?>
<!-- Generator: Adobe Illustrator 16.0.0, SVG Export Plug-In . SVG Version: 6.00 Build 0)  -->
<!DOCTYPE svg PUBLIC "-//W3C//DTD SVG 1.1//EN" "http://www.w3.org/Graphics/SVG/1.1/DTD/svg11.dtd">
<svg version="1.1" id="Layer_1" xmlns="http://www.w3.org/2000/svg" xmlns:xlink="http://www.w3.org/1999/xlink" x="0px" y="0px"
	 width="151.5px" height="151.4px" viewBox="0 0 151.5 151.4" enable-background="new 0 0 151.5 151.4" xml:space="preserve">
<symbol  id="flash0.ai_x2F_Isolation_Mode_x2F__x3C_Path_x3E__x5F_2" viewBox="0 -121.8 207.5 121.8">
	<path fill-rule="evenodd" clip-rule="evenodd" fill="#F4C708" d="M205.9,0c1.067-5.933,1.6-11.967,1.6-18.1
		c0-14.066-2.717-27.517-8.15-40.35c-5.267-12.4-12.684-23.383-22.25-32.95c-9.567-9.567-20.55-16.983-32.95-22.25
		c-12.867-5.434-26.333-8.15-40.4-8.15s-27.533,2.716-40.4,8.15c-12.4,5.267-23.383,12.683-32.95,22.25
		c-9.566,9.566-16.983,20.55-22.25,32.95C2.717-45.617,0-32.167,0-18.1C0-12.067,0.517-6.033,1.55,0
		C5.883-24.533,17.6-44.883,36.7-61.05c19.333-16.4,41.683-24.6,67.05-24.6s47.717,8.2,67.05,24.6C189.9-44.85,201.6-24.5,205.9,0z"
		/>
</symbol>
<symbol  id="flash0.ai_x2F_Isolation_Mode_x2F__x3C_Path_x3E__x5F_5" viewBox="0 -85 85 85">
	<path fill-rule="evenodd" clip-rule="evenodd" fill="#F4C708" d="M72.55-12.45C80.85-20.75,85-30.767,85-42.5
		s-4.15-21.75-12.45-30.05C64.25-80.85,54.233-85,42.5-85s-21.75,4.15-30.05,12.45C4.15-64.25,0-54.233,0-42.5
		s4.15,21.75,12.45,30.05C20.75-4.15,30.767,0,42.5,0S64.25-4.15,72.55-12.45z"/>
</symbol>
<g id="Layer_2">
	<path fill-rule="evenodd" clip-rule="evenodd" fill="#F4C708" d="M127.135,43.412c3.292,8.062,4.883,16.406,4.771,25.033
		c-0.116,8.339-1.797,16.37-5.041,24.091c-3.244,7.721-7.804,14.542-13.678,20.462c-6.103,6.125-13.186,10.833-21.247,14.125
		c-8.062,3.291-16.415,4.887-25.061,4.783c-8.339-0.117-16.37-1.798-24.091-5.041c-7.721-3.244-14.542-7.804-20.462-13.678
		c-6.117-6.084-10.821-13.156-14.113-21.219c-3.292-8.062-4.886-16.416-4.784-25.061c0.117-8.339,1.797-16.37,5.042-24.091
		c3.245-7.722,7.804-14.543,13.678-20.463c6.103-6.125,13.186-10.833,21.247-14.125c8.062-3.292,16.416-4.887,25.061-4.783
		c8.339,0.117,16.37,1.797,24.091,5.042c7.721,3.244,14.542,7.803,20.462,13.678C119.135,28.268,123.844,35.35,127.135,43.412z"/>
	<path fill-rule="evenodd" clip-rule="evenodd" fill="#FFF0B3" d="M127.135,43.412c-3.291-8.062-8-15.145-14.125-21.247
		c-5.92-5.875-12.741-10.434-20.462-13.678c-7.722-3.244-15.752-4.925-24.091-5.042c-8.646-0.104-16.999,1.492-25.061,4.783
		c-8.062,3.292-15.144,8-21.247,14.125c-5.874,5.92-10.433,12.741-13.678,20.463c-3.244,7.721-4.925,15.751-5.042,24.091
		c-0.103,8.645,1.492,17,4.784,25.061c3.292,8.063,7.996,15.135,14.113,21.219c5.92,5.874,12.741,10.434,20.462,13.678
		c7.722,3.243,15.752,4.924,24.091,5.041c8.646,0.104,17-1.492,25.061-4.783c8.062-3.292,15.145-8,21.247-14.125
		c5.874-5.92,10.434-12.741,13.678-20.462c3.244-7.722,4.925-15.752,5.041-24.091C132.018,59.818,130.427,51.474,127.135,43.412z
		 M42.108,5.077c8.349-3.409,16.978-5.093,25.887-5.053c8.91,0.04,17.534,1.812,25.875,5.316c8.321,3.512,15.61,8.426,21.867,14.742
		c6.265,6.335,11.104,13.687,14.521,22.055c3.455,8.463,5.123,17.244,5.004,26.341c-0.113,8.784-1.873,17.248-5.278,25.391
		c-3.434,8.134-8.246,15.314-14.44,21.544c-6.415,6.452-13.854,11.406-22.316,14.862c-8.482,3.463-17.272,5.136-26.37,5.017
		c-8.783-0.114-17.238-1.877-25.363-5.291c-8.151-3.425-15.342-8.234-21.571-14.429c-6.453-6.414-11.407-13.854-14.862-22.316
		c-3.417-8.367-5.096-17.01-5.037-25.927c0.048-8.891,1.814-17.502,5.299-25.834c3.504-8.34,8.414-15.639,14.73-21.895
		C26.39,13.334,33.741,8.494,42.108,5.077z"/>
</g>
<use xlink:href="#flash0.ai_x2F_Isolation_Mode_x2F__x3C_Path_x3E__x5F_5"  width="85" height="85" y="-85" transform="matrix(0.5731 -0.234 -0.234 -0.5731 36.1001 22.75)" overflow="visible" opacity="0.3008" enable-background="new    "/>
<g>
	<path fill-rule="evenodd" clip-rule="evenodd" fill="#3A1E1A" d="M46.551,55.018c0.414,1.013,0.415,2.026,0.005,3.041
		c-0.438,1.003-1.162,1.712-2.175,2.125c-1.012,0.413-2.026,0.415-3.041,0.004c-1.022-0.43-1.74-1.15-2.154-2.163
		c-0.414-1.013-0.405-2.03,0.024-3.053c0.43-1.022,1.15-1.74,2.163-2.154c1.012-0.413,2.03-0.405,3.052,0.024
		C45.43,53.28,46.138,54.005,46.551,55.018z"/>
	<path fill-rule="evenodd" clip-rule="evenodd" fill="#3A1E1A" d="M79.362,41.621c0.414,1.013,0.415,2.026,0.005,3.041
		c-0.438,1.003-1.162,1.712-2.175,2.125c-1.013,0.413-2.025,0.415-3.041,0.004c-1.022-0.43-1.74-1.15-2.154-2.163
		c-0.413-1.012-0.405-2.03,0.024-3.052c0.43-1.022,1.15-1.74,2.163-2.154c1.013-0.413,2.03-0.405,3.053,0.024
		C78.241,39.883,78.949,40.608,79.362,41.621z"/>
	<path fill-rule="evenodd" clip-rule="evenodd" fill="#3A1E1A" d="M63.304,57.07c3.015-1.186,5.686-1.987,8.013-2.401
		c2.542-0.437,3.976-0.253,4.303,0.549c1.264,3.095,1.255,6.185-0.025,9.272c-1.308,3.074-3.509,5.244-6.604,6.508
		c-3.114,1.271-6.205,1.263-9.272-0.026c-3.094-1.3-5.273-3.498-6.537-6.593c-0.375-0.917,0.502-2.099,2.63-3.547
		C57.716,59.542,60.213,58.289,63.304,57.07z"/>
	<path fill-rule="evenodd" clip-rule="evenodd" fill="#F26032" d="M62.47,69.849c-0.197-1.301,0.026-2.529,0.669-3.684
		c0.662-1.162,1.614-1.997,2.856-2.503c1.241-0.507,2.496-0.573,3.763-0.2c1.267,0.375,2.286,1.096,3.056,2.163
		c-1.281,1.504-2.829,2.626-4.643,3.367C66.338,69.741,64.438,70.026,62.47,69.849z"/>
	<path fill-rule="evenodd" clip-rule="evenodd" fill="#FFFFFF" d="M77.489,41.617c0.179,0.439,0.183,0.883,0.01,1.333
		c-0.2,0.438-0.521,0.747-0.96,0.926c-0.438,0.179-0.884,0.183-1.333,0.01c-0.458-0.193-0.775-0.508-0.955-0.948
		c-0.179-0.439-0.173-0.888,0.019-1.345c0.2-0.439,0.52-0.748,0.958-0.927c0.439-0.179,0.885-0.183,1.334-0.009
		C77.001,40.858,77.31,41.178,77.489,41.617z"/>
	<path fill-rule="evenodd" clip-rule="evenodd" fill="#FFFFFF" d="M44.735,54.991c0.18,0.439,0.183,0.883,0.009,1.333
		c-0.2,0.438-0.52,0.747-0.959,0.926c-0.439,0.18-0.884,0.183-1.333,0.01c-0.438-0.2-0.747-0.52-0.927-0.959
		c-0.179-0.439-0.183-0.884-0.009-1.333c0.2-0.439,0.52-0.748,0.959-0.927c0.439-0.18,0.884-0.183,1.333-0.009
		C44.247,54.231,44.556,54.551,44.735,54.991z"/>
</g>
<path fill-rule="evenodd" clip-rule="evenodd" fill="#F26032" d="M30.841,78.116c-1.042-0.422-1.777-1.158-2.206-2.209
	c-0.421-1.032-0.407-2.063,0.042-3.093c0.43-1.022,1.16-1.744,2.191-2.166l7.107-2.902c1.032-0.421,2.059-0.417,3.081,0.013
	c1.022,0.43,1.744,1.16,2.166,2.191c0.429,1.051,0.428,2.088-0.001,3.11c-0.43,1.022-1.16,1.744-2.191,2.166l-7.107,2.902
	C32.89,78.55,31.863,78.545,30.841,78.116z"/>
<path fill-rule="evenodd" clip-rule="evenodd" fill="#F26032" d="M88.811,46.991l7.106-2.902c1.032-0.421,2.068-0.421,3.109,0.001
	c1.022,0.43,1.745,1.16,2.166,2.191c0.429,1.051,0.429,2.088-0.001,3.11c-0.448,1.03-1.188,1.756-2.221,2.178l-7.106,2.901
	c-1.031,0.421-2.059,0.417-3.081-0.013c-1.022-0.429-1.748-1.169-2.177-2.221c-0.421-1.031-0.417-2.058,0.012-3.081
	C87.048,48.134,87.779,47.412,88.811,46.991z"/>
<use xlink:href="#flash0.ai_x2F_Isolation_Mode_x2F__x3C_Path_x3E__x5F_2"  width="207.5" height="121.8" y="-121.8" transform="matrix(0.5731 -0.234 -0.234 -0.5731 4.1001 81.5996)" overflow="visible" opacity="0.1992" enable-background="new    "/>
<path fill-rule="evenodd" clip-rule="evenodd" fill="none" stroke="#FFF0B3" stroke-width="12" stroke-linecap="round" stroke-linejoin="round" stroke-miterlimit="3" d="
	M112.362,94.847c-2.867,4.714-6.376,8.866-10.527,12.456c-4.308,3.698-9.107,6.627-14.399,8.787"/>
<path fill-rule="evenodd" clip-rule="evenodd" fill="none" stroke="#FFF0B3" stroke-width="12" stroke-linecap="round" stroke-linejoin="round" stroke-miterlimit="3" d="
	M84.305,18.105c7.103,2.382,13.391,6.101,18.864,11.154c5.682,5.236,9.993,11.455,12.934,18.658
	c3.51,8.597,4.65,17.503,3.421,26.721"/>
</svg>
