<?xml version="1.0" encoding="utf-8"?>
<!-- Generator: Adobe Illustrator 21.0.0, SVG Export Plug-In . SVG Version: 6.00 Build 0)  -->
<svg version="1.1" id="Layer_1" xmlns="http://www.w3.org/2000/svg" xmlns:xlink="http://www.w3.org/1999/xlink" x="0px" y="0px"
	 viewBox="0 0 187 179.6" style="enable-background:new 0 0 187 179.6;" xml:space="preserve">
<style type="text/css">
	.st0{opacity:0.8;fill:#ACE7F3;stroke:#76CBD6;stroke-miterlimit:10;enable-background:new    ;}
	.st1{opacity:0.3;fill:#FFFFFF;enable-background:new    ;}
	.st2{opacity:0.5;fill:#FFFFFF;enable-background:new    ;}
</style>
<g>
	<path class="st0" d="M142.5,16.5c37,21.5,67.8,90.8,9.1,139.5c-58.8,48.7-149,9.9-148.8-66.2C3,14.5,84.2-17.4,142.5,16.5z"/>
	<path class="st1" d="M173.8,107.8C200.7,24.7,85.3-28.6,36.6,48.3C-15.9,130.8,143.4,201.9,173.8,107.8z"/>
	<path class="st2" d="M135,24.7c27.9,13.2,11.1,48.9-13,37.7C97.9,51.2,104.9,10.4,135,24.7z"/>
	<path class="st2" d="M160.2,84.2c4.2,2.2,3.2,20.7-6.1,14.6C144.9,92.5,150.8,79.2,160.2,84.2z"/>
</g>
</svg>
