<?xml version="1.0" encoding="utf-8"?>
<!-- Generator: Adobe Illustrator 21.0.0, SVG Export Plug-In . SVG Version: 6.00 Build 0)  -->
<svg version="1.1" id="Layer_1" xmlns="http://www.w3.org/2000/svg" xmlns:xlink="http://www.w3.org/1999/xlink" x="0px" y="0px"
	 viewBox="0 0 92.9 89.3" style="enable-background:new 0 0 92.9 89.3;" xml:space="preserve">
<style type="text/css">
	.st0{opacity:0.8;fill:#ACE7F3;stroke:#76CBD6;stroke-miterlimit:10;enable-background:new    ;}
	.st1{opacity:0.3;fill:#FFFFFF;enable-background:new    ;}
	.st2{opacity:0.5;fill:#FFFFFF;enable-background:new    ;}
</style>
<g>
	<path class="st0" d="M71.2,7.3c18.7,10.9,34.3,45.9,4.6,70.6c-29.7,24.6-75.4,5-75.3-33.5C0.6,6.3,41.6-9.8,71.2,7.3z"/>
	<path class="st1" d="M87,53.5c13.6-42-44.8-69-69.4-30.1C-9,65.2,71.6,101.1,87,53.5z"/>
	<path class="st2" d="M67.3,11.5c14.1,6.7,5.6,24.7-6.6,19.1C48.6,24.9,52.1,4.3,67.3,11.5z"/>
	<path class="st2" d="M80.1,41.6C82.2,42.7,81.7,52,77,49C72.3,45.8,75.3,39.1,80.1,41.6z"/>
</g>
</svg>
