<?xml version="1.0" encoding="utf-8"?>
<!-- Generator: Adobe Illustrator 21.0.0, SVG Export Plug-In . SVG Version: 6.00 Build 0)  -->
<svg version="1.1" id="Layer_1" xmlns="http://www.w3.org/2000/svg" xmlns:xlink="http://www.w3.org/1999/xlink" x="0px" y="0px"
	 viewBox="0 0 81.8 72" style="enable-background:new 0 0 81.8 72;" xml:space="preserve">
<style type="text/css">
	.st0{opacity:0.8;enable-background:new    ;}
	.st1{opacity:0.7;}
	.st2{fill:#ACE7F3;stroke:#76CBD6;stroke-miterlimit:10;}
	.st3{opacity:0.5;fill:#96E0EA;}
	.st4{opacity:0.3;fill:#FFFFFF;enable-background:new    ;}
	.st5{opacity:0.8;fill:#FFFFFF;enable-background:new    ;}
</style>
<g>
	<g class="st0">
		<g>
			<g class="st1">
				<path class="st2" d="M20.2,5.2c54-21.1,79.2,37.6,44.9,60.1C26.8,90.6-28.7,24.4,20.2,5.2z"/>
			</g>
		</g>
	</g>
	<path class="st3" d="M11.5,30.6c-6,33.6,42.3,48.5,57.3,28.1C48,73.8,12.8,43.8,11.5,30.6z"/>
	<path class="st4" d="M75.1,42.1C84.7,12.4,46-11,24,15.4C3,40.4,62.7,80.7,75.1,42.1z"/>
	<path class="st5" d="M71,34.2c1.9,1,1.4,9.1-2.6,6.3C64.3,37.9,66.9,32.1,71,34.2z"/>
	<path class="st5" d="M61.5,11.1c9.4,4.4,3.7,16.3-4.3,12.6C49.1,19.9,51.4,6.3,61.5,11.1z"/>
</g>
</svg>
