<?xml version="1.0" encoding="utf-8"?>
<!-- Generator: Adobe Illustrator 21.0.0, SVG Export Plug-In . SVG Version: 6.00 Build 0)  -->
<svg version="1.1" id="Layer_1" xmlns="http://www.w3.org/2000/svg" xmlns:xlink="http://www.w3.org/1999/xlink" x="0px" y="0px"
	 viewBox="0 0 300 314.7" style="enable-background:new 0 0 300 314.7;" xml:space="preserve">
<style type="text/css">
	.st0{fill:#466D0F;}
	.st1{fill:#639B1B;}
	.st2{fill:#FF6C6C;}
	.st3{fill:#E24949;}
	.st4{fill:#FF9810;}
	.st5{fill:#FFC022;}
	.st6{fill:#FFE14D;}
	.st7{fill:#FF9592;}
	.st8{fill:#FFAEAE;}
	.st9{fill:#FFFFFF;}
	.st10{fill:#19141D;}
	.st11{fill:#F4601E;}
	.st12{fill:#FF8533;}
	.st13{fill:#B9B5C4;}
	.st14{fill:#FFAF3B;}
	.st15{fill:#3D1C1A;}
	.st16{fill:#5F9B19;}
	.st17{fill:#75BA2B;}
	.st18{fill:#90D146;}
	.st19{fill:#AD2525;}
	.st20{fill:#DD8903;}
	.st21{fill:#FFB42E;}
	.st22{fill:#9476CE;}
	.st23{fill:#C8B6FF;}
	.st24{fill:#725E8E;}
	.st25{fill:#A84D35;}
	.st26{fill:#FFBBBB;}
	.st27{fill:#FFE3E3;}
	.st28{fill:#8084CE;}
	.st29{fill:#1C0C18;}
	.st30{fill:#CAD8D8;}
	.st31{opacity:0.8;fill:#ACE7F3;enable-background:new    ;}
	.st32{opacity:0.8;fill:#94E0EA;enable-background:new    ;}
	.st33{opacity:0.3;fill:#FFFFFF;enable-background:new    ;}
	.st34{opacity:0.5;fill:#FFFFFF;enable-background:new    ;}
	.st35{fill:#770000;}
</style>
<g>
	<g>
		<g>
			<path class="st0" d="M188.9,314.7c-8.4-36.9-32.8-130.4-58.4-150.7l17.8-7.3c25.5,22.9,47.6,118.3,53.8,157.2L188.9,314.7z"/>
			<path class="st1" d="M192,314c-0.9-3.5-13.1-71.7-14.2-74.4c5.5,0.6,20.7,68.6,22.8,74.4H192z"/>
			<g>
				<path class="st2" d="M177.5,162.9c1.4-10.8,36.5-19.6,21.1-37.6c-15.4-18-51.7-4.9-44.7,33.6"/>
				<path class="st2" d="M156.3,159c3.8-25.4-15.3-34.4-37.8-21.2c-22.5,13.2-3.7,21.4,12.8,32"/>
				<path class="st2" d="M128.4,166.7c-12.9-14.4-49.7-15.7-53.8,13.8c-4.2,29.4,37.9,10.2,57.5,8.4"/>
				<path class="st2" d="M172.7,162.2c2.6-10.8,31.7-26.7,54.4-13.9c22.8,12.7,10.1,43.3-14.8,41c-24.9-2.3-28.2-10.7-38.9-5.6"/>
				<path class="st2" d="M130.2,185.5c-14.2-0.2-44.9,7.2-43.2,34.4c1.7,27.2,41.8,28,49.2,1.6c4.7-16.7,11.6-29.2,18.7-32.1"/>
				<path class="st2" d="M177.1,180.4c19.8-3.6,40.8,15.7,24.9,38.8c-11.2,16.3-49.3,22.7-57.7,8.2c-9.2-15.8,4.7-37.5,8.4-36.9"/>
				<path class="st3" d="M117.9,160.2c15,8,8,20.1,0.3,21.7c-7.7,1.5-13.8,5.9-18.2,9.9c10.6-4.5,20.7-4.6,27.9-1.8
					c7.2,2.8,7.4,22.8,5.2,35.9c5.9-20.3,9.1-27.8,12-28.3c-5.1,10.5-5.7,22.6-0.5,28.2c-0.7-10.6,1.5-28.6,18.7-37.6
					c17.2-8.9,33.2-4.3,42.3,10.2c-1.9-9.2-14.5-18.9-24.3-19.1c15.1,3.7,24.2,9.1,35.3,5.6c-9.6-0.7-39-10.8-38.4-16.8
					c1.2-11.6,4.7-17.6,15.7-25.2c-12.3,7.1-19.9,14.3-30,13.3c-10.1-1-8.8-14.8-13.8-20.2c3.5,8.8,0.1,17-5.9,21.2
					C138.1,161.4,132.1,164.4,117.9,160.2z"/>
				<path class="st4" d="M169.3,155.8c18.6,9.1,14.2,27.2-13.4,37c-31.1,10.9-34.9-10.7-27.7-24.4
					C135.4,154.7,157.6,150.1,169.3,155.8z"/>
				<path class="st5" d="M141.7,156.7c-17.8,8.4-19.9,29.5-4.5,31.7c15.4,2.1,37.3-10.9,36-22.8
					C171.9,153.7,156.3,149.8,141.7,156.7z"/>
				<g>
					<path class="st6" d="M148.7,164.5c5.2-2.2,11.8,6.7,2.7,10C142.2,177.9,135.3,170.3,148.7,164.5z"/>
					<path class="st6" d="M135.3,171c3.3-4.6,11,3.8,4.8,6C133.9,179.4,132.5,174.9,135.3,171z"/>
					<path class="st6" d="M142.4,160.7c5.4-1.4,3.1,4.9,0.2,5.9C139.7,167.5,138.4,161.8,142.4,160.7z"/>
					<path class="st6" d="M154.6,156.3c5.4-0.8,8.1,6.5,1.2,6.5C148.9,162.9,146.8,157.5,154.6,156.3z"/>
					<path class="st6" d="M163.9,164.1c7.1-0.5,7.4,7.9,2,8.3C160.5,172.9,156.8,164.6,163.9,164.1z"/>
					<path class="st6" d="M157.4,173.6c5.5-0.8,7.7,5.8,1.8,6.2C153.3,180.1,148.8,174.8,157.4,173.6z"/>
					<path class="st6" d="M144.2,178.3c4.8-1.5,8.3,5.3,1.5,6.9C139,186.7,135.7,180.9,144.2,178.3z"/>
					<path class="st6" d="M132,164.2c4.9-1.3,7.1,5.5,1.9,5.5C128.7,169.7,127.1,165.5,132,164.2z"/>
					<path class="st6" d="M163.8,156.3c3-0.1,4.3,5.1,0.9,5.3C161.4,161.7,157.9,156.4,163.8,156.3z"/>
					<path class="st6" d="M144.2,155.2c3.4-1.1,5.8,1.9,2.9,2.8C144.3,158.8,139.9,156.6,144.2,155.2z"/>
					<path class="st6" d="M130.9,179c4.2,0,5.2,1.5,2.1,2.8C129.9,183.2,128.3,179.1,130.9,179z"/>
					<path class="st6" d="M137,186.4c3.5-1.5,4.2,3.2,1.4,3.2C135.5,189.5,133.3,188,137,186.4z"/>
					<path class="st6" d="M172,161.5c-3.4,0.3-2.2,2.2,0,2.4C174.2,164.1,173.7,161.4,172,161.5z"/>
					<path class="st6" d="M155.8,153.2c2.6-0.5,3.7,3,1.8,3.1C155.6,156.2,151.9,154,155.8,153.2z"/>
					<path class="st6" d="M154.2,187.1c2.5-0.7,1.4-5.3-0.9-5.1C149.5,182.3,149.8,188.4,154.2,187.1z"/>
					<path class="st6" d="M164.8,174.5c3.1-1.4,6.4,2.6,2,3.1C162.4,178.1,162.7,175.5,164.8,174.5z"/>
				</g>
				<path class="st7" d="M176.7,184.5c9.6-0.7,25.2,10.1,22.9,21.1c-2.3,11-26.7,25.1-41.5,21.5c-14.8-3.6-9.3-31.5,0.1-35.5
					c6.1-2.6,10.7,8.5,14.7,15.7C169.6,196.3,164,185.5,176.7,184.5z"/>
				<path class="st7" d="M192.4,148.3c-9.4,5.3-9.5,10.7-3.2,8.6c6.3-2,14.4-2.3,18.8-0.8c-9.7-0.2-21.1,4.5-20.2,9.8
					c0.6,3.6,8.3,11.2,28.6,10.6c20.3-0.6,23.2-8.5,18.6-19.5C230.3,146,207.6,139.8,192.4,148.3z"/>
				<path class="st7" d="M159.6,145.5c-4.7,0.4-6.2-15.2,6.5-23.5c12.7-8.3,26.8-3.4,33.7,4.7c6.9,8.2-10.1,15.7-15.4,19.4
					c-5.3,3.7-11.2,4.9-14.3,3.1c-6-3.7,1.2-18.3,8.8-20.5C169.4,130.7,164.2,145.2,159.6,145.5z"/>
				<path class="st7" d="M121.4,136.2c-11.4,6-15,12.9-6.3,16.4c7.9,3.2,14,6.4,20.9,4c4.1-1.4,0.7-11.3-3.8-13.7
					c6.8,2.6,8.9,8.9,15,8.8c3.7,0,7-17.1-3.8-19.4C132.6,130.1,126.9,133.3,121.4,136.2z"/>
				<path class="st7" d="M117.8,164.3c0.6-6.3-26.6-13.4-37.8,2.7c-11.2,16.1-4.7,29.9,4.8,25.1c9.4-4.9,19.9-11.2,29.5-15.4
					c8.5-3.7-5.6-9.5-20.7-6.6C102.9,162.1,117.3,169.4,117.8,164.3z"/>
				<path class="st7" d="M115.8,188.8c-15.1-0.3-29.3,12.5-28,28.6c1.3,16.2,16.9,20.9,27.5,14.8c10.6-6.1,11.9-22.7,12.4-31.5
					c0.5-8.8-9.1-6.9-20.5,9.2C110.1,196,123.5,189,115.8,188.8z"/>
			</g>
		</g>
		<g>
			<path class="st2" d="M108.2,189.7c-11.9-3.4-18.4,8.3-14.2,14.6C98,210.4,116.1,192,108.2,189.7z"/>
			<path class="st8" d="M106.5,189.8c-10-2.9-15,6.7-11.3,11.7C99.4,207,113.2,191.7,106.5,189.8z"/>
			<path class="st9" d="M99.8,191c-3.8,1-3.5,5.5,0.4,4C104,193.5,105.7,189.5,99.8,191z"/>
		</g>
		<g>
			<path class="st2" d="M87,163.5c-7.5-1.8-10.5,5.5-7.4,9.2C82.6,176.3,92,164.7,87,163.5z"/>
			<path class="st8" d="M85.8,163.9c-6.3-1.5-8.1,3.9-5.5,7C82.7,173.9,89.9,164.8,85.8,163.9z"/>
			<path class="st9" d="M82.5,164.2c-2.2,0.7-1.7,3.4,0.5,2.4C85.2,165.6,85.9,163.1,82.5,164.2z"/>
		</g>
	</g>
	<g>
		<g>
			<g>
				<path class="st10" d="M137.4,137.1c13.7-29.3,44.9-51.5,58.9-52.1c14.1-0.6,8.1,13.2,17.7,17.6c9.7,4.4,23.2,0.2,23.6,17.1
					c0.4,16.9-2.5-4-21.2-6.2c-18.7-2.2-45.6,31-65.9,23.8"/>
				<g>
					<path class="st10" d="M137.4,145.1C115,113.9,159.8,12,198.7,0.7c25-7.3,18.2,47.3,1.6,57.6c9.6-0.3,9.3,13.1-0.8,20.2
						c-17.5,12.4-57,44-63.4,61.5"/>
					<path class="st11" d="M199.4,65.2c-4.3-6.9-38,15.1-50.3,50.3C160.4,97.1,205.8,75.4,199.4,65.2z"/>
					<path class="st11" d="M184.5,20.4c-9.6-1.3-44.4,41.1-47.1,83.8c4,11.9,11.7,1,11.7,1c11.3-21.1,37.1-40.6,41.6-48.2
						C194.1,51.1,193.2,21.6,184.5,20.4z"/>
					<path class="st12" d="M168,57.7c-11.2-10-26.7,24.2-26.4,42.9c0.3,18.7,4.8,10.6,6.7,2C150.8,90.8,179.1,67.6,168,57.7z"/>
					<path class="st12" d="M174,30.2c-2.6,1.8-8.9,18.6-8.9,22.3c5.7-1.1,7.7,8.6,7.7,8.6c5.5-4.9,12.6-12.6,14.4-16.7
						c1.8-4,0.3-14.9-3.4-17.4C180,24.7,174,30.2,174,30.2z"/>
					<path class="st12" d="M167.2,37.1c-2.8,2.4-11.7,15.2-14.5,24.6c4.5-6.4,9.7-8.6,9.7-8.6C161.7,48.9,167.2,37.1,167.2,37.1z"/>
					<path class="st12" d="M189.1,48.1c-1.7,6.2-14.5,15.3-14.5,15.3l-3.9,9.3c6.8-4.4,13.1-11.5,15.4-14.5
						C188.4,55.3,189.1,48.1,189.1,48.1z"/>
				</g>
				<path class="st11" d="M202.9,96.9c-6.5-12-43.2,1.2-56,31c-12.9,29.8,44.1-5,44.1-5"/>
				<path class="st13" d="M194.3,6.2c2.3-7.8,19.8-6,18.4,10.4c-1.5,16.4-11,16.6-11.6,10.9C199.3,9.7,193,10.9,194.3,6.2z"/>
				<path class="st13" d="M198.2,42.1c2.5-6,11.4-1,6.8,8.5C200.4,60,190.9,59.4,198.2,42.1z"/>
				<path class="st13" d="M197.1,32c-2.1-0.6-3.7,5.4-0.8,5.4C199.2,37.3,199.2,32.6,197.1,32z"/>
				<path class="st13" d="M189.5,9.4c-3.4-1.2-5.1,4.9-1.6,5.8C191.1,15.9,194.3,11.1,189.5,9.4z"/>
			</g>
			<g>
				<path class="st10" d="M133.5,135.9C143.9,96,221.7,14.8,289,37.6c28.4,9.6-3.5,82.3-34.9,78.8c12,11.3-6.1,25.6-25.8,19.1
					c-26-8.6-70.4-4.6-87.6,9.9C128.3,151,133.5,135.9,133.5,135.9z"/>
				<path class="st11" d="M237.3,109.6c-12.5,1.3-18.1-3.1-49,5.5c-39.6,11-40.7,21.5-45.5,17.1c-6.4-5.8,23.1-52.7,55.2-71.6
					c32.6-19.1,57.3-14.4,65.7-7.2C277.1,65,250.6,108.2,237.3,109.6z"/>
				<path class="st12" d="M233.6,52c2,0.9-17.3,15.6-17.3,15.6c-12.4-1.4-36.5,12.1-42.1,18.2C190.6,63.4,221.8,46.8,233.6,52z"/>
				<path class="st10" d="M137.7,146.5c39.6-26.9,94.3-19.7,111.4,2.6c17.1,22.3-7.4,26,0.4,37.6c7.7,11.6,28.1,16.2,32.2,30.5
					c4.1,14.3-8.2,16.4-12.6,6.9c-4.4-9.5-17.1-31.7-29.9-30.8c-12.8,0.9-23.8,7-34.1-11.4c-10.4-18.4-43.7-29-66.6-30.6
					C131.1,152,137.7,146.5,137.7,146.5z"/>
				<path class="st11" d="M170.4,126.8c31.4-17.5,59-14.1,68.9-9c9.9,5.1,3.9,15.2-6.8,12.4C221.9,127.4,198,120.7,170.4,126.8z"/>
				<path class="st11" d="M156.2,142c-3.5,4.3,9.8,8.2,29.2,16.4c19.5,8.2,22.3,19.6,32.2,28c9.9,8.4,31.2-9.4,30.9-22.8
					C247.9,132.5,168.8,126.3,156.2,142z"/>
				<path class="st13" d="M262.9,204.4c4.8-7.7,22.9,15.2,16.5,19.6C273,228.4,261.1,207.3,262.9,204.4z"/>
				<path class="st12" d="M204.2,145.1c11.8-15,55.2,7.8,33.3,30.3C219.5,193.9,190.4,162.7,204.2,145.1z"/>
				<path class="st14" d="M214.6,150.4c8.3-10.5,38.9,5.5,23.4,21.3C225.3,184.8,204.8,162.8,214.6,150.4z"/>
				<path class="st10" d="M169.1,136.1c7.5-13.1,41.4-4.5,31.9,13.4C193.2,164.2,162.6,147.6,169.1,136.1z"/>
				<path class="st13" d="M171.7,136.7c3-5.4,16.8-1.9,13,5C181.1,148.2,168.7,142.2,171.7,136.7z"/>
				<path class="st12" d="M147.8,124.4c6.9-20.4,36.9-50.7,60.9-53.5c24-2.8,18.8,28.6,0.2,31.6C176,107.9,153.7,122,147.8,124.4z"
					/>
				<path class="st12" d="M245.7,52.8c-10.7,3.3-21,13.5-24,16.9c7.8,3.7,9.3,14.9,6.7,18.4c13.6-2,27.9-7.2,30.9-10.4
					c3-3.2,7-18.5,2.6-21.7C257.4,52.9,249.2,51.5,245.7,52.8z"/>
				<path class="st12" d="M226.3,92.6c11.1-1.5,25.5-4.9,27.9-6.3c-4,9.6-11.3,19.8-16.5,20.5c-5.2,0.7-18.1-4.4-18.1-4.4
					C222.6,100.2,226.3,92.6,226.3,92.6z"/>
				<path class="st13" d="M272,42.2c4.5-8.7,30.3-1.2,25.4,18c-4.9,19.2-24.4,15.9-22.8,9.1C279.5,48.5,269.3,47.5,272,42.2z"/>
				<path class="st13" d="M269.5,83c5.3-7.3,20.2,2.2,10.8,13.4C270.8,107.7,254.2,104,269.5,83z"/>
				<path class="st13" d="M261,105.6c-5.2-5.2-13.9,4.1-8.2,7.3C258.5,116.2,265.4,110,261,105.6z"/>
				<path class="st13" d="M270.4,72.4c-2.9-1.1-6.1,5.7-2.1,6.2C272.4,79.1,273.2,73.5,270.4,72.4z"/>
				<path class="st13" d="M258.8,96.9c-1.4-2.3-6.2,2.5-3,3.4C258.9,101.1,260,98.9,258.8,96.9z"/>
				<path class="st13" d="M263.3,39.7c-3.4-3.7-7.7,5.4-3.2,6.5C264.5,47.3,268.6,45.5,263.3,39.7z"/>
				<path class="st14" d="M212.7,73.4c10.7-0.1,14.1,15.6-1.1,18.6c-13.2,2.6-35.6,9.8-48.7,18.7C174.3,89,198.8,73.5,212.7,73.4z"
					/>
				<path class="st14" d="M251.7,53.8c-8.3-0.9-19.8,5.8-13.3,16.6c6.6,10.8,16.2,8.4,20.1,0.6C262.7,62.7,265.5,55.3,251.7,53.8z"
					/>
				<path class="st10" d="M176.7,107.1c-5.6-5.6-21.2,8.6-12.1,14.4C170.9,125.5,184.4,114.8,176.7,107.1z"/>
			</g>
			<path class="st15" d="M115.7,138.9c-10.1,6.9-26.2,8.2-27.3-5.1c-1.8-5.1-5.5,0.3-5.5,0.3c1.4,11.1,16.1,17.7,34.5,8.5"/>
			<path class="st15" d="M128.1,166.8c-11.4,0.8-29.1,10.5-32.4,16.7c-0.7,3.4,0.4,1.8,0.4,1.8c7-5.5,22.1-14.6,34-14.9"/>
			<path class="st16" d="M135.5,125.9c1.2,4,11.1,8.3,21.8,14.9c10.7,6.6,14.3,30-11.4,33.4c-25.7,3.4-36.4-26.4-26.6-49.1
				C128.9,102.3,135.5,125.9,135.5,125.9z"/>
			<path class="st17" d="M128.3,133.5c6.5,3.4,26.5,19.8,23.7,29.9c-2.8,10.1-16.2,10.6-24.8,5.2s-12.4-24.8-10.2-32.8
				C118.2,131.4,125.8,132.2,128.3,133.5z"/>
			<path class="st17" d="M104.5,86.3c-5.3,8.2-22.4,25.7-0.5,36.6c21.8,10.9,47.8,5.5,43.7-23.9C143.7,70.8,113.1,72.9,104.5,86.3z"
				/>
			<path class="st18" d="M129.4,79.2c12.1,6.7,12.7,30.8-2,37.8c-14.6,7-36.4-5.4-32.1-16C99.6,90.2,113.4,70.4,129.4,79.2z"/>
			<path class="st19" d="M100.6,108.1c-2.2,0.1-3.5,4.3-0.9,4.9C102.4,113.5,103.2,108,100.6,108.1z"/>
			<path class="st15" d="M86,178c-11.1,7.1,6.2,14.9,10.9,11.4C101.6,186.1,95.3,172,86,178z"/>
			<path class="st15" d="M142.6,166.9c2.8-1.1,3.7,1.4,0.5,3.1c-6,3.2-14.9,13.1-17.2,22c-2.2,8.6-4,4.6-3.1-1.7
				C123.6,183.9,130.4,171.7,142.6,166.9z"/>
			<path class="st15" d="M121.1,202.7c-6.8-1.8-8.9-17.9,2.2-15.3C135.7,190.3,129,204.8,121.1,202.7z"/>
			<g>
				<path class="st20" d="M86.1,125.5c0,0,4.4,29.3,4.4,29.3c0,0,2.4,3.2,3.8,1.8c1.4-1.4-4.5-25.5-4.6-31.7
					c9.4-2.3,2.9-20-5.2-19.3C76.5,106.4,77.9,125.4,86.1,125.5z M85,110.3c4.1-1,7.4,10,2.6,11.1C81.5,122.8,81.7,111,85,110.3z"/>
				<polygon class="st21" points="88.8,139.3 91.6,141.9 93.4,152.9 90,148.5 				"/>
				<path class="st21" d="M89.7,108c2.7,3.1,1.1,4.8-0.9,2.3c-2.1-2.6-5-3.2-6.3,0.6c-1.2,3.8-2,2.9-1.4-1.1
					C81.7,105.8,86.6,104.5,89.7,108z"/>
			</g>
			<path class="st15" d="M85.1,126.7c-4.4,0.4-7.3,9.5-1.1,12.8C90.2,142.8,91.3,126.1,85.1,126.7z"/>
			<path class="st15" d="M90.7,129.8c-3,2,0.2,7.5,2.7,5.8C95.9,133.9,93.8,127.8,90.7,129.8z"/>
			<g>
				<path class="st22" d="M102.9,152.1c0,0-2.5-7-3.7-10.6c-2.2-6.2,15.2-9.8,16.4-5c0.8,3.1,0.6,13.3,0.6,13.3
					C116.1,152.5,104.9,156.4,102.9,152.1z"/>
				<path class="st23" d="M114.5,136.1c1.9,2-3.7,5.9-9.1,6.3c-5.4,0.4-7.4-2.1-4.6-4.4C103.6,135.8,111.9,133.3,114.5,136.1z"/>
				<path class="st24" d="M112.7,136.5c-2.4-2-11.2,0.5-11.3,3C101.4,143.6,115.7,139.1,112.7,136.5z"/>
			</g>
			<path class="st15" d="M138.5,136.5c-0.8,9.9-4.7,18.5-20.7,19.4c-12.4,12.4-20.5-6.1-15.7-6.4c4.6,9.7,12.2-3.1,14-2.2
				c2.7,1.4,0.5,5.1,1.7,5.4c1,0.3,16.1,1.1,17.2-16.5C135.2,133.4,136.9,133.3,138.5,136.5z"/>
			<path class="st25" d="M85.6,127.4c2.8-0.2,2.8,7.4,0.7,8.5C84.2,137.1,81.3,127.7,85.6,127.4z"/>
			<path class="st25" d="M92,129.8c1,0.2,1.5,3.1,0,3.6C90.5,133.8,89.8,129.4,92,129.8z"/>
			<path class="st25" d="M114,149.9c0.3,2.4-2.4,6.2-5.3,6.6c-2.9,0.4-6.9-2.6-6.5-4.6C106,155.2,110.1,154,114,149.9z"/>
			<path class="st25" d="M91.6,177.4c3.4,0.7,6,5.9,5.3,7.5c-0.7,1.7-3.9-4.1-7.2-4.4s-5.2,2.6-6.2,2
				C82.5,181.9,85.3,176.1,91.6,177.4z"/>
			<path class="st25" d="M124.3,188.5c5.6,2.2,5,7.8,3.9,8.6c-1.1,0.9-0.6-3.8-5.4-5.3c-4.8-1.6-5.6,3-6.5,2.6
				C115.5,194.1,115.7,185.2,124.3,188.5z"/>
		</g>
		<g>
			<path class="st26" d="M124.9,91.4c6.2-0.7,10.3,7.4,6.2,14.1c-3.5,5.8-10.3,10.2-15.9,6.6C109.7,108.5,115.6,92.5,124.9,91.4z"/>
			<path class="st27" d="M124.1,92.8c5.1-0.6,8.5,6.5,5.2,12.7c-2.8,5.5-9,9.2-14,5.9C110.4,108.2,115.7,93.7,124.1,92.8z"/>
			<path class="st28" d="M116.9,97.3c2.9-2.9,8.6-0.2,6.8,7c-1.6,6.2-6.9,8.8-9.2,7.3C111.6,109.7,113.6,100.4,116.9,97.3z"/>
			<path class="st26" d="M107.9,85.3c3.2,1.3-3.5,16.7-7.2,19c-2.8,1.8-5.3,0-5.2-3.5C95.5,94.8,102.3,83,107.9,85.3z"/>
			<path class="st27" d="M107.1,87.1c3,1.1-2.1,13.8-5.6,16.7c-2.6,2.2-4.6,0-5.1-1.8C95,96.5,101.4,86.3,107.1,87.1z"/>
			<path class="st28" d="M106.9,94c0.7-5-4.8-5.9-7.5-0.7c-3.2,6.1-2.1,12.6,0.9,11.4C103.3,103.4,106.8,95.8,106.9,94z"/>
			<path class="st29" d="M103.6,92.8c-4.4,0-7,10.5-3.5,11.3C102.4,104.6,109.9,92.8,103.6,92.8z"/>
			<path class="st29" d="M118.7,98.8c5.7,2.8,0,14.9-4.5,11.9C111.7,109.1,114.2,96.6,118.7,98.8z"/>
			<path class="st27" d="M119.9,103.4c0.3-1.2,6.6-4,6.3-1.6C125.9,104.2,119.3,105.5,119.9,103.4z"/>
			<path class="st27" d="M101.1,96c0.9-0.7,1.1-5.9-0.9-4.7C98.2,92.4,99.5,97.2,101.1,96z"/>
			<path class="st17" d="M121.4,92.5c8.8-5.7,17.6,6,7.5,16C135.6,99.9,129.8,88.6,121.4,92.5z"/>
			<path class="st17" d="M108.7,88.4c1-6.9-6.3-4.4-10.6,4C103.2,85.1,108.2,84.6,108.7,88.4z"/>
			<path class="st30" d="M100.1,100.4c0.2-0.3,1.9-0.5,2.3-0.1c0.4,0.4,0.2,1.7,0,2c-0.3,0.3-1.8,0.4-2.2,0.1
				C99.8,102.2,99.9,100.7,100.1,100.4z"/>
			<path class="st30" d="M116.3,107.7c0.1-0.3-0.9-1.7-1.4-1.7c-0.5,0-1.4,0.9-1.4,1.3c0,0.4,0.9,1.6,1.3,1.7
				C115.2,109,116.2,108.1,116.3,107.7z"/>
		</g>
		<g>
			<path class="st15" d="M122.7,77.8c-1.9-16.7-13-41-32.5-41.2c-19.5-0.3-28,9.2-23.9,14.7c4.1,5.6,8.3-1.8,13.8-8.2
				c5.6-6.4,31.3-4.4,41.7,34.9"/>
			<path class="st15" d="M132.8,83.2c6-15.5,7.3-38.9-3-47.3c-10.3-8.4-22.5-2.4-19.6,3.6c2.6,5.5,6.1,1.4,11.7-1.9
				c5.2-3,20.9,6.8,10.1,45.3"/>
			<path class="st25" d="M68.7,42.7c-4.8,4.6,1.3,7,5.1,4C78.8,42.6,75.6,36.2,68.7,42.7z"/>
			<path class="st25" d="M114.7,32.6c-6.7,2.1-2,6,3,4.9C124.4,36.1,121.9,30.4,114.7,32.6z"/>
		</g>
		<g>
			<path class="st31" d="M85,109c-10,0.1-20.5-3.6-24.4-20c-3.9-16.5-20.9-34.1-44.1-22.7c-23.3,11.5-22.7,49.7,6.3,61.7
				c27.6,11.4,64.8-3.5,66.5-5.8C93.6,116.6,89.3,109,85,109z"/>
			<path class="st32" d="M76.6,122.4c-23.2,4.1-63,2.6-73.8-31C0,132.7,58.5,135.9,76.6,122.4z"/>
			<path class="st33" d="M55.2,84.8c-0.9-25.1-42.9-31.3-47.8-4.1C6.4,102.3,51.2,117.5,55.2,84.8z"/>
			<path class="st34" d="M38.9,68.6c14.5,2.4,11.8,20.7-0.7,18.9C25.8,85.8,29.4,67,38.9,68.6z"/>
			<path class="st34" d="M56.5,96.6c2.9,0,7.6,10,1,9.4C50.8,105.4,50.1,96.7,56.5,96.6z"/>
		</g>
		<path class="st35" d="M101.5,111c-0.1-1.2-2.1-1.3-2.1,0.8C99.4,113.4,101.5,112.2,101.5,111z"/>
	</g>
</g>
</svg>
