<?xml version="1.0" encoding="utf-8"?>
<!-- Generator: Adobe Illustrator 16.0.0, SVG Export Plug-In . SVG Version: 6.00 Build 0)  -->
<!DOCTYPE svg PUBLIC "-//W3C//DTD SVG 1.1//EN" "http://www.w3.org/Graphics/SVG/1.1/DTD/svg11.dtd">
<svg version="1.1" id="Layer_1" xmlns="http://www.w3.org/2000/svg" xmlns:xlink="http://www.w3.org/1999/xlink" x="0px" y="0px"
	 width="500px" height="500px" viewBox="0 0 500 500" enable-background="new 0 0 500 500" xml:space="preserve">
<g>
	<path fill="#424242" d="M248,262.879c3.762,0,7.359,1.121,10.48,3.199c0,0,15.52-15.68,16.32-16.078v-45.359
		c0-2.563-2.242-4.641-4.879-4.641H206.32c-2.558,0-4.32,2.078-4.32,4.641v86.878c0,2.559,1.762,4.402,4.32,4.402h30.559
		l-1.918-1.762c-3.52-3.52-5.359-8-5.359-12.961s1.918-9.52,5.359-13.039C238.48,264.801,243.039,262.879,248,262.879L248,262.879z
		 M226,248.961"/>
	<path fill="#3F3F3F" d="M253.359,297.68c1.52,1.52,3.52,2.32,5.602,2.32c2.078,0,4.078-0.801,5.598-2.32l30.082-30.078
		c3.039-3.043,3.281-8,0.32-11.121c-3.039-3.281-8.242-3.359-11.359-0.16l-21.363,21.359c-1.84,1.84-4.719,1.84-6.559,0
		l-2.801-2.801c-3.117-3.117-8.078-3.117-11.199,0c-3.121,3.121-3.121,8.082,0,11.199L253.359,297.68z M253.359,297.68"/>
	<polygon fill="#FFFFFF" points="237.446,254.384 220.655,233.158 232.103,233.158 232.103,210.221 242.79,210.221 242.79,233.158 
		254.242,233.158 	"/>
</g>
</svg>
