<?xml version="1.0" encoding="utf-8"?>
<!-- Generator: Adobe Illustrator 16.0.0, SVG Export Plug-In . SVG Version: 6.00 Build 0)  -->
<!DOCTYPE svg PUBLIC "-//W3C//DTD SVG 1.1//EN" "http://www.w3.org/Graphics/SVG/1.1/DTD/svg11.dtd">
<svg version="1.1" id="Capa_1" xmlns="http://www.w3.org/2000/svg" xmlns:xlink="http://www.w3.org/1999/xlink" x="0px" y="0px"
	 width="512px" height="512px" viewBox="0 0 512 512" enable-background="new 0 0 512 512" xml:space="preserve">
<g>
	<path fill="#929292" d="M283.841,274.867c5.385,0,10.534,1.605,15.001,4.579c0,0,22.214-22.442,23.359-23.013V191.51
		c0-3.668-3.209-6.643-6.982-6.643h-91.035c-3.662,0-6.184,2.975-6.184,6.643v124.352c0,3.662,2.521,6.302,6.184,6.302h43.739
		l-2.745-2.521c-5.037-5.038-7.671-11.451-7.671-18.552s2.745-13.625,7.671-18.663C270.216,277.618,276.74,274.867,283.841,274.867
		L283.841,274.867z M252.352,254.946"/>
	<path fill="#929292" d="M291.512,324.679c2.175,2.175,5.038,3.321,8.018,3.321c2.975,0,5.838-1.146,8.013-3.321l43.057-43.052
		c4.351-4.355,4.697-11.45,0.459-15.918c-4.351-4.696-11.798-4.808-16.259-0.229l-30.578,30.572c-2.634,2.633-6.754,2.633-9.388,0
		l-4.009-4.009c-4.462-4.462-11.563-4.462-16.029,0c-4.468,4.467-4.468,11.567,0,16.029L291.512,324.679z M291.512,324.679"/>
	<polygon fill="#FFFFFF" points="268.736,262.708 244.702,232.328 261.087,232.328 261.087,199.497 276.384,199.497 
		276.384,232.328 292.776,232.328 	"/>
</g>
</svg>
