<?xml version="1.0" encoding="utf-8"?>
<!-- Generator: Adobe Illustrator 16.0.0, SVG Export Plug-In . SVG Version: 6.00 Build 0)  -->
<!DOCTYPE svg PUBLIC "-//W3C//DTD SVG 1.1//EN" "http://www.w3.org/Graphics/SVG/1.1/DTD/svg11.dtd">
<svg version="1.1" id="Isolation_Mode" xmlns="http://www.w3.org/2000/svg" xmlns:xlink="http://www.w3.org/1999/xlink" x="0px"
	 y="0px" width="417.635px" height="506.843px" viewBox="154.542 280.228 417.635 506.843"
	 enable-background="new 154.542 280.228 417.635 506.843" xml:space="preserve">
<g>
	<path fill="#FD991C" d="M164.937,673.349c-17.524,25.025-12.583,52.816,12.501,70.682c4.396,3.096,8.885,6.059,13.148,9.062
		c8.62,5.871,16.594,11.387,24.305,17.415c18.033,14.294,39.49,19.34,63.782,15.124c2.043-0.354,4.067-0.823,6.204-1.311
		c28.331-6.555,56.141-20.15,87.433-42.653c56.74-40.952,103.633-92.825,139.401-154.227
		c28.632-49.287,46.934-96.782,55.968-145.124c4.005-21.394,7.622-49.735,0.191-79.082c-4.767-18.702-15.056-33.521-30.657-43.91
		c-8.314-5.457-16.593-11.386-24.605-17.129c-5.595-3.94-11.21-7.994-16.919-11.915c-11.97-8.33-24.929-11.577-37.529-9.391
		c-12.6,2.187-23.821,9.63-32.284,21.506c-5.555,7.747-10.977,15.587-16.324,23.18c-2.44,3.463-4.973,7.06-7.412,10.524
		c-2.252,3.197-4.597,6.527-6.943,9.857c-5.253,7.46-10.695,15.188-16.042,22.781c-17.692,25.405-12.979,53.237,12.219,71.08
		l7.726,5.443c9.992,7.034,20.155,14.393,30.488,21.369c-3.895,15.293-10.513,31.059-20.696,49.197
		c-21.265,37.835-44.777,68.11-71.776,92.44c-3.54,3.187-7.479,6.093-11.739,9.171c-1.772,1.242-3.432,2.466-5.184,3.822
		c-11.782-8.596-23.751-16.926-35.456-25.068l-3.177-2.139c-11.97-8.329-24.929-11.576-37.529-9.39
		c-12.601,2.187-23.801,9.743-32.265,21.619C196.341,627.906,180.486,650.42,164.937,673.349z M186.843,689.075
		c15.835-22.627,31.711-45.028,47.022-66.628c2.928-4.018,7.876-9.202,14.459-10.345c6.584-1.143,12.856,1.979,16.985,4.888
		l3.177,2.137c12.637,8.8,25.539,17.786,38.121,26.945c5.368,3.979,11.004,5.458,16.679,4.473l0,0c3.52-0.61,6.881-2.13,10.064-4.67
		c2.468-1.948,5.07-3.804,7.765-5.791c4.675-3.384,9.444-6.901,14.001-10.966c29.334-26.373,54.668-58.952,77.449-99.507
		c12.222-21.883,20.032-40.896,24.317-59.998c2.873-12.427-3.408-19.639-9.116-23.561c-11.131-7.539-22.322-15.42-33.132-23.132
		l-7.747-5.556c-12.809-9.119-14.546-19.81-5.56-32.712c5.234-7.574,10.695-15.187,15.948-22.647
		c2.365-3.217,4.71-6.548,7.056-9.878c2.534-3.597,4.973-7.06,7.505-10.657c5.234-7.574,10.676-15.301,16.137-22.914
		c3.022-4.15,7.875-9.202,14.572-10.364c6.698-1.163,12.99,2.073,17.099,4.868c5.442,3.733,11.057,7.787,16.519,11.633
		c8.26,5.817,16.673,11.841,25.272,17.598c10.046,6.676,16.128,15.443,19.183,27.659c4.673,18.835,4.527,39.558-0.61,67.228
		c-8.411,45.193-25.597,89.688-52.713,136.257c-33.782,58.018-78.024,106.974-131.654,145.632
		c-28.164,20.323-52.839,32.439-77.463,38.116c-18.894,4.332-33.516,1.607-46.521-8.647c-8.417-6.725-17.283-12.67-25.79-18.562
		c-4.243-2.888-8.601-5.757-12.75-8.779C180.464,712.283,178.573,701.385,186.843,689.075z"/>
</g>
</svg>
