<?xml version="1.0" encoding="utf-8"?>
<!-- Generator: Adobe Illustrator 16.0.0, SVG Export Plug-In . SVG Version: 6.00 Build 0)  -->
<!DOCTYPE svg PUBLIC "-//W3C//DTD SVG 1.1//EN" "http://www.w3.org/Graphics/SVG/1.1/DTD/svg11.dtd">
<svg version="1.1" id="Layer_1" xmlns="http://www.w3.org/2000/svg" xmlns:xlink="http://www.w3.org/1999/xlink" x="0px" y="0px"
	 width="55px" height="55px" viewBox="62.5 62.5 55 55" enable-background="new 62.5 62.5 55 55" xml:space="preserve">
<image display="none" overflow="visible" enable-background="new    " width="49" height="39" xlink:href="74D8ECD.png"  transform="matrix(1 0 0 1 66.0005 70)">
</image>
<image display="none" overflow="visible" enable-background="new    " width="49" height="39" xlink:href="74D8ED3.png"  transform="matrix(1 0 0 1 65.5 71.5)">
</image>
<g>
	<linearGradient id="SVGID_1_" gradientUnits="userSpaceOnUse" x1="90.4165" y1="73.6792" x2="90.4165" y2="103.7505">
		<stop  offset="0" style="stop-color:#FFFFFF"/>
		<stop  offset="1" style="stop-color:#F8E4C3"/>
	</linearGradient>
	<path fill-rule="evenodd" clip-rule="evenodd" fill="url(#SVGID_1_)" stroke="#F2A84D" d="M112.5,99.953
		c0,2.1-1.496,3.797-3.345,3.797H71.678c-1.846,0-3.345-1.697-3.345-3.797V77.475c0-2.097,1.499-3.796,3.345-3.796h37.477
		c1.849,0,3.345,1.699,3.345,3.796V99.953z"/>
	<g display="none">
		<g display="inline">
			<path fill-rule="evenodd" clip-rule="evenodd" fill="#107DB0" d="M102.397,86.181c-0.999,0-1.787,0.303-2.39,0.438l-0.187,1.721
				c0.301-0.163,1.253-0.465,2.041-0.491c0.79-0.026,1.254,0.164,1.09,0.929c-2.342,0-3.918,0.544-4.241,2.268
				c-0.468,2.948,2.386,2.868,3.524,1.582l-0.142,0.713h2.089l0.905-4.702C105.457,86.647,103.858,86.156,102.397,86.181z
				 M102.536,90.989c-0.116,0.63-0.557,0.901-1.091,0.929c-0.463,0.027-0.88-0.438-0.579-0.984c0.23-0.462,0.881-0.572,1.276-0.572
				c0.162,0,0.348,0,0.51,0C102.605,90.581,102.581,90.771,102.536,90.989z"/>
			<polygon fill-rule="evenodd" clip-rule="evenodd" fill="#107DB0" points="106.873,84.325 105.147,93.341 107.267,93.341 
				109.016,84.325 106.873,84.325 106.873,84.325 			"/>
			<path fill-rule="evenodd" clip-rule="evenodd" fill="#107DB0" d="M97.129,84.353h-3.881l-1.721,8.988h2.256l0.581-2.979h1.604
				c1.582,0,2.884-1.091,3.23-2.949C99.595,85.308,98.247,84.353,97.129,84.353z M97.062,87.413
				c-0.141,0.683-0.743,1.227-1.326,1.227h-1.048l0.467-2.458h1.115C96.852,86.181,97.201,86.729,97.062,87.413z"/>
		</g>
		<g display="inline">
			<path fill-rule="evenodd" clip-rule="evenodd" fill="#1B557D" d="M82.063,86.181c-0.984,0-1.763,0.303-2.334,0.438l-0.184,1.721
				c0.274-0.163,1.212-0.465,1.993-0.491c0.779-0.026,1.237,0.164,1.1,0.929c-2.314,0-3.873,0.544-4.193,2.268
				c-0.458,2.948,2.359,2.868,3.46,1.582l-0.136,0.713h2.083l0.895-4.702C85.111,86.647,83.506,86.156,82.063,86.181z
				 M82.224,90.989c-0.115,0.63-0.572,0.901-1.099,0.929c-0.458,0.027-0.849-0.438-0.551-0.984c0.228-0.462,0.871-0.572,1.237-0.572
				c0.185,0,0.344,0,0.528,0C82.292,90.581,82.248,90.771,82.224,90.989z"/>
			<polygon fill-rule="evenodd" clip-rule="evenodd" fill="#1B557D" points="85.652,86.312 87.738,86.312 88.075,90.498 
				90.115,86.312 92.268,86.312 87.313,96.328 84.981,96.328 86.505,93.386 85.652,86.312 85.652,86.312 			"/>
			<path fill-rule="evenodd" clip-rule="evenodd" fill="#1B557D" d="M76.878,84.353h-3.893l-1.725,8.988h2.284l0.56-2.979h1.631
				c1.562,0,2.866-1.091,3.217-2.949C79.348,85.308,78.02,84.353,76.878,84.353z M76.808,87.413
				c-0.141,0.683-0.723,1.227-1.306,1.227h-1.072l0.489-2.458h1.119C76.598,86.181,76.971,86.729,76.808,87.413z"/>
		</g>
		<g display="inline">
			<path fill="#1B557D" d="M109.473,85.491v-1.062h-0.349v-0.144h0.843v0.144h-0.353v1.062H109.473z"/>
			<path fill="#1B557D" d="M110.104,85.491v-1.206h0.212l0.252,0.854c0.022,0.08,0.037,0.138,0.05,0.178
				c0.012-0.043,0.031-0.109,0.057-0.194l0.254-0.838h0.189v1.206h-0.134v-1.009l-0.311,1.009h-0.127l-0.307-1.026v1.026H110.104z"
				/>
		</g>
	</g>
</g>
<g display="none">
	<linearGradient id="SVGID_2_" gradientUnits="userSpaceOnUse" x1="90.4165" y1="73.6792" x2="90.4165" y2="103.7505">
		<stop  offset="0" style="stop-color:#FFFFFF"/>
		<stop  offset="1" style="stop-color:#DAEDEA"/>
	</linearGradient>
	<path display="inline" fill-rule="evenodd" clip-rule="evenodd" fill="url(#SVGID_2_)" d="M112.5,99.953
		c0,2.1-1.496,3.797-3.345,3.797H71.678c-1.846,0-3.345-1.697-3.345-3.797V77.475c0-2.097,1.499-3.796,3.345-3.796h37.477
		c1.849,0,3.345,1.699,3.345,3.796V99.953z"/>
</g>
<g display="none">
	<path display="inline" fill-rule="evenodd" clip-rule="evenodd" fill="#5E5E5E" d="M112.5,77.105c0-2.291-1.103-3.426-3.241-3.426
		H71.574c-1.069,0-1.854,0.307-2.372,0.936c-0.584,0.632-0.869,1.442-0.869,2.49v23.219c0,1.045,0.284,1.84,0.869,2.488
		c0.602,0.632,1.37,0.938,2.372,0.938h37.685c2.139,0,3.241-1.153,3.241-3.426V77.105L112.5,77.105z M109.259,74.22
		c1.771,0,2.673,0.973,2.673,2.885v23.219c0,1.931-0.901,2.885-2.673,2.885H71.574c-0.852,0-1.503-0.269-1.988-0.81
		c-0.501-0.525-0.751-1.246-0.751-2.075V77.105c0-1.913,0.886-2.885,2.74-2.885H109.259L109.259,74.22z"/>
	<path fill-rule="evenodd" clip-rule="evenodd" fill="#005280" d="M71.875,75.554c-0.718,0-1.169,0.125-1.42,0.396
		c-0.217,0.307-0.317,0.811-0.317,1.551v5.029h40.559v-5.029c0-1.316-0.602-1.947-1.805-1.947H71.875L71.875,75.554z"/>
	<path fill-rule="evenodd" clip-rule="evenodd" fill="#F2A713" d="M70.137,99.856c0,1.334,0.584,2.018,1.737,2.018h37.017
		c1.203,0,1.805-0.684,1.805-2.018v-5.03H70.137V99.856L70.137,99.856z"/>
	<path fill-rule="evenodd" clip-rule="evenodd" fill="#005280" d="M83.567,84.676c0,0.234-0.034,0.414-0.117,0.541l-2.924,5.499
		l-0.183-6.706h-4.677l1.57,0.811c0.451,0.307,0.685,0.703,0.685,1.208l0.434,7.121h2.289l5.479-9.141h-2.807
		C83.484,84.171,83.567,84.423,83.567,84.676L83.567,84.676z"/>
	<path fill-rule="evenodd" clip-rule="evenodd" fill="#005280" d="M102.477,84.279l0.184-0.27h-2.856
		c0.101,0.108,0.135,0.162,0.135,0.198c-0.034,0.144-0.101,0.234-0.135,0.342l-4.158,8.185c-0.1,0.145-0.201,0.271-0.318,0.415
		h2.356l-0.117-0.271c0-0.233,0.117-0.667,0.366-1.28l0.501-1.009h2.423c0.101,0.848,0.168,1.55,0.2,2.072l-0.2,0.487h2.924
		l-0.435-0.686L102.477,84.279L102.477,84.279z M100.74,89.31h-1.738l1.487-3.084L100.74,89.31L100.74,89.31z"/>
	<path fill-rule="evenodd" clip-rule="evenodd" fill="#005280" d="M93.523,83.54c-0.902,0-1.67,0.271-2.354,0.812
		c-0.752,0.469-1.12,1.064-1.12,1.803c0,0.848,0.267,1.587,0.801,2.146l1.621,1.208c0.584,0.451,0.868,0.847,0.868,1.208
		c0,0.343-0.151,0.65-0.435,0.884c-0.284,0.234-0.602,0.343-1.002,0.343c-0.585,0-1.587-0.451-2.974-1.279v1.676
		c1.086,0.703,2.139,1.063,3.157,1.063c0.969,0,1.788-0.288,2.489-0.938c0.751-0.595,1.119-1.297,1.119-2.072
		c0-0.649-0.268-1.245-0.869-1.876l-1.553-1.208c-0.518-0.451-0.802-0.847-0.802-1.154c0-0.703,0.384-1.064,1.17-1.064
		c0.533,0,1.318,0.325,2.372,1.01l0.315-1.749C95.444,83.81,94.525,83.54,93.523,83.54L93.523,83.54z"/>
	<path fill-rule="evenodd" clip-rule="evenodd" fill="#005280" d="M87.31,93.149c-0.034-0.379-0.101-0.721-0.134-1.081l2.122-7.393
		l0.501-0.667h-3.057c0.034,0.162,0.067,0.378,0.1,0.541c0,0.163,0,0.361-0.033,0.541l-2.121,7.319l-0.435,0.74H87.31L87.31,93.149z
		"/>
</g>
<g display="none">
	<polygon display="inline" fill-rule="evenodd" clip-rule="evenodd" fill="#F9B41D" points="97.115,98.625 97.627,98.611 
		98.131,98.573 98.625,98.513 99.114,98.424 99.591,98.314 100.062,98.181 100.523,98.023 100.973,97.848 101.414,97.648 
		101.841,97.431 102.254,97.19 102.658,96.933 103.044,96.656 103.418,96.363 103.778,96.053 104.121,95.723 104.454,95.378 
		104.763,95.018 105.056,94.644 105.334,94.256 105.591,93.854 105.831,93.44 106.046,93.013 106.248,92.571 106.425,92.123 
		106.581,91.663 106.715,91.191 106.824,90.714 106.911,90.224 106.976,89.729 107.012,89.226 107.025,88.716 107.012,88.208 
		106.976,87.708 106.911,87.214 106.824,86.73 106.715,86.253 106.581,85.786 106.425,85.326 106.248,84.878 106.046,84.442 
		105.831,84.014 105.591,83.604 105.334,83.2 105.056,82.813 104.763,82.443 104.454,82.083 104.121,81.739 103.778,81.412 
		103.418,81.102 103.044,80.809 102.658,80.531 102.254,80.275 101.841,80.038 101.414,79.821 100.973,79.621 100.523,79.444 
		100.062,79.287 99.591,79.154 99.114,79.044 98.625,78.957 98.131,78.894 97.627,78.857 97.115,78.843 96.608,78.857 
		96.105,78.894 95.611,78.957 95.125,79.044 94.647,79.154 94.178,79.287 93.721,79.444 93.271,79.621 92.833,79.821 92.408,80.038 
		91.994,80.275 91.595,80.531 91.208,80.809 90.834,81.102 90.477,81.412 90.133,81.739 89.806,82.083 89.496,82.443 89.202,82.813 
		88.929,83.2 88.672,83.604 88.435,84.014 88.215,84.442 88.018,84.878 87.841,85.326 87.688,85.786 87.554,86.253 87.444,86.73 
		87.357,87.214 87.294,87.708 87.257,88.208 87.244,88.716 87.257,89.226 87.294,89.729 87.357,90.224 87.444,90.714 87.554,91.191 
		87.688,91.663 87.841,92.123 88.018,92.571 88.215,93.013 88.435,93.44 88.672,93.854 88.929,94.256 89.202,94.644 89.496,95.018 
		89.806,95.378 90.133,95.723 90.477,96.053 90.834,96.363 91.208,96.656 91.595,96.933 91.994,97.19 92.408,97.431 92.833,97.648 
		93.271,97.848 93.721,98.023 94.178,98.181 94.647,98.314 95.125,98.424 95.611,98.513 96.105,98.573 96.608,98.611 97.115,98.625 
		97.115,98.625 	"/>
	<polygon display="inline" fill-rule="evenodd" clip-rule="evenodd" fill="#E30520" points="83.884,98.625 84.391,98.611 
		84.896,98.573 85.389,98.513 85.876,98.424 86.354,98.314 86.824,98.181 87.281,98.023 87.731,97.848 88.168,97.648 88.592,97.431 
		89.006,97.19 89.406,96.933 89.793,96.656 90.167,96.363 90.524,96.053 90.867,95.723 91.193,95.378 91.505,95.018 91.799,94.644 
		92.071,94.256 92.329,93.854 92.564,93.44 92.786,93.013 92.981,92.571 93.16,92.123 93.314,91.663 93.445,91.191 93.557,90.714 
		93.644,90.224 93.707,89.729 93.743,89.226 93.756,88.716 93.743,88.208 93.707,87.708 93.644,87.214 93.557,86.73 93.445,86.253 
		93.314,85.786 93.16,85.326 92.981,84.878 92.786,84.442 92.564,84.014 92.329,83.604 92.071,83.2 91.799,82.813 91.505,82.443 
		91.193,82.083 90.867,81.739 90.524,81.412 90.167,81.102 89.793,80.809 89.406,80.531 89.006,80.275 88.592,80.038 88.168,79.821 
		87.731,79.621 87.281,79.444 86.824,79.287 86.354,79.154 85.876,79.044 85.389,78.957 84.896,78.894 84.391,78.857 83.884,78.843 
		83.374,78.857 82.871,78.894 82.376,78.957 81.886,79.044 81.409,79.154 80.938,79.287 80.479,79.444 80.027,79.621 79.587,79.821 
		79.16,80.038 78.746,80.275 78.343,80.531 77.956,80.809 77.582,81.102 77.222,81.412 76.878,81.739 76.548,82.083 76.238,82.443 
		75.944,82.813 75.667,83.2 75.41,83.604 75.17,84.014 74.953,84.442 74.753,84.878 74.576,85.326 74.419,85.786 74.286,86.253 
		74.176,86.73 74.089,87.214 74.025,87.708 73.989,88.208 73.976,88.716 73.989,89.226 74.025,89.729 74.089,90.224 74.176,90.714 
		74.286,91.191 74.419,91.663 74.576,92.123 74.753,92.571 74.953,93.013 75.17,93.44 75.41,93.854 75.667,94.256 75.944,94.644 
		76.238,95.018 76.548,95.378 76.878,95.723 77.222,96.053 77.582,96.363 77.956,96.656 78.343,96.933 78.746,97.19 79.16,97.431 
		79.587,97.648 80.027,97.848 80.479,98.023 80.938,98.181 81.409,98.314 81.886,98.424 82.376,98.513 82.871,98.573 83.374,98.611 
		83.884,98.625 83.884,98.625 	"/>
	<polygon display="inline" fill-rule="evenodd" clip-rule="evenodd" fill="#F9B41D" points="89.343,82.637 94.598,82.637 
		94.598,82.1 89.796,82.1 89.343,82.637 89.343,82.637 	"/>
	<polygon display="inline" fill-rule="evenodd" clip-rule="evenodd" fill="#F9B41D" points="88.555,83.831 94.598,83.831 
		94.598,83.294 88.873,83.294 88.555,83.831 88.555,83.831 	"/>
	<polygon display="inline" fill-rule="evenodd" clip-rule="evenodd" fill="#F9B41D" points="87.968,85.022 94.598,85.022 
		94.598,84.485 88.202,84.485 87.968,85.022 87.968,85.022 	"/>
	<polygon display="inline" fill-rule="evenodd" clip-rule="evenodd" fill="#F9B41D" points="87.564,86.217 94.598,86.217 
		94.598,85.68 87.731,85.68 87.564,86.217 87.564,86.217 	"/>
	<polygon display="inline" fill-rule="evenodd" clip-rule="evenodd" fill="#F9B41D" points="87.798,91.988 94.613,91.988 
		94.613,91.451 87.631,91.451 87.798,91.988 87.798,91.988 	"/>
	<polygon display="inline" fill-rule="evenodd" clip-rule="evenodd" fill="#F9B41D" points="88.302,93.183 94.613,93.183 
		94.613,92.646 88.052,92.646 88.302,93.183 88.302,93.183 	"/>
	<polygon display="inline" fill-rule="evenodd" clip-rule="evenodd" fill="#F9B41D" points="89.009,94.375 94.613,94.375 
		94.613,93.837 88.672,93.837 89.009,94.375 89.009,94.375 	"/>
	<polygon display="inline" fill-rule="evenodd" clip-rule="evenodd" fill="#F9B41D" points="89.983,95.569 94.613,95.569 
		94.613,95.029 89.514,95.029 89.983,95.569 89.983,95.569 	"/>
	<polygon display="inline" fill-rule="evenodd" clip-rule="evenodd" fill="#F9B41D" points="87.328,87.408 94.598,87.408 
		94.598,86.87 87.431,86.87 87.328,87.408 87.328,87.408 	"/>
	<polygon display="inline" fill-rule="evenodd" clip-rule="evenodd" fill="#F9B41D" points="91.758,90.797 94.531,90.797 
		94.531,90.26 91.858,90.26 91.758,90.797 91.758,90.797 	"/>
	<polygon display="inline" fill-rule="evenodd" clip-rule="evenodd" fill="#F9B41D" points="91.978,89.606 94.531,89.606 
		94.531,89.066 92.078,89.066 91.978,89.606 91.978,89.606 	"/>
	<polygon display="inline" fill-rule="evenodd" clip-rule="evenodd" fill="#F9B41D" points="87.144,89.066 87.864,89.066 
		87.864,89.606 87.177,89.606 87.144,89.066 87.144,89.066 	"/>
	<polygon display="inline" fill-rule="evenodd" clip-rule="evenodd" fill="#FFFFFF" points="85.799,88.416 85.753,88.412 
		85.707,88.405 85.663,88.398 85.619,88.392 85.579,88.386 85.536,88.379 85.493,88.373 85.446,88.365 85.399,88.358 85.346,88.355 
		85.286,88.352 85.222,88.349 85.152,88.349 85.076,88.352 84.988,88.358 84.892,88.365 84.826,88.376 84.762,88.386 84.705,88.405 
		84.655,88.425 84.608,88.448 84.565,88.475 84.532,88.509 84.502,88.539 84.481,88.575 84.465,88.612 84.458,88.652 84.458,88.692 
		84.468,88.735 84.481,88.779 84.508,88.822 84.542,88.865 84.608,88.929 84.688,88.979 84.782,89.023 84.882,89.059 84.988,89.093 
		85.099,89.129 85.208,89.169 85.316,89.212 85.416,89.269 85.509,89.339 85.592,89.423 85.663,89.526 85.716,89.653 85.75,89.803 
		85.763,89.983 85.75,90.193 85.727,90.35 85.686,90.487 85.633,90.613 85.566,90.724 85.489,90.82 85.402,90.903 85.309,90.977 
		85.206,91.041 85.099,91.091 84.988,91.133 84.875,91.168 84.758,91.193 84.645,91.214 84.535,91.225 84.425,91.232 84.322,91.234 
		84.178,91.234 84.044,91.232 83.927,91.232 83.817,91.227 83.717,91.225 83.628,91.219 83.548,91.211 83.471,91.201 83.4,91.193 
		83.338,91.182 83.274,91.172 83.217,91.154 83.161,91.141 83.106,91.121 83.054,91.102 82.997,91.081 83.147,90.343 83.177,90.35 
		83.214,90.361 83.261,90.375 83.317,90.388 83.377,90.401 83.444,90.415 83.518,90.43 83.597,90.443 83.681,90.457 83.768,90.47 
		83.858,90.481 83.951,90.49 84.048,90.494 84.145,90.497 84.242,90.497 84.338,90.494 84.435,90.475 84.511,90.447 84.571,90.41 
		84.619,90.364 84.652,90.316 84.679,90.263 84.695,90.21 84.708,90.16 84.715,90.064 84.685,89.98 84.629,89.913 84.545,89.856 
		84.445,89.807 84.329,89.756 84.198,89.71 84.068,89.656 83.935,89.597 83.808,89.526 83.691,89.438 83.584,89.336 83.501,89.209 
		83.441,89.059 83.41,88.879 83.414,88.666 83.431,88.536 83.455,88.412 83.487,88.299 83.527,88.192 83.581,88.091 83.641,88.005 
		83.71,87.921 83.794,87.848 83.891,87.785 83.998,87.731 84.118,87.681 84.251,87.645 84.401,87.615 84.565,87.591 84.745,87.578 
		84.942,87.574 85.065,87.574 85.179,87.578 85.282,87.581 85.376,87.584 85.459,87.591 85.536,87.598 85.603,87.605 85.663,87.611 
		85.72,87.618 85.766,87.628 85.809,87.634 85.85,87.641 85.883,87.648 85.914,87.651 85.943,87.658 85.969,87.661 85.799,88.416 
		85.799,88.416 	"/>
	<polyline display="inline" fill="none" stroke="#FFFFFF" stroke-width="0.216" stroke-miterlimit="2.6131" points="85.799,88.416 
		85.799,88.416 85.753,88.412 85.707,88.405 85.663,88.398 85.619,88.392 85.579,88.386 85.536,88.379 85.493,88.373 85.446,88.365 
		85.399,88.358 85.346,88.355 85.286,88.352 85.222,88.349 85.152,88.349 85.076,88.352 84.988,88.358 84.892,88.365 84.892,88.365 
		84.826,88.376 84.762,88.386 84.705,88.405 84.655,88.425 84.608,88.448 84.565,88.475 84.532,88.509 84.502,88.539 84.481,88.575 
		84.465,88.612 84.458,88.652 84.458,88.692 84.468,88.735 84.481,88.779 84.508,88.822 84.542,88.865 84.542,88.865 84.608,88.929 
		84.688,88.979 84.782,89.023 84.882,89.059 84.988,89.093 85.099,89.129 85.208,89.169 85.316,89.212 85.416,89.269 85.509,89.339 
		85.592,89.423 85.663,89.526 85.716,89.653 85.75,89.803 85.763,89.983 85.75,90.193 85.75,90.193 85.727,90.35 85.686,90.487 
		85.633,90.613 85.566,90.724 85.489,90.82 85.402,90.903 85.309,90.977 85.206,91.041 85.099,91.091 84.988,91.133 84.875,91.168 
		84.758,91.193 84.645,91.214 84.535,91.225 84.425,91.232 84.322,91.234 84.322,91.234 84.178,91.234 84.044,91.232 83.927,91.232 
		83.817,91.227 83.717,91.225 83.628,91.219 83.548,91.211 83.471,91.201 83.4,91.193 83.338,91.182 83.274,91.172 83.217,91.154 
		83.161,91.141 83.106,91.121 83.054,91.102 82.997,91.081 83.147,90.343 83.147,90.343 83.177,90.35 83.214,90.361 83.261,90.375 
		83.317,90.388 83.377,90.401 83.444,90.415 83.518,90.43 83.597,90.443 83.681,90.457 83.768,90.47 83.858,90.481 83.951,90.49 
		84.048,90.494 84.145,90.497 84.242,90.497 84.338,90.494 84.338,90.494 84.435,90.475 84.511,90.447 84.571,90.41 84.619,90.364 
		84.652,90.316 84.679,90.263 84.695,90.21 84.708,90.16 84.708,90.16 84.715,90.064 84.685,89.98 84.629,89.913 84.545,89.856 
		84.445,89.807 84.329,89.756 84.198,89.71 84.068,89.656 83.935,89.597 83.808,89.526 83.691,89.438 83.584,89.336 83.501,89.209 
		83.441,89.059 83.41,88.879 83.414,88.666 83.414,88.666 83.431,88.536 83.455,88.412 83.487,88.299 83.527,88.192 83.581,88.091 
		83.641,88.005 83.71,87.921 83.794,87.848 83.891,87.785 83.998,87.731 84.118,87.681 84.251,87.645 84.401,87.615 84.565,87.591 
		84.745,87.578 84.942,87.574 84.942,87.574 85.065,87.574 85.179,87.578 85.282,87.581 85.376,87.584 85.459,87.591 85.536,87.598 
		85.603,87.605 85.663,87.611 85.72,87.618 85.766,87.628 85.809,87.634 85.85,87.641 85.883,87.648 85.914,87.651 85.943,87.658 
		85.969,87.661 85.799,88.416 	"/>
	<polygon display="inline" fill-rule="evenodd" clip-rule="evenodd" fill="#FFFFFF" points="86.59,86.837 87.515,86.837 
		87.377,87.645 87.935,87.645 87.815,88.398 87.228,88.381 86.907,90.243 86.903,90.31 86.92,90.368 86.954,90.41 86.998,90.447 
		87.057,90.47 87.125,90.49 87.197,90.504 87.277,90.511 87.351,90.508 87.418,90.5 87.478,90.49 87.531,90.477 87.574,90.463 
		87.604,90.454 87.625,90.447 87.631,90.443 87.515,91.064 87.49,91.081 87.468,91.094 87.444,91.107 87.421,91.121 87.398,91.131 
		87.371,91.141 87.341,91.151 87.311,91.162 87.277,91.172 87.244,91.178 87.204,91.186 87.164,91.191 87.121,91.198 87.071,91.205 
		87.017,91.211 86.961,91.219 86.707,91.219 86.573,91.207 86.457,91.193 86.35,91.175 86.26,91.151 86.183,91.121 86.12,91.088 
		86.063,91.047 86.02,91.004 85.986,90.957 85.963,90.901 85.946,90.844 85.937,90.781 85.933,90.711 85.933,90.638 85.943,90.561 
		85.953,90.477 86.59,86.837 86.59,86.837 	"/>
	<polyline display="inline" fill="none" stroke="#FFFFFF" stroke-width="0.216" stroke-miterlimit="2.6131" points="86.59,86.837 
		87.515,86.837 87.377,87.645 87.935,87.645 87.815,88.398 87.228,88.381 86.907,90.243 86.907,90.243 86.903,90.31 86.92,90.368 
		86.954,90.41 86.998,90.447 87.057,90.47 87.125,90.49 87.197,90.504 87.277,90.511 87.277,90.511 87.351,90.508 87.418,90.5 
		87.478,90.49 87.531,90.477 87.574,90.463 87.604,90.454 87.625,90.447 87.631,90.443 87.515,91.064 87.515,91.064 87.49,91.081 
		87.468,91.094 87.444,91.107 87.421,91.121 87.398,91.131 87.371,91.141 87.341,91.151 87.311,91.162 87.277,91.172 87.244,91.178 
		87.204,91.186 87.164,91.191 87.121,91.198 87.071,91.205 87.017,91.211 86.961,91.219 86.707,91.219 86.707,91.219 86.573,91.207 
		86.457,91.193 86.35,91.175 86.26,91.151 86.183,91.121 86.12,91.088 86.063,91.047 86.02,91.004 85.986,90.957 85.963,90.901 
		85.946,90.844 85.937,90.781 85.933,90.711 85.933,90.638 85.943,90.561 85.953,90.477 86.59,86.837 	"/>
	<polygon display="inline" fill-rule="evenodd" clip-rule="evenodd" fill="#FFFFFF" points="88.672,89.656 88.662,89.713 
		88.659,89.773 88.665,89.836 88.679,89.9 88.702,89.963 88.729,90.024 88.765,90.086 88.806,90.143 88.852,90.2 88.902,90.249 
		88.955,90.301 89.016,90.341 89.076,90.376 89.143,90.408 89.209,90.43 89.276,90.443 89.362,90.457 89.446,90.468 89.532,90.477 
		89.619,90.484 89.705,90.487 89.796,90.487 89.883,90.484 89.974,90.477 90.064,90.463 90.153,90.447 90.247,90.427 90.338,90.396 
		90.43,90.361 90.527,90.321 90.621,90.267 90.717,90.21 90.583,91.031 90.53,91.058 90.477,91.084 90.424,91.104 90.373,91.125 
		90.324,91.141 90.271,91.158 90.217,91.172 90.16,91.182 90.1,91.191 90.034,91.198 89.964,91.205 89.887,91.211 89.8,91.214 
		89.71,91.214 89.606,91.219 89.496,91.219 89.333,91.214 89.166,91.198 88.999,91.175 88.832,91.133 88.668,91.084 88.512,91.021 
		88.361,90.938 88.222,90.841 88.092,90.727 87.978,90.591 87.882,90.437 87.801,90.26 87.745,90.064 87.708,89.839 87.698,89.593 
		87.715,89.319 87.728,89.212 87.748,89.089 87.774,88.959 87.812,88.819 87.861,88.676 87.921,88.532 87.999,88.386 88.092,88.245 
		88.198,88.112 88.329,87.984 88.476,87.871 88.643,87.771 88.835,87.688 89.053,87.628 89.293,87.587 89.563,87.574 89.692,87.578 
		89.829,87.591 89.967,87.615 90.104,87.648 90.237,87.698 90.366,87.758 90.487,87.838 90.597,87.932 90.697,88.045 90.78,88.178 
		90.848,88.332 90.894,88.509 90.922,88.709 90.925,88.936 90.9,89.189 90.852,89.47 90.834,89.673 88.402,89.673 88.555,89.016 
		90.016,89.016 90.023,88.933 90.021,88.853 90.014,88.779 89.999,88.712 89.977,88.649 89.953,88.592 89.92,88.542 89.887,88.495 
		89.847,88.455 89.803,88.422 89.754,88.392 89.703,88.365 89.649,88.345 89.596,88.332 89.539,88.322 89.479,88.315 89.416,88.319 
		89.356,88.328 89.299,88.342 89.242,88.362 89.186,88.388 89.136,88.419 89.086,88.455 89.042,88.495 88.999,88.542 88.959,88.592 
		88.922,88.646 88.893,88.702 88.862,88.762 88.839,88.829 88.819,88.896 88.806,88.965 88.672,89.656 88.672,89.656 	"/>
	<polyline display="inline" fill="none" stroke="#FFFFFF" stroke-width="0.216" stroke-miterlimit="2.6131" points="88.672,89.656 
		88.672,89.656 88.662,89.713 88.659,89.773 88.665,89.836 88.679,89.9 88.702,89.963 88.729,90.024 88.765,90.086 88.806,90.143 
		88.852,90.2 88.902,90.249 88.955,90.301 89.016,90.341 89.076,90.376 89.143,90.408 89.209,90.43 89.276,90.443 89.276,90.443 
		89.362,90.457 89.446,90.468 89.532,90.477 89.619,90.484 89.705,90.487 89.796,90.487 89.883,90.484 89.974,90.477 90.064,90.463 
		90.153,90.447 90.247,90.427 90.338,90.396 90.43,90.361 90.527,90.321 90.621,90.267 90.717,90.21 90.583,91.031 90.583,91.031 
		90.53,91.058 90.477,91.084 90.424,91.104 90.373,91.125 90.324,91.141 90.271,91.158 90.217,91.172 90.16,91.182 90.1,91.191 
		90.034,91.198 89.964,91.205 89.887,91.211 89.8,91.214 89.71,91.214 89.606,91.219 89.496,91.219 89.496,91.219 89.333,91.214 
		89.166,91.198 88.999,91.175 88.832,91.133 88.668,91.084 88.512,91.021 88.361,90.938 88.222,90.841 88.092,90.727 87.978,90.591 
		87.882,90.437 87.801,90.26 87.745,90.064 87.708,89.839 87.698,89.593 87.715,89.319 87.715,89.319 87.728,89.212 87.748,89.089 
		87.774,88.959 87.812,88.819 87.861,88.676 87.921,88.532 87.999,88.386 88.092,88.245 88.198,88.112 88.329,87.984 88.476,87.871 
		88.643,87.771 88.835,87.688 89.053,87.628 89.293,87.587 89.563,87.574 89.563,87.574 89.692,87.578 89.829,87.591 89.967,87.615 
		90.104,87.648 90.237,87.698 90.366,87.758 90.487,87.838 90.597,87.932 90.697,88.045 90.78,88.178 90.848,88.332 90.894,88.509 
		90.922,88.709 90.925,88.936 90.9,89.189 90.852,89.47 90.834,89.673 88.402,89.673 88.555,89.016 90.016,89.016 90.016,89.016 
		90.023,88.933 90.021,88.853 90.014,88.779 89.999,88.712 89.977,88.649 89.953,88.592 89.92,88.542 89.887,88.495 89.847,88.455 
		89.803,88.422 89.754,88.392 89.703,88.365 89.649,88.345 89.596,88.332 89.539,88.322 89.479,88.315 89.479,88.315 89.416,88.319 
		89.356,88.328 89.299,88.342 89.242,88.362 89.186,88.388 89.136,88.419 89.086,88.455 89.042,88.495 88.999,88.542 88.959,88.592 
		88.922,88.646 88.893,88.702 88.862,88.762 88.839,88.829 88.819,88.896 88.806,88.965 88.672,89.656 	"/>
	<polygon display="inline" fill-rule="evenodd" clip-rule="evenodd" fill="#FFFFFF" points="96.629,87.845 96.586,87.821 
		96.543,87.801 96.496,87.778 96.445,87.754 96.396,87.735 96.34,87.715 96.283,87.695 96.222,87.675 96.16,87.658 96.095,87.645 
		96.024,87.631 95.954,87.622 95.879,87.615 95.802,87.608 95.723,87.608 95.639,87.608 95.555,87.608 95.469,87.615 95.378,87.625 
		95.284,87.641 95.189,87.668 95.098,87.705 95.004,87.751 94.91,87.812 94.82,87.885 94.734,87.971 94.65,88.079 94.571,88.202 
		94.496,88.349 94.426,88.515 94.364,88.702 94.31,88.916 94.291,89.036 94.277,89.152 94.27,89.269 94.274,89.383 94.283,89.497 
		94.308,89.604 94.337,89.703 94.373,89.803 94.424,89.894 94.484,89.98 94.554,90.057 94.634,90.126 94.725,90.187 94.828,90.237 
		94.941,90.28 95.069,90.31 95.111,90.321 95.16,90.33 95.221,90.336 95.288,90.343 95.36,90.35 95.438,90.35 95.522,90.35 
		95.605,90.343 95.692,90.334 95.779,90.316 95.863,90.294 95.946,90.267 96.028,90.23 96.105,90.187 96.176,90.133 96.241,90.073 
		96.092,90.964 96.071,90.981 96.052,91 96.024,91.023 95.995,91.044 95.958,91.07 95.911,91.094 95.858,91.117 95.798,91.138 
		95.723,91.162 95.637,91.178 95.536,91.191 95.417,91.205 95.288,91.211 95.137,91.214 94.968,91.211 94.78,91.201 94.627,91.186 
		94.476,91.151 94.321,91.102 94.167,91.034 94.021,90.955 93.881,90.854 93.746,90.737 93.623,90.604 93.514,90.454 93.419,90.287 
		93.34,90.1 93.278,89.896 93.239,89.673 93.226,89.437 93.232,89.176 93.271,88.899 93.296,88.762 93.326,88.629 93.359,88.499 
		93.393,88.376 93.43,88.259 93.473,88.142 93.516,88.032 93.562,87.928 93.613,87.825 93.663,87.728 93.721,87.634 93.78,87.548 
		93.84,87.464 93.907,87.384 93.973,87.311 94.043,87.241 94.121,87.174 94.197,87.111 94.277,87.054 94.361,87 94.45,86.951 
		94.541,86.908 94.634,86.867 94.73,86.831 94.834,86.798 94.938,86.771 95.045,86.747 95.158,86.728 95.271,86.71 95.392,86.697 
		95.512,86.69 95.639,86.688 95.744,86.69 95.85,86.697 95.949,86.707 96.05,86.721 96.142,86.734 96.232,86.753 96.318,86.771 
		96.4,86.791 96.476,86.811 96.543,86.831 96.605,86.851 96.659,86.87 96.705,86.887 96.745,86.901 96.775,86.915 96.796,86.921 
		96.629,87.845 96.629,87.845 	"/>
	<polyline display="inline" fill="none" stroke="#FFFFFF" stroke-width="0.216" stroke-miterlimit="2.6131" points="96.629,87.845 
		96.629,87.845 96.586,87.821 96.543,87.801 96.496,87.778 96.445,87.754 96.396,87.735 96.34,87.715 96.283,87.695 96.222,87.675 
		96.16,87.658 96.095,87.645 96.024,87.631 95.954,87.622 95.879,87.615 95.802,87.608 95.723,87.608 95.639,87.608 95.639,87.608 
		95.555,87.608 95.469,87.615 95.378,87.625 95.284,87.641 95.189,87.668 95.098,87.705 95.004,87.751 94.91,87.812 94.82,87.885 
		94.734,87.971 94.65,88.079 94.571,88.202 94.496,88.349 94.426,88.515 94.364,88.702 94.31,88.916 94.31,88.916 94.291,89.036 
		94.277,89.152 94.27,89.269 94.274,89.383 94.283,89.497 94.308,89.604 94.337,89.703 94.373,89.803 94.424,89.894 94.484,89.98 
		94.554,90.057 94.634,90.126 94.725,90.187 94.828,90.237 94.941,90.28 95.069,90.31 95.069,90.31 95.111,90.321 95.16,90.33 
		95.221,90.336 95.288,90.343 95.36,90.35 95.438,90.35 95.522,90.35 95.605,90.343 95.692,90.334 95.779,90.316 95.863,90.294 
		95.946,90.267 96.028,90.23 96.105,90.187 96.176,90.133 96.241,90.073 96.092,90.964 96.092,90.964 96.071,90.981 96.052,91 
		96.024,91.023 95.995,91.044 95.958,91.07 95.911,91.094 95.858,91.117 95.798,91.138 95.723,91.162 95.637,91.178 95.536,91.191 
		95.417,91.205 95.288,91.211 95.137,91.214 94.968,91.211 94.78,91.201 94.78,91.201 94.627,91.186 94.476,91.151 94.321,91.102 
		94.167,91.034 94.021,90.955 93.881,90.854 93.746,90.737 93.623,90.604 93.514,90.454 93.419,90.287 93.34,90.1 93.278,89.896 
		93.239,89.673 93.226,89.437 93.232,89.176 93.271,88.899 93.271,88.899 93.296,88.762 93.326,88.629 93.359,88.499 93.393,88.376 
		93.43,88.259 93.473,88.142 93.516,88.032 93.562,87.928 93.613,87.825 93.663,87.728 93.721,87.634 93.78,87.548 93.84,87.464 
		93.907,87.384 93.973,87.311 94.043,87.241 94.121,87.174 94.197,87.111 94.277,87.054 94.361,87 94.45,86.951 94.541,86.908 
		94.634,86.867 94.73,86.831 94.834,86.798 94.938,86.771 95.045,86.747 95.158,86.728 95.271,86.71 95.392,86.697 95.512,86.69 
		95.639,86.688 95.639,86.688 95.744,86.69 95.85,86.697 95.949,86.707 96.05,86.721 96.142,86.734 96.232,86.753 96.318,86.771 
		96.4,86.791 96.476,86.811 96.543,86.831 96.605,86.851 96.659,86.87 96.705,86.887 96.745,86.901 96.775,86.915 96.796,86.921 
		96.629,87.845 	"/>
	<polygon display="inline" fill-rule="evenodd" clip-rule="evenodd" fill="#FFFFFF" points="104.843,91.219 103.919,91.219 
		103.986,90.848 103.986,90.814 103.933,90.881 103.876,90.941 103.819,90.995 103.76,91.041 103.699,91.084 103.638,91.121 
		103.579,91.151 103.516,91.182 103.451,91.205 103.389,91.221 103.325,91.238 103.258,91.248 103.191,91.258 103.128,91.266 
		103.062,91.268 102.996,91.268 102.822,91.254 102.661,91.219 102.515,91.162 102.38,91.084 102.262,90.988 102.153,90.875 
		102.062,90.75 101.98,90.611 101.913,90.46 101.86,90.304 101.824,90.14 101.797,89.97 101.786,89.8 101.791,89.626 
		101.809,89.457 101.837,89.286 101.888,89.089 101.947,88.903 102.018,88.732 102.101,88.572 102.188,88.422 102.288,88.289 
		102.391,88.168 102.502,88.058 102.617,87.961 102.741,87.878 102.869,87.805 102.996,87.748 103.128,87.702 103.262,87.671 
		103.396,87.651 103.533,87.645 103.629,87.648 103.722,87.658 103.809,87.675 103.89,87.698 103.965,87.725 104.032,87.754 
		104.101,87.792 104.159,87.828 104.213,87.868 104.262,87.912 104.306,87.955 104.346,87.999 104.379,88.042 104.41,88.085 
		104.437,88.125 104.456,88.165 104.456,88.165 104.689,86.854 105.598,86.854 104.843,91.219 104.843,91.219 	"/>
	<polyline display="inline" fill="none" stroke="#FFFFFF" stroke-width="0.216" stroke-miterlimit="2.6131" points="104.843,91.219 
		103.919,91.219 103.986,90.848 103.986,90.814 103.986,90.814 103.933,90.881 103.876,90.941 103.819,90.995 103.76,91.041 
		103.699,91.084 103.638,91.121 103.579,91.151 103.516,91.182 103.451,91.205 103.389,91.221 103.325,91.238 103.258,91.248 
		103.191,91.258 103.128,91.266 103.062,91.268 102.996,91.268 102.996,91.268 102.822,91.254 102.661,91.219 102.515,91.162 
		102.38,91.084 102.262,90.988 102.153,90.875 102.062,90.75 101.98,90.611 101.913,90.46 101.86,90.304 101.824,90.14 
		101.797,89.97 101.786,89.8 101.791,89.626 101.809,89.457 101.837,89.286 101.837,89.286 101.888,89.089 101.947,88.903 
		102.018,88.732 102.101,88.572 102.188,88.422 102.288,88.289 102.391,88.168 102.502,88.058 102.617,87.961 102.741,87.878 
		102.869,87.805 102.996,87.748 103.128,87.702 103.262,87.671 103.396,87.651 103.533,87.645 103.533,87.645 103.629,87.648 
		103.722,87.658 103.809,87.675 103.89,87.698 103.965,87.725 104.032,87.754 104.101,87.792 104.159,87.828 104.213,87.868 
		104.262,87.912 104.306,87.955 104.346,87.999 104.379,88.042 104.41,88.085 104.437,88.125 104.456,88.165 104.456,88.165 
		104.689,86.854 105.598,86.854 104.843,91.219 	"/>
	<polygon display="inline" fill-rule="evenodd" clip-rule="evenodd" fill="#F9B41D" points="103.332,90.41 103.425,90.403 
		103.512,90.383 103.592,90.361 103.668,90.323 103.738,90.284 103.806,90.233 103.869,90.178 103.926,90.118 103.977,90.05 
		104.022,89.977 104.064,89.9 104.103,89.82 104.135,89.736 104.162,89.65 104.187,89.559 104.203,89.47 104.219,89.376 
		104.229,89.28 104.229,89.189 104.227,89.096 104.217,89.009 104.203,88.926 104.18,88.846 104.152,88.769 104.119,88.702 
		104.078,88.639 104.035,88.586 103.986,88.539 103.93,88.499 103.869,88.472 103.806,88.455 103.735,88.448 103.646,88.455 
		103.563,88.468 103.484,88.495 103.409,88.529 103.341,88.572 103.275,88.625 103.218,88.683 103.161,88.745 103.112,88.819 
		103.064,88.896 103.021,88.976 102.985,89.063 102.952,89.152 102.926,89.243 102.898,89.339 102.879,89.437 102.861,89.584 
		102.869,89.742 102.893,89.906 102.935,90.064 103.002,90.2 103.088,90.31 103.198,90.383 103.332,90.41 103.332,90.41 	"/>
	<polygon display="inline" fill-rule="evenodd" clip-rule="evenodd" fill="#FFFFFF" points="82.844,90.477 82.71,91.219 
		81.87,91.219 81.893,91.081 81.909,90.957 81.923,90.864 81.936,90.814 81.889,90.867 81.835,90.922 81.772,90.971 81.703,91.018 
		81.622,91.064 81.539,91.104 81.453,91.145 81.362,91.178 81.266,91.207 81.169,91.232 81.072,91.25 80.972,91.266 80.875,91.271 
		80.778,91.274 80.685,91.266 80.595,91.25 80.479,91.221 80.371,91.188 80.278,91.145 80.194,91.094 80.121,91.041 80.054,90.981 
		80.001,90.917 79.954,90.85 79.914,90.781 79.881,90.707 79.854,90.633 79.834,90.561 79.821,90.484 79.811,90.408 79.804,90.334 
		79.804,90.26 79.814,90.131 79.834,90.007 79.867,89.89 79.911,89.777 79.964,89.668 80.024,89.573 80.094,89.48 80.175,89.396 
		80.257,89.319 80.351,89.25 80.448,89.187 80.548,89.133 80.655,89.086 80.766,89.049 80.879,89.02 80.996,89 81.002,89 
		81.019,88.996 81.042,88.993 81.079,88.989 81.119,88.982 81.166,88.979 81.215,88.972 81.272,88.965 81.329,88.959 81.386,88.953 
		81.445,88.949 81.499,88.942 81.552,88.939 81.602,88.936 81.649,88.933 81.686,88.933 81.763,88.933 81.842,88.936 81.916,88.939 
		81.99,88.939 82.05,88.942 82.096,88.946 82.129,88.949 82.139,88.949 82.146,88.926 82.167,88.865 82.183,88.795 82.189,88.732 
		82.176,88.659 82.146,88.592 82.106,88.532 82.053,88.482 81.99,88.439 81.919,88.409 81.839,88.388 81.753,88.381 81.659,88.379 
		81.559,88.376 81.456,88.376 81.349,88.379 81.239,88.386 81.132,88.396 81.025,88.405 80.922,88.419 80.822,88.432 80.725,88.448 
		80.638,88.465 80.558,88.482 80.484,88.502 80.424,88.522 80.378,88.545 80.341,88.565 80.579,87.761 80.652,87.731 80.725,87.705 
		80.805,87.681 80.885,87.665 80.965,87.648 81.052,87.634 81.138,87.622 81.229,87.615 81.322,87.608 81.418,87.605 81.519,87.602 
		81.622,87.602 81.729,87.602 81.839,87.602 81.956,87.605 82.073,87.608 82.167,87.615 82.267,87.631 82.37,87.655 82.477,87.684 
		82.58,87.725 82.68,87.771 82.78,87.828 82.874,87.892 82.957,87.965 83.03,88.045 83.097,88.135 83.147,88.235 83.18,88.342 
		83.2,88.455 83.2,88.583 83.18,88.716 82.844,90.477 82.844,90.477 	"/>
	<polyline display="inline" fill="none" stroke="#FFFFFF" stroke-width="0.216" stroke-miterlimit="2.6131" points="82.844,90.477 
		82.71,91.219 81.87,91.219 81.87,91.219 81.893,91.081 81.909,90.957 81.923,90.864 81.936,90.814 81.936,90.814 81.889,90.867 
		81.835,90.922 81.772,90.971 81.703,91.018 81.622,91.064 81.539,91.104 81.453,91.145 81.362,91.178 81.266,91.207 81.169,91.232 
		81.072,91.25 80.972,91.266 80.875,91.271 80.778,91.274 80.685,91.266 80.595,91.25 80.595,91.25 80.479,91.221 80.371,91.188 
		80.278,91.145 80.194,91.094 80.121,91.041 80.054,90.981 80.001,90.917 79.954,90.85 79.914,90.781 79.881,90.707 79.854,90.633 
		79.834,90.561 79.821,90.484 79.811,90.408 79.804,90.334 79.804,90.26 79.804,90.26 79.814,90.131 79.834,90.007 79.867,89.89 
		79.911,89.777 79.964,89.668 80.024,89.573 80.094,89.48 80.175,89.396 80.257,89.319 80.351,89.25 80.448,89.187 80.548,89.133 
		80.655,89.086 80.766,89.049 80.879,89.02 80.996,89 80.996,89 81.002,89 81.019,88.996 81.042,88.993 81.079,88.989 
		81.119,88.982 81.166,88.979 81.215,88.972 81.272,88.965 81.329,88.959 81.386,88.953 81.445,88.949 81.499,88.942 81.552,88.939 
		81.602,88.936 81.649,88.933 81.686,88.933 81.686,88.933 81.763,88.933 81.842,88.936 81.916,88.939 81.99,88.939 82.05,88.942 
		82.096,88.946 82.129,88.949 82.139,88.949 82.139,88.949 82.146,88.926 82.167,88.865 82.183,88.795 82.189,88.732 82.189,88.732 
		82.176,88.659 82.146,88.592 82.106,88.532 82.053,88.482 81.99,88.439 81.919,88.409 81.839,88.388 81.753,88.381 81.753,88.381 
		81.659,88.379 81.559,88.376 81.456,88.376 81.349,88.379 81.239,88.386 81.132,88.396 81.025,88.405 80.922,88.419 80.822,88.432 
		80.725,88.448 80.638,88.465 80.558,88.482 80.484,88.502 80.424,88.522 80.378,88.545 80.341,88.565 80.579,87.761 80.579,87.761 
		80.652,87.731 80.725,87.705 80.805,87.681 80.885,87.665 80.965,87.648 81.052,87.634 81.138,87.622 81.229,87.615 81.322,87.608 
		81.418,87.605 81.519,87.602 81.622,87.602 81.729,87.602 81.839,87.602 81.956,87.605 82.073,87.608 82.073,87.608 82.167,87.615 
		82.267,87.631 82.37,87.655 82.477,87.684 82.58,87.725 82.68,87.771 82.78,87.828 82.874,87.892 82.957,87.965 83.03,88.045 
		83.097,88.135 83.147,88.235 83.18,88.342 83.2,88.455 83.2,88.583 83.18,88.716 82.844,90.477 	"/>
	<polygon display="inline" fill-rule="evenodd" clip-rule="evenodd" fill="#E30520" points="82.04,89.606 82.036,89.59 
		82.022,89.573 82.002,89.563 81.97,89.556 81.933,89.55 81.889,89.546 81.839,89.546 81.789,89.546 81.736,89.55 81.679,89.556 
		81.625,89.563 81.573,89.569 81.522,89.577 81.476,89.586 81.436,89.597 81.399,89.606 81.375,89.613 81.349,89.623 81.312,89.636 
		81.275,89.653 81.232,89.673 81.188,89.697 81.142,89.72 81.099,89.747 81.052,89.78 81.008,89.814 80.969,89.853 80.932,89.894 
		80.898,89.937 80.875,89.983 80.854,90.037 80.845,90.091 80.841,90.204 80.858,90.294 80.892,90.361 80.935,90.41 80.985,90.443 
		81.042,90.463 81.095,90.475 81.148,90.477 81.248,90.475 81.339,90.463 81.425,90.45 81.502,90.43 81.569,90.408 81.632,90.376 
		81.689,90.348 81.739,90.31 81.783,90.277 81.823,90.237 81.856,90.2 81.883,90.16 81.906,90.12 81.926,90.08 81.942,90.044 
		81.953,90.007 81.979,89.91 82.002,89.8 82.022,89.693 82.04,89.606 82.04,89.606 	"/>
	<polygon display="inline" fill-rule="evenodd" clip-rule="evenodd" fill="#FFFFFF" points="75.824,91.219 74.917,91.219 
		75.674,86.837 77.252,86.837 77.402,89.437 78.493,86.837 80.141,86.837 79.367,91.219 78.459,91.219 79.033,87.945 78.997,87.945 
		77.639,91.219 76.615,91.219 76.608,91.081 76.584,90.717 76.555,90.2 76.521,89.606 76.488,89.009 76.458,88.486 76.435,88.105 
		76.428,87.945 76.418,87.945 76.398,87.945 76.378,87.945 76.378,87.945 75.824,91.219 75.824,91.219 	"/>
	<polyline display="inline" fill="none" stroke="#FFFFFF" stroke-width="0.216" stroke-miterlimit="2.6131" points="75.824,91.219 
		74.917,91.219 75.674,86.837 77.252,86.837 77.402,89.437 78.493,86.837 80.141,86.837 79.367,91.219 78.459,91.219 79.033,87.945 
		78.997,87.945 77.639,91.219 76.615,91.219 76.615,91.219 76.608,91.081 76.584,90.717 76.555,90.2 76.521,89.606 76.488,89.009 
		76.458,88.486 76.435,88.105 76.428,87.945 76.428,87.945 76.418,87.945 76.398,87.945 76.378,87.945 76.378,87.945 75.824,91.219 
			"/>
	<polygon display="inline" fill-rule="evenodd" clip-rule="evenodd" fill="#FFFFFF" points="99.402,90.477 99.265,91.219 
		98.428,91.219 98.435,91.081 98.438,90.961 98.438,90.871 98.444,90.83 98.4,90.881 98.351,90.93 98.29,90.977 98.226,91.023 
		98.155,91.067 98.073,91.107 97.99,91.146 97.906,91.182 97.818,91.207 97.723,91.234 97.632,91.25 97.536,91.266 97.439,91.271 
		97.348,91.274 97.255,91.266 97.167,91.25 97.047,91.221 96.94,91.188 96.846,91.145 96.76,91.094 96.686,91.041 96.622,90.981 
		96.569,90.917 96.522,90.85 96.482,90.781 96.452,90.707 96.426,90.633 96.409,90.561 96.396,90.484 96.387,90.408 96.379,90.334 
		96.379,90.26 96.387,90.131 96.405,90.007 96.435,89.89 96.479,89.777 96.529,89.668 96.593,89.573 96.661,89.48 96.74,89.396 
		96.826,89.319 96.916,89.25 97.013,89.187 97.115,89.133 97.221,89.086 97.33,89.049 97.439,89.02 97.552,89 97.562,89 
		97.577,88.996 97.601,88.993 97.634,88.989 97.677,88.982 97.723,88.979 97.774,88.972 97.827,88.965 97.885,88.959 97.944,88.953 
		98.001,88.949 98.058,88.942 98.11,88.939 98.157,88.936 98.203,88.933 98.241,88.933 98.32,88.933 98.4,88.936 98.478,88.939 
		98.552,88.939 98.614,88.942 98.668,88.946 98.697,88.949 98.711,88.949 98.718,88.926 98.727,88.865 98.738,88.795 98.744,88.732 
		98.731,88.659 98.704,88.592 98.661,88.532 98.61,88.482 98.552,88.439 98.481,88.409 98.407,88.388 98.328,88.381 98.233,88.379 
		98.133,88.376 98.031,88.376 97.924,88.379 97.814,88.386 97.706,88.396 97.601,88.405 97.496,88.419 97.396,88.432 97.299,88.448 
		97.213,88.465 97.133,88.482 97.059,88.502 96.999,88.522 96.954,88.545 96.916,88.565 97.15,87.761 97.223,87.731 97.299,87.705 
		97.377,87.681 97.457,87.665 97.539,87.648 97.622,87.634 97.71,87.622 97.801,87.615 97.893,87.608 97.99,87.605 98.087,87.602 
		98.189,87.602 98.294,87.602 98.4,87.602 98.514,87.605 98.627,87.608 98.723,87.615 98.821,87.631 98.924,87.655 99.032,87.684 
		99.136,87.725 99.238,87.771 99.337,87.828 99.433,87.892 99.516,87.965 99.591,88.045 99.659,88.135 99.709,88.235 99.745,88.342 
		99.77,88.455 99.77,88.583 99.752,88.716 99.402,90.477 99.402,90.477 	"/>
	<polygon display="inline" fill-rule="evenodd" clip-rule="evenodd" fill="#FFFFFF" points="99.265,91.242 99.285,91.221 
		99.421,90.481 99.382,90.475 99.246,91.214 99.265,91.193 99.265,91.242 99.28,91.238 99.285,91.221 99.265,91.242 99.265,91.242 	
		"/>
	<polygon display="inline" fill-rule="evenodd" clip-rule="evenodd" fill="#FFFFFF" points="98.407,91.219 98.428,91.242 
		99.265,91.242 99.265,91.193 98.428,91.193 98.447,91.219 98.407,91.219 98.403,91.242 98.428,91.242 98.407,91.219 98.407,91.219 
			"/>
	<polygon display="inline" fill-rule="evenodd" clip-rule="evenodd" fill="#FFFFFF" points="98.46,90.844 98.43,90.817 
		98.416,90.871 98.414,90.961 98.414,91.081 98.407,91.219 98.447,91.219 98.454,91.081 98.46,90.961 98.458,90.871 98.458,90.844 
		98.428,90.817 98.46,90.844 98.46,90.844 	"/>
	<polygon display="inline" fill-rule="evenodd" clip-rule="evenodd" fill="#FFFFFF" points="97.164,91.271 97.164,91.271 
		97.255,91.285 97.348,91.295 97.439,91.292 97.536,91.285 97.634,91.271 97.727,91.254 97.82,91.227 97.915,91.201 97.996,91.168 
		98.085,91.127 98.164,91.088 98.233,91.041 98.304,90.995 98.364,90.948 98.416,90.895 98.46,90.844 98.428,90.817 98.384,90.867 
		98.338,90.914 98.277,90.961 98.214,91.008 98.144,91.047 98.063,91.088 97.984,91.127 97.9,91.162 97.814,91.188 97.72,91.214 
		97.627,91.232 97.536,91.244 97.439,91.25 97.348,91.254 97.255,91.244 97.169,91.232 97.169,91.232 97.164,91.271 97.164,91.271 	
		"/>
	<polygon display="inline" fill-rule="evenodd" clip-rule="evenodd" fill="#FFFFFF" points="96.356,90.26 96.356,90.26 
		96.359,90.334 96.364,90.408 96.375,90.487 96.389,90.564 96.405,90.638 96.433,90.714 96.463,90.791 96.505,90.861 96.553,90.93 
		96.605,90.995 96.672,91.058 96.749,91.111 96.835,91.164 96.934,91.207 97.042,91.242 97.164,91.271 97.169,91.232 97.051,91.201 
		96.944,91.168 96.856,91.125 96.77,91.078 96.699,91.023 96.64,90.969 96.586,90.903 96.538,90.841 96.503,90.771 96.473,90.7 
		96.445,90.631 96.429,90.558 96.416,90.481 96.405,90.408 96.4,90.334 96.402,90.26 96.402,90.26 96.356,90.26 96.356,90.26 	"/>
	<polygon display="inline" fill-rule="evenodd" clip-rule="evenodd" fill="#FFFFFF" points="97.552,88.979 97.552,88.979 97.436,89 
		97.323,89.029 97.213,89.066 97.107,89.113 97.002,89.166 96.902,89.233 96.813,89.303 96.726,89.383 96.646,89.467 96.575,89.559 
		96.51,89.66 96.459,89.771 96.416,89.883 96.387,90.003 96.364,90.131 96.356,90.26 96.402,90.26 96.405,90.131 96.426,90.01 
		96.457,89.896 96.499,89.784 96.549,89.68 96.608,89.586 96.679,89.492 96.754,89.41 96.84,89.336 96.929,89.266 97.024,89.206 
		97.126,89.152 97.227,89.106 97.337,89.069 97.443,89.039 97.552,89.02 97.552,89.02 97.552,88.979 97.552,88.979 	"/>
	<polygon display="inline" fill-rule="evenodd" clip-rule="evenodd" fill="#FFFFFF" points="98.241,88.91 98.241,88.91 
		98.203,88.91 98.157,88.916 98.11,88.919 98.058,88.922 98.001,88.929 97.944,88.933 97.885,88.939 97.827,88.946 97.774,88.953 
		97.723,88.959 97.677,88.962 97.634,88.969 97.601,88.972 97.574,88.976 97.562,88.979 97.552,88.979 97.552,89.02 97.562,89.02 
		97.58,89.016 97.601,89.013 97.634,89.009 97.677,89.003 97.723,89 97.774,88.993 97.827,88.986 97.885,88.979 97.944,88.972 
		98.001,88.969 98.058,88.962 98.11,88.959 98.157,88.956 98.203,88.956 98.241,88.956 98.241,88.956 98.241,88.91 98.241,88.91 	
		"/>
	<polygon display="inline" fill-rule="evenodd" clip-rule="evenodd" fill="#FFFFFF" points="98.691,88.946 98.711,88.929 
		98.697,88.929 98.668,88.926 98.614,88.922 98.552,88.916 98.478,88.916 98.4,88.916 98.32,88.91 98.241,88.91 98.241,88.956 
		98.32,88.956 98.4,88.956 98.478,88.962 98.552,88.962 98.614,88.962 98.668,88.965 98.697,88.969 98.711,88.969 98.731,88.953 
		98.711,88.969 98.727,88.972 98.731,88.953 98.691,88.946 98.691,88.946 	"/>
	<polygon display="inline" fill-rule="evenodd" clip-rule="evenodd" fill="#FFFFFF" points="98.725,88.732 98.723,88.732 
		98.718,88.795 98.709,88.862 98.697,88.922 98.691,88.946 98.731,88.953 98.738,88.929 98.749,88.869 98.757,88.795 98.768,88.732 
		98.765,88.732 98.725,88.732 98.725,88.732 	"/>
	<polygon display="inline" fill-rule="evenodd" clip-rule="evenodd" fill="#FFFFFF" points="98.328,88.402 98.328,88.405 
		98.403,88.409 98.474,88.429 98.541,88.458 98.598,88.499 98.643,88.545 98.685,88.603 98.711,88.662 98.725,88.732 98.765,88.732 
		98.751,88.655 98.725,88.583 98.679,88.519 98.625,88.465 98.562,88.419 98.486,88.388 98.412,88.369 98.328,88.358 98.328,88.362 
		98.328,88.402 98.328,88.402 	"/>
	<polygon display="inline" fill-rule="evenodd" clip-rule="evenodd" fill="#FFFFFF" points="96.896,88.563 96.929,88.583 
		96.963,88.565 97.006,88.542 97.064,88.522 97.137,88.502 97.216,88.486 97.303,88.468 97.4,88.452 97.496,88.439 97.601,88.425 
		97.706,88.416 97.814,88.405 97.924,88.398 98.031,88.398 98.133,88.398 98.233,88.398 98.328,88.402 98.328,88.362 98.233,88.358 
		98.133,88.352 98.031,88.352 97.924,88.358 97.814,88.365 97.706,88.376 97.601,88.386 97.496,88.398 97.394,88.412 97.297,88.429 
		97.209,88.445 97.129,88.462 97.057,88.482 96.993,88.502 96.942,88.525 96.902,88.549 96.937,88.568 96.896,88.563 96.896,88.563 
			"/>
	<polygon display="inline" fill-rule="evenodd" clip-rule="evenodd" fill="#FFFFFF" points="97.143,87.742 97.129,87.758 
		96.896,88.563 96.937,88.568 97.169,87.765 97.156,87.782 97.143,87.742 97.133,87.745 97.129,87.758 97.143,87.742 97.143,87.742 
			"/>
	<polygon display="inline" fill-rule="evenodd" clip-rule="evenodd" fill="#FFFFFF" points="98.627,87.587 98.627,87.587 
		98.514,87.581 98.4,87.578 98.294,87.578 98.189,87.578 98.087,87.578 97.99,87.584 97.893,87.587 97.801,87.595 97.71,87.602 
		97.62,87.615 97.536,87.628 97.453,87.645 97.373,87.661 97.293,87.684 97.216,87.711 97.143,87.742 97.156,87.782 97.23,87.751 
		97.307,87.725 97.38,87.702 97.461,87.684 97.543,87.668 97.627,87.655 97.71,87.641 97.801,87.634 97.893,87.628 97.99,87.625 
		98.087,87.625 98.189,87.625 98.294,87.625 98.4,87.625 98.514,87.628 98.627,87.628 98.627,87.628 98.627,87.587 98.627,87.587 	
		"/>
	<polygon display="inline" fill-rule="evenodd" clip-rule="evenodd" fill="#FFFFFF" points="99.771,88.719 99.771,88.719 
		99.788,88.583 99.788,88.455 99.765,88.338 99.729,88.229 99.675,88.125 99.608,88.032 99.529,87.948 99.445,87.875 99.349,87.812 
		99.248,87.751 99.142,87.705 99.038,87.665 98.927,87.634 98.825,87.611 98.723,87.595 98.627,87.587 98.627,87.628 98.723,87.634 
		98.817,87.651 98.922,87.675 99.023,87.705 99.129,87.745 99.228,87.792 99.329,87.845 99.419,87.909 99.502,87.981 99.575,88.058 
		99.643,88.146 99.688,88.242 99.726,88.345 99.748,88.455 99.748,88.583 99.731,88.712 99.731,88.712 99.771,88.719 99.771,88.719 
			"/>
	<polygon display="inline" fill-rule="evenodd" clip-rule="evenodd" fill="#FFFFFF" points="99.421,90.481 99.421,90.481 
		99.771,88.719 99.731,88.712 99.382,90.475 99.382,90.475 99.421,90.481 99.421,90.481 	"/>
	<polygon display="inline" fill-rule="evenodd" clip-rule="evenodd" fill="#F9B41D" points="98.595,89.606 98.587,89.586 
		98.575,89.569 98.552,89.559 98.518,89.55 98.481,89.546 98.438,89.543 98.388,89.543 98.338,89.546 98.284,89.553 98.229,89.559 
		98.176,89.566 98.128,89.573 98.077,89.584 98.033,89.59 97.99,89.6 97.957,89.606 97.933,89.611 97.906,89.62 97.874,89.629 
		97.836,89.643 97.793,89.662 97.754,89.683 97.706,89.707 97.664,89.736 97.62,89.767 97.577,89.803 97.539,89.839 97.504,89.883 
		97.474,89.93 97.45,89.98 97.43,90.033 97.42,90.091 97.416,90.204 97.434,90.294 97.461,90.361 97.5,90.41 97.55,90.443 
		97.606,90.463 97.664,90.475 97.72,90.477 97.82,90.475 97.915,90.463 98.001,90.447 98.077,90.423 98.15,90.396 98.214,90.368 
		98.273,90.334 98.328,90.294 98.374,90.256 98.414,90.213 98.452,90.173 98.481,90.131 98.505,90.091 98.521,90.05 98.534,90.01 
		98.544,89.974 98.557,89.881 98.575,89.784 98.587,89.69 98.595,89.606 98.595,89.606 	"/>
	<polygon display="inline" fill-rule="evenodd" clip-rule="evenodd" fill="#FFFFFF" points="105.466,90.761 105.475,90.685 
		105.501,90.594 105.547,90.514 105.604,90.443 105.675,90.388 105.755,90.348 105.842,90.321 105.934,90.31 106.027,90.321 
		106.114,90.348 106.194,90.388 106.265,90.443 106.322,90.514 106.368,90.594 106.395,90.685 106.4,90.761 106.301,90.761 
		106.298,90.7 106.277,90.627 106.244,90.561 106.2,90.504 106.147,90.457 106.084,90.423 106.012,90.401 105.934,90.395 
		105.857,90.401 105.785,90.423 105.721,90.457 105.668,90.504 105.624,90.561 105.591,90.627 105.571,90.7 105.563,90.761 
		105.466,90.761 105.466,90.761 	"/>
	<polygon display="inline" fill-rule="evenodd" clip-rule="evenodd" fill="#FFFFFF" points="105.768,90.761 105.768,90.561 
		105.951,90.561 105.99,90.564 106.027,90.57 106.055,90.581 106.077,90.594 106.096,90.613 106.107,90.633 106.114,90.656 
		106.116,90.68 106.114,90.711 106.107,90.734 106.098,90.754 106.091,90.761 105.951,90.761 105.965,90.758 105.987,90.754 
		106.007,90.747 106.025,90.74 106.038,90.73 106.044,90.721 106.051,90.705 106.051,90.68 106.046,90.664 106.042,90.651 
		106.03,90.645 106.021,90.638 106.004,90.633 105.987,90.631 105.972,90.631 105.951,90.631 105.851,90.631 105.851,90.761 
		105.768,90.761 105.768,90.761 	"/>
	<polygon display="inline" fill-rule="evenodd" clip-rule="evenodd" fill="#FFFFFF" points="105.466,90.761 105.464,90.781 
		105.475,90.878 105.501,90.969 105.547,91.047 105.604,91.114 105.675,91.172 105.755,91.214 105.842,91.242 105.934,91.25 
		106.027,91.242 106.114,91.214 106.194,91.172 106.265,91.114 106.322,91.047 106.368,90.969 106.395,90.878 106.404,90.781 
		106.4,90.761 106.301,90.761 106.304,90.781 106.298,90.861 106.277,90.935 106.244,90.997 106.2,91.055 106.147,91.102 
		106.084,91.138 106.012,91.162 105.934,91.168 105.857,91.162 105.785,91.138 105.721,91.102 105.668,91.055 105.624,90.997 
		105.591,90.935 105.571,90.861 105.563,90.781 105.563,90.761 105.466,90.761 105.466,90.761 	"/>
	<polygon display="inline" fill-rule="evenodd" clip-rule="evenodd" fill="#FFFFFF" points="105.768,90.761 105.768,90.964 
		105.851,90.964 105.851,90.797 105.934,90.797 106.034,90.964 106.101,90.964 106,90.797 106.025,90.797 106.046,90.791 
		106.068,90.784 106.084,90.771 106.091,90.761 105.951,90.761 105.934,90.766 105.851,90.766 105.851,90.761 105.768,90.761 
		105.768,90.761 	"/>
	<path display="inline" fill="none" stroke="#FFFFFF" stroke-width="0.216" stroke-miterlimit="2.6131" d="M105.464,90.781
		L105.464,90.781l0.011-0.097l0.026-0.091l0.046-0.08l0.058-0.07l0.07-0.056l0.08-0.04l0.087-0.027l0.092-0.011l0,0l0.094,0.011
		l0.087,0.027l0.08,0.04l0.07,0.056l0.058,0.07l0.046,0.08l0.026,0.091l0.01,0.097l0,0l-0.01,0.097l-0.026,0.091l-0.046,0.078
		l-0.058,0.067l-0.07,0.058l-0.08,0.042l-0.087,0.028l-0.094,0.008l0,0l-0.092-0.008l-0.087-0.028l-0.08-0.042l-0.07-0.058
		l-0.058-0.067l-0.046-0.078l-0.026-0.091L105.464,90.781 M105.851,90.964h-0.083v-0.403h0.184l0,0l0.039,0.004l0.037,0.006
		l0.027,0.011l0.022,0.013l0.019,0.02l0.012,0.02l0.007,0.023l0.002,0.023l0,0l-0.002,0.031l-0.007,0.023l-0.01,0.02l-0.014,0.018
		l-0.016,0.013l-0.022,0.007l-0.021,0.006H106l0.101,0.167h-0.066l-0.101-0.167h-0.083V90.964 M105.934,90.766L105.934,90.766
		l0.031-0.008l0.022-0.004l0.02-0.007l0.019-0.007l0.013-0.01l0.006-0.01l0.007-0.016V90.68l0,0l-0.005-0.016l-0.004-0.013
		l-0.012-0.007l-0.01-0.007l-0.017-0.005l-0.017-0.002h-0.016h-0.021h-0.101v0.135H105.934 M105.934,91.168L105.934,91.168
		l0.078-0.006l0.072-0.024l0.063-0.036l0.053-0.047l0.044-0.058l0.033-0.063l0.021-0.073l0.006-0.08l0,0l-0.006-0.081l-0.021-0.073
		l-0.033-0.066l-0.044-0.057l-0.053-0.047l-0.063-0.034l-0.072-0.022l-0.078-0.006l0,0l-0.076,0.006l-0.072,0.022l-0.064,0.034
		l-0.053,0.047l-0.044,0.057l-0.033,0.066l-0.02,0.073l-0.008,0.081l0,0l0.008,0.08l0.02,0.073l0.033,0.063l0.044,0.058l0.053,0.047
		l0.064,0.036l0.072,0.024L105.934,91.168"/>
	<polygon display="inline" fill-rule="evenodd" clip-rule="evenodd" fill="#FFFFFF" points="99.652,91.219 100.592,91.219 
		100.592,91.219 100.931,89.319 100.944,89.246 100.963,89.173 100.983,89.099 101.01,89.026 101.043,88.953 101.085,88.883 
		101.127,88.816 101.18,88.752 101.241,88.696 101.307,88.642 101.384,88.592 101.47,88.552 101.567,88.519 101.673,88.493 
		101.791,88.472 101.921,88.465 101.967,88.465 101.994,88.465 102.005,88.465 102.005,88.465 102.153,87.608 102.062,87.615 
		101.97,87.625 101.888,87.641 101.809,87.665 101.733,87.691 101.665,87.725 101.597,87.761 101.533,87.801 101.474,87.848 
		101.416,87.895 101.363,87.948 101.312,88.002 101.26,88.058 101.21,88.122 101.159,88.182 101.113,88.249 101.214,87.645 
		100.275,87.645 99.652,91.219 99.652,91.219 99.652,91.219 	"/>
	<polyline display="inline" fill="none" stroke="#FFFFFF" stroke-width="0.216" stroke-miterlimit="2.6131" points="99.652,91.219 
		100.592,91.219 100.592,91.219 100.931,89.319 100.931,89.319 100.944,89.246 100.963,89.173 100.983,89.099 101.01,89.026 
		101.043,88.953 101.085,88.883 101.127,88.816 101.18,88.752 101.241,88.696 101.307,88.642 101.384,88.592 101.47,88.552 
		101.567,88.519 101.673,88.493 101.791,88.472 101.921,88.465 101.921,88.465 101.967,88.465 101.994,88.465 102.005,88.465 
		102.005,88.465 102.153,87.608 102.153,87.608 102.062,87.615 101.97,87.625 101.888,87.641 101.809,87.665 101.733,87.691 
		101.665,87.725 101.597,87.761 101.533,87.801 101.474,87.848 101.416,87.895 101.363,87.948 101.312,88.002 101.26,88.058 
		101.21,88.122 101.159,88.182 101.113,88.249 101.214,87.645 100.275,87.645 99.652,91.219 99.652,91.219 	"/>
	<polygon display="inline" fill-rule="evenodd" clip-rule="evenodd" fill="#FFFFFF" points="90.817,91.219 91.758,91.219 
		91.774,91.219 92.096,89.319 92.108,89.246 92.125,89.176 92.142,89.106 92.165,89.039 92.192,88.972 92.226,88.91 92.266,88.849 
		92.313,88.793 92.365,88.742 92.426,88.692 92.499,88.652 92.578,88.616 92.672,88.586 92.777,88.559 92.89,88.542 93.02,88.532 
		93.029,88.532 93.043,88.536 93.06,88.539 93.076,88.539 93.093,88.542 93.106,88.545 93.116,88.549 93.12,88.549 93.122,88.536 
		93.133,88.495 93.146,88.436 93.162,88.362 93.187,88.275 93.209,88.182 93.239,88.089 93.271,87.995 93.296,87.932 93.33,87.868 
		93.362,87.805 93.396,87.748 93.427,87.698 93.449,87.658 93.466,87.634 93.473,87.625 93.471,87.625 93.457,87.622 93.44,87.618 
		93.417,87.615 93.393,87.615 93.366,87.611 93.343,87.608 93.319,87.608 93.217,87.615 93.122,87.625 93.036,87.641 92.956,87.661 
		92.879,87.688 92.81,87.722 92.746,87.754 92.685,87.795 92.629,87.838 92.575,87.888 92.525,87.938 92.476,87.995 92.426,88.051 
		92.379,88.115 92.329,88.182 92.278,88.249 92.398,87.645 91.441,87.645 90.817,91.219 90.817,91.219 90.817,91.219 	"/>
	<polyline display="inline" fill="none" stroke="#FFFFFF" stroke-width="0.216" stroke-miterlimit="2.6131" points="90.817,91.219 
		91.758,91.219 91.774,91.219 92.096,89.319 92.096,89.319 92.108,89.246 92.125,89.176 92.142,89.106 92.165,89.039 92.192,88.972 
		92.226,88.91 92.266,88.849 92.313,88.793 92.365,88.742 92.426,88.692 92.499,88.652 92.578,88.616 92.672,88.586 92.777,88.559 
		92.89,88.542 93.02,88.532 93.02,88.532 93.029,88.532 93.043,88.536 93.06,88.539 93.076,88.539 93.093,88.542 93.106,88.545 
		93.116,88.549 93.12,88.549 93.12,88.549 93.122,88.536 93.133,88.495 93.146,88.436 93.162,88.362 93.187,88.275 93.209,88.182 
		93.239,88.089 93.271,87.995 93.271,87.995 93.296,87.932 93.33,87.868 93.362,87.805 93.396,87.748 93.427,87.698 93.449,87.658 
		93.466,87.634 93.473,87.625 93.473,87.625 93.471,87.625 93.457,87.622 93.44,87.618 93.417,87.615 93.393,87.615 93.366,87.611 
		93.343,87.608 93.319,87.608 93.319,87.608 93.217,87.615 93.122,87.625 93.036,87.641 92.956,87.661 92.879,87.688 92.81,87.722 
		92.746,87.754 92.685,87.795 92.629,87.838 92.575,87.888 92.525,87.938 92.476,87.995 92.426,88.051 92.379,88.115 92.329,88.182 
		92.278,88.249 92.398,87.645 91.441,87.645 90.817,91.219 90.817,91.219 	"/>
	<polygon display="inline" fill-rule="evenodd" clip-rule="evenodd" fill="#F9B41D" points="105.475,94.728 105.475,94.714 
		105.501,94.627 105.547,94.551 105.604,94.482 105.675,94.431 105.755,94.391 105.842,94.367 105.934,94.356 106.027,94.367 
		106.114,94.391 106.194,94.431 106.265,94.482 106.322,94.551 106.368,94.627 106.395,94.714 106.395,94.728 106.298,94.728 
		106.277,94.657 106.244,94.595 106.2,94.537 106.147,94.492 106.084,94.454 106.012,94.431 105.934,94.424 105.857,94.431 
		105.785,94.454 105.721,94.492 105.668,94.537 105.624,94.595 105.591,94.657 105.571,94.728 105.475,94.728 105.475,94.728 	"/>
	<polygon display="inline" fill-rule="evenodd" clip-rule="evenodd" fill="#F9B41D" points="105.768,94.728 105.768,94.61 
		105.951,94.61 105.99,94.61 106.027,94.618 106.055,94.624 106.077,94.637 106.096,94.653 106.107,94.675 106.114,94.697 
		106.116,94.728 106.051,94.728 106.051,94.711 106.046,94.694 106.042,94.681 106.03,94.675 106.021,94.667 106.004,94.664 
		105.987,94.661 105.972,94.661 105.951,94.661 105.851,94.661 105.851,94.728 105.768,94.728 105.768,94.728 	"/>
	<polygon display="inline" fill-rule="evenodd" clip-rule="evenodd" fill="#F9B41D" points="105.464,94.801 105.475,94.728 
		105.571,94.728 105.571,94.731 105.563,94.801 105.464,94.801 105.464,94.801 	"/>
	<polygon display="inline" fill-rule="evenodd" clip-rule="evenodd" fill="#F9B41D" points="105.768,94.801 105.768,94.728 
		105.851,94.728 105.851,94.794 105.934,94.794 105.965,94.789 105.987,94.784 106.007,94.777 106.025,94.771 106.038,94.762 
		106.044,94.751 106.051,94.734 106.051,94.728 106.116,94.728 106.116,94.728 106.114,94.751 106.107,94.771 106.098,94.789 
		106.084,94.801 105.768,94.801 105.768,94.801 	"/>
	<polygon display="inline" fill-rule="evenodd" clip-rule="evenodd" fill="#F9B41D" points="106.304,94.801 106.298,94.731 
		106.298,94.728 106.395,94.728 106.404,94.801 106.304,94.801 106.304,94.801 	"/>
	<polygon display="inline" fill-rule="evenodd" clip-rule="evenodd" fill="#F9B41D" points="105.464,94.801 105.464,94.81 
		105.475,94.907 105.501,94.998 105.547,95.077 105.604,95.147 105.675,95.204 105.755,95.244 105.842,95.272 105.934,95.281 
		106.027,95.272 106.114,95.244 106.194,95.204 106.265,95.147 106.322,95.077 106.368,94.998 106.395,94.907 106.404,94.81 
		106.404,94.801 106.304,94.801 106.304,94.81 106.298,94.892 106.277,94.964 106.244,95.029 106.2,95.086 106.147,95.132 
		106.084,95.168 106.012,95.19 105.934,95.198 105.857,95.19 105.785,95.168 105.721,95.132 105.668,95.086 105.624,95.029 
		105.591,94.964 105.571,94.892 105.563,94.81 105.563,94.801 105.464,94.801 105.464,94.801 	"/>
	<polygon display="inline" fill-rule="evenodd" clip-rule="evenodd" fill="#F9B41D" points="105.768,94.801 105.768,94.994 
		105.851,94.994 105.851,94.828 105.934,94.828 106.034,94.994 106.101,94.994 106,94.828 106.025,94.828 106.046,94.821 
		106.068,94.814 106.084,94.801 106.084,94.801 105.768,94.801 105.768,94.801 	"/>
</g>
<g display="none">
	<path display="inline" fill="#0053F9" d="M72.979,95.725c0.447-0.072,1.031-0.111,1.646-0.111c1.023,0,1.688,0.184,2.207,0.574
		c0.561,0.416,0.912,1.08,0.912,2.031c0,1.031-0.375,1.742-0.896,2.184c-0.567,0.471-1.432,0.695-2.486,0.695
		c-0.632,0-1.08-0.041-1.383-0.08V95.725z M74.201,100.121c0.104,0.025,0.272,0.025,0.424,0.025c1.104,0.008,1.823-0.6,1.823-1.887
		c0.009-1.119-0.647-1.711-1.694-1.711c-0.272,0-0.449,0.021-0.553,0.047V100.121z"/>
	<path display="inline" fill="#0053F9" d="M80.401,99.475c0.04,0.504,0.535,0.744,1.104,0.744c0.416,0,0.75-0.059,1.078-0.16
		l0.16,0.822c-0.4,0.16-0.888,0.24-1.414,0.24c-1.328,0-2.088-0.768-2.088-1.99c0-0.992,0.616-2.088,1.975-2.088
		c1.265,0,1.744,0.982,1.744,1.951c0,0.207-0.024,0.393-0.041,0.479h-2.519V99.475z M81.832,98.643c0-0.295-0.127-0.791-0.688-0.791
		c-0.512,0-0.721,0.463-0.751,0.791H81.832z"/>
	<path display="inline" fill="#0053F9" d="M84.649,95.365h1.216v5.676h-1.216V95.365z"/>
	<path display="inline" fill="#0053F9" d="M89.066,96.045c0,0.336-0.256,0.607-0.656,0.607c-0.383,0-0.639-0.271-0.631-0.607
		c-0.008-0.352,0.248-0.615,0.641-0.615C88.812,95.43,89.059,95.693,89.066,96.045z M87.811,101.041v-3.908h1.216v3.908H87.811z"/>
	<path display="inline" fill="#0053F9" d="M91.865,97.133l0.527,1.814c0.096,0.328,0.168,0.639,0.225,0.951h0.023
		c0.064-0.32,0.129-0.615,0.217-0.951l0.504-1.814h1.279l-1.455,3.908h-1.217l-1.422-3.908H91.865z"/>
	<path display="inline" fill="#0053F9" d="M96.977,99.475c0.041,0.504,0.537,0.744,1.104,0.744c0.416,0,0.752-0.059,1.08-0.16
		l0.16,0.822c-0.4,0.16-0.887,0.24-1.416,0.24c-1.326,0-2.086-0.768-2.086-1.99c0-0.992,0.615-2.088,1.975-2.088
		c1.265,0,1.742,0.982,1.742,1.951c0,0.207-0.023,0.393-0.039,0.479h-2.52V99.475z M98.408,98.643c0-0.295-0.127-0.791-0.688-0.791
		c-0.512,0-0.719,0.463-0.752,0.791H98.408z"/>
	<path display="inline" fill="#0053F9" d="M101.225,98.42c0-0.576-0.016-0.951-0.031-1.287h1.047l0.041,0.719h0.031
		c0.201-0.566,0.68-0.809,1.057-0.809c0.111,0,0.168,0,0.256,0.018v1.143c-0.088-0.016-0.192-0.029-0.328-0.029
		c-0.446,0-0.752,0.238-0.832,0.613c-0.016,0.08-0.022,0.178-0.022,0.271v1.982h-1.217L101.225,98.42L101.225,98.42z"/>
	<path display="inline" fill="#0053F9" d="M106.281,97.133l0.584,1.918c0.064,0.232,0.145,0.52,0.191,0.729h0.025
		c0.055-0.209,0.118-0.504,0.176-0.729l0.479-1.918h1.305l-0.912,2.574c-0.561,1.551-0.936,2.176-1.375,2.566
		c-0.424,0.367-0.873,0.496-1.176,0.535l-0.256-1.031c0.152-0.023,0.344-0.096,0.527-0.209c0.184-0.096,0.385-0.287,0.504-0.486
		c0.039-0.057,0.064-0.121,0.064-0.176c0-0.041-0.009-0.104-0.058-0.201l-1.433-3.572H106.281z"/>
</g>
<g>
	<polygon fill="#E7553F" points="109.342,90.813 100.567,90.813 100.567,81.937 106.5,81.937 109.342,86.082 	"/>
	<rect x="70.153" y="89.785" fill="#E7553F" width="30.413" height="1.027"/>
	<path fill="#F2F2F2" d="M102.439,82.894v3.798h0.798c1.019,0,1.802,0.364,2.451,1.013v0.002h2.519v-1.461l-2.328-3.352H102.439z"/>
	<circle fill="#404040" cx="103.338" cy="90.812" r="2.169"/>
	<circle fill="#F2F2F2" cx="103.338" cy="90.813" r="1.176"/>
	<path fill="#FCCA5C" d="M79.894,74.833h-1.569h-7.629c-0.665,0-1.203,0.373-1.203,0.832c0,0.458,0.539,0.83,1.203,0.83h2.196
		c0.663,0,1.202,0.373,1.202,0.83c0,0.459-0.539,0.83-1.202,0.83h-0.104c-0.662,0-1.201,0.373-1.201,0.832s0.539,0.831,1.201,0.831
		h2.197c0.666,0,1.201,0.373,1.201,0.831s-0.536,0.83-1.201,0.83h-0.104c-0.664,0-1.201,0.373-1.201,0.832
		c0,0.457,0.537,0.83,1.201,0.83h0.104c0.666,0,1.201,0.371,1.201,0.83c0,0.457-0.536,0.83-1.201,0.83H71.74
		c-0.662,0-1.199,0.373-1.199,0.832s0.537,0.83,1.199,0.83h2.198c0.665,0,1.203,0.373,1.203,0.83c0,0.461-0.538,0.829-1.203,0.829
		h-0.104c-0.664,0-1.201,0.374-1.201,0.832c0,0.459,0.537,0.83,1.201,0.83h4.49h2.616h19.626V74.833H79.894z"/>
	<rect x="70.153" y="73.192" fill="none" width="31.765" height="17.107"/>
	<circle fill="#404040" cx="74.313" cy="90.812" r="2.169"/>
	<circle fill="#F2F2F2" cx="74.313" cy="90.813" r="1.176"/>
</g>
<g>
	<path fill="#231F20" d="M81.04,81.798c0-0.308,0.093-0.604,0.278-0.887c0.186-0.284,0.474-0.567,0.862-0.85
		c-0.298-0.28-0.553-0.613-0.764-1c-0.211-0.386-0.346-0.77-0.404-1.15c0.271-0.226,0.585-0.404,0.943-0.537
		c0.357-0.132,0.699-0.198,1.025-0.198c0.662,0,1.248,0.14,1.756,0.42c0,0.483-0.098,0.93-0.293,1.34
		c-0.196,0.41-0.481,0.769-0.855,1.077c0.188,0.055,0.399,0.082,0.637,0.082h0.807c0.022,0,0.033,0.009,0.033,0.027v0.779
		c0,0.023-0.011,0.034-0.033,0.034h-0.889c-0.188,0-0.396-0.035-0.629-0.106s-0.453-0.167-0.66-0.287
		c-0.28,0.209-0.482,0.41-0.606,0.6c-0.124,0.19-0.187,0.39-0.187,0.6c0,0.194,0.066,0.346,0.2,0.456
		c0.133,0.111,0.328,0.166,0.586,0.166c0.313,0,0.655-0.049,1.028-0.147l0.12,0.762c-0.253,0.086-0.486,0.148-0.7,0.185
		c-0.215,0.037-0.435,0.055-0.66,0.055c-0.479,0-0.864-0.13-1.157-0.392C81.186,82.568,81.04,82.225,81.04,81.798z M82.055,78.285
		c0.148,0.503,0.424,0.942,0.827,1.316c0.244-0.175,0.442-0.391,0.597-0.648c0.153-0.256,0.242-0.525,0.265-0.808
		c-0.118-0.048-0.238-0.081-0.36-0.099s-0.267-0.027-0.433-0.027c-0.15,0-0.313,0.027-0.488,0.082
		C82.286,78.155,82.15,78.216,82.055,78.285z"/>
	<path fill="#231F20" d="M85.961,80.096c-0.225-0.267-0.338-0.574-0.338-0.923c0-0.522,0.18-0.936,0.54-1.242
		c0.36-0.307,0.861-0.46,1.504-0.46h1.247v3.466H84.96c-0.022,0-0.034-0.011-0.034-0.034v-0.779c0-0.018,0.012-0.027,0.034-0.027
		H85.961z M87.872,80.096v-1.784h-0.185c-0.314,0-0.559,0.078-0.731,0.234c-0.173,0.156-0.26,0.383-0.26,0.682
		c0,0.278,0.084,0.492,0.251,0.643c0.168,0.15,0.41,0.226,0.727,0.226H87.872z M87.592,76.87c-0.146,0-0.261-0.045-0.346-0.135
		c-0.084-0.09-0.126-0.213-0.126-0.368c0-0.157,0.042-0.281,0.125-0.371c0.083-0.09,0.198-0.135,0.347-0.135
		c0.142,0,0.254,0.044,0.337,0.133s0.124,0.213,0.124,0.373c0,0.155-0.042,0.277-0.128,0.368
		C87.84,76.825,87.729,76.87,87.592,76.87z"/>
	<path fill="#231F20" d="M89.823,80.096h2.338c-0.096-0.431-0.213-0.779-0.351-1.044c-0.138-0.266-0.313-0.495-0.526-0.688
		c-0.213-0.192-0.473-0.353-0.781-0.48l0.394-0.981c0.624,0.25,1.125,0.638,1.502,1.16c0.377,0.523,0.65,1.209,0.819,2.06v0.813
		h-3.395V80.096z"/>
	<path fill="#231F20" d="M82.682,88.496h2.338c-0.096-0.431-0.213-0.779-0.351-1.044c-0.138-0.266-0.313-0.495-0.526-0.688
		c-0.213-0.192-0.473-0.353-0.781-0.48l0.394-0.981c0.615,0.246,1.11,0.626,1.487,1.142c0.375,0.515,0.651,1.199,0.826,2.051h0.92
		c0.022,0,0.034,0.009,0.034,0.027v0.779c0,0.023-0.012,0.034-0.034,0.034h-4.307V88.496z"/>
	<path fill="#231F20" d="M89.743,88.496c0.022,0,0.033,0.009,0.033,0.027v0.779c0,0.023-0.011,0.034-0.033,0.034h-2.827
		c-0.022,0-0.034-0.011-0.034-0.034v-0.779c0-0.018,0.012-0.027,0.034-0.027h0.875v-2.625h1.042v2.625H89.743z M88.304,85.27
		c-0.146,0-0.261-0.045-0.346-0.135c-0.084-0.09-0.126-0.213-0.126-0.368c0-0.157,0.042-0.281,0.125-0.371
		c0.083-0.09,0.198-0.135,0.347-0.135c0.142,0,0.254,0.044,0.337,0.133s0.124,0.213,0.124,0.373c0,0.155-0.042,0.277-0.128,0.368
		C88.552,85.225,88.44,85.27,88.304,85.27z"/>
	<path fill="#231F20" d="M89.675,89.337c-0.022,0-0.034-0.011-0.034-0.034v-0.779c0-0.018,0.012-0.027,0.034-0.027h1.077
		c-0.174-0.078-0.312-0.208-0.414-0.393s-0.154-0.39-0.154-0.615c0-0.524,0.173-0.936,0.519-1.236
		c0.345-0.299,0.817-0.449,1.417-0.449c0.205,0,0.419,0.023,0.644,0.068s0.401,0.099,0.532,0.161L93,86.852
		c-0.18-0.078-0.34-0.131-0.481-0.163c-0.142-0.03-0.285-0.046-0.431-0.046c-0.287,0-0.51,0.076-0.666,0.229
		c-0.158,0.153-0.236,0.373-0.236,0.66c0,0.283,0.081,0.514,0.242,0.694c0.162,0.18,0.38,0.27,0.653,0.27h1.282v0.841H89.675z"/>
</g>
<g>
	<path fill="#0053F9" d="M74.48,100.264c0-0.35,0.091-0.627,0.273-0.832c0.183-0.206,0.44-0.32,0.773-0.344
		c-0.144-0.339-0.215-0.709-0.215-1.109c0-0.234,0.04-0.488,0.121-0.762s0.177-0.5,0.289-0.68c0.239-0.141,0.505-0.252,0.797-0.334
		s0.554-0.123,0.785-0.123c0.364,0,0.695,0.077,0.992,0.232c0.297,0.154,0.528,0.376,0.695,0.664c0.167,0.287,0.25,0.619,0.25,0.994
		c0,0.406-0.095,0.766-0.283,1.078s-0.451,0.556-0.787,0.73c-0.336,0.174-0.707,0.262-1.113,0.262H76.32
		c-0.239,0-0.407,0.047-0.504,0.143c-0.097,0.095-0.145,0.253-0.145,0.475v1.941H74.48V100.264z M76.418,98.146
		c0,0.271,0.062,0.582,0.184,0.934h0.305c0.32,0,0.589-0.108,0.807-0.324c0.218-0.217,0.326-0.479,0.326-0.785
		c0-0.292-0.069-0.52-0.209-0.684s-0.322-0.246-0.549-0.246c-0.239,0-0.488,0.074-0.746,0.223
		C76.457,97.545,76.418,97.839,76.418,98.146z"/>
	<path fill="#0053F9" d="M86.431,99.08c0.026,0,0.039,0.01,0.039,0.031v0.891c0,0.025-0.013,0.039-0.039,0.039h-5.672V99.08h1.449
		l-1.031-4.039h1.246l0.953,4.039H84.2v-5.117h1.191v5.117H86.431z"/>
	<path fill="#0053F9" d="M87.798,99.08c0.028,0,0.043,0.01,0.043,0.031v0.891c0,0.025-0.015,0.039-0.043,0.039h-1.445
		c-0.026,0-0.039-0.014-0.039-0.039v-0.891c0-0.021,0.013-0.031,0.039-0.031H87.798z"/>
	<path fill="#0053F9" d="M89.165,99.08c0.028,0,0.043,0.01,0.043,0.031v0.891c0,0.025-0.015,0.039-0.043,0.039H87.72
		c-0.026,0-0.039-0.014-0.039-0.039v-0.891c0-0.021,0.013-0.031,0.039-0.031H89.165z"/>
	<path fill="#0053F9" d="M89.087,100.041c-0.026,0-0.039-0.014-0.039-0.039v-0.891c0-0.021,0.013-0.031,0.039-0.031h1.238v-3h1.191
		v3h1.203c0.026,0,0.039,0.01,0.039,0.031v0.891c0,0.025-0.013,0.039-0.039,0.039H89.087z M90.173,95.393
		c-0.164,0-0.294-0.052-0.391-0.154c-0.097-0.104-0.145-0.243-0.145-0.42c0-0.18,0.048-0.321,0.143-0.424
		c0.095-0.104,0.226-0.154,0.393-0.154c0.164,0,0.293,0.051,0.387,0.152s0.141,0.243,0.141,0.426c0,0.182-0.048,0.323-0.145,0.424
		C90.459,95.342,90.332,95.393,90.173,95.393z M91.532,95.393c-0.164,0-0.294-0.052-0.391-0.154
		c-0.097-0.104-0.145-0.243-0.145-0.42c0-0.18,0.048-0.321,0.143-0.424c0.095-0.104,0.226-0.154,0.393-0.154
		s0.297,0.051,0.391,0.154c0.094,0.103,0.141,0.244,0.141,0.424c0,0.177-0.049,0.316-0.146,0.42
		C91.819,95.341,91.691,95.393,91.532,95.393z"/>
	<path fill="#0053F9" d="M94.083,99.08c0.028,0,0.043,0.01,0.043,0.031v0.891c0,0.025-0.015,0.039-0.043,0.039h-1.445
		c-0.026,0-0.039-0.014-0.039-0.039v-0.891c0-0.021,0.013-0.031,0.039-0.031H94.083z"/>
	<path fill="#0053F9" d="M95.45,99.08c0.028,0,0.043,0.01,0.043,0.031v0.891c0,0.025-0.015,0.039-0.043,0.039h-1.445
		c-0.026,0-0.039-0.014-0.039-0.039v-0.891c0-0.021,0.013-0.031,0.039-0.031H95.45z"/>
	<path fill="#0053F9" d="M96.817,99.08c0.028,0,0.043,0.01,0.043,0.031v0.891c0,0.025-0.015,0.039-0.043,0.039h-1.445
		c-0.026,0-0.039-0.014-0.039-0.039v-0.891c0-0.021,0.013-0.031,0.039-0.031H96.817z"/>
	<path fill="#0053F9" d="M96.739,100.041c-0.026,0-0.039-0.014-0.039-0.039v-0.891c0-0.021,0.013-0.031,0.039-0.031h1v-2.375h1.191
		v2.375h0.68c0.266,0,0.46-0.074,0.584-0.221c0.124-0.147,0.186-0.383,0.186-0.705v-1.449h1.191v1.543
		c0,0.13-0.008,0.25-0.023,0.359c0.13,0.174,0.261,0.297,0.391,0.367s0.298,0.105,0.504,0.105h0.496v-3h1.191v3.961h-1.664
		c-0.45,0-0.868-0.201-1.254-0.602c-0.3,0.4-0.745,0.602-1.336,0.602H96.739z"/>
	<path fill="#0053F9" d="M106.072,101.994l0.457-0.074c-0.106-0.053-0.194-0.125-0.262-0.217c-0.067-0.093-0.102-0.201-0.102-0.326
		c0-0.225,0.079-0.401,0.238-0.531c0.159-0.131,0.374-0.195,0.645-0.195c0.263,0,0.481,0.048,0.656,0.145l-0.16,0.406
		c-0.148-0.07-0.293-0.105-0.434-0.105c-0.114,0-0.207,0.034-0.277,0.104c-0.07,0.068-0.105,0.163-0.105,0.283
		c0,0.158,0.079,0.278,0.238,0.359l0.145-0.023c0.261-0.042,0.477-0.069,0.648-0.082v0.465c-0.19,0.013-0.505,0.045-0.943,0.098
		c-0.438,0.052-0.687,0.086-0.744,0.102V101.994z M106.33,93.963h1.191v6.078h-1.191V93.963z"/>
</g>
</svg>
