<?xml version="1.0" encoding="utf-8"?>
<!-- Generator: Adobe Illustrator 16.0.0, SVG Export Plug-In . SVG Version: 6.00 Build 0)  -->
<!DOCTYPE svg PUBLIC "-//W3C//DTD SVG 1.1//EN" "http://www.w3.org/Graphics/SVG/1.1/DTD/svg11.dtd">
<svg version="1.1" id="Isolation_Mode_1_" xmlns="http://www.w3.org/2000/svg" xmlns:xlink="http://www.w3.org/1999/xlink" x="0px"
	 y="0px" width="416.5px" height="310px" viewBox="623 131.5 416.5 310" enable-background="new 623 131.5 416.5 310"
	 xml:space="preserve">
<g id="Isolation_Mode">
	<g>
		<g>
			<g>
				<path opacity="0.08" d="M927.326,264.903c0-9.719-7.875-17.609-17.596-17.609H654.498c-9.719,0-17.596,7.89-17.596,17.609
					v149.079c0,9.72,7.877,17.6,17.596,17.6h255.232c9.721,0,17.596-7.88,17.596-17.6V264.903z"/>
				
					<linearGradient id="SVGID_1_" gradientUnits="userSpaceOnUse" x1="785.2131" y1="248.0786" x2="785.2131" y2="59.1978" gradientTransform="matrix(1 0 0 -1 2.3999 480.0098)">
					<stop  offset="0" style="stop-color:#FFFFFF"/>
					<stop  offset="1" style="stop-color:#E9EFFF"/>
				</linearGradient>
				<path fill="url(#SVGID_1_)" stroke="#A0A0A0" stroke-width="5" d="M926.326,396.961c0,13.194-9.395,23.851-21.005,23.851
					H669.906c-11.588,0-21.006-10.656-21.006-23.851V255.769c0-13.167,9.418-23.837,21.006-23.837h235.416
					c11.61,0,21.005,10.671,21.005,23.837V396.961z"/>
				<rect x="650.403" y="265.975" fill="#161D21" width="275.924" height="24.119"/>
				<rect x="659.154" y="320.818" fill="#C9D7F4" width="145.347" height="49.24"/>
				
					<rect x="660.154" y="311.756" fill="#FFFFFF" stroke="#C6C6C6" stroke-width="3" stroke-miterlimit="10" width="142.847" height="48.393"/>
				<rect x="819.333" y="311.756" fill="#FFFFFF" width="89.667" height="48.393"/>
				<rect x="812.833" y="362.147" fill="#C9D7F4" width="102.167" height="7.715"/>
				<rect x="815" y="308.322" fill="none" stroke="#FF3600" stroke-width="5" width="97.354" height="52.541"/>
				<line fill="none" stroke="#FF3600" stroke-width="5" x1="868.5" y1="168" x2="868.5" y2="303"/>
				
					<rect x="886.765" y="145.256" fill="#FFFFFF" stroke="#C6C6C6" stroke-width="2" stroke-miterlimit="10" width="142.847" height="48.393"/>
				<line fill="none" stroke="#FF3600" stroke-width="5" x1="882.328" y1="170.452" x2="866.08" y2="170.452"/>
			</g>
			<path fill="#F76031" d="M899.805,392.975c0,6.344-5.143,11.486-11.487,11.486l0,0c-6.344,0-11.485-5.143-11.485-11.486l0,0
				c0-6.344,5.142-11.486,11.485-11.486l0,0C894.662,381.488,899.805,386.631,899.805,392.975L899.805,392.975z"/>
			<path fill="#FBB03B" d="M913.014,392.975c0,6.344-5.143,11.486-11.486,11.486l0,0c-6.344,0-11.486-5.143-11.486-11.486l0,0
				c0-6.344,5.143-11.486,11.486-11.486l0,0C907.871,381.488,913.014,386.631,913.014,392.975L913.014,392.975z"/>
			<path fill="#2D2E30" d="M677.96,339.902l-4.144,7.039c-0.198,0.312-0.596,0.454-1.051,0.454c-1.22,0-2.951-0.965-2.951-2.186
				c0-0.255,0.085-0.511,0.256-0.794l4.91-7.579l-4.712-7.549c-0.198-0.313-0.284-0.597-0.284-0.88c0-1.192,1.618-2.101,2.867-2.101
				c0.623,0,1.05,0.227,1.334,0.738l3.774,6.585l3.774-6.585c0.285-0.512,0.711-0.738,1.334-0.738c1.249,0,2.868,0.908,2.868,2.101
				c0,0.283-0.086,0.567-0.285,0.88l-4.711,7.549l4.91,7.579c0.171,0.283,0.256,0.539,0.256,0.794c0,1.221-1.732,2.186-2.952,2.186
				c-0.454,0-0.88-0.143-1.05-0.454L677.96,339.902z"/>
			<path fill="#2D2E30" d="M703.172,339.902l-4.143,7.039c-0.199,0.312-0.598,0.454-1.053,0.454c-1.219,0-2.949-0.965-2.949-2.186
				c0-0.255,0.084-0.511,0.256-0.794l4.91-7.579l-4.713-7.549c-0.197-0.313-0.283-0.597-0.283-0.88c0-1.192,1.617-2.101,2.867-2.101
				c0.623,0,1.049,0.227,1.334,0.738l3.773,6.585l3.775-6.585c0.283-0.512,0.709-0.738,1.334-0.738c1.248,0,2.867,0.908,2.867,2.101
				c0,0.283-0.086,0.567-0.285,0.88l-4.711,7.549l4.91,7.579c0.17,0.283,0.256,0.539,0.256,0.794c0,1.221-1.732,2.186-2.951,2.186
				c-0.455,0-0.881-0.143-1.051-0.454L703.172,339.902z"/>
			<path fill="#2D2E30" d="M728.384,339.902l-4.144,7.039c-0.198,0.312-0.596,0.454-1.051,0.454c-1.22,0-2.951-0.965-2.951-2.186
				c0-0.256,0.085-0.512,0.256-0.795l4.91-7.578l-4.712-7.549c-0.198-0.313-0.284-0.597-0.284-0.88c0-1.192,1.618-2.101,2.867-2.101
				c0.623,0,1.05,0.227,1.334,0.738l3.774,6.585l3.774-6.585c0.285-0.512,0.711-0.738,1.334-0.738c1.249,0,2.868,0.908,2.868,2.101
				c0,0.283-0.086,0.567-0.285,0.88l-4.711,7.549l4.91,7.578c0.171,0.284,0.256,0.539,0.256,0.795c0,1.221-1.732,2.186-2.952,2.186
				c-0.454,0-0.88-0.143-1.05-0.454L728.384,339.902z"/>
			<path fill="#2D2E30" d="M753.596,339.902l-4.144,7.039c-0.198,0.312-0.596,0.454-1.051,0.454c-1.22,0-2.951-0.965-2.951-2.186
				c0-0.255,0.085-0.511,0.256-0.794l4.91-7.579l-4.712-7.549c-0.198-0.313-0.284-0.597-0.284-0.88c0-1.192,1.618-2.101,2.867-2.101
				c0.623,0,1.05,0.227,1.334,0.738l3.774,6.585l3.774-6.585c0.285-0.512,0.711-0.738,1.334-0.738c1.249,0,2.867,0.908,2.867,2.101
				c0,0.283-0.085,0.567-0.284,0.88l-4.711,7.549l4.91,7.579c0.171,0.283,0.256,0.539,0.256,0.794c0,1.221-1.732,2.186-2.952,2.186
				c-0.454,0-0.88-0.143-1.05-0.454L753.596,339.902z"/>
			<path fill="#FF2400" d="M840.975,337.551l-4.338,7.37c-0.208,0.326-0.624,0.476-1.101,0.476c-1.276,0-3.09-1.011-3.09-2.289
				c0-0.267,0.089-0.534,0.268-0.831l5.142-7.936l-4.934-7.904c-0.208-0.327-0.298-0.624-0.298-0.921
				c0-1.248,1.694-2.199,3.003-2.199c0.652,0,1.099,0.237,1.396,0.773l3.951,6.894l3.952-6.894c0.299-0.536,0.744-0.773,1.397-0.773
				c1.308,0,3.002,0.951,3.002,2.199c0,0.297-0.09,0.594-0.298,0.921l-4.933,7.904l5.141,7.936c0.18,0.297,0.269,0.564,0.269,0.831
				c0,1.278-1.813,2.289-3.091,2.289c-0.476,0-0.922-0.149-1.1-0.476L840.975,337.551z"/>
			<path fill="#FF2400" d="M864.376,337.551l-4.339,7.37c-0.207,0.326-0.624,0.476-1.1,0.476c-1.277,0-3.09-1.011-3.09-2.289
				c0-0.267,0.089-0.534,0.268-0.831l5.141-7.936l-4.934-7.904c-0.207-0.327-0.297-0.624-0.297-0.921
				c0-1.248,1.694-2.199,3.002-2.199c0.652,0,1.099,0.237,1.396,0.773l3.952,6.894l3.952-6.894c0.298-0.536,0.744-0.773,1.396-0.773
				c1.309,0,3.003,0.951,3.003,2.199c0,0.297-0.09,0.594-0.299,0.921l-4.933,7.904l5.142,7.936c0.179,0.297,0.268,0.564,0.268,0.831
				c0,1.278-1.813,2.289-3.091,2.289c-0.476,0-0.921-0.149-1.1-0.476L864.376,337.551z"/>
			<path fill="#FF2400" d="M889.563,337.551l-4.338,7.37c-0.208,0.326-0.624,0.476-1.101,0.476c-1.276,0-3.09-1.011-3.09-2.289
				c0-0.267,0.089-0.534,0.268-0.831l5.142-7.936l-4.934-7.904c-0.208-0.327-0.298-0.624-0.298-0.921
				c0-1.248,1.694-2.199,3.003-2.199c0.651,0,1.099,0.237,1.396,0.773l3.952,6.894l3.952-6.894c0.299-0.536,0.744-0.773,1.397-0.773
				c1.308,0,3.002,0.951,3.002,2.199c0,0.297-0.09,0.594-0.298,0.921l-4.933,7.904l5.141,7.936c0.179,0.297,0.268,0.564,0.268,0.831
				c0,1.278-1.813,2.289-3.09,2.289c-0.476,0-0.922-0.149-1.1-0.476L889.563,337.551z"/>
			<path fill="#2D2E30" d="M778.808,339.902l-4.144,7.039c-0.198,0.312-0.596,0.454-1.051,0.454c-1.22,0-2.951-0.965-2.951-2.186
				c0-0.255,0.085-0.511,0.256-0.794l4.91-7.579l-4.712-7.549c-0.198-0.313-0.284-0.597-0.284-0.88c0-1.192,1.618-2.101,2.867-2.101
				c0.623,0,1.05,0.227,1.334,0.738l3.774,6.585l3.774-6.585c0.285-0.512,0.711-0.738,1.334-0.738c1.249,0,2.867,0.908,2.867,2.101
				c0,0.283-0.085,0.567-0.284,0.88l-4.711,7.549l4.91,7.579c0.171,0.283,0.256,0.539,0.256,0.794c0,1.221-1.732,2.186-2.952,2.186
				c-0.454,0-0.88-0.143-1.05-0.454L778.808,339.902z"/>
		</g>
		<path opacity="0.3" fill="#FFFFFF" d="M908.719,422.886H778.058c0.008-0.251,0.03-0.484,0.03-0.734V233.235h130.631
			c10.004,0,18.107,8.12,18.107,18.122v153.418C926.826,414.776,918.723,422.886,908.719,422.886z"/>
	</g>
</g>
<g>
	<path fill="#515151" d="M939.18,177.96c-0.689,0.36-2.22,0.84-4.169,0.84c-4.38,0-7.23-2.97-7.23-7.41
		c0-4.47,3.061-7.709,7.8-7.709c1.561,0,2.94,0.39,3.66,0.75l-0.6,2.04c-0.631-0.36-1.62-0.69-3.061-0.69
		c-3.33,0-5.13,2.46-5.13,5.49c0,3.36,2.16,5.43,5.04,5.43c1.5,0,2.49-0.39,3.24-0.72L939.18,177.96z"/>
	<path fill="#515151" d="M955.41,171.12c0,5.37-3.72,7.71-7.229,7.71c-3.93,0-6.96-2.88-6.96-7.47c0-4.86,3.18-7.71,7.2-7.71
		C952.591,163.65,955.41,166.681,955.41,171.12z M943.891,171.271c0,3.18,1.83,5.58,4.41,5.58c2.52,0,4.41-2.37,4.41-5.64
		c0-2.46-1.23-5.58-4.351-5.58C945.241,165.63,943.891,168.51,943.891,171.271z"/>
	<path fill="#515151" d="M971.281,157.201v17.549c0,1.29,0.03,2.76,0.12,3.75h-2.37l-0.12-2.52h-0.06
		c-0.811,1.62-2.58,2.85-4.95,2.85c-3.51,0-6.21-2.97-6.21-7.38c-0.029-4.83,2.97-7.8,6.51-7.8c2.22,0,3.72,1.05,4.38,2.22h0.061
		v-8.67H971.281z M968.641,169.89c0-0.33-0.03-0.78-0.12-1.11c-0.391-1.68-1.83-3.06-3.81-3.06c-2.73,0-4.351,2.4-4.351,5.609
		c0,2.94,1.44,5.37,4.29,5.37c1.77,0,3.39-1.17,3.87-3.15c0.09-0.36,0.12-0.72,0.12-1.14V169.89z"/>
	<path fill="#515151" d="M977.131,171.72c0.06,3.57,2.34,5.04,4.979,5.04c1.89,0,3.03-0.33,4.02-0.75l0.45,1.89
		c-0.93,0.42-2.52,0.9-4.83,0.9c-4.47,0-7.14-2.939-7.14-7.319s2.58-7.83,6.81-7.83c4.74,0,6,4.17,6,6.84
		c0,0.54-0.06,0.96-0.09,1.23H977.131z M984.87,169.831c0.03-1.68-0.689-4.29-3.66-4.29c-2.67,0-3.84,2.46-4.05,4.29H984.87z"/>
</g>
</svg>
