<?xml version="1.0" encoding="utf-8"?>
<!-- Generator: Adobe Illustrator 16.0.0, SVG Export Plug-In . SVG Version: 6.00 Build 0)  -->
<!DOCTYPE svg PUBLIC "-//W3C//DTD SVG 1.1//EN" "http://www.w3.org/Graphics/SVG/1.1/DTD/svg11.dtd">
<svg version="1.1" id="Layer_1" xmlns="http://www.w3.org/2000/svg" xmlns:xlink="http://www.w3.org/1999/xlink" x="0px" y="0px"
	 width="20px" height="44.375px" viewBox="0 0 20 44.375" enable-background="new 0 0 20 44.375" xml:space="preserve">
<rect y="-0.313" display="none" fill="#36A9E1" width="20" height="20"/>
<g>
	<path fill="#FD991C" d="M9.965,15.271c-0.288,0-0.576-0.109-0.795-0.329L2.259,8.031c-0.44-0.439-0.44-1.152,0-1.592
		C2.699,6,3.411,6,3.851,6.439l6.114,6.115l6.114-6.114C16.52,6,17.23,6,17.671,6.439s0.438,1.152,0,1.591l-6.909,6.911
		C10.541,15.162,10.253,15.271,9.965,15.271z"/>
</g>
<rect y="24.375" display="none" fill="#36A9E1" width="20" height="20"/>
<g>
	<path fill="#FFFFFF" d="M9.965,39.646c-0.288,0-0.576-0.109-0.795-0.33l-6.911-6.909c-0.44-0.439-0.44-1.152,0-1.593
		c0.439-0.438,1.152-0.438,1.591,0l6.114,6.115l6.114-6.115c0.439-0.438,1.152-0.438,1.592,0c0.439,0.438,0.439,1.15,0,1.593
		l-6.91,6.909C10.541,39.537,10.253,39.646,9.965,39.646z"/>
</g>
</svg>
