<?xml version="1.0" encoding="utf-8"?>
<!-- Generator: Adobe Illustrator 16.0.0, SVG Export Plug-In . SVG Version: 6.00 Build 0)  -->
<!DOCTYPE svg PUBLIC "-//W3C//DTD SVG 1.1//EN" "http://www.w3.org/Graphics/SVG/1.1/DTD/svg11.dtd">
<svg version="1.1" id="Layer_1" xmlns="http://www.w3.org/2000/svg" xmlns:xlink="http://www.w3.org/1999/xlink" x="0px" y="0px"
	 width="24px" height="55.5px" viewBox="0 0 24 55.5" enable-background="new 0 0 24 55.5" xml:space="preserve">
<path fill="#FD991C" d="M12,0.729C5.785,0.729,0.729,5.785,0.729,12S5.785,23.272,12,23.272c6.214,0,11.271-5.057,11.271-11.272
	S18.214,0.729,12,0.729z M16.518,14.525c0.551,0.551,0.551,1.443,0,1.992c-0.272,0.275-0.635,0.414-0.994,0.414
	c-0.36,0-0.723-0.139-0.998-0.414L12,13.992l-2.526,2.525c-0.274,0.275-0.635,0.414-0.996,0.414s-0.721-0.139-0.996-0.414
	c-0.551-0.549-0.551-1.441,0-1.992L10.007,12L7.481,9.473c-0.551-0.55-0.551-1.441,0-1.991c0.55-0.551,1.442-0.551,1.992,0
	L12,10.008l2.525-2.526c0.552-0.551,1.442-0.551,1.992,0c0.551,0.55,0.551,1.441,0,1.991L13.992,12L16.518,14.525z"/>
<path fill="#969596" d="M12,30.729C5.785,30.729,0.729,35.785,0.729,42S5.785,53.271,12,53.271c6.214,0,11.271-5.059,11.271-11.271
	S18.214,30.729,12,30.729z M16.518,44.525c0.551,0.551,0.551,1.441,0,1.992c-0.272,0.273-0.635,0.414-0.994,0.414
	c-0.36,0-0.723-0.141-0.998-0.414L12,43.992l-2.526,2.525c-0.274,0.273-0.635,0.414-0.996,0.414s-0.721-0.141-0.996-0.414
	c-0.551-0.551-0.551-1.441,0-1.992L10.007,42l-2.526-2.527c-0.551-0.549-0.551-1.439,0-1.99c0.55-0.551,1.442-0.551,1.992,0
	L12,40.008l2.525-2.525c0.552-0.551,1.442-0.551,1.992,0c0.551,0.551,0.551,1.441,0,1.99L13.992,42L16.518,44.525z"/>
</svg>
