<?xml version="1.0" encoding="utf-8"?>
<!-- Generator: Adobe Illustrator 16.0.0, SVG Export Plug-In . SVG Version: 6.00 Build 0)  -->
<!DOCTYPE svg PUBLIC "-//W3C//DTD SVG 1.1//EN" "http://www.w3.org/Graphics/SVG/1.1/DTD/svg11.dtd">
<svg version="1.1" id="Capa_1" xmlns="http://www.w3.org/2000/svg" xmlns:xlink="http://www.w3.org/1999/xlink" x="0px" y="0px"
	 width="512px" height="512px" viewBox="0 0 512 512" enable-background="new 0 0 512 512" xml:space="preserve">
<g>
	<g>
		<path fill="#929292" d="M456.635,241.656V70.452c0-14.388-11.7-26.093-26.094-26.093H26.093C11.705,44.359,0,56.064,0,70.452
			v315.729c0,14.395,11.705,26.094,26.093,26.094h259.928c22.069,33.332,59.895,55.364,102.771,55.364
			C456.74,467.642,512,412.365,512,344.434C512.005,301.551,489.966,263.727,456.635,241.656z M382.407,71.621h40.014v13.913
			h-40.014V71.621z M311.955,71.621h40.014v13.913h-40.014V71.621z M239.767,71.621h40.012v13.913h-40.012V71.621z M271.992,383.573
			H31.056v-276.59h394.011v119.696c-11.465-3.543-23.65-5.454-36.27-5.454c-67.942,0-123.202,55.271-123.202,123.208
			C265.584,358.117,267.854,371.273,271.992,383.573z M388.79,436.334c-50.674,0-91.896-41.223-91.896-91.896
			c0-50.672,41.223-91.896,91.896-91.896c50.675,0,91.896,41.224,91.896,91.896C480.688,395.111,439.465,436.334,388.79,436.334z"/>
	</g>
</g>
<g>
	<g>
		<g>
			<path fill="#929292" d="M205.496,280.428h-18.424c0.644-1.521,0.999-3.189,0.999-4.943v-56.175
				c0-7.029-5.719-12.749-12.746-12.749h-10.102c0.645-1.52,0.999-3.191,0.999-4.943V145.44c0-7.029-5.719-12.748-12.747-12.748
				H97.301c-7.028,0-12.747,5.718-12.747,12.748v56.176c0,7.028,5.719,12.746,12.747,12.746h10.1
				c-0.642,1.522-0.998,3.192-0.998,4.944v56.178c0,1.75,0.356,3.423,0.998,4.942H59.847c-7.029,0-12.748,5.72-12.748,12.747v56.178
				c0,7.028,5.718,12.748,12.748,12.748h56.176c7.028,0,12.747-5.72,12.747-12.748v-56.177c0-1.752-0.354-3.424-0.999-4.944h9.8
				c-0.642,1.521-0.998,3.192-0.998,4.944v56.177c0,7.028,5.719,12.748,12.747,12.748h56.177c7.027,0,12.746-5.72,12.746-12.748
				v-56.177C218.244,286.146,212.526,280.428,205.496,280.428z M97.301,206.56c-2.726,0-4.944-2.218-4.944-4.943V145.44
				c0-2.727,2.219-4.944,4.944-4.944h56.176c2.728,0,4.945,2.218,4.945,4.944v56.176c0,2.725-2.219,4.943-4.945,4.943h-34.328
				L97.301,206.56L97.301,206.56z M120.967,349.354c0,2.727-2.218,4.942-4.944,4.942H59.847c-2.727,0-4.945-2.219-4.945-4.942
				v-56.178c0-2.727,2.22-4.943,4.945-4.943h56.176c2.728,0,4.944,2.219,4.944,4.943V349.354L120.967,349.354z M119.149,280.428
				c-2.727,0-4.943-2.218-4.943-4.943v-56.175c0-2.727,2.218-4.944,4.943-4.944h56.177c2.726,0,4.942,2.217,4.942,4.944v56.175
				c0,2.728-2.218,4.943-4.942,4.943H119.149z M210.441,349.354c0,2.727-2.219,4.942-4.943,4.942h-56.177
				c-2.727,0-4.943-2.219-4.943-4.942v-56.178c0-2.727,2.218-4.943,4.943-4.943h56.177c2.728,0,4.943,2.219,4.943,4.943V349.354z"/>
		</g>
	</g>
	<g>
		<g>
			<path fill="#929292" d="M125.389,147.78c-8.82,0-15.996,7.176-15.996,15.995v31.601c0,2.155,1.747,3.902,3.901,3.902
				c2.153,0,3.9-1.747,3.9-3.902v-14.824h16.386v14.824c0,2.155,1.747,3.902,3.9,3.902c2.154,0,3.901-1.747,3.901-3.902v-31.601
				C141.385,154.956,134.209,147.78,125.389,147.78z M133.581,172.748h-16.385v-8.974c0-4.517,3.676-8.192,8.192-8.192
				s8.192,3.675,8.192,8.192V172.748L133.581,172.748z"/>
		</g>
	</g>
	<g>
		<g>
			<path fill="#929292" d="M159.331,253.248c-2.155,0-3.901,1.747-3.901,3.9c0,4.518-3.676,8.191-8.193,8.191
				c-4.517,0-8.191-3.675-8.191-8.191v-19.506c0-4.517,3.674-8.193,8.191-8.193c4.519,0,8.193,3.676,8.193,8.193
				c0,2.154,1.746,3.901,3.901,3.901c2.153,0,3.901-1.747,3.901-3.901c0-8.82-7.177-15.996-15.997-15.996
				c-8.819,0-15.994,7.175-15.994,15.996v19.506c0,8.819,7.175,15.996,15.994,15.996c8.82,0,15.997-7.177,15.997-15.996
				C163.232,254.995,161.486,253.248,159.331,253.248z"/>
		</g>
	</g>
	<g>
		<g>
			<path fill="#929292" d="M87.934,295.516H75.841c-2.155,0-3.902,1.746-3.902,3.901v43.694c0,2.154,1.747,3.9,3.902,3.9h12.094
				c8.82,0,15.996-7.176,15.996-15.996V311.51C103.93,302.691,96.755,295.516,87.934,295.516z M96.127,331.018
				c0,4.517-3.675,8.191-8.193,8.191h-8.191v-35.891h8.192c4.518,0,8.192,3.675,8.192,8.192V331.018L96.127,331.018z"/>
		</g>
	</g>
	<g>
		<g>
			<path fill="#929292" d="M187.265,318.158c1.416-2.271,2.237-4.95,2.237-7.819c0-8.173-6.65-14.825-14.826-14.825h-13.265
				c-2.154,0-3.901,1.748-3.901,3.903v43.694c0,2.156,1.747,3.902,3.901,3.902h21.068c8.175,0,14.825-6.649,14.825-14.826
				C197.306,325.688,193.099,320.154,187.265,318.158z M165.314,303.316h9.362c3.872,0,7.021,3.15,7.021,7.021
				c0,3.872-3.149,7.023-7.021,7.023h-9.362V303.316z M182.481,339.21h-17.167v-14.044h9.364h7.803c3.872,0,7.022,3.148,7.022,7.021
				C189.503,336.059,186.353,339.21,182.481,339.21z"/>
		</g>
	</g>
</g>
<g>
	<g>
		<g>
			<path fill="#929292" d="M235.321,268.803l84.283-32.299L306.08,201.22c0,0-2.063,3.858-2.78,4.937
				c-2.16,3.85-5.626,6.997-10.068,8.699c-10.189,3.904-21.626-1.267-25.4-11.542c-3.646-9.915,1.329-21.048,11.144-24.952
				c0.08-0.031,0.156-0.061,0.236-0.091c4.443-1.704,9.124-1.679,13.303-0.259c1.256,0.321,5.37,1.813,5.37,1.813l-13.521-35.284
				l-5.761,2.207l-28.776,11.029c0.059-0.65,0.704-3.578,1.282-5.844c1.05-4.108,1.113-8.554-0.581-12.813
				c-3.902-9.815-15.035-14.789-24.951-11.146c-0.085,0.031-0.175,0.064-0.26,0.098c-4.729,1.813-8.354,5.261-10.472,9.451
				c-2.406,4.76-2.871,10.48-0.813,15.852c1.606,4.191,4.62,7.326,8.053,9.689c2.186,1.508,3.847,2.67,4.794,3.441
				c0.021,0.015,0.036,0.028,0.054,0.043l-34.01,13.034l-0.523,0.201l1.251,3.267l31.048,81.017
				C226.322,268.309,231.078,270.43,235.321,268.803z"/>
		</g>
	</g>
</g>
<polygon fill="#929292" points="373.99,407.495 437.99,343.495 373.99,279.495 "/>
</svg>
