<?xml version="1.0" encoding="UTF-8"?>
<!DOCTYPE svg PUBLIC "-//W3C//DTD SVG 1.1//EN" "http://www.w3.org/Graphics/SVG/1.1/DTD/svg11.dtd">
<!-- Creator: CorelDRAW X7 -->
<svg xmlns="http://www.w3.org/2000/svg" xml:space="preserve" width="165.894mm" height="43.421mm" version="1.1" style="shape-rendering:geometricPrecision; text-rendering:geometricPrecision; image-rendering:optimizeQuality; fill-rule:evenodd; clip-rule:evenodd"
viewBox="0 0 13301167 3481444"
 xmlns:xlink="http://www.w3.org/1999/xlink">
 <defs>
  <style type="text/css">
   <![CDATA[
    .fil2 {fill:#00AF79;fill-rule:nonzero}
    .fil1 {fill:#05A179;fill-rule:nonzero}
    .fil0 {fill:#FDFDFD;fill-rule:nonzero}
    .fil3 {fill:white;fill-rule:nonzero}
   ]]>
  </style>
 </defs>
 <g id="__x0023_Layer_x0020_1">
  <metadata id="CorelCorpID_0Corel-Layer"/>
  <path class="fil0" d="M1628552 393c-1715827,559888 -1627782,2125011 -1627782,2125011l0 1356040 3255612 0 0 -1356040c0,0 88052,-1565123 -1627830,-2125011z"/>
  <path class="fil1" d="M1628552 64207c681929,227107 1152658,639899 1399449,1227297 186464,443726 168111,826860 167942,830629l-104 1555 0 1716 0 1295433 -3134518 0 0 -1295433 0 -1716 0 -1555c-281,-3769 -19075,-382517 165890,-825866 246068,-589884 717472,-1004176 1401341,-1232060zm0 -63814l0 0c-1715827,559888 -1627782,2125011 -1627782,2125011l0 1356040 3255612 0 0 -1356040c0,0 88052,-1565123 -1627830,-2125011z"/>
  <path class="fil1" d="M1628664 435531c512479,196166 870830,520746 1066106,966139 157583,359289 152644,676773 151979,702110l-554 7095 0 14529 0 805685 -2435014 0 0 -805685 0 -11474 -666 -11481c-168,-3047 -10086,-313435 139447,-671562 192173,-460531 554734,-794812 1078702,-995356z"/>
  <path class="fil2" d="M1628440 0l-2943 0c561,225 1058,225 1499,393 497,-168 1003,-168 1444,-393z"/>
  <path class="fil1" d="M2987911 1812137c-376696,0 -683091,-306339 -683091,-683035 0,-376480 306395,-682875 683091,-682875 376592,0 682987,306395 682987,682875 0,376696 -306395,683035 -682987,683035z"/>
  <path class="fil0" d="M2987911 1754248c-345258,0 -625090,-279776 -625090,-625146 0,-345154 279832,-624986 625090,-624986 345266,0 624986,279832 624986,624986 0,345370 -279720,625146 -624986,625146z"/>
  <path class="fil1" d="M722563 2869431l0 173050 49623 -5380c40033,-4378 80235,-6270 119491,-6270 301239,0 598590,123981 693402,197889l18633 14473 26836 21071 26836 -21071 18626 -14473c94755,-73908 391946,-197889 693186,-197889 39255,0 79561,1892 119594,6270l45798 5380 0 -173050 -1812025 0z"/>
  <path class="fil0" d="M2379675 2376965c-19852,0 -35984,15851 -35984,35703 0,19909 16132,35929 35984,35929l189511 0c19683,0 35711,-16020 35711,-35929 0,-19852 -16028,-35703 -35711,-35703l-189511 0z"/>
  <path class="fil0" d="M2605394 2617100c0,-19683 -15971,-35711 -35703,-35711l-233040 0c-19796,0 -35928,16028 -35928,35711 0,19684 16132,35872 35928,35872l233040 0c19732,0 35703,-16188 35703,-35872z"/>
  <path class="fil0" d="M2569691 2683521l-190016 0c-19852,0 -35984,16083 -35984,35767 0,20069 15747,35872 35984,35872l190016 0c19732,0 35703,-16027 35703,-35872 0,-19684 -15971,-35767 -35703,-35767z"/>
  <path class="fil0" d="M2605114 2515081c0,-19684 -15964,-35928 -35704,-35928l-258545 0c-19956,0 -36040,16244 -36040,35928 0,19844 16084,35704 36040,35704l258545 0c19740,0 35704,-15860 35704,-35704z"/>
  <path class="fil0" d="M645111 2412668c0,19909 16019,35929 35703,35929l189463 0c19900,0 36040,-16020 36040,-35929 0,-19852 -16140,-35703 -36040,-35703l-189463 0c-19684,0 -35703,15851 -35703,35703z"/>
  <path class="fil0" d="M644774 2515081c0,19844 16084,35704 35768,35704l258592 0c19909,0 36209,-15860 36209,-35704 0,-19684 -16300,-35928 -36209,-35928l-258592 0c-19684,0 -35768,16244 -35768,35928z"/>
  <path class="fil0" d="M644718 2617100c0,19684 15971,35872 35599,35872l233040 0c19956,0 36096,-16188 36096,-35872 0,-19683 -16140,-35711 -36096,-35711l-233040 0c-19628,0 -35599,16028 -35599,35711z"/>
  <path class="fil0" d="M644718 2719288c0,19845 15971,35872 35599,35872l189960 0c20181,0 36040,-15803 36040,-35872 0,-19684 -16140,-35767 -36040,-35767l-189960 0c-19628,0 -35599,16083 -35599,35767z"/>
  <path class="fil0" d="M1948970 1234722l-1050 18352c-224,1941 -9373,169442 56053,235373 7377,-27557 24615,-68593 63710,-97810 -45357,-201321 -224837,-351856 -439909,-351856 -215464,0 -394993,151257 -439909,352963 14641,6711 56446,30772 65979,93264 27614,-18746 73195,-71857 54562,-213797l-5436 -42583 33490 26940c1997,1724 196006,154368 474226,59605 -22562,-12420 -51114,-30548 -72578,-50457l-31823 -29994 242685 0z"/>
  <path class="fil0" d="M2115422 1355872c665,-10143 1443,-20294 1443,-30605 0,-267805 -217076,-484985 -484986,-484985 -267917,0 -484985,217180 -484985,484985 0,10311 938,20462 1443,30605 65586,-204593 257214,-363339 483542,-363339 226441,0 418117,158746 483543,363339z"/>
  <path class="fil0" d="M2171972 1546497c0,-70469 -30933,-127412 -69026,-127412 -9982,0 -19516,4209 -28167,11642 0,-393 -112,-554 -112,-946 -37372,37595 -41749,89768 -41749,90545l-1885 26892 -23733 -13141c-89375,-50072 -95092,-209916 -94426,-264919l-112050 0c29995,19460 59100,32657 59437,32818l36369 16637 -36979 15081c-248402,101242 -440574,13583 -513433,-30163 12420,194618 -98748,223450 -103791,224837l-21127 4931 0 -21792c0,-51732 -25618,-75072 -40034,-84220 0,385 -112,778 -112,1163 -7978,-5934 -16404,-9365 -25393,-9365 -38084,0 -68857,56943 -68857,127412 0,70084 30773,127027 68857,127027 17969,0 34213,-13029 46520,-33827 61714,175880 228550,301961 425493,301961 197994,0 365888,-127637 426824,-305008 12307,22731 29602,36874 48348,36874 38093,0 69026,-56943 69026,-127027zm-616607 53279l0 0c10920,-32104 40025,-53279 72409,-53279 32272,0 61209,21175 72410,52894 2830,8819 -1716,18128 -10311,21183 -8812,3103 -18353,-1331 -21400,-10319 -6326,-18128 -22843,-30548 -40699,-30548 -18072,0 -34485,12420 -40699,30997 -2493,6815 -8867,11249 -15747,11249 -1996,0 -3712,-609 -5540,-994 -8764,-3047 -13478,-12588 -10423,-21183zm318807 -115771l0 0c0,37260 -30051,67647 -67311,67647 -37371,0 -67534,-30387 -67534,-67647 0,-37419 30163,-67582 67534,-67582 37260,0 67311,30163 67311,67582zm-425381 67647l0 0c-37147,0 -67583,-30387 -67583,-67647 0,-37419 30436,-67582 67583,-67582 37267,0 67535,30163 67535,67582 0,37260 -30268,67647 -67535,67647zm178983 196110l0 0c63710,0 122698,-5934 173267,-36979 -35375,58771 -99743,98083 -173267,98083 -73524,0 -137835,-39312 -173266,-98083 50344,31045 109668,36979 173266,36979z"/>
  <path class="fil0" d="M2301388 2033142c-53174,-27726 -203437,-94755 -346484,-58659 -28223,-36649 -38815,-49069 -38815,-49069 0,0 -18625,-16806 -41412,-6326 -28055,9541 -30276,34380 -30276,34380 0,113662 -89327,206701 -201273,213966l-31991 0c-111994,-7265 -201040,-100304 -201040,-213966 0,0 -2277,-24839 -30388,-34380 -22787,-10480 -41525,6326 -41525,6326 0,0 -10591,12420 -38598,49069 -143271,-36096 -293470,30933 -346589,58659 466577,0 674112,220067 674112,220067 0,0 205923,-220067 674279,-220067z"/>
  <path class="fil0" d="M2594530 2356166c0,0 -25842,-47570 -68032,-55612l0 47963 44299 0c0,0 12917,1163 23733,7649z"/>
  <path class="fil0" d="M655590 2356166c0,0 25778,-47570 67976,-55612l0 47963 -44355 0c0,0 -12813,1163 -23621,7649z"/>
  <path class="fil0" d="M2381840 2347740l120589 0 0 -270459c-527954,-76242 -791101,144987 -857192,204760l0 927388c86272,-67422 446396,-248121 857192,-204207l0 -220620 -120589 0c-36594,0 -65378,-28832 -65378,-65314 0,-14143 4714,-27116 12532,-37820 -31438,-4763 -55612,-31711 -55612,-64368 0,-15859 5877,-30387 15587,-41476 -24287,-9758 -41365,-33042 -41365,-60543 0,-35928 29330,-65322 65314,-65322l15250 0c-7264,-10527 -11706,-23284 -11706,-37091 0,-35703 29225,-64928 65378,-64928z"/>
  <path class="fil0" d="M751508 2077281l0 270459 120709 0c35984,0 65314,29225 65314,64928 0,13807 -4386,26564 -11754,37091l15193 0c36089,0 65426,29394 65426,65322 0,27501 -17302,50785 -41476,60543 9589,11089 15803,25617 15803,41476 0,32657 -24286,59605 -55724,64368 7761,10704 12532,23677 12532,37820 0,36482 -28720,65314 -65314,65314l-120709 0 0 220620c410852,-43914 770807,136785 857248,204207l0 -927388c-56719,-59773 -327467,-281002 -857248,-204760z"/>
  <path class="fil0" d="M1447356 1942211c-393,3825 -778,7489 -778,11257 0,99358 80724,180363 180418,180363 99526,0 180258,-81005 180258,-180363 0,-7432 56,-2662 -609,-9701 -39705,16966 -80957,25946 -124253,29770 -18249,1941 -36762,3055 -55396,3055 -63373,0 -123972,-12203 -179640,-34381z"/>
  <path class="fil3" d="M8118754 3468800l-198716 0 0 -1006838 198884 0 0 1006838 -168 0zm2157675 -338443l0 0 -42414 12588 -135398 25393c-8427,2886 -19684,5716 -33827,8595 -14136,14143 -22563,25232 -25393,33819 -5540,16806 -8595,32441 -8595,46632 0,16806 2886,32272 8595,46408 2830,11257 11257,21183 25393,29610 5772,5709 19683,9926 42422,12756l37981 4210c39584,0 70525,-5709 93031,-16966 19909,-11257 33828,-26724 42423,-46408 11089,-19908 16797,-38205 16797,-55058l4210 -122594c-8427,5549 -16798,12588 -25225,21015zm-4594237 12588l0 0 -88934 8595 -46520 16798c-11257,2886 -22514,5716 -33715,8595 -11362,11257 -19845,22570 -25505,33819 -5541,13919 -8483,29610 -8483,46632 0,19628 2886,35103 8483,46408 5660,14143 14143,24069 25505,29610 11257,8595 23901,12756 37932,12756l46624 4210c33828,0 61994,-5709 84613,-16966 16910,-11257 33819,-26724 50785,-46408 5661,-19908 9926,-38205 12700,-55058l8539 -122594c-11313,5549 -24005,12588 -38149,21183l-33875 12420zm1696367 -431314l0 0 -122818 367885 254055 0 -127028 -367885 -4209 0zm114046 -249669l0 0 359682 1006838 -219898 0 -72193 -224220 -359514 0 -76009 224220 -215858 0 368109 -1006838 215681 0zm-1213987 410299l0 0c5548,-22514 16918,-43745 33715,-63429 17022,-16966 33932,-32440 50898,-46576 16909,-11313 39480,-21183 67759,-29610 19732,-8595 42302,-12804 67582,-12804 14144,0 26836,4377 38150,12804l0 181862 -63430 -12637c-36762,0 -67647,7096 -93152,21232 -19740,8210 -39528,25176 -59212,50625 -8595,19844 -19740,43689 -33875,71968 -5436,33820 -8435,66308 -8435,97249l0 325855 -186127 0 0 -727559 186127 0 0 131020zm-858795 -101410l0 0c25392,-17022 59212,-29778 101522,-38205 36762,-8427 74687,-12644 114215,-12644 39648,0 74911,4217 105844,12644 36762,2830 69034,9926 97201,21183 31045,17022 56446,40916 76234,72025 19571,25393 29610,57881 29610,97249l0 380689c0,30941 0,62042 0,92983 2774,28279 8427,52397 16909,72249l-190344 0 -8483 -72249c-36706,34044 -74743,56558 -114271,67863 -36650,11258 -77517,16806 -122705,16806 -36594,0 -68970,-2718 -97137,-8427 -28279,-11257 -50793,-23845 -67815,-38037 -28167,-19852 -47843,-43689 -59100,-71968 -11369,-25393 -17022,-57889 -17022,-97257 0,-42415 7096,-74679 21119,-97193 11257,-25617 29610,-47963 55003,-67863 22626,-13919 47963,-24014 76242,-29554 39424,-14144 69026,-22570 88710,-25449l156637 -25392c19684,-5549 36650,-12588 50785,-21184 14088,-8426 21239,-23901 21239,-46632 0,-19684 -5548,-36481 -17021,-50617 -2662,-11481 -12589,-22738 -29611,-33995 -8482,-5316 -19683,-8427 -33819,-8427l-50681 -4210c-36866,0 -64977,7096 -84605,21232 -19796,16805 -33939,45076 -42366,84613l-190513 0c2886,-45077 14256,-84613 33884,-118433 16909,-28223 43745,-52116 80339,-71800zm-456819 67583l0 0c-11257,-39528 -26836,-71969 -46576,-97193 -2822,-5548 -7096,-9926 -12636,-12588 -19740,-25617 -45189,-43970 -76186,-55059 -33819,-16965 -77573,-25392 -131132,-25392l-152252 0 0 630366 190345 0c28166,0 57889,-5709 88822,-17022 31109,-5493 57776,-22515 80403,-50794 22562,-25392 39472,-56325 50729,-93200 14136,-36481 21071,-83113 21071,-139447 0,-50841 -4161,-97417 -12588,-139671zm-59212 -346862l0 0c5540,0 11193,1548 16910,4210 59212,19684 105731,50785 139607,93039 39480,42359 70421,92984 93039,152420 22515,61874 33820,133899 33820,215681 0,70477 -8427,139616 -25280,207206 -22675,62099 -48068,114440 -76234,156630 -42311,47963 -90162,81950 -143721,101466 -11361,8595 -24006,15635 -38141,21183 -45189,16798 -95814,25617 -152316,25617l-418838 0 0 -1007062 418838 0c56502,0 107127,9927 152316,29610zm5922608 346862l0 0c28055,-42190 61874,-71969 101410,-88822 36698,-19628 74903,-29770 114215,-29770 53503,0 97417,7095 131237,21231 30772,14087 56333,33771 76242,59164 16797,25449 29385,57881 37812,97249 8763,36874 12588,76242 12588,118432l0 452882 -194450 0 0 -414509c0,-59388 -9926,-103134 -29610,-131188 -14135,-30997 -45245,-46632 -93039,-46632 -50785,0 -87435,15635 -109998,46632 -22570,33819 -33987,88822 -33987,165008l0 380689 -198667 0 0 -727559 181861 0 0 97193 4386 0zm-753176 -105788l0 0c39697,-8427 77509,-12644 114383,-12644 36706,0 72025,4217 105620,12644 39761,2830 72025,9926 97417,21183 33659,14136 57889,38037 71864,72025 19684,25393 29771,57881 29771,97249l0 380689c0,30941 2718,62042 8427,92983 5548,34044 11481,57889 16805,72249l-190240 0 -17022 -72249c-28055,34044 -63598,56558 -105620,67863 -42414,11258 -86168,16806 -131244,16806 -30933,0 -60543,-2718 -88822,-8427 -31158,-11257 -57890,-23845 -80396,-38037 -22730,-19852 -36706,-43689 -42198,-71968 -17022,-28279 -25617,-60768 -25617,-97257 0,-39528 8595,-71800 25617,-97193 11426,-31157 28055,-53671 50793,-67863 19460,-13919 45077,-24014 76018,-29554 36650,-14144 64921,-22570 84605,-25449l84612 -8595c30941,-5548 56390,-11257 76018,-16797 25617,-5549 43970,-12588 55059,-21184 8595,-8426 12580,-23901 12580,-46632 0,-19684 -2662,-36481 -8427,-50617 -2662,-11481 -11257,-22738 -25393,-33995 -16966,-5316 -29610,-8427 -37980,-8427l-50842 -4210c-36650,0 -66260,7096 -88822,21071 -22682,16966 -35319,45237 -37981,84605l-186463 0c0,-42190 9974,-81782 29826,-118264 22514,-28223 46576,-52116 71800,-72024 31166,-16798 66485,-29386 105852,-37981zm-1209938 29610l0 0 0 706544 -198611 0 0 -1006838 291867 0 232647 689578 215857 -689578 300294 0 0 1006838 -203269 0 0 -714971 -4210 0 -232655 714971 -160846 0 -236865 -706544 -4209 0zm3752513 380689l0 0 -139616 25617c-8427,2831 -19459,5492 -33595,8371 -11481,14143 -19852,25449 -25617,33819 -5380,16806 -8427,32441 -8427,46632 0,16966 2710,32441 8427,46576 5765,11257 15635,21015 29770,29442 5380,5709 16862,9926 33660,12756l50785 4210c34044,0 62098,-5485 84837,-16966 19459,-11089 35150,-26555 46408,-46408 2878,-17022 8595,-35150 17021,-55058l4210 -122594c-11089,5549 -22562,12588 -33820,21183l-34043 12420zm600755 -680983l0 0 0 1006838 -186023 0 0 -1006838 186023 0zm-947625 380689l0 0c19684,-28223 46407,-52116 80451,-71800 28223,-17022 61874,-29778 101411,-38205 39536,-8427 77573,-12644 114222,-12644 42190,0 79065,4217 109998,12644 33827,2830 66315,9926 97256,21183 25561,14136 49455,38037 72025,72025 19628,25393 29602,57881 29602,97249l0 380689c0,30941 1499,62042 4217,92983 5709,34044 12589,57889 21344,72249l-194834 0 -12588 -72249c-31158,34044 -67808,56558 -109998,67863 -36874,11258 -79128,16806 -126867,16806 -33988,0 -64920,-2718 -93200,-8427 -28279,-11257 -52172,-23845 -72024,-38037 -25393,-19852 -43746,-43689 -55003,-71968 -11257,-28279 -16797,-60768 -16797,-97257 0,-39528 5540,-71800 16797,-97193 16966,-31157 36874,-53671 59212,-67863 19852,-13919 45245,-24014 76186,-29554 36706,-14144 64985,-22570 84669,-25449l84605 -8595c33603,-5548 59220,-11257 76017,-16797 22514,-5549 39536,-12588 50793,-21184 14136,-8426 19901,-23901 16854,-46632 0,-22506 -5548,-39367 -16854,-50617 0,-11481 -7047,-22738 -21014,-33995 -14088,-5316 -28280,-8427 -42423,-8427l-46568 -4210c-39368,0 -70477,7096 -93039,21071 -16966,16966 -28279,45237 -33820,84605l-194618 0c2887,-42022 14304,-81558 33988,-118264zm-418894 -122649l0 0c45076,0 86160,7104 122649,21239 31102,13919 56494,33820 76178,59212 19684,25401 33828,57665 42254,97201 5709,36706 8596,76074 8596,118432l0 452714 -186248 0 0 -414509c0,-59388 -11305,-103134 -33595,-131188 -14199,-30997 -45132,-46632 -93264,-46632 -50785,0 -88822,15635 -114214,46632 -22515,36650 -33828,91652 -33828,165008l0 380689 -194610 0 0 -1006838 194610 0 0 376472 4218 0c22730,-42190 53671,-71969 93199,-88822 39368,-19628 77349,-29610 114055,-29610z"/>
  <path class="fil3" d="M7949865 680991c0,-50794 16805,-94539 50793,-131021 42030,-33987 90209,-50849 143657,-50849 56558,0 100079,16862 131244,50849 36650,36482 54835,80227 54835,131021 0,62098 -18353,108506 -54835,139607 -31165,39536 -74686,59220 -131244,59220 -53448,0 -101627,-19684 -143657,-59220 -33988,-39528 -50793,-85944 -50793,-139607zm-1505902 503499l0 0c16909,36481 31045,73355 42414,110061 14136,30941 21127,66091 21127,105620l0 232654 46576 0c28055,0 56222,-5548 84549,-17022 25344,-19683 50625,-35150 75905,-46407 17022,-31109 32601,-59220 46632,-84613 17022,-25392 25393,-53447 25393,-84612 0,-36698 -8371,-64921 -25393,-84605 -8595,-22739 -23949,-43746 -46632,-63430 -25336,-25400 -49342,-45076 -71800,-59220 -31053,-5708 -60599,-8426 -88766,-8426l-110005 0zm-283384 0l0 0 -17022 0c-14032,0 -30829,5548 -50681,16853l-46520 42198c-16910,19844 -31045,43914 -42302,72025 -19796,25392 -29723,53672 -29723,84605 0,31165 9870,57664 29723,80403 11257,28111 26723,57713 46519,88822l0 -8595c42303,48123 91597,72024 148043,72024l122697 0 0 -232654c0,-36698 -5709,-64921 -16910,-84605 -14191,-28111 -33875,-50850 -59268,-67647l-84556 -63429zm3834687 -469680l0 0c17022,-8427 45077,-14143 84830,-16805l0 1112408 -4898966 0c-11144,25401 -23957,50794 -38093,76242 -8426,14136 -18352,29610 -29610,46576 -8482,11257 -19683,23894 -33875,38037 -39480,30933 -83001,56334 -131076,76018 -42303,25392 -97305,37972 -164952,37972 -53560,0 -104345,-12580 -152308,-37972 -8427,-2662 -17022,-7104 -25280,-12645 -39649,-19627 -74687,-45020 -105852,-76185 -2767,-2662 -5653,-4210 -8588,-4210l-16805 -12588 -12748 -16797c-16854,-2887 -50681,-57889 -101467,-165064 -56502,-112836 -47963,-277676 25281,-494856 31053,5709 53671,11257 67815,16797 14135,8596 26667,14144 37924,16966 8588,2887 14248,8435 16966,17022 22787,13975 38141,33828 46520,59220 8587,19684 12805,43746 12805,71857l0 232654c0,28271 2774,53672 8426,76122 8483,16806 18409,33603 29723,50625 8258,8595 16853,18353 25280,29827 19796,16805 43633,33827 71912,50793 28167,8370 55003,12580 80396,12580 33827,0 63429,-4210 88774,-12580 25505,-16966 50785,-33988 76178,-50793 16909,-17022 31053,-42415 42310,-76234 11193,-30885 16910,-57833 16910,-80340l0 -803632c0,-59388 16909,-100079 50841,-122818 14031,-16797 32384,-29602 54890,-38029 0,-2830 1444,-4161 4218,-4161 25392,-5765 52341,-9982 80395,-12644l0 934652 670560 0c-30998,-39536 -50673,-80235 -59108,-122649 -11362,-33988 -17022,-70469 -17022,-110005 0,-42191 5660,-81783 17022,-118433 8435,-31157 28110,-64920 59108,-101626 -56446,-11257 -95862,-28055 -118433,-50625l-33819 -46576 -16966 -88822 854698 0c56222,-2887 109893,7040 160454,29610 47963,22506 91709,53447 131245,92983 79120,79121 118432,173652 118432,283489 -2830,42422 -9926,80403 -21183,114222 -11257,39528 -30941,78896 -59212,118432l1226511 0 0 -490694c0,-22570 4217,-43745 12588,-63429 8595,-17022 19908,-35319 33819,-55003 19909,-14144 39537,-28279 59389,-42415 16853,-13975 42246,-21015 76065,-21015l0 672556 416954 0 0 -232654c5549,-109837 49294,-207255 131245,-291867 42190,-33820 87267,-62099 135230,-84605 47962,-19684 97417,-29610 148042,-29610 62098,0 117101,9926 165056,29610 45084,22506 90161,52116 135398,88822 36706,33763 61938,77517 76073,131020 25561,48124 38206,100304 38206,156630 0,36649 -5765,73355 -17022,110005 -14144,42414 -31166,83113 -50625,122649l418726 0 0 -757224c2661,-53448 19467,-94531 50793,-122810 11473,-13919 29770,-26724 55002,-37981zm385123 37981l0 0c22515,28279 33603,69138 33603,122810l0 934812c-22570,0 -46407,-5540 -71856,-16797 -22514,-14136 -42366,-26724 -59220,-38037 -14136,-16910 -25393,-33763 -33763,-50954 -5549,-22506 -8596,-45076 -8596,-67590l0 -939030c28223,2662 53672,7047 76403,12588 22514,11257 43529,25392 63429,42198zm-1049091 562775l0 0c-8595,-28111 -25617,-53503 -50786,-76242 -22570,-25393 -43970,-42190 -63429,-50617 -25617,-11257 -56558,-17022 -93264,-17022 -28215,-5492 -53672,0 -75961,17022 -28328,8427 -52341,25224 -72241,50617 -19460,19852 -37813,45076 -54835,76242 -11257,19684 -16966,47907 -16966,84605l0 232654 220003 0c28335,0 55059,-8370 80451,-25392 30941,-14144 56334,-26780 76242,-38037 22515,-31109 37813,-60711 46408,-88822 19684,-25401 29610,-52124 29610,-80403 0,-36698 -8427,-64921 -25232,-84605zm2590761 -604973l0 0c25393,11257 46576,25392 63430,42198 36874,28279 55003,69138 55003,122810l0 934812c-36706,0 -67808,-5540 -93040,-16797 -19844,-14136 -38197,-26724 -55003,-38037 -17022,-16910 -28271,-33763 -33819,-50954 -11257,-22506 -16966,-45076 -16966,-67590l0 -939030c33763,2662 60495,7047 80395,12588zm1188651 604973l0 0c-14087,-22739 -33771,-43746 -59164,-63430 -22570,-25400 -47963,-45076 -76073,-59220 -25561,-5708 -55003,-8426 -88991,-8426l-219842 0c-25393,0 -49511,-7040 -72025,-21184 -19684,-5708 -40859,-18353 -63429,-38029 -16798,-11257 -26724,-26891 -29771,-46575 -2718,-14144 -5548,-42415 -8426,-84613l393493 0c59220,0 114223,9926 165064,29610 50786,22506 92984,52116 126803,88822 42415,33763 72025,77517 89047,131020 22514,48124 33771,100304 33771,156630 0,56333 -11257,112891 -33771,169225 -17022,45076 -46632,88822 -89047,131020 -36650,36706 -78896,60711 -126803,71969 -45132,25609 -100135,38028 -165064,38028l-516143 0c5765,-67638 24062,-114158 55003,-139382 33819,-25401 73355,-38206 118488,-38206l342652 0c33988,0 63430,-8370 88991,-25232 25232,-14135 49294,-26940 71856,-38197 28279,-30941 47907,-60551 59220,-88822 11474,-22514 16797,-49238 16797,-80235 0,-31101 -4209,-59381 -12636,-84773zm-1607545 592273l0 0c0,16797 -4209,37980 -12636,63429 -14143,16798 -29610,32432 -46576,46408 -14143,19844 -32496,38197 -55002,55002 -19684,8427 -46632,12580 -80235,12580l0 -921952c0,-17022 7047,-35318 21014,-55002 2831,-19901 16966,-36698 42367,-50842 14135,-22506 32488,-40859 55003,-55002 25224,-5541 50841,-9927 76065,-12588l0 917967z"/>
 </g>
</svg>
