<?xml version="1.0" encoding="utf-8"?>
<!-- Generator: Adobe Illustrator 21.0.0, SVG Export Plug-In . SVG Version: 6.00 Build 0)  -->
<svg version="1.1" id="Isolation_Mode_1_" xmlns="http://www.w3.org/2000/svg" xmlns:xlink="http://www.w3.org/1999/xlink" x="0px"
	 y="0px" viewBox="-0.6 -78.2 1037.1 766.1" style="enable-background:new -0.6 -78.2 1037.1 766.1;" xml:space="preserve">
<style type="text/css">
	.st0{fill:#FFFFFF;}
</style>
<g id="Isolation_Mode">
	<g id="surface1">
		<path class="st0" d="M924.4,492.1l-2.6-428c-0.2-31.8-26.1-57.4-57.9-57.2L231,10.8c-31.8,0.2-57.4,26.1-57.2,57.9l0.2,28.8
			l28.8-0.2l-0.2-28.8c-0.1-15.9,12.7-28.8,28.6-28.9l632.9-3.8c15.9-0.1,28.8,12.7,28.9,28.6l2.6,428c0.1,15.9-12.7,28.8-28.6,28.9
			l-28.8,0.2l0.2,28.8l28.8-0.2C899,549.8,924.6,523.8,924.4,492.1z"/>
		<path class="st0" d="M811.5,156.2c-0.2-34.5-28.3-62.3-62.8-62.1L61.5,98.3C27,98.5-0.8,126.7-0.6,161.2l2.8,464.7
			c0.2,34.5,28.3,62.3,62.8,62.1l687.1-4.2c34.5-0.2,62.3-28.3,62.1-62.8L811.5,156.2z M783,621.1c0.1,17.3-13.8,31.3-31,31.4
			l-687.1,4.2c-17.3,0.1-31.3-13.8-31.4-31L30.6,161c-0.1-17.3,13.8-31.3,31-31.4l687.1-4.2c17.3-0.1,31.3,13.8,31.4,31L783,621.1z"
			/>
		<path class="st0" d="M1036.5,407l-2.6-428c-0.2-31.8-26.1-57.4-57.9-57.2l-632.9,3.8c-31.8,0.2-57.4,26.1-57.2,57.9l0.2,28.8
			l28.8-0.2l-0.2-28.8c-0.1-15.9,12.7-28.8,28.6-28.9l632.9-3.8c15.9-0.1,28.8,12.7,28.9,28.6l2.6,428c0.1,15.9-12.7,28.8-28.6,28.9
			l-28.8,0.2l0.2,28.8l28.8-0.2C1011.1,464.7,1036.7,438.7,1036.5,407z"/>
		<g id="Play">
			<path class="st0" d="M534.1,363.9L351,248.5c-5.4-3.2-12.1-2.7-17.2-2.7c-20.3,0-20.2,15.7-20.2,19.7v235.9
				c0,3.4-0.1,19.7,20.2,19.7c5.1,0,11.8,0.5,17.2-2.7l183.2-115.4c15-8.9,12.4-19.5,12.4-19.5S549.1,372.8,534.1,363.9z"/>
		</g>
	</g>
</g>
</svg>
