<?xml version="1.0" encoding="utf-8"?>
<!-- Generator: Adobe Illustrator 16.0.0, SVG Export Plug-In . SVG Version: 6.00 Build 0)  -->
<!DOCTYPE svg PUBLIC "-//W3C//DTD SVG 1.1//EN" "http://www.w3.org/Graphics/SVG/1.1/DTD/svg11.dtd">
<svg version="1.1" id="Layer_1" xmlns="http://www.w3.org/2000/svg" xmlns:xlink="http://www.w3.org/1999/xlink" x="0px" y="0px"
	 width="476px" height="492px" viewBox="0 0 476 492" enable-background="new 0 0 476 492" xml:space="preserve">
<g>
	<defs>
		<rect id="SVGID_1_" width="476" height="492"/>
	</defs>
	<clipPath id="SVGID_2_">
		<use xlink:href="#SVGID_1_"  overflow="visible"/>
	</clipPath>
	<path clip-path="url(#SVGID_2_)" fill="#FFFFFF" d="M314.546,157.453c-3.905-3.906-10.237-3.905-14.143,0L258.5,199.358
		c-3.905,3.905-3.905,10.237,0,14.143c1.952,1.952,4.512,2.928,7.071,2.928c2.559,0,5.118-0.976,7.07-2.929l41.904-41.904
		C318.451,167.691,318.451,161.359,314.546,157.453"/>
	<path clip-path="url(#SVGID_2_)" fill="#FFFFFF" d="M307.694,287.639l-35.053-35.053c-3.905-3.905-10.237-3.905-14.143,0
		s-3.905,10.237,0,14.144l35.053,35.053c1.953,1.952,4.512,2.929,7.071,2.929c2.559,0,5.119-0.977,7.07-2.929
		C311.6,297.876,311.6,291.544,307.694,287.639"/>
	<path clip-path="url(#SVGID_2_)" fill="#FFFFFF" d="M337.36,317.3c-1.86-1.859-4.44-2.92-7.07-2.92s-5.21,1.06-7.07,2.92
		c-1.859,1.859-2.93,4.439-2.93,7.08c0,2.63,1.07,5.21,2.93,7.069c1.86,1.86,4.44,2.931,7.07,2.931s5.21-1.069,7.07-2.931
		c1.859-1.869,2.93-4.439,2.93-7.069C340.29,321.739,339.22,319.17,337.36,317.3"/>
	<path clip-path="url(#SVGID_2_)" fill="#FFFFFF" d="M219.414,199.358l-41.904-41.904c-3.905-3.905-10.237-3.905-14.142,0
		c-3.905,3.905-3.905,10.237,0,14.142l41.904,41.904c1.953,1.953,4.512,2.929,7.071,2.929c2.559,0,5.119-0.977,7.071-2.929
		C223.319,209.595,223.319,203.263,219.414,199.358"/>
	<path clip-path="url(#SVGID_2_)" fill="#FFFFFF" d="M335.855,223.043h-18.666c-5.523,0-10,4.477-10,10s4.477,10,10,10h18.666
		c5.522,0,10-4.477,10-10S341.378,223.043,335.855,223.043"/>
	<path clip-path="url(#SVGID_2_)" fill="#FFFFFF" d="M238.957,126.145c-5.523,0-10,4.477-10,10v18.666c0,5.523,4.477,10,10,10
		c5.523,0,10-4.477,10-10v-18.666C248.957,130.622,244.48,126.145,238.957,126.145"/>
	<path clip-path="url(#SVGID_2_)" fill="#FFFFFF" d="M388,0c-46.318,0-84,37.682-84,84s37.682,84,84,84s84-37.682,84-84
		S434.318,0,388,0 M388,148c-35.29,0-64-28.71-64-64s28.71-64,64-64s64,28.71,64,64S423.29,148,388,148"/>
	<path clip-path="url(#SVGID_2_)" fill="#FFFFFF" d="M84,0C37.682,0,0,37.682,0,84s37.682,84,84,84s84-37.682,84-84S130.318,0,84,0
		 M84,148c-35.29,0-64-28.71-64-64s28.71-64,64-64s64,28.71,64,64S119.29,148,84,148"/>
	<path clip-path="url(#SVGID_2_)" fill="#FFFFFF" d="M392,492c46.318,0,84-37.684,84-84s-37.682-84-84-84s-84,37.684-84,84
		S345.682,492,392,492"/>
	<path clip-path="url(#SVGID_2_)" fill="#FFFFFF" d="M392,472c-35.29,0-64-28.71-64-64s28.71-64,64-64s64,28.71,64,64
		S427.29,472,392,472"/>
</g>
<g>
	<defs>
		<path id="SVGID_3_" d="M323,407.18c0,37.944,30.87,68.821,68.82,68.821c37.952,0,68.82-30.877,68.82-68.821
			c0-37.936-30.868-68.8-68.82-68.8C353.87,338.38,323,369.244,323,407.18"/>
	</defs>
	<clipPath id="SVGID_4_">
		<use xlink:href="#SVGID_3_"  overflow="visible"/>
	</clipPath>
	
		<radialGradient id="SVGID_5_" cx="0" cy="492" r="1" gradientTransform="matrix(0.7334 89.4777 89.4777 -0.7334 -43636.5742 792.7819)" gradientUnits="userSpaceOnUse">
		<stop  offset="0" style="stop-color:#FFFFFF"/>
		<stop  offset="0.503" style="stop-color:#FFFFFF"/>
		<stop  offset="0.8545" style="stop-color:#B8C5D9"/>
		<stop  offset="1" style="stop-color:#B8C5D9"/>
	</radialGradient>
	<polygon clip-path="url(#SVGID_4_)" fill="url(#SVGID_5_)" points="460.632,337.252 461.769,475.992 323.009,477.129 
		321.872,338.39 	"/>
</g>
</svg>
