<?xml version="1.0" encoding="utf-8"?>
<!-- Generator: Adobe Illustrator 16.0.0, SVG Export Plug-In . SVG Version: 6.00 Build 0)  -->
<!DOCTYPE svg PUBLIC "-//W3C//DTD SVG 1.1//EN" "http://www.w3.org/Graphics/SVG/1.1/DTD/svg11.dtd">
<svg version="1.1" id="Layer_1" xmlns="http://www.w3.org/2000/svg" xmlns:xlink="http://www.w3.org/1999/xlink" x="0px" y="0px"
	 width="48px" height="101.5px" viewBox="0 0 48 101.5" enable-background="new 0 0 48 101.5" xml:space="preserve">
<rect display="none" fill="#00A19A" width="48" height="48"/>
<g display="none">
	<g display="inline">
		<path fill="#EB5F1D" d="M32.661,34.328c-2.575,0-4.663,2.09-4.663,4.666s2.088,4.664,4.663,4.664c2.577,0,4.666-2.088,4.666-4.664
			S35.238,34.328,32.661,34.328z"/>
		<path fill="#EB5F1D" d="M21,34.328c-2.577,0-4.666,2.09-4.666,4.666s2.088,4.664,4.666,4.664c2.576,0,4.665-2.088,4.665-4.664
			S23.576,34.328,21,34.328z"/>
		<path fill="#EB5F1D" d="M41.558,14.302c-0.444-0.609-1.146-0.968-1.898-0.968H15.683L13.881,7.93
			c-0.317-0.952-1.207-1.594-2.212-1.594H7.006c-1.289,0-2.333,1.042-2.333,2.333c0,1.292,1.043,2.333,2.333,2.333h2.982
			L16.453,30.4c0.319,0.953,1.209,1.595,2.214,1.595h16.327c1.01,0,1.896-0.642,2.215-1.595l4.666-13.997
			C42.111,15.694,41.992,14.912,41.558,14.302z"/>
	</g>
</g>
<rect y="53.5" display="none" fill="#E30613" width="48" height="48"/>
<g display="none">
	<g display="inline">
		<path fill="#FFFFFF" d="M32.661,87.328c-2.575,0-4.663,2.09-4.663,4.666s2.088,4.664,4.663,4.664c2.577,0,4.666-2.088,4.666-4.664
			S35.238,87.328,32.661,87.328z"/>
		<path fill="#FFFFFF" d="M21,87.328c-2.577,0-4.666,2.09-4.666,4.666s2.088,4.664,4.666,4.664c2.576,0,4.665-2.088,4.665-4.664
			S23.576,87.328,21,87.328z"/>
		<path fill="#FFFFFF" d="M41.558,67.303c-0.444-0.609-1.146-0.969-1.898-0.969H15.683l-1.802-5.404
			c-0.317-0.951-1.207-1.594-2.212-1.594H7.006c-1.289,0-2.333,1.043-2.333,2.332c0,1.293,1.043,2.334,2.333,2.334h2.982
			L16.453,83.4c0.319,0.953,1.209,1.595,2.214,1.595h16.327c1.01,0,1.896-0.642,2.215-1.595l4.666-13.997
			C42.111,68.693,41.992,67.912,41.558,67.303z"/>
	</g>
</g>
<g>
	<path fill="#EB5F1D" d="M24.498,77.932c4.155,0,7.522-4.092,7.522-9.139s-1.106-9.138-7.522-9.138
		c-6.417,0-7.523,4.091-7.523,9.138S20.343,77.932,24.498,77.932z"/>
	<path fill="#EB5F1D" d="M10.289,91.882C10.287,91.575,10.286,91.796,10.289,91.882L10.289,91.882z"/>
	<path fill="#EB5F1D" d="M38.707,92.122C38.711,92.039,38.708,91.539,38.707,92.122L38.707,92.122z"/>
	<path fill="#EB5F1D" d="M38.69,91.515c-0.138-8.791-1.288-11.297-10.073-12.883c0,0-1.237,1.575-4.119,1.575
		c-2.884,0-4.121-1.575-4.121-1.575c-8.69,1.569-9.907,4.036-10.067,12.597c-0.014,0.698-0.02,0.735-0.022,0.653
		c0.001,0.152,0.002,0.433,0.002,0.925c0,0,2.091,4.216,14.208,4.216c12.116,0,14.209-4.216,14.209-4.216c0-0.314,0-0.535,0-0.684
		C38.704,92.174,38.699,92.075,38.69,91.515z"/>
</g>
<g>
	<path fill="#6F6E6E" d="M24.498,22.932c4.155,0,7.522-4.092,7.522-9.139s-1.106-9.138-7.522-9.138
		c-6.417,0-7.523,4.091-7.523,9.138S20.343,22.932,24.498,22.932z"/>
	<path fill="#6F6E6E" d="M10.289,36.882C10.287,36.575,10.286,36.796,10.289,36.882L10.289,36.882z"/>
	<path fill="#6F6E6E" d="M38.707,37.122C38.711,37.039,38.708,36.539,38.707,37.122L38.707,37.122z"/>
	<path fill="#6F6E6E" d="M38.69,36.515c-0.138-8.791-1.288-11.297-10.073-12.883c0,0-1.237,1.575-4.119,1.575
		c-2.884,0-4.121-1.575-4.121-1.575c-8.69,1.569-9.907,4.036-10.067,12.597c-0.014,0.698-0.02,0.735-0.022,0.653
		c0.001,0.152,0.002,0.433,0.002,0.925c0,0,2.091,4.216,14.208,4.216c12.116,0,14.209-4.216,14.209-4.216c0-0.314,0-0.535,0-0.684
		C38.704,37.174,38.699,37.075,38.69,36.515z"/>
</g>
</svg>
