<?xml version="1.0" encoding="utf-8"?>
<!-- Generator: Adobe Illustrator 16.0.0, SVG Export Plug-In . SVG Version: 6.00 Build 0)  -->
<!DOCTYPE svg PUBLIC "-//W3C//DTD SVG 1.1//EN" "http://www.w3.org/Graphics/SVG/1.1/DTD/svg11.dtd">
<svg version="1.1" id="Isolation_Mode" xmlns="http://www.w3.org/2000/svg" xmlns:xlink="http://www.w3.org/1999/xlink" x="0px"
	 y="0px" width="45px" height="56px" viewBox="0 0 45 56" enable-background="new 0 0 45 56" xml:space="preserve">
<g>
	<circle fill="#1D1D1B" cx="25.514" cy="28.633" r="0.389"/>
	<path fill="#1D1D1B" d="M16.709,39.547c0.554-1.678,2.071-2.693,3.384-2.261c1.314,0.433,1.934,2.15,1.382,3.828
		c-0.552,1.681-2.071,2.694-3.383,2.262c-0.536-0.175-0.969-0.564-1.251-1.129C16.448,41.47,16.401,40.485,16.709,39.547
		L16.709,39.547z M27.188,28.742c0.494-1.199,2.932-6.994,4.057-11.053c1.283-4.622,1.021-5.354,0.614-5.398l-8.02,16.451
		c-1.662,3.56-0.952,3.776-2.687,5.202c-1.102,0.906-2.697,1.77-3.5,2.391c-0.988,0.554-1.816,1.531-2.229,2.788
		c-0.421,1.276-0.346,2.639,0.208,3.734c0.442,0.877,1.166,1.517,2.036,1.805c2.022,0.664,4.15-0.793,5.093-3.125
		c0.603-1.488,0.234-5.591,0.624-7.039c0.261-0.98,1.246-2.212,2.129-3.258C26.113,30.588,26.692,29.942,27.188,28.742z"/>
	<path fill="#1D1D1B" d="M34.135,42.245c-0.282,0.564-0.715,0.955-1.251,1.128c-1.312,0.433-2.828-0.582-3.385-2.261
		c-0.552-1.676,0.069-3.394,1.383-3.827c1.312-0.435,2.831,0.581,3.385,2.26C34.575,40.485,34.528,41.47,34.135,42.245
		L34.135,42.245z M25.463,31.241c0.883,1.046,1.868,2.278,2.13,3.258c0.388,1.449,0.02,5.55,0.62,7.038
		c0.942,2.332,3.073,3.79,5.097,3.126c0.869-0.284,1.593-0.926,2.035-1.805c0.554-1.097,0.629-2.457,0.209-3.734
		c-0.412-1.255-1.24-2.233-2.228-2.787c-0.801-0.621-2.399-1.486-3.501-2.392c-1.735-1.425-1.023-1.644-2.688-5.201l-8.02-16.453
		c-0.408,0.044-0.668,0.776,0.614,5.398c1.125,4.06,3.563,9.854,4.057,11.053C24.281,29.942,24.863,30.588,25.463,31.241z"/>
</g>
</svg>
