<?xml version="1.0" encoding="utf-8"?>
<!-- Generator: Adobe Illustrator 16.0.0, SVG Export Plug-In . SVG Version: 6.00 Build 0)  -->
<!DOCTYPE svg PUBLIC "-//W3C//DTD SVG 1.1//EN" "http://www.w3.org/Graphics/SVG/1.1/DTD/svg11.dtd">
<svg version="1.1" id="Capa_1" xmlns="http://www.w3.org/2000/svg" xmlns:xlink="http://www.w3.org/1999/xlink" x="0px" y="0px"
	 width="512px" height="512px" viewBox="0 0 512 512" enable-background="new 0 0 512 512" xml:space="preserve">
<g>
	<g>
		<g>
			<path fill="#575656" d="M85.148,49.277v235.57c1.704,0.185,3.417,0.41,5.133,0.711c17.079,3.008,35.167,11.936,53.763,26.535
				c5.458,4.283,10.328,8.563,14.458,12.431c5.891-5.839,12.908-13.056,19.615-20.181h-44.183V112.261h329.284v192.083H265.131
				c-2.271,8.095-6.988,16.504-14.119,24.643l-0.2,0.246h27.945v32.525h-53.341l-22.332,25.897h288.59
				c11.227,0,20.326-9.1,20.326-20.326V49.277c0-11.226-9.1-20.326-20.326-20.326H105.476C94.249,28.951,85.15,38.052,85.148,49.277
				z M370.225,361.756h-51.832v-32.523h51.832V361.756z M461.694,361.756h-51.833v-32.523h51.833V361.756z M409.861,54.849h51.833
				v32.522h-51.833V54.849z M318.393,54.849h51.832v32.522h-51.832V54.849z M226.925,54.849h51.832v32.522h-51.832V54.849z
				 M135.457,54.849h51.832v32.522h-51.832V54.849z"/>
			<path fill="#575656" d="M26.112,456.345c20.021,15.72,42.292,24.588,66.193,26.369c19.271,1.432,39.638-1.728,60.543-9.396
				c32.611-11.96,57.308-31.388,66.412-39.188c0.178-0.154,0.303-0.262,0.372-0.317c6.16-4.937,9.276-9.861,9.253-14.627
				c-0.016-3.31-1.607-6.374-4.477-8.629c-7.173-5.629-21.378-5.672-29.815-0.096c-9.23,6.104-32.095,17.411-39.932,11.257
				c-0.422-0.333-0.791-0.718-1.122-1.159l81.702-100.01c0.527-0.641,20.894-22.719,6.99-36.234
				c-12.917-11.66-30.228,5.232-36.939,13.176c-13.366,15.816-40.589,43.867-50.339,52.266c-3.879-4.249-12.653-13.377-24.269-22.5
				c-16.441-12.908-32.065-20.734-46.443-23.268c-20.133-3.547-37.136,3.305-50.53,20.368c-9.874,12.578-27.191,37.734-32.24,64.944
				C-3.655,416.918,4.636,439.475,26.112,456.345z"/>
			<path fill="#575656" d="M281.044,140.001c-3.126-2.623-7.487-3.191-11.188-1.467c-3.697,1.725-6.062,5.437-6.062,9.518v110.786
				c0,4.082,2.363,7.792,6.062,9.516c1.419,0.664,2.935,0.986,4.441,0.986c2.422,0,4.819-0.839,6.747-2.453l66.102-55.394
				c2.383-1.996,3.758-4.945,3.758-8.051s-1.375-6.055-3.758-8.05L281.044,140.001z"/>
		</g>
	</g>
</g>
</svg>
