<?xml version="1.0" encoding="utf-8"?>
<!-- Generator: Adobe Illustrator 16.0.0, SVG Export Plug-In . SVG Version: 6.00 Build 0)  -->
<!DOCTYPE svg PUBLIC "-//W3C//DTD SVG 1.1//EN" "http://www.w3.org/Graphics/SVG/1.1/DTD/svg11.dtd">
<svg version="1.1" id="Capa_1" xmlns="http://www.w3.org/2000/svg" xmlns:xlink="http://www.w3.org/1999/xlink" x="0px" y="0px"
	 width="512px" height="512px" viewBox="0 0 512 512" enable-background="new 0 0 512 512" xml:space="preserve">
<g>
	<g>
		<g>
			<path fill="#929292" d="M406.525,28.951H20.326C9.1,28.951,0,38.052,0,49.277v318.052c0,11.227,9.1,20.326,20.326,20.326h288.59
				l-22.332-25.897h-53.341v-32.525h27.945l-0.2-0.246c-7.131-8.139-11.849-16.548-14.119-24.643H48.782V112.261h329.284v192.083
				h-44.183c6.707,7.125,13.725,14.342,19.615,20.181c4.13-3.868,9-8.147,14.458-12.431c18.596-14.6,36.684-23.527,53.763-26.535
				c1.716-0.301,3.429-0.526,5.133-0.711V49.277C426.851,38.052,417.751,28.951,406.525,28.951z M141.776,329.232h51.832v32.523
				h-51.832V329.232z M50.307,329.232h51.833v32.523H50.307V329.232z M102.14,87.371H50.307V54.849h51.833V87.371z M193.608,87.371
				h-51.832V54.849h51.832V87.371z M285.075,87.371h-51.832V54.849h51.832V87.371z M376.543,87.371h-51.832V54.849h51.832V87.371z"
				/>
			<path fill="#929292" d="M510.53,389.301c-5.049-27.21-22.366-52.366-32.24-64.944c-13.395-17.063-30.397-23.915-50.53-20.368
				c-14.378,2.533-30.002,10.359-46.443,23.268c-11.615,9.123-20.39,18.251-24.269,22.5c-9.75-8.398-36.973-36.449-50.339-52.266
				c-6.712-7.943-24.022-24.836-36.939-13.176c-13.903,13.516,6.463,35.594,6.99,36.234l81.702,100.01
				c-0.331,0.441-0.7,0.826-1.122,1.159c-7.837,6.154-30.701-5.153-39.932-11.257c-8.438-5.576-22.643-5.533-29.815,0.096
				c-2.869,2.255-4.461,5.319-4.477,8.629c-0.023,4.766,3.093,9.69,9.253,14.627c0.069,0.056,0.194,0.163,0.372,0.317
				c9.104,7.801,33.801,27.229,66.412,39.188c20.905,7.668,41.271,10.827,60.543,9.396c23.901-1.781,46.172-10.649,66.193-26.369
				C507.365,439.475,515.656,416.918,510.53,389.301z"/>
			<path fill="#929292" d="M193.347,140.001c-3.126-2.623-7.487-3.191-11.188-1.467c-3.697,1.725-6.062,5.437-6.062,9.518v110.786
				c0,4.082,2.363,7.792,6.062,9.516c1.419,0.664,2.935,0.986,4.441,0.986c2.422,0,4.819-0.839,6.747-2.453l66.102-55.394
				c2.383-1.996,3.758-4.945,3.758-8.051s-1.375-6.055-3.758-8.05L193.347,140.001z"/>
		</g>
	</g>
</g>
</svg>
