
<svg xmlns="http://www.w3.org/2000/svg" version="1.1" xmlns:xlink="http://www.w3.org/1999/xlink" preserveAspectRatio="none" x="0px" y="0px" width="377px" height="334px" viewBox="0 0 377 334">
<defs>
<g id="Layer0_0_FILL">
<path fill="#000000" fill-opacity="0.2" stroke="none" d="
M 765.7 355.05
Q 764.3 355.05 763.3 356.05 762.3 357.05 762.3 358.45
L 762.3 456.55
Q 762.3 457.9 763.3 458.95 764.3 459.9 765.7 459.9
L 767.4 459.9 767.4 461.6
Q 767.4 462.3 767.9 462.8 768.4 463.3 769.1 463.3
L 774.15 463.3
Q 774.85 463.3 775.6 462.85 776.3 462.4 776.6 461.8
L 777.55 459.9 828.3 459.9 829.2 461.8
Q 829.55 462.4 830.25 462.85 830.95 463.3 831.65 463.3
L 836.75 463.3
Q 837.45 463.3 837.95 462.8 838.45 462.3 838.45 461.6
L 838.45 459.9 840.1 459.9
Q 841.5 459.9 842.5 458.95 843.5 457.9 843.5 456.55
L 843.5 358.45
Q 843.5 357.05 842.5 356.05 841.5 355.05 840.1 355.05
L 765.7 355.05 Z"/>
</g>

<g id="Layer0_0_MEMBER_0_MEMBER_0_FILL">
<path fill="#A25425" stroke="none" d="
M 152.35 -1
L 152.35 -84.15 -129.15 -84.15 -129.15 -1 152.35 -1 Z"/>
</g>

<g id="Layer0_0_MEMBER_0_MEMBER_1_FILL">
<path fill="#A25425" stroke="none" d="
M 152.35 -97
L 152.35 -180.15 -129.15 -180.15 -129.15 -97 152.35 -97 Z"/>
</g>

<g id="Layer0_0_MEMBER_0_MEMBER_2_FILL">
<path fill="#A25425" stroke="none" d="
M 152.35 95
L 152.35 11.85 -129.15 11.85 -129.15 95 152.35 95 Z"/>
</g>

<g id="Layer0_0_MEMBER_0_MEMBER_3_FILL">
<path fill="#F5B445" stroke="none" d="
M 18 -1
L 18 -20.15 -58.8 -20.15 -58.8 -1 18 -1 Z"/>
</g>

<g id="Layer0_0_MEMBER_0_MEMBER_4_FILL">
<path fill="#ED2C39" stroke="none" d="
M 11.6 -39.35
L 11.6 -58.6 -65.15 -58.6 -65.15 -39.35 11.6 -39.35 Z"/>
</g>

<g id="Layer0_0_MEMBER_0_MEMBER_5_FILL">
<path fill="#3CB44A" stroke="none" d="
M 30.8 -20.15
L 30.8 -39.35 -46 -39.35 -46 -20.15 30.8 -20.15 Z"/>
</g>

<g id="Layer0_0_MEMBER_0_MEMBER_6_FILL">
<path fill="#73371B" stroke="none" d="
M -87.9 210.85
L -84.35 203.8 -122.8 203.8 -122.8 210.2
Q -122.8 212.85 -120.9 214.7 -119 216.6 -116.35 216.6
L -97.15 216.6
Q -94.55 216.6 -91.8 214.9 -89.1 213.2 -87.9 210.85 Z"/>
</g>

<g id="Layer0_0_MEMBER_0_MEMBER_7_FILL">
<path fill="#73371B" stroke="none" d="
M 146 210.2
L 146 203.8 107.55 203.8 111.1 210.85
Q 112.3 213.2 115 214.9 117.75 216.6 120.35 216.6
L 139.6 216.6
Q 142.25 216.6 144.1 214.7 146 212.85 146 210.2 Z"/>
</g>

<g id="Layer0_0_MEMBER_0_MEMBER_8_FILL">
<path fill="#7F4122" stroke="none" d="
M 152.35 -167.35
L 152.35 -180.15 -129.15 -180.15 -129.15 -97 -116.35 -97 -116.35 -141.8
Q -116.35 -151.2 -110 -158.55
L -110 -173.45 -52.35 -173.45 -52.35 -167.35 152.35 -167.35 Z"/>
</g>

<g id="Layer0_0_MEMBER_0_MEMBER_9_FILL">
<path fill="#673D17" stroke="none" d="
M 152.35 -71.35
L 152.35 -84.15 -129.15 -84.15 -129.15 -1 -116.35 -1 -116.35 -45.8
Q -116.35 -56.35 -108.85 -63.85 -101.35 -71.35 -90.8 -71.35
L 94.8 -71.35 94.8 -77.8 133.15 -77.8 133.15 -71.35 152.35 -71.35 Z"/>
</g>

<g id="Layer0_0_MEMBER_0_MEMBER_10_FILL">
<path fill="#7F4122" stroke="none" d="
M 152.35 -71.35
L 152.35 -84.15 -129.15 -84.15 -129.15 -1 -116.35 -1 -116.35 -45.8
Q -116.35 -56.35 -108.85 -63.85 -101.35 -71.35 -90.8 -71.35
L 94.8 -71.35 94.8 -77.8 133.15 -77.8 133.15 -71.35 152.35 -71.35 Z"/>
</g>

<g id="Layer0_0_MEMBER_0_MEMBER_11_FILL">
<path fill="#A25425" stroke="none" d="
M 152.35 191
L 152.35 107.8 -129.15 107.8 -129.15 191 152.35 191 Z"/>
</g>

<g id="Layer0_0_MEMBER_0_MEMBER_12_FILL">
<path fill="#7F4122" stroke="none" d="
M 152.35 120.6
L 152.35 107.8 -129.15 107.8 -129.15 191 -116.35 191 -116.35 146.15
Q -116.35 135.6 -108.85 128.1 -101.35 120.6 -90.8 120.6
L 152.35 120.6 Z"/>
</g>

<g id="Layer0_0_MEMBER_0_MEMBER_13_FILL">
<path fill="#7F4122" stroke="none" d="
M 152.35 24.6
L 152.35 11.85 -129.15 11.85 -129.15 95 -116.35 95 -116.35 50.15
Q -116.35 45.45 -114.65 41.05 -113 36.85 -110 33.4
L -110 18.2 -71.6 18.2 -71.6 24.6 -68.5 24.6 -54.2 17.6 -50.75 24.6 152.35 24.6 Z"/>
</g>

<g id="Layer0_0_MEMBER_0_MEMBER_14_FILL">
<path fill="#C87629" stroke="none" d="
M 161.4 -189.2
Q 157.65 -193 152.35 -193
L -129.15 -193
Q -134.45 -193 -138.2 -189.2 -142 -185.45 -142 -180.15
L -142 191
Q -142 196.25 -138.2 200.05 -134.45 203.8 -129.15 203.8
L 152.35 203.8
Q 157.65 203.8 161.4 200.05 165.15 196.25 165.15 191
L 165.15 -180.15
Q 165.15 -185.45 161.4 -189.2
M 152.35 -84.15
L 152.35 -1 -129.15 -1 -129.15 -84.15 152.35 -84.15
M 152.35 -180.15
L 152.35 -97 -129.15 -97 -129.15 -180.15 152.35 -180.15
M -129.15 95
L -129.15 11.85 152.35 11.85 152.35 95 -129.15 95
M -129.15 191
L -129.15 107.8 152.35 107.8 152.35 191 -129.15 191 Z"/>
</g>

<g id="Layer0_0_MEMBER_0_MEMBER_15_FILL">
<path fill="#ED2C39" stroke="none" d="
M 18 152.6
L 18 171.8 94.8 171.8 94.8 152.6 18 152.6 Z"/>
</g>

<g id="Layer0_0_MEMBER_0_MEMBER_16_FILL">
<path fill="#3CB44A" stroke="none" d="
M 37.15 171.8
L 37.15 191 114 191 114 171.8 37.15 171.8 Z"/>
</g>

<g id="Layer0_0_MEMBER_0_MEMBER_17_FILL">
<path fill="#50BEE7" stroke="none" d="
M 114 -77.8
L 114 -1 133.15 -1 133.15 -77.8 114 -77.8 Z"/>
</g>

<g id="Layer0_0_MEMBER_0_MEMBER_18_FILL">
<path fill="#ED2C39" stroke="none" d="
M 114 -77.8
L 94.8 -77.8 94.8 -1 114 -1 114 -77.8 Z"/>
</g>

<g id="Layer0_0_MEMBER_0_MEMBER_19_FILL">
<path fill="#F5B445" stroke="none" d="
M -52.35 -173.45
L -71.6 -173.45 -71.6 -96.65 -52.35 -96.65 -52.35 -173.45 Z"/>
</g>

<g id="Layer0_0_MEMBER_0_MEMBER_20_FILL">
<path fill="#ED2C39" stroke="none" d="
M -90.8 -173.45
L -90.8 -96.65 -71.6 -96.65 -71.6 -173.45 -90.8 -173.45 Z"/>
</g>

<g id="Layer0_0_MEMBER_0_MEMBER_21_FILL">
<path fill="#3CB44A" stroke="none" d="
M -90.8 -173.45
L -110 -173.45 -110 -96.65 -90.8 -96.65 -90.8 -173.45 Z"/>
</g>

<g id="Layer0_0_MEMBER_0_MEMBER_22_FILL">
<path fill="#F5B445" stroke="none" d="
M -71.6 95
L -71.6 18.2 -90.8 18.2 -90.8 95 -71.6 95 Z"/>
</g>

<g id="Layer0_0_MEMBER_0_MEMBER_23_FILL">
<path fill="#ED2C39" stroke="none" d="
M -90.8 18.2
L -110 18.2 -110 95 -90.8 95 -90.8 18.2 Z"/>
</g>

<g id="Layer0_0_MEMBER_0_MEMBER_24_FILL">
<path fill="#ED2C39" stroke="none" d="
M -54.2 17.6
L -71.45 26 -37.6 94.95 -20.35 86.5 -54.2 17.6 Z"/>
</g>

<g id="Layer0_0_MEMBER_1_FILL">
<path fill="#000000" fill-opacity="0.2" stroke="none" d="
M 857.3 425.6
Q 853.1 426.95 852.7 428.85
L 852.65 428.9
Q 851.8 429.75 851.8 430.9 851.8 432.05 852.65 432.85 853 433.2 853.45 433.45
L 853.45 463.1
Q 853.45 463.5 853.7 463.75 854 464.05 854.4 464.05
L 854.9 464.05
Q 855.3 464.05 855.55 463.75 855.85 463.5 855.85 463.1
L 856.4 441.7 859.8 441.7 859.8 459.1
Q 859.8 459.5 860.05 459.75 860.35 460.05 860.7 460.05
L 861.2 460.05
Q 861.6 460.05 861.9 459.75 862.15 459.5 862.15 459.1
L 862.15 441.7 874.95 441.7 874.95 459.1
Q 874.95 459.5 875.25 459.75 875.55 460.05 875.9 460.05
L 876.45 460.05
Q 876.85 460.05 877.1 459.75 877.4 459.5 877.4 459.1
L 877.4 441.7 880.8 441.7 881.35 463.1
Q 881.35 463.5 881.65 463.75 881.95 464.05 882.3 464.05
L 882.85 464.05
Q 883.25 464.05 883.5 463.75 883.8 463.5 883.8 463.1
L 883.8 433.45
Q 884.2 433.2 884.55 432.85 885.4 432.05 885.4 430.9 885.4 429.75 884.6 428.95 884.25 427 879.9 425.6 875.2 424.05 868.6 424.05 862 424.05 857.3 425.6
M 856.5 438.45
L 856.65 433.7 859.8 433.7 859.8 438.45 856.5 438.45
M 862.15 438.45
L 862.15 433.7 874.95 433.7 874.95 438.45 862.15 438.45
M 877.4 438.45
L 877.4 433.7 880.6 433.7 880.7 438.45 877.4 438.45 Z"/>
</g>

<g id="Layer0_0_MEMBER_2_MEMBER_0_FILL">
<path fill="#DD352E" stroke="none" d="
M 23.1 -6.45
Q 18.4 -8 11.8 -8 5.2 -8 0.5 -6.45 -4.15 -4.95 -4.15 -2.8
L 27.8 -2.8
Q 27.8 -4.95 23.1 -6.45 Z"/>
</g>

<g id="Layer0_0_MEMBER_2_MEMBER_1_FILL">
<path fill="#BE6E41" stroke="none" d="
M 27 0.75
Q 26.1 1.65 25 1.65
L 23.8 1.65 23.9 6.4 -0.3 6.4 -0.15 1.65 -1.35 1.65
Q -2.55 1.65 -3.35 0.75
L -3.35 31.05
Q -3.35 31.45 -3.1 31.7 -2.8 32 -2.4 32
L -1.9 32
Q -1.5 32 -1.25 31.7 -0.95 31.45 -0.95 31.05
L -0.4 9.65 24 9.65 24.55 31.05
Q 24.55 31.45 24.85 31.7 25.15 32 25.5 32
L 26.05 32
Q 26.45 32 26.7 31.7 27 31.45 27 31.05
L 27 0.75 Z"/>
</g>

<g id="Layer0_0_MEMBER_2_MEMBER_2_FILL">
<path fill="#6B4842" stroke="none" d="
M 18.15 1.65
L 18.15 6.4 20.6 6.4 20.6 1.65 18.15 1.65 Z"/>
</g>

<g id="Layer0_0_MEMBER_2_MEMBER_3_FILL">
<path fill="#6B4842" stroke="none" d="
M 20.6 9.65
L 18.15 9.65 18.15 27.05
Q 18.15 27.45 18.45 27.7 18.75 28 19.1 28
L 19.65 28
Q 20.05 28 20.3 27.7 20.6 27.45 20.6 27.05
L 20.6 9.65 Z"/>
</g>

<g id="Layer0_0_MEMBER_2_MEMBER_4_FILL">
<path fill="#6B4842" stroke="none" d="
M 3 1.65
L 3 6.4 5.35 6.4 5.35 1.65 3 1.65 Z"/>
</g>

<g id="Layer0_0_MEMBER_2_MEMBER_5_FILL">
<path fill="#6B4842" stroke="none" d="
M 5.35 9.65
L 3 9.65 3 27.05
Q 3 27.45 3.25 27.7 3.55 28 3.9 28
L 4.4 28
Q 4.8 28 5.1 27.7 5.35 27.45 5.35 27.05
L 5.35 9.65 Z"/>
</g>

<g id="Layer0_0_MEMBER_2_MEMBER_6_FILL">
<path fill="#B02721" stroke="none" d="
M 28.6 -1.15
Q 28.6 -2.3 27.75 -3.15 26.95 -4 25.8 -4
L -2.15 -4
Q -3.3 -4 -4.15 -3.15 -5 -2.3 -5 -1.15 -5 0 -4.15 0.8 -3.3 1.65 -2.15 1.65
L 25.8 1.65
Q 26.95 1.65 27.75 0.8 28.6 0 28.6 -1.15 Z"/>
</g>
</defs>

<g transform="matrix( 3, 0, 0, 3, -2286.9,-1057.6) ">
<use xlink:href="#Layer0_0_FILL"/>
</g>

<g transform="matrix( 0.792938232421875, 0, 0, 0.792938232421875, 129.15,153.05) ">
<use xlink:href="#Layer0_0_MEMBER_0_MEMBER_0_FILL"/>
</g>

<g transform="matrix( 0.792938232421875, 0, 0, 0.792938232421875, 129.15,153.05) ">
<use xlink:href="#Layer0_0_MEMBER_0_MEMBER_1_FILL"/>
</g>

<g transform="matrix( 0.792938232421875, 0, 0, 0.792938232421875, 129.15,153.05) ">
<use xlink:href="#Layer0_0_MEMBER_0_MEMBER_2_FILL"/>
</g>

<g transform="matrix( 0.792938232421875, 0, 0, 0.792938232421875, 129.15,153.05) ">
<use xlink:href="#Layer0_0_MEMBER_0_MEMBER_3_FILL"/>
</g>

<g transform="matrix( 0.792938232421875, 0, 0, 0.792938232421875, 129.15,153.05) ">
<use xlink:href="#Layer0_0_MEMBER_0_MEMBER_4_FILL"/>
</g>

<g transform="matrix( 0.792938232421875, 0, 0, 0.792938232421875, 129.15,153.05) ">
<use xlink:href="#Layer0_0_MEMBER_0_MEMBER_5_FILL"/>
</g>

<g transform="matrix( 0.792938232421875, 0, 0, 0.792938232421875, 129.15,153.05) ">
<use xlink:href="#Layer0_0_MEMBER_0_MEMBER_6_FILL"/>
</g>

<g transform="matrix( 0.792938232421875, 0, 0, 0.792938232421875, 129.15,153.05) ">
<use xlink:href="#Layer0_0_MEMBER_0_MEMBER_7_FILL"/>
</g>

<g transform="matrix( 0.792938232421875, 0, 0, 0.792938232421875, 129.15,153.05) ">
<use xlink:href="#Layer0_0_MEMBER_0_MEMBER_8_FILL"/>
</g>

<g transform="matrix( 0.792938232421875, 0, 0, 0.792938232421875, 129.15,153.05) ">
<use xlink:href="#Layer0_0_MEMBER_0_MEMBER_9_FILL"/>
</g>

<g transform="matrix( 0.792938232421875, 0, 0, 0.792938232421875, 129.15,153.05) ">
<use xlink:href="#Layer0_0_MEMBER_0_MEMBER_10_FILL"/>
</g>

<g transform="matrix( 0.792938232421875, 0, 0, 0.792938232421875, 129.15,153.05) ">
<use xlink:href="#Layer0_0_MEMBER_0_MEMBER_11_FILL"/>
</g>

<g transform="matrix( 0.792938232421875, 0, 0, 0.792938232421875, 129.15,153.05) ">
<use xlink:href="#Layer0_0_MEMBER_0_MEMBER_12_FILL"/>
</g>

<g transform="matrix( 0.792938232421875, 0, 0, 0.792938232421875, 129.15,153.05) ">
<use xlink:href="#Layer0_0_MEMBER_0_MEMBER_13_FILL"/>
</g>

<g transform="matrix( 0.792938232421875, 0, 0, 0.792938232421875, 129.15,153.05) ">
<use xlink:href="#Layer0_0_MEMBER_0_MEMBER_14_FILL"/>
</g>

<g transform="matrix( 0.792938232421875, 0, 0, 0.792938232421875, 129.15,153.05) ">
<use xlink:href="#Layer0_0_MEMBER_0_MEMBER_15_FILL"/>
</g>

<g transform="matrix( 0.792938232421875, 0, 0, 0.792938232421875, 129.15,153.05) ">
<use xlink:href="#Layer0_0_MEMBER_0_MEMBER_16_FILL"/>
</g>

<g transform="matrix( 0.792938232421875, 0, 0, 0.792938232421875, 129.15,153.05) ">
<use xlink:href="#Layer0_0_MEMBER_0_MEMBER_17_FILL"/>
</g>

<g transform="matrix( 0.792938232421875, 0, 0, 0.792938232421875, 129.15,153.05) ">
<use xlink:href="#Layer0_0_MEMBER_0_MEMBER_18_FILL"/>
</g>

<g transform="matrix( 0.792938232421875, 0, 0, 0.792938232421875, 129.15,153.05) ">
<use xlink:href="#Layer0_0_MEMBER_0_MEMBER_19_FILL"/>
</g>

<g transform="matrix( 0.792938232421875, 0, 0, 0.792938232421875, 129.15,153.05) ">
<use xlink:href="#Layer0_0_MEMBER_0_MEMBER_20_FILL"/>
</g>

<g transform="matrix( 0.792938232421875, 0, 0, 0.792938232421875, 129.15,153.05) ">
<use xlink:href="#Layer0_0_MEMBER_0_MEMBER_21_FILL"/>
</g>

<g transform="matrix( 0.792938232421875, 0, 0, 0.792938232421875, 129.15,153.05) ">
<use xlink:href="#Layer0_0_MEMBER_0_MEMBER_22_FILL"/>
</g>

<g transform="matrix( 0.792938232421875, 0, 0, 0.792938232421875, 129.15,153.05) ">
<use xlink:href="#Layer0_0_MEMBER_0_MEMBER_23_FILL"/>
</g>

<g transform="matrix( 0.792938232421875, 0, 0, 0.792938232421875, 129.15,153.05) ">
<use xlink:href="#Layer0_0_MEMBER_0_MEMBER_24_FILL"/>
</g>

<g transform="matrix( 3, 0, 0, 3, -2286.9,-1057.6) ">
<use xlink:href="#Layer0_0_MEMBER_1_FILL"/>
</g>

<g transform="matrix( 3, 0, 0, 3, 291.3,235.7) ">
<use xlink:href="#Layer0_0_MEMBER_2_MEMBER_0_FILL"/>
</g>

<g transform="matrix( 3, 0, 0, 3, 291.3,235.7) ">
<use xlink:href="#Layer0_0_MEMBER_2_MEMBER_1_FILL"/>
</g>

<g transform="matrix( 3, 0, 0, 3, 291.3,235.7) ">
<use xlink:href="#Layer0_0_MEMBER_2_MEMBER_2_FILL"/>
</g>

<g transform="matrix( 3, 0, 0, 3, 291.3,235.7) ">
<use xlink:href="#Layer0_0_MEMBER_2_MEMBER_3_FILL"/>
</g>

<g transform="matrix( 3, 0, 0, 3, 291.3,235.7) ">
<use xlink:href="#Layer0_0_MEMBER_2_MEMBER_4_FILL"/>
</g>

<g transform="matrix( 3, 0, 0, 3, 291.3,235.7) ">
<use xlink:href="#Layer0_0_MEMBER_2_MEMBER_5_FILL"/>
</g>

<g transform="matrix( 3, 0, 0, 3, 291.3,235.7) ">
<use xlink:href="#Layer0_0_MEMBER_2_MEMBER_6_FILL"/>
</g>
</svg>
