
<svg xmlns="http://www.w3.org/2000/svg" version="1.1" xmlns:xlink="http://www.w3.org/1999/xlink" preserveAspectRatio="none" x="0px" y="0px" width="398px" height="366px" viewBox="0 0 398 366">
<defs>
<filter id="Filter_1" x="-20%" y="-20%" width="140%" height="140%" color-interpolation-filters="sRGB">
<feColorMatrix in="SourceGraphic" type="matrix" values="0 0 0 0 255 0 0 0 0 255 0 0 0 0 255 0 0 0 255 0" result="result1"/>

<feComposite in2="result1" in="BackgroundImage" operator="in" result="result2"/>

<feBlend mode="screen" in2="result2" in="SourceGraphic" result="result3"/>
</filter>

<filter id="Filter_2" x="-20%" y="-20%" width="140%" height="140%" color-interpolation-filters="sRGB">
<feColorMatrix in="SourceGraphic" type="matrix" values="1 0 0 0 0 0 1 0 0 0 0 0 1 0 0 0 0 0 0.5 0" result="result1"/>
</filter>

<filter id="Filter_3" x="-20%" y="-20%" width="140%" height="140%" color-interpolation-filters="sRGB">
<feColorMatrix in="SourceGraphic" type="matrix" values="0 0 0 0 255 0 0 0 0 255 0 0 0 0 255 0 0 0 255 0" result="result1"/>

<feComposite in2="result1" in="BackgroundImage" operator="in" result="result2"/>

<feBlend mode="screen" in2="result2" in="SourceGraphic" result="result3"/>
</filter>

<g id="Layer0_0_MEMBER_0_FILL">
<path fill="#000000" fill-opacity="0.2" stroke="none" d="
M -124.1 356.55
Q -125.05 356.85 -126 357.2
L -126 357.45
Q -127.55 357.9 -129.05 358.45
L -129.05 363.1 -131.1 363.1
Q -132.45 363.1 -133.35 364 -134.25 364.95 -134.25 366.25
L -134.25 451.9
Q -134.25 453.15 -133.35 454.1 -132.45 455 -131.1 455
L -87.05 455 -89.6 465.35 -92 465.35
Q -92.8 465.35 -93.4 466 -93.95 466.7 -93.95 467.6
L -93.95 468.45 -47.95 468.45 -47.95 467.6
Q -47.95 466.7 -48.55 466 -49.1 465.35 -49.9 465.35
L -52.25 465.35 -54.8 455 -10.8 455
Q -9.5 455 -8.55 454.1 -7.65 453.15 -7.65 451.9
L -7.65 366.25
Q -7.65 364.95 -8.55 364 -9.5 363.1 -10.8 363.1
L -12.45 363.1 -12.45 358.45
Q -13.9 357.9 -15.45 357.45
L -15.45 357.2
Q -19.15 355.85 -22.95 354.95 -39.3 349.9 -56.5 353.2 -62.45 354.35 -67.75 356.4
L -68 356.5 -68 356.45
Q -69.55 357.1 -70.85 357.7
L -71.9 358.15
Q -77.8 355.05 -87.3 353.2 -106.2 349.55 -124.1 356
L -124.1 356.55 Z"/>
</g>

<g id="Layer0_0_MEMBER_1_MEMBER_0_MEMBER_0_MEMBER_0_FILL">
<path fill="#FFFFFF" stroke="none" d="
M -46.75 469.25
L -51.35 450.55 -84.85 450.55 -89.45 469.25 -46.75 469.25 Z"/>
</g>

<g id="Layer0_0_MEMBER_1_MEMBER_0_MEMBER_0_MEMBER_1_FILL">
<path fill="#ECECEC" stroke="none" d="
M -42.55 469.7
Q -43.2 468.95 -44.1 468.95
L -92.1 468.95
Q -93 468.95 -93.65 469.7 -94.3 470.45 -94.3 471.5
L -94.3 472.45 -41.9 472.45 -41.9 471.5
Q -41.9 470.45 -42.55 469.7 Z"/>
</g>

<g id="Layer0_0_MEMBER_1_MEMBER_0_MEMBER_0_MEMBER_2_FILL">
<path fill="#FFFFFF" stroke="none" d="
M 3 456.1
Q 4.05 455.05 4.05 453.6
L 4.05 443.25 -140.25 443.25 -140.25 453.6
Q -140.25 455.05 -139.2 456.1 -138.15 457.15 -136.65 457.15
L 0.45 457.15
Q 1.95 457.15 3 456.1 Z"/>
</g>

<g id="Layer0_0_MEMBER_1_MEMBER_0_MEMBER_0_MEMBER_3_FILL">
<path fill="#666666" stroke="none" d="
M 3 353.45
Q 1.95 352.4 0.45 352.4
L -136.65 352.4
Q -138.15 352.4 -139.2 353.45 -140.25 354.5 -140.25 356
L -140.25 443.25 4.05 443.25 4.05 356
Q 4.05 354.5 3 353.45 Z"/>
</g>

<g id="Layer0_0_MEMBER_1_MEMBER_0_MEMBER_0_MEMBER_4_FILL">
<path fill="#A6DAE9" stroke="none" d="
M -1.85 358
L -134.3 358 -134.3 437.3 -1.85 437.3 -1.85 358 Z"/>
</g>

<g id="Layer0_0_MEMBER_1_MEMBER_1_MEMBER_0_MEMBER_0_FILL">
<path fill="#515151" stroke="none" d="
M -88.9 343.15
Q -112.85 339.55 -134.3 347.1
L -134.3 437.5 -1.4 437.5 -1.4 347.1
Q -22.85 339.55 -48.2 343.15 -56.1 344.3 -63.5 346.35
L -69.25 348.25
Q -76.95 344.95 -88.9 343.15 Z"/>
</g>

<g id="Layer0_0_MEMBER_1_MEMBER_1_MEMBER_0_MEMBER_1_FILL">
<path fill="#9EBAD0" stroke="none" d="
M 448.25 203.1
L 438.8 206.25
Q 426.25 200.7 406.7 197.65 367.55 191.6 332.45 204.3
L 332.45 356.5 549.7 356.5 549.7 204.3
Q 514.6 191.6 473.2 197.65 460.25 199.55 448.25 203.1 Z"/>
</g>

<g id="Layer0_0_MEMBER_1_MEMBER_1_MEMBER_0_MEMBER_2_FILL">
<path fill="#EEFDFF" stroke="none" d="
M 446.9 202.75
L 438.8 206.25 438.8 350.15 541.3 350.15 541.3 202.05
Q 506.2 189.35 469 196.5 457.35 198.75 446.9 202.75 Z"/>
</g>

<g id="Layer0_0_MEMBER_1_MEMBER_1_MEMBER_0_MEMBER_3_FILL">
<path fill="#EEFDFF" stroke="none" d="
M 438.8 350.15
L 438.8 206.25
Q 427.2 200.1 408.6 196.5 371.4 189.35 336.3 202.05
L 336.3 350.15 438.8 350.15 Z"/>
</g>

<g id="Layer0_0_MEMBER_1_MEMBER_1_MEMBER_0_MEMBER_4_FILL">
<path fill="#DDECF6" stroke="none" d="
M 440.8 205.3
L 438.8 206.25 438.8 350.15 446.5 350.15 446.5 202.9
Q 443.4 204.1 440.8 205.3 Z"/>
</g>

<g id="Layer0_0_MEMBER_1_MEMBER_1_MEMBER_1_MEMBER_0_FILL">
<path fill="#BCDAE5" stroke="none" d="
M 448.25 231.7
L 448.25 235.55 455.1 232.7
Q 463.9 229.45 473.7 227.65 505.05 221.8 534.6 232.15
L 534.6 228.3
Q 505.05 217.95 473.7 223.8 463.9 225.6 455.1 228.85
L 448.25 231.7 Z"/>
</g>

<g id="Layer0_0_MEMBER_1_MEMBER_1_MEMBER_1_MEMBER_1_FILL">
<path fill="#BCDAE5" stroke="none" d="
M 448.25 241.65
L 448.25 245.5 455.1 242.65
Q 463.9 239.4 473.7 237.55 505.05 231.7 534.6 242.05
L 534.6 238.2
Q 505.05 227.85 473.7 233.7 463.9 235.55 455.1 238.8
L 448.25 241.65 Z"/>
</g>

<g id="Layer0_0_MEMBER_1_MEMBER_1_MEMBER_1_MEMBER_2_FILL">
<path fill="#BCDAE5" stroke="none" d="
M 448.25 251.55
L 448.25 255.4 455.1 252.55
Q 463.9 249.3 473.7 247.5 505.05 241.65 534.6 252
L 534.6 248.1
Q 505.05 237.75 473.7 243.6 463.9 245.45 455.1 248.7
L 448.25 251.55 Z"/>
</g>

<g id="Layer0_0_MEMBER_1_MEMBER_1_MEMBER_1_MEMBER_3_FILL">
<path fill="#BCDAE5" stroke="none" d="
M 448.25 261.45
L 448.25 265.35 455.1 262.5
Q 463.9 259.25 473.7 257.4 505.05 251.55 534.6 261.9
L 534.6 258.05
Q 505.05 247.7 473.7 253.55 463.9 255.35 455.1 258.6
L 448.25 261.45 Z"/>
</g>

<g id="Layer0_0_MEMBER_1_MEMBER_1_MEMBER_1_MEMBER_4_FILL">
<path fill="#BCDAE5" stroke="none" d="
M 448.25 271.4
L 448.25 275.25 455.1 272.4
Q 463.9 269.15 473.7 267.3 505.05 261.45 534.6 271.8
L 534.6 267.95
Q 505.05 257.6 473.7 263.45 463.9 265.3 455.1 268.55
L 448.25 271.4 Z"/>
</g>

<g id="Layer0_0_MEMBER_1_MEMBER_1_MEMBER_1_MEMBER_5_FILL">
<path fill="#BCDAE5" stroke="none" d="
M 448.25 281.3
L 448.25 285.15 455.1 282.3
Q 463.9 279.05 473.7 277.25 505.05 271.4 534.6 281.75
L 534.6 277.9
Q 505.05 267.55 473.7 273.4 463.9 275.2 455.1 278.45
L 448.25 281.3 Z"/>
</g>

<g id="Layer0_0_MEMBER_1_MEMBER_1_MEMBER_1_MEMBER_6_FILL">
<path fill="#BCDAE5" stroke="none" d="
M 448.25 291.25
L 448.25 295.1 455.1 292.25
Q 463.9 289 473.7 287.15 505.05 281.3 534.6 291.65
L 534.6 287.8
Q 505.05 277.45 473.7 283.3 463.9 285.15 455.1 288.4
L 448.25 291.25 Z"/>
</g>

<g id="Layer0_0_MEMBER_1_MEMBER_1_MEMBER_1_MEMBER_7_FILL">
<path fill="#BCDAE5" stroke="none" d="
M 448.25 301.15
L 448.25 305 455.1 302.15
Q 463.9 298.9 473.7 297.1 505.05 291.25 534.6 301.6
L 534.6 297.7
Q 505.05 287.35 473.7 293.2 463.9 295.05 455.1 298.3
L 448.25 301.15 Z"/>
</g>

<g id="Layer0_0_MEMBER_1_MEMBER_1_MEMBER_1_MEMBER_8_FILL">
<path fill="#BCDAE5" stroke="none" d="
M 448.25 311.05
L 448.25 314.95 455.1 312.1
Q 463.9 308.85 473.7 307 505.05 301.15 534.6 311.5
L 534.6 307.65
Q 505.05 297.3 473.7 303.15 463.9 304.95 455.1 308.2
L 448.25 311.05 Z"/>
</g>

<g id="Layer0_0_MEMBER_1_MEMBER_1_MEMBER_1_MEMBER_9_FILL">
<path fill="#BCDAE5" stroke="none" d="
M 448.25 321
L 448.25 324.85 455.1 322
Q 463.9 318.75 473.7 316.9 505.05 311.05 534.6 321.4
L 534.6 317.55
Q 505.05 307.2 473.7 313.05 463.9 314.9 455.1 318.15
L 448.25 321 Z"/>
</g>

<g id="Layer0_0_MEMBER_1_MEMBER_1_MEMBER_1_MEMBER_10_FILL">
<path fill="#BCDAE5" stroke="none" d="
M 448.25 330.9
L 448.25 334.75 455.1 331.9
Q 463.9 328.65 473.7 326.85 505.05 321 534.6 331.35
L 534.6 327.5
Q 505.05 317.15 473.7 323 463.9 324.8 455.1 328.05
L 448.25 330.9 Z"/>
</g>

<g id="Layer0_0_MEMBER_1_MEMBER_1_MEMBER_1_MEMBER_11_FILL">
<path fill="#BCDAE5" stroke="none" d="
M 448.25 340.85
L 448.25 344.7 455.1 341.85
Q 463.9 338.6 473.7 336.75 505.05 330.9 534.6 341.25
L 534.6 337.4
Q 505.05 327.05 473.7 332.9 463.9 334.75 455.1 338
L 448.25 340.85 Z"/>
</g>

<g id="Layer0_0_MEMBER_1_MEMBER_1_MEMBER_1_MEMBER_12_FILL">
<path fill="#BCDAE5" stroke="none" d="
M 459.2 213.85
L 448.25 218.1 448.25 225.05 459.2 220.8
Q 473.15 216.3 488 215.3
L 488 208.35
Q 473.15 209.35 459.2 213.85 Z"/>
</g>

<g id="Layer0_0_MEMBER_1_MEMBER_1_MEMBER_2_MEMBER_0_FILL">
<path fill="#BCDAE5" stroke="none" d="
M 430.7 231.7
Q 420.95 226.7 405.3 223.8 373.95 217.95 344.4 228.3
L 344.4 232.15
Q 373.95 221.8 405.3 227.65 420.95 230.55 430.7 235.55
L 430.7 231.7 Z"/>
</g>

<g id="Layer0_0_MEMBER_1_MEMBER_1_MEMBER_2_MEMBER_1_FILL">
<path fill="#BCDAE5" stroke="none" d="
M 430.7 241.65
Q 420.95 236.65 405.3 233.7 373.95 227.85 344.4 238.2
L 344.4 242.05
Q 373.95 231.7 405.3 237.55 420.95 240.5 430.7 245.5
L 430.7 241.65 Z"/>
</g>

<g id="Layer0_0_MEMBER_1_MEMBER_1_MEMBER_2_MEMBER_2_FILL">
<path fill="#BCDAE5" stroke="none" d="
M 405.3 247.5
Q 420.95 250.4 430.7 255.4
L 430.7 251.55
Q 420.95 246.55 405.3 243.6 373.95 237.75 344.4 248.1
L 344.4 252
Q 373.95 241.65 405.3 247.5 Z"/>
</g>

<g id="Layer0_0_MEMBER_1_MEMBER_1_MEMBER_2_MEMBER_3_FILL">
<path fill="#BCDAE5" stroke="none" d="
M 430.7 261.45
Q 420.95 256.45 405.3 253.55 373.95 247.7 344.4 258.05
L 344.4 261.9
Q 373.95 251.55 405.3 257.4 420.95 260.35 430.7 265.35
L 430.7 261.45 Z"/>
</g>

<g id="Layer0_0_MEMBER_1_MEMBER_1_MEMBER_2_MEMBER_4_FILL">
<path fill="#BCDAE5" stroke="none" d="
M 430.7 271.4
Q 420.95 266.4 405.3 263.45 373.95 257.6 344.4 267.95
L 344.4 271.8
Q 373.95 261.45 405.3 267.3 420.95 270.25 430.7 275.25
L 430.7 271.4 Z"/>
</g>

<g id="Layer0_0_MEMBER_1_MEMBER_1_MEMBER_2_MEMBER_5_FILL">
<path fill="#BCDAE5" stroke="none" d="
M 430.7 281.3
Q 420.95 276.3 405.3 273.4 373.95 267.55 344.4 277.9
L 344.4 281.75
Q 373.95 271.4 405.3 277.25 420.95 280.15 430.7 285.15
L 430.7 281.3 Z"/>
</g>

<g id="Layer0_0_MEMBER_1_MEMBER_1_MEMBER_2_MEMBER_6_FILL">
<path fill="#BCDAE5" stroke="none" d="
M 430.7 291.25
Q 420.95 286.25 405.3 283.3 373.95 277.45 344.4 287.8
L 344.4 291.65
Q 373.95 281.3 405.3 287.15 420.95 290.1 430.7 295.1
L 430.7 291.25 Z"/>
</g>

<g id="Layer0_0_MEMBER_1_MEMBER_1_MEMBER_2_MEMBER_7_FILL">
<path fill="#BCDAE5" stroke="none" d="
M 344.4 297.7
L 344.4 301.6
Q 373.95 291.25 405.3 297.1 420.95 300 430.7 305
L 430.7 301.15
Q 420.95 296.15 405.3 293.2 373.95 287.35 344.4 297.7 Z"/>
</g>

<g id="Layer0_0_MEMBER_1_MEMBER_1_MEMBER_2_MEMBER_8_FILL">
<path fill="#BCDAE5" stroke="none" d="
M 344.4 307.65
L 344.4 311.5
Q 373.95 301.15 405.3 307 420.95 309.95 430.7 314.95
L 430.7 311.05
Q 420.95 306.05 405.3 303.15 373.95 297.3 344.4 307.65 Z"/>
</g>

<g id="Layer0_0_MEMBER_1_MEMBER_1_MEMBER_2_MEMBER_9_FILL">
<path fill="#BCDAE5" stroke="none" d="
M 344.4 317.55
L 344.4 321.4
Q 373.95 311.05 405.3 316.9 420.95 319.85 430.7 324.85
L 430.7 321
Q 420.95 316 405.3 313.05 373.95 307.2 344.4 317.55 Z"/>
</g>

<g id="Layer0_0_MEMBER_1_MEMBER_1_MEMBER_2_MEMBER_10_FILL">
<path fill="#BCDAE5" stroke="none" d="
M 344.4 327.5
L 344.4 331.35
Q 373.95 321 405.3 326.85 420.95 329.75 430.7 334.75
L 430.7 330.9
Q 420.95 325.9 405.3 323 373.95 317.15 344.4 327.5 Z"/>
</g>

<g id="Layer0_0_MEMBER_1_MEMBER_1_MEMBER_2_MEMBER_11_FILL">
<path fill="#BCDAE5" stroke="none" d="
M 344.4 337.4
L 344.4 341.25
Q 373.95 330.9 405.3 336.75 420.95 339.7 430.7 344.7
L 430.7 340.85
Q 420.95 335.85 405.3 332.9 373.95 327.05 344.4 337.4 Z"/>
</g>

<g id="Layer0_0_MEMBER_1_MEMBER_1_MEMBER_2_MEMBER_12_FILL">
<path fill="#BCDAE5" stroke="none" d="
M 419.8 220.8
Q 426.75 223 430.7 225.05
L 430.7 218.1
Q 426.75 216.05 419.8 213.85 405.9 209.35 391 208.35
L 391 215.3
Q 405.9 216.3 419.8 220.8 Z"/>
</g>

<g id="flash0_ai_4_Isolation_Mode__Path__1_0_Layer0_0_FILL">
<path fill="#B8CACC" stroke="none" d="
M 33.6 16.8
Q 33.6 9.85 28.65 4.9 23.75 0 16.8 0 9.85 0 4.9 4.9 0 9.85 0 16.8 0 23.8 4.9 28.7 9.85 33.6 16.8 33.6 23.75 33.6 28.65 28.7 33.6 23.75 33.6 16.8 Z"/>
</g>

<g id="flash0_ai_4_Isolation_Mode__Path__0_Layer0_0_FILL">
<path fill="#B8CACC" stroke="none" d="
M 20.4 10.2
Q 20.4 6 17.4 3 14.4 0 10.2 0 5.95 0 3 3 0 6 0 10.2 0 14.45 3 17.4 5.95 20.4 10.2 20.4 14.4 20.4 17.4 17.4 20.4 14.45 20.4 10.2 Z"/>
</g>

<g id="Layer0_0_MEMBER_2_MEMBER_2_MEMBER_0_FILL">
<path fill="#E86022" stroke="none" d="
M -16.5 406.75
L -15.1 405.7 -29.8 384.7 -26.35 404.45 -22.65 398.05 -16.5 406.75 Z"/>
</g>

<g id="Layer0_0_MEMBER_2_MEMBER_2_MEMBER_1_FILL">
<path fill="#AA4311" stroke="none" d="
M -12.45 394.7
L -29.8 384.7 -15.1 405.7 -13.65 404.7 -19.75 396.05 -12.45 394.7 Z"/>
</g>
</defs>

<g enable-background="new">
<g transform="matrix( 3, 0, 0, 3, 402.75,-1038.55) ">
<use xlink:href="#Layer0_0_MEMBER_0_FILL"/>
</g>

<g transform="matrix( 2.6325531005859375, 0, 0, 2.6325531005859375, 387.6,-892.75) ">
<use xlink:href="#Layer0_0_MEMBER_1_MEMBER_0_MEMBER_0_MEMBER_0_FILL"/>
</g>

<g transform="matrix( 2.6325531005859375, 0, 0, 2.6325531005859375, 387.6,-892.75) ">
<use xlink:href="#Layer0_0_MEMBER_1_MEMBER_0_MEMBER_0_MEMBER_1_FILL"/>
</g>

<g transform="matrix( 2.6325531005859375, 0, 0, 2.6325531005859375, 387.6,-892.75) ">
<use xlink:href="#Layer0_0_MEMBER_1_MEMBER_0_MEMBER_0_MEMBER_2_FILL"/>
</g>

<g transform="matrix( 2.6325531005859375, 0, 0, 2.6325531005859375, 387.6,-892.75) ">
<use xlink:href="#Layer0_0_MEMBER_1_MEMBER_0_MEMBER_0_MEMBER_3_FILL"/>
</g>

<g transform="matrix( 2.6325531005859375, 0, 0, 2.6325531005859375, 387.6,-892.75) ">
<use xlink:href="#Layer0_0_MEMBER_1_MEMBER_0_MEMBER_0_MEMBER_4_FILL"/>
</g>

<g transform="matrix( 2.6325531005859375, 0, 0, 2.6325531005859375, 387.6,-892.75) ">
<use xlink:href="#Layer0_0_MEMBER_1_MEMBER_1_MEMBER_0_MEMBER_0_FILL"/>
</g>

<g transform="matrix( 1.5273284912109375, 0, 0, 1.5273284912109375, -464.4,-296.2) ">
<use xlink:href="#Layer0_0_MEMBER_1_MEMBER_1_MEMBER_0_MEMBER_1_FILL"/>
</g>

<g transform="matrix( 1.5273284912109375, 0, 0, 1.5273284912109375, -464.4,-296.2) ">
<use xlink:href="#Layer0_0_MEMBER_1_MEMBER_1_MEMBER_0_MEMBER_2_FILL"/>
</g>

<g transform="matrix( 1.5273284912109375, 0, 0, 1.5273284912109375, -464.4,-296.2) ">
<use xlink:href="#Layer0_0_MEMBER_1_MEMBER_1_MEMBER_0_MEMBER_3_FILL"/>
</g>

<g transform="matrix( 1.5273284912109375, 0, 0, 1.5273284912109375, -464.4,-296.2) ">
<use xlink:href="#Layer0_0_MEMBER_1_MEMBER_1_MEMBER_0_MEMBER_4_FILL"/>
</g>

<g transform="matrix( 1.5273284912109375, 0, 0, 1.5273284912109375, -464.4,-296.2) ">
<use xlink:href="#Layer0_0_MEMBER_1_MEMBER_1_MEMBER_1_MEMBER_0_FILL"/>
</g>

<g transform="matrix( 1.5273284912109375, 0, 0, 1.5273284912109375, -464.4,-296.2) ">
<use xlink:href="#Layer0_0_MEMBER_1_MEMBER_1_MEMBER_1_MEMBER_1_FILL"/>
</g>

<g transform="matrix( 1.5273284912109375, 0, 0, 1.5273284912109375, -464.4,-296.2) ">
<use xlink:href="#Layer0_0_MEMBER_1_MEMBER_1_MEMBER_1_MEMBER_2_FILL"/>
</g>

<g transform="matrix( 1.5273284912109375, 0, 0, 1.5273284912109375, -464.4,-296.2) ">
<use xlink:href="#Layer0_0_MEMBER_1_MEMBER_1_MEMBER_1_MEMBER_3_FILL"/>
</g>

<g transform="matrix( 1.5273284912109375, 0, 0, 1.5273284912109375, -464.4,-296.2) ">
<use xlink:href="#Layer0_0_MEMBER_1_MEMBER_1_MEMBER_1_MEMBER_4_FILL"/>
</g>

<g transform="matrix( 1.5273284912109375, 0, 0, 1.5273284912109375, -464.4,-296.2) ">
<use xlink:href="#Layer0_0_MEMBER_1_MEMBER_1_MEMBER_1_MEMBER_5_FILL"/>
</g>

<g transform="matrix( 1.5273284912109375, 0, 0, 1.5273284912109375, -464.4,-296.2) ">
<use xlink:href="#Layer0_0_MEMBER_1_MEMBER_1_MEMBER_1_MEMBER_6_FILL"/>
</g>

<g transform="matrix( 1.5273284912109375, 0, 0, 1.5273284912109375, -464.4,-296.2) ">
<use xlink:href="#Layer0_0_MEMBER_1_MEMBER_1_MEMBER_1_MEMBER_7_FILL"/>
</g>

<g transform="matrix( 1.5273284912109375, 0, 0, 1.5273284912109375, -464.4,-296.2) ">
<use xlink:href="#Layer0_0_MEMBER_1_MEMBER_1_MEMBER_1_MEMBER_8_FILL"/>
</g>

<g transform="matrix( 1.5273284912109375, 0, 0, 1.5273284912109375, -464.4,-296.2) ">
<use xlink:href="#Layer0_0_MEMBER_1_MEMBER_1_MEMBER_1_MEMBER_9_FILL"/>
</g>

<g transform="matrix( 1.5273284912109375, 0, 0, 1.5273284912109375, -464.4,-296.2) ">
<use xlink:href="#Layer0_0_MEMBER_1_MEMBER_1_MEMBER_1_MEMBER_10_FILL"/>
</g>

<g transform="matrix( 1.5273284912109375, 0, 0, 1.5273284912109375, -464.4,-296.2) ">
<use xlink:href="#Layer0_0_MEMBER_1_MEMBER_1_MEMBER_1_MEMBER_11_FILL"/>
</g>

<g transform="matrix( 1.5273284912109375, 0, 0, 1.5273284912109375, -464.4,-296.2) ">
<use xlink:href="#Layer0_0_MEMBER_1_MEMBER_1_MEMBER_1_MEMBER_12_FILL"/>
</g>

<g transform="matrix( 1.5273284912109375, 0, 0, 1.5273284912109375, -464.4,-296.2) ">
<use xlink:href="#Layer0_0_MEMBER_1_MEMBER_1_MEMBER_2_MEMBER_0_FILL"/>
</g>

<g transform="matrix( 1.5273284912109375, 0, 0, 1.5273284912109375, -464.4,-296.2) ">
<use xlink:href="#Layer0_0_MEMBER_1_MEMBER_1_MEMBER_2_MEMBER_1_FILL"/>
</g>

<g transform="matrix( 1.5273284912109375, 0, 0, 1.5273284912109375, -464.4,-296.2) ">
<use xlink:href="#Layer0_0_MEMBER_1_MEMBER_1_MEMBER_2_MEMBER_2_FILL"/>
</g>

<g transform="matrix( 1.5273284912109375, 0, 0, 1.5273284912109375, -464.4,-296.2) ">
<use xlink:href="#Layer0_0_MEMBER_1_MEMBER_1_MEMBER_2_MEMBER_3_FILL"/>
</g>

<g transform="matrix( 1.5273284912109375, 0, 0, 1.5273284912109375, -464.4,-296.2) ">
<use xlink:href="#Layer0_0_MEMBER_1_MEMBER_1_MEMBER_2_MEMBER_4_FILL"/>
</g>

<g transform="matrix( 1.5273284912109375, 0, 0, 1.5273284912109375, -464.4,-296.2) ">
<use xlink:href="#Layer0_0_MEMBER_1_MEMBER_1_MEMBER_2_MEMBER_5_FILL"/>
</g>

<g transform="matrix( 1.5273284912109375, 0, 0, 1.5273284912109375, -464.4,-296.2) ">
<use xlink:href="#Layer0_0_MEMBER_1_MEMBER_1_MEMBER_2_MEMBER_6_FILL"/>
</g>

<g transform="matrix( 1.5273284912109375, 0, 0, 1.5273284912109375, -464.4,-296.2) ">
<use xlink:href="#Layer0_0_MEMBER_1_MEMBER_1_MEMBER_2_MEMBER_7_FILL"/>
</g>

<g transform="matrix( 1.5273284912109375, 0, 0, 1.5273284912109375, -464.4,-296.2) ">
<use xlink:href="#Layer0_0_MEMBER_1_MEMBER_1_MEMBER_2_MEMBER_8_FILL"/>
</g>

<g transform="matrix( 1.5273284912109375, 0, 0, 1.5273284912109375, -464.4,-296.2) ">
<use xlink:href="#Layer0_0_MEMBER_1_MEMBER_1_MEMBER_2_MEMBER_9_FILL"/>
</g>

<g transform="matrix( 1.5273284912109375, 0, 0, 1.5273284912109375, -464.4,-296.2) ">
<use xlink:href="#Layer0_0_MEMBER_1_MEMBER_1_MEMBER_2_MEMBER_10_FILL"/>
</g>

<g transform="matrix( 1.5273284912109375, 0, 0, 1.5273284912109375, -464.4,-296.2) ">
<use xlink:href="#Layer0_0_MEMBER_1_MEMBER_1_MEMBER_2_MEMBER_11_FILL"/>
</g>

<g transform="matrix( 1.5273284912109375, 0, 0, 1.5273284912109375, -464.4,-296.2) ">
<use xlink:href="#Layer0_0_MEMBER_1_MEMBER_1_MEMBER_2_MEMBER_12_FILL"/>
</g>

<g filter="url(#Filter_1)" transform="matrix( 1, 0, 0, 1, 0,0) ">
<g transform="matrix( 1.610504150390625, 0, 0, 1.610504150390625, 288.9,92.3) ">
<g transform="matrix( 1, 0, 0, 1, 0,0) ">
<use filter="url(#Filter_2)" xlink:href="#flash0_ai_4_Isolation_Mode__Path__1_0_Layer0_0_FILL"/>
</g>
</g>
</g>

<g filter="url(#Filter_3)" transform="matrix( 1, 0, 0, 1, 0,0) ">
<g transform="matrix( 1.610504150390625, 0, 0, 1.610504150390625, 299.4,102.95) ">
<g transform="matrix( 1, 0, 0, 1, 0,0) ">
<use xlink:href="#flash0_ai_4_Isolation_Mode__Path__0_Layer0_0_FILL"/>
</g>
</g>
</g>

<g transform="matrix( 3, 0, 0, 3, 402.75,-1038.55) ">
<use xlink:href="#Layer0_0_MEMBER_2_MEMBER_2_MEMBER_0_FILL"/>
</g>

<g transform="matrix( 3, 0, 0, 3, 402.75,-1038.55) ">
<use xlink:href="#Layer0_0_MEMBER_2_MEMBER_2_MEMBER_1_FILL"/>
</g>
</g>
</svg>
