
<svg xmlns="http://www.w3.org/2000/svg" version="1.1" xmlns:xlink="http://www.w3.org/1999/xlink" preserveAspectRatio="none" x="0px" y="0px" width="334px" height="330px" viewBox="0 0 334 330">
<defs>
<g id="Layer0_0_MEMBER_0_FILL">
<path fill="#000000" fill-opacity="0.2" stroke="none" d="
M 431.05 71.7
Q 432.55 67.8 430.9 63.95 429.15 60.1 425.25 58.7
L 412.05 53.55 411.9 49.85
Q 411.65 45.65 408.6 42.85 405.5 40 401.4 40.15
L 383.75 40.9 383.3 40.1
Q 381.3 36.55 377.15 35.45 373.1 34.4 369.5 36.4
L 342.75 51.8
Q 339.2 53.9 338.1 57.95 337.05 62 339.05 65.55
L 345.45 76.65
Q 345.4 76.7 345.35 76.7 339.25 79.25 334.55 83.95 329.85 88.65 327.3 94.7 324.65 101 324.65 107.9 324.65 110.55 325.05 113.15 325.55 116.2 326.6 119.1 326.9 120.05 327.3 121 327.9 122.4 328.6 123.75 330.7 127.75 333.85 131.1 333.95 131.2 334.05 131.3 334.2 131.45 334.3 131.55 334.4 131.65 334.55 131.8 339.25 136.5 345.35 139.05 351.6 141.7 358.5 141.7 365.35 141.7 371.65 139.05 377.75 136.5 382.4 131.8 386.9 127.3 389.5 121.55
L 398.35 125
Q 400.2 125.7 402.1 125.75 404.65 126.05 407.25 124.9 411.1 123.2 412.6 119.35
L 431.05 71.7
M 370.05 119.1
Q 371.275 117.875 372.2 116.45 371.2318359375 118.023828125 369.95 119.35 367.7 121.55 364.8 122.8 361.8 124.05 358.5 124.05 355.25 124.05 352.2 122.8 349.3 121.55 347.1 119.4
L 347.1 119.35
Q 346 118.25 345.2 117.1 344.9 116.65 344.65 116.25 344.05 115.25 343.6 114.15 343.45 113.85 343.35 113.6 342.8 112.05 342.5 110.4 342.3 109.2 342.3 107.9 342.3 105.5 343 103.3 342.4 105.4 342.4 107.65 342.4 110.95 343.7 113.95 344.9 116.85 347.15 119.1 349.4 121.35 352.3 122.55 355.3 123.85 358.6 123.85 361.9 123.85 364.9 122.55 367.8 121.35 370.05 119.1
M 358.6 104.7
Q 359.8 104.7 360.7 105.6 361.55 106.45 361.55 107.65 361.55 108.9 360.7 109.75 359.8 110.6 358.6 110.6 357.4 110.6 356.55 109.75 355.65 108.9 355.65 107.65 355.65 106.45 356.55 105.6 357.4 104.7 358.6 104.7 Z"/>
</g>

<g id="Layer0_0_MEMBER_1_MEMBER_0_FILL">
<path fill="#3CB44A" stroke="none" d="
M 414.05 88.5
Q 415.2 84.45 413.1 80.85
L 387.65 36.6
Q 385.65 33.05 381.5 31.95 377.45 30.9 373.85 32.9
L 347.1 48.3
Q 343.55 50.4 342.45 54.45 341.4 58.5 343.4 62.05
L 368.85 106.3
Q 370.9 109.9 375 111 379 112.15 382.6 110.05
L 409.35 94.65
Q 412.95 92.65 414.05 88.5 Z"/>
</g>

<g id="Layer0_0_MEMBER_1_MEMBER_0_MEMBER_0_FILL">
<path fill="#FFFFFF" stroke="none" d="
M 371.8 46.85
Q 370.7 46.55 369.55 47.2 368.5 47.85 368.2 48.95 367.95 50.1 368.85 51.6
L 372.85 58.55 362.3 64.6 358.3 57.65
Q 357.4 56.15 356.35 55.8 355.25 55.5 354.1 56.15 353 56.8 352.75 57.85 352.55 58.95 353.45 60.45
L 364.4 79.45
Q 365.3 80.95 366.3 81.35 367.45 81.7 368.5 81.1 369.65 80.45 369.9 79.3 370.15 78.15 369.25 76.65
L 364.55 68.55 375.1 62.5 379.8 70.6
Q 380.7 72.1 381.75 72.45 382.9 72.8 383.95 72.15 385.1 71.5 385.35 70.35 385.6 69.25 384.7 67.75
L 373.75 48.75
Q 372.85 47.25 371.8 46.85 Z"/>
</g>

<g id="Layer0_0_MEMBER_1_MEMBER_1_FILL">
<path fill="#000000" fill-opacity="0.2" stroke="none" d="
M 270.65 48.15
Q 270.2 36.2 260.85 29.9 252.4 24.05 239.2 24.5
L 134.8 29.9
Q 122.25 30.55 113.8 39.9 105.3 49 105.75 61.4
L 123.75 207.4
Q 124.2 219.75 133.5 228.45 142.85 236.9 155.2 236.25
L 247.85 232.55
Q 260.2 232.1 268.7 222.8 277.15 213.7 276.7 201.1
L 270.65 48.15 Z"/>
</g>

<g id="Layer0_0_MEMBER_1_MEMBER_2_FILL">
<path fill="#EB5F21" stroke="none" d="
M 416.25 46.35
Q 416 42.15 412.95 39.35 409.85 36.5 405.75 36.65
L 374.85 37.95
Q 370.65 38.1 367.85 41.2 365 44.25 365.15 48.45
L 367.25 99.45
Q 367.4 103.65 370.5 106.45 373.55 109.25 377.75 109.15
L 408.55 107.9
Q 412.75 107.75 415.55 104.65 418.4 101.55 418.25 97.4
L 416.25 46.35 Z"/>
</g>

<g id="Layer0_0_MEMBER_1_MEMBER_2_MEMBER_0_FILL">
<path fill="#FFFFFF" stroke="none" d="
M 385.15 68.95
Q 385.35 69.4 385.8 70.05 386.15 70.6 386.45 70.9 386.7 71.15 387.05 71.3 387.35 71.35 387.85 71.35 388.65 71.2 389.2 70.55 389.65 69.9 389.55 69.15 389.5 68.45 388.7 67.1
L 381.7 54.75
Q 381.2 53.85 380.9 53.35 380.55 52.75 380.15 52.3 379.75 51.85 379.05 51.7 378.55 51.4 377.6 51.55 376.75 51.6 376.25 52.05 375.75 52.35 375.4 52.85 375.15 53.5 374.95 54.4 374.75 55.25 374.65 55.8
L 371.2 69.6
Q 371.05 70.4 371 70.85 370.85 71.25 370.85 71.75 371.05 72.45 371.65 72.95 372.4 73.4 373.15 73.35 374.1 73.25 374.4 72.65 374.7 71.95 375 70.45
L 375.7 67.7 383.85 66.6 385.15 68.95
M 382.35 63.6
L 376.4 64.5 378.15 55.8 382.35 63.6
M 406.1 51.4
Q 405.7 50.7 405.05 50.1 404.4 49.5 403.65 49.25 402.8 48.8 401.65 48.75 400.55 48.75 399.2 48.9
L 392.5 49.8
Q 391.35 49.95 390.8 50.65 390.3 51.2 390.45 52.6
L 392.5 67.8
Q 392.65 69.05 393.3 69.65 393.95 70.1 395.3 70
L 401.55 69.2
Q 403.1 68.95 404.2 68.6 405.35 68.25 406.3 67.7 407.6 66.95 408.4 65.45 409.05 64.05 408.8 62.3 408.35 58.65 404.1 57.9 406.95 56.1 406.6 53.05 406.45 52.15 406.1 51.4
M 402.6 55.45
Q 402.2 56.4 401.35 56.7 400.6 57.15 399.05 57.35
L 395.4 57.85 394.65 52.6 397.95 52.2
Q 400.2 51.9 401.35 52.3 402.5 52.65 402.75 54.15 402.8 54.85 402.6 55.45
M 395.75 60.8
L 399.95 60.25
Q 402.1 60 403.2 60.45 404.45 61.05 404.6 62.55 405.05 65.55 400.85 66.1
L 396.5 66.7 395.75 60.8 Z"/>
</g>

<g id="Layer0_0_MEMBER_1_MEMBER_3_FILL">
<path fill="#6600CC" fill-opacity="0.2" stroke="none" d="
M 328.8 109.55
Q 333.15 97.85 328.15 86.35 322.95 74.85 311.45 70.5
L 206.2 45.35
Q 194.7 40.8 183.2 46 171.7 51 167.15 62.7
L 130.5 197.2
Q 126.15 208.7 131.15 220.2 136.15 231.7 147.85 236.25
L 234.2 269.7
Q 245.9 274.25 257.4 269.25 268.9 264.05 273.45 252.55
L 328.8 109.55 Z"/>
</g>

<g id="Layer0_0_MEMBER_1_MEMBER_4_FILL">
<path fill="#FCC44C" stroke="none" d="
M 435.25 60.45
Q 433.5 56.6 429.6 55.2
L 400.8 43.95
Q 397 42.5 393.15 44.2 389.3 45.85 387.8 49.75
L 369.35 97.4
Q 367.85 101.25 369.6 105.1 371.25 108.9 375.15 110.45
L 403.95 121.55
Q 407.75 123.1 411.6 121.4 415.45 119.7 416.95 115.85
L 435.4 68.2
Q 436.9 64.3 435.25 60.45 Z"/>
</g>

<g id="Layer0_0_MEMBER_2_FILL">
<path fill="#FFFFFF" stroke="none" d="
M 400.7 68.8
Q 400.7 68.1 400.55 67.5 400.45 66.9 399.95 66.45 399.65 65.95 398.75 65.6 398 65.25 397.35 65.35 396.75 65.35 396.2 65.65 395.65 66.05 395.05 66.75 394.45 67.35 394.05 67.8
L 384.2 78.05
Q 383.65 78.65 383.35 79 383 79.3 382.8 79.75 382.6 80.4 382.9 81.15 383.3 81.9 384 82.25 384.85 82.6 385.45 82.25 386 81.8 387.05 80.65
L 389 78.65 396.65 81.75 396.6 84.45
Q 396.55 84.95 396.6 85.75 396.6 86.4 396.75 86.75 396.8 87.15 397.05 87.4 397.3 87.65 397.75 87.85 398.5 88.15 399.3 87.85 400 87.5 400.3 86.85 400.6 86.2 400.6 84.65
L 400.7 70.45
Q 400.7 69.4 400.7 68.8
M 396.8 78.4
L 391.2 76.2 397.1 69.55 396.8 78.4
M 412.55 71.55
Q 411.4 71.1 410.6 71.4 409.9 71.65 409.35 72.9
L 403.5 87.1
Q 403 88.3 403.3 89.15 403.65 89.85 404.85 90.4
L 410.65 92.85
Q 412.1 93.4 413.25 93.65 414.45 93.95 415.5 93.95 417.05 93.95 418.45 93 419.75 92.15 420.35 90.5 421.8 87.1 418.55 84.35 421.9 84.25 423.1 81.4 423.45 80.55 423.5 79.75 423.5 78.9 423.25 78.05 423 77.25 422.45 76.6 421.95 75.8 420.95 75.2 420.05 74.65 418.75 74.1
L 412.55 71.55
M 416.05 76.3
Q 418.1 77.2 418.95 78.1 419.75 79 419.2 80.4 418.95 81.05 418.45 81.45 417.6 82.1 416.75 81.95 415.85 81.95 414.4 81.35
L 411 79.95 413 75.05 416.05 76.3
M 409.85 82.65
L 413.75 84.3
Q 415.75 85.15 416.45 86.1 417.25 87.25 416.65 88.65 415.5 91.45 411.6 89.85
L 407.55 88.15 409.85 82.65 Z"/>
</g>

<g id="Layer0_0_MEMBER_3_MEMBER_0_MEMBER_0_FILL">
<path fill="#CDCDCD" stroke="none" d="
M 362.85 70.55
L 362.85 88.2
Q 366.15 88.2 369.15 89.45 372.05 90.7 374.3 92.9 376.5 95.2 377.75 98.1 379.05 101.1 379.05 104.4 379.05 107.7 377.75 110.65 376.5 113.6 374.3 115.85 372.05 118.05 369.15 119.3 366.15 120.55 362.85 120.55
L 362.85 138.2
Q 369.7 138.2 376 135.55 382.1 133 386.75 128.3 391.45 123.6 394.05 117.5 396.65 111.25 396.65 104.4 396.65 97.5 394.05 91.2 391.45 85.15 386.75 80.45 382.1 75.75 376 73.2 369.7 70.55 362.85 70.55 Z"/>
</g>

<g id="Layer0_0_MEMBER_3_MEMBER_0_MEMBER_1_FILL">
<path fill="#E7E7E7" stroke="none" d="
M 362.85 88.2
L 362.85 70.55
Q 355.95 70.55 349.7 73.2 343.6 75.75 338.9 80.45 334.2 85.15 331.65 91.2 329 97.5 329 104.4 329 111.25 331.65 117.5 334.2 123.6 338.9 128.3 343.6 133 349.7 135.55 355.95 138.2 362.85 138.2
L 362.85 120.55
Q 359.6 120.55 356.55 119.3 353.65 118.05 351.4 115.85 349.15 113.6 347.95 110.65 346.65 107.7 346.65 104.4 346.65 101.1 347.95 98.1 349.15 95.2 351.4 92.9 353.65 90.7 356.55 89.45 359.6 88.2 362.85 88.2 Z"/>
</g>

<g id="Layer0_0_MEMBER_3_MEMBER_0_MEMBER_2_FILL">
<path fill="#F3EEEE" stroke="none" d="
M 392.9 88.95
Q 390.5 84.2 386.75 80.45
L 374.3 93
Q 376.1 94.75 377.2 97 378.45 99.3 378.8 101.9
L 396.25 99.05
Q 395.45 93.75 392.9 88.95 Z"/>
</g>

<g id="Layer0_0_MEMBER_3_MEMBER_0_MEMBER_3_FILL">
<path fill="#78B9EB" stroke="none" d="
M 74.2 -50.2
Q 62 -62.4 46.2 -69.05 29.85 -76 12 -76
L 12 -44
Q 35.15 -44 51.55 -27.55 68 -11.15 68 12 68 35.15 51.55 51.55 35.15 68 12 68
L 12 100
Q 29.85 100 46.2 93.05 62 86.4 74.2 74.2 86.4 62 93.05 46.2 100 29.85 100 12 100 -5.85 93.05 -22.2 86.4 -38 74.2 -50.2 Z"/>
</g>

<g id="Layer0_0_MEMBER_3_MEMBER_0_MEMBER_4_FILL">
<path fill="#3D9AE2" stroke="none" d="
M 12 -44
L 12 -4
Q 18.6 -4 23.3 0.7 28 5.4 28 12 28 18.65 23.3 23.3 18.6 28 12 28
L 12 68
Q 35.15 68 51.55 51.55 68 35.15 68 12 68 -11.15 51.55 -27.55 35.15 -44 12 -44 Z"/>
</g>

<g id="Layer0_0_MEMBER_3_MEMBER_0_MEMBER_5_FILL">
<path fill="#78B9EB" stroke="none" d="
M 12 -4
L 12 -44
Q -11.15 -44 -27.55 -27.55 -44 -11.15 -44 12 -44 35.15 -27.55 51.55 -11.15 68 12 68
L 12 28
Q 5.35 28 0.7 23.3 -4 18.65 -4 12 -4 5.4 0.7 0.7 5.35 -4 12 -4 Z"/>
</g>

<g id="Layer0_0_MEMBER_3_MEMBER_0_MEMBER_6_FILL">
<path fill="#F8F4F1" stroke="none" d="
M 348.2 119.05
Q 346.65 117.5 345.65 115.6 344.65 113.6 344.3 111.45
L 329.4 113.8
Q 330.15 118.35 332.25 122.5 334.3 126.5 337.5 129.7
L 348.2 119.05 Z"/>
</g>

<g id="Layer0_0_MEMBER_3_MEMBER_0_MEMBER_7_FILL">
<path fill="#B3D8F4" stroke="none" d="
M 12 -44
L 12 -76
Q -5.85 -76 -22.2 -69.05 -38 -62.35 -50.2 -50.2 -62.35 -38 -69.05 -22.2 -76 -5.85 -76 12 -76 29.85 -69.05 46.2 -62.4 62 -50.2 74.2 -38 86.4 -22.2 93.05 -5.85 100 12 100
L 12 68
Q -11.15 68 -27.55 51.55 -44 35.15 -44 12 -44 -11.15 -27.55 -27.55 -11.15 -44 12 -44 Z"/>
</g>
</defs>

<g transform="matrix( 3, 0, 0, 3, -973.95,-94.75) ">
<use xlink:href="#Layer0_0_MEMBER_0_FILL"/>
</g>

<g transform="matrix( 3, 0, 0, 3, -973.95,-94.75) ">
<use xlink:href="#Layer0_0_MEMBER_1_MEMBER_0_FILL"/>
</g>

<g transform="matrix( 3, 0, 0, 3, -973.95,-94.75) ">
<use xlink:href="#Layer0_0_MEMBER_1_MEMBER_0_MEMBER_0_FILL"/>
</g>

<g transform="matrix( 1, 0, 0, 1, 0,0) ">
<use xlink:href="#Layer0_0_MEMBER_1_MEMBER_1_FILL"/>
</g>

<g transform="matrix( 3, 0, 0, 3, -973.95,-94.75) ">
<use xlink:href="#Layer0_0_MEMBER_1_MEMBER_2_FILL"/>
</g>

<g transform="matrix( 3, 0, 0, 3, -973.95,-94.75) ">
<use xlink:href="#Layer0_0_MEMBER_1_MEMBER_2_MEMBER_0_FILL"/>
</g>

<g transform="matrix( 1, 0, 0, 1, 0,0) ">
<use xlink:href="#Layer0_0_MEMBER_1_MEMBER_3_FILL"/>
</g>

<g transform="matrix( 3, 0, 0, 3, -973.95,-94.75) ">
<use xlink:href="#Layer0_0_MEMBER_1_MEMBER_4_FILL"/>
</g>

<g transform="matrix( 3, 0, 0, 3, -973.95,-94.75) ">
<use xlink:href="#Layer0_0_MEMBER_2_FILL"/>
</g>

<g transform="matrix( 3, 0, 0, 3, -973.95,-94.75) ">
<use xlink:href="#Layer0_0_MEMBER_3_MEMBER_0_MEMBER_0_FILL"/>
</g>

<g transform="matrix( 3, 0, 0, 3, -973.95,-94.75) ">
<use xlink:href="#Layer0_0_MEMBER_3_MEMBER_0_MEMBER_1_FILL"/>
</g>

<g transform="matrix( 3, 0, 0, 3, -973.95,-94.75) ">
<use xlink:href="#Layer0_0_MEMBER_3_MEMBER_0_MEMBER_2_FILL"/>
</g>

<g transform="matrix( 0.55169677734375, 0, 0, 0.55169677734375, 108.3,211.1) ">
<use xlink:href="#Layer0_0_MEMBER_3_MEMBER_0_MEMBER_3_FILL"/>
</g>

<g transform="matrix( 0.55169677734375, 0, 0, 0.55169677734375, 108.3,211.1) ">
<use xlink:href="#Layer0_0_MEMBER_3_MEMBER_0_MEMBER_4_FILL"/>
</g>

<g transform="matrix( 0.55169677734375, 0, 0, 0.55169677734375, 108.3,211.1) ">
<use xlink:href="#Layer0_0_MEMBER_3_MEMBER_0_MEMBER_5_FILL"/>
</g>

<g transform="matrix( 3.51470947265625, 0, 0, 3.51470947265625, -1143.45,-165.7) ">
<use xlink:href="#Layer0_0_MEMBER_3_MEMBER_0_MEMBER_6_FILL"/>
</g>

<g transform="matrix( 0.55169677734375, 0, 0, 0.55169677734375, 108.3,211.1) ">
<use xlink:href="#Layer0_0_MEMBER_3_MEMBER_0_MEMBER_7_FILL"/>
</g>
</svg>
