
<svg xmlns="http://www.w3.org/2000/svg" version="1.1" xmlns:xlink="http://www.w3.org/1999/xlink" preserveAspectRatio="none" x="0px" y="0px" width="375px" height="342px" viewBox="0 0 375 342">
<defs>
<filter id="Filter_1" x="-20%" y="-20%" width="140%" height="140%" color-interpolation-filters="sRGB">
<feColorMatrix in="SourceGraphic" type="matrix" values="1 0 0 0 0 0 1 0 0 0 0 0 1 0 0 0 0 0 0.75 0" result="result1"/>
</filter>

<g id="Layer0_0_FILL">
<path fill="#666666" stroke="none" d="
M 16.8 181.2
Q 18.9 183.3 21.75 183.3
L 70.5 183.3
Q 73.5 183.3 75.6 181.2 77.55 179.1 77.55 176.25 77.55 173.25 75.6 171.3 73.5 169.2 70.5 169.2
L 21.75 169.2
Q 18.9 169.2 16.8 171.3 14.7 173.25 14.7 176.25 14.7 179.1 16.8 181.2 Z"/>
</g>

<g id="Layer0_0_MEMBER_0_FILL">
<path fill="#000000" fill-opacity="0.2" stroke="none" d="
M 764.85 89.25
Q 764.85 90.2 765.55 90.9 766.25 91.6 767.2 91.6
L 783.45 91.6
Q 784.45 91.6 785.15 90.9 785.8 90.2 785.8 89.25 785.8 88.25 785.15 87.6 784.45 86.9 783.45 86.9
L 767.2 86.9
Q 766.25 86.9 765.55 87.6 764.85 88.25 764.85 89.25
M 788 44.05
Q 787.3 43.4 786.3 43.4 785.35 43.4 784.65 44.05 783.95 44.75 783.95 45.75 783.95 46.7 784.65 47.4
L 796.15 58.9
Q 796.85 59.6 797.8 59.6 798.8 59.6 799.5 58.9 800.15 58.2 800.15 57.25 800.15 56.25 799.5 55.55
L 788 44.05
M 815.8 138.15
Q 815.8 140.35 818.85 141.85 821.65 143.25 825.1 143.25 828.6 143.25 831.4 141.85 834.4 140.35 834.4 138.15
L 815.8 138.15
M 811.4 132.45
Q 810.85 132.9 810.85 133.5
L 810.85 134.55
Q 810.85 135.2 811.4 135.65 811.95 136.1 812.7 136.1
L 837.5 136.1
Q 838.3 136.1 838.85 135.65 839.4 135.2 839.4 134.55
L 839.4 133.5
Q 839.4 132.9 838.85 132.45 838.3 132 837.5 132
L 812.7 132
Q 811.95 132 811.4 132.45
M 810.85 128.4
Q 810.85 129.05 811.4 129.5 811.95 129.95 812.7 129.95
L 837.5 129.95
Q 838.3 129.95 838.85 129.5 839.4 129.05 839.4 128.4
L 839.4 127.35
Q 839.4 126.75 838.85 126.3 838.3 125.85 837.5 125.85
L 812.7 125.85
Q 811.95 125.85 811.4 126.3 810.85 126.75 810.85 127.35
L 810.85 128.4
M 839.4 122.25
L 839.4 121.2
Q 839.4 120.55 838.85 120.1 838.3 119.65 837.5 119.65
L 812.7 119.65
Q 811.95 119.65 811.4 120.1 810.85 120.55 810.85 121.2
L 810.85 122.25
Q 810.85 122.9 811.4 123.3 811.95 123.75 812.7 123.75
L 837.5 123.75
Q 838.3 123.75 838.85 123.3 839.4 122.9 839.4 122.25
M 866.35 86.9
Q 865.35 86.9 864.7 87.6 864 88.25 864 89.25 864 90.2 864.7 90.9 865.35 91.6 866.35 91.6
L 882.6 91.6
Q 883.6 91.6 884.25 90.9 884.95 90.2 884.95 89.25 884.95 88.25 884.25 87.6 883.6 86.9 882.6 86.9
L 866.35 86.9
M 824.65 60.3
Q 824 58.35 823.05 57.1 821.2 54.75 817.6 54.6 814.1 54.5 811.95 56.85 811.3 57.55 810.85 58.45
L 810.5 59.2
Q 804.85 59.5 802.1 62.15 800.75 63.5 800.5 64.8 796.1 66.15 794.5 70.35 793.7 72.4 793.75 74.2 790.55 76.75 790.5 80.5 790.5 82.4 791.1 83.75 788.45 86.8 789.5 90.75 790.05 92.75 791.1 94.1 790.6 98.95 792.6 102.1 793.6 103.65 794.7 104.25 796.1 109.6 800.5 111.85 802.7 113 804.65 113.1 807.05 116.8 812 117.3 814.5 117.55 816.5 117.05 820.95 116.9 823.25 112.65 823.95 111.35 824.35 109.75
L 824.65 108.45 824.65 60.3
M 849.75 64.8
Q 849.5 63.5 848.15 62.15 845.35 59.5 839.7 59.2 839.35 58 838.3 56.85 836.15 54.5 832.6 54.6 829 54.75 827.2 57.1 826.6 57.85 826.15 58.95 825.9 59.5 825.6 60.3
L 825.6 108.45 825.9 109.75
Q 826.3 111.35 827 112.65 829.3 116.9 833.7 117.05
L 835.05 117.25
Q 836.65 117.45 838.2 117.3 843.2 116.8 845.6 113.1 847.55 113 849.75 111.85 854.15 109.6 855.55 104.25 856.65 103.65 857.65 102.1 859.65 98.95 859.15 94.1 860.2 92.75 860.7 90.75 861.75 86.8 859.15 83.75 859.75 82.4 859.75 80.5 859.7 76.75 856.45 74.2 856.55 72.4 855.75 70.35 854.15 66.15 849.75 64.8
M 826.7 31.2
Q 826 30.5 825 30.5 824.05 30.5 823.35 31.2 822.65 31.9 822.65 32.85
L 822.65 49.15
Q 822.65 50.1 823.35 50.8 824.05 51.5 825 51.5 826 51.5 826.7 50.8 827.35 50.1 827.35 49.15
L 827.35 32.85
Q 827.35 31.9 826.7 31.2
M 866.05 45.75
Q 866.05 44.75 865.4 44.05 864.7 43.4 863.7 43.4 862.75 43.4 862.05 44.05
L 850.55 55.55
Q 849.85 56.25 849.85 57.25 849.85 58.2 850.55 58.9 851.25 59.6 852.25 59.6 853.2 59.6 853.9 58.9
L 865.4 47.4
Q 866.05 46.7 866.05 45.75 Z"/>
</g>

<g id="Layer0_0_MEMBER_1_MEMBER_0_MEMBER_0_FILL">
<path fill="#666666" stroke="none" d="
M 844.5 53.05
Q 840.9 53.2 839.1 55.55 838.5 56.3 838.05 57.4 837.8 57.95 837.5 58.75
L 837.5 106.9 837.8 108.2
Q 838.2 109.8 838.9 111.1 841.2 115.35 845.6 115.5
L 846.95 115.7
Q 848.55 115.9 850.1 115.75 855.1 115.25 857.5 111.55 859.45 111.45 861.65 110.3 866.05 108.05 867.45 102.7 868.55 102.1 869.55 100.55 871.55 97.4 871.05 92.55 872.1 91.2 872.6 89.2 873.65 85.25 871.05 82.2 871.65 80.85 871.65 78.95 871.6 75.2 868.35 72.65 868.45 70.85 867.65 68.8 866.05 64.6 861.65 63.25 861.4 61.95 860.05 60.6 857.25 57.95 851.6 57.65 851.25 56.45 850.2 55.3 848.05 52.95 844.5 53.05 Z"/>
</g>

<g id="Layer0_0_MEMBER_1_MEMBER_0_MEMBER_1_FILL">
<path fill="#FAFAFA" stroke="none" d="
M 422.3 268.45
Q 417.4 271.9 413.4 277.35
L 410.4 282.1 410.4 343.3
Q 417.55 372.6 438 390.6 448.25 399.6 457.05 402.75 477 402.15 481.35 385.7 482.7 380.6 482.35 374.5
L 481.7 369.4
Q 480.2 369.4 477.5 368.7
L 475.1 367.95
Q 470.35 364.9 472.25 363.7 473.2 363.1 475.1 363.1 485.5 365.8 490.2 363.05 492.55 361.7 492.85 359.75 496.15 357.95 497.75 359.4 498.55 360.1 498.65 361.2 498.65 362.4 494.8 366.25
L 490.9 369.9
Q 491.4 375.2 488.5 390.2 493.05 391.1 500.65 390.75 504.45 390.55 507.35 390.2 526.7 386 535.15 366.4 537.8 360.3 539.05 353.35
L 539.75 347.65
Q 540.35 327.4 526.35 316.65 521.95 313.25 516.65 311.25
L 512.2 309.9
Q 504.35 292.7 488.4 287.5 483.4 285.85 478.2 285.65
L 474 285.75
Q 474.9 300.25 468.95 310.15 467.1 313.25 464.8 315.5
L 462.85 317.15
Q 456.2 322.9 446.6 325.7
L 438.3 327.35
Q 438.7 328.25 436.8 331.75
L 434.8 335.05
Q 431.2 337.5 430.45 334.85
L 430.45 331.7
Q 434.1 325.05 433.15 318.75 432.85 316.8 432.1 315.1
L 431.45 313.8
Q 430.55 311.7 431.4 310.35 431.8 309.7 432.4 309.45 436.6 307.65 437.9 313.3 438.5 316.15 438.3 319.35 447.8 317.75 453.45 314.55 456.25 313 457.15 311.7 469.9 299.5 464.8 283.55 463.2 278.55 460 273.8
L 457.15 270.05
Q 438.05 257.3 422.3 268.45 Z"/>
</g>

<g id="Layer0_0_MEMBER_1_MEMBER_0_MEMBER_2_FILL">
<path fill="#FAFAFA" stroke="none" d="
M 848.5 91.35
Q 849.1 91.25 849 92.1
L 849.15 93.95 849.95 94.35
Q 850.95 94.7 852.05 94.75 855.4 95 857.75 92.1
L 858.65 92.85 859.4 93.3
Q 860.35 93.8 861.35 94.1 864.7 95 867.7 93.25 869.4 92.6 870.4 90.9 872.45 87.6 869.2 82.7 869.8 81.45 869.95 79.8 870.2 76.55 868 74.8 867.35 77.35 865.4 79.65 861.45 84.25 854.7 83.1 854.35 83.5 853.85 84 852.8 84.95 851.95 85.25
L 855.2 85.55 855.45 85.8
Q 855.7 86.05 855.8 86.35 856.1 87.2 854.7 87.6 852.25 87.55 849.1 86.25 842.75 83.7 839.25 77.55
L 839.25 106.9 839.6 108.05
Q 840.15 109.5 840.95 110.65 843.55 114.45 848 114.35
L 849.35 114.25
Q 851 114 852.45 113.4 857.05 111.55 857.85 106.9 858.2 105.5 858 103.75 857.6 100.25 855 98.35 855.05 97.8 855.25 97.4 855.7 96.6 856.75 97.25
L 857.5 98.1
Q 858.35 99.2 858.95 100.55 860.75 104.8 858.85 109.5 860.05 109.5 861.6 108.5 864.7 106.55 866.4 101.8 867.35 101.05 868.25 99.7 870.1 97.05 869.85 94.2 868.8 94.8 867.3 95.3 864.35 96.35 862.2 95.95 861.4 95.75 860.5 95.45 858.7 94.8 858.25 94.2 857.2 95.25 855.4 95.95 851.8 97.3 848.1 95.3 847.8 95.65 847.35 95.95 846.5 96.5 845.85 95.95 846.6 95.4 848 94.1
L 847.9 91.65 848.5 91.35 Z"/>
</g>

<g id="Layer0_0_MEMBER_1_MEMBER_1_MEMBER_0_FILL">
<path fill="#666666" stroke="none" d="
M 829.5 53.05
Q 826 52.95 823.85 55.3 823.2 56 822.75 56.9
L 822.4 57.65
Q 816.75 57.95 814 60.6 812.65 61.95 812.4 63.25 808 64.6 806.4 68.8 805.6 70.85 805.65 72.65 802.45 75.2 802.4 78.95 802.4 80.85 803 82.2 800.35 85.25 801.4 89.2 801.95 91.2 803 92.55 802.5 97.4 804.5 100.55 805.5 102.1 806.6 102.7 808 108.05 812.4 110.3 814.6 111.45 816.55 111.55 818.95 115.25 823.9 115.75 826.4 116 828.4 115.5 832.85 115.35 835.15 111.1 835.85 109.8 836.25 108.2
L 836.55 106.9 836.55 58.75
Q 835.9 56.8 834.95 55.55 833.1 53.2 829.5 53.05 Z"/>
</g>

<g id="Layer0_0_MEMBER_1_MEMBER_1_MEMBER_1_FILL">
<path fill="#FAFAFA" stroke="none" d="
M 834.8 58.7
Q 833.95 57 832.3 55.85 829 53.5 825 56.2 824.75 56.45 824.4 56.95 823.7 57.95 823.4 59 822.3 62.35 825 64.9
L 825.8 65.5
Q 826.95 66.2 828.95 66.5 828.9 65.85 829.05 65.25 829.3 64.05 830.2 64.45
L 830.4 64.65
Q 830.6 64.9 830.4 65.35
L 830.25 65.65
Q 830.1 66 830.05 66.4 829.85 67.7 830.6 69.1
L 830.6 69.75
Q 830.45 70.35 829.7 69.8 829.45 69.5 829.25 69.1 828.85 68.4 828.95 68.2 828.2 68.15 827.2 67.85 825.2 67.25 823.8 66.05 823.15 65.65 822.5 64.6 821.3 62.5 821.45 59.45 820.1 59.3 818.45 59.85 815.1 60.95 813.45 64.55 811.95 64.8 810.45 65.95 807.55 68.2 807.65 72.45
L 807.8 73.65
Q 808.05 75.1 808.6 76.4 810.4 80.5 814.45 81.4
L 815.85 81.5
Q 817.45 81.6 818.4 81.4 818.25 80.6 818.1 79.7 817.85 77.8 817.9 77.15 817.5 76.75 817.1 76.35 816.3 75.55 816.3 75.3 816.3 75.05 816.45 74.95 816.8 74.6 817.5 75
L 817.6 75.25
Q 817.75 75.5 818.05 75.7 819.05 76.25 821.2 75.7
L 821.8 75.85
Q 822.2 76.1 821.2 76.7 820.35 77.05 819.85 77.05
L 819.7 78.1
Q 819.65 79.4 819.9 80.45 820.8 83.9 825 84 826.85 83.35 829 81.45 833.3 77.7 834.8 71.55
L 834.8 58.7 Z"/>
</g>

<g id="Layer0_0_MEMBER_1_MEMBER_1_MEMBER_2_FILL">
<path fill="#FAFAFA" stroke="none" d="
M 822.05 85.25
Q 821.25 84.95 820.2 84
L 819.35 83.1
Q 812.6 84.25 808.65 79.65 807.4 78.2 806.6 76.35
L 806.05 74.8
Q 803.8 76.55 804.1 79.8 804.25 81.45 804.8 82.7 801.6 87.6 803.65 90.9 804.65 92.6 806.35 93.25 809.3 95 812.65 94.1 814.35 93.65 815.4 92.85
L 816.3 92.1
Q 818.65 95 822 94.75 823.7 94.65 824.9 93.95
L 825 92.1
Q 824.95 91.25 825.55 91.35 825.85 91.4 826.15 91.65
L 826.05 94.1
Q 827.45 95.4 828.15 95.95 827.5 96.5 826.65 95.95
L 825.9 95.3
Q 822.25 97.3 818.65 95.95 817.5 95.55 816.55 94.8
L 815.8 94.2
Q 815.35 94.8 813.55 95.45
L 811.8 95.95
Q 809.65 96.35 806.7 95.3 805.8 95 804.9 94.55
L 804.2 94.2
Q 803.95 97.05 805.8 99.7 806.7 101.05 807.65 101.8 809.35 106.55 812.45 108.5 813.95 109.5 815.15 109.5 813.25 104.8 815.1 100.55 815.65 99.2 816.55 98.1
L 817.3 97.25
Q 818.3 96.6 818.8 97.4 819 97.8 819.05 98.35 816.45 100.25 816.05 103.75 815.85 105.5 816.2 106.9 817 111.55 821.6 113.4 823.9 114.35 826.05 114.35 830.45 114.45 833.1 110.65 833.9 109.5 834.45 108.05
L 834.8 106.9 834.8 77.55
Q 831.3 83.7 824.95 86.25 823 87.05 820.95 87.4
L 819.35 87.6
Q 817.95 87.2 818.25 86.35 818.35 86.05 818.6 85.8
L 818.85 85.55 822.05 85.25 Z"/>
</g>

<g id="Layer0_0_MEMBER_2_FILL">
<path fill="#4ECDC4" stroke="none" d="
M 485.8 479.8
Q 484.9 477 482.75 475.2 477.55 470.85 470.8 476.2 469.05 469.1 462.25 469.45 459.45 469.6 457.15 471.2 454.8 472.85 454.1 475.35 452.35 481.65 455.3 486.25 457.25 489.35 464.9 497.45 467.65 496.75 472.4 495.7 476.4 494.8 478.55 493.9 484.25 491.45 486 485.15 486.7 482.6 485.8 479.8 Z"/>
</g>

<g id="Layer0_0_MEMBER_3_FILL">
<path fill="#FF6B6B" stroke="none" d="
M 545.4 440.5
L 545.45 440.55 553.05 419.6 530.95 414.7 525.1 430.85 524.55 430.6
Q 522.8 429.95 521.05 430.8 519.35 431.6 518.7 433.35 518.05 435.1 518.85 436.85 519.65 438.55 521.45 439.2 523.2 439.85 524.95 439.05 526.65 438.25 527.3 436.5
L 531.35 425.3 545.55 428.45 543.25 434.75 542.75 434.5
Q 540.95 433.85 539.25 434.65 537.55 435.45 536.9 437.25 536.25 439 537.05 440.75 537.85 442.45 539.6 443.1 541.35 443.75 543.05 443 544.75 442.25 545.4 440.5
M 547.7 422.55
L 546.95 424.65 532.75 421.5 533.5 419.4 547.7 422.55 Z"/>
</g>

<g id="Layer0_0_MEMBER_4_FILL">
<path fill="#4ECDC4" stroke="none" d="
M 545.4 380.2
L 541.45 380.9 544.15 396.1 543.55 396.15
Q 541.65 396.5 540.6 398.05 539.5 399.6 539.85 401.45 540.2 403.35 541.75 404.4 543.3 405.5 545.15 405.15 547.05 404.8 548.1 403.25 549.2 401.7 548.85 399.85
L 545.4 380.2 Z"/>
</g>

<g id="Layer0_0_MEMBER_5_MEMBER_0_FILL">
<path fill="#C44D58" stroke="none" d="
M 452.3 529.5
Q 452.4 528.35 451.6 527.45 450.8 526.6 449.65 526.55 448.55 526.5 447.65 527.25 446.8 528 446.7 529.15 446.65 530.35 447.45 531.2 448.2 532.05 449.35 532.1 450.5 532.2 451.4 531.4 452.25 530.65 452.3 529.5 Z"/>
</g>

<g id="Layer0_0_MEMBER_5_MEMBER_1_FILL">
<path fill="#C44D58" stroke="none" d="
M 454.55 534.25
Q 454.6 533.45 454.05 532.85 453.5 532.25 452.7 532.2 451.9 532.15 451.3 532.65 450.7 533.2 450.6 534 450.55 534.8 451.1 535.45 451.65 536.05 452.45 536.1 453.25 536.15 453.9 535.6 454.5 535.05 454.55 534.25 Z"/>
</g>

<g id="Layer0_0_MEMBER_5_MEMBER_2_FILL">
<path fill="#C44D58" stroke="none" d="
M 452.6 507.6
L 454.1 502.15 447.75 503.25 445.9 498.1 440.75 501.75 436.05 498.25 433.5 503.5 427.25 502.65 428 508.05 421.85 510.05 425.7 514.2 421.3 518.5 427.2 520.3 425.7 525.75 432.1 524.65 433.95 529.8 439.1 526.15 443.75 529.6 446.3 524.4 452.55 525.25 451.8 519.8 457.95 517.8 454.1 513.7 458.55 509.35 452.6 507.6 Z"/>
</g>

<g id="Layer0_0_MEMBER_6_MEMBER_0_FILL">
<path fill="#B2D84A" stroke="none" d="
M 284.75 410.5
Q 284.6 410.05 283.7 409.95 282.8 409.9 282.55 409.35 282.3 408.8 282.85 408.1 283.4 407.4 283.2 407 282.95 406.6 282.05 406.7 281.15 406.85 280.8 406.35 280.45 405.9 280.85 405.1 281.25 404.3 280.95 403.9 280.65 403.55 279.8 403.9 278.95 404.2 278.5 403.8 278.05 403.4 278.25 402.5 278.5 401.65 278.1 401.35 277.75 401.1 276.95 401.55 276.2 402.05 275.7 401.75 275.15 401.45 275.2 400.55 275.25 399.65 274.8 399.45 274.4 399.25 273.75 399.9 273.1 400.55 272.5 400.35 271.95 400.15 271.8 399.25 271.65 398.4 271.2 398.3 270.7 398.2 270.2 398.95 269.7 399.7 269.15 399.65 268.55 399.6 268.2 398.75 267.85 397.9 267.4 397.9 266.95 397.9 266.6 398.75 266.25 399.6 265.65 399.65 265.1 399.7 264.55 398.95 264.05 398.2 263.6 398.3 263.15 398.4 263 399.25 262.85 400.15 262.25 400.35 261.7 400.55 261.05 399.9 260.4 399.25 260 399.45 259.55 399.65 259.6 400.55 259.65 401.45 259.1 401.75 258.6 402.05 257.85 401.55 257.05 401.1 256.65 401.35 256.3 401.65 256.5 402.5 256.75 403.4 256.3 403.8 255.85 404.2 255 403.9 254.15 403.55 253.85 403.9 253.55 404.3 253.95 405.1 254.35 405.9 254 406.35 253.65 406.85 252.75 406.7 251.85 406.6 251.6 407 251.4 407.4 251.95 408.1 252.5 408.8 252.25 409.35 252 409.9 251.1 409.95 250.2 410.05 250.05 410.5 249.9 410.95 250.6 411.5 251.3 412.1 251.2 412.65 251.05 413.25 250.2 413.5 249.35 413.75 249.3 414.2 249.2 414.7 250 415.1 250.85 415.5 250.85 416.1 250.85 416.7 250 417.15 249.2 417.55 249.3 418.05 249.35 418.5 250.2 418.75 251.05 419 251.2 419.55 251.3 420.15 250.6 420.7 249.95 421.3 250.05 421.75 250.2 422.2 251.1 422.25 252 422.35 252.25 422.85 252.5 423.4 251.95 424.1 251.4 424.8 251.6 425.25 251.85 425.65 252.75 425.5 253.65 425.4 254 425.85 254.35 426.35 253.95 427.15 253.55 427.95 253.85 428.3 254.15 428.65 255 428.35 255.85 428.05 256.3 428.45 256.75 428.85 256.5 429.7 256.3 430.55 256.65 430.85 257.05 431.15 257.85 430.65 258.6 430.15 259.1 430.45 259.65 430.75 259.6 431.65 259.55 432.55 260 432.75 260.4 432.95 261.05 432.3 261.7 431.7 262.25 431.9 262.85 432.05 263 432.95 263.15 433.85 263.6 433.95 264.05 434.05 264.55 433.3 265.1 432.55 265.65 432.6 266.25 432.65 266.6 433.5 266.95 434.35 267.4 434.35 267.85 434.35 268.2 433.5 268.55 432.65 269.15 432.6 269.7 432.55 270.2 433.3 270.75 434.05 271.2 433.95 271.65 433.85 271.8 432.95 271.95 432.05 272.5 431.9 273.05 431.7 273.75 432.3 274.4 432.95 274.8 432.75 275.25 432.55 275.2 431.65 275.15 430.75 275.7 430.45 276.2 430.15 276.95 430.65 277.75 431.15 278.1 430.85 278.5 430.55 278.25 429.7 278.05 428.85 278.5 428.45 278.95 428.05 279.8 428.35 280.65 428.65 280.95 428.3 281.25 427.95 280.85 427.15 280.45 426.35 280.8 425.85 281.15 425.4 282.05 425.5 282.95 425.65 283.2 425.25 283.4 424.8 282.85 424.1 282.3 423.4 282.55 422.85 282.8 422.35 283.7 422.25 284.6 422.2 284.75 421.75 284.9 421.3 284.2 420.7 283.5 420.15 283.6 419.55 283.75 419 284.6 418.75 285.45 418.5 285.5 418.05 285.55 417.55 284.75 417.15 283.95 416.7 283.95 416.1 283.95 415.5 284.75 415.1 285.55 414.7 285.5 414.2 285.45 413.75 284.6 413.5 283.75 413.25 283.6 412.65 283.5 412.1 284.2 411.5 284.9 410.95 284.75 410.5 Z"/>
</g>

<g id="Layer0_0_MEMBER_6_MEMBER_1_FILL">
<path fill="#FAFAFA" stroke="none" d="
M 280.3 416.1
Q 280.3 410.75 276.55 406.95 272.75 403.2 267.4 403.2 262.05 403.2 258.25 406.95 254.45 410.75 254.45 416.1 254.45 421.45 258.25 425.25 262.05 429.05 267.4 429.05 272.75 429.05 276.55 425.25 280.3 421.45 280.3 416.1 Z"/>
</g>

<g id="flash0_ai_7_Capa_1__Path__1_0_Layer0_0_FILL">
<path fill="#C44D58" stroke="none" d="
M 15.05 4.3
Q 12.95 4.1 11.4 2.25 10.15 0.85 10.1 0
L 6.55 9.45
Q 5.95 8.45 4.55 7.95 3.15 7.45 1.85 7.85 0.55 8.3 0.15 9.4 -0.25 10.55 0.45 11.65 1.15 12.75 2.55 13.25 3.95 13.75 5.25 13.35 6.55 12.9 6.95 11.8
L 6.95 11.7 7 11.6 9.95 3.7
Q 11.35 4.9 13.35 4.75 14.35 4.65 15.05 4.3 Z"/>
</g>

<g id="Layer0_0_MEMBER_7_MEMBER_1_FILL">
<path fill="#C44D58" stroke="none" d="
M 512.15 412.4
Q 510 409.9 509.85 408.35
L 503.5 425.3
Q 502.2 423.4 499.85 422.6 497.35 421.7 495 422.5 492.7 423.25 491.95 425.25 491.2 427.2 492.45 429.25 493.75 431.3 496.25 432.15 498.75 433.05 501.1 432.25 503.4 431.5 504.15 429.5
L 504.2 429.3 504.3 429.15 509.6 414.95
Q 512.05 417.15 515.65 416.85 517.45 416.7 518.75 416.1 514.95 415.7 512.15 412.4 Z"/>
</g>

<g id="flash0_ai_7_Capa_1__Path__1_0_0_Layer0_0_FILL">
<path fill="#FF6B6B" stroke="none" d="
M 7.15 11.95
L 7.15 11.7 6.1 3.35
Q 7.9 3.8 9.6 2.75 10.45 2.2 10.95 1.55 8.95 2.3 6.7 1.4 5.05 0.75 4.55 0
L 5.75 10
Q 4.55 9.4 3.25 9.6 1.8 9.85 0.85 10.8 -0.1 11.8 0.05 12.95 0.2 14.1 1.35 14.8 2.45 15.45 3.95 15.25 5.4 15.05 6.35 14.1 7.3 13.1 7.15 11.95 Z"/>
</g>

<g id="Layer0_0_MEMBER_8_MEMBER_1_FILL">
<path fill="#FF6B6B" stroke="none" d="
M 519.6 489.85
Q 517.9 491.6 518.15 493.7 518.4 495.8 520.45 497 522.5 498.25 525.15 497.85 527.8 497.5 529.45 495.75 531.15 494 530.9 491.9
L 530.85 491.7 530.85 491.5 529.05 476.45
Q 532.25 477.3 535.3 475.35 536.85 474.4 537.7 473.25 534.15 474.65 530.1 473.05 527.05 471.8 526.25 470.5
L 528.4 488.45
Q 526.4 487.4 523.9 487.7 521.25 488.1 519.6 489.85 Z"/>
</g>

<g id="Layer0_0_MEMBER_9_MEMBER_0_FILL">
<path fill="#4ECDC4" stroke="none" d="
M 317.8 484.2
L 323.3 483 322.45 479.05 312.3 481.25 316.2 499.15 326.35 496.95 325.5 493 320 494.2 319.3 491.1 324.55 489.95 323.7 486.05 318.45 487.2 317.8 484.2 Z"/>
</g>

<g id="Layer0_0_MEMBER_9_MEMBER_1_FILL">
<path fill="#4ECDC4" stroke="none" d="
M 339.6 482.8
L 327.45 485.45 328.2 489 340.35 486.35 339.6 482.8
M 340.85 488.5
L 328.7 491.15 329.45 494.7 341.6 492.05 340.85 488.5 Z"/>
</g>

<g id="Layer0_0_MEMBER_9_MEMBER_2_FILL">
<path fill="#4ECDC4" stroke="none" d="
M 356.4 482
Q 356.65 480.75 357.95 480.45 359.15 480.2 359.8 481.3 360.15 481.95 360.45 483.4
L 361.75 489.2 366.05 488.25 364.35 480.5
Q 363.3 475.65 359.15 476.6 357.9 476.85 356.9 477.7 355.9 478.55 355.55 479.8 353.75 477.75 350.9 478.4 348.55 478.9 347.45 481.15
L 347.4 481.15 347.1 479.65 342.75 480.6 345.4 492.75 349.75 491.8 348.45 486
Q 348.1 484.5 348.2 483.75 348.35 482.45 349.65 482.2 350.9 481.9 351.6 483 351.95 483.6 352.3 485.15
L 353.6 491 357.9 490.05 356.6 484.25
Q 356.3 482.7 356.4 482 Z"/>
</g>

<g id="Layer0_0_MEMBER_9_MEMBER_3_FILL">
<path fill="#4ECDC4" stroke="none" d="
M 375.85 477.5
L 375.05 473.85
Q 373.7 473.4 372.05 473.75 369.15 474.4 367.65 476.65 366.05 479 366.7 481.9 367.3 484.6 369.65 486 371.95 487.35 374.7 486.8 376.35 486.4 377.6 485.45
L 376.8 481.8
Q 376.15 482.75 374.8 483.1 373.5 483.35 372.45 482.7 371.4 482.05 371.15 480.75 370.85 479.5 371.55 478.45 372.2 477.4 373.45 477.15 374.4 476.95 375.85 477.5 Z"/>
</g>

<g id="Layer0_0_MEMBER_10_MEMBER_0_FILL">
<path fill="#FF6B6B" stroke="none" d="
M 359 520.6
Q 356.55 519.85 354.6 520.65 352.45 521.5 351.75 523.9 351 526.35 352.2 528.25 353.35 530 355.85 530.8 358.3 531.6 360.25 530.75 362.35 529.9 363.1 527.45 363.85 525.05 362.6 523.15 361.45 521.35 359 520.6
M 356.25 523.55
Q 357.2 523.05 358.15 523.35 359.1 523.65 359.6 524.55 360.05 525.45 359.75 526.45 359.45 527.4 358.55 527.9 357.7 528.35 356.7 528.05 355.7 527.75 355.25 526.85 354.75 525.95 355.05 525 355.35 524.05 356.25 523.55
M 362.55 509.75
L 359.85 508.9 341.25 525.95 343.95 526.8 362.55 509.75
M 352.1 511.75
Q 352.85 509.35 351.6 507.45 350.4 505.65 348 504.9 345.55 504.15 343.6 504.95 341.45 505.8 340.7 508.2 339.95 510.6 341.2 512.55 342.35 514.3 344.8 515.1 347.3 515.9 349.25 515.05 351.35 514.2 352.1 511.75
M 348.55 508.85
Q 349.05 509.8 348.75 510.75 348.45 511.7 347.55 512.2 346.65 512.65 345.65 512.35 344.7 512.05 344.2 511.15 343.75 510.3 344.05 509.3 344.35 508.3 345.25 507.85 346.15 507.35 347.1 507.65 348.1 507.95 348.55 508.85 Z"/>
</g>

<g id="Layer0_0_MEMBER_11_MEMBER_0_FILL">
<path fill="#4ECDC4" stroke="none" d="
M 357.45 287.1
L 356.3 278.35 350.7 276.6 353.7 293.1 356.95 294.1 362.9 287.4 364 296.3 367.25 297.3 379.05 285.4 373.5 283.7 367.55 290.25 366.4 281.5 363.4 280.55 357.45 287.1 Z"/>
</g>

<g id="Layer0_0_MEMBER_12_MEMBER_0_FILL">
<path fill="#C44D58" stroke="none" d="
M 366.85 415.2
Q 368.4 416.15 368.85 418.05 369.85 422.15 364.8 423.35
L 365.45 425.95
Q 367.8 425.25 369.6 426.25 371.4 427.25 372 429.65 372.5 431.75 371.45 433.5 370.4 435.3 368.3 435.8 366.4 436.25 364.75 435.5 363.05 434.7 362.4 432.9
L 359.3 433.65
Q 360.2 436.65 362.95 438.05 365.6 439.35 368.7 438.65 372.2 437.8 374 435.25 375.9 432.55 375.05 429.05 373.95 424.45 369.95 423.6 372.8 421 371.85 417.05 371.1 413.95 368.5 412.55 366 411.2 362.85 411.95 359.7 412.7 358.15 414.8 356.6 416.9 356.9 420.15
L 360.05 419.4
Q 359.9 417.65 360.8 416.4 361.7 415.15 363.4 414.75 365.3 414.3 366.85 415.2 Z"/>
</g>

<g id="Layer0_0_MEMBER_13_MEMBER_0_FILL">
<path fill="#0A3D54" stroke="none" d="
M 374.2 462.55
Q 373.45 463.8 373.75 465.45
L 376.5 464.85 376.35 464.45
Q 376.1 463.3 377.15 463.05 377.6 462.95 378.05 463.25 378.4 463.6 378.5 464.05 378.75 465.25 377.95 466.65
L 374.95 471.75 382.65 470.1 382.2 467.95 379.05 468.65 380.25 466.95
Q 380.85 466.05 381.05 465.35 381.3 464.55 381.1 463.55 380.75 462.05 379.5 461.35 378.25 460.65 376.65 460.95 375 461.3 374.2 462.55 Z"/>
</g>

<g id="Layer0_0_MEMBER_14_FILL">
<path fill="#EB5F21" stroke="none" d="
M 805.8 70.9
L 808.25 70.3 809.2 71.5 809.9 71.35 806.05 66.35 804.8 72.55 805.5 72.35 805.8 70.9
M 807.85 69.75
L 805.95 70.2 806.4 67.8 807.85 69.75
M 833.9 93.55
Q 833.75 93.75 833.9 94 834 94.2 834.25 94.35 834.5 94.5 834.75 94.55 835 94.55 835.15 94.35
L 833.9 93.55
M 834 92.95
Q 833.95 92.9 833.9 92.9 833.8 92.95 833.8 93
L 833.75 93.05
Q 833.65 93.2 833.75 93.25
L 835.45 94.3
Q 835.55 94.4 835.65 94.3
L 835.7 94.2
Q 835.8 94.05 835.65 94
L 834 92.95
M 834.1 92.5
L 834.05 92.55
Q 834 92.6 834 92.65 834.05 92.75 834.1 92.75
L 835.75 93.8
Q 835.9 93.9 835.95 93.75
L 836 93.7
Q 836.1 93.55 835.95 93.5
L 834.3 92.45
Q 834.15 92.35 834.1 92.5
M 834.35 92.05
Q 834.3 92.2 834.4 92.25
L 836.05 93.3
Q 836.2 93.4 836.3 93.25
L 836.35 93.2
Q 836.35 93.15 836.35 93.1 836.35 93 836.3 93
L 834.6 91.95
Q 834.5 91.85 834.4 92
L 834.35 92.05
M 839.5 86.05
Q 838.55 85.45 837.4 85.7 836.3 85.95 835.7 86.9 835.35 87.5 835.25 88.25 835.2 89.2 835.05 89.9 834.95 90.4 834.7 90.95 834.55 91.35 834.6 91.55 834.65 91.7 834.9 91.85
L 836.2 92.7
Q 836.5 92.9 836.65 92.85 836.85 92.8 837.15 92.45 837.5 92.05 837.95 91.7 838.45 91.3 839.3 90.8 839.95 90.45 840.35 89.85 840.95 88.9 840.7 87.75 840.45 86.65 839.5 86.05
M 841.1 57.85
Q 841 57.3 840.6 56.85 840.15 56.45 839.6 56.3 838.2 55.95 837.4 57.55 836.4 56.4 835.15 57.1 834.65 57.35 834.35 57.85 834.1 58.4 834.2 58.9 834.45 60.3 835.4 60.9 836.05 61.3 838.25 62.1
L 839.5 61.1
Q 840.15 60.55 840.5 60.2 841.35 59.2 841.1 57.85 Z"/>
</g>

<g id="Layer0_0_MEMBER_15_FILL">
<path fill="#3CB44A" stroke="none" d="
M 821.4 72.45
Q 820.75 72.35 820.2 72.8 819.7 73.2 819.65 73.85 819.55 74.55 819.9 75.1 820.3 75.65 820.95 75.75 821.6 75.85 821.95 75.4
L 821.9 75.75 823 75.9 823.7 70.95 822.6 70.75 822.3 73
Q 822 72.55 821.4 72.45
M 820.75 74.05
Q 820.8 73.75 821 73.55 821.25 73.4 821.55 73.45 821.9 73.5 822.05 73.7 822.2 73.95 822.15 74.25 822.1 74.55 821.9 74.7 821.7 74.85 821.35 74.8 821.05 74.8 820.85 74.55 820.7 74.35 820.75 74.05
M 815.2 71.65
L 814.1 71.5 813.65 74.6 814.75 74.75 815.2 71.65
M 815.8 73.8
L 816.85 73.95 816.7 75.05 817.6 75.15 817.75 74.05 818.85 74.2 819 73.3 817.9 73.15 818.05 72.05 817.15 71.95 817 73.05 815.9 72.9 815.8 73.8
M 814.2 70.3
Q 814.15 70.55 814.3 70.8 814.45 71 814.7 71 814.95 71.05 815.2 70.9 815.4 70.75 815.4 70.5 815.45 70.25 815.3 70.05 815.15 69.85 814.9 69.8 814.65 69.75 814.4 69.9 814.2 70.05 814.2 70.3
M 847.15 67.05
Q 847.05 67.3 847.1 67.5 847.1 67.6 847.25 67.7 847.3 67.7 847.7 67.8 847.9 67.85 848 68 848.05 68.05 848.05 68.2 848.1 68.4 847.7 68.75 847.5 68.9 846.65 69.6
L 851.1 74.1
Q 851.9 72.65 852.65 72.55 852.85 72.55 852.95 72.65 853.05 72.7 853.1 72.95 853.2 73.2 853.25 73.3 853.35 73.45 853.45 73.5 853.65 73.55 853.85 73.45 854.15 73.35 854.4 73.1 855.2 72.3 854.95 71.95 854.8 71.65 854.35 71.65 854.2 71.65 854.05 71.55 854 71.45 853.95 71.35 853.9 71.1 854.5 70.45 855.15 69.75 855.95 69.4 855.7 68.65 854.95 67.9 854.2 67.2 853.95 67.3 853.45 67.35 853.6 67.85 853.7 68.15 853.6 68.35 853.55 68.45 853.3 68.6 853.1 68.75 852.75 68.6 852.45 68.5 852.1 68.15 851.5 67.55 851.65 67.15 851.8 66.7 852.45 66.55 852.9 66.45 852.95 66.25 853 66.05 852.4 65.6 851.75 65.15 851.25 65.1 850.55 66.05 849.95 66.65 849.25 67.3 849.05 67.15 848.95 67.1 848.9 67 848.9 66.95 848.9 66.75 848.85 66.3 848.65 66.2 848.25 65.95 847.55 66.55 847.3 66.8 847.15 67.05 Z"/>
</g>

<g id="Layer0_0_MEMBER_16_FILL">
<path fill="#FCC44C" stroke="none" d="
M 838.85 70.3
Q 838.5 70.25 838.8 70.6 839.1 70.95 839.35 71.5 839.55 71.9 839.7 72.85 839.85 73.55 839.6 74.05 839.45 74.3 838.9 74.4 838.65 74.5 838.1 74.55 837.5 74.6 837.3 74.65 836.9 74.75 836.6 74.9 835.85 75.3 836.65 75.5 837.1 75.6 837.9 75.6 838.15 75.6 838.7 75.6 839.2 75.55 839.5 75.65 839.9 75.75 839.65 76.8 839.5 77.4 839.15 78.1 839.1 78.2 838.75 78.6 838.5 78.9 838.45 79.1 838.4 79.4 838.75 79.25 839.1 79.15 839.35 78.9 840.1 78.15 840.4 77.45 840.7 76.55 840.8 76.45 841.15 75.9 841.65 76.25 842.15 76.6 842.25 76.7
L 842.7 77.2
Q 843 77.6 843.3 78.3 843.4 78.55 843.65 78.65 843.85 78.75 843.95 78.5 844.05 78.4 843.95 78 843.9 77.65 843.85 77.45 843.65 76.9 842.9 76 842.5 75.55 842.65 75.05 842.75 74.65 843.15 74.35 843.4 74.2 843.95 73.85 844.8 73.2 845.2 72.7 845.7 72 844.6 72.4 843.95 72.65 843.35 73.05 842.65 73.45 842.45 73.55 841.85 73.9 841.55 73.75 841.35 73.65 841.1 73.25 840.95 72.9 840.85 72.6 840.7 71.9 840.4 71.45 840.05 70.95 839.45 70.5 839.2 70.35 838.85 70.3 Z"/>
</g>

<g id="Layer0_0_MEMBER_17_FILL">
<path fill="#666666" stroke="none" d="
M 214.35 334.05
Q 223.35 329.55 223.35 322.95
L 167.55 322.95
Q 167.55 329.55 176.7 334.05 185.1 338.25 195.45 338.25 205.95 338.25 214.35 334.05
M 152.7 309
L 152.7 312.15
Q 152.7 314.1 154.35 315.45 156 316.8 158.25 316.8
L 232.65 316.8
Q 235.05 316.8 236.7 315.45 238.35 314.1 238.35 312.15
L 238.35 309
Q 238.35 307.2 236.7 305.85 235.05 304.5 232.65 304.5
L 158.25 304.5
Q 156 304.5 154.35 305.85 152.7 307.2 152.7 309
M 158.25 286.05
Q 156 286.05 154.35 287.4 152.7 288.75 152.7 290.55
L 152.7 293.7
Q 152.7 295.65 154.35 297 156 298.35 158.25 298.35
L 232.65 298.35
Q 235.05 298.35 236.7 297 238.35 295.65 238.35 293.7
L 238.35 290.55
Q 238.35 288.75 236.7 287.4 235.05 286.05 232.65 286.05
L 158.25 286.05
M 154.35 278.4
Q 156 279.75 158.25 279.75
L 232.65 279.75
Q 235.05 279.75 236.7 278.4 238.35 277.2 238.35 275.25
L 238.35 272.1
Q 238.35 270.15 236.7 268.8 235.05 267.45 232.65 267.45
L 158.25 267.45
Q 156 267.45 154.35 268.8 152.7 270.15 152.7 272.1
L 152.7 275.25
Q 152.7 277.2 154.35 278.4 Z"/>
</g>

<g id="Layer0_0_MEMBER_18_FILL">
<path fill="#666666" stroke="none" d="
M 375 176.25
Q 375 173.25 372.9 171.3 370.95 169.2 367.95 169.2
L 319.2 169.2
Q 316.2 169.2 314.25 171.3 312.15 173.25 312.15 176.25 312.15 179.1 314.25 181.2 316.2 183.3 319.2 183.3
L 367.95 183.3
Q 370.95 183.3 372.9 181.2 375 179.1 375 176.25 Z"/>
</g>

<g id="Layer0_0_MEMBER_19_FILL">
<path fill="#666666" stroke="none" d="
M 108.6 85.2
Q 110.7 87.3 113.55 87.3 116.55 87.3 118.65 85.2 120.6 83.1 120.6 80.25 120.6 77.25 118.65 75.15
L 84.15 40.65
Q 82.05 38.7 79.05 38.7 76.2 38.7 74.1 40.65 72 42.75 72 45.75 72 48.6 74.1 50.7
L 108.6 85.2
M 190.2 2.1
Q 188.1 4.2 188.1 7.05
L 188.1 55.95
Q 188.1 58.8 190.2 60.9 192.3 63 195.15 63 198.15 63 200.25 60.9 202.2 58.8 202.2 55.95
L 202.2 7.05
Q 202.2 4.2 200.25 2.1 198.15 0 195.15 0 192.3 0 190.2 2.1
M 316.35 40.65
Q 314.25 38.7 311.25 38.7 308.4 38.7 306.3 40.65
L 271.8 75.15
Q 269.7 77.25 269.7 80.25 269.7 83.1 271.8 85.2 273.9 87.3 276.9 87.3 279.75 87.3 281.85 85.2
L 316.35 50.7
Q 318.3 48.6 318.3 45.75 318.3 42.75 316.35 40.65 Z"/>
</g>
</defs>

<g transform="matrix( 1, 0, 0, 1, 0,0) ">
<use xlink:href="#Layer0_0_FILL"/>
</g>

<g transform="matrix( 3, 0, 0, 3, -2294.55,-86.85) ">
<use xlink:href="#Layer0_0_MEMBER_0_FILL"/>
</g>

<g transform="matrix( 3, 0, 0, 3, -2315.55,-86.85) ">
<use xlink:href="#Layer0_0_MEMBER_1_MEMBER_0_MEMBER_0_FILL"/>
</g>

<g transform="matrix( 0.629608154296875, 0, 0, 0.629608154296875, -56.25,-88.35) ">
<use xlink:href="#Layer0_0_MEMBER_1_MEMBER_0_MEMBER_1_FILL"/>
</g>

<g transform="matrix( 3, 0, 0, 3, -2315.55,-86.85) ">
<use xlink:href="#Layer0_0_MEMBER_1_MEMBER_0_MEMBER_2_FILL"/>
</g>

<g transform="matrix( 3, 0, 0, 3, -2315.55,-86.85) ">
<use xlink:href="#Layer0_0_MEMBER_1_MEMBER_1_MEMBER_0_FILL"/>
</g>

<g transform="matrix( 3, 0, 0, 3, -2315.55,-86.85) ">
<use xlink:href="#Layer0_0_MEMBER_1_MEMBER_1_MEMBER_1_FILL"/>
</g>

<g transform="matrix( 3, 0, 0, 3, -2315.55,-86.85) ">
<use xlink:href="#Layer0_0_MEMBER_1_MEMBER_1_MEMBER_2_FILL"/>
</g>

<g transform="matrix( 0.629608154296875, 0, 0, 0.629608154296875, -56.55,-88.95) ">
<use xlink:href="#Layer0_0_MEMBER_2_FILL"/>
</g>

<g transform="matrix( 0.629608154296875, 0, 0, 0.629608154296875, -56.55,-88.95) ">
<use xlink:href="#Layer0_0_MEMBER_3_FILL"/>
</g>

<g transform="matrix( 0.629608154296875, 0, 0, 0.629608154296875, -56.55,-88.95) ">
<use xlink:href="#Layer0_0_MEMBER_4_FILL"/>
</g>

<g transform="matrix( 0.629608154296875, 0, 0, 0.629608154296875, -56.25,-88.35) ">
<use xlink:href="#Layer0_0_MEMBER_5_MEMBER_0_FILL"/>
</g>

<g transform="matrix( 0.629608154296875, 0, 0, 0.629608154296875, -56.25,-88.35) ">
<use xlink:href="#Layer0_0_MEMBER_5_MEMBER_1_FILL"/>
</g>

<g transform="matrix( 0.629608154296875, 0, 0, 0.629608154296875, -56.25,-88.35) ">
<use xlink:href="#Layer0_0_MEMBER_5_MEMBER_2_FILL"/>
</g>

<g transform="matrix( 0.629608154296875, 0, 0, 0.629608154296875, -56.25,-88.35) ">
<use xlink:href="#Layer0_0_MEMBER_6_MEMBER_0_FILL"/>
</g>

<g transform="matrix( 0.629608154296875, 0, 0, 0.629608154296875, -56.25,-88.35) ">
<use xlink:href="#Layer0_0_MEMBER_6_MEMBER_1_FILL"/>
</g>

<g transform="matrix( 0.629608154296875, 0, 0, 0.629608154296875, 255.15,163.95) ">
<g transform="matrix( 1, 0, 0, 1, 0,0) ">
<use filter="url(#Filter_1)" xlink:href="#flash0_ai_7_Capa_1__Path__1_0_Layer0_0_FILL"/>
</g>
</g>

<g transform="matrix( 0.629608154296875, 0, 0, 0.629608154296875, -56.25,-88.35) ">
<use xlink:href="#Layer0_0_MEMBER_7_MEMBER_1_FILL"/>
</g>

<g transform="matrix( 0.629608154296875, 0, 0, 0.629608154296875, 267.6,204.45) ">
<g transform="matrix( 1, 0, 0, 1, 0,0) ">
<use filter="url(#Filter_1)" xlink:href="#flash0_ai_7_Capa_1__Path__1_0_0_Layer0_0_FILL"/>
</g>
</g>

<g transform="matrix( 0.629608154296875, 0, 0, 0.629608154296875, -56.25,-88.35) ">
<use xlink:href="#Layer0_0_MEMBER_8_MEMBER_1_FILL"/>
</g>

<g transform="matrix( 0.629608154296875, 0, 0, 0.629608154296875, -56.25,-88.35) ">
<use xlink:href="#Layer0_0_MEMBER_9_MEMBER_0_FILL"/>
</g>

<g transform="matrix( 0.629608154296875, 0, 0, 0.629608154296875, -56.25,-88.35) ">
<use xlink:href="#Layer0_0_MEMBER_9_MEMBER_1_FILL"/>
</g>

<g transform="matrix( 0.629608154296875, 0, 0, 0.629608154296875, -56.25,-88.35) ">
<use xlink:href="#Layer0_0_MEMBER_9_MEMBER_2_FILL"/>
</g>

<g transform="matrix( 0.629608154296875, 0, 0, 0.629608154296875, -56.25,-88.35) ">
<use xlink:href="#Layer0_0_MEMBER_9_MEMBER_3_FILL"/>
</g>

<g transform="matrix( 0.629608154296875, 0, 0, 0.629608154296875, -56.25,-88.35) ">
<use xlink:href="#Layer0_0_MEMBER_10_MEMBER_0_FILL"/>
</g>

<g transform="matrix( 0.629608154296875, 0, 0, 0.629608154296875, -56.25,-88.35) ">
<use xlink:href="#Layer0_0_MEMBER_11_MEMBER_0_FILL"/>
</g>

<g transform="matrix( 0.629608154296875, 0, 0, 0.629608154296875, -56.25,-88.35) ">
<use xlink:href="#Layer0_0_MEMBER_12_MEMBER_0_FILL"/>
</g>

<g transform="matrix( 0.629608154296875, 0, 0, 0.629608154296875, -56.25,-88.35) ">
<use xlink:href="#Layer0_0_MEMBER_13_MEMBER_0_FILL"/>
</g>

<g transform="matrix( 3, 0, 0, 3, -2294.55,-86.85) ">
<use xlink:href="#Layer0_0_MEMBER_14_FILL"/>
</g>

<g transform="matrix( 3, 0, 0, 3, -2294.55,-86.85) ">
<use xlink:href="#Layer0_0_MEMBER_15_FILL"/>
</g>

<g transform="matrix( 3, 0, 0, 3, -2294.55,-86.85) ">
<use xlink:href="#Layer0_0_MEMBER_16_FILL"/>
</g>

<g transform="matrix( 1, 0, 0, 1, 0,0) ">
<use xlink:href="#Layer0_0_MEMBER_17_FILL"/>
</g>

<g transform="matrix( 1, 0, 0, 1, 0,0) ">
<use xlink:href="#Layer0_0_MEMBER_18_FILL"/>
</g>

<g transform="matrix( 1, 0, 0, 1, 0,0) ">
<use xlink:href="#Layer0_0_MEMBER_19_FILL"/>
</g>
</svg>
