<?xml version="1.0" encoding="utf-8"?>
<!-- Generator: Adobe Illustrator 16.0.0, SVG Export Plug-In . SVG Version: 6.00 Build 0)  -->
<!DOCTYPE svg PUBLIC "-//W3C//DTD SVG 1.1//EN" "http://www.w3.org/Graphics/SVG/1.1/DTD/svg11.dtd">
<svg version="1.1" id="Layer_1" xmlns="http://www.w3.org/2000/svg" xmlns:xlink="http://www.w3.org/1999/xlink" x="0px" y="0px"
	 width="69.1px" height="37.65px" viewBox="0 0 69.1 37.65" enable-background="new 0 0 69.1 37.65" xml:space="preserve">
<g>
	<g>
		<path fill-rule="evenodd" clip-rule="evenodd" fill="#4B5463" d="M53.8,7c-1.333-1.067-2.983-1.9-4.95-2.5
			c-3.933-1.1-7.533-0.4-10.8,2.1l4.601-4.95C46.517-0.95,50.417-0.5,54.35,3L53.8,7z M21.85,28.9l0.1,5.699
			c-2.067-1.166-4.534-1.933-7.4-2.3C8.816,31.667,3.967,33.45,0,37.65l1.25-2.7c1.167-2.101,2.517-3.834,4.05-5.2
			C10.1,25.25,15.617,24.967,21.85,28.9z"/>
		<path fill-rule="evenodd" clip-rule="evenodd" fill="#353C49" d="M21.85,28.9c6-4.301,11.533-4.334,16.6-0.101
			c2.467,2.134,4.366,4.684,5.7,7.65c-4.2-4-9.167-5.483-14.9-4.45l-7.3,2.6L21.85,28.9z M53.8,7l0.55-4
			c4.733-2.233,8.601-1.6,11.601,1.9c1.5,1.767,2.55,3.767,3.149,6c-2.5-3.233-5.8-4.85-9.899-4.85L53.8,7z"/>
	</g>
</g>
</svg>
