<?xml version="1.0" encoding="utf-8"?>
<!-- Generator: Adobe Illustrator 16.0.0, SVG Export Plug-In . SVG Version: 6.00 Build 0)  -->
<!DOCTYPE svg PUBLIC "-//W3C//DTD SVG 1.1//EN" "http://www.w3.org/Graphics/SVG/1.1/DTD/svg11.dtd">
<svg version="1.1" id="Layer_1" xmlns="http://www.w3.org/2000/svg" xmlns:xlink="http://www.w3.org/1999/xlink" x="0px" y="0px"
	 width="118.35px" height="52.25px" viewBox="0 0 118.35 52.25" enable-background="new 0 0 118.35 52.25" xml:space="preserve">
<g>
	<g>
		<path fill-rule="evenodd" clip-rule="evenodd" fill="#FFFFFF" d="M0.35,27.775V27.75c1.348-6.824,5.965-9.758,13.85-8.8
			c4.1,0.5,8.1,1.75,12,3.75c-0.233-3.667,0.183-7.367,1.25-11.1C29.55,4.167,33.8,0.3,40.2,0c6.4-0.267,12.216,2.217,17.45,7.45
			c2.6,2.6,4.567,5.233,5.9,7.9l1.25-1.8c1.134-1.433,2.417-2.7,3.851-3.8C73.184,6.317,78.366,5.3,84.2,6.7
			c5.833,1.367,9.816,4.333,11.95,8.9c1.033,2.267,1.5,4.4,1.399,6.4c5.634-1.733,10.483-1.667,14.55,0.2
			c3.594,1.625,5.677,4.517,6.25,8.675c-0.032-0.196-0.065-0.388-0.1-0.575l-0.05,0.4c-1.101,7.2-7.316,10.916-18.65,11.149L88,41
			l-5.15-1c-13.033,6.134-25.167,7.2-36.399,3.2c-3.5-1.267-6.7-2.95-9.6-5.05l-3.3-2.801c-5.2,3.233-11.533,4.267-19,3.101
			C6.5,37.22,1.767,33.661,0.35,27.775z"/>
		<path fill-rule="evenodd" clip-rule="evenodd" fill="#D4EFFC" d="M0.35,27.775c1.417,5.886,6.15,9.444,14.2,10.675
			c7.467,1.166,13.8,0.133,19-3.101l3.3,2.801c2.9,2.1,6.1,3.783,9.6,5.05c11.233,4,23.366,2.934,36.399-3.2L88,41l11.55,0.85
			C110.884,41.616,117.1,37.9,118.2,30.7l0.05-0.4c0.034,0.188,0.067,0.379,0.1,0.575L118.2,37.35
			c-1.101,7.233-7.316,10.967-18.65,11.2L88,47.7l-5.15-1C69.816,52.8,57.683,53.85,46.45,49.85c-3.5-1.267-6.7-2.949-9.6-5.05
			l-3.3-2.8c-2.7,1.7-6.066,2.8-10.1,3.3c-4.067,0.5-7.934,0.267-11.6-0.7C2.883,42.267-1,36.967,0.2,28.7
			c0.021-0.148,0.046-0.299,0.075-0.45L0.35,27.775z"/>
	</g>
</g>
</svg>
