<?xml version="1.0" encoding="utf-8"?>
<!-- Generator: Adobe Illustrator 21.0.0, SVG Export Plug-In . SVG Version: 6.00 Build 0)  -->
<svg version="1.1" id="Isolation_Mode" xmlns="http://www.w3.org/2000/svg" xmlns:xlink="http://www.w3.org/1999/xlink" x="0px"
	 y="0px" viewBox="0 0 81.5 29.9" style="enable-background:new 0 0 81.5 29.9;" xml:space="preserve">
<style type="text/css">
	.st0{fill:#FFCF6D;}
</style>
<g>
	<path class="st0" d="M1,12.6L12.6,1c1.1-1.1,3-1.3,4.2-0.2c1.3,1.2,1.3,3.1,0.1,4.3l-5.3,5.3c-0.6,0.6-0.2,1.6,0.7,1.6h19.1
		c1.6,0,3.1,1.2,3.1,2.8c0.1,1.7-1.3,3.1-3,3.1H12.4c-0.8,0-1.3,1-0.7,1.6l5.2,5.2c1.1,1.1,1.3,3,0.2,4.2c-1.2,1.3-3.1,1.3-4.3,0.1
		L1,17.3C-0.3,16-0.3,13.9,1,12.6z"/>
	<path class="st0" d="M60.7,12h3.4c1.6,0,3,1.3,3,3s-1.3,3-3,3h-3.4c-1.6,0-3-1.3-3-3S59,12,60.7,12z"/>
	<path class="st0" d="M76.3,12h0.3c1.6,0,3,1.3,3,3s-1.3,3-3,3h-0.3c-1.6,0-3-1.3-3-3S74.6,12,76.3,12z"/>
	<path class="st0" d="M46.7,12h3.4c1.6,0,3,1.3,3,3s-1.3,3-3,3h-3.4c-1.6,0-3-1.3-3-3S45,12,46.7,12z"/>
</g>
</svg>
