<?xml version="1.0" encoding="utf-8"?>
<!-- Generator: Adobe Illustrator 21.0.0, SVG Export Plug-In . SVG Version: 6.00 Build 0)  -->
<svg version="1.1" id="Layer_1" xmlns="http://www.w3.org/2000/svg" xmlns:xlink="http://www.w3.org/1999/xlink" x="0px" y="0px"
	 viewBox="0 0 1024.6 766.7" style="enable-background:new 0 0 1024.6 766.7;" xml:space="preserve">
<style type="text/css">
	.st0{opacity:0.3;}
	.st1{fill:url(#SVGID_1_);}
	.st2{clip-path:url(#SVGID_3_);}
	.st3{fill:url(#SVGID_4_);}
	.st4{fill:url(#SVGID_5_);}
	.st5{opacity:0.7;fill:url(#SVGID_6_);}
	.st6{opacity:0.7;fill:url(#SVGID_7_);}
	.st7{fill:url(#SVGID_8_);}
</style>
<g class="st0">
	
		<radialGradient id="SVGID_1_" cx="312.1909" cy="425.1425" r="486.3373" gradientTransform="matrix(1.5 0 0 1.1224 44 -93.8548)" gradientUnits="userSpaceOnUse">
		<stop  offset="0" style="stop-color:#FFFFFF"/>
		<stop  offset="0.2886" style="stop-color:#F9FFFF"/>
		<stop  offset="0.6853" style="stop-color:#E7FFFF"/>
		<stop  offset="1" style="stop-color:#D4FFFF"/>
	</radialGradient>
	<rect class="st1" width="1024.6" height="766.7"/>
	<g>
		<defs>
			<rect id="SVGID_2_" y="45" width="1024.6" height="721.7"/>
		</defs>
		<clipPath id="SVGID_3_">
			<use xlink:href="#SVGID_2_"  style="overflow:visible;"/>
		</clipPath>
		<g class="st2">
			
				<linearGradient id="SVGID_4_" gradientUnits="userSpaceOnUse" x1="1299.0983" y1="661.7147" x2="48.6651" y2="661.7147" gradientTransform="matrix(-0.9664 0.2572 0.2572 0.9664 940.7443 -124.2381)">
				<stop  offset="0" style="stop-color:#00BCE4;stop-opacity:0.29"/>
				<stop  offset="0.1189" style="stop-color:#2BC9E9;stop-opacity:0.3744"/>
				<stop  offset="0.291" style="stop-color:#63D9F0;stop-opacity:0.4966"/>
				<stop  offset="0.4583" style="stop-color:#92E7F5;stop-opacity:0.6154"/>
				<stop  offset="0.6168" style="stop-color:#B7F1F9;stop-opacity:0.7279"/>
				<stop  offset="0.7641" style="stop-color:#D1F9FC;stop-opacity:0.8325"/>
				<stop  offset="0.8962" style="stop-color:#E0FDFE;stop-opacity:0.9263"/>
				<stop  offset="1" style="stop-color:#E6FFFF"/>
			</linearGradient>
			<path class="st3" d="M-89.8,805.1l98.1,288.1c0,0,1205.9-204.3,1186.3-217.4c-19.6-13.1-130.3-733-130.3-733
				s19.7,53.5-40.3,145.9c-54.6,84.2-250.8,304-499.9,367.9C263,723.6,83.6,673.5-89.8,805.1z"/>
			
				<linearGradient id="SVGID_5_" gradientUnits="userSpaceOnUse" x1="1308.2666" y1="712.755" x2="60.0036" y2="712.755" gradientTransform="matrix(-0.9664 0.2572 0.2572 0.9664 940.7443 -124.2381)">
				<stop  offset="0" style="stop-color:#00BCE4;stop-opacity:0.29"/>
				<stop  offset="0.1414" style="stop-color:#35CBEA;stop-opacity:0.3904"/>
				<stop  offset="0.309" style="stop-color:#6DDBF0;stop-opacity:0.5094"/>
				<stop  offset="0.4721" style="stop-color:#9CE8F6;stop-opacity:0.6252"/>
				<stop  offset="0.6266" style="stop-color:#C1F2FA;stop-opacity:0.7349"/>
				<stop  offset="0.7701" style="stop-color:#DBF9FD;stop-opacity:0.8368"/>
				<stop  offset="0.8988" style="stop-color:#EAFDFE;stop-opacity:0.9282"/>
				<stop  offset="1" style="stop-color:#F0FFFF"/>
			</linearGradient>
			<path class="st4" d="M-89.8,841.2l102.4,299.9c0,0,1203.4-202,1183.9-215.1c-19.6-13.1-129.7-728.9-129.7-728.9
				s19.6,53.2-40.3,145c-54.5,83.6-238.1,316.1-486.5,378.8C279.6,786.6,83.6,709.6-89.8,841.2z"/>
			
				<linearGradient id="SVGID_6_" gradientUnits="userSpaceOnUse" x1="1222.6891" y1="689.932" x2="-49.4529" y2="689.932" gradientTransform="matrix(-0.9664 0.2572 0.2572 0.9664 940.7443 -124.2381)">
				<stop  offset="0" style="stop-color:#3BFFFE;stop-opacity:0"/>
				<stop  offset="0.183" style="stop-color:#3EFFFE;stop-opacity:0.2571"/>
				<stop  offset="0.3181" style="stop-color:#47FEFE;stop-opacity:0.447"/>
				<stop  offset="0.4379" style="stop-color:#57FCFE;stop-opacity:0.6153"/>
				<stop  offset="0.5488" style="stop-color:#6EFAFF;stop-opacity:0.7712"/>
				<stop  offset="0.6526" style="stop-color:#8BF7FF;stop-opacity:0.917"/>
				<stop  offset="0.7117" style="stop-color:#9FF5FF"/>
				<stop  offset="1" style="stop-color:#3BFFFE;stop-opacity:0"/>
			</linearGradient>
			<path class="st5" d="M1158.5,479c0,0-289.7,203.7-763.6,238.9c-411,10.7-597.6-179.1-597.6-179.1l187.1,550.5l1225.8-216.1
				L1158.5,479z"/>
			
				<linearGradient id="SVGID_7_" gradientUnits="userSpaceOnUse" x1="1336.9801" y1="648.0162" x2="85.8153" y2="648.0162" gradientTransform="matrix(-0.9662 0.258 0.258 0.9662 1072.8344 -44.8767)">
				<stop  offset="0" style="stop-color:#3BFFFE;stop-opacity:0"/>
				<stop  offset="0.183" style="stop-color:#3EFFFE;stop-opacity:0.2571"/>
				<stop  offset="0.3181" style="stop-color:#47FEFE;stop-opacity:0.447"/>
				<stop  offset="0.4379" style="stop-color:#57FCFE;stop-opacity:0.6153"/>
				<stop  offset="0.5488" style="stop-color:#6EFAFF;stop-opacity:0.7712"/>
				<stop  offset="0.6526" style="stop-color:#8BF7FF;stop-opacity:0.917"/>
				<stop  offset="0.7117" style="stop-color:#9FF5FF"/>
				<stop  offset="1" style="stop-color:#3BFFFE;stop-opacity:0"/>
			</linearGradient>
			<path class="st6" d="M1163.8,519.3c0,0-259.7,217.7-655.7,243.7c-427,18.3-674.5-126.4-674.5-126.4l161.7,481.9l1219.5-210.3
				L1163.8,519.3z"/>
			
				<linearGradient id="SVGID_8_" gradientUnits="userSpaceOnUse" x1="45.9742" y1="841.756" x2="1248.8492" y2="841.756" gradientTransform="matrix(-0.9664 0.2572 0.2572 0.9664 940.7443 -124.2381)">
				<stop  offset="0" style="stop-color:#00BCE4;stop-opacity:0.29"/>
				<stop  offset="7.677758e-02" style="stop-color:#1DC3E7;stop-opacity:0.3215"/>
				<stop  offset="0.2735" style="stop-color:#60D5EE;stop-opacity:0.4022"/>
				<stop  offset="0.4601" style="stop-color:#99E4F4;stop-opacity:0.4787"/>
				<stop  offset="0.6312" style="stop-color:#C5F0F9;stop-opacity:0.5488"/>
				<stop  offset="0.7836" style="stop-color:#E5F8FC;stop-opacity:0.6113"/>
				<stop  offset="0.9117" style="stop-color:#F8FDFE;stop-opacity:0.6638"/>
				<stop  offset="1" style="stop-color:#FFFFFF;stop-opacity:0.7"/>
			</linearGradient>
			<path class="st7" d="M-97.9,806.8L8.3,1093.2c0,0,1233.2-192.8,1236.1-212.5c-17.3-24.9-46.2-263.2-46.2-263.2
				s-368,189.8-623.8,154.8C295.8,734.1,172,737.3-97.9,806.8z"/>
		</g>
	</g>
</g>
</svg>
