<?xml version="1.0" encoding="utf-8"?>
<!-- Generator: Adobe Illustrator 19.2.0, SVG Export Plug-In . SVG Version: 6.00 Build 0)  -->
<svg version="1.1" id="Layer_1" xmlns="http://www.w3.org/2000/svg" xmlns:xlink="http://www.w3.org/1999/xlink" x="0px" y="0px"
	 viewBox="0 0 169 61.1" style="enable-background:new 0 0 169 61.1;" xml:space="preserve">
<style type="text/css">
	.st0{opacity:0.15;}
	.st1{fill:#7A7A7A;}
	.st2{fill:#FFFFFF;}
	.st3{opacity:0.3;}
	.st4{fill:url(#SVGID_1_);}
	.st5{fill:#99714D;}
	.st6{fill:#DB7516;}
	.st7{fill:#FFBF1C;}
	.st8{fill:#FFF840;}
</style>
<g>
	<g>
		<g class="st0">
			<path d="M37.3,60.9c-1.4,0-2.8-0.5-4.3-1.4l-7.8-5.2l-7.3,5c-1.4,1-2.9,1.5-4.3,1.5c-1.9,0-3.6-0.8-4.7-2.3
				C8,57.4,7.1,55.4,8,52.3l2.4-8.9l-7.3-5.7c-3.7-3-3-6.3-2.7-7.3c0.3-1,1.7-4.1,6.5-4.3l9-0.3l3.1-8.4c1.6-4.5,5.1-4.8,6.1-4.8
				c1.3,0,4.5,0.5,6.1,4.8l3.2,8.5l9.1,0.3c4.8,0.2,6.2,3.3,6.5,4.3c0.3,1,1.1,4.3-2.6,7.3l-7.1,5.7l2.6,8.9c0.9,3.1,0,5.1-0.9,6.3
				C40.9,60.1,39.2,60.9,37.3,60.9z"/>
		</g>
		<g>
			<path class="st1" d="M37.3,59.6c-1.5,0-2.9-0.5-4.4-1.4l-7.7-5.1L18,58c-1.5,1-3,1.5-4.5,1.5c-1.9,0-3.7-0.9-4.8-2.4
				c-0.9-1.2-1.8-3.3-1-6.4l2.4-8.8L3,36.3c-3.8-3-3.1-6.5-2.7-7.5c0.3-1,1.8-4.2,6.7-4.4l8.9-0.3l3-8.3c1.7-4.6,5.2-5,6.3-5
				c1,0,4.6,0.4,6.3,4.9l3.2,8.4l9,0.3c4.9,0.2,6.3,3.4,6.7,4.4c0.3,1,1.1,4.5-2.7,7.5l-7,5.6l2.5,8.8c0.9,3.2,0,5.3-0.9,6.5
				C41,58.7,39.2,59.6,37.3,59.6z"/>
		</g>
		<g>
			<path class="st2" d="M37.3,58.2c-1.2,0-2.4-0.4-3.6-1.2l-8.4-5.6l-7.9,5.5c-1.2,0.9-2.5,1.3-3.7,1.3c-1.5,0-2.9-0.7-3.8-1.8
				c-0.7-1-1.4-2.6-0.7-5.3l2.6-9.7l-7.8-6.2c-3.1-2.4-2.6-5-2.3-6c0.3-1,1.5-3.4,5.4-3.5l9.8-0.3l3.3-9.2c1.3-3.7,4-4.1,5-4.1
				c1.1,0,3.7,0.4,5,4l3.5,9.2l9.9,0.3c3.9,0.1,5.1,2.5,5.4,3.5c0.3,1,0.8,3.6-2.3,6.1L39,41.4l2.8,9.7c0.8,2.6,0,4.3-0.7,5.3
				C40.2,57.6,38.8,58.2,37.3,58.2z"/>
		</g>
		<g class="st3">
			<linearGradient id="SVGID_1_" gradientUnits="userSpaceOnUse" x1="4.0138" y1="35.1893" x2="46.5309" y2="35.1893">
				<stop  offset="0" style="stop-color:#C2C2C2"/>
				<stop  offset="1" style="stop-color:#808080"/>
			</linearGradient>
			<path class="st4" d="M37.3,55.6c-0.6,0-1.4-0.3-2.1-0.8l-10-6.6l-1.9,1.3v0l-7.5,5.2c-0.8,0.5-1.5,0.8-2.2,0.8
				c-0.7,0-1.2-0.3-1.6-0.8c-0.5-0.7-0.6-1.7-0.3-2.9l3.1-11.4l-2-1.6l-0.5-0.4l-6.7-5.3c-1.7-1.3-1.6-2.5-1.4-3.1
				c0.2-0.6,0.8-1.6,3-1.6l4.7-0.2l7-0.2l4-10.9c0.7-2,1.9-2.3,2.5-2.3c0.6,0,1.8,0.3,2.5,2.3L31.8,28l7.3,0.2l4.3,0.1
				c2.1,0.1,2.8,1.1,3,1.7c0.2,0.6,0.3,1.8-1.4,3.1l-9.1,7.3l0.7,2.4l0,0l2.6,9c0.4,1.3,0.3,2.2-0.2,2.9
				C38.5,55.3,38,55.6,37.3,55.6L37.3,55.6z"/>
		</g>
	</g>
	<g>
		<g class="st0">
			<path d="M155.9,60.9c-1.4,0-2.8-0.5-4.3-1.4l-7.8-5.2l-7.3,5c-1.4,1-2.9,1.5-4.3,1.5c-1.9,0-3.6-0.8-4.7-2.3
				c-0.9-1.2-1.8-3.2-0.9-6.3l2.4-8.9l-7.3-5.7c-3.7-3-3-6.3-2.7-7.3c0.3-1,1.7-4.1,6.5-4.3l9-0.3l3.1-8.4c1.6-4.5,5.1-4.8,6.1-4.8
				c1.3,0,4.5,0.5,6.1,4.8l3.2,8.5l9.1,0.3c4.8,0.2,6.2,3.3,6.5,4.3c0.4,1.2,1,4.4-2.6,7.3l-7.1,5.7l2.6,8.9c0.9,3.1,0,5.1-0.9,6.3
				C159.5,60.1,157.8,60.9,155.9,60.9z"/>
		</g>
		<g>
			<path class="st1" d="M155.9,59.4c-1.4,0-2.8-0.5-4.3-1.4l-7.8-5.2l-7.3,5c-1.4,1-2.9,1.5-4.3,1.5c-1.9,0-3.6-0.8-4.7-2.3
				c-0.9-1.2-1.8-3.2-0.9-6.3l2.4-8.9l-7.3-5.7c-3.7-3-3-6.3-2.7-7.3c0.3-1,1.7-4.1,6.5-4.3l9-0.3l3.1-8.4c1.6-4.5,5.1-4.8,6.1-4.8
				c1.3,0,4.5,0.5,6.1,4.8l3.2,8.5l9.1,0.3c4.8,0.2,6.2,3.3,6.5,4.3c0.4,1.2,1,4.4-2.6,7.3l-7.1,5.7l2.6,8.9c0.9,3.1,0,5.1-0.9,6.3
				C159.5,58.5,157.8,59.4,155.9,59.4z"/>
		</g>
		<g>
			<path class="st2" d="M155.9,58.2c-1.2,0-2.4-0.4-3.6-1.2l-8.4-5.6l-7.9,5.5c-1.2,0.9-2.5,1.3-3.7,1.3c-1.5,0-2.9-0.7-3.8-1.8
				c-0.7-1-1.4-2.6-0.7-5.3l2.6-9.7l-7.8-6.2c-3.1-2.4-2.6-5-2.3-6c0.3-1,1.5-3.4,5.4-3.5l9.8-0.3l3.3-9.2c1.3-3.7,4-4.1,5-4.1
				c1.1,0,3.7,0.4,5,4l3.5,9.2l9.9,0.3c3.9,0.1,5.1,2.5,5.4,3.5c0.3,1,0.8,3.6-2.3,6.1l-7.7,6.2l2.8,9.7c0.7,2.6,0,4.3-0.7,5.3
				C158.8,57.6,157.4,58.2,155.9,58.2z"/>
		</g>
		<path class="st5" d="M162,29.6l-4.3-0.1l-8.2-0.3l-1.4-3.6v0l-1.5-4l-1.5-4c-0.7-2-2-2-2.7,0l-1.8,4.9l-2.4,6.7l-3.9,0.1h0
			l-3.9,0.1l-4.7,0.2c-2.1,0.1-2.5,1.2-0.8,2.5l3.4,2.7l3.4,2.7c0,0,0,0,0,0l3,2.4l-2.2,7.9l-1.1,4.2c-0.6,2,0.4,2.7,2.2,1.5
			l3.5-2.4l3.5-2.4v0l3.2-2.2l6.9,4.6l3.7,2.5c1.8,1.2,2.7,0.5,2.2-1.6l-2.4-8.5c0,0,0,0,0,0l-1.1-3.7l3-2.4c0,0,0,0,0,0l3.4-2.7
			l3.4-2.7C164.5,30.9,164.1,29.7,162,29.6z"/>
	</g>
	<g>
		<g class="st0">
			<path d="M100,61.1c-1.6,0-3.2-0.5-4.8-1.6l-10.7-7.1l-10.1,6.9c-1.6,1.1-3.3,1.7-4.9,1.7c-2,0-3.8-0.9-5-2.4
				c-1-1.3-1.9-3.5-1-6.9l3.3-12.2L57,31.6c-4.2-3.3-3.4-7-3-8c0.3-1,1.9-4.5,7.2-4.6l12.4-0.4l4.2-11.6c1.8-5,5.6-5.4,6.7-5.4
				c1.4,0,4.8,0.5,6.7,5.3l4.4,11.7l12.5,0.4c5.3,0.2,6.8,3.6,7.2,4.6c0.3,1,1.2,4.7-3,8l-9.8,7.8l3.5,12.2c1,3.5,0,5.7-0.9,7
				C103.8,60.2,102,61.1,100,61.1z"/>
		</g>
		<g>
			<path class="st1" d="M100,59.6c-1.6,0-3.2-0.5-4.8-1.6l-10.7-7.1l-10.1,6.9c-1.6,1.1-3.3,1.7-4.9,1.7c-2,0-3.8-0.9-5-2.4
				c-1-1.3-1.9-3.5-1-6.9l3.3-12.2L57,30c-4.2-3.3-3.4-7-3-8c0.3-1,1.9-4.5,7.2-4.6L73.6,17l4.2-11.6c1.8-5,5.6-5.4,6.7-5.4
				c1.4,0,4.8,0.5,6.7,5.3L95.5,17l12.5,0.4c5.3,0.2,6.8,3.6,7.2,4.6c0.3,1,1.2,4.7-3,8l-9.8,7.8l3.5,12.2c1,3.5,0,5.7-0.9,7
				C103.8,58.7,102,59.6,100,59.6z"/>
		</g>
		<g>
			<path class="st2" d="M100,58.2c-1.3,0-2.6-0.5-4-1.4l-11.5-7.6l-10.8,7.4c-1.4,1-2.8,1.5-4.1,1.5c-1.6,0-3-0.7-4-1.9
				c-0.8-1-1.5-2.9-0.8-5.8l3.6-13.1L57.8,29c-3.4-2.7-2.9-5.5-2.6-6.5c0.4-1.1,1.6-3.6,6-3.7l13.3-0.4L79,5.8
				c1.5-4.1,4.3-4.5,5.4-4.5c1.1,0,3.9,0.4,5.4,4.4l4.7,12.5l13.4,0.4c4.3,0.1,5.6,2.6,6,3.7c0.4,1.1,0.8,3.8-2.5,6.5l-10.5,8.4
				l3.7,13.1c0.8,2.9,0.1,4.8-0.7,5.8C103,57.5,101.6,58.2,100,58.2z"/>
		</g>
		<path class="st5" d="M107.8,22.7l-5.5-0.2l-10.5-0.3l-1.7-4.6v0l-2-5.2l-2-5.2c-1-2.5-2.5-2.5-3.4,0l-2.3,6.3l-3.1,8.6l-4.9,0.2
			l0,0l-5.1,0.2l-6,0.2c-2.7,0.1-3.2,1.5-1.1,3.2l4.4,3.5l4.4,3.5c0,0,0,0,0,0l3.9,3.1l-2.8,10.2l-1.5,5.4c-0.7,2.6,0.5,3.5,2.8,2
			l4.5-3.1l4.5-3.1l0,0l4.1-2.8l8.9,5.9l4.8,3.2c2.3,1.5,3.5,0.6,2.8-2l-3.1-10.9c0,0,0,0,0,0l-1.4-4.7l3.9-3.1c0,0,0,0,0,0l4.3-3.5
			l4.3-3.5C111,24.2,110.5,22.8,107.8,22.7z"/>
	</g>
	<g>
		<path class="st6" d="M155.9,55.6c-0.6,0-1.4-0.3-2.1-0.8l-10-6.6l-1.9,1.3l-0.5,0.4l-7,4.8c-0.8,0.5-1.5,0.8-2.2,0.8
			c-0.7,0-1.2-0.3-1.6-0.8c-0.5-0.7-0.6-1.7-0.3-2.9l3.1-11.4l-9.2-7.3c-1.7-1.3-1.6-2.5-1.4-3.1c0.2-0.6,0.8-1.6,3-1.7l4.7-0.2
			l6.9-0.2l4-10.9c0.7-2,1.9-2.3,2.5-2.3c0.6,0,1.8,0.3,2.5,2.3l1.5,4l2.6,6.9l7.3,0.2l4.3,0.1c2.1,0.1,2.8,1.1,3,1.7
			c0.2,0.6,0.3,1.8-1.4,3.1l-9.1,7.3l0.9,3.1v0l2.4,8.3c0.4,1.3,0.3,2.2-0.2,2.9C157.1,55.3,156.5,55.6,155.9,55.6L155.9,55.6z"/>
		<path class="st7" d="M162,29.6l-4.3-0.1l-8.2-0.3l-1.4-3.6v0l-1.5-4l-1.5-4c-0.7-2-2-2-2.7,0l-1.8,4.9l-2.4,6.7l-3.9,0.1h0
			l-3.9,0.1l-4.7,0.2c-2.1,0.1-2.5,1.2-0.8,2.5l3.4,2.7l3.4,2.7c0,0,0,0,0,0l3,2.4l-2.2,7.9l-1.1,4.2c-0.6,2,0.4,2.7,2.2,1.5
			l3.5-2.4l3.5-2.4v0l3.2-2.2l6.9,4.6l3.7,2.5c1.8,1.2,2.7,0.5,2.2-1.6l-2.4-8.5c0,0,0,0,0,0l-1.1-3.7l3-2.4c0,0,0,0,0,0l3.4-2.7
			l3.4-2.7C164.5,30.9,164.1,29.7,162,29.6z"/>
		<g>
			<polygon class="st8" points="143.7,37.9 126.1,31.2 139.3,30.7 143.8,18.4 148.4,30.7 161.6,31.2 			"/>
		</g>
	</g>
	<g>
		<path class="st6" d="M100,55.6c-0.8,0-1.6-0.3-2.5-0.9l-13-8.6l-12.3,8.5c-0.9,0.6-1.8,1-2.6,1c-0.7,0-1.4-0.3-1.8-0.9
			c-0.6-0.8-0.7-1.9-0.3-3.4l4-14.8l-12-9.5c-2-1.6-1.9-2.9-1.7-3.6c0.2-0.7,1-1.8,3.5-1.9l15.2-0.5l5.1-14.2
			C82.4,4.4,83.7,4,84.4,4c0.7,0,2,0.4,2.9,2.7l2,5.2l2,5.2l1.5,3.8l15.2,0.5c2.5,0.1,3.3,1.2,3.5,1.9c0.2,0.7,0.3,2-1.7,3.6
			l-11.9,9.5l1.2,4.1v0l3.1,10.7c0.4,1.5,0.3,2.7-0.3,3.5C101.4,55.2,100.7,55.6,100,55.6L100,55.6z"/>
		<path class="st7" d="M107.8,22.7l-5.5-0.2l-10.5-0.3l-1.7-4.6v0l-2-5.2l-2-5.2c-1-2.5-2.5-2.5-3.4,0l-2.3,6.3l-3.1,8.6l-4.9,0.2
			l0,0l-5.1,0.2l-6,0.2c-2.7,0.1-3.2,1.5-1.1,3.2l4.4,3.5l4.4,3.5c0,0,0,0,0,0l3.9,3.1l-2.8,10.2l-1.5,5.4c-0.7,2.6,0.5,3.5,2.8,2
			l4.5-3.1l4.5-3.1l0,0l4.1-2.8l8.9,5.9l4.8,3.2c2.3,1.5,3.5,0.6,2.8-2l-3.1-10.9c0,0,0,0,0,0l-1.4-4.7l3.9-3.1c0,0,0,0,0,0l4.3-3.5
			l4.3-3.5C111,24.2,110.5,22.8,107.8,22.7z"/>
		<g>
			<path class="st8" d="M84.4,32.1l-23.2-7.4c-0.2-0.2-0.4-0.3-0.5-0.4c0.2,0,0.4,0,0.6-0.1l17-0.6l5.8-15.9
				c0.1-0.3,0.2-0.5,0.3-0.6c0.1,0.1,0.2,0.3,0.3,0.6l6,15.9l17,0.6c0.3,0,0.5,0,0.6,0.1c-0.1,0.1-0.3,0.3-0.5,0.4L84.4,32.1z"/>
		</g>
	</g>
</g>
</svg>
