<?xml version="1.0" encoding="utf-8"?>
<!-- Generator: Adobe Illustrator 16.0.0, SVG Export Plug-In . SVG Version: 6.00 Build 0)  -->
<!DOCTYPE svg PUBLIC "-//W3C//DTD SVG 1.1//EN" "http://www.w3.org/Graphics/SVG/1.1/DTD/svg11.dtd">
<svg version="1.1" id="Layer_1" xmlns="http://www.w3.org/2000/svg" xmlns:xlink="http://www.w3.org/1999/xlink" x="0px" y="0px"
	 width="512px" height="512px" viewBox="0 0 512 512" enable-background="new 0 0 512 512" xml:space="preserve">
<g>
	<circle fill="#929292" cx="74.212" cy="469.592" r="39.359"/>
	<path fill="#929292" d="M363.29,206.608c-61.652,0-111.813,50.16-111.813,111.812c0,61.653,50.159,111.813,111.813,111.813
		c61.654,0,111.813-50.159,111.813-111.813C475.105,256.768,424.946,206.608,363.29,206.608z M363.29,377.699l-73.775-73.776
		l23.854-23.854l49.924,49.923l49.923-49.923l23.854,23.854L363.29,377.699z"/>
	<path fill="#929292" d="M34.853,362.762v33.735h205.655c-6.65-10.421-12.006-21.743-15.85-33.735H34.853L34.853,362.762z"/>
	<path fill="#929292" d="M363.29,463.97c-13.658,0-26.884-1.896-39.429-5.431c-1.024,3.507-1.577,7.214-1.577,11.054
		c0,21.737,17.621,39.358,39.358,39.358s39.359-17.621,39.359-39.358c0-3.537-0.475-6.961-1.351-10.222
		C388.027,462.373,375.843,463.97,363.29,463.97z"/>
	<path fill="#929292" d="M442.7,3.049l-13.825,84.34H0l29.111,178.188c3.187,19.435,21.904,35.335,41.6,35.335H218.8
		c8.676-72.029,70.162-128.039,144.491-128.039c30.235,0,58.345,9.271,81.642,25.113l26.424-161.202h40.642V3.049H442.7z"/>
</g>
</svg>
