<?xml version="1.0" encoding="utf-8"?>
<!-- Generator: Adobe Illustrator 16.0.0, SVG Export Plug-In . SVG Version: 6.00 Build 0)  -->
<!DOCTYPE svg PUBLIC "-//W3C//DTD SVG 1.1//EN" "http://www.w3.org/Graphics/SVG/1.1/DTD/svg11.dtd">
<svg version="1.1" id="Layer_1" xmlns="http://www.w3.org/2000/svg" xmlns:xlink="http://www.w3.org/1999/xlink" x="0px" y="0px"
	 width="268.745px" height="41.3px" viewBox="0 0 268.745 41.3" enable-background="new 0 0 268.745 41.3" xml:space="preserve">
<g id="Isolation_Mode">
	
		<linearGradient id="SVGID_1_" gradientUnits="userSpaceOnUse" x1="-1.5408" y1="822.2771" x2="277.2057" y2="822.2771" gradientTransform="matrix(0.9948 0.1017 0.2907 -0.9755 -236.3485 803.3889)">
		<stop  offset="0" style="stop-color:#000000;stop-opacity:0"/>
		<stop  offset="0.5059" style="stop-color:#000000;stop-opacity:0.302"/>
		<stop  offset="1" style="stop-color:#000000;stop-opacity:0"/>
	</linearGradient>
	<path fill="url(#SVGID_1_)" d="M269.365,40.3l-99.45-3.8l-149.6-6.6L252.915,0c13.566,25.433,19.816,38.4,18.75,38.9
		C270.498,39.333,269.733,39.8,269.365,40.3z"/>
	<polygon fill="#00C65E" points="18.427,0.47 7.589,0.47 29.267,30.603 40.106,30.603 	"/>
	<polygon fill="#231F20" points="4.336,0.47 0,0.47 21.679,30.603 26.015,30.603 	"/>
	<polygon fill="#009B4A" points="268.745,30.598 42.267,30.598 20.589,0.467 257.906,0.467 	"/>
	<g>
		<path fill="#FFFFFF" d="M53.92,8.761h1.187h2.218c1.524,0,2.706,0.333,3.544,1c0.839,0.666,1.258,1.606,1.258,2.82
			c0,1.366-0.402,2.396-1.211,3.091c-0.808,0.695-2.004,1.042-3.591,1.042h-1.032v4.877h-1.186H53.92V8.761z M56.291,14.504h1.032
			c0.809,0,1.413-0.146,1.816-0.439c0.404-0.293,0.604-0.734,0.604-1.321s-0.201-1.029-0.604-1.325s-1.01-0.444-1.816-0.444h-1.032
			V14.504z"/>
		<path fill="#FFFFFF" d="M68.703,21.913c-1.319,0-2.446-0.498-3.378-1.495c-0.932-0.996-1.396-2.206-1.396-3.628
			c0-1.423,0.466-2.635,1.396-3.637c0.932-1.002,2.062-1.503,3.387-1.503c1.281,0,2.368,0.46,3.261,1.38v-1.06h2.126v9.62h-1.06
			h-1.066v-1.05C71.07,21.45,69.981,21.907,68.703,21.913z M69.085,13.741c-0.808,0-1.481,0.292-2.023,0.876
			s-0.813,1.308-0.813,2.172c0,0.858,0.271,1.578,0.813,2.159c0.542,0.582,1.214,0.872,2.016,0.872c0.809,0,1.483-0.291,2.028-0.872
			s0.815-1.304,0.815-2.167c0-0.864-0.271-1.586-0.813-2.168S69.893,13.741,69.085,13.741z"/>
		<path fill="#FFFFFF" d="M77.079,11.97h1.075h1.075V12.7l0.109-0.153c0.43-0.598,1.093-0.896,1.989-0.896h0.153v2.202
			c-0.649,0.045-1.146,0.215-1.491,0.508c-0.4,0.35-0.601,0.902-0.601,1.66v5.571h-1.151h-1.16L77.079,11.97L77.079,11.97z"/>
		<path fill="#FFFFFF" d="M84.081,21.591v-7.587h-1.108v-2.032h1.108V8.746h2.313v3.226h1.396v2.032h-1.396v7.587H84.081z"/>
		<path fill="#FFFFFF" d="M89.823,11.97h1.076h1.075v0.83c0.745-0.768,1.637-1.151,2.676-1.151c1.141,0,2.045,0.385,2.714,1.155
			c0.669,0.771,1.004,1.812,1.004,3.121v5.665h-1.151h-1.16v-5.147c0-0.881-0.163-1.55-0.49-2.007
			c-0.328-0.458-0.805-0.687-1.432-0.687c-0.666,0-1.166,0.231-1.499,0.694s-0.499,1.157-0.499,2.083v5.063h-1.152h-1.16
			L89.823,11.97L89.823,11.97z"/>
		<path fill="#FFFFFF" d="M105.919,21.913c-1.389,0-2.571-0.498-3.552-1.495c-0.979-0.996-1.47-2.206-1.47-3.628
			c0-1.423,0.49-2.635,1.47-3.637s2.163-1.503,3.552-1.503c1.396,0,2.581,0.501,3.562,1.503c0.979,1.002,1.47,2.214,1.47,3.637
			c0,0.344-0.027,0.683-0.085,1.016h-7.502c0.129,0.418,0.347,0.797,0.651,1.136c0.524,0.575,1.18,0.863,1.965,0.863
			c0.484,0,0.93-0.112,1.334-0.339c0.402-0.226,0.701-0.527,0.893-0.905h2.439c-0.312,1.021-0.896,1.836-1.753,2.442
			C108.033,21.609,107.043,21.913,105.919,21.913z M108.536,15.96c-0.113-0.508-0.342-0.951-0.687-1.329
			c-0.521-0.582-1.163-0.873-1.932-0.873c-0.768,0-1.411,0.291-1.931,0.873c-0.333,0.384-0.564,0.827-0.694,1.329H108.536z"/>
		<path fill="#FFFFFF" d="M113.634,11.97h1.075h1.075V12.7l0.11-0.153c0.429-0.598,1.092-0.896,1.988-0.896h0.153v2.202
			c-0.649,0.045-1.146,0.215-1.491,0.508c-0.399,0.35-0.601,0.902-0.601,1.66v5.571h-1.151h-1.16L113.634,11.97L113.634,11.97z"/>
		<path fill="#FFFFFF" d="M123.969,14.571c-0.058-0.271-0.164-0.475-0.322-0.609c-0.158-0.136-0.362-0.204-0.61-0.204
			c-0.267,0-0.481,0.076-0.648,0.229c-0.167,0.151-0.25,0.35-0.25,0.593c0,0.231,0.104,0.417,0.313,0.559
			c0.209,0.143,0.609,0.303,1.202,0.483c1.011,0.311,1.733,0.697,2.168,1.16c0.429,0.463,0.644,1.078,0.644,1.846
			c0,0.965-0.318,1.754-0.957,2.367s-1.457,0.919-2.457,0.919c-1.011,0-1.846-0.309-2.503-0.927s-1.01-1.427-1.055-2.426h2.371
			c0.067,0.406,0.206,0.716,0.415,0.927c0.209,0.212,0.479,0.317,0.813,0.317c0.315,0,0.576-0.087,0.779-0.263
			c0.203-0.175,0.305-0.401,0.305-0.677c0-0.299-0.092-0.531-0.275-0.694c-0.188-0.164-0.545-0.328-1.076-0.491
			c-1.067-0.327-1.833-0.723-2.296-1.186c-0.457-0.458-0.687-1.063-0.687-1.813c0-0.892,0.306-1.619,0.915-2.185
			c0.609-0.564,1.393-0.847,2.348-0.847c0.836,0,1.553,0.278,2.15,0.838c0.599,0.559,0.925,1.253,0.976,2.083L123.969,14.571
			L123.969,14.571z"/>
		<path fill="#FFFFFF" d="M134.719,8.761h2.312v2.117h-2.312V8.761z M134.719,11.97h1.15h1.16v9.62h-1.151h-1.159V11.97z"/>
		<path fill="#FFFFFF" d="M139.978,11.97h1.076h1.074v0.83c0.745-0.768,1.638-1.151,2.677-1.151c1.141,0,2.045,0.385,2.714,1.155
			c0.669,0.771,1.004,1.812,1.004,3.121v5.665h-1.152h-1.16v-5.147c0-0.881-0.162-1.55-0.489-2.007
			c-0.328-0.458-0.806-0.687-1.433-0.687c-0.666,0-1.166,0.231-1.499,0.694s-0.499,1.157-0.499,2.083v5.063h-1.151h-1.16
			L139.978,11.97L139.978,11.97z"/>
		<path fill="#FFFFFF" d="M157.693,21.591V8.761h1.186h1.187v10.619h3.929v1.102v1.108H157.693z"/>
		<path fill="#FFFFFF" d="M170.706,21.913c-1.389,0-2.572-0.498-3.552-1.495c-0.979-0.996-1.47-2.206-1.47-3.628
			c0-1.423,0.49-2.635,1.47-3.637s2.163-1.503,3.552-1.503c1.396,0,2.581,0.501,3.562,1.503c0.979,1.002,1.47,2.214,1.47,3.637
			c0,0.344-0.028,0.683-0.085,1.016h-7.502c0.129,0.418,0.347,0.797,0.651,1.136c0.524,0.575,1.18,0.863,1.965,0.863
			c0.484,0,0.93-0.112,1.334-0.339c0.402-0.226,0.701-0.527,0.893-0.905h2.439c-0.312,1.021-0.896,1.836-1.754,2.442
			C172.821,21.609,171.83,21.913,170.706,21.913z M173.323,15.96c-0.113-0.508-0.342-0.951-0.687-1.329
			c-0.521-0.582-1.163-0.873-1.932-0.873c-0.768,0-1.411,0.291-1.931,0.873c-0.333,0.384-0.564,0.827-0.694,1.329H173.323z"/>
		<path fill="#FFFFFF" d="M182.57,21.913c-1.32,0-2.447-0.498-3.378-1.495c-0.933-0.996-1.397-2.206-1.397-3.628
			c0-1.423,0.467-2.635,1.397-3.637s2.061-1.503,3.387-1.503c1.281,0,2.368,0.46,3.26,1.38v-1.06h2.126v9.62h-1.059h-1.067v-1.05
			C184.937,21.45,183.847,21.907,182.57,21.913z M182.951,13.741c-0.808,0-1.481,0.292-2.024,0.876
			c-0.541,0.584-0.813,1.308-0.813,2.172c0,0.858,0.271,1.578,0.813,2.159c0.543,0.582,1.215,0.872,2.017,0.872
			c0.808,0,1.483-0.291,2.028-0.872s0.815-1.304,0.815-2.167c0-0.864-0.271-1.586-0.813-2.168S183.759,13.741,182.951,13.741z"/>
		<path fill="#FFFFFF" d="M190.945,11.97h1.075h1.075V12.7l0.109-0.153c0.429-0.598,1.092-0.896,1.989-0.896h0.153v2.202
			c-0.649,0.045-1.146,0.215-1.491,0.508c-0.4,0.35-0.602,0.902-0.602,1.66v5.571h-1.15h-1.16L190.945,11.97L190.945,11.97z"/>
		<path fill="#FFFFFF" d="M197.413,11.97h1.076h1.075v0.83c0.745-0.768,1.637-1.151,2.676-1.151c1.142,0,2.045,0.385,2.714,1.155
			c0.669,0.771,1.004,1.812,1.004,3.121v5.665h-1.151h-1.16v-5.147c0-0.881-0.163-1.55-0.49-2.007
			c-0.328-0.458-0.805-0.687-1.432-0.687c-0.666,0-1.166,0.231-1.499,0.694s-0.499,1.157-0.499,2.083v5.063h-1.152h-1.16
			L197.413,11.97L197.413,11.97z"/>
		<path fill="#FFFFFF" d="M208.878,8.761h2.313v2.117h-2.313V8.761z M208.878,11.97h1.151h1.16v9.62h-1.151h-1.16V11.97z"/>
		<path fill="#FFFFFF" d="M214.138,11.97h1.076h1.074v0.83c0.745-0.768,1.637-1.151,2.676-1.151c1.142,0,2.046,0.385,2.715,1.155
			c0.669,0.771,1.004,1.812,1.004,3.121v5.665h-1.152h-1.16v-5.147c0-0.881-0.163-1.55-0.49-2.007
			c-0.327-0.458-0.805-0.687-1.432-0.687c-0.666,0-1.166,0.231-1.499,0.694s-0.499,1.157-0.499,2.083v5.063h-1.152h-1.159
			L214.138,11.97L214.138,11.97z"/>
		<path fill="#FFFFFF" d="M230.294,23.403c0.909,0,1.648-0.309,2.22-0.923c0.495-0.537,0.775-1.217,0.838-2.041
			c-0.948,0.981-2.071,1.474-3.37,1.474c-1.311,0-2.428-0.498-3.354-1.495c-0.926-0.996-1.389-2.206-1.389-3.628
			c0-1.423,0.463-2.635,1.389-3.637c0.927-1.002,2.048-1.503,3.362-1.503c1.281-0.005,2.368,0.46,3.26,1.396V11.97h2.235v7.816
			c0,1.728-0.481,3.113-1.443,4.158c-0.963,1.044-2.239,1.565-3.832,1.565c-1.15,0-2.159-0.289-3.026-0.867
			c-0.866-0.579-1.446-1.352-1.74-2.316h2.686c0.163,0.327,0.44,0.588,0.834,0.783C229.355,23.304,229.798,23.403,230.294,23.403z
			 M230.362,13.741c-0.796,0-1.462,0.292-1.998,0.876s-0.805,1.308-0.805,2.172c0,0.858,0.269,1.578,0.805,2.159
			c0.536,0.582,1.199,0.872,1.99,0.872c0.796,0,1.463-0.291,2.002-0.872s0.809-1.304,0.809-2.167c0-0.864-0.268-1.586-0.804-2.168
			C231.823,14.032,231.157,13.741,230.362,13.741z"/>
	</g>
</g>
</svg>
