<?xml version="1.0" encoding="utf-8"?>
<!-- Generator: Adobe Illustrator 16.0.0, SVG Export Plug-In . SVG Version: 6.00 Build 0)  -->
<!DOCTYPE svg PUBLIC "-//W3C//DTD SVG 1.1//EN" "http://www.w3.org/Graphics/SVG/1.1/DTD/svg11.dtd">
<svg version="1.1" id="Capa_1" xmlns="http://www.w3.org/2000/svg" xmlns:xlink="http://www.w3.org/1999/xlink" x="0px" y="0px"
	 width="512px" height="512px" viewBox="0 0 512 512" enable-background="new 0 0 512 512" xml:space="preserve">
<g>
	<g>
		<path fill="#929292" d="M456.635,241.656V70.452c0-14.388-11.7-26.093-26.094-26.093H26.093C11.705,44.359,0,56.064,0,70.452
			v315.729c0,14.395,11.705,26.094,26.093,26.094h259.928c22.069,33.332,59.895,55.365,102.771,55.365
			C456.74,467.642,512,412.365,512,344.434C512.005,301.551,489.966,263.727,456.635,241.656z M382.408,71.621h40.013v13.913
			h-40.013V71.621z M311.956,71.621h40.013v13.913h-40.013V71.621z M239.767,71.621h40.012v13.913h-40.012V71.621z M271.992,383.573
			H31.056v-276.59h394.011v119.696c-11.465-3.543-23.65-5.454-36.27-5.454c-67.942,0-123.202,55.271-123.202,123.208
			C265.584,358.117,267.854,371.273,271.992,383.573z M388.791,436.334c-50.674,0-91.896-41.223-91.896-91.896
			c0-50.672,41.223-91.896,91.896-91.896c50.674,0,91.896,41.224,91.896,91.896C480.688,395.111,439.465,436.334,388.791,436.334z"
			/>
	</g>
</g>
<polygon fill="#929292" points="373.991,407.495 437.991,343.495 373.991,279.495 "/>
<path fill="#929292" d="M81.874,203.181v-52.07l-5.573,1.223v42.455c-2.773-1.275-6.361-1.637-10.292-0.77
	c-8.761,1.926-15.858,9.148-15.858,16.129c0,6.979,7.099,11.08,15.858,9.154C74.77,217.383,81.874,210.161,81.874,203.181z"/>
<path fill="#929292" d="M234.031,180.1h-0.007l-10.606,2.334l-81.532,17.922l-10.608,2.333v80.829
	c-5.275-2.431-12.104-3.107-19.585-1.465c-16.673,3.666-30.197,17.408-30.197,30.704s13.52,21.097,30.197,17.429
	c16.674-3.666,30.191-17.408,30.191-30.705v-81.794l81.533-17.922v63.492c-5.277-2.432-12.106-3.109-19.585-1.467
	c-16.673,3.668-30.198,17.41-30.198,30.705s13.519,21.096,30.198,17.436c16.672-3.668,30.196-17.41,30.196-30.705V180.1H234.031z"/>
<path fill="#929292" d="M282.145,180.955c-2.772-1.275-6.36-1.637-10.285-0.77c-8.761,1.926-15.858,9.148-15.858,16.127
	s7.099,11.08,15.858,9.154c8.762-1.925,15.858-9.148,15.858-16.127v-52.07l-5.573,1.223V180.955z"/>
<path fill="#929292" d="M355.804,186.027c-2.154-0.991-4.941-1.271-7.989-0.598c-6.805,1.496-12.318,7.106-12.318,12.526
	s5.515,8.606,12.318,7.11c6.805-1.495,12.318-7.106,12.318-12.526v-40.445l-4.329,0.95V186.027L355.804,186.027z"/>
</svg>
