<?xml version="1.0" encoding="utf-8"?>
<!-- Generator: Adobe Illustrator 16.0.0, SVG Export Plug-In . SVG Version: 6.00 Build 0)  -->
<!DOCTYPE svg PUBLIC "-//W3C//DTD SVG 1.1//EN" "http://www.w3.org/Graphics/SVG/1.1/DTD/svg11.dtd">
<svg version="1.1" id="Layer_1" xmlns="http://www.w3.org/2000/svg" xmlns:xlink="http://www.w3.org/1999/xlink" x="0px" y="0px"
	 width="500px" height="500px" viewBox="0 0 500 500" enable-background="new 0 0 500 500" xml:space="preserve">
<g>
	<path fill="#FFBE00" d="M250.006,500c-71.095,0-139.048-30.42-186.438-83.456C22.58,370.703,0.006,311.557,0.006,249.999
		C0.006,112.147,112.156,0,250.006,0c61.548,0,120.698,22.572,166.559,63.563c53.021,47.414,83.429,115.366,83.429,186.436
		C499.992,387.85,387.851,500,250.006,500"/>
	<path fill="#008941" d="M462.071,249.996c0,9.088-0.574,18.041-1.699,26.838c-1.578,12.6-4.269,24.842-7.976,36.646
		c-16.256,51.9-51.914,95.217-98.481,121.43c-9.896,5.577-20.305,10.384-31.116,14.349c-16.331,5.957-33.603,9.968-51.535,11.755
		c-6.996,0.71-14.079,1.064-21.26,1.064c-37.761,0-73.208-9.871-103.923-27.166c-20.415-11.5-38.739-26.289-54.235-43.635
		c-0.318-0.354-0.638-0.719-0.967-1.074c-32.966-37.381-52.953-86.457-52.953-140.204c0-117.124,94.947-212.08,212.081-212.08
		c53.762,0,102.836,19.997,140.218,52.952c0.354,0.33,0.72,0.648,1.075,0.966C434.732,130.683,462.071,187.136,462.071,249.996"/>
	<path fill="#C29100" d="M98.201,398.088c0.074,0.076,0.15,0.153,0.226,0.23C98.351,398.241,98.278,398.165,98.201,398.088
		 M91.079,390.422c2.298,2.6,4.658,5.141,7.081,7.623c-2.154-2.21-4.263-4.467-6.318-6.768
		C91.589,390.994,91.337,390.706,91.079,390.422"/>
	<path fill="#057736" d="M250.006,37.918c-117.135,0-212.08,94.947-212.08,212.068c0,53.864,20.067,103.034,53.151,140.435
		c0.259,0.284,0.512,0.573,0.764,0.854c2.057,2.302,4.164,4.559,6.318,6.768c0.012,0.014,0.028,0.03,0.041,0.043
		c0.075,0.076,0.148,0.152,0.226,0.229c4.675,4.775,9.571,9.33,14.678,13.646c-31.229-36.941-50.052-84.693-50.052-136.854
		c0-117.121,94.944-212.066,212.08-212.066c52.145,0,99.912,18.825,136.841,50.053C373.086,67.116,314.957,37.918,250.006,37.918"/>
	<path fill="#057736" d="M343.075,440.608c-0.146,0.071-0.295,0.145-0.442,0.216C342.781,440.751,342.93,440.681,343.075,440.608
		 M313.317,129.778l-74.319,209.844l29.355,69.724l85.379,25.66c-3.487,1.962-3.361,1.9,0.184-0.097
		c46.567-26.214,82.227-69.528,98.482-121.429c3.706-11.806,6.396-24.049,7.975-36.648L313.317,129.778"/>
	<path fill="#FF7B31" d="M353.913,380.145v54.766l-0.184,0.097c-24.82,13.969-52.745,23.059-82.469,26.006
		c-6.996,0.709-14.079,1.063-21.26,1.063c-37.761,0-73.208-9.871-103.923-27.166v-54.766c0-14.811,9.248-28.047,23.154-33.158
		l22.36-8.209l1.555-0.575c7.879-2.898,14.436-8.084,19.021-14.653c4.573-6.568,7.191-14.52,7.191-22.911h61.271
		c0,16.783,10.472,31.779,26.227,37.564l1.553,0.575l22.362,8.209C344.68,352.098,353.913,365.333,353.913,380.145"/>
	<path fill="#F4CC90" d="M308.409,338.777c-13.416,17.59-34.591,28.938-58.407,28.938c-23.828,0-44.999-11.35-58.408-28.938
		l1.555-0.576c7.879-2.898,14.435-8.084,19.021-14.653c4.573-6.567,7.191-14.521,7.191-22.911h61.271
		c0,16.783,10.472,31.779,26.227,37.564L308.409,338.777"/>
	<path fill="#F96A23" d="M308.409,338.777c-7.391,9.688-17.135,17.481-28.375,22.531l73.696,73.697l0.184-0.097v-54.765
		c0-14.811-9.233-28.047-23.142-33.158L308.409,338.777"/>
	<path fill="#D9B680" d="M280.666,302.301c-8.563,3.942-18.017,6.283-27.973,6.641c-0.894,0.052-1.787,0.063-2.691,0.063
		c-9.788,0-19.128-1.915-27.666-5.393l57.698,57.699c11.24-5.049,20.985-12.846,28.375-22.533l0,0l-1.552-0.575
		C291.626,332.607,281.332,318.404,280.666,302.301"/>
	<path fill="#F4CC90" d="M323.395,164.321v71.289c0,39.633-31.424,71.925-70.7,73.333c-0.894,0.05-1.786,0.061-2.691,0.061
		c-40.537,0-73.393-32.854-73.393-73.393v-71.289L323.395,164.321"/>
	<polyline fill="#2A8FDB" points="176.611,216.345 165.906,222.156 176.611,232.86 176.611,216.345 	"/>
	<path fill="#D9B680" d="M293.12,153.043L176.61,216.344v16.516l76.084,76.082c39.276-1.406,70.7-33.699,70.7-73.333V175.06
		L293.12,153.043"/>
	<path fill="#4D4D4D" d="M334.709,222.155v-39.9c0-41.467-33.614-75.082-75.081-75.082h-18.641
		c-41.467,0-75.081,33.615-75.081,75.082v39.9c0,0,105.195,12.232,129.659-39.143C295.567,183.012,315.138,213.592,334.709,222.155z
		"/>
</g>
</svg>
