<?xml version="1.0" encoding="utf-8"?>
<!-- Generator: Adobe Illustrator 21.0.0, SVG Export Plug-In . SVG Version: 6.00 Build 0)  -->
<svg version="1.1" id="Isolation_Mode" xmlns="http://www.w3.org/2000/svg" xmlns:xlink="http://www.w3.org/1999/xlink" x="0px"
	 y="0px" viewBox="0 0 32.2 46.5" style="enable-background:new 0 0 32.2 46.5;" xml:space="preserve">
<style type="text/css">
	.st0{opacity:0.5;fill:#808080;}
	.st1{fill:#FFFFFF;}
	.st2{fill:url(#SVGID_1_);}
	.st3{fill:url(#SVGID_2_);}
	.st4{fill:url(#SVGID_3_);}
	.st5{fill:url(#SVGID_4_);}
</style>
<g>
	<g>
		<circle class="st0" cx="16.1" cy="17.6" r="7.8"/>
		<path class="st0" d="M12.9,34.9c-0.9,0.5-1.9,0.2-2.4-0.6l-0.9-1.7c-0.3-0.5-0.8-0.9-1.4-1.2c-1.1,2.9-3.8,9.8-4.5,11.6
			c-0.6,1.8,0.6,1.3,1.9,0.7c2.2-1.1,4.3-2.2,4.3-2.2s1.1,1.9,1.7,3.3c0.5,1,1.6,3,2.1,0.5c0.5-2.2,1.8-8.7,2.4-11.9
			c-0.6,0-1.1,0.1-1.5,0.4L12.9,34.9z"/>
		<path class="st0" d="M24,31.4c-0.6,0.3-1.1,0.7-1.4,1.2l-0.9,1.7c-0.5,0.8-1.5,1.1-2.4,0.6l-1.7-1c-0.4-0.3-1-0.4-1.5-0.4
			c0.6,3.2,1.9,9.7,2.4,11.9c0.5,2.5,1.7,0.4,2.1-0.5c0.7-1.3,1.7-3.3,1.7-3.3s2.1,1.1,4.3,2.2c1.3,0.6,2.5,1.1,1.9-0.7
			C27.8,41.2,25.1,34.3,24,31.4z"/>
		<path class="st0" d="M30.9,19c-0.5-0.8-0.5-2.1,0-2.9l1-1.6c0.5-0.8,0.2-1.8-0.6-2.3l-1.7-0.9c-0.8-0.4-1.5-1.6-1.5-2.5L28.3,7
			c0-1-0.7-1.7-1.7-1.7l-1.9,0.1c-1,0-2.1-0.6-2.5-1.5l-0.9-1.7c-0.4-0.8-1.5-1.1-2.3-0.6l-1.6,1c-0.8,0.5-2.1,0.5-2.9,0l-1.6-1
			c-0.8-0.5-1.8-0.2-2.3,0.6L9.9,4C9.5,4.9,8.4,5.5,7.4,5.5L5.6,5.4c-1,0-1.7,0.7-1.7,1.7L4,8.9c0,1-0.6,2.1-1.5,2.5l-1.7,0.9
			c-0.8,0.4-1.1,1.5-0.6,2.3l1,1.6c0.5,0.8,0.5,2.1,0,2.9l-1,1.6c-0.5,0.8-0.2,1.8,0.6,2.3l1.7,0.9C3.4,24.2,4,25.3,4,26.3l-0.1,1.9
			c0,1,0.7,1.7,1.7,1.7l1.9-0.1c1,0,2.1,0.6,2.5,1.5l0.9,1.7c0.4,0.8,1.5,1.1,2.3,0.6l1.6-1c0.8-0.5,2.1-0.5,2.9,0l1.6,1
			c0.8,0.5,1.8,0.2,2.3-0.6l0.9-1.7c0.4-0.8,1.6-1.5,2.5-1.5l1.9,0.1c1,0,1.7-0.7,1.7-1.7l-0.1-1.9c0-1,0.6-2.1,1.5-2.5l1.7-0.9
			c0.8-0.4,1.1-1.5,0.6-2.3L30.9,19z M16.1,27.3c-5.4,0-9.7-4.4-9.7-9.7c0-5.4,4.4-9.7,9.7-9.7c5.4,0,9.7,4.4,9.7,9.7
			C25.8,23,21.5,27.3,16.1,27.3z"/>
	</g>
	<g>
		<circle class="st1" cx="16.1" cy="16.1" r="7.8"/>
		<path class="st1" d="M12.9,33.4c-0.9,0.5-1.9,0.2-2.4-0.6l-0.9-1.7c-0.3-0.5-0.8-0.9-1.4-1.2c-1.1,2.9-3.8,9.8-4.5,11.6
			c-0.6,1.8,0.6,1.3,1.9,0.7C7.8,41.1,9.8,40,9.8,40s1.1,1.9,1.7,3.3c0.5,1,1.6,3,2.1,0.5c0.5-2.2,1.8-8.7,2.4-11.9
			c-0.6,0-1.1,0.1-1.5,0.4L12.9,33.4z"/>
		<path class="st1" d="M24,29.9c-0.6,0.3-1.1,0.7-1.4,1.2l-0.9,1.7c-0.5,0.8-1.5,1.1-2.4,0.6l-1.7-1c-0.4-0.3-1-0.4-1.5-0.4
			c0.6,3.2,1.9,9.7,2.4,11.9c0.5,2.5,1.7,0.4,2.1-0.5c0.7-1.3,1.7-3.3,1.7-3.3s2.1,1.1,4.3,2.2c1.3,0.6,2.5,1.1,1.9-0.7
			C27.8,39.7,25.1,32.8,24,29.9z"/>
		<path class="st1" d="M30.9,17.5c-0.5-0.8-0.5-2.1,0-2.9l1-1.6c0.5-0.8,0.2-1.8-0.6-2.3l-1.7-0.9c-0.8-0.4-1.5-1.6-1.5-2.5l0.1-1.9
			c0-1-0.7-1.7-1.7-1.7L24.8,4c-1,0-2.1-0.6-2.5-1.5l-0.9-1.7c-0.4-0.8-1.5-1.1-2.3-0.6l-1.6,1c-0.8,0.5-2.1,0.5-2.9,0l-1.6-1
			c-0.8-0.5-1.8-0.2-2.3,0.6L9.9,2.5C9.5,3.4,8.4,4,7.4,4L5.6,3.9c-1,0-1.7,0.7-1.7,1.7L4,7.4c0,1-0.6,2.1-1.5,2.5l-1.7,0.9
			c-0.8,0.4-1.1,1.5-0.6,2.3l1,1.6c0.5,0.8,0.5,2.1,0,2.9l-1,1.6c-0.5,0.8-0.2,1.8,0.6,2.3l1.7,0.9C3.4,22.7,4,23.8,4,24.8l-0.1,1.9
			c0,1,0.7,1.7,1.7,1.7l1.9-0.1c1,0,2.1,0.6,2.5,1.5l0.9,1.7c0.4,0.8,1.5,1.1,2.3,0.6l1.6-1c0.8-0.5,2.1-0.5,2.9,0l1.6,1
			c0.8,0.5,1.8,0.2,2.3-0.6l0.9-1.7c0.4-0.8,1.6-1.5,2.5-1.5l1.9,0.1c1,0,1.7-0.7,1.7-1.7l-0.1-1.9c0-1,0.6-2.1,1.5-2.5l1.7-0.9
			c0.8-0.4,1.1-1.5,0.6-2.3L30.9,17.5z M16.1,25.8c-5.4,0-9.7-4.4-9.7-9.7c0-5.4,4.4-9.7,9.7-9.7c5.4,0,9.7,4.4,9.7,9.7
			C25.8,21.5,21.5,25.8,16.1,25.8z"/>
	</g>
	<g>
		
			<radialGradient id="SVGID_1_" cx="8.4737" cy="2.7678" r="39.1923" gradientTransform="matrix(1 0 0 1 0 -0.5)" gradientUnits="userSpaceOnUse">
			<stop  offset="0.503" style="stop-color:#FFFFFF"/>
			<stop  offset="0.8545" style="stop-color:#B8C5D9"/>
		</radialGradient>
		<circle class="st2" cx="16.1" cy="16.1" r="6.3"/>
		
			<radialGradient id="SVGID_2_" cx="8.4736" cy="2.7679" r="39.1924" gradientTransform="matrix(1 0 0 1 0 -0.5)" gradientUnits="userSpaceOnUse">
			<stop  offset="0.503" style="stop-color:#FFFFFF"/>
			<stop  offset="0.8545" style="stop-color:#B8C5D9"/>
		</radialGradient>
		<path class="st3" d="M12.6,42c-0.6-1.2-1.4-2.6-1.4-2.7L10.4,38l-1.3,0.7c0,0-1.6,0.8-3.4,1.8c0.8-2.1,2.1-5.4,3-7.8l0.4,0.8
			c0.6,1,1.6,1.6,2.8,1.6c0.6,0,1.2-0.2,1.7-0.5l0.4-0.3C13.6,36.8,13,39.9,12.6,42z"/>
		
			<radialGradient id="SVGID_3_" cx="8.4753" cy="2.7679" r="39.1916" gradientTransform="matrix(1 0 0 1 0 -0.5)" gradientUnits="userSpaceOnUse">
			<stop  offset="0.503" style="stop-color:#FFFFFF"/>
			<stop  offset="0.8545" style="stop-color:#B8C5D9"/>
		</radialGradient>
		<path class="st4" d="M19.6,42c-0.3-1.7-0.9-4.2-1.5-7.6l0.4,0.3c0.5,0.3,1.1,0.5,1.7,0.5c1.2,0,2.2-0.6,2.8-1.6l0.4-0.8
			c0.9,2.4,2.2,5.7,3,7.8c-1.9-1-3.4-1.8-3.4-1.8L21.7,38L21,39.3C21,39.4,20.2,40.7,19.6,42z"/>
		
			<radialGradient id="SVGID_4_" cx="8.4738" cy="2.7679" r="39.1925" gradientTransform="matrix(1 0 0 1 0 -0.5)" gradientUnits="userSpaceOnUse">
			<stop  offset="0.503" style="stop-color:#FFFFFF"/>
			<stop  offset="0.8545" style="stop-color:#B8C5D9"/>
		</radialGradient>
		<path class="st5" d="M20,30.7C20,30.7,20,30.7,20,30.7l-1.6-1c-0.6-0.4-1.4-0.6-2.3-0.6c-0.8,0-1.6,0.2-2.3,0.6l-1.6,1l-0.1,0
			L11.3,29c-0.7-1.3-2.3-2.3-3.8-2.3l-0.2,0l-1.9,0.1l-0.1-0.1l0.1-1.9c0.1-1.5-0.9-3.2-2.3-3.9L1.6,20l0-0.1l1-1.6
			c0.8-1.3,0.8-3.2,0-4.5l-1-1.6l0-0.1l1.7-0.9c1.4-0.7,2.3-2.4,2.3-3.9L5.4,5.5l0.1-0.1l1.9,0.1l0.1,0c1.5,0,3.1-1,3.8-2.3l0.9-1.7
			l0.1,0l1.6,1c0.6,0.4,1.4,0.6,2.3,0.6c0.8,0,1.6-0.2,2.3-0.6l1.6-1l0.1,0l0.9,1.7c0.7,1.3,2.3,2.3,3.8,2.3l0.2,0l1.9-0.1l0.1,0.1
			l-0.1,1.9c-0.1,1.5,0.9,3.2,2.3,3.9l1.7,0.9l0,0.1l-1,1.6c-0.8,1.3-0.8,3.2,0,4.5l1,1.6l0,0.1L29,20.9c-1.4,0.7-2.3,2.4-2.3,3.9
			l0.1,1.9l-0.1,0.1l-1.9-0.1l-0.1,0c-1.5,0-3.1,1-3.8,2.3L20,30.7L20,30.7z M16.1,4.9c-6.2,0-11.2,5-11.2,11.2
			c0,6.2,5,11.2,11.2,11.2c6.2,0,11.2-5,11.2-11.2C27.3,9.9,22.3,4.9,16.1,4.9z"/>
	</g>
</g>
</svg>
