<?xml version="1.0" encoding="utf-8"?>
<!-- Generator: Adobe Illustrator 16.0.0, SVG Export Plug-In . SVG Version: 6.00 Build 0)  -->
<!DOCTYPE svg PUBLIC "-//W3C//DTD SVG 1.1//EN" "http://www.w3.org/Graphics/SVG/1.1/DTD/svg11.dtd">
<svg version="1.1" id="Isolation_Mode_1_" xmlns="http://www.w3.org/2000/svg" xmlns:xlink="http://www.w3.org/1999/xlink" x="0px"
	 y="0px" width="343.059px" height="236.988px" viewBox="600 218.595 343.059 236.988"
	 enable-background="new 600 218.595 343.059 236.988" xml:space="preserve">
<g id="Isolation_Mode">
	<g>
		<g>
			<g>
				<path opacity="0.15" d="M925.826,270.32c0-10.121-8.2-18.336-18.322-18.336H641.726c-10.121,0-18.323,8.216-18.323,18.336
					v155.239c0,10.122,8.202,18.327,18.323,18.327h265.778c10.122,0,18.322-8.205,18.322-18.327V270.32z"/>
				
					<linearGradient id="SVGID_1_" gradientUnits="userSpaceOnUse" x1="785.7131" y1="246.7749" x2="785.7131" y2="57.894" gradientTransform="matrix(1 0 0 -1 2.3999 480.0098)">
					<stop  offset="0" style="stop-color:#FFFFFF"/>
					<stop  offset="1" style="stop-color:#E9EFFF"/>
				</linearGradient>
				<path fill="url(#SVGID_1_)" stroke="#A0A0A0" stroke-width="3" d="M926.826,398.265c0,13.194-9.395,23.851-21.005,23.851
					H670.406c-11.588,0-21.006-10.656-21.006-23.851V257.072c0-13.167,9.418-23.837,21.006-23.837h235.416
					c11.61,0,21.005,10.671,21.005,23.837V398.265z"/>
				<rect x="650.903" y="267.278" fill="#161D21" width="275.924" height="24.119"/>
				<rect x="667.654" y="313.06" fill="#FFFFFF" width="142.847" height="48.393"/>
				<rect x="825.833" y="313.06" fill="#FFFFFF" width="89.667" height="48.393"/>
				<rect x="821.5" y="309.626" fill="none" stroke="#FF3600" stroke-width="5" width="97.354" height="52.541"/>
			</g>
			<path fill="#F76031" d="M884.828,389.517c0,8.974-7.273,16.248-16.249,16.248l0,0c-8.974,0-16.247-7.274-16.247-16.248l0,0
				c0-8.974,7.273-16.248,16.247-16.248l0,0C877.555,373.269,884.828,380.543,884.828,389.517L884.828,389.517z"/>
			<path fill="#FBB03B" d="M903.514,389.517c0,8.974-7.274,16.248-16.248,16.248l0,0c-8.975,0-16.249-7.274-16.249-16.248l0,0
				c0-8.974,7.274-16.248,16.249-16.248l0,0C896.24,373.269,903.514,380.543,903.514,389.517L903.514,389.517z"/>
			<path fill="#2D2E30" d="M693.7,341.146l-5.283,8.975c-0.253,0.397-0.76,0.579-1.34,0.579c-1.555,0-3.763-1.23-3.763-2.787
				c0-0.325,0.108-0.651,0.326-1.013l6.261-9.663l-6.008-9.625c-0.253-0.398-0.362-0.761-0.362-1.122
				c0-1.52,2.063-2.678,3.656-2.678c0.794,0,1.338,0.289,1.7,0.941l4.813,8.396l4.813-8.396c0.363-0.652,0.906-0.941,1.701-0.941
				c1.593,0,3.656,1.158,3.656,2.678c0,0.361-0.109,0.724-0.363,1.122l-6.007,9.625l6.261,9.663
				c0.218,0.362,0.326,0.688,0.326,1.013c0,1.557-2.208,2.787-3.764,2.787c-0.579,0-1.122-0.182-1.339-0.579L693.7,341.146z"/>
			<path fill="#2D2E30" d="M724.7,341.146l-5.283,8.975c-0.253,0.397-0.76,0.579-1.34,0.579c-1.555,0-3.763-1.23-3.763-2.787
				c0-0.325,0.108-0.651,0.326-1.013l6.261-9.663l-6.008-9.625c-0.253-0.398-0.362-0.761-0.362-1.122
				c0-1.52,2.063-2.678,3.656-2.678c0.794,0,1.338,0.289,1.7,0.941l4.813,8.396l4.813-8.396c0.363-0.652,0.906-0.941,1.701-0.941
				c1.593,0,3.656,1.158,3.656,2.678c0,0.361-0.109,0.724-0.363,1.122l-6.007,9.625l6.261,9.663
				c0.218,0.362,0.326,0.688,0.326,1.013c0,1.557-2.208,2.787-3.764,2.787c-0.579,0-1.122-0.182-1.339-0.579L724.7,341.146z"/>
			<path fill="#2D2E30" d="M753.166,341.146l-5.283,8.975c-0.253,0.397-0.76,0.579-1.34,0.579c-1.555,0-3.763-1.23-3.763-2.787
				c0-0.325,0.108-0.651,0.326-1.013l6.261-9.663l-6.008-9.625c-0.253-0.398-0.362-0.761-0.362-1.122
				c0-1.52,2.063-2.678,3.656-2.678c0.794,0,1.338,0.289,1.7,0.941l4.813,8.396l4.813-8.396c0.363-0.652,0.906-0.941,1.701-0.941
				c1.593,0,3.656,1.158,3.656,2.678c0,0.361-0.109,0.724-0.363,1.122l-6.007,9.625l6.261,9.663
				c0.218,0.362,0.326,0.688,0.326,1.013c0,1.557-2.208,2.787-3.764,2.787c-0.579,0-1.122-0.182-1.339-0.579L753.166,341.146z"/>
			<path fill="#2D2E30" d="M784.033,341.146l-5.283,8.975c-0.253,0.397-0.76,0.579-1.34,0.579c-1.555,0-3.763-1.23-3.763-2.787
				c0-0.325,0.108-0.651,0.326-1.013l6.261-9.663l-6.008-9.625c-0.253-0.398-0.362-0.761-0.362-1.122
				c0-1.52,2.063-2.678,3.656-2.678c0.794,0,1.338,0.289,1.7,0.941l4.813,8.396l4.813-8.396c0.363-0.652,0.906-0.941,1.701-0.941
				c1.593,0,3.656,1.158,3.656,2.678c0,0.361-0.109,0.724-0.363,1.122l-6.007,9.625l6.261,9.663
				c0.218,0.362,0.326,0.688,0.326,1.013c0,1.557-2.208,2.787-3.764,2.787c-0.579,0-1.122-0.182-1.339-0.579L784.033,341.146z"/>
			<path fill="#2D2E30" d="M842.332,341.146l-5.283,8.975c-0.253,0.397-0.76,0.579-1.34,0.579c-1.555,0-3.763-1.23-3.763-2.787
				c0-0.325,0.108-0.651,0.326-1.013l6.261-9.663l-6.008-9.625c-0.253-0.398-0.362-0.761-0.362-1.122
				c0-1.52,2.063-2.678,3.656-2.678c0.794,0,1.338,0.289,1.7,0.941l4.813,8.396l4.813-8.396c0.363-0.652,0.906-0.941,1.701-0.941
				c1.593,0,3.656,1.158,3.656,2.678c0,0.361-0.109,0.724-0.363,1.122l-6.007,9.625l6.261,9.663
				c0.218,0.362,0.326,0.688,0.326,1.013c0,1.557-2.208,2.787-3.764,2.787c-0.579,0-1.122-0.182-1.339-0.579L842.332,341.146z"/>
			<path fill="#2D2E30" d="M870.828,341.146l-5.283,8.975c-0.253,0.397-0.76,0.579-1.34,0.579c-1.555,0-3.763-1.23-3.763-2.787
				c0-0.325,0.108-0.651,0.326-1.013l6.261-9.663l-6.008-9.625c-0.253-0.398-0.362-0.761-0.362-1.122
				c0-1.52,2.063-2.678,3.656-2.678c0.794,0,1.338,0.289,1.7,0.941l4.813,8.396l4.813-8.396c0.363-0.652,0.906-0.941,1.701-0.941
				c1.593,0,3.656,1.158,3.656,2.678c0,0.361-0.109,0.724-0.363,1.122l-6.007,9.625l6.261,9.663
				c0.218,0.362,0.326,0.688,0.326,1.013c0,1.557-2.208,2.787-3.764,2.787c-0.579,0-1.122-0.182-1.339-0.579L870.828,341.146z"/>
			<path fill="#2D2E30" d="M901.499,341.146l-5.283,8.975c-0.253,0.397-0.76,0.579-1.34,0.579c-1.555,0-3.763-1.23-3.763-2.787
				c0-0.325,0.108-0.651,0.326-1.013l6.261-9.663l-6.008-9.625c-0.253-0.398-0.362-0.761-0.362-1.122
				c0-1.52,2.063-2.678,3.656-2.678c0.794,0,1.338,0.289,1.7,0.941l4.813,8.396l4.813-8.396c0.363-0.652,0.906-0.941,1.701-0.941
				c1.593,0,3.656,1.158,3.656,2.678c0,0.361-0.109,0.724-0.363,1.122l-6.007,9.625l6.261,9.663
				c0.218,0.362,0.326,0.688,0.326,1.013c0,1.557-2.208,2.787-3.764,2.787c-0.579,0-1.122-0.182-1.339-0.579L901.499,341.146z"/>
		</g>
		<path opacity="0.3" fill="#FFFFFF" d="M908.719,422.886H778.058c0.008-0.251,0.03-0.484,0.03-0.734V233.235h130.631
			c10.004,0,18.107,8.12,18.107,18.122v153.418C926.826,414.776,918.723,422.886,908.719,422.886z"/>
	</g>
</g>
</svg>
