<?xml version="1.0" encoding="utf-8"?>
<!-- Generator: Adobe Illustrator 16.0.0, SVG Export Plug-In . SVG Version: 6.00 Build 0)  -->
<!DOCTYPE svg PUBLIC "-//W3C//DTD SVG 1.1//EN" "http://www.w3.org/Graphics/SVG/1.1/DTD/svg11.dtd">
<svg version="1.1" id="Capa_1" xmlns="http://www.w3.org/2000/svg" xmlns:xlink="http://www.w3.org/1999/xlink" x="0px" y="0px"
	 width="512px" height="512px" viewBox="0 0 512 512" enable-background="new 0 0 512 512" xml:space="preserve">
<path fill="#FD991C" d="M387.706,267.588c5.45-5.451,5.45-14.031,0-19.48c-5.266-5.45-14.029-5.45-19.283,0l-98.773,98.59V20.94
	c0-7.598-6.039-13.833-13.638-13.833c-7.598,0-13.833,6.236-13.833,13.833v325.757l-98.578-98.59c-5.449-5.45-14.226-5.45-19.479,0
	c-5.45,5.45-5.45,14.029,0,19.48l122.157,122.156c5.266,5.266,14.03,5.266,19.479,0L387.706,267.588z M484.53,357.021
	c0-7.599,6.039-13.638,13.637-13.638s13.833,6.039,13.833,13.638V491.06c0,7.598-6.235,13.833-13.833,13.833H13.637
	C6.039,504.893,0,498.657,0,491.06V357.021c0-7.599,6.039-13.638,13.637-13.638c7.599,0,13.834,6.039,13.834,13.638v120.401H484.53
	V357.021z"/>
</svg>
