<?xml version="1.0" encoding="utf-8"?>
<!-- Generator: Adobe Illustrator 16.0.0, SVG Export Plug-In . SVG Version: 6.00 Build 0)  -->
<!DOCTYPE svg PUBLIC "-//W3C//DTD SVG 1.1//EN" "http://www.w3.org/Graphics/SVG/1.1/DTD/svg11.dtd">
<svg version="1.1" id="Capa_1" xmlns="http://www.w3.org/2000/svg" xmlns:xlink="http://www.w3.org/1999/xlink" x="0px" y="0px"
	 width="512px" height="277.247px" viewBox="0 117.376 512 277.247" enable-background="new 0 117.376 512 277.247"
	 xml:space="preserve">
<g>
	<g>
		<path fill="#FD991C" d="M503.203,244.878c-1.033-1.31-25.842-32.431-68.372-63.676c-56.833-41.756-118.673-63.826-178.833-63.826
			c-60.158,0-121.998,22.07-178.833,63.826c-42.53,31.244-67.338,62.366-68.372,63.676L0,256l8.794,11.122
			c1.034,1.31,25.843,32.432,68.372,63.678c56.835,41.754,118.675,63.823,178.833,63.823c60.159,0,121.999-22.069,178.832-63.823
			c42.53-31.246,67.339-62.368,68.372-63.678L512,256L503.203,244.878z M255.998,353.112c-53.548,0-97.113-43.563-97.113-97.112
			c0-8.391,1.069-16.534,3.079-24.306l-22.171-3.73c-2.173,8.995-3.325,18.383-3.325,28.036c0,34.589,14.775,65.789,38.338,87.636
			c-30.331-11.204-56.123-26.928-75.589-41.146c-24.116-17.613-42.19-35.43-52.494-46.49c10.309-11.065,28.38-28.878,52.494-46.491
			c19.466-14.219,45.259-29.941,75.589-41.146l14.874,16.767c17.371-16.267,40.7-26.241,66.318-26.241
			c53.547,0,97.111,43.564,97.111,97.113C353.109,309.549,309.546,353.112,255.998,353.112z M412.779,302.49
			c-19.467,14.22-45.258,29.941-75.588,41.146c23.562-21.847,38.336-53.046,38.336-87.638c0-34.593-14.774-65.791-38.336-87.638
			c30.33,11.206,56.121,26.929,75.588,41.146c24.117,17.614,42.19,35.429,52.495,46.49
			C454.965,267.064,436.895,284.879,412.779,302.49z"/>
		<path fill="#FD991C" d="M194.2,237.122c-1.823,5.973-2.811,12.309-2.811,18.878c0,35.681,28.926,64.608,64.608,64.608
			c35.683,0,64.606-28.927,64.606-64.608c0-35.683-28.926-64.608-64.606-64.608c-17.38,0-33.145,6.875-44.758,18.039l31.868,35.921
			L194.2,237.122z"/>
	</g>
</g>
</svg>
