<?xml version="1.0" encoding="utf-8"?>
<!-- Generator: Adobe Illustrator 16.0.0, SVG Export Plug-In . SVG Version: 6.00 Build 0)  -->
<!DOCTYPE svg PUBLIC "-//W3C//DTD SVG 1.1//EN" "http://www.w3.org/Graphics/SVG/1.1/DTD/svg11.dtd">
<svg version="1.1" id="Layer_1" xmlns="http://www.w3.org/2000/svg" xmlns:xlink="http://www.w3.org/1999/xlink" x="0px" y="0px"
	 width="280px" height="317.461px" viewBox="372 324 280 317.461" enable-background="new 372 324 280 317.461"
	 xml:space="preserve">
<g>
	<path fill="#F6C358" d="M512,324v280c77.318,0,140-62.68,140-140C652,386.679,589.318,324,512,324z"/>
	<path fill="#FCD462" d="M372,464c0,77.32,62.68,140,140,140V324C434.68,324,372,386.68,372,464z"/>
	<path fill="#DC8744" d="M562.315,501.12l-30.391,6.827l-3.684-16.4c-1.61-7.167-1.954-12.695-1.032-16.568
		c0.919-3.884,3.603-9.336,8.047-16.355l15.219-24.034c3.106-5.399,3.936-11.423,2.446-18.062
		c-1.489-6.629-4.893-11.657-10.168-15.079c-5.299-3.431-11.349-4.369-18.151-2.841c-6.805,1.528-12.021,4.905-15.647,10.144
		c-3.626,5.239-5.015,11.435-4.167,18.587l-32.534,7.309c-1.79-16.354,1.639-30.26,10.261-41.698
		c8.645-11.444,20.929-18.962,36.881-22.545c15.947-3.582,29.921-2.158,41.916,4.283c11.996,6.442,19.731,17.448,23.234,33.048
		c2.415,10.753,1.476,20.377-2.823,28.869c-2.445,5.077-4.366,8.701-5.757,10.9c-1.392,2.199-3.24,5.014-5.57,8.456
		c-2.352,3.445-4.303,6.423-5.919,8.948c-1.593,2.529-2.863,4.642-3.79,6.355c-2.331,4.671-2.699,10.591-1.091,17.757l2.719,12.102
		L562.315,501.12z M561.062,564.099c-5.645,1.268-10.956,0.439-15.938-2.5c-5-2.923-8.1-7.109-9.328-12.579
		s-0.273-10.626,2.865-15.479c3.163-4.846,7.556-7.901,13.201-9.169c5.642-1.268,10.955-0.44,15.956,2.483
		c4.98,2.937,8.082,7.124,9.312,12.594c1.228,5.47,0.271,10.628-2.87,15.469C571.122,559.77,566.707,562.83,561.062,564.099z"/>
	<path fill="#FFFFFF" d="M559.92,490.459l-30.39,6.828l-3.683-16.398c-1.609-7.167-1.955-12.697-1.033-16.569
		c0.92-3.884,3.602-9.337,8.047-16.356l15.217-24.034c3.109-5.397,3.939-11.421,2.447-18.062c-1.489-6.63-4.893-11.657-10.167-15.08
		c-5.298-3.43-11.348-4.368-18.151-2.841c-6.805,1.529-12.021,4.907-15.646,10.146c-3.628,5.237-5.016,11.434-4.169,18.587
		l-32.534,7.308c-1.789-16.353,1.639-30.259,10.261-41.698c8.645-11.446,20.93-18.962,36.88-22.545
		c15.95-3.582,29.921-2.16,41.918,4.281c11.995,6.441,19.729,17.448,23.233,33.05c2.415,10.752,1.476,20.375-2.822,28.868
		c-2.445,5.077-4.365,8.702-5.757,10.897c-1.393,2.199-3.242,5.015-5.571,8.458c-2.351,3.445-4.304,6.424-5.918,8.948
		c-1.593,2.53-2.864,4.644-3.791,6.355c-2.331,4.672-2.7,10.592-1.09,17.759l2.717,12.1L559.92,490.459z M558.668,553.44
		c-5.645,1.268-10.957,0.44-15.938-2.499c-4.999-2.923-8.099-7.108-9.327-12.579c-1.229-5.472-0.273-10.626,2.865-15.479
		c3.162-4.847,7.555-7.901,13.2-9.17c5.644-1.268,10.955-0.439,15.957,2.484c4.98,2.937,8.081,7.125,9.311,12.595
		c1.229,5.47,0.272,10.625-2.869,15.468C568.728,549.112,564.313,552.171,558.668,553.44z"/>
	<polygon fill="#DC8744" points="523.994,564.901 414.586,453.433 414.592,609.623 446.403,581.997 470.71,641.461 506.247,626.934 
		481.94,567.469 	"/>
	<polygon fill="#FFFFFF" points="530.995,554.043 421.588,442.574 421.594,598.766 453.405,571.138 477.712,630.604 
		513.251,616.076 488.942,556.612 	"/>
</g>
</svg>
