<?xml version="1.0" encoding="UTF-8"?>
<!DOCTYPE svg PUBLIC "-//W3C//DTD SVG 1.1//EN" "http://www.w3.org/Graphics/SVG/1.1/DTD/svg11.dtd">
<!-- Creator: CorelDRAW X7 -->
<svg xmlns="http://www.w3.org/2000/svg" xml:space="preserve" width="124.394mm" height="28.8481mm" version="1.1" style="shape-rendering:geometricPrecision; text-rendering:geometricPrecision; image-rendering:optimizeQuality; fill-rule:evenodd; clip-rule:evenodd"
viewBox="0 0 6094027 1413259"
 xmlns:xlink="http://www.w3.org/1999/xlink">
 <defs>
  <style type="text/css">
   <![CDATA[
    .fil2 {fill:none;fill-rule:nonzero}
    .fil3 {fill:#FEFEFE;fill-rule:nonzero}
    .fil0 {fill:#00A852;fill-rule:nonzero}
    .fil1 {fill:#131313;fill-rule:nonzero}
   ]]>
  </style>
 </defs>
 <g id="Layer_x0020_1">
  <metadata id="CorelCorpID_0Corel-Layer"/>
  <g id="_1530766352">
   <path class="fil0" d="M1946492 721691c0,33808 -8304,62947 -25592,87374 -20360,27586 -46986,41616 -79951,41616 -33401,0 -60052,-14030 -80387,-41616 -17274,-24427 -26141,-53566 -26141,-87374l0 -137861 -59033 0 0 144666c0,50435 16715,92547 49637,126859 31882,33827 70505,50998 115924,50998 46026,0 84634,-17675 116527,-53036 31897,-34846 48049,-76483 48049,-124821l0 -144666 -59033 0 0 137861z"/>
   <polygon class="fil0" points="1870744,478213 1813333,478213 1813333,535967 1870744,535967 "/>
   <path class="fil0" d="M2167000 583305c-65798,0 -112295,47883 -112295,118105 0,69198 44958,118565 112295,118565 26694,0 45472,-8814 55397,-26465 -1029,40544 -19351,64966 -55863,66029l0 46314c75714,0 113343,-31201 113343,-93168l0 -109708c0,-68683 -43875,-119672 -112877,-119672zm0 184197l0 0c-31863,0 -53801,-29688 -53801,-66092 0,-35366 20404,-65014 51219,-65014 33416,0 55363,27037 55363,67610 0,34337 -21399,63496 -52781,63496z"/>
   <polygon class="fil0" points="2868164,478213 2811243,478213 2811243,535967 2868164,535967 "/>
   <polygon class="fil0" points="2918335,396057 2860889,396057 2860889,454316 2918335,454316 "/>
   <polygon class="fil0" points="2909997,535967 2966928,535967 2966928,478213 2909997,478213 "/>
   <path class="fil0" d="M3008716 703462c0,38016 -14629,57220 -44390,57220l-56980 0c7873,-8294 12057,-29638 12057,-63446l0 -113406 -59057 0 0 119147c0,38501 -14624,57705 -44380,57705l-54339 0 0 -3091c6236,-9852 9371,-29702 9371,-60355l0 -113406 -59018 0 0 115449c0,41151 -14599,61403 -44419,61403l-31862 0 -10940 0 -85237 0 -19282 0 -70536 0 0 -176852 -58557 0 0 198736c0,49896 -23990,73886 -72613,73886l0 49901c71065,0 118629,-30716 127486,-86378l74220 0 19282 0 85237 0 10940 0 330744 0c59498,0 101349,-48882 101349,-123788l0 -112357 -59076 0 0 119632z"/>
   <path class="fil0" d="M3349944 706093c0,18748 -1539,31202 -4155,37472 -5785,11415 -17739,17117 -37129,17117l-29820 0 -19807 0 -14647 0c-21948,0 -37095,-3091 -44968,-8803 -10910,-7829 -16681,-24431 -16681,-49950l0 -217446 -58009 0 0 240843c0,28630 6815,51023 20924,67631 15167,18204 36546,27018 64774,27018l48607 0 19807 0 41847 0c58562,0 87775,-31182 87775,-94149l0 -141996 -58518 0 0 122263z"/>
   <polygon class="fil0" points="3407394,478213 3350512,478213 3350512,535967 3407394,535967 "/>
   <polygon class="fil0" points="4732996,478213 4675555,478213 4675555,535967 4732996,535967 "/>
   <path class="fil0" d="M5218910 706093c0,18748 -1534,31202 -4165,37472 -5761,11415 -17783,17117 -37114,17117l-31427 0 -18180 0 -34058 0 0 -15020c0,-34846 -10964,-63540 -32367,-86927 -21418,-23388 -49656,-34847 -84669,-34847 -34930,0 -63172,11459 -85120,33823 -21418,22359 -32382,50974 -32382,85854 0,5708 0,11415 539,17117l-39201 0 -17215 0 -83107 0c8392,-9881 12552,-29638 12552,-60330l0 -116522 -58024 0 0 119632c0,18229 -2092,31746 -6231,39520 -6305,11998 -17783,17700 -35033,17700l-41861 0 -12414 0 -89475 0 -13497 0 -33019 0c0,-131081 -66832,-228899 -180208,-251763l-7319 55702c75728,15549 129543,92546 129543,179963 0,5213 0,10396 -505,16098l-68957 0c8862,-21291 13560,-39539 13560,-54040 0,-62457 -41793,-100958 -102913,-100958 -61105,0 -103441,38501 -103441,100958 0,15049 4742,32749 13643,54040l-60664 0 -11449 0 -81592 0 -22374 0 -65900 0c2067,-10885 3091,-21291 3091,-32186l0 -244013 -58959 0 0 237208c0,73343 -43915,128990 -105553,128990 -63736,0 -106573,-57171 -106573,-128990l0 -44208 -59052 0 0 51013c0,97769 74700,177857 165625,177857 57464,0 111250,-32220 141021,-86378l86300 0 22374 0 81592 0 11449 0 400280 0 13497 0 89475 0 12414 0 211704 0 17215 0 62706 0c22482,30202 53311,45271 93458,45271 40867,0 72113,-15069 94638,-45271l56456 0 18180 0 43469 0c58483,0 87740,-31182 87740,-94149l0 -241343 -58503 0 0 221610zm-992267 56196l0 0c-28193,0 -48044,-23946 -48044,-55647 0,-31265 17259,-54663 48044,-54663 28738,0 48040,21840 48040,54663 0,31172 -20356,55647 -48040,55647zm793643 29095l0 0c-9911,13022 -23990,19777 -41734,19777 -36067,0 -59087,-30662 -59087,-68179 0,-18141 4737,-33783 13624,-45746 10464,-14046 24573,-20821 42337,-20821 18219,0 33450,7275 44419,21374 9362,13027 14084,29095 14084,47344 0,18685 -4722,34298 -13643,46251z"/>
   <polygon class="fil0" points="5331223,819975 5389252,819975 5389252,483930 5331223,483930 "/>
   <path class="fil0" d="M5625867 782566c0,49896 -23951,73886 -72539,73886l0 49901c89803,0 131106,-39020 131106,-132654l0 -189869 -58567 0 0 198736z"/>
   <polygon class="fil0" points="5738225,819975 5796214,819975 5796214,483930 5738225,483930 "/>
   <path class="fil0" d="M5987940 592138c-13566,-4659 -23971,-6770 -31310,-7245 -7348,-500 -25611,-1063 -54329,-1063l0 53060c18783,0 36531,1058 52772,4679 52776,11459 79402,50978 79402,119113l-189090 0 0 59293 248059 0 0 -59293c-485,-88926 -35464,-145107 -105504,-168544z"/>
   <path class="fil1" d="M1789764 1128394c17117,0 33010,2812 47746,8509 14746,5629 27493,14139 38231,25431 10768,11336 19180,25489 25264,42454 6055,16946 9098,36914 9098,59802 0,20096 -2469,38643 -7412,55638 -4968,16975 -12463,31588 -22487,43919 -10013,12399 -22550,22129 -37506,29222 -14986,7050 -32593,10572 -52934,10572l-114376 0 0 -275547 114376 0zm-4051 224627l0 0c8407,0 16593,-1469 24529,-4262 7892,-2792 14957,-7515 21139,-14099 6183,-6520 11111,-15138 14854,-25636 3718,-10553 5555,-23437 5555,-38594 0,-13899 -1327,-26479 -3899,-37639 -2558,-11199 -6815,-20781 -12782,-28737 -5947,-8000 -13795,-14109 -23603,-18381 -9773,-4164 -21864,-6335 -36218,-6335l-41563 0 0 173683 51988 0z"/>
   <path class="fil1" d="M1942784 1265776c715,-12865 3796,-23545 9298,-32010 5413,-8519 12404,-15329 20781,-20448 8422,-5125 17901,-8828 28434,-11038 10538,-2204 21041,-3253 31750,-3253 9646,0 19390,725 29301,2087 9910,1450 18944,4184 27130,8299 8133,4115 14874,9852 20047,17176 5217,7368 7824,17043 7824,29144l0 103794c0,9005 480,17646 1494,25906 970,8216 2704,14383 5139,18508l-53492 0c-950,-3101 -1764,-6270 -2366,-9499 -613,-3169 -1058,-6447 -1298,-9798 -8471,9005 -18347,15290 -29713,18886 -11395,3615 -23025,5408 -34900,5408 -9151,0 -17729,-1146 -25641,-3439 -7936,-2327 -14869,-5928 -20801,-10822 -5918,-4928 -10577,-11071 -13899,-18503 -3350,-7481 -5055,-16358 -5055,-26646 0,-11341 1945,-20619 5815,-28022 3806,-7270 8735,-13173 14844,-17553 6055,-4384 12953,-7598 20781,-9763 7829,-2215 15647,-3944 23569,-5252 7946,-1328 15711,-2347 23417,-3062 7657,-774 14472,-1969 20448,-3478 5879,-1592 10587,-3841 14090,-6815 3478,-2895 5070,-7196 4776,-12903 0,-5899 -911,-10631 -2743,-14070 -1852,-3493 -4370,-6183 -7451,-8133 -3097,-1900 -6663,-3194 -10778,-3835 -4047,-608 -8426,-966 -13129,-966 -10411,0 -18572,2327 -24574,6913 -5913,4693 -9396,12380 -10410,23187l-52688 0zm121773 40539l0 0c-2209,2018 -4992,3713 -8313,4830 -3351,1122 -6952,2131 -10788,2895 -3811,740 -7863,1362 -12056,1931 -4199,480 -8417,1165 -12620,1920 -3968,769 -7838,1773 -11708,3081 -3827,1264 -7187,3028 -10034,5247 -2831,2170 -5134,4894 -6863,8279 -1744,3312 -2587,7599 -2587,12679 0,4914 843,9019 2587,12350 1729,3376 4086,6031 7079,7971 2959,1920 6388,3282 10366,4032 3973,754 8069,1136 12262,1136 10425,0 18469,-1763 24167,-5379 5663,-3659 9867,-7921 12595,-12918 2724,-5046 4409,-10127 5002,-15251 661,-5193 911,-9332 911,-12380l0 -20423z"/>
   <path class="fil1" d="M2208308 1204411l0 37051 739 0c2440,-6182 5806,-11850 10009,-17166 4208,-5276 9009,-9778 14467,-13531 5482,-3703 11267,-6594 17469,-8666 6178,-2087 12601,-3072 19346,-3072 3415,0 7246,618 11459,1926l0 50919c-2430,-485 -5467,-970 -8862,-1366 -3508,-353 -6859,-544 -10067,-544 -9637,0 -17784,1621 -24530,5007 -6643,3370 -12056,7921 -16142,13741 -4056,5771 -6946,12542 -8705,20228 -1739,7706 -2597,16078 -2597,25102l0 89901 -52727 0 0 -199530 50141 0z"/>
   <path class="fil1" d="M2543627 1128394l99136 275547 -60561 0 -20012 -61389 -99131 0 -20806 61389 -58695 0 100248 -275547 59821 0zm3332 169054l0 0 -33431 -101115 -725 0 -34577 101115 68733 0z"/>
   <polygon class="fil1" points="2714420,1128394 2714420,1403941 2661692,1403941 2661692,1128394 "/>
   <polygon class="fil1" points="2946930,1128394 3008936,1317891 3009656,1317891 3068326,1128394 3150394,1128394 3150394,1403941 3095795,1403941 3095795,1208629 3095075,1208629 3030114,1403941 2985181,1403941 2920147,1210559 2919403,1210559 2919403,1403941 2864804,1403941 2864804,1128394 "/>
   <path class="fil1" d="M3193828 1265776c725,-12865 3831,-23545 9279,-32010 5428,-8519 12399,-15329 20816,-20448 8367,-5125 17881,-8828 28379,-11038 10562,-2204 21090,-3253 31785,-3253 9665,0 19405,725 29330,2087 9886,1450 18890,4184 27106,8299 8157,4115 14854,9852 20042,17176 5217,7368 7789,17043 7789,29144l0 103794c0,9005 529,17646 1533,25906 985,8216 2685,14383 5159,18508l-53463 0c-965,-3101 -1807,-6270 -2380,-9499 -681,-3169 -1122,-6447 -1343,-9798 -8441,9005 -18346,15290 -29717,18886 -11366,3615 -23010,5408 -34925,5408 -9117,0 -17700,-1146 -25621,-3439 -7907,-2327 -14844,-5928 -20791,-10822 -5918,-4928 -10563,-11071 -13860,-18503 -3385,-7481 -5070,-16358 -5070,-26646 0,-11341 1955,-20619 5790,-28022 3782,-7270 8740,-13173 14815,-17553 6099,-4384 13036,-7598 20767,-9763 7863,-2215 15696,-3944 23613,-5252 7951,-1328 15730,-2347 23387,-3062 7677,-774 14467,-1969 20468,-3478 5913,-1592 10602,-3841 14119,-6815 3429,-2895 5080,-7196 4801,-12903 0,-5899 -950,-10631 -2778,-14070 -1842,-3493 -4379,-6183 -7451,-8133 -3116,-1900 -6672,-3194 -10714,-3835 -4120,-608 -8519,-966 -13222,-966 -10391,0 -18543,2327 -24510,6913 -5947,4693 -9440,12380 -10405,23187l-52728 0zm121808 40539l0 0c-2219,2018 -5036,3713 -8362,4830 -3337,1122 -6957,2131 -10768,2895 -3822,740 -7844,1362 -12062,1931 -4218,480 -8436,1165 -12629,1920 -3959,769 -7819,1773 -11719,3081 -3816,1264 -7157,3028 -10013,5247 -2866,2170 -5139,4894 -6888,8279 -1710,3312 -2572,7599 -2572,12679 0,4914 862,9019 2572,12350 1749,3376 4076,6031 7079,7971 2944,1920 6447,3282 10396,4032 3963,754 8063,1136 12237,1136 10411,0 18455,-1763 24182,-5379 5668,-3659 9861,-7921 12600,-12918 2724,-5046 4414,-10127 4997,-15251 646,-5193 950,-9332 950,-12380l0 -20423z"/>
   <path class="fil1" d="M3459342 1204411l0 27787 1117 0c6673,-11571 15354,-19948 25960,-25264 10650,-5300 21560,-7907 32686,-7907 14109,0 25715,1989 34739,5997 9048,3973 16146,9494 21349,16568 5208,7094 8877,15691 10944,25832 2073,10200 3141,21448 3141,33828l0 122689 -52684 0 0 -112671c0,-16495 -2493,-28777 -7471,-36821 -4928,-8142 -13727,-12218 -26346,-12218 -14369,0 -24794,4434 -31182,13340 -6452,8897 -9646,23505 -9646,43758l0 104612 -52762 0 0 -199530 50155 0z"/>
   <path class="fil1" d="M3682123 1128394l0 103804 1127 0c6711,-11571 15250,-19948 25621,-25264 10411,-5300 20512,-7907 30457,-7907 14129,0 25676,1989 34758,5997 8985,3973 16142,9494 21321,16568 5202,7094 8867,15691 10954,25832 2087,10200 3125,21448 3125,33828l0 122689 -52654 0 0 -112671c0,-16495 -2488,-28777 -7471,-36821 -4943,-8142 -13766,-12218 -26390,-12218 -14350,0 -24775,4434 -31163,13340 -6466,8897 -9685,23505 -9685,43758l0 104612 -52684 0 0 -275547 52684 0z"/>
   <path class="fil1" d="M3847390 1265776c759,-12865 3840,-23545 9322,-32010 5384,-8519 12356,-15329 20777,-20448 8392,-5125 17886,-8828 28429,-11038 10474,-2204 21099,-3253 31720,-3253 9656,0 19440,725 29321,2087 9950,1450 18944,4184 27135,8299 8152,4115 14844,9852 20008,17176 5217,7368 7848,17043 7848,29144l0 103794c0,9005 450,17646 1489,25906 985,8216 2694,14383 5168,18508l-53487 0c-984,-3101 -1793,-6270 -2395,-9499 -613,-3169 -1063,-6447 -1303,-9798 -8461,9005 -18303,15290 -29717,18886 -11337,3615 -23001,5408 -34842,5408 -9205,0 -17783,-1146 -25675,-3439 -7937,-2327 -14888,-5928 -20801,-10822 -5928,-4928 -10553,-11071 -13938,-18503 -3317,-7481 -5007,-16358 -5007,-26646 0,-11341 1906,-20619 5766,-28022 3836,-7270 8799,-13173 14864,-17553 6035,-4384 13002,-7598 20762,-9763 7848,-2215 15696,-3944 23632,-5252 7907,-1328 15697,-2347 23363,-3062 7677,-774 14467,-1969 20414,-3478 5948,-1592 10651,-3841 14110,-6815 3473,-2895 5104,-7196 4820,-12903 0,-5899 -926,-10631 -2734,-14070 -1871,-3493 -4399,-6183 -7451,-8133 -3091,-1900 -6658,-3194 -10778,-3835 -4076,-608 -8455,-966 -13148,-966 -10411,0 -18617,2327 -24549,6913 -5903,4693 -9421,12380 -10406,23187l-52717 0zm121783 40539l0 0c-2214,2018 -4982,3713 -8338,4830 -3336,1122 -6893,2131 -10753,2895 -3880,740 -7892,1362 -12076,1931 -4218,480 -8392,1165 -12639,1920 -3939,769 -7829,1773 -11689,3081 -3797,1264 -7158,3028 -9989,5247 -2847,2170 -5159,4894 -6898,8279 -1739,3312 -2587,7599 -2587,12679 0,4914 848,9019 2587,12350 1739,3376 4100,6031 7079,7971 2993,1920 6413,3282 10371,4032 3958,754 8054,1136 12252,1136 10415,0 18450,-1763 24152,-5379 5707,-3659 9891,-7921 12595,-12918 2744,-5046 4410,-10127 5007,-15251 637,-5193 926,-9332 926,-12380l0 -20423z"/>
   <polygon class="fil1" points="4117014,1128394 4117014,1403941 4064252,1403941 4064252,1128394 "/>
   <path class="fil1" d="M4386942 1128394c16603,0 30697,2518 42318,7505 11689,5036 21080,11694 28433,19890 7310,8240 12596,17646 15971,28164 3331,10572 4982,21497 4982,32804 0,11071 -1651,21927 -4982,32627 -3375,10694 -8661,20135 -15971,28345 -7353,8255 -16744,14893 -28433,19880 -11621,5017 -25715,7525 -42318,7525l-61261 0 0 98807 -58313 0 0 -275547 119574 0zm-15970 129666l0 0c6692,0 13139,-524 19346,-1529 6168,-1004 11610,-3032 16333,-6025 4703,-2954 8480,-7109 11292,-12503 2895,-5418 4287,-12487 4287,-21246 0,-8691 -1392,-15804 -4287,-21188 -2812,-5419 -6589,-9602 -11292,-12596 -4723,-2929 -10165,-4913 -16333,-5947 -6207,-1029 -12654,-1582 -19346,-1582l-45291 0 0 82616 45291 0z"/>
   <path class="fil1" d="M4639465 1403941l0 -27767 -1117 0c-6692,11571 -15373,19919 -25989,25088 -10670,5124 -21580,7676 -32667,7676 -14128,0 -25700,-1954 -34724,-5766 -9053,-3836 -16152,-9362 -21374,-16431 -5203,-7040 -8823,-15677 -10954,-25852 -2106,-10160 -3135,-21408 -3135,-33754l0 -122724 52727 0 0 112725c0,16466 2455,28728 7437,36846 4958,8078 13722,12139 26342,12139 14359,0 24798,-4443 31221,-13320 6413,-8862 9646,-23407 9646,-43777l0 -104613 52727 0 0 199530 -50140 0z"/>
   <path class="fil1" d="M4782490 1128394l0 100365 725 0c6467,-10322 15167,-17881 26156,-22574 11071,-4787 22530,-7158 34361,-7158 9670,0 19170,2053 28595,6153 9426,4115 17877,10430 25475,18920 7490,8485 13643,19332 18366,32573 4659,13286 7015,29041 7015,47280 0,18283 -2356,34073 -7015,47295 -4723,13242 -10876,24152 -18366,32637 -7598,8500 -16049,14805 -25475,18890 -9425,4140 -18925,6163 -28595,6163 -14090,0 -26748,-2307 -37889,-6932 -11120,-4624 -19556,-12541 -25264,-23525l-725 0 0 25460 -50092 0 0 -275547 52728 0zm85394 151667l0 0c-1744,-7691 -4478,-14520 -8162,-20448 -3752,-5933 -8372,-10606 -13903,-14129 -5624,-3429 -12350,-5149 -20267,-5149 -7716,0 -14388,1720 -20096,5149 -5687,3523 -10410,8196 -14128,14129 -3635,5928 -6428,12757 -8113,20448 -1729,7696 -2636,15814 -2636,24294 0,8216 907,16186 2636,23946 1685,7721 4478,14545 8113,20458 3718,5913 8441,10607 14128,14065 5708,3493 12380,5188 20096,5188 7917,0 14643,-1695 20267,-5188 5531,-3458 10151,-8152 13903,-14065 3684,-5913 6418,-12737 8162,-20458 1749,-7760 2591,-15730 2591,-23946 0,-8480 -842,-16598 -2591,-24294z"/>
   <polygon class="fil1" points="5010846,1128394 5010846,1403941 4958142,1403941 4958142,1128394 "/>
   <path class="fil1" d="M5053903 1173504l0 -45110 52781 0 0 45110 -52781 0zm52781 30907l0 0 0 199530 -52781 0 0 -199530 52781 0z"/>
   <path class="fil1" d="M5192627 1354369c2332,4232 5339,7691 9117,10361 3703,2768 7975,4737 12786,6050 4835,1254 9817,1886 15050,1886 3688,0 7588,-401 11669,-1322 4095,-887 7794,-2357 11155,-4258 3351,-1935 6143,-4507 8357,-7720 2229,-3209 3351,-7275 3351,-12189 0,-8181 -5256,-14369 -15794,-18464 -10543,-4184 -25215,-8240 -44002,-12419 -7711,-1754 -15226,-3905 -22438,-6266 -7319,-2493 -13849,-5717 -19493,-9734 -5751,-3939 -10346,-9000 -13756,-15011 -3488,-6045 -5232,-13437 -5232,-22197 0,-12884 2405,-23436 7236,-31632 4864,-8231 11204,-14741 19125,-19484 7981,-4761 16877,-8112 26768,-10082 9906,-1940 20027,-2861 30418,-2861 10410,0 20497,985 30261,3072 9783,2072 18542,5531 26219,10464 7652,4875 14026,11341 19106,19459 5110,8093 8118,18327 9083,30658l-50092 0c-760,-10523 -4600,-17681 -11552,-21414 -6908,-3718 -15113,-5590 -24475,-5590 -2993,0 -6227,177 -9666,564 -3478,402 -6613,1244 -9425,2488 -2930,1338 -5257,3200 -7310,5654 -1969,2430 -2973,5717 -2973,9817 0,4909 1729,8887 5241,11959 3395,3111 7981,5599 13507,7500 5599,1925 11953,3709 19145,5213 7177,1577 14496,3262 21884,5036 7711,1807 15167,3978 22545,6579 7211,2572 13746,5996 19385,10205 5751,4267 10376,9533 13786,15804 3478,6324 5163,14119 5163,23378 0,13148 -2528,24117 -7515,33004 -5144,8877 -11757,16029 -19890,21404 -8220,5413 -17582,9195 -28071,11380 -10483,2185 -21232,3277 -32107,3277 -11151,0 -22002,-1146 -32667,-3439 -10616,-2327 -20139,-6163 -28433,-11610 -8324,-5409 -15094,-12542 -20370,-21428 -5414,-8833 -8245,-20008 -8828,-33343l50150 0c0,5952 1162,11003 3582,15251z"/>
   <path class="fil1" d="M5400362 1128394l0 103804 1127 0c6712,-11571 15231,-19948 25622,-25264 10381,-5300 20492,-7907 30471,-7907 14129,0 25666,1989 34705,5997 9068,3973 16161,9494 21335,16568 5188,7094 8828,15691 10929,25832 2117,10200 3185,21448 3185,33828l0 122689 -52728 0 0 -112671c0,-16495 -2489,-28777 -7437,-36821 -4918,-8142 -13722,-12218 -26381,-12218 -14383,0 -24749,4434 -31162,13340 -6432,8897 -9666,23505 -9666,43758l0 104612 -52703 0 0 -275547 52703 0z"/>
   <path class="fil1" d="M5624299 1356069c7922,8000 19307,11943 34161,11943 10621,0 19787,-2733 27429,-8289 7667,-5482 12409,-11365 14138,-17558l46433 0c-7452,23956 -18847,41073 -34156,51322 -15329,10293 -33935,15451 -55691,15451 -15114,0 -28772,-2454 -40897,-7495 -12071,-5027 -22359,-12140 -30819,-21418 -8363,-9245 -14888,-20370 -19449,-33220 -4659,-12880 -6888,-26979 -6888,-42450 0,-14868 2347,-28816 7084,-41675 4683,-12850 11331,-23996 19978,-33348 8695,-9406 19008,-16769 31040,-22231 11958,-5374 25322,-8074 39951,-8074 16250,0 30535,3253 42689,9808 12140,6594 22085,15427 29879,26445 7799,11125 13428,23667 16902,37859 3473,14133 4639,28923 3718,44355l-138528 0c725,17759 5046,30619 13026,38575zm59557 -104961l0 0c-6276,-7211 -15892,-10773 -28733,-10773 -8401,0 -15431,1465 -20997,4424 -5624,2940 -10033,6628 -13383,10974 -3356,4379 -5688,8999 -7075,13903 -1327,4899 -2106,9235 -2395,13105l85800 0c-2488,-13869 -6888,-24402 -13217,-31633z"/>
   <path class="fil1" d="M5831075 1204411l0 37051 720 0c2518,-6182 5874,-11850 10111,-17166 4155,-5276 9019,-9778 14423,-13531 5492,-3703 11248,-6594 17504,-8666 6143,-2087 12595,-3072 19307,-3072 3419,0 7299,618 11439,1926l0 50919c-2459,-485 -5369,-970 -8862,-1366 -3474,-353 -6854,-544 -10068,-544 -9631,0 -17763,1621 -24475,5007 -6672,3370 -12056,7921 -16162,13741 -4110,5771 -6946,12542 -8715,20228 -1710,7706 -2616,16078 -2616,25102l0 89901 -52742 0 0 -199530 50136 0z"/>
   <path class="fil1" d="M5969818 1354369c2308,4232 5340,7691 9117,10361 3655,2768 7917,4737 12743,6050 4904,1254 9866,1886 15044,1886 3763,0 7618,-401 11733,-1322 4106,-887 7800,-2357 11121,-4258 3287,-1935 6143,-4507 8377,-7720 2229,-3209 3356,-7275 3356,-12189 0,-8181 -5266,-14369 -15775,-18464 -10552,-4184 -25215,-8240 -44027,-12419 -7676,-1754 -15147,-3905 -22520,-6266 -7319,-2493 -13742,-5717 -19449,-9734 -5688,-3939 -10307,-9000 -13722,-15011 -3473,-6045 -5232,-13437 -5232,-22197 0,-12884 2454,-23436 7255,-31632 4821,-8231 11234,-14741 19150,-19484 7858,-4761 16838,-8112 26724,-10082 9862,-1940 20027,-2861 30437,-2861 10376,0 20478,985 30227,3072 9798,2072 18562,5531 26200,10464 7711,4875 14084,11341 19125,19459 5081,8093 8098,18327 9103,30658l-50127 0c-725,-10523 -4624,-17681 -11493,-21414 -6917,-3718 -15113,-5590 -24553,-5590 -2940,0 -6114,177 -9602,564 -3488,402 -6643,1244 -9504,2488 -2847,1338 -5286,3200 -7261,5654 -1925,2430 -2954,5717 -2954,9817 0,4909 1744,8887 5203,11959 3444,3111 7981,5599 13526,7500 5663,1925 11998,3709 19189,5213 7177,1577 14443,3262 21874,5036 7682,1807 15177,3978 22467,6579 7295,2572 13825,5996 19493,10205 5707,4267 10268,9533 13742,15804 3493,6324 5222,14119 5222,23378 0,13148 -2592,24117 -7613,33004 -5080,8877 -11718,16029 -19851,21404 -8196,5413 -17523,9195 -28076,11380 -10542,2185 -21212,3277 -32088,3277 -11126,0 -22036,-1146 -32686,-3439 -10670,-2327 -20174,-6163 -28448,-11610 -8304,-5409 -15069,-12542 -20399,-21428 -5340,-8833 -8275,-20008 -8696,-33343l50126 0c0,5952 1191,11003 3522,15251z"/>
  </g>
  <path class="fil2" d="M661361 4532c-692239,225862 -656717,857348 -656717,857348l0 547058 1313453 0 0 -547058c0,0 2768,-49264 -8324,-125154 -31235,11317 -64911,17504 -100007,17504 -162318,0 -294360,-132037 -294360,-294320 0,-99356 49500,-187361 125130,-240681 -92409,-85110 -215403,-161260 -379175,-214697z"/>
  <path class="fil0" d="M661361 30251c143392,47765 263623,115890 359995,203709 6183,-5164 12586,-10077 19180,-14731 -92409,-85110 -215403,-161260 -379175,-214697l0 0c-692239,225862 -656717,857348 -656717,857348l0 547058 1313453 0 0 -547058c0,0 2768,-49264 -8324,-125154 -7769,2817 -15696,5306 -23750,7466 9886,69948 7716,115498 7677,116326l-54 667 0 695 0 522627 -1264580 0 0 -522627 0 -695 -20 -667c-98,-1533 -7701,-154351 66930,-333198 99267,-237938 289470,-405140 565385,-497069z"/>
  <path class="fil0" d="M662713 26165c71926,23961 138058,53027 198281,87104 59218,33504 112754,71868 160500,114989 2175,-1769 4399,-3523 6657,-5262 1842,-1411 3694,-2802 5556,-4169 -45110,-41043 -97451,-79936 -158159,-115096 -62158,-35998 -133139,-68120 -214163,-94653 -687712,225196 -652508,850813 -652435,852616l15 186 0 542737 1304811 0 0 -542737 14 -289c5,-127 2607,-46569 -7549,-119050 -2322,799 -4634,1558 -6927,2278 -2802,877 -5644,1725 -8500,2533 9044,66078 7349,109767 7202,113161l5 0 0 5 -15 338 -39 485 0 539 0 522627 0 4321 -4321 0 -1264580 0 -4321 0 0 -4321 0 -522627 0 -695 9 0 -9 -412 -5 0c-64,-1019 -3474,-69448 16318,-167990 9970,-49642 25823,-106945 50935,-167119 49886,-119584 122641,-221404 217573,-304868 94868,-83404 211910,-148473 350443,-194631l1352 -445 1352 445zm194028 94599c-59385,-33602 -124541,-62285 -195375,-85972 -136780,45742 -252376,110090 -346098,192491 -93947,82596 -165943,183353 -215309,301693 -24902,59674 -40608,116399 -50465,165492 -19561,97391 -16201,164791 -16142,165796l0 137 20 666 14 118 0 695 0 518306 1255939 0 0 -518306 0 -695 15 -338 54 -667 5 0c122,-2777 1954,-47431 -7648,-115395l-529 -3767 3689 -995c3963,-1063 7917,-2214 11836,-3444 3958,-1244 7829,-2552 11557,-3904l4977 -1803 764 5232c10714,73338 8559,122004 8373,125815l0 547019 0 4321 -4321 0 -1313453 0 -4321 0 0 -4321 0 -547058 5 0c-436,-8499 -31970,-635778 659700,-861449l1338 -431 1327 431c82175,26812 154151,59341 217176,95844 63065,36526 117174,77031 163587,119779l3934 3621 -4375 3081c-3278,2307 -6496,4683 -9632,7089 -3096,2376 -6192,4855 -9259,7422l-2890 2420 -2783 -2538c-47990,-43728 -101933,-82562 -161710,-116385z"/>
  <path class="fil1" d="M661380 180076c109556,41921 201642,98381 275739,168936 -13982,34249 -21713,71687 -21713,110898 0,139591 97696,256804 228327,286849 9881,59768 9215,100758 9068,106362l-211 2895 0 5864 0 325057 -982400 0 0 -325057 0 -4664 -250 -4639c-63,-1200 -4051,-126398 56260,-270927 77541,-185794 223780,-320711 435180,-401574z"/>
  <path class="fil1" d="M295849 1162030l0 69796 19978 -2131c16166,-1754 32406,-2592 48245,-2592 121543,0 241460,50033 279726,79898l7500 5844 10846 8475 10842 -8475 7544 -5844c38193,-29865 158110,-79898 279648,-79898 15853,0 32088,838 48230,2592l18489 2131 0 -69796 -731048 0z"/>
  <path class="fil3" d="M964406 963358c-8034,0 -14535,6402 -14535,14383 0,8000 6501,14467 14535,14467l76424 0c7936,0 14417,-6467 14417,-14467 0,-7981 -6481,-14383 -14417,-14383l-76424 0z"/>
  <path class="fil3" d="M1055443 1060220c0,-7961 -6447,-14403 -14417,-14403l-94007 0c-7995,0 -14510,6442 -14510,14403 0,7971 6515,14476 14510,14476l94007 0c7970,0 14417,-6505 14417,-14476z"/>
  <path class="fil3" d="M1041026 1087056l-76620 0c-8034,0 -14535,6492 -14535,14389 0,8112 6383,14501 14535,14501l76620 0c7970,0 14417,-6506 14417,-14501 0,-7897 -6447,-14389 -14417,-14389z"/>
  <path class="fil3" d="M1055365 1019098c0,-8000 -6447,-14589 -14437,-14589l-104285 0c-8068,0 -14589,6589 -14589,14589 0,7951 6521,14408 14589,14408l104285 0c7990,0 14437,-6457 14437,-14408z"/>
  <path class="fil3" d="M264569 977741c0,8000 6466,14467 14403,14467l76458 0c8010,0 14535,-6467 14535,-14467 0,-7981 -6525,-14383 -14535,-14383l-76458 0c-7937,0 -14403,6402 -14403,14383z"/>
  <path class="fil3" d="M264471 1019098c0,7951 6466,14408 14403,14408l104328 0c8034,0 14599,-6457 14599,-14408 0,-8000 -6565,-14589 -14599,-14589l-104328 0c-7937,0 -14403,6589 -14403,14589z"/>
  <path class="fil3" d="M264427 1060220c0,7971 6412,14476 14383,14476l94006 0c8035,0 14555,-6505 14555,-14476 0,-7961 -6520,-14403 -14555,-14403l-94006 0c-7971,0 -14383,6442 -14383,14403z"/>
  <path class="fil3" d="M264427 1101445c0,7995 6412,14501 14383,14501l76620 0c8132,0 14535,-6389 14535,-14501 0,-7897 -6525,-14389 -14535,-14389l-76620 0c-7971,0 -14383,6492 -14383,14389z"/>
  <path class="fil3" d="M790630 502521l-456 7368c-54,809 -3767,68385 22633,94947 2984,-11081 9921,-27674 25715,-39431 -18312,-81279 -90724,-141987 -177509,-141987 -86903,0 -159329,61031 -177455,142457 5888,2709 22765,12365 26596,37614 11160,-7559 29546,-29026 22026,-86290l-2200 -17201 13507 10925c852,657 79118,62232 191324,24010 -9088,-5021 -20586,-12267 -29252,-20370l-12869 -12042 97940 0z"/>
  <path class="fil3" d="M857760 551359c270,-4081 618,-8142 618,-12311 0,-108076 -87619,-195660 -195680,-195660 -108071,0 -195689,87584 -195689,195660 0,4169 392,8230 588,12311 26464,-82523 103775,-146577 195101,-146577 91351,0 168691,64054 195062,146577z"/>
  <path class="fil3" d="M880599 628273c0,-28399 -12477,-51415 -27841,-51415 -4027,0 -7911,1720 -11404,4679 0,-108 -25,-206 -25,-348 -15069,15211 -16823,36243 -16823,36492l-784 10886 -9543 -5355c-36091,-20139 -38388,-84664 -38124,-106797l-45227 0c12120,7838 23863,13149 24005,13193l14677 6716 -14917 6065c-100189,40916 -177749,5487 -207153,-12130 5012,78531 -39824,90127 -41881,90661l-8515 2043 0 -8784c0,-20929 -10307,-30271 -16142,-33989 0,196 -78,338 -78,411 -3204,-2327 -6584,-3743 -10234,-3743 -15329,0 -27763,23016 -27763,51415 0,28252 12434,51248 27763,51248 7285,0 13825,-5271 18802,-13678 24867,70962 92189,121867 171621,121867 79877,0 147650,-51498 172208,-123101 4987,9229 11944,14912 19537,14912 15364,0 27841,-22996 27841,-51248zm-248789 21502l0 0c4370,-12929 16137,-21502 29203,-21502 13046,0 24745,8549 29207,21330 1176,3527 -651,7339 -4144,8578 -3542,1230 -7407,-588 -8627,-4179 -2538,-7294 -9205,-12301 -16436,-12301 -7275,0 -13894,5007 -16407,12429 -980,2787 -3591,4585 -6349,4585 -803,0 -1514,-206 -2219,-402 -3542,-1210 -5448,-5094 -4228,-8538zm128662 -46702l0 0c0,15044 -12160,27282 -27195,27282 -15064,0 -27257,-12238 -27257,-27282 0,-15089 12193,-27248 27257,-27248 15035,0 27195,12159 27195,27248zm-171660 27282l0 0c-14996,0 -27253,-12238 -27253,-27282 0,-15089 12257,-27248 27253,-27248 15064,0 27248,12159 27248,27248 0,15044 -12184,27282 -27248,27282zm72201 79143l0 0c25715,0 49523,-2396 69913,-14932 -14280,23711 -40216,39593 -69913,39593 -29644,0 -55599,-15907 -69859,-39593 20311,12536 44218,14932 69859,14932z"/>
  <g id="_1530747024">
   <path class="fil3" d="M932803 824658c-21482,-11165 -82068,-38295 -139797,-23667 -11356,-14785 -15657,-19802 -15657,-19802 0,0 -7491,-6804 -16721,-2562 -11336,3856 -12198,13830 -12198,13830 0,45918 -36012,83439 -81191,86320l-12913 0c-45198,-2881 -81098,-40402 -81098,-86320 0,0 -926,-9974 -12277,-13830 -9210,-4242 -16754,2562 -16754,2562 0,0 -4247,5017 -15579,19802 -57778,-14628 -118383,12502 -139831,23667 188253,0 271986,88730 271986,88730 0,0 83101,-88730 272030,-88730z"/>
  </g>
  <path class="fil3" d="M1051044 954951c0,0 -10400,-19180 -27424,-22467l0 19356 17896 0c0,0 5183,500 9528,3111z"/>
  <path class="fil3" d="M268816 954951c0,0 10406,-19180 27425,-22467l0 19356 -17877 0c0,0 -5193,500 -9548,3111z"/>
  <g id="_1530750544">
   <path class="fil3" d="M965234 951527l48661 0 0 -109076c-212977,-30766 -319158,58513 -345818,82606l0 374095c34793,-27209 180111,-100095 345818,-82327l0 -89063 -48661 0c-14751,0 -26347,-11596 -26347,-26317 0,-5683 1906,-10959 5051,-15270 -12693,-1906 -22437,-12796 -22437,-25955 0,-6403 2366,-12228 6305,-16769 -9779,-3905 -16716,-13311 -16716,-24353 0,-14589 11846,-26430 26362,-26430l6153 0c-2969,-4228 -4718,-9342 -4718,-14927 0,-14383 11821,-26214 26347,-26214z"/>
   <path class="fil3" d="M307494 842451l0 109076 48700 0c14521,0 26366,11831 26366,26214 0,5585 -1753,10699 -4737,14927l6129 0c14559,0 26400,11841 26400,26430 0,11042 -6956,20448 -16700,24353 3836,4541 6329,10366 6329,16769 0,13159 -9778,24049 -22496,25955 3170,4311 5075,9587 5075,15270 0,14721 -11571,26317 -26366,26317l-48700 0 0 89063c165785,-17768 310981,55118 345852,82327l0 -374095c-22854,-24093 -132111,-113372 -345852,-82606z"/>
  </g>
  <g id="_1530749136">
   <path class="fil3" d="M588244 787950c-143,1489 -314,2964 -314,4507 0,40152 32573,72789 72764,72789 40196,0 72745,-32637 72745,-72789 0,-2959 34,-1068 -240,-3909 -16024,6892 -32647,10449 -50131,11987 -7348,828 -14824,1284 -22374,1284 -25538,0 -49979,-4953 -72450,-13869z"/>
  </g>
  <path class="fil0" d="M1204416 198413c-74102,0 -141193,30036 -189747,78589 -48553,48554 -78589,115650 -78589,189752 0,74102 30036,141193 78589,189747 48554,48554 115645,78589 189747,78589 74102,0 141198,-30035 189752,-78589 48554,-48554 78589,-115645 78589,-189747 0,-74107 -30035,-141198 -78589,-189752 -48554,-48553 -115650,-78589 -189752,-78589zm-208069 60267c53252,-53252 126820,-86192 208069,-86192 81250,0 154822,32940 208074,86192 53252,53252 86192,126820 86192,208074 0,81249 -32940,154817 -86192,208069 -53252,53252 -126824,86192 -208074,86192 -81249,0 -154817,-32940 -208069,-86192 -53252,-53252 -86192,-126820 -86192,-208069 0,-81249 32940,-154822 86192,-208074z"/>
 </g>
</svg>
