<?xml version="1.0" encoding="UTF-8"?>
<!DOCTYPE svg PUBLIC "-//W3C//DTD SVG 1.1//EN" "http://www.w3.org/Graphics/SVG/1.1/DTD/svg11.dtd">
<!-- Creator: CorelDRAW X7 -->
<svg xmlns="http://www.w3.org/2000/svg" xml:space="preserve" width="124.394mm" height="28.8481mm" version="1.1" style="shape-rendering:geometricPrecision; text-rendering:geometricPrecision; image-rendering:optimizeQuality; fill-rule:evenodd; clip-rule:evenodd"
viewBox="0 0 6326058 1467069"
 xmlns:xlink="http://www.w3.org/1999/xlink">
 <defs>
  <style type="text/css">
   <![CDATA[
    .fil2 {fill:#FEFEFE;fill-rule:nonzero}
    .fil1 {fill:#131313;fill-rule:nonzero}
    .fil0 {fill:white;fill-rule:nonzero}
   ]]>
  </style>
 </defs>
 <g id="Layer_x0020_1">
  <metadata id="CorelCorpID_0Corel-Layer"/>
  <path class="fil0" d="M2020605 749170c0,35095 -8620,65344 -26566,90700 -21136,28636 -48775,43201 -82996,43201 -34673,0 -62338,-14565 -83448,-43201 -17931,-25356 -27136,-55605 -27136,-90700l0 -143111 -61280 0 0 150175c0,52355 17352,96070 51526,131689 33097,35115 73191,52940 120338,52940 47778,0 87857,-18349 120964,-55056 33112,-36173 49878,-79395 49878,-129573l0 -150175 -61280 0 0 143111z"/>
  <polygon class="fil0" points="1941973,496421 1882376,496421 1882376,556374 1941973,556374 "/>
  <path class="fil0" d="M2249508 605515c-68303,0 -116569,49705 -116569,122601 0,71833 46669,123079 116569,123079 27711,0 47204,-9149 57507,-27472 -1068,42088 -20087,67439 -57990,68543l0 48078c78597,0 117658,-32390 117658,-96716l0 -113885c0,-71298 -45545,-124228 -117175,-124228zm0 191209l0 0c-33076,0 -55848,-30818 -55848,-68608 0,-36712 21181,-67490 53168,-67490 34689,0 57472,28067 57472,70185 0,35645 -22214,65913 -54792,65913z"/>
  <polygon class="fil0" points="2977370,496421 2918282,496421 2918282,556374 2977370,556374 "/>
  <polygon class="fil0" points="3029451,411137 2969818,411137 2969818,471614 3029451,471614 "/>
  <polygon class="fil0" points="3020795,556374 3079894,556374 3079894,496421 3020795,496421 "/>
  <path class="fil0" d="M3123273 730247c0,39463 -15185,59398 -46080,59398l-59149 0c8172,-8609 12515,-30767 12515,-65862l0 -117724 -61305 0 0 123684c0,39967 -15180,59902 -46070,59902l-56408 0 0 -3209c6474,-10226 9728,-30833 9728,-62653l0 -117724 -61265 0 0 119845c0,42718 -15154,63741 -46110,63741l-33076 0 -11356 0 -88482 0 -20017 0 -73221 0 0 -183586 -60787 0 0 206303c0,51796 -24903,76700 -75377,76700l0 51801c73770,0 123145,-31886 132340,-89668l77045 0 20017 0 88482 0 11356 0 343337 0c61764,0 105209,-50743 105209,-128500l0 -116636 -61326 0 0 124188z"/>
  <path class="fil0" d="M3477493 732978c0,19462 -1597,32389 -4312,38899 -6006,11849 -18415,17768 -38543,17768l-30956 0 -20560 0 -15206 0c-22783,0 -38507,-3209 -46680,-9138 -11325,-8127 -17316,-25362 -17316,-51852l0 -225725 -60217 0 0 250013c0,29720 7074,52966 21720,70206 15745,18897 37938,28046 67240,28046l50459 0 20560 0 43441 0c60792,0 91116,-32369 91116,-97733l0 -147403 -60746 0 0 126919z"/>
  <polygon class="fil0" points="3537131,496421 3478083,496421 3478083,556374 3537131,556374 "/>
  <polygon class="fil0" points="4913205,496421 4853578,496421 4853578,556374 4913205,556374 "/>
  <path class="fil0" d="M5417620 732978c0,19462 -1591,32389 -4322,38899 -5981,11849 -18461,17768 -38528,17768l-32623 0 -18873 0 -35354 0 0 -15592c0,-36173 -11381,-65959 -33600,-90237 -22234,-24278 -51547,-36173 -87893,-36173 -36259,0 -65577,11895 -88360,35110 -22234,23211 -33615,52915 -33615,89124 0,5924 0,11849 559,17768l-40694 0 -17870 0 -86271 0c8712,-10257 13029,-30767 13029,-62627l0 -120959 -60232 0 0 124188c0,18923 -2172,32954 -6469,41025 -6545,12454 -18460,18373 -36366,18373l-43456 0 -12887 0 -92881 0 -14011 0 -34276 0c0,-136072 -69376,-237614 -187070,-261348l-7598 57822c78612,16141 134476,96070 134476,186815 0,5411 0,10792 -524,16711l-71583 0c9199,-22101 14076,-41045 14076,-56098 0,-64835 -43384,-104802 -106831,-104802 -63431,0 -107380,39967 -107380,104802 0,15623 4923,33997 14163,56098l-62973 0 -11885 0 -84699 0 -23226 0 -68410 0c2146,-11300 3209,-22101 3209,-33411l0 -253304 -61204 0 0 246240c0,76135 -45586,133901 -109572,133901 -66162,0 -110630,-59348 -110630,-133901l0 -45892 -61300 0 0 52956c0,101491 77543,184629 171930,184629 59653,0 115487,-33448 146391,-89668l89586 0 23226 0 84699 0 11885 0 415520 0 14011 0 92881 0 12887 0 219765 0 17870 0 65094 0c23338,31352 55341,46995 97016,46995 42424,0 74859,-15643 98242,-46995l58605 0 18873 0 45123 0c60711,0 91081,-32369 91081,-97733l0 -250532 -60731 0 0 230048zm-1030047 58335l0 0c-29267,0 -49873,-24857 -49873,-57766 0,-32455 17916,-56744 49873,-56744 29832,0 49869,22671 49869,56744 0,32359 -21130,57766 -49869,57766zm823861 30203l0 0c-10288,13517 -24904,20530 -43323,20530 -37440,0 -61336,-31830 -61336,-70774 0,-18832 4917,-35070 14142,-47489 10863,-14580 25509,-21613 43949,-21613 18913,0 34724,7552 46110,22188 9719,13522 14621,30203 14621,49146 0,19396 -4902,35604 -14163,48012z"/>
  <polygon class="fil0" points="5534211,851195 5594448,851195 5594448,502356 5534211,502356 "/>
  <path class="fil0" d="M5840073 812362c0,51796 -24863,76700 -75301,76700l0 51801c93222,0 136098,-40506 136098,-137705l0 -197099 -60797 0 0 206303z"/>
  <polygon class="fil0" points="5956709,851195 6016906,851195 6016906,502356 5956709,502356 "/>
  <path class="fil0" d="M6215932 614684c-14082,-4836 -24884,-7028 -32502,-7521 -7628,-519 -26587,-1104 -56398,-1104l0 55081c19498,0 37923,1098 54781,4857 54786,11895 82426,52919 82426,123648l-196290 0 0 61550 257504 0 0 -61550c-504,-92312 -36814,-150632 -109521,-174961z"/>
  <path class="fil1" d="M1857910 1171358c17769,0 34266,2919 49563,8833 15308,5843 28540,14677 39687,26399 11178,11768 19910,26460 26226,44071 6286,17591 9444,38319 9444,62079 0,20860 -2563,40114 -7694,57756 -5157,17621 -12938,32791 -23343,45591 -10394,12871 -23408,22971 -38934,30335 -15557,7318 -33834,10975 -54949,10975l-118731 0 0 -286039 118731 0zm-4206 233180l0 0c8727,0 17225,-1526 25463,-4424 8193,-2899 15526,-7802 21944,-14637 6418,-6768 11534,-15714 15420,-26612 3859,-10954 5766,-24329 5766,-40063 0,-14428 -1378,-27488 -4048,-39072 -2654,-11626 -7074,-21573 -13268,-29832 -6173,-8304 -14320,-14646 -24502,-19081 -10145,-4322 -22696,-6575 -37597,-6575l-43145 0 0 180296 53967 0z"/>
  <path class="fil1" d="M2016755 1313970c743,-13354 3942,-24441 9653,-33228 5619,-8844 12876,-15913 21572,-21227 8742,-5320 18583,-9164 29517,-11458 10939,-2288 21842,-3377 32959,-3377 10013,0 20128,753 30416,2167 10288,1505 19666,4343 28164,8615 8442,4272 15439,10227 20809,17829 5416,7649 8122,17693 8122,30254l0 107746c0,9348 498,18318 1551,26893 1007,8528 2807,14931 5335,19213l-55529 0c-986,-3220 -1831,-6510 -2456,-9861 -636,-3291 -1099,-6693 -1348,-10171 -8793,9347 -19045,15872 -30843,19604 -11829,3754 -23902,5615 -36229,5615 -9500,0 -18405,-1190 -26618,-3570 -8238,-2416 -15434,-6154 -21593,-11234 -6143,-5116 -10979,-11493 -14427,-19208 -3479,-7766 -5249,-16980 -5249,-27660 0,-11773 2019,-21405 6037,-29089 3951,-7547 9067,-13675 15409,-18221 6286,-4552 13446,-7888 21573,-10136 8126,-2298 16243,-4094 24466,-5451 8249,-1379 16309,-2436 24309,-3179 7948,-803 15022,-2044 21226,-3611 6103,-1652 10990,-3987 14626,-7074 3611,-3005 5264,-7470 4959,-13395 0,-6123 -946,-11035 -2848,-14605 -1923,-3626 -4536,-6418 -7735,-8442 -3214,-1973 -6917,-3316 -11188,-3982 -4201,-631 -8747,-1002 -13629,-1002 -10807,0 -19280,2416 -25509,7176 -6139,4872 -9754,12851 -10807,24069l-54695 0zm126411 42083l0 0c-2294,2095 -5182,3855 -8630,5014 -3479,1165 -7217,2212 -11199,3006 -3956,768 -8162,1413 -12515,2003 -4358,499 -8737,1211 -13100,1994 -4120,798 -8137,1841 -12155,3199 -3971,1312 -7460,3142 -10415,5446 -2939,2253 -5329,5081 -7125,8595 -1810,3437 -2685,7887 -2685,13161 0,5101 875,9362 2685,12820 1796,3504 4242,6261 7349,8275 3072,1993 6631,3407 10761,4185 4124,783 8376,1180 12729,1180 10822,0 19172,-1831 25087,-5584 5878,-3799 10242,-8223 13074,-13411 2828,-5238 4577,-10511 5193,-15831 686,-5390 946,-9688 946,-12851l0 -21201z"/>
  <path class="fil1" d="M2292389 1250269l0 38462 768 0c2533,-6418 6027,-12302 10390,-17820 4368,-5477 9352,-10150 15017,-14046 5691,-3844 11697,-6845 18135,-8996 6413,-2166 13080,-3189 20083,-3189 3545,0 7521,641 11895,1999l0 52859c-2522,-504 -5675,-1007 -9200,-1419 -3641,-366 -7119,-565 -10450,-565 -10004,0 -18461,1684 -25464,5198 -6895,3499 -12515,8223 -16756,14265 -4211,5990 -7211,13018 -9037,20998 -1805,7999 -2695,16690 -2695,26058l0 93324 -54736 0 0 -207128 52050 0z"/>
  <path class="fil1" d="M2640476 1171358l102911 286039 -62867 0 -20775 -63727 -102905 0 -21598 63727 -60929 0 104064 -286039 62099 0zm3459 175490l0 0 -34704 -104965 -753 0 -35893 104965 71350 0z"/>
  <polygon class="fil1" points="2817772,1171358 2817772,1457397 2763037,1457397 2763037,1171358 "/>
  <polygon class="fil1" points="3059135,1171358 3123502,1368070 3124250,1368070 3185153,1171358 3270346,1171358 3270346,1457397 3213668,1457397 3213668,1254648 3212920,1254648 3145487,1457397 3098842,1457397 3031332,1256652 3030559,1256652 3030559,1457397 2973882,1457397 2973882,1171358 "/>
  <path class="fil1" d="M3315434 1313970c752,-13354 3977,-24441 9632,-33228 5634,-8844 12871,-15913 21608,-21227 8686,-5320 18562,-9164 29460,-11458 10965,-2288 21893,-3377 32995,-3377 10034,0 20144,753 30447,2167 10262,1505 19609,4343 28138,8615 8467,4272 15419,10227 20805,17829 5416,7649 8086,17693 8086,30254l0 107746c0,9348 549,18318 1591,26893 1022,8528 2787,14931 5355,19213l-55498 0c-1002,-3220 -1876,-6510 -2471,-9861 -707,-3291 -1165,-6693 -1394,-10171 -8762,9347 -19045,15872 -30848,19604 -11799,3754 -23887,5615 -36255,5615 -9464,0 -18374,-1190 -26597,-3570 -8208,-2416 -15409,-6154 -21583,-11234 -6143,-5116 -10964,-11493 -14387,-19208 -3514,-7766 -5263,-16980 -5263,-27660 0,-11773 2029,-21405 6011,-29089 3926,-7547 9072,-13675 15378,-18221 6332,-4552 13533,-7888 21558,-10136 8162,-2298 16294,-4094 24512,-5451 8254,-1379 16329,-2436 24278,-3179 7969,-803 15018,-2044 21247,-3611 6139,-1652 11005,-3987 14657,-7074 3560,-3005 5273,-7470 4984,-13395 0,-6123 -987,-11035 -2884,-14605 -1912,-3626 -4546,-6418 -7735,-8442 -3234,-1973 -6926,-3316 -11122,-3982 -4277,-631 -8844,-1002 -13726,-1002 -10786,0 -19248,2416 -25442,7176 -6174,4872 -9800,12851 -10802,24069l-54735 0zm126446 42083l0 0c-2304,2095 -5228,3855 -8681,5014 -3464,1165 -7222,2212 -11178,3006 -3967,768 -8142,1413 -12521,2003 -4378,499 -8757,1211 -13110,1994 -4109,798 -8117,1841 -12165,3199 -3961,1312 -7430,3142 -10395,5446 -2975,2253 -5334,5081 -7150,8595 -1775,3437 -2670,7887 -2670,13161 0,5101 895,9362 2670,12820 1816,3504 4231,6261 7349,8275 3056,1993 6692,3407 10791,4185 4114,783 8371,1180 12704,1180 10806,0 19157,-1831 25102,-5584 5884,-3799 10237,-8223 13080,-13411 2827,-5238 4582,-10511 5187,-15831 671,-5390 987,-9688 987,-12851l0 -21201z"/>
  <path class="fil1" d="M3591057 1250269l0 28845 1160 0c6926,-12012 15938,-20708 26948,-26226 11056,-5502 22381,-8208 33930,-8208 14647,0 26694,2065 36062,6225 9393,4124 16761,9856 22162,17199 5406,7364 9215,16289 11361,26816 2151,10588 3260,22264 3260,35115l0 127362 -54689 0 0 -116962c0,-17123 -2589,-29872 -7756,-38222 -5116,-8452 -14249,-12684 -27350,-12684 -14915,0 -25737,4603 -32369,13848 -6697,9235 -10013,24400 -10013,45424l0 108596 -54771 0 0 -207128 52065 0z"/>
  <path class="fil1" d="M3822320 1171358l0 107756 1170 0c6967,-12012 15831,-20708 26597,-26226 10807,-5502 21293,-8208 31617,-8208 14666,0 26653,2065 36081,6225 9327,4124 16757,9856 22132,17199 5401,7364 9205,16289 11372,26816 2166,10588 3244,22264 3244,35115l0 127362 -54659 0 0 -116962c0,-17123 -2583,-29872 -7755,-38222 -5131,-8452 -14290,-12684 -27396,-12684 -14895,0 -25717,4603 -32349,13848 -6712,9235 -10054,24400 -10054,45424l0 108596 -54689 0 0 -286039 54689 0z"/>
  <path class="fil1" d="M3993880 1313970c788,-13354 3987,-24441 9677,-33228 5589,-8844 12826,-15913 21568,-21227 8711,-5320 18567,-9164 29511,-11458 10873,-2288 21903,-3377 32929,-3377 10023,0 20179,753 30436,2167 10329,1505 19666,4343 28169,8615 8462,4272 15409,10227 20769,17829 5416,7649 8147,17693 8147,30254l0 107746c0,9348 468,18318 1546,26893 1022,8528 2797,14931 5365,19213l-55523 0c-1022,-3220 -1861,-6510 -2487,-9861 -636,-3291 -1104,-6693 -1353,-10171 -8782,9347 -18999,15872 -30848,19604 -11768,3754 -23877,5615 -36168,5615 -9556,0 -18461,-1190 -26653,-3570 -8239,-2416 -15455,-6154 -21594,-11234 -6153,-5116 -10954,-11493 -14468,-19208 -3443,-7766 -5197,-16980 -5197,-27660 0,-11773 1978,-21405 5986,-29089 3981,-7547 9133,-13675 15429,-18221 6265,-4552 13497,-7888 21552,-10136 8147,-2298 16294,-4094 24533,-5451 8208,-1379 16294,-2436 24252,-3179 7969,-803 15018,-2044 21192,-3611 6173,-1652 11056,-3987 14646,-7074 3606,-3005 5299,-7470 5004,-13395 0,-6123 -961,-11035 -2838,-14605 -1942,-3626 -4566,-6418 -7735,-8442 -3209,-1973 -6911,-3316 -11188,-3982 -4231,-631 -8777,-1002 -13649,-1002 -10807,0 -19325,2416 -25484,7176 -6128,4872 -9779,12851 -10801,24069l-54725 0zm126420 42083l0 0c-2299,2095 -5172,3855 -8655,5014 -3464,1165 -7156,2212 -11163,3006 -4028,768 -8193,1413 -12536,2003 -4379,499 -8711,1211 -13120,1994 -4089,798 -8127,1841 -12134,3199 -3942,1312 -7430,3142 -10370,5446 -2954,2253 -5355,5081 -7160,8595 -1806,3437 -2685,7887 -2685,13161 0,5101 879,9362 2685,12820 1805,3504 4256,6261 7348,8275 3108,1993 6657,3407 10766,4185 4109,783 8361,1180 12719,1180 10812,0 19152,-1831 25072,-5584 5924,-3799 10267,-8223 13074,-13411 2848,-5238 4577,-10511 5198,-15831 661,-5390 961,-9688 961,-12851l0 -21201z"/>
  <polygon class="fil1" points="4273770,1171358 4273770,1457397 4218999,1457397 4218999,1171358 "/>
  <path class="fil1" d="M4553976 1171358c17235,0 31866,2614 43928,7791 12134,5228 21883,12139 29517,20647 7587,8554 13075,18318 16578,29236 3459,10975 5172,22316 5172,34053 0,11493 -1713,22763 -5172,33869 -3503,11102 -8991,20902 -16578,29425 -7634,8569 -17383,15460 -29517,20637 -12062,5207 -26693,7811 -43928,7811l-63594 0 0 102570 -60533 0 0 -286039 124127 0zm-16579 134603l0 0c6947,0 13640,-544 20083,-1587 6402,-1043 12052,-3148 16955,-6255 4882,-3067 8803,-7379 11722,-12978 3005,-5625 4450,-12963 4450,-22056 0,-9022 -1445,-16406 -4450,-21995 -2919,-5624 -6840,-9968 -11722,-13075 -4903,-3041 -10553,-5100 -16955,-6174 -6443,-1067 -13136,-1642 -20083,-1642l-47015 0 0 85762 47015 0z"/>
  <path class="fil1" d="M4816113 1457397l0 -28825 -1160 0c-6946,12012 -15958,20678 -26978,26043 -11076,5319 -22402,7969 -33910,7969 -14667,0 -26679,-2029 -36046,-5986 -9398,-3982 -16767,-9718 -22188,-17057 -5401,-7307 -9159,-16273 -11371,-26836 -2187,-10547 -3255,-22223 -3255,-35039l0 -127397 54735 0 0 117018c0,17092 2548,29821 7720,38248 5146,8386 14244,12602 27345,12602 14905,0 25742,-4613 32409,-13828 6657,-9200 10014,-24298 10014,-45444l0 -108596 54735 0 0 207128 -52050 0z"/>
  <path class="fil1" d="M4964584 1171358l0 104186 753 0c6713,-10715 15744,-18562 27151,-23434 11493,-4968 23388,-7430 35670,-7430 10039,0 19899,2131 29684,6388 9784,4272 18557,10827 26444,19640 7776,8808 14164,20067 19066,33813 4836,13792 7282,30147 7282,49081 0,18979 -2446,35369 -7282,49095 -4902,13746 -11290,25071 -19066,33880 -7887,8823 -16660,15368 -26444,19609 -9785,4297 -19645,6398 -29684,6398 -14626,0 -27767,-2395 -39331,-7196 -11544,-4801 -20302,-13019 -26226,-24421l-753 0 0 26430 -51999 0 0 -286039 54735 0zm88645 157442l0 0c-1810,-7985 -4648,-15074 -8472,-21227 -3896,-6159 -8691,-11010 -14433,-14667 -5838,-3560 -12820,-5345 -21038,-5345 -8010,0 -14937,1785 -20861,5345 -5904,3657 -10807,8508 -14667,14667 -3773,6153 -6672,13242 -8421,21227 -1795,7989 -2736,16416 -2736,25219 0,8528 941,16802 2736,24858 1749,8014 4648,15098 8421,21237 3860,6138 8763,11010 14667,14600 5924,3626 12851,5386 20861,5386 8218,0 15200,-1760 21038,-5386 5742,-3590 10537,-8462 14433,-14600 3824,-6139 6662,-13223 8472,-21237 1816,-8056 2691,-16330 2691,-24858 0,-8803 -875,-17230 -2691,-25219z"/>
  <polygon class="fil1" points="5201634,1171358 5201634,1457397 5146925,1457397 5146925,1171358 "/>
  <path class="fil1" d="M5246331 1218185l0 -46827 54791 0 0 46827 -54791 0zm54791 32084l0 0 0 207128 -54791 0 0 -207128 54791 0z"/>
  <path class="fil1" d="M5390337 1405936c2420,4394 5543,7985 9464,10756 3844,2874 8279,4918 13273,6281 5019,1302 10191,1958 15623,1958 3829,0 7877,-417 12113,-1373 4252,-921 8091,-2446 11580,-4420 3478,-2008 6377,-4678 8676,-8014 2314,-3331 3478,-7552 3478,-12653 0,-8493 -5456,-14916 -16395,-19167 -10944,-4343 -26175,-8554 -45678,-12892 -8005,-1821 -15806,-4053 -23292,-6504 -7598,-2589 -14377,-5935 -20235,-10105 -5970,-4089 -10741,-9342 -14280,-15582 -3621,-6276 -5431,-13950 -5431,-23043 0,-13374 2497,-24329 7511,-32837 5050,-8543 11630,-15302 19854,-20225 8284,-4943 17519,-8421 27787,-10466 10283,-2013 20789,-2970 31576,-2970 10806,0 21277,1023 31413,3189 10156,2151 19248,5742 27217,10863 7944,5060 14560,11773 19834,20199 5304,8401 8426,19025 9428,31825l-51999 0c-788,-10923 -4775,-18353 -11992,-22228 -7170,-3860 -15688,-5803 -25407,-5803 -3107,0 -6463,183 -10033,585 -3611,417 -6866,1292 -9785,2583 -3041,1389 -5457,3321 -7587,5869 -2045,2522 -3087,5935 -3087,10191 0,5096 1795,9225 5441,12414 3524,3229 8284,5813 14021,7786 5813,1998 12409,3850 19874,5411 7450,1637 15048,3387 22717,5228 8005,1876 15745,4129 23403,6830 7486,2669 14270,6224 20124,10593 5970,4429 10771,9896 14310,16405 3611,6566 5360,14657 5360,24268 0,13650 -2624,25036 -7801,34261 -5340,9215 -12205,16640 -20647,22219 -8533,5619 -18252,9545 -29140,11814 -10883,2268 -22040,3402 -33330,3402 -11575,0 -22839,-1190 -33910,-3570 -11020,-2416 -20907,-6398 -29516,-12053 -8641,-5614 -15669,-13019 -21146,-22244 -5619,-9169 -8559,-20769 -9164,-34612l52060 0c0,6179 1206,11422 3718,15831z"/>
  <path class="fil1" d="M5605982 1171358l0 107756 1170 0c6967,-12012 15811,-20708 26597,-26226 10776,-5502 21273,-8208 31632,-8208 14666,0 26643,2065 36025,6225 9414,4124 16777,9856 22148,17199 5385,7364 9164,16289 11346,26816 2196,10588 3305,22264 3305,35115l0 127362 -54735 0 0 -116962c0,-17123 -2584,-29872 -7720,-38222 -5106,-8452 -14244,-12684 -27385,-12684 -14931,0 -25692,4603 -32349,13848 -6677,9235 -10034,24400 -10034,45424l0 108596 -54710 0 0 -286039 54710 0z"/>
  <path class="fil1" d="M5838445 1407701c8224,8305 20042,12399 35461,12399 11026,0 20541,-2838 28474,-8605 7959,-5691 12882,-11798 14677,-18227l48200 0c-7735,24869 -19564,42637 -35456,53276 -15912,10685 -35227,16040 -57812,16040 -15689,0 -29867,-2548 -42453,-7781 -12531,-5218 -23211,-12602 -31993,-22234 -8681,-9596 -15455,-21145 -20190,-34485 -4836,-13369 -7150,-28005 -7150,-44065 0,-15435 2436,-29913 7354,-43263 4861,-13339 11762,-24908 20738,-34617 9027,-9764 19732,-17407 32222,-23078 12414,-5578 26287,-8381 41472,-8381 16869,0 31698,3377 44315,10182 12602,6845 22926,16014 31017,27451 8096,11549 13939,24568 17545,39301 3605,14671 4816,30025 3860,46044l-143803 0c753,18435 5238,31784 13522,40043zm61825 -108957l0 0c-6515,-7486 -16498,-11183 -29827,-11183 -8721,0 -16019,1521 -21796,4593 -5838,3051 -10415,6880 -13894,11391 -3483,4546 -5904,9342 -7343,14433 -1378,5085 -2187,9586 -2487,13603l89067 0c-2583,-14397 -7150,-25330 -13720,-32837z"/>
  <path class="fil1" d="M6053094 1250269l0 38462 748 0c2613,-6418 6097,-12302 10496,-17820 4312,-5477 9362,-10150 14972,-14046 5701,-3844 11676,-6845 18170,-8996 6377,-2166 13075,-3189 20042,-3189 3550,0 7578,641 11875,1999l0 52859c-2553,-504 -5574,-1007 -9200,-1419 -3606,-366 -7115,-565 -10451,-565 -9998,0 -18440,1684 -25407,5198 -6926,3499 -12515,8223 -16777,14265 -4267,5990 -7211,13018 -9047,20998 -1775,7999 -2716,16690 -2716,26058l0 93324 -54750 0 0 -207128 52045 0z"/>
  <path class="fil1" d="M6197120 1405936c2396,4394 5544,7985 9464,10756 3794,2874 8219,4918 13228,6281 5090,1302 10242,1958 15617,1958 3906,0 7908,-417 12180,-1373 4262,-921 8096,-2446 11544,-4420 3413,-2008 6377,-4678 8696,-8014 2314,-3331 3484,-7552 3484,-12653 0,-8493 -5467,-14916 -16375,-19167 -10954,-4343 -26175,-8554 -45704,-12892 -7969,-1821 -15724,-4053 -23378,-6504 -7597,-2589 -14265,-5935 -20189,-10105 -5904,-4089 -10700,-9342 -14245,-15582 -3605,-6276 -5431,-13950 -5431,-23043 0,-13374 2548,-24329 7532,-32837 5004,-8543 11661,-15302 19879,-20225 8157,-4943 17479,-8421 27741,-10466 10237,-2013 20790,-2970 31596,-2970 10772,0 21258,1023 31378,3189 10171,2151 19269,5742 27197,10863 8005,5060 14621,11773 19854,20199 5274,8401 8406,19025 9449,31825l-52035 0c-753,-10923 -4801,-18353 -11931,-22228 -7180,-3860 -15688,-5803 -25488,-5803 -3051,0 -6347,183 -9968,585 -3620,417 -6896,1292 -9865,2583 -2955,1389 -5488,3321 -7537,5869 -1999,2522 -3067,5935 -3067,10191 0,5096 1811,9225 5401,12414 3575,3229 8284,5813 14041,7786 5879,1998 12455,3850 19920,5411 7450,1637 14992,3387 22707,5228 7974,1876 15755,4129 23322,6830 7572,2669 14351,6224 20235,10593 5925,4429 10659,9896 14265,16405 3626,6566 5421,14657 5421,24268 0,13650 -2690,25036 -7903,34261 -5274,9215 -12164,16640 -20606,22219 -8508,5619 -18191,9545 -29145,11814 -10944,2268 -22020,3402 -33310,3402 -11549,0 -22875,-1190 -33931,-3570 -11076,-2416 -20942,-6398 -29531,-12053 -8620,-5614 -15643,-13019 -21176,-22244 -5543,-9169 -8590,-20769 -9027,-34612l52035 0c0,6179 1236,11422 3656,15831z"/>
  <path class="fil0" d="M889362 125363c-61647,-34882 -129284,-64657 -202815,-89246 -141987,47483 -261984,114281 -359275,199820 -97525,85741 -172261,190334 -223508,313180 -25849,61946 -42153,120831 -52385,171793 -20307,101100 -16818,171066 -16757,172108l0 143 20 691 16 122 0 723 0 538040 1303758 0 0 -538040 0 -723 16 -350 56 -692 5 0c127,-2884 2029,-49238 -7939,-119789l-549 -3911 3829 -1032c4114,-1104 8218,-2299 12287,-3575 4109,-1292 8126,-2650 11997,-4053l5166 -1872 794 5431c11122,76130 8884,126650 8691,130606l0 567847 0 4485 -4486 0 -1363462 0 -4485 0 0 -4485 0 -567887 5 0c-453,-8824 -33188,-659986 684818,-894249l1388 -448 1378 448c85304,27832 160021,61600 225445,99492 65466,37918 121635,79965 169815,124341l4084 3758 -4541 3199c-3402,2395 -6744,4861 -9998,7358 -3214,2467 -6428,5040 -9612,7705l-3000 2512 -2889 -2634c-49818,-45393 -105814,-85706 -167867,-120816z"/>
  <path class="fil1" d="M686562 165096c118482,45337 218067,106393 298199,182696 -15119,37038 -23480,77523 -23480,119931 0,150958 105651,277719 246921,310211 10690,64636 9968,108966 9810,115028l-229 3128 0 6342 0 351535 -1062416 0 0 -351535 0 -5040 -275 -5020c-66,-1296 -4378,-136693 60843,-292995 83860,-200928 242009,-346831 470627,-434281z"/>
  <path class="fil1" d="M307113 1206275l0 72453 20739 -2212c16782,-1821 33640,-2691 50082,-2691 126171,0 250654,51939 290377,82940l7785 6067 11260 8798 11254 -8798 7832 -6067c39646,-31001 164129,-82940 290295,-82940 16457,0 33310,870 50067,2691l19192 2212 0 -72453 -758883 0z"/>
  <path class="fil2" d="M1001126 1000038c-8340,0 -15089,6646 -15089,14931 0,8304 6749,15017 15089,15017l79334 0c8238,0 14966,-6713 14966,-15017 0,-8285 -6728,-14931 -14966,-14931l-79334 0z"/>
  <path class="fil2" d="M1095630 1100588c0,-8264 -6693,-14951 -14967,-14951l-97586 0c-8299,0 -15063,6687 -15063,14951 0,8274 6764,15028 15063,15028l97586 0c8274,0 14967,-6754 14967,-15028z"/>
  <path class="fil2" d="M1080663 1128446l-79537 0c-8340,0 -15089,6739 -15089,14936 0,8422 6627,15053 15089,15053l79537 0c8274,0 14967,-6753 14967,-15053 0,-8197 -6693,-14936 -14967,-14936z"/>
  <path class="fil2" d="M1095548 1057900c0,-8304 -6692,-15144 -14987,-15144l-108255 0c-8376,0 -15144,6840 -15144,15144 0,8254 6768,14957 15144,14957l108255 0c8295,0 14987,-6703 14987,-14957z"/>
  <path class="fil2" d="M274642 1014969c0,8304 6713,15017 14952,15017l79369 0c8315,0 15089,-6713 15089,-15017 0,-8285 -6774,-14931 -15089,-14931l-79369 0c-8239,0 -14952,6646 -14952,14931z"/>
  <path class="fil2" d="M274541 1057900c0,8254 6712,14957 14951,14957l108301 0c8340,0 15154,-6703 15154,-14957 0,-8304 -6814,-15144 -15154,-15144l-108301 0c-8239,0 -14951,6840 -14951,15144z"/>
  <path class="fil2" d="M274495 1100588c0,8274 6657,15028 14931,15028l97585 0c8341,0 15109,-6754 15109,-15028 0,-8264 -6768,-14951 -15109,-14951l-97585 0c-8274,0 -14931,6687 -14931,14951z"/>
  <path class="fil2" d="M274495 1143382c0,8300 6657,15053 14931,15053l79537 0c8442,0 15089,-6631 15089,-15053 0,-8197 -6774,-14936 -15089,-14936l-79537 0c-8274,0 -14931,6739 -14931,14936z"/>
  <path class="fil2" d="M820733 521655l-473 7649c-56,839 -3911,70988 23495,98562 3097,-11504 10298,-28728 26694,-40934 -19010,-84373 -94178,-147393 -184268,-147393 -90212,0 -165396,63356 -184212,147882 6113,2812 23632,12835 27609,39046 11585,-7847 30671,-30131 22865,-89576l-2284 -17855 14021 11341c885,681 82131,64601 198609,24924 -9434,-5213 -21369,-12734 -30366,-21146l-13359 -12500 101669 0z"/>
  <path class="fil2" d="M890420 572352c279,-4236 640,-8452 640,-12780 0,-112191 -90954,-203109 -203130,-203109 -112186,0 -203140,90918 -203140,203109 0,4328 407,8544 611,12780 27471,-85665 107726,-152158 202529,-152158 94830,0 175114,66493 202490,152158z"/>
  <path class="fil2" d="M914128 652195c0,-29481 -12953,-53373 -28901,-53373 -4180,0 -8213,1785 -11839,4857 0,-112 -25,-214 -25,-361 -15643,15790 -17464,37622 -17464,37882l-813 11300 -9907 -5559c-37465,-20906 -39850,-87887 -39575,-110864l-46950 0c12582,8137 24772,13650 24919,13696l15236 6972 -15485 6296c-104003,42474 -184517,5696 -215040,-12592 5202,81521 -41340,93558 -43476,94112l-8839 2121 0 -9118c0,-21726 -10699,-31424 -16756,-35284 0,204 -82,351 -82,428 -3326,-2416 -6835,-3886 -10623,-3886 -15913,0 -28820,23892 -28820,53373 0,29328 12907,53199 28820,53199 7562,0 14351,-5472 19518,-14199 25814,73664 95699,126507 178155,126507 82919,0 153272,-53459 178765,-127788 5177,9581 12399,15480 20281,15480 15948,0 28901,-23871 28901,-53199zm-258262 22320l0 0c4537,-13421 16752,-22320 30315,-22320 13543,0 25687,8874 30320,22142 1220,3661 -677,7618 -4303,8905 -3676,1276 -7689,-611 -8955,-4338 -2634,-7573 -9556,-12770 -17062,-12770 -7552,0 -14422,5197 -17031,12902 -1017,2894 -3728,4760 -6591,4760 -834,0 -1572,-214 -2304,-417 -3677,-1256 -5655,-5289 -4389,-8864zm133561 -48480l0 0c0,15617 -12622,28321 -28230,28321 -15638,0 -28296,-12704 -28296,-28321 0,-15664 12658,-28286 28296,-28286 15608,0 28230,12622 28230,28286zm-178196 28321l0 0c-15567,0 -28291,-12704 -28291,-28321 0,-15664 12724,-28286 28291,-28286 15638,0 28285,12622 28285,28286 0,15617 -12647,28321 -28285,28321zm74950 82156l0 0c26694,0 51409,-2487 72575,-15500 -14824,24613 -41747,41101 -72575,41101 -30772,0 -57715,-16513 -72519,-41101 21084,13013 45902,15500 72519,15500z"/>
  <g id="_1565568720">
   <path class="fil2" d="M968319 856057c-22300,-11590 -85192,-39753 -145119,-24568 -11789,-15348 -16254,-20556 -16254,-20556 0,0 -7775,-7063 -17357,-2659 -11767,4002 -12662,14356 -12662,14356 0,47666 -37384,86616 -84282,89606l-13406 0c-46918,-2990 -84185,-41940 -84185,-89606 0,0 -961,-10354 -12744,-14356 -9561,-4404 -17393,2659 -17393,2659 0,0 -4409,5208 -16172,20556 -59978,-15185 -122891,12978 -145155,24568 195420,0 282342,92108 282342,92108 0,0 86265,-92108 282387,-92108z"/>
  </g>
  <path class="fil2" d="M1091063 991311c0,0 -10797,-19910 -28469,-23322l0 20093 18578 0c0,0 5380,518 9891,3229z"/>
  <path class="fil2" d="M279051 991311c0,0 10802,-19910 28469,-23322l0 20093 -18557 0c0,0 -5391,518 -9912,3229z"/>
  <g id="_1565541424">
   <path class="fil2" d="M1001985 987756l50515 0 0 -113229c-221087,-31936 -331310,60742 -358986,85752l0 388339c36117,-28245 186969,-103907 358986,-85462l0 -92454 -50515 0c-15312,0 -27350,-12038 -27350,-27320 0,-5899 1979,-11376 5244,-15851 -13177,-1978 -23292,-13283 -23292,-26943 0,-6647 2456,-12693 6545,-17408 -10151,-4053 -17352,-13817 -17352,-25280 0,-15144 12297,-27436 27365,-27436l6388 0c-3082,-4389 -4898,-9698 -4898,-15495 0,-14931 12272,-27213 27350,-27213z"/>
   <path class="fil2" d="M319201 874527l0 113229 50555 0c15074,0 27370,12282 27370,27213 0,5797 -1820,11106 -4917,15495l6362 0c15114,0 27405,12292 27405,27436 0,11463 -7221,21227 -17336,25280 3982,4715 6570,10761 6570,17408 0,13660 -10150,24965 -23352,26943 3290,4475 5268,9952 5268,15851 0,15282 -12011,27320 -27370,27320l-50555 0 0 92454c172099,-18445 322823,57217 359021,85462l0 -388339c-23724,-25010 -137140,-117688 -359021,-85752z"/>
  </g>
  <g id="_1565583440">
   <path class="fil2" d="M610641 817951c-147,1546 -325,3077 -325,4679 0,41681 33813,75560 75534,75560 41727,0 75515,-33879 75515,-75560 0,-3072 36,-1109 -249,-4058 -16635,7155 -33890,10847 -52040,12444 -7628,859 -15389,1332 -23226,1332 -26510,0 -51882,-5141 -75209,-14397z"/>
  </g>
  <path class="fil0" d="M1250274 213398c-74873,0 -142658,30345 -191718,79405 -49059,49059 -79405,116849 -79405,191723 0,74874 30346,142658 79405,191718 49060,49060 116845,79405 191718,79405 74874,0 142664,-30345 191724,-79405 49059,-49060 79405,-116844 79405,-191718 0,-74879 -30346,-142664 -79405,-191723 -49060,-49060 -116850,-79405 -191724,-79405zm-210229 60893c53805,-53804 128134,-87089 210229,-87089 82096,0 156430,33285 210235,87089 53804,53805 87089,128135 87089,210235 0,82095 -33285,156425 -87089,210229 -53805,53805 -128139,87089 -210235,87089 -82095,0 -156424,-33284 -210229,-87089 -53804,-53804 -87089,-128134 -87089,-210229 0,-82095 33285,-156430 87089,-210235z"/>
 </g>
</svg>
