<?xml version="1.0" encoding="UTF-8"?>
<!DOCTYPE svg PUBLIC "-//W3C//DTD SVG 1.1//EN" "http://www.w3.org/Graphics/SVG/1.1/DTD/svg11.dtd">
<!-- Creator: CorelDRAW X7 -->
<svg xmlns="http://www.w3.org/2000/svg" xml:space="preserve" width="122.914mm" height="25.8944mm" version="1.1" style="shape-rendering:geometricPrecision; text-rendering:geometricPrecision; image-rendering:optimizeQuality; fill-rule:evenodd; clip-rule:evenodd"
viewBox="0 0 13306456 2803290"
 xmlns:xlink="http://www.w3.org/1999/xlink">
 <defs>
  <style type="text/css">
   <![CDATA[
    .fil3 {fill:#1E1E1E}
    .fil4 {fill:#8B8B8B}
    .fil2 {fill:white}
    .fil0 {fill:#009933;fill-rule:nonzero}
    .fil1 {fill:#00A951;fill-rule:nonzero}
    .fil7 {fill:gray;fill-rule:nonzero}
    .fil6 {fill:gray;fill-rule:nonzero}
    .fil5 {fill:#86D7AB;fill-rule:nonzero}
   ]]>
  </style>
 </defs>
 <g id="Layer_x0020_1">
  <metadata id="CorelCorpID_0Corel-Layer"/>
  <path class="fil0" d="M888153 158826l3999806 -157159c29392,-3064 58849,-1819 87397,3172 63191,11043 122386,40565 167454,80956 45978,41236 77903,94163 85536,151107 2998,22485 2240,45609 -2923,68853l-417359 1881175c-17527,79083 -56489,152591 -115447,204956 -55460,49214 -127550,79786 -215239,79786l-3211468 -110489c-87332,0 -159010,-30474 -214276,-79526l-238 -195c-58860,-52289 -97822,-125753 -115934,-204620l-370991 -1613539c-1613,-7047 -2772,-13056 -3443,-18133 -10046,-75316 25246,-140195 84334,-189712 54118,-45307 129293,-77319 205972,-91230 13305,-2392 25603,-4211 36819,-5402zm3827015 97779l-3828726 139091c-9451,996 -18035,2176 -25473,3540 -52743,9559 -103776,31016 -139686,61101 -31308,26220 -50178,59217 -45284,95884 498,3844 1039,6918 1505,9062l345972 1504707c12872,56034 39450,107262 78899,142338 31979,28320 73367,45934 123685,45934l3093574 110478c50427,0 92107,-17733 124259,-46291 39320,-34903 65767,-85871 78120,-141635l389222 -1754265c2544,-11594 2933,-23232 1407,-34588 -4179,-31200 -22453,-60928 -48900,-84658 -27336,-24499 -62844,-42340 -100443,-48901 -15881,-2771 -32120,-3486 -48131,-1797z"/>
  <path class="fil1" d="M1528935 585300l1172754 -123772c13608,-1418 27216,-834 40424,1472 29219,5099 56586,18761 77426,37436 21273,19064 36029,43541 39558,69870 1386,10404 1039,21100 -1343,31839l-193003 869911c-8108,36570 -26123,70563 -53393,94770 -25636,22766 -58979,36905 -99522,36905l-808215 0c-40380,0 -73529,-14095 -99078,-36786l-108 -87c-27227,-24185 -45242,-58156 -53621,-94618l-171557 -746150c-736,-3259 -1278,-6041 -1581,-8379 -4655,-34838 11671,-64836 38995,-87733 25019,-20959 59780,-35758 95246,-42188 6149,-1105 11843,-1949 17018,-2490zm1092859 -5890l-1093649 115415c-4363,465 -8336,1018 -11768,1645 -24401,4417 -47991,14334 -64598,28245 -14485,12125 -23210,27389 -20948,44354 238,1764 487,3182 704,4178l159984 695810c5955,25917 18242,49615 36484,65832 14788,13089 33928,21252 57193,21252l753685 0c23329,0 42599,-8206 57463,-21414 18188,-16141 30410,-39709 36137,-65496l179980 -811225c1180,-5369 1353,-10739 660,-15990 -1938,-14430 -10393,-28179 -22626,-39146 -12645,-11335 -29057,-19584 -46432,-22615 -7362,-1278 -14864,-1613 -22269,-845z"/>
  <g id="_1849662416">
   <path class="fil2" d="M3211717 1696270l37295 -65907 -66937 -39482 39179 -67792 -134793 -77264 -77653 133526 -574 2523c23871,8487 45761,23318 67780,36450l-38063 67380 66947 40078 -77080 134208 66211 39406c-21576,41398 -52982,99143 -80523,135042l2945 1418c16823,7296 32466,16877 48402,26177 23027,13445 21922,7058 2046,41852 -19876,34795 -40121,69405 -60159,104102l65659 38681c-2772,17018 -62931,109189 -75240,135550l538402 311741 78033 -133428 69394 39308 115349 -202660 67824 37772 272140 -470080c-8779,-10328 -63623,-34416 -63818,-42481 -368,-15178 35595,-51369 32228,-65670 -12211,-11410 -48618,-32629 -64305,-38464l-117482 201404 -66309 -38442 155741 -270170 -135561 -77892 -116984 202108 -67413 -39006 155936 -268221c-9549,-9787 -121098,-74017 -135767,-78520l-155157 269001 -66546 -38865c-184,-6994 4677,-13100 8704,-19898 113368,-191531 229530,-395599 341079,-588396l-134749 -76853 -429137 741777c-21435,-6258 -64002,-36353 -64587,-36884l-2457 -3129z"/>
   <path class="fil3" d="M3016451 2035856c-6204,10761 -12331,16390 -20115,30031l-59715 103462c11010,6355 22334,12602 33235,19075 12179,7243 17332,12883 31774,21219 -40012,69296 -73962,132877 -113790,201870 56543,32651 108182,65226 166382,98818l341350 197085c58860,33982 113671,62866 170843,95874 9819,-17008 12428,-30594 27097,-48966 12428,-15546 32900,-55775 45728,-77361 6756,-11378 9657,-11995 16477,-23373 11248,-18772 16077,-32835 27747,-53047 10902,15947 48911,28234 66200,38226 39103,-67726 77080,-128730 116735,-197420 20461,6214 39276,21283 57171,30605 9917,5163 10307,5055 16315,-4374 15384,-24174 30681,-53740 45274,-79029 29868,-51726 59726,-103452 89595,-155178l131371 -227570c-18328,-10620 -53848,-27801 -67824,-40932l-272140 470080 -67824 -37772 -115349 202660 -69394 -39308 -78033 133428 -538402 -311741c12309,-26361 72468,-118532 75240,-135550l-65659 -38681c20038,-34697 40283,-69307 60159,-104102 19876,-34794 20981,-28407 -2046,-41852 -15936,-9300 -31579,-18881 -48402,-26177z"/>
   <path class="fil3" d="M3221254 1523089l-39179 67792 66937 39482 -37295 65907 66535 38411 427405 -741366 -65767 -37284c-541,292 -953,357 -1483,1115l-2858 2566c-412,487 -888,1017 -1332,1591l-345236 597750c-24391,-14085 -43574,-23676 -67727,-35964z"/>
   <path class="fil3" d="M3843957 1074000l-351093 605653 66546 38865 155157 -269001c14669,4503 126218,68733 135767,78520 14669,15134 142132,84073 170810,100637 455,-3540 5597,-2111 -9700,-11519l-134814 -77416c-32326,-18404 -29793,-5705 13402,-80533l-101482 -58503c-13207,-7654 -17321,-12850 -31795,-21208l154084 -266879c-17245,-9949 -28006,-20472 -50578,-31979 -9408,-4785 -8174,-2263 -16304,-6637z"/>
   <path class="fil3" d="M4014356 1711048l39038 -66504c-10306,-5943 -21327,-14171 -32250,-15870 -28678,-16564 -156141,-85503 -170810,-100637l-155936 268221 67413 39006 116984 -202108 135561 77892z"/>
   <path class="fil3" d="M3008234 1581874c-5792,9537 -8152,9212 -21143,31828 -6734,11735 -13532,23448 -20299,35173l64133 37024c-6355,20927 -62888,118489 -73508,136871l66211 38216 -58557 101384c-8390,14366 -9960,22074 -17018,34285l65453 37783c27541,-35899 58947,-93644 80523,-135042l-66211 -39406 77080 -134208 -66947 -40078 38063 -67380c-22019,-13132 -43909,-27963 -67780,-36450z"/>
   <path class="fil3" d="M3008808 1579351l77653 -133526 134793 77264 21370 -31925c5760,-11811 9938,-21923 18372,-36537l-179991 -103929c-28916,-16920 -21781,-19594 -45122,20851l-86065 148964c-8910,14961 -15557,18100 -1949,26761 12937,8239 50004,32164 60939,32077z"/>
   <path class="fil3" d="M4106711 1856720c10404,-454 2068,3064 10426,-6939 530,-639 5001,-9072 5867,-10566 2599,-16585 17776,-35552 26610,-50849l-135258 -77318 -155741 270170 66309 38442 117482 -201404c15687,5835 52094,27054 64305,38464z"/>
   <path class="fil3" d="M3844953 1069075c12017,-20819 28959,-45566 34968,-65334l-132996 -76788 -38204 65236 136232 76886z"/>
   <path class="fil3" d="M4106711 1856720c3367,14301 -32596,50492 -32228,65670 195,8065 55039,32153 63818,42481 13976,13131 49496,30312 67824,40932l-131371 227570 133764 -231694 -66200 -38227c6105,-10566 7967,-18761 15827,-32217 6831,-11692 13554,-23449 20331,-35174 -73594,-42491 -69783,-31871 -55472,-56846 -866,1494 -5337,9927 -5867,10566 -8358,10003 -22,6485 -10426,6939z"/>
   <path class="fil4" d="M3639890 956031l65767 37284 -427405 741366 -66535 -38411 2457 3129c585,531 43152,30626 64587,36884l429137 -741777 134749 76853c-111549,192797 -227711,396865 -341079,588396 -4027,6798 -8888,12904 -8704,19898l351093 -605653 996 -4925 -136232 -76886 38204 -65236c-10263,7318 -31135,50502 -39709,65345l-61913 -35336c-4536,-1559 -2523,-974 -5413,-931z"/>
  </g>
  <path class="fil1" d="M6359041 1693434l-230017 0 189626 -654910 -389515 654910 -236631 0 -42448 -664263 -162020 664263 -236631 0 267073 -996736 322892 0 44440 699404 417424 -699404 322881 0 -267074 996736zm860049 0l-514336 0c-71429,0 -122885,-19162 -154366,-57507 -32424,-37414 -38800,-91955 -19541,-163838 23048,-86023 62898,-147871 119474,-185285 56576,-37425 136904,-56143 241179,-56143l227050 0c9592,-35822 5954,-61382 -10815,-77123 -17386,-14377 -55872,-21457 -114970,-21457l-324029 0 48056 -179352 394083 0c100182,0 170160,23276 209772,69600 39839,46323 47017,116605 21771,210844l-123328 460261zm-177219 -176624l29717 -110900 -201036 0c-40153,0 -67207,3887 -81151,11638 -14182,7762 -24456,23968 -31059,48608 -4894,18252 -4320,31492 1862,39937 3572,3648 10891,6160 22268,7989 11378,1819 26188,2728 44451,2728l214948 0zm979772 176624l-219061 0 119041 -444282c12655,-47244 14052,-77134 4070,-90136 -11486,-11638 -38486,-17343 -80241,-17343l-131891 0 -147838 551761 -219061 0 198470 -740705 364193 0c111354,0 184949,21674 220793,65031 35790,43585 40813,113412 14896,210162l-123371 465512zm796848 0l-220426 0 119226 -444975c11800,-44040 12428,-72793 1591,-86022 -7275,-7762 -16304,-13240 -26967,-16889 -11855,-3421 -29392,-5250 -51986,-5250l-130895 1375 -147838 551761 -219061 0 267073 -996736 219062 0 -68604 256031 146506 0c109526,0 182730,21446 219679,64122 36883,42903 42296,112957 16130,210617l-123490 465966zm840649 0l-514337 0c-71429,0 -122884,-19162 -154365,-57507 -32424,-37414 -38800,-91955 -19541,-163838 23048,-86023 62898,-147871 119474,-185285 56576,-37425 136904,-56143 241178,-56143l227051 0c9592,-35822 5954,-61382 -10815,-77123 -17386,-14377 -55872,-21457 -114971,-21457l-324028 0 48056 -179352 394082 0c100183,0 170161,23276 209773,69600 39839,46323 47017,116605 21771,210844l-123328 460261zm-177220 -176624l29717 -110900 -201036 0c-40153,0 -67207,3887 -81150,11638 -14182,7762 -24456,23968 -31060,48608 -4893,18252 -4319,31492 1862,39937 3573,3648 10891,6160 22269,7989 11378,1819 26188,2728 44451,2728l214947 0zm529331 176624l-227278 0 267073 -996736 227278 0 -267073 996736zm513351 0l-193047 0 54292 -202627 193046 0 -54291 202627zm708996 0l-267670 0c-32726,0 -62335,-1862 -87992,-5478 -25192,-3551 -48684,-7870 -69372,-15286 -37490,-13457 -69448,-37122 -95224,-69599 -11985,-15092 -20321,-34448 -27855,-56132 -7340,-21089 -15102,-43704 -18697,-68236 -3453,-23535 -3107,-47991 -1190,-73020 1872,-24369 7253,-51639 15091,-80999 14712,-55169 37717,-107447 69134,-155860 31005,-47753 68138,-92063 114418,-128925 38378,-30583 83413,-50578 131296,-65042 47601,-14387 103820,-22128 168862,-22128l267669 0 -49896 186205 -213594 0c-44365,0 -81021,2143 -108930,7989 -28082,5890 -51022,18307 -70184,32857 -37176,28223 -65854,76041 -84236,144904 -10220,38258 -11465,70844 -6095,97660 5196,26014 12287,55645 37219,65496l39201 15514c10739,4243 23448,3053 35465,3875 12699,877 32261,1375 58503,1375l213594 0 -49517 184830zm917133 -371489c-30929,115782 -91175,208517 -180174,278159 -88729,69427 -192008,104286 -309988,104286 -118662,0 -203071,-35206 -255014,-104286 -51574,-68614 -62486,-160937 -31124,-278159 30691,-114722 91013,-207218 179947,-277261 87939,-69242 191326,-104275 310897,-104275 117980,0 202888,34286 254473,102911 51910,69080 62097,162150 30983,278625zm-227278 0c16391,-61491 13154,-109363 -6636,-144677 -19021,-33971 -52007,-52029 -102434,-52029 -49983,0 -92853,18090 -130322,52029 -35942,32575 -63818,80371 -80988,144677 -8801,33008 -12417,60982 -12331,83510 87,23904 4775,45285 15178,63440 19335,33744 53740,50654 102803,50654 50426,0 93264,-17538 129953,-50654 39049,-35227 67976,-83879 84777,-146950zm1242689 371489l-220436 0 118673 -442918c12168,-45415 15460,-77037 5132,-91500 -10079,-14095 -38302,-20385 -79462,-19400l-85449 2057 -147837 551761 -223165 0 147838 -551761 -182101 0 -147838 551761 -220425 0 198470 -740705 726101 0c105649,0 177955,21738 216235,65031 38465,43520 44884,113542 19000,210162l-124736 465512z"/>
  <path class="fil5" d="M250272 956594l1930120 -203710c22377,-2328 44786,-1375 66514,2425 48110,8401 93145,30854 127442,61610 35010,31395 59293,71656 65096,114992 2284,17127 1710,34719 -2220,52397l-333956 876970c-13337,60181 -43000,116129 -87862,155979 -42199,37468 -97076,60733 -163806,60733l-1330162 0c-66460,0 -121011,-23200 -163059,-60549l-184 -130c-44808,-39807 -74449,-95711 -88231,-155730l-266034 -673292c-1224,-5348 -2100,-9917 -2620,-13771 -7665,-57322 19205,-106710 64186,-144384 41171,-34491 98386,-58871 156748,-69448 10144,-1808 19508,-3215 28028,-4092zm1798618 -9689l-1799928 189950c-7188,758 -13716,1657 -19367,2685 -40153,7264 -78997,23611 -106321,46508 -23828,19963 -38194,45068 -34448,72988 379,2901 769,5240 1115,6885l247003 590420c9797,42665 30031,81649 60051,108346 24336,21543 55829,34978 94120,34978l1240426 0c38388,0 70087,-13500 94564,-35238 29922,-26567 50059,-65345 59466,-107793l312532 -780382c1927,-8834 2230,-17689 1082,-26318 -3204,-23741 -17094,-46367 -37230,-64435 -20796,-18642 -47828,-32229 -76419,-37208 -12093,-2111 -24467,-2653 -36646,-1386z"/>
  <path class="fil6" d="M5688011 383592l-41051 153219 -55169 0 109828 -409921 120914 0c25917,0 47688,3042 65226,9050 17560,5998 31103,14485 40716,25538 9613,11054 15449,24488 17462,40110 2003,15633 379,33062 -4774,52311 -5131,19161 -13143,36591 -24044,52408 -10924,15816 -24283,29446 -40251,40976 -15914,11432 -34307,20298 -55071,26685 -20764,6377 -43455,9624 -68040,9624l-65746 0zm11800 -44028l65746 0c15816,0 30377,-2090 43606,-6290 13230,-4190 24911,-10101 35119,-17625 10220,-7524 18816,-16487 25809,-26967 6994,-10479 12190,-22009 15557,-34588 6994,-26112 4460,-46497 -7719,-61177 -12168,-14669 -34599,-22009 -67185,-22009l-65745 0 -45188 168656z"/>
  <path id="1" class="fil6" d="M6114820 242661c21154,0 39374,3519 54530,10577 15178,7048 26978,17051 35412,30010 8444,12958 13402,28591 14864,46984 1450,18382 -921,38973 -6994,61642 -6127,22875 -14799,43455 -26079,61751 -11281,18296 -24618,33917 -40002,46887 -15383,12958 -32521,22864 -51444,29814 -18913,6961 -39028,10490 -60181,10490 -21154,0 -39255,-3529 -54444,-10490 -15199,-6950 -27129,-16856 -35660,-29814 -8531,-12970 -13575,-28591 -15167,-46887 -1580,-18296 704,-38876 6831,-61751 6074,-22669 14832,-43260 26242,-61642 11411,-18393 24835,-34026 40305,-46984 15481,-12959 32748,-22962 51693,-30010 18945,-7058 38941,-10577 60094,-10577zm-69242 258414c28591,0 52517,-9625 71743,-28776 19238,-19150 33463,-45923 42676,-80327 9245,-34492 9397,-61361 476,-80707 -8942,-19248 -27703,-28873 -56294,-28873 -14474,0 -27725,2479 -39731,7438 -11995,4947 -22767,12092 -32424,21435 -9645,9343 -18079,20872 -25246,34491 -7177,13630 -13120,29067 -17721,46216 -4591,17159 -6918,32585 -7016,46118 -108,13532 2166,24964 6832,34209 4676,9246 11648,16293 20969,21349 9343,4947 21262,7427 35736,7427z"/>
  <path id="2" class="fil6" d="M6276624 246949l40012 0c4200,0 7351,1050 9451,3139 2100,2100 3259,4579 3443,7437l5456 186573c-314,6864 -671,13532 -1050,19909 -368,6387 -942,12774 -1743,19346 3280,-6572 6712,-12959 10328,-19346 3615,-6377 7405,-13045 11334,-19909l111474 -187720c1721,-2858 4071,-5240 6961,-7145 2891,-1906 6106,-2858 9733,-2858l22009 0c3810,0 6701,952 8660,2858 1971,1905 3053,4287 3237,7145l9440 187720c314,6669 466,13240 347,19725 -119,6474 -303,12861 -487,19248 2663,-6387 5661,-12958 9018,-19822 3366,-6864 6701,-13240 9992,-19151l106602 -186573c1775,-3053 4244,-5532 7448,-7534 3205,-1992 6626,-3042 10252,-3042l38302 0 -171427 289862 -40305 0c-4958,0 -7524,-3237 -7697,-9722l-11356 -196576c-347,-4384 -390,-8866 -141,-13337 249,-4482 465,-8867 693,-13251 -2133,4384 -4287,8866 -6463,13435 -2176,4579 -4612,9061 -7308,13435l-117493 196294c-3832,6485 -8606,9722 -14322,9722l-38302 0 -16098 -289862z"/>
  <path id="3" class="fil6" d="M6868148 242369c17343,0 32554,2956 45675,8769 13110,5814 23546,14204 31275,25159 7741,10956 12472,24586 14161,40684 1688,16109 -282,34491 -5825,55169 -2143,8011 -4427,13348 -6863,16011 -2425,2674 -6019,4006 -10783,4006l-192678 0c-4515,18295 -6333,34296 -5381,47828 910,13630 4190,24878 9754,34026 5576,9050 13284,15816 23135,20287 9863,4482 21630,6767 35357,6767 12764,0 24229,-1527 34264,-4471 10036,-2956 18816,-6193 26404,-9625 7589,-3431 14052,-6582 19325,-9537 5283,-3042 9494,-4471 12731,-4471 4189,0 6993,1613 8412,4860l9288 18675c-8303,7524 -17592,14095 -27866,19725 -10273,5618 -20850,10198 -31817,13814 -10945,3529 -22074,6289 -33224,8097 -11162,1808 -21977,2674 -32456,2674 -20017,0 -37479,-3431 -52527,-10198 -15059,-6766 -26989,-16671 -35769,-29727 -8801,-13056 -14084,-29252 -15784,-48500 -1711,-19249 790,-41355 7502,-66417 5413,-20201 13608,-39070 24510,-56608 10891,-17527 23828,-32770 38908,-45642 15070,-12861 31969,-22962 50719,-30302 18729,-7329 38584,-11053 59553,-11053zm-8974 37739c-24575,0 -45805,7048 -63721,21251 -17885,14096 -31904,33734 -42048,58785l157505 0c3162,-11811 4439,-22583 3789,-32294 -606,-9819 -3096,-18296 -7491,-25354 -4374,-7145 -10523,-12666 -18523,-16574 -8000,-3909 -17884,-5814 -29511,-5814z"/>
  <path id="4" class="fil6" d="M6974209 536811l77665 -289862 29165 0c5521,0 9028,1136 10533,3334 1505,2187 1884,6095 1202,11529l-9440 48024c15654,-21435 32423,-38118 50188,-50026 17798,-12006 36451,-18004 56089,-18004 8000,0 14994,953 20981,2761 5976,1905 11280,4471 15914,7816l-16748 38010c-2631,4774 -6214,7156 -10793,7156 -2663,0 -6507,-953 -11541,-2772 -5045,-1808 -12536,-2663 -22442,-2663 -17722,0 -33928,5337 -48716,16098 -14799,10772 -28992,26404 -42491,46887l-48684 181712 -50882 0z"/>
  <path id="5" class="fil6" d="M7398139 242369c17343,0 32553,2956 45674,8769 13110,5814 23546,14204 31276,25159 7740,10956 12471,24586 14160,40684 1689,16109 -281,34491 -5824,55169 -2144,8011 -4428,13348 -6864,16011 -2425,2674 -6019,4006 -10782,4006l-192679 0c-4514,18295 -6333,34296 -5380,47828 909,13630 4189,24878 9754,34026 5575,9050 13283,15816 23135,20287 9862,4482 21630,6767 35357,6767 12764,0 24228,-1527 34264,-4471 10035,-2956 18815,-6193 26404,-9625 7589,-3431 14052,-6582 19324,-9537 5283,-3042 9494,-4471 12731,-4471 4190,0 6994,1613 8412,4860l9289 18675c-8304,7524 -17592,14095 -27866,19725 -10274,5618 -20851,10198 -31817,13814 -10945,3529 -22074,6289 -33225,8097 -11161,1808 -21976,2674 -32456,2674 -20017,0 -37479,-3431 -52527,-10198 -15059,-6766 -26989,-16671 -35768,-29727 -8802,-13056 -14085,-29252 -15785,-48500 -1710,-19249 791,-41355 7503,-66417 5413,-20201 13608,-39070 24509,-56608 10891,-17527 23828,-32770 38909,-45642 15069,-12861 31968,-22962 50719,-30302 18728,-7329 38583,-11053 59553,-11053zm-8975 37739c-24575,0 -45804,7048 -63721,21251 -17884,14096 -31904,33734 -42047,58785l157505 0c3161,-11811 4438,-22583 3789,-32294 -606,-9819 -3096,-18296 -7492,-25354 -4373,-7145 -10522,-12666 -18523,-16574 -8000,-3909 -17884,-5814 -29511,-5814z"/>
  <path id="6" class="fil6" d="M7708018 536811c-7243,0 -10869,-3529 -10891,-10577l4850 -35162c-16423,15058 -33744,27064 -52072,36115 -18339,9050 -37869,13629 -58449,13629 -16585,0 -30767,-3247 -42589,-9624 -11811,-6387 -20840,-15730 -27065,-28115 -6181,-12482 -9386,-27920 -9570,-46399 -184,-18491 2934,-39742 9386,-63851 5716,-21338 13890,-41160 24564,-59651 10642,-18382 23189,-34296 37620,-47926 14388,-13532 30280,-24109 47785,-31828 17506,-7718 36083,-11616 55710,-11616 17722,0 32056,3042 43022,9051 10978,5997 19974,14387 26967,25246l43055 -160656 50881 0 -112903 421364 -30301 0zm-88675 -37165c16586,0 32196,-3811 46714,-11433 14528,-7621 28851,-18393 43054,-32304l37577 -140260c-5954,-12579 -13781,-21435 -23579,-26490 -9797,-5045 -21489,-7622 -35021,-7622 -27065,0 -50406,9624 -70076,28970 -19649,19248 -34242,46692 -43812,82417 -5056,18870 -7784,35065 -8141,48500 -358,13435 1439,24488 5412,33160 3963,8671 9971,15058 18047,19064 8076,3995 18014,5998 29825,5998z"/>
  <path id="7" class="fil6" d="M7935859 536811l112903 -421364 51163 0 -47244 176288c15968,-14777 33008,-26783 50957,-35833 17960,-9051 36884,-13533 56890,-13533 16780,0 31081,3151 42935,9440 11844,6290 20840,15719 27032,28202 6182,12482 9375,27920 9592,46313 206,18479 -2901,39633 -9332,63645 -5748,21446 -13911,41268 -24585,59748 -10642,18393 -23103,34307 -37480,47742 -14355,13435 -30344,24011 -47947,31730 -17592,7719 -36180,11627 -55613,11627 -18685,0 -33527,-3626 -44613,-10966 -11107,-7232 -19822,-17430 -26036,-30486l-9668 26491c-3496,7340 -8844,10956 -16087,10956l-32867 0zm197214 -253845c-16585,0 -32131,4006 -46789,12103 -14626,8001 -29219,19433 -43639,34113l-36992 138073c5835,12384 13684,21153 23481,26198 9798,5056 21490,7622 35206,7622 27065,0 50416,-9625 70065,-28873 19638,-19248 34231,-46692 43780,-82320 5055,-18869 7773,-35076 8065,-48597 292,-13532 -1581,-24683 -5554,-33354 -3962,-8672 -9992,-14962 -18068,-18967 -8076,-3995 -17928,-5998 -29555,-5998z"/>
  <path id="8" class="fil6" d="M8308225 622573c-2750,3811 -5651,6853 -8845,9148 -3183,2284 -7481,3421 -12818,3421l-37739 0 83208 -113195 -45869 -274717 44018 0c4384,0 7502,1148 9397,3334 1894,2198 3042,4677 3464,7340l27963 184765c595,4190 974,8477 1083,12666 86,4298 -44,8672 -260,13056 2501,-4384 5023,-8758 7502,-13056 2458,-4189 5153,-8574 8044,-12958l124616 -184473c1960,-3053 4655,-5618 7946,-7621 3302,-2003 6539,-3053 9776,-3053l40597 0 -262083 375343z"/>
  <path id="9" class="fil6" d="M8542269 505459c1332,-4947 3540,-9624 6517,-14009 2988,-4384 6485,-8195 10534,-11529 4005,-3237 8401,-5814 13305,-7719 4893,-1905 9808,-2858 14766,-2858 4958,0 9375,953 13251,2858 3865,1905 6993,4482 9364,7719 2350,3334 3898,7145 4526,11529 649,4385 249,9062 -1083,14009 -1397,5240 -3508,9917 -6496,14290 -2966,4298 -6517,8011 -10663,11346 -4103,3237 -8574,5716 -13446,7524 -4871,1808 -9797,2760 -14755,2760 -4959,0 -9365,-952 -13262,-2760 -3897,-1808 -6950,-4287 -9224,-7524 -2251,-3335 -3745,-7048 -4395,-11346 -639,-4373 -336,-9050 1061,-14290zm57453 -214395c1331,-4958 3529,-9624 6517,-14009 2977,-4384 6485,-8195 10523,-11529 4005,-3237 8411,-5814 13305,-7719 4893,-1905 9819,-2858 14777,-2858 4958,0 9364,953 13240,2858 3876,1905 6993,4482 9364,7719 2360,3334 3898,7145 4536,11529 639,4385 249,9051 -1082,14009 -1408,5240 -3508,9906 -6507,14290 -2955,4287 -6517,8011 -10663,11345 -4103,3237 -8574,5717 -13446,7524 -4871,1808 -9786,2761 -14745,2761 -4958,0 -9375,-953 -13272,-2761 -3897,-1807 -6950,-4287 -9224,-7524 -2251,-3334 -3735,-7058 -4395,-11345 -628,-4384 -336,-9050 1072,-14290z"/>
  <path class="fil7" d="M9188161 1910601l-12807 47785 -208073 0 -38572 143962 168461 0 -12320 45978 -168461 0 -39709 148195 208072 0 -12807 47785 -267052 0 116216 -433705 267052 0zm574 229259l149407 0 -12309 45966 -149407 0 12309 -45966zm249460 154842l187514 0 -13294 49604 -246190 0 116215 -433705 58676 0 -102921 384101zm424341 -261910c18339,0 34448,3129 48326,9278 13868,6149 24911,15015 33095,26610 8184,11594 13186,26014 14983,43043 1775,17040 -314,36505 -6171,58373 -2273,8477 -4687,14117 -7253,16943 -2577,2825 -6387,4233 -11421,4233l-203851 0c-4785,19356 -6690,36288 -5694,50611 985,14409 4438,26306 10306,35985 5911,9581 14073,16736 24499,21478 10425,4731 22885,7156 37403,7156 13511,0 25636,-1613 36245,-4742 10620,-3118 19909,-6549 27931,-10176 8032,-3637 14874,-6961 20450,-10090 5607,-3226 10046,-4731 13467,-4731 4439,0 7405,1711 8910,5143l9830 19757c-8802,7968 -18621,14918 -29490,20872 -10869,5944 -22042,10783 -33658,14615 -11583,3724 -23351,6647 -35162,8563 -11800,1916 -23243,2826 -34329,2826 -21175,0 -39655,-3627 -55580,-10783 -15935,-7156 -28537,-17646 -37847,-31460 -9299,-13813 -14885,-30951 -16693,-51314 -1797,-20364 833,-43747 7935,-70260 5727,-21381 14409,-41333 25928,-59889 11519,-18544 25213,-34675 41171,-48294 15946,-13608 33830,-24293 53653,-32055 19822,-7762 40835,-11692 63017,-11692zm-9494 39926c-26004,0 -48468,7459 -67413,22474 -18913,14918 -33766,35693 -44494,62206l166642 0c3356,-12504 4698,-23893 4016,-34178 -638,-10382 -3280,-19356 -7935,-26815 -4623,-7557 -11118,-13414 -19595,-17538 -8476,-4136 -18923,-6149 -31221,-6149zm346719 271588l-23893 0c-5239,0 -9256,-801 -12049,-2414 -2793,-1613 -3973,-5143 -3572,-10393l1591 -28526c-10003,7253 -19627,13814 -28829,19562 -9235,5846 -18599,10685 -28115,14615 -9516,3930 -19302,6950 -29424,8975 -10112,2013 -21068,3020 -32770,3020 -11887,0 -22518,-1710 -32012,-5045 -9495,-3323 -17213,-8368 -23092,-15015 -5878,-6658 -9667,-15124 -11443,-25409 -1808,-10176 -888,-22279 2869,-36288 3269,-12201 9732,-23892 19378,-35086 9689,-11292 23146,-21273 40316,-30042 17137,-8672 38421,-15827 63894,-21370 25484,-5543 55580,-8369 90255,-8369l6452 -24098c6409,-23893 6225,-42037 -682,-54238 -6896,-12298 -20374,-18447 -40326,-18447 -13110,0 -24531,1613 -34394,4937 -9862,3334 -18631,7058 -26285,11194 -7654,4135 -14301,7859 -19941,11194 -5619,3323 -10826,5034 -15459,5034 -3627,0 -6507,-910 -8726,-2826 -2198,-1905 -3800,-4233 -4655,-7048l-5143 -16942c21349,-16434 42882,-28732 64631,-36895 21738,-8162 44494,-12200 68289,-12200 17138,0 31601,2825 43412,8466 11789,5651 20872,13510 27249,23589 6365,10090 9949,22280 10728,36700 801,14312 -1093,30041 -5684,47179l-52570 196186zm-130819 -33268c9472,0 18393,-909 26772,-2825 8379,-1917 16542,-4537 24445,-8066 7870,-3421 15665,-7664 23351,-12698 7686,-4937 15340,-10588 23102,-16943l17008 -63504c-24802,0 -46292,1613 -64479,4731 -18177,3128 -33365,7155 -45631,12298 -12244,5045 -21695,10988 -28472,17852 -6777,6852 -11356,14517 -13651,23080 -2166,8066 -2718,15027 -1657,20872 1061,5846 3291,10686 6712,14421 3443,3724 7957,6441 13543,8162 5597,1711 11898,2620 18957,2620zm212479 33268l82179 -306675 30842 0c5846,0 9560,1213 11151,3529 1602,2317 1992,6453 1267,12201l-9982 50806c16564,-22680 34297,-40326 53101,-52928 18826,-12698 38562,-19053 59337,-19053 8465,0 15859,1007 22203,2923 6312,2013 11941,4741 16835,8271l-17733 40218c-2761,5045 -6561,7567 -11400,7567 -2815,0 -6896,-1007 -12222,-2923 -5337,-1916 -13251,-2826 -23741,-2826 -18751,0 -35888,5641 -51542,17040 -15654,11389 -30670,27920 -44938,49594l-51520 192256 -53837 0zm243765 0l82179 -306675 32056 0c7664,0 11497,3724 11508,11194l-4699 33365c17267,-14820 35390,-26718 54259,-35790 18848,-9072 39017,-13608 60593,-13608 16736,0 30799,2826 42112,8368 11324,5543 19898,13403 25744,23590 5835,10176 8996,22485 9603,36797 595,14312 -1419,30139 -6074,47482l-52321 195277 -53837 0 52321 -195277c6214,-23189 5814,-41235 -1342,-54032 -7156,-12807 -21663,-19259 -43444,-19259 -15925,0 -31763,3833 -47634,11497 -15871,7654 -31471,18144 -46681,31244l-60506 225827 -53837 0zm478373 -306675l-82179 306675 -53826 0 82179 -306675 53826 0zm37869 -96177c-1407,5240 -3703,10079 -7048,14615 -3323,4536 -7231,8574 -11703,12103 -4481,3530 -9364,6344 -14539,8369 -5185,2013 -10392,3020 -15632,3020 -5240,0 -9808,-1007 -13803,-3020 -3995,-2025 -7286,-4839 -9862,-8369 -2588,-3529 -4331,-7567 -5132,-12103 -790,-4536 -509,-9375 899,-14615 1407,-5239 3767,-10284 7047,-15026 3280,-4731 7210,-8866 11692,-12396 4471,-3529 9235,-6246 14312,-8271 5077,-2013 10187,-3020 15427,-3020 5240,0 9905,1007 14008,3020 4093,2025 7503,4742 10090,8271 2577,3530 4298,7665 5142,12396 856,4742 509,9787 -898,15026zm-25073 402852l82179 -306675 32056 0c7664,0 11497,3724 11507,11194l-4698 33365c17267,-14820 35390,-26718 54259,-35790 18848,-9072 39017,-13608 60593,-13608 16736,0 30799,2826 42112,8368 11324,5543 19898,13403 25744,23590 5835,10176 8996,22485 9603,36797 595,14312 -1419,30139 -6074,47482l-52321 195277 -53837 0 52321 -195277c6214,-23189 5814,-41235 -1342,-54032 -7156,-12807 -21663,-19259 -43444,-19259 -15925,0 -31763,3833 -47634,11497 -15871,7654 -31471,18144 -46681,31244l-60506 225827 -53837 0zm522911 -311514c13315,0 25429,1407 36244,4330 10816,2923 20137,7264 28104,12905l83175 0 -5380 20060c-1786,6658 -7178,10988 -16141,12807l-36072 4839c3345,13110 2847,27725 -1472,43856 -3995,14918 -10458,28526 -19476,40727 -9018,12200 -19790,22680 -32294,31351 -12514,8672 -26382,15330 -41647,19963 -15253,4644 -31297,6961 -48034,6961 -14312,0 -27368,-1721 -39179,-5045 -7556,4136 -13586,8574 -18220,13414 -4590,4730 -7567,9472 -8779,14008 -2025,7557 -618,13208 4200,17040 4817,3832 11822,6647 21078,8260 9213,1722 19984,2523 32283,2523 12298,0 24899,0 37706,0 12807,0 25019,1115 36721,3334 11671,2317 21695,5943 29988,11086 8325,5045 14203,12092 17646,21067 3443,8974 3226,20666 -606,34989 -3540,13197 -10220,26101 -20093,38507 -9916,12504 -22334,23493 -37252,33268 -14885,9679 -31990,17441 -51282,23189 -19302,5846 -40153,8769 -62530,8769 -22377,0 -41344,-2219 -56987,-6658 -15644,-4427 -28072,-10382 -37154,-17841 -9094,-7459 -15038,-16130 -17961,-25906 -2923,-9786 -2998,-20060 -129,-30745 4048,-15124 12319,-27931 24737,-38519 12438,-10685 27790,-19053 46193,-25300 -7588,-4038 -13012,-9375 -16336,-16130 -3334,-6756 -3551,-15730 -530,-27022 1169,-4330 3215,-8974 6095,-13705 2858,-4644 6647,-9375 11215,-14020 4536,-4536 9765,-8974 15741,-13207 5965,-4233 12612,-7957 19920,-11183 -12840,-8477 -21609,-19768 -26437,-33777 -4774,-14117 -4698,-30550 325,-49301 4016,-15015 10566,-28526 19595,-40824 9017,-12201 19789,-22680 32380,-31254 12579,-8574 26653,-15222 42112,-19866 15460,-4633 31601,-6950 48533,-6950zm7837 327439c2101,-7860 1668,-14106 -1299,-18848 -2955,-4742 -7729,-8368 -14301,-10988 -6571,-2523 -14430,-4439 -23578,-5651 -9126,-1310 -18946,-1917 -29425,-1917 -10490,0 -21175,0 -32066,0 -10880,0 -20916,-1310 -30074,-4027 -12948,5446 -24001,12093 -33279,19963 -9256,7860 -15394,17235 -18317,28126 -1830,6852 -1743,13305 184,19259 1937,5943 5900,11086 12006,15416 6084,4341 14344,7762 24661,10284 10317,2523 22864,3833 37782,3833 14518,0 27877,-1310 40099,-4027 12190,-2620 23005,-6453 32283,-11400 9299,-4937 16910,-10783 22951,-17538 6073,-6853 10187,-14312 12373,-22485zm-51271 -165333c10891,0 20981,-1515 30150,-4536 9181,-3020 17267,-7253 24380,-12698 7123,-5543 13099,-11995 17938,-19563 4883,-7664 8499,-15925 10956,-25105 5023,-18750 3389,-33668 -5001,-44862 -8434,-11086 -23579,-16629 -45361,-16629 -21576,0 -39482,5543 -53847,16629 -14388,11194 -24142,26112 -29165,44862 -2458,9180 -3151,17441 -2285,25105 899,7568 3400,14020 7568,19563 4179,5445 10003,9678 17451,12698 7470,3021 16531,4536 27216,4536zm702717 -284904l-13294 49604 -140032 0 -102998 384405 -58676 0 102997 -384405 -140638 0 13294 -49604 339347 0zm78087 122798c18339,0 34448,3129 48327,9278 13868,6149 24910,15015 33094,26610 8185,11594 13186,26014 14983,43043 1776,17040 -314,36505 -6171,58373 -2273,8477 -4687,14117 -7253,16943 -2576,2825 -6387,4233 -11421,4233l-203851 0c-4785,19356 -6690,36288 -5694,50611 985,14409 4438,26306 10306,35985 5911,9581 14074,16736 24499,21478 10425,4731 22886,7156 37403,7156 13511,0 25636,-1613 36245,-4742 10620,-3118 19909,-6549 27931,-10176 8033,-3637 14875,-6961 20450,-10090 5608,-3226 10046,-4731 13467,-4731 4439,0 7405,1711 8910,5143l9830 19757c-8802,7968 -18621,14918 -29490,20872 -10869,5944 -22041,10783 -33657,14615 -11584,3724 -23352,6647 -35163,8563 -11800,1916 -23243,2826 -34329,2826 -21175,0 -39655,-3627 -55580,-10783 -15935,-7156 -28536,-17646 -37847,-31460 -9299,-13813 -14885,-30951 -16693,-51314 -1797,-20364 833,-43747 7935,-70260 5727,-21381 14409,-41333 25928,-59889 11519,-18544 25213,-34675 41171,-48294 15946,-13608 33831,-24293 53653,-32055 19822,-7762 40835,-11692 63017,-11692zm-9494 39926c-26004,0 -48468,7459 -67413,22474 -18913,14918 -33766,35693 -44494,62206l166642 0c3356,-12504 4699,-23893 4017,-34178 -639,-10382 -3281,-19356 -7936,-26815 -4622,-7557 -11118,-13414 -19594,-17538 -8477,-4136 -18924,-6149 -31222,-6149zm346719 271588l-23892 0c-5240,0 -9256,-801 -12050,-2414 -2793,-1613 -3973,-5143 -3572,-10393l1591 -28526c-10003,7253 -19627,13814 -28829,19562 -9234,5846 -18599,10685 -28115,14615 -9516,3930 -19302,6950 -29424,8975 -10112,2013 -21067,3020 -32770,3020 -11887,0 -22518,-1710 -32012,-5045 -9494,-3323 -17213,-8368 -23092,-15015 -5878,-6658 -9667,-15124 -11443,-25409 -1808,-10176 -887,-22279 2869,-36288 3270,-12201 9733,-23892 19378,-35086 9690,-11292 23146,-21273 40316,-30042 17137,-8672 38421,-15827 63894,-21370 25484,-5543 55580,-8369 90255,-8369l6452 -24098c6409,-23893 6225,-42037 -682,-54238 -6896,-12298 -20374,-18447 -40326,-18447 -13110,0 -24531,1613 -34394,4937 -9862,3334 -18631,7058 -26285,11194 -7654,4135 -14301,7859 -19941,11194 -5619,3323 -10826,5034 -15459,5034 -3627,0 -6507,-910 -8726,-2826 -2198,-1905 -3800,-4233 -4655,-7048l-5142 -16942c21348,-16434 42881,-28732 64630,-36895 21738,-8162 44494,-12200 68289,-12200 17138,0 31601,2825 43412,8466 11790,5651 20872,13510 27249,23589 6365,10090 9949,22280 10728,36700 801,14312 -1093,30041 -5683,47179l-52571 196186zm-130819 -33268c9472,0 18393,-909 26772,-2825 8379,-1917 16542,-4537 24445,-8066 7870,-3421 15665,-7664 23351,-12698 7687,-4937 15340,-10588 23103,-16943l17007 -63504c-24802,0 -46291,1613 -64479,4731 -18176,3128 -33365,7155 -45631,12298 -12244,5045 -21695,10988 -28472,17852 -6777,6852 -11356,14517 -13651,23080 -2165,8066 -2717,15027 -1657,20872 1061,5846 3292,10686 6713,14421 3442,3724 7957,6441 13543,8162 5597,1711 11897,2620 18956,2620zm212479 33268l82179 -306675 32055 0c7665,0 11497,3724 11508,11194l-4514 31547c15037,-14009 30799,-25398 47190,-34275 16379,-8866 33809,-13305 52353,-13305 20775,0 36072,5749 45794,17235 9721,11497 14734,27021 15113,46681 7210,-11086 15448,-20764 24563,-28829 9127,-8066 18664,-14724 28743,-19963 10068,-5251 20374,-9072 30800,-11497 10425,-2414 20623,-3627 30713,-3627 16130,0 29836,2620 41062,7762 11226,5142 19909,12601 26047,22485 6117,9874 9494,22074 10274,36494 779,14410 -1343,30952 -6312,49496l-52321 195277 -53826 0 52321 -195277c6431,-23990 6073,-42242 -1082,-54638 -7167,-12406 -20721,-18653 -40684,-18653 -8866,0 -17668,1613 -26469,4742 -8791,3118 -17062,7654 -24737,13705 -7676,6052 -14464,13717 -20450,22886 -5987,9170 -10664,19866 -13912,31958l-52321 195277 -53837 0 52322 -195277c6592,-24596 6603,-43043 -44,-55147 -6625,-12092 -19432,-18144 -38388,-18144 -13305,0 -26567,3627 -39883,10783 -13315,7166 -26415,16942 -39178,29240l-61242 228545 -53837 0z"/>
 </g>
</svg>
