<?xml version="1.0" encoding="utf-8"?>
<!-- Generator: Adobe Illustrator 21.0.0, SVG Export Plug-In . SVG Version: 6.00 Build 0)  -->
<svg version="1.1" id="Capa_1" xmlns="http://www.w3.org/2000/svg" xmlns:xlink="http://www.w3.org/1999/xlink" x="0px" y="0px"
	 viewBox="0 0 111 111" style="enable-background:new 0 0 111 111;" xml:space="preserve">
<style type="text/css">
	.st0{fill:#EAEAEA;}
	.st1{fill:#98979C;}
</style>
<g>
	<circle class="st0" cx="55.5" cy="55.5" r="55.5"/>
	<g>
		<path class="st1" d="M47.8,82.4c-1.3,0-2.4-0.5-3.3-1.4l-2.8-2.8c-0.9-1-1.4-2.1-1.4-3.4s0.5-2.4,1.4-3.3l17.9-18l-17.9-18
			c-0.9-0.9-1.4-2-1.4-3.3c0-1.3,0.5-2.4,1.4-3.3l2.8-2.8c0.9-0.9,2-1.4,3.3-1.4s2.5,0.5,3.4,1.4l24.1,24.1c0.9,0.9,1.4,2,1.4,3.3
			c0,1.3-0.5,2.4-1.4,3.4l-24.1,24C50.3,81.8,49.2,82.3,47.8,82.4z"/>
	</g>
</g>
</svg>
