<?xml version="1.0" encoding="utf-8"?>
<!-- Generator: Adobe Illustrator 16.0.0, SVG Export Plug-In . SVG Version: 6.00 Build 0)  -->
<!DOCTYPE svg PUBLIC "-//W3C//DTD SVG 1.1//EN" "http://www.w3.org/Graphics/SVG/1.1/DTD/svg11.dtd">
<svg version="1.1" id="Layer_1" xmlns="http://www.w3.org/2000/svg" xmlns:xlink="http://www.w3.org/1999/xlink" x="0px" y="0px"
	 width="380.667px" height="79.333px" viewBox="0 0 380.667 79.333" enable-background="new 0 0 380.667 79.333"
	 xml:space="preserve">
<rect x="347.333" y="48.667" fill="#FFFFFF" width="20" height="20"/>
<rect x="299.333" y="50" fill="#FFFFFF" width="20.667" height="18.667"/>
<rect x="251" y="50" fill="#FFFFFF" width="23.333" height="18.667"/>
<rect x="200.667" y="50" fill="#FFFFFF" width="25.333" height="18.667"/>
<rect x="156.667" y="50" fill="#FFFFFF" width="19" height="17.126"/>
<rect x="106.667" y="48.667" fill="#FFFFFF" width="25.333" height="20"/>
<rect x="56.667" y="44.662" fill="#FFFFFF" width="27.258" height="24.004"/>
<rect x="15.333" y="48.667" fill="#FFFFFF" width="17.333" height="23.333"/>
<path fill="#575756" d="M33.487,7.042h-22c-2.761,0-5,2.239-5,5v22c0,2.762,2.239,5,5,5h22c2.762,0,5-2.238,5-5v-22
	C38.487,9.282,36.249,7.042,33.487,7.042z M25.915,23.048h-2.242c0,3.583,0,7.994,0,7.994H20.35c0,0,0-4.367,0-7.994h-1.58v-2.824
	h1.58v-1.828c0-1.308,0.621-3.354,3.353-3.354l2.461,0.01v2.742c0,0-1.496,0-1.786,0c-0.291,0-0.705,0.146-0.705,0.77v1.66h2.533
	L25.915,23.048z"/>
<path fill="#575756" d="M81.292,7.042h-22c-2.762,0-5,2.239-5,5v22c0,2.762,2.238,5,5,5h22c2.762,0,5-2.238,5-5v-22
	C86.292,9.282,84.053,7.042,81.292,7.042z M76.654,19.781c0.007,0.141,0.01,0.281,0.01,0.424c0,4.338-3.302,9.34-9.34,9.34
	c-1.854,0-3.579-0.543-5.032-1.475c0.258,0.03,0.519,0.045,0.783,0.045c1.539,0,2.953-0.523,4.076-1.404
	c-1.436-0.026-2.648-0.976-3.065-2.279c0.2,0.038,0.405,0.059,0.617,0.059c0.3,0,0.59-0.04,0.864-0.115
	c-1.5-0.302-2.633-1.629-2.633-3.219c0-0.014,0-0.027,0-0.041c0.443,0.246,0.949,0.394,1.487,0.41
	c-0.881-0.588-1.46-1.594-1.46-2.732c0-0.602,0.162-1.165,0.444-1.65c1.618,1.986,4.038,3.293,6.766,3.43
	c-0.056-0.24-0.085-0.49-0.085-0.748c0-1.813,1.47-3.281,3.283-3.281c0.943,0,1.797,0.398,2.396,1.035
	c0.747-0.146,1.45-0.42,2.085-0.796c-0.246,0.767-0.766,1.41-1.443,1.815c0.664-0.078,1.297-0.255,1.885-0.516
	C77.852,18.74,77.295,19.318,76.654,19.781z"/>
<g>
	<path fill="#575756" d="M129.096,7.042h-22c-2.762,0-5,2.239-5,5v22c0,2.762,2.238,5,5,5h22c2.761,0,5-2.238,5-5v-22
		C134.096,9.282,131.857,7.042,129.096,7.042z M113.729,30.689h-3.431V20.373h3.431V30.689z M112.013,18.963h-0.022
		c-1.15,0-1.895-0.794-1.895-1.783c0-1.013,0.768-1.784,1.939-1.784c1.174,0,1.896,0.771,1.918,1.784
		C113.954,18.169,113.209,18.963,112.013,18.963z M126.096,30.689h-3.43v-5.52c0-1.387-0.496-2.334-1.738-2.334
		c-0.946,0-1.512,0.641-1.76,1.256c-0.091,0.221-0.113,0.526-0.113,0.836v5.762h-3.429c0,0,0.044-9.35,0-10.316h3.429v1.461
		c0.457-0.704,1.271-1.703,3.092-1.703c2.256,0,3.949,1.474,3.949,4.644V30.689z"/>
	<path fill="#575756" d="M119.055,21.867v-0.033c-0.006,0.012-0.015,0.023-0.022,0.033H119.055z"/>
</g>
<g>
	<path fill="#575756" d="M210.455,15.81c-1.271-0.037-2.124,1.24-1.903,2.909c0.219,1.669,1.427,2.835,2.698,2.874
		c1.271,0.037,2.001-1.037,1.782-2.706S211.725,15.849,210.455,15.81z"/>
	<path fill="#575756" d="M210.989,25.009c-1.895-0.021-3.499,1.196-3.499,2.607c0,1.44,1.368,2.639,3.262,2.639
		c2.663,0,3.591-1.125,3.591-2.565c0-0.174-0.021-0.344-0.061-0.508c-0.209-0.815-1.037-1.262-2.066-1.977
		C211.842,25.084,211.43,25.013,210.989,25.009z"/>
	<path fill="#575756" d="M224.704,7.042h-22c-2.761,0-5,2.239-5,5v22c0,2.762,2.239,5,5,5h22c2.762,0,5-2.238,5-5v-22
		C229.704,9.282,227.465,7.042,224.704,7.042z M214.926,18.816c0,1.043-0.577,1.883-1.393,2.521
		c-0.797,0.622-0.947,0.883-0.947,1.411c0,0.451,0.951,1.124,1.389,1.452c1.522,1.142,1.831,1.86,1.831,3.289
		c0,1.782-1.921,3.555-5.044,3.555c-2.74,0-5.053-1.114-5.053-2.896c0-1.81,1.918-3.695,4.658-3.695
		c0.299,0,0.572-0.008,0.855-0.008c-0.375-0.364-0.678-0.679-0.678-1.229c0-0.327,0.104-0.64,0.25-0.92
		c-0.148,0.011-0.301,0.02-0.457,0.02c-2.251,0-3.562-1.581-3.562-3.564c0-1.941,1.995-3.706,4.388-3.706c1.233,0,4.716,0,4.716,0
		l-1.054,1.106h-1.238C214.462,16.65,214.926,17.68,214.926,18.816z M221.698,18.525h-2.176V20.7h-1.088v-2.175h-2.175v-1.088h2.175
		v-2.176h1.088v2.176h2.176V18.525z"/>
</g>
<path fill="#575756" d="M272.508,7.042h-22c-2.762,0-5,2.239-5,5v22c0,2.762,2.238,5,5,5h22c2.762,0,5-2.238,5-5v-22
	C277.508,9.282,275.27,7.042,272.508,7.042z M263.161,26.606c-0.992,0-1.926-0.536-2.245-1.146c0,0-0.534,2.117-0.646,2.526
	c-0.398,1.444-1.569,2.89-1.659,3.007c-0.063,0.083-0.204,0.057-0.219-0.052c-0.025-0.185-0.324-2.007,0.027-3.493
	c0.177-0.746,1.183-5.008,1.183-5.008s-0.294-0.586-0.294-1.453c0-1.363,0.79-2.379,1.773-2.379c0.836,0,1.238,0.627,1.238,1.379
	c0,0.841-0.534,2.098-0.811,3.262c-0.23,0.975,0.488,1.77,1.45,1.77c1.741,0,2.914-2.236,2.914-4.886
	c0-2.015-1.356-3.522-3.824-3.522c-2.787,0-4.524,2.08-4.524,4.402c0,0.801,0.236,1.365,0.606,1.802
	c0.17,0.201,0.193,0.282,0.132,0.513c-0.045,0.169-0.145,0.576-0.188,0.737c-0.061,0.233-0.25,0.315-0.46,0.229
	c-1.284-0.523-1.882-1.93-1.882-3.511c0-2.61,2.201-5.741,6.568-5.741c3.509,0,5.818,2.539,5.818,5.266
	C268.12,23.913,266.115,26.606,263.161,26.606z"/>
<g>
	<path fill="#575756" d="M356.03,28.218c-0.076,0.088-0.159,0.16-0.251,0.219c-0.091,0.057-0.167,0.084-0.226,0.084
		c-0.075,0-0.131-0.02-0.166-0.064c-0.032-0.043-0.05-0.111-0.05-0.207v-3.107h-0.81v3.387c0,0.242,0.048,0.42,0.142,0.541
		c0.096,0.123,0.235,0.182,0.424,0.182c0.151,0,0.309-0.041,0.47-0.129c0.162-0.086,0.317-0.211,0.467-0.375v0.445h0.81v-4.051
		h-0.81V28.218z"/>
	<polygon fill="#575756" points="351.373,24.501 352.316,24.501 352.316,29.193 353.228,29.193 353.228,24.501 354.172,24.501 
		354.172,23.703 351.373,23.703 	"/>
	<path fill="#575756" d="M356.975,20.605c0.124,0,0.222-0.033,0.294-0.102c0.073-0.068,0.11-0.164,0.11-0.283v-2.43
		c0-0.098-0.037-0.176-0.111-0.236s-0.172-0.09-0.293-0.09c-0.11,0-0.201,0.029-0.271,0.09c-0.068,0.061-0.104,0.139-0.104,0.236
		v2.43c0,0.123,0.033,0.217,0.098,0.283C356.762,20.574,356.855,20.605,356.975,20.605z"/>
	<path fill="#575756" d="M358.987,25.093c-0.126,0-0.25,0.031-0.374,0.096c-0.121,0.064-0.237,0.16-0.347,0.281v-1.768h-0.818v5.49
		h0.818v-0.311c0.105,0.125,0.223,0.215,0.347,0.273c0.123,0.061,0.264,0.088,0.423,0.088c0.239,0,0.424-0.074,0.55-0.229
		c0.128-0.154,0.19-0.373,0.19-0.658v-2.248c0-0.332-0.066-0.584-0.202-0.758C359.439,25.179,359.244,25.093,358.987,25.093z
		 M358.942,28.244c0,0.131-0.023,0.223-0.069,0.279c-0.047,0.059-0.119,0.088-0.219,0.088c-0.068,0-0.133-0.016-0.195-0.045
		c-0.063-0.027-0.127-0.078-0.192-0.143V25.9c0.056-0.057,0.11-0.098,0.167-0.125c0.057-0.025,0.114-0.039,0.172-0.039
		c0.108,0,0.193,0.035,0.252,0.105c0.058,0.07,0.085,0.174,0.085,0.313V28.244z"/>
	<path fill="#575756" d="M368.117,7.042h-22c-2.761,0-5,2.239-5,5v22c0,2.762,2.239,5,5,5h22c2.762,0,5-2.238,5-5v-22
		C373.117,9.282,370.878,7.042,368.117,7.042z M359.046,16.804h0.91v3.42c0,0.105,0.021,0.182,0.059,0.229
		c0.037,0.049,0.101,0.072,0.186,0.072c0.066,0,0.152-0.031,0.255-0.094c0.102-0.064,0.195-0.143,0.28-0.24v-3.387h0.912v4.461
		h-0.912v-0.494c-0.167,0.182-0.342,0.322-0.524,0.416c-0.182,0.094-0.357,0.145-0.528,0.145c-0.212,0-0.369-0.068-0.477-0.203
		c-0.106-0.131-0.16-0.33-0.16-0.596V16.804z M355.663,17.824c0-0.346,0.123-0.621,0.367-0.824c0.245-0.205,0.576-0.307,0.99-0.307
		c0.377,0,0.686,0.107,0.928,0.322c0.239,0.215,0.359,0.496,0.359,0.834v2.305c0,0.383-0.117,0.68-0.353,0.898
		c-0.237,0.217-0.563,0.326-0.977,0.326c-0.398,0-0.718-0.113-0.957-0.338c-0.238-0.225-0.358-0.525-0.358-0.904V17.824z
		 M353.18,15.218l0.666,2.418h0.064l0.636-2.418h1.042l-1.194,3.539v2.508h-1.025v-2.396l-1.222-3.65H353.18z M365.117,27.945
		c0,1.613-1.31,2.924-2.923,2.924h-10.155c-1.614,0-2.922-1.311-2.922-2.924v-2.35c0-1.613,1.308-2.924,2.922-2.924h10.155
		c1.613,0,2.923,1.311,2.923,2.924V27.945z"/>
	<path fill="#575756" d="M361.43,25.042c-0.362,0-0.656,0.109-0.886,0.33s-0.344,0.51-0.344,0.859v1.818
		c0,0.391,0.105,0.697,0.313,0.918c0.208,0.225,0.494,0.334,0.856,0.334c0.403,0,0.707-0.104,0.908-0.313
		c0.205-0.211,0.306-0.523,0.306-0.939v-0.207h-0.833v0.184c0,0.238-0.028,0.393-0.08,0.463c-0.054,0.07-0.147,0.105-0.282,0.105
		c-0.129,0-0.221-0.041-0.274-0.123c-0.053-0.084-0.079-0.232-0.079-0.445v-0.762h1.549v-1.033c0-0.385-0.1-0.678-0.299-0.883
		C362.086,25.144,361.801,25.042,361.43,25.042z M361.75,26.634h-0.716v-0.408c0-0.17,0.027-0.293,0.084-0.363
		c0.057-0.076,0.148-0.113,0.277-0.113c0.123,0,0.215,0.037,0.27,0.113c0.056,0.07,0.085,0.193,0.085,0.363V26.634z"/>
</g>
<path fill="#37589B" d="M33.487,43.913h-22c-2.761,0-5,2.24-5,5v22c0,2.762,2.239,5,5,5h22c2.762,0,5-2.238,5-5v-22
	C38.487,46.153,36.249,43.913,33.487,43.913z M25.915,59.918h-2.242c0,3.584,0,7.994,0,7.994H20.35c0,0,0-4.367,0-7.994h-1.58
	v-2.824h1.58v-1.828c0-1.307,0.621-3.354,3.353-3.354l2.461,0.01v2.742c0,0-1.496,0-1.786,0c-0.291,0-0.705,0.146-0.705,0.77v1.66
	h2.533L25.915,59.918z"/>
<path fill="#3AAAE1" d="M81.292,43.913h-22c-2.762,0-5,2.24-5,5v22c0,2.762,2.238,5,5,5h22c2.762,0,5-2.238,5-5v-22
	C86.292,46.153,84.053,43.913,81.292,43.913z M76.654,56.651c0.007,0.141,0.01,0.281,0.01,0.424c0,4.338-3.302,9.34-9.34,9.34
	c-1.854,0-3.579-0.543-5.032-1.475c0.258,0.031,0.519,0.045,0.783,0.045c1.539,0,2.953-0.523,4.076-1.404
	c-1.436-0.025-2.648-0.975-3.065-2.279c0.2,0.039,0.405,0.059,0.617,0.059c0.3,0,0.59-0.039,0.864-0.115
	c-1.5-0.301-2.633-1.629-2.633-3.219c0-0.014,0-0.027,0-0.041c0.443,0.246,0.949,0.395,1.487,0.41
	c-0.881-0.588-1.46-1.594-1.46-2.732c0-0.602,0.162-1.164,0.444-1.65c1.618,1.986,4.038,3.293,6.766,3.43
	c-0.056-0.24-0.085-0.49-0.085-0.748c0-1.813,1.47-3.281,3.283-3.281c0.943,0,1.797,0.398,2.396,1.035
	c0.747-0.146,1.45-0.42,2.085-0.795c-0.246,0.766-0.766,1.41-1.443,1.814c0.664-0.078,1.297-0.254,1.885-0.516
	C77.852,55.61,77.295,56.188,76.654,56.651z"/>
<g>
	<path fill="#02679A" d="M129.096,43.913h-22c-2.762,0-5,2.24-5,5v22c0,2.762,2.238,5,5,5h22c2.761,0,5-2.238,5-5v-22
		C134.096,46.153,131.857,43.913,129.096,43.913z M113.729,67.559h-3.431V57.243h3.431V67.559z M112.013,55.834h-0.022
		c-1.15,0-1.895-0.795-1.895-1.783c0-1.014,0.768-1.785,1.939-1.785c1.174,0,1.896,0.771,1.918,1.785
		C113.954,55.04,113.209,55.834,112.013,55.834z M126.096,67.559h-3.43v-5.52c0-1.387-0.496-2.334-1.738-2.334
		c-0.946,0-1.512,0.641-1.76,1.256c-0.091,0.221-0.113,0.527-0.113,0.836v5.762h-3.429c0,0,0.044-9.35,0-10.316h3.429v1.461
		C119.512,58,120.327,57,122.147,57c2.256,0,3.949,1.475,3.949,4.645V67.559z"/>
	<path fill="#02679A" d="M119.055,58.737v-0.033c-0.006,0.012-0.015,0.023-0.022,0.033H119.055z"/>
</g>
<g>
	<path fill="#DB4A38" d="M210.455,52.68c-1.271-0.037-2.124,1.24-1.903,2.91c0.219,1.668,1.427,2.834,2.698,2.873
		c1.271,0.037,2.001-1.037,1.782-2.705C212.813,54.088,211.725,52.719,210.455,52.68z"/>
	<path fill="#DB4A38" d="M210.989,61.879c-1.895-0.021-3.499,1.197-3.499,2.607c0,1.441,1.368,2.639,3.262,2.639
		c2.663,0,3.591-1.125,3.591-2.564c0-0.174-0.021-0.344-0.061-0.508c-0.209-0.816-1.037-1.262-2.066-1.977
		C211.842,61.956,211.43,61.883,210.989,61.879z"/>
	<path fill="#DB4A38" d="M224.704,43.913h-22c-2.761,0-5,2.24-5,5v22c0,2.762,2.239,5,5,5h22c2.762,0,5-2.238,5-5v-22
		C229.704,46.153,227.465,43.913,224.704,43.913z M214.926,55.686c0,1.043-0.577,1.883-1.393,2.521
		c-0.797,0.621-0.947,0.883-0.947,1.41c0,0.451,0.951,1.125,1.389,1.453c1.522,1.141,1.831,1.859,1.831,3.289
		c0,1.781-1.921,3.555-5.044,3.555c-2.74,0-5.053-1.115-5.053-2.896c0-1.811,1.918-3.695,4.658-3.695
		c0.299,0,0.572-0.008,0.855-0.008c-0.375-0.365-0.678-0.68-0.678-1.23c0-0.326,0.104-0.639,0.25-0.92
		c-0.148,0.012-0.301,0.02-0.457,0.02c-2.251,0-3.562-1.58-3.562-3.564c0-1.941,1.995-3.705,4.388-3.705c1.233,0,4.716,0,4.716,0
		l-1.054,1.105h-1.238C214.462,53.52,214.926,54.551,214.926,55.686z M221.698,55.395h-2.176v2.176h-1.088v-2.176h-2.175v-1.088
		h2.175v-2.176h1.088v2.176h2.176V55.395z"/>
</g>
<path fill="#C91618" d="M272.508,43.913h-22c-2.762,0-5,2.24-5,5v22c0,2.762,2.238,5,5,5h22c2.762,0,5-2.238,5-5v-22
	C277.508,46.153,275.27,43.913,272.508,43.913z M263.161,63.477c-0.992,0-1.926-0.537-2.245-1.146c0,0-0.534,2.117-0.646,2.527
	c-0.398,1.443-1.569,2.889-1.659,3.006c-0.063,0.084-0.204,0.057-0.219-0.051c-0.025-0.186-0.324-2.008,0.027-3.494
	c0.177-0.746,1.183-5.008,1.183-5.008s-0.294-0.586-0.294-1.453c0-1.363,0.79-2.379,1.773-2.379c0.836,0,1.238,0.627,1.238,1.379
	c0,0.842-0.534,2.098-0.811,3.262c-0.23,0.975,0.488,1.77,1.45,1.77c1.741,0,2.914-2.236,2.914-4.885
	c0-2.016-1.356-3.523-3.824-3.523c-2.787,0-4.524,2.08-4.524,4.402c0,0.801,0.236,1.365,0.606,1.803
	c0.17,0.201,0.193,0.281,0.132,0.512c-0.045,0.17-0.145,0.576-0.188,0.738c-0.061,0.232-0.25,0.314-0.46,0.229
	c-1.284-0.523-1.882-1.93-1.882-3.51c0-2.611,2.201-5.742,6.568-5.742c3.509,0,5.818,2.539,5.818,5.266
	C268.12,60.784,266.115,63.477,263.161,63.477z"/>
<g>
	<path fill="#E6282B" d="M356.03,65.088c-0.076,0.088-0.159,0.16-0.251,0.219c-0.091,0.057-0.167,0.084-0.226,0.084
		c-0.075,0-0.131-0.02-0.166-0.064c-0.032-0.043-0.05-0.111-0.05-0.207v-3.107h-0.81v3.387c0,0.242,0.048,0.42,0.142,0.541
		c0.096,0.123,0.235,0.182,0.424,0.182c0.151,0,0.309-0.041,0.47-0.129c0.162-0.086,0.317-0.211,0.467-0.375v0.445h0.81v-4.051
		h-0.81V65.088z"/>
	<polygon fill="#E6282B" points="351.373,61.372 352.316,61.372 352.316,66.063 353.228,66.063 353.228,61.372 354.172,61.372 
		354.172,60.573 351.373,60.573 	"/>
	<path fill="#E6282B" d="M356.975,57.475c0.124,0,0.222-0.033,0.294-0.102c0.073-0.068,0.11-0.164,0.11-0.283v-2.43
		c0-0.098-0.037-0.176-0.111-0.236s-0.172-0.09-0.293-0.09c-0.11,0-0.201,0.029-0.271,0.09c-0.068,0.061-0.104,0.139-0.104,0.236
		v2.43c0,0.123,0.033,0.217,0.098,0.283C356.762,57.444,356.855,57.475,356.975,57.475z"/>
	<path fill="#E6282B" d="M358.987,61.963c-0.126,0-0.25,0.031-0.374,0.096c-0.121,0.064-0.237,0.16-0.347,0.281v-1.768h-0.818v5.49
		h0.818v-0.311c0.105,0.125,0.223,0.215,0.347,0.273c0.123,0.061,0.264,0.088,0.423,0.088c0.239,0,0.424-0.074,0.55-0.229
		c0.128-0.154,0.19-0.373,0.19-0.658v-2.248c0-0.332-0.066-0.584-0.202-0.758C359.439,62.049,359.244,61.963,358.987,61.963z
		 M358.942,65.114c0,0.131-0.023,0.223-0.069,0.279c-0.047,0.059-0.119,0.088-0.219,0.088c-0.068,0-0.133-0.016-0.195-0.045
		c-0.063-0.027-0.127-0.078-0.192-0.143V62.77c0.056-0.057,0.11-0.098,0.167-0.125c0.057-0.025,0.114-0.039,0.172-0.039
		c0.108,0,0.193,0.035,0.252,0.105c0.058,0.07,0.085,0.174,0.085,0.313V65.114z"/>
	<path fill="#E6282B" d="M368.117,43.913h-22c-2.761,0-5,2.24-5,5v22c0,2.762,2.239,5,5,5h22c2.762,0,5-2.238,5-5v-22
		C373.117,46.153,370.878,43.913,368.117,43.913z M359.046,53.674h0.91v3.42c0,0.105,0.021,0.182,0.059,0.229
		c0.037,0.049,0.101,0.072,0.186,0.072c0.066,0,0.152-0.031,0.255-0.094c0.102-0.064,0.195-0.143,0.28-0.24v-3.387h0.912v4.461
		h-0.912v-0.494c-0.167,0.182-0.342,0.322-0.524,0.416c-0.182,0.094-0.357,0.145-0.528,0.145c-0.212,0-0.369-0.068-0.477-0.203
		c-0.106-0.131-0.16-0.33-0.16-0.596V53.674z M355.663,54.694c0-0.346,0.123-0.621,0.367-0.824c0.245-0.205,0.576-0.307,0.99-0.307
		c0.377,0,0.686,0.107,0.928,0.322c0.239,0.215,0.359,0.496,0.359,0.834v2.305c0,0.383-0.117,0.68-0.353,0.898
		c-0.237,0.217-0.563,0.326-0.977,0.326c-0.398,0-0.718-0.113-0.957-0.338c-0.238-0.225-0.358-0.525-0.358-0.904V54.694z
		 M353.18,52.088l0.666,2.418h0.064l0.636-2.418h1.042l-1.194,3.539v2.508h-1.025v-2.396l-1.222-3.65H353.18z M365.117,64.815
		c0,1.613-1.31,2.924-2.923,2.924h-10.155c-1.614,0-2.922-1.311-2.922-2.924v-2.35c0-1.613,1.308-2.924,2.922-2.924h10.155
		c1.613,0,2.923,1.311,2.923,2.924V64.815z"/>
	<path fill="#E6282B" d="M361.43,61.913c-0.362,0-0.656,0.109-0.886,0.33s-0.344,0.51-0.344,0.859v1.818
		c0,0.391,0.105,0.697,0.313,0.918c0.208,0.225,0.494,0.334,0.856,0.334c0.403,0,0.707-0.104,0.908-0.313
		c0.205-0.211,0.306-0.523,0.306-0.939v-0.207h-0.833v0.184c0,0.238-0.028,0.393-0.08,0.463c-0.054,0.07-0.147,0.105-0.282,0.105
		c-0.129,0-0.221-0.041-0.274-0.123c-0.053-0.084-0.079-0.232-0.079-0.445v-0.762h1.549v-1.033c0-0.385-0.1-0.678-0.299-0.883
		C362.086,62.014,361.801,61.913,361.43,61.913z M361.75,63.504h-0.716v-0.408c0-0.17,0.027-0.293,0.084-0.363
		c0.057-0.076,0.148-0.113,0.277-0.113c0.123,0,0.215,0.037,0.27,0.113c0.056,0.07,0.085,0.193,0.085,0.363V63.504z"/>
</g>
<path fill="#575756" d="M319.92,7.042h-22c-2.761,0-5,2.239-5,5v22c0,2.762,2.239,5,5,5h22c2.761,0,5-2.238,5-5v-22
	C324.92,9.282,322.681,7.042,319.92,7.042z M316.84,19.414c-0.895,5.036-5.889,9.301-7.392,10.275s-2.874-0.39-3.37-1.422
	c-0.57-1.177-2.275-7.554-2.722-8.082c-0.446-0.527-1.787,0.528-1.787,0.528l-0.649-0.852c0,0,2.721-3.25,4.791-3.657
	c2.196-0.431,2.193,3.372,2.722,5.482c0.511,2.042,0.854,3.21,1.3,3.21c0.447,0,1.3-1.139,2.233-2.884
	c0.935-1.747-0.04-3.291-1.868-2.193C310.829,15.433,317.734,14.378,316.84,19.414z"/>
<path fill="#1EB7EA" d="M319.92,43.913h-22c-2.761,0-5,2.24-5,5v22c0,2.762,2.239,5,5,5h22c2.761,0,5-2.238,5-5v-22
	C324.92,46.153,322.681,43.913,319.92,43.913z M316.84,56.284c-0.895,5.037-5.889,9.301-7.392,10.275s-2.874-0.389-3.37-1.422
	c-0.57-1.176-2.275-7.553-2.722-8.082c-0.446-0.527-1.787,0.529-1.787,0.529l-0.649-0.852c0,0,2.721-3.25,4.791-3.658
	c2.196-0.43,2.193,3.373,2.722,5.482c0.511,2.043,0.854,3.211,1.3,3.211c0.447,0,1.3-1.139,2.233-2.885
	c0.935-1.746-0.04-3.291-1.868-2.193C310.829,52.303,317.734,51.249,316.84,56.284z"/>
<path fill="#575756" d="M176.725,7.042h-22c-2.761,0-5,2.239-5,5v22c0,2.762,2.239,5,5,5h22c2.761,0,5-2.238,5-5v-22
	C181.725,9.282,179.486,7.042,176.725,7.042z M161.274,26.591c-1.96,0-3.549-1.59-3.549-3.549s1.589-3.548,3.549-3.548
	c1.959,0,3.549,1.589,3.549,3.548S163.233,26.591,161.274,26.591z M170.176,26.591c-1.959,0-3.548-1.59-3.548-3.549
	s1.589-3.548,3.548-3.548c1.96,0,3.549,1.589,3.549,3.548S172.136,26.591,170.176,26.591z"/>
<path fill="#E72684" d="M176.725,43.913h-22c-2.761,0-5,2.24-5,5v22c0,2.762,2.239,5,5,5h22c2.761,0,5-2.238,5-5v-22
	C181.725,46.153,179.486,43.913,176.725,43.913z M161.274,63.461c-1.96,0-3.549-1.59-3.549-3.549s1.589-3.547,3.549-3.547
	c1.959,0,3.549,1.588,3.549,3.547S163.233,63.461,161.274,63.461z M170.176,63.461c-1.959,0-3.548-1.59-3.548-3.549
	s1.589-3.547,3.548-3.547c1.96,0,3.549,1.588,3.549,3.547S172.136,63.461,170.176,63.461z"/>
</svg>
