<?xml version="1.0" encoding="UTF-8"?>
<!DOCTYPE svg PUBLIC "-//W3C//DTD SVG 1.1//EN" "http://www.w3.org/Graphics/SVG/1.1/DTD/svg11.dtd">
<!-- Creator: CorelDRAW X7 -->
<svg xmlns="http://www.w3.org/2000/svg" xml:space="preserve" width="27.3144mm" height="16.277mm" version="1.1" style="shape-rendering:geometricPrecision; text-rendering:geometricPrecision; image-rendering:optimizeQuality; fill-rule:evenodd; clip-rule:evenodd"
viewBox="0 0 1683029 1002938"
 xmlns:xlink="http://www.w3.org/1999/xlink">
 <defs>
  <style type="text/css">
   <![CDATA[
    .str0 {stroke:red;stroke-width:26082.4}
    .fil2 {fill:none}
    .fil0 {fill:black;fill-rule:nonzero}
    .fil1 {fill:red;fill-rule:nonzero}
   ]]>
  </style>
 </defs>
 <g id="Layer_x0020_1">
  <metadata id="CorelCorpID_0Corel-Layer"/>
  <polygon class="fil0" points="1042102,421761 1003641,382253 864325,522604 726057,384335 685513,421761 825864,562112 683430,703499 722939,743007 864325,600574 1006758,743007 1047302,703499 903834,562112 "/>
  <path id="1" class="fil1" d="M177130 389530c48862,67575 85253,133074 107084,194413 22872,61340 34308,139310 34308,233917l17672 0c21837,-77970 34308,-130992 34308,-190255 0,-40544 -8318,-84212 -20789,-129950 25990,-4159 42620,-8318 47821,-12477 6235,-4160 16636,-16637 30149,-38468 21831,20796 44703,38468 79011,38468 36391,0 61340,-20796 72776,-62381 12477,-42621 18713,-91483 18713,-148663l0 -32232 -17672 0c-9359,38467 -22872,66540 -65499,66540 -24948,0 -41585,-33273 -50938,-66540l-17678 0c-11436,48862 -33267,93565 -96683,93565 -27031,0 -47827,-7277 -63416,-22866 -15595,-15595 -34309,-39509 -58222,-72776l-50945 149705z"/>
  <path id="2" class="fil1" d="M1122155 389530c48862,67575 85253,133074 107084,194413 22872,61340 34308,139310 34308,233917l17672 0c21837,-77970 34308,-130992 34308,-190255 0,-40544 -8318,-84212 -20790,-129950 25990,-4159 42621,-8318 47821,-12477 6236,-4160 16637,-16637 30149,-38468 21831,20796 44703,38468 79012,38468 36391,0 61339,-20796 72775,-62381 12478,-42621 18713,-91483 18713,-148663l0 -32232 -17671 0c-9360,38467 -22872,66540 -65499,66540 -24949,0 -41585,-33273 -50939,-66540l-17678 0c-11436,48862 -33267,93565 -96683,93565 -27031,0 -47827,-7277 -63416,-22866 -15595,-15595 -34308,-39509 -58222,-72776l-50944 149705z"/>
  <rect class="fil2 str0" x="13044" y="13043" width="1656940" height="976852" rx="474973" ry="474973"/>
 </g>
</svg>
