<?xml version="1.0" encoding="UTF-8"?>
<!DOCTYPE svg PUBLIC "-//W3C//DTD SVG 1.1//EN" "http://www.w3.org/Graphics/SVG/1.1/DTD/svg11.dtd">
<!-- Creator: CorelDRAW X7 -->
<svg xmlns="http://www.w3.org/2000/svg" xml:space="preserve" width="2.72841in" height="2.02021in" version="1.1" style="shape-rendering:geometricPrecision; text-rendering:geometricPrecision; image-rendering:optimizeQuality; fill-rule:evenodd; clip-rule:evenodd"
viewBox="0 0 3098 2294"
 xmlns:xlink="http://www.w3.org/1999/xlink">
 <defs>
  <style type="text/css">
   <![CDATA[
    .fil2 {fill:#441600}
    .fil3 {fill:#AB5623}
    .fil0 {fill:white}
    .fil4 {fill:#663300;fill-rule:nonzero}
    .fil1 {fill:white;fill-rule:nonzero}
   ]]>
  </style>
 </defs>
 <g id="Layer_x0020_1">
  <metadata id="CorelCorpID_0Corel-Layer"/>
  <path class="fil0" d="M2397 225c-199,0 -361,174 -361,389 0,80 23,155 61,217 -28,25 -55,53 -81,85 -37,-50 -76,-93 -119,-130 -17,22 -37,43 -58,62 80,-83 130,-199 130,-328 0,-250 -188,-453 -420,-453 -232,0 -420,203 -420,453 0,129 50,246 130,328 -21,-19 -41,-40 -59,-62 -42,37 -82,80 -118,130 -26,-32 -53,-60 -82,-85 39,-62 62,-137 62,-217 0,-215 -162,-389 -361,-389 -200,0 -361,174 -361,389 0,80 22,155 61,217 -199,174 -334,516 -334,910 0,283 469,373 836,308 256,245 979,226 1265,5 370,60 862,-58 862,-313 0,-394 -134,-736 -333,-910 39,-62 61,-137 61,-217 0,-215 -161,-389 -361,-389z"/>
  <path class="fil1" d="M2397 292c-80,0 -153,35 -206,92 -54,59 -87,140 -87,230 0,33 4,65 13,95 8,31 21,60 38,86l30 49 -43 37c-13,12 -26,24 -37,36 -13,13 -25,27 -37,41l-54 67 -52 -69c-17,-24 -35,-45 -53,-65l-8 -9c-6,6 -12,11 -18,16l-92 -97c34,-36 63,-79 82,-128 18,-46 28,-98 28,-153 0,-107 -40,-204 -104,-274 -64,-69 -152,-111 -248,-111 -97,0 -184,42 -248,111 -64,70 -105,167 -105,274 0,55 11,107 29,154 19,48 48,91 82,127l-92 97c-6,-5 -12,-10 -18,-16l-9 9c-17,20 -35,41 -52,65l-52 69 -55 -67c-11,-14 -23,-28 -36,-41 -12,-13 -25,-25 -37,-36l-43 -37 30 -49c17,-26 30,-55 38,-86 9,-30 13,-62 13,-95 0,-90 -33,-171 -87,-230 -53,-57 -126,-92 -206,-92 -81,0 -153,35 -206,92 -55,59 -88,140 -88,230 0,33 5,65 13,95 9,31 21,60 38,86l30 49 -43 37c-92,82 -170,204 -225,354 -54,147 -85,320 -85,506 0,11 1,21 2,30l0 0c13,73 77,129 166,167 101,43 232,64 367,64 75,0 150,-7 222,-19l33 -6 25 24c111,107 330,158 557,158 241,1 485,-54 620,-158l22 -18 29 5c59,9 123,14 188,14 148,0 296,-25 410,-72 102,-42 174,-99 185,-169l0 0c1,-6 2,-13 2,-20 0,-186 -31,-359 -85,-506 -55,-150 -133,-273 -225,-354l-43 -38 30 -48c16,-26 29,-55 38,-86 8,-30 13,-62 13,-95 0,-90 -34,-171 -88,-230l0 0c-53,-57 -125,-92 -206,-92zm-304 1c77,-84 185,-136 304,-136 119,0 227,52 305,136l0 0c76,82 124,196 124,321 0,45 -7,90 -19,131 -7,25 -16,50 -26,73 92,94 169,221 223,370 60,162 94,351 94,553 0,13 -1,27 -4,41l0 0c-20,122 -123,213 -267,272 -131,54 -298,83 -461,83 -60,0 -122,-4 -181,-13 -161,112 -424,171 -678,170 -243,-1 -482,-57 -624,-173 -69,10 -142,16 -213,16 -152,0 -302,-25 -420,-75 -130,-56 -223,-144 -245,-267l0 0c-3,-19 -5,-37 -5,-54 0,-202 34,-391 93,-553 55,-149 132,-277 224,-371 -11,-23 -20,-47 -27,-72 -11,-41 -18,-86 -18,-131 0,-125 48,-239 124,-321 78,-84 185,-136 305,-136 119,0 226,52 304,136 28,30 52,64 71,101 22,-92 66,-174 127,-240 88,-95 210,-154 346,-154 135,0 258,59 346,154 61,66 105,148 127,240 19,-37 43,-71 71,-101zm-89 503c-6,-16 -12,-32 -17,-49 -3,7 -6,14 -10,21 9,9 18,18 27,28zm-883 -28c-4,-7 -7,-14 -11,-21 -4,17 -10,33 -17,50 9,-10 18,-20 28,-29z"/>
  <circle class="fil2" cx="2378" cy="691" r="349"/>
  <path class="fil2" d="M2088 958c-192,156 -322,463 -322,816 0,418 1224,367 1224,0 0,-353 -130,-660 -322,-816 -70,82 -174,134 -290,134 -116,0 -220,-52 -290,-134z"/>
  <circle class="fil2" cx="737" cy="691" r="349"/>
  <path class="fil2" d="M447 958c-192,156 -322,463 -322,816 0,418 1224,367 1224,0 0,-353 -130,-660 -322,-816 -70,82 -174,134 -290,134 -116,0 -220,-52 -290,-134z"/>
  <circle class="fil2" cx="1557" cy="607" r="406"/>
  <path class="fil2" d="M1220 918c-223,182 -375,538 -375,949 0,486 1425,427 1425,0 0,-411 -152,-767 -375,-949 -81,95 -202,156 -338,156 -135,0 -256,-61 -337,-156z"/>
  <circle class="fil3" cx="2378" cy="610" r="349"/>
  <path class="fil4" d="M2378 288c-89,0 -170,36 -228,94 -58,58 -94,139 -94,228 0,89 36,169 94,228 58,58 139,94 228,94 89,0 169,-36 228,-94 58,-59 94,-139 94,-228 0,-89 -36,-170 -94,-228l0 0c-59,-58 -139,-94 -228,-94zm-266 56c68,-68 162,-110 266,-110 103,0 197,42 266,110l0 0 0 0 0 0c68,68 110,162 110,266 0,104 -42,198 -110,266 -68,68 -162,110 -266,110 -104,0 -198,-42 -266,-110 -68,-68 -110,-162 -110,-266 0,-104 42,-198 110,-266z"/>
  <path class="fil3" d="M2088 877c-192,157 -322,463 -322,816 0,419 1224,367 1224,0 0,-353 -130,-659 -322,-816 -70,83 -174,135 -290,135 -116,0 -220,-52 -290,-135z"/>
  <path class="fil4" d="M2086 915c-86,76 -158,184 -209,314 -54,135 -85,294 -85,464 0,130 140,211 321,247 76,15 160,22 243,21 84,0 169,-8 247,-24 201,-38 360,-123 360,-244 0,-170 -31,-329 -84,-464 -51,-130 -124,-238 -209,-314 -35,35 -76,65 -121,86 -52,24 -110,38 -171,38 -61,0 -119,-14 -171,-38 -46,-21 -87,-51 -121,-86zm-259 294c58,-147 142,-269 243,-351l1 -1c11,-10 28,-8 37,3 33,39 75,71 122,92 45,21 95,33 148,33 53,0 103,-12 148,-33 47,-21 88,-53 121,-92l0 0c10,-11 26,-13 38,-3 101,82 185,204 244,352 56,142 88,307 88,484 0,152 -179,254 -404,297 -81,16 -169,24 -257,25 -87,0 -174,-7 -253,-23 -206,-40 -364,-137 -364,-299 0,-177 32,-342 88,-484z"/>
  <circle class="fil3" cx="737" cy="610" r="349"/>
  <path class="fil4" d="M737 288c-89,0 -169,36 -228,94 -58,58 -94,139 -94,228 0,89 36,169 94,228 59,58 139,94 228,94 89,0 170,-36 228,-94 58,-59 94,-139 94,-228 0,-89 -36,-170 -94,-228 -58,-58 -139,-94 -228,-94zm-266 56c68,-68 162,-110 266,-110 104,0 198,42 266,110 68,68 110,162 110,266 0,104 -42,198 -110,266 -68,68 -162,110 -266,110 -104,0 -198,-42 -266,-110 -68,-68 -110,-162 -110,-266 0,-104 42,-198 110,-266z"/>
  <path class="fil3" d="M447 877c-192,157 -322,463 -322,816 0,419 1224,367 1224,0 0,-353 -130,-659 -322,-816 -70,83 -174,135 -290,135 -116,0 -220,-52 -290,-135z"/>
  <path class="fil4" d="M445 915c-86,76 -158,184 -209,314 -53,135 -84,294 -84,464 0,130 139,211 320,247 76,15 160,22 244,21 83,0 168,-8 247,-24 200,-38 360,-123 360,-244 0,-170 -31,-329 -85,-464 -51,-130 -123,-238 -209,-314 -34,35 -75,65 -121,86 -52,24 -110,38 -171,38 -61,0 -119,-14 -171,-38 -45,-21 -86,-51 -121,-86zm-259 294c58,-147 142,-269 243,-351l1 -1c11,-10 28,-8 38,3 33,39 74,71 121,92 45,21 95,33 148,33 53,0 103,-12 148,-33 47,-21 88,-53 121,-92l0 0c10,-11 26,-13 38,-3 101,82 186,204 244,352 56,142 88,307 88,484 0,152 -179,254 -403,297 -82,16 -170,24 -257,25 -88,0 -175,-7 -254,-23 -206,-40 -364,-137 -364,-299 0,-177 32,-342 88,-484z"/>
  <circle class="fil3" cx="1557" cy="526" r="406"/>
  <path class="fil4" d="M1557 147c-104,0 -199,42 -268,111 -68,68 -111,163 -111,268 0,105 43,199 111,268 69,69 164,111 268,111 105,0 200,-42 269,-111 68,-69 111,-163 111,-268 0,-105 -43,-200 -111,-268 -69,-69 -164,-111 -269,-111zm-306 73c79,-79 187,-127 306,-127 120,0 228,48 307,127 78,78 126,186 126,306 0,119 -48,228 -126,306 -79,78 -187,127 -307,127 -119,0 -227,-49 -306,-127 -78,-78 -126,-187 -126,-306 0,-120 48,-228 126,-306z"/>
  <path class="fil3" d="M1220 837c-223,182 -375,539 -375,949 0,487 1425,427 1425,0 0,-410 -152,-767 -375,-949 -81,96 -202,156 -338,156 -135,0 -256,-60 -337,-156z"/>
  <path class="fil4" d="M1218 874c-102,89 -187,217 -247,370 -63,159 -99,344 -99,542 0,154 164,249 376,291 89,18 187,26 284,25 98,0 197,-10 289,-28 235,-45 422,-145 422,-288 0,-198 -36,-383 -99,-542 -60,-153 -146,-281 -247,-370 -40,43 -89,78 -143,103 -60,28 -126,43 -197,43 -70,0 -136,-15 -196,-43 -54,-25 -103,-60 -143,-103zm-297 350c67,-170 165,-311 281,-407l1 0c11,-10 28,-9 38,3 39,45 87,83 142,108 53,25 112,38 174,38 63,0 122,-13 175,-38 55,-25 103,-63 142,-108l0 0c10,-11 26,-13 37,-4 118,96 216,237 283,408 65,165 103,357 103,562 0,174 -207,291 -466,341 -95,18 -197,28 -298,29 -102,0 -203,-8 -295,-26 -237,-47 -420,-159 -420,-344 0,-205 38,-397 103,-562z"/>
 </g>
</svg>
