<?xml version="1.0" encoding="UTF-8"?>
<!DOCTYPE svg PUBLIC "-//W3C//DTD SVG 1.1//EN" "http://www.w3.org/Graphics/SVG/1.1/DTD/svg11.dtd">
<!-- Creator: CorelDRAW X7 -->
<svg xmlns="http://www.w3.org/2000/svg" xml:space="preserve" width="27.3144mm" height="16.277mm" version="1.1" style="shape-rendering:geometricPrecision; text-rendering:geometricPrecision; image-rendering:optimizeQuality; fill-rule:evenodd; clip-rule:evenodd"
viewBox="0 0 3734490 2225430"
 xmlns:xlink="http://www.w3.org/1999/xlink">
 <defs>
  <style type="text/css">
   <![CDATA[
    .str0 {stroke:red;stroke-width:57874.6}
    .fil2 {fill:none}
    .fil0 {fill:black;fill-rule:nonzero}
    .fil1 {fill:red;fill-rule:nonzero}
   ]]>
  </style>
 </defs>
 <g id="Layer_x0020_1">
  <metadata id="CorelCorpID_0Corel-Layer"/>
  <polygon class="fil0" points="2255386,946228 2170044,858562 1860915,1169988 1554110,863183 1464146,946228 1775573,1257655 1459525,1571378 1547192,1659044 1860915,1342997 2176962,1659044 2266926,1571378 1948581,1257655 "/>
  <path id="1" class="fil1" d="M938189 789353l46130 -265282c-288347,221463 -475206,415226 -475206,572101 0,64587 66898,106110 269904,168401 -69209,69195 -124582,126878 -166104,175319 -39212,48441 -59967,110731 -59967,191466 0,69209 46131,115339 136094,138404 89977,23079 205316,41536 341423,53062l89963 -322952c-78437,-6932 -154564,-18458 -228381,-34604 -71506,-16147 -108421,-32294 -108421,-53062 0,-39212 43834,-103814 133797,-191466 89963,-87667 133796,-145336 133796,-170712 0,-13836 -48440,-36901 -147632,-76127 -96896,-36901 -145336,-66898 -145336,-83045 0,-20755 20768,-43833 64587,-59980l115353 -41523z"/>
  <path id="2" class="fil1" d="M3035114 789353l46130 -265282c-288347,221463 -475206,415226 -475206,572101 0,64587 66898,106110 269904,168401 -69209,69195 -124582,126878 -166104,175319 -39212,48441 -59967,110731 -59967,191466 0,69209 46131,115339 136094,138404 89977,23079 205316,41536 341423,53062l89963 -322952c-78437,-6932 -154564,-18458 -228381,-34604 -71506,-16147 -108421,-32294 -108421,-53062 0,-39212 43834,-103814 133797,-191466 89963,-87667 133797,-145336 133797,-170712 0,-13836 -48441,-36901 -147633,-76127 -96895,-36901 -145336,-66898 -145336,-83045 0,-20755 20768,-43833 64587,-59980l115353 -41523z"/>
  <rect class="fil2 str0" x="28944" y="28942" width="3676602" height="2167547" rx="1053924" ry="1053924"/>
 </g>
</svg>
