<?xml version="1.0" encoding="UTF-8"?>
<!DOCTYPE svg PUBLIC "-//W3C//DTD SVG 1.1//EN" "http://www.w3.org/Graphics/SVG/1.1/DTD/svg11.dtd">
<!-- Creator: CorelDRAW X7 -->
<svg xmlns="http://www.w3.org/2000/svg" xml:space="preserve" width="46.2333mm" height="20.3508mm" version="1.1" style="shape-rendering:geometricPrecision; text-rendering:geometricPrecision; image-rendering:optimizeQuality; fill-rule:evenodd; clip-rule:evenodd"
viewBox="0 0 7029090 3094038"
 xmlns:xlink="http://www.w3.org/1999/xlink">
 <defs>
  <style type="text/css">
   <![CDATA[
    .str0 {stroke:#BC7718;stroke-width:11585.1}
    .str1 {stroke:white;stroke-width:11585.1}
    .fil9 {fill:none}
    .fil6 {fill:#663300}
    .fil2 {fill:#7E432D}
    .fil11 {fill:#CC9933}
    .fil10 {fill:#FFFF99}
    .fil1 {fill:#FFFFCB}
    .fil12 {fill:url(#id4)}
    .fil7 {fill:url(#id5)}
    .fil0 {fill:url(#id6)}
    .fil13 {fill:url(#id7)}
    .fil4 {fill:url(#id8)}
    .fil3 {fill:url(#id9)}
    .fil8 {fill:url(#id10)}
    .fil5 {fill:url(#id11)}
   ]]>
  </style>
   <mask id="id0">
  <linearGradient id="id1" gradientUnits="userSpaceOnUse" x1="438242" y1="1.52614e+006" x2="438242" y2="1.59362e+006">
   <stop offset="0" style="stop-opacity:1; stop-color:white"/>
   <stop offset="1" style="stop-opacity:0; stop-color:white"/>
  </linearGradient>
    <rect style="fill:url(#id1)" x="338734" y="1460374" width="198999" height="198999"/>
   </mask>
   <mask id="id2">
  <linearGradient id="id3" gradientUnits="userSpaceOnUse" x1="6.64476e+006" y1="1.52614e+006" x2="6.64476e+006" y2="1.59362e+006">
   <stop offset="0" style="stop-opacity:1; stop-color:white"/>
   <stop offset="1" style="stop-opacity:0; stop-color:white"/>
  </linearGradient>
    <rect style="fill:url(#id3)" x="6545268" y="1460374" width="198999" height="198999"/>
   </mask>
  <linearGradient id="id4" gradientUnits="userSpaceOnUse" x1="6.64476e+006" y1="1.47228e+006" x2="6.64476e+006" y2="1.64745e+006">
   <stop offset="0" style="stop-opacity:1; stop-color:#663300"/>
   <stop offset="1" style="stop-opacity:1; stop-color:#CC9933"/>
  </linearGradient>
  <linearGradient id="id5" gradientUnits="userSpaceOnUse" xlink:href="#id4" x1="438226" y1="1.47228e+006" x2="438226" y2="1.64745e+006">
  </linearGradient>
  <linearGradient id="id6" gradientUnits="userSpaceOnUse" x1="3.92702e+006" y1="-459952" x2="3.10205e+006" y2="3.55399e+006">
   <stop offset="0" style="stop-opacity:1; stop-color:#BF772B"/>
   <stop offset="1" style="stop-opacity:1; stop-color:#A26C2E"/>
  </linearGradient>
  <radialGradient id="id7" gradientUnits="userSpaceOnUse" gradientTransform="matrix(0.00135648 1.26017 -1.26051 0.00135648 8.5357E+006 -6.79525E+006)" cx="6.60917e+006" cy="1.53549e+006" r="54063.7" fx="6.60917e+006" fy="1.53549e+006">
   <stop offset="0" style="stop-opacity:1; stop-color:#FFFF99"/>
   <stop offset="1" style="stop-opacity:1; stop-color:#CC9933"/>
  </radialGradient>
  <radialGradient id="id8" gradientUnits="userSpaceOnUse" gradientTransform="matrix(1.24665E-005 -0.395676 -1.09263 -2.47292E-005 4.80714E+006 2.70818E+006)" cx="3.2557e+006" cy="1.41995e+006" r="2.62802e+006" fx="3.2557e+006" fy="1.41995e+006">
   <stop offset="0" style="stop-opacity:1; stop-color:#FFE1BB"/>
   <stop offset="1" style="stop-opacity:1; stop-color:#FDCF8F"/>
  </radialGradient>
  <radialGradient id="id9" gradientUnits="userSpaceOnUse" gradientTransform="matrix(1.24664E-005 -0.400639 -1.09262 -2.50394E-005 4.78602E+006 2.71203E+006)" cx="3.24211e+006" cy="1.41308e+006" r="2.7477e+006" fx="3.24211e+006" fy="1.41308e+006">
   <stop offset="0" style="stop-opacity:1; stop-color:#FFD6A1"/>
   <stop offset="1" style="stop-opacity:1; stop-color:#FDBD66"/>
  </radialGradient>
  <radialGradient id="id10" gradientUnits="userSpaceOnUse" gradientTransform="matrix(0.00135648 1.26017 -1.26051 0.00135648 2.33759E+006 1.02603E+006)" xlink:href="#id7" cx="402635" cy="1.53549e+006" r="54063.7" fx="402635" fy="1.53549e+006">
  </radialGradient>
  <radialGradient id="id11" gradientUnits="userSpaceOnUse" gradientTransform="matrix(1.24674E-005 -0.392702 -1.0927 -2.45432E-005 4.87212E+006 2.73466E+006)" cx="3.30015e+006" cy="1.43865e+006" r="2.23677e+006" fx="3.30015e+006" fy="1.43865e+006">
   <stop offset="0" style="stop-opacity:1; stop-color:#FFEBB9"/>
   <stop offset="1" style="stop-opacity:1; stop-color:#FDE09C"/>
  </radialGradient>
 </defs>
 <g id="Layer_x0020_1">
  <metadata id="CorelCorpID_0Corel-Layer"/>
  <path class="fil0" d="M3547149 0c-68279,0 -136072,53988 -203378,54885 -483624,6400 -941219,49350 -1353432,139522 -214735,46964 -417170,106775 -604538,180862 -137349,54306 -251193,126493 -371817,182837 -142457,66531 -288259,117797 -403623,188919 -194195,119713 -347127,247240 -448945,387051 -92118,126494 -79211,263052 -143628,412943 -61893,143993 50020,312052 147413,456273 95874,142001 236430,275305 415376,396584 213625,144783 466231,204077 778739,309194 464757,156322 1043008,331178 1668146,369324 168850,10277 342322,15644 519687,15644 301105,0 593424,-16556 872454,-47632 533887,-59492 971778,-223720 1377211,-376181 242344,-91145 503632,-145163 682212,-261683 198239,-129352 276796,-289703 366694,-442772 81202,-138216 183370,-267400 183370,-418751 0,-129914 -44425,-247589 -122556,-358058 -113753,-160838 -299023,-306488 -522895,-452472 -283561,-184920 -636830,-351886 -1050107,-479838 -206889,-64083 -444688,-49959 -680449,-91875 -345500,-61438 -704911,-164776 -1105934,-164776z"/>
  <path class="fil1" d="M3577084 201568c-480856,-3329 -800936,61088 -1157064,143582 -359380,83255 -685572,186867 -967825,301304 23565,93319 -6371,124988 152917,234195 159272,109222 -119150,100541 -380377,-138215 -244032,106683 -445129,224084 -589365,347826 -143095,122753 -232249,223841 -234484,393300 -2219,169443 170736,387172 450481,554229 280307,167406 665184,322421 1117565,447804 6994,-48377 26120,-4546 -5747,-153723 -31851,-149192 71365,-85550 140177,190622 440278,118983 1011095,206145 1474376,208805 463267,2661 769040,-51129 1116912,-123513 348510,-72506 670293,-165232 951907,-269756 -27396,-20327 38557,-3071 -93669,-49457 -132209,-46386 5747,-114437 275899,-19521 280976,-109359 514913,-231687 682379,-363349 165749,-130325 264739,-267674 258688,-422141 -6051,-154483 -123604,-310943 -313481,-449447 -304557,194651 -602409,161355 -418599,80746 183811,-80594 163104,-126721 196247,-222701 -292470,-168166 -683215,-320673 -1136052,-451301 -450663,-130006 -1040028,-235944 -1520885,-239289z"/>
  <path class="fil2" d="M3547635 345424c-466489,-2934 -779971,54687 -1129652,130994 -351156,76610 -674124,172985 -955100,280717 26119,47603 -15280,36367 111502,123514 126783,87162 -39498,111761 -279714,-57728 -277160,111214 -506140,234955 -669654,365994 -162693,130431 -260573,247240 -255480,420302 5093,173061 179417,380894 451727,547266 271215,165703 642257,322710 1080620,451301 37599,-81278 71989,-83026 30575,-275914 -41399,-192887 115972,-23535 165673,332061 433254,119241 978878,208409 1448226,210675 469363,2265 812446,-59370 1175552,-141697 363227,-82342 694496,-186350 979943,-301045 -41430,-64432 -4790,-81810 -179691,-143293 -174901,-61498 103217,-124608 419891,42767 235107,-103733 429682,-217836 569615,-338202 139766,-120229 227460,-222610 228737,-383919 1277,-161325 -154194,-364687 -407135,-521892 -281630,140633 -478820,94521 -326222,27534 152598,-66972 115957,-74056 151001,-128044 -296909,-159348 -685025,-302383 -1130305,-423236 -442286,-120031 -1013619,-215221 -1480109,-218155z"/>
  <path class="fil3" d="M3547012 274834c-475749,-3208 -792788,58990 -1146878,141165 -354409,82236 -677940,185802 -955723,300771 25481,64433 -8925,68583 129974,163879 138885,95311 -66272,108553 -317312,-85003 -245294,108006 -449006,226958 -593819,352098 -144419,124821 -232553,230531 -231276,399442 1262,168896 168941,380909 434531,546734 265804,165962 629502,321099 1059595,447820 17818,-64159 42995,-40502 6355,-209870 -36626,-169367 91753,-58548 153571,256393 435170,122449 994188,213503 1460982,216026 466794,2539 791921,-57150 1146862,-136618 355474,-79591 680480,-180998 962094,-294371 -35682,-36625 15614,-32064 -133806,-84729 -149405,-52680 40137,-118983 331954,2128 245309,-105877 448717,-222822 593196,-347294 142867,-123087 231595,-242815 229375,-395960 -2235,-153145 -126159,-325097 -327499,-469211 -286069,149998 -501427,106409 -342140,36625 159287,-69769 129336,-86888 164381,-151305 -286708,-169778 -673030,-323060 -1120743,-452913 -445570,-129230 -1027941,-232599 -1503674,-235807z"/>
  <path class="fil4" d="M3547529 344694c-479002,-3086 -796802,59172 -1148596,141332 -353132,82494 -674565,186654 -946191,303037 23930,34056 -23930,11129 91845,89564 115759,78450 -9716,115334 -236066,-26272 -223126,100830 -405538,211040 -535498,327453 -128713,115274 -206312,212743 -205019,367394 1292,154650 149161,349711 388054,503647 239699,154467 569114,298749 960407,417017 3877,-42099 23276,9502 -8408,-133563 -31684,-143065 66607,-93061 137105,172438 440416,129276 1028580,224617 1501728,227430 473164,2813 778010,-53988 1124681,-130872 348571,-77310 666142,-175662 937768,-286967 -18107,-9912 59172,15022 -57560,-25465 -116718,-40487 -29738,-109146 213442,-40229 232173,-100571 423844,-211785 560067,-329597 135418,-117113 217639,-234575 215373,-373566 -2265,-138990 -103490,-286951 -270987,-415953 -243181,91981 -352144,36747 -225712,-17955 126433,-54718 74376,-41035 103475,-68659 -265803,-174582 -644370,-330799 -1090411,-462613 -443229,-130978 -1030480,-234514 -1509497,-237601z"/>
  <path class="fil5" d="M3548152 530253c-422855,-2463 -702129,50978 -1011414,122875 -310486,72186 -590383,164335 -823818,267977 4105,3695 -60571,-40973 14109,10354 74679,51327 44683,107078 -110545,33068 -183476,84881 -332197,177698 -438089,275366 -104616,96512 -166692,180085 -165825,306457 882,126357 113828,283166 298719,409355 184966,126220 442787,244518 750917,343219 -1171,-9137 16465,70195 -4698,-28141 -21179,-98321 31745,-117934 94079,56511 400446,125840 968723,218612 1395987,221576 427250,2950 662707,-43375 958476,-106592 297548,-63596 567456,-146333 799143,-240337 -51160,-31821 0,-48849 97029,-39711 208729,-87603 379677,-184784 502172,-288457 120944,-102350 193161,-209930 191686,-327180 -1475,-117249 -79378,-234407 -210508,-340756 -142305,31593 -214035,7662 -73509,-55523 -219326,-156171 -545290,-295922 -934956,-412061 -387720,-115547 -906099,-205537 -1328955,-208000z"/>
  <circle class="fil6" cx="456344" cy="1573301" r="109499"/>
  <circle class="fil7" cx="438233" cy="1559866" r="109499"/>
  <circle class="fil8 str0" cx="438233" cy="1559866" r="93707"/>
  <path class="fil9 str1" style="mask:url(#id0)" d="M438226 1466167c-51752,0 -93699,41946 -93699,93699 0,51753 41947,93715 93699,93715 51768,0 93715,-41962 93715,-93715 0,-51753 -41947,-93699 -93715,-93699z"/>
  <path class="fil6" d="M491773 1509558l-15 -16c-5823,-5807 -15310,-5807 -21118,0l-34937 34953 -34969 -34983c-5823,-5808 -15325,-5793 -21132,15l0 0c-5823,5823 -5823,15310 0,21118l34968 34968 -31791 31791c-5808,5807 -5808,15310 0,21117l15 15c5823,5808 15310,5808 21118,0l31791 -31790 31744 31760c5808,5808 15310,5808 21118,0l0 0c5808,-5808 5823,-15325 15,-21133l-31745 -31760 34938 -34938c5808,-5807 5808,-15294 0,-21117z"/>
  <path class="fil10" d="M496866 1504464l-15 -15c-5808,-5823 -15295,-5823 -21118,0l-34937 34938 -34968 -34968c-5808,-5823 -15326,-5808 -21133,15l0 0c-5808,5808 -5808,15295 0,21118l34968 34968 -31776 31775c-5823,5823 -5823,15310 0,21118l16 15c5807,5823 15294,5823 21117,0l31776 -31775 31760 31745c5808,5823 15295,5823 21118,0l0 0c5807,-5808 5822,-15310 15,-21133l-31760 -31745 34937 -34938c5823,-5823 5823,-15310 0,-21118z"/>
  <path class="fil11" d="M494327 1507019l-15 -16c-5823,-5823 -15310,-5823 -21118,0l-34952 34938 -34969 -34968c-5807,-5823 -15310,-5808 -21132,15l0 0c-5808,5808 -5808,15295 0,21118l34968 34968 -31776 31775c-5807,5808 -5807,15310 0,21118l15 15c5808,5808 15310,5808 21118,0l31776 -31775 31760 31745c5807,5823 15294,5823 21117,0l0 0c5808,-5808 5823,-15310 16,-21133l-31761 -31745 34953 -34938c5808,-5823 5808,-15310 0,-21117z"/>
  <circle class="fil6" cx="6662878" cy="1573301" r="109499"/>
  <circle class="fil12" cx="6644766" cy="1559866" r="109499"/>
  <circle class="fil13 str0" cx="6644766" cy="1559866" r="93707"/>
  <path class="fil9 str1" style="mask:url(#id2)" d="M6644760 1466167c-51753,0 -93700,41946 -93700,93699 0,51753 41947,93715 93700,93715 51768,0 93714,-41962 93714,-93715 0,-51753 -41946,-93699 -93714,-93699z"/>
  <path class="fil6" d="M6698307 1509558l-16 -16c-5823,-5807 -15310,-5807 -21117,0l-34938 34953 -34968 -34983c-5823,-5808 -15325,-5793 -21133,15l0 0c-5823,5823 -5823,15310 0,21118l34968 34968 -31790 31791c-5808,5807 -5808,15310 0,21117l15 15c5823,5808 15310,5808 21117,0l31791 -31790 31745 31760c5808,5808 15310,5808 21118,0l0 0c5807,-5808 5823,-15325 15,-21133l-31745 -31760 34938 -34938c5807,-5807 5807,-15294 0,-21117z"/>
  <path class="fil10" d="M6703400 1504464l-15 -15c-5808,-5823 -15295,-5823 -21118,0l-34938 34938 -34968 -34968c-5808,-5823 -15325,-5808 -21133,15l0 0c-5808,5808 -5808,15295 0,21118l34968 34968 -31775 31775c-5823,5823 -5823,15310 0,21118l15 15c5808,5823 15295,5823 21118,0l31775 -31775 31760 31745c5808,5823 15295,5823 21118,0l0 0c5808,-5808 5823,-15310 15,-21133l-31760 -31745 34938 -34938c5823,-5823 5823,-15310 0,-21118z"/>
  <path class="fil11" d="M6700861 1507019l-15 -16c-5823,-5823 -15310,-5823 -21118,0l-34953 34938 -34968 -34968c-5808,-5823 -15310,-5808 -21133,15l0 0c-5808,5808 -5808,15295 0,21118l34968 34968 -31775 31775c-5808,5808 -5808,15310 0,21118l15 15c5808,5808 15310,5808 21118,0l31775 -31775 31760 31745c5808,5823 15295,5823 21118,0l0 0c5808,-5808 5823,-15310 15,-21133l-31760 -31745 34953 -34938c5808,-5823 5808,-15310 0,-21117z"/>
 </g>
</svg>
