<?xml version="1.0" encoding="UTF-8"?>
<!DOCTYPE svg PUBLIC "-//W3C//DTD SVG 1.1//EN" "http://www.w3.org/Graphics/SVG/1.1/DTD/svg11.dtd">
<!-- Creator: CorelDRAW X7 -->
<svg xmlns="http://www.w3.org/2000/svg" xml:space="preserve" width="13.7312mm" height="16.9086mm" version="1.1" style="shape-rendering:geometricPrecision; text-rendering:geometricPrecision; image-rendering:optimizeQuality; fill-rule:evenodd; clip-rule:evenodd"
viewBox="0 0 113305 139524"
 xmlns:xlink="http://www.w3.org/1999/xlink">
 <defs>
  <style type="text/css">
   <![CDATA[
    .fil18 {fill:#050505;fill-rule:nonzero}
    .fil9 {fill:#30BEE5;fill-rule:nonzero}
    .fil10 {fill:#A1DFF7;fill-rule:nonzero}
    .fil13 {fill:#A7BC2B;fill-rule:nonzero}
    .fil0 {fill:#AFC5C5;fill-rule:nonzero}
    .fil14 {fill:#B7D433;fill-rule:nonzero}
    .fil1 {fill:#C1C9C9;fill-rule:nonzero}
    .fil19 {fill:#C4101D;fill-rule:nonzero}
    .fil3 {fill:#C8C8C8;fill-rule:nonzero}
    .fil15 {fill:#CFE54E;fill-rule:nonzero}
    .fil11 {fill:#DD4814;fill-rule:nonzero}
    .fil4 {fill:#DD8317;fill-rule:nonzero}
    .fil12 {fill:#F26322;fill-rule:nonzero}
    .fil5 {fill:#F99D1C;fill-rule:nonzero}
    .fil16 {fill:#F9F9F9;fill-rule:nonzero}
    .fil6 {fill:#FCC786;fill-rule:nonzero}
    .fil8 {fill:#FFDA00;fill-rule:nonzero}
    .fil17 {fill:#FFE600;fill-rule:nonzero}
    .fil7 {fill:#FFF200;fill-rule:nonzero}
    .fil2 {fill:white;fill-rule:nonzero}
   ]]>
  </style>
 </defs>
 <g id="Layer_x0020_1">
  <metadata id="CorelCorpID_0Corel-Layer"/>
  <g id="_2325588656">
   <path class="fil0" d="M87210 94681l0 -2568c9182,-11677 15555,-22362 19019,-31901 3941,-10862 4160,-20272 643,-27976 -2082,-4565 -5539,-8520 -10003,-11440 -2123,-1391 -4435,-2476 -5790,-2933 -1251,-1295 -2556,-2447 -3869,-3470l0 -5017c2577,1554 5305,3577 7817,6178 1357,455 3665,1542 5789,2931 4465,2920 7924,6876 10006,11442 3516,7702 3296,17114 -647,27976 -3938,10851 -11643,23186 -22965,36778zm-50350 -89201c3618,-2741 7598,-3727 10675,-4029 874,-85 1705,-118 2475,-118 2045,0 3652,239 4472,392l43 -17c103,-41 208,-82 315,-121l0 1200c-1110,218 -2051,478 -2748,697 -538,167 -1049,348 -1516,534l-42 15c-817,-153 -2422,-391 -4462,-391 -772,0 -1607,34 -2484,120 -1981,193 -4336,671 -6728,1718z"/>
   <path class="fil1" d="M70836 136189l-822 -8419 691 -9498 3645 -11135c4764,-5172 9053,-10183 12860,-15024l0 2568c-2756,3310 -5727,6693 -8910,10149l-3649 11133 -690 9494 1010 10327 -4135 405zm-11511 -9169l-10 -97 -2091 -6374 1095 -107 1718 5231 6416 -630 -93 1290 -7035 687zm27885 -112627c-6216,-4838 -12616,-6766 -14365,-7229 -4422,-3849 -9333,-4855 -13256,-4855 -809,0 -1576,43 -2289,112 -882,87 -1710,217 -2460,366l0 -1200c378,-144 781,-282 1200,-413 1167,-366 3020,-847 5209,-1061 713,-69 1480,-113 2290,-113 3923,0 8832,1006 13252,4855 1378,363 5637,1636 10419,4521l0 5017z"/>
   <path class="fil0" d="M28960 11561c128,-85 253,-167 377,-248 -27,34 -53,69 -80,102 -87,43 -186,91 -297,146z"/>
   <path class="fil2" d="M56488 120621l10360 -1010 -488 6722 -7750 757 -2122 -6469zm50384 -88385c-2082,-4565 -5539,-8520 -10003,-11440 -2123,-1391 -4435,-2476 -5790,-2933 -7174,-7429 -16115,-10138 -18234,-10699 -5334,-4643 -11378,-5149 -15545,-4743 -2189,215 -4040,697 -5208,1063 -538,167 -1049,348 -1516,534l-42 15c-1126,-211 -3748,-584 -6946,-271 -4168,407 -9995,2073 -14331,7653 -1971,948 -10166,5271 -15816,14020 -2236,1324 -12429,8062 -13372,21430 -567,8053 2388,16908 8788,26321 7728,11368 20590,23678 38233,36589l5196 10060 3082 9395 1006 10294 14649 -1429 -1009 -10325 691 -9498 3645 -11135c16257,-17645 26980,-33431 31879,-46925 3941,-10862 4160,-20272 643,-27976z"/>
   <polygon class="fil3" points="57210,129131 53687,118396 53962,118311 57482,129039 "/>
   <path class="fil4" d="M15550 28250l-1726 -1256c518,-330 824,-493 824,-493l0 0 902 1749z"/>
   <path class="fil5" d="M15550 28250l-1726 -1256c518,-330 824,-493 824,-493l0 0 902 1749z"/>
   <path class="fil4" d="M12028 28265l-2709 3726 -763 -555c1237,-1331 2453,-2385 3472,-3171z"/>
   <path class="fil5" d="M12013 28277l-731 1006 -269 -196c350,-296 684,-566 1000,-810z"/>
   <path class="fil4" d="M17526 32080l-2795 3844 -5412 -3933 2709 -3726c718,-553 1341,-978 1796,-1271l1726 1256 1976 3830z"/>
   <polygon class="fil5" points="13992,31252 12026,33957 9319,31991 11287,29286 "/>
   <path class="fil6" d="M15809 28752l-1817 2500 -2705 -1966 742 -1022c718,-553 1340,-977 1795,-1270l1726 1256 259 502z"/>
   <polygon class="fil5" points="17523,32074 16692,33215 13987,31249 15807,28747 "/>
   <polygon class="fil4" points="20958,38735 20142,39858 14731,35924 17526,32080 "/>
   <polygon class="fil5" points="19242,35407 17436,37891 14731,35924 16697,33220 18964,34867 "/>
   <polygon class="fil6" points="18964,34867 16697,33220 17526,32079 "/>
   <polygon class="fil4" points="22376,41482 20142,39858 20958,38735 "/>
   <polygon class="fil5" points="22376,41483 20142,39858 20958,38735 "/>
   <path class="fil4" d="M9319 31991l-3932 5410 -741 -538c1165,-2156 2547,-3959 3910,-5427l763 555z"/>
   <path class="fil5" d="M9315 31988l-1966 2704 -920 -669c692,-957 1412,-1818 2127,-2587l759 552z"/>
   <polygon class="fil4" points="14731,35924 10798,41334 5387,37401 9319,31991 "/>
   <polygon class="fil5" points="10059,36662 8092,39368 5387,37401 7353,34696 "/>
   <polygon class="fil6" points="12026,33957 10059,36662 7353,34696 9319,31991 "/>
   <polygon class="fil5" points="14727,35921 12760,38625 10054,36659 12021,33954 "/>
   <polygon class="fil4" points="20142,39858 16208,45269 10798,41334 14731,35924 "/>
   <polygon class="fil5" points="15469,40596 13503,43301 10798,41334 12764,38630 "/>
   <polygon class="fil6" points="17436,37891 15469,40596 12764,38630 14731,35924 "/>
   <polygon class="fil5" points="20137,39855 18170,42560 15465,40593 17432,37888 "/>
   <polygon class="fil4" points="24391,45389 21619,49202 16208,45269 20142,39858 22376,41482 "/>
   <polygon class="fil5" points="20880,44529 18914,47235 16208,45269 18175,42563 "/>
   <polygon class="fil6" points="22675,42061 20880,44529 18175,42563 20142,39858 22376,41483 "/>
   <polygon class="fil5" points="24389,45383 23582,46494 20877,44527 22672,42056 "/>
   <polygon class="fil4" points="27824,52043 27030,53135 21619,49202 24391,45389 "/>
   <polygon class="fil5" points="26107,48716 24324,51169 21619,49202 23586,46496 25788,48097 "/>
   <polygon class="fil6" points="25788,48097 23586,46496 24391,45389 "/>
   <polygon class="fil4" points="29202,54714 27030,53135 27824,52043 "/>
   <polygon class="fil5" points="29202,54714 27030,53135 27824,52043 "/>
   <path class="fil4" d="M5387 37401l-2418 3327c466,-1396 1038,-2683 1677,-3865l741 538z"/>
   <path class="fil5" d="M5383 37398l-1968 2706 -179 -130c412,-1109 888,-2145 1410,-3111l737 535z"/>
   <path class="fil4" d="M10798 41334l-3933 5412 -4616 -3355c196,-927 437,-1816 720,-2663l2418 -3327 5411 3933z"/>
   <path class="fil5" d="M6125 42073l-1966 2705 -1910 -1387c196,-927 437,-1816 720,-2663l451 -621 2705 1966z"/>
   <polygon class="fil6" points="8092,39368 6125,42073 3420,40107 5387,37401 "/>
   <polygon class="fil5" points="10793,41332 8826,44037 6121,42071 8087,39365 "/>
   <polygon class="fil4" points="16208,45269 12275,50679 6865,46746 10798,41334 "/>
   <polygon class="fil5" points="11537,46006 9569,48712 6865,46746 8831,44040 "/>
   <polygon class="fil6" points="13503,43301 11537,46006 8831,44040 10798,41334 "/>
   <polygon class="fil5" points="16204,45266 14237,47971 11532,46005 13498,43298 "/>
   <polygon class="fil4" points="21619,49202 17685,54613 12275,50679 16208,45269 "/>
   <polygon class="fil5" points="16947,49940 14981,52646 12275,50679 14242,47974 "/>
   <polygon class="fil6" points="18914,47235 16947,49940 14242,47974 16208,45269 "/>
   <polygon class="fil5" points="21614,49199 19648,51904 16943,49937 18910,47233 "/>
   <polygon class="fil4" points="27030,53135 23097,58547 17685,54613 21619,49202 "/>
   <polygon class="fil5" points="22358,53874 20392,56579 17685,54613 19653,51907 "/>
   <polygon class="fil6" points="24324,51169 22358,53874 19653,51907 21619,49202 "/>
   <polygon class="fil5" points="27026,53132 25060,55838 22354,53872 24320,51166 "/>
   <polygon class="fil4" points="31256,58698 28508,62480 23097,58547 27030,53135 29202,54714 "/>
   <polygon class="fil5" points="27769,57808 25802,60514 23097,58547 25064,55841 "/>
   <polygon class="fil6" points="29540,55371 27769,57808 25064,55841 27030,53135 29202,54714 "/>
   <polygon class="fil5" points="31254,58693 30470,59771 27765,57805 29538,55366 "/>
   <polygon class="fil4" points="34689,65353 33918,66414 28508,62480 31256,58698 "/>
   <polygon class="fil5" points="32973,62026 31214,64446 28508,62480 30474,59774 32615,61331 "/>
   <polygon class="fil6" points="32615,61331 30474,59774 31256,58698 "/>
   <polygon class="fil4" points="36027,67946 33918,66414 34689,65353 "/>
   <polygon class="fil5" points="36028,67948 33918,66414 34689,65353 "/>
   <path class="fil4" d="M6865 46746l-3934 5410 -1074 -780c-292,-2935 -111,-5594 392,-7985l4616 3355z"/>
   <path class="fil5" d="M2192 47484l-475 654c6,-329 22,-650 39,-971l436 317z"/>
   <path class="fil6" d="M4159 44778l-1967 2706 -436 -317c73,-1326 243,-2584 493,-3776l1910 1387z"/>
   <polygon class="fil5" points="6860,46742 4892,49447 2188,47481 4155,44776 "/>
   <polygon class="fil4" points="12275,50679 8342,56090 2931,52156 6865,46746 "/>
   <polygon class="fil5" points="7602,51418 5636,54123 2931,52156 4898,49451 "/>
   <polygon class="fil6" points="9569,48712 7602,51418 4898,49451 6865,46746 "/>
   <polygon class="fil5" points="12270,50676 10304,53380 7598,51414 9565,48710 "/>
   <polygon class="fil4" points="17685,54613 13752,60024 8342,56090 12275,50679 "/>
   <polygon class="fil5" points="13014,55351 11047,58056 8342,56090 10309,53385 "/>
   <polygon class="fil6" points="14981,52646 13014,55351 10309,53385 12275,50679 "/>
   <polygon class="fil5" points="17681,54610 15714,57315 13009,55349 14977,52643 "/>
   <polygon class="fil4" points="23097,58547 19164,63957 13752,60024 17685,54613 "/>
   <polygon class="fil5" points="18424,59285 16458,61991 13752,60024 15719,57319 "/>
   <polygon class="fil6" points="20392,56579 18424,59285 15719,57319 17685,54613 "/>
   <polygon class="fil5" points="23092,58543 21125,61248 18421,59282 20387,56576 "/>
   <polygon class="fil4" points="28508,62480 24574,67891 19164,63957 23097,58547 "/>
   <polygon class="fil5" points="23836,63218 21869,65924 19164,63957 21129,61251 "/>
   <polygon class="fil6" points="25802,60514 23836,63218 21129,61251 23097,58547 "/>
   <polygon class="fil5" points="28504,62477 26537,65182 23832,63215 25798,60511 "/>
   <polygon class="fil4" points="33918,66414 29986,71824 24574,67891 28508,62480 "/>
   <polygon class="fil5" points="29247,67152 27279,69857 24574,67891 26541,65186 "/>
   <polygon class="fil6" points="31214,64446 29247,67152 26541,65186 28508,62480 "/>
   <polygon class="fil5" points="33914,66410 31948,69115 29242,67149 31209,64444 "/>
   <polygon class="fil4" points="38122,72008 35396,75758 29986,71824 33918,66414 36027,67946 "/>
   <polygon class="fil5" points="34658,71086 32691,73791 29986,71824 31952,69119 "/>
   <polygon class="fil6" points="36406,68681 34658,71086 31952,69119 33918,66414 36028,67948 "/>
   <polygon class="fil5" points="38119,72003 37359,73050 34654,71082 36403,68675 "/>
   <polygon class="fil4" points="41555,78663 40808,79691 35396,75758 38122,72008 "/>
   <polygon class="fil5" points="39839,75335 38101,77724 35396,75758 37363,73052 39440,74562 "/>
   <polygon class="fil6" points="39440,74562 37363,73052 38122,72008 "/>
   <polygon class="fil4" points="42852,81177 40808,79691 41555,78663 "/>
   <polygon class="fil5" points="42852,81177 40808,79691 41555,78663 "/>
   <path class="fil4" d="M2931 52156l-823 1131c-106,-650 -189,-1287 -251,-1911l1074 780z"/>
   <path class="fil5" d="M2926 52153l-819 1126c-105,-647 -188,-1281 -250,-1903l1069 777z"/>
   <path class="fil4" d="M8342 56090l-3870 5322c-1189,-2899 -1950,-5608 -2364,-8125l823 -1131 5411 3934z"/>
   <path class="fil5" d="M3670 56828l-557 766c-149,-495 -284,-983 -406,-1465l963 699z"/>
   <path class="fil6" d="M5636 54123l-1966 2705 -963 -699c-248,-972 -448,-1921 -599,-2842l823 -1131 2705 1967z"/>
   <polygon class="fil5" points="8337,56087 6371,58791 3665,56826 5632,54119 "/>
   <polygon class="fil4" points="13752,60024 9819,65434 4550,61603 4472,61412 8342,56090 "/>
   <polygon class="fil5" points="9081,60761 7113,63466 4550,61603 4472,61412 6375,58795 "/>
   <polygon class="fil6" points="11047,58056 9081,60761 6375,58795 8342,56090 "/>
   <polygon class="fil5" points="13748,60020 11782,62725 9076,60759 11042,58053 "/>
   <polygon class="fil4" points="19164,63957 15229,69368 9819,65434 13752,60024 "/>
   <polygon class="fil5" points="14492,64695 12525,67401 9819,65434 11786,62728 "/>
   <polygon class="fil6" points="16458,61991 14492,64695 11786,62728 13752,60024 "/>
   <polygon class="fil5" points="19158,63954 17192,66659 14487,64692 16455,61987 "/>
   <polygon class="fil4" points="24574,67891 20642,73300 15229,69368 19164,63957 "/>
   <polygon class="fil5" points="19902,68628 17936,71334 15229,69368 17196,66662 "/>
   <polygon class="fil6" points="21869,65924 19902,68628 17196,66662 19164,63957 "/>
   <polygon class="fil5" points="24569,67887 22603,70593 19898,68626 21865,65920 "/>
   <polygon class="fil4" points="29986,71824 26052,77235 20642,73300 24574,67891 "/>
   <polygon class="fil5" points="25313,72563 23346,75268 20642,73300 22608,70595 "/>
   <polygon class="fil6" points="27279,69857 25313,72563 22608,70595 24574,67891 "/>
   <polygon class="fil5" points="29981,71821 28014,74527 25310,72559 27276,69854 "/>
   <polygon class="fil4" points="35396,75758 31463,81168 26052,77235 29986,71824 "/>
   <polygon class="fil5" points="30724,76496 28758,79202 26052,77235 28019,74529 "/>
   <polygon class="fil6" points="32691,73791 30724,76496 28019,74529 29986,71824 "/>
   <polygon class="fil5" points="35391,75755 33425,78459 30719,76493 32686,73787 "/>
   <polygon class="fil4" points="40808,79691 36873,85101 31463,81168 35396,75758 "/>
   <polygon class="fil5" points="36135,80430 34168,83136 31463,81168 33429,78463 "/>
   <polygon class="fil6" points="38101,77724 36135,80430 33429,78463 35396,75758 "/>
   <polygon class="fil5" points="40803,79688 38836,82393 36132,80427 38097,77722 "/>
   <polygon class="fil4" points="44987,85317 42285,89035 36873,85101 40808,79691 42852,81177 "/>
   <polygon class="fil5" points="41545,84363 39579,87069 36873,85101 38841,82397 "/>
   <polygon class="fil6" points="43271,81990 41545,84363 38841,82397 40808,79691 42852,81177 "/>
   <polygon class="fil5" points="44985,85311 44246,86327 41541,84361 43268,81984 "/>
   <polygon class="fil4" points="48420,91972 47695,92969 42285,89035 44987,85317 "/>
   <polygon class="fil5" points="46704,88644 44990,91002 42285,89035 44252,86330 46265,87794 "/>
   <polygon class="fil6" points="46265,87794 44252,86330 44988,85317 "/>
   <polygon class="fil4" points="49678,94410 47695,92969 48420,91972 "/>
   <polygon class="fil5" points="49678,94410 47695,92969 48420,91971 "/>
   <path class="fil4" d="M9819 65434l-1978 2721c-1344,-2285 -2425,-4467 -3291,-6552l5269 3831z"/>
   <path class="fil6" d="M7113 63466l-1044 1436c-568,-1127 -1074,-2226 -1519,-3299l2563 1863z"/>
   <path class="fil5" d="M9815 65431l-1967 2704 -36 -26c-641,-1095 -1216,-2163 -1745,-3211l1043 -1434 2705 1967z"/>
   <path class="fil4" d="M15229 69368l-3457 4756c-1504,-2062 -2805,-4050 -3931,-5969l1978 -2721 5410 3934z"/>
   <path class="fil5" d="M10557 70105l-803 1105c-685,-1036 -1327,-2056 -1913,-3054l12 -17 2704 1966z"/>
   <polygon class="fil6" points="12525,67401 10557,70105 7853,68139 9819,65434 "/>
   <polygon class="fil5" points="15225,69364 13259,72070 10554,70102 12520,67398 "/>
   <path class="fil4" d="M20642 73300l-3934 5412 -3265 -2374c-582,-747 -1140,-1485 -1671,-2214l3457 -4756 5413 3932z"/>
   <path class="fil5" d="M15969 74040l-1967 2705 -559 -407c-582,-747 -1140,-1485 -1671,-2214l1492 -2051 2705 1967z"/>
   <polygon class="fil6" points="17936,71334 15969,74040 13264,72073 15229,69368 "/>
   <polygon class="fil5" points="20637,73298 18670,76003 15964,74036 17932,71331 "/>
   <polygon class="fil4" points="26052,77235 22119,82645 16708,78712 20642,73300 "/>
   <polygon class="fil5" points="21379,77972 19413,80678 16708,78712 18674,76006 "/>
   <polygon class="fil6" points="23346,75268 21379,77972 18674,76006 20642,73300 "/>
   <polygon class="fil5" points="26048,77231 24082,79936 21377,77970 23342,75264 "/>
   <polygon class="fil4" points="31463,81168 27530,86579 22119,82645 26052,77235 "/>
   <polygon class="fil5" points="26791,81907 24824,84612 22119,82645 24086,79940 "/>
   <polygon class="fil6" points="28758,79202 26791,81907 24086,79940 26052,77235 "/>
   <polygon class="fil5" points="31459,81165 29492,83870 26787,81904 28753,79199 "/>
   <polygon class="fil4" points="36873,85101 32941,90513 27530,86579 31463,81168 "/>
   <polygon class="fil5" points="32202,85840 30235,88546 27530,86579 29496,83874 "/>
   <polygon class="fil6" points="34168,83136 32202,85840 29496,83874 31463,81168 "/>
   <polygon class="fil5" points="36869,85099 34903,87804 32197,85838 34164,83132 "/>
   <polygon class="fil4" points="42285,89035 38351,94446 32941,90513 36873,85101 "/>
   <polygon class="fil5" points="37612,89774 35646,92480 32941,90513 34907,87807 "/>
   <polygon class="fil6" points="39579,87069 37612,89774 34907,87807 36873,85101 "/>
   <polygon class="fil5" points="42280,89032 40314,91737 37609,89771 39576,87065 "/>
   <polygon class="fil4" points="47695,92969 43763,98380 38351,94446 42285,89035 "/>
   <polygon class="fil5" points="43023,93707 41057,96413 38351,94446 40318,91740 "/>
   <polygon class="fil6" points="44990,91002 43023,93707 40318,91740 42285,89035 "/>
   <polygon class="fil5" points="47691,92967 45725,95671 43019,93704 44986,91000 "/>
   <polygon class="fil4" points="51853,98627 49173,102314 43763,98380 47695,92969 49678,94410 "/>
   <polygon class="fil5" points="48434,97641 46467,100348 43763,98380 45729,95675 "/>
   <polygon class="fil6" points="50137,95299 48434,97641 45729,95675 47695,92969 49678,94410 "/>
   <polygon class="fil5" points="51851,98622 51136,99605 48431,97638 50135,95294 "/>
   <polygon class="fil4" points="55286,105281 54584,106247 49173,102314 51853,98627 "/>
   <polygon class="fil5" points="53570,101955 51879,104280 49173,102314 51140,99608 53090,101025 "/>
   <polygon class="fil6" points="53090,101025 51140,99608 51853,98627 "/>
   <polygon class="fil4" points="56503,107642 54584,106247 55286,105281 "/>
   <polygon class="fil5" points="56504,107644 54584,106247 55286,105281 "/>
   <path class="fil4" d="M16708 78712l-625 859c-928,-1094 -1817,-2175 -2640,-3233l3265 2374z"/>
   <path class="fil6" d="M14002 76745l-112 153c-147,-186 -304,-375 -447,-560l559 407z"/>
   <path class="fil5" d="M16704 78709l-624 858c-767,-903 -1498,-1795 -2193,-2673l110 -153 2707 1968z"/>
   <path class="fil4" d="M22119 82645l-1459 2008c-1655,-1737 -3175,-3429 -4577,-5082l625 -859 5411 3933z"/>
   <path class="fil6" d="M19413 80678l-1071 1474c-787,-872 -1538,-1731 -2259,-2581l625 -859 2705 1966z"/>
   <path class="fil5" d="M22114 82643l-1458 2005c-804,-843 -1575,-1676 -2317,-2499l1071 -1473 2704 1967z"/>
   <path class="fil4" d="M27530 86579l-2083 2865c-1704,-1631 -3300,-3229 -4787,-4791l1459 -2008 5411 3934z"/>
   <path class="fil6" d="M24824 84612l-1794 2469c-819,-819 -1609,-1628 -2370,-2428l1459 -2008 2705 1967z"/>
   <path class="fil5" d="M27525 86576l-1966 2705 -1127 -820c-477,-464 -948,-926 -1406,-1384l1794 -2468 2705 1967z"/>
   <path class="fil4" d="M32941 90513l-2535 3487c-1747,-1548 -3402,-3067 -4959,-4556l2083 -2865 5411 3934z"/>
   <path class="fil5" d="M28269 91251l-361 497c-844,-775 -1666,-1543 -2461,-2304l117 -159 2705 1966z"/>
   <polygon class="fil6" points="30235,88546 28269,91251 25564,89285 27530,86579 "/>
   <polygon class="fil5" points="32937,90509 30969,93214 28264,91249 30231,88542 "/>
   <path class="fil4" d="M38351 94446l-2851 3922c-1785,-1482 -3479,-2937 -5094,-4368l2535 -3487 5410 3933z"/>
   <path class="fil5" d="M33679 95184l-742 1021c-865,-741 -1709,-1477 -2532,-2205l568 -782 2706 1966z"/>
   <polygon class="fil6" points="35646,92480 33679,95184 30973,93218 32941,90513 "/>
   <polygon class="fil5" points="38347,94444 36380,97148 33675,95181 35642,92476 "/>
   <path class="fil4" d="M43763 98380l-3047 4190c-1815,-1423 -3553,-2823 -5216,-4202l2851 -3922 5412 3934z"/>
   <path class="fil5" d="M39090 99119l-999 1373c-888,-715 -1742,-1420 -2591,-2124l885 -1216 2705 1967z"/>
   <polygon class="fil6" points="41057,96413 39090,99119 36385,97152 38351,94446 "/>
   <polygon class="fil5" points="43757,98377 41791,101082 39086,99116 41053,96410 "/>
   <path class="fil4" d="M49173 102314l-3139 4317c-1842,-1373 -3615,-2727 -5318,-4061l3047 -4190 5410 3934z"/>
   <path class="fil5" d="M44501 103052l-1136 1563c-899,-686 -1787,-1369 -2649,-2044l1080 -1486 2705 1967z"/>
   <polygon class="fil6" points="46467,100348 44501,103052 41796,101085 43763,98380 "/>
   <polygon class="fil5" points="49169,102310 47203,105016 44497,103048 46463,100344 "/>
   <path class="fil4" d="M54584 106247l-3141 4321c-1865,-1329 -3672,-2642 -5409,-3937l3139 -4317 5411 3933z"/>
   <path class="fil5" d="M49911 106985l-1187 1634c-917,-668 -1805,-1328 -2690,-1988l1173 -1612 2704 1966z"/>
   <polygon class="fil6" points="51879,104280 49911,106985 47207,105019 49173,102314 "/>
   <polygon class="fil5" points="54580,106244 52613,108948 49908,106982 51874,104277 "/>
   <path class="fil4" d="M58719 111936l-1793 2467c-1894,-1297 -3709,-2571 -5483,-3835l3141 -4321 1919 1395 2216 4294z"/>
   <path class="fil5" d="M55323 110920l-1147 1577c-926,-648 -1836,-1290 -2733,-1929l1175 -1616 2705 1968z"/>
   <polygon class="fil6" points="57003,108609 55323,110920 52618,108952 54584,106247 56504,107644 "/>
   <polygon class="fil5" points="58716,111930 58023,112882 55319,110915 56999,108603 "/>
   <path class="fil4" d="M56926 114403l1793 -2467 2904 5632c-1607,-1066 -3169,-2121 -4697,-3165z"/>
   <path class="fil5" d="M60434 115263l-734 1011c-932,-625 -1870,-1253 -2774,-1871l1103 -1517 1886 1371 519 1006z"/>
   <polygon class="fil6" points="59915,114257 58029,112886 58719,111936 "/>
   <path class="fil7" d="M38001 38257l-11545 15880 -16687 -12132c1096,-20881 20584,-29424 20584,-29424l0 0 7648 25676z"/>
   <path class="fil8" d="M27781 52316l-1325 1821 -16687 -12132c47,-893 120,-1768 230,-2616l17782 12927z"/>
   <path class="fil8" d="M30429 48675l-1325 1819 -18676 -13575c170,-807 360,-1598 583,-2360l19418 14116z"/>
   <path class="fil8" d="M33076 45032l-1324 1822 -19987 -14531c276,-734 569,-1449 887,-2138l20424 14847z"/>
   <path class="fil8" d="M35724 41390l-1324 1820 -20715 -15059c369,-670 755,-1318 1156,-1942l20883 15181z"/>
   <path class="fil8" d="M38001 38257l-954 1312 -20930 -15216c456,-615 924,-1201 1400,-1765l20188 14677 296 992z"/>
   <path class="fil8" d="M36646 33711l-17619 -12810c539,-566 1080,-1100 1619,-1605l14943 10861 1057 3554z"/>
   <path class="fil8" d="M34531 26607l-12156 -8838c628,-524 1244,-1007 1838,-1448l9259 6731 1059 3555z"/>
   <path class="fil8" d="M32414 19500l-6250 -4543c774,-509 1476,-933 2075,-1276l3117 2266 1058 3553z"/>
   <polygon class="fil7" points="47228,69237 26456,54137 38001,38257 "/>
   <polygon class="fil8" points="47228,69237 26456,54137 27781,52316 46170,65684 "/>
   <polygon class="fil8" points="45112,62133 29104,50494 30429,48675 44054,58580 "/>
   <polygon class="fil8" points="42996,55027 31752,46854 33076,45032 41937,51474 "/>
   <polygon class="fil8" points="40879,47920 34400,43210 35724,41390 39821,44368 "/>
   <polygon class="fil8" points="38763,40816 37047,39569 38001,38257 "/>
   <path class="fil7" d="M26456 54137l-9910 13631c-5386,-10118 -7148,-18655 -6777,-25763l16687 12132z"/>
   <path class="fil8" d="M17116 66987l-570 782c-343,-645 -682,-1288 -997,-1920l1567 1138z"/>
   <path class="fil8" d="M19763 63346l-1324 1820 -4790 -3482c-545,-1308 -1022,-2585 -1445,-3834l7559 5496z"/>
   <path class="fil8" d="M22410 59703l-1324 1821 -9960 -7241c-296,-1132 -535,-2236 -733,-3317l12017 8737z"/>
   <path class="fil8" d="M25057 56060l-1324 1822 -13796 -10030c-106,-1000 -174,-1978 -203,-2931l15323 11139z"/>
   <path class="fil7" d="M50990 81866l-11435 15729c-11012,-11184 -18360,-21093 -23009,-29827l9910 -13631 20772 15100 3762 12629z"/>
   <path class="fil8" d="M41059 95527l-1324 1821 -1438 -1046c-2753,-2844 -5281,-5610 -7573,-8288l10335 7513z"/>
   <path class="fil8" d="M43706 91885l-1323 1821 -17074 -12412c-1492,-1972 -2856,-3893 -4105,-5768l22502 16359z"/>
   <path class="fil8" d="M46355 88243l-1324 1821 -27003 -19629c-522,-901 -1015,-1789 -1482,-2666l570 -782 29239 21256z"/>
   <polygon class="fil8" points="49002,84602 47677,86422 18439,65166 19763,63346 "/>
   <polygon class="fil8" points="50990,81866 50325,82781 21086,61524 22410,59703 50463,80097 "/>
   <polygon class="fil8" points="49404,76543 23733,57882 25057,56060 48347,72991 "/>
   <path class="fil7" d="M39555 97595l11435 -15729 10633 35702c-8618,-7068 -15909,-13717 -22068,-19973z"/>
   <path class="fil8" d="M50131 107689l10913 7934 579 1945c-4132,-3390 -7945,-6678 -11492,-9879z"/>
   <polygon class="fil8" points="59985,112069 39735,97348 41059,95527 58928,108518 "/>
   <polygon class="fil8" points="57870,104964 42383,93706 43706,91885 56812,101412 "/>
   <polygon class="fil8" points="55753,97859 45031,90064 46355,88243 54695,94307 "/>
   <polygon class="fil8" points="53637,90755 47677,86422 49002,84602 52579,87202 "/>
   <polygon class="fil8" points="51521,83650 50325,82781 50990,81866 "/>
   <path class="fil9" d="M51666 15604l-925 1271 -13581 -9873c6640,-3084 13530,-1390 13530,-1390l0 0 976 9992z"/>
   <path class="fil10" d="M50879 7540c-1651,850 -3709,760 -5315,-406 -701,-510 -1234,-1166 -1586,-1897 3830,-332 6712,375 6712,375l0 0 189 1928z"/>
   <polygon class="fil9" points="51871,17697 50741,16875 51666,15604 "/>
   <path class="fil9" d="M50741 16875l-11661 16040 -13173 -9577c1879,-9473 6501,-14129 11253,-16336l13581 9873z"/>
   <path class="fil10" d="M39877 14957c2270,1649 2771,4825 1121,7095 -1649,2268 -4825,2771 -7094,1121 -2270,-1649 -2772,-4825 -1121,-7095 1650,-2269 4824,-2771 7094,-1121z"/>
   <polygon class="fil9" points="54448,44087 39080,32915 50741,16875 51871,17697 "/>
   <path class="fil10" d="M53634 35756c-1257,177 -2582,-115 -3691,-922 -2269,-1650 -2770,-4825 -1120,-7094 933,-1285 2355,-2003 3824,-2086l987 10102z"/>
   <path class="fil9" d="M39080 32915l-11660 16040 -1620 -1177c-1171,-8847 -775,-14387 -775,-14387 -11,-3843 309,-7169 882,-10053l13173 9577z"/>
   <path class="fil10" d="M28217 30997c2269,1650 2770,4824 1121,7094 -1025,1410 -2638,2138 -4257,2091 -235,-4303 -56,-6791 -56,-6791 -3,-1169 26,-2287 82,-3363 1076,-27 2171,287 3110,969z"/>
   <polygon class="fil9" points="54569,45335 43460,60617 27420,48955 39080,32915 54448,44087 "/>
   <path class="fil10" d="M44256 42658c2270,1651 2771,4825 1122,7094 -1650,2269 -4826,2772 -7095,1123 -2269,-1650 -2771,-4826 -1122,-7096 1651,-2270 4825,-2771 7095,-1121z"/>
   <polygon class="fil9" points="57025,70477 43460,60617 54569,45335 "/>
   <path class="fil10" d="M56335 63413c-706,-138 -1393,-427 -2013,-878 -2268,-1649 -2770,-4826 -1119,-7095 576,-793 1340,-1371 2185,-1716l947 9689z"/>
   <path class="fil9" d="M27420 48955l-1205 1658c-156,-978 -294,-1924 -415,-2835l1620 1177z"/>
   <path class="fil9" d="M43460 60617l-10500 14443c-3650,-9193 -5655,-17614 -6745,-24447l1205 -1658 16040 11662z"/>
   <path class="fil10" d="M32595 58697c2270,1651 2772,4826 1122,7096 -834,1147 -2059,1843 -3359,2037 -1101,-3407 -1983,-6665 -2686,-9720 1577,-649 3443,-489 4923,587z"/>
   <path class="fil9" d="M57473 75065l-9634 13252 -13426 -9760c-511,-1177 -995,-2343 -1453,-3497l10500 -14443 13565 9860 448 4588z"/>
   <path class="fil10" d="M48635 70359c2270,1650 2773,4825 1122,7094 -1650,2270 -4826,2773 -7095,1123 -2269,-1651 -2770,-4827 -1121,-7095 1650,-2270 4826,-2773 7094,-1122z"/>
   <polygon class="fil9" points="59603,96869 47839,88317 57473,75065 "/>
   <path class="fil10" d="M58972 90420c-91,-58 -181,-119 -270,-183 -2270,-1650 -2771,-4826 -1120,-7096 185,-255 390,-488 611,-699l779 7978z"/>
   <path class="fil9" d="M47839 88317l-4764 6552c-3524,-5551 -6368,-11036 -8662,-16312l13426 9760z"/>
   <path class="fil9" d="M60377 104796l-4757 6545c-4927,-5460 -9067,-10996 -12545,-16472l4764 -6552 11764 8552 774 7927z"/>
   <path class="fil10" d="M53015 98059c2270,1651 2772,4825 1121,7094 -608,837 -1424,1433 -2325,1770 -2120,-2581 -4079,-5171 -5881,-7755 1653,-2257 4820,-2755 7085,-1109z"/>
   <path class="fil9" d="M55620 111341l4757 -6545 1246 12772c-2124,-2059 -4118,-4138 -6003,-6227z"/>
   <path class="fil10" d="M61469 115985c-491,-1049 -612,-2247 -330,-3382l330 3382z"/>
   <path class="fil11" d="M94935 21416l-9138 12572 4296 -14855 0 0c0,0 2100,640 4842,2283z"/>
   <polygon class="fil12" points="86218,33407 85797,33988 86009,33254 "/>
   <polygon class="fil12" points="88866,29766 87542,31587 86674,30954 87339,28656 "/>
   <polygon class="fil12" points="91513,26122 90191,27943 88004,26354 88669,24054 "/>
   <polygon class="fil12" points="94162,22481 92837,24302 89334,21756 90000,19454 "/>
   <path class="fil11" d="M102415 64665l-21063 -15313 4445 -15364 9138 -12572c7458,4470 19689,16393 7480,43249z"/>
   <path class="fil12" d="M102415 64665l-21063 -15313 666 -2299 21323 15500c-291,693 -602,1398 -926,2112z"/>
   <path class="fil12" d="M104205 60400l-21522 -15645 665 -2303 21653 15741c-246,723 -511,1458 -796,2207z"/>
   <path class="fil12" d="M105718 55933l-21704 -15780 665 -2299 21667 15752c-188,761 -394,1534 -628,2327z"/>
   <path class="fil12" d="M106873 51203l-21529 -15650 453 -1565 421 -581 21064 15312c-105,806 -247,1638 -409,2484z"/>
   <path class="fil12" d="M107527 46115l-19985 -14528 1324 -1821 18728 13615c18,880 -9,1794 -67,2734z"/>
   <path class="fil12" d="M107399 40455l-17208 -12512 1322 -1821 15313 11133c244,1015 442,2077 573,3200z"/>
   <path class="fil12" d="M105662 33625l-12825 -9323 1325 -1821 9008 6548c940,1359 1792,2885 2492,4596z"/>
   <path class="fil11" d="M82531 94901l-11858 -8621 10679 -36928 21063 15313c-3867,8503 -10191,18504 -19884,30236z"/>
   <path class="fil12" d="M82531 94901l-11858 -8621 665 -2300 12627 9179c-465,574 -953,1160 -1434,1742z"/>
   <path class="fil12" d="M85367 91397l-13365 -9715 665 -2300 14095 10246c-450,583 -927,1177 -1395,1769z"/>
   <path class="fil12" d="M88126 87836l-14793 -10755 665 -2299 15476 11251c-438,595 -890,1197 -1348,1803z"/>
   <path class="fil12" d="M90800 84212l-16136 -11730 665 -2300 16766 12189c-424,610 -850,1221 -1295,1841z"/>
   <path class="fil12" d="M93374 80516l-17380 -12635 665 -2298 17958 13055c-404,620 -816,1245 -1243,1878z"/>
   <path class="fil12" d="M95831 76736l-18507 -13454 665 -2300 19029 13833c-381,632 -782,1276 -1187,1921z"/>
   <path class="fil12" d="M98170 72870l-19516 -14187 666 -2301 19959 14510c-359,653 -723,1309 -1109,1978z"/>
   <path class="fil12" d="M100349 68887l-20364 -14804 664 -2300 20730 15070c-327,669 -672,1348 -1030,2034z"/>
   <path class="fil11" d="M70673 86280l11858 8621c-5732,6937 -12623,14469 -20908,22667l9050 -31288z"/>
   <path class="fil12" d="M61988 116309l517 375c-298,297 -580,585 -882,884l365 -1259z"/>
   <path class="fil12" d="M64114 115070l-1461 -1062 665 -2299 2399 1744c-523,534 -1068,1078 -1603,1617z"/>
   <path class="fil12" d="M67301 111820l-3318 -2411 665 -2299 4234 3079c-514,537 -1055,1087 -1581,1631z"/>
   <path class="fil12" d="M70440 108537l-5126 -3728 665 -2299 6018 4374c-509,545 -1036,1101 -1557,1653z"/>
   <path class="fil12" d="M73531 105216l-6887 -5006 665 -2300 7748 5633c-499,553 -1013,1113 -1526,1673z"/>
   <path class="fil12" d="M76566 101855l-8591 -6245 664 -2299 9423 6850c-490,560 -992,1127 -1496,1694z"/>
   <path class="fil12" d="M79539 98451l-10235 -7440 666 -2300 11036 8022c-479,568 -972,1143 -1467,1718z"/>
   <path class="fil13" d="M73955 9078l-1260 1733 -864 -628 159 -1668 0 0c0,0 740,166 1965,563z"/>
   <path class="fil13" d="M82089 12782l-2310 3178 -7084 -5149 1260 -1733c1860,606 4850,1754 8134,3704z"/>
   <path class="fil14" d="M78167 10730l-1930 2657 -3542 -2576 1260 -1733c1079,352 2535,886 4212,1652z"/>
   <path class="fil13" d="M89059 18088l-2197 3023 -7083 -5151 2310 -3178c2279,1355 4696,3094 6970,5306z"/>
   <path class="fil14" d="M85724 15229l-2404 3307 -3541 -2576 2310 -3177c1188,705 2412,1519 3635,2446z"/>
   <path class="fil13" d="M94647 25295l-701 965 -7085 -5149 2198 -3023c2050,1997 3980,4380 5588,7207z"/>
   <path class="fil14" d="M92051 21419l-1647 2267 -3543 -2575 2198 -3022c1037,1009 2043,2116 2992,3330z"/>
   <path class="fil13" d="M95865 27655l-1919 -1395 701 -965c430,756 839,1539 1218,2360z"/>
   <path class="fil14" d="M95865 27656l-1919 -1396 701 -964c430,756 840,1539 1218,2360z"/>
   <polygon class="fil13" points="72695,10811 71633,12273 71831,10183 "/>
   <polygon class="fil14" points="72690,10807 71634,12259 71831,10183 "/>
   <polygon class="fil13" points="79779,15960 74628,23044 70869,20311 71633,12273 72695,10811 "/>
   <polygon class="fil14" points="73661,16927 71087,20469 70869,20310 71350,15247 "/>
   <polygon class="fil15" points="76237,13387 73661,16927 71350,15247 71633,12273 72695,10811 "/>
   <polygon class="fil14" points="79773,15957 77198,19499 73655,16924 76231,13383 "/>
   <polygon class="fil13" points="86862,21111 81713,28193 74628,23044 79779,15960 "/>
   <polygon class="fil14" points="80745,22077 78171,25619 74628,23044 77204,19503 "/>
   <polygon class="fil15" points="83320,18536 80745,22077 77203,19503 79779,15960 "/>
   <polygon class="fil14" points="86856,21107 84282,24649 80739,22074 83315,18532 "/>
   <polygon class="fil13" points="93946,26260 88797,33344 81712,28194 86861,21111 "/>
   <polygon class="fil14" points="87829,27228 85254,30769 81712,28194 84288,24652 "/>
   <polygon class="fil15" points="90404,23686 87829,27228 84287,24652 86862,21111 "/>
   <polygon class="fil14" points="93939,26257 91365,29798 87824,27224 90399,23681 "/>
   <path class="fil13" d="M98280 35192l-2401 3302 -7082 -5150 5149 -7084 1919 1395c1039,2252 1867,4761 2415,7537z"/>
   <polygon class="fil14" points="94911,32378 92337,35919 88797,33344 91372,29803 "/>
   <path class="fil15" d="M96765 29830l-1854 2548 -3540 -2576 2575 -3542 1919 1396c323,698 619,1427 900,2174z"/>
   <path class="fil14" d="M98192 34762l-3285 -2389 1855 -2551c578,1539 1061,3184 1430,4940z"/>
   <path class="fil13" d="M98949 40725l-3070 -2231 2401 -3301c342,1734 571,3577 669,5532z"/>
   <path class="fil14" d="M98949 40724l-3070 -2230 2401 -3301c342,1734 571,3577 669,5531z"/>
   <polygon class="fil13" points="74628,23044 70004,29405 70869,20311 "/>
   <polygon class="fil15" points="71087,20469 70818,20839 70869,20310 "/>
   <polygon class="fil14" points="74623,23040 72049,26583 70387,25375 70819,20827 71081,20467 "/>
   <polygon class="fil13" points="81713,28193 76563,35278 69906,30438 70004,29406 74628,23044 "/>
   <polygon class="fil14" points="75595,29161 73021,32703 69906,30438 70004,29406 72054,26587 "/>
   <polygon class="fil15" points="78171,25619 75595,29161 72054,26587 74628,23044 "/>
   <polygon class="fil14" points="81707,28190 79131,31733 75592,29157 78166,25616 "/>
   <polygon class="fil13" points="88797,33344 83645,40427 76563,35278 81712,28194 "/>
   <polygon class="fil14" points="82679,34310 80104,37853 76563,35278 79138,31736 "/>
   <polygon class="fil15" points="85254,30769 82679,34310 79138,31736 81713,28193 "/>
   <polygon class="fil14" points="88790,33340 86215,36882 82674,34307 85249,30765 "/>
   <polygon class="fil13" points="95879,38494 90730,45576 83645,40427 88797,33344 "/>
   <polygon class="fil14" points="89762,39460 87187,43002 83645,40427 86222,36886 "/>
   <polygon class="fil15" points="92337,35919 89762,39460 86221,36885 88797,33344 "/>
   <polygon class="fil14" points="95875,38490 93300,42032 89758,39456 92333,35915 "/>
   <path class="fil13" d="M98508 49770l-695 957 -7083 -5150 5149 -7083 3070 2231c139,2780 12,5790 -441,9045z"/>
   <polygon class="fil14" points="96847,44610 94271,48152 90730,45577 93305,42036 "/>
   <path class="fil15" d="M98996 41652l-2149 2958 -3542 -2574 2574 -3542 3070 2230c15,310 39,613 47,928z"/>
   <path class="fil14" d="M98900 46101l-2058 -1495 2154 -2963c40,1426 9,2913 -96,4458z"/>
   <path class="fil13" d="M98312 51089l-499 -362 695 -957c-60,436 -124,875 -196,1319z"/>
   <path class="fil14" d="M98312 51089l-499 -362 695 -956c-60,435 -124,874 -196,1318z"/>
   <polygon class="fil13" points="76563,35278 71413,42361 68943,40565 69906,30438 "/>
   <polygon class="fil14" points="70446,36245 69189,37973 69425,35502 "/>
   <polygon class="fil15" points="73021,32703 70446,36245 69425,35502 69906,30439 "/>
   <polygon class="fil14" points="76557,35274 73983,38817 70441,36240 73016,32700 "/>
   <polygon class="fil13" points="83645,40427 78497,47511 71413,42361 76563,35278 "/>
   <polygon class="fil14" points="77529,41394 74955,44936 71413,42361 73989,38821 "/>
   <polygon class="fil15" points="80104,37853 77529,41394 73989,38820 76563,35278 "/>
   <polygon class="fil14" points="83641,40424 81067,43966 77525,41391 80100,37849 "/>
   <polygon class="fil13" points="90730,45576 85581,52661 78497,47511 83645,40427 "/>
   <polygon class="fil14" points="84613,46544 82039,50086 78497,47511 81072,43970 "/>
   <polygon class="fil15" points="87187,43002 84613,46544 81072,43969 83645,40427 "/>
   <polygon class="fil14" points="90724,45573 88152,49115 84608,46540 87183,42999 "/>
   <polygon class="fil13" points="97813,50727 92665,57810 85581,52661 90730,45577 "/>
   <polygon class="fil14" points="91696,51693 89123,55235 85581,52661 88155,49120 "/>
   <polygon class="fil15" points="94271,48152 91696,51693 88155,49119 90730,45576 "/>
   <polygon class="fil14" points="97809,50722 95233,54265 91692,51690 94266,48148 "/>
   <path class="fil13" d="M96116 60320l-3451 -2510 5148 -7083 499 362c-470,2886 -1188,5958 -2196,9231z"/>
   <path class="fil14" d="M96116 60320l-3451 -2510 2574 -3541 2120 1540c-352,1459 -767,2963 -1243,4511z"/>
   <path class="fil15" d="M97359 55809l-2121 -1540 2575 -3542 499 362c-248,1522 -561,3093 -953,4720z"/>
   <polygon class="fil13" points="71413,42361 68375,46540 68943,40565 "/>
   <polygon class="fil14" points="71407,42357 68833,45899 68462,45629 68943,40566 "/>
   <polygon class="fil13" points="78497,47511 73347,54595 67981,50693 68375,46542 71413,42361 "/>
   <polygon class="fil14" points="72379,48478 69805,52019 67981,50693 68375,46542 68839,45903 "/>
   <polygon class="fil15" points="74955,44936 72379,48478 68838,45903 71413,42361 "/>
   <polygon class="fil14" points="78491,47508 75917,51049 72375,48474 74949,44932 "/>
   <polygon class="fil13" points="85581,52661 80430,59745 73348,54595 78497,47511 "/>
   <polygon class="fil14" points="79463,53628 76889,57169 73348,54595 75922,51053 "/>
   <polygon class="fil15" points="82039,50086 79463,53628 75922,51053 78497,47511 "/>
   <polygon class="fil14" points="85576,52657 83000,56198 79458,53623 82032,50083 "/>
   <polygon class="fil13" points="92665,57810 87514,64894 80431,59745 85581,52661 "/>
   <polygon class="fil14" points="86547,58777 83972,62320 80431,59745 83004,56203 "/>
   <polygon class="fil15" points="89123,55235 86547,58777 83004,56203 85581,52661 "/>
   <polygon class="fil14" points="92660,57806 90084,61348 86542,58773 89116,55232 "/>
   <path class="fil13" d="M92991 68877l-5476 -3983 5150 -7084 3451 2510c-836,2713 -1871,5563 -3125,8557z"/>
   <polygon class="fil14" points="93632,63927 91055,67468 87515,64894 90088,61352 "/>
   <path class="fil15" d="M96021 60639l-2389 3288 -3544 -2575 2577 -3542 3451 2510c-33,107 -61,211 -95,319z"/>
   <path class="fil14" d="M94644 64663l-1019 -740 2402 -3302c-410,1313 -879,2665 -1383,4042z"/>
   <polygon class="fil13" points="73347,54595 68198,61679 67018,60821 67981,50693 "/>
   <polygon class="fil15" points="69805,52019 67561,55107 67981,50693 "/>
   <polygon class="fil14" points="73341,54591 70766,58134 67499,55757 67562,55095 69800,52016 "/>
   <polygon class="fil13" points="80430,59745 75281,66829 68198,61679 73348,54595 "/>
   <polygon class="fil14" points="74314,60712 71739,64253 68198,61679 70773,58137 "/>
   <polygon class="fil15" points="76889,57169 74314,60712 70773,58136 73347,54595 "/>
   <polygon class="fil14" points="80426,59740 77852,63282 74309,60708 76883,57166 "/>
   <polygon class="fil13" points="87514,64894 82365,71977 75281,66829 80431,59745 "/>
   <polygon class="fil14" points="81398,65860 78823,69403 75281,66829 77856,63286 "/>
   <polygon class="fil15" points="83972,62320 81398,65860 77856,63286 80430,59745 "/>
   <polygon class="fil14" points="87508,64890 84935,68432 81393,65857 83967,62315 "/>
   <path class="fil13" d="M89229 76967l-6864 -4990 5150 -7083 5476 3983c-1082,2587 -2337,5285 -3762,8090z"/>
   <polygon class="fil14" points="88480,71010 85906,74552 82365,71977 84940,68436 "/>
   <polygon class="fil15" points="91055,67468 88480,71010 84940,68436 87514,64894 "/>
   <path class="fil14" d="M91181 72973l-2705 -1967 2574 -3540 1941 1411c-559,1336 -1161,2700 -1810,4096z"/>
   <polygon class="fil13" points="68198,61679 66747,63674 67018,60821 "/>
   <polygon class="fil14" points="68193,61675 66748,63662 67018,60821 "/>
   <polygon class="fil13" points="75281,66829 70131,73912 66055,70948 66747,63675 68198,61679 "/>
   <polygon class="fil14" points="69165,67795 66589,71336 66055,70948 66536,65885 "/>
   <polygon class="fil15" points="71739,64253 69165,67795 66536,65884 66746,63675 68198,61679 "/>
   <polygon class="fil14" points="75276,66824 72701,70366 69159,67791 71733,64250 "/>
   <polygon class="fil13" points="82365,71977 77215,79062 70132,73912 75281,66829 "/>
   <polygon class="fil14" points="76249,72945 73673,76487 70132,73912 72706,70370 "/>
   <polygon class="fil15" points="78823,69403 76249,72945 72706,70370 75281,66829 "/>
   <polygon class="fil14" points="82359,71973 79784,75516 76242,72941 78817,69399 "/>
   <path class="fil13" d="M88426 78533l-4128 5678 -7082 -5149 5149 -7085 6864 4990c-264,519 -525,1038 -803,1566z"/>
   <polygon class="fil14" points="83332,78095 80756,81636 77216,79062 79789,75519 "/>
   <polygon class="fil15" points="85906,74552 83332,78095 79789,75519 82365,71977 "/>
   <path class="fil14" d="M88447 78493l-1580 2173 -3541 -2576 2576 -3541 3327 2418c-258,507 -513,1012 -782,1526z"/>
   <path class="fil13" d="M84995 84717l-695 -505 4126 -5677c-1050,2003 -2198,4067 -3431,6182z"/>
   <path class="fil14" d="M84995 84717l-695 -505 2574 -3543 289 210c-688,1259 -1409,2537 -2168,3838z"/>
   <path class="fil15" d="M87162 80880l-288 -211 1552 -2135c-404,771 -832,1557 -1264,2346z"/>
   <polygon class="fil13" points="70131,73912 65118,80809 66055,70948 "/>
   <polygon class="fil15" points="66589,71336 65932,72241 66055,70949 "/>
   <polygon class="fil14" points="70126,73908 67551,77449 65574,76012 65933,72228 66584,71333 "/>
   <polygon class="fil13" points="77215,79062 72066,86144 65092,81077 65118,80809 70132,73912 "/>
   <polygon class="fil14" points="71098,80029 68523,83570 65092,81077 65118,80809 67556,77453 "/>
   <polygon class="fil15" points="73673,76487 71098,80029 67556,77453 70131,73912 "/>
   <polygon class="fil14" points="77210,79058 74635,82599 71093,80025 73668,76482 "/>
   <polygon class="fil13" points="84298,84211 79149,91294 72065,86144 77216,79062 "/>
   <polygon class="fil14" points="78182,85178 75608,88720 72065,86144 74640,82604 "/>
   <polygon class="fil15" points="80756,81636 78182,85178 74640,82604 77215,79062 "/>
   <polygon class="fil14" points="84293,84207 81719,87749 78178,85175 80753,81632 "/>
   <path class="fil13" d="M80391 92197l-1242 -903 5151 -7082 695 505c-1410,2419 -2940,4910 -4604,7480z"/>
   <path class="fil14" d="M80391 92197l-1242 -903 2575 -3541 1011 735c-751,1218 -1531,2454 -2344,3709z"/>
   <path class="fil15" d="M82735 88488l-1011 -736 2574 -3541 697 506c-722,1238 -1473,2494 -2260,3771z"/>
   <polygon class="fil13" points="72066,86144 66916,93229 64129,91203 65092,81077 "/>
   <polygon class="fil14" points="65949,87112 64304,89375 64611,86139 "/>
   <polygon class="fil15" points="68523,83570 65949,87112 64611,86139 65092,81077 "/>
   <polygon class="fil14" points="72060,86142 69485,89683 65943,87109 68519,83566 "/>
   <polygon class="fil13" points="79149,91294 74000,98378 66916,93229 72065,86144 "/>
   <polygon class="fil14" points="73032,92262 70458,95803 66916,93229 69491,89687 "/>
   <polygon class="fil15" points="75608,88720 73032,92262 69491,89687 72066,86144 "/>
   <polygon class="fil14" points="79143,91291 76568,94833 73027,92258 75602,88716 "/>
   <path class="fil13" d="M75482 99456l-1482 -1077 5149 -7085 1242 903c-1523,2354 -3161,4775 -4909,7259z"/>
   <path class="fil14" d="M75482 99456l-1482 -1077 2575 -3543 1396 1016c-801,1185 -1632,2387 -2489,3604z"/>
   <path class="fil15" d="M77971 95852l-1397 -1016 2575 -3542 1243 903c-778,1201 -1586,2420 -2421,3655z"/>
   <polygon class="fil13" points="66916,93229 63489,97942 64129,91203 "/>
   <polygon class="fil14" points="66910,93225 64335,96766 63648,96267 64130,91203 "/>
   <polygon class="fil13" points="74000,98378 68849,105462 63167,101330 63489,97944 66916,93229 "/>
   <polygon class="fil14" points="67882,99345 65307,102888 63167,101330 63489,97943 64341,96771 "/>
   <polygon class="fil15" points="70458,95803 67882,99345 64341,96771 66916,93229 "/>
   <polygon class="fil14" points="73994,98375 71419,101916 67877,99342 70453,95799 "/>
   <path class="fil13" d="M70322 106532l-1472 -1069 5150 -7084 1482 1077c-1619,2302 -3339,4660 -5160,7076z"/>
   <path class="fil14" d="M70322 106532l-1472 -1069 2575 -3543 1506 1095c-845,1159 -1715,2331 -2609,3517z"/>
   <path class="fil15" d="M72932 103015l-1507 -1095 2575 -3542 1482 1078c-823,1171 -1676,2358 -2550,3559z"/>
   <polygon class="fil13" points="68849,105462 63701,112545 62204,111458 63167,101330 "/>
   <polygon class="fil14" points="62732,106429 62675,106508 62685,106395 "/>
   <polygon class="fil15" points="65307,102888 62732,106429 62685,106395 63167,101330 "/>
   <polygon class="fil14" points="68843,105458 66269,109000 62729,106425 65303,102883 "/>
   <path class="fil13" d="M64955 113459l-1254 -912 5149 -7084 1472 1069c-1704,2262 -3479,4563 -5367,6927z"/>
   <path class="fil14" d="M64955 113459l-1254 -912 2575 -3543 1386 1008c-884,1139 -1777,2283 -2707,3447z"/>
   <path class="fil15" d="M67663 110012l-1388 -1009 2574 -3541 1473 1070c-865,1148 -1747,2307 -2659,3480z"/>
   <polygon class="fil13" points="63701,112545 61860,115078 62204,111458 "/>
   <polygon class="fil14" points="63695,112543 61862,115063 62204,111459 "/>
   <path class="fil13" d="M61860 115079l1841 -2532 1254 912c-1081,1353 -2188,2721 -3332,4109l237 -2489z"/>
   <path class="fil14" d="M61723 116522l471 342c-193,237 -374,466 -571,704l100 -1046z"/>
   <path class="fil15" d="M62194 116864l-471 -342 137 -1446 1841 -2531 1254 913c-896,1122 -1822,2261 -2761,3406z"/>
   <path class="fil16" d="M81893 68205l-23868 12511 -7335 -75104 0 0c0,0 24044,-11200 30552,22289 0,0 4571,16755 651,40304z"/>
   <polygon class="fil17" points="63120,78045 58841,80289 57786,78277 56538,65487 "/>
   <polygon class="fil17" points="71681,73559 67400,75802 55289,52697 54039,39904 "/>
   <polygon class="fil17" points="80242,69071 75961,71314 52790,27111 51541,14317 "/>
   <path class="fil17" d="M82617 63196l-30476 -58140c1124,-379 2833,-853 4884,-1091l26344 50258c-126,2825 -366,5827 -752,8973z"/>
   <path class="fil17" d="M83356 43787l-20844 -39763c2188,321 4487,1047 6724,2418l12569 23979c522,2647 1258,7270 1551,13366z"/>
   <path class="fil16" d="M58025 80716l23868 -12511c-2434,14629 -8145,31876 -20270,49363l-3598 -36852z"/>
   <path class="fil17" d="M61534 116655l309 590c-74,108 -144,215 -220,323l-89 -913z"/>
   <path class="fil17" d="M64880 112629l-4595 -8766 -1249 -12793 8751 16693c-918,1617 -1886,3239 -2907,4866z"/>
   <path class="fil17" d="M70552 102628l-11711 -22339 4279 -2244 10028 19128c-807,1807 -1668,3625 -2596,5455z"/>
   <path class="fil17" d="M75560 91370l-8160 -15568 4281 -2243 6080 11600c-661,2045 -1393,4116 -2201,6211z"/>
   <path class="fil17" d="M79713 78473l-3752 -7159 4281 -2243 1114 2128c-457,2366 -999,4793 -1643,7274z"/>
   <polygon class="fil3" points="68159,128107 67873,128089 68752,116824 69038,116849 "/>
   <polygon class="fil18" points="69086,136322 57881,137418 57035,128761 68239,127665 "/>
   <polygon class="fil19" points="69063,117427 53850,118912 48384,108329 72828,105942 "/>
  </g>
 </g>
</svg>
