<?xml version="1.0" encoding="UTF-8"?>
<!DOCTYPE svg PUBLIC "-//W3C//DTD SVG 1.1//EN" "http://www.w3.org/Graphics/SVG/1.1/DTD/svg11.dtd">
<!-- Creator: CorelDRAW X7 -->
<svg xmlns="http://www.w3.org/2000/svg" xml:space="preserve" width="9.2958mm" height="9.3459mm" version="1.1" style="shape-rendering:geometricPrecision; text-rendering:geometricPrecision; image-rendering:optimizeQuality; fill-rule:evenodd; clip-rule:evenodd"
viewBox="0 0 53282 53569"
 xmlns:xlink="http://www.w3.org/1999/xlink">
 <defs>
  <style type="text/css">
   <![CDATA[
    .fil1 {fill:#378790;fill-rule:nonzero}
    .fil0 {fill:#3DA4B0;fill-rule:nonzero}
    .fil2 {fill:#6CB7B7;fill-rule:nonzero}
    .fil4 {fill:#D31628;fill-rule:nonzero}
    .fil5 {fill:#ED1C24;fill-rule:nonzero}
    .fil3 {fill:white;fill-rule:nonzero}
   ]]>
  </style>
 </defs>
 <g id="Layer_x0020_1">
  <metadata id="CorelCorpID_0Corel-Layer"/>
  <g id="_2325567280">
   <path class="fil0" d="M8378 40727c-179,86 -358,171 -537,255 -368,-752 -697,-1528 -986,-2326l-4816 1933 2472 -17242 12382 9730c-771,862 -1578,1706 -2420,2528l-675 271c60,68 122,136 184,203 -1729,1645 -3599,3200 -5604,4648zm13633 -14466l-1238 -5695c-1247,-251 -2496,-686 -3728,-1305l-1085 -543 -729 -4989 3570 -521c-1491,-1092 -2508,-2723 -2773,-4546 -278,-1882 239,-3755 1451,-5276 578,-726 1282,-1328 2076,-1786 820,-474 1735,-793 2705,-933 535,-80 1081,-102 1619,-65 3432,229 6160,2673 6641,5941 266,1824 -242,3678 -1356,5150l3385 -496 715 4905c-2125,-247 -4192,-752 -6152,-1503 -1060,3986 -2779,7924 -5101,11662z"/>
   <path class="fil1" d="M7888 41076c-16,-31 -31,-63 -47,-94 179,-84 358,-169 537,-255 -163,117 -327,233 -490,349z"/>
   <path class="fil2" d="M37288 50847c-2181,1259 -4617,2127 -7235,2509 -1409,208 -2843,263 -4258,168 -7615,-510 -14425,-5402 -17907,-12448 163,-116 327,-232 490,-349 2005,-1448 3875,-3003 5604,-4648 1132,1235 2420,2292 3827,3141 358,-430 767,-845 1223,-1241l1124 -969 1353 607c254,114 525,217 806,307l942 -5931 -1246 -5732c2322,-3738 4041,-7676 5101,-11662 1960,751 4027,1256 6152,1503l36 246 -951 834c-127,111 -260,223 -397,338 -686,566 -1401,1062 -2140,1489 -146,84 -293,165 -441,245l912 11950 2494 5192c245,-168 476,-344 684,-525l1123 -970 1354 610c610,274 1170,588 1674,939 1227,-1321 2243,-2838 3020,-4504l-4696 -430 10042 -14231 7303 15817 -5197 -476c-410,7828 -4565,14623 -10796,18221zm-19083 -16739l-3732 1497c842,-822 1649,-1666 2420,-2528l1312 1031z"/>
   <path class="fil3" d="M43941 16701l-10045 14231 4697 428c-777,1668 -1794,3187 -3020,4505 -505,-351 -1063,-666 -1674,-940l-1354 -608 -1123 970c-210,181 -438,356 -684,524l-2493 -5190 -911 -11953c894,-476 1758,-1055 2580,-1733 137,-114 270,-227 395,-339l952 -834 -751 -5148 -3387 494c1116,-1472 1624,-3326 1357,-5150 -479,-3269 -3209,-5712 -6640,-5941 -537,-36 -1083,-15 -1620,64 -1908,278 -3605,1245 -4781,2721 -1210,1520 -1727,3394 -1452,5276 266,1824 1285,3454 2774,4546l-3570 520 730 4989 1084 545c1234,616 2482,1052 3730,1303l2483 11426 -943 5933c-282,-91 -551,-192 -805,-308l-1353 -606 -1122 969c-459,395 -867,810 -1224,1241 -1486,-897 -2836,-2024 -4013,-3346l4407 -1766 -13692 -10763 -2473 17243 4817 -1932c3014,8326 10480,14301 18939,14867 1415,96 2848,39 4260,-167 10096,-1476 17472,-10165 18028,-20730l5199 475 -7302 -15816z"/>
   <path class="fil4" d="M32625 48935l7245 -15179c469,-827 882,-1693 1236,-2591l3481 -7294 789 1709 1960 4244 0 0 -3722 -341c479,8471 -4008,16146 -10989,19452z"/>
   <path class="fil5" d="M32625 48935l7245 -15179c469,-827 882,-1693 1236,-2591l3481 -7294 789 1709 130 281 -1736 3636 -156 -14c5,104 9,208 14,312l-8421 17642c-815,568 -1678,1070 -2582,1498z"/>
   <path class="fil5" d="M38711 44272l4566 -9567c-684,3619 -2283,6919 -4566,9567zm6968 -14600l806 -1690 851 1842 0 0 -1657 -152z"/>
   <path class="fil4" d="M18530 7392c-195,-1350 811,-2612 2248,-2821 1437,-210 2762,711 2958,2059 197,1350 -808,2612 -2246,2822 -1437,209 -2763,-712 -2960,-2060zm9937 6036l-294 -141 268 -39 26 180zm-4117 -1965l-6939 -3312 2728 -5716c104,-21 210,-41 317,-56 2730,-400 5246,1351 5621,3909 245,1676 -489,3283 -1793,4305l66 870z"/>
   <path class="fil5" d="M18930 8877l-1519 -726 2728 -5716c104,-21 210,-41 317,-56 538,-79 1067,-74 1573,4l-1033 2165c-73,4 -145,12 -218,23 -1437,209 -2443,1471 -2248,2821 66,453 260,857 542,1187l-142 298z"/>
   <path class="fil5" d="M22074 10377l-1520 -725 98 -204c269,42 551,45 838,4 487,-71 924,-263 1282,-538l-698 1463zm681 -5338l988 -2069c513,287 967,661 1338,1105l-1323 2773c-4,-72 -11,-145 -22,-218 -96,-660 -463,-1217 -981,-1591z"/>
   <path class="fil5" d="M24350 11463l-652 -311 2364 -4954 15 90c245,1676 -489,3283 -1793,4305l66 870z"/>
   <polygon class="fil5" points="28363,13377 28173,13287 28423,13250 "/>
   <path class="fil4" d="M31347 49480l-24194 -11545c-379,-955 -696,-1949 -941,-2977l-1972 791 2972 -6229 568 446 3676 2890 -3492 1401c2130,3306 5112,5894 8544,7438 360,-907 1016,-1775 1909,-2545 1061,476 2311,801 3677,934l626 -3921 767 -4828 -727 -3344 -2198 -10108c-1527,-90 -3067,-521 -4614,-1295l-217 -1482 4095 -599 -687 -3162c-974,-384 -1798,-1058 -2333,-1925l605 -1269 6939 3312 180 2356 3643 -532 294 141 207 1412c-111,97 -226,196 -343,295 -845,694 -2052,1519 -3542,2086l788 10359 279 3646 2009 4184 1720 3579c1270,-520 2379,-1186 3258,-1948 1129,510 2041,1195 2645,2014 1749,-1474 3232,-3271 4382,-5299l-7245 15179c-418,198 -844,380 -1278,545zm13240 -25609l-3481 7294c238,-604 449,-1222 631,-1853l-3711 -340 2695 -3819 2695 -3819 1171 2537z"/>
   <path class="fil5" d="M4240 35749l2972 -6229 568 446 790 621 -2264 4744c-32,-124 -64,-248 -94,-373l-1972 791zm12566 -26329l605 -1269 1519 726 -891 1866c-494,-359 -915,-807 -1233,-1323zm-832 5651l-190 397 -53 -362 243 -35z"/>
   <path class="fil5" d="M8594 38623l-1441 -689 -43 -109 1351 -2832c364,516 749,1012 1155,1488l-1022 2142zm419 -4787l1007 -2109 1356 1066 -56 118 -2307 925zm8002 -16768l1103 -2311 1708 -250 -497 -2288 1225 -2567 1520 725 -3442 7212c-538,-132 -1077,-305 -1617,-521z"/>
   <path class="fil5" d="M11739 40124l-1522 -727 719 -1506c422,409 860,798 1312,1167l-509 1066zm8749 -22247l3210 -6725 652 311 147 1926 -3375 7072 -560 -2578 -74 -6z"/>
   <path class="fil5" d="M14883 41624l-1522 -725 360 -752c470,314 953,608 1446,879l-284 598zm6863 -18295l4670 -9785 1757 -257 190 90 -1273 2666c-660,430 -1433,847 -2301,1178l239 3144 -2698 5652 -584 -2688z"/>
   <path class="fil5" d="M18026 43124l-1521 -725 1245 -2608c204,-220 427,-434 667,-641 401,180 829,338 1280,473l-1671 3501zm4929 -14239l2347 -4919 257 3374 -2156 4516 84 -521 -532 -2450z"/>
   <path class="fil5" d="M21170 44624l-1520 -726 1855 -3884c193,27 390,50 589,70l313 -1964 3427 -7178 22 284 856 1785 -5542 11613z"/>
   <polygon class="fil5" points="24315,46126 22794,45400 27713,35093 27865,35410 28650,37043 "/>
   <path class="fil5" d="M27459 47625l-1522 -725 3808 -7977c958,-406 1821,-895 2557,-1447l-4843 10149z"/>
   <path class="fil5" d="M30603 49127l-1522 -727 5070 -10622c513,358 947,765 1289,1212l-4837 10137zm7736 -20126l697 -1460 1685 -2388 2695 -3819 222 480 -3509 7350 -1790 -163z"/>
   <path class="fil4" d="M7153 37935l24194 11545c-1197,456 -2456,789 -3769,982 -8770,1281 -17079,-4099 -20425,-12527z"/>
   <path class="fil5" d="M7153 37934l1441 689 -579 1212c-315,-614 -603,-1249 -862,-1901z"/>
   <path class="fil5" d="M9111 41715l1106 -2318 1522 727 -1504 3151c-396,-499 -771,-1020 -1124,-1560z"/>
   <path class="fil5" d="M11525 44748l1836 -3849 1522 725 -2075 4346c-444,-386 -872,-794 -1283,-1222z"/>
   <path class="fil5" d="M14254 47116l2251 -4717 1521 725 -2350 4924c-486,-289 -961,-600 -1422,-932z"/>
   <path class="fil5" d="M17265 48894l2385 -4996 1520 726 -2349 4922c-527,-193 -1047,-411 -1556,-652z"/>
   <path class="fil5" d="M20557 50085l2237 -4685 1521 726 -2057 4310c-574,-89 -1142,-207 -1701,-351z"/>
   <path class="fil5" d="M24158 50628l1779 -3728 1522 725 -1429 2993c-628,36 -1253,40 -1872,10z"/>
   <path class="fil5" d="M28142 50369l939 -1969 1522 727 -349 732c-687,210 -1391,381 -2112,510z"/>
   <path class="fil4" d="M17411 8151l-1242 -592c-254,-2391 1473,-4605 3970,-5124l-2728 5716z"/>
   <path class="fil5" d="M17549 3814l-1389 2909c93,-1104 599,-2127 1389,-2909z"/>
   <path class="fil4" d="M3334 36113l-492 -235 598 -4171 663 -4630 3109 2443 -2972 6229 -906 364zm12835 -28554l1242 592 -605 1269c-311,-504 -525,-1072 -615,-1687 -8,-58 -15,-116 -22,-174z"/>
   <polygon class="fil5" points="3899,28502 4450,27349 5807,28416 3099,34091 3440,31707 "/>
   <polygon class="fil4" points="2842,35878 3334,36113 2776,36336 "/>
   <path class="fil4" d="M18530 7392c-195,-1350 811,-2612 2248,-2821 1437,-210 2762,711 2958,2059 197,1350 -808,2612 -2246,2822 -1437,209 -2763,-712 -2960,-2060zm9937 6036l-294 -141 268 -39 26 180zm-4117 -1965l-6939 -3312 2728 -5716c104,-21 210,-41 317,-56 2730,-400 5246,1351 5621,3909 245,1676 -489,3283 -1793,4305l66 870z"/>
   <path class="fil5" d="M18930 8877l-1519 -726 2728 -5716c104,-21 210,-41 317,-56 538,-79 1067,-74 1573,4l-1033 2165c-73,4 -145,12 -218,23 -1437,209 -2443,1471 -2248,2821 66,453 260,857 542,1187l-142 298z"/>
   <path class="fil5" d="M22074 10377l-1520 -725 98 -204c269,42 551,45 838,4 487,-71 924,-263 1282,-538l-698 1463zm681 -5338l988 -2069c513,287 967,661 1338,1105l-1323 2773c-4,-72 -11,-145 -22,-218 -96,-660 -463,-1217 -981,-1591z"/>
   <path class="fil5" d="M24350 11463l-652 -311 2364 -4954 15 90c245,1676 -489,3283 -1793,4305l66 870z"/>
   <polygon class="fil5" points="28363,13377 28173,13287 28423,13250 "/>
   <path class="fil4" d="M31347 49480l-24194 -11545c-379,-955 -696,-1949 -941,-2977l-1972 791 2972 -6229 568 446 3676 2890 -3492 1401c2130,3306 5112,5894 8544,7438 360,-907 1016,-1775 1909,-2545 1061,476 2311,801 3677,934l626 -3921 767 -4828 -727 -3344 -2198 -10108c-1527,-90 -3067,-521 -4614,-1295l-217 -1482 4095 -599 -687 -3162c-974,-384 -1798,-1058 -2333,-1925l605 -1269 6939 3312 180 2356 3643 -532 294 141 207 1412c-111,97 -226,196 -343,295 -845,694 -2052,1519 -3542,2086l788 10359 279 3646 2009 4184 1720 3579c1270,-520 2379,-1186 3258,-1948 1129,510 2041,1195 2645,2014 1749,-1474 3232,-3271 4382,-5299l-7245 15179c-418,198 -844,380 -1278,545zm13240 -25609l-3481 7294c238,-604 449,-1222 631,-1853l-3711 -340 2695 -3819 2695 -3819 1171 2537z"/>
   <path class="fil5" d="M4240 35749l2972 -6229 568 446 790 621 -2264 4744c-32,-124 -64,-248 -94,-373l-1972 791zm12566 -26329l605 -1269 1519 726 -891 1866c-494,-359 -915,-807 -1233,-1323zm-832 5651l-190 397 -53 -362 243 -35z"/>
   <path class="fil5" d="M8594 38623l-1441 -689 -43 -109 1351 -2832c364,516 749,1012 1155,1488l-1022 2142zm419 -4787l1007 -2109 1356 1066 -56 118 -2307 925zm8002 -16768l1103 -2311 1708 -250 -497 -2288 1225 -2567 1520 725 -3442 7212c-538,-132 -1077,-305 -1617,-521z"/>
   <path class="fil5" d="M11739 40124l-1522 -727 719 -1506c422,409 860,798 1312,1167l-509 1066zm8749 -22247l3210 -6725 652 311 147 1926 -3375 7072 -560 -2578 -74 -6z"/>
   <path class="fil5" d="M14883 41624l-1522 -725 360 -752c470,314 953,608 1446,879l-284 598zm6863 -18295l4670 -9785 1757 -257 190 90 -1273 2666c-660,430 -1433,847 -2301,1178l239 3144 -2698 5652 -584 -2688z"/>
   <path class="fil5" d="M18026 43124l-1521 -725 1245 -2608c204,-220 427,-434 667,-641 401,180 829,338 1280,473l-1671 3501zm4929 -14239l2347 -4919 257 3374 -2156 4516 84 -521 -532 -2450z"/>
   <path class="fil5" d="M21170 44624l-1520 -726 1855 -3884c193,27 390,50 589,70l313 -1964 3427 -7178 22 284 856 1785 -5542 11613z"/>
   <polygon class="fil5" points="24315,46126 22794,45400 27713,35093 27865,35410 28650,37043 "/>
   <path class="fil5" d="M27459 47625l-1522 -725 3808 -7977c958,-406 1821,-895 2557,-1447l-4843 10149z"/>
   <path class="fil5" d="M30603 49127l-1522 -727 5070 -10622c513,358 947,765 1289,1212l-4837 10137zm7736 -20126l697 -1460 1685 -2388 2695 -3819 222 480 -3509 7350 -1790 -163z"/>
   <path class="fil4" d="M17411 8151l-1242 -592c-254,-2391 1473,-4605 3970,-5124l-2728 5716z"/>
   <path class="fil5" d="M17549 3814l-1389 2909c93,-1104 599,-2127 1389,-2909z"/>
   <path class="fil4" d="M3334 36113l-492 -235 598 -4171 663 -4630 3109 2443 -2972 6229 -906 364zm12835 -28554l1242 592 -605 1269c-311,-504 -525,-1072 -615,-1687 -8,-58 -15,-116 -22,-174z"/>
   <polygon class="fil5" points="3899,28502 4450,27349 5807,28416 3099,34091 3440,31707 "/>
  </g>
 </g>
</svg>
