<?xml version="1.0" encoding="UTF-8"?>
<!DOCTYPE svg PUBLIC "-//W3C//DTD SVG 1.1//EN" "http://www.w3.org/Graphics/SVG/1.1/DTD/svg11.dtd">
<!-- Creator: CorelDRAW X7 -->
<svg xmlns="http://www.w3.org/2000/svg" xml:space="preserve" width="82.2004mm" height="42.548mm" version="1.1" style="shape-rendering:geometricPrecision; text-rendering:geometricPrecision; image-rendering:optimizeQuality; fill-rule:evenodd; clip-rule:evenodd"
viewBox="0 0 9932507 5141195"
 xmlns:xlink="http://www.w3.org/1999/xlink">
 <defs>
  <style type="text/css">
   <![CDATA[
    .fil3 {fill:#FDCD9C;fill-rule:nonzero}
    .fil8 {fill:#FBF9CE;fill-rule:nonzero}
    .fil6 {fill:#F8F39E;fill-rule:nonzero}
    .fil12 {fill:#F0DAC7;fill-rule:nonzero}
    .fil11 {fill:#EEB683;fill-rule:nonzero}
    .fil9 {fill:#ECAE7A;fill-rule:nonzero}
    .fil10 {fill:#ECC979;fill-rule:nonzero}
    .fil0 {fill:#CC6E39;fill-rule:nonzero}
    .fil13 {fill:#C4C6C3;fill-rule:nonzero}
    .fil14 {fill:#AEB7BE;fill-rule:nonzero}
    .fil1 {fill:#A2CAEB;fill-rule:nonzero}
    .fil17 {fill:#402E2E;fill-rule:nonzero}
    .fil16 {fill:#769CD1;fill-rule:nonzero}
    .fil7 {fill:#5F94CD;fill-rule:nonzero}
    .fil15 {fill:#656D9A;fill-rule:nonzero}
    .fil2 {fill:#3D6EB4;fill-rule:nonzero}
    .fil4 {fill:url(#id0)}
    .fil5 {fill:url(#id1)}
   ]]>
  </style>
  <radialGradient id="id0" gradientUnits="userSpaceOnUse" gradientTransform="matrix(-1.04158 -0.0478787 -0.0146506 -0.963207 1.09854E+007 6.65134E+006)" cx="5.35746e+006" cy="3.25734e+006" r="552001" fx="5.35746e+006" fy="3.25734e+006">
   <stop offset="0" style="stop-opacity:1; stop-color:#F59A9C"/>
   <stop offset="1" style="stop-opacity:1; stop-color:#FDCD9C"/>
  </radialGradient>
  <radialGradient id="id1" gradientUnits="userSpaceOnUse" gradientTransform="matrix(-1.04159 -0.0478792 -0.0146511 -0.963244 1.3117E+007 8.86871E+006)" xlink:href="#id0" cx="6.39362e+006" cy="4.36145e+006" r="392296" fx="6.39362e+006" fy="4.36145e+006">
  </radialGradient>
 </defs>
 <g id="Layer_x0020_1">
  <metadata id="CorelCorpID_0Corel-Layer"/>
  <g id="_1649395600">
   <path class="fil0" d="M4709955 3687951c-84148,14862 -151573,11213 -236712,-41434 -22982,-14439 -68053,-45167 -116204,-88836 -48515,-43331 -99144,-99602 -140843,-156599 -84342,-113994 -133786,-227601 -134378,-227202 -145,108 -54158,-111614 -93803,-238150 -41131,-126258 -69720,-265627 -77744,-311845 -15793,-85803 2369,-135248 31296,-209065 57601,66180 86480,112640 103699,194589 8881,44587 36358,178325 74928,297309 37217,119540 86492,222393 86589,222248 375,-435 47040,104376 121763,204643 36903,50254 80692,98660 121655,135308 40708,37036 77901,62664 96642,74977 34582,22946 60428,42666 84812,65383 24614,22595 46521,47898 78300,78674z"/>
   <path class="fil1" d="M1170314 3595683c-71605,-234428 -442828,35887 -588806,119914 -211143,96244 -755109,301478 -313114,321790l901920 -441704z"/>
   <path class="fil2" d="M1170314 3595683c-30788,-27550 -60319,-38183 -78505,-36576 -18040,1595 -30836,4241 -61600,7951 -13316,1667 -40419,7250 -75388,20215 -34860,12820 -76801,32540 -118851,55269 -84486,45421 -168840,101173 -215590,127672l-3093 1728 -2381 1063 -29568 13195c109,520 -101004,43379 -207385,91881 -53009,24481 -107432,51173 -148806,75775 -20614,12216 -37953,23973 -49118,33301 -11503,9099 -15237,16095 -13352,12470 592,-1607 2006,-5691 1401,-13062 -531,-7117 -4664,-16143 -8699,-20481 -8640,-9014 -10259,-6078 -8000,-4060 4544,5184 16953,12748 28976,20227l88039 55136c-34619,18488 -64972,31912 -101355,36226 -18499,1728 -37736,2465 -65117,-6271 -13424,-5136 -31489,-11358 -51426,-35114 -9558,-11661 -17376,-29508 -18415,-45784 -1329,-16578 2393,-29833 6706,-40177 21025,-44949 62531,-71400 110550,-101318 48454,-28819 105850,-56707 161022,-82033 110635,-50134 209971,-91580 209536,-91966l28203 -12712 -5462 2779c40636,-23055 127165,-80740 218273,-130076 45602,-24686 92872,-47137 136118,-62930 43089,-15938 82867,-24517 106598,-26849 25774,-2973 51838,-1680 76862,5389 24795,6694 48515,19974 65202,37168 34485,35622 35839,77321 24625,111964z"/>
   <path class="fil1" d="M1112061 3728321c-119588,-190505 -546298,252384 -712165,306444 -265264,95676 -546937,206081 -78771,304692 200728,40008 467635,52273 667288,30668l123648 -641804z"/>
   <path class="fil2" d="M1112061 3728321c-23514,-17460 -46823,-20988 -63558,-17086 -17098,3674 -31707,11552 -47572,20349l-114526 68367c-26172,14995 -78239,47813 -140999,92449 -63232,44213 -135526,99735 -213923,150304 -19804,12567 -40225,24831 -62869,36165 -11395,5631 -23550,11044 -37543,15950l-28347 10223c-38051,13750 -72452,26655 -101017,38062 -57407,22692 -90370,39585 -90310,39512 73,37 -8555,4133 -22318,11782 -13134,7346 -34087,19901 -45880,31972 -2683,2731 -4314,5232 -4338,5365 -229,374 2139,-3673 1172,-10295 -556,-6706 -4398,-11515 -4229,-11141 73,85 3093,2961 8096,6030 21496,13726 63268,28480 104895,39681 42678,11504 87724,21521 131176,28589 44225,7456 87737,13002 127769,17243 80160,8422 146316,11370 179219,12700 121908,4084 190855,24492 301454,55583 -95845,51197 -168985,76161 -297539,73768 -69987,-2320 -278882,-9848 -473991,-63195 -48986,-14138 -96485,-27719 -147561,-58846 -12845,-8325 -26318,-18222 -39621,-32951 -13074,-14367 -26173,-36709 -29036,-61093 -2828,-24336 4035,-45349 11660,-59281 7745,-14258 16264,-24154 24191,-32407 32069,-31066 57359,-43270 75037,-53892 17666,-9715 27538,-14294 27538,-14354 0,-37 39500,-20264 100291,-44431 30414,-12180 66180,-25677 104931,-39826l30402 -11008c6066,-2139 13521,-5317 21435,-9292 15914,-7975 33266,-18270 50738,-29447 70349,-45409 143972,-101681 208799,-146945 64573,-45904 121643,-81598 151827,-98261 55377,-30692 107215,-48599 165118,-49856 28589,-193 60380,4145 89102,19877 29302,15527 47270,43838 50327,69636z"/>
   <path class="fil3" d="M4709955 3687999c-386532,249605 -811743,-558719 -673703,-1005184 161033,-521128 -313078,-1320787 -981381,-1538661 -275921,-79532 -636740,-42654 -911200,-28517 -361085,23502 -518554,123226 -746191,366752 -384695,369966 -462886,927888 -295883,1456930 166519,488926 515364,611922 853297,975024 -203325,-62797 -434527,-60042 -652195,-110211 -24602,279643 -120422,636197 256347,693592 275221,39392 620609,-65044 865078,-147392 129424,-47499 286277,-187375 402023,-182058 101246,4664 305562,134450 450453,154424 319095,68113 621697,1873 927319,136227 436630,193816 814788,344881 1291341,313319 231056,-16083 417912,-87736 603898,-212859 57444,-24082 244336,-95711 228410,-189997 -1631,-107034 -175231,-115021 -261361,-78880 27054,-119081 -89247,-164538 -204522,-143090 11322,-200039 -174724,-74880 -246789,-64839 -32721,10645 -53662,8011 -74880,5401 -25471,-3166 -51330,-6332 -98346,13388 -57250,37471 -41119,145157 -113063,168598 -172018,99059 -578451,-13243 -738977,-114150 100666,-35501 215735,-70361 345932,-64380 -60296,-163173 -191351,-221849 -250873,-331481l25266 -71956z"/>
   <path class="fil1" d="M3941567 2414820c6501,-521067 -507546,-1052708 -1002236,-1262606 -465569,-195206 -1128035,-25134 -1499825,238511 -314601,226200 -483767,512477 -535918,884448 -38473,319060 81477,605325 86371,926414 412415,-448967 1111276,-122730 1478632,268490 -206045,-236772 292778,-708431 420172,-889752 282930,-401395 602545,-306553 1034051,-447106l18753 281601z"/>
   <path class="fil3" d="M9459060 3001258c205005,-504936 -133243,-1231480 -418577,-1713555 -369362,-622047 -1142185,-884448 -1846990,-977356 -901474,-117135 -1908301,366075 -2207109,1154086 -220169,-679430 -1297793,526602 -332290,741092 -93319,128119 -458101,651881 209536,1760692 440508,731437 1446985,893099 2100884,862625 604962,-17629 819827,-89343 1356095,-321802 341256,-150714 598534,-441438 806753,-734422 176331,-233932 204473,-535229 364746,-754770l-33048 -16590z"/>
   <path class="fil0" d="M9459060 3001258c56054,-170072 50387,-337776 25665,-494762 -26040,-157760 -73189,-307918 -132131,-458960 -59389,-151065 -131454,-303278 -218139,-465000 -43392,-80850 -90613,-164055 -142293,-250499 -50230,-85260 -109571,-167595 -183714,-249399 -52357,-57577 -127008,-130934 -228447,-207240 -101161,-76439 -229268,-155258 -381530,-225801 -152128,-70771 -328012,-133085 -520040,-182336 -96050,-24614 -196063,-46098 -299158,-64247 -102321,-17461 -210962,-34691 -314540,-41470 -424836,-29338 -877282,78034 -1244518,285770 -184016,103420 -347176,231684 -478135,375910 -131418,143961 -229353,304233 -290567,465666l-68887 181624 -62071 -191399c-13377,-41168 -31900,-78807 -55426,-105971 -23635,-27344 -50001,-42630 -80560,-48067 -30619,-5595 -66385,-568 -100641,11177 -34377,11672 -67341,29616 -97355,50049 -60211,41301 -109282,92425 -147622,143731 -38473,51487 -66144,104013 -84329,153047 -36963,98829 -31006,181382 -14355,230887 16892,50085 37700,72149 36914,72451 617,-483 14210,23998 56997,58242 42400,34087 119697,74795 231830,99095l102926 22257 -57142 77309c-39331,53142 -76065,114912 -105499,189369 -29375,74046 -50944,159282 -60659,253121 -20372,187762 9437,408789 86009,637345 37978,114416 87012,230923 144830,347563 28880,58350 60054,116737 93078,175027 33012,57721 67944,118428 105004,170446 151536,218986 382472,395643 639930,513214 257834,118657 537924,184548 805810,216133 134197,15672 265917,22826 392538,22765 31646,24 62990,-531 93960,-1474l93923 -3262c61383,-2091 121485,-4943 179642,-8845 116435,-7697 225522,-19757 325403,-37749 99953,-17859 190819,-41651 272901,-67690 164030,-52466 294542,-108991 387160,-147477 50774,-21725 102817,-43161 148709,-64101 44684,-20602 88534,-44394 129207,-68984 81864,-49384 154787,-104146 221378,-160961 133085,-113970 241774,-234863 342138,-356832 25085,-30570 49505,-61359 73623,-92280 25653,-32214 47040,-59969 67993,-92521 41397,-63583 75641,-132663 108266,-204498 32673,-71835 63413,-146812 99530,-222344 36165,-75364 78094,-151766 135442,-221439 -48068,75678 -79629,154944 -106382,233026 -26643,78300 -48623,155766 -73804,231830 -25146,75968 -53155,150812 -90963,222466 -18198,35343 -41736,72052 -62809,103348 -21798,33205 -44116,66265 -67364,99204 -93102,131369 -198251,262400 -334877,387656 -68367,62373 -144914,123044 -233050,178252 -44309,27683 -90383,53614 -141858,77853 -50411,23502 -99324,43838 -151621,66397 -93754,39126 -225921,96836 -398869,152383 -86516,27537 -183859,53069 -290240,72113 -106321,19260 -221112,31912 -341317,39850 -60150,4024 -121594,6936 -184463,9099l-94359 3347c-32491,955 -65249,1547 -98370,1498 -132360,121 -269747,-7286 -410191,-23731 -280247,-33132 -575140,-101838 -852282,-229292 -138124,-63764 -271064,-142644 -390363,-237316 -119467,-94407 -224676,-204715 -308655,-324932 -43814,-62047 -77248,-120990 -112000,-181551 -34171,-60344 -66482,-120881 -96570,-181624 -60078,-121389 -111456,-243406 -151572,-364275 -80741,-241363 -113946,-479960 -91434,-687877 10850,-103795 34884,-199446 68210,-283316 32963,-83762 76390,-156431 119455,-214563l45772 99578c-129267,-27743 -231734,-78771 -292766,-127950 -61577,-49106 -83774,-87422 -84281,-86516 1305,-145 -30861,-34800 -56151,-109934 -25363,-74530 -29822,-188100 15394,-307580 22124,-59788 54882,-121546 99880,-181926 45168,-60211 101778,-119902 176295,-171184 37398,-25435 79375,-48877 128869,-65805 49094,-16578 107698,-27623 172718,-16349 32178,5510 64899,17509 93984,34679 29121,17134 54181,39210 74481,62857 40769,47705 64561,100292 81683,152177l-130971 -9775c66362,-175365 172320,-348337 312970,-502483 140226,-154509 313851,-290821 508875,-400537 389348,-219964 866504,-334139 1322890,-302988 116386,7890 223202,25229 330647,43427 106707,18765 210611,41131 310709,66808 200160,51354 385046,116749 546551,191955 161602,74917 299352,159608 408838,242524 109777,82686 191315,162943 248445,226078 80281,88643 146485,182566 198008,273372 51367,89102 97609,175232 139357,259247 83363,168054 149313,327711 199507,486413 49771,158653 84583,316920 94479,480697 8845,162750 -6452,334755 -83483,496780z"/>
   <path class="fil4" d="M4782539 3230864c4459,293661 265506,543567 583019,558164 317548,14596 571309,-211651 566839,-505311 -4459,-293624 -265470,-543470 -583019,-558067 -317512,-14596 -571310,211591 -566839,505214z"/>
   <path class="fil5" d="M5985019 4342635c3166,208715 188632,386315 414288,396682 225679,10380 406071,-150400 402905,-359115 -3178,-208642 -188717,-386230 -414396,-396609 -225656,-10368 -405975,150400 -402797,359042z"/>
   <path class="fil0" d="M4798284 1627461l1655 -1559 -278 -858 -2308 3529 375 1208 870 1221 -2936 2827 -5945 5643 -10404 10754c-6380,6803 -11902,12796 -17074,17738 -10452,9981 -19635,15697 -31936,17364 -13593,1196 -52925,9268 -80885,31803 -28964,21110 -46944,53034 -47053,52695 37,-84 -18753,30317 -30594,71195 -12700,40237 -18452,88836 -20506,104907 -3915,29834 -28250,44128 -72644,68162 -43234,-30389 -66169,-53009 -63957,-87846 1220,-18777 7612,-75532 24142,-127297 15116,-51994 42920,-97053 43101,-96859 435,628 24831,-47017 75992,-85852 25012,-19358 56066,-35126 84160,-44056 28070,-9135 52514,-12071 64609,-13098 22536,-1716 41059,4217 56876,15962 7891,5909 15153,13304 21811,22136 3359,4411 6537,9220 9533,14428l4362 8072 2236 4470 1426 1499 676 1365 -2598 3613 -1619 -1015 -1087 -2151z"/>
   <path class="fil6" d="M9583336 2128470c317452,438152 99845,1245473 -90286,1666865 -419568,929881 -1081901,1100002 -1699707,1161614l-16373 -749c-67775,-154376 -22559,-409406 24034,-573714 -129364,99977 -225245,246837 -271838,411061 -8059,-529791 -66893,-1167825 72403,-1690947 -79121,177939 -125195,372468 -237521,518603 -87338,-367102 -93102,-745551 -213221,-1114115 -64320,72669 -112532,130934 -193381,187750 -136771,-384466 -241183,-797690 -312873,-1209440 -53492,-289878 -102563,-292138 -394664,-139115 -243732,109765 -355273,301285 -516246,475453 -35114,-152890 -20989,-303544 25749,-452640 -211614,65878 -471683,174966 -649682,302928 -222235,-630481 585677,-1289117 1138922,-1475501 553403,-186337 1632343,-227505 2113596,218163 99349,80245 166387,189164 249629,283764 145736,-99155 191181,-339129 172247,-506386 230307,86238 186276,417018 123346,580469 144975,-144601 207458,-338344 352506,-482945 -29955,180162 -157711,386037 -286580,516222 260311,-93875 736827,48998 903770,268478 -247442,-132408 -560459,-282942 -820576,-173890 278761,43089 528450,326841 678960,545572 -181624,-114259 -380334,-274665 -593157,-284440 165964,158895 333837,438901 386122,653077 34389,107481 -11516,317186 38533,379983l16288 -66120z"/>
   <path class="fil0" d="M9583336 2128470c89380,115347 135708,248094 160442,375984 24711,128711 28710,255247 23031,378243 -13050,246136 -63377,479525 -138462,711306 -76572,231274 -181358,463286 -345836,687394 -82710,111444 -181708,219964 -302505,318093 -120567,98092 -263645,184850 -427784,251707 -83883,34389 -191037,70675 -319531,100677 -128324,30317 -277843,53771 -443045,70047l-54460 5377 -20831 -48079c-22161,-51306 -31937,-102853 -36830,-153881 -4725,-51112 -3951,-101995 -181,-153071 7902,-102128 27513,-204932 56851,-309622l112991 69962c-116906,90359 -207047,225511 -251151,380817l-135949 -23043c-3975,-258787 -19732,-535760 -19128,-823536 1378,-287304 16119,-587839 93477,-883252l131236 46497c-37108,83411 -67425,172767 -103070,263258 -35815,90214 -77140,183038 -141423,267053l-89706 117305 -34800 -146595c-45337,-190988 -68730,-381590 -96195,-567624 -27188,-186010 -59063,-368444 -115601,-541573l120434 27465c-29628,33423 -59365,68174 -92848,102334 -33398,34123 -70977,66736 -111178,94878l-77490 54242 -31731 -89562c-88196,-248710 -158376,-494194 -214708,-730640 -28263,-118198 -53045,-234198 -74735,-347309l-30571 -165904c-10295,-51765 -22535,-105934 -40454,-139949 -4266,-8083 -8737,-13714 -11069,-15853l-2984 -1897c-2840,-1547 -22934,-266 -43452,6465 -42303,13013 -88655,35718 -132723,57770l-33192 16977 -16506 8579 -10887 5437 -8483 4012c-12010,5450 -20698,10114 -30655,15116 -9920,5402 -19841,10682 -29399,16434 -38557,22426 -73756,47922 -106296,75109 -65177,54532 -119601,116266 -170725,176634 -51064,60525 -99228,119660 -148201,172573l-90601 97778 -29906 -131490c-25169,-110611 -24444,-209681 -14887,-290579 9595,-81200 27212,-145144 41833,-192656l91494 81562c-68113,21412 -103855,34716 -103892,34595 133,217 -53287,17774 -148056,56912 -47282,19684 -104823,44974 -169613,77720 -64658,32721 -137097,72886 -209404,124494l-77115 55075 -32299 -90044c-39995,-111469 -53831,-244675 -28456,-379367 24481,-134994 84958,-269989 170749,-397153 85888,-127394 196764,-248046 326442,-359659 129956,-111360 278484,-214624 446199,-302324 84088,-43729 172586,-83471 268709,-115480 94334,-31332 192970,-55583 293225,-75085 200932,-38437 410686,-58520 625358,-59112 214502,0 434744,18439 652944,71207 108919,26414 217282,61939 321270,110332 103772,48442 203302,110719 288513,189394l-3794 -3263c113112,92570 180403,204655 258582,292319l-95615 -13944c61577,-42074 102454,-118755 125268,-199193 22873,-80982 30316,-169081 21423,-252130l-10597 -99445 101633 37700c35887,13315 70796,33519 99880,59147 29242,25508 52309,55728 69201,86517 33604,62168 45614,125074 49964,184475 6634,119407 -14065,229002 -52731,334248l-117256 -69926c135888,-134560 201779,-332798 352505,-482933l158376 -157735 -38135 216424c-20251,114984 -65902,214176 -118126,304644 -53021,90129 -114235,171280 -184500,242729l-80728 -104497c107287,-37252 214357,-37627 312462,-28335 98599,10150 190347,32589 274677,61818 167474,59438 310673,144722 400476,260371l-86831 88957c-74493,-40056 -140323,-73261 -197356,-98938 -101076,-45675 -201114,-81248 -297369,-96521 -96099,-15648 -187098,-8725 -263851,23175l-23647 -116760c92945,15007 176307,51801 248372,95337 72355,43838 134849,94805 191206,147839 112338,106610 201283,221329 278713,337377l-75291 67376c-97258,-63727 -185031,-129689 -276937,-184040 -91204,-54121 -187569,-97693 -286555,-105040l27502 -62144c69708,70796 127297,148237 178856,229123 51246,81067 96099,165915 133001,255005 18318,44588 34655,90226 47536,137122 6718,23236 11648,47608 17013,70783 4942,25182 6102,49373 6404,73769 411,48611 -3577,96739 -5594,145591 -967,24433 -1583,49034 -85,73853 2006,24505 4374,50484 19466,72790 -16856,-21399 -21484,-47934 -25471,-72620 -3517,-25122 -4822,-50049 -5788,-74748 -1873,-49336 -1656,-97886 -5752,-145289 -2066,-23538 -5208,-47258 -11153,-69032 -7274,-23345 -13449,-45675 -21701,-68113 -15793,-44660 -34849,-88051 -55692,-130294 -41893,-84511 -91024,-164526 -145326,-239962 -54495,-75170 -114416,-146498 -181769,-208062l-70602 -64513 98031 2417c120894,2948 233957,49698 334176,103469 101113,54314 193852,118754 288621,176283l-75255 67376c-77901,-108387 -166169,-214889 -271016,-309815 -52429,-47210 -109269,-91277 -171087,-127261 -61673,-35863 -128699,-63329 -197489,-73503l-218019 -32190 194372 -84559c101379,-44140 223371,-53118 338863,-34691 116326,17884 228217,58169 336882,106962 61323,27513 130657,62506 206770,103251l-86831 88957c-61770,-81332 -183545,-158822 -330937,-210068 -73925,-25628 -155161,-45348 -239768,-53939 -83919,-8422 -173541,-5909 -249182,20880l-80692 -104448c61939,-62906 118525,-137701 166532,-219481 47427,-81707 87736,-172102 103964,-265615l120193 58689c-62652,62168 -112870,140842 -164575,225619 -51946,84414 -106985,176500 -187883,257337l-117244 -69889c32806,-87870 51209,-188777 45349,-284610 -3238,-47705 -13727,-94552 -34474,-132384 -20880,-37869 -50629,-64441 -91301,-79557l91048 -61745c10536,101318 1933,200244 -25122,297321 -13823,48345 -32806,96122 -60054,141604 -27320,45228 -63413,88728 -112628,122476l-52284 35803 -43331 -49759c-87640,-100569 -152793,-204848 -240663,-275185l-1788 -1450 -2006 -1848c-143755,-132808 -341220,-214962 -542201,-263694 -202310,-48998 -411943,-67002 -616876,-66966 -205125,520 -406916,19841 -598134,56429 -95543,18597 -188101,41361 -276309,70639 -86347,28722 -169818,65975 -248698,106998 -157892,82541 -299520,180838 -422371,286132 -122681,105511 -226598,218925 -305489,335976 -78941,116881 -132228,237847 -153216,353822 -21678,116000 -9728,225583 23236,318081l-109414 -34933c80559,-57408 157807,-99929 226332,-134693 68645,-34654 128940,-61117 178482,-81707 99179,-40938 154907,-59208 154799,-59486 72,121 37277,-13775 108785,-36237l129122 -40600 -37591 122162c-13255,43065 -28975,100569 -37301,171727 -8361,71038 -8784,156056 12663,250269l-120506 -33676c45820,-49457 92437,-106635 144685,-168670 52381,-61770 110949,-128869 185297,-191194 37120,-31018 78119,-60767 123298,-87109 11201,-6706 22850,-12929 34498,-19272 12011,-6090 25254,-12942 36032,-17811l8495 -4012 2151 -1003 1051 -459c-3226,1583 -2731,1329 -2248,1076 254,-133 520,-278 157,-85l556 -278 4193 -2199 16893 -8797 34389 -17593c47040,-23188 93995,-47511 154605,-66531 30704,-8168 66640,-19381 119975,-8095 26221,5896 53312,21218 71159,38569 18173,17292 29616,34994 38461,51258 17315,32673 26027,61999 34171,90975 7758,28806 13751,56924 19370,85054l30703 166363c21376,111371 45796,225619 73612,341957 55486,232675 124578,473991 210998,717638l-109221 -35344c68126,-46641 122138,-109051 182772,-178325l81103 -92654 39343 120144c121232,370111 128337,755217 214684,1119045l-124518 -29314c53251,-69371 91277,-152516 125509,-239189 34328,-86843 65080,-177854 104943,-267705l131321 46496c-73249,278979 -88377,571129 -89561,853672 -641,283256 14995,559227 19055,821470l-135961 -23043c50859,-177842 153071,-333088 292573,-441281l169613 -131515 -56611 201489c-27344,97512 -45783,194601 -52900,286773 -6876,91325 -2091,181805 26668,248589l-75291 -42690c160985,-15769 303592,-38208 424836,-66724 121328,-28275 221233,-62036 299266,-93911 306348,-123600 525889,-317561 686500,-524705 160611,-208642 270376,-428606 355623,-649803 84027,-222054 147078,-446574 176319,-684759 13872,-119033 18911,-241871 4302,-368408 -14899,-125811 -49662,-257663 -129811,-378267z"/>
   <path class="fil0" d="M1065999 3170968c69068,36830 109137,53541 156539,104145 13026,13546 39646,40528 75630,71413 35826,30981 81078,65757 126342,97790 90589,63884 178978,119685 178748,119938 -253,423 87979,55221 184174,123129 47946,34039 97282,72113 137278,107408 40153,35114 70748,67268 85356,83858 53541,61601 62096,115287 50968,185189 -67884,-38872 -107276,-56055 -153543,-107046 -12699,-13678 -38787,-40817 -74384,-71859 -35392,-31139 -80342,-66048 -125425,-98177 -90214,-64090 -178688,-119757 -178361,-120084 266,-350 -87906,-55220 -184246,-122718 -47959,-33833 -97367,-71617 -137544,-106477 -40310,-34728 -71255,-66350 -86069,-82638 -54279,-60501 -64042,-113510 -55463,-183871z"/>
   <path class="fil2" d="M4062170 2446321c-52115,-116724 -98926,-212352 -148648,-311410 -50400,-98733 -102177,-201948 -181117,-325500 -42859,-66252 -134185,-199471 -287956,-324086 -76343,-62325 -167716,-121714 -268636,-171727 -50496,-25037 -103082,-48043 -157010,-68416 -26922,-10367 -54266,-19804 -81623,-28987l-20590 -6646 -5147 -1656 -1281 -423 -665 -217 2079 604 -2695 -725 -10802 -2985 -41398 -10850c-221486,-55873 -440979,-62483 -597929,-49083 -157711,13111 -254607,40588 -254679,39791 568,882 -99723,19417 -240433,78517 -69987,29809 -149422,70554 -227794,124784 -77998,53734 -156370,122742 -220653,200087 -63341,79013 -115093,173045 -158509,267089 -43318,94419 -77876,189997 -104991,279075 -54411,178362 -77442,330430 -86662,406047 -16759,140009 -23683,249894 -25205,354801 -544,52502 604,103772 5703,157144 5401,53275 14029,108906 34449,168924 -40007,-51934 -68476,-106007 -90914,-159705 -22258,-53843 -38171,-107867 -49445,-163728 -22233,-111831 -27562,-231419 -10947,-379270 9135,-79980 33047,-239370 89839,-426009 28383,-93258 64500,-193429 110441,-293527 46303,-99916 101040,-200582 173673,-291292 147972,-179183 343552,-296547 497227,-360746 154207,-64525 262981,-84365 262413,-85320 36,810 105414,-29157 275861,-43464 169746,-14645 406011,-7817 646299,52599l45046 11781 10766 2961 8181 2404 5498 1764 22136 7178c29447,9811 58906,20022 88015,31187 58374,22040 115685,47040 170942,74433 110586,54749 212013,120615 296826,189937 171111,138885 271403,286084 317428,358233 85090,135284 128518,250136 158907,358958 29604,109197 44503,213874 54000,337474z"/>
   <path class="fil0" d="M1838979 3895663c-64525,3697 -96509,11056 -122343,-7927 -13703,-10488 -57311,-39283 -103083,-51729 -37397,-11418 -73587,-12651 -85030,-12747 -2429,-37 -3734,0 -3709,0 229,-25 -43452,-303 -87568,14077 -44732,13086 -84994,41856 -97174,52163 -23260,18705 -55885,10803 -120796,7613 -28879,-54895 -33737,-96328 942,-127938 9449,-8495 29338,-24698 56478,-40938 27066,-16240 61491,-32045 96376,-42666 69877,-22355 139550,-21025 139235,-21037 -72,-13 2647,-85 7637,-73 19938,36 76270,1716 135502,19394 36830,10452 73901,26365 103300,42883 29532,16409 51463,32831 62048,41313 38606,31707 38932,72669 18185,127612z"/>
   <path class="fil7" d="M4044021 2483948c-656569,-151186 -1298917,636125 -1487996,1111493 -66361,-63522 -132553,-111963 -215118,-161142 350004,-649477 698872,-1374703 1616417,-1272020l86697 321669z"/>
   <path class="fil2" d="M4044021 2483948c-113353,-4664 -201211,13159 -288319,38184 -86939,26051 -174434,60489 -280852,116736 -42219,22378 -114465,64223 -196861,127418 -82577,62833 -174893,146909 -262098,243563 -175884,192197 -327179,436412 -395136,610883l-35440 90914 -77236 -73466c-103699,-98684 -191677,-143308 -190880,-144649l-10718 -6453 -54773 -32939 27429 -51015 126391 -234948c64706,-118210 148032,-267584 248396,-413502 99675,-145966 220049,-286845 343830,-387607 122379,-102333 245133,-161662 309247,-187521 126343,-51148 237050,-66724 339988,-66748 103348,749 200775,17304 310335,49481 -112061,8096 -202045,23526 -293141,43210 -90866,20421 -183605,44660 -294639,90540 -56501,23442 -164816,75581 -276284,168840 -112568,91688 -225776,223263 -321597,363332 -96400,139840 -178349,286144 -242547,403135l-126440 234162 -27320 -83955 11745 7093c-36,97 23031,13364 62591,39899 39331,26438 95350,67690 154256,124192l-112653 17412c74252,-190227 231359,-443287 416354,-646069 91784,-101705 189683,-190952 278592,-258437 88631,-67860 168078,-113740 215131,-138136 118331,-61492 225993,-90190 330284,-97090 104182,-6283 206902,9111 312365,53541z"/>
   <path class="fil2" d="M2405915 3407063c-38534,-23430 -70760,-36045 -100980,-51801 -30402,-15418 -59039,-33048 -94033,-58725 -18898,-13896 -57685,-41397 -108809,-70905 -50956,-29640 -114006,-61081 -176211,-86963 -124506,-52997 -244022,-79544 -243756,-79351 302,375 -21992,-5377 -57541,-11757 -46919,-8446 -116990,-17944 -188837,-15696 -62676,1631 -124313,14246 -166786,35126 -43113,20397 -66869,47475 -77671,61564l-53009 72488c-17654,23925 -37688,49336 -59196,84486 -22306,-37228 -36154,-72342 -39090,-110332 -2646,-37700 5438,-79726 36854,-123250 16337,-23188 57227,-68681 122416,-99264 64392,-31513 146775,-46617 223094,-48563 86866,-2235 166519,8712 219384,18415 40599,7444 65370,14162 65358,13630 -24,-157 132517,28795 268599,86492 68223,28275 137484,62701 194287,95881 56949,32939 101319,64646 122972,81260 39984,30656 66337,61577 84390,95192 17726,33519 28033,70410 28565,112073z"/>
   <path class="fil0" d="M2556025 3595441c52043,27200 94516,53662 132965,87266 38328,33748 73490,74687 105064,134571 16361,32383 50568,99071 64935,189829 6936,45131 7722,96255 -3214,147234 -10597,50932 -33495,100678 -64235,142523 -62011,84607 -148793,135429 -212557,165372 -64633,29869 -108834,41941 -108665,42279 0,-145 -43282,14935 -112217,29822 -68911,15043 -163656,28250 -263452,32371 -99784,4543 -204340,556 -292548,-7661 -88208,-8023 -160067,-19635 -195846,-25919 -132010,-24142 -203023,-64234 -297527,-132710 115565,-8894 188886,-13159 313731,7793 33797,5438 101608,16144 184403,23587 82758,7588 180451,11322 272599,7226 92195,-3637 178337,-15600 239792,-28819 61553,-13171 98902,-26124 98926,-25991 -193,-230 38594,-11117 92437,-36214 53396,-24940 121486,-66965 164985,-127164 44878,-59438 58048,-136263 46618,-203942 -10380,-67799 -37930,-123902 -51403,-151234 -25689,-50798 -46448,-91821 -63715,-133738 -17496,-41893 -31815,-84317 -51076,-136481z"/>
   <path class="fil7" d="M1463201 3802404c-14065,150642 -87592,691852 -250631,729721 -241714,61504 -295219,-193767 -250656,-444507 57577,-323941 278785,-640378 469037,-256444l32250 -28770z"/>
   <path class="fil2" d="M1463201 3802404c32915,108894 46617,184270 23961,307519 -6513,33386 -19756,100050 -43391,180815 -12011,40394 -26523,84268 -46472,129327 -20856,44805 -43101,91748 -90806,135429 -12373,10706 -27042,21110 -45445,29327 -8688,3975 -20639,7697 -28940,9618 -6054,1329 -10778,2598 -19381,4205 -29822,5812 -59269,8241 -90963,5184 -31296,-2755 -63413,-12096 -90589,-26596 -27405,-14391 -49070,-33193 -65153,-51136 -32202,-36492 -45445,-68766 -54362,-90238 -8398,-21690 -11274,-33676 -11443,-33688 205,96 -15890,-48744 -19986,-120108 -4688,-71425 2211,-164949 23792,-259150 21399,-94250 56477,-189466 102672,-266098 23163,-38280 49142,-71968 77188,-98238 27731,-26329 58434,-44756 82879,-53722 22088,-8506 47245,-13146 72089,-11974 24867,833 48357,7648 67751,16711 38847,18789 61890,44358 78336,68440 31936,49106 41324,97608 46013,153143 -43742,-40346 -82251,-70905 -118561,-92969 -18005,-10875 -35694,-18523 -49059,-20710 -13569,-1716 -20662,-967 -36902,5014 -8458,3251 -23345,11334 -41252,28372 -17920,16856 -37990,42291 -56804,73563 -37905,62676 -70119,148201 -89174,232373 -19539,84257 -25496,167245 -21714,226211 3528,59390 15322,93332 14995,93247 73,-48 2308,8797 7830,22898 5546,13835 14802,33591 29012,49191 14597,15600 30305,25907 57964,28637 13400,1426 31066,194 47668,-3093 3069,-471 9800,-2127 15455,-3456 3311,-846 2706,-749 4833,-1534 3251,-1450 8096,-4507 13340,-9123 22004,-19128 44032,-57130 60416,-94697 16869,-38123 30257,-78118 41398,-115359 22016,-74759 35041,-138789 41808,-170495 23756,-117921 56707,-180996 110997,-276840z"/>
   <path class="fil0" d="M3847764 4245292c-40164,50194 -77623,75835 -143102,80560 -35839,2900 -142679,5232 -239998,1522 -97415,-3178 -185793,-10597 -185793,-10597 -24,-60 -88425,-6042 -185889,-18161 -97343,-11334 -204364,-31658 -240385,-41192 -65189,-16566 -103118,-49940 -135042,-109475 33386,-5932 57673,-14040 82057,-17182 24372,-3528 48092,-2827 78034,3552 31996,7468 131647,26451 225148,37676 93222,11866 178748,18161 178687,18222 -36,0 85465,6646 179171,9449 93839,3311 194879,1039 227819,-592 61576,-2731 96340,16723 159293,46218z"/>
   <path class="fil8" d="M8162161 4683323c129340,-47475 258715,-95035 373482,-156599 301285,-146534 398737,-396078 597374,-640933 184427,-232181 368636,-477725 407303,-783420 52176,-371863 43826,-920372 -163571,-1250789l30401 94950c-178941,-355816 -428908,-634638 -722677,-942290 -9050,360553 24203,642854 -100545,998043 -93283,255501 -218768,524462 -383088,756316 51293,261181 49698,488322 -27876,735437 114706,-61528 214381,-163946 314407,-239502 -96969,276236 -280780,548544 -363345,825457 187098,-58205 374123,-116459 560544,-214817 -67473,317742 -338187,572663 -522409,818147zm-141350 -1690922c46424,-41410 84208,-91084 113438,-144722 -36141,45808 -74047,89767 -113644,131370l206 13352zm113438 -144722c22873,-28999 45046,-58700 66591,-89078 -3408,-17351 -7057,-34824 -10936,-52513 -12470,48321 -31030,96376 -55655,141591z"/>
   <path class="fil9" d="M7228220 4751280c80910,-6332 158001,-14947 230634,-26402 -677,-31513 -1523,-63244 -2441,-95253 -35078,-144455 -32263,-290953 -13050,-437680 -1583,-74180 -2562,-149265 -2405,-225100 556,-114984 3226,-232132 11238,-350198 -9739,14802 -20059,29399 -31018,43754l-89706 117305 -34800 -146595c-45337,-190988 -68730,-381590 -96195,-567624 -20904,-142957 -44551,-283836 -80076,-419991 -2610,2755 -5256,5486 -7939,8217 -10464,10681 -21363,21242 -32576,31525 -14355,18294 -29604,35247 -46086,49928 -1958,-2030 -3963,-4096 -5921,-6126 -8724,6718 -17605,13231 -26595,19551l-77490 54242 -31731 -89562c-69696,-196571 -128179,-391172 -177431,-580892 -8410,-30860 -16228,-61914 -23599,-93198 -4640,-18886 -9183,-37748 -13678,-56550 -28263,-118198 -53045,-234198 -74735,-347309l-30571 -165904c-10295,-51765 -22535,-105934 -40454,-139949 -4266,-8083 -8737,-13714 -11069,-15853l-2984 -1897c-520,-266 -1680,-471 -3323,-544 -7081,-326 -23454,1535 -40129,7009 -42303,13013 -88655,35718 -132723,57770l-33192 16977 -16506 8579 -10887 5437 -8483 4012c-12010,5450 -20698,10114 -30655,15116 -9920,5402 -19841,10682 -29399,16434 -38557,22426 -73756,47922 -106296,75109 -65177,54532 -119601,116266 -170725,176634 -51064,60525 -99228,119660 -148201,172573l-16844 18186c78638,114344 158194,234403 272586,323360 113921,-115141 197949,-298396 253459,-442900 93549,445450 289576,975821 498363,1399848 57070,-50847 114091,-101693 156479,-166592 63594,377228 113087,780556 205585,1159113 56839,-64199 99203,-129098 155850,-206685 -22306,267657 -68778,534166 -84281,802125z"/>
   <path class="fil0" d="M7288793 4844466c67570,3081 130717,-17617 187557,-51330l-16264 -2755c-338,-21689 -737,-43560 -1232,-65503 -72633,11455 -149724,20070 -230634,26402 -1486,25338 -2683,50738 -3540,76112 42774,-38086 114694,-61540 157723,-86286l-114127 101693c6900,797 13727,1353 20517,1667z"/>
   <path class="fil9" d="M5355480 1988353c77744,3576 210261,-113378 307181,-175039 -21206,-103421 -20070,-196257 -11032,-272780 2937,-24892 6646,-48164 10779,-69841 -23224,8337 -67473,24674 -129400,50254 -47282,19684 -104823,44974 -169613,77720 -64658,32721 -137097,72886 -209404,124494l-77115 55075 -32299 -90044c-11986,-33459 -21641,-68839 -28565,-105632l-33386 87954 -39367 -121389c-22342,100630 -29954,205730 -18898,311652 39947,-10476 140625,-75206 201537,-72403 5051,230 9824,931 14258,2175 101488,17980 132904,179848 205404,196619 3226,641 6513,1027 9920,1185z"/>
   <path class="fil0" d="M4982626 1670514l33386 -87954c-9376,-49699 -13811,-101971 -12457,-155428 -5003,-9666 -9691,-20070 -13993,-31247 -19055,49529 -34667,100750 -46303,153240l39367 121389z"/>
   <path class="fil10" d="M5150572 1564592c14971,-9220 29761,-17968 44333,-26318 -5812,73 -11551,-12 -17230,-277 -10863,-532 -21472,-1620 -31791,-3420 1329,10126 2888,20143 4688,30015z"/>
   <path class="fil0" d="M7476350 4793136c93863,-55679 170568,-146799 221463,-224749 -71521,50218 -128422,114477 -214587,150606 -10682,-29688 -19563,-59498 -26813,-89368 918,32009 1764,63740 2441,95253 495,21943 894,43814 1232,65503l16264 2755zm-32987 -601191c44200,-337027 175087,-675263 132384,-992727 -99578,102358 -126053,261579 -240203,363296 -120567,-326417 -97186,-686294 -160128,-1023393 -30124,46158 -60151,99107 -95530,144117 11213,-10283 22112,-20844 32576,-31525 2683,-2731 5329,-5462 7939,-8217 35525,136155 59172,277034 80076,419991 27465,186034 50858,376636 96195,567624l34800 146595 89706 -117305c10959,-14355 21279,-28952 31018,-43754 -8012,118066 -10682,235214 -11238,350198 -157,75835 822,150920 2405,225100zm-519569 -1391112l77490 -54242c8990,-6320 17871,-12833 26595,-19551 -165154,-172211 -253954,-378944 -313247,-596661 49252,189720 107735,384321 177431,580892l31731 89562zm-232761 -763652c-58748,-249653 -88111,-509093 -156164,-744040 -389372,62313 -546092,215578 -802414,471139 26945,-132457 24504,-293007 -6513,-428111 -132626,55620 -358221,200075 -531037,202105 -14572,8350 -29362,17098 -44333,26318 -1800,-9872 -3359,-19889 -4688,-30015 -58701,-10198 -108484,-42267 -142329,-107445 -1354,53457 3081,105729 12457,155428 6924,36793 16579,72173 28565,105632l32299 90044 77115 -55075c72307,-51608 144746,-91773 209404,-124494 64790,-32746 122331,-58036 169613,-77720 61927,-25580 106176,-41917 129400,-50254 -4133,21677 -7842,44949 -10779,69841 -9038,76523 -10174,169359 11032,272780 14694,-9328 28565,-17424 41325,-23599 22463,30112 44298,61480 66193,93296l16844 -18186c48973,-52913 97137,-112048 148201,-172573 51124,-60368 105548,-122102 170725,-176634 32540,-27187 67739,-52683 106296,-75109 9558,-5752 19479,-11032 29399,-16434 9957,-5002 18645,-9666 30655,-15116l8483 -4012 10887 -5437 16506 -8579 33192 -16977c44068,-22052 90420,-44757 132723,-57770 16675,-5474 33048,-7335 40129,-7009 1643,73 2803,278 3323,544l2984 1897c2332,2139 6803,7770 11069,15853 17919,34015 30159,88184 40454,139949l30571 165904c21690,113111 46472,229111 74735,347309 4495,18802 9038,37664 13678,56550z"/>
   <path class="fil11" d="M3927236 4325852l-42763 -28034c14367,12942 28710,22548 42763,28034zm-139707 -24300c31852,-1027 63800,-2489 95857,-4459l1087 725c-13968,-12566 -27948,-28250 -41723,-46363 -17811,21423 -35307,38002 -55221,50097zm45578 -63147c-85658,-120060 -161795,-327880 -174216,-446236 -34293,168804 -316087,277384 -539471,267113 -127140,-5848 -235346,-50182 -268224,-143815 229,14959 -399,29930 -1740,44781 3697,14790 6948,30425 9533,46859 5885,38280 7323,80837 991,123974 5655,834 11552,1921 17666,3238 31996,7468 131647,26451 225148,37676 93222,11866 178748,18161 178687,18222 0,0 52406,4084 120132,7201 18778,858 38727,1644 59039,2248 93839,3311 194879,1039 227819,-592 7564,-363 14741,-326 21616,-12 44467,2042 76210,17182 123020,39343z"/>
   <path class="fil0" d="M2773899 4219893c-1257,-1027 -2526,-2090 -3746,-3141 -350,797 -725,1595 -1075,2404 1607,230 3226,484 4821,737zm33108 -90068c9957,-1088 19937,-1438 30414,-967 7250,338 14705,1063 22559,2223 6332,-43137 4894,-85694 -991,-123974 -2585,-16434 -5836,-32069 -9533,-46859 -5293,58229 -21835,115359 -42449,169577z"/>
   <path class="fil0" d="M3494461 4299051c97283,4483 194795,5619 293068,2501 19914,-12095 37410,-28674 55221,-50097 -3251,-4229 -6441,-8591 -9643,-13050 -46810,-22161 -78553,-37301 -123020,-39343 -6875,-314 -14052,-351 -21616,12 -32940,1631 -133980,3903 -227819,592 -20312,-604 -40261,-1390 -59039,-2248 -67726,-3117 -120132,-7201 -120132,-7201 61,-61 -85465,-6356 -178687,-18222 -93501,-11225 -193152,-30208 -225148,-37676 -6114,-1317 -12011,-2404 -17666,-3238 -7854,-1160 -15309,-1885 -22559,-2223 -10477,-471 -20457,-121 -30414,967 -11455,29990 -24130,59063 -36854,86927 1220,1051 2489,2114 3746,3141 243744,37072 481386,68174 720562,79158z"/>
   <path class="fil12" d="M1575914 3847499c-4870,-7395 -9594,-14657 -14391,-22101 -8978,-1015 -16832,-1546 -22934,-1836 -4254,-194 -7710,-290 -10066,-302 -2429,-37 -3734,0 -3709,0l0 0 0 0c-351,-13 -22959,-85 -51898,5195 -36,1970 0,3952 -12,5945 34353,4773 68718,8978 103010,13099z"/>
   <path class="fil13" d="M1670345 3858978c-16917,-8845 -36637,-17497 -56792,-22971 -18620,-5679 -36926,-8845 -52030,-10609 4797,7444 9521,14706 14391,22101 31573,3782 63123,7515 94431,11479z"/>
   <path class="fil11" d="M1538274 4082361c110079,-72064 239926,-107613 377120,-117135 -2622,-2707 -5220,-5522 -7903,-8434 -11793,-12700 -35150,-37035 -66965,-65347 -508,1414 -1015,2816 -1547,4218 -36274,2090 -62265,5316 -82638,4386 -15889,-737 -28395,-4000 -39705,-12313 -7673,-5873 -24735,-17485 -46291,-28758 -31308,-3964 -62858,-7697 -94431,-11479 -34292,-4121 -68657,-8326 -103010,-13099 12,447 12,919 24,1378 14150,50725 23188,95313 25037,143646 10899,35078 24746,69769 40309,102937z"/>
   <path class="fil12" d="M1291824 3341016c-20071,-42533 -39452,-85659 -58012,-128856 -16276,-24699 -31924,-50581 -46835,-77696l-48695 66579c-1487,1945 -2961,3951 -4447,5969 32552,18246 59196,36600 88703,68101 12229,12724 36504,37350 69286,65903z"/>
   <path class="fil13" d="M1454163 3465002c-81248,-75061 -155971,-155294 -220351,-252842 18560,43197 37941,86323 58012,128856 2090,1836 4217,3661 6344,5510 35826,30981 81078,65757 126342,97790 9933,7008 19889,13920 29653,20686z"/>
   <path class="fil11" d="M2579020 4076731l0 0c-85598,-56176 -1204317,-849491 -864245,-929773 -90915,-72185 -181382,-96557 -274907,-100859 -41095,-1885 -82746,60 -125328,3613 -16711,4869 -32105,10645 -45578,17279 -43113,20397 -66869,47475 -77671,61564l-4314 5909c14911,27115 30559,52997 46835,77696 64380,97548 139103,177781 220351,252842 79290,54774 149325,99023 149095,99252 -253,423 87979,55221 184174,123129 47946,34039 97282,72113 137278,107408 40153,35114 70748,67268 85356,83858 25605,29447 40914,57082 48720,85562 176875,8978 358620,53384 520234,112520z"/>
   <path class="fil14" d="M1053952 3092040c3094,-7226 6719,-14512 11008,-21847 -6356,133 -12760,230 -19188,278 2610,7274 5341,14464 8180,21569z"/>
   <path class="fil0" d="M1915394 3965226c45082,-3154 90951,-3432 137205,-1305 2055,97 4097,193 6187,290 -7806,-28480 -23115,-56115 -48720,-85562 -14608,-16590 -45203,-48744 -85356,-83858 -39996,-35295 -89332,-73369 -137278,-107408 -96195,-67908 -184427,-122706 -184174,-123129 230,-229 -69805,-44478 -149095,-99252 -9764,-6766 -19720,-13678 -29653,-20686 -45264,-32033 -90516,-66809 -126342,-97790 -2127,-1849 -4254,-3674 -6344,-5510 -32782,-28553 -57057,-53179 -69286,-65903 -29507,-31501 -56151,-49855 -88703,-68101 -3371,4519 -6779,9087 -10307,13823 191133,276695 577412,422154 816153,639327 -19768,954 -39802,846 -60090,-97 -9775,-447 -19635,-1075 -29507,-1897 -2067,10452 -5317,21557 -9558,33277 31815,28312 55172,52647 66965,65347 2683,2912 5281,5727 7903,8434z"/>
   <path class="fil0" d="M1756341 3900049c20373,930 46364,-2296 82638,-4386 532,-1402 1039,-2804 1547,-4218 4241,-11720 7491,-22825 9558,-33277 -119625,-9956 -246959,-45663 -374147,-72753 -1958,14004 -2949,28407 -3021,43040 28939,-5280 51547,-5208 51898,-5195l0 0c-25,0 1280,-37 3709,0 2356,12 5812,108 10066,302 6102,290 13956,821 22934,1836 15104,1764 33410,4930 52030,10609 20155,5474 39875,14126 56792,22971 21556,11273 38618,22885 46291,28758 11310,8313 23816,11576 39705,12313z"/>
   <path class="fil15" d="M1123528 3220835c3528,-4736 6936,-9304 10307,-13823 1486,-2018 2960,-4024 4447,-5969l48695 -66579 4314 -5909c10802,-14089 34558,-41167 77671,-61564 13473,-6634 28867,-12410 45578,-17279 -79423,6561 -161988,18463 -249580,20481 -4289,7335 -7914,14621 -11008,21847 18427,46073 41966,88800 69576,128795z"/>
   <path class="fil15" d="M1497965 3979424c-1849,-48333 -10887,-92921 -25037,-143646 677,46520 10078,95446 25037,143646z"/>
   <path class="fil11" d="M2579225 4090083l-205 -13352c0,0 0,0 -14440,-665l14645 14017zm-838036 -920771l-411 -26776c-9461,1075 -18137,2561 -26003,4422 8797,6972 17605,14428 26414,22354z"/>
   <path class="fil16" d="M2419267 3080138l-72730 -30160c-116567,-58785 -293599,-294204 -397044,-445958 -118453,-179280 -222949,-397951 -182796,-609976 26474,-159258 125883,-274992 225353,-390761 99651,-102358 343528,-224822 414022,-341921 -206,-13388 57444,-24082 71762,-36806 -50025,-6597 -98563,-10959 -145422,-13110 -971013,-44636 -1271814,841117 -1232434,1620827 53927,931 107142,2538 159644,4954 398313,18307 761259,82843 1159645,242911z"/>
   <path class="fil17" d="M6849917 4420609c-45579,-40467 -73008,-56502 -72645,-77889 411,-11503 -339,-45989 -12011,-76221 -10706,-30426 -29870,-55451 -29809,-55342 72,73 -18452,-25266 -46654,-46956 -27634,-22426 -63546,-38243 -75363,-42859 -21968,-8821 -25762,-37966 -47536,-92014 31102,-46400 63220,-67570 101838,-55064 21049,6284 82142,33326 128228,71352 47197,36794 78469,80946 78372,80801 -242,-169 33990,42388 53879,97355 21690,54653 23019,117631 20288,137339 -3855,37035 -38872,53468 -98587,59498z"/>
   <path class="fil17" d="M6181783 3512490c-57492,-21702 -88908,-34631 -95095,-61094 -3262,-14318 -11987,-57286 -24662,-93210 -12192,-36407 -28359,-64138 -28359,-64017 36,181 -16071,-28553 -38594,-49276 -21871,-21496 -50654,-33072 -61396,-36624 -19055,-6706 -25592,-35453 -52296,-87785 25701,-48950 55293,-73636 97210,-62459 11189,3142 33906,10501 59764,24094 25906,13413 54024,33411 76523,55100 45591,43681 68295,89126 68645,88740 194,-97 26040,43777 42316,91869 17267,48055 27429,99385 29785,116350 4411,31404 -22535,51426 -73841,78312z"/>
   <path class="fil0" d="M7126104 4297105c-29302,-39500 -47608,-57721 -40600,-79882 3758,-11552 14657,-47427 20324,-82166 6127,-34595 7867,-66966 7867,-66906 0,37 1873,-32298 -278,-67763 -1656,-35549 -8543,-73381 -10899,-85694 -4169,-23019 15478,-38498 49469,-70228 48985,10440 77429,23997 84885,52695 4337,15611 12747,62579 14415,104992 2247,42533 -640,80607 -568,80619 -72,-12 -1426,38268 -8507,79786 -6380,41603 -19901,86275 -26015,100811 -10512,26378 -40817,34993 -90093,33736z"/>
   <path class="fil0" d="M6434517 2918995c-5473,2090 -10862,3685 -15623,5752 -4411,2465 -7975,5171 -10766,7902l-17582 12869c-9848,7032 -17750,10138 -27090,7793 -9486,-2706 -43126,-10838 -76475,-14922 -33133,-4338 -63776,-5631 -63716,-5595 0,0 -30679,-1220 -63376,689 -32927,1559 -66036,7310 -76137,9401 -19551,3770 -35223,-15153 -74880,-43452 -3734,-44877 6573,-72572 34014,-79955 15140,-4483 60223,-12095 100569,-13569 40467,-2055 76802,36 76838,12 36,-37 36383,882 76765,5896 40201,4507 85658,15189 101790,21146 14463,4882 25012,14850 31899,29664 3287,7190 5885,16107 6815,25460 1100,5292 1475,10621 1064,15757 -943,4893 -2610,9823 -4109,15152z"/>
   <path class="fil0" d="M3722630 4112171c73358,36407 116664,50556 172875,102007 15358,13666 46666,40950 87955,71799 41107,30993 92074,65479 142715,96183 101137,61842 200051,107650 199894,107698 -72,-181 98044,47294 210430,86432 56055,19828 115396,37422 165819,49686 50436,12446 91773,19503 112278,22717 76246,11008 114526,35235 189406,68609 -59740,47692 -115782,67811 -202528,56779 -23587,-3142 -70567,-10923 -126234,-24541 -55789,-13449 -120229,-32710 -180476,-54157 -120833,-42352 -224785,-93344 -224810,-93187 97,-121 -105318,-48272 -214188,-114477 -54520,-32903 -109885,-70300 -155234,-104520 -45457,-34123 -80752,-65177 -97947,-81236 -62591,-59377 -81212,-114574 -79955,-189792z"/>
   <path class="fil0" d="M5067475 4405118c-62144,11394 -106369,9606 -155874,-23272 -27417,-17751 -104968,-75328 -171051,-131865 -66519,-56200 -123467,-109765 -123503,-109741 -37,37 -57867,-52816 -118864,-112725 -61214,-59739 -125750,-126330 -146727,-148842 -38739,-41626 -43596,-78940 -43923,-138788 64610,8639 103868,17786 143598,57589 21520,21544 85054,87084 144577,145543 59401,58701 114948,110151 114984,110151 0,-24 55644,51511 119165,104835 63293,53770 135333,107178 159536,124059 45010,32008 56175,64790 78082,123056z"/>
   <path class="fil0" d="M5210227 4831815c-6585,52067 -20155,80801 -44962,82045 -13666,834 -55788,-713 -94382,-8724 -38655,-7419 -72295,-20396 -72234,-20372 72,0 -34111,-11443 -68307,-29955 -34534,-18052 -67678,-42738 -77720,-51656 -18813,-16433 -10403,-46037 14996,-92123 50762,-22172 76825,-35802 90963,-26172 7600,5293 29652,21617 51184,33108 21388,11866 41978,19273 41978,19297 0,-24 20566,7359 44176,11636 23526,4616 50073,5655 59100,6211 17097,1064 27187,28191 55208,76705z"/>
   <path class="fil0" d="M4750132 4453511c27538,5341 48756,10416 63389,14295 14778,3492 22438,5099 23683,9389 1124,4434 3190,17786 6453,30172 3153,12373 7298,23828 7322,23792 36,0 4459,11261 10923,23610l16663 30632c4169,8832 -17907,26353 -57359,60476 -50919,17739 -80704,24046 -89404,12784 -4616,-6150 -16687,-25725 -25907,-45010 -9473,-19091 -15974,-37651 -15974,-37615 -36,24 -7625,-18149 -13461,-39138 -5981,-20892 -9654,-44539 -9679,-52393 -302,-7069 7093,-14415 21025,-19345 14126,-4519 35139,-7468 62326,-11649z"/>
   <path class="fil0" d="M5073553 4804531c94177,-24408 156841,-32806 250958,-7951 29628,7600 92618,24565 167341,37893 74651,13642 162496,22306 241436,25895l-6633 -85c122512,-2259 217547,1136 217777,689 -13,-363 135405,2900 281093,2622 146171,556 301248,-10307 351793,-16228 94080,-9775 150340,8338 246740,37640 -61165,68729 -114501,107057 -215843,119999 -27526,3371 -82735,8965 -149869,12663 -67147,3722 -146123,5570 -221245,5667 -150437,-60 -284694,-4012 -284658,-3613 314,375 -95917,-2417 -210141,73l-3286 60 -3311 -121c-84438,-3552 -182107,-12905 -266098,-28311 -84124,-15116 -152660,-34039 -183787,-42811 -99482,-28891 -145386,-72125 -212267,-144081z"/>
   <path class="fil1" d="M5177083 3653417c-227154,152141 -211567,521224 34812,824418 246341,303085 630191,425440 857405,273300 227154,-152177 211578,-521237 -34763,-824346 -246379,-303109 -630325,-425513 -857454,-273372z"/>
   <path class="fil2" d="M5177083 3653417c-58278,66108 -78010,132010 -89187,198722 -9908,67424 -10513,139126 5643,231491 8531,49529 34812,151694 105149,263561 68802,111673 181333,230694 313053,307592 65335,38787 134427,67110 199242,82637 64875,15841 124929,18367 172923,12446 96775,-12422 142644,-52466 142921,-50991 -1909,1268 3118,-2175 9510,-6634 4507,-3516 12555,-9268 22137,-17992 18910,-16965 43886,-44189 64210,-84269 20336,-39887 35440,-92703 37893,-153663 2743,-60803 -6645,-129110 -28226,-197211 -41820,-136602 -134620,-270231 -231395,-362318 -96993,-93983 -196740,-146908 -246366,-168912 -92486,-41300 -168127,-61890 -241968,-73224 -73563,-9957 -148769,-12277 -235539,18765 59329,-65274 140299,-101331 229316,-111915 89465,-10211 189877,3806 301321,52695 60151,25967 177987,88667 289757,197018 56115,53915 110453,117896 156950,189079 46605,71267 85127,149978 110284,230501 25363,80474 37047,162737 33543,238862 -3166,76185 -22414,145809 -50508,200413 -27828,54883 -63498,94044 -90685,118175 -13388,12131 -25169,20771 -33894,27223l-11406 7939c-169,-254 -16772,12325 -50363,28940 -33398,16469 -85151,35827 -151150,43741 -65721,8253 -144722,4423 -225825,-15297 -81163,-19406 -164332,-53831 -241508,-99530 -155621,-91048 -283426,-226937 -362813,-355599 -81054,-128953 -112302,-249629 -121908,-309453 -18584,-111058 -3661,-202323 33434,-276889 37447,-74094 99265,-133725 185455,-165903z"/>
   <path class="fil1" d="M5910502 4433647c196305,-246995 -441946,-763567 -553632,-534589l553632 534589z"/>
   <path class="fil2" d="M5910502 4433647l-3927 -21110c-1837,-6537 -3625,-12023 -5510,-17448l-10706 -29169c-6561,-17412 -10549,-31429 -11322,-50170 -447,-10138 -2574,-31272 -11648,-58495 -8966,-27139 -25303,-59740 -45144,-89839 -39657,-60816 -91071,-109161 -90769,-109028 133,375 -49348,-49578 -113341,-90395 -31586,-20529 -66205,-38376 -94697,-48732 -28650,-10524 -49650,-13219 -58447,-13678 -16796,-810 -25157,-4773 -40249,-9353 -14959,-4615 -37785,-7104 -67872,2828 -10464,-28166 -8350,-59401 11624,-83290 19273,-24312 54967,-38473 94250,-37035 21580,229 62168,6368 104121,21931 42135,15261 86444,38690 125401,64102 78420,50520 135562,109498 135731,109329 -169,109 60731,55897 110876,131962 25109,37905 47282,80994 60320,120833 13352,39693 16989,75556 17001,93524 -36,66724 -43415,104363 -105692,113233z"/>
   <path class="fil1" d="M5882033 4471975c-218514,146352 -711995,-216605 -574584,-462802l574584 462802z"/>
   <path class="fil2" d="M5882033 4471975c-7540,55607 -43366,93971 -108024,96992 -17473,907 -52599,109 -92703,-8132 -40189,-7890 -84897,-22982 -124796,-41554 -80318,-36661 -140601,-86770 -140638,-86565 278,-109 -63437,-46436 -115939,-115383 -26390,-34147 -49589,-73950 -63606,-110864 -14391,-36758 -19225,-69914 -20203,-86359 -3227,-61396 33531,-96425 91325,-110937 21666,55233 43138,74687 45397,108822 1063,9292 3843,28408 13231,52333 9087,23840 25194,52091 44829,77707 38993,51874 89948,90117 89562,89912 -206,-278 48961,39585 110972,67546 30632,14185 63679,25072 91024,30486 27429,5618 48756,6150 58990,6041 19092,-24 33568,3239 51306,9329 18185,5715 37905,15454 69273,20626z"/>
   <path class="fil2" d="M5871968 4459481c273711,336809 -402603,481579 -659518,287630 -297454,-243828 -341171,-908131 184983,-798149 -741732,-350814 -859266,652509 -327191,989681 226538,156527 584251,205911 785220,13485 185370,-162725 187581,-453159 -34220,-555009l50726 62362z"/>
   <path class="fil2" d="M5871968 4459481c48152,43209 87894,97016 92751,161432 2369,31658 -4942,63812 -19430,91712 -14427,28034 -35162,52091 -58821,72561 -47814,40817 -106720,68524 -173105,87374 -66676,18427 -141761,28202 -227528,23828 -29471,-1583 -68549,-5111 -115565,-15068 -46762,-10259 -102333,-26366 -160526,-59969 -7250,-4278 -14464,-8749 -21690,-13618l-10802 -7552 -5377 -3951 -5704 -4568 -2066 -1728c-9534,-7938 -25459,-22197 -36515,-33519 -24046,-23949 -46195,-50508 -66471,-78916 -40599,-56815 -73333,-121376 -97004,-190396 -23418,-69044 -38183,-142752 -39271,-218466 -858,-75412 11201,-154098 49880,-226078 19526,-35670 45844,-69370 79677,-96267 33495,-27176 73829,-46956 115299,-58508 83894,-23212 167148,-15599 238765,-966l-39186 118525c-63920,-30342 -125920,-50726 -180729,-59861 -54907,-9401 -101947,-7226 -138148,628 -72669,16470 -103989,48660 -104485,47343 218,241 -16892,11165 -40841,38304 -23804,26885 -53348,72028 -72439,136082 -19370,63666 -28227,145422 -17690,234741 10307,89090 39729,185696 91470,273904 25786,44044 57118,85840 93295,122984 18101,18608 37386,36056 57662,52091 10125,8047 20577,15684 31211,22994l35053 23321c86517,56490 187255,92268 279100,107010 92425,15128 176476,8748 240059,-9014 64077,-17533 107927,-45204 134438,-65733 6199,-4749 12096,-9631 17811,-14561l19188 -17098c10005,-8917 20892,-19780 30027,-29978 18765,-20808 34474,-42509 47512,-64561 26027,-44153 42122,-89622 49106,-135708 6706,-46061 4507,-93222 -12675,-140359 -16917,-46871 -51282,-94129 -106962,-130753 64090,18064 120737,57407 158146,108326 37797,50774 57722,110381 62084,170749 4278,60525 -6525,122827 -34195,183702 -13872,30450 -32166,60441 -55450,89211 -11903,14597 -24034,27961 -39368,42425l-19514 18173c-7540,6755 -15419,13425 -23720,19865 -35440,27961 -95373,65697 -179473,88836 -83640,23466 -189780,30825 -302179,12398 -223407,-33411 -480443,-180645 -601554,-399051 -124288,-213366 -134970,-447468 -85948,-605372 23707,-79714 62591,-140541 96183,-178337 33603,-38063 59160,-54641 58761,-54883 36,109 12144,-9968 37398,-25072 25229,-14887 64935,-34438 119068,-45989 53868,-11806 121522,-14210 193127,-1898 71751,11951 147066,37350 220992,72331l-39187 118573c-57311,-11817 -117812,-15539 -169069,-906 -51511,13908 -92328,47209 -118476,95422 -26100,48176 -36782,108677 -35864,169480 798,61057 13050,123044 32649,180633 19708,57577 47029,111057 79255,156152 16119,22584 33313,43174 51305,61069 9751,9763 15479,15056 27840,25568l2018 1704 1027 906 242 181c821,713 -6344,-5111 -3226,-2573l435 290 3250 2356 6597 4652c4435,3033 9002,5848 13642,8615 37447,21883 79001,34728 115166,42618 36492,7854 68210,10936 92244,12398 70047,3999 133194,-1245 189285,-11359 56054,-10331 105789,-25749 147005,-48176 40853,-22571 73684,-52115 84957,-95699 11866,-43573 -2827,-100026 -34727,-154956z"/>
  </g>
 </g>
</svg>
