<?xml version="1.0" encoding="UTF-8"?>
<!DOCTYPE svg PUBLIC "-//W3C//DTD SVG 1.1//EN" "http://www.w3.org/Graphics/SVG/1.1/DTD/svg11.dtd">
<!-- Creator: CorelDRAW X7 -->
<svg xmlns="http://www.w3.org/2000/svg" xml:space="preserve" width="19.106mm" height="7.828mm" version="1.1" style="shape-rendering:geometricPrecision; text-rendering:geometricPrecision; image-rendering:optimizeQuality; fill-rule:evenodd; clip-rule:evenodd"
viewBox="0 0 232069 95082"
 xmlns:xlink="http://www.w3.org/1999/xlink">
 <defs>
  <style type="text/css">
   <![CDATA[
    .str0 {stroke:white;stroke-width:13368.3;stroke-linecap:round;stroke-linejoin:round}
    .fil0 {fill:none;fill-rule:nonzero}
    .fil1 {fill:red;fill-rule:nonzero}
   ]]>
  </style>
 </defs>
 <g id="__x0023_Layer_x0020_1">
  <metadata id="CorelCorpID_0Corel-Layer"/>
  <g>
   <path class="fil0 str0" d="M63190 41482c4989,257 7489,2189 7479,5778 -17,2705 -972,5325 -2885,7862 -1427,-1296 -2978,-1966 -4635,-2008l-24934 -14c-5155,-17 -9139,1026 -11976,3144 -2744,2045 -4123,4835 -4133,8387 -8,3607 1191,6524 3582,8750 2410,2264 5528,3419 9374,3427 2558,-2 4890,-608 7016,-1820 1995,3315 2990,5885 2985,7725 -10,3662 -3327,5490 -9970,5467 -7839,-32 -14372,-2339 -19595,-6955 -5855,-5090 -8754,-11252 -8735,-18520 15,-5392 1747,-9933 5215,-13621 3450,-3726 8180,-6099 14190,-7119 -3179,-4282 -4779,-9054 -4764,-14299 25,-6387 2397,-11539 7116,-15439 4717,-3919 11015,-5844 18873,-5831 7471,19 13080,1908 16808,5653 2077,2064 2927,5020 2552,8906 -409,4346 -2785,6516 -7129,6495 -3735,-9 -6667,-760 -8776,-2235 791,13 1413,-561 1883,-1706 469,-1237 569,-2618 281,-4161l-2 -166c-1715,-576 -3410,-858 -5049,-864 -3312,-11 -6009,1021 -8090,3099 -2064,2075 -3094,4807 -3105,8175 -12,3091 890,5697 2727,7818 1821,2140 4278,3464 7374,4013l16323 59z"/>
  </g>
  <g>
   <path id="1" class="fil0 str0" d="M114800 53747c-35,5097 -523,8727 -1426,10886 -2822,6555 -8355,9837 -16581,9807 -2686,2 -5010,-698 -6934,-2065 -1943,-1365 -2913,-2978 -2908,-4800 4,-1913 982,-4110 2931,-6628 1483,1369 3052,2058 4746,2061 2538,0 4353,-1063 5405,-3223 595,-1331 985,-3376 1149,-6138l-1362 -7c-10455,-235 -17768,-3564 -21957,-9974 -1899,-2985 -2844,-6290 -2817,-9916 10,-3680 791,-7312 2347,-10950 1627,-3838 3793,-6801 6484,-8918 5797,-4755 13639,-6931 23525,-6509 3515,11 6540,963 9038,2821 -1109,1665 -1675,4891 -1693,9711 -7,1473 18,4785 75,9956 -7,1381 1,2761 50,4157 22,3019 26,5707 24,8080l14502 56 -40 11630 -14558 -37zm-27093 -20075c-16,2872 1124,5034 3435,6471 2440,1307 5812,1943 10118,1930l-42 -24863c-3270,762 -6345,2919 -9225,6511 -2845,3535 -4273,6860 -4286,9951z"/>
  </g>
  <g>
   <path id="2" class="fil0 str0" d="M191131 37319c425,5186 -43,8979 -1368,11420 -1306,2401 -2933,3941 -4861,4618 -1724,657 -4942,958 -9654,957l-47977 -153 41 -11630 40211 119c-3746,-1315 -9271,-4365 -16631,-9167 -7786,-5076 -12324,-8795 -13611,-11142 -915,-1907 -1059,-3820 -411,-5756 756,-2196 2159,-4084 4171,-5664 2086,-1599 4343,-2461 6734,-2553 -2,2190 1751,5102 5256,8738 3376,3489 7708,7026 13017,10612 12263,8188 20625,11382 25083,9601zm-39229 22637c1711,6 3150,546 4299,1624 1151,1076 1713,2416 1706,3998 -5,1896 -673,3502 -2007,4782 -1370,1299 -3077,1938 -5120,1934 -1729,-5 -3114,-528 -4152,-1569 -1075,-1061 -1601,-2417 -1595,-4111 3,-1876 673,-3447 2006,-4745 1334,-1279 2948,-1917 4863,-1913z"/>
  </g>
  <g>
   <path id="3" class="fil0 str0" d="M223382 22788c-50,12920 -29,20502 44,22746 -365,12701 -1390,20695 -3097,23966 -1160,2254 -2914,3868 -5298,4843 -2258,882 -5492,1330 -9707,1307 -2688,1 -5012,-718 -6936,-2119 -1942,-1367 -2911,-2979 -2906,-4801 3,-1876 962,-4074 2875,-6628 1445,1333 3033,2002 4800,2007 2373,19 4077,-951 5130,-2891 998,-1978 1526,-5203 1528,-9692 8,-1510 -26,-3533 -82,-6035l6 -4049c1,-2264 -50,-6680 -175,-13267l-239 -12328c20,-2099 614,-3759 1802,-5020 1223,-1279 2839,-1916 4844,-1913 3773,8 6817,1163 9099,3464 -1110,1757 -1672,5221 -1688,10410z"/>
  </g>
  <path id="4" class="fil1" d="M63190 41482c4989,257 7489,2189 7479,5778 -17,2705 -972,5325 -2885,7862 -1427,-1296 -2978,-1966 -4635,-2008l-24934 -14c-5155,-17 -9139,1026 -11976,3144 -2744,2045 -4123,4835 -4133,8387 -8,3607 1191,6524 3582,8750 2410,2264 5528,3419 9374,3427 2558,-2 4890,-608 7016,-1820 1995,3315 2990,5885 2985,7725 -10,3662 -3327,5490 -9970,5467 -7839,-32 -14372,-2339 -19595,-6955 -5855,-5090 -8754,-11252 -8735,-18520 15,-5392 1747,-9933 5215,-13621 3450,-3726 8180,-6099 14190,-7119 -3179,-4282 -4779,-9054 -4764,-14299 25,-6387 2397,-11539 7116,-15439 4717,-3919 11015,-5844 18873,-5831 7471,19 13080,1908 16808,5653 2077,2064 2927,5020 2552,8906 -409,4346 -2785,6516 -7129,6495 -3735,-9 -6667,-760 -8776,-2235 791,13 1413,-561 1883,-1706 469,-1237 569,-2618 281,-4161l-2 -166c-1715,-576 -3410,-858 -5049,-864 -3312,-11 -6009,1021 -8090,3099 -2064,2075 -3094,4807 -3105,8175 -12,3091 890,5697 2727,7818 1821,2140 4278,3464 7374,4013l16323 59z"/>
  <path id="5" class="fil1" d="M114800 53747c-35,5097 -523,8727 -1426,10886 -2822,6555 -8355,9837 -16581,9807 -2686,2 -5010,-698 -6934,-2065 -1943,-1365 -2913,-2978 -2908,-4800 4,-1913 982,-4110 2931,-6628 1483,1369 3052,2058 4746,2061 2538,0 4353,-1063 5405,-3223 595,-1331 985,-3376 1149,-6138l-1362 -7c-10455,-235 -17768,-3564 -21957,-9974 -1899,-2985 -2844,-6290 -2817,-9916 10,-3680 791,-7312 2347,-10950 1627,-3838 3793,-6801 6484,-8918 5797,-4755 13639,-6931 23525,-6509 3515,11 6540,963 9038,2821 -1109,1665 -1675,4891 -1693,9711 -7,1473 18,4785 75,9956 -7,1381 1,2761 50,4157 22,3019 26,5707 24,8080l14502 56 -40 11630 -14558 -37zm-27093 -20075c-16,2872 1124,5034 3435,6471 2440,1307 5812,1943 10118,1930l-42 -24863c-3270,762 -6345,2919 -9225,6511 -2845,3535 -4273,6860 -4286,9951z"/>
  <path id="6" class="fil1" d="M191131 37319c425,5186 -43,8979 -1368,11420 -1306,2401 -2933,3941 -4861,4618 -1724,657 -4942,958 -9654,957l-47977 -153 41 -11630 40211 119c-3746,-1315 -9271,-4365 -16631,-9167 -7786,-5076 -12324,-8795 -13611,-11142 -915,-1907 -1059,-3820 -411,-5756 756,-2196 2159,-4084 4171,-5664 2086,-1599 4343,-2461 6734,-2553 -2,2190 1751,5102 5256,8738 3376,3489 7708,7026 13017,10612 12263,8188 20625,11382 25083,9601zm-39229 22637c1711,6 3150,546 4299,1624 1151,1076 1713,2416 1706,3998 -5,1896 -673,3502 -2007,4782 -1370,1299 -3077,1938 -5120,1934 -1729,-5 -3114,-528 -4152,-1569 -1075,-1061 -1601,-2417 -1595,-4111 3,-1876 673,-3447 2006,-4745 1334,-1279 2948,-1917 4863,-1913z"/>
  <path id="7" class="fil1" d="M223382 22788c-50,12920 -29,20502 44,22746 -365,12701 -1390,20695 -3097,23966 -1160,2254 -2914,3868 -5298,4843 -2258,882 -5492,1330 -9707,1307 -2688,1 -5012,-718 -6936,-2119 -1942,-1367 -2911,-2979 -2906,-4801 3,-1876 962,-4074 2875,-6628 1445,1333 3033,2002 4800,2007 2373,19 4077,-951 5130,-2891 998,-1978 1526,-5203 1528,-9692 8,-1510 -26,-3533 -82,-6035l6 -4049c1,-2264 -50,-6680 -175,-13267l-239 -12328c20,-2099 614,-3759 1802,-5020 1223,-1279 2839,-1916 4844,-1913 3773,8 6817,1163 9099,3464 -1110,1757 -1672,5221 -1688,10410z"/>
 </g>
</svg>
