<?xml version="1.0" encoding="UTF-8"?>
<!DOCTYPE svg PUBLIC "-//W3C//DTD SVG 1.1//EN" "http://www.w3.org/Graphics/SVG/1.1/DTD/svg11.dtd">
<!-- Creator: CorelDRAW X7 -->
<svg xmlns="http://www.w3.org/2000/svg" xml:space="preserve" width="2.15435in" height="1.71537in" version="1.1" style="shape-rendering:geometricPrecision; text-rendering:geometricPrecision; image-rendering:optimizeQuality; fill-rule:evenodd; clip-rule:evenodd"
viewBox="0 0 2172 1730"
 xmlns:xlink="http://www.w3.org/1999/xlink">
 <defs>
  <style type="text/css">
   <![CDATA[
    .fil8 {fill:none}
    .fil0 {fill:#006633}
    .fil4 {fill:#FEFEFE;fill-rule:nonzero}
    .fil6 {fill:#FCC791;fill-rule:nonzero}
    .fil5 {fill:#F89C45;fill-rule:nonzero}
    .fil3 {fill:#F89C32;fill-rule:nonzero}
    .fil7 {fill:#585757;fill-rule:nonzero}
    .fil2 {fill:#353535;fill-rule:nonzero}
    .fil1 {fill:#282828;fill-rule:nonzero}
   ]]>
  </style>
 </defs>
 <g id="Layer_x0020_1">
  <metadata id="CorelCorpID_0Corel-Layer"/>
  <path class="fil0" d="M667 1476c233,114 435,178 452,143 17,-34 -158,-154 -391,-268 -233,-114 -435,-178 -452,-143 -16,34 158,154 391,268z"/>
  <path class="fil1" d="M597 869c0,0 -351,162 -471,58 -120,-104 107,149 98,209 -10,59 240,-66 302,-123 62,-57 71,-144 71,-144z"/>
  <path class="fil2" d="M589 872c-55,27 -93,43 -163,64 -37,8 -157,52 -266,16 -27,-10 -47,-31 -65,-43 3,-4 21,32 31,42 22,31 36,52 36,52 0,0 14,20 34,53 10,17 22,36 30,61 -4,37 17,31 46,25 103,-32 205,-97 236,-120 55,-45 72,-87 88,-145 -10,59 -24,105 -82,153 -32,24 -134,88 -239,121 -14,3 -27,7 -42,4 -22,-7 -11,-29 -16,-36 -7,-22 -19,-42 -29,-58 -20,-33 -34,-53 -34,-53 0,0 -14,-20 -36,-52 -3,-15 -42,-35 -19,-56 22,15 40,34 65,43 103,35 223,-8 259,-16 70,-20 109,-34 166,-55z"/>
  <path class="fil3" d="M789 1251c0,0 -84,81 -79,116 5,36 177,16 185,90 8,75 1,89 -25,51 -25,-38 -108,-90 -184,-105 -75,-14 -89,-69 -147,-64 -57,5 -4,-57 64,-32 68,26 138,-36 126,-86 -12,-50 74,16 60,30z"/>
  <path class="fil2" d="M789 1251c-18,22 -33,42 -48,64 -9,17 -39,55 -9,59 16,7 54,10 101,22 22,7 51,15 66,44 8,31 10,52 5,85 1,15 -29,12 -28,4 -6,-5 -9,-11 -13,-16 -7,-9 -15,-18 -24,-25 -17,-15 -35,-27 -51,-36 -31,-18 -53,-25 -53,-25 -1,0 -21,-9 -57,-17 -41,-3 -80,-52 -123,-62 -11,-2 -24,5 -44,-8 -13,-27 14,-34 23,-41 28,-13 58,-4 79,2 42,11 76,-11 87,-23 29,-27 14,-42 31,-79 32,1 55,24 58,52 -5,-26 -40,-41 -53,-41 1,4 8,59 -24,80 -13,14 -53,42 -104,28 -22,-6 -44,-13 -67,-3 -27,16 -20,15 17,16 58,16 86,60 124,62 36,8 59,18 59,18 0,0 23,7 56,26 16,9 35,21 54,37 15,12 45,51 37,45 3,-19 0,-53 -5,-72 -9,-18 -34,-28 -55,-34 -44,-11 -82,-15 -102,-22 -8,-4 -20,-6 -24,-22 1,-10 2,-20 6,-26 6,-15 15,-26 23,-36 17,-21 36,-37 58,-56z"/>
  <path class="fil1" d="M1540 397c0,0 -50,-121 -149,-121 -99,-1 -278,77 -256,343 7,91 -349,111 -503,221 -154,111 -257,357 82,407 372,54 451,-239 574,-525 31,-71 253,-186 252,-325z"/>
  <path class="fil2" d="M1540 397c-57,-145 -223,-156 -337,-27 -31,35 -75,125 -64,241 -4,73 -92,80 -147,102 -62,19 -127,35 -189,55 -127,34 -232,111 -275,193 -49,80 -32,143 -31,141 0,-3 7,68 95,105 82,36 213,61 337,20 127,-41 204,-167 252,-269 50,-105 83,-194 103,-237 106,-140 233,-171 256,-324 -17,154 -147,195 -248,327 -19,44 -52,133 -102,238 -48,103 -127,232 -258,274 -128,41 -260,16 -344,-21 -91,-38 -100,-115 -100,-111 -1,2 -19,-66 31,-148 45,-84 153,-163 281,-197 63,-20 128,-36 190,-55 54,-21 140,-34 140,-92 -12,-118 33,-212 65,-248 59,-68 133,-92 198,-92 69,5 118,59 147,125z"/>
  <path class="fil4" d="M1371 478c0,0 -166,39 -119,151 47,112 38,89 22,128 -16,38 -71,195 -109,186 -38,-9 -131,-114 -144,-152 -14,-39 151,-99 145,-153 -27,-247 200,-348 275,-335 75,14 214,211 -70,175z"/>
  <path class="fil2" d="M1371 478c-75,23 -163,77 -103,177 5,14 14,32 22,59 3,32 -21,54 -30,89 -13,32 -27,67 -46,101 -11,16 -20,37 -44,44 -23,-4 -38,-19 -53,-31 -30,-27 -55,-55 -77,-84 -10,-15 -21,-28 -24,-46 1,-22 18,-30 27,-39 45,-33 74,-52 74,-53 -6,-1 45,-15 44,-68 -5,-54 3,-135 50,-200 45,-66 119,-113 188,-127 78,-16 117,53 131,72 37,47 3,106 -39,108 -40,8 -77,4 -120,-2 43,3 81,5 118,-5 39,-6 66,-51 33,-97 -13,-18 -51,-82 -121,-67 -66,13 -139,60 -182,123 -46,63 -54,141 -49,195 -1,63 -54,73 -47,76 0,1 -30,20 -74,52 -9,8 -24,19 -24,31 2,12 13,28 23,42 21,28 46,56 75,82 14,12 31,25 46,28 15,-3 27,-23 36,-38 20,-34 34,-69 47,-101 8,-31 33,-62 29,-83 -7,-24 -17,-44 -22,-57 -25,-45 -28,-99 6,-127 28,-28 64,-43 106,-54z"/>
  <g id="_1119868464">
   <path class="fil5" d="M1801 1125c0,0 -22,68 -125,-68 -104,-136 -415,-249 -427,-388 -12,-138 21,-172 85,-158 65,14 468,583 467,614z"/>
   <path class="fil2" d="M1801 1125c-27,43 -72,-5 -93,-24 -26,-26 -46,-59 -83,-90 -37,-39 -175,-120 -291,-210 -59,-44 -100,-112 -92,-167 -2,-52 8,-86 9,-85 -1,6 8,-51 70,-44 57,12 93,78 142,131 93,114 185,244 215,287 55,82 90,127 123,202 -38,-72 -75,-115 -130,-196 -31,-43 -123,-174 -215,-287 -47,-52 -89,-120 -136,-128 -54,-6 -60,42 -60,38 5,-11 -56,152 80,242 115,89 254,170 291,210 38,32 58,66 82,93 21,19 59,68 88,28z"/>
  </g>
  <path class="fil1" d="M1494 485c0,0 -243,73 -206,209 28,99 -74,-36 -37,-136 22,-61 108,-132 243,-73z"/>
  <path class="fil2" d="M1482 489c-34,16 -57,27 -95,50 -18,11 -91,52 -97,120 -2,16 3,30 6,46 1,8 4,15 -1,25 -16,6 -17,-7 -22,-10 -14,-20 -18,-35 -19,-35 2,1 -30,-60 -8,-128 25,-71 107,-97 130,-96 46,-5 72,6 106,20 -36,-9 -61,-16 -105,-11 -22,-1 -99,24 -122,90 -20,63 9,123 8,122 0,-1 5,14 18,33 18,31 -3,-30 0,-57 7,-75 83,-115 101,-127 39,-23 64,-32 100,-42z"/>
  <path class="fil4" d="M1477 472c0,0 12,78 57,46 46,-32 84,-140 -24,-138 0,0 -20,-58 -73,-34 -50,24 -100,175 40,126z"/>
  <path class="fil2" d="M1478 478c9,22 21,54 49,38 14,-4 57,-52 45,-99 -6,-23 -31,-30 -47,-32 -20,5 -28,-20 -26,-15 5,1 -31,-48 -73,-9 -36,33 -43,94 -27,104 21,19 46,13 72,8 -24,10 -49,24 -80,-2 -19,-16 -11,-81 28,-118 49,-46 97,14 89,12 6,0 -5,14 17,11 18,1 48,9 57,38 12,56 -33,104 -50,111 -42,18 -52,-26 -54,-47z"/>
  <path class="fil1" d="M1484 456c-5,11 -1,24 10,29 11,6 25,1 30,-10 5,-11 1,-24 -10,-30 -11,-5 -25,0 -30,11z"/>
  <path class="fil1" d="M1444 436c-5,11 -1,24 10,30 11,5 25,1 30,-10 5,-11 1,-25 -10,-30 -11,-6 -25,-1 -30,10z"/>
  <g id="_1119875088">
   <path class="fil5" d="M1433 494c0,0 105,-3 233,110 68,60 267,318 208,528 -27,99 -69,-12 -105,-77 -63,-114 -444,-305 -462,-455 -19,-150 47,-127 126,-106z"/>
   <path class="fil2" d="M1433 494c91,6 151,38 235,106 45,38 161,179 205,338 23,79 20,160 -1,215 -3,13 -20,30 -35,20 -11,-7 -16,-16 -21,-23 -10,-14 -14,-22 -14,-22 -1,1 -16,-34 -45,-82 -32,-46 -95,-92 -159,-141 -130,-94 -269,-210 -287,-273 -15,-53 -17,-99 3,-137 33,-36 79,-11 119,-1 -41,-8 -88,-27 -113,5 -17,33 -15,81 0,130 15,59 153,174 284,268 64,50 127,95 161,144 30,49 44,83 45,82 0,0 5,9 13,22 8,12 29,38 40,4 21,-52 24,-131 1,-208 -43,-157 -159,-297 -202,-334 -83,-67 -139,-101 -229,-113z"/>
   <path class="fil1" d="M1876 971c0,0 30,254 -58,175 -70,-63 -83,-135 -83,-135 0,0 72,-115 141,-40z"/>
   <path class="fil2" d="M1876 971c6,26 9,44 10,77 -4,16 10,73 -28,115 -33,-1 -53,-20 -64,-34 -8,-11 -11,-19 -13,-16 0,0 -29,-35 -45,-81 -9,-56 57,-82 70,-88 34,-9 55,6 70,27 -20,-17 -39,-26 -68,-18 -9,1 -75,37 -63,76 15,45 44,78 44,78 -1,-2 4,6 13,16 12,14 30,31 52,32 29,-31 20,-93 22,-107 0,-32 0,-50 0,-77z"/>
   <path class="fil6" d="M1835 940c5,3 6,-3 2,-20 -53,-224 -180,-319 -251,-355 -20,-10 -36,-16 -44,-18 1,0 3,1 4,2 40,20 105,114 163,205 59,91 111,179 126,186zm-299 -395c0,0 2,0 6,2 -2,-1 -4,-2 -6,-2z"/>
  </g>
  <path class="fil3" d="M724 1248c0,0 -84,81 -79,116 5,36 176,16 184,90 9,74 1,89 -24,51 -26,-38 -109,-90 -184,-105 -75,-14 -89,-69 -147,-64 -58,5 -5,-58 64,-32 68,26 137,-36 126,-86 -12,-50 73,16 60,30z"/>
  <path class="fil2" d="M724 1248c-19,22 -34,42 -48,64 -9,17 -40,55 -9,59 16,7 54,10 100,22 22,7 51,15 67,44 8,31 10,52 5,85 0,15 -29,12 -29,4 -6,-5 -8,-11 -13,-16 -7,-9 -14,-18 -23,-25 -18,-15 -36,-27 -51,-36 -32,-18 -54,-25 -54,-25 0,0 -21,-9 -57,-17 -41,-3 -79,-52 -122,-62 -11,-2 -24,5 -44,-8 -13,-27 14,-34 23,-41 27,-13 58,-4 79,2 42,11 76,-11 86,-23 30,-27 14,-42 31,-79 33,1 55,24 59,52 -5,-26 -41,-41 -53,-41 0,4 7,59 -24,80 -13,14 -53,42 -104,28 -23,-6 -45,-13 -67,-3 -27,16 -21,15 16,16 59,16 86,60 124,62 36,8 60,18 59,18 0,0 24,7 57,26 16,9 35,21 53,37 16,12 45,51 37,45 4,-19 1,-53 -4,-72 -10,-18 -34,-28 -56,-34 -43,-11 -82,-15 -101,-22 -9,-4 -20,-6 -25,-22 1,-10 2,-20 6,-26 7,-15 15,-26 24,-36 17,-21 35,-37 58,-56z"/>
  <path class="fil7" d="M991 776c-29,22 -50,37 -88,58 -21,12 -84,47 -146,71 -31,12 -62,21 -86,21 -27,-4 -36,-10 -34,-7 -8,-8 8,56 60,97 47,47 122,54 144,46 42,-8 64,-20 96,-38 -28,23 -50,39 -94,48 -24,8 -103,0 -153,-49 -51,-44 -74,-106 -58,-111 2,-7 21,3 39,4 22,1 53,-8 83,-20 61,-23 123,-58 144,-70 38,-21 60,-33 93,-50z"/>
  <rect class="fil8" width="2172" height="1730"/>
 </g>
</svg>
