<?xml version="1.0" encoding="UTF-8"?>
<!DOCTYPE svg PUBLIC "-//W3C//DTD SVG 1.1//EN" "http://www.w3.org/Graphics/SVG/1.1/DTD/svg11.dtd">
<!-- Creator: CorelDRAW X7 -->
<svg xmlns="http://www.w3.org/2000/svg" xml:space="preserve" width="2.15435in" height="1.71537in" version="1.1" style="shape-rendering:geometricPrecision; text-rendering:geometricPrecision; image-rendering:optimizeQuality; fill-rule:evenodd; clip-rule:evenodd"
viewBox="0 0 2172 1730"
 xmlns:xlink="http://www.w3.org/1999/xlink">
 <defs>
  <style type="text/css">
   <![CDATA[
    .fil0 {fill:none}
    .fil1 {fill:#006633}
    .fil5 {fill:#FEFEFE;fill-rule:nonzero}
    .fil7 {fill:#FCC791;fill-rule:nonzero}
    .fil6 {fill:#F89C45;fill-rule:nonzero}
    .fil4 {fill:#F89C32;fill-rule:nonzero}
    .fil8 {fill:#585757;fill-rule:nonzero}
    .fil3 {fill:#353535;fill-rule:nonzero}
    .fil2 {fill:#282828;fill-rule:nonzero}
   ]]>
  </style>
 </defs>
 <g id="Layer_x0020_1">
  <metadata id="CorelCorpID_0Corel-Layer"/>
  <rect class="fil0" width="2172" height="1730"/>
  <path class="fil1" d="M667 1476c233,114 435,178 452,143 17,-34 -158,-154 -391,-268 -233,-114 -435,-178 -452,-143 -16,34 158,154 391,268z"/>
  <path class="fil2" d="M597 869c0,0 -351,162 -471,58 -120,-104 107,149 98,209 -10,59 240,-66 302,-123 62,-57 71,-144 71,-144z"/>
  <path class="fil3" d="M589 872c-55,27 -93,43 -163,64 -37,8 -157,52 -266,16 -27,-10 -47,-31 -65,-43 3,-4 21,32 31,42 22,31 36,52 36,52 0,0 14,20 34,53 10,17 22,36 30,61 -4,37 17,31 46,25 103,-32 205,-97 236,-120 55,-45 72,-87 88,-145 -10,59 -24,105 -82,153 -32,24 -134,88 -239,121 -14,3 -27,7 -42,4 -22,-7 -11,-29 -16,-36 -7,-22 -19,-42 -29,-58 -20,-33 -34,-53 -34,-53 0,0 -14,-20 -36,-52 -3,-15 -42,-35 -19,-56 22,15 40,34 65,43 103,35 223,-8 259,-16 70,-20 109,-34 166,-55z"/>
  <path class="fil4" d="M789 1251c0,0 -84,81 -79,116 5,36 177,16 185,90 8,75 1,89 -25,51 -25,-38 -108,-90 -184,-105 -75,-14 -89,-69 -147,-64 -57,5 -4,-57 64,-32 68,26 138,-36 126,-86 -12,-50 74,16 60,30z"/>
  <path class="fil3" d="M789 1251c-18,22 -33,42 -48,64 -9,17 -39,55 -9,59 16,7 54,10 101,22 22,7 51,15 66,44 8,31 10,52 5,85 1,15 -29,12 -28,4 -6,-5 -9,-11 -13,-16 -7,-9 -15,-18 -24,-25 -17,-15 -35,-27 -51,-36 -31,-18 -53,-25 -53,-25 -1,0 -21,-9 -57,-17 -41,-3 -80,-52 -123,-62 -11,-2 -24,5 -44,-8 -13,-27 14,-34 23,-41 28,-13 58,-4 79,2 42,11 76,-11 87,-23 29,-27 14,-42 31,-79 32,1 55,24 58,52 -5,-26 -40,-41 -53,-41 1,4 8,59 -24,80 -13,14 -53,42 -104,28 -22,-6 -44,-13 -67,-3 -27,16 -20,15 17,16 58,16 86,60 124,62 36,8 59,18 59,18 0,0 23,7 56,26 16,9 35,21 54,37 15,12 45,51 37,45 3,-19 0,-53 -5,-72 -9,-18 -34,-28 -55,-34 -44,-11 -82,-15 -102,-22 -8,-4 -20,-6 -24,-22 1,-10 2,-20 6,-26 6,-15 15,-26 23,-36 17,-21 36,-37 58,-56z"/>
  <path class="fil2" d="M1540 397c0,0 -50,-121 -149,-121 -99,-1 -278,77 -256,343 7,91 -349,111 -503,221 -154,111 -257,357 82,407 372,54 451,-239 574,-525 31,-71 253,-186 252,-325z"/>
  <path class="fil3" d="M1540 397c-57,-145 -223,-156 -337,-27 -31,35 -75,125 -64,241 -4,73 -92,80 -147,102 -62,19 -127,35 -189,55 -127,34 -232,111 -275,193 -49,80 -32,143 -31,141 0,-3 7,68 95,105 82,36 213,61 337,20 127,-41 204,-167 252,-269 50,-105 83,-194 103,-237 106,-140 233,-171 256,-324 -17,154 -147,195 -248,327 -19,44 -52,133 -102,238 -48,103 -127,232 -258,274 -128,41 -260,16 -344,-21 -91,-38 -100,-115 -100,-111 -1,2 -19,-66 31,-148 45,-84 153,-163 281,-197 63,-20 128,-36 190,-55 54,-21 140,-34 140,-92 -12,-118 33,-212 65,-248 59,-68 133,-92 198,-92 69,5 118,59 147,125z"/>
  <path class="fil5" d="M1371 478c0,0 -166,39 -119,151 47,112 38,89 22,128 -16,38 -71,195 -109,186 -38,-9 -131,-114 -144,-152 -14,-39 151,-99 145,-153 -27,-247 200,-348 275,-335 75,14 214,211 -70,175z"/>
  <path class="fil3" d="M1371 478c-75,23 -163,77 -103,177 5,14 14,32 22,59 3,32 -21,54 -30,89 -13,32 -27,67 -46,101 -11,16 -20,37 -44,44 -23,-4 -38,-19 -53,-31 -30,-27 -55,-55 -77,-84 -10,-15 -21,-28 -24,-46 1,-22 18,-30 27,-39 45,-33 74,-52 74,-53 -6,-1 45,-15 44,-68 -5,-54 3,-135 50,-200 45,-66 119,-113 188,-127 78,-16 117,53 131,72 37,47 3,106 -39,108 -40,8 -77,4 -120,-2 43,3 81,5 118,-5 39,-6 66,-51 33,-97 -13,-18 -51,-82 -121,-67 -66,13 -139,60 -182,123 -46,63 -54,141 -49,195 -1,63 -54,73 -47,76 0,1 -30,20 -74,52 -9,8 -24,19 -24,31 2,12 13,28 23,42 21,28 46,56 75,82 14,12 31,25 46,28 15,-3 27,-23 36,-38 20,-34 34,-69 47,-101 8,-31 33,-62 29,-83 -7,-24 -17,-44 -22,-57 -25,-45 -28,-99 6,-127 28,-28 64,-43 106,-54z"/>
  <g id="_1459771728">
   <path class="fil6" d="M1651 1231c0,0 -36,62 -107,-94 -72,-155 -351,-334 -332,-471 18,-138 59,-164 118,-136 60,28 329,671 321,701z"/>
   <path class="fil3" d="M1651 1231c-36,36 -69,-20 -85,-43 -20,-31 -32,-68 -62,-107 -27,-46 -144,-155 -238,-268 -48,-56 -73,-132 -53,-183 10,-51 26,-82 27,-81 -1,5 19,-48 78,-28 53,24 74,97 111,159 65,131 126,279 147,328 35,91 59,142 75,223 -22,-79 -48,-129 -84,-220 -20,-49 -82,-196 -147,-327 -34,-61 -61,-136 -105,-154 -51,-18 -67,28 -67,24 8,-10 -88,136 26,253 92,112 210,222 238,269 30,39 42,78 60,108 15,24 42,80 79,47z"/>
  </g>
  <path class="fil2" d="M1487 484c0,0 -254,5 -254,146 0,102 -62,-55 0,-141 38,-53 140,-98 254,-5z"/>
  <path class="fil3" d="M1475 485c-38,6 -63,11 -106,22 -20,6 -101,26 -125,89 -6,15 -6,31 -7,47 -1,7 0,15 -8,23 -16,2 -14,-11 -18,-15 -8,-23 -8,-39 -9,-39 2,2 -12,-66 27,-126 43,-61 129,-64 151,-57 46,8 68,25 97,48 -33,-18 -55,-32 -98,-39 -21,-6 -102,-3 -142,54 -37,55 -24,121 -25,119 0,0 1,15 8,37 9,34 5,-29 15,-55 28,-70 111,-89 132,-95 44,-12 70,-13 108,-13z"/>
  <path class="fil5" d="M1477 472c0,0 12,78 57,46 46,-32 84,-140 -24,-138 0,0 -20,-58 -73,-34 -50,24 -100,175 40,126z"/>
  <path class="fil3" d="M1478 478c9,22 21,54 49,38 14,-4 57,-52 45,-99 -6,-23 -31,-30 -47,-32 -20,5 -28,-20 -26,-15 5,1 -31,-48 -73,-9 -36,33 -43,94 -27,104 21,19 46,13 72,8 -24,10 -49,24 -80,-2 -19,-16 -11,-81 28,-118 49,-46 97,14 89,12 6,0 -5,14 17,11 18,1 48,9 57,38 12,56 -33,104 -50,111 -42,18 -52,-26 -54,-47z"/>
  <path class="fil2" d="M1484 456c-5,11 -1,24 10,29 11,6 25,1 30,-10 5,-11 1,-24 -10,-30 -11,-5 -25,0 -30,11z"/>
  <path class="fil2" d="M1444 436c-5,11 -1,24 10,30 11,5 25,1 30,-10 5,-11 1,-25 -10,-30 -11,-6 -25,-1 -30,10z"/>
  <g id="_1459805104">
   <path class="fil6" d="M1434 470c0,0 103,-22 249,66 78,47 320,265 300,483 -10,101 -71,-1 -117,-58 -83,-101 -492,-220 -537,-364 -45,-144 24,-134 105,-127z"/>
   <path class="fil3" d="M1434 470c91,-10 155,10 250,62 51,29 191,147 263,296 37,73 49,153 37,211 0,13 -14,33 -30,26 -12,-5 -19,-13 -26,-18 -11,-12 -17,-20 -17,-20 -1,1 -21,-31 -58,-72 -40,-40 -111,-74 -183,-111 -145,-69 -302,-157 -331,-216 -25,-50 -35,-95 -22,-136 26,-41 76,-24 117,-22 -42,-1 -91,-11 -110,25 -11,35 0,82 23,128 26,55 182,144 328,213 71,37 142,71 184,112 39,44 58,74 59,73 1,0 6,8 17,19 10,11 36,32 40,-3 11,-55 -1,-134 -37,-205 -70,-146 -210,-264 -258,-292 -94,-51 -155,-74 -246,-70z"/>
   <path class="fil2" d="M1956 859c0,0 75,245 -26,183 -80,-50 -106,-118 -106,-118 0,0 50,-126 132,-65z"/>
   <path class="fil3" d="M1956 859c10,25 16,43 23,74 -1,17 24,71 -6,119 -33,4 -56,-11 -69,-23 -10,-8 -15,-16 -16,-13 0,0 -35,-29 -59,-71 -19,-53 42,-92 53,-99 31,-16 55,-4 74,13 -23,-12 -43,-18 -70,-5 -9,3 -67,50 -49,86 23,41 57,69 57,69 0,-2 6,5 17,14 13,11 34,24 56,21 23,-35 3,-94 3,-109 -6,-31 -9,-49 -14,-76z"/>
   <path class="fil7" d="M1910 837c5,1 5,-5 -2,-21 -93,-211 -234,-281 -310,-304 -22,-6 -38,-9 -47,-10 1,0 3,1 4,1 43,13 124,94 198,173 74,79 141,156 157,161zm-366 -336c0,0 3,1 7,1 -2,0 -5,-1 -7,-1z"/>
  </g>
  <path class="fil4" d="M724 1248c0,0 -84,81 -79,116 5,36 176,16 184,90 9,74 1,89 -24,51 -26,-38 -109,-90 -184,-105 -75,-14 -89,-69 -147,-64 -58,5 -5,-58 64,-32 68,26 137,-36 126,-86 -12,-50 73,16 60,30z"/>
  <path class="fil3" d="M724 1248c-19,22 -34,42 -48,64 -9,17 -40,55 -9,59 16,7 54,10 100,22 22,7 51,15 67,44 8,31 10,52 5,85 0,15 -29,12 -29,4 -6,-5 -8,-11 -13,-16 -7,-9 -14,-18 -23,-25 -18,-15 -36,-27 -51,-36 -32,-18 -54,-25 -54,-25 0,0 -21,-9 -57,-17 -41,-3 -79,-52 -122,-62 -11,-2 -24,5 -44,-8 -13,-27 14,-34 23,-41 27,-13 58,-4 79,2 42,11 76,-11 86,-23 30,-27 14,-42 31,-79 33,1 55,24 59,52 -5,-26 -41,-41 -53,-41 0,4 7,59 -24,80 -13,14 -53,42 -104,28 -23,-6 -45,-13 -67,-3 -27,16 -21,15 16,16 59,16 86,60 124,62 36,8 60,18 59,18 0,0 24,7 57,26 16,9 35,21 53,37 16,12 45,51 37,45 4,-19 1,-53 -4,-72 -10,-18 -34,-28 -56,-34 -43,-11 -82,-15 -101,-22 -9,-4 -20,-6 -25,-22 1,-10 2,-20 6,-26 7,-15 15,-26 24,-36 17,-21 35,-37 58,-56z"/>
  <path class="fil8" d="M991 776c-29,22 -50,37 -88,58 -21,12 -84,47 -146,71 -31,12 -62,21 -86,21 -27,-4 -36,-10 -34,-7 -8,-8 8,56 60,97 47,47 122,54 144,46 42,-8 64,-20 96,-38 -28,23 -50,39 -94,48 -24,8 -103,0 -153,-49 -51,-44 -74,-106 -58,-111 2,-7 21,3 39,4 22,1 53,-8 83,-20 61,-23 123,-58 144,-70 38,-21 60,-33 93,-50z"/>
 </g>
</svg>
