<?xml version="1.0" encoding="UTF-8"?>
<!DOCTYPE svg PUBLIC "-//W3C//DTD SVG 1.1//EN" "http://www.w3.org/Graphics/SVG/1.1/DTD/svg11.dtd">
<!-- Creator: CorelDRAW X7 -->
<svg xmlns="http://www.w3.org/2000/svg" xml:space="preserve" width="11.8436mm" height="29.9757mm" version="1.1" style="shape-rendering:geometricPrecision; text-rendering:geometricPrecision; image-rendering:optimizeQuality; fill-rule:evenodd; clip-rule:evenodd"
viewBox="0 0 237334 600683"
 xmlns:xlink="http://www.w3.org/1999/xlink">
 <defs>
  <style type="text/css">
   <![CDATA[
    .fil0 {fill:black}
   ]]>
  </style>
 </defs>
 <g id="Layer_x0020_1">
  <metadata id="CorelCorpID_0Corel-Layer"/>
  <path class="fil0" d="M210648 13538c-68351,0 -141624,0 -209975,0 33564,198120 -4352,391428 -374,587145 68351,0 136702,0 205052,0 -3977,-195717 37656,-387821 5297,-587145z"/>
  <path class="fil0" d="M227841 0c-69968,0 -144976,0 -214944,0 30237,202688 -12598,400453 -12598,600683 69968,0 139936,0 209904,0 0,-200230 46615,-396764 17638,-600683z"/>
  <path class="fil0" d="M216325 13675c-61877,0 -128212,0 -190088,0 25448,194724 -13697,384720 -14973,577078 61876,0 123755,0 185631,0 1279,-192358 43755,-381171 19430,-577078z"/>
 </g>
</svg>
