<?xml version="1.0" encoding="iso-8859-1"?>
<!-- Generator: Adobe Illustrator 18.0.0, SVG Export Plug-In . SVG Version: 6.00 Build 0)  -->
<!DOCTYPE svg PUBLIC "-//W3C//DTD SVG 1.1//EN" "http://www.w3.org/Graphics/SVG/1.1/DTD/svg11.dtd">
<svg xmlns="http://www.w3.org/2000/svg" xmlns:xlink="http://www.w3.org/1999/xlink" version="1.1" id="Capa_1" x="0px" y="0px" viewBox="0 0 291.545 291.545" style="enable-background:new 0 0 291.545 291.545;" xml:space="preserve" width="512px" height="512px">
<g>
	<path d="M238.685,111.889c-30.756-0.311-55.777-25.587-55.777-56.345c0-19.675,0-33.383,0-52.99h-73.927   c-19.944,0-36.17,16.226-36.17,36.17v55.269c33.093,4.988,60.943,33.32,60.943,71.863c9.422,6.357,15.63,17.13,15.63,29.327v53.671   v30v0h105.99c19.944,0,36.171-16.225,36.171-36.17V112.426C274.035,112.248,256.34,112.069,238.685,111.889z" fill="#7dcd2e"/>
	<path d="M237.825,89.144l52.185,0.529L205.782,2.739v54.034C205.782,74.442,220.156,88.963,237.825,89.144z" fill="#7dcd2e"/>
	<path d="M114.031,185.045L114.031,185.045h-5.492h0v-20.188c0-25.776-21.025-46.454-46.455-46.454   c-25.615,0-46.454,20.839-46.454,46.454v20.188h0h-5.492h0C4.67,185.045,0,189.496,0,195.183v83.67   c0,5.552,4.515,10.138,10.138,10.138h103.894c5.521,0,10.138-4.497,10.138-10.138v-83.67   C124.169,189.454,119.423,185.045,114.031,185.045z M62.085,143.552c11.748,0,21.306,9.558,21.306,21.306v19.245   c-15.293,0-27.335,0-42.612,0v-19.245C40.778,153.133,50.314,143.552,62.085,143.552z M71.934,237.994v16.629   c0,5.439-4.409,9.849-9.849,9.849c-5.44,0-9.849-4.41-9.849-9.849v-16.628c-3.698-2.917-6.08-7.427-6.08-12.502   c0-8.797,7.131-15.928,15.928-15.928c8.797,0,15.928,7.131,15.928,15.928C78.013,230.567,75.631,235.077,71.934,237.994z" fill="#7dcd2e"/>
</g>
<g>
</g>
<g>
</g>
<g>
</g>
<g>
</g>
<g>
</g>
<g>
</g>
<g>
</g>
<g>
</g>
<g>
</g>
<g>
</g>
<g>
</g>
<g>
</g>
<g>
</g>
<g>
</g>
<g>
</g>
</svg>
