<?xml version="1.0" encoding="UTF-8"?>
<!DOCTYPE svg PUBLIC "-//W3C//DTD SVG 1.1//EN" "http://www.w3.org/Graphics/SVG/1.1/DTD/svg11.dtd">
<!-- Creator: CorelDRAW X7 -->
<svg xmlns="http://www.w3.org/2000/svg" xml:space="preserve" width="2.18403in" height="2.58298in" version="1.1" style="shape-rendering:geometricPrecision; text-rendering:geometricPrecision; image-rendering:optimizeQuality; fill-rule:evenodd; clip-rule:evenodd"
viewBox="0 0 2182 2580"
 xmlns:xlink="http://www.w3.org/1999/xlink">
 <defs>
  <style type="text/css">
   <![CDATA[
    .fil2 {fill:#441600}
    .fil3 {fill:#AB5623}
    .fil5 {fill:#FDCF8F}
    .fil0 {fill:white}
    .fil4 {fill:#663300;fill-rule:nonzero}
    .fil1 {fill:white;fill-rule:nonzero}
   ]]>
  </style>
 </defs>
 <g id="Layer_x0020_1">
  <metadata id="CorelCorpID_0Corel-Layer"/>
  <path class="fil0" d="M1091 121c-257,0 -465,212 -465,473 0,261 208,472 465,472 257,0 465,-211 465,-472 0,-261 -208,-473 -465,-473zm-386 835l-12 10 0 0 -1 1 -10 9 -1 0 0 0 0 1 -9 8 -2 2 -2 1 -9 10 -1 0 0 0 0 0 -11 11 -2 2 -3 3 -3 3 -3 3 -1 1 -2 3 -7 6 -2 3 -1 1 -3 3 -3 4 -3 3 -1 1 -2 2 -3 4 -4 3 -2 3 -1 1 0 1 -6 6 -3 4 0 1 -3 2 -3 4 -3 4 -6 7 -3 4 -3 4 -1 1 -2 2 -3 4 -2 4 -3 3 0 1 -3 4 -3 3 -3 4 -1 2 -2 2 -3 4 -3 4 -2 4 -3 4 -3 4 -3 4 -3 4 -2 4 -3 4 0 1 -6 8 -2 4 -3 4 -1 2 -2 2 -5 1 -9 1 -1 0 -6 1 -5 0 -11 2 -5 1 -5 0 -11 2 -5 1 -6 1 -11 2 -5 1 -6 1 -5 1 -6 1 -5 1 -6 1 -5 2 -9 2 -2 0 -6 1 -6 2 0 0 -5 1 -6 2 -5 1 -6 1 -6 2 -6 1 -14 5 -2 0 -1 0 -6 2 -11 3 -6 2 0 0 -6 2 -16 5 -5 2 -20 7 -2 1 -1 0c-8,3 -16,6 -24,9l0 0c-17,6 -33,13 -50,20l0 0 -1 1c-8,3 -17,7 -25,10l65 215c-45,42 -53,133 -17,223 23,55 58,99 96,123l-1 3 0 4 0 3 -1 7 0 1 -1 2 0 3 -1 13 0 4 0 0 -1 3 -1 17 0 1 0 2 -1 3 0 4 -1 13 0 0 0 3 -1 17 0 2 0 2 -1 3 0 3 0 10 0 4 0 0 -1 3 0 14 0 3 0 2 0 2 -1 17 0 3 0 0 0 3 0 18 0 1 0 2 0 3 0 18c0,566 1630,496 1630,0l0 -18 0 -3 0 -2 0 -1 0 -18 0 -3 0 0 0 -3 -1 -11 0 -3 0 -3 0 -2 0 -2 0 -3 0 -10 -1 -4 0 -3 0 0 0 -4 0 -3 -1 -10 0 -3 0 -2 0 -2 0 0 -1 -13 0 -4 0 -3 0 0 0 -3 -1 -4 0 -3 0 -3 0 -4 -1 -3 0 -2 0 -1 0 -4 -1 -3 0 -3 0 -4 0 -3 -1 -3 0 0 0 -4 0 -3 -1 -3 0 -4 0 -3 -1 -3 0 -2 0 -1 0 -4 -1 -3 0 -3 0 -4 -1 -3 2 -1 1 -1 1 0 2 -1 0 -1 1 -1 2 -1 1 0 1 -1 2 -2 0 0 1 -1 2 -1 0 -1 2 -1 1 -1 1 0 1 -2 2 -1 0 0 2 -2 1 -1 0 0 2 -2 1 -1 1 0 1 -2 1 -1 1 -1 2 -1 0 -1 1 -1 2 -2 1 0 1 -1 1 -2 1 -1 1 -1 1 -2 1 0 1 -1 2 -2 0 0 1 -2 2 -2 0 0 1 -2 2 -2 0 0 1 -2 1 -1 1 -1 1 -2 1 -1 1 -1 0 0 2 -3 1 -1 1 -2 1 -1 1 -1 1 -2 0 -1 1 -2 2 -2 0 0 1 -2 2 -2 0 0 1 -2 1 -3 0 0 2 -2 1 -2 0 0 1 -3 1 -1 1 -1 1 -2 1 -2 0 -1 1 -2 1 -1 1 -2 1 -2 1 -2 1 -3 0 -1 1 -1 1 -3 1 0 1 -2 1 -3 0 0 1 -3 1 -2 1 -4 1 -1 1 -4 1 -1 1 -3 0 -2 1 -2 1 -3 1 -1 1 -4 0 0 1 -5 0 0 1 -4 1 0 1 -4 0 -1 1 -3 0 -2 1 -2 0 -3 1 -1 0 -4 1 -1 0 -4 0 0 1 -4 0 0 1 -4 0 -1 0 -3 1 -2 0 -2 0 -3 1 -1 0 -3 0 -1 0 -4 0 0 1 -4 0 -1 0 -3 0 -1 0 -3 0 -2 0 -2 1 -2 0 -2 0 -3 0 -1 0 -3 0 -1 -1 -3 0 -1 0 -3 0 -1 0 -3 0 -2 0 -2 0 -2 0 -1 -1 -3 0 -1 0 -3 0 0 -1 -4 0 0 0 -4 -1 -1 0 -2 0 -2 -1 -1 0 -3 0 -1 -1 -2 0 -1 -1 -3 0 -1 -1 -3 0 0 -1 -3 0 -1 -1 -2 0 -1 -1 -2 -1 -2 0 -1 -1 -3 0 0 -2 -3 0 0 -1 -3 0 0 -1 -3 -1 -1 -1 -2 0 -1 -1 -1 -1 -2 -1 -1 -1 -2 0 -1 -2 -2 0 0 -2 -3 0 0 -1 -2 -2 -2 -1 -1 -1 -2 -1 -1 -1 -1 -2 -2 -2 -2 0 0 -2 -2 65 -215c-9,-3 -17,-7 -25,-10l-1 -1c-17,-7 -33,-14 -50,-20l0 0c-16,-6 -32,-12 -47,-17l-5 -2 -16 -5 -6 -2 0 0 -3 -1 -19 -5 -1 -1 -1 0 -2 0 -15 -5 -5 -1 -6 -2 -15 -3 -6 -2 -2 0 -5 -2 -6 -1 -5 -1 -6 -1 -5 -2 -6 -1 -6 -1 0 0 -5 -1 -6 -1 -5 -1 -5 -1 -6 -1 -5 -1 -6 -1 -5 -1 0 0 -11 -2 0 0 -5 0 -6 -1 -10 -2 -5 0 -6 -1 -5 -1 -5 0 -5 -1 -2 -2 -1 -2 -3 -4 -2 -4 -3 -4 0 -1 -3 -4 -7 -10 0 0 -1 -2 -6 -8 -3 -4 0 0 -2 -4 -3 -4 -3 -4 -2 -2 -1 -2 -3 -4 -3 -3 -3 -4 0 -1 -3 -3 -3 -4 -2 -4 -3 -2 0 -1 -1 -2 -8 -9 0 -1 -1 -1 -2 -2 -3 -4 -3 -4 -3 -2 0 -1 -1 -1 -5 -6 -4 -4 0 -1 -3 -3 -6 -7 -2 -2 -1 -1 -3 -3 -3 -4 -3 -3 -1 -1 -2 -3 -9 -9 0 0 -1 -1 0 0 -10 -9 -1 -2 -11 -11 -1 0 -9 -10 -2 -1 -2 -2 -9 -8 0 -1 -1 0 0 0 -10 -9 -1 -1 0 0 -12 -10c-93,111 -231,182 -386,182 -155,0 -293,-71 -386,-182z"/>
  <g>
   <path class="fil1" d="M1091 242c-96,0 -183,40 -245,103 -62,64 -101,152 -101,249 0,97 39,185 101,248 62,64 149,103 245,103 96,0 183,-39 245,-103 62,-63 101,-151 101,-248 0,-97 -39,-185 -101,-249 -62,-63 -149,-103 -245,-103zm-412 -68c105,-108 251,-174 412,-174 161,0 307,66 412,174 106,108 172,256 172,420 0,111 -31,215 -83,304l1 1 1 1 10 9 3 3 1 0 0 1 9 9 0 0 1 1 2 2 10 10 0 0 0 0 1 0 0 0 1 2 0 0 0 0 1 1 8 9 0 0 3 2 1 1 0 1 3 3 1 1 3 3 0 1 3 3 -87 82 88 -81 0 0 0 0 0 0 0 0 0 0 2 3 1 1 6 6 0 0 2 3 2 2 1 1 0 0 3 3 0 1 6 6 1 1 0 1 3 3 0 1 3 3 1 0 3 4 2 3 -1 -1 1 1 0 0 0 0 0 0 2 3 1 0 -1 0 1 0 0 0 0 0 7 9 1 2 1 1 0 1 2 2 -92 75 93 -75 3 4 0 1 2 3 1 0 2 3 2 3 2 3 1 1 3 4 3 3 0 1 1 1 -19 15 0 0 19 -14 2 2 0 1 3 4 1 0 3 4 -1 0 2 3 4 4 0 0 4 1 4 1 1 0 0 0 0 0 5 1 1 0 5 1 6 1 1 0 5 1 0 0 5 1 2 0 5 1 6 1 1 0 5 1 4 1 0 0 0 0 2 1 1 0 6 1 0 0 6 1 1 1 5 1 0 -1 6 2 0 0 6 2 0 0 6 1 2 0 0 0 1 0 0 0 1 1 4 1 2 0 15 4 0 1 6 1 1 0 6 2 1 0 14 4 2 1 2 0 1 0 2 1 17 5 0 0 0 0 6 2 6 2 0 0 16 5 1 0 6 2 25 9c6,2 15,5 26,10l1 0c8,3 17,6 27,10 9,4 17,8 25,11l0 0 1 0 3 1 12 6 1 0 12 6 97 43 -31 103 -48 159 5 9 1 3 1 3 0 0 0 0 1 2 1 3 0 1 1 2 0 2 1 2 1 2 0 1 0 -1 0 1 0 0 0 0 1 1 1 4 0 0 1 3 0 3 1 0 1 3 0 1 0 1 1 1 0 4 1 4 1 1 -1 0 1 1 1 5 0 1 0 0 1 3 0 2 0 0 0 1 0 0 1 1 1 7 0 3 1 2 0 0 0 3 0 0 1 4 0 0 0 0 0 1 0 2 0 0 0 4 0 1 0 0 1 2 0 2 0 2 0 0 0 2 0 4 0 1 0 0 1 2 0 4 0 0 0 1 0 0 0 1 0 5 0 4 0 1 0 1 0 0 0 3 0 0 0 1 0 1 0 2 0 0 0 2 0 4 0 2 0 1 0 2 0 0 0 2 0 0 0 2 0 4 -1 1 0 0 0 3 0 2 0 0 0 4 0 0 -1 4 0 1 0 5 -1 4 0 0 0 0 0 2 0 3 0 1 -1 3 0 1 0 1 -1 3 0 1 0 1 0 1 -1 4 0 2 0 0 -1 0 0 1 1 0 -1 4 0 0 -1 2 0 5 -1 0 0 1 -116 -26 116 27 -1 4 0 1 0 1 -1 2 0 1 -1 2 0 2 -1 2 -114 -30 114 31 0 3 -1 1 0 1 -114 -32 114 33 -1 3 0 0 -1 3 -1 4 -1 1 0 0 -1 4 0 2 -1 0 0 2 0 1 -1 1 -1 5 -1 2 0 0 -1 2 0 2 -1 2 0 1 -1 2 0 0 -1 1 0 3 -2 3 0 1 -1 1 0 0 -1 4 -1 2 -1 3 -1 0 -1 3 0 0 0 0 -1 3 -1 2 -1 2 0 0 0 2 -2 2 0 1 -1 2 0 0 -1 2 -1 2 -1 3 -1 2 -2 3 0 1 0 0 0 0 -1 1 -1 3 0 0 -2 3 0 1 0 0 -1 2 -2 3 0 0 0 0 -1 2 -1 2 -1 1 -1 2 0 1 -2 2 0 1 0 0 -1 2 -1 1 -1 2 0 0 0 0 -2 2 -1 3 -2 2 0 0 0 1 -2 2 0 1 0 0 -1 0 0 0 0 1 0 0 -1 1 -1 1 1 0 -1 1 -4 6 -1 2 0 0 -1 1 -2 3 -1 1 -2 3 0 0 -2 2 0 0 0 0 0 0 -1 2 -1 1 -1 2 -2 2 0 0 -1 1 -1 2 -2 2 -3 3 0 0 -1 2 0 0 -2 2 -1 2 -1 0 0 0 -2 2 0 1 0 0 -2 1 0 2 -1 1 -1 0 -1 2 -3 2 0 0 1 3 0 0 0 0 0 3 0 4 0 3 1 3 0 1 0 4 0 3 0 0 0 3 0 1 1 3 0 0 0 13 0 0 0 2 0 0 1 6 0 0 0 0 0 1 0 9 0 0 0 3 0 3 1 2 0 0 0 4 0 1 0 3 0 0 0 10 0 1 0 3 0 2 1 2 0 1 0 2 0 0 0 4 0 0 0 10 0 2 0 2 0 0 0 4 0 0 0 18 0 1 1 2 0 1 0 3 0 1 0 18 0 0c0,254 -268,418 -605,485 -113,22 -235,34 -357,34 -123,1 -244,-9 -355,-31 -312,-63 -551,-221 -551,-488l0 -1 0 -17 0 -1 0 -3 0 -1 0 -2 0 -1 1 -17 0 -2 -1 0 0 0 1 -3 0 -3 0 -1 0 -17 0 0 0 -2 0 -2 1 -3 0 -1 0 -12 0 0 0 0 0 -4 0 -2 0 0 0 -3 0 -1 1 -10 0 -3 0 -1 0 -4 0 0 0 0 0 0 1 -2 0 -1 1 -17 0 0 0 -3 0 -2 0 0 1 -13 0 0 0 -4 0 -3 0 0 0 -2 0 0 1 -1c-8,-9 -16,-18 -24,-27 -22,-30 -42,-64 -57,-101 -26,-62 -36,-127 -31,-183 2,-39 12,-75 27,-106l-48 -159 -31 -103 96 -43 13 -6 1 0 11 -5 0 0 1 0 0 -1 0 0 2 0 0 0 1 -1 0 1 1 -1 25 -10 1 -1 26 -11 1 1 1 -1 12 -4 1 -1 12 -4 0 0 0 0 3 -1 1 -1 20 -7 2 0 5 -2 1 0 15 -5 1 0 5 -2 2 -1 0 0 6 -2 1 0 12 -3 0 -1 6 -1 0 0 2 0 2 -1 14 -4 1 0 6 -2 1 0 6 -2 0 0 6 -1 5 -2 2 0 5 -1 0 0 4 -1 29 117 -28 -117 1 -1 1 0 6 -1 0 0 5 -2 0 0 2 0 2 -1 9 -2 0 0 6 -1 0 0 6 -1 1 0 5 -1 1 -1 5 -1 1 0 6 -1 5 -1 2 0 5 -1 11 -2 1 0 5 -1 1 0 5 -1 1 0 9 -2 2 -2 0 -1 2 -4 3 -4 1 0 2 -4 2 -3 2 -2 0 0 0 -1 3 -3 1 -1 2 -4 1 0 3 -4 0 0 1 -1 2 -3 0 0 3 -4 1 -2 3 -3 0 0 1 -2 2 -2 0 0 3 -4 0 0 3 -4 1 -1 6 -7 0 0 3 -4 1 -1 3 -4 0 0 1 -1 0 -1 1 0 1 -2 3 -3 1 -1 5 -6 -1 0 1 -1 4 -3 1 -2 0 -1 3 -3 1 0 2 -3 1 -1 2 -3 1 0 88 81 -87 -82 3 -3 3 -4 1 -1 3 -3 0 -1 1 -1 2 -2 1 -1 7 -7 1 -1 0 0 0 -1 3 -2 3 -4 0 1 3 -3 0 -1 3 -3 3 -2 1 -1 0 0 10 -10 -1 0 1 0 3 -3 0 0 1 -1 0 0 8 -8 1 -1 2 -1c-53,-89 -83,-193 -83,-304 0,-164 66,-312 172,-420zm25 948l0 0 -3 3 0 0 0 1 0 0 0 0 0 0 0 0 0 -1 0 0 0 1 -3 3 0 0 -2 2 0 1 -3 3 0 0 -1 1 0 0 -1 1 -2 2 -1 1 0 0 -3 4 0 0 -1 2 0 0 -1 1 -1 1 -2 2 0 1 -2 2 0 0 -3 4 -1 0 -5 6 0 0 -2 4 0 0 -3 3 -3 3 0 0 0 1 -3 4 0 0 -2 2 0 0 -3 4 -2 3 0 0 -3 3 0 0 -2 4 -1 1 -1 2 -3 3 0 0 -3 4 -2 4 -1 0 -2 4 -2 3 0 0 -2 3 0 0 -3 4 0 0 -3 4 -3 4 0 0 -4 6 0 0 -2 5 -3 4 -1 1 -1 2 0 0 -31 48 -56 6 -4 1 0 0 -10 1 -3 1 -1 0 0 -1 -1 0 -4 1 0 0 -10 2 0 0 -5 0 0 0 -5 1 0 0 -9 1 0 0 -5 1 0 0 -4 1 0 0 -11 2 -6 1 0 0 -4 1 -4 1 0 0 -6 1 0 0 -4 0 0 1 -5 1 0 0 -5 1 0 0 -9 2 0 0 0 0 -1 0 -5 1 0 0 -6 2 -4 1 -1 0 -4 1 0 0 -6 1 -5 2 0 0 -5 1 0 0 -5 1 0 0 -10 3 -5 2 -6 1 0 0 -10 3 0 0 -6 2 -1 0 -4 2 0 -1 0 1 -1 0 0 0 -13 4 0 0 -4 1 0 1 -15 5 32 107 22 74 -55 51c-1,1 0,5 -1,15 -1,21 3,46 14,73 7,17 15,31 24,43 8,11 17,19 25,24l62 41 -8 74 0 3 0 1 0 3 0 0 -1 3 0 0 0 6 0 0 0 0 0 2 -1 2 0 0 0 2 0 0 -1 13 0 0 -1 2 1 0 0 3 -2 17 0 0 0 0 0 1 0 1 0 0 0 3 -1 4 0 0 -1 12 0 2 0 1 0 0 -1 17 0 0 0 0 0 0 0 1 0 2 0 3 0 0 0 2 -1 8 0 0 0 0 0 6 0 3 0 0 -1 13 0 0 0 2 0 2 0 1 0 17 0 0 0 0 0 0 -1 2 0 1 0 0 0 2 0 17 0 2 0 2 0 2 0 17 0 0c0,126 157,209 360,250 97,19 202,29 308,28 106,-1 213,-11 314,-31 229,-45 411,-132 411,-247l1 0 0 -17 0 -2 0 -2 0 -2 0 -16 0 0 -1 -3 0 -1 0 -2 0 0 0 -10 0 -3 0 -1 0 -3 0 0 0 -1 0 -2 0 -3 0 0 -1 -10 0 -1 0 -1 0 0 0 -4 0 -1 0 -1 0 0 0 -3 0 -1 -1 -10 0 -3 0 0 0 -2 -1 -7 0 -7 0 0 0 -3 0 0 -1 -3 0 0 0 -3 0 -3 0 0 0 -3 -1 -3 0 -4 0 -3 0 -1 0 -2 0 0 0 -3 -1 0 0 -3 0 -3 0 0 0 -3 0 0 0 -3 -1 -1 0 -3 0 -7 -1 -2 0 -2 0 0 0 -4 0 0 0 -3 0 0 -1 -1 0 0 0 -1 0 -1 0 -3 0 -3 -1 0 0 -3 0 0 0 -3 0 -1 -1 -4 -7 -74 62 -40 1 -1 0 0 1 0 1 -1 0 0 0 0 0 0 1 -1 0 0 2 -2 1 0 1 -1 0 0 0 0 0 0 0 0 1 -1 1 -1 0 0 0 0 0 0 0 0 0 0 0 0 0 0 0 0 0 0 0 0 0 0 1 0 -1 0 0 0 1 -1 2 -1 0 0 0 -1 2 -1 0 -1 -1 0 1 -1 0 1 2 -2 0 0 0 0 1 -1 1 -1 0 0 0 -1 1 0 0 0 0 0 0 -1 2 -2 0 0 0 0 0 0 0 0 0 0 1 -1 2 -3 2 -2 0 -1 2 -2 0 0 1 -1 1 -2 0 0 1 -1 0 -1 0 0 0 0 1 -1 0 0 1 -3 1 -1 0 0 2 -2 0 -1 1 -1 0 0 0 -1 0 0 2 -2 0 0 1 -3 0 0 0 0 1 -2 0 0 1 -2 0 0 0 0 0 0 2 -3 1 -2 0 0 0 -1 0 0 1 -1 0 -1 1 -2 0 0 0 0 0 -1 1 -1 0 0 0 -1 0 0 1 -4 1 0 0 0 0 -2 0 0 1 -1 0 0 0 -1 0 0 1 -2 0 0 0 -1 0 0 1 -1 0 -2 1 -3 0 0 1 -1 -1 0 2 -4 0 0 0 -3 0 0 1 -2 0 0 0 -1 0 0 1 -2 0 0 0 -1 1 -3 0 0 0 -2 0 -2 0 0 1 -2 0 0 0 -3 0 0 0 -1 1 -3 0 0 0 0 0 -1 0 -3 0 0 0 -4 1 -2 0 0 0 -1 0 -1 0 0 0 0 0 0 0 0 0 -2 0 -1 0 0 0 0 0 -2 0 0 0 0 0 0 0 -1 0 0 0 0 -1190 -489zm-32 -5l-68 -63 59 55 9 8zm-155 -144l-1 0 0 1 1 -1zm1267 976l0 -1 0 1zm150 -108l0 0 -14 -16 14 16zm20 -2l0 0 -24 -24 24 24zm-49 -41l20 22 -19 -21 -1 -1zm-59 -69l0 1 0 0 0 0 0 0 0 -1zm44 42l43 42 -38 -38 -4 -3 -1 -1zm-2 -120l0 1 0 -1 0 0zm1 -2l0 1 0 0 0 -1 0 0zm140 14l1 0 -22 -4 21 4zm-138 -22l0 -1 0 1zm3 -27l0 0 0 0zm0 -3l0 0 0 0 0 -1 0 -2 0 0 0 0 0 -1 0 0 0 -1 0 0 0 -2 0 0 0 -1 0 0 -1 -2 0 0 0 -2 0 -3 0 -1 0 0 0 0 0 -2 0 0 -1 -1 0 0 0 0 0 -1 0 0 0 0 0 0 0 -1 -1 -1 0 -2 0 0 0 0 0 0 -1 -2 -52 -50 22 -72 32 -107 -14 -5 -5 -2 0 0 -14 -4 0 0 0 0 -1 -1 0 1 -5 -2 0 0 -1 -1 -19 -5 0 0 -1 -1 -1 0 -14 -4 0 0 -5 -1 0 0 -4 -1 -1 0 -14 -4 0 0 -6 -1 -2 0 -1 -1 0 0 -3 -1 0 0 -4 -1 0 1 -6 -2 0 0 -4 -1 -1 0 -5 -1 0 0 -5 -1 0 -1 -5 0 0 0 -5 -1 0 0 -4 -1 -4 -1 0 0 -6 -1 0 0 -4 -1 0 0 -6 -1 -5 -1 0 0 -5 -1 -1 0 0 0 0 0 -8 -1 0 0 -5 -1 0 0 -5 0 0 0 -10 -2 0 0 -4 -1 -4 0 0 0 -5 0 0 0 -5 -1 0 0 -5 -1 -56 -6 -31 -48 0 0 -1 -2 -1 -1 -3 -4 -2 -4 -2 -3 -3 -5 0 0 0 0 -6 -8 0 0 -1 -2 -5 -8 -3 -4 -3 -3 0 0 0 0 -2 -4 0 0 -3 -3 0 0 -1 -2 0 0 0 -1 -1 0 -3 -4 -2 -3 0 -1 -2 -2 -1 0 -2 -3 93 -75 -93 74 -3 -3 0 0 -3 -4 1 0 -3 -3 0 0 -7 -9 0 1 -1 -1 1 -1 -1 0 8 -6 18 -16 -18 15 -8 7 -2 -3 -3 -3 0 -1 -2 -2 0 0 -3 -3 0 0 0 -1 0 0 -6 -6 0 0 -2 -3 0 0 -2 -2 -1 -1 -5 -6 0 0 -3 -2 88 -82 -88 81 -1 -1 0 0 -2 -3 0 0 0 0c-39,31 -80,57 -125,78 -80,38 -169,59 -262,59 -93,0 -182,-21 -262,-59 -45,-21 -87,-47 -125,-78l1190 489zm73 -51l2 0 34 -12 -36 12zm8 -10l25 -11 -25 10 0 1zm135 -56l0 0 0 0 0 0zm-160 39l8 -7 21 -21 -29 28zm-267 -449l0 0 -51 39 51 -39zm-146 111l0 0 0 0 0 0zm176 -163l0 -1 -1 0 1 1zm-193 141l1 0 0 0 -1 0zm45 -58l37 -31 -29 24 -8 7zm-10 6l10 -8 36 -31 -46 39zm-75 4l1 1 -1 -1 0 0z"/>
  </g>
  <path class="fil2" d="M1091 55c-274,0 -496,221 -496,494 0,274 222,495 496,495 274,0 496,-221 496,-495 0,-273 -222,-494 -496,-494zm-412 874l-12 10 -1 0 -1 2 -11 9 0 0 0 0 -1 1 -10 9 -2 1 -1 2 -10 9 -1 0 0 1 0 0 -12 12 -1 1 -4 3 -3 4 -4 3 0 1 -3 3 -7 7 -2 2 -1 1 -4 4 -3 3 -3 4 -1 1 -2 3 -4 3 -3 4 -2 2 -1 2 -1 1 -6 6 -3 4 -1 1 -2 3 -4 3 -3 4 -6 8 -3 4 -3 4 -1 1 -3 3 -3 4 -3 4 -2 3 -1 1 -3 4 -3 4 -3 4 -1 1 -2 3 -3 4 -3 4 -3 4 -3 5 -3 4 -3 4 -3 4 -3 5 -3 4 0 0 -6 9 -3 4 -3 4 -1 2 -2 3 -5 0 -10 1 -1 1 -6 0 -6 1 -11 1 -6 1 -5 1 -12 2 -6 1 -5 1 -12 2 -6 1 -6 1 -5 1 -6 1 -6 1 -6 2 -6 1 -9 2 -3 1 -6 1 -6 1 -1 1 -5 1 -6 1 -6 2 -6 1 -6 2 -6 1 -16 5 -2 0 -1 1 -6 1 -12 4 -6 2 -1 0 -6 2 -16 5 -6 2 -21 7 -3 1 0 0c-9,3 -17,6 -26,9l-1 1c-17,6 -35,13 -52,21l-1 0 -1 0c-9,4 -17,8 -26,12l69 224c-48,44 -57,140 -18,234 24,58 61,103 102,129l-1 3 0 4 0 3 -1 7 0 2 0 2 -1 3 -1 14 0 3 0 0 -1 4 -1 17 0 2 -1 2 0 3 0 4 -1 14 0 0 0 3 -1 18 -1 1 0 2 0 4 0 3 -1 11 0 3 0 1 0 3 -1 14 0 4 0 2 0 1 0 18 0 4 0 0 0 3 -1 18 0 2 0 2 0 3 0 18c0,593 1740,521 1740,0l0 -18 0 -3 0 -2 0 -2 -1 -18 0 -3 0 0 0 -4 0 -11 0 -3 0 -4 0 -1 0 -2 -1 -4 0 -10 0 -4 0 -4 0 0 0 -3 -1 -4 0 -10 0 -4 -1 -2 0 -1 0 0 -1 -14 0 -4 0 -3 0 0 0 -4 0 -3 -1 -4 0 -3 0 -4 -1 -3 0 -2 0 -2 0 -3 0 -4 -1 -3 0 -4 0 -3 -1 -4 0 0 0 -3 0 -4 -1 -3 0 -4 0 -3 -1 -4 0 -1 0 -2 0 -3 -1 -4 0 -3 -1 -4 0 -3 2 -1 1 -1 1 -1 2 -1 1 -1 1 0 1 -2 1 0 1 -1 2 -1 1 -1 1 -1 2 -1 0 0 2 -2 2 -1 0 0 1 -2 2 -1 0 0 2 -2 1 -1 1 0 2 -2 1 -1 0 -1 2 -1 1 -1 1 -1 2 -2 1 -1 0 -1 2 -1 1 -1 1 -1 2 -2 0 -1 1 -1 2 -2 0 0 2 -2 1 -2 1 0 1 -2 2 -2 0 0 1 -2 2 -1 0 -1 2 -2 1 -1 0 -1 2 -2 1 -1 1 -1 0 0 2 -3 1 -1 1 -3 1 0 1 -2 1 -2 1 -1 1 -1 1 -3 1 0 1 -2 1 -2 0 0 2 -2 1 -3 0 0 2 -2 1 -2 0 -1 1 -2 1 -2 1 -1 1 -2 1 -2 0 -1 2 -2 0 -1 1 -2 1 -2 2 -3 1 -2 0 -1 1 -2 1 -3 1 0 0 -2 2 -3 0 0 1 -3 1 -2 2 -5 0 0 1 -4 1 -1 1 -3 1 -3 1 -2 1 -3 0 -1 1 -4 1 -1 1 -4 0 0 1 -4 0 -1 2 -4 0 -1 1 -3 0 -2 1 -3 0 -2 1 -2 1 -3 0 -1 1 -4 0 -1 1 -4 0 -1 0 -3 0 -2 1 -2 0 -3 1 -2 0 -2 0 -2 1 -3 0 -1 0 -4 0 0 0 -5 0 0 1 -4 0 -1 0 -3 0 -2 0 -2 0 -3 0 -1 0 -3 0 -1 0 -4 0 0 0 -4 0 -1 0 -3 0 -1 0 -3 0 -2 -1 -2 0 -2 0 -2 0 -3 0 0 -1 -4 0 0 0 -4 0 0 -1 -4 0 -1 -1 -2 0 -2 0 -2 -1 -2 0 -1 -1 -3 0 -1 -1 -3 0 0 -1 -4 0 0 -1 -3 0 -1 -1 -2 0 -2 -1 -2 -1 -2 0 -1 -1 -2 -1 -1 -1 -3 0 0 -1 -3 0 0 -2 -3 0 -1 -1 -2 -1 -1 -1 -2 -1 -1 0 -2 -2 -2 0 0 -2 -3 0 0 -2 -3 0 0 -2 -2 -2 -3 0 -1 -1 -1 -2 -1 -1 -1 -2 -2 -2 -2 0 -1 -2 -2 69 -224c-9,-4 -17,-8 -26,-12l-1 0c-18,-8 -36,-15 -54,-21l0 -1c-17,-6 -33,-12 -50,-17l-6 -2 -17 -5 -5 -2 -1 0 -2 -1 -21 -6 -2 0 0 -1 -2 0 -16 -5 -6 -1 -6 -2 -16 -4 -7 -1 -1 -1 -6 -1 -6 -1 -6 -2 -6 -1 -6 -1 -6 -2 -6 -1 0 0 -6 -1 -6 -1 -5 -1 -6 -1 -6 -1 -6 -1 -6 -1 -5 -1 0 0 -12 -2 0 0 -5 -1 -6 -1 -11 -1 -6 -1 -6 0 -5 -1 -6 -1 -5 0 -2 -3 -1 -2 -3 -4 -3 -4 -3 -5 0 0 -3 -4 -8 -11 0 0 -1 -2 -6 -8 -3 -5 0 0 -3 -4 -3 -4 -3 -4 -2 -3 -1 -1 -3 -4 -3 -4 -3 -4 -1 -1 -2 -3 -3 -4 -3 -4 -3 -3 -1 -1 -1 -1 -7 -10 -1 -1 -1 -1 -2 -3 -4 -4 -3 -3 -2 -3 -1 -1 -1 -1 -5 -7 -4 -3 -1 -2 -2 -2 -7 -7 -2 -3 -1 -1 -3 -4 -4 -3 -3 -4 -1 -1 -2 -2 -10 -10 0 0 0 -1 -1 0 -10 -10 -1 -1 -12 -12 -1 -1 -10 -9 -2 -2 -2 -1 -9 -9 -1 -1 0 0 0 0 -11 -9 -2 -2 0 0 -12 -10c-99,116 -247,190 -412,190 -165,0 -313,-74 -412,-190z"/>
  <path class="fil3" d="M705 915c-256,208 -429,617 -429,1087 0,557 1630,488 1630,0 0,-470 -173,-879 -429,-1087 -93,110 -231,179 -386,179 -155,0 -293,-69 -386,-179z"/>
  <path class="fil4" d="M703 938c-122,104 -225,255 -297,438 -72,183 -114,397 -114,626 0,184 192,297 442,346 103,21 215,30 328,30 113,-1 227,-12 333,-32 275,-54 495,-172 495,-344 0,-229 -42,-443 -114,-626 -72,-183 -175,-334 -297,-438 -47,52 -104,95 -169,124 -66,31 -141,49 -219,49 -78,0 -153,-18 -219,-49 -65,-29 -122,-72 -169,-124zm-328 426c77,-194 187,-354 320,-462l12 -10 11 12c45,54 103,98 168,128 62,29 132,45 205,45 73,0 143,-16 205,-45 65,-30 122,-74 168,-128l11 -12 12 10c133,108 243,268 320,462 74,186 116,405 116,638 0,191 -231,320 -522,376 -107,21 -223,32 -339,33 -115,0 -229,-9 -334,-30 -265,-52 -469,-176 -469,-379 0,-233 42,-452 116,-638z"/>
  <path class="fil5" d="M1756 2157c0,0 -440,-112 -665,125l1 -1038c0,0 400,-250 946,-6l-282 919z"/>
  <path class="fil4" d="M1752 2173c-1,0 -431,-110 -649,121l-29 -12 1 -1038 0 -9 8 -5c2,-1 408,-254 961,-7l14 6 -4 14 -282 919 -5 15 -15 -4zm-644 70c211,-184 560,-122 637,-105l272 -890c-487,-212 -851,-27 -908,6l-1 989z"/>
  <path class="fil5" d="M426 2157c0,0 440,-112 665,125l-1 -1038c0,0 -400,-250 -946,-6l282 919z"/>
  <path class="fil4" d="M437 2138c77,-17 426,-79 637,105l-1 -989c-57,-33 -421,-218 -909,-6l273 890zm642 156c-218,-231 -648,-121 -649,-121l-16 4 -4 -15 -282 -919 -4 -14 13 -6c554,-247 960,6 961,7l8 5 0 9 2 1038 -29 12z"/>
  <g>
   <path class="fil4" d="M227 1418l0 0c48,-20 71,5 91,52l0 0c7,17 12,34 19,54 7,23 16,48 26,74l0 0c11,25 23,49 34,71 9,18 18,35 24,50l0 1c20,47 21,81 -27,101l0 0c-38,16 -82,6 -122,-22 -38,-26 -73,-70 -95,-124l0 0 0 0c-23,-55 -29,-110 -21,-155 9,-49 33,-86 71,-102zm13 31l0 0 0 0c23,-10 35,6 47,34l0 0c6,14 12,32 18,51 8,23 16,49 28,76l0 0c11,27 23,51 34,74 9,17 17,34 23,48l0 0c12,29 14,49 -8,58l0 0c-28,11 -60,4 -91,-18 -33,-23 -63,-61 -84,-110l0 0c-20,-48 -25,-97 -18,-137 6,-37 24,-65 51,-76l0 0zm-13 -31l0 0 0 0z"/>
  </g>
  <path class="fil3" d="M234 1433c-66,27 -84,133 -42,235 43,103 130,165 196,137 66,-27 3,-98 -40,-201 -43,-103 -49,-198 -114,-171z"/>
  <path class="fil4" d="M1954 1418c39,16 63,54 72,102 8,45 2,100 -21,155l0 0 0 0c-22,54 -57,98 -95,124 -40,28 -84,38 -123,22 -47,-20 -46,-54 -26,-101l0 -1c6,-15 15,-32 24,-50 11,-22 23,-46 34,-71l0 0c10,-26 18,-51 26,-74 7,-20 12,-38 19,-54 20,-47 43,-72 90,-52l0 0zm39 107c-6,-37 -24,-65 -51,-76l0 0c-23,-10 -36,6 -47,34 -6,14 -12,32 -18,51 -8,23 -17,49 -28,76l0 0c-11,27 -23,52 -34,74 -9,17 -18,34 -24,48l0 0c-11,29 -13,49 9,58 27,11 60,4 91,-18 33,-23 63,-61 83,-110l1 0c19,-48 25,-97 18,-137z"/>
  <path class="fil3" d="M1948 1433c66,27 84,133 42,235 -43,103 -131,165 -196,137 -66,-27 -3,-98 40,-201 42,-103 48,-198 114,-171z"/>
  <circle class="fil3" cx="1091" cy="559" r="465"/>
  <path class="fil4" d="M1091 111c-248,0 -448,200 -448,448 0,124 50,236 131,317 81,81 193,131 317,131 247,0 448,-201 448,-448 0,-248 -201,-448 -448,-448zm-482 448c0,-266 216,-482 482,-482 266,0 481,216 481,482 0,266 -215,481 -481,481 -133,0 -253,-54 -341,-141 -87,-87 -141,-207 -141,-340z"/>
 </g>
</svg>
