<?xml version="1.0" encoding="iso-8859-1"?>
<!-- Generator: Adobe Illustrator 18.1.1, SVG Export Plug-In . SVG Version: 6.00 Build 0)  -->
<svg xmlns="http://www.w3.org/2000/svg" xmlns:xlink="http://www.w3.org/1999/xlink" version="1.1" id="Capa_1" x="0px" y="0px" viewBox="0 0 26.497 26.497" style="enable-background:new 0 0 26.497 26.497;" xml:space="preserve" width="512px" height="512px">
<g>
	<g>
		<path d="M11.959,18.301c0.095-0.236,0.419-0.796,1.364-0.796h2.208v-5.417    c-0.032-0.298,0.025-0.67,0.273-0.992c0.205-0.269,0.605-0.584,1.351-0.584h1.339V3.339c0-0.506-0.408-0.915-0.913-0.915    L1.998,2.416c0-0.627,0.944-0.946,0.944-0.946h15.552c0.973,0,0.945,0.857,0.945,0.857v8.184h1.441V0.858    C20.881,0.173,20.022,0,20.022,0H2.771C0.197,0,0.197,2.384,0.197,2.384v21.958c0,0.505,0.409,0.915,0.916,0.915h15.724    l-4.332-5.233C12.206,19.724,11.661,19.051,11.959,18.301z M4.694,5.822h9.446V7.61H4.694V5.822z" fill="#7DCD2E"/>
		<path d="M26.253,18.803c-0.081-0.175-0.257-0.286-0.449-0.286h-2.969c0,0,0-3.664,0-5.889    c0-0.476-0.386-0.862-0.861-0.862h-4.251c-0.475,0-0.861,0.386-0.861,0.862c0,2.225,0,5.889,0,5.889h-2.968    c-0.193,0-0.369,0.111-0.451,0.286s-0.055,0.382,0.069,0.529l5.77,6.904c0.302,0.346,0.829,0.349,1.134,0l5.77-6.904    C26.308,19.185,26.335,18.978,26.253,18.803z" fill="#7DCD2E"/>
	</g>
</g>
<g>
</g>
<g>
</g>
<g>
</g>
<g>
</g>
<g>
</g>
<g>
</g>
<g>
</g>
<g>
</g>
<g>
</g>
<g>
</g>
<g>
</g>
<g>
</g>
<g>
</g>
<g>
</g>
<g>
</g>
</svg>
