<?xml version="1.0" encoding="UTF-8"?>
<!DOCTYPE svg PUBLIC "-//W3C//DTD SVG 1.1//EN" "http://www.w3.org/Graphics/SVG/1.1/DTD/svg11.dtd">
<!-- Creator: CorelDRAW X7 -->
<svg xmlns="http://www.w3.org/2000/svg" xml:space="preserve" width="141.036mm" height="100.753mm" version="1.1" style="shape-rendering:geometricPrecision; text-rendering:geometricPrecision; image-rendering:optimizeQuality; fill-rule:evenodd; clip-rule:evenodd"
viewBox="0 0 14114829 10083323"
 xmlns:xlink="http://www.w3.org/1999/xlink">
 <defs>
  <style type="text/css">
   <![CDATA[
    .str1 {stroke:#8CC8E3;stroke-width:84727.2;stroke-linecap:round;stroke-linejoin:round}
    .str0 {stroke:#A7FFFF;stroke-width:42363.6;stroke-linecap:round;stroke-linejoin:round}
    .fil1 {fill:none}
    .fil2 {fill:white}
    .fil0 {fill:#E6FFFF;fill-opacity:0.200000}
   ]]>
  </style>
 </defs>
 <g id="Layer_x0020_1">
  <metadata id="CorelCorpID_0Corel-Layer"/>
  <g>
   <path class="fil0" d="M11815446 537606c239550,-249247 584734,-405661 968498,-405661 723323,0 1309698,555730 1309698,1241264 0,455681 -259105,853926 -645261,1069818 0,114310 0,228621 0,342911 386156,215912 645261,614157 645261,1069818 0,455682 -259105,853927 -645261,1069809 0,114320 0,228631 0,342941 386156,215891 645261,614137 645261,1069818 0,455662 -259105,853907 -645261,1069808 0,114301 0,228612 0,342922 386156,215891 645261,614137 645261,1069818 0,685534 -586375,1241264 -1309698,1241264 -383764,0 -728948,-156404 -968498,-405661 -425587,249257 -1038833,405661 -1720604,405661 -2164055,0 -4002022,0 -6269920,0 -617750,0 -1179185,-128462 -1595785,-337998 -234496,209536 -550526,337998 -898252,337998 -723313,0 -1309698,-555730 -1309698,-1241264 0,-455681 259115,-853917 645251,-1069808 0,-114320 0,-228631 0,-342932 -386136,-215911 -645251,-614146 -645251,-1069808 0,-455681 259115,-853916 645251,-1069808 0,-114310 0,-228641 0,-342951 -386136,-215892 -645251,-614127 -645251,-1069809 0,-455661 259115,-853896 645251,-1069808 0,-114300 0,-228611 0,-342931 -386136,-215892 -645251,-614127 -645251,-1069808 0,-685534 586385,-1241264 1309698,-1241264 347726,0 663756,128461 898252,337988 2914480,-600527 6993944,-618701 9586309,67673z"/>
   <path id="1" class="fil1 str0" d="M11815446 537606c239550,-249247 584734,-405661 968498,-405661 723323,0 1309698,555730 1309698,1241264 0,455681 -259105,853926 -645261,1069818 0,114310 0,228621 0,342911 386156,215912 645261,614157 645261,1069818 0,455682 -259105,853927 -645261,1069809 0,114320 0,228631 0,342941 386156,215891 645261,614137 645261,1069818 0,455662 -259105,853907 -645261,1069808 0,114301 0,228612 0,342922 386156,215891 645261,614137 645261,1069818 0,685534 -586375,1241264 -1309698,1241264 -383764,0 -728948,-156404 -968498,-405661 -425587,249257 -1038833,405661 -1720604,405661 -2164055,0 -4002022,0 -6269920,0 -617750,0 -1179185,-128462 -1595785,-337998 -234496,209536 -550526,337998 -898252,337998 -723313,0 -1309698,-555730 -1309698,-1241264 0,-455681 259115,-853917 645251,-1069808 0,-114320 0,-228631 0,-342932 -386136,-215911 -645251,-614146 -645251,-1069808 0,-455681 259115,-853916 645251,-1069808 0,-114310 0,-228641 0,-342951 -386136,-215892 -645251,-614127 -645251,-1069809 0,-455661 259115,-853896 645251,-1069808 0,-114300 0,-228611 0,-342931 -386136,-215892 -645251,-614127 -645251,-1069808 0,-685534 586385,-1241264 1309698,-1241264 347726,0 663756,128461 898252,337988 2914480,-600527 6993944,-618701 9586309,67673z"/>
  </g>
  <path class="fil2 str1" d="M11693049 623925c233375,-244454 569682,-397876 943568,-397876 704709,0 1276012,545082 1276012,1217455 0,446945 -252441,837554 -628669,1049302 0,112119 0,224238 0,336347 376228,211758 628669,602367 628669,1049291 0,446935 -252441,837554 -628669,1049292 0,112119 0,224238 0,336367 376228,211738 628669,602357 628669,1049282 0,446934 -252441,837544 -628669,1049301 0,112109 0,224218 0,336347 376228,211748 628669,602358 628669,1049292 0,672383 -571303,1217465 -1276012,1217465 -373886,0 -710193,-153422 -943568,-397875 -414649,244453 -1012122,397875 -1676349,397875 -2205098,0 -3868927,0 -6108612,0 -601867,0 -1148851,-126010 -1554742,-331523 -228452,205513 -536356,331523 -875134,331523 -704709,0 -1276002,-545082 -1276002,-1217465 0,-446934 252430,-837534 628649,-1049282 0,-112139 0,-224248 0,-336367 -376219,-211757 -628649,-602357 -628649,-1049291 0,-446925 252430,-837534 628649,-1049272 0,-112129 0,-224268 0,-336387 -376219,-211738 -628649,-602347 -628649,-1049282 0,-446924 252430,-837523 628649,-1049281 0,-112119 0,-224238 0,-336367 -376219,-211748 -628649,-602347 -628649,-1049292 0,-672373 571293,-1217455 1276002,-1217455 338778,0 646682,126000 875134,331513 1102473,-558203 8278032,-559544 9339703,66363z"/>
 </g>
</svg>
