<?xml version="1.0" encoding="UTF-8"?>
<!DOCTYPE svg PUBLIC "-//W3C//DTD SVG 1.1//EN" "http://www.w3.org/Graphics/SVG/1.1/DTD/svg11.dtd">
<!-- Creator: CorelDRAW X7 -->
<svg xmlns="http://www.w3.org/2000/svg" xml:space="preserve" width="55.2354mm" height="27.4324mm" version="1.1" style="shape-rendering:geometricPrecision; text-rendering:geometricPrecision; image-rendering:optimizeQuality; fill-rule:evenodd; clip-rule:evenodd"
viewBox="0 0 2670051 1326068"
 xmlns:xlink="http://www.w3.org/1999/xlink">
 <defs>
  <style type="text/css">
   <![CDATA[
    .str0 {stroke:#4D4D4D;stroke-width:12273.4}
    .fil1 {fill:url(#id0)}
    .fil0 {fill:url(#id1)}
   ]]>
  </style>
  <linearGradient id="id0" gradientUnits="userSpaceOnUse" x1="2.5261e+006" y1="663034" x2="143955" y2="663034">
   <stop offset="0" style="stop-opacity:1; stop-color:gray"/>
   <stop offset="1" style="stop-opacity:1; stop-color:#E6E6E6"/>
  </linearGradient>
  <linearGradient id="id1" gradientUnits="userSpaceOnUse" xlink:href="#id0" x1="6139.11" y1="663034" x2="2.66391e+006" y2="663034">
  </linearGradient>
 </defs>
 <g id="Layer_x0020_1">
  <metadata id="CorelCorpID_0Corel-Layer"/>
  <path class="fil0 str0" d="M2028827 6139l-1387613 0c-349297,0 -635075,285788 -635075,635084l0 43622c0,349296 285778,635084 635075,635084l1387613 0c349297,0 635085,-285788 635085,-635084l0 -43622c0,-349296 -285788,-635084 -635085,-635084zm-98114 1158079l-1191375 0c-266496,0 -484541,-218035 -484541,-484541l0 -33291c0,-266501 218045,-484536 484541,-484536l1191375 0c266500,0 484540,218035 484540,484536l0 33291c0,266506 -218040,484541 -484540,484541z"/>
  <path class="fil1" d="M1956879 1251804l-1243702 0c-313071,0 -569222,-256146 -569222,-569221l0 -39097c0,-313076 256151,-569222 569222,-569222l1243702 0c313071,0 569217,256146 569217,569222l0 39097c0,313075 -256146,569221 -569217,569221zm-26166 -87586l-1191375 0c-266496,0 -484541,-218035 -484541,-484541l0 -33291c0,-266501 218045,-484536 484541,-484536l1191375 0c266500,0 484540,218035 484540,484536l0 33291c0,266506 -218040,484541 -484540,484541z"/>
 </g>
</svg>
