<?xml version="1.0" encoding="UTF-8"?>
<!DOCTYPE svg PUBLIC "-//W3C//DTD SVG 1.1//EN" "http://www.w3.org/Graphics/SVG/1.1/DTD/svg11.dtd">
<!-- Creator: CorelDRAW X7 -->
<svg xmlns="http://www.w3.org/2000/svg" xml:space="preserve" width="64.0919mm" height="55.8685mm" version="1.1" style="shape-rendering:geometricPrecision; text-rendering:geometricPrecision; image-rendering:optimizeQuality; fill-rule:evenodd; clip-rule:evenodd"
viewBox="0 0 4365252 3805162"
 xmlns:xlink="http://www.w3.org/1999/xlink">
 <defs>
  <style type="text/css">
   <![CDATA[
    .fil2 {fill:#856242;fill-rule:nonzero}
    .fil1 {fill:#95775B;fill-rule:nonzero}
    .fil0 {fill:#C89564;fill-rule:nonzero}
    .fil3 {fill:black;fill-rule:nonzero}
   ]]>
  </style>
 </defs>
 <g id="__x0023_Layer_x0020_1">
  <metadata id="CorelCorpID_0Corel-Layer"/>
  <g id="_1824508128">
   <path class="fil0" d="M528576 1754420c-443,-1506 -150,-2371 -212,-3522 5265,-878 10169,-647 15686,-2540l-7172 4992c39830,-6647 105998,-62497 102457,-87731 -14576,-13649 -7574,-82569 -25357,-88508 91191,-105706 -18771,21686 26092,-30343l-797 -443 -1743 -1158 -7213 -4461 -14242 -8895 -7069 -4488 -3542 -2221 -1655 -1096c61,-143 61,-293 61,-436 13295,-17702 26297,-35029 0,-68 647,-3896 -3691,-10339 2806,-13738 -1001,-3460 -23341,5790 -24642,-6940 -4107,-12709 -16673,-23906 3985,-30915 -14446,-3399 -9965,2016 -28756,-14657 4761,16108 2895,20365 -2030,25418 -1157,-3964 -2751,-8077 -5053,-12709 -3167,0 -5790,-797 -8371,-1512 -4195,-6000 -7090,-10189 -10925,-9624 586,-2601 647,-5121 647,-7655l7806 -10823c-3610,566 -6505,123 -9318,-504 -211,-817 -504,-1593 -796,-2247 2540,-82 5346,361 7655,-82 -4550,-647 -6859,-1219 -8364,-1948 -381,-1008 -654,-1955 -1028,-3044 293,-212 647,-504 940,-777 150,-8091 231,-14534 293,-19881 12647,-5347 22694,-11408 19152,-25357l-28402 -6293c-5053,-6859 -1593,-10966 10762,-15454 292,-20454 -30350,-14896 -47902,-17995 -1008,-5142 -2309,-10175 -4052,-15168 19799,-1532 20303,-9038 22782,-19145 205,4175 -2329,3398 -5435,1362l797 5496c-1239,-2097 -2391,-5142 -3691,-7594 -4972,-4175 -10026,-9964 -11116,-10972 1655,-647 3106,-2098 4822,-1948 -1280,-3126 -2302,-6355 -3521,-9692 4196,-6729 5708,-12641 5054,-18138 1219,-504 2751,-946 3691,-1723 -1675,211 -2683,0 -3984,0 -2813,-15685 -17198,-29130 -858,-55134 -26890,4611 -15250,-8391 -19153,-15754 0,-1090 -143,-2098 -211,-3187 25929,0 -9624,-19446 8078,-33074l-9815 2574c355,-6858 2309,-13274 3106,-19922 -3841,-12225 -7008,-24499 -11265,-36574 -3126,-9025 -2036,-16762 797,-23260 -37147,-30560 -57675,-72257 -56524,-123053 1028,-44066 14827,-94740 -7574,-135047 -66188,-13799 -136048,-28463 -176805,-36915 -3984,6648 -8888,12771 -13295,19152 -10992,50354 -41335,96014 -67578,141838l1158 1805c-633,5265 -3398,7151 -6565,7655l-1158 2098c-5640,10257 -13506,15311 -22040,17116 -11559,64091 -19800,114451 -9543,230352 5701,354 9692,3399 12880,7445 3542,12852 8595,25500 15808,36343 -797,23348 -35403,-1383 -20589,23259 -12212,-2956 -25214,2459 -36977,5857 14364,1151 7002,45886 33578,22395 1172,25296 7295,53193 16544,79408 -1301,5871 -2009,12226 -2602,18499 -8153,-354 -18349,3691 -22817,12580 7949,3759 15461,8663 22524,13948 1533,22401 6654,43502 13826,56504 -150,-82 -381,0 -524,0 -3460,-1805 -4972,-1444 -2370,858 -1955,1158 -4346,2963 -7383,6000 -30268,1744 -55857,-35049 -41111,-57089 -36554,-14303 2602,21475 -26297,28606 11844,17722 30642,19677 49788,45892 13949,-6709 11054,-16966 28817,-9964 3691,797 5850,2016 8241,3106 6293,7362 11265,13151 3610,16189 1886,2016 1886,3610 2098,5353 -5619,10108 -16551,20154 -15393,23757l-13867 -8384c-858,20828 22047,20024 27959,33033 -35172,23320 -15958,-19507 -43774,-17198l-18642 27598c15161,34960 26951,-17279 42698,25507l-15686 3460 24057 18076c12879,-8684 28251,-26678 13090,-42929 7233,-1662 11913,-2098 15604,-1955 3964,5054 8303,10114 13145,14896 1662,6790 4489,15242 14392,23695 3398,-858 5346,-1594 6708,-2391 2956,3549 5415,7240 7595,11054 -11490,232 -17137,7302 -20951,15604 416,-272 504,-565 1444,-1212 926,797 2016,1505 3024,2390 -2813,355 -4556,416 -5060,0 -5136,11409 -8514,23464 -22545,19711 7595,27687 26386,8241 40689,11347 -2037,-4195 4992,-8302 11558,-13084 9815,6144 20303,11347 31501,14971 -7445,16380 -17259,34879 -3835,40314 5783,-8746 13166,-13867 21032,-17559 9692,8017 18145,10114 30935,9168 -939,293 -1968,797 -2976,-355 2329,-14806 17198,-17490 28190,-14241 -1743,797 -2390,1737 -4849,2602l5708 6586 -31712 13063c-2833,22129 -11640,41635 -17994,52683 14745,-1506 17279,-18996 29756,-15454 -13213,6204 -17844,18205 -14446,20807 1029,-6150 8242,-12212 16755,-16339l6525 -2602 3249 -1151 1955 -504c6770,-6294 15604,-14596 27223,-25568 1526,2451 2391,4699 4127,7212 -4631,10115 -3310,18206 716,24499 3037,4468 6375,8391 9603,11197 -77515,130859 -150923,254852 -64070,108246l211 150 497 273 1028 374 1867 1008 3759 1805 30786 14889 15460 7424 1799 947c79701,-103104 -135340,175442 81213,-104909 24642,-4618 64888,4972 89448,4195 -31058,-32740 46335,-25507 13595,-57388zm-210199 -777018l0 0 -205 0 -946 211 -797 143c-354,-858 -273,-1655 -654,-2513 -920,1069 -2091,2009 -3310,3167l-1655 293c-797,143 -1322,204 -2098,354 -3187,-4196 -5496,-8160 -7008,-11912 2956,1362 6415,2581 8431,3902 443,-4992 1594,-11435 3045,-18498 2595,3099 5701,5408 10632,4550l-6648 -22402c14739,-59187 46308,-139746 43767,-33094 -5912,2241 -9310,-2452 -14446,-5346 16926,35484 -21958,61557 -12859,90394 -13295,-8098 -20596,-12505 -15249,-9249zm121691 764247l0 0c-1887,-1301 -3903,-2391 -5347,2520l647 2302 -28252 14535c-81,0 -231,0 -293,0 7091,-1002 6587,-15958 12083,-26386 7424,1451 14950,3256 22374,5497 -416,442 -797,946 -1212,1532z"/>
   <path class="fil0" d="M479516 1314318c-858,-3610 -2159,-7594 -3248,-11327 796,-735 1866,-585 2663,-1089 -1301,6000 28898,20214 12879,22462 -8895,1948 -11286,2602 -14030,-654 647,-3398 1089,-5993 1736,-9392z"/>
   <path class="fil0" d="M146271 1304142c-292,273 -946,130 -1219,273 211,-1212 715,-1655 927,-2452 143,797 231,1532 292,2179z"/>
   <path class="fil0" d="M555608 1582818c0,1744 150,3106 654,4114 -1533,1968 -2983,3916 -4488,5932 -1662,586 -3045,1008 -4700,1512 3399,-1661 5932,-5264 7655,-11265 375,-61 586,-293 879,-293z"/>
   <path class="fil0" d="M518529 1601398c-1723,423 -3460,865 -5203,1220 -354,-504 -797,-927 -1151,-1512 504,-586 647,-1008 1090,-1594 1804,947 3459,1362 5264,1886z"/>
   <path class="fil0" d="M278717 962445c-82,-143 -82,-293 -143,-375 504,-129 1089,293 1655,144 -130,381 81,653 -293,1028 -422,-293 -654,-586 -1219,-797z"/>
   <path class="fil0" d="M217521 1015339c-150,0 -300,-143 -361,-143 61,0 211,143 361,143z"/>
   <path class="fil0" d="M202857 1014310l-11722 -9099c5496,2895 9120,6000 11722,9099z"/>
   <path class="fil0" d="M183772 994892c3481,2078 9543,5769 17995,11054 -8160,-5074 -14160,-8745 -17995,-11054z"/>
   <path class="fil0" d="M602420 1525600c-5701,7655 -9393,12505 -11552,15379 0,0 0,0 -88,0 2751,-3528 7090,-9318 11558,-15311l82 -68z"/>
   <path class="fil0" d="M588975 1511862c12001,1744 1301,12798 6443,14896 3834,292 5558,-293 6859,-1090 -3256,4257 -7152,9453 -11497,15181 -1151,-231 -2371,-442 -3460,-1151 -2895,-1471 -3542,-2751 -5136,-4134 5136,-5054 5429,-7151 -3024,-3753 -231,143 -436,354 -647,504 -3044,-6565 7656,-12062 10462,-20453z"/>
   <path class="fil0" d="M547428 1475812c-1948,-2159 -3249,-4114 -4611,-6062 1001,947 2391,2520 4611,6062z"/>
   <path class="fil0" d="M351621 1722122c2016,879 4046,2248 6211,3985 586,653 1090,1362 1676,2097 -443,8875 -4843,5265 -9542,4972 354,-2813 211,-6061 -150,-9460 586,-436 1158,-1090 1805,-1594z"/>
   <path class="fil0" d="M347214 1747792l4850 6628 1573 1804c-17409,-2806 -12859,-5557 -6423,-8432z"/>
   <path class="fil0" d="M353930 1756313c4842,-4638 10046,-9549 15542,-14746 940,1151 1737,2391 2663,3481 -2458,4175 -4972,8370 -7424,12559 -4195,-354 -7887,-858 -10781,-1294z"/>
   <path class="fil0" d="M427338 1762164c1887,-2752 3896,-5708 6082,-8814l-504 1451 -654 7070 443 497c-2037,0 -3480,-143 -5367,-204z"/>
   <path class="fil0" d="M523726 1751613c0,62 0,62 150,62l1444 2241c2895,3841 1955,2690 -1594,-2303z"/>
   <path class="fil1" d="M3195591 415753c-137145,82807 -113361,277456 -124790,413389 443,16904 -36200,-9188 -32720,29021 39306,53840 -30138,204852 74355,194677 91022,-3774 190522,-2827 273990,7716 -4631,3842 -2241,7009 -12518,11347 39033,5204 69001,-30846 104718,-28040 572,6947 -10046,10489 -1798,19656 7063,-21461 59520,-12920 73108,-29260 13445,7445 12709,24138 29703,32448l18498 -24649c52662,-57362 132656,-2302 203899,-29341 -3542,5578 -10905,9841 -4993,15331 49938,-7444 157598,-60549 119948,-98050 -61408,-37794 -98194,-106584 -125001,-166125 9903,2179 25949,817 31943,-9672 -27244,4196 -47479,-32740 -56081,-74348 26154,-17497 -21455,-65610 6858,-110262l3985 5353c-11266,-41989 32365,-39959 17640,-80498l30915 -4992c-16258,-33749 43140,-27394 53459,-52751l-5265 -5490c16762,-21897 38087,-14010 54698,-32215l3903 2663c47609,-29996 81295,-22320 74791,-49414 23552,14869 -48487,30200 -8745,49999 92199,-39013 117849,-84898 209817,-161997 69083,69737 -44298,106352 -73469,75213 -38530,-10258 -82596,-19425 -124586,-25003 -17470,-14365 -29321,-19800 -32359,-31208 -16843,4611 -66127,-8895 -78986,10761 5789,-1158 -11830,-13717 -20950,-14371 -31862,-8180 -31923,33810 -67619,23913 14010,-8663 17552,-18144 12627,-28313 -27877,26951 -67115,19146 -95932,39007 3311,-6498 10108,-12355 6627,-20508 -25922,39006 -66822,18853 -87860,50122l2036 -21162c-55203,13595 4972,38298 -38237,53547 5790,-10257 -1089,-13363 -3310,-19949 -18083,45307 -75294,85491 -99943,120240l-3460 -6286c-26236,36636 -67932,61114 -84183,113293 -16612,11347 -29975,-27183 -52962,17116 28694,16339 -35907,76302 12205,72046 -24642,32215 -84455,84101 -96599,109690 4407,-22906 -43352,-12648 -21162,-40335l-32386 5204c-7069,-12124 21332,-15958 3399,-21666 -7574,10550 -40900,64098 -40900,56354 13234,38863 -49849,-29192 -41104,-70595 11055,24138 37290,-15958 41758,585 -18920,-22401 -39455,-49849 -58955,-78836 -361,-19718 25793,-1219 19207,-29703 -8929,89 -11259,-13002 -16020,-23191 26066,-3167 -34333,-89870 77373,-30560 -3025,-1512 -55503,-33388 -22967,-20597 36997,1594 13084,19507 17845,39538l-4339 143c-8452,26719 204,66257 22394,51368 3842,-12416 -20507,2159 -5993,-19214 14807,27455 11640,42616 9331,73259 -4134,-12730 -13023,-11259 -21836,-16251 22694,49999 24417,104970 25882,151366 15106,3187 -24785,-22320 -15475,-28020 -33455,71242 -1743,134665 -40818,170804 -4924,4699 20011,7363 16319,5558 7949,-33095 -50857,-28695 -29764,-31862 -4903,9903 2459,715 18295,-1526 8071,-7655 1716,6880 -9774,5871 4488,-6020 131941,-13948 188526,22674 2159,-5769 29553,-30772 47970,-30206l-6294 20453c12376,11783 46689,-3024 48787,14303 30704,-25419 -116405,23995 -75152,3984 9985,16612 57805,-33891 48051,-6000 28313,-1737 55557,-24431 81650,-7152 -8303,-2894 -22967,29471 1151,26740 42411,-5932 11708,-10421 45953,-18934l21312 -9543c524,-19799 38236,648 21331,-20596 5994,16108 61557,-13363 58595,19650l-4904 26154c18348,-2875 29048,-28817 42997,-40879l6859 11326c1294,-39599 44148,1029 64656,-30704 43712,12063 88092,-4842 127603,20597 -2956,-5708 23259,-13949 42493,-16612 -586,4407 87357,-36282 136641,114308 -8977,-73640 -58097,-82658 -71685,-86499 42636,30349 71242,67639 37855,144446 -25003,38298 -48051,42555 -71392,53752 6225,-5136 -51954,-18056 -81922,-33156 -30935,11327 -20303,32863 -23280,45865 -29471,-39299 -92976,23852 -120601,-13002 9631,-4972 41635,-17613 18587,-28313 -25003,-39810 -52900,26951 -93711,6566l10672 32801c-18559,-19942 -77665,12859 -69001,-19295 -20154,10196 -57716,-16905 -55407,14977 -27455,-18880 -80560,-22047 -97907,-16694 -14807,859 8098,-946 -37583,293 10189,2159 24220,-3841 30200,-14180l3337 -7948 354 -2017 150 -204 -68 -170 68 0c-5203,25023 45300,-218563 23845,-115520l-565 -1362 -1321 -3045 -7424 -11640c-11872,-15522 -32529,-23995 -46124,-23109 -5203,3099 1744,9017 2541,16101 2240,-4257 28544,-1737 21454,-17130 -14807,-16550 -19568,14174 -20869,1594 2452,-504 5497,-9542 5619,-13867 16190,6062 36643,6647 17722,34525 48828,15392 40314,-60972 96818,-57723 61,13363 5265,17409 21304,12416 11933,-10025 10339,-16169 32679,-29171 31712,-4992 24622,23198 30118,44503 17409,-9542 40314,-15332 42848,-33238l32154 19377c-23913,-13737 10046,-16843 16339,-24015l-6381 7322c7383,8868 26385,-5646 35702,-13888 -8956,-11347 -32658,-4195 -45517,-6354 4849,-10189 19868,-15250 26515,-31147 -361,11851 19527,7595 14534,10258l-2833 5285 232 3610 647 1805 150 436 122 61 0 88c6443,49707 -14214,-111351 14330,111557l62 0 143 354 654 1389c10461,10550 9460,30050 16107,30976 9897,-10761 -37562,-6715 -13799,-19779 8596,-3398 23989,15100 8453,1948 16482,-5053 13233,-27243 -20596,-16271 -32427,5721 -13282,40396 -36057,25500l16986 -20869 -22687 -12852 -3167 19500c-2622,-5347 -382,-6729 -1451,-9542 -17429,19445 -46478,9106 -53902,32154 -13022,2745 -29280,-12498 -43583,-14575l2391 -1826c-36411,-9249 -54338,-1069 -74852,13384l647 -4284c-11933,-1090 -39531,3398 -53834,15753 -30622,-13506 -13717,-74055 -45449,-47547 -29975,2098 -45599,38448 -32951,50442 -27516,-5285 -56422,879 -84898,4781l-42119 2582 -1301 -130 -647 68 -82 -68c13145,47255 -115023,-411577 -60760,-217343l293 -89 272 -122 2684 -879 5496 -1512 11136 -2391 23321 -946c3984,-10612 -3249,-12852 10699,-24411 69506,-21897 168285,-105290 246897,-72550 -22041,12355 2744,19507 5557,30500 15754,-20808 27033,13860 27898,-17137 -5415,-17115 -5061,-26072 -30057,-28898 47901,-17116 109901,-30915 150569,-22551 -15876,-5115 -5414,-12852 5578,-20658l1805 9481 205 504c-42344,-214456 57661,292052 47342,239806l62 -82 -150 -61 -211 -293 -647 -1008 -1512 -1744 -3624 -3099 -20303 -7594c-15897,-2452 -35322,-272 -52519,5136l-3753 17408 -23934 -17470c-1804,5476 -8895,36766 -37793,21080l-9018 -18205c-46096,15835 -57089,40606 -95809,22482l-27598 -27100c-14453,1805 -40920,15168 -14977,24267 -78755,-21665 -68770,-22251 -84749,-43474 -13009,12205 -34109,24410 -89454,31126l-36119 2745 -18498 231 -1151 0 -293 0 -150 0c12294,48324 -107803,-421610 -56858,-222697l504 -585 2241 -2098 4557 -4175 9603 -8180c22108,-20515 70452,-44864 67912,-44210 59902,-31296 83747,-40688 150651,-63655l1450 13295c35043,-231 7887,-27244 32945,-26889 -5640,15249 32011,16904 13233,40021 45518,-1805 50360,-43331 73477,-55053 -361,-17559 -17498,16040 -18002,-6212 2834,-7151 56735,-1512 56654,-28394 12082,7233 8888,27747 6143,39449l20596 -18710c35404,21665 -52600,70302 -13798,98261l20235 -9814c26576,20807 -48698,45006 6504,39448 19861,-18580 31439,-60549 8160,-66045 46811,-20154 8806,-66189 62143,-78401 17551,10911 -41547,15039 -26801,33013 33952,13234 36704,-23968 81499,-24622 -61428,859 2895,-36724 4761,-42193 21454,8364 -10339,26801 19152,24056 2806,-15835 25439,-30792 1887,-37440 2513,-34667 29968,4632 37794,-22319 16816,21250 -14453,56864 21597,63593l-647 -14888 3610 -7090 293 -443 143 -211 0 -62c24771,108873 -55577,-243790 55563,244213l0 89 -149 0 -1090 919 -2159 1887 -4278 3548c-11326,9815 -20957,20869 -6354,36997 -19868,-5435 -23198,-23348 -11054,-38025 -26951,-12709 -62354,45027 -73197,-62l-8453 23845c-8520,-7212 -21665,-12416 -31275,-24498 -18792,504 -56225,34313 -57526,-1008 -14514,4699 -32808,2663 -28462,27604 26658,13860 27666,-18941 44298,13445 -16408,-26093 -43794,4761 -40757,14514l-5196 -12920c-9045,7213 -32529,8868 -36139,24771 6293,-9317 647,-17702 -7806,-19363l-6790 22612c-38659,18349 -15904,-34102 -54174,-20222l27073 -21979c-1805,3903 -32004,-9814 -31126,-3541 -1532,20174 -6518,45027 -7233,60488 -14888,12498 -14241,-18295 -25507,4692l15965 -27747c7002,-7152 -36261,-25732 -38863,-19064 -3045,10529 10550,29321 18771,40225 729,-770 -11265,-12770 -17770,-21890l-436 293 0 81c141402,210615 -192769,-286855 -158374,-235637l150 -62 0 -81 122 0 1158 -797 3480 -3024 3106 -4924 -3610 -7152c-4338,-4468 -9542,-9249 2956,-20576 18063,6205 64159,7152 94087,14950l-17491 41254 20154 -7798c-15393,33516 21100,12498 17497,42847 15100,-1532 27659,-16339 38066,-28041 -56926,-23613 22626,-72189 -2956,-104193 30997,-24649 67135,73905 90899,-5708 -12941,-5053 -504,-44359 -27605,-18267 33163,-11728 4843,-46396 48637,-49937 -20678,28163 46015,21536 16169,62354 -2806,-13091 -26154,2036 -30704,8302 19085,7383 13738,37290 45892,21393 17995,-13151 44571,-27182 32066,-43794 -10107,-20004 -28817,17055 -25772,-9814 35757,-26386 56564,1369 56122,-42848 -23341,15100 -39156,-2833 -45075,-17136l24628 -22694 729 16339c46165,-10693 715,-30411 49563,-48759l35049 16400c-1008,28463 -75444,22102 -49059,55557 31794,-12791 33598,-36643 67408,-40395l-18560 17640c11912,-4046 44571,41404 75922,-8180 21331,-20365 1450,-16026 -3815,-30561 57301,-23845 71018,-44652 109901,-59166 2895,29621 64153,-13738 33742,25657 -24138,-12648 -110841,17402 -120887,50918 32236,26031 -45742,10632 -40103,50026 39245,-17429 51886,17109 66699,36323 11783,-2159 19500,-14868 25351,-20514 -2010,-22190 -17341,-16837 -25855,-37644 47902,-9107 100210,-39245 116106,-63363 16190,7213 16694,29403 -61,35465l77161 -21516 39449 -6797 19356 -2602 1301 -143 504 -88 443 0 61 -62c77332,269216 21332,74648 38673,134754l-143 0 -150 0 -2745 89 -5558 61 -10924 0c45177,30350 -62062,15393 -31065,41397 32658,4345 66842,25446 52390,43059 -21101,381 -2827,-15243 -13023,-21598 -22312,22190 -45572,-25718 -65603,7152 56020,-17770 3692,-43774 9624,-72319 -36282,19650 -1675,-19588 -39449,-15685 -34334,19356 -87227,36200 -119089,46682 -47547,-23845 -117195,18859 -158456,30499 -32733,-8977 -18853,-42997 -47186,-44802 -30976,4325 29130,30479 -19799,21958l3480 -6647c-13506,8806 -86199,-10611 -97103,34960l12266 -35103c-8806,-1894 -15958,5851 -22612,9835 -940,-11075 -11136,-20596 1955,-28483 -28695,-22252 -57451,6143 -87208,8391l20447 19206c-50231,16340 -83243,2398 -132153,16551l-735 -19799 -27659 15985c4822,-20031 -23491,-28340 -36793,-10278l70241 -58873c22463,8452 -20528,26930 -5054,44359 13152,15250 57655,3460 63151,-16550 -17551,361 -17994,4760 -30724,13717 -8513,-26365 17933,-29171 29423,-49264 -9099,2452 -23048,-3902 -24199,4993 15604,-15904 36405,-21482 66461,-22633 -19881,11640 12144,16483 4911,24642 879,-24199 29423,-32801 67197,-27659 29552,28020 66195,-23934 105937,-20596 -12437,26065 -31794,48112 -57028,61114 27829,8956 29491,-4257 57886,4700 10550,-19568 15393,-48263 45892,-62947l5558 17497c26508,-14453 22544,-41846 64240,-46225 69506,-8330 158014,-12648 201658,-16571l3549 17722c12205,-20678 34163,-26447 58008,-29696l35553 -4345 16190 -3542 3753 -1158 858 -354 231 -82 150 -150 0 150c16047,55496 -35696,-124354 35758,124436l-82 61 -422 211 -1948 1090 -7152 4488c-71099,143 -151243,51089 -183541,31208 -99262,40035 -186912,105937 -301363,153103l7799 -33013c-11933,27312 -19295,-7376 -37229,5858 31235,7859 -15746,38066 -22816,59459 -67136,10775 -114894,49141 -151809,84605l-9474 -15665 -12416 15454 -7302 6144 -3902 2663 -1948 1239 -504 293 -293 211 -89 0c-48255,-71814 108035,160847 -108218,-161058l211 -143 1444 -1219c16550,-12729 36561,-23634 57511,-32318 49645,-22380 65542,-9378 113654,-21080 8098,5980 21979,20433 39599,14869 31078,-34668 37937,-37998 97546,-62920 37351,-2097 108682,2098 137649,11913l45238 -14596 22462 -5115 2813 -586 1383 -211 211 -89 143 -61c-9958,-43644 86560,380356 45681,200929l-525 164 -858 272 -7233 2248 -14514 4488 -120662 27366c-40335,14978 -123700,35554 -179550,64745l-13240 -17402c-34539,37494 -114805,67115 -177159,92111 -29049,9481 -42344,18226 -26890,6879 5728,5326 -19207,-27094 -29110,-37351l-21536 -22047 -11415 -10482 -2895 -2540 -1505 -1281 -736 -586c32652,-276366 9039,-76657 16340,-138295l211 -212 3099 -2329 5496 -2452c1301,2391 45027,-4549 110991,-6627 -46185,8807 -20303,23191 -33659,34668 67114,13799 82568,-4468 84101,-30411 14596,12709 93773,-9542 108811,16544 32802,5203 35111,-18935 65957,-23927l29553 9392 6504 1805 3188 797 715 211 436 82 88 88 123 0c22544,114574 -50714,-256588 50735,256922l-293 82 -1948 272 -15604 3045c-25739,5428 -28109,9331 -79640,22483l16257 -525c20971,-12770 16272,-27012 -12777,-23824 -22122,14153 -90687,5850 -57232,43855 -31501,-32004 -142914,75438 -200425,61768 10468,8242 -3188,16694 -5428,26379l-4850 2098 -1301 504 -204 150 -211 0 -82 61c-161705,-578554 -44802,-160404 -80852,-289451l728 0 3024 -68 12206 0 24580 1219 48344 3542c31651,1805 61557,1369 86853,-9957 10550,5407 -15481,20950 10966,20800 15392,-5285 -416,-15393 18437,-22987 84898,-23906 244212,3487 339388,17136 23621,1513 75779,19446 104909,41615l5857 4257 355 232c-19357,-151809 26801,207215 22040,170361l-525 593 -776 1069 -1737 2241 -7151 9188 -15754 17763 -36411 32597c-48194,32086 -47983,31855 -81227,45088 -47105,18417 -115166,39306 -148261,49121l-146898 26446c-35614,4053 -36622,4993 -84169,5790 -9624,-8957 -43433,27809 -149078,-69717l-10400 -14677 -4407 -7220c16340,-79633 -37419,177016 36493,-178834l443 -293 776 -443 1533 -1069 13295 -7949 29614 -14303 65814 -16782 -6777 9631c86349,-45245 171669,34456 215109,-7158 7799,8581 33599,6926 25793,22966 15461,-18641 129701,27959 183602,381l-13948 4611c27393,9672 54262,8310 80852,6859l39388 -1948 -293 436c12498,52165 12709,80056 15168,87418 23988,39476 13526,25882 9038,36432 4992,-6648 12709,-5932 -3188,-23634 25501,32148 -10611,-2602 -17408,105283 -7363,40961 -1512,17702 -13002,5122 -12587,647 -8453,21243 -1158,19731 -143643,-12852 -296459,26658 -463300,41322 -124143,-23409 858,-68354 -107388,-38951 -6061,-9522 -7212,14684 -7212,5850 -34545,4427 -45450,-57423 -71181,-40668 1804,26747 -7513,12505 -29471,24710 -41629,-25861 -67851,-37208 -156856,-60256l13629 -7594c-187355,-141613 -37917,-236850 -99767,-285971 11844,-46832 12437,-160131 30935,-240984 -1975,4931 10551,-58097 23403,-81295 -25793,58894 11115,-33094 23763,-39953 41254,-24853 -11701,-46811 144153,-64513 224495,80199 137649,210846 156352,180619l-3460 31800c-2179,18499 -8745,49938 -8302,48780 -8242,18798 1300,57007 -2391,76364 647,10046 49999,182894 -214388,-54256 -79912,39953 9686,-29403 7445,-36847 24935,-30792 80076,-130790 138738,-205499 125001,-143207 936060,-333899 874271,-74498 -53459,-7805 -153525,74580 -42555,32509 29553,-12982 53902,-36623 68941,-66380l2663 -5578 1321 -2895c315823,174285 87568,48426 157932,87439l-123 204 -1158 1894 -2472 3691 -4843 7506c-9671,15604 -24417,41404 -66175,82657 -105576,51593 -148491,62647 -220599,104051 212,-6293 3256,-9168 -2240,-12566 7737,28899 -38217,18621 -30207,45218 -58301,13294 -54337,89829 -53963,99793 -3902,-4257 -24642,2895 -24935,4489l24057 9896 -6505 5626c8745,9685 26304,15392 30711,940 30431,56646 19145,43208 31732,53901l5557 6941c2534,20010 6205,-36575 87439,103546 39660,178256 -15835,165669 -28340,207154 -227955,215314 -339096,94863 -381296,122025 -175000,-4257 -302371,-15958 -469280,16128 -65684,-735 -32379,4700 -149288,11558 -21686,1594 -76235,-10992 -108451,-27039 -72400,-36616 -105705,-158075 -95830,-150419 -3228,-25882 -3167,-60781 -3603,-88651 26297,-155936 67551,-237361 91192,-358691 -15904,-13213 48405,-221518 142260,-232069 69090,-32025 110487,-55284 167140,-89243 0,0 -300,83161 -85702,142410z"/>
   <polygon class="fil2" points="3367785,1186443 3179551,1730724 2774492,1479857 2950582,1191851 "/>
   <path class="fil0" d="M2764446 1584058c78754,-9985 118203,-254913 199410,-225088 46832,17137 94086,141545 133896,179135 36432,34456 127392,116548 138003,174264 8037,44298 63171,154785 46124,215838 -16783,80056 -107974,42705 -125948,138718 -8745,47254 -129932,80287 -142784,138528 -11347,51306 9249,112652 -5122,166465 -14303,53487 -16421,111291 -33449,161705 -18879,55353 -49433,104494 -71480,149269 -28960,58451 -66250,99140 -100421,125505 -73932,22169 -64029,64451 -157237,58097 -44652,-3038 -113361,73551 -169796,65249 -48051,-7002 -81356,-145536 -133460,-158034 -49052,-11702 -83951,-71100 -133154,-88863 -48201,-17497 -257745,29757 -302963,5197 -19234,-83788 267036,-55979 309229,-152013 20181,-45660 -172609,-197462 -145658,-255416 22694,-49141 63798,-97042 90252,-150862 24785,-50524 1798,-131880 29048,-183323 26883,-51368 118558,-73470 146810,-122679 29845,-51592 59336,-109540 89536,-155282 34395,-52165 121895,-72107 155494,-111624 45013,-53268 143506,44509 183670,25214z"/>
   <path class="fil2" d="M488262 2547572c21372,-5557 38658,-184038 -46478,-226068 -117529,-41553 84544,-137376 109690,-211207 18144,-31521 108961,-91191 87799,-70030 -20657,46982 -52811,88365 -75444,135408 -13213,26951 -64452,139536 -416,109752 39511,-32427 60257,-79409 96368,-112646 32005,-31630 16844,34626 87943,-39013 6143,-67136 -70807,140754 -100795,213086 -61053,171459 148281,15522 224059,-29191 106434,-63948 205581,-149057 301744,-224502 -32154,33305 -58519,102246 -87145,150358 -7281,24288 -125948,159839 29988,177309l-38087 14602c140987,-7444 179284,-125927 256234,-175653 4904,4842 -16339,26739 6062,20303 3835,-31126 122256,-116467 139454,-152817 32379,-18934 40831,-4107 83093,-30846l20678 -54467c30983,-71692 92268,-136580 172112,-187737 10046,15754 -86138,147613 -101176,232008 -1158,-10966 3037,-30854 -8453,-18499 -211,62647 -98322,195746 6144,219884 85845,-21536 172194,-49052 255791,-87732 172609,-72107 327898,-167555 482806,-266824 -10339,13656 -14010,33305 8309,32719 3603,-13295 24492,-40014 73197,-48759 65896,7506 68055,91403 63948,134019 -23491,37228 8010,168229 15747,264686l-7213 -7090c41111,71685 -878,75083 41111,-2160l42194 -34041c-18076,-39891 73701,-111917 60256,-155622l-7656 1927c56211,39177 -52743,44380 -68579,89748l-6797 1089c-92615,102539 -133072,168857 -109520,176451 -43351,30642 53670,-116256 -9692,-70956l-72461 158960c-49999,28688 12355,-95244 26719,-125362l145597 -319950c19296,-32733 34103,-154131 52097,-114240 -48051,-7444 -38216,115398 -165104,69738 25718,-130348 125798,-218148 125212,-320182 7241,-41254 -36996,-58955 -39305,-73408 -42194,-21094 -163006,-66904 -207005,-58663 15332,1369 -25650,-21093 -51218,-20003 -87582,-14603 -84987,40811 -172126,55263 29403,-23116 39742,-33162 23927,-40041 -66631,49795 -158034,96395 -234337,153341 9985,-11790 27816,-25861 20161,-31711 -71018,73701 -170811,93704 -202877,173699 -6082,-11347 -586,-23280 2956,-34477 -59187,66188 -11559,84980 -143,76296 16816,-4196 9038,-3372 70799,2097 -28749,3780 -19731,10700 -25650,17055 124143,-4196 275448,-91696 429497,-69424 -10339,-1464 -9753,3753 -9835,3610 -10550,152245 165690,-51600 249055,-109254 26236,-22333 45238,31208 77624,-43059 14011,17974 -178548,139079 -97988,125866 -91839,50646 -265756,156352 -322109,189010 38509,-35403 -68287,-8874 14221,-56210l-73551 17408c2744,-17408 68497,-32719 39823,-36554 -44148,23995 -157176,105998 -190120,151298 40981,147967 133535,-38359 266777,-49849 -66904,27952 45872,26883 797,42636 94215,-36431 -57151,86765 -90102,103315 -48344,15039 -17783,-19588 -84544,4700 5415,7887 -23280,19213 -42698,30410 -19213,293 -190753,48133 -219883,18874 -23410,-8678 75144,-20324 20889,-22483 -86499,15835 -88297,27393 -174939,43501l-2520 -3903c-57947,5347 -166112,43713 -100591,50149 40103,-6143 -18702,-16400 42140,-17701 -28545,25650 -150086,50360 -225442,59105 26447,-8745 22040,-16905 32148,-27455l-80764 26590c0,0 -2623,776 -5075,1430 14467,114826 -19778,-156420 -16319,-128461l5265 -1369 10401 -2826 20827 -5354 41404 -9814c52219,-9753 123911,-30935 183010,-45885 -859,-15400 -42494,36050 -62940,31500 172779,-5203 320032,-101094 460051,-120158 -19718,10339 -18771,-16340 -15958,-12791 70152,-26740 79694,-4618 115166,-33959 7948,33891 60630,-90014 32236,14595 -6655,15168 6354,21898 7212,-39891 103840,114308 -310033,28190 -455208,9249 2473,9106 -111052,18587 -151155,12587l18206 -18145c-35321,-16605 -134904,-14657 -139597,-32801 -88658,14010 333245,19588 214830,24288 -28190,-20528 -165757,12334 -137444,-12083 -80703,-8949 -159015,3991 -236053,-25057 22108,6143 69063,-19589 3460,-26447 -115602,-10843 -34899,4400 -127957,1001l-57362 3188c-5496,19424 -98704,-11722 -59336,14010 -9665,-18853 -165104,-2956 -147900,-33306l14174 -25207c-47125,-3630 -64888,34456 -87371,46164 0,0 -2166,-653 -3317,-1089 4196,159396 -5557,-217058 -3187,-177309l4911 4046 2976 7294c18349,-36404 109608,27312 171962,10196 109813,34961 271456,67408 311430,111706 85027,13213 158163,33871 242183,78312 -18860,-4107 -42848,-13213 -51218,-7506 49413,34246 67993,29553 118353,47316 -13363,82 95305,71624 146809,112142 76596,24349 61353,-7002 74205,-15018 47840,67346 213448,75131 281299,146312 -27455,-7151 -113804,-32883 -57805,4550 49270,66549 145659,37296 244151,104765l-12355 -41526c38952,40668 164961,57423 140019,82065 40546,6355 120894,69151 122781,35403 -1948,33898 362777,170389 406210,197633 43291,28313 -66965,249838 -109751,248953 -115963,-2370 -236264,-89721 -323703,-158307 -69294,-23470 -145747,-4195 -208039,-49828 -17109,5196 -52077,940 -76569,4257 4611,-797 9311,-1955 13799,-3753 -32447,-10258 -63594,-13070 -97042,-10911 31058,12062 59037,28585 93289,34797 -126594,10488 -255144,1968 -375949,-38632 22312,2329 46096,-565 68354,1172 -54494,-40328 -112503,-8616 -173202,-6021 13152,-5558 25589,-10169 38237,-16462 -130729,-46097 -314474,-38945 -453049,-54345 -139324,-15515 -289744,-59159 -426889,-63443 -7744,-54025 -7362,-108873 -10992,-163715 375949,-39953 709848,-24287 1084054,26365 -3188,3835 -6062,7588 -8814,11702 29553,18498 51804,18580 85260,14745 -14160,-16469 -9897,-23116 -33156,-39599 38863,-5346 78162,-10550 116610,-15671 36704,75948 60399,161412 84687,242121 -2895,-9753 -6586,-19213 -10986,-28252 293,-504 4992,23198 -1008,19234 -151155,7506 -302392,22899 -453846,17048 -146456,-5789 -333599,-84837 -475716,-49495 2602,4257 6143,7506 10550,9815 -276306,-33599 -695164,22272 -770901,-322906 2813,9331 6061,18580 9821,27598 152769,-162564 394823,-153396 599143,-120091 69295,5075 139243,-16257 204260,-39156 -12770,-1300 -25500,-1512 -38359,-2247 56858,-9161 114601,-8725 171751,-2956 -2309,8452 -4911,16693 -7717,24853 22170,1090 47316,10400 68266,11408 -41758,16993 -85320,30227 -125212,51389 24499,6708 49413,24349 76303,28251 -21039,4339 -42201,15454 -63090,18935 46982,15672 95953,6061 133311,-26529 -1867,-6273 -4468,-12205 -7717,-17831 70302,-7969 130620,-54548 202455,-37582 -30139,-797 -59460,6797 -88740,9038 57239,22319 122045,18566 182805,15964 -4468,-4549 -8724,-9310 -12709,-14098 30785,-16694 45027,-16755 79695,-9747 -2009,4046 -3903,8153 -5558,12287 35260,9038 66175,5415 98050,-12287 -5197,-4556 -10482,-8752 -16040,-12566 48842,-7948 98194,-2894 147988,-878 -11939,11347 -22129,32236 -34695,43201 47316,16694 98915,3923 124204,-38420 6655,9964 10700,18914 16108,29757 141259,-33238 353910,9549 477398,-58009 -30492,-2540 -59398,-8684 -90517,-6143 22163,-7949 56919,-12859 81207,-19445 -32802,74940 17620,215184 30561,298202 3187,-11142 -4196,-29641 -5790,-40606 -422,1300 2302,23552 2302,23552 -69921,19738 -156712,-11933 -224978,-32298 22966,0 46961,-6061 69505,-6504 -83897,-42637 -171608,20303 -260259,8452 23975,-735 47609,-11490 70657,-15311 -50503,-39741 -162352,-78189 -195596,-13152 -26297,-21243 -57008,-16039 -80853,-25874 2098,4692 1655,9331 -1383,13587 -74266,5851 -149915,-28170 -214224,-62708 24057,-5081 48324,-18859 73177,-21686 -13928,-3398 -29553,-4992 -43835,-6150 1219,-1948 21727,-10823 18921,-13567 -27748,-42201 -79491,-41547 -127603,-31358 3964,7785 8159,15372 12791,22824 -85109,59752 -125294,50795 -215477,30049 -64725,-14888 -96314,-58723 -161855,-2370 10781,2016 23784,3903 34334,7158 -51654,7152 -103336,15958 -155058,7002 2963,-3691 6212,-7090 9753,-10107 -8827,-10843 -22040,-22844 -24703,-36997 38148,-7240 78898,-8037 117972,-2391 -55053,-59187 -133514,-59841 -207004,-39810 17136,7302 33387,17913 51511,23913 -68920,6852 -133161,-26092 -202019,-19949 39013,10196 56585,29199 83958,53459 -30703,7029 -64370,4284 -94358,-7717 2309,-3330 4992,-6497 7655,-9603 -111495,-64036 -163803,-150147 -185618,-275652 3167,9958 6797,19711 10761,29253 22483,-108389 121459,-161262 226307,-159396 -212862,73851 -206719,201242 -126806,391260 1655,-25799 940,-40313 143,-53820 1008,9672 4114,20576 5415,30915 -79116,-190815 -47404,-293414 154192,-357158 -14807,7656 -28183,17136 -42554,25507 78904,15100 150003,-18498 217643,-55645 -3549,-3753 -7172,-7213 -10993,-10462 134318,-48555 256860,-74144 397554,-36139 -108097,375 -268085,-32862 -350743,54992 -49263,13887 -100352,24642 -143560,52601 73701,-4550 148621,46689 212501,-7506 -8889,-8745 -17934,-16339 -26086,-25439 118353,-19002 231585,-44448 351300,-18859 -10025,5639 -20596,9753 -30914,15168 138425,26024 282367,38672 422761,48637 -797,-3985 -2098,-7745 -3753,-11497 39599,-2241 80117,-5136 119654,-8596 -41553,-9671 -83536,-27019 -112353,-56292 7152,1383 24492,1675 30997,293 -4639,2894 -6001,6647 -3903,11490 46103,10993 92704,18144 139808,16401 -19003,2390 -34021,11054 -50857,15460 73612,102328 187709,80935 294361,51675 -17054,34252 -8813,70868 17634,102961 -210635,-28252 -411939,-20808 -609926,-109479 1451,5135 3842,9835 7322,13942 -94175,-22252 -184630,-22524 -274146,18587 4617,-10196 14159,-21836 20514,-30854 -18498,3814 -38720,7506 -57593,9672 -2016,-5333 2179,-22551 -1151,-24356 -73327,-2956 -146755,18226 -214667,43147 11708,3038 23348,6287 34899,10128 -173195,46812 -342848,40668 -518352,61768 66693,-27012 130490,-66842 203606,-70956 -12498,10196 -23198,22251 -34818,32951 55918,18560 115752,7070 165315,-23640 -23552,5857 -49645,4992 -73279,9549 24016,-12941 45531,-33456 70596,-45600 -12124,736 -24206,1533 -36262,2391 47901,-17347 97458,-28694 148131,-35253 173324,-12587 330711,-89033 508313,-65106 -51027,22966 -104847,38359 -158245,54467 175068,15985 375214,10843 545453,58247 86349,24056 116324,15604 25861,52097 -141756,57089 -352751,41546 -502898,55264 -243647,22483 -487274,44087 -730860,66338 -18853,-29907 -23198,-63294 -10966,-97042 104609,10782 213713,29784 316967,51743 -14453,4399 -28899,12852 -43270,17551 22027,11429 53609,17198 78169,19800 442792,-150801 942210,132513 1394667,83304 -244213,357158 -573555,330207 -968929,291283 -396539,-39245 -784401,-12941 -1180947,12266 443,-60842 -3310,-123407 5578,-183098 146524,9542 312213,25800 456428,54134 -5769,7805 -11640,15522 -17641,23198 407450,-8834 886354,-97778 1152048,278818 -2391,-11762 -8895,-24117 -13213,-35253 -19800,36766 -58309,54549 -103697,58894 29260,-7887 47405,-20453 72469,-33244 -75363,1301 -233601,-8895 -284527,48637 -386731,-28272 -766413,-25003 -1152490,-42071 -13002,-93773 -13213,-221880 -17702,-297971 -1805,13063 797,25003 7656,35846 57886,-19384 141844,-47044 193001,-12001 389891,36561 777835,90374 1167352,130558 191639,19800 408608,30207 582395,122195 153164,81207 287503,228146 204825,398596 1533,-3167 -8582,-104820 -8663,-104820l-2098 56061c-32427,-24711 -80771,-44510 -127603,-66257l8030 -6001c-152094,-27536 -310421,-179890 -437520,-184521 -28524,-22612 -120581,-61557 -89727,-65399 -117700,-29988 -292284,-163210 -460929,-210253 14030,7444 22986,9815 41192,14364 -150508,-92765 -300450,-140959 -454411,-228963 17994,3835 49052,14092 57654,8453 -56796,-42623 -163149,-30561 -181858,-84047 -36786,-11974 -33306,10931 -10843,17075 -84905,-32025 -182220,-71392 -275570,-87650 -45177,-10339 -93290,-20739 -150944,-32379l-82446 -16694 -20808 -4175 -10257 -2097 -5204 -1090c0,0 -2622,-504 -3269,-654 -2813,-108805 5933,243354 -4406,-244356l55434 -12736c268418,-25064 457449,13656 671823,29634 295008,61203 9603,72026 248551,69717 18355,10339 15896,-14071 17994,-5115 92268,-443 136144,63655 201808,49645 -27012,-29199 50292,-8180 48787,-24642 72815,15665 139950,24199 199710,42616 12709,647 82357,16482 131437,87942 39013,105413 -46771,181294 -73851,196897l5415 -20514c-164661,145808 -353821,159171 -499800,245874 -122460,22899 -225060,45804 -374771,59187 7867,66189 -72925,-575305 -38298,-303903l3167 -443 6212 -1008 12648 -2098 25227 -3752 50360 -7445 101088 -13799c11116,-4406 100066,-20010 146163,-29491 120158,-24267 210702,-38945 337440,-69063 52015,-11851 108164,-22633 146816,-37651 22483,-6204 43733,-13295 54781,-22837l21522 -11708c0,0 11054,-5265 12791,-5993 52308,136348 -116399,-305566 116699,305940l-2752 940 -5285 1866c-26863,4842 -61701,21100 -132861,46900 -29914,12852 -71460,24349 -125886,28102l-37120 2894 -9249 566 -4638 231c-62416,-37875 138152,84606 -140251,-84694l-1948 -3964 -3753 -8241c-9903,-22333 -17558,-50081 -19295,-78482 7948,-140080 34334,-110678 57443,-162270 117707,-130641 272192,-180939 320597,-222404 120894,-83244 156883,-96538 288368,-197483l83243 -38570 10632 -4046 5265 -1805c0,0 2683,-1028 3984,-1383 -163298,-264665 224209,359965 183814,295887l-10489 10700 -21244 20951 -88072 81860c-48991,40042 -91756,64745 -132234,99644 -27373,20951 -56564,44210 -107299,69948 5074,6859 -115963,44210 -185114,16251l-13295 -4045 -6273 -2098c-214537,-329765 -59330,-92636 -107238,-166841l211 -2097 1533 -16762 5407 -33810 8310 -33155c142198,44652 47486,22885 84544,35907 23341,12791 5265,4468 69444,14807 -18355,14807 -31800,33598 -38298,54113 -22108,29484 23552,111849 5347,93854 -15543,4550 -19445,-211 -46982,7949 -27748,6504 -130852,34776 -182008,37582 -85614,-10631 -87269,55707 -304469,-48698 -32236,-25234 -57948,-59337 -73429,-89454l-10400 -21959 -2227 -5197c26869,75418 6354,17825 12001,33306l-3045 -11204 -8888 -50946c-13009,-68708 36200,-175940 47608,-177745 28899,-32304 70384,-78107 95299,-93207 56442,-44653 115336,-78755 158899,-105706 98343,-56292 207297,-132384 370453,-162086 192054,-24765 321394,44509 443207,104282l51892 28606c60189,50653 81289,98050 97315,147824 14174,91423 -4911,150883 -19275,188676 -29573,75649 -63948,131206 -85402,172610 -15904,15392 -8602,50714 -30288,29110 -30057,-9393 -62293,-13568 -94945,-12417 -125423,-62878 -26365,-43351 -63655,-66338 -29702,-45007 29907,55645 -83243,-93201l3481 -5265c-4993,4761 32154,-31943 66461,-63089 19295,-22047 123788,-62858 186061,-50503l12205 1212 5850 797 2895 443c-116406,-177098 162148,241842 132949,198995l-1866 7069 -4046 13949 -8098 28122c-45510,168060 -104697,245160 -154615,353610 -57532,83516 -103900,151305 -116133,176512 -18791,0 41050,1008 -47840,-940l-32215 2241 -4107 504c-86431,-33748 192851,75587 -193145,-77222l1008 -2391 4339 -9835 8745 -20869c11116,-26596 22109,-59337 65610,-140482 -2098,14535 -10700,32529 4550,16694 -17348,-45089 113211,-157803 116317,-194949 38148,-34518 75526,-68559 129196,-101654 0,0 18710,-12062 20739,-13363 -172255,-15685 234991,21019 193567,17852l11136 11469 21250 28041c13506,20807 23906,45953 28960,70514 9835,106148 -2663,64240 -4257,103417 -9460,42330 -17763,56067 -27244,85259 -18920,45803 -39156,88862 -63212,132152 -15481,24349 -21393,40525 -45306,71168 -41104,-17116 26365,150501 -288593,59541 -169592,-202183 -95448,-278908 -115602,-376304 2807,-60045 -1239,-55999 5558,-136852 -21311,-10700 13649,-735 80853,-17994 27243,17844 42990,-71604 51947,12055 -33449,-57654 -59460,18859 -5701,-41254 -4346,12355 9835,67851 16905,123053 4188,1948 4692,3835 -2813,11347l-9311 -4699c-24438,15985 -54637,50653 -17136,40334 -149146,109377 -401096,239009 -622553,306274 -103253,-2663 -22047,78775 -321605,-150 -102607,-78312 -103696,-213652 -92411,-216969 10462,-62940 10047,-50653 14222,-64888l33033 -100801c26658,-64159 44148,-103397 81560,-171166 14535,-26385 29703,-47921 31733,-55427 9903,1655 -11845,-23116 25506,647 16612,7233 34818,11429 53820,11994l28981 -1655 7301 -1301 3610 -708c-35764,-32325 320093,279111 168856,147756l-3105 2302c-118272,85409 -301595,281298 -476452,408669 -44945,35928 -79259,69295 -158599,112646 -32951,20242 -98118,40981 -172548,37147 97546,55645 -134672,-75356 -111270,-63001l-1594 -2398 -2806 -4903 -5578 -10108 -10407 -21836 -14719 -47901c-7178,-33244 -5728,-68920 -2329,-75274 5197,-25378 13649,-58247 21475,-76242 11769,-25731 39517,-89012 29110,-55999 18205,-53398 32570,-78837 42704,-99705l6437 -15250c35553,10114 64806,30499 104472,17559l6941 -2098c-132950,-106360 183241,144214 148846,119797l-3985 3106 -7948 6205 -15754 12443c-30199,26951 5939,-9399 -9753,7880 -39088,41173 -91253,88365 -161051,134462 -11769,8895 -109315,82364 -144800,104180 -54113,33326 -105495,78332 -223412,116126 -270660,13295 -238594,-218440 -231940,-255144 11783,-47901 25943,-86765 38945,-114955 22613,-44503 45599,-80641 66904,-115602 11429,-18355 20160,-32740 29553,-48133 6232,-10114 5074,-8813 7594,-11619l1444 -1682c7444,2186 35403,11074 52308,15692l14595 4046 7220 2098c-161412,-115541 229133,159545 186429,132363l-12580 9985c-84878,68286 -105501,77011 -191176,162917 -19084,12437 -7799,14746 -63001,39892 -22108,8895 -46982,14098 -69526,15311 0,0 -16401,381 -18498,293 -245160,-258809 -67851,-72251 -122406,-131771l299 -3338 1444 -13152 20154 -104343c22632,-47315 50006,-97546 70391,-125062 10611,-15979 23490,-34688 27747,-44067l9815 -16986 5203 -8453c0,0 2684,-4277 3188,-5074 -144507,-144861 196958,196979 160697,163088 -5054,2159 -23845,12648 -44945,35131 -22613,28898 -138153,166908 -148914,145930 -138739,-14950 -22694,-82950 -62797,-63294 0,0 -2180,5517 -2452,7172 15897,-119007 5054,-33033 8874,-59548l2180 -61 8875 130c47771,2744 104336,44584 106141,59895 64745,115043 33183,142934 39830,194234 -3630,44448 -1028,71903 -585,77168 0,0 -5769,3099 -7302,3752 -211854,5136 -58662,355 -105916,1008l-82 -3378 -354 -7029 -4993 -26801c-4699,-16257 -15522,-34817 -25357,-43058 -8513,3249 -14664,16108 -5850,3753 13083,-15958 13145,-18853 37433,-45511 32004,-23995 17769,-44087 103464,-71099 80853,-27748 158749,23259 177520,61468 5933,4489 -1866,-5973 -5203,-5469 -2875,2452 1089,-7151 -7363,5762l-23259 42936 -10189 22252c-42262,-166637 -11347,-46390 -20665,-83686l5204 -2595c-4632,-150 39013,-9461 72400,-14010 13070,-2541 -67994,28313 -76534,53540 79347,56504 16904,-47840 -103247,-15542 -67265,39748 -87357,117556 -112421,130204z"/>
   <path class="fil2" d="M410937 1806394l-117052 -159042 104193 11558 21836 -73054 81649 55563 42255 -28674 59167 99563c0,0 -29253,79469 -45007,88004 -15815,8534 -85967,42200 -147041,6082z"/>
   <g>
    <path class="fil3" d="M3965403 444004c-3842,27394 -49271,53691 -101449,58601 -52376,4761 -91553,-13737 -87650,-41110 3841,-27537 49291,-53691 101592,-58602 52165,-4760 91402,13513 87507,41111z"/>
    <path class="fil3" d="M2723042 3096553c-16843,-91109 -53255,-150862 -39156,-227689 42555,10632 88065,18076 141545,8241l26869 -5265 5203 -30785c25378,-152456 146394,-435531 224938,-700136 39599,-134400 69737,-268711 67789,-381507l25711 16046 16612 -43937 197926 -521022 968486 -108035 -116671 -77747 -21693 -262860 -164954 138507 -129761 -86472 107660 54317 33598 -173549 122399 61557 41172 -212862 83032 -56353 504 -23049 7234 -316258 -658460 59541 -665271 195303 -49502 749781 -177813 290398c-677755,-95660 -1826322,172255 -1828481,171832l-8241 1867 -7445 6436c-37351,32515 -74287,36057 -121691,35703 -44420,-150 -95509,-4850 -152598,24199 -10319,-187498 -180708,-336289 -218924,-470036 -59119,-186408 -107149,-478167 6566,-687127 9399,-15188 18580,-30138 27536,-45095l-46600 -31357c-6355,9460 -12730,19152 -18648,29259 -3249,5415 -6287,10843 -9181,16401 -49414,79409 -105856,163592 -157013,249709 -40811,69002 -78250,139392 -105848,210934 -42201,109874 -65188,229971 -97110,332510 -25650,82576 -41840,163360 -27244,246896 26808,148267 148199,218065 242203,275005 13656,7866 27305,16904 41758,25507 29907,17701 64029,34163 108975,32590 54405,-5932 95223,-31147 111999,-23934 -19146,52458 -27537,107531 -46682,170539 -41050,146101 -161705,398262 -126391,561772 11225,48194 26740,80178 54052,96579 9753,5203 19942,7383 30220,9106 -44319,155998 -135279,318942 -216424,470390 -42998,80348 -86410,159607 -132718,237654 -10550,17905 -21454,36050 -32679,54548l42139 36847c8153,-9331 21959,-19295 38298,-36261l-8602 -10986c3106,-5142 6144,-10346 9249,-15461 47398,-79926 91403,-160404 134605,-241338 81356,-152545 177962,-322995 226245,-496462 25207,-3753 52805,-9249 85906,-12730 102661,-12416 203191,-23600 302310,-32638l-10843 2391 -61 -211c-8752,209381 -44952,421146 -9692,621735 16775,69070 -41819,211268 21332,298918l26065 32359 24206 -47527c879,-1594 1594,-3187 2241,-4127 2813,-4850 6293,-10196 9985,-16469 2874,-4781 5918,-10189 8956,-16694l-29491 -11197c-27448,-49352 9903,-166343 -3099,-263889 -32659,-182717 293,-385907 10400,-599334 271483,-22824 533459,-28674 798649,1736 173549,20031 334900,76221 497252,145577 -94440,308167 -240541,576667 -396307,874155l-7383 -1451c82,62 -865,927 -5919,11347 -6354,11770 -7444,34545 -1383,45368l21898 52247 31793 -60992c156944,-300716 309904,-577526 410494,-899363 94570,34396 169865,36786 280059,41043 26951,504 52955,6293 79463,13152 -27659,118061 22987,192347 34191,270387 15897,92118 -10046,204852 -17852,316619 -7362,114662 -36050,243859 -36785,363806l61346 -16408c149,-107803 28108,-235698 36493,-358894 6354,-101953 35260,-221308 17054,-333307zm1444454 -2213952l0 0 3760 45299 -40545 -14242 36785 -31057zm-208012 -134605l0 0 43501 -29845 -9188 47104 -34313 -17259zm156004 -111937l0 0 43624 -29846 -9249 47193 -34375 -17347zm-457388 -359549l0 0 600656 -54406 -5265 233601 -494303 335847 397465 264959 -739012 82385 8091 -21250 -414540 -6437 43501 -657452 603407 -177247zm-622552 905002l0 0 -29199 3249 232 -3665 28967 416zm-87439 78339l0 0 378926 -42350 -173576 456659 -14303 -8895c-15168,-64452 -46819,-117053 -102314,-151155 -11551,-6941 -24118,-12648 -37413,-17559l0 -82c-50591,-18641 -107742,-32951 -169026,-44066l117706 -192552zm22333 299497l0 0 13506 -29342 -13424 29342 -82 0zm-2559069 238804l0 0c-31208,1152 -56415,-9984 -84163,-26385 -12082,-7152 -24498,-15311 -37882,-23198 -1301,-777 -2724,-1594 -4025,-2452 -94883,-55625 -200739,-124265 -219530,-239745 -11701,-68415 382,-132220 24499,-210260 33660,-109165 56585,-227519 94801,-326515 24792,-64091 59691,-130055 98990,-196393 11497,-19357 23348,-38802 35322,-58159 -30915,195010 12518,393501 55284,533963 50864,153757 215838,310612 217412,458457 -16108,14596 -42112,39388 -64868,67197 -47908,-7152 -91491,26365 -115840,23490zm2154221 973309l0 0c-114812,-4693 -182363,-6709 -274773,-41758 272,-797 504,-1505 776,-2390l-8956 -777c-6920,-2826 -13799,-5285 -21100,-8384 -168271,-72741 -337652,-133140 -522698,-154390 -384020,-43999 -759677,-14031 -1162870,34967 -83959,11640 -130348,23491 -146748,10632 -10973,-6355 -22252,-22340 -32298,-65330 -30915,-117264 77243,-367123 124579,-522473 26930,-93855 36329,-161433 62776,-204403 15243,-25378 35403,-47043 76153,-70091 37229,-21693 79695,-19800 129047,-18798 46103,653 101598,-1867 158102,-47105 54991,-12498 391907,-86914 790755,-138800 342433,-44734 730145,-71542 1018887,-29471l326959 204975c16693,105788 -11286,253401 -59630,415964 -71665,243443 -182805,503927 -220810,678116 -75295,5115 -144651,-35553 -238151,-40484z"/>
   </g>
   <polygon class="fil3" points="3377245,339096 2926001,0 3046030,437711 "/>
  </g>
 </g>
</svg>
