<?xml version="1.0" encoding="UTF-8"?>
<!DOCTYPE svg PUBLIC "-//W3C//DTD SVG 1.1//EN" "http://www.w3.org/Graphics/SVG/1.1/DTD/svg11.dtd">
<!-- Creator: CorelDRAW X7 -->
<svg xmlns="http://www.w3.org/2000/svg" xml:space="preserve" width="1.79706in" height="1.63182in" version="1.1" style="shape-rendering:geometricPrecision; text-rendering:geometricPrecision; image-rendering:optimizeQuality; fill-rule:evenodd; clip-rule:evenodd"
viewBox="0 0 1279 1161"
 xmlns:xlink="http://www.w3.org/1999/xlink">
 <defs>
  <style type="text/css">
   <![CDATA[
    .fil6 {fill:black}
    .fil18 {fill:#214452}
    .fil13 {fill:#281816}
    .fil23 {fill:#2B5B6D}
    .fil16 {fill:#3F8099}
    .fil7 {fill:#411D18}
    .fil24 {fill:#4690AC}
    .fil11 {fill:#4F2F2A}
    .fil17 {fill:#54B1D8}
    .fil14 {fill:#647E3F}
    .fil9 {fill:#75463A}
    .fil21 {fill:#79232B}
    .fil12 {fill:#835457}
    .fil1 {fill:#855046}
    .fil8 {fill:#8A5444}
    .fil19 {fill:#B87779}
    .fil3 {fill:#C39044}
    .fil22 {fill:#D16B91}
    .fil5 {fill:#DD8C8E}
    .fil0 {fill:#E4A84D}
    .fil10 {fill:#E6A326}
    .fil4 {fill:#F4B8AE}
    .fil2 {fill:#F6B856}
    .fil15 {fill:#FFB32A}
    .fil20 {fill:white}
   ]]>
  </style>
 </defs>
 <g id="__x0023_Layer_x0020_1">
  <metadata id="CorelCorpID_0Corel-Layer"/>
  <g id="_1949221264">
   <g>
    <path class="fil0" d="M1040 147c2,2 5,4 9,8l-3 -2c-6,4 -12,8 -18,12 -2,-2 -5,-4 -12,-4 -6,1 -12,1 -18,1 -3,0 -6,-1 -8,-2 -1,0 -4,1 -10,3 -45,1 -85,0 -119,-2 -52,-4 -92,-12 -120,-25 -20,-13 -33,-20 -39,-23l-3 0c11,4 26,14 47,29 32,15 87,26 165,32 6,0 16,-1 30,-3 3,0 6,0 8,0 -6,2 -13,3 -20,5 -36,12 -64,17 -82,15 -28,-2 -52,-6 -71,-14 2,-4 4,-8 6,-11 -3,3 -5,6 -7,10 -4,-3 -8,-5 -11,-7 -8,-7 -17,-12 -27,-17 -5,-4 -8,-6 -10,-7 -29,-13 -51,-22 -66,-28 12,-1 24,-3 37,-5 21,-3 45,-8 71,-16 28,-7 66,-12 111,-13 2,-2 14,-1 38,0 -11,-2 -23,-5 -35,-7l0 2c-42,2 -74,5 -97,8 66,-24 102,-36 109,-35 34,2 67,16 99,40 31,25 49,37 54,37 3,0 5,0 5,0 4,4 7,9 10,14 0,1 1,1 1,1l4 3 7 -2c1,0 1,-2 1,-6 0,-3 0,-5 -1,-6 0,0 -1,-1 -1,-1l-1 0c3,-7 4,-17 5,-30 1,2 3,8 7,17 2,8 4,14 4,17 0,2 -1,5 -1,8 -1,3 -1,5 -1,6l5 0c5,-6 11,-14 18,-26l0 10c0,4 -2,9 -5,14 -2,5 -4,9 -4,10 0,3 0,5 1,5 1,0 2,1 5,1 12,-6 22,-8 29,-9l1 2c-6,3 -11,7 -16,11 -1,0 -3,1 -5,1l1 3c-3,3 -6,7 -7,12 21,3 37,19 48,49 7,22 11,42 10,61 -2,41 -18,85 -49,131 -23,29 -37,48 -42,58 -1,2 -2,3 -3,4 -6,-5 -14,-7 -23,-6 6,-15 16,-32 29,-51 23,-34 38,-60 43,-78 11,-20 17,-35 18,-45 1,-18 0,-32 -3,-42l-2 -1c5,22 1,46 -12,74l-2 -4 -89 135c10,-34 32,-69 66,-105 -14,-1 -31,14 -51,45 -9,13 -16,25 -21,36 0,-5 -1,-10 -2,-16 0,-1 0,-2 0,-2 0,0 -1,1 -2,3 10,-18 21,-35 36,-52 42,-51 64,-97 65,-138 0,-15 0,-28 -2,-36l-3 0c4,61 -16,117 -58,168 -14,17 -26,34 -37,51 -1,-4 -1,-7 -1,-9 -1,4 -2,8 -2,13 3,-27 15,-54 36,-82 27,-36 45,-71 54,-106 -35,49 -59,82 -70,100 -9,11 -15,24 -19,38 1,-16 7,-34 16,-54 11,-21 16,-33 17,-35 0,-11 7,-24 20,-38l19 -21c-1,-3 -1,-5 -1,-7 -8,1 -15,2 -21,5 4,-6 9,-12 15,-18l-6 -4c-7,1 -14,4 -22,8 -7,4 -12,7 -12,7l-1 -2c11,-16 17,-25 17,-27 0,-3 -1,-4 -2,-5l-3 1c-9,2 -18,5 -27,11l0 -1c0,-1 3,-7 9,-16 6,-11 9,-18 9,-20 0,-2 0,-3 -1,-4 1,-1 1,-1 2,-1 10,9 21,19 34,32 5,0 7,-1 5,-4 -3,-9 -12,-21 -28,-35l1 -2c-23,-15 -43,-27 -60,-36 -18,-8 -39,-16 -64,-22 8,4 25,13 49,24 3,2 5,4 8,6 -2,-1 -4,-3 -5,-4 -22,-9 -52,-12 -89,-10 -38,0 -62,0 -72,1 0,0 -7,2 -21,6 6,1 35,0 89,0 3,-2 15,-2 37,-1 18,2 38,7 62,17 18,7 33,14 43,20l1 0zm9 -25l0 0c-11,-6 -23,-15 -36,-27 -20,-19 -33,-31 -39,-35 -36,-26 -82,-28 -140,-8 -26,9 -48,17 -66,23 6,-3 10,-5 15,-8 5,-3 20,-13 44,-30 29,-16 55,-23 81,-21 41,3 78,25 112,65 11,14 21,27 29,41zm-34 48l0 0 1 0c-2,1 -3,2 -5,3 1,-1 3,-2 4,-3zm-9 286l0 0c0,0 0,1 0,1 -1,-1 -1,-3 0,-5 0,1 0,3 0,4zm5 -1l0 0c1,5 2,11 4,19 -3,-3 -6,-5 -9,-7 2,-4 3,-8 5,-12zm2 34l0 0c2,1 5,2 7,3 -2,3 -5,5 -9,7 1,-2 0,-5 -3,-8 0,-1 0,-1 0,-2 0,-1 0,-2 0,-2l0 -1c2,1 3,2 4,2l1 1z"/>
    <path class="fil1" d="M1125 149l6 -2 21 -7c2,1 4,2 4,2 2,1 3,3 3,6 -1,2 -5,6 -14,13 3,2 7,5 12,7l-1 2c-4,-2 -10,-3 -19,-2 -3,3 -7,5 -10,8 -2,2 -4,3 -6,4 2,-1 4,-1 5,-2 13,-5 26,-6 39,-2 -5,2 -13,4 -25,5 -6,0 -11,0 -14,0 -1,0 -2,0 -3,0 1,1 2,1 3,2 21,13 35,31 43,53 6,15 8,35 7,58 -3,55 -34,119 -95,191 -1,1 -2,3 -3,4 1,1 1,2 3,3 0,2 1,3 2,5 0,0 1,0 1,0l6 24 2 9c0,1 0,2 0,3 0,3 0,7 0,11 0,14 -5,28 -14,42 -7,14 -17,22 -29,26l-8 2c-5,1 -10,1 -15,1 -10,-1 -19,-5 -28,-13 -4,36 -24,75 -61,116 -3,-1 -4,2 -6,7 0,0 0,-1 -1,-2l0 1c-24,25 -49,44 -76,57 -3,-2 -5,-1 -6,2 -7,3 -14,7 -21,9 -2,0 -5,0 -7,1 -3,1 -6,2 -7,4 -11,2 -22,4 -34,5 0,1 1,2 1,3l-1 -1c-2,0 -4,0 -7,0l0 0c0,0 -1,0 -1,0 -7,0 -14,0 -22,0l-49 -4c-6,-3 -10,-13 -13,-30 -2,-9 -3,-15 -3,-20 0,-1 -1,-2 -1,-3 0,-1 0,-2 1,-2 -1,-1 -1,-1 -1,-1 0,-1 1,-2 1,-3 1,-7 3,-14 3,-18l0 -1c0,-1 0,-2 0,-3l1 0c1,-1 3,-2 6,-2 0,0 3,2 8,4 2,1 4,2 7,3 1,1 2,1 3,2 8,3 15,5 21,6 24,1 47,-3 67,-14l0 -1c2,-2 3,-5 5,-8 5,-3 9,-5 13,-7 1,-2 3,-3 5,-4 0,2 0,4 -1,6 8,-8 17,-16 24,-24 11,-13 20,-25 27,-37 -2,0 -4,1 -6,2 0,-2 1,-4 3,-5 1,-1 1,-1 2,-1l0 0c0,0 0,0 1,0l0 0 2 0c10,-19 15,-38 16,-56l0 -12 0 -1c0,-1 0,-2 1,-3 -1,0 -2,1 -2,3l0 -1 0 -10 -1 0 1 -3c-1,-1 -1,-1 -1,-1 0,-1 0,-2 -1,-3 0,1 -1,1 -1,2 -10,9 -20,17 -32,25l0 1c-7,12 -16,23 -26,33 -7,7 -13,12 -20,17l-1 -1c-2,1 -9,4 -22,10 -1,1 -1,1 -2,1 -14,4 -30,6 -46,4 -14,-1 -24,-6 -29,-14 -8,0 -16,0 -24,-1 -13,-1 -24,-8 -35,-23 -2,-3 -4,-6 -5,-9 -5,-7 -8,-15 -12,-25 -9,-36 -13,-54 -13,-55 0,-1 0,-3 0,-5l0 -1c1,-4 1,-9 2,-14 -5,-1 -10,-1 -15,-2 3,-3 5,-4 8,-4 0,0 11,3 32,7 3,1 6,1 9,2 -4,-1 -8,-1 -12,0l-12 -3c-1,5 -1,10 -1,15 -1,1 -2,3 -2,4 0,1 0,2 0,3l15 50c9,24 18,39 26,46l0 1c2,2 5,3 7,4l2 0c49,4 97,-7 144,-34 15,-8 29,-17 40,-25 2,-2 5,-4 7,-6 7,-7 13,-13 19,-20 -1,0 -2,1 -2,1 -4,1 -8,1 -12,0 7,-4 11,-5 13,-4 1,0 2,1 3,3 0,1 -1,1 -1,1 3,5 5,11 7,18 0,2 1,4 1,7 0,1 0,2 1,4 0,6 0,13 0,19 -1,31 -14,62 -39,95 -32,45 -74,66 -124,64l-4 -1c-16,-6 -26,-10 -33,-10 0,0 0,0 -1,0 -2,3 -4,8 -4,13 -1,5 0,11 1,20 1,12 4,20 8,24l15 1 31 2c91,-14 153,-43 187,-86 13,-15 30,-54 51,-116 -2,-3 -4,-6 -4,-7 1,-3 3,-5 5,-5 0,1 0,1 1,2l3 -2c3,3 5,7 6,11l0 0c0,0 1,0 1,0 1,1 1,1 1,1 0,1 1,1 2,2 10,7 18,11 26,12 17,1 32,-8 43,-29 9,-13 13,-24 14,-32 -1,-8 -2,-17 -4,-25 0,-2 -1,-3 -1,-4 -3,-12 -8,-21 -14,-26 -13,0 -26,4 -38,14 -1,0 -2,1 -3,2l-3 7 -19 38 -3 0c-1,-6 -1,-14 -1,-26l1 -3 0 -9 2 -7c-2,-6 -2,-12 -2,-20 1,0 3,0 5,1 1,1 2,1 3,2 0,0 0,1 0,2 0,1 0,1 0,2 3,3 4,6 3,8 4,-2 7,-4 9,-7 -2,-1 -5,-2 -7,-3 4,1 6,2 7,2l3 1c0,-1 1,-2 1,-2 1,-1 2,-2 3,-3l2 2c4,-3 9,-5 12,-6 5,-13 12,-26 22,-40 29,-40 44,-61 45,-63 -3,8 -18,32 -45,70 -8,11 -14,22 -18,31 2,0 4,0 6,-1 9,-1 17,1 23,6 1,-1 2,-2 3,-4 5,-10 19,-29 42,-58 31,-46 47,-90 49,-131 1,-19 -3,-39 -10,-61 -11,-30 -27,-46 -48,-49 1,-5 4,-9 7,-12l-1 -3c2,0 4,-1 5,-1 5,-4 10,-8 16,-11l-1 -2c-7,1 -17,3 -29,9 -3,0 -4,-1 -5,-1 -1,0 -1,-2 -1,-5 0,-1 2,-5 4,-10 3,-5 5,-10 5,-14l0 -10c-7,12 -13,20 -18,26l-5 0c0,-1 0,-3 1,-6 0,-3 1,-6 1,-8 0,-3 -2,-9 -4,-17 -4,-9 -6,-15 -7,-17 -1,13 -2,23 -5,30l1 0c0,0 1,1 1,1 1,1 1,3 1,6 0,4 0,6 -1,6l-7 2 -4 -3c0,0 -1,0 -1,-1 -3,-5 -6,-10 -10,-14 -1,-3 -2,-5 -4,-6 -8,-14 -18,-27 -29,-41 -34,-40 -71,-62 -112,-65 -26,-2 -52,5 -81,21 -24,17 -39,27 -44,30 -5,3 -9,5 -15,8 -26,11 -63,25 -110,42 -1,1 -2,1 -4,2 0,0 -1,0 -2,1 -4,2 -11,3 -22,3l96 24c4,1 8,3 12,5l-1 0c10,5 19,10 27,17 3,2 7,4 11,7 2,-4 4,-7 7,-10 -2,3 -4,7 -6,11l-1 0c28,19 51,29 70,31 44,3 90,-5 136,-23l29 -12 1 0c2,-1 3,-2 5,-3l-1 0c-10,1 -32,1 -66,1 -2,0 -5,0 -8,0 -14,2 -24,3 -30,3 -78,-6 -133,-17 -165,-32 -21,-15 -36,-25 -47,-29l3 0c6,3 19,10 39,23 28,13 68,21 120,25 34,2 74,3 119,2 0,0 0,0 0,0 5,0 11,0 18,-1 6,0 12,0 18,-1 7,0 10,2 12,4 6,-4 12,-8 18,-12l3 2 1 -1 0 1c-1,0 -1,0 -2,1 1,1 1,2 1,4 0,2 -3,9 -9,20 -6,9 -9,15 -9,16l0 1c9,-6 18,-9 27,-11l3 -1c1,1 2,2 2,5 0,2 -6,11 -17,27l1 2c0,0 5,-3 12,-7 8,-4 15,-7 22,-8l6 4c-6,6 -11,12 -15,18 -18,23 -32,47 -43,71 -16,32 -24,63 -26,93 0,3 0,7 1,12 0,12 0,28 2,47 0,0 0,1 0,2 0,0 0,1 0,1 -1,2 -1,4 0,5 0,0 0,-1 0,-1 1,-3 3,-6 5,-8 0,1 0,4 1,6l-1 1c-2,4 -3,8 -5,12 1,-1 1,-2 0,-3l0 -1c-4,0 -7,-1 -9,-2 0,-9 -1,-17 -1,-25 -1,-19 -1,-34 0,-46 0,-2 0,-3 0,-4 0,-3 0,-6 1,-10 5,-52 29,-107 72,-162 -3,1 -7,4 -13,8 -5,4 -9,7 -13,7 -3,3 -5,2 -5,-2 5,-12 8,-21 11,-26 1,-4 1,-6 1,-6l3 0c-6,-1 -12,2 -17,6 0,0 -1,1 -1,1 -6,4 -9,7 -12,9l-2 0c-1,-1 -1,-3 -1,-5 1,-5 4,-14 11,-27 0,-1 0,-2 0,-2 1,0 1,0 1,-1l0 0c4,-8 8,-13 11,-16 -2,1 -4,2 -6,4 -72,62 -135,91 -186,87 -12,-1 -41,-13 -89,-35 -1,-1 -2,-1 -2,-1 -2,1 -2,2 -2,3l-2 -1c-3,8 -5,16 -7,25 -2,0 -3,0 -5,1 3,-12 6,-22 10,-31l-1 0c0,0 -1,0 -2,-1 0,0 -1,0 -1,-1l0 1c-43,-20 -75,-30 -98,-32 -14,-1 -26,0 -38,1 -12,3 -21,5 -27,5 3,-2 12,-4 27,-7 17,-4 30,-6 39,-5 23,1 56,12 99,32 1,1 2,2 4,2l0 0c1,-4 3,-8 5,-12 2,-4 4,-7 6,-10 -1,-1 -1,-1 -2,-1 -3,-2 -6,-5 -10,-7 -30,-24 -68,-38 -114,-41 -28,-2 -54,-13 -78,-32 -19,-15 -29,-27 -28,-36l-1 -3c1,1 1,1 1,0 8,0 15,3 19,9 4,4 8,11 14,20 12,14 32,21 61,22 45,-11 90,-27 135,-50 27,-13 59,-32 97,-54 40,-23 85,-13 135,30 38,33 60,62 68,87 1,0 3,0 5,0 0,-6 2,-16 3,-30 1,-4 2,-9 2,-14 3,4 6,8 8,12 8,12 12,25 12,38 4,-3 10,-11 17,-27l2 0 2 0c1,18 0,33 -4,45l0 1 14 -5zm-64 -1l0 0 -1 0c-2,-1 -5,-3 -8,-3l-12 -6 0 -1c-18,-8 -32,-15 -42,-20 -2,0 -2,0 -3,0 -3,-2 -5,-4 -8,-6 -24,-11 -41,-20 -49,-24 25,6 46,14 64,22 17,9 37,21 60,36l-1 2zm-37 274l0 0c11,-17 23,-34 37,-51 42,-51 62,-107 58,-168l3 0c2,8 2,21 2,36 -1,41 -23,87 -65,138 -15,17 -26,34 -36,52 0,1 -1,3 -2,4 0,0 0,1 -1,1 0,-2 0,-4 1,-6 1,-2 2,-4 3,-6zm-326 -310l0 0c27,-6 56,-14 86,-25 1,0 1,0 1,-1l1 0c23,-3 55,-6 97,-8l0 -2c12,2 24,5 35,7 -24,-1 -36,-2 -38,0 -45,1 -83,6 -111,13 -26,8 -50,13 -71,16zm162 105l0 0c-7,1 -14,0 -21,0 -2,-1 -4,-1 -7,-1 -19,-3 -39,-12 -60,-26 -3,6 -6,13 -10,21 1,0 2,1 3,2l1 0c19,11 37,19 53,23l1 0c14,6 25,9 31,10 40,3 78,-8 114,-32 2,-2 5,-4 8,-6 14,-10 30,-22 51,-36 -13,8 -26,14 -38,18 -42,19 -84,28 -126,27zm-632 453l0 0c-3,4 -4,8 -6,11 -9,-1 -18,-4 -29,-8 -20,-9 -32,-15 -37,-17 -5,-1 -26,-2 -63,-2 -1,0 -1,0 -1,0 -7,0 -14,0 -19,-1 -3,-1 -5,-1 -6,-1 -12,-4 -18,-10 -20,-19 -6,-21 12,-32 52,-32 -12,-2 -33,-4 -63,-4 -4,0 -7,0 -10,-1 -9,-1 -14,-5 -16,-11 -1,-4 1,-10 5,-16 1,-1 2,-3 3,-4 4,-5 11,-9 19,-11 6,-1 18,-2 35,-1 21,1 33,2 35,2 -4,-2 -27,-8 -67,-18 -16,-3 -27,-9 -33,-17 -3,-3 -5,-7 -6,-12 -1,-4 -1,-9 0,-13 0,0 0,0 0,-1 2,-7 7,-11 15,-13 19,-5 44,-1 76,11 17,6 33,14 50,23 -1,-1 -18,-15 -51,-41 -23,-19 -35,-33 -38,-45 -6,-24 1,-35 20,-32 19,3 40,15 64,38 15,9 30,22 46,38 9,9 22,22 38,39 1,-1 4,-8 9,-23 8,-14 18,-23 30,-26 9,-2 15,-1 18,3 2,3 2,5 2,8 2,9 1,22 -2,38 -3,17 -4,30 -2,39 1,4 4,11 9,19 3,5 5,10 6,13 -2,2 -4,4 -6,7 -1,0 -1,1 -1,1 -2,-4 -5,-9 -8,-16 -6,-15 -9,-22 -9,-23 -2,-7 -1,-19 1,-35 3,-20 4,-33 4,-37l-2 -8 -8 1c-10,3 -19,12 -25,28 -7,16 -10,24 -11,24 -4,1 -9,-3 -17,-12 -11,-13 -21,-24 -29,-32 -33,-36 -70,-61 -110,-75l-9 2c-1,4 -2,8 -2,11 0,2 1,5 2,9 3,13 20,30 49,49 30,21 46,34 47,42 1,2 1,3 0,4 -1,1 -4,3 -10,4 -13,-5 -27,-11 -43,-17 -31,-13 -58,-19 -81,-21l-10 3c-1,1 -2,4 -3,7 -1,5 -1,7 -1,9 2,6 22,15 60,25 39,11 59,20 61,27 0,2 0,4 -1,5 0,0 -1,1 -3,1 -12,-1 -25,-1 -37,-2 -26,-1 -42,-1 -49,1 -7,1 -12,4 -17,9 -1,1 -2,2 -2,3 -2,2 -3,4 -3,6 0,1 2,2 5,3 8,3 24,4 49,4 35,1 54,5 55,13 1,3 0,5 -3,6 -7,1 -16,3 -26,3 -9,1 -14,1 -15,1l-25 6c-2,1 -3,4 -3,7 0,2 0,4 1,5 2,11 14,15 37,13 30,-3 54,-1 71,5 4,1 15,6 33,15 11,4 21,6 31,6zm477 -288l0 0 -1 0c3,-8 7,-19 12,-31 4,-15 9,-32 14,-51 3,-1 6,-2 9,-3 -1,1 -1,1 -1,2l0 3 0 0c-1,3 -1,5 -2,7 -1,5 -2,10 -3,15 0,0 -1,1 -1,2l-18 45c-3,4 -6,8 -9,11zm3 -74l0 0c2,-2 4,-3 6,-4 2,0 4,-1 5,-1 -4,2 -7,3 -11,5zm-67 -19l0 0c0,1 1,3 2,4 -1,0 -1,0 -2,0 -2,2 -3,1 -3,-4l3 0zm365 220l0 0 -1 4c1,-1 1,-1 2,-1l0 -1c0,-1 -1,-3 -1,-4 0,0 0,1 0,2zm2 13l0 0c-1,2 -2,4 -3,5l0 6c0,-2 1,-6 4,-11l-1 0zm-341 -239l0 0c-3,1 -5,2 -7,3l-1 -1c2,-1 5,-2 8,-2zm67 2l0 0c0,-3 1,-7 2,-10 0,-2 1,-4 1,-5l0 -2c1,-3 1,-6 2,-8 2,0 4,-1 7,-1 -1,3 -2,6 -2,10l-1 6c0,3 -1,6 -1,9 -3,0 -6,0 -8,1zm-17 346l0 0c3,3 7,4 11,5 37,3 69,-8 96,-31 7,-6 13,-11 19,-16l-1 -1c-7,4 -15,8 -23,11 -2,2 -5,3 -7,5 -32,15 -64,24 -96,27l1 0zm99 75l0 0c0,1 -1,2 -2,3 1,-1 2,-1 2,-1 0,-1 0,-2 0,-2z"/>
    <path class="fil2" d="M1049 122c2,1 3,3 4,6 0,0 -2,0 -5,0 -5,0 -23,-12 -54,-37 -32,-24 -65,-38 -99,-40 -7,-1 -43,11 -109,35l-1 0c0,1 0,1 -1,1 -30,11 -59,19 -86,25 -13,2 -25,4 -37,5l-1 0c-1,0 -1,0 -2,0 47,-17 84,-31 110,-42 18,-6 40,-14 66,-23 58,-20 104,-18 140,8 6,4 19,16 39,35 13,12 25,21 36,27zm-9 25l0 0 -1 0c-10,-6 -25,-13 -43,-20 -24,-10 -44,-15 -62,-17 -22,-1 -34,-1 -37,1 -54,0 -83,1 -89,0 14,-4 21,-6 21,-6 10,-1 34,-1 72,-1 37,-2 67,1 89,10 1,1 3,3 5,4 1,0 1,0 3,0 10,5 24,12 42,20l0 1 1 4c0,1 0,2 -1,4zm-14 339l0 0c-2,-3 -3,-5 -4,-6l-4 -3c-1,-2 -2,-3 -3,-3 -2,-8 -3,-14 -4,-19l1 -1c-1,-2 -1,-5 -1,-6 -2,-6 -2,-10 -2,-14 0,-1 0,-3 0,-4l0 0c0,-1 0,-2 0,-2l8 -40c1,-4 3,-8 4,-12l1 0c4,-14 10,-27 19,-38 11,-18 35,-51 70,-100 -9,35 -27,70 -54,106 -21,28 -33,55 -36,82 0,0 0,1 0,2 -1,2 -1,4 -1,6l0 0c0,9 2,26 6,52zm97 -135l0 0 0 -1c-2,3 -3,6 -5,9l-3 3c-4,6 -17,23 -36,50l-3 0c22,-28 38,-53 48,-75 13,-28 17,-52 12,-74l2 1c3,10 4,24 3,42 -1,10 -7,25 -18,45z"/>
    <path class="fil3" d="M1050 155l0 -1 -1 1c-4,-4 -7,-6 -9,-8 1,-2 1,-3 1,-4l-1 -4 12 6c3,0 6,2 8,3l1 0c16,14 25,26 28,35 2,3 0,4 -5,4 -13,-13 -24,-23 -34,-32zm-39 293l0 0c-2,2 -4,5 -5,8 0,-1 0,-3 0,-4 0,0 0,-1 0,-1 0,-1 0,-2 0,-2 -2,-19 -2,-35 -2,-47 -1,-5 -1,-9 -1,-12 2,-30 10,-61 26,-93 11,-24 25,-48 43,-71 6,-3 13,-4 21,-5 0,2 0,4 1,7l-19 21c-13,14 -20,27 -20,38 -1,2 -6,14 -17,35 -9,20 -15,38 -16,54l-1 0c-1,4 -3,8 -4,12l-8 40c0,0 0,1 0,2l0 0c0,1 0,3 0,4 0,4 0,8 2,14zm12 -19l0 0c1,-2 2,-3 2,-3 0,0 0,1 0,2 1,6 2,11 2,16 5,-11 12,-23 21,-36 20,-31 37,-46 51,-45 -34,36 -56,71 -66,105l89 -135 2 4c-10,22 -26,47 -48,75l3 0c19,-27 32,-44 36,-50l3 -3c2,-3 3,-6 5,-9l0 1c-5,18 -20,44 -43,78 -13,19 -23,36 -29,51 -2,1 -4,1 -6,1 4,-9 10,-20 18,-31 27,-38 42,-62 45,-70 -1,2 -16,23 -45,63 -10,14 -17,27 -22,40 -3,1 -8,3 -12,6l-2 -2c0,-1 0,-1 -1,-1 -4,-26 -6,-43 -6,-52l0 0c1,0 1,-1 1,-1 1,-1 2,-3 2,-4zm1 -7l0 0c-1,2 -2,4 -3,6 0,-1 0,-2 0,-2 0,-5 1,-9 2,-13 0,2 0,5 1,9zm-366 -305l0 0c1,0 1,0 2,0l1 0c15,6 37,15 66,28 2,1 5,3 10,7l1 0c-4,-2 -8,-4 -12,-5l-96 -24c11,0 18,-1 22,-3 1,-1 2,-1 2,-1 2,-1 3,-1 4,-2zm118 60l0 0c19,8 43,12 71,14 18,2 46,-3 82,-15 7,-2 14,-3 20,-5 34,0 56,0 66,-1 -1,1 -3,2 -4,3l-1 0 -29 12c-46,18 -92,26 -136,23 -19,-2 -42,-12 -70,-31l1 0zm222 -15l0 0c-7,1 -13,1 -18,1 0,0 0,0 0,0 6,-2 9,-3 10,-3 2,1 5,2 8,2z"/>
    <path class="fil4" d="M1031 177c-1,2 -3,3 -5,5 -10,10 -18,20 -23,28 -7,5 -15,10 -23,15 -25,18 -52,30 -79,37 -18,-7 -33,-10 -45,-8 0,3 -1,7 -2,13 -7,0 -13,0 -20,-1 -27,-2 -56,-9 -86,-22 0,-1 1,-2 1,-2 2,-9 4,-17 7,-25l2 1c0,-1 0,-2 2,-3 0,0 1,0 2,1 48,22 77,34 89,35 51,4 114,-25 186,-87 2,-2 4,-3 6,-4 -3,3 -7,8 -11,16l0 0c0,1 0,1 -1,1zm18 24l0 0c-6,1 -10,1 -14,1 0,0 1,-1 1,-1 5,-4 11,-7 17,-6l-3 0c0,0 0,2 -1,6zm-217 15l0 0c3,0 5,0 7,1 7,0 14,1 21,0 -8,1 -16,1 -23,1 -1,-1 -2,-1 -5,-2zm141 -8l0 0c-3,2 -6,4 -8,6 -36,24 -74,35 -114,32 -6,-1 -17,-4 -31,-10 7,2 14,3 20,4 24,2 69,-9 133,-32zm-17 237l0 0c-10,-3 -19,-4 -29,-4 1,-4 1,-8 1,-11 1,-13 -29,-24 -88,-33 -60,-10 -90,-8 -91,4 0,2 0,6 0,10 0,3 0,6 -1,9 -4,5 -7,8 -11,7 -3,1 -5,1 -7,2 2,-9 3,-17 3,-25 0,-9 -9,-16 -28,-22 3,-3 6,-7 9,-11l18 -45c0,-1 1,-2 1,-2 1,-5 2,-10 3,-15 6,-3 13,-7 21,-13 -5,-3 -11,-3 -18,0 0,0 0,0 0,0l1 -1c1,-1 2,-1 3,-1 7,-3 14,-5 20,-6l0 -1c1,0 1,-1 2,-1 0,0 0,1 0,1 3,-1 6,-2 9,-2 1,-6 1,-10 0,-14 -1,-5 -2,-9 -4,-12 37,11 58,17 64,17 6,1 12,1 17,0 -2,9 -5,20 -9,32 0,3 1,4 2,4 0,1 2,1 4,0 3,-1 7,-1 11,-1 5,11 18,22 37,31 17,9 32,13 44,14 5,1 10,1 15,0l3 -6c-1,-2 -1,-2 -1,-3 2,0 4,0 4,-1 3,-8 4,-14 4,-19 0,-2 1,-5 3,-10 1,-5 2,-8 2,-10 0,-6 -13,-17 -40,-33 -7,-3 -13,-6 -18,-8 20,-8 42,-17 64,-30 8,-5 15,-9 22,-13l0 1c0,3 0,5 0,6l8 3c2,0 10,-3 24,-9l-1 2c-3,5 -6,9 -9,12 -6,8 -9,13 -9,16 0,3 1,5 4,6 2,1 4,3 4,6 0,1 0,3 -1,5 -1,1 -1,1 -2,2 -3,5 -11,21 -24,47 -21,39 -33,81 -36,125zm0 14l0 0c-1,4 -2,9 -2,15 0,3 0,6 2,9l-19 0c-10,-8 -16,-7 -16,4 0,1 1,3 4,6l0 1c1,1 2,1 3,2 4,3 10,8 18,13 11,9 18,21 21,37 -2,20 -6,42 -12,65 -11,33 -24,56 -40,70 -34,34 -61,57 -80,69 -35,21 -74,35 -117,40l-15 -1c-4,-4 -7,-12 -8,-24 -1,-9 -2,-15 -1,-20 0,-5 2,-10 4,-13 1,0 1,0 1,0 7,0 17,4 33,10l4 1c50,2 92,-19 124,-64 25,-33 38,-64 39,-95 0,-6 0,-13 0,-19 -1,-2 -1,-3 -1,-4 0,-3 -1,-5 -1,-7 -2,-7 -4,-13 -7,-18 0,0 1,0 1,-1 15,-1 24,-7 28,-16 -1,-17 -1,-27 -1,-32 4,-14 7,-27 8,-36l3 0c8,2 17,5 27,8zm44 131l0 0c10,-26 17,-53 22,-79l3 -7c1,-1 2,-2 3,-2 12,-10 25,-14 38,-14 6,5 11,14 14,26 0,1 1,2 1,4 2,8 3,17 4,25 -1,8 -5,19 -14,32 -11,21 -26,30 -43,29 -8,-1 -16,-5 -26,-12 -1,-1 -2,-1 -2,-2zm51 -66l0 0c-4,1 -9,3 -13,5 -9,7 -14,14 -15,22 0,3 0,5 1,6l3 1c-1,3 -1,5 -1,7 0,3 1,6 3,7 -1,2 -2,5 -2,7 2,-1 5,-2 8,-4 2,1 5,1 8,2 6,0 12,-4 19,-12 8,-8 11,-16 11,-23 2,-21 -6,-27 -22,-18zm-296 -269l0 0c-2,0 -4,1 -7,2 -1,0 -2,1 -2,2 0,-1 0,-2 0,-3 3,0 6,-1 9,-1zm-471 336l0 0c-1,1 -2,3 -3,4 -9,12 -14,19 -16,21 -7,10 -16,22 -24,34 -5,8 -10,15 -13,20 -10,0 -20,-2 -31,-6 -18,-9 -29,-14 -33,-15 -17,-6 -41,-8 -71,-5 -23,2 -35,-2 -37,-13 -1,-1 -1,-3 -1,-5 0,-3 1,-6 3,-7l25 -6c1,0 6,0 15,-1 10,0 19,-2 26,-3 3,-1 4,-3 3,-6 -1,-8 -20,-12 -55,-13 -25,0 -41,-1 -49,-4 -3,-1 -5,-2 -5,-3 0,-2 1,-4 3,-6 0,-1 1,-2 2,-3 5,-5 10,-8 17,-9 7,-2 23,-2 49,-1 12,1 25,1 37,2 2,0 3,-1 3,-1 1,-1 1,-3 1,-5 -2,-7 -22,-16 -61,-27 -38,-10 -58,-19 -60,-25 0,-2 0,-4 1,-9 1,-3 2,-6 3,-7l10 -3c23,2 50,8 81,21 16,6 30,12 43,17 6,-1 9,-3 10,-4 1,-1 1,-2 0,-4 -1,-8 -17,-21 -47,-42 -29,-19 -46,-36 -49,-49 -1,-4 -2,-7 -2,-9 0,-3 1,-7 2,-11l9 -2c40,14 77,39 110,75 8,8 18,19 29,32 8,9 13,13 17,12 1,0 4,-8 11,-24 6,-16 15,-25 25,-28l8 -1 2 8c0,4 -1,17 -4,37 -2,16 -3,28 -1,35 0,1 3,8 9,23 3,7 6,12 8,16zm-41 -34l0 0c-6,-25 -12,-31 -18,-17 -7,14 -8,28 -5,42l3 10 -12 3c-12,-1 -19,-1 -23,-1 -4,0 -12,1 -23,4 -13,3 -18,9 -16,16 1,5 6,9 14,11 13,5 29,4 48,0 20,-5 31,-16 34,-35 2,-9 2,-20 -2,-33zm-60 -36l0 0c-1,-3 -2,-6 -5,-11 -14,9 -25,19 -33,31 -9,14 -13,26 -10,36 0,1 0,2 1,6 2,3 4,4 7,4 6,-2 15,-13 26,-33 10,-19 15,-30 14,-33zm634 -88l0 0c-2,-3 -6,-7 -13,-13 -17,-5 -30,-3 -40,6 -7,7 -10,14 -10,21 0,6 0,9 0,10 2,5 8,10 16,15l25 2c9,-3 16,-7 19,-12 2,-3 2,-8 3,-16 0,-7 0,-11 0,-13zm-34 -29l0 0c10,3 30,10 59,19 36,12 53,24 52,36 0,8 -2,21 -6,37 -2,10 -4,18 -5,25l-40 -3c-2,-1 -16,-2 -44,-5 -27,-2 -46,-7 -55,-15 1,-6 3,-16 6,-32 1,-15 4,-26 7,-32 1,-7 2,-12 3,-16 2,-7 7,-12 15,-13 2,-1 5,-1 8,-1zm132 32l0 0c0,-4 -1,-6 -2,-8 -1,-1 -1,-2 -1,-2 2,2 3,4 3,7 0,1 0,2 0,3zm-230 -31l0 0c3,-4 6,-9 9,-14 1,1 2,2 4,2 8,3 15,7 21,12 -1,2 -1,5 -2,8 -3,-8 -11,-11 -23,-10 -3,0 -6,1 -9,2zm-2 59l0 0c-3,1 -5,1 -8,2 -14,5 -26,8 -35,12 4,-10 9,-20 16,-30 3,-5 7,-11 12,-18 0,5 1,10 3,17 3,8 7,14 12,17zm-27 36l0 0c11,1 22,2 32,3 14,1 25,-14 35,-45 2,-6 4,-13 5,-19l14 2c0,2 -3,21 -10,57 0,4 0,7 1,8 1,3 4,6 9,9 5,2 20,5 46,10 27,5 52,8 74,10 -6,5 -12,11 -19,20 -7,10 -13,16 -19,19 -2,2 -30,8 -81,20 -46,11 -70,18 -73,21 -8,-7 -17,-22 -26,-46l-15 -50c0,-1 0,-2 0,-3 0,-1 1,-3 2,-4 0,-5 0,-10 1,-15l12 3c4,-1 8,-1 12,0zm-6 23l0 0c-1,0 -3,1 -6,4 8,1 12,2 13,1 -4,-2 -6,-4 -7,-5zm47 -78l0 0 3 0c-2,3 -5,5 -7,5l-2 -3 6 -2zm-3 43l0 0c2,0 3,-1 5,-2 -1,1 -1,2 -2,3l-3 -1zm22 69l0 0c2,0 6,-2 11,-4 -3,-2 -8,-4 -16,-5 -7,-2 -12,-2 -14,-1l0 5c2,2 8,4 19,5zm-15 -19l0 0c6,0 16,-1 32,-5 8,0 23,1 46,3 19,1 31,1 37,1 -25,-9 -52,-16 -82,-20 -36,-5 -58,-3 -67,5 10,10 21,15 34,16zm-539 6l0 0c0,1 -1,3 -2,4 -1,1 -1,2 -1,2l0 -1 3 -5zm-96 -33l0 0 -1 0c-4,0 -6,1 -8,2 -2,1 -3,3 -2,5 0,2 1,3 1,3 1,0 1,1 3,1 2,-2 4,-3 6,-5 1,-1 2,-2 1,-4 0,-1 0,-2 0,-2zm40 18l0 0c1,-3 1,-5 0,-7 -1,-1 -1,-2 -1,-3 -10,1 -14,4 -12,9 0,1 1,2 3,4 2,2 4,3 6,2 2,0 4,-2 4,-5zm-7 -75l0 0c1,-1 3,-3 4,-5 1,-3 2,-4 2,-5 -2,-4 -5,-4 -8,-1 -2,2 -3,5 -2,7 0,2 1,3 1,3 0,0 1,1 3,1zm27 23l0 0c0,0 1,2 1,5 2,2 4,3 8,2 6,-1 9,-4 12,-8 1,-3 2,-7 1,-10 -1,-5 -5,-6 -13,-2 -7,3 -10,8 -9,13z"/>
    <path class="fil5" d="M854 267c-1,3 -2,6 -3,9 -5,1 -11,1 -17,0 -6,0 -27,-6 -64,-17 -4,-7 -12,-11 -22,-12 0,-1 0,-2 0,-3 30,13 59,20 86,22 7,1 13,1 20,1zm143 194l0 0 0 1c-1,-1 -2,-1 -2,-2 -1,-1 -2,-1 -2,-1 -3,-1 -6,-3 -8,-4 -2,-1 -3,-1 -5,-2 -8,-4 -16,-7 -24,-8 3,-44 15,-86 36,-125 13,-26 21,-42 24,-47 1,-1 1,-1 2,-2 1,-2 1,-4 1,-5 0,-3 -2,-5 -4,-6 -3,-1 -4,-3 -4,-6 0,-3 3,-8 9,-16 3,-3 6,-7 9,-12l1 -2c-14,6 -22,9 -24,9l-8 -3c0,-1 0,-3 0,-6l0 -1c-7,4 -14,8 -22,13 -22,13 -44,22 -64,30 -4,-2 -7,-3 -11,-4 27,-7 54,-19 79,-37 8,-5 16,-10 23,-15 5,-8 13,-18 23,-28 2,-2 4,-3 5,-5 0,0 0,1 0,2 -7,13 -10,22 -11,27 0,2 0,4 1,5l2 0c3,-2 6,-5 12,-9 4,0 8,0 14,-1 -3,5 -6,14 -11,26 0,4 2,5 5,2 4,0 8,-3 13,-7 6,-4 10,-7 13,-8 -43,55 -67,110 -72,162 -1,4 -1,7 -1,10 0,1 0,2 0,4 -1,12 -1,27 0,46 0,8 1,16 1,25zm-24 -253l0 0c-64,23 -109,34 -133,32 -6,-1 -13,-2 -20,-4l-1 0c-16,-4 -34,-12 -53,-23l-1 0c-1,-1 -2,-2 -3,-2 4,-8 7,-15 10,-21 21,14 41,23 60,26 3,1 4,1 5,2 7,0 15,0 23,-1 42,1 84,-8 126,-27 12,-4 25,-10 38,-18 -21,14 -37,26 -51,36zm-114 103l0 0c12,0 29,5 51,14 15,7 30,14 45,22 0,0 1,0 2,0 0,1 0,1 1,3l-3 6c-5,1 -10,1 -15,0 -12,-1 -27,-5 -44,-14 -19,-9 -32,-20 -37,-31zm-120 -14l0 0c0,0 0,0 0,-1 7,-3 13,-3 18,0 -8,6 -15,10 -21,13 1,-2 1,-4 2,-7l0 0 0 -3c0,-1 0,-1 1,-2zm261 293l0 0c0,0 0,0 -1,-1 0,0 -1,0 -1,0l0 0c-1,-4 -3,-8 -6,-11l-3 2c-1,-1 -1,-1 -1,-2 -2,0 -4,2 -5,5 0,1 2,4 4,7 -21,62 -38,101 -51,116 -34,43 -96,72 -187,86l-31 -2c43,-5 82,-19 117,-40 19,-12 46,-35 80,-69 16,-14 29,-37 40,-70 6,-23 10,-45 12,-65 -3,-16 -10,-28 -21,-37 -8,-5 -14,-10 -18,-13 -1,-1 -2,-1 -3,-2l0 -1c-3,-3 -4,-5 -4,-6 0,-11 6,-12 16,-4l19 0c-2,-3 -2,-6 -2,-9 0,-6 1,-11 2,-15 9,4 18,9 29,15 2,1 3,1 5,2 3,1 6,3 10,6 0,1 0,1 0,2 0,8 0,14 2,20l-2 7 -1 12c0,12 0,20 1,26l3 0 19 -38c-5,26 -12,53 -22,79zm35 -15l0 0c6,-4 9,-13 10,-25 1,-14 9,-23 24,-26 -6,-2 -12,-2 -18,0 16,-9 24,-3 22,18 0,7 -3,15 -11,23 -7,8 -13,12 -19,12 -3,-1 -6,-1 -8,-2zm-8 -17l0 0c4,-3 8,-7 10,-13l2 1c-2,5 -5,14 -10,26 -2,-1 -3,-4 -3,-7 0,-2 0,-4 1,-7zm-266 -301l0 0c-1,-1 -2,-1 -2,-1 -2,0 -3,-1 -4,-1 2,-1 3,-1 5,0 0,0 0,1 0,1 0,0 1,1 1,1zm-578 264l0 0c1,3 -4,14 -14,33 -11,20 -20,31 -26,33 -3,0 -5,-1 -7,-4 -1,-4 -1,-5 -1,-6 -3,-10 1,-22 10,-36 8,-12 19,-22 33,-31 3,5 4,8 5,11zm60 36l0 0c4,13 4,24 2,33 -3,19 -14,30 -34,35 -19,4 -35,5 -48,0 -8,-2 -13,-6 -14,-11 -2,-7 3,-13 16,-16 11,-3 19,-4 23,-4 4,0 11,0 23,1l12 -3 -3 -10c-3,-14 -2,-28 5,-42 6,-14 12,-8 18,17zm574 -124l0 0c0,2 0,6 0,13 -1,8 -1,13 -3,16 -3,5 -10,9 -19,12l-25 -2c-8,-5 -14,-10 -16,-15 0,-1 0,-4 0,-10 0,-7 3,-14 10,-21 10,-9 23,-11 40,-6 7,6 11,10 13,13zm-41 2l0 0c-4,0 -7,1 -9,2 -1,1 -2,5 -2,10 0,6 0,10 1,11 2,5 6,8 13,9 4,0 5,0 3,-2 2,-4 3,-10 4,-16l0 -7c-1,-4 -4,-6 -10,-7zm-67 27l0 0c-5,3 -12,5 -20,4 -2,0 -4,-1 -6,-2 -5,-3 -9,-9 -12,-17 -2,-7 -3,-12 -3,-17l0 0c1,-3 3,-6 6,-8l9 -14c1,-1 2,-2 2,-3 3,-1 6,-2 9,-2 12,-1 20,2 23,10 -2,8 -4,20 -6,35 -1,5 -1,9 -2,14zm153 73l0 0c2,0 5,1 7,0 2,1 4,1 6,1 4,1 8,1 12,0 0,0 1,-1 2,-1 -6,7 -12,13 -19,20 -2,2 -5,4 -7,6 -11,8 -25,17 -40,25 -47,27 -95,38 -144,34l-2 0c-2,-1 -5,-2 -7,-4l0 -1c3,-3 27,-10 73,-21 51,-12 79,-18 81,-20 6,-3 12,-9 19,-19 7,-9 13,-15 19,-20zm-212 -12l0 0c1,1 3,3 7,5 -1,1 -5,0 -13,-1 3,-3 5,-4 6,-4zm47 -78l0 0 -6 2 2 3c2,0 5,-2 7,-5l2 -1c2,-3 2,-7 2,-10 1,-9 -1,-15 -7,-18 -6,-2 -9,2 -9,11l2 13c2,2 4,4 7,5zm19 112l0 0c-11,-1 -17,-3 -19,-5l0 -5c2,-1 7,-1 14,1 8,1 13,3 16,5 -5,2 -9,4 -11,4zm-15 -19l0 0c-13,-1 -24,-6 -34,-16 9,-8 31,-10 67,-5 30,4 57,11 82,20 -6,0 -18,0 -37,-1 -23,-2 -38,-3 -46,-3 -16,4 -26,5 -32,5zm-575 -61l0 0c-1,-5 2,-10 9,-13 8,-4 12,-3 13,2 1,3 0,7 -1,10 -3,4 -6,7 -12,8 -4,1 -6,0 -8,-2 0,-3 -1,-5 -1,-5zm-27 -23l0 0c-2,0 -3,-1 -3,-1 0,0 -1,-1 -1,-3 -1,-2 0,-5 2,-7 3,-3 6,-3 8,1 0,1 -1,2 -2,5 -1,2 -3,4 -4,5zm7 75l0 0c0,3 -2,5 -4,5 -2,1 -4,0 -6,-2 -2,-2 -3,-3 -3,-4 -2,-5 2,-8 12,-9 0,1 0,2 1,3 1,2 1,4 0,7zm-40 -18l0 0c0,0 0,1 0,2 1,2 0,3 -1,4 -2,2 -4,3 -6,5 -2,0 -2,-1 -3,-1 0,0 -1,-1 -1,-3 -1,-2 0,-4 2,-5 2,-1 4,-2 8,-2l1 0zm96 33l0 0 -3 5 0 1c0,0 0,-1 1,-2 1,-1 2,-3 2,-4z"/>
    <path class="fil6" d="M1072 99c-1,-4 -1,-7 -2,-10 -6,-23 -15,-36 -26,-39 0,-1 0,-3 0,-8 0,-4 0,-7 -2,-10 15,2 24,6 28,12 2,2 4,12 8,27 1,5 3,14 4,26 -2,-4 -5,-8 -8,-12 0,5 -1,10 -2,14zm53 50l0 0 -14 5 0 -1c4,-12 5,-27 4,-45l-2 0c0,-7 0,-12 -1,-17 0,-1 0,-2 0,-3 -2,-2 -5,-4 -12,-4 2,-2 4,-5 5,-9 2,-3 6,-7 10,-10 4,5 8,13 10,22 4,14 3,35 0,62zm-18 380l0 0c-2,-1 -3,-2 -4,-2l-12 -6c0,0 -1,0 -1,0l-6 -24c0,0 -1,0 -1,0 -1,-2 -2,-3 -2,-5 -2,-1 -2,-2 -3,-3 1,-1 2,-3 3,-4 61,-72 92,-136 95,-191 1,-23 -1,-43 -7,-58 -8,-22 -22,-40 -43,-53 0,-1 0,-2 0,-2 3,0 8,0 14,0 12,-1 20,-3 25,-5 -13,-4 -26,-3 -39,2 0,-1 0,-1 1,-2 3,-3 7,-5 10,-8 9,-1 15,0 19,2l1 -2c-5,-2 -9,-5 -12,-7 9,-7 13,-11 14,-13 0,-3 -1,-5 -3,-6 0,0 -2,-1 -4,-2l-21 7c6,-20 15,-23 28,-8l36 -9c5,1 7,1 8,2 3,1 5,4 6,9 1,4 0,7 -1,10 0,0 -4,7 -13,21 15,0 25,1 31,2 7,2 11,6 13,11 0,3 -1,6 -6,10 -7,6 -12,11 -14,13 -13,15 -16,37 -9,65 2,9 2,24 -1,43 -1,11 -4,27 -8,48 -5,40 -15,72 -30,97 -15,26 -37,49 -64,68zm-583 342l0 0c0,2 0,4 1,6 0,2 0,4 0,5 1,6 2,11 3,16 -34,-14 -75,-33 -123,-56 -46,-23 -90,-47 -133,-70 -39,-21 -58,-33 -59,-35 0,0 3,-3 8,-9 5,-6 9,-15 9,-25 -5,-2 -36,-7 -94,-14 -51,-7 -78,-15 -80,-22 -2,-7 2,-12 11,-15 1,0 3,0 6,1 5,1 12,1 19,1 0,0 0,0 1,0 37,0 58,1 63,2 5,2 17,8 37,17 11,4 20,7 29,8 -2,4 -2,7 -2,9 1,3 34,24 100,62 90,51 139,80 148,85 12,7 31,19 56,34zm644 -710l0 0c-2,0 -4,2 -7,4 5,0 11,-2 17,-7l1 -1c-5,1 -9,2 -11,4zm29 35l0 0c-6,0 -13,0 -20,0l0 3c5,2 9,2 14,1l6 -4zm-16 70l0 0 5 23c-1,-11 -3,-19 -5,-23zm-49 194l0 0 -2 3c7,-4 12,-12 18,-25 4,-11 6,-19 6,-24 -10,24 -17,39 -22,46z"/>
    <path class="fil7" d="M719 303c-1,0 -3,1 -5,1 -2,1 -4,2 -6,4l-1 1c-3,1 -6,3 -10,5l-28 18c-5,-3 -9,-10 -11,-19 -2,-10 -5,-17 -7,-22l-5 2c-1,0 -2,0 -3,0l0 0c-1,-1 -2,-3 -2,-4l66 -35c14,-4 25,-6 35,-6 0,-1 1,-1 2,-1 0,-2 0,-3 0,-4 2,-1 3,-1 5,-1 0,0 -1,1 -1,2 0,1 0,2 0,3 10,1 18,5 22,12l2 5c0,1 1,4 2,7 0,0 0,0 0,0 1,4 1,8 0,14 -3,0 -6,1 -9,2 0,0 0,-1 0,-1 0,-1 0,-1 0,-3l-3 -17c0,-2 -1,-3 -1,-5 0,-1 0,-2 0,-3l0 -1c0,0 -1,-1 -1,-1 0,0 0,-1 0,-1 -2,-1 -3,-1 -5,0l0 0c-3,0 -6,1 -9,1 0,1 0,2 0,3 -1,-1 -1,0 0,0 -3,0 -5,1 -7,1 0,-1 1,-2 1,-2 -10,1 -20,4 -29,7 -1,0 -1,0 -2,0 -12,3 -24,8 -37,15l-5 3c-3,0 -6,1 -8,2l1 1c-1,0 -2,1 -3,1 1,2 2,5 3,8 1,2 2,5 3,9 0,1 0,1 1,1 2,7 4,12 6,15 9,-13 30,-23 62,-29 1,-3 1,-5 2,-6 2,-1 5,-1 8,-1 -1,2 -1,4 -1,5 7,-1 14,-2 21,-3l1 1 0 1c-6,1 -13,3 -20,6 -1,0 -2,0 -3,1l-1 1c0,0 0,0 0,0 0,1 0,1 0,1 -3,1 -6,2 -9,3 0,-1 0,-1 0,-2 -4,1 -7,3 -11,5zm132 -27l0 0c1,-3 2,-6 3,-9 1,-6 2,-10 2,-13 12,-2 27,1 45,8 4,1 7,2 11,4 5,2 11,5 18,8 27,16 40,27 40,33 0,2 -1,5 -2,10 -2,5 -3,8 -3,10 0,5 -1,11 -4,19 0,1 -2,1 -4,1 -1,0 -2,0 -2,0 -15,-8 -30,-15 -45,-22 -22,-9 -39,-14 -51,-14 -4,0 -8,0 -11,1 -2,1 -4,1 -4,0 -1,0 -2,-1 -2,-4 4,-12 7,-23 9,-32zm40 259l0 0c-1,-2 -2,-3 -3,-3 -2,-1 -6,0 -13,4 -2,0 -4,0 -6,-1 -2,1 -5,0 -7,0 -22,-2 -47,-5 -74,-10 -26,-5 -41,-8 -46,-10 -5,-3 -8,-6 -9,-9 -1,-1 -1,-4 -1,-8 7,-36 10,-55 10,-57l-14 -2c-1,6 -3,13 -5,19 -10,31 -21,46 -35,45 -10,-1 -21,-2 -32,-3 -3,-1 -6,-1 -9,-2 -21,-4 -32,-7 -32,-7 -3,0 -5,1 -8,4 -17,-3 -36,-6 -55,-8 -5,-5 -8,-9 -9,-11 -1,-1 -1,-5 0,-12 1,-31 6,-56 14,-74 3,-5 4,-11 4,-18 1,-4 2,-6 4,-7 12,1 31,2 58,5 5,3 26,5 62,9 5,1 11,2 16,2 1,0 2,1 2,1l1 0 1 0c19,6 28,13 28,22 0,8 -1,16 -3,25 2,-1 4,-1 7,-2 4,1 7,-2 11,-7 1,-3 1,-6 1,-9 0,-4 0,-8 0,-10 1,-12 31,-14 91,-4 59,9 89,20 88,33 0,3 0,7 -1,11 10,0 19,1 29,4 8,1 16,4 24,8 2,1 3,1 5,2 2,1 5,3 8,4 0,0 1,0 2,1 0,1 1,1 2,2l0 -1c2,1 5,2 9,2l0 1c1,1 1,2 0,3 3,2 6,4 9,7 1,0 2,1 3,3l4 3c1,1 2,3 4,6 1,0 1,0 1,1 -1,1 -2,2 -3,3 0,0 -1,1 -1,2l-3 -1c-1,0 -3,-1 -7,-2l-1 -1c-1,0 -2,-1 -4,-2l0 1c-1,-1 -2,-1 -3,-2 -2,-1 -4,-1 -5,-1 0,-1 0,-1 0,-2 -4,-3 -7,-5 -10,-6 -2,-1 -3,-1 -5,-2 -11,-6 -20,-11 -29,-15 -10,-3 -19,-6 -27,-8l-3 0c-1,9 -4,22 -8,36 0,5 0,15 1,32 -4,9 -13,15 -28,16zm-3 -268l0 0c-8,-2 -17,-3 -27,-4l-10 37 1 1c38,5 71,16 100,32l5 -12 5 -16c-4,0 -17,-8 -38,-23 -10,-7 -22,-12 -36,-15zm-5 254l0 0 10 1c2,-3 5,-16 11,-40l10 -38c0,-2 0,-5 1,-7 0,0 0,0 0,0 0,-1 0,-1 0,-1 0,-1 0,-2 0,-3 0,-3 -1,-5 -3,-7 -4,-4 -12,-5 -24,-4 -12,0 -31,-4 -58,-11 -19,-6 -35,-8 -47,-7 -3,0 -6,0 -8,1 -8,1 -13,6 -15,13 -1,4 -2,9 -3,16 -3,6 -6,17 -7,32 -3,16 -5,26 -6,32 9,8 28,13 55,15 28,3 42,4 44,5l40 3zm-107 -86l0 0c6,1 9,3 10,7l0 7c-1,6 -2,12 -4,16 2,2 1,2 -3,2 -7,-1 -11,-4 -13,-9 -1,-1 -1,-5 -1,-11 0,-5 1,-9 2,-10 2,-1 5,-2 9,-2zm-6 16l0 0c0,3 1,4 2,4 2,1 3,-1 3,-4 0,-3 0,-5 -2,-5 -2,-1 -3,1 -3,5zm-126 31l0 0c14,2 25,3 32,5l18 1 3 1c1,-1 1,-2 2,-3l1 1c2,-4 3,-8 5,-12l4 -13c1,-5 1,-9 2,-14 2,-15 4,-27 6,-35 1,-3 1,-6 2,-8 -6,-5 -13,-9 -21,-12 0,-8 -4,-10 -11,-4 -13,-3 -29,-6 -48,-6 -24,0 -42,0 -55,-1 -2,0 -3,0 -5,0l-10 -2c0,1 -1,1 -1,0l1 5c-1,5 -2,9 -3,14l-11 55c-1,6 -2,9 -2,11l2 8c3,0 6,1 10,1l58 6c1,0 2,0 4,0 2,2 5,3 9,3 3,0 5,0 8,-1zm50 -48l0 0 1 -6 0 -1 -4 0 0 2 2 5 1 0zm6 11l0 0 -3 0c-3,-1 -5,-3 -7,-5l-2 -13c0,-9 3,-13 9,-11 6,3 8,9 7,18 0,3 0,7 -2,10l-2 1z"/>
    <path class="fil8" d="M957 321c-54,-30 -86,-48 -97,-53 9,-2 19,-2 28,-1 14,3 26,8 36,15 21,15 34,23 38,23l-5 16zm-221 -46l0 0c-12,6 -28,13 -46,20 -10,4 -18,7 -26,10 -1,0 -1,0 -1,-1 -1,-4 -2,-7 -3,-9 6,-4 13,-10 21,-15 10,-6 19,-11 28,-15 1,0 1,0 2,0 9,-3 19,-6 29,-7 0,0 -1,1 -1,2 -1,2 -1,5 -2,8l0 2c0,1 -1,3 -1,5z"/>
    <path class="fil9" d="M774 271c0,0 0,0 0,0 -1,-3 -2,-6 -2,-7l-2 -5c2,3 3,7 4,12zm-11 16l0 0 -1 -1c-7,1 -14,2 -21,3 0,-1 0,-3 1,-5 0,-3 1,-6 1,-9l1 -6c0,-4 1,-7 2,-10 -1,0 -1,-1 0,0 0,-1 1,-2 2,-2 3,-1 5,-2 7,-2l0 0c1,0 2,1 4,1 0,0 1,0 2,1l0 1c0,1 0,2 0,3 0,2 1,3 1,5l3 17c0,2 0,2 0,3 -1,0 -1,1 -2,1zm194 34l0 0 -5 12c-29,-16 -62,-27 -100,-32l-1 -1 10 -37c10,1 19,2 27,4 -9,-1 -19,-1 -28,1 11,5 43,23 97,53zm-297 -35l0 0c2,-1 4,-2 7,-3l5 -3c13,-7 25,-12 37,-15 -9,4 -18,9 -28,15 -8,5 -15,11 -21,15 -1,-3 -2,-6 -3,-8 1,0 2,-1 3,-1zm76 -11l0 0c-1,3 -2,7 -2,10 -1,1 -1,3 -2,6 -32,6 -53,16 -62,29 -2,-3 -4,-8 -6,-15 8,-3 16,-6 26,-10 18,-7 34,-14 46,-20z"/>
    <path class="fil10" d="M1092 533c24,12 45,25 64,40 -9,6 -17,13 -24,19 8,-4 17,-9 28,-15 7,5 12,11 18,16 -14,10 -24,18 -30,23l2 1c5,-4 15,-11 30,-22 6,6 11,12 17,19 3,11 6,20 10,29 8,19 12,30 12,32 5,17 2,64 -6,141 -1,10 -7,25 -16,48 -13,29 -29,58 -48,85 -57,80 -129,131 -218,153 -47,11 -100,16 -158,13 -28,-2 -47,-3 -57,-4 -2,0 -4,0 -5,0 -20,-10 -41,-21 -62,-34 11,-7 28,-19 49,-34 0,-1 -2,-1 -4,-1l-3 0c-14,10 -31,21 -48,32 -17,-11 -37,-35 -60,-72 -22,-35 -36,-63 -43,-84 15,7 32,13 51,19 36,12 64,17 86,16 1,1 2,3 4,4 -2,0 -4,0 -6,0 -9,1 -22,4 -39,11 1,-1 13,-1 37,-2 5,0 10,-1 14,-1 10,10 21,20 33,31 25,21 52,36 80,45 3,2 6,3 8,3 0,0 1,0 1,-1 23,7 46,9 70,7l71 -17c50,-17 93,-51 129,-103 42,-59 54,-122 39,-187 -9,-36 -22,-68 -39,-97 -9,-14 -17,-26 -26,-35 -2,1 -3,1 -4,1 12,-4 22,-12 29,-26 9,-14 14,-28 14,-42 0,-4 0,-8 0,-11zm111 213l0 0c-2,-5 -3,-9 -5,-10 -1,-1 -4,-3 -9,-5 -2,1 -3,4 -4,7 -1,4 -1,9 0,14 1,6 3,10 5,12 1,3 5,5 9,7 1,-1 3,-2 4,-4 1,-1 2,-2 3,-2 0,-5 -1,-11 -3,-19zm-2 -57l0 0c-2,-4 -3,-8 -4,-10 -2,-4 -4,-7 -6,-9 -3,3 -5,8 -7,14 -1,5 -1,9 -1,12 1,5 2,7 2,7 1,0 2,1 4,1 8,-4 12,-9 12,-15zm63 76l0 0c5,26 7,50 6,71 0,3 0,7 0,11 -6,-1 -10,-1 -11,0 4,-33 5,-59 5,-78 0,-2 0,-3 0,-4zm-26 101l0 0c0,-6 0,-12 3,-18l-1 -2c2,3 2,7 2,11 0,5 -1,9 -3,11l-1 -2zm-24 119l0 0c-4,2 -8,3 -13,5 11,-11 21,-22 30,-33 -5,10 -11,19 -17,28zm-185 139l0 0c-2,0 -5,1 -8,2 4,-3 7,-5 8,-5 0,1 0,2 0,3zm-171 28l0 0c23,-4 47,-9 74,-16 7,-2 22,-6 45,-14 25,-8 40,-13 47,-17l-4 4c-11,8 -20,15 -27,20 -4,3 -7,6 -9,8 -48,12 -90,17 -126,15zm-298 -274l0 0c-9,-4 -17,-8 -25,-12 0,-1 0,-1 0,-1 3,2 6,3 10,5 5,3 10,5 15,8zm124 -137l0 0c-5,2 -13,13 -23,34 -10,19 -16,33 -19,42 0,1 0,2 0,3 -4,-2 -7,-5 -11,-7 -17,-11 -31,-20 -42,-25 -14,-7 -29,-16 -45,-28 3,-9 6,-23 12,-40 5,-16 12,-30 20,-43 8,-13 24,-29 47,-48 8,-7 17,-14 27,-23 11,15 22,22 35,23 8,1 16,1 24,1 5,8 15,13 29,14 16,2 32,0 46,-4 2,-1 4,-1 6,-2 2,8 4,16 8,24 -24,11 -36,17 -38,18 -25,17 -39,27 -41,28 -7,5 -13,9 -17,13 -5,-2 -8,-4 -8,-4 -3,0 -5,1 -6,2l-1 0c0,1 0,2 0,3l0 1c0,4 -2,11 -3,18z"/>
    <path class="fil11" d="M787 1026c5,7 10,12 13,15 -28,-9 -55,-24 -80,-45 -12,-11 -23,-21 -33,-31 -4,0 -9,1 -14,1 -24,1 -36,1 -37,2 17,-7 30,-10 39,-11 2,0 4,0 6,0 -2,-1 -3,-3 -4,-4 -22,1 -50,-4 -86,-16 -19,-6 -36,-12 -51,-19 7,21 21,49 43,84 23,37 43,61 60,72 17,-11 34,-22 48,-32l3 0c2,0 4,0 4,1 -21,15 -38,27 -49,34 21,13 42,24 62,34 47,22 90,35 130,40 0,0 1,0 1,0l14 1c1,0 1,0 2,0l0 0c36,2 78,-3 126,-15 0,0 1,0 1,0 12,-3 24,-7 36,-11 3,-1 6,-2 8,-2 43,-16 81,-37 115,-65 1,-1 1,-1 2,-2 1,0 1,-1 2,-1 1,-1 1,-2 2,-2 1,-1 1,-1 2,-2 0,0 1,-1 2,-1 1,-1 1,-2 2,-2 1,-1 1,-1 2,-2 0,0 1,-1 1,-1 21,-19 39,-39 55,-61 6,-9 12,-18 17,-28 4,-6 8,-14 12,-21 0,-1 1,-3 2,-4 0,-2 1,-4 2,-5 0,-1 1,-2 1,-2 0,-1 1,-3 2,-4 0,-1 0,-1 0,-2 1,-1 1,-2 2,-3 0,-1 0,-1 0,-2 1,-1 1,-2 2,-3 0,-1 1,-2 1,-4 1,-2 2,-5 3,-7 0,-1 0,-3 1,-4 0,-1 0,-2 1,-3 0,0 0,0 0,-1 0,0 0,-1 1,-1 0,0 0,-1 0,-2 0,0 0,-1 0,-1 1,-2 1,-4 2,-5 0,-1 0,-2 0,-2 0,-1 1,-2 1,-2 0,-1 0,-1 0,-2 0,-1 0,-1 1,-1l4 -25c0,-1 0,-2 0,-3 0,-1 0,-1 1,-1 0,-4 0,-8 0,-11 1,-21 -1,-45 -6,-71l-3 -12c0,-1 -1,-2 -1,-3 -13,-55 -34,-100 -63,-136 -6,-7 -11,-13 -17,-19 -15,11 -25,18 -30,22l-2 -1c6,-5 16,-13 30,-23 -6,-5 -11,-11 -18,-16 -11,6 -20,11 -28,15 7,-6 15,-13 24,-19 -19,-15 -40,-28 -64,-40 0,-1 0,-2 0,-3l-2 -9c0,0 1,0 1,0l12 6c1,0 2,1 4,2 30,15 56,34 79,57 39,41 67,94 83,162 25,103 0,195 -75,276 -29,31 -63,58 -103,81 -35,20 -68,34 -100,41 -110,27 -209,18 -298,-29 -86,-45 -140,-113 -162,-202 -1,-6 -3,-11 -3,-17 -1,-5 -2,-10 -3,-16 0,-1 0,-3 0,-5 -1,-2 -1,-4 -1,-6 2,1 3,2 5,3 2,1 4,2 6,4 23,13 44,23 63,31 15,6 37,14 65,24 3,1 7,2 11,4 0,0 1,0 1,0 9,13 25,31 50,56l-15 -16c2,1 4,2 6,4 2,3 5,5 8,7 20,17 41,29 63,38zm-142 -429l0 0c1,3 3,6 5,9 -10,9 -19,16 -27,23 -23,19 -39,35 -47,48 -8,13 -15,27 -20,43 -6,17 -9,31 -12,40 -2,-2 -5,-4 -7,-6 2,-9 6,-21 11,-38 5,-17 13,-32 22,-44 10,-14 24,-29 41,-46 13,-13 24,-22 34,-29zm305 425l0 0c1,-1 2,-1 3,-1 1,-1 2,-2 3,-2l4 -2c9,-5 18,-9 26,-14 29,-17 51,-35 66,-53 0,-1 1,-2 2,-3 1,-1 1,-1 2,-2l3 -5c10,-15 23,-35 37,-62 23,-32 27,-77 13,-135 -14,-56 -36,-99 -68,-129l8 -2c1,0 2,0 4,-1 9,9 17,21 26,35 17,29 30,61 39,97 15,65 3,128 -39,187 -36,52 -79,86 -129,103l-71 17c-24,2 -47,0 -70,-7 1,0 2,0 2,-1 0,-1 0,-2 -1,-2 -3,-3 -5,-6 -8,-9 13,4 26,7 40,8l0 1c2,0 5,0 7,0l8 1c3,0 7,0 11,0 3,-1 6,-1 10,-1l69 -17c1,0 2,-1 2,-1l1 0zm-415 -156l0 0c-4,-2 -8,-4 -12,-6 0,-1 0,-2 0,-2 4,2 8,4 12,7 0,0 0,0 0,1zm130 55l0 0c-4,-1 -7,-3 -11,-4 0,-1 0,-2 -1,-2 4,1 7,2 11,3 0,1 1,2 1,3zm133 -259l0 0c1,2 2,5 3,7 -13,6 -27,13 -41,22l-36 26c0,0 -4,3 -12,9 -1,-1 -2,-1 -3,-2 -3,-1 -5,-2 -7,-3 4,-4 10,-8 17,-13 2,-1 16,-11 41,-28 2,-1 14,-7 38,-18zm-114 88l0 0c-19,24 -30,47 -35,69 -1,2 -1,3 -1,5 -2,-2 -4,-3 -6,-4 0,-1 0,-2 0,-3 3,-9 9,-23 19,-42 10,-21 18,-32 23,-34 0,1 -1,2 -1,3 0,0 0,0 1,1 -1,0 -1,1 -1,2 0,1 1,2 1,3z"/>
    <path class="fil12" d="M1029 572c5,-12 8,-21 10,-26l-2 -1c-2,6 -6,10 -10,13l-3 -1c-1,-1 -1,-3 -1,-6 1,-8 6,-15 15,-22 4,-2 9,-4 13,-5 6,-2 12,-2 18,0 -15,3 -23,12 -24,26 -1,12 -4,21 -10,25 -3,2 -6,3 -8,4 0,-2 1,-5 2,-7zm-342 -183l0 0c7,-6 11,-4 11,4 -2,0 -3,-1 -4,-2 -3,5 -6,10 -9,14 0,1 -1,2 -2,3l-9 14c-3,2 -5,5 -6,8l0 0c-5,7 -9,13 -12,18 -7,10 -12,20 -16,30 0,1 -1,2 -2,3 2,0 4,1 6,1 -3,1 -5,1 -8,1 -4,0 -7,-1 -9,-3 0,-1 1,-2 2,-3 3,-11 8,-21 15,-31 8,-12 24,-31 48,-55 -1,-1 -2,-1 -3,-2 -1,1 -1,1 -2,0zm137 307l0 0c-3,2 -4,4 -6,6 -4,2 -8,4 -13,7 0,-3 1,-5 1,-8 0,-11 -1,-21 -4,-30 -1,-1 -1,-1 -1,-2 -1,-2 -2,-5 -3,-7 -4,-8 -6,-16 -8,-24 -2,1 -4,1 -6,2 1,0 1,0 2,-1 13,-6 20,-9 22,-10l1 1c-2,0 -4,2 -6,3 4,3 8,10 12,19 3,9 6,16 6,22 3,-6 7,-11 11,-16 11,-13 24,-19 39,-19 0,0 -1,0 -1,1 -2,1 -3,3 -3,5 -17,5 -29,14 -36,26 -3,6 -5,14 -7,25l0 0zm-31 -59l0 0c6,9 10,19 13,31 4,12 6,23 5,32 0,2 0,3 0,5 1,-2 1,-2 2,-3 1,-2 2,-3 3,-4 0,0 0,-1 0,-1 0,-4 0,-7 1,-10 -1,-8 -3,-16 -6,-26 -3,-10 -7,-19 -12,-26 -2,1 -5,1 -6,2z"/>
    <path class="fil13" d="M1000 511l0 9 -1 3 1 -12zm-55 287l0 0c0,2 2,5 3,9 -1,-1 -3,-4 -4,-6 0,-1 0,-2 1,-3zm-54 -228l0 0 -1 0c0,-2 1,-3 2,-3 -1,1 -1,2 -1,3zm-20 69l0 0 1 0c-1,0 -1,0 -2,1 0,-1 1,-1 1,-1zm-53 63l0 0c2,-2 3,-4 6,-6 0,1 -1,1 -1,2 -2,1 -4,2 -5,4zm40 109l0 0 -1 2c0,0 0,-1 -1,-1 0,-1 1,-1 2,-1zm-26 38l0 0 0 -1 1 1 -1 0zm133 -1l0 0c-1,0 -1,0 -1,0 -1,-2 -2,-5 -3,-9 1,3 2,6 4,9zm-188 -23l0 0c-1,-1 -1,-1 -1,-2l1 0c0,0 0,0 1,1 -1,0 -1,1 -1,1z"/>
    <path class="fil14" d="M948 807c-1,-4 -3,-7 -3,-9 -2,-7 -3,-11 -3,-13 0,-2 1,-6 3,-11 2,-6 3,-10 3,-13 1,-8 -1,-17 -4,-26 -3,-7 -6,-12 -10,-15 1,-1 2,-2 3,-2 37,-41 57,-80 61,-116 9,8 18,12 28,13 5,0 10,0 15,-1 32,30 54,73 68,129 14,58 10,103 -13,135 -14,27 -27,47 -37,62 1,-1 2,-3 3,-5 -14,-11 -28,-22 -42,-33 -4,-4 -15,-18 -33,-42 -11,-15 -21,-26 -31,-32 0,0 0,1 0,1 0,-2 0,-3 -1,-4l-6 -14c0,-1 0,-2 -1,-4zm-300 17l0 0c0,-2 0,-3 1,-5 5,-22 16,-45 35,-69 0,5 1,11 3,20 3,17 7,27 13,30l49 4c8,0 15,0 22,0 0,0 1,0 1,0l0 0c0,0 1,1 1,1l2 12c1,2 1,4 2,6l-1 0c0,1 0,1 1,2 0,6 3,13 8,21 0,0 0,0 0,1 -2,0 -4,0 -6,0 -1,1 -2,1 -3,1 2,2 3,3 5,5 0,1 0,2 0,2 -46,1 -83,-5 -112,-19 -5,-3 -12,-7 -21,-12zm153 -155l0 0c0,1 0,1 1,2 3,9 4,19 4,30 0,3 -1,5 -1,8 -2,3 -3,6 -5,8l0 1c-20,11 -43,15 -67,14 -6,-1 -13,-3 -21,-6 8,-6 12,-9 12,-9l36 -26c14,-9 28,-16 41,-22zm-126 268l0 0c18,6 36,12 54,17 1,0 2,0 2,0 1,0 1,-1 2,-1 7,3 13,8 17,13 4,6 10,15 16,27 3,5 10,16 21,32 0,0 0,1 0,1 -22,-9 -43,-21 -63,-38 -3,-2 -6,-4 -8,-7 -2,-2 -4,-3 -6,-4l15 16c-25,-25 -41,-43 -50,-56z"/>
    <path class="fil15" d="M858 1152l0 0c-1,0 -1,0 -2,0l-14 -1c0,0 -1,0 -1,0 -40,-5 -83,-18 -130,-40 1,0 3,0 5,0 10,1 29,2 57,4 58,3 111,-2 158,-13 89,-22 161,-73 218,-153 19,-27 35,-56 48,-85 9,-23 15,-38 16,-48 8,-77 11,-124 6,-141 0,-2 -4,-13 -12,-32 -4,-9 -7,-18 -10,-29 29,36 50,81 63,136 0,1 1,2 1,3l3 12c0,1 0,2 0,4 0,19 -1,45 -5,78 1,-1 5,-1 11,0 -1,0 -1,0 -1,1 0,1 0,2 0,3l-4 25c-1,0 -1,0 -1,1 0,1 0,1 0,2 0,0 -1,1 -1,2 0,0 0,1 0,2 -1,1 -1,3 -2,5 0,0 0,1 0,1 0,1 0,2 0,2 -1,0 -1,1 -1,1 0,1 0,1 0,1 -1,1 -1,2 -1,3 -1,1 -1,3 -1,4 -1,2 -2,5 -3,7 0,2 -1,3 -1,4 -1,1 -1,2 -2,3 0,1 0,1 0,2 -1,1 -1,2 -2,3 0,1 0,1 0,2 -1,1 -2,3 -2,4 0,0 -1,1 -1,2 -1,1 -2,3 -2,5 -1,1 -2,3 -2,4 -4,7 -8,15 -12,21 -9,11 -19,22 -30,33 5,-2 9,-3 13,-5 -16,22 -34,42 -55,61 0,0 -1,1 -1,1 -1,1 -1,1 -2,2 -1,0 -1,1 -2,2 -1,0 -2,1 -2,1 -1,1 -1,1 -2,2 -1,0 -1,1 -2,2 -1,0 -1,1 -2,1 -1,1 -1,1 -2,2 -34,28 -72,49 -115,65 0,-1 0,-2 0,-3 -1,0 -4,2 -8,5 -12,4 -24,8 -36,11 0,0 -1,0 -1,0 2,-2 5,-5 9,-8 7,-5 16,-12 27,-20l4 -4c-7,4 -22,9 -47,17 -23,8 -38,12 -45,14 -27,7 -51,12 -74,16zm343 -463l0 0c0,6 -4,11 -12,15 -2,0 -3,-1 -4,-1 0,0 -1,-2 -2,-7 0,-3 0,-7 1,-12 2,-6 4,-11 7,-14 2,2 4,5 6,9 1,2 2,6 4,10zm2 57l0 0c2,8 3,14 3,19 -1,0 -2,1 -3,2 -1,2 -3,3 -4,4 -4,-2 -8,-4 -9,-7 -2,-2 -4,-6 -5,-12 -1,-5 -1,-10 0,-14 1,-3 2,-6 4,-7 5,2 8,4 9,5 2,1 3,5 5,10zm35 120l0 0 1 2c2,-2 3,-6 3,-11 0,-4 0,-8 -2,-11l1 2c-3,6 -3,12 -3,18z"/>
    <path class="fil16" d="M986 1003c8,-15 11,-27 9,-36 -1,-5 -2,-9 -4,-11 -5,-5 -13,-6 -24,-3 -4,1 -7,2 -8,4 -1,3 -3,4 -3,5 -52,15 -83,24 -92,28 -5,3 -16,6 -32,10 -8,2 -14,1 -18,-2 -3,-4 -6,-7 -9,-8 -5,0 -8,1 -7,4 1,4 -1,7 -7,8 -2,0 -4,0 -7,1 -5,-8 -9,-15 -12,-20 -8,-13 -18,-23 -30,-29 -9,-2 -19,-6 -30,-14 -1,-1 -2,-1 -2,-2 -16,-6 -31,-12 -45,-17 0,-1 -1,-2 -1,-3 -4,-1 -7,-2 -11,-3 1,0 1,1 1,2 -13,-5 -26,-10 -37,-14 -5,-2 -10,-4 -15,-6 -7,-2 -21,-8 -42,-19 -5,-3 -10,-5 -15,-8 -4,-2 -7,-3 -10,-5 -4,-3 -8,-5 -12,-7 0,0 0,1 0,2 -18,-10 -33,-20 -45,-29 -33,-24 -73,-50 -122,-76 -56,-30 -99,-53 -127,-68 8,-17 20,-37 37,-60 8,-11 15,-20 20,-26 0,0 0,0 0,1 -4,6 -8,13 -12,19l-5 7c0,1 0,3 0,5 0,2 0,3 0,5 1,2 1,3 2,3l5 -1c4,-1 9,-5 14,-11 5,-6 8,-10 9,-10 2,0 5,2 10,7 6,4 10,8 15,12 3,4 8,8 15,12 8,4 13,6 15,5 2,0 3,-1 3,-2 1,-1 1,-2 1,-4 7,5 16,11 29,19 15,8 25,14 32,19 16,12 32,26 48,42l0 -1c-13,-15 -24,-27 -34,-36 -14,-13 -29,-23 -43,-32 -6,-3 -14,-8 -25,-15 -10,-8 -18,-12 -21,-14 -5,-3 -11,-9 -20,-18 -7,-8 -13,-13 -17,-14 -1,-9 -5,-11 -11,-8 0,0 -1,1 -1,1 3,-2 5,-4 7,-4 0,0 36,25 106,75 13,9 30,22 51,40 23,19 39,32 49,39 2,1 5,3 8,6 5,0 9,3 12,6 4,3 9,8 15,14 8,5 19,12 33,22 14,9 26,16 36,22 17,9 32,18 46,29 42,20 79,28 111,25l0 0c9,-2 16,-3 22,-3 10,0 16,4 18,11 1,2 0,5 0,9 2,1 5,1 8,1 7,1 11,-3 11,-12 0,-3 -3,-11 -11,-24 -8,-13 -12,-24 -11,-34l9 0c1,3 1,6 2,10 0,5 0,10 2,14 4,14 11,22 22,22 7,1 11,-4 11,-14 0,-2 -1,-5 -2,-8 -3,-4 -4,-7 -3,-9 0,-2 0,-4 0,-5 9,10 17,15 24,16 5,0 12,-2 20,-7 -3,-5 -10,-11 -18,-16 -7,-5 -10,-9 -10,-14l45 -39c12,-9 21,-17 29,-23 1,4 2,8 3,11 -3,3 -6,8 -9,15 -15,34 -23,51 -23,51l5 7 16 17c7,8 14,15 19,22 1,-1 2,-2 3,-2 3,4 7,8 12,12 15,14 27,26 37,36 10,9 28,21 54,37 -1,1 -2,2 -2,3 -15,18 -37,36 -66,53zm-24 -152l0 0c0,0 0,0 0,-1 0,1 1,1 1,2 -1,0 -1,-1 -1,-1zm-463 -98l0 0 -1 1c4,3 10,7 16,13 5,4 11,6 16,7 1,-1 1,-2 1,-3 -5,-4 -15,-10 -32,-18zm403 91l0 0c0,0 0,-1 -1,-1 0,0 0,1 0,4 -1,2 0,6 2,12 2,7 5,11 6,12 7,0 11,-4 11,-13 -2,-14 -8,-18 -18,-14zm-26 70l0 0c5,-1 9,-2 14,-3 -1,-10 -15,-13 -42,-11 -8,1 -14,3 -21,5 4,5 9,10 13,15 12,-1 24,-3 36,-6zm38 -11l0 0c3,-5 7,-9 11,-14 -7,-9 -10,-5 -11,12 0,1 0,1 0,2zm-46 138l0 0c-4,0 -8,0 -11,0 -1,-1 -1,-1 -1,-2 0,-1 -2,-4 -5,-8 -4,-5 -7,-8 -7,-9l0 0c7,6 15,12 24,19zm-75 -22l0 0c0,1 1,1 1,2 9,8 15,12 18,12 1,-1 3,-3 5,-9 2,1 4,4 8,8 4,4 7,6 10,5 2,0 5,0 7,2 -14,-1 -27,-4 -40,-8 -3,-3 -6,-7 -9,-12zm160 2l0 0c-1,0 -2,0 -3,1 1,-1 1,-2 2,-4l1 1c0,0 0,1 0,2zm-30 -39l0 0c-1,1 -4,2 -7,3 -4,1 -6,1 -6,1l13 -4zm55 13l0 0c1,-4 1,-7 2,-7 0,-2 2,-4 4,-7 0,-1 1,-1 1,-1 -3,9 -5,14 -7,15z"/>
    <path class="fil17" d="M951 862c0,-1 0,-1 0,-1l0 0c-20,-28 -31,-43 -31,-45l0 0c-2,3 -5,6 -7,9l-2 -3c0,-1 0,-2 0,-3 0,-7 4,-17 11,-29 6,-11 12,-17 17,-17 -1,5 -4,10 -8,16 -4,9 -7,15 -8,19l0 -2c-1,3 -2,4 -2,5 0,4 0,5 2,4l4 1c2,-2 4,-4 6,-7 2,2 6,5 10,10 2,6 5,14 9,22l4 10c0,1 1,2 2,4l2 -2c0,-1 1,-1 2,-2 0,0 0,0 0,0 0,0 0,1 1,1 12,17 32,39 61,66 11,10 22,19 32,27 -1,1 -1,1 -2,2 -26,-16 -44,-28 -54,-37 -10,-10 -22,-22 -37,-36 -5,-4 -9,-8 -12,-12zm-665 -261l0 0c2,-4 5,-7 9,-9l0 0c0,0 1,-1 1,-1 6,-3 10,-1 11,8 4,1 10,6 17,14 9,9 15,15 20,18 3,2 11,6 21,14 11,7 19,12 25,15 14,9 29,19 43,32 10,9 21,21 34,36l0 1c-16,-16 -32,-30 -48,-42 -7,-5 -17,-11 -32,-19 -13,-8 -22,-14 -29,-19 0,2 0,3 -1,4 0,1 -1,2 -3,2 -2,1 -7,-1 -15,-5 -7,-4 -12,-8 -15,-12 -5,-4 -9,-8 -15,-12 -5,-5 -8,-7 -10,-7 -1,0 -4,4 -9,10 -5,6 -10,10 -14,11l-5 1c-1,0 -1,-1 -2,-3 0,-2 0,-3 0,-5 0,-2 0,-4 0,-5l5 -7c4,-6 8,-13 12,-19 0,-1 0,-1 0,-1zm213 152l0 0c17,8 27,14 32,18 0,1 0,2 -1,3 -5,-1 -11,-3 -16,-7 -6,-6 -12,-10 -16,-13l1 -1z"/>
    <path class="fil18" d="M654 917c4,1 7,3 11,4 14,5 29,11 45,17 0,1 1,1 2,2 11,8 21,12 30,14 12,6 22,16 30,29 3,5 7,12 12,20 0,1 1,2 1,2l1 2c0,0 0,0 0,0l3 6c0,0 0,0 0,1 2,1 3,3 4,5 3,5 6,9 9,12 3,3 5,6 8,9 1,0 1,1 1,2 0,1 -1,1 -2,1 0,1 -1,1 -1,1 -2,0 -5,-1 -8,-3 -3,-3 -8,-8 -13,-15 0,0 0,-1 0,-1 -11,-16 -18,-27 -21,-32 -6,-12 -12,-21 -16,-27 -4,-5 -10,-10 -17,-13 -1,0 -1,1 -2,1 0,0 -1,0 -2,0 -18,-5 -36,-11 -54,-17 0,0 -1,0 -1,0 -4,-2 -8,-3 -11,-4 -28,-10 -50,-18 -65,-24 -19,-8 -40,-18 -63,-31 -2,-2 -4,-3 -6,-4 -2,-1 -3,-2 -5,-3 -25,-15 -44,-27 -56,-34 -9,-5 -58,-34 -148,-85 -66,-38 -99,-59 -100,-62 0,-2 0,-5 2,-9 2,-3 3,-7 6,-11 3,-5 8,-12 13,-20 8,-12 17,-24 24,-34 2,-2 7,-9 16,-21 1,-1 2,-3 3,-4 0,0 0,-1 1,-1 2,-3 4,-5 6,-7 2,-3 4,-4 5,-5 4,-2 9,-1 16,4 4,3 10,8 18,14 29,22 73,53 130,95 2,1 23,18 62,51 5,4 10,8 15,12 2,2 5,4 7,6 16,12 31,21 45,28 11,5 25,14 42,25 4,2 7,5 11,7 2,1 4,2 6,4 9,5 16,9 21,12 29,14 66,20 112,19 0,0 0,-1 0,-2 -2,-2 -3,-3 -5,-5 1,0 2,0 3,-1 2,0 4,0 6,0 0,-1 0,-1 0,-1 -5,-8 -8,-15 -8,-21 0,0 0,-1 1,-1 -1,-1 -1,-1 -1,-1 -1,-2 -1,-4 -2,-6l-2 -12c0,0 -1,-1 -1,-1 3,0 5,0 7,0l1 1c0,3 1,6 2,11 3,10 9,19 19,27l-4 -1c-4,0 -7,-1 -9,-3 2,4 4,8 7,13 -1,1 -2,2 -3,3l1 2c0,2 -1,3 -2,4 0,0 0,1 -1,1 0,0 0,0 1,1 -6,0 -13,1 -22,3l0 0c-32,3 -69,-5 -111,-25 -14,-11 -29,-20 -46,-29 -10,-6 -22,-13 -36,-22 -14,-10 -25,-17 -33,-22 -6,-6 -11,-11 -15,-14 -3,-3 -7,-6 -12,-6 -3,-3 -6,-5 -8,-6 -10,-7 -26,-20 -49,-39 -21,-18 -38,-31 -51,-40 -70,-50 -106,-75 -106,-75 -2,0 -4,2 -7,4l0 0c-4,2 -7,5 -9,9 -5,6 -12,15 -20,26 -17,23 -29,43 -37,60 28,15 71,38 127,68 49,26 89,52 122,76 12,9 27,19 45,29 4,2 8,4 12,6 8,4 16,8 25,12 21,11 35,17 42,19 5,2 10,4 15,6 11,4 24,9 37,14zm309 -65l0 0c0,-1 -1,-1 -1,-2 0,1 0,1 0,1 0,0 0,0 0,0 -1,1 -2,1 -2,2l-2 2c-1,-2 -2,-3 -2,-4l-4 -10c-4,-8 -7,-16 -9,-22 -1,-4 -2,-7 -3,-9 0,-2 -1,-3 -1,-5l-2 -3c0,-1 0,-1 0,-1 -2,3 -3,5 -4,8 -2,3 -4,5 -6,7l-4 -1c-2,1 -2,0 -2,-4 0,-1 1,-2 2,-5l0 2c1,-4 4,-10 8,-19 4,-6 7,-11 8,-16 2,-5 3,-10 3,-13 0,-1 0,-4 -2,-8 -1,-3 -2,-7 -3,-11 -3,-5 -4,-10 -6,-16 2,-5 3,-8 6,-7 -1,0 -2,1 -3,2 4,3 7,8 10,15 3,9 5,18 4,26 0,3 -1,7 -3,13 -2,5 -3,9 -3,11 0,2 1,6 3,13 -1,1 -1,2 -1,3 1,2 3,5 4,6 1,2 1,3 1,4l6 14c1,1 1,2 1,4 0,0 0,-1 0,-1 10,6 20,17 31,32 18,24 29,38 33,42 14,11 28,22 42,33 -1,2 -2,4 -3,5l-3 5c-10,-8 -21,-17 -32,-27 -29,-27 -49,-49 -61,-66zm-146 -28l0 0c-1,-4 -1,-7 -2,-10 0,-3 -1,-5 -1,-8l2 -11c-1,1 -2,1 -3,2 1,-2 4,-3 7,-4 2,-1 5,-1 7,-1 -2,1 -4,1 -6,2 0,6 0,14 1,23l6 21c1,3 2,7 4,9l0 1 0 1c-6,-1 -10,-7 -13,-19 -1,-2 -1,-4 -2,-6zm37 -43l0 0 4 30c-1,0 -2,0 -2,1 -2,-6 -4,-11 -6,-14l1 -15c-1,0 -2,0 -3,0 1,-3 3,-4 6,-2zm111 67l0 0c-2,-3 -3,-6 -4,-9 1,4 2,7 3,9 0,0 0,0 1,0z"/>
    <path class="fil19" d="M744 243c0,1 0,2 0,4 -4,-2 -6,-3 -6,-4 0,-1 0,-3 0,-5 0,-4 4,-13 12,-27l0 -1c0,1 1,1 1,1 1,1 2,1 2,1l1 0c-4,9 -7,19 -10,31zm21 -59l0 0c1,0 1,0 2,1 -2,3 -4,6 -6,10 -2,4 -4,8 -5,12l0 0c-2,0 -3,-1 -4,-2 1,-1 2,-3 3,-5 3,-8 7,-13 10,-16zm28 453l0 0c1,-1 4,-1 6,-2 5,7 9,16 12,26 3,10 5,18 6,26 -1,3 -1,6 -1,10 0,0 0,1 0,1 -1,1 -2,2 -3,4 -1,1 -1,1 -2,3 0,-2 0,-3 0,-5 1,-9 -1,-20 -5,-32 -3,-12 -7,-22 -13,-31z"/>
    <path class="fil20" d="M986 1003c-8,5 -17,9 -26,14l-4 2c-1,0 -2,1 -3,2 0,-1 0,-2 0,-2l-1 -1c-1,2 -1,3 -2,4l-1 0c0,0 -1,1 -2,1l-69 17c-4,0 -7,0 -10,1 -9,-7 -17,-13 -24,-19l0 0c0,1 3,4 7,9 3,4 5,7 5,8 0,1 0,1 1,2l-8 -1c-2,0 -5,0 -7,0l0 -1c-2,-2 -5,-2 -7,-2 -3,1 -6,-1 -10,-5 -4,-4 -6,-7 -8,-8 -2,6 -4,8 -5,9 -3,0 -9,-4 -18,-12 0,-1 -1,-1 -1,-2 -1,-2 -2,-4 -4,-5 0,-1 0,-1 0,-1l-3 -6c0,0 0,0 0,0l-1 -2c0,0 -1,-1 -1,-2 3,-1 5,-1 7,-1 6,-1 8,-4 7,-8 -1,-3 2,-4 7,-4 3,1 6,4 9,8 4,3 10,4 18,2 16,-4 27,-7 32,-10 9,-4 40,-13 92,-28 0,-1 2,-2 3,-5 1,-2 4,-3 8,-4 11,-3 19,-2 24,3 2,2 3,6 4,11 2,9 -1,21 -9,36zm-203 -599l0 0c12,-1 28,1 47,7 27,7 46,11 58,11 12,-1 20,0 24,4 0,0 0,1 1,2 1,2 2,4 2,8 0,0 0,0 0,1 0,0 0,0 0,0 -1,2 -1,5 -1,7l-10 38c-6,24 -9,37 -11,40l-10 -1c1,-7 3,-15 5,-25 4,-16 6,-29 6,-37 1,-12 -16,-24 -52,-36 -29,-9 -49,-16 -59,-19zm-156 76l0 0c-2,0 -3,0 -4,0l-58 -6c-3,0 -5,0 -6,-1 -2,-2 -4,-6 -6,-10 1,-2 2,-5 2,-9l11 -55c1,-5 2,-9 3,-14l-1 -5c0,1 1,1 1,0l10 2c2,0 3,0 5,0 0,2 0,3 0,4 0,5 -3,20 -8,44 -1,15 6,25 19,31 13,5 24,11 34,16 -1,1 -2,2 -2,3zm72 6l0 0c-2,1 -3,2 -5,2l-18 -1c-7,-2 -18,-3 -32,-5 -2,0 -4,-1 -6,-1 1,-1 2,-2 2,-3 9,-4 21,-7 35,-12 3,-1 5,-1 8,-2 2,1 4,2 6,2 8,1 15,-1 20,-4l-4 13c-2,4 -3,8 -5,12l-1 -1zm18 145l0 0 -1 0c32,-3 64,-12 96,-27 2,-2 5,-3 7,-5 8,-3 16,-7 23,-11l1 1c-6,5 -12,10 -19,16 -27,23 -59,34 -96,31 -4,-1 -8,-2 -11,-5zm261 364l0 0c2,-1 4,-6 7,-15 0,0 -1,0 -1,1 -2,3 -4,5 -4,7 -1,0 -1,3 -2,7zm-55 -13l0 0 -13 4c0,0 2,0 6,-1 3,-1 6,-2 7,-3z"/>
    <path class="fil21" d="M872 639l-1 0c-15,0 -28,6 -39,19 -4,5 -8,10 -11,16 0,-6 -3,-13 -6,-22 -4,-9 -8,-16 -12,-19 2,-1 4,-3 6,-3 7,-5 13,-10 20,-17 10,-10 19,-21 26,-33l0 -1c12,-8 22,-16 32,-25 0,-1 1,-1 1,-2 1,1 1,2 1,3 0,0 0,0 1,1l-1 3 1 0 0 10 0 1 1 0 0 1 0 12c-1,18 -6,37 -16,56l-2 0 0 0c-1,0 -1,0 -1,0l0 0z"/>
    <path class="fil22" d="M824 696l0 0c2,-11 4,-19 7,-25 7,-12 19,-21 36,-26 2,-1 4,-2 6,-2 -7,12 -16,24 -27,37 -7,8 -16,16 -24,24 1,-2 1,-4 1,-6 0,-1 1,-1 1,-2z"/>
    <path class="fil23" d="M939 773c-5,0 -11,6 -17,17 -7,12 -11,22 -11,29 0,1 0,2 0,3l2 3c2,-3 5,-6 7,-9l0 0c0,2 11,17 31,45l0 0c0,0 0,0 0,1 -1,0 -2,1 -3,2 -5,-7 -12,-14 -19,-22l-16 -17 -5 -7c0,0 8,-17 23,-51 3,-7 6,-12 9,-15 2,4 2,7 2,8 0,3 -1,8 -3,13zm-6 36l0 0c1,-3 2,-5 4,-8 0,0 0,0 0,1l2 3c0,2 1,3 1,5 1,2 2,5 3,9 -4,-5 -8,-8 -10,-10zm-79 -28l0 0c27,-13 52,-32 76,-57l0 -1c1,1 1,2 1,2 2,6 3,11 6,16 -8,6 -17,14 -29,23l-45 39c0,5 3,9 10,14 8,5 15,11 18,16 -8,5 -15,7 -20,7 -7,-1 -15,-6 -24,-16 0,1 0,3 0,5 -1,2 0,5 3,9 1,3 2,6 2,8 0,10 -4,15 -11,14 -11,0 -18,-8 -22,-22 -2,-4 -2,-9 -2,-14 1,2 1,4 2,6 3,12 7,18 13,19l1 0 -1 -1 0 -1c-2,-2 -3,-6 -4,-9l-6 -21c-1,-9 -1,-17 -1,-23 2,-1 4,-1 6,-2 7,-2 14,-6 21,-9 1,0 2,0 3,0l-1 15c2,3 4,8 6,14 1,0 1,1 1,1l1 -2 -4 -30zm-63 82l0 0c-1,-1 -1,-1 -1,-1 1,0 1,-1 1,-1 1,-1 2,-2 2,-4l-1 -2c1,-1 2,-2 3,-3 -3,-5 -5,-9 -7,-13 2,2 5,3 9,3l4 1c-10,-8 -16,-17 -19,-27 -1,-5 -2,-8 -2,-11 0,-1 -1,-2 -1,-3 12,-1 23,-3 34,-5 1,-1 2,-1 3,-2l-2 11c0,3 1,5 1,8l-9 0c-1,10 3,21 11,34 8,13 11,21 11,24 0,9 -4,13 -11,12 -3,0 -6,0 -8,-1 0,-4 1,-7 0,-9 -2,-7 -8,-11 -18,-11zm123 40l0 0c0,-1 0,-1 0,-2 1,-17 4,-21 11,-12 -4,5 -8,9 -11,14z"/>
    <path class="fil24" d="M902 844c10,-4 16,0 18,14 0,9 -4,13 -11,13 -1,-1 -4,-5 -6,-12 -2,-6 -3,-10 -2,-12 0,-3 0,-4 0,-4 1,0 1,1 1,1zm-26 70l0 0c-12,3 -24,5 -36,6 -4,-5 -9,-10 -13,-15 7,-2 13,-4 21,-5 27,-2 41,1 42,11 -5,1 -9,2 -14,3z"/>
   </g>
  </g>
 </g>
</svg>
