<?xml version="1.0" encoding="UTF-8"?>
<!DOCTYPE svg PUBLIC "-//W3C//DTD SVG 1.1//EN" "http://www.w3.org/Graphics/SVG/1.1/DTD/svg11.dtd">
<!-- Creator: CorelDRAW X7 -->
<svg xmlns="http://www.w3.org/2000/svg" xml:space="preserve" width="10.6674mm" height="3.9785mm" version="1.1" style="shape-rendering:geometricPrecision; text-rendering:geometricPrecision; image-rendering:optimizeQuality; fill-rule:evenodd; clip-rule:evenodd"
viewBox="0 0 127198 47440"
 xmlns:xlink="http://www.w3.org/1999/xlink">
 <defs>
  <style type="text/css">
   <![CDATA[
    .fil1 {fill:#3BA8FF;fill-rule:nonzero}
    .fil0 {fill:#90BCE4;fill-rule:nonzero}
    .fil2 {fill:black;fill-rule:nonzero}
   ]]>
  </style>
 </defs>
 <g id="__x0023_Layer_x0020_1">
  <metadata id="CorelCorpID_0Corel-Layer"/>
  <g id="_2233794576">
   <path class="fil0" d="M12882 19115c-4229,-69 -5912,-6276 -2880,-10176 2916,-3919 7942,-4379 12018,-5039 987,-91 -256,1032 1943,765 11469,-5229 12474,14642 21241,19078l-626 -151c1272,1317 3627,2009 4777,3753 -127,142 -631,-307 -513,229 699,19 2714,2615 3727,2793 570,637 247,987 1109,1834 480,58 760,-91 1292,-66 3276,15 7535,3628 11890,1083 -134,219 -535,516 -130,508 1744,-809 3196,-2173 3981,-4133 15,-2239 -2669,-2564 -4431,-2824 -3987,-620 -7962,-2014 -10968,-5063 409,187 849,94 817,-420 -1413,646 -1577,-3476 1297,-3962 1092,140 3846,-1337 6353,-155l-247 87c1946,-135 2462,1294 4096,903l877 909c993,-663 2271,1249 3861,935l-15 -214c1365,-116 2032,501 3277,251l124 114c3077,-252 3648,-1704 2879,-1797 1218,-386 -909,1776 465,1446 2314,-5937 -5860,-7154 -9963,-6930 -4910,1033 -10201,1602 -15222,1817 -1308,-583 -1771,-925 -1976,-1298 -912,-177 -3856,-987 -3936,-2598 -35,379 354,-775 873,-1064 1645,-1011 1290,-1672 2994,-2865 -508,706 -564,1084 -175,1124 1156,-1483 2431,-3459 4716,-4300 -322,203 -806,391 -655,608 2227,-1500 4073,327 5936,366l-823 225c2844,1473 1142,-649 3655,399 -663,-29 -492,205 -654,354 2653,-139 6516,1221 9033,1377 -162,31 -149,163 -149,163 2634,623 5410,1017 8537,1237 1042,417 -577,1029 2308,1428 83,-820 4893,421 3378,-876 2333,764 6057,262 7629,-394 -1017,569 1411,839 -611,1347l1656 173c-137,456 -1627,262 -1037,613 1048,-260 3913,-1507 4835,-1613 1765,-1023 3080,-2831 6320,-3529 -1445,617 963,853 -17,1186 1338,-860 2831,-1504 4550,-1872 1163,125 107,736 1744,928 -12,-236 763,-245 1289,-133 366,76 4480,2593 3710,3996 -15,636 -1143,-1500 -717,-206 936,1861 1893,1384 1565,4290l-107 7c-872,1816 -4117,2049 -2338,2509 1126,-110 -611,-111 1281,-733 -953,1592 -4563,585 -5714,772 547,-101 528,-347 804,-583 -2026,51 -4911,1757 -8793,245 -181,366 1425,-164 1906,142 -3963,-2219 -7156,-2503 -9755,-3778 466,38 105,659 102,533 -1559,-415 -1457,-939 -2575,-901 -46,-380 -1401,-89 -2634,-139 -658,176 -282,-221 762,-118 -430,21 -1168,14 -2104,-28 -1985,-10084 5306,-2425 4326,-1611 490,3988 -248,5384 378,6029 105,-144 1517,462 2149,734l-514 367c352,665 2119,976 2112,1437 1434,274 -5421,-2259 -3329,-1766 44,813 2761,719 2023,1186 1386,550 2904,373 4140,887 -350,-108 -1264,730 -49,747 1098,56 1130,-228 1240,-255l174 -151 235 -94 84 -27 46 -12 11 -4 1 1c-585,1392 1318,-3118 -1315,3120l0 -1 -5 -5 -3 -12 -23 -44 -187 -420 -769 -1622c-846,127 -78,-3415 -716,-1904 37,-758 1250,-5408 1953,-4562l399 759c552,-1200 514,-2109 840,-3164l577 -263c-807,-655 1603,-2010 2196,-3750 787,-63 2976,-4318 7348,-742 1907,4293 -373,5341 -419,5669 -581,2206 -705,3006 -1315,4918 -6,-384 89,-892 -103,-1051 -631,1119 -367,1455 -278,2339 -102,-599 -188,1481 -639,-33 312,290 291,1177 886,1467 1415,230 1128,-522 1377,-815 1490,1128 1890,227 2421,-347 -48,280 -96,1448 398,872 1895,-192 -1039,-3129 3239,-6152 -432,-47 -927,-31 -1457,59 2179,-2620 7865,-653 6440,-55 1352,289 2656,3551 3006,2650 3385,7789 -4790,14324 -7552,13891 -503,628 -2401,741 -1906,1144 1351,149 1574,-750 2040,-733 -536,403 -631,592 -657,741 -1678,264 -2870,474 -1577,-595 -3235,319 -3571,2117 -7701,1165 258,-316 -9,-521 -1166,-736l-2234 6c-2286,-882 -1071,-1217 -947,-1828 -1266,-296 -2674,-723 -3342,-450l-1235 -1102c908,725 -1040,199 -1602,248l567 -51c-156,-236 -1562,-523 -2211,-290 126,279 1434,649 2142,913 -605,223 -1533,-194 -2237,261 330,-586 -1818,-405 -2457,-372 -1022,214 -989,902 -1271,973 -105,-289 -1600,469 -967,-194 311,-207 847,41 1333,-411 -733,3 -706,-577 -2134,307 -1197,710 672,1029 -1925,1479 623,-358 690,-630 1134,-1004 -994,142 -1118,323 -2794,409l-141 535c-338,-193 -95,-205 -246,-304 -984,440 -3884,-503 -3961,152 -1051,-93 -1357,-697 -1817,-415l87 -96c-738,-157 -1902,1089 -2295,1967l-40 -122c-477,329 -1444,1552 -1720,2382 -1308,1023 -1900,-880 -2483,1081 -518,709 -633,1431 -606,1884 476,-477 963,-644 597,496 239,-554 -136,2263 -634,4387 -135,977 -721,2760 -3147,4115 -2569,1027 -3801,-315 -4486,-722 -589,-75 -342,233 -1439,-245 -4043,-2748 -8751,-6331 -10024,-7166 858,-44 173,-524 171,-849 -772,245 -647,-659 -1285,209 -187,558 777,587 853,989 -1515,616 -8661,70 -9948,-3260 758,1342 -78,609 -902,-417 521,-45 -600,-3838 -677,-4933l-477 102c118,0 378,-43 490,-211 -220,22 -1182,214 -520,72l447 -392c1182,142 324,1132 -906,2368l-1343 705c-387,694 -827,2039 124,1010 -2149,2550 -4526,4684 -6862,4430 -3674,335 -6380,-1938 -5595,-6288 502,-2577 1294,-4083 2212,-5824 2422,-3795 5231,-6097 7191,-8058l135 373c1178,-841 58,-988 886,-1548 -69,574 1272,-334 807,791 1844,-1315 966,-2513 1471,-3538 -314,-370 -202,959 -592,473 -108,-93 1652,-2210 822,-2388 360,-192 777,98 981,372 -49,-187 38,-838 -88,-580 1061,-438 716,1949 1908,1766l233 -1138c1068,-1066 -205,3450 984,379 -186,-2192 -547,-326 -1376,-692 1797,1390 1087,1674 -248,3115 -793,41 1659,-1260 924,-1412 -1201,16 -1926,1703 -2948,2328 1219,-659 728,614 197,1302 -1276,720 236,-1133 -1259,175 19,518 -485,1549 345,1050 610,626 -1775,1735 -2056,3145 -983,190 618,-3032 -1405,-1106 690,186 -1519,2946 34,2591 -787,606 -1211,348 -995,-448 -1090,713 -2035,3782 -3059,3023l26 845c-492,175 -1154,526 -1970,778 -909,905 -3552,3570 -3923,2587 -706,528 -4396,1386 -2703,1690 2147,-245 3025,-1426 4196,-1243 -1426,157 -4062,1859 -5043,2114l-309 -357c-654,481 -4249,-165 -5491,-1119 1401,884 780,190 -237,-1087 -569,-411 -1270,-1042 -1573,-1533 -1047,-6514 452,-2043 1042,-6323 -217,895 -326,1984 -256,3160 -55,-834 680,-2148 1180,-3674 -159,-765 -152,-2217 -33,-2962 1204,-1994 595,89 1513,-1810 -511,913 -334,953 -803,1959 109,96 1483,-620 2848,-2096 775,-1165 1713,-3201 71,-1856 758,-871 1822,-1361 1566,-631 1385,-1571 -564,-220 519,-1697 631,-235 3439,-1988 4473,-2115l-941 1858 990 -774c-871,1571 954,-87 654,1077 726,-445 1325,-1293 1810,-1947 -2333,588 725,-2910 -644,-3121 526,-572 220,-371 595,-415l420 31 235 8 119 -2 31 -1 2 0c10197,7159 2828,1985 5102,3583l0 -1 -5 -1 -7 -5 -41 -15c-388,15 -825,-505 -850,1404 451,-270 522,1299 1042,-346 -908,1439 613,1196 -1501,3991 1136,-2495 -2472,1759 -916,-1731 161,446 1168,-1611 1145,-1762 -726,489 -770,-788 -1936,1375 -642,1531 -2878,3329 -2252,3401 340,809 2312,-2202 1694,-701 -3042,2706 -3640,1515 -4447,3229 1722,-902 2493,-721 2648,-294 -683,467 -1430,1032 -2101,1400l262 -558c-3375,994 -745,1123 -3966,2163l-1615 -377c481,-778 4580,-1216 3676,-2115 -2026,742 -2529,1487 -4418,1715l1306 -618c-686,146 -1785,-1063 -4206,497 -1283,700 -270,493 -211,919 -2476,707 -3279,2053 -6586,2335 1186,54 -7235,-2086 -2428,-1314 2769,1811 8112,-742 8151,-1470 -1289,-681 2349,-479 2786,-1648 -2401,636 -2484,-360 -3015,-877 -690,116 -1153,576 -1539,833 -104,676 734,354 960,928 -2384,723 -5937,2506 -9094,613 -1129,-1594 -194,-1314 1242,-219 -1096,213 -2879,-3766 -719,-5256 888,-952 3047,-1380 3403,-1313 1642,-25 2072,-305 4247,-1190 -2281,-197 3314,-1473 1736,-1752 -1704,394 -3363,273 -2581,-485 1063,-328 101,420 603,454 1289,-1039 2092,121 3390,-1205 -3219,1462 -172,1314 -670,2299 2136,-1199 101,521 2192,-156 1903,-1044 4338,-2250 5647,-3535 2599,-1770 1341,-1828 -1987,-574 -2126,158 -756,-1093 -2405,-855 -1711,409 1385,645 -1192,827l220 -229c-723,394 -4770,438 -5234,1910l561 -1136c-496,33 -886,396 -1255,607 -96,-292 -711,-397 13,-825 -1721,-159 -3272,1090 -4977,1630l1221 215c-2838,1449 -5012,1035 -7595,2349l-87 -549 -1509 948c216,-671 -1407,-371 -2060,490 1174,-1141 2480,-2042 3803,-3063 1294,-168 -1122,1146 -204,1358 749,92 3263,-721 3613,-1327 -1023,199 -1050,330 -1781,720 -525,-644 1029,-1016 1729,-1717 -542,172 -1378,148 -1443,411 908,-642 2305,-969 3729,-1466 -1093,638 729,270 337,613 -4,-693 1578,-1385 3729,-1837 1636,246 3926,-1565 6575,-1941 -948,910 -2156,1742 -3611,2355 1639,-27 1746,-418 3376,-440 675,-671 1106,-1564 3185,-2345l159 473c1499,-658 1362,-1761 4441,-1729 4817,293 3187,7137 1079,7773 -1942,1600 -3819,2162 -5381,2769l-256 -436c-1399,1602 -5535,2150 -7297,3582 -2287,890 -5787,1006 -5049,1095 109,-2141 694,-45 1686,-404 5793,-2609 14055,-3317 16764,-7972l46 1391c168,-1406 704,-468 1274,-1749 -1185,1188 41,-2059 996,-3447l333 -292 165 -146 40 -38 20 -19 8 -4c-702,-494 6121,4299 3231,2271l-3 6 -6 10 -56 103 -476 818 -988 1648 -2143 2376c-1328,1385 -2951,2931 -3460,3755l-410 -278c-1404,2642 -5043,4870 -6197,7099 -264,192 -935,607 -940,1339 843,647 -55,-310 2239,-892 963,-62 3851,-2189 5512,-3404 2720,-3229 4065,-6008 8153,-9784 2613,-1017 1440,-3942 8912,-3222 3349,8075 -380,7039 -764,10380l-837 343c-2285,4419 -6352,7529 -8571,10293 -869,1070 -2183,3847 -2128,3967 446,-2187 -1224,654 -1450,511 85,-29 -25,-1006 -345,-1831 -72,54 161,-181 267,-301l271 1012c1265,-398 2387,-3224 1539,-3158 1442,-1428 2973,-5579 6625,-6065 5448,-254 5926,1364 7614,4279 497,4286 257,2795 344,3234 252,218 1175,527 2681,488l-716 -131c-349,201 -465,615 314,747 384,-583 6769,782 4731,-628 6368,2865 9975,6377 12739,8441 108,541 178,-2342 -222,1179 -2184,-36 -2339,-1211 -1517,-3039 505,-1407 -164,-1640 1387,-4412 545,-922 1074,-1726 1495,-2554 548,-476 -267,1249 865,-189 587,-927 -307,-284 408,-1459 1947,-2546 5513,-6991 11329,-6170 5430,1264 3409,1445 7320,55 13474,-4153 22983,6858 27556,90l86 245c1761,-2839 3019,-2676 1131,-3715 162,509 -288,-1268 36,-878 384,-1749 1180,-565 1314,182 -338,1163 -1818,6357 -6536,7436 481,89 1091,-285 1898,-772 -3956,1230 -6092,10 -8520,-1021 -1258,-1518 -2318,-497 -3486,-5125 137,-1254 241,-2887 691,-3892 -46,438 -137,1409 96,1646 577,-1644 231,-4863 1726,-5341 380,-855 -226,-844 -437,-308 485,-837 1129,-2491 1035,-2045 -317,79 685,189 1505,51 -649,363 3162,-1097 -1155,655l458 -5c594,-18 1299,-648 1485,-1119 -187,415 -5,170 80,843 105,1079 646,1896 561,1482 -733,501 -2578,2842 -3566,4437 -1279,2014 -1288,2424 -793,3195l104 333 9 43 0 6c-4879,11569 -1358,3209 -2450,5790l-7 4 -42 8 -79 18 -323 66 -646 125c-905,195 -1725,251 -2457,199 -1576,14 -2954,-285 -4360,-687 -7245,-4493 282,-1143 -5603,-4852 -214,-670 -619,-112 -500,-349 -2314,-2836 -243,-5745 -754,-6490 -715,527 -329,-907 -770,-861 391,-1062 -665,-546 1610,-1620 411,-291 344,-446 298,71 -56,403 -12,782 101,1111 67,224 131,284 143,194l36 -48 16 -25c115,1143 -1000,-9956 -527,-5257l3 0 6 3 14 2 22 7c1043,300 1963,443 3574,397l-300 340c3685,-995 8955,1671 11946,1741 2600,1450 2008,852 5535,812 4576,657 4871,-877 5740,3000 -5252,538 -4345,-3061 -9031,-1742 -3668,695 -8825,3167 -14446,4092 -6643,958 -11758,-1286 -15659,-1408 -5811,-956 -10275,-2179 -15097,-3515 -7050,-1935 -1382,-1952 -9249,3118 -199,103 -3,98 -123,10 -2564,-3055 -1047,-1713 -2009,-2497 -920,-351 278,166 434,-93 -452,45 1719,-426 -979,-57 541,-250 1024,-587 1434,-995 1919,-3971 1268,-700 2622,-1292 406,164 1003,313 1508,472 -1872,-320 401,-125 400,-209l3127 -244 1526 -179c3059,-255 1575,-160 2583,-239 783,-33 1683,-59 2989,-390 1903,-703 6983,-539 9266,164 2897,1400 4329,2182 5881,3905 450,414 2048,1881 2309,3409 423,992 1478,3669 -979,7271 312,-396 658,-1315 78,-544 -141,2179 -6766,3625 -6672,3687 -4615,238 -8960,-1365 -12029,-2440 -1648,-661 -2745,-632 -3903,-902 -1229,379 878,668 -2571,-2107 125,280 3135,2089 -168,53 749,-151 -784,2 1311,-688l609 -375c624,-1154 1028,-294 898,-1025 600,529 2856,1612 4602,2258 1558,897 2791,146 7226,1990 1186,624 2707,2050 3579,3402 1340,3236 125,6552 -511,7113 -1242,2262 -3540,3839 -4152,4098 -4414,2669 -8012,2096 -10909,1467 -2698,-714 -5606,-2073 -7488,-3270 -3196,-1785 -4791,-4229 -6317,-5962 -2655,-2955 -6103,-5417 -10436,-9396 -2064,-2727 -3070,-5752 -4159,-8350 -755,-2029 -1182,-1943 -2774,-2349 -4942,-1131 -13571,-1759 -15747,1514 -3531,4643 136,6903 8155,8296 57,-141 -2620,1850 -7991,141z"/>
   <path class="fil1" d="M101863 27243c-3925,3500 -10216,1277 -15057,2348 -550,194 26,-920 -1288,-391 -2743,1073 -3378,4219 -4094,7364 -397,1401 -1502,3449 -2904,3271 -1474,-442 -2978,-1170 -4242,-1752l405 -150c-972,-385 -2483,-220 -3544,-717 58,-156 437,-83 274,-392 -464,386 -2043,-617 -2651,-475 -348,-367 -148,-713 -609,-1158l-859 257c-2242,465 -4256,-1783 -6966,-1887 159,-89 436,-108 277,-294 -4183,-481 -9146,-1764 -13685,-2757 234,-137 494,-440 300,-740 -384,511 -1793,230 -3018,-30 -332,-766 -2245,-27 -3461,-1071l167 -74c-1259,123 -1306,-1030 -2460,-718l-403 -727c-899,594 -1162,-1133 -2108,-1278l-74 166c-815,-301 -936,-914 -1668,-1236l-5 -124c-1656,-869 -2229,-1797 -2576,-1214 -219,-790 1578,725 1222,-449 -2573,-1458 -5669,-2336 -7644,-5029 -2337,-2505 -973,-6588 -2727,-8339 -246,-569 -710,-725 -739,-1058 -592,-118 -2296,-177 -2770,251 194,-48 -400,-280 -727,-257 -1122,13 -1049,783 -2117,980 286,-433 409,-632 157,-841 -644,1086 -1976,1427 -2363,2657 9,-213 119,-490 -66,-594 -347,1349 -1402,1943 -1395,3230l-220 -541c-1520,1309 1525,1480 -1160,1472 400,78 349,-124 483,-234 -820,-47 -1750,-422 -2647,-850 -266,-2291 1812,-1580 2418,-1779 -112,46 -95,155 -97,155 1785,275 3219,1148 4959,908 618,217 -234,1073 1508,649 -165,-520 2463,-1454 1202,-1790 1238,-531 3341,-1722 3964,-2515 -363,639 1135,365 180,1147l1025 -156c72,346 -837,476 -366,635 482,-393 1755,-1709 2274,-1931 632,-1036 1097,-2273 2720,-3353 -631,721 823,529 364,950 510,-875 1075,-1829 1733,-2574 578,-267 344,528 1154,31 -115,-184 236,-439 465,-694 141,-68 3012,-802 3341,228 244,269 -1175,88 -430,383 1144,290 1742,504 2234,795l-19 108c552,332 1989,-102 1264,-565 -436,-64 126,480 -511,197 484,-352 1547,-452 2612,-615 -333,152 -272,356 -395,586 1279,-737 3103,-1255 5046,-1396 53,-372 -678,618 -978,455 2262,581 4728,-374 6430,471 -296,43 -115,-535 -101,-430 1013,120 933,651 1615,503 48,319 847,-40 1535,-84 361,-201 175,165 -427,155 906,-215 5244,-93 7513,723 -1,-217 1562,-351 2081,-180l-323 413c401,414 1750,451 1726,874 1253,-259 -4374,-712 -2769,-731 286,501 2273,-163 1787,388 1037,274 2205,36 3066,753 -264,-156 -1035,408 -191,609 1487,339 499,-120 1706,111l781 55c197,-435 1249,490 887,-191 53,430 2141,470 1747,1165l-393 520c627,165 1210,-278 1780,-373 63,80 185,254 120,339 406,-854 1441,562 2373,72 1159,700 3182,1009 3622,1762 1044,43 2014,-89 3041,358 -213,65 -536,-5 -640,184 646,463 826,181 1446,144 -141,145 1201,771 1889,1012 843,-287 456,-786 502,-1096 333,381 682,20 999,-172l31 -19 16 -10 6 -4 4 -2c1545,501 -3461,-1120 3465,1123l2 0 -1 3 5 11 78 174 153 358 244 728c129,489 177,989 -28,1252 -105,-257 -847,-1755 -805,-609 -725,1202 876,1994 793,2544l558 -476c-137,376 618,8 257,590 158,-159 816,504 865,-290 1382,559 6654,-246 7600,1573 395,-43 1292,285 1190,-134 -528,-548 -932,104 -1103,-226 341,51 458,-136 518,-230 783,348 1396,539 489,983 1638,957 2175,-846 4483,465 -235,235 -107,424 592,703 512,39 1030,80 1606,345 1519,1392 391,1246 93,1673 883,347 1375,1872 1974,2228 42,520 -207,987 -518,1414 605,-985 221,926 180,1498l-10 -563c-225,156 -322,1422 -1066,2092 514,122 1563,-1255 1598,-2028 128,687 -93,1665 -918,2779 -187,-352 -1937,959 -2613,1038 -809,166 -750,758 -986,812 -94,-253 -1243,262 -751,-249 234,-160 634,137 1024,-261 -585,-4 -621,-514 -1549,78 -697,421 403,991 -1094,942 351,-196 380,-412 632,-651l-1374 -17 26 478c-200,-85 -84,-149 -174,-196 -315,558 -1971,459 -2169,1043 -738,134 -1153,-127 -2066,-131l149 -51c-1035,-168 -2240,-21 -3001,148l52 -99c-516,-73 -1544,-228 -2153,-86 -1016,-596 72,-1817 -1205,-1523 -1044,-260 -1726,483 -1432,854 -1774,-774 -3234,-145 -3991,-448 -39,210 54,250 -52,517 -1201,18 -1438,4454 -5865,5743 1176,-707 -121,-432 -236,-704 -883,736 -1259,-82 -1513,724 156,383 34,686 1495,434 -3286,1250 -6361,-459 -6900,-1074 390,378 -23,347 -448,306 391,-566 -716,-1196 -1621,-1334l-280 330 -343 -620c-359,-14 -685,639 -1242,13 18,-167 32,-335 -63,-498 -929,6 -1872,433 -2354,63l-478 -548c-247,115 -489,472 -90,622 -867,-200 -1968,445 -2660,225 -1060,971 -2296,3598 -7278,2713 -4438,-2217 -4258,-5113 -4923,-7463l337 100c88,-1315 -773,-528 -486,-1628 250,468 750,-1097 1004,45 555,-1921 -320,-2670 468,-4127 -245,-408 -400,1200 -710,716 -40,-393 2010,-2703 2075,-3133 638,-160 520,481 462,839l922 -1005c1476,-212 -1977,3042 -110,2732l681 -606c1006,92 -1320,1805 477,829 459,-699 908,-2036 -19,-1766 1927,-917 460,-1895 3012,-2290 729,207 -2011,369 -1418,850 1227,74 2220,-490 3272,-373 -1119,-217 -141,-906 656,-918 1192,539 -860,416 837,835 328,-299 2048,-168 694,-741 910,-689 1774,726 2931,643 247,746 -2207,413 -606,1485 -11,-309 600,-225 1174,-177l109 8 52 3 25 1 8 0c676,1173 -1511,-2622 1513,2628l2 1 0 6 3 17 51 277 127 423c105,197 285,188 562,-292 -421,1477 -916,1410 -1011,441l-417 1442 -194 767 -107 374 -14 44 -6 24 -5 10 -1 6 0 2c-1454,614 3249,-1374 -3257,1377l-1 0 -43 9 -84 17c-446,87 -811,92 -857,-467l-367 509c-231,-226 -585,-422 -961,-793 -721,-119 -2528,305 -2298,-508 -248,57 -1952,-365 -1415,354 1004,599 1306,-174 1749,725 -626,-768 -1549,-211 -2227,-152l-34 -343c-399,37 -1227,-209 -1559,60 340,-100 238,-360 -38,-519l-529 370c-1628,-202 -120,-923 -1665,-1243l1244 -33c-276,-5 -618,-537 -1396,-675 -428,330 -1162,643 -1550,873 -987,-165 -165,-568 -1356,-654 533,84 1020,110 1445,56 244,-52 -467,-946 -1703,-1655 -708,-25 -2973,-1438 -1425,356 -907,-727 -1683,-2066 -851,-1634 -1494,-1718 -364,587 -1575,-957 -53,-311 -1051,-3799 983,-5984 -486,886 -202,2045 -4,2871 -6,-572 81,-1178 226,-1713 176,2170 624,-795 1010,504 264,-613 1137,-1689 1624,-1902 -2594,-235 1973,-2122 1212,-2696 2884,-450 1579,2180 4153,908 -362,-297 882,-848 -628,-779 1443,316 1103,-854 2904,-56 -1386,89 1107,1213 -842,1359 189,-283 -985,-453 -1252,-376 520,460 -271,864 1131,1167 939,122 1543,141 1555,-333 59,-541 -849,-70 -396,-553 1004,-25 1331,890 1354,-172 -122,233 -579,-548 -427,-855 280,16 394,-81 293,-205l32 370c49,309 128,-695 -561,-265 55,353 246,462 450,533 234,661 226,-464 378,580 266,-129 -363,-129 81,-352l27 367c32,-194 1235,798 1149,-951 17,-746 -249,-302 -578,-468 570,-1676 613,-2585 1338,-3963 361,652 1936,-2278 1342,-397 -1132,386 -2433,3431 -1989,4196 1030,-199 -636,1144 18,1758 539,-1106 1295,-738 1897,-732 197,-359 138,-818 155,-1078 -405,-374 -611,127 -1114,-57 717,-1495 1513,-3254 1988,-4468 653,-360 842,202 386,822 671,-1944 4800,-3452 6535,-2497 -1249,-1058 2348,179 1566,-658 -1092,-391 -2100,-1132 -1376,-1417 768,175 -73,365 225,595 1061,-298 1295,933 2492,581 -2350,-434 -683,872 -1276,1377 1522,90 -176,435 1168,871 460,357 5870,787 1859,5107 -2330,583 -5337,732 -6679,819 -863,-354 -298,-1094 -1211,-1242 -1070,-7 797,828 -793,450l153 -144c-494,144 -2878,-526 -3426,452l549 -756c-288,-104 -573,45 -824,105 10,-266 -307,-547 183,-665 -907,-672 -2019,-150 -3078,-254l608 559c-1881,211 -2970,-622 -4725,-777l154 -449 -1082 65c348,-381 -503,-886 -1118,-664l2863 -533c664,420 -911,395 -556,942 303,477 1920,677 2251,282 -591,-175 -637,-78 -1140,-8 -70,-684 836,-472 1360,-812 -316,-38 -719,-324 -827,-133 673,-212 1283,-60 2307,28 -728,173 318,446 29,600 171,-560 1160,-623 2400,-311 846,828 2407,-241 3847,-39 -603,572 -1394,1026 -2324,1243 928,313 1049,5 1988,319 472,-426 802,-1089 2000,-1329l73 434c1081,-202 1193,-840 2581,-707 1161,108 2152,151 2949,-269l601 -266 150 -62 39 -16c-1099,2816 -317,769 -565,1394l-36 -39 -118 -147c-92,-200 -150,-473 -520,-619l207 -376c-910,246 -2888,-719 -4157,-349 -1834,-943 -2632,2085 -3835,2335 -949,1612 -769,3595 -2782,5879 -2504,2330 -5752,1143 -7386,797l762 -475c-787,310 -364,-474 -1107,-478 735,622 -1085,467 -1552,882 -1707,-253 -3820,144 -1580,-13l-387 177c881,372 1205,1207 3401,2183 142,256 382,744 993,860 1257,-358 1810,-186 3512,-256 1185,242 3093,758 4316,1223 -708,389 2867,-921 -1357,882l-172 -157c399,857 -895,-1959 1047,1915l-634 -201c-776,-374 -1700,-442 -2524,-555 -1777,-187 -3213,672 -3061,1448l-489 6c-90,913 1435,3594 1243,3785 -981,30 1642,-576 3373,-2133l35 970c1177,-498 3307,-1613 2746,-2045 2029,-352 4719,-358 5476,596 1381,641 1922,250 3023,616 2210,1346 3402,1882 4551,1866l-185 -48c-132,204 -260,541 13,599 610,-18 801,-55 408,-545 512,765 1330,-4927 6334,-6221 -447,-143 563,-559 980,-867 3988,-746 6327,1041 8150,874 321,228 -679,322 222,583 513,6 102,-354 725,-378 2486,372 6132,341 9129,-324 488,-227 1150,-494 1203,-632 23,-421 488,857 1107,1184 -2850,-1418 -978,-438 -1601,-701 -347,57 949,84 851,-19 -349,-21 -1002,349 -793,336 314,72 -441,-234 -516,-428 -1603,-1003 -4529,-1770 -7004,-2070l85 -197c-1720,373 -3230,-663 -6394,38 -770,-301 -3135,-1416 -2296,-1447 -1421,-645 -2932,-2607 -3054,-4763 -16,-530 -9,-1398 -115,-1676l-170 -437 -102 -196 -4 -5 -2 -5 0 0c-4416,-1430 6014,1945 4939,1599l-7 4 -35 22 -75 49 -149 98 -298 197 409 -197 183 -129 3 0c1089,354 -9506,-3076 -5019,-1624l-1 3 2 0 5 4 7 7 14 14 36 33 10 -63 8 -30c9771,3162 2707,876 4887,1583l-5 2 -3 1 -10 3 -21 8 -45 14 -334 114 -662 222 -1299 419c-911,349 -1554,262 -2306,335 -1560,151 -2751,-118 -4087,-543 269,-26 810,-13 922,-201 -992,-542 -2475,326 -2778,-758 -520,-150 -499,373 -172,442 -5093,-1831 -10600,-3273 -15593,-4418 -3404,-1587 205,-1693 -2806,-1772 -187,-254 -251,324 -243,111 -1123,94 -1482,-1333 -2337,-931 219,649 -552,270 -624,639 -2125,-676 -2436,-1379 -4427,-1021l163 -312c-2357,751 -4897,63 -6681,974 -2692,-499 -4427,1055 -9739,207 -883,-262 -2204,-1218 -2519,-1435 301,-369 512,2189 1327,-1124 -502,3326 -356,932 -977,1839 -836,275 -2348,811 -3235,1529 -4219,907 -7383,9787 -18354,7666 -2524,-976 -1927,212 -2057,-2665l54 -89 -8 -39 -8 -20c-431,4982 586,-6790 486,-5575l5 4 14 7 27 16 222 124 886 492 887 491 441 247 222 122 13 7 9 3c1366,-598 -11887,5245 -6276,2766l13 -41 30 -82 56 -166c423,-3039 4123,-8516 8759,-9060 2142,-437 3996,-732 6799,103 3592,652 5497,6015 5136,7047 352,3601 326,3225 1826,4885 1212,2008 1570,1865 4664,3561 -202,32 -406,-62 -281,173 681,-395 1811,1139 2410,744 3323,2598 6153,3570 10445,4859 -662,-129 -1160,311 -374,510l930 -175 75 229c557,66 1216,-89 738,-474 9896,1963 24567,6998 29260,12323 -1729,-3145 -238,-864 -349,-3094 253,-1264 428,-3630 1895,-5925 6708,-6052 11607,-2049 14870,-2566 3265,167 6979,-1446 11697,-2611 25,46 -1026,1934 -4303,3290z"/>
   <g>
    <path class="fil2" d="M56941 39842c-2410,-1634 -5256,-3098 -8185,-3918 -1023,-287 -2056,-497 -3077,-606 -2664,-341 -6133,1085 -9583,166 -287,-82 -566,-176 -844,-289 -2814,-1210 -4556,-3733 -6608,-5071 -1870,-1255 -3832,-2063 -5880,-2637 -4755,-1344 -9962,-1352 -15114,-2784 -608,-171 -1213,-364 -1816,-577 -1754,-632 -3316,-1383 -4429,-2452 -1118,-1041 -1725,-2598 -1232,-4254 308,-1100 1015,-2225 2146,-3437l71 -84 90 -55c7,-4 12751,-8262 17279,-11014 4595,-2807 8936,-3489 13451,-2209 1337,375 2684,914 4081,1604 3327,1652 5559,3020 7716,3618 2148,590 4300,546 7855,-734 4415,-1585 9746,-3748 14874,-2741 282,55 562,122 843,200 3403,978 6079,3209 9017,4007 595,167 1204,281 1839,327 2459,194 5847,-1261 8853,-1581 5391,-528 11136,-419 16406,963 3259,860 9485,1588 14441,2974 2550,721 4782,1582 6240,2912 2003,1843 2132,4511 1450,6888 -759,2671 -2456,5224 -4099,6907 -3116,3112 -8650,7747 -13254,8318 -2194,241 -4247,-116 -6186,-660 -2191,-617 -4255,-1465 -6272,-2028 -2968,-819 -5731,-1078 -8900,650 -2681,1453 -5309,4779 -6958,7514 -982,1454 -1480,5261 -4014,6783 -2188,1196 -4743,1067 -7242,371 -4955,-1401 -10055,-5115 -12959,-7071zm992 -1468l0 0c2914,1984 7948,5583 12446,6831 2273,636 4319,663 5913,-218 1418,-644 2218,-4122 3347,-6147 1757,-2883 4436,-6385 7622,-8148 3656,-2023 7102,-1694 10232,-804 2153,608 4213,1454 6272,2031 1822,512 3632,810 5514,600 3619,-343 9289,-4808 12183,-7793 1444,-1466 3027,-3872 3656,-6146 568,-2087 406,-3869 -946,-5112 -1028,-963 -3079,-1833 -5515,-2506 -4768,-1342 -10921,-2057 -14410,-2966 -4987,-1304 -10541,-1426 -15789,-913 -2590,225 -6014,1768 -9143,1587 -771,-55 -1501,-191 -2198,-386 -3412,-986 -6094,-3216 -9017,-4012 -237,-63 -471,-120 -713,-167 -4379,-903 -9483,1046 -13922,2669 -3735,1367 -6422,1489 -8936,773 -2510,-712 -4771,-2131 -8022,-3733 -1317,-654 -2568,-1145 -3777,-1484 -4085,-1129 -7724,-594 -12055,2015 -4251,2582 -15975,10174 -17132,10925 -967,1042 -1474,1930 -1666,2627 -267,1055 -17,1710 762,2504 786,769 2156,1480 3792,2058 558,198 1129,378 1699,536 4839,1369 10041,1374 15111,2788 2181,607 4333,1488 6389,2869 2400,1647 4113,4023 6303,4908 209,81 427,160 639,218 2631,792 5978,-531 9297,-220 1133,121 2259,352 3366,662 3168,887 6162,2438 8698,4154z"/>
   </g>
  </g>
 </g>
</svg>
