<?xml version="1.0" encoding="UTF-8"?>
<!DOCTYPE svg PUBLIC "-//W3C//DTD SVG 1.1//EN" "http://www.w3.org/Graphics/SVG/1.1/DTD/svg11.dtd">
<!-- Creator: CorelDRAW X7 -->
<svg xmlns="http://www.w3.org/2000/svg" xml:space="preserve" width="18.0766mm" height="6.7419mm" version="1.1" style="shape-rendering:geometricPrecision; text-rendering:geometricPrecision; image-rendering:optimizeQuality; fill-rule:evenodd; clip-rule:evenodd"
viewBox="0 0 630127 235014"
 xmlns:xlink="http://www.w3.org/1999/xlink">
 <defs>
  <style type="text/css">
   <![CDATA[
    .fil1 {fill:#3BA8FF;fill-rule:nonzero}
    .fil0 {fill:#90BCE4;fill-rule:nonzero}
    .fil2 {fill:black;fill-rule:nonzero}
   ]]>
  </style>
 </defs>
 <g id="__x0023_Layer_x0020_1">
  <metadata id="CorelCorpID_0Corel-Layer"/>
  <g id="_2183581648">
   <path class="fil0" d="M63816 94694c-20950,-339 -29288,-31094 -14271,-50413 14452,-19413 39348,-21693 59538,-24962 4891,-453 -1265,5110 9621,3789 56820,-25900 61805,72541 105235,94512l-3102 -749c6299,6529 17962,9955 23662,18597 -628,704 -3124,-1527 -2538,1129 3458,101 13442,12957 18461,13839 2827,3151 1224,4887 5497,9084 2374,290 3758,-449 6397,-327 16234,69 37327,17973 58901,5364 -666,1088 -2653,2559 -642,2517 8635,-4005 15830,-10761 19716,-20472 77,-11096 -13214,-12699 -21947,-13989 -19747,-3071 -39442,-9977 -54330,-25081 2018,920 4204,457 4043,-2084 -6999,3200 -7808,-17221 6428,-19626 5410,690 19051,-6630 31471,-767l-1224 432c9639,-676 12194,6407 20291,4469l4340 4504c4922,-3284 11256,6187 19127,4633l-69 -1060c6759,-572 10067,2482 16233,1241l610 565c15240,-1245 18074,-8440 14264,-8903 6034,-1914 -4503,8798 2301,7170 11469,-29410 -29027,-35444 -49349,-34332 -24325,5110 -50535,7930 -75410,9000 -6480,-2886 -8774,-4583 -9792,-6431 -4518,-875 -19099,-4891 -19500,-12873 -171,1882 1757,-3842 4330,-5267 8153,-5010 6389,-8283 14828,-14198 -2513,3499 -2792,5371 -868,5574 5731,-7352 12048,-17140 23363,-21299 -1593,1004 -3992,1935 -3242,3008 11033,-7432 20180,1618 29407,1816l-4079 1112c14094,7296 5661,-3217 18106,1977 -3287,-147 -2433,1014 -3239,1753 13146,-690 32280,6048 44749,6822 -802,157 -736,805 -736,805 13048,3092 26796,5037 42287,6128 5170,2064 -2855,5100 11437,7073 412,-4057 24237,2085 16736,-4336 11552,3782 30006,1293 37787,-1952 -5037,2816 6996,4155 -3023,6672l8206 854c-680,2259 -8063,1300 -5138,3036 5190,-1283 19385,-7460 23955,-7993 8739,-5065 15258,-14020 31303,-17475 -7156,3054 4772,4225 -84,5870 6630,-4256 14027,-7449 22543,-9269 5759,617 527,3647 8635,4598 -56,-1171 3782,-1213 6390,-662 1812,380 22187,12849 18381,19796 -77,3155 -5665,-7432 -3556,-1018 4633,9214 9380,6854 7753,21247l-530 38c-4316,8997 -20396,10151 -11587,12427 5587,-544 -3023,-551 6358,-3629 -4730,7885 -22613,2901 -28309,3824 2702,-502 2608,-1718 3981,-2886 -10039,251 -24331,8708 -43559,1217 -900,1812 7055,-819 9439,697 -19632,-10988 -35448,-12392 -48324,-18719 2304,191 519,3270 505,2646 -7728,-2057 -7216,-4654 -12758,-4466 -227,-1879 -6940,-443 -13048,-690 -3266,875 -1394,-1091 3772,-582 -2126,108 -5783,70 -10416,-136 -9837,-49956 26280,-12016 21428,-7979 2426,19751 -1231,26670 1872,29863 519,-714 7515,2287 10646,3636l-2549 1820c1743,3297 10496,4838 10462,7118 7107,1356 -26852,-11190 -16489,-8750 220,4030 13679,3563 10022,5877 6860,2723 14383,1851 20511,4396 -1739,-540 -6264,3615 -244,3695 5442,279 5591,-1122 6142,-1262l865 -742 1160 -471 419 -132 230 -63 49 -14 10 3c-2900,6895 6526,-15446 -6515,15453l0 -7 -28 -24 -14 -56 -115 -223 -927 -2074 -3810 -8035c-4190,627 -384,-16917 -3542,-9433 185,-3758 6188,-26789 9673,-22602l1970 3765c2736,-5951 2552,-10451 4166,-15680l2862 -1300c-4002,-3249 7937,-9956 10872,-18580 3901,-307 14745,-21393 36403,-3674 9454,21267 -1844,26461 -2074,28089 -2876,10925 -3490,14885 -6515,24360 -32,-1907 442,-4421 -506,-5208 -3130,5542 -1823,7208 -1377,11587 -512,-2967 -934,7337 -3168,-164 1547,1439 1439,5832 4388,7264 7014,1144 5588,-2583 6822,-4036 7380,5588 9363,1129 11988,-1722 -230,1391 -470,7181 1977,4329 9387,-951 -5149,-15502 16045,-30480 -2137,-230 -4594,-157 -7223,296 10800,-12981 38965,-3238 31906,-272 6700,1429 13160,17590 14892,13121 16771,38588 -23728,70962 -37407,68818 -2496,3109 -11900,3671 -9450,5664 6693,736 7798,-3715 10109,-3628 -2649,1990 -3127,2931 -3256,3670 -8310,1308 -14215,2343 -7808,-2949 -16028,1583 -17687,10486 -38149,5773 1279,-1565 -46,-2580 -5780,-3643l-11064 25c-11326,-4368 -5306,-6028 -4689,-9050 -6278,-1474 -13249,-3587 -16561,-2234l-6121 -5459c4500,3587 -5149,983 -7931,1227l2807 -255c-778,-1167 -7739,-2583 -10953,-1432 627,1380 7108,3214 10611,4524 -2998,1105 -7589,-962 -11082,1294 1635,-2904 -9004,-2008 -12172,-1841 -5058,1056 -4898,4462 -6296,4818 -519,-1437 -7923,2321 -4789,-962 1540,-1029 4197,202 6605,-2040 -3635,14 -3499,-2858 -10576,1527 -5926,3514 3333,5096 -9530,7320 3081,-1770 3413,-3116 5616,-4970 -4926,700 -5543,1603 -13843,2025l-700 2649c-1674,-955 -464,-1014 -1217,-1502 -4873,2178 -19238,-2493 -19622,749 -5208,-463 -6728,-3447 -9004,-2053l429 -474c-3653,-784 -9422,5393 -11364,9739l-199 -603c-2363,1632 -7156,7694 -8519,11804 -6477,5068 -9416,-4358 -12302,5354 -2565,3510 -3141,7087 -3001,9332 2356,-2364 4772,-3190 2956,2457 1182,-2743 -669,11211 -3137,21727 -673,4849 -3577,13676 -15593,20389 -12727,5093 -18830,-1561 -22219,-3576 -2921,-373 -1697,1154 -7132,-1213 -20033,-13613 -43354,-31359 -49659,-35497 4252,-223 857,-2597 850,-4207 -3827,1213 -3207,-3267 -6369,1031 -927,2768 3852,2911 4222,4898 -7502,3054 -42904,349 -49276,-16146 3750,6647 -387,3015 -4473,-2061 2583,-223 -2966,-19015 -3357,-24439l-2356 502c582,0 1868,-213 2426,-1049 -1088,115 -5856,1066 -2573,366l2210 -1945c5857,704 1607,5605 -4489,11730l-6651 3492c-1918,3437 -4096,10099 617,5003 -10646,12636 -22428,23205 -33998,21943 -18196,1659 -31603,-9596 -27713,-31143 2486,-12768 6407,-20228 10956,-28856 11995,-18799 25911,-30208 35626,-39916l666 1851c5839,-4176 293,-4898 4392,-7680 -342,2855 6302,-1652 3998,3925 9133,-6515 4783,-12451 7282,-17526 -1554,-1834 -1000,4747 -2928,2339 -540,-457 8181,-10943 4072,-11821 1784,-955 3845,481 4859,1840 -244,-930 188,-4155 -436,-2879 5257,-2165 3545,9656 9450,8753l1154 -5636c5292,-5285 -1014,17084 4877,1875 -924,-10859 -2712,-1618 -6822,-3430 8910,6884 5393,8293 -1223,15435 -3929,199 8212,-6243 4580,-6992 -5954,73 -9544,8432 -14606,11527 6038,-3266 3601,3044 973,6449 -6317,3573 1171,-5609 -6233,872 91,2562 -2409,7669 1705,5197 3022,3099 -8792,8593 -10186,15582 -4863,941 3060,-15021 -6958,-5480 3416,924 -7526,14596 164,12832 -3897,3004 -5996,1729 -4922,-2217 -5400,3534 -10081,18736 -15160,14978l132 4183c-2436,865 -5717,2604 -9764,3856 -4493,4483 -17593,17687 -19430,12814 -3496,2614 -21780,6867 -13393,8376 10643,-1216 14986,-7065 20790,-6159 -7066,777 -20120,9206 -24983,10471l-1530 -1763c-3239,2377 -21052,-827 -27201,-5550 6944,4382 3866,945 -1174,-5379 -2820,-2042 -6292,-5166 -7795,-7599 -5187,-32268 2242,-10119 5166,-31324 -1077,4434 -1617,9830 -1269,15655 -275,-4131 3364,-10639 5850,-18203 -795,-3782 -764,-10980 -171,-14672 5968,-9879 2949,446 7498,-8966 -2531,4522 -1652,4720 -3984,9702 547,481 7351,-3068 14114,-10381 3841,-5770 8485,-15854 349,-9196 3761,-4312 9028,-6738 7759,-3120 6857,-7787 -2792,-1095 2576,-8415 3120,-1164 17029,-9844 22153,-10475l-4661 9210 4901 -3838c-4312,7784 4731,-429 3249,5337 3598,-2203 6561,-6404 8966,-9649 -11563,2914 3590,-14407 -3193,-15457 2604,-2837 1087,-1833 2949,-2056l2081 153 1161 35 592 -7 150 -3 7 0c50517,35465 14010,9833 25280,17746l0 -3 -28 -7 -32 -21 -202 -73c-1927,73 -4092,-2500 -4211,6954 2231,-1342 2587,6435 5159,-1715 -4500,7125 3040,5926 -7435,19772 5630,-12361 -12246,8714 -4539,-8576 799,2207 5790,-7979 5675,-8728 -3600,2416 -3817,-3908 -9593,6808 -3179,7581 -14257,16491 -11154,16850 1683,4009 11451,-10907 8387,-3472 -15070,13404 -18026,7506 -22024,16001 8526,-4476 12354,-3580 13114,-1464 -3382,2318 -7087,5117 -10402,6936l1290 -2760c-16719,4922 -3681,5560 -19650,10708l-7997 -1865c2385,-3852 22690,-6020 18214,-10475 -10036,3678 -12525,7362 -21884,8495l6466 -3060c-3392,725 -8840,-5264 -20835,2461 -6355,3468 -1342,2443 -1042,4556 -12271,3503 -16245,10168 -32628,11566 5870,261 -35838,-10332 -12030,-6512 13717,8973 40185,-3670 40377,-7285 -6386,-3375 11639,-2364 13804,-8161 -11897,3155 -12305,-1784 -14934,-4343 -3423,575 -5713,2851 -7627,4120 -512,3354 3640,1761 4755,4605 -11807,3584 -29414,12410 -45048,3040 -5595,-7903 -962,-6512 6149,-1091 -5431,1059 -14260,-18657 -3559,-26036 4396,-4717 15098,-6833 16854,-6505 8136,-125 10266,-1513 21045,-5898 -11298,-976 16415,-7289 8599,-8673 -8439,1949 -16666,1349 -12789,-2405 5270,-1621 502,2081 2987,2252 6386,-5152 10363,592 16795,-5975 -15948,7244 -847,6512 -3322,11388 10583,-5936 505,2580 10858,-773 9433,-5167 21494,-11148 27978,-17507 12877,-8770 6644,-9056 -9841,-2851 -10534,788 -3747,-5410 -11914,-4235 -8478,2032 6856,3200 -5909,4103l1098 -1137c-3587,1949 -23634,2168 -25938,9468l2785 -5633c-2458,167 -4392,1959 -6222,3004 -467,-1446 -3518,-1962 69,-4081 -8526,-788 -16212,5399 -24659,8073l6048 1059c-14062,7185 -24826,5132 -37623,11640l-425 -2716 -7481 4696c1071,-3326 -6971,-1837 -10203,2429 5815,-5654 12281,-10126 18834,-15177 6414,-833 -5556,5678 -1007,6728 3712,453 16164,-3577 17896,-6575 -5064,987 -5200,1639 -8819,3570 -2604,-3193 5093,-5034 8562,-8506 -2681,847 -6822,729 -7146,2033 4496,-3183 11419,-4800 18471,-7265 -5410,3162 3615,1346 1673,3036 -24,-3430 7816,-6856 18468,-9098 8105,1220 19455,-7752 32569,-9610 -4692,4500 -10677,8627 -17886,11663 8126,-132 8652,-2070 16725,-2178 3343,-3329 5483,-7749 15777,-11622l791 2346c7429,-3260 6746,-8722 21996,-8565 23868,1457 15791,35354 5351,38505 -9624,7930 -18921,10712 -26660,13720l-1262 -2161c-6933,7937 -27423,10649 -36152,17743 -11329,4413 -28671,4985 -25011,5431 537,-10611 3437,-227 8352,-2008 28696,-12918 69624,-16432 83044,-39491l227 6891c836,-6964 3493,-2318 6316,-8662 -5873,5884 199,-10200 4929,-17081l1653 -1443 819 -722 195 -191 101 -94 42 -14c-3483,-2454 30316,21291 16003,11245l-13 25 -28 59 -283 505 -2353 4054 -4897 8161 -10615 11775c-6585,6853 -14620,14515 -17143,18604l-2033 -1380c-6950,13086 -24979,24125 -30696,35169 -1311,948 -4636,3001 -4657,6630 4176,3210 -269,-1538 11095,-4420 4762,-307 19071,-10848 27302,-16865 13476,-15997 20134,-29755 40390,-48468 12947,-5037 7129,-19524 44152,-15961 16583,40004 -1889,34872 -3789,51423l-4148 1705c-11315,21891 -31463,37292 -42461,50984 -4302,5302 -10810,19057 -10542,19657 2214,-10838 -6058,3231 -7180,2524 425,-140 -126,-4978 -1709,-9064 -355,265 799,-902 1322,-1498l1342 5016c6271,-1973 11827,-15973 7630,-15641 7136,-7077 14721,-27640 32816,-30052 26991,-1258 29362,6759 37717,21201 2461,21232 1273,13849 1705,16021 1248,1081 5818,2611 13281,2416l-3545 -649c-1729,997 -2308,3051 1551,3702 1907,-2882 33538,3873 23443,-3113 31540,14198 49412,31589 63101,41817 540,2681 885,-11601 -1095,5846 -10820,-182 -11590,-6003 -7515,-15063 2499,-6971 -816,-8118 6867,-21856 2701,-4563 5323,-8544 7411,-12650 2712,-2353 -1325,6194 4284,-935 2900,-4597 -1523,-1401 2018,-7226 9646,-12612 27316,-34635 56123,-30567 26900,6264 16885,7163 36263,275 66751,-20577 113856,33973 136514,439l422 1217c8725,-14062 14958,-13257 5601,-18406 802,2528 -1425,-6278 185,-4343 1900,-8669 5843,-2799 6508,899 -1680,5763 -9007,31495 -32387,36836 2391,442 5407,-1412 9408,-3828 -19597,6100 -30177,56 -42203,-5054 -6236,-7523 -11486,-2461 -17272,-25391 679,-6209 1192,-14299 3423,-19281 -227,2172 -677,6986 470,8154 2862,-8140 1151,-24091 8555,-26458 1882,-4235 -1119,-4180 -2165,-1523 2402,-4145 5595,-12340 5128,-10134 -1573,391 3391,934 7449,255 -3207,1798 15672,-5435 -5713,3245l2265 -21c2942,-91 6435,-3214 7356,-5546 -924,2053 -25,840 397,4176 519,5344 3200,9391 2782,7341 -3636,2479 -12773,14083 -17667,21979 -6334,9976 -6382,12009 -3928,15829l509 1649 52 216 -4 28c-24171,57311 -6724,15895 -12134,28685l-42 14 -202 45 -394 84 -1596 328 -3204 624c-4479,965 -8544,1244 -12169,983 -7808,73 -14637,-1412 -21602,-3399 -35894,-22261 1401,-5668 -27754,-24042 -1060,-3315 -3068,-554 -2475,-1726 -11469,-14051 -1206,-28462 -3737,-32157 -3542,2615 -1632,-4486 -3814,-4263 1935,-5257 -3297,-2705 7972,-8017 2040,-1444 1709,-2214 1482,348 -282,1994 -63,3870 498,5504 332,1109 652,1405 708,959l178 -237 80 -126c568,5662 -4953,-49318 -2611,-26042l18 3 31 10 63 14 108 35c5169,1482 9725,2193 17704,1966l-1485 1687c18252,-4932 44365,8276 59180,8621 12884,7184 9952,4218 27423,4026 22669,3253 24130,-4347 28435,14860 -26022,2664 -21526,-15163 -44742,-8631 -18164,3441 -43719,15690 -71557,20271 -32911,4744 -58256,-6369 -77575,-6975 -28793,-4738 -50904,-10800 -74789,-17416 -34929,-9582 -6850,-9666 -45826,15453 -979,505 -10,485 -606,45 -12696,-15135 -5184,-8484 -9952,-12368 -4556,-1742 1373,823 2147,-463 -2234,226 8523,-2109 -4845,-283 2684,-1237 5072,-2907 7104,-4925 9502,-19671 6278,-3468 12988,-6404 2012,816 4968,1555 7467,2336 -9269,-1579 1990,-617 1987,-1028l15488 -1217 7561 -885c15153,-1266 7801,-788 12796,-1182 3880,-167 8342,-293 14805,-1931 9429,-3486 34593,-2670 45905,808 14351,6937 21442,10814 29131,19344 2228,2056 10148,9328 11438,16892 2102,4919 7330,18175 -4846,36023 1544,-1959 3259,-6515 387,-2695 -704,10789 -33520,17956 -33056,18263 -22861,1178 -44386,-6763 -59591,-12089 -8161,-3273 -13599,-3130 -19333,-4469 -6090,1879 4347,3308 -12734,-10437 617,1388 15533,10350 -836,258 3716,-742 -3884,18 6494,-3409l3019 -1851c3088,-5720 5089,-1460 4451,-5079 2966,2622 14146,7986 22801,11190 7714,4437 13822,718 35789,9858 5878,3088 13418,10154 17730,16851 6640,16035 624,32460 -2528,35231 -6156,11211 -17537,19026 -20566,20309 -21871,13218 -39694,10384 -54042,7261 -13371,-3538 -27775,-10266 -37100,-16195 -15829,-8844 -23732,-20954 -31296,-29536 -13149,-14641 -30233,-26838 -51695,-46550 -10224,-13508 -15206,-28494 -20605,-41364 -3741,-10049 -5853,-9624 -13742,-11636 -24481,-5601 -67228,-8714 -78003,7502 -17492,23003 669,34193 40398,41095 282,-697 -12982,9168 -39589,701z"/>
   <path class="fil1" d="M504618 134955c-19444,17339 -50611,6327 -74591,11636 -2722,962 129,-4556 -6382,-1938 -13581,5313 -16733,20901 -20281,36480 -1963,6940 -7443,17091 -14386,16202 -7303,-2182 -14746,-5793 -21013,-8676l2001 -746c-4814,-1907 -12295,-1084 -17552,-3549 290,-770 2169,-415 1360,-1942 -2301,1911 -10123,-3053 -13131,-2349 -1729,-1823 -732,-3538 -3019,-5741l-4256 1272c-11110,2308 -21086,-8830 -34507,-9345 784,-440 2154,-537 1373,-1461 -20727,-2377 -45312,-8736 -67800,-13654 1158,-676 2447,-2182 1492,-3671 -1903,2538 -8885,1140 -14954,-143 -1646,-3792 -11120,-136 -17147,-5309l826 -362c-6236,603 -6466,-5107 -12183,-3556l-1998 -3608c-4454,2942 -5755,-5608 -10447,-6334l-362 827c-4037,-1489 -4640,-4529 -8269,-6122l-21 -613c-8202,-4305 -11039,-8906 -12758,-6013 -1084,-3922 7812,3590 6055,-2231 -12744,-7212 -28093,-11570 -37870,-24910 -11577,-12406 -4821,-32631 -13508,-41311 -1217,-2817 -3517,-3594 -3664,-5239 -2928,-586 -11371,-875 -13724,1244 966,-241 -1976,-1387 -3597,-1272 -5553,62 -5198,3879 -10489,4855 1419,-2147 2025,-3133 781,-4169 -3190,5379 -9792,7070 -11709,13163 45,-1053 592,-2430 -324,-2939 -1719,6679 -6944,9621 -6913,15997l-1091 -2677c-7526,6484 7554,7331 -5741,7289 1976,387 1725,-617 2388,-1161 -4065,-230 -8670,-2088 -13114,-4211 -1311,-11343 8976,-7822 11984,-8809 -558,227 -477,764 -484,764 8840,1363 15951,5689 24565,4503 3057,1074 -1154,5313 7473,3211 -822,-2573 12197,-7202 5958,-8865 6128,-2631 16551,-8533 19632,-12455 -1795,3162 5623,1806 892,5679l5083 -774c352,1712 -4152,2356 -1820,3141 2388,-1942 8697,-8464 11267,-9562 3133,-5135 5434,-11256 13476,-16607 -3127,3570 4075,2618 1802,4706 2527,-4336 5326,-9063 8586,-12758 2858,-1318 1704,2621 5710,157 -562,-910 1174,-2175 2307,-3441 704,-334 14920,-3970 16551,1133 1210,1332 -5821,432 -2126,1897 5664,1436 8627,2499 11064,3939l-98 536c2740,1639 9858,-505 6261,-2802 -2151,-317 627,2374 -2524,976 2398,-1740 7662,-2235 12936,-3047 -1652,757 -1345,1764 -1952,2907 6330,-3653 15366,-6218 24997,-6916 255,-1847 -3364,3058 -4845,2259 11204,2873 23422,-1861 31847,2329 -1461,212 -568,-2649 -502,-2134 5023,600 4629,3225 8007,2496 237,1576 4197,-202 7599,-421 1792,-994 868,822 -2109,770 4486,-1063 25980,-460 37215,3583 -3,-1073 7739,-1743 10312,-892l-1601 2046c1984,2046 8673,2231 8551,4330 6205,-1283 -21671,-3528 -13720,-3622 1419,2478 11263,-809 8854,1921 5138,1356 10918,181 15188,3733 -1307,-777 -5128,2018 -948,3019 7369,1673 2478,-596 8453,547l3869 272c976,-2154 6188,2430 4400,-945 257,2127 10604,2325 8651,5769l-1952 2576c3106,813 6000,-1377 8820,-1847 317,397 913,1258 599,1677 2008,-4229 7136,2788 11755,362 5741,3465 15759,4995 17938,8722 5173,212 9980,-436 15073,1781 -1060,321 -2663,-31 -3176,906 3200,2298 4093,896 7167,718 -704,715 5947,3817 9356,5010 4173,-1419 2255,-3894 2486,-5431 1648,1889 3377,101 4953,-851l153 -94 74 -45 27 -28 18 -4c7655,2482 -17140,-5553 17168,5557l10 3 -7 14 25 56 394 864 756 1771 1206 3608c641,2419 879,4898 -139,6205 -520,-1279 -4194,-8694 -3985,-3019 -3597,5951 4340,9876 3929,12605l2761 -2367c-677,1872 3057,46 1276,2928 784,-784 4040,2500 4280,-1432 6846,2767 32966,-1224 37651,7787 1956,-213 6404,1412 5902,-662 -2618,-2716 -4619,512 -5466,-1123 1690,255 2269,-672 2562,-1140 3883,1726 6916,2674 2423,4870 8118,4741 10774,-4190 22212,2308 -1168,1164 -537,2098 2931,3482 2534,192 5100,394 7955,1712 7526,6891 1938,6173 457,8289 4381,1715 6811,9269 9788,11033 202,2576 -1032,4887 -2569,7003 2994,-4880 1098,4591 889,7421l-49 -2788c-1112,774 -1597,7048 -5278,10363 2541,607 7739,-6218 7913,-10042 635,3398 -463,8240 -4549,13758 -927,-1739 -9593,4758 -12939,5149 -4016,819 -3716,3754 -4884,4019 -471,-1251 -6167,1300 -3723,-1234 1154,-788 3137,683 5072,-1293 -2904,-14 -3075,-2545 -7676,387 -3451,2088 2001,4911 -5420,4671 1746,-973 1885,-2046 3130,-3225l-6805 -87 129 2367c-990,-418 -418,-739 -861,-969 -1558,2764 -9764,2273 -10743,5170 -3657,658 -5717,-631 -10238,-656l739 -251c-5131,-833 -11092,-101 -14871,732l262 -488c-2555,-359 -7652,-1129 -10667,-428 -5030,-2950 359,-8997 -5968,-7537 -5173,-1290 -8551,2391 -7094,4228 -8788,-3834 -16021,-725 -19768,-2227 -199,1042 261,1241 -261,2566 -5951,87 -7122,22065 -29052,28451 5822,-3507 -606,-2140 -1171,-3489 -4375,3650 -6240,-404 -7495,3587 774,1896 164,3395 7408,2151 -16283,6191 -31516,-2273 -34186,-5320 1931,1869 -115,1719 -2217,1517 1935,-2807 -3549,-5926 -8028,-6613l-1391 1638 -1701 -3071c-1778,-73 -3392,3169 -6149,63 87,-826 157,-1659 -317,-2468 -4595,28 -9273,2147 -11653,314l-2371 -2719c-1220,571 -2423,2342 -450,3088 -4294,-993 -9750,2200 -13169,1112 -5253,4811 -11382,17823 -36061,13442 -21982,-10984 -21093,-25332 -24388,-36975l1667 498c439,-6515 -3821,-2617 -2409,-8066 1244,2318 3716,-5434 4978,220 2750,-9520 -1586,-13226 2318,-20448 -1217,-2019 -1980,5954 -3521,3552 -192,-1949 9963,-13389 10287,-15523 3158,-795 2572,2392 2287,4159l4563 -4981c7316,-1050 -9792,15072 -544,13535l3374 -3001c4985,453 -6536,8941 2360,4106 2276,-3465 4504,-10084 -91,-8749 9548,-4539 2280,-9384 14920,-11340 3615,1022 -9959,1823 -7024,4208 6079,369 11001,-2423 16213,-1848 -5543,-1077 -697,-4490 3242,-4549 5908,2674 -4253,2067 4155,4138 1624,-1485 10147,-837 3433,-3671 4508,-3413 8792,3598 14519,3186 1223,3695 -10935,2043 -2998,7355 -56,-1530 2970,-1112 5815,-875l536 39 262 10 125 11 35 0c3347,5811 -7481,-12992 7498,13016l11 7 0 28 10 83 251 1370 638 2102c516,973 1408,931 2778,-1450 -2084,7321 -4535,6986 -5005,2182l-2068 7143 -962 3803 -526 1851 -70 223 -31 112 -21 55 -10 32 0 7c-7199,3039 16101,-6808 -16130,6822l-7 0 -212 45 -422 87c-2207,425 -4016,450 -4242,-2318l-1816 2520c-1147,-1112 -2904,-2091 -4762,-3928 -3573,-589 -12521,1513 -11385,-2517 -1223,286 -9666,-1806 -7007,1757 4975,2963 6467,-865 8663,3590 -3103,-3806 -7673,-1046 -11033,-749l-164 -1698c-1980,181 -6079,-1035 -7728,289 1684,-491 1178,-1781 -192,-2569l-2614 1834c-8066,-997 -596,-4570 -8251,-6156l6163 -164c-1370,-24 -3061,-2656 -6920,-3343 -2115,1632 -5758,3183 -7675,4326 -4891,-823 -816,-2816 -6714,-3242 2635,415 5051,548 7160,279 1199,-261 -2318,-4692 -8443,-8202 -3500,-119 -14728,-7122 -7062,1760 -4487,-3597 -8332,-10227 -4208,-8090 -7400,-8509 -1809,2907 -7801,-4745 -272,-1537 -5212,-18816 4863,-29637 -2402,4386 -997,10127 -14,14223 -32,-2834 397,-5836 1112,-8492 878,10751 3099,-3939 5002,2500 1314,-3033 5636,-8370 8052,-9423 -12849,-1161 9775,-10513 6003,-13351 14281,-2234 7819,10796 20577,4494 -1799,-1471 4364,-4204 -3113,-3859 7146,1568 5459,-4232 14383,-279 -6867,446 5483,6006 -4169,6735 937,-1405 -4881,-2242 -6205,-1869 2579,2283 -1339,4284 5605,5787 4647,603 7645,697 7700,-1653 293,-2677 -4200,-345 -1959,-2739 4975,-119 6596,4409 6704,-848 -596,1151 -2866,-2719 -2109,-4231 1387,73 1948,-405 1446,-1018l164 1830c241,1527 631,-3448 -2782,-1311 272,1747 1224,2287 2231,2635 1161,3277 1116,-2297 1872,2873 1318,-638 -1805,-635 401,-1743l133 1820c157,-963 6117,3956 5692,-4713 87,-3688 -1234,-1496 -2862,-2315 2820,-8307 3036,-12804 6627,-19636 1788,3235 9593,-11280 6651,-1966 -5609,1914 -12054,17001 -9851,20786 5096,-990 -3158,5668 87,8711 2670,-5483 6414,-3653 9394,-3621 980,-1782 680,-4054 771,-5341 -2008,-1858 -3029,624 -5525,-289 3562,-7401 7498,-16119 9854,-22132 3232,-1785 4173,997 1907,4075 3329,-9631 23784,-17105 32380,-12371 -6194,-5243 11633,885 7753,-3259 -5407,-1939 -10402,-5609 -6812,-7017 3800,867 -362,1805 1116,2942 5257,-1475 6410,4618 12340,2875 -11639,-2147 -3385,4323 -6317,6829 7537,443 -878,2155 5780,4309 2283,1771 29079,3897 9210,25300 -11542,2890 -26437,3629 -33081,4058 -4277,-1750 -1482,-5417 -6006,-6149 -5299,-39 3956,4096 -3929,2227l767 -718c-2454,718 -14264,-2600 -16976,2238l2719 -3744c-1433,-512 -2838,227 -4082,520 45,-1315 -1524,-2702 903,-3288 -4487,-3329 -9998,-742 -15244,-1258l3012 2764c-9322,1046 -14711,-3074 -23411,-3845l763 -2231 -5358 328c1726,-1886 -2492,-4385 -5542,-3287l14184 -2642c3287,2081 -4511,1952 -2754,4664 1502,2367 9513,3357 11155,1398 -2932,-865 -3155,-387 -5644,-39 -349,-3388 4138,-2339 6731,-4019 -1568,-188 -3562,-1607 -4092,-666 3332,-1046 6351,-296 11430,140 -3611,857 1569,2217 139,2977 847,-2779 5749,-3089 11894,-1545 4187,4103 11915,-1192 19054,-195 -2987,2834 -6909,5089 -11510,6163 4594,1544 5197,21 9844,1576 2339,-2109 3977,-5393 9907,-6582l362 2155c5358,-1008 5912,-4166 12786,-3507 5755,537 10664,746 14606,-1332l2980 -1317 743 -307 195 -77c-5448,13944 -1572,3810 -2799,6902l-178 -191 -585 -733c-454,-990 -746,-2346 -2576,-3060l1024 -1869c-4510,1224 -14309,-3562 -20594,-1725 -9088,-4668 -13037,10325 -18995,11566 -4702,7986 -3810,17809 -13783,29124 -12402,11539 -28493,5665 -36591,3950l3779 -2356c-3901,1533 -1809,-2346 -5487,-2367 3646,3081 -5379,2311 -7686,4367 -8461,-1251 -18929,719 -7826,-66l-1917 882c4360,1848 5964,5978 16843,10813 705,1266 1893,3685 4922,4264 6223,-1778 8963,-921 17398,-1273 5867,1203 15317,3761 21383,6062 -3511,1928 14198,-4563 -6728,4364l-847 -773c1973,4238 -4434,-9702 5187,9488l-3144 -1000c-3849,-1851 -8422,-2193 -12508,-2744 -8801,-930 -15913,3326 -15160,7167l-2422 35c-447,4525 7111,17802 6159,18744 -4859,149 8136,-2848 16708,-10566l178 4807c5825,-2468 16376,-7990 13602,-10130 10046,-1743 23376,-1774 27127,2953 6839,3172 9523,1237 14968,3050 10953,6668 16858,9328 22550,9248l-917 -237c-652,1007 -1286,2677 66,2963 3019,-91 3964,-272 2019,-2698 2534,3792 6592,-24409 31380,-30819 -2214,-708 2788,-2768 4855,-4295 19751,-3698 31342,5156 40381,4333 1586,1126 -3375,1590 1091,2887 2544,28 505,-1757 3597,-1872 12312,1840 30373,1690 45219,-1607 2416,-1123 5699,-2447 5961,-3131 115,-2088 2415,4246 5483,5864 -14118,-7021 -4842,-2169 -7934,-3476 -1715,290 4703,422 4218,-94 -1729,-94 -4960,1729 -3929,1666 1552,359 -2182,-1157 -2555,-2116 -7940,-4967 -22438,-8767 -34698,-10255l422 -973c-8520,1844 -16000,-3287 -31680,189 -3806,-1499 -15529,-7024 -11371,-7171 -7041,-3200 -14522,-12915 -15125,-23596 -80,-2631 -45,-6926 -575,-8306l-833 -2158 -509 -976 -18 -28 -13 -21 0 0c-21871,-7083 29793,9635 24463,7923l-31 18 -171 111 -373 237 -739 488 -1478 976 2029 -979 910 -631 10 -4c5393,1754 -47090,-15240 -24861,-8045l-7 11 10 0 21 27 39 32 69 66 178 164 49 -310 42 -150c48401,15665 13407,4343 24202,7843l-17 7 -14 7 -56 17 -98 39 -223 66 -1655 568 -3284 1102 -6435 2070c-4514,1733 -7697,1304 -11427,1663 -7721,749 -13626,-586 -20239,-2688 1328,-132 4009,-69 4567,-997 -4915,-2687 -12263,1618 -13766,-3754 -2576,-746 -2471,1841 -850,2186 -25228,-9067 -52515,-16216 -77247,-21888 -16861,-7861 1018,-8387 -13895,-8774 -934,-1258 -1248,1607 -1210,551 -5563,463 -7341,-6609 -11573,-4619 1085,3221 -2739,1346 -3092,3165 -10527,-3346 -12071,-6829 -21929,-5051l809 -1547c-11685,3715 -24266,310 -33099,4820 -13340,-2464 -21933,5233 -48251,1029 -4368,-1300 -10918,-6031 -12473,-7111 1489,-1827 2535,10848 6571,-5567 -2485,16481 -1767,4615 -4842,9112 -4141,1366 -11632,4015 -16028,7571 -20897,4497 -36570,48488 -90922,37975 -12500,-4831 -9547,1056 -10189,-13197l269 -440 -42 -195 -35 -97c-2137,24676 2897,-33636 2405,-27619l21 17 73 39 136 73 1098 617 4389 2440 4396 2430 2182 1223 1101 607 63 31 42 21c6773,-2963 -58887,25977 -31087,13696l63 -202 150 -401 275 -823c2095,-15059 20427,-42186 43396,-44884 10607,-2164 19789,-3625 33680,506 17788,3235 27232,29807 25443,34918 1743,17837 1611,15972 9039,24195 6013,9949 7781,9241 23112,17642 -1004,157 -2019,-310 -1395,858 3371,-1956 8976,5643 11936,3681 16467,12877 30480,17691 51748,24077 -3277,-642 -5745,1540 -1851,2527l4601 -872 373 1133c2764,332 6024,-432 3657,-2346 49025,9726 121702,34674 144953,61045 -8565,-15578 -1182,-4274 -1729,-15324 1251,-6257 2119,-17984 9387,-29351 33234,-29982 57499,-10151 73663,-12713 16175,830 34577,-7163 57942,-12936 122,234 -5078,9583 -21312,16296z"/>
   <g>
    <path class="fil2" d="M282077 197370c-11936,-8091 -26036,-15345 -40541,-19409 -5072,-1419 -10189,-2458 -15251,-3002 -13194,-1690 -30376,5375 -47470,823 -1423,-401 -2807,-868 -4183,-1429 -13937,-5999 -22568,-18496 -32736,-25119 -9259,-6219 -18984,-10225 -29125,-13066 -23557,-6658 -49353,-6696 -74873,-13793 -3011,-844 -6013,-1799 -8993,-2862 -8690,-3127 -16433,-6850 -21947,-12138 -5536,-5162 -8544,-12873 -6100,-21079 1519,-5448 5023,-11022 10628,-17025l349 -418 449 -269c42,-17 63168,-40934 85603,-54571 22755,-13901 44263,-17279 66629,-10935 6630,1855 13298,4525 20221,7944 16478,8185 27542,14965 38226,17921 10636,2925 21299,2705 38909,-3636 21871,-7853 48280,-18565 73681,-13577 1405,275 2789,603 4180,993 16857,4846 30114,15896 44668,19849 2945,826 5964,1394 9112,1617 12183,963 28964,-6246 43852,-7832 26709,-2611 55167,-2071 81277,4772 16146,4263 46989,7867 71543,14735 12626,3576 23687,7836 30910,14421 9927,9133 10565,22344 7181,34126 -3765,13233 -12170,25879 -20306,34218 -15435,15414 -42848,38372 -65656,41206 -10869,1192 -21041,-575 -30644,-3270 -10855,-3060 -21076,-7257 -31077,-10043 -14700,-4061 -28385,-5343 -44089,3218 -13274,7202 -26297,23672 -34468,37222 -4867,7205 -7328,26060 -19880,33600 -10841,5926 -23498,5288 -35877,1841 -24544,-6944 -49813,-25339 -64202,-35033zm4918 -7272l0 0c14435,9831 39373,27657 61658,33841 11256,3151 21393,3287 29292,-1077 7024,-3190 10987,-20424 16579,-30453 8704,-14281 21978,-31634 37755,-40362 18113,-10022 35186,-8398 50688,-3985 10663,3009 20874,7206 31073,10064 9029,2531 17994,4009 27319,2973 17924,-1708 46010,-23819 60351,-38609 7149,-7258 14992,-19183 18105,-30449 2820,-10332 2019,-19162 -4681,-25318 -5093,-4776 -15254,-9081 -27319,-12417 -23624,-6647 -54104,-10189 -71387,-14693 -24704,-6462 -52218,-7065 -78212,-4524 -12832,1115 -29801,8756 -45299,7860 -3817,-272 -7436,-944 -10887,-1913 -16906,-4884 -30187,-15931 -44664,-19870 -1178,-314 -2339,-599 -3538,-829 -21693,-4476 -46976,5180 -68972,13221 -18496,6770 -31812,7380 -44263,3828 -12434,-3528 -23634,-10555 -39743,-18489 -6522,-3245 -12720,-5679 -18705,-7352 -20239,-5598 -38268,-2942 -59720,9980 -21061,12786 -79139,50399 -84874,54122 -4796,5159 -7306,9565 -8254,13013 -1321,5225 -80,8470 3775,12402 3890,3814 10681,7331 18785,10200 2765,979 5595,1868 8415,2656 23973,6780 49747,6808 74859,13811 10806,3005 21470,7373 31652,14212 11894,8154 20371,19929 31226,24311 1032,404 2113,791 3166,1084 13030,3921 29612,-2639 46058,-1095 5609,600 11186,1740 16673,3280 15690,4392 30519,12079 43089,20577z"/>
   </g>
  </g>
 </g>
</svg>
