<?xml version="1.0" encoding="UTF-8"?>
<!DOCTYPE svg PUBLIC "-//W3C//DTD SVG 1.1//EN" "http://www.w3.org/Graphics/SVG/1.1/DTD/svg11.dtd">
<!-- Creator: CorelDRAW X7 -->
<svg xmlns="http://www.w3.org/2000/svg" xml:space="preserve" width="1.15893in" height="0.546969in" version="1.1" style="shape-rendering:geometricPrecision; text-rendering:geometricPrecision; image-rendering:optimizeQuality; fill-rule:evenodd; clip-rule:evenodd"
viewBox="0 0 395 186"
 xmlns:xlink="http://www.w3.org/1999/xlink">
 <defs>
  <style type="text/css">
   <![CDATA[
    .fil2 {fill:#E6E6E6;fill-rule:nonzero}
    .fil0 {fill:white;fill-rule:nonzero}
    .fil1 {fill:#9ECDD3;fill-rule:nonzero}
   ]]>
  </style>
 </defs>
 <g id="Layer_x0020_1">
  <metadata id="CorelCorpID_0Corel-Layer"/>
  <g id="_1229957712">
   <path class="fil0" d="M392 79c0,-30 -27,-53 -61,-53 -11,0 -21,2 -30,6 -18,-18 -45,-29 -75,-29 -24,0 -46,7 -63,19 -11,-7 -25,-11 -40,-11 -32,0 -59,19 -67,45 -30,4 -54,26 -54,53 0,29 28,53 62,53 11,0 22,-3 31,-8 12,18 34,30 60,30 14,0 28,-4 39,-11 10,3 21,5 32,5 15,0 29,-3 42,-8 10,9 25,14 40,14 34,0 61,-24 61,-53 0,-4 0,-7 -1,-10 15,-10 24,-25 24,-42z"/>
   <path class="fil1" d="M97 153c12,17 33,28 58,28 14,0 27,-3 37,-10l1 0 1 0c10,3 21,4 32,4 14,0 28,-2 41,-7l1 -1 1 1c10,8 24,13 39,13 33,0 59,-23 59,-50 0,-4 0,-7 -1,-10l0 -1 1 -1c14,-10 23,-24 23,-40 0,-28 -26,-51 -59,-51 -10,0 -20,2 -28,7l-2 0 -1 -1c-18,-18 -45,-29 -74,-29 -24,0 -45,7 -62,19l-1 1 -2 -1c-10,-6 -23,-10 -38,-10 -31,0 -57,18 -64,43l-1 2 -2 0c-29,3 -51,24 -51,50 0,28 26,51 59,51 11,0 21,-3 30,-8l2 -1 1 2zm-3 5c-9,4 -19,7 -30,7 -35,0 -64,-25 -64,-56 0,-28 24,-51 54,-55 9,-26 37,-45 69,-45 15,0 28,3 40,10 17,-12 39,-19 63,-19 30,0 57,11 76,29 9,-4 19,-6 29,-6 35,0 64,25 64,56 0,17 -10,33 -24,43 1,3 1,6 1,9 0,31 -29,55 -64,55 -15,0 -30,-5 -41,-13 -13,5 -26,8 -41,8 -11,0 -22,-2 -32,-5 -11,7 -25,10 -39,10 -26,0 -48,-11 -61,-28z"/>
   <path class="fil2" d="M388 79c0,-15 -8,-29 -20,-38 3,6 5,13 5,21 0,16 -8,30 -22,39 1,3 1,6 1,9 0,28 -25,50 -57,50 -15,0 -28,-5 -38,-13 -12,5 -25,8 -39,8 -11,0 -21,-2 -30,-4 -11,6 -23,9 -37,9 -23,0 -44,-11 -55,-27 -9,4 -19,7 -30,7 -31,0 -57,-22 -57,-50 0,0 0,0 0,-1 -3,6 -4,13 -4,20 0,29 27,52 60,52 11,0 22,-3 31,-7 12,17 33,29 58,29 14,0 28,-4 38,-11 10,3 21,5 32,5 15,0 29,-3 41,-8 11,8 25,13 40,13 33,0 60,-23 60,-52 0,-3 0,-6 -1,-9 14,-10 24,-25 24,-42z"/>
  </g>
 </g>
</svg>
