<?xml version="1.0" encoding="UTF-8"?>
<!DOCTYPE svg PUBLIC "-//W3C//DTD SVG 1.1//EN" "http://www.w3.org/Graphics/SVG/1.1/DTD/svg11.dtd">
<!-- Creator: CorelDRAW X7 -->
<svg xmlns="http://www.w3.org/2000/svg" xml:space="preserve" width="2.167in" height="0.980575in" version="1.1" style="shape-rendering:geometricPrecision; text-rendering:geometricPrecision; image-rendering:optimizeQuality; fill-rule:evenodd; clip-rule:evenodd"
viewBox="0 0 6501 2942"
 xmlns:xlink="http://www.w3.org/1999/xlink">
 <defs>
  <style type="text/css">
   <![CDATA[
    .fil2 {fill:#E6E6E6;fill-rule:nonzero}
    .fil0 {fill:white;fill-rule:nonzero}
    .fil1 {fill:#9ECDD3;fill-rule:nonzero}
   ]]>
  </style>
 </defs>
 <g id="Layer_x0020_1">
  <metadata id="CorelCorpID_0Corel-Layer"/>
  <g id="_1229956976">
   <path class="fil0" d="M6481 626c0,-233 -217,-422 -486,-422 -85,0 -165,19 -235,52 -147,-144 -361,-236 -601,-236 -190,0 -364,58 -502,154 -88,-54 -196,-85 -312,-85 -257,0 -472,153 -534,359 -240,25 -426,202 -426,418 0,233 217,422 485,422 92,0 177,-23 250,-62 97,140 273,234 474,234 115,0 221,-30 309,-82 81,23 166,36 256,36 118,0 230,-22 332,-62 86,67 199,108 323,108 269,0 486,-189 486,-423 0,-26 -3,-52 -8,-77 115,-77 189,-198 189,-334z"/>
   <path class="fil1" d="M4137 1215c92,134 261,225 457,225 111,0 214,-29 299,-80l8 -4 8 3c78,22 162,35 250,35 116,0 225,-22 324,-61l11 -4 9 7c82,64 191,104 311,104 260,-1 466,-183 467,-403 0,-25 -3,-49 -8,-73l-3 -13 11 -8c110,-74 180,-189 180,-317 0,-220 -206,-402 -466,-402 -82,0 -159,18 -227,50l-12 6 -10 -9c-143,-141 -353,-231 -587,-231 -186,0 -356,56 -490,150l-11 7 -11 -6c-86,-52 -190,-82 -302,-82 -249,0 -456,148 -515,345l-3 12 -14 2c-232,24 -409,195 -409,398 1,219 206,402 466,402 88,0 171,-22 241,-59l16 -8 10 14zm-23 37c-72,35 -156,56 -244,56 -277,-1 -505,-196 -505,-442 0,-224 189,-406 432,-436 69,-210 289,-361 548,-361 115,0 222,30 312,81 139,-94 313,-150 502,-150 239,0 454,90 605,232 69,-31 148,-48 231,-48 277,0 505,195 506,442 0,139 -74,262 -187,343 4,22 6,45 6,68 0,247 -228,442 -506,443 -124,0 -238,-40 -327,-106 -100,39 -211,60 -328,60 -89,0 -173,-12 -253,-35 -90,52 -197,81 -312,81 -201,0 -377,-90 -480,-228z"/>
   <path class="fil2" d="M6444 630c0,-122 -61,-231 -158,-307 29,51 46,109 46,170 0,128 -70,240 -178,313 6,23 8,47 8,72 0,218 -203,395 -454,395 -116,0 -222,-39 -303,-101 -94,37 -199,59 -310,59 -83,0 -163,-13 -239,-35 -82,49 -182,77 -289,77 -188,0 -352,-87 -442,-218 -69,36 -149,57 -235,57 -250,0 -453,-176 -453,-394 0,-3 0,-5 0,-8 -23,48 -35,101 -35,157 0,228 213,414 476,414 91,0 175,-23 247,-60 94,137 267,229 465,229 112,0 217,-30 304,-81 79,23 163,36 251,36 116,0 227,-22 326,-62 85,66 196,107 318,107 264,0 478,-186 478,-415 0,-26 -3,-52 -9,-76 113,-76 186,-195 186,-329z"/>
   <path class="fil0" d="M5029 1563c0,-376 -351,-681 -784,-681 -138,0 -267,31 -380,85 -237,-234 -583,-382 -970,-382 -306,0 -587,93 -809,248 -143,-86 -317,-136 -504,-136 -414,0 -761,246 -861,579 -388,40 -689,327 -689,675 0,375 351,680 783,680 148,0 286,-36 405,-99 155,226 439,377 764,377 185,0 357,-49 499,-133 130,38 268,60 412,60 192,0 372,-37 536,-102 138,108 321,174 522,174 433,0 785,-305 785,-681 0,-43 -6,-85 -14,-125 185,-125 305,-320 305,-539z"/>
   <path class="fil1" d="M1246 2514c149,216 422,363 738,363 179,0 345,-48 483,-129l12 -7 13 4c127,37 262,58 403,58 187,0 365,-36 524,-99l17 -7 14 12c133,103 309,167 503,167 419,0 752,-295 753,-649 -1,-40 -5,-80 -14,-118l-4 -22 18 -12c178,-120 291,-305 291,-512 0,-355 -333,-649 -752,-649 -133,0 -258,30 -366,82l-20 10 -16 -16c-231,-227 -569,-372 -948,-372 -300,0 -574,91 -791,242l-17 11 -17 -10c-139,-83 -306,-132 -488,-132 -402,0 -736,239 -831,556l-6 21 -21 2c-375,39 -661,315 -660,643 1,354 333,648 751,648 143,0 276,-36 390,-95l25 -13 16 23zm-36 59c-117,57 -252,90 -395,90 -447,0 -814,-315 -815,-712 1,-362 306,-655 697,-705 113,-338 467,-581 885,-581 185,0 358,48 503,130 224,-152 505,-242 810,-242 387,0 734,145 977,375 112,-50 239,-79 373,-79 447,1 815,316 816,714 0,225 -119,424 -302,554 7,35 10,72 10,110 -1,398 -369,713 -816,714 -201,0 -385,-64 -527,-170 -163,62 -342,97 -531,97 -142,0 -279,-21 -408,-57 -145,83 -318,131 -503,131 -324,0 -609,-146 -774,-369z"/>
   <path class="fil2" d="M4970 1570c0,-197 -99,-374 -255,-496 46,83 73,176 73,275 0,205 -112,387 -286,504 8,38 13,77 13,117 0,352 -328,637 -733,637 -188,0 -359,-62 -489,-163 -152,60 -321,95 -500,95 -135,0 -264,-20 -386,-56 -133,79 -294,125 -467,125 -303,0 -568,-142 -714,-353 -110,58 -239,93 -378,93 -404,0 -732,-285 -732,-636 0,-5 1,-9 1,-13 -37,78 -57,163 -57,252 0,369 344,669 769,669 146,0 281,-36 398,-97 152,221 431,370 750,370 182,0 351,-48 491,-130 127,37 263,58 405,58 188,0 366,-36 526,-100 136,106 316,171 514,171 425,0 770,-299 770,-669 0,-42 -5,-83 -13,-123 182,-123 300,-314 300,-530z"/>
  </g>
 </g>
</svg>
