<?xml version="1.0" encoding="UTF-8"?>
<!DOCTYPE svg PUBLIC "-//W3C//DTD SVG 1.1//EN" "http://www.w3.org/Graphics/SVG/1.1/DTD/svg11.dtd">
<!-- Creator: CorelDRAW X7 -->
<svg xmlns="http://www.w3.org/2000/svg" xml:space="preserve" width="16.691mm" height="43.0215mm" version="1.1" style="shape-rendering:geometricPrecision; text-rendering:geometricPrecision; image-rendering:optimizeQuality; fill-rule:evenodd; clip-rule:evenodd"
viewBox="0 0 473317 1219987"
 xmlns:xlink="http://www.w3.org/1999/xlink">
 <defs>
  <style type="text/css">
   <![CDATA[
    .str0 {stroke:#B3B3B3;stroke-width:5002.28}
    .fil1 {fill:white}
    .fil2 {fill:white;fill-opacity:0.419608}
    .fil0 {fill:gray;fill-opacity:0.529412}
   ]]>
  </style>
 </defs>
 <g id="Layer_x0020_1">
  <metadata id="CorelCorpID_0Corel-Layer"/>
  <path class="fil0" d="M427970 29886c-138252,0 -286463,0 -424712,0 67891,400733 -8805,791733 -757,1187599 138252,0 276504,0 414756,0 -5644,-277672 34097,-551756 35747,-829803 -8850,271275 -51052,538761 -52850,809723 -125156,0 -250318,0 -375474,0 2583,-389080 81757,-773377 30286,-1167241l373047 0 -43 -278z"/>
  <path class="fil1 str0" d="M452105 2501c-138252,0 -286460,0 -424712,0 59747,409974 -24892,809990 -24892,1214984 138252,0 276504,0 414756,0 -3,-404994 92105,-802520 34848,-1214984zm-12650 27663c-125159,0 -259330,0 -384489,0 51471,393864 -27703,778161 -30286,1167241 125156,0 250318,0 375474,0 2581,-389080 88501,-770983 39301,-1167241z"/>
  <path class="fil2" d="M354861 59849l-176653 4562c44969,5791 100420,16266 146617,22610 81568,11193 66385,-5235 76078,92242 7880,79265 8836,161805 8391,240492 11538,-90756 23466,-182623 19623,-271513 -3978,-91966 6477,-90472 -74056,-88393z"/>
 </g>
</svg>
