<?xml version="1.0" encoding="UTF-8"?>
<!DOCTYPE svg PUBLIC "-//W3C//DTD SVG 1.1//EN" "http://www.w3.org/Graphics/SVG/1.1/DTD/svg11.dtd">
<!-- Creator: CorelDRAW X7 -->
<svg xmlns="http://www.w3.org/2000/svg" xml:space="preserve" width="28.9459mm" height="28.9459mm" version="1.1" style="shape-rendering:geometricPrecision; text-rendering:geometricPrecision; image-rendering:optimizeQuality; fill-rule:evenodd; clip-rule:evenodd"
viewBox="0 0 872985 872985"
 xmlns:xlink="http://www.w3.org/1999/xlink">
 <defs>
  <style type="text/css">
   <![CDATA[
    .str0 {stroke:#B3B3B3;stroke-width:5320.08}
    .str1 {stroke:white;stroke-width:5320.08}
    .fil7 {fill:none}
    .fil4 {fill:#00CCFF}
    .fil6 {fill:#339966}
    .fil5 {fill:red}
    .fil3 {fill:#FFFF66}
    .fil0 {fill:url(#id1)}
    .fil1 {fill:url(#id2)}
    .fil2 {fill:url(#id3)}
   ]]>
  </style>
   <clipPath id="id0">
    <path d="M783135 529372c51295,-191441 -62315,-388224 -253760,-439522 -191444,-51297 -388227,62315 -439525,253760 -51294,191444 62315,388224 253760,439522 191444,51298 388227,-62315 439525,-253760z"/>
   </clipPath>
  <linearGradient id="id1" gradientUnits="userSpaceOnUse" x1="826567" y1="541005" x2="46421" y2="331977">
   <stop offset="0" style="stop-opacity:1; stop-color:gray"/>
   <stop offset="1" style="stop-opacity:1; stop-color:#FEFEFE"/>
  </linearGradient>
  <linearGradient id="id2" gradientUnits="userSpaceOnUse" xlink:href="#id1" x1="67137.4" y1="337518" x2="805851" y2="535465">
  </linearGradient>
  <radialGradient id="id3" gradientUnits="userSpaceOnUse" gradientTransform="matrix(-1.29373 -0.346653 0.34673 -1.29372 757556 1.20593E+006)" cx="400596" cy="465209" r="244094" fx="400596" fy="465209">
   <stop offset="0" style="stop-opacity:1; stop-color:white"/>
   <stop offset="0.741176" style="stop-opacity:1; stop-color:#D9D9D9"/>
   <stop offset="1" style="stop-opacity:1; stop-color:#B3B3B3"/>
  </radialGradient>
 </defs>
 <g id="__x0023_Layer_x0020_1">
  <metadata id="CorelCorpID_0Corel-Layer"/>
  <path class="fil0 str0" d="M855460 548756c62001,-231391 -75314,-469229 -306704,-531230 -231391,-62002 -469229,75316 -531230,306704 -61999,231390 75316,469229 306707,531230 231390,62001 469226,-75317 531227,-306704zm-80187 -21489c50133,-187101 -60901,-379418 -248003,-429554 -187104,-50134 -379421,60900 -429554,248005 -50137,187102 60897,379418 248002,429555 187105,50133 379421,-60901 429555,-248006z"/>
  <path class="fil1 str0" d="M39783 330195c58708,-219101 283913,-349123 503010,-290415 219101,58708 349123,283913 290415,503010 -58708,219101 -283912,349123 -503013,290415 -219098,-58708 -349120,-283912 -290412,-503010zm75929 20342c47470,-177164 229572,-282299 406736,-234828 177167,47470 282302,229572 234832,406739 -47471,177164 -229572,282299 -406740,234829 -177164,-47471 -282302,-229572 -234828,-406740z"/>
  <path class="fil2" d="M783135 529372c51295,-191441 -62315,-388224 -253760,-439522 -191444,-51297 -388227,62315 -439525,253760 -51294,191444 62315,388224 253760,439522 191444,51298 388227,-62315 439525,-253760z"/>
  <g style="clip-path:url(#id0)">
   <g id="_948944528">
    <rect class="fil3 str1" x="440278" y="-876986" width="1295909" height="1295909"/>
    <rect class="fil4 str1" x="-855632" y="-876986" width="1295909" height="1295909"/>
    <rect class="fil5 str1" x="440278" y="418923" width="1295909" height="1295909"/>
    <rect class="fil6 str1" x="-855632" y="418923" width="1295909" height="1295909"/>
   </g>
  </g>
  <path class="fil7 str0" d="M783135 529372c51295,-191441 -62315,-388224 -253760,-439522 -191444,-51297 -388227,62315 -439525,253760 -51294,191444 62315,388224 253760,439522 191444,51298 388227,-62315 439525,-253760z"/>
 </g>
</svg>
