<?xml version="1.0" encoding="UTF-8"?>
<!DOCTYPE svg PUBLIC "-//W3C//DTD SVG 1.1//EN" "http://www.w3.org/Graphics/SVG/1.1/DTD/svg11.dtd">
<!-- Creator: CorelDRAW X7 -->
<svg xmlns="http://www.w3.org/2000/svg" xml:space="preserve" width="11.0924mm" height="51.2983mm" version="1.1" style="shape-rendering:geometricPrecision; text-rendering:geometricPrecision; image-rendering:optimizeQuality; fill-rule:evenodd; clip-rule:evenodd"
viewBox="0 0 63033472 291506795"
 xmlns:xlink="http://www.w3.org/1999/xlink">
 <defs>
  <style type="text/css">
   <![CDATA[
    .fil47 {fill:#FA9FC3}
    .fil39 {fill:white}
    .fil11 {fill:#2691E0;fill-rule:nonzero}
    .fil2 {fill:#303030;fill-rule:nonzero}
    .fil14 {fill:#79C8E1;fill-rule:nonzero}
    .fil48 {fill:#ED1C6F;fill-rule:nonzero}
    .fil84 {fill:#F2166E;fill-rule:nonzero}
    .fil82 {fill:#F5468C;fill-rule:nonzero}
    .fil31 {fill:#F9FF5D;fill-rule:nonzero}
    .fil83 {fill:#FAA1C5;fill-rule:nonzero}
    .fil32 {fill:#FFE830;fill-rule:nonzero}
    .fil34 {fill:#FFF347;fill-rule:nonzero}
    .fil86 {fill:white;fill-rule:nonzero}
    .fil87 {fill:url(#id0)}
    .fil75 {fill:url(#id1)}
    .fil74 {fill:url(#id2)}
    .fil63 {fill:url(#id3)}
    .fil46 {fill:url(#id4)}
    .fil26 {fill:url(#id5)}
    .fil12 {fill:url(#id6)}
    .fil80 {fill:url(#id7)}
    .fil13 {fill:url(#id8)}
    .fil65 {fill:url(#id9)}
    .fil18 {fill:url(#id10)}
    .fil24 {fill:url(#id11)}
    .fil8 {fill:url(#id12)}
    .fil70 {fill:url(#id13)}
    .fil81 {fill:url(#id14)}
    .fil52 {fill:url(#id15)}
    .fil68 {fill:url(#id16)}
    .fil61 {fill:url(#id17)}
    .fil19 {fill:url(#id18)}
    .fil55 {fill:url(#id19)}
    .fil16 {fill:url(#id20)}
    .fil3 {fill:url(#id21)}
    .fil51 {fill:url(#id22)}
    .fil53 {fill:url(#id23)}
    .fil60 {fill:url(#id24)}
    .fil22 {fill:url(#id25)}
    .fil0 {fill:url(#id26)}
    .fil57 {fill:url(#id27)}
    .fil21 {fill:url(#id28)}
    .fil28 {fill:url(#id29)}
    .fil76 {fill:url(#id30)}
    .fil4 {fill:url(#id31)}
    .fil54 {fill:url(#id32)}
    .fil15 {fill:url(#id33)}
    .fil17 {fill:url(#id34)}
    .fil50 {fill:url(#id35)}
    .fil59 {fill:url(#id36)}
    .fil79 {fill:url(#id37)}
    .fil20 {fill:url(#id38)}
    .fil33 {fill:url(#id39)}
    .fil58 {fill:url(#id40)}
    .fil77 {fill:url(#id41)}
    .fil49 {fill:url(#id42)}
    .fil78 {fill:url(#id43)}
    .fil56 {fill:url(#id44)}
    .fil1 {fill:url(#id45)}
    .fil69 {fill:url(#id46)}
    .fil67 {fill:url(#id47)}
    .fil85 {fill:url(#id48)}
    .fil7 {fill:url(#id49)}
    .fil72 {fill:url(#id50)}
    .fil64 {fill:url(#id51)}
    .fil66 {fill:url(#id52)}
    .fil71 {fill:url(#id53)}
    .fil25 {fill:url(#id54)}
    .fil36 {fill:url(#id55)}
    .fil73 {fill:url(#id56)}
    .fil23 {fill:url(#id57)}
    .fil41 {fill:url(#id58)}
    .fil9 {fill:url(#id59)}
    .fil6 {fill:url(#id60)}
    .fil30 {fill:url(#id61)}
    .fil29 {fill:url(#id62)}
    .fil43 {fill:url(#id63)}
    .fil62 {fill:url(#id64)}
    .fil37 {fill:url(#id65)}
    .fil5 {fill:url(#id66)}
    .fil27 {fill:url(#id67)}
    .fil35 {fill:url(#id68)}
    .fil38 {fill:url(#id69)}
    .fil44 {fill:url(#id70)}
    .fil42 {fill:url(#id71)}
    .fil45 {fill:url(#id72)}
    .fil10 {fill:url(#id73)}
    .fil40 {fill:url(#id74)}
   ]]>
  </style>
  <linearGradient id="id0" gradientUnits="userSpaceOnUse" x1="4.1638e+007" y1="0" x2="4.1638e+007" y2="1.01298e+007">
   <stop offset="0" style="stop-opacity:1; stop-color:#EFF2F2"/>
   <stop offset="0.14902" style="stop-opacity:1; stop-color:#EFF2F2"/>
   <stop offset="0.309804" style="stop-opacity:1; stop-color:#EFF2F2"/>
   <stop offset="0.439216" style="stop-opacity:1; stop-color:#E9ECEC"/>
   <stop offset="0.54902" style="stop-opacity:1; stop-color:#E3E6E6"/>
   <stop offset="0.780392" style="stop-opacity:1; stop-color:#D7DADA"/>
   <stop offset="0.980392" style="stop-opacity:1; stop-color:#CACDCD"/>
   <stop offset="1" style="stop-opacity:1; stop-color:#CACDCD"/>
  </linearGradient>
  <linearGradient id="id1" gradientUnits="userSpaceOnUse" x1="2.54546e+007" y1="4.00077e+007" x2="3.9236e+007" y2="4.00077e+007">
   <stop offset="0" style="stop-opacity:1; stop-color:#BCBEC0"/>
   <stop offset="0.0313725" style="stop-opacity:1; stop-color:#BCBEC0"/>
   <stop offset="0.180392" style="stop-opacity:1; stop-color:white"/>
   <stop offset="0.301961" style="stop-opacity:1; stop-color:white"/>
   <stop offset="0.470588" style="stop-opacity:1; stop-color:#BCBEC0"/>
   <stop offset="0.709804" style="stop-opacity:1; stop-color:#6D6F71"/>
   <stop offset="0.870588" style="stop-opacity:1; stop-color:#6D6F71"/>
   <stop offset="1" style="stop-opacity:1; stop-color:#BCBEC0"/>
  </linearGradient>
  <linearGradient id="id2" gradientUnits="userSpaceOnUse" xlink:href="#id1" x1="2.54551e+007" y1="4.90992e+007" x2="3.92354e+007" y2="4.90992e+007">
  </linearGradient>
  <linearGradient id="id3" gradientUnits="userSpaceOnUse" x1="5.71412e+007" y1="1.8452e+008" x2="5.73583e+007" y2="1.82522e+008">
   <stop offset="0" style="stop-opacity:1; stop-color:white"/>
   <stop offset="0.14902" style="stop-opacity:1; stop-color:white"/>
   <stop offset="0.760784" style="stop-opacity:1; stop-color:#F2166E"/>
   <stop offset="1" style="stop-opacity:1; stop-color:#F2166E"/>
  </linearGradient>
  <linearGradient id="id4" gradientUnits="userSpaceOnUse" x1="9.48821e+006" y1="2.17657e+008" x2="1.23534e+007" y2="2.20653e+008">
   <stop offset="0" style="stop-opacity:1; stop-color:white"/>
   <stop offset="0.14902" style="stop-opacity:1; stop-color:white"/>
   <stop offset="0.980392" style="stop-opacity:1; stop-color:#F2166E"/>
   <stop offset="1" style="stop-opacity:1; stop-color:#F2166E"/>
  </linearGradient>
  <linearGradient id="id5" gradientUnits="userSpaceOnUse" x1="5.02283e+007" y1="2.90621e+008" x2="5.20661e+007" y2="2.90621e+008">
   <stop offset="0" style="stop-opacity:1; stop-color:#AEDEE4"/>
   <stop offset="0.878431" style="stop-opacity:1; stop-color:white"/>
   <stop offset="1" style="stop-opacity:1; stop-color:white"/>
  </linearGradient>
  <linearGradient id="id6" gradientUnits="userSpaceOnUse" x1="4.00952e+007" y1="2.38178e+008" x2="3.71743e+007" y2="2.5706e+008">
   <stop offset="0" style="stop-opacity:1; stop-color:#79C8E1"/>
   <stop offset="0.0313725" style="stop-opacity:1; stop-color:#79C8E1"/>
   <stop offset="1" style="stop-opacity:1; stop-color:white"/>
  </linearGradient>
  <linearGradient id="id7" gradientUnits="userSpaceOnUse" x1="1.28352e+007" y1="2.41089e+007" x2="5.34293e+007" y2="2.41089e+007">
   <stop offset="0" style="stop-opacity:1; stop-color:#D10B5A"/>
   <stop offset="0.14902" style="stop-opacity:1; stop-color:#F2166E"/>
   <stop offset="0.419608" style="stop-opacity:1; stop-color:#F2166E"/>
   <stop offset="0.678431" style="stop-opacity:1; stop-color:#D10B5A"/>
   <stop offset="0.921569" style="stop-opacity:1; stop-color:#8C073C"/>
   <stop offset="1" style="stop-opacity:1; stop-color:#8C073C"/>
  </linearGradient>
  <linearGradient id="id8" gradientUnits="userSpaceOnUse" xlink:href="#id6" x1="4.45338e+007" y1="2.35748e+008" x2="4.37962e+007" y2="2.43239e+008">
  </linearGradient>
  <linearGradient id="id9" gradientUnits="userSpaceOnUse" xlink:href="#id4" x1="5.29639e+007" y1="1.94777e+008" x2="5.23479e+007" y2="1.91462e+008">
  </linearGradient>
  <linearGradient id="id10" gradientUnits="userSpaceOnUse" x1="4.18767e+007" y1="2.18665e+008" x2="3.78557e+007" y2="1.94062e+008">
   <stop offset="0" style="stop-opacity:1; stop-color:#2288D3"/>
   <stop offset="0.980392" style="stop-opacity:1; stop-color:#1B61BB"/>
   <stop offset="1" style="stop-opacity:1; stop-color:#1B61BB"/>
  </linearGradient>
  <linearGradient id="id11" gradientUnits="userSpaceOnUse" xlink:href="#id5" x1="2.8518e+007" y1="2.67361e+008" x2="3.22435e+007" y2="2.67361e+008">
  </linearGradient>
  <linearGradient id="id12" gradientUnits="userSpaceOnUse" x1="8.77675e+006" y1="1.26669e+008" x2="1.21556e+007" y2="1.25445e+008">
   <stop offset="0" style="stop-opacity:1; stop-color:white"/>
   <stop offset="0.14902" style="stop-opacity:1; stop-color:white"/>
   <stop offset="1" style="stop-opacity:1; stop-color:#BEC0C2"/>
  </linearGradient>
  <linearGradient id="id13" gradientUnits="userSpaceOnUse" x1="5.31952e+007" y1="1.04628e+008" x2="5.31952e+007" y2="9.61408e+007">
   <stop offset="0" style="stop-opacity:1; stop-color:#636364"/>
   <stop offset="0.0392157" style="stop-opacity:1; stop-color:#636364"/>
   <stop offset="0.290196" style="stop-opacity:1; stop-color:#363636"/>
   <stop offset="0.6" style="stop-opacity:1; stop-color:#303030"/>
   <stop offset="0.858824" style="stop-opacity:1; stop-color:#292929"/>
   <stop offset="1" style="stop-opacity:1; stop-color:#292929"/>
  </linearGradient>
  <linearGradient id="id14" gradientUnits="userSpaceOnUse" x1="1.24216e+007" y1="9.16146e+006" x2="5.3843e+007" y2="9.16146e+006">
   <stop offset="0" style="stop-opacity:1; stop-color:#E5E6E6"/>
   <stop offset="0.14902" style="stop-opacity:1; stop-color:#E5E6E6"/>
   <stop offset="0.309804" style="stop-opacity:1; stop-color:#E5E6E6"/>
   <stop offset="0.54902" style="stop-opacity:1; stop-color:#D1D3D4"/>
   <stop offset="0.980392" style="stop-opacity:1; stop-color:#A7A9AC"/>
   <stop offset="1" style="stop-opacity:1; stop-color:#A7A9AC"/>
  </linearGradient>
  <linearGradient id="id15" gradientUnits="userSpaceOnUse" x1="3.23134e+007" y1="2.00982e+008" x2="1.83866e+007" y2="1.61856e+008">
   <stop offset="0" style="stop-opacity:1; stop-color:#F99CC2"/>
   <stop offset="1" style="stop-opacity:1; stop-color:#F32E7D"/>
  </linearGradient>
  <linearGradient id="id16" gradientUnits="userSpaceOnUse" x1="5.08421e+007" y1="1.09231e+008" x2="4.58073e+007" y2="1.18038e+008">
   <stop offset="0" style="stop-opacity:1; stop-color:#464646"/>
   <stop offset="0.219608" style="stop-opacity:1; stop-color:#464646"/>
   <stop offset="0.878431" style="stop-opacity:1; stop-color:#BEC0C2"/>
   <stop offset="1" style="stop-opacity:1; stop-color:#BEC0C2"/>
  </linearGradient>
  <linearGradient id="id17" gradientUnits="userSpaceOnUse" x1="2.98159e+007" y1="1.12346e+008" x2="2.98159e+007" y2="4.69671e+007">
   <stop offset="0" style="stop-opacity:1; stop-color:#F99CC2"/>
   <stop offset="1" style="stop-opacity:1; stop-color:#F55B99"/>
  </linearGradient>
  <linearGradient id="id18" gradientUnits="userSpaceOnUse" xlink:href="#id6" x1="2.93534e+007" y1="1.40179e+008" x2="4.13811e+007" y2="1.608e+008">
  </linearGradient>
  <linearGradient id="id19" gradientUnits="userSpaceOnUse" x1="3.34238e+007" y1="1.21061e+008" x2="3.34238e+007" y2="4.95618e+007">
   <stop offset="0" style="stop-opacity:1; stop-color:#D10B5A"/>
   <stop offset="0.921569" style="stop-opacity:1; stop-color:#8C073C"/>
   <stop offset="1" style="stop-opacity:1; stop-color:#8C073C"/>
  </linearGradient>
  <linearGradient id="id20" gradientUnits="userSpaceOnUse" xlink:href="#id10" x1="4.33229e+007" y1="2.53507e+008" x2="3.73743e+007" y2="2.39571e+008">
  </linearGradient>
  <linearGradient id="id21" gradientUnits="userSpaceOnUse" xlink:href="#id16" x1="1.51873e+007" y1="1.09713e+008" x2="1.19732e+007" y2="1.16006e+008">
  </linearGradient>
  <linearGradient id="id22" gradientUnits="userSpaceOnUse" xlink:href="#id19" x1="3.11565e+007" y1="1.55824e+008" x2="3.11565e+007" y2="1.90665e+008">
  </linearGradient>
  <linearGradient id="id23" gradientUnits="userSpaceOnUse" xlink:href="#id4" x1="3.17929e+007" y1="1.99543e+008" x2="2.2328e+007" y2="1.84428e+008">
  </linearGradient>
  <linearGradient id="id24" gradientUnits="userSpaceOnUse" xlink:href="#id4" x1="2.8197e+007" y1="1.22916e+008" x2="1.96822e+007" y2="1.56054e+008">
  </linearGradient>
  <linearGradient id="id25" gradientUnits="userSpaceOnUse" x1="2.888e+007" y1="1.22769e+008" x2="5.47824e+007" y2="9.46832e+007">
   <stop offset="0" style="stop-opacity:1; stop-color:#269CE0"/>
   <stop offset="1" style="stop-opacity:1; stop-color:#1B61BB"/>
  </linearGradient>
  <linearGradient id="id26" gradientUnits="userSpaceOnUse" xlink:href="#id13" x1="4.81389e+007" y1="1.20141e+008" x2="4.81389e+007" y2="4.75894e+007">
  </linearGradient>
  <linearGradient id="id27" gradientUnits="userSpaceOnUse" xlink:href="#id4" x1="1.42667e+007" y1="2.282e+008" x2="2.694e+007" y2="2.14098e+008">
  </linearGradient>
  <linearGradient id="id28" gradientUnits="userSpaceOnUse" x1="4.29126e+007" y1="5.81203e+007" x2="3.38136e+007" y2="9.76563e+007">
   <stop offset="0" style="stop-opacity:1; stop-color:#79C8E1"/>
   <stop offset="0.0117647" style="stop-opacity:1; stop-color:#79C8E1"/>
   <stop offset="1" style="stop-opacity:1; stop-color:white"/>
  </linearGradient>
  <linearGradient id="id29" gradientUnits="userSpaceOnUse" xlink:href="#id5" x1="4.15954e+007" y1="2.81262e+008" x2="4.91782e+007" y2="2.85977e+008">
  </linearGradient>
  <linearGradient id="id30" gradientUnits="userSpaceOnUse" x1="2.53352e+007" y1="4.68893e+007" x2="3.93371e+007" y2="4.68893e+007">
   <stop offset="0" style="stop-opacity:1; stop-color:#BCBEC0"/>
   <stop offset="0.2" style="stop-opacity:1; stop-color:#BCBEC0"/>
   <stop offset="0.380392" style="stop-opacity:1; stop-color:white"/>
   <stop offset="0.470588" style="stop-opacity:1; stop-color:#BCBEC0"/>
   <stop offset="0.741176" style="stop-opacity:1; stop-color:#414142"/>
   <stop offset="0.811765" style="stop-opacity:1; stop-color:#414142"/>
   <stop offset="1" style="stop-opacity:1; stop-color:#BCBEC0"/>
  </linearGradient>
  <linearGradient id="id31" gradientUnits="userSpaceOnUse" xlink:href="#id16" x1="6.95321e+006" y1="1.0921e+008" x2="3.24703e+006" y2="1.18472e+008">
  </linearGradient>
  <linearGradient id="id32" gradientUnits="userSpaceOnUse" xlink:href="#id4" x1="2.70946e+007" y1="1.57343e+008" x2="3.57434e+007" y2="1.51173e+008">
  </linearGradient>
  <linearGradient id="id33" gradientUnits="userSpaceOnUse" xlink:href="#id6" x1="2.83589e+007" y1="1.89166e+008" x2="4.28597e+007" y2="2.12696e+008">
  </linearGradient>
  <linearGradient id="id34" gradientUnits="userSpaceOnUse" xlink:href="#id10" x1="4.24807e+007" y1="2.392e+008" x2="4.71541e+007" y2="2.392e+008">
  </linearGradient>
  <linearGradient id="id35" gradientUnits="userSpaceOnUse" x1="3.63998e+007" y1="2.00943e+008" x2="3.63998e+007" y2="2.22192e+008">
   <stop offset="0" style="stop-opacity:1; stop-color:#D10B5A"/>
   <stop offset="1" style="stop-opacity:1; stop-color:#9A0842"/>
  </linearGradient>
  <linearGradient id="id36" gradientUnits="userSpaceOnUse" xlink:href="#id4" x1="2.40566e+007" y1="2.10579e+008" x2="1.28301e+007" y2="1.73094e+008">
  </linearGradient>
  <linearGradient id="id37" gradientUnits="userSpaceOnUse" xlink:href="#id14" x1="1.57351e+007" y1="1.94833e+007" x2="5.05295e+007" y2="1.94833e+007">
  </linearGradient>
  <linearGradient id="id38" gradientUnits="userSpaceOnUse" x1="4.16976e+007" y1="1.73028e+008" x2="3.90121e+007" y2="1.41457e+008">
   <stop offset="0" style="stop-opacity:1; stop-color:#269CE0"/>
   <stop offset="0.980392" style="stop-opacity:1; stop-color:#1B61BB"/>
   <stop offset="1" style="stop-opacity:1; stop-color:#1B61BB"/>
  </linearGradient>
  <linearGradient id="id39" gradientUnits="userSpaceOnUse" x1="1.07725e+007" y1="1.80213e+008" x2="5.40243e+006" y2="1.86514e+008">
   <stop offset="0" style="stop-opacity:1; stop-color:#F9FF5D"/>
   <stop offset="0.878431" style="stop-opacity:1; stop-color:white"/>
   <stop offset="1" style="stop-opacity:1; stop-color:white"/>
  </linearGradient>
  <linearGradient id="id40" gradientUnits="userSpaceOnUse" xlink:href="#id4" x1="1.95293e+007" y1="1.95555e+008" x2="2.05511e+007" y2="1.64223e+008">
  </linearGradient>
  <linearGradient id="id41" gradientUnits="userSpaceOnUse" xlink:href="#id30" x1="2.54546e+007" y1="4.29899e+007" x2="3.9336e+007" y2="4.29899e+007">
  </linearGradient>
  <linearGradient id="id42" gradientUnits="userSpaceOnUse" x1="2.08147e+007" y1="2.07465e+008" x2="2.08147e+007" y2="2.33534e+008">
   <stop offset="0" style="stop-opacity:1; stop-color:#D10B5A"/>
   <stop offset="1" style="stop-opacity:1; stop-color:#A30846"/>
  </linearGradient>
  <linearGradient id="id43" gradientUnits="userSpaceOnUse" xlink:href="#id7" x1="1.28216e+007" y1="3.8953e+007" x2="5.34293e+007" y2="3.8953e+007">
  </linearGradient>
  <linearGradient id="id44" gradientUnits="userSpaceOnUse" xlink:href="#id4" x1="3.03285e+007" y1="2.19554e+008" x2="3.81136e+007" y2="2.09984e+008">
  </linearGradient>
  <linearGradient id="id45" gradientUnits="userSpaceOnUse" xlink:href="#id13" x1="651224" y1="1.12354e+008" x2="2.52852e+007" y2="6.03183e+007">
  </linearGradient>
  <linearGradient id="id46" gradientUnits="userSpaceOnUse" xlink:href="#id16" x1="6.41313e+007" y1="1.0939e+008" x2="5.70418e+007" y2="1.12276e+008">
  </linearGradient>
  <linearGradient id="id47" gradientUnits="userSpaceOnUse" xlink:href="#id4" x1="4.84111e+007" y1="1.86899e+008" x2="4.44719e+007" y2="1.82951e+008">
  </linearGradient>
  <linearGradient id="id48" gradientUnits="userSpaceOnUse" x1="2.24837e+007" y1="5.07625e+006" x2="2.81038e+007" y2="5.07625e+006">
   <stop offset="0" style="stop-opacity:1; stop-color:#F0F1F1"/>
   <stop offset="0.14902" style="stop-opacity:1; stop-color:#F0F1F1"/>
   <stop offset="0.309804" style="stop-opacity:1; stop-color:#F0F1F1"/>
   <stop offset="0.431373" style="stop-opacity:1; stop-color:#EAEBEC"/>
   <stop offset="0.54902" style="stop-opacity:1; stop-color:#E4E5E6"/>
   <stop offset="0.780392" style="stop-opacity:1; stop-color:#D7D8DA"/>
   <stop offset="0.980392" style="stop-opacity:1; stop-color:#CBCCCE"/>
   <stop offset="1" style="stop-opacity:1; stop-color:#CBCCCE"/>
  </linearGradient>
  <linearGradient id="id49" gradientUnits="userSpaceOnUse" xlink:href="#id12" x1="7.89595e+006" y1="9.53338e+007" x2="6.15708e+006" y2="9.37473e+007">
  </linearGradient>
  <radialGradient id="id50" gradientUnits="userSpaceOnUse" gradientTransform="matrix(4.60979E-014 1.58145 -2.04013 6.80748E-014 3.4122E+008 6.56405E+007)" cx="4.90503e+007" cy="1.43211e+008" r="1.67125e+006" fx="4.90503e+007" fy="1.43211e+008">
   <stop offset="0" style="stop-opacity:1; stop-color:#BEC0C2"/>
   <stop offset="0.509804" style="stop-opacity:1; stop-color:#363636"/>
   <stop offset="0.6" style="stop-opacity:1; stop-color:#303030"/>
   <stop offset="0.858824" style="stop-opacity:1; stop-color:#292929"/>
   <stop offset="1" style="stop-opacity:1; stop-color:#292929"/>
  </radialGradient>
  <radialGradient id="id51" gradientUnits="userSpaceOnUse" gradientTransform="matrix(1.25989 -4.26386E-014 3.11643E-014 1.25972 -1.40174E+007 -5.03875E+007)" cx="5.39351e+007" cy="1.9401e+008" r="2.07357e+006" fx="5.39351e+007" fy="1.9401e+008">
   <stop offset="0" style="stop-opacity:1; stop-color:#FDEBF2"/>
   <stop offset="0.160784" style="stop-opacity:1; stop-color:#FDEBF2"/>
   <stop offset="0.509804" style="stop-opacity:1; stop-color:#ED1C6F"/>
   <stop offset="0.6" style="stop-opacity:1; stop-color:#D01D5C"/>
   <stop offset="0.858824" style="stop-opacity:1; stop-color:#8C183E"/>
   <stop offset="1" style="stop-opacity:1; stop-color:#8C183E"/>
  </radialGradient>
  <radialGradient id="id52" gradientUnits="userSpaceOnUse" gradientTransform="matrix(1.14359 -2.87694E-014 3.29535E-014 1.25454 -6.94275E+006 -4.71326E+007)" xlink:href="#id51" cx="4.83514e+007" cy="1.85168e+008" r="3.38909e+006" fx="4.83514e+007" fy="1.85168e+008">
  </radialGradient>
  <radialGradient id="id53" gradientUnits="userSpaceOnUse" gradientTransform="matrix(2.89816E-014 1.05878 -1.05879 2.56906E-014 1.88655E+008 6.74134E+007)" xlink:href="#id50" cx="5.52932e+007" cy="1.25957e+008" r="3.04018e+006" fx="5.52932e+007" fy="1.25957e+008">
  </radialGradient>
  <radialGradient id="id54" gradientUnits="userSpaceOnUse" gradientTransform="matrix(1.34384 -3.53495E-014 3.71321E-014 1.34356 -1.77236E+007 -1.00017E+008)" cx="5.15456e+007" cy="2.91115e+008" r="1.30927e+006" fx="5.15456e+007" fy="2.91115e+008">
   <stop offset="0" style="stop-opacity:1; stop-color:white"/>
   <stop offset="0.411765" style="stop-opacity:1; stop-color:#26A8E0"/>
   <stop offset="0.878431" style="stop-opacity:1; stop-color:#2B62AE"/>
   <stop offset="1" style="stop-opacity:1; stop-color:#2B62AE"/>
  </radialGradient>
  <radialGradient id="id55" gradientUnits="userSpaceOnUse" gradientTransform="matrix(1.91076E-014 0.721464 -0.721446 1.87868E-014 9.22265E+007 7.69609E+007)" cx="2.4139e+007" cy="9.43763e+007" r="4.6995e+007" fx="2.4139e+007" fy="9.43763e+007">
   <stop offset="0" style="stop-opacity:1; stop-color:#CFA800"/>
   <stop offset="1" style="stop-opacity:1; stop-color:#FFF347"/>
  </radialGradient>
  <radialGradient id="id56" gradientUnits="userSpaceOnUse" gradientTransform="matrix(3.55564E-014 1.58114 -2.03925 5.44615E-014 3.53385E+008 6.23333E+007)" xlink:href="#id50" cx="5.35634e+007" cy="1.47025e+008" r="1.17004e+006" fx="5.35634e+007" fy="1.47025e+008">
  </radialGradient>
  <radialGradient id="id57" gradientUnits="userSpaceOnUse" gradientTransform="matrix(1.28834 -3.3554E-014 3.4713E-014 1.32158 -8.95525E+006 -8.61073E+007)" cx="3.10576e+007" cy="2.67764e+008" r="2.38668e+006" fx="3.10576e+007" fy="2.67764e+008">
   <stop offset="0" style="stop-opacity:1; stop-color:white"/>
   <stop offset="0.321569" style="stop-opacity:1; stop-color:#26A8E0"/>
   <stop offset="0.6" style="stop-opacity:1; stop-color:#2B62AE"/>
   <stop offset="0.858824" style="stop-opacity:1; stop-color:#2B62AE"/>
   <stop offset="1" style="stop-opacity:1; stop-color:#2B62AE"/>
  </radialGradient>
  <radialGradient id="id58" gradientUnits="userSpaceOnUse" gradientTransform="matrix(-0.508292 4.04221 -4.13971 -0.496614 8.29084E+008 2.89465E+008)" cx="2.23894e+006" cy="1.9946e+008" r="2.14574e+006" fx="2.23894e+006" fy="1.9946e+008">
   <stop offset="0" style="stop-opacity:1; stop-color:white"/>
   <stop offset="0.858824" style="stop-opacity:1; stop-color:#FFE830"/>
   <stop offset="1" style="stop-opacity:1; stop-color:#FFE830"/>
  </radialGradient>
  <radialGradient id="id59" gradientUnits="userSpaceOnUse" gradientTransform="matrix(9.31202 0.962562 -0.962715 9.3135 1.17499E+008 -1.01793E+009)" cx="44892.4" cy="1.22437e+008" r="1.79399e+006" fx="44892.4" fy="1.22437e+008">
   <stop offset="0" style="stop-opacity:1; stop-color:#636363"/>
   <stop offset="0.509804" style="stop-opacity:1; stop-color:#363636"/>
   <stop offset="0.6" style="stop-opacity:1; stop-color:#303030"/>
   <stop offset="0.858824" style="stop-opacity:1; stop-color:#292929"/>
   <stop offset="1" style="stop-opacity:1; stop-color:#292929"/>
  </radialGradient>
  <radialGradient id="id60" gradientUnits="userSpaceOnUse" gradientTransform="matrix(1.29123 0.172486 -0.158556 1.40406 1.29144E+007 -3.97519E+007)" xlink:href="#id50" cx="7.47998e+006" cy="9.51889e+007" r="1.32688e+006" fx="7.47998e+006" fy="9.51889e+007">
  </radialGradient>
  <radialGradient id="id61" gradientUnits="userSpaceOnUse" gradientTransform="matrix(6.9903 -1.89345E-013 1.66914E-013 6.2649 -1.50377E+008 -1.40379E+009)" cx="2.51034e+007" cy="2.66632e+008" r="1.20982e+006" fx="2.51034e+007" fy="2.66632e+008">
   <stop offset="0" style="stop-opacity:1; stop-color:white"/>
   <stop offset="0.321569" style="stop-opacity:1; stop-color:#26A8E0"/>
   <stop offset="1" style="stop-opacity:1; stop-color:#2B62AE"/>
  </radialGradient>
  <radialGradient id="id62" gradientUnits="userSpaceOnUse" gradientTransform="matrix(5.39358 -1.4387E-013 1.43885E-013 5.39414 -1.82922E+008 -1.26365E+009)" xlink:href="#id61" cx="4.1634e+007" cy="2.87577e+008" r="2.76003e+006" fx="4.1634e+007" fy="2.87577e+008">
  </radialGradient>
  <radialGradient id="id63" gradientUnits="userSpaceOnUse" gradientTransform="matrix(6.31298 0.764003 -0.763748 6.31088 2.03914E+007 -8.16939E+008)" xlink:href="#id58" cx="1.79041e+007" cy="1.51248e+008" r="854092" fx="1.79041e+007" fy="1.51248e+008">
  </radialGradient>
  <radialGradient id="id64" gradientUnits="userSpaceOnUse" gradientTransform="matrix(1.40664 -4.47942E-014 3.886E-014 1.40665 -2.32524E+007 -7.48819E+007)" cx="5.71815e+007" cy="1.84142e+008" r="1.19902e+006" fx="5.71815e+007" fy="1.84142e+008">
   <stop offset="0" style="stop-opacity:1; stop-color:white"/>
   <stop offset="0.160784" style="stop-opacity:1; stop-color:white"/>
   <stop offset="0.509804" style="stop-opacity:1; stop-color:#ED1C6F"/>
   <stop offset="0.6" style="stop-opacity:1; stop-color:#D01D5C"/>
   <stop offset="0.858824" style="stop-opacity:1; stop-color:#8C183E"/>
   <stop offset="1" style="stop-opacity:1; stop-color:#8C183E"/>
  </radialGradient>
  <radialGradient id="id65" gradientUnits="userSpaceOnUse" gradientTransform="matrix(0.72727 0.0893241 -0.0893255 0.727281 1.59262E+007 3.25996E+007)" cx="1.73802e+007" cy="1.25228e+008" r="1.78734e+007" fx="1.73802e+007" fy="1.25228e+008">
   <stop offset="0" style="stop-opacity:1; stop-color:white"/>
   <stop offset="0.290196" style="stop-opacity:1; stop-color:white"/>
   <stop offset="1" style="stop-opacity:1; stop-color:#F8FF83"/>
  </radialGradient>
  <radialGradient id="id66" gradientUnits="userSpaceOnUse" gradientTransform="matrix(1.65251 0.221089 -0.202982 1.80025 1.97444E+007 -1.0323E+008)" xlink:href="#id50" cx="9.08759e+006" cy="1.26485e+008" r="3.12201e+006" fx="9.08759e+006" fy="1.26485e+008">
  </radialGradient>
  <radialGradient id="id67" gradientUnits="userSpaceOnUse" gradientTransform="matrix(1.70213 -4.52959E-014 4.80435E-014 1.79044 -3.23421E+007 -2.26165E+008)" xlink:href="#id57" cx="4.6063e+007" cy="2.86127e+008" r="5.04613e+006" fx="4.6063e+007" fy="2.86127e+008">
  </radialGradient>
  <radialGradient id="id68" gradientUnits="userSpaceOnUse" gradientTransform="matrix(0.991079 0.12639 -0.121706 1.02889 2.03728E+007 -6.31579E+006)" xlink:href="#id65" cx="1.19044e+007" cy="1.66521e+008" r="9.79791e+006" fx="1.19044e+007" fy="1.66521e+008">
  </radialGradient>
  <radialGradient id="id69" gradientUnits="userSpaceOnUse" gradientTransform="matrix(1.84558 0.204493 -0.226724 1.66532 3.60281E+007 -1.16065E+008)" cx="3.85052e+006" cy="1.73268e+008" r="1.35018e+006" fx="3.85052e+006" fy="1.73268e+008">
   <stop offset="0" style="stop-opacity:1; stop-color:white"/>
   <stop offset="0.509804" style="stop-opacity:1; stop-color:#FFFD6A"/>
   <stop offset="0.6" style="stop-opacity:1; stop-color:#FFE750"/>
   <stop offset="0.94902" style="stop-opacity:1; stop-color:#CFA800"/>
   <stop offset="1" style="stop-opacity:1; stop-color:#CFA800"/>
  </radialGradient>
  <radialGradient id="id70" gradientUnits="userSpaceOnUse" gradientTransform="matrix(4.39555 0.595257 -0.539782 4.84579 8.00558E+007 -6.63482E+008)" cx="3.75619e+006" cy="1.7194e+008" r="554620" fx="3.75619e+006" fy="1.7194e+008">
   <stop offset="0" style="stop-opacity:1; stop-color:white"/>
   <stop offset="0.509804" style="stop-opacity:1; stop-color:#FADC6F"/>
   <stop offset="0.6" style="stop-opacity:1; stop-color:#F6C159"/>
   <stop offset="0.858824" style="stop-opacity:1; stop-color:#E88A48"/>
   <stop offset="1" style="stop-opacity:1; stop-color:#E88A48"/>
  </radialGradient>
  <radialGradient id="id71" gradientUnits="userSpaceOnUse" gradientTransform="matrix(1.79087 0.225767 -0.219917 1.83784 1.9634E+007 -1.32203E+008)" xlink:href="#id69" cx="1.77228e+007" cy="1.53015e+008" r="1.69568e+006" fx="1.77228e+007" fy="1.53015e+008">
  </radialGradient>
  <radialGradient id="id72" gradientUnits="userSpaceOnUse" gradientTransform="matrix(1.64675 -4.14533E-014 4.32775E-014 1.6466 -6.04866E+006 -1.41633E+008)" xlink:href="#id51" cx="9.35239e+006" cy="2.19044e+008" r="3.07144e+006" fx="9.35239e+006" fy="2.19044e+008">
  </radialGradient>
  <radialGradient id="id73" gradientUnits="userSpaceOnUse" gradientTransform="matrix(16.5884 1.79351 -2.03646 14.5958 1.74073E+008 -1.2655E+009)" xlink:href="#id59" cx="976268" cy="9.29511e+007" r="609741" fx="976268" fy="9.29511e+007">
  </radialGradient>
  <radialGradient id="id74" gradientUnits="userSpaceOnUse" gradientTransform="matrix(1.41762 0.193742 -0.174113 1.57743 3.32535E+007 -1.15994E+008)" xlink:href="#id69" cx="3.6181e+006" cy="1.99667e+008" r="2.33781e+006" fx="3.6181e+006" fy="1.99667e+008">
  </radialGradient>
 </defs>
 <g id="Layer_x0020_1">
  <metadata id="CorelCorpID_0Corel-Layer"/>
  <g id="_2313910992">
   <path class="fil0" d="M33244241 47588783l5292189 726802c0,0 1765010,18781502 16066364,46275538 5639394,10841798 9849619,20965886 7981754,22600197 -1206980,1055823 -2567959,1322905 -3423755,-1012068 -1287105,-3506722 530184,-13148927 -3634580,-11761240 -4161355,1387686 -5085911,3700497 -5085911,7630571 0,3930074 231850,8092565 -2773668,8092565 -3006086,0 -455175,-4199996 404032,-8035171 1734324,-7745359 -808632,-15144649 -1791718,-19479891 -1175158,-5185924 -13034707,-45037303 -13034707,-45037303z"/>
   <path class="fil1" d="M10836116 106152336c-211961,2315652 -1940034,5976371 -3868702,9284771 -1929805,3308399 -5161489,5649623 -6563951,4059636 -1401893,-1588850 1029116,-4456281 4561409,-6711129 3535702,-2254280 3268621,-7735131 8457955,-12944354 3104963,-3117464 3506153,-4554021 4878496,-10278086 1322337,-7851623 -4669377,-20779497 5884882,-36879388l1750236 -18753c-2832199,6140030 -3245323,8603998 -4019291,19386129 -87511,1228574 1685454,8596041 1034230,16547110 -359707,4382407 -1423486,9136455 -3663560,14507063 -772831,1855363 -1502475,2363386 -3345905,8962000 -997861,3572640 -2674791,4975669 -4447756,4071570 -1597374,-813177 1505884,-4123281 3352155,-6463937 2100282,-2664562 2858907,-8386922 1351318,-8817662 -3031658,-868298 -5148988,2979946 -5361516,5295030z"/>
   <path class="fil2" d="M403463 119496743c-225030,-255148 -350615,-544959 -389257,-858638 496658,419375 1874684,859775 4158514,-783628 1958218,-1406439 4722226,-6504852 5525174,-8390901 343228,-812041 674523,-1565551 938763,-2159949 -547233,2275306 -2036637,5330830 -3669243,8133480 -1929805,3308399 -5161489,5649623 -6563951,4059636z"/>
   <path class="fil2" d="M12437467 116402577c605763,-248897 1580326,-901825 2386116,-2725934 1047300,-2370773 1062643,-4667673 2520225,-7221425 -404599,1012636 -583032,2678200 -1401893,5612117 -818291,2930508 -2094031,4400024 -3504448,4335242z"/>
   <path class="fil3" d="M11730554 115649635c-444378,-361980 -107401,-1255282 967744,-2320198 946150,-937626 2327017,-2489539 2922552,-3395343 -777946,2264509 -1451332,3369771 -2224731,4744956 -646678,1151291 -1313813,1257556 -1665565,970585z"/>
   <path class="fil4" d="M1517818 117440217c-288676,-342660 -207415,-1543958 2125854,-2842996 2334404,-1299038 3687427,-2544660 5157511,-4648352 0,0 -1816722,4434119 -4182949,6486099 -1998564,1728641 -2814014,1346772 -3100416,1005249z"/>
   <path class="fil5" d="M8215309 125109998c0,0 -761466,-3635716 2220753,-3283396 2981651,352320 3766983,2964035 2313379,5275709 -1021160,1627491 -4252276,1262670 -4534132,-1992313z"/>
   <path class="fil6" d="M7465208 95585575c-688729,-28413 -1268352,-576214 -1347340,-1190501 -62509,-494953 339250,-1852522 1775238,-1353591 1434852,500067 723393,2592962 -427898,2544092z"/>
   <path class="fil7" d="M6503715 94952535c-412555,-534163 -212529,-1100148 -17616,-1320632 0,0 -44324,615424 319361,1080259 428467,547233 781923,621106 985360,633608 -202868,191503 -870003,143201 -1287105,-393235z"/>
   <path class="fil8" d="M10503116 127388713c-872276,-173319 -1514408,-834203 -1721822,-1487132 -207414,-654065 -131836,-1224028 -131836,-1224028 0,0 1334839,1671816 3647649,2529886 0,0 -920010,355161 -1793991,181274z"/>
   <path class="fil9" d="M9444451 122546017c0,0 856934,-589284 2277579,33527 987633,433581 1309835,1505884 1309835,1505884 0,0 -444946,-581896 -1647949,-1143335 -1222323,-571668 -1939465,-396076 -1939465,-396076z"/>
   <path class="fil10" d="M7944250 93261967c421079,227303 504045,605763 504045,605763 -596103,-592693 -1218914,-686456 -1218914,-686456 0,0 294926,-146042 714869,80693z"/>
   <path class="fil11" d="M42832462 122407930c-5660420,13297242 -6059338,13736505 -2557731,25330677 3499903,11595877 2440669,15738479 -2041751,27297988 -4485262,11560076 -2224731,14920187 1095033,22744534 3319196,7821506 4872814,13813220 2155404,21448337 -706345,1988904 -1384277,4189200 -1674657,5963302 -207983,1267216 -172183,3001540 334704,4930776 800676,3044159 2354293,4275575 5443345,8327256 3089620,4052817 2185521,6617366 194913,5967847 -1991745,-651224 -2801513,-3880635 -3061207,-5360948 -255716,-1482017 -1341090,-4605164 -3111214,-4518789 -1010931,48871 -1341658,916601 -1439966,1653632 90353,1628059 363685,3040749 792152,4259663 1726936,4918843 3071435,4672787 4233523,11338456 1162657,6665669 -4124418,10282064 -6382108,7031627 -2259962,-3251574 3235094,-5537676 454039,-10911694 -743282,-1436557 -2459422,-4577320 -2657176,-6689536 -192071,-2044024 -257420,-4705177 1680908,-9697326 4482421,-11559508 2088349,-18571814 -1128561,-24299857 -3218046,-5725769 -6677602,-16481760 -3269757,-24209504 3408412,-7726606 4344902,-10590059 -334704,-24351000 -5606436,-16481761 -598376,-29801165 3168039,-38804079 3766984,-9005188 4222159,-17009673 -1795696,-28482806 -6013308,-11473133 -307996,-42334667 -307996,-42334667l4668810 -103991c389257,8950635 7216310,32700986 9332504,38836470 3419778,9917810 1868433,21336390 -3790850,34633632z"/>
   <path class="fil12" d="M38061934 258166518c-1025138,-932512 582465,-3003245 1099011,-4815420 478474,-1682044 -526775,-5086479 -1682044,-7271432 -1155269,-2185521 -3206681,-5518355 -1855931,-9434791 42619,3780054 706913,5657011 3828924,9689371 2613419,3375453 3028816,7627161 2352020,9549579 -676795,1924122 -2404868,3495924 -3741980,2282693z"/>
   <path class="fil13" d="M45743080 243672524c-396644,52848 -1529183,-718846 -1905938,-2707750 -375619,-1990040 -1250168,-4655739 -1859341,-5653033 0,0 2692976,3300444 3830629,5836012 940467,2104260 490407,2451466 -65350,2524771z"/>
   <path class="fil14" d="M35162112 207223875c-3218046,-5725769 -6677602,-16481760 -3269757,-24209504 616560,-1397347 1151859,-2634445 1587713,-3806761 -371641,1806492 -720551,3439098 -575077,6450298 179569,3726069 854660,7079361 3033930,12551688 2443511,6136052 4174993,10163866 4231819,14173495 59099,4102825 -1093329,8882444 -1685454,11054895 996157,-7000941 -934784,-11962403 -3323174,-16214111z"/>
   <path class="fil14" d="M34491000 175963424c0,0 1085941,-5564385 1053550,-11067397 -80692,-13254054 -2011634,-16522675 -3211227,-27853744 -1201866,-11333909 2011634,-16344242 2011634,-16344242 0,0 -846136,3774939 -726802,8158483 118766,4382975 1321768,8059038 2827084,14054730 1502475,5996260 2833336,12281196 2323040,19122456 -556325,7445319 -4277279,13929714 -4277279,13929714z"/>
   <path class="fil14" d="M42492643 90240538c-2506018,17767161 -5242750,21960906 -5242750,21960906 1868433,-13535342 1225165,-18125731 339818,-30687079 -401190,-5692810 -1397915,-10884985 -1776943,-13742756 -2159949,-16292531 -1556459,-31207604 -1556459,-31207604 448356,5475168 9242719,46531255 8236334,53676533z"/>
   <path class="fil15" d="M33060694 195173960c-1659314,-5382541 -936490,-9268291 -936490,-9268291 0,0 298336,4747229 1195615,7365195 896144,2616829 2952670,7490211 4665400,12519296 1713299,5027948 1191638,10166139 1191638,10166139 -801813,-9345574 -4456849,-15400365 -6116163,-20782339z"/>
   <path class="fil16" d="M42253406 249980190c-1734324,-4280120 -4308533,-7086179 -4909750,-10104199 -597240,-2994152 173887,-5097276 1836042,-5255252 -679069,241510 -926829,951833 -1010363,1571803 90353,1628059 363685,3040749 792152,4259663 1726936,4918843 3472626,5293893 4464804,11315157 478474,2914028 -444946,5259230 -1605897,6688968 639858,-1676930 1829223,-5031359 433012,-8476140z"/>
   <path class="fil17" d="M46779583 244452743c147747,-411419 355730,-1452468 -358571,-3181678 -952401,-2299173 -2931644,-4864858 -3805057,-6258796 -194912,-313678 -393234,-676227 -580191,-1065484 869435,1185955 2022431,2499768 3551045,4504015 2502609,3281691 2384980,5589387 1192774,6001943z"/>
   <path class="fil18" d="M40915158 220907533c236396,-1452468 473928,-2932213 639291,-4015881 463130,-3010632 432444,-9451270 -1188228,-14974740 -1138221,-3879499 -2784465,-6882743 -3508426,-10097380 645541,1819563 1512703,3703907 2470218,5961597 3319196,7821506 4872814,13813220 2155404,21448337 -193776,548369 -384143,1112082 -568259,1678067z"/>
   <path class="fil19" d="M34367687 143922185c-2217343,-9696758 -1391096,-12887527 -1391096,-12887527 0,0 61372,2728207 751806,5425729 690434,2697522 2784465,9808136 3884613,18089931 1099580,8279522 -1217209,15393547 -1217209,15393547 615424,-6121846 192071,-16325490 -2028114,-26021680z"/>
   <path class="fil20" d="M41122004 159071380c-5114,-4790984 -2580460,-12543163 -2770827,-18572950 358571,1937192 1006386,4206815 1923554,7240177 3390797,11236738 2501473,15475944 -1638856,26247278 1154132,-4663695 2493517,-7491916 2486129,-14914505z"/>
   <path class="fil21" d="M40248592 76176716c2364522,15220228 -1136517,25292036 -1136517,25292036 1188228,-14551956 -1058097,-25519339 -1821267,-32140684 -432445,-3752209 -1633743,-15020200 -1633743,-15020200 78988,1903096 2802081,10350823 4591527,21868848z"/>
   <path class="fil22" d="M37495381 131796124c0,0 -46029,-9660390 2490107,-18046176 2536705,-8385786 4547202,-16044770 4770528,-20116908 223893,-4072707 -106265,-7977777 -106265,-7977777 0,0 2441806,7024239 1130834,17591569 -1311540,10566193 -7258930,20797682 -8285204,28549292z"/>
   <path class="fil23" d="M29258478 268472449c-908077,-316520 -2897549,-2179271 -800676,-4222159 2096873,-2042888 4980783,1282559 4095437,3000972 -606900,1183113 -2166768,1617262 -3294761,1221187z"/>
   <path class="fil24" d="M30550697 268292311c-1156405,124448 -1934919,-718279 -2151425,-1243349 619969,315383 1522363,480746 2291217,333567 772263,-148315 1451899,-623379 1649653,-966039 151725,512001 -491543,1736597 -1789445,1875821z"/>
   <path class="fil25" d="M50914230 291499975c-556325,-51711 -1788877,-585306 -1101285,-1940033 688729,-1357001 2699795,-376187 2511133,785333 -108537,682478 -625084,1225164 -1409848,1154700z"/>
   <path class="fil26" d="M51535336 291116969c-584738,337546 -1192774,41483 -1387118,-179001 0,0 863184,-63077 1224028,-255148 481314,-254011 578487,-456879 708049,-710891 161954,226167 40915,806359 -544959,1145040z"/>
   <path class="fil27" d="M40189493 285318463c0,0 -3315219,-7373719 -67623,-6996963 3244754,374482 9343301,1691704 8603997,6117299 -735894,4421617 -7024239,5245591 -8536374,879664z"/>
   <path class="fil28" d="M45561806 287516485c-455175,102855 -1663860,287539 -2937327,-261398 1089919,-267082 1043890,41483 2679337,-943309 1134812,-683046 2159382,-2329290 1032526,-4184653 -1128561,-1854795 -3603894,-2868568 -2186658,-2409415 1419509,459721 3772666,1203571 3982354,3841425 217642,2721957 -1754214,3776076 -2570232,3957350z"/>
   <path class="fil29" d="M40765138 284595638c0,0 -1696819,-3859609 -1416099,-4742683 279015,-884209 1028547,-771694 1028547,-771694 0,0 -411419,300608 -271627,1532592 142064,1229711 659179,3981785 659179,3981785z"/>
   <path class="fil30" d="M28418024 265681164c0,0 50575,-869435 725098,-1333133 674522,-464267 1693977,-206846 1693977,-206846 -1626355,670544 -2419075,1539979 -2419075,1539979z"/>
   <path class="fil31" d="M7401563 181564176c1730914,-2607736 3108941,-6946956 4346039,-12432921 1237666,-5484828 1529751,-14750846 788742,-20198169 -739872,-5447891 -793288,-14191680 3415232,-25513657 4209088,-11321976 7010033,-15769733 5451301,-30618888 -1090488,-10371280 -8588086,-25988720 4176129,-43629159l5070568 804085 -4783597 19052561c1072303,3738002 3047568,11860117 3585709,22505298 777945,15458327 -4214771,25133491 -8223265,32533918 -4530154,8360783 -8057901,12822178 -6084908,26595052 995020,6944683 -106265,14645150 -2489539,20271474 -2382139,5626893 -4140898,10766788 -3093598,13713775 1047868,2948124 44892,4233524 -1377458,4340925 -1422918,106832 -2508860,-4818261 -781355,-7424294z"/>
   <path class="fil32" d="M9310911 186378460c-147179,-1392801 -981951,-3009496 -125017,-5688265 171045,-531889 342091,-979109 507454,-1358705 -497794,2125286 -615992,3956782 -132972,5316055 779082,2192909 423921,3464671 -395508,4017018 210824,-473928 242078,-1363252 146043,-2286103z"/>
   <path class="fil33" d="M8190874 187838315c-316520,101150 -819429,-217643 -1014341,-1110945 -274469,-1253577 -400054,-2451465 539845,-4584707 618265,-1403597 1258124,-2782192 1481449,-3271462 0,0 -783628,2150857 -863184,3393638 -100013,1586008 73305,2259394 183547,3288510 166500,1523500 -9660,2182680 -327316,2284966z"/>
   <path class="fil34" d="M14537749 157194424c-125016,-843864 -550073,-3132808 -872844,-4652330 -324476,-1519523 -609741,-4937596 -406305,-6885585 205141,-1946852 550074,-4037474 670545,-4884747 102286,-701799 937058,-4046567 2168473,-6480417 -1466674,4115894 -2030955,8856304 -954105,16370951 578487,4030087 444946,8311344 -229577,12295971 -56257,-1050142 -267081,-5034200 -376187,-5763843z"/>
   <path class="fil35" d="M12703980 166194497c557462,-3110645 782492,-6017286 649519,-10255356 544392,3027112 684751,4781893 414261,7519761 -567690,5780891 -3431712,12076055 -3431712,12076055 0,0 1744553,-5848513 2367932,-9340460z"/>
   <path class="fil36" d="M17960937 128740031c4231250,-9205215 8111317,-18447366 8849485,-23860025 2125854,-15594142 -1824109,-25825630 -3740844,-32663481 -1551345,-5534267 -1013773,-9847347 -824543,-10930447 1556460,-8923926 7990847,-13904710 7990847,-13904710l3416937 22603607c-276742,4042020 -950696,13350658 -1985494,24356683 -1579190,16799417 -6430410,22325159 -10438904,29725586 -3320332,6126960 -6099115,10165571 -6570769,17303462 -118766,-1317791 -67055,-5299576 3303285,-12630675z"/>
   <path class="fil32" d="M12422692 171487254c211392,-717710 2656608,-7797071 2846406,-15947598 54553,-2307697 -288675,-4673356 -383575,-6908883 74442,655770 156271,1329156 257990,2031523 995020,6944683 -106265,14645150 -2489539,20271474 -78420,185253 -154567,368232 -231282,553484z"/>
   <path class="fil32" d="M13170520 146332736c0,0 107969,1797969 220484,2798672 111947,1000703 450061,2826516 947855,5284233 497226,2456580 298904,4076684 298904,4076684 -359708,-2439532 -1250168,-5132508 -1468379,-7556129 -219348,-2423053 1136,-4603460 1136,-4603460z"/>
   <path class="fil32" d="M13261442 145780390c-86376,-7903335 3226570,-12499976 3226570,-12499976 0,0 -1251873,3298739 -2026409,6163897 -775104,2865157 -1200161,6336079 -1200161,6336079z"/>
   <path class="fil32" d="M20767564 116212211c80124,-647815 2582165,-4193177 3338517,-12649996 450060,-5029653 -1056392,-13359750 -2813446,-22238784 -1745121,-8830165 -2367364,-21282406 5725769,-31762792l1555891 -207983c1543958,4608574 -2146311,31774725 -1560437,40190629 883642,12698298 -2698658,19212242 -3997696,22904783 -1299038,3692542 -2328154,4413094 -2248598,3764143z"/>
   <path class="fil37" d="M12673863 143101052c0,0 210255,-7444751 2328722,-14372386 2119603,-6927068 4406274,-12354502 5372313,-15054865 966039,-2700363 1903665,-6319031 1903665,-6319031 0,0 -925693,5241046 -2233255,9591062 -1311540,4348880 -5216610,15496969 -7371445,26155220z"/>
   <path class="fil38" d="M3703339 173252264c-734190,-310269 -1086510,-1144472 -860912,-1795696 351752,-1014909 2458285,-1322905 2611147,343796 140360,1512703 -1287673,1646244 -1750235,1451900z"/>
   <path class="fil39" d="M3185655 172655593c-390393,-552916 -239236,-1209254 2842,-1345067 -48302,201163 11365,825679 246056,1154700 238668,338114 579055,468245 1003544,496090 -267650,119334 -863185,247192 -1252442,-305723z"/>
   <path class="fil40" d="M4078957 204716720c-4074411,-1480312 -2517383,-5208086 -1485995,-6187763 1283127,-1221187 3672653,-1606466 5191607,-354025 2249734,1851953 369368,8025510 -3705612,6541788z"/>
   <path class="fil39" d="M3169176 203597251c-1487700,-1234256 -1370071,-3236798 -777946,-3759596 -17616,588147 704072,2299173 1559301,3087347 850114,790447 1693409,967744 2896412,794993 -681342,490975 -2133810,1157542 -3677767,-122744z"/>
   <path class="fil41" d="M3912458 198415873c0,0 540413,-327885 1180840,-388120 864321,-77851 1224028,-44892 2107102,469381 769989,448924 1003544,1425192 1003544,1425192 0,0 -804654,-898416 -1878094,-1311540 -1248463,-480747 -2413392,-194913 -2413392,-194913z"/>
   <path class="fil42" d="M19684464 154925937c-818860,-23867 -1649085,-893870 -1915030,-1840588 -185252,-664294 143769,-2443511 1876957,-1491110 1729778,952969 1342794,3368635 38073,3331698z"/>
   <path class="fil39" d="M18421794 153887161c-583033,-792720 -517683,-1474062 -344933,-1728073 0,0 371641,968312 718279,1446785 349479,475632 916032,955810 1168907,1066053 -288675,97172 -960925,3977 -1542253,-784765z"/>
   <path class="fil43" d="M18775251 151656179c0,0 393234,-22730 980813,410851 589852,433581 726803,1097875 726803,1097875 -173319,-315952 -1707616,-1508726 -1707616,-1508726z"/>
   <path class="fil44" d="M4419912 170886605c0,0 431308,13638 616560,289812 321635,477905 218212,818860 218212,818860 -291517,-797835 -834772,-1108672 -834772,-1108672z"/>
   <path class="fil45" d="M8761973 222727095c-2176997,-2045161 -420511,-5157511 1493383,-4989875 2042888,177865 4717679,1823541 3191338,4409116 -1522932,2587847 -3880636,1335975 -4684721,580759z"/>
   <path class="fil46" d="M8503984 219294816c0,0 173319,-264240 652929,-598944 571099,-398917 1222323,-589284 2309969,-207983 1354159,472791 1870706,1541685 1870706,1541685 0,0 -925124,-806927 -2385548,-1091056 -1421782,-276742 -2448056,356298 -2448056,356298z"/>
   <path class="fil47" d="M10095107 223231140c-1222324,-401190 -1563278,-1484858 -1563278,-1484858 0,0 1658745,1212095 4046566,734189 -875117,787606 -1750235,991611 -2483288,750669z"/>
   <path class="fil48" d="M29502829 119807580c-5596207,9512643 -5805326,16984101 558030,27417322 4662558,7647619 2834471,13504088 372777,24993700 -2237801,10444586 3283396,14025749 5923523,21589834 2098010,6014445 418807,4895544 1538844,18324622 605763,7270295 -1306426,10818499 -4851789,10073513 -3186224,-672818 -105128,-8580131 1492246,-13989949 1820699,-6154804 -558598,-17346081 -3356701,-17346081 -5622915,0 -6713971,8393173 -5595070,12870480 1120037,4475601 558598,12310745 -560303,19583882 -1117764,7273705 -5035336,13429078 -8392605,11190140 -3356701,-2237800 -1118900,-8952907 3357269,-15107144 4476738,-6155372 4264778,-15594709 -2611146,-27232069 -7274273,-12309609 -2983924,-21261949 2611146,-29842079 5174559,-7931748 3191338,-14096213 1120037,-22381986 -1968446,-7874922 1050710,-13257464 4376157,-20825526 1400756,-3185087 5374586,-11065124 5555292,-18763318 280151,-11890234 -5683150,-18530331 -6512239,-26417187 -1382572,-13131878 1763873,-17951844 5499034,-24593078l2118467 520525c589284,2287239 845568,27821353 3509563,38039772 3359542,12870479 -557462,22381985 -6152532,31894627z"/>
   <path class="fil49" d="M16631781 234515043c-538141,-359707 -932512,-835907 -1197320,-1407007 1097306,521661 3682313,608605 6458254,-3722659 2379866,-3706748 3754482,-14803695 3894274,-18790594 60235,-1715003 133540,-3312377 196049,-4577888 537004,4584707 -9092,11146384 -958652,17308008 -1117764,7273705 -5035336,13429078 -8392605,11190140z"/>
   <path class="fil50" d="M34793313 222192364c855228,-794993 2069028,-2552615 2255417,-6421317 242078,-5034768 -373346,-9233059 436422,-14828698 -32391,2124149 -88648,5218883 410851,11190709 496657,5963301 -701231,9418879 -3102690,10059306z"/>
   <path class="fil51" d="M30542742 183735491c-2237801,-3146446 -4615394,-6713971 -2308265,-12729552 2308265,-6015013 4126691,-8742084 4475601,-12309609 93763,-947286 161386,-1908779 191503,-2872545 292085,4493786 -969448,9400695 -2467945,16394817 -1905938,8892673 1813880,12810245 4588117,18446229 -631903,-1053550 -2626490,-4325581 -4479011,-6929340z"/>
   <path class="fil52" d="M25214753 201103735c-501204,-1450195 -1322905,-3357838 -2667973,-5663262 -3264075,-5596775 -4397181,-14627534 -3543658,-20423199 698958,-4756321 1493383,-7857875 2894139,-10375827 1398484,-2517383 2692408,-3079959 3329993,-2866862 559735,185820 -981382,4105097 -1561573,7553856 -978541,5827488 -1118901,9605268 2891298,15666878 1889458,2857771 4329559,4709724 5413795,6170716 -257421,-190935 -522229,-295494 -791015,-295494 -4640396,0 -6193446,5718950 -5965006,10233194z"/>
   <path class="fil53" d="M25213048 199431919c-264240,-3644808 -1050141,-5482555 -1594533,-7232790 -1360978,-4386385 -2027545,-6574179 -884778,-7483961 1213800,-966039 3308968,2280989 5710995,4150558 1555891,1209253 2938463,1808198 3524338,2298036l1704 2273c-257421,-190935 -522229,-295494 -791015,-295494 -4081799,0 -5773503,4423890 -5966711,8561378z"/>
   <path class="fil54" d="M30158031 160514756c561439,-2273032 945013,-3287373 875117,-7834007 -22730,-1437125 -419942,-3461261 -1040480,-5570635l68191 114788c1684885,2765144 2520225,5297303 2785033,7944818 -266513,1963900 -964334,3759028 -1778080,5520060 -419943,909781 -1211526,1055255 -909781,-175024z"/>
   <path class="fil55" d="M29502829 119807580c-248329,421648 -483588,838749 -710323,1253578 439264,-1357569 950696,-2682179 1541117,-3911321 3636852,-7553288 5456415,-14128604 5175695,-21263654 -210824,-5375722 -9744491,-31068948 -3363520,-46013002l934785 -311406c21025,73305 0,11518594 1729209,19466253 7557834,34722281 288107,41266910 -5306963,50779552z"/>
   <path class="fil56" d="M33131726 221156430c-974563,-443242 -979677,-2307697 139223,-4894976 985360,-2278716 2308265,-5947391 2728208,-7974936 139791,4686994 -280720,7134482 -699526,10140568 -349479,2520225 -1398484,3078823 -2167905,2729344z"/>
   <path class="fil57" d="M17184696 230039442c-700662,-489839 -1328588,-2797535 1747962,-6505988 3078823,-3706180 4546066,-6783867 5665535,-11540188 0,0 -213666,9337619 -2868568,14478651 -2237801,4336378 -3845971,4056227 -4544929,3567525z"/>
   <path class="fil58" d="M22640543 195486502c0,0 -3428302,-6015581 -4616530,-11050917 -1189932,-5035904 -419942,-10281495 1049005,-14197931 1468379,-3917572 3076550,-5946254 3076550,-5946254 0,0 -4036338,10186028 -2657744,19025853 1189365,7623184 1888891,8532965 3148719,12169249z"/>
   <path class="fil59" d="M17377904 192175830c-4394341,-7436227 -4567659,-13647289 -2783329,-19291798 -698957,3576049 -473927,7479983 677364,11551553 1212095,4289213 4848947,10165003 7089021,16972736 1382572,4206815 1056392,7487370 604627,9380806 321634,-5220588 -1388823,-11506092 -5587683,-18613297z"/>
   <path class="fil60" d="M24224847 156644350c0,0 1120037,-4289213 -279583,-10538349 -1398484,-6247998 -2611147,-12588055 -1584304,-16413001 1025706,-3824378 3355565,-7366899 3355565,-7366899 0,0 -2702636,7366899 -1771261,13895049 932512,6528150 3730615,14641741 279583,20423200z"/>
   <path class="fil61" d="M33643727 99477007c-279583,8672756 -3729479,12869343 -3729479,12869343 0,0 1678066,-4009061 2144606,-8858577 466540,-4850652 -890460,-13615466 -4210793,-24768670 -2594667,-8716512 -1969014,-13101761 -1244485,-17847853 933080,-6122982 5707585,-13904710 5707585,-13904710 -3943712,10376963 -4774505,18366673 -3010064,27705997 1771829,9376260 4621644,16131145 4342630,24804470z"/>
   <path class="fil62" d="M55395514 184053147c-662021,-1367797 1699092,-2045729 2147448,-1522932 450060,523934 440968,1332566 62508,1825246 -306860,393234 -1551345,1066620 -2209956,-302314z"/>
   <path class="fil63" d="M56761038 184542418c364822,-222189 602922,-500636 656907,-902963 55689,-404031 -181843,-985359 -321066,-1141062 276742,7956 717710,517683 630198,1189364 -86375,669408 -671681,834772 -966039,854661z"/>
   <path class="fil64" d="M52694014 194841529c-943308,-484156 -1254714,-1754781 -919441,-2645242 268217,-717142 1785467,-2272464 3377158,-567121 1592828,1706479 -896711,4013039 -2457717,3212363z"/>
   <path class="fil65" d="M51977441 193340759c-179002,-1024569 524502,-1641129 946718,-1804788 -432445,489271 -560303,1160384 -454038,1779785 103991,617128 623379,1205844 893870,1368934 -411419,114788 -1205844,-321066 -1386550,-1343931z"/>
   <path class="fil66" d="M44495185 186826247c-2834472,-1920712 140928,-6178103 2658880,-5973530 0,0 4043157,-92626 3505585,3223161 -533594,3314081 -3329993,4667672 -6164465,2750369z"/>
   <path class="fil67" d="M46722189 187257555c-1073440,-6251 -2524203,-1092192 -2725366,-2206546 -146611,-819429 240373,-2248030 932511,-2459422 0,0 -491543,1608171 1205276,3089052 928534,810336 2366795,744986 2782760,517115 -331294,558029 -1122878,1066620 -2195181,1059801z"/>
   <path class="fil47" d="M47391029 181508487c0,0 1162088,-263672 2272464,893302 573941,598376 347774,1486563 235828,1747962 -644405,-1758191 -2508292,-2641264 -2508292,-2641264z"/>
   <path class="fil68" d="M49748732 107809377c0,0 -78420,5741112 -78420,7244155 0,1503043 -307995,3892569 -1425759,4317058 -1117764,423352 -1656473,-733621 -1155269,-1965037 501203,-1233689 2273033,-6667373 2659448,-9596176z"/>
   <path class="fil69" d="M58977813 104634518c0,0 2190636,6638393 2811742,8413631 620538,1774102 687592,4188063 -951264,3969284 -1658746,-222758 -1390528,-3582300 -1213800,-5335377 341523,-3405571 -646678,-7047538 -646678,-7047538z"/>
   <path class="fil70" d="M51481920 96171449c1386550,-347206 2497494,2332132 3884613,3992014 1112081,1331429 1564983,2587279 -301177,2781055 -2687861,279015 -3006086,1512704 -3969852,1666133 -962061,153430 -1163793,-687024 -972290,-3390228 150589,-2126990 -338113,-4625053 1358706,-5048974z"/>
   <path class="fil71" d="M52180877 126639749c-960356,-1617263 2195750,-5896816 5202972,-2890162 3006086,3006086 -3007222,6589523 -5202972,2890162z"/>
   <path class="fil39" d="M52931546 126523824c0,0 1156406,1503043 2775942,867730 1617262,-635881 1733187,-1329724 1733187,-1329724 0,0 -1559300,1329724 -4509129,461994z"/>
   <path class="fil72" d="M47226802 143008994c-225030,-1647948 2324744,-2466809 3179973,-809768 924556,1791718 -2786738,3686291 -3179973,809768z"/>
   <path class="fil39" d="M48170679 144145511c0,0 847273,57394 1407576,-347206 557461,-404600 693843,-981382 693843,-981382 0,0 -712596,923420 -2101419,1328588z"/>
   <path class="fil73" d="M52286573 146861785c-155703,-1153564 1628628,-1726369 2225868,-566554 648382,1253578 -1950263,2579324 -2225868,566554z"/>
   <path class="fil39" d="M52948594 147657915c0,0 592693,39778 985360,-242647 389825,-283560 484156,-687024 484156,-687024 0,0 -498363,646110 -1469516,929671z"/>
   <path class="fil74" d="M32344688 47460356c3806194,0 6891267,733622 6891267,1639425 0,904667 -3085073,1638289 -6891267,1638289 -3805625,0 -6889562,-733622 -6889562,-1638289 0,-905803 3083937,-1639425 6889562,-1639425z"/>
   <polygon class="fil75" points="39235955,30877446 39235955,49137286 25455126,49137286 25455126,30877446 "/>
   <path class="fil76" d="M39228568 47260329c-209119,882505 -3461261,910918 -7261771,11366 -3653901,-864889 -6416772,-2588985 -6511671,-3117465 0,0 -98877,22162 -118198,722825 -18184,642700 118198,979677 118198,979677 173319,926829 2838450,2260531 6513944,3131102 3798237,897280 6751475,785901 7254952,35801 53416,-80125 92058,-226167 111947,-780219 11365,-305155 -58531,-808063 -107401,-983087z"/>
   <path class="fil77" d="M39225727 43381967c-209119,881937 -3458420,865457 -7258930,-34095 -3653901,-864321 -6484963,-2231550 -6511671,-3117465l0 1700797c-5114,884778 2838450,2263372 6513944,3132808 3798237,898416 7047538,915463 7254952,35232 6819,-27845 102287,-251171 111947,-902963 5114,-344364 -58531,-681341 -110242,-814314z"/>
   <g>
    <path class="fil78" d="M33125475 34337570c11442447,0 20718126,2066755 20718126,4615393 0,2548070 -9275679,4615393 -20718126,4615393 -11442447,0 -20718126,-2067323 -20718126,-4615393 0,-2548638 9275679,-4615393 20718126,-4615393z"/>
    <g>
     <path class="fil79" d="M12421556 9250675c0,0 48870,-3568661 57962,-9250675 13780830,0 27561659,0 41341921,0 -1705,5288779 22162,8576153 22162,8576153l0 30390448 -41422045 0 0 -29715926z"/>
     <polygon class="fil80" points="53843601,9250675 53843601,38966601 12421556,38966601 12421556,9250675 "/>
     <path class="fil81" d="M33133431 8141435c11437332,0 20710170,455743 20710170,1020024 0,563712 -9272838,1019455 -20710170,1019455 -11439606,0 -20711875,-455743 -20711875,-1019455 0,-564281 9272269,-1020024 20711875,-1020024z"/>
     <path class="fil82" d="M22668388 42937021c1678634,215370 3503880,382438 5438231,496089l114220 5683 0 -33574967c-1988904,-89217 -3868134,-229008 -5586547,-412556 31823,6176399 35232,32282180 34096,33485751z"/>
     <path class="fil83" d="M21350029 38962055c1136,1264374 1136,2523066 2273,3784031 1336543,201732 2796398,373346 4344334,509728 -6819,-1425192 -14775,-2859475 -27277,-4293759 -92626,-12007864 -450628,-23835590 -625084,-29243703 -1388823,-105696 -2635581,-146043 -3852222,-301745 87512,8789249 150020,20644820 157976,29545448z"/>
     <path class="fil84" d="M39647374 10126361c-279583,8693214 -558029,20179417 -625652,28835694 -11365,1473494 -20457,2943577 -25572,4407979 1530888,-97741 2981651,-235259 4343766,-405168 0,-1332566 1137,-2667404 2841,-4002811 5683,-8840393 58531,-20185099 143770,-28917523 -1260397,-306860 -2463968,1136 -3839153,81829z"/>
     <path class="fil85" d="M22598492 10039418c-39210,-2220185 -113652,-5740545 -231849,-10039418l5854196 0 0 10152501c-2004815,-23867 -3893706,-63077 -5622347,-113083z"/>
     <path class="fil86" d="M25054504 10100789c-1364956,-29549 -2654334,-64781 -3849949,-106264 -14775,-1285400 -27845,-2575914 -44893,-3851086 -27844,-2062209 -61372,-4109643 -97740,-6143439l3591392 0c87511,1909348 169341,3829492 245487,5761002 56258,1438261 105128,2890729 155703,4339787z"/>
     <path class="fil87" d="M43486527 10044532c-1210958,34095 -2499768,63077 -3849950,85239 51712,-1495656 101719,-2994153 161386,-4479580 74442,-1890595 158544,-3773802 250033,-5650191l3591392 0c-42051,1976970 -77851,3963601 -103991,5958755 -18753,1352455 -32959,2721389 -48870,4085777z"/>
    </g>
   </g>
  </g>
 </g>
</svg>
