<?xml version="1.0" encoding="UTF-8"?>
<!DOCTYPE svg PUBLIC "-//W3C//DTD SVG 1.1//EN" "http://www.w3.org/Graphics/SVG/1.1/DTD/svg11.dtd">
<!-- Creator: CorelDRAW X7 -->
<svg xmlns="http://www.w3.org/2000/svg" xml:space="preserve" width="1.47in" height="1.81249in" version="1.1" style="shape-rendering:geometricPrecision; text-rendering:geometricPrecision; image-rendering:optimizeQuality; fill-rule:evenodd; clip-rule:evenodd"
viewBox="0 0 1470 1812"
 xmlns:xlink="http://www.w3.org/1999/xlink">
 <defs>
  <style type="text/css">
   <![CDATA[
    .str0 {stroke:white;stroke-width:2.99999;stroke-opacity:0.231373}
    .str1 {stroke:#30BA30;stroke-width:49.9959}
    .fil4 {fill:black}
    .fil132 {fill:#3B3B3B}
    .fil41 {fill:#414243}
    .fil17 {fill:#572B2A}
    .fil13 {fill:#75312F}
    .fil131 {fill:#868686}
    .fil133 {fill:#A1A1A1}
    .fil129 {fill:#D28755}
    .fil16 {fill:#D46929}
    .fil128 {fill:#E79A66}
    .fil12 {fill:#F48120}
    .fil14 {fill:#F9A74B}
    .fil130 {fill:#FDCF9D}
    .fil9 {fill:#FFB972}
    .fil10 {fill:#FFDEBA}
    .fil134 {fill:white}
    .fil1 {fill:black;fill-rule:nonzero}
    .fil149 {fill:#008AD8;fill-rule:nonzero}
    .fil123 {fill:#652D90;fill-rule:nonzero}
    .fil119 {fill:#EC1C24;fill-rule:nonzero}
    .fil141 {fill:#F9D41A;fill-rule:nonzero}
    .fil2 {fill:#FFDD1F;fill-rule:nonzero}
    .fil18 {fill:white;fill-rule:nonzero}
    .fil0 {fill:white;fill-opacity:0.231373}
    .fil25 {fill:url(#id0)}
    .fil70 {fill:url(#id1)}
    .fil83 {fill:url(#id2)}
    .fil72 {fill:url(#id3)}
    .fil60 {fill:url(#id4)}
    .fil86 {fill:url(#id5)}
    .fil6 {fill:url(#id6)}
    .fil76 {fill:url(#id7)}
    .fil26 {fill:url(#id8)}
    .fil108 {fill:url(#id9)}
    .fil104 {fill:url(#id10)}
    .fil75 {fill:url(#id11)}
    .fil37 {fill:url(#id12)}
    .fil112 {fill:url(#id13)}
    .fil69 {fill:url(#id14)}
    .fil142 {fill:url(#id15)}
    .fil90 {fill:url(#id16)}
    .fil122 {fill:url(#id17)}
    .fil67 {fill:url(#id18)}
    .fil97 {fill:url(#id19)}
    .fil115 {fill:url(#id20)}
    .fil87 {fill:url(#id21)}
    .fil118 {fill:url(#id22)}
    .fil139 {fill:url(#id23)}
    .fil114 {fill:url(#id24)}
    .fil127 {fill:url(#id25)}
    .fil109 {fill:url(#id26)}
    .fil49 {fill:url(#id27)}
    .fil135 {fill:url(#id28)}
    .fil28 {fill:url(#id29)}
    .fil106 {fill:url(#id30)}
    .fil144 {fill:url(#id31)}
    .fil31 {fill:url(#id32)}
    .fil64 {fill:url(#id33)}
    .fil34 {fill:url(#id34)}
    .fil58 {fill:url(#id35)}
    .fil23 {fill:url(#id36)}
    .fil20 {fill:url(#id37)}
    .fil32 {fill:url(#id38)}
    .fil137 {fill:url(#id39)}
    .fil68 {fill:url(#id40)}
    .fil7 {fill:url(#id41)}
    .fil53 {fill:url(#id42)}
    .fil94 {fill:url(#id43)}
    .fil78 {fill:url(#id44)}
    .fil50 {fill:url(#id45)}
    .fil121 {fill:url(#id46)}
    .fil30 {fill:url(#id47)}
    .fil100 {fill:url(#id48)}
    .fil21 {fill:url(#id49)}
    .fil36 {fill:url(#id50)}
    .fil19 {fill:url(#id51)}
    .fil44 {fill:url(#id52)}
    .fil77 {fill:url(#id53)}
    .fil136 {fill:url(#id54)}
    .fil89 {fill:url(#id55)}
    .fil54 {fill:url(#id56)}
    .fil42 {fill:url(#id57)}
    .fil56 {fill:url(#id58)}
    .fil15 {fill:url(#id59)}
    .fil59 {fill:url(#id60)}
    .fil117 {fill:url(#id61)}
    .fil105 {fill:url(#id62)}
    .fil116 {fill:url(#id63)}
    .fil65 {fill:url(#id64)}
    .fil113 {fill:url(#id65)}
    .fil55 {fill:url(#id66)}
    .fil51 {fill:url(#id67)}
    .fil8 {fill:url(#id68)}
    .fil33 {fill:url(#id69)}
    .fil111 {fill:url(#id70)}
    .fil140 {fill:url(#id71)}
    .fil125 {fill:url(#id72)}
    .fil52 {fill:url(#id73)}
    .fil57 {fill:url(#id74)}
    .fil24 {fill:url(#id75)}
    .fil85 {fill:url(#id76)}
    .fil126 {fill:url(#id77)}
    .fil81 {fill:url(#id78)}
    .fil107 {fill:url(#id79)}
    .fil40 {fill:url(#id80)}
    .fil101 {fill:url(#id81)}
    .fil61 {fill:url(#id82)}
    .fil74 {fill:url(#id83)}
    .fil91 {fill:url(#id84)}
    .fil110 {fill:url(#id85)}
    .fil80 {fill:url(#id86)}
    .fil95 {fill:url(#id87)}
    .fil22 {fill:url(#id88)}
    .fil92 {fill:url(#id89)}
    .fil48 {fill:url(#id90)}
    .fil27 {fill:url(#id91)}
    .fil96 {fill:url(#id92)}
    .fil66 {fill:url(#id93)}
    .fil82 {fill:url(#id94)}
    .fil84 {fill:url(#id95)}
    .fil98 {fill:url(#id96)}
    .fil63 {fill:url(#id97)}
    .fil35 {fill:url(#id98)}
    .fil120 {fill:url(#id99)}
    .fil71 {fill:url(#id100)}
    .fil47 {fill:url(#id101)}
    .fil43 {fill:url(#id102)}
    .fil46 {fill:url(#id103)}
    .fil103 {fill:url(#id104)}
    .fil138 {fill:url(#id105)}
    .fil38 {fill:url(#id106)}
    .fil102 {fill:url(#id107)}
    .fil88 {fill:url(#id108)}
    .fil73 {fill:url(#id109)}
    .fil124 {fill:url(#id110)}
    .fil45 {fill:url(#id111)}
    .fil5 {fill:url(#id112)}
    .fil29 {fill:url(#id113)}
    .fil39 {fill:url(#id114)}
    .fil99 {fill:url(#id115)}
    .fil62 {fill:url(#id116)}
    .fil79 {fill:url(#id117)}
    .fil93 {fill:url(#id118)}
    .fil152 {fill:url(#id119)}
    .fil11 {fill:url(#id120)}
    .fil145 {fill:url(#id121)}
    .fil3 {fill:url(#id122)}
    .fil147 {fill:url(#id123)}
    .fil148 {fill:url(#id124)}
    .fil150 {fill:url(#id125)}
    .fil151 {fill:url(#id126)}
    .fil146 {fill:url(#id127)}
    .fil143 {fill:url(#id128)}
   ]]>
  </style>
  <linearGradient id="id0" gradientUnits="userSpaceOnUse" x1="959.202" y1="421.711" x2="868.588" y2="551.798">
   <stop offset="0" style="stop-opacity:1; stop-color:#EDA04F"/>
   <stop offset="1" style="stop-opacity:1; stop-color:#C9793D"/>
  </linearGradient>
  <linearGradient id="id1" gradientUnits="userSpaceOnUse" x1="952.261" y1="387.338" x2="966.175" y2="401.511">
   <stop offset="0" style="stop-opacity:1; stop-color:#DDDEDE"/>
   <stop offset="1" style="stop-opacity:1; stop-color:#7C7E80"/>
  </linearGradient>
  <linearGradient id="id2" gradientUnits="userSpaceOnUse" x1="1209.97" y1="222.551" x2="1149.09" y2="278.031">
   <stop offset="0" style="stop-opacity:1; stop-color:#D18645"/>
   <stop offset="1" style="stop-opacity:1; stop-color:#B56639"/>
  </linearGradient>
  <linearGradient id="id3" gradientUnits="userSpaceOnUse" x1="953.253" y1="388.349" x2="965.182" y2="400.499">
   <stop offset="0" style="stop-opacity:1; stop-color:#373535"/>
   <stop offset="1" style="stop-opacity:1; stop-color:#373535"/>
  </linearGradient>
  <linearGradient id="id4" gradientUnits="userSpaceOnUse" x1="1102.72" y1="276.495" x2="1112.18" y2="288.07">
   <stop offset="0" style="stop-opacity:1; stop-color:#737576"/>
   <stop offset="1" style="stop-opacity:1; stop-color:#A9ACAF"/>
  </linearGradient>
  <linearGradient id="id5" gradientUnits="userSpaceOnUse" x1="1135.46" y1="206.318" x2="1111.1" y2="222.665">
   <stop offset="0" style="stop-opacity:1; stop-color:#E3B180"/>
   <stop offset="1" style="stop-opacity:1; stop-color:#E19154"/>
  </linearGradient>
  <linearGradient id="id6" gradientUnits="userSpaceOnUse" x1="804.663" y1="827.21" x2="876.569" y2="881.344">
   <stop offset="0" style="stop-opacity:1; stop-color:#7A3E3E"/>
   <stop offset="1" style="stop-opacity:1; stop-color:#7A3E3E"/>
  </linearGradient>
  <linearGradient id="id7" gradientUnits="userSpaceOnUse" x1="1203.06" y1="251.889" x2="1174.82" y2="281.535">
   <stop offset="0" style="stop-opacity:1; stop-color:#CE8B4A"/>
   <stop offset="1" style="stop-opacity:1; stop-color:#B2693B"/>
  </linearGradient>
  <linearGradient id="id8" gradientUnits="userSpaceOnUse" x1="928.053" y1="466.428" x2="899.738" y2="507.081">
   <stop offset="0" style="stop-opacity:1; stop-color:#C9793D"/>
   <stop offset="1" style="stop-opacity:1; stop-color:#B26939"/>
  </linearGradient>
  <linearGradient id="id9" gradientUnits="userSpaceOnUse" x1="1160.35" y1="260.862" x2="1159.21" y2="261.956">
   <stop offset="0" style="stop-opacity:1; stop-color:#B97841"/>
   <stop offset="1" style="stop-opacity:1; stop-color:#A25D37"/>
  </linearGradient>
  <linearGradient id="id10" gradientUnits="userSpaceOnUse" x1="1177.72" y1="274.499" x2="1177.15" y2="275.082">
   <stop offset="0" style="stop-opacity:1; stop-color:#A35E37"/>
   <stop offset="1" style="stop-opacity:1; stop-color:#A35E37"/>
  </linearGradient>
  <linearGradient id="id11" gradientUnits="userSpaceOnUse" x1="1190.82" y1="264.736" x2="1187.06" y2="268.688">
   <stop offset="0" style="stop-opacity:1; stop-color:#CE8C4A"/>
   <stop offset="1" style="stop-opacity:1; stop-color:#CE8C4A"/>
  </linearGradient>
  <linearGradient id="id12" gradientUnits="userSpaceOnUse" x1="1230.85" y1="140.409" x2="1215.78" y2="155">
   <stop offset="0" style="stop-opacity:1; stop-color:#C97741"/>
   <stop offset="1" style="stop-opacity:1; stop-color:#C97741"/>
  </linearGradient>
  <linearGradient id="id13" gradientUnits="userSpaceOnUse" xlink:href="#id7" x1="1349.23" y1="138.795" x2="1262.11" y2="227.377">
  </linearGradient>
  <linearGradient id="id14" gradientUnits="userSpaceOnUse" x1="955.242" y1="390.373" x2="963.194" y2="398.475">
   <stop offset="0" style="stop-opacity:1; stop-color:#FEFEFE"/>
   <stop offset="1" style="stop-opacity:1; stop-color:#DDDEDE"/>
  </linearGradient>
  <linearGradient id="id15" gradientUnits="userSpaceOnUse" x1="1061.99" y1="1054.48" x2="1059.65" y2="1063.55">
   <stop offset="0" style="stop-opacity:1; stop-color:#FEFEFE"/>
   <stop offset="1" style="stop-opacity:1; stop-color:#F9F071"/>
  </linearGradient>
  <linearGradient id="id16" gradientUnits="userSpaceOnUse" x1="1218.59" y1="267.472" x2="1183.68" y2="309.157">
   <stop offset="0" style="stop-opacity:1; stop-color:#D18645"/>
   <stop offset="1" style="stop-opacity:1; stop-color:#CC7539"/>
  </linearGradient>
  <linearGradient id="id17" gradientUnits="userSpaceOnUse" x1="1143.42" y1="473.849" x2="1206.11" y2="567.502">
   <stop offset="0" style="stop-opacity:1; stop-color:#FEFEFE"/>
   <stop offset="1" style="stop-opacity:1; stop-color:#6C3E92"/>
  </linearGradient>
  <linearGradient id="id18" gradientUnits="userSpaceOnUse" xlink:href="#id4" x1="961.364" y1="381.597" x2="973.293" y2="393.747">
  </linearGradient>
  <linearGradient id="id19" gradientUnits="userSpaceOnUse" x1="1132.93" y1="227.224" x2="1132.38" y2="227.743">
   <stop offset="0" style="stop-opacity:1; stop-color:#E5A774"/>
   <stop offset="1" style="stop-opacity:1; stop-color:#D18645"/>
  </linearGradient>
  <linearGradient id="id20" gradientUnits="userSpaceOnUse" x1="394.298" y1="1138.09" x2="404.983" y2="1157.04">
   <stop offset="0" style="stop-opacity:1; stop-color:#E2E3E4"/>
   <stop offset="1" style="stop-opacity:1; stop-color:#FEFEFE"/>
  </linearGradient>
  <linearGradient id="id21" gradientUnits="userSpaceOnUse" x1="1133.43" y1="207.681" x2="1113.12" y2="221.303">
   <stop offset="0" style="stop-opacity:1; stop-color:#E19154"/>
   <stop offset="1" style="stop-opacity:1; stop-color:#E19154"/>
  </linearGradient>
  <linearGradient id="id22" gradientUnits="userSpaceOnUse" x1="632.101" y1="1217.65" x2="678.085" y2="1199.12">
   <stop offset="0" style="stop-opacity:1; stop-color:#D73438"/>
   <stop offset="1" style="stop-opacity:1; stop-color:#B23437"/>
  </linearGradient>
  <linearGradient id="id23" gradientUnits="userSpaceOnUse" x1="919.856" y1="1169.91" x2="899.714" y2="1191.03">
   <stop offset="0" style="stop-opacity:1; stop-color:#F8C337"/>
   <stop offset="1" style="stop-opacity:1; stop-color:#F9D568"/>
  </linearGradient>
  <linearGradient id="id24" gradientUnits="userSpaceOnUse" x1="372.66" y1="1129.27" x2="488.345" y2="1108.14">
   <stop offset="0" style="stop-opacity:1; stop-color:#B6B6B8"/>
   <stop offset="1" style="stop-opacity:1; stop-color:#FEFEFE"/>
  </linearGradient>
  <linearGradient id="id25" gradientUnits="userSpaceOnUse" x1="1099.71" y1="564.231" x2="1096.3" y2="520.766">
   <stop offset="0" style="stop-opacity:1; stop-color:#FDD1A1"/>
   <stop offset="1" style="stop-opacity:1; stop-color:#F9AA75"/>
  </linearGradient>
  <linearGradient id="id26" gradientUnits="userSpaceOnUse" xlink:href="#id10" x1="1159.97" y1="261.228" x2="1159.59" y2="261.59">
  </linearGradient>
  <linearGradient id="id27" gradientUnits="userSpaceOnUse" xlink:href="#id1" x1="1022.96" y1="370.168" x2="1029.69" y2="382.625">
  </linearGradient>
  <linearGradient id="id28" gradientUnits="userSpaceOnUse" x1="965.092" y1="1168.17" x2="789.88" y2="1148.95">
   <stop offset="0" style="stop-opacity:1; stop-color:#F79534"/>
   <stop offset="1" style="stop-opacity:1; stop-color:#F8C337"/>
  </linearGradient>
  <linearGradient id="id29" gradientUnits="userSpaceOnUse" x1="1260.21" y1="165.673" x2="1239.69" y2="181.909">
   <stop offset="0" style="stop-opacity:1; stop-color:#E89C53"/>
   <stop offset="1" style="stop-opacity:1; stop-color:#E89C53"/>
  </linearGradient>
  <linearGradient id="id30" gradientUnits="userSpaceOnUse" x1="1159.97" y1="261.228" x2="1159.59" y2="261.59">
   <stop offset="0" style="stop-opacity:1; stop-color:#BB7941"/>
   <stop offset="1" style="stop-opacity:1; stop-color:#BB7941"/>
  </linearGradient>
  <linearGradient id="id31" gradientUnits="userSpaceOnUse" x1="1131.71" y1="1084.8" x2="1163.3" y2="1053.68">
   <stop offset="0" style="stop-opacity:1; stop-color:#F7D530"/>
   <stop offset="1" style="stop-opacity:1; stop-color:#E2BC36"/>
  </linearGradient>
  <linearGradient id="id32" gradientUnits="userSpaceOnUse" x1="1269.67" y1="94.5352" x2="1168.07" y2="185.251">
   <stop offset="0" style="stop-opacity:1; stop-color:#FDD1A1"/>
   <stop offset="1" style="stop-opacity:1; stop-color:#F9AA65"/>
  </linearGradient>
  <linearGradient id="id33" gradientUnits="userSpaceOnUse" x1="965.34" y1="385.649" x2="969.316" y2="389.696">
   <stop offset="0" style="stop-opacity:1; stop-color:#7C7E80"/>
   <stop offset="1" style="stop-opacity:1; stop-color:#363435"/>
  </linearGradient>
  <linearGradient id="id34" gradientUnits="userSpaceOnUse" x1="1358.1" y1="146.2" x2="1207.22" y2="308.869">
   <stop offset="0" style="stop-opacity:1; stop-color:#D18749"/>
   <stop offset="1" style="stop-opacity:1; stop-color:#BC703F"/>
  </linearGradient>
  <linearGradient id="id35" gradientUnits="userSpaceOnUse" xlink:href="#id3" x1="1102.72" y1="276.495" x2="1112.18" y2="288.07">
  </linearGradient>
  <linearGradient id="id36" gradientUnits="userSpaceOnUse" xlink:href="#id8" x1="994.265" y1="563.451" x2="945.84" y2="590.002">
  </linearGradient>
  <linearGradient id="id37" gradientUnits="userSpaceOnUse" x1="737.372" y1="764.022" x2="927.206" y2="906.935">
   <stop offset="0" style="stop-opacity:1; stop-color:#EDA04F"/>
   <stop offset="1" style="stop-opacity:1; stop-color:#DC8844"/>
  </linearGradient>
  <linearGradient id="id38" gradientUnits="userSpaceOnUse" x1="1302.95" y1="205.48" x2="1261.5" y2="249.921">
   <stop offset="0" style="stop-opacity:1; stop-color:#F0B063"/>
   <stop offset="1" style="stop-opacity:1; stop-color:#E89C53"/>
  </linearGradient>
  <linearGradient id="id39" gradientUnits="userSpaceOnUse" x1="850.08" y1="1189.17" x2="871.017" y2="1199.15">
   <stop offset="0" style="stop-opacity:1; stop-color:#FEFEFE"/>
   <stop offset="1" style="stop-opacity:1; stop-color:#F8C337"/>
  </linearGradient>
  <linearGradient id="id40" gradientUnits="userSpaceOnUse" x1="956.238" y1="391.389" x2="962.198" y2="397.46">
   <stop offset="0" style="stop-opacity:1; stop-color:#DDDEDE"/>
   <stop offset="1" style="stop-opacity:1; stop-color:#FEFEFE"/>
  </linearGradient>
  <linearGradient id="id41" gradientUnits="userSpaceOnUse" x1="768.707" y1="800.144" x2="912.525" y2="908.411">
   <stop offset="0" style="stop-opacity:1; stop-color:#7A3E3E"/>
   <stop offset="1" style="stop-opacity:1; stop-color:#AD5C38"/>
  </linearGradient>
  <linearGradient id="id42" gradientUnits="userSpaceOnUse" xlink:href="#id4" x1="1023.8" y1="371.727" x2="1028.84" y2="381.066">
  </linearGradient>
  <linearGradient id="id43" gradientUnits="userSpaceOnUse" xlink:href="#id2" x1="1128.09" y1="221.145" x2="1127.33" y2="221.846">
  </linearGradient>
  <linearGradient id="id44" gradientUnits="userSpaceOnUse" xlink:href="#id11" x1="1160.54" y1="260.684" x2="1159.02" y2="262.133">
  </linearGradient>
  <linearGradient id="id45" gradientUnits="userSpaceOnUse" xlink:href="#id33" x1="1024.64" y1="373.282" x2="1028.01" y2="379.511">
  </linearGradient>
  <linearGradient id="id46" gradientUnits="userSpaceOnUse" x1="1145.33" y1="550.64" x2="1092.05" y2="474.916">
   <stop offset="0" style="stop-opacity:1; stop-color:#483855"/>
   <stop offset="1" style="stop-opacity:1; stop-color:#6C3E92"/>
  </linearGradient>
  <linearGradient id="id47" gradientUnits="userSpaceOnUse" xlink:href="#id12" x1="1256.79" y1="168.381" x2="1243.11" y2="179.2">
  </linearGradient>
  <linearGradient id="id48" gradientUnits="userSpaceOnUse" x1="1132.8" y1="227.354" x2="1132.52" y2="227.614">
   <stop offset="0" style="stop-opacity:1; stop-color:#B56839"/>
   <stop offset="1" style="stop-opacity:1; stop-color:#B56839"/>
  </linearGradient>
  <linearGradient id="id49" gradientUnits="userSpaceOnUse" x1="1034.62" y1="541.325" x2="905.486" y2="612.128">
   <stop offset="0" style="stop-opacity:1; stop-color:#FBBB78"/>
   <stop offset="1" style="stop-opacity:1; stop-color:#EDA04F"/>
  </linearGradient>
  <linearGradient id="id50" gradientUnits="userSpaceOnUse" x1="1266.66" y1="105.76" x2="1179.98" y2="189.649">
   <stop offset="0" style="stop-opacity:1; stop-color:#E89C53"/>
   <stop offset="1" style="stop-opacity:1; stop-color:#C97641"/>
  </linearGradient>
  <linearGradient id="id51" gradientUnits="userSpaceOnUse" xlink:href="#id49" x1="737.372" y1="764.022" x2="927.206" y2="906.935">
  </linearGradient>
  <linearGradient id="id52" gradientUnits="userSpaceOnUse" xlink:href="#id1" x1="1040.52" y1="326.164" x2="1045.1" y2="332.7">
  </linearGradient>
  <linearGradient id="id53" gradientUnits="userSpaceOnUse" x1="1196" y1="259.302" x2="1181.88" y2="274.121">
   <stop offset="0" style="stop-opacity:1; stop-color:#B46A3C"/>
   <stop offset="1" style="stop-opacity:1; stop-color:#B46A3C"/>
  </linearGradient>
  <linearGradient id="id54" gradientUnits="userSpaceOnUse" xlink:href="#id39" x1="861.872" y1="1064.44" x2="884.446" y2="1102.96">
  </linearGradient>
  <linearGradient id="id55" gradientUnits="userSpaceOnUse" x1="1206.06" y1="282.432" x2="1196.21" y2="294.196">
   <stop offset="0" style="stop-opacity:1; stop-color:#DB9851"/>
   <stop offset="1" style="stop-opacity:1; stop-color:#D18645"/>
  </linearGradient>
  <linearGradient id="id56" gradientUnits="userSpaceOnUse" xlink:href="#id40" x1="1102.72" y1="276.495" x2="1112.18" y2="288.07">
  </linearGradient>
  <linearGradient id="id57" gradientUnits="userSpaceOnUse" xlink:href="#id40" x1="1035.95" y1="319.633" x2="1049.67" y2="339.231">
  </linearGradient>
  <linearGradient id="id58" gradientUnits="userSpaceOnUse" xlink:href="#id1" x1="1104.3" y1="278.424" x2="1110.6" y2="286.141">
  </linearGradient>
  <linearGradient id="id59" gradientUnits="userSpaceOnUse" x1="166.594" y1="812.112" x2="167.917" y2="821.584">
   <stop offset="0" style="stop-opacity:1; stop-color:#D4A3A1"/>
   <stop offset="1" style="stop-opacity:1; stop-color:#B67D79"/>
  </linearGradient>
  <linearGradient id="id60" gradientUnits="userSpaceOnUse" x1="1105.87" y1="280.354" x2="1109.03" y2="284.212">
   <stop offset="0" style="stop-opacity:1; stop-color:#363435"/>
   <stop offset="1" style="stop-opacity:1; stop-color:#737576"/>
  </linearGradient>
  <linearGradient id="id61" gradientUnits="userSpaceOnUse" x1="655.569" y1="1127.58" x2="655.569" y2="1222.93">
   <stop offset="0" style="stop-opacity:1; stop-color:#D73438"/>
   <stop offset="1" style="stop-opacity:1; stop-color:#A63336"/>
  </linearGradient>
  <linearGradient id="id62" gradientUnits="userSpaceOnUse" xlink:href="#id10" x1="1177.72" y1="274.499" x2="1177.15" y2="275.082">
  </linearGradient>
  <linearGradient id="id63" gradientUnits="userSpaceOnUse" xlink:href="#id24" x1="455.03" y1="1177.63" x2="474.755" y2="1204.19">
  </linearGradient>
  <linearGradient id="id64" gradientUnits="userSpaceOnUse" xlink:href="#id3" x1="962.36" y1="382.609" x2="972.297" y2="392.735">
  </linearGradient>
  <linearGradient id="id65" gradientUnits="userSpaceOnUse" xlink:href="#id53" x1="1310.65" y1="178.023" x2="1300.69" y2="188.149">
  </linearGradient>
  <linearGradient id="id66" gradientUnits="userSpaceOnUse" xlink:href="#id14" x1="1097.99" y1="270.708" x2="1116.91" y2="293.857">
  </linearGradient>
  <linearGradient id="id67" gradientUnits="userSpaceOnUse" xlink:href="#id3" x1="1022.96" y1="370.168" x2="1029.69" y2="382.625">
  </linearGradient>
  <linearGradient id="id68" gradientUnits="userSpaceOnUse" x1="283.141" y1="811.895" x2="384.692" y2="888.659">
   <stop offset="0" style="stop-opacity:1; stop-color:#FBBB78"/>
   <stop offset="1" style="stop-opacity:1; stop-color:#EA9D68"/>
  </linearGradient>
  <linearGradient id="id69" gradientUnits="userSpaceOnUse" x1="1321.78" y1="185.275" x2="1242.67" y2="270.125">
   <stop offset="0" style="stop-opacity:1; stop-color:#E89C53"/>
   <stop offset="1" style="stop-opacity:1; stop-color:#E58843"/>
  </linearGradient>
  <linearGradient id="id70" gradientUnits="userSpaceOnUse" xlink:href="#id11" x1="1313.14" y1="175.492" x2="1298.2" y2="190.681">
  </linearGradient>
  <linearGradient id="id71" gradientUnits="userSpaceOnUse" x1="1041.66" y1="1042.37" x2="1145.41" y2="1062.38">
   <stop offset="0" style="stop-opacity:1; stop-color:#F9F071"/>
   <stop offset="1" style="stop-opacity:1; stop-color:#F7D532"/>
  </linearGradient>
  <linearGradient id="id72" gradientUnits="userSpaceOnUse" x1="1041.73" y1="548.546" x2="1039.25" y2="548.963">
   <stop offset="0" style="stop-opacity:1; stop-color:#8A5B5C"/>
   <stop offset="1" style="stop-opacity:1; stop-color:#F58634"/>
  </linearGradient>
  <linearGradient id="id73" gradientUnits="userSpaceOnUse" xlink:href="#id60" x1="1024.64" y1="373.282" x2="1028.01" y2="379.511">
  </linearGradient>
  <linearGradient id="id74" gradientUnits="userSpaceOnUse" xlink:href="#id33" x1="1105.87" y1="280.354" x2="1109.03" y2="284.212">
  </linearGradient>
  <linearGradient id="id75" gradientUnits="userSpaceOnUse" xlink:href="#id49" x1="976.194" y1="397.322" x2="851.596" y2="576.187">
  </linearGradient>
  <linearGradient id="id76" gradientUnits="userSpaceOnUse" xlink:href="#id48" x1="1181.22" y1="248.751" x2="1177.84" y2="251.83">
  </linearGradient>
  <linearGradient id="id77" gradientUnits="userSpaceOnUse" x1="1042.56" y1="548.408" x2="1038.43" y2="549.101">
   <stop offset="0" style="stop-opacity:1; stop-color:#F58634"/>
   <stop offset="1" style="stop-opacity:1; stop-color:#5E3D3A"/>
  </linearGradient>
  <linearGradient id="id78" gradientUnits="userSpaceOnUse" x1="1181.22" y1="248.751" x2="1177.84" y2="251.83">
   <stop offset="0" style="stop-opacity:1; stop-color:#D18645"/>
   <stop offset="1" style="stop-opacity:1; stop-color:#D18645"/>
  </linearGradient>
  <linearGradient id="id79" gradientUnits="userSpaceOnUse" xlink:href="#id30" x1="1159.97" y1="261.228" x2="1159.59" y2="261.59">
  </linearGradient>
  <linearGradient id="id80" gradientUnits="userSpaceOnUse" xlink:href="#id12" x1="1235.52" y1="147.448" x2="1220.59" y2="162.141">
  </linearGradient>
  <linearGradient id="id81" gradientUnits="userSpaceOnUse" xlink:href="#id30" x1="1177.72" y1="274.499" x2="1177.15" y2="275.082">
  </linearGradient>
  <linearGradient id="id82" gradientUnits="userSpaceOnUse" xlink:href="#id40" x1="964.348" y1="384.637" x2="970.308" y2="390.708">
  </linearGradient>
  <linearGradient id="id83" gradientUnits="userSpaceOnUse" xlink:href="#id4" x1="953.253" y1="388.349" x2="965.182" y2="400.499">
  </linearGradient>
  <linearGradient id="id84" gradientUnits="userSpaceOnUse" x1="1202.03" y1="287.247" x2="1200.24" y2="289.381">
   <stop offset="0" style="stop-opacity:1; stop-color:#CE753A"/>
   <stop offset="1" style="stop-opacity:1; stop-color:#CE753A"/>
  </linearGradient>
  <linearGradient id="id85" gradientUnits="userSpaceOnUse" xlink:href="#id10" x1="1159.97" y1="261.228" x2="1159.59" y2="261.59">
  </linearGradient>
  <linearGradient id="id86" gradientUnits="userSpaceOnUse" xlink:href="#id53" x1="1164.54" y1="256.862" x2="1155.02" y2="265.956">
  </linearGradient>
  <linearGradient id="id87" gradientUnits="userSpaceOnUse" xlink:href="#id48" x1="1127.84" y1="221.377" x2="1127.58" y2="221.614">
  </linearGradient>
  <linearGradient id="id88" gradientUnits="userSpaceOnUse" xlink:href="#id0" x1="1042.69" y1="536.9" x2="897.415" y2="616.553">
  </linearGradient>
  <linearGradient id="id89" gradientUnits="userSpaceOnUse" x1="1199.7" y1="284.519" x2="1196.2" y2="288.298">
   <stop offset="0" style="stop-opacity:1; stop-color:#BC743E"/>
   <stop offset="1" style="stop-opacity:1; stop-color:#AC6239"/>
  </linearGradient>
  <linearGradient id="id90" gradientUnits="userSpaceOnUse" xlink:href="#id4" x1="1040.52" y1="326.164" x2="1045.1" y2="332.7">
  </linearGradient>
  <linearGradient id="id91" gradientUnits="userSpaceOnUse" xlink:href="#id68" x1="779.939" y1="422.082" x2="924.387" y2="529.821">
  </linearGradient>
  <linearGradient id="id92" gradientUnits="userSpaceOnUse" xlink:href="#id48" x1="1127.84" y1="221.377" x2="1127.58" y2="221.614">
  </linearGradient>
  <linearGradient id="id93" gradientUnits="userSpaceOnUse" xlink:href="#id60" x1="964.348" y1="384.637" x2="970.308" y2="390.708">
  </linearGradient>
  <linearGradient id="id94" gradientUnits="userSpaceOnUse" xlink:href="#id78" x1="1184.6" y1="245.669" x2="1174.46" y2="254.913">
  </linearGradient>
  <linearGradient id="id95" gradientUnits="userSpaceOnUse" xlink:href="#id48" x1="1186.3" y1="244.125" x2="1172.76" y2="256.456">
  </linearGradient>
  <linearGradient id="id96" gradientUnits="userSpaceOnUse" xlink:href="#id2" x1="1133.07" y1="227.094" x2="1132.24" y2="227.873">
  </linearGradient>
  <linearGradient id="id97" gradientUnits="userSpaceOnUse" xlink:href="#id1" x1="961.364" y1="381.597" x2="973.293" y2="393.747">
  </linearGradient>
  <linearGradient id="id98" gradientUnits="userSpaceOnUse" x1="1240.28" y1="131.295" x2="1206.36" y2="164.114">
   <stop offset="0" style="stop-opacity:1; stop-color:#FCC390"/>
   <stop offset="1" style="stop-opacity:1; stop-color:#E89C53"/>
  </linearGradient>
  <linearGradient id="id99" gradientUnits="userSpaceOnUse" x1="686.372" y1="1152.94" x2="643.585" y2="1116.84">
   <stop offset="0" style="stop-opacity:1; stop-color:#F05F64"/>
   <stop offset="1" style="stop-opacity:1; stop-color:#FEFEFE"/>
  </linearGradient>
  <linearGradient id="id100" gradientUnits="userSpaceOnUse" xlink:href="#id33" x1="957.23" y1="392.397" x2="961.206" y2="396.452">
  </linearGradient>
  <linearGradient id="id101" gradientUnits="userSpaceOnUse" xlink:href="#id60" x1="1040.52" y1="326.164" x2="1045.1" y2="332.7">
  </linearGradient>
  <linearGradient id="id102" gradientUnits="userSpaceOnUse" xlink:href="#id14" x1="1035.95" y1="319.633" x2="1049.67" y2="339.231">
  </linearGradient>
  <linearGradient id="id103" gradientUnits="userSpaceOnUse" xlink:href="#id3" x1="1040.52" y1="326.164" x2="1045.1" y2="332.7">
  </linearGradient>
  <linearGradient id="id104" gradientUnits="userSpaceOnUse" xlink:href="#id9" x1="1178.28" y1="273.913" x2="1176.59" y2="275.669">
  </linearGradient>
  <linearGradient id="id105" gradientUnits="userSpaceOnUse" x1="919.135" y1="1170.67" x2="900.435" y2="1190.27">
   <stop offset="0" style="stop-opacity:1; stop-color:#F6AA34"/>
   <stop offset="1" style="stop-opacity:1; stop-color:#F8C337"/>
  </linearGradient>
  <linearGradient id="id106" gradientUnits="userSpaceOnUse" xlink:href="#id98" x1="1244.86" y1="138.263" x2="1211.25" y2="171.326">
  </linearGradient>
  <linearGradient id="id107" gradientUnits="userSpaceOnUse" xlink:href="#id30" x1="1177.72" y1="274.499" x2="1177.15" y2="275.082">
  </linearGradient>
  <linearGradient id="id108" gradientUnits="userSpaceOnUse" x1="1201.58" y1="287.779" x2="1200.69" y2="288.85">
   <stop offset="0" style="stop-opacity:1; stop-color:#DB9851"/>
   <stop offset="1" style="stop-opacity:1; stop-color:#DB9851"/>
  </linearGradient>
  <linearGradient id="id109" gradientUnits="userSpaceOnUse" xlink:href="#id60" x1="956.238" y1="391.389" x2="962.198" y2="397.46">
  </linearGradient>
  <linearGradient id="id110" gradientUnits="userSpaceOnUse" x1="1070.15" y1="519.51" x2="1117.75" y2="444.597">
   <stop offset="0" style="stop-opacity:1; stop-color:#D4C9E3"/>
   <stop offset="1" style="stop-opacity:1; stop-color:#6C3E92"/>
  </linearGradient>
  <linearGradient id="id111" gradientUnits="userSpaceOnUse" xlink:href="#id33" x1="1040.52" y1="326.164" x2="1045.1" y2="332.7">
  </linearGradient>
  <linearGradient id="id112" gradientUnits="userSpaceOnUse" x1="828.632" y1="845.254" x2="852.6" y2="863.301">
   <stop offset="0" style="stop-opacity:1; stop-color:#AD5C38"/>
   <stop offset="1" style="stop-opacity:1; stop-color:#7A3E3E"/>
  </linearGradient>
  <linearGradient id="id113" gradientUnits="userSpaceOnUse" xlink:href="#id50" x1="1294.43" y1="138.626" x2="1205.47" y2="208.956">
  </linearGradient>
  <linearGradient id="id114" gradientUnits="userSpaceOnUse" xlink:href="#id50" x1="1271.01" y1="112.543" x2="1185.1" y2="197.047">
  </linearGradient>
  <linearGradient id="id115" gradientUnits="userSpaceOnUse" xlink:href="#id48" x1="1132.8" y1="227.354" x2="1132.52" y2="227.614">
  </linearGradient>
  <linearGradient id="id116" gradientUnits="userSpaceOnUse" xlink:href="#id14" x1="963.352" y1="383.625" x2="971.304" y2="391.719">
  </linearGradient>
  <linearGradient id="id117" gradientUnits="userSpaceOnUse" xlink:href="#id7" x1="1166.06" y1="255.405" x2="1153.49" y2="267.413">
  </linearGradient>
  <linearGradient id="id118" gradientUnits="userSpaceOnUse" xlink:href="#id19" x1="1127.96" y1="221.263" x2="1127.46" y2="221.728">
  </linearGradient>
  <radialGradient id="id119" gradientUnits="userSpaceOnUse" gradientTransform="matrix(0.305422 -2.67005 -2.38331 0.294409 2722 4047)" cx="1314.96" cy="758.963" r="35.9054" fx="1314.96" fy="758.963">
   <stop offset="0" style="stop-opacity:1; stop-color:#FEFEFE"/>
   <stop offset="1" style="stop-opacity:1; stop-color:#36ACE2"/>
  </radialGradient>
  <radialGradient id="id120" gradientUnits="userSpaceOnUse" gradientTransform="matrix(-0.761605 2.211 2.21114 0.761653 -1531 -141)" cx="151.22" cy="812.998" r="14.4803" fx="151.22" fy="812.998">
   <stop offset="0" style="stop-opacity:1; stop-color:#975B4A"/>
   <stop offset="1" style="stop-opacity:1; stop-color:#5F3C3B"/>
  </radialGradient>
  <radialGradient id="id121" gradientUnits="userSpaceOnUse" gradientTransform="matrix(1.59389 0.225758 0.0504662 -1.49046 -747 1941)" cx="1182.93" cy="886.742" r="71.9644" fx="1182.93" fy="886.742">
   <stop offset="0" style="stop-opacity:1; stop-color:#249751"/>
   <stop offset="1" style="stop-opacity:1; stop-color:#286F45"/>
  </radialGradient>
  <radialGradient id="id122" gradientUnits="userSpaceOnUse" gradientTransform="matrix(8.18636E-017 -1.33693 1.33693 8.18636E-017 -247 1090)" cx="434.44" cy="509.581" r="317.031" fx="434.44" fy="509.581">
   <stop offset="0" style="stop-opacity:1; stop-color:#FDF2E7"/>
   <stop offset="1" style="stop-opacity:1; stop-color:#8EEF82"/>
  </radialGradient>
  <radialGradient id="id123" gradientUnits="userSpaceOnUse" gradientTransform="matrix(2.8312 -0.475184 -0.35616 -2.86789 -1871 4423)" cx="1215.13" cy="994.112" r="20.7283" fx="1215.13" fy="994.112">
   <stop offset="0" style="stop-opacity:1; stop-color:#4E9472"/>
   <stop offset="1" style="stop-opacity:1; stop-color:#34805A"/>
  </radialGradient>
  <radialGradient id="id124" gradientUnits="userSpaceOnUse" gradientTransform="matrix(2.7436 -0.460482 -0.34514 -2.77916 -1776 4316)" cx="1215.13" cy="994.112" r="16.7401" fx="1215.13" fy="994.112">
   <stop offset="0" style="stop-opacity:1; stop-color:#FEFEFE"/>
   <stop offset="1" style="stop-opacity:1; stop-color:#4E9472"/>
  </radialGradient>
  <radialGradient id="id125" gradientUnits="userSpaceOnUse" gradientTransform="matrix(1.25126 -1.3755 -1.37543 -1.25119 694 3259)" xlink:href="#id119" cx="1188.64" cy="721.388" r="51.3581" fx="1188.64" fy="721.388">
  </radialGradient>
  <radialGradient id="id126" gradientUnits="userSpaceOnUse" gradientTransform="matrix(1.46874 -1.60262 -1.6279 -1.47906 571 3799)" cx="1264.62" cy="714.86" r="25.3385" fx="1264.62" fy="714.86">
   <stop offset="0" style="stop-opacity:1; stop-color:#358CCA"/>
   <stop offset="1" style="stop-opacity:1; stop-color:#307ABD"/>
  </radialGradient>
  <radialGradient id="id127" gradientUnits="userSpaceOnUse" gradientTransform="matrix(2.26705 -0.0889413 -0.225259 -2.21349 -1258 2922)" cx="1148.81" cy="877.407" r="65.0825" fx="1148.81" fy="877.407">
   <stop offset="0" style="stop-opacity:1; stop-color:#FEFEFE"/>
   <stop offset="1" style="stop-opacity:1; stop-color:#286F45"/>
  </radialGradient>
  <radialGradient id="id128" gradientUnits="userSpaceOnUse" gradientTransform="matrix(0.876727 2.08542 2.08377 -1.06013 -1884 -168)" cx="1034.39" cy="965.505" r="42.9251" fx="1034.39" fy="965.505">
   <stop offset="0" style="stop-opacity:1; stop-color:#FEFEFE"/>
   <stop offset="1" style="stop-opacity:1; stop-color:#F9F071"/>
  </radialGradient>
 </defs>
 <g id="__x0023_Layer_x0020_1">
  <metadata id="CorelCorpID_0Corel-Layer"/>
  <path class="fil0 str0" d="M735 1c-405,0 -734,329 -734,734 0,405 329,733 734,733 405,0 733,-328 733,-733 0,-405 -328,-734 -733,-734z"/>
  <path class="fil1" d="M305 1563c0,-3 0,-5 0,-7 0,-2 1,-4 2,-6 0,-2 2,-3 3,-4 1,-2 3,-2 6,-3 2,0 5,-1 8,0 2,0 5,0 8,0 3,0 7,0 10,0 4,0 7,0 10,2 1,0 2,0 2,1 1,1 1,2 1,3 0,1 0,2 0,3 -1,1 -1,2 -1,3l0 7c0,2 0,4 1,7 0,10 -1,19 -2,29 -1,10 -1,19 -1,29 -2,25 -2,51 -1,76 0,2 1,3 2,4 1,1 2,2 4,3 1,1 3,1 5,2 1,0 3,0 4,0l2 0 0 33 -9 0c-4,0 -8,1 -11,1 -3,0 -6,0 -9,0 -3,0 -6,0 -9,0 -3,1 -7,1 -10,0 -2,0 -4,0 -6,0 -2,0 -4,-1 -6,-2 -1,0 -2,-1 -2,-2l0 -4c1,-2 1,-5 1,-8 0,-3 0,-6 1,-10 0,-8 0,-16 0,-24 0,-8 0,-16 -1,-24 0,-10 -1,-20 -1,-29 0,-10 0,-19 -1,-29 0,-9 0,-17 0,-26 0,-8 0,-17 0,-25z"/>
  <path id="1" class="fil1" d="M367 1745l0 -36 9 0c2,-1 4,-2 5,-4 1,-1 2,-3 2,-6 -1,-5 -1,-11 -1,-16 0,-5 0,-10 0,-15 -1,-5 -1,-10 -1,-16 0,-5 -1,-10 -2,-16 0,-1 -1,-4 -2,-7 -1,-3 -1,-5 -1,-8 0,-3 1,-5 2,-7 1,-2 3,-3 6,-3 1,0 2,0 3,0 0,0 0,0 0,0 0,0 -1,0 -1,0 -1,0 -2,0 -2,0 9,0 18,1 28,2 2,0 5,0 7,0 2,0 5,0 6,1 2,0 4,1 5,3 1,1 2,4 1,7 0,8 0,17 0,26 -1,8 -1,17 -2,26 0,2 0,5 0,7 0,3 0,6 0,8 0,3 -1,6 -1,8 0,3 -1,6 -1,8 1,1 4,2 6,2l5 0 0 36 -5 0c-3,0 -5,0 -7,-1 -2,-2 -4,-3 -5,-5 -2,-2 -3,-4 -4,-6 -1,-3 -2,-5 -3,-7 -1,1 -2,2 -3,3 -1,1 -2,2 -3,4 -2,2 -4,4 -6,7 -2,2 -5,4 -7,6 -1,0 -2,0 -3,0 0,0 -1,0 -2,0 -1,-1 -2,-1 -3,-1 -1,0 -2,0 -2,0l-9 0 -9 0zm19 -171c0,-3 1,-6 1,-9 1,-3 1,-6 1,-9 0,-1 1,-2 1,-3 0,-2 1,-3 1,-5 1,-1 2,-2 3,-3 1,-1 2,-1 3,-1l1 0 -1 0c2,0 4,0 5,-1 2,0 4,0 5,0 2,0 4,0 5,1 2,0 3,1 4,3 2,2 4,4 4,7 1,3 2,6 3,9 0,2 0,3 0,5 1,2 1,4 1,5 1,2 1,3 1,4 0,1 0,2 0,4 0,1 -1,2 -2,3 -1,1 -2,1 -4,2 -1,0 -1,0 -1,-1 0,0 -1,0 -1,0 -1,0 -2,0 -2,0 -1,0 -2,0 -2,0 -3,0 -6,1 -10,1 -3,1 -7,1 -9,0 -3,0 -5,-2 -6,-5 0,0 -1,-2 -1,-3 0,-2 0,-3 0,-4zm9 -30l1 0 -1 0zm1 0l0 0 0 0zm0 0l0 0 0 0zm0 0l0 0 0 0zm1 0l0 0 0 0z"/>
  <path id="2" class="fil1" d="M441 1745l0 -36 3 0 31 2 4 0c2,0 5,0 7,0 2,0 5,0 7,-1 0,0 0,0 -1,0 -1,-3 -3,-6 -4,-8 -2,-3 -4,-6 -5,-9 -3,-5 -5,-9 -8,-14 -2,-5 -5,-9 -8,-14 -1,-4 -3,-7 -5,-10 -2,-4 -3,-7 -5,-10 -1,-3 -3,-5 -4,-8 -2,-2 -3,-5 -4,-8 -1,-2 -1,-4 -1,-5 0,-2 1,-4 1,-6l0 0 0 0c0,-2 1,-3 2,-4 1,-1 3,-1 5,-2 1,0 3,-1 5,-1 1,0 3,-1 4,-1 2,-1 4,-1 7,-2l7 -1c6,-1 11,-3 17,-4 5,-1 10,-2 16,-2 3,0 5,0 8,0 2,1 5,2 7,2 3,1 6,2 8,3 3,1 5,2 8,2 3,1 6,2 9,3 3,0 6,2 9,3 1,1 1,2 2,3 1,1 1,3 1,4 1,1 1,3 1,4 0,1 0,3 0,4 0,0 -1,1 -1,2 -1,1 -1,2 -2,4 0,1 -1,2 -1,4 0,1 -1,2 -1,3 -1,3 -2,6 -3,9 -1,3 -2,6 -3,9 -3,6 -5,11 -8,17 -2,5 -4,11 -7,16 -1,3 -2,5 -2,8 -1,3 -2,5 -2,8 0,0 0,0 0,0l34 0 3 0 0 36 -3 0 -25 -1c-2,0 -5,0 -7,0 -2,0 -5,-1 -7,-1 -2,-1 -4,-2 -6,-3 -1,-1 -3,-3 -4,-5 0,-1 -1,-3 -1,-4 -1,-1 -1,-2 -2,-3 -1,0 -1,0 -2,0l0 0c-1,3 -3,6 -4,9 -1,2 -3,4 -6,6 -3,1 -6,2 -10,2 -3,0 -6,0 -9,0 -5,0 -9,0 -13,0l-13 0 -9 0c0,0 -1,0 -1,0 0,0 -1,0 -1,0l-5 0 -3 0zm8 -126l0 0 0 0zm0 0l0 -1 0 1zm0 -1l0 0 0 0z"/>
  <path id="3" class="fil1" d="M572 1745l0 -36 11 0c1,-1 2,-2 2,-3 1,-1 1,-2 1,-3 0,-1 0,-3 0,-4 -1,-2 -1,-3 -1,-4 0,-1 -1,-3 -1,-4 0,-5 -1,-11 -1,-16 0,-6 0,-11 0,-17 0,-2 -1,-5 -1,-7 -1,-3 -1,-6 -1,-8 0,-3 0,-5 0,-8 0,-2 0,-4 0,-7 0,-2 0,-5 -1,-8 0,-2 0,-5 0,-7 0,-3 1,-5 3,-7 1,-1 4,-2 7,-2 5,-1 11,-1 16,-1 5,-1 10,-1 15,-1 3,0 6,0 9,1 3,0 6,0 9,0 3,1 5,1 7,0 3,0 5,0 7,0 6,0 11,0 16,0 6,0 11,1 16,2 2,0 3,0 4,0 2,0 3,0 5,0 1,0 3,0 4,1 1,0 2,1 3,2 1,1 2,2 2,3 1,1 1,2 1,4 0,1 0,2 0,4 0,1 0,2 0,3 1,5 0,10 0,15 -1,5 -1,10 -2,15 0,3 0,5 0,8 -1,2 -1,5 -1,8 0,2 -1,11 -3,26 -1,15 -2,23 -2,24 -1,4 -1,3 0,-2 0,-5 0,-4 0,1 0,2 0,5 0,7 0,3 0,6 0,9 0,2 -1,5 -2,7 -1,2 -3,4 -6,5 -2,1 -5,1 -8,1 -3,-1 -5,-1 -8,-1 -2,0 -5,-1 -8,-1 -3,1 -5,1 -8,1 -3,0 -5,0 -8,0 -2,0 -5,0 -8,0 -2,0 -5,0 -7,0 -3,-1 -5,-1 -8,0 -3,0 -6,0 -9,0 -3,1 -6,1 -10,1 -1,0 -2,0 -4,0 -1,-1 -2,-1 -4,-1l0 0 -10 0c-2,1 -5,1 -7,1 -3,0 -5,0 -7,-1l-2 0zm45 -94c0,2 0,4 1,6 0,2 0,4 0,6 1,5 1,11 1,16 0,5 0,10 1,15 0,2 0,4 1,7 0,2 0,4 0,6 0,1 0,2 1,3 0,2 0,3 0,4 1,1 1,2 2,3 1,1 2,1 3,1 2,0 4,0 7,0 3,0 6,-1 8,-1 3,-1 5,-1 6,-3 2,-1 3,-4 3,-7 0,-5 0,-10 -1,-14 0,-5 0,-10 1,-15 0,-5 0,-10 1,-16 0,-5 0,-10 0,-15 1,-3 1,-5 1,-8 0,-2 0,-5 -1,-7 -1,-3 -2,-4 -4,-4 -2,-1 -4,-1 -7,-1 -2,0 -5,0 -8,0 -3,0 -5,0 -8,0 -3,0 -4,2 -6,4 -1,2 -1,4 -1,6 0,3 0,5 0,7 -1,2 -1,4 -1,7zm9 67l1 0 -1 0zm1 -2l0 0 0 0zm0 0l1 0 -1 0zm1 0l0 0 0 0z"/>
  <path id="4" class="fil1" d="M771 1658c0,-2 0,-3 0,-5 0,-1 0,-2 1,-3 0,-2 1,-3 2,-4 2,-1 4,-2 7,-2 3,0 5,0 7,0 6,-1 11,-1 16,-1 6,0 11,0 17,0 1,0 1,0 2,0 1,0 2,1 2,1 1,1 1,2 2,3 0,1 0,2 1,4 0,2 0,5 -1,7 0,3 0,5 0,8 -1,5 -1,10 -2,15 0,6 0,11 -1,16 0,6 0,11 0,16 0,6 0,11 0,16 0,3 0,6 0,9 0,2 0,5 0,8 0,1 0,2 0,4 0,1 0,2 0,4 0,1 1,2 1,3 0,2 0,3 1,4 1,1 1,1 2,2 1,0 2,1 3,1 1,0 2,0 3,0 1,-1 3,-1 4,0 2,0 5,0 7,0 2,0 4,0 6,0 4,0 7,0 10,0 3,-1 6,-1 9,-1 3,0 5,0 8,0 2,0 5,0 7,0 3,0 5,-1 7,-3 1,-1 3,-3 4,-5 1,-2 2,-4 3,-6 1,-2 2,-4 2,-6 2,-7 4,-13 5,-19 1,-7 1,-13 1,-20 0,-7 0,-14 -2,-20 -1,-6 -2,-13 -4,-20 0,-2 -1,-4 -1,-5 0,-2 -1,-3 -2,-5 0,-1 0,-2 0,-3 0,-2 0,-3 0,-4 0,-1 1,-1 1,-2 1,-1 2,-1 3,-1l-2 0 2 0 1 0 -1 0c1,0 3,0 5,1 1,0 3,0 4,0 1,0 3,0 4,0 2,0 4,0 5,0 3,-1 5,-1 8,0 3,0 6,0 8,0 2,0 4,0 5,0 2,1 3,1 4,2 2,0 3,1 4,2 1,1 2,2 2,4 1,1 1,3 2,5 0,2 0,4 1,5 0,7 1,13 2,19 0,6 1,13 1,19 0,6 -1,13 -2,19 -1,6 -3,12 -5,18 -2,6 -4,11 -7,16 -2,6 -5,11 -8,16 -1,2 -3,4 -5,6 -2,2 -4,3 -6,5 -2,1 -4,3 -7,4 -2,0 -5,1 -7,2 -3,1 -6,1 -9,0 -3,0 -6,0 -9,0 -2,0 -5,0 -7,0 -2,0 -5,0 -7,0 -5,-1 -11,-1 -16,0 -6,0 -11,0 -17,0 -5,-1 -10,-1 -14,-1 -4,0 -9,0 -13,0 -2,-1 -5,-1 -8,-1 -2,0 -5,0 -8,0 -2,0 -4,1 -7,1 -2,0 -4,0 -7,0 -1,0 -3,-1 -4,-2 -1,-1 -2,-2 -2,-4 -1,-1 -1,-2 -1,-4 0,-2 -1,-3 -1,-4l-1 -15c0,-5 -1,-10 -1,-15 0,-5 -1,-10 -1,-15 -1,-6 -1,-11 -2,-16 0,-6 0,-11 0,-17 0,-5 0,-11 -1,-16 -1,-6 -1,-11 -2,-16 0,-2 0,-3 -1,-4zm75 42c-1,-1 -1,-2 -1,-3 0,-1 0,-2 0,-4 0,-1 0,-2 0,-4 1,-1 1,-3 1,-5l0 -5c0,-1 0,-3 -1,-4 0,-2 1,-3 1,-5 1,0 1,-1 1,-3 1,-1 1,-3 1,-4 1,-1 1,-2 2,-3 1,-1 2,-2 3,-2 2,0 3,0 5,0 1,0 3,0 4,0 2,0 3,1 5,1 1,1 2,1 3,2 1,1 2,3 3,4 0,1 1,3 1,4 1,2 1,3 1,5 0,1 0,3 1,4 0,3 1,6 2,10 0,3 0,6 0,9 0,2 -1,3 -2,4 0,0 -1,1 -2,1 -1,0 -2,1 -3,1 -2,0 -3,0 -4,0 -1,0 -3,0 -4,0 -2,0 -3,1 -5,1 -2,0 -3,0 -5,0 -1,0 -3,-1 -4,-1 -1,-1 -2,-1 -3,-3zm6 -42l1 0 -1 0zm1 0l0 0 0 0zm0 0l0 0 0 0zm0 0l0 1 0 -1zm1 0l0 0 0 0zm0 0l0 0 0 0z"/>
  <path id="5" class="fil1" d="M976 1664c0,-6 0,-11 1,-17 0,-5 1,-11 2,-17 1,-2 1,-5 2,-8 0,-2 1,-5 1,-8 1,-2 3,-5 4,-7 2,-2 4,-3 7,-4 5,-2 11,-3 16,-3 6,0 12,0 17,0 5,-1 10,-1 15,-1 5,0 10,-1 15,-1 2,0 5,0 8,1 2,1 5,2 8,3 2,1 4,2 7,2 2,1 4,2 6,3 3,1 5,2 8,3 3,1 5,2 8,4 2,1 4,3 6,5 1,2 2,5 2,8 0,9 1,18 1,27 0,10 0,19 -1,28 0,5 0,10 0,15 0,5 0,9 0,14l10 0 0 34 -10 0c0,1 0,2 0,3 0,1 0,2 0,2 -1,4 -1,7 -2,10 0,3 -1,7 -3,10 -1,3 -2,5 -4,8 -2,3 -5,5 -7,7 -4,2 -7,5 -10,7 -3,1 -6,3 -9,6 -3,1 -5,3 -8,5 -3,2 -5,3 -9,4 -3,1 -6,2 -9,3 -3,0 -6,1 -9,1 -3,1 -7,1 -10,1 -3,0 -6,0 -10,0 -6,0 -11,-2 -17,-6 -5,-3 -9,-8 -12,-13 0,-2 -1,-4 -1,-6 -1,-2 -2,-4 -2,-7 0,-2 0,-4 0,-6 0,-2 1,-4 3,-5 0,-1 1,-1 2,-1 1,0 3,0 4,0 1,1 2,1 3,2 1,0 2,1 3,1 2,1 5,2 7,3 3,1 6,2 8,2 3,1 6,2 9,2 3,1 6,1 10,1 3,1 6,0 9,0 3,-1 6,-2 8,-3 2,-1 4,-2 5,-3 2,-1 3,-2 5,-4 0,0 1,-1 2,-1 0,-1 0,-1 0,-3 1,0 1,-1 1,-1l0 -3c-1,-2 -1,-4 -1,-6 -1,-2 -1,-4 -2,-6 0,0 0,-1 0,-1 0,-1 0,-1 0,-2l-11 0c-3,0 -7,0 -10,0 -8,0 -15,-1 -21,-1 -3,0 -6,1 -9,1 -3,0 -6,0 -9,-1 -3,-1 -5,-3 -7,-5 -3,-1 -5,-3 -7,-5 -2,-1 -3,-2 -5,-3 -1,-2 -2,-3 -3,-5 -1,-2 -2,-4 -3,-7 -1,-3 -1,-5 -1,-8 0,-2 -1,-5 -1,-8 0,-2 1,-5 1,-8 0,-5 0,-10 -1,-16 0,-5 0,-10 0,-16zm33 -27c0,2 0,3 0,4 0,2 0,3 0,5 1,1 1,3 1,4 0,3 0,5 0,8 0,3 0,6 0,8 1,5 1,11 1,16 0,5 0,10 0,15 0,1 0,3 0,4 1,2 1,3 2,4 1,1 1,2 3,3 1,1 2,1 4,1 2,0 5,0 7,0 2,0 5,0 7,0 9,0 17,0 26,1 -1,-5 -1,-9 -2,-13 0,-4 -1,-8 -1,-12 0,-5 0,-11 0,-16 -1,-5 -1,-10 -2,-16 0,-2 0,-5 -1,-7 0,-3 0,-6 -1,-8 0,-2 -1,-3 -2,-4 0,-1 -1,-2 -3,-3 -1,0 -2,-1 -3,-1 -2,0 -3,0 -5,0l-14 0c-1,0 -3,0 -4,0 -1,0 -3,0 -4,0 -1,0 -3,0 -4,1 -1,0 -2,1 -3,3 -1,1 -1,2 -2,3zm100 -10l0 -1 0 1zm0 -1l0 0 0 0z"/>
  <path id="6" class="fil1" d="M1119 1745l0 -36 10 0 0 0 4 0 1 0 0 0c1,0 2,0 2,0 1,0 1,0 1,0 1,0 1,0 1,0 0,0 1,0 1,-1 1,0 2,-1 3,-2 0,-1 0,-3 0,-4 0,-1 0,-3 0,-4 0,-1 -1,-2 -1,-3 0,-3 -1,-6 -1,-9 0,-3 0,-6 0,-8l-1 -15c0,-5 -1,-9 -1,-14 -1,-6 -1,-11 -2,-16 0,-6 -1,-11 -1,-16 0,-6 0,-11 -1,-16 -1,-6 -1,-11 -2,-17 0,-5 -1,-9 -1,-14 -1,-5 -1,-9 -2,-14 0,-2 0,-3 0,-5 0,-1 1,-2 1,-3 1,-2 2,-3 3,-3 1,-1 2,-1 4,-1 2,0 5,0 7,0l8 0c3,0 5,0 8,0 3,0 6,0 9,0 2,0 4,0 7,-1 2,0 5,0 7,1 1,1 2,2 3,3 0,1 1,2 1,3 0,2 0,3 0,4 0,2 0,3 0,4 0,3 0,6 0,8 -1,3 -1,5 -1,8 0,5 -1,10 -1,15 0,5 0,10 0,15 0,11 -1,21 -1,32 -1,11 -1,22 -2,32 0,5 -1,10 -1,15 0,5 -1,10 -1,15 0,3 -1,6 -1,8 0,3 -1,6 -1,9 -1,3 -2,5 -4,7 -1,2 -3,4 -4,7 -2,2 -3,4 -5,6 -1,2 -3,4 -5,6 -3,1 -5,2 -8,2 -2,1 -5,1 -8,1 0,0 0,0 0,0 0,0 0,0 1,0 0,0 0,0 0,0 0,0 0,0 -1,0l-6 0 -6 1 -4 0 0 0 -9 0z"/>
  <path class="fil2" d="M305 1533c0,-3 0,-5 0,-7 0,-2 1,-4 2,-6 0,-2 2,-3 3,-4 1,-2 3,-2 6,-3 2,0 5,-1 8,0 2,0 5,0 8,0 3,0 7,0 10,0 4,0 7,0 10,2 1,0 2,0 2,1 1,1 1,2 1,3 0,1 0,2 0,3 -1,1 -1,2 -1,3l0 7c0,2 0,4 1,7 0,10 -1,19 -2,29 -1,10 -1,19 -1,29 -2,25 -2,51 -1,76 0,2 1,3 2,4 1,1 2,2 4,3 1,1 3,1 5,2 1,0 3,0 4,0l2 0 0 33 -9 0c-4,0 -8,1 -11,1 -3,0 -6,0 -9,0 -3,0 -6,0 -9,0 -3,1 -7,1 -10,0 -2,0 -4,0 -6,0 -2,0 -4,-1 -6,-2 -1,0 -2,-1 -2,-2l0 -4c1,-2 1,-5 1,-8 0,-3 0,-7 1,-10 0,-8 0,-16 0,-24 0,-8 0,-16 -1,-24 0,-10 -1,-20 -1,-29 0,-10 0,-19 -1,-29 0,-9 0,-17 0,-26 0,-8 0,-17 0,-25z"/>
  <path id="1" class="fil2" d="M367 1715l0 -36 9 0c2,-1 4,-2 5,-4 1,-1 2,-3 2,-6 -1,-5 -1,-11 -1,-16 0,-5 0,-10 0,-15 -1,-5 -1,-10 -1,-16 0,-5 -1,-10 -2,-16 0,-1 -1,-4 -2,-7 -1,-3 -1,-5 -1,-8 0,-3 1,-5 2,-7 1,-2 3,-3 6,-3 1,0 2,0 3,0 0,0 0,0 0,0 0,0 -1,0 -1,0 -1,0 -2,0 -2,0 9,0 18,1 28,2 2,0 5,0 7,0 2,0 5,0 6,1 2,0 4,1 5,3 1,1 2,4 1,7 0,8 0,17 0,26 -1,8 -1,17 -2,26 0,2 0,5 0,7 0,3 0,6 0,8 0,3 -1,6 -1,8 0,3 -1,6 -1,8 1,1 4,2 6,2l5 0 0 36 -5 0c-3,0 -5,0 -7,-1 -2,-2 -4,-3 -5,-5 -2,-2 -3,-4 -4,-6 -1,-3 -2,-5 -3,-7 -1,1 -2,2 -3,3 -1,1 -2,2 -3,4 -2,2 -4,4 -6,7 -2,2 -5,4 -7,6 -1,0 -2,0 -3,0 0,0 -1,0 -2,0 -1,-1 -2,-1 -3,-1 -1,0 -2,0 -2,0l-9 0 -9 0zm19 -171c0,-3 1,-6 1,-9 1,-3 1,-6 1,-9 0,-1 1,-2 1,-3 0,-2 1,-3 1,-5 1,-1 2,-2 3,-3 1,-1 2,-1 3,-1l1 0 -1 0c2,0 4,0 5,-1 2,0 4,0 5,0 2,0 4,0 5,1 2,0 3,1 4,3 2,2 4,4 4,7 1,3 2,6 3,9 0,2 0,3 0,5 1,2 1,4 1,5 1,2 1,3 1,4 0,1 0,2 0,4 0,1 -1,2 -2,3 -1,1 -2,1 -4,2 -1,0 -1,0 -1,-1 0,0 -1,0 -1,0 -1,0 -2,0 -2,0 -1,0 -2,0 -2,0 -3,0 -6,1 -10,1 -3,1 -7,1 -9,0 -3,0 -5,-2 -6,-5 0,0 -1,-2 -1,-3 0,-2 0,-3 0,-4zm9 -30l1 0 -1 0zm1 0l0 0 0 0zm0 0l0 0 0 0zm0 0l0 0 0 0zm1 0l0 0 0 0z"/>
  <path id="2" class="fil2" d="M441 1715l0 -36 3 0 31 2 4 0c2,0 5,0 7,0 2,0 5,0 7,-1 0,0 0,0 -1,0 -1,-3 -3,-6 -4,-8 -2,-3 -4,-6 -5,-9 -3,-5 -5,-9 -8,-14 -2,-5 -5,-9 -8,-14 -1,-4 -3,-7 -5,-10 -2,-4 -3,-7 -5,-10 -1,-3 -3,-5 -4,-8 -2,-2 -3,-5 -4,-8 -1,-2 -1,-4 -1,-5 0,-2 1,-4 1,-6l0 0 0 0c0,-2 1,-3 2,-4 1,-1 3,-1 5,-2 1,0 3,-1 5,-1 1,0 3,-1 4,-1 2,-1 4,-1 7,-2l7 -1c6,-1 11,-3 17,-4 5,-1 10,-2 16,-2 3,0 5,0 8,0 2,1 5,2 7,2 3,1 6,2 8,3 3,1 5,2 8,2 3,1 6,2 9,3 3,0 6,2 9,3 1,1 1,2 2,3 1,1 1,3 1,4 1,1 1,3 1,4 0,1 0,3 0,4 0,0 -1,1 -1,2 -1,1 -1,2 -2,4 0,1 -1,2 -1,4 0,1 -1,2 -1,3 -1,3 -2,6 -3,9 -1,3 -2,6 -3,9 -3,6 -5,11 -8,17 -2,5 -4,11 -7,16 -1,3 -2,5 -2,8 -1,3 -2,5 -2,8 0,0 0,0 0,0l34 0 3 0 0 36 -3 0 -25 -1c-2,0 -5,0 -7,0 -2,0 -5,-1 -7,-1 -2,-1 -4,-2 -6,-3 -1,-1 -3,-3 -4,-5 0,-1 -1,-3 -1,-4 -1,-1 -1,-2 -2,-3 -1,0 -1,0 -2,0l0 0c-1,3 -3,6 -4,9 -1,2 -3,4 -6,6 -3,1 -6,2 -10,2 -3,0 -6,0 -9,0 -5,0 -9,0 -13,0l-13 0 -9 0c0,0 -1,0 -1,0 0,0 -1,0 -1,0l-5 0 -3 0zm8 -126l0 0 0 0zm0 0l0 -1 0 1zm0 -1l0 0 0 0z"/>
  <path id="3" class="fil2" d="M572 1715l0 -36 11 0c1,-1 2,-2 2,-3 1,-1 1,-2 1,-3 0,-1 0,-3 0,-4 -1,-2 -1,-3 -1,-4 0,-1 -1,-3 -1,-4 0,-5 -1,-11 -1,-16 0,-6 0,-11 0,-17 0,-2 -1,-5 -1,-7 -1,-3 -1,-6 -1,-8 0,-3 0,-5 0,-8 0,-2 0,-4 0,-7 0,-2 0,-5 -1,-8 0,-2 0,-5 0,-7 0,-3 1,-5 3,-7 1,-1 4,-2 7,-2 5,-1 11,-1 16,-1 5,-1 10,-1 15,-1 3,0 6,0 9,1 3,0 6,0 9,0 3,1 5,1 7,0 3,0 5,0 7,0 6,0 11,0 16,0 6,0 11,1 16,2 2,0 3,0 4,0 2,0 3,0 5,0 1,0 3,0 4,1 1,0 2,1 3,2 1,1 2,2 2,3 1,1 1,2 1,4 0,1 0,2 0,4 0,1 0,2 0,3 1,5 0,10 0,15 -1,5 -1,10 -2,15 0,3 0,5 0,8 -1,2 -1,5 -1,8 0,2 -1,11 -3,26 -1,15 -2,23 -2,24 -1,4 -1,3 0,-2 0,-5 0,-4 0,1 0,2 0,5 0,7 0,3 0,6 0,9 0,2 -1,5 -2,7 -1,2 -3,4 -6,5 -2,1 -5,1 -8,1 -3,-1 -5,-1 -8,-1 -2,0 -5,-1 -8,-1 -3,1 -5,1 -8,1 -3,0 -5,0 -8,0 -2,0 -5,0 -8,0 -2,0 -5,0 -7,0 -3,-1 -5,-1 -8,0 -3,0 -6,0 -9,0 -3,1 -6,1 -10,1 -1,0 -2,0 -4,0 -1,-1 -2,-1 -4,-1l0 0 -10 0c-2,1 -5,1 -7,1 -3,0 -5,0 -7,-1l-2 0zm45 -94c0,2 0,4 1,6 0,2 0,4 0,6 1,5 1,11 1,16 0,5 0,10 1,15 0,2 0,4 1,7 0,2 0,4 0,6 0,1 0,2 1,3 0,2 0,3 0,4 1,1 1,2 2,3 1,1 2,1 3,1 2,0 4,0 7,0 3,0 6,-1 8,-1 3,-1 5,-1 6,-3 2,-1 3,-4 3,-7 0,-5 0,-10 -1,-15 0,-4 0,-9 1,-14 0,-5 0,-10 1,-16 0,-5 0,-10 0,-15 1,-3 1,-5 1,-8 0,-2 0,-5 -1,-7 -1,-3 -2,-4 -4,-4 -2,-1 -4,-1 -7,-1 -2,0 -5,0 -8,0 -3,0 -5,0 -8,0 -3,0 -4,2 -6,4 -1,2 -1,4 -1,6 0,3 0,5 0,7 -1,2 -1,4 -1,7zm9 67l1 0 -1 0zm1 -2l0 0 0 0zm0 0l1 0 -1 0zm1 0l0 0 0 0z"/>
  <path id="4" class="fil2" d="M771 1628c0,-2 0,-3 0,-5 0,-1 0,-2 1,-3 0,-2 1,-3 2,-4 2,-1 4,-2 7,-2 3,0 5,0 7,0 6,-1 11,-1 16,-1 6,0 11,0 17,0 1,0 1,0 2,0 1,0 2,1 2,1 1,1 1,2 2,3 0,1 0,2 1,4 0,2 0,5 -1,7 0,3 0,5 0,8 -1,5 -1,10 -2,15 0,6 0,11 -1,16 0,6 0,11 0,16 0,6 0,11 0,16 0,3 0,6 0,9 0,2 0,5 0,8 0,1 0,2 0,4 0,1 0,2 0,4 0,1 1,2 1,3 0,2 0,3 1,4 1,1 1,1 2,2 1,0 2,1 3,1 1,0 2,0 3,0 1,-1 3,-1 4,0 2,0 5,0 7,0 2,0 4,0 6,0 4,0 7,0 10,0 3,-1 6,-1 9,-1 3,0 5,0 8,0 2,0 5,0 7,0 3,0 5,-1 7,-3 1,-1 3,-3 4,-5 1,-2 2,-4 3,-6 1,-2 2,-4 2,-6 2,-7 4,-13 5,-19 1,-7 1,-13 1,-20 0,-7 0,-14 -2,-20 -1,-6 -2,-13 -4,-20 0,-2 -1,-4 -1,-5 0,-2 -1,-3 -2,-5 0,-1 0,-2 0,-3 0,-2 0,-3 0,-4 0,-1 1,-1 1,-2 1,-1 2,-1 3,-1l-2 0 2 0 1 0 -1 0c1,0 3,0 5,1 1,0 3,0 4,0 1,0 3,0 4,0 2,0 4,0 5,0 3,-1 5,-1 8,0 3,0 6,0 8,0 2,0 4,0 5,0 2,1 3,1 4,2 2,0 3,1 4,2 1,1 2,2 2,4 1,1 1,3 2,5 0,2 0,4 1,5 0,7 1,13 2,19 0,6 1,13 1,19 0,6 -1,13 -2,19 -1,6 -3,12 -5,18 -2,6 -4,11 -7,16 -2,6 -5,11 -8,16 -1,2 -3,4 -5,6 -2,2 -4,3 -6,5 -2,1 -4,3 -7,4 -2,0 -5,1 -7,2 -3,0 -6,1 -9,0 -3,0 -6,0 -9,0 -2,0 -5,0 -7,0 -2,0 -5,0 -7,0 -5,-1 -11,-1 -16,0 -6,0 -11,0 -17,0 -5,-1 -10,-1 -14,-1 -4,0 -9,0 -13,0 -2,-1 -5,-1 -8,-1 -2,0 -5,0 -8,0 -2,0 -4,1 -7,1 -2,0 -4,0 -7,0 -1,0 -3,-1 -4,-2 -1,-1 -2,-2 -2,-4 -1,-1 -1,-2 -1,-4 0,-2 -1,-3 -1,-4l-1 -15c0,-5 -1,-10 -1,-15 0,-5 -1,-10 -1,-15 -1,-6 -1,-11 -2,-16 0,-6 0,-11 0,-17 0,-5 0,-11 -1,-16 -1,-6 -1,-11 -2,-16 0,-2 0,-3 -1,-4zm75 42c-1,-1 -1,-2 -1,-3 0,-1 0,-2 0,-4 0,-1 0,-3 0,-4 1,-1 1,-3 1,-5l0 -5c0,-1 0,-3 -1,-4 0,-2 1,-3 1,-5 1,0 1,-1 1,-3 1,-1 1,-3 1,-4 1,-1 1,-2 2,-4 1,-1 2,-1 3,-1 2,0 3,0 5,0 1,0 3,0 4,0 2,0 3,1 5,1 1,1 2,1 3,2 1,1 2,3 3,4 0,1 1,3 1,4 1,2 1,3 1,5 0,1 0,3 1,4 0,3 1,6 2,10 0,3 0,6 0,9 0,2 -1,3 -2,4 0,0 -1,1 -2,1 -1,0 -2,1 -3,1 -2,0 -3,0 -4,0 -1,0 -3,0 -4,0 -2,0 -3,1 -5,1 -2,0 -3,0 -5,0 -1,0 -3,-1 -4,-1 -1,-1 -2,-1 -3,-3zm6 -42l1 0 -1 0zm1 0l0 0 0 0zm0 0l0 0 0 0zm0 0l0 0 0 0zm1 0l0 0 0 0zm0 0l0 0 0 0z"/>
  <path id="5" class="fil2" d="M976 1634c0,-6 0,-11 1,-17 0,-5 1,-11 2,-17 1,-2 1,-5 2,-8 0,-2 1,-5 1,-8 1,-2 3,-5 4,-7 2,-2 4,-3 7,-4 5,-2 11,-3 16,-3 6,0 12,0 17,0 5,-1 10,-1 15,-1 5,0 10,-1 15,-1 2,0 5,0 8,1 2,1 5,2 8,3 2,1 4,2 7,2 2,1 4,2 6,3 3,1 5,2 8,3 3,1 5,2 8,4 2,1 4,3 6,5 1,2 2,5 2,8 0,9 1,18 1,27 0,10 0,19 -1,28 0,5 0,10 0,15 0,5 0,9 0,14l10 0 0 34 -10 0c0,1 0,2 0,3 0,1 0,2 0,2 -1,4 -1,7 -2,10 0,3 -1,7 -3,10 -1,3 -2,5 -4,8 -2,3 -5,5 -7,7 -4,2 -7,5 -10,6 -3,2 -6,4 -9,7 -3,1 -5,3 -8,5 -3,2 -5,3 -9,4 -3,1 -6,2 -9,3 -3,0 -6,1 -9,1 -3,1 -7,1 -10,1 -3,0 -6,0 -10,0 -6,0 -11,-2 -17,-6 -5,-3 -9,-8 -12,-13 0,-2 -1,-4 -1,-6 -1,-2 -2,-4 -2,-7 0,-2 0,-4 0,-6 0,-2 1,-4 3,-5 0,-1 1,-1 2,-1 1,0 3,0 4,0 1,1 2,1 3,2 1,0 2,1 3,1 2,1 5,2 7,3 3,1 6,2 8,2 3,1 6,2 9,2 3,1 6,1 10,1 3,1 6,0 9,0 3,-1 6,-2 8,-3 2,-1 4,-2 5,-3 2,-1 3,-2 5,-4 0,0 1,-1 2,-1 0,-1 0,-1 0,-3 1,0 1,-1 1,-1l0 -3c-1,-2 -1,-4 -1,-6 -1,-2 -1,-4 -2,-6 0,0 0,-1 0,-1 0,-1 0,-1 0,-2l-11 0c-3,0 -7,0 -10,0 -8,0 -15,-1 -21,-1 -3,0 -6,1 -9,1 -3,0 -6,0 -9,-1 -3,-1 -5,-3 -7,-5 -3,-1 -5,-3 -7,-5 -2,-1 -3,-2 -5,-3 -1,-2 -2,-3 -3,-5 -1,-2 -2,-4 -3,-7 -1,-3 -1,-5 -1,-8 0,-2 -1,-5 -1,-8 0,-2 1,-5 1,-8 0,-5 0,-10 -1,-16 0,-5 0,-10 0,-16zm33 -27c0,2 0,3 0,4 0,2 0,3 0,5 1,1 1,3 1,4 0,3 0,5 0,8 0,3 0,6 0,8 1,5 1,11 1,16 0,5 0,10 0,15 0,1 0,3 0,4 1,2 1,3 2,4 1,1 1,2 3,3 1,1 2,1 4,1 2,0 5,0 7,0 2,0 5,0 7,0 9,0 17,0 26,1 -1,-5 -1,-9 -2,-13 0,-4 -1,-8 -1,-12 0,-5 0,-11 0,-16 -1,-5 -1,-10 -2,-16 0,-2 0,-5 -1,-7 0,-3 0,-6 -1,-8 0,-2 -1,-3 -2,-4 0,-1 -1,-2 -3,-3 -1,0 -2,-1 -3,-1 -2,0 -3,0 -5,0l-14 0c-1,0 -3,0 -4,0 -1,0 -3,0 -4,0 -1,0 -3,0 -4,1 -1,0 -2,1 -3,3 -1,1 -1,2 -2,3zm100 -10l0 -1 0 1zm0 -1l0 0 0 0z"/>
  <path id="6" class="fil2" d="M1119 1715l0 -36 10 0 0 0 4 0 1 0 0 0c1,0 2,0 2,0 1,0 1,0 1,0 1,0 1,0 1,0 0,0 1,0 1,-1 1,0 2,-1 3,-2 0,-1 0,-3 0,-4 0,-1 0,-3 0,-4 0,-1 -1,-2 -1,-3 0,-3 -1,-6 -1,-9 0,-3 0,-6 0,-8l-1 -15c0,-5 -1,-9 -1,-14 -1,-6 -1,-11 -2,-16 0,-6 -1,-11 -1,-16 0,-6 0,-11 -1,-16 -1,-6 -1,-11 -2,-17 0,-5 -1,-9 -1,-14 -1,-5 -1,-9 -2,-14 0,-2 0,-3 0,-5 0,-1 1,-2 1,-3 1,-2 2,-3 3,-3 1,-1 2,-1 4,-1 2,0 5,0 7,0l8 0c3,0 5,0 8,0 3,0 6,0 9,0 2,0 4,0 7,-1 2,0 5,0 7,1 1,1 2,2 3,3 0,1 1,2 1,3 0,2 0,3 0,4 0,2 0,3 0,4 0,3 0,6 0,8 -1,3 -1,5 -1,8 0,5 -1,10 -1,15 0,5 0,10 0,15 0,11 -1,21 -1,32 -1,11 -1,22 -2,32 0,5 -1,10 -1,15 0,5 -1,10 -1,15 0,3 -1,6 -1,8 0,3 -1,6 -1,9 -1,3 -2,5 -4,7 -1,2 -3,4 -4,7 -2,2 -3,4 -5,6 -1,2 -3,4 -5,6 -3,1 -5,2 -8,2 -2,1 -5,1 -8,1 0,0 0,0 0,0 0,0 0,0 1,0 0,0 0,0 0,0 0,0 0,0 -1,0l-6 0 -6 1 -4 0 0 0 -9 0z"/>
  <circle class="fil3 str1" cx="735" cy="735" r="626"/>
 </g>
 <g id="__x0023_Layer_x0020_1_0">
  <metadata id="CorelCorpID_1Corel-Layer"/>
  <g id="_2496824368">
   <g>
    <path class="fil4" d="M1395 970c129,-389 -282,-640 -630,-555 -336,83 -385,264 -338,356 23,44 48,76 53,105 9,52 -34,101 -64,130 -98,94 -163,143 -144,232 17,83 133,112 199,119 354,39 820,-74 924,-387zm-637 -220c-58,64 -195,67 -208,-15 -15,-93 116,-157 189,-132 27,10 90,68 19,147z"/>
    <path class="fil4" d="M1395 970c129,-389 -282,-640 -630,-555 -336,83 -385,264 -338,356 23,44 48,76 53,105 9,52 -34,101 -64,130 -98,94 -163,143 -144,232 17,83 133,112 199,119 354,39 820,-74 924,-387zm-637 -220c-58,64 -195,67 -208,-15 -15,-93 116,-157 189,-132 27,10 90,68 19,147z"/>
    <path class="fil4" d="M1395 970c129,-389 -282,-640 -630,-555 -336,83 -385,264 -338,356 23,44 48,76 53,105 9,52 -34,101 -64,130 -98,94 -163,143 -144,232 17,83 133,112 199,119 354,39 820,-74 924,-387zm-637 -220c-58,64 -195,67 -208,-15 -15,-93 116,-157 189,-132 27,10 90,68 19,147z"/>
    <path class="fil4" d="M547 732c-8,-23 -5,-47 -2,-59l-448 371c-6,5 -6,17 2,27 7,10 18,14 25,9l458 -311c-17,-9 -29,-22 -35,-37z"/>
    <path class="fil4" d="M123 1081c0,-1 0,-1 1,-1l447 -318c-3,-2 -6,-4 -8,-7l-453 325c5,3 10,2 13,1z"/>
    <path class="fil4" d="M542 704c0,-5 0,-9 1,-14l-427 354 426 -340z"/>
    <path class="fil4" d="M137 883c-6,-18 -18,-29 -27,-26 -9,3 -12,19 -6,37 6,17 18,28 27,25 9,-3 11,-19 6,-36z"/>
    <path class="fil4" d="M130 919l450 -152c-11,-5 -20,-13 -26,-22 -8,-13 -11,-26 -11,-34l-434 146 21 62z"/>
    <path class="fil4" d="M109 857l5 13c0,0 -11,7 -9,25 7,-4 17,0 17,0l8 24 119 -40 -21 -62 -119 40z"/>
    <path class="fil4" d="M114 870l431 -146c-1,-5 -2,-9 -2,-13l-434 146 5 13z"/>
    <polygon class="fil4" points="109,857 114,870 232,830 225,818 "/>
    <path class="fil4" d="M130 919l450 -152c-10,-5 -18,-11 -23,-19l-435 147 8 24z"/>
    <polygon class="fil4" points="122,895 130,919 246,880 240,855 "/>
    <polygon class="fil1" points="241,827 235,815 225,818 232,830 240,855 246,880 256,877 249,852 "/>
    <path class="fil4" d="M1381 950c128,-385 -279,-633 -624,-549 -332,82 -388,274 -341,364 22,43 43,74 49,104 9,51 -23,89 -53,117 -97,93 -161,141 -143,230 17,82 132,110 197,117 351,39 812,-73 915,-383zm-630 -218c-58,64 -194,67 -207,-14 -18,-116 115,-156 188,-131 27,10 89,67 19,145z"/>
    <path class="fil4" d="M1381 950c128,-385 -279,-633 -624,-549 -332,82 -388,274 -341,364 22,43 43,74 49,104 9,51 -23,89 -53,117 -97,93 -161,141 -143,230 17,82 132,110 197,117 351,39 812,-73 915,-383zm-630 -218c-58,64 -194,67 -207,-14 -18,-116 115,-156 188,-131 27,10 89,67 19,145z"/>
    <path class="fil4" d="M1151 499c-17,6 -24,10 -41,16 -43,16 -65,25 -132,49 -38,14 -134,47 -200,70 8,20 8,46 -10,75 35,-10 100,-29 149,-41 101,-25 186,-36 239,-44 18,-44 42,-93 -5,-125z"/>
    <path class="fil4" d="M1151 499c-17,6 -24,10 -41,16 -43,16 -65,25 -132,49 -38,14 -134,47 -200,70 8,20 8,46 -10,75 35,-10 100,-29 149,-41 101,-25 186,-36 239,-44 18,-44 42,-93 -5,-125z"/>
    <path class="fil4" d="M1151 499c-17,6 -24,10 -41,16 -43,16 -65,25 -132,49 -38,14 -134,47 -200,70 8,20 8,46 -10,75 35,-10 100,-29 149,-41 101,-25 186,-36 239,-44 18,-44 42,-93 -5,-125z"/>
    <path class="fil4" d="M911 385c-48,39 -117,94 -147,118 -24,20 -65,53 -95,78 22,-2 44,0 63,6 15,5 41,26 49,56 54,-31 105,-61 135,-78 65,-38 188,-91 249,-117 -76,-38 -164,-61 -254,-63z"/>
    <path class="fil4" d="M911 385c-48,39 -117,94 -147,118 -24,20 -65,53 -95,78 22,-2 44,0 63,6 15,5 41,26 49,56 54,-31 105,-61 135,-78 65,-38 188,-91 249,-117 -76,-38 -164,-61 -254,-63z"/>
    <path class="fil4" d="M911 385c-48,39 -117,94 -147,118 -24,20 -65,53 -95,78 22,-2 44,0 63,6 15,5 41,26 49,56 54,-31 105,-61 135,-78 65,-38 188,-91 249,-117 -76,-38 -164,-61 -254,-63z"/>
    <path class="fil4" d="M1070 238l-140 116c1,3 -1,7 -4,10 -3,2 -7,2 -10,2l-371 307c-2,12 -5,36 3,59 5,15 17,28 34,36l421 -286c0,-3 1,-7 4,-9 4,-3 8,-3 12,-2l150 -101 -99 -132z"/>
    <path class="fil4" d="M1390 194c2,-4 -29,-4 -31,-8l-796 569c3,3 5,5 8,7l819 -568z"/>
    <path class="fil4" d="M1131 267l-27 -37 -561 460c-1,5 -1,9 0,14l588 -437z"/>
    <path class="fil4" d="M1296 50l10 14c-1,1 -5,5 -10,9 -7,6 -8,7 -8,7 0,0 12,-8 16,-10 2,-1 4,-2 5,-2l4 5c0,0 -2,2 -5,5 -2,2 -6,5 -6,5 0,0 5,-3 7,-4 3,-2 6,-3 7,-3l2 3c-1,0 -2,2 -3,3 -2,1 -2,2 -2,2 0,0 2,-2 3,-3 1,0 2,-1 3,-1l23 32c-1,1 -5,6 -19,17 -7,5 -14,10 -14,10 0,0 16,-12 23,-16 5,-4 11,-7 13,-8l10 13c-1,1 -2,3 -6,6 -5,3 -7,5 -7,5 0,0 6,-4 8,-6 2,-1 6,-2 7,-2l2 3c0,1 -1,2 -3,4 -3,3 -5,4 -5,4 0,0 5,-3 7,-4 2,-1 3,-1 4,-1l21 29c1,2 3,5 1,8 -3,3 -10,8 -10,8 0,0 8,-6 11,-7 3,0 4,0 6,1l21 29 -217 147 -101 -134 202 -168z"/>
    <path class="fil4" d="M1296 50l10 14c-1,1 -5,5 -10,9 -7,6 -8,7 -8,7 0,0 12,-8 16,-10 2,-1 4,-2 5,-2l4 5c0,0 -2,2 -5,5 -2,2 -6,5 -6,5 0,0 5,-3 7,-4 3,-2 6,-3 7,-3l2 3c-1,0 -2,2 -3,3 -2,1 -2,2 -2,2 0,0 2,-2 3,-3 1,0 2,-1 3,-1l23 32c-1,1 -5,6 -19,17 -7,5 -14,10 -14,10 0,0 16,-12 23,-16 5,-4 11,-7 13,-8l10 13c-1,1 -2,3 -6,6 -5,3 -7,5 -7,5 0,0 6,-4 8,-6 2,-1 6,-2 7,-2l2 3c0,1 -1,2 -3,4 -3,3 -5,4 -5,4 0,0 5,-3 7,-4 2,-1 3,-1 4,-1l21 29c1,2 3,5 1,8 -3,3 -10,8 -10,8 0,0 8,-6 11,-7 3,0 4,0 6,1l21 29 -217 147 -101 -134 202 -168z"/>
    <path class="fil4" d="M1296 50l10 14c-1,1 -5,5 -10,9 -7,6 -8,7 -8,7 0,0 12,-8 16,-10 2,-1 4,-2 5,-2l4 5c0,0 -2,2 -5,5 -2,2 -6,5 -6,5 0,0 5,-3 7,-4 3,-2 6,-3 7,-3l2 3c-1,0 -2,2 -3,3 -2,1 -2,2 -2,2 0,0 2,-2 3,-3 1,0 2,-1 3,-1l23 32c-1,1 -5,6 -19,17 -7,5 -14,10 -14,10 0,0 16,-12 23,-16 5,-4 11,-7 13,-8l10 13c-1,1 -2,3 -6,6 -5,3 -7,5 -7,5 0,0 6,-4 8,-6 2,-1 6,-2 7,-2l2 3c0,1 -1,2 -3,4 -3,3 -5,4 -5,4 0,0 5,-3 7,-4 2,-1 3,-1 4,-1l21 29c1,2 3,5 1,8 -3,3 -10,8 -10,8 0,0 8,-6 11,-7 3,0 4,0 6,1l21 29 -217 147 -101 -134 202 -168z"/>
    <path class="fil4" d="M1288 80c0,0 12,-8 16,-10 2,-1 4,-2 5,-2l4 5c0,0 -2,2 -5,5 -2,2 -6,5 -6,5 0,0 5,-3 7,-4 3,-2 6,-3 7,-3l2 3c-1,0 -2,2 -3,3 -2,1 -2,2 -2,2 0,0 2,-2 3,-3 1,0 2,-1 3,-1l22 30 -210 157 -27 -37 184 -150z"/>
    <path class="fil4" d="M1171 320c106,-59 196,-132 213,-147 0,1 0,1 0,1 -3,3 -10,8 -10,8 0,0 8,-6 11,-7 3,0 4,0 6,1l10 13 -217 147c0,0 -17,-14 -13,-16z"/>
    <path class="fil4" d="M1171 320c106,-59 196,-132 213,-147 0,1 0,1 0,1 -3,3 -10,8 -10,8 0,0 8,-6 11,-7 3,0 4,0 6,1l10 13 -217 147c0,0 -17,-14 -13,-16z"/>
    <path class="fil4" d="M1178 328l215 -149 1 2c0,0 -74,50 -99,67 -29,21 -116,82 -116,82l-1 -2z"/>
    <path class="fil4" d="M1331 97c0,0 -149,110 -208,159 0,0 -1,-1 -1,-1l207 -161 2 3z"/>
    <path class="fil4" d="M1331 97c0,0 -149,110 -208,159 0,0 -1,-1 -1,-1l207 -161 2 3z"/>
    <path class="fil4" d="M1331 97c0,0 -149,110 -208,159 0,0 -1,-1 -1,-1l207 -161 2 3z"/>
    <path class="fil4" d="M1336 104c0,0 -91,68 -121,91 -22,17 -87,67 -87,67 0,0 -2,-1 -1,-2 62,-45 208,-158 208,-158l1 2z"/>
    <path class="fil4" d="M1336 104c0,0 -91,68 -121,91 -22,17 -87,67 -87,67 0,0 -2,-1 -1,-2 62,-45 208,-158 208,-158l1 2z"/>
    <path class="fil4" d="M1336 104c0,0 -91,68 -121,91 -22,17 -87,67 -87,67 0,0 -2,-1 -1,-2 62,-45 208,-158 208,-158l1 2z"/>
    <polygon class="fil4" points="1197,350 1195,352 1094,218 1096,216 "/>
    <path class="fil4" d="M916 366c3,0 7,0 10,-2 3,-3 5,-7 4,-10l164 -136 101 134 -176 119c-4,-1 -8,-1 -12,2 -3,2 -4,6 -4,9l-20 14 -86 -115 19 -15z"/>
    <path class="fil4" d="M916 366c3,0 7,0 10,-2 3,-3 5,-7 4,-10l164 -136 101 134 -176 119c-4,-1 -8,-1 -12,2 -3,2 -4,6 -4,9l-20 14 -86 -115 19 -15z"/>
    <path class="fil4" d="M916 366c3,0 7,0 10,-2 3,-3 5,-7 4,-10l164 -136 101 134 -176 119c-4,-1 -8,-1 -12,2 -3,2 -4,6 -4,9l-20 14 -86 -115 19 -15z"/>
    <path class="fil4" d="M916 366c3,0 7,0 10,-2 3,-3 5,-7 4,-10l164 -136 101 134 -176 119c-4,-1 -8,-1 -12,2 -3,2 -4,6 -4,9l-20 14 -86 -115 19 -15z"/>
    <path class="fil4" d="M916 366c3,0 7,0 10,-2 3,-3 5,-7 4,-10l164 -136 101 134 -176 119c-4,-1 -8,-1 -12,2 -3,2 -4,6 -4,9l-20 14 -86 -115 19 -15z"/>
    <path class="fil4" d="M916 366c3,0 7,0 10,-2 3,-3 5,-7 4,-10l164 -136 101 134 -176 119c-4,-1 -8,-1 -12,2 -3,2 -4,6 -4,9l-20 14 -86 -115 19 -15z"/>
    <path class="fil4" d="M916 366c3,0 7,0 10,-2 3,-3 5,-7 4,-10l164 -136 101 134 -176 119c-4,-1 -8,-1 -12,2 -3,2 -4,6 -4,9l-20 14 -86 -115 19 -15z"/>
    <path class="fil4" d="M950 451l140 -105 20 38c0,0 -20,-23 -69,14l-84 63 -7 -10z"/>
    <path class="fil4" d="M950 451l140 -105 20 38c0,0 -20,-23 -69,14l-84 63 -7 -10z"/>
    <path class="fil4" d="M950 451l140 -105 20 38c0,0 -20,-23 -69,14l-84 63 -7 -10z"/>
    <path class="fil4" d="M950 451l140 -105 20 38c0,0 -20,-23 -69,14l-84 63 -7 -10z"/>
    <path class="fil4" d="M950 451l140 -105 20 38c0,0 -20,-23 -69,14l-84 63 -7 -10z"/>
    <polygon class="fil4" points="1026,274 1094,218 1195,352 1122,401 "/>
    <polygon class="fil4" points="1026,274 1094,218 1195,352 1122,401 "/>
    <polygon class="fil4" points="1026,274 1094,218 1195,352 1122,401 "/>
    <polygon class="fil4" points="1026,274 1094,218 1195,352 1122,401 "/>
    <polygon class="fil4" points="1026,274 1094,218 1195,352 1122,401 "/>
    <polygon class="fil4" points="1026,274 1094,218 1195,352 1122,401 "/>
    <polygon class="fil4" points="1026,274 1094,218 1195,352 1122,401 "/>
    <path class="fil4" d="M1009 472l-82 -110c1,-1 2,-2 3,-4l84 112c-2,1 -3,1 -5,2z"/>
    <path class="fil4" d="M1009 472l-82 -110c1,-1 2,-2 3,-4l84 112c-2,1 -3,1 -5,2z"/>
    <path class="fil4" d="M1009 472l-82 -110c1,-1 2,-2 3,-4l84 112c-2,1 -3,1 -5,2z"/>
    <path class="fil4" d="M1009 472l-82 -110c1,-1 2,-2 3,-4l84 112c-2,1 -3,1 -5,2z"/>
    <path class="fil4" d="M1009 472l-82 -110c1,-1 2,-2 3,-4l84 112c-2,1 -3,1 -5,2z"/>
    <path class="fil4" d="M1009 472l-82 -110c1,-1 2,-2 3,-4l84 112c-2,1 -3,1 -5,2z"/>
    <path class="fil4" d="M1009 472l-82 -110c1,-1 2,-2 3,-4l84 112c-2,1 -3,1 -5,2z"/>
    <path class="fil4" d="M1003 478l-84 -112c2,0 3,0 5,-1l82 109c-1,1 -2,3 -3,4z"/>
    <path class="fil4" d="M1003 478l-84 -112c2,0 3,0 5,-1l82 109c-1,1 -2,3 -3,4z"/>
    <path class="fil4" d="M1003 478l-84 -112c2,0 3,0 5,-1l82 109c-1,1 -2,3 -3,4z"/>
    <path class="fil4" d="M1003 478l-84 -112c2,0 3,0 5,-1l82 109c-1,1 -2,3 -3,4z"/>
    <path class="fil4" d="M1003 478l-84 -112c2,0 3,0 5,-1l82 109c-1,1 -2,3 -3,4z"/>
    <path class="fil4" d="M1003 478l-84 -112c2,0 3,0 5,-1l82 109c-1,1 -2,3 -3,4z"/>
    <path class="fil4" d="M1003 478l-84 -112c2,0 3,0 5,-1l82 109c-1,1 -2,3 -3,4z"/>
    <path class="fil4" d="M1164 306c0,0 9,-1 20,-8 11,-7 37,-24 37,-24 0,0 -29,20 -37,26 -8,5 -14,14 -14,14l-6 -8z"/>
    <path class="fil4" d="M1164 306c0,0 9,-1 20,-8 11,-7 37,-24 37,-24 0,0 -29,20 -37,26 -8,5 -14,14 -14,14l-6 -8z"/>
    <path class="fil4" d="M1164 306c0,0 9,-1 20,-8 11,-7 37,-24 37,-24 0,0 -29,20 -37,26 -8,5 -14,14 -14,14l-6 -8z"/>
    <path class="fil4" d="M1153 291c0,0 4,1 9,-3 5,-3 11,-8 11,-8 -9,8 -12,11 -13,13 -2,2 -3,4 -3,4l-4 -6z"/>
    <path class="fil4" d="M1153 291c0,0 4,1 9,-3 5,-3 11,-8 11,-8 -9,8 -12,11 -13,13 -2,2 -3,4 -3,4l-4 -6z"/>
    <path class="fil4" d="M1153 291c0,0 4,1 9,-3 5,-3 11,-8 11,-8 -9,8 -12,11 -13,13 -2,2 -3,4 -3,4l-4 -6z"/>
    <path class="fil4" d="M1186 335l11 15 74 -50c-12,2 -24,3 -36,1l-49 34 0 0zm-4 -34c-7,6 -12,13 -12,13l3 5c14,-8 26,-15 39,-23 -5,-2 -10,-4 -14,-6 -6,4 -11,8 -14,10 -1,0 -1,1 -2,1l0 0zm-49 -36l20 26c0,0 4,1 9,-3 4,-2 9,-6 11,-7 0,0 1,-1 1,-1 -10,8 -13,11 -14,13 -2,2 -3,4 -3,4l7 9c1,0 10,-2 20,-8 3,-2 8,-5 13,-8 -18,-9 -35,-21 -49,-36l-15 11 0 0zm-23 -60l-16 13 2 -2 10 12 12 -10c-3,-4 -6,-9 -8,-13l0 0z"/>
    <path class="fil4" d="M1186 335l11 15 74 -50c-12,2 -24,3 -36,1l-49 34 0 0zm-4 -34c-7,6 -12,13 -12,13l3 5c14,-8 26,-15 39,-23 -5,-2 -10,-4 -14,-6 -6,4 -11,8 -14,10 -1,0 -1,1 -2,1l0 0zm-49 -36l20 26c0,0 4,1 9,-3 4,-2 9,-6 11,-7 0,0 1,-1 1,-1 -10,8 -13,11 -14,13 -2,2 -3,4 -3,4l7 9c1,0 10,-2 20,-8 3,-2 8,-5 13,-8 -18,-9 -35,-21 -49,-36l-15 11 0 0zm-23 -60l-16 13 2 -2 10 12 12 -10c-3,-4 -6,-9 -8,-13l0 0z"/>
    <path class="fil4" d="M1186 335l11 15 74 -50c-12,2 -24,3 -36,1l-49 34 0 0zm-4 -34c-7,6 -12,13 -12,13l3 5c14,-8 26,-15 39,-23 -5,-2 -10,-4 -14,-6 -6,4 -11,8 -14,10 -1,0 -1,1 -2,1l0 0zm-49 -36l20 26c0,0 4,1 9,-3 4,-2 9,-6 11,-7 0,0 1,-1 1,-1 -10,8 -13,11 -14,13 -2,2 -3,4 -3,4l7 9c1,0 10,-2 20,-8 3,-2 8,-5 13,-8 -18,-9 -35,-21 -49,-36l-15 11 0 0zm-23 -60l-16 13 2 -2 10 12 12 -10c-3,-4 -6,-9 -8,-13l0 0z"/>
    <path class="fil4" d="M1186 335l11 15 74 -50c-12,2 -24,3 -36,1l-49 34 0 0zm-4 -34c-7,6 -12,13 -12,13l3 5c14,-8 26,-15 39,-23 -5,-2 -10,-4 -14,-6 -6,4 -11,8 -14,10 -1,0 -1,1 -2,1l0 0zm-49 -36l20 26c0,0 4,1 9,-3 4,-2 9,-6 11,-7 0,0 1,-1 1,-1 -10,8 -13,11 -14,13 -2,2 -3,4 -3,4l7 9c1,0 10,-2 20,-8 3,-2 8,-5 13,-8 -18,-9 -35,-21 -49,-36l-15 11 0 0zm-23 -60l-16 13 2 -2 10 12 12 -10c-3,-4 -6,-9 -8,-13l0 0z"/>
    <path class="fil4" d="M1186 335l11 15 74 -50c-12,2 -24,3 -36,1l-49 34 0 0zm-4 -34c-7,6 -12,13 -12,13l3 5c14,-8 26,-15 39,-23 -5,-2 -10,-4 -14,-6 -6,4 -11,8 -14,10 -1,0 -1,1 -2,1l0 0zm-49 -36l20 26c0,0 4,1 9,-3 4,-2 9,-6 11,-7 0,0 1,-1 1,-1 -10,8 -13,11 -14,13 -2,2 -3,4 -3,4l7 9c1,0 10,-2 20,-8 3,-2 8,-5 13,-8 -18,-9 -35,-21 -49,-36l-15 11 0 0zm-23 -60l-16 13 2 -2 10 12 12 -10c-3,-4 -6,-9 -8,-13l0 0z"/>
    <path class="fil4" d="M1143 250c-6,5 -11,9 -13,11l3 4 15 -11c-2,-1 -3,-2 -5,-4l0 0zm-5 -6c-5,4 -9,7 -13,10l4 5c4,-3 8,-7 13,-10 -1,-2 -3,-3 -4,-5l0 0zm-20 -26l-12 10 18 25 13 -10c-4,-5 -8,-10 -12,-15 -3,-3 -5,-6 -7,-10l0 0z"/>
    <path class="fil4" d="M1143 250c-6,5 -11,9 -13,11l3 4 15 -11c-2,-1 -3,-2 -5,-4l0 0zm-5 -6c-5,4 -9,7 -13,10l4 5c4,-3 8,-7 13,-10 -1,-2 -3,-3 -4,-5l0 0zm-20 -26l-12 10 18 25 13 -10c-4,-5 -8,-10 -12,-15 -3,-3 -5,-6 -7,-10l0 0z"/>
    <path class="fil4" d="M1181 329l5 6 49 -34c-4,0 -8,-1 -12,-2 -20,14 -36,26 -42,30l0 0zm-8 -10l7 8 41 -28c-3,-1 -6,-2 -9,-3 -13,8 -25,15 -39,23l0 0z"/>
    <path class="fil4" d="M1181 329l5 6 49 -34c-4,0 -8,-1 -12,-2 -20,14 -36,26 -42,30l0 0zm-8 -10l7 8 41 -28c-3,-1 -6,-2 -9,-3 -13,8 -25,15 -39,23l0 0z"/>
    <path class="fil4" d="M1181 329l5 6 49 -34c-4,0 -8,-1 -12,-2 -20,14 -36,26 -42,30l0 0zm-8 -10l7 8 41 -28c-3,-1 -6,-2 -9,-3 -13,8 -25,15 -39,23l0 0z"/>
    <path class="fil4" d="M1181 329l5 6 49 -34c-4,0 -8,-1 -12,-2 -20,14 -36,26 -42,30l0 0zm-8 -10l7 8 41 -28c-3,-1 -6,-2 -9,-3 -13,8 -25,15 -39,23l0 0z"/>
    <path class="fil4" d="M1180 327l41 -28c0,0 1,0 2,0 -20,14 -36,26 -42,30l-1 -2 0 0z"/>
    <path class="fil4" d="M1137 243c0,1 1,1 1,1 -5,4 -9,7 -13,10l-1 -1 13 -10 0 0z"/>
    <path class="fil4" d="M1137 243c0,1 1,1 1,1 -5,4 -9,7 -13,10l-1 -1 13 -10 0 0z"/>
    <path class="fil4" d="M1137 243c0,1 1,1 1,1 -5,4 -9,7 -13,10l-1 -1 13 -10 0 0z"/>
    <path class="fil4" d="M1137 243c0,1 1,1 1,1 -5,4 -9,7 -13,10l-1 -1 13 -10 0 0z"/>
    <path class="fil4" d="M1129 259c4,-3 8,-7 13,-10 1,0 1,1 1,1 -6,5 -11,9 -13,11l-1 -2 0 0z"/>
    <path class="fil4" d="M1129 259c4,-3 8,-7 13,-10 1,0 1,1 1,1 -6,5 -11,9 -13,11l-1 -2 0 0z"/>
    <path class="fil4" d="M1129 259c4,-3 8,-7 13,-10 1,0 1,1 1,1 -6,5 -11,9 -13,11l-1 -2 0 0z"/>
    <path class="fil4" d="M1129 259c4,-3 8,-7 13,-10 1,0 1,1 1,1 -6,5 -11,9 -13,11l-1 -2 0 0z"/>
    <path class="fil4" d="M1164 306c0,0 0,0 0,0 1,0 10,-2 20,-8 3,-2 8,-5 13,-8 0,0 0,0 1,0 -6,4 -11,8 -14,10 -1,0 -1,1 -2,1 -7,6 -12,13 -12,13l0 0 -6 -8 0 0z"/>
    <path class="fil4" d="M1164 306c0,0 0,0 0,0 1,0 10,-2 20,-8 3,-2 8,-5 13,-8 0,0 0,0 1,0 -6,4 -11,8 -14,10 -1,0 -1,1 -2,1 -7,6 -12,13 -12,13l0 0 -6 -8 0 0z"/>
    <path class="fil4" d="M1164 306c0,0 0,0 0,0 1,0 10,-2 20,-8 3,-2 8,-5 13,-8 0,0 0,0 1,0 -6,4 -11,8 -14,10 -1,0 -1,1 -2,1 -7,6 -12,13 -12,13l0 0 -6 -8 0 0z"/>
    <path class="fil4" d="M1164 306c0,0 0,0 0,0 1,0 10,-2 20,-8 3,-2 8,-5 13,-8 0,0 0,0 1,0 -6,4 -11,8 -14,10 -1,0 -1,1 -2,1 -7,6 -12,13 -12,13l0 0 -6 -8 0 0z"/>
    <path class="fil4" d="M1164 306c0,0 0,0 0,0 1,0 10,-2 20,-8 3,-2 8,-5 13,-8 0,0 0,0 1,0 -6,4 -11,8 -14,10 -1,0 -1,1 -2,1 -7,6 -12,13 -12,13l0 0 -6 -8 0 0z"/>
    <path class="fil4" d="M1153 291l0 0c0,0 4,1 9,-3 4,-2 9,-6 11,-7 0,0 1,-1 1,-1 -10,8 -13,11 -14,13 -2,2 -3,4 -3,4l0 0 -4 -6 0 0z"/>
    <path class="fil4" d="M1153 291l0 0c0,0 4,1 9,-3 4,-2 9,-6 11,-7 0,0 1,-1 1,-1 -10,8 -13,11 -14,13 -2,2 -3,4 -3,4l0 0 -4 -6 0 0z"/>
    <path class="fil4" d="M1153 291l0 0c0,0 4,1 9,-3 4,-2 9,-6 11,-7 0,0 1,-1 1,-1 -10,8 -13,11 -14,13 -2,2 -3,4 -3,4l0 0 -4 -6 0 0z"/>
    <path class="fil4" d="M1153 291l0 0c0,0 4,1 9,-3 4,-2 9,-6 11,-7 0,0 1,-1 1,-1 -10,8 -13,11 -14,13 -2,2 -3,4 -3,4l0 0 -4 -6 0 0z"/>
    <path class="fil4" d="M1153 291l0 0c0,0 4,1 9,-3 4,-2 9,-6 11,-7 0,0 1,-1 1,-1 -10,8 -13,11 -14,13 -2,2 -3,4 -3,4l0 0 -4 -6 0 0z"/>
    <path class="fil4" d="M1376 157l5 7c-7,3 -25,15 -42,27 -19,15 -102,73 -102,73 0,0 89,-67 102,-77 12,-8 32,-23 37,-30z"/>
    <path class="fil4" d="M1376 157l5 7c-7,3 -25,15 -42,27 -19,15 -102,73 -102,73 0,0 89,-67 102,-77 12,-8 32,-23 37,-30z"/>
    <path class="fil4" d="M1376 157l5 7c-7,3 -25,15 -42,27 -19,15 -102,73 -102,73 0,0 89,-67 102,-77 12,-8 32,-23 37,-30z"/>
    <path class="fil4" d="M356 1140c17,-21 58,-49 104,-40 46,10 67,45 65,68 -3,24 -10,23 -28,16 -18,-7 -43,-32 -77,-18 -35,15 -43,33 -64,26 -21,-7 -13,-37 0,-52z"/>
    <path class="fil1" d="M448 1111c-11,-4 -36,-6 -66,16 -23,17 -34,38 -28,42 10,8 18,-18 42,-34 23,-15 34,-21 52,-24z"/>
    <path class="fil4" d="M440 1156c-19,-2 -37,10 -55,24 -16,12 -30,10 -34,9 1,1 3,2 5,3 21,7 29,-11 64,-26 13,-5 25,-5 35,-2 -3,-4 -8,-7 -15,-8z"/>
    <path class="fil1" d="M523 1180c-3,18 -18,54 -52,64 -46,12 -52,-24 -46,-48 5,-23 29,-51 59,-49 30,3 42,18 39,33z"/>
    <path class="fil4" d="M474 1235c16,-4 28,-15 37,-27 -16,16 -38,19 -59,12 -18,-7 -24,-18 -26,-22 -2,22 8,49 48,37z"/>
    <path class="fil4" d="M615 1149c27,-27 89,-22 112,18 23,40 -14,105 -80,106 -66,0 -85,-72 -32,-124z"/>
    <path class="fil4" d="M729 1203c-1,2 -2,3 -2,5 -8,12 -33,44 -74,47 -32,2 -56,-18 -65,-26 7,23 27,39 58,39 46,0 77,-32 83,-65z"/>
    <path class="fil1" d="M621 1118c-10,4 -33,14 -21,64 12,49 76,54 105,32 27,-21 25,-50 15,-63 -10,-11 -22,-1 -43,13 -11,7 -34,0 -30,-22 3,-15 -18,-27 -26,-24z"/>
    <path class="fil4" d="M644 1162c-4,-9 -6,-22 -10,-29 -4,-8 -20,-1 -13,22 3,14 26,49 63,37 21,-8 33,-29 33,-29 0,0 -48,42 -73,-1z"/>
    <path class="fil4" d="M1038 499c18,-28 39,-45 81,-44 41,1 95,50 94,102 -2,51 -42,75 -80,66 -27,-7 -24,-28 -64,-38 -30,-7 -49,-56 -31,-86z"/>
    <path class="fil4" d="M1152 619c0,0 32,-5 45,-30 13,-25 8,-63 -6,-83 -14,-21 -27,-30 -27,-30 0,0 29,32 31,75 1,34 -17,55 -43,68z"/>
    <path class="fil1" d="M1137 471c-9,-4 -41,-8 -64,19 -21,23 -17,62 5,79 40,31 70,3 66,-14 -5,-24 -15,-17 -25,-25 -6,-4 -4,-9 1,-13 5,-4 10,-5 20,-4 24,2 22,-32 -3,-42z"/>
    <path class="fil4" d="M1128 477c0,0 -28,-2 -48,16 -15,14 -17,36 -10,45 7,10 11,0 11,-15 1,-15 12,-38 47,-46z"/>
    <path class="fil4" d="M554 745c6,9 15,17 26,22l475 -160 -21 -62 -491 166c0,8 3,21 11,34z"/>
    <path class="fil4" d="M545 724l493 -166 -5 -13 -490 166c0,4 1,8 2,13z"/>
    <path class="fil4" d="M580 767l475 -160 -9 -25 -489 166c5,8 13,14 23,19z"/>
    <path class="fil4" d="M1046 583c-5,-2 -8,-6 -10,-11 -2,-6 0,-13 1,-14 -4,-1 -8,-7 -9,-11 2,-1 3,-1 6,-2l6 0 20 59 -5 3c-3,1 -9,-4 -11,-10 -2,-7 0,-13 2,-14z"/>
    <path class="fil4" d="M1046 583c-5,-2 -8,-6 -10,-11 -2,-6 0,-13 1,-14 -4,-1 -8,-7 -9,-11 2,-1 3,-1 6,-2l6 0 20 59 -5 3c-3,1 -9,-4 -11,-10 -2,-7 0,-13 2,-14z"/>
    <path class="fil4" d="M1030 546c2,0 3,-1 4,-1l139 -12 -117 73c-2,0 -8,-3 -10,-10 -2,-6 1,-13 2,-14 -1,-1 -3,-2 -4,-2 -2,-2 -5,-5 -6,-9 -2,-6 1,-12 2,-14 -5,-1 -10,-6 -10,-11z"/>
    <path class="fil4" d="M1048 582c-1,-1 -3,-2 -4,-2 -1,-1 -2,-2 -3,-4l132 -43 -117 73c-2,0 -8,-3 -10,-10 -2,-6 1,-13 2,-14z"/>
    <path class="fil4" d="M1173 533l-125 66c-1,-1 -1,-2 -2,-3 0,-1 0,-2 0,-2l127 -61z"/>
    <path class="fil4" d="M1035 555c-1,-1 124,-20 138,-22l-135 29c0,-2 1,-4 2,-5 -2,0 -3,-1 -5,-2z"/>
    <path class="fil4" d="M1173 533l-46 29c-10,1 -20,-11 -20,-23l66 -6z"/>
    <path class="fil4" d="M1121 561c-1,-1 -2,-1 -3,-2l55 -26 -52 28z"/>
    <path class="fil4" d="M1173 533l-62 20c-2,-4 -4,-9 -4,-14l66 -6z"/>
    <path class="fil4" d="M1173 533l-65 14c0,-1 -1,-2 -1,-4l66 -10z"/>
    <path class="fil4" d="M837 1154c-19,-9 -40,-21 -31,-43 14,-35 70,-34 106,-17 36,17 62,61 35,84 -26,22 -89,50 -59,64 31,15 30,42 -1,46 -32,5 -91,-34 -64,-75 27,-41 43,-46 14,-59z"/>
    <path class="fil4" d="M820 1117c1,-12 21,-28 50,-27 25,1 33,8 45,15 8,5 18,15 18,15 0,0 -37,-17 -62,-9 -25,8 -26,19 -34,20 -9,2 -18,-5 -17,-14z"/>
    <path class="fil4" d="M900 1174c0,0 -37,3 -60,30 -12,15 -15,28 -9,45 4,13 27,20 27,20 0,0 -24,-18 -15,-45 7,-23 36,-38 57,-50z"/>
    <path class="fil4" d="M889 1243c0,0 -1,0 -1,-1 -30,-14 33,-42 59,-64 2,-2 4,-4 5,-5 -7,5 -25,19 -43,27 -17,7 -30,15 -34,24 -3,7 1,13 14,19z"/>
    <path class="fil4" d="M889 1243c0,0 -1,0 -1,-1 -30,-14 33,-42 59,-64 2,-2 4,-4 5,-5 -7,5 -25,19 -43,27 -17,7 -30,15 -34,24 -3,7 1,13 14,19z"/>
    <path class="fil4" d="M1042 1156c-22,-20 -61,-76 0,-134 63,-60 142,6 143,57 0,44 -31,65 -46,68 -15,3 -28,-7 -24,-21 4,-15 17,-34 6,-54 -11,-17 -48,-10 -52,21 -6,41 18,40 9,55 -8,14 -25,18 -36,8z"/>
    <path class="fil1" d="M1071 1047c-23,4 -44,25 -36,50 9,25 44,48 74,14 30,-34 -1,-70 -38,-64z"/>
    <path class="fil4" d="M1068 1121c0,0 -39,-13 -21,-51 10,-22 32,-19 36,-17 5,3 5,10 -7,13 -12,3 -23,11 -23,29 0,16 15,26 15,26z"/>
    <path class="fil4" d="M1049 1157c0,0 -46,-42 -29,-90 16,-48 49,-58 64,-62 9,-3 33,-1 48,6 15,7 18,14 18,14 0,0 -37,-21 -70,-6 -30,14 -57,48 -54,85 1,27 23,53 23,53z"/>
    <path class="fil4" d="M1124 1136c0,0 27,8 41,-14 15,-22 14,-47 12,-54 -3,-7 -6,-13 -6,-13 0,0 7,27 -9,54 -17,27 -38,27 -38,27z"/>
    <path class="fil4" d="M1156 899c0,0 46,-42 104,-24 65,19 89,83 42,125 -46,43 -68,9 -69,-15 0,-23 8,-37 -14,-54 -15,-12 -38,-17 -59,-12 -17,4 -18,-10 -4,-20z"/>
    <path class="fil4" d="M1192 882c17,-7 44,-9 67,0 37,14 44,43 44,43 0,0 -33,-35 -72,-34 -39,0 -44,14 -55,9 -10,-6 7,-15 16,-18z"/>
    <path class="fil4" d="M1316 934c-1,8 -6,40 -27,57 -26,20 -43,12 -48,8 0,0 0,0 -1,0 8,15 27,24 57,-4 20,-18 26,-41 19,-61z"/>
    <path class="fil4" d="M1316 934c-1,8 -6,40 -27,57 -26,20 -43,12 -48,8 0,0 0,0 -1,0 8,15 27,24 57,-4 20,-18 26,-41 19,-61z"/>
    <path class="fil1" d="M1265 659c-26,-13 -93,6 -86,61 8,58 56,87 110,67 54,-20 78,-62 43,-75 -46,-17 -25,-30 -67,-53z"/>
    <path class="fil4" d="M1250 661c-12,-1 -41,6 -54,34 -14,29 1,59 23,77 17,13 33,11 33,11 0,0 -46,-22 -44,-56 1,-34 31,-44 40,-46 11,-1 18,-3 18,-9 -1,-6 -9,-11 -16,-11z"/>
    <path class="fil4" d="M1332 712c-27,-10 -31,-18 -38,-28 4,13 0,31 -13,42 -14,12 -26,12 -26,12 0,0 4,3 12,1 8,-1 23,-7 36,-17 14,-11 26,-10 31,-9 0,0 -1,-1 -2,-1z"/>
    <path class="fil4" d="M1293 785c49,-19 71,-57 43,-71 1,1 12,10 6,24 -4,12 -19,31 -32,38 -6,3 -12,7 -17,9z"/>
   </g>
   <g>
    <path class="fil5" d="M1392 943c129,-389 -282,-640 -630,-555 -336,83 -385,264 -338,356 23,43 47,76 53,105 9,52 -34,101 -65,130 -97,94 -162,143 -144,232 18,83 134,111 200,119 354,39 820,-74 924,-387zm-637 -220c-58,64 -196,67 -209,-15 -15,-94 117,-157 189,-132 28,9 91,68 20,147z"/>
    <path class="fil6" d="M1392 943c129,-389 -282,-640 -630,-555 -336,83 -385,264 -338,356 23,43 47,76 53,105 9,52 -34,101 -65,130 -97,94 -162,143 -144,232 18,83 134,111 200,119 354,39 820,-74 924,-387zm-637 -220c-58,64 -196,67 -209,-15 -15,-94 117,-157 189,-132 28,9 91,68 20,147z"/>
    <path class="fil7" d="M1392 943c129,-389 -282,-640 -630,-555 -336,83 -385,264 -338,356 23,43 47,76 53,105 9,52 -34,101 -65,130 -97,94 -162,143 -144,232 18,83 134,111 200,119 354,39 820,-74 924,-387zm-637 -220c-58,64 -196,67 -209,-15 -15,-94 117,-157 189,-132 28,9 91,68 20,147z"/>
    <path class="fil8" d="M544 705c-8,-23 -5,-47 -2,-59l-448 371c-7,5 -6,17 1,27 8,9 19,13 25,9l458 -312c-16,-8 -28,-21 -34,-36z"/>
    <path class="fil9" d="M119 1053c1,0 1,0 1,0l448 -318c-3,-2 -6,-4 -8,-7l-454 325c6,3 11,2 13,0z"/>
    <path class="fil10" d="M539 677c0,-5 0,-9 0,-14l-426 354 426 -340z"/>
    <path class="fil11" d="M133 855c-5,-17 -17,-28 -26,-25 -9,3 -12,19 -6,36 5,17 17,29 27,26 9,-3 11,-20 5,-37z"/>
    <path class="fil12" d="M127 892l449 -152c-10,-6 -19,-13 -25,-22 -8,-13 -11,-26 -12,-34l-433 146 21 62z"/>
    <path class="fil13" d="M106 830l4 13c0,0 -10,7 -9,25 7,-4 18,-1 18,-1l8 25 119 -40 -21 -62 -119 40z"/>
    <path class="fil14" d="M110 843l432 -146c-2,-5 -2,-10 -3,-13l-433 146 4 13z"/>
    <polygon class="fil15" points="106,830 110,843 228,803 222,791 "/>
    <path class="fil16" d="M127 892l449 -152c-9,-5 -17,-11 -23,-19l-434 146 8 25z"/>
    <polygon class="fil17" points="119,867 127,892 243,853 237,828 "/>
    <polygon class="fil18" points="238,800 231,788 222,791 228,803 237,828 243,853 253,850 246,824 "/>
    <path class="fil19" d="M1378 923c128,-385 -279,-634 -624,-549 -333,82 -389,273 -342,364 23,43 44,74 49,103 9,51 -22,89 -53,118 -96,93 -161,141 -142,230 17,82 132,110 197,117 350,39 812,-73 915,-383zm-631 -218c-57,64 -194,67 -206,-14 -18,-117 115,-156 187,-131 27,9 90,67 19,145z"/>
    <path class="fil20" d="M1378 923c128,-385 -279,-634 -624,-549 -333,82 -389,273 -342,364 23,43 44,74 49,103 9,51 -22,89 -53,118 -96,93 -161,141 -142,230 17,82 132,110 197,117 350,39 812,-73 915,-383zm-631 -218c-57,64 -194,67 -206,-14 -18,-117 115,-156 187,-131 27,9 90,67 19,145z"/>
    <path class="fil21" d="M1148 472c-18,6 -24,10 -41,16 -43,15 -65,24 -132,49 -38,14 -134,47 -201,70 8,20 9,45 -9,74 35,-9 100,-29 149,-41 100,-24 186,-35 239,-43 17,-45 42,-93 -5,-125z"/>
    <path class="fil22" d="M1148 472c-18,6 -24,10 -41,16 -43,15 -65,24 -132,49 -38,14 -134,47 -201,70 8,20 9,45 -9,74 35,-9 100,-29 149,-41 100,-24 186,-35 239,-43 17,-45 42,-93 -5,-125z"/>
    <path class="fil23" d="M1148 472c-18,6 -24,10 -41,16 -43,15 -65,24 -132,49 -38,14 -134,47 -201,70 8,20 9,45 -9,74 35,-9 100,-29 149,-41 100,-24 186,-35 239,-43 17,-45 42,-93 -5,-125z"/>
    <path class="fil24" d="M908 358c-48,39 -117,94 -147,118 -24,19 -65,53 -95,78 22,-2 44,0 62,6 15,5 41,25 49,56 55,-31 106,-61 136,-78 64,-38 187,-91 249,-117 -76,-39 -164,-61 -254,-63z"/>
    <path class="fil25" d="M908 358c-48,39 -117,94 -147,118 -24,19 -65,53 -95,78 22,-2 44,0 62,6 15,5 41,25 49,56 55,-31 106,-61 136,-78 64,-38 187,-91 249,-117 -76,-39 -164,-61 -254,-63z"/>
    <path class="fil26" d="M908 358c-48,39 -117,94 -147,118 -24,19 -65,53 -95,78 22,-2 44,0 62,6 15,5 41,25 49,56 55,-31 106,-61 136,-78 64,-38 187,-91 249,-117 -76,-39 -164,-61 -254,-63z"/>
    <path class="fil27" d="M1066 211l-139 115c0,4 -1,8 -5,11 -3,2 -6,2 -10,1l-370 308c-3,12 -6,36 2,58 6,16 18,29 35,37l421 -286c0,-4 1,-7 4,-9 4,-3 8,-3 12,-2l149 -101 -99 -132z"/>
    <path class="fil9" d="M1386 167c3,-5 -29,-5 -30,-8l-796 569c2,2 5,5 8,7l818 -568z"/>
    <path class="fil10" d="M1128 239l-27 -37 -562 461c0,4 0,9 0,14l589 -438z"/>
    <path class="fil28" d="M1293 23l10 13c-1,2 -5,5 -10,10 -7,6 -9,7 -9,7 0,0 12,-9 17,-11 2,-1 4,-1 5,-2l4 5c-1,1 -2,3 -5,5 -3,3 -6,6 -6,6 0,0 5,-3 7,-5 3,-1 5,-2 6,-2l2 3c0,0 -1,1 -2,3 -2,1 -2,2 -2,2 0,0 2,-2 3,-3 1,-1 2,-1 2,-1l24 31c-1,2 -5,7 -19,17 -8,6 -15,11 -15,11 0,0 17,-12 23,-16 6,-4 11,-7 14,-8l9 13c0,0 -2,3 -6,5 -4,4 -6,6 -6,6 0,0 6,-5 8,-6 2,-1 5,-2 7,-2l2 3c0,0 -1,2 -3,4 -4,2 -5,4 -5,4 0,0 5,-3 6,-4 2,-1 4,-1 4,-1l22 29c1,2 2,5 0,7 -3,4 -10,9 -10,9 0,0 9,-6 12,-7 2,-1 4,0 5,1l22 29 -217 147 -101 -135 202 -167z"/>
    <path class="fil29" d="M1293 23l10 13c-1,2 -5,5 -10,10 -7,6 -9,7 -9,7 0,0 12,-9 17,-11 2,-1 4,-1 5,-2l4 5c-1,1 -2,3 -5,5 -3,3 -6,6 -6,6 0,0 5,-3 7,-5 3,-1 5,-2 6,-2l2 3c0,0 -1,1 -2,3 -2,1 -2,2 -2,2 0,0 2,-2 3,-3 1,-1 2,-1 2,-1l24 31c-1,2 -5,7 -19,17 -8,6 -15,11 -15,11 0,0 17,-12 23,-16 6,-4 11,-7 14,-8l9 13c0,0 -2,3 -6,5 -4,4 -6,6 -6,6 0,0 6,-5 8,-6 2,-1 5,-2 7,-2l2 3c0,0 -1,2 -3,4 -4,2 -5,4 -5,4 0,0 5,-3 6,-4 2,-1 4,-1 4,-1l22 29c1,2 2,5 0,7 -3,4 -10,9 -10,9 0,0 9,-6 12,-7 2,-1 4,0 5,1l22 29 -217 147 -101 -135 202 -167z"/>
    <path class="fil30" d="M1293 23l10 13c-1,2 -5,5 -10,10 -7,6 -9,7 -9,7 0,0 12,-9 17,-11 2,-1 4,-1 5,-2l4 5c-1,1 -2,3 -5,5 -3,3 -6,6 -6,6 0,0 5,-3 7,-5 3,-1 5,-2 6,-2l2 3c0,0 -1,1 -2,3 -2,1 -2,2 -2,2 0,0 2,-2 3,-3 1,-1 2,-1 2,-1l24 31c-1,2 -5,7 -19,17 -8,6 -15,11 -15,11 0,0 17,-12 23,-16 6,-4 11,-7 14,-8l9 13c0,0 -2,3 -6,5 -4,4 -6,6 -6,6 0,0 6,-5 8,-6 2,-1 5,-2 7,-2l2 3c0,0 -1,2 -3,4 -4,2 -5,4 -5,4 0,0 5,-3 6,-4 2,-1 4,-1 4,-1l22 29c1,2 2,5 0,7 -3,4 -10,9 -10,9 0,0 9,-6 12,-7 2,-1 4,0 5,1l22 29 -217 147 -101 -135 202 -167z"/>
    <path class="fil31" d="M1284 53c1,0 13,-9 17,-11 2,-1 4,-1 5,-2l4 5c-1,1 -2,3 -5,5 -3,3 -6,6 -6,6 0,0 5,-3 7,-5 3,-1 5,-2 6,-2l2 3c0,0 -1,1 -2,3 -2,1 -2,2 -2,2 0,0 2,-2 3,-3 1,-1 2,-1 2,-1l22 29 -209 157 -28 -36 184 -150z"/>
    <path class="fil32" d="M1168 293c105,-59 195,-132 212,-147 0,0 0,0 0,0 -3,4 -10,9 -10,9 0,0 9,-6 12,-7 2,-1 4,0 5,1l10 13 -217 147c0,0 -17,-14 -12,-16z"/>
    <path class="fil33" d="M1168 293c105,-59 195,-132 212,-147 0,0 0,0 0,0 -3,4 -10,9 -10,9 0,0 9,-6 12,-7 2,-1 4,0 5,1l10 13 -217 147c0,0 -17,-14 -12,-16z"/>
    <path class="fil34" d="M1174 301l216 -149 1 2c0,0 -74,50 -99,67 -29,20 -116,82 -116,82l-2 -2z"/>
    <path class="fil35" d="M1328 69c0,0 -149,111 -208,159 0,1 -1,0 -1,0l207 -161 2 2z"/>
    <path class="fil36" d="M1328 69c0,0 -149,111 -208,159 0,1 -1,0 -1,0l207 -161 2 2z"/>
    <path class="fil37" d="M1328 69c0,0 -149,111 -208,159 0,1 -1,0 -1,0l207 -161 2 2z"/>
    <path class="fil38" d="M1333 76c0,0 -91,69 -122,92 -21,17 -86,67 -86,67 0,0 -2,-2 -2,-2 62,-46 209,-158 209,-158l1 1z"/>
    <path class="fil39" d="M1333 76c0,0 -91,69 -122,92 -21,17 -86,67 -86,67 0,0 -2,-2 -2,-2 62,-46 209,-158 209,-158l1 1z"/>
    <path class="fil40" d="M1333 76c0,0 -91,69 -122,92 -21,17 -86,67 -86,67 0,0 -2,-2 -2,-2 62,-46 209,-158 209,-158l1 1z"/>
    <polygon class="fil41" points="1194,323 1192,325 1091,190 1093,189 "/>
    <path class="fil42" d="M912 338c4,1 7,1 10,-1 4,-3 5,-7 5,-11l164 -136 101 135 -176 119c-4,-1 -8,-1 -12,2 -3,2 -5,6 -4,9l-20 14 -86 -115 18 -16z"/>
    <path class="fil43" d="M912 338c4,1 7,1 10,-1 4,-3 5,-7 5,-11l164 -136 101 135 -176 119c-4,-1 -8,-1 -12,2 -3,2 -5,6 -4,9l-20 14 -86 -115 18 -16z"/>
    <path class="fil44" d="M912 338c4,1 7,1 10,-1 4,-3 5,-7 5,-11l164 -136 101 135 -176 119c-4,-1 -8,-1 -12,2 -3,2 -5,6 -4,9l-20 14 -86 -115 18 -16z"/>
    <path class="fil45" d="M912 338c4,1 7,1 10,-1 4,-3 5,-7 5,-11l164 -136 101 135 -176 119c-4,-1 -8,-1 -12,2 -3,2 -5,6 -4,9l-20 14 -86 -115 18 -16z"/>
    <path class="fil46" d="M912 338c4,1 7,1 10,-1 4,-3 5,-7 5,-11l164 -136 101 135 -176 119c-4,-1 -8,-1 -12,2 -3,2 -5,6 -4,9l-20 14 -86 -115 18 -16z"/>
    <path class="fil47" d="M912 338c4,1 7,1 10,-1 4,-3 5,-7 5,-11l164 -136 101 135 -176 119c-4,-1 -8,-1 -12,2 -3,2 -5,6 -4,9l-20 14 -86 -115 18 -16z"/>
    <path class="fil48" d="M912 338c4,1 7,1 10,-1 4,-3 5,-7 5,-11l164 -136 101 135 -176 119c-4,-1 -8,-1 -12,2 -3,2 -5,6 -4,9l-20 14 -86 -115 18 -16z"/>
    <path class="fil49" d="M946 424l140 -105 20 38c0,0 -19,-23 -68,14l-84 63 -8 -10z"/>
    <path class="fil50" d="M946 424l140 -105 20 38c0,0 -19,-23 -68,14l-84 63 -8 -10z"/>
    <path class="fil51" d="M946 424l140 -105 20 38c0,0 -19,-23 -68,14l-84 63 -8 -10z"/>
    <path class="fil52" d="M946 424l140 -105 20 38c0,0 -19,-23 -68,14l-84 63 -8 -10z"/>
    <path class="fil53" d="M946 424l140 -105 20 38c0,0 -19,-23 -68,14l-84 63 -8 -10z"/>
    <polygon class="fil54" points="1023,247 1091,190 1192,325 1119,374 "/>
    <polygon class="fil55" points="1023,247 1091,190 1192,325 1119,374 "/>
    <polygon class="fil56" points="1023,247 1091,190 1192,325 1119,374 "/>
    <polygon class="fil57" points="1023,247 1091,190 1192,325 1119,374 "/>
    <polygon class="fil58" points="1023,247 1091,190 1192,325 1119,374 "/>
    <polygon class="fil59" points="1023,247 1091,190 1192,325 1119,374 "/>
    <polygon class="fil60" points="1023,247 1091,190 1192,325 1119,374 "/>
    <path class="fil61" d="M1006 444l-82 -109c1,-1 2,-3 2,-4l85 112c-2,0 -3,1 -5,1z"/>
    <path class="fil62" d="M1006 444l-82 -109c1,-1 2,-3 2,-4l85 112c-2,0 -3,1 -5,1z"/>
    <path class="fil63" d="M1006 444l-82 -109c1,-1 2,-3 2,-4l85 112c-2,0 -3,1 -5,1z"/>
    <path class="fil64" d="M1006 444l-82 -109c1,-1 2,-3 2,-4l85 112c-2,0 -3,1 -5,1z"/>
    <path class="fil65" d="M1006 444l-82 -109c1,-1 2,-3 2,-4l85 112c-2,0 -3,1 -5,1z"/>
    <path class="fil66" d="M1006 444l-82 -109c1,-1 2,-3 2,-4l85 112c-2,0 -3,1 -5,1z"/>
    <path class="fil67" d="M1006 444l-82 -109c1,-1 2,-3 2,-4l85 112c-2,0 -3,1 -5,1z"/>
    <path class="fil68" d="M1000 451l-84 -112c1,0 3,-1 5,-1l82 109c-2,1 -2,3 -3,4z"/>
    <path class="fil69" d="M1000 451l-84 -112c1,0 3,-1 5,-1l82 109c-2,1 -2,3 -3,4z"/>
    <path class="fil70" d="M1000 451l-84 -112c1,0 3,-1 5,-1l82 109c-2,1 -2,3 -3,4z"/>
    <path class="fil71" d="M1000 451l-84 -112c1,0 3,-1 5,-1l82 109c-2,1 -2,3 -3,4z"/>
    <path class="fil72" d="M1000 451l-84 -112c1,0 3,-1 5,-1l82 109c-2,1 -2,3 -3,4z"/>
    <path class="fil73" d="M1000 451l-84 -112c1,0 3,-1 5,-1l82 109c-2,1 -2,3 -3,4z"/>
    <path class="fil74" d="M1000 451l-84 -112c1,0 3,-1 5,-1l82 109c-2,1 -2,3 -3,4z"/>
    <path class="fil75" d="M1161 279c0,0 9,-2 20,-8 10,-7 36,-24 36,-24 0,0 -28,20 -37,26 -8,5 -13,14 -13,14l-6 -8z"/>
    <path class="fil76" d="M1161 279c0,0 9,-2 20,-8 10,-7 36,-24 36,-24 0,0 -28,20 -37,26 -8,5 -13,14 -13,14l-6 -8z"/>
    <path class="fil77" d="M1161 279c0,0 9,-2 20,-8 10,-7 36,-24 36,-24 0,0 -28,20 -37,26 -8,5 -13,14 -13,14l-6 -8z"/>
    <path class="fil78" d="M1149 264c0,0 4,0 10,-3 5,-3 11,-8 11,-8 -9,8 -12,11 -13,12 -3,3 -3,5 -3,5l-5 -6z"/>
    <path class="fil79" d="M1149 264c0,0 4,0 10,-3 5,-3 11,-8 11,-8 -9,8 -12,11 -13,12 -3,3 -3,5 -3,5l-5 -6z"/>
    <path class="fil80" d="M1149 264c0,0 4,0 10,-3 5,-3 11,-8 11,-8 -9,8 -12,11 -13,12 -3,3 -3,5 -3,5l-5 -6z"/>
    <path class="fil81" d="M1182 308l12 15 74 -50c-12,2 -24,2 -36,1l-50 34 0 0zm-3 -34c-7,5 -12,13 -12,13l3 4c13,-7 26,-14 39,-22 -5,-2 -10,-4 -15,-6 -5,4 -11,8 -14,10 0,0 -1,0 -1,1l0 0zm-49 -36l19 26c0,0 4,0 10,-3 4,-2 9,-6 10,-7 1,-1 1,-1 1,-1 -9,8 -12,11 -13,12 -3,3 -3,5 -3,5l7 9c1,0 10,-2 20,-8 3,-2 7,-5 12,-8 -18,-9 -34,-21 -49,-36l-14 11 0 0zm-23 -61l-16 13 2 -1 9 12 13 -10c-3,-4 -6,-9 -8,-14l0 0z"/>
    <path class="fil82" d="M1182 308l12 15 74 -50c-12,2 -24,2 -36,1l-50 34 0 0zm-3 -34c-7,5 -12,13 -12,13l3 4c13,-7 26,-14 39,-22 -5,-2 -10,-4 -15,-6 -5,4 -11,8 -14,10 0,0 -1,0 -1,1l0 0zm-49 -36l19 26c0,0 4,0 10,-3 4,-2 9,-6 10,-7 1,-1 1,-1 1,-1 -9,8 -12,11 -13,12 -3,3 -3,5 -3,5l7 9c1,0 10,-2 20,-8 3,-2 7,-5 12,-8 -18,-9 -34,-21 -49,-36l-14 11 0 0zm-23 -61l-16 13 2 -1 9 12 13 -10c-3,-4 -6,-9 -8,-14l0 0z"/>
    <path class="fil83" d="M1182 308l12 15 74 -50c-12,2 -24,2 -36,1l-50 34 0 0zm-3 -34c-7,5 -12,13 -12,13l3 4c13,-7 26,-14 39,-22 -5,-2 -10,-4 -15,-6 -5,4 -11,8 -14,10 0,0 -1,0 -1,1l0 0zm-49 -36l19 26c0,0 4,0 10,-3 4,-2 9,-6 10,-7 1,-1 1,-1 1,-1 -9,8 -12,11 -13,12 -3,3 -3,5 -3,5l7 9c1,0 10,-2 20,-8 3,-2 7,-5 12,-8 -18,-9 -34,-21 -49,-36l-14 11 0 0zm-23 -61l-16 13 2 -1 9 12 13 -10c-3,-4 -6,-9 -8,-14l0 0z"/>
    <path class="fil84" d="M1182 308l12 15 74 -50c-12,2 -24,2 -36,1l-50 34 0 0zm-3 -34c-7,5 -12,13 -12,13l3 4c13,-7 26,-14 39,-22 -5,-2 -10,-4 -15,-6 -5,4 -11,8 -14,10 0,0 -1,0 -1,1l0 0zm-49 -36l19 26c0,0 4,0 10,-3 4,-2 9,-6 10,-7 1,-1 1,-1 1,-1 -9,8 -12,11 -13,12 -3,3 -3,5 -3,5l7 9c1,0 10,-2 20,-8 3,-2 7,-5 12,-8 -18,-9 -34,-21 -49,-36l-14 11 0 0zm-23 -61l-16 13 2 -1 9 12 13 -10c-3,-4 -6,-9 -8,-14l0 0z"/>
    <path class="fil85" d="M1182 308l12 15 74 -50c-12,2 -24,2 -36,1l-50 34 0 0zm-3 -34c-7,5 -12,13 -12,13l3 4c13,-7 26,-14 39,-22 -5,-2 -10,-4 -15,-6 -5,4 -11,8 -14,10 0,0 -1,0 -1,1l0 0zm-49 -36l19 26c0,0 4,0 10,-3 4,-2 9,-6 10,-7 1,-1 1,-1 1,-1 -9,8 -12,11 -13,12 -3,3 -3,5 -3,5l7 9c1,0 10,-2 20,-8 3,-2 7,-5 12,-8 -18,-9 -34,-21 -49,-36l-14 11 0 0zm-23 -61l-16 13 2 -1 9 12 13 -10c-3,-4 -6,-9 -8,-14l0 0z"/>
    <path class="fil86" d="M1140 223c-6,5 -11,8 -13,10l3 5 14 -11c-1,-1 -3,-3 -4,-4l0 0zm-6 -6c-4,3 -8,7 -12,10l3 5c4,-3 9,-7 14,-10 -2,-2 -3,-4 -5,-5l0 0zm-19 -26l-13 10 19 25 13 -10c-4,-5 -8,-10 -12,-15 -3,-3 -5,-7 -7,-10l0 0z"/>
    <path class="fil87" d="M1140 223c-6,5 -11,8 -13,10l3 5 14 -11c-1,-1 -3,-3 -4,-4l0 0zm-6 -6c-4,3 -8,7 -12,10l3 5c4,-3 9,-7 14,-10 -2,-2 -3,-4 -5,-5l0 0zm-19 -26l-13 10 19 25 13 -10c-4,-5 -8,-10 -12,-15 -3,-3 -5,-7 -7,-10l0 0z"/>
    <path class="fil88" d="M1178 301l4 7 50 -34c-4,0 -8,-1 -12,-2 -20,14 -37,25 -42,29l0 0zm-8 -10l6 9 41 -29c-3,0 -5,-1 -8,-2 -13,8 -26,15 -39,22l0 0z"/>
    <path class="fil89" d="M1178 301l4 7 50 -34c-4,0 -8,-1 -12,-2 -20,14 -37,25 -42,29l0 0zm-8 -10l6 9 41 -29c-3,0 -5,-1 -8,-2 -13,8 -26,15 -39,22l0 0z"/>
    <path class="fil90" d="M1178 301l4 7 50 -34c-4,0 -8,-1 -12,-2 -20,14 -37,25 -42,29l0 0zm-8 -10l6 9 41 -29c-3,0 -5,-1 -8,-2 -13,8 -26,15 -39,22l0 0z"/>
    <path class="fil91" d="M1178 301l4 7 50 -34c-4,0 -8,-1 -12,-2 -20,14 -37,25 -42,29l0 0zm-8 -10l6 9 41 -29c-3,0 -5,-1 -8,-2 -13,8 -26,15 -39,22l0 0z"/>
    <path class="fil92" d="M1176 300l41 -29c1,1 2,1 3,1 -20,14 -37,25 -42,29l-2 -1 0 0z"/>
    <path class="fil93" d="M1134 216c0,0 0,0 0,1 -4,3 -8,7 -12,10l-1 -1 13 -10 0 0z"/>
    <path class="fil94" d="M1134 216c0,0 0,0 0,1 -4,3 -8,7 -12,10l-1 -1 13 -10 0 0z"/>
    <path class="fil95" d="M1134 216c0,0 0,0 0,1 -4,3 -8,7 -12,10l-1 -1 13 -10 0 0z"/>
    <path class="fil96" d="M1134 216c0,0 0,0 0,1 -4,3 -8,7 -12,10l-1 -1 13 -10 0 0z"/>
    <path class="fil97" d="M1125 232c4,-3 9,-7 14,-10 0,0 1,0 1,1 -6,5 -11,8 -13,10l-2 -1 0 0z"/>
    <path class="fil98" d="M1125 232c4,-3 9,-7 14,-10 0,0 1,0 1,1 -6,5 -11,8 -13,10l-2 -1 0 0z"/>
    <path class="fil99" d="M1125 232c4,-3 9,-7 14,-10 0,0 1,0 1,1 -6,5 -11,8 -13,10l-2 -1 0 0z"/>
    <path class="fil100" d="M1125 232c4,-3 9,-7 14,-10 0,0 1,0 1,1 -6,5 -11,8 -13,10l-2 -1 0 0z"/>
    <path class="fil101" d="M1161 279c0,0 0,0 0,0 1,0 10,-2 20,-8 3,-2 7,-5 12,-8 1,0 1,0 1,0 -5,4 -11,8 -14,10 0,0 -1,0 -1,1 -7,5 -12,13 -12,13l0 0 -6 -8 0 0z"/>
    <path class="fil102" d="M1161 279c0,0 0,0 0,0 1,0 10,-2 20,-8 3,-2 7,-5 12,-8 1,0 1,0 1,0 -5,4 -11,8 -14,10 0,0 -1,0 -1,1 -7,5 -12,13 -12,13l0 0 -6 -8 0 0z"/>
    <path class="fil103" d="M1161 279c0,0 0,0 0,0 1,0 10,-2 20,-8 3,-2 7,-5 12,-8 1,0 1,0 1,0 -5,4 -11,8 -14,10 0,0 -1,0 -1,1 -7,5 -12,13 -12,13l0 0 -6 -8 0 0z"/>
    <path class="fil104" d="M1161 279c0,0 0,0 0,0 1,0 10,-2 20,-8 3,-2 7,-5 12,-8 1,0 1,0 1,0 -5,4 -11,8 -14,10 0,0 -1,0 -1,1 -7,5 -12,13 -12,13l0 0 -6 -8 0 0z"/>
    <path class="fil105" d="M1161 279c0,0 0,0 0,0 1,0 10,-2 20,-8 3,-2 7,-5 12,-8 1,0 1,0 1,0 -5,4 -11,8 -14,10 0,0 -1,0 -1,1 -7,5 -12,13 -12,13l0 0 -6 -8 0 0z"/>
    <path class="fil106" d="M1149 264l0 0c0,0 4,0 10,-3 4,-2 9,-6 10,-7 1,-1 1,-1 1,-1 -9,8 -12,11 -13,12 -3,3 -3,5 -3,5l0 0 -5 -6 0 0z"/>
    <path class="fil107" d="M1149 264l0 0c0,0 4,0 10,-3 4,-2 9,-6 10,-7 1,-1 1,-1 1,-1 -9,8 -12,11 -13,12 -3,3 -3,5 -3,5l0 0 -5 -6 0 0z"/>
    <path class="fil108" d="M1149 264l0 0c0,0 4,0 10,-3 4,-2 9,-6 10,-7 1,-1 1,-1 1,-1 -9,8 -12,11 -13,12 -3,3 -3,5 -3,5l0 0 -5 -6 0 0z"/>
    <path class="fil109" d="M1149 264l0 0c0,0 4,0 10,-3 4,-2 9,-6 10,-7 1,-1 1,-1 1,-1 -9,8 -12,11 -13,12 -3,3 -3,5 -3,5l0 0 -5 -6 0 0z"/>
    <path class="fil110" d="M1149 264l0 0c0,0 4,0 10,-3 4,-2 9,-6 10,-7 1,-1 1,-1 1,-1 -9,8 -12,11 -13,12 -3,3 -3,5 -3,5l0 0 -5 -6 0 0z"/>
    <path class="fil111" d="M1373 130l5 6c-7,4 -26,16 -42,28 -20,15 -103,72 -103,72 0,0 90,-67 103,-76 11,-8 31,-23 37,-30z"/>
    <path class="fil112" d="M1373 130l5 6c-7,4 -26,16 -42,28 -20,15 -103,72 -103,72 0,0 90,-67 103,-76 11,-8 31,-23 37,-30z"/>
    <path class="fil113" d="M1373 130l5 6c-7,4 -26,16 -42,28 -20,15 -103,72 -103,72 0,0 90,-67 103,-76 11,-8 31,-23 37,-30z"/>
    <path class="fil114" d="M352 1112c17,-20 58,-48 104,-39 47,10 68,45 65,68 -3,24 -9,22 -27,16 -19,-7 -43,-32 -78,-18 -34,14 -43,33 -64,26 -21,-8 -12,-37 0,-53z"/>
    <path class="fil18" d="M445 1084c-11,-4 -36,-6 -66,16 -23,17 -34,37 -28,42 10,7 17,-18 42,-34 22,-15 33,-22 52,-24z"/>
    <path class="fil115" d="M436 1129c-18,-2 -36,10 -54,24 -16,12 -30,10 -35,9 2,1 3,2 5,3 21,7 30,-12 64,-26 14,-5 25,-5 36,-2 -3,-4 -8,-7 -16,-8z"/>
    <path class="fil18" d="M520 1152c-3,19 -18,55 -52,64 -46,13 -53,-24 -47,-47 6,-23 30,-51 60,-49 30,2 41,18 39,32z"/>
    <path class="fil116" d="M471 1208c16,-4 28,-15 36,-27 -16,16 -37,19 -58,11 -19,-7 -25,-17 -26,-21 -2,22 8,48 48,37z"/>
    <path class="fil117" d="M611 1122c27,-27 90,-22 113,18 23,39 -14,105 -80,105 -67,1 -86,-72 -33,-123z"/>
    <path class="fil118" d="M726 1176c-1,1 -2,3 -3,4 -7,13 -32,45 -73,47 -32,3 -57,-17 -65,-25 7,23 27,39 58,39 45,0 76,-33 83,-65z"/>
    <path class="fil119" d="M618 1091c-10,3 -34,14 -22,63 13,50 77,55 105,33 28,-21 26,-50 15,-63 -9,-11 -21,-1 -43,13 -11,7 -33,0 -29,-23 3,-14 -18,-26 -26,-23z"/>
    <path class="fil120" d="M641 1134c-5,-8 -6,-22 -10,-29 -5,-7 -20,0 -14,23 4,14 27,49 64,36 21,-7 33,-28 33,-28 0,0 -48,42 -73,-2z"/>
    <path class="fil121" d="M1035 472c18,-29 38,-45 80,-44 42,1 96,50 95,102 -2,51 -42,75 -80,66 -27,-7 -25,-28 -65,-38 -30,-7 -48,-56 -30,-86z"/>
    <path class="fil122" d="M1148 592c0,0 33,-6 46,-30 12,-25 8,-63 -6,-84 -14,-20 -27,-29 -27,-29 0,0 29,32 30,75 2,34 -17,55 -43,68z"/>
    <path class="fil123" d="M1134 444c-10,-4 -41,-8 -65,19 -20,23 -16,61 6,79 40,31 70,3 66,-14 -5,-24 -16,-17 -25,-25 -6,-5 -4,-10 0,-13 5,-5 10,-5 20,-4 24,2 23,-32 -2,-42z"/>
    <path class="fil124" d="M1125 449c0,0 -28,-2 -48,17 -15,14 -17,36 -10,45 7,10 10,0 11,-15 1,-15 12,-38 47,-47z"/>
    <path class="fil12" d="M551 718c6,9 15,16 25,22l475 -160 -21 -62 -491 166c1,8 4,21 12,34z"/>
    <path class="fil14" d="M542 697l492 -166 -4 -13 -491 166c1,3 1,8 3,13z"/>
    <path class="fil16" d="M576 740l475 -160 -8 -25 -490 166c6,8 14,14 23,19z"/>
    <path class="fil125" d="M1042 555c-4,-1 -7,-5 -9,-10 -2,-7 0,-13 1,-14 -5,-1 -9,-7 -10,-11 3,-1 3,-1 6,-2l7 0 20 59 -6 3c-2,1 -8,-4 -10,-10 -2,-7 0,-13 1,-15z"/>
    <path class="fil126" d="M1042 555c-4,-1 -7,-5 -9,-10 -2,-7 0,-13 1,-14 -5,-1 -9,-7 -10,-11 3,-1 3,-1 6,-2l7 0 20 59 -6 3c-2,1 -8,-4 -10,-10 -2,-7 0,-13 1,-15z"/>
    <path class="fil127" d="M1026 519c3,-1 3,-1 5,-1l139 -12 -117 73c-2,0 -8,-4 -10,-10 -2,-7 1,-13 2,-15 -1,0 -3,-1 -4,-1 -2,-2 -5,-5 -6,-9 -3,-6 0,-13 2,-14 -5,-1 -10,-7 -11,-11z"/>
    <path class="fil128" d="M1045 554c-1,0 -3,-1 -4,-1 -1,-1 -3,-3 -4,-4l133 -43 -117 73c-2,0 -8,-4 -10,-10 -2,-7 1,-13 2,-15z"/>
    <path class="fil129" d="M1170 506l-126 66c0,-1 -1,-2 -1,-3 0,-1 0,-2 -1,-3l128 -60z"/>
    <path class="fil130" d="M1032 527c-1,0 124,-19 138,-21l-136 29c1,-3 2,-4 3,-5 -2,0 -4,-1 -5,-3z"/>
    <path class="fil131" d="M1170 506l-46 29c-10,1 -21,-11 -21,-24l67 -5z"/>
    <path class="fil132" d="M1117 534c-1,-1 -2,-1 -2,-2l55 -26 -53 28z"/>
    <path class="fil133" d="M1170 506l-62 20c-3,-4 -5,-9 -5,-14l67 -6z"/>
    <path class="fil134" d="M1170 506l-65 14c0,-1 -1,-3 -1,-4l66 -10z"/>
    <path class="fil135" d="M834 1127c-19,-9 -41,-21 -32,-43 14,-35 71,-34 107,-17 36,17 61,60 35,83 -27,23 -90,51 -59,65 30,15 30,42 -1,46 -32,4 -91,-35 -65,-75 27,-41 44,-46 15,-59z"/>
    <path class="fil136" d="M817 1090c1,-12 21,-28 49,-27 26,1 34,8 46,15 8,5 18,15 18,15 0,0 -37,-18 -62,-9 -25,8 -26,18 -35,20 -8,2 -17,-5 -16,-14z"/>
    <path class="fil137" d="M896 1147c0,0 -37,3 -59,30 -13,15 -15,27 -10,45 5,13 27,20 27,20 0,0 -23,-18 -14,-45 7,-24 35,-38 56,-50z"/>
    <path class="fil138" d="M885 1216c0,-1 0,-1 0,-1 -31,-14 32,-42 59,-65 2,-1 3,-3 5,-5 -8,6 -26,19 -44,27 -16,8 -29,16 -33,25 -3,6 1,13 13,19z"/>
    <path class="fil139" d="M885 1216c0,-1 0,-1 0,-1 -31,-14 32,-42 59,-65 2,-1 3,-3 5,-5 -8,6 -26,19 -44,27 -16,8 -29,16 -33,25 -3,6 1,13 13,19z"/>
    <path class="fil140" d="M1039 1129c-23,-20 -61,-77 -1,-134 64,-61 143,6 143,57 1,44 -31,65 -45,68 -15,3 -28,-7 -24,-22 3,-14 17,-33 5,-53 -10,-17 -47,-10 -51,21 -6,41 18,40 9,54 -9,15 -26,18 -36,9z"/>
    <path class="fil141" d="M1068 1020c-24,4 -45,24 -36,50 9,25 43,48 74,14 30,-35 -2,-70 -38,-64z"/>
    <path class="fil142" d="M1065 1094c0,0 -39,-13 -21,-51 10,-23 32,-19 36,-17 4,3 5,10 -7,13 -12,3 -23,10 -23,29 0,16 15,26 15,26z"/>
    <path class="fil143" d="M1046 1130c0,0 -46,-42 -29,-90 16,-48 49,-58 64,-63 8,-2 33,0 48,7 15,7 18,13 18,13 0,0 -37,-21 -71,-5 -30,14 -56,47 -54,85 2,27 24,53 24,53z"/>
    <path class="fil144" d="M1120 1109c0,0 28,8 42,-14 14,-22 14,-47 11,-54 -2,-7 -5,-13 -5,-13 0,0 7,27 -10,53 -16,27 -38,28 -38,28z"/>
    <path class="fil145" d="M1153 872c0,0 45,-42 104,-24 65,19 89,82 42,125 -47,43 -68,8 -69,-15 -1,-23 7,-37 -14,-54 -15,-12 -39,-17 -59,-13 -17,4 -18,-9 -4,-19z"/>
    <path class="fil146" d="M1189 854c17,-7 43,-8 67,1 37,13 44,43 44,43 0,0 -33,-35 -72,-34 -40,0 -44,14 -55,8 -11,-5 7,-14 16,-18z"/>
    <path class="fil147" d="M1313 906c-1,9 -6,41 -28,58 -25,20 -42,12 -48,8 0,0 0,0 0,0 8,15 26,24 57,-4 20,-18 25,-41 19,-62z"/>
    <path class="fil148" d="M1313 906c-1,9 -6,41 -28,58 -25,20 -42,12 -48,8 0,0 0,0 0,0 8,15 26,24 57,-4 20,-18 25,-41 19,-62z"/>
    <path class="fil149" d="M1262 632c-26,-14 -94,6 -86,60 7,59 55,88 110,68 54,-20 78,-63 43,-75 -46,-17 -25,-31 -67,-53z"/>
    <path class="fil150" d="M1246 633c-12,0 -40,6 -54,35 -13,29 1,59 24,77 16,13 32,10 32,10 0,0 -45,-21 -44,-56 1,-34 31,-43 41,-45 11,-1 18,-3 17,-9 0,-6 -9,-11 -16,-12z"/>
    <path class="fil151" d="M1329 685c-27,-10 -31,-19 -38,-29 3,14 0,32 -13,43 -14,12 -26,12 -26,12 0,0 3,3 12,1 8,-2 22,-8 36,-17 14,-11 26,-10 31,-9 -1,-1 -1,-1 -2,-1z"/>
    <path class="fil152" d="M1289 758c50,-19 72,-58 43,-72 2,2 12,10 7,25 -4,11 -19,30 -33,38 -6,3 -12,6 -17,9z"/>
   </g>
  </g>
 </g>
</svg>
