<?xml version="1.0" encoding="UTF-8"?>
<!DOCTYPE svg PUBLIC "-//W3C//DTD SVG 1.1//EN" "http://www.w3.org/Graphics/SVG/1.1/DTD/svg11.dtd">
<!-- Creator: CorelDRAW X7 -->
<svg xmlns="http://www.w3.org/2000/svg" xml:space="preserve" width="15.3079mm" height="13.9164mm" version="1.1" style="shape-rendering:geometricPrecision; text-rendering:geometricPrecision; image-rendering:optimizeQuality; fill-rule:evenodd; clip-rule:evenodd"
viewBox="0 0 144347 131226"
 xmlns:xlink="http://www.w3.org/1999/xlink">
 <defs>
  <style type="text/css">
   <![CDATA[
    .fil8 {fill:#FEFEFE;fill-rule:nonzero}
    .fil25 {fill:#373435;fill-rule:nonzero}
    .fil35 {fill:#FEF0E1;fill-rule:nonzero}
    .fil28 {fill:#FCD3C2;fill-rule:nonzero}
    .fil13 {fill:#FDD1A1;fill-rule:nonzero}
    .fil32 {fill:#FAA954;fill-rule:nonzero}
    .fil27 {fill:#F6997E;fill-rule:nonzero}
    .fil29 {fill:#F5886C;fill-rule:nonzero}
    .fil14 {fill:#F58634;fill-rule:nonzero}
    .fil34 {fill:#F3755B;fill-rule:nonzero}
    .fil26 {fill:#ED3237;fill-rule:nonzero}
    .fil16 {fill:#E95637;fill-rule:nonzero}
    .fil33 {fill:#D83337;fill-rule:nonzero}
    .fil30 {fill:#E0F2F4;fill-rule:nonzero}
    .fil31 {fill:#B93538;fill-rule:nonzero}
    .fil18 {fill:#C8CFD2;fill-rule:nonzero}
    .fil21 {fill:#C3C8C9;fill-rule:nonzero}
    .fil19 {fill:#BAC0C2;fill-rule:nonzero}
    .fil17 {fill:#ABB1B4;fill-rule:nonzero}
    .fil24 {fill:#959798;fill-rule:nonzero}
    .fil23 {fill:#989DA0;fill-rule:nonzero}
    .fil20 {fill:#949A9D;fill-rule:nonzero}
    .fil22 {fill:#6C7070;fill-rule:nonzero}
    .fil15 {fill:red;fill-rule:nonzero}
    .fil0 {fill:black;fill-opacity:0.580392}
    .fil2 {fill:url(#id0)}
    .fil3 {fill:url(#id1)}
    .fil4 {fill:url(#id2)}
    .fil9 {fill:url(#id3)}
    .fil1 {fill:url(#id4)}
    .fil10 {fill:url(#id5)}
    .fil7 {fill:url(#id6)}
    .fil5 {fill:url(#id7)}
    .fil6 {fill:url(#id8)}
    .fil11 {fill:url(#id9)}
    .fil12 {fill:url(#id10)}
   ]]>
  </style>
  <linearGradient id="id0" gradientUnits="userSpaceOnUse" x1="105515" y1="95224.8" x2="12426.3" y2="95224.8">
   <stop offset="0" style="stop-opacity:1; stop-color:#EEEEEE"/>
   <stop offset="0.0784314" style="stop-opacity:1; stop-color:#FEFEFE"/>
   <stop offset="0.65098" style="stop-opacity:1; stop-color:#C7C8C9"/>
   <stop offset="0.878431" style="stop-opacity:1; stop-color:#D9D8D8"/>
   <stop offset="1" style="stop-opacity:1; stop-color:#E8E7E8"/>
  </linearGradient>
  <linearGradient id="id1" gradientUnits="userSpaceOnUse" x1="103025" y1="111027" x2="15539" y2="111027">
   <stop offset="0" style="stop-opacity:1; stop-color:#C1C0C1"/>
   <stop offset="0.0784314" style="stop-opacity:1; stop-color:#F7F5F5"/>
   <stop offset="0.368627" style="stop-opacity:1; stop-color:#B4B4B4"/>
   <stop offset="0.65098" style="stop-opacity:1; stop-color:#5B6262"/>
   <stop offset="0.878431" style="stop-opacity:1; stop-color:#8E9090"/>
   <stop offset="1" style="stop-opacity:1; stop-color:#C3C4C6"/>
  </linearGradient>
  <linearGradient id="id2" gradientUnits="userSpaceOnUse" x1="101048" y1="122878" x2="17991.7" y2="122878">
   <stop offset="0" style="stop-opacity:1; stop-color:#9C9D9E"/>
   <stop offset="1" style="stop-opacity:1; stop-color:#3D4444"/>
  </linearGradient>
  <linearGradient id="id3" gradientUnits="userSpaceOnUse" xlink:href="#id2" x1="107639" y1="42736.8" x2="9972.75" y2="42736.8">
  </linearGradient>
  <linearGradient id="id4" gradientUnits="userSpaceOnUse" xlink:href="#id1" x1="107639" y1="83251.1" x2="9972.75" y2="83251.1">
  </linearGradient>
  <linearGradient id="id5" gradientUnits="userSpaceOnUse" x1="105515" y1="67233.1" x2="12462.2" y2="67233.1">
   <stop offset="0" style="stop-opacity:1; stop-color:#C7C8C9"/>
   <stop offset="0.65098" style="stop-opacity:1; stop-color:#5B6262"/>
   <stop offset="1" style="stop-opacity:1; stop-color:#5B6262"/>
  </linearGradient>
  <linearGradient id="id6" gradientUnits="userSpaceOnUse" xlink:href="#id5" x1="106357" y1="56817.1" x2="11437.2" y2="56817.1">
  </linearGradient>
  <linearGradient id="id7" gradientUnits="userSpaceOnUse" x1="103731" y1="98635.5" x2="15028.9" y2="98635.5">
   <stop offset="0" style="stop-opacity:1; stop-color:#C3C4C6"/>
   <stop offset="0.0784314" style="stop-opacity:1; stop-color:#FEFEFE"/>
   <stop offset="0.458824" style="stop-opacity:1; stop-color:#A4A4A4"/>
   <stop offset="0.878431" style="stop-opacity:1; stop-color:#C7C6C6"/>
   <stop offset="1" style="stop-opacity:1; stop-color:#E0E1E2"/>
  </linearGradient>
  <linearGradient id="id8" gradientUnits="userSpaceOnUse" x1="107948" y1="53175.4" x2="9769.07" y2="53175.4">
   <stop offset="0" style="stop-opacity:1; stop-color:#C3C4C6"/>
   <stop offset="0.0784314" style="stop-opacity:1; stop-color:#FEFEFE"/>
   <stop offset="0.65098" style="stop-opacity:1; stop-color:#A4A4A4"/>
   <stop offset="0.878431" style="stop-opacity:1; stop-color:#C7C6C6"/>
   <stop offset="1" style="stop-opacity:1; stop-color:#E0E1E2"/>
  </linearGradient>
  <linearGradient id="id9" gradientUnits="userSpaceOnUse" xlink:href="#id7" x1="105442" y1="66924.7" x2="12462.2" y2="66924.7">
  </linearGradient>
  <linearGradient id="id10" gradientUnits="userSpaceOnUse" xlink:href="#id5" x1="102805" y1="100564" x2="15794.6" y2="100564">
  </linearGradient>
 </defs>
 <g id="Layer_x0020_1">
  <metadata id="CorelCorpID_0Corel-Layer"/>
  <g id="_2012228832">
   <path class="fil0" d="M38567 88255l-14954 35077 74 0 -47 13c-2470,3783 13826,7376 36715,7376 22852,0 43835,-3593 46305,-7376l9 -13 74 0 29419 -34967 -27 40c3121,-1133 4476,-2144 4750,-2731l3228 -4944c-31,45 -75,89 -136,134 34,-45 70,-89 99,-134 2907,-4454 -17936,-8087 -46355,-8087 -28441,0 -53983,3630 -56911,8080l6 -8 -9 15 -3220 4930c-465,601 -429,1557 971,2609l9 -14z"/>
   <g>
    <path class="fil1" d="M9972 35276l7946 79254 74 0 -37 31c0,8548 18640,16665 41528,16665 22852,0 41491,-8117 41491,-16665l0 -31 74 0 6591 -79008c-7068,7099 -26257,12253 -48705,12253 -22705,0 -42078,-5247 -48962,-12499z"/>
    <path class="fil2" d="M12425 59224l5493 55306 74 0 -37 31c0,8548 18640,16665 41528,16665 22852,0 41491,-8117 41491,-16665l0 -31 74 0 4467 -53762c-6995,6326 -24645,11419 -46032,11542 -23072,0 -41601,-5894 -47058,-13086z"/>
    <path class="fil3" d="M15538 90889l2380 23641 74 0 -37 31c0,8548 18640,16665 41528,16665 22852,0 41491,-8117 41491,-16665l0 -31 74 0 1977 -23702c-4174,7746 -22228,13579 -43762,13579 -21459,0 -39477,-5802 -43725,-13518z"/>
    <path class="fil4" d="M17992 114715c219,8487 18750,16511 41491,16511 22742,0 41309,-8055 41491,-16542 -4577,7345 -21459,13981 -41528,13981 -19994,0 -36877,-6604 -41454,-13950l0 0zm83056 -185l0 0z"/>
    <path class="fil5" d="M15538 90889c-733,618 -696,1513 257,2470 109,216 256,308 439,524 5493,7252 22815,12561 43249,12561 20507,0 37866,-5370 43322,-12685 1136,-987 1246,-1975 220,-2931 -5273,7530 -22558,13517 -43762,13579 -21240,-31 -37134,-6203 -43725,-13518z"/>
    <path class="fil6" d="M10887 44812c-1062,864 -2087,2840 549,5185 7947,7160 26038,11542 48084,11542 20873,0 38891,-4197 46837,-10462 1319,-1018 2601,-2747 403,-4907l-146 1976c-8094,6048 -26513,10307 -47131,10307 -21679,0 -40906,-5062 -48376,-11696l-220 -1945z"/>
    <path class="fil7" d="M11583 51262c7068,7222 25891,12376 47900,12376 20910,0 38965,-4661 46765,-11357l109 -1204c-7982,6265 -25964,10462 -46837,10462 -22046,0 -40869,-4691 -48084,-11542l147 1265z"/>
    <path class="fil8" d="M11253 47157c10034,9691 34570,11698 48267,11698 13696,0 36144,-1976 46911,-10525l-37 -31c-11169,8117 -33105,10154 -46911,10154 -21606,0 -40759,-4999 -48303,-11635 0,92 37,247 73,339z"/>
    <path class="fil9" d="M10192 37405c13074,17036 83019,17006 97264,216l183 -2099c-7068,7099 -26257,12253 -48705,12253 -22705,0 -42078,-5247 -48962,-12499l220 2129z"/>
    <path class="fil10" d="M12755 62620c6775,6821 25159,12036 46728,12036 20618,0 38379,-4815 45776,-11203l256 -2377c-6005,6481 -24388,11790 -46032,11790 -23072,0 -42370,-5956 -47021,-13055l293 2809z"/>
    <path class="fil11" d="M12682 61941c6774,7037 25232,12097 46801,12097 20618,0 38379,-4629 45776,-11233l183 -1636c-6079,6420 -24426,11543 -45959,11543 -22924,0 -42187,-5865 -47021,-12901l220 2130z"/>
    <path class="fil12" d="M16014 95580c6115,7037 23290,12160 43469,12160 19811,0 36767,-4938 43139,-11789l183 -2192c-5456,7315 -22815,12685 -43322,12685 -20288,0 -37500,-5246 -43140,-12437 -219,-185 -402,-402 -548,-618l219 2191z"/>
    <path class="fil8" d="M15501 90457c111,93 183,186 294,278 109,216 256,309 439,494 5493,7253 22815,13178 43249,13178 20507,0 37866,-5956 43322,-13271 37,-61 111,-123 183,-185l37 -432c-7763,9197 -26183,13518 -43652,13580 -18018,30 -36072,-4569 -43908,-13950l36 308z"/>
    <path class="fil13" d="M58934 36572c28418,0 51635,-8210 51635,-18301 0,-10062 -23217,-18270 -51635,-18270 -28455,0 -51635,8208 -51635,18270 0,10091 23180,18301 51635,18301z"/>
    <path class="fil14" d="M58934 34504c27466,0 49877,-7561 49877,-16789 0,-9259 -22411,-16789 -49877,-16789 -27466,0 -49878,7530 -49878,16789 0,9228 22412,16789 49878,16789z"/>
    <path class="fil15" d="M12023 23394c6921,6450 25378,11110 46911,11110 21533,0 39917,-4629 46875,-11079 -7361,-17684 -87305,-18271 -93786,-31z"/>
    <path class="fil16" d="M105222 23949c183,-154 403,-339 587,-524 -6666,-16049 -73059,-18024 -90197,-4630 19189,-12221 81701,-10123 89610,5154z"/>
    <path class="fil17" d="M105222 64410l110 -1328c-1502,957 -5933,8364 -8496,3519 -952,-1821 -6042,-7037 -3003,-7901 5420,-1512 -4064,-2500 -5895,-2839 -2710,-741 -4505,-1266 -4651,-2191 -74,-711 915,-1729 1281,-2747 1099,0 7031,-3303 4431,-4413 -2307,-926 -5346,-1266 -7543,586 -1722,1450 -111,3642 1794,3642 0,1111 -1428,1944 -1281,3147 109,1235 3588,2130 4503,2469l3810 741c2087,401 1427,1081 475,1667 -732,462 -366,678 -183,1235 879,2623 4101,5061 5640,7684 512,895 1648,1265 2563,1265 2307,-31 5127,-2407 6445,-4536z"/>
    <path class="fil18" d="M105185 64471l111 -1389c-1575,1112 -5933,8303 -8460,3519 -72,-185 -219,-370 -329,-556 -367,123 -732,278 -1098,433 293,400 585,802 805,1203 512,895 1648,1265 2563,1265 2307,-31 5053,-2345 6408,-4475z"/>
    <path class="fil19" d="M91637 57682c842,-216 1647,-463 2453,-710 -1904,-556 -5164,-925 -6152,-1111 -221,-62 -440,-124 -660,-186 -586,124 -1208,247 -1794,372 403,122 769,246 988,307l3810 741c842,155 1245,371 1355,587z"/>
    <path class="fil20" d="M90464 59750c1063,-278 2051,-587 3040,-926 109,-31 183,-93 329,-124 110,-31 221,-62 293,-92 183,-61 366,-124 549,-186 1429,-555 770,-1049 -585,-1450 -806,247 -1611,494 -2453,710 145,339 -330,710 -880,1080 -623,401 -475,617 -293,988z"/>
    <path class="fil21" d="M86400 56354c659,-154 1317,-277 1940,-432 -146,-30 -293,-30 -402,-61 -147,-31 -329,-92 -477,-124 -586,124 -1208,247 -1831,371 330,92 586,185 770,246z"/>
    <path class="fil22" d="M80723 48515c3039,-493 5932,-1079 8679,-1789 -109,-62 -256,-155 -403,-216 -2307,-926 -5346,-1266 -7543,586 -513,432 -733,926 -733,1419z"/>
    <path class="fil23" d="M96836 68360c366,-155 733,-308 1062,-463 -366,-277 -733,-679 -1062,-1296 0,-31 0,-31 0,-31 -366,124 -696,277 -1061,401 182,247 329,494 439,710 183,278 366,494 622,679l0 0zm7031 -3796c513,-370 990,-741 1392,-1111l37 -371c-330,247 -842,803 -1429,1482z"/>
    <path class="fil19" d="M96434 67959c366,-123 695,-278 1061,-433 -256,-246 -439,-555 -659,-925 0,-31 -36,-62 -36,-62 -330,124 -696,278 -1025,402 146,246 329,493 439,740 73,123 146,216 220,278z"/>
    <path class="fil24" d="M105442 65366c1868,-740 5274,-2592 5274,-4721l-18201 -13025c0,-2777 -3187,-3703 -4724,-1110 -1208,2098 2416,3950 4175,2468l17432 11944c0,1112 -2528,3333 -4066,3333l110 1111z"/>
    <path class="fil25" d="M105442 65212c1905,-1142 4505,-2685 4505,-4383l-17872 -12653c-1501,1234 -5090,-740 -2855,-3024 -513,247 -1026,679 -1429,1358 -1244,2561 3003,3920 4175,2468l17432 11944c0,1080 -2381,3210 -3956,3333 -37,0 -73,31 -110,31l110 926z"/>
    <path class="fil8" d="M84055 78699c-73,-2222 -585,-3982 -1208,-3951 -622,62 -1099,1914 -1062,4136 37,2191 586,3981 1209,3919 622,-61 1098,-1913 1061,-4104z"/>
    <path class="fil8" d="M83690 89223c-37,-1081 -294,-1976 -624,-1913 -292,30 -512,957 -512,2068 36,1110 329,1974 623,1944 330,-31 549,-988 513,-2099z"/>
    <path class="fil26" d="M68638 47436c74,2005 -256,4536 -366,6944 -36,771 -36,1419 -36,1944 73,2376 2674,7777 585,7962 -476,31 -1428,-926 -1758,-3024 -256,-1636 111,-4043 -219,-6049 -404,-2593 -3113,-2068 -3259,1265 -37,525 -843,2994 -769,3704 329,6975 3991,20955 2197,20893 -6263,-154 -805,-11265 -3370,-20801 37,-1975 -951,-4629 -2270,-5863 -1611,-1482 -4101,-1236 -5054,2592 -329,1296 -37,7036 -329,10801 -256,3364 -1538,5402 -2161,1389 -585,-3857 3808,-13055 293,-14813 -768,-371 -3589,586 -4650,31 -3992,-2099 -3076,6481 -3076,9690 36,3179 -2638,1327 -1465,-2963 1465,-5216 -697,-7253 -5457,-7900 -1611,2870 -1135,9474 -293,15677 842,6142 2014,11914 1904,13333 -403,4846 -3588,4413 -4760,-803 -807,-3610 -330,-8702 146,-13579 439,-4969 916,-9690 0,-12313 -439,-1297 -1978,-2778 -2563,-1050 -147,432 36,1050 439,2129 549,1852 -1135,2624 -1172,957 -37,-863 -1428,-3425 -1392,-1697 36,1944 1685,4660 330,6265 -1172,1358 -2490,308 -3040,-1481 -622,-2284 2784,-7006 -878,-7964 -3882,-1018 -477,5155 -1904,6883 -1246,1481 -367,-5062 -843,-5678 -1794,-2408 -1391,4012 -1354,4567 35,1543 548,11110 -1136,10863 -2490,-339 -184,-10060 183,-11696 183,-1019 73,-1882 -256,-2901 -513,-1791 -1648,1482 -1648,2191 73,1914 73,5370 -1539,5185 -1684,-216 477,-4074 513,-6204 74,-2870 -402,-6234 -256,-8702 110,-1760 1062,-3858 2417,-5618 9447,3766 23254,6173 38562,6173 3332,0 6555,-123 9704,-339z"/>
    <path class="fil27" d="M63145 67836c477,2931 732,6234 1208,8857 220,1142 587,3734 -476,3549 -1135,-186 -1428,-1883 -1391,-3333 36,-1419 330,-2624 512,-3920 147,-1450 293,-3209 147,-5153z"/>
    <path class="fil28" d="M63694 80180c-1026,-1666 -1355,-3950 -841,-6079 -1026,1697 -623,5431 841,6079z"/>
    <path class="fil29" d="M35863 69810c-1209,2315 -1429,7469 -842,10216 330,1605 256,4351 2086,4845 2234,618 1429,-4784 1246,-5462 -916,-3858 -2856,-9352 -2490,-9599z"/>
    <path class="fil28" d="M36522 76754c549,587 1721,4476 768,3642 -1025,-864 -1318,-2870 -768,-3642z"/>
    <path class="fil30" d="M20885 61941c513,1141 439,2746 513,3981 35,586 72,1882 -330,2345 -916,958 -477,-2715 -366,-3055 147,-617 622,-2808 183,-3271z"/>
    <path class="fil31" d="M69590 62527c-548,988 -2014,772 -2087,-772 -73,-1975 330,-5462 -37,-7191 -769,-3456 -4870,-3795 -4687,2994 37,679 37,1358 74,2037 182,-1018 695,-2685 732,-3117 146,-3333 2855,-3858 3259,-1265 330,2006 -37,4413 219,6049 330,2098 1282,3055 1758,3024 734,-62 879,-771 769,-1759l0 0zm-23034 -8426c-476,-339 -916,-647 -1429,-647 -1538,-93 -621,7191 -988,8117 -550,1203 -951,586 -1135,-618 -37,62 -37,123 -73,185 -1173,4290 1501,6142 1465,2963 0,-2932 -770,-10400 2160,-10000l0 0zm-3406 2562c-623,-2715 -2526,-5093 -5676,-3425 -1611,2870 -1135,9474 -293,15677 109,865 256,1667 367,2500 -1137,-4228 -1832,-8178 -1796,-11542 37,-3580 111,-5740 1319,-7345 2783,-3889 5969,-1266 6079,4135l0 0zm16333 -2130c-769,-1295 -1904,-2931 -2855,-2963 -1539,-61 -1942,2933 -2089,4044l-146 1142c1025,-3581 3406,-3797 4980,-2345 36,30 73,61 110,122l0 0zm-5310 3797l-916 7098c-513,3858 -914,2345 -1244,617 -184,1235 -294,2315 -184,3148 623,4013 1905,1975 2161,-1389 257,-2993 110,-7221 183,-9474z"/>
    <path class="fil29" d="M22606 52435c1282,-1605 2600,-3673 4321,-3241 -5346,1204 -5713,10185 -5676,14753 0,864 952,5586 -293,5400 -623,-61 -951,-709 -1062,-1635 768,-3302 512,-6697 1245,-10061 37,-246 37,-956 0,-1636 513,-1172 1062,-2377 1465,-3580l0 0zm9045 -247c-2307,524 -2637,895 -4980,-648 1318,1327 2343,3580 4614,2284 1465,-1234 2563,-154 3332,1419l74 -123c-1136,-2376 -1208,-1851 -3040,-2932l0 0zm6482 402c952,339 1684,30 2857,555l0 0c402,216 768,709 951,1142 -1282,-1112 -2637,-1852 -4175,-1265 148,-124 257,-247 367,-432l0 0zm10913 1913c1099,61 1136,-618 2198,-186 -733,31 -2528,494 -3150,216 293,0 659,62 952,-30l0 0zm4615 -247c512,-123 915,-494 1464,-648 -513,556 -1135,1358 -2124,1666 -183,-339 -439,-617 -769,-833 512,31 989,92 1429,-185l0 0zm14464 -926c74,0 147,0 220,-31 -73,1112 -220,2346 -73,3457l-256 -30c-73,-217 -294,-773 -220,-896l74 92c-37,-832 109,-1758 255,-2592l0 0zm-6702 4938l-35 0c-550,-2191 -1466,-3549 -3150,-4660 403,62 843,340 1208,525l0 0c147,93 330,123 476,278l0 0c111,92 221,153 329,278l0 0c1026,1080 1137,2190 1172,3579l0 0zm-23400 16110c-219,-308 -257,-771 -219,-1327l219 1327z"/>
    <path class="fil31" d="M20152 41664c-256,649 -696,1327 -1062,1975 14649,5123 32666,6883 49475,6358 0,-741 110,-1482 110,-2222l0 -339c-15931,1079 -33984,-63 -48449,-5895l-74 123z"/>
    <path class="fil32" d="M110605 18271l0 11172c111,1327 -585,3611 -2966,6173l0 -94c-7068,7099 -26257,12253 -48705,12253 -22705,0 -42078,-5247 -48962,-12499l0 30c-2087,-2376 -2747,-4536 -2673,-5894l0 -11172c0,92 0,184 36,278 952,9783 23767,17653 51599,17653 27613,0 50280,-7746 51562,-17437 73,-155 109,-310 109,-463z"/>
    <path class="fil26" d="M8727 35769c658,2099 1758,4321 1538,6481 -550,4660 4540,4599 3040,371 -880,-2439 -3920,-4753 -4578,-6852z"/>
    <path class="fil33" d="M9496 37251c1025,1605 3954,7438 1318,6820 -110,0 -257,-30 -366,-30 256,802 1794,2592 2893,956 805,-2531 -2307,-5247 -3845,-7746z"/>
    <path class="fil34" d="M10852 43176c-184,309 -112,648 0,1019 255,802 1134,648 987,-216 -73,-309 -220,-741 -549,-895 -256,-124 -293,61 -438,92z"/>
    <path class="fil35" d="M10960 43207c-146,309 -73,587 0,895 110,247 257,371 404,432 -147,-92 -220,-216 -294,-432 -110,-308 -183,-617 -73,-895 0,0 0,0 -37,0z"/>
    <path class="fil13" d="M82335 41695c-37,-401 -330,-710 -660,-679 -293,0 -548,339 -512,741 36,370 329,679 659,679 293,-31 549,-339 513,-741z"/>
    <path class="fil26" d="M109069 39956c659,2098 1758,4321 1538,6481 -549,4660 4542,4599 3040,371 -879,-2439 -3919,-4754 -4578,-6852z"/>
    <path class="fil33" d="M109838 41437c1026,1605 3956,7438 1318,6821 -110,0 -255,-31 -366,-31 256,802 1795,2592 2893,957 806,-2531 -2307,-5247 -3845,-7747z"/>
    <path class="fil34" d="M111194 47363c-184,308 -110,648 0,1018 255,803 1134,648 988,-216 -73,-309 -220,-741 -550,-894 -256,-124 -292,61 -438,92z"/>
    <path class="fil35" d="M111303 47393c-147,309 -72,587 0,896 110,246 257,371 403,432 -146,-93 -219,-216 -293,-432 -110,-309 -182,-618 -73,-896 0,0 0,0 -37,0z"/>
    <path class="fil26" d="M109069 51678c982,3128 2620,6439 2292,9659 -819,6946 6767,6853 4531,551 -1311,-3633 -5841,-7082 -6823,-10210z"/>
    <path class="fil33" d="M110215 53885c1528,2393 5894,11086 1964,10166 -164,0 -382,-47 -545,-47 381,1196 2674,3865 4311,1426 1202,-3771 -3438,-7819 -5730,-11545z"/>
    <path class="fil34" d="M112235 62716c-274,460 -164,967 0,1518 381,1196 1692,966 1473,-321 -110,-460 -327,-1104 -819,-1334 -382,-184 -436,92 -654,137z"/>
    <path class="fil35" d="M112398 62762c-219,461 -108,875 0,1335 164,368 382,552 601,644 -219,-139 -328,-323 -437,-644 -164,-460 -272,-921 -109,-1335 0,0 0,0 -55,0z"/>
    <path class="fil26" d="M7237 46235c-981,3128 -2618,6440 -2291,9659 818,6946 -6768,6853 -4531,553 1311,-3635 5841,-7084 6822,-10212z"/>
    <path class="fil33" d="M6092 48443c-1528,2392 -5894,11085 -1965,10165 164,0 382,-45 546,-45 -382,1195 -2674,3863 -4312,1425 -1200,-3772 3439,-7820 5731,-11545z"/>
    <path class="fil34" d="M4072 57274c273,461 165,966 0,1518 -381,1196 -1691,966 -1473,-322 109,-460 328,-1104 818,-1334 383,-184 437,92 655,138z"/>
    <path class="fil35" d="M3909 57321c218,459 108,873 0,1333 -164,368 -382,553 -600,644 218,-138 326,-322 436,-644 164,-460 272,-919 109,-1333 0,0 0,0 55,0z"/>
    <path class="fil26" d="M13560 60888c-1368,4357 -3649,8971 -3192,13457 1140,9677 -9430,9548 -6313,768 1826,-5061 8137,-9868 9505,-14225z"/>
    <path class="fil33" d="M11964 63964c-2129,3331 -8212,15444 -2737,14162 229,0 533,-64 760,-64 -531,1665 -3726,5382 -6007,1986 -1673,-5254 4790,-10894 7984,-16084z"/>
    <path class="fil34" d="M9150 76268c381,640 229,1345 0,2114 -531,1666 -2356,1345 -2052,-448 151,-641 456,-1538 1141,-1859 531,-256 608,128 911,193z"/>
    <path class="fil35" d="M8923 76332c304,640 151,1217 0,1857 -228,513 -533,771 -837,898 304,-192 455,-449 609,-898 228,-640 379,-1281 152,-1857 0,0 0,0 76,0z"/>
    <path class="fil26" d="M25211 67836c-432,4492 -1709,9374 -319,13721 3154,9354 -7276,10802 -6051,1697 735,-5255 5938,-10926 6370,-15418z"/>
    <path class="fil33" d="M24286 71101c-1397,3597 -4842,16425 277,14347 226,-35 511,-142 736,-176 -174,1719 -2538,5853 -5496,2850 -2750,-4923 2429,-11437 4483,-17021z"/>
    <path class="fil34" d="M24097 83630c510,574 509,1290 444,2081 -173,1719 -2036,1676 -2114,-135 15,-654 127,-1582 733,-2000 471,-331 626,36 937,54z"/>
    <path class="fil35" d="M23888 83727c434,586 404,1176 389,1830 -116,538 -362,836 -634,1007 258,-235 353,-509 410,-973 90,-665 104,-1319 -240,-1852 0,0 0,0 75,-12z"/>
    <path class="fil26" d="M77343 67836c431,4492 1708,9374 318,13721 -3153,9354 7276,10802 6051,1697 -734,-5255 -5938,-10926 -6369,-15418z"/>
    <path class="fil33" d="M78268 71101c1396,3597 4842,16425 -278,14347 -226,-35 -511,-142 -735,-176 173,1719 2537,5853 5495,2850 2750,-4923 -2429,-11437 -4482,-17021z"/>
    <path class="fil34" d="M78456 83630c-510,574 -508,1290 -444,2081 174,1719 2037,1676 2114,-135 -15,-654 -126,-1582 -733,-2000 -470,-331 -626,36 -937,54z"/>
    <path class="fil35" d="M78665 83727c-433,586 -403,1176 -389,1830 117,538 362,836 635,1007 -259,-235 -354,-509 -411,-973 -89,-665 -103,-1319 241,-1852 0,0 0,0 -76,-12z"/>
   </g>
  </g>
 </g>
</svg>
