<?xml version="1.0" encoding="UTF-8"?>
<!DOCTYPE svg PUBLIC "-//W3C//DTD SVG 1.1//EN" "http://www.w3.org/Graphics/SVG/1.1/DTD/svg11.dtd">
<!-- Creator: CorelDRAW X7 -->
<svg xmlns="http://www.w3.org/2000/svg" xml:space="preserve" width="18.8666mm" height="18.1842mm" version="1.1" style="shape-rendering:geometricPrecision; text-rendering:geometricPrecision; image-rendering:optimizeQuality; fill-rule:evenodd; clip-rule:evenodd"
viewBox="0 0 430751 415171"
 xmlns:xlink="http://www.w3.org/1999/xlink">
 <defs>
  <style type="text/css">
   <![CDATA[
    .fil2 {fill:#B3B3B3}
    .fil3 {fill:white}
    .fil0 {fill:url(#id0)}
    .fil1 {fill:url(#id1)}
   ]]>
  </style>
  <linearGradient id="id0" gradientUnits="userSpaceOnUse" x1="215376" y1="8303.78" x2="215376" y2="406867">
   <stop offset="0" style="stop-opacity:1; stop-color:gray"/>
   <stop offset="1" style="stop-opacity:1; stop-color:#FFF7F7"/>
  </linearGradient>
  <linearGradient id="id1" gradientUnits="userSpaceOnUse" x1="215376" y1="374823" x2="215376" y2="40347.7">
   <stop offset="0" style="stop-opacity:1; stop-color:#848585"/>
   <stop offset="1" style="stop-opacity:1; stop-color:#E5E6E5"/>
  </linearGradient>
 </defs>
 <g id="Layer_x0020_1">
  <metadata id="CorelCorpID_0Corel-Layer"/>
  <path class="fil0" d="M39788 49928l0 314986 0 10368 351214 0 0 -10368 0 -314986 0 -14487 -351214 0 0 14487zm-17397 363391l0 -16 -46 0c-2639,-927 -5128,-2178 -7420,-3705l0 -25 -39 0c-1651,-1103 -3199,-2350 -4623,-3720l0 -13 -14 0 -920 -920 0 -12 -14 0c-3283,-3418 -5849,-7530 -7450,-12084l0 -46 -16 0c-1196,-3425 -1849,-7098 -1849,-10916l0 -348877c0,-2683 320,-5293 927,-7795l5 0 0 -18c228,-941 497,-1870 805,-2779l128 0 0 -372c523,-1480 1144,-2916 1857,-4295l9 0 0 -16c1034,-1986 2258,-3854 3655,-5582l75 0 0 -96c1352,-1662 2861,-3194 4503,-4568l164 0 0 -135c1169,-968 2406,-1861 3701,-2665l30 0 0 -18c513,-317 1036,-623 1568,-915l299 0 0 -158c3345,-1785 7032,-3018 10930,-3573l373471 0c3279,463 6405,1409 9311,2763l0 36 71 0c609,286 1210,587 1797,907l0 25 48 0c2342,1280 4518,2835 6481,4621l0 45 48 0c628,573 1236,1169 1820,1788l0 75 71 0c5265,5624 8610,13055 8977,21227l0 351871c-130,2945 -651,5787 -1504,8491l-83 0 0 258c-493,1518 -1096,2988 -1794,4404l-71 0 0 141c-292,585 -600,1160 -927,1726l-7 0 0 12c-552,961 -1148,1888 -1790,2785l-75 0 0 101c-2687,3724 -6121,6874 -10078,9230l-185 0 0 110c-4936,2897 -10671,4555 -16772,4555l-364147 0c-3824,0 -7500,-653 -10927,-1852z"/>
  <path class="fil1" d="M58200 66460l0 281956 0 9281 314384 0 0 -9281 0 -281956 0 -12968 -314384 0 0 12968zm-15571 325286l0 -14 -42 0c-2363,-831 -4591,-1950 -6644,-3317l0 -23 -34 0c-1477,-986 -2863,-2103 -4139,-3329l0 -11 -12 0 -824 -824 0 -12 -11 0c-2941,-3059 -5235,-6740 -6669,-10817l0 -39 -14 0c-1073,-3066 -1657,-6354 -1657,-9772l0 -312295c0,-2402 287,-4737 831,-6977l4 0 0 -16c206,-843 445,-1674 722,-2489l114 0 0 -331c468,-1326 1023,-2612 1662,-3845l7 0 0 -13c927,-1779 2023,-3453 3272,-4998l68 0 0 -85c1210,-1488 2559,-2860 4030,-4091l146 0 0 -121c1048,-865 2155,-1664 3315,-2384l25 0 0 -16c461,-285 929,-559 1404,-819l270 0 0 -142c2993,-1598 6294,-2701 9783,-3199l334309 0c2934,414 5733,1263 8333,2475l0 30 64 0c546,256 1082,525 1608,813l0 23 43 0c2098,1146 4046,2539 5801,4134l0 42 44 0c564,513 1105,1045 1628,1600l0 69 64 0c4714,5032 7708,11685 8039,19000l0 314973c-119,2637 -583,5180 -1347,7600l-76 0 0 231c-440,1361 -982,2676 -1607,3943l-64 0 0 128c-260,523 -537,1036 -827,1543l-9 0 0 12c-493,858 -1027,1689 -1602,2493l-67 0 0 89c-2404,3333 -5479,6153 -9020,8263l-167 0 0 100c-4416,2591 -9550,4075 -15012,4075l-325961 0c-3423,0 -6715,-584 -9781,-1657z"/>
  <path class="fil2" d="M209654 101490l0 0c-10299,0 -18724,8425 -18724,18724l0 68650 -68647 0c-10299,0 -18724,8422 -18724,18721l0 0c0,10300 8425,18722 18724,18722l68647 0 0 68650c0,10299 8425,18724 18724,18724l0 0c10297,0 18722,-8425 18722,-18724l0 -68650 68649 0c10299,0 18722,-8422 18722,-18722l0 0c0,-10299 -8423,-18721 -18722,-18721l-68649 0 0 -68650c0,-10299 -8425,-18724 -18722,-18724z"/>
  <path class="fil3" d="M215289 101490l0 0c-10297,0 -18722,8425 -18722,18724l0 68650 -68649 0c-10300,0 -18722,8422 -18722,18721l0 0c0,10300 8422,18722 18722,18722l68649 0 0 68650c0,10299 8425,18724 18722,18724l0 0c10299,0 18724,-8425 18724,-18724l0 -68650 68647 0c10299,0 18724,-8422 18724,-18722l0 0c0,-10299 -8425,-18721 -18724,-18721l-68647 0 0 -68650c0,-10299 -8425,-18724 -18724,-18724z"/>
 </g>
</svg>
