<?xml version="1.0" encoding="UTF-8"?>
<!DOCTYPE svg PUBLIC "-//W3C//DTD SVG 1.1//EN" "http://www.w3.org/Graphics/SVG/1.1/DTD/svg11.dtd">
<!-- Creator: CorelDRAW X7 -->
<svg xmlns="http://www.w3.org/2000/svg" xml:space="preserve" width="68.0822mm" height="8.8969mm" version="1.1" style="shape-rendering:geometricPrecision; text-rendering:geometricPrecision; image-rendering:optimizeQuality; fill-rule:evenodd; clip-rule:evenodd"
viewBox="0 0 3812533 498217"
 xmlns:xlink="http://www.w3.org/1999/xlink">
 <defs>
  <style type="text/css">
   <![CDATA[
    .fil7 {fill:#B54A51;fill-rule:nonzero}
    .fil15 {fill:#84B44C;fill-rule:nonzero}
    .fil23 {fill:#4B80B4;fill-rule:nonzero}
    .fil22 {fill:url(#id0)}
    .fil14 {fill:url(#id1)}
    .fil6 {fill:url(#id2)}
    .fil21 {fill:url(#id3)}
    .fil5 {fill:url(#id4)}
    .fil13 {fill:url(#id5)}
    .fil8 {fill:url(#id6)}
    .fil9 {fill:url(#id7)}
    .fil17 {fill:url(#id8)}
    .fil1 {fill:url(#id9)}
    .fil16 {fill:url(#id10)}
    .fil20 {fill:url(#id11)}
    .fil4 {fill:url(#id12)}
    .fil12 {fill:url(#id13)}
    .fil0 {fill:url(#id14)}
    .fil2 {fill:url(#id15)}
    .fil3 {fill:url(#id16)}
    .fil18 {fill:url(#id17)}
    .fil19 {fill:url(#id18)}
    .fil11 {fill:url(#id19)}
    .fil10 {fill:url(#id20)}
   ]]>
  </style>
  <linearGradient id="id0" gradientUnits="userSpaceOnUse" x1="28374.7" y1="301050" x2="64886" y2="486508">
   <stop offset="0" style="stop-opacity:1; stop-color:#C3946E"/>
   <stop offset="0" style="stop-opacity:1; stop-color:#C3946E"/>
   <stop offset="1" style="stop-opacity:1; stop-color:#D9B28A"/>
  </linearGradient>
  <linearGradient id="id1" gradientUnits="userSpaceOnUse" xlink:href="#id0" x1="2.22236e+006" y1="301717" x2="2.25888e+006" y2="487174">
  </linearGradient>
  <linearGradient id="id2" gradientUnits="userSpaceOnUse" xlink:href="#id0" x1="1.53407e+006" y1="260115" x2="1.59963e+006" y2="433342">
  </linearGradient>
  <linearGradient id="id3" gradientUnits="userSpaceOnUse" x1="693934" y1="276125" x2="695546" y2="384998">
   <stop offset="0" style="stop-opacity:1; stop-color:#39A8D0"/>
   <stop offset="0.0117647" style="stop-opacity:1; stop-color:#39A8D0"/>
   <stop offset="1" style="stop-opacity:1; stop-color:#4B80B4"/>
  </linearGradient>
  <linearGradient id="id4" gradientUnits="userSpaceOnUse" x1="2.20322e+006" y1="162095" x2="2.20894e+006" y2="276277">
   <stop offset="0" style="stop-opacity:1; stop-color:#D04168"/>
   <stop offset="0.0117647" style="stop-opacity:1; stop-color:#D04168"/>
   <stop offset="1" style="stop-opacity:1; stop-color:#B54A51"/>
  </linearGradient>
  <linearGradient id="id5" gradientUnits="userSpaceOnUse" x1="2.88792e+006" y1="276792" x2="2.88954e+006" y2="385665">
   <stop offset="0" style="stop-opacity:1; stop-color:#ADD144"/>
   <stop offset="0.0117647" style="stop-opacity:1; stop-color:#ADD144"/>
   <stop offset="1" style="stop-opacity:1; stop-color:#84B44C"/>
  </linearGradient>
  <linearGradient id="id6" gradientUnits="userSpaceOnUse" x1="3.73299e+006" y1="221431" x2="3.73645e+006" y2="300222">
   <stop offset="0" style="stop-opacity:1; stop-color:#84B44C"/>
   <stop offset="0.0117647" style="stop-opacity:1; stop-color:#84B44C"/>
   <stop offset="0.439216" style="stop-opacity:1; stop-color:#84B44C"/>
   <stop offset="1" style="stop-opacity:1; stop-color:#4B7242"/>
  </linearGradient>
  <linearGradient id="id7" gradientUnits="userSpaceOnUse" x1="3.75981e+006" y1="243360" x2="3.76035e+006" y2="263587">
   <stop offset="0" style="stop-opacity:1; stop-color:#DDE89C"/>
   <stop offset="0.819608" style="stop-opacity:1; stop-color:#84B44C"/>
   <stop offset="1" style="stop-opacity:1; stop-color:#84B44C"/>
  </linearGradient>
  <linearGradient id="id8" gradientUnits="userSpaceOnUse" x1="1.56582e+006" y1="242694" x2="1.56636e+006" y2="262921">
   <stop offset="0" style="stop-opacity:1; stop-color:#9AD9E7"/>
   <stop offset="0.819608" style="stop-opacity:1; stop-color:#4B80B4"/>
   <stop offset="1" style="stop-opacity:1; stop-color:#4B80B4"/>
  </linearGradient>
  <linearGradient id="id9" gradientUnits="userSpaceOnUse" x1="3.0641e+006" y1="46271.9" x2="3.06554e+006" y2="67092.4">
   <stop offset="0" style="stop-opacity:1; stop-color:#E89BB8"/>
   <stop offset="0.819608" style="stop-opacity:1; stop-color:#B54A51"/>
   <stop offset="1" style="stop-opacity:1; stop-color:#B54A51"/>
  </linearGradient>
  <linearGradient id="id10" gradientUnits="userSpaceOnUse" x1="1.539e+006" y1="220765" x2="1.54246e+006" y2="299555">
   <stop offset="0" style="stop-opacity:1; stop-color:#4B80B4"/>
   <stop offset="0.0117647" style="stop-opacity:1; stop-color:#4B80B4"/>
   <stop offset="0.439216" style="stop-opacity:1; stop-color:#4B80B4"/>
   <stop offset="1" style="stop-opacity:1; stop-color:#3F4770"/>
  </linearGradient>
  <linearGradient id="id11" gradientUnits="userSpaceOnUse" x1="696717" y1="226706" x2="701454" y2="445080">
   <stop offset="0" style="stop-opacity:1; stop-color:#39A8D0"/>
   <stop offset="0.0117647" style="stop-opacity:1; stop-color:#39A8D0"/>
   <stop offset="0.439216" style="stop-opacity:1; stop-color:#4B80B4"/>
   <stop offset="1" style="stop-opacity:1; stop-color:#3F4770"/>
  </linearGradient>
  <linearGradient id="id12" gradientUnits="userSpaceOnUse" x1="2.20244e+006" y1="112440" x2="2.21678e+006" y2="335865">
   <stop offset="0" style="stop-opacity:1; stop-color:#D04168"/>
   <stop offset="0.0117647" style="stop-opacity:1; stop-color:#D04168"/>
   <stop offset="0.439216" style="stop-opacity:1; stop-color:#B54A51"/>
   <stop offset="1" style="stop-opacity:1; stop-color:#715041"/>
  </linearGradient>
  <linearGradient id="id13" gradientUnits="userSpaceOnUse" x1="2.89071e+006" y1="227373" x2="2.89544e+006" y2="445746">
   <stop offset="0" style="stop-opacity:1; stop-color:#ADD144"/>
   <stop offset="0.0117647" style="stop-opacity:1; stop-color:#ADD144"/>
   <stop offset="0.439216" style="stop-opacity:1; stop-color:#84B44C"/>
   <stop offset="1" style="stop-opacity:1; stop-color:#4B7242"/>
  </linearGradient>
  <linearGradient id="id14" gradientUnits="userSpaceOnUse" x1="3.03615e+006" y1="26084.3" x2="3.04375e+006" y2="105760">
   <stop offset="0" style="stop-opacity:1; stop-color:#B54A51"/>
   <stop offset="0.0117647" style="stop-opacity:1; stop-color:#B54A51"/>
   <stop offset="0.439216" style="stop-opacity:1; stop-color:#B54A51"/>
   <stop offset="1" style="stop-opacity:1; stop-color:#715041"/>
  </linearGradient>
  <linearGradient id="id15" gradientUnits="userSpaceOnUse" x1="3.03816e+006" y1="72328.3" x2="2.82977e+006" y2="131094">
   <stop offset="0" style="stop-opacity:1; stop-color:#C3946E"/>
   <stop offset="0" style="stop-opacity:1; stop-color:#C3946E"/>
   <stop offset="0.258824" style="stop-opacity:1; stop-color:#D9B28A"/>
   <stop offset="0.729412" style="stop-opacity:1; stop-color:#C3946E"/>
   <stop offset="1" style="stop-opacity:1; stop-color:#C3946E"/>
  </linearGradient>
  <linearGradient id="id16" gradientUnits="userSpaceOnUse" x1="2.94933e+006" y1="44776.8" x2="2.93056e+006" y2="150800">
   <stop offset="0" style="stop-opacity:1; stop-color:#C3946E"/>
   <stop offset="0" style="stop-opacity:1; stop-color:#C3946E"/>
   <stop offset="0.54902" style="stop-opacity:1; stop-color:#D9B28A"/>
   <stop offset="1" style="stop-opacity:1; stop-color:#D9B28A"/>
  </linearGradient>
  <linearGradient id="id17" gradientUnits="userSpaceOnUse" xlink:href="#id15" x1="1.54499e+006" y1="260877" x2="1.32551e+006" y2="294095">
  </linearGradient>
  <linearGradient id="id18" gradientUnits="userSpaceOnUse" xlink:href="#id16" x1="1.45517e+006" y1="216604" x2="1.428e+006" y2="333317">
  </linearGradient>
  <linearGradient id="id19" gradientUnits="userSpaceOnUse" xlink:href="#id16" x1="3.64916e+006" y1="217270" x2="3.62199e+006" y2="333983">
  </linearGradient>
  <linearGradient id="id20" gradientUnits="userSpaceOnUse" xlink:href="#id15" x1="3.73898e+006" y1="261543" x2="3.5195e+006" y2="294762">
  </linearGradient>
 </defs>
 <g id="Layer_x0020_1">
  <metadata id="CorelCorpID_0Corel-Layer"/>
  <g id="_2313908976">
   <path class="fil0" d="M3053506 102557c-11362,2167 -82839,6434 -84967,-4699l-6737 -35290c-2122,-11144 66057,-33745 77419,-35918l51418 2654c12477,1501 22248,4183 24382,15333l2727 14263c2117,11138 -4502,16687 -15842,22478l-48400 21179z"/>
   <path class="fil1" d="M3109802 54039c-1675,-4183 1669,-14257 -11379,-13557 -13048,677 -69657,3393 -75851,7728 -6210,4328 56,23357 303,24656 257,1310 86927,-18827 86927,-18827z"/>
   <path class="fil2" d="M3053601 101969c0,0 -11412,-1876 -12359,-5281 -935,-3411 8019,-17444 8019,-17444 0,0 -13747,-7246 -14968,-11323 -1215,-4071 8948,-20193 8948,-20193 0,0 -9945,-7252 -10639,-10147 -700,-2873 6619,-10931 6619,-10931l-207801 -25547c-11368,2179 -18861,12964 -16733,24097l30397 159210c2111,11133 15058,19734 26420,17567l182097 -100008z"/>
   <path class="fil3" d="M3041265 46373c-16638,-566 -189154,901 -196361,2279 -7201,1372 -10404,4110 -9620,8237 789,4116 12773,89291 17992,91497 5225,2212 11200,0 13675,-1008 2475,-1008 177758,-71796 177758,-71796 0,0 -10041,-3511 -10416,-7661 -375,-4149 10931,-18827 8948,-20193 -1976,-1355 -1976,-1355 -1976,-1355z"/>
   <path class="fil4" d="M1596917 447930c-11373,2162 -22349,-5286 -24516,-16660l-31433 -164665c-2167,-11367 5287,-22343 16666,-24510l1268998 -241686c11373,-2167 5101,4368 10528,18793 5420,14425 18995,24096 20484,29153 1495,5046 -8344,14924 -8215,23968 129,9043 7246,51950 9962,57830 2727,5874 15126,9374 16526,13910 1400,4530 -8294,31987 -6720,40213 1568,8232 9049,11076 9049,11076 896,1960 756,6782 -7795,9498l-1273534 243080z"/>
   <path class="fil5" d="M1585919 390290c-11374,2179 -22260,-4827 -24321,-15623l-11944 -62557c-2055,-10813 5482,-21313 16856,-23486l1251442 -238858c11362,-2161 32026,-5286 29971,6306 -2050,11597 -5847,5387 386,40991 6244,35615 6972,33868 13283,41730 6311,7907 -12869,10478 -24242,12639l-1251431 238858z"/>
   <polygon class="fil6" points="1515718,303940 1547503,245326 1598631,288120 1617984,389512 1586210,448132 1535066,405337 "/>
   <path class="fil7" d="M1573851 383380c-6418,1221 -14985,-15383 -19129,-37116 -4139,-21716 -2302,-40314 4121,-41534 6407,-1227 14963,15394 19113,37104 4144,21717 2307,40320 -4105,41546z"/>
  </g>
  <g id="_2313854640">
   <path class="fil8" d="M3744181 299202c-11525,1031 -83069,-1825 -84083,-13114l-3192 -35789c-1008,-11295 69080,-27009 80605,-28045l50898 7751c12269,2732 21727,6372 22735,17678l1299 14465c1003,11295 -6137,16161 -17998,20792l-50264 16262z"/>
   <path class="fil9" d="M3805018 256520c-1249,-4323 3074,-14022 -9979,-14621 -13042,-622 -69646,-3539 -76237,157 -6608,3684 -2268,23245 -2151,24566 124,1327 88367,-10102 88367,-10102z"/>
   <path class="fil10" d="M3744332 298631c0,0 -11172,-3001 -11771,-6484 -594,-3484 9716,-16559 9716,-16559 0,0 -12964,-8579 -13771,-12757 -806,-4166 10909,-19202 10909,-19202 0,0 -9178,-8204 -9581,-11155 -409,-2929 7677,-10220 7677,-10220l-204239 -46070c-11525,1042 -20054,11026 -19040,22316l14425 161445c991,11289 13026,21128 24545,20103l191130 -81417z"/>
   <path class="fil11" d="M3737584 242084c-16497,-2212 -188308,-17898 -195616,-17243 -7302,650 -10763,3058 -10393,7241 375,4172 3841,90114 8814,92830 4978,2721 11138,1114 13709,352 2564,-756 184012,-53775 184012,-53775 0,0 -9643,-4486 -9604,-8658 34,-4166 12746,-17645 10909,-19202 -1831,-1545 -1831,-1545 -1831,-1545z"/>
   <path class="fil12" d="M2260477 498133c-11525,1019 -21706,-7481 -22736,-19011l-14912 -166973c-1025,-11530 7481,-21710 19017,-22735l1286733 -114395c11536,-1025 4642,4855 8607,19745 3959,14896 16508,25866 17488,31046 986,5169 -9783,14022 -10555,23033 -768,9010 2049,52415 4160,58535 2134,6115 14129,10825 15070,15484 935,4648 -11435,31001 -10691,39345 751,8349 7908,11922 7908,11922 700,2038 78,6821 -8703,8674l-1291386 115330z"/>
   <path class="fil13" d="M2255263 439687c-11530,1036 -21666,-7017 -22646,-17964l-5667 -63436c-974,-10959 7571,-20658 19107,-21688l1268976 -113331c11524,-1019 32395,-2072 29203,9257 -3197,11334 -6356,4782 -3690,40828 2671,36058 3567,34389 9072,42845 5493,8490 -13849,9145 -25379,10164l-1268976 113325z"/>
   <polygon class="fil14" points="2193989,346785 2231441,291626 2278066,339281 2287250,442095 2249809,497271 2203167,449605 "/>
   <path class="fil15" d="M2243946 431606c-6507,583 -13384,-16794 -15350,-38829 -1959,-22019 1714,-40342 8227,-40924 6501,-577 13361,16805 15338,38824 1960,22024 -1714,40353 -8215,40929z"/>
  </g>
  <g id="_2313877872">
   <path class="fil16" d="M1550191 298536c-11524,1030 -83068,-1825 -84082,-13115l-3192 -35789c-1008,-11295 69080,-27008 80605,-28044l50897 7750c12270,2733 21728,6373 22736,17679l1299 14465c1003,11295 -6137,16161 -17998,20792l-50265 16262z"/>
   <path class="fil17" d="M1611029 255854c-1249,-4323 3074,-14022 -9979,-14622 -13042,-621 -69646,-3539 -76237,157 -6608,3685 -2268,23245 -2151,24567 124,1327 88367,-10102 88367,-10102z"/>
   <path class="fil18" d="M1550343 297965c0,0 -11172,-3002 -11771,-6485 -594,-3483 9715,-16559 9715,-16559 0,0 -12963,-8579 -13770,-12756 -806,-4167 10909,-19202 10909,-19202 0,0 -9178,-8204 -9582,-11155 -408,-2929 7678,-10220 7678,-10220l-204240 -46070c-11524,1041 -20053,11026 -19039,22315l14425 161445c991,11290 13026,21129 24545,20104l191130 -81417z"/>
   <path class="fil19" d="M1543595 241417c-16498,-2212 -188308,-17897 -195616,-17242 -7302,650 -10763,3058 -10393,7241 375,4172 3841,90113 8814,92829 4978,2722 11138,1115 13709,353 2564,-756 184012,-53776 184012,-53776 0,0 -9643,-4485 -9604,-8657 34,-4167 12746,-17646 10909,-19202 -1831,-1546 -1831,-1546 -1831,-1546z"/>
   <path class="fil20" d="M66488 497467c-11525,1019 -21706,-7482 -22736,-19012l-14913 -166972c-1024,-11530 7482,-21711 19018,-22736l1286733 -114394c11536,-1025 4642,4855 8607,19745 3959,14896 16508,25866 17488,31046 986,5169 -9783,14022 -10556,23032 -767,9010 2050,52415 4161,58536 2134,6115 14129,10825 15070,15484 935,4648 -11435,31001 -10691,39345 751,8349 7907,11922 7907,11922 700,2038 79,6820 -8702,8674l-1291386 115330z"/>
   <path class="fil21" d="M61274 439021c-11530,1036 -21666,-7017 -22646,-17965l-5667 -63435c-974,-10959 7571,-20658 19107,-21689l1268976 -113331c11524,-1019 32395,-2071 29203,9257 -3197,11334 -6356,4782 -3690,40829 2671,36058 3567,34389 9072,42845 5493,8489 -13849,9144 -25379,10164l-1268976 113325z"/>
   <polygon class="fil22" points="0,346118 37452,290959 84077,338615 93261,441429 55820,496604 9178,448938 "/>
   <path class="fil23" d="M49957 430940c-6507,582 -13384,-16794 -15350,-38830 -1960,-22018 1714,-40341 8227,-40924 6501,-576 13361,16806 15338,38824 1960,22025 -1714,40353 -8215,40930z"/>
  </g>
 </g>
</svg>
