<?xml version="1.0" encoding="UTF-8"?>
<!DOCTYPE svg PUBLIC "-//W3C//DTD SVG 1.1//EN" "http://www.w3.org/Graphics/SVG/1.1/DTD/svg11.dtd">
<!-- Creator: CorelDRAW X7 -->
<svg xmlns="http://www.w3.org/2000/svg" xml:space="preserve" width="18.8666mm" height="18.1842mm" version="1.1" style="shape-rendering:geometricPrecision; text-rendering:geometricPrecision; image-rendering:optimizeQuality; fill-rule:evenodd; clip-rule:evenodd"
viewBox="0 0 289257 278795"
 xmlns:xlink="http://www.w3.org/1999/xlink">
 <defs>
  <style type="text/css">
   <![CDATA[
    .fil2 {fill:black}
    .fil1 {fill:url(#id0)}
    .fil0 {fill:url(#id1)}
   ]]>
  </style>
  <linearGradient id="id0" gradientUnits="userSpaceOnUse" x1="144628" y1="251700" x2="144628" y2="27094.2">
   <stop offset="0" style="stop-opacity:1; stop-color:#848585"/>
   <stop offset="1" style="stop-opacity:1; stop-color:#E5E6E5"/>
  </linearGradient>
  <linearGradient id="id1" gradientUnits="userSpaceOnUse" x1="144628" y1="5576.14" x2="144628" y2="273218">
   <stop offset="0" style="stop-opacity:1; stop-color:gray"/>
   <stop offset="1" style="stop-opacity:1; stop-color:#FFF7F7"/>
  </linearGradient>
 </defs>
 <g id="Layer_x0020_1">
  <metadata id="CorelCorpID_0Corel-Layer"/>
  <path class="fil0" d="M26719 33527l0 211519 0 6963 235845 0 0 -6963 0 -211519 0 -9728 -235845 0 0 9728zm-11683 244024l0 -11 -31 0c-1772,-622 -3443,-1462 -4983,-2488l0 -17 -26 0c-1108,-740 -2148,-1577 -3104,-2497l0 -9 -10 0 -617 -618 0 -8 -10 0c-2204,-2295 -3928,-5056 -5002,-8115l0 -31 -11 0c-804,-2299 -1242,-4766 -1242,-7330l0 -234277c0,-1802 215,-3554 622,-5235l4 0 0 -12c153,-631 334,-1255 541,-1866l86 0 0 -250c351,-993 768,-1957 1246,-2883l6 0 0 -11c695,-1334 1517,-2588 2455,-3749l50 0 0 -64c908,-1116 1921,-2145 3024,-3068l110 0 0 -91c785,-650 1616,-1249 2485,-1789l20 0 0 -12c345,-213 696,-419 1054,-615l201 0 0 -106c2246,-1199 4722,-2026 7339,-2399l250793 0c2201,311 4300,946 6252,1855l0 25 47 0c410,191 813,394 1207,608l0 17 32 0c1573,860 3034,1904 4353,3103l0 31 32 0c422,385 829,785 1222,1200l0 51 48 0c3535,3776 5781,8767 6028,14254l0 236287c-87,1978 -437,3887 -1010,5702l-56 0 0 174c-331,1019 -736,2006 -1205,2957l-47 0 0 95c-196,393 -403,779 -623,1159l-4 0 0 8c-371,645 -771,1268 -1202,1870l-51 0 0 68c-1804,2500 -4110,4616 -6767,6198l-124 0 0 74c-3315,1946 -7167,3059 -11263,3059l-244531 0c-2569,0 -5037,-439 -7338,-1244z"/>
  <path class="fil1" d="M39082 44629l0 189339 0 6232 211114 0 0 -6232 0 -189339 0 -8708 -211114 0 0 8708zm-10456 218435l0 -9 -28 0c-1587,-558 -3083,-1309 -4461,-2228l0 -15 -23 0c-992,-662 -1923,-1412 -2780,-2235l0 -8 -8 0 -553 -553 0 -8 -8 0c-1974,-2055 -3515,-4526 -4478,-7264l0 -26 -9 0c-721,-2059 -1113,-4267 -1113,-6562l0 -209712c0,-1613 193,-3181 558,-4685l3 0 0 -11c138,-566 299,-1124 484,-1671l77 0 0 -222c314,-891 687,-1754 1116,-2582l5 0 0 -9c622,-1195 1358,-2319 2197,-3357l46 0 0 -56c812,-1000 1718,-1921 2706,-2748l98 0 0 -81c704,-581 1447,-1118 2226,-1601l17 0 0 -10c310,-192 624,-376 943,-551l181 0 0 -95c2010,-1073 4227,-1814 6569,-2148l224495 0c1970,278 3849,848 5596,1662l0 20 43 0c366,172 726,353 1079,546l0 15 29 0c1409,770 2717,1705 3896,2777l0 27 29 0c379,345 742,703 1093,1075l0 46 43 0c3166,3379 5176,7847 5398,12759l0 211510c-79,1771 -391,3479 -904,5104l-51 0 0 155c-296,914 -659,1797 -1079,2648l-43 0 0 86c-175,351 -360,696 -555,1036l-6 0 0 8c-331,576 -690,1134 -1077,1674l-44 0 0 60c-1614,2238 -3680,4132 -6058,5548l-111 0 0 68c-2966,1740 -6414,2736 -10081,2736l-218889 0c-2298,0 -4509,-392 -6568,-1113z"/>
  <rect class="fil2" x="29355" y="29314" width="230552" height="220165"/>
 </g>
</svg>
