<?xml version="1.0" encoding="UTF-8"?>
<!DOCTYPE svg PUBLIC "-//W3C//DTD SVG 1.1//EN" "http://www.w3.org/Graphics/SVG/1.1/DTD/svg11.dtd">
<!-- Creator: CorelDRAW X7 -->
<svg xmlns="http://www.w3.org/2000/svg" xml:space="preserve" width="5.47473in" height="2.97885in" version="1.1" style="shape-rendering:geometricPrecision; text-rendering:geometricPrecision; image-rendering:optimizeQuality; fill-rule:evenodd; clip-rule:evenodd"
viewBox="0 0 8277 4504"
 xmlns:xlink="http://www.w3.org/1999/xlink">
 <defs>
  <style type="text/css">
   <![CDATA[
    .str0 {stroke:#963D00;stroke-width:37.6062;stroke-linecap:round;stroke-linejoin:round}
    .str2 {stroke:#963D00;stroke-width:37.6062;stroke-linecap:round;stroke-linejoin:round}
    .str1 {stroke:#963D00;stroke-width:37.6062;stroke-linecap:round;stroke-linejoin:round}
    .fil3 {fill:none}
    .fil7 {fill:black}
    .fil5 {fill:#963D00}
    .fil8 {fill:#FC9930}
    .fil1 {fill:#1A1A1A;fill-rule:nonzero}
    .fil2 {fill:url(#id0)}
    .fil10 {fill:url(#id1)}
    .fil6 {fill:url(#id2)}
    .fil9 {fill:url(#id3)}
    .fil4 {fill:url(#id4)}
    .fil0 {fill:url(#id5)}
   ]]>
  </style>
  <linearGradient id="id0" gradientUnits="userSpaceOnUse" x1="2760.47" y1="802.944" x2="2735.57" y2="615.461">
   <stop offset="0" style="stop-opacity:1; stop-color:red"/>
   <stop offset="1" style="stop-opacity:1; stop-color:#A8020A"/>
  </linearGradient>
  <linearGradient id="id1" gradientUnits="userSpaceOnUse" xlink:href="#id0" x1="1228.81" y1="2846.22" x2="1145.16" y2="2659.59">
  </linearGradient>
  <linearGradient id="id2" gradientUnits="userSpaceOnUse" x1="6333.76" y1="3388.37" x2="6211.03" y2="3848.26">
   <stop offset="0" style="stop-opacity:1; stop-color:red"/>
   <stop offset="1" style="stop-opacity:1; stop-color:#9A0000"/>
  </linearGradient>
  <radialGradient id="id3" gradientUnits="userSpaceOnUse" gradientTransform="matrix(0.194297 1.38774 -1.67169 0.234038 10979 -5265)" cx="5860" cy="3742.97" r="282.279" fx="5860" fy="3742.97">
   <stop offset="0" style="stop-opacity:1; stop-color:#FF6699"/>
   <stop offset="1" style="stop-opacity:1; stop-color:#CC3366"/>
  </radialGradient>
  <radialGradient id="id4" gradientUnits="userSpaceOnUse" gradientTransform="matrix(-0.961115 0.902072 -0.957502 -0.722369 12107 -3127)" cx="5622.28" cy="1128.94" r="1730.5" fx="5622.28" fy="1128.94">
   <stop offset="0" style="stop-opacity:1; stop-color:#FFE387"/>
   <stop offset="1" style="stop-opacity:1; stop-color:#FF9D00"/>
  </radialGradient>
  <radialGradient id="id5" gradientUnits="userSpaceOnUse" gradientTransform="matrix(-0.069449 0.752538 -0.541725 0.044857 2724 -1279)" xlink:href="#id4" cx="2305.26" cy="477.363" r="829.973" fx="2305.26" fy="477.363">
  </radialGradient>
 </defs>
 <g id="Layer_x0020_1">
  <metadata id="CorelCorpID_0Corel-Layer"/>
  <path class="fil0 str0" d="M3743 562c-104,-155 -22,-277 -316,-413 -72,-34 -163,-62 -263,-84 -434,-95 -919,-57 -1266,245 -468,407 39,937 826,881 0,0 393,-231 0,0 393,-231 1021,-623 1019,-629z"/>
  <g>
   <path class="fil1" d="M2692 660l4 -34 0 0 7 2 8 2 8 2 8 3 8 2 8 3 8 3 8 3 8 3 8 3 7 3 8 3 8 4 7 3 8 3 7 4 7 3 8 4 7 4 7 3 7 4 6 3 7 4 6 3 7 4 6 3 6 4 5 3 6 3 5 3 5 4 5 3 -16 28 -4 -3 -5 -3 -5 -3 -6 -3 -5 -3 -6 -3 -6 -4 -6 -3 -6 -3 -6 -4 -7 -3 -6 -4 -7 -3 -7 -4 -7 -3 -7 -3 -7 -4 -7 -3 -7 -3 -7 -4 -8 -3 -7 -3 -7 -3 -8 -2 -7 -3 -7 -3 -8 -2 -7 -2 -7 -2 -7 -2 -8 -2 -7 -2 0 0zm-6 99l1 34 0 0 -22 -2 -20 -4 -18 -4 -17 -5 -15 -5 -14 -6 -12 -6 -11 -8 -9 -7 -8 -9 -6 -9 -4 -10 -2 -10 -1 -10 2 -9 2 -9 5 -8 5 -8 6 -7 8 -6 8 -6 9 -5 9 -5 11 -4 11 -4 11 -2 13 -2 12 -1 14 -1 13 1 14 2 15 2 -4 34 -11 -2 -12 -1 -11 -1 -10 0 -11 1 -10 2 -9 2 -9 3 -8 3 -8 4 -7 4 -6 4 -5 4 -4 5 -3 5 -2 4 -2 4 0 4 0 3 1 4 1 3 3 4 3 4 6 4 7 5 8 5 11 4 12 4 15 5 16 3 18 3 21 3 0 0zm220 -6l9 35 0 0 -5 0 -6 1 -5 0 -6 1 -6 0 -6 1 -6 1 -6 0 -7 1 -7 0 -6 1 -8 0 -7 1 -7 0 -7 1 -8 0 -7 0 -8 0 -8 1 -7 0 -8 0 -8 0 -8 0 -8 0 -8 0 -8 0 -8 -1 -7 0 -8 -1 -8 0 -8 -1 -8 -1 -1 -34 7 1 8 0 7 1 7 0 8 1 8 0 7 0 8 0 7 0 8 0 7 0 8 0 7 0 8 0 7 0 8 -1 7 0 7 0 7 -1 7 0 7 -1 7 0 6 -1 7 0 6 -1 6 0 6 -1 6 -1 5 0 6 -1 5 0 5 -1 0 0zm-2 2l16 -28 0 0 5 2 4 3 4 2 4 3 3 2 3 1 3 2 3 2 2 1 3 2 2 1 2 2 3 2 3 4 3 6 0 9 -3 8 -5 3 -3 1 -3 1 -2 0 -3 1 -2 0 -3 0 -2 0 -3 1 -3 0 -4 0 -4 0 -4 1 -4 0 -4 1 -9 -35 4 0 5 -1 4 0 4 0 4 -1 3 0 3 0 2 0 3 -1 1 0 1 0 1 0 0 0 -2 1 -3 2 -4 7 1 8 3 5 1 2 1 0 0 0 -1 -1 -2 0 -2 -2 -2 -1 -3 -2 -3 -2 -3 -2 -4 -2 -4 -2 -5 -3 -5 -3 0 0z"/>
   <path id="1" class="fil2" d="M2912 741c-50,-31 -139,-80 -218,-98 -139,-31 -245,108 -8,133 81,9 172,0 224,-6 52,-5 54,3 2,-29z"/>
  </g>
  <g>
   <path class="fil1" d="M3151 819l10 -20c5,2 8,8 5,13 -3,6 -9,9 -15,7zm-186 -53l6 0 5 0 5 0 6 0 5 0 6 0 5 1 6 0 5 0 6 1 6 0 6 1 5 1 6 0 6 1 6 1 6 1 7 1 6 1 6 1 6 2 7 1 6 2 7 1 6 2 7 2 7 2 7 2 7 2 7 2 7 2 7 3 -10 20 -7 -3 -7 -2 -6 -2 -7 -2 -7 -2 -6 -2 -7 -2 -6 -1 -6 -2 -7 -1 -6 -1 -6 -2 -6 -1 -6 -1 -6 -1 -6 -1 -5 -1 -6 -1 -6 0 -5 -1 -6 -1 -5 0 -6 -1 -5 0 -6 0 -5 -1 -5 0 -6 0 -5 0 -5 0 -5 0 -5 0 2 -21zm0 0l-2 21c-6,0 -11,-5 -10,-11 1,-6 6,-10 12,-10z"/>
  </g>
  <path class="fil3" d="M2258 1348c-4,4 -8,9 -12,13 4,-4 8,-9 12,-13zm-24 26c-5,5 -10,10 -15,15 5,-5 10,-10 15,-15zm-23 24c-5,6 -10,12 -15,18 5,-6 10,-12 15,-18zm-22 25c-6,8 -13,15 -19,23 6,-8 13,-15 19,-23zm-25 30c-7,8 -14,16 -20,24 6,-8 13,-16 20,-24zm-21 25c-7,9 -14,17 -21,26 7,-9 14,-17 21,-26zm-21 26c-372,473 -562,1131 -344,1687 90,229 250,475 517,724 0,0 804,816 3002,495 0,0 1760,-313 2172,-781 0,0 871,-484 768,-1182 -345,988 -1834,1433 -2726,1596 -2092,307 -2874,-586 -2874,-586 -259,-273 -417,-541 -506,-789 -135,-372 -121,-785 -9,-1164zm6114 938c-1,-10 -3,-20 -5,-30 2,10 4,20 5,30zm-7 -41c-2,-8 -3,-15 -5,-23 2,8 3,15 5,23zm-10 -42c-1,-6 -3,-11 -4,-16 1,5 3,10 4,16z"/>
  <path class="fil4 str1" d="M1818 2020c-274,-216 -771,-247 -1169,-111 -1082,370 -634,1576 316,1463 149,-18 331,-65 549,-159 0,0 115,-74 218,-161 13,47 28,93 46,139 90,229 250,475 517,724 0,0 804,816 3002,495 817,-145 3566,-886 2842,-2255 -73,-59 -160,-133 -275,-257 -283,-305 -271,-413 -476,-711 -175,-257 -494,-579 -1039,-732 0,0 -569,-172 -1619,-92 0,0 -743,91 -996,179 -158,56 -759,240 -1246,602 -284,212 -525,527 -666,878 -2,-1 -4,-1 -4,-2z"/>
  <path class="fil5" d="M1141 3324c41,-9 82,-21 123,-35 427,-152 736,-496 736,-496 -208,284 -528,454 -731,526 -47,17 -86,28 -124,37l-4 -32z"/>
  <path class="fil5" d="M1815 2035c150,89 244,163 244,163 -78,-72 -162,-136 -248,-191l4 28z"/>
  <path class="fil5" d="M5906 2997c-61,-1 -111,-13 -110,-2 0,12 52,44 113,45 61,1 109,-28 108,-40 -1,-11 -50,-2 -111,-3z"/>
  <path class="fil6 str2" d="M6992 3472c-756,107 -1104,-420 -1084,-431 0,0 -583,655 -256,1086 103,146 372,47 580,-177 209,-228 561,-423 760,-478z"/>
  <path class="fil5" d="M6702 3500c209,3 575,-37 920,-200 0,0 -464,181 -906,174 -97,-2 -188,-15 -271,-41 -377,-115 -564,-394 -564,-394 107,231 369,365 548,420 98,30 158,39 273,41z"/>
  <path class="fil5" d="M7925 2709c-57,157 -204,417 -472,626 -1,0 321,-292 441,-622 16,-44 27,-88 33,-131 10,-4 22,-8 33,-12 -4,44 -15,83 -35,139z"/>
  <path class="fil7" d="M7379 2519c0,0 -107,74 -10,127 0,0 191,47 494,-44 141,-42 401,-134 397,-319 -1,-65 -27,-133 -148,-88 0,0 -55,45 -111,89 -231,185 -324,184 -592,229 0,0 -31,7 -30,6z"/>
  <path class="fil7" d="M5854 2191c-45,28 -48,106 -6,174 41,67 124,98 169,71 45,-28 16,-97 -25,-165 -42,-68 -93,-107 -138,-80z"/>
  <path class="fil8" d="M5841 2351c3,6 6,12 10,18 41,68 124,99 169,71 45,-28 16,-97 -25,-165 -3,-3 -5,-6 -7,-9 35,60 54,118 14,143 -43,26 -118,1 -161,-58z"/>
  <path class="fil9" d="M5571 3674c-29,147 -16,297 85,427 151,208 457,-43 574,-171 -106,-207 -440,-328 -659,-256z"/>
  <g>
   <path class="fil1" d="M1069 2675l-13 -31 0 0 11 -3 11 -2 11 -3 12 -2 12 -2 11 -2 12 -1 12 -2 12 -1 12 -1 12 -1 12 -1 12 -1 11 0 12 -1 12 0 11 -1 12 0 11 0 12 0 11 0 10 1 11 0 11 0 10 0 10 1 9 0 10 1 9 0 9 1 8 0 8 1 1 32 -8 -1 -8 0 -9 -1 -9 0 -9 -1 -9 0 -10 -1 -10 0 -10 0 -11 -1 -10 0 -11 0 -11 0 -11 0 -11 0 -11 1 -12 0 -11 1 -12 0 -11 1 -12 1 -11 1 -12 1 -11 1 -11 1 -12 2 -11 2 -11 2 -11 2 -10 2 -11 2 -10 3 0 0zm59 146l17 29 0 0 -30 11 -27 9 -26 6 -24 5 -22 3 -20 2 -19 -1 -17 -2 -16 -4 -14 -5 -13 -7 -11 -9 -8 -10 -6 -12 -4 -11 -2 -12 0 -13 2 -12 4 -12 5 -13 6 -12 8 -12 9 -12 10 -12 12 -11 13 -11 14 -10 15 -10 16 -8 18 -8 18 -7 20 -6 13 31 -17 5 -17 6 -15 7 -14 8 -14 8 -12 9 -11 9 -10 10 -9 10 -8 11 -7 10 -5 10 -4 10 -3 9 -1 9 0 8 1 7 2 7 3 5 4 5 5 4 7 4 8 3 11 3 13 1 15 1 17 -2 20 -2 22 -5 24 -6 26 -8 28 -10 0 0zm282 -154l23 27 0 0 -6 4 -6 4 -7 4 -7 5 -7 4 -7 5 -8 5 -8 5 -8 5 -8 5 -9 5 -8 5 -9 5 -9 6 -10 5 -9 5 -9 6 -10 5 -10 5 -10 6 -10 5 -10 5 -10 5 -10 5 -10 5 -10 5 -11 5 -10 5 -10 4 -11 5 -10 4 -11 4 -17 -29 10 -4 10 -4 11 -5 10 -4 10 -5 10 -4 10 -5 10 -5 10 -5 9 -5 10 -5 10 -5 10 -5 9 -5 10 -6 9 -5 9 -5 9 -5 9 -6 9 -5 8 -5 9 -5 8 -5 8 -5 8 -5 7 -5 7 -4 8 -5 6 -4 7 -5 6 -4 6 -4 0 0zm-4 -10l-1 -32 0 0 8 1 7 0 7 1 6 0 6 0 5 1 5 0 5 0 4 1 3 0 4 0 3 1 4 1 4 2 6 4 5 9 0 8 -2 5 -3 3 -2 2 -2 2 -3 1 -3 2 -3 2 -3 2 -4 2 -4 3 -4 3 -5 2 -5 4 -5 3 -6 4 -23 -27 6 -4 6 -3 5 -3 5 -3 4 -3 4 -2 4 -3 3 -2 3 -1 2 -2 2 -1 1 -1 0 0 -1 1 -1 3 0 7 4 7 4 3 2 1 0 0 -1 0 -2 0 -2 -1 -4 0 -4 0 -4 0 -6 -1 -5 0 -7 -1 -7 0 -7 0 -8 -1 0 0z"/>
   <path id="1" class="fil10" d="M1406 2641c-84,-6 -230,-11 -344,18 -199,52 -247,300 75,176 109,-42 222,-113 285,-155 62,-41 71,-32 -16,-39z"/>
  </g>
  <g>
   <path class="fil1" d="M1673 2698l20 -30c7,2 9,12 3,20 -6,8 -16,13 -23,10zm-274 -87l9 1 8 0 8 0 9 0 8 0 9 1 8 0 9 1 9 1 8 0 9 1 9 1 9 2 9 1 9 1 9 2 9 1 9 2 10 2 9 2 10 2 9 3 10 2 9 3 10 3 10 3 10 3 10 3 10 4 10 4 10 3 10 5 -20 30 -10 -4 -10 -4 -10 -4 -10 -3 -9 -3 -10 -3 -9 -3 -10 -3 -9 -3 -9 -2 -10 -2 -9 -3 -9 -2 -9 -1 -9 -2 -9 -2 -8 -1 -9 -2 -9 -1 -8 -1 -9 -1 -8 -1 -9 -1 -8 0 -8 -1 -9 0 -8 -1 -8 0 -8 0 -8 -1 -8 0 -8 0 10 -32zm0 0l-10 32c-9,0 -14,-7 -11,-16 3,-8 13,-16 21,-16z"/>
  </g>
 </g>
</svg>
