<?xml version="1.0" encoding="UTF-8"?>
<!DOCTYPE svg PUBLIC "-//W3C//DTD SVG 1.1//EN" "http://www.w3.org/Graphics/SVG/1.1/DTD/svg11.dtd">
<!-- Creator: CorelDRAW X7 -->
<svg xmlns="http://www.w3.org/2000/svg" xml:space="preserve" width="5.13072in" height="3.12815in" version="1.1" style="shape-rendering:geometricPrecision; text-rendering:geometricPrecision; image-rendering:optimizeQuality; fill-rule:evenodd; clip-rule:evenodd"
viewBox="0 0 2487 1516"
 xmlns:xlink="http://www.w3.org/1999/xlink">
 <defs>
  <style type="text/css">
   <![CDATA[
    .str1 {stroke:#963D00;stroke-width:12.057;stroke-linecap:round;stroke-linejoin:round}
    .str3 {stroke:#963D00;stroke-width:12.057;stroke-linecap:round;stroke-linejoin:round}
    .str2 {stroke:#2F50BA;stroke-width:12.057;stroke-linecap:round;stroke-linejoin:round}
    .str0 {stroke:#963D00;stroke-width:12.057;stroke-linecap:round;stroke-linejoin:round}
    .fil6 {fill:#36A1D3}
    .fil3 {fill:#963D00}
    .fil8 {fill:#CF5509}
    .fil1 {fill:#FFB225}
    .fil7 {fill:#3A56C2;fill-rule:nonzero}
    .fil0 {fill:url(#id0)}
    .fil4 {fill:url(#id1)}
    .fil5 {fill:url(#id2)}
    .fil2 {fill:url(#id3)}
   ]]>
  </style>
  <radialGradient id="id0" gradientUnits="userSpaceOnUse" gradientTransform="matrix(-1.19901 1.31197 -0.944323 -1.46381 4274 -1464)" cx="1789.49" cy="358.818" r="362.047" fx="1789.49" fy="358.818">
   <stop offset="0" style="stop-opacity:1; stop-color:#FFE387"/>
   <stop offset="1" style="stop-opacity:1; stop-color:#FF9D00"/>
  </radialGradient>
  <radialGradient id="id1" gradientUnits="userSpaceOnUse" gradientTransform="matrix(0.0933894 0.384837 -1.58778 0.272303 2721 -39)" cx="1606.8" cy="795.929" r="748.175" fx="1606.8" fy="795.929">
   <stop offset="0" style="stop-opacity:1; stop-color:#5B8DF0"/>
   <stop offset="1" style="stop-opacity:1; stop-color:#0C597D"/>
  </radialGradient>
  <radialGradient id="id2" gradientUnits="userSpaceOnUse" gradientTransform="matrix(-0.825555 1.04217 -0.892301 -0.908979 1292 1239)" cx="308.136" cy="817.183" r="129.684" fx="308.136" fy="817.183">
   <stop offset="0" style="stop-opacity:1; stop-color:#FFE387"/>
   <stop offset="1" style="stop-opacity:1; stop-color:#FFCC00"/>
  </radialGradient>
  <radialGradient id="id3" gradientUnits="userSpaceOnUse" gradientTransform="matrix(-0.771812 -1.2736 1.02422 -0.689375 128 2458)" xlink:href="#id2" cx="636.208" cy="975.385" r="49.7259" fx="636.208" fy="975.385">
  </radialGradient>
 </defs>
 <g id="Layer_x0020_1">
  <metadata id="CorelCorpID_0Corel-Layer"/>
  <path class="fil0 str0" d="M714 976l-67 60c0,0 -82,-12 -128,26 -46,38 -72,94 -61,155 22,124 209,141 310,119 39,-8 75,-23 134,-43 76,-27 158,-53 199,-50 0,0 197,67 378,5 0,0 27,-6 4,33 0,0 -36,43 -45,94 -21,121 114,133 201,135 151,4 323,-50 375,-194 0,0 65,-120 -7,-332l-13 -39 63 -70c0,0 -65,-181 -170,-276 -105,-96 28,-22 28,-22 0,0 185,-74 308,-160 75,-52 171,-164 127,-262 -11,-25 -33,-43 -62,-56 -95,-41 -115,-21 -197,15l-94 41 -214 134c-602,107 -103,-255 -567,-255 -494,0 145,405 -404,397l-28 56c0,0 -26,56 -46,65 -21,9 -56,17 -93,13 -38,-4 -40,45 -40,45l141 197 38 32 -39 118c0,0 -28,19 -31,19z"/>
  <path class="fil1" d="M1960 544c62,-26 174,-78 258,-135 75,-51 170,-159 126,-253 0,-1 0,-2 -1,-3 -79,149 -221,274 -395,308l12 83z"/>
  <path class="fil2 str1" d="M755 909c-45,-47 -193,2 -158,82 0,0 15,28 56,39l63 -29 32 -38 15 -33 -8 -21z"/>
  <path class="fil3" d="M1968 1005c-52,52 -146,129 -246,165 0,0 131,-60 240,-168 6,-7 12,-13 18,-20 6,-2 11,-4 16,-6 -8,9 -17,18 -28,29z"/>
  <path class="fil4 str2" d="M1108 517l-60 -45 -34 -19 -34 5c0,0 -106,5 -168,45 0,0 -99,55 -160,54 -61,-1 -70,26 -75,53 -6,26 -14,202 142,259 0,0 24,-1 39,-26 0,0 23,-32 24,-1 0,0 -107,105 -64,134 0,0 148,84 343,101 125,15 770,-2 965,-117 62,-36 47,-48 28,-114 -21,-76 -63,-188 -132,-237l-34 -17 39 -8c0,0 45,3 56,-37 11,-40 -115,-226 -187,-194 0,0 -135,85 -206,69l-71 1c-27,162 -367,156 -411,94z"/>
  <path class="fil5 str3" d="M602 616c0,0 74,33 98,146 4,18 7,39 8,63 -101,50 -244,311 -516,131 -118,-143 220,-311 410,-340z"/>
  <path class="fil1" d="M679 836c-97,76 -234,281 -478,119 -28,-35 -30,-71 -14,-106 82,147 286,114 492,-13z"/>
  <path class="fil3" d="M1236 1271c-76,-9 -202,-36 -297,-92 0,0 135,67 297,85 35,5 70,5 105,3 157,-11 274,-71 275,-71 -81,52 -199,73 -274,78 -41,3 -64,2 -106,-3z"/>
  <g>
   <path class="fil6" d="M609 559l0 0c-27,15 -50,64 -22,82 73,50 100,117 94,198 -2,35 49,42 76,27l0 0c27,-15 30,-49 22,-83 -16,-72 -37,-143 -94,-197 -24,-23 -49,-43 -76,-27z"/>
   <path id="1" class="fil7" d="M609 559l0 0 0 0 0 0 4 5 -4 -5zm-18 77l-8 10 0 0 -3 -2 -3 -2 -2 -3 -2 -3 -2 -3 -1 -3 -1 -3 -1 -3 0 -3 0 -4 0 -3 0 -4 1 -3 0 -3 1 -4 1 -3 1 -3 2 -4 1 -3 2 -3 2 -3 2 -3 2 -3 2 -3 2 -3 3 -3 2 -2 3 -3 3 -2 2 -2 3 -2 3 -2 7 11 -3 1 -2 2 -2 1 -2 2 -2 2 -2 2 -2 3 -2 2 -2 2 -2 3 -2 3 -1 2 -2 3 -1 3 -1 3 -1 3 -1 2 -1 3 0 3 -1 3 0 2 0 3 0 2 0 3 1 2 0 2 1 2 1 2 2 2 1 1 2 2 2 1 0 0zm97 203l-13 -1 0 0 0 -7 0 -7 0 -8 0 -7 0 -7 -1 -7 0 -6 -1 -7 -1 -7 -2 -6 -1 -7 -2 -6 -2 -7 -2 -6 -3 -6 -2 -6 -3 -6 -3 -6 -4 -6 -3 -5 -4 -6 -4 -6 -4 -5 -5 -5 -5 -6 -5 -5 -5 -5 -5 -5 -6 -5 -6 -4 -7 -5 -6 -5 8 -10 7 5 6 5 7 5 6 5 6 5 5 6 5 5 5 6 5 5 5 6 4 6 4 6 4 6 3 6 4 7 3 6 3 6 2 7 2 7 3 6 1 7 2 7 2 7 1 7 1 7 0 7 1 7 0 8 1 7 -1 8 0 7 0 8 0 0zm65 22l7 10 0 0 -3 2 -3 1 -3 2 -4 1 -3 1 -3 0 -4 1 -3 0 -4 1 -3 0 -4 0 -3 0 -4 -1 -3 0 -4 -1 -3 -1 -3 -1 -4 -1 -3 -1 -3 -2 -2 -2 -3 -2 -3 -2 -2 -2 -2 -3 -2 -2 -1 -3 -2 -4 -1 -3 0 -3 0 -4 0 -4 13 1 0 3 0 2 0 2 1 3 1 2 1 1 1 2 1 2 2 1 1 2 2 1 2 1 3 2 2 1 2 1 3 0 3 1 2 1 3 0 3 0 3 0 3 0 3 0 3 0 2 0 3 -1 3 0 3 -1 2 -1 3 -1 2 -1 2 -1 0 0zm4 5l0 0 0 0 0 0 -4 -5 4 5zm16 -81l13 -3 0 0 0 3 1 3 0 4 1 3 0 3 1 3 0 4 0 3 0 3 0 3 0 3 0 4 0 3 -1 3 0 3 -1 3 -1 3 0 3 -1 2 -1 3 -2 3 -1 3 -1 2 -2 3 -2 2 -2 2 -2 3 -2 2 -2 2 -3 2 -2 2 -3 1 -7 -10 2 -1 2 -2 2 -1 2 -2 2 -1 1 -2 2 -2 1 -2 1 -2 1 -2 1 -2 1 -2 1 -2 1 -3 1 -2 0 -3 1 -2 0 -3 1 -2 0 -3 0 -3 0 -3 0 -3 0 -2 0 -3 0 -3 -1 -3 0 -3 -1 -3 0 -3 -1 -3 0 -3 0 0zm-93 -194l9 -9 0 0 6 5 5 5 5 6 5 5 4 6 5 6 4 5 4 6 4 6 3 6 4 6 3 6 3 7 4 6 3 6 2 6 3 7 3 6 2 7 2 6 3 7 2 6 2 7 2 7 2 6 2 7 2 7 1 7 2 6 1 7 2 7 2 7 -13 3 -2 -7 -1 -7 -2 -7 -2 -6 -1 -7 -2 -7 -2 -6 -2 -7 -2 -6 -2 -7 -2 -6 -2 -7 -2 -6 -3 -6 -2 -7 -3 -6 -3 -6 -2 -6 -3 -6 -4 -6 -3 -6 -3 -6 -4 -5 -3 -6 -4 -6 -4 -5 -4 -6 -5 -5 -4 -5 -5 -5 -5 -5 -5 -5 0 0zm-67 -27l-7 -11 0 0 3 -1 3 -1 3 -2 3 0 2 -1 3 -1 3 0 3 0 3 0 3 1 3 0 2 1 3 0 3 1 2 1 3 2 3 1 2 1 3 2 2 1 3 2 2 2 2 1 3 2 2 2 3 2 2 2 2 2 3 2 2 2 2 3 2 2 -9 9 -2 -3 -3 -2 -2 -2 -2 -2 -2 -2 -2 -2 -3 -1 -2 -2 -2 -2 -2 -2 -2 -1 -3 -2 -2 -1 -2 -1 -2 -1 -2 -1 -2 -1 -2 -1 -2 -1 -2 0 -2 -1 -2 0 -2 0 -2 -1 -2 1 -2 0 -2 0 -2 0 -2 1 -2 1 -2 1 -2 1 0 0z"/>
  </g>
  <g>
   <path class="fil6" d="M1772 311l0 0c-21,17 -30,67 -1,81 79,38 119,98 133,175 6,34 54,35 75,17l0 0c21,-18 15,-50 1,-81 -32,-67 -69,-131 -133,-175 -27,-19 -54,-35 -75,-17z"/>
   <path id="1" class="fil7" d="M1772 311l0 0 0 0 0 0 4 4 -4 -4zm2 75l-5 11 0 0 -3 -1 -3 -2 -3 -3 -2 -2 -3 -2 -1 -3 -2 -3 -2 -3 -1 -3 -1 -3 0 -3 -1 -4 0 -3 0 -3 0 -4 0 -3 0 -3 1 -4 0 -3 1 -3 1 -3 1 -4 1 -3 1 -3 2 -3 1 -2 2 -3 2 -3 2 -2 2 -3 2 -2 2 -2 8 9 -2 2 -1 1 -2 2 -1 2 -2 2 -1 2 -1 3 -2 2 -1 3 -1 2 -1 3 0 3 -1 3 -1 2 0 3 0 3 0 3 0 2 0 3 0 3 0 2 1 3 1 2 1 2 1 2 1 2 1 2 1 2 2 1 2 2 2 1 2 1 0 0zm136 180l-12 2 0 0 -1 -7 -2 -7 -1 -7 -2 -6 -2 -7 -2 -6 -3 -7 -2 -6 -3 -6 -3 -6 -2 -6 -4 -6 -3 -6 -3 -6 -4 -5 -4 -6 -4 -5 -4 -5 -5 -5 -4 -5 -5 -5 -5 -5 -5 -4 -6 -5 -5 -4 -6 -5 -6 -4 -6 -4 -7 -4 -6 -4 -7 -3 -7 -4 5 -11 7 4 8 4 6 4 7 4 7 4 6 5 6 4 6 5 6 4 5 5 5 5 6 6 4 5 5 5 5 6 4 5 4 6 4 6 3 6 4 6 3 6 3 6 3 7 3 6 3 7 2 7 2 7 2 6 2 7 2 8 2 7 1 7 0 0zm65 13l8 10 0 0 -2 1 -3 2 -3 2 -2 1 -3 1 -3 1 -3 1 -3 1 -3 1 -3 1 -4 0 -3 0 -3 0 -3 0 -4 0 -3 0 -3 -1 -3 -1 -3 0 -3 -2 -3 -1 -3 -1 -3 -2 -2 -2 -3 -2 -2 -2 -2 -3 -2 -3 -2 -3 -1 -3 -1 -3 -1 -4 12 -2 1 3 0 2 1 2 1 2 2 2 1 2 2 1 1 2 2 1 2 1 2 1 2 1 3 1 2 1 2 0 3 1 3 0 2 0 3 0 2 0 3 0 3 0 2 -1 3 0 2 -1 3 -1 2 -1 2 -1 3 -1 2 -1 1 -1 2 -2 0 0zm4 5l0 0 0 0 0 0 -4 -5 4 5zm-5 -79l11 -5 0 0 1 3 2 3 1 3 1 3 1 3 2 3 1 3 0 3 1 3 1 3 1 3 0 3 1 3 0 3 0 3 1 3 0 3 0 3 0 3 -1 2 0 3 -1 3 -1 3 0 2 -1 3 -2 2 -1 3 -1 2 -2 2 -2 2 -2 3 -2 2 -8 -10 2 -1 1 -2 1 -1 2 -2 1 -1 1 -2 1 -2 0 -2 1 -2 0 -2 1 -2 0 -2 0 -2 1 -3 0 -2 0 -2 -1 -3 0 -2 0 -3 -1 -3 0 -2 -1 -3 0 -3 -1 -2 -1 -3 -1 -3 -1 -3 -1 -2 -1 -3 -1 -3 -1 -3 -2 -3 0 0zm-131 -172l7 -10 0 0 6 4 6 4 6 5 6 5 5 4 6 5 5 5 5 5 5 5 4 5 5 6 5 5 4 6 4 5 4 6 4 5 4 6 4 6 4 6 4 6 3 5 4 6 3 6 4 7 3 6 3 6 4 6 3 6 3 6 3 7 3 6 3 6 -11 5 -3 -6 -3 -6 -3 -6 -3 -6 -3 -7 -3 -6 -3 -6 -4 -6 -3 -6 -3 -5 -4 -6 -3 -6 -4 -6 -4 -6 -4 -5 -3 -6 -4 -5 -4 -6 -5 -5 -4 -5 -4 -5 -5 -6 -4 -5 -5 -4 -5 -5 -5 -5 -5 -5 -5 -4 -5 -5 -6 -4 -6 -4 -6 -4 0 0zm-67 -18l-8 -9 0 0 2 -2 3 -1 2 -2 3 -1 2 -1 3 -1 2 0 3 -1 3 0 2 0 3 0 2 0 3 1 3 0 2 1 3 1 2 1 3 1 3 1 2 1 3 1 2 1 3 2 3 1 2 2 3 1 2 2 3 2 3 1 2 2 3 2 2 2 -7 10 -2 -2 -3 -2 -2 -2 -3 -1 -2 -2 -3 -1 -2 -2 -2 -1 -3 -2 -2 -1 -3 -1 -2 -1 -2 -1 -2 -1 -3 -1 -2 -1 -2 0 -2 -1 -2 0 -2 -1 -2 0 -2 0 -2 0 -2 0 -1 0 -2 1 -2 0 -2 1 -1 1 -2 1 -1 1 -2 1 0 0z"/>
  </g>
  <path class="fil8" d="M1447 1427c23,67 124,75 195,77 146,3 314,-49 365,-187 0,0 2,-3 4,-9 -147,136 -408,155 -564,119z"/>
  <path class="fil8" d="M462 1199c0,5 1,11 2,17 22,125 207,139 306,116 39,-8 75,-24 133,-45 39,-14 80,-29 116,-39 -202,19 -406,88 -557,-49z"/>
  <path class="fil3" d="M90 953c-28,-62 -2,-138 -17,-130 -14,8 -29,79 -2,140 28,62 88,92 102,84 15,-8 -56,-33 -83,-94z"/>
  <path class="fil3" d="M21 983c-17,-39 -1,-87 -10,-82 -9,5 -19,50 -1,89 17,39 55,58 64,53 10,-5 -35,-21 -53,-60z"/>
  <path class="fil3" d="M2394 94c-48,-48 -128,-50 -115,-61 12,-11 83,0 131,48 48,48 54,114 42,125 -13,11 -11,-64 -58,-112z"/>
  <path class="fil3" d="M2447 41c-31,-30 -81,-32 -73,-39 8,-6 53,1 83,31 30,30 34,72 26,79 -8,7 -6,-40 -36,-71z"/>
 </g>
</svg>
