<?xml version="1.0" encoding="UTF-8"?>
<!DOCTYPE svg PUBLIC "-//W3C//DTD SVG 1.1//EN" "http://www.w3.org/Graphics/SVG/1.1/DTD/svg11.dtd">
<!-- Creator: CorelDRAW X7 -->
<svg xmlns="http://www.w3.org/2000/svg" xml:space="preserve" width="1.31236in" height="1.70863in" version="1.1" style="shape-rendering:geometricPrecision; text-rendering:geometricPrecision; image-rendering:optimizeQuality; fill-rule:evenodd; clip-rule:evenodd"
viewBox="0 0 1470 1914"
 xmlns:xlink="http://www.w3.org/1999/xlink">
 <defs>
  <style type="text/css">
   <![CDATA[
    .fil1 {fill:#441600}
    .fil2 {fill:#AB5623}
    .fil3 {fill:#663300;fill-rule:nonzero}
    .fil0 {fill:white;fill-rule:nonzero}
   ]]>
  </style>
 </defs>
 <g id="Layer_x0020_1">
  <metadata id="CorelCorpID_0Corel-Layer"/>
  <path class="fil0" d="M780 1633c1,-1 3,-2 5,-5l1 0c2,-2 11,-12 26,-26 101,-99 496,-581 545,-731 -45,-1 -84,-2 -119,-3 -43,-2 -77,-3 -107,-4 -8,0 -16,-1 -24,-3 -43,-11 -68,-54 -56,-95l205 -594c-1,-4 -41,-17 -101,-33 -107,-28 -259,-42 -412,-42l0 0c-154,0 -306,14 -412,42 -62,17 -102,29 -101,33l204 593 0 0c1,6 2,12 3,19 1,42 -34,77 -78,79 -33,1 -72,2 -115,4l-2 0 -114 4c48,149 440,627 543,729 16,15 25,25 28,27l4 4 2 2c11,10 24,14 37,14 14,0 27,-4 38,-14l0 0z"/>
  <path class="fil0" d="M887 1843c-5,5 -11,11 -17,17l0 0 0 0c-39,36 -87,54 -135,54 -48,0 -96,-18 -136,-54 -1,-2 -3,-3 -5,-5 -5,-5 -9,-10 -13,-14 -3,-4 -11,-12 -22,-24 -111,-120 -551,-689 -559,-880 -3,-83 35,-134 131,-138l127 -5 2 0 12 -1 -166 -514c-31,-112 55,-187 201,-229 114,-33 272,-50 428,-50l0 0c157,0 315,17 428,50 146,42 232,117 201,229l0 0 0 0 -166 515 9 1c40,1 84,3 130,4l1 0c95,3 134,52 132,135l0 0 0 0 0 6c-14,194 -453,763 -561,879 -10,11 -17,18 -20,21l-2 3z"/>
  <path class="fil1" d="M841 1766c-54,59 -143,59 -197,0 -32,-33 -816,-850 -545,-860 91,-4 206,-7 275,-9l-194 -572c-66,-223 1191,-223 1126,0l-195 573c64,2 176,5 275,8 273,7 -516,829 -545,860z"/>
  <g>
   <path class="fil2" d="M836 1633c-51,58 -136,58 -188,0 -29,-33 -744,-735 -485,-745 87,-4 162,-7 228,-9l-185 -648c-63,-218 1136,-218 1073,0l-185 649c61,3 134,5 228,8 261,7 -458,714 -486,745z"/>
   <path id="1" class="fil3" d="M662 1621l0 0 5 4 4 5 5 4 4 3 5 3 5 3 5 3 5 3 5 2 5 2 6 1 5 1 5 1 6 1 5 1 5 0 6 0 5 -1 6 -1 5 -1 5 -1 6 -1 5 -2 5 -2 5 -3 5 -3 5 -3 5 -3 4 -3 5 -4 4 -5 5 -4 27 25 -5 6 -6 5 -6 5 -6 5 -7 5 -6 4 -7 3 -7 4 -7 2 -7 3 -7 2 -7 2 -8 1 -7 1 -7 1 -8 0 -7 0 -7 -1 -8 -1 -7 -1 -7 -2 -7 -2 -7 -3 -7 -2 -7 -4 -7 -3 -6 -4 -7 -5 -6 -5 -6 -5 -6 -5 -6 -6 0 0 28 -25zm-499 -715l0 0 -17 3 -11 4 -6 6 -3 7 -1 12 2 16 6 19 9 23 13 26 16 27 18 29 21 31 23 32 25 32 26 34 28 33 28 34 29 34 29 33 29 32 29 32 28 30 27 29 26 28 24 25 23 23 20 21 18 18 15 16 12 12 8 8 5 6 -28 25 -4 -5 -8 -8 -12 -12 -15 -16 -18 -18 -20 -21 -23 -23 -24 -26 -26 -27 -27 -29 -29 -31 -29 -32 -29 -33 -29 -33 -29 -34 -29 -34 -28 -34 -27 -34 -25 -33 -23 -33 -22 -31 -19 -31 -17 -29 -14 -27 -10 -26 -7 -25 -3 -22 2 -22 9 -20 16 -15 22 -9 25 -4 0 0 1 37zm246 -32l-17 24 -6 0 -6 0 -7 0 -6 0 -7 1 -6 0 -7 0 -6 0 -7 1 -7 0 -7 0 -6 0 -7 1 -7 0 -7 0 -7 1 -8 0 -7 0 -7 0 -7 1 -8 0 -7 0 -8 0 -7 1 -8 0 -8 0 -8 1 -7 0 -8 0 -8 1 -8 0 -9 0 -1 -37 8 0 8 0 8 -1 8 0 8 0 8 -1 7 0 8 0 8 -1 7 0 8 0 7 -1 7 0 8 0 7 0 7 -1 7 0 7 0 7 0 7 -1 7 0 7 0 7 0 6 -1 7 0 7 0 6 0 6 -1 7 0 6 0 7 0 6 -1 -17 24 35 -10zm-221 -638l36 -10 185 648 -35 10 -186 -648zm1074 -10l0 0 1 -13 -3 -13 -8 -12 -15 -14 -20 -13 -26 -12 -31 -12 -36 -10 -39 -10 -43 -8 -45 -7 -48 -5 -50 -5 -51 -3 -53 -2 -52 -1 -53 1 -52 2 -52 3 -50 5 -47 5 -46 7 -43 8 -39 10 -36 10 -31 12 -26 12 -20 13 -14 14 -9 12 -3 13 2 13 -36 10 -3 -26 6 -25 14 -21 20 -19 25 -16 30 -14 34 -13 37 -11 41 -10 45 -9 47 -7 49 -5 51 -5 52 -3 53 -2 54 -1 53 1 53 2 53 3 51 5 49 5 47 7 44 9 41 10 38 11 34 13 29 14 25 16 20 19 14 21 6 25 -3 26 0 0 -35 -10zm-151 659l-18 14 -17 -24 186 -649 35 10 -186 649zm211 21l0 0 -9 0 -9 0 -8 0 -9 -1 -8 0 -8 0 -8 0 -8 -1 -8 0 -8 0 -7 0 -8 -1 -7 0 -8 0 -7 0 -7 -1 -7 0 -7 0 -7 0 -7 0 -6 -1 -7 0 -6 0 -7 0 -6 -1 -6 0 -7 0 -6 0 -6 -1 -6 0 -5 0 -6 0 1 -37 6 0 6 0 6 0 6 0 6 1 6 0 6 0 7 0 6 1 6 0 7 0 7 0 6 1 7 0 7 0 7 0 7 1 8 0 7 0 7 0 8 1 7 0 8 0 8 0 8 0 8 1 8 0 8 0 9 0 8 1 9 0 9 0 0 0 -1 37zm-499 715l0 0 5 -5 8 -9 12 -12 15 -15 17 -18 21 -21 22 -23 24 -26 26 -27 27 -29 28 -31 29 -32 29 -32 30 -34 29 -33 28 -34 28 -34 26 -33 25 -33 23 -32 21 -31 19 -29 15 -27 13 -26 9 -23 6 -19 2 -16 -1 -12 -3 -7 -6 -5 -11 -5 -17 -2 1 -37 25 3 22 9 16 15 9 20 3 21 -3 23 -7 25 -11 26 -14 27 -16 29 -20 31 -21 31 -24 33 -25 33 -27 34 -28 34 -29 35 -29 34 -30 33 -29 33 -29 32 -28 31 -28 29 -26 28 -24 25 -23 24 -20 20 -18 19 -14 15 -12 12 -8 8 -5 5 0 0 -27 -25z"/>
  </g>
 </g>
</svg>
