<?xml version="1.0" encoding="UTF-8"?>
<!DOCTYPE svg PUBLIC "-//W3C//DTD SVG 1.1//EN" "http://www.w3.org/Graphics/SVG/1.1/DTD/svg11.dtd">
<!-- Creator: CorelDRAW X7 -->
<svg xmlns="http://www.w3.org/2000/svg" xml:space="preserve" width="1.29461in" height="0.130091in" version="1.1" style="shape-rendering:geometricPrecision; text-rendering:geometricPrecision; image-rendering:optimizeQuality; fill-rule:evenodd; clip-rule:evenodd"
viewBox="0 0 1088 109"
 xmlns:xlink="http://www.w3.org/1999/xlink">
 <defs>
  <style type="text/css">
   <![CDATA[
    .fil0 {fill:#003399;fill-rule:nonzero}
   ]]>
  </style>
 </defs>
 <g id="Layer_x0020_1">
  <metadata id="CorelCorpID_0Corel-Layer"/>
  <path class="fil0" d="M18 13c0,-5 -4,-8 -9,-8 -5,0 -9,3 -9,8 0,4 4,8 9,8 6,0 9,-4 9,-8zm-1 18l-16 0 0 64 16 0 0 -64z"/>
  <path id="1" class="fil0" d="M98 56c0,-20 -13,-27 -25,-27 -11,0 -18,6 -22,11l0 0 -1 -9 -14 0c1,5 1,11 1,18l0 46 15 0 0 -39c0,-10 9,-15 16,-15 11,0 14,7 14,17l0 37 16 0 0 -39z"/>
  <path id="2" class="fil0" d="M110 31l0 10 9 0 0 54 16 0 0 -54 16 0 0 -10 -16 0 0 -4c0,-8 3,-16 13,-16 3,0 5,1 7,1l2 -10c-3,-1 -6,-2 -11,-2 -6,0 -13,2 -18,6 -9,7 -9,18 -9,25l-9 0z"/>
  <path id="3" class="fil0" d="M192 29c-19,0 -35,13 -35,35 0,20 15,33 34,33 17,0 35,-10 35,-34 0,-20 -13,-34 -34,-34zm18 34c0,13 -7,24 -18,24 -12,0 -19,-11 -19,-24 0,-11 5,-23 19,-23 13,0 18,12 18,23z"/>
  <path id="4" class="fil0" d="M311 41c-4,-1 -10,-3 -16,-3 -21,0 -35,16 -35,32 0,11 7,17 16,17 8,0 15,-4 20,-11l0 0c0,7 5,11 11,11 15,0 27,-12 27,-33 0,-22 -16,-38 -42,-38 -32,0 -54,25 -54,52 0,26 20,41 44,41 10,0 18,-1 26,-5l-2 -6c-6,3 -14,5 -22,5 -22,0 -37,-13 -37,-35 0,-28 20,-45 44,-45 22,0 34,13 34,32 0,16 -8,25 -15,25 -4,0 -5,-2 -5,-7 0,-2 0,-4 1,-7l5 -25zm-15 21c-2,8 -9,17 -16,17 -6,0 -9,-4 -9,-9 0,-13 10,-24 22,-24 3,0 5,0 6,1l-3 15z"/>
  <path id="5" class="fil0" d="M451 56c0,-20 -12,-27 -23,-27 -10,0 -18,5 -23,12l0 0c-3,-7 -10,-12 -20,-12 -11,0 -18,6 -21,11l-1 0 0 -9 -14 0c0,5 1,11 1,18l0 46 15 0 0 -39c0,-10 8,-15 15,-15 9,0 13,6 13,15l0 39 15 0 0 -39c0,-10 7,-15 14,-15 10,0 14,7 14,17l0 37 15 0 0 -39z"/>
  <path id="6" class="fil0" d="M522 56c0,-14 -6,-27 -27,-27 -10,0 -19,3 -24,6l3 9c5,-3 11,-5 18,-5 15,0 15,10 15,15 -25,0 -41,8 -41,24 0,10 7,19 21,19 10,0 17,-4 21,-9l0 0 1 7 15 0c-1,-4 -2,-9 -2,-15l0 -24zm-15 18c0,7 -7,13 -15,13 -6,0 -11,-3 -11,-11 0,-11 14,-13 26,-13l0 11z"/>
  <path id="7" class="fil0" d="M603 56c0,-20 -13,-27 -24,-27 -11,0 -19,6 -23,11l0 0 -1 -9 -13 0c0,5 0,11 0,18l0 46 16 0 0 -39c0,-10 8,-15 16,-15 10,0 14,7 14,17l0 37 15 0 0 -39z"/>
  <path id="8" class="fil0" d="M684 56c0,-20 -13,-27 -24,-27 -8,0 -17,4 -21,11l-1 0 0 -39 -15 0 0 94 15 0 0 -39c0,-10 9,-15 16,-15 11,0 14,7 14,17l0 37 16 0 0 -39z"/>
  <path id="9" class="fil0" d="M755 56c0,-14 -6,-27 -28,-27 -9,0 -18,3 -23,6l3 9c5,-3 11,-5 18,-5 15,0 15,10 15,15 -26,0 -42,8 -42,24 0,10 8,19 22,19 9,0 17,-4 21,-9l0 0 1 7 14 0c-1,-4 -1,-9 -1,-15l0 -24zm-15 18c0,7 -7,13 -15,13 -6,0 -11,-3 -11,-11 0,-11 14,-13 26,-13l0 11z"/>
  <polygon id="10" class="fil0" points="790,1 775,1 775,95 790,95 "/>
  <path id="11" class="fil0" d="M818 97c6,0 10,-4 10,-10 0,-5 -4,-9 -10,-9 -6,0 -10,4 -10,9 0,6 4,10 10,10z"/>
  <path id="12" class="fil0" d="M891 83c-4,2 -8,3 -14,3 -13,0 -22,-9 -22,-23 0,-13 8,-23 22,-23 6,0 11,2 13,3l3 -11c-3,-1 -9,-3 -16,-3 -24,0 -38,15 -38,35 0,20 14,33 35,33 9,0 16,-2 19,-4l-2 -10z"/>
  <path id="13" class="fil0" d="M937 29c-19,0 -35,13 -35,35 0,20 15,33 34,33 17,0 35,-10 35,-34 0,-20 -14,-34 -34,-34zm18 34c0,13 -7,24 -18,24 -12,0 -19,-11 -19,-24 0,-11 5,-23 19,-23 13,0 18,12 18,23z"/>
  <path id="14" class="fil0" d="M1088 56c0,-20 -12,-27 -23,-27 -11,0 -18,5 -23,12l0 0c-4,-7 -11,-12 -20,-12 -11,0 -18,6 -22,11l0 0 -1 -9 -13 0c0,5 0,11 0,18l0 46 16 0 0 -39c0,-10 7,-15 14,-15 9,0 13,6 13,15l0 39 16 0 0 -39c0,-10 7,-15 14,-15 9,0 13,7 13,17l0 37 16 0 0 -39z"/>
 </g>
</svg>
