<?xml version="1.0" encoding="UTF-8"?>
<!DOCTYPE svg PUBLIC "-//W3C//DTD SVG 1.1//EN" "http://www.w3.org/Graphics/SVG/1.1/DTD/svg11.dtd">
<!-- Creator: CorelDRAW X7 -->
<svg xmlns="http://www.w3.org/2000/svg" xml:space="preserve" width="30.656mm" height="34.5404mm" version="1.1" style="shape-rendering:geometricPrecision; text-rendering:geometricPrecision; image-rendering:optimizeQuality; fill-rule:evenodd; clip-rule:evenodd"
viewBox="0 0 2091304 2356292"
 xmlns:xlink="http://www.w3.org/1999/xlink">
 <defs>
  <style type="text/css">
   <![CDATA[
    .fil10 {fill:#11034C;fill-rule:nonzero}
    .fil9 {fill:#191D63;fill-rule:nonzero}
    .fil1 {fill:#5E6167;fill-rule:nonzero}
    .fil8 {fill:#B2B5B7;fill-rule:nonzero}
    .fil7 {fill:#CECDCB;fill-rule:nonzero}
    .fil6 {fill:#D2D1CE;fill-rule:nonzero}
    .fil4 {fill:#D9D8D3;fill-rule:nonzero}
    .fil2 {fill:#DDDBD6;fill-rule:nonzero}
    .fil3 {fill:#E4E1DC;fill-rule:nonzero}
    .fil5 {fill:#EAEBEC;fill-rule:nonzero}
    .fil0 {fill:black;fill-rule:nonzero;fill-opacity:0.368627}
   ]]>
  </style>
 </defs>
 <g id="Layer_x0020_1">
  <metadata id="CorelCorpID_0Corel-Layer"/>
  <path class="fil0" d="M405627 2348849c0,0 170655,26067 439975,-19394 289976,-48940 562079,-132508 774347,-209970 764585,-279020 311649,-372718 -109102,-231049 -418308,140851 -1100056,382153 -1105220,460413z"/>
  <g id="_2392737360">
   <polygon class="fil1" points="1399835,642986 1857840,1187192 1455318,1551089 1399835,642986 "/>
   <path class="fil2" d="M28638 1667770c29887,-55086 252286,-436857 341713,-559234 89059,-122404 435254,-598692 506413,-687737 70933,-89244 169311,-266086 271987,-344756 102866,-78478 479166,-98221 521441,-49827 42493,48176 439934,642386 420410,768024 -19715,125426 -299240,444395 -447438,613734 -148205,169339 -733069,829836 -826978,875358 -93725,45345 -485265,92116 -541157,32936 -55918,-58749 -244986,-423432 -266318,-502115 -23992,-87422 7921,-124205 19927,-146383l0 0z"/>
   <path class="fil3" d="M883681 1751938c36176,-42275 748288,-872309 770862,-934306 22764,-61813 -165273,-369785 -294779,-530576 -115869,-143941 -157544,-181154 -196374,-181352 -39014,-409 -170546,153069 -173404,156330 -41661,59568 -79898,118932 -112410,159583 -70954,89244 -417347,565333 -506406,687738 -89237,122574 -311834,504141 -341509,559438 -12218,21967 -43932,58955 -20138,146172 21537,78881 210400,443365 266516,502320 10765,11590 34976,19101 67072,23194 73403,-37227 504380,-546280 540570,-588541l0 0z"/>
   <path class="fil4" d="M1653322 817632c-27656,67495 -734474,891410 -770664,933283 -36176,42275 -467160,551321 -540358,588752 131129,17266 398668,-20145 473886,-56335 93909,-45522 678773,-706019 826978,-875358 148198,-169339 427723,-488308 447438,-613734 191,-1821 409,-3663 600,-5478 -134561,14217 -436659,28870 -436659,28870l-1221 0 0 0z"/>
   <path class="fil5" d="M1128224 92491c204,197 204,197 600,204 6529,-6105 13228,-11597 19927,-16652 3267,-2463 6917,-4891 10771,-7545 -4482,2858 -8534,5710 -12402,8746 -6296,4673 -12586,9748 -18896,15247l0 0z"/>
   <path class="fil6" d="M1128824 92695c263262,37207 772922,177661 792030,709465 63006,-4038 124614,-8739 168533,-13207 6699,-137624 -379130,-714158 -420621,-761720 -40863,-46546 -391526,-30098 -509244,41265 -3854,2654 -7504,5082 -10771,7545 -6699,5055 -13398,10547 -19927,16652l0 0z"/>
   <path class="fil7" d="M1920854 802160c805,22792 600,45754 -191,69740 0,0 -94756,135802 -244577,325074 64050,-2265 121572,-5710 153887,-7927 124431,-150449 246200,-312474 258780,-393770 409,-2040 614,-4277 634,-6324 -43919,4468 -105527,9169 -168533,13207l0 0z"/>
   <path class="fil5" d="M343719 2341086c132159,16243 396008,-20745 470843,-56935 2019,-812 4243,-2217 7102,-3868 -2047,1242 -3841,2231 -5478,3049 -74399,35781 -335840,72783 -468988,57120 -1010,211 -2463,429 -3479,634l0 0z"/>
   <path class="fil6" d="M347198 2340452c133148,15663 394589,-21339 468988,-57120 1637,-818 3431,-1807 5478,-3049l0 0c-2047,1242 -3643,2033 -5478,3049 -74399,35781 -335642,72585 -468593,57120 -197,-198 -197,-198 -395,0l0 0z"/>
   <path class="fil7" d="M347593 2340452c132951,15465 394194,-21339 468593,-57120 1835,-1016 3431,-1807 5478,-3049 24381,-15431 70135,-57535 128066,-115466 40870,-40870 87831,-89844 137822,-142700 -46941,7518 -125010,12805 -203277,16666 -184374,152257 -370386,267525 -536682,301669l0 0z"/>
   <path class="fil8" d="M889582 404733c0,0 314460,621477 474664,777997l479569 -9564 -42712 55728 -539731 37602 -402106 -755833 30316 -105930z"/>
   <path class="fil9" d="M225005 1305114c0,0 281353,625734 410443,741398 0,0 455979,-6706 494413,-36203 894,-689 2272,-1945 3868,-3445l9810 -9810c104913,-108488 714301,-809862 714301,-809862 0,0 -424693,31537 -493594,-4462 -68914,-36387 -417968,-544403 -474664,-777997 0,0 -510267,646465 -664577,900381l0 0z"/>
   <path class="fil10" d="M1362615 1181107l-728586 863986c0,0 455576,-6713 494202,-36408 38611,-29266 727761,-822899 727761,-822899 0,0 -424469,31715 -493377,-4679z"/>
  </g>
 </g>
</svg>
