<?xml version="1.0" encoding="UTF-8"?>
<!DOCTYPE svg PUBLIC "-//W3C//DTD SVG 1.1//EN" "http://www.w3.org/Graphics/SVG/1.1/DTD/svg11.dtd">
<!-- Creator: CorelDRAW X7 -->
<svg xmlns="http://www.w3.org/2000/svg" xml:space="preserve" width="12.8963mm" height="14.8879mm" version="1.1" style="shape-rendering:geometricPrecision; text-rendering:geometricPrecision; image-rendering:optimizeQuality; fill-rule:evenodd; clip-rule:evenodd"
viewBox="0 0 588407 679276"
 xmlns:xlink="http://www.w3.org/1999/xlink">
 <defs>
  <style type="text/css">
   <![CDATA[
    .fil1 {fill:#59BB10}
    .fil3 {fill:#FFC100}
    .fil6 {fill:#FFFF99}
    .fil5 {fill:white}
    .fil2 {fill:#CC9933;fill-rule:nonzero}
    .fil4 {fill:#FF9A00;fill-rule:nonzero}
    .fil0 {fill:black;fill-opacity:0.439216}
    .fil7 {fill:white;fill-opacity:0.470588}
   ]]>
  </style>
 </defs>
 <g id="Layer_x0020_1">
  <metadata id="CorelCorpID_0Corel-Layer"/>
  <path class="fil0" d="M554110 130116l31647 110708c4571,16014 3079,34046 -3317,40091l-208854 197483 -14732 13926 -151 146 -5 0 -197081 186341c-6393,6050 -95888,-48710 -100738,-65665l-31637 -110716c-4581,-15997 -3080,-34042 3312,-40087l186547 -176391 0 -4 10996 -10394 14929 -14117 208351 -196999 23 -19c96,-82 205,-159 333,-219l23 -9c137,-64 283,-114 456,-141l5 0 18 -5c173,-36 356,-59 570,-68l5 4 698 14 4 0 803 96 5 0 908 173 5 0 1008 247 1104 324 1195 387 1287 461 1360 530 1446 593 1524 657 1592 711 1661 772 1720 825 1789 881 1843 926 1894 981 1943 1027 1990 1067 2030 1109 2067 1150 2099 1182 2126 1222 2158 1260 2181 1282 2194 1309 2204 1342 2222 1364 2227 1382 2231 1401 2226 1419 2227 1437 2213 1447 2199 1455 2185 1465 2168 1469 2144 1469 2108 1478 2081 1474 2044 1469 2007 1460 1957 1456 1917 1446 1866 1433 1807 1419 1752 1400 1688 1383 1624 1359 1551 1342 1474 1305 1396 1286 1319 1251 1232 1213 1140 1186 1054 1150 949 1104 854 1068 743 1022 639 976 525 922 406 876c119,283 214,557 287,821z"/>
  <g id="_2049757152">
   <g>
    <path class="fil1" d="M549488 71793l10645 113221c1538,16366 -2852,34703 -9750,40757l-454075 398079c-6899,6045 -80184,-51170 -81813,-68508l-10644 -113221c-1538,-16366 2851,-34703 9750,-40758l454075 -398078c6899,-6045 80184,51174 81812,68508z"/>
    <path id="1" class="fil2" d="M563664 185584l-7062 -1141 -10645 -113221 7063 1141 10644 113221zm-16165 37938l0 0 534 -502 538 -584 539 -657 538 -725 525 -785 511 -858 502 -921 493 -977 479 -1026 451 -1077 438 -1132 415 -1177 402 -1218 379 -1259 360 -1292 329 -1327 310 -1360 287 -1387 260 -1414 238 -1429 200 -1460 183 -1473 155 -1483 128 -1501 96 -1506 63 -1510 42 -1519 0 -1511 -23 -1514 -60 -1506 -86 -1501 -123 -1488 7062 1141 133 1588 96 1601 59 1606 32 1597 -9 1611 -41 1601 -64 1593 -105 1587 -128 1584 -164 1565 -192 1546 -219 1533 -246 1520 -278 1487 -297 1469 -329 1442 -355 1410 -379 1382 -406 1342 -429 1309 -452 1269 -474 1232 -507 1186 -524 1145 -548 1086 -566 1040 -602 995 -625 940 -648 880 -675 822 -712 766 -744 703 0 0 -5767 -4499zm-448308 402577l-5767 -4499 454075 -398078 5767 4499 -454075 398078zm-81164 -70186l0 0 264 1241 612 1578 972 1871 1327 2108 1666 2309 1975 2491 2250 2637 2509 2756 2733 2847 2929 2924 3108 2980 3253 3011 3367 3021 3463 3011 3531 2984 3568 2934 3591 2869 3573 2779 3540 2674 3472 2546 3381 2400 3258 2231 3116 2044 2934 1834 2719 1606 2469 1346 2171 1077 1816 771 1360 452 762 155 73 23 -365 177 5767 4499 -2035 945 -2336 86 -2313 -438 -2345 -780 -2464 -1045 -2637 -1295 -2806 -1538 -2984 -1761 -3144 -1962 -3290 -2163 -3412 -2331 -3518 -2501 -3591 -2628 -3650 -2765 -3682 -2860 -3691 -2952 -3678 -3016 -3631 -3076 -3573 -3102 -3477 -3121 -3362 -3112 -3235 -3098 -3066 -3061 -2879 -3002 -2674 -2939 -2441 -2856 -2185 -2756 -1903 -2655 -1602 -2546 -1273 -2436 -894 -2327 -456 -2236 0 0 7063 1141zm-17708 -114362l7063 1141 10645 113221 -7063 -1141 -10645 -113221zm16166 -37938l0 0 -534 502 -539 584 -538 657 -538 725 -525 785 -511 858 -502 921 -493 977 -479 1026 -451 1077 -438 1132 -416 1177 -401 1218 -379 1259 -360 1291 -329 1328 -310 1360 -287 1387 -261 1414 -237 1428 -201 1460 -182 1474 -155 1483 -128 1501 -96 1506 -64 1510 -41 1519 0 1511 23 1514 59 1506 87 1501 123 1488 -7063 -1141 -132 -1588 -96 -1601 -59 -1606 -32 -1597 9 -1611 41 -1601 64 -1593 105 -1588 128 -1583 164 -1565 192 -1546 219 -1534 246 -1519 278 -1487 297 -1469 328 -1442 356 -1410 379 -1383 406 -1341 429 -1309 452 -1269 474 -1232 507 -1186 524 -1145 548 -1086 566 -1040 602 -995 625 -940 648 -881 675 -821 712 -766 744 -703 0 0 5767 4499zm448308 -402577l5767 4498 -454075 398079 -5767 -4499 454075 -398078zm81164 70186l0 0 -265 -1241 -606 -1578 -977 -1862 -1332 -2112 -1661 -2318 -1971 -2487 -2254 -2632 -2509 -2756 -2733 -2856 -2930 -2921 -3107 -2974 -3253 -3016 -3367 -3021 -3463 -3011 -3531 -2979 -3573 -2939 -3586 -2870 -3573 -2778 -3540 -2669 -3472 -2551 -3381 -2395 -3258 -2236 -3116 -2039 -2934 -1839 -2719 -1606 -2469 -1346 -2172 -1077 -1815 -771 -1360 -452 -762 -155 -73 -23 365 -178 -5767 -4498 2035 -945 2336 -86 2313 438 2345 780 2464 1045 2637 1295 2806 1538 2984 1761 3144 1967 3289 2158 3413 2336 3518 2496 3591 2632 3650 2761 3682 2860 3696 2952 3672 3021 3632 3070 3573 3103 3477 3121 3362 3116 3235 3094 3066 3066 2879 3002 2674 2938 2436 2852 2190 2760 1907 2656 1597 2541 1269 2436 899 2327 456 2236 0 0 -7063 -1141z"/>
   </g>
   <g>
    <path class="fil3" d="M549488 71793l10645 113221c1538,16366 -2847,34707 -9750,40757l-241253 211500 -65970 -47529 -16408 -175245 240924 -211212c6899,-6045 80184,51174 81812,68508z"/>
    <path id="1" class="fil4" d="M563678 185598l-7090 -1168 -10645 -113221 7091 1168 10644 113221zm-16197 37915l4 0 534 -502 539 -579 538 -657 534 -726 529 -794 516 -853 502 -917 492 -976 470 -1032 457 -1081 438 -1127 424 -1177 397 -1214 374 -1259 360 -1296 329 -1332 310 -1355 288 -1387 260 -1419 237 -1433 205 -1451 178 -1473 155 -1488 128 -1496 96 -1511 68 -1510 37 -1515 0 -1514 -23 -1515 -59 -1510 -87 -1497 -123 -1487 7090 1168 132 1588 96 1606 60 1601 32 1597 -10 1606 -36 1606 -69 1592 -104 1593 -128 1578 -164 1561 -188 1556 -223 1533 -246 1514 -279 1492 -296 1470 -329 1437 -356 1414 -378 1378 -402 1342 -433 1314 -452 1268 -475 1227 -502 1182 -524 1141 -548 1095 -575 1045 -597 990 -621 940 -652 880 -676 821 -711 762 -744 703 5 0 -5804 -4517zm-235449 216017l-4813 -343 -991 -4174 241253 -211500 5804 4517 -241253 211500zm0 0l-1957 1715 -2856 -2058 4813 343zm-70784 -47871l-1634 -2501 5457 -1332 65971 47529 -3823 3832 -65971 -47528zm0 0l-1501 -1082 -133 -1419 1634 2501zm-18041 -177746l644 -1674 6447 2842 16407 175245 -7091 -1168 -16407 -175245zm0 0l-96 -1026 740 -648 -644 1674zm241568 -212886l4 0 5799 4517 -240924 211212 -5803 -4517 240924 -211212zm81168 70182l0 0 -264 -1241 -607 -1579 -977 -1862 -1327 -2112 -1661 -2313 -1976 -2487 -2249 -2633 -2509 -2755 -2733 -2852 -2925 -2925 -3112 -2970 -3248 -3016 -3368 -3020 -3463 -3012 -3531 -2979 -3573 -2938 -3586 -2870 -3572 -2774 -3541 -2674 -3467 -2546 -3381 -2400 -3258 -2231 -3116 -2039 -2934 -1839 -2719 -1606 -2464 -1346 -2172 -1072 -1811 -771 -1355 -452 -758 -155 -68 -18 356 -178 -5795 -4517 2026 -945 2341 -82 2317 438 2350 780 2468 1045 2638 1300 2810 1538 2984 1761 3144 1967 3289 2158 3413 2340 3518 2492 3595 2637 3650 2756 3682 2865 3696 2952 3673 3020 3632 3071 3572 3103 3477 3120 3367 3117 3231 3098 3070 3061 2879 3007 2674 2938 2441 2852 2185 2760 1908 2660 1601 2542 1269 2436 898 2327 457 2236 0 0 -7091 -1168z"/>
   </g>
   <path class="fil5" d="M325017 423346l-16051 14071 -69438 -37842c-7994,-4357 -14838,-12985 -15212,-19177l-9426 -155498 27973 -24524 10535 173790c347,5771 6730,13815 14181,17876l57438 31304z"/>
   <path class="fil6" d="M478152 31204l-10494 134222 -430058 397997 438330 -387963 68841 37240 -64228 -46977c0,0 -3372,-135131 -2391,-134519z"/>
   <path class="fil7" d="M25240 546527l-7177 -130349 183080 -162369 -155042 170317c0,0 -21486,123209 -20861,122401z"/>
   <path class="fil7" d="M459240 29306l1624 132872 -189320 170450 172895 -177125c0,0 15426,-127005 14801,-126197z"/>
  </g>
 </g>
</svg>
