<?xml version="1.0" encoding="UTF-8"?>
<!DOCTYPE svg PUBLIC "-//W3C//DTD SVG 1.1//EN" "http://www.w3.org/Graphics/SVG/1.1/DTD/svg11.dtd">
<!-- Creator: CorelDRAW X7 -->
<svg xmlns="http://www.w3.org/2000/svg" xml:space="preserve" width="22.0369mm" height="19.8772mm" version="1.1" style="shape-rendering:geometricPrecision; text-rendering:geometricPrecision; image-rendering:optimizeQuality; fill-rule:evenodd; clip-rule:evenodd"
viewBox="0 0 436292 393534"
 xmlns:xlink="http://www.w3.org/1999/xlink">
 <defs>
  <style type="text/css">
   <![CDATA[
    .fil1 {fill:#663300}
    .fil2 {fill:#AB5623}
    .fil0 {fill:white}
   ]]>
  </style>
 </defs>
 <g id="Layer_x0020_1">
  <metadata id="CorelCorpID_0Corel-Layer"/>
  <path class="fil0" d="M288243 4641l-5215 -2105c-566,832 -309,1538 -744,2517l-2277 -2471 -366 1570c-675,-899 -1663,-1990 -2245,-2847l572 2385c-1121,-570 -1942,-1498 -2782,-2365l733 3330c-1313,-751 -1141,-622 -2055,-1760 -491,710 -113,-96 -337,817 -14,58 -59,810 -69,869l-2127 -922c-1512,-175 -1116,-266 -2665,-717l1580 4740c-445,-434 -2595,-3748 -3235,-3829 -1605,-202 644,386 -1091,740l-1502 -1091c-28,48 -62,99 -83,232 -30,204 -204,463 -264,554l-663 877c-911,-1009 -432,-508 -1447,-1110l726 3023 -1873 -2378c254,10 -245,1148 -801,1325l-2404 -448 -1900 -370c-224,992 352,273 -125,1109l-1663 -1069c-566,706 4,-86 -260,984l-192 851c-14,53 -25,202 -79,283 -705,-721 -1588,-1489 -2182,-2210 -491,693 -453,1753 -273,2467 -1057,-245 -1673,-1039 -2884,-1667l1005 4207c-111,2 -861,-576 -877,-584 -55,-29 -190,-103 -251,-130 -60,-28 -188,-70 -250,-91l-5553 -2493 1441 3510c-784,-435 -730,-471 -1467,-1039 -1797,-1380 -2193,457 -4492,-1497 -578,663 -85,784 -715,1756l-3183 -2322 -545 2328 -1928 -1164 -964 2469 -2580 -911 -396 1176c-8,30 -18,145 -47,210l-4427 -538 1447 4399c-1608,-964 -2899,-2493 -4449,-3348l444 2613 -4526 -1031 -444 1829 -2033 -719 867 2016c-1047,-440 -1445,-800 -2516,-1287l909 3350c-816,-735 -1859,-1465 -2982,-2168 -1297,988 -1148,612 -2126,1219 -978,608 -551,587 -972,1533 -307,-14 -1078,-69 -1347,-42 -2342,232 1299,-366 -784,113 -119,30 -231,67 -344,103l-2422 1435 1279 2277 -4393 -1271c630,1493 701,1042 1451,2330l-4161 -441c756,1861 802,2402 2928,2750l-1125 546c1127,685 2723,1549 3315,1757l-6172 -1097c99,111 270,69 327,231l2142 1194 -4478 -47 2075 1025c-1505,335 -2718,214 -4104,460 -1283,229 -2216,728 -3425,1025l3260 2233 -3076 -441c530,1295 1340,2320 1675,3563l-4053 4c75,103 198,125 239,297l707 778c501,472 452,359 877,678l-5353 358c1017,1031 2283,1214 3548,1982l-5906 2449 6228 340 -8400 2241 2898 1400c-2902,1002 -6660,1380 -8932,2796l9055 180c-885,2392 -1797,2302 -4336,3166 -1671,566 -3947,1219 -5397,1912l4107 64 -4128 3264 2991 762 -6409 9979c-6192,11732 -10378,23673 -12700,37324 -5625,33029 5908,46900 4288,59234 -734,5607 -1760,8361 -4456,11873 -3592,4678 -14285,12974 -15297,17890 -2888,14013 10345,15636 13141,19333 1144,1510 706,12942 835,15832 299,6765 -406,9341 6904,10171 4092,467 28026,1522 31398,2896 -1364,3481 -27720,7254 -30973,9802 -1597,1252 -2263,5647 -1300,7961 1324,3168 6351,3809 8495,7039 3892,5864 -5183,16258 5387,23403 4071,2752 9115,5011 15320,5171 7278,190 10960,-1635 19074,-673 7375,873 11200,1226 18689,279 4637,-584 9496,-997 14215,-366 503,65 1883,254 2307,378 4407,1301 -73,6017 374,14307 252,4620 2307,9754 1857,13718 -598,5266 -3981,6428 -7115,8770 -3813,2847 -4900,3891 -7282,8672 -3607,7244 -6999,14003 -9204,22245 -2238,8363 -3437,19496 -3269,28672 2934,-1524 4724,-4371 7725,-6100l26605 -15440c5983,-3332 11743,-6849 17714,-10198 16864,-9458 40341,-20442 58824,-25718 16979,-4843 33131,-4538 51209,-3216 -2946,-9190 -10408,-26337 -14546,-35567 -3217,-7175 -5698,-9418 -6084,-18933 -664,-16326 3643,-16009 4943,-20224l921 2019 1192 -2653c-208,525 643,1756 810,1984 1253,-2738 3409,-3894 4603,-6545 661,412 -311,-501 320,475l765 1172c451,-1386 1134,-2053 1710,-3300 683,1378 224,1191 258,3029 198,-1018 269,-1242 679,-2142 1776,-3915 -982,148 2071,-1588 23,-14 126,-64 148,-76 1166,-558 1536,-3015 1996,-4240 225,2275 249,1138 643,1702 283,-1772 921,-2769 1410,-4266l517 2401 1769 -6072 301 2920 2489 -5062 863 1309c44,87 105,263 182,380 654,-4203 838,-2855 1768,-1493l662 -2053c1190,1081 445,1055 1292,701l418 -3835 2208 2124 380 -3860c624,1277 1128,1605 1487,2793l-1303 -7076 2081 1582c-167,-2580 517,-3478 182,-6165 -202,-1633 -600,-4225 -515,-5678 376,918 988,1437 1307,2718 -52,-978 -770,-2546 -370,-3368 661,-1354 -1133,961 273,-271l-396 -3944 1710 2162 1828 -7192 348 3437c3679,-1937 2214,-3154 3903,-7049l1136 2845 972 -4213c1689,-600 -1253,-542 481,240 1455,657 -863,968 661,216l501 -3216 1117 2954c42,-49 182,-297 228,-215l2403 -2335c659,-653 -41,802 430,-558 200,-576 124,-1394 134,-2061l1030 1687 744 -4728 570 2570 1380 -5950c1014,486 1687,1040 2618,1466l-927 -5289c531,683 1628,1495 2350,2301l-1134 -5694c1473,1063 1037,1162 2750,1903l-10 -5857c49,6 49,40 53,68l1117 1134 491 -4332 1503 1610 1007 -4637c22,-2 137,-12 198,-40l-23 -3088c665,974 738,889 1027,2087l-489 -9395c485,887 1424,2566 2031,3340l-491 -3571c60,-48 216,-165 242,-80l467 -91c1285,0 -542,190 608,173l-683 -3093c746,-229 214,883 1158,436l-681 -2499c1574,667 739,772 2619,1323l-1326 -5312 2405 2259c-71,-2425 -413,-3643 -388,-6076 20,-1808 -1065,-3770 -1494,-5453 554,976 1625,2319 2263,3301 -317,-2493 -727,-4477 -20,-6332l1972 994 -1772 -4334c1601,-655 -1784,-6 544,32 1200,22 -336,28 428,4l477 -44c-1107,-3910 -497,-5219 -2623,-9228 1760,867 1441,1669 3452,2628 -886,-2000 -1863,-2806 -2650,-4518l2072 1300 -3338 -9194 2248 990c-42,-81 -143,-277 -187,-356 -47,-88 -148,-262 -213,-396 2597,867 1288,615 2011,71l-1558 -4215c36,-14 156,-60 228,-105l-2113 -3108 2851 1197c-410,-1463 -725,-1894 -1429,-2959 703,-385 -1032,128 649,75l-3340 -4233 1736 -432 -2276 -2180c1332,763 2591,1493 4369,2105 -1063,-2514 -4710,-5100 -5633,-7054l2941 1421c-523,-1385 -1600,-3227 -2390,-4066l1990 1192c-517,-2255 -1861,-3887 -3002,-5423 89,-38 1036,376 1556,40 -493,-670 -914,-1311 -843,-2228 4,-45 45,-170 47,-214 32,-902 -1174,-2302 -1758,-2910 66,-41 188,-160 212,-91l1178 -352 -2479 -4661c-423,-626 -694,-762 -1312,-1518l2576 932c-816,-1661 -2194,-3187 -3136,-4350l2352 612c-1662,-1376 -2843,-3179 -4514,-4643 1500,254 1833,731 3813,1014 -735,-1891 -1640,-2477 -3186,-3744l-2158 -1787c-655,-313 -362,25 -1162,-450 832,-1192 538,-471 1435,-1516l-4254 -145 2613 -2647c-1600,182 -1857,422 -3199,-46l3819 -1922 -4425 574c536,-1158 915,-1453 1388,-2845l-2396 950 2548 -2379 -2882 -305c1075,-1014 1526,-1275 2221,-2673l-6076 859c1150,-990 1301,-1625 3011,-2433 -782,-523 -43,-358 -1330,-360 -46,0 -1192,253 -1362,285 496,-554 1243,-1275 1724,-1804 -430,174 -948,454 -1287,519 -73,14 -214,36 -283,42l2980 -4510 -5298 2086 1736 -3898 -5027 604c727,-1196 1093,-1244 1800,-2400l-2600 1034 365 -3190c-1266,-509 -115,408 -1343,-2l917 -3136c-1408,1432 -2651,3263 -4106,4431l629 -5724c-65,-31 -192,-128 -213,-63 -22,67 -183,-55 -212,-67l-1026 -4156 -1491 2311 -742 -2972 -642 2116c-661,-1126 -863,-2991 -1627,-4074l-513 3656c-768,-1710 -366,-2455 -855,-4100 -444,-1491 -1313,-2055 -2324,-3130 -56,-57 -165,-172 -250,-255l188 3104c-1782,-1954 -1849,-5504 -3294,-7800l328 4203c-1063,-501 -1667,-2342 -2128,-3706l-1863 617 1315 -2930 -2907 1766c-364,-554 -97,311 -291,-930 -328,-2105 26,-123 -39,-929l-541 -1851c-404,1275 -940,2186 -1421,3211l-1988 -3587 -77 3441 -2026 -4956 -386 2366c-439,-1495 -1803,-5644 -1772,-6302l-97 5346c-1126,-1267 -1783,-4209 -1682,-5811l120 4809 -1970 -3977 -415 2569c-664,-976 -1103,-1669 -1521,-2870 -544,780 -344,138 -449,1465 -32,382 162,1067 208,1649 -529,-1133 -1897,-1756 -3344,-4265 -32,-55 -495,-831 -507,-847l-921 3449 -1265 -2416 315 3293c-1372,-2530 -2225,-5953 -3631,-8674 -38,-75 -111,-216 -174,-318 231,1894 603,4167 69,5598l-2075 -4403 -1281 2762 -893 -786c149,1533 325,1210 -144,2305l-1582 -3831c-689,-1115 -192,-485 -923,-1184l125 4714 -1418 -2913 -607 1776c-624,-734 -1018,-1372 -1378,-2290l-470 2419c-976,-1566 -2910,-4065 -4522,-5064l1677 5276 -2522 -1730c-1536,-1331 -2407,-2772 -4363,-4063l154 3542c-374,-1000 -1499,-2376 -2059,-3720 -1756,516 -440,655 -1970,1158l-1057 -2942c-359,344 -216,137 -634,687 -227,301 -451,671 -659,1122 -113,242 -248,664 -374,965 -46,105 -91,227 -137,328 -43,103 -107,232 -148,323l-323 640c-552,-1064 -1511,-2392 -2473,-3113l-578 4730 -1103 -2451c-1021,2160 -512,2051 -1718,-1350l-481 2180c-533,-711 -246,-359 -681,-927l-992 -1049c366,1639 612,1267 176,2425 -541,-1018 -836,-1388 -1525,-2132 -312,1415 14,1348 -679,2629 -144,-560 -320,-1372 -598,-1857 -1629,-2875 101,521 -1975,-1463 -974,-929 -206,-539 -1501,-1374l740 2969c-279,-271 -1964,-2290 -2427,-2706l1255 4706 -2682 -3106c-34,101 -82,235 -113,348 -85,297 -163,1063 -222,1420l-2477 -3334c-780,1724 535,621 -477,1791l-2510 -2890 865 3857 -3172 -2740 105 1870 -2613 -3189 1342 4585c-1398,-673 -1958,-2294 -3271,-3158l-487 2794 -2084 -2665 -202 1663 -1549 -2112 -300 1168c-10,35 -34,154 -66,223l-2706 -1991 -99 3672c-802,-720 -1261,-2029 -1752,-3433 -256,549 -301,1879 -2220,1234 -639,-216 -2241,-1889 -3253,-2473 1036,4922 -2278,1305 628,4639z"/>
  <path class="fil1" d="M288207 8967l-5028 -2030c-547,800 -297,1483 -717,2428l-2196 -2384 -354 1514c-651,-867 -1604,-1918 -2166,-2746l552 2301c-1081,-550 -1873,-1445 -2682,-2281l706 3211c-1265,-724 -1100,-599 -1981,-1698 -474,687 -109,-91 -325,788 -12,57 -55,782 -65,839l-2053 -891c-1460,-166 -1077,-255 -2568,-689l1522 4570c-429,-418 -2504,-3613 -3120,-3693 -1548,-194 620,373 -1051,715l-1451 -1053c-26,45 -58,97 -80,224 -27,198 -196,447 -251,534l-642 845c-877,-974 -417,-489 -1393,-1071l698 2917 -1805 -2293c243,10 -238,1107 -774,1277l-2319 -430 -1831 -358c-216,956 341,263 -121,1069l-1603 -1031c-547,681 4,-81 -250,950l-186 820c-14,51 -24,194 -75,273 -681,-695 -1533,-1436 -2105,-2130 -475,667 -437,1690 -263,2377 -1020,-235 -1614,-1001 -2782,-1607l968 4058c-106,2 -829,-556 -843,-564 -55,-30 -184,-99 -245,-127 -56,-25 -181,-65 -240,-87l-5355 -2403 1391 3385c-758,-421 -706,-455 -1415,-1001 -1735,-1331 -2117,439 -4334,-1446 -556,640 -81,759 -689,1695l-3071 -2239 -524 2245 -1859 -1123 -931 2380 -2487 -879 -382 1134c-8,30 -18,141 -45,204l-4269 -520 1394 4242c-1548,-930 -2796,-2403 -4288,-3227l427 2519 -4365 -994 -428 1764 -1962 -693 838 1944c-1010,-424 -1394,-772 -2428,-1241l875 3231c-784,-709 -1789,-1414 -2872,-2091 -1254,950 -1109,590 -2051,1176 -943,586 -533,564 -939,1477 -297,-14 -1037,-67 -1299,-41 -2257,225 1254,-353 -754,110 -115,28 -224,64 -334,99l-2335 1384 1234 2198 -4237 -1228c608,1440 675,1006 1400,2248l-4013 -426c728,1796 774,2316 2823,2653l-1085 526c1087,662 2627,1493 3197,1695l-5951 -1059c95,107 259,67 315,224l2067 1150 -4318 -46 1999 988c-1451,325 -2623,208 -3957,446 -1238,220 -2139,701 -3303,988l3144 2154 -2968 -426c511,1247 1293,2237 1614,3435l-3906 6c71,99 190,119 231,287l681 751c482,453 434,344 846,651l-5164 346c982,994 2204,1170 3422,1911l-5694 2360 6006 328 -8101 2162 2795 1351c-2799,966 -6422,1332 -8614,2696l8731 174c-851,2307 -1732,2220 -4181,3051 -1612,549 -3807,1178 -5203,1846l3960 61 -3982 3148 2885 734 -6179 9624c-5973,11315 -10010,22830 -12249,35994 -5425,31853 5695,45231 4135,57126 -708,5406 -1696,8063 -4298,11449 -3463,4512 -13773,12512 -14752,17252 -2785,13514 9977,15080 12673,18646 1105,1457 681,12479 806,15268 287,6522 -392,9009 6656,9809 3948,449 27031,1467 30282,2793 -1317,3354 -26734,6995 -29870,9452 -1540,1206 -2182,5446 -1255,7676 1279,3056 6126,3674 8192,6788 3756,5655 -4997,15679 5197,22570 3926,2655 8789,4833 14772,4988 7020,184 10570,-1578 18395,-650 7113,842 10801,1182 18024,269 4472,-562 9159,-962 13710,-354 485,65 1816,246 2224,366 4250,1256 -70,5801 360,13796 243,4456 2225,9408 1792,13231 -577,5078 -3839,6199 -6862,8456 -3679,2746 -4726,3752 -7023,8365 -3478,6984 -6749,13504 -8875,21453 -2160,8064 -3317,18798 -3154,27650 2831,-1471 4555,-4217 7450,-5884l25656 -14890c5772,-3213 11325,-6603 17084,-9834 16263,-9123 38904,-19715 56730,-24801 16373,-4673 31949,-4378 49383,-3103 -2841,-8863 -10038,-25399 -14027,-34300 -3102,-6920 -5496,-9082 -5868,-18258 -640,-15746 3512,-15439 4767,-19503l889 1946 1148 -2558c-200,507 622,1695 780,1912 1210,-2639 3291,-3755 4441,-6311 638,398 -301,-483 309,459l737 1131c435,-1339 1094,-1980 1651,-3184 659,1328 214,1150 247,2920 190,-982 262,-1196 656,-2065 1712,-3773 -947,145 1997,-1532 22,-12 123,-59 143,-71 1124,-539 1481,-2907 1924,-4091 218,2196 240,1099 622,1642 271,-1709 887,-2671 1358,-4114l499 2316 1706 -5854 292 2815 2399 -4882 832 1263c41,83 101,251 176,366 629,-4055 808,-2754 1704,-1441l638 -1978c1146,1041 430,1016 1247,675l404 -3698 2128 2047 365 -3722c602,1231 1089,1548 1435,2694l-1257 -6824 2009 1526c-162,-2488 497,-3356 173,-5947 -194,-1574 -576,-4075 -495,-5474 362,887 952,1386 1259,2621 -50,-944 -741,-2457 -356,-3249 637,-1305 -1091,927 265,-261l-384 -3804 1651 2085 1762 -6937 337 3316c3545,-1867 2132,-3043 3763,-6797l1095 2744 938 -4064c1628,-578 -1209,-523 462,231 1405,636 -832,935 639,210l483 -3102 1077 2849c40,-48 177,-287 218,-208l2319 -2251c637,-632 -40,774 415,-539 192,-556 119,-1344 131,-1987l992 1625 719 -4559 548 2478 1330 -5735c978,467 1628,1002 2525,1411l-893 -5100c513,660 1568,1442 2265,2220l-1093 -5492c1421,1025 1002,1120 2653,1835l-12 -5646c47,3 47,35 51,63l1079 1095 474 -4178 1449 1550 970 -4470c24,-2 133,-12 192,-40l-22 -2975c640,938 711,857 988,2011l-471 -9059c469,855 1374,2474 1960,3221l-473 -3445c57,-46 208,-159 233,-75l450 -89c1239,0 -523,184 588,166l-659 -2984c718,-220 205,854 1116,420l-657 -2409c1516,645 713,746 2526,1277l-1279 -5124 2320 2180c-69,-2341 -399,-3515 -374,-5859 18,-1744 -1029,-3637 -1443,-5260 537,942 1568,2237 2182,3183 -305,-2405 -699,-4316 -18,-6105l1901 960 -1709 -4182c1546,-631 -1718,-6 525,32 1158,20 -325,26 413,2l460 -42c-1067,-3769 -477,-5032 -2530,-8897 1698,834 1389,1610 3330,2532 -856,-1928 -1796,-2706 -2556,-4357l1999 1255 -3219 -8866 2168 955c-42,-80 -139,-270 -180,-345 -46,-83 -143,-253 -208,-382 2506,835 1245,594 1940,69l-1501 -4066c34,-12 151,-56 218,-101l-2037 -2996 2750 1154c-394,-1411 -699,-1827 -1378,-2854 677,-371 -996,124 626,73l-3220 -4083 1673 -415 -2197 -2105c1287,737 2500,1441 4215,2031 -1024,-2425 -4542,-4919 -5431,-6802l2833 1372c-503,-1337 -1542,-3115 -2302,-3922l1916 1148c-497,-2174 -1793,-3748 -2892,-5229 85,-37 998,363 1500,38 -475,-646 -883,-1265 -813,-2148 4,-46 45,-165 45,-206 30,-871 -1132,-2221 -1694,-2808 61,-39 182,-152 203,-87l1135 -340 -2388 -4494c-410,-602 -671,-735 -1267,-1465l2485 898c-788,-1601 -2117,-3072 -3025,-4193l2269 590c-1602,-1328 -2743,-3065 -4354,-4476 1447,243 1768,703 3676,976 -708,-1824 -1579,-2388 -3070,-3611l-2081 -1723c-632,-301 -351,24 -1123,-433 802,-1149 521,-456 1384,-1464l-4102 -138 2520 -2554c-1542,176 -1791,408 -3084,-44l3682 -1853 -4266 553c516,-1117 881,-1402 1338,-2742l-2310 914 2457 -2294 -2782 -293c1037,-978 1473,-1230 2144,-2578l-5860 829c1109,-956 1253,-1568 2904,-2346 -754,-505 -43,-348 -1283,-348 -43,0 -1148,243 -1314,275 479,-535 1199,-1231 1663,-1740 -412,168 -915,437 -1242,501 -69,12 -204,33 -273,39l2875 -4349 -5108 2011 1673 -3758 -4849 580c701,-1152 1056,-1197 1737,-2312l-2507 998 353 -3077c-1222,-491 -113,392 -1297,-2l885 -3025c-1358,1382 -2556,3146 -3960,4274l606 -5519c-61,-32 -184,-125 -204,-62 -24,66 -178,-55 -204,-65l-990 -4009 -1439 2229 -715 -2865 -620 2040c-635,-1085 -831,-2885 -1568,-3930l-495 3528c-740,-1650 -354,-2366 -825,-3956 -426,-1435 -1265,-1982 -2241,-3015 -54,-58 -159,-169 -240,-250l180 2994c-1716,-1883 -1784,-5306 -3175,-7522l316 4053c-1025,-481 -1607,-2257 -2053,-3574l-1797 596 1269 -2825 -2804 1703c-350,-535 -93,299 -281,-897 -315,-2029 26,-119 -37,-897l-523 -1786c-388,1230 -907,2111 -1370,3099l-1917 -3459 -73 3318 -1954 -4779 -374 2281c-422,-1440 -1736,-5443 -1707,-6076l-95 5155c-1087,-1223 -1718,-4061 -1621,-5603l117 4635 -1899 -3833 -402 2477c-640,-941 -1063,-1610 -1467,-2770 -525,752 -333,135 -434,1414 -29,368 157,1029 200,1591 -509,-1095 -1827,-1694 -3225,-4114 -30,-53 -477,-802 -489,-815l-887 3326 -1219 -2331 302 3176c-1322,-2441 -2144,-5741 -3502,-8367 -35,-71 -105,-206 -166,-307 222,1828 582,4019 65,5401l-1999 -4246 -1236 2663 -861 -759c143,1477 313,1168 -139,2224l-1526 -3695c-663,-1075 -184,-469 -889,-1142l119 4546 -1366 -2808 -586 1713c-602,-709 -982,-1323 -1331,-2210l-451 2334c-941,-1510 -2808,-3920 -4362,-4886l1620 5090 -2433 -1669c-1483,-1283 -2323,-2674 -4210,-3918l149 3416c-360,-965 -1445,-2291 -1986,-3588 -1693,499 -424,634 -1899,1117l-1019 -2837c-347,332 -208,132 -610,663 -220,289 -437,647 -637,1083 -109,231 -240,639 -361,930 -43,101 -87,218 -130,315 -44,99 -103,224 -145,313l-311 616c-532,-1026 -1457,-2307 -2385,-3002l-557 4562 -1063 -2364c-986,2083 -497,1978 -1657,-1301l-465 2101c-515,-685 -236,-347 -658,-893l-956 -1012c353,1580 590,1222 172,2338 -522,-982 -807,-1338 -1471,-2057 -303,1366 12,1301 -655,2536 -139,-538 -311,-1322 -576,-1791 -1574,-2770 95,503 -1907,-1410 -938,-895 -198,-519 -1447,-1326l715 2864c-269,-261 -1895,-2209 -2340,-2609l1209 4538 -2587 -2996c-32,97 -78,228 -109,335 -81,289 -157,1025 -214,1370l-2390 -3213c-752,1663 517,597 -459,1726l-2419 -2788 833 3720 -3059 -2643 101 1804 -2520 -3075 1295 4421c-1348,-647 -1889,-2211 -3156,-3045l-467 2695 -2012 -2570 -194 1604 -1493 -2038 -291 1125c-10,36 -31,149 -63,218l-2609 -1923 -97 3542c-773,-693 -1214,-1956 -1689,-3310 -248,529 -291,1812 -2140,1190 -618,-208 -2162,-1822 -3138,-2386 999,4748 -2196,1259 605,4475z"/>
  <path class="fil2" d="M284802 18337l-4775 -1924c-519,760 -281,1407 -681,2302l-2085 -2261 -335 1438c-619,-824 -1524,-1824 -2057,-2608l525 2184c-1026,-523 -1778,-1372 -2548,-2166l673 3049c-1202,-687 -1045,-568 -1883,-1612 -449,652 -105,-87 -309,749 -12,53 -53,742 -61,796l-1948 -846c-1386,-158 -1024,-241 -2439,-655l1445 4340c-408,-398 -2378,-3431 -2962,-3506 -1469,-185 588,354 -1000,677l-1376 -998c-23,43 -55,91 -75,212 -28,188 -186,423 -239,506l-608 804c-834,-924 -396,-465 -1325,-1017l663 2769 -1714 -2177c232,9 -226,1051 -733,1211l-2201 -408 -1740 -338c-204,907 322,249 -115,1014l-1523 -979c-516,648 4,-79 -237,901l-175 778c-13,50 -23,186 -73,262 -645,-662 -1455,-1364 -1997,-2024 -450,634 -416,1604 -250,2259 -968,-225 -1532,-952 -2641,-1526l919 3853c-101,0 -788,-529 -802,-537 -52,-28 -174,-93 -232,-119 -53,-25 -172,-63 -227,-85l-5085 -2281 1321 3214c-719,-398 -669,-432 -1344,-951 -1646,-1263 -2010,418 -4115,-1372 -526,608 -77,719 -653,1608l-2914 -2124 -499 2130 -1766 -1065 -883 2261 -2360 -836 -364 1077c-6,28 -16,133 -44,194l-4053 -495 1325 4029c-1471,-883 -2653,-2282 -4073,-3065l406 2392 -4144 -944 -405 1675 -1863 -658 796 1846c-959,-402 -1323,-733 -2305,-1178l832 3066c-747,-671 -1701,-1342 -2731,-1983 -1188,902 -1051,558 -1946,1114 -895,558 -505,537 -889,1404 -283,-14 -988,-63 -1235,-40 -2142,214 1192,-334 -715,105 -111,26 -214,62 -319,93l-2215 1315 1170 2087 -4021 -1165c576,1367 641,953 1328,2133l-3809 -404c691,1704 733,2199 2679,2518l-1030 499c1032,628 2495,1420 3036,1610l-5651 -1004c91,101 248,61 299,210l1962 1093 -4100 -44 1900 939c-1378,306 -2490,198 -3759,421 -1174,210 -2028,667 -3134,941l2985 2043 -2817 -404c485,1186 1227,2124 1532,3263l-3710 4c67,95 182,115 220,273l647 713c458,429 412,326 802,617l-4902 331c933,942 2093,1109 3249,1813l-5407 2242 5704 310 -7692 2054 2653 1281c-2657,918 -6098,1265 -8178,2559l8289 167c-808,2189 -1645,2108 -3969,2896 -1531,521 -3614,1119 -4940,1752l3760 58 -3780 2989 2738 697 -5866 9137c-5670,10743 -9503,21675 -11631,34174 -5150,30242 5410,42942 3928,54235 -672,5134 -1612,7656 -4081,10872 -3288,4282 -13079,11878 -14005,16379 -2645,12831 9471,14318 12031,17701 1050,1384 648,11850 764,14497 274,6192 -370,8552 6322,9313 3748,425 25663,1393 28747,2651 -1249,3185 -25379,6642 -28357,8974 -1463,1147 -2073,5172 -1192,7288 1214,2900 5817,3488 7779,6446 3566,5368 -4746,14885 4934,21428 3726,2520 8345,4589 14025,4736 6664,174 10036,-1499 17464,-618 6751,800 10255,1123 17111,255 4247,-534 8696,-912 13018,-336 459,61 1722,233 2110,346 4035,1192 -67,5510 343,13101 229,4231 2112,8931 1701,12560 -547,4821 -3645,5886 -6516,8030 -3493,2605 -4486,3562 -6666,7941 -3303,6631 -6409,12819 -8428,20367 -2049,7656 -3146,17848 -2994,26252 2687,-1396 4326,-4003 7074,-5585l24360 -14138c5478,-3051 10750,-6270 16219,-9337 15438,-8662 36935,-18717 53859,-23548 15545,-4435 30333,-4156 46886,-2944 -2698,-8414 -9531,-24114 -13318,-32566 -2946,-6569 -5217,-8622 -5571,-17333 -606,-14950 3336,-14659 4527,-18518l844 1849 1091 -2429c-190,481 588,1608 740,1816 1149,-2507 3122,-3566 4215,-5993 604,378 -285,-458 293,435l699 1073c414,-1269 1040,-1879 1568,-3023 626,1263 204,1093 236,2774 180,-931 247,-1135 621,-1962 1626,-3582 -898,138 1897,-1453 20,-12 115,-58 135,-68 1069,-512 1405,-2760 1827,-3884 206,2085 228,1043 590,1560 257,-1623 842,-2536 1289,-3908l475 2199 1620 -5557 275 2673 2279 -4635 790 1198c39,79 97,239 168,348 598,-3848 766,-2615 1617,-1368l606 -1879c1089,990 408,967 1182,642l384 -3510 2022 1944 346 -3534c572,1168 1034,1469 1362,2556l-1192 -6478 1907 1449c-154,-2364 471,-3186 164,-5646 -184,-1495 -548,-3869 -469,-5198 343,842 903,1315 1194,2489 -48,-897 -703,-2332 -339,-3084 606,-1240 -1035,879 252,-248l-365 -3611 1569 1980 1672 -6587 319 3148c3368,-1774 2026,-2889 3574,-6454l1039 2605 891 -3859c1546,-548 -1148,-495 440,220 1332,604 -790,887 605,200l458 -2946 1023 2704c40,-45 169,-271 208,-196l2202 -2138c604,-598 -40,735 392,-511 184,-528 115,-1275 125,-1886l942 1542 681 -4328 523 2352 1263 -5444c928,443 1544,950 2397,1340l-849 -4841c487,626 1491,1366 2150,2107l-1035 -5215c1348,972 948,1063 2516,1742l-10 -5361c46,4 46,35 50,61l1021 1040 452 -3968 1376 1473 920 -4245c22,-2 127,-10 182,-37l-21 -2826c607,891 677,814 940,1911l-447 -8602c443,811 1302,2350 1861,3058l-450 -3270c54,-44 196,-151 220,-73l428 -84c1176,0 -497,175 558,157l-626 -2831c683,-208 194,809 1060,400l-624 -2289c1441,612 677,707 2399,1212l-1215 -4865 2203 2069c-67,-2219 -380,-3336 -356,-5561 18,-1657 -976,-3453 -1370,-4993 509,892 1489,2122 2073,3021 -289,-2283 -663,-4098 -18,-5797l1806 911 -1624 -3970c1469,-600 -1631,-4 499,30 1099,19 -309,25 392,4l436 -40c-1012,-3579 -454,-4779 -2402,-8450 1614,794 1321,1529 3162,2406 -812,-1832 -1705,-2568 -2425,-4136l1896 1192 -3055 -8419 2057 905c-39,-75 -132,-253 -170,-325 -43,-81 -136,-241 -198,-364 2380,794 1182,564 1843,66l-1425 -3859c32,-12 142,-56 206,-97l-1934 -2845 2611 1097c-374,-1341 -663,-1735 -1309,-2711 644,-352 -944,119 594,70l-3057 -3877 1590 -394 -2087 -1998c1222,699 2374,1368 4002,1929 -972,-2303 -4312,-4671 -5156,-6458l2691 1300c-477,-1269 -1465,-2956 -2188,-3724l1822 1091c-474,-2063 -1705,-3558 -2748,-4963 81,-36 948,344 1425,35 -451,-613 -839,-1199 -772,-2039 4,-41 41,-156 43,-196 28,-825 -1075,-2108 -1609,-2665 59,-37 172,-146 192,-83l1079 -323 -2269 -4266c-388,-572 -636,-697 -1202,-1392l2360 855c-748,-1522 -2009,-2920 -2873,-3983l2155 560c-1521,-1261 -2604,-2910 -4134,-4250 1374,231 1679,669 3490,926 -671,-1730 -1501,-2267 -2914,-3427l-1976 -1635c-600,-287 -335,21 -1065,-412 760,-1091 493,-432 1314,-1388l-3896 -133 2394 -2425c-1465,168 -1701,388 -2930,-41l3498 -1761 -4053 527c491,-1061 838,-1332 1271,-2605l-2193 869 2332 -2178 -2639 -279c984,-929 1397,-1166 2035,-2447l-5563 788c1051,-907 1190,-1489 2756,-2228 -717,-481 -40,-330 -1218,-332 -42,0 -1091,231 -1247,261 453,-507 1138,-1166 1578,-1651 -392,160 -868,416 -1178,475 -66,12 -194,32 -260,40l2728 -4130 -4848 1908 1590 -3567 -4605 552c665,-1095 1001,-1138 1649,-2196l-2382 947 335 -2920c-1159,-468 -105,372 -1230,-2l840 -2873c-1289,1311 -2428,2987 -3758,4057l574 -5239c-59,-30 -176,-119 -194,-59 -22,61 -168,-52 -194,-62l-938 -3805 -1367 2114 -681 -2720 -586 1938c-605,-1031 -790,-2740 -1490,-3732l-470 3350c-702,-1566 -336,-2247 -784,-3755 -404,-1365 -1199,-1881 -2126,-2865 -51,-54 -150,-159 -230,-234l173 2841c-1630,-1788 -1693,-5037 -3016,-7141l301 3849c-974,-460 -1526,-2144 -1950,-3394l-1706 566 1205 -2684 -2661 1617c-332,-506 -89,285 -267,-851 -301,-1928 24,-113 -36,-851l-497 -1695c-368,1168 -859,2002 -1300,2942l-1820 -3285 -69 3150 -1855 -4537 -355 2166c-401,-1369 -1649,-5168 -1621,-5770l-89 4894c-1032,-1160 -1633,-3854 -1540,-5319l110 4401 -1803 -3639 -382 2352c-606,-895 -1010,-1529 -1392,-2629 -499,714 -315,126 -412,1340 -28,350 149,978 190,1513 -483,-1040 -1736,-1610 -3061,-3907 -29,-49 -453,-762 -465,-776l-841 3158 -1158 -2211 287 3015c-1256,-2318 -2038,-5450 -3325,-7943 -35,-67 -101,-196 -158,-291 210,1734 552,3815 63,5128l-1900 -4033 -1172 2528 -818 -719c137,1402 297,1107 -133,2111l-1449 -3508c-629,-1020 -174,-446 -843,-1085l113 4318 -1297 -2667 -558 1625c-571,-673 -931,-1257 -1262,-2098l-427 2217c-895,-1435 -2667,-3722 -4142,-4639l1536 4831 -2308 -1584c-1410,-1217 -2206,-2538 -3995,-3720l140 3243c-344,-915 -1374,-2174 -1887,-3405 -1607,473 -402,600 -1803,1061l-968 -2695c-327,315 -196,125 -579,630 -209,275 -415,614 -603,1027 -103,222 -228,608 -343,883 -42,98 -83,208 -125,299 -41,95 -99,214 -136,297l-297 586c-505,-974 -1382,-2191 -2263,-2851l-531 4332 -1008 -2245c-936,1978 -471,1877 -1573,-1235l-442 1995c-487,-651 -224,-328 -624,-849l-906 -958c334,1499 558,1158 162,2219 -495,-932 -766,-1271 -1398,-1954 -287,1297 14,1236 -621,2410 -131,-513 -293,-1258 -547,-1703 -1493,-2629 91,479 -1809,-1338 -891,-850 -191,-493 -1374,-1260l677 2721c-256,-250 -1798,-2099 -2222,-2477l1149 4306 -2457 -2843c-30,93 -74,216 -103,319 -78,273 -149,974 -202,1301l-2269 -3053c-715,1580 489,568 -436,1641l-2298 -2647 792 3532 -2905 -2510 97 1714 -2393 -2922 1229 4199c-1279,-616 -1794,-2101 -2995,-2892l-446 2557 -1908 -2439 -186 1525 -1416 -1935 -275 1068c-12,33 -32,140 -62,206l-2478 -1826 -89 3364c-735,-659 -1155,-1857 -1604,-3144 -236,503 -277,1720 -2033,1130 -586,-198 -2052,-1730 -2978,-2265 946,4507 -2087,1196 574,4247z"/>
  <path class="fil1" d="M117802 152358c2730,-4714 8764,-6322 13478,-3592 4712,2730 6320,8765 3590,13479 -8038,13922 -12057,29501 -12057,45106l-40 0c0,15562 4035,31141 12099,45109 2730,4714 1122,10748 -3592,13478 -4712,2730 -10748,1123 -13476,-3591 -9816,-17001 -14726,-35997 -14728,-54996l-40 0c0,-18955 4922,-37947 14766,-54993zm-84052 -67689c2709,-4714 8725,-6337 13439,-3629 4714,2707 6338,8725 3629,13439 -20135,34877 -30202,73856 -30202,112872l-40 0c0,38951 10086,77914 30248,112837 2728,4712 1123,10748 -3591,13476 -4714,2730 -10749,1125 -13479,-3589 -21915,-37955 -32873,-80336 -32875,-122724l-40 0c0,-42317 10973,-84681 32911,-122682zm43863 27005c2709,-4714 8727,-6337 13439,-3629 4714,2707 6338,8725 3631,13439 -15337,26565 -23007,56219 -23007,85867l39 0c0,29670 7658,59312 22970,85832 2730,4712 1123,10748 -3589,13476 -4714,2731 -10749,1123 -13479,-3589 -17117,-29646 -25676,-62697 -25676,-95719l37 0c0,-33035 8547,-66075 25635,-95677z"/>
  <path class="fil0" d="M122484 150558c2849,-4868 9149,-6528 14071,-3708 4919,2817 6596,9051 3747,13918 -8390,14377 -12587,30467 -12587,46583l-42 0c0,16070 4213,32161 12631,46584 2849,4868 1172,11100 -3749,13920 -4920,2819 -11220,1160 -14069,-3708 -10248,-17560 -15373,-37176 -15375,-56796l-40 0c0,-19576 5138,-39188 15413,-56793zm-87742 -69904c2825,-4866 9109,-6543 14029,-3748 4920,2798 6617,9013 3789,13879 -21019,36019 -31530,76273 -31530,116566l-40 0c0,40224 10527,80462 31574,116527 2849,4868 1172,11101 -3747,13918 -4920,2819 -11222,1160 -14071,-3706 -22877,-39197 -34316,-82963 -34318,-126739l-42 0c0,-43700 11453,-87451 34356,-126697zm45789 27890c2828,-4868 9110,-6545 14029,-3748 4920,2796 6617,9010 3790,13879 -16011,27434 -24017,58058 -24017,88676l41 0c0,30640 7995,61252 23980,88639 2849,4866 1172,11099 -3750,13918 -4920,2820 -11220,1160 -14069,-3708 -17870,-30616 -26804,-64748 -26804,-98849l39 0c0,-34116 8921,-68236 26761,-98807z"/>
  <path class="fil2" d="M116962 149000c2730,-4714 8765,-6322 13479,-3592 4712,2731 6320,8765 3589,13479 -8038,13922 -12057,29501 -12057,45106l-39 0c0,15562 4034,31141 12098,45109 2730,4714 1123,10748 -3591,13478 -4712,2731 -10749,1123 -13477,-3591 -9816,-17001 -14726,-35997 -14728,-54996l-39 0c0,-18954 4922,-37947 14765,-54993zm-84051 -67689c2708,-4713 8725,-6337 13439,-3629 4714,2707 6337,8726 3629,13440 -20135,34876 -30203,73855 -30203,112871l-39 0c0,38952 10085,77915 30248,112837 2728,4712 1122,10748 -3592,13476 -4714,2731 -10748,1125 -13478,-3589 -21915,-37955 -32873,-80335 -32875,-122724l-40 0c0,-42316 10972,-84681 32911,-122682zm43863 27005c2708,-4714 8727,-6337 13439,-3629 4714,2707 6337,8725 3631,13439 -15338,26566 -23008,56220 -23008,85867l40 0c0,29670 7658,59312 22970,85832 2730,4712 1122,10748 -3590,13477 -4714,2730 -10748,1122 -13478,-3590 -17118,-29646 -25677,-62697 -25677,-95719l38 0c0,-33035 8547,-66074 25635,-95677z"/>
 </g>
</svg>
