<?xml version="1.0" encoding="UTF-8"?>
<!DOCTYPE svg PUBLIC "-//W3C//DTD SVG 1.1//EN" "http://www.w3.org/Graphics/SVG/1.1/DTD/svg11.dtd">
<!-- Creator: CorelDRAW X7 -->
<svg xmlns="http://www.w3.org/2000/svg" xml:space="preserve" width="1.47363in" height="1.46723in" version="1.1" style="shape-rendering:geometricPrecision; text-rendering:geometricPrecision; image-rendering:optimizeQuality; fill-rule:evenodd; clip-rule:evenodd"
viewBox="0 0 5887 5862"
 xmlns:xlink="http://www.w3.org/1999/xlink">
 <defs>
  <style type="text/css">
   <![CDATA[
    .fil2 {fill:#1A4498}
    .fil1 {fill:#2662DC}
    .fil3 {fill:#FDFDFF}
    .fil0 {fill:white}
   ]]>
  </style>
 </defs>
 <g id="Layer_x0020_1">
  <metadata id="CorelCorpID_0Corel-Layer"/>
  <g id="_2201647152">
   <path class="fil0" d="M3440 5781c-186,22 -188,-53 -274,-156 -70,-84 -141,-157 -213,-243 -67,-80 -134,-165 -204,-249 -105,-124 -167,-146 -213,-280l-3 -947c-90,-15 -343,-371 -414,-460l-116 -155c-3,-14 -12,-16 -17,-34l545 27c-78,-56 27,-18 -113,-39l-463 -8 11 -612 568 -10c-8,-1225 26,-1305 1357,-1227 59,159 28,367 29,541l34 -478c311,387 632,701 934,1090 62,80 140,174 224,269 154,174 675,725 666,905 60,-66 7,14 45,-78 6,-16 34,-118 34,-119 93,-502 -37,-1194 -287,-1652 -198,-362 -238,-369 -478,-653 -289,-343 -1008,-701 -1497,-800 -977,-199 -2016,63 -2673,686 -99,94 -204,176 -288,281 -265,333 -475,685 -569,1119 -301,1390 468,2688 1796,3173 386,141 1183,233 1460,169 127,-29 46,29 119,-60z"/>
   <path class="fil0" d="M3920 1929c-786,-1 -690,-106 -684,693l682 0 -89 622 -592 2 -2 1602 -699 5c46,134 108,156 213,280 70,84 137,169 204,249 72,86 143,159 213,243 86,103 88,178 274,156 379,92 1202,-381 1519,-680 293,-278 873,-943 819,-1386 9,-180 -512,-731 -666,-905 -84,-95 -162,-189 -224,-269 -302,-389 -623,-703 -934,-1090l-34 478z"/>
   <path class="fil0" d="M2531 3284l2 622 3 947 699 -5 2 -1602 592 -2 89 -622 -682 0c-6,-799 -102,-694 684,-693 -1,-174 30,-382 -29,-541 -1331,-78 -1365,2 -1357,1227l-568 10 -11 612 463 8c140,21 35,-17 113,39z"/>
   <path class="fil0" d="M2533 3906l-2 -622 -545 -27c5,18 14,20 17,34l116 155c71,89 324,445 414,460z"/>
  </g>
  <g id="_2201642544">
   <path class="fil1" d="M3440 5434c-186,22 -188,-53 -274,-156 -70,-84 -141,-158 -213,-243 -67,-80 -134,-165 -204,-249 -105,-124 -167,-146 -213,-280l-3 -947c-90,-15 -343,-372 -414,-460l-116 -156c-3,-13 -12,-16 -17,-33l545 26c-78,-56 27,-17 -113,-38l-463 -8 11 -613 568 -9c-8,-1225 26,-1305 1357,-1227 59,159 28,366 29,540l34 -477c311,387 632,700 934,1090 62,80 140,174 224,269 154,174 675,725 666,904 60,-65 7,14 45,-78 6,-16 34,-117 34,-118 93,-502 -37,-1194 -287,-1652 -198,-362 -238,-369 -478,-654 -289,-342 -1008,-700 -1497,-800 -977,-198 -2016,63 -2673,687 -99,93 -204,176 -288,281 -265,333 -475,685 -569,1119 -301,1389 468,2688 1796,3172 386,142 1183,233 1460,170 127,-29 46,28 119,-60z"/>
   <path class="fil2" d="M3920 1581c-786,0 -690,-106 -684,694l682 0 -89 622 -592 2 -2 1602 -699 5c46,134 108,156 213,280 70,84 137,169 204,249 72,85 143,159 213,243 86,103 88,178 274,156 379,92 1202,-381 1519,-681 293,-277 873,-942 819,-1386 9,-179 -512,-730 -666,-904 -84,-95 -162,-189 -224,-269 -302,-390 -623,-703 -934,-1090l-34 477z"/>
   <path class="fil3" d="M2531 2936l2 623 3 947 699 -5 2 -1602 592 -2 89 -622 -682 0c-6,-800 -102,-694 684,-694 -1,-174 30,-381 -29,-540 -1331,-78 -1365,2 -1357,1227l-568 9 -11 613 463 8c140,21 35,-18 113,38z"/>
   <path class="fil2" d="M2533 3559l-2 -623 -545 -26c5,17 14,20 17,33l116 156c71,88 324,445 414,460z"/>
  </g>
 </g>
</svg>
