<?xml version="1.0" encoding="UTF-8"?>
<!DOCTYPE svg PUBLIC "-//W3C//DTD SVG 1.1//EN" "http://www.w3.org/Graphics/SVG/1.1/DTD/svg11.dtd">
<!-- Creator: CorelDRAW X7 -->
<svg xmlns="http://www.w3.org/2000/svg" xml:space="preserve" width="0.646079in" height="0.295031in" version="1.1" style="shape-rendering:geometricPrecision; text-rendering:geometricPrecision; image-rendering:optimizeQuality; fill-rule:evenodd; clip-rule:evenodd"
viewBox="0 0 103 47"
 xmlns:xlink="http://www.w3.org/1999/xlink">
 <defs>
  <style type="text/css">
   <![CDATA[
    .fil15 {fill:#006633}
    .fil0 {fill:#006633;fill-rule:nonzero}
    .fil9 {fill:#722AB1;fill-rule:nonzero}
    .fil5 {fill:#8E620C;fill-rule:nonzero}
    .fil16 {fill:#974DD8;fill-rule:nonzero}
    .fil8 {fill:#990A18;fill-rule:nonzero}
    .fil19 {fill:#9E460A;fill-rule:nonzero}
    .fil14 {fill:#A86DE2;fill-rule:nonzero}
    .fil13 {fill:#AF5DE9;fill-rule:nonzero}
    .fil11 {fill:#B364E9;fill-rule:nonzero}
    .fil2 {fill:#B5800A;fill-rule:nonzero}
    .fil7 {fill:#C60C16;fill-rule:nonzero}
    .fil18 {fill:#C8601A;fill-rule:nonzero}
    .fil12 {fill:#D18CFB;fill-rule:nonzero}
    .fil1 {fill:#D39A0A;fill-rule:nonzero}
    .fil4 {fill:#D8B305;fill-rule:nonzero}
    .fil10 {fill:#E1B6FF;fill-rule:nonzero}
    .fil6 {fill:#ED0A0C;fill-rule:nonzero}
    .fil17 {fill:#FF8938;fill-rule:nonzero}
    .fil3 {fill:#FFDA00;fill-rule:nonzero}
   ]]>
  </style>
 </defs>
 <g id="Layer_x0020_1">
  <metadata id="CorelCorpID_0Corel-Layer"/>
  <g id="_1350149728">
   <g>
    <g>
     <g>
      <path class="fil0" d="M15 26l1 -1c0,0 -6,-6 -14,-4 0,0 -4,1 0,3l4 3c0,0 8,0 9,-1z"/>
     </g>
     <g>
      <path class="fil0" d="M15 27c0,0 0,0 0,0 2,-1 -1,-2 -2,-2 -1,0 -3,1 -5,1 -1,-1 -2,-2 -4,-2 -1,-1 -3,-1 -3,-2 0,0 -1,0 0,1 0,1 1,1 1,1l4 3c2,0 4,0 6,0 0,0 2,0 3,0z"/>
     </g>
     <g>
      <path class="fil0" d="M19 25c0,0 -1,-6 -3,-8 0,0 -4,-3 -8,0 0,0 2,3 4,6 0,0 3,2 3,3l4 -1z"/>
     </g>
     <g>
      <path class="fil0" d="M19 25c0,-1 -1,0 -1,0 -1,0 -2,0 -2,0 -1,-1 -3,-2 -4,-3 -1,-1 -2,-2 -2,-3 0,-1 -1,-1 -1,-2 1,-1 1,-1 1,-1 0,0 -1,1 -2,1 1,2 2,4 4,6 0,0 3,2 3,3 0,0 3,-1 4,-1z"/>
     </g>
     <g>
      <polygon class="fil0" points="8,17 7,21 9,21 11,22 "/>
     </g>
     <g>
      <path class="fil0" d="M15 17c0,0 6,-6 10,3l-4 6 -3 -1c0,0 -1,-7 -3,-8z"/>
     </g>
     <g>
      <path class="fil0" d="M15 17c0,0 1,-1 1,-1 1,0 1,1 1,1 0,1 1,2 1,3 0,1 1,5 2,5 0,-1 1,-2 1,-2 0,0 1,-1 1,-1 1,-1 1,-1 2,-2 2,0 -1,3 -1,3 -1,1 -1,2 -2,3l-3 -1c0,0 -1,-7 -3,-8z"/>
     </g>
     <g>
      <path class="fil0" d="M21 26c0,0 1,-6 7,-7 0,0 9,-1 7,4 0,0 -3,7 -11,6 0,0 -2,-2 -3,-3z"/>
     </g>
     <g>
      <path class="fil0" d="M21 26c0,0 0,-1 0,-1 1,0 2,1 3,2 0,0 1,0 1,0 1,1 2,1 3,0 1,0 2,0 3,-1 1,0 1,0 2,0 0,-1 0,-1 1,-1 -1,0 -1,1 -1,1 0,0 -1,0 -1,1 -1,0 -1,1 -2,1 -2,1 -4,1 -6,1 0,0 -2,-2 -3,-3z"/>
     </g>
     <g>
      <path class="fil0" d="M30 28c0,0 6,1 9,4 0,0 3,4 -3,4l-2 -1 -9 -3 -1 -3c0,0 3,0 6,-1z"/>
     </g>
     <g>
      <path class="fil0" d="M30 28c0,0 1,0 1,0 -1,0 -1,1 -2,1 0,0 -1,0 -2,0 0,1 -2,1 -1,1 0,1 1,1 1,1 1,0 1,0 2,0 1,1 1,1 2,1 1,1 2,1 3,2 1,1 3,2 4,1 1,0 2,-1 2,-1 0,0 0,0 0,0 0,0 0,1 0,1 0,0 -1,0 -1,0 -1,1 -2,1 -3,1l-2 -1 -9 -3 -1 -3c0,0 3,0 6,-1z"/>
     </g>
     <g>
      <path class="fil0" d="M24 31c0,0 9,1 13,8 0,0 3,8 -7,2l-3 -2 -4 -6c0,0 0,-2 1,-2z"/>
     </g>
     <g>
      <path class="fil0" d="M24 31c1,0 1,0 1,0 -1,2 0,2 1,3 1,2 1,3 3,4 1,2 3,2 4,3 1,0 5,3 5,1 0,1 -2,1 -2,1 -2,0 -4,-1 -6,-2l-3 -2 -4 -6c0,0 0,-1 0,-1 1,-1 1,-1 1,-1z"/>
     </g>
     <g>
      <path class="fil0" d="M14 28l1 -1c0,0 -5,-2 -9,0 0,0 -3,2 -4,4 0,0 12,-2 12,-3z"/>
     </g>
     <g>
      <path class="fil0" d="M14 28c0,0 0,0 0,0 0,-2 -1,0 -2,0 -1,0 -2,0 -3,0 -1,0 -3,1 -4,1 0,0 -1,0 -2,1 0,0 -1,1 -1,1 1,0 1,0 2,0 2,-1 5,-1 7,-2 1,0 2,0 3,-1 0,0 0,0 0,0z"/>
     </g>
     <g>
      <path class="fil0" d="M19 40c0,0 -2,3 -8,4 0,0 -4,-4 -1,-9l6 -5c0,0 2,1 3,3 0,0 1,6 0,7z"/>
     </g>
     <g>
      <path class="fil0" d="M19 40c0,1 -1,1 -1,1 1,-2 0,-7 -3,-7 -1,0 -2,0 -3,0 0,0 -1,1 -2,1 0,1 0,3 -1,4 0,0 0,0 0,0 0,-1 0,-1 0,-2 0,-1 1,-2 1,-2l6 -5c0,0 2,1 3,3 1,0 1,1 1,1 0,1 0,2 0,3 0,1 -1,2 -1,3z"/>
     </g>
     <g>
      <path class="fil0" d="M16 31c0,0 -2,1 -6,4 0,0 -6,3 -10,0 0,0 -1,-4 6,-6l8 -1c0,0 1,0 2,3z"/>
     </g>
     <g>
      <path class="fil0" d="M16 31c0,0 -2,1 -6,4 -1,0 -3,1 -4,1 -1,0 -3,0 -4,0 0,0 -1,-1 -1,-1 -1,0 -1,0 -1,-1 1,1 4,1 5,1 1,0 2,0 3,-1 0,0 1,0 2,-1 1,0 3,-1 4,-2 0,-1 0,-1 -1,-2 0,-1 1,-1 1,-1 1,1 2,2 2,3z"/>
     </g>
     <g>
      <path class="fil0" d="M23 33c0,0 6,3 3,14 0,0 -2,2 -5,-2 0,0 -4,-5 -2,-12 0,0 2,-2 4,0z"/>
     </g>
     <g>
      <path class="fil0" d="M23 33c0,1 -1,1 -2,1 -1,1 -1,2 -1,4 0,2 1,4 2,6 1,1 3,4 4,2 0,1 -1,1 -2,1 -1,0 -2,-1 -3,-2 0,0 -4,-5 -2,-12 1,-1 3,-1 4,0 0,0 0,0 0,0z"/>
     </g>
     <g>
      <path class="fil0" d="M23 33c1,-1 1,-2 1,-2 0,-3 -2,-6 -5,-6 -1,0 -2,0 -3,0 0,1 -1,1 -1,1 -1,1 -1,2 -1,2 0,0 3,7 9,5z"/>
     </g>
     <g>
      <path class="fil0" d="M23 33c1,-1 2,-2 2,-2 -1,1 -5,-1 -6,-2 -2,0 -3,-1 -4,-3 -2,1 -1,3 0,5 2,2 5,3 8,2z"/>
     </g>
     <g>
      <path class="fil0" d="M23 33c1,-1 2,-2 2,-2 0,2 -5,1 -6,1 -2,-1 -4,-2 -4,-5 0,0 -1,0 -1,0 0,1 0,1 0,1 0,0 3,7 9,5z"/>
     </g>
    </g>
    <g>
     <g>
      <path class="fil1" d="M15 24l2 0c0,0 -6,-7 -14,-5 0,0 -4,1 0,3l4 3c0,0 8,0 8,-1z"/>
     </g>
     <g>
      <path class="fil2" d="M16 25c0,0 0,0 0,0 2,-1 -1,-1 -2,-1 -1,-1 -3,0 -5,0 -1,-1 -2,-2 -4,-2 -1,-1 -3,-1 -3,-2 0,0 -1,0 0,1 0,1 1,1 1,1l4 3c2,0 4,0 6,0 0,0 2,0 3,0z"/>
     </g>
     <g>
      <path class="fil3" d="M20 23c0,0 -1,-6 -3,-8 0,0 -4,-3 -8,0 0,0 2,4 4,6 0,0 3,2 3,3l4 -1z"/>
     </g>
     <g>
      <path class="fil4" d="M20 23c0,-1 -1,0 -2,0 0,0 -1,0 -1,0 -1,-1 -3,-2 -4,-3 -1,-1 -2,-2 -2,-3 0,-1 -1,-1 -1,-2 1,0 1,-1 1,-1 0,0 -1,1 -2,1 1,2 2,4 4,6 0,0 3,2 3,3 0,0 3,-1 4,-1z"/>
     </g>
     <g>
      <polygon class="fil5" points="9,15 8,19 10,19 12,20 "/>
     </g>
     <g>
      <path class="fil1" d="M16 15c0,0 6,-6 10,3l-4 6 -3 -1c0,0 -1,-7 -3,-8z"/>
     </g>
     <g>
      <path class="fil5" d="M16 15c0,0 1,-1 1,-1 1,1 1,1 1,1 0,1 1,2 1,3 0,1 1,5 2,5 0,0 1,-1 1,-2 0,0 1,-1 1,-1 1,-1 1,-1 2,-2 2,0 -1,3 -1,3 -1,1 -1,2 -2,3l-3 -1c0,0 -1,-7 -3,-8z"/>
     </g>
     <g>
      <path class="fil3" d="M22 24c0,0 1,-6 7,-7 0,0 9,-1 7,4 0,0 -3,7 -11,6 0,0 -2,-2 -3,-3z"/>
     </g>
     <g>
      <path class="fil4" d="M22 24c0,0 0,-1 0,-1 1,0 2,1 3,2 0,0 1,0 1,0 1,1 2,1 3,0 1,0 2,0 3,0 1,-1 1,-1 2,-1 0,-1 0,-1 1,-1 -1,0 -1,1 -1,1 0,0 -1,0 -1,1 -1,0 -1,1 -2,1 -2,1 -4,1 -6,1 0,0 -2,-2 -3,-3z"/>
     </g>
     <g>
      <path class="fil1" d="M31 26c0,0 6,1 9,4 0,0 3,4 -3,4l-2 0 -9 -4 -1 -3c0,0 3,0 6,-1z"/>
     </g>
     <g>
      <path class="fil2" d="M31 26c0,0 1,1 1,0 -1,0 -1,1 -2,1 0,0 -1,0 -2,0 0,1 -2,1 -1,1 0,1 1,1 1,1 1,0 1,0 2,0 1,1 1,1 2,2 1,0 2,0 3,1 1,1 3,2 4,1 1,0 2,-1 2,-1 0,0 0,0 0,0 0,0 0,1 0,1 0,0 -1,0 -1,1 -1,0 -2,0 -3,0l-2 0 -9 -4 -1 -3c0,0 3,0 6,-1z"/>
     </g>
     <g>
      <path class="fil3" d="M25 29c0,0 9,1 13,8 0,0 3,8 -7,2l-3 -2 -4 -6c0,0 0,-1 1,-2z"/>
     </g>
     <g>
      <path class="fil4" d="M25 29c1,0 1,1 1,0 -1,2 0,2 1,3 1,2 1,3 3,4 1,2 3,2 4,3 1,0 5,3 5,1 0,1 -2,1 -2,1 -2,0 -4,-1 -6,-2l-3 -2 -4 -6c0,0 0,-1 0,-1 1,0 1,-1 1,-1z"/>
     </g>
     <g>
      <path class="fil3" d="M15 26l1 -1c0,0 -5,-2 -9,0 0,0 -3,2 -4,4 0,0 12,-2 12,-3z"/>
     </g>
     <g>
      <path class="fil2" d="M15 26c0,0 0,0 0,0 0,-2 -1,0 -2,0 -1,0 -2,0 -3,0 -1,0 -3,1 -4,1 -1,0 -1,0 -2,1 0,0 -1,1 -1,1 1,0 1,0 2,0 2,-1 5,-1 7,-2 1,0 2,0 3,-1 0,0 0,0 0,0z"/>
     </g>
     <g>
      <path class="fil1" d="M20 38c0,0 -2,3 -8,4 0,0 -4,-4 -1,-9l6 -5c0,0 2,2 3,3 0,0 1,6 0,7z"/>
     </g>
     <g>
      <path class="fil5" d="M20 38c0,1 -1,1 -1,1 1,-2 0,-7 -3,-7 -1,0 -2,0 -3,0 0,0 -1,1 -2,1 0,1 0,3 -1,4 0,0 0,0 0,0 0,-1 0,-1 0,-2 0,-1 1,-1 1,-2l6 -5c0,0 2,2 3,3 1,0 0,1 0,1 1,1 1,2 1,3 0,1 -1,2 -1,3z"/>
     </g>
     <g>
      <path class="fil3" d="M17 29c0,0 -2,1 -6,4 0,0 -6,3 -10,0 0,0 -1,-4 6,-5l8 -2c0,0 1,0 2,3z"/>
     </g>
     <g>
      <path class="fil4" d="M17 29c0,0 -2,1 -6,4 -1,1 -3,1 -4,1 -1,0 -3,0 -4,0 0,0 -1,-1 -1,-1 -1,0 -1,0 -1,-1 1,1 4,1 5,1 1,0 2,0 3,-1 0,0 1,0 2,-1 1,0 3,0 4,-2 0,-1 0,-1 -1,-2 0,-1 1,-1 1,-1 1,1 2,2 2,3z"/>
     </g>
     <g>
      <path class="fil1" d="M24 31c0,0 6,3 3,14 0,0 -2,2 -5,-2 0,0 -4,-5 -2,-12 0,0 2,-2 4,0z"/>
     </g>
     <g>
      <path class="fil2" d="M24 31c0,1 -1,1 -2,1 -1,1 -1,3 -1,4 0,2 1,4 2,6 1,1 3,4 4,2 0,1 -1,1 -2,1 -1,0 -2,-1 -3,-2 0,0 -4,-5 -2,-12 1,-1 3,-1 4,0 0,0 0,0 0,0z"/>
     </g>
     <g>
      <path class="fil6" d="M24 31c1,0 1,-2 1,-2 0,-3 -2,-6 -5,-6 -1,0 -2,0 -3,0 -1,1 -1,1 -1,1 -1,1 -1,2 -1,2 0,0 3,7 9,5z"/>
     </g>
     <g>
      <path class="fil7" d="M24 31c1,0 1,-2 2,-2 -1,1 -5,-1 -6,-2 -2,0 -3,-1 -4,-3 -2,1 -1,3 0,5 2,2 5,3 8,2z"/>
     </g>
     <g>
      <path class="fil8" d="M24 31c1,0 2,-2 2,-2 0,2 -5,1 -6,1 -2,-1 -4,-2 -4,-5 0,0 -1,0 -1,0 0,1 0,1 0,1 0,0 3,7 9,5z"/>
     </g>
    </g>
   </g>
   <g>
    <g>
     <g>
      <polygon class="fil0" points="59,5 56,10 60,11 63,12 "/>
     </g>
     <g>
      <path class="fil0" d="M67 21l2 -4c0,0 -8,-10 -19,-7 0,0 -5,1 0,5l5 3c0,0 12,3 12,3z"/>
     </g>
     <g>
      <path class="fil0" d="M68 21c0,0 0,-2 0,-3 2,-1 -2,0 -3,0 -2,0 -4,-1 -6,-1 -3,0 -5,-1 -7,-2 -1,-1 -4,-2 -4,-4 0,1 0,1 0,2 1,1 2,2 2,2 1,1 2,2 3,2 1,1 3,2 5,2 1,1 3,1 5,1 1,0 4,1 5,1z"/>
     </g>
     <g>
      <path class="fil0" d="M73 16c0,0 -1,-8 -4,-11 0,0 -5,-5 -10,0 0,0 2,5 4,8 0,0 5,3 5,5l5 -2z"/>
     </g>
     <g>
      <path class="fil0" d="M73 16c0,-1 -1,0 -2,0 -1,0 -1,0 -2,0 -2,-1 -4,-3 -5,-4 -1,-1 -2,-3 -3,-5 -1,-1 -1,-1 -1,-2 0,-1 1,-1 1,-2 -1,0 -2,2 -2,2 1,3 2,5 4,7 0,0 5,4 5,6 0,-1 4,-2 5,-2z"/>
     </g>
     <g>
      <path class="fil0" d="M68 5c0,0 8,-9 14,5l-5 7 -4 -1c0,0 -2,-10 -5,-11z"/>
     </g>
     <g>
      <path class="fil0" d="M68 5c0,0 1,-1 2,-1 0,0 0,1 1,1 0,1 1,3 1,4 0,1 1,7 3,6 0,0 1,-1 1,-1 1,-1 1,-2 2,-3 1,0 1,-1 2,-1 2,-1 -1,3 -1,3 -1,2 -2,3 -2,4l-4 -1c0,0 -2,-10 -5,-11z"/>
     </g>
     <g>
      <path class="fil0" d="M76 17c0,0 2,-8 10,-9 0,0 12,-2 10,6 0,0 -5,9 -16,8 0,0 -2,-4 -4,-5z"/>
     </g>
     <g>
      <path class="fil0" d="M76 17c0,0 0,-1 0,-1 2,1 3,2 4,3 1,0 1,0 2,1 2,0 3,0 4,0 2,-1 3,-1 4,-2 1,0 2,0 3,-1 0,0 0,-1 1,-1 -1,0 -1,1 -1,1 -1,1 -1,1 -1,1 -1,1 -2,2 -3,2 -3,2 -6,2 -9,2 0,0 -2,-4 -4,-5z"/>
     </g>
     <g>
      <path class="fil0" d="M88 20c0,0 9,2 13,6 0,0 5,6 -5,6l-2 -1 -13 -6 -1 -3c0,0 4,0 8,-2z"/>
     </g>
     <g>
      <path class="fil0" d="M81 25c0,0 11,0 18,11 0,0 4,11 -10,2l-5 -2 -5 -8c0,0 -1,-3 2,-3z"/>
     </g>
     <g>
      <path class="fil0" d="M81 25c0,0 1,0 1,0 -1,2 0,2 1,4 1,2 2,4 4,6 2,1 4,2 6,4 1,0 7,3 6,0 1,2 -1,3 -3,3 -2,-1 -5,-2 -7,-4l-5 -2 -5 -8c0,-1 0,-2 0,-2 1,-1 1,-1 2,-1z"/>
     </g>
     <g>
      <path class="fil0" d="M73 38c0,0 -3,4 -10,4 0,0 -6,-5 -2,-12l8 -7c0,0 3,2 5,4 0,0 1,9 -1,11z"/>
     </g>
     <g>
      <path class="fil0" d="M73 38c0,0 -1,1 -1,1 1,-4 -1,-10 -5,-11 -1,0 -2,0 -3,0 -1,1 -2,2 -3,3 -1,1 -1,3 -1,4 0,0 0,0 0,0 0,-1 0,-1 0,-2 0,-1 0,-2 1,-3l8 -7c0,0 3,2 5,4 0,0 0,1 0,2 0,1 0,2 0,3 0,2 0,4 -1,6z"/>
     </g>
     <g>
      <path class="fil0" d="M69 24c-3,2 -5,4 -8,6 0,0 -9,4 -14,0 -1,-1 2,-6 3,-7 3,-3 7,-4 11,-4 2,0 3,1 4,1 2,1 4,2 4,4z"/>
     </g>
     <g>
      <path class="fil0" d="M69 24c0,0 -2,2 -8,6 -2,1 -4,1 -6,1 -2,0 -3,0 -5,0 -1,0 -2,0 -2,-1 -1,-1 -1,-1 -1,-2 1,2 5,2 7,1 1,0 2,0 3,0 2,-1 3,-1 4,-1 2,-1 5,-1 5,-4 0,-1 0,-1 0,-2 -1,-1 0,-2 1,-1 1,0 2,2 2,3z"/>
     </g>
     <g>
      <path class="fil0" d="M79 28c0,0 9,4 3,18 0,0 -2,3 -5,-2 0,0 -7,-7 -3,-17 0,0 3,-2 5,1z"/>
     </g>
     <g>
      <path class="fil0" d="M79 28c0,0 -2,1 -3,1 -1,1 -1,3 -1,5 0,3 1,6 3,9 0,0 4,5 5,3 0,1 -1,1 -2,1 -2,0 -3,-2 -4,-3 0,0 -7,-7 -3,-17 1,-1 4,-1 5,0 0,0 0,0 0,1z"/>
     </g>
     <g>
      <path class="fil0" d="M80 27c0,0 1,-2 1,-3 0,-4 -4,-8 -7,-8 -2,0 -3,0 -5,1 0,0 -1,0 -2,1 0,1 -1,2 -1,3 0,0 4,9 14,6z"/>
     </g>
     <g>
      <path class="fil0" d="M80 27c1,0 1,-2 1,-3 0,2 -7,-1 -8,-2 -2,-1 -4,-2 -5,-4 -3,2 -1,4 0,6 3,3 7,4 12,3z"/>
     </g>
     <g>
      <path class="fil0" d="M80 27c0,0 1,-2 1,-3 1,3 -6,2 -7,1 -3,-1 -7,-3 -7,-7 0,0 -1,1 -1,2 0,0 0,0 0,1 0,0 4,9 14,6z"/>
     </g>
    </g>
    <g>
     <g>
      <polygon class="fil9" points="60,3 57,8 61,9 64,10 "/>
     </g>
     <g>
      <path class="fil10" d="M68 19l2 -4c0,0 -8,-10 -19,-7 0,0 -5,1 0,5l5 3c0,0 12,3 12,3z"/>
     </g>
     <g>
      <path class="fil11" d="M69 19c0,0 0,-2 0,-3 2,-1 -2,0 -3,0 -2,0 -4,-1 -6,-1 -3,0 -5,-1 -7,-2 -1,-1 -4,-2 -4,-4 0,1 0,1 0,2 1,1 2,2 2,2 1,1 2,2 3,2 1,1 3,2 5,2 1,1 3,1 5,1 1,0 4,1 5,1z"/>
     </g>
     <g>
      <path class="fil12" d="M74 14c0,0 -1,-8 -4,-11 0,0 -5,-5 -10,0 0,0 2,5 4,8 0,0 5,3 5,5l5 -2z"/>
     </g>
     <g>
      <path class="fil11" d="M74 14c0,-1 -1,0 -2,0 -1,0 -1,0 -2,0 -2,-1 -4,-3 -5,-4 -1,-1 -2,-3 -3,-5 -1,-1 -1,-1 -1,-2 0,-1 1,-1 1,-2 -1,0 -2,2 -2,2 1,3 2,5 4,7 0,0 5,4 5,5 0,0 4,-1 5,-1z"/>
     </g>
     <g>
      <path class="fil13" d="M69 3c0,0 8,-9 14,5l-5 7 -4 -1c0,0 -2,-10 -5,-11z"/>
     </g>
     <g>
      <path class="fil9" d="M69 3c0,0 1,-1 2,-1 0,0 0,1 1,1 0,1 1,3 1,4 0,1 1,7 3,6 0,0 1,-1 1,-1 1,-1 1,-2 2,-3 1,0 1,-1 2,-1 3,-1 -1,3 -1,3 -1,1 -2,3 -2,4l-4 -1c0,0 -2,-10 -5,-11z"/>
     </g>
     <g>
      <path class="fil10" d="M77 15c0,0 2,-8 10,-9 0,0 12,-2 10,6 0,0 -5,9 -16,8 0,0 -2,-4 -4,-5z"/>
     </g>
     <g>
      <path class="fil14" d="M77 15c0,0 0,-1 1,-1 1,1 2,2 3,3 1,0 1,0 2,1 2,0 3,0 4,0 2,-1 3,-1 4,-2 1,0 2,0 3,-1 0,0 0,-1 1,-1 -1,0 -1,1 -1,1 -1,1 -1,1 -1,1 -1,1 -2,2 -3,2 -3,2 -6,2 -9,2 0,0 -2,-4 -4,-5z"/>
     </g>
     <g>
      <path class="fil9" d="M89 18c0,0 9,2 13,6 0,0 5,6 -5,6l-2 -1 -13 -6 -1 -3c0,0 4,0 8,-2z"/>
     </g>
     <g>
      <path class="fil13" d="M82 23c0,0 11,0 18,11 0,0 4,11 -10,2l-5 -2 -5 -8c0,0 -1,-3 2,-3z"/>
     </g>
     <g>
      <path class="fil15" d="M82 23c0,0 1,0 1,0 -1,2 0,2 1,4 1,2 2,4 4,6 2,1 4,2 6,4 1,0 7,3 6,0 1,2 -1,3 -3,3 -2,-1 -5,-2 -7,-4l-5 -2 -5 -8c0,-1 0,-2 0,-2 1,-1 1,-1 2,-1z"/>
     </g>
     <g>
      <path class="fil13" d="M74 36c0,0 -3,4 -10,4 0,0 -6,-5 -2,-12l8 -7c0,0 3,2 5,4 0,0 1,9 -1,11z"/>
     </g>
     <g>
      <path class="fil9" d="M74 36c0,0 -1,1 -1,1 1,-4 -1,-10 -5,-11 -1,0 -2,0 -3,0 -1,1 -2,2 -3,3 -1,1 -1,3 -1,4 0,0 0,0 0,0 0,-1 0,-1 0,-2 0,-1 0,-2 1,-3l8 -7c0,0 3,2 5,4 0,0 0,1 0,2 0,1 0,2 0,3 0,2 0,4 -1,6z"/>
     </g>
     <g>
      <path class="fil12" d="M70 22c-3,2 -5,4 -8,6 0,0 -9,4 -14,0 -1,-1 2,-6 3,-7 3,-3 7,-4 11,-4 2,0 3,1 4,1 2,1 4,2 4,4z"/>
     </g>
     <g>
      <path class="fil16" d="M70 22c0,0 -2,2 -8,6 -2,1 -4,1 -6,1 -1,0 -3,0 -5,0 -1,0 -2,0 -2,-1 -1,-1 -1,-1 -1,-2 1,2 5,2 7,1 1,0 2,0 3,0 2,-1 3,-1 4,-1 2,-1 5,-2 5,-4 0,-1 0,-1 0,-2 -1,-1 0,-2 1,-1 1,0 2,2 2,3z"/>
     </g>
     <g>
      <path class="fil10" d="M80 26c0,0 9,4 3,18 0,0 -1,3 -5,-2 0,0 -7,-7 -3,-17 0,0 3,-2 5,1z"/>
     </g>
     <g>
      <path class="fil11" d="M80 26c0,0 -2,1 -3,1 -1,1 -1,3 -1,5 0,3 1,6 3,9 0,0 4,5 5,3 0,1 -1,1 -2,1 -2,0 -3,-2 -4,-3 0,0 -7,-7 -3,-17 1,-1 4,-1 5,0 0,0 0,0 0,1z"/>
     </g>
     <g>
      <path class="fil17" d="M81 25c1,0 1,-2 1,-3 0,-4 -4,-8 -7,-8 -2,0 -3,0 -5,1 0,0 -1,0 -2,1 0,1 -1,2 -1,3 0,0 4,9 14,6z"/>
     </g>
     <g>
      <path class="fil18" d="M81 25c1,0 1,-2 1,-3 0,2 -7,-1 -8,-2 -2,-1 -4,-2 -5,-4 -3,2 -1,4 0,6 3,3 7,4 12,3z"/>
     </g>
     <g>
      <path class="fil19" d="M81 25c0,0 1,-2 1,-3 1,3 -6,2 -7,1 -3,-1 -7,-3 -7,-7 0,0 -1,1 -1,1 0,1 0,1 0,2 0,0 4,9 14,6z"/>
     </g>
    </g>
   </g>
  </g>
 </g>
</svg>
