<?xml version="1.0" encoding="UTF-8"?>
<!DOCTYPE svg PUBLIC "-//W3C//DTD SVG 1.1//EN" "http://www.w3.org/Graphics/SVG/1.1/DTD/svg11.dtd">
<!-- Creator: CorelDRAW X7 -->
<svg xmlns="http://www.w3.org/2000/svg" xml:space="preserve" width="0.653697in" height="0.390079in" version="1.1" style="shape-rendering:geometricPrecision; text-rendering:geometricPrecision; image-rendering:optimizeQuality; fill-rule:evenodd; clip-rule:evenodd"
viewBox="0 0 126 75"
 xmlns:xlink="http://www.w3.org/1999/xlink">
 <defs>
  <style type="text/css">
   <![CDATA[
    .fil0 {fill:#006633;fill-rule:nonzero}
    .fil13 {fill:#2A75B1;fill-rule:nonzero}
    .fil10 {fill:#3685D3;fill-rule:nonzero}
    .fil15 {fill:#3D85CD;fill-rule:nonzero}
    .fil14 {fill:#5DACFB;fill-rule:nonzero}
    .fil12 {fill:#66AAE2;fill-rule:nonzero}
    .fil9 {fill:#7CB8FF;fill-rule:nonzero}
    .fil16 {fill:#87BAF9;fill-rule:nonzero}
    .fil5 {fill:#8E620C;fill-rule:nonzero}
    .fil8 {fill:#990A18;fill-rule:nonzero}
    .fil11 {fill:#A3D1FF;fill-rule:nonzero}
    .fil19 {fill:#AA7B07;fill-rule:nonzero}
    .fil2 {fill:#B5800A;fill-rule:nonzero}
    .fil7 {fill:#C60C16;fill-rule:nonzero}
    .fil1 {fill:#D39A0A;fill-rule:nonzero}
    .fil4 {fill:#D8B305;fill-rule:nonzero}
    .fil18 {fill:#E9C113;fill-rule:nonzero}
    .fil6 {fill:#ED0A0C;fill-rule:nonzero}
    .fil17 {fill:#FFD836;fill-rule:nonzero}
    .fil3 {fill:#FFDA00;fill-rule:nonzero}
   ]]>
  </style>
 </defs>
 <g id="Layer_x0020_1">
  <metadata id="CorelCorpID_0Corel-Layer"/>
  <g id="_1229960240">
   <g>
    <g>
     <g>
      <path class="fil0" d="M27 38l1 -3c0,0 -17,-3 -26,11 0,0 -4,5 5,4l8 0c0,0 12,-11 12,-12z"/>
     </g>
     <g>
      <path class="fil0" d="M28 39c0,0 0,-1 0,-1 1,-3 -3,0 -4,0 -2,2 -4,5 -7,7 -3,2 -6,2 -9,2 -1,1 -5,3 -6,1 0,1 -1,2 1,2 1,1 3,1 4,0l8 0c3,-2 6,-5 9,-8 1,0 3,-2 4,-3z"/>
     </g>
     <g>
      <path class="fil0" d="M32 31c0,0 -9,-8 -15,-8 0,0 -10,-1 -11,10 0,0 7,2 12,3 0,0 8,-1 10,0l4 -5z"/>
     </g>
     <g>
      <path class="fil0" d="M32 31c-1,-1 -2,0 -3,1 -1,1 -1,2 -2,2 -3,1 -6,1 -9,1 -2,0 -5,-1 -8,-2 -1,-1 -2,-1 -2,-2 0,-1 0,-2 0,-3 -1,1 -2,3 -2,5 4,1 8,2 12,3 0,0 8,-1 10,0 0,0 3,-4 4,-5z"/>
     </g>
     <g>
      <polygon class="fil0" points="6,33 9,40 13,37 18,36 "/>
     </g>
     <g>
      <path class="fil0" d="M16 23c0,0 1,-16 19,-7l1 12 -5 4c0,0 -11,-10 -15,-9z"/>
     </g>
     <g>
      <path class="fil0" d="M16 23c0,0 1,-1 1,-2 1,0 1,0 2,1 2,0 3,1 5,2 1,1 7,6 9,4 0,0 0,-2 0,-3 -1,-1 -1,-2 -1,-4 0,-1 1,-2 1,-3 2,-3 2,4 2,4 1,2 1,4 1,6l-5 4c0,0 -11,-10 -15,-9z"/>
     </g>
     <g>
      <path class="fil0" d="M36 29c0,0 -6,-11 2,-18 0,0 11,-13 15,-3 0,0 4,13 -9,22 0,0 -5,-1 -8,-1z"/>
     </g>
     <g>
      <path class="fil0" d="M36 29c0,0 -1,-2 -1,-2 2,0 4,1 6,0 1,0 2,0 3,-1 2,-1 3,-2 5,-4 1,-1 1,-3 2,-5 1,0 2,-2 2,-3 0,-1 0,-2 0,-2 0,0 1,2 0,2 0,1 0,2 0,2 0,2 0,3 -1,5 -2,4 -4,7 -8,9 0,0 -5,-1 -8,-1z"/>
     </g>
     <g>
      <path class="fil0" d="M51 21c0,0 11,-6 20,-5 0,0 9,2 0,10l-4 1 -19 6 -4 -3c0,0 4,-3 7,-9z"/>
     </g>
     <g>
      <path class="fil0" d="M51 21c1,-1 2,0 3,-1 -1,1 -2,2 -2,3 -1,1 -2,2 -3,4 0,1 -1,3 0,3 1,0 2,-1 2,-1 1,-1 2,-1 3,-2 2,0 4,-1 6,-1 2,-1 4,-2 6,-2 2,0 6,0 7,-3 1,-2 1,-3 0,-4 0,0 1,0 1,0 0,1 1,1 1,2 0,0 0,1 0,2 -1,2 -3,4 -4,5l-4 1 -19 6 -4 -3c0,0 4,-3 7,-9z"/>
     </g>
     <g>
      <path class="fil0" d="M48 33c0,0 12,-10 29,-5 0,0 14,8 -9,12l-7 1 -12 -4c0,0 -4,-2 -1,-4z"/>
     </g>
     <g>
      <path class="fil0" d="M48 33c0,0 1,-1 1,-1 0,3 2,3 5,4 3,1 6,2 9,2 4,0 7,-1 10,-2 1,0 10,-2 7,-5 2,2 1,4 -1,5 -3,3 -7,3 -11,4l-7 1 -12 -4c-1,0 -2,-1 -2,-2 0,-1 0,-1 1,-2z"/>
     </g>
     <g>
      <path class="fil0" d="M29 42l-2 -3c0,0 -8,3 -12,11 0,0 -2,7 0,10 0,0 15,-18 14,-18z"/>
     </g>
     <g>
      <path class="fil0" d="M29 42c-1,-1 -1,-1 -1,-1 -1,-3 -1,1 -2,2 -2,2 -3,4 -5,5 -1,2 -3,4 -4,6 -1,1 -2,2 -2,3 0,1 0,3 0,3 1,0 1,-1 2,-2 3,-4 6,-7 9,-11 1,-2 2,-3 3,-5 0,0 0,0 0,0z"/>
     </g>
     <g>
      <path class="fil0" d="M51 53c0,0 1,7 -7,15 0,0 -10,0 -13,-12l3 -14c0,0 5,-1 9,0 0,0 8,8 8,11z"/>
     </g>
     <g>
      <path class="fil0" d="M51 53c0,1 0,2 0,3 -2,-5 -9,-10 -14,-7 -2,0 -3,2 -3,3 -1,1 -1,3 -1,5 0,2 1,4 2,6 0,0 0,0 0,0 -1,-1 -2,-2 -2,-3 -1,-1 -1,-2 -2,-4l3 -14c0,0 5,-1 9,0 0,0 1,1 1,1 1,1 2,3 4,4 1,2 3,4 3,6z"/>
     </g>
     <g>
      <path class="fil0" d="M35 43c0,0 -1,4 -4,13 0,0 -5,12 -15,13 0,0 -5,-5 3,-16l10 -11c0,0 1,-2 6,1z"/>
     </g>
     <g>
      <path class="fil0" d="M35 43c0,0 -1,4 -4,13 -1,3 -3,5 -4,7 -2,2 -4,3 -6,4 -1,1 -2,1 -3,2 -2,0 -2,-1 -3,-2 3,1 7,-3 8,-5 2,-1 3,-2 4,-4 1,-1 1,-3 2,-4 1,-3 4,-5 3,-8 -1,-1 -2,-2 -3,-2 -2,-1 -1,-2 0,-3 2,0 4,1 6,2z"/>
     </g>
     <g>
      <path class="fil0" d="M49 37c0,0 12,-3 20,17 0,0 0,5 -8,3 0,0 -14,-2 -18,-15 0,0 0,-5 6,-5z"/>
     </g>
     <g>
      <path class="fil0" d="M49 37c0,1 -2,3 -2,4 -1,3 1,5 2,7 3,3 8,5 12,7 1,0 9,2 8,-2 1,1 0,3 -1,3 -2,2 -5,2 -7,1 0,0 -14,-2 -18,-15 0,-3 2,-6 5,-5 0,0 1,0 1,0z"/>
     </g>
     <g>
      <path class="fil0" d="M48 36c1,-1 0,-3 -1,-4 -3,-4 -11,-5 -15,-2 -1,2 -3,3 -4,5 0,1 -1,2 -1,3 0,1 1,3 2,4 0,0 13,6 19,-6z"/>
     </g>
     <g>
      <path class="fil0" d="M48 36c1,-1 0,-3 -1,-4 2,2 -8,5 -10,5 -3,1 -6,1 -9,0 -2,5 2,6 6,6 6,1 11,-1 14,-7z"/>
     </g>
     <g>
      <path class="fil0" d="M48 36c1,-1 0,-3 -1,-4 4,2 -5,7 -6,8 -4,1 -10,3 -13,-1 0,0 0,1 0,1 0,1 0,2 1,2 0,0 13,6 19,-6z"/>
     </g>
    </g>
    <g>
     <g>
      <path class="fil1" d="M26 34l1 -3c0,0 -17,-3 -26,11 0,0 -4,5 5,4l8 0c0,0 12,-11 12,-12z"/>
     </g>
     <g>
      <path class="fil2" d="M27 35c0,-1 0,-1 0,-1 1,-3 -3,0 -4,0 -2,2 -4,5 -7,7 -3,2 -6,1 -9,2 -1,1 -5,2 -6,1 0,1 -1,2 1,2 1,1 3,0 4,0l8 0c3,-3 6,-5 9,-8 1,-1 3,-2 4,-3z"/>
     </g>
     <g>
      <path class="fil3" d="M31 27c0,0 -9,-8 -15,-8 0,0 -10,-1 -11,9 0,0 7,3 12,4 0,0 8,-1 10,0l4 -5z"/>
     </g>
     <g>
      <path class="fil4" d="M30 27c0,-1 -1,0 -2,1 -1,1 -1,1 -2,2 -3,1 -6,1 -9,1 -2,0 -5,-1 -8,-2 -1,-1 -2,-1 -2,-2 0,-1 0,-2 0,-3 -1,1 -2,3 -2,4 4,2 8,3 12,4 0,0 8,-1 10,0 0,0 3,-4 3,-5z"/>
     </g>
     <g>
      <polygon class="fil5" points="5,28 8,36 12,33 17,32 "/>
     </g>
     <g>
      <path class="fil1" d="M15 19c0,0 1,-16 19,-7l1 12 -5 3c0,0 -11,-9 -15,-8z"/>
     </g>
     <g>
      <path class="fil5" d="M15 19c0,0 1,-1 1,-2 1,0 1,0 2,0 2,1 3,2 5,3 1,1 7,6 9,4 0,0 0,-2 0,-3 -1,-1 -1,-2 -1,-4 0,-1 1,-2 1,-4 2,-2 2,4 2,5 0,2 1,4 1,6l-5 3c0,0 -11,-9 -15,-8z"/>
     </g>
     <g>
      <path class="fil3" d="M35 25c0,0 -6,-11 2,-18 0,0 11,-13 15,-3 0,0 4,13 -9,22 0,0 -5,-1 -8,-1z"/>
     </g>
     <g>
      <path class="fil4" d="M35 25c-1,0 -1,-2 -1,-2 2,0 4,1 6,0 1,0 2,0 3,-1 2,-1 3,-2 5,-4 1,-1 1,-3 2,-5 1,-1 2,-2 2,-3 0,-1 0,-2 0,-2 0,0 1,1 0,2 0,1 0,2 0,2 0,2 0,3 -1,5 -2,3 -4,7 -8,9 0,0 -5,-1 -8,-1z"/>
     </g>
     <g>
      <path class="fil1" d="M50 17c0,0 11,-6 20,-5 0,0 9,2 0,10l-4 1 -19 6 -4 -3c0,0 4,-3 7,-9z"/>
     </g>
     <g>
      <path class="fil2" d="M50 17c1,-1 2,0 3,-1 -1,1 -2,2 -2,3 -1,1 -2,2 -3,4 0,1 -1,3 0,2 1,0 2,0 2,-1 1,0 2,0 3,-1 2,0 4,-1 6,-1 2,-1 4,-2 6,-2 2,0 6,0 7,-3 1,-2 1,-3 0,-4 0,0 1,0 1,0 0,1 1,1 1,2 0,0 0,1 0,1 -1,3 -3,5 -4,6l-4 1 -19 6 -4 -3c0,0 4,-3 7,-9z"/>
     </g>
     <g>
      <path class="fil3" d="M47 29c0,0 12,-10 29,-5 0,0 14,8 -9,12l-7 1 -12 -4c0,0 -4,-2 -1,-4z"/>
     </g>
     <g>
      <path class="fil4" d="M47 29c0,0 1,-1 1,-1 0,3 2,3 5,4 3,1 6,2 9,2 4,0 7,-1 10,-2 1,0 10,-2 7,-5 2,2 1,4 -1,5 -3,3 -7,3 -11,4l-7 1 -12 -4c-1,0 -2,-1 -2,-2 0,-1 0,-1 1,-2z"/>
     </g>
     <g>
      <path class="fil3" d="M27 38l-1 -3c0,0 -8,3 -12,11 0,0 -2,7 0,10 0,0 15,-18 13,-18z"/>
     </g>
     <g>
      <path class="fil2" d="M28 38c-1,-1 -1,-1 -1,-1 -1,-3 -1,1 -2,2 -2,2 -3,3 -5,5 -1,2 -3,4 -4,6 -1,1 -2,2 -2,3 0,1 0,3 0,3 1,0 1,-1 2,-2 3,-4 6,-7 9,-12 1,-1 2,-2 3,-4 0,0 0,0 0,0z"/>
     </g>
     <g>
      <path class="fil1" d="M50 49c0,0 1,7 -7,15 0,0 -10,0 -13,-12l3 -14c0,0 5,-1 9,0 0,0 8,8 8,11z"/>
     </g>
     <g>
      <path class="fil5" d="M50 49c0,1 0,2 0,3 -2,-5 -9,-10 -14,-7 -2,0 -3,1 -3,3 -1,1 -1,3 -1,4 0,3 1,5 2,7 0,0 0,0 0,0 -1,-1 -2,-2 -2,-3 -1,-1 -1,-2 -2,-4l3 -14c0,0 5,-1 9,0 0,0 1,1 1,1 1,1 2,3 4,4 1,2 3,4 3,6z"/>
     </g>
     <g>
      <path class="fil3" d="M34 39c0,0 -1,4 -4,13 0,0 -5,12 -15,13 0,0 -5,-5 3,-16l9 -11c0,0 2,-2 7,1z"/>
     </g>
     <g>
      <path class="fil4" d="M34 39c0,0 -1,4 -4,13 -1,3 -3,5 -4,7 -2,2 -4,3 -6,4 -1,1 -2,1 -3,2 -2,0 -2,-1 -3,-2 3,1 7,-3 8,-5 2,-1 3,-2 4,-4 1,-1 1,-3 2,-4 1,-3 4,-6 3,-9 -1,-1 -2,-1 -3,-1 -2,-1 -1,-2 0,-3 2,0 4,1 6,2z"/>
     </g>
     <g>
      <path class="fil1" d="M48 33c0,0 12,-4 20,17 0,0 0,4 -8,3 0,0 -14,-2 -18,-15 0,0 0,-6 6,-5z"/>
     </g>
     <g>
      <path class="fil2" d="M48 33c0,1 -2,3 -2,4 -1,3 1,5 2,7 3,3 8,5 12,6 1,1 9,3 8,-1 1,1 0,3 -1,3 -2,2 -5,1 -7,1 0,0 -14,-2 -18,-15 0,-3 2,-6 5,-5 0,0 0,0 1,0z"/>
     </g>
     <g>
      <path class="fil6" d="M47 32c1,-1 0,-3 -1,-4 -3,-4 -11,-5 -15,-2 -1,2 -3,3 -4,5 0,1 -1,2 -1,3 0,1 1,3 1,4 1,0 14,6 20,-6z"/>
     </g>
     <g>
      <path class="fil7" d="M47 32c1,-1 0,-3 -1,-4 2,2 -8,5 -10,5 -3,1 -6,1 -9,0 -2,5 2,6 6,6 6,1 11,-1 14,-7z"/>
     </g>
     <g>
      <path class="fil8" d="M47 32c1,-1 0,-3 -1,-4 4,2 -5,7 -6,8 -4,1 -10,3 -13,-1 0,0 0,1 0,1 0,1 0,1 0,2 1,0 14,6 20,-6z"/>
     </g>
    </g>
   </g>
   <g>
    <g>
     <path class="fil0" d="M87 53l0 -2c0,0 -12,-2 -19,7 0,0 -3,5 4,4l5 -1c0,0 10,-7 10,-8z"/>
     <path class="fil0" d="M87 54c0,-1 0,-1 1,-1 0,-2 -3,0 -3,0 -2,2 -4,4 -6,5 -2,1 -4,1 -6,2 -1,0 -4,1 -5,0 0,1 0,1 1,2 1,0 2,0 3,0l6 0c2,-2 4,-4 6,-6 1,0 2,-1 3,-2z"/>
     <path class="fil0" d="M90 48c0,0 -6,-6 -11,-6 0,0 -6,-1 -7,7 0,0 5,2 8,3 0,0 6,-1 7,0l3 -4z"/>
     <path class="fil0" d="M90 48c0,-1 -1,0 -2,1 0,0 -1,1 -2,1 -1,1 -4,1 -6,1 -2,-1 -4,-1 -5,-2 -1,0 -2,-1 -2,-1 -1,-1 0,-2 0,-3 -1,1 -1,3 -1,4 2,1 5,2 8,3 0,0 6,-1 7,0 0,0 3,-4 3,-4z"/>
     <polygon class="fil0" points="72,49 73,54 77,52 80,52 "/>
     <path class="fil0" d="M79 42c0,0 0,-12 13,-5l1 9 -3 2c0,0 -8,-7 -11,-6z"/>
     <path class="fil0" d="M79 42c0,0 0,-1 1,-1 0,0 0,0 1,0 1,0 2,1 4,2 1,1 5,5 6,3 0,0 0,-2 0,-2 0,-1 0,-2 0,-3 0,-1 0,-2 0,-3 2,-2 2,3 2,4 0,1 0,3 0,4l-3 2c0,0 -8,-7 -11,-6z"/>
     <path class="fil0" d="M93 47c0,0 -4,-8 2,-13 0,0 8,-10 11,-3 0,0 2,10 -7,16 0,0 -4,-1 -6,0z"/>
     <path class="fil0" d="M93 47c0,0 0,-2 0,-2 1,0 3,1 4,0 1,0 2,0 3,-1 1,0 2,-1 2,-2 1,-1 2,-2 3,-4 0,0 1,-1 1,-2 0,-1 0,-1 0,-2 0,1 0,2 0,2 0,1 0,1 0,2 0,1 -1,2 -1,3 -1,3 -3,5 -6,6 0,0 -4,-1 -6,0z"/>
     <path class="fil0" d="M105 41c0,0 7,-5 14,-4 0,0 7,2 -1,8l-2 1 -14 4 -3 -3c0,0 3,-2 6,-6z"/>
     <path class="fil0" d="M105 41c0,0 1,0 1,-1 0,1 -1,2 -1,2 -1,1 -1,2 -2,3 0,1 -1,2 0,2 0,0 1,0 1,-1 1,0 2,0 2,0 2,-1 3,-1 5,-1 1,-1 2,-1 4,-2 2,0 5,0 6,-2 0,-1 0,-2 -1,-3 0,0 1,1 1,1 0,0 1,0 1,1 0,0 0,0 0,1 -1,2 -2,3 -4,4l-2 1 -14 4 -3 -3c0,0 3,-2 6,-6z"/>
     <path class="fil0" d="M102 50c0,0 9,-7 21,-4 0,0 10,6 -6,9l-6 1 -9 -3c0,0 -2,-2 0,-3z"/>
     <path class="fil0" d="M102 50c0,-1 1,-1 1,-1 0,2 1,2 3,3 2,1 4,1 7,1 3,0 5,0 7,-1 1,0 8,-1 6,-3 1,1 0,3 -1,4 -3,1 -6,1 -8,2l-6 1 -9 -3c0,-1 -1,-1 -1,-2 0,0 0,-1 1,-1z"/>
     <path class="fil0" d="M88 56l-1 -2c0,0 -6,2 -9,8 0,0 -2,5 0,7 0,0 11,-13 10,-13z"/>
     <path class="fil0" d="M88 56c0,0 0,-1 -1,-1 -1,-2 -1,1 -1,2 -1,1 -3,2 -4,3 -1,2 -2,3 -3,5 -1,0 -1,1 -1,2 -1,0 0,2 0,2 0,0 1,-1 1,-1 2,-3 5,-6 7,-9 0,-1 1,-2 2,-3 0,0 0,0 0,0z"/>
     <path class="fil0" d="M104 65c0,0 0,4 -5,10 0,0 -7,0 -10,-9l2 -10c0,0 4,-1 7,0 0,0 6,6 6,9z"/>
     <path class="fil0" d="M104 65c0,0 0,1 0,2 -2,-4 -7,-8 -11,-6 0,0 -1,1 -2,2 0,1 -1,3 -1,4 0,1 2,3 2,4 0,0 0,0 0,0 0,0 -1,-1 -1,-1 -1,-1 -1,-3 -2,-4l2 -10c0,0 4,-1 7,0 0,0 1,1 1,1 1,1 2,2 3,3 1,1 2,3 2,5z"/>
     <path class="fil0" d="M92 57c0,0 0,3 -3,9 0,0 -4,9 -10,9 0,0 -4,-3 2,-11l7 -8c0,0 1,-2 4,1z"/>
     <path class="fil0" d="M92 57c0,0 0,3 -3,9 0,2 -2,4 -3,5 -1,2 -3,3 -4,3 -1,1 -2,1 -3,1 -1,0 -1,0 -1,-1 2,1 4,-2 6,-3 1,-1 1,-2 2,-3 1,-1 1,-2 2,-3 1,-2 3,-4 2,-6 -1,-1 -1,-1 -2,-2 -1,0 -1,-1 0,-2 2,0 3,1 4,2z"/>
     <path class="fil0" d="M102 53c0,0 10,-3 15,12 0,0 0,4 -6,2 0,0 -10,-1 -13,-11 0,0 0,-4 4,-3z"/>
     <path class="fil0" d="M102 53c1,0 -1,2 -1,3 -1,1 1,3 2,4 2,3 5,5 8,5 1,1 7,2 6,-1 0,1 0,2 -1,3 -1,1 -3,1 -5,0 0,0 -10,-1 -13,-11 0,-2 2,-4 4,-4 0,0 0,0 0,1z"/>
     <g>
      <path class="fil0" d="M102 52c1,-1 0,-2 -1,-3 -2,-3 -8,-4 -10,-2 -2,1 -3,2 -4,4 0,1 0,1 0,2 0,1 0,3 1,3 0,0 9,5 14,-4z"/>
     </g>
     <g>
      <path class="fil0" d="M102 52c1,-1 0,-2 -1,-3 1,2 -6,3 -7,4 -2,0 -4,0 -7,-1 -1,4 2,5 4,5 5,1 9,-1 11,-5z"/>
     </g>
     <g>
      <path class="fil0" d="M102 52c1,-1 0,-3 -1,-3 3,1 -3,5 -4,5 -3,1 -7,2 -10,0 0,0 0,1 0,1 0,0 0,1 1,1 0,0 9,5 14,-4z"/>
     </g>
    </g>
    <g>
     <path class="fil9" d="M86 51l0 -2c0,0 -12,-3 -18,7 0,0 -4,4 3,3l6 0c0,0 9,-8 9,-8z"/>
     <path class="fil10" d="M86 51c1,0 1,0 1,-1 0,-2 -3,0 -3,1 -2,1 -3,3 -5,4 -2,2 -5,2 -7,2 -1,0 -4,2 -5,0 0,1 0,2 1,2 1,1 2,0 3,0l6 0c2,-2 4,-4 6,-5 1,-1 3,-2 3,-3z"/>
     <path class="fil11" d="M89 45c0,0 -6,-5 -10,-6 0,0 -7,0 -8,7 0,0 5,2 8,3 0,0 6,-1 8,0l2 -4z"/>
     <path class="fil12" d="M89 45c0,-1 -1,1 -1,1 -1,1 -1,1 -2,2 -2,0 -5,0 -6,0 -2,0 -4,-1 -6,-2 -1,0 -2,0 -2,-1 0,-1 0,-2 0,-2 -1,0 -1,2 -1,3 3,1 5,2 8,3 0,0 6,-1 8,0 -1,0 2,-3 2,-4z"/>
     <polygon class="fil13" points="71,46 72,52 76,50 79,49 "/>
     <path class="fil14" d="M78 39c0,0 1,-11 14,-4l0 9 -3 2c0,0 -8,-7 -11,-7z"/>
     <path class="fil15" d="M78 39c0,0 0,-1 1,-1 0,0 1,0 1,0 1,1 3,2 4,2 1,1 5,5 6,4 1,-1 0,-2 0,-3 0,-1 0,-2 0,-3 0,-1 0,-2 1,-2 1,-2 1,3 1,3 0,2 0,3 0,5l-3 2c0,0 -8,-7 -11,-7z"/>
     <path class="fil11" d="M92 44c0,0 -4,-8 2,-13 0,0 8,-10 11,-2 0,0 3,10 -6,16 0,0 -5,-1 -7,-1z"/>
     <path class="fil12" d="M92 44c0,0 0,-1 0,-1 1,-1 3,0 4,0 1,0 2,-1 3,-1 1,-1 2,-2 3,-3 1,-1 1,-2 2,-3 0,-1 1,-2 1,-3 0,0 0,-1 0,-1 0,0 0,1 0,2 0,0 0,0 0,1 0,1 0,2 -1,3 -1,3 -3,5 -5,7 0,0 -5,-1 -7,-1z"/>
     <path class="fil9" d="M104 39c0,0 8,-5 14,-4 0,0 7,1 0,7l-3 1 -14 4 -2 -2c0,0 2,-2 5,-6z"/>
     <path class="fil15" d="M104 39c0,-1 1,-1 2,-1 -1,0 -2,1 -2,2 0,1 -1,2 -2,2 0,1 -1,3 0,3 1,0 1,-1 2,-1 0,0 1,-1 2,-1 1,0 2,-1 4,-1 1,0 3,-1 4,-1 2,0 5,0 6,-2 0,-2 0,-2 0,-3 0,0 0,0 0,0 0,0 1,1 1,1 0,0 0,1 0,1 -1,2 -2,3 -3,4l-3 1 -14 4 -2 -2c0,0 2,-2 5,-6z"/>
     <path class="fil11" d="M101 47c0,0 9,-7 21,-3 0,0 11,6 -6,8l-6 1 -8 -3c0,0 -3,-1 -1,-3z"/>
     <path class="fil12" d="M101 47c0,0 1,0 1,-1 0,2 1,2 3,3 2,1 5,2 7,2 3,0 5,-1 8,-2 0,0 7,-1 5,-3 1,1 0,3 -1,4 -2,1 -5,2 -8,2l-6 1 -8 -3c-1,0 -2,-1 -2,-1 0,-1 1,-1 1,-2z"/>
     <path class="fil16" d="M87 53l-1 -2c0,0 -6,2 -9,8 0,0 -1,5 0,8 0,0 11,-13 10,-14z"/>
     <path class="fil13" d="M87 53c0,0 0,0 0,-1 -1,-2 -2,1 -2,2 -1,1 -2,3 -4,4 -1,1 -2,2 -3,4 0,1 -1,2 -1,2 0,1 0,3 0,3 0,-1 1,-1 1,-2 2,-3 5,-5 7,-8 0,-1 2,-2 2,-3 0,-1 0,-1 0,-1z"/>
     <path class="fil14" d="M103 62c0,0 1,5 -5,10 0,0 -7,0 -9,-8l2 -10c0,0 3,-1 6,-1 0,0 6,6 6,9z"/>
     <path class="fil13" d="M103 62c0,1 0,1 0,2 -1,-4 -7,-8 -10,-6 -1,1 -2,2 -3,3 0,0 0,2 0,3 0,2 1,3 1,4 0,1 0,1 0,1 0,-1 -1,-1 -1,-2 -1,-1 -1,-2 -1,-3l2 -10c0,0 3,-1 6,-1 0,0 1,1 1,1 1,1 2,2 3,3 1,2 2,3 2,5z"/>
     <path class="fil11" d="M91 54c0,0 0,3 -2,10 0,0 -5,8 -11,9 0,0 -4,-4 2,-12l7 -8c0,0 1,-1 4,1z"/>
     <path class="fil12" d="M91 54c0,0 0,3 -2,10 -1,2 -3,3 -4,5 -1,1 -2,2 -4,3 -1,0 -2,1 -2,1 -1,0 -1,-1 -2,-1 2,0 5,-3 6,-4 1,-1 2,-1 2,-3 1,-1 2,-2 2,-3 1,-2 3,-4 2,-6 0,-1 -1,-1 -2,-1 -1,-1 -1,-2 1,-2 1,-1 2,0 3,1z"/>
     <path class="fil9" d="M102 50c0,0 9,-2 14,13 0,0 0,3 -6,2 0,0 -10,-2 -13,-12 0,0 0,-3 5,-3z"/>
     <path class="fil15" d="M102 50c0,1 -2,2 -2,3 0,2 1,4 2,5 2,2 5,4 8,5 1,0 7,2 6,-1 1,1 0,2 -1,2 -1,1 -3,1 -5,1 0,0 -10,-2 -13,-12 0,-1 2,-4 4,-3 0,0 1,0 1,0z"/>
     <g>
      <path class="fil17" d="M101 49c1,0 0,-2 0,-3 -3,-3 -8,-3 -11,-1 -1,1 -3,2 -3,3 -1,1 -1,2 -1,3 0,0 0,2 1,2 0,0 9,5 14,-4z"/>
     </g>
     <g>
      <path class="fil18" d="M101 49c1,-1 0,-2 0,-3 1,2 -6,4 -8,4 -2,0 -4,1 -7,0 -1,3 2,4 5,4 4,1 8,-1 10,-5z"/>
     </g>
     <g>
      <path class="fil19" d="M101 49c1,0 0,-2 0,-3 2,2 -4,5 -5,6 -3,1 -7,2 -9,-1 -1,0 -1,1 -1,1 0,0 1,1 1,1 0,0 9,5 14,-4z"/>
     </g>
    </g>
   </g>
  </g>
 </g>
</svg>
