<?xml version="1.0" encoding="UTF-8"?>
<!DOCTYPE svg PUBLIC "-//W3C//DTD SVG 1.1//EN" "http://www.w3.org/Graphics/SVG/1.1/DTD/svg11.dtd">
<!-- Creator: CorelDRAW X7 -->
<svg xmlns="http://www.w3.org/2000/svg" xml:space="preserve" width="8.561mm" height="3.5172mm" version="1.1" style="shape-rendering:geometricPrecision; text-rendering:geometricPrecision; image-rendering:optimizeQuality; fill-rule:evenodd; clip-rule:evenodd"
viewBox="0 0 462711 190100"
 xmlns:xlink="http://www.w3.org/1999/xlink">
 <defs>
  <style type="text/css">
   <![CDATA[
    .fil0 {fill:#990000;fill-rule:nonzero}
   ]]>
  </style>
 </defs>
 <g id="Layer_x0020_1">
  <metadata id="CorelCorpID_0Corel-Layer"/>
  <path class="fil0" d="M42493 149510l-6070 0c-11836,0 -20884,-4032 -27110,-12064 -6200,-8037 -9313,-18528 -9313,-31478l0 -105968 15934 0 0 104790c0,3540 297,6783 854,9804 589,3016 1670,5800 3275,8356 1605,2627 3610,4692 6032,6200 2394,1507 5707,2259 9934,2259l6464 0 0 18101z"/>
  <path id="1" class="fil0" d="M132949 117048c0,9804 -2951,17939 -8885,24365 -5935,6459 -13410,9670 -22431,9670 -5637,0 -11145,-1308 -16522,-3903 -5378,-2589 -9837,-6324 -13345,-11177 -3243,4524 -7080,7902 -11475,10161 -4394,2232 -9999,3346 -16852,3346l-7670 0 0 -18101 8065 0c6329,0 11144,-1962 14393,-5935 3275,-3929 5080,-9507 5475,-16685 524,-9739 3508,-17738 9015,-24035 5508,-6259 12756,-9410 21706,-9410 5016,0 9805,951 14361,2886 4589,1935 8686,4724 12361,8362 3702,3707 6588,8166 8686,13312 2070,5145 3118,10885 3118,17144zm-15939 984c0,-2324 -357,-4881 -1113,-7735 -719,-2853 -1968,-5572 -3703,-8199 -1708,-2459 -3837,-4459 -6329,-6064 -2491,-1605 -5605,-2395 -9312,-2395 -3346,0 -6032,525 -8129,1541 -2065,1016 -3870,2427 -5346,4232 -1145,1411 -1999,3178 -2589,5313 -556,2162 -854,4291 -854,6491 0,2557 460,5081 1346,7572 887,2492 2227,4854 4032,7113 1870,2232 4032,4032 6492,5410 2459,1379 5442,2065 8982,2065 5184,0 9248,-1508 12167,-4524 2918,-2983 4356,-6621 4356,-10820z"/>
  <path id="2" class="fil0" d="M230091 149510l-16950 0c-2821,8756 -7410,15868 -13771,21344 -6394,5475 -14031,9739 -23014,12723 -8135,2751 -16199,4524 -24198,5307 -7999,789 -14917,1184 -20820,1216l0 -18101c4789,-32 10621,-259 17474,-783 6854,-492 13086,-1476 18723,-2951 7475,-2033 13507,-4589 18031,-7708 4561,-3113 7966,-6918 10263,-11442 -9409,-751 -17111,-2589 -23078,-5475 -6005,-2886 -10788,-6394 -14399,-10556 -3437,-3967 -5832,-8199 -7145,-12690 -1314,-4459 -1968,-8524 -1968,-12194 0,-9577 3114,-18003 9378,-25181 6232,-7216 13280,-10821 21084,-10821 10621,0 19312,5540 25998,16588 6691,11085 10031,25279 10031,42623l14361 0 0 18101zm-58654 -28295c2297,2395 5670,4524 10129,6459 4459,1903 10329,3081 17642,3540 -330,-12820 -2162,-22819 -5573,-30067 -3410,-7243 -7642,-10848 -12788,-10848 -4426,0 -8031,1800 -10853,5438 -2821,3610 -4232,7545 -4232,11836 0,1870 330,3967 951,6362 660,2362 2233,4789 4724,7280z"/>
  <path id="3" class="fil0" d="M353598 116459c0,10885 -2984,19117 -8983,24689 -5967,5573 -14064,8362 -24263,8362l-96979 0 0 -18101 28327 0c-1049,-2357 -2033,-5443 -3049,-9178 -983,-3740 -1475,-7183 -1475,-10328 0,-11967 2983,-21215 8918,-27738 5967,-6524 13734,-9805 23344,-9805 9539,0 17311,3216 23278,9643 6000,6458 8983,15739 8983,27900 0,3410 -297,6788 -919,10199 -589,3372 -1540,6491 -2821,9307l12199 0c4886,0 9015,-1341 12426,-4032 3378,-2654 5080,-6227 5080,-10686 0,-5934 -1410,-11345 -4259,-16198 -2854,-4854 -7610,-11113 -14296,-18852 -7085,-8097 -12885,-13475 -17441,-16096 -4530,-2659 -10264,-3967 -17182,-3967l-14691 0 0 -18101 14529 0c7210,0 14555,2232 21997,6691 7443,4421 15604,11766 24490,22030 7642,8756 13345,16458 17117,23085 3767,6621 5670,13701 5670,21176zm-57832 -4524c0,-6129 -1476,-10918 -4427,-14328 -2951,-3443 -6918,-5146 -11901,-5146 -5054,0 -9054,1670 -11972,5048 -2914,3346 -4357,8167 -4357,14426 0,6135 1476,10918 4427,14328 2951,3443 6918,5146 11902,5146 5048,0 9047,-1670 11966,-5048 2919,-3341 4362,-8162 4362,-14426z"/>
  <path id="4" class="fil0" d="M420456 149510l-6070 0c-11836,0 -20884,-4032 -27110,-12064 -6200,-8037 -9313,-18528 -9313,-31478l0 -105968 15934 0 0 104790c0,3540 297,6783 854,9804 589,3016 1670,5800 3275,8356 1605,2627 3610,4692 6032,6200 2394,1507 5707,2259 9934,2259l6464 0 0 18101z"/>
  <path id="5" class="fil0" d="M462711 106000c0,13642 -3242,24295 -9701,32003 -6459,7669 -15377,11507 -26690,11507l-12588 0 0 -18101 13080 0c6524,0 11475,-2324 14885,-7016 3378,-4653 5081,-11177 5081,-19571l0 -24165 15933 0 0 25343zm-27537 -49735l-14167 0 0 -14166 14167 0 0 14166zm25770 0l-14166 0 0 -14166 14166 0 0 14166z"/>
 </g>
</svg>
