<?xml version="1.0" encoding="UTF-8"?>
<!DOCTYPE svg PUBLIC "-//W3C//DTD SVG 1.1//EN" "http://www.w3.org/Graphics/SVG/1.1/DTD/svg11.dtd">
<!-- Creator: CorelDRAW X7 -->
<svg xmlns="http://www.w3.org/2000/svg" xml:space="preserve" width="18.9108mm" height="5.2635mm" version="1.1" style="shape-rendering:geometricPrecision; text-rendering:geometricPrecision; image-rendering:optimizeQuality; fill-rule:evenodd; clip-rule:evenodd"
viewBox="0 0 3649763 1015849"
 xmlns:xlink="http://www.w3.org/1999/xlink">
 <defs>
  <style type="text/css">
   <![CDATA[
    .fil0 {fill:#990000;fill-rule:nonzero}
   ]]>
  </style>
 </defs>
 <g id="Layer_x0020_1">
  <metadata id="CorelCorpID_0Corel-Layer"/>
  <path class="fil0" d="M725116 690743c-38793,0 -63651,-14301 -74208,-42904 -48674,28603 -105358,42904 -170032,42904l-411416 0c-46300,-3069 -69460,-20940 -69460,-53789 0,-25013 8859,-49369 26557,-72857 13625,12255 27927,18567 42903,18895l69789 0c8511,0 14301,-2374 16848,-6968 2046,-3917 3069,-12950 3069,-26904l-4941 -486299c0,-18219 5443,-32848 16347,-43753 11059,-11059 26036,-16501 44931,-16501 33871,0 61952,9187 84263,27406 -10055,17022 -14996,54638 -14996,113194 0,99066 174,186379 521,261783 40858,-75057 98545,-120508 173101,-136180 36611,-6967 75250,-6465 116088,1544 41881,8338 74228,22465 96867,42383 50199,43231 75230,103312 75230,180087 0,32501 -9032,62628 -26904,90208l105204 0 0 107751 -99761 0zm-121184 -189969c4420,-31652 -9534,-58710 -41881,-81349 -31478,-22311 -66044,-29973 -103138,-22986 -38311,7662 -76100,33369 -113194,76929 -32694,37789 -52940,72857 -60949,105204l0 4420 146216 0c108272,0 165959,-27406 172946,-82218z"/>
  <path id="1" class="fil0" d="M1239188 322733c-15845,0 -28950,-4767 -38812,-14456 -10056,-10055 -14977,-22812 -14977,-38484 0,-17177 6118,-31825 18373,-43733 12430,-12082 27406,-18046 45452,-18046 15999,0 29278,4941 39835,14977 10383,10036 15478,22291 15478,36940 0,17524 -6118,32501 -18373,44756 -12777,12101 -28255,18046 -46976,18046zm213437 368010c-38812,-676 -63825,-14803 -74729,-42383 -11387,17872 -25862,29780 -43405,35396 -15653,4613 -43908,6987 -84766,6987l-444418 0 0 -107751 372604 0c-31324,-10885 -80693,-37790 -148088,-80674 -75579,-47323 -119505,-82719 -132263,-106226 -8858,-17351 -10383,-35223 -4419,-53442 6967,-20245 19898,-37789 38966,-52418 19242,-14823 39835,-22813 61799,-23836 0,20265 16327,47150 48848,80674 31323,32346 71486,64867 120682,97889 49523,32848 95496,57533 137704,73687 43734,17370 75405,22137 94628,14475 1370,14648 1544,31323 521,49871l155576 0 0 107751 -99240 0z"/>
  <path id="2" class="fil0" d="M1614841 582992c14976,0 25360,-4767 31323,-14456 5945,-9206 9013,-24858 9013,-46821l-2547 -234899c-1197,-126627 -1872,-201877 -1872,-225365 0,-18374 5442,-33022 16328,-43907 11078,-11059 26054,-16521 44949,-16521 32848,0 60930,9206 84244,27406 -9862,16347 -14977,48520 -14977,96866l1544 454802c0,73706 -33543,110646 -100784,110646l-150114 0 0 -107751 82893 0z"/>
  <path id="3" class="fil0" d="M1998156 124774c0,20593 1196,105203 3570,253793l2895 250899c0,18547 -5442,33369 -16327,44254 -11079,11059 -26055,16521 -44950,16521 -32501,0 -60602,-9380 -84244,-27927 10036,-16675 14977,-48848 14977,-96673l-3069 -253967c-2219,-148590 -3416,-232178 -3416,-250725 0,-18721 5462,-33543 16347,-44428 11059,-10885 26209,-16521 45451,-16521 32501,0 60602,9380 83742,27927 -9862,16347 -14976,48674 -14976,96847z"/>
  <path id="4" class="fil0" d="M2793060 582992c46127,2393 69287,20091 69287,53460 0,24839 -8859,49176 -26383,72684 -13279,-11928 -27580,-18046 -42904,-18393l-230981 502c-47497,0 -84418,9881 -110646,29451 -25360,18895 -37944,44776 -37944,77798 0,33196 11233,60081 33524,80674 22137,20940 51068,31497 86637,31497 23662,0 45278,-5616 64867,-17022 18721,30629 27908,54464 27908,71313 0,34045 -30648,50893 -92254,50893 -72509,0 -132937,-21268 -181457,-63824 -54291,-46802 -81368,-103834 -81368,-171074 0,-49871 15999,-91906 48018,-126125 31825,-34547 75559,-56684 131065,-66392 -29625,-39487 -44428,-83568 -44428,-132069 0,-59251 21790,-106902 65349,-143166 43580,-36246 101788,-54291 174645,-54291 69113,0 120856,17196 155576,51917 19242,18894 27233,46300 23836,82217 -3571,40163 -25534,60254 -65871,60254 -34566,0 -61624,-6812 -81194,-20438 7314,0 13104,-5269 17350,-15826 4439,-11406 5288,-24164 2567,-38465l0 -1524c-15999,-5289 -31497,-8010 -46821,-8010 -30629,0 -55488,9708 -74884,28931 -18895,19415 -28429,44602 -28429,75925 0,28603 8512,52593 25534,72163 16849,19743 39661,31999 68244,36940l151157 0z"/>
  <path id="5" class="fil0" d="M3270694 690743c-348,47150 -4594,80847 -12950,100765 -25862,60775 -76930,91230 -153010,91230 -25032,0 -46474,-6292 -64346,-18894 -18045,-12758 -26904,-27561 -26904,-44409 0,-17718 8859,-38137 26904,-61278 13607,12584 28255,18876 43907,18876 23488,0 40183,-10036 49871,-29954 5617,-12255 9033,-31323 10384,-56838l-12410 0c-96866,-2046 -164609,-32520 -203421,-91752 -17698,-27579 -26557,-58208 -26557,-91751 0,-33872 7161,-67743 21462,-101267 14977,-35589 34894,-63168 59907,-82738 53441,-44255 125970,-64501 217374,-60930 32675,0 60583,8685 83743,26035 -10210,15325 -15325,45104 -15325,89706 0,13626 174,44429 850,92254 0,12603 173,25534 521,38464 328,27927 502,52786 502,74730l134134 0 0 107751 -134636 0zm-251246 -185028c0,26557 10557,46474 31825,59926 22639,11908 53963,17698 93798,17351l-1023 -229785c-30301,6987 -58730,27059 -85286,60254 -26210,32849 -39314,63671 -39314,92254z"/>
  <path id="6" class="fil0" d="M3567043 175166c-15999,0 -28776,-4941 -38483,-14475 -9863,-10036 -14977,-22813 -14977,-38465 0,-17196 6311,-31825 18566,-43926 11908,-11908 26885,-17872 44930,-17872 15826,0 29105,4941 39835,14996 10210,9862 15479,22291 15479,36921 0,17543 -6118,32520 -18547,44775 -12603,11908 -28255,18046 -46803,18046zm82720 115567c-9882,16347 -14977,48694 -14977,96847l1525 193366c0,73204 -33350,109797 -100263,109797l-150115 0 0 -107751 82893 0c14977,-328 25360,-5096 31324,-14456 5944,-9206 9013,-24858 9013,-46821 0,-7663 -849,-42209 -2547,-103834 -1197,-49176 -1873,-80500 -1873,-94125 0,-18374 5443,-33023 16328,-43908 10731,-11078 25534,-16520 44428,-16520 33544,0 61625,9186 84264,27405z"/>
 </g>
</svg>
