<?xml version="1.0" encoding="UTF-8"?>
<!DOCTYPE svg PUBLIC "-//W3C//DTD SVG 1.1//EN" "http://www.w3.org/Graphics/SVG/1.1/DTD/svg11.dtd">
<!-- Creator: CorelDRAW X7 -->
<svg xmlns="http://www.w3.org/2000/svg" xml:space="preserve" width="7.7606mm" height="4.0261mm" version="1.1" style="shape-rendering:geometricPrecision; text-rendering:geometricPrecision; image-rendering:optimizeQuality; fill-rule:evenodd; clip-rule:evenodd"
viewBox="0 0 400472 207760"
 xmlns:xlink="http://www.w3.org/1999/xlink">
 <defs>
  <style type="text/css">
   <![CDATA[
    .fil0 {fill:#990000;fill-rule:nonzero}
   ]]>
  </style>
 </defs>
 <g id="Layer_x0020_1">
  <metadata id="CorelCorpID_0Corel-Layer"/>
  <path class="fil0" d="M30843 30750c7266,5063 13995,10207 19547,14996 5197,-4381 9258,-10073 12194,-16709 -5826,-5552 -12194,-10971 -19325,-15760l-12416 17473zm23118 58792c-26689,9799 -49626,33325 -49626,63668 0,34048 20816,54550 62223,54550 10971,0 19279,-1311 23526,-4113 8081,-5145 17204,-12416 27680,-21942l-1492 -3163c-10836,2487 -21941,3571 -33052,3571 -39693,0 -65340,-16441 -65340,-36577 0,-21224 34229,-41318 82137,-50437l9526 -17297 -944 -1847 -15084 0c-22488,0 -41633,-15806 -64659,-15806 -16482,0 -25424,9887 -28856,26322l8535 18154 2529 0 6682 -18154c2890,-1579 6729,-2208 11245,-2208 5552,0 14134,1713 24970,4876l0 403zm25694 16121c134,29259 12147,30569 36891,30569l1847 0 0 -26457 -5011 0c-12957,0 -23933,-407 -25920,-9665l-7807 5553z"/>
  <path id="1" class="fil0" d="M253903 109775l-1853 0c-15078,0 -21941,-4515 -21941,-13772 0,-4335 1445,-10027 3700,-17205l-950 -903c-3973,1987 -7265,4242 -10563,6456 -2394,6502 -3705,13907 -7405,18695 -3029,3927 -7002,6729 -13365,6729 -4247,0 -6595,-2667 -6595,-8354 0,-3571 2756,-10161 6053,-17974l-1042 -1310c-3834,1584 -7132,3163 -10698,5284 -3436,6321 -4381,12013 -9531,17204 -2890,2756 -6590,5150 -12550,5150 -4247,0 -6863,-1852 -6863,-6729 0,-4112 3158,-10207 8035,-17204l-1445 -1357c-4242,1625 -8081,3478 -11513,5330 -4474,6048 -7405,11105 -11378,14000 -5016,3834 -12555,5960 -23660,5960l-1853 0c-6321,0 -9258,6864 -9258,13226 0,6368 2937,13231 9258,13231l1853 0c10202,0 19459,-3565 27494,-10067 2394,7405 7544,10067 14180,10067 8716,0 14676,-4107 21808,-11244l635 0c2394,7544 7405,11244 14675,11244 7674,0 15218,-3973 22350,-12188l542 0c4515,8891 15217,12188 30027,12188l1853 0 0 -26457z"/>
  <path id="2" class="fil0" d="M315899 109775l-1579 0c-5692,0 -10207,-1444 -14181,-3839 -5010,-3478 -6455,-7451 -6455,-13685 0,-2663 903,-6636 2528,-12235l-949 -769c-4108,2394 -7539,4789 -10563,6910 -2936,6094 -3571,14583 -10883,19103 -4335,2663 -9124,4515 -17974,4515l-1847 0c-6368,0 -9258,6864 -9258,13226 0,6368 2890,13231 9258,13231l1847 0c11518,0 20502,-5010 27634,-14402l407 0c7003,12008 18242,14402 30302,14402l1713 0 0 -26457zm-48404 -57212c7132,5011 13773,9934 19192,14717 5010,-4376 8984,-9841 11873,-16343 -5686,-5552 -11873,-10702 -18917,-15444l-12148 17070z"/>
  <path id="3" class="fil0" d="M348321 0c-4603,3478 -7766,6775 -10248,9980 -2529,3163 -3566,7405 -3566,12328 0,6636 4335,36035 4335,68952 0,7132 0,10837 -2214,13097 -3839,3834 -10341,5418 -18783,5418l-1853 0c-6368,0 -9304,6864 -9304,13226 0,6368 2936,13231 9304,13231l1853 0c11873,0 19010,-4876 24155,-11920 2756,-4200 4876,-8984 6595,-13995 2890,-8494 4876,-17478 4876,-29217 0,-12958 -273,-25379 -815,-35581l11786 -8984c-9479,-15940 -14495,-26689 -14495,-35446l-1626 -1089z"/>
  <path id="4" class="fil0" d="M385481 139803c4515,-5330 8086,-10480 10883,-15491 2936,-4515 4108,-18376 4108,-39146 0,-25693 -403,-52383 -3024,-80966l-2255 -1217c-5058,4923 -10073,10475 -15399,16796 3205,28991 4515,57440 4515,86023 0,12911 -407,22711 -1718,32102l2890 1899z"/>
 </g>
</svg>
