<?xml version="1.0" encoding="UTF-8"?>
<!DOCTYPE svg PUBLIC "-//W3C//DTD SVG 1.1//EN" "http://www.w3.org/Graphics/SVG/1.1/DTD/svg11.dtd">
<!-- Creator: CorelDRAW X7 -->
<svg xmlns="http://www.w3.org/2000/svg" xml:space="preserve" width="8.375mm" height="3.7504mm" version="1.1" style="shape-rendering:geometricPrecision; text-rendering:geometricPrecision; image-rendering:optimizeQuality; fill-rule:evenodd; clip-rule:evenodd"
viewBox="0 0 448086 200657"
 xmlns:xlink="http://www.w3.org/1999/xlink">
 <defs>
  <style type="text/css">
   <![CDATA[
    .fil0 {fill:#990000;fill-rule:nonzero}
   ]]>
  </style>
 </defs>
 <g id="Layer_x0020_1">
  <metadata id="CorelCorpID_0Corel-Layer"/>
  <path class="fil0" d="M58430 9320l-7677 21958c-1686,652 -4869,1776 -9647,3413 -3371,1220 -6741,2344 -10112,3419l-24440 8239 7260 -21813 20738 -6837 23878 -8379zm-7447 90259c0,-4119 -605,-7581 -1916,-10438 -1642,-3462 -3980,-5195 -6976,-5195 -4917,0 -10112,1685 -15500,5056 -2761,1733 -5008,3558 -6784,5430 -1782,1873 -3232,4120 -4307,6790 1915,936 3697,1728 5334,2386 1637,701 3280,1311 4917,1873l6880 1637c3093,0 5388,-48 6838,-139 1498,-97 3232,-423 5243,-937 4168,-845 6271,-2996 6271,-6463zm32257 45927l-28651 0c-466,0 -797,-562 -985,-1776 -465,-3280 -749,-5008 -840,-5195 -422,-2766 -797,-5854 -1075,-9272 -284,-3419 -423,-7769 -423,-13109 -5195,3419 -9314,5945 -12311,7726 -2204,1263 -4729,2622 -7586,4072 -3558,1685 -7726,2482 -12456,2482 -2664,0 -6458,-1171 -11465,-3558 -4965,-2386 -7448,-5056 -7448,-8100 0,-7678 5901,-19336 17651,-34969 5944,-7961 11936,-13906 17934,-17838 5992,-3933 12263,-5901 18865,-5901 4446,0 7394,5291 8753,15778 0,5478 139,9924 326,13295 236,3419 894,10064 1873,20037 0,4028 519,7212 1503,9598 1027,2386 2103,3697 3226,3981 1172,278 2718,513 4682,701 1969,187 4778,283 8427,283l0 21765z"/>
  <path id="1" class="fil0" d="M167325 145506l-9224 0c-3655,0 -6790,-278 -9460,-936 -2621,-653 -5195,-1777 -7677,-3414 -4307,-2669 -9037,-6837 -14280,-12503 -3933,5104 -8095,9272 -12595,12503 -4023,2900 -9079,4350 -15211,4350l-20042 0 0 -21765 19197 0c1124,0 2199,0 3280,0 1685,-283 3183,-519 4537,-706 1359,-187 2953,-605 4681,-1215 375,-96 2247,-845 5623,-2199 -8523,-6415 -13017,-10770 -13579,-13065l1777 -7255c471,-1450 984,-2809 1594,-4120 562,-1262 1402,-2948 2525,-5056 1547,-2948 3558,-5291 6041,-7025 2434,-1262 8801,-1915 19058,-1915 4633,0 7816,1124 9502,3323 1733,2199 2712,4633 2948,7394 0,3092 -1172,7025 -3558,11797l-6132 11942c1263,1733 2296,2948 3136,3697 797,701 1824,1450 3092,2199 1215,706 2434,1268 3697,1642 1215,375 2670,562 4307,562l16618 0 145 21765z"/>
  <path id="2" class="fil0" d="M242186 4403l-7823 19053c-3274,1171 -5944,2156 -7955,2953 -2012,792 -4821,1915 -8523,3413 -3649,1499 -6785,2857 -9454,3981 -2622,1172 -6463,2905 -11519,5291l7961 -18774 20459 -9079 16854 -6838zm-2060 71726l-139 6035 0 6041c-284,2718 -1595,6789 -3890,12220 -2338,5382 -5570,11423 -9689,18073 -2108,3226 -4730,6319 -7962,9267 -3183,2948 -7255,5944 -12214,8988 -9411,5853 -21728,8753 -37035,8753l-9459 0 0 -21765 8384 0c14793,0 28511,-2108 41149,-6324 12594,-4211 18913,-8705 18913,-13434 0,-5945 -1215,-9834 -3601,-11659 -2434,-1824 -5853,-2760 -10256,-2760l-2996 0c-2665,0 -4634,-327 -5896,-937 -659,-561 -985,-2156 -985,-4820l0 -1643c0,-1728 2622,-6415 7774,-13996 5147,-7587 9738,-11658 13761,-12220 2761,2199 5570,4917 8523,8100 2900,2948 4772,6977 5618,12081z"/>
  <path id="3" class="fil0" d="M352578 145506l-12595 0c-6977,0 -13622,2483 -20037,7448 -3370,2621 -5944,4542 -7677,5757 -1311,888 -3184,2156 -5618,3697 -2482,1546 -7164,8614 -13996,21256 -5853,11332 -15687,16993 -29496,16993 -1921,0 -4029,-43 -6228,-139 -2247,-91 -4398,-188 -6415,-279l-10112 -144 -6741 0 -5335 284 279 -1220c1637,-2012 4868,-4211 9737,-6597 4821,-2344 11193,-5013 19058,-7961 17367,-5666 28089,-9877 32208,-12595 4682,-2573 7678,-5056 9080,-7394 519,-845 1123,-1873 1685,-3093 610,-1262 1081,-2295 1455,-3087 4307,-7490 10112,-15264 17416,-23316 6693,-7587 15965,-11375 27853,-11375l5479 0 0 21765z"/>
  <path id="4" class="fil0" d="M404031 99863l-4119 8239c-3558,6742 -8427,13344 -14467,19759 -6089,6367 -11659,10716 -16667,13012 -1733,610 -4028,1498 -6789,2573 -2809,1124 -5104,1830 -6929,2060l-7538 0 0 -21765 9973 0c6506,0 13386,-1407 20646,-4120 7304,-2766 10910,-6366 10910,-10866l0 -89558 14836 -19197 144 99863z"/>
  <polygon id="5" class="fil0" points="448086,122618 432163,142933 432163,45697 448086,24301 "/>
 </g>
</svg>
