<?xml version="1.0" encoding="UTF-8"?>
<!DOCTYPE svg PUBLIC "-//W3C//DTD SVG 1.1//EN" "http://www.w3.org/Graphics/SVG/1.1/DTD/svg11.dtd">
<!-- Creator: CorelDRAW X7 -->
<svg xmlns="http://www.w3.org/2000/svg" xml:space="preserve" width="86.1313mm" height="18.842mm" version="1.1" style="shape-rendering:geometricPrecision; text-rendering:geometricPrecision; image-rendering:optimizeQuality; fill-rule:evenodd; clip-rule:evenodd"
viewBox="0 0 8061103 1763439"
 xmlns:xlink="http://www.w3.org/1999/xlink">
 <defs>
  <style type="text/css">
   <![CDATA[
    .str0 {stroke:white;stroke-width:39617}
    .fil0 {fill:black}
    .fil9 {fill:url(#id0)}
    .fil1 {fill:url(#id1)}
    .fil4 {fill:url(#id2)}
    .fil6 {fill:url(#id3)}
    .fil8 {fill:url(#id4)}
    .fil5 {fill:url(#id5)}
    .fil2 {fill:url(#id6)}
    .fil3 {fill:url(#id7)}
    .fil7 {fill:url(#id8)}
   ]]>
  </style>
  <linearGradient id="id0" gradientUnits="userSpaceOnUse" x1="136381" y1="1.16115e+006" x2="136381" y2="1.31503e+006">
   <stop offset="0" style="stop-opacity:1; stop-color:#FEBA00"/>
   <stop offset="1" style="stop-opacity:1; stop-color:#D91200"/>
  </linearGradient>
  <linearGradient id="id1" gradientUnits="userSpaceOnUse" xlink:href="#id0" x1="4.63736e+006" y1="366146" x2="4.63736e+006" y2="1.42915e+006">
  </linearGradient>
  <linearGradient id="id2" gradientUnits="userSpaceOnUse" xlink:href="#id0" x1="7.02494e+006" y1="1.50675e+006" x2="7.02494e+006" y2="1.66276e+006">
  </linearGradient>
  <linearGradient id="id3" gradientUnits="userSpaceOnUse" xlink:href="#id0" x1="3.72938e+006" y1="1.14997e+006" x2="3.72938e+006" y2="1.31491e+006">
  </linearGradient>
  <linearGradient id="id4" gradientUnits="userSpaceOnUse" xlink:href="#id0" x1="496237" y1="1.13592e+006" x2="496237" y2="1.30986e+006">
  </linearGradient>
  <linearGradient id="id5" gradientUnits="userSpaceOnUse" xlink:href="#id0" x1="6.78228e+006" y1="1.50675e+006" x2="6.78228e+006" y2="1.66276e+006">
  </linearGradient>
  <linearGradient id="id6" gradientUnits="userSpaceOnUse" xlink:href="#id0" x1="5.15278e+006" y1="53917.7" x2="5.15278e+006" y2="262382">
  </linearGradient>
  <linearGradient id="id7" gradientUnits="userSpaceOnUse" xlink:href="#id0" x1="3.92836e+006" y1="65466.8" x2="3.92836e+006" y2="273931">
  </linearGradient>
  <linearGradient id="id8" gradientUnits="userSpaceOnUse" xlink:href="#id0" x1="942245" y1="1.08544e+006" x2="942245" y2="1.29952e+006">
  </linearGradient>
 </defs>
 <g id="__x0023_Layer_x0020_1">
  <metadata id="CorelCorpID_0Corel-Layer"/>
  <g id="_983536080">
   <g>
    <path class="fil0" d="M2820117 915815l53647 53665 54151 -53665c1517,-6411 3164,-12701 5054,-18981 1853,-6598 4090,-13055 6720,-19523 5410,-14104 11222,-27946 17539,-41535 6336,-13449 12270,-27282 17932,-41526 3173,-7113 5934,-14638 8573,-22415 2508,-7656 5147,-15303 7656,-22678 777,-2115 1712,-4885 2499,-8179 926,-3295 1984,-6589 2901,-9893 1057,-3163 2237,-6196 3697,-8957 1450,-2901 2770,-5016 4080,-6195 -262,-2649 -524,-5681 -926,-9107 -384,-3556 -1048,-6860 -1844,-10285 -655,-3295 -1834,-6458 -3163,-9490 -1451,-2911 -3426,-5148 -6065,-6720 -6458,-4362 -13711,-7525 -21751,-9238 -8179,-1843 -15826,-3818 -23079,-5802 -6196,-1844 -12392,-3959 -18849,-6327 -6458,-2508 -12925,-4623 -19383,-6458 -6467,-1844 -12794,-3304 -19261,-4623 -6458,-1310 -12925,-1975 -19373,-1975 -13580,524 -27291,2508 -40881,6065 -13711,3425 -27160,6598 -40609,9499l-18465 3819c-6205,1319 -12261,2639 -18194,4221 -2378,524 -5672,1188 -9884,1974 -4221,796 -8572,1713 -13055,3033 -4615,1319 -8442,3041 -11596,5278 -3314,2106 -5026,4876 -5288,8302 -524,5681 -1058,10688 -1713,15040 -655,4342 0,9228 2115,14619 2761,7000 5924,13589 9490,19925 3416,6336 6992,12523 10548,18718 4212,8049 8573,16210 13178,24531 4623,8432 8975,16874 13196,25316 6589,11867 13187,23603 19373,35330 6327,11737 12794,23482 19261,35340 3828,7254 7768,14376 11727,21227 3276,5802 6654,11689 10042,17670zm4214229 263439l44549 0c9434,0 22771,-646 39692,-1956 16565,-1301 33814,-3575 51381,-6495 17240,-3257 33506,-7824 48452,-13346 14965,-5859 25382,-12682 30913,-21123 -16275,-9453 -33178,-18878 -49771,-28621 -16912,-9452 -33824,-18877 -51064,-28620 -15938,-8788 -29593,-18559 -40655,-28957 -11053,-10398 -19196,-25372 -24072,-44221 -3248,-14638 -3248,-30268 328,-46843 3584,-16593 7169,-32204 11062,-47478 3575,-16585 8788,-32851 15283,-48789 6177,-15602 12364,-31868 17886,-48452 5203,-15302 7496,-31241 7169,-47816 -347,-16266 3247,-31867 10070,-46514 6832,-14629 16912,-28293 29593,-40965 12701,-12700 26346,-24390 40993,-35462 -13346,-5531 -27001,-11053 -40993,-16584 -13982,-5213 -24717,-14310 -32513,-27001 -4885,-7787 -8461,-15283 -9762,-22434 -1628,-7487 -2274,-14965 -1628,-22443 655,-7468 1947,-14965 4240,-22443 2265,-7150 4221,-14965 6177,-23416 3238,-15621 8123,-31232 14310,-46496l21133 -43922c6177,-15284 12354,-30240 17894,-45195 5840,-14975 10726,-30249 14310,-46188 1937,-7159 4539,-13991 8124,-20496 3594,-6823 7796,-12354 13009,-16594 4876,-4548 10725,-7468 17230,-8769 6186,-1320 13664,327 21797,4876 7488,4549 14320,9743 19842,16266 5849,6158 12045,12017 19186,16903 27965,24399 56585,47160 85860,69285 28948,21779 57905,43894 86525,66010 29266,22452 58522,43267 87807,63099 29275,19523 60169,37726 93338,54320 66674,30557 133021,60815 199049,91054 66010,29931 132693,60179 200013,89773l-65691 326856c-5522,31877 -10735,63427 -15293,95304 -4230,31540 -10735,63745 -18868,96923 -3893,14300 -7478,29911 -10398,46823 -3257,16912 -7815,31550 -13992,44559 -5859,12672 -14628,22433 -26018,29266 -11699,6504 -26992,7150 -46833,1946 -31868,-8779 -63090,-17885 -94312,-27310 -31231,-9434 -62443,-18540 -94320,-27328 -32533,-8461 -64718,-17876 -97251,-27965 -32513,-10407 -63407,-24380 -93347,-41957 -11381,-8779 -22762,-15601 -34470,-20814 -2265,1300 -6832,3257 -13009,5858 -14637,7806 -29256,16266 -43585,24708 -14291,8461 -28620,17567 -43239,26683 -23426,15284 -45214,27001 -65383,35771 -19841,8460 -40974,15938 -63417,22443 -22115,6822 -47488,12672 -75780,18531 -27975,5521 -61798,12363 -101481,20168l-10070 0 -6832 0 -35771 0c-25045,-1300 -46187,-10089 -63426,-26355 -16903,-15920 -30577,-35443 -40974,-57558 -1320,3257 -2939,6177 -4558,8788 -1956,2602 -3576,5541 -4876,8770 -8789,15938 -20824,29612 -36445,41320 -15592,11708 -31531,18213 -47797,20159 -7478,1292 -14647,1292 -21797,0 -6823,-1301 -13973,-1946 -21470,-1946 -8769,645 -17230,1291 -25353,1946 -8143,646 -16594,1292 -25382,1947 -10716,1301 -22097,2929 -33815,4876 -11717,1966 -23098,1310 -33833,-1947l-1937 0 -37296 2144 0 -2144 -56052 0c-24717,0 -46842,328 -66009,1292 -19205,983 -38064,1965 -56922,2929 -18877,983 -37736,1629 -56604,1956 -18868,328 -39664,328 -62434,-327 -11709,-646 -24081,-1937 -36763,-3575 -12354,-1619 -24053,-4876 -34469,-9752 -7151,-3585 -10417,-8779 -10417,-15284l0 -21142c655,-17567 1628,-35770 2620,-54301 1292,-18878 2593,-37418 3884,-56604 3267,-49117 4240,-98879 3267,-148641 -983,-50081 -3267,-99834 -6832,-150251 -2284,-60170 -4240,-120002 -5850,-179208 -1628,-58850 -2939,-118710 -4239,-178880 -964,-53337 -1610,-106010 -2602,-158384 -974,-52036 -1292,-104719 -1292,-158056 0,-13346 964,-26673 2602,-39683 1619,-13018 4876,-25045 9743,-36425 4885,-11708 11708,-21152 20496,-28620 8788,-7806 20169,-12691 34152,-15293 15938,-3248 32532,-4221 49434,-3248 16921,983 33506,1301 49444,1301 21461,0 43249,0 65692,-318 22115,-327 42930,3238 62444,10726 5858,1946 9424,5531 11380,10407 1956,5213 2939,10744 3257,16912 328,5859 0,12363 -973,18858 -983,6832 -1310,12045 -1310,15939l0 43576c0,14647 327,29284 982,43913 1301,60487 -982,120348 -6841,180171 -5850,59534 -9743,119694 -11708,180182 -6823,156128 -7797,312228 -2911,467692 0,9434 3238,17894 9743,25372 6514,7151 14965,13318 25045,17885 9770,4877 20159,8134 30903,10080 10408,1947 20487,2611 29285,1947l11380 5447 20357 -2153c5521,-2592 14665,-6233 20852,-5250 6504,964 8544,-15929 15695,-14638 6832,1320 13336,1638 19513,1320 5859,-328 11063,-2930 15611,-8143 6505,-6822 10417,-14946 12354,-24062 1966,-9443 2602,-18858 2293,-29266 -327,-10089 -992,-20178 -2620,-29921 -1610,-9761 -2901,-18868 -3557,-26991 -1637,-13346 -3912,-26674 -6195,-40001 -1938,-13346 -3894,-26683 -5195,-40010 -2929,-34479 -5521,-68621 -7487,-102445 -1947,-34151 -7478,-67975 -16266,-101471 -4539,-15938 -7796,-32214 -10389,-48789 -2620,-16593 -4557,-33178 -5868,-50408 -1301,-13346 -3247,-27656 -6504,-42939 -3257,-15293 -3257,-29603 0,-42930 3257,-17558 11708,-30577 25690,-38054 13992,-7478 29285,-10735 45542,-9434 15938,1319 31877,655 48124,-1620 16266,-2274 32532,-3902 48789,-5213 12036,-1300 26346,-3247 43585,-6177 16903,-2910 33178,-3912 48780,-3238 15611,637 28957,4858 40338,12354 10865,7366 16406,21030 16584,40984l0 -10 0 10 0 964 337 12691 0 -2602 0 2602c908,28526 3023,56697 5840,83904 3575,31549 3903,63754 655,96913 -2602,29612 -3257,59206 -1956,88462 1301,29285 2611,58869 3912,88481 636,17876 309,35115 -655,51709 -973,16266 -1956,32850 -3257,49444 -1301,17230 -1629,34470 -1301,51381 328,17230 -1301,34142 -4240,50736l-2910 11381c12672,6167 26009,9424 39682,9424l37072 0 6832 0zm239368 -244244c-2612,12682 -4558,24381 -5522,35106 -1301,10744 1291,21470 8442,32542 7496,12681 18222,21797 31549,26991 13337,5531 26674,10417 40010,14965 14956,5522 30239,11044 45205,15920 14965,5213 29921,10417 45204,15302l20815 -9452c7159,-3229 12681,-7151 17239,-11372 13983,-10398 24062,-23098 29921,-38690 6177,-15620 9752,-31877 10744,-49117 964,-17239 637,-34478 -992,-52354 -1609,-17904 -2929,-33833 -3575,-48480 -646,-7787 -1947,-13646 -4230,-17876 -2274,-3903 -3884,-9434 -5204,-16594 -1301,-7459 -3238,-14956 -6177,-22434 -2920,-7150 -7150,-13336 -12691,-18531 -5840,-6186 -12990,-10089 -21142,-11380 -8114,-1320 -16902,-1320 -26009,-328 -9434,655 -18531,2265 -27647,4539 -9424,2275 -17885,3903 -25353,5204 -8143,1310 -16276,2602 -24409,3903 -7805,1301 -15611,2929 -22761,5213 -7469,2265 -14301,5522 -21142,10089 -6505,4548 -12354,10407 -17558,18203 -8779,14965 -14628,32841 -16921,53328 -2593,20169 -5204,38700 -7796,55303zm325892 187004c19832,7150 39346,13664 59178,20169 19514,6177 37408,12354 53337,17876 15939,5859 28630,10744 38382,14974 10089,3894 14956,6823 14956,8124 4885,-31231 12691,-61798 22780,-92037 10080,-30258 19832,-60507 28620,-91064 1937,-7478 4548,-14638 8114,-20815 3594,-6504 6524,-12681 9434,-19195 2939,-6177 4886,-12691 5859,-19505 973,-6523 0,-13982 -2592,-22461 -2939,-8761 -7497,-16575 -13665,-22762 -6186,-6495 -13009,-11708 -20487,-16247 -7487,-4567 -15938,-8133 -24726,-11399 -9098,-3239 -17231,-6496 -24708,-9416 -13337,-5849 -26674,-11380 -39683,-16912 -13009,-5203 -26355,-10407 -40328,-15611 645,1938 973,4231 1301,6823 327,2265 645,4886 1301,7478 2601,16584 2601,33178 0,50081 -2275,16921 -6187,33505 -11381,50426 -4886,16903 -10744,33497 -17567,49435 -6832,16257 -12682,32523 -17567,48125 -4558,13336 -9097,26991 -13973,40992 -4558,13973 -10089,28293 -16585,42921zm-644934 -530136l0 -3893 0 -974 0 -982 0 5849zm-1575537 604934l36519 0c26018,0 46187,-5850 60497,-17885 14310,-12027 20487,-31222 17886,-57568 -2275,-26337 -4886,-52037 -7151,-77400 -2602,-25045 -5213,-51072 -8123,-78054 -4558,-43258 -8789,-86834 -13028,-130756 -4231,-43576 -6823,-87807 -8124,-132366 -646,-14637 -1965,-31212 -3903,-49753 -1956,-18222 -327,-34797 4886,-49771 2265,-8442 6495,-14629 12354,-19186 5849,-4549 12026,-7787 19195,-10090 6823,-2264 14301,-3238 22106,-3238l22116 0c16912,1301 33814,3238 50735,6177 16585,2920 33497,4240 50418,4240 16902,0 33487,-665 49425,-1966 16266,-1300 31877,-2274 46842,-2910 5850,-665 8133,-665 6823,-337 -533,178 -1394,262 -2527,309 10623,383 18288,5624 23024,15966 5194,11372 8123,24381 9115,39664 964,14965 1292,30576 637,45860 -637,15611 -964,27309 -964,35779 -665,17876 -1310,36417 -1966,55612 -655,18859 -1301,38054 -1956,57568 -1609,39991 -3247,80001 -4548,120320 -1610,40338 -3566,80348 -6505,120349 -3257,43566 -6495,86188 -9752,127162 -2920,40983 -5859,82612 -8779,124897 -327,10407 -1965,20169 -4558,29911 -2265,9434 -5849,17577 -10725,25055 -4886,7150 -11718,13009 -20824,17239 -9106,4549 -20487,6495 -34470,6495 -18868,0 -37071,974 -54638,3267 -17576,2264 -36107,2920 -54966,2264 -17567,0 -34151,0 -49444,-327 -15611,-318 -36089,-318 -61470,327l-64157 0 -1525 0 -48144 0c-14965,-645 -28620,-4557 -40655,-11717 -12027,-7459 -22762,-16903 -32523,-28283 -9425,-11708 -17567,-24718 -24063,-39037 -6513,-14638 -12035,-28948 -16256,-43585 -7160,6514 -13983,13673 -20834,20824 -6822,7150 -12999,14319 -18849,21797 -12681,13646 -25363,28620 -37726,44886 -43791,56117 -385641,44437 -506392,40965 -11699,-646 -24081,-1937 -36754,-3575 -12354,-1619 -24062,-4876 -34478,-9752 -7151,-3585 -10408,-8779 -10408,-15284l0 -21142c655,-17567 1629,-35770 2602,-54301 1301,-18878 2593,-37418 3912,-56604 3248,-49117 4221,-98879 3248,-148641 -974,-50081 -3248,-99834 -6832,-150251 -2275,-60170 -4221,-120002 -5850,-179208 -1638,-58850 -2929,-118710 -4230,-178880 -973,-53337 -1619,-106010 -2611,-158384 -964,-52036 -1292,-104719 -1292,-158056 0,-13346 964,-26673 2611,-39683 1610,-13018 4876,-25045 9743,-36425 4876,-11708 11708,-21152 20497,-28620 8788,-7806 20168,-12691 34142,-15293 15938,-3248 32532,-4221 49444,-3248 16911,983 33496,1301 49434,1301 21461,0 43258,0 65692,-318 22115,-327 42930,3238 62453,10726 5849,1946 9425,5531 11381,10407 1946,5213 2929,10744 3247,16912 328,5859 0,12363 -973,18858 -974,6832 -1301,12045 -1301,15939l0 43576c0,14647 327,29284 973,43913 1301,60487 -973,120348 -6832,180171 -5859,59534 -9752,119694 -11708,180182 -6832,156128 -7796,312228 -2920,467692 0,9434 3247,17894 9743,25372 6523,7151 14965,13318 25054,17885 9762,4877 20159,8134 30894,10080 10398,1947 20487,2611 29276,1947l655 -47 56267 -17511c13973,-5531 25363,-13336 33505,-23416 8442,-10089 11690,-23417 9743,-40328 -1301,-32196 -1947,-63745 -2274,-94967 -328,-31222 -1947,-62772 -4568,-93984 -2901,-31877 -4202,-64409 -4539,-97260 -327,-32841 -3247,-65682 -9434,-98860 -2929,-10744 -7487,-25045 -13336,-43267 -5859,-18213 -8461,-35452 -7806,-52364 646,-16575 4230,-30557 11063,-42584 6822,-12054 19513,-17913 38699,-17913 9444,1310 15621,1975 18213,1975l440 0c-1647,-131 -4024,-449 -7581,-983 -1900,-299 -3669,-524 -5325,-693 55059,2565 110680,5681 166301,9144 14320,646 28948,1301 43904,1301 14965,328 28620,2274 40328,5850 11708,3257 21152,9761 28302,19195 7160,9425 10089,23089 8788,41302 -2929,53992 -4885,107330 -5540,160658 -637,53019 -3575,106675 -8461,160677 -1628,15620 -2592,31540 -2592,48124 0,16594 -328,33178 -646,49444 -655,16257 -1629,32851 -3257,49435 -1619,16594 -5213,32186 -10080,47160 11708,8133 26075,7806 40319,12354l47722 15265 0 2293zm83034 361008c-665,-4867 -665,-6823 -328,-5522l253 973c-346,-7927 1441,-14300 5269,-19504 4549,-5868 10398,-10417 17240,-13674 7159,-2929 14637,-5521 22770,-7477 8461,-1620 15920,-3248 22443,-4549 17240,-3912 34142,-6841 51073,-9434 17230,-2611 34142,-5204 51044,-8461 9753,-1937 17240,-973 22453,2939 5203,3566 9097,8770 11380,15293 2265,6495 3894,13973 4221,21769 319,7815 1301,14975 2930,22125 1619,16903 4876,33814 10398,50736 5213,16912 8788,34142 10416,52036 1301,10089 328,18213 -2929,24072 -3575,6186 -8124,11062 -14310,14300 -5859,3594 -13009,6187 -21460,7160 -8461,1301 -16912,2602 -25700,3894 -17231,1974 -33824,5213 -50736,10089 -16584,4885 -33506,8133 -50408,10089 -13983,1956 -25363,327 -33506,-4876 -8123,-5213 -14619,-12364 -19513,-21461 -4876,-9125 -8133,-19850 -9434,-32541 -1610,-12345 -2265,-24708 -2265,-37390l0 -38054c0,-13009 -328,-23744 -1301,-32532zm-428122 -983210l-84 -9 -85 0 169 9zm-169 -9l-84 -9 -75 0 -93 -19 252 28zm-252 -28l-85 -9 -84 0 -93 -10 -75 -9 -94 -9 -75 -10 -75 0 -74 0 -132 -9 -140 -9 -131 -10c-1198,-84 -2349,-150 -3472,-178l-122 -9 -121 0 -66 0 -66 0 -65 0 -66 0 -65 0 -75 0 -75 0 -75 0 75 0 75 0 75 0 65 0 66 0 65 0 66 0 66 0 121 0 122 9 3472 178 131 10 140 9 132 9 74 0 75 0 75 10 94 9 75 9 262 19zm-1316468 829093c0,-48058 -33721,-163858 636,-206835 6177,-7722 14535,-13103 25700,-15302 1189,-234 2406,-440 3660,-599 11156,-1442 24885,37 41685,5156 328,0 655,-327 655,-655 0,-327 0,-327 328,-327 5531,-3248 9424,-8124 11699,-14301 2620,-6177 3912,-13009 4557,-20506 656,-7786 656,-15611 0,-24053 -645,-8460 -973,-16593 -1300,-24062l-5532 -88144c-1282,-20590 -9424,-93703 -15208,-174425 -786,-10959 -1526,-22041 -2200,-33169 -6654,-109473 -6860,-221688 21283,-229718 796,-225 1600,-384 2443,-440l168 0 169 0 -169 0 -168 0 -2406 0 -86000 827380zm88743 -827380l505 0 -505 0zm0 0l505 0 646 0 6233 543 9 0 1882 140 1534 122 1563 121c18513,1339 40787,1984 66834,1984 31231,0 63417,-318 95621,-973 6833,0 14310,-327 22443,-1301 8442,-973 16594,-1301 24708,-973 7825,337 15611,1301 22771,3247 7160,1966 13019,4877 17885,9434 6514,5532 10726,12036 13346,19514 2275,7497 3566,15611 3566,23744 0,8133 -646,16257 -1619,24717 -1301,8452 -2265,16267 -2929,23089 -964,29276 -3248,57568 -6496,84560 -3256,27001 -7814,54329 -13673,82622 -6495,29275 -10726,58859 -12672,88771 -1629,29602 -4568,59205 -8461,88808 -4548,29912 -8779,59842 -13009,90081 -4230,29912 -8124,60497 -11390,91392 -1292,17885 -2911,35770 -4549,53318 -1937,17904 -7150,34498 -15611,49772 -9106,14319 -20814,27329 -35134,38382 -13973,11380 -28620,20496 -43566,27974 -15939,6495 -31550,11381 -46515,14310 -14956,2920 -31540,4876 -50417,6505 -2920,0 -5522,0 -7806,327 -2592,328 -5194,328 -8114,328l-22771 6822 -46711 0 -1582 0 -3453 0 -2452 0 -1900 0 -7001 0 -458 0 88743 -827380zm-3398 0l655 0 -655 0zm-567535 602968l38054 0 4540 964 1974 0c7141,0 14619,665 23080,1966 8123,1301 16584,2601 25035,3575 8470,983 16594,1310 24081,655 7796,-328 14638,-1629 20806,-4230 7150,-3257 12035,-8789 14637,-16912 2284,-7815 3248,-16266 2920,-25700 -327,-9097 -964,-18213 -2265,-27638 -1291,-9106 -2283,-16603 -2611,-22115 -2602,-17240 -4221,-34479 -4221,-52046 -318,-17558 -1310,-34788 -2929,-52037 -2602,-29911 -5204,-59505 -7469,-89117 -2620,-29593 -5859,-59177 -9443,-89098 -3566,-32851 -7160,-65701 -10726,-98551 -3584,-32533 -5540,-65701 -5540,-99516 0,-33833 -2911,-67001 -8770,-100179 -5849,-32851 -10744,-66347 -14965,-99843 -4230,-29921 -8451,-59187 -12681,-88135 -3913,-28947 -8143,-58232 -12364,-88143 -636,-9116 -636,-17567 0,-26356 655,-8442 2920,-16575 6842,-23734 3893,-7151 9097,-13000 16247,-17240 7160,-3893 15939,-6177 27010,-6177l48771 0c15938,0 32195,328 48133,983 18213,636 36763,1301 55294,1628 18213,328 36435,-327 53983,-1628 14638,-655 29930,-1628 45869,-3248 15920,-1637 30567,0 43903,5204 7806,3884 13655,9097 17240,15592 3584,6851 5849,14001 6504,22116 637,7824 637,16275 0,24736 -655,8442 -982,16575 -982,24380 655,15621 327,31887 -328,48134 -973,15939 -2274,32523 -4230,48789 -2265,30557 -3903,61143 -4230,91719 -319,30249 -974,61134 -2265,92374 -1629,66656 -4231,133002 -7151,199040 -2929,66010 -6514,132365 -10089,199030 -1946,30576 -3903,60825 -5849,90746 -2293,29912 -4558,59851 -6823,90409 -1310,7805 -1975,14965 -1975,22115 0,6832 -327,13983 -964,21798 76661,70492 93703,-13562 96773,43267 1442,26617 -178,84100 -178,202914l0 56 0 3865 -458 0 -36622 0c-14320,-645 -27638,-4230 -39673,-10734 -12036,-6833 -22762,-15293 -32205,-26009 -9762,-10417 -17885,-22116 -24708,-35462 -7169,-13009 -12700,-26992 -17230,-41629 -2293,4230 -4558,7478 -6523,10089 -4540,6505 -8452,12354 -11381,17230 -3248,4886 -6505,9434 -9425,13337 -3257,3902 -6841,7805 -10407,12036 -3912,3902 -8788,7805 -14965,11708 -23098,15283 -42285,26673 -57240,34151 -15302,7478 -30567,12682 -46506,15611 -15938,2929 -34806,4221 -55948,3585 -21461,-656 -50081,-1966 -86179,-3913l-33178 0 -12681 0 -6514 0 -151224 -10734c-13992,645 -28620,645 -43586,0 -14955,-656 -28938,-3248 -41956,-7141 -13009,-3922 -24718,-9781 -35453,-17240 -11062,-7496 -19504,-18222 -26008,-32204 -2284,-6505 -5532,-13337 -8798,-20160 -3575,-6841 -6813,-13992 -10080,-21142 -5203,1291 -8760,1947 -11380,1947l-974 973c-8451,16912 -16912,34142 -25681,50736 -9125,16911 -21797,29602 -38063,38054 -17876,10089 -37409,14647 -58869,14647 -21133,-337 -40974,-665 -59515,-665 -26673,1301 -53346,1956 -80001,1956l-80994 0 -52354 0c-1956,-655 -3912,-964 -6187,-655 -2265,328 -4548,655 -7150,655l-32532 973 -18849 0 0 -327 -38391 0c-15284,-646 -27638,-4876 -36735,-12682 -9116,-7805 -16912,-17548 -22761,-29930 -6196,-12354 -10744,-26009 -13346,-40647 -2920,-14618 -6187,-28620 -9107,-42275 -655,-3257 -1310,-6177 -1946,-8788 -655,-2592 -983,-5522 -983,-8779 -8124,16276 -16275,33824 -23744,52692 -7478,18849 -17230,34788 -29266,47797 -10725,11718 -23089,19851 -37408,24727 -13973,4885 -28938,8123 -44549,9424 -15939,1311 -31877,1638 -47816,983 -15938,-646 -30576,-983 -43903,-983 -113470,1816 -716457,8573 -737955,-4866 -6514,-3913 -12363,-10090 -17249,-18223 -4539,-8123 -8769,-16911 -12344,-26336 -3585,-9434 -6842,-18868 -9434,-28302 -2602,-9425 -4876,-17558 -7497,-24727 -14291,-42920 -27310,-85195 -39009,-127152 -11399,-41957 -19850,-84887 -25054,-128791 -5194,-41956 -9434,-82940 -12672,-123268 -2939,-40328 -964,-81621 5859,-123587 3229,-21460 6495,-42921 10079,-64718 3566,-21460 7151,-43258 10389,-64709 1320,-7169 2293,-15629 3266,-25718 974,-10080 2920,-20160 5850,-29585 2929,-9433 7150,-17567 13009,-23734 5849,-6523 13664,-9116 23416,-8788 14647,645 30258,5522 46524,14319 15911,9088 30885,15602 44559,20150 17548,6177 34797,12354 51709,17558 17230,5531 33814,11390 50080,17557 14956,5213 28948,10090 42275,14320 13655,4558 27329,10080 41302,16266 8133,3248 15938,6514 23089,9425 7169,3257 13346,7169 17894,12045 4876,4876 7806,10725 9107,17567 1291,7141 327,15920 -2930,26645 -14955,45860 -30576,92065 -46832,138889 -15930,46505 -26992,93656 -32523,141481 -1956,18859 -3257,37736 -3903,56585 -655,18531 -1619,37727 -2929,56585 -1301,14647 1310,26028 7487,34479 6504,8124 14637,13973 24390,17558 9752,3584 21142,5203 33823,5203l34470 0c31241,0 62125,-1291 92365,-4221 30576,-2929 61788,-4220 93665,-4220 26028,645 52037,1946 78065,4539 26008,2611 52036,3902 78382,3902 9752,0 21142,0 34479,328 13009,328 25999,0 38372,-1619 12682,-1629 24072,-5204 34479,-10735 10398,-5204 17885,-14001 22115,-26018 2920,-7806 4867,-16603 5195,-27329 337,-10398 0,-20805 -974,-31222 -982,-10725 -2274,-21133 -4221,-31549 -1965,-10389 -2929,-20160 -3584,-28948 -4867,-52345 -10080,-103745 -15611,-154799 -5522,-51382 -9762,-103090 -13009,-156119 -646,-11381 -1947,-26018 -3585,-43567 -1937,-17904 -2265,-35471 -973,-52373 1301,-17239 4885,-32514 11381,-45860 6186,-13327 17567,-21151 33833,-23744 33505,-5849 67975,-7459 103418,-5194 35789,1947 69931,4876 102781,7787 10726,1320 21142,2939 31550,4567 10398,1629 21142,2930 31877,4221l-14320 197112c-3247,40637 -6832,81620 -10735,122931 -3575,41293 -6186,82276 -7478,122932 -645,19186 -645,37736 -327,56267 327,18550 327,36425 327,54320l0 9425c656,12035 4231,24071 11054,35779 6504,11699 18222,17558 34797,17558l38391 -936 0 -2967 18849 0 194482 13337 23762 0c13973,-655 28293,-964 42594,-1301 14319,-328 28301,-1956 42293,-4548 0,-328 -664,-983 -1965,-1638 -10071,-17886 -20160,-35443 -29921,-52683 -9752,-16911 -19495,-34469 -28938,-52364 -15939,-29266 -31887,-58223 -47498,-87170 -15264,-28929 -31531,-57877 -47797,-87152 -10407,-20824 -21142,-41629 -32532,-62453 -11371,-20487 -22115,-40637 -32504,-60497 -8788,-15274 -17576,-30558 -26028,-46169 -8788,-15620 -16593,-31877 -23416,-49116 -5204,-13337 -6823,-25363 -5204,-36098 1619,-10735 2920,-23080 4231,-37081 645,-8461 4866,-15283 13009,-20487 7796,-5522 17239,-9761 28620,-13000 11053,-3257 21788,-5531 32195,-7487 10407,-1956 18531,-3585 24390,-4885 14638,-3894 29593,-7151 44877,-10417l45550 -9415c33169,-7151 66347,-14966 100161,-23417 33506,-8788 67330,-13664 100826,-14965 15929,0 31867,1629 47806,4876 15939,3257 31549,6842 47488,11390 15939,4549 31877,9762 47816,15939 15938,5849 31212,11062 46496,15592 17894,4895 36762,9771 56921,14329 19842,4230 37727,12026 53665,22761 6505,3903 11381,9434 14947,16584 3266,7478 6186,15293 7824,23417 1937,8460 3566,16584 4530,25372 992,8451 1638,15929 2293,22453 -3257,2920 -6495,8123 -10080,15274 -3584,6822 -6514,14310 -9125,22115 -2265,8133 -4857,16266 -7141,24399 -1947,8124 -4240,14947 -6177,20160 -6177,18203 -12691,37071 -18858,55939 -6514,19186 -13347,37736 -21152,55303 -13982,35106 -28620,69266 -44231,102426 -15611,33505 -29921,67666 -43248,102454 -6505,15938 -12046,31877 -16585,48133 -4885,16267 -9115,32523 -13018,49117 1310,646 2939,973 4876,973l204571 0 6514 0 12681 0zm-1512662 415647c-618,-4268 -655,-5672 -393,-5026 -94,-7113 1890,-12962 5597,-17745 4557,-5522 10734,-10080 17885,-13655 7159,-3247 14965,-6177 23426,-7805 8451,-1938 15929,-3576 22761,-4876 17567,-3585 35125,-7151 52692,-9762 17239,-2929 34806,-5859 52354,-9097 10080,-1965 17558,-646 23089,3238 5213,4231 9116,9444 11708,16266 2293,6514 3903,13674 4231,21142 337,7478 1301,14638 2938,21788 1620,16922 4876,33834 10408,50736 5194,16921 8779,34488 10407,53019 636,10080 -664,18204 -4221,24053 -3257,6196 -8152,11063 -14319,14329 -6177,3575 -13337,5849 -21470,7150 -8133,1301 -16594,2284 -25700,2930 -17230,2601 -34778,6177 -52018,10407 -16921,4539 -34498,7805 -51728,9752 -14618,1629 -26009,318 -34478,-4539 -8452,-4558 -14947,-11727 -20160,-21161 -4876,-9743 -8133,-20478 -9752,-33169 -1629,-12344 -2265,-25044 -2265,-38372l0 -37071c0,-12373 -328,-23098 -992,-32532z"/>
   </g>
   <path class="fil0" d="M5029377 329103c-4596,-7310 -7085,-14965 -7918,-23735 -833,-8385 -412,-17511 1254,-27001 1657,-9115 2499,-18250 2499,-26645 412,-11680 823,-23005 823,-34675l0 -34292c0,-9500 -411,-19720 -1254,-31044 -411,-11671 1666,-21526 7506,-30277 3323,-5840 6252,-13505 7927,-22995 2069,-9846 4998,-19336 8321,-28835 2929,-9126 7506,-17146 13336,-24091 5840,-6925 14582,-9855 25831,-9125 10829,0 22079,0 33759,-365 12073,-365 24165,0 36238,739 12504,1086 23744,3276 34591,6196 10829,2920 19991,7310 28321,13870 9162,8030 15835,16426 20824,25906 5016,9125 8760,19355 11259,29931 2078,10959 4155,21535 5830,32485 1666,10585 3342,21170 4998,31025 4165,20076 9182,41611 15415,64241 6252,22612 7094,43782 3341,63867 -2499,11680 -6664,20066 -12504,25541 -5821,5110 -12504,9125 -20412,11315 -7515,1825 -16257,3285 -25008,3659 -9162,356 -18746,356 -28320,356 -9996,730 -21255,1825 -33758,3285 -12916,1460 -25401,2555 -38316,2920 -12514,374 -25429,374 -37923,374 -12907,0 -23744,-1834 -32926,-5475 -11240,-4389 -19148,-9855 -23734,-17155z"/>
   <path class="fil0" d="M3804965 340652c-4596,-7309 -7085,-14965 -7918,-23735 -833,-8385 -412,-17510 1254,-27001 1657,-9115 2499,-18250 2499,-26645 412,-11680 824,-23005 824,-34675l0 -34292c0,-9499 -412,-19720 -1255,-31044 -411,-11671 1666,-21526 7506,-30277 3323,-5840 6252,-13505 7928,-22995 2068,-9846 4997,-19336 8320,-28835 2929,-9125 7506,-17146 13337,-24091 5840,-6925 14581,-9855 25831,-9125 10828,0 22078,0 33758,-365 12073,-365 24165,0 36238,740 12504,1085 23744,3275 34591,6195 10829,2920 19991,7310 28321,13870 9163,8031 15836,16426 20824,25906 5016,9126 8760,19355 11259,29931 2078,10959 4155,21535 5831,32485 1666,10585 3341,21170 4997,31026 4165,20075 9182,41610 15415,64240 6252,22612 7094,43782 3341,63867 -2499,11680 -6664,20066 -12504,25541 -5821,5110 -12503,9125 -20412,11315 -7515,1825 -16257,3285 -25007,3659 -9163,356 -18747,356 -28321,356 -9995,730 -21254,1825 -33758,3285 -12916,1460 -25401,2555 -38316,2920 -12513,374 -25429,374 -37923,374 -12907,0 -23744,-1834 -32926,-5475 -11240,-4389 -19148,-9855 -23734,-17155z"/>
   <path class="fil1 str0" d="M2820117 915815l53647 53665 54151 -53665c1517,-6411 3164,-12701 5054,-18981 1853,-6598 4090,-13055 6720,-19523 5410,-14104 11222,-27946 17539,-41535 6336,-13449 12270,-27282 17932,-41526 3173,-7113 5934,-14638 8573,-22415 2508,-7656 5147,-15303 7656,-22678 777,-2115 1712,-4885 2499,-8179 926,-3295 1984,-6589 2901,-9893 1057,-3163 2237,-6196 3697,-8957 1450,-2901 2770,-5016 4080,-6195 -262,-2649 -524,-5681 -926,-9107 -384,-3556 -1048,-6860 -1844,-10285 -655,-3295 -1834,-6458 -3163,-9490 -1451,-2911 -3426,-5148 -6065,-6720 -6458,-4362 -13711,-7525 -21751,-9238 -8179,-1843 -15826,-3818 -23079,-5802 -6196,-1844 -12392,-3959 -18849,-6327 -6458,-2508 -12925,-4623 -19383,-6458 -6467,-1844 -12794,-3304 -19261,-4623 -6458,-1310 -12925,-1975 -19373,-1975 -13580,524 -27291,2508 -40881,6065 -13711,3425 -27160,6598 -40609,9499l-18465 3819c-6205,1319 -12261,2639 -18194,4221 -2378,524 -5672,1188 -9884,1974 -4221,796 -8572,1713 -13055,3033 -4615,1319 -8442,3041 -11596,5278 -3314,2106 -5026,4876 -5288,8302 -524,5681 -1058,10688 -1713,15040 -655,4342 0,9228 2115,14619 2761,7000 5924,13589 9490,19925 3416,6336 6992,12523 10548,18718 4212,8049 8573,16210 13178,24531 4623,8432 8975,16874 13196,25316 6589,11867 13187,23603 19373,35330 6327,11737 12794,23482 19261,35340 3828,7254 7768,14376 11727,21227 3276,5802 6654,11689 10042,17670zm4214229 203981l44549 0c9434,0 22771,-646 39692,-1956 16565,-1301 33814,-3575 51381,-6495 17240,-3257 33506,-7824 48452,-13346 14965,-5859 25382,-12682 30913,-21124 -16275,-9452 -33178,-18877 -49771,-28620 -16912,-9453 -33824,-18877 -51064,-28620 -15938,-8788 -29593,-18559 -40655,-28957 -11053,-10398 -19196,-25372 -24072,-44222 -3248,-14637 -3248,-30267 328,-46842 3584,-16594 7169,-32204 11062,-47479 3575,-16584 8788,-32850 15283,-48788 6177,-15602 12364,-31868 17886,-48452 5203,-15303 7496,-31241 7169,-47816 -347,-16266 3247,-31868 10070,-46515 6832,-14628 16912,-28292 29593,-40964 12701,-12701 26346,-24390 40993,-35462 -13346,-5531 -27001,-11053 -40993,-16584 -13982,-5213 -24717,-14310 -32513,-27001 -4885,-7787 -8461,-15284 -9762,-22434 -1628,-7487 -2274,-14965 -1628,-22443 655,-7469 1947,-14965 4240,-22443 2265,-7150 4221,-14965 6177,-23417 3238,-15620 8123,-31231 14310,-46496l21133 -43922c6177,-15283 12354,-30239 17894,-45195 5840,-14974 10726,-30248 14310,-46187 1937,-7160 4539,-13992 8124,-20496 3594,-6823 7796,-12354 13009,-16594 4876,-4548 10725,-7468 17230,-8769 6186,-1320 13664,327 21797,4876 7488,4548 14320,9743 19842,16266 5849,6158 12045,12017 19186,16902 27965,24399 56585,47161 85860,69286 28948,21778 57905,43894 86525,66009 29266,22453 58522,43267 87807,63099 29275,19523 60169,37727 93338,54320 66674,30558 133021,60816 199049,91055 66010,29930 132693,60179 200013,89772l-65691 326857c-5522,31877 -10735,63427 -15293,95304 -4230,31540 -10735,63744 -18868,96922 -3893,14301 -7478,29912 -10398,46824 -3257,16912 -7815,31549 -13992,44558 -5859,12673 -14628,22434 -26018,29266 -11699,6505 -26992,7151 -46833,1947 -31868,-8779 -63090,-17885 -94312,-27310 -31231,-9434 -62443,-18540 -94320,-27328 -32533,-8461 -64718,-17876 -97251,-27965 -32513,-10408 -63407,-24381 -93347,-41957 -11381,-8779 -22762,-15602 -34470,-20815 -2265,1301 -6832,3257 -13009,5859 -14637,7806 -29256,16266 -43585,24708 -14291,8461 -28620,17567 -43239,26683 -23426,15283 -45214,27001 -65383,35770 -19841,8461 -40974,15939 -63417,22443 -22115,6823 -47488,12673 -75780,18531 -27975,5522 -61798,12364 -101481,20169l-10070 0 -6832 0 -35771 0c-25045,-1301 -46187,-10089 -63426,-26355 -16903,-15920 -30577,-35443 -40974,-57558 -1320,3257 -2939,6177 -4558,8788 -1956,2602 -3576,5540 -4876,8769 -8789,15939 -20824,29612 -36445,41321 -15592,11708 -31531,18212 -47797,20159 -7478,1292 -14647,1292 -21797,0 -6823,-1301 -13973,-1947 -21470,-1947 -8769,646 -17230,1292 -25353,1947 -8143,646 -16594,1292 -25382,1947 -10716,1301 -22097,2929 -33815,4876 -11717,1965 -23098,1310 -33833,-1947l-1937 0 -37296 2143 0 -2143 -56052 0c-24717,0 -46842,328 -66009,1292 -19205,982 -38064,1965 -56922,2929 -18877,983 -37736,1629 -56604,1956 -18868,328 -39664,328 -62434,-327 -11709,-646 -24081,-1938 -36763,-3576 -12354,-1619 -24053,-4876 -34469,-9752 -7151,-3584 -10417,-8779 -10417,-15283l0 -21142c655,-17567 1628,-35771 2620,-54302 1292,-18877 2593,-37417 3884,-56603 3267,-49117 4240,-98879 3267,-148641 -983,-50081 -3267,-99834 -6832,-150251 -2284,-60170 -4240,-120002 -5850,-179208 -1628,-58850 -2939,-118711 -4239,-178880 -964,-53338 -1610,-106011 -2602,-158384 -974,-52037 -1292,-104719 -1292,-158056 0,-13346 964,-26674 2602,-39683 1619,-13018 4876,-25045 9743,-36425 4885,-11709 11708,-21152 20496,-28621 8788,-7805 20169,-12690 34152,-15292 15938,-3248 32532,-4221 49434,-3248 16921,983 33506,1301 49444,1301 21461,0 43249,0 65692,-318 22115,-328 42930,3238 62444,10725 5858,1947 9424,5532 11380,10408 1956,5213 2939,10744 3257,16912 328,5858 0,12363 -973,18858 -983,6832 -1310,12045 -1310,15939l0 43575c0,14647 327,29285 982,43913 1301,60488 -982,120349 -6841,180172 -5850,59533 -9743,119693 -11708,180181 -6823,156129 -7797,312229 -2911,467693 0,9433 3238,17894 9743,25372 6514,7150 14965,13318 25045,17885 9770,4876 20159,8133 30903,10080 10408,1947 20487,2611 29285,1947l11380 5447 20357 -2153c5521,-2592 14665,-6233 20852,-5250 6504,964 8544,-15930 15695,-14638 6832,1320 13336,1638 19513,1320 5859,-328 11063,-2930 15611,-8143 6505,-6823 10417,-14946 12354,-24062 1966,-9443 2602,-18859 2293,-29266 -327,-10089 -992,-20178 -2620,-29921 -1610,-9761 -2901,-18868 -3557,-26991 -1637,-13347 -3912,-26674 -6195,-40001 -1938,-13346 -3894,-26683 -5195,-40010 -2929,-34479 -5521,-68621 -7487,-102445 -1947,-34151 -7478,-67975 -16266,-101471 -4539,-15939 -7796,-32214 -10389,-48789 -2620,-16594 -4557,-33178 -5868,-50408 -1301,-13346 -3247,-27656 -6504,-42940 -3257,-15292 -3257,-29602 0,-42930 3257,-17557 11708,-30576 25690,-38054 13992,-7478 29285,-10735 45542,-9434 15938,1320 31877,655 48124,-1619 16266,-2274 32532,-3903 48789,-5213 12036,-1301 26346,-3247 43585,-6177 16903,-2910 33178,-3912 48780,-3238 15611,636 28957,4857 40338,12354 10865,7366 16406,21030 16584,40983l0 -9 0 9 0 964 337 12691 0 -2602 0 2602c908,28527 3023,56698 5840,83905 3575,31549 3903,63754 655,96913 -2602,29612 -3257,59205 -1956,88462 1301,29285 2611,58869 3912,88481 636,17876 309,35115 -655,51709 -973,16266 -1956,32850 -3257,49444 -1301,17230 -1629,34469 -1301,51381 328,17230 -1301,34142 -4240,50736l-2910 11380c12672,6168 26009,9425 39682,9425l37072 0 6832 0zm239368 -244244c-2612,12681 -4558,24380 -5522,35106 -1301,10744 1291,21470 8442,32541 7496,12682 18222,21798 31549,26992 13337,5531 26674,10417 40010,14965 14956,5522 30239,11044 45205,15920 14965,5213 29921,10417 45204,15302l20815 -9453c7159,-3228 12681,-7150 17239,-11371 13983,-10398 24062,-23098 29921,-38690 6177,-15621 9752,-31877 10744,-49117 964,-17239 637,-34479 -992,-52355 -1609,-17903 -2929,-33833 -3575,-48480 -646,-7786 -1947,-13645 -4230,-17875 -2274,-3903 -3884,-9434 -5204,-16594 -1301,-7459 -3238,-14956 -6177,-22434 -2920,-7150 -7150,-13337 -12691,-18531 -5840,-6186 -12990,-10089 -21142,-11381 -8114,-1319 -16902,-1319 -26009,-327 -9434,655 -18531,2265 -27647,4539 -9424,2274 -17885,3903 -25353,5204 -8143,1310 -16276,2602 -24409,3902 -7805,1301 -15611,2930 -22761,5213 -7469,2265 -14301,5522 -21142,10090 -6505,4548 -12354,10407 -17558,18203 -8779,14965 -14628,32841 -16921,53328 -2593,20169 -5204,38700 -7796,55303zm325892 187004c19832,7150 39346,13664 59178,20169 19514,6177 37408,12354 53337,17876 15939,5858 28630,10744 38382,14974 10089,3893 14956,6823 14956,8124 4885,-31232 12691,-61798 22780,-92038 10080,-30257 19832,-60506 28620,-91063 1937,-7478 4548,-14638 8114,-20815 3594,-6505 6524,-12682 9434,-19196 2939,-6177 4886,-12690 5859,-19504 973,-6523 0,-13982 -2592,-22462 -2939,-8760 -7497,-16575 -13665,-22761 -6186,-6495 -13009,-11708 -20487,-16247 -7487,-4568 -15938,-8133 -24726,-11400 -9098,-3238 -17231,-6495 -24708,-9415 -13337,-5849 -26674,-11381 -39683,-16912 -13009,-5203 -26355,-10407 -40328,-15611 645,1938 973,4231 1301,6823 327,2265 645,4885 1301,7478 2601,16584 2601,33178 0,50080 -2275,16922 -6187,33506 -11381,50427 -4886,16903 -10744,33496 -17567,49435 -6832,16257 -12682,32523 -17567,48124 -4558,13337 -9097,26992 -13973,40993 -4558,13973 -10089,28293 -16585,42921zm-644934 -530136l0 -3894 0 -973 0 -983m-1575537 610784l36519 0c26018,0 46187,-5850 60497,-17886 14310,-12026 20487,-31221 17886,-57567 -2275,-26337 -4886,-52037 -7151,-77400 -2602,-25045 -5213,-51072 -8123,-78055 -4558,-43257 -8789,-86833 -13028,-130756 -4231,-43575 -6823,-87806 -8124,-132365 -646,-14638 -1965,-31213 -3903,-49753 -1956,-18222 -327,-34797 4886,-49772 2265,-8442 6495,-14628 12354,-19186 5849,-4548 12026,-7787 19195,-10089 6823,-2265 14301,-3238 22106,-3238l22116 0c16912,1301 33814,3238 50735,6177 16585,2920 33497,4240 50418,4240 16902,0 33487,-665 49425,-1966 16266,-1301 31877,-2274 46842,-2911 5850,-664 8133,-664 6823,-336 -533,177 -1394,262 -2527,308 10623,384 18288,5625 23024,15967 5194,11371 8123,24380 9115,39664 964,14965 1292,30576 637,45859 -637,15611 -964,27310 -964,35780 -665,17876 -1310,36416 -1966,55612 -655,18858 -1301,38054 -1956,57568 -1609,39991 -3247,80001 -4548,120320 -1610,40338 -3566,80348 -6505,120348 -3257,43567 -6495,86188 -9752,127162 -2920,40984 -5859,82613 -8779,124897 -327,10408 -1965,20169 -4558,29912 -2265,9434 -5849,17576 -10725,25054 -4886,7151 -11718,13009 -20824,17240 -9106,4548 -20487,6495 -34470,6495 -18868,0 -37071,973 -54638,3266 -17576,2265 -36107,2920 -54966,2265 -17567,0 -34151,0 -49444,-327 -15611,-319 -36089,-319 -61470,327l-64157 0 -1525 0 -48144 0c-14965,-646 -28620,-4558 -40655,-11717 -12027,-7460 -22762,-16903 -32523,-28284 -9425,-11708 -17567,-24717 -24063,-39036 -6513,-14638 -12035,-28948 -16256,-43586 -7160,6514 -13983,13674 -20834,20824 -6822,7151 -12999,14320 -18849,21798 -12681,13645 -25363,28620 -37726,44886 -35041,44886 -459185,48237 -543146,37389 -12354,-1619 -24062,-4876 -34478,-9752 -7151,-3584 -10408,-8779 -10408,-15283l0 -21142c655,-17567 1629,-35771 2602,-54302 1301,-18877 2593,-37417 3912,-56603 3248,-49117 4221,-98879 3248,-148641 -974,-50081 -3248,-99834 -6832,-150251 -2275,-60170 -4221,-120002 -5850,-179208 -1638,-58850 -2929,-118711 -4230,-178880 -973,-53338 -1619,-106011 -2611,-158384 -964,-52037 -1292,-104719 -1292,-158056 0,-13346 964,-26674 2611,-39683 1610,-13018 4876,-25045 9743,-36425 4876,-11709 11708,-21152 20497,-28621 8788,-7805 20168,-12690 34142,-15292 15938,-3248 32532,-4221 49444,-3248 16911,983 33496,1301 49434,1301 21461,0 43258,0 65692,-318 22115,-328 42930,3238 62453,10725 5849,1947 9425,5532 11381,10408 1946,5213 2929,10744 3247,16912 328,5858 0,12363 -973,18858 -974,6832 -1301,12045 -1301,15939l0 43575c0,14647 327,29285 973,43913 1301,60488 -973,120349 -6832,180172 -5859,59533 -9752,119693 -11708,180181 -6832,156129 -7796,312229 -2920,467693 0,9433 3247,17894 9743,25372 6523,7150 14965,13318 25054,17885 9762,4876 20159,8133 30894,10080 10398,1947 20487,2611 29276,1947l655 -47 56267 -17511c13973,-5531 25363,-13337 33505,-23416 8442,-10090 11690,-23417 9743,-40329 -1301,-32195 -1947,-63744 -2274,-94966 -328,-31222 -1947,-62772 -4568,-93984 -2901,-31877 -4202,-64410 -4539,-97260 -327,-32841 -3247,-65682 -9434,-98860 -2929,-10744 -7487,-25045 -13336,-43267 -5859,-18213 -8461,-35452 -7806,-52364 646,-16575 4230,-30558 11063,-42584 6822,-12054 19513,-17913 38699,-17913 9444,1310 15621,1974 18213,1974l440 0c-1647,-131 -4024,-449 -7581,-982 -1900,-300 -3669,-524 -5325,-693 55059,2565 110680,5681 166301,9144 14320,646 28948,1301 43904,1301 14965,328 28620,2274 40328,5849 11708,3257 21152,9762 28302,19196 7160,9424 10089,23089 8788,41302 -2929,53992 -4885,107330 -5540,160658 -637,53019 -3575,106674 -8461,160676 -1628,15621 -2592,31541 -2592,48125 0,16593 -328,33178 -646,49444 -655,16257 -1629,32850 -3257,49435 -1619,16593 -5213,32185 -10080,47160 11708,8133 26075,7805 40319,12354l47722 15265 0 2293zm83034 361008c-665,-4867 -665,-6823 -328,-5522l253 973c-346,-7927 1441,-14301 5269,-19504 4549,-5868 10398,-10417 17240,-13674 7159,-2929 14637,-5522 22770,-7478 8461,-1619 15920,-3247 22443,-4548 17240,-3912 34142,-6842 51073,-9434 17230,-2611 34142,-5204 51044,-8461 9753,-1937 17240,-973 22453,2939 5203,3566 9097,8769 11380,15293 2265,6495 3894,13973 4221,21769 319,7815 1301,14974 2930,22125 1619,16902 4876,33814 10398,50735 5213,16912 8788,34142 10416,52037 1301,10089 328,18213 -2929,24072 -3575,6186 -8124,11062 -14310,14300 -5859,3594 -13009,6187 -21460,7160 -8461,1301 -16912,2602 -25700,3893 -17231,1975 -33824,5213 -50736,10089 -16584,4886 -33506,8133 -50408,10089 -13983,1957 -25363,328 -33506,-4876 -8123,-5213 -14619,-12363 -19513,-21460 -4876,-9125 -8133,-19851 -9434,-32542 -1610,-12344 -2265,-24708 -2265,-37389l0 -38054c0,-13009 -328,-23744 -1301,-32532zm-428122 -983210l-84 -9 -85 0m0 0l-84 -10 -75 0 -93 -18m0 0l-85 -10 -84 0 -93 -9 -75 -9 -94 -10 -75 -9 -75 0 -74 0c-1432,-103 -2799,-187 -4118,-215l-66 0 -66 0 -65 0 -66 0 -65 0 -75 0 -75 0 -75 0 75 0 75 0 75 0 65 0 66 0 65 0 66 0 66 0 4118 215 74 0 75 0 75 9 94 10 75 9m-1316206 829112l0 -224412 458 0 25635 0 2667 0 506 0 945 0 421 0 1301 0 2518 0 1141 0 13655 0 22434 6832c328,0 655,-327 655,-655 0,-328 0,-328 328,-328 5531,-3247 9424,-8123 11699,-14300 2620,-6177 3912,-13009 4557,-20506 656,-7787 656,-15611 0,-24053 -645,-8460 -973,-16594 -1300,-24062l-5532 -88144 -5522 -88471c-2452,-31073 -4024,-62173 -5278,-93544l-253 -6290 -18 -842 0 -19 -534 -16949 0 -19 -271 -8095 0 -29c-272,-7936 -571,-15863 -899,-23790l-131 -3070 0 -9 0 -29 -262 -6130 0 -18 -318 -7132 0 -19c-534,-11362 -1133,-22714 -1797,-34029 -655,-10417 -1947,-24390 -3912,-41630 -1937,-17239 -2593,-33814 -1937,-49753 645,-15938 2929,-29602 6822,-40983 3201,-10183 9285,-15695 18204,-16734l2424 -169 168 0 169 0 -169 0 -168 0 -2406 0m2743 0l505 0m-505 0l505 0 646 0 6233 543 9 0 3416 262 1563 122c18513,1338 40787,1984 66834,1984 31231,0 63417,-318 95621,-973 6833,0 14310,-328 22443,-1301 8442,-973 16594,-1301 24708,-973 7825,336 15611,1300 22771,3247 7160,1966 13019,4876 17885,9434 6514,5531 10726,12036 13346,19514 2275,7496 3566,15611 3566,23744 0,8133 -646,16257 -1619,24717 -1301,8451 -2265,16266 -2929,23089 -964,29275 -3248,57568 -6496,84559 -3256,27001 -7814,54330 -13673,82622 -6495,29276 -10726,58860 -12672,88771 -1629,29603 -4568,59206 -8461,88809 -4548,29911 -8779,59842 -13009,90081 -4230,29912 -8124,60497 -11390,91391 -1292,17886 -2911,35771 -4549,53319 -1937,17904 -7150,34498 -15611,49772 -9106,14319 -20814,27328 -35134,38381 -13973,11381 -28620,20497 -43566,27975 -15939,6495 -31550,11380 -46515,14310 -14956,2920 -31540,4876 -50417,6504 -2920,0 -5522,0 -7806,328 -2592,327 -5194,327 -8114,327l-22771 6823 -46711 0 -1582 0 -3453 0 -4352 0 -7001 0 -458 0m85345 -827381l655 0 -655 0zm-567535 602969l38054 0 4540 964 1974 0c7141,0 14619,664 23080,1965 8123,1301 16584,2602 25035,3576 8470,982 16594,1310 24081,655 7796,-328 14638,-1629 20806,-4231 7150,-3257 12035,-8788 14637,-16911 2284,-7815 3248,-16267 2920,-25701 -327,-9097 -964,-18212 -2265,-27637 -1291,-9106 -2283,-16603 -2611,-22115 -2602,-17240 -4221,-34479 -4221,-52046 -318,-17558 -1310,-34788 -2929,-52037 -2602,-29911 -5204,-59505 -7469,-89117 -2620,-29593 -5859,-59178 -9443,-89099 -3566,-32850 -7160,-65700 -10726,-98551 -3584,-32532 -5540,-65701 -5540,-99515 0,-33833 -2911,-67002 -8770,-100180 -5849,-32850 -10744,-66346 -14965,-99842 -4230,-29921 -8451,-59187 -12681,-88135 -3913,-28947 -8143,-58232 -12364,-88144 -636,-9115 -636,-17567 0,-26355 655,-8442 2920,-16575 6842,-23735 3893,-7150 9097,-12999 16247,-17239 7160,-3893 15939,-6177 27010,-6177l48771 0c15938,0 32195,328 48133,983 18213,636 36763,1301 55294,1628 18213,328 36435,-327 53983,-1628 14638,-655 29930,-1629 45869,-3248 15920,-1638 30567,0 43903,5204 7806,3884 13655,9097 17240,15592 3584,6851 5849,14001 6504,22116 637,7824 637,16275 0,24736 -655,8441 -982,16575 -982,24380 655,15620 327,31886 -328,48134 -973,15938 -2274,32523 -4230,48789 -2265,30557 -3903,61143 -4230,91719 -319,30248 -974,61133 -2265,92374 -1629,66655 -4231,133002 -7151,199040 -2929,66009 -6514,132365 -10089,199030 -1946,30576 -3903,60825 -5849,90746 -2293,29911 -4558,59851 -6823,90408 -1310,7806 -1975,14966 -1975,22116 0,6832 -327,13982 -964,21797 8133,7478 17567,13983 27965,18868 10417,5195 20824,7478 31550,6823l36622 0 458 0 0 220491 0 3921 -458 0 -36622 0c-14320,-646 -27638,-4230 -39673,-10735 -12036,-6832 -22762,-15292 -32205,-26009 -9762,-10416 -17885,-22115 -24708,-35461 -7169,-13009 -12700,-26992 -17230,-41629 -2293,4230 -4558,7478 -6523,10089 -4540,6504 -8452,12354 -11381,17230 -3248,4885 -6505,9434 -9425,13336 -3257,3903 -6841,7806 -10407,12036 -3912,3903 -8788,7806 -14965,11708 -23098,15284 -42285,26674 -57240,34152 -15302,7478 -30567,12681 -46506,15611 -15938,2929 -34806,4221 -55948,3584 -21461,-655 -50081,-1965 -86179,-3912l-33178 0 -12681 0 -6514 0 -151224 -10735c-13992,646 -28620,646 -43586,0 -14955,-655 -28938,-3247 -41956,-7141 -13009,-3921 -24718,-9780 -35453,-17239 -11062,-7497 -19504,-18222 -26008,-32205 -2284,-6504 -5532,-13336 -8798,-20159 -3575,-6842 -6813,-13992 -10080,-21142 -5203,1291 -8760,1946 -11380,1946l-974 974c-8451,16912 -16912,34142 -25681,50735 -9125,16912 -21797,29603 -38063,38054 -17876,10089 -37409,14647 -58869,14647 -21133,-337 -40974,-664 -59515,-664 -26673,1301 -53346,1956 -80001,1956l-80994 0 -52354 0c-1956,-655 -3912,-964 -6187,-655 -2265,327 -4548,655 -7150,655l-32532 973 -18849 0 0 -327 -38391 0c-15284,-646 -27638,-4876 -36735,-12682 -9116,-7805 -16912,-17548 -22761,-29930 -6196,-12354 -10744,-26009 -13346,-40647 -2920,-14619 -6187,-28620 -9107,-42275 -655,-3257 -1310,-6177 -1946,-8788 -655,-2592 -983,-5522 -983,-8779 -8124,16276 -16275,33824 -23744,52692 -7478,18849 -17230,34788 -29266,47797 -10725,11717 -23089,19850 -37408,24726 -136877,38990 -775129,19664 -853408,8452 -7038,-1011 -13655,655 -20815,-3894 -6514,-3912 -12363,-10089 -17249,-18222 -4539,-8124 -8769,-16912 -12344,-26336 -3585,-9434 -6842,-18868 -9434,-28302 -2602,-9425 -4876,-17558 -7497,-24727 -14291,-42921 -27310,-85196 -39009,-127152 -11399,-41957 -19850,-84887 -25054,-128791 -5194,-41957 -9434,-82940 -12672,-123268 -2939,-40329 -964,-81621 5859,-123587 3229,-21461 6495,-42921 10079,-64718 3566,-21461 7151,-43258 10389,-64709 1320,-7169 2293,-15630 3266,-25719 974,-10079 2920,-20159 5850,-29584 2929,-9434 7150,-17567 13009,-23734 5849,-6524 13664,-9116 23416,-8789 14647,646 30258,5522 46524,14320 15911,9087 30885,15601 44559,20150 17548,6177 34797,12354 51709,17558 17230,5531 33814,11390 50080,17557 14956,5213 28948,10089 42275,14320 13655,4557 27329,10079 41302,16266 8133,3247 15938,6514 23089,9424 7169,3257 13346,7169 17894,12045 4876,4877 7806,10726 9107,17567 1291,7141 327,15920 -2930,26646 -14955,45859 -30576,92065 -46832,138889 -15930,46505 -26992,93656 -32523,141481 -1956,18858 -3257,37736 -3903,56585 -655,18531 -1619,37726 -2929,56585 -1301,14647 1310,26028 7487,34479 6504,8124 14637,13973 24390,17558 9752,3584 21142,5203 33823,5203l34470 0c31241,0 62125,-1291 92365,-4221 30576,-2929 61788,-4221 93665,-4221 26028,646 52037,1947 78065,4539 26008,2612 52036,3903 78382,3903 9752,0 21142,0 34479,328 13009,327 25999,0 38372,-1619 12682,-1629 24072,-5204 34479,-10735 10398,-5204 17885,-14001 22115,-26019 2920,-7805 4867,-16603 5195,-27328 337,-10398 0,-20805 -974,-31222 -982,-10725 -2274,-21133 -4221,-31549 -1965,-10389 -2929,-20160 -3584,-28948 -4867,-52345 -10080,-103746 -15611,-154799 -5522,-51382 -9762,-103091 -13009,-156119 -646,-11381 -1947,-26019 -3585,-43567 -1937,-17904 -2265,-35471 -973,-52373 1301,-17240 4885,-32514 11381,-45860 6186,-13327 17567,-21151 33833,-23744 33505,-5849 67975,-7459 103418,-5194 35789,1947 69931,4876 102781,7787 10726,1319 21142,2938 31550,4567 10398,1628 21142,2929 31877,4221l-14320 197112c-3247,40637 -6832,81620 -10735,122931 -3575,41292 -6186,82276 -7478,122932 -645,19186 -645,37736 -327,56267 327,18549 327,36425 327,54320l0 9424c656,12036 4231,24072 11054,35780 6504,11699 18222,17558 34797,17558l38391 -936 0 -2967 18849 0 194482 13337 23762 0c13973,-655 28293,-964 42594,-1301 14319,-328 28301,-1956 42293,-4549 0,-327 -664,-982 -1965,-1638 -10071,-17885 -20160,-35442 -29921,-52682 -9752,-16912 -19495,-34469 -28938,-52364 -15939,-29266 -31887,-58223 -47498,-87170 -15264,-28929 -31531,-57877 -47797,-87152 -10407,-20824 -21142,-41630 -32532,-62453 -11371,-20488 -22115,-40638 -32504,-60498 -8788,-15274 -17576,-30557 -26028,-46168 -8788,-15620 -16593,-31877 -23416,-49116 -5204,-13337 -6823,-25364 -5204,-36098 1619,-10735 2920,-23080 4231,-37081 645,-8461 4866,-15284 13009,-20487 7796,-5522 17239,-9762 28620,-13000 11053,-3257 21788,-5531 32195,-7487 10407,-1956 18531,-3585 24390,-4886 14638,-3893 29593,-7150 44877,-10416l45550 -9416c33169,-7150 66347,-14965 100161,-23416 33506,-8788 67330,-13664 100826,-14965 15929,0 31867,1628 47806,4876 15939,3257 31549,6841 47488,11390 15939,4548 31877,9761 47816,15938 15938,5850 31212,11063 46496,15593 17894,4894 36762,9771 56921,14328 19842,4231 37727,12027 53665,22762 6505,3902 11381,9434 14947,16584 3266,7478 6186,15293 7824,23416 1937,8461 3566,16585 4530,25373 992,8451 1638,15929 2293,22452 -3257,2920 -6495,8124 -10080,15274 -3584,6823 -6514,14310 -9125,22116 -2265,8133 -4857,16266 -7141,24399 -1947,8124 -4240,14947 -6177,20160 -6177,18203 -12691,37071 -18858,55939 -6514,19186 -13347,37736 -21152,55303 -13982,35106 -28620,69266 -44231,102425 -15611,33506 -29921,67667 -43248,102454 -6505,15939 -12046,31877 -16585,48134 -4885,16266 -9115,32523 -13018,49117 1310,645 2939,973 4876,973l204571 0 6514 0 12681 0zm-1512662 415646c-618,-4267 -655,-5671 -393,-5025 -94,-7113 1890,-12963 5597,-17745 4557,-5522 10734,-10080 17885,-13655 7159,-3248 14965,-6177 23426,-7806 8451,-1937 15929,-3575 22761,-4876 17567,-3584 35125,-7150 52692,-9761 16986,-2883 62256,-15125 75443,-5859 5213,4230 9116,9443 11708,16266 2293,6514 3903,13674 4231,21142 337,7478 1301,14638 2938,21788 1620,16921 4876,33833 10408,50736 5194,16921 8779,34488 10407,53019 636,10080 -664,18203 -4221,24053 -3257,6196 -8152,11062 -14319,14329 -6177,3575 -13337,5849 -21470,7150 -8133,1301 -16594,2284 -25700,2929 -17230,2602 -34778,6177 -52018,10408 -16921,4539 -34498,7805 -51728,9752 -14618,1628 -26009,318 -34478,-4539 -8452,-4558 -14947,-11727 -20160,-21161 -4876,-9743 -8133,-20478 -9752,-33169 -1629,-12344 -2265,-25045 -2265,-38372l0 -37071c0,-12373 -328,-23099 -992,-32533z"/>
   <path class="fil2 str0" d="M5029377 293445c-4596,-7310 -7085,-14965 -7918,-23735 -833,-8386 -412,-17511 1254,-27001 1657,-9116 2499,-18250 2499,-26645 412,-11680 823,-23005 823,-34676l0 -34291c0,-9500 -411,-19720 -1254,-31044 -411,-11671 1666,-21526 7506,-30277 3323,-5840 6252,-13505 7927,-22995 2069,-9846 4998,-19336 8321,-28836 2929,-9125 7506,-17145 13336,-24090 5840,-6926 14582,-9855 25831,-9125 10829,0 22079,0 33759,-365 12073,-365 24165,0 36238,739 12504,1086 23744,3276 34591,6196 10829,2920 19991,7310 28321,13870 9162,8030 15835,16425 20824,25906 5016,9125 8760,19355 11259,29931 2078,10959 4155,21535 5830,32485 1666,10585 3342,21170 4998,31025 4165,20076 9182,41611 15415,64241 6252,22612 7094,43782 3341,63867 -2499,11680 -6664,20065 -12504,25540 -5821,5111 -12504,9126 -20412,11316 -7515,1825 -16257,3285 -25008,3659 -9162,356 -18746,356 -28320,356 -9996,730 -21255,1825 -33758,3285 -12916,1460 -25401,2555 -38316,2920 -12514,374 -25429,374 -37923,374 -12907,0 -23744,-1834 -32926,-5475 -11240,-4389 -19148,-9855 -23734,-17155z"/>
   <path class="fil3 str0" d="M3804965 304994c-4596,-7310 -7085,-14965 -7918,-23735 -833,-8385 -412,-17511 1254,-27001 1657,-9115 2499,-18250 2499,-26645 412,-11680 824,-23005 824,-34675l0 -34292c0,-9500 -412,-19720 -1255,-31044 -411,-11671 1666,-21526 7506,-30277 3323,-5840 6252,-13505 7928,-22995 2068,-9846 4997,-19336 8320,-28835 2929,-9126 7506,-17146 13337,-24091 5840,-6925 14581,-9855 25831,-9125 10828,0 22078,0 33758,-365 12073,-365 24165,0 36238,739 12504,1086 23744,3276 34591,6196 10829,2920 19991,7310 28321,13870 9163,8030 15836,16426 20824,25906 5016,9125 8760,19355 11259,29931 2078,10959 4155,21535 5831,32485 1666,10585 3341,21170 4997,31025 4165,20076 9182,41611 15415,64241 6252,22612 7094,43782 3341,63867 -2499,11680 -6664,20065 -12504,25541 -5821,5110 -12503,9125 -20412,11315 -7515,1825 -16257,3285 -25007,3659 -9163,356 -18747,356 -28321,356 -9995,730 -21254,1825 -33758,3285 -12916,1460 -25401,2555 -38316,2920 -12513,374 -25429,374 -37923,374 -12907,0 -23744,-1834 -32926,-5475 -11240,-4389 -19148,-9855 -23734,-17155z"/>
   <path class="fil0" d="M6906585 1594966c-618,-4268 -655,-5671 -393,-5026 -94,-7113 1890,-12962 5596,-17744 4558,-5522 10735,-10080 17886,-13655 7159,-3248 14965,-6177 23425,-7806 8452,-1937 15930,-3575 22762,-4876 17567,-3584 35124,-7150 52691,-9761 17240,-2930 34807,-5859 52355,-9098 10080,-1965 17558,-645 23089,3239 5213,4230 9116,9443 11708,16266 2293,6514 3903,13673 4231,21142 336,7478 1300,14638 2938,21788 1619,16921 4876,33833 10408,50736 5194,16921 8778,34488 10407,53019 636,10080 -665,18203 -4221,24053 -3257,6195 -8152,11062 -14319,14328 -6177,3576 -13337,5850 -21470,7151 -8133,1301 -16594,2283 -25700,2929 -17230,2602 -34779,6177 -52018,10407 -16921,4540 -34498,7806 -51728,9753 -14619,1628 -26009,318 -34479,-4540 -8451,-4557 -14946,-11726 -20159,-21160 -4876,-9743 -8133,-20478 -9752,-33169 -1629,-12345 -2265,-25045 -2265,-38372l0 -37072c0,-12372 -328,-23098 -992,-32532z"/>
   <path class="fil4 str0" d="M6906585 1535442c-618,-4267 -655,-5671 -393,-5025 -94,-7113 1890,-12963 5596,-17745 4558,-5522 10735,-10080 17886,-13655 7159,-3248 14965,-6177 23425,-7806 8452,-1937 15930,-3575 22762,-4876 17567,-3584 35124,-7150 52691,-9761 17240,-2930 34807,-5859 52355,-9097 10080,-1966 17558,-646 23089,3238 5213,4230 9116,9443 11708,16266 2293,6514 3903,13674 4231,21142 336,7478 1300,14638 2938,21788 1619,16921 4876,33833 10408,50736 5194,16921 8778,34488 10407,53019 636,10080 -665,18203 -4221,24053 -3257,6196 -8152,11062 -14319,14329 -6177,3575 -13337,5849 -21470,7150 -8133,1301 -16594,2284 -25700,2929 -17230,2602 -34779,6177 -52018,10408 -16921,4539 -34498,7805 -51728,9752 -14619,1628 -26009,318 -34479,-4539 -8451,-4558 -14946,-11727 -20159,-21161 -4876,-9743 -8133,-20478 -9752,-33169 -1629,-12344 -2265,-25045 -2265,-38372l0 -37071c0,-12373 -328,-23099 -992,-32533z"/>
   <path class="fil0" d="M6663922 1594966c-617,-4268 -655,-5671 -393,-5026 -93,-7113 1891,-12962 5597,-17744 4558,-5522 10735,-10080 17885,-13655 7160,-3248 14965,-6177 23426,-7806 8451,-1937 15929,-3575 22761,-4876 17567,-3584 35125,-7150 52692,-9761 17239,-2930 34806,-5859 52355,-9098 10079,-1965 17557,-645 23089,3239 5213,4230 9115,9443 11708,16266 2293,6514 3903,13673 4230,21142 337,7478 1301,14638 2939,21788 1619,16921 4876,33833 10407,50736 5194,16921 8779,34488 10407,53019 637,10080 -664,18203 -4220,24053 -3257,6195 -8152,11062 -14320,14328 -6177,3576 -13337,5850 -21470,7151 -8133,1301 -16593,2283 -25700,2929 -17230,2602 -34778,6177 -52017,10407 -16922,4540 -34498,7806 -51728,9753 -14619,1628 -26009,318 -34479,-4540 -8451,-4557 -14946,-11726 -20159,-21160 -4877,-9743 -8134,-20478 -9753,-33169 -1628,-12345 -2265,-25045 -2265,-38372l0 -37072c0,-12372 -327,-23098 -992,-32532z"/>
   <path class="fil5 str0" d="M6663922 1535442c-617,-4267 -655,-5671 -393,-5025 -93,-7113 1891,-12963 5597,-17745 4558,-5522 10735,-10080 17885,-13655 7160,-3248 14965,-6177 23426,-7806 8451,-1937 15929,-3575 22761,-4876 17567,-3584 35125,-7150 52692,-9761 17239,-2930 34806,-5859 52355,-9097 10079,-1966 17557,-646 23089,3238 5213,4230 9115,9443 11708,16266 2293,6514 3903,13674 4230,21142 337,7478 1301,14638 2939,21788 1619,16921 4876,33833 10407,50736 5194,16921 8779,34488 10407,53019 637,10080 -664,18203 -4220,24053 -3257,6196 -8152,11062 -14320,14329 -6177,3575 -13337,5849 -21470,7150 -8133,1301 -16593,2284 -25700,2929 -17230,2602 -34778,6177 -52017,10408 -16922,4539 -34498,7805 -51728,9752 -14619,1628 -26009,318 -34479,-4539 -8451,-4558 -14946,-11727 -20159,-21161 -4877,-9743 -8134,-20478 -9753,-33169 -1628,-12344 -2265,-25045 -2265,-38372l0 -37071c0,-12373 -327,-23099 -992,-32533z"/>
   <rect class="fil6" x="3648640" y="1138720" width="161491" height="187444" rx="158477" ry="158477"/>
   <circle class="fil0" cx="942249" cy="1258361" r="162180"/>
   <circle class="fil7 str0" cx="942249" cy="1192481" r="162180"/>
   <circle class="fil0" cx="496235" cy="1288769" r="131772"/>
   <circle class="fil8 str0" cx="496235" cy="1222889" r="131772"/>
   <circle class="fil0" cx="136381" cy="1303973" r="116568"/>
   <circle class="fil9 str0" cx="136381" cy="1238093" r="116568"/>
  </g>
 </g>
</svg>
