<?xml version="1.0" encoding="UTF-8"?>
<!DOCTYPE svg PUBLIC "-//W3C//DTD SVG 1.1//EN" "http://www.w3.org/Graphics/SVG/1.1/DTD/svg11.dtd">
<!-- Creator: CorelDRAW X7 -->
<svg xmlns="http://www.w3.org/2000/svg" xml:space="preserve" width="24.0284mm" height="8.8872mm" version="1.1" style="shape-rendering:geometricPrecision; text-rendering:geometricPrecision; image-rendering:optimizeQuality; fill-rule:evenodd; clip-rule:evenodd"
viewBox="0 0 701406 259424"
 xmlns:xlink="http://www.w3.org/1999/xlink">
 <defs>
  <style type="text/css">
   <![CDATA[
    .str0 {stroke:white;stroke-width:24712.9;stroke-linecap:round;stroke-linejoin:round}
    .fil0 {fill:none}
    .fil1 {fill:red}
   ]]>
  </style>
 </defs>
 <g id="Layer_x0020_1">
  <metadata id="CorelCorpID_0Corel-Layer"/>
  <g>
   <path class="fil0 str0" d="M160257 109153c-2685,4300 -4075,12765 -4075,25352l537 51060c0,19304 -8824,28978 -26517,28978l-70452 0c-21230,0 -36281,-3091 -45149,-9318 -8912,-6314 -13617,-17286 -14154,-32918 -447,-13124 2329,-24815 8287,-35070 6001,-10123 13034,-15185 21096,-15185 5599,0 10258,4256 13930,12856 -5330,2239 -9093,6717 -11288,13390 -2105,6451 -2239,13439 -403,20961 1477,5958 4434,10214 8778,12722 4212,2554 10526,3806 18903,3806l52763 0c3940,0 6673,-1252 8240,-3806 1612,-2420 2373,-6539 2373,-12319 0,-2104 -224,-11151 -627,-27141l-672 -24678c0,-5018 1434,-8915 4344,-11825 2869,-2776 6854,-4210 11916,-4210 8599,0 15990,2461 22170,7345zm-80038 120082c4300,0 7838,1299 10614,3940 2732,2642 4075,5912 4075,9855 0,4612 -1655,8509 -4971,11644 -3314,3179 -7389,4750 -12228,4750 -4166,0 -7570,-1255 -10211,-3810 -2642,-2551 -3941,-5867 -3941,-9986 0,-4524 1611,-8377 4881,-11513 3225,-3269 7166,-4880 11781,-4880zm125322 -14692c-17646,0 -26471,-9674 -26471,-28978 0,-29427 0,-54554 91,-75472l-628 -61272c0,-4927 1434,-8824 4300,-11690 2910,-2867 6851,-4344 11825,-4344 8600,0 15988,2464 22171,7344 -2598,4300 -3941,12809 -3941,25487l-225 104450c0,5777 762,9899 2330,12316 1567,2554 4343,3806 8284,3806l20693 0 7794 0 52716 0 -9718 -29515c-3853,-11734 -7347,-19169 -10482,-22304 268,-9452 2373,-16038 6270,-19797 9137,-9140 22754,-13662 40984,-13662 19125,0 34488,4747 46042,14286 11466,9543 17199,22083 17199,37671 0,12091 -3625,23201 -10882,33321l31307 0 5286 0 16525 0c3941,0 6673,-1252 8241,-3806 1567,-2417 2376,-6539 2376,-12316l-674 -61811c-313,-33324 -491,-53122 -491,-59301 0,-4837 1434,-8690 4300,-11557 2910,-2910 6851,-4343 11822,-4343 8647,0 16038,2417 22174,7210 -2598,4299 -3944,12765 -3944,25486l406 119679c0,19392 -8825,29112 -26517,29112l-34218 0 -5286 0 -163436 0 -7794 0 -38429 0zm109958 -82146c5686,8153 12272,25890 19707,53256 6720,-1655 12094,-5015 16125,-10077 4031,-5061 6045,-11107 6045,-18095 0,-8153 -2551,-14826 -7613,-19975 -5105,-5062 -11647,-7616 -19706,-7616 -5421,0 -10258,718 -14558,2105l0 402zm213197 -88325c-1836,-268 -3359,-1118 -4568,-2598 -1165,-1343 -1702,-2820 -1702,-4478 0,-2463 850,-4793 2598,-7076 1165,1118 2464,1702 3941,1702l7616 0c-2689,-3584 -4078,-7703 -4078,-12318 0,-5777 2151,-10480 6451,-14064 4300,-3494 9942,-5240 17065,-5240 6629,0 11691,1658 15229,4971 1880,1927 2685,4659 2329,8153 -359,3850 -2510,5777 -6541,5777 -3223,0 -5868,-671 -7882,-1970 715,0 1255,-537 1702,-1568 447,-1165 537,-2373 268,-3672l0 -134c-1477,-628 -3000,-940 -4612,-940 -2957,0 -5377,983 -7213,2910 -1926,1927 -2866,4390 -2866,7479 0,6001 3047,9586 9183,10616l14689 0c4571,269 6810,2014 6810,5240 0,3853 -806,6854 -2464,9046 -1523,-1208 -2957,-1836 -4346,-1836l-41609 0zm115467 -3135c-2595,4300 -3940,12721 -3940,25308l402 119320c0,19214 -8777,28844 -26379,28844l-100869 0c-12181,-628 -18273,-5196 -18273,-13796 0,-6719 2373,-13168 7079,-19260 3537,3226 7253,4837 11194,4837l19529 0c90,-1655 134,-4300 134,-7881 0,-2867 -268,-20113 -806,-51688 -580,-29652 -896,-46627 -896,-50927 0,-4793 1434,-8643 4347,-11509 2954,-2914 6941,-4347 11912,-4347 8510,0 15857,2464 22037,7347 -2686,4300 -4032,12719 -4032,25306l1568 93699 29383 0c3853,0 6586,-1252 8287,-3806 1568,-2417 2327,-6495 2327,-12182l-1299 -120753c0,-4884 1433,-8780 4346,-11647 2867,-2820 6852,-4209 11913,-4209 8512,0 15857,2463 22036,7344zm53303 24681c0,5418 312,27678 940,66779l761 66021c0,4884 -1433,8781 -4299,11647 -2914,2910 -6854,4344 -11826,4344 -8555,0 -15946,-2464 -22170,-7345 2642,-4390 3941,-12855 3941,-25442l-806 -66827c-584,-39101 -896,-61093 -896,-65974 0,-4927 1433,-8824 4300,-11690 2910,-2867 6898,-4344 11959,-4344 8553,0 15944,2464 22036,7344 -2598,4300 -3940,12809 -3940,25487z"/>
   <path id="1" class="fil1" d="M160257 109153c-2685,4300 -4075,12765 -4075,25352l537 51060c0,19304 -8824,28978 -26517,28978l-70452 0c-21230,0 -36281,-3091 -45149,-9318 -8912,-6314 -13617,-17286 -14154,-32918 -447,-13124 2329,-24815 8287,-35070 6001,-10123 13034,-15185 21096,-15185 5599,0 10258,4256 13930,12856 -5330,2239 -9093,6717 -11288,13390 -2105,6451 -2239,13439 -403,20961 1477,5958 4434,10214 8778,12722 4212,2554 10526,3806 18903,3806l52763 0c3940,0 6673,-1252 8240,-3806 1612,-2420 2373,-6539 2373,-12319 0,-2104 -224,-11151 -627,-27141l-672 -24678c0,-5018 1434,-8915 4344,-11825 2869,-2776 6854,-4210 11916,-4210 8599,0 15990,2461 22170,7345zm-80038 120082c4300,0 7838,1299 10614,3940 2732,2642 4075,5912 4075,9855 0,4612 -1655,8509 -4971,11644 -3314,3179 -7389,4750 -12228,4750 -4166,0 -7570,-1255 -10211,-3810 -2642,-2551 -3941,-5867 -3941,-9986 0,-4524 1611,-8377 4881,-11513 3225,-3269 7166,-4880 11781,-4880zm125322 -14692c-17646,0 -26471,-9674 -26471,-28978 0,-29427 0,-54554 91,-75472l-628 -61272c0,-4927 1434,-8824 4300,-11690 2910,-2867 6851,-4344 11825,-4344 8600,0 15988,2464 22171,7344 -2598,4300 -3941,12809 -3941,25487l-225 104450c0,5777 762,9899 2330,12316 1567,2554 4343,3806 8284,3806l20693 0 7794 0 52716 0 -9718 -29515c-3853,-11734 -7347,-19169 -10482,-22304 268,-9452 2373,-16038 6270,-19797 9137,-9140 22754,-13662 40984,-13662 19125,0 34488,4747 46042,14286 11466,9543 17199,22083 17199,37671 0,12091 -3625,23201 -10882,33321l31307 0 5286 0 16525 0c3941,0 6673,-1252 8241,-3806 1567,-2417 2376,-6539 2376,-12316l-674 -61811c-313,-33324 -491,-53122 -491,-59301 0,-4837 1434,-8690 4300,-11557 2910,-2910 6851,-4343 11822,-4343 8647,0 16038,2417 22174,7210 -2598,4299 -3944,12765 -3944,25486l406 119679c0,19392 -8825,29112 -26517,29112l-34218 0 -5286 0 -163436 0 -7794 0 -38429 0zm109958 -82146c5686,8153 12272,25890 19707,53256 6720,-1655 12094,-5015 16125,-10077 4031,-5061 6045,-11107 6045,-18095 0,-8153 -2551,-14826 -7613,-19975 -5105,-5062 -11647,-7616 -19706,-7616 -5421,0 -10258,718 -14558,2105l0 402zm213197 -88325c-1836,-268 -3359,-1118 -4568,-2598 -1165,-1343 -1702,-2820 -1702,-4478 0,-2463 850,-4793 2598,-7076 1165,1118 2464,1702 3941,1702l7616 0c-2689,-3584 -4078,-7703 -4078,-12318 0,-5777 2151,-10480 6451,-14064 4300,-3494 9942,-5240 17065,-5240 6629,0 11691,1658 15229,4971 1880,1927 2685,4659 2329,8153 -359,3850 -2510,5777 -6541,5777 -3223,0 -5868,-671 -7882,-1970 715,0 1255,-537 1702,-1568 447,-1165 537,-2373 268,-3672l0 -134c-1477,-628 -3000,-940 -4612,-940 -2957,0 -5377,983 -7213,2910 -1926,1927 -2866,4390 -2866,7479 0,6001 3047,9586 9183,10616l14689 0c4571,269 6810,2014 6810,5240 0,3853 -806,6854 -2464,9046 -1523,-1208 -2957,-1836 -4346,-1836l-41609 0zm115467 -3135c-2595,4300 -3940,12721 -3940,25308l402 119320c0,19214 -8777,28844 -26379,28844l-100869 0c-12181,-628 -18273,-5196 -18273,-13796 0,-6719 2373,-13168 7079,-19260 3537,3226 7253,4837 11194,4837l19529 0c90,-1655 134,-4300 134,-7881 0,-2867 -268,-20113 -806,-51688 -580,-29652 -896,-46627 -896,-50927 0,-4793 1434,-8643 4347,-11509 2954,-2914 6941,-4347 11912,-4347 8510,0 15857,2464 22037,7347 -2686,4300 -4032,12719 -4032,25306l1568 93699 29383 0c3853,0 6586,-1252 8287,-3806 1568,-2417 2327,-6495 2327,-12182l-1299 -120753c0,-4884 1433,-8780 4346,-11647 2867,-2820 6852,-4209 11913,-4209 8512,0 15857,2463 22036,7344zm53303 24681c0,5418 312,27678 940,66779l761 66021c0,4884 -1433,8781 -4299,11647 -2914,2910 -6854,4344 -11826,4344 -8555,0 -15946,-2464 -22170,-7345 2642,-4390 3941,-12855 3941,-25442l-806 -66827c-584,-39101 -896,-61093 -896,-65974 0,-4927 1433,-8824 4300,-11690 2910,-2867 6898,-4344 11959,-4344 8553,0 15944,2464 22036,7344 -2598,4300 -3940,12809 -3940,25487z"/>
  </g>
 </g>
</svg>
