<?xml version="1.0" encoding="UTF-8"?>
<!DOCTYPE svg PUBLIC "-//W3C//DTD SVG 1.1//EN" "http://www.w3.org/Graphics/SVG/1.1/DTD/svg11.dtd">
<!-- Creator: CorelDRAW X7 -->
<svg xmlns="http://www.w3.org/2000/svg" xml:space="preserve" width="1.15109in" height="3.51909in" version="1.1" style="shape-rendering:geometricPrecision; text-rendering:geometricPrecision; image-rendering:optimizeQuality; fill-rule:evenodd; clip-rule:evenodd"
viewBox="0 0 507 1549"
 xmlns:xlink="http://www.w3.org/1999/xlink">
 <defs>
  <style type="text/css">
   <![CDATA[
    .str0 {stroke:#663300;stroke-width:14.6685}
    .fil2 {fill:#441600}
    .fil3 {fill:#AB5623}
    .fil0 {fill:white}
    .fil1 {fill:white;fill-rule:nonzero}
   ]]>
  </style>
 </defs>
 <g id="Layer_x0020_1">
  <metadata id="CorelCorpID_0Corel-Layer"/>
  <path class="fil0" d="M277 75c43,0 78,14 107,43 27,28 41,64 41,107 0,46 -17,86 -50,118 -33,32 -74,49 -124,49 -43,0 -77,-14 -103,-40 -27,-27 -40,-61 -40,-104 0,-48 17,-89 50,-122 32,-34 72,-51 119,-51zm161 1347c-70,35 -141,52 -214,52 -47,0 -81,-11 -100,-33 -19,-21 -28,-57 -28,-109 0,-20 3,-79 8,-174 6,-96 8,-182 8,-257 0,-150 -14,-257 -43,-320 70,-35 140,-53 212,-53 45,0 78,11 99,33 21,22 31,59 31,109 0,32 -3,97 -9,196 -6,99 -9,181 -9,247 0,129 15,232 45,309z"/>
  <g>
   <path class="fil1" d="M277 0c29,0 57,5 83,16 26,11 50,26 71,48 21,21 36,46 47,73 11,27 16,57 16,88 0,34 -6,65 -19,95 -12,29 -30,55 -54,78 0,1 -1,1 -1,1 -23,23 -49,40 -77,51 -6,2 -12,4 -18,6 12,2 24,5 35,9 27,9 50,23 68,43 19,20 32,45 41,75 7,26 11,55 11,87 0,14 -1,39 -3,76 -1,36 -3,78 -6,124l0 1 0 0c-3,51 -6,96 -7,134 -1,36 -2,72 -2,108 0,119 13,212 39,279 15,38 -1,81 -34,98l0 0c-39,19 -79,34 -120,44 -41,10 -82,15 -123,15 -30,0 -57,-3 -81,-11 -28,-10 -51,-25 -69,-46 -1,0 -1,-1 -1,-1 -17,-19 -29,-44 -36,-72 -7,-26 -10,-54 -10,-87 0,-9 1,-32 3,-67 1,-31 3,-69 6,-112 0,0 0,-1 0,-2 2,-48 4,-92 5,-131 1,-36 2,-76 2,-119 0,-72 -4,-133 -10,-182 -6,-46 -15,-81 -26,-105 -17,-37 -3,-82 31,-100 1,-1 1,-1 2,-1l0 0c39,-20 79,-35 119,-45 12,-3 24,-6 37,-8 -9,-2 -18,-4 -26,-8 -26,-10 -49,-25 -70,-46 -1,-1 -2,-3 -3,-4 -19,-20 -33,-42 -43,-68 -10,-26 -15,-55 -15,-86 0,-35 6,-67 18,-97 12,-29 30,-55 53,-79l0 0c23,-24 49,-42 77,-54 28,-12 58,-18 90,-18zm35 156c-10,-4 -21,-6 -35,-6 -15,0 -28,3 -40,8 -11,5 -22,12 -31,22l-1 0c0,0 0,1 -1,1 -9,10 -16,20 -20,31 -5,10 -7,22 -7,36 0,12 2,22 5,29 2,7 5,12 10,17 1,1 2,2 3,3 6,6 13,11 21,14 10,4 22,6 35,6 17,0 32,-3 45,-8 12,-5 23,-12 32,-21 1,0 1,-1 1,-1 10,-9 17,-19 21,-29 4,-9 6,-20 6,-33 0,-12 -2,-22 -5,-30 -3,-8 -8,-16 -15,-22 -7,-8 -15,-13 -24,-17zm5 1232c11,-3 23,-6 34,-10 -18,-74 -27,-162 -27,-265 0,-30 1,-68 2,-114 2,-45 5,-91 8,-138l0 0c3,-52 5,-92 6,-121 1,-29 2,-52 2,-70 0,-18 -2,-32 -5,-43 -1,-6 -3,-10 -5,-12l0 0 -1 -1c-2,-2 -6,-4 -12,-6 -9,-3 -22,-5 -38,-5 -31,0 -62,4 -91,11 -12,3 -23,6 -34,10 5,23 10,47 13,74 8,57 12,125 12,203 0,33 -1,73 -2,123 -2,45 -3,90 -6,136 0,1 0,2 0,3 -3,47 -5,84 -6,109 -1,28 -2,48 -2,60 0,20 2,35 4,46 2,5 3,9 4,10 0,1 1,1 2,2 1,1 4,3 9,4 9,4 23,5 40,5 32,0 63,-3 93,-11zm-281 -237c3,-40 35,-70 73,-68l-73 68z"/>
  </g>
  <path class="fil2" d="M270 136c43,0 79,14 107,42 27,27 41,61 41,102 0,44 -16,82 -49,112 -34,32 -75,47 -124,47 -43,0 -78,-13 -104,-38 -26,-25 -39,-58 -39,-100 0,-45 16,-84 49,-116 33,-32 72,-49 119,-49zm161 1288c-70,33 -141,50 -213,50 -48,0 -81,-10 -100,-32 -19,-19 -29,-54 -29,-104 0,-19 3,-75 9,-166 5,-92 7,-174 7,-246 0,-143 -14,-245 -43,-306 70,-34 141,-51 212,-51 45,0 79,11 99,32 21,21 31,56 31,104 0,31 -3,93 -8,188 -7,94 -10,173 -10,236 0,123 15,222 45,295z"/>
  <path class="fil3 str0" d="M270 65c43,0 79,13 107,41 27,27 41,61 41,102 0,44 -16,82 -49,112 -34,32 -75,47 -124,47 -43,0 -78,-12 -104,-38 -26,-25 -39,-58 -39,-99 0,-46 16,-85 49,-117 33,-32 72,-48 119,-48zm161 1287c-70,34 -141,51 -213,51 -48,0 -81,-11 -100,-32 -19,-20 -29,-55 -29,-104 0,-20 3,-76 9,-167 5,-92 7,-174 7,-246 0,-143 -14,-245 -43,-306 70,-34 141,-50 212,-50 45,0 79,10 99,32 21,21 31,55 31,103 0,31 -3,94 -8,188 -7,94 -10,173 -10,236 0,124 15,222 45,295z"/>
 </g>
</svg>
