<?xml version="1.0" encoding="UTF-8"?>
<!DOCTYPE svg PUBLIC "-//W3C//DTD SVG 1.1//EN" "http://www.w3.org/Graphics/SVG/1.1/DTD/svg11.dtd">
<!-- Creator: CorelDRAW X7 -->
<svg xmlns="http://www.w3.org/2000/svg" xml:space="preserve" width="3.02615in" height="3.01997in" version="1.1" style="shape-rendering:geometricPrecision; text-rendering:geometricPrecision; image-rendering:optimizeQuality; fill-rule:evenodd; clip-rule:evenodd"
viewBox="0 0 9703 9684"
 xmlns:xlink="http://www.w3.org/1999/xlink">
 <defs>
  <style type="text/css">
   <![CDATA[
    .fil3 {fill:#963786}
    .fil2 {fill:#DA51C3}
    .fil1 {fill:#FDFDFA}
    .fil0 {fill:white}
   ]]>
  </style>
 </defs>
 <g id="Layer_x0020_1">
  <metadata id="CorelCorpID_0Corel-Layer"/>
  <g id="_1573722048">
   <path class="fil0" d="M2511 7511c895,410 1127,341 2276,340 806,0 1720,61 2307,-308 573,-361 663,-995 666,-1859 3,-827 42,-1571 -124,-2361 -562,-839 -882,-932 -2202,-933 -894,-1 -2184,-146 -2851,319 -749,522 -652,1292 -652,2369 0,1217 -121,1709 580,2433z"/>
   <path class="fil0" d="M4411 9623c-228,-359 -1798,-1891 -1869,-2010l-31 -102c-701,-724 -580,-1216 -580,-2433 0,-1077 -97,-1847 652,-2369 667,-465 1957,-320 2851,-319 1320,1 1640,94 2202,933l1470 1709c158,185 356,465 533,586 27,-51 49,-111 64,-178l0 -734c-115,-774 -521,-1763 -997,-2330 -434,-516 -418,-475 -898,-856 -2163,-1717 -6329,-1154 -7568,2146 -128,341 -206,686 -240,1031l0 788c117,1215 767,2359 1765,3151 558,442 1645,987 2646,987z"/>
   <path class="fil0" d="M3439 2936c-736,127 -953,550 -971,1291 -13,574 -57,1685 33,2214 118,685 625,890 1445,901 2015,26 3241,313 3275,-1352 39,-1886 330,-3070 -1462,-3090 -609,-8 -1781,-56 -2320,36z"/>
   <path class="fil0" d="M2511 7511l31 102c71,119 1641,1651 1869,2010l186 58c7,1 15,2 22,3l589 0c942,-90 2137,-554 2765,-1076 832,-693 1666,-1848 1666,-2990 -177,-121 -375,-401 -533,-586l-1470 -1709c166,790 127,1534 124,2361 -3,864 -93,1498 -666,1859 -587,369 -1501,308 -2307,308 -1149,1 -1381,70 -2276,-340z"/>
   <path class="fil0" d="M4470 3726c-1987,517 -1110,3218 794,2707 653,-175 1295,-863 1028,-1737 -193,-632 -911,-1206 -1822,-970z"/>
   <path class="fil0" d="M4617 4218c-1280,323 -732,2048 510,1722 1130,-296 741,-2039 -510,-1722z"/>
   <path class="fil0" d="M6770 3734c-21,-614 -632,-478 -685,-163 -64,379 374,565 685,163z"/>
  </g>
  <g id="_1573701888">
   <path class="fil1" d="M2511 6937c895,411 1127,341 2276,341 806,0 1720,61 2307,-308 573,-361 663,-995 666,-1859 3,-828 42,-1572 -124,-2361 -562,-839 -882,-932 -2202,-933 -894,-1 -2184,-147 -2851,318 -749,523 -652,1293 -652,2370 0,1217 -121,1709 580,2432z"/>
   <path class="fil2" d="M4411 9050c-228,-359 -1798,-1891 -1869,-2010l-31 -103c-701,-723 -580,-1215 -580,-2432 0,-1077 -97,-1847 652,-2370 667,-465 1957,-319 2851,-318 1320,1 1640,94 2202,933l1470 1709c158,185 356,465 533,586 27,-52 49,-111 64,-178l0 -734c-115,-775 -521,-1763 -997,-2330 -434,-516 -418,-475 -898,-856 -2163,-1717 -6329,-1155 -7568,2146 -128,340 -206,686 -240,1031l0 788c117,1214 767,2359 1765,3151 558,442 1645,987 2646,987z"/>
   <path class="fil3" d="M3439 2363c-736,127 -953,549 -971,1291 -13,574 -57,1684 33,2213 118,685 625,891 1445,901 2015,26 3241,314 3275,-1352 39,-1885 330,-3069 -1462,-3090 -609,-7 -1781,-56 -2320,37z"/>
   <path class="fil3" d="M2511 6937l31 103c71,119 1641,1651 1869,2010l186 58c7,1 15,1 22,2l589 0c942,-89 2137,-553 2765,-1076 832,-692 1666,-1847 1666,-2989 -177,-121 -375,-401 -533,-586l-1470 -1709c166,789 127,1533 124,2361 -3,864 -93,1498 -666,1859 -587,369 -1501,308 -2307,308 -1149,0 -1381,70 -2276,-341z"/>
   <path class="fil1" d="M4470 3153c-1987,516 -1110,3217 794,2707 653,-175 1295,-863 1028,-1737 -193,-632 -911,-1206 -1822,-970z"/>
   <path class="fil3" d="M4617 3644c-1280,324 -732,2049 510,1723 1130,-296 741,-2039 -510,-1723z"/>
   <path class="fil1" d="M6770 3161c-21,-614 -632,-478 -685,-163 -64,379 374,564 685,163z"/>
  </g>
 </g>
</svg>
