<?xml version="1.0" encoding="UTF-8"?>
<!DOCTYPE svg PUBLIC "-//W3C//DTD SVG 1.1//EN" "http://www.w3.org/Graphics/SVG/1.1/DTD/svg11.dtd">
<!-- Creator: CorelDRAW X7 -->
<svg xmlns="http://www.w3.org/2000/svg" xml:space="preserve" width="1.26531in" height="3.1437in" version="1.1" style="shape-rendering:geometricPrecision; text-rendering:geometricPrecision; image-rendering:optimizeQuality; fill-rule:evenodd; clip-rule:evenodd"
viewBox="0 0 234 582"
 xmlns:xlink="http://www.w3.org/1999/xlink">
 <defs>
  <style type="text/css">
   <![CDATA[
    .str0 {stroke:white;stroke-width:0.555693}
    .fil48 {fill:none;fill-rule:nonzero}
    .fil54 {fill:#905735}
    .fil49 {fill:#006633}
    .fil51 {fill:#BB763A;fill-rule:nonzero}
    .fil52 {fill:#905735;fill-rule:nonzero}
    .fil53 {fill:#3C342E;fill-rule:nonzero}
    .fil0 {fill:#524E47;fill-rule:nonzero}
    .fil55 {fill:#586041;fill-rule:nonzero}
    .fil56 {fill:#4D5141;fill-rule:nonzero}
    .fil5 {fill:#1D2F16;fill-rule:nonzero}
    .fil26 {fill:#60230E;fill-rule:nonzero}
    .fil8 {fill:#6D280F;fill-rule:nonzero}
    .fil35 {fill:#7E3B13;fill-rule:nonzero}
    .fil46 {fill:#892613;fill-rule:nonzero}
    .fil34 {fill:#893B13;fill-rule:nonzero}
    .fil12 {fill:#8C441C;fill-rule:nonzero}
    .fil30 {fill:#8E3115;fill-rule:nonzero}
    .fil28 {fill:#91541C;fill-rule:nonzero}
    .fil10 {fill:#97281A;fill-rule:nonzero}
    .fil6 {fill:#992318;fill-rule:nonzero}
    .fil33 {fill:#AA3D1D;fill-rule:nonzero}
    .fil24 {fill:#AC4823;fill-rule:nonzero}
    .fil40 {fill:#AC641F;fill-rule:nonzero}
    .fil37 {fill:#AE361F;fill-rule:nonzero}
    .fil29 {fill:#AF7526;fill-rule:nonzero}
    .fil16 {fill:#B15923;fill-rule:nonzero}
    .fil42 {fill:#BC741F;fill-rule:nonzero}
    .fil15 {fill:#BD8728;fill-rule:nonzero}
    .fil19 {fill:#C34226;fill-rule:nonzero}
    .fil21 {fill:#C35223;fill-rule:nonzero}
    .fil7 {fill:#CA5721;fill-rule:nonzero}
    .fil27 {fill:#CA7721;fill-rule:nonzero}
    .fil1 {fill:#D18C28;fill-rule:nonzero}
    .fil31 {fill:#D6901A;fill-rule:nonzero}
    .fil36 {fill:#D69726;fill-rule:nonzero}
    .fil17 {fill:#D87E28;fill-rule:nonzero}
    .fil43 {fill:#DA7224;fill-rule:nonzero}
    .fil4 {fill:#DB7926;fill-rule:nonzero}
    .fil32 {fill:#DB9A2F;fill-rule:nonzero}
    .fil23 {fill:#DFA736;fill-rule:nonzero}
    .fil44 {fill:#E28723;fill-rule:nonzero}
    .fil20 {fill:#E2902A;fill-rule:nonzero}
    .fil39 {fill:#E4A72F;fill-rule:nonzero}
    .fil18 {fill:#E89323;fill-rule:nonzero}
    .fil3 {fill:#EDA821;fill-rule:nonzero}
    .fil13 {fill:#EDBD34;fill-rule:nonzero}
    .fil11 {fill:#EFC63A;fill-rule:nonzero}
    .fil47 {fill:#F2C63D;fill-rule:nonzero}
    .fil22 {fill:#F2CF31;fill-rule:nonzero}
    .fil45 {fill:#F4BF26;fill-rule:nonzero}
    .fil14 {fill:#F7DD4F;fill-rule:nonzero}
    .fil9 {fill:#F9E254;fill-rule:nonzero}
    .fil41 {fill:#F9E446;fill-rule:nonzero}
    .fil38 {fill:#FBD142;fill-rule:nonzero}
    .fil2 {fill:#FDD634;fill-rule:nonzero}
    .fil25 {fill:#FDED42;fill-rule:nonzero}
    .fil60 {fill:url(#id1)}
    .fil59 {fill:url(#id2)}
    .fil50 {fill:url(#id3)}
    .fil58 {fill:url(#id4)}
    .fil57 {fill:url(#id5)}
    .fil64 {fill:url(#id6)}
    .fil66 {fill:url(#id7)}
    .fil67 {fill:url(#id8)}
    .fil61 {fill:url(#id9)}
    .fil62 {fill:url(#id10)}
    .fil65 {fill:url(#id11)}
    .fil63 {fill:url(#id12)}
   ]]>
  </style>
   <clipPath id="id0" style="clip-rule:nonzero">
    <path d="M228 262c0,0 -5,9 -43,17 -38,7 -61,79 -69,88 0,0 6,7 0,39 -9,21 -43,90 -43,105 -10,17 -73,-1 -73,-1l0 -421c0,0 196,70 215,141 12,-3 17,18 17,18 0,0 3,5 -4,14z"/>
   </clipPath>
  <linearGradient id="id1" gradientUnits="userSpaceOnUse" x1="84.8766" y1="55.5809" x2="85.4264" y2="54.8276">
   <stop offset="0" style="stop-opacity:1; stop-color:#4E673D"/>
   <stop offset="0.0117647" style="stop-opacity:1; stop-color:#4E673D"/>
   <stop offset="0.941176" style="stop-opacity:1; stop-color:#4F8448"/>
   <stop offset="0.980392" style="stop-opacity:1; stop-color:#63A34E"/>
   <stop offset="1" style="stop-opacity:1; stop-color:#63A34E"/>
  </linearGradient>
  <linearGradient id="id2" gradientUnits="userSpaceOnUse" xlink:href="#id1" x1="46.183" y1="57.943" x2="46.3879" y2="57.5062">
  </linearGradient>
  <linearGradient id="id3" gradientUnits="userSpaceOnUse" x1="147.383" y1="138.544" x2="86.9929" y2="212.922">
   <stop offset="0" style="stop-opacity:1; stop-color:#7FB152"/>
   <stop offset="0.980392" style="stop-opacity:1; stop-color:#3E6F42"/>
   <stop offset="1" style="stop-opacity:1; stop-color:#3E6F42"/>
  </linearGradient>
  <linearGradient id="id4" gradientUnits="userSpaceOnUse" xlink:href="#id1" x1="86.2658" y1="49.1" x2="86.4416" y2="48.9892">
  </linearGradient>
  <linearGradient id="id5" gradientUnits="userSpaceOnUse" xlink:href="#id1" x1="15.0467" y1="51.8982" x2="15.2145" y2="51.2688">
  </linearGradient>
  <radialGradient id="id6" gradientUnits="userSpaceOnUse" gradientTransform="matrix(1.77882 0.110201 -0.110201 1.77882 -18 -26)" cx="27.4404" cy="29.4291" r="26.3444" fx="27.4404" fy="29.4291">
   <stop offset="0" style="stop-opacity:1; stop-color:#47BF28"/>
   <stop offset="1" style="stop-opacity:1; stop-color:#496118"/>
  </radialGradient>
  <radialGradient id="id7" gradientUnits="userSpaceOnUse" gradientTransform="matrix(-0.222407 -1.37805 -1.37805 0.222407 92 86)" xlink:href="#id6" cx="49.3093" cy="22.7571" r="26.7265" fx="49.3093" fy="22.7571">
  </radialGradient>
  <radialGradient id="id8" gradientUnits="userSpaceOnUse" gradientTransform="matrix(0.349381 -1.36048 1.36048 0.349381 -92 172)" xlink:href="#id6" cx="76.873" cy="104.106" r="15.3333" fx="76.873" fy="104.106">
  </radialGradient>
  <radialGradient id="id9" gradientUnits="userSpaceOnUse" gradientTransform="matrix(0.431372 -1.33833 1.33837 0.431383 -83 95)" xlink:href="#id6" cx="37.5377" cy="78.1149" r="20.274" fx="37.5377" fy="78.1149">
  </radialGradient>
  <radialGradient id="id10" gradientUnits="userSpaceOnUse" gradientTransform="matrix(1.50011 0.157196 -0.157196 1.50011 -4 -36)" xlink:href="#id6" cx="27.3974" cy="64.1745" r="57.6367" fx="27.3974" fy="64.1745">
  </radialGradient>
  <radialGradient id="id11" gradientUnits="userSpaceOnUse" gradientTransform="matrix(0.222396 -1.37802 1.37802 0.222396 -3 131)" xlink:href="#id6" cx="71.2337" cy="42.1707" r="26.7265" fx="71.2337" fy="42.1707">
  </radialGradient>
  <radialGradient id="id12" gradientUnits="userSpaceOnUse" gradientTransform="matrix(0.482227 -1.32383 1.32384 0.48223 -91 169)" xlink:href="#id6" cx="87.022" cy="103.082" r="20.7444" fx="87.022" fy="103.082">
  </radialGradient>
 </defs>
 <g id="Layer_x0020_1">
  <metadata id="CorelCorpID_0Corel-Layer"/>
  <path class="fil0" d="M228 262c0,0 -5,9 -43,17 -38,7 -61,79 -69,88 0,0 6,7 0,39 -9,21 -43,90 -43,105 -10,17 -73,-1 -73,-1l0 -421c0,0 196,70 215,141 12,-3 17,18 17,18 0,0 3,5 -4,14z"/>
  <g style="clip-path:url(#id0)">
   <g id="_1333243648">
    <g>
     <path id="1" class="fil1" d="M224 19c4,-10 7,-19 10,-29 5,30 -11,67 -23,99 7,0 15,-6 23,-15 -14,23 -26,51 -39,67 -8,12 -15,26 -18,41 1,-26 11,-49 20,-73 12,-31 27,-60 34,-92 -2,1 -5,1 -7,2z"/>
     <path class="fil2" d="M259 10c3,-2 6,-3 9,-5 -2,7 -4,14 -7,20 -7,20 -17,39 -26,58 -4,9 -8,17 -12,26 -14,31 -25,62 -26,94 1,2 1,5 1,7 -5,-2 -12,-13 -13,1 -5,33 -48,75 -85,112 3,-8 8,-15 13,-23 63,-37 65,-78 64,-118 3,-15 10,-29 18,-41 13,-16 25,-44 39,-67 8,-15 15,-30 20,-46 2,-6 4,-12 5,-18z"/>
     <path class="fil3" d="M224 19c2,-1 5,-1 7,-2 -7,32 -22,61 -34,92 -9,24 -19,47 -20,73 1,40 -1,81 -64,118 -16,23 -22,45 -28,68 5,-35 29,-71 85,-104 5,-8 7,-15 7,-23 -4,14 -17,28 -49,41 40,-42 41,-83 43,-125 9,-37 27,-64 39,-101 5,-12 9,-25 14,-37z"/>
     <path class="fil4" d="M202 71c3,-5 5,-10 8,-15 -12,37 -30,64 -39,101 -2,42 -3,83 -43,125 32,-13 45,-27 49,-41 0,8 -2,15 -7,23 -36,18 -64,36 -79,55 11,-23 67,-53 77,-80 -1,-24 -6,-47 -4,-71 2,-24 9,-47 14,-70 4,-3 7,-6 11,-10 4,-5 9,-11 13,-17z"/>
     <path class="fil5" d="M0 75c11,0 22,3 33,9 -12,-1 -23,0 -33,6l0 -15z"/>
     <path class="fil6" d="M170 102c2,0 4,-2 6,-2 -6,30 -14,60 -16,90 3,38 -16,64 -66,111 -30,28 -26,74 -29,113 -14,34 -21,69 -23,104 -1,0 -1,0 -1,0 1,-26 5,-52 12,-77 11,-28 11,-57 16,-86 6,-25 16,-52 45,-74 36,-26 40,-50 36,-75 -1,-37 9,-69 20,-104z"/>
     <path class="fil7" d="M176 100c1,-1 1,-2 2,-2 -5,23 -12,46 -14,70 -2,24 3,47 4,71 -10,27 -66,57 -77,80 -11,35 -15,72 -23,108 -4,9 -10,25 -5,22 -7,18 -11,36 -15,51 2,-30 14,-63 21,-89 -1,0 -3,2 -4,3 3,-39 -1,-85 29,-113 50,-47 69,-73 66,-111 2,-30 10,-60 16,-90z"/>
     <path class="fil8" d="M0 90c10,-6 21,-7 33,-6 12,5 23,11 34,16 -8,10 -16,18 -24,26 -2,24 1,51 1,76 -3,31 -18,48 -44,64l0 -5c23,-14 34,-35 39,-59 0,-13 -1,-29 -2,-43 0,-2 0,-7 1,-9 2,-14 4,-35 -3,-48 -14,-27 -24,-6 -31,9 -1,-4 -2,-10 -4,-16l0 -5z"/>
     <path class="fil9" d="M158 107c4,-1 8,-3 12,-5 -11,35 -21,67 -20,104 0,8 0,16 -1,25 -1,10 -3,21 -8,31 -54,33 -76,65 -84,100 -2,17 -2,35 -6,51 0,-3 0,-10 -1,-14 1,-39 12,-79 43,-115 42,-25 50,-50 52,-74 -1,-7 -3,-13 -4,-19 -3,4 -5,8 -7,11 -2,-13 -3,-26 -4,-39 1,-3 2,-8 2,-10 8,-14 17,-28 26,-46z"/>
     <path class="fil10" d="M4 111c7,-15 17,-36 31,-9 7,13 5,34 3,48 -2,-14 -4,-35 -10,-40 -3,2 -5,5 -8,8 -5,-4 -10,-1 -14,5 -2,-3 -4,-7 -6,-11l0 -17c2,6 3,12 4,16z"/>
     <path class="fil11" d="M140 113c6,-2 12,-4 18,-6 -9,18 -18,32 -26,46 3,-13 5,-27 8,-40z"/>
     <path class="fil12" d="M43 126c8,-8 16,-16 24,-26 5,2 11,5 16,7 -10,-2 -18,12 -25,25 -3,6 -6,14 -7,25 0,30 10,66 -8,91 -16,23 -32,40 -43,57l0 -39c26,-16 41,-33 44,-64 0,-25 -3,-52 -1,-76z"/>
     <path class="fil13" d="M126 113c3,0 6,0 8,-1 -8,31 -17,58 -16,92 2,3 4,7 7,11 1,16 -1,32 -10,48 4,-5 7,-17 8,-22 -2,4 -5,8 -8,12 3,-7 3,-15 4,-23 -2,1 -5,2 -7,3 -1,-27 -3,-55 0,-81 4,-14 9,-26 14,-39z"/>
     <path class="fil14" d="M134 112c0,1 1,2 1,3 -4,36 -11,66 -10,100 -3,-4 -5,-8 -7,-11 -1,-34 8,-61 16,-92z"/>
     <path class="fil15" d="M135 115c1,0 4,-1 5,-2 -3,13 -5,27 -8,40 0,2 -1,7 -2,10 -1,15 -2,30 -2,45 -2,22 -2,49 -33,66 6,-3 16,-8 20,-11 9,-16 11,-32 10,-48 -1,-34 6,-64 10,-100z"/>
     <path class="fil16" d="M58 132c7,-13 15,-27 25,-25 1,1 4,2 5,2 -6,11 -14,14 -19,28 -6,36 -4,80 -18,120 -26,19 -41,39 -51,60l0 -12c11,-17 27,-34 43,-57 18,-25 8,-61 8,-91 1,-11 4,-19 7,-25z"/>
     <path class="fil17" d="M88 109c6,2 12,3 18,4 -2,11 -4,22 -7,33 -2,8 -3,17 -4,25 -1,-1 -2,-3 -3,-5 -3,25 -8,51 -9,84 -1,1 -1,3 -2,4 -34,23 -55,47 -66,70 -3,13 -9,30 -8,43 -2,10 -4,22 -7,33l0 -83c10,-21 25,-41 51,-60 14,-40 12,-84 18,-120 5,-14 13,-17 19,-28z"/>
     <path class="fil18" d="M106 113c7,0 14,1 20,0 -5,13 -10,25 -14,39 -3,26 -1,54 0,81 2,-1 5,-2 7,-3 -1,8 -1,16 -4,23 -51,39 -75,72 -84,112 -2,17 -1,34 -3,51 -9,24 -16,49 -19,74 7,-25 16,-52 28,-77 -12,37 -26,65 -27,104 -2,0 -4,0 -6,0 3,-23 6,-46 10,-69 -6,19 -10,39 -14,60l0 -2c2,-20 6,-41 10,-61 -2,1 -4,2 -6,3 5,-16 10,-31 15,-47 1,-20 6,-41 5,-58 6,-28 27,-48 59,-79 22,-22 18,-54 17,-81 0,-12 -1,-25 -1,-37 3,-11 5,-22 7,-33z"/>
     <path class="fil19" d="M20 118c3,-3 5,-6 8,-8 6,5 8,26 10,40 -1,2 -1,7 -1,9 -8,21 -8,64 -23,89 -5,3 -10,7 -14,11l0 -29c3,-5 4,-10 6,-15 1,-18 -4,-34 -5,-51 0,-2 -1,-5 -1,-7l0 -45c2,4 4,8 6,11 4,-6 9,-9 14,-5z"/>
     <path class="fil20" d="M0 157c0,2 1,5 1,7 1,17 6,33 5,51 -2,5 -3,10 -6,15l0 -73z"/>
     <path class="fil21" d="M95 171c1,-8 2,-17 4,-25 0,12 1,25 1,37 1,27 5,59 -17,81 -32,31 -53,51 -59,79 1,17 -4,38 -5,58 -1,-3 -1,-5 -1,-8 -1,-10 -2,-20 -2,-30 6,-26 16,-55 30,-81 11,-9 26,-18 35,-28 1,-1 1,-3 2,-4 6,-29 11,-51 12,-79z"/>
     <path class="fil22" d="M128 208c0,-15 1,-30 2,-45 1,13 2,26 4,39 2,-3 4,-7 7,-11 1,6 3,12 4,19 -2,24 -10,49 -52,74 -31,36 -42,76 -43,115 1,4 1,11 1,14 -4,8 -8,15 -12,22 -10,26 -17,54 -21,83 -2,-1 -5,-1 -8,-1 1,-39 15,-67 27,-104 7,-40 18,-82 44,-124 -19,17 -30,42 -37,59 5,-25 19,-48 48,-73 -29,19 -44,42 -51,66 -6,24 -9,50 -13,75 2,-17 1,-34 3,-51 9,-40 33,-73 84,-112 3,-4 6,-8 8,-12 -1,5 -4,17 -8,22 -4,3 -14,8 -20,11 31,-17 31,-44 33,-66z"/>
     <path class="fil23" d="M92 166c1,2 2,4 3,5 -1,28 -6,50 -12,79 1,-33 6,-59 9,-84z"/>
     <path class="fil24" d="M14 248c15,-25 15,-68 23,-89 1,14 2,30 2,43 -5,24 -16,45 -39,59l0 -2c4,-4 9,-8 14,-11z"/>
     <path class="fil25" d="M185 211c1,-14 8,-3 13,-1 0,39 -51,77 -91,115 4,-10 11,-20 21,-30 -13,10 -23,21 -29,32 0,-1 1,-3 1,-4 37,-37 80,-79 85,-112z"/>
     <path class="fil26" d="M198 210c0,-2 0,-5 -1,-7 8,8 16,13 23,17 2,2 4,5 6,7 -11,18 -64,61 -106,90 16,-17 47,-34 81,-50 -31,13 -77,40 -93,61 -1,2 -3,6 -4,7 0,-2 2,-8 3,-10 40,-38 91,-76 91,-115z"/>
     <path class="fil27" d="M149 231c1,-9 1,-17 1,-25 4,25 0,49 -36,75 -29,22 -39,49 -45,74 -5,29 -5,58 -16,86 2,-9 5,-19 8,-28 -15,34 -21,69 -26,105 -2,0 -4,0 -6,0 3,-29 7,-57 16,-85 8,-16 15,-29 16,-45 5,-28 11,-57 23,-84 28,-24 65,-49 65,-73z"/>
     <path class="fil28" d="M220 220c4,1 7,3 10,4 0,1 1,3 1,4 1,4 2,12 2,16 -1,7 -4,14 -8,20 3,-8 4,-17 3,-26 -3,8 -8,13 -13,26 -57,27 -90,56 -100,86 -3,10 -7,19 -9,29 -1,1 -1,4 -2,5 -2,23 -15,44 -26,67 -10,21 -14,44 -18,67 -3,0 -5,0 -7,0 1,-9 3,-19 5,-28 2,-9 4,-17 7,-26 0,3 -1,10 -1,13 8,-20 21,-42 31,-69 4,-22 13,-50 20,-77 1,-3 3,-8 4,-11 0,-1 1,-2 1,-3 42,-29 95,-72 106,-90 -2,-2 -4,-5 -6,-7z"/>
     <path class="fil29" d="M215 264c5,-13 10,-18 13,-26 1,9 0,18 -3,26 -34,18 -71,32 -94,51 -8,12 -12,23 -16,35 10,-30 43,-59 100,-86z"/>
     <path class="fil30" d="M149 231c0,24 -37,49 -65,73 -6,6 -10,13 -13,20 10,-21 33,-41 70,-62 5,-10 7,-21 8,-31z"/>
     <path class="fil31" d="M225 264c-7,11 -58,30 -76,46 -1,2 -3,4 -4,6 -9,11 -14,22 -18,32 4,-18 17,-36 37,-53 -12,5 -29,20 -38,33 -6,18 -14,35 -20,51 2,-10 6,-19 9,-29 4,-12 8,-23 16,-35 23,-19 60,-33 94,-51z"/>
     <path class="fil32" d="M15 324c11,-23 32,-47 66,-70 -9,10 -24,19 -35,28 -22,26 -32,52 -39,85 -1,-13 5,-30 8,-43z"/>
     <path class="fil33" d="M57 362c8,-35 30,-67 84,-100 -37,21 -60,41 -70,62 3,-7 7,-14 13,-20 -12,27 -18,56 -23,84 -1,16 -8,29 -16,45 -9,28 -13,56 -16,85 -1,0 -1,0 -2,0 1,-28 5,-56 12,-83 4,-7 8,-14 12,-22 4,-16 4,-34 6,-51z"/>
     <path class="fil34" d="M91 319c15,-19 43,-37 79,-55 -56,33 -80,69 -85,104 -1,17 -1,34 -7,50 -5,10 -11,21 -15,31 -5,3 1,-13 5,-22 8,-36 12,-73 23,-108z"/>
     <path class="fil35" d="M108 328c16,-21 62,-48 93,-61 -34,16 -65,33 -81,50 0,1 -1,2 -1,3 -14,21 -25,55 -24,88 -10,27 -23,49 -31,69 0,-3 1,-10 1,-13 19,-40 27,-85 39,-129 1,-1 3,-5 4,-7z"/>
     <path class="fil36" d="M28 416c4,-25 7,-51 13,-75 7,-24 22,-47 51,-66 -29,25 -43,48 -48,73 7,-17 18,-42 37,-59 -26,42 -37,84 -44,124 -12,25 -21,52 -28,77 3,-25 10,-50 19,-74z"/>
     <path class="fil37" d="M46 282c-14,26 -24,55 -30,81 0,10 1,20 2,30 -6,18 -13,35 -18,54l0 -47c3,-11 5,-23 7,-33 7,-33 17,-59 39,-85z"/>
     <path class="fil38" d="M99 327c6,-11 16,-22 29,-32 -10,10 -17,20 -21,30 -1,2 -3,8 -3,10 -12,44 -20,89 -39,129 -3,9 -5,17 -7,26 1,-22 10,-48 20,-72 6,-16 6,-33 7,-50 6,-23 12,-45 28,-68 -5,8 -10,15 -13,23 0,1 -1,3 -1,4z"/>
     <path class="fil39" d="M124 328c9,-13 27,-28 39,-33 -21,17 -34,35 -38,53 4,-10 9,-21 18,-32 -5,24 -16,60 -17,91 -11,18 -25,35 -36,59 0,-3 0,-6 1,-8 -7,22 -12,42 -16,62 -4,1 -8,1 -12,0 4,-27 10,-55 21,-78 11,-17 19,-37 19,-58 0,-1 1,-4 1,-5 7,-16 14,-33 20,-51zm9 8c0,0 0,0 0,0 -8,15 -16,39 -17,62 4,-14 18,-41 17,-62z"/>
     <path class="fil40" d="M119 320c-1,3 -3,8 -4,11 -7,27 -16,55 -20,77 -1,-33 10,-67 24,-88z"/>
     <path class="fil41" d="M133 336c2,21 -13,48 -17,62 2,-23 10,-47 17,-62z"/>
     <path class="fil42" d="M60 518c4,-23 8,-46 18,-67 11,-23 24,-44 26,-67 0,21 -8,41 -19,58 -11,23 -17,51 -21,78 -1,0 -3,-2 -4,-2z"/>
     <path class="fil43" d="M0 447c5,-19 12,-36 18,-54 0,3 0,5 1,8 -5,16 -10,31 -15,47 2,-1 4,-2 6,-3 -4,20 -8,41 -10,61l0 -59z"/>
     <path class="fil44" d="M65 414c1,-1 3,-3 4,-3 -7,26 -19,59 -21,89 4,-15 8,-33 15,-51 4,-10 10,-21 15,-31 -10,24 -19,50 -20,72 -2,9 -4,19 -5,28 -4,0 -8,0 -11,0 2,-35 9,-70 23,-104z"/>
     <path class="fil45" d="M61 413c-3,9 -6,19 -8,28 -7,25 -11,51 -12,77 -1,0 -4,0 -6,0 5,-36 11,-71 26,-105z"/>
     <path class="fil46" d="M39 435c-7,27 -11,55 -12,83 -3,0 -6,0 -9,0 4,-29 11,-57 21,-83z"/>
     <path class="fil47" d="M0 508c4,-21 8,-41 14,-60 -4,23 -7,46 -10,69 -1,0 -3,0 -4,0l0 -9z"/>
    </g>
   </g>
  </g>
  <path class="fil48 str0" d="M228 262c0,0 -5,9 -43,17 -38,7 -61,79 -69,88 0,0 6,7 0,39 -9,21 -43,90 -43,105 -10,17 -73,-1 -73,-1l0 -421c0,0 196,70 215,141 12,-3 17,18 17,18 0,0 3,5 -4,14z"/>
  <path class="fil49" d="M0 89c0,0 114,43 138,57 25,14 68,50 74,57 6,8 5,13 9,22 3,10 13,13 13,30 -5,7 -6,7 -6,7 0,0 -10,-14 -15,-16 -75,-25 -145,-52 -210,-87l-2 -21 -1 -47 0 -2z"/>
  <path class="fil50" d="M0 89c0,0 114,43 138,57 25,14 68,50 74,57 6,8 5,13 9,22 3,10 13,13 13,30 -5,7 -6,7 -6,7 5,-22 -18,-30 -36,-36 -11,-3 -21,-10 -32,-13 -14,-5 -27,-10 -41,-15 -17,-7 -35,-11 -52,-20 -22,-11 -44,-25 -66,-40l-1 -47 0 -2z"/>
  <path class="fil51" d="M16 538c9,-2 18,-2 12,0 -6,3 77,7 95,0 18,-7 -6,-8 -11,-10 -4,-2 -15,-1 -18,-2 0,-1 6,-3 4,-5 -2,-2 -4,-5 -5,-7 -2,-3 -11,-6 -13,-9 2,-2 5,-3 4,-5 -1,-1 -4,-4 -6,-6 -2,-2 -4,-3 -4,-4 1,-1 2,-1 2,-2 0,-4 -9,-8 -14,-11 -8,-5 -17,-6 -28,-2 -14,-3 -34,3 -34,3l0 60c0,0 8,3 16,0z"/>
  <path class="fil52" d="M94 526c0,0 -6,0 -8,1 -7,3 -18,14 -21,15 0,0 -11,1 -28,1 -10,0 -9,-5 -9,-5 0,0 33,-11 38,-16 -4,6 -6,12 -9,14 -2,2 20,-17 23,-19 3,-2 9,-1 11,2 2,2 5,0 7,2 2,1 -4,5 -4,5z"/>
  <path class="fil52" d="M81 504c0,0 3,-2 3,-3 0,-1 -16,-5 -22,-7 -6,-2 -41,26 -48,32 12,-4 49,-28 52,-26 13,0 15,4 15,4z"/>
  <path class="fil52" d="M74 491c0,0 2,-2 2,-3 0,-1 -5,-3 -9,-3 -3,-1 -2,-3 -9,0 -6,-2 -11,-2 -15,-1 -9,2 -43,8 -43,8l0 22c0,0 19,-12 29,-16 10,-4 -8,14 -10,16 -3,2 24,-18 28,-21 4,-3 14,-8 16,-7 2,2 15,8 15,8l-4 -3z"/>
  <path class="fil53" d="M123 538c0,0 2,-3 0,-3 -2,-1 -52,3 -52,3l52 0z"/>
  <path class="fil52" d="M93 514c-4,-6 -9,-8 -12,-10 -3,-1 -13,1 -11,2 2,2 4,1 3,1 -46,12 -70,31 -67,32 7,2 9,2 25,2 0,0 30,-37 62,-27z"/>
  <path class="fil54" d="M165 527c6,13 -4,37 -24,49 -19,12 -104,3 -116,0 -12,-3 45,-52 66,-47 20,6 69,-15 74,-2z"/>
  <path class="fil51" d="M162 524c0,0 -31,15 -57,33 38,9 -82,17 -82,17 0,0 46,14 103,-11 19,-9 27,-15 27,-15 0,0 -13,14 -27,20 -15,7 -47,13 -47,13 0,0 42,4 58,-3 14,-6 27,-29 28,-40 0,-11 5,-8 -3,-14z"/>
  <path class="fil51" d="M128 547c0,0 29,-16 32,-19 -15,5 -26,3 -33,3 -6,0 -26,6 -27,6 -1,0 6,-5 14,-9 -12,-5 -35,12 -40,20 -2,5 4,-10 4,-10 0,0 -14,4 -27,13 -14,9 -10,16 -10,16 0,0 46,-34 72,-29 14,-4 -15,4 -21,14 9,-7 33,-13 37,-13 4,0 -36,18 -53,24 11,0 52,-16 52,-16z"/>
  <path class="fil55" d="M34 107c0,0 2,-4 3,-8 0,-4 0,-5 0,-5 0,0 1,10 0,11 0,2 -2,2 -2,3 -1,0 -2,1 -2,1l1 -2z"/>
  <path class="fil56" d="M108 106c0,0 -2,1 -3,1 0,0 -1,3 -1,3 0,1 -2,5 -3,6 0,0 -3,0 -4,0 -1,0 -1,-2 0,-3 1,-1 2,0 3,-1 1,-1 1,-2 1,-3 0,-1 -1,-2 0,-2 0,-1 1,-2 1,-2l0 0c0,0 -2,1 -2,1 0,1 0,3 -1,4 -1,1 -1,0 -2,1 0,1 -2,2 -2,4 0,0 -1,0 -1,1 0,0 -1,1 -2,1 0,0 0,-3 0,-3 -1,-1 -1,-1 0,-2 1,0 1,-2 1,-2l0 -2 -1 -1c0,0 0,3 0,3 0,1 -2,2 -2,3 0,1 1,3 1,3 0,1 -1,2 -2,2 0,0 -1,3 -1,4 -1,-1 -1,-3 -1,-3 -1,2 -1,-3 -1,-3 0,0 -1,-1 -1,-1 0,-1 1,-2 1,-3 0,0 0,-2 0,-2 0,-1 0,-3 0,-3l-1 1 0 2c0,0 0,1 0,1 0,1 0,1 0,2 0,0 0,2 0,2 -1,0 -1,-1 -1,-1 0,-1 0,0 0,-1 0,-1 -1,-2 -1,-3 0,-1 -1,0 -1,-1 0,-1 0,-3 0,-3 0,0 0,-1 0,-1l-1 0c0,0 1,1 1,1 0,0 0,1 0,2 0,1 0,1 0,2 0,1 1,1 1,2 0,1 0,2 -1,2 0,0 -1,-1 -1,-1 0,0 -1,-4 -1,-5 0,0 0,-2 0,-2 0,0 -1,-1 -1,-1l0 0c0,0 0,1 1,1 0,0 0,3 0,3 0,0 0,2 0,4 0,2 2,2 3,3 1,1 1,2 2,4 0,0 0,0 0,0 -1,1 0,0 0,1 0,1 1,1 1,2 -1,1 -2,2 -3,1 -1,0 1,1 3,2 0,0 1,1 1,0 1,0 1,-1 2,-2 1,-1 2,0 2,-1 -1,0 0,0 0,0 2,-2 3,-4 5,-4 2,-1 5,-1 7,-3 1,-2 2,-5 2,-5 0,-1 0,-3 1,-3 0,0 2,-1 2,-1l0 -1z"/>
  <path class="fil56" d="M21 90c-2,-3 -2,-6 -6,-7 -3,-2 -8,-2 -9,-5 -1,-4 -1,-7 -1,-8 0,-1 1,-4 0,-4 -1,0 1,-6 1,-6l2 -2c0,0 -3,6 -2,7 1,0 1,4 1,4 0,1 1,8 1,9 0,0 5,1 6,1 1,0 3,-2 2,-4 -1,-1 -3,-1 -4,-2 -1,-2 -1,-3 0,-4 0,-2 1,-3 1,-4 0,0 -1,-2 -1,-2l0 0c0,0 2,1 2,2 0,1 -2,4 -1,6 2,1 2,0 3,1 1,2 3,4 2,6 0,1 2,1 2,2 -1,0 1,2 1,2 1,0 2,-4 3,-5 1,0 1,0 0,-2 -1,-1 0,-3 0,-3l1 -4 1 0c0,0 -1,3 -1,4 0,1 2,4 2,5 -1,1 -3,3 -3,4 0,1 1,3 2,3 0,0 0,8 2,6 1,-1 2,5 5,4 1,-1 0,4 -3,4 -1,0 -4,-2 -5,-2 0,-1 -1,-2 -2,-4 -1,-1 -2,0 -2,-2 1,0 0,0 0,0z"/>
  <path class="fil56" d="M25 100c0,0 1,-1 3,-2 2,-1 4,-3 4,-5 1,-2 1,-4 0,-6 -3,-1 -5,-3 -7,-5 -2,-2 4,-12 4,-13 1,-3 -3,-6 -3,-6 0,0 -5,1 -8,-1 -3,-3 -4,-11 -4,-11l2 0c0,0 2,8 5,9 3,0 4,0 4,-1 1,-2 2,-7 4,-9 2,-1 5,-4 5,-4l2 2c0,0 -6,3 -7,7 -2,6 5,9 4,13 0,4 -4,9 -2,11 2,3 4,0 6,-2 2,-2 3,-6 3,-9 1,-3 2,-8 6,-8 5,1 11,-9 11,-9l3 -3 6 1c0,0 -2,3 -5,3 -2,0 -7,12 -13,12 -4,-1 -4,13 -6,15 -2,2 -4,6 -4,6 0,0 2,4 4,4 2,0 10,-2 10,-6 0,-3 2,-3 5,-3 5,0 5,-6 5,-6l2 0c0,0 1,3 -1,6 -2,2 -2,5 2,5 2,0 4,0 5,-1 2,-1 3,-3 3,-3l3 0c0,0 -4,6 -7,6 -3,0 -7,1 -8,-1 -2,-2 -6,-3 -6,-1 0,3 -5,6 -7,8 -3,2 -3,5 -3,8 0,2 3,10 6,14 -5,-5 -18,-12 -21,-12 -4,-1 -8,-4 -5,-3z"/>
  <path class="fil55" d="M32 81c0,0 -2,0 -2,1 0,1 -2,-2 -2,-4 1,-2 3,-5 3,-5 0,0 -1,5 -1,6 1,1 2,2 2,2z"/>
  <path class="fil55" d="M29 62c0,0 0,-1 2,1 1,2 2,3 2,4 0,1 0,2 0,2 0,0 -1,-3 -2,-4 -1,-1 -2,-2 -2,-2 0,0 3,5 2,5 0,-1 -2,-4 -2,-5 -1,-1 -1,-5 -1,-5 0,0 0,3 1,4z"/>
  <path class="fil57" d="M15 52c1,0 1,-1 0,-1 0,1 0,1 0,1z"/>
  <path class="fil58" d="M86 49c0,0 0,0 0,0 0,0 0,0 0,0z"/>
  <path class="fil59" d="M47 58c-1,0 -1,0 -1,0 0,0 0,0 1,0z"/>
  <path class="fil60" d="M85 55c0,0 0,0 0,0 0,1 1,1 0,0z"/>
  <path class="fil61" d="M57 72c6,2 10,8 8,13 -1,4 -8,7 -14,5 -2,-1 -4,-5 -6,-4 -3,2 -6,4 -12,3 -5,-2 -9,-6 -8,-9 0,-2 3,-2 3,-3 -1,-2 -3,-4 -2,-6 1,-3 5,-4 9,-4 1,0 0,-1 1,-1 1,-4 6,-5 11,-4 5,2 8,6 8,10 0,0 1,0 2,0z"/>
  <path class="fil62" d="M102 54c10,1 17,9 16,17 -1,8 -10,14 -20,12 -4,0 -8,-6 -11,-4 -4,4 -9,9 -18,8 -8,-1 -14,-5 -16,-10 -1,0 -2,0 -3,0 -4,0 -8,-6 -10,-4 -5,4 -9,9 -19,8 -9,-2 -13,-8 -16,-12 -3,-5 -2,-10 -1,-14 1,-6 6,-9 14,-10 0,0 0,-1 0,-1 1,-7 9,-11 17,-10 9,1 14,7 15,13 0,1 3,0 4,0 4,1 7,2 10,4 1,0 1,0 1,0 1,0 0,0 1,-1 0,-6 8,-11 17,-10 9,2 14,7 15,13 0,1 2,0 4,1z"/>
  <path class="fil63" d="M107 98c6,2 10,8 8,13 -2,5 -8,7 -14,5 -3,-1 -4,-5 -6,-4 -3,2 -7,4 -12,2 -6,-2 -10,-7 -9,-10 1,-1 3,-1 3,-2 0,-3 -2,-5 -1,-7 1,-3 5,-4 9,-3 1,0 0,-1 1,-1 1,-4 6,-6 12,-4 5,2 7,6 7,10 0,1 2,1 2,1z"/>
  <path class="fil64" d="M50 27c7,4 11,11 9,17 -3,7 -11,9 -19,6 -3,-2 -5,-7 -7,-6 -4,2 -9,5 -16,2 -7,-3 -11,-9 -10,-13 1,-1 4,-1 4,-3 0,-3 -3,-6 -1,-8 1,-4 6,-5 12,-4 1,0 0,-1 1,-1 2,-5 9,-7 15,-4 7,3 9,8 9,13 0,1 2,1 3,1z"/>
  <path class="fil65" d="M95 31c8,1 14,7 13,14 -1,7 -9,11 -17,10 -3,-1 -6,-6 -8,-4 -4,3 -8,7 -15,5 -8,-1 -13,-5 -13,-9 0,-2 4,-3 3,-4 -1,-3 -4,-5 -3,-8 0,-4 5,-7 11,-7 0,0 0,-1 0,-1 1,-5 7,-9 15,-7 6,1 10,5 11,10 0,1 2,1 3,1z"/>
  <path class="fil66" d="M42 11c-8,2 -14,8 -13,15 1,6 9,11 17,9 3,0 6,-5 8,-3 4,3 8,6 15,5 8,-1 14,-6 13,-10 0,-1 -3,-2 -3,-4 1,-3 4,-5 3,-7 0,-4 -5,-7 -11,-7 0,-1 0,-1 0,-1 -1,-6 -7,-9 -14,-8 -7,1 -11,6 -12,11 0,1 -2,0 -3,0z"/>
  <path class="fil67" d="M91 99c5,1 8,5 7,9 -1,3 -6,5 -10,4 -2,0 -4,-3 -5,-2 -2,1 -5,3 -9,2 -4,-1 -7,-4 -7,-6 1,-1 2,-1 2,-2 0,-2 -2,-3 -1,-5 0,-2 3,-3 7,-3 0,0 0,-1 0,-1 0,-3 4,-4 8,-3 4,1 6,4 6,6 0,1 2,1 2,1z"/>
 </g>
</svg>
