<?xml version="1.0" encoding="UTF-8"?>
<!DOCTYPE svg PUBLIC "-//W3C//DTD SVG 1.1//EN" "http://www.w3.org/Graphics/SVG/1.1/DTD/svg11.dtd">
<!-- Creator: CorelDRAW X7 -->
<svg xmlns="http://www.w3.org/2000/svg" xml:space="preserve" width="1.61529in" height="1.31236in" version="1.1" style="shape-rendering:geometricPrecision; text-rendering:geometricPrecision; image-rendering:optimizeQuality; fill-rule:evenodd; clip-rule:evenodd"
viewBox="0 0 1770 1438"
 xmlns:xlink="http://www.w3.org/1999/xlink">
 <defs>
  <style type="text/css">
   <![CDATA[
    .str0 {stroke:#441600;stroke-width:10.9507}
    .fil1 {fill:#441600}
    .fil2 {fill:#AB5623}
    .fil0 {fill:white;fill-rule:nonzero}
   ]]>
  </style>
 </defs>
 <g id="Layer_x0020_1">
  <metadata id="CorelCorpID_0Corel-Layer"/>
  <path class="fil0" d="M1597 675c-1,-2 -2,-3 -4,-5l-1 -1c-2,-2 -11,-11 -25,-25 -97,-99 -568,-485 -715,-534 -1,44 -2,83 -3,117 -2,42 -3,75 -4,105 0,8 -1,16 -3,23 -11,42 -53,66 -93,54l-581 -200c-4,1 -16,41 -32,100 -27,104 -41,253 -41,402l0 0c0,151 14,300 41,403 16,60 29,100 32,99l580 -200 0 1c6,-2 12,-3 18,-3 42,-2 76,32 78,76 1,32 2,70 4,112l0 2 4 111c146,-47 613,-429 713,-531 15,-15 24,-24 27,-27l3 -3 2 -3c9,-11 14,-24 14,-36 0,-13 -5,-26 -14,-37l0 0z"/>
  <path class="fil0" d="M1704 571c5,4 10,10 15,16l0 0 1 0c33,38 50,85 50,132 0,47 -17,94 -50,132 -2,2 -4,4 -5,5 -5,5 -9,10 -13,13 -4,4 -11,11 -22,22 -111,109 -637,539 -813,547 -77,3 -125,-35 -128,-128l-5 -124 0 -2 -1 -12 -475 162c-104,30 -173,-54 -212,-196 -31,-112 -46,-266 -46,-419l0 0c0,-154 16,-308 46,-419 39,-143 108,-226 212,-197l0 1 0 -1 476 163 1 -9c1,-39 2,-82 4,-127l0 -1c2,-93 48,-131 124,-129l1 0 0 0 5 0c180,14 705,443 813,549 10,10 16,16 20,19l2 3z"/>
  <path class="fil1" d="M1691 656c58,51 58,134 0,184 -33,29 -832,761 -842,508 -3,-85 -6,-192 -9,-257l-558 182c-219,61 -219,-1111 0,-1050l559 182c3,-60 6,-165 8,-257 7,-254 811,481 842,508z"/>
  <path class="fil2 str0" d="M1597 620c56,50 56,133 0,184 -32,29 -719,728 -729,475 -3,-86 -6,-159 -8,-224l-634 181c-213,61 -213,-1111 0,-1050l635 182c2,-60 5,-131 7,-223 7,-255 699,447 729,475z"/>
 </g>
</svg>
