<?xml version="1.0" encoding="UTF-8"?>
<!DOCTYPE svg PUBLIC "-//W3C//DTD SVG 1.1//EN" "http://www.w3.org/Graphics/SVG/1.1/DTD/svg11.dtd">
<!-- Creator: CorelDRAW X7 -->
<svg xmlns="http://www.w3.org/2000/svg" xml:space="preserve" width="1.90672in" height="0.839291in" version="1.1" style="shape-rendering:geometricPrecision; text-rendering:geometricPrecision; image-rendering:optimizeQuality; fill-rule:evenodd; clip-rule:evenodd"
viewBox="0 0 1912 842"
 xmlns:xlink="http://www.w3.org/1999/xlink">
 <defs>
  <style type="text/css">
   <![CDATA[
    .str0 {stroke:#BC7718;stroke-width:3.00856}
    .str1 {stroke:white;stroke-width:3.00856}
    .str2 {stroke:white;stroke-width:51.5285;stroke-linecap:round;stroke-linejoin:round}
    .fil8 {fill:none}
    .fil13 {fill:none;fill-rule:nonzero}
    .fil5 {fill:#663300}
    .fil0 {fill:#985426}
    .fil10 {fill:#CC9933}
    .fil9 {fill:#FFFF99}
    .fil1 {fill:#FFFFCB}
    .fil14 {fill:#990000;fill-rule:nonzero}
    .fil6 {fill:url(#id4)}
    .fil11 {fill:url(#id5)}
    .fil7 {fill:url(#id6)}
    .fil3 {fill:url(#id7)}
    .fil12 {fill:url(#id8)}
    .fil4 {fill:url(#id9)}
    .fil2 {fill:url(#id10)}
   ]]>
  </style>
      <mask id="id0">
  <linearGradient id="id1" gradientUnits="userSpaceOnUse" x1="1724.43" y1="402.547" x2="1724.43" y2="436.81">
   <stop offset="0" style="stop-opacity:1; stop-color:white"/>
   <stop offset="1" style="stop-opacity:0; stop-color:white"/>
  </linearGradient>
       <rect style="fill:url(#id1)" x="1675" y="371" width="98.1849" height="98.1888"/>
      </mask>
      <mask id="id2">
  <linearGradient id="id3" gradientUnits="userSpaceOnUse" x1="213.162" y1="402.547" x2="213.162" y2="436.81">
   <stop offset="0" style="stop-opacity:1; stop-color:white"/>
   <stop offset="1" style="stop-opacity:0; stop-color:white"/>
  </linearGradient>
       <rect style="fill:url(#id3)" x="164" y="371" width="98.1849" height="98.1888"/>
      </mask>
  <linearGradient id="id4" gradientUnits="userSpaceOnUse" x1="1724.43" y1="375.194" x2="1724.43" y2="464.159">
   <stop offset="0" style="stop-opacity:1; stop-color:#663300"/>
   <stop offset="1" style="stop-opacity:1; stop-color:#CC9933"/>
  </linearGradient>
  <linearGradient id="id5" gradientUnits="userSpaceOnUse" xlink:href="#id4" x1="213.162" y1="375.194" x2="213.162" y2="464.159">
  </linearGradient>
  <radialGradient id="id6" gradientUnits="userSpaceOnUse" gradientTransform="matrix(0.00135648 1.26012 -1.26051 0.00135643 2217 -1743)" cx="1706.36" cy="407.301" r="14.0399" fx="1706.36" fy="407.301">
   <stop offset="0" style="stop-opacity:1; stop-color:#FFFF99"/>
   <stop offset="1" style="stop-opacity:1; stop-color:#CC9933"/>
  </radialGradient>
  <radialGradient id="id7" gradientUnits="userSpaceOnUse" gradientTransform="matrix(1.24666E-005 -0.395676 -1.09264 -2.47293E-005 1308 737)" cx="885.674" cy="386.272" r="714.912" fx="885.674" fy="386.272">
   <stop offset="0" style="stop-opacity:1; stop-color:#FFE1BB"/>
   <stop offset="1" style="stop-opacity:1; stop-color:#FDCF8F"/>
  </radialGradient>
  <radialGradient id="id8" gradientUnits="userSpaceOnUse" gradientTransform="matrix(0.00135648 1.26012 -1.26051 0.00135643 708 161)" xlink:href="#id6" cx="195.083" cy="407.301" r="14.0399" fx="195.083" fy="407.301">
  </radialGradient>
  <radialGradient id="id9" gradientUnits="userSpaceOnUse" gradientTransform="matrix(1.24674E-005 -0.392702 -1.0927 -2.45433E-005 1325 744)" cx="897.763" cy="391.362" r="608.479" fx="897.763" fy="391.362">
   <stop offset="0" style="stop-opacity:1; stop-color:#FFEBB9"/>
   <stop offset="1" style="stop-opacity:1; stop-color:#FDE09C"/>
  </radialGradient>
  <radialGradient id="id10" gradientUnits="userSpaceOnUse" gradientTransform="matrix(1.24664E-005 -0.400638 -1.09261 -2.50392E-005 1302 738)" cx="881.97" cy="384.401" r="747.473" fx="881.97" fy="384.401">
   <stop offset="0" style="stop-opacity:1; stop-color:#FFD6A1"/>
   <stop offset="1" style="stop-opacity:1; stop-color:#FDBD66"/>
  </radialGradient>
 </defs>
 <g id="Layer_x0020_1">
  <metadata id="CorelCorpID_0Corel-Layer"/>
  <g id="_2062200256">
   <g>
    <path class="fil0" d="M965 0c-19,0 -37,15 -55,15 -132,2 -256,13 -369,38 -58,13 -113,29 -164,49 -37,15 -68,34 -101,50 -39,18 -79,32 -110,51 -53,33 -94,67 -122,106 -25,34 -22,71 -39,112 -17,39 13,85 40,124 26,39 64,75 113,108 58,39 127,55 212,84 126,42 284,90 454,100 46,3 93,5 141,5 82,0 161,-5 237,-13 146,-16 265,-61 375,-103 66,-24 137,-39 186,-71 53,-35 75,-79 99,-120 22,-38 50,-73 50,-114 0,-35 -12,-68 -33,-98 -31,-43 -82,-83 -142,-123 -78,-50 -174,-95 -286,-130 -56,-18 -121,-14 -185,-25 -94,-17 -192,-45 -301,-45z"/>
    <path class="fil0" d="M965 94c-127,-1 -212,15 -307,36 -96,20 -184,47 -260,76 7,13 -4,10 30,34 35,23 -10,30 -76,-16 -75,30 -137,64 -182,99 -44,36 -71,68 -69,115 1,47 48,103 122,149 74,45 175,87 294,122 11,-22 20,-22 9,-75 -12,-52 31,-6 45,91 118,32 266,56 394,57 127,1 221,-16 320,-39 98,-22 188,-50 266,-81 -11,-18 -1,-23 -49,-39 -47,-17 28,-34 114,11 64,-28 117,-59 155,-92 38,-33 62,-60 63,-104 0,-44 -42,-99 -111,-142 -77,38 -130,26 -89,7 42,-18 32,-20 41,-35 -81,-43 -186,-82 -307,-115 -121,-32 -276,-58 -403,-59z"/>
    <path class="fil1" d="M965 55c-131,-1 -218,16 -315,39 -98,23 -187,51 -263,82 6,25 -2,34 41,64 44,29 -32,27 -103,-38 -67,29 -121,61 -161,95 -38,33 -63,60 -63,107 -1,46 46,105 122,150 77,46 181,88 304,122 2,-13 7,-1 -1,-42 -9,-40 19,-23 38,52 120,33 275,56 401,57 126,1 209,-14 304,-34 95,-19 182,-45 259,-73 -8,-6 10,-1 -26,-13 -36,-13 2,-32 75,-6 77,-29 140,-63 186,-99 45,-35 72,-72 70,-114 -1,-42 -33,-85 -85,-123 -83,53 -164,44 -114,22 50,-22 45,-34 54,-60 -80,-46 -186,-88 -310,-123 -122,-35 -282,-64 -413,-65z"/>
    <path class="fil2" d="M965 75c-130,-1 -216,16 -312,38 -96,23 -184,51 -260,82 7,18 -2,19 35,45 38,25 -18,29 -86,-24 -67,30 -122,62 -162,96 -39,34 -63,63 -62,109 0,46 45,104 118,149 72,45 171,87 288,121 5,-17 12,-11 2,-57 -10,-46 25,-16 41,70 119,33 271,58 398,59 127,1 215,-16 312,-37 97,-22 185,-50 262,-80 -10,-10 4,-9 -37,-23 -40,-15 11,-33 91,0 66,-29 122,-60 161,-94 39,-34 63,-66 62,-108 0,-42 -34,-88 -89,-128 -78,41 -136,29 -93,10 43,-19 35,-23 45,-41 -78,-46 -183,-88 -305,-123 -121,-35 -280,-63 -409,-64z"/>
    <path class="fil3" d="M965 94c-130,-1 -217,16 -312,38 -96,23 -184,51 -258,83 7,9 -6,3 25,24 32,21 -2,31 -64,-7 -61,27 -110,57 -146,89 -35,31 -56,58 -55,100 0,42 40,95 105,137 65,42 155,81 261,113 1,-11 7,3 -2,-36 -9,-39 18,-25 37,47 120,35 280,61 409,62 129,1 212,-15 306,-36 95,-21 181,-48 255,-78 -5,-3 16,4 -16,-7 -31,-11 -8,-29 58,-11 64,-27 116,-57 153,-89 37,-32 59,-64 58,-102 0,-38 -28,-78 -73,-113 -67,25 -96,10 -62,-5 35,-15 20,-11 28,-19 -72,-47 -175,-90 -296,-126 -121,-35 -281,-63 -411,-64z"/>
    <path class="fil4" d="M965 144c-115,0 -191,14 -275,34 -84,19 -161,44 -224,73 1,1 -17,-12 4,2 20,14 12,30 -30,9 -50,23 -91,49 -119,75 -29,27 -46,49 -46,84 1,34 31,77 82,111 50,34 120,67 204,93 0,-2 4,19 -1,-7 -6,-27 8,-32 25,15 109,34 264,60 380,60 116,1 180,-11 261,-29 81,-17 154,-39 217,-65 -14,-9 0,-13 27,-11 56,-24 103,-50 136,-78 33,-28 53,-57 52,-89 0,-32 -21,-64 -57,-93 -39,9 -58,2 -20,-15 -60,-43 -148,-81 -254,-112 -106,-32 -247,-56 -362,-57z"/>
    <g>
     <circle class="fil5" cx="1734" cy="426" r="56"/>
     <circle class="fil6" cx="1724" cy="420" r="56"/>
     <circle class="fil7 str0" cx="1724" cy="420" r="48"/>
     <path class="fil8 str1" style="mask:url(#id0)" d="M1724 372c-26,0 -47,21 -47,48 0,26 21,47 47,47 27,0 48,-21 48,-47 0,-27 -21,-48 -48,-48z"/>
     <g>
      <path class="fil5" d="M1752 394l0 0c-3,-3 -8,-3 -11,0l-18 18 -18 -18c-3,-3 -7,-3 -10,0l0 0c-3,3 -3,8 0,11l17 18 -16 16c-3,3 -3,8 0,10l0 0c3,3 8,3 11,0l16 -16 16 16c3,3 8,3 11,0l0 0c3,-2 3,-7 0,-10l-16 -16 18 -18c3,-3 3,-8 0,-11z"/>
      <path class="fil9" d="M1754 392l0 0c-3,-3 -8,-3 -11,0l-17 17 -18 -17c-3,-3 -8,-3 -11,0l0 0c-3,2 -3,7 0,10l18 18 -16 16c-3,3 -3,8 0,11l0 0c3,3 8,3 11,0l16 -16 16 16c3,3 8,3 11,0l0 0c3,-3 3,-8 0,-11l-17 -16 18 -18c3,-3 3,-8 0,-10z"/>
      <path class="fil10" d="M1753 393l0 0c-3,-3 -8,-3 -11,0l-18 18 -17 -18c-3,-3 -8,-3 -11,0l0 0c-3,3 -3,8 0,11l18 17 -16 16c-3,3 -3,8 0,11l0 0c3,3 7,3 10,0l16 -16 17 16c3,3 7,3 10,0l0 0c3,-3 3,-8 0,-11l-16 -16 18 -17c3,-3 3,-8 0,-11z"/>
     </g>
    </g>
    <g>
     <circle class="fil5" cx="222" cy="426" r="56"/>
     <circle class="fil11" cx="213" cy="420" r="56"/>
     <circle class="fil12 str0" cx="213" cy="420" r="48"/>
     <path class="fil8 str1" style="mask:url(#id2)" d="M213 372c-26,0 -47,21 -47,48 0,26 21,47 47,47 26,0 48,-21 48,-47 0,-27 -22,-48 -48,-48z"/>
     <g>
      <path class="fil5" d="M240 394l0 0c-3,-3 -7,-3 -10,0l-18 18 -18 -18c-3,-3 -8,-3 -11,0l0 0c-3,3 -3,8 0,11l18 18 -16 16c-3,3 -3,8 0,10l0 0c3,3 8,3 11,0l16 -16 16 16c3,3 8,3 11,0l0 0c3,-2 3,-7 0,-10l-16 -16 17 -18c3,-3 3,-8 0,-11z"/>
      <path class="fil9" d="M243 392l0 0c-3,-3 -8,-3 -11,0l-18 17 -17 -17c-3,-3 -8,-3 -11,0l0 0c-3,2 -3,7 0,10l18 18 -16 16c-3,3 -3,8 0,11l0 0c3,3 7,3 10,0l16 -16 17 16c3,3 7,3 10,0l0 0c3,-3 3,-8 0,-11l-16 -16 18 -18c3,-3 3,-8 0,-10z"/>
      <path class="fil10" d="M242 393l0 0c-3,-3 -8,-3 -11,0l-18 18 -18 -18c-3,-3 -7,-3 -10,0l0 0c-3,3 -3,8 0,11l17 17 -16 16c-3,3 -3,8 0,11l0 0c3,3 8,3 11,0l16 -16 16 16c3,3 8,3 11,0l0 0c3,-3 3,-8 0,-11l-16 -16 18 -17c3,-3 3,-8 0,-11z"/>
     </g>
    </g>
   </g>
   <g>
    <path class="fil13 str2" d="M496 337c-6,0 -11,-2 -14,-5 -4,-4 -6,-8 -6,-14 0,-6 3,-12 7,-16 4,-4 10,-6 16,-6 6,0 11,1 15,5 3,3 5,8 5,13 0,7 -2,12 -6,16 -5,5 -11,7 -17,7zm54 0c-6,0 -11,-2 -14,-5 -4,-4 -6,-8 -6,-14 0,-6 3,-12 7,-16 5,-4 10,-6 16,-6 6,0 11,1 15,5 4,3 5,8 5,13 0,7 -2,12 -6,16 -5,5 -10,7 -17,7zm32 177c-12,0 -20,-4 -24,-12 -9,8 -21,12 -35,12l-17 0c-23,0 -41,-6 -54,-20 -12,-13 -18,-29 -17,-47 0,-28 10,-49 29,-64 19,-16 45,-23 78,-22 12,0 22,3 31,9 -4,6 -6,17 -6,33l1 48c0,1 0,1 0,2 0,7 1,12 4,16 3,4 7,6 10,7l21 0 0 38 -21 0zm-75 -38c10,0 15,-6 15,-17l-2 -65c-11,3 -21,9 -30,20 -9,11 -13,22 -13,32 0,20 10,30 30,30z"/>
   </g>
   <g>
    <path id="1" class="fil13 str2" d="M698 514c-10,0 -17,-3 -22,-10 -6,7 -15,10 -27,10l-54 0 0 -38 30 0c5,-1 9,-2 11,-6 2,-3 3,-9 3,-17 0,-7 0,-19 -1,-37l0 -34c0,-6 2,-12 5,-16 4,-4 10,-5 17,-5 11,0 22,3 30,10 -4,5 -6,17 -6,34l1 50c0,6 2,11 5,15 3,4 6,5 9,6l21 0 0 38 -22 0zm-39 20c6,0 10,2 14,6 4,3 6,8 6,13 0,6 -2,12 -7,16 -4,4 -10,7 -17,7 -5,0 -10,-2 -14,-6 -3,-3 -5,-8 -5,-13 0,-6 2,-12 7,-16 4,-4 10,-7 16,-7z"/>
   </g>
   <g>
    <path id="2" class="fil13 str2" d="M753 337c-6,0 -11,-2 -14,-5 -4,-4 -6,-8 -6,-14 0,-6 3,-11 7,-15 5,-5 10,-7 16,-7 6,0 11,2 15,5 3,4 5,8 5,14 0,6 -2,11 -6,16 -5,4 -10,6 -17,6zm54 0c-6,0 -11,-2 -14,-5 -4,-4 -6,-8 -6,-14 0,-6 3,-11 7,-15 5,-5 10,-7 16,-7 6,0 11,2 15,5 3,4 5,8 5,14 0,6 -2,11 -6,16 -5,4 -11,6 -17,6zm10 177c-10,0 -18,-3 -23,-10 -6,7 -15,10 -27,10l-54 0 0 -38 30 0c5,0 9,-2 11,-6 2,-3 3,-9 3,-17 0,-7 0,-19 -1,-37l0 -34c0,-6 2,-12 5,-16 4,-3 10,-5 17,-5 11,0 22,3 30,10 -4,5 -6,17 -6,34l1 50c0,6 2,11 5,15 3,4 6,5 9,6l21 0 0 38 -21 0z"/>
   </g>
   <g>
    <path id="3" class="fil13 str2" d="M1064 514c-12,0 -20,-4 -24,-13 -4,6 -9,9 -15,11 -6,2 -16,2 -30,2l-164 0 0 -38 145 0c-2,-1 -20,-14 -54,-39 -30,-23 -52,-34 -65,-34 -9,-8 -14,-16 -15,-24 0,-8 2,-16 8,-22 5,-6 15,-12 30,-20 65,-33 101,-57 106,-71 14,12 22,23 23,33 0,8 -3,15 -10,20 -4,3 -25,13 -63,32 -17,9 -28,14 -33,17 10,5 37,25 81,59 33,26 54,37 64,34 1,4 1,9 0,15l53 0 0 38 -37 0z"/>
   </g>
   <g>
    <path id="4" class="fil13 str2" d="M1276 514c-14,0 -23,-6 -27,-18 -12,12 -29,18 -50,18l-26 0c-12,0 -21,-3 -27,-10 -5,7 -13,10 -23,10l-29 0 0 -38 29 0c3,0 6,-2 9,-6 3,-4 5,-9 5,-15l0 -51c0,-16 -1,-27 -5,-33 8,-6 18,-9 30,-9 33,-2 58,6 77,21 19,15 29,37 30,64 1,10 -1,20 -5,29l49 0 0 38 -37 0zm-79 -38c20,0 30,-10 30,-29 0,-10 -4,-21 -13,-32 -9,-11 -19,-18 -30,-20l-2 65c0,10 5,16 15,16z"/>
   </g>
   <g>
    <path id="5" class="fil13 str2" d="M1335 476c6,0 9,-2 12,-6 2,-3 3,-8 3,-16l-1 -85c-1,-45 -1,-72 -1,-81 0,-6 2,-11 6,-15 4,-4 9,-6 16,-6 12,0 22,3 30,10 -3,5 -5,17 -5,34l1 164c0,26 -12,39 -37,39l-53 0 0 -38 29 0z"/>
   </g>
   <g>
    <path id="6" class="fil13 str2" d="M1473 311c0,8 0,38 1,91l1 90c0,7 -2,12 -6,16 -4,4 -9,6 -16,6 -11,0 -22,-3 -30,-10 4,-6 5,-17 5,-35l-1 -91c-1,-53 -1,-83 -1,-90 0,-6 2,-12 6,-16 4,-4 9,-6 16,-6 12,0 22,4 30,10 -3,6 -5,18 -5,35z"/>
   </g>
   <path id="7" class="fil14" d="M496 337c-6,0 -11,-2 -14,-5 -4,-4 -6,-8 -6,-14 0,-6 3,-12 7,-16 4,-4 10,-6 16,-6 6,0 11,1 15,5 3,3 5,8 5,13 0,7 -2,12 -6,16 -5,5 -11,7 -17,7zm54 0c-6,0 -11,-2 -14,-5 -4,-4 -6,-8 -6,-14 0,-6 3,-12 7,-16 5,-4 10,-6 16,-6 6,0 11,1 15,5 4,3 5,8 5,13 0,7 -2,12 -6,16 -5,5 -10,7 -17,7zm32 177c-12,0 -20,-4 -24,-12 -9,8 -21,12 -35,12l-17 0c-23,0 -41,-6 -54,-20 -12,-13 -18,-29 -17,-47 0,-28 10,-49 29,-64 19,-16 45,-23 78,-22 12,0 22,3 31,9 -4,6 -6,17 -6,33l1 48c0,1 0,1 0,2 0,7 1,12 4,16 3,4 7,6 10,7l21 0 0 38 -21 0zm-75 -38c10,0 15,-6 15,-17l-2 -65c-11,3 -21,9 -30,20 -9,11 -13,22 -13,32 0,20 10,30 30,30z"/>
   <path id="8" class="fil14" d="M698 514c-10,0 -17,-3 -22,-10 -6,7 -15,10 -27,10l-54 0 0 -38 30 0c5,-1 9,-2 11,-6 2,-3 3,-9 3,-17 0,-7 0,-19 -1,-37l0 -34c0,-6 2,-12 5,-16 4,-4 10,-5 17,-5 11,0 22,3 30,10 -4,5 -6,17 -6,34l1 50c0,6 2,11 5,15 3,4 6,5 9,6l21 0 0 38 -22 0zm-39 20c6,0 10,2 14,6 4,3 6,8 6,13 0,6 -2,12 -7,16 -4,4 -10,7 -17,7 -5,0 -10,-2 -14,-6 -3,-3 -5,-8 -5,-13 0,-6 2,-12 7,-16 4,-4 10,-7 16,-7z"/>
   <path id="9" class="fil14" d="M753 337c-6,0 -11,-2 -14,-5 -4,-4 -6,-8 -6,-14 0,-6 3,-11 7,-15 5,-5 10,-7 16,-7 6,0 11,2 15,5 3,4 5,8 5,14 0,6 -2,11 -6,16 -5,4 -10,6 -17,6zm54 0c-6,0 -11,-2 -14,-5 -4,-4 -6,-8 -6,-14 0,-6 3,-11 7,-15 5,-5 10,-7 16,-7 6,0 11,2 15,5 3,4 5,8 5,14 0,6 -2,11 -6,16 -5,4 -11,6 -17,6zm10 177c-10,0 -18,-3 -23,-10 -6,7 -15,10 -27,10l-54 0 0 -38 30 0c5,0 9,-2 11,-6 2,-3 3,-9 3,-17 0,-7 0,-19 -1,-37l0 -34c0,-6 2,-12 5,-16 4,-3 10,-5 17,-5 11,0 22,3 30,10 -4,5 -6,17 -6,34l1 50c0,6 2,11 5,15 3,4 6,5 9,6l21 0 0 38 -21 0z"/>
   <path id="10" class="fil14" d="M1064 514c-12,0 -20,-4 -24,-13 -4,6 -9,9 -15,11 -6,2 -16,2 -30,2l-164 0 0 -38 145 0c-2,-1 -20,-14 -54,-39 -30,-23 -52,-34 -65,-34 -9,-8 -14,-16 -15,-24 0,-8 2,-16 8,-22 5,-6 15,-12 30,-20 65,-33 101,-57 106,-71 14,12 22,23 23,33 0,8 -3,15 -10,20 -4,3 -25,13 -63,32 -17,9 -28,14 -33,17 10,5 37,25 81,59 33,26 54,37 64,34 1,4 1,9 0,15l53 0 0 38 -37 0z"/>
   <path id="11" class="fil14" d="M1276 514c-14,0 -23,-6 -27,-18 -12,12 -29,18 -50,18l-26 0c-12,0 -21,-3 -27,-10 -5,7 -13,10 -23,10l-29 0 0 -38 29 0c3,0 6,-2 9,-6 3,-4 5,-9 5,-15l0 -51c0,-16 -1,-27 -5,-33 8,-6 18,-9 30,-9 33,-2 58,6 77,21 19,15 29,37 30,64 1,10 -1,20 -5,29l49 0 0 38 -37 0zm-79 -38c20,0 30,-10 30,-29 0,-10 -4,-21 -13,-32 -9,-11 -19,-18 -30,-20l-2 65c0,10 5,16 15,16z"/>
   <path id="12" class="fil14" d="M1335 476c6,0 9,-2 12,-6 2,-3 3,-8 3,-16l-1 -85c-1,-45 -1,-72 -1,-81 0,-6 2,-11 6,-15 4,-4 9,-6 16,-6 12,0 22,3 30,10 -3,5 -5,17 -5,34l1 164c0,26 -12,39 -37,39l-53 0 0 -38 29 0z"/>
   <path id="13" class="fil14" d="M1473 311c0,8 0,38 1,91l1 90c0,7 -2,12 -6,16 -4,4 -9,6 -16,6 -11,0 -22,-3 -30,-10 4,-6 5,-17 5,-35l-1 -91c-1,-53 -1,-83 -1,-90 0,-6 2,-12 6,-16 4,-4 9,-6 16,-6 12,0 22,4 30,10 -3,6 -5,18 -5,35z"/>
  </g>
 </g>
</svg>
