<?xml version="1.0" encoding="UTF-8"?>
<!DOCTYPE svg PUBLIC "-//W3C//DTD SVG 1.1//EN" "http://www.w3.org/Graphics/SVG/1.1/DTD/svg11.dtd">
<!-- Creator: CorelDRAW X7 -->
<svg xmlns="http://www.w3.org/2000/svg" xml:space="preserve" width="1.24231in" height="0.899291in" version="1.1" style="shape-rendering:geometricPrecision; text-rendering:geometricPrecision; image-rendering:optimizeQuality; fill-rule:evenodd; clip-rule:evenodd"
viewBox="0 0 763 552"
 xmlns:xlink="http://www.w3.org/1999/xlink">
 <defs>
  <style type="text/css">
   <![CDATA[
    .fil1 {fill:#FEFEFE;fill-rule:nonzero}
    .fil0 {fill:#003399;fill-rule:nonzero}
    .fil2 {fill:#00B07A;fill-rule:nonzero}
   ]]>
  </style>
 </defs>
 <g id="Layer_x0020_1">
  <metadata id="CorelCorpID_0Corel-Layer"/>
  <g id="_809552912">
   <path class="fil0" d="M47 434c0,5 -2,10 -5,15 -3,4 -8,7 -13,7 -6,0 -11,-3 -14,-7 -3,-5 -5,-10 -5,-15l0 -24 -10 0 0 25c0,8 3,16 9,22 5,5 12,8 20,8 8,0 14,-3 20,-9 5,-6 8,-13 8,-21l0 -25 -10 0 0 24z"/>
   <polygon class="fil0" points="34,392 24,392 24,401 34,401 "/>
   <path class="fil0" d="M85 410c-11,0 -20,8 -20,20 0,12 8,21 20,21 4,0 8,-2 9,-5 0,7 -3,11 -9,11l0 8c13,0 19,-5 19,-16l0 -19c0,-12 -7,-20 -19,-20zm0 31l0 0c-6,0 -9,-5 -9,-11 0,-6 3,-11 8,-11 6,0 10,4 10,12 0,5 -4,10 -9,10z"/>
   <polygon class="fil0" points="206,392 196,392 196,401 206,401 "/>
   <polygon class="fil0" points="215,377 205,377 205,387 215,387 "/>
   <polygon class="fil0" points="213,401 223,401 223,392 213,392 "/>
   <path class="fil0" d="M230 430c0,7 -2,10 -7,10l-10 0c1,-1 2,-5 2,-11l0 -19 -10 0 0 20c0,7 -3,10 -8,10l-9 0 0 0c1,-2 1,-5 1,-11l0 -19 -10 0 0 20c0,7 -3,10 -8,10l-5 0 -2 0 -15 0 -3 0 -12 0 0 -30 -10 0 0 34c0,9 -5,13 -13,13l0 8c12,0 21,-5 22,-14l13 0 3 0 15 0 2 0 57 0c10,0 17,-9 17,-22l0 -19 -10 0 0 20z"/>
   <path class="fil0" d="M289 431c0,3 0,5 -1,6 -1,2 -3,3 -6,3l-5 0 -4 0 -2 0c-4,0 -7,0 -8,-1 -2,-2 -3,-4 -3,-9l0 -37 -10 0 0 41c0,5 1,9 4,12 2,3 6,5 11,5l8 0 4 0 7 0c10,0 15,-6 15,-17l0 -24 -10 0 0 21z"/>
   <polygon class="fil0" points="299,392 289,392 289,401 299,401 "/>
   <polygon class="fil0" points="528,392 518,392 518,401 528,401 "/>
   <path class="fil0" d="M612 431c0,3 -1,5 -1,6 -1,2 -3,3 -6,3l-6 0 -3 0 -6 0 0 -2c0,-6 -2,-11 -5,-15 -4,-4 -9,-6 -15,-6 -6,0 -11,2 -15,6 -3,3 -5,8 -5,14 0,1 0,2 0,3l-7 0 -3 0 -14 0c1,-1 2,-5 2,-10l0 -20 -10 0 0 20c0,4 -1,6 -1,7 -1,2 -3,3 -6,3l-8 0 -2 0 -15 0 -2 0 -6 0c0,-22 -12,-39 -31,-43l-1 9c13,3 22,16 22,32 0,0 0,1 0,2l-12 0c1,-3 2,-7 2,-9 0,-11 -7,-17 -18,-17 -10,0 -17,6 -17,17 0,3 0,6 2,9l-11 0 -2 0 -14 0 -3 0 -12 0c1,-2 1,-3 1,-5l0 -42 -10 0 0 41c0,12 -8,22 -19,22 -11,0 -18,-10 -18,-22l0 -8 -10 0 0 9c0,17 13,30 28,30 10,0 20,-5 25,-14l15 0 3 0 14 0 2 0 70 0 2 0 15 0 2 0 37 0 3 0 11 0c4,5 9,7 16,7 7,0 12,-2 16,-7l10 0 3 0 8 0c10,0 15,-6 15,-17l0 -41 -10 0 0 38zm-172 10l0 0c-4,0 -8,-5 -8,-10 0,-5 3,-9 8,-9 5,0 9,3 9,9 0,5 -4,10 -9,10zm137 5l0 0c-1,2 -4,3 -7,3 -6,0 -10,-5 -10,-12 0,-3 1,-6 2,-8 2,-2 5,-3 8,-3 3,0 5,1 7,3 2,3 3,5 3,9 0,3 -1,6 -3,8z"/>
   <polygon class="fil0" points="631,451 641,451 641,393 631,393 "/>
   <path class="fil0" d="M682 444c0,9 -4,13 -13,13l0 8c16,0 23,-6 23,-22l0 -33 -10 0 0 34z"/>
   <polygon class="fil0" points="701,451 711,451 711,393 701,393 "/>
   <path class="fil0" d="M745 411c-3,-1 -5,-1 -6,-1 -1,0 -4,0 -9,0l0 9c3,0 6,0 9,1 9,2 14,9 14,20l-33 0 0 11 43 0 0 -11c0,-15 -6,-25 -18,-29z"/>
   <path class="fil0" d="M20 504c3,0 5,0 8,1 3,1 5,3 7,5 1,2 3,4 4,7 1,3 2,6 2,10 0,4 -1,7 -2,10 -1,3 -2,5 -4,7 -1,3 -4,4 -6,6 -3,1 -6,1 -9,1l-20 0 0 -47 20 0zm-1 39l0 0c1,0 3,-1 4,-1 2,-1 3,-1 4,-3 1,-1 2,-2 2,-4 1,-2 1,-4 1,-7 0,-2 0,-4 0,-6 -1,-2 -1,-4 -2,-5 -1,-2 -3,-3 -5,-3 -1,-1 -3,-1 -6,-1l-7 0 0 30 9 0z"/>
   <path class="fil0" d="M46 527c0,-2 1,-4 2,-5 1,-2 2,-3 3,-4 2,0 3,-1 5,-1 2,-1 4,-1 6,-1 1,0 3,0 5,0 2,1 3,1 4,2 2,0 3,1 4,3 1,1 1,3 1,5l0 18c0,1 0,3 1,4 0,2 0,3 0,3l-9 0c0,0 0,-1 0,-1 0,-1 0,-1 0,-2 -2,2 -4,3 -6,3 -2,1 -4,1 -6,1 -1,0 -3,0 -4,0 -1,-1 -3,-1 -4,-2 -1,-1 -1,-2 -2,-3 -1,-2 -1,-3 -1,-5 0,-2 0,-4 1,-5 1,-1 2,-2 3,-3 1,-1 2,-1 3,-2 2,0 3,0 4,-1 2,0 3,0 4,0 2,0 3,0 4,-1 1,0 2,0 2,-1 1,0 1,-1 1,-2 0,-1 0,-2 0,-2 -1,-1 -1,-2 -2,-2 0,0 -1,0 -1,-1 -1,0 -2,0 -3,0 -1,0 -3,1 -4,1 -1,1 -2,3 -2,4l-9 0zm21 7l0 0c0,1 -1,1 -1,1 -1,1 -1,1 -2,1 -1,0 -1,0 -2,0 -1,0 -2,0 -2,0 -1,1 -2,1 -2,1 -1,0 -2,1 -2,1 -1,0 -1,1 -1,1 -1,1 -1,2 -1,3 0,0 0,1 1,2 0,0 0,1 1,1 0,0 1,1 2,1 0,0 1,0 2,0 2,0 3,0 4,-1 1,-1 2,-1 2,-2 1,-1 1,-2 1,-3 0,-1 0,-1 0,-2l0 -4z"/>
   <path class="fil0" d="M92 517l0 6 0 0c1,-1 1,-2 2,-3 1,-1 1,-1 2,-2 1,-1 2,-1 3,-2 1,0 3,0 4,0 0,0 1,0 2,0l0 9c-1,0 -1,0 -2,0 0,0 -1,0 -2,0 -1,0 -3,0 -4,1 -1,0 -2,1 -3,2 0,1 -1,2 -1,3 0,2 -1,3 -1,5l0 15 -9 0 0 -34 9 0z"/>
   <path class="fil0" d="M150 504l17 47 -10 0 -4 -10 -17 0 -4 10 -10 0 18 -47 10 0zm0 29l0 0 -5 -18 0 0 -6 18 11 0z"/>
   <polygon class="fil0" points="179,504 179,551 170,551 170,504 "/>
   <polygon class="fil0" points="220,504 230,536 230,536 240,504 255,504 255,551 245,551 245,518 245,518 234,551 226,551 215,518 215,518 215,551 205,551 205,504 "/>
   <path class="fil0" d="M262 527c0,-2 1,-4 2,-5 1,-2 2,-3 3,-4 2,0 3,-1 5,-1 2,-1 4,-1 6,-1 1,0 3,0 5,0 1,1 3,1 4,2 2,0 3,1 4,3 1,1 1,3 1,5l0 18c0,1 0,3 1,4 0,2 0,3 0,3l-9 0c0,0 0,-1 0,-1 0,-1 0,-1 0,-2 -2,2 -4,3 -6,3 -2,1 -4,1 -6,1 -1,0 -3,0 -4,0 -1,-1 -3,-1 -4,-2 -1,-1 -1,-2 -2,-3 -1,-2 -1,-3 -1,-5 0,-2 0,-4 1,-5 1,-1 2,-2 3,-3 1,-1 2,-1 3,-2 2,0 3,0 4,-1 2,0 3,0 4,0 2,0 3,0 4,-1 1,0 2,0 2,-1 1,0 1,-1 1,-2 0,-1 0,-2 0,-2 -1,-1 -1,-2 -2,-2 0,0 -1,0 -1,-1 -1,0 -2,0 -3,0 -2,0 -3,1 -4,1 -1,1 -2,3 -2,4l-9 0zm21 7l0 0c0,1 -1,1 -1,1 -1,1 -1,1 -2,1 -1,0 -1,0 -2,0 -1,0 -2,0 -2,0 -1,1 -2,1 -2,1 -1,0 -2,1 -2,1 -1,0 -1,1 -1,1 -1,1 -1,2 -1,3 0,0 0,1 1,2 0,0 0,1 1,1 0,0 1,1 2,1 0,0 1,0 2,0 2,0 3,0 4,-1 1,-1 2,-1 2,-2 1,-1 1,-2 1,-3 0,-1 0,-1 0,-2l0 -4z"/>
   <path class="fil0" d="M308 517l0 5 0 0c1,-2 3,-4 5,-5 1,-1 3,-1 5,-1 3,0 5,0 6,1 2,1 3,2 4,3 1,1 2,3 2,4 0,2 0,4 0,6l0 21 -9 0 0 -19c0,-3 0,-5 -1,-6 -1,-2 -2,-3 -5,-3 -2,0 -4,1 -5,3 -1,1 -2,4 -2,7l0 18 -9 0 0 -34 9 0z"/>
   <path class="fil0" d="M346 504l0 18 1 0c1,-2 2,-4 4,-5 2,-1 4,-1 5,-1 3,0 5,0 6,1 2,1 3,2 4,3 1,1 2,3 2,4 0,2 0,4 0,6l0 21 -9 0 0 -19c0,-3 0,-5 -1,-6 -1,-2 -2,-3 -5,-3 -2,0 -4,1 -5,3 -1,1 -2,4 -2,7l0 18 -9 0 0 -47 9 0z"/>
   <path class="fil0" d="M375 527c0,-2 1,-4 2,-5 1,-2 2,-3 3,-4 2,0 3,-1 5,-1 2,-1 4,-1 6,-1 1,0 3,0 5,0 1,1 3,1 4,2 2,0 3,1 4,3 1,1 1,3 1,5l0 18c0,1 0,3 0,4 1,2 1,3 1,3l-9 0c0,0 0,-1 0,-1 0,-1 -1,-1 -1,-2 -1,2 -3,3 -5,3 -2,1 -4,1 -6,1 -1,0 -3,0 -4,0 -2,-1 -3,-1 -4,-2 -1,-1 -2,-2 -2,-3 -1,-2 -1,-3 -1,-5 0,-2 0,-4 1,-5 1,-1 1,-2 3,-3 1,-1 2,-1 3,-2 1,0 3,0 4,-1 2,0 3,0 4,0 2,0 3,0 4,-1 1,0 2,0 2,-1 1,0 1,-1 1,-2 0,-1 0,-2 0,-2 -1,-1 -1,-2 -2,-2 0,0 -1,0 -2,-1 0,0 -1,0 -2,0 -2,0 -3,1 -4,1 -1,1 -2,3 -2,4l-9 0zm21 7l0 0c0,1 -1,1 -1,1 -1,1 -2,1 -2,1 -1,0 -2,0 -2,0 -1,0 -2,0 -3,0 0,1 -1,1 -2,1 0,0 -1,1 -1,1 -1,0 -1,1 -1,1 -1,1 -1,2 -1,3 0,0 0,1 1,2 0,0 0,1 1,1 0,0 1,1 2,1 0,0 1,0 2,0 1,0 3,0 4,-1 1,-1 2,-1 2,-2 0,-1 1,-2 1,-3 0,-1 0,-1 0,-2l0 -4z"/>
   <polygon class="fil0" points="422,504 422,551 412,551 412,504 "/>
   <path class="fil0" d="M468 504c3,0 5,0 7,1 2,1 4,2 5,3 2,2 3,4 3,5 1,2 1,4 1,6 0,2 0,4 -1,6 0,2 -1,3 -3,5 -1,1 -3,2 -5,3 -2,1 -4,1 -7,1l-10 0 0 17 -11 0 0 -47 21 0zm-3 22l0 0c2,0 3,0 4,0 1,0 2,-1 3,-1 0,-1 1,-1 1,-2 1,-1 1,-2 1,-4 0,-1 0,-3 -1,-4 0,-1 -1,-1 -1,-2 -1,0 -2,-1 -3,-1 -1,0 -2,0 -4,0l-7 0 0 14 7 0z"/>
   <path class="fil0" d="M512 551l0 -4 0 0c-2,2 -3,3 -5,4 -2,1 -4,1 -6,1 -2,0 -4,0 -6,-1 -1,0 -2,-1 -3,-3 -1,-1 -2,-2 -2,-4 -1,-2 -1,-4 -1,-6l0 -21 9 0 0 19c0,3 1,5 2,7 1,1 2,2 4,2 3,0 4,-1 6,-2 1,-2 1,-5 1,-8l0 -18 9 0 0 34 -8 0z"/>
   <path class="fil0" d="M536 504l0 17 1 0c1,-2 2,-3 4,-4 2,-1 4,-1 6,-1 2,0 3,0 5,1 2,1 3,2 4,3 2,2 3,4 3,6 1,2 2,5 2,8 0,3 -1,6 -2,8 0,3 -1,4 -3,6 -1,1 -2,2 -4,3 -2,1 -3,1 -5,1 -2,0 -5,0 -7,-1 -1,-1 -3,-2 -4,-4l0 0 0 4 -9 0 0 -47 9 0zm15 26l0 0c0,-1 -1,-3 -1,-4 -1,-1 -2,-1 -3,-2 -1,-1 -2,-1 -3,-1 -1,0 -3,0 -4,1 -1,1 -1,1 -2,2 -1,1 -1,3 -1,4 -1,1 -1,3 -1,4 0,2 0,3 1,4 0,2 0,3 1,4 1,1 1,2 2,2 1,1 3,1 4,1 1,0 2,0 3,-1 1,0 2,-1 3,-2 0,-1 1,-2 1,-4 0,-1 1,-2 1,-4 0,-1 -1,-3 -1,-4z"/>
   <polygon class="fil0" points="576,504 576,551 567,551 567,504 "/>
   <path class="fil0" d="M583 512l0 -8 9 0 0 8 -9 0zm9 5l0 0 0 34 -9 0 0 -34 9 0z"/>
   <path class="fil0" d="M607 543c1,1 1,1 2,2 0,0 1,0 2,1 1,0 2,0 3,0 0,0 1,0 2,0 0,0 1,-1 2,-1 0,0 1,-1 1,-1 0,-1 1,-2 1,-2 0,-2 -1,-3 -3,-4 -2,0 -5,-1 -8,-2 -1,0 -2,0 -4,-1 -1,0 -2,-1 -3,-2 -1,0 -2,-1 -2,-2 -1,-1 -1,-2 -1,-4 0,-2 0,-4 1,-5 1,-2 2,-3 3,-4 2,-1 3,-1 5,-2 2,0 3,0 5,0 2,0 4,0 5,0 2,1 4,1 5,2 1,1 2,2 3,4 1,1 2,3 2,5l-9 0c0,-2 -1,-3 -2,-4 -1,0 -2,-1 -4,-1 -1,0 -1,0 -2,0 0,0 -1,1 -1,1 -1,0 -1,0 -2,1 0,0 0,1 0,1 0,1 0,2 1,3 0,0 1,1 2,1 1,0 2,0 3,1 2,0 3,0 4,1 1,0 3,0 4,1 1,0 2,1 3,2 1,0 2,1 3,2 0,1 1,3 1,4 0,3 -1,4 -2,6 -1,2 -2,3 -3,4 -1,1 -3,1 -5,2 -2,0 -4,0 -5,0 -2,0 -4,0 -6,0 -2,-1 -4,-1 -5,-2 -1,-1 -3,-3 -4,-4 0,-2 -1,-4 -1,-6l9 0c0,1 0,2 0,3z"/>
   <path class="fil0" d="M643 504l0 18 0 0c1,-2 3,-4 5,-5 1,-1 3,-1 5,-1 2,0 4,0 6,1 2,1 3,2 4,3 1,1 1,3 2,4 0,2 0,4 0,6l0 21 -9 0 0 -19c0,-3 0,-5 -1,-6 -1,-2 -3,-3 -5,-3 -2,0 -4,1 -5,3 -1,1 -2,4 -2,7l0 18 -9 0 0 -47 9 0z"/>
   <path class="fil0" d="M682 543c1,1 3,2 6,2 1,0 3,0 4,-1 2,-1 3,-2 3,-3l8 0c-1,4 -3,7 -6,9 -3,1 -6,2 -10,2 -2,0 -5,0 -7,-1 -2,-1 -4,-2 -5,-4 -2,-1 -3,-3 -3,-6 -1,-2 -2,-4 -2,-7 0,-2 1,-5 2,-7 0,-2 2,-4 3,-6 2,-1 3,-3 5,-4 2,-1 5,-1 7,-1 3,0 6,1 8,2 2,1 4,2 5,4 1,2 2,4 3,7 0,2 1,5 0,7l-24 0c1,3 1,6 3,7zm10 -18l0 0c-1,-1 -3,-2 -5,-2 -1,0 -3,0 -4,1 -1,0 -1,1 -2,2 0,1 -1,1 -1,2 0,1 0,2 -1,2l15 0c0,-2 -1,-4 -2,-5z"/>
   <path class="fil0" d="M717 517l0 6 1 0c0,-1 1,-2 1,-3 1,-1 2,-1 3,-2 1,-1 2,-1 3,-2 1,0 2,0 3,0 1,0 1,0 2,0l0 9c0,0 -1,0 -1,0 -1,0 -2,0 -2,0 -2,0 -3,0 -4,1 -2,0 -2,1 -3,2 -1,1 -1,2 -2,3 0,2 0,3 0,5l0 15 -9 0 0 -34 8 0z"/>
   <path class="fil0" d="M741 543c1,1 1,1 2,2 1,0 1,0 2,1 1,0 2,0 3,0 0,0 1,0 2,0 0,0 1,-1 2,-1 0,0 1,-1 1,-1 1,-1 1,-2 1,-2 0,-2 -1,-3 -3,-4 -2,0 -4,-1 -8,-2 -1,0 -2,0 -3,-1 -2,0 -3,-1 -4,-2 -1,0 -2,-1 -2,-2 -1,-1 -1,-2 -1,-4 0,-2 0,-4 1,-5 1,-2 2,-3 3,-4 2,-1 3,-1 5,-2 2,0 4,0 5,0 2,0 4,0 6,0 1,1 3,1 4,2 1,1 2,2 3,4 1,1 2,3 2,5l-9 0c0,-2 -1,-3 -2,-4 -1,0 -2,-1 -4,-1 0,0 -1,0 -2,0 0,0 -1,1 -1,1 -1,0 -1,0 -1,1 -1,0 -1,1 -1,1 0,1 0,2 1,3 0,0 1,1 2,1 1,0 2,0 4,1 1,0 2,0 3,1 2,0 3,0 4,1 1,0 3,1 4,2 1,0 1,1 2,2 1,1 1,3 1,4 0,3 -1,4 -1,6 -1,2 -3,3 -4,4 -1,1 -3,1 -5,2 -2,0 -3,0 -5,0 -2,0 -4,0 -6,0 -2,-1 -3,-1 -5,-2 -1,-1 -2,-3 -3,-4 -1,-2 -2,-4 -2,-6l9 0c0,1 0,2 0,3z"/>
  </g>
  <g id="_809548016">
   <path class="fil1" d="M205 338l0 -130c-1,-1 -7,-151 156,-205 85,28 123,82 140,123 19,44 17,82 17,82l0 130 -313 0z"/>
   <path class="fil0" d="M361 6c67,23 113,63 137,121 19,43 17,81 17,81l0 0 0 0 0 127 -307 0 0 -127 0 0 0 0c-1,0 -2,-37 16,-81 24,-58 70,-98 137,-121zm0 -6l0 0c-168,55 -159,208 -159,208l0 133 319 0 0 -133c0,0 8,-153 -160,-208z"/>
   <path class="fil0" d="M361 43c50,19 86,51 105,94 15,36 15,67 15,69l-1 1 0 1 0 79 -238 0 0 -79 0 -1 0 -1c0,0 -1,-31 13,-66 19,-45 55,-78 106,-97z"/>
   <path class="fil2" d="M361 0l0 0c0,0 0,0 0,0 0,0 0,0 0,0z"/>
   <path class="fil0" d="M494 178c-37,0 -67,-30 -67,-67 0,-37 30,-67 67,-67 37,0 67,30 67,67 0,37 -30,67 -67,67z"/>
   <path class="fil1" d="M494 172c-33,0 -61,-27 -61,-61 0,-34 28,-62 61,-62 34,0 62,28 62,62 0,34 -28,61 -62,61z"/>
   <path class="fil0" d="M272 281l0 17 5 0c4,-1 8,-1 12,-1 29,0 59,12 68,20l2 1 2 2 3 -2 2 -1c9,-8 38,-20 68,-20 4,0 8,0 11,1l5 0 0 -17 -178 0z"/>
   <path class="fil1" d="M435 233c-2,0 -4,2 -4,4 0,1 2,3 4,3l18 0c2,0 4,-2 4,-3 0,-2 -2,-4 -4,-4l-18 0z"/>
   <path class="fil1" d="M457 257c0,-2 -2,-4 -4,-4l-22 0c-2,0 -4,2 -4,4 0,1 2,3 4,3l22 0c2,0 4,-2 4,-3z"/>
   <path class="fil1" d="M453 263l-18 0c-2,0 -4,2 -4,4 0,2 2,3 4,3l18 0c2,0 4,-1 4,-3 0,-2 -2,-4 -4,-4z"/>
   <path class="fil1" d="M457 247c0,-2 -2,-4 -4,-4l-25 0c-2,0 -4,2 -4,4 0,1 2,3 4,3l25 0c2,0 4,-2 4,-3z"/>
   <path class="fil1" d="M265 237c0,1 1,3 3,3l19 0c2,0 3,-2 3,-3 0,-2 -1,-4 -3,-4l-19 0c-2,0 -3,2 -3,4z"/>
   <path class="fil1" d="M265 247c0,1 1,3 3,3l26 0c2,0 3,-2 3,-3 0,-2 -1,-4 -3,-4l-26 0c-2,0 -3,2 -3,4z"/>
   <path class="fil1" d="M265 257c0,1 1,3 3,3l23 0c2,0 4,-2 4,-3 0,-2 -2,-4 -4,-4l-23 0c-2,0 -3,2 -3,4z"/>
   <path class="fil1" d="M265 267c0,2 1,3 3,3l19 0c2,0 3,-1 3,-3 0,-2 -1,-4 -3,-4l-19 0c-2,0 -3,2 -3,4z"/>
   <path class="fil1" d="M393 121l-1 2c0,0 0,16 6,23 1,-3 2,-7 6,-10 -4,-19 -22,-34 -43,-34 -21,0 -39,15 -43,34 1,1 5,3 6,10 3,-2 8,-7 6,-21l-1 -5 3 3c1,0 20,15 47,6 -2,-1 -5,-3 -7,-5l-3 -3 24 0z"/>
   <path class="fil1" d="M409 133c0,-1 0,-2 0,-3 0,-26 -21,-48 -48,-48 -26,0 -47,22 -47,48 0,1 0,2 0,3 6,-20 25,-36 47,-36 23,0 41,16 48,36z"/>
   <path class="fil1" d="M414 152c0,-7 -3,-13 -6,-13 -1,0 -2,1 -3,1 0,0 0,0 0,0 -4,4 -4,9 -4,9l0 3 -3 -2c-9,-5 -9,-20 -9,-26l-11 0c3,2 6,4 6,4l3 1 -3 2c-25,10 -43,1 -51,-3 2,19 -9,22 -10,22l-2 0 0 -2c0,-5 -2,-7 -4,-8 0,0 0,0 0,0 0,-1 -1,-1 -2,-1 -4,0 -7,6 -7,13 0,6 3,12 7,12 2,0 3,-1 4,-3 6,17 23,29 42,29 19,0 36,-12 42,-30 1,3 3,4 5,4 3,0 6,-6 6,-12zm-60 5l0 0c1,-3 4,-5 7,-5 3,0 6,2 7,5 0,1 0,2 -1,2 -1,0 -2,0 -2,-1 -1,-2 -2,-3 -4,-3 -2,0 -3,1 -4,3 0,1 -1,1 -1,1 -1,0 -1,0 -1,0 -1,0 -1,-1 -1,-2zm31 -12l0 0c0,4 -3,7 -6,7 -4,0 -7,-3 -7,-7 0,-3 3,-6 7,-6 3,0 6,3 6,6zm-41 7l0 0c-4,0 -7,-3 -7,-7 0,-3 3,-6 7,-6 3,0 6,3 6,6 0,4 -3,7 -6,7zm17 19l0 0c6,0 12,0 17,-3 -3,5 -10,9 -17,9 -7,0 -13,-4 -17,-9 5,3 11,3 17,3z"/>
   <path class="fil1" d="M427 199c-5,-2 -20,-9 -34,-5 -3,-4 -4,-5 -4,-5 0,0 -2,-2 -4,-1 -2,1 -3,3 -3,3 0,12 -8,21 -19,21l-4 0c-11,0 -19,-9 -19,-21 0,0 -1,-2 -3,-3 -2,-1 -4,1 -4,1 0,0 -1,1 -4,5 -14,-4 -29,3 -34,5 46,0 66,22 66,22 0,0 20,-22 66,-22z"/>
   <path class="fil1" d="M456 231c0,0 -3,-5 -7,-5l0 4 5 0c0,0 1,0 2,1z"/>
   <path class="fil1" d="M266 231c0,0 2,-5 6,-5l0 4 -4 0c0,0 -1,0 -2,1z"/>
   <path class="fil1" d="M435 230l12 0 0 -26c-52,-8 -78,14 -84,20l0 91c8,-7 44,-25 84,-20l0 -22 -12 0c-4,0 -6,-3 -6,-6 0,-2 0,-3 1,-4 -3,-1 -6,-3 -6,-6 0,-2 1,-3 2,-5 -2,0 -4,-3 -4,-5 0,-4 3,-7 6,-7l2 0c-1,-1 -1,-2 -1,-3 0,-4 2,-7 6,-7z"/>
   <path class="fil1" d="M275 204l0 26 12 0c4,0 6,3 6,7 0,1 0,2 -1,3l2 0c3,0 6,3 6,7 0,2 -2,5 -4,5 1,2 2,3 2,5 0,3 -3,5 -6,6 1,1 1,2 1,4 0,3 -2,6 -6,6l-12 0 0 22c40,-5 76,13 84,20l0 -91c-5,-6 -32,-28 -84,-20z"/>
   <path class="fil1" d="M343 190c0,1 0,1 0,1 0,10 8,18 18,18 10,0 18,-8 18,-18 0,0 0,0 0,0 -4,1 -8,2 -13,2 -1,1 -3,1 -5,1 -6,0 -12,-1 -18,-4z"/>
  </g>
 </g>
</svg>
