<?xml version="1.0" encoding="UTF-8"?>
<!DOCTYPE svg PUBLIC "-//W3C//DTD SVG 1.1//EN" "http://www.w3.org/Graphics/SVG/1.1/DTD/svg11.dtd">
<!-- Creator: CorelDRAW X7 -->
<svg xmlns="http://www.w3.org/2000/svg" xml:space="preserve" width="0.888878in" height="0.562469in" version="1.1" style="shape-rendering:geometricPrecision; text-rendering:geometricPrecision; image-rendering:optimizeQuality; fill-rule:evenodd; clip-rule:evenodd"
viewBox="0 0 177 112"
 xmlns:xlink="http://www.w3.org/1999/xlink">
 <defs>
  <style type="text/css">
   <![CDATA[
    .fil0 {fill:#006633}
    .fil4 {fill:#7C6966;fill-rule:nonzero}
    .fil3 {fill:#B1938E;fill-rule:nonzero}
    .fil6 {fill:#BF2805;fill-rule:nonzero}
    .fil2 {fill:#EFCFCA;fill-rule:nonzero}
    .fil8 {fill:white;fill-rule:nonzero}
    .fil7 {fill:url(#id2);fill-rule:nonzero}
    .fil1 {fill:url(#id3);fill-rule:nonzero}
    .fil5 {fill:url(#id4);fill-rule:nonzero}
    .fil9 {fill:url(#id5);fill-rule:nonzero}
    .fil10 {fill:url(#id6);fill-rule:nonzero}
   ]]>
  </style>
   <mask id="id0">
  <linearGradient id="id1" gradientUnits="userSpaceOnUse" x1="88.5417" y1="49.5601" x2="88.5417" y2="112.056">
   <stop offset="0" style="stop-opacity:1; stop-color:white"/>
   <stop offset="1" style="stop-opacity:0; stop-color:white"/>
  </linearGradient>
    <rect style="fill:url(#id1)" x="-1" y="49" width="178.468" height="63.8805"/>
   </mask>
  <linearGradient id="id2" gradientUnits="userSpaceOnUse" x1="95.9365" y1="51.4762" x2="171.015" y2="51.4762">
   <stop offset="0" style="stop-opacity:1; stop-color:#BF2805"/>
   <stop offset="0.0392157" style="stop-opacity:1; stop-color:#BF2805"/>
   <stop offset="0.341176" style="stop-opacity:1; stop-color:#F48560"/>
   <stop offset="0.54902" style="stop-opacity:1; stop-color:#DA5733"/>
   <stop offset="0.741176" style="stop-opacity:1; stop-color:#BF2805"/>
   <stop offset="1" style="stop-opacity:1; stop-color:#BF2805"/>
  </linearGradient>
  <linearGradient id="id3" gradientUnits="userSpaceOnUse" x1="106.368" y1="76.4566" x2="138.723" y2="76.4566">
   <stop offset="0" style="stop-opacity:1; stop-color:white"/>
   <stop offset="0.321569" style="stop-opacity:1; stop-color:#B1938E"/>
   <stop offset="0.670588" style="stop-opacity:1; stop-color:white"/>
   <stop offset="1" style="stop-opacity:1; stop-color:white"/>
  </linearGradient>
  <linearGradient id="id4" gradientUnits="userSpaceOnUse" xlink:href="#id2" x1="27.5201" y1="24.0777" x2="118.187" y2="24.0777">
  </linearGradient>
  <linearGradient id="id5" gradientUnits="userSpaceOnUse" xlink:href="#id3" x1="28.0715" y1="87.3503" x2="48.2667" y2="87.3503">
  </linearGradient>
  <linearGradient id="id6" gradientUnits="userSpaceOnUse" xlink:href="#id2" x1="3.16873" y1="72.5506" x2="57.7431" y2="72.5506">
  </linearGradient>
 </defs>
 <g id="Layer_x0020_1">
  <metadata id="CorelCorpID_0Corel-Layer"/>
  <path class="fil0" style="mask:url(#id0)" d="M114 58c-3,0 -6,-1 -8,-1 -5,-10 -30,-10 -58,2 -29,12 -51,32 -48,44 3,12 29,12 58,0 6,-3 12,-5 17,-9 11,5 25,8 39,10 35,3 63,-4 63,-16 0,-13 -28,-26 -63,-30z"/>
  <g id="_1169090688">
   <g>
    <path class="fil1" d="M117 65c0,0 -2,6 -11,13 0,0 9,15 33,8 0,0 0,-11 -1,-16l-21 -5z"/>
   </g>
   <g>
    <path class="fil2" d="M67 46c0,0 -3,17 -9,27 0,0 14,16 36,3 0,0 -2,-27 -4,-30l-23 0z"/>
   </g>
   <g>
    <path class="fil3" d="M67 46c0,1 -2,9 -2,10 -2,5 -4,11 -7,16 1,2 4,4 5,2 2,-1 3,-5 4,-7 3,-4 7,-6 12,-7 5,0 9,-2 11,4 1,4 1,8 1,13 5,1 2,-13 2,-16 0,-1 -1,-15 -3,-15 0,0 -22,0 -23,0z"/>
   </g>
   <g>
    <path class="fil4" d="M67 46c0,0 -1,7 -1,7 3,3 11,-1 15,-1 6,-1 14,0 9,-6 0,0 -23,0 -23,0z"/>
   </g>
   <g>
    <path class="fil5" d="M32 36c0,0 24,26 80,2 5,-3 7,-15 6,-20 -7,-24 -35,-19 -52,-14 -11,3 -51,14 -34,32z"/>
   </g>
   <g>
    <path class="fil6" d="M32 36c0,0 24,26 80,2 4,-2 6,-8 6,-12 0,-6 -2,-3 -4,0 -2,2 -5,2 -7,3 -10,4 -21,9 -31,9 -10,1 -21,0 -30,-3 -4,-2 -17,-8 -15,-14 -7,-1 -2,13 1,15z"/>
   </g>
   <g>
    <path class="fil7" d="M96 52c0,0 10,24 69,16 0,0 20,-9 -15,-31 0,0 -51,-15 -54,15z"/>
   </g>
   <g>
    <path class="fil6" d="M96 52c0,0 10,24 69,16 2,0 7,-5 3,-6 0,0 -2,1 -2,1 -4,2 -7,2 -11,2 -8,-1 -18,0 -26,-2 -10,-3 -26,-6 -32,-16 -1,1 -1,3 -1,5z"/>
   </g>
   <g>
    <path class="fil8" d="M64 16c0,1 -3,3 -7,3 -4,0 -7,-2 -7,-3 0,-2 3,-3 7,-3 4,0 7,1 7,3z"/>
    <path class="fil8" d="M80 8c0,2 -3,3 -7,3 -3,0 -7,-1 -7,-3 0,-1 4,-3 7,-3 4,0 7,2 7,3z"/>
    <path class="fil8" d="M100 8c0,2 -2,3 -5,3 -3,0 -6,-1 -6,-3 0,-1 3,-3 6,-3 3,0 5,2 5,3z"/>
    <path class="fil8" d="M77 20c0,2 -2,3 -4,3 -2,0 -4,-1 -4,-3 0,-1 2,-2 4,-2 2,0 4,1 4,2z"/>
    <path class="fil8" d="M46 17c0,1 -1,3 -3,3 -3,1 -5,0 -5,-1 0,-1 1,-3 4,-3 2,-1 4,0 4,1z"/>
    <path class="fil8" d="M50 26c0,2 -2,3 -5,3 -3,0 -6,-1 -6,-3 0,-1 3,-2 6,-2 3,0 5,1 5,2z"/>
    <path class="fil8" d="M108 20c0,1 -2,2 -4,2 -3,0 -5,-1 -5,-2 0,-2 2,-3 5,-3 2,0 4,1 4,3z"/>
    <path class="fil8" d="M91 26c0,1 -1,2 -3,2 -2,0 -3,-1 -3,-2 0,-1 1,-2 3,-2 2,0 3,1 3,2z"/>
    <path class="fil8" d="M91 18c0,0 -2,1 -3,1 -1,0 -2,-1 -2,-1 0,-1 1,-2 2,-2 1,0 3,1 3,2z"/>
    <path class="fil8" d="M63 32c0,1 -2,1 -4,1 -1,0 -3,0 -3,-1 0,-1 2,-2 3,-2 2,0 4,1 4,2z"/>
    <path class="fil8" d="M77 32c0,1 -2,1 -4,1 -1,0 -3,0 -3,-1 0,-1 2,-2 3,-2 2,0 4,1 4,2z"/>
   </g>
   <g>
    <path class="fil8" d="M128 42c0,2 -3,2 -6,1 -2,-1 -4,-3 -4,-4 0,-1 3,-1 6,0 3,1 4,2 4,3z"/>
    <path class="fil8" d="M142 41c-1,1 -3,1 -6,1 -3,-1 -5,-3 -4,-4 0,-1 3,-2 6,-1 2,1 4,3 4,4z"/>
    <path class="fil8" d="M156 46c0,1 -2,1 -4,1 -3,-1 -4,-3 -4,-4 1,-1 3,-2 5,-1 2,1 4,2 3,4z"/>
    <path class="fil8" d="M137 49c-1,1 -2,1 -4,1 -2,-1 -3,-2 -2,-3 0,-1 1,-1 3,-1 2,1 3,2 3,3z"/>
    <path class="fil8" d="M115 40c0,0 -2,1 -3,1 -2,0 -4,-1 -4,-2 1,-1 2,-2 4,-2 2,1 3,2 3,3z"/>
    <path class="fil8" d="M115 47c0,1 -2,1 -4,1 -2,-1 -3,-2 -3,-3 0,-1 2,-1 4,-1 2,1 4,2 3,3z"/>
    <path class="fil8" d="M160 56c-1,1 -2,1 -4,0 -2,0 -3,-1 -3,-2 0,-1 2,-2 4,-1 2,1 3,2 3,3z"/>
    <path class="fil8" d="M146 57c-1,0 -2,1 -3,0 -2,0 -2,-1 -2,-2 0,-1 1,-1 3,-1 1,1 2,2 2,3z"/>
    <path class="fil8" d="M147 50c0,1 -1,1 -2,1 -1,-1 -2,-1 -1,-2 0,0 1,-1 2,0 1,0 1,1 1,1z"/>
    <path class="fil8" d="M124 54c-1,1 -2,1 -3,0 -2,0 -2,-1 -2,-2 0,0 1,-1 3,0 1,0 2,1 2,2z"/>
    <path class="fil8" d="M134 57c-1,1 -2,1 -3,1 -1,-1 -2,-2 -2,-2 0,-1 1,-1 3,-1 1,0 2,1 2,2z"/>
   </g>
   <g>
    <path class="fil9" d="M28 83l0 15 20 0c0,0 0,-13 -4,-21l-16 6z"/>
   </g>
   <g>
    <path class="fil10" d="M7 86c0,0 46,-2 51,-21 0,0 1,-9 -25,-6 0,0 -43,12 -26,27z"/>
   </g>
   <g>
    <path class="fil8" d="M21 68c0,1 -1,2 -3,2 -2,1 -4,0 -4,-1 -1,0 1,-1 3,-2 2,0 4,0 4,1z"/>
    <path class="fil8" d="M29 63c0,1 -1,2 -3,2 -2,0 -4,0 -4,-1 0,-1 1,-2 3,-2 2,-1 4,0 4,1z"/>
    <path class="fil8" d="M40 61c0,1 -1,2 -3,2 -2,0 -3,0 -3,-1 0,-1 1,-2 2,-2 2,-1 4,0 4,1z"/>
    <path class="fil8" d="M29 69c0,1 -1,2 -2,2 -2,0 -3,0 -3,-1 0,0 1,-1 2,-1 1,-1 2,0 3,0z"/>
    <path class="fil8" d="M12 71c0,0 -1,1 -2,2 -1,0 -2,0 -2,-1 -1,0 0,-1 1,-2 1,0 3,0 3,1z"/>
    <path class="fil8" d="M15 75c0,1 -1,2 -3,2 -1,0 -3,0 -3,-1 0,0 1,-1 3,-1 1,-1 3,0 3,0z"/>
    <path class="fil8" d="M45 66c0,1 -1,1 -2,2 -1,0 -3,0 -3,-1 0,-1 1,-2 2,-2 2,0 3,0 3,1z"/>
    <path class="fil8" d="M37 71c0,1 -1,1 -2,1 -1,1 -2,0 -2,0 0,-1 1,-1 2,-2 1,0 1,1 2,1z"/>
    <path class="fil8" d="M35 67c1,0 0,1 -1,1 0,0 -1,0 -1,-1 0,0 0,-1 1,-1 1,0 1,0 1,1z"/>
    <path class="fil8" d="M22 77c0,0 -1,1 -2,1 -1,0 -1,0 -2,-1 0,0 1,-1 2,-1 1,0 2,0 2,1z"/>
    <path class="fil8" d="M29 75c0,1 0,2 -1,2 -1,0 -2,0 -2,-1 0,-1 0,-1 1,-1 1,0 2,0 2,0z"/>
   </g>
  </g>
 </g>
</svg>
