<?xml version="1.0" encoding="UTF-8"?>
<!DOCTYPE svg PUBLIC "-//W3C//DTD SVG 1.1//EN" "http://www.w3.org/Graphics/SVG/1.1/DTD/svg11.dtd">
<!-- Creator: CorelDRAW X7 -->
<svg xmlns="http://www.w3.org/2000/svg" xml:space="preserve" width="128.557mm" height="77.195mm" version="1.1" style="shape-rendering:geometricPrecision; text-rendering:geometricPrecision; image-rendering:optimizeQuality; fill-rule:evenodd; clip-rule:evenodd"
viewBox="0 0 13556112 8140097"
 xmlns:xlink="http://www.w3.org/1999/xlink">
 <defs>
  <style type="text/css">
   <![CDATA[
    .str0 {stroke:#88CAE8;stroke-width:89272.7;stroke-linecap:round;stroke-linejoin:round}
    .str1 {stroke:#A7FFFF;stroke-width:44636.4;stroke-linecap:round;stroke-linejoin:round}
    .fil1 {fill:none}
    .fil0 {fill:white}
   ]]>
  </style>
 </defs>
 <g id="Layer_x0020_1">
  <metadata id="CorelCorpID_0Corel-Layer"/>
  <path class="fil0 str0" d="M266806 3542363c261966,1848027 2211413,3006611 4459164,3424936 9069,67445 22155,134626 34798,200352 21163,109941 70893,215706 133835,309439 387534,577035 1201048,530986 1591281,-10672 66707,-92573 112155,-204464 137157,-323442 203632,897 407379,-3754 610674,-14098l7444 38773c21153,109941 70893,215716 133846,309439 387502,577035 1201037,530986 1591271,-10672 118492,-164425 169856,-389801 158795,-607594 2299062,-559415 4216411,-1926671 4216411,-4205887 0,-418462 -480107,-831915 -1256503,-1193783 -3388694,-1579397 -12421929,-2176056 -11818173,2083209z"/>
  <path class="fil1 str1" d="M149821 3886326c525028,1920196 2245885,2862399 4381101,3279712 27838,5441 55698,10787 83536,16091 8858,56352 19761,112366 30369,167421 22503,116710 75417,229034 142335,328514 412082,612614 1344226,563738 1759208,-11315 53040,-73476 93427,-158425 121561,-249396 175972,6369 351618,8331 526852,5557 27301,90264 71420,176774 124134,255154 412019,612561 1357618,563738 1772600,-11315 100935,-139845 156053,-321227 167958,-506722 404195,-106756 656354,-248890 1049392,-431558 1791454,-832558 3172756,-1957873 3224932,-4071726 60169,-2438117 -15073990,-4951070 -13383978,1229583z"/>
 </g>
</svg>
