<?xml version="1.0" encoding="UTF-8"?>
<!DOCTYPE svg PUBLIC "-//W3C//DTD SVG 1.1//EN" "http://www.w3.org/Graphics/SVG/1.1/DTD/svg11.dtd">
<!-- Creator: CorelDRAW X7 -->
<svg xmlns="http://www.w3.org/2000/svg" xml:space="preserve" width="96.4027mm" height="93.6638mm" version="1.1" style="shape-rendering:geometricPrecision; text-rendering:geometricPrecision; image-rendering:optimizeQuality; fill-rule:evenodd; clip-rule:evenodd"
viewBox="0 0 3445159 3347278"
 xmlns:xlink="http://www.w3.org/1999/xlink">
 <defs>
  <style type="text/css">
   <![CDATA[
    .fil2 {fill:none}
    .fil11 {fill:black}
    .fil10 {fill:#00CCFF}
    .fil15 {fill:#0751A8}
    .fil16 {fill:#44A2BA}
    .fil7 {fill:#9A3D00}
    .fil8 {fill:#CF5818}
    .fil12 {fill:#E6FAFF}
    .fil6 {fill:#FF8D2E}
    .fil9 {fill:#FFB761}
    .fil21 {fill:#FFC539}
    .fil20 {fill:#FFD529}
    .fil14 {fill:white}
    .fil4 {fill:#FFAB21;fill-rule:nonzero}
    .fil19 {fill:#FFB761;fill-rule:nonzero}
    .fil1 {fill:url(#id60)}
    .fil0 {fill:url(#id61)}
    .fil5 {fill:url(#id62)}
    .fil32 {fill:url(#id63)}
    .fil18 {fill:url(#id64)}
    .fil31 {fill:url(#id65)}
    .fil29 {fill:url(#id66)}
    .fil26 {fill:url(#id67)}
    .fil17 {fill:url(#id68)}
    .fil13 {fill:url(#id69)}
    .fil30 {fill:url(#id70)}
    .fil23 {fill:url(#id71)}
    .fil22 {fill:url(#id72)}
    .fil28 {fill:url(#id73)}
    .fil25 {fill:url(#id74)}
    .fil24 {fill:url(#id75)}
    .fil27 {fill:url(#id76)}
    .fil3 {fill:url(#id77)}
   ]]>
  </style>
    <mask id="id0">
  <linearGradient id="id1" gradientUnits="userSpaceOnUse" x1="1.68768e+006" y1="2.46052e+006" x2="1.73579e+006" y2="2.4926e+006">
   <stop offset="0" style="stop-opacity:1; stop-color:white"/>
   <stop offset="1" style="stop-opacity:0; stop-color:white"/>
  </linearGradient>
     <rect style="fill:url(#id1)" x="1673671" y="2440580" width="76124" height="71967"/>
    </mask>
    <mask id="id2">
  <linearGradient id="id3" gradientUnits="userSpaceOnUse" x1="1.68168e+006" y1="2.45653e+006" x2="1.74179e+006" y2="2.4966e+006">
   <stop offset="0" style="stop-opacity:1; stop-color:white"/>
   <stop offset="1" style="stop-opacity:0; stop-color:white"/>
  </linearGradient>
     <rect style="fill:url(#id3)" x="1664190" y="2431613" width="95089" height="89900"/>
    </mask>
    <mask id="id4">
  <linearGradient id="id5" gradientUnits="userSpaceOnUse" x1="1.82282e+006" y1="2.94545e+006" x2="1.84744e+006" y2="3.06601e+006">
   <stop offset="0" style="stop-opacity:1; stop-color:white"/>
   <stop offset="1" style="stop-opacity:0; stop-color:white"/>
  </linearGradient>
     <rect style="fill:url(#id5)" x="1744091" y="2919658" width="182074" height="172139"/>
    </mask>
    <mask id="id6">
  <linearGradient id="id7" gradientUnits="userSpaceOnUse" x1="1.82441e+006" y1="2.95325e+006" x2="1.84585e+006" y2="3.05821e+006">
   <stop offset="0" style="stop-opacity:1; stop-color:white"/>
   <stop offset="1" style="stop-opacity:0; stop-color:white"/>
  </linearGradient>
     <rect style="fill:url(#id7)" x="1755870" y="2930794" width="158516" height="149864"/>
    </mask>
    <mask id="id8">
  <linearGradient id="id9" gradientUnits="userSpaceOnUse" x1="1.30448e+006" y1="2.834e+006" x2="1.24323e+006" y2="2.98314e+006">
   <stop offset="0" style="stop-opacity:1; stop-color:white"/>
   <stop offset="1" style="stop-opacity:0; stop-color:white"/>
  </linearGradient>
     <rect style="fill:url(#id9)" x="1159103" y="2800078" width="229511" height="216985"/>
    </mask>
    <mask id="id10">
  <linearGradient id="id11" gradientUnits="userSpaceOnUse" x1="1.30053e+006" y1="2.84365e+006" x2="1.2472e+006" y2="2.9735e+006">
   <stop offset="0" style="stop-opacity:1; stop-color:white"/>
   <stop offset="1" style="stop-opacity:0; stop-color:white"/>
  </linearGradient>
     <rect style="fill:url(#id11)" x="1173955" y="2814115" width="199810" height="188910"/>
    </mask>
    <mask id="id12">
  <linearGradient id="id13" gradientUnits="userSpaceOnUse" x1="483585" y1="1.75449e+006" x2="245947" y2="1.86539e+006">
   <stop offset="0" style="stop-opacity:1; stop-color:white"/>
   <stop offset="1" style="stop-opacity:0; stop-color:white"/>
  </linearGradient>
     <rect style="fill:url(#id13)" x="178839" y="1634160" width="371852" height="351561"/>
    </mask>
    <mask id="id14">
  <linearGradient id="id15" gradientUnits="userSpaceOnUse" x1="468210" y1="1.76166e+006" x2="261321" y2="1.85822e+006">
   <stop offset="0" style="stop-opacity:1; stop-color:white"/>
   <stop offset="1" style="stop-opacity:0; stop-color:white"/>
  </linearGradient>
     <rect style="fill:url(#id15)" x="202898" y="1656903" width="323736" height="306071"/>
    </mask>
    <mask id="id16">
  <linearGradient id="id17" gradientUnits="userSpaceOnUse" x1="2.2082e+006" y1="2.80455e+006" x2="2.19023e+006" y2="2.97447e+006">
   <stop offset="0" style="stop-opacity:1; stop-color:white"/>
   <stop offset="1" style="stop-opacity:0; stop-color:white"/>
  </linearGradient>
     <rect style="fill:url(#id17)" x="2071508" y="2768776" width="255410" height="241469"/>
    </mask>
    <mask id="id18">
  <linearGradient id="id19" gradientUnits="userSpaceOnUse" x1="2.20704e+006" y1="2.81554e+006" x2="2.1914e+006" y2="2.96348e+006">
   <stop offset="0" style="stop-opacity:1; stop-color:white"/>
   <stop offset="1" style="stop-opacity:0; stop-color:white"/>
  </linearGradient>
     <rect style="fill:url(#id19)" x="2088040" y="2784396" width="222364" height="210224"/>
    </mask>
    <mask id="id20">
  <linearGradient id="id21" gradientUnits="userSpaceOnUse" x1="2.51758e+006" y1="2.71188e+006" x2="2.50383e+006" y2="2.84184e+006">
   <stop offset="0" style="stop-opacity:1; stop-color:white"/>
   <stop offset="1" style="stop-opacity:0; stop-color:white"/>
  </linearGradient>
     <rect style="fill:url(#id21)" x="2413037" y="2684525" width="195329" height="184668"/>
    </mask>
    <mask id="id22">
  <linearGradient id="id23" gradientUnits="userSpaceOnUse" x1="2.51669e+006" y1="2.72029e+006" x2="2.50473e+006" y2="2.83343e+006">
   <stop offset="0" style="stop-opacity:1; stop-color:white"/>
   <stop offset="1" style="stop-opacity:0; stop-color:white"/>
  </linearGradient>
     <rect style="fill:url(#id23)" x="2425681" y="2696472" width="170055" height="160774"/>
    </mask>
    <mask id="id24">
  <linearGradient id="id25" gradientUnits="userSpaceOnUse" x1="1.96435e+006" y1="2.5854e+006" x2="1.97493e+006" y2="2.7168e+006">
   <stop offset="0" style="stop-opacity:1; stop-color:white"/>
   <stop offset="1" style="stop-opacity:0; stop-color:white"/>
  </linearGradient>
     <rect style="fill:url(#id25)" x="1871987" y="2558781" width="195300" height="184640"/>
    </mask>
    <mask id="id26">
  <linearGradient id="id27" gradientUnits="userSpaceOnUse" x1="1.96504e+006" y1="2.59391e+006" x2="1.97425e+006" y2="2.70829e+006">
   <stop offset="0" style="stop-opacity:1; stop-color:white"/>
   <stop offset="1" style="stop-opacity:0; stop-color:white"/>
  </linearGradient>
     <rect style="fill:url(#id27)" x="1884631" y="2570724" width="170030" height="160749"/>
    </mask>
    <mask id="id28">
  <linearGradient id="id29" gradientUnits="userSpaceOnUse" x1="2.79993e+006" y1="2.62558e+006" x2="2.7931e+006" y2="2.69022e+006">
   <stop offset="0" style="stop-opacity:1; stop-color:white"/>
   <stop offset="1" style="stop-opacity:0; stop-color:white"/>
  </linearGradient>
     <rect style="fill:url(#id29)" x="2747934" y="2611972" width="97159" height="91852"/>
    </mask>
    <mask id="id30">
  <linearGradient id="id31" gradientUnits="userSpaceOnUse" x1="2.7995e+006" y1="2.62976e+006" x2="2.79354e+006" y2="2.68604e+006">
   <stop offset="0" style="stop-opacity:1; stop-color:white"/>
   <stop offset="1" style="stop-opacity:0; stop-color:white"/>
  </linearGradient>
     <rect style="fill:url(#id31)" x="2754223" y="2617915" width="84586" height="79969"/>
    </mask>
    <mask id="id32">
  <linearGradient id="id33" gradientUnits="userSpaceOnUse" x1="2.64469e+006" y1="2.57572e+006" x2="2.63557e+006" y2="2.66189e+006">
   <stop offset="0" style="stop-opacity:1; stop-color:white"/>
   <stop offset="1" style="stop-opacity:0; stop-color:white"/>
  </linearGradient>
     <rect style="fill:url(#id33)" x="2575373" y="2557587" width="129511" height="122443"/>
    </mask>
    <mask id="id34">
  <linearGradient id="id35" gradientUnits="userSpaceOnUse" x1="2.6441e+006" y1="2.5813e+006" x2="2.63617e+006" y2="2.65631e+006">
   <stop offset="0" style="stop-opacity:1; stop-color:white"/>
   <stop offset="1" style="stop-opacity:0; stop-color:white"/>
  </linearGradient>
     <rect style="fill:url(#id35)" x="2583754" y="2565510" width="112754" height="106597"/>
    </mask>
    <mask id="id36">
  <linearGradient id="id37" gradientUnits="userSpaceOnUse" x1="1.48883e+006" y1="166339" x2="1.47086e+006" y2="336269">
   <stop offset="0" style="stop-opacity:1; stop-color:white"/>
   <stop offset="1" style="stop-opacity:0; stop-color:white"/>
  </linearGradient>
     <rect style="fill:url(#id37)" x="1352140" y="130566" width="255410" height="241472"/>
    </mask>
    <mask id="id38">
  <linearGradient id="id39" gradientUnits="userSpaceOnUse" x1="1.48768e+006" y1="177328" x2="1.47203e+006" y2="325272">
   <stop offset="0" style="stop-opacity:1; stop-color:white"/>
   <stop offset="1" style="stop-opacity:0; stop-color:white"/>
  </linearGradient>
     <rect style="fill:url(#id39)" x="1368672" y="146186" width="222364" height="210227"/>
    </mask>
    <mask id="id40">
  <linearGradient id="id41" gradientUnits="userSpaceOnUse" x1="1.17537e+006" y1="326327" x2="1.16223e+006" y2="450528">
   <stop offset="0" style="stop-opacity:1; stop-color:white"/>
   <stop offset="1" style="stop-opacity:0; stop-color:white"/>
  </linearGradient>
     <rect style="fill:url(#id41)" x="1075460" y="300181" width="186677" height="176488"/>
    </mask>
    <mask id="id42">
  <linearGradient id="id43" gradientUnits="userSpaceOnUse" x1="1.17452e+006" y1="334357" x2="1.16309e+006" y2="442490">
   <stop offset="0" style="stop-opacity:1; stop-color:white"/>
   <stop offset="1" style="stop-opacity:0; stop-color:white"/>
  </linearGradient>
     <rect style="fill:url(#id43)" x="1087542" y="311596" width="162525" height="153655"/>
    </mask>
    <mask id="id44">
  <linearGradient id="id45" gradientUnits="userSpaceOnUse" x1="1.26433e+006" y1="535307" x2="1.25509e+006" y2="622691">
   <stop offset="0" style="stop-opacity:1; stop-color:white"/>
   <stop offset="1" style="stop-opacity:0; stop-color:white"/>
  </linearGradient>
     <rect style="fill:url(#id45)" x="1194036" y="516909" width="131348" height="124179"/>
    </mask>
    <mask id="id46">
  <linearGradient id="id47" gradientUnits="userSpaceOnUse" x1="1.26374e+006" y1="540961" x2="1.25569e+006" y2="617045">
   <stop offset="0" style="stop-opacity:1; stop-color:white"/>
   <stop offset="1" style="stop-opacity:0; stop-color:white"/>
  </linearGradient>
     <rect style="fill:url(#id47)" x="1202538" y="524947" width="114352" height="108108"/>
    </mask>
    <mask id="id48">
  <linearGradient id="id49" gradientUnits="userSpaceOnUse" x1="427166" y1="1.33292e+006" x2="421634" y2="1.38526e+006">
   <stop offset="0" style="stop-opacity:1; stop-color:white"/>
   <stop offset="1" style="stop-opacity:0; stop-color:white"/>
  </linearGradient>
     <rect style="fill:url(#id49)" x="385071" y="1321907" width="78657" height="74369"/>
    </mask>
    <mask id="id50">
  <linearGradient id="id51" gradientUnits="userSpaceOnUse" x1="426812" y1="1.33631e+006" x2="421995" y2="1.38187e+006">
   <stop offset="0" style="stop-opacity:1; stop-color:white"/>
   <stop offset="1" style="stop-opacity:0; stop-color:white"/>
  </linearGradient>
     <rect style="fill:url(#id51)" x="390160" y="1326717" width="68487" height="64745"/>
    </mask>
    <mask id="id52">
  <linearGradient id="id53" gradientUnits="userSpaceOnUse" x1="378971" y1="1.48952e+006" x2="373439" y2="1.54186e+006">
   <stop offset="0" style="stop-opacity:1; stop-color:white"/>
   <stop offset="1" style="stop-opacity:0; stop-color:white"/>
  </linearGradient>
     <rect style="fill:url(#id53)" x="336876" y="1478507" width="78657" height="74369"/>
    </mask>
    <mask id="id54">
  <linearGradient id="id55" gradientUnits="userSpaceOnUse" x1="378617" y1="1.49291e+006" x2="373800" y2="1.53847e+006">
   <stop offset="0" style="stop-opacity:1; stop-color:white"/>
   <stop offset="1" style="stop-opacity:0; stop-color:white"/>
  </linearGradient>
     <rect style="fill:url(#id55)" x="341965" y="1483317" width="68487" height="64745"/>
    </mask>
    <mask id="id56">
  <linearGradient id="id57" gradientUnits="userSpaceOnUse" x1="470791" y1="1.43521e+006" x2="466538" y2="1.47544e+006">
   <stop offset="0" style="stop-opacity:1; stop-color:white"/>
   <stop offset="1" style="stop-opacity:0; stop-color:white"/>
  </linearGradient>
     <rect style="fill:url(#id57)" x="438434" y="1426745" width="60460" height="57162"/>
    </mask>
    <mask id="id58">
  <linearGradient id="id59" gradientUnits="userSpaceOnUse" x1="470519" y1="1.43782e+006" x2="466817" y2="1.47284e+006">
   <stop offset="0" style="stop-opacity:1; stop-color:white"/>
   <stop offset="1" style="stop-opacity:0; stop-color:white"/>
  </linearGradient>
     <rect style="fill:url(#id59)" x="442347" y="1430444" width="52637" height="49764"/>
    </mask>
  <linearGradient id="id60" gradientUnits="userSpaceOnUse" x1="1.71173e+006" y1="2.45139e+006" x2="1.71173e+006" y2="2.50174e+006">
   <stop offset="0" style="stop-opacity:1; stop-color:#44A2BA"/>
   <stop offset="1" style="stop-opacity:1; stop-color:#FEFEFE"/>
  </linearGradient>
  <linearGradient id="id61" gradientUnits="userSpaceOnUse" xlink:href="#id60" x1="1.71173e+006" y1="2.45641e+006" x2="1.71173e+006" y2="2.49672e+006">
  </linearGradient>
  <linearGradient id="id62" gradientUnits="userSpaceOnUse" x1="1.535e+006" y1="1.6523e+006" x2="2.21448e+006" y2="1.40966e+006">
   <stop offset="0" style="stop-opacity:1; stop-color:#FFE957"/>
   <stop offset="1" style="stop-opacity:1; stop-color:#F2DE6C"/>
  </linearGradient>
  <radialGradient id="id63" gradientUnits="userSpaceOnUse" gradientTransform="matrix(-1.64524 0.39581 -0.452205 -1.54714 1.86998E+006 3.5495E+006)" cx="456571" cy="1.46447e+006" r="25394.8" fx="456571" fy="1.46447e+006">
   <stop offset="0" style="stop-opacity:1; stop-color:#FF6600"/>
   <stop offset="0.0509804" style="stop-opacity:1; stop-color:#FF9B20"/>
   <stop offset="1" style="stop-opacity:1; stop-color:#FFD03F"/>
  </radialGradient>
  <radialGradient id="id64" gradientUnits="userSpaceOnUse" gradientTransform="matrix(0.637572 1.11797 0.98936 -0.708672 -923819 939940)" cx="1.33229e+006" cy="1.42181e+006" r="155039" fx="1.33229e+006" fy="1.42181e+006">
   <stop offset="0" style="stop-opacity:0.737255; stop-color:aqua"/>
   <stop offset="0.639216" style="stop-opacity:0.737255; stop-color:#0099CC"/>
   <stop offset="1" style="stop-opacity:1; stop-color:#003399"/>
  </radialGradient>
  <radialGradient id="id65" gradientUnits="userSpaceOnUse" gradientTransform="matrix(-1.64548 0.395867 -0.452242 -1.54727 1.64447E+006 3.74849E+006)" xlink:href="#id63" cx="360474" cy="1.52759e+006" r="33035.4" fx="360474" fy="1.52759e+006">
  </radialGradient>
  <radialGradient id="id66" gradientUnits="userSpaceOnUse" gradientTransform="matrix(-1.64532 0.395829 -0.452198 -1.54712 3.53365E+006 1.03716E+006)" xlink:href="#id63" cx="1.23344e+006" cy="598869" r="55167.5" fx="1.23344e+006" fy="598869">
  </radialGradient>
  <radialGradient id="id67" gradientUnits="userSpaceOnUse" gradientTransform="matrix(-1.64535 0.395836 -0.452207 -1.54715 8.10866E+006 5.68558E+006)" xlink:href="#id63" cx="2.61423e+006" cy="2.6384e+006" r="54395.5" fx="2.61423e+006" fy="2.6384e+006">
  </radialGradient>
  <radialGradient id="id68" gradientUnits="userSpaceOnUse" gradientTransform="matrix(0.682954 1.11798 1.05979 -0.708682 -1.24078E+006 1.48185E+006)" xlink:href="#id64" cx="854697" cy="1.42647e+006" r="169112" fx="854697" fy="1.42647e+006">
  </radialGradient>
  <radialGradient id="id69" gradientUnits="userSpaceOnUse" gradientTransform="matrix(0.682954 1.11798 1.05979 -0.708682 -1.12646E+006 1.29753E+006)" xlink:href="#id64" cx="854697" cy="1.3186e+006" r="169112" fx="854697" fy="1.3186e+006">
  </radialGradient>
  <radialGradient id="id70" gradientUnits="userSpaceOnUse" gradientTransform="matrix(-1.64548 0.395867 -0.452242 -1.54727 1.70115E+006 3.3305E+006)" xlink:href="#id63" cx="408669" cy="1.37099e+006" r="33035.4" fx="408669" fy="1.37099e+006">
  </radialGradient>
  <radialGradient id="id71" gradientUnits="userSpaceOnUse" gradientTransform="matrix(-1.64544 0.395857 -0.452222 -1.5472 7.80769E+006 6.17006E+006)" xlink:href="#id63" cx="2.47164e+006" cy="2.80641e+006" r="82038.2" fx="2.47164e+006" fy="2.80641e+006">
  </radialGradient>
  <radialGradient id="id72" gradientUnits="userSpaceOnUse" gradientTransform="matrix(-1.64542 0.395854 -0.45222 -1.54719 7.00689E+006 6.6082E+006)" xlink:href="#id63" cx="2.14813e+006" cy="2.92815e+006" r="107272" fx="2.14813e+006" fy="2.92815e+006">
  </radialGradient>
  <radialGradient id="id73" gradientUnits="userSpaceOnUse" gradientTransform="matrix(-1.6454 0.395848 -0.45223 -1.54723 3.18161E+006 613456)" xlink:href="#id63" cx="1.13146e+006" cy="416667" r="78403.8" fx="1.13146e+006" fy="416667">
  </radialGradient>
  <radialGradient id="id74" gradientUnits="userSpaceOnUse" gradientTransform="matrix(-1.64535 0.395836 -0.452189 -1.54709 8.55488E+006 5.70806E+006)" xlink:href="#id63" cx="2.77708e+006" cy="2.67259e+006" r="40808.3" fx="2.77708e+006" fy="2.67259e+006">
  </radialGradient>
  <radialGradient id="id75" gradientUnits="userSpaceOnUse" gradientTransform="matrix(-1.61705 0.710178 -0.784032 -1.51394 7.1738E+006 5.37769E+006)" xlink:href="#id63" cx="1.93644e+006" cy="2.68618e+006" r="78121.4" fx="1.93644e+006" fy="2.68618e+006">
  </radialGradient>
  <radialGradient id="id76" gradientUnits="userSpaceOnUse" gradientTransform="matrix(-1.64542 0.395854 -0.452227 -1.54722 3.91081E+006 172956)" xlink:href="#id63" cx="1.42876e+006" cy="289939" r="107272" fx="1.42876e+006" fy="289939">
  </radialGradient>
  <radialGradient id="id77" gradientUnits="userSpaceOnUse" gradientTransform="matrix(-0.348835 1.61448 -1.6688 -0.30581 6.73627E+006 214734)" cx="1.89379e+006" cy="2.5059e+006" r="1.43934e+006" fx="1.89379e+006" fy="2.5059e+006">
   <stop offset="0" style="stop-opacity:1; stop-color:#FF8300"/>
   <stop offset="0.0509804" style="stop-opacity:1; stop-color:#FFAE1A"/>
   <stop offset="1" style="stop-opacity:1; stop-color:#FFD933"/>
  </radialGradient>
 </defs>
 <g id="Layer_x0020_1">
  <metadata id="CorelCorpID_0Corel-Layer"/>
  <g id="_1649409488">
   <path class="fil0" style="mask:url(#id0)" d="M1743945 2457405c-11190,-16818 -34687,-21875 -52473,-11293 -17790,10578 -23140,32792 -11951,49610 11193,16818 34687,21875 52477,11297 17790,-10582 23140,-32796 11947,-49614z"/>
   <path class="fil1" style="mask:url(#id2)" d="M1751971 2452634c-13980,-21010 -43327,-27328 -65549,-14109 -22221,13216 -28904,40962 -14924,61972 13981,21006 43328,27324 65549,14109 22222,-13219 28905,-40966 14924,-61972z"/>
   <path class="fil2" d="M565326 1652683c0,0 75298,28261 239368,-44908 124133,-55356 283385,-195653 339874,-74365 8238,17693 22618,36230 29516,63848 40526,203373 -242413,311971 -398781,294832 0,0 -147737,-7870 -208076,-33443"/>
   <g>
    <path class="fil3" d="M1707757 9163c-938057,0 -1682734,710791 -1698501,1587244 -12776,710523 368086,1324144 959736,1584758 861765,379593 2055526,62851 2466957,-864193 -188821,94375 -514576,198456 -876950,198456 -362375,0 -928648,-250507 -1162055,-623406 164666,-2806 402007,-107576 363222,-302197 -5561,-22275 -13391,-40083 -22633,-54260 -67768,-103970 -152733,-37031 -222453,2852 -103691,59341 -182320,86863 -239263,98584 -40383,-119558 -62212,-246811 -62212,-378842 0,-558922 390314,-1032575 930099,-1196126 -139132,-34433 -285225,-52870 -435947,-52870z"/>
    <path id="1" class="fil4" d="M18462 1596572l-18412 -329 0 0 3617 -82138 7815 -81066 11915 -79894 15917 -78615 19813 -77239 23622 -75759 27325 -74180 30927 -72492 34433 -70721 37838 -68833 41152 -66846 44353 -64770 47470 -62587 50478 -60299 53392 -57916 56203 -55435 58924 -52848 61536 -50168 64055 -47381 66475 -44499 68790 -41513 71021 -38428 73139 -35247 75163 -31960 77092 -28579 78918 -25088 80648 -21503 82271 -17822 83807 -14030 85233 -10150 86570 -6161 87795 -2076 0 18326 -86923 2055 -85691 6104 -84361 10042 -82942 13887 -81420 17637 -79805 21281 -78082 24823 -76277 28272 -74362 31624 -72361 34868 -70256 38014 -68054 41069 -65753 44021 -63362 46866 -60864 49617 -58273 52270 -55582 54820 -52798 57273 -49914 59627 -46933 61879 -43853 64034 -40680 66089 -37410 68040 -34032 69898 -30570 71657 -27003 73307 -23343 74873 -19584 76331 -15732 77693 -11772 78957 -7722 80123 -3581 81195 0 0zm954257 1576212l-7455 16761 0 0 -55174 -25613 -53896 -27646 -52587 -29633 -51247 -31567 -49864 -33464 -48452 -35309 -47009 -37102 -45526 -38850 -44017 -40558 -42467 -42205 -40886 -43814 -39272 -45379 -37624 -46887 -35945 -48353 -34229 -49771 -32477 -51140 -30699 -52462 -28882 -53738 -27028 -54964 -25152 -56150 -23233 -57283 -21285 -58366 -19302 -59406 -17286 -60403 -15235 -61346 -13154 -62236 -11032 -63098 -8885 -63894 -6700 -64649 -4485 -65363 -2234 -66017 50 -66636 18412 329 -50 66006 2212 65389 4442 64727 6636 64019 8799 63266 10925 62461 13019 61615 15077 60717 17108 59781 19101 58791 21064 57759 22989 56675 24881 55550 26742 54378 28568 53152 30362 51890 32121 50575 33843 49214 35544 47809 37195 46358 38829 44858 40415 43313 41973 41720 43503 40079 44997 38399 46451 36667 47881 34886 49270 33064 50633 31195 51958 29276 53252 27318 54517 25305 0 0zm2467361 -847621l-8262 -16382 12554 11894 -41062 85604 -45472 81999 -49671 78372 -53663 74726 -57451 71064 -61032 67382 -64405 63684 -67568 59970 -70531 56247 -73286 52498 -75835 48742 -78175 44971 -80312 41177 -82245 37377 -83979 33561 -85498 29726 -86819 25877 -87939 22018 -88846 18140 -89554 14245 -90061 10339 -90358 6411 -90461 2473 -90347 -1483 -90047 -5454 -89529 -9441 -88810 -13448 -87892 -17472 -86767 -21507 -85433 -25566 -83896 -29637 -82164 -33725 7455 -16761 81298 33375 83039 29330 84583 25309 85916 21299 87048 17300 87982 13327 88699 9356 89225 5403 89540 1469 89653 -2452 89558 -6354 89260 -10245 88761 -14124 88053 -17976 87145 -21817 86026 -25642 84712 -29454 83185 -33246 81459 -37020 79533 -40777 77396 -44521 75063 -48242 72521 -51954 69780 -55647 66840 -59320 63690 -62983 60346 -66625 56801 -70255 53048 -73869 49099 -77471 44950 -81055 40598 -84633 12554 11893zm-12554 -11893c2051,-4628 7494,-6726 12143,-4682 4650,2044 6755,7459 4703,12087l-16846 -7405zm-868527 211321l0 -18326 0 0 33696 -300 33472 -890 33217 -1451 32957 -1994 32671 -2523 32367 -3024 32042 -3509 31706 -3967 31345 -4410 30970 -4832 30573 -5231 30162 -5611 29726 -5968 29273 -6304 28807 -6630 28319 -6915 27810 -7197 27285 -7444 26743 -7684 26181 -7894 25595 -8087 24998 -8256 24383 -8409 23744 -8537 23090 -8645 22414 -8734 21721 -8799 21006 -8841 20281 -8866 19527 -8867 18762 -8852 17976 -8813 8262 16382 -18226 8934 -19005 8967 -19769 8981 -20517 8966 -21242 8942 -21950 8891 -22643 8820 -23319 8730 -23972 8617 -24605 8487 -25227 8334 -25831 8159 -26410 7966 -26978 7748 -27521 7515 -28053 7255 -28562 6979 -29050 6680 -29530 6361 -29983 6018 -30420 5661 -30837 5274 -31242 4875 -31624 4453 -31984 4002 -32335 3538 -32661 3052 -32971 2545 -33264 2015 -33532 1466 -33793 897 -34025 300 0 0zm-1162212 -641732l314 18326 7659 -14009 22600 34232 24448 33522 26202 32781 27857 32028 29419 31238 30881 30423 32242 29583 33510 28722 34680 27832 35748 26921 36723 25981 37592 25016 38364 24026 39043 23018 39618 21975 40090 20917 40476 19831 40751 18722 40930 17583 41012 16428 40994 15249 40872 14045 40655 12808 40336 11561 39919 10286 39400 8984 38782 7665 38064 6319 37245 4953 36320 3563 35294 2155 34172 722 0 18326 -34937 -736 -36002 -2198 -36977 -3628 -37853 -5031 -38635 -6412 -39325 -7772 -39915 -9106 -40412 -10407 -40808 -11697 -41112 -12958 -41316 -14195 -41423 -15406 -41441 -16600 -41351 -17768 -41166 -18909 -40890 -20038 -40512 -21131 -40033 -22211 -39464 -23261 -38793 -24298 -38021 -25302 -37159 -26288 -36191 -27257 -35137 -28196 -33968 -29115 -32714 -30020 -31359 -30894 -29898 -31753 -28350 -32585 -26689 -33396 -24941 -34194 -23079 -34961 7659 -14009zm-7659 14009c-2687,-4296 -1365,-9953 2949,-12626 4313,-2673 9995,-1362 12683,2934l-15632 9692zm362100 -304835l17876 -4417 96 425 2952 18712 1337 18223 -211 17711 -1712 17182 -3141 16633 -4507 16071 -5796 15492 -7012 14898 -8152 14295 -9216 13695 -10214 13090 -11132 12480 -11983 11875 -12765 11275 -13480 10675 -14134 10078 -14717 9488 -15238 8891 -15692 8302 -16089 7712 -16425 7123 -16689 6532 -16897 5944 -17039 5353 -17125 4764 -17147 4174 -17104 3574 -17007 2980 -16836 2384 -16614 1783 -16332 1183 -15982 572 -314 -18326 15295 -551 15675 -1133 15985 -1711 16228 -2298 16407 -2881 16518 -3452 16560 -4031 16540 -4599 16453 -5168 16296 -5729 16082 -6297 15796 -6850 15445 -7405 15035 -7952 14552 -8491 14009 -9031 13405 -9556 12730 -10081 12000 -10603 11211 -11104 10353 -11607 9449 -12105 8480 -12593 7459 -13087 6389 -13570 5261 -14062 4085 -14563 2848 -15074 1554 -15596 197 -16131 -1229 -16686 -2724 -17254 97 425zm-97 -425c-986,-4960 2255,-9788 7244,-10771 4989,-983 9839,2244 10825,7204l-18069 3567zm-21324 -51054l15453 -9978 0 0 918 1433 908 1447 904 1473 894 1501 875 1515 869 1533 857 1558 851 1583 843 1616 822 1629 811 1644 808 1676 793 1698 780 1715 764 1737 761 1769 747 1794 733 1808 718 1841 708 1855 693 1879 686 1909 672 1933 658 1962 643 1980 629 1998 618 2033 601 2051 593 2080 575 2109 561 2126 551 2155 -17876 4417 -507 -1997 -519 -1970 -532 -1937 -543 -1915 -558 -1894 -568 -1862 -579 -1841 -586 -1815 -601 -1783 -607 -1755 -622 -1737 -636 -1715 -643 -1691 -654 -1661 -661 -1637 -669 -1608 -682 -1591 -694 -1565 -700 -1544 -708 -1518 -714 -1491 -733 -1479 -736 -1451 -736 -1415 -751 -1398 -765 -1386 -768 -1362 -775 -1336 -779 -1308 -790 -1294 -801 -1276 -804 -1247 0 0zm-210134 5807l-9185 -15889 4 0 6500 -3770 6615 -3902 6719 -4010 6822 -4078 6915 -4099 6998 -4099 7083 -4056 7161 -3974 7230 -3856 7301 -3702 7373 -3513 7437 -3277 7497 -3013 7559 -2702 7619 -2351 7676 -1962 7734 -1523 7783 -1040 7827 -507 7858 71 7873 697 7862 1369 7838 2080 7772 2830 7687 3606 7577 4410 7444 5232 7301 6072 7154 6936 7005 7823 6847 8734 6701 9678 -15453 9978 -6107 -8827 -6147 -7841 -6168 -6894 -6183 -5993 -6193 -5150 -6186 -4345 -6190 -3602 -6200 -2906 -6215 -2266 -6250 -1658 -6304 -1097 -6365 -561 -6437 -57 -6518 429 -6597 882 -6669 1315 -6733 1719 -6797 2102 -6843 2444 -6876 2763 -6908 3048 -6923 3299 -6929 3516 -6929 3692 -6919 3838 -6897 3949 -6876 4027 -6844 4064 -6801 4063 -6761 4031 -6715 3967 -6658 3856 4 0zm-4 0c-4406,2520 -10039,1008 -12572,-3377 -2534,-4385 -1012,-9992 3395,-12512l9177 15889zm-252579 93560l17454 -5839 -10593 -6054 5296 -1126 5422 -1215 5553 -1315 5690 -1415 5807 -1516 5947 -1629 6082 -1734 6211 -1847 6343 -1962 6480 -2080 6611 -2201 6754 -2330 6883 -2452 7023 -2584 7158 -2712 7294 -2856 7437 -2994 7576 -3131 7712 -3281 7855 -3427 7994 -3577 8134 -3735 8284 -3888 8420 -4049 8562 -4210 8706 -4378 8852 -4545 8999 -4721 9145 -4893 9291 -5067 9431 -5250 9585 -5436 9185 15889 -9714 5507 -9567 5321 -9420 5147 -9281 4964 -9134 4792 -8995 4617 -8849 4449 -8713 4282 -8569 4120 -8427 3960 -8291 3806 -8152 3649 -8012 3491 -7877 3352 -7740 3202 -7601 3059 -7473 2920 -7330 2784 -7201 2648 -7062 2516 -6933 2387 -6797 2266 -6672 2144 -6536 2020 -6404 1904 -6276 1791 -6147 1679 -6021 1573 -5890 1465 -5761 1365 -5635 1265 -5511 1169 -10592 -6054zm10592 6054c-4978,1022 -9853,-2166 -10882,-7119 -1029,-4953 2173,-9806 7151,-10828l3731 17947zm-73286 -387816l18419 0 0 0 64 12272 186 12236 318 12215 443 12180 561 12157 690 12119 811 12093 936 12058 1058 12029 1176 11990 1301 11961 1422 11929 1540 11894 1659 11861 1776 11825 1894 11786 2015 11751 2130 11714 2245 11676 2362 11643 2480 11596 2587 11565 2706 11525 2819 11483 2931 11443 3041 11400 3156 11357 3266 11322 3377 11278 3481 11229 3595 11189 3703 11147 -17454 5839 -3760 -11318 -3652 -11361 -3538 -11407 -3428 -11450 -3316 -11493 -3206 -11536 -3091 -11579 -2973 -11622 -2863 -11661 -2748 -11704 -2630 -11743 -2516 -11783 -2398 -11821 -2280 -11862 -2166 -11893 -2044 -11936 -1923 -11972 -1804 -12011 -1687 -12040 -1562 -12079 -1444 -12115 -1322 -12147 -1197 -12183 -1072 -12215 -951 -12244 -825 -12279 -697 -12311 -576 -12337 -450 -12372 -318 -12401 -193 -12429 -64 -12458 0 0zm937085 -1187231l4446 -17790 461 17661 -49832 16128 -48913 17890 -47956 19616 -46951 21292 -45905 22940 -44814 24534 -43678 26091 -42506 27618 -41284 29083 -40014 30527 -38707 31916 -37353 33272 -35955 34583 -34515 35855 -33032 37081 -31502 38274 -29930 39418 -28315 40530 -26656 41591 -24955 42616 -23208 43599 -21414 44543 -19584 45447 -17711 46305 -15789 47126 -13823 47906 -11818 48649 -9767 49346 -7673 50007 -5535 50625 -3353 51208 -1125 51744 -18419 0 1147 -52537 3402 -52002 5622 -51411 7794 -50786 9917 -50118 12004 -49406 14038 -48649 16031 -47863 17983 -47020 19884 -46140 21743 -45222 23558 -44257 25327 -43252 27056 -42213 28729 -41123 30366 -39997 31960 -38825 33504 -37617 35008 -36362 36462 -35076 37882 -33736 39243 -32360 40572 -30948 41848 -29491 43085 -27989 44278 -26449 45422 -24870 46527 -23247 47580 -21578 48599 -19880 49564 -18126 50489 -16343 461 17662zm-461 -17662c4864,-1472 10014,1258 11493,6097 1480,4839 -1261,9964 -6125,11436l-5368 -17533zm-433263 -34940l0 -18326 0 0 14188 54 14155 160 14134 268 14106 379 14073 486 14049 590 14012 693 13984 804 13955 908 13924 1011 13891 1115 13862 1219 13827 1322 13791 1423 13766 1529 13730 1630 13691 1730 13662 1829 13623 1934 13591 2033 13551 2130 13516 2230 13484 2330 13444 2430 13405 2523 13369 2623 13327 2720 13291 2816 13254 2913 13212 3005 13170 3106 13133 3195 -4446 17790 -12997 -3167 -13034 -3070 -13076 -2977 -13119 -2883 -13155 -2788 -13190 -2691 -13234 -2595 -13269 -2501 -13309 -2402 -13340 -2308 -13380 -2209 -13416 -2108 -13448 -2012 -13487 -1912 -13519 -1809 -13556 -1715 -13587 -1615 -13623 -1508 -13655 -1408 -13691 -1316 -13719 -1204 -13748 -1101 -13788 -1004 -13812 -893 -13841 -797 -13877 -686 -13905 -590 -13931 -479 -13962 -372 -13991 -268 -14020 -160 -14045 -54 0 0z"/>
   </g>
   <path class="fil5" d="M3416322 2353506c6654,-10578 13223,-21203 19624,-31945 -188821,94375 -514569,193867 -876947,193867 -362372,0 -928648,-250511 -1162055,-623403 164666,-2809 402011,-107579 363225,-302197 -5567,-22278 -13394,-40083 -22636,-54263 -67771,-103970 -152733,-37031 -222453,2852 -103695,59341 -182320,86866 -239263,98584 -40387,-119558 -62212,-246811 -62212,-378842 0,-558922 390314,-1032575 930103,-1196126 -8359,-2066 -16736,-4071 -25138,-6026 -74447,-10196 -150532,-15563 -227964,-15563 -870996,0 -1577073,667534 -1577073,1490993 0,25617 736,51054 2115,76346 55668,-12087 116239,-3749 168019,27814 101836,62075 131148,190475 65517,286758 -35341,51823 -90998,83765 -150747,92556 130119,359083 401146,656291 750684,832701 19502,-35598 55747,-62469 100736,-69845 76413,-12526 149096,35887 162368,108112 4139,22572 1980,44804 -5267,65078 101943,31034 208426,52533 318253,63372 -2630,-30273 8674,-61364 33700,-83982 44036,-39797 113859,-38300 155950,3316 24591,24323 34269,56976 29290,87849 506432,-15985 1195709,-303580 1472171,-668006z"/>
   <path class="fil6" d="M646414 1977444c-25938,364219 613510,719897 1022118,277564 -291994,431415 -979537,253984 -1095980,-263273 0,0 70606,-12400 73862,-14291z"/>
   <path class="fil6" d="M725161 1917427c443,16993 882,33990 1322,50986 -115185,-2247 -192259,67980 -261668,152791 50711,-124837 131342,-202465 260346,-203777z"/>
   <path class="fil6" d="M1125881 2631906c4224,-16525 8452,-33050 12680,-49575 110646,30355 204320,-18619 294581,-83557 -83160,108177 -182295,163426 -307261,133132z"/>
   <path class="fil7" d="M913034 709604c-3366,16700 12269,85037 8902,101737 -112089,-25191 -203108,28064 -289892,97112 27221,-116157 154599,-223318 280990,-198849z"/>
   <path class="fil7" d="M1082000 731407c2448,12158 -8931,61901 -6483,74055 81591,-18337 147848,20431 211017,70688 -19813,-84551 -112533,-162554 -204534,-144743z"/>
   <g id="_1649407472">
    <path class="fil8" d="M1323579 1101716c9778,5889 19563,11779 29344,17665 14985,-82424 94586,-98349 182499,-103509 -91055,-11476 -165152,10306 -211843,85844z"/>
    <path class="fil8" d="M1250061 1082704c11454,1887 22911,3770 34368,5653 -15367,-80605 54882,-123561 136941,-159652 -91044,22025 -153934,68362 -171309,153999z"/>
    <path class="fil8" d="M1389915 1131135c4334,5957 8673,11914 13015,17872 36934,-47137 93385,-37935 151619,-20127 -54743,-28794 -109596,-33075 -164634,2255z"/>
    <path class="fil8" d="M1201365 1110550c9724,-2812 19448,-5632 29176,-8452 -47280,-55153 -11543,-113572 36377,-171184 -61068,50318 -89604,108566 -65553,179636z"/>
    <path class="fil8" d="M721537 1070968c-10235,5149 -20474,10299 -30713,15449 -8137,-83282 -86183,-105028 -173404,-116650 91723,-4728 163802,22450 204117,101201z"/>
    <path class="fil8" d="M796399 1057434c-11572,1036 -23151,2069 -34729,3102 21967,-79229 -44522,-127232 -123354,-169262 88949,28668 147823,79504 158083,166160z"/>
    <path class="fil8" d="M652979 1095405c-4814,5618 -9632,11239 -14449,16857 -32935,-49714 -89975,-44704 -149499,-31245 56951,-24666 111993,-24891 163948,14388z"/>
    <path class="fil8" d="M842654 1088786c-9464,-3524 -18927,-7051 -28394,-10578 51687,-51501 20878,-112376 -22142,-173347 56729,54667 80373,114845 50536,183925z"/>
    <path class="fil9" d="M1459502 1219234c49871,112325 39275,279036 -24001,356610 -47409,58116 -314165,88543 -352168,28772 -75949,-119390 -63459,-277885 -2863,-388052 106204,-193091 309509,-153916 379032,2670z"/>
    <path class="fil9" d="M851616 1045662c159506,73565 292706,425633 148431,565394 -80380,77861 -250392,72025 -351779,40851 -149509,-45968 -160606,-314658 -44585,-493205 50925,-78389 136001,-167964 247933,-113040z"/>
    <ellipse class="fil10" transform="matrix(-1.55814 0.609723 0.33276 1.39126 801822 1.37452E+006)" rx="143481" ry="188010"/>
    <ellipse class="fil11" transform="matrix(-1.51497 0.592829 0.323539 1.35271 811321 1.37675E+006)" rx="143481" ry="188010"/>
    <ellipse class="fil12" transform="matrix(-1.48974 0.603177 0.283069 1.27818 821816 1.38923E+006)" rx="143481" ry="188010"/>
    <path class="fil13" d="M798876 1131749c90104,-35258 183581,21618 208794,127035 25212,105418 -27385,219455 -117486,254713 -90100,35259 -183582,-21617 -208794,-127035 -25213,-105417 27385,-219454 117486,-254713z"/>
    <ellipse class="fil11" transform="matrix(-0.6736 0.263589 0.143855 0.601454 861009 1.32562E+006)" rx="143481" ry="188010"/>
    <circle class="fil14" transform="matrix(-1.29029 0.862992 0.754334 1.23455 800863 1.31304E+006)" r="34633"/>
    <circle class="fil14" transform="matrix(-0.737212 0.493075 0.430992 0.705364 936994 1.34976E+006)" r="34633"/>
    <ellipse class="fil15" transform="matrix(-1.55814 0.609723 0.33276 1.39126 801822 1.37452E+006)" rx="143481" ry="188010"/>
    <ellipse class="fil16" transform="matrix(-1.51497 0.592829 0.323539 1.35271 811321 1.37675E+006)" rx="143481" ry="188010"/>
    <ellipse class="fil12" transform="matrix(-1.48974 0.603177 0.283069 1.27818 821816 1.38923E+006)" rx="143481" ry="188010"/>
    <path class="fil17" d="M798876 1239622c90104,-35258 183581,21621 208794,127035 25212,105417 -27385,219455 -117486,254713 -90100,35258 -183582,-21618 -208794,-127035 -25213,-105414 27385,-219455 117486,-254713z"/>
    <ellipse class="fil11" transform="matrix(-0.6736 0.263589 0.143855 0.601454 864901 1.50339E+006)" rx="143481" ry="188010"/>
    <circle class="fil14" transform="matrix(-1.02014 0.682306 0.596398 0.976067 864756 1.45135E+006)" r="34633"/>
    <circle class="fil14" transform="matrix(-0.582861 0.389839 0.340755 0.557681 902345 1.55397E+006)" r="34633"/>
    <ellipse class="fil10" transform="matrix(-1.33354 0.558974 0.284793 1.27546 1.27546E+006 1.37222E+006)" rx="143481" ry="188010"/>
    <ellipse class="fil11" transform="matrix(-1.29659 0.543486 0.276902 1.24012 1.28359E+006 1.37427E+006)" rx="143481" ry="188010"/>
    <ellipse class="fil12" transform="matrix(-1.275 0.552972 0.242265 1.1718 1.29257E+006 1.38571E+006)" rx="143481" ry="188010"/>
    <path class="fil18" d="M1284511 1250511c77114,-32324 157119,19816 178697,116460 21578,96641 -23440,201190 -100554,233510 -77113,32325 -157115,-19816 -178693,-116460 -21581,-96640 23437,-201189 100550,-233510z"/>
    <ellipse class="fil11" transform="matrix(-0.576502 0.24165 0.123119 0.551393 1.33769E+006 1.42824E+006)" rx="143481" ry="188010"/>
    <circle class="fil14" transform="matrix(-1.10429 0.791163 0.645598 1.13179 1.28621E+006 1.41671E+006)" r="34633"/>
    <circle class="fil14" transform="matrix(-0.630944 0.452035 0.368865 0.646654 1.40272E+006 1.45038E+006)" r="34633"/>
    <ellipse class="fil15" transform="matrix(-1.33354 0.558974 0.284793 1.27546 1.27546E+006 1.37222E+006)" rx="143481" ry="188010"/>
    <ellipse class="fil16" transform="matrix(-1.29659 0.543486 0.276902 1.24012 1.28359E+006 1.37427E+006)" rx="143481" ry="188010"/>
    <ellipse class="fil12" transform="matrix(-1.275 0.552972 0.242265 1.1718 1.29257E+006 1.38571E+006)" rx="143481" ry="188010"/>
    <path class="fil18" d="M1284511 1250511c77114,-32324 157119,19816 178697,116460 21578,96641 -23440,201190 -100554,233510 -77113,32325 -157115,-19816 -178693,-116460 -21581,-96640 23437,-201189 100550,-233510z"/>
    <ellipse class="fil11" transform="matrix(-0.576502 0.24165 0.123119 0.551393 1.34158E+006 1.48342E+006)" rx="143481" ry="188010"/>
    <circle class="fil14" transform="matrix(-0.906699 0.649597 0.530079 0.929275 1.35079E+006 1.43319E+006)" r="34633"/>
    <circle class="fil14" transform="matrix(-0.518047 0.371151 0.302863 0.530946 1.36863E+006 1.53808E+006)" r="34633"/>
   </g>
   <g>
    <path class="fil19" d="M1148085 1661195c-1344,-504 -5761,-4392 -9860,-8677 -4099,-4285 -6336,-7351 -4993,-6847l14853 15524zm232141 -61954l15482 15596 0 0 -15628 6787 -15092 6196 -14559 5629 -14027 5093 -13502 4574 -12979 4081 -12455 3617 -11940 3173 -11418 2755 -10907 2363 -10396 1997 -9885 1648 -9377 1329 -8873 1037 -8377 761 -7873 518 -7380 300 -6886 100 -6394 -71 -5907 -225 -5418 -343 -4935 -443 -4460 -519 -3978 -571 -3506 -594 -3030 -593 -2566 -575 -2094 -526 -1633 -450 -1173 -357 -707 -240 -268 -93 -14853 -15524 190 72 665 218 1122 343 1590 443 2058 511 2531 568 3002 593 3477 586 3956 565 4431 518 4914 443 5404 343 5886 218 6379 72 6872 -100 7365 -293 7859 -518 8362 -762 8867 -1036 9363 -1329 9878 -1648 10381 -1990 10900 -2363 11411 -2755 11933 -3166 12447 -3617 12973 -4081 13494 -4574 14027 -5086 14552 -5628 15085 -6197 15620 -6780 0 0zm366592 -61743l-15410 -14580 0 0 -5593 -10625 -5553 -8266 -1491 -1923 -536 -264 -6661 -4364 -8148 -3859 -8824 -2799 -9331 -1701 -9774 -657 -10178 332 -10546 1262 -10885 2122 -11204 2920 -11482 3653 -11743 4317 -11976 4921 -12179 5449 -12362 5922 -12511 6326 -12640 6665 -12744 6936 -12812 7144 -12865 7287 -12887 7362 -12883 7372 -12855 7316 -12794 7197 -12719 7008 -12608 6758 -12476 6443 -12311 6058 -12129 5607 -15482 -15596 12122 -5607 12312 -6057 12468 -6436 12608 -6758 12712 -7008 12794 -7198 12855 -7315 12883 -7373 12887 -7362 12865 -7287 12819 -7143 12744 -6937 12640 -6665 12519 -6333 12369 -5921 12186 -5457 11983 -4921 11757 -4324 11497 -3653 11218 -2927 10914 -2130 10582 -1261 10228 -340 9859 665 9474 1730 9103 2891 8848 4203 9349 6214 14438 12951 12397 14074 7197 10632 5965 11310 0 0zm30595 66246l-15610 -15145 7 32 -686 -2634 -726 -2576 -772 -2520 -804 -2476 -836 -2423 -869 -2370 -900 -2326 -926 -2280 -950 -2241 -969 -2194 -990 -2155 -1004 -2116 -1015 -2080 -1029 -2044 -1040 -2016 -1047 -1979 -1051 -1955 -1054 -1930 -1054 -1908 -1055 -1884 -1050 -1869 -1044 -1851 -1033 -1833 -1025 -1819 -1015 -1812 -994 -1798 -979 -1790 -954 -1783 -929 -1773 -901 -1769 -868 -1758 -833 -1751 15410 14580 797 1680 833 1687 864 1697 894 1709 925 1726 951 1740 972 1762 994 1776 1018 1805 1033 1833 1051 1858 1057 1884 1069 1912 1076 1944 1075 1972 1080 2005 1075 2037 1069 2073 1058 2101 1050 2138 1033 2179 1012 2213 997 2251 972 2291 947 2330 915 2376 889 2420 851 2466 818 2512 779 2562 740 2613 693 2662 8 32zm-8 -32c279,1129 -2980,-1329 -7286,-5493 -4307,-4163 -8031,-8459 -8309,-9588l15595 15081zm-412163 304881l-15282 -15624 22 0 15492 1279 16182 522 16778 -218 17290 -969 17718 -1704 18062 -2438 18319 -3159 18487 -3884 18576 -4600 18569 -5303 18494 -6008 18315 -6700 18065 -7398 17722 -8080 17297 -8756 16789 -9434 16189 -10100 15510 -10756 14745 -11418 13888 -12065 12958 -12705 11933 -13348 10828 -13977 9635 -14602 8355 -15220 6998 -15835 5550 -16439 4016 -17043 2402 -17633 697 -18219 -1087 -18794 -2951 -19366 15610 15145 2966 19459 1093 18866 -704 18276 -2408 17675 -4024 17072 -5558 16468 -7004 15856 -8370 15242 -9642 14617 -10835 13991 -11947 13355 -12965 12719 -13902 12072 -14752 11425 -15518 10764 -16203 10106 -16796 9435 -17304 8763 -17737 8087 -18072 7398 -18329 6707 -18502 6008 -18583 5310 -18583 4600 -18501 3884 -18333 3167 -18076 2437 -17740 1705 -17311 968 -16807 225 -16211 -529 -15535 -1279 22 0zm-22 0c-958,-104 -5150,-3688 -9356,-8002 -4206,-4313 -6840,-7726 -5882,-7622l15238 15624zm-215238 -34633l-14723 -15467 6036 2394 6540 2305 7001 2205 7394 2105 7762 2012 8062 1912 8334 1816 8548 1726 8727 1633 8852 1540 8942 1455 8981 1369 8977 1283 8927 1193 8834 1119 8698 1040 8513 961 8288 886 8019 815 7698 740 7340 672 6937 604 6486 536 5990 471 5453 411 4871 347 4242 293 3574 232 2855 179 2091 125 1290 72 439 25 15282 15624 -440 -25 -1290 -72 -2098 -125 -2855 -178 -3574 -233 -4249 -293 -4871 -346 -5454 -411 -5996 -472 -6487 -536 -6943 -604 -7341 -672 -7705 -740 -8019 -814 -8295 -887 -8519 -961 -8706 -1040 -8841 -1119 -8935 -1200 -8984 -1283 -8988 -1369 -8956 -1455 -8866 -1547 -8741 -1633 -8570 -1726 -8355 -1823 -8091 -1919 -7791 -2019 -7444 -2119 -7058 -2227 -6633 -2333 -6165 -2452zm0 0c-1447,-611 -5921,-4574 -9985,-8845 -4063,-4270 -6186,-7233 -4738,-6622l14723 15467z"/>
   </g>
   <path class="fil20" style="mask:url(#id4)" d="M1900935 2946254c-34741,-34358 -92367,-35588 -128711,-2745 -36342,32846 -37642,87327 -2902,121689 34740,34361 92370,35587 128711,2744 36344,-32846 37642,-87327 2902,-121688z"/>
   <path class="fil21" style="mask:url(#id6)" d="M1892422 2953951c-30244,-29915 -80416,-30984 -112058,-2391 -31641,28594 -32770,76028 -2526,105943 30244,29912 80416,30981 112057,2388 31638,-28594 32771,-76028 2527,-105940z"/>
   <path class="fil20" style="mask:url(#id8)" d="M1386906 2890032c-10829,-59024 -70220,-98578 -132653,-88339 -62433,10235 -104271,66389 -93442,125413 10828,59027 70223,98581 132656,88342 62433,-10239 104267,-66389 93439,-125416z"/>
   <path class="fil21" style="mask:url(#id10)" d="M1372278 2892433c-9427,-51390 -61135,-85822 -115488,-76910 -54353,8913 -90776,57798 -81348,109185 9423,51386 61135,85822 115488,76910 54352,-8913 90776,-57798 81348,-109185z"/>
   <path class="fil20" style="mask:url(#id12)" d="M521005 1905184c55639,-81578 30787,-190358 -55496,-242959 -86288,-52598 -201351,-29108 -256986,52469 -55636,81581 -30788,190361 55500,242959 86287,52601 201346,29108 256982,-52469z"/>
   <path class="fil21" style="mask:url(#id14)" d="M500788 1892858c48439,-71021 26807,-165724 -48316,-211521 -75123,-45794 -175295,-25338 -223733,45683 -48434,71020 -26803,165727 48320,211521 75120,45793 175295,25341 223729,-45683z"/>
   <path class="fil22" style="mask:url(#id16)" d="M2313838 2836351c-31052,-59853 -107551,-84568 -170856,-55210 -63305,29358 -89450,101683 -58394,161532 31052,59849 107551,84568 170856,55206 63304,-29358 89450,-101679 58394,-161528z"/>
   <path class="fil21" style="mask:url(#id18)" d="M2299014 2843227c-27035,-52105 -93635,-73626 -148748,-48067 -55111,25560 -77875,88525 -50840,140630 27039,52104 93638,73625 148749,48066 55113,-25559 77878,-88524 50839,-140629z"/>
   <path class="fil23" style="mask:url(#id20)" d="M2598363 2736205c-23747,-45772 -82253,-64677 -130666,-42224 -48413,22454 -68408,77764 -44657,123537 23747,45768 82253,64673 130666,42219 48413,-22453 68408,-77764 44657,-123532z"/>
   <path class="fil21" style="mask:url(#id22)" d="M2587027 2741462c-20674,-39847 -71610,-56304 -113758,-36759 -42149,19548 -59556,67704 -38879,107550 20674,39851 71607,56308 113759,36760 42148,-19549 59556,-67701 38878,-107551z"/>
   <path class="fil24" style="mask:url(#id24)" d="M2047854 2595844c-32278,-40841 -93467,-49207 -136663,-18691 -43199,30520 -52048,88371 -19770,129208 32282,40837 93471,49206 136666,18687 43196,-30516 52048,-88368 19767,-129204z"/>
   <path class="fil21" style="mask:url(#id26)" d="M2037740 2602991c-28104,-35555 -81374,-42838 -118980,-16271 -37606,26570 -45315,76935 -17211,112486 28104,35555 81374,42842 118983,16271 37607,-26567 45312,-76931 17208,-112486z"/>
   <path class="fil25" style="mask:url(#id28)" d="M2840118 2637677c-11815,-22768 -40912,-32170 -64995,-21002 -24080,11168 -34026,38678 -22211,61446 11811,22765 40912,32167 64992,20999 24079,-11168 34025,-38678 22214,-61443z"/>
   <path class="fil21" style="mask:url(#id30)" d="M2834478 2640293c-10285,-19819 -35619,-28007 -56582,-18283 -20964,9721 -29623,33672 -19341,53492 10285,19823 35619,28007 56582,18286 20967,-9724 29627,-33675 19341,-53495z"/>
   <path class="fil26" style="mask:url(#id32)" d="M2698252 2591852c-15749,-30348 -54539,-42881 -86638,-27993 -32099,14888 -45357,51558 -29608,81906 15746,30348 54535,42881 86634,27996 32099,-14888 45358,-51561 29612,-81909z"/>
   <path class="fil21" style="mask:url(#id34)" d="M2690733 2595340c-13709,-26421 -47477,-37331 -75423,-24373 -27947,12962 -39490,44889 -25781,71310 13709,26420 47480,37331 75427,24373 27946,-12962 39486,-44890 25777,-71310z"/>
   <path class="fil27" style="mask:url(#id36)" d="M1594470 198141c-31052,-59849 -107550,-84568 -170855,-55210 -63305,29358 -89450,101683 -58395,161532 31052,59849 107551,84568 170856,55210 63305,-29362 89450,-101683 58394,-161532z"/>
   <path class="fil21" style="mask:url(#id38)" d="M1579647 205017c-27035,-52105 -93635,-73626 -148745,-48067 -55114,25563 -77879,88525 -50844,140633 27039,52105 93639,73626 148749,48063 55114,-25559 77878,-88524 50840,-140629z"/>
   <path class="fil28" style="mask:url(#id40)" d="M1252577 349570c-22697,-43742 -78608,-61811 -124877,-40351 -46269,21457 -65377,74319 -42681,118062 22697,43742 78608,61811 124877,40350 46269,-21456 65377,-74319 42681,-118061z"/>
   <path class="fil21" style="mask:url(#id42)" d="M1241745 354598c-19763,-38085 -68437,-53813 -108720,-35133 -40283,18684 -56918,64702 -37159,102787 19762,38082 68436,53810 108719,35130 40283,-18683 56919,-64702 37160,-102784z"/>
   <path class="fil29" style="mask:url(#id44)" d="M1318655 551664c-15968,-30781 -55307,-43492 -87864,-28393 -32553,15099 -45997,52290 -30030,83067 15971,30777 55311,43489 87864,28393 32556,-15099 46001,-52290 30030,-83067z"/>
   <path class="fil21" style="mask:url(#id46)" d="M1311032 555198c-13902,-26796 -48152,-37860 -76492,-24716 -28343,13145 -40047,45522 -26145,72318 13902,26796 48152,37864 76495,24719 28340,-13147 40047,-45525 26142,-72321z"/>
   <path class="fil30" style="mask:url(#id48)" d="M459701 1342717c-9563,-18430 -33124,-26046 -52619,-17001 -19495,9042 -27546,31313 -17983,49746 9563,18434 33121,26046 52619,17004 19495,-9041 27547,-31316 17983,-49749z"/>
   <path class="fil21" style="mask:url(#id50)" d="M455138 1344836c-8327,-16046 -28840,-22676 -45812,-14803 -16975,7870 -23983,27264 -15656,43310 8323,16046 28836,22675 45808,14803 16975,-7873 23986,-27264 15660,-43310z"/>
   <path class="fil31" style="mask:url(#id52)" d="M411506 1499317c-9563,-18430 -33121,-26046 -52619,-17000 -19495,9041 -27546,31312 -17983,49746 9563,18433 33121,26045 52619,17003 19495,-9041 27546,-31316 17983,-49749z"/>
   <path class="fil21" style="mask:url(#id54)" d="M406943 1501436c-8327,-16046 -28837,-22675 -45812,-14802 -16971,7873 -23983,27264 -15656,43309 8326,16046 28836,22676 45811,14803 16972,-7873 23983,-27264 15657,-43310z"/>
   <path class="fil32" style="mask:url(#id56)" d="M495796 1442745c-7348,-14170 -25456,-20020 -40440,-13069 -14985,6947 -21175,24069 -13823,38235 7351,14166 25455,20016 40443,13069 14985,-6951 21171,-24069 13820,-38235z"/>
   <path class="fil21" style="mask:url(#id58)" d="M492290 1444371c-6400,-12333 -22164,-17429 -35212,-11379 -13044,6050 -18433,20956 -12032,33289 6397,12333 22164,17429 35208,11379 13047,-6050 18433,-20956 12036,-33289z"/>
  </g>
 </g>
</svg>
