<?xml version="1.0" encoding="UTF-8"?>
<!DOCTYPE svg PUBLIC "-//W3C//DTD SVG 1.1//EN" "http://www.w3.org/Graphics/SVG/1.1/DTD/svg11.dtd">
<!-- Creator: CorelDRAW X7 -->
<svg xmlns="http://www.w3.org/2000/svg" xml:space="preserve" width="96.4027mm" height="93.6638mm" version="1.1" style="shape-rendering:geometricPrecision; text-rendering:geometricPrecision; image-rendering:optimizeQuality; fill-rule:evenodd; clip-rule:evenodd"
viewBox="0 0 13205881 12830689"
 xmlns:xlink="http://www.w3.org/1999/xlink">
 <defs>
  <style type="text/css">
   <![CDATA[
    .fil2 {fill:none}
    .fil7 {fill:#9A3D00}
    .fil22 {fill:#CF5818}
    .fil6 {fill:#FF8D2E}
    .fil10 {fill:#FFC539}
    .fil9 {fill:#FFD529}
    .fil24 {fill:#FF8D2E;fill-rule:nonzero}
    .fil4 {fill:#FFAB21;fill-rule:nonzero}
    .fil8 {fill:#FFB761;fill-rule:nonzero}
    .fil5 {fill:url(#id60)}
    .fil1 {fill:url(#id61)}
    .fil0 {fill:url(#id62)}
    .fil14 {fill:url(#id63)}
    .fil12 {fill:url(#id64)}
    .fil17 {fill:url(#id65)}
    .fil18 {fill:url(#id66)}
    .fil23 {fill:url(#id67)}
    .fil16 {fill:url(#id68)}
    .fil21 {fill:url(#id69)}
    .fil20 {fill:url(#id70)}
    .fil13 {fill:url(#id71)}
    .fil25 {fill:url(#id72)}
    .fil19 {fill:url(#id73)}
    .fil15 {fill:url(#id74)}
    .fil11 {fill:url(#id75)}
    .fil3 {fill:url(#id76)}
   ]]>
  </style>
    <mask id="id0">
  <linearGradient id="id1" gradientUnits="userSpaceOnUse" x1="6.46917e+006" y1="9.43161e+006" x2="6.65358e+006" y2="9.55457e+006">
   <stop offset="0" style="stop-opacity:1; stop-color:white"/>
   <stop offset="1" style="stop-opacity:0; stop-color:white"/>
  </linearGradient>
     <rect style="fill:url(#id1)" x="6415481" y="9355160" width="291795" height="275864"/>
    </mask>
    <mask id="id2">
  <linearGradient id="id3" gradientUnits="userSpaceOnUse" x1="6.44618e+006" y1="9.4163e+006" x2="6.67656e+006" y2="9.56989e+006">
   <stop offset="0" style="stop-opacity:1; stop-color:white"/>
   <stop offset="1" style="stop-opacity:0; stop-color:white"/>
  </linearGradient>
     <rect style="fill:url(#id3)" x="6379139" y="9320790" width="364480" height="344604"/>
    </mask>
    <mask id="id4">
  <linearGradient id="id5" gradientUnits="userSpaceOnUse" x1="6.9872e+006" y1="1.12904e+007" x2="7.08155e+006" y2="1.17525e+007">
   <stop offset="0" style="stop-opacity:1; stop-color:white"/>
   <stop offset="1" style="stop-opacity:0; stop-color:white"/>
  </linearGradient>
     <rect style="fill:url(#id5)" x="6685414" y="11191548" width="697920" height="659837"/>
    </mask>
    <mask id="id6">
  <linearGradient id="id7" gradientUnits="userSpaceOnUse" x1="6.99329e+006" y1="1.13203e+007" x2="7.07546e+006" y2="1.17226e+007">
   <stop offset="0" style="stop-opacity:1; stop-color:white"/>
   <stop offset="1" style="stop-opacity:0; stop-color:white"/>
  </linearGradient>
     <rect style="fill:url(#id7)" x="6730564" y="11234233" width="607618" height="574453"/>
    </mask>
    <mask id="id8">
  <linearGradient id="id9" gradientUnits="userSpaceOnUse" x1="5.00033e+006" y1="1.08632e+007" x2="4.76553e+006" y2="1.14349e+007">
   <stop offset="0" style="stop-opacity:1; stop-color:white"/>
   <stop offset="1" style="stop-opacity:0; stop-color:white"/>
  </linearGradient>
     <rect style="fill:url(#id9)" x="4443052" y="10733177" width="879756" height="831742"/>
    </mask>
    <mask id="id10">
  <linearGradient id="id11" gradientUnits="userSpaceOnUse" x1="4.98514e+006" y1="1.09002e+007" x2="4.78072e+006" y2="1.13979e+007">
   <stop offset="0" style="stop-opacity:1; stop-color:white"/>
   <stop offset="1" style="stop-opacity:0; stop-color:white"/>
  </linearGradient>
     <rect style="fill:url(#id11)" x="4499970" y="10786985" width="765920" height="724125"/>
    </mask>
    <mask id="id12">
  <linearGradient id="id13" gradientUnits="userSpaceOnUse" x1="1.85366e+006" y1="6.72525e+006" x2="942756" y2="7.15037e+006">
   <stop offset="0" style="stop-opacity:1; stop-color:white"/>
   <stop offset="1" style="stop-opacity:0; stop-color:white"/>
  </linearGradient>
     <rect style="fill:url(#id13)" x="685522" y="6264015" width="1425373" height="1347592"/>
    </mask>
    <mask id="id14">
  <linearGradient id="id15" gradientUnits="userSpaceOnUse" x1="1.79476e+006" y1="6.75274e+006" x2="1.00169e+006" y2="7.12288e+006">
   <stop offset="0" style="stop-opacity:1; stop-color:white"/>
   <stop offset="1" style="stop-opacity:0; stop-color:white"/>
  </linearGradient>
     <rect style="fill:url(#id15)" x="777742" y="6351194" width="1240948" height="1173222"/>
    </mask>
    <mask id="id16">
  <linearGradient id="id17" gradientUnits="userSpaceOnUse" x1="8.4644e+006" y1="1.07503e+007" x2="8.39553e+006" y2="1.14017e+007">
   <stop offset="0" style="stop-opacity:1; stop-color:white"/>
   <stop offset="1" style="stop-opacity:0; stop-color:white"/>
  </linearGradient>
     <rect style="fill:url(#id17)" x="7940458" y="10613190" width="979016" height="925591"/>
    </mask>
    <mask id="id18">
  <linearGradient id="id19" gradientUnits="userSpaceOnUse" x1="8.45998e+006" y1="1.07924e+007" x2="8.40001e+006" y2="1.13595e+007">
   <stop offset="0" style="stop-opacity:1; stop-color:white"/>
   <stop offset="1" style="stop-opacity:0; stop-color:white"/>
  </linearGradient>
     <rect style="fill:url(#id19)" x="8003828" y="10673067" width="852345" height="805824"/>
    </mask>
    <mask id="id20">
  <linearGradient id="id21" gradientUnits="userSpaceOnUse" x1="9.6503e+006" y1="1.03951e+007" x2="9.59761e+006" y2="1.08933e+007">
   <stop offset="0" style="stop-opacity:1; stop-color:white"/>
   <stop offset="1" style="stop-opacity:0; stop-color:white"/>
  </linearGradient>
     <rect style="fill:url(#id21)" x="9249584" y="10290244" width="748742" height="707865"/>
    </mask>
    <mask id="id22">
  <linearGradient id="id23" gradientUnits="userSpaceOnUse" x1="9.64691e+006" y1="1.04273e+007" x2="9.60105e+006" y2="1.0861e+007">
   <stop offset="0" style="stop-opacity:1; stop-color:white"/>
   <stop offset="1" style="stop-opacity:0; stop-color:white"/>
  </linearGradient>
     <rect style="fill:url(#id23)" x="9298050" y="10336039" width="651865" height="616275"/>
    </mask>
    <mask id="id24">
  <linearGradient id="id25" gradientUnits="userSpaceOnUse" x1="7.52969e+006" y1="9.9103e+006" x2="7.57024e+006" y2="1.04139e+007">
   <stop offset="0" style="stop-opacity:1; stop-color:white"/>
   <stop offset="1" style="stop-opacity:0; stop-color:white"/>
  </linearGradient>
     <rect style="fill:url(#id25)" x="7175661" y="9808243" width="748618" height="707755"/>
    </mask>
    <mask id="id26">
  <linearGradient id="id27" gradientUnits="userSpaceOnUse" x1="7.53235e+006" y1="9.9429e+006" x2="7.56763e+006" y2="1.03813e+007">
   <stop offset="0" style="stop-opacity:1; stop-color:white"/>
   <stop offset="1" style="stop-opacity:0; stop-color:white"/>
  </linearGradient>
     <rect style="fill:url(#id27)" x="7224113" y="9854024" width="651755" height="616180"/>
    </mask>
    <mask id="id28">
  <linearGradient id="id29" gradientUnits="userSpaceOnUse" x1="1.07326e+007" y1="1.00643e+007" x2="1.07064e+007" y2="1.03121e+007">
   <stop offset="0" style="stop-opacity:1; stop-color:white"/>
   <stop offset="1" style="stop-opacity:0; stop-color:white"/>
  </linearGradient>
     <rect style="fill:url(#id29)" x="10533313" y="10012134" width="372426" height="352083"/>
    </mask>
    <mask id="id30">
  <linearGradient id="id31" gradientUnits="userSpaceOnUse" x1="1.07309e+007" y1="1.00803e+007" x2="1.07081e+007" y2="1.02961e+007">
   <stop offset="0" style="stop-opacity:1; stop-color:white"/>
   <stop offset="1" style="stop-opacity:0; stop-color:white"/>
  </linearGradient>
     <rect style="fill:url(#id31)" x="10557423" y="10034915" width="324220" height="306535"/>
    </mask>
    <mask id="id32">
  <linearGradient id="id33" gradientUnits="userSpaceOnUse" x1="1.01375e+007" y1="9.87319e+006" x2="1.01026e+007" y2="1.02035e+007">
   <stop offset="0" style="stop-opacity:1; stop-color:white"/>
   <stop offset="1" style="stop-opacity:0; stop-color:white"/>
  </linearGradient>
     <rect style="fill:url(#id33)" x="9871846" y="9803668" width="496440" height="469344"/>
    </mask>
    <mask id="id34">
  <linearGradient id="id35" gradientUnits="userSpaceOnUse" x1="1.01353e+007" y1="9.89457e+006" x2="1.01049e+007" y2="1.01821e+007">
   <stop offset="0" style="stop-opacity:1; stop-color:white"/>
   <stop offset="1" style="stop-opacity:0; stop-color:white"/>
  </linearGradient>
     <rect style="fill:url(#id35)" x="9903983" y="9834038" width="432207" height="408604"/>
    </mask>
    <mask id="id36">
  <linearGradient id="id37" gradientUnits="userSpaceOnUse" x1="5.70695e+006" y1="637604" x2="5.63807e+006" y2="1.28898e+006">
   <stop offset="0" style="stop-opacity:1; stop-color:white"/>
   <stop offset="1" style="stop-opacity:0; stop-color:white"/>
  </linearGradient>
     <rect style="fill:url(#id37)" x="5182999" y="500481" width="979016" height="925605"/>
    </mask>
    <mask id="id38">
  <linearGradient id="id39" gradientUnits="userSpaceOnUse" x1="5.70252e+006" y1="679728" x2="5.64255e+006" y2="1.24682e+006">
   <stop offset="0" style="stop-opacity:1; stop-color:white"/>
   <stop offset="1" style="stop-opacity:0; stop-color:white"/>
  </linearGradient>
     <rect style="fill:url(#id39)" x="5246369" y="560358" width="852345" height="805838"/>
    </mask>
    <mask id="id40">
  <linearGradient id="id41" gradientUnits="userSpaceOnUse" x1="4.50539e+006" y1="1.25087e+006" x2="4.45504e+006" y2="1.72695e+006">
   <stop offset="0" style="stop-opacity:1; stop-color:white"/>
   <stop offset="1" style="stop-opacity:0; stop-color:white"/>
  </linearGradient>
     <rect style="fill:url(#id41)" x="4122435" y="1150647" width="715563" height="676508"/>
    </mask>
    <mask id="id42">
  <linearGradient id="id43" gradientUnits="userSpaceOnUse" x1="4.50216e+006" y1="1.28165e+006" x2="4.45833e+006" y2="1.69614e+006">
   <stop offset="0" style="stop-opacity:1; stop-color:white"/>
   <stop offset="1" style="stop-opacity:0; stop-color:white"/>
  </linearGradient>
     <rect style="fill:url(#id43)" x="4168750" y="1194400" width="622974" height="588988"/>
    </mask>
    <mask id="id44">
  <linearGradient id="id45" gradientUnits="userSpaceOnUse" x1="4.8464e+006" y1="2.05192e+006" x2="4.81097e+006" y2="2.38688e+006">
   <stop offset="0" style="stop-opacity:1; stop-color:white"/>
   <stop offset="1" style="stop-opacity:0; stop-color:white"/>
  </linearGradient>
     <rect style="fill:url(#id45)" x="4576956" y="1981402" width="503467" height="476001"/>
    </mask>
    <mask id="id46">
  <linearGradient id="id47" gradientUnits="userSpaceOnUse" x1="4.84414e+006" y1="2.07359e+006" x2="4.81329e+006" y2="2.36524e+006">
   <stop offset="0" style="stop-opacity:1; stop-color:white"/>
   <stop offset="1" style="stop-opacity:0; stop-color:white"/>
  </linearGradient>
     <rect style="fill:url(#id47)" x="4609545" y="2012210" width="438330" height="414398"/>
    </mask>
    <mask id="id48">
  <linearGradient id="id49" gradientUnits="userSpaceOnUse" x1="1.63741e+006" y1="5.10933e+006" x2="1.61621e+006" y2="5.30993e+006">
   <stop offset="0" style="stop-opacity:1; stop-color:white"/>
   <stop offset="1" style="stop-opacity:0; stop-color:white"/>
  </linearGradient>
     <rect style="fill:url(#id49)" x="1476045" y="5067095" width="301521" height="285069"/>
    </mask>
    <mask id="id50">
  <linearGradient id="id51" gradientUnits="userSpaceOnUse" x1="1.63605e+006" y1="5.12231e+006" x2="1.61758e+006" y2="5.29694e+006">
   <stop offset="0" style="stop-opacity:1; stop-color:white"/>
   <stop offset="1" style="stop-opacity:0; stop-color:white"/>
  </linearGradient>
     <rect style="fill:url(#id51)" x="1495552" y="5085533" width="262521" height="248179"/>
    </mask>
    <mask id="id52">
  <linearGradient id="id53" gradientUnits="userSpaceOnUse" x1="1.45267e+006" y1="5.7096e+006" x2="1.43147e+006" y2="5.91021e+006">
   <stop offset="0" style="stop-opacity:1; stop-color:white"/>
   <stop offset="1" style="stop-opacity:0; stop-color:white"/>
  </linearGradient>
     <rect style="fill:url(#id53)" x="1291305" y="5667370" width="301521" height="285069"/>
    </mask>
    <mask id="id54">
  <linearGradient id="id55" gradientUnits="userSpaceOnUse" x1="1.45132e+006" y1="5.72259e+006" x2="1.43285e+006" y2="5.89722e+006">
   <stop offset="0" style="stop-opacity:1; stop-color:white"/>
   <stop offset="1" style="stop-opacity:0; stop-color:white"/>
  </linearGradient>
     <rect style="fill:url(#id55)" x="1310825" y="5685808" width="262507" height="248179"/>
    </mask>
    <mask id="id56">
  <linearGradient id="id57" gradientUnits="userSpaceOnUse" x1="1.80463e+006" y1="5.50142e+006" x2="1.78833e+006" y2="5.65562e+006">
   <stop offset="0" style="stop-opacity:1; stop-color:white"/>
   <stop offset="1" style="stop-opacity:0; stop-color:white"/>
  </linearGradient>
     <rect style="fill:url(#id57)" x="1680593" y="5468958" width="231768" height="219110"/>
    </mask>
    <mask id="id58">
  <linearGradient id="id59" gradientUnits="userSpaceOnUse" x1="1.80358e+006" y1="5.5114e+006" x2="1.78939e+006" y2="5.64564e+006">
   <stop offset="0" style="stop-opacity:1; stop-color:white"/>
   <stop offset="1" style="stop-opacity:0; stop-color:white"/>
  </linearGradient>
     <rect style="fill:url(#id59)" x="1695593" y="5483137" width="201781" height="190754"/>
    </mask>
  <linearGradient id="id60" gradientUnits="userSpaceOnUse" x1="5.88395e+006" y1="6.33354e+006" x2="8.48849e+006" y2="5.40347e+006">
   <stop offset="0" style="stop-opacity:1; stop-color:#FFE957"/>
   <stop offset="1" style="stop-opacity:1; stop-color:#F2DE6C"/>
  </linearGradient>
  <linearGradient id="id61" gradientUnits="userSpaceOnUse" x1="6.56137e+006" y1="9.3966e+006" x2="6.56137e+006" y2="9.58958e+006">
   <stop offset="0" style="stop-opacity:1; stop-color:#44A2BA"/>
   <stop offset="1" style="stop-opacity:1; stop-color:#FEFEFE"/>
  </linearGradient>
  <linearGradient id="id62" gradientUnits="userSpaceOnUse" xlink:href="#id61" x1="6.56137e+006" y1="9.41584e+006" x2="6.56137e+006" y2="9.57034e+006">
  </linearGradient>
  <radialGradient id="id63" gradientUnits="userSpaceOnUse" gradientTransform="matrix(-1.64535 0.395836 -0.452189 -1.54709 3.27923E+007 2.188E+007)" cx="1.0645e+007" cy="1.02445e+007" r="156425" fx="1.0645e+007" fy="1.02445e+007">
   <stop offset="0" style="stop-opacity:1; stop-color:#FF6600"/>
   <stop offset="0.0509804" style="stop-opacity:1; stop-color:#FF9B20"/>
   <stop offset="1" style="stop-opacity:1; stop-color:#FFD03F"/>
  </radialGradient>
  <radialGradient id="id64" gradientUnits="userSpaceOnUse" gradientTransform="matrix(-1.64541 0.395849 -0.452222 -1.5472 2.99279E+007 2.3651E+007)" xlink:href="#id63" cx="9.4742e+006" cy="1.07574e+007" r="314467" fx="9.4742e+006" fy="1.07574e+007">
  </radialGradient>
  <radialGradient id="id65" gradientUnits="userSpaceOnUse" gradientTransform="matrix(-1.6454 0.395848 -0.45223 -1.54723 1.21957E+007 2.35148E+006)" xlink:href="#id63" cx="4.33711e+006" cy="1.59715e+006" r="300535" fx="4.33711e+006" fy="1.59715e+006">
  </radialGradient>
  <radialGradient id="id66" gradientUnits="userSpaceOnUse" gradientTransform="matrix(-1.64537 0.39584 -0.452198 -1.54712 1.35453E+007 3.97556E+006)" xlink:href="#id63" cx="4.72798e+006" cy="2.29557e+006" r="211466" fx="4.72798e+006" fy="2.29557e+006">
  </radialGradient>
  <radialGradient id="id67" gradientUnits="userSpaceOnUse" gradientTransform="matrix(7.51284E-005 1.03986 -0.874093 0.0907294 9.16473E+006 -31429)" cx="4.59849e+006" cy="5.22437e+006" r="971222" fx="4.59849e+006" fy="5.22437e+006">
   <stop offset="0" style="stop-opacity:1; stop-color:#F5E167"/>
   <stop offset="0.721569" style="stop-opacity:1; stop-color:#FACF4D"/>
   <stop offset="1" style="stop-opacity:1; stop-color:#FFBE34"/>
  </radialGradient>
  <radialGradient id="id68" gradientUnits="userSpaceOnUse" gradientTransform="matrix(-1.6454 0.395848 -0.452227 -1.54722 1.49907E+007 662999)" xlink:href="#id63" cx="5.4767e+006" cy="1.11139e+006" r="411193" fx="5.4767e+006" fy="1.11139e+006">
  </radialGradient>
  <radialGradient id="id69" gradientUnits="userSpaceOnUse" gradientTransform="matrix(-1.64534 0.395833 -0.452205 -1.54714 7.16817E+006 1.36058E+007)" xlink:href="#id63" cx="1.75013e+006" cy="5.61358e+006" r="97342.7" fx="1.75013e+006" fy="5.61358e+006">
  </radialGradient>
  <radialGradient id="id70" gradientUnits="userSpaceOnUse" gradientTransform="matrix(-1.64538 0.395842 -0.452193 -1.5471 6.30313E+006 1.43676E+007)" xlink:href="#id63" cx="1.38177e+006" cy="5.85552e+006" r="126644" fx="1.38177e+006" fy="5.85552e+006">
  </radialGradient>
  <radialGradient id="id71" gradientUnits="userSpaceOnUse" gradientTransform="matrix(-1.61705 0.710178 -0.784032 -1.51394 2.74984E+007 2.06136E+007)" xlink:href="#id63" cx="7.4227e+006" cy="1.02966e+007" r="299453" fx="7.4227e+006" fy="1.02966e+007">
  </radialGradient>
  <radialGradient id="id72" gradientUnits="userSpaceOnUse" gradientTransform="matrix(7.64671E-005 1.06924 -0.889674 6.91227E-005 7.37439E+006 2.20814E+006)" xlink:href="#id67" cx="2.77242e+006" cy="5.17289e+006" r="1.11211e+006" fx="2.77242e+006" fy="5.17289e+006">
  </radialGradient>
  <radialGradient id="id73" gradientUnits="userSpaceOnUse" gradientTransform="matrix(-1.64538 0.395842 -0.452193 -1.5471 6.5204E+006 1.27655E+007)" xlink:href="#id63" cx="1.56651e+006" cy="5.25525e+006" r="126644" fx="1.56651e+006" fy="5.25525e+006">
  </radialGradient>
  <radialGradient id="id74" gradientUnits="userSpaceOnUse" gradientTransform="matrix(-1.64535 0.395836 -0.452207 -1.54715 3.10819E+007 2.17938E+007)" xlink:href="#id63" cx="1.00208e+007" cy="1.01134e+007" r="208507" fx="1.00208e+007" fy="1.01134e+007">
  </radialGradient>
  <radialGradient id="id75" gradientUnits="userSpaceOnUse" gradientTransform="matrix(-1.6454 0.395848 -0.45222 -1.54719 2.68584E+007 2.53304E+007)" xlink:href="#id63" cx="8.23416e+006" cy="1.12241e+007" r="411193" fx="8.23416e+006" fy="1.12241e+007">
  </radialGradient>
  <radialGradient id="id76" gradientUnits="userSpaceOnUse" gradientTransform="matrix(-0.348835 1.61448 -1.6688 -0.30581 2.58213E+007 823089)" cx="7.25925e+006" cy="9.60556e+006" r="5.51725e+006" fx="7.25925e+006" fy="9.60556e+006">
   <stop offset="0" style="stop-opacity:1; stop-color:#FF8300"/>
   <stop offset="0.0509804" style="stop-opacity:1; stop-color:#FFAE1A"/>
   <stop offset="1" style="stop-opacity:1; stop-color:#FFD933"/>
  </radialGradient>
 </defs>
 <g id="Layer_x0020_1">
  <metadata id="CorelCorpID_0Corel-Layer"/>
  <g id="_1649411952">
   <path class="fil0" style="mask:url(#id0)" d="M6684852 9419653c-42904,-64466 -132959,-83849 -201151,-43288 -68192,40548 -88699,125699 -45795,190165 42904,64466 132959,83850 201151,43302 68192,-40562 88685,-125713 45795,-190179z"/>
   <path class="fil1" style="mask:url(#id2)" d="M6715619 9401365c-53589,-80534 -166096,-104753 -251275,-54082 -85178,50658 -110781,157014 -57205,237549 53589,80520 166096,104739 251274,54082 85179,-50672 110782,-157028 57206,-237549z"/>
   <path class="fil2" d="M2167005 6335015c0,0 288631,108329 917537,-172137 475823,-212192 1086249,-749974 1302797,-285055 31576,67822 86686,138877 113138,244740 155343,779563 -929222,1195838 -1528593,1130140 0,0 -566317,-30165 -797605,-128193"/>
   <g>
    <path class="fil3" d="M6546125 35123c-3595734,0 -6450207,2724582 -6510632,6084180 -48972,2723554 1410935,5075669 3678817,6074644 3303310,1455045 7879184,240919 9456284,-3312597 -723783,361755 -1972457,760715 -3361502,760715 -1389058,0 -3559666,-960236 -4454353,-2389623 631193,-10753 1540963,-412357 1392291,-1158372 -21329,-85384 -51329,-153645 -86754,-207987 -259781,-398535 -585453,-141946 -852714,10931 -397467,227467 -698865,332960 -917139,377892 -154795,-458289 -238466,-946071 -238466,-1452168 0,-2142444 1496154,-3958037 3565241,-4584957 -533316,-131986 -1093318,-202658 -1671073,-202658z"/>
    <path id="1" class="fil4" d="M70781 6119933l-70576 -1261 0 0 13864 -314850 29959 -310740 45671 -306247 61000 -301344 75959 -296069 90535 -290398 104740 -284343 118548 -277877 132000 -271083 145042 -263850 157726 -256234 170028 -248274 181945 -239905 193494 -231138 204658 -222000 215453 -212494 225849 -202576 235878 -192301 245535 -181617 254808 -170576 263686 -159124 272234 -147301 280356 -135110 288111 -122508 295507 -109548 302508 -96164 309138 -82425 315357 -68315 321247 -53781 326713 -38905 331836 -23616 336535 -7959 0 70247 -333192 7876 -328467 23398 -323370 38493 -317933 53233 -312096 67603 -305905 81575 -299302 95151 -292384 108371 -285042 121219 -277371 133658 -269302 145713 -260863 157425 -252042 168740 -242877 179644 -233302 190192 -223357 200357 -213069 210137 -202384 219535 -191329 228562 -179891 237193 -168110 245452 -155918 253330 -143398 260809 -130466 267932 -117178 274672 -103508 281000 -89466 287001 -75082 292590 -60288 297809 -45123 302658 -29603 307124 -13726 311234 0 0zm3657817 6041891l-28575 64247 0 0 -211480 -98179 -206604 -105972 -201575 -113590 -196425 -121000 -191152 -128274 -185726 -135343 -180192 -142220 -174508 -148931 -168712 -155453 -162782 -161781 -156740 -167946 -150521 -173945 -144233 -179727 -137767 -185343 -131206 -190781 -124494 -196028 -117671 -201096 -110713 -205987 -103603 -210686 -96411 -215233 -89055 -219576 -81589 -223726 -73987 -227713 -66260 -231535 -58397 -235151 -50425 -238563 -42288 -241863 -34055 -244919 -25685 -247808 -17192 -250549 -8561 -253055 191 -255426 70576 1261 -192 253014 8480 250644 17027 248111 25439 245397 33726 242508 41876 239425 49905 236179 57794 232740 65576 229151 73219 225357 80740 221398 88124 217247 95370 212932 102507 208439 109507 203740 116384 198905 123123 193863 129727 188644 136233 183261 142589 177699 148823 171946 154931 166028 160891 159918 166740 153644 172480 147178 178056 140549 183534 133726 188877 126740 194069 119576 199165 112219 204138 104713 208959 97000 0 0zm9457831 -3249076l-31671 -62795 48123 45589 -157397 328138 -174302 314316 -190398 300411 -205699 286440 -220220 272397 -233945 258289 -246878 244110 -259014 229877 -270357 215603 -280918 201234 -290672 186836 -299672 172384 -307850 157836 -315261 143274 -321905 128644 -327727 113946 -332795 99192 -337070 84397 -340562 69535 -343275 54603 -345220 39630 -346371 24575 -346740 9480 -346330 -5685 -345151 -20904 -343193 -36192 -340425 -51548 -336905 -66973 -332590 -82439 -327481 -98000 -321589 -113603 -314946 -129274 28575 -64247 311631 127932 318302 112425 324220 97014 329330 81644 333672 66315 337247 51082 340015 35863 342000 20713 343234 5630 343645 -9397 343302 -24357 342152 -39274 340233 -54137 337522 -68904 334028 -83630 329754 -98288 324713 -112905 318864 -127438 312247 -141905 304864 -156302 296686 -170657 287713 -184919 277987 -199151 267480 -213302 256220 -227384 244137 -241425 231316 -255384 217726 -269302 203343 -283152 188206 -296959 172302 -310700 155617 -324411 48123 45589zm-48123 -45589c7863,-17740 28726,-25781 46548,-17946 17822,7836 25890,28589 18027,46329l-64575 -28383zm-3329214 810029l0 -70247 0 0 129165 -1151 128302 -3411 127329 -5561 126329 -7644 125233 -9671 124069 -11589 122822 -13452 121535 -15206 120151 -16904 118712 -18521 117192 -20055 115617 -21506 113945 -22877 112206 -24165 110425 -25411 108548 -26507 106603 -27589 104590 -28534 102507 -29452 100356 -30260 98110 -31001 95822 -31643 93466 -32233 91014 -32727 88507 -33137 85918 -33479 83261 -33726 80520 -33891 77740 -33986 74850 -33986 71918 -33932 68904 -33781 31671 62795 -69863 34246 -72849 34370 -75781 34425 -78644 34370 -81425 34274 -84137 34082 -86795 33809 -89384 33465 -91891 33028 -94315 32534 -96699 31946 -99014 31274 -101233 30534 -103411 29699 -105493 28808 -107535 27808 -109480 26754 -111356 25602 -113192 24384 -114932 23069 -116603 21698 -118206 20220 -119753 18685 -121220 17068 -122603 15343 -123945 13561 -125193 11699 -126383 9753 -127508 7726 -128534 5617 -129535 3438 -130425 1151 0 0zm-4454956 -2459869l1206 70247 29356 -53699 86630 131219 93713 128494 100439 125658 106781 122767 112767 119740 118370 116617 123589 113397 128453 110097 132932 106685 137027 103192 140754 99589 144096 95891 147069 92096 149658 88233 151864 84233 153671 80178 155138 76014 156219 71767 156891 67398 157192 62973 157137 58452 156672 53836 155836 49096 154631 44315 153014 39425 151027 34438 148658 29384 145905 24219 142753 18986 139220 13658 135302 8260 130986 2767 0 70247 -133918 -2822 -138014 -8425 -141740 -13904 -145082 -19288 -148097 -24575 -150740 -29795 -153000 -34904 -154905 -39890 -156438 -44836 -157590 -49671 -158370 -54411 -158781 -59055 -158836 -63631 -158508 -68109 -157808 -72480 -156727 -76808 -155288 -81001 -153452 -85137 -151274 -89164 -148686 -93138 -145767 -96986 -142425 -100768 -138726 -104479 -134686 -108083 -130206 -111603 -125397 -115069 -120206 -118424 -114603 -121713 -108671 -124904 -102302 -128014 -95603 -131069 -88466 -134014 29356 -53699zm-29356 53699c-10301,-16466 -5233,-38151 11301,-48398 16535,-10246 38316,-5219 48617,11247l-59918 37151zm1387990 -1168469l68520 -16959 370 1644 11315 71726 5124 69850 -809 67890 -6561 65863 -12041 63754 -17274 61603 -22220 59384 -26876 57109 -31247 54795 -35329 52493 -39151 50178 -42671 47836 -45932 45521 -48931 43219 -51672 40918 -54178 38630 -56411 36370 -58411 34082 -60151 31822 -61671 29562 -62959 27302 -63973 25041 -64767 22781 -65315 20520 -65644 18261 -65727 16000 -65561 13698 -65192 11425 -64535 9137 -63685 6836 -62603 4534 -61260 2192 -1206 -70247 58631 -2110 60082 -4342 61274 -6562 62206 -8808 62890 -11041 63315 -13233 63480 -15452 63397 -17630 63069 -19809 62466 -21959 61644 -24137 60548 -26260 59206 -28384 57630 -30479 55781 -32548 53699 -34617 51383 -36630 48795 -38644 46000 -40644 42973 -42562 39685 -44493 36219 -46397 32507 -48274 28589 -50165 24493 -52014 20165 -53904 15657 -55822 10918 -57781 5959 -59781 754 -61836 -4713 -63959 -10438 -66137 370 1644zm-370 -1644c-3781,-19014 8644,-37520 27767,-41288 19123,-3767 37712,8603 41493,27617l-69260 13671zm-81740 -195699l59233 -38247 0 0 3521 5494 3479 5548 3466 5643 3424 5754 3357 5808 3328 5877 3288 5972 3260 6069 3233 6192 3151 6246 3109 6302 3096 6424 3041 6507 2987 6576 2945 6685 2890 6753 2863 6849 2822 6959 2754 7055 2712 7110 2671 7233 2617 7328 2561 7370 2521 7493 2466 7589 2424 7685 2370 7795 2302 7863 2274 7973 2205 8082 2151 8151 2109 8246 -68520 16959 -1945 -7671 -1987 -7548 -2041 -7425 -2082 -7342 -2137 -7261 -2178 -7137 -2206 -7027 -2274 -6959 -2301 -6863 -2342 -6767 -2370 -6644 -2425 -6548 -2466 -6479 -2507 -6370 -2520 -6247 -2589 -6192 -2617 -6123 -2644 -5973 -2684 -5917 -2713 -5822 -2740 -5713 -2808 -5671 -2822 -5562 -2822 -5424 -2876 -5356 -2932 -5315 -2945 -5220 -2973 -5123 -2986 -5014 -3027 -4959 -3069 -4890 -3082 -4781 0 0zm-805495 22260l-35206 -60904 14 0 24918 -14452 25356 -14959 25754 -15370 26150 -15630 26507 -15712 26822 -15713 27165 -15548 27438 -15233 27740 -14780 27973 -14192 28260 -13466 28493 -12562 28754 -11548 28959 -10356 29205 -9014 29439 -7520 29643 -5836 29836 -3986 29987 -1945 30137 274 30178 2671 30137 5247 30041 7972 29795 10849 29452 13822 29041 16905 28534 20041 28000 23287 27425 26590 26849 29986 26247 33479 25685 37096 -59233 38247 -23411 -33836 -23562 -30054 -23644 -26425 -23698 -22973 -23726 -19726 -23740 -16671 -23726 -13808 -23754 -11137 -23822 -8685 -23959 -6357 -24164 -4205 -24397 -2151 -24685 -219 -24973 1644 -25288 3383 -25562 5042 -25822 6589 -26054 8054 -26220 9370 -26370 10589 -26465 11685 -26535 12644 -26575 13480 -26562 14150 -26507 14713 -26452 15137 -26356 15438 -26233 15576 -26069 15575 -25917 15452 -25740 15206 -25521 14780 14 0zm-14 0c-16890,9658 -38479,3863 -48192,-12945 -9712,-16808 -3876,-38301 13014,-47959l35178 60904zm-968180 358631l66904 -22383 -40603 -23206 20302 -4315 20780 -4657 21288 -5041 21808 -5425 22261 -5808 22794 -6247 23315 -6644 23809 -7082 24315 -7521 24836 -7972 25342 -8439 25891 -8931 26383 -9397 26918 -9904 27438 -10398 27959 -10945 28507 -11479 29042 -12001 29561 -12575 30110 -13137 30644 -13712 31178 -14315 31753 -14905 32275 -15520 32822 -16137 33369 -16781 33932 -17425 34493 -18096 35055 -18753 35617 -19425 36150 -20123 36740 -20836 35206 60904 -37233 21110 -36671 20397 -36110 19726 -35576 19028 -35013 18370 -34480 17699 -33918 17054 -33397 16411 -32850 15795 -32301 15178 -31781 14589 -31247 13986 -30712 13384 -30192 12849 -29671 12274 -29137 11726 -28644 11192 -28096 10671 -27603 10151 -27068 9644 -26576 9151 -26055 8685 -25575 8219 -25055 7740 -24548 7301 -24055 6863 -23561 6438 -23083 6028 -22575 5616 -22082 5233 -21603 4850 -21123 4479 -40603 -23206zm40603 23206c-19083,3918 -37768,-8301 -41713,-27288 -3945,-18986 8329,-37589 27411,-41507l14302 68795zm-280919 -1486565l70603 0 0 0 247 47041 712 46904 1219 46822 1699 46685 2150 46603 2644 46452 3110 46357 3589 46219 4055 46110 4507 45959 4986 45849 5452 45726 5904 45589 6356 45466 6808 45329 7261 45178 7726 45041 8164 44905 8603 44753 9055 44630 9507 44453 9917 44328 10370 44179 10809 44013 11233 43864 11657 43698 12096 43535 12521 43397 12945 43233 13342 43041 13781 42891 14192 42726 -66904 22383 -14411 -43383 -14000 -43548 -13562 -43726 -13137 -43891 -12712 -44055 -12288 -44219 -11849 -44384 -11398 -44548 -10972 -44699 -10535 -44863 -10082 -45013 -9644 -45165 -9191 -45315 -8740 -45466 -8302 -45589 -7835 -45754 -7370 -45890 -6918 -46041 -6466 -46151 -5986 -46302 -5534 -46438 -5069 -46562 -4589 -46699 -4109 -46822 -3644 -46931 -3165 -47069 -2671 -47192 -2205 -47288 -1726 -47424 -1220 -47535 -739 -47644 -247 -47753 0 0zm3592022 -4550861l17042 -68192 1767 67699 -191014 61822 -187494 68576 -183822 75192 -179973 81616 -175960 87932 -171781 94041 -167425 100014 -162932 105864 -158247 111479 -153384 117014 -148370 122343 -143179 127535 -137822 132562 -132301 137438 -126617 142138 -120754 146712 -114740 151097 -108521 155356 -102178 159425 -95658 163357 -88959 167123 -82096 170741 -75069 174205 -67877 177494 -60534 180658 -52986 183617 -45302 186480 -37438 189151 -29411 191685 -21220 194056 -12849 196288 -4315 198343 -70603 0 4397 -201384 13041 -199330 21548 -197069 29877 -194671 38014 -192110 46014 -189384 53808 -186494 61466 -183452 68918 -180234 76219 -176863 83357 -173343 90301 -169644 97083 -165795 103685 -161809 110137 -157630 116411 -153316 122508 -148822 128425 -144192 134192 -139384 139767 -134452 145206 -129316 150425 -124041 155521 -118631 160411 -113041 165151 -107288 169727 -101384 174110 -95329 178343 -89110 182384 -82712 186288 -76206 189987 -69479 193534 -62644 1767 67698zm-1767 -67698c18644,-5644 38384,4822 44055,23369 5672,18548 -4835,38192 -23479,43836l-20576 -67205zm-1660785 -133932l0 -70247 0 0 54384 205 54274 617 54165 1027 54068 1452 53959 1863 53836 2261 53713 2657 53616 3082 53494 3480 53356 3877 53260 4274 53137 4671 53000 5068 52864 5452 52767 5863 52630 6247 52480 6630 52370 7014 52219 7411 52096 7794 51945 8165 51809 8548 51685 8931 51534 9315 51384 9672 51247 10054 51082 10425 50945 10795 50808 11164 50644 11521 50480 11904 50343 12246 -17042 68192 -49822 -12137 -49959 -11767 -50123 -11411 -50288 -11055 -50425 -10685 -50561 -10315 -50726 -9945 -50864 -9589 -51013 -9205 -51138 -8850 -51287 -8466 -51425 -8082 -51548 -7712 -51699 -7329 -51822 -6931 -51959 -6576 -52082 -6192 -52220 -5780 -52342 -5398 -52480 -5041 -52589 -4616 -52712 -4219 -52836 -3850 -52946 -3424 -53068 -3055 -53192 -2630 -53288 -2261 -53411 -1835 -53521 -1425 -53616 -1027 -53754 -617 -53836 -205 0 0z"/>
   </g>
   <path class="fil5" d="M13095347 9021392c25507,-40548 50685,-81274 75219,-122453 -723769,361755 -1972429,743126 -3361474,743126 -1389044,0 -3559666,-960249 -4454367,-2389609 631207,-10767 1540977,-412371 1392305,-1158373 -21342,-85397 -51329,-153644 -86754,-208000 -259781,-398535 -585453,-141946 -852714,10931 -397467,227467 -698851,332974 -917125,377892 -154809,-458289 -238467,-946071 -238467,-1452168 0,-2142444 1496141,-3958037 3565228,-4584957 -32027,-7917 -64137,-15602 -96356,-23096 -285371,-39082 -577015,-59657 -873824,-59657 -3338680,0 -6045179,2558773 -6045179,5715233 0,98192 2821,195699 8109,292644 213371,-46328 445563,-14370 644043,106617 390357,237946 502713,730125 251137,1099195 -135479,198644 -348822,321083 -577850,354781 498768,1376428 1537661,2515678 2877514,3191885 74753,-136453 213685,-239453 386137,-267727 292905,-48014 571509,137562 622372,414412 15877,86521 7603,171740 -20178,249453 390768,118959 798933,201370 1219920,242918 -10082,-116041 33247,-235220 129179,-321919 168781,-152548 436426,-146808 597782,12713 94261,93233 131357,218398 112274,336740 1941224,-61274 4583340,-1163674 5643069,-2560581z"/>
   <path class="fil6" d="M2477828 7579881c-99439,1396113 2351677,2759487 3917941,1063948 -1119249,1653689 -3754721,973564 -4201065,-1009167 0,0 270644,-47534 283124,-54781z"/>
   <path class="fil6" d="M2779664 7349826c1713,65137 3384,130288 5082,195439 -441535,-8617 -736974,260576 -1003016,585673 194371,-478522 503454,-776085 997934,-781112z"/>
   <path class="fil6" d="M4315695 10088545c16192,-63343 32411,-126685 48617,-190028 424111,116357 783180,-71370 1129167,-320288 -318754,414658 -698769,626440 -1177784,510316z"/>
   <path class="fil7" d="M3499817 2720034c-12891,64014 47041,325960 34137,389974 -429659,-96562 -778550,107575 -1111208,372247 104342,-445248 592604,-856016 1077071,-762221z"/>
   <path class="fil7" d="M4147490 2803610c9397,46602 -34233,237274 -24836,283863 312754,-70288 566714,78316 808865,270960 -75959,-324097 -431371,-623098 -784029,-554823z"/>
   <g>
    <path class="fil8" d="M4400819 6367646c-5151,-1932 -22082,-16836 -37795,-33261 -15712,-16424 -24287,-28178 -19137,-26246l56932 59507zm889838 -237480l59342 59781 0 0 -59904 26013 -57849 23754 -55809 21575 -53767 19521 -51767 17534 -49740 15644 -47754 13863 -45753 12164 -43767 10562 -41809 9055 -39849 7657 -37891 6316 -35959 5095 -34013 3973 -32096 2918 -30192 1986 -28274 1151 -26398 383 -24507 -274 -22643 -863 -20768 -1315 -18931 -1698 -17096 -1987 -15247 -2191 -13424 -2274 -11617 -2274 -9835 -2206 -8028 -2014 -6260 -1726 -4493 -1369 -2713 -918 -1027 -356 -56932 -59507 726 274 2548 835 4302 1315 6096 1699 7890 1959 9699 2178 11506 2274 13316 2246 15164 2165 16986 1986 18850 1699 20712 1315 22562 835 24452 274 26342 -383 28220 -1123 30137 -1987 32041 -2918 33986 -3972 35905 -5096 37863 -6315 39794 -7630 41781 -9055 43740 -10562 45726 -12137 47726 -13863 49713 -15644 51740 -17534 53767 -19493 55781 -21576 57822 -23753 59877 -25986 0 0zm1405195 -236672l-59069 -55891 0 0 -21438 -40726 -21274 -31685 -5699 -7342 -2082 -1041 -25534 -16727 -31233 -14794 -33822 -10726 -35767 -6521 -37466 -2520 -39014 1274 -40425 4835 -41726 8137 -42932 11192 -44027 14000 -45000 16548 -45904 18863 -46699 20891 -47370 22698 -47959 24247 -48466 25548 -48836 26589 -49123 27384 -49302 27931 -49397 28220 -49384 28260 -49274 28041 -49055 27589 -48753 26863 -48316 25904 -47822 24699 -47191 23219 -46494 21494 -59342 -59781 46466 -21494 47191 -23219 47795 -24671 48315 -25904 48726 -26863 49055 -27590 49274 -28041 49384 -28260 49397 -28219 49302 -27932 49151 -27383 48836 -26590 48465 -25548 47987 -24274 47397 -22698 46726 -20918 45932 -18863 45055 -16576 44082 -14000 42987 -11219 41835 -8164 40562 -4836 39206 -1301 37794 2548 36315 6630 34891 11082 33918 16110 35835 23822 55316 49616 47561 53973 27576 40754 22863 43356 0 0zm117274 253932l-59836 -58055 28 123 -2630 -10096 -2781 -9876 -2959 -9672 -3069 -9479 -3219 -9288 -3329 -9082 -3452 -8918 -3548 -8740 -3630 -8589 -3712 -8411 -3795 -8260 -3849 -8110 -3890 -7972 -3946 -7836 -3986 -7726 -4014 -7589 -4027 -7493 -4041 -7397 -4041 -7315 -4041 -7220 -4028 -7164 -4000 -7082 -3972 -7041 -3932 -6973 -3877 -6932 -3821 -6904 -3740 -6863 -3658 -6822 -3575 -6808 -3452 -6781 -3329 -6739 -3192 -6713 59069 55891 3055 6438 3191 6466 3316 6507 3438 6534 3548 6630 3630 6671 3740 6740 3822 6822 3876 6918 3973 7014 4027 7137 4055 7219 4096 7329 4123 7452 4124 7561 4137 7685 4123 7809 4096 7945 4055 8055 4027 8191 3959 8357 3877 8479 3822 8630 3712 8781 3630 8932 3507 9109 3411 9274 3274 9452 3123 9644 2987 9808 2835 10014 2658 10206 27 123zm-27 -123c1068,4328 -11425,-5096 -27932,-21055 -16507,-15959 -30781,-32425 -31849,-36754l59781 57809zm-1579895 1168660l-58575 -59891 82 0 59384 4905 62027 2000 64316 -836 66274 -3712 67918 -6535 69233 -9342 70219 -12110 70863 -14890 71206 -17630 71192 -20329 70877 -23028 70206 -25685 69246 -28356 67932 -30973 66301 -33561 64357 -36165 62055 -38712 59452 -41233 56521 -43767 53246 -46247 49658 -48699 45740 -51164 41507 -53576 36931 -55973 32042 -58342 26808 -60699 21274 -63014 15397 -65329 9206 -67589 2671 -69836 -4165 -72041 -11315 -74233 59836 58055 11370 74589 4192 72315 -2699 70055 -9233 67754 -15424 65438 -21302 63124 -26836 60781 -32095 58425 -36959 56027 -41535 53630 -45794 51192 -49686 48754 -53301 46274 -56548 43795 -59480 41260 -62109 38740 -64384 36164 -66329 33589 -67987 31000 -69274 28357 -70260 25712 -70904 23028 -71247 20356 -71233 17630 -70918 14890 -70274 12137 -69288 9343 -68000 6534 -66357 3712 -64424 864 -62138 -2028 -59548 -4904 82 0zm-82 0c-3671,-397 -19739,-14137 -35863,-30671 -16123,-16535 -26219,-29617 -22548,-29220l58411 59891zm-825029 -132754l-56439 -59288 23137 9179 25069 8835 26822 8452 28356 8069 29740 7712 30918 7329 31931 6959 32768 6616 33452 6261 33945 5904 34260 5575 34425 5247 34411 4917 34233 4576 33863 4287 33329 3987 32630 3685 31768 3397 30739 3123 29507 2836 28137 2575 26589 2315 24864 2055 22958 1808 20905 1576 18671 1328 16260 1124 13699 890 10945 685 8014 480 4945 274 1685 95 58575 59891 -1684 -96 -4946 -274 -8041 -479 -10945 -685 -13699 -891 -16287 -1123 -18672 -1329 -20904 -1575 -22986 -1808 -24863 -2055 -26617 -2315 -28137 -2576 -29534 -2835 -30740 -3123 -31795 -3398 -32657 -3685 -33356 -3986 -33891 -4288 -34260 -4602 -34439 -4918 -34452 -5247 -34315 -5575 -34000 -5932 -33507 -6260 -32849 -6616 -32014 -6987 -31028 -7356 -29849 -7740 -28548 -8123 -27041 -8534 -25425 -8945 -23630 -9398zm0 0c-5548,-2342 -22699,-17534 -38274,-33904 -15576,-16370 -23713,-27726 -18165,-25384l56439 59288z"/>
   </g>
   <path class="fil9" style="mask:url(#id4)" d="M7286620 11293493c-133164,-131699 -354069,-136411 -493371,-10520 -139315,125904 -144288,334740 -11123,466453 133165,131712 354056,136411 493371,10520 139302,-125904 144288,-334740 11123,-466453z"/>
   <path class="fil10" style="mask:url(#id6)" d="M7253977 11323000c-115932,-114671 -308248,-118767 -429536,-9164 -121274,109603 -125617,291425 -9685,406097 115932,114657 308261,118753 429536,9150 121288,-109603 125616,-291425 9685,-406083z"/>
   <path class="fil9" style="mask:url(#id8)" d="M5316259 11077986c-41506,-226247 -269178,-377864 -508494,-338617 -239302,39233 -399672,254480 -358165,480727 41507,226261 269179,377877 508481,338631 239315,-39247 399685,-254480 358178,-480741z"/>
   <path class="fil10" style="mask:url(#id10)" d="M5260191 11087191c-36137,-196986 -234343,-328973 -442700,-294809 -208343,34165 -347960,221549 -311823,418522 36138,196973 234344,328973 442686,294809 208357,-34165 347974,-221549 311837,-418522z"/>
   <path class="fil9" style="mask:url(#id12)" d="M1997114 7302894c213261,-312699 118014,-729673 -212740,-931303 -330754,-201617 -771796,-111576 -985057,201124 -213274,312713 -118014,729686 212740,931303 330754,201631 771797,111576 985057,-201124z"/>
   <path class="fil10" style="mask:url(#id14)" d="M1919621 7255648c185672,-272234 102740,-635248 -185206,-810797 -287959,-175534 -671933,-97123 -857605,175110 -185671,272234 -102740,635262 185206,810797 287960,175534 671933,97137 857605,-175110z"/>
   <path class="fil11" style="mask:url(#id16)" d="M8869350 10872218c-119041,-229425 -412275,-324165 -654919,-211630 -242658,112534 -342878,389768 -223850,619179 119041,229412 412261,324165 654919,211617 242659,-112534 342878,-389754 223850,-619166z"/>
   <path class="fil10" style="mask:url(#id18)" d="M8812528 10898574c-103630,-199726 -358918,-282219 -570179,-184247 -211261,97973 -298508,339330 -194877,539057 103630,199726 358918,282219 570179,184247 211261,-97973 298508,-339330 194877,-539057z"/>
   <path class="fil12" style="mask:url(#id20)" d="M9959983 10488341c-91041,-175453 -315288,-247919 -500864,-161850 -185576,86069 -262220,298083 -171192,473535 91041,175439 315288,247905 500864,161836 185576,-86068 262220,-298083 171192,-473521z"/>
   <path class="fil10" style="mask:url(#id22)" d="M9916531 10508491c-79261,-152740 -274494,-215822 -436056,-140904 -161562,74932 -228288,259521 -149041,412261 79260,152754 274493,215836 436055,140905 161563,-74932 228289,-259508 149042,-412262z"/>
   <path class="fil13" style="mask:url(#id24)" d="M7849786 9950312c-123740,-156548 -358288,-188617 -523864,-71644 -165576,116986 -199494,338740 -75767,495275 123726,156535 358288,188617 523864,71630 165576,-116973 199494,-338727 75767,-495261z"/>
   <path class="fil10" style="mask:url(#id26)" d="M7811019 9977709c-107726,-136288 -311932,-164206 -456083,-62370 -144151,101850 -173686,294905 -65959,431179 107712,136288 311918,164220 456069,62370 144151,-101836 173686,-294891 65973,-431179z"/>
   <path class="fil14" style="mask:url(#id28)" d="M10886657 10110668c-45274,-87274 -156823,-123315 -249124,-80507 -92302,42809 -130425,148261 -85151,235535 45288,87261 156822,123302 249137,80494 92302,-42809 130425,-148261 85138,-235522z"/>
   <path class="fil10" style="mask:url(#id30)" d="M10865040 10120696c-39411,-75973 -136521,-107357 -216891,-70083 -80356,37261 -113548,129069 -74123,205042 39424,75987 136534,107356 216891,70096 80356,-37274 113548,-129082 74123,-205055z"/>
   <path class="fil15" style="mask:url(#id32)" d="M10342861 9935010c-60357,-116329 -209042,-164370 -332083,-107301 -123042,57068 -173864,197630 -113507,313959 60356,116330 209041,164371 332096,107316 123042,-57069 173850,-197645 113494,-313974z"/>
   <path class="fil10" style="mask:url(#id34)" d="M10314052 9948380c-52548,-101274 -182000,-143096 -289124,-93425 -107109,49686 -151356,172069 -98808,273344 52548,101274 182000,143096 289110,93424 107124,-49685 151371,-172068 98822,-273343z"/>
   <path class="fil16" style="mask:url(#id36)" d="M6111892 759509c-119042,-229412 -412275,-324165 -654920,-211631 -242658,112535 -342877,389768 -223850,619180 119042,229411 412275,324165 654920,211630 242658,-112548 342877,-389768 223850,-619179z"/>
   <path class="fil10" style="mask:url(#id38)" d="M6055070 785865c-103631,-199727 -358919,-282220 -570180,-184247 -211261,97986 -298508,339329 -194877,539070 103630,199726 358919,282220 570179,184233 211261,-97973 298508,-339330 194878,-539056z"/>
   <path class="fil17" style="mask:url(#id40)" d="M4801354 1339962c-87000,-167671 -301316,-236932 -478672,-154671 -177357,82246 -250604,284877 -163603,452549 87000,167671 301315,236932 478672,154671 177357,-82247 250603,-284877 163603,-452549z"/>
   <path class="fil10" style="mask:url(#id42)" d="M4759820 1359236c-75740,-145986 -262330,-206274 -416727,-134671 -154412,71616 -218179,248014 -142439,394001 75740,145973 262329,206260 416741,134657 154397,-71616 218165,-248014 142425,-393987z"/>
   <path class="fil18" style="mask:url(#id44)" d="M5054642 2114622c-61219,-117987 -212014,-166713 -336795,-108836 -124781,57877 -176329,200439 -115110,318411 61220,117973 212014,166699 336796,108836 124781,-57877 176329,-200439 115109,-318411z"/>
   <path class="fil10" style="mask:url(#id46)" d="M5025423 2128170c-53288,-102713 -184576,-145124 -293220,-94740 -108630,50383 -153507,174493 -100205,277206 53287,102712 184575,145137 293206,94753 108644,-50397 153507,-174507 100219,-277219z"/>
   <path class="fil19" style="mask:url(#id48)" d="M1762128 5146862c-36672,-70644 -126973,-99836 -201700,-65165 -74739,34658 -105603,120028 -68945,190686 36658,70657 126973,99836 201699,65178 74740,-34658 105603,-120041 68946,-190699z"/>
   <path class="fil10" style="mask:url(#id50)" d="M1744621 5154985c-31918,-61507 -110535,-86918 -175603,-56740 -65055,30165 -91932,104507 -60014,166014 31918,61507 110534,86918 175603,56740 65055,-30178 91932,-104507 60014,-166014z"/>
   <path class="fil20" style="mask:url(#id52)" d="M1577387 5747137c-36657,-70644 -126973,-99836 -201699,-65164 -74726,34657 -105603,120027 -68945,190685 36671,70658 126973,99836 201699,65178 74740,-34657 105603,-120041 68945,-190699z"/>
   <path class="fil10" style="mask:url(#id54)" d="M1559881 5755261c-31905,-61507 -110535,-86918 -175590,-56740 -65069,30178 -91932,104507 -60028,166014 31918,61507 110549,86918 175604,56740 65068,-30178 91931,-104507 60014,-166014z"/>
   <path class="fil21" style="mask:url(#id56)" d="M1900484 5530287c-28178,-54315 -97589,-76740 -155028,-50096 -57438,26631 -81164,92261 -52986,146562 28178,54302 97589,76727 155028,50096 57438,-26643 81164,-92260 52986,-146562z"/>
   <path class="fil10" style="mask:url(#id58)" d="M1887032 5536520c-24534,-47274 -84959,-66808 -134959,-43616 -50014,23192 -70672,80329 -46137,127603 24534,47274 84959,66808 134973,43616 50000,-23191 70657,-80329 46123,-127603z"/>
   <g>
    <path class="fil22" d="M5367082 6091207c27287,-36891 54602,-73781 81918,-110686 201301,296672 534850,243001 881577,135713 -329768,176069 -652399,199165 -963495,-25027z"/>
    <path class="fil22" d="M5108177 6221234c37685,-27808 75384,-55630 113096,-83452 118219,324617 467248,354617 844509,337823 -379617,84931 -709125,29068 -957605,-254371z"/>
    <path class="fil22" d="M5566534 5986836c3644,-29726 7301,-59479 10945,-89219 234165,110959 423440,-21808 601426,-189713 -142301,202686 -335891,314371 -612371,278932z"/>
    <path class="fil22" d="M4805149 6269440c38863,-15165 77726,-30329 116603,-45493 10589,294932 292726,393644 610987,459412 -338630,-9603 -597535,-125699 -727590,-413919z"/>
    <path class="fil22" d="M2568431 6258892c-35658,-30808 -71329,-61617 -107014,-92425 -124096,328110 -462878,339439 -827619,300932 365001,108905 685646,69822 934633,-208507z"/>
    <path class="fil22" d="M2852993 6336372c-43589,-19959 -87205,-39918 -130822,-59877 -36137,339548 -369590,435521 -742057,491206 391412,10398 699482,-107109 872879,-431329z"/>
    <path class="fil22" d="M2348197 6195084c-10821,-28343 -21657,-56686 -32479,-85028 -201535,153083 -418768,59617 -633563,-70315 188452,170712 404740,242767 666042,155343z"/>
    <path class="fil22" d="M3160624 6325550c-41630,-7384 -83301,-14768 -124959,-22151 61699,289987 -189658,440275 -484344,565303 328289,-74083 552728,-236891 609303,-543152z"/>
    <g>
     <path class="fil23" d="M5571959 4741587c191165,430563 150534,1069592 -92000,1366948 -181727,222768 -1204250,339398 -1349922,110288 -291137,-457645 -243247,-1065180 -10972,-1487469 407097,-740153 1186386,-589988 1452894,10233z"/>
     <path id="1" class="fil24" d="M5507109 6130796l-54301 -44521 0 0 20904 -27233 19877 -29192 18849 -31055 17767 -32794 16671 -34466 15576 -36028 14438 -37479 13288 -38822 12137 -40082 10959 -41220 9753 -42233 8562 -43178 7343 -44000 6137 -44712 4890 -45316 3685 -45835 2411 -46233 1164 -46535 -82 -46726 -1342 -46808 -2617 -46795 -3877 -46685 -5150 -46438 -6439 -46110 -7726 -45671 -9000 -45151 -10301 -44493 -11562 -43740 -12877 -42904 -14137 -41932 -15438 -40877 -16726 -39712 64028 -28466 17767 42206 16342 43287 14932 44261 13534 45150 12164 45932 10768 46603 9438 47206 8055 47698 6712 48110 5370 48384 4041 48603 2726 48685 1397 48726 83 48616 -1220 48425 -2520 48151 -3822 47781 -5110 47288 -6411 46739 -7698 46055 -8973 45288 -10274 44452 -11562 43466 -12822 42439 -14137 41287 -15424 40028 -16726 38685 -18041 37260 -19357 35726 -20685 34069 -22013 32342 -23398 30494 0 0zm0 0c-12233,15000 -34315,17192 -49301,4904 -14987,-12288 -17233,-34425 -5000,-49425l54301 44521zm-1406606 106863l59069 -37671 13 0 11932 15068 16712 14671 21658 14042 26397 13013 30809 11740 34822 10301 38424 8795 41631 7219 44493 5671 46973 4083 49096 2575 50876 1055 52343 -397 53438 -1836 54233 -3233 54658 -4575 54795 -5891 54589 -7150 54069 -8370 53205 -9521 52014 -10657 50493 -11713 48644 -12753 46466 -13685 43932 -14576 41055 -15411 37808 -16137 34233 -16767 30233 -17233 25877 -17507 21150 -17479 16165 -17055 54301 44521 -22740 24068 -26958 22329 -30836 20877 -34452 19644 -37795 18520 -40904 17452 -43740 16425 -46343 15370 -48602 14343 -50617 13246 -52329 12151 -53767 11014 -54850 9822 -55685 8616 -56205 7370 -56411 6055 -56329 4712 -55932 3342 -55247 1891 -54260 425 -52986 -1110 -51398 -2685 -49548 -4329 -47425 -6027 -45027 -7822 -42370 -9699 -39452 -11698 -36370 -13877 -33000 -16302 -29357 -19082 -25260 -22288 -20425 -25890 14 0zm-14 0c-10397,-16370 -5616,-38082 10699,-48480 16315,-10397 38000,-5561 48397,10809l-59096 37671zm-12123 -1523305l61398 34000 0 0 -20713 39123 -19630 40165 -18548 41096 -17397 42027 -16247 42850 -15068 43644 -13836 44342 -12603 45014 -11315 45576 -10014 46137 -8685 46561 -7315 46973 -5918 47315 -4506 47589 -3069 47809 -1589 47945 -96 48028 1425 48068 3000 48014 4561 47918 6179 47767 7780 47535 9480 47274 11123 46918 12850 46493 14589 46055 16342 45548 18123 44945 19946 44329 21767 43617 23657 42876 25535 42083 -59069 37671 -27068 -44575 -25055 -45425 -23055 -46192 -21096 -46877 -19165 -47521 -17246 -48068 -15384 -48576 -13534 -49013 -11726 -49384 -9945 -49685 -8192 -49946 -6480 -50123 -4780 -50247 -3137 -50315 -1507 -50315 96 -50247 1671 -50137 3205 -49945 4699 -49699 6192 -49425 7644 -49055 9068 -48616 10452 -48137 11808 -47603 13151 -47014 14466 -46343 15753 -45616 16987 -44850 18246 -44000 19425 -43096 20617 -42137 21753 -41123 0 0zm1515607 13000l-64028 28466 0 0 -25521 -52987 -28219 -50287 -30753 -47562 -33179 -44726 -35397 -41850 -37466 -38904 -39370 -35849 -41137 -32781 -42712 -29589 -44151 -26357 -45425 -23027 -46534 -19658 -47507 -16191 -48329 -12685 -48959 -9083 -49493 -5424 -49850 -1685 -50068 2096 -50151 6000 -50124 9959 -49917 14000 -49603 18137 -49137 22356 -48549 26712 -47794 31137 -46918 35658 -45863 40315 -44672 45041 -43315 49918 -41767 54850 -40082 59918 -38219 65082 -61398 -34000 40247 -68507 42411 -63398 44425 -58356 46301 -53342 47986 -48411 49535 -43549 50918 -38698 52096 -33932 53151 -29233 53986 -24575 54644 -19973 55123 -15479 55412 -11000 55520 -6631 55411 -2342 55137 1877 54672 6000 54055 10013 53233 13973 52246 17808 51083 21576 49781 25219 48260 28822 46603 32274 44781 35685 42795 38973 40643 42192 38329 45329 35836 48342 33192 51288 30383 54151 27412 56904 0 0z"/>
    </g>
    <g>
     <path class="fil25" d="M3241830 4076256c611412,281987 1121989,1631525 568960,2167252 -308110,298453 -959797,276083 -1348428,156590 -573097,-176206 -615645,-1206140 -170918,-1890539 195220,-300480 521330,-643837 950386,-433303z"/>
     <path id="1" class="fil24" d="M3835064 6268796l-48548 -50575 0 0 46233 -49836 40548 -54082 35041 -58110 29713 -61891 24534 -65356 19479 -68562 14548 -71397 9754 -73946 5123 -76123 576 -77946 -3768 -79411 -8000 -80534 -12027 -81274 -15918 -81644 -19630 -81686 -23178 -81356 -26535 -80644 -29726 -79630 -32739 -78192 -35576 -76452 -38219 -74329 -40685 -71864 -42959 -69041 -45041 -65863 -46932 -62329 -48617 -58452 -50109 -54219 -51370 -49644 -52439 -44727 -53260 -39493 -53850 -33918 -54246 -28096 29178 -63835 59753 30917 58590 36905 57315 42479 55890 47685 54357 52521 52685 57014 50890 61164 48904 64959 46823 68439 44520 71562 42110 74356 39479 76822 36754 78946 33808 80739 30685 82206 27411 83329 23973 84124 20315 84589 16521 84740 12520 84534 8329 84014 3959 83165 -630 81973 -5397 80479 -10384 78631 -15589 76438 -21014 73904 -26644 71001 -32534 67698 -38603 64000 -44877 59864 -51274 55260 0 0zm-1382935 164891l20466 -67178 0 0 36343 10671 37808 10068 39151 9466 40370 8795 41493 8068 42507 7329 43370 6534 44123 5685 44781 4795 45302 3890 45739 2918 46028 1918 46219 877 46274 -220 46247 -1328 46082 -2494 45809 -3685 45411 -4917 44904 -6206 44288 -7493 43534 -8836 42685 -10219 41726 -11616 40630 -13055 39453 -14507 38123 -16000 36712 -17521 35192 -19055 33576 -20616 31849 -22206 30028 -23849 28164 -25479 48548 50575 -31589 28603 -33507 26589 -35301 24616 -36918 22672 -38425 20835 -39836 19000 -41109 17261 -42275 15548 -43315 13904 -44274 12329 -45096 10794 -45835 9302 -46453 7876 -46959 6480 -47383 5137 -47672 3849 -47890 2576 -47946 1383 -47945 219 -47836 -904 -47589 -1972 -47246 -3028 -46809 -4000 -46260 -4959 -45603 -5877 -44822 -6753 -43959 -7575 -43000 -8370 -41904 -9124 -40713 -9849 -39425 -10507 -38041 -11164 0 0zm-189973 -1943320l58576 38384 0 13 -39439 63795 -36657 65617 -33850 67192 -31068 68589 -28233 69740 -25398 70657 -22561 71384 -19699 71836 -16836 72123 -13945 72165 -11082 71945 -8165 71549 -5287 70904 -2370 70027 520 68932 3439 67603 6342 66055 9233 64274 12137 62260 15028 60028 17890 57548 20754 54891 23575 51972 26397 48877 29165 45576 31931 42096 34685 38411 37439 34589 40178 30616 43014 26494 45863 22219 48863 17781 -20466 67178 -55493 -20192 -52274 -25315 -48959 -30165 -45603 -34726 -42206 -39000 -38822 -42986 -35438 -46699 -32096 -50123 -28808 -53316 -25521 -56274 -22288 -58972 -19123 -61466 -15959 -63754 -12822 -65795 -9726 -67644 -6644 -69287 -3603 -70699 -547 -71918 2479 -72932 5479 -73699 8494 -74288 11493 -74657 14466 -74795 17438 -74754 20411 -74465 23384 -73987 26328 -73260 29302 -72343 32247 -71219 35191 -69850 38165 -68274 41082 -66480 0 14zm0 -14c10548,-16233 32233,-20808 48398,-10205 16164,10603 20726,32384 10178,48616l-58576 -38411zm994263 -446014l-29178 63835 -767 -356 -38000 -17274 -37261 -14192 -36521 -11301 -35794 -8507 -35096 -5849 -34411 -3315 -33781 -891 -33164 1425 -32562 3630 -32028 5754 -31452 7794 -30931 9726 -30411 11575 -29864 13329 -29342 15014 -28795 16589 -28246 18096 -27685 19466 -27096 20767 -26493 21945 -25891 23041 -25274 24000 -24616 24891 -23987 25658 -23301 26301 -22658 26863 -21945 27274 -21260 27617 -20548 27822 -19822 27945 -19124 27945 -18383 27795 -58576 -38384 18987 -28753 19780 -28905 20562 -28959 21370 -28917 22137 -28768 22932 -28507 23726 -28123 24507 -27644 25274 -27055 26096 -26370 26890 -25561 27671 -24603 28466 -23589 29288 -22439 30096 -21164 30904 -19795 31726 -18260 32521 -16658 33370 -14890 34164 -13000 34959 -10986 35754 -8836 36520 -6575 37247 -4151 37959 -1616 38603 1000 39233 3780 39836 6644 40370 9603 40876 12644 41370 15781 41836 19000 -767 -356zm767 356c17343,8507 24548,29561 16069,46986 -8480,17425 -29439,24644 -46781,16137l30712 -63123z"/>
    </g>
   </g>
  </g>
 </g>
</svg>
