<?xml version="1.0" encoding="UTF-8"?>
<!DOCTYPE svg PUBLIC "-//W3C//DTD SVG 1.1//EN" "http://www.w3.org/Graphics/SVG/1.1/DTD/svg11.dtd">
<!-- Creator: CorelDRAW X7 -->
<svg xmlns="http://www.w3.org/2000/svg" xml:space="preserve" width="47.4987mm" height="11.0879mm" version="1.1" style="shape-rendering:geometricPrecision; text-rendering:geometricPrecision; image-rendering:optimizeQuality; fill-rule:evenodd; clip-rule:evenodd"
viewBox="0 0 4882249 1139692"
 xmlns:xlink="http://www.w3.org/1999/xlink">
 <defs>
  <style type="text/css">
   <![CDATA[
    .fil0 {fill:black;fill-rule:nonzero}
    .fil1 {fill:white;fill-rule:nonzero}
   ]]>
  </style>
 </defs>
 <g id="Layer_x0020_1">
  <metadata id="CorelCorpID_0Corel-Layer"/>
  <path class="fil0" d="M4122 707678c-2817,-10484 -4122,-20968 -3752,-31268 380,-10299 565,-20978 565,-31843 0,-8613 0,-17412 185,-26396 185,-8994 566,-17977 936,-26591 750,-18357 1685,-36520 3001,-54682 1306,-17978 2056,-36140 2436,-54683 0,-8614 -195,-18162 -750,-28647 -566,-10484 1120,-19848 5057,-28276 4677,-10115 11605,-16673 20783,-19664 9179,-3001 18348,-5427 27712,-7308 18162,-4111 35770,-8048 52997,-11604 17227,-3557 35204,-7113 53747,-10865 5993,-1120 12920,-2991 20784,-5427 8048,-2436 16106,-4307 24535,-5438 8233,-1120 16096,-1120 23590,-185 7493,936 13670,3752 18912,8809l0 -18728c0,-4872 -370,-10494 -1120,-17227 -750,-6557 -935,-13115 -750,-19858 185,-6733 1120,-12920 2806,-18348 1685,-5427 4687,-9734 9179,-12735 5242,-2991 11049,-4862 17042,-5807 5992,-936 12355,-1491 18913,-1491 6362,0 12735,370 19097,1121 6178,750 11985,1315 17227,1685 11420,751 22470,566 33149,-565 10855,-1120 21719,-1686 32769,-1686 9364,0 16106,3557 20033,10865 3937,7308 6373,15922 7123,25841 555,9733 370,20043 -750,30712 -1316,10485 -2066,19283 -2251,26221 -2436,36510 -4492,73781 -6178,111606 -1685,34640 -3937,69094 -6743,102993 -2806,33889 -4121,68158 -3741,102808 0,11419 3741,20598 11235,27896 7493,7308 16661,10864 27711,10484l32398 0 0 129214 -47189 0c-12920,-370 -24155,-185 -34269,750 -9930,935 -19293,935 -27907,-185 -8418,-1131 -16847,-3752 -24710,-7873 -8058,-4307 -15922,-11975 -23785,-23220 -5242,-7678 -9929,-15911 -14051,-25090 -3926,-8984 -8233,-17793 -12540,-26026 -6928,-13301 -11615,-27156 -13486,-41947 -11985,0 -23784,-185 -35389,-566 -11615,-370 -23405,-555 -35390,-555 -18172,2056 -36335,2621 -54312,1871 -18163,-935 -36325,0 -54118,2806 -10854,3186 -21534,4122 -32398,3001 -10854,-1130 -21719,-2251 -32584,-3371 -9919,-1881 -17782,-4872 -23404,-9179 -5808,-4122 -9919,-11234 -12355,-21349zm73595 -608406c370,-4687 1686,-9745 3927,-14987 2436,-5427 5242,-10484 8428,-15726 3187,-5057 6558,-10114 10114,-14791 3372,-4687 6548,-9179 9364,-13116 2426,-3741 5058,-7483 7864,-11234 2806,-3927 6547,-6178 11800,-6928 5046,-370 9733,380 14410,2251 4502,1871 8429,4122 11615,7113l0 565 0 -565c8984,6558 17978,12920 27342,18913 9178,5992 18532,12169 27711,18357 4492,2991 9364,7298 14606,12921 5057,5612 8799,11419 11050,17227l0 -566c0,-3936 935,-8428 2806,-13105 -370,-380 -751,-750 -936,-1131 -185,-370 -370,-740 -750,-1120 750,-1305 2436,-4677 5242,-9549 2816,-4872 5623,-10114 8429,-15356 2816,-5242 5242,-10115 7308,-14606 1871,-4307 2436,-6928 1305,-7679 -1305,-1120 -1490,-2251 -750,-3741 945,-1501 2066,-2816 3567,-4122 1490,-1315 3176,-2436 5242,-3556l4121 -2251c2992,-751 5983,-566 8984,380 2991,935 5622,2241 8048,4112 -740,-370 -1305,-936 -2055,-1686l-1501 -1686c750,380 1871,1501 3556,3372 381,565 381,935 196,750 -196,-185 -196,-370 -196,-750 6743,6187 13116,12365 19108,18542 5993,6178 12355,12551 19098,18728 2251,2056 5057,4872 8244,7863 3176,3187 6177,6363 8798,9930 2621,3556 4492,7112 5612,11039 936,3752 381,7873 -1490,12365 -3752,8233 -7873,16857 -12365,25471 -4492,8613 -9179,16292 -13856,23219 -1686,2992 -3937,4862 -6558,5613 -2621,565 -5427,750 -8233,185 -2806,-555 -5807,-1491 -8614,-2806 -2816,-1121 -5437,-2437 -7678,-3557 -7863,-4307 -14986,-9364 -21729,-15356 -6732,-5808 -14041,-11420 -21904,-17042 -3186,-1686 -6177,-5058 -8798,-9734 370,2436 0,5057 -1131,7678 -1490,4307 -2991,9364 -4492,14976 -1501,5807 -3371,11235 -5807,16857 -2436,5427 -5057,10484 -8049,15356 -3001,4677 -6362,8799 -10114,11985 -2436,2621 -6362,4492 -11234,5428 -5058,1120 -10300,1685 -15727,1685 -5242,0 -10494,-370 -15541,-1120 -5253,-751 -9364,-1501 -12550,-2621 -10670,-3752 -20784,-8614 -30333,-14802 -9559,-6362 -18913,-12540 -28092,-18717 -9549,-5808 -14791,-12920 -16106,-21164 -1306,-8243 -1686,-17412 -1306,-27711zm62536 575072c0,5428 -5612,7679 -16662,6928 -11235,-750 -13856,-1120 -7678,-750 19663,750 38761,1501 57489,2066 18727,555 37640,1501 56553,2806 11800,1501 21349,2621 28647,3186 7123,751 14606,2241 22099,4307 -2241,-18543 -4677,-37075 -7298,-55052 -2621,-18173 -4872,-36336 -6743,-54683 -2621,-21164 -5242,-42133 -7678,-63111 -2436,-20784 -4122,-41752 -5242,-63101 -750,750 -1501,1490 -2436,2055 -935,566 -2056,1121 -3186,1871 -10300,5808 -21534,11235 -33519,15922 -12170,4677 -23785,9549 -34825,14226 -16291,6187 -26786,14986 -31093,26406 -4491,11234 -6927,24905 -7297,40642 -751,11604 -751,23219 -185,34824 555,11430 935,23034 1305,34834 0,8048 -370,15727 -1120,23220 -751,7493 -1131,15356 -1131,23404zm10114 -646427c750,380 2251,1686 4872,3937 -380,-370 -1120,-936 -2251,-1871 -935,-935 -1871,-1686 -2621,-2066z"/>
  <path id="1" class="fil0" d="M496060 777152c0,-2991 -185,-5992 -380,-8799 -185,-2816 0,-5622 380,-8243l0 -30713 7113 0c3187,-1490 6743,-1871 10300,-1305 3741,555 7493,1120 11614,1871 3927,750 7679,935 11235,750 3371,-185 6363,-1686 8984,-4687 3751,-3927 5992,-8614 7113,-13856 1130,-5427 1500,-10854 1315,-16847 -185,-5807 -565,-11615 -1501,-17227 -935,-5622 -1685,-10864 -2055,-15551 -936,-7679 -2251,-15347 -3557,-23025 -1130,-7678 -2251,-15356 -3001,-23034 -1686,-19849 -3176,-39512 -4307,-58990 -1120,-19663 -4307,-39141 -9364,-58424 -2621,-9179 -4492,-18543 -5992,-28092 -1491,-9549 -2621,-19097 -3372,-29027 -740,-7678 -1870,-15911 -3741,-24720 -1871,-8799 -1871,-17032 0,-24710 1871,-10114 6743,-17607 14791,-21914 8058,-4307 16857,-6178 26221,-5427 9179,750 18347,370 27711,-936 9364,-1315 18728,-2251 28092,-3001 6928,-750 15171,-1871 25090,-3556 9745,-1686 19098,-2252 28092,-1871 8984,370 16662,2806 23220,7113 6362,4306 9549,12355 9549,24155l0 -555 0 555c380,18912 1685,37640 3556,55618 2066,18162 2251,36705 380,55803 -1500,17042 -1870,34084 -1130,50941 750,16847 1500,33889 2251,50931 370,10299 185,20218 -370,29777 -566,9364 -1131,18913 -1881,28462 -740,9919 -936,19848 -740,29582 185,9929 -751,19663 -2437,29212l-1685 6558c7298,3556 14976,5427 22839,5427l25286 0 0 129214 -24536 0c-14421,-751 -26591,-5808 -36510,-15172 -9744,-9168 -17607,-20403 -23599,-33138 -751,1871 -1686,3556 -2622,5057 -1120,1490 -2055,3176 -2806,5047 -5057,9179 -11985,17042 -20978,23785 -8984,6743 -18163,10484 -27527,11615 -4307,750 -8428,750 -12540,0 -3937,-751 -8058,-1131 -12365,-1131 -5057,380 -9919,750 -14606,1131 -4677,370 -9549,750 -14606,1120 -6178,750 -12735,1686 -19478,2806 -6733,1131 -13291,750 -19468,-1120l-1131 0 -16847 0 0 -81459zm10300 277895c-1131,-4872 -1686,-10114 -1871,-15922 -195,-5612 0,-11419 555,-17412 565,-6177 750,-11800 750,-17042 0,-4862 185,-10669 381,-17042 185,-6363 555,-12355 1305,-18162 750,-5613 1871,-10670 3556,-14977 1686,-4306 4307,-7678 8059,-9929 6177,-3371 13290,-4492 21349,-3371 7863,1130 14976,1686 21338,1686 5438,-371 11245,750 17423,3186 5992,2436 11049,7298 14606,14976 1871,3001 3926,4872 6362,5437 2621,555 5242,1306 8244,2436 6362,2992 12540,4492 18532,4492 5808,0 11985,-2251 18543,-6743 3937,-2621 9549,-7678 16857,-15356 7298,-7678 14976,-14606 22839,-20413 7864,-5993 15542,-9734 22850,-11235 7298,-1686 12735,2066 15911,11235 3372,9178 5623,19663 7124,31648 1500,11800 3186,23219 5057,34269 2436,13105 2991,24720 1305,34454 -1686,9929 -6743,17607 -15161,23220 -6188,3751 -12735,8809 -19478,14801 -6743,5992 -13486,9364 -20229,10104 -7297,380 -14225,-1305 -20968,-5242 -6928,-3742 -13301,-7863 -19478,-12355 -7113,-4492 -13486,-9929 -19283,-16292 -5808,-6558 -11050,-14421 -16107,-23785 -380,-750 -1120,-2241 -2251,-4307 -935,-2055 -2241,-3926 -3371,-5612 -1306,-1685 -2621,-3186 -3742,-4122 -1315,-935 -2251,-565 -3001,936 -1871,3371 -2991,8983 -3176,16662 -381,7863 -936,14051 -1686,19108 -750,4491 -2816,8048 -5992,10484 -3187,2436 -6928,4122 -10865,5242 -3937,1120 -7863,2056 -11800,2621 -3741,566 -6743,1121 -8984,1501 -2806,1120 -6177,2436 -9548,3926 -3557,1501 -6928,2621 -10495,3372 -3361,750 -6928,935 -10299,750 -3557,-185 -6733,-1686 -9549,-4677 -2621,-3371 -4492,-7678 -5612,-12550zm82013 -8984c0,-380 196,-750 566,-945 380,-185 565,-370 565,-740l1120 -2817 0 566c0,750 -185,1500 -750,2436 -555,935 -935,1685 -935,2055l-566 -555zm111422 -642871l0 -565 0 565zm0 -2621l0 -565 0 565zm0 -5622l0 -2056 0 2056zm0 -3742l0 -2251 0 2251zm0 -2251l0 -555 0 555zm0 -555l0 -565 0 565z"/>
  <path id="2" class="fil0" d="M735934 858611l0 -129214 29213 0 2621 566 1120 0c4122,0 8428,370 13301,1120 4676,750 9549,1501 14421,2066 4861,555 9549,750 13855,370 4492,-185 8429,-935 11985,-2436 4122,-1871 6928,-5057 8429,-9734 1305,-4492 1871,-9364 1686,-14791 -196,-5242 -566,-10495 -1316,-15922 -751,-5242 -1306,-9549 -1501,-12735 -1490,-9919 -2426,-19848 -2426,-29963 -195,-10103 -750,-20033 -1685,-29962 -1501,-17227 -3002,-34269 -4307,-51301 -1501,-17042 -3372,-34084 -5438,-51311 -2055,-18913 -4121,-37826 -6177,-56739 -2056,-18727 -3186,-37825 -3186,-57303 0,-19479 -1686,-38576 -5058,-57674 -3361,-18913 -6177,-38206 -8613,-57489 -2426,-17237 -4862,-34084 -7298,-50756 -2251,-16662 -4687,-33519 -7113,-50746 -380,-5242 -380,-10114 0,-15161 370,-4872 1686,-9559 3927,-13671 2251,-4122 5242,-7493 9364,-9929 4121,-2251 9178,-3557 15541,-3557l28092 0c9178,0 18542,185 27711,566 10495,370 21164,740 31833,935 10495,185 20979,-195 31093,-935 8418,-381 17227,-946 26396,-1881 9179,-936 17607,0 25285,3001 4492,2241 7864,5242 9919,8984 2066,3936 3372,8058 3752,12735 370,4492 370,9364 0,14236 -380,4862 -565,9549 -565,14041 380,8994 185,18358 -185,27711 -566,9179 -1316,18728 -2436,28092 -1306,17607 -2241,35204 -2436,52812 -185,17412 -555,35204 -1306,53182 -935,38391 -2436,76586 -4121,114597 -1686,38021 -3742,76217 -5808,114608 -1120,17607 -2241,35019 -3371,52246 -1306,17227 -2621,34454 -3927,52062 -750,4492 -1130,8613 -1130,12725 0,3937 -185,8058 -555,12550 4676,4307 10114,8048 16106,10865 5982,2991 11975,4306 18163,3926l21349 0 0 129214 -21349 0c-8244,-370 -15922,-2436 -22850,-6178 -6928,-3937 -13105,-8798 -18543,-14986 -5612,-5993 -10299,-12735 -14225,-20403 -4122,-7494 -7309,-15552 -9930,-23970 -1305,2426 -2621,4307 -3741,5797 -2621,3752 -4872,7123 -6558,9929 -1871,2806 -3741,5427 -5427,7678 -1871,2241 -3937,4492 -5992,6928 -2252,2251 -5058,4492 -8614,6743 -13301,8799 -24340,15356 -32964,19663 -8798,4307 -17597,7298 -26776,8984 -9168,1685 -20033,2436 -32203,2066 -12365,-381 -28842,-1131 -49626,-2251l-26406 0z"/>
  <path id="3" class="fil0" d="M1025999 777152c0,-2991 -185,-5992 -380,-8799 -185,-2816 0,-5622 380,-8243l0 -30713 7113 0c3187,-1490 6743,-1871 10300,-1305 3741,555 7493,1120 11614,1871 3927,750 7679,935 11235,750 3371,-185 6363,-1686 8984,-4687 3751,-3927 5992,-8614 7113,-13856 1130,-5427 1500,-10854 1315,-16847 -185,-5807 -565,-11615 -1501,-17227 -935,-5622 -1685,-10864 -2055,-15551 -936,-7679 -2251,-15347 -3557,-23025 -1130,-7678 -2251,-15356 -3001,-23034 -1686,-19849 -3176,-39512 -4307,-58990 -1120,-19663 -4307,-39141 -9364,-58424 -2621,-9179 -4492,-18543 -5992,-28092 -1491,-9549 -2621,-19097 -3372,-29027 -740,-7678 -1870,-15911 -3741,-24720 -1871,-8799 -1871,-17032 0,-24710 1871,-10114 6743,-17607 14791,-21914 8058,-4307 16857,-6178 26221,-5427 9179,750 18347,370 27711,-936 9364,-1315 18728,-2251 28092,-3001 6928,-750 15171,-1871 25090,-3556 9745,-1686 19098,-2252 28092,-1871 8984,370 16662,2806 23220,7113 6362,4306 9549,12355 9549,24155l0 -555 0 555c380,18912 1685,37640 3556,55618 2066,18162 2251,36705 380,55803 -1500,17042 -1870,34084 -1130,50941 750,16847 1500,33889 2251,50931 370,10299 185,20218 -370,29777 -566,9364 -1131,18913 -1881,28462 -740,9919 -936,19848 -740,29582 185,9929 -751,19663 -2437,29212l-1685 6558c7298,3556 14976,5427 22839,5427l25286 0 0 129214 -24536 0c-14421,-751 -26591,-5808 -36510,-15172 -9744,-9168 -17607,-20403 -23599,-33138 -751,1871 -1686,3556 -2622,5057 -1120,1490 -2055,3176 -2806,5047 -5057,9179 -11985,17042 -20978,23785 -8984,6743 -18163,10484 -27527,11615 -4307,750 -8428,750 -12540,0 -3937,-751 -8058,-1131 -12365,-1131 -5057,380 -9919,750 -14606,1131 -4677,370 -9549,750 -14606,1120 -6178,750 -12735,1686 -19478,2806 -6733,1131 -13291,750 -19468,-1120l-1131 0 -16847 0 0 -81459zm10300 277895c-1131,-4872 -1686,-10114 -1871,-15922 -195,-5612 0,-11419 555,-17412 565,-6177 750,-11800 750,-17042 0,-4862 185,-10669 381,-17042 185,-6363 555,-12355 1305,-18162 750,-5613 1871,-10670 3556,-14977 1686,-4306 4307,-7678 8059,-9929 6177,-3371 13290,-4492 21349,-3371 7863,1130 14976,1686 21338,1686 5438,-371 11245,750 17423,3186 5992,2436 11049,7298 14606,14976 1871,3001 3926,4872 6362,5437 2621,555 5242,1306 8244,2436 6362,2992 12540,4492 18532,4492 5808,0 11985,-2251 18543,-6743 3937,-2621 9549,-7678 16857,-15356 7298,-7678 14976,-14606 22839,-20413 7864,-5993 15542,-9734 22850,-11235 7298,-1686 12735,2066 15911,11235 3372,9178 5623,19663 7124,31648 1500,11800 3186,23219 5057,34269 2436,13105 2991,24720 1305,34454 -1686,9929 -6743,17607 -15161,23220 -6188,3751 -12735,8809 -19478,14801 -6743,5992 -13486,9364 -20229,10104 -7297,380 -14225,-1305 -20968,-5242 -6928,-3742 -13301,-7863 -19478,-12355 -7113,-4492 -13486,-9929 -19283,-16292 -5808,-6558 -11050,-14421 -16107,-23785 -380,-750 -1120,-2241 -2251,-4307 -935,-2055 -2241,-3926 -3371,-5612 -1306,-1685 -2621,-3186 -3742,-4122 -1315,-935 -2251,-565 -3001,936 -1871,3371 -2991,8983 -3176,16662 -381,7863 -936,14051 -1686,19108 -750,4491 -2816,8048 -5992,10484 -3187,2436 -6928,4122 -10865,5242 -3937,1120 -7863,2056 -11800,2621 -3741,566 -6743,1121 -8984,1501 -2806,1120 -6177,2436 -9548,3926 -3557,1501 -6928,2621 -10495,3372 -3361,750 -6928,935 -10299,750 -3557,-185 -6733,-1686 -9549,-4677 -2621,-3371 -4492,-7678 -5612,-12550zm82013 -8984c0,-380 196,-750 566,-945 380,-185 565,-370 565,-740l1120 -2817 0 566c0,750 -185,1500 -750,2436 -555,935 -935,1685 -935,2055l-566 -555zm111422 -642871l0 -565 0 565zm0 -2621l0 -565 0 565zm0 -5622l0 -2056 0 2056zm0 -3742l0 -2251 0 2251zm0 -2251l0 -555 0 555zm0 -555l0 -565 0 565z"/>
  <path id="4" class="fil0" d="M1265873 858611l0 -129214 29213 0 2621 566 1120 0c4122,0 8428,370 13301,1120 4676,750 9549,1501 14421,2066 4861,555 9549,750 13855,370 4492,-185 8429,-935 11985,-2436 4122,-1871 6928,-5057 8429,-9734 1305,-4492 1871,-9364 1686,-14791 -196,-5242 -566,-10495 -1316,-15922 -751,-5242 -1306,-9549 -1501,-12735 -1490,-9919 -2426,-19848 -2426,-29963 -195,-10103 -750,-20033 -1685,-29962 -1501,-17227 -3002,-34269 -4307,-51301 -1501,-17042 -3372,-34084 -5438,-51311 -2055,-18913 -4121,-37826 -6177,-56739 -2056,-18727 -3186,-37825 -3186,-57303 0,-19479 -1686,-38576 -5058,-57674 -3361,-18913 -6177,-38206 -8613,-57489 -2426,-17237 -4862,-34084 -7298,-50756 -2251,-16662 -4687,-33519 -7113,-50746 -380,-5242 -380,-10114 0,-15161 370,-4872 1686,-9559 3927,-13671 2251,-4122 5242,-7493 9364,-9929 4121,-2251 9178,-3557 15541,-3557l28092 0c9178,0 18542,185 27711,566 10495,370 21164,740 31833,935 10495,185 20979,-195 31093,-935 8418,-381 17227,-946 26396,-1881 9179,-936 17607,0 25285,3001 4492,2241 7864,5242 9919,8984 2066,3936 3372,8058 3752,12735 370,4492 370,9364 0,14236 -380,4862 -565,9549 -565,14041 380,8994 185,18358 -185,27711 -566,9179 -1316,18728 -2436,28092 -1306,17607 -2241,35204 -2436,52812 -185,17412 -555,35204 -1306,53182 -935,38391 -2436,76586 -4121,114597 -1686,38021 -3742,76217 -5808,114608 -1120,17607 -2241,35019 -3371,52246 -1306,17227 -2621,34454 -3927,52062 -750,4492 -1130,8613 -1130,12725 0,3937 -185,8058 -556,12550 4677,4307 10115,8048 16107,10865 5982,2991 11975,4306 18163,3926l21349 0 0 129214 -21349 0c-8244,-370 -15922,-2436 -22850,-6178 -6928,-3937 -13105,-8798 -18543,-14986 -5612,-5993 -10299,-12735 -14225,-20403 -4122,-7494 -7309,-15552 -9930,-23970 -1305,2426 -2621,4307 -3741,5797 -2621,3752 -4872,7123 -6558,9929 -1871,2806 -3741,5427 -5427,7678 -1871,2241 -3937,4492 -5992,6928 -2252,2251 -5058,4492 -8614,6743 -13301,8799 -24340,15356 -32964,19663 -8798,4307 -17597,7298 -26776,8984 -9168,1685 -20033,2436 -32203,2066 -12365,-381 -28842,-1131 -49626,-2251l-26406 0z"/>
  <path id="5" class="fil0" d="M1551447 858611l0 -129214 32953 0 0 -555 15356 0 3372 1121 555 0c3937,0 6743,185 8243,370 1316,195 2437,195 3187,195 555,0 1305,-195 2241,-751 935,-565 2621,-1685 5252,-3186 3556,-1686 6178,-4677 7863,-8983 1491,-4122 2436,-8614 2436,-13116 0,-4677 -565,-9364 -1685,-14226 -1131,-5057 -1881,-9179 -2251,-12365 -1686,-10299 -2807,-20403 -3002,-30518 -185,-10114 -555,-19848 -1305,-29407l-3937 -51496c-1305,-17227 -2806,-34454 -4307,-51682 -1870,-18912 -3741,-37825 -5427,-56738 -1871,-18728 -3001,-37641 -3186,-56738 0,-19294 -1306,-38576 -3927,-57674 -2436,-18913 -4687,-38206 -6558,-57489 -1305,-17237 -2991,-34084 -4872,-50756 -1870,-16662 -3741,-33519 -5427,-50746 -750,-5427 -935,-10669 -370,-15727 555,-4872 1871,-9363 4112,-13300 2251,-4112 5252,-7483 8993,-9919 3927,-2621 8429,-3937 13486,-3937 8799,380 17597,565 26396,565l26786 0c9919,370 19848,751 29963,936 10299,185 20218,-185 30147,-936 8048,-380 16477,-935 25460,-1685 8994,-566 17227,370 24721,3371 4687,2241 8058,5242 10299,8984 2066,3936 3556,8058 4122,12365 565,4492 565,9169 185,14226 -370,5242 -555,9929 -555,14421 0,8994 -196,18358 -751,27711 -565,9179 -1315,18543 -1870,27537 -1881,17597 -2817,35204 -2817,52986 0,17793 -370,35585 -1120,53563 -1121,38010 -2621,76021 -4492,114042 -2066,38011 -3752,76402 -5622,115163 -1121,17227 -2241,34639 -3557,51866 -1316,17422 -2621,34834 -4122,52442 -935,10669 -1870,20783 -2621,30517 -750,9744 -2806,20044 -5992,30528 -2806,9179 -6928,17597 -11985,25090 -5057,7679 -10299,15172 -15727,22850 -5057,7678 -10299,15356 -15736,23034 -5427,7864 -11790,14411 -19098,19653 -8984,5438 -17978,8624 -27146,9745 -8994,1120 -18358,1500 -28277,1120 -2066,0 -2816,0 -2066,0 750,0 1686,0 3001,185 1306,195 1871,380 2056,380 185,185 -935,185 -3371,185l-21164 2056 -21154 3371 -14421 0 -1500 566 -29767 0z"/>
  <path id="6" class="fil0" d="M1875215 248518c0,-16857 3937,-29212 11800,-37085 8049,-7863 17597,-13105 29212,-15912 11420,-2621 23775,-3741 36706,-3001 13105,750 24710,1131 34824,1131 3752,0 9179,0 16292,-196 7308,-185 14421,0 21719,751 7123,750 13300,2066 18542,4122 5242,2066 7678,5242 7308,9548 -1130,15737 -1315,31464 -750,47005 555,15541 750,31083 750,46819 370,17978 0,35955 -945,54118 -936,18162 -2056,36140 -3176,54117 -1131,17793 -2251,35770 -3557,53933 -1315,18162 -2066,36139 -2436,54117 -1871,56553 -2621,112922 -2436,168910 185,55988 1501,112356 4122,168910l-2816 15911c-15912,4872 -31453,9744 -46810,14606 -15356,4872 -30897,9744 -46624,14606 -8243,2817 -16672,5242 -25285,7308 -8614,2056 -17043,936 -25276,-3001 -6188,-2621 -10494,-6928 -12920,-12920 -2631,-5993 -3937,-12540 -4307,-19664 -380,-7112 -195,-14410 370,-21718 751,-7298 1121,-13671 1501,-19283 370,-15922 935,-31844 2056,-47570 935,-15727 1685,-31648 2436,-47560 565,-15921 935,-31833 935,-47755 0,-15921 -565,-31833 -1871,-47939 -2621,-32584 -4492,-64982 -5427,-97185 -946,-32214 -1501,-64612 -2066,-97566 -370,-33334 -750,-66287 -1120,-98686 -381,-32583 -566,-65537 -751,-98871z"/>
  <path id="7" class="fil0" d="M2326892 797751c-4306,-23405 -5242,-47005 -2436,-70780 2621,-23785 8429,-46819 17227,-69103 4492,-10300 9549,-20229 15357,-29778 5807,-9364 10864,-19283 14791,-29582 3752,-8428 7123,-16107 10114,-23219 3186,-7124 6743,-14802 10865,-22850 2436,-3937 4872,-8798 7298,-14421 2436,-5807 5437,-10669 8993,-14606 1501,-1120 3742,-1501 6363,-1120 2816,370 5622,1500 8613,3371 -2621,-4872 -5612,-9744 -8798,-14606 -3372,-4872 -6743,-9929 -10484,-15171 -5438,-7679 -11050,-15172 -16672,-22655 -5798,-7493 -11050,-15541 -16292,-23970 -2426,-4306 -2426,-7863 0,-10679 2621,-2621 5622,-5427 9364,-8429 2621,-2621 5057,-4676 7678,-6547l7678 -5623c7308,-5057 13856,-10854 19478,-17227 5612,-6362 11420,-12920 17227,-19478 6363,-7298 12736,-14041 19478,-20218 6743,-6178 13856,-12735 21154,-19293 1881,-2241 4502,-4862 7678,-8233 3372,-3187 6928,-6178 10680,-8799 3926,-2436 7678,-3937 11234,-4122 3742,-185 6743,2241 9364,6928l0 -565 0 565c13856,23785 27897,47745 41948,72095 14040,24340 25840,49245 35389,74901 6558,16107 13671,31833 20969,47004 7308,15172 13671,30713 19108,46820 5797,17597 11985,35204 18347,52616 6363,17598 12551,35390 18348,53367 3752,10115 8243,20784 13866,32019 5427,11245 10484,22479 15356,33714 4677,11419 8233,22839 10670,34269 2436,11605 2055,23220 -936,34824 -3186,12550 -8243,22850 -14791,31278 -6558,8429 -14421,15357 -23600,20599 -9179,5427 -19283,9179 -30332,11234 -11235,2251 -22469,3372 -33714,3372 -20599,370 -40252,1305 -59360,2991 -18913,1686 -38761,1131 -59174,-1305 -14976,-1871 -29963,-2807 -45124,-2807 -14986,0 -30158,-750 -45504,-2251 -3566,-370 -8058,-750 -13115,-1120 -5057,-380 -10115,-1131 -14791,-2436 -4677,-1316 -9364,-3001 -13671,-5437 -4492,-2426 -7678,-5428 -9919,-8984 -4687,-7113 -8243,-15922 -10494,-26961 -2056,-11050 -3927,-20794 -5428,-29592zm26406 -620022c0,-4307 751,-8799 2621,-13105 1871,-4307 4122,-8429 6928,-12366 2806,-3926 5808,-7482 8984,-10669 3371,-3371 6188,-6558 8809,-9929 5057,-6548 9734,-13290 13670,-20033 4112,-6743 8419,-13671 13291,-20599l15921 -11985c5798,7308 11050,14791 15912,22284 4687,7494 9929,14791 15922,22100 5807,7298 12170,14791 19467,22284 7124,7493 12181,15911 15552,25470 740,-380 1305,-565 1686,-565 370,0 935,-185 1686,-565 3926,-3187 7667,-6548 11234,-9919 3372,-3187 6928,-6743 10669,-10299 7679,-6558 14791,-13486 21349,-20599 6558,-7123 13291,-14421 20229,-21729 5992,-5808 12540,-10484 20033,-14226 7493,-3556 15171,-3371 22850,555 3741,1881 7112,4502 10484,8244 3176,3741 6362,7678 9549,11985 3186,4492 5992,8983 8798,13485 2621,4677 5057,8614 6743,11790 5993,7678 7493,16107 4677,24905 -2621,8994 -7113,17793 -13290,26406 -6363,8614 -13106,16672 -20599,24351 -7493,7678 -13301,13855 -17412,18162 -7308,9169 -14606,13856 -22099,14226 -7493,380 -14791,-1491 -21914,-5993 -7298,-4306 -14226,-10104 -20969,-17227 -6743,-7113 -13105,-13670 -18913,-19468l-3752 -3371c-370,-750 751,370 3752,3371 1501,1121 2806,2241 3927,3176 1130,1131 1500,1871 1500,2251l-5427 -5427c-750,-750 -2251,-2621 -4307,-5622l-7678 -9179c-750,7678 -3186,14606 -7113,20979 -4121,6547 -8058,12920 -12180,19663 -2621,4307 -5057,8614 -7678,12735 -2621,4307 -5427,8049 -8418,11235 -3187,3371 -6558,5992 -10115,8048 -3751,2056 -8058,2621 -13300,1871 -5057,-750 -9919,-2621 -14421,-5808 -4677,-2991 -9169,-6547 -13476,-10299 -4491,-3926 -8613,-8048 -12365,-12725 -3926,-4502 -7678,-8428 -11235,-11800 -6547,-5807 -13105,-12170 -19467,-19098 -6373,-6928 -9745,-15921 -10115,-26971zm36706 551863c-2632,12170 -1686,22285 2425,30333 4307,8048 10300,14236 18358,18913 8048,4492 17412,7493 27711,8798 10485,1131 20599,1131 30528,-370 4677,-750 9919,-1685 15542,-3001 5807,-1306 11234,-2991 16476,-5242 5243,-2241 10300,-4862 15172,-7863 4677,-3187 8613,-6743 11419,-10670 5993,-8428 8049,-17607 6558,-27156 -1315,-9734 -3752,-18728 -7123,-26776 -4307,-10495 -9919,-20229 -16662,-29027 -6743,-8799 -12920,-18163 -18347,-27907 -381,-370 -1131,-1871 -2251,-4492 -1121,-2436 -2251,-5242 -3557,-8243 -1315,-2806 -2436,-5427 -3186,-7863 -935,-2436 -1305,-3557 -935,-3557 1500,381 2251,0 2436,-1120 185,-1121 0,-2251 -566,-3557 -565,-1315 -1120,-2621 -1870,-4121l-1686 -3372c-1121,-2436 -2251,-4872 -3557,-7308 -1315,-2426 -2621,-4677 -4121,-6928 -2806,2251 -5612,4502 -8244,6558 -2426,2251 -5242,4492 -8233,6743 -17042,14606 -31463,32398 -43068,53367 -11430,20979 -19293,42317 -23219,63861zm125081 -397744l0 -380 0 380zm2251 2241l565 0c0,380 0,750 0,1130 0,-380 0,-750 0,-1130l-565 0zm565 1130l370 555c-370,0 -370,-185 -370,-555zm936 1686l0 -565 0 565zm555 555c0,750 195,1131 565,1131 -370,0 -565,-381 -565,-1131z"/>
  <path id="8" class="fil0" d="M2757405 711615c-1685,-11235 185,-19293 5798,-24165 5807,-4862 13115,-8048 22284,-9549 4872,-750 9929,-1491 15356,-2436 5623,-936 10865,-2056 15737,-3557 5057,-1490 9734,-3741 13856,-6362 4306,-2806 7678,-6558 10299,-10865 2436,-4121 4307,-8613 5242,-13670 935,-5057 1501,-9919 1686,-14976 185,-5058 0,-9930 -381,-14987 -370,-5057 -740,-9734 -1120,-14040 -1501,-20784 -3371,-41013 -5612,-60861 -2251,-19848 -3187,-40076 -2816,-60860 750,-10299 1315,-20598 1685,-31083 381,-10299 566,-20783 566,-31278 0,-9168 750,-16847 2436,-23219 1685,-6363 6927,-11790 16106,-16662 8799,-4307 18348,-6373 28832,-6178 10299,185 20414,185 29777,185 19098,0 38011,566 56924,1686 6558,370 15541,750 26786,1121 11235,380 22469,1685 33519,3751 11235,2241 20784,5797 29017,10670 8243,4872 12365,12355 12365,22099l0 555 0 -555c0,8048 185,16662 565,26210 370,9364 -945,17978 -3936,25656 -1686,4492 -4307,7493 -7678,8994 -3187,1686 -6743,2621 -10670,2621 -3752,0 -7873,-380 -12180,-935 -4492,-566 -8233,-1131 -11605,-1881 -8994,-1871 -17977,-2991 -26776,-3176 -8613,-186 -17792,-381 -27156,-751 -4872,0 -9734,-185 -14791,-565 -5057,-370 -10299,-1501 -15356,-3372 -1501,-555 -3002,-1685 -4307,-2806 -1501,-1315 -3002,-1120 -4492,751 -2816,2621 -4872,5807 -6188,9734 -1305,3936 -2241,8058 -2991,12550 -750,4307 -1316,8798 -1501,12920 -185,4307 -185,8048 -185,11420 -750,9179 -1315,18358 -1685,27526 -381,8994 -185,18173 565,27342 370,18542 370,36890 0,55052 -380,8244 0,15357 1120,21349 1121,6188 4872,12180 11420,18163 6558,5807 14236,9744 23035,11615 8798,1870 17607,2806 26776,2806 8993,0 18357,-185 27526,-751 9364,-555 18173,-370 26591,751 9364,1130 16292,4687 20413,10679 4122,5808 6928,12921 7864,20784 1130,8048 1130,16291 0,24905 -936,8799 -1686,16107 -2056,22284 -750,8984 -1316,17978 -1686,26961 -380,8809 0,17423 1121,25656 1130,8428 380,14421 -1871,18358 -2436,3741 -8244,4676 -17227,2436 -9549,-1881 -18543,-3752 -27157,-5438 -8613,-1870 -17412,-2806 -26395,-2806 -7678,0 -15357,370 -23035,1316 -7678,935 -15171,1871 -22849,2621 -20414,1686 -40447,2806 -60110,3176 -19663,380 -39697,2251 -59925,5438 -4307,740 -9179,1870 -14606,3371 -5242,1490 -10669,2621 -16107,3361 -5612,565 -10854,565 -16096,0 -5057,-740 -9364,-2991 -13116,-6732 -2991,-2437 -4862,-5993 -5992,-10680 -1121,-4492 -1871,-9364 -2241,-14421 -380,-5057 -380,-10104 0,-15356 370,-5243 740,-9549 1120,-12725 1871,-20044 370,-39707 -4492,-59175zm318342 -300929l0 -566 0 566zm0 -936l0 -1131 0 1131zm0 -1686l0 -565 0 565z"/>
  <path id="9" class="fil0" d="M3133236 248518c0,-16857 3937,-29212 11800,-37085 8048,-7863 17597,-13105 29212,-15912 11420,-2621 23775,-3741 36705,-3001 13105,750 24710,1131 34824,1131 3752,0 9179,0 16292,-196 7308,-185 14421,0 21719,751 7123,750 13301,2066 18543,4122 5242,2066 7678,5242 7308,9548 -1131,15737 -1316,31464 -750,47005 555,15541 750,31083 750,46819 370,17978 0,35955 -946,54118 -935,18162 -2055,36140 -3176,54117 -1130,17793 -2251,35770 -3556,53933 -1316,18162 -2066,36139 -2436,54117 -1871,56553 -2621,112922 -2436,168910 185,55988 1500,112356 4121,168910l-2816 15911c-15911,4872 -31453,9744 -46809,14606 -15357,4872 -30898,9744 -46624,14606 -8244,2817 -16672,5242 -25286,7308 -8613,2056 -17042,936 -25275,-3001 -6188,-2621 -10495,-6928 -12921,-12920 -2631,-5993 -3936,-12540 -4306,-19664 -381,-7112 -196,-14410 370,-21718 750,-7298 1120,-13671 1500,-19283 370,-15922 936,-31844 2056,-47570 935,-15727 1686,-31648 2436,-47560 565,-15921 936,-31833 936,-47755 0,-15921 -566,-31833 -1871,-47939 -2621,-32584 -4492,-64982 -5427,-97185 -946,-32214 -1501,-64612 -2066,-97566 -370,-33334 -751,-66287 -1121,-98686 -380,-32583 -565,-65537 -750,-98871z"/>
  <path id="10" class="fil0" d="M3401767 958982c1501,751 3752,-370 7123,-2991 3372,-2816 5612,-4502 7113,-5252 4122,-1871 7863,-3372 11235,-4307 3556,-1120 7308,-2056 11234,-2806l34650 -9364c1490,0 2436,-185 3176,-555l11049 -3186c13486,-3752 26776,-8429 39512,-14051 12735,-5613 25470,-11790 37825,-18348 31463,-16477 56184,-38011 74346,-64787 18163,-26786 30898,-56748 38206,-90072 2426,-13115 2806,-26591 1121,-40262 -1871,-13670 -3557,-27536 -5058,-41392 -1685,-20033 -4121,-40262 -6742,-60295 -2807,-20228 -5243,-40446 -7494,-60860 -1305,-16107 -3361,-32398 -5612,-48690 -2436,-16292 -3556,-32388 -3556,-48495 0,-5437 -381,-11430 -1131,-17607 -740,-6178 -740,-11985 195,-17413 936,-5622 3177,-10114 6548,-13855 3556,-3557 9364,-5438 17227,-5438 17237,-370 34269,-1120 51496,-2425 17042,-1316 34465,-2066 51877,-2436 6558,0 14421,-186 23220,-381 8983,-185 17607,751 26025,2817 8429,2055 15357,5242 20794,9919 5427,4491 7863,11614 7113,21533 -1120,12170 -1686,24155 -1686,36336 0,11985 -750,24155 -2056,36140 -1881,20413 -4687,40816 -8243,61230 -3742,20228 -6928,40642 -9929,61045 -2056,16857 -4112,33714 -5993,50561 -1870,16857 -3926,33519 -6547,50376 5797,6928 12735,13105 20598,18162 7863,5057 15912,7678 24340,7678l27527 -565 0 119665 -28092 0c-11605,-370 -22469,-4307 -32203,-12170 -9930,-7678 -18163,-16672 -24721,-26776 -750,6547 -1685,13105 -2991,19468 -1315,6372 -3186,12920 -5807,19478 -8059,19283 -16857,38576 -26776,57489 -9929,19097 -20979,37260 -33334,54682 -12365,17412 -26036,33519 -40827,48495 -14791,14986 -31083,28657 -49060,40642 -13856,8799 -27907,17412 -42513,25841 -14411,8428 -28462,17412 -42502,27341 -8059,5427 -16857,10114 -26776,14041 -9930,3741 -20044,6928 -30158,9549 -4862,1500 -9919,2066 -15346,1870 -5623,-185 -10865,0 -15922,381l-1686 0c-8798,750 -15726,-1501 -20598,-6928 -4872,-5242 -8984,-11800 -11985,-19478 -3187,-7678 -5623,-15727 -7493,-24340 -1871,-8614 -3557,-16107 -4862,-22284 -3001,-10115 -5057,-20599 -6373,-31279 -1305,-10484 -3186,-20968 -5807,-31267 -370,-1871 -1121,-3002 -2426,-3752 -1316,-740 -2066,-2056 -2436,-3927 -751,-3186 -1501,-6372 -1871,-9548 -565,-3187 -1316,-5993 -2066,-8429 -370,-2251 -750,-5622 -1120,-10299 -381,-4492 -1501,-7308 -3752,-8429z"/>
  <path id="11" class="fil0" d="M3887148 858611l0 -124527 22099 0c11985,0 23035,751 32768,2241 9930,1316 16858,2621 20969,3752 5057,750 9929,1120 14236,1120l14236 0c7298,380 14606,380 21719,0 7113,-370 14236,-1305 21719,-2806 -9549,-7678 -18348,-15922 -26396,-24535 -7678,-7493 -15171,-15357 -22284,-23590 -7123,-8428 -13301,-17422 -18358,-26971 -3556,-6548 -6177,-14041 -7678,-22284 -1501,-8234 -2806,-16097 -3741,-23775 -4492,-20228 -6743,-40457 -6928,-60860 -185,-20599 185,-40827 1305,-61056 750,-16661 3371,-32388 7678,-46994 4492,-14801 10300,-29212 17608,-43448 6177,-13486 13670,-25841 22469,-36705 8798,-11050 20228,-20218 34084,-27527 16097,-8428 33519,-15541 52432,-21348 18728,-5808 37455,-8984 56173,-9364 16487,-370 33149,750 50006,3371 16661,2621 32768,6928 47940,13105 15161,6188 29397,14421 42502,24536 13105,9929 24340,22284 33519,36890 6558,10680 11419,21914 14421,33899 3186,11790 5622,23775 7493,35760 2806,17227 5427,34649 7298,52431 2066,17793 1316,35215 -2436,52442 -2621,13476 -7113,26776 -14041,40067 -6743,13115 -13485,25470 -20413,36705 -9549,14986 -19663,29592 -30518,43818 -10864,14421 -22284,27722 -34269,40077l-6558 6557c-2251,2241 -4492,4307 -6558,6178 6558,750 12921,1305 19479,1686 6372,185 12920,750 20033,1490 7308,380 14606,946 22099,1501 7493,565 14986,380 22284,-370 8429,-1501 17042,-2806 25841,-4122 8613,-1316 16487,-1871 23415,-1871l26395 0 0 124527 -64786 0 -936 -566c-7493,751 -14986,751 -22664,196 -7678,-381 -14976,-751 -21904,-751 -8799,0 -17607,185 -26591,555 -8994,381 -17607,-750 -26036,-3371 -17967,-5427 -36140,-11605 -54487,-18533 -18543,-6927 -36140,-15541 -52997,-25840 -2241,1871 -4492,3371 -6928,4492 -2436,935 -5057,2055 -7863,3186 -6928,2991 -13856,5993 -20414,9169 -6558,3001 -13290,5992 -20218,8993 -5057,2241 -11430,4862 -18923,8234 -7483,3186 -14411,4687 -20599,4307 -6547,0 -13105,750 -19848,1881 -6547,1305 -13105,2425 -19663,3176l-1686 0 566 935 -65167 3937 -30898 0zm87821 -741927c-370,-6178 -370,-12355 -185,-18728 185,-6362 935,-12355 2436,-17792 1501,-5613 3937,-8614 7678,-9364 11985,-2621 24155,-2991 36520,-1306 12170,1501 24340,2056 36510,1306 5058,-370 11235,-1306 18358,-2806 7113,-1306 14041,-2241 21154,-2621 6928,-370 13485,0 19663,1120 6177,946 11430,4122 15356,9179 2621,3371 4122,8428 4872,15171 751,6743 1501,13671 2056,20784 565,7113 1501,13670 3001,19848 1491,5992 4112,9744 8234,11234 6558,2437 11985,3002 16106,1316 4307,-1686 7679,-4307 10115,-8243 2621,-3742 4306,-8234 5057,-13476 750,-5057 935,-10114 555,-15356 -370,-5808 -1491,-11800 -2991,-17978 -1686,-6372 -1501,-11985 750,-17042 2621,-6177 6548,-11049 11800,-14236 5242,-3371 11039,-5992 17227,-7678 4862,-1871 9549,-3556 14226,-5242 4872,-1686 9744,-2621 14606,-2991 4872,-380 9744,185 14236,1490 4677,1501 8984,4502 12920,8809 4122,4862 7493,10104 10114,15727 2807,5622 5058,11615 6548,17792 1686,6178 3371,12540 5057,19283 1686,6558 3557,12550 5623,17977 1500,5242 3556,10485 6177,15922 2436,5612 4677,11050 6558,16847 1871,5622 3371,11430 4677,17227 1315,5807 1685,11430 1315,17042 -750,6558 -3001,11430 -6557,14421 -3742,3186 -8244,5427 -13486,6743 -5242,1120 -10854,1871 -16662,1871 -5807,0 -11615,185 -17042,565 -2621,370 -6743,935 -12550,1501 -5993,740 -11985,1305 -18533,1490 -6373,195 -12365,-185 -17977,-1120 -5808,-936 -9179,-2806 -10114,-5808 -1121,-1871 -1121,-3556 0,-5242 935,-1501 935,-3186 0,-4677 -1501,-1685 -3557,-3186 -5808,-4122 -2436,-750 -4492,-1685 -6362,-2436 -5438,-2436 -10865,-4676 -16107,-6557 -5427,-1871 -11050,-2426 -17412,-1686 -4687,380 -9929,1881 -15542,4122 -5622,2436 -9559,5992 -11800,10679 -1870,3372 -3001,6363 -3371,9169 -380,2621 -2436,5057 -6558,6743 -11604,5992 -24525,9179 -38391,9929 -13855,750 -26961,935 -39511,555 -11235,0 -22089,-1120 -32388,-3557 -10115,-2436 -17978,-9168 -23600,-20598 -2436,-4307 -4122,-9734 -4872,-16096 -740,-6373 -1121,-12931 -1306,-19294 -185,-6362 -185,-12735 185,-19097 381,-6558 381,-12366 0,-17978 0,-2436 -185,-6743 -565,-12735zm50006 404487c-1131,10670 -1501,21154 -1131,31833 381,10670 2066,20969 4872,31268 4122,14236 9930,29027 17608,44199 7678,15161 17042,27896 27896,38195 6743,6178 13486,12170 20414,17793 6927,5622 14236,11049 21914,16106 6547,-3936 13105,-7863 19468,-11800 6372,-3741 12365,-8428 17792,-13855 11800,-11050 22284,-24350 31833,-40077 9549,-15726 16107,-31083 19848,-46069 2817,-9919 4307,-19848 4307,-29767l0 -30713c0,-8428 -370,-16857 -1120,-25090 -751,-8429 -3002,-16487 -7113,-24165 -2251,-5243 -5057,-10855 -8809,-16847 -3556,-5993 -8613,-9929 -14791,-11800 -17597,-3557 -35770,-5808 -54868,-6558 -17227,-740 -33518,1316 -48875,6373 -15356,4862 -28277,14791 -38946,29777 -4307,6363 -6928,12921 -7863,19848 -935,6928 -1686,14041 -2436,21349zm1686 -458605l370 0 -370 0zm370 0l565 0 -565 0zm565 0l1120 -565c-370,380 -750,565 -1120,565zm1120 -565l566 0 -566 0z"/>
  <path id="12" class="fil0" d="M4381707 858611l0 -129214 32954 0 0 -555 15356 0 3372 1121 555 0c3937,0 6743,185 8243,370 1316,195 2436,195 3187,195 555,0 1305,-195 2241,-751 935,-565 2621,-1685 5252,-3186 3556,-1686 6177,-4677 7863,-8983 1491,-4122 2436,-8614 2436,-13116 0,-4677 -565,-9364 -1686,-14226 -1130,-5057 -1881,-9179 -2251,-12365 -1685,-10299 -2806,-20403 -3001,-30518 -185,-10114 -555,-19848 -1305,-29407l-3937 -51496c-1305,-17227 -2806,-34454 -4307,-51682 -1871,-18912 -3741,-37825 -5427,-56738 -1871,-18728 -3001,-37641 -3186,-56738 0,-19294 -1306,-38576 -3927,-57674 -2436,-18913 -4687,-38206 -6558,-57489 -1305,-17237 -2991,-34084 -4872,-50756 -1871,-16662 -3741,-33519 -5427,-50746 -750,-5427 -935,-10669 -370,-15727 555,-4872 1871,-9363 4112,-13300 2251,-4112 5252,-7483 8993,-9919 3927,-2621 8429,-3937 13486,-3937 8799,380 17597,565 26396,565l26786 0c9919,370 19848,751 29962,936 10300,185 20219,-185 30148,-936 8048,-380 16477,-935 25460,-1685 8994,-566 17227,370 24720,3371 4688,2241 8059,5242 10300,8984 2066,3936 3556,8058 4122,12365 565,4492 565,9169 185,14226 -371,5242 -556,9929 -556,14421 0,8994 -195,18358 -750,27711 -565,9179 -1316,18543 -1871,27537 -1881,17597 -2816,35204 -2816,52986 0,17793 -370,35585 -1120,53563 -1121,38010 -2621,76021 -4492,114042 -2066,38011 -3752,76402 -5623,115163 -1120,17227 -2240,34639 -3556,51866 -1316,17422 -2621,34834 -4122,52442 -935,10669 -1870,20783 -2621,30517 -750,9744 -2806,20044 -5992,30528 -2806,9179 -6928,17597 -11985,25090 -5057,7679 -10300,15172 -15727,22850 -5057,7678 -10299,15356 -15736,23034 -5428,7864 -11790,14411 -19098,19653 -8984,5438 -17978,8624 -27146,9745 -8994,1120 -18358,1500 -28277,1120 -2066,0 -2816,0 -2066,0 750,0 1686,0 3001,185 1306,195 1871,380 2056,380 185,185 -935,185 -3371,185l-21164 2056 -21154 3371 -14421 0 -1500 566 -29768 0z"/>
  <path id="13" class="fil0" d="M4705476 248518c0,-16857 3937,-29212 11800,-37085 8048,-7863 17597,-13105 29212,-15912 11420,-2621 23775,-3741 36706,-3001 13105,750 24710,1131 34824,1131 3752,0 9179,0 16292,-196 7308,-185 14421,0 21718,751 7124,750 13301,2066 18543,4122 5242,2066 7678,5242 7308,9548 -1130,15737 -1315,31464 -750,47005 555,15541 750,31083 750,46819 370,17978 0,35955 -945,54118 -936,18162 -2056,36140 -3176,54117 -1131,17793 -2251,35770 -3557,53933 -1316,18162 -2066,36139 -2436,54117 -1871,56553 -2621,112922 -2436,168910 185,55988 1501,112356 4122,168910l-2817 15911c-15911,4872 -31452,9744 -46809,14606 -15356,4872 -30898,9744 -46624,14606 -8243,2817 -16672,5242 -25286,7308 -8613,2056 -17042,936 -25275,-3001 -6188,-2621 -10494,-6928 -12920,-12920 -2632,-5993 -3937,-12540 -4307,-19664 -380,-7112 -195,-14410 370,-21718 750,-7298 1120,-13671 1501,-19283 370,-15922 935,-31844 2055,-47570 936,-15727 1686,-31648 2437,-47560 565,-15921 935,-31833 935,-47755 0,-15921 -565,-31833 -1871,-47939 -2621,-32584 -4492,-64982 -5427,-97185 -946,-32214 -1501,-64612 -2066,-97566 -370,-33334 -750,-66287 -1120,-98686 -381,-32583 -566,-65537 -751,-98871z"/>
  <path class="fil1" d="M4122 685939c-2817,-10484 -4122,-20969 -3752,-31268 380,-10299 565,-20979 565,-31843 0,-8614 0,-17413 185,-26396 185,-8994 566,-17978 936,-26591 750,-18358 1685,-36520 3001,-54683 1306,-17977 2056,-36140 2436,-54682 0,-8614 -195,-18163 -750,-28647 -566,-10484 1120,-19848 5057,-28277 4677,-10114 11605,-16672 20783,-19663 9179,-3001 18348,-5427 27712,-7308 18162,-4112 35770,-8048 52997,-11605 17227,-3556 35204,-7113 53747,-10864 5993,-1121 12920,-2992 20784,-5428 8048,-2436 16106,-4306 24535,-5437 8233,-1120 16096,-1120 23590,-185 7493,935 13670,3752 18912,8809l0 -18728c0,-4872 -370,-10495 -1120,-17227 -750,-6558 -935,-13116 -750,-19859 185,-6732 1120,-12920 2806,-18347 1685,-5427 4687,-9734 9179,-12735 5242,-2991 11049,-4862 17042,-5808 5992,-935 12355,-1490 18913,-1490 6362,0 12735,370 19097,1120 6178,750 11985,1316 17227,1686 11420,750 22470,565 33149,-565 10855,-1121 21719,-1686 32769,-1686 9364,0 16106,3556 20033,10864 3937,7309 6373,15922 7123,25841 555,9734 370,20044 -750,30713 -1316,10484 -2066,19283 -2251,26221 -2436,36510 -4492,73780 -6178,111606 -1685,34639 -3937,69093 -6743,102992 -2806,33889 -4121,68159 -3741,102808 0,11420 3741,20599 11235,27896 7493,7309 16661,10865 27711,10485l32398 0 0 129213 -47189 0c-12920,-370 -24155,-185 -34269,751 -9930,935 -19293,935 -27907,-185 -8418,-1131 -16847,-3752 -24710,-7874 -8058,-4307 -15922,-11975 -23785,-23219 -5242,-7679 -9929,-15912 -14051,-25091 -3926,-8983 -8233,-17792 -12540,-26025 -6928,-13301 -11615,-27157 -13486,-41948 -11985,0 -23784,-185 -35389,-565 -11615,-370 -23405,-555 -35390,-555 -18172,2056 -36335,2621 -54312,1871 -18163,-936 -36325,0 -54118,2806 -10854,3186 -21534,4121 -32398,3001 -10854,-1131 -21719,-2251 -32584,-3371 -9919,-1881 -17782,-4873 -23404,-9179 -5808,-4122 -9919,-11235 -12355,-21349zm73595 -608407c370,-4687 1686,-9744 3927,-14986 2436,-5427 5242,-10484 8428,-15727 3187,-5057 6558,-10114 10114,-14791 3372,-4687 6548,-9178 9364,-13115 2426,-3742 5058,-7483 7864,-11235 2806,-3926 6547,-6177 11800,-6928 5046,-370 9733,381 14410,2251 4502,1871 8429,4122 11615,7113l0 566 0 -566c8984,6558 17978,12921 27342,18913 9178,5993 18532,12170 27711,18358 4492,2991 9364,7298 14606,12920 5057,5612 8799,11420 11050,17227l0 -565c0,-3937 935,-8429 2806,-13105 -370,-381 -751,-751 -936,-1131 -185,-370 -370,-740 -750,-1120 750,-1306 2436,-4677 5242,-9549 2816,-4872 5623,-10115 8429,-15357 2816,-5242 5242,-10114 7308,-14606 1871,-4307 2436,-6928 1305,-7678 -1305,-1120 -1490,-2251 -750,-3741 945,-1501 2066,-2817 3567,-4122 1490,-1316 3176,-2436 5242,-3557l4121 -2251c2992,-750 5983,-565 8984,381 2991,935 5622,2240 8048,4111 -740,-370 -1305,-935 -2055,-1686l-1501 -1685c750,380 1871,1500 3556,3371 381,565 381,935 196,750 -196,-185 -196,-370 -196,-750 6743,6188 13116,12365 19108,18543 5993,6177 12355,12550 19098,18728 2251,2055 5057,4872 8244,7863 3176,3186 6177,6362 8798,9929 2621,3557 4492,7113 5612,11039 936,3752 381,7874 -1490,12366 -3752,8233 -7873,16857 -12365,25470 -4492,8614 -9179,16292 -13856,23220 -1686,2991 -3937,4862 -6558,5612 -2621,565 -5427,750 -8233,185 -2806,-555 -5807,-1490 -8614,-2806 -2816,-1120 -5437,-2436 -7678,-3556 -7863,-4307 -14986,-9364 -21729,-15357 -6732,-5807 -14041,-11419 -21904,-17042 -3186,-1686 -6177,-5057 -8798,-9734 370,2436 0,5057 -1131,7678 -1490,4307 -2991,9364 -4492,14976 -1501,5808 -3371,11235 -5807,16858 -2436,5427 -5057,10484 -8049,15356 -3001,4677 -6362,8798 -10114,11985 -2436,2621 -6362,4492 -11234,5427 -5058,1120 -10300,1686 -15727,1686 -5242,0 -10494,-370 -15541,-1121 -5253,-750 -9364,-1500 -12550,-2621 -10670,-3751 -20784,-8613 -30333,-14801 -9559,-6363 -18913,-12540 -28092,-18718 -9549,-5807 -14791,-12920 -16106,-21163 -1306,-8244 -1686,-17412 -1306,-27712zm62536 575073c0,5427 -5612,7678 -16662,6928 -11235,-750 -13856,-1121 -7678,-750 19663,750 38761,1500 57489,2066 18727,555 37640,1500 56553,2806 11800,1500 21349,2621 28647,3186 7123,750 14606,2241 22099,4307 -2241,-18543 -4677,-37075 -7298,-55053 -2621,-18173 -4872,-36335 -6743,-54683 -2621,-21163 -5242,-42132 -7678,-63111 -2436,-20783 -4122,-41752 -5242,-63101 -750,751 -1501,1491 -2436,2056 -935,565 -2056,1120 -3186,1871 -10300,5807 -21534,11234 -33519,15921 -12170,4677 -23785,9549 -34825,14226 -16291,6188 -26786,14986 -31093,26406 -4491,11235 -6927,24905 -7297,40642 -751,11605 -751,23220 -185,34824 555,11430 935,23035 1305,34835 0,8048 -370,15726 -1120,23219 -751,7494 -1131,15357 -1131,23405zm10114 -646428c750,381 2251,1686 4872,3937 -380,-370 -1120,-935 -2251,-1870 -935,-936 -1871,-1686 -2621,-2067z"/>
  <path id="1" class="fil1" d="M496060 755413c0,-2992 -185,-5993 -380,-8799 -185,-2816 0,-5622 380,-8244l0 -30712 7113 0c3187,-1491 6743,-1871 10300,-1306 3741,555 7493,1121 11614,1871 3927,750 7679,935 11235,750 3371,-185 6363,-1685 8984,-4687 3751,-3926 5992,-8613 7113,-13855 1130,-5428 1500,-10855 1315,-16847 -185,-5808 -565,-11615 -1501,-17227 -935,-5623 -1685,-10865 -2055,-15552 -936,-7678 -2251,-15346 -3557,-23024 -1130,-7678 -2251,-15357 -3001,-23035 -1686,-19848 -3176,-39511 -4307,-58989 -1120,-19663 -4307,-39142 -9364,-58424 -2621,-9179 -4492,-18543 -5992,-28092 -1491,-9549 -2621,-19098 -3372,-29027 -740,-7678 -1870,-15912 -3741,-24720 -1871,-8799 -1871,-17032 0,-24710 1871,-10115 6743,-17608 14791,-21915 8058,-4306 16857,-6177 26221,-5427 9179,751 18347,370 27711,-935 9364,-1316 18728,-2251 28092,-3002 6928,-750 15171,-1870 25090,-3556 9745,-1686 19098,-2251 28092,-1871 8984,370 16662,2806 23220,7113 6362,4307 9549,12355 9549,24155l0 -555 0 555c380,18913 1685,37641 3556,55618 2066,18163 2251,36705 380,55803 -1500,17042 -1870,34084 -1130,50942 750,16846 1500,33888 2251,50930 370,10300 185,20219 -370,29778 -566,9364 -1131,18913 -1881,28462 -740,9919 -936,19848 -740,29582 185,9929 -751,19663 -2437,29212l-1685 6558c7298,3556 14976,5427 22839,5427l25286 0 0 129213 -24536 0c-14421,-750 -26591,-5807 -36510,-15171 -9744,-9169 -17607,-20403 -23599,-33139 -751,1871 -1686,3557 -2622,5058 -1120,1490 -2055,3176 -2806,5046 -5057,9179 -11985,17042 -20978,23785 -8984,6743 -18163,10485 -27527,11615 -4307,751 -8428,751 -12540,0 -3937,-750 -8058,-1130 -12365,-1130 -5057,380 -9919,750 -14606,1130 -4677,370 -9549,751 -14606,1121 -6178,750 -12735,1685 -19478,2806 -6733,1130 -13291,750 -19468,-1121l-1131 0 -16847 0 0 -81458zm10300 277895c-1131,-4873 -1686,-10115 -1871,-15922 -195,-5612 0,-11420 555,-17412 565,-6178 750,-11800 750,-17042 0,-4862 185,-10670 381,-17042 185,-6363 555,-12355 1305,-18163 750,-5612 1871,-10669 3556,-14976 1686,-4307 4307,-7678 8059,-9929 6177,-3372 13290,-4492 21349,-3372 7863,1131 14976,1686 21338,1686 5438,-370 11245,750 17423,3186 5992,2437 11049,7298 14606,14977 1871,3001 3926,4872 6362,5437 2621,555 5242,1305 8244,2436 6362,2991 12540,4492 18532,4492 5808,0 11985,-2251 18543,-6743 3937,-2621 9549,-7678 16857,-15356 7298,-7679 14976,-14606 22839,-20414 7864,-5992 15542,-9734 22850,-11235 7298,-1685 12735,2067 15911,11235 3372,9179 5623,19663 7124,31648 1500,11800 3186,23220 5057,34269 2436,13106 2991,24721 1305,34455 -1686,9929 -6743,17607 -15161,23219 -6188,3752 -12735,8809 -19478,14802 -6743,5992 -13486,9363 -20229,10104 -7297,380 -14225,-1306 -20968,-5243 -6928,-3741 -13301,-7863 -19478,-12355 -7113,-4491 -13486,-9929 -19283,-16291 -5808,-6558 -11050,-14421 -16107,-23785 -380,-751 -1120,-2241 -2251,-4307 -935,-2056 -2241,-3927 -3371,-5612 -1306,-1686 -2621,-3187 -3742,-4122 -1315,-935 -2251,-565 -3001,935 -1871,3372 -2991,8984 -3176,16662 -381,7863 -936,14051 -1686,19108 -750,4492 -2816,8048 -5992,10485 -3187,2436 -6928,4121 -10865,5242 -3937,1120 -7863,2055 -11800,2621 -3741,565 -6743,1120 -8984,1500 -2806,1121 -6177,2436 -9548,3927 -3557,1501 -6928,2621 -10495,3371 -3361,751 -6928,936 -10299,751 -3557,-185 -6733,-1686 -9549,-4677 -2621,-3372 -4492,-7678 -5612,-12550zm82013 -8984c0,-380 196,-750 566,-946 380,-185 565,-370 565,-740l1120 -2816 0 565c0,751 -185,1501 -750,2436 -555,936 -935,1686 -935,2056l-566 -555zm111422 -642871l0 -565 0 565zm0 -2621l0 -566 0 566zm0 -5623l0 -2055 0 2055zm0 -3741l0 -2251 0 2251zm0 -2251l0 -555 0 555zm0 -555l0 -566 0 566z"/>
  <path id="2" class="fil1" d="M735934 836871l0 -129213 29213 0 2621 565 1120 0c4122,0 8428,370 13301,1120 4676,751 9549,1501 14421,2066 4861,556 9549,751 13855,370 4492,-185 8429,-935 11985,-2436 4122,-1870 6928,-5057 8429,-9733 1305,-4492 1871,-9364 1686,-14792 -196,-5242 -566,-10494 -1316,-15921 -751,-5242 -1306,-9549 -1501,-12736 -1490,-9919 -2426,-19848 -2426,-29962 -195,-10104 -750,-20033 -1685,-29962 -1501,-17227 -3002,-34270 -4307,-51301 -1501,-17042 -3372,-34085 -5438,-51312 -2055,-18912 -4121,-37825 -6177,-56738 -2056,-18728 -3186,-37826 -3186,-57304 0,-19478 -1686,-38576 -5058,-57674 -3361,-18912 -6177,-38206 -8613,-57488 -2426,-17238 -4862,-34085 -7298,-50757 -2251,-16661 -4687,-33518 -7113,-50746 -380,-5242 -380,-10114 0,-15161 370,-4872 1686,-9559 3927,-13670 2251,-4122 5242,-7494 9364,-9930 4121,-2251 9178,-3556 15541,-3556l28092 0c9178,0 18542,185 27711,565 10495,370 21164,740 31833,936 10495,185 20979,-196 31093,-936 8418,-380 17227,-945 26396,-1881 9179,-935 17607,0 25285,3002 4492,2240 7864,5242 9919,8983 2066,3937 3372,8059 3752,12736 370,4491 370,9363 0,14236 -380,4861 -565,9549 -565,14040 380,8994 185,18358 -185,27712 -566,9179 -1316,18727 -2436,28091 -1306,17608 -2241,35205 -2436,52812 -185,17412 -555,35205 -1306,53182 -935,38391 -2436,76587 -4121,114598 -1686,38020 -3742,76216 -5808,114607 -1120,17608 -2241,35020 -3371,52247 -1306,17227 -2621,34454 -3927,52061 -750,4492 -1130,8614 -1130,12725 0,3937 -185,8059 -555,12551 4676,4306 10114,8048 16106,10864 5982,2991 11975,4307 18163,3927l21349 0 0 129213 -21349 0c-8244,-370 -15922,-2436 -22850,-6177 -6928,-3937 -13105,-8799 -18543,-14987 -5612,-5992 -10299,-12735 -14225,-20403 -4122,-7493 -7309,-15551 -9930,-23970 -1305,2426 -2621,4307 -3741,5797 -2621,3752 -4872,7124 -6558,9930 -1871,2806 -3741,5427 -5427,7678 -1871,2241 -3937,4492 -5992,6928 -2252,2251 -5058,4492 -8614,6743 -13301,8798 -24340,15356 -32964,19663 -8798,4306 -17597,7298 -26776,8983 -9168,1686 -20033,2436 -32203,2066 -12365,-380 -28842,-1130 -49626,-2251l-26406 0z"/>
  <path id="3" class="fil1" d="M1025999 755413c0,-2992 -185,-5993 -380,-8799 -185,-2816 0,-5622 380,-8244l0 -30712 7113 0c3187,-1491 6743,-1871 10300,-1306 3741,555 7493,1121 11614,1871 3927,750 7679,935 11235,750 3371,-185 6363,-1685 8984,-4687 3751,-3926 5992,-8613 7113,-13855 1130,-5428 1500,-10855 1315,-16847 -185,-5808 -565,-11615 -1501,-17227 -935,-5623 -1685,-10865 -2055,-15552 -936,-7678 -2251,-15346 -3557,-23024 -1130,-7678 -2251,-15357 -3001,-23035 -1686,-19848 -3176,-39511 -4307,-58989 -1120,-19663 -4307,-39142 -9364,-58424 -2621,-9179 -4492,-18543 -5992,-28092 -1491,-9549 -2621,-19098 -3372,-29027 -740,-7678 -1870,-15912 -3741,-24720 -1871,-8799 -1871,-17032 0,-24710 1871,-10115 6743,-17608 14791,-21915 8058,-4306 16857,-6177 26221,-5427 9179,751 18347,370 27711,-935 9364,-1316 18728,-2251 28092,-3002 6928,-750 15171,-1870 25090,-3556 9745,-1686 19098,-2251 28092,-1871 8984,370 16662,2806 23220,7113 6362,4307 9549,12355 9549,24155l0 -555 0 555c380,18913 1685,37641 3556,55618 2066,18163 2251,36705 380,55803 -1500,17042 -1870,34084 -1130,50942 750,16846 1500,33888 2251,50930 370,10300 185,20219 -370,29778 -566,9364 -1131,18913 -1881,28462 -740,9919 -936,19848 -740,29582 185,9929 -751,19663 -2437,29212l-1685 6558c7298,3556 14976,5427 22839,5427l25286 0 0 129213 -24536 0c-14421,-750 -26591,-5807 -36510,-15171 -9744,-9169 -17607,-20403 -23599,-33139 -751,1871 -1686,3557 -2622,5058 -1120,1490 -2055,3176 -2806,5046 -5057,9179 -11985,17042 -20978,23785 -8984,6743 -18163,10485 -27527,11615 -4307,751 -8428,751 -12540,0 -3937,-750 -8058,-1130 -12365,-1130 -5057,380 -9919,750 -14606,1130 -4677,370 -9549,751 -14606,1121 -6178,750 -12735,1685 -19478,2806 -6733,1130 -13291,750 -19468,-1121l-1131 0 -16847 0 0 -81458zm10300 277895c-1131,-4873 -1686,-10115 -1871,-15922 -195,-5612 0,-11420 555,-17412 565,-6178 750,-11800 750,-17042 0,-4862 185,-10670 381,-17042 185,-6363 555,-12355 1305,-18163 750,-5612 1871,-10669 3556,-14976 1686,-4307 4307,-7678 8059,-9929 6177,-3372 13290,-4492 21349,-3372 7863,1131 14976,1686 21338,1686 5438,-370 11245,750 17423,3186 5992,2437 11049,7298 14606,14977 1871,3001 3926,4872 6362,5437 2621,555 5242,1305 8244,2436 6362,2991 12540,4492 18532,4492 5808,0 11985,-2251 18543,-6743 3937,-2621 9549,-7678 16857,-15356 7298,-7679 14976,-14606 22839,-20414 7864,-5992 15542,-9734 22850,-11235 7298,-1685 12735,2067 15911,11235 3372,9179 5623,19663 7124,31648 1500,11800 3186,23220 5057,34269 2436,13106 2991,24721 1305,34455 -1686,9929 -6743,17607 -15161,23219 -6188,3752 -12735,8809 -19478,14802 -6743,5992 -13486,9363 -20229,10104 -7297,380 -14225,-1306 -20968,-5243 -6928,-3741 -13301,-7863 -19478,-12355 -7113,-4491 -13486,-9929 -19283,-16291 -5808,-6558 -11050,-14421 -16107,-23785 -380,-751 -1120,-2241 -2251,-4307 -935,-2056 -2241,-3927 -3371,-5612 -1306,-1686 -2621,-3187 -3742,-4122 -1315,-935 -2251,-565 -3001,935 -1871,3372 -2991,8984 -3176,16662 -381,7863 -936,14051 -1686,19108 -750,4492 -2816,8048 -5992,10485 -3187,2436 -6928,4121 -10865,5242 -3937,1120 -7863,2055 -11800,2621 -3741,565 -6743,1120 -8984,1500 -2806,1121 -6177,2436 -9548,3927 -3557,1501 -6928,2621 -10495,3371 -3361,751 -6928,936 -10299,751 -3557,-185 -6733,-1686 -9549,-4677 -2621,-3372 -4492,-7678 -5612,-12550zm82013 -8984c0,-380 196,-750 566,-946 380,-185 565,-370 565,-740l1120 -2816 0 565c0,751 -185,1501 -750,2436 -555,936 -935,1686 -935,2056l-566 -555zm111422 -642871l0 -565 0 565zm0 -2621l0 -566 0 566zm0 -5623l0 -2055 0 2055zm0 -3741l0 -2251 0 2251zm0 -2251l0 -555 0 555zm0 -555l0 -566 0 566z"/>
  <path id="4" class="fil1" d="M1265873 836871l0 -129213 29213 0 2621 565 1120 0c4122,0 8428,370 13301,1120 4676,751 9549,1501 14421,2066 4861,556 9549,751 13855,370 4492,-185 8429,-935 11985,-2436 4122,-1870 6928,-5057 8429,-9733 1305,-4492 1871,-9364 1686,-14792 -196,-5242 -566,-10494 -1316,-15921 -751,-5242 -1306,-9549 -1501,-12736 -1490,-9919 -2426,-19848 -2426,-29962 -195,-10104 -750,-20033 -1685,-29962 -1501,-17227 -3002,-34270 -4307,-51301 -1501,-17042 -3372,-34085 -5438,-51312 -2055,-18912 -4121,-37825 -6177,-56738 -2056,-18728 -3186,-37826 -3186,-57304 0,-19478 -1686,-38576 -5058,-57674 -3361,-18912 -6177,-38206 -8613,-57488 -2426,-17238 -4862,-34085 -7298,-50757 -2251,-16661 -4687,-33518 -7113,-50746 -380,-5242 -380,-10114 0,-15161 370,-4872 1686,-9559 3927,-13670 2251,-4122 5242,-7494 9364,-9930 4121,-2251 9178,-3556 15541,-3556l28092 0c9178,0 18542,185 27711,565 10495,370 21164,740 31833,936 10495,185 20979,-196 31093,-936 8418,-380 17227,-945 26396,-1881 9179,-935 17607,0 25285,3002 4492,2240 7864,5242 9919,8983 2066,3937 3372,8059 3752,12736 370,4491 370,9363 0,14236 -380,4861 -565,9549 -565,14040 380,8994 185,18358 -185,27712 -566,9179 -1316,18727 -2436,28091 -1306,17608 -2241,35205 -2436,52812 -185,17412 -555,35205 -1306,53182 -935,38391 -2436,76587 -4121,114598 -1686,38020 -3742,76216 -5808,114607 -1120,17608 -2241,35020 -3371,52247 -1306,17227 -2621,34454 -3927,52061 -750,4492 -1130,8614 -1130,12725 0,3937 -185,8059 -556,12551 4677,4306 10115,8048 16107,10864 5982,2991 11975,4307 18163,3927l21349 0 0 129213 -21349 0c-8244,-370 -15922,-2436 -22850,-6177 -6928,-3937 -13105,-8799 -18543,-14987 -5612,-5992 -10299,-12735 -14225,-20403 -4122,-7493 -7309,-15551 -9930,-23970 -1305,2426 -2621,4307 -3741,5797 -2621,3752 -4872,7124 -6558,9930 -1871,2806 -3741,5427 -5427,7678 -1871,2241 -3937,4492 -5992,6928 -2252,2251 -5058,4492 -8614,6743 -13301,8798 -24340,15356 -32964,19663 -8798,4306 -17597,7298 -26776,8983 -9168,1686 -20033,2436 -32203,2066 -12365,-380 -28842,-1130 -49626,-2251l-26406 0z"/>
  <path id="5" class="fil1" d="M1551447 836871l0 -129213 32953 0 0 -555 15356 0 3372 1120 555 0c3937,0 6743,185 8243,370 1316,195 2437,195 3187,195 555,0 1305,-195 2241,-750 935,-565 2621,-1686 5252,-3186 3556,-1686 6178,-4677 7863,-8984 1491,-4122 2436,-8613 2436,-13116 0,-4676 -565,-9363 -1685,-14225 -1131,-5057 -1881,-9179 -2251,-12366 -1686,-10299 -2807,-20403 -3002,-30517 -185,-10114 -555,-19848 -1305,-29407l-3937 -51497c-1305,-17227 -2806,-34454 -4307,-51681 -1870,-18913 -3741,-37826 -5427,-56738 -1871,-18728 -3001,-37641 -3186,-56739 0,-19293 -1306,-38576 -3927,-57674 -2436,-18912 -4687,-38206 -6558,-57488 -1305,-17238 -2991,-34085 -4872,-50757 -1870,-16661 -3741,-33518 -5427,-50746 -750,-5427 -935,-10669 -370,-15726 555,-4872 1871,-9364 4112,-13301 2251,-4111 5252,-7483 8993,-9919 3927,-2621 8429,-3936 13486,-3936 8799,380 17597,565 26396,565l26786 0c9919,370 19848,750 29963,935 10299,185 20218,-185 30147,-935 8048,-380 16477,-935 25460,-1686 8994,-565 17227,370 24721,3372 4687,2240 8058,5242 10299,8983 2066,3937 3556,8059 4122,12366 565,4491 565,9168 185,14225 -370,5242 -555,9930 -555,14421 0,8994 -196,18358 -751,27712 -565,9179 -1315,18542 -1870,27536 -1881,17597 -2817,35205 -2817,52987 0,17792 -370,35585 -1120,53562 -1121,38011 -2621,76022 -4492,114043 -2066,38010 -3752,76401 -5622,115162 -1121,17227 -2241,34639 -3557,51866 -1316,17423 -2621,34835 -4122,52442 -935,10670 -1870,20784 -2621,30518 -750,9744 -2806,20043 -5992,30528 -2806,9178 -6928,17597 -11985,25090 -5057,7678 -10299,15171 -15727,22849 -5057,7679 -10299,15357 -15736,23035 -5427,7863 -11790,14411 -19098,19653 -8984,5437 -17978,8624 -27146,9744 -8994,1120 -18358,1501 -28277,1120 -2066,0 -2816,0 -2066,0 750,0 1686,0 3001,185 1306,196 1871,381 2056,381 185,185 -935,185 -3371,185l-21164 2056 -21154 3371 -14421 0 -1500 565 -29767 0z"/>
  <path id="6" class="fil1" d="M1875215 226779c0,-16857 3937,-29212 11800,-37086 8049,-7863 17597,-13105 29212,-15911 11420,-2621 23775,-3741 36706,-3001 13105,750 24710,1130 34824,1130 3752,0 9179,0 16292,-195 7308,-185 14421,0 21719,750 7123,751 13300,2066 18542,4122 5242,2066 7678,5242 7308,9549 -1130,15737 -1315,31463 -750,47004 555,15542 750,31083 750,46820 370,17977 0,35955 -945,54117 -936,18163 -2056,36140 -3176,54118 -1131,17792 -2251,35770 -3557,53932 -1315,18163 -2066,36140 -2436,54117 -1871,56554 -2621,112922 -2436,168910 185,55988 1501,112357 4122,168910l-2816 15912c-15912,4872 -31453,9744 -46810,14606 -15356,4872 -30897,9744 -46624,14606 -8243,2816 -16672,5242 -25285,7308 -8614,2056 -17043,935 -25276,-3002 -6188,-2621 -10494,-6927 -12920,-12920 -2631,-5992 -3937,-12540 -4307,-19663 -380,-7113 -195,-14411 370,-21719 751,-7298 1121,-13671 1501,-19283 370,-15921 935,-31843 2056,-47570 935,-15726 1685,-31648 2436,-47559 565,-15922 935,-31833 935,-47755 0,-15922 -565,-31833 -1871,-47940 -2621,-32583 -4492,-64982 -5427,-97185 -946,-32213 -1501,-64612 -2066,-97565 -370,-33334 -750,-66288 -1120,-98686 -381,-32584 -566,-65537 -751,-98871z"/>
  <path id="7" class="fil1" d="M2326892 776011c-4306,-23405 -5242,-47004 -2436,-70779 2621,-23785 8429,-46820 17227,-69104 4492,-10299 9549,-20228 15357,-29777 5807,-9364 10864,-19283 14791,-29582 3752,-8429 7123,-16107 10114,-23220 3186,-7123 6743,-14801 10865,-22849 2436,-3937 4872,-8799 7298,-14421 2436,-5808 5437,-10670 8993,-14606 1501,-1121 3742,-1501 6363,-1121 2816,370 5622,1501 8613,3372 -2621,-4873 -5612,-9745 -8798,-14606 -3372,-4873 -6743,-9930 -10484,-15172 -5438,-7678 -11050,-15171 -16672,-22654 -5798,-7493 -11050,-15541 -16292,-23970 -2426,-4307 -2426,-7863 0,-10680 2621,-2621 5622,-5427 9364,-8428 2621,-2621 5057,-4677 7678,-6548l7678 -5622c7308,-5057 13856,-10854 19478,-17227 5612,-6363 11420,-12921 17227,-19478 6363,-7298 12736,-14041 19478,-20219 6743,-6177 13856,-12735 21154,-19293 1881,-2240 4502,-4861 7678,-8233 3372,-3186 6928,-6177 10680,-8798 3926,-2437 7678,-3937 11234,-4122 3742,-185 6743,2241 9364,6928l0 -566 0 566c13856,23785 27897,47744 41948,72094 14040,24340 25840,49246 35389,74901 6558,16107 13671,31833 20969,47005 7308,15171 13671,30713 19108,46819 5797,17597 11985,35205 18347,52617 6363,17597 12551,35390 18348,53367 3752,10114 8243,20784 13866,32018 5427,11245 10484,22480 15356,33714 4677,11420 8233,22840 10670,34269 2436,11605 2055,23220 -936,34825 -3186,12550 -8243,22849 -14791,31278 -6558,8428 -14421,15356 -23600,20598 -9179,5427 -19283,9179 -30332,11235 -11235,2251 -22469,3371 -33714,3371 -20599,370 -40252,1306 -59360,2991 -18913,1686 -38761,1131 -59174,-1305 -14976,-1871 -29963,-2806 -45124,-2806 -14986,0 -30158,-750 -45504,-2251 -3566,-370 -8058,-750 -13115,-1120 -5057,-381 -10115,-1131 -14791,-2436 -4677,-1316 -9364,-3002 -13671,-5438 -4492,-2426 -7678,-5427 -9919,-8983 -4687,-7113 -8243,-15922 -10494,-26962 -2056,-11049 -3927,-20793 -5428,-29592zm26406 -620021c0,-4307 751,-8799 2621,-13106 1871,-4307 4122,-8428 6928,-12365 2806,-3927 5808,-7483 8984,-10669 3371,-3372 6188,-6558 8809,-9930 5057,-6547 9734,-13290 13670,-20033 4112,-6743 8419,-13670 13291,-20598l15921 -11985c5798,7308 11050,14791 15912,22284 4687,7493 9929,14791 15922,22099 5807,7298 12170,14791 19467,22284 7124,7494 12181,15912 15552,25471 740,-380 1305,-565 1686,-565 370,0 935,-185 1686,-566 3926,-3186 7667,-6547 11234,-9919 3372,-3186 6928,-6742 10669,-10299 7679,-6558 14791,-13485 21349,-20598 6558,-7123 13291,-14421 20229,-21730 5992,-5807 12540,-10484 20033,-14225 7493,-3557 15171,-3372 22850,555 3741,1881 7112,4502 10484,8243 3176,3742 6362,7679 9549,11985 3186,4492 5992,8984 8798,13486 2621,4677 5057,8614 6743,11790 5993,7678 7493,16106 4677,24905 -2621,8994 -7113,17792 -13290,26406 -6363,8613 -13106,16672 -20599,24350 -7493,7678 -13301,13856 -17412,18163 -7308,9168 -14606,13855 -22099,14225 -7493,381 -14791,-1490 -21914,-5992 -7298,-4307 -14226,-10104 -20969,-17227 -6743,-7113 -13105,-13671 -18913,-19468l-3752 -3372c-370,-750 751,370 3752,3372 1501,1120 2806,2241 3927,3176 1130,1131 1500,1871 1500,2251l-5427 -5427c-750,-750 -2251,-2621 -4307,-5623l-7678 -9178c-750,7678 -3186,14606 -7113,20978 -4121,6548 -8058,12921 -12180,19664 -2621,4306 -5057,8613 -7678,12735 -2621,4307 -5427,8048 -8418,11234 -3187,3372 -6558,5993 -10115,8049 -3751,2055 -8058,2621 -13300,1870 -5057,-750 -9919,-2621 -14421,-5807 -4677,-2991 -9169,-6548 -13476,-10299 -4491,-3927 -8613,-8049 -12365,-12725 -3926,-4502 -7678,-8429 -11235,-11800 -6547,-5808 -13105,-12170 -19467,-19098 -6373,-6928 -9745,-15922 -10115,-26971zm36706 551863c-2632,12170 -1686,22284 2425,30332 4307,8049 10300,14236 18358,18913 8048,4492 17412,7493 27711,8799 10485,1131 20599,1131 30528,-370 4677,-751 9919,-1686 15542,-3002 5807,-1305 11234,-2991 16476,-5242 5243,-2240 10300,-4862 15172,-7863 4677,-3186 8613,-6743 11419,-10669 5993,-8429 8049,-17608 6558,-27157 -1315,-9733 -3752,-18727 -7123,-26776 -4307,-10494 -9919,-20228 -16662,-29027 -6743,-8798 -12920,-18162 -18347,-27906 -381,-370 -1131,-1871 -2251,-4492 -1121,-2436 -2251,-5242 -3557,-8244 -1315,-2806 -2436,-5427 -3186,-7863 -935,-2436 -1305,-3556 -935,-3556 1500,380 2251,0 2436,-1121 185,-1120 0,-2251 -566,-3556 -565,-1316 -1120,-2621 -1870,-4122l-1686 -3371c-1121,-2436 -2251,-4872 -3557,-7308 -1315,-2426 -2621,-4677 -4121,-6928 -2806,2251 -5612,4502 -8244,6558 -2426,2251 -5242,4491 -8233,6742 -17042,14606 -31463,32399 -43068,53367 -11430,20979 -19293,42318 -23219,63862zm125081 -397745l0 -380 0 380zm2251 2241l565 0c0,380 0,751 0,1131 0,-380 0,-751 0,-1131l-565 0zm565 1131l370 555c-370,0 -370,-185 -370,-555zm936 1686l0 -566 0 566zm555 555c0,750 195,1130 565,1130 -370,0 -565,-380 -565,-1130z"/>
  <path id="8" class="fil1" d="M2757405 689876c-1685,-11235 185,-19294 5798,-24166 5807,-4861 13115,-8048 22284,-9549 4872,-750 9929,-1490 15356,-2436 5623,-935 10865,-2055 15737,-3556 5057,-1490 9734,-3741 13856,-6363 4306,-2806 7678,-6557 10299,-10864 2436,-4122 4307,-8614 5242,-13671 935,-5057 1501,-9919 1686,-14976 185,-5057 0,-9929 -381,-14986 -370,-5057 -740,-9734 -1120,-14041 -1501,-20783 -3371,-41012 -5612,-60860 -2251,-19848 -3187,-40077 -2816,-60860 750,-10300 1315,-20599 1685,-31083 381,-10299 566,-20784 566,-31278 0,-9169 750,-16847 2436,-23220 1685,-6362 6927,-11789 16106,-16662 8799,-4306 18348,-6372 28832,-6177 10299,185 20414,185 29777,185 19098,0 38011,565 56924,1686 6558,370 15541,750 26786,1120 11235,380 22469,1686 33519,3752 11235,2241 20784,5797 29017,10669 8243,4872 12365,12355 12365,22099l0 555 0 -555c0,8048 185,16662 565,26211 370,9364 -945,17977 -3936,25656 -1686,4491 -4307,7493 -7678,8993 -3187,1686 -6743,2622 -10670,2622 -3752,0 -7873,-381 -12180,-936 -4492,-565 -8233,-1130 -11605,-1881 -8994,-1871 -17977,-2991 -26776,-3176 -8613,-185 -17792,-380 -27156,-750 -4872,0 -9734,-185 -14791,-566 -5057,-370 -10299,-1500 -15356,-3371 -1501,-555 -3002,-1686 -4307,-2806 -1501,-1316 -3002,-1121 -4492,750 -2816,2621 -4872,5808 -6188,9734 -1305,3937 -2241,8059 -2991,12550 -750,4307 -1316,8799 -1501,12921 -185,4307 -185,8048 -185,11419 -750,9179 -1315,18358 -1685,27527 -381,8994 -185,18173 565,27341 370,18543 370,36890 0,55053 -380,8243 0,15356 1120,21349 1121,6187 4872,12180 11420,18162 6558,5808 14236,9744 23035,11615 8798,1871 17607,2806 26776,2806 8993,0 18357,-185 27526,-750 9364,-555 18173,-370 26591,750 9364,1131 16292,4687 20413,10680 4122,5807 6928,12920 7864,20783 1130,8049 1130,16292 0,24906 -936,8798 -1686,16106 -2056,22284 -750,8983 -1316,17977 -1686,26961 -380,8809 0,17422 1121,25655 1130,8429 380,14421 -1871,18358 -2436,3742 -8244,4677 -17227,2436 -9549,-1881 -18543,-3751 -27157,-5437 -8613,-1871 -17412,-2806 -26395,-2806 -7678,0 -15357,370 -23035,1315 -7678,936 -15171,1871 -22849,2622 -20414,1685 -40447,2806 -60110,3176 -19663,380 -39697,2251 -59925,5437 -4307,740 -9179,1871 -14606,3371 -5242,1491 -10669,2622 -16107,3362 -5612,565 -10854,565 -16096,0 -5057,-740 -9364,-2991 -13116,-6733 -2991,-2436 -4862,-5992 -5992,-10680 -1121,-4491 -1871,-9363 -2241,-14421 -380,-5057 -380,-10103 0,-15356 370,-5242 740,-9549 1120,-12725 1871,-20043 370,-39707 -4492,-59174zm318342 -300930l0 -565 0 565zm0 -935l0 -1131 0 1131zm0 -1686l0 -565 0 565z"/>
  <path id="9" class="fil1" d="M3133236 226779c0,-16857 3937,-29212 11800,-37086 8048,-7863 17597,-13105 29212,-15911 11420,-2621 23775,-3741 36705,-3001 13105,750 24710,1130 34824,1130 3752,0 9179,0 16292,-195 7308,-185 14421,0 21719,750 7123,751 13301,2066 18543,4122 5242,2066 7678,5242 7308,9549 -1131,15737 -1316,31463 -750,47004 555,15542 750,31083 750,46820 370,17977 0,35955 -946,54117 -935,18163 -2055,36140 -3176,54118 -1130,17792 -2251,35770 -3556,53932 -1316,18163 -2066,36140 -2436,54117 -1871,56554 -2621,112922 -2436,168910 185,55988 1500,112357 4121,168910l-2816 15912c-15911,4872 -31453,9744 -46809,14606 -15357,4872 -30898,9744 -46624,14606 -8244,2816 -16672,5242 -25286,7308 -8613,2056 -17042,935 -25275,-3002 -6188,-2621 -10495,-6927 -12921,-12920 -2631,-5992 -3936,-12540 -4306,-19663 -381,-7113 -196,-14411 370,-21719 750,-7298 1120,-13671 1500,-19283 370,-15921 936,-31843 2056,-47570 935,-15726 1686,-31648 2436,-47559 565,-15922 936,-31833 936,-47755 0,-15922 -566,-31833 -1871,-47940 -2621,-32583 -4492,-64982 -5427,-97185 -946,-32213 -1501,-64612 -2066,-97565 -370,-33334 -751,-66288 -1121,-98686 -380,-32584 -565,-65537 -750,-98871z"/>
  <path id="10" class="fil1" d="M3401767 937243c1501,750 3752,-370 7123,-2991 3372,-2817 5612,-4502 7113,-5253 4122,-1870 7863,-3371 11235,-4306 3556,-1121 7308,-2056 11234,-2807l34650 -9363c1490,0 2436,-185 3176,-556l11049 -3186c13486,-3752 26776,-8428 39512,-14051 12735,-5612 25470,-11790 37825,-18347 31463,-16477 56184,-38011 74346,-64787 18163,-26786 30898,-56749 38206,-90072 2426,-13116 2806,-26591 1121,-40262 -1871,-13671 -3557,-27537 -5058,-41392 -1685,-20033 -4121,-40262 -6742,-60295 -2807,-20229 -5243,-40447 -7494,-60860 -1305,-16107 -3361,-32399 -5612,-48691 -2436,-16291 -3556,-32388 -3556,-48494 0,-5438 -381,-11430 -1131,-17608 -740,-6177 -740,-11985 195,-17412 936,-5622 3177,-10114 6548,-13856 3556,-3556 9364,-5437 17227,-5437 17237,-370 34269,-1121 51496,-2426 17042,-1316 34465,-2066 51877,-2436 6558,0 14421,-185 23220,-380 8983,-185 17607,750 26025,2816 8429,2056 15357,5242 20794,9919 5427,4492 7863,11615 7113,21534 -1120,12170 -1686,24155 -1686,36335 0,11985 -750,24155 -2056,36140 -1881,20414 -4687,40817 -8243,61230 -3742,20229 -6928,40642 -9929,61045 -2056,16858 -4112,33715 -5993,50561 -1870,16857 -3926,33519 -6547,50376 5797,6928 12735,13106 20598,18163 7863,5057 15912,7678 24340,7678l27527 -565 0 119664 -28092 0c-11605,-370 -22469,-4306 -32203,-12170 -9930,-7678 -18163,-16672 -24721,-26776 -750,6548 -1685,13106 -2991,19468 -1315,6373 -3186,12920 -5807,19478 -8059,19283 -16857,38576 -26776,57489 -9929,19098 -20979,37260 -33334,54683 -12365,17412 -26036,33519 -40827,48495 -14791,14986 -31083,28657 -49060,40642 -13856,8798 -27907,17412 -42513,25840 -14411,8429 -28462,17412 -42502,27342 -8059,5427 -16857,10114 -26776,14040 -9930,3742 -20044,6928 -30158,9549 -4862,1501 -9919,2066 -15346,1871 -5623,-185 -10865,0 -15922,380l-1686 0c-8798,751 -15726,-1500 -20598,-6928 -4872,-5242 -8984,-11799 -11985,-19478 -3187,-7678 -5623,-15726 -7493,-24340 -1871,-8613 -3557,-16106 -4862,-22284 -3001,-10114 -5057,-20598 -6373,-31278 -1305,-10484 -3186,-20969 -5807,-31268 -370,-1870 -1121,-3001 -2426,-3751 -1316,-741 -2066,-2056 -2436,-3927 -751,-3186 -1501,-6373 -1871,-9549 -565,-3186 -1316,-5992 -2066,-8428 -370,-2251 -750,-5623 -1120,-10300 -381,-4491 -1501,-7308 -3752,-8428z"/>
  <path id="11" class="fil1" d="M3887148 836871l0 -124526 22099 0c11985,0 23035,750 32768,2241 9930,1315 16858,2621 20969,3751 5057,751 9929,1121 14236,1121l14236 0c7298,380 14606,380 21719,0 7113,-370 14236,-1306 21719,-2806 -9549,-7679 -18348,-15922 -26396,-24536 -7678,-7493 -15171,-15356 -22284,-23589 -7123,-8429 -13301,-17423 -18358,-26972 -3556,-6547 -6177,-14040 -7678,-22284 -1501,-8233 -2806,-16096 -3741,-23774 -4492,-20229 -6743,-40457 -6928,-60861 -185,-20598 185,-40827 1305,-61055 750,-16662 3371,-32388 7678,-46994 4492,-14802 10300,-29212 17608,-43448 6177,-13486 13670,-25841 22469,-36706 8798,-11049 20228,-20218 34084,-27526 16097,-8429 33519,-15541 52432,-21349 18728,-5807 37455,-8983 56173,-9364 16487,-370 33149,751 50006,3372 16661,2621 32768,6927 47940,13105 15161,6188 29397,14421 42502,24535 13105,9929 24340,22284 33519,36890 6558,10680 11419,21915 14421,33900 3186,11789 5622,23774 7493,35759 2806,17227 5427,34650 7298,52432 2066,17792 1316,35215 -2436,52442 -2621,13475 -7113,26776 -14041,40066 -6743,13116 -13485,25471 -20413,36705 -9549,14987 -19663,29593 -30518,43819 -10864,14421 -22284,27721 -34269,40076l-6558 6558c-2251,2241 -4492,4307 -6558,6178 6558,750 12921,1305 19479,1685 6372,185 12920,751 20033,1491 7308,380 14606,945 22099,1500 7493,566 14986,381 22284,-370 8429,-1500 17042,-2806 25841,-4121 8613,-1316 16487,-1871 23415,-1871l26395 0 0 124526 -64786 0 -936 -565c-7493,750 -14986,750 -22664,195 -7678,-380 -14976,-750 -21904,-750 -8799,0 -17607,185 -26591,555 -8994,380 -17607,-750 -26036,-3371 -17967,-5428 -36140,-11605 -54487,-18533 -18543,-6928 -36140,-15541 -52997,-25841 -2241,1871 -4492,3372 -6928,4492 -2436,936 -5057,2056 -7863,3187 -6928,2991 -13856,5992 -20414,9168 -6558,3002 -13290,5993 -20218,8994 -5057,2241 -11430,4862 -18923,8233 -7483,3187 -14411,4687 -20599,4307 -6547,0 -13105,750 -19848,1881 -6547,1305 -13105,2426 -19663,3176l-1686 0 566 936 -65167 3936 -30898 0zm87821 -741927c-370,-6177 -370,-12355 -185,-18727 185,-6363 935,-12355 2436,-17793 1501,-5612 3937,-8613 7678,-9364 11985,-2621 24155,-2991 36520,-1305 12170,1501 24340,2056 36510,1305 5058,-370 11235,-1305 18358,-2806 7113,-1305 14041,-2241 21154,-2621 6928,-370 13485,0 19663,1120 6177,946 11430,4122 15356,9179 2621,3372 4122,8429 4872,15172 751,6743 1501,13670 2056,20783 565,7113 1501,13671 3001,19848 1491,5993 4112,9745 8234,11235 6558,2436 11985,3001 16106,1316 4307,-1686 7679,-4307 10115,-8244 2621,-3741 4306,-8233 5057,-13475 750,-5057 935,-10114 555,-15357 -370,-5807 -1491,-11800 -2991,-17977 -1686,-6373 -1501,-11985 750,-17042 2621,-6178 6548,-11050 11800,-14236 5242,-3372 11039,-5993 17227,-7678 4862,-1871 9549,-3557 14226,-5242 4872,-1686 9744,-2621 14606,-2992 4872,-380 9744,185 14236,1491 4677,1501 8984,4502 12920,8809 4122,4862 7493,10104 10114,15726 2807,5623 5058,11615 6548,17793 1686,6177 3371,12540 5057,19282 1686,6558 3557,12551 5623,17978 1500,5242 3556,10484 6177,15922 2436,5612 4677,11049 6558,16846 1871,5623 3371,11430 4677,17227 1315,5808 1685,11430 1315,17043 -750,6557 -3001,11429 -6557,14421 -3742,3186 -8244,5427 -13486,6742 -5242,1121 -10854,1871 -16662,1871 -5807,0 -11615,185 -17042,565 -2621,370 -6743,936 -12550,1501 -5993,740 -11985,1306 -18533,1491 -6373,195 -12365,-185 -17977,-1121 -5808,-935 -9179,-2806 -10114,-5807 -1121,-1871 -1121,-3557 0,-5242 935,-1501 935,-3187 0,-4677 -1501,-1686 -3557,-3187 -5808,-4122 -2436,-750 -4492,-1686 -6362,-2436 -5438,-2436 -10865,-4677 -16107,-6558 -5427,-1871 -11050,-2426 -17412,-1686 -4687,381 -9929,1881 -15542,4122 -5622,2436 -9559,5993 -11800,10680 -1870,3371 -3001,6362 -3371,9168 -380,2621 -2436,5057 -6558,6743 -11604,5993 -24525,9179 -38391,9929 -13855,751 -26961,936 -39511,555 -11235,0 -22089,-1120 -32388,-3556 -10115,-2436 -17978,-9169 -23600,-20598 -2436,-4307 -4122,-9734 -4872,-16097 -740,-6373 -1121,-12931 -1306,-19293 -185,-6363 -185,-12735 185,-19098 381,-6558 381,-12365 0,-17977 0,-2436 -185,-6743 -565,-12736zm50006 404488c-1131,10669 -1501,21153 -1131,31833 381,10669 2066,20968 4872,31268 4122,14236 9930,29027 17608,44198 7678,15161 17042,27897 27896,38196 6743,6177 13486,12170 20414,17792 6927,5623 14236,11050 21914,16107 6547,-3937 13105,-7863 19468,-11800 6372,-3741 12365,-8429 17792,-13856 11800,-11049 22284,-24350 31833,-40076 9549,-15727 16107,-31083 19848,-46069 2817,-9919 4307,-19849 4307,-29768l0 -30712c0,-8429 -370,-16857 -1120,-25091 -751,-8428 -3002,-16487 -7113,-24165 -2251,-5242 -5057,-10854 -8809,-16847 -3556,-5992 -8613,-9929 -14791,-11800 -17597,-3556 -35770,-5807 -54868,-6557 -17227,-740 -33518,1315 -48875,6372 -15356,4862 -28277,14791 -38946,29778 -4307,6362 -6928,12920 -7863,19848 -935,6928 -1686,14041 -2436,21349zm1686 -458605l370 0 -370 0zm370 0l565 0 -565 0zm565 0l1120 -565c-370,380 -750,565 -1120,565zm1120 -565l566 0 -566 0z"/>
  <path id="12" class="fil1" d="M4381707 836871l0 -129213 32954 0 0 -555 15356 0 3372 1120 555 0c3937,0 6743,185 8243,370 1316,195 2436,195 3187,195 555,0 1305,-195 2241,-750 935,-565 2621,-1686 5252,-3186 3556,-1686 6177,-4677 7863,-8984 1491,-4122 2436,-8613 2436,-13116 0,-4676 -565,-9363 -1686,-14225 -1130,-5057 -1881,-9179 -2251,-12366 -1685,-10299 -2806,-20403 -3001,-30517 -185,-10114 -555,-19848 -1305,-29407l-3937 -51497c-1305,-17227 -2806,-34454 -4307,-51681 -1871,-18913 -3741,-37826 -5427,-56738 -1871,-18728 -3001,-37641 -3186,-56739 0,-19293 -1306,-38576 -3927,-57674 -2436,-18912 -4687,-38206 -6558,-57488 -1305,-17238 -2991,-34085 -4872,-50757 -1871,-16661 -3741,-33518 -5427,-50746 -750,-5427 -935,-10669 -370,-15726 555,-4872 1871,-9364 4112,-13301 2251,-4111 5252,-7483 8993,-9919 3927,-2621 8429,-3936 13486,-3936 8799,380 17597,565 26396,565l26786 0c9919,370 19848,750 29962,935 10300,185 20219,-185 30148,-935 8048,-380 16477,-935 25460,-1686 8994,-565 17227,370 24720,3372 4688,2240 8059,5242 10300,8983 2066,3937 3556,8059 4122,12366 565,4491 565,9168 185,14225 -371,5242 -556,9930 -556,14421 0,8994 -195,18358 -750,27712 -565,9179 -1316,18542 -1871,27536 -1881,17597 -2816,35205 -2816,52987 0,17792 -370,35585 -1120,53562 -1121,38011 -2621,76022 -4492,114043 -2066,38010 -3752,76401 -5623,115162 -1120,17227 -2240,34639 -3556,51866 -1316,17423 -2621,34835 -4122,52442 -935,10670 -1870,20784 -2621,30518 -750,9744 -2806,20043 -5992,30528 -2806,9178 -6928,17597 -11985,25090 -5057,7678 -10300,15171 -15727,22849 -5057,7679 -10299,15357 -15736,23035 -5428,7863 -11790,14411 -19098,19653 -8984,5437 -17978,8624 -27146,9744 -8994,1120 -18358,1501 -28277,1120 -2066,0 -2816,0 -2066,0 750,0 1686,0 3001,185 1306,196 1871,381 2056,381 185,185 -935,185 -3371,185l-21164 2056 -21154 3371 -14421 0 -1500 565 -29768 0z"/>
  <path id="13" class="fil1" d="M4705476 226779c0,-16857 3937,-29212 11800,-37086 8048,-7863 17597,-13105 29212,-15911 11420,-2621 23775,-3741 36706,-3001 13105,750 24710,1130 34824,1130 3752,0 9179,0 16292,-195 7308,-185 14421,0 21718,750 7124,751 13301,2066 18543,4122 5242,2066 7678,5242 7308,9549 -1130,15737 -1315,31463 -750,47004 555,15542 750,31083 750,46820 370,17977 0,35955 -945,54117 -936,18163 -2056,36140 -3176,54118 -1131,17792 -2251,35770 -3557,53932 -1316,18163 -2066,36140 -2436,54117 -1871,56554 -2621,112922 -2436,168910 185,55988 1501,112357 4122,168910l-2817 15912c-15911,4872 -31452,9744 -46809,14606 -15356,4872 -30898,9744 -46624,14606 -8243,2816 -16672,5242 -25286,7308 -8613,2056 -17042,935 -25275,-3002 -6188,-2621 -10494,-6927 -12920,-12920 -2632,-5992 -3937,-12540 -4307,-19663 -380,-7113 -195,-14411 370,-21719 750,-7298 1120,-13671 1501,-19283 370,-15921 935,-31843 2055,-47570 936,-15726 1686,-31648 2437,-47559 565,-15922 935,-31833 935,-47755 0,-15922 -565,-31833 -1871,-47940 -2621,-32583 -4492,-64982 -5427,-97185 -946,-32213 -1501,-64612 -2066,-97565 -370,-33334 -750,-66288 -1120,-98686 -381,-32584 -566,-65537 -751,-98871z"/>
 </g>
</svg>
