<?xml version="1.0" encoding="UTF-8"?>
<!DOCTYPE svg PUBLIC "-//W3C//DTD SVG 1.1//EN" "http://www.w3.org/Graphics/SVG/1.1/DTD/svg11.dtd">
<!-- Creator: CorelDRAW X7 -->
<svg xmlns="http://www.w3.org/2000/svg" xml:space="preserve" width="1.31719in" height="0.116657in" version="1.1" style="shape-rendering:geometricPrecision; text-rendering:geometricPrecision; image-rendering:optimizeQuality; fill-rule:evenodd; clip-rule:evenodd"
viewBox="0 0 1110 98"
 xmlns:xlink="http://www.w3.org/1999/xlink">
 <defs>
  <style type="text/css">
   <![CDATA[
    .fil0 {fill:#003399;fill-rule:nonzero}
   ]]>
  </style>
 </defs>
 <g id="Layer_x0020_1">
  <metadata id="CorelCorpID_0Corel-Layer"/>
  <polygon class="fil0" points="37,54 0,54 0,63 37,63 37,97 48,97 48,63 85,63 85,54 48,54 48,20 37,20 "/>
  <path id="1" class="fil0" d="M150 54c-2,12 -10,29 -33,32 -5,0 -8,1 -11,0l0 12c3,0 7,0 12,0 32,-4 49,-27 49,-58 0,-23 -12,-40 -34,-40 -22,0 -36,16 -36,34 0,17 13,29 30,29 10,0 18,-4 23,-9l0 0zm-18 -43c12,0 18,11 18,27 0,2 0,4 -1,5 -3,5 -9,9 -17,9 -11,0 -18,-8 -18,-19 0,-13 7,-22 18,-22z"/>
  <path id="2" class="fil0" d="M195 44c2,-14 13,-32 44,-32l0 -12c-15,0 -32,5 -44,15 -10,10 -17,24 -17,43 0,24 14,40 37,40 21,0 34,-16 34,-33 0,-19 -13,-30 -30,-30 -11,0 -19,4 -24,9l0 0zm20 43c-13,0 -20,-10 -20,-25 0,-9 9,-17 19,-17 11,0 18,8 18,21 0,12 -6,21 -17,21z"/>
  <path id="3" class="fil0" d="M327 85l-44 0 0 -1 9 -7c19,-17 33,-32 33,-49 0,-15 -10,-28 -33,-28 -12,0 -22,4 -29,9l5 10c5,-3 13,-7 21,-7 14,0 19,8 19,17 0,15 -13,28 -36,48l-11 11 0 9 66 0 0 -12z"/>
  <path id="4" class="fil0" d="M390 44c2,-14 13,-32 44,-32l0 -12c-15,0 -32,5 -44,15 -10,10 -17,24 -17,43 0,24 13,40 37,40 21,0 34,-16 34,-33 0,-19 -13,-30 -30,-30 -11,0 -19,4 -24,9l0 0zm20 43c-13,0 -20,-10 -20,-25 0,-9 9,-17 19,-17 11,0 18,8 18,21 0,12 -6,21 -17,21z"/>
  <path id="5" class="fil0" d="M500 2l-6 46c3,-1 7,-1 13,-1 19,0 29,8 29,20 0,12 -11,20 -24,20 -8,0 -16,-3 -21,-5l-3 11c5,3 14,5 25,5 24,0 40,-14 40,-32 0,-20 -17,-30 -37,-30 -3,0 -5,0 -7,0l3 -22 39 0 0 -12 -51 0z"/>
  <path id="6" class="fil0" d="M585 44c2,-14 13,-32 44,-32l0 -12c-15,0 -32,5 -44,15 -10,10 -17,24 -17,43 0,24 13,40 37,40 21,0 34,-16 34,-33 0,-19 -13,-30 -30,-30 -11,0 -19,4 -24,9l0 0zm20 43c-13,0 -20,-10 -20,-25 0,-9 9,-17 19,-17 11,0 18,8 18,21 0,12 -6,21 -17,21z"/>
  <path id="7" class="fil0" d="M703 54c-2,12 -10,29 -34,32 -4,0 -7,1 -10,0l0 12c3,0 7,0 11,0 33,-4 50,-27 50,-58 0,-23 -13,-40 -35,-40 -21,0 -35,16 -35,34 0,17 12,29 30,29 10,0 17,-4 23,-9l0 0zm-19 -43c13,0 19,11 19,27 0,2 -1,4 -1,5 -4,5 -10,9 -18,9 -11,0 -17,-8 -17,-19 0,-13 7,-22 17,-22z"/>
  <path id="8" class="fil0" d="M783 47c-11,5 -20,14 -20,26 0,13 13,25 35,25 20,0 35,-11 35,-27 0,-12 -8,-20 -20,-25l0 0c12,-6 17,-14 17,-22 0,-12 -10,-24 -31,-24 -18,0 -32,10 -32,25 0,9 5,17 16,22l0 0zm15 41c-11,0 -18,-8 -18,-17 0,-9 6,-16 17,-19 11,3 20,9 20,20 0,9 -7,16 -19,16zm1 -78c11,0 15,7 15,15 0,8 -6,14 -14,16 -10,-3 -17,-8 -17,-17 0,-7 5,-14 16,-14z"/>
  <path id="9" class="fil0" d="M887 45c13,-4 19,-12 19,-22 0,-12 -9,-23 -30,-23 -11,0 -22,3 -27,7l4 10c4,-2 12,-5 19,-5 12,0 17,6 17,13 0,11 -12,16 -21,16l-7 0 0 10 7 0c13,0 25,6 25,18 0,9 -7,18 -22,18 -9,0 -18,-4 -22,-6l-4 11c5,3 15,6 27,6 24,0 38,-13 38,-28 0,-14 -11,-22 -23,-24l0 -1z"/>
  <path id="10" class="fil0" d="M993 98c22,0 36,-17 36,-50 0,-29 -12,-48 -35,-48 -23,0 -36,18 -36,49 0,30 12,49 35,49zm0 -11c-11,0 -18,-14 -18,-38 0,-24 7,-37 18,-37 13,0 19,14 19,37 0,20 -5,38 -19,38z"/>
  <path id="11" class="fil0" d="M1060 47c-12,5 -20,14 -20,26 0,13 12,25 34,25 21,0 36,-11 36,-27 0,-12 -9,-20 -21,-25l0 0c12,-6 17,-14 17,-22 0,-12 -10,-24 -30,-24 -19,0 -33,10 -33,25 0,9 6,17 17,22l0 0zm15 41c-12,0 -19,-8 -19,-17 0,-9 6,-16 17,-19 12,3 20,9 20,20 0,9 -7,16 -18,16zm0 -78c11,0 15,7 15,15 0,8 -6,14 -13,16 -11,-3 -18,-8 -18,-17 0,-7 5,-14 16,-14z"/>
 </g>
</svg>
