<?xml version="1.0" encoding="UTF-8"?>
<!DOCTYPE svg PUBLIC "-//W3C//DTD SVG 1.1//EN" "http://www.w3.org/Graphics/SVG/1.1/DTD/svg11.dtd">
<!-- Creator: CorelDRAW X7 -->
<svg xmlns="http://www.w3.org/2000/svg" xml:space="preserve" width="0.376433in" height="0.262146in" version="1.1" style="shape-rendering:geometricPrecision; text-rendering:geometricPrecision; image-rendering:optimizeQuality; fill-rule:evenodd; clip-rule:evenodd"
viewBox="0 0 143 99"
 xmlns:xlink="http://www.w3.org/1999/xlink">
 <defs>
  <style type="text/css">
   <![CDATA[
    .fil2 {fill:#441600}
    .fil3 {fill:#AB5623}
    .fil0 {fill:white}
    .fil4 {fill:#441600;fill-rule:nonzero}
    .fil1 {fill:white;fill-rule:nonzero}
   ]]>
  </style>
 </defs>
 <g id="Layer_x0020_1">
  <metadata id="CorelCorpID_0Corel-Layer"/>
  <g id="_1615860768">
   <g>
    <path class="fil0" d="M117 84c0,0 -30,-9 -46,9l0 -78c0,0 28,-19 65,-1l-19 70z"/>
    <path id="1" class="fil1" d="M65 93l13 0 -11 -4 1 -2 2 -2 2 -1 2 -2 2 -1 3 -1 2 -1 2 -1 2 -1 2 0 3 -1 2 0 2 0 2 0 2 -1 2 0 2 0 2 0 2 1 1 0 2 0 1 0 2 0 1 0 1 1 1 0 1 0 1 0 1 0 0 0 1 1 0 0 -4 12 0 0 0 0 0 0 -1 0 0 -1 -1 0 -1 0 -1 0 -1 0 -1 0 -1 -1 -2 0 -1 0 -2 0 -1 0 -2 0 -1 0 -2 0 -2 0 -1 0 -2 1 -2 0 -1 1 -2 0 -1 1 -2 0 -1 1 -2 1 -1 1 -1 1 -2 1 -1 1 -11 -4zm11 4c-2,3 -6,3 -9,1 -2,-2 -3,-6 0,-9l9 8zm2 -82l0 78 -13 0 0 -78 3 -5 10 5zm-13 0c0,-4 3,-7 6,-7 4,0 7,3 7,7l-13 0zm78 1l-13 -3 4 7 -4 -1 -3 -2 -3 -1 -3 -1 -3 -1 -3 0 -2 -1 -3 0 -3 0 -2 0 -3 0 -2 0 -3 0 -2 0 -2 0 -2 1 -2 0 -2 1 -1 0 -2 1 -1 0 -2 1 -1 0 -1 1 -1 0 -1 1 -1 0 0 0 -1 1 0 0 0 0 0 0 -7 -10 0 -1 0 0 1 0 1 0 0 -1 1 0 1 -1 2 -1 1 0 2 -1 1 -1 2 0 2 -1 2 0 2 -1 3 0 2 -1 3 0 2 -1 3 0 3 0 3 0 3 0 3 0 3 1 4 0 3 1 4 1 3 1 4 1 4 2 3 2 4 7zm-4 -7c3,1 5,5 3,8 -1,3 -5,5 -8,3l5 -11zm-28 73l19 -69 13 3 -20 69 -8 5 -4 -8zm12 3c-1,4 -4,6 -8,5 -3,-1 -5,-5 -4,-8l12 3z"/>
   </g>
   <g>
    <path class="fil0" d="M26 84c0,0 30,-9 45,9l0 -78c0,0 -27,-19 -65,-1l20 70z"/>
    <path id="1" class="fil1" d="M78 93l-11 4 -2 -1 -1 -1 -1 -1 -1 -1 -2 -1 -1 -1 -2 0 -1 -1 -2 0 -2 -1 -1 0 -2 -1 -1 0 -2 0 -2 0 -1 0 -2 0 -1 0 -2 0 -1 0 -2 0 -1 1 -1 0 -1 0 -1 0 -1 0 -1 0 -1 1 0 0 0 0 -1 0 0 0 -3 -12 0 0 0 -1 1 0 1 0 0 0 1 0 1 0 2 -1 1 0 1 0 2 0 2 0 1 0 2 -1 2 0 2 0 2 0 2 1 2 0 2 0 2 0 2 1 3 0 2 1 2 1 2 1 2 1 2 1 2 2 2 1 2 2 2 2 -11 4 13 0zm-11 4l9 -8c2,3 2,7 0,9 -3,2 -7,2 -9,-1zm-2 -82l10 -5 3 5 0 78 -13 0 0 -78zm13 0l-13 0c0,-4 3,-7 6,-7 4,0 7,3 7,7zm-78 1l4 -7 3 -2 4 -2 4 -1 3 -1 4 -1 3 -1 3 0 4 -1 3 0 3 0 3 0 3 0 3 0 2 1 3 0 2 1 2 0 3 1 2 0 2 1 2 0 1 1 2 1 1 0 1 1 1 1 1 0 1 1 1 0 0 0 1 0 0 1 -7 10 0 0 0 0 -1 0 0 -1 -1 0 0 0 -1 -1 -1 0 -1 -1 -2 0 -1 -1 -1 0 -2 -1 -2 0 -2 -1 -1 0 -2 -1 -3 0 -2 0 -2 0 -2 0 -3 0 -2 0 -3 0 -3 0 -3 1 -2 0 -3 1 -3 1 -3 1 -4 2 -3 1 3 -7 -12 3zm4 -7l5 11c-3,2 -7,0 -8,-3 -2,-3 -1,-7 3,-8zm28 73l-5 8 -7 -5 -20 -69 12 -3 20 69zm-12 3l12 -3c1,3 -1,7 -5,8 -3,1 -6,-1 -7,-5z"/>
   </g>
  </g>
  <g>
   <path class="fil2" d="M117 84c0,0 -30,-8 -46,9l0 -72c0,0 28,-17 65,0l-19 63z"/>
   <path class="fil2" d="M26 84c0,0 30,-8 45,9l0 -72c0,0 -27,-17 -65,0l20 63z"/>
  </g>
  <path class="fil3" d="M117 76c0,0 -30,-7 -46,9l0 -71c0,0 28,-17 65,-1l-19 63z"/>
  <path class="fil4" d="M117 78c0,0 -30,-8 -45,8l-2 -1 0 -71 0 -1 1 0c0,0 28,-18 66,-1l1 1 0 1 -20 63 0 1 -1 0zm-44 4c14,-12 38,-8 43,-7l19 -61c-33,-14 -58,-2 -62,0l0 68z"/>
  <path class="fil3" d="M26 76c0,0 30,-7 45,9l0 -71c0,0 -27,-17 -65,-1l20 63z"/>
  <path class="fil4" d="M27 75c5,-1 29,-5 43,7l0 -68c-4,-2 -29,-14 -62,0l19 61zm43 11c-14,-16 -44,-8 -44,-8l-1 0 -1 -1 -19 -63 0 -1 1 -1c38,-17 66,1 66,1l1 0 0 1 0 71 -3 1z"/>
 </g>
</svg>
