<?xml version="1.0" encoding="UTF-8"?>
<!DOCTYPE svg PUBLIC "-//W3C//DTD SVG 1.1//EN" "http://www.w3.org/Graphics/SVG/1.1/DTD/svg11.dtd">
<!-- Creator: CorelDRAW X7 -->
<svg xmlns="http://www.w3.org/2000/svg" xml:space="preserve" width="1.47138in" height="1.46533in" version="1.1" style="shape-rendering:geometricPrecision; text-rendering:geometricPrecision; image-rendering:optimizeQuality; fill-rule:evenodd; clip-rule:evenodd"
viewBox="0 0 354 352"
 xmlns:xlink="http://www.w3.org/1999/xlink">
 <defs>
  <style type="text/css">
   <![CDATA[
    .fil2 {fill:#8E1E10}
    .fil1 {fill:#CB2C17}
    .fil3 {fill:#FDFDFD}
    .fil0 {fill:white}
   ]]>
  </style>
 </defs>
 <g id="Layer_x0020_1">
  <metadata id="CorelCorpID_0Corel-Layer"/>
  <g id="_1300105952">
   <path class="fil0" d="M183 352c-19,-21 -37,-39 -58,-62 -9,-16 0,-44 5,-61 -7,-4 -9,-7 -14,-14 -5,-7 -8,-8 -10,-16 -5,-8 -13,-10 -16,-26 -12,-61 60,-105 123,-84 29,9 31,20 46,38 6,-2 70,74 78,84 5,4 7,8 12,12 2,-4 4,-11 5,-20l0 -30c-1,-3 -1,-5 -1,-8 -14,-87 -91,-141 -170,-144l-16 0c-21,1 -42,6 -62,15 -61,28 -99,79 -105,135l0 31c2,17 6,33 13,49 21,46 59,78 108,94 22,7 34,7 62,7z"/>
   <path class="fil0" d="M125 290c21,23 39,41 58,62 46,0 85,-19 110,-39 13,-11 26,-24 35,-38 7,-12 19,-35 21,-52 -5,-4 -7,-8 -12,-12 -8,-10 -72,-86 -78,-84 9,36 6,62 -18,86 -8,8 -20,18 -37,21 -23,4 -31,-6 -44,-12 -4,18 -13,61 -35,68z"/>
   <path class="fil0" d="M106 199c9,4 14,10 19,1 4,-5 2,-14 -1,-19 -7,-13 -15,-18 -7,-37 21,-54 111,-56 112,16 0,66 -86,67 -51,12 9,-15 5,-26 0,-40 -23,-7 -43,8 -39,34 4,31 0,25 -9,63 -5,17 -14,45 -5,61 22,-7 31,-50 35,-68 13,6 21,16 44,12 17,-3 29,-13 37,-21 24,-24 27,-50 18,-86 -15,-18 -17,-29 -46,-38 -63,-21 -135,23 -123,84 3,16 11,18 16,26z"/>
   <path class="fil0" d="M106 199c2,8 5,9 10,16 5,7 7,10 14,14 9,-38 13,-32 9,-63 -4,-26 16,-41 39,-34 5,14 9,25 0,40 -35,55 51,54 51,-12 -1,-72 -91,-70 -112,-16 -8,19 0,24 7,37 3,5 5,14 1,19 -5,9 -10,3 -19,-1z"/>
  </g>
  <g id="_1300088800">
   <path class="fil1" d="M183 331c-19,-21 -37,-39 -58,-62 -9,-16 0,-44 5,-61 -7,-4 -9,-7 -14,-14 -5,-7 -8,-8 -10,-16 -5,-8 -13,-10 -16,-26 -12,-61 60,-105 123,-84 29,9 31,20 46,38 6,-2 70,75 78,84 5,4 7,8 12,12 2,-3 4,-11 5,-20l0 -30c-1,-3 -1,-5 -1,-8 -14,-87 -91,-141 -170,-144l-16 0c-21,1 -42,6 -62,15 -61,28 -99,79 -105,135l0 31c2,17 6,33 13,49 21,46 59,78 108,94 22,7 34,7 62,7z"/>
   <path class="fil2" d="M125 269c21,23 39,41 58,62 46,0 85,-18 110,-39 13,-11 26,-24 35,-38 7,-12 19,-35 21,-52 -5,-4 -7,-8 -12,-12 -8,-9 -72,-86 -78,-84 9,36 6,62 -18,86 -8,8 -20,19 -37,21 -23,4 -31,-6 -44,-12 -4,18 -13,61 -35,68z"/>
   <path class="fil3" d="M106 178c9,4 14,10 19,2 4,-6 2,-14 -1,-20 -7,-13 -15,-18 -7,-37 21,-53 111,-56 112,16 0,66 -86,67 -51,12 9,-14 5,-26 0,-39 -23,-8 -43,7 -39,34 4,30 0,24 -9,62 -5,17 -14,45 -5,61 22,-7 31,-50 35,-68 13,6 21,16 44,12 17,-2 29,-13 37,-21 24,-24 27,-50 18,-86 -15,-18 -17,-29 -46,-38 -63,-21 -135,23 -123,84 3,16 11,18 16,26z"/>
   <path class="fil2" d="M106 178c2,8 5,9 10,16 5,7 7,10 14,14 9,-38 13,-32 9,-62 -4,-27 16,-42 39,-34 5,13 9,25 0,39 -35,55 51,54 51,-12 -1,-72 -91,-69 -112,-16 -8,19 0,24 7,37 3,6 5,14 1,20 -5,8 -10,2 -19,-2z"/>
  </g>
 </g>
</svg>
