<?xml version="1.0" encoding="UTF-8"?>
<!DOCTYPE svg PUBLIC "-//W3C//DTD SVG 1.1//EN" "http://www.w3.org/Graphics/SVG/1.1/DTD/svg11.dtd">
<!-- Creator: CorelDRAW X7 -->
<svg xmlns="http://www.w3.org/2000/svg" xml:space="preserve" width="19.7083mm" height="26.1134mm" version="1.1" style="shape-rendering:geometricPrecision; text-rendering:geometricPrecision; image-rendering:optimizeQuality; fill-rule:evenodd; clip-rule:evenodd"
viewBox="0 0 821428 1088388"
 xmlns:xlink="http://www.w3.org/1999/xlink">
 <defs>
  <style type="text/css">
   <![CDATA[
    .fil2 {fill:#1A1313;fill-rule:nonzero}
    .fil1 {fill:#341F1F;fill-rule:nonzero}
    .fil15 {fill:#622828;fill-rule:nonzero}
    .fil16 {fill:#8C423F;fill-rule:nonzero}
    .fil17 {fill:#DA1F28;fill-rule:nonzero}
    .fil18 {fill:#DF3844;fill-rule:nonzero}
    .fil19 {fill:#F4C3B6;fill-rule:nonzero}
    .fil20 {fill:#FFDD95;fill-rule:nonzero}
    .fil4 {fill:black;fill-rule:nonzero}
    .fil9 {fill:#2F2F2F;fill-rule:nonzero}
    .fil10 {fill:#484848;fill-rule:nonzero}
    .fil5 {fill:#626262;fill-rule:nonzero}
    .fil11 {fill:#999999;fill-rule:nonzero}
    .fil6 {fill:#A9A9AA;fill-rule:nonzero}
    .fil12 {fill:#B9B9B9;fill-rule:nonzero}
    .fil7 {fill:#C4C4C4;fill-rule:nonzero}
    .fil14 {fill:#E3E3E4;fill-rule:nonzero}
    .fil8 {fill:#EEEEEE;fill-rule:nonzero}
    .fil13 {fill:white;fill-rule:nonzero}
    .fil0 {fill:black;fill-rule:nonzero;fill-opacity:0.529412}
    .fil3 {fill:url(#id0);fill-rule:nonzero}
   ]]>
  </style>
  <linearGradient id="id0" gradientUnits="userSpaceOnUse" x1="403001" y1="389151" x2="617341" y2="517448">
   <stop offset="0" style="stop-opacity:1; stop-color:#E99E56"/>
   <stop offset="0.45098" style="stop-opacity:1; stop-color:#E4C63F"/>
   <stop offset="1" style="stop-opacity:1; stop-color:#C44F3B"/>
  </linearGradient>
 </defs>
 <g id="__x0023_Layer_x0020_1">
  <metadata id="CorelCorpID_0Corel-Layer"/>
  <g id="_2267657136">
   <path class="fil0" d="M124804 941893l-45 46 -159 150 -62 59 -54 50 -38 37 -29 25 -21 17 -4 4 212 25 9 0 204 21 25 0 196 12 33 5 184 4 45 4 180 4 58 0 167 0 71 0 154 0 79 -4 150 -8 92 -5 137 -8 104 -8 130 -9 121 -8 112 -12 129 -17 109 -8 141 -21 96 -9 159 -25 79 -12 175 -33 67 -9 187 -33 58 -8 200 -42 46 -8 217 -46 29 -9 229 -54 21 -4 242 -58 8 0 255 -71 4 0 250 -67 17 -8 237 -71 33 -8 230 -67 46 -17 212 -71 58 -16 205 -67 75 -25 187 -67 88 -33 179 -63 100 -37 167 -63 116 -45 155 -59 129 -54 137 -54 146 -58 130 -55 158 -66 117 -50 170 -75 101 -46 191 -84 84 -41 208 -92 71 -37 225 -101 58 -29 234 -116 46 -21 254 -125 29 -13 271 -141 17 -5 283 -146 288 -154 16 -8 275 -146 29 -17 263 -141 42 -25 254 -142 54 -29 234 -138 75 -41 225 -130 87 -50 209 -125 100 -58 195 -121 121 -67 180 -112 137 -84 163 -100 154 -95 150 -92 167 -108 133 -88 188 -117 120 -79 201 -129 108 -71 217 -142 87 -62 234 -159 75 -45 254 -171 58 -42 267 -183 42 -30 283 -200 33 -16 300 -213 13 -8 313 -221 8 -8 308 -225 25 -13 292 -217m-6389 49953l16 33 17 34 21 37 12 33 21 34 17 33 17 38 20 33 17 33 17 38 16 29 21 38 21 33 4 21 9 12 20 38 17 29 21 37 21 34 0 4 129 233 17 34 79 133 21 38 20 29 309 -1267 79 -305 238 -929 162 -596 167 -617 246 -871 87 -304 334 -1138 12 -21 346 -1129 79 -250 280 -851 166 -508 196 -567 259 -754 108 -296 359 -984 12 -42 379 -996 79 -204 309 -771 171 -434 217 -516 270 -651 125 -275 376 -850 20 -50 405 -879 71 -163 333 -688 175 -366 233 -467 280 -550 133 -259 379 -729 34 -54 421 -763 66 -129 350 -613 421 -721 276 -463 145 -233 384 -621 42 -58 425 -659 62 -96 359 -542 171 -246 254 -371 425 -596 375 -516 46 -63 425 -558 54 -71 367 -471 158 -200 263 -317 262 -321 159 -183c421,-496 829,-963 1246,-1405l146 -163 258 -270 246 -259 163 -158 1192 -1159 133 -121 259 -233 225 -200 158 -138 317 -271 67 -54 741 -600 117 -96 246 -188c600,-458 1167,-862 1709,-1208l175 -117 142 -87 250 -159 66 -37c871,-538 1634,-926 2268,-1217l100 -42m-12133 73372l12 9 63 45 58 38 63 37 246 155 62 33 59 37 62 38 63 33 62 34 317 162 62 34 63 29 67 25 62 33 63 25 62 29 196 79 67 21 62 29 67 21 67 25 62 21 71 25 63 17 66 25 134 37 66 21 71 17 196 50 71 17 67 12 66 17 25 8 42 8 71 9 412 66 67 13 75 4 9 4 58 4 71 5c191,16 387,33 562,29l130 -438 12 -37 129 -396 21 -75 121 -359 33 -104 109 -325 50 -142 100 -283 58 -175 92 -246 79 -209 79 -212 92 -242 71 -175 104 -275 58 -138 121 -308 46 -104 142 -334 29 -70 158 -367 17 -42 179 -400 4 -4 184 -400 8 -25 175 -371 29 -59 163 -333 46 -92 150 -296 62 -125 134 -262 83 -159 121 -229 96 -188 108 -195 117 -217 91 -163 138 -246 75 -129 158 -279 59 -96 183 -304 38 -67 200 -333 21 -38 225 -358 4 -4 229 -367 17 -21 221 -342 33 -54 204 -300 54 -88 188 -271 71 -112 171 -242 96 -137 150 -213 120 -167 134 -183 142 -196 112 -150 167 -225 91 -121 192 -246 71 -96 208 -275 55 -62 241 -300 25 -38 267 -325 4 -8 275 -334 17 -16 263 -309 41 -50 238 -279 67 -75 216 -254 92 -96 200 -225 113 -125 175 -196 137 -150 159 -167 162 -175 133 -142 188 -200 113 -116 216 -221 88 -88 242 -250 62 -63 275 -270 34 -34 304 -296 8 -12 317 -300 17 -17 300 -288 41 -41 280 -259 66 -62 259 -238 100 -83 225 -208 129 -113 200 -179 154 -134 184 -158 179 -163 150 -129 217 -179 125 -108 241 -205 100 -79 276 -225 66 -62 309 -246 37 -34m-4072 14505l-4 71 0 20 -8 96 0 50 -5 46 -4 88 0 21 0 62 -4 83 -4 0 4 84 -4 58 0 21 0 71 -4 37 0 38 4 71 0 8 -4 54 4 59 0 4 0 62 4 38 0 16 0 55 0 21 4 29 -4 46 4 8 0 37 4 34 0 4 0 42 5 16 0 17 0 29 0 13 4 16 0 25 4 0 -4 21 0 13 0 4 4 0 0 4 0 21 0 8 4 4 0 4c7411,-12020 17380,-21860 28217,-29900 17472,-7569 38199,-13738 57847,-22774l-50 -4 -46 0 -50 0 -42 -4 -8 4 -46 -4 -46 0 -50 0 -33 0 -17 -4 -46 4 -50 -4 -50 0 -25 0 -25 0 -50 0 -50 0 -50 -4 -17 4 -29 0 -54 0 -50 0 -46 0 -8 0 -46 0 -50 0 -50 0 -50 0 -50 0 -50 4 -50 0 -46 0 -8 4 -54 -4 -46 4 -54 0 -38 0 -12 0 -51 4m1784 -821c1747,-813 3472,-1650 5194,-2509m-76682 43859l-33 67 -34 62 -25 67 -25 50 -4 13 -25 66 -21 63 -20 62 -21 63 -21 58 -17 58 -12 59 -13 58 -8 59 -4 8 -5 46 -8 54 -8 112 0 46 0 4 4 55 4 54 0 46 8 54 5 17 0 12 4 17 12 50 13 46 12 45 17 50 0 5 12 20c30,67 59,134 105,192 24957,-16351 58084,-23661 80082,-35907l-25 -41 -21 -38 -29 -37 -4 -9 -21 -29 -25 -41 -29 -38 -8 -12 -17 -21 -25 -38 -25 -42 -17 -25 -12 -12 -25 -33 -29 -42 -17 -29 -4 -4 -29 -38 -25 -37 -30 -38 -25 -33 -25 -34 -29 -41 0 -4 -75 -100 -12 -17 -17 -21 -29 -33 -79 -105 -25 -33 -21 -29 -8 -8 -25 -30 -30 -37 -25 -33m177650 -293518l46 20 50 17 92 33 4 5 96 33 50 21 45 12 100 34 96 33 50 17 46 12 100 25 0 4 96 25 54 17 46 8 96 25 8 4 92 17 58 13 42 8 96 25 8 0 92 13 58 12 42 8 100 17 8 0 92 13 63 8 37 4 96 13 12 4 88 4 67 8 37 4 4 0 192 13 67 4 33 0 100 4 21 0 79 0 67 0 29 0 96 -4 25 4 79 -8 71 0 29 0 92 -8 25 0 75 -9 75 -4 25 0 100 -12 21 0 75 -9 75 -12 21 -4 95 -13 30 -4 66 -17 79 -8 17 -8 96 -17 33 -4 63 -17 79 -17 17 -4 91 -25 34 -4 62 -21 79 -21 17 -8 92 -25 33 -8 59 -21 79 -25 12 -4 92 -34 33 -16 54 -21 84 -29 8 -5 88 -37 41 -17 50 -25 80 -33 8 -4 87 -42 38 -17 50 -25 83 -41 4 -4 84 -51 37 -20 46 -25 84 -50 4 0 79 -50 42 -25 41 -30 79 -54 50 -33 50 -38 26 -12 25 -21 50 -37 37 -30 8 -4 46 -41 46 -34 17 -12 33 -25 42 -42 33 -25 13 -13 45 -37 42 -42 8 -8 38 -29 37 -42 30 -21 16 -16 38 -42 46 -42 37 -41 42 -42 17 -21 20 -25 38 -42 33 -37 4 0 38 -46 37 -42 13 -16 25 -30 33 -45 29 -34 5 -12 33 -46 33 -46 13 -8 25 -34 33 -45 17 -30 12 -20 34 -46 29 -46 4 0 25 -46 29 -46 17 -25 12 -25 30 -50 25 -42 4 -4 25 -50 29 -46 8 -20 17 -30 25 -50 21 -41 4 -9 25 -50 25 -46 8 -12 13 -42 21 -50 16 -37 9 -13 21 -54 16 -50 4 -4 17 -46 21 -50 12 -29 9 -25 16 -50 17 -54 17 -50 16 -55 9 -20 12 -30 9 -54 16 -46 0 -8 17 -50 12 -54 5 -17 8 -33 0 -4 4 -4 58 -80 0 -8 59 -88 12 -16 42 -71 33 -46 21 -46 46 -71 8 -16 50 -92 46 -92 25 -41 25 -55 84 -187 4 0 33 -96 17 -29 21 -67 100 -292 8 -25 21 -75 16 -50 13 -50 21 -83 4 -17 75 -404 17 -104 4 -4 17 -205 8 -66 0 -38 8 -96 0 -8 0 -104 4 -25 0 -79 0 -55 0 -50 -4 -212 -4 -17 -8 -87 -13 -188 -4 -25 -17 -108 5 -4 -17 -105 -4 -37 -13 -67 -12 -71 -9 -33 -21 -104 0 -4 -20 -109 -5 -25 -25 -79 -12 -58 -17 -46 -58 -213 -8 -21 -63 -191 -33 -84 -9 -20 -41 -105 0 -8 -46 -100 -13 -33 -29 -71 -29 -67 -21 -37 -41 -100 -5 0 -50 -100 -16 -30 -71 -137 -25 -42 -184 -304 -25 -46 -37 -50 -50 -79 -21 -25 -67 -96 -4 -8 -71 -92 -21 -38 -50 -58m8140 -10666l42 30 75 58 63 46 54 41 83 59 146 96 17 16 125 79 125 80 21 8 104 67 42 21 87 54 63 29 66 42 234 116 25 17 125 54 8 8 133 63 13 0 254 113 59 20 79 34 75 25 58 21 100 37 38 13 120 41 13 4 142 42 8 4 129 38 34 8 104 29 54 13 88 25 75 12 66 17 96 21 42 8 116 21 30 8 133 25 142 21 21 4 125 17 41 4 96 13 67 4 79 12 83 5 55 4 108 8 33 0 134 4 8 4 142 0 12 0 125 0 38 0 104 0 58 0 84 -4 79 -4 58 0 104 -12 42 0 117 -13 16 -4 142 -13 138 -21 25 -4 112 -12 46 -13 92 -16 66 -9 71 -16 92 -17 42 -13 108 -29 29 -4 125 -33 9 0 133 -38 17 -4 112 -37 38 -13 96 -29 58 -25 71 -25 75 -25 54 -21 100 -42 29 -12 117 -50 8 -4 129 -59 5 -4 116 -58 29 -13 96 -50 46 -25 75 -41 67 -38 54 -29 79 -50 38 -25 104 -63 12 -12 117 -79 54 -34 55 -41 25 -17 29 -21 54 -42 46 -33 0 -4 54 -42 50 -37 17 -13 33 -29 50 -42 37 -33 9 -8 50 -42 46 -46 12 -8 34 -33 50 -42 29 -29 12 -13 46 -46 42 -46 12 -8 29 -37 42 -46 29 -25 17 -21 42 -46 41 -46 0 -4 42 -42 38 -50 20 -25 21 -20 38 -46 37 -46 -4 -4 38 -50 37 -50 17 -21 21 -25 37 -50 29 -42 4 -8 34 -54 33 -46 13 -17 20 -37 30 -50 29 -38 4 -12 33 -55 30 -50 8 -12 21 -46 29 -50 21 -33 4 -17 29 -54 25 -54 8 -5 96 -216 25 -55 4 0c96,-220 171,-441 234,-675l8 -16 8 -42 17 -58 13 -42 0 -17 71 -96 12 -16 58 -88 21 -37 42 -63 42 -62 20 -42 50 -88 13 -16 58 -104 0 -9 54 -100 17 -33 33 -75 34 -54 17 -50 41 -84 9 -29 45 -108 42 -113 13 -25 29 -87 21 -50 16 -63 25 -79 9 -33 33 -109 0 -4 33 -117 4 -21 21 -95 13 -46 12 -71 17 -75 4 -42 21 -104 4 -12 13 -121 4 -13 16 -104 0 -42 9 -79 8 -67 4 -54 4 -91 0 -30 5 -121 4 -4 0 -116 0 -30 0 -87 -4 -63 0 -62 0 -88 -5 -33 -8 -121 0 0 -12 -125 0 -21 -13 -100 -4 -54 -13 -71 -8 -75 -8 -46 -17 -108 -4 -13 -25 -120 -4 -17 -21 -104 -8 -46 -21 -79 -17 -71 -12 -50 -30 -100 -8 -25 -33 -121 -4 -8 -34 -113 -12 -33 -34 -88 -20 -62 -21 -59 -38 -91 -8 -30 -50 -116 -4 -4 -50 -117 -13 -25 -42 -96 -25 -50 -33 -71 -37 -79 -21 -38 -59 -108 -4 -8 -66 -117 -9 -17 -58 -100 -29 -41 -42 -71 -42 -71 -33 -46 -63 -96 -8 -16 -83 -117 0 -4 -79 -105 -25 -37 -55 -75 -50 -58 -41 -55 -67 -83 -21 -21 -92 -112 -437 -117 425 104 -8 -17 -9 -4 -8 -16 -4 4 -17 -21 -17 -17 -12 -21 -8 0 -13 -20 -8 -9 -25 -29 -17 -21 -8 -8 -29 -29 -34 -38 -21 -25 -12 -16 -38 -38 -37 -46 -25 -29 -17 -17 -46 -50 -45 -50 -26 -25 -25 -33 -50 -54 -54 -59 -21 -25 -37 -33 -58 -67 -63 -66 -17 -21 -45 -50 -67 -71 -67 -75 -16 -17 -55 -58 -75 -79 -79 -84 -8 -12 -67 -71 -79 -87 -88 -88m140897 -223143c3180,-5330 6385,-10736 9620,-16209m2821 -4776c3631,-6169 7303,-12421 10995,-18768m1755 -3014c3714,-6385 7457,-12858 11237,-19426m2326 -4039c3847,-6698 7727,-13496 11641,-20385m1563 -2747c4163,-7344 8369,-14780 12608,-22336m816 -1455c4156,-7414 8353,-14946 12583,-22573m2335 -4206c4422,-7990 8881,-16084 13383,-24307m79 -146c4522,-8261 9094,-16659 13696,-25162m1838 -3392c4664,-8628 9369,-17368 14117,-26242m58 -112c4818,-9011 9686,-18164 14588,-27433m1242 -2343c4739,-8969 9515,-18051 14333,-27262m1263 -2418c4785,-9148 9615,-18434 14471,-27833m1367 -2643c5052,-9769 10137,-19660 15276,-29692m412 -808c4973,-9737 9995,-19611 15051,-29597m2209 -4360c5172,-10232 10386,-20593 15646,-31105m-13958 -8748c-8249,9461 -16359,18805 -24358,28058m-321 371c-7998,9253 -15884,18418 -23640,27467m-208 242c-7699,8986 -15268,17855 -22732,26641m-225 271c-7515,8844 -14917,17601 -22190,26245m-417 492c-6882,8178 -13634,16255 -20311,24253m-1817 2176c-6739,8086 -13383,16088 -19914,23991m-650 791c-6136,7432 -12171,14780 -18123,22053m-3588 4389c-4943,6056 -9828,12053 -14650,18001m-5435 6715c-5131,6347 -10195,12628 -15184,18847m-2518 3147c-5330,6660 -10582,13245 -15754,19760m-1888 2376c-5406,6818 -10712,13550 -15943,20214m-2317 2959c-4618,5890 -9170,11721 -13654,17489m-2947 3801c-4760,6131 -9436,12200 -14046,18197m-2955 3860c-4147,5410 -8227,10757 -12254,16059m-3013 3968c-4260,5622 -8448,11178 -12575,16671m-153400 213782l-3047 -1213c-3568,-1392 -7415,25 -8561,3176l-12 37 -17 38 -13 37 -12 38 -13 37 -12 38 -9 42 -12 29 -4 4 -9 42 -8 37 -12 38 -9 33 0 4 -12 38 -9 37 -12 38 -4 33 -4 8 -25 34 -9 8 -16 29 -21 38 -25 37 -21 25 -4 9 -50 79 -25 37 -4 0 -21 38 -21 37 -38 59 -8 16 -21 42 -21 38 -25 33 5 4 -21 42 -25 37 -21 42 -4 12 -13 25 -58 126 -21 37 -17 46 -21 37 0 9 -16 37 -21 42 -17 42 -8 25 -8 16 -13 42 -21 46 -12 41c-1159,3156 817,6865 4409,8286l588 234m-6773 11587l-125 -38 -21 -4 -133 -38 -8 0 -150 -33 -292 -58 -17 -9 -125 -21 -29 -4 -117 -16 -41 -9 -100 -8 -50 -8 -101 -13 -58 -4 -83 -4 -71 -9 -71 -4 -79 0 -63 -8 -91 0 -50 0 -100 0 -42 0 -113 0 -29 0 -116 4 -25 0 -130 8 -8 5 -138 8 -4 0 -137 12 -9 0 -125 17 -16 4 -121 17 -25 4 -109 17 -37 8 -96 17 -46 8 -87 21 -54 17 -80 12 -62 21 -67 13 -71 25 -137 41 -50 13 -88 29 -37 12 -96 34 -29 12 -105 38 -20 8 -17 4 -225 96 -4 4 -117 54 -4 5 -113 50 -8 12 -108 50 -21 13 -92 50 -25 16 -87 50 -34 21 -12 9 -105 66 -66 42 -50 37 -59 34 -54 46 -50 33 -62 46 -38 29 -67 58 -33 25 -75 63 -25 21 -79 66 -17 17 -83 79 -8 9 -92 87 0 4 -88 92 -4 0 -83 92 -9 12 -79 88 -8 16 -71 84 -21 21 -58 79 -21 29 -54 75 -29 37 -46 67 -29 50 -42 63 -33 54 -34 54 -41 63 -25 50 -38 75 -25 37 -42 83 -16 34 -46 96 -13 25 -45 100 -5 21 -50 112 0 8 -50 125c-66,180 -120,351 -158,530l-25 33 -25 33 -21 38 -25 29 -25 38 -8 8 -13 25 -25 38 -21 33 -12 21 -8 12 -21 38 -25 37 -21 34 -21 37 -21 38 -25 50 -12 20 -21 38 -21 37 -12 30 -5 12 -20 34 -17 41 -17 34 0 4 -21 37 -16 38 -17 41 -8 13 -9 25 -16 42 -17 37 -13 29 -4 9 -12 41 -17 42 -17 42 -29 100 -12 33 -21 63 -25 75 -8 29 -30 100 0 12 -20 92 -13 46 -12 54 -17 83 -4 21 -21 100 0 17 -17 87 -4 55 -8 45 -13 92 0 13 -12 104 0 25 -9 75 0 67 -4 37 -4 100 -4 104 4 38 -4 67 4 75 4 29 0 100 0 12 9 92 0 46 8 54 8 88 0 16 13 104 4 21 8 79 9 59 8 46 17 91 0 13 20 104 5 25 16 75 17 63 8 37 29 100 -4 4 29 96 13 38 21 66 16 71 9 29 33 100 8 9 30 87 16 50 17 54 38 80 4 16 37 96 13 21 33 79 25 50 17 46 41 88 9 8 46 96 12 25 33 71 34 62 21 34 54 91 50 92 21 37 37 59 42 66 17 25 54 92 8 8 54 84 29 37 38 50 50 71 12 21 63 88 12 16 59 67 37 50 29 37 67 80 4 8 71 83 21 21 54 63 46 50 29 33 79 79 75 79 34 34 46 50 62 58 21 17 83 79m36778 -60302l-262 392 -263 392 -263 392 -258 392 -263 396 -262 391 -263 392 -258 396 -263 392 -200 300 -58 92 -263 391 -258 396 -263 396 -258 392 -259 396 -262 396 -259 392 -258 396 -254 396 -146 212 -113 179 -258 401 -258 396 -259 396 -254 395 -258 392 -747 1159 -25 33 -254 396 -79 121 -179 275 -254 400 -259 396 -250 400 -258 396 -255 396 -250 400 -258 396 -254 400 -250 396 -25 25 -230 371 -254 396 -250 400 -254 401 -250 400 -255 396 -254 400 -250 400 -250 400 -217 338 -37 62 -250 400 -250 396 -250 400 -250 400 -251 405 -250 400 -246 396 -254 400 -742 1200 -250 405 -246 400 -250 404 -246 396 -8 8c-2526,4106 -5022,8219 -7469,12346l-108 179 -109 183 -104 180 -108 179 -109 183 -108 179 -71 117 -37 67 -104 179 -105 179 -108 184 -104 179 -109 179 -108 183 -108 180 -105 183 -108 179 -108 179 -104 184 -109 179 -104 179 -104 184 -109 179 -104 183 -108 180 -104 179 -109 187 -108 180 -104 179 -46 79 -63 104 -100 179 -108 180 -104 183 -109 179 -104 179 -108 184 -104 183 -105 179 -108 184 -104 179 -104 179 -105 184 -104 179 -108 183 -104 184 -109 179 -104 179 -104 183 -108 180 -105 179 -100 187 -25 34 -79 146 -108 179 -104 183 -105 179 -104 180 -108 187 -104 179 -105 180 -100 179 -104 183 -108 180 -104 183 -105 183 -104 180c-2096,3655 -4172,7310 -6202,10957l-1288 2309 -375 679 -1642 2985 -3109 5693 -142 263 -1163 2154 -437 817 -3155 5923 -563 1063 -992 1888 -1046 1988 -496 954 -1517 2918 -9 17 -1508 2926 -471 908 -1022 2005 -933 1830 -542 1075 -1388 2738 -79 155 -1442 2884 -379 754 -1051 2117 -825 1655 -592 1196 -1259 2551 -137 296 -1380 2826 -296 604 -1071 2209 -1350 2793 -1134 2363 -200 421 -1313 2763 -217 455 -1083 2288 -625 1321 -659 1409 -1017 2167 -246 538 -1250 2688 -146 313 -1088 2350 -529 1159 -680 1492 -904 1972 -296 650 -1180 2601 -83 179 -1079 2400 -446 992 -705 1559 -792 1788 -333 746 -1109 2505 -25 50 -1067 2426 -367 834 -712 1621 -696 1592 -359 834 -1013 2330 -25 66 -1021 2368 -296 683 -708 1659 -605 1405 -379 908 -896 2109 -75 167 -946 2251 -225 537 -704 1676 -513 1225 -400 963 -784 1884 -108 267 -875 2117 -167 404 -688 1676 -429 1050 -409 1000 -675 1667 -142 342 -796 1980 -116 283 -667 1655 -350 884 -409 1017 -579 1454 -163 409 -721 1821 -71 175 -633 1609 -284 725 -400 1017 -483 1251 -179 454 -638 1659 -33 79 -596 1538 -221 583 -380 996 -400 1047 -187 483 -563 1484c-7140,18889 -28821,19222 -28821,19222l12 0 50 9 67 12 100 17 129 25 155 29 91 17 -475 -38 -621 -41c-1021,-63 -2046,-80 -3072,-59 -7056,159 -14250,2334 -21114,5594 -33327,4543 -82063,62439 -75623,102168 208,1275 471,2534 796,3772 5731,21919 -13133,38512 -13133,38512l33 4 37 4 34 0 37 4 34 4 37 4 17 5 21 0 37 4 34 4 37 4 38 0 33 4 12 0 13 4 12 -4 38 4 33 5 38 4 33 0 38 4 37 0 0 0 33 4 38 0 38 0 37 0 38 4 37 0 13 4 25 0 33 0 37 0 42 0 38 0 33 0 25 5 12 -5c4614,55 10583,-2875 17197,-7935l-304 1254 -146 588 -75 313 -154 608 -79 292 -167 625 -71 271 -171 646 -66 254 -188 659 -62 233 -188 680 -63 212 -200 700 -58 192 -204 717 -54 171 -213 733 -50 159 -225 746 -42 133 -229 771 -33 113 -242 783 -25 100 -250 801 -17 79 -258 817 -13 58 -258 829 -13 42 -262 850 -9 21 -262 863 0 4 -271 859 -4 21 -254 842 -13 41 -254 817 -13 58 -241 797 -25 75 -234 775 -25 92 -225 754 -29 112 -217 730 -33 133 -204 709 -42 150 -196 688 -46 166 -183 663 -50 183 -171 646 -54 200 -163 626 -58 212 -154 609 -55 229 -145 583 -59 251 -133 562 -59 263 -125 542 -58 283 -112 517 -63 296 -100 500 -58 312 -92 484 -63 325 -83 463 -54 337 -75 442 -54 354 -63 421 -50 371 -54 400 -50 388 -46 379 -42 396 -37 367 -38 409 -25 345 -33 421 -21 325 -21 438 -12 309 -13 446 -4 287 -8 463 4 521 0 221 8 254 21 483 9 230 29 500 16 212 46 509 21 200 63 517 20 183 75 525 30 167 91 533 30 150 112 546 29 130 134 554 29 117 154 562 29 105 175 571 29 87 200 575 30 71 225 588 21 54 258 596 17 38 283 600 13 29 312 604 8 17 342 608 159 -633c8206,-33410 25224,-37374 25224,-37374l-1071 1138c-1221,1313 -2372,2651 -3468,4005l-21 25c-725,896 -1413,1793 -2088,2705l-96 130 -896 1250 -158 221c-1142,1634 -2209,3288 -3193,4955l-308 509 -150 263 -663 1171 -25 46c-1025,1854 -1959,3722 -2809,5589l-54 116 -451 1017 -183 426 -488 1171 -108 275 -521 1317 -46 125 -533 1438 -13 25 -483 1413 -63 179 -400 1255 -333 1100 -142 458 -267 947 -96 345 -162 617 -204 792 -38 159c-454,1829 -829,3638 -1129,5414l-217 1308 -4 59 -192 1350 -8 88 -146 1250 -130 1255 -8 100 -75 942 -37 516 -55 938 -16 267 -34 929 -12 242 -17 746 -4 509 0 216c-4,742 8,1476 29,2197l0 37 46 1076 13 112c41,759 95,1501 175,2230l4 84 12 125 117 996 0 21 146 1046 8 37 142 871 50 296 162 846 30 150 171 792 79 355 191 766 9 21c167,642 346,1255 537,1855l292 846 17 38 321 854c329,821 688,1588 1075,2305l29 58c255,475 525,921 801,1342l20 30c1130,1717 2459,3013 3935,3813 1084,588 2251,909 3488,925 3022,-10161 9270,-17817 17648,-24074 -409,651 -792,1293 -1151,1909l-29 59 -225 392 -42 87 -204 359 -58 108 -175 329 -75 142 -238 454 -138 267 -91 187 -117 234 -104 212 -100 205 -113 237 -83 171 -313 692 -50 108 -133 309 -42 87 -133 325 -29 63 -142 346 -17 33 -141 367 -9 12 -141 367 0 13 -267 708 -21 59 -438 1308 -37 142 -325 1121 -50 205 -29 91 -50 221 -21 75 -54 229 -17 55 -113 537 -8 13 -54 266 4 5 -54 254 0 17 -42 233 -8 33 -38 209 -4 50 -42 250 -25 166 -12 76 -25 150 -8 87 -17 129 -8 96 -42 309 -8 112 -9 79 -8 121 -8 67 -9 129 -12 179 -9 38 -4 137 -4 25 -4 138 -4 17 -4 141 0 4 -9 138 4 8 -4 121 0 13 0 108 -4 25 4 92 0 25 -4 83 4 29 0 67 0 33 0 59 4 37 0 42 5 37 -5 34 5 37 4 34 0 33 0 21 4 33 0 17 4 29 0 8 0 25 4 25 0 17 0 4 350 -563 355 -562 37 -50 0 -4c7340,-11496 16997,-20953 27471,-28722 17209,-7460 37615,-13504 57000,-22319l46 -25 209 -92 254 -116 258 -117 255 -121 187 -87 67 -30 254 -116 254 -117c1743,-813 3472,-1650 5194,-2509l120 -58 747 -380 254 -129 21 -12 729 -371 250 -125 158 -88 92 -46 246 -129 1496 -788 246 -129 188 -104 58 -29 250 -138 246 -129 246 -138 246 -133 83 -46 167 -87 242 -138 250 -133 242 -142 220 -117 30 -16 241 -138 250 -137 242 -138 242 -137 113 -63 137 -79 242 -138 242 -141 245 -142 246 -138c-8140,6211 -18163,11862 -30534,16372l-1425 525 -1417 529 -1413 542 -5 0 -1404 546 -4 0 -1397 555 -4 0 -1392 558 -4 4 -1380 563 -4 4 -1371 571 -8 0 -1359 579 -4 5 -1351 579 -8 4 -1342 580 -4 4 -1334 592 -4 4 -1317 587 -9 5 -1300 596 -12 8 -1288 592 -9 8 -1275 600 -13 4 -1262 601 -9 4 -1242 600 -16 4 -1226 604 -12 5 -1213 608 -13 4 -1192 605 -16 4 -1172 600 -16 13 -1159 596 -12 8 -1138 600 -17 8 -1117 601 -17 4 -1096 596 -16 8 -1080 592 -12 8 -1059 592 -13 8 -1037 584 -17 12 -1009 584 -16 8 -988 575 -21 13 -963 571 -17 8 -937 567 -21 13 -913 558 -17 13 -887 554 -17 13 -863 550 -21 8 -833 542 -17 8 -808 538 -17 12 -780 526 -20 8 -751 521 -16 8 -721 513 -21 8 -688 500 -21 13 -662 492 -17 12 -629 479 -17 13 -600 471 -17 12 -563 459 -16 12 -538 446 -17 13 -896 796 -87 79 -13 13 -433 412 -13 13 -400 396 -17 12 -362 388 -13 12 -325 371 -12 17 -288 358 -12 9 -250 346 -13 8 -217 333 -8 9 -175 312 -146 313 -4 8 -100 280 -4 12 -63 267 0 8 -21 250 -4 9 25 233 0 8 63 213 108 204 0 8c24587,-16088 57138,-23411 79132,-35339l221 -121 134 -71 87 -46 217 -121 221 -125 212 -121 217 -121 217 -121 58 -33 159 -87 212 -121 217 -125 421 -246 204 -121 8 -4 213 -125 212 -121 205 -125 417 -254 129 -75 79 -46 208 -129 200 -130 209 -125 200 -129 204 -125 58 -37 142 -92 204 -125 200 -134 196 -129 205 -129 191 -125 4 -4 200 -129 776 -530 125 -83 71 -46 191 -133 380 -267 191 -138 188 -133 58 -42 129 -96 188 -133 183 -137 188 -138 183 -133 184 -138 179 -142 183 -133 184 -142 179 -141 175 -138 121 -87 58 -55 179 -137 175 -138 176 -146 175 -141 170 -142 59 -46 117 -100 166 -142 175 -141 167 -146 167 -142 171 -146c13616,-11870 30738,-28404 34568,-44784 3760,-6873 6894,-14571 9228,-23266l221 -841 17 -55 208 -796 29 -112 192 -738 46 -171 175 -688 58 -225 159 -637 71 -280 145 -583 84 -342 125 -529 100 -400 108 -475 109 -459 95 -417 117 -521 84 -362 129 -584 66 -304 138 -638 50 -246 146 -704 42 -188 150 -767 29 -129 158 -821 17 -75 162 -883 0 -17 159 -900 8 -46 146 -859 17 -108 129 -800 25 -163 112 -746 30 -225 100 -684 37 -287 79 -625 46 -346 63 -567 46 -409 58 -504 46 -471 83 -904 8 -71 34 -388 50 -592 21 -329 41 -646 17 -271 50 -917 33 -771 4 -146 25 -833 0 -88 13 -892 0 -25 0 -921 0 -33 -17 -884 -25 -921 -4 -150 -37 -767 -9 -213 -46 -700 -16 -271 -54 -642 -30 -337 -54 -580 -208 -1763 -9 -58 -70 -513 -59 -395 -33 -205c-183,-1142 -404,-2280 -663,-3413l-191 -796 -30 -100 -225 -855 -12 -41 -254 -892 0 -21 -271 -867 -25 -79 -267 -809 -279 -784 -34 -100 -71 -191 -266 -684 -334 -842 -29 -62 -279 -655 -84 -191 -162 -359 -234 -508 -25 -42 -341 -708 -50 -109 -238 -471 -200 -387 -100 -188 -313 -567 -141 -258 -384 -667 -8 -25 -375 -629 -134 -217 -83 -134c-321,-512 -654,-1029 -1004,-1538l-542 -779 -38 -50 -41 -125 -42 -133 -58 -196 -21 -71 -88 -284 0 0 -83 -295 -21 -71 -67 -238 -41 -154 -42 -167 -63 -237 -25 -96 -83 -334 0 -8 -83 -358 -21 -76 -63 -287 -37 -171 -46 -208 -54 -271 -21 -113 -75 -379 -4 -21 -88 -492 -58 -333 -29 -188 -34 -237 -45 -300 -21 -138 -54 -413 -9 -33 -50 -450 -8 -79 -38 -380 -21 -195 -25 -276 -25 -316 -12 -159 -29 -441 -4 -42 -25 -488 0 -79 -17 -421 -4 -200 -4 -300 -5 -334 0 -179 5 -458 0 -59 16 -521 0 -70 21 -455 8 -204 21 -325 29 -338 63 -667 4 -66 63 -546 8 -67 67 -479 25 -204 58 -346 58 -342 38 -213 92 -479 16 -79 117 -559 17 -58 121 -504 45 -192 21 -88 146 -541 25 -80 67 -229 142 -471 29 -96 187 -567 13 -50 191 -521 67 -187 17 -33 262 -672 100 -245 205 -467 308 -671 17 -38 25 -41 325 -659 4 -4 208 -396 171 -313 0 -4 338 -583 67 -117 70 -113 346 -566 17 -25 467 -696 275 -396 213 -301 195 -258 330 -429 96 -125 446 -550 8 -9 458 -537 125 -142 363 -400 254 -280 254 -258 396 -404 134 -129 550 -534 333 -313 334 -316 342 -317 341 -321 205 -192 141 -133 346 -329 350 -334 355 -333 354 -338 67 -62 291 -275 359 -346 367 -346 366 -350 292 -271 79 -80 371 -358 375 -358 375 -359 380 -362 146 -138 237 -233 384 -367 387 -375 392 -375 375 -367 17 -13 392 -383 400 -384 396 -387 404 -392 229 -221 179 -171 405 -396 408 -400 413 -400 417 -404 62 -63 350 -346 421 -412 421 -409 429 -417 317 -312 104 -104 430 -426 429 -420 438 -426 433 -433 150 -146 288 -283 442 -438 441 -438 442 -437 417 -417 33 -29 446 -446 455 -446 450 -454 458 -451 242 -241 217 -217 458 -459 459 -462 462 -463 467 -467 58 -58 409 -413 471 -471 475 -475 471 -479 342 -342 137 -133 475 -484 480 -487 483 -488 484 -488 154 -154 150 -150 1767 -1796 329 -338 30 -29 3451 -3534 183 -188 3505 -3614 1184 -1229c2747,-2851 5560,-5794 8432,-8828l91 -104 4993 -5306 42 -50 1276 -1363 1267 -1354 16 -21 1288 -1388c2584,-2784 5206,-5635 7857,-8544l1329 -1459 88 -96 1242 -1375 4030 -4464 150 -159 1201 -1350 1358 -1513 2722 -3059 208 -229 1159 -1317 2747 -3114 1379 -1571 259 -296 1117 -1284 1384 -1584 295 -333 1092 -1263 2776 -3213 1397 -1626 1396 -1621 1396 -1638 379 -446 1017 -1201 1405 -1646 2805 -3326 438 -521 962 -1150 1405 -1684 471 -559 938 -1129c1871,-2251 3751,-4522 5622,-6815l1409 -1721 554 -679 851 -1047 1404 -1738 584 -717 821 -1021 1404 -1746 613 -759 796 -992 1401 -1758 637 -801 763 -962c2576,-3256 5147,-6532 7706,-9841l130 -162 125 -171 129 -163 129 -167 125 -162 129 -167 130 -167 125 -166 129 -163 129 -167 125 -166 129 -167 129 -167 126 -162 129 -167 129 -167 125 -162 129 -171 129 -163 125 -166 130 -167 112 -146 13 -21 125 -167 129 -166 129 -167 125 -167 129 -166 125 -163 130 -171 129 -167 125 -162 129 -171 125 -167 129 -162 125 -171 125 -167 130 -162 129 -171 125 -167 129 -167 125 -166 129 -167 125 -167 109 -142 16 -25 130 -171 125 -162 129 -167 129 -171 121 -166 129 -167 125 -171 129 -167 125 -162 130 -171 125 -167 125 -167 125 -166 129 -171 129 -167 125 -167 125 -171 125 -166 129 -167 125 -167c2893,-3847 5773,-7731 8611,-11624l5 -4 295 -404 296 -409 296 -408 592 -813 292 -404 592 -813 221 -313 71 -96 291 -408 296 -409 292 -408 879 -1225 292 -409 292 -408 283 -396 9 -17 291 -404 1455 -2051 292 -412 2892 -4110 284 -413 108 -154 179 -258 288 -413 1713 -2476 287 -412 163 -242 121 -171 283 -413 284 -416 1133 -1655 284 -413 279 -412 229 -329 59 -88 279 -413 283 -416 280 -417 279 -413 279 -412 279 -421 284 -413 279 -417 279 -412 -4 -5 0 -4 0 -4 -4 -8 0 -4 -4 -9 -4 -12 0 -9 -5 -12 -4 -17 -8 -12 0 -5 -4 -12 -4 -8 -5 -13 -8 -17 -4 -20 -13 -30 -8 -16 -8 -25 -9 -25 0 -4 -12 -25 -8 -30 -13 -29 -12 -25 0 -4 -13 -33 -17 -34 -12 -37 -13 -29 0 -4 -16 -42 -17 -33 -17 -46 -41 -80 -17 -45 -21 -46 -21 -42 0 -4 -25 -50 -20 -46 -21 -50 -25 -46 0 -8 -30 -54 -25 -54 -25 -55 -29 -54 0 0 -29 -62 -29 -59 -29 -58 -29 -58 -5 -9 -29 -58 -33 -67 -33 -66 -38 -59 0 -8 -33 -67 -42 -71 -33 -71 -38 -66 -4 -4 -38 -71 -216 -388 -46 -83 -46 -71 -4 -8 17 -21 95 -146 100 -146 100 -150 96 -150 96 -150 104 -150 100 -150 100 -154 105 -151 100 -154 100 -150 100 -154 104 -150 96 -150 100 -154 100 -150 100 -146 100 -150 96 -146 96 -146 96 -146 91 -142 96 -137 92 -142 87 -133 92 -138 88 -129 87 -129 83 -125 80 -125 83 -121 79 -121 71 -113 79 -108 71 -108 67 -109 66 -96 67 -95 58 -96 63 -84 54 -87 50 -75 0 -4 0 -4 -4 -5 0 -8 -4 -12 -4 -5 -9 -20 -4 -13 -4 -13 -12 -29 -9 -16 -4 -21 -17 -38 -41 -91 -5 -17 -20 -33 -25 -63 -5 -12 -25 -50 -33 -67 0 -8 -33 -63c3559,-5114 7169,-10349 10832,-15705l1471 -2150c2476,-3622 4973,-7307 7494,-11041l305 -450 4151 -6169 4189 -6268 4234 -6377 438 -663 7140 -10833 1021 -1558 4364 -6682 4030 -6201 6527 -10133 5339 -8348 6798 -10695 4093 -6485 300 -475 4664 -7444 1363 -2184 5660 -9082 7927 -12837 3139 -5114c2659,-4339 5355,-8757 8052,-13204l4831 -7974c2876,-4764 5772,-9569 8694,-14454l3255 -5448c3180,-5330 6390,-10736 9620,-16209l2821 -4776c3635,-6173 7294,-12421 10995,-18768l1755 -3014c3714,-6381 7461,-12862 11237,-19426l1134 -1951 112 -204 1080 -1884c3847,-6702 7727,-13492 11641,-20385l1563 -2747c4163,-7340 8365,-14780 12608,-22336l500 -896 100 -175 216 -384c4156,-7410 8357,-14950 12583,-22573l2335 -4206c4426,-7994 8877,-16079 13383,-24307l79 -146c4522,-8256 9094,-16663 13696,-25162l1838 -3392c4668,-8632 9369,-17364 14117,-26242l58 -112c4818,-9007 9686,-18164 14588,-27433l1242 -2343c4739,-8965 9511,-18051 14333,-27262l625 -1188 38 -79 600 -1151c4785,-9157 9607,-18430 14471,-27833l1367 -2643c5052,-9769 10141,-19660 15276,-29692l221 -437 20 -42 171 -329c4977,-9728 9999,-19611 15051,-29597l2209 -4360c5180,-10236 10390,-20593 15646,-31105 0,0 3255,-7623 1363,-12729 408,-771 604,-1225 525,-1288 -579,-404 -1188,-671 -1821,-858 -425,-471 -934,-913 -1563,-1255 -88,-54 -438,309 -1000,988 -5586,417 -11462,6394 -11462,6394 -8244,9457 -16364,18805 -24358,28058l-321 371c-8002,9257 -15879,18418 -23640,27467l-208 242c-7690,8981 -15276,17859 -22732,26641l-225 271c-7515,8848 -14917,17597 -22190,26245l-30 34 -387 458c-6877,8173 -13638,16255 -20311,24253l-1817 2176c-6735,8086 -13383,16088 -19914,23991l-109 137 -541 654c-6140,7436 -12167,14780 -18123,22053l-3588 4389c-4947,6056 -9824,12053 -14650,18001l-5435 6715c-5123,6339 -10199,12633 -15184,18847l-2518 3147c-5330,6656 -10582,13245 -15754,19760l-1113 1396 -775 980c-5402,6818 -10712,13554 -15943,20214l-2317 2959c-4622,5894 -9170,11721 -13654,17489l-2947 3801c-4760,6131 -9436,12200 -14046,18197l-2955 3860c-4147,5410 -8232,10761 -12254,16059l-3013 3968c-4260,5622 -8453,11174 -12575,16671l-3405 4548 -9407 12628 -6323 8541c-2921,3963 -5831,7902 -8681,11799l-4577 6256 -8236 11337 -5489 7606 -7577 10570 -4947 6944 -6994 9882 -6131 8728 -4681 6698 -7110 10253 -4535 6589 -300 446 -6952 10174 -3268 4818 -6806 10103 -4131 6185c-2467,3697 -4876,7348 -7256,10958l-1471 2230c-2355,3584 -4672,7135 -6948,10636l-83 121 -3747 5794 -200 20 -30 5 -71 8 -75 12 -12 5 -50 8 -42 8 -4 0 -21 4 -8 5 -33 50 -17 25 -21 25 -37 54 -38 54 -25 25 -17 29 -45 59 -46 58 -21 29 -21 29 -50 54 -46 63 -25 29 -29 29 -50 63 0 0 -50 62 -29 34 -79 96 -5 0 -54 66 -29 34 -25 29 -63 66 -4 0 -54 67 -33 33 -25 34 -63 71 -4 0 -58 66 -34 38 -29 33 -66 67 0 4 -67 67 -33 37 -30 34 -66 70 -5 5 -66 66 -38 38 -29 33 -71 75 -4 0 -62 71 -42 42 -29 33 -71 75 -4 4 -67 71 -42 38 -33 37 -71 71 -4 4 -67 71 -46 42 -29 33 -75 75 -4 4 -71 75 -41 42 -30 33 -79 75 0 4 -71 71 -41 46 -38 29 -71 80 -4 4 -71 75 -46 41 -29 34 -75 75 -8 4 -71 71 -42 46 -29 33 -75 79 -8 4 -67 71 -46 42 -29 33 -75 75 -4 9 -71 66 -42 46 -33 29 -71 79 -8 9 -71 66 -42 46 -29 29 -75 76 -4 8 -63 67 -41 45 -34 30 -75 75 -4 4 -62 71 -109 -9 -104 -8 -75 -8 -33 0 -100 -9 -104 -4 -92 -4 -54 -8 -46 0 -96 -9 -92 0 -91 -4 -34 -4 -54 0 -92 -4 -83 0 -83 -4 -17 0 -67 0 -79 -5 -79 -4 -75 4 -9 -4 -70 0 -71 0 -71 0 -63 0 -8 0 -67 0 -70 0 -59 0 -46 0 -21 4 -58 -4 -62 4 -55 5 -33 -5 -25 5 -54 0 -54 0 -46 4 -21 0 -33 4 -46 0 -46 4 -42 4 -8 0 -38 0 -37 4 -42 0 -33 5 -38 4 -33 4 -25 0 -8 0 -29 0 -5 4 -25 0 -29 4 -25 4 -16 0 -9 0 -25 5 -16 0 -21 4 -13 0 -8 0 -13 4 -16 0 -13 4 -37 8 -5 0 -4 0 -4 0z"/>
   <path class="fil1" d="M18906 961945c1817,22974 -18906,40750 -18906,40750 4460,546 11028,-2696 18797,-8577 -7656,20777 -20343,40866 -15138,54666 13413,-35915 30497,-40420 30497,-40420 -33347,32847 -35982,79636 -21781,79549 4563,-10741 11791,-18894 20810,-25625 -8223,11420 -8611,18610 -8611,18610 9078,-12787 20194,-23307 31856,-31939 22594,-10420 49790,-18489 74614,-33310 -8782,6673 -19264,12792 -31806,17735 -30846,12158 -59909,30646 -57938,34960 31685,-21052 72401,-28700 94566,-47568 14946,-12725 34002,-30405 40375,-47711 4722,-7293 8990,-15442 12654,-24628 8056,-20193 16075,-44559 3984,-63452 -4976,-7774 -11632,-16872 -23253,-25358 -14025,-10257 -25324,-15980 -37861,-16643 -7561,-400 -15842,2164 -23962,6231 -33556,5506 -92182,71097 -88897,112730z"/>
   <path class="fil2" d="M130389 992392c0,0 59969,-55017 54955,-88656 0,0 -6757,31276 -14751,34681 -7994,3406 -6943,2014 -4276,-6877 2672,-8886 1309,-22302 -4818,-4380 -6119,17930 -38278,41608 -34569,42971 3718,1355 3739,9374 17826,-8340 14096,-17709 27984,-21744 12529,-5797 -15467,15946 -35244,40270 -26896,36398z"/>
   <path class="fil2" d="M94408 974612c1404,-1017 28204,-27404 41083,-45310 12875,-17909 28709,-45947 23561,-41842 -5147,4110 -15904,27263 -29538,41684 -13633,14417 -36586,46518 -35106,45468z"/>
   <path class="fil2" d="M74189 936000l29780 -39312c0,0 19714,-17088 26229,-19435 6518,-2342 -409,7698 -11483,16055 -11062,8357 -31885,34060 -37303,39429 -5426,5364 -10803,7098 -7223,3263z"/>
   <path class="fil2" d="M93128 950346c3743,-2251 25566,-22127 35215,-36649 9649,-14525 21777,-35910 13913,-27320 -7869,8602 -13096,23569 -19460,27487 -6357,3926 -6519,2343 -2126,-5247 4389,-7590 -3839,-6556 -3839,-6556 0,0 -30909,39920 -18351,30505 12549,-9424 20969,-12504 14079,-6081 -6890,6427 -19431,23861 -19431,23861z"/>
   <path class="fil2" d="M59160 920979c2467,-3280 28717,-37928 48568,-49832 19848,-11895 11000,-1121 1147,7431 -9858,8545 -19823,19911 -27450,30877 -7623,10965 -14042,22119 -14042,22119 0,0 21398,-31831 13291,-25600 -8115,6236 -23974,18235 -21514,15005z"/>
   <path class="fil2" d="M117160 967818c5306,-2530 32035,-28871 38125,-43180 6093,-14300 5426,-16997 -3522,-3397 -8953,13605 -22670,27225 -16005,18448 6652,-8791 19097,-27021 11157,-19206 -7944,7815 -29755,47335 -29755,47335z"/>
   <path class="fil2" d="M59268 906499c-4043,7136 -13437,12383 -13437,12383 3342,-6197 15817,-28041 26883,-36402 11078,-8349 -9395,16896 -13446,24019z"/>
   <path class="fil3" d="M153484 849586l12691 7419 4660 2801 12391 12304c0,0 172198,-94129 633513,-855138 0,0 4364,-8078 3405,-13417 529,-821 788,-1304 717,-1367 -483,-421 -1021,-683 -1592,-871 -334,-496 -734,-946 -1280,-1296 -71,-54 -466,333 -1117,1054 -5389,534 -11987,6923 -11987,6923 -607559,650243 -651401,841588 -651401,841588z"/>
   <path class="fil4" d="M356470 614628c31910,25166 31723,40133 31852,41046 1325,-1722 5193,-6903 6498,-8628 0,0 -1472,-11666 -34403,-37632 -37944,-25871 -49002,-22507 -49002,-22507 -1309,1725 -5410,5239 -6710,6969 942,-150 15033,-4293 51765,20752z"/>
   <path class="fil5" d="M303538 591729c-65762,86831 -118982,186948 -140643,230516 -9940,19997 -30659,20702 -30659,20702 0,0 18501,3105 37115,17930 18610,14821 25904,29809 25904,29809 0,0 -4935,-20143 11616,-35127 36073,-32652 118523,-112963 184285,-199785 0,0 -1767,-15259 -34686,-41217 -37957,-25870 -52932,-22828 -52932,-22828z"/>
   <path class="fil4" d="M194859 889144c0,0 458,-14158 -21594,-30451 -22057,-16296 -27162,-16080 -40166,-15717 0,0 19618,7715 36682,20831 17038,13117 24324,25579 24903,25808 592,242 175,-471 175,-471z"/>
   <path class="fil6" d="M303129 600173c-65765,86822 -117569,180413 -138604,224047 -4747,9845 -5739,12350 -5739,12350 0,0 2946,-3334 20277,8853 13354,9390 12612,11953 12612,11953 0,0 2855,-933 19039,-16188 35285,-33248 100509,-100906 166279,-187723 0,0 2247,-6232 -31443,-32535 -33935,-22841 -42421,-20757 -42421,-20757z"/>
   <path class="fil7" d="M170748 824345c-3735,7111 12595,-6397 19510,13396 6639,-5185 152871,-136058 179967,-188344 -3531,-6381 -16151,-18281 -25862,-25933 -25033,-19219 -30547,-16730 -39187,-18614 -34056,39012 -129398,209526 -134428,219495z"/>
   <path class="fil8" d="M187190 814613c0,0 77457,-130802 87097,-136937 5164,-3276 13959,1842 13467,8773 -500,6915 -101439,143427 -100564,128164z"/>
   <path class="fil9" d="M369958 685328l392 113c1854,2955 917,7073 -2122,9178 -3030,2104 -7014,1425 -8882,-1534 -16,8 -496,-800 -1775,-2530 -1309,-1738 -3322,-4289 -6110,-7452 -5610,-6336 -14384,-15088 -26892,-24562 -12520,-9486 -28775,-19681 -49386,-28917 -3176,-1425 -4447,-5285 -2826,-8636 1618,-3334 5515,-4893 8686,-3484 21457,9615 38487,20281 51666,30271 26375,19973 37324,37178 37628,37658l-379 -105z"/>
   <path class="fil10" d="M369212 687429l4 -13c1859,2964 917,7078 -2122,9191 -3025,2113 -7014,1429 -8881,-1530 -5,-4 -496,-800 -1780,-2538 -1292,-1726 -3301,-4285 -6102,-7444 -5610,-6335 -14375,-15100 -26887,-24570 -12512,-9486 -28780,-19689 -49386,-28905 -3180,-1429 -4447,-5301 -2822,-8644 1617,-3334 5502,-4897 8678,-3484 21461,9619 38491,20281 51670,30259 26366,19981 37319,37190 37628,37678z"/>
   <path class="fil11" d="M362089 691543c3834,533 1896,-2430 -838,-7077 -2726,-4648 -37582,-46127 -80837,-59898 0,0 -5627,926 -1742,5656 1730,2113 24870,10503 46651,27279 20090,15459 32923,33502 36766,34040z"/>
   <path class="fil12" d="M341628 667981c0,0 -16146,-16980 -34523,-28183 -21965,-13388 -30642,-13884 -26041,-9986 4602,3888 26212,11741 38737,21631 12525,9895 21827,16538 21827,16538z"/>
   <path class="fil9" d="M349010 707089l362 100c1722,2722 880,6494 -1904,8419 -2776,1918 -6452,1276 -8186,-1458 -8,8 -463,-730 -1651,-2330 -1200,-1605 -3067,-3956 -5664,-6869 -5193,-5844 -13321,-13925 -24895,-22686 -11562,-8765 -26591,-18218 -45614,-26804 -2934,-1321 -4118,-4868 -2646,-7936 1475,-3047 5051,-4455 7973,-3138 19810,8936 33981,17734 46172,26975l1559 1075c24391,18468 34561,34314 34840,34752l-346 -100z"/>
   <path class="fil10" d="M348330 709006l9 -4c1738,2726 888,6490 -1897,8419 -2784,1913 -6447,1263 -8185,-1458 -9,4 -459,-734 -1651,-2330 -1200,-1592 -3076,-3956 -5660,-6869 -5206,-5839 -13325,-13917 -24891,-22682 -11578,-8765 -26608,-18218 -45618,-26796 -2942,-1325 -4122,-4872 -2655,-7944 1471,-3059 5052,-4455 7973,-3138 19811,8932 35553,18814 47732,28046 24386,18468 34560,34319 34843,34756z"/>
   <path class="fil11" d="M341799 712745c3539,517 1743,-2209 -808,-6494 -2547,-4288 -34852,-42521 -74748,-55391 0,0 -5168,821 -1571,5180 1604,1934 22957,9766 43096,25279 18568,14292 30497,30917 34031,31426z"/>
   <path class="fil12" d="M322844 691026c0,0 -14967,-15680 -31943,-26054 -20290,-12399 -28292,-12908 -24033,-9307 4260,3597 24208,10924 35782,20060 11587,9145 20194,15301 20194,15301z"/>
   <path class="fil8" d="M322298 631979c0,0 9686,-12216 6122,-16359 -3563,-4139 -6639,-3276 -10432,-1826 -3772,1459 -12208,10687 -8115,12346 4097,1663 8803,8844 12425,5839z"/>
   <path class="fil8" d="M301133 657020c0,0 -9732,-4272 -9803,-6444 -75,-2167 1734,-4805 2730,-4831 1013,-29 8215,4669 9574,6761 1371,2092 -467,6052 -2501,4514z"/>
   <path class="fil13" d="M213694 780478c0,0 47639,-54921 41379,-60781 -7044,-6581 -32005,45326 -41379,60781z"/>
   <path class="fil14" d="M288908 666502c0,0 -17722,-7140 -17355,-9207 1205,-6981 15780,7177 17355,9207z"/>
   <path class="fil14" d="M306013 641486c0,0 -20973,-7698 -20452,-10566 1713,-9549 19773,8386 20452,10566z"/>
   <path class="fil15" d="M145436 851283c0,0 -23753,-6990 -51333,12512 0,0 -4918,850 -16784,22148 -10019,17993 7890,-16038 23437,-20781 15554,-4747 -13392,21056 -13471,30184 -71,9115 14287,-22232 29871,-31539 15588,-9298 -17947,30464 -17947,30464 0,0 25783,-27279 34340,-31802 8561,-4543 -16368,26138 -24528,34648 -8153,8507 23161,-13658 31688,-28316 8540,-14642 5844,-6590 5810,-2026 -41,4560 -27350,31601 -29154,38499 -1813,6890 30242,-37670 35160,-38541 4923,-854 -17642,33452 -23490,40037 -5839,6582 28313,-41883 31676,-38415 3355,3459 -24653,48318 -24653,48318 0,0 19706,-32793 28375,-36327 8661,-3539 -22503,39862 -20873,41083 1630,1246 23782,-37040 29997,-35086 6210,1947 -17001,34848 -21315,41667 -4314,6831 29488,-25387 30442,-35682 963,-10286 -2150,23162 -11628,33415 -9486,10257 5973,4530 13316,-11937 7336,-16472 2297,12745 734,17072 -1563,4309 21373,-36124 -12625,-60039 -20281,-17197 -27045,-19556 -27045,-19556z"/>
   <path class="fil2" d="M72714 882480c11078,-8349 14950,-5419 14950,-5419 0,0 -24345,22315 -28396,29438 -4043,7136 2380,-15658 13446,-24019z"/>
   <path class="fil15" d="M134603 1005963c0,0 -14279,12604 -28212,12229 -13938,-376 -21244,4280 -39400,16992 -18168,12717 -32451,25316 -23624,13667 8820,-11637 25062,-26833 20311,-24320 -4748,2517 -24154,19377 -24645,20027 -488,646 11503,-12679 19831,-23674 8327,-10999 -21132,5364 -31089,22269 -9953,16893 -16080,11229 -783,-7719 15300,-18947 30038,-27145 30188,-31101 154,-3951 -19210,7853 -16651,5714 2563,-2129 6865,-9048 10899,-13120 4022,-4081 -25237,3280 -30030,10849 -4785,7577 4793,-7569 12254,-16167 7460,-8599 -4289,-9357 -10999,-4252 -6702,5093 5693,1251 4234,-13091 -1463,-14346 7974,-41813 15555,-49307 7573,-7506 -6110,5556 -5181,25600 926,20052 -1371,19330 11600,4714 12962,-14617 -3581,-7803 -1405,8089 2180,15909 9295,3993 17893,-9861 8598,-13842 8840,-17501 8840,-17501 0,0 14909,-11345 5335,3805 -9586,15151 -18626,24591 -17839,32306 784,7727 6244,6765 15217,-8836 8974,-15605 30410,-28896 25671,-26375 -4752,2509 -30651,42959 -30651,42959 0,0 14850,-23353 37053,-40141 22190,-16805 -31927,35898 -33327,43988 -1401,8103 33197,-28817 43559,-36240 10357,-7423 -28871,33114 -31743,43159 -2868,10045 12887,-4497 26946,-19298 14058,-14812 -13229,17468 -14746,24458 -1513,7006 9069,1788 25699,-15146 16617,-16943 -20540,22110 -19235,24119 1321,2022 8707,3531 22986,-9061 14279,-12599 -10636,26550 5489,10266z"/>
   <path class="fil16" d="M69825 1013915c0,0 32402,-20260 22190,-16796 -10203,3476 -26783,15350 -17738,5914 9044,-9436 26537,-28776 17638,-23299 -8890,5489 -23999,15430 -23999,15430 0,0 4197,-8032 7057,-18072 2859,-10049 -3051,2767 -10320,2367 -7273,-417 4009,-15305 7811,-21577 3805,-6277 -9049,9432 -18423,15567 -9390,6135 -14621,9290 -6585,-10087 8036,-19355 -3047,-13495 -6219,4460 -3180,17951 1305,18302 6319,12937 5006,-5368 14542,-15463 5039,5856 -9503,21303 -3017,13988 4443,5394 7461,-8599 8403,-4831 2259,5776 -6156,10629 13821,-725 13821,-725 0,0 -9903,11837 -13462,15259 -3539,3430 10169,1596 10169,1596z"/>
   <path class="fil17" d="M638 1003166c4443,546 11011,-2696 18793,-8569 -7657,20781 -20348,40862 -15138,54654 13404,-35903 30493,-40404 30493,-40404 -33348,32839 -35978,79628 -21782,79537 4560,-10733 11787,-18898 20806,-25633 -8219,11433 -8607,18610 -8607,18610 9066,-12775 20194,-23291 31856,-31927 17910,-8265 38687,-15096 58901,-24932 -3693,-71 -8778,925 -16046,2609 -20277,4710 -33869,7081 -22620,-1292 11262,-8365 29380,-11541 40217,-29717 10836,-18206 14008,-37970 -12212,-12429 -26229,25545 -55034,55229 -57493,48089 -2451,-7131 29592,-33314 33769,-37540 4184,-4222 21419,-21794 10599,-20486 -10812,1313 -24341,26967 -25508,15522 -1171,-11445 24991,-37370 27992,-42150 13446,-21328 -4664,-39462 -26379,-30018 -27879,12116 -17397,54375 -24049,68346 -6652,13967 -18510,15054 -16030,5310 2459,-9749 4022,-31568 -2188,-24649 -3451,3826 -6356,13900 -10574,17046 -5610,12092 -14800,20023 -14800,20023z"/>
   <path class="fil17" d="M117586 1026140c-5677,3301 -11892,6352 -18739,9053 -30843,12157 -59906,30659 -57939,34968 26496,-17609 59268,-25853 82267,-39111 -1230,-2764 -2930,-4314 -5589,-4910z"/>
   <path class="fil17" d="M118102 960078c0,0 42122,-31630 32444,-44238 -11450,-14934 -10845,9419 -20082,22327 -9248,12896 -23978,26763 -12362,21911z"/>
   <path class="fil16" d="M132811 856418c-2146,550 -6965,-4493 -13862,4605 -6886,9103 -376,509 9948,-417 10328,-933 1613,-1162 -5105,9662 -6698,10824 -967,3238 9298,-2497 10274,-5752 6227,-7227 -412,4451 -6615,11687 -1422,596 8031,-3421 9445,-4023 8219,-3368 5331,2404 -2888,5769 4030,5435 4526,1838 505,-3592 4060,1488 3556,5081 -492,3597 -1317,-204 5160,-4847 6472,-4643 -15468,-19664 -26471,-16859z"/>
   <path class="fil18" d="M63273 968973c2230,-1593 29647,-24258 23641,-32264 -6015,-8015 -16055,-13892 -20381,-738 -4331,13162 -9728,43676 -13058,48073 -3331,4397 6276,-12550 9798,-15071z"/>
   <path class="fil18" d="M90823 1012327c0,0 28455,-17372 22507,-20143 -5947,-2776 -22507,20143 -22507,20143z"/>
   <path class="fil18" d="M12754 1066510c-384,-3742 16505,-41987 21598,-47643 5085,-5673 18435,-13721 11779,-4931 -6669,8807 -33377,52574 -33377,52574z"/>
   <path class="fil19" d="M14263 1058133c37,-4285 10907,-36724 17338,-43084 6431,-6377 12262,-14063 13738,-18139 1475,-4068 11528,-10841 6089,17 -5460,10836 -37165,61206 -37165,61206z"/>
   <path class="fil19" d="M96337 1006125c2105,-1763 15555,-14175 9157,-12091 -6397,2059 -13520,15705 -9157,12091z"/>
   <path class="fil20" d="M351311 564963c0,0 232899,-301258 308718,-373618 0,0 -283115,356317 -296065,380353 0,0 -4151,-4872 -12653,-6735z"/>
  </g>
 </g>
</svg>
