<?xml version="1.0" encoding="UTF-8"?>
<!DOCTYPE svg PUBLIC "-//W3C//DTD SVG 1.1//EN" "http://www.w3.org/Graphics/SVG/1.1/DTD/svg11.dtd">
<!-- Creator: CorelDRAW X7 -->
<svg xmlns="http://www.w3.org/2000/svg" xml:space="preserve" width="1.65265in" height="1.93726in" version="1.1" style="shape-rendering:geometricPrecision; text-rendering:geometricPrecision; image-rendering:optimizeQuality; fill-rule:evenodd; clip-rule:evenodd"
viewBox="0 0 1236 1449"
 xmlns:xlink="http://www.w3.org/1999/xlink">
 <defs>
  <style type="text/css">
   <![CDATA[
    .str0 {stroke:white;stroke-width:2.24338;stroke-opacity:0.231373}
    .str1 {stroke:#FFA7FF;stroke-width:37.3867}
    .fil4 {fill:black}
    .fil0 {fill:black;fill-rule:nonzero}
    .fil1 {fill:yellow;fill-rule:nonzero}
    .fil2 {fill:white;fill-opacity:0.231373}
    .fil17 {fill:url(#id0)}
    .fil11 {fill:url(#id1)}
    .fil28 {fill:url(#id2)}
    .fil33 {fill:url(#id3)}
    .fil8 {fill:url(#id4)}
    .fil10 {fill:url(#id5)}
    .fil27 {fill:url(#id6)}
    .fil35 {fill:url(#id7)}
    .fil19 {fill:url(#id8)}
    .fil18 {fill:url(#id9)}
    .fil30 {fill:url(#id10)}
    .fil9 {fill:url(#id11)}
    .fil20 {fill:url(#id12)}
    .fil34 {fill:url(#id13)}
    .fil31 {fill:url(#id14)}
    .fil13 {fill:url(#id15)}
    .fil16 {fill:url(#id16)}
    .fil24 {fill:url(#id17)}
    .fil15 {fill:url(#id18)}
    .fil14 {fill:url(#id19)}
    .fil7 {fill:url(#id20)}
    .fil26 {fill:url(#id21)}
    .fil29 {fill:url(#id22)}
    .fil25 {fill:url(#id23)}
    .fil5 {fill:url(#id24)}
    .fil22 {fill:url(#id25)}
    .fil32 {fill:url(#id26)}
    .fil21 {fill:url(#id27)}
    .fil6 {fill:url(#id28)}
    .fil12 {fill:url(#id29)}
    .fil23 {fill:url(#id30)}
    .fil3 {fill:url(#id31)}
   ]]>
  </style>
  <linearGradient id="id0" gradientUnits="userSpaceOnUse" x1="1167.75" y1="504.569" x2="996.456" y2="545.504">
   <stop offset="0" style="stop-opacity:1; stop-color:#F9F073"/>
   <stop offset="1" style="stop-opacity:1; stop-color:#DFA438"/>
  </linearGradient>
  <linearGradient id="id1" gradientUnits="userSpaceOnUse" x1="853.353" y1="712.088" x2="743.746" y2="728.604">
   <stop offset="0" style="stop-opacity:1; stop-color:#D79AC4"/>
   <stop offset="1" style="stop-opacity:1; stop-color:#AB509D"/>
  </linearGradient>
  <linearGradient id="id2" gradientUnits="userSpaceOnUse" x1="523.744" y1="680.383" x2="391.92" y2="701.204">
   <stop offset="0" style="stop-opacity:1; stop-color:#FCE622"/>
   <stop offset="1" style="stop-opacity:1; stop-color:#F79233"/>
  </linearGradient>
  <linearGradient id="id3" gradientUnits="userSpaceOnUse" x1="359.018" y1="554.616" x2="67.8373" y2="568.576">
   <stop offset="0" style="stop-opacity:1; stop-color:#553A77"/>
   <stop offset="1" style="stop-opacity:1; stop-color:#6A60A8"/>
  </linearGradient>
  <linearGradient id="id4" gradientUnits="userSpaceOnUse" x1="755.531" y1="501.94" x2="799.197" y2="501.534">
   <stop offset="0" style="stop-opacity:1; stop-color:#4165AD"/>
   <stop offset="1" style="stop-opacity:1; stop-color:#2CC2F1"/>
  </linearGradient>
  <linearGradient id="id5" gradientUnits="userSpaceOnUse" xlink:href="#id1" x1="776.372" y1="706.282" x2="689.039" y2="788.752">
  </linearGradient>
  <linearGradient id="id6" gradientUnits="userSpaceOnUse" x1="308.806" y1="815.943" x2="462.216" y2="660.443">
   <stop offset="0" style="stop-opacity:1; stop-color:#F79233"/>
   <stop offset="1" style="stop-opacity:1; stop-color:#FCE622"/>
  </linearGradient>
  <linearGradient id="id7" gradientUnits="userSpaceOnUse" x1="231.009" y1="564.319" x2="329.153" y2="558.154">
   <stop offset="0" style="stop-opacity:1; stop-color:#665AA5"/>
   <stop offset="1" style="stop-opacity:1; stop-color:#CBC3E0"/>
  </linearGradient>
  <linearGradient id="id8" gradientUnits="userSpaceOnUse" x1="616.606" y1="563.58" x2="506.851" y2="569.374">
   <stop offset="0" style="stop-opacity:1; stop-color:#2474AC"/>
   <stop offset="1" style="stop-opacity:1; stop-color:#51C8EB"/>
  </linearGradient>
  <linearGradient id="id9" gradientUnits="userSpaceOnUse" x1="1170.71" y1="549.808" x2="1101.17" y2="539.156">
   <stop offset="0" style="stop-opacity:1; stop-color:#F9F8CE"/>
   <stop offset="1" style="stop-opacity:1; stop-color:#E4D33C"/>
  </linearGradient>
  <linearGradient id="id10" gradientUnits="userSpaceOnUse" x1="396.881" y1="920.787" x2="714.853" y2="905.873">
   <stop offset="0" style="stop-opacity:1; stop-color:#F3D6E6"/>
   <stop offset="1" style="stop-opacity:1; stop-color:#C067A8"/>
  </linearGradient>
  <linearGradient id="id11" gradientUnits="userSpaceOnUse" x1="654.808" y1="758.79" x2="810.602" y2="736.262">
   <stop offset="0" style="stop-opacity:1; stop-color:#CA7CB3"/>
   <stop offset="1" style="stop-opacity:1; stop-color:#984397"/>
  </linearGradient>
  <linearGradient id="id12" gradientUnits="userSpaceOnUse" x1="606.785" y1="520.25" x2="516.672" y2="612.705">
   <stop offset="0" style="stop-opacity:1; stop-color:#86D3E4"/>
   <stop offset="1" style="stop-opacity:1; stop-color:#1E97C6"/>
  </linearGradient>
  <linearGradient id="id13" gradientUnits="userSpaceOnUse" xlink:href="#id7" x1="149.317" y1="623.737" x2="277.537" y2="499.456">
  </linearGradient>
  <linearGradient id="id14" gradientUnits="userSpaceOnUse" x1="491.259" y1="973.675" x2="621.714" y2="853.624">
   <stop offset="0" style="stop-opacity:1; stop-color:#DDA5CA"/>
   <stop offset="1" style="stop-opacity:1; stop-color:#FDF6F9"/>
  </linearGradient>
  <linearGradient id="id15" gradientUnits="userSpaceOnUse" x1="627.552" y1="162.33" x2="503.13" y2="275.023">
   <stop offset="0" style="stop-opacity:1; stop-color:#F7ADB4"/>
   <stop offset="1" style="stop-opacity:1; stop-color:#E33439"/>
  </linearGradient>
  <linearGradient id="id16" gradientUnits="userSpaceOnUse" x1="982.198" y1="488.592" x2="1182.01" y2="561.469">
   <stop offset="0" style="stop-opacity:1; stop-color:#F9E543"/>
   <stop offset="1" style="stop-opacity:1; stop-color:#D7B43A"/>
  </linearGradient>
  <linearGradient id="id17" gradientUnits="userSpaceOnUse" x1="527.195" y1="330.157" x2="388.476" y2="344.848">
   <stop offset="0" style="stop-opacity:1; stop-color:#BDD63F"/>
   <stop offset="1" style="stop-opacity:1; stop-color:#75994A"/>
  </linearGradient>
  <linearGradient id="id18" gradientUnits="userSpaceOnUse" xlink:href="#id15" x1="631.591" y1="323.156" x2="582.154" y2="329.25">
  </linearGradient>
  <linearGradient id="id19" gradientUnits="userSpaceOnUse" xlink:href="#id15" x1="688.845" y1="171.257" x2="574.214" y2="161.747">
  </linearGradient>
  <linearGradient id="id20" gradientUnits="userSpaceOnUse" x1="745.586" y1="336.004" x2="858.202" y2="346.438">
   <stop offset="0" style="stop-opacity:1; stop-color:#435CA7"/>
   <stop offset="1" style="stop-opacity:1; stop-color:#2CC2F1"/>
  </linearGradient>
  <linearGradient id="id21" gradientUnits="userSpaceOnUse" x1="220.057" y1="736.441" x2="550.971" y2="739.939">
   <stop offset="0" style="stop-opacity:1; stop-color:#F9A431"/>
   <stop offset="1" style="stop-opacity:1; stop-color:#F05736"/>
  </linearGradient>
  <linearGradient id="id22" gradientUnits="userSpaceOnUse" x1="432.914" y1="853.568" x2="413.124" y2="855.918">
   <stop offset="0" style="stop-opacity:1; stop-color:#FFCE28"/>
   <stop offset="1" style="stop-opacity:1; stop-color:#F79233"/>
  </linearGradient>
  <linearGradient id="id23" gradientUnits="userSpaceOnUse" x1="449.554" y1="496.732" x2="417.964" y2="500.165">
   <stop offset="0" style="stop-opacity:1; stop-color:#ABD044"/>
   <stop offset="1" style="stop-opacity:1; stop-color:#75994A"/>
  </linearGradient>
  <linearGradient id="id24" gradientUnits="userSpaceOnUse" x1="814.842" y1="376.264" x2="659.819" y2="414.46">
   <stop offset="0" style="stop-opacity:1; stop-color:#3A4A9C"/>
   <stop offset="1" style="stop-opacity:1; stop-color:#448AC9"/>
  </linearGradient>
  <linearGradient id="id25" gradientUnits="userSpaceOnUse" x1="474.095" y1="372.49" x2="305.012" y2="407.077">
   <stop offset="0" style="stop-opacity:1; stop-color:#43603B"/>
   <stop offset="1" style="stop-opacity:1; stop-color:#8EA848"/>
  </linearGradient>
  <linearGradient id="id26" gradientUnits="userSpaceOnUse" x1="680.91" y1="889.718" x2="562.311" y2="902.301">
   <stop offset="0" style="stop-opacity:1; stop-color:#FDF6F9"/>
   <stop offset="1" style="stop-opacity:1; stop-color:#DDA5CA"/>
  </linearGradient>
  <linearGradient id="id27" gradientUnits="userSpaceOnUse" xlink:href="#id12" x1="684.164" y1="560.386" x2="562.853" y2="575.554">
  </linearGradient>
  <linearGradient id="id28" gradientUnits="userSpaceOnUse" x1="798.267" y1="337.429" x2="676.394" y2="453.295">
   <stop offset="0" style="stop-opacity:1; stop-color:#2CC2F1"/>
   <stop offset="1" style="stop-opacity:1; stop-color:#4165AD"/>
  </linearGradient>
  <linearGradient id="id29" gradientUnits="userSpaceOnUse" x1="485.81" y1="222.186" x2="644.872" y2="215.161">
   <stop offset="0" style="stop-opacity:1; stop-color:#EE3737"/>
   <stop offset="1" style="stop-opacity:1; stop-color:#B43437"/>
  </linearGradient>
  <linearGradient id="id30" gradientUnits="userSpaceOnUse" xlink:href="#id17" x1="470.978" y1="309.825" x2="308.129" y2="469.747">
  </linearGradient>
  <radialGradient id="id31" gradientUnits="userSpaceOnUse" gradientTransform="matrix(8.18636E-017 -1.33693 1.33693 8.18636E-017 -185 815)" cx="324.872" cy="381.063" r="237.074" fx="324.872" fy="381.063">
   <stop offset="0" style="stop-opacity:1; stop-color:#DDD2FD"/>
   <stop offset="1" style="stop-opacity:1; stop-color:#C82B65"/>
  </radialGradient>
 </defs>
 <g id="__x0023_Layer_x0020_1">
  <metadata id="CorelCorpID_0Corel-Layer"/>
  <path class="fil0" d="M53 1373c-1,-5 -1,-10 -1,-15 1,-5 2,-10 4,-14 1,-2 2,-4 3,-6 1,-2 3,-5 3,-7 1,-1 2,-3 2,-5 1,-1 2,-3 3,-4 0,-1 1,-2 1,-3 1,-2 1,-3 2,-3 1,-1 1,-1 2,-1 0,0 1,1 1,1 0,-1 -1,-2 -1,-3 -1,-1 -2,-2 -3,-3 -1,-2 -2,-3 -3,-5 -1,-2 -3,-3 -4,-5 0,-1 0,-2 0,-2 1,-1 2,-1 2,-2 1,-1 1,-1 2,-2l2 -1c1,-1 2,-2 4,-3 1,-2 2,-3 3,-4 2,-2 3,-3 4,-5 2,-1 3,-2 5,-4 0,0 1,-1 1,-1 1,-1 2,-2 3,-2 1,-1 1,-1 2,-1 1,0 1,0 2,1l0 0 0 0c3,5 6,10 9,15 3,6 5,11 7,16 2,4 3,7 5,10 1,3 3,7 4,10 1,4 2,7 4,11 1,4 2,7 3,11 1,2 2,5 3,7 2,2 3,5 4,7 1,3 1,5 2,7 0,3 0,5 0,8 -1,2 -2,4 -3,6 -2,2 -3,3 -5,5 -2,1 -4,2 -7,2 -2,0 -5,1 -7,1 -4,0 -8,0 -12,0 -4,1 -9,1 -13,0 -3,0 -6,-1 -9,-1 -3,0 -7,0 -10,0 -1,0 -2,0 -3,0 -1,0 -2,-1 -3,-1 -1,0 -2,0 -3,-1 -1,0 -1,-1 -2,-2 -1,-1 -1,-3 -2,-6 0,-2 -1,-4 -1,-6zm5 -130c0,-1 1,-2 1,-3 0,-1 1,-2 1,-3 1,0 2,-1 2,-2 1,-1 2,-1 2,-2 1,-1 2,-3 3,-4 1,-2 2,-3 3,-5l3 -2c1,1 3,3 4,5 1,1 2,3 3,4 1,2 3,3 4,5 2,2 3,3 3,5 0,0 1,0 1,0 0,0 0,0 0,0 1,-1 2,-1 2,-2 1,-1 2,-1 3,-2 1,-2 3,-3 4,-4 2,-2 3,-4 4,-5 2,-1 3,-2 5,-3 1,-1 3,-1 4,0 1,0 2,1 3,2 0,1 1,1 2,2 0,1 1,2 1,3 1,1 2,2 2,3 1,1 1,3 1,5 -1,2 -2,4 -3,5 -1,2 -3,4 -4,6 -2,1 -3,2 -4,3 -1,2 -3,3 -5,3 -1,0 -3,0 -4,-1 -2,-1 -3,-2 -5,-3 -1,-2 -2,-3 -4,-5l0 0c0,0 0,0 0,0 1,1 1,1 1,1 0,0 1,0 1,1l-2 -2c0,0 0,0 0,-1l-2 -2c0,2 -1,3 -2,5 0,1 -1,2 -2,4 -1,1 -1,2 -2,3 0,0 -1,1 -2,2 0,1 -1,1 -2,2 0,0 -1,0 -2,0 -2,0 -3,-1 -4,-1 0,-1 -1,-2 -2,-2 -1,-1 -2,-2 -3,-3 -1,-1 -2,-2 -2,-3 -2,-1 -3,-2 -4,-4 -2,-1 -2,-3 -3,-5zm8 116c0,2 0,5 1,6 1,2 2,3 4,4 1,1 3,2 5,2 3,0 5,0 7,0 1,0 2,0 3,-1 1,0 2,0 4,-1 1,0 2,-1 3,-1 1,-1 2,-2 2,-3 1,-1 2,-3 2,-5 -1,-2 -1,-4 -2,-6 -1,-2 -2,-4 -3,-6 -2,-2 -3,-4 -4,-6 0,0 -1,0 -1,-1 0,0 0,-1 -1,-2 0,0 0,-1 0,-1 0,-1 0,-1 0,-1 0,0 0,0 0,0 0,0 0,-1 0,-1 0,0 0,-1 0,-1l-1 -1c0,0 0,-1 -1,-1 0,-1 0,-1 0,-2 -1,1 -2,1 -2,2 -1,0 -1,1 -2,1 -3,3 -6,7 -9,11 -2,5 -4,9 -5,14zm27 -84l0 0 0 0zm0 1l0 0c0,0 0,0 0,0 0,0 0,0 0,0l0 0zm0 0l0 0c0,0 0,0 0,0zm0 0l0 0 0 0zm0 0c0,1 0,1 1,1 -1,0 -1,0 -1,-1z"/>
  <path id="1" class="fil0" d="M129 1411c0,0 1,0 2,-1 0,-1 1,-1 1,-1 1,-1 2,-1 2,-1 1,0 2,0 3,-1 2,0 3,-1 5,-1 2,0 3,-1 5,-1 3,-1 6,-2 8,-3 3,-2 6,-3 8,-4 7,-4 12,-8 16,-14 4,-6 6,-12 8,-19 1,-3 1,-6 0,-9 0,-3 0,-6 -1,-9 0,-4 -1,-8 -1,-12 -1,-5 -1,-9 -2,-13 0,-4 0,-7 -1,-10 0,-4 -1,-7 -1,-11 0,-1 0,-2 0,-3 0,-2 0,-3 0,-4 0,-1 1,-2 2,-3 0,-1 1,-1 3,-1l1 0 -1 0c4,0 7,0 11,-1 4,0 7,0 11,0 1,0 3,0 5,0 2,0 4,0 5,0 2,1 4,1 5,2 1,1 1,3 1,5 0,3 0,5 0,8 0,2 0,5 -1,7 0,5 -1,9 -1,13 -1,5 -2,9 -2,13 -1,5 -2,11 -2,16 -1,5 -2,11 -2,16 -1,2 -1,3 -1,5 0,2 0,4 0,5 -1,2 -1,4 -1,5 0,2 -1,4 -2,5 -1,4 -3,9 -5,13 -2,4 -5,7 -7,11 -3,4 -6,7 -9,10 -3,3 -6,6 -10,9 -3,2 -6,3 -9,5 -3,2 -6,4 -9,6 -2,1 -4,2 -6,3 -2,1 -4,1 -6,2 -1,0 -2,0 -4,0 -1,0 -2,0 -3,1 -2,0 -3,-1 -4,-2 -1,-1 -2,-2 -3,-4 -1,-2 -1,-4 -1,-5 -1,-2 -1,-4 -1,-5 -1,-2 -2,-4 -2,-7 0,-2 -1,-4 -1,-6 0,0 0,-1 -1,-1 0,0 0,0 0,-1 0,0 0,-1 0,-2 -1,0 -1,-1 -1,-2 0,0 0,-1 0,-2 0,0 0,-1 -1,-1zm58 -121l1 0 -1 0zm1 0l0 0 0 0z"/>
  <path id="2" class="fil0" d="M236 1325c0,-4 1,-8 1,-12 1,-5 1,-9 2,-13 1,-2 1,-4 1,-6 0,-2 1,-4 1,-6 1,-2 2,-4 3,-5 1,-2 3,-3 5,-4 4,-1 8,-1 13,-2 4,0 8,0 12,0 4,0 8,0 11,-1 4,0 8,0 11,0 2,0 4,0 6,1 2,0 4,1 6,2 2,0 4,1 5,2 2,0 4,1 6,1 1,1 3,2 5,3 2,1 4,2 6,3 2,1 3,2 4,4 2,1 2,3 2,5 0,7 0,14 1,21 0,7 0,14 -1,21 0,3 0,7 0,11 0,3 0,7 0,10l8 0 0 26 -8 0c0,1 0,1 0,2 0,1 0,1 0,2 0,2 -1,5 -1,7 -1,3 -1,5 -2,7 -1,2 -2,4 -4,6 -1,2 -3,4 -5,6 -2,1 -5,3 -7,4 -2,2 -5,3 -7,5 -2,1 -4,3 -6,4 -2,1 -4,2 -6,3 -3,1 -5,2 -7,2 -3,1 -5,1 -7,1 -3,1 -5,1 -8,1 -2,0 -5,0 -7,0 -4,0 -9,-2 -13,-5 -3,-2 -6,-5 -9,-10 0,-1 0,-2 -1,-4 0,-1 -1,-3 -1,-5 0,-1 0,-3 0,-5 0,-1 1,-3 2,-4 0,0 1,0 2,0 1,0 2,0 3,0 0,0 1,1 2,1 1,1 1,1 2,1 2,1 4,2 6,2 2,1 4,2 6,2 2,1 4,1 6,2 3,0 5,0 7,0 3,1 5,0 7,0 2,0 4,-1 6,-2 2,-1 3,-2 4,-3 1,0 2,-1 3,-2 1,-1 2,-1 2,-1 0,-1 0,-1 1,-2 0,-1 0,-1 0,-1l0 -2c0,-2 -1,-3 -1,-5 0,-1 -1,-3 -1,-4 0,-1 0,-1 0,-1 0,-1 0,-1 0,-1l-8 0c-3,0 -6,0 -8,-1 -6,0 -11,0 -16,0 -2,0 -4,0 -6,0 -3,0 -5,0 -7,0 -2,-1 -4,-2 -6,-4 -1,-1 -3,-2 -5,-4 -1,-1 -2,-1 -3,-2 -1,-1 -2,-2 -2,-4 -1,-1 -2,-3 -3,-5 0,-2 -1,-4 -1,-6 0,-2 0,-4 0,-6 0,-2 0,-4 0,-6 0,-4 0,-8 0,-12 0,-4 -1,-8 -1,-12zm26 -20c-1,1 -1,2 -1,3 0,1 1,2 1,4 0,1 0,2 0,3 0,2 0,4 0,6 0,2 0,4 0,6 1,4 1,8 1,11 0,4 0,8 0,12 0,1 0,2 0,3 0,1 1,2 1,3 1,1 1,1 2,2 1,1 2,1 4,1 1,0 3,0 5,0 2,0 3,0 5,0 6,0 13,0 19,0 0,-3 -1,-6 -1,-9 0,-3 0,-6 0,-9 0,-4 -1,-8 -1,-12 0,-4 -1,-8 -1,-12 0,-2 0,-4 -1,-6 0,-2 0,-4 -1,-5 0,-2 0,-3 -1,-3 -1,-1 -1,-2 -2,-2 -1,-1 -2,-1 -3,-1 -1,0 -2,0 -3,0l-11 0c-1,0 -2,0 -3,-1 -1,0 -2,0 -3,1 -1,0 -2,0 -3,0 -1,1 -2,2 -2,3 -1,0 -1,1 -1,2zm74 -8l0 0 0 0zm0 0l0 0 0 0z"/>
  <path id="3" class="fil0" d="M345 1386l0 -27 4 0c2,0 4,0 6,1 2,1 4,1 6,1 1,0 2,0 3,0 1,0 2,0 3,0 0,-1 0,-1 -1,-1 0,-1 0,-1 0,-1 -1,-4 -2,-8 -4,-12 -1,-4 -2,-8 -3,-13 -1,-4 -2,-8 -4,-13 -1,-4 -2,-8 -2,-13 0,-1 -1,-2 -1,-4 0,-1 -1,-3 -1,-4 0,-2 0,-3 1,-4 0,-2 1,-2 3,-3 1,0 3,0 5,0 2,0 3,0 5,0 4,0 8,-1 12,-2 1,0 3,-1 5,-1 1,-1 3,0 5,0 1,1 1,2 2,2 0,1 0,2 1,3 0,1 0,2 0,3l0 3c0,0 0,1 0,3 0,1 0,3 0,5 0,2 0,5 1,7 0,3 0,5 0,8 0,1 1,3 1,4 0,-1 0,-2 0,-2 0,-2 1,-3 1,-5 0,-1 0,-3 1,-4 2,-6 4,-10 8,-15 3,-4 7,-8 11,-12 2,-1 4,-3 6,-5 2,-2 4,-3 7,-4 2,-2 4,-3 7,-3 2,-1 5,-2 7,-2 5,-2 10,-3 15,-4 6,0 11,-1 16,-1 3,-1 5,-1 7,0 3,0 5,0 7,1 2,0 4,1 6,2 2,1 4,3 6,5 3,4 6,8 9,12 2,5 4,9 5,14 1,5 2,9 2,13 1,5 1,9 0,14 0,3 0,7 0,11 0,4 0,8 0,11 0,2 0,4 0,5 2,0 3,0 4,0l3 0 0 27 -3 0c-3,0 -5,-1 -7,-3 -2,-3 -4,-5 -5,-8 -2,2 -3,4 -4,6 -2,1 -3,3 -6,4 -2,1 -4,1 -6,1 -2,0 -4,0 -6,1 -7,0 -15,0 -22,0l-22 0c-4,0 -8,0 -12,1 -4,0 -8,0 -12,-1 -2,0 -5,0 -7,0 -2,0 -4,-1 -6,-2 -2,-1 -3,-3 -4,-4 -1,-2 -2,-4 -3,-6 -1,0 -1,-1 -2,-2 0,-1 -1,-2 -1,-3 -1,-1 -1,-2 -2,-2 -1,-1 -2,-1 -2,-1 -1,1 -2,1 -2,2 -1,1 -1,2 -1,3 -1,1 -1,2 -1,3 -1,1 -1,1 -1,2 -1,2 -2,4 -3,5 -2,1 -4,2 -5,3 -2,0 -4,1 -6,1 -2,0 -4,0 -6,0 -2,0 -3,0 -4,0 -2,0 -3,0 -5,0l-6 0 -3 0zm60 -38c0,1 0,2 0,4 0,1 0,3 0,4 1,1 1,2 2,2 1,1 2,1 2,1 1,0 2,1 3,1l3 0c2,0 4,0 6,0 2,0 4,0 6,0 2,-1 4,-1 5,-2 2,-1 4,-1 6,-1 4,-1 8,-1 12,-1 4,0 8,0 12,-1 1,0 3,0 5,1 2,0 4,0 6,0 2,-1 4,-2 5,-3 1,-1 2,-3 2,-5 0,-5 -1,-11 -2,-16 -1,-5 -3,-10 -6,-15 -1,-2 -3,-4 -5,-6 -1,-2 -3,-4 -5,-6 -1,-1 -3,-3 -4,-4 -2,-2 -4,-3 -5,-4 -3,-1 -5,-1 -7,-1 -2,0 -5,0 -7,1 -2,0 -4,1 -6,2 -3,1 -4,2 -6,4 -2,1 -4,2 -6,4 -1,1 -3,3 -4,5 -2,1 -3,3 -4,5 0,2 -1,4 -2,6 -1,4 -2,8 -3,12 -1,5 -2,9 -3,13z"/>
  <path id="4" class="fil0" d="M519 1386l0 -27 7 0 0 0 4 0 0 0 0 0c1,0 2,0 2,0 0,0 1,0 1,0 0,0 0,0 0,0 0,0 1,0 1,-1 1,0 2,-1 2,-2 0,0 0,-1 0,-2 0,-1 0,-2 0,-3 0,-1 0,-2 0,-3 -1,-2 -1,-4 -1,-6 0,-3 0,-5 0,-7l-1 -10c0,-4 -1,-8 -1,-11 0,-4 -1,-8 -1,-12 -1,-4 -1,-8 -1,-12 0,-4 0,-8 -1,-12 0,-4 -1,-8 -1,-12 0,-4 -1,-8 -1,-11 0,-4 -1,-7 -1,-11 0,-1 0,-2 0,-3 0,-1 0,-2 1,-3 0,-1 1,-1 2,-2 0,-1 1,-1 2,-1 2,0 4,0 6,0l6 0c2,0 4,0 6,0 2,1 4,0 6,0 2,0 4,0 6,0 1,0 3,0 5,1 1,0 1,1 2,2 0,0 1,1 1,2 0,1 0,2 0,3 0,1 0,2 0,3 0,2 0,4 0,6 -1,2 -1,4 -1,6 0,3 0,7 0,11 0,4 -1,7 -1,11 0,8 0,16 -1,24 0,8 0,16 -1,24 0,4 0,8 -1,11 0,4 0,8 0,11 -1,3 -1,5 -1,7 0,2 -1,4 -1,6 -1,2 -2,4 -3,6 -1,1 -2,3 -3,4 -1,2 -2,4 -3,5 -2,2 -3,3 -4,4 -2,2 -4,2 -6,2 -2,1 -4,1 -6,1 0,0 -1,0 0,0 0,0 0,0 0,0 0,0 1,0 1,0 0,0 -1,0 -1,0l-5 0 -4 1 -3 0 0 0 -7 0z"/>
  <path id="5" class="fil0" d="M587 1258c0,-4 1,-7 3,-8 2,-2 4,-3 6,-4 3,0 5,0 8,0 3,0 5,0 7,0 1,0 2,0 4,0 1,0 3,0 4,0 2,0 3,1 4,1 1,1 2,1 2,2 -1,3 -1,7 -1,10 1,3 1,7 1,10 0,4 0,7 -1,11 0,4 0,8 0,12 0,3 -1,7 -1,11 0,4 0,8 -1,11 0,12 0,24 0,36 0,12 0,24 1,35l-1 4c-3,1 -6,2 -10,3 -3,1 -6,2 -9,3 -2,1 -4,1 -6,2 -2,0 -3,0 -5,-1 -1,-1 -2,-2 -3,-3 0,-1 -1,-2 -1,-4 0,-1 0,-3 0,-5 1,-1 1,-2 1,-4 0,-3 0,-6 0,-10 0,-3 0,-6 1,-10 0,-3 0,-6 0,-10 0,-3 0,-6 -1,-10 0,-7 0,-13 -1,-20 0,-7 0,-14 0,-21 0,-7 0,-14 0,-21 0,-6 0,-13 -1,-20z"/>
  <path id="6" class="fil0" d="M684 1342c-1,-6 -1,-10 -2,-15 0,-5 0,-10 1,-15 1,-3 1,-6 1,-8 1,-3 1,-5 2,-8 0,-1 0,-2 0,-3 0,-1 0,-3 1,-4 0,-1 1,-2 1,-3 1,0 2,-1 3,-1 2,0 4,1 6,2 2,1 4,2 5,2 2,1 4,2 7,3 2,0 4,1 6,2 1,0 3,1 5,1 1,1 3,2 5,2 1,1 2,1 3,2 0,0 1,0 2,1 0,1 1,1 1,2 0,1 0,2 -1,3 -1,6 -3,12 -5,17 -2,6 -4,12 -4,17 0,3 -1,5 -1,7 0,2 0,5 0,7 0,2 0,3 1,4 1,1 2,2 3,2 1,1 2,1 4,1l4 0c4,0 8,0 11,0 4,-1 8,-1 12,-1 3,0 6,0 9,1 3,0 6,0 10,0 1,0 2,0 4,0 1,0 3,0 4,0 2,0 3,-1 5,-1 1,-1 2,-2 2,-4 1,-1 1,-2 1,-3 0,-1 0,-2 0,-4 0,-1 0,-2 -1,-3 0,-2 0,-3 0,-4 -1,-6 -1,-13 -2,-19 -1,-6 -1,-12 -2,-19 0,-1 0,-3 0,-5 0,-2 0,-4 0,-6 0,-2 0,-4 1,-6 1,-1 2,-2 4,-3 4,0 9,-1 13,0 4,0 8,0 12,1 2,0 3,0 4,0 1,0 3,0 4,1l-2 24c0,4 -1,9 -1,14 0,5 -1,10 -1,15 0,3 0,5 0,7 0,2 0,5 0,7l0 1c0,1 1,3 1,4 1,2 3,2 5,2l4 0 0 27 -4 0c-2,0 -4,-1 -5,-2 -1,0 -2,-2 -3,-3 0,-2 -1,-3 -1,-5 -1,-2 -1,-4 -1,-5 0,-1 0,-1 -1,-1 0,-1 0,-1 0,-1 -1,2 -2,4 -3,6 0,2 -2,4 -3,6 -1,1 -3,2 -5,3 -1,0 -3,1 -5,1 -2,0 -4,0 -6,0 -2,0 -4,0 -5,0 -5,0 -10,0 -16,0 -5,0 -10,0 -15,0 -5,0 -11,1 -16,1 -5,0 -10,0 -15,0 -3,-1 -6,-1 -9,-1 -3,0 -6,0 -8,-1 -2,0 -4,0 -6,0 0,0 -1,1 -2,1 -1,0 -2,0 -3,-1 0,0 -1,-1 -2,-2 0,-1 -1,-2 -1,-3 -1,-1 -1,-2 -1,-3 -1,-2 -1,-3 -1,-3 -2,-6 -4,-11 -5,-16 -1,-5 -2,-10 -3,-15zm60 67c0,0 0,0 0,0 0,0 0,0 0,0 0,-1 0,-2 1,-3 0,0 1,-1 2,-1 1,-1 2,-1 3,-1 1,0 2,-1 2,-1 3,0 5,-1 7,-1 2,0 4,-1 6,-1 1,0 2,0 3,0 1,1 1,2 1,2 1,1 1,2 1,3 0,1 0,2 0,3 0,2 1,4 1,6 1,2 2,4 2,6 0,1 0,2 -1,3 0,1 -1,1 -2,2 0,0 -1,1 -2,1 -1,0 -2,0 -3,0 -2,0 -4,1 -7,1 -2,1 -4,1 -6,1 -2,1 -3,1 -4,0 -1,-1 -2,-2 -2,-3 -1,-1 -1,-2 -2,-4 0,-1 0,-3 0,-4l0 -5c0,-1 0,-3 0,-4z"/>
  <path id="7" class="fil0" d="M829 1369c0,-1 0,-1 0,-2 0,-1 0,-1 0,-2l0 -6 2 0c1,0 1,-1 2,0 1,0 2,0 3,0 0,0 1,0 2,0 1,0 1,0 2,-1 1,-1 1,-2 1,-3 1,-1 1,-2 1,-3 0,-2 -1,-3 -1,-4 0,-1 0,-2 0,-3 0,-2 -1,-3 -1,-5 0,-2 0,-3 -1,-5 0,-4 0,-8 0,-12 -1,-4 -1,-9 -2,-13 -1,-2 -1,-4 -2,-6 0,-2 0,-4 0,-6 -1,-1 -1,-3 -1,-5 -1,-2 -1,-3 0,-5 0,-2 1,-4 3,-5 2,-1 3,-1 5,-1 2,0 4,0 6,0 2,0 4,0 6,-1 2,0 3,0 5,0 3,-1 5,-1 6,-1 2,0 4,1 5,2 2,1 2,2 2,5l0 0 0 0c0,4 1,8 1,12 0,3 1,7 0,11 0,4 0,7 0,11 0,4 0,7 0,11 0,2 0,4 0,6 0,2 0,4 0,6 0,2 0,4 0,6 0,2 0,4 -1,6l0 2c1,0 3,1 5,1l5 0 0 27 -5 0c-3,0 -6,-1 -8,-3 -2,-2 -4,-4 -5,-7 0,0 0,1 0,1 -1,0 -1,1 -1,1 -1,2 -2,4 -4,5 -2,1 -4,2 -6,2 -1,1 -2,1 -3,0 -1,0 -2,0 -2,0 -1,0 -3,0 -3,0 -1,1 -2,1 -4,1 -1,0 -2,0 -4,0 -1,1 -2,0 -4,0l0 0 -4 0 0 -17zm3 58c-1,-1 -1,-2 -1,-3 0,-1 0,-2 0,-4 0,-1 1,-2 1,-3 0,-1 0,-2 0,-4 0,-1 0,-2 0,-4 0,-1 0,-2 1,-3 0,-1 1,-1 1,-2 2,-1 3,-1 5,-1 1,1 3,1 4,1 1,0 3,0 4,0 1,1 2,2 3,4 0,0 1,1 1,1 1,0 1,0 2,0 1,1 3,1 4,1 1,0 3,0 4,-1 1,-1 2,-2 3,-3 2,-2 4,-3 5,-5 2,-1 4,-2 5,-2 2,0 3,0 3,2 1,2 2,4 2,7 0,2 1,5 1,7 1,3 1,5 0,7 0,3 -1,4 -3,5 -1,1 -3,2 -4,3 -1,2 -3,2 -4,3 -2,0 -3,-1 -5,-2 -1,0 -2,-1 -4,-2 -1,-1 -3,-2 -4,-4 -1,-1 -2,-3 -3,-5 0,0 0,0 -1,-1 0,0 0,0 0,-1 -1,0 -1,0 -1,-1 0,0 -1,0 -1,1 0,0 0,2 -1,3 0,2 0,3 0,4 0,1 0,2 -1,2 -1,1 -2,1 -2,1 -1,1 -2,1 -3,1 -1,0 -1,0 -2,0 0,1 -1,1 -2,1 -1,0 -1,1 -2,1 -1,0 -1,0 -2,0 -1,0 -2,0 -2,-1 -1,-1 -1,-2 -1,-3zm17 -1c0,-1 0,-1 0,-1 0,0 0,0 0,0l0 0 0 0c0,0 0,0 0,0 0,0 0,1 0,1l0 0zm23 -136l0 0 0 0zm0 0l0 0 0 0zm0 -2l0 0 0 0zm0 0l0 -1 0 1zm0 -1l0 0 0 0zm0 0l0 0 0 0z"/>
  <path id="8" class="fil0" d="M876 1286c0,-1 0,-2 0,-3 0,-1 1,-2 2,-3 0,0 1,-1 2,-2 0,0 1,-1 2,-2 1,-1 3,-2 4,-3 2,-2 3,-3 5,-4 1,-2 3,-3 5,-4 1,-2 3,-3 5,-4 1,-1 3,-2 5,-3 1,-1 3,-3 4,-4 5,-4 10,-8 15,-12 6,-4 11,-8 16,-13 0,0 1,-1 3,-2 1,-1 2,-2 3,-3 2,-1 3,-1 4,-2 2,0 3,1 4,3 0,1 1,3 1,5 0,1 1,3 1,5 0,1 1,3 1,4 1,2 1,4 2,5 0,2 1,3 1,5 1,2 1,3 2,5 0,1 0,3 1,5 0,1 0,3 0,4 0,2 0,3 -1,4 -1,2 -2,3 -4,3 -1,1 -2,2 -4,2 -2,1 -3,1 -4,2 -2,1 -3,1 -5,2 -1,0 -2,0 -4,1 -1,1 -3,2 -4,2 -2,1 -4,2 -5,3 -3,1 -6,2 -9,4 -2,1 -5,2 -8,4l0 0 0 0c-2,1 -3,2 -3,4 0,1 0,3 1,5 1,2 3,3 4,5 2,2 3,3 3,4 2,4 5,7 7,10 3,4 5,7 7,11 2,3 4,6 7,10 2,3 4,6 7,10 1,1 2,3 3,4 1,2 2,3 3,5 1,1 2,1 2,2 1,1 1,2 2,3 0,1 0,2 0,3 0,1 0,2 -1,3 -1,2 -3,3 -5,4 -2,0 -4,1 -5,2 -2,2 -4,3 -6,4 -2,1 -4,2 -6,3 -2,1 -3,1 -5,2 -2,1 -4,2 -6,2 -1,0 -4,1 -6,0 -2,0 -4,0 -6,0 -2,0 -5,0 -8,0 -2,0 -5,0 -7,0l0 0 -15 0 -2 0 0 -27 0 0c2,0 5,0 7,0 3,0 5,1 8,1 2,0 5,0 7,1 3,0 5,0 8,0 1,0 1,0 2,0 1,0 2,0 3,0 1,0 2,0 2,-1 1,0 1,-1 1,-2 1,0 0,-1 0,-2 0,-1 -1,-2 -1,-3 -1,-1 -1,-2 -2,-2 -1,-1 -1,-2 -1,-3l-3 -5c-1,-2 -2,-3 -4,-5 -1,-2 -2,-4 -3,-5 -1,-2 -3,-4 -4,-6 -1,-1 -2,-3 -3,-5 -1,-2 -2,-3 -3,-5 -1,-2 -2,-4 -3,-6 -1,-1 -2,-3 -3,-5 -1,-2 -2,-3 -3,-5 -1,-2 -2,-3 -3,-5 0,0 -1,-1 -2,-2 -1,-1 -1,-2 -2,-3 -1,0 -1,-1 -2,-2 -1,-1 -1,-2 -1,-3zm39 5l0 0 0 0zm0 0l0 0c0,0 0,0 0,0zm1 -1l0 0 0 0z"/>
  <path id="9" class="fil0" d="M982 1407c0,0 1,0 1,0 1,-1 1,-1 2,-2 1,0 1,0 2,0 1,-1 2,-1 3,-1l7 -2c0,0 0,0 1,0l2 -1c3,-1 5,-2 8,-3 3,-1 6,-2 8,-4 7,-3 12,-8 16,-13 4,-6 6,-12 8,-19 0,-3 0,-6 0,-9 0,-3 -1,-5 -1,-8 0,-5 -1,-9 -1,-13 -1,-4 -2,-9 -2,-13 0,-3 -1,-7 -1,-10 -1,-4 -1,-7 -1,-10 0,-2 0,-3 0,-4 0,-1 0,-3 0,-4 0,-1 1,-2 1,-3 1,0 2,-1 4,-1 3,0 7,0 11,0 3,-1 7,-1 11,-1 1,0 3,0 5,0 1,0 3,0 5,1 2,0 3,1 4,2 2,1 2,2 2,4 0,3 0,5 0,8 0,2 -1,5 -1,8 0,4 -1,8 -2,12 0,5 -1,9 -2,13 0,4 -1,7 -1,11 0,3 -1,7 -1,11 1,1 2,2 4,3 2,1 3,2 5,2l6 0 0 25 -6 0c-2,0 -5,-1 -7,-2 -2,-2 -4,-4 -5,-6 0,1 0,3 -1,4 0,1 0,3 -1,4 -2,4 -3,8 -6,12 -2,4 -4,8 -7,12 -2,3 -5,7 -8,10 -3,3 -7,6 -10,8 -3,2 -6,4 -9,6 -3,2 -6,4 -9,6 -2,1 -4,2 -6,3 -2,0 -4,1 -6,2 -1,0 -2,0 -4,0 -1,0 -2,0 -3,0l0 0c-2,0 -4,0 -5,-1 -1,-1 -2,-3 -2,-4 -1,-2 -1,-4 -2,-6 0,-1 0,-3 -1,-4 0,-2 -1,-5 -1,-7 0,-2 -1,-4 -1,-6 0,-1 -1,-1 -1,-1 0,0 0,-1 0,-1 0,-1 -1,-1 -1,-2 0,-1 0,-1 0,-2 0,0 0,-1 0,-2 0,-1 -1,-2 -1,-2z"/>
  <path id="10" class="fil0" d="M1084 1386l0 -25 5 0 7 1c2,-1 3,-2 4,-4 1,-1 1,-2 1,-4 -1,-1 -1,-2 -1,-4 0,-3 -1,-6 -1,-9 0,-2 -1,-6 -1,-9 -1,-5 -2,-10 -3,-16 -1,-5 -2,-11 -2,-16 -1,-1 -1,-2 -1,-2 0,-1 0,-2 0,-3 0,-1 0,-2 0,-3 1,0 1,-1 1,-1 1,-1 2,-2 2,-3 0,-1 1,-1 1,-2 0,0 1,-1 2,-1 0,-1 1,-1 2,-1 3,-1 7,-1 10,-1 4,1 7,1 11,2 1,0 3,0 4,0 2,0 3,1 4,2 1,1 2,2 2,3 0,1 0,3 0,4 -1,10 -2,21 -3,31 -1,11 -2,21 -2,32 0,2 0,4 0,7 0,2 0,4 0,6 0,2 0,4 -1,6 -1,2 -2,3 -4,5 -1,1 -3,2 -4,2 -2,0 -4,0 -6,1 -2,0 -4,0 -7,0 -2,1 -4,1 -6,1 -1,0 -2,0 -3,0 0,0 -1,1 -2,1 -1,0 -2,0 -3,0 -2,0 -3,0 -6,0zm6 -141c0,-1 0,-2 1,-3 0,-1 0,-2 0,-3 1,0 1,-1 2,-2 1,0 2,-1 3,-1l3 0c1,0 2,0 3,0 1,0 2,0 3,1 1,0 2,0 3,1 1,1 2,3 3,5 0,2 0,4 0,6 0,1 0,2 1,5 0,2 0,4 0,7 0,2 0,4 -1,6 0,1 -2,2 -3,2 -1,0 -3,0 -4,0 0,0 -1,-1 -3,-1 0,0 -1,0 -3,0 -1,0 -2,0 -3,0 -1,-1 -1,-1 -2,-2 0,-1 -1,-2 -1,-3 0,-1 -1,-2 -1,-3 0,-1 0,-1 0,-2 0,-2 0,-5 0,-7 0,-2 -1,-4 -1,-6zm24 -3c0,-2 1,-3 2,-4 1,0 2,0 4,0 2,0 5,0 7,0 0,0 1,0 2,-1 2,0 2,0 3,1 1,0 2,1 2,2 0,1 1,2 1,2 0,1 0,2 -1,3 0,1 0,2 0,3 0,2 0,4 0,6 0,2 0,5 0,7 -1,2 -1,4 -2,5 -1,2 -2,2 -4,2 -1,0 -2,0 -3,0 -1,0 -2,0 -3,0 -2,1 -3,0 -4,0 -1,0 -1,0 -2,-1 -1,-1 -1,-1 -1,-2 -1,-1 -1,-2 -1,-3 0,-1 0,-3 0,-4 0,-1 1,-2 1,-2 0,-3 -1,-5 -1,-7 0,-2 0,-4 0,-7zm5 42l1 0 -1 0zm1 0c0,0 0,1 0,1 0,0 0,-1 0,-1zm0 1l1 0 -1 0z"/>
  <path class="fil1" d="M53 1351c-1,-5 -1,-10 -1,-15 1,-5 2,-10 4,-15 1,-2 2,-4 3,-6 1,-2 3,-4 3,-6 1,-2 2,-4 2,-5 1,-2 2,-3 3,-5 0,-1 1,-2 1,-3 1,-1 1,-2 2,-3 1,0 1,0 2,0 0,0 1,0 1,1 0,-1 -1,-3 -1,-4 -1,-1 -2,-2 -3,-3 -1,-1 -2,-3 -3,-4 -1,-2 -3,-4 -4,-6 0,0 0,-1 0,-2 1,0 2,-1 2,-2 1,0 1,-1 2,-1l2 -1c1,-1 2,-2 4,-4 1,-1 2,-2 3,-4 2,-1 3,-3 4,-4 2,-1 3,-3 5,-4 0,-1 1,-1 1,-2 1,-1 2,-1 3,-2 1,0 1,-1 2,-1 1,0 1,1 2,2l0 0 0 0c3,5 6,10 9,15 3,5 5,10 7,16 2,3 3,6 5,10 1,3 3,6 4,10 1,3 2,7 4,11 1,3 2,7 3,11 1,2 2,4 3,7 2,2 3,4 4,7 1,2 1,4 2,7 0,2 0,5 0,7 -1,3 -2,5 -3,7 -2,2 -3,3 -5,4 -2,1 -4,2 -7,3 -2,0 -5,0 -7,0 -4,0 -8,0 -12,1 -4,0 -9,0 -13,0 -3,-1 -6,-1 -9,-1 -3,0 -7,0 -10,0 -1,-1 -2,-1 -3,-1 -1,0 -2,0 -3,0 -1,-1 -2,-1 -3,-1 -1,-1 -1,-2 -2,-2 -1,-2 -1,-4 -2,-6 0,-2 -1,-4 -1,-6zm5 -131c0,-1 1,-2 1,-2 0,-1 1,-2 1,-3 1,-1 2,-2 2,-2 1,-1 2,-2 2,-2 1,-2 2,-3 3,-5 1,-1 2,-2 3,-4l3 -2c1,1 3,3 4,4 1,2 2,3 3,5 1,1 3,3 4,5 2,1 3,3 3,5 0,0 1,0 1,0 0,0 0,0 0,0 1,-1 2,-2 2,-2 1,-1 2,-2 3,-3 1,-1 3,-2 4,-4 2,-1 3,-3 4,-4 2,-2 3,-3 5,-3 1,-1 3,-1 4,0 1,0 2,1 3,1 0,1 1,2 2,3 0,1 1,2 1,3 1,1 2,2 2,2 1,2 1,4 1,5 -1,2 -2,4 -3,6 -1,2 -3,4 -4,5 -2,2 -3,3 -4,4 -1,2 -3,3 -5,3 -1,0 -3,0 -4,-1 -2,-1 -3,-2 -5,-4 -1,-1 -2,-3 -4,-4l0 -1c0,0 0,0 0,1 1,0 1,0 1,1 0,0 1,0 1,0l-2 -1c0,0 0,-1 0,-1l-2 -2c0,1 -1,3 -2,4 0,2 -1,3 -2,4 -1,1 -1,2 -2,3 0,1 -1,2 -2,2 0,1 -1,2 -2,2 0,1 -1,1 -2,1 -2,-1 -3,-1 -4,-2 0,0 -1,-1 -2,-2 -1,-1 -2,-2 -3,-3 -1,0 -2,-1 -2,-2 -2,-1 -3,-3 -4,-4 -2,-1 -2,-3 -3,-6zm8 116c0,3 0,5 1,7 1,2 2,3 4,4 1,1 3,1 5,2 3,0 5,0 7,0 1,-1 2,-1 3,-1 1,0 2,-1 4,-1 1,-1 2,-1 3,-2 1,0 2,-1 2,-2 1,-2 2,-4 2,-6 -1,-2 -1,-4 -2,-5 -1,-3 -2,-5 -3,-6 -2,-2 -3,-4 -4,-6 0,0 -1,-1 -1,-1 0,-1 0,-1 -1,-2 0,-1 0,-1 0,-2 0,0 0,0 0,0 0,0 0,0 0,-1 0,0 0,0 0,0 0,-1 0,-1 0,-1l-1 -1c0,-1 0,-1 -1,-2 0,0 0,-1 0,-1 -1,0 -2,1 -2,1 -1,1 -1,1 -2,2 -3,3 -6,7 -9,11 -2,4 -4,9 -5,13zm27 -83l0 0 0 0zm0 0l0 0c0,0 0,0 0,0 0,0 0,0 0,0l0 0zm0 0l0 1c0,0 0,0 0,-1zm0 1l0 0 0 0zm0 0c0,0 0,0 1,0 -1,0 -1,0 -1,0z"/>
  <path id="1" class="fil1" d="M129 1388c0,0 1,0 2,-1 0,0 1,-1 1,-1 1,0 2,0 2,-1 1,0 2,0 3,0 2,-1 3,-1 5,-1 2,-1 3,-1 5,-2 3,-1 6,-2 8,-3 3,-1 6,-2 8,-4 7,-3 12,-8 16,-13 4,-6 6,-13 8,-20 1,-3 1,-6 0,-8 0,-3 0,-6 -1,-9 0,-4 -1,-9 -1,-13 -1,-4 -1,-8 -2,-13 0,-3 0,-6 -1,-10 0,-3 -1,-7 -1,-10 0,-1 0,-2 0,-4 0,-1 0,-2 0,-3 0,-2 1,-3 2,-3 0,-1 1,-2 3,-2l1 0 -1 0c4,0 7,0 11,0 4,0 7,-1 11,-1 1,0 3,0 5,0 2,0 4,0 5,1 2,0 4,1 5,2 1,1 1,2 1,4 0,3 0,6 0,8 0,3 0,5 -1,8 0,4 -1,8 -1,13 -1,4 -2,8 -2,13 -1,5 -2,10 -2,16 -1,5 -2,10 -2,15 -1,2 -1,4 -1,6 0,1 0,3 0,5 -1,2 -1,3 -1,5 0,2 -1,3 -2,5 -1,4 -3,8 -5,12 -2,4 -5,8 -7,12 -3,3 -6,7 -9,10 -3,3 -6,6 -10,8 -3,2 -6,4 -9,6 -3,2 -6,3 -9,5 -2,2 -4,3 -6,4 -2,0 -4,1 -6,2 -1,0 -2,0 -4,0 -1,0 -2,0 -3,0 -2,0 -3,0 -4,-1 -1,-1 -2,-3 -3,-5 -1,-1 -1,-3 -1,-5 -1,-2 -1,-3 -1,-4 -1,-3 -2,-5 -2,-7 0,-2 -1,-4 -1,-7 0,0 0,0 -1,0 0,-1 0,-1 0,-1 0,-1 0,-1 0,-2 -1,-1 -1,-1 -1,-2 0,-1 0,-1 0,-2 0,-1 0,-1 -1,-2zm58 -121l1 0 -1 0zm1 0l0 0 0 0z"/>
  <path id="2" class="fil1" d="M236 1303c0,-5 1,-9 1,-13 1,-4 1,-8 2,-13 1,-1 1,-3 1,-5 0,-3 1,-5 1,-7 1,-1 2,-3 3,-5 1,-1 3,-2 5,-3 4,-1 8,-2 13,-2 4,0 8,0 12,0 4,-1 8,-1 11,-1 4,0 8,0 11,-1 2,0 4,0 6,1 2,1 4,1 6,2 2,1 4,2 5,2 2,1 4,1 6,2 1,1 3,1 5,2 2,1 4,2 6,3 2,1 3,3 4,4 2,2 2,4 2,6 0,7 0,14 1,21 0,7 0,13 -1,20 0,4 0,7 0,11 0,4 0,7 0,11l8 0 0 26 -8 0c0,0 0,1 0,1 0,1 0,2 0,2 0,3 -1,5 -1,8 -1,2 -1,4 -2,7 -1,2 -2,4 -4,6 -1,2 -3,4 -5,5 -2,2 -5,4 -7,5 -2,2 -5,3 -7,5 -2,1 -4,2 -6,4 -2,1 -4,2 -6,3 -3,1 -5,1 -7,2 -3,0 -5,1 -7,1 -3,0 -5,0 -8,1 -2,0 -5,0 -7,0 -4,-1 -9,-2 -13,-5 -3,-3 -6,-6 -9,-10 0,-1 0,-2 -1,-4 0,-2 -1,-4 -1,-5 0,-2 0,-4 0,-5 0,-2 1,-3 2,-4 0,-1 1,-1 2,-1 1,0 2,0 3,1 0,0 1,0 2,1 1,0 1,1 2,1 2,1 4,1 6,2 2,1 4,1 6,2 2,0 4,1 6,1 3,1 5,1 7,1 3,0 5,0 7,0 2,-1 4,-2 6,-3 2,-1 3,-1 4,-2 1,-1 2,-2 3,-2 1,-1 2,-1 2,-2 0,0 0,-1 1,-1 0,-1 0,-1 0,-2l0 -1c0,-2 -1,-4 -1,-5 0,-2 -1,-3 -1,-5 0,0 0,0 0,-1 0,0 0,0 0,-1l-8 0c-3,0 -6,0 -8,0 -6,0 -11,0 -16,0 -2,0 -4,0 -6,0 -3,0 -5,0 -7,-1 -2,-1 -4,-2 -6,-3 -1,-2 -3,-3 -5,-4 -1,-1 -2,-2 -3,-3 -1,-1 -2,-2 -2,-3 -1,-2 -2,-4 -3,-5 0,-2 -1,-4 -1,-6 0,-2 0,-4 0,-6 0,-2 0,-4 0,-6 0,-4 0,-8 0,-12 0,-4 -1,-8 -1,-12zm26 -20c-1,1 -1,2 -1,3 0,1 1,2 1,3 0,1 0,2 0,3 0,2 0,4 0,6 0,2 0,4 0,6 1,4 1,8 1,12 0,4 0,7 0,11 0,1 0,2 0,4 0,1 1,2 1,2 1,1 1,2 2,3 1,0 2,0 4,0 1,1 3,1 5,0 2,0 3,0 5,0 6,0 13,1 19,1 0,-3 -1,-6 -1,-9 0,-3 0,-6 0,-10 0,-3 -1,-7 -1,-11 0,-4 -1,-8 -1,-12 0,-2 0,-4 -1,-6 0,-2 0,-4 -1,-6 0,-1 0,-2 -1,-3 -1,-1 -1,-1 -2,-2 -1,0 -2,0 -3,-1 -1,0 -2,0 -3,0l-11 0c-1,0 -2,0 -3,0 -1,0 -2,0 -3,0 -1,0 -2,0 -3,1 -1,0 -2,1 -2,2 -1,1 -1,2 -1,3zm74 -8l0 0 0 0zm0 0l0 -1 0 1z"/>
  <path id="3" class="fil1" d="M345 1364l0 -28 4 0c2,1 4,1 6,1 2,1 4,1 6,2 1,0 2,0 3,0 1,-1 2,-1 3,-1 0,0 0,0 -1,-1 0,0 0,0 0,0 -1,-5 -2,-9 -4,-13 -1,-4 -2,-8 -3,-12 -1,-5 -2,-9 -4,-13 -1,-4 -2,-9 -2,-13 0,-1 -1,-3 -1,-4 0,-2 -1,-3 -1,-5 0,-1 0,-3 1,-4 0,-1 1,-2 3,-2 1,-1 3,-1 5,-1 2,1 3,1 5,1 4,-1 8,-1 12,-2 1,-1 3,-1 5,-2 1,0 3,0 5,1 1,0 1,1 2,2 0,1 0,2 1,3 0,1 0,1 0,2l0 3c0,1 0,2 0,3 0,2 0,4 0,6 0,2 0,4 1,7 0,3 0,5 0,7 0,2 1,3 1,4 0,-1 0,-1 0,-2 0,-1 1,-3 1,-4 0,-2 0,-3 1,-5 2,-5 4,-10 8,-14 3,-5 7,-9 11,-12 2,-2 4,-4 6,-5 2,-2 4,-3 7,-5 2,-1 4,-2 7,-3 2,0 5,-1 7,-2 5,-1 10,-2 15,-3 6,-1 11,-1 16,-2 3,0 5,0 7,0 3,0 5,1 7,1 2,1 4,2 6,3 2,1 4,2 6,4 3,4 6,8 9,13 2,4 4,9 5,14 1,4 2,8 2,13 1,4 1,9 0,13 0,4 0,8 0,12 0,3 0,7 0,11 0,2 0,3 0,5 2,0 3,0 4,-1l3 0 0 28 -3 0c-3,-1 -5,-2 -7,-4 -2,-2 -4,-5 -5,-7 -2,2 -3,3 -4,5 -2,2 -3,3 -6,4 -2,1 -4,2 -6,2 -2,0 -4,0 -6,0 -7,0 -15,1 -22,1l-22 0c-4,0 -8,0 -12,0 -4,0 -8,0 -12,0 -2,0 -5,0 -7,-1 -2,0 -4,0 -6,-2 -2,-1 -3,-2 -4,-4 -1,-2 -2,-3 -3,-5 -1,-1 -1,-2 -2,-3 0,-1 -1,-2 -1,-3 -1,0 -1,-1 -2,-2 -1,0 -2,0 -2,0 -1,0 -2,1 -2,2 -1,0 -1,1 -1,2 -1,1 -1,2 -1,3 -1,1 -1,2 -1,3 -1,2 -2,4 -3,5 -2,1 -4,2 -5,2 -2,1 -4,1 -6,1 -2,0 -4,0 -6,0 -2,0 -3,0 -4,0 -2,0 -3,0 -5,0l-6 1 -3 0zm60 -39c0,2 0,3 0,4 0,2 0,3 0,4 1,1 1,2 2,3 1,0 2,1 2,1 1,0 2,0 3,0l3 0c2,0 4,0 6,0 2,0 4,0 6,0 2,0 4,-1 5,-1 2,-1 4,-1 6,-2 4,0 8,0 12,0 4,0 8,-1 12,-2 1,1 3,1 5,1 2,1 4,1 6,0 2,0 4,-1 5,-3 1,-1 2,-2 2,-5 0,-5 -1,-10 -2,-15 -1,-6 -3,-11 -6,-15 -1,-2 -3,-4 -5,-6 -1,-2 -3,-4 -5,-6 -1,-2 -3,-3 -4,-5 -2,-1 -4,-2 -5,-3 -3,-1 -5,-2 -7,-2 -2,0 -5,1 -7,1 -2,1 -4,2 -6,3 -3,1 -4,2 -6,3 -2,1 -4,3 -6,4 -1,2 -3,3 -4,5 -2,2 -3,4 -4,6 0,2 -1,4 -2,6 -1,4 -2,8 -3,12 -1,4 -2,8 -3,12z"/>
  <path id="4" class="fil1" d="M519 1364l0 -28 7 0 0 0 4 0 0 1 0 0c1,0 2,0 2,0 0,0 1,0 1,0 0,0 0,0 0,0 0,-1 1,-1 1,-1 1,-1 2,-1 2,-2 0,-1 0,-2 0,-3 0,-1 0,-2 0,-3 0,-1 0,-2 0,-2 -1,-3 -1,-5 -1,-7 0,-2 0,-4 0,-6l-1 -11c0,-3 -1,-7 -1,-11 0,-4 -1,-8 -1,-12 -1,-4 -1,-8 -1,-12 0,-4 0,-8 -1,-12 0,-4 -1,-8 -1,-12 0,-4 -1,-7 -1,-11 0,-3 -1,-7 -1,-10 0,-1 0,-2 0,-4 0,-1 0,-2 1,-2 0,-1 1,-2 2,-2 0,-1 1,-1 2,-1 2,0 4,0 6,0l6 0c2,0 4,0 6,0 2,0 4,0 6,0 2,0 4,0 6,-1 1,0 3,1 5,1 1,1 1,1 2,2 0,1 1,2 1,3 0,1 0,2 0,3 0,1 0,2 0,3 0,2 0,4 0,6 -1,1 -1,3 -1,5 0,4 0,8 0,12 0,3 -1,7 -1,11 0,8 0,16 -1,24 0,8 0,16 -1,24 0,4 0,7 -1,11 0,4 0,7 0,11 -1,2 -1,4 -1,6 0,2 -1,5 -1,7 -1,2 -2,4 -3,5 -1,2 -2,3 -3,5 -1,2 -2,3 -3,5 -2,1 -3,3 -4,4 -2,1 -4,2 -6,2 -2,0 -4,0 -6,0 0,0 -1,0 0,0 0,0 0,0 0,0 0,0 1,0 1,0 0,0 -1,0 -1,0l-5 1 -4 1 -3 0 0 0 -7 0z"/>
  <path id="5" class="fil1" d="M587 1235c0,-3 1,-6 3,-8 2,-1 4,-2 6,-3 3,-1 5,-1 8,-1 3,1 5,1 7,1 1,0 2,0 4,0 1,0 3,0 4,0 2,0 3,0 4,1 1,0 2,1 2,2 -1,3 -1,6 -1,10 1,3 1,6 1,9 0,4 0,8 -1,12 0,4 0,7 0,11 0,4 -1,8 -1,12 0,3 0,7 -1,11 0,12 0,24 0,35 0,12 0,24 1,36l-1 3c-3,1 -6,2 -10,3 -3,1 -6,3 -9,4 -2,0 -4,1 -6,1 -2,1 -3,0 -5,-1 -1,0 -2,-1 -3,-2 0,-2 -1,-3 -1,-4 0,-2 0,-3 0,-5 1,-2 1,-3 1,-4 0,-3 0,-7 0,-10 0,-3 0,-7 1,-10 0,-3 0,-7 0,-10 0,-3 0,-7 -1,-10 0,-7 0,-14 -1,-21 0,-6 0,-13 0,-20 0,-7 0,-14 0,-21 0,-7 0,-14 -1,-21z"/>
  <path id="6" class="fil1" d="M684 1319c-1,-5 -1,-10 -2,-15 0,-5 0,-10 1,-15 1,-2 1,-5 1,-8 1,-2 1,-5 2,-7 0,-1 0,-2 0,-4 0,-1 0,-2 1,-3 0,-1 1,-2 1,-3 1,-1 2,-1 3,-1 2,0 4,1 6,2 2,1 4,1 5,2 2,1 4,2 7,2 2,1 4,2 6,2 1,1 3,2 5,2 1,1 3,1 5,2 1,0 2,1 3,1 0,1 1,1 2,2 0,0 1,1 1,2 0,1 0,2 -1,3 -1,6 -3,11 -5,17 -2,5 -4,11 -4,17 0,2 -1,5 -1,7 0,2 0,4 0,7 0,1 0,3 1,4 1,1 2,2 3,2 1,0 2,1 4,1l4 0c4,0 8,-1 11,-1 4,0 8,0 12,0 3,0 6,0 9,0 3,0 6,1 10,1 1,0 2,0 4,0 1,0 3,0 4,-1 2,0 3,0 5,-1 1,0 2,-2 2,-3 1,-1 1,-2 1,-3 0,-2 0,-3 0,-4 0,-1 0,-3 -1,-4 0,-1 0,-2 0,-3 -1,-7 -1,-13 -2,-19 -1,-6 -1,-13 -2,-19 0,-1 0,-3 0,-5 0,-3 0,-5 0,-7 0,-2 0,-4 1,-5 1,-2 2,-3 4,-3 4,-1 9,-1 13,-1 4,0 8,1 12,1 2,0 3,0 4,1 1,0 3,0 4,0l-2 24c0,5 -1,10 -1,15 0,5 -1,10 -1,15 0,2 0,4 0,7 0,2 0,4 0,6l0 1c0,2 1,3 1,5 1,1 3,2 5,2l4 0 0 27 -4 0c-2,0 -4,-1 -5,-2 -1,-1 -2,-2 -3,-4 0,-1 -1,-3 -1,-5 -1,-1 -1,-3 -1,-5 0,0 0,0 -1,-1 0,0 0,0 0,-1 -1,2 -2,4 -3,7 0,2 -2,4 -3,5 -1,2 -3,3 -5,3 -1,1 -3,1 -5,2 -2,0 -4,0 -6,0 -2,0 -4,0 -5,0 -5,0 -10,0 -16,-1 -5,0 -10,0 -15,1 -5,0 -11,0 -16,0 -5,1 -10,1 -15,0 -3,0 -6,0 -9,0 -3,0 -6,-1 -8,-1 -2,0 -4,-1 -6,0 0,0 -1,0 -2,0 -1,1 -2,1 -3,0 0,-1 -1,-1 -2,-2 0,-1 -1,-2 -1,-3 -1,-2 -1,-3 -1,-4 -1,-1 -1,-2 -1,-3 -2,-5 -4,-10 -5,-15 -1,-5 -2,-11 -3,-16zm60 68c0,-1 0,-1 0,-1 0,0 0,1 0,1 0,-1 0,-2 1,-3 0,-1 1,-1 2,-2 1,0 2,0 3,-1 1,0 2,0 2,0 3,-1 5,-1 7,-1 2,-1 4,-1 6,-1 1,-1 2,-1 3,0 1,0 1,1 1,2 1,1 1,2 1,2 0,1 0,2 0,3 0,2 1,4 1,6 1,2 2,4 2,7 0,1 0,2 -1,3 0,0 -1,1 -2,1 0,1 -1,1 -2,1 -1,0 -2,1 -3,1 -2,0 -4,0 -7,1 -2,0 -4,1 -6,1 -2,0 -3,0 -4,-1 -1,0 -2,-1 -2,-2 -1,-1 -1,-3 -2,-4 0,-2 0,-3 0,-5l0 -4c0,-2 0,-3 0,-4z"/>
  <path id="7" class="fil1" d="M829 1346c0,0 0,-1 0,-1 0,-1 0,-2 0,-2l0 -7 2 0c1,0 1,0 2,0 1,0 2,0 3,1 0,0 1,0 2,0 1,0 1,-1 2,-1 1,-1 1,-2 1,-3 1,-1 1,-2 1,-4 0,-1 -1,-2 -1,-3 0,-2 0,-3 0,-4 0,-1 -1,-3 -1,-4 0,-2 0,-4 -1,-5 0,-5 0,-9 0,-13 -1,-4 -1,-8 -2,-12 -1,-2 -1,-4 -2,-6 0,-2 0,-4 0,-6 -1,-2 -1,-3 -1,-5 -1,-2 -1,-4 0,-5 0,-3 1,-4 3,-5 2,-1 3,-1 5,-1 2,0 4,0 6,0 2,-1 4,-1 6,-1 2,0 3,0 5,-1 3,0 5,0 6,0 2,0 4,0 5,1 2,1 2,3 2,5l0 0 0 0c0,4 1,8 1,12 0,4 1,8 0,12 0,3 0,7 0,11 0,3 0,7 0,10 0,2 0,5 0,7 0,2 0,4 0,6 0,2 0,4 0,6 0,2 0,4 -1,6l0 1c1,1 3,1 5,1l5 0 0 28 -5 0c-3,-1 -6,-2 -8,-4 -2,-1 -4,-4 -5,-7 0,1 0,1 0,2 -1,0 -1,0 -1,1 -1,2 -2,3 -4,5 -2,1 -4,2 -6,2 -1,0 -2,0 -3,0 -1,0 -2,0 -2,0 -1,0 -3,0 -3,0 -1,0 -2,0 -4,0 -1,0 -2,1 -4,1 -1,0 -2,0 -4,0l0 0 -4 0 0 -18zm3 59c-1,-1 -1,-2 -1,-3 0,-2 0,-3 0,-4 0,-1 1,-3 1,-4 0,-1 0,-2 0,-3 0,-2 0,-3 0,-4 0,-1 0,-2 1,-3 0,-1 1,-2 1,-2 2,-1 3,-1 5,-1 1,0 3,0 4,0 1,0 3,1 4,1 1,1 2,2 3,3 0,1 1,1 1,1 1,0 1,1 2,1 1,0 3,1 4,1 1,0 3,-1 4,-2 1,0 2,-1 3,-3 2,-1 4,-3 5,-4 2,-1 4,-2 5,-3 2,0 3,1 3,3 1,2 2,4 2,7 0,2 1,4 1,7 1,2 1,5 0,7 0,2 -1,4 -3,5 -1,1 -3,2 -4,3 -1,1 -3,2 -4,2 -2,0 -3,0 -5,-1 -1,-1 -2,-2 -4,-3 -1,-1 -3,-2 -4,-3 -1,-1 -2,-3 -3,-5 0,0 0,-1 -1,-1 0,0 0,-1 0,-1 -1,0 -1,-1 -1,-1 0,0 -1,0 -1,0 0,1 0,2 -1,4 0,1 0,3 0,4 0,1 0,1 -1,2 -1,0 -2,1 -2,1 -1,0 -2,0 -3,1 -1,0 -1,0 -2,0 0,0 -1,0 -2,1 -1,0 -1,0 -2,0 -1,1 -1,1 -2,1 -1,0 -2,-1 -2,-1 -1,-1 -1,-2 -1,-3zm17 -2c0,0 0,0 0,0 0,0 0,0 0,0l0 -1 0 0c0,0 0,1 0,1 0,0 0,0 0,0l0 0zm23 -135l0 0 0 0zm0 -1l0 0 0 0zm0 -1l0 0 0 0zm0 -1l0 0 0 0zm0 0l0 0 0 0zm0 0l0 0 0 0z"/>
  <path id="8" class="fil1" d="M876 1263c0,-1 0,-2 0,-3 0,-1 1,-1 2,-2 0,-1 1,-2 2,-2 0,-1 1,-1 2,-2 1,-1 3,-3 4,-4 2,-1 3,-3 5,-4 1,-1 3,-2 5,-4 1,-1 3,-3 5,-4 1,-1 3,-2 5,-3 1,-1 3,-2 4,-3 5,-5 10,-9 15,-13 6,-4 11,-8 16,-12 0,-1 1,-2 3,-3 1,-1 2,-2 3,-3 2,0 3,-1 4,-1 2,0 3,1 4,2 0,2 1,3 1,5 0,2 1,4 1,5 0,2 1,3 1,5 1,2 1,3 2,5 0,1 1,3 1,5 1,1 1,3 2,4 0,2 0,3 1,5 0,2 0,3 0,5 0,2 0,3 -1,4 -1,1 -2,2 -4,3 -1,1 -2,1 -4,2 -2,0 -3,1 -4,2 -2,0 -3,1 -5,1 -1,0 -2,1 -4,2 -1,0 -3,1 -4,2 -2,1 -4,1 -5,2 -3,1 -6,3 -9,4 -2,2 -5,3 -8,4l0 0 0 0c-2,1 -3,3 -3,4 0,2 0,4 1,5 1,2 3,4 4,6 2,1 3,3 3,4 2,3 5,7 7,10 3,3 5,7 7,10 2,4 4,7 7,10 2,4 4,7 7,10 1,2 2,3 3,5 1,1 2,3 3,5 1,0 2,1 2,2 1,1 1,2 2,3 0,1 0,2 0,3 0,1 0,2 -1,3 -1,1 -3,2 -5,3 -2,1 -4,2 -5,3 -2,1 -4,2 -6,3 -2,2 -4,3 -6,3 -2,1 -3,2 -5,3 -2,1 -4,1 -6,2 -1,0 -4,0 -6,0 -2,0 -4,0 -6,0 -2,0 -5,0 -8,0 -2,0 -5,0 -7,-1l0 1 -15 0 -2 0 0 -27 0 0c2,-1 5,-1 7,0 3,0 5,0 8,0 2,1 5,1 7,1 3,1 5,1 8,1 1,0 1,0 2,0 1,0 2,0 3,0 1,0 2,-1 2,-1 1,-1 1,-1 1,-2 1,-1 0,-2 0,-3 0,-1 -1,-1 -1,-2 -1,-1 -1,-2 -2,-3 -1,-1 -1,-1 -1,-2l-3 -5c-1,-2 -2,-4 -4,-6 -1,-2 -2,-3 -3,-5 -1,-1 -3,-3 -4,-5 -1,-2 -2,-3 -3,-5 -1,-2 -2,-4 -3,-6 -1,-2 -2,-3 -3,-5 -1,-2 -2,-4 -3,-5 -1,-2 -2,-4 -3,-5 -1,-2 -2,-4 -3,-5 0,-1 -1,-2 -2,-2 -1,-1 -1,-2 -2,-3 -1,-1 -1,-2 -2,-3 -1,-1 -1,-2 -1,-3zm39 5l0 0 0 0zm0 0l0 0c0,0 0,0 0,0zm1 0l0 0 0 0z"/>
  <path id="9" class="fil1" d="M982 1385c0,0 1,0 1,-1 1,0 1,-1 2,-1 1,0 1,-1 2,-1 1,0 2,0 3,0l7 -2c0,0 0,0 1,-1l2 0c3,-1 5,-2 8,-3 3,-1 6,-3 8,-4 7,-4 12,-8 16,-14 4,-5 6,-12 8,-19 0,-2 0,-5 0,-8 0,-3 -1,-6 -1,-9 0,-4 -1,-8 -1,-13 -1,-4 -2,-8 -2,-12 0,-4 -1,-7 -1,-11 -1,-3 -1,-6 -1,-10 0,-1 0,-2 0,-4 0,-1 0,-2 0,-3 0,-1 1,-2 1,-3 1,-1 2,-1 4,-1 3,0 7,0 11,-1 3,0 7,0 11,0 1,0 3,0 5,0 1,0 3,0 5,0 2,1 3,1 4,2 2,1 2,3 2,5 0,2 0,5 0,8 0,2 -1,5 -1,7 0,4 -1,9 -2,13 0,4 -1,9 -2,13 0,3 -1,7 -1,11 0,3 -1,7 -1,10 1,2 2,3 4,4 2,1 3,2 5,2l6 -1 0 26 -6 0c-2,0 -5,-1 -7,-3 -2,-2 -4,-3 -5,-6 0,2 0,3 -1,5 0,1 0,2 -1,4 -2,4 -3,8 -6,12 -2,4 -4,8 -7,11 -2,4 -5,7 -8,10 -3,4 -7,6 -10,9 -3,2 -6,4 -9,5 -3,2 -6,4 -9,6 -2,1 -4,2 -6,3 -2,1 -4,2 -6,2 -1,0 -2,1 -4,1 -1,0 -2,0 -3,0l0 0c-2,0 -4,-1 -5,-2 -1,-1 -2,-2 -2,-4 -1,-2 -1,-3 -2,-5 0,-2 0,-3 -1,-5 0,-2 -1,-4 -1,-6 0,-3 -1,-5 -1,-7 0,0 -1,-1 -1,-1 0,0 0,0 0,-1 0,0 -1,-1 -1,-2 0,0 0,-1 0,-1 0,-1 0,-1 0,-2 0,-1 -1,-2 -1,-2z"/>
  <path id="10" class="fil1" d="M1084 1364l0 -25 5 0 7 0c2,0 3,-2 4,-3 1,-2 1,-3 1,-4 -1,-1 -1,-3 -1,-4 0,-3 -1,-6 -1,-9 0,-3 -1,-6 -1,-9 -1,-5 -2,-11 -3,-16 -1,-6 -2,-11 -2,-17 -1,0 -1,-1 -1,-2 0,-1 0,-2 0,-2 0,-1 0,-2 0,-3 1,-1 1,-1 1,-2 1,-1 2,-1 2,-2 0,-1 1,-2 1,-2 0,-1 1,-1 2,-2 0,0 1,-1 2,-1 3,0 7,0 10,0 4,0 7,1 11,1 1,0 3,0 4,1 2,0 3,0 4,2 1,0 2,2 2,3 0,1 0,2 0,3 -1,11 -2,21 -3,32 -1,10 -2,21 -2,31 0,3 0,5 0,7 0,2 0,5 0,7 0,2 0,4 -1,6 -1,1 -2,3 -4,4 -1,1 -3,2 -4,2 -2,1 -4,1 -6,1 -2,0 -4,1 -7,1 -2,0 -4,1 -6,1 -1,0 -2,0 -3,0 0,0 -1,0 -2,0 -1,0 -2,0 -3,1 -2,0 -3,0 -6,0zm6 -141c0,-1 0,-2 1,-3 0,-1 0,-2 0,-3 1,-1 1,-2 2,-2 1,-1 2,-1 3,-1l3 0c1,0 2,0 3,0 1,0 2,0 3,0 1,0 2,1 3,1 1,1 2,3 3,5 0,2 0,4 0,6 0,1 0,3 1,5 0,3 0,5 0,7 0,3 0,5 -1,6 0,2 -2,3 -3,2 -1,0 -3,0 -4,0 0,0 -1,0 -3,0 0,0 -1,0 -3,0 -1,0 -2,0 -3,-1 -1,0 -1,-1 -2,-1 0,-1 -1,-2 -1,-3 0,-1 -1,-2 -1,-3 0,-1 0,-2 0,-3 0,-2 0,-4 0,-6 0,-2 -1,-4 -1,-6zm24 -3c0,-2 1,-3 2,-4 1,-1 2,-1 4,-1 2,0 5,0 7,0 0,0 1,0 2,0 2,0 2,0 3,0 1,1 2,1 2,2 0,1 1,2 1,3 0,1 0,2 -1,3 0,1 0,2 0,3 0,1 0,3 0,6 0,2 0,4 0,6 -1,2 -1,4 -2,6 -1,1 -2,2 -4,2 -1,0 -2,0 -3,0 -1,0 -2,0 -3,0 -2,0 -3,0 -4,0 -1,0 -1,-1 -2,-1 -1,-1 -1,-2 -1,-3 -1,-1 -1,-2 -1,-3 0,-1 0,-2 0,-3 0,-1 1,-2 1,-3 0,-2 -1,-4 -1,-6 0,-2 0,-5 0,-7zm5 42l1 0 -1 0zm1 0c0,0 0,0 0,0 0,0 0,0 0,0zm0 0l1 0 -1 0z"/>
  <path class="fil2 str0" d="M550 1c-303,0 -549,246 -549,549 0,303 246,548 549,548 303,0 548,-245 548,-548 0,-303 -245,-549 -548,-549z"/>
  <circle class="fil3 str1" cx="550" cy="550" r="468"/>
  <g id="_2496771856">
   <path class="fil4" d="M830 460c-1,-13 -4,-23 -11,-28 -11,-9 -22,-11 -33,-6 -6,2 -12,6 -18,12 0,1 -1,1 -2,2 -8,10 -12,20 -13,31 1,3 1,6 3,9 1,3 3,6 6,9 3,3 6,5 9,7 5,2 10,3 16,3l0 0c1,0 2,0 3,1 9,1 16,4 18,11 1,1 1,3 1,5 0,0 0,1 0,2 -2,3 -4,7 -7,10l-66 64 -61 -63c-1,0 -1,-1 -2,-1 -1,-1 -2,-2 -3,-2 -1,-1 -4,-1 -6,0 -1,0 -1,0 -2,0 -1,1 -2,1 -3,2 0,0 0,0 0,0 -1,0 -1,0 -2,1 0,0 0,0 0,0 -3,2 -5,5 -7,9 0,2 -1,3 -1,4 -1,3 -1,5 -1,8 0,1 0,1 0,1 -1,12 -5,20 -12,26 -7,4 -13,6 -20,5 -2,0 -5,-1 -7,-2 -7,-2 -12,-6 -17,-11 -4,-3 -8,-7 -11,-13 -9,-12 -11,-24 -5,-34 4,-7 9,-12 15,-14 1,-1 3,-1 4,-2 4,-1 8,-1 13,0 0,0 0,0 0,0 7,0 13,-1 17,-5 0,0 1,0 1,0 1,-1 1,-2 2,-3 0,0 1,-1 1,-1 1,-2 2,-4 2,-7 -1,-4 -3,-9 -6,-12l-61 -63 69 -67c4,-4 5,-8 4,-12 -2,-6 -6,-9 -12,-10 -20,0 -34,-7 -40,-20 -6,-15 0,-30 17,-45 5,-4 10,-7 14,-9 11,-4 22,-2 32,5 7,4 11,14 12,29 0,8 2,13 6,16 0,0 1,1 1,1 3,2 7,2 11,-1 2,-1 5,-3 7,-5l54 -52 172 177 -55 54c-3,2 -6,3 -8,4 -1,0 -1,0 -2,0 -2,-1 -4,-1 -5,-2 -7,-2 -10,-8 -11,-18l0 0z"/>
   <path class="fil4" d="M588 567c1,1 2,2 3,3 5,5 11,9 17,11 3,1 5,2 8,2 7,1 14,-1 21,-5 7,-6 11,-15 12,-27 0,0 0,0 0,0 0,0 0,-1 0,-1 0,-3 1,-5 1,-7l1 -1c0,-1 0,-2 0,-3 2,-4 4,-7 7,-9 0,0 0,0 0,0l1 -1c1,0 1,0 1,0 1,-1 2,-1 3,-2 0,0 0,0 0,0 0,0 1,0 1,0 2,-1 4,-1 6,0 1,1 2,1 2,2 1,0 1,1 2,1l61 63c1,1 1,1 2,0l66 -64c3,-3 5,-7 7,-11 0,0 0,-1 1,-2 0,0 0,0 0,0 0,-2 -1,-4 -2,-6 -2,-7 -9,-11 -19,-12 -1,0 -2,0 -3,0 0,0 0,0 0,0 -6,0 -11,-1 -15,-3 -3,-2 -7,-4 -9,-7 -3,-2 -5,-5 -6,-8 -1,-3 -2,-6 -2,-9 0,-11 4,-21 12,-30l2 -2c6,-6 12,-10 17,-12 11,-4 22,-2 33,6 6,5 9,14 9,27 1,7 3,12 6,16l0 0c2,1 4,3 6,4 2,0 4,1 6,1 1,0 1,0 2,0 3,0 6,-2 8,-4l56 -54c0,-1 0,-2 0,-2l-172 -177c-1,0 -2,0 -2,0l-54 52c-2,2 -5,4 -6,5 -5,2 -8,3 -10,1l-1 -1c0,0 -1,0 -1,-1 -3,-3 -5,-8 -5,-14 -1,-15 -5,-26 -12,-30 -11,-8 -22,-9 -33,-5 -5,2 -10,5 -14,9 -19,15 -25,31 -18,46 6,14 20,21 41,21 5,1 9,4 11,9 1,4 0,8 -4,11l-69 67c-1,1 -1,2 0,2l61 63c0,0 0,0 1,1 3,3 4,6 4,10 0,3 0,5 -1,6 0,1 -1,1 -1,1 -1,1 -1,2 -2,3l-1 0c-3,3 -9,5 -16,4 0,0 0,0 0,0 -5,0 -9,0 -13,1 -2,0 -4,1 -5,1 -6,3 -11,8 -15,15 -6,11 -5,23 5,36 2,4 5,8 8,10l0 0zm59 -17c0,0 0,1 0,1 -1,11 -5,19 -12,25 -6,4 -13,5 -19,5 -2,-1 -5,-1 -7,-2 -6,-2 -11,-6 -17,-11 -4,-3 -7,-7 -10,-12 -9,-13 -10,-24 -4,-34 3,-6 8,-11 13,-13 1,-1 3,-1 4,-2 4,-1 8,-1 12,0 1,0 1,0 1,0 8,0 14,-1 18,-5l1 0c1,-1 1,-2 2,-3 0,0 1,-1 1,-1 1,-3 2,-5 2,-8 0,-5 -2,-9 -6,-13l-60 -62 68 -66c4,-4 6,-8 4,-13 -1,-7 -6,-10 -13,-12 -20,0 -33,-6 -39,-19 -6,-14 0,-29 17,-43 5,-4 9,-7 14,-8 10,-4 20,-3 31,4 6,4 10,14 10,28 1,8 3,14 7,17l1 1c3,2 8,2 13,0 2,-2 4,-4 7,-6l53 -51 170 175 -54 53c-3,2 -5,3 -7,3 -1,0 -1,0 -2,0 -1,0 -3,0 -5,-1 -6,-2 -9,-8 -10,-17 0,-14 -4,-23 -11,-29 -11,-9 -23,-11 -35,-6 -6,2 -12,6 -18,12l-2 2c-8,10 -13,21 -13,32 0,3 1,7 2,10 2,3 4,6 7,9 3,3 6,6 10,7 4,2 10,4 16,4 0,0 0,0 0,0 1,0 2,0 2,0 10,1 16,4 18,10 1,2 1,3 1,4 0,1 0,2 -1,3 -1,3 -3,6 -6,9l-65 63 -60 -62c-1,0 -1,-1 -2,-1 -1,-1 -2,-2 -3,-2 -2,-1 -5,-1 -8,-1 0,0 -1,1 -1,1 -1,0 -2,1 -3,2 -1,0 -1,0 -1,0l-1 1c0,0 0,0 -1,0 -3,2 -6,6 -7,10 0,1 -1,2 -1,3l0 1c-1,2 -1,5 -1,8l0 0z"/>
   <path class="fil4" d="M898 422l-159 -160 -33 34c0,0 41,69 47,141 0,0 34,-51 72,-20 0,0 17,12 17,37 0,4 1,19 12,10l44 -42z"/>
   <path class="fil4" d="M756 492c0,0 14,34 2,66 0,0 51,-42 39,-48 0,0 0,-3 -24,-7 -8,-1 -14,-3 -17,-11z"/>
   <path class="fil4" d="M795 652c0,0 0,0 0,0 6,5 12,5 19,1 1,-1 1,-1 2,-2 5,-4 7,-12 7,-21 3,-15 9,-25 18,-29 6,-3 13,-3 21,-1 12,3 21,10 28,19 6,7 9,16 10,24 0,12 -4,21 -15,28 -5,3 -11,4 -17,3 -9,-1 -16,1 -21,6 -1,2 -2,3 -3,5 0,0 0,0 0,0 -1,2 -2,4 -2,5 -1,6 1,13 8,19 6,7 11,12 14,15l42 42 -177 172 -40 -41c-4,-4 -7,-6 -10,-6 0,0 -1,0 -1,0 -1,0 -2,1 -3,1 -7,4 -11,10 -14,20 -2,15 -7,24 -13,29 -12,11 -28,11 -45,0 -14,-9 -20,-23 -17,-41 1,-3 2,-7 4,-9 4,-9 14,-13 28,-15 6,0 12,-2 16,-5 6,-4 10,-8 11,-11 0,-2 0,-4 -1,-6 0,0 0,-1 0,-1 -1,-3 -3,-6 -6,-9l-78 -80 63 -62c1,0 1,-1 1,-1 0,0 2,-1 4,-3 3,-2 6,-2 9,0 8,5 11,12 10,22 -1,13 3,23 12,30 1,1 3,2 4,3 11,7 23,6 36,-3 5,-3 10,-6 13,-10 5,-5 9,-11 11,-17 3,-9 2,-19 -4,-29 -5,-7 -14,-12 -26,-13 0,0 -1,0 -1,0 -3,0 -6,-1 -8,-1 -2,-1 -3,-1 -4,-2 -4,-1 -7,-3 -9,-6 -5,-6 -5,-11 0,-16l65 -64 56 58c1,1 2,1 3,2l0 0z"/>
   <path class="fil4" d="M595 936c2,2 4,4 7,6 18,11 34,11 47,0 6,-5 11,-15 13,-29 3,-10 7,-16 13,-19 1,-1 3,-1 3,-2 0,0 0,0 0,0 0,0 1,0 1,0 2,0 5,2 8,5l1 0 40 42c1,1 2,1 2,0l177 -172c0,0 0,-1 0,-2l-42 -42c-3,-3 -8,-8 -15,-15l0 -1c-6,-5 -8,-11 -7,-16 1,-2 1,-3 2,-5 0,0 0,0 0,0 1,-2 2,-4 3,-5 5,-5 11,-7 20,-6 6,2 13,0 18,-3 11,-7 16,-17 15,-29 -1,-9 -4,-17 -10,-25 -7,-9 -17,-16 -29,-19 -8,-2 -15,-2 -22,1 -9,4 -15,14 -18,29 0,10 -2,17 -7,21 -1,1 -1,1 -2,2 -6,4 -12,4 -17,-1l0 0c-1,-1 -2,-1 -3,-2l-56 -58c-1,0 -1,0 -2,0l-65 64c-5,6 -5,12 0,18 2,3 5,5 9,7 2,0 3,1 4,1 3,1 6,1 9,1 0,1 1,1 1,1 11,1 20,5 25,12 6,10 7,19 4,27 -3,6 -6,12 -11,17 -3,4 -7,7 -13,10 -12,9 -24,10 -34,3 -1,-1 -3,-2 -5,-3 -7,-6 -11,-16 -11,-29 2,-11 -2,-18 -10,-23 -4,-2 -8,-2 -11,0 -2,2 -3,3 -4,3l-64 63c-1,1 -1,1 0,2l78 80c3,3 5,6 6,8 0,1 0,1 0,1 0,2 1,4 0,5 -1,4 -4,7 -9,11 -5,2 -10,4 -16,5 -15,2 -25,6 -29,15 -2,3 -3,6 -4,10 -3,14 1,27 10,36l0 0zm84 -46c0,0 0,0 -1,0 0,0 0,0 0,0 -1,0 -2,0 -4,1 -7,4 -12,11 -14,21 -3,14 -7,23 -13,28 -12,11 -26,11 -43,0 -14,-9 -20,-23 -16,-40 0,-3 2,-6 3,-9 4,-7 13,-12 27,-13 7,-1 13,-3 17,-6 6,-4 10,-8 11,-12 0,-2 0,-4 -1,-7 0,0 0,0 0,0 0,0 0,0 0,0 -1,-3 -3,-7 -6,-10l-77 -79 63 -62c0,0 1,-1 4,-3 2,-2 5,-2 7,0 8,4 11,11 10,21 -1,14 3,24 12,31 1,1 3,2 5,3 11,7 23,6 37,-3 5,-3 10,-7 13,-11 5,-5 9,-11 11,-17 4,-9 2,-19 -4,-30 -1,-1 -1,-2 -2,-3 -6,-5 -14,-9 -25,-10 0,0 -1,0 -1,0 0,0 0,0 0,0 -3,0 -5,-1 -8,-2 -1,0 -2,0 -4,-1 -3,-1 -6,-3 -8,-6 -4,-5 -4,-10 0,-15l64 -62 55 57c1,1 2,1 3,2l0 0c7,6 14,6 21,1 1,-1 1,-1 2,-2 5,-5 8,-12 8,-22 2,-15 8,-24 16,-28 6,-2 13,-3 20,-1 12,4 21,10 28,19 6,7 9,15 9,23 1,12 -3,20 -13,26 -5,4 -11,5 -17,4 -9,-1 -17,1 -22,7 -1,1 -2,2 -3,4 0,1 0,1 0,1 -1,2 -2,4 -2,5 -1,6 1,13 7,19l1 1c6,7 11,12 14,15l41 41 -175 170 -40 -41c-3,-4 -7,-6 -10,-5l0 0 0 0z"/>
   <path class="fil4" d="M795 661c-9,-4 -20,-16 -31,-28 -14,-14 -28,-28 -28,-28l-33 32c0,0 43,36 63,124 14,59 0,122 0,122l124 -119c0,0 -38,-38 -50,-54 -3,-5 -6,-8 -7,-14 0,-3 -1,-6 2,-10 3,-4 15,-15 20,-17 6,-1 7,-1 15,-1 0,0 17,0 22,-15 3,-9 6,-21 -14,-39 -7,-5 -24,-13 -34,-8 -4,2 -9,4 -13,17 -1,4 -1,1 -3,14 -3,14 -3,13 -7,19 -4,5 -13,12 -26,5z"/>
   <path class="fil4" d="M549 296c0,-5 0,-9 -1,-13 -1,-3 -2,-5 -3,-8 -3,-6 -7,-11 -12,-15 -4,-4 -8,-7 -11,-9 -1,-1 -3,-1 -4,-2 -10,-5 -20,-6 -29,-2 -10,5 -15,15 -14,30 -1,4 -1,7 -2,10 -2,3 -4,5 -7,7 -5,3 -10,4 -15,3 0,0 0,-1 -1,-1 -3,-1 -6,-3 -8,-6 -1,-1 -1,-1 -2,-1l-48 -50 175 -171 172 177 -54 52c-2,2 -4,4 -6,5 -6,3 -10,3 -13,0 -4,-3 -6,-8 -6,-16 -1,-15 -5,-25 -11,-29 -14,-9 -27,-9 -40,-1 -2,1 -4,3 -6,5 -18,15 -24,30 -18,45 2,5 6,9 10,12 8,5 18,8 30,8 7,1 11,4 12,10 1,4 0,8 -4,12l-69 67 -60 -61c-4,-4 -7,-8 -8,-11 -1,-1 -1,-3 -1,-4 0,-3 0,-6 2,-10 1,0 1,-1 2,-2 0,-1 2,-2 3,-3 4,-4 10,-6 18,-5 10,0 17,-2 22,-6 5,-4 7,-10 7,-17l0 0z"/>
   <path class="fil4" d="M441 292c3,2 6,4 9,6 0,0 0,0 0,0 0,0 1,0 1,0 6,2 11,1 16,-3 3,-2 5,-5 7,-8 1,-3 2,-6 2,-10 0,-14 4,-24 13,-28 9,-4 19,-4 29,1 1,1 2,2 3,2 4,2 7,5 11,9 1,1 3,2 4,3 3,4 6,8 8,12 1,2 2,5 3,8 1,3 1,7 1,12 0,7 -2,12 -7,16 -5,4 -12,6 -21,5 -8,0 -15,2 -19,6 -1,0 -3,2 -4,3 0,1 -1,2 -1,3 -2,3 -3,7 -2,10 0,2 0,3 1,4 1,4 3,7 7,11l0 0c0,0 1,1 1,1l60 61c0,1 1,1 2,0l69 -67c4,-4 6,-8 4,-13 -1,-7 -6,-10 -12,-12 -13,0 -23,-2 -30,-7 -4,-3 -8,-7 -10,-12 -5,-14 0,-29 17,-43 2,-2 5,-3 7,-5 13,-8 25,-8 38,1 6,4 10,13 11,28 0,8 2,14 7,17 3,3 7,3 13,0 2,-1 5,-3 7,-5l54 -52c0,-1 0,-2 0,-2l-172 -176c-1,-1 -2,-1 -2,-1l-175 171c-1,0 -1,1 0,2l50 51c0,0 0,0 0,1l0 0zm10 3c-3,-1 -6,-3 -9,-6l-48 -50 173 -169 170 175 -52 51c-3,2 -6,4 -7,5 -6,3 -9,2 -11,0 0,0 -1,-1 -1,-1 -3,-3 -5,-8 -5,-14 0,-16 -4,-26 -12,-30 -13,-9 -27,-10 -40,-1 -3,1 -5,3 -7,5 -18,15 -24,31 -18,46 2,5 6,10 11,13 7,5 17,8 30,8 6,1 9,4 11,9 1,4 0,8 -4,11l-68 66 -59 -60c0,0 -1,-1 -1,-1 -3,-3 -6,-7 -7,-10 0,-1 -1,-2 -1,-3 0,-3 1,-6 2,-9 1,-1 1,-2 2,-2 0,-1 1,-2 3,-3 3,-4 9,-5 17,-5 10,0 17,-2 23,-6 5,-4 7,-11 8,-18 0,-5 -1,-9 -2,-13 0,-3 -1,-6 -3,-9 -3,-5 -7,-11 -12,-15 -4,-4 -8,-7 -12,-9 -1,-1 -2,-1 -3,-2 -11,-6 -21,-6 -31,-2 -10,5 -15,16 -15,31 0,3 -1,6 -2,9 -1,3 -3,5 -6,7 -4,3 -9,4 -13,2 -1,0 -1,0 -1,0l0 0z"/>
   <path class="fil4" d="M679 291c8,-6 21,-19 47,-45l-158 -162 -31 29c0,0 50,108 39,160 0,0 33,-48 68,-31 10,5 21,11 23,48 0,0 1,10 12,1z"/>
   <path class="fil4" d="M585 319c0,0 4,23 5,32 0,6 -3,28 -3,28 0,0 50,-40 40,-43 -10,-3 -40,-5 -42,-17z"/>
   <path class="fil4" d="M1017 435l0 0c-5,-2 -9,-6 -12,-10 -3,-3 -4,-6 -6,-10 -1,-4 -1,-8 -1,-11 0,-3 1,-6 2,-9 6,-10 14,-17 26,-22 1,0 2,0 3,-1 23,-7 40,-1 48,18 3,8 2,18 -4,30 -4,11 -2,19 6,25 0,0 1,0 2,1 2,1 5,0 8,0l74 -23 72 232 -234 72 -17 -57c-2,-4 -4,-10 -7,-20 -2,-8 -2,-15 2,-20 1,-1 3,-2 4,-3l0 0c2,-1 4,-2 5,-3 7,-2 14,-1 22,4 5,4 11,5 17,5 12,-1 20,-8 25,-18 3,-8 4,-17 2,-26 -1,-12 -7,-22 -16,-30 -6,-5 -12,-8 -19,-9 -10,0 -20,6 -29,18 -4,8 -10,14 -17,16 0,0 -1,0 -2,0 -8,1 -13,-2 -16,-9 0,0 -1,0 0,0 -1,-1 -1,-2 -2,-3l-23 -77 88 -27c4,-2 7,-4 10,-6 1,-1 1,-1 2,-2 1,-2 1,-3 1,-5 1,-7 -3,-13 -11,-18 -1,-1 -2,-1 -3,-2l0 0z"/>
   <path class="fil4" d="M1000 728c0,0 0,0 0,0 1,1 1,1 1,0l234 -71c1,0 1,-1 1,-2l-72 -233c0,0 0,0 0,0 -1,0 -1,0 -1,0l-74 22c-4,1 -6,1 -8,0 0,0 -1,0 -1,0 -8,-6 -10,-13 -5,-23 5,-12 7,-23 3,-31 -1,-2 -2,-5 -3,-6 -9,-15 -25,-20 -47,-13 -1,0 -1,1 -2,1 -12,5 -21,12 -27,23 -1,3 -2,6 -2,9 0,3 0,7 1,11 1,3 2,6 4,8l0 0c0,1 1,2 2,3 3,4 7,8 13,10 0,0 0,1 0,1 0,0 1,0 1,0 0,0 0,1 1,1 8,5 11,11 11,17 0,2 -1,3 -1,4 -1,1 -1,1 -2,2 -2,2 -6,4 -10,5l-88 27c0,1 -1,1 -1,2l24 77c0,1 1,2 1,3 0,0 1,1 1,1 0,1 0,2 1,2 3,6 9,8 17,7 0,0 1,0 2,0 7,-2 13,-8 17,-16 9,-12 18,-18 28,-18 6,1 12,4 18,9 9,8 14,18 16,29 2,9 1,18 -2,25 -5,11 -13,16 -24,17 -6,1 -12,-1 -17,-4 -8,-6 -15,-7 -22,-4 -2,1 -4,1 -6,3 -2,1 -3,2 -4,3 -4,6 -5,13 -2,22 3,8 5,15 6,20l18 57c0,0 0,0 0,0l0 0zm233 -73l-231 71 -17 -56c-2,-4 -4,-11 -6,-20 -3,-8 -2,-14 1,-19 1,-1 2,-2 4,-3 2,-1 3,-2 5,-3 6,-2 13,-1 20,4 5,4 12,6 18,5 12,-1 21,-7 26,-19 4,-8 5,-17 3,-26 -2,-12 -8,-23 -18,-31 -5,-5 -12,-9 -19,-9 -10,-1 -20,5 -30,18 -4,8 -10,14 -16,15 -1,1 -1,1 -2,1 -7,1 -12,-2 -15,-8 0,0 0,0 0,0 0,-1 0,-1 0,-1 -1,-1 -1,-2 -1,-3l-24 -75 87 -27c5,-2 8,-4 11,-6 1,-1 1,-2 2,-2 1,-2 1,-4 1,-6 1,-7 -3,-14 -12,-19 0,-1 0,-1 -1,-1 0,0 0,0 -1,-1 0,0 0,0 0,0 -5,-3 -9,-6 -12,-10 -1,0 -1,-1 -2,-2 0,0 0,0 0,0 -1,-2 -2,-5 -3,-7 -1,-4 -2,-8 -1,-11 0,-3 0,-6 2,-8 5,-10 13,-17 25,-21 0,-1 1,-1 2,-1 23,-8 39,-2 47,17 3,7 2,17 -4,29 -4,11 -2,20 6,26 1,0 2,1 2,1 2,1 5,1 10,0l72 -22 71 230 0 0z"/>
   <path class="fil4" d="M1215 648l-63 -210 -23 7c0,0 61,130 -72,252l158 -49z"/>
   <path class="fil4" d="M659 528c1,-1 2,-1 3,-2 1,0 1,0 2,0 2,-1 5,-1 6,0 2,1 4,2 5,3l61 63 -65 64c-5,5 -5,10 0,16 2,3 5,5 9,6 1,1 2,1 4,2 2,0 5,1 8,1 0,0 1,0 1,0 12,1 21,6 26,13 6,10 7,20 4,29 -2,6 -6,12 -11,17 -3,4 -8,7 -13,10 -13,9 -25,10 -36,3 -1,-1 -3,-2 -4,-3 -9,-7 -13,-17 -12,-30 1,-10 -2,-17 -10,-22 -3,-2 -6,-2 -9,0 -2,2 -4,3 -4,3 0,0 0,1 -1,1l-63 62 -61 -62c-5,-6 -4,-12 3,-18 0,0 0,0 0,-1 2,-1 4,-2 7,-3 1,0 2,-1 3,-1 3,0 5,-1 8,-1 0,0 1,0 1,0 12,0 20,-3 25,-10 6,-9 7,-18 3,-26 -2,-7 -6,-12 -10,-18 -4,-4 -8,-7 -13,-11 -12,-9 -24,-11 -34,-6 -8,5 -13,10 -15,17 -1,4 -1,8 0,13 0,3 0,6 -1,9 -2,6 -6,10 -12,13 -3,1 -6,0 -9,-2l-68 -70 57 -55c5,-4 7,-8 9,-14 0,0 0,-1 0,-2 0,-2 0,-5 -1,-8 -3,-6 -10,-11 -20,-13 -14,-2 -23,-5 -28,-11 -10,-13 -9,-28 3,-46 11,-15 25,-21 42,-19 4,1 7,2 10,4 8,3 12,12 12,27 1,11 5,19 12,24 3,2 7,3 10,3 2,0 3,-1 5,-1 3,-1 7,-3 11,-8l55 -53 61 63c3,3 5,8 6,12 0,3 -1,5 -2,7 -1,1 -2,2 -3,4 0,0 -1,0 -1,0 -4,4 -10,5 -17,5 -5,-1 -9,-1 -13,0 -6,2 -10,5 -15,10 -1,2 -2,3 -4,6 -6,10 -4,22 5,34 0,1 0,1 0,1 3,5 7,9 11,12 5,5 10,9 17,11 8,4 18,2 27,-3 7,-6 11,-14 12,-26 0,0 0,0 0,-1 0,-3 0,-5 1,-8 0,-1 1,-2 1,-4 2,-4 5,-8 9,-10 0,0 0,0 0,0l0 0z"/>
   <path class="fil4" d="M661 525c-1,1 -3,2 -3,2 -4,2 -7,6 -9,11 0,1 -1,2 -1,3l0 1c-1,2 -1,5 -1,8 0,0 0,1 0,1 -1,11 -5,19 -12,25 -9,5 -17,6 -26,3 -6,-2 -11,-6 -17,-11 -3,-3 -7,-7 -10,-12 0,0 0,0 0,0 -9,-13 -10,-24 -4,-34 1,-2 2,-3 3,-5 4,-5 9,-8 14,-10 4,-1 8,-1 12,0 8,1 15,-1 19,-5l1 0c1,-2 2,-3 3,-4 1,-3 2,-5 2,-8 0,-5 -2,-9 -6,-13l-61 -62c-1,-1 -2,-1 -2,-1l-55 53c-3,4 -7,7 -11,8 -1,0 -3,0 -4,0 -3,1 -6,0 -9,-2 -1,-1 -2,-2 -3,-3 -5,-4 -8,-11 -8,-20 -1,-15 -5,-25 -13,-29 -3,-1 -7,-2 -10,-3 -18,-3 -33,4 -44,19 -13,19 -14,35 -3,48 0,0 1,1 1,1 5,5 15,9 28,10 10,3 16,7 19,13 1,2 1,5 1,7 0,0 0,1 0,1 -1,0 -1,1 -1,1 -1,5 -4,9 -8,13l-56 55c-1,1 -1,2 0,2l68 70 0 0c2,3 6,3 10,2 6,-3 11,-7 13,-14 0,-2 0,-5 0,-9 -1,-5 0,-9 1,-12 1,-7 6,-12 14,-17 10,-5 20,-3 32,6 5,4 9,7 13,11 5,6 8,11 10,17 3,8 2,17 -3,26 -5,6 -13,9 -24,9 0,0 -1,0 -1,0 -3,0 -6,0 -8,1l-1 0c-1,0 -2,0 -3,1 -2,1 -5,2 -7,3l0 1c-7,7 -8,13 -3,20l61 62c0,0 1,0 2,0l64 -63c0,0 1,-1 4,-3 2,-2 5,-2 7,0 8,4 11,11 10,21 -1,14 3,24 12,31 1,1 3,2 5,3 11,7 23,6 37,-3 5,-3 10,-7 13,-11 5,-5 9,-11 11,-17 4,-9 2,-19 -4,-30 -1,-1 -1,-2 -2,-3 -6,-5 -14,-9 -25,-10 0,0 -1,0 -1,0 0,0 0,0 0,0 -3,0 -5,-1 -8,-2 -1,0 -2,0 -4,-1 -3,-1 -6,-3 -8,-6 -4,-5 -4,-10 0,-15l65 -63c0,0 0,-1 0,-2l-61 -63c0,0 -1,0 -1,-1 -1,-1 -3,-2 -4,-2 -2,-1 -5,-1 -8,-1 0,0 -1,1 -2,1zm3 2c2,-1 4,-1 6,0 1,1 3,2 4,3l60 62 -64 63c-5,6 -5,12 0,18 2,3 5,5 9,7 2,0 3,1 4,1 3,1 6,1 9,1 0,1 1,1 1,1 11,1 20,5 25,12 6,10 7,19 4,27 -3,6 -6,12 -11,17 -3,4 -7,7 -13,10 -12,9 -24,10 -34,3 -1,-1 -3,-2 -5,-3 -7,-6 -11,-16 -11,-29 2,-11 -2,-18 -10,-23 -4,-2 -8,-2 -11,0 -2,2 -3,3 -4,3l-63 62 -60 -61c-3,-3 -6,-8 3,-16l0 -1c2,-1 4,-2 6,-3 1,0 2,0 2,0l2 -1c2,0 4,0 7,0 0,0 0,0 1,0 0,0 0,0 0,0 12,0 21,-4 26,-11 6,-9 7,-19 3,-28 -2,-6 -5,-12 -10,-18 -1,-1 -2,-2 -3,-3l0 0c-3,-3 -6,-5 -10,-8 -13,-10 -25,-12 -35,-6 -9,5 -14,11 -16,18 -1,4 -1,8 -1,13 1,4 1,6 0,8 -2,6 -5,10 -11,13 -3,1 -6,0 -7,-2l-1 0 -67 -69 56 -54c5,-4 8,-9 9,-14 0,-1 0,-1 0,-2 0,0 0,0 0,-1 1,-3 0,-5 -1,-8 -3,-7 -10,-12 -20,-14 -14,-2 -24,-6 -28,-11 -10,-12 -9,-27 3,-44 10,-15 24,-21 41,-18 4,0 7,1 9,3 2,1 4,2 5,3 4,4 7,12 7,23 1,12 5,20 12,25 4,2 7,3 11,3 2,0 3,0 5,-1 4,-1 8,-3 12,-8l54 -52 60 62c0,0 0,0 1,1 3,3 4,6 4,10 0,3 0,5 -1,6 -1,1 -2,2 -3,4l-1 0c-4,4 -9,5 -16,4 -5,0 -9,0 -13,1 -6,2 -11,5 -16,10 -1,2 -3,4 -4,6 -6,11 -5,23 5,36 0,0 0,0 0,0 0,0 0,1 0,1 3,5 7,9 11,12 5,5 11,9 17,11 9,4 19,3 29,-3 7,-6 11,-15 12,-27 0,0 0,0 0,0 0,0 0,-1 0,-1 0,-3 1,-5 1,-7l1 -1c0,-1 0,-2 0,-3 2,-4 5,-8 8,-10 0,0 2,-1 2,-1 0,0 2,-1 2,-1l1 0z"/>
   <path class="fil4" d="M521 468c0,0 44,82 53,119 4,15 12,40 15,68 4,36 4,69 4,69 0,0 20,-19 29,-26 5,-5 21,-14 28,10 1,4 1,9 1,18 -1,5 4,15 8,20 5,5 17,20 48,-6 7,-7 18,-21 11,-37 -2,-5 -6,-15 -28,-16 0,0 -14,-1 -22,-11 -4,-5 -11,-12 -1,-24l59 -59 -55 -58c0,0 -3,-6 -9,-3 -4,1 -7,4 -8,15 -3,18 -2,21 -10,31 -10,11 -26,11 -41,5 -15,-7 -18,-8 -31,-28 -7,-10 -12,-36 10,-49 7,-4 19,-7 33,-7 4,1 14,-4 7,-13 -11,-15 -59,-58 -59,-58l-42 40z"/>
   <path class="fil4" d="M548 283c1,4 1,8 1,13 0,7 -3,13 -7,17 -5,4 -13,6 -22,6 -8,-1 -14,1 -18,5 -2,1 -3,2 -4,3 0,1 -1,2 -1,2 -2,4 -3,7 -2,10 0,1 0,3 1,4 1,3 4,7 8,11l60 61 -55 53c-4,4 -8,7 -11,8 -2,0 -3,1 -5,1 -4,0 -7,-1 -10,-3 -7,-5 -11,-13 -12,-24 0,-15 -4,-24 -12,-28 -3,-1 -6,-2 -10,-3 -17,-2 -31,4 -42,19 -12,18 -13,33 -3,46 5,5 14,9 28,11 10,2 17,7 20,13 1,3 1,5 1,8 0,1 0,2 0,2 -2,6 -5,10 -9,14l-57 55 -69 -71c0,0 -1,-1 -1,-2 0,0 -1,0 -1,0 -2,-4 -2,-8 1,-12 5,-5 13,-8 22,-9 15,-1 24,-5 28,-13 1,-2 3,-5 3,-9 3,-18 -4,-32 -19,-43 -18,-12 -33,-13 -45,-2 -6,4 -10,13 -12,28 -2,10 -6,16 -12,19 -3,1 -6,0 -8,-2l-59 -60 177 -172 48 50c0,0 1,0 1,1 3,3 6,5 9,6 0,0 1,1 1,1 5,1 10,0 15,-3 3,-2 5,-4 6,-7 2,-3 2,-6 2,-10 0,-15 5,-25 15,-30 9,-4 19,-3 29,2 1,1 2,1 4,2 3,2 7,5 11,9 5,4 9,9 12,15 1,3 2,5 3,8l0 0z"/>
   <path class="fil4" d="M274 472c2,3 5,3 8,2 7,-3 11,-10 14,-20 1,-14 5,-23 10,-27 12,-10 27,-9 45,2 14,11 20,25 18,42 -1,3 -2,6 -3,9 -4,7 -12,11 -27,12 -10,0 -17,4 -23,9 -3,4 -4,9 -1,14 0,0 0,0 0,0 0,0 0,0 1,0 0,1 1,2 1,2l69 71c1,1 2,1 2,0l57 -55c4,-4 8,-9 9,-14 0,-1 0,-1 0,-2 0,0 0,0 0,-1 0,-3 0,-6 -1,-8 -3,-7 -10,-12 -20,-14 -14,-2 -24,-6 -28,-11 -10,-12 -9,-27 3,-44 10,-15 24,-21 41,-18 4,0 7,1 9,3 2,0 4,2 5,3 4,4 7,12 7,23 1,11 5,20 12,25 4,2 7,3 11,3 2,0 3,0 5,-1 4,-1 8,-3 12,-8l55 -53c0,0 0,-1 0,-2l-60 -61c-1,0 -1,-1 -1,-1l0 0c-4,-3 -6,-7 -7,-10 -1,-1 -1,-2 -1,-3 0,-3 0,-6 2,-9 1,-1 1,-2 1,-2 1,-1 2,-2 3,-3 4,-4 10,-5 18,-5 10,0 17,-2 23,-6 5,-4 7,-11 8,-18 0,-5 -1,-9 -2,-13 -1,-3 -2,-6 -3,-9 -3,-5 -7,-11 -13,-15 -3,-4 -7,-7 -11,-9 -1,-1 -2,-1 -3,-2 -11,-6 -21,-6 -31,-2 -10,5 -15,16 -15,31 0,3 -1,6 -2,9 -1,3 -3,5 -6,7 -4,3 -9,4 -14,2 0,0 0,0 0,0 -3,-1 -6,-3 -9,-6l-49 -51c-1,-1 -2,-1 -2,0l-176 172c-1,0 -1,1 -1,2l60 60 0 0zm86 -38c-2,-2 -5,-5 -8,-7 -19,-12 -34,-13 -47,-2 -6,4 -10,14 -12,29 -2,9 -6,15 -12,18 -2,1 -4,0 -5,-1l-1 -1 -58 -59 175 -170 48 50c1,0 1,0 1,1 3,2 6,4 9,6 0,0 0,0 0,0 0,0 0,0 1,0 5,2 11,1 16,-3 3,-2 5,-5 7,-8 1,-3 2,-6 2,-10 -1,-14 4,-24 13,-28 9,-4 19,-4 28,1 2,1 3,2 4,2 3,2 7,5 11,9 1,1 2,2 3,3 4,4 7,8 9,12 1,2 2,5 3,8 1,3 1,7 1,12 0,7 -3,12 -7,16 -5,4 -12,6 -21,5 -9,0 -15,2 -19,6 -1,0 -3,2 -4,3 0,1 -1,2 -1,3 -2,3 -3,7 -3,10 1,2 1,3 2,4 1,4 3,7 7,11 0,0 0,0 0,0 0,0 1,1 1,1l59 60 -54 52c-3,4 -7,7 -11,8 -1,0 -3,0 -4,0 -3,1 -7,0 -9,-2 -1,-1 -2,-2 -3,-3 -5,-4 -8,-11 -8,-20 -1,-15 -5,-25 -14,-29 -2,-1 -6,-3 -10,-3 -18,-3 -32,4 -43,19 -13,19 -14,35 -3,48 0,0 1,0 1,1 5,5 15,9 28,10 9,2 16,7 18,13 1,2 2,4 2,7 -1,0 -1,0 -1,1 0,0 0,1 0,1 -1,5 -4,9 -8,13l-56 54 -68 -70c0,0 -1,-1 -1,-1 0,-1 0,-1 -1,-1 -2,-4 -2,-7 1,-10 5,-5 12,-8 21,-9 15,0 25,-5 29,-13 2,-3 3,-6 3,-10 3,-15 -1,-27 -11,-37l0 0z"/>
   <path class="fil4" d="M392 253l-29 27c0,0 37,37 59,137 0,0 10,-6 22,-6 7,0 13,2 20,7 5,5 7,8 9,12 1,5 3,10 4,23 0,5 8,22 20,16 17,-9 55,-53 55,-53 0,0 -50,-49 -63,-69 -4,-6 -5,-24 6,-30 7,-4 19,-6 28,-6 9,1 33,-14 10,-42 0,0 -10,-14 -31,-18 -3,0 -19,1 -20,17 0,6 2,14 -4,24 -2,5 -12,14 -21,14 -10,0 -13,1 -31,-20l-34 -33z"/>
   <path class="fil4" d="M447 518c0,0 2,-11 -8,-14l-19 -6c0,0 17,12 2,47l24 -23 1 -4z"/>
   <path class="fil4" d="M492 607c10,-5 22,-3 34,6 5,4 9,7 13,11 4,6 8,11 10,18 4,8 3,17 -3,26 -5,7 -13,10 -25,10 0,0 -1,0 -1,0 -3,0 -5,1 -8,1 -1,0 -2,1 -3,1 -3,1 -5,2 -7,3 0,1 0,1 0,1 -7,6 -8,12 -3,18l61 62 -71 69c-3,2 -6,3 -8,3 -2,-1 -3,-1 -4,-2 -6,-4 -9,-12 -10,-22 1,-14 -3,-23 -10,-26 -3,-2 -6,-2 -10,-3 -16,-2 -30,5 -41,20 -13,18 -14,32 -5,44 4,5 13,8 27,9 8,2 14,5 17,10 0,1 1,1 1,2 1,3 0,7 -5,11l-57 57 -173 -177 59 -58c3,-3 7,-4 10,-4 1,0 2,1 3,1 6,3 11,10 13,20 1,14 5,24 10,28 12,11 28,10 46,-1 16,-11 22,-25 20,-42 0,-4 -1,-7 -3,-10 -3,-8 -12,-12 -27,-13 -11,-1 -19,-5 -24,-12 -1,-1 -1,-3 -2,-4 -1,-4 0,-7 3,-10l68 -67 68 70c3,2 6,3 9,2 6,-3 10,-7 12,-13 1,-3 1,-6 1,-9 -1,-5 -1,-9 0,-13 2,-7 7,-12 15,-17l0 0z"/>
   <path class="fil4" d="M210 760l173 177c0,0 1,0 1,0l58 -57c5,-4 7,-9 5,-13 0,0 -1,-1 -1,-2 -3,-5 -9,-8 -18,-10 -13,-1 -22,-4 -26,-9 -9,-11 -7,-25 5,-42 11,-15 24,-21 40,-20 4,1 7,2 9,3 2,1 3,2 4,3 4,4 6,11 6,22 0,11 4,19 11,23 1,1 2,2 3,2 4,1 7,0 10,-3l71 -69c0,-1 0,-1 0,-2l-61 -62c-3,-3 -6,-8 3,-16l0 -1c2,-1 4,-2 6,-3 1,0 2,0 2,0l2 -1c2,0 4,0 7,0 0,0 0,0 1,0 0,0 0,0 0,0 12,0 21,-4 26,-11 6,-9 7,-19 3,-28 -2,-6 -5,-12 -10,-18 -4,-4 -8,-7 -13,-11 -13,-10 -25,-12 -35,-6 -9,5 -14,11 -16,18 -1,4 -1,8 -1,13 1,4 1,6 0,8 -2,6 -5,10 -11,13 -3,1 -6,0 -7,-2l-1 0 -68 -70c0,0 -1,0 -1,0l-69 67c-3,3 -4,7 -3,12 1,1 1,2 2,3 1,2 2,3 3,4 5,5 12,8 22,9 14,1 23,5 26,12 1,3 2,6 3,10 2,17 -5,31 -20,41 -17,11 -32,11 -44,1 0,0 -1,-1 -1,-1 -5,-5 -8,-14 -9,-26 -2,-11 -7,-18 -13,-21l-3 -1c0,0 0,0 0,0 -5,-1 -8,1 -11,4l-60 58c0,0 0,1 0,2l0 0zm174 174l-171 -175 58 -57c3,-3 6,-4 9,-4l3 1c1,1 3,2 4,4 4,3 6,8 8,15 1,14 5,24 11,29 12,11 28,11 47,-1 16,-11 23,-25 20,-44 0,-3 -1,-7 -3,-10 -1,-2 -2,-3 -3,-5 -5,-5 -13,-8 -25,-8 -11,-2 -18,-6 -23,-12 0,-1 -1,-2 -1,-3 -1,-4 -1,-6 2,-9l67 -66 68 69c2,3 6,3 10,2 6,-3 11,-7 13,-14 0,-2 0,-5 0,-9 -1,-5 0,-9 1,-12 1,-7 6,-12 14,-17 10,-5 20,-3 32,6 5,4 9,7 13,11 5,6 8,11 10,17 3,8 2,17 -3,26 -5,6 -13,9 -24,9 0,0 -1,0 -1,0 -3,0 -6,0 -8,1l-1 0c-1,0 -2,0 -3,1 -2,1 -5,2 -7,3l0 1c-7,7 -8,13 -3,20l60 61 -70 68c-2,2 -5,3 -7,3 -1,-1 -2,-1 -3,-2 -1,0 -2,-1 -3,-2 -4,-5 -6,-11 -6,-19 0,-15 -4,-24 -12,-27 -2,-2 -6,-3 -9,-3 -18,-2 -32,5 -43,20 -13,19 -15,34 -5,46 1,0 1,1 1,1 5,5 14,8 27,9 8,1 13,4 16,9 0,0 0,1 1,1 1,3 0,7 -5,10l-56 56 0 0z"/>
   <path class="fil4" d="M390 598l-23 23c0,0 63,63 44,168 0,0 11,-14 38,-11 8,1 13,2 20,14 2,4 4,14 4,22 0,5 0,14 9,16l66 -67c0,0 -57,-54 -59,-65 -1,-8 3,-24 24,-24 10,0 33,-1 32,-22 -1,-8 -2,-29 -33,-41 -4,-1 -12,-4 -22,4 -4,4 -7,5 -8,21 -1,6 1,17 -9,26 -4,3 -13,8 -17,4l-66 -68z"/>
   <path class="fil4" d="M437 873c-6,7 -27,27 -27,27 0,0 7,-30 -2,-44 0,0 6,5 12,6 0,0 25,1 17,11z"/>
   <path class="fil4" d="M637 844c3,3 5,6 6,9 0,0 0,0 0,0 1,2 1,4 1,6 -1,4 -4,8 -10,11 -5,3 -10,5 -17,6 -14,1 -23,6 -28,14 -1,3 -3,6 -3,10 -4,17 2,31 16,41 18,11 33,11 46,0 6,-5 10,-15 12,-29 3,-10 8,-16 14,-20 1,-1 3,-1 4,-1 0,0 0,0 0,0 3,-1 7,1 10,5l41 42 -176 171 -170 -174 58 -56c4,-4 6,-8 4,-11 0,-1 0,-2 -1,-2 -3,-5 -8,-8 -17,-10 -13,-1 -22,-4 -26,-10 -10,-11 -8,-26 4,-43 11,-15 25,-22 42,-20 3,0 6,1 9,3 7,3 11,11 11,25 0,11 3,18 10,23 1,1 2,1 3,2 3,0 6,-1 9,-4l70 -68 78 80 0 0z"/>
   <path class="fil4" d="M383 937l169 174c1,0 2,0 2,0l176 -172c1,0 1,-1 0,-2l-41 -42c-3,-4 -7,-6 -10,-5l0 0c0,0 0,0 -1,0 0,0 0,0 0,0 -1,0 -2,0 -4,1 -7,4 -12,11 -14,21 -3,14 -7,23 -13,28 -12,11 -26,11 -43,0 -14,-9 -20,-23 -16,-40 0,-3 2,-6 3,-9 4,-7 13,-12 27,-13 7,-1 13,-3 17,-6 6,-4 10,-8 11,-12 0,-2 0,-4 -1,-7 0,0 0,0 0,0 0,0 0,0 0,0 -1,-3 -3,-7 -6,-10l-78 -80c-1,-1 -2,-1 -2,0l-71 69c-2,2 -5,3 -7,3 -1,-1 -2,-1 -3,-2 -1,0 -2,-1 -3,-2 -4,-5 -6,-11 -6,-19 0,-15 -4,-24 -12,-27 -2,-2 -6,-3 -9,-3 -18,-2 -32,5 -43,20 -13,19 -15,34 -5,46 1,0 1,1 1,1 5,5 14,8 27,9 8,1 13,4 16,9 0,0 0,1 1,1 1,3 0,7 -5,10l-57 57c-1,0 -1,1 0,2l0 0zm170 171l-168 -172 57 -56c5,-4 7,-9 5,-13 0,0 -1,-1 -1,-2 -3,-5 -9,-8 -18,-10 -13,-1 -22,-4 -26,-9 -9,-11 -7,-25 5,-42 11,-15 24,-21 40,-20 4,1 7,2 9,3 2,1 3,2 4,3 4,4 6,11 6,22 0,11 4,19 11,23 1,1 2,2 3,2 4,1 7,0 10,-3l70 -68 77 79c3,3 5,6 6,8 0,1 0,1 0,1 0,2 1,4 0,5 -1,4 -4,7 -9,11 -5,2 -10,4 -16,5 -15,2 -25,6 -29,15 -2,3 -3,6 -4,10 -3,14 1,27 10,36l0 0c2,2 4,4 7,6 18,11 34,11 47,0 6,-5 11,-15 13,-29 3,-10 7,-16 13,-19 1,-1 3,-1 3,-2 0,0 1,0 1,0 2,0 5,2 8,5l1 0 40 41 -175 170z"/>
   <path class="fil4" d="M559 773l-33 32c0,0 88,161 61,260l130 -129c0,0 -34,-37 -39,-38 0,0 -9,1 -13,15 -2,9 2,7 -6,22 -5,10 -19,22 -37,20 -7,-1 -25,-10 -35,-25 -5,-8 -11,-17 -4,-35 3,-9 4,-17 30,-23 5,-1 9,-2 20,-6 0,0 9,-10 -1,-18l-73 -75z"/>
   <path class="fil4" d="M351 428c16,11 22,25 19,43 0,4 -1,7 -3,10 -4,7 -13,12 -28,12 -9,1 -17,4 -22,9 -3,4 -3,8 -1,12 1,0 1,0 1,0 0,1 1,2 1,2l69 71 -68 67c-3,3 -4,6 -3,10 1,1 1,3 2,4 5,7 13,11 24,12 15,1 24,5 27,13 2,3 3,6 3,10 2,17 -4,31 -20,42 -18,11 -34,12 -46,1 -5,-4 -9,-14 -10,-28 -2,-10 -7,-17 -13,-20 -1,0 -2,-1 -3,-1 -3,0 -7,1 -10,4l-59 58 -172 -177 177 -171 59 60c1,2 4,3 7,2 6,-3 10,-9 12,-19 2,-14 6,-24 12,-28 12,-11 27,-10 45,2l0 0z"/>
   <path class="fil4" d="M38 583l172 177c1,0 2,0 2,0l59 -58c3,-3 6,-4 9,-4l3 1c1,1 3,2 4,4 4,3 6,8 8,15 1,14 5,24 11,29 12,11 28,11 47,-1 16,-11 23,-25 20,-44 0,-3 -1,-7 -3,-10 -1,-2 -2,-3 -3,-5 -5,-5 -13,-8 -25,-8 -11,-2 -18,-6 -23,-12 0,-1 -1,-2 -1,-3 -1,-4 -1,-6 2,-9l68 -67c1,0 1,-1 0,-2l-69 -71c0,0 -1,-1 -1,-1 0,-1 0,-1 -1,-1 -2,-4 -1,-7 1,-10 5,-5 12,-8 22,-9 15,0 24,-5 28,-13 2,-3 3,-6 3,-10 3,-18 -3,-33 -19,-44 -18,-12 -34,-13 -47,-2 -6,4 -10,14 -12,29 -2,9 -6,15 -12,18 -2,1 -4,0 -5,-1l0 -1 -60 -60c0,-1 -1,-1 -1,0l-177 171c0,1 0,2 0,2l0 0zm173 174l-170 -175 175 -169 58 60c2,2 5,2 8,1 7,-3 11,-10 14,-20 1,-14 5,-23 11,-27 11,-10 26,-9 44,3 14,10 20,24 18,41 -1,3 -2,6 -3,9 -4,7 -12,11 -27,12 -10,0 -17,4 -23,9 -3,4 -4,9 -1,14 0,0 0,0 0,0 0,0 1,0 1,0 0,1 1,2 2,2l68 70 -68 66c-3,3 -4,7 -3,12 1,1 1,2 2,3 1,2 2,3 3,4 5,5 12,8 22,9 14,1 23,5 26,12 1,3 2,6 3,10 2,17 -5,31 -20,41 -17,11 -32,11 -44,1 0,0 -1,-1 -1,-1 -5,-5 -8,-14 -9,-26 -2,-11 -7,-18 -13,-21l-3 -1c0,0 0,0 0,0 -5,-1 -8,1 -11,4l-59 57 0 0z"/>
   <path class="fil4" d="M247 455c-16,-17 -32,-32 -32,-32l-32 30c0,0 102,106 63,258 0,0 17,-22 29,-22 8,0 22,3 25,20 1,8 1,20 9,30 0,0 5,6 16,7 8,1 20,-1 31,-14 6,-7 17,-30 3,-40 -4,-2 -7,-4 -20,-4 -8,0 -23,-4 -28,-12 -3,-4 -12,-14 0,-25l66 -65c0,0 -50,-49 -66,-68 -3,-3 -7,-11 3,-20 5,-4 7,-8 19,-10 4,0 7,0 14,-2 8,-2 26,-10 15,-34 0,0 -12,-28 -41,-27 0,0 -17,2 -20,17 -1,7 0,11 -6,24 -3,5 -12,19 -20,15 -7,-3 -17,-16 -28,-26z"/>
  </g>
  <g id="_2496778768">
   <path class="fil5" d="M830 437c-1,-13 -4,-23 -11,-28 -11,-9 -22,-11 -33,-6 -6,2 -12,6 -18,12 0,0 -1,1 -2,2 -8,9 -12,20 -13,31 1,3 1,6 3,9 1,3 3,6 6,9 3,3 6,5 9,7 5,2 10,3 16,3l0 0c1,0 2,0 3,0 9,1 16,5 18,12 1,1 1,3 1,4 0,1 0,2 0,3 -2,3 -4,6 -7,10l-66 64 -61 -63c-1,0 -1,-1 -2,-1 -1,-1 -2,-2 -3,-2 -1,-1 -4,-1 -6,-1 -1,0 -1,1 -2,1 -1,0 -2,1 -3,1 0,1 0,1 0,1 -1,0 -1,0 -2,1 0,0 0,0 0,0 -3,2 -5,5 -7,9 0,1 -1,3 -1,4 -1,2 -1,5 -1,8 0,0 0,1 0,1 -1,12 -5,20 -12,25 -7,5 -13,6 -20,6 -2,-1 -5,-1 -7,-2 -7,-2 -12,-6 -17,-11 -4,-3 -8,-8 -11,-13 -9,-13 -11,-24 -5,-35 4,-6 9,-11 15,-14 1,0 3,-1 4,-1 4,-1 8,-1 13,-1 0,0 0,0 0,0 7,1 13,-1 17,-4 0,0 1,0 1,-1 1,0 1,-1 2,-2 0,0 1,-1 1,-1 1,-2 2,-4 2,-7 -1,-5 -3,-9 -6,-12l-61 -63 69 -67c4,-4 5,-8 4,-12 -2,-6 -6,-9 -12,-10 -20,0 -34,-7 -40,-21 -6,-14 0,-29 17,-44 5,-4 10,-7 14,-9 11,-4 22,-3 32,5 7,4 11,14 12,29 0,7 2,13 6,16 0,0 1,0 1,1 3,2 7,2 11,-1 2,-1 5,-3 7,-5l54 -52 172 176 -55 54c-3,3 -6,4 -8,4 -1,0 -1,0 -2,0 -2,0 -4,0 -5,-1 -7,-3 -10,-8 -11,-18l0 0z"/>
   <path class="fil6" d="M588 544c1,1 2,2 3,3 5,5 11,9 17,11 3,1 5,2 8,2 7,1 14,-1 21,-6 7,-5 11,-14 12,-26 0,0 0,0 0,-1 0,0 0,0 0,0 0,-3 1,-6 1,-8l1 -1c0,-1 0,-1 0,-2 2,-4 4,-7 7,-9 0,0 0,0 0,0l1 -1c1,0 1,0 1,-1 1,0 2,0 3,-1 0,0 0,0 0,0 0,0 1,0 1,0 2,-1 4,-1 6,0 1,0 2,1 2,2 1,0 1,0 2,1l61 63c1,0 1,0 2,0l66 -64c3,-4 5,-7 7,-11 0,-1 0,-2 1,-2 0,0 0,-1 0,-1 0,-1 -1,-3 -2,-5 -2,-7 -9,-11 -19,-12 -1,0 -2,0 -3,0 0,0 0,0 0,0 -6,0 -11,-1 -15,-3 -3,-2 -7,-4 -9,-7 -3,-3 -5,-6 -6,-9 -1,-2 -2,-5 -2,-8 0,-11 4,-21 12,-30l2 -2c6,-6 12,-10 17,-12 11,-5 22,-3 33,6 6,5 9,14 9,27 1,7 3,12 6,15l0 0c2,2 4,3 6,4 2,1 4,1 6,2 1,0 1,0 2,0 3,0 6,-2 8,-5l56 -54c0,0 0,-1 0,-1l-172 -177c-1,-1 -2,-1 -2,0l-54 52c-2,2 -5,4 -6,5 -5,2 -8,2 -10,0l-1 0c0,0 -1,-1 -1,-1 -3,-3 -5,-8 -5,-14 -1,-16 -5,-26 -12,-31 -11,-7 -22,-8 -33,-4 -5,2 -10,5 -14,9 -19,15 -25,31 -18,46 6,14 20,21 41,21 5,1 9,4 11,9 1,4 0,8 -4,11l-69 67c-1,1 -1,2 0,2l61 63c0,0 0,0 1,0 3,4 4,7 4,11 0,2 0,4 -1,6 0,0 -1,1 -1,1 -1,1 -1,2 -2,2l-1 1c-3,3 -9,4 -16,4 0,0 0,0 0,0 -5,-1 -9,0 -13,1 -2,0 -4,1 -5,1 -6,3 -11,8 -15,15 -6,11 -5,23 5,36 2,4 5,7 8,10l0 0zm59 -17c0,0 0,1 0,1 -1,11 -5,19 -12,24 -6,4 -13,6 -19,5 -2,0 -5,-1 -7,-1 -6,-3 -11,-6 -17,-11 -4,-3 -7,-7 -10,-12 -9,-13 -10,-24 -4,-34 3,-6 8,-11 13,-13 1,-1 3,-1 4,-2 4,-1 8,-1 12,0 1,0 1,0 1,0 8,0 14,-1 18,-5l1 -1c1,0 1,-1 2,-2 0,0 1,-1 1,-2 1,-2 2,-4 2,-7 0,-5 -2,-10 -6,-13l-60 -62 68 -66c4,-4 6,-9 4,-13 -1,-7 -6,-11 -13,-12 -20,0 -33,-6 -39,-19 -6,-14 0,-29 17,-43 5,-4 9,-7 14,-9 10,-4 20,-2 31,5 6,4 10,13 10,28 1,8 3,14 7,17l1 0c3,3 8,3 13,0 2,-1 4,-3 7,-5l53 -51 170 174 -54 54c-3,2 -5,3 -7,3 -1,0 -1,0 -2,0 -1,0 -3,-1 -5,-1 -6,-3 -9,-8 -10,-17 0,-14 -4,-24 -11,-29 -11,-9 -23,-11 -35,-7 -6,3 -12,7 -18,13l-2 2c-8,10 -13,21 -13,32 0,3 1,6 2,9 2,4 4,7 7,10 3,3 6,5 10,7 4,2 10,3 16,3 0,0 0,1 0,1 1,0 2,0 2,0 10,1 16,4 18,10 1,2 1,3 1,4 0,1 0,2 -1,2 -1,4 -3,7 -6,10l-65 63 -60 -62c-1,0 -1,-1 -2,-2 -1,0 -2,-1 -3,-2 -2,0 -5,-1 -8,0 0,0 -1,0 -1,1 -1,0 -2,1 -3,1 -1,0 -1,0 -1,1l-1 0c0,0 0,0 -1,1 -3,2 -6,5 -7,10 0,1 -1,2 -1,3l0 1c-1,2 -1,5 -1,8l0 0z"/>
   <path class="fil7" d="M898 399l-159 -160 -33 33c0,0 41,70 47,142 0,0 34,-52 72,-20 0,0 17,12 17,37 0,4 1,19 12,10l44 -42z"/>
   <path class="fil8" d="M756 469c0,0 14,34 2,66 0,0 51,-42 39,-49 0,0 0,-2 -24,-6 -8,-1 -14,-4 -17,-11z"/>
   <path class="fil9" d="M795 629c0,0 0,0 0,0 6,5 12,5 19,0 1,0 1,0 2,-1 5,-5 7,-12 7,-22 3,-15 9,-24 18,-28 6,-3 13,-3 21,-1 12,3 21,9 28,19 6,7 9,15 10,24 0,12 -4,21 -15,27 -5,4 -11,5 -17,4 -9,-1 -16,1 -21,6 -1,1 -2,3 -3,5 0,0 0,0 0,0 -1,2 -2,3 -2,5 -1,6 1,12 8,18 6,8 11,13 14,16l42 42 -177 172 -40 -42c-4,-4 -7,-6 -10,-5 0,0 -1,0 -1,0 -1,0 -2,1 -3,1 -7,4 -11,10 -14,20 -2,14 -7,24 -13,29 -12,11 -28,11 -45,0 -14,-10 -20,-23 -17,-41 1,-4 2,-7 4,-10 4,-8 14,-12 28,-14 6,-1 12,-3 16,-5 6,-4 10,-8 11,-12 0,-2 0,-3 -1,-5 0,-1 0,-1 0,-1 -1,-3 -3,-6 -6,-9l-78 -80 63 -62c1,-1 1,-1 1,-1 0,0 2,-1 4,-3 3,-2 6,-2 9,0 8,4 11,11 10,22 -1,13 3,23 12,30 1,1 3,2 4,3 11,7 23,6 36,-3 5,-3 10,-7 13,-11 5,-5 9,-10 11,-17 3,-9 2,-18 -4,-28 -5,-7 -14,-12 -26,-13 0,0 -1,0 -1,0 -3,0 -6,-1 -8,-2 -2,0 -3,0 -4,-1 -4,-1 -7,-3 -9,-6 -5,-6 -5,-11 0,-17l65 -63 56 58c1,0 2,1 3,2l0 0z"/>
   <path class="fil10" d="M595 913c2,2 4,4 7,6 18,11 34,11 47,0 6,-5 11,-15 13,-30 3,-9 7,-15 13,-19 1,0 3,-1 3,-1 0,0 0,0 0,0 0,0 1,0 1,0 2,0 5,1 8,5l1 0 40 42c1,0 2,0 2,0l177 -172c0,0 0,-1 0,-2l-42 -42c-3,-3 -8,-8 -15,-15l0 -1c-6,-6 -8,-11 -7,-17 1,-1 1,-3 2,-4 0,0 0,0 0,0 1,-2 2,-4 3,-5 5,-5 11,-7 20,-6 6,1 13,0 18,-4 11,-6 16,-16 15,-28 -1,-9 -4,-17 -10,-25 -7,-9 -17,-16 -29,-19 -8,-3 -15,-2 -22,0 -9,5 -15,15 -18,30 0,10 -2,17 -7,21 -1,1 -1,1 -2,1 -6,5 -12,4 -17,0l0 0c-1,-1 -2,-2 -3,-2l-56 -58c-1,0 -1,0 -2,0l-65 63c-5,6 -5,12 0,19 2,2 5,5 9,6 2,1 3,1 4,2 3,1 6,1 9,1 0,0 1,0 1,0 11,2 20,6 25,12 6,10 7,19 4,28 -3,6 -6,11 -11,16 -3,4 -7,8 -13,11 -12,8 -24,9 -34,3 -1,-1 -3,-2 -5,-3 -7,-6 -11,-16 -11,-29 2,-11 -2,-19 -10,-23 -4,-3 -8,-3 -11,0 -2,1 -3,3 -4,3l-64 63c-1,0 -1,1 0,2l78 80c3,3 5,6 6,8 0,1 0,1 0,1 0,2 1,3 0,5 -1,4 -4,7 -9,10 -5,3 -10,5 -16,6 -15,1 -25,6 -29,15 -2,3 -3,6 -4,10 -3,14 1,26 10,36l0 0zm84 -46c0,-1 0,0 -1,0 0,0 0,0 0,0 -1,0 -2,0 -4,1 -7,4 -12,11 -14,21 -3,14 -7,23 -13,28 -12,10 -26,10 -43,0 -14,-9 -20,-23 -16,-40 0,-3 2,-6 3,-9 4,-8 13,-12 27,-13 7,-1 13,-3 17,-6 6,-4 10,-8 11,-12 0,-2 0,-5 -1,-7 0,0 0,0 0,0 0,0 0,0 0,-1 -1,-3 -3,-6 -6,-9l-77 -79 63 -62c0,0 1,-1 4,-3 2,-2 5,-2 7,0 8,4 11,11 10,20 -1,15 3,25 12,32 1,1 3,2 5,3 11,7 23,6 37,-3 5,-3 10,-7 13,-11 5,-5 9,-11 11,-17 4,-9 2,-19 -4,-30 -1,-1 -1,-2 -2,-3 -6,-6 -14,-9 -25,-10 0,0 -1,0 -1,0 0,0 0,0 0,0 -3,-1 -5,-1 -8,-2 -1,0 -2,-1 -4,-1 -3,-2 -6,-3 -8,-6 -4,-5 -4,-10 0,-15l64 -62 55 56c1,1 2,2 3,3l0 0c7,5 14,5 21,1 1,-1 1,-1 2,-2 5,-5 8,-12 8,-23 2,-14 8,-23 16,-27 6,-3 13,-3 20,-1 12,3 21,9 28,19 6,7 9,15 9,23 1,11 -3,20 -13,26 -5,3 -11,5 -17,4 -9,-2 -17,1 -22,6 -1,2 -2,3 -3,5 0,0 0,1 0,1 -1,2 -2,3 -2,5 -1,6 1,13 7,19l1 0c6,8 11,13 14,16l41 41 -175 170 -40 -41c-3,-4 -7,-6 -10,-5l0 0 0 0z"/>
   <path class="fil11" d="M795 638c-9,-4 -20,-17 -31,-28 -14,-15 -28,-28 -28,-28l-33 32c0,0 43,35 63,124 14,58 0,122 0,122l124 -120c0,0 -38,-38 -50,-53 -3,-5 -6,-9 -7,-14 0,-3 -1,-6 2,-11 3,-4 15,-15 20,-16 6,-2 7,-1 15,-1 0,0 17,0 22,-15 3,-10 6,-21 -14,-39 -7,-6 -24,-13 -34,-8 -4,1 -9,4 -13,16 -1,5 -1,2 -3,15 -3,13 -3,13 -7,19 -4,5 -13,12 -26,5z"/>
   <path class="fil12" d="M549 272c0,-4 0,-8 -1,-12 -1,-3 -2,-6 -3,-8 -3,-6 -7,-11 -12,-15 -4,-4 -8,-7 -11,-9 -1,-1 -3,-2 -4,-2 -10,-5 -20,-6 -29,-2 -10,5 -15,15 -14,30 -1,3 -1,7 -2,9 -2,4 -4,6 -7,8 -5,3 -10,4 -15,2 0,0 0,0 -1,0 -3,-1 -6,-3 -8,-6 -1,-1 -1,-1 -2,-2l-48 -49 175 -171 172 177 -54 52c-2,2 -4,4 -6,5 -6,3 -10,3 -13,0 -4,-3 -6,-9 -6,-17 -1,-14 -5,-24 -11,-29 -14,-8 -27,-8 -40,0 -2,1 -4,3 -6,5 -18,15 -24,30 -18,44 2,5 6,10 10,13 8,5 18,8 30,7 7,2 11,5 12,11 1,4 0,8 -4,12l-69 67 -60 -61c-4,-4 -7,-8 -8,-11 -1,-2 -1,-3 -1,-4 0,-3 0,-7 2,-10 1,-1 1,-2 2,-2 0,-2 2,-3 3,-4 4,-3 10,-5 18,-5 10,1 17,-1 22,-6 5,-3 7,-9 7,-17l0 0z"/>
   <path class="fil13" d="M441 268c3,3 6,5 9,6 0,1 0,1 0,1 0,0 1,0 1,0 6,1 11,1 16,-3 3,-2 5,-5 7,-8 1,-3 2,-6 2,-10 0,-15 4,-24 13,-29 9,-4 19,-3 29,2 1,1 2,1 3,2 4,2 7,5 11,9 1,1 3,2 4,3 3,4 6,7 8,11 1,3 2,6 3,8 1,4 1,8 1,12 0,7 -2,13 -7,16 -5,4 -12,6 -21,6 -8,0 -15,2 -19,5 -1,1 -3,2 -4,4 0,1 -1,2 -1,3 -2,3 -3,6 -2,10 0,1 0,3 1,4 1,4 3,7 7,11l0 0c0,0 1,0 1,1l60 61c0,1 1,1 2,0l69 -68c4,-3 6,-8 4,-13 -1,-6 -6,-10 -12,-11 -13,0 -23,-2 -30,-7 -4,-3 -8,-7 -10,-12 -5,-14 0,-29 17,-43 2,-2 5,-4 7,-5 13,-8 25,-8 38,1 6,4 10,13 11,28 0,8 2,14 7,17 3,3 7,3 13,0 2,-1 5,-3 7,-5l54 -52c0,-1 0,-2 0,-2l-172 -177c-1,0 -2,0 -2,0l-175 171c-1,0 -1,1 0,2l50 51c0,0 0,0 0,0l0 0zm10 4c-3,-1 -6,-3 -9,-6l-48 -50 173 -169 170 175 -52 51c-3,2 -6,4 -7,5 -6,3 -9,2 -11,0 0,0 -1,-1 -1,-1 -3,-3 -5,-8 -5,-15 0,-15 -4,-25 -12,-30 -13,-9 -27,-9 -40,0 -3,1 -5,3 -7,5 -18,15 -24,30 -18,46 2,5 6,9 11,13 7,5 17,8 30,8 6,1 9,4 11,9 1,4 0,7 -4,11l-68 66 -59 -60c0,0 -1,-1 -1,-1 -3,-4 -6,-7 -7,-10 0,-1 -1,-2 -1,-3 0,-3 1,-6 2,-9 1,-1 1,-2 2,-2 0,-2 1,-3 3,-4 3,-3 9,-4 17,-4 10,0 17,-2 23,-7 5,-4 7,-10 8,-18 0,-4 -1,-9 -2,-12 0,-3 -1,-6 -3,-9 -3,-6 -7,-11 -12,-15 -4,-4 -8,-7 -12,-9 -1,-1 -2,-2 -3,-2 -11,-6 -21,-6 -31,-2 -10,5 -15,16 -15,31 0,3 -1,6 -2,9 -1,3 -3,5 -6,7 -4,3 -9,4 -13,2 -1,0 -1,0 -1,0l0 0z"/>
   <path class="fil14" d="M679 268c8,-6 21,-20 47,-45l-158 -162 -31 28c0,0 50,109 39,161 0,0 33,-48 68,-31 10,5 21,11 23,48 0,0 1,10 12,1z"/>
   <path class="fil15" d="M585 296c0,0 4,23 5,32 0,6 -3,28 -3,28 0,0 50,-40 40,-43 -10,-3 -40,-5 -42,-17z"/>
   <path class="fil16" d="M1017 412l0 0c-5,-3 -9,-6 -12,-10 -3,-3 -4,-6 -6,-10 -1,-4 -1,-8 -1,-11 0,-3 1,-6 2,-9 6,-10 14,-17 26,-22 1,0 2,-1 3,-1 23,-7 40,-1 48,18 3,8 2,18 -4,30 -4,11 -2,19 6,25 0,0 1,0 2,0 2,1 5,1 8,0l74 -22 72 232 -234 72 -17 -57c-2,-4 -4,-11 -7,-20 -2,-8 -2,-15 2,-20 1,-1 3,-2 4,-3l0 0c2,-2 4,-3 5,-3 7,-3 14,-1 22,4 5,3 11,5 17,5 12,-2 20,-8 25,-18 3,-8 4,-17 2,-26 -1,-12 -7,-22 -16,-30 -6,-5 -12,-8 -19,-9 -10,-1 -20,5 -29,18 -4,8 -10,14 -17,15 0,1 -1,1 -2,1 -8,1 -13,-2 -16,-9 0,0 -1,0 0,-1 -1,-1 -1,-1 -2,-3l-23 -77 88 -27c4,-1 7,-3 10,-6 1,0 1,-1 2,-1 1,-2 1,-3 1,-5 1,-7 -3,-13 -11,-18 -1,-1 -2,-1 -3,-2l0 0z"/>
   <path class="fil17" d="M1000 705c0,0 0,0 0,0 1,0 1,0 1,0l234 -71c1,-1 1,-1 1,-2l-72 -233c0,0 0,0 0,-1 -1,0 -1,0 -1,0l-74 23c-4,1 -6,1 -8,0 0,0 -1,0 -1,-1 -8,-5 -10,-12 -5,-22 5,-13 7,-23 3,-31 -1,-3 -2,-5 -3,-7 -9,-15 -25,-19 -47,-12 -1,0 -1,0 -2,1 -12,4 -21,12 -27,22 -1,3 -2,6 -2,10 0,3 0,7 1,11 1,3 2,6 4,8l0 0c0,1 1,2 2,3 3,4 7,7 13,10 0,0 0,0 0,0 0,1 1,1 1,1 0,0 0,0 1,1 8,5 11,10 11,17 0,1 -1,3 -1,4 -1,0 -1,1 -2,1 -2,3 -6,5 -10,6l-88 27c0,0 -1,1 -1,2l24 77c0,1 1,2 1,3 0,0 1,1 1,1 0,1 0,1 1,2 3,6 9,8 17,7 0,0 1,0 2,0 7,-2 13,-8 17,-17 9,-11 18,-17 28,-17 6,1 12,4 18,9 9,8 14,18 16,29 2,9 1,17 -2,25 -5,10 -13,16 -24,17 -6,1 -12,-1 -17,-4 -8,-6 -15,-7 -22,-4 -2,0 -4,1 -6,2 -2,2 -3,3 -4,4 -4,6 -5,13 -2,21 3,9 5,16 6,21l18 56c0,1 0,1 0,1l0 0zm233 -74l-231 71 -17 -55c-2,-5 -4,-12 -6,-20 -3,-8 -2,-14 1,-19 1,-1 2,-2 4,-3 2,-1 3,-2 5,-3 6,-2 13,-1 20,4 5,4 11,5 18,5 12,-1 21,-8 26,-19 4,-8 5,-17 3,-26 -2,-12 -8,-23 -18,-31 -5,-6 -12,-9 -19,-9 -10,-1 -20,5 -30,18 -4,8 -10,13 -16,15 -1,0 -1,0 -2,1 -7,1 -12,-2 -15,-8 0,0 0,-1 0,-1 0,0 0,0 0,0 -1,-1 -1,-2 -1,-3l-24 -76 87 -26c5,-2 8,-4 11,-7 1,0 1,-1 2,-1 1,-2 1,-4 1,-6 1,-7 -3,-14 -12,-20 0,0 0,0 -1,0 0,0 0,-1 -1,-1 0,0 0,0 0,0 -5,-3 -9,-6 -12,-10 -1,-1 -1,-1 -2,-2 0,0 0,0 0,0 -1,-2 -2,-5 -3,-8 -1,-3 -2,-7 -1,-10 0,-3 0,-6 2,-8 5,-10 13,-17 25,-22 0,0 1,0 2,-1 23,-7 39,-1 47,18 3,7 2,17 -4,29 -4,11 -2,20 6,26 1,0 2,0 2,1 2,1 5,1 10,0l72 -23 71 230 0 0z"/>
   <path class="fil18" d="M1215 624l-63 -209 -23 7c0,0 61,130 -72,252l158 -50z"/>
   <path class="fil19" d="M659 504c1,0 2,-1 3,-1 1,0 1,-1 2,-1 2,0 5,0 6,1 2,0 4,2 5,3l61 63 -65 63c-5,6 -5,11 0,17 2,3 5,5 9,6 1,1 2,1 4,1 2,1 5,2 8,2 0,0 1,0 1,0 12,1 21,6 26,13 6,10 7,19 4,28 -2,7 -6,12 -11,17 -3,4 -8,8 -13,11 -13,9 -25,10 -36,3 -1,-1 -3,-2 -4,-3 -9,-7 -13,-17 -12,-30 1,-11 -2,-18 -10,-22 -3,-2 -6,-2 -9,0 -2,2 -4,3 -4,3 0,0 0,0 -1,1l-63 62 -61 -62c-5,-6 -4,-12 3,-19 0,0 0,0 0,0 2,-1 4,-2 7,-3 1,-1 2,-1 3,-1 3,-1 5,-1 8,-1 0,0 1,0 1,0 12,0 20,-3 25,-10 6,-9 7,-18 3,-27 -2,-6 -6,-12 -10,-17 -4,-4 -8,-8 -13,-11 -12,-9 -24,-11 -34,-6 -8,4 -13,10 -15,17 -1,4 -1,8 0,13 0,3 0,6 -1,9 -2,6 -6,10 -12,13 -3,1 -6,0 -9,-2l-68 -70 57 -55c5,-4 7,-9 9,-14 0,-1 0,-1 0,-2 0,-3 0,-5 -1,-8 -3,-6 -10,-11 -20,-13 -14,-2 -23,-6 -28,-11 -10,-13 -9,-28 3,-46 11,-15 25,-22 42,-19 4,1 7,2 10,3 8,4 12,13 12,28 1,11 5,19 12,24 3,2 7,3 10,3 2,-1 3,-1 5,-1 3,-1 7,-4 11,-8l55 -53 61 63c3,3 5,7 6,12 0,3 -1,5 -2,7 -1,1 -2,2 -3,3 0,1 -1,1 -1,1 -4,4 -10,5 -17,4 -5,0 -9,0 -13,1 -6,1 -10,5 -15,10 -1,1 -2,3 -4,5 -6,11 -4,22 5,35 0,0 0,1 0,1 3,5 7,9 11,12 5,5 10,9 17,11 8,3 18,2 27,-4 7,-5 11,-13 12,-25 0,0 0,-1 0,-1 0,-3 0,-6 1,-8 0,-1 1,-3 1,-4 2,-5 5,-8 9,-10 0,0 0,0 0,-1l0 0z"/>
   <path class="fil20" d="M661 502c-1,0 -3,1 -3,1 -4,3 -7,7 -9,12 0,1 -1,2 -1,3l0 1c-1,2 -1,5 -1,8 0,0 0,1 0,1 -1,11 -5,19 -12,24 -9,6 -17,7 -26,4 -6,-3 -11,-6 -17,-11 -3,-3 -7,-7 -10,-12 0,0 0,-1 0,-1 -9,-12 -10,-23 -4,-33 1,-2 2,-4 3,-5 4,-5 9,-8 14,-10 4,-1 8,-1 12,0 8,0 15,-1 19,-5l1 -1c1,-1 2,-2 3,-4 1,-2 2,-4 2,-7 0,-5 -2,-10 -6,-13l-61 -63c-1,0 -2,0 -2,0l-55 53c-3,4 -7,7 -11,8 -1,0 -3,0 -4,0 -3,0 -6,0 -9,-2 -1,-1 -2,-2 -3,-3 -5,-5 -8,-11 -8,-20 -1,-15 -5,-25 -13,-29 -3,-2 -7,-3 -10,-3 -18,-3 -33,4 -44,19 -13,19 -14,35 -3,47 0,1 1,1 1,2 5,5 15,9 28,10 10,2 16,7 19,13 1,2 1,4 1,7 0,0 0,0 0,1 -1,0 -1,0 -1,1 -1,5 -4,9 -8,13l-56 55c-1,1 -1,1 0,2l68 70 0 0c2,2 6,3 10,2 6,-3 11,-8 13,-14 0,-3 0,-6 0,-9 -1,-5 0,-9 1,-12 1,-7 6,-13 14,-17 10,-5 20,-3 32,6 5,3 9,7 13,11 5,5 8,11 10,17 3,8 2,17 -3,25 -5,6 -13,10 -24,10 0,0 -1,0 -1,0 -3,0 -6,0 -8,0l-1 1c-1,0 -2,0 -3,0 -2,1 -5,3 -7,4l0 0c-7,8 -8,14 -3,20l61 63c0,0 1,0 2,0l64 -63c0,0 1,-1 4,-3 2,-2 5,-2 7,0 8,4 11,11 10,20 -1,15 3,25 12,32 1,1 3,2 5,3 11,7 23,6 37,-3 5,-3 10,-7 13,-11 5,-5 9,-11 11,-17 4,-9 2,-19 -4,-30 -1,-1 -1,-2 -2,-3 -6,-6 -14,-9 -25,-10 0,0 -1,0 -1,0 0,0 0,0 0,0 -3,-1 -5,-1 -8,-2 -1,0 -2,-1 -4,-1 -3,-2 -6,-3 -8,-6 -4,-5 -4,-10 0,-15l65 -63c0,-1 0,-1 0,-2l-61 -63c0,0 -1,0 -1,-1 -1,-1 -3,-2 -4,-3 -2,0 -5,-1 -8,0 0,0 -1,1 -2,1zm3 2c2,-1 4,-1 6,0 1,1 3,2 4,3l60 62 -64 62c-5,6 -5,12 0,19 2,2 5,5 9,6 2,1 3,1 4,2 3,1 6,1 9,1 0,0 1,0 1,0 11,2 20,6 25,12 6,10 7,19 4,28 -3,6 -6,11 -11,16 -3,4 -7,8 -13,11 -12,8 -24,9 -34,3 -1,-1 -3,-2 -5,-3 -7,-6 -11,-16 -11,-29 2,-11 -2,-19 -10,-23 -4,-3 -8,-3 -11,0 -2,1 -3,3 -4,3l-63 62 -60 -61c-3,-4 -6,-9 3,-17l0 0c2,-1 4,-2 6,-3 1,0 2,0 2,-1l2 0c2,0 4,-1 7,0 0,0 0,0 1,-1 0,0 0,0 0,0 12,0 21,-3 26,-10 6,-10 7,-19 3,-28 -2,-6 -5,-12 -10,-18 -1,-1 -2,-2 -3,-3l0 0c-3,-3 -6,-6 -10,-8 -13,-10 -25,-12 -35,-6 -9,4 -14,10 -16,18 -1,4 -1,8 -1,13 1,3 1,6 0,8 -2,6 -5,10 -11,12 -3,1 -6,1 -7,-1l-1 0 -67 -69 56 -54c5,-4 8,-9 9,-15 0,0 0,-1 0,-1 0,0 0,-1 0,-1 1,-3 0,-6 -1,-8 -3,-7 -10,-12 -20,-14 -14,-2 -24,-6 -28,-11 -10,-12 -9,-27 3,-44 10,-15 24,-21 41,-19 4,1 7,2 9,3 2,1 4,2 5,4 4,4 7,12 7,23 1,11 5,20 12,25 4,2 7,3 11,3 2,0 3,0 5,-1 4,-1 8,-4 12,-8l54 -52 60 62c0,0 0,0 1,0 3,4 4,7 4,11 0,2 0,4 -1,6 -1,1 -2,2 -3,3l-1 1c-4,3 -9,5 -16,4 -5,-1 -9,0 -13,1 -6,1 -11,5 -16,10 -1,2 -3,4 -4,6 -6,11 -5,23 5,36 0,0 0,0 0,0 0,0 0,0 0,0 3,5 7,10 11,13 5,5 11,9 17,11 9,4 19,3 29,-4 7,-5 11,-14 12,-26 0,0 0,0 0,-1 0,0 0,0 0,0 0,-3 1,-6 1,-8l1 -1c0,-1 0,-1 0,-2 2,-5 5,-8 8,-10 0,0 2,-1 2,-1 0,0 2,-1 2,-1l1 0z"/>
   <path class="fil21" d="M521 445c0,0 44,82 53,119 4,15 12,40 15,68 4,36 4,69 4,69 0,0 20,-19 29,-26 5,-5 21,-15 28,10 1,4 1,9 1,18 -1,5 4,15 8,19 5,6 17,21 48,-6 7,-6 18,-20 11,-37 -2,-4 -6,-14 -28,-15 0,0 -14,-1 -22,-11 -4,-5 -11,-12 -1,-25l59 -58 -55 -59c0,0 -3,-5 -9,-2 -4,1 -7,3 -8,15 -3,18 -2,21 -10,30 -10,11 -26,12 -41,6 -15,-7 -18,-8 -31,-29 -7,-10 -12,-35 10,-48 7,-4 19,-7 33,-7 4,0 14,-5 7,-13 -11,-15 -59,-58 -59,-58l-42 40z"/>
   <path class="fil22" d="M548 260c1,4 1,8 1,12 0,8 -3,14 -7,17 -5,5 -13,7 -22,6 -8,0 -14,2 -18,5 -2,1 -3,2 -4,4 0,0 -1,1 -1,2 -2,3 -3,7 -2,10 0,1 0,2 1,4 1,3 4,7 8,11l60 61 -55 53c-4,4 -8,7 -11,8 -2,0 -3,0 -5,0 -4,1 -7,0 -10,-2 -7,-5 -11,-13 -12,-24 0,-15 -4,-24 -12,-28 -3,-1 -6,-2 -10,-3 -17,-3 -31,4 -42,19 -12,18 -13,33 -3,45 5,6 14,10 28,12 10,2 17,7 20,13 1,3 1,5 1,8 0,1 0,1 0,2 -2,5 -5,10 -9,14l-57 55 -69 -71c0,-1 -1,-1 -1,-2 0,0 -1,0 -1,0 -2,-5 -2,-8 1,-12 5,-6 13,-9 22,-9 15,-1 24,-5 28,-13 1,-2 3,-6 3,-9 3,-18 -4,-32 -19,-43 -18,-12 -33,-13 -45,-3 -6,5 -10,14 -12,29 -2,9 -6,16 -12,19 -3,1 -6,0 -8,-2l-59 -61 177 -171 48 49c0,1 1,1 1,2 3,3 6,5 9,6 0,0 1,0 1,0 5,2 10,1 15,-2 3,-2 5,-4 6,-8 2,-2 2,-6 2,-9 0,-15 5,-25 15,-30 9,-4 19,-3 29,2 1,0 2,1 4,2 3,2 7,5 11,9 5,4 9,9 12,15 1,2 2,5 3,8l0 0z"/>
   <path class="fil23" d="M274 449c2,3 5,3 8,2 7,-3 11,-10 14,-20 1,-14 5,-23 10,-28 12,-9 27,-9 45,3 14,11 20,25 18,41 -1,4 -2,7 -3,10 -4,7 -12,11 -27,11 -10,1 -17,4 -23,10 -3,4 -4,9 -1,13 0,0 0,0 0,0 0,1 0,1 1,1 0,1 1,1 1,2l69 71c1,0 2,0 2,0l57 -55c4,-4 8,-9 9,-15 0,0 0,-1 0,-1 0,0 0,-1 0,-1 0,-3 0,-6 -1,-8 -3,-7 -10,-12 -20,-15 -14,-1 -24,-5 -28,-10 -10,-12 -9,-27 3,-45 10,-14 24,-20 41,-18 4,1 7,2 9,3 2,1 4,2 5,4 4,4 7,12 7,23 1,11 5,20 12,25 4,2 7,3 11,3 2,0 3,0 5,-1 4,-1 8,-4 12,-8l55 -53c0,0 0,-1 0,-2l-60 -61c-1,0 -1,-1 -1,-1l0 0c-4,-4 -6,-7 -7,-10 -1,-1 -1,-2 -1,-3 0,-3 0,-6 2,-9 1,-1 1,-2 1,-2 1,-2 2,-3 3,-4 4,-3 10,-4 18,-4 10,0 17,-2 23,-7 5,-4 7,-10 8,-18 0,-4 -1,-9 -2,-12 -1,-3 -2,-6 -3,-9 -3,-6 -7,-11 -13,-15 -3,-4 -7,-7 -11,-9 -1,-1 -2,-2 -3,-2 -11,-6 -21,-6 -31,-2 -10,5 -15,16 -15,31 0,3 -1,6 -2,9 -1,3 -3,5 -6,7 -4,3 -9,4 -14,2 0,0 0,0 0,0 -3,-1 -6,-3 -9,-6l-49 -51c-1,-1 -2,-1 -2,0l-176 171c-1,1 -1,2 -1,2l60 61 0 0zm86 -38c-2,-3 -5,-5 -8,-7 -19,-12 -34,-13 -47,-3 -6,5 -10,15 -12,30 -2,9 -6,15 -12,18 -2,0 -4,0 -5,-2l-1 0 -58 -60 175 -169 48 50c1,0 1,0 1,0 3,3 6,5 9,6 0,1 0,1 0,1 0,0 0,0 1,0 5,1 11,1 16,-3 3,-2 5,-5 7,-8 1,-3 2,-6 2,-10 -1,-15 4,-24 13,-29 9,-4 19,-3 28,2 2,1 3,1 4,2 3,2 7,5 11,9 1,1 2,2 3,3 4,4 7,7 9,11 1,3 2,6 3,8 1,4 1,8 1,12 0,7 -3,13 -7,16 -5,4 -12,6 -21,6 -9,0 -15,2 -19,5 -1,1 -3,2 -4,4 0,1 -1,2 -1,2 -2,4 -3,7 -3,11 1,1 1,3 2,4 1,4 3,7 7,11 0,0 0,0 0,0 0,0 1,0 1,1l59 60 -54 52c-3,4 -7,7 -11,8 -1,0 -3,0 -4,0 -3,0 -7,0 -9,-2 -1,-1 -2,-2 -3,-3 -5,-5 -8,-12 -8,-20 -1,-16 -5,-25 -14,-29 -2,-2 -6,-3 -10,-3 -18,-3 -32,3 -43,19 -13,19 -14,35 -3,47 0,1 1,1 1,2 5,5 15,8 28,10 9,2 16,7 18,13 1,2 2,4 2,7 -1,0 -1,0 -1,1 0,0 0,0 0,1 -1,5 -4,9 -8,13l-56 54 -68 -70c0,0 -1,-1 -1,-1 0,-1 0,-1 -1,-1 -2,-4 -2,-7 1,-10 5,-5 12,-8 21,-9 15,0 25,-5 29,-13 2,-3 3,-6 3,-10 3,-15 -1,-27 -11,-37l0 0z"/>
   <path class="fil24" d="M392 230l-29 27c0,0 37,37 59,136 0,0 10,-5 22,-5 7,0 13,2 20,7 5,4 7,8 9,12 1,4 3,9 4,22 0,6 8,23 20,17 17,-9 55,-54 55,-54 0,0 -50,-49 -63,-69 -4,-5 -5,-23 6,-29 7,-4 19,-7 28,-6 9,1 33,-14 10,-42 0,0 -10,-15 -31,-18 -3,-1 -19,0 -20,17 0,6 2,14 -4,24 -2,4 -12,14 -21,14 -10,0 -13,1 -31,-20l-34 -33z"/>
   <path class="fil25" d="M447 495c0,0 2,-11 -8,-15l-19 -5c0,0 17,12 2,47l24 -23 1 -4z"/>
   <path class="fil26" d="M492 584c10,-5 22,-3 34,6 5,3 9,7 13,11 4,5 8,11 10,17 4,9 3,18 -3,27 -5,7 -13,10 -25,10 0,0 -1,0 -1,0 -3,0 -5,0 -8,1 -1,0 -2,0 -3,1 -3,1 -5,2 -7,3 0,0 0,0 0,0 -7,7 -8,13 -3,19l61 62 -71 68c-3,3 -6,4 -8,4 -2,-1 -3,-1 -4,-2 -6,-4 -9,-12 -10,-23 1,-13 -3,-22 -10,-25 -3,-2 -6,-3 -10,-3 -16,-2 -30,5 -41,20 -13,18 -14,32 -5,44 4,5 13,8 27,9 8,2 14,5 17,10 0,0 1,1 1,2 1,3 0,7 -5,11l-57 56 -173 -176 59 -58c3,-3 7,-5 10,-4 1,0 2,0 3,1 6,3 11,9 13,19 1,15 5,24 10,29 12,11 28,10 46,-2 16,-10 22,-24 20,-42 0,-3 -1,-7 -3,-9 -3,-8 -12,-13 -27,-13 -11,-2 -19,-6 -24,-13 -1,-1 -1,-2 -2,-3 -1,-4 0,-7 3,-10l68 -67 68 70c3,2 6,3 9,2 6,-3 10,-7 12,-13 1,-3 1,-6 1,-9 -1,-5 -1,-9 0,-13 2,-7 7,-13 15,-17l0 0z"/>
   <path class="fil27" d="M210 737l173 176c0,1 1,1 1,0l58 -56c5,-4 7,-9 5,-13 0,-1 -1,-1 -1,-2 -3,-5 -9,-8 -18,-10 -13,-1 -22,-4 -26,-9 -9,-11 -7,-25 5,-43 11,-14 24,-20 40,-19 4,1 7,2 9,3 2,1 3,2 4,3 4,4 6,11 6,21 0,12 4,19 11,24 1,1 2,1 3,2 4,1 7,-1 10,-4l71 -68c0,-1 0,-2 0,-2l-61 -62c-3,-4 -6,-9 3,-17l0 0c2,-1 4,-2 6,-3 1,0 2,0 2,-1l2 0c2,0 4,-1 7,0 0,0 0,0 1,-1 0,0 0,0 0,0 12,0 21,-3 26,-10 6,-10 7,-19 3,-28 -2,-6 -5,-12 -10,-18 -4,-4 -8,-8 -13,-11 -13,-10 -25,-12 -35,-6 -9,4 -14,10 -16,18 -1,4 -1,8 -1,13 1,3 1,6 0,8 -2,6 -5,10 -11,12 -3,1 -6,1 -7,-1l-1 0 -68 -70c0,0 -1,0 -1,0l-69 67c-3,3 -4,7 -3,11 1,2 1,3 2,4 1,1 2,3 3,4 5,5 12,8 22,9 14,1 23,5 26,12 1,3 2,6 3,10 2,17 -5,30 -20,40 -17,12 -32,12 -44,2 0,0 -1,-1 -1,-1 -5,-5 -8,-14 -9,-27 -2,-10 -7,-17 -13,-20l-3 -1c0,0 0,0 0,0 -5,-1 -8,1 -11,4l-60 58c0,0 0,1 0,2l0 0zm174 174l-171 -175 58 -57c3,-3 6,-4 9,-4l3 1c1,1 3,2 4,4 4,3 6,8 8,15 1,14 5,24 11,29 12,11 28,11 47,-1 16,-11 23,-26 20,-44 0,-4 -1,-7 -3,-10 -1,-2 -2,-4 -3,-5 -5,-5 -13,-8 -25,-9 -11,-1 -18,-5 -23,-11 0,-1 -1,-2 -1,-3 -1,-4 -1,-7 2,-9l67 -66 68 69c2,2 6,3 10,2 6,-3 11,-8 13,-14 0,-3 0,-6 0,-9 -1,-5 0,-9 1,-12 1,-7 6,-13 14,-17 10,-5 20,-3 32,6 5,3 9,7 13,11 5,5 8,11 10,17 3,8 2,17 -3,25 -5,6 -13,10 -24,10 0,0 -1,0 -1,0 -3,0 -6,0 -8,0l-1 1c-1,0 -2,0 -3,0 -2,1 -5,3 -7,4l0 0c-7,8 -8,14 -3,20l60 62 -70 67c-2,3 -5,4 -7,3 -1,0 -2,0 -3,-1 -1,-1 -2,-2 -3,-2 -4,-5 -6,-11 -6,-20 0,-14 -4,-23 -12,-27 -2,-1 -6,-2 -9,-2 -18,-2 -32,5 -43,20 -13,18 -15,34 -5,45 1,1 1,1 1,2 5,5 14,8 27,9 8,1 13,4 16,9 0,0 0,1 1,1 1,3 0,6 -5,10l-56 56 0 0z"/>
   <path class="fil28" d="M390 575l-23 23c0,0 63,63 44,168 0,0 11,-14 38,-11 8,1 13,2 20,13 2,5 4,15 4,23 0,5 0,14 9,16l66 -67c0,0 -57,-54 -59,-65 -1,-8 3,-24 24,-24 10,0 33,-1 32,-22 -1,-8 -2,-29 -33,-41 -4,-1 -12,-4 -22,4 -4,3 -7,5 -8,21 -1,6 1,17 -9,25 -4,4 -13,9 -17,4l-66 -67z"/>
   <path class="fil29" d="M437 850c-6,6 -27,27 -27,27 0,0 7,-30 -2,-44 0,0 6,5 12,5 0,0 25,2 17,12z"/>
   <path class="fil30" d="M637 821c3,3 5,6 6,9 0,0 0,0 0,0 1,2 1,4 1,6 -1,4 -4,8 -10,11 -5,3 -10,5 -17,6 -14,1 -23,6 -28,14 -1,3 -3,6 -3,10 -4,17 2,31 16,41 18,11 33,10 46,-1 6,-4 10,-14 12,-28 3,-10 8,-17 14,-20 1,-1 3,-1 4,-1 0,0 0,-1 0,-1 3,0 7,2 10,6l41 42 -176 171 -170 -174 58 -56c4,-4 6,-8 4,-12 0,0 0,-1 -1,-1 -3,-5 -8,-8 -17,-10 -13,-1 -22,-4 -26,-10 -10,-11 -8,-26 4,-44 11,-15 25,-21 42,-19 3,0 6,1 9,2 7,4 11,12 11,26 0,11 3,18 10,23 1,0 2,1 3,1 3,1 6,0 9,-3l70 -69 78 81 0 0z"/>
   <path class="fil31" d="M383 913l169 175c1,0 2,0 2,0l176 -172c1,-1 1,-1 0,-2l-41 -42c-3,-4 -7,-6 -10,-5l0 0c0,-1 0,0 -1,0 0,0 0,0 0,0 -1,0 -2,0 -4,1 -7,4 -12,11 -14,21 -3,14 -7,23 -13,28 -12,10 -26,10 -43,0 -14,-9 -20,-23 -16,-40 0,-3 2,-6 3,-9 4,-8 13,-12 27,-13 7,-1 13,-3 17,-6 6,-4 10,-8 11,-12 0,-2 0,-5 -1,-7 0,0 0,0 0,0 0,0 0,0 0,-1 -1,-3 -3,-6 -6,-9l-78 -80c-1,-1 -2,-1 -2,0l-71 68c-2,3 -5,4 -7,3 -1,0 -2,0 -3,-1 -1,-1 -2,-2 -3,-2 -4,-5 -6,-11 -6,-20 0,-14 -4,-23 -12,-27 -2,-1 -6,-2 -9,-2 -18,-2 -32,5 -43,20 -13,18 -15,34 -5,45 1,1 1,1 1,2 5,5 14,8 27,9 8,1 13,4 16,9 0,0 0,1 1,1 1,3 0,6 -5,10l-57 56c-1,1 -1,2 0,2l0 0zm170 172l-168 -173 57 -55c5,-4 7,-9 5,-13 0,-1 -1,-1 -1,-2 -3,-5 -9,-8 -18,-10 -13,-1 -22,-4 -26,-9 -9,-11 -7,-25 5,-43 11,-14 24,-20 40,-19 4,1 7,2 9,3 2,1 3,2 4,3 4,4 6,11 6,21 0,12 4,19 11,24 1,1 2,1 3,2 4,1 7,-1 10,-4l70 -67 77 79c3,3 5,6 6,8 0,1 0,1 0,1 0,2 1,3 0,5 -1,4 -4,7 -9,10 -5,3 -10,5 -16,6 -15,1 -25,6 -29,15 -2,3 -3,6 -4,10 -3,14 1,26 10,36l0 0c2,2 4,4 7,6 18,11 34,11 47,0 6,-5 11,-15 13,-30 3,-9 7,-15 13,-19 1,0 3,-1 3,-1 0,0 1,0 1,0 2,0 5,1 8,5l1 0 40 41 -175 170z"/>
   <path class="fil32" d="M559 750l-33 32c0,0 88,161 61,260l130 -129c0,0 -34,-37 -39,-39 0,0 -9,1 -13,15 -2,9 2,8 -6,23 -5,9 -19,22 -37,19 -7,-1 -25,-9 -35,-24 -5,-8 -11,-17 -4,-35 3,-9 4,-18 30,-24 5,-1 9,-1 20,-6 0,0 9,-9 -1,-17l-73 -75z"/>
   <path class="fil33" d="M351 405c16,11 22,25 19,43 0,3 -1,7 -3,9 -4,8 -13,12 -28,13 -9,0 -17,4 -22,9 -3,4 -3,7 -1,12 1,0 1,0 1,0 0,1 1,1 1,2l69 71 -68 67c-3,3 -4,6 -3,10 1,1 1,2 2,3 5,7 13,11 24,13 15,0 24,5 27,13 2,2 3,6 3,9 2,18 -4,32 -20,42 -18,12 -34,13 -46,2 -5,-5 -9,-14 -10,-29 -2,-10 -7,-16 -13,-19 -1,-1 -2,-1 -3,-1 -3,-1 -7,1 -10,4l-59 58 -172 -177 177 -171 59 60c1,2 4,3 7,2 6,-3 10,-10 12,-19 2,-15 6,-24 12,-29 12,-10 27,-9 45,3l0 0z"/>
   <path class="fil34" d="M38 560l172 177c1,0 2,0 2,0l59 -58c3,-3 6,-4 9,-4l3 1c1,1 3,2 4,4 4,3 6,8 8,15 1,14 5,24 11,29 12,11 28,11 47,-1 16,-11 23,-26 20,-44 0,-4 -1,-7 -3,-10 -1,-2 -2,-4 -3,-5 -5,-5 -13,-8 -25,-9 -11,-1 -18,-5 -23,-11 0,-1 -1,-2 -1,-3 -1,-4 -1,-7 2,-9l68 -67c1,-1 1,-1 0,-2l-69 -71c0,0 -1,-1 -1,-1 0,-1 0,-1 -1,-1 -2,-4 -1,-7 1,-10 5,-5 12,-8 22,-9 15,0 24,-5 28,-13 2,-3 3,-6 3,-10 3,-18 -3,-33 -19,-44 -18,-12 -34,-13 -47,-3 -6,5 -10,15 -12,30 -2,9 -6,15 -12,18 -2,0 -4,0 -5,-2l0 0 -60 -60c0,-1 -1,-1 -1,0l-177 171c0,1 0,2 0,2l0 0zm173 174l-170 -175 175 -170 58 60c2,3 5,3 8,2 7,-3 11,-10 14,-20 1,-14 5,-23 11,-27 11,-10 26,-9 44,2 14,11 20,25 18,42 -1,3 -2,6 -3,9 -4,7 -12,11 -27,11 -10,1 -17,4 -23,10 -3,4 -4,9 -1,13 0,0 0,1 0,1 0,0 1,0 1,0 0,1 1,1 2,2l68 70 -68 66c-3,3 -4,7 -3,11 1,2 1,3 2,4 1,1 2,3 3,4 5,5 12,8 22,9 14,1 23,5 26,12 1,3 2,6 3,10 2,17 -5,30 -20,40 -17,12 -32,12 -44,2 0,0 -1,-1 -1,-1 -5,-5 -8,-14 -9,-27 -2,-10 -7,-17 -13,-20l-3 -1c0,0 0,0 0,0 -5,-1 -8,1 -11,4l-59 57 0 0z"/>
   <path class="fil35" d="M247 432c-16,-17 -32,-32 -32,-32l-32 30c0,0 102,105 63,257 0,0 17,-21 29,-21 8,0 22,3 25,20 1,8 1,20 9,30 0,0 5,6 16,7 8,0 20,-1 31,-14 6,-8 17,-30 3,-40 -4,-3 -7,-5 -20,-4 -8,0 -23,-5 -28,-12 -3,-5 -12,-14 0,-25l66 -65c0,0 -50,-50 -66,-68 -3,-3 -7,-11 3,-20 5,-4 7,-8 19,-10 4,-1 7,-1 14,-2 8,-2 26,-10 15,-34 0,0 -12,-28 -41,-27 0,0 -17,1 -20,17 -1,7 0,11 -6,23 -3,6 -12,20 -20,16 -7,-4 -17,-16 -28,-26z"/>
  </g>
 </g>
</svg>
