<?xml version="1.0" encoding="UTF-8"?>
<!DOCTYPE svg PUBLIC "-//W3C//DTD SVG 1.1//EN" "http://www.w3.org/Graphics/SVG/1.1/DTD/svg11.dtd">
<!-- Creator: CorelDRAW X7 -->
<svg xmlns="http://www.w3.org/2000/svg" xml:space="preserve" width="16.6038mm" height="16.0818mm" version="1.1" style="shape-rendering:geometricPrecision; text-rendering:geometricPrecision; image-rendering:optimizeQuality; fill-rule:evenodd; clip-rule:evenodd"
viewBox="0 0 204987 198542"
 xmlns:xlink="http://www.w3.org/1999/xlink">
 <defs>
  <style type="text/css">
   <![CDATA[
    .fil5 {fill:#0099D9;fill-rule:nonzero}
    .fil17 {fill:#038EC8;fill-rule:nonzero}
    .fil4 {fill:#05769E;fill-rule:nonzero}
    .fil3 {fill:#057EA8;fill-rule:nonzero}
    .fil16 {fill:#086E93;fill-rule:nonzero}
    .fil15 {fill:#08759C;fill-rule:nonzero}
    .fil18 {fill:#3BB4DF;fill-rule:nonzero}
    .fil6 {fill:#3DC3F2;fill-rule:nonzero}
    .fil0 {fill:#AFC5C5;fill-rule:nonzero}
    .fil22 {fill:#BBE4EA;fill-rule:nonzero}
    .fil1 {fill:#C1C9C9;fill-rule:nonzero}
    .fil21 {fill:#C9EEF4;fill-rule:nonzero}
    .fil20 {fill:#CC113E;fill-rule:nonzero}
    .fil7 {fill:#D16718;fill-rule:nonzero}
    .fil11 {fill:#D71733;fill-rule:nonzero}
    .fil13 {fill:#DD1041;fill-rule:nonzero}
    .fil8 {fill:#DD8317;fill-rule:nonzero}
    .fil19 {fill:#E1083C;fill-rule:nonzero}
    .fil14 {fill:#EBEBEB;fill-rule:nonzero}
    .fil23 {fill:#F0F6F7;fill-rule:nonzero}
    .fil12 {fill:#F4063F;fill-rule:nonzero}
    .fil9 {fill:#F99D1C;fill-rule:nonzero}
    .fil10 {fill:#FCC786;fill-rule:nonzero}
    .fil2 {fill:white;fill-rule:nonzero}
   ]]>
  </style>
 </defs>
 <g id="Layer_x0020_1">
  <metadata id="CorelCorpID_0Corel-Layer"/>
  <g id="_2325534736">
   <path class="fil0" d="M193031 128346c-56,-295 -123,-595 -197,-897 454,-690 897,-1369 1324,-2036 -170,777 -423,1520 -761,2230 -113,238 -235,473 -366,703zm10642 -26865c-184,-838 -496,-1591 -937,-2269 -907,-1396 -2300,-2322 -3953,-2684 -1729,-1285 -3976,-1522 -5783,-1095 -1339,278 -2665,651 -3977,1120 -4298,1538 -8437,4101 -12377,7659 -5489,-5543 -12363,-11677 -20213,-18041l-1044 -2920c991,-1585 1956,-3147 2889,-4679 7546,6150 14161,12076 19480,17445 3939,-3559 8076,-6122 12370,-7658 1313,-469 2642,-843 3981,-1120 1806,-428 4056,-190 5787,1094 1654,359 3043,1290 3953,2684 1568,2406 1522,5779 -176,10464z"/>
   <path class="fil1" d="M156433 86171c-632,-511 -1270,-1025 -1914,-1539 292,-463 582,-923 870,-1381l1044 2920z"/>
   <path class="fil0" d="M69235 123202c56,-515 114,-1026 173,-1533 27,11 53,23 79,33 -85,495 -169,994 -252,1500z"/>
   <path class="fil1" d="M1226 91867c-373,-3164 164,-6482 1741,-9575 2487,-4899 14705,-15689 25615,-24731 -173,275 -330,563 -471,859 -1032,2181 -1058,4692 -189,6963 -11022,9114 -23545,20136 -26069,25104 -230,457 -441,918 -627,1380z"/>
   <path class="fil0" d="M179486 28063c8,-2739 -449,-5084 -1368,-7049 -1302,-2793 -3494,-4763 -6371,-5752 -4425,-3541 -10190,-2392 -11251,-2141 -3656,751 -7201,1762 -10619,2984 -5607,2006 -10884,4582 -15815,7529l-2194 -6134c5857,-3807 12246,-7132 19123,-9593 3420,-1223 6961,-2233 10620,-2984 1057,-249 6824,-1396 11246,2144 2878,990 5069,2961 6372,5752 1729,3702 1822,8748 257,15244zm-91936 16241c-7158,-1727 -14417,-2155 -21236,-1194 -1520,213 -3002,494 -4447,840 3535,-3646 6492,-6976 8020,-9321 4688,-427 9549,-221 14414,591l3249 9084z"/>
   <path class="fil1" d="M103185 50288c-1099,-574 -2124,-1088 -3072,-1534 -4074,-1931 -8301,-3420 -12563,-4450l-3249 -9084c5727,954 11463,2749 16927,5337 943,447 1969,961 3069,1537 7056,-8206 16339,-17291 27571,-24594l2194 6134c-12726,7602 -23140,17658 -30877,26654z"/>
   <path class="fil0" d="M34268 46042l-97 -270c31,-12 60,-22 91,-33 10,-4 19,-8 30,-11 -8,105 -16,208 -24,314z"/>
   <path class="fil1" d="M28964 56999c-797,-2220 -744,-4653 260,-6774 994,-2097 2785,-3655 4947,-4453l97 270c-201,2695 -370,5310 -512,7699 -206,59 -411,125 -612,197 -1677,600 -3135,1653 -4180,3061z"/>
   <path class="fil0" d="M72282 23938c-625,-5379 -3862,-10323 -9085,-12975 -450,-231 -927,-444 -1420,-638 -188,-106 -375,-208 -568,-306 -3991,-2025 -8533,-2374 -12789,-986 -155,51 -310,103 -463,158 -4046,1447 -7328,4340 -9281,8184l-120 242c-791,1671 -1479,4556 -2074,8109 797,-7153 1844,-13470 3185,-16302l120 -244c1953,-3844 5236,-6737 9275,-8181 156,-56 311,-109 467,-161 4255,-1391 8800,-1040 12791,987 194,97 381,200 568,305 490,193 969,408 1421,638 7845,3983 11210,13140 7973,21170z"/>
   <path class="fil2" d="M160496 13121c-25122,5154 -44746,22557 -57311,37167 -1099,-574 -2124,-1088 -3072,-1534 -10920,-5173 -22921,-7178 -33799,-5644 -1520,213 -3002,494 -4447,840 4151,-4281 7504,-8125 8685,-10453 4224,-8335 936,-18324 -7355,-22534 -450,-231 -927,-444 -1420,-638 -188,-106 -375,-208 -568,-306 -3991,-2025 -8533,-2374 -12789,-986 -4257,1388 -7717,4354 -9744,8342l-120 242c-2577,5444 -4066,23746 -4800,36124 -2473,704 -4545,2361 -5645,4679 -1032,2181 -1058,4692 -189,6963 -11022,9114 -23545,20136 -26069,25104 -4253,8346 -932,18324 7359,22534 452,231 928,447 1421,638 186,105 373,209 567,305 8241,4184 18347,884 22532,-7357l131 -264c1251,-2638 2441,-8278 3484,-14729 868,2045 1910,4073 3122,6066 5703,9385 14859,17402 25781,22574 973,463 2056,947 3237,1448 -3268,18860 -4233,44898 7626,67466 430,886 2820,5377 7552,7003 2678,2062 5775,2800 9006,2132 7258,-1501 14520,-10116 22202,-26334 4118,-8693 8391,-19684 12721,-32709 10904,2325 20639,3896 29036,4675 -400,7075 802,13481 3537,18707 854,1762 2555,3398 4763,3848 1309,952 2858,1381 4447,1186 3560,-435 6700,-3768 9880,-10487 1866,-3940 3809,-9167 5774,-15558 2992,-1394 5092,-3333 6256,-5793 1149,-2427 1328,-5241 547,-8389 3554,-5385 6275,-10052 8089,-13888 3205,-6765 3781,-11322 1813,-14349 -907,-1396 -2300,-2322 -3953,-2684 -1729,-1285 -3976,-1522 -5783,-1095 -5727,1186 -11212,4133 -16354,8779 -5931,-5990 -13477,-12668 -22127,-19580 7238,-11468 12966,-21629 17047,-30244l2 -5c7500,-15833 9645,-26749 6550,-33369 -1302,-2793 -3494,-4763 -6371,-5752 -4425,-3541 -10190,-2392 -11251,-2141z"/>
   <path class="fil3" d="M171867 119432c0,0 9173,-16418 24124,-19472 0,0 12823,-3246 -8589,28082l-15535 -8610z"/>
   <path class="fil3" d="M166482 130799c0,0 -6892,17499 218,30999 0,0 5611,11986 16284,-24433l-16502 -6566z"/>
   <path class="fil3" d="M93974 75099c0,0 26736,-47873 70324,-56772 0,0 37403,-9475 -25036,81866l-45288 -25094z"/>
   <path class="fil3" d="M82833 98618c0,0 -20103,51015 626,90379 0,0 16364,34943 47483,-71235l-48109 -19144z"/>
   <path class="fil4" d="M192791 99010l3149 8802c4185,-10636 -2422,-8963 -2422,-8963 -243,49 -487,104 -727,161z"/>
   <path class="fil5" d="M194363 103406l2960 -1059c163,-4500 -3805,-3498 -3805,-3498 -243,49 -487,104 -727,161l1572 4396z"/>
   <path class="fil4" d="M179311 119129l13514 -4834c1398,-2553 2410,-4694 3115,-6483l-3149 -8802c-7099,1672 -12847,6325 -16870,10644l3390 9475z"/>
   <path class="fil5" d="M176032 109963l9165 -3278 -1348 -3771c-3103,2001 -5765,4418 -7928,6740l111 309z"/>
   <path class="fil6" d="M185197 106685l9166 -3280 -1572 -4395c-3282,772 -6275,2183 -8942,3904l1348 3771z"/>
   <path class="fil5" d="M188471 115837l4364 -1562c1393,-2543 2401,-4679 3105,-6464l-1582 -4420 -9166 3279 3279 9167z"/>
   <path class="fil4" d="M192824 114297l-13513 4834 2089 5839 3532 1957c3460,-5060 6022,-9215 7892,-12630z"/>
   <path class="fil5" d="M189781 119499l-1305 -3647 -9165 3279 2089 5839 3532 1957c1868,-2733 3471,-5198 4849,-7428z"/>
   <path class="fil6" d="M192825 114295l-4349 1555 1305 3647c1174,-1900 2184,-3631 3044,-5202z"/>
   <path class="fil4" d="M174174 120966l5137 -1838 -3390 -9475c-4206,4516 -6524,8668 -6524,8668l0 0 4777 2645z"/>
   <path class="fil6" d="M175444 110174l588 -211 -111 -309c-161,173 -321,347 -477,520z"/>
   <path class="fil5" d="M174157 120958l5150 -1843 -3280 -9166 -562 201c-3918,4319 -6068,8171 -6068,8171l0 0 4760 2637z"/>
   <polygon class="fil4" points="181402,124970 179313,119131 174176,120968 "/>
   <polygon class="fil6" points="181400,124970 179311,119129 174174,120966 "/>
   <path class="fil4" d="M167537 144019l11920 -4263c347,-1117 699,-2279 1057,-3502l-16500 -6566 0 0c0,0 -334,845 -778,2307l4301 12024z"/>
   <path class="fil5" d="M164258 134853l6706 -2399 -6950 -2766 0 0c0,0 -334,845 -778,2307l1022 2858z"/>
   <path class="fil5" d="M176699 140726l2763 -988c346,-1111 695,-2268 1052,-3484l-6314 -2512 2499 6984z"/>
   <path class="fil4" d="M179456 139758l-11917 4263 4814 13462c2009,-3424 4379,-8964 7103,-17725z"/>
   <path class="fil5" d="M170816 153185l4410 -1577c868,-2054 1785,-4472 2752,-7305l-1273 -3561 -9166 3279 3277 9164z"/>
   <path class="fil6" d="M179457 139756l-2753 984 1274 3563c482,-1412 974,-2923 1479,-4547z"/>
   <path class="fil4" d="M161013 146353l6524 -2333 -4301 -12024c-889,2926 -2221,8320 -2223,14357z"/>
   <path class="fil6" d="M162293 135557l1965 -704 -1022 -2857c-288,948 -622,2156 -943,3561z"/>
   <path class="fil5" d="M161011 146338l6521 -2333 -3279 -9166 -1957 700c-670,2929 -1281,6717 -1285,10799z"/>
   <path class="fil4" d="M172353 157483l-4814 -13462 -6526 2335c-3,4674 793,9733 3214,14329 0,0 2774,5920 8126,-3202z"/>
   <path class="fil6" d="M162389 156200l8427 -3015 -3279 -9165 -6524 2333c-2,3194 369,6566 1376,9847z"/>
   <path class="fil5" d="M172353 157483l-1542 -4311 -8427 3015c468,1528 1073,3037 1843,4498 0,0 2774,5920 8126,-3202z"/>
   <path class="fil4" d="M164852 20909l5293 -1894c-1953,-2433 -4932,-2819 -6955,-2749l1662 4643z"/>
   <path class="fil4" d="M170147 19017l-5295 1894 5473 15295c2838,-9495 1938,-14551 -178,-17189z"/>
   <path class="fil5" d="M168131 30076l3820 -1367c552,-4853 -332,-7856 -1804,-9692l-5294 1894 3278 9165z"/>
   <path class="fil4" d="M146521 27466l18331 -6557 -1662 -4643c-1282,45 -2181,271 -2181,271 -5793,1183 -11285,3061 -16461,5416l1973 5513z"/>
   <path class="fil5" d="M155680 24174l9167 -3279 -1655 -4629c-1286,44 -2183,271 -2183,271 -2515,514 -4972,1163 -7373,1920l2044 5717z"/>
   <path class="fil4" d="M153079 45799l15962 -5710c493,-1370 919,-2663 1284,-3883l-5473 -15295 -18331 6557 6558 18331z"/>
   <polygon class="fil5" points="149800,36632 158964,33355 155687,24190 146522,27468 "/>
   <polygon class="fil6" points="158964,33355 168131,30074 164852,20909 155685,24188 "/>
   <path class="fil5" d="M162238 42507l6809 -2436c490,-1363 915,-2651 1278,-3865l-2199 -6145 -9167 3279 3279 9167z"/>
   <path class="fil4" d="M169040 40092l-15961 5708 5748 16070c4861,-8850 8134,-16004 10213,-21778z"/>
   <path class="fil5" d="M156358 54965l7440 -2661c386,-795 757,-1571 1111,-2332l-2664 -7449 -9165 3279 3278 9163z"/>
   <path class="fil6" d="M169041 40089l-6798 2431 2667 7452c1717,-3677 3077,-6957 4131,-9883z"/>
   <path class="fil4" d="M128190 34024l18331 -6558 -1972 -5513c-6153,2802 -11853,6286 -17059,10114l700 1957z"/>
   <path class="fil5" d="M137351 30731l9165 -3279 -1968 -5499c-3011,1372 -5915,2906 -8704,4566l1507 4212z"/>
   <polygon class="fil4" points="134748,52357 153079,45799 146522,27468 128190,34026 "/>
   <polygon class="fil5" points="131469,43191 140635,39911 137357,30747 128190,34026 "/>
   <polygon class="fil6" points="140635,39911 149800,36632 146521,27467 137356,30745 "/>
   <polygon class="fil5" points="143909,49063 153074,45784 149795,36619 140630,39897 "/>
   <path class="fil4" d="M141306 70690l15745 -5633c615,-1087 1206,-2149 1778,-3189l-5749 -16068 -18332 6558 6558 18332z"/>
   <polygon class="fil5" points="138027,61523 147193,58244 143915,49079 134748,52358 "/>
   <polygon class="fil6" points="147193,58244 156358,54965 153079,45799 143914,49077 "/>
   <path class="fil5" d="M150467 67396l6595 -2360c611,-1079 1199,-2133 1765,-3166l-2474 -6919 -9165 3278 3279 9167z"/>
   <path class="fil4" d="M157048 65060l-15742 5631 4573 12781c4354,-6791 8054,-12912 11169,-18412z"/>
   <path class="fil5" d="M144584 79855l4631 -1656c1128,-1812 2201,-3566 3230,-5274l-1972 -5513 -9167 3279 3278 9164z"/>
   <path class="fil6" d="M157050 65057l-6578 2353 1973 5515c1656,-2750 3193,-5375 4605,-7868z"/>
   <path class="fil4" d="M122273 36141l5916 -2117 -700 -1956c-1798,1322 -3539,2683 -5216,4073z"/>
   <path class="fil5" d="M122305 36114l5879 -2104 -695 -1942c-1785,1314 -3516,2666 -5184,4046z"/>
   <path class="fil4" d="M116417 58914l18330 -6557 -6557 -18331 -5922 2119c-3824,3164 -7334,6466 -10511,9742l4660 13027z"/>
   <path class="fil5" d="M113138 49747l9164 -3277 -2838 -7934c-2751,2420 -5322,4893 -7707,7351l1381 3860z"/>
   <path class="fil6" d="M122302 46470l9166 -3279 -3279 -9167 -5918 2117c-955,791 -1891,1590 -2807,2395l2838 7934z"/>
   <polygon class="fil5" points="125576,55621 134742,52342 131463,43176 122297,46455 "/>
   <polygon class="fil4" points="122975,77246 141305,70690 134748,52358 116417,58917 "/>
   <polygon class="fil5" points="119695,68080 128860,64802 125583,55638 116417,58917 "/>
   <polygon class="fil6" points="128860,64802 138026,61523 134747,52357 125581,55635 "/>
   <polygon class="fil5" points="132134,73954 141300,70675 138021,61509 128855,64787 "/>
   <path class="fil4" d="M130352 95286l10184 -3643c1881,-2826 3663,-5550 5343,-8169l-4573 -12783 -18331 6558 6225 17399 1152 638z"/>
   <polygon class="fil5" points="126253,86413 135418,83134 132141,73970 122975,77249 "/>
   <polygon class="fil6" points="135418,83134 144584,79855 141305,70690 132139,73969 "/>
   <path class="fil5" d="M138693 92286l1858 -664c1876,-2819 3653,-5535 5328,-8148l-1300 -3633 -9165 3279 3279 9166z"/>
   <path class="fil4" d="M140535 91645l-10182 3642 5626 3118c1588,-2324 3095,-4566 4556,-6760z"/>
   <path class="fil5" d="M139186 93666l-488 -1364 -8345 2985 5626 3118c1102,-1614 2167,-3188 3207,-4739z"/>
   <path class="fil6" d="M140537 91642l-1839 659 488 1365c457,-680 904,-1353 1351,-2024z"/>
   <path class="fil4" d="M98085 65472l18332 -6558 -4660 -13027c-6091,6275 -10959,12443 -14476,17338l804 2247z"/>
   <path class="fil6" d="M105844 52356l7294 -2609 -1381 -3860c-2123,2186 -4093,4358 -5913,6469z"/>
   <path class="fil5" d="M107247 62178l9164 -3277 -3279 -9167 -7268 2600c-514,595 -1016,1186 -1505,1771l2888 8073z"/>
   <polygon class="fil4" points="107674,82720 122975,77246 116417,58917 98086,65473 103411,80359 "/>
   <polygon class="fil5" points="101364,74638 110531,71359 107253,62194 98086,65473 "/>
   <polygon class="fil6" points="110531,71359 119695,68080 116417,58914 107252,62193 "/>
   <polygon class="fil5" points="113805,80511 122969,77233 119690,68066 110526,71345 "/>
   <polygon class="fil4" points="129200,94648 122975,77249 107676,82722 "/>
   <polygon class="fil5" points="116306,87503 113811,80528 107676,82722 "/>
   <polygon class="fil6" points="119012,89003 126253,86413 122975,77248 113810,80525 116306,87503 "/>
   <polygon class="fil5" points="129200,94648 126248,86400 118995,88993 "/>
   <path class="fil4" d="M94922 66603l3163 -1131 -804 -2247c-869,1209 -1657,2342 -2359,3378z"/>
   <path class="fil5" d="M94937 66582l3143 -1125 -799 -2232c-863,1200 -1647,2327 -2344,3357z"/>
   <path class="fil4" d="M103410 80359l-5324 -14886 -3165 1133c-2779,4101 -4234,6702 -4234,6702l0 0 12723 7051z"/>
   <path class="fil6" d="M96334 76438l5030 -1800 -3279 -9166 -3163 1131c-2780,4103 -4235,6705 -4235,6705l0 0 5647 3130z"/>
   <polygon class="fil5" points="103411,80359 101359,74624 96317,76428 "/>
   <path class="fil4" d="M117759 120469l9579 -3426c106,-360 210,-704 317,-1068l-13413 -5337 3517 9831z"/>
   <polygon class="fil5" points="114480,111303 115236,111033 114242,110638 "/>
   <path class="fil5" d="M126921 117176l422 -152c105,-353 208,-691 312,-1049l-1358 -539 624 1740z"/>
   <path class="fil4" d="M127338 117044l-9578 3426 4567 12769c1625,-4988 3295,-10376 5011,-16195z"/>
   <path class="fil5" d="M121038 129636l2761 -988c1090,-3451 2200,-7085 3328,-10895l-201 -562 -9166 3279 3278 9166z"/>
   <polygon class="fil6" points="127338,117042 126926,117190 127127,117753 "/>
   <polygon class="fil4" points="92870,108695 101554,105587 90133,101043 "/>
   <polygon class="fil4" points="99428,127027 117759,120469 114242,110637 101556,105589 92870,108696 "/>
   <polygon class="fil5" points="96149,117860 105315,114582 102187,105840 101555,105589 92870,108696 "/>
   <polygon class="fil6" points="105316,114581 114480,111303 114242,110638 102189,105840 "/>
   <polygon class="fil5" points="108589,123733 117754,120455 114475,111289 105311,114568 "/>
   <path class="fil4" d="M105986 145359l13958 -4992c784,-2282 1578,-4656 2383,-7126l-4568 -12770 -18331 6557 6558 18331z"/>
   <polygon class="fil5" points="102707,136194 111873,132915 108595,123749 99428,127028 "/>
   <polygon class="fil6" points="111874,132915 121038,129636 117759,120469 108594,123748 "/>
   <path class="fil5" d="M115148 142067l4802 -1719c782,-2275 1575,-4643 2377,-7109l-1294 -3617 -9164 3278 3279 9167z"/>
   <path class="fil4" d="M119943 140368l-13957 4994 5847 16342c2553,-5969 5258,-13032 8110,-21336z"/>
   <path class="fil5" d="M109265 154526l6385 -2285c529,-1380 1063,-2815 1603,-4287l-2100 -5873 -9167 3280 3279 9165z"/>
   <path class="fil6" d="M119944 140367l-4791 1713 2101 5874c882,-2405 1778,-4932 2690,-7587z"/>
   <path class="fil4" d="M74539 115252l18331 -6557 -2737 -7652 -10585 -4214 0 0c0,0 -2772,7040 -5197,17899l188 524z"/>
   <path class="fil5" d="M77155 103976l3272 -1170 -1518 -4238c-431,1223 -1049,3063 -1754,5408z"/>
   <path class="fil6" d="M80425 102807l7447 -2664 -8324 -3314 0 0c0,0 -240,608 -639,1739l1516 4239z"/>
   <polygon class="fil5" points="83699,111959 92865,108680 90133,101043 87851,100134 80420,102792 "/>
   <polygon class="fil4" points="81097,133584 99428,127027 92871,108696 74539,115253 "/>
   <polygon class="fil5" points="77818,124418 86985,121139 83706,111974 74539,115253 "/>
   <polygon class="fil6" points="86983,121139 96149,117860 92870,108694 83704,111973 "/>
   <polygon class="fil5" points="90258,130291 99423,127012 96144,117847 86979,121126 "/>
   <polygon class="fil4" points="87655,151917 105986,145359 99429,127028 81097,133586 "/>
   <polygon class="fil5" points="84376,142751 93543,139472 90264,130307 81097,133586 "/>
   <polygon class="fil6" points="93542,139472 102707,136194 99428,127027 90263,130305 "/>
   <polygon class="fil5" points="96816,148625 105981,145346 102702,136179 93537,139458 "/>
   <path class="fil4" d="M94213 170250l16461 -5889c383,-862 769,-1746 1159,-2658l-5846 -16342 -18332 6558 6558 18331z"/>
   <polygon class="fil5" points="90934,161083 100101,157804 96822,148640 87655,151919 "/>
   <polygon class="fil6" points="100100,157804 109265,154526 105986,145359 96821,148638 "/>
   <path class="fil5" d="M103374 166957l7307 -2615c382,-855 764,-1734 1152,-2638l-2573 -7192 -9165 3278 3279 9167z"/>
   <path class="fil4" d="M110673 164363l-16460 5888 5148 14391c3346,-4361 7118,-10843 11312,-20279z"/>
   <path class="fil5" d="M97492 179416l6897 -2468c511,-893 1027,-1821 1554,-2811l-2563 -7165 -9167 3279 3279 9165z"/>
   <path class="fil6" d="M110674 164361l-7295 2610 2564 7168c1512,-2840 3089,-6086 4731,-9778z"/>
   <polygon class="fil4" points="74211,115369 74539,115252 74351,114729 "/>
   <polygon class="fil5" points="74214,115352 74534,115238 74351,114728 "/>
   <path class="fil4" d="M71076 137169l10021 -3584 -6558 -18331 -330 117c-1366,6250 -2601,13710 -3133,21798z"/>
   <path class="fil6" d="M72207 126426l5611 -2008 -3279 -9166 -328 117c-738,3365 -1434,7080 -2004,11057z"/>
   <path class="fil5" d="M71927 136849l9165 -3279 -3279 -9165 -5604 2004c-392,2729 -723,5581 -968,8526l686 1914z"/>
   <path class="fil4" d="M71465 157709l16190 -5792 -6558 -18331 -10021 3586c-431,6540 -401,13489 389,20537z"/>
   <path class="fil5" d="M70818 147601l4393 -1571 -3280 -9166 -855 308c-224,3381 -322,6871 -258,10429z"/>
   <polygon class="fil6" points="75211,146030 84376,142751 81097,133584 71931,136863 "/>
   <polygon class="fil5" points="78485,155182 87650,151903 84371,142737 75206,146016 "/>
   <path class="fil4" d="M75881 176806l18331 -6556 -6557 -18331 -16190 5791c548,4884 1462,9812 2839,14687l1577 4409z"/>
   <path class="fil5" d="M73070 167473l8699 -3111 -3279 -9166 -7024 2514c363,3243 889,6509 1604,9763z"/>
   <polygon class="fil6" points="81769,164362 90934,161083 87655,151917 78490,155195 "/>
   <polygon class="fil5" points="85043,173514 94208,170236 90929,161069 81764,164348 "/>
   <path class="fil4" d="M99361 184644l-5148 -14393 -18331 6558 2048 5725c690,1573 1432,3133 2244,4674 0,0 6533,13932 19187,-2564z"/>
   <path class="fil5" d="M79487 185857l8840 -3163 -3279 -9164 -9166 3279 2048 5725c489,1116 1008,2223 1557,3323z"/>
   <polygon class="fil6" points="88327,182694 97492,179416 94213,170250 85048,173527 "/>
   <path class="fil5" d="M99361 184642l-1874 -5240 -9165 3279 3249 9081c2266,-1110 4866,-3306 7790,-7120z"/>
   <path class="fil4" d="M75712 176868l170 -62 -1580 -4414c425,1498 895,2991 1410,4476z"/>
   <path class="fil5" d="M75707 176853l169 -60 -1572 -4396c423,1492 890,2979 1403,4456z"/>
   <path class="fil4" d="M77933 182539l-2051 -5730 -170 60c662,1907 1399,3798 2221,5670z"/>
   <path class="fil6" d="M77930 182534l-2049 -5728 -169 62c660,1904 1397,3795 2218,5666z"/>
   <path class="fil7" d="M6898 92872c3247,-6395 29625,-27602 29625,-27602 0,0 -3215,32968 -6462,39365 -3248,6396 -11068,8947 -17462,5699 -6396,-3248 -8951,-11064 -5701,-17462z"/>
   <path class="fil7" d="M43718 19759c-3249,6398 -4809,40209 -4809,40209 0,0 24724,-22048 27971,-28444 3248,-6398 696,-14214 -5700,-17462 -6396,-3250 -14214,-696 -17462,5697z"/>
   <path class="fil8" d="M31842 66520l1890 5282c505,-4424 803,-7474 803,-7474 0,0 -1025,823 -2693,2192z"/>
   <path class="fil9" d="M32732 69008l1366 -488c280,-2580 437,-4192 437,-4192 0,0 -1025,823 -2693,2192l890 2488z"/>
   <path class="fil8" d="M24625 77478l8812 -3153c105,-880 203,-1722 295,-2523l-1890 -5282c-2090,1718 -5192,4294 -8565,7191l1348 3767z"/>
   <path class="fil9" d="M25945 71436l1852 -661 -247 -690c-519,435 -1055,886 -1605,1351z"/>
   <path class="fil10" d="M27797 70775l4935 -1767 -890 -2488c-1160,955 -2633,2173 -4292,3565l247 690z"/>
   <path class="fil9" d="M29560 75704l3879 -1387c103,-877 202,-1718 293,-2515l-1002 -2801 -4937 1766 1767 4937z"/>
   <path class="fil8" d="M28158 87356l3747 -1340c589,-4034 1111,-8145 1532,-11688l-8812 3152 3533 9876z"/>
   <polygon class="fil9" points="26390,82417 31329,80650 29562,75713 24625,77478 "/>
   <path class="fil10" d="M31329 80650l1384 -495c265,-2035 508,-4006 724,-5828l-3875 1386 1767 4937z"/>
   <path class="fil9" d="M32714 80146l-1388 497 961 2685c148,-1069 290,-2133 427,-3182z"/>
   <path class="fil8" d="M31905 86016l-3748 1339 2426 6780c465,-2521 910,-5301 1322,-8119z"/>
   <path class="fil9" d="M29924 92295l1053 -377c323,-1895 633,-3888 928,-5902l-3747 1340 1766 4939z"/>
   <path class="fil8" d="M15206 80848l9419 -3370 -1348 -3769c-2645,2272 -5455,4737 -8071,7139z"/>
   <path class="fil9" d="M19683 79238l4938 -1767 -1344 -3760c-1388,1191 -2821,2435 -4248,3697l654 1830z"/>
   <polygon class="fil8" points="18282,90888 28158,87356 24625,77480 15205,80850 14817,81206 "/>
   <polygon class="fil9" points="16515,85950 21453,84183 19687,79245 15206,80848 14817,81206 "/>
   <polygon class="fil10" points="21453,84183 26390,82417 24625,77478 19687,79245 "/>
   <polygon class="fil9" points="23216,89114 28155,87348 26388,82409 21450,84176 "/>
   <path class="fil8" d="M21815 100765l8010 -2865c258,-1161 511,-2425 758,-3765l-2425 -6780 -9876 3533 3533 9877z"/>
   <polygon class="fil9" points="20048,95827 24987,94060 23220,89123 18282,90890 "/>
   <polygon class="fil10" points="24987,94060 29924,92295 28158,87356 23220,89123 "/>
   <path class="fil9" d="M26750 98990l3077 -1101c257,-1157 509,-2418 756,-3754l-662 -1849 -4938 1767 1767 4937z"/>
   <path class="fil8" d="M29825 97900l-8010 2865 2620 7325c1479,-1142 2733,-2621 3636,-4399 592,-1165 1184,-3219 1754,-5791z"/>
   <path class="fil9" d="M23580 105702l4223 -1511c92,-163 182,-330 268,-500 68,-133 135,-283 203,-439l-1521 -4255 -4938 1767 1765 4938z"/>
   <path class="fil10" d="M29825 97898l-3073 1100 1522 4255c524,-1209 1046,-3076 1551,-5355z"/>
   <path class="fil8" d="M8405 94422l9877 -3534 -3465 -9682c-3328,3069 -6306,6008 -8181,8269l1769 4947z"/>
   <path class="fil9" d="M6638 89482l4939 -1766 -914 -2554c-1599,1586 -2984,3054 -4027,4313l2 7z"/>
   <path class="fil10" d="M11577 87716l4938 -1766 -1698 -4744c-1475,1360 -2881,2695 -4154,3956l914 2554z"/>
   <polygon class="fil9" points="13341,92646 18279,90880 16512,85941 11574,87708 "/>
   <polygon class="fil8" points="11938,104298 21815,100765 18282,90888 8405,94422 "/>
   <polygon class="fil9" points="10172,99360 15110,97593 13343,92655 8406,94422 "/>
   <polygon class="fil10" points="15110,97593 20048,95827 18282,90890 13343,92655 "/>
   <polygon class="fil9" points="16873,102523 21811,100756 20046,95818 15108,97585 "/>
   <path class="fil8" d="M24435 108090l-2620 -7325 -9877 3533 2255 6301c3632,654 7362,-286 10242,-2509z"/>
   <polygon class="fil9" points="13705,109234 18642,107469 16877,102531 11938,104297 "/>
   <polygon class="fil10" points="18642,107469 23580,105702 21815,100764 16877,102531 "/>
   <path class="fil9" d="M24435 108090l-857 -2395 -4938 1765 1052 2938c1711,-435 3329,-1217 4743,-2308z"/>
   <path class="fil8" d="M3606 96139l4800 -1717 -1770 -4948c-792,953 -1388,1787 -1729,2456l0 0c-688,1358 -1116,2781 -1301,4209z"/>
   <polygon class="fil10" points="6625,89487 6640,89482 6636,89474 "/>
   <path class="fil9" d="M3607 96128l4796 -1715 -1767 -4938 -1 1c-791,952 -1387,1785 -1728,2454l0 0c-687,1356 -1113,2773 -1300,4198z"/>
   <path class="fil8" d="M6580 106215l5358 -1917 -3532 -9876 -4800 1716c-471,3628 622,7300 2974,10077z"/>
   <path class="fil9" d="M4051 101550l1185 -424 -1668 -4661c-179,1725 -9,3453 483,5085z"/>
   <path class="fil10" d="M5236 101126l4937 -1766 -1767 -4938 -4800 1717c-13,109 -27,217 -38,326l1668 4661z"/>
   <polygon class="fil9" points="6999,106055 11936,104289 10169,99351 5232,101118 "/>
   <path class="fil8" d="M14193 110599l-2255 -6301 -5358 1917c1085,1281 2437,2371 4028,3179 1160,588 2366,986 3585,1205z"/>
   <path class="fil9" d="M7354 107050l-353 -986 -421 151c245,288 503,566 774,835z"/>
   <path class="fil10" d="M11788 109921l1917 -687 -1767 -4937 -4937 1767 353 986c934,923 2023,1718 3254,2344 388,197 782,372 1180,527z"/>
   <path class="fil9" d="M14193 110599l-490 -1372 -1926 689c793,310 1602,537 2416,683z"/>
   <path class="fil8" d="M59871 20310l4886 -1748c-1211,-2263 -3103,-4192 -5566,-5442 -720,-367 -1460,-658 -2208,-879l2888 8069z"/>
   <path class="fil9" d="M58104 15372l2990 -1071c-590,-440 -1224,-837 -1903,-1181 -720,-367 -1460,-658 -2208,-879l1121 3131z"/>
   <path class="fil8" d="M63404 30187l1984 -710c1448,-3650 1125,-7635 -631,-10915l-4886 1748 3533 9877z"/>
   <path class="fil9" d="M61638 25248l4614 -1650c-51,-614 -148,-1220 -286,-1818l-1022 -2858c-61,-121 -122,-240 -187,-359l-4886 1748 1767 4937z"/>
   <path class="fil10" d="M64944 18922l1022 2858c-228,-987 -572,-1948 -1022,-2858z"/>
   <path class="fil8" d="M65388 29477l-1984 710 635 1774c360,-515 648,-978 852,-1379 185,-364 350,-734 497,-1105z"/>
   <path class="fil9" d="M65388 29477l-1984 710 635 1774c360,-515 648,-978 852,-1379 185,-364 350,-734 497,-1105z"/>
   <path class="fil8" d="M46461 13966l6269 -2242c-2254,102 -4451,793 -6358,1995l89 247z"/>
   <path class="fil9" d="M51397 12191l1306 -466c-477,22 -952,71 -1421,147l115 319z"/>
   <path class="fil8" d="M49994 23843l9876 -3533 -2887 -8069c-1401,-416 -2836,-582 -4249,-517l-6273 2243 3533 9876z"/>
   <polygon class="fil9" points="48228,18904 53166,17137 51399,12200 46461,13967 "/>
   <path class="fil10" d="M53166 17137l4937 -1765 -1120 -3131c-1402,-416 -2838,-582 -4252,-517l-1332 476 1767 4937z"/>
   <polygon class="fil9" points="54929,22068 59867,20301 58101,15363 53163,17130 "/>
   <polygon class="fil8" points="53528,33720 63403,30187 59870,20310 49994,23843 "/>
   <polygon class="fil9" points="51761,28782 56699,27015 54933,22077 49994,23843 "/>
   <polygon class="fil10" points="56699,27015 61636,25248 59871,20311 54933,22077 "/>
   <polygon class="fil9" points="58462,31946 63401,30179 61634,25241 56697,27008 "/>
   <path class="fil8" d="M64038 31961l-635 -1774 -9875 3533 2568 7180c3406,-3459 6369,-6695 7942,-8939z"/>
   <polygon class="fil9" points="55294,38658 59771,37056 60145,36648 58466,31953 53528,33720 "/>
   <path class="fil10" d="M64038 31961l-635 -1774 -4937 1766 1679 4695c1635,-1792 2991,-3402 3893,-4687z"/>
   <path class="fil8" d="M45526 14300l935 -334 -89 -247c-289,182 -570,376 -846,581z"/>
   <path class="fil9" d="M45549 14284l909 -326 -85 -239c-281,177 -557,365 -824,565z"/>
   <path class="fil8" d="M40120 27376l9874 -3533 -3533 -9876 -938 336c-1547,1156 -2860,2677 -3793,4514l0 0c-725,1428 -1364,4218 -1921,7691l311 868z"/>
   <path class="fil9" d="M40790 21564l2501 -893 -1012 -2829c-195,315 -379,640 -549,975l0 0c-331,652 -643,1592 -940,2747z"/>
   <path class="fil10" d="M43291 20671l4937 -1767 -1767 -4937 -936 334c-1264,946 -2373,2135 -3246,3541l1012 2829z"/>
   <polygon class="fil9" points="45055,25600 49992,23835 48225,18896 43288,20662 "/>
   <polygon class="fil8" points="43652,37252 53528,33720 49994,23843 40119,27376 "/>
   <polygon class="fil9" points="41886,32314 46824,30547 45058,25610 40120,27377 "/>
   <polygon class="fil10" points="46824,30547 51761,28782 49994,23843 45058,25610 "/>
   <polygon class="fil9" points="48588,35478 53525,33711 51758,28774 46821,30540 "/>
   <path class="fil8" d="M47186 47128l4103 -1468c1636,-1584 3266,-3194 4807,-4760l-2568 -7180 -9876 3532 3534 9876z"/>
   <polygon class="fil9" points="45419,42190 50357,40424 48591,35485 43652,37252 "/>
   <polygon class="fil10" points="50357,40424 55294,38657 53528,33720 48591,35485 "/>
   <path class="fil9" d="M56097 40900l-805 -2250 -4937 1766 1633 4566c1400,-1366 2788,-2740 4109,-4082z"/>
   <path class="fil8" d="M51289 45660l-4103 1468 655 1834c1131,-1071 2290,-2180 3448,-3302z"/>
   <path class="fil9" d="M51288 45661l-4102 1468 655 1833c1131,-1070 2290,-2180 3447,-3301z"/>
   <path class="fil8" d="M39647 27545l473 -169 -311 -868c-56,339 -109,685 -162,1037z"/>
   <path class="fil9" d="M39650 27535l466 -168 -307 -859c-54,335 -107,677 -159,1027z"/>
   <path class="fil8" d="M38300 39167l5352 -1915 -3533 -9876 -472 169c-526,3498 -974,7579 -1347,11622z"/>
   <path class="fil10" d="M38889 33385l2997 -1071 -1766 -4937 -473 168c-273,1819 -526,3795 -758,5840z"/>
   <path class="fil9" d="M38711 39011l4939 -1766 -1767 -4939 -2993 1071c-176,1558 -340,3155 -492,4755l313 879z"/>
   <path class="fil8" d="M37407 50626l9779 -3498 -3534 -9876 -5352 1915c-374,4072 -671,8103 -893,11459z"/>
   <path class="fil9" d="M37815 44910l2666 -953 -1767 -4938 -414 148c-179,1947 -340,3884 -485,5743z"/>
   <polygon class="fil10" points="40481,43957 45419,42190 43652,37252 38714,39019 "/>
   <polygon class="fil9" points="42245,48887 47183,47120 45416,42183 40478,43950 "/>
   <path class="fil8" d="M47841 48962l-655 -1834 -9779 3497 -18 261 2088 5834c2033,-1849 5074,-4641 8364,-7758z"/>
   <path class="fil9" d="M39076 55599l2673 -957c602,-553 1246,-1146 1921,-1771l-1423 -3976 -4840 1731 -18 260 1687 4713z"/>
   <path class="fil10" d="M47841 48962l-655 -1833 -4939 1766 1423 3976c1297,-1204 2709,-2524 4171,-3909z"/>
   <path class="fil8" d="M39477 56719l-2087 -5835c-313,4791 -469,8141 -469,8141 0,0 974,-868 2556,-2306z"/>
   <path class="fil10" d="M37062 56319l2014 -720 -1687 -4712c-141,2163 -250,4033 -327,5432z"/>
   <path class="fil9" d="M39477 56720l-404 -1128 -2011 718c-94,1705 -141,2715 -141,2715 0,0 974,-868 2556,-2305z"/>
   <path class="fil11" d="M68943 71681c3048,1444 4505,4815 3233,7493 -1266,2675 -4798,3690 -7843,2244l-29888 -14156c-3048,-1443 -4503,-4815 -3235,-7491 1269,-2679 4799,-3688 7847,-2245l29886 14155z"/>
   <path class="fil12" d="M164564 118894l14955 -5350c-6385,-7502 -15483,-15838 -25434,-23944l10479 29294z"/>
   <path class="fil13" d="M164564 118894l3325 -1190 -8463 -23660c-1746,-1485 -3528,-2968 -5341,-4444l10479 29294z"/>
   <path class="fil13" d="M171210 116516l3326 -1190 -4037 -11284c-1790,-1730 -3669,-3477 -5623,-5234l6334 17708z"/>
   <path class="fil13" d="M177860 114137l1659 -593c-979,-1152 -2026,-2322 -3127,-3510l1468 4103z"/>
   <path class="fil12" d="M179519 113544l-14955 5350 7686 21483c8189,-419 14023,-2305 15902,-6271 2274,-4801 -1479,-12158 -8633,-20562z"/>
   <path class="fil13" d="M175893 140077l-8004 -22373 -3325 1190 7686 21483c1271,-66 2491,-162 3643,-300z"/>
   <path class="fil13" d="M182816 138474l-8280 -23148 -3326 1190 8215 22963c1237,-274 2375,-606 3391,-1005z"/>
   <path class="fil13" d="M188465 133305l-5537 -15481c-1025,-1390 -2165,-2819 -3409,-4280l-1659 593 8089 22610c971,-753 1723,-1626 2203,-2641 124,-259 225,-528 313,-801z"/>
   <path class="fil12" d="M92105 84616l37501 -13415c-12668,-8826 -24352,-15959 -31413,-19304l0 0c-6549,-3102 -13284,-4916 -19775,-5540l13687 38259z"/>
   <path class="fil13" d="M92105 84616l3323 -1189 -13075 -36549c-1319,-222 -2633,-396 -3935,-521l13687 38259z"/>
   <path class="fil13" d="M98750 82238l3325 -1189 -11506 -32167c-1390,-446 -2782,-836 -4169,-1173l12350 34529z"/>
   <path class="fil13" d="M105398 79860l3325 -1189 -9378 -26215c-396,-196 -781,-383 -1152,-559l0 0c-1101,-521 -2208,-1006 -3318,-1456l10523 29419z"/>
   <path class="fil13" d="M112047 77481l3323 -1188 -6681 -18674c-1663,-988 -3240,-1895 -4719,-2717l8077 22579z"/>
   <path class="fil13" d="M118695 75103l3321 -1188 -3683 -10296c-1663,-1076 -3281,-2104 -4849,-3081l5211 14565z"/>
   <path class="fil13" d="M125342 72725l3325 -1189 -470 -1312c-1675,-1158 -3330,-2285 -4958,-3375l2103 5876z"/>
   <path class="fil12" d="M122668 133881l41896 -14987 -10479 -29294c-7933,-6461 -16405,-12775 -24479,-18399l-37501 13415 16353 45717c4644,1243 9416,2440 14210,3548z"/>
   <path class="fil13" d="M112596 131420l-17168 -47993 -3323 1189 16353 45717c1369,367 2749,729 4138,1087z"/>
   <path class="fil13" d="M120821 133451l-18746 -52402 -3325 1189 17966 50221c1364,337 2733,668 4105,992z"/>
   <polygon class="fil13" points="124491,133228 127815,132039 108723,78671 105398,79860 "/>
   <polygon class="fil13" points="131138,130851 134462,129662 115370,76293 112047,77481 "/>
   <polygon class="fil13" points="137786,128473 141107,127285 122016,73915 118695,75103 "/>
   <polygon class="fil13" points="144433,126095 147759,124905 128667,71536 125342,72725 "/>
   <path class="fil13" d="M151080 123717l3325 -1189 -16148 -45143c-1693,-1241 -3382,-2462 -5060,-3657l17883 49989z"/>
   <path class="fil13" d="M157729 121339l3323 -1189 -12512 -34976c-1714,-1342 -3440,-2672 -5175,-3983l14364 40148z"/>
   <path class="fil12" d="M172250 140377l-7686 -21483 -41896 14987c18252,4219 36793,7150 49582,6496z"/>
   <path class="fil13" d="M128975 135285l-1160 -3246 -3324 1189 415 1163c1358,305 2715,604 4069,894z"/>
   <path class="fil13" d="M137053 136907l-2591 -7245 -3324 1189 1887 5272c1349,272 2691,533 4028,784z"/>
   <path class="fil13" d="M145047 138295l-3940 -11010 -3321 1188 3278 9162c1338,232 2667,451 3983,660z"/>
   <path class="fil13" d="M152946 139404l-5187 -14499 -3326 1190 4576 12791c1329,188 2643,361 3937,518z"/>
   <path class="fil13" d="M160715 140165l-6310 -17637 -3325 1189 5766 16119c1316,129 2605,238 3869,329z"/>
   <path class="fil13" d="M168320 140467l-7268 -20317 -3323 1189 6812 19045c1297,53 2558,80 3779,83z"/>
   <path class="fil12" d="M47088 100719l45017 -16103 -13687 -38259c-16843,-1616 -32055,4804 -38161,17698 -5437,11479 -2331,25296 6831,36664z"/>
   <path class="fil13" d="M47088 100719l1619 -579 -10586 -29590c-624,3164 -703,6427 -277,9706l5285 14771c1154,1948 2476,3853 3959,5692z"/>
   <path class="fil13" d="M52031 98951l3324 -1190 -13241 -37014c-688,1050 -1310,2152 -1857,3308 -138,290 -269,583 -396,876l12170 34020z"/>
   <path class="fil13" d="M58677 96574l3324 -1189 -14551 -40677c-989,844 -1916,1751 -2778,2713l14005 39153z"/>
   <path class="fil13" d="M65325 94195l3323 -1188 -15152 -42360c-1073,560 -2105,1171 -3094,1830l14923 41718z"/>
   <path class="fil13" d="M71972 91817l3325 -1189 -15251 -42631c-1139,344 -2252,734 -3331,1170l15257 42650z"/>
   <path class="fil13" d="M78620 89439l3324 -1189 -14930 -41734c-1199,157 -2378,356 -3533,600l15139 42323z"/>
   <path class="fil13" d="M85267 87061l3325 -1189 -14220 -39749c-1255,-25 -2500,-7 -3727,60l14622 40878z"/>
   <path class="fil12" d="M108458 130333l-16353 -45717 -45017 16103c5093,6319 12056,11881 20463,15864 8009,3792 23552,9100 40907,13750z"/>
   <path class="fil13" d="M50157 104196l-1450 -4056 -1619 579c958,1188 1983,2349 3069,3477z"/>
   <path class="fil13" d="M60741 112818l-5386 -15057 -3324 1190 3679 10286c1588,1260 3267,2458 5031,3581z"/>
   <path class="fil13" d="M69976 117678l-7975 -22293 -3324 1189 6787 18971c686,356 1381,703 2087,1038 745,353 1556,718 2425,1095z"/>
   <path class="fil13" d="M78701 121106l-10053 -28099 -3323 1188 9045 25283c1357,529 2805,1074 4331,1628z"/>
   <path class="fil13" d="M87253 124050l-11956 -33422 -3325 1189 11020 30806c1373,472 2796,948 4261,1427z"/>
   <path class="fil13" d="M95700 126704l-13756 -38454 -3324 1189 12867 35970c1377,432 2780,864 4213,1295z"/>
   <path class="fil13" d="M104066 129132l-15475 -43260 -3324 1189 14626 40883c1373,399 2765,795 4173,1188z"/>
   <path class="fil14" d="M182707 138528c-25,9 -51,18 -76,26 1,-1 3,-2 3,-6 63,-23 122,-46 184,-70 1216,-478 2268,-1050 3134,-1720 974,-753 1719,-1636 2200,-2652 121,-259 227,-525 315,-795 583,-1807 420,-3925 -372,-6291 104,-152 207,-307 308,-457 1011,2849 1133,5353 165,7394 -971,2052 -2997,3547 -5861,4571zm-6725 -28939c-1704,-1820 -3542,-3678 -5485,-5556 -1791,-1728 -3668,-3473 -5623,-5230 -1761,-1584 -3584,-3175 -5450,-4764 -1745,-1485 -3528,-2968 -5340,-4443 -1674,-1364 -3375,-2724 -5088,-4068 70,-107 134,-207 202,-315 10156,7964 19790,16342 27060,24082 -92,97 -185,195 -276,294z"/>
   <path class="fil15" d="M188095 127020c-316,-945 -734,-1930 -1243,-2949 94,-140 187,-281 279,-419 515,1003 940,1975 1272,2911 -101,150 -204,305 -308,457zm-4742 -9335l-414 148 0 -1 413 -148c1,1 0,0 1,1z"/>
   <path class="fil15" d="M182631 138554c-64,24 -132,46 -199,69 68,-24 135,-49 202,-75 0,4 -2,5 -3,6z"/>
   <path class="fil15" d="M148996 85528c-153,-120 -305,-238 -458,-358 -829,-651 -1661,-1298 -2498,-1941 69,-107 132,-205 200,-312 988,759 1977,1528 2958,2296 -68,108 -132,208 -202,315z"/>
   <path class="fil16" d="M183352 117684l-413 148c-7,-9 -11,-14 -18,-22 -1022,-1387 -2156,-2810 -3398,-4267l-1960 700 1960 -700c-983,-1156 -2031,-2330 -3135,-3520 -42,-45 -89,-95 -131,-141l415 -148c2558,2748 4814,5416 6680,7950z"/>
   <path class="fil17" d="M176672 109734l-415 148c-91,-98 -183,-196 -275,-293 91,-99 184,-197 276,-294 140,147 276,292 414,439z"/>
   <path class="fil17" d="M186852 124071c-978,-1960 -2301,-4049 -3913,-6238l414 -148c1538,2086 2813,4085 3778,5967 -92,138 -185,279 -279,419z"/>
   <path class="fil16" d="M146040 83229c-113,-86 -229,-175 -342,-262l-230 -642c258,198 514,394 772,592 -68,107 -131,205 -200,312z"/>
   <path class="fil18" d="M142959 80420l-415 150c-560,-422 -1119,-841 -1679,-1259 -532,-550 -1074,-1105 -1628,-1661 1241,912 2482,1837 3722,2770z"/>
   <path class="fil17" d="M145698 82967c-776,-596 -1552,-1187 -2333,-1779 -272,-206 -548,-413 -821,-618l415 -150c837,631 1676,1267 2509,1905l230 642z"/>
   <path class="fil19" d="M177860 114137l-3324 1189 -4039 -11293c1943,1878 3781,3736 5485,5556 92,97 184,195 275,293 42,46 89,96 131,141l1472 4114zm-6650 2379l-3321 1188 -8465 -23665c1866,1589 3689,3180 5450,4764l6336 17713z"/>
   <path class="fil20" d="M167889 117704l-3325 1190 -10480 -29298c1812,1475 3595,2958 5340,4443l8465 23665z"/>
   <path class="fil20" d="M174536 115326l-3326 1190 -6336 -17713c1955,1757 3832,3502 5623,5230l4039 11293z"/>
   <path class="fil20" d="M179523 113543l-1663 594 -1472 -4114c1104,1190 2152,2364 3135,3520z"/>
   <path class="fil19" d="M182818 138478l-8282 -23152 -3326 1190 8199 22916c-1106,228 -2293,411 -3551,549l-7969 -22277 -3325 1190 14959 -5351 -1663 594 8092 22621c-866,670 -1918,1242 -3134,1720zm5649 -5167l-5546 -15501c7,8 11,13 18,22l0 1c1612,2189 2935,4278 3913,6238 509,1019 927,2004 1243,2949 792,2366 955,4484 372,6291z"/>
   <path class="fil20" d="M175858 139981c-1159,128 -2377,219 -3652,275l-7642 -21362 3325 -1190 7969 22277z"/>
   <path class="fil20" d="M182432 138623c-925,316 -1935,586 -3023,809l-8199 -22916 3326 -1190 8282 23152c-62,24 -121,47 -184,70 -67,26 -134,51 -202,75z"/>
   <path class="fil20" d="M185952 136758l-8092 -22621 1663 -594c1242,1457 2376,2880 3398,4267l5546 15501c-88,270 -194,536 -315,795 -481,1016 -1226,1899 -2200,2652z"/>
   <path class="fil19" d="M164564 118894l-3512 1256 -6019 -16823c465,-3329 -1201,-7543 -4398,-12298l-2097 -5859c153,120 305,238 458,358 1713,1344 3414,2704 5088,4068l10480 29298zm-6835 2445l-3324 1189 -4684 -13096c1211,-532 2241,-1168 3063,-1915l4945 13822zm-6649 2378l-3321 1188 -4903 -13706c1253,-170 2424,-387 3512,-655l4712 13173zm-6647 2378l-3326 1190 -5582 -15609c1282,-11 2521,-53 3705,-127l5203 14546zm-6647 2378l-3324 1189 -6519 -18222c1306,87 2578,150 3817,189l6026 16844zm-6648 2378l-3323 1188 -7625 -21312c1320,153 2621,289 3895,407l7053 19717zm-6647 2377l-1413 507c-787,-183 -1568,-366 -2353,-552l-8417 -23526c1334,204 2652,396 3956,574l8227 22997zm-7873 -1043c-1379,-342 -2758,-691 -4122,-1046l-8170 -22839c1340,248 2680,485 4002,711l8290 23174zm27210 -49700c-942,-1046 -1930,-2104 -2963,-3174 560,418 1119,837 1679,1259 273,205 549,412 821,618l463 1297z"/>
   <path class="fil20" d="M112496 131139c-1391,-359 -2770,-724 -4141,-1092l-8054 -22518c1349,268 2689,524 4025,771l8170 22839z"/>
   <path class="fil20" d="M120725 133183c-1373,-328 -2742,-660 -4107,-998l-8290 -23174c1338,227 2667,443 3980,646l8417 23526z"/>
   <path class="fil20" d="M127815 132039l-3324 1189 -8227 -22997c1327,180 2635,345 3926,496l7625 21312z"/>
   <path class="fil20" d="M134462 129662l-3324 1189 -7053 -19717c1312,121 2601,224 3858,306l6519 18222z"/>
   <path class="fil20" d="M141107 127285l-3321 1188 -6026 -16844c1294,42 2551,58 3765,47l5582 15609z"/>
   <path class="fil20" d="M147759 124905l-3326 1190 -5203 -14546c1270,-79 2481,-195 3626,-350l4903 13706z"/>
   <path class="fil20" d="M154405 122528l-3325 1189 -4712 -13173c786,-194 1527,-413 2218,-660 394,-142 772,-292 1135,-452l4684 13096z"/>
   <path class="fil20" d="M161052 120150l-3323 1189 -4945 -13822c715,-648 1277,-1383 1667,-2205 292,-621 485,-1283 582,-1985l6019 16823zm-10417 -29121c-1813,-2695 -4118,-5565 -6807,-8544l-463 -1297c781,592 1557,1183 2333,1779 113,87 229,176 342,262 837,643 1669,1290 2498,1941l2097 5859z"/>
   <path class="fil19" d="M172206 140256c-1261,55 -2574,77 -3938,67l-7216 -20173 -3323 1189 6754 18881c-1247,-57 -2525,-135 -3832,-235l-6246 -17457 -3325 1189 5697 15924c-1281,-131 -2583,-279 -3905,-442l-5113 -14294 -3326 1190 4499 12577c-1305,-187 -2631,-387 -3965,-600l-3860 -10787 -3321 1188 3194 8928c-1328,-233 -2668,-479 -4013,-734l-2505 -7005 -3324 1189 1799 5026c-1346,-273 -2701,-557 -4053,-847l-1069 -2991 -3324 1189 322 903c-579,-131 -1156,-263 -1735,-396l41486 -14841 7642 21362z"/>
   <path class="fil20" d="M128884 135030c-1357,-292 -2713,-592 -4071,-899l-322 -903 3324 -1189 1069 2991z"/>
   <path class="fil20" d="M136967 136667c-1339,-252 -2681,-516 -4030,-790l-1799 -5026 3324 -1189 2505 7005z"/>
   <path class="fil20" d="M144967 138072c-1320,-213 -2646,-436 -3987,-671l-3194 -8928 3321 -1188 3860 10787z"/>
   <path class="fil20" d="M152872 139199c-1297,-161 -2609,-336 -3940,-527l-4499 -12577 3326 -1190 5113 14294z"/>
   <path class="fil20" d="M160651 139985c-1266,-95 -2559,-211 -3874,-344l-5697 -15924 3325 -1189 6246 17457z"/>
   <path class="fil20" d="M168268 140323c-1222,-9 -2488,-45 -3785,-103l-6754 -18881 3323 -1189 7216 20173z"/>
   <path class="fil19" d="M58192 96747l-2837 1014 -776 -2165c1180,383 2386,768 3613,1151zm-6161 2204l-3324 1189 -2663 -7447c1368,491 2800,992 4282,1494l1705 4764zm-9806 -6449c-254,-495 -499,-994 -731,-1494 76,30 151,59 227,88l504 1406z"/>
   <path class="fil20" d="M48707 100140l-1205 431c-2082,-2581 -3851,-5291 -5277,-8069l-504 -1406c1362,522 2803,1054 4323,1597l2663 7447z"/>
   <path class="fil20" d="M55355 97761l-3324 1190 -1705 -4764c1374,466 2794,936 4253,1409l776 2165z"/>
   <path class="fil19" d="M108355 130047c-1479,-399 -2945,-801 -4394,-1209l-7935 -22183c1428,301 2856,594 4275,874l8054 22518zm-8569 -2403c-1423,-413 -2818,-829 -4195,-1247l-7712 -21558c1358,317 2722,630 4082,934l7825 21871zm-8411 -2549c-1448,-457 -2861,-914 -4238,-1367l-7477 -20901c1365,348 2741,692 4117,1029l7598 21239zm-8503 -2805c-1494,-517 -2926,-1028 -4295,-1528l-7205 -20140c1371,379 2758,755 4153,1126l7347 20542zm-8632 -3175c-1607,-635 -3081,-1247 -4405,-1830l-6818 -19064c1374,409 2769,819 4187,1227l7036 19667zm-8938 -4023c-1647,-877 -3234,-1817 -4755,-2813l-5192 -14518 -3324 1190 3437 9609c-2043,-1671 -3931,-3448 -5648,-5306l-1113 -3114 -1205 431 10690 -3824c205,64 410,128 616,192l6494 18153z"/>
   <path class="fil20" d="M49820 103254c-811,-877 -1584,-1772 -2318,-2683l1205 -431 1113 3114z"/>
   <path class="fil20" d="M60547 112279c-1785,-1168 -3480,-2411 -5079,-3719l-3437 -9609 3324 -1190 5192 14518z"/>
   <path class="fil20" d="M69835 117285c-660,-291 -1283,-575 -1867,-853 -904,-430 -1795,-875 -2666,-1340l-6494 -18153c1376,427 2780,854 4209,1282l6818 19064z"/>
   <path class="fil20" d="M78577 120762c-1534,-563 -2984,-1113 -4337,-1647l-7036 -19667c1373,394 2763,786 4168,1174l7205 20140z"/>
   <path class="fil20" d="M87137 123728c-1467,-482 -2891,-963 -4265,-1438l-7347 -20542c1370,364 2747,725 4135,1079l7477 20901z"/>
   <path class="fil20" d="M95591 126397c-1432,-433 -2842,-869 -4216,-1302l-7598 -21239c1364,335 2730,663 4102,983l7712 21558z"/>
   <path class="fil20" d="M103961 128838c-1408,-395 -2802,-792 -4175,-1194l-7825 -21871c1358,302 2710,596 4065,882l7935 22183z"/>
   <path class="fil21" d="M86946 72401c3445,975 6889,2255 10284,3863 16130,7640 27349,20771 31290,34572 1559,-971 2755,-2179 3459,-3666 5341,-11272 -19416,-34183 -27787,-38148 -5370,-2542 -11866,-1016 -17246,3379z"/>
   <path class="fil22" d="M97230 76264c-3395,-1608 -6839,-2888 -10284,-3863 -542,442 -1074,914 -1595,1416 7855,3082 15484,8086 22089,14901 7149,7369 12133,15869 14862,24487 2400,-542 4524,-1315 6218,-2369 -3941,-13801 -15160,-26932 -31290,-34572z"/>
   <path class="fil23" d="M84859 109839c6068,2877 25291,6102 37443,3366 -2729,-8618 -7713,-17118 -14862,-24487 -6605,-6815 -14234,-11819 -22089,-14901 -2348,2274 -4419,5119 -5987,8431 -5340,11271 -2878,23626 5495,27591z"/>
  </g>
 </g>
</svg>
