<?xml version="1.0" encoding="UTF-8"?>
<!DOCTYPE svg PUBLIC "-//W3C//DTD SVG 1.1//EN" "http://www.w3.org/Graphics/SVG/1.1/DTD/svg11.dtd">
<!-- Creator: CorelDRAW X7 -->
<svg xmlns="http://www.w3.org/2000/svg" xml:space="preserve" width="134.969mm" height="100.044mm" version="1.1" style="shape-rendering:geometricPrecision; text-rendering:geometricPrecision; image-rendering:optimizeQuality; fill-rule:evenodd; clip-rule:evenodd"
viewBox="0 0 14523693 10765516"
 xmlns:xlink="http://www.w3.org/1999/xlink">
 <defs>
  <style type="text/css">
   <![CDATA[
    .str1 {stroke:#88CAE8;stroke-width:91100.7;stroke-linecap:round;stroke-linejoin:round}
    .str0 {stroke:#A7FFFF;stroke-width:45550.3;stroke-linecap:round;stroke-linejoin:round}
    .fil0 {fill:none}
    .fil1 {fill:white}
   ]]>
  </style>
 </defs>
 <g id="Layer_x0020_1">
  <metadata id="CorelCorpID_0Corel-Layer"/>
  <path class="fil0 str0" d="M799644 2903848c129,191574 968,392262 3691,599332 -225094,54417 -424556,152135 -551253,283126 -94372,97557 -174249,234908 -206489,364930 -50468,203325 -7199,421069 32369,626686 25083,130377 84052,255773 158689,366921 175368,261142 424340,414548 690874,468857 10276,84698 21457,169246 33444,253578 -129527,54126 -241493,124749 -323178,209200 -94372,97557 -174249,234908 -206489,364919 -50468,203346 -7199,421080 32358,626697 25083,130366 84063,255783 158711,366920 218960,326052 552630,484214 892025,491090 502011,1105099 1355695,1891528 2807377,1891528 221779,0 517614,5606 865758,11718 59561,515409 453243,913385 1026749,913385 570171,0 1120519,-393370 1210684,-904389 147078,-2518 295770,-5907 445356,-10244 59066,516011 452942,914633 1026922,914633 623608,0 1223628,-470536 1223628,-1050950 0,-8017 -161,-15991 -387,-23965 1260301,-160421 2345751,-458225 2822679,-999686 1382049,-1569049 1557751,-4956615 1557751,-6313086 0,-2663904 -9139876,-3049968 -12489069,-1140437 -216420,-232992 -531582,-381071 -853576,-381071 -579070,0 -960733,478790 -960733,1069427 0,457795 229334,848336 602109,1000881z"/>
  <path class="fil1 str1" d="M1035444 2917482c0,240858 947,497061 5488,763347 -253491,29194 -491024,123222 -626933,263725 -77671,80297 -143441,193382 -169988,300419 -41536,167395 -5918,346648 26644,515925 20661,107318 69202,210567 130657,302066 182169,271258 460776,401420 743225,404476 16604,148638 35812,297062 57796,444613 -174163,45917 -327536,123695 -426729,226246 -77671,80296 -143441,193381 -169988,300419 -41536,167394 -5918,346647 26644,515925 20661,107317 69202,210567 130657,302065 213451,317852 559313,441999 888635,394888 473291,1156288 1309145,1997888 2784802,1997888 240740,0 571633,6833 963422,13516 -226,9555 -387,19143 -387,28774 0,513859 331033,930398 833282,930398 502258,0 985492,-416539 985492,-930398 0,-6435 -129,-12848 -279,-19240 282631,-3336 572709,-9663 865166,-20112 -442,13053 -711,26159 -711,39352 0,513859 331045,930398 833282,930398 502259,0 985493,-416539 985493,-930398 0,-57538 -6101,-113827 -17562,-168471 1281049,-150059 2397834,-439297 2877398,-983749 1334465,-1515031 1504119,-4785971 1504119,-6095751 0,-2623131 -9178367,-2958900 -12244401,-988979 -183320,-260239 -513299,-434854 -851844,-434854 -509447,0 -845226,395330 -845226,882997 0,446550 281577,815623 720197,874689 -4832,46089 -8351,92510 -8351,139826z"/>
 </g>
</svg>
