<?xml version="1.0" encoding="UTF-8"?>
<!DOCTYPE svg PUBLIC "-//W3C//DTD SVG 1.1//EN" "http://www.w3.org/Graphics/SVG/1.1/DTD/svg11.dtd">
<!-- Creator: CorelDRAW X7 -->
<svg xmlns="http://www.w3.org/2000/svg" xml:space="preserve" width="35.4406mm" height="10.1921mm" version="1.1" style="shape-rendering:geometricPrecision; text-rendering:geometricPrecision; image-rendering:optimizeQuality; fill-rule:evenodd; clip-rule:evenodd"
viewBox="0 0 4279656 1230755"
 xmlns:xlink="http://www.w3.org/1999/xlink">
 <defs>
  <style type="text/css">
   <![CDATA[
    .str0 {stroke:white;stroke-width:102232;stroke-linecap:round;stroke-linejoin:round}
    .fil0 {fill:none;fill-rule:nonzero}
    .fil1 {fill:#990000;fill-rule:nonzero}
   ]]>
  </style>
 </defs>
 <g id="Layer_x0020_1">
  <metadata id="CorelCorpID_0Corel-Layer"/>
  <g>
   <path class="fil0 str0" d="M54956 743807c-2838,-10602 -4154,-21193 -3780,-31602 375,-10409 568,-21192 568,-32157 0,-8707 0,-17594 193,-26675 181,-9081 568,-18162 942,-26868 761,-18536 1703,-36891 3031,-55246 1316,-18162 2077,-36504 2451,-55234 0,-8706 -181,-18354 -748,-28945 -568,-10602 1135,-20057 5108,-28570 4721,-10216 11725,-16834 20999,-19865 9262,-3031 18536,-5482 27991,-7378 18355,-4166 36142,-8139 53543,-11725 17401,-3599 35575,-7197 54304,-10977 6050,-1135 13054,-3031 20999,-5482 8127,-2464 16266,-4360 24780,-5495 8320,-1135 16265,-1135 23837,-181 7571,942 13814,3780 19103,8888l0 -18923c0,-4914 -374,-10590 -1135,-17401 -748,-6617 -942,-13246 -748,-20057 181,-6811 1135,-13054 2837,-18536 1703,-5495 4722,-9842 9262,-12873 5301,-3019 11170,-4914 17220,-5856 6050,-954 12486,-1522 19104,-1522 6436,0 12872,387 19296,1135 6243,761 12112,1329 17413,1703 11532,761 22702,567 33486,-568 10964,-1135 21941,-1702 33099,-1702 9467,0 16278,3598 20251,10976 3973,7379 6424,16085 7185,26108 567,9841 374,20251 -761,31034 -1316,10590 -2077,19478 -2270,26482 -2452,36891 -4541,74542 -6243,112749 -1703,35007 -3973,69809 -6811,104056 -2838,34246 -4154,68867 -3780,103862 0,11544 3780,20818 11351,28196 7572,7378 16834,10965 28004,10590l32725 0 0 130537 -47675 0c-13054,-374 -24405,-193 -34621,761 -10022,942 -19490,942 -28184,-193 -8513,-1135 -17026,-3780 -24972,-7946 -8139,-4347 -16085,-12112 -24031,-23463 -5301,-7752 -10022,-16072 -14188,-25346 -3973,-9081 -8320,-17969 -12680,-26301 -6991,-13428 -11725,-27424 -13621,-42373 -12100,0 -24018,-193 -35756,-568 -11725,-374 -23644,-567 -35756,-567 -18342,2077 -36697,2644 -54859,1896 -18355,-954 -36710,0 -54678,2837 -10977,3212 -21760,4154 -32725,3019 -10977,-1135 -21953,-2270 -32918,-3405 -10035,-1884 -17980,-4915 -23656,-9262 -5857,-4166 -10023,-11351 -12486,-21567zm74349 -614671c387,-4733 1703,-9841 3973,-15131 2464,-5494 5301,-10602 8513,-15891 3225,-5108 6630,-10216 10216,-14950 3406,-4733 6630,-9274 9468,-13246 2451,-3780 5108,-7560 7945,-11351 2838,-3973 6618,-6244 11919,-6992 5108,-387 9829,374 14563,2270 4540,1884 8513,4154 11737,7185l0 567 0 -567c9081,6617 18162,13054 27617,19104 9274,6061 18730,12305 28004,18548 4540,3018 9455,7378 14756,13053 5108,5676 8888,11532 11158,17401l0 -567c0,-3973 942,-8514 2838,-13247 -375,-375 -761,-749 -942,-1135 -194,-375 -387,-749 -761,-1135 761,-1317 2463,-4722 5301,-9649 2838,-4915 5676,-10216 8513,-15505 2838,-5301 5289,-10216 7378,-14756 1884,-4360 2452,-7004 1317,-7765 -1317,-1135 -1510,-2270 -749,-3780 942,-1509 2077,-2837 3586,-4166 1522,-1316 3225,-2451 5302,-3586l4166 -2270c3019,-761 6050,-568 9081,374 3018,942 5675,2270 8126,4166 -748,-386 -1316,-954 -2077,-1702l-1509 -1703c749,374 1884,1509 3586,3405 387,568 387,942 194,749 -194,-181 -194,-374 -194,-749 6811,6243 13247,12486 19297,18729 6062,6243 12486,12668 19297,18911 2270,2089 5108,4927 8332,7945 3212,3225 6243,6437 8888,10035 2644,3587 4540,7185 5675,11158 942,3780 375,7946 -1509,12486 -3792,8320 -7946,17027 -12486,25733 -4541,8695 -9274,16459 -14008,23451 -1703,3031 -3973,4927 -6617,5676 -2645,567 -5483,760 -8320,193 -2838,-568 -5869,-1510 -8707,-2838 -2838,-1135 -5482,-2463 -7752,-3598 -7946,-4348 -15143,-9456 -21954,-15506 -6811,-5868 -14189,-11544 -22134,-17219 -3213,-1703 -6243,-5108 -8888,-9842 374,2464 0,5108 -1135,7765 -1510,4347 -3031,9455 -4541,15130 -1509,5869 -3405,11351 -5868,17027 -2452,5482 -5108,10590 -8127,15517 -3031,4722 -6436,8888 -10216,12100 -2463,2656 -6436,4540 -11351,5494 -5108,1135 -10409,1703 -15892,1703 -5301,0 -10602,-387 -15710,-1135 -5289,-761 -9455,-1522 -12667,-2657 -10784,-3780 -21012,-8694 -30660,-14937 -9648,-6437 -19104,-12680 -28378,-18923 -9648,-5869 -14937,-13053 -16265,-21374 -1329,-8332 -1703,-17594 -1329,-28003zm63192 580992c0,5483 -5676,7753 -16834,7004 -11351,-761 -14007,-1135 -7764,-761 19864,761 39173,1510 58083,2077 18923,568 38026,1522 57142,2838 11918,1522 21567,2657 28945,3224 7185,749 14756,2270 22316,4347 -2271,-18729 -4722,-37458 -7378,-55620 -2645,-18355 -4915,-36709 -6811,-55245 -2645,-21374 -5289,-42567 -7753,-63759 -2463,-21000 -4166,-42180 -5301,-63747 -748,748 -1509,1509 -2451,2077 -954,567 -2089,1135 -3224,1895 -10397,5857 -21748,11352 -33860,16073 -12293,4734 -24031,9648 -35188,14382 -16459,6243 -27050,15131 -31409,26675 -4540,11351 -6992,25166 -7378,41057 -761,11725 -761,23451 -193,35188 579,11532 954,23270 1328,35188 0,8127 -374,15892 -1135,23451 -761,7572 -1135,15517 -1135,23656zm10216 -653071c760,374 2270,1703 4926,3973 -386,-374 -1135,-942 -2270,-1896 -954,-942 -1896,-1703 -2656,-2077z"/>
  </g>
  <g>
   <path id="1" class="fil0 str0" d="M551383 896285l0 -130537 18161 0c11919,568 22328,2271 31409,5108 8888,2838 18355,4541 27810,5108 4734,375 9455,375 13814,-193 4348,-374 9262,-942 14370,-1703 0,-1316 -374,-2644 -1135,-3972 -748,-1317 -1509,-2645 -2270,-3780 -5482,-19864 -11532,-39354 -18343,-58651 -6810,-19297 -12486,-39161 -16845,-59786 -4915,-21000 -10216,-41432 -16073,-61670 -5868,-20239 -10035,-41057 -12679,-62431 -761,-5482 -2077,-12112 -3780,-19490 -1896,-7559 -3031,-14937 -3598,-22316 -568,-7378 193,-14007 2463,-19864 2077,-6062 6811,-10035 13803,-12305 7764,-2077 15891,-2451 24791,-1135 8887,1521 17026,1896 24779,1135 19490,-1884 38593,-4915 57323,-9081 7378,-1884 15323,-3779 23462,-6050 8320,-2077 16085,-1135 23463,2838 4541,2077 7753,5108 10023,8888 2270,3791 3598,8139 4347,12872 761,4722 1135,9262 1135,13996l0 13995c0,1896 193,6630 568,13815 386,7378 761,16266 1328,26675 568,10590 1135,21941 1703,34246 567,12293 1135,24405 1896,35937 1509,7571 3212,13440 5108,17981 0,-4927 181,-7572 567,-8333 749,-8126 1703,-15891 3019,-22883 1328,-7004 3224,-14382 5869,-21760 8139,-24598 20238,-47674 36323,-69241 16085,-21567 33860,-40490 53543,-56755 10023,-8321 19865,-16459 29694,-24780 9842,-8138 20625,-15323 32544,-21385 10409,-6243 21373,-10965 33292,-14370 11738,-3406 23463,-6811 35007,-10409 23270,-7185 47856,-12293 73589,-15518 25914,-3212 51273,-6049 76438,-8126 11351,-761 22702,-761 34053,-194 11351,375 22316,2077 32725,4915 10409,2657 20432,6811 29887,12305 9648,5482 18162,12486 25733,21000 17027,19477 31409,39728 43327,60534 11726,21000 20432,43895 26108,68481 4347,19864 7559,40489 9455,61863 1896,21567 2077,42567 567,63192 -1702,18729 -2644,37084 -2837,55052 0,17981 760,36323 2463,54872 568,7945 568,15891 0,23644 6424,-1136 12860,-1896 18910,-2271l14576 0 0 130537 -17220 0c-12680,-760 -23837,-6436 -33486,-16833 -9455,-10409 -17220,-22328 -22895,-35756 -6617,9081 -13235,17775 -19671,26108 -6436,8126 -15324,14756 -26482,19477 -9648,4734 -19116,7197 -28377,7765 -9275,568 -18730,1135 -28197,1509 -36130,1896 -72260,2838 -108777,2838l-106325 0c-18162,0 -37084,761 -56562,2077 -19683,1329 -38980,954 -58084,-942 -10022,-760 -20432,-1509 -31408,-2270 -11158,-761 -20806,-4166 -29320,-10023 -8706,-5494 -15517,-12305 -20432,-20625 -5108,-8139 -10215,-16652 -15323,-25346 -1510,-2657 -3406,-6437 -5676,-11351 -2270,-4927 -4734,-9649 -7571,-14189 -2645,-4541 -5857,-8139 -9262,-10977 -3599,-2644 -7197,-3212 -10784,-1702 -3031,1509 -5675,4347 -8139,8320 -2270,3791 -4347,8139 -6050,12679 -1521,4540 -3224,9081 -4733,13814 -1329,4722 -2657,8695 -3792,11726 -3973,11158 -9648,19490 -16459,25165 -6992,5676 -14937,9830 -23837,12486 -8888,2452 -18162,3973 -28185,4348 -9841,374 -19671,567 -29138,567 -6617,375 -13054,375 -19297,0 -6243,-374 -12860,-761 -19864,-1135l-31022 2270 -15517 0zm289644 -183319c-567,5676 -1135,12112 -1509,19104 -374,7197 568,13246 2645,18548 2270,4914 5108,8694 8332,11157 3405,2645 6991,4541 11158,5676 3972,1135 8513,1703 13246,1703l13996 0c9081,0 18536,193 28184,760 9649,568 19297,568 28946,-193 8513,-1509 17026,-3973 25358,-7185 8514,-3405 17027,-5675 25540,-6810 19671,-2089 38968,-3225 57697,-3225 18923,0 38219,-2270 57697,-6617 8139,1509 17220,3212 27255,5108 10023,1896 19478,1509 28184,-942 8888,-2657 16266,-6811 22328,-12872 6050,-5857 9081,-14189 9081,-24780 748,-25165 -1896,-50512 -7765,-75870 -5856,-25540 -15505,-48810 -28945,-69809 -6243,-10397 -13621,-20239 -22134,-29513 -8514,-9455 -16834,-19104 -24973,-29126 -6243,-7765 -13247,-15143 -21192,-22135 -7753,-7004 -16266,-12486 -25540,-16652 -9830,-4347 -20432,-6617 -31216,-6617 -10964,0 -21941,1509 -32724,4721 -10977,3224 -21567,7378 -31783,12486 -10023,4927 -19490,10216 -28004,15892 -8513,6062 -17026,12486 -25539,19683 -8514,6992 -16073,14937 -22702,23451 -5857,8706 -10965,17787 -15324,27629 -4154,9648 -7946,19296 -11351,28558 -6243,19116 -11726,38594 -16073,58458 -4540,19864 -8706,39548 -12873,59412z"/>
  </g>
  <g>
   <path id="2" class="fil0 str0" d="M1390611 896285l0 -125803 22328 0c12099,0 23269,749 33099,2270 10035,1316 17026,2645 21192,3780 5108,761 10023,1135 14382,1135l14370 0c7379,374 14757,374 21954,0 7185,-374 14370,-1328 21941,-2838 -9648,-7752 -18536,-16085 -26675,-24779 -7752,-7571 -15324,-15517 -22509,-23837 -7197,-8513 -13440,-17594 -18548,-27255 -3586,-6617 -6243,-14188 -7752,-22509 -1510,-8320 -2838,-16265 -3780,-24030 -4540,-20432 -6811,-40864 -7004,-61477 -193,-20818 193,-41250 1329,-61682 748,-16833 3405,-32725 7752,-47481 4540,-14949 10409,-29513 17787,-43895 6243,-13621 13803,-26107 22702,-37072 8888,-11169 20432,-20431 34428,-27810 16266,-8513 33860,-15710 52975,-21567 18923,-5868 37833,-9080 56756,-9467 16652,-374 33485,761 50512,3405 16833,2657 33111,7004 48435,13247 15324,6243 29694,14564 42941,24779 13247,10035 24598,22521 33860,37278 6629,10783 11544,22134 14575,34234 3212,11919 5675,24030 7559,36142 2838,17401 5494,34995 7378,52964 2089,17980 1329,35574 -2451,52975 -2657,13621 -7197,27049 -14189,40490 -6811,13234 -13621,25721 -20625,37072 -9648,15142 -19864,29899 -30841,44281 -10965,14563 -22509,27991 -34621,40477l-6617 6630c-2270,2270 -4541,4347 -6618,6243 6618,748 13054,1316 19672,1702 6436,181 13053,749 20238,1510 7378,374 14757,942 22328,1509 7571,568 15131,387 22509,-374 8513,-1510 17220,-2838 26107,-4166 8707,-1316 16652,-1884 23656,-1884l26675 0 0 125803 -65461 0 -942 -567c-7572,760 -15143,760 -22896,193 -7752,-386 -15130,-761 -22134,-761 -8888,0 -17787,193 -26868,568 -9081,374 -17776,-761 -26289,-3406 -18161,-5482 -36516,-11725 -55052,-18729 -18730,-7004 -36517,-15698 -53543,-26107 -2271,1896 -4541,3405 -7004,4540 -2452,942 -5108,2077 -7946,3212 -6992,3031 -13996,6062 -20613,9274 -6630,3031 -13440,6050 -20444,9081 -5108,2270 -11532,4915 -19104,8320 -7571,3224 -14563,4734 -20806,4360 -6629,0 -13247,748 -20057,1883 -6618,1329 -13247,2464 -19865,3225l-1702 0 567 941 -65836 3973 -31215 0zm88731 -749555c-386,-6243 -386,-12486 -193,-18922 193,-6424 942,-12486 2463,-17969 1510,-5675 3973,-8706 7753,-9455 12112,-2656 24405,-3031 36891,-1328 12293,1509 24598,2077 36891,1328 5108,-386 11351,-1328 18536,-2838 7197,-1328 14201,-2270 21386,-2656 7003,-374 13621,0 19864,1135 6243,954 11544,4166 15517,9274 2645,3405 4154,8513 4915,15324 761,6811 1509,13814 2077,20999 567,7185 1521,13815 3031,20058 1509,6050 4166,9829 8320,11351 6629,2451 12112,3019 16278,1316 4347,-1703 7752,-4347 10216,-8320 2644,-3780 4347,-8320 5108,-13621 748,-5108 941,-10216 567,-15517 -386,-5857 -1521,-11919 -3031,-18162 -1702,-6424 -1509,-12100 761,-17208 2644,-6243 6617,-11170 11919,-14382 5289,-3405 11157,-6050 17400,-7752 4915,-1896 9649,-3599 14382,-5301 4915,-1703 9830,-2645 14757,-3031 4915,-375 9829,193 14370,1521 4733,1510 9081,4541 13053,8888 4166,4915 7572,10216 10216,15891 2838,5676 5108,11726 6630,17969 1702,6243 3405,12679 5108,19490 1702,6617 3586,12679 5675,18161 1510,5302 3587,10591 6243,16085 2452,5676 4722,11158 6618,17027 1896,5675 3405,11532 4733,17400 1317,5869 1703,11545 1317,17220 -749,6618 -3019,11532 -6618,14563 -3779,3212 -8320,5483 -13621,6811 -5301,1135 -10977,1896 -16833,1896 -5869,0 -11738,181 -17220,567 -2645,375 -6811,942 -12679,1510 -6050,761 -12100,1328 -18730,1509 -6424,194 -12486,-181 -18161,-1135 -5857,-942 -9262,-2838 -10216,-5856 -1135,-1896 -1135,-3599 0,-5302 954,-1509 954,-3212 0,-4733 -1510,-1703 -3587,-3212 -5857,-4154 -2463,-761 -4540,-1703 -6436,-2464 -5483,-2463 -10977,-4733 -16266,-6617 -5494,-1896 -11170,-2463 -17594,-1703 -4734,375 -10035,1884 -15710,4154 -5676,2464 -9649,6062 -11919,10784 -1884,3405 -3019,6436 -3405,9274 -375,2644 -2452,5108 -6618,6810 -11725,6050 -24779,9274 -38787,10023 -13995,761 -27242,954 -39921,568 -11351,0 -22316,-1135 -32725,-3587 -10216,-2463 -18162,-9274 -23837,-20818 -2464,-4347 -4166,-9830 -4915,-16266 -761,-6436 -1135,-13054 -1328,-19490 -194,-6424 -194,-12860 193,-19297 374,-6617 374,-12486 0,-18161 0,-2452 -193,-6811 -568,-12861zm50512 408638c-1135,10783 -1521,21386 -1135,32169 375,10784 2077,21181 4915,31590 4166,14382 10023,29319 17787,44643 7753,15324 17208,28197 28185,38594 6810,6255 13621,12305 20625,17980 7004,5676 14382,11158 22134,16266 6618,-3973 13247,-7946 19671,-11919 6437,-3779 12487,-8513 17981,-13995 11919,-11170 22509,-24598 32157,-40490 9649,-15891 16266,-31408 20058,-46539 2838,-10023 4347,-20057 4347,-30080l0 -31022c0,-8514 -374,-17027 -1135,-25359 -761,-8513 -3031,-16640 -7185,-24405 -2270,-5289 -5108,-10964 -8900,-17026 -3586,-6050 -8694,-10023 -14937,-11919 -17788,-3586 -36142,-5857 -55439,-6617 -17401,-761 -33860,1328 -49377,6436 -15517,4915 -28571,14937 -39355,30080 -4347,6424 -6991,13054 -7945,20046 -942,7004 -1703,14189 -2452,21567zm1703 -463316l374 0 -374 0zm374 0l568 0 -568 0zm568 0l1135 -567c-374,386 -761,567 -1135,567zm1135 -567l568 0 -568 0z"/>
  </g>
  <g>
   <path id="3" class="fil0 str0" d="M1890250 896285l0 -130537 33304 0 0 -567 15505 0 3406 1135 567 0c3973,0 6811,193 8332,374 1317,193 2452,193 3212,193 568,0 1329,-193 2271,-760 942,-568 2644,-1703 5301,-3212 3586,-1703 6243,-4734 7946,-9081 1509,-4166 2451,-8707 2451,-13247 0,-4722 -568,-9455 -1703,-14370 -1135,-5108 -1884,-9274 -2270,-12486 -1703,-10409 -2838,-20625 -3019,-30841 -193,-10216 -567,-20058 -1328,-29706l-3973 -52022c-1328,-17413 -2838,-34814 -4347,-52215 -1896,-19115 -3792,-38219 -5495,-57322 -1883,-18923 -3019,-38026 -3212,-57323 0,-19490 -1328,-38980 -3973,-58277 -2463,-19103 -4733,-38593 -6617,-58083 -1328,-17401 -3031,-34428 -4927,-51261 -1884,-16845 -3780,-33872 -5482,-51273 -761,-5482 -942,-10783 -374,-15891 567,-4915 1883,-9456 4153,-13428 2271,-4166 5302,-7572 9081,-10035 3973,-2645 8514,-3973 13622,-3973 8899,386 17787,567 26675,567l27061 0c10023,387 20045,761 30261,954 10409,182 20432,-193 30467,-954 8127,-374 16640,-941 25733,-1702 9081,-568 17401,386 24972,3405 4722,2270 8127,5301 10397,9081 2089,3973 3599,8139 4166,12486 568,4541 568,9274 194,14382 -387,5301 -568,10023 -568,14563 0,9081 -193,18548 -761,28004 -567,9274 -1328,18729 -1896,27810 -1883,17787 -2837,35562 -2837,53543 0,17968 -375,35949 -1135,54110 -1136,38401 -2645,76801 -4541,115213 -2077,38401 -3779,77187 -5675,116348 -1135,17401 -2271,34995 -3587,52396 -1328,17595 -2656,35201 -4166,52976 -942,10783 -1896,20999 -2644,30841 -761,9842 -2838,20239 -6062,30841 -2838,9262 -6992,17775 -12100,25347 -5120,7752 -10409,15323 -15904,23076 -5108,7765 -10397,15517 -15891,23270 -5482,7945 -11919,14575 -19297,19864 -9081,5494 -18162,8706 -27423,9842 -9081,1135 -18549,1509 -28571,1135 -2077,0 -2838,0 -2077,0 748,0 1702,0 3019,193 1328,181 1895,374 2089,374 181,193 -954,193 -3406,193l-21385 2077 -21374 3406 -14563 0 -1522 567 -30080 0z"/>
  </g>
  <g>
   <path id="4" class="fil0 str0" d="M2217353 279912c0,-17027 3973,-29513 11919,-37459 8139,-7945 17787,-13234 29512,-16072 11545,-2657 24031,-3792 37084,-3031 13235,761 24973,1135 35189,1135 3779,0 9262,0 16459,-193 7378,-181 14563,0 21941,760 7197,761 13440,2077 18729,4167 5301,2077 7765,5289 7378,9648 -1135,15891 -1316,31783 -748,47481 567,15698 748,31409 748,47300 387,18162 0,36323 -942,54678 -941,18343 -2077,36505 -3212,54666 -1135,17981 -2270,36143 -3598,54485 -1329,18355 -2077,36517 -2464,54679 -1883,57129 -2644,114078 -2451,170652 181,56562 1509,113510 4154,170640l-2838 16084c-16084,4915 -31783,9830 -47300,14757 -15505,4914 -31215,9829 -47107,14756 -8320,2838 -16833,5289 -25539,7378 -8695,2077 -17208,942 -25540,-3031 -6243,-2644 -10591,-7004 -13054,-13054 -2644,-6049 -3973,-12679 -4347,-19864 -374,-7185 -193,-14563 374,-21941 761,-7378 1135,-13815 1522,-19490 374,-16085 942,-32157 2077,-48049 942,-15891 1702,-31976 2463,-48061 568,-16072 942,-32157 942,-48242 0,-16072 -568,-32157 -1896,-48435 -2644,-32918 -4540,-65643 -5482,-98186 -942,-32532 -1510,-65269 -2077,-98561 -387,-33679 -761,-66971 -1135,-99696 -387,-32918 -568,-66222 -761,-99901z"/>
  </g>
  <g>
   <path id="5" class="fil0 str0" d="M2637728 997684c1509,761 3780,-374 7185,-3019 3405,-2838 5675,-4540 7185,-5301 4166,-1896 7946,-3406 11351,-4347 3598,-1136 7378,-2089 11351,-2838l35007 -9467c1509,0 2451,-182 3212,-568l11158 -3212c13621,-3780 27061,-8513 39922,-14189 12860,-5675 25733,-11918 38219,-18536 31783,-16652 56755,-38412 75110,-65462 18343,-27049 31215,-57322 38594,-91001 2451,-13235 2837,-26856 1135,-40671 -1896,-13814 -3599,-27810 -5108,-41817 -1703,-20239 -4166,-40671 -6811,-60910 -2838,-20431 -5301,-40863 -7571,-61488 -1329,-16266 -3406,-32725 -5676,-49184 -2463,-16459 -3598,-32737 -3598,-49003 0,-5482 -375,-11544 -1136,-17787 -748,-6243 -748,-12100 194,-17594 942,-5676 3212,-10216 6617,-13996 3599,-3598 9467,-5482 17413,-5482 17401,-387 34621,-1135 52022,-2464 17219,-1328 34814,-2077 52408,-2463 6617,0 14563,-181 23450,-374 9081,-194 17788,760 26301,2837 8513,2077 15517,5302 20999,10023 5483,4541 7946,11738 7185,21760 -1135,12293 -1702,24405 -1702,36698 0,12112 -749,24405 -2077,36517 -1896,20625 -4734,41238 -8320,61863 -3792,20432 -7004,41057 -10035,61670 -2077,17026 -4154,34053 -6050,51079 -1896,17039 -3973,33872 -6617,50899 5856,7004 12860,13247 20806,18355 7946,5108 16084,7752 24598,7752l27810 -567 0 120888 -28378 0c-11737,-374 -22702,-4347 -32543,-12293 -10023,-7764 -18355,-16845 -24973,-27061 -761,6629 -1702,13247 -3031,19683 -1316,6424 -3212,13054 -5856,19671 -8139,19490 -17027,38968 -27062,58084 -10022,19297 -21180,37639 -33666,55233 -12487,17595 -26301,33872 -41251,49003 -14937,15131 -31396,28945 -49558,41057 -14007,8888 -28196,17594 -42953,26107 -14563,8514 -28751,17595 -42940,27617 -8139,5495 -17027,10216 -27062,14189 -10022,3792 -20238,7004 -30454,9648 -4915,1522 -10023,2090 -15517,1896 -5676,-193 -10965,0 -16073,375l-1703 0c-8899,760 -15891,-1510 -20818,-6992 -4915,-5301 -9081,-11919 -12100,-19683 -3224,-7753 -5675,-15892 -7571,-24586 -1896,-8707 -3599,-16278 -4915,-22521 -3031,-10216 -5108,-20806 -6436,-31590 -1328,-10602 -3212,-21192 -5869,-31602 -374,-1883 -1135,-3018 -2451,-3779 -1328,-761 -2089,-2077 -2464,-3973 -760,-3212 -1509,-6436 -1895,-9648 -568,-3213 -1317,-6050 -2077,-8514 -375,-2270 -761,-5675 -1135,-10409 -375,-4540 -1510,-7378 -3780,-8513z"/>
  </g>
  <g>
   <path id="6" class="fil0 str0" d="M3136606 896285l0 -130537 12860 0 13815 568c8513,374 16459,193 23837,-568 7378,-760 12679,-5301 15892,-13621 1509,-3780 2270,-7946 2463,-12679 181,-4722 0,-9649 -761,-14938 -761,-5108 -1702,-10035 -2838,-14949 -1135,-4927 -1895,-9468 -2270,-13440 375,-12487 0,-25154 -942,-37833 -1135,-12861 -2270,-25733 -3598,-38401 -2077,-23462 -4347,-46539 -6811,-69434 -2463,-22895 -4733,-45597 -7185,-68300 -386,-3405 -954,-6991 -1328,-10783 -374,-3780 -568,-7946 -568,-12293 0,-4347 375,-8513 942,-12112 761,-3586 1703,-6810 3031,-9262 2270,-3791 3973,-7197 5108,-10783 1329,-3405 2645,-6630 4347,-9274 1896,-2838 4167,-5301 6811,-7378 2838,-2271 6630,-3973 11544,-4915 14563,-2657 30081,-2838 46346,-954 16278,2089 32737,3792 49003,5301l3973 0c7752,761 15143,1703 22134,2645 7004,1135 13247,4733 18355,10976 3973,5108 6243,10409 6437,15699 181,5301 0,10783 -568,16652 -568,13247 -1135,26481 -1896,39535 -567,13247 -1135,26301 -1702,39548 -1329,26288 -2838,52589 -4734,78503 -1884,25926 -2645,52034 -2270,78322 386,10977 760,21954 954,32544 181,10602 -2089,21192 -6630,31783 9649,7378 19297,10602 28764,9841l21748 0 0 130537 -21748 0c-7378,-374 -14575,-2463 -21567,-6050 -7004,-3598 -13440,-8332 -19115,-14007 -5857,-5857 -10977,-12293 -15518,-19297 -4347,-7185 -7945,-14563 -10590,-22135 -5482,6811 -10977,12305 -16084,16085 -3780,2645 -7185,6050 -10591,9842l-10022 12667c-3406,3792 -6811,7378 -10035,10602 -3212,3406 -7378,5857 -12100,7946 -6243,2451 -12486,3973 -18729,4154 -6243,193 -12486,-181 -19116,-942l-5675 0c-2077,0 -4348,-193 -6811,-567l-37640 1702 -18922 0zm63940 -794198c-749,-10977 2464,-19297 9649,-24972 7378,-5676 16277,-9842 26868,-12112 10783,-2464 21567,-3780 32350,-4166 10784,-375 19490,-749 25733,-1135 5108,0 10397,386 15892,1328 5289,942 10409,2644 15130,5108 4734,2270 8707,5482 11919,9274 3224,3973 5301,8513 6062,13996 1509,9274 2644,19864 3212,31976 568,12293 -374,23076 -3031,32531 -3019,10035 -8888,17594 -17401,22896 -8706,5482 -18162,9455 -28945,12292 -10602,2657 -21567,4360 -33111,5108 -11351,761 -21374,1329 -29706,1703 -12486,761 -21374,-2270 -26289,-8888 -4927,-6617 -7945,-14756 -8899,-24779 -942,-9841 -749,-20431 193,-31408 942,-10977 1135,-20625 374,-28752zm3792 198257c-2464,-9649 -3599,-19297 -3599,-28945 194,-9649 0,-17401 -374,-23270 -386,-3587 0,-7378 1316,-11532 1329,-3973 3224,-7765 6062,-11738 2838,-3779 6424,-7185 10965,-10022 4359,-3031 9467,-4734 14949,-5483 11919,-1521 24598,-3224 38026,-4927 13428,-1883 26108,-2837 38026,-2837 5108,0 9649,954 13247,3031 3780,1895 6618,4540 8707,7571 2077,3212 3405,6424 3973,9829 567,3599 942,7004 1316,10216 -749,7946 -1135,16459 -1135,25359 0,9081 193,17594 567,26108 2838,3586 4360,7559 4734,11725 374,4166 193,8320 -374,12293 -568,3973 -1896,7946 -3973,11737 -2270,3780 -6062,7185 -11545,10216 -4359,2077 -10034,3780 -16845,5108 -6811,1329 -13996,2077 -21567,2464 -7559,374 -14756,567 -21748,567 -7197,0 -13054,-193 -17594,-567 -13054,-387 -22702,-4166 -29332,-11545 -6617,-7197 -11351,-15710 -13802,-25358zm14370 -98187l1135 0 -1135 0zm1135 0l567 0 -567 0zm567 0l568 0 -568 0zm568 0c761,0 1135,-181 1522,-374 374,-193 941,-193 1702,-193 -761,0 -1328,0 -1702,193 -387,193 -761,374 -1522,374zm3224 -567l1135 0 -1135 0zm1135 0l568 0 -568 0zm568 0l2838 0 -2838 0zm2838 0l567 0 -567 0zm19478 137927l567 0 -567 0zm567 0l1135 0 -1135 0zm1135 0l1135 0 -1135 0zm1135 0l1703 0 -1703 0zm1703 0c761,0 1135,181 1135,567 0,-386 -374,-567 -1135,-567zm1135 567l1135 0 -1135 0zm1135 0l1135 0 -1135 0zm46165 69048l1703 0 -1703 0zm2270 0l568 0 -568 0z"/>
  </g>
  <g>
   <path id="7" class="fil0 str0" d="M3388599 896285l0 -120321 29887 0c1896,-760 3792,-1135 5676,-1135l6062 0c17400,1135 34620,2270 52021,3599 17401,1316 34814,2451 52215,3586 20625,-3973 41431,-6050 62624,-6050 20999,0 41805,0 62624,0 19103,9455 38593,13815 58458,13247 19671,-567 39342,-4166 59025,-10783 12486,-761 19478,-3224 20806,-7197 1135,-4154 -2838,-8888 -12486,-14189 -2644,-1510 -5869,-3019 -9455,-4541 -3792,-1702 -7378,-3779 -11170,-6243 -3586,-2644 -6811,-5482 -9648,-8513 -2838,-3019 -4915,-6243 -6425,-9455 -1702,-3405 -4359,-6618 -7378,-9648 -3224,-3031 -6629,-5869 -10216,-8321 -3791,-2656 -7571,-5120 -11737,-7390 -3973,-2270 -7753,-4347 -10965,-6243 -9274,-5482 -19115,-10964 -29138,-15891 -10216,-5108 -20239,-10216 -30274,-15505 -34427,-17594 -66403,-39355 -95916,-65269 -18355,-15324 -36323,-31408 -53724,-48435 -17413,-17220 -33872,-34995 -49377,-53724 -2464,-3406 -5301,-7197 -8332,-11544 -2838,-4348 -5857,-8514 -9081,-12680 -3212,-4154 -6424,-7946 -10023,-11725 -3405,-3780 -7004,-6618 -10783,-8513 -5483,-2838 -8139,-6811 -7753,-11726 375,-4927 2452,-10035 6050,-15143 6436,-8320 14382,-15324 23837,-21373 9649,-6050 18355,-11919 26108,-17969 8139,-6062 16084,-11918 23837,-17413 7752,-5482 15324,-11351 22702,-17775 3405,-3224 7004,-6436 10783,-10035 3973,-3586 7946,-6810 12293,-9829 4166,-3031 8707,-5120 13247,-6062 4541,-1135 9455,-375 14757,2089 8138,3973 15891,9648 23269,16833 7378,7378 14008,13996 19864,20239 7765,6629 14757,13814 21000,21386 6436,7559 13054,15130 20057,23076 5869,7378 12487,14189 19865,20239 7378,5868 14563,12305 21192,19115 14757,13803 27617,28945 38775,45211 10977,16266 23270,31976 36517,47481 13995,15324 27810,30467 41238,45791 13621,15131 26675,30829 39161,47481 6243,7753 12305,15698 18355,23463 5868,7946 11918,15891 18161,24212 6811,8706 13815,16459 21193,23644l22134 21385c5483,6243 12100,13622 19865,21761 7752,8320 13053,16459 15505,24211 3405,9648 2838,18355 -1316,26482 -4167,7946 -8900,15891 -14189,23837 -9842,14756 -19683,29513 -29332,43895 -9648,14563 -19478,28752 -29887,43134 -2270,-4541 -5675,-8320 -10216,-11351 -4733,-2838 -9841,-5302 -15517,-7004 -5857,-1703 -11532,-2838 -17208,-3406 -5675,-567 -10976,-1135 -15891,-1883 -9274,-1522 -17787,-2271 -25733,-2464 -7946,-193 -16652,568 -26301,2464 -3779,748 -5108,942 -4347,748 568,-181 2077,-374 4347,-748 -21748,4154 -44076,5856 -66778,5482 -22702,-374 -45211,-374 -67345,0 -21386,761 -42760,1328 -63759,1509 -21000,194 -42566,568 -64327,1329 -10590,374 -20999,567 -31022,760 -10035,182 -20057,375 -30466,375 -1884,0 -3780,-193 -5857,-375 -2089,-193 -3973,-386 -5869,-760l-3212 567 -41057 0zm282073 -622230c-2837,-14575 -2077,-24405 2464,-29513 4733,-5108 14563,-7003 29706,-5494 13053,954 25346,1328 37072,761 11918,-568 24223,-1135 37277,-1896l15505 0c6243,0 11919,761 16845,2089 5108,1509 9262,3973 12487,7753 3405,3779 4540,8887 3405,15698 -1896,11918 -2838,23837 -2838,35574 0,11533 181,23644 568,35949l0 16459c0,6050 -761,11533 -2270,16266 -1522,4734 -3973,8888 -7765,12293 -3587,3224 -9455,5108 -17208,5495 -11351,748 -23269,181 -35756,-1896 -12305,-1896 -24223,-3212 -35755,-3599 -7004,0 -12680,-1135 -17027,-3405 -4540,-2452 -8332,-5289 -11351,-8888 -3224,-3405 -5675,-7752 -7378,-12860 -1522,-5108 -3031,-10409 -3973,-15711 -2270,-10397 -4734,-21192 -7378,-32157 -2464,-10977 -4734,-21953 -6630,-32918zm107087 611072l567 0 -567 0z"/>
  </g>
  <g>
   <path id="8" class="fil0 str0" d="M4049990 1140900c-942,-5856 -1702,-11725 -2077,-17594 -374,-5857 -193,-11158 568,-15698 761,-4734 2077,-7946 3780,-9455 953,-1135 2089,-1896 3598,-2089 1509,-182 4734,-749 10023,-1703 5108,-749 9648,-2451 13247,-4722 3779,-2089 5108,-5687 3973,-10409 -3031,-10409 -5483,-20999 -7753,-31976 -2270,-10783 -4734,-21374 -7197,-31783 -749,-4915 -1703,-10783 -2838,-17787 -1135,-6992 -748,-12667 1135,-17208 1896,-4359 5495,-6810 10784,-7378 5494,-568 10035,-1328 13621,-1896 19683,-2644 39548,-4915 59412,-6810 4540,-375 9262,-1136 14189,-2077 5108,-1136 9829,-1896 14563,-2271 4540,-386 8706,181 12112,1703 3598,1316 5868,4915 7003,10397 375,2270 1136,4927 2271,8139 1135,3031 1702,6050 1883,8888 194,2656 0,5301 -748,7764 -761,2270 -2838,4154 -6243,5289 -3792,1329 -7765,2657 -12112,3792 -4166,1135 -8332,2451 -12486,3973 -9468,2838 -18923,4915 -28571,6243 -9648,1316 -19297,3780 -28571,7559 -3973,1522 -6424,4734 -7378,9649 -942,4926 -1135,10409 -568,16278 568,6049 1522,11918 3031,17594 1510,5675 2464,10216 2838,13621 761,5482 3031,9274 6811,11351 3973,1896 8706,2644 14382,2077 5856,-568 11351,-1510 16459,-2838 5289,-1316 10216,-2644 14563,-3780 9274,-2463 18162,-4733 26868,-7003 8707,-2271 17594,-4734 26675,-7004 -374,-1135 -761,-942 -942,386 -193,1510 -193,4154 181,8127 387,3985 1329,8707 2838,14575 1522,5676 3031,11545 4540,17788 1329,6991 387,12099 -3018,15324 -3599,3405 -3225,4540 1316,3779 4359,-761 3973,-1328 -1510,-1328 -5482,0 -9648,1328 -12860,3973 -24791,4540 -41250,7571 -49570,9081 -8333,1521 -16459,3031 -24598,4540 -6243,-749 -13428,-568 -21374,568 -7946,1328 -17220,3972 -27810,7945 -2838,761 -6811,1703 -11544,2657 -4915,749 -8707,1703 -11351,2270 -2838,749 -5302,749 -7572,-193 -2270,-942 -3212,-3780 -2644,-8320 0,-3599 -568,-8332 -1329,-14008zm194 -865903c0,-15891 3972,-27617 11725,-34995 7764,-7378 17413,-12305 28571,-14575 11351,-2452 23269,-3406 36130,-2838 12679,568 24030,761 34246,761 3780,0 9455,0 17027,-193 7571,-182 15142,0 22895,760 7571,761 14189,2077 19864,4166 5483,2077 8139,5108 7753,9262 -1135,14757 -1316,29332 -749,43895 568,14756 749,29320 749,44076 386,17039 0,34065 -1135,50705 -1135,16846 -2270,33679 -3587,50512 -1328,16846 -2656,33679 -3973,50706 -1328,17026 -2270,34246 -2656,51647 -1884,53543 -2645,106700 -2452,159289 182,52601 1510,105577 4154,158733l-2837 14382c-15699,4915 -31590,9649 -47481,14563 -15892,4734 -31602,9274 -47301,13815 -7945,2644 -16265,4721 -24972,6617 -8706,1896 -17220,942 -25540,-2837 -6049,-2464 -10216,-6618 -12860,-12112 -2464,-5483 -3973,-11726 -4541,-18536 -567,-6811 -567,-13815 -386,-20807 386,-7003 568,-12872 568,-17787 193,-15517 386,-30648 954,-45404 374,-14756 567,-29513 941,-44269 194,-14950 375,-29706 375,-44655 193,-14938 0,-30081 -568,-45211 -1316,-30648 -2077,-61296 -2451,-91751 -568,-30466 -954,-61114 -1135,-91762 -387,-31022 -568,-61863 -761,-92885 -193,-30841 -374,-61863 -567,-93272zm193 876880c942,1328 1509,1896 1509,1509 0,-374 -567,-942 -1509,-1509z"/>
  </g>
  <path id="9" class="fil1" d="M54956 743807c-2838,-10602 -4154,-21193 -3780,-31602 375,-10409 568,-21192 568,-32157 0,-8707 0,-17594 193,-26675 181,-9081 568,-18162 942,-26868 761,-18536 1703,-36891 3031,-55246 1316,-18162 2077,-36504 2451,-55234 0,-8706 -181,-18354 -748,-28945 -568,-10602 1135,-20057 5108,-28570 4721,-10216 11725,-16834 20999,-19865 9262,-3031 18536,-5482 27991,-7378 18355,-4166 36142,-8139 53543,-11725 17401,-3599 35575,-7197 54304,-10977 6050,-1135 13054,-3031 20999,-5482 8127,-2464 16266,-4360 24780,-5495 8320,-1135 16265,-1135 23837,-181 7571,942 13814,3780 19103,8888l0 -18923c0,-4914 -374,-10590 -1135,-17401 -748,-6617 -942,-13246 -748,-20057 181,-6811 1135,-13054 2837,-18536 1703,-5495 4722,-9842 9262,-12873 5301,-3019 11170,-4914 17220,-5856 6050,-954 12486,-1522 19104,-1522 6436,0 12872,387 19296,1135 6243,761 12112,1329 17413,1703 11532,761 22702,567 33486,-568 10964,-1135 21941,-1702 33099,-1702 9467,0 16278,3598 20251,10976 3973,7379 6424,16085 7185,26108 567,9841 374,20251 -761,31034 -1316,10590 -2077,19478 -2270,26482 -2452,36891 -4541,74542 -6243,112749 -1703,35007 -3973,69809 -6811,104056 -2838,34246 -4154,68867 -3780,103862 0,11544 3780,20818 11351,28196 7572,7378 16834,10965 28004,10590l32725 0 0 130537 -47675 0c-13054,-374 -24405,-193 -34621,761 -10022,942 -19490,942 -28184,-193 -8513,-1135 -17026,-3780 -24972,-7946 -8139,-4347 -16085,-12112 -24031,-23463 -5301,-7752 -10022,-16072 -14188,-25346 -3973,-9081 -8320,-17969 -12680,-26301 -6991,-13428 -11725,-27424 -13621,-42373 -12100,0 -24018,-193 -35756,-568 -11725,-374 -23644,-567 -35756,-567 -18342,2077 -36697,2644 -54859,1896 -18355,-954 -36710,0 -54678,2837 -10977,3212 -21760,4154 -32725,3019 -10977,-1135 -21953,-2270 -32918,-3405 -10035,-1884 -17980,-4915 -23656,-9262 -5857,-4166 -10023,-11351 -12486,-21567zm74349 -614671c387,-4733 1703,-9841 3973,-15131 2464,-5494 5301,-10602 8513,-15891 3225,-5108 6630,-10216 10216,-14950 3406,-4733 6630,-9274 9468,-13246 2451,-3780 5108,-7560 7945,-11351 2838,-3973 6618,-6244 11919,-6992 5108,-387 9829,374 14563,2270 4540,1884 8513,4154 11737,7185l0 567 0 -567c9081,6617 18162,13054 27617,19104 9274,6061 18730,12305 28004,18548 4540,3018 9455,7378 14756,13053 5108,5676 8888,11532 11158,17401l0 -567c0,-3973 942,-8514 2838,-13247 -375,-375 -761,-749 -942,-1135 -194,-375 -387,-749 -761,-1135 761,-1317 2463,-4722 5301,-9649 2838,-4915 5676,-10216 8513,-15505 2838,-5301 5289,-10216 7378,-14756 1884,-4360 2452,-7004 1317,-7765 -1317,-1135 -1510,-2270 -749,-3780 942,-1509 2077,-2837 3586,-4166 1522,-1316 3225,-2451 5302,-3586l4166 -2270c3019,-761 6050,-568 9081,374 3018,942 5675,2270 8126,4166 -748,-386 -1316,-954 -2077,-1702l-1509 -1703c749,374 1884,1509 3586,3405 387,568 387,942 194,749 -194,-181 -194,-374 -194,-749 6811,6243 13247,12486 19297,18729 6062,6243 12486,12668 19297,18911 2270,2089 5108,4927 8332,7945 3212,3225 6243,6437 8888,10035 2644,3587 4540,7185 5675,11158 942,3780 375,7946 -1509,12486 -3792,8320 -7946,17027 -12486,25733 -4541,8695 -9274,16459 -14008,23451 -1703,3031 -3973,4927 -6617,5676 -2645,567 -5483,760 -8320,193 -2838,-568 -5869,-1510 -8707,-2838 -2838,-1135 -5482,-2463 -7752,-3598 -7946,-4348 -15143,-9456 -21954,-15506 -6811,-5868 -14189,-11544 -22134,-17219 -3213,-1703 -6243,-5108 -8888,-9842 374,2464 0,5108 -1135,7765 -1510,4347 -3031,9455 -4541,15130 -1509,5869 -3405,11351 -5868,17027 -2452,5482 -5108,10590 -8127,15517 -3031,4722 -6436,8888 -10216,12100 -2463,2656 -6436,4540 -11351,5494 -5108,1135 -10409,1703 -15892,1703 -5301,0 -10602,-387 -15710,-1135 -5289,-761 -9455,-1522 -12667,-2657 -10784,-3780 -21012,-8694 -30660,-14937 -9648,-6437 -19104,-12680 -28378,-18923 -9648,-5869 -14937,-13053 -16265,-21374 -1329,-8332 -1703,-17594 -1329,-28003zm63192 580992c0,5483 -5676,7753 -16834,7004 -11351,-761 -14007,-1135 -7764,-761 19864,761 39173,1510 58083,2077 18923,568 38026,1522 57142,2838 11918,1522 21567,2657 28945,3224 7185,749 14756,2270 22316,4347 -2271,-18729 -4722,-37458 -7378,-55620 -2645,-18355 -4915,-36709 -6811,-55245 -2645,-21374 -5289,-42567 -7753,-63759 -2463,-21000 -4166,-42180 -5301,-63747 -748,748 -1509,1509 -2451,2077 -954,567 -2089,1135 -3224,1895 -10397,5857 -21748,11352 -33860,16073 -12293,4734 -24031,9648 -35188,14382 -16459,6243 -27050,15131 -31409,26675 -4540,11351 -6992,25166 -7378,41057 -761,11725 -761,23451 -193,35188 579,11532 954,23270 1328,35188 0,8127 -374,15892 -1135,23451 -761,7572 -1135,15517 -1135,23656zm10216 -653071c760,374 2270,1703 4926,3973 -386,-374 -1135,-942 -2270,-1896 -954,-942 -1896,-1703 -2656,-2077z"/>
  <path id="10" class="fil1" d="M551383 896285l0 -130537 18161 0c11919,568 22328,2271 31409,5108 8888,2838 18355,4541 27810,5108 4734,375 9455,375 13814,-193 4348,-374 9262,-942 14370,-1703 0,-1316 -374,-2644 -1135,-3972 -748,-1317 -1509,-2645 -2270,-3780 -5482,-19864 -11532,-39354 -18343,-58651 -6810,-19297 -12486,-39161 -16845,-59786 -4915,-21000 -10216,-41432 -16073,-61670 -5868,-20239 -10035,-41057 -12679,-62431 -761,-5482 -2077,-12112 -3780,-19490 -1896,-7559 -3031,-14937 -3598,-22316 -568,-7378 193,-14007 2463,-19864 2077,-6062 6811,-10035 13803,-12305 7764,-2077 15891,-2451 24791,-1135 8887,1521 17026,1896 24779,1135 19490,-1884 38593,-4915 57323,-9081 7378,-1884 15323,-3779 23462,-6050 8320,-2077 16085,-1135 23463,2838 4541,2077 7753,5108 10023,8888 2270,3791 3598,8139 4347,12872 761,4722 1135,9262 1135,13996l0 13995c0,1896 193,6630 568,13815 386,7378 761,16266 1328,26675 568,10590 1135,21941 1703,34246 567,12293 1135,24405 1896,35937 1509,7571 3212,13440 5108,17981 0,-4927 181,-7572 567,-8333 749,-8126 1703,-15891 3019,-22883 1328,-7004 3224,-14382 5869,-21760 8139,-24598 20238,-47674 36323,-69241 16085,-21567 33860,-40490 53543,-56755 10023,-8321 19865,-16459 29694,-24780 9842,-8138 20625,-15323 32544,-21385 10409,-6243 21373,-10965 33292,-14370 11738,-3406 23463,-6811 35007,-10409 23270,-7185 47856,-12293 73589,-15518 25914,-3212 51273,-6049 76438,-8126 11351,-761 22702,-761 34053,-194 11351,375 22316,2077 32725,4915 10409,2657 20432,6811 29887,12305 9648,5482 18162,12486 25733,21000 17027,19477 31409,39728 43327,60534 11726,21000 20432,43895 26108,68481 4347,19864 7559,40489 9455,61863 1896,21567 2077,42567 567,63192 -1702,18729 -2644,37084 -2837,55052 0,17981 760,36323 2463,54872 568,7945 568,15891 0,23644 6424,-1136 12860,-1896 18910,-2271l14576 0 0 130537 -17220 0c-12680,-760 -23837,-6436 -33486,-16833 -9455,-10409 -17220,-22328 -22895,-35756 -6617,9081 -13235,17775 -19671,26108 -6436,8126 -15324,14756 -26482,19477 -9648,4734 -19116,7197 -28377,7765 -9275,568 -18730,1135 -28197,1509 -36130,1896 -72260,2838 -108777,2838l-106325 0c-18162,0 -37084,761 -56562,2077 -19683,1329 -38980,954 -58084,-942 -10022,-760 -20432,-1509 -31408,-2270 -11158,-761 -20806,-4166 -29320,-10023 -8706,-5494 -15517,-12305 -20432,-20625 -5108,-8139 -10215,-16652 -15323,-25346 -1510,-2657 -3406,-6437 -5676,-11351 -2270,-4927 -4734,-9649 -7571,-14189 -2645,-4541 -5857,-8139 -9262,-10977 -3599,-2644 -7197,-3212 -10784,-1702 -3031,1509 -5675,4347 -8139,8320 -2270,3791 -4347,8139 -6050,12679 -1521,4540 -3224,9081 -4733,13814 -1329,4722 -2657,8695 -3792,11726 -3973,11158 -9648,19490 -16459,25165 -6992,5676 -14937,9830 -23837,12486 -8888,2452 -18162,3973 -28185,4348 -9841,374 -19671,567 -29138,567 -6617,375 -13054,375 -19297,0 -6243,-374 -12860,-761 -19864,-1135l-31022 2270 -15517 0zm289644 -183319c-567,5676 -1135,12112 -1509,19104 -374,7197 568,13246 2645,18548 2270,4914 5108,8694 8332,11157 3405,2645 6991,4541 11158,5676 3972,1135 8513,1703 13246,1703l13996 0c9081,0 18536,193 28184,760 9649,568 19297,568 28946,-193 8513,-1509 17026,-3973 25358,-7185 8514,-3405 17027,-5675 25540,-6810 19671,-2089 38968,-3225 57697,-3225 18923,0 38219,-2270 57697,-6617 8139,1509 17220,3212 27255,5108 10023,1896 19478,1509 28184,-942 8888,-2657 16266,-6811 22328,-12872 6050,-5857 9081,-14189 9081,-24780 748,-25165 -1896,-50512 -7765,-75870 -5856,-25540 -15505,-48810 -28945,-69809 -6243,-10397 -13621,-20239 -22134,-29513 -8514,-9455 -16834,-19104 -24973,-29126 -6243,-7765 -13247,-15143 -21192,-22135 -7753,-7004 -16266,-12486 -25540,-16652 -9830,-4347 -20432,-6617 -31216,-6617 -10964,0 -21941,1509 -32724,4721 -10977,3224 -21567,7378 -31783,12486 -10023,4927 -19490,10216 -28004,15892 -8513,6062 -17026,12486 -25539,19683 -8514,6992 -16073,14937 -22702,23451 -5857,8706 -10965,17787 -15324,27629 -4154,9648 -7946,19296 -11351,28558 -6243,19116 -11726,38594 -16073,58458 -4540,19864 -8706,39548 -12873,59412z"/>
  <path id="11" class="fil1" d="M1390611 896285l0 -125803 22328 0c12099,0 23269,749 33099,2270 10035,1316 17026,2645 21192,3780 5108,761 10023,1135 14382,1135l14370 0c7379,374 14757,374 21954,0 7185,-374 14370,-1328 21941,-2838 -9648,-7752 -18536,-16085 -26675,-24779 -7752,-7571 -15324,-15517 -22509,-23837 -7197,-8513 -13440,-17594 -18548,-27255 -3586,-6617 -6243,-14188 -7752,-22509 -1510,-8320 -2838,-16265 -3780,-24030 -4540,-20432 -6811,-40864 -7004,-61477 -193,-20818 193,-41250 1329,-61682 748,-16833 3405,-32725 7752,-47481 4540,-14949 10409,-29513 17787,-43895 6243,-13621 13803,-26107 22702,-37072 8888,-11169 20432,-20431 34428,-27810 16266,-8513 33860,-15710 52975,-21567 18923,-5868 37833,-9080 56756,-9467 16652,-374 33485,761 50512,3405 16833,2657 33111,7004 48435,13247 15324,6243 29694,14564 42941,24779 13247,10035 24598,22521 33860,37278 6629,10783 11544,22134 14575,34234 3212,11919 5675,24030 7559,36142 2838,17401 5494,34995 7378,52964 2089,17980 1329,35574 -2451,52975 -2657,13621 -7197,27049 -14189,40490 -6811,13234 -13621,25721 -20625,37072 -9648,15142 -19864,29899 -30841,44281 -10965,14563 -22509,27991 -34621,40477l-6617 6630c-2270,2270 -4541,4347 -6618,6243 6618,748 13054,1316 19672,1702 6436,181 13053,749 20238,1510 7378,374 14757,942 22328,1509 7571,568 15131,387 22509,-374 8513,-1510 17220,-2838 26107,-4166 8707,-1316 16652,-1884 23656,-1884l26675 0 0 125803 -65461 0 -942 -567c-7572,760 -15143,760 -22896,193 -7752,-386 -15130,-761 -22134,-761 -8888,0 -17787,193 -26868,568 -9081,374 -17776,-761 -26289,-3406 -18161,-5482 -36516,-11725 -55052,-18729 -18730,-7004 -36517,-15698 -53543,-26107 -2271,1896 -4541,3405 -7004,4540 -2452,942 -5108,2077 -7946,3212 -6992,3031 -13996,6062 -20613,9274 -6630,3031 -13440,6050 -20444,9081 -5108,2270 -11532,4915 -19104,8320 -7571,3224 -14563,4734 -20806,4360 -6629,0 -13247,748 -20057,1883 -6618,1329 -13247,2464 -19865,3225l-1702 0 567 941 -65836 3973 -31215 0zm88731 -749555c-386,-6243 -386,-12486 -193,-18922 193,-6424 942,-12486 2463,-17969 1510,-5675 3973,-8706 7753,-9455 12112,-2656 24405,-3031 36891,-1328 12293,1509 24598,2077 36891,1328 5108,-386 11351,-1328 18536,-2838 7197,-1328 14201,-2270 21386,-2656 7003,-374 13621,0 19864,1135 6243,954 11544,4166 15517,9274 2645,3405 4154,8513 4915,15324 761,6811 1509,13814 2077,20999 567,7185 1521,13815 3031,20058 1509,6050 4166,9829 8320,11351 6629,2451 12112,3019 16278,1316 4347,-1703 7752,-4347 10216,-8320 2644,-3780 4347,-8320 5108,-13621 748,-5108 941,-10216 567,-15517 -386,-5857 -1521,-11919 -3031,-18162 -1702,-6424 -1509,-12100 761,-17208 2644,-6243 6617,-11170 11919,-14382 5289,-3405 11157,-6050 17400,-7752 4915,-1896 9649,-3599 14382,-5301 4915,-1703 9830,-2645 14757,-3031 4915,-375 9829,193 14370,1521 4733,1510 9081,4541 13053,8888 4166,4915 7572,10216 10216,15891 2838,5676 5108,11726 6630,17969 1702,6243 3405,12679 5108,19490 1702,6617 3586,12679 5675,18161 1510,5302 3587,10591 6243,16085 2452,5676 4722,11158 6618,17027 1896,5675 3405,11532 4733,17400 1317,5869 1703,11545 1317,17220 -749,6618 -3019,11532 -6618,14563 -3779,3212 -8320,5483 -13621,6811 -5301,1135 -10977,1896 -16833,1896 -5869,0 -11738,181 -17220,567 -2645,375 -6811,942 -12679,1510 -6050,761 -12100,1328 -18730,1509 -6424,194 -12486,-181 -18161,-1135 -5857,-942 -9262,-2838 -10216,-5856 -1135,-1896 -1135,-3599 0,-5302 954,-1509 954,-3212 0,-4733 -1510,-1703 -3587,-3212 -5857,-4154 -2463,-761 -4540,-1703 -6436,-2464 -5483,-2463 -10977,-4733 -16266,-6617 -5494,-1896 -11170,-2463 -17594,-1703 -4734,375 -10035,1884 -15710,4154 -5676,2464 -9649,6062 -11919,10784 -1884,3405 -3019,6436 -3405,9274 -375,2644 -2452,5108 -6618,6810 -11725,6050 -24779,9274 -38787,10023 -13995,761 -27242,954 -39921,568 -11351,0 -22316,-1135 -32725,-3587 -10216,-2463 -18162,-9274 -23837,-20818 -2464,-4347 -4166,-9830 -4915,-16266 -761,-6436 -1135,-13054 -1328,-19490 -194,-6424 -194,-12860 193,-19297 374,-6617 374,-12486 0,-18161 0,-2452 -193,-6811 -568,-12861zm50512 408638c-1135,10783 -1521,21386 -1135,32169 375,10784 2077,21181 4915,31590 4166,14382 10023,29319 17787,44643 7753,15324 17208,28197 28185,38594 6810,6255 13621,12305 20625,17980 7004,5676 14382,11158 22134,16266 6618,-3973 13247,-7946 19671,-11919 6437,-3779 12487,-8513 17981,-13995 11919,-11170 22509,-24598 32157,-40490 9649,-15891 16266,-31408 20058,-46539 2838,-10023 4347,-20057 4347,-30080l0 -31022c0,-8514 -374,-17027 -1135,-25359 -761,-8513 -3031,-16640 -7185,-24405 -2270,-5289 -5108,-10964 -8900,-17026 -3586,-6050 -8694,-10023 -14937,-11919 -17788,-3586 -36142,-5857 -55439,-6617 -17401,-761 -33860,1328 -49377,6436 -15517,4915 -28571,14937 -39355,30080 -4347,6424 -6991,13054 -7945,20046 -942,7004 -1703,14189 -2452,21567zm1703 -463316l374 0 -374 0zm374 0l568 0 -568 0zm568 0l1135 -567c-374,386 -761,567 -1135,567zm1135 -567l568 0 -568 0z"/>
  <path id="12" class="fil1" d="M1890250 896285l0 -130537 33304 0 0 -567 15505 0 3406 1135 567 0c3973,0 6811,193 8332,374 1317,193 2452,193 3212,193 568,0 1329,-193 2271,-760 942,-568 2644,-1703 5301,-3212 3586,-1703 6243,-4734 7946,-9081 1509,-4166 2451,-8707 2451,-13247 0,-4722 -568,-9455 -1703,-14370 -1135,-5108 -1884,-9274 -2270,-12486 -1703,-10409 -2838,-20625 -3019,-30841 -193,-10216 -567,-20058 -1328,-29706l-3973 -52022c-1328,-17413 -2838,-34814 -4347,-52215 -1896,-19115 -3792,-38219 -5495,-57322 -1883,-18923 -3019,-38026 -3212,-57323 0,-19490 -1328,-38980 -3973,-58277 -2463,-19103 -4733,-38593 -6617,-58083 -1328,-17401 -3031,-34428 -4927,-51261 -1884,-16845 -3780,-33872 -5482,-51273 -761,-5482 -942,-10783 -374,-15891 567,-4915 1883,-9456 4153,-13428 2271,-4166 5302,-7572 9081,-10035 3973,-2645 8514,-3973 13622,-3973 8899,386 17787,567 26675,567l27061 0c10023,387 20045,761 30261,954 10409,182 20432,-193 30467,-954 8127,-374 16640,-941 25733,-1702 9081,-568 17401,386 24972,3405 4722,2270 8127,5301 10397,9081 2089,3973 3599,8139 4166,12486 568,4541 568,9274 194,14382 -387,5301 -568,10023 -568,14563 0,9081 -193,18548 -761,28004 -567,9274 -1328,18729 -1896,27810 -1883,17787 -2837,35562 -2837,53543 0,17968 -375,35949 -1135,54110 -1136,38401 -2645,76801 -4541,115213 -2077,38401 -3779,77187 -5675,116348 -1135,17401 -2271,34995 -3587,52396 -1328,17595 -2656,35201 -4166,52976 -942,10783 -1896,20999 -2644,30841 -761,9842 -2838,20239 -6062,30841 -2838,9262 -6992,17775 -12100,25347 -5120,7752 -10409,15323 -15904,23076 -5108,7765 -10397,15517 -15891,23270 -5482,7945 -11919,14575 -19297,19864 -9081,5494 -18162,8706 -27423,9842 -9081,1135 -18549,1509 -28571,1135 -2077,0 -2838,0 -2077,0 748,0 1702,0 3019,193 1328,181 1895,374 2089,374 181,193 -954,193 -3406,193l-21385 2077 -21374 3406 -14563 0 -1522 567 -30080 0z"/>
  <path id="13" class="fil1" d="M2217353 279912c0,-17027 3973,-29513 11919,-37459 8139,-7945 17787,-13234 29512,-16072 11545,-2657 24031,-3792 37084,-3031 13235,761 24973,1135 35189,1135 3779,0 9262,0 16459,-193 7378,-181 14563,0 21941,760 7197,761 13440,2077 18729,4167 5301,2077 7765,5289 7378,9648 -1135,15891 -1316,31783 -748,47481 567,15698 748,31409 748,47300 387,18162 0,36323 -942,54678 -941,18343 -2077,36505 -3212,54666 -1135,17981 -2270,36143 -3598,54485 -1329,18355 -2077,36517 -2464,54679 -1883,57129 -2644,114078 -2451,170652 181,56562 1509,113510 4154,170640l-2838 16084c-16084,4915 -31783,9830 -47300,14757 -15505,4914 -31215,9829 -47107,14756 -8320,2838 -16833,5289 -25539,7378 -8695,2077 -17208,942 -25540,-3031 -6243,-2644 -10591,-7004 -13054,-13054 -2644,-6049 -3973,-12679 -4347,-19864 -374,-7185 -193,-14563 374,-21941 761,-7378 1135,-13815 1522,-19490 374,-16085 942,-32157 2077,-48049 942,-15891 1702,-31976 2463,-48061 568,-16072 942,-32157 942,-48242 0,-16072 -568,-32157 -1896,-48435 -2644,-32918 -4540,-65643 -5482,-98186 -942,-32532 -1510,-65269 -2077,-98561 -387,-33679 -761,-66971 -1135,-99696 -387,-32918 -568,-66222 -761,-99901z"/>
  <path id="14" class="fil1" d="M2637728 997684c1509,761 3780,-374 7185,-3019 3405,-2838 5675,-4540 7185,-5301 4166,-1896 7946,-3406 11351,-4347 3598,-1136 7378,-2089 11351,-2838l35007 -9467c1509,0 2451,-182 3212,-568l11158 -3212c13621,-3780 27061,-8513 39922,-14189 12860,-5675 25733,-11918 38219,-18536 31783,-16652 56755,-38412 75110,-65462 18343,-27049 31215,-57322 38594,-91001 2451,-13235 2837,-26856 1135,-40671 -1896,-13814 -3599,-27810 -5108,-41817 -1703,-20239 -4166,-40671 -6811,-60910 -2838,-20431 -5301,-40863 -7571,-61488 -1329,-16266 -3406,-32725 -5676,-49184 -2463,-16459 -3598,-32737 -3598,-49003 0,-5482 -375,-11544 -1136,-17787 -748,-6243 -748,-12100 194,-17594 942,-5676 3212,-10216 6617,-13996 3599,-3598 9467,-5482 17413,-5482 17401,-387 34621,-1135 52022,-2464 17219,-1328 34814,-2077 52408,-2463 6617,0 14563,-181 23450,-374 9081,-194 17788,760 26301,2837 8513,2077 15517,5302 20999,10023 5483,4541 7946,11738 7185,21760 -1135,12293 -1702,24405 -1702,36698 0,12112 -749,24405 -2077,36517 -1896,20625 -4734,41238 -8320,61863 -3792,20432 -7004,41057 -10035,61670 -2077,17026 -4154,34053 -6050,51079 -1896,17039 -3973,33872 -6617,50899 5856,7004 12860,13247 20806,18355 7946,5108 16084,7752 24598,7752l27810 -567 0 120888 -28378 0c-11737,-374 -22702,-4347 -32543,-12293 -10023,-7764 -18355,-16845 -24973,-27061 -761,6629 -1702,13247 -3031,19683 -1316,6424 -3212,13054 -5856,19671 -8139,19490 -17027,38968 -27062,58084 -10022,19297 -21180,37639 -33666,55233 -12487,17595 -26301,33872 -41251,49003 -14937,15131 -31396,28945 -49558,41057 -14007,8888 -28196,17594 -42953,26107 -14563,8514 -28751,17595 -42940,27617 -8139,5495 -17027,10216 -27062,14189 -10022,3792 -20238,7004 -30454,9648 -4915,1522 -10023,2090 -15517,1896 -5676,-193 -10965,0 -16073,375l-1703 0c-8899,760 -15891,-1510 -20818,-6992 -4915,-5301 -9081,-11919 -12100,-19683 -3224,-7753 -5675,-15892 -7571,-24586 -1896,-8707 -3599,-16278 -4915,-22521 -3031,-10216 -5108,-20806 -6436,-31590 -1328,-10602 -3212,-21192 -5869,-31602 -374,-1883 -1135,-3018 -2451,-3779 -1328,-761 -2089,-2077 -2464,-3973 -760,-3212 -1509,-6436 -1895,-9648 -568,-3213 -1317,-6050 -2077,-8514 -375,-2270 -761,-5675 -1135,-10409 -375,-4540 -1510,-7378 -3780,-8513z"/>
  <path id="15" class="fil1" d="M3136606 896285l0 -130537 12860 0 13815 568c8513,374 16459,193 23837,-568 7378,-760 12679,-5301 15892,-13621 1509,-3780 2270,-7946 2463,-12679 181,-4722 0,-9649 -761,-14938 -761,-5108 -1702,-10035 -2838,-14949 -1135,-4927 -1895,-9468 -2270,-13440 375,-12487 0,-25154 -942,-37833 -1135,-12861 -2270,-25733 -3598,-38401 -2077,-23462 -4347,-46539 -6811,-69434 -2463,-22895 -4733,-45597 -7185,-68300 -386,-3405 -954,-6991 -1328,-10783 -374,-3780 -568,-7946 -568,-12293 0,-4347 375,-8513 942,-12112 761,-3586 1703,-6810 3031,-9262 2270,-3791 3973,-7197 5108,-10783 1329,-3405 2645,-6630 4347,-9274 1896,-2838 4167,-5301 6811,-7378 2838,-2271 6630,-3973 11544,-4915 14563,-2657 30081,-2838 46346,-954 16278,2089 32737,3792 49003,5301l3973 0c7752,761 15143,1703 22134,2645 7004,1135 13247,4733 18355,10976 3973,5108 6243,10409 6437,15699 181,5301 0,10783 -568,16652 -568,13247 -1135,26481 -1896,39535 -567,13247 -1135,26301 -1702,39548 -1329,26288 -2838,52589 -4734,78503 -1884,25926 -2645,52034 -2270,78322 386,10977 760,21954 954,32544 181,10602 -2089,21192 -6630,31783 9649,7378 19297,10602 28764,9841l21748 0 0 130537 -21748 0c-7378,-374 -14575,-2463 -21567,-6050 -7004,-3598 -13440,-8332 -19115,-14007 -5857,-5857 -10977,-12293 -15518,-19297 -4347,-7185 -7945,-14563 -10590,-22135 -5482,6811 -10977,12305 -16084,16085 -3780,2645 -7185,6050 -10591,9842l-10022 12667c-3406,3792 -6811,7378 -10035,10602 -3212,3406 -7378,5857 -12100,7946 -6243,2451 -12486,3973 -18729,4154 -6243,193 -12486,-181 -19116,-942l-5675 0c-2077,0 -4348,-193 -6811,-567l-37640 1702 -18922 0zm63940 -794198c-749,-10977 2464,-19297 9649,-24972 7378,-5676 16277,-9842 26868,-12112 10783,-2464 21567,-3780 32350,-4166 10784,-375 19490,-749 25733,-1135 5108,0 10397,386 15892,1328 5289,942 10409,2644 15130,5108 4734,2270 8707,5482 11919,9274 3224,3973 5301,8513 6062,13996 1509,9274 2644,19864 3212,31976 568,12293 -374,23076 -3031,32531 -3019,10035 -8888,17594 -17401,22896 -8706,5482 -18162,9455 -28945,12292 -10602,2657 -21567,4360 -33111,5108 -11351,761 -21374,1329 -29706,1703 -12486,761 -21374,-2270 -26289,-8888 -4927,-6617 -7945,-14756 -8899,-24779 -942,-9841 -749,-20431 193,-31408 942,-10977 1135,-20625 374,-28752zm3792 198257c-2464,-9649 -3599,-19297 -3599,-28945 194,-9649 0,-17401 -374,-23270 -386,-3587 0,-7378 1316,-11532 1329,-3973 3224,-7765 6062,-11738 2838,-3779 6424,-7185 10965,-10022 4359,-3031 9467,-4734 14949,-5483 11919,-1521 24598,-3224 38026,-4927 13428,-1883 26108,-2837 38026,-2837 5108,0 9649,954 13247,3031 3780,1895 6618,4540 8707,7571 2077,3212 3405,6424 3973,9829 567,3599 942,7004 1316,10216 -749,7946 -1135,16459 -1135,25359 0,9081 193,17594 567,26108 2838,3586 4360,7559 4734,11725 374,4166 193,8320 -374,12293 -568,3973 -1896,7946 -3973,11737 -2270,3780 -6062,7185 -11545,10216 -4359,2077 -10034,3780 -16845,5108 -6811,1329 -13996,2077 -21567,2464 -7559,374 -14756,567 -21748,567 -7197,0 -13054,-193 -17594,-567 -13054,-387 -22702,-4166 -29332,-11545 -6617,-7197 -11351,-15710 -13802,-25358zm14370 -98187l1135 0 -1135 0zm1135 0l567 0 -567 0zm567 0l568 0 -568 0zm568 0c761,0 1135,-181 1522,-374 374,-193 941,-193 1702,-193 -761,0 -1328,0 -1702,193 -387,193 -761,374 -1522,374zm3224 -567l1135 0 -1135 0zm1135 0l568 0 -568 0zm568 0l2838 0 -2838 0zm2838 0l567 0 -567 0zm19478 137927l567 0 -567 0zm567 0l1135 0 -1135 0zm1135 0l1135 0 -1135 0zm1135 0l1703 0 -1703 0zm1703 0c761,0 1135,181 1135,567 0,-386 -374,-567 -1135,-567zm1135 567l1135 0 -1135 0zm1135 0l1135 0 -1135 0zm46165 69048l1703 0 -1703 0zm2270 0l568 0 -568 0z"/>
  <path id="16" class="fil1" d="M3388599 896285l0 -120321 29887 0c1896,-760 3792,-1135 5676,-1135l6062 0c17400,1135 34620,2270 52021,3599 17401,1316 34814,2451 52215,3586 20625,-3973 41431,-6050 62624,-6050 20999,0 41805,0 62624,0 19103,9455 38593,13815 58458,13247 19671,-567 39342,-4166 59025,-10783 12486,-761 19478,-3224 20806,-7197 1135,-4154 -2838,-8888 -12486,-14189 -2644,-1510 -5869,-3019 -9455,-4541 -3792,-1702 -7378,-3779 -11170,-6243 -3586,-2644 -6811,-5482 -9648,-8513 -2838,-3019 -4915,-6243 -6425,-9455 -1702,-3405 -4359,-6618 -7378,-9648 -3224,-3031 -6629,-5869 -10216,-8321 -3791,-2656 -7571,-5120 -11737,-7390 -3973,-2270 -7753,-4347 -10965,-6243 -9274,-5482 -19115,-10964 -29138,-15891 -10216,-5108 -20239,-10216 -30274,-15505 -34427,-17594 -66403,-39355 -95916,-65269 -18355,-15324 -36323,-31408 -53724,-48435 -17413,-17220 -33872,-34995 -49377,-53724 -2464,-3406 -5301,-7197 -8332,-11544 -2838,-4348 -5857,-8514 -9081,-12680 -3212,-4154 -6424,-7946 -10023,-11725 -3405,-3780 -7004,-6618 -10783,-8513 -5483,-2838 -8139,-6811 -7753,-11726 375,-4927 2452,-10035 6050,-15143 6436,-8320 14382,-15324 23837,-21373 9649,-6050 18355,-11919 26108,-17969 8139,-6062 16084,-11918 23837,-17413 7752,-5482 15324,-11351 22702,-17775 3405,-3224 7004,-6436 10783,-10035 3973,-3586 7946,-6810 12293,-9829 4166,-3031 8707,-5120 13247,-6062 4541,-1135 9455,-375 14757,2089 8138,3973 15891,9648 23269,16833 7378,7378 14008,13996 19864,20239 7765,6629 14757,13814 21000,21386 6436,7559 13054,15130 20057,23076 5869,7378 12487,14189 19865,20239 7378,5868 14563,12305 21192,19115 14757,13803 27617,28945 38775,45211 10977,16266 23270,31976 36517,47481 13995,15324 27810,30467 41238,45791 13621,15131 26675,30829 39161,47481 6243,7753 12305,15698 18355,23463 5868,7946 11918,15891 18161,24212 6811,8706 13815,16459 21193,23644l22134 21385c5483,6243 12100,13622 19865,21761 7752,8320 13053,16459 15505,24211 3405,9648 2838,18355 -1316,26482 -4167,7946 -8900,15891 -14189,23837 -9842,14756 -19683,29513 -29332,43895 -9648,14563 -19478,28752 -29887,43134 -2270,-4541 -5675,-8320 -10216,-11351 -4733,-2838 -9841,-5302 -15517,-7004 -5857,-1703 -11532,-2838 -17208,-3406 -5675,-567 -10976,-1135 -15891,-1883 -9274,-1522 -17787,-2271 -25733,-2464 -7946,-193 -16652,568 -26301,2464 -3779,748 -5108,942 -4347,748 568,-181 2077,-374 4347,-748 -21748,4154 -44076,5856 -66778,5482 -22702,-374 -45211,-374 -67345,0 -21386,761 -42760,1328 -63759,1509 -21000,194 -42566,568 -64327,1329 -10590,374 -20999,567 -31022,760 -10035,182 -20057,375 -30466,375 -1884,0 -3780,-193 -5857,-375 -2089,-193 -3973,-386 -5869,-760l-3212 567 -41057 0zm282073 -622230c-2837,-14575 -2077,-24405 2464,-29513 4733,-5108 14563,-7003 29706,-5494 13053,954 25346,1328 37072,761 11918,-568 24223,-1135 37277,-1896l15505 0c6243,0 11919,761 16845,2089 5108,1509 9262,3973 12487,7753 3405,3779 4540,8887 3405,15698 -1896,11918 -2838,23837 -2838,35574 0,11533 181,23644 568,35949l0 16459c0,6050 -761,11533 -2270,16266 -1522,4734 -3973,8888 -7765,12293 -3587,3224 -9455,5108 -17208,5495 -11351,748 -23269,181 -35756,-1896 -12305,-1896 -24223,-3212 -35755,-3599 -7004,0 -12680,-1135 -17027,-3405 -4540,-2452 -8332,-5289 -11351,-8888 -3224,-3405 -5675,-7752 -7378,-12860 -1522,-5108 -3031,-10409 -3973,-15711 -2270,-10397 -4734,-21192 -7378,-32157 -2464,-10977 -4734,-21953 -6630,-32918zm107087 611072l567 0 -567 0z"/>
  <path id="17" class="fil1" d="M4049990 1140900c-942,-5856 -1702,-11725 -2077,-17594 -374,-5857 -193,-11158 568,-15698 761,-4734 2077,-7946 3780,-9455 953,-1135 2089,-1896 3598,-2089 1509,-182 4734,-749 10023,-1703 5108,-749 9648,-2451 13247,-4722 3779,-2089 5108,-5687 3973,-10409 -3031,-10409 -5483,-20999 -7753,-31976 -2270,-10783 -4734,-21374 -7197,-31783 -749,-4915 -1703,-10783 -2838,-17787 -1135,-6992 -748,-12667 1135,-17208 1896,-4359 5495,-6810 10784,-7378 5494,-568 10035,-1328 13621,-1896 19683,-2644 39548,-4915 59412,-6810 4540,-375 9262,-1136 14189,-2077 5108,-1136 9829,-1896 14563,-2271 4540,-386 8706,181 12112,1703 3598,1316 5868,4915 7003,10397 375,2270 1136,4927 2271,8139 1135,3031 1702,6050 1883,8888 194,2656 0,5301 -748,7764 -761,2270 -2838,4154 -6243,5289 -3792,1329 -7765,2657 -12112,3792 -4166,1135 -8332,2451 -12486,3973 -9468,2838 -18923,4915 -28571,6243 -9648,1316 -19297,3780 -28571,7559 -3973,1522 -6424,4734 -7378,9649 -942,4926 -1135,10409 -568,16278 568,6049 1522,11918 3031,17594 1510,5675 2464,10216 2838,13621 761,5482 3031,9274 6811,11351 3973,1896 8706,2644 14382,2077 5856,-568 11351,-1510 16459,-2838 5289,-1316 10216,-2644 14563,-3780 9274,-2463 18162,-4733 26868,-7003 8707,-2271 17594,-4734 26675,-7004 -374,-1135 -761,-942 -942,386 -193,1510 -193,4154 181,8127 387,3985 1329,8707 2838,14575 1522,5676 3031,11545 4540,17788 1329,6991 387,12099 -3018,15324 -3599,3405 -3225,4540 1316,3779 4359,-761 3973,-1328 -1510,-1328 -5482,0 -9648,1328 -12860,3973 -24791,4540 -41250,7571 -49570,9081 -8333,1521 -16459,3031 -24598,4540 -6243,-749 -13428,-568 -21374,568 -7946,1328 -17220,3972 -27810,7945 -2838,761 -6811,1703 -11544,2657 -4915,749 -8707,1703 -11351,2270 -2838,749 -5302,749 -7572,-193 -2270,-942 -3212,-3780 -2644,-8320 0,-3599 -568,-8332 -1329,-14008zm194 -865903c0,-15891 3972,-27617 11725,-34995 7764,-7378 17413,-12305 28571,-14575 11351,-2452 23269,-3406 36130,-2838 12679,568 24030,761 34246,761 3780,0 9455,0 17027,-193 7571,-182 15142,0 22895,760 7571,761 14189,2077 19864,4166 5483,2077 8139,5108 7753,9262 -1135,14757 -1316,29332 -749,43895 568,14756 749,29320 749,44076 386,17039 0,34065 -1135,50705 -1135,16846 -2270,33679 -3587,50512 -1328,16846 -2656,33679 -3973,50706 -1328,17026 -2270,34246 -2656,51647 -1884,53543 -2645,106700 -2452,159289 182,52601 1510,105577 4154,158733l-2837 14382c-15699,4915 -31590,9649 -47481,14563 -15892,4734 -31602,9274 -47301,13815 -7945,2644 -16265,4721 -24972,6617 -8706,1896 -17220,942 -25540,-2837 -6049,-2464 -10216,-6618 -12860,-12112 -2464,-5483 -3973,-11726 -4541,-18536 -567,-6811 -567,-13815 -386,-20807 386,-7003 568,-12872 568,-17787 193,-15517 386,-30648 954,-45404 374,-14756 567,-29513 941,-44269 194,-14950 375,-29706 375,-44655 193,-14938 0,-30081 -568,-45211 -1316,-30648 -2077,-61296 -2451,-91751 -568,-30466 -954,-61114 -1135,-91762 -387,-31022 -568,-61863 -761,-92885 -193,-30841 -374,-61863 -567,-93272zm193 876880c942,1328 1509,1896 1509,1509 0,-374 -567,-942 -1509,-1509z"/>
 </g>
</svg>
