<?xml version="1.0" encoding="UTF-8"?>
<!DOCTYPE svg PUBLIC "-//W3C//DTD SVG 1.1//EN" "http://www.w3.org/Graphics/SVG/1.1/DTD/svg11.dtd">
<!-- Creator: CorelDRAW X7 -->
<svg xmlns="http://www.w3.org/2000/svg" xml:space="preserve" width="37.7775mm" height="37.9186mm" version="1.1" style="shape-rendering:geometricPrecision; text-rendering:geometricPrecision; image-rendering:optimizeQuality; fill-rule:evenodd; clip-rule:evenodd"
viewBox="0 0 2232654 2240993"
 xmlns:xlink="http://www.w3.org/1999/xlink">
 <defs>
  <style type="text/css">
   <![CDATA[
    .fil2 {fill:#FEFEFE;fill-rule:nonzero}
    .fil1 {fill:#355B3A;fill-rule:nonzero}
    .fil0 {fill:url(#id0)}
   ]]>
  </style>
  <linearGradient id="id0" gradientUnits="userSpaceOnUse" x1="924645" y1="1.89197e+006" x2="1.30803e+006" y2="343821">
   <stop offset="0" style="stop-opacity:1; stop-color:#2C9E52"/>
   <stop offset="0.988235" style="stop-opacity:1; stop-color:#8AC64B"/>
   <stop offset="1" style="stop-opacity:1; stop-color:#8AC64B"/>
  </linearGradient>
 </defs>
 <g id="Layer_x0020_1">
  <metadata id="CorelCorpID_0Corel-Layer"/>
  <path class="fil0" d="M379760 271530c119033,24414 294206,103123 405367,144830 97119,36506 264166,119264 315660,13658 51630,-105848 -80075,-153560 -36081,-280347 42310,-122184 169352,-139435 283651,-125464 132840,16271 270720,110122 221596,260845 -27724,85110 -80276,68355 -138802,110085 -57777,41158 -64550,97291 -80838,169949 186195,123690 398536,129630 611876,117237 -33723,149653 -86416,285483 -140588,425083 -12730,32789 -68514,133436 -58863,166621 10283,35460 98732,64390 131681,75542 17487,-115813 218605,-87492 277161,-20673 78426,89684 30650,259810 -30005,344896 -71156,99861 -190042,95789 -262552,-3020 -33782,-46027 -29828,-98886 -78225,-123307 -63018,-31766 -103715,8694 -132798,54810 -92415,146698 -99820,451998 -88555,613388 -282150,-61127 -1540953,-420881 -1553866,-491275 -25892,-140848 46511,-384458 92060,-522558 40318,4368 81871,2276 120322,9474 -10887,271240 465915,149777 459875,-113454 -2588,-110240 -84601,-184245 -183624,-214197 -81966,-24875 -80453,14621 -140132,24828 -45625,7925 -101563,-25064 -152667,-41872l145421 -598543 12926 3464z"/>
  <path class="fil1" d="M375717 291234c11856,2417 24373,5443 37446,8947 113549,30348 264402,97255 364908,135020 40879,15331 96126,39899 151018,54644 36536,9716 73131,15449 107090,9846 16920,-2848 33267,-8758 47634,-18841 14362,-10047 26430,-24213 35053,-42008 4379,-8960 7688,-17766 9999,-26406 7004,-25850 4569,-49945 -2009,-71009 -9964,-31677 -27511,-57888 -38705,-84873 -5650,-13469 -9905,-26974 -11631,-41365 -1714,-14408 -1028,-29845 3765,-47800 963,-3599 2092,-7305 3416,-11099l12 -35c9639,-27742 23634,-48711 40903,-65093 25874,-24456 59845,-38852 98479,-45803 38545,-6973 81374,-6276 122833,-1193 15479,1903 31063,4917 46376,9018 52711,14072 101646,41146 132242,77498 15361,18185 26282,38533 31684,61198 5372,22671 5343,47877 -2269,76429 -928,3451 -1968,6967 -3139,10531 -6300,19332 -13516,31524 -21104,40147 -5727,6489 -11803,11158 -18948,15331 -10638,6235 -23918,11028 -39555,17263 -15585,6235 -33386,14095 -51731,27174 -21536,15295 -37345,33143 -48822,52605 -11501,19456 -18765,40259 -24574,61931 -5727,21388 -10095,43740 -15384,67392l-3032 13486 11531 7660c66558,44248 136456,73863 208138,93071 134938,36122 275980,35607 416012,27499l-1164 -20076 -19627 -4427c-5065,22458 -10562,44621 -16436,66535 -32777,122331 -77339,237305 -123283,355700 -4113,10721 -15313,33427 -26755,58273 -11483,25052 -23403,52569 -29940,76800 -2051,7665 -3575,15065 -4273,22316 -632,7270 -614,14492 1566,22127 4770,15615 15467,26235 27322,35508 18014,13764 40833,24562 62582,33551 21695,8918 42345,15750 54638,19911l22753 7706 3582 -23764c425,-2908 1004,-5638 1696,-8227 3658,-13415 10242,-23102 19692,-31110 14066,-11944 35714,-19473 61068,-21672 25248,-2246 53698,763 79903,7813 34680,9113 65306,25922 79762,42777 20620,23581 31613,54260 34928,89129 3310,34798 -1336,73313 -11229,110168 -12393,46394 -33167,90205 -54928,120683 -20105,28167 -43627,46387 -68030,56092 -24426,9674 -49874,11016 -75015,4320 -30916,-8286 -61565,-29113 -86931,-63675 -14521,-19627 -21530,-42138 -31311,-65648 -4953,-11684 -10697,-23652 -19243,-34851 -8505,-11200 -19976,-21401 -34804,-28841 -8623,-4350 -17104,-7624 -25472,-9870 -15414,-4149 -30472,-4639 -44319,-1903 -20875,4060 -38374,14988 -52741,28327 -14439,13392 -26182,29372 -36371,45477 -23906,38019 -41795,84561 -55530,135665 -42694,159913 -44621,365747 -36063,489857l20065 -1407 4255 -19645c-53551,-11601 -143773,-34343 -254154,-63934 -232122,-62197 -554064,-154724 -818933,-238694 -132408,-41973 -250608,-81836 -335878,-114565 -42587,-16336 -77019,-30945 -100328,-42812 -11613,-5881 -20496,-11147 -25697,-15024 -2588,-1891 -4243,-3463 -4710,-4013l-142 -147 -7665 5608 9155 -1690c-550,-2784 -1431,-3836 -1490,-3918l-7665 5608 9155 -1690c-8068,-43586 -6058,-100535 2470,-161592 8487,-61085 23256,-126397 39697,-187761 16288,-60790 34208,-117757 49225,-163264l-19101 -6300 -2157 20006c42433,4468 83585,2535 118773,9243l3706 -19775 -20100 -816c-1880,45324 9042,82971 30153,111209 21063,28268 51464,46258 85299,55288 67427,17778 149511,3008 221330,-34556 35885,-18882 69218,-43686 96427,-73869 27198,-30147 48321,-65802 59083,-105949 5538,-20685 8309,-42510 7783,-65211 -1324,-60087 -24816,-111315 -60961,-150392 -36158,-39183 -84543,-66730 -136929,-82598 -3097,-940 -6106,-1803 -9049,-2594 -19875,-5325 -36027,-7157 -50229,-6058 -10614,786 -19976,3309 -27990,6548 -12092,4923 -20998,10821 -29993,15407 -9036,4652 -18232,8535 -32115,10940l-41 12c-11643,2080 -25975,561 -42151,-3812 -30342,-8014 -65518,-25650 -100783,-37352l-6282 19108 19544 4728 145434 -598519 -39095 -9503 -149831 616579 17653 5816c31324,10200 66855,28226 102947,38013 19355,5148 39296,8026 59443,4574l-47 18c16441,-2795 29485,-7795 39975,-12943 7878,-3877 14314,-7707 19923,-10727 8528,-4568 14721,-7293 23427,-8463 8676,-1140 20774,-597 39804,4480 2476,662 5059,1418 7783,2246 46642,14089 88775,38492 119028,71369 30247,32978 49047,73863 50330,124051 419,18830 -1868,36766 -6448,53864 -8883,33155 -26483,63243 -50088,89430 -35342,39278 -84300,69431 -134825,86464 -50495,17145 -102414,20921 -142644,10029 -27074,-7293 -48627,-20620 -63461,-40472 -14781,-19905 -23676,-47226 -22210,-85529l703 -17382 -17104 -3191c-41712,-7689 -83656,-5461 -121852,-9710l-16176 -1755 -5088 15454c-15160,45945 -33303,103609 -49875,165457 -16731,62439 -31873,129145 -40690,192643 -8771,63526 -11430,123779 -2181,174386 1454,7281 4805,11773 7984,15526 6383,7080 14060,12316 24054,18345 18617,11010 45235,23332 79206,37321 118573,48787 326197,116717 550973,185143 224698,68367 466152,137042 651123,186603 110772,29656 201147,52481 256046,64384l26193 5655 -1874 -26713c-8504,-120534 -6063,-324672 34810,-476648 12961,-48509 29858,-91611 50708,-124642 12009,-19155 25868,-36235 40407,-46039 7275,-4971 14603,-8221 22369,-9716 7766,-1507 16146,-1401 26205,1264 5443,1454 11353,3700 17754,6927 9361,4769 15537,10348 20963,17352 8085,10466 13947,25035 20744,42552 6867,17399 14858,37599 29355,57333 29893,40797 68042,67782 108939,78739 33149,8900 67995,7074 100293,-5798 32334,-12842 61984,-36524 85914,-70146 25082,-35265 47315,-82586 61027,-133613 10844,-40537 16270,-83355 12434,-124353 -3847,-40885 -17216,-80376 -44709,-111847 -23161,-26063 -59514,-44212 -99619,-55134 -40501,-10780 -84909,-13741 -124075,-4031 -19562,4894 -37930,13144 -53196,25933 -15254,12754 -27044,30289 -32653,51512 -1093,4084 -1974,8304 -2630,12647l19882 2997 6465 -19060c-16542,-5573 -46169,-15402 -72191,-27771 -12966,-6141 -24958,-12943 -33415,-19468 -8658,-6465 -12860,-12771 -13215,-14846 -153,-348 -561,-3032 -147,-7127 384,-4084 1430,-9515 3085,-15679 5230,-19681 16483,-46193 27641,-70424 11223,-24456 22133,-46287 27706,-60495 45921,-118383 91115,-234781 124630,-359861 5999,-22399 11637,-45087 16814,-68112l5875 -26040 -26643 1543c-138595,8102 -275312,8149 -403275,-26176 -68024,-18244 -133649,-46098 -196295,-87728l-11141 16761 19639 4391c5444,-24290 9764,-46287 14988,-65779 5301,-19798 11501,-36908 20348,-51860 8889,-14958 20337,-28031 37523,-40324 25750,-18504 50974,-24125 78119,-37062 13403,-6518 27109,-15366 38958,-28852 11891,-13481 21649,-31111 29184,-54301 1383,-4220 2624,-8428 3735,-12583 9232,-34302 9580,-66759 2559,-96156 -10514,-44165 -37215,-80677 -71629,-108573 -34497,-27942 -76866,-47800 -121025,-59655 -17139,-4586 -34544,-7955 -51914,-10089 -59023,-7157 -122048,-6666 -177868,12636 -27859,9681 -53929,24243 -75943,45064 -22021,20797 -39757,47806 -51293,81162l6 -35c-1632,4716 -3044,9355 -4261,13912 -8192,30277 -7258,57658 -1543,81587 8640,35951 26642,64219 38592,89915 6058,12819 10697,24876 12896,36690 2169,11855 2181,23445 -1371,36849 -1619,5981 -3960,12352 -7311,19183 -6034,12335 -13362,20615 -22015,26731 -12895,9078 -29857,13505 -50843,13729 -20851,231 -45147,-3900 -70341,-10685 -50750,-13563 -104761,-37410 -147296,-53438 -98839,-37026 -250194,-104436 -368631,-136226 -13705,-3676 -26997,-6867 -39774,-9497l-8085 39414z"/>
  <path class="fil2" d="M1088240 1791011c14728,-54945 -19391,-105434 -81635,-122113 -62244,-16678 -115245,10467 -129967,65412 -13918,51938 16264,103006 82054,120630 62221,16672 115636,-11992 129548,-63929zm16595 -218345l13859 -37617c32162,-77297 23646,-173453 -41370,-286364 -58976,-100086 -87870,-169907 -69980,-236672 20289,-75725 90677,-110925 203127,-82410 64017,17157 130357,54024 167200,94135l67740 -82078c-49130,-51370 -144103,-102243 -238344,-127497 -204410,-54768 -325134,25827 -355358,138637 -27050,100943 21005,191768 83680,299248 57552,98171 68491,171094 42854,245372l-12080 38090 138672 37156z"/>
 </g>
</svg>
