<?xml version="1.0" encoding="UTF-8"?>
<!DOCTYPE svg PUBLIC "-//W3C//DTD SVG 1.1//EN" "http://www.w3.org/Graphics/SVG/1.1/DTD/svg11.dtd">
<!-- Creator: CorelDRAW X7 -->
<svg xmlns="http://www.w3.org/2000/svg" xml:space="preserve" width="166.242mm" height="34.4812mm" version="1.1" style="shape-rendering:geometricPrecision; text-rendering:geometricPrecision; image-rendering:optimizeQuality; fill-rule:evenodd; clip-rule:evenodd"
viewBox="0 0 16537653 3430169"
 xmlns:xlink="http://www.w3.org/1999/xlink">
 <defs>
  <style type="text/css">
   <![CDATA[
    .str0 {stroke:white;stroke-width:447369;stroke-linecap:round;stroke-linejoin:round}
    .fil0 {fill:none;fill-rule:nonzero}
    .fil1 {fill:#990000;fill-rule:nonzero}
   ]]>
  </style>
 </defs>
 <g id="Layer_x0020_1">
  <metadata id="CorelCorpID_0Corel-Layer"/>
  <g>
   <path class="fil0 str0" d="M233578 2328614c-10565,-57460 -12863,-115387 -5969,-173761 6436,-58385 20682,-114929 42289,-169632 11032,-25278 23447,-49641 37692,-73088 14256,-22980 26661,-47342 36320,-72630 9192,-20682 17469,-39533 24820,-57001 7819,-17469 16554,-36320 26661,-56087 5978,-9649 11957,-21597 17926,-35395 5979,-14245 13330,-26203 22065,-35852 3680,-2756 9201,-3681 15628,-2756 6904,916 13798,3671 21149,8277 -6436,-11957 -13788,-23905 -21607,-35862 -8277,-11948 -16543,-24363 -25735,-37235 -13340,-18842 -27128,-37236 -40916,-55619 -14255,-18394 -27118,-38161 -39991,-58842 -5979,-10575 -5979,-19309 0,-26203 6437,-6437 13788,-13330 22980,-20682 6436,-6436 12415,-11500 18851,-16096l18842 -13788c17926,-12415 34022,-26660 47809,-42288 13788,-15629 28044,-31724 42289,-47810 15638,-17926 31267,-34480 47810,-49650 16553,-15171 34022,-31257 51948,-47343 4596,-5521 11032,-11957 18841,-20224 8277,-7819 17011,-15170 26203,-21607 9660,-5978 18852,-9659 27586,-10117 9192,-457 16543,5521 22980,17011l0 -1382 0 1382c34022,58375 68501,117217 102971,176984 34479,59757 63438,120897 86885,183868 16086,39533 33555,78151 51481,115386 17936,37235 33564,75385 46894,114919 14246,43213 29416,86427 45045,129174 15628,43213 30798,86885 45054,131014 9192,24820 20224,51023 34012,78609 13330,27575 25745,55161 37703,82737 11489,28043 20224,56086 26192,84129 5979,28501 5064,57002 -2298,85503 -7809,30799 -20224,56076 -36310,76768 -16085,20682 -35394,37693 -57926,50565 -22523,13331 -47343,22523 -74461,27576 -27585,5521 -55171,8277 -82747,8277 -50565,915 -98832,3223 -145727,7351 -46427,4139 -95152,2766 -145260,-3213 -36777,-4596 -73545,-6894 -110780,-6894 -36778,0 -74013,-1840 -111705,-5521 -8735,-915 -19767,-1840 -32182,-2755 -12415,-916 -24820,-2756 -36310,-5979 -11500,-3213 -22990,-7352 -33564,-13330 -11033,-5969 -18842,-13331 -24363,-22065 -11490,-17469 -20224,-39075 -25745,-66194 -5054,-27118 -9650,-51022 -13330,-72629zm64820 -1522035c0,-10575 1841,-21607 6437,-32172 4596,-10574 10107,-20691 17011,-30341 6894,-9659 14245,-18394 22064,-26203 8267,-8277 15171,-16096 21607,-24362 12405,-16096 23895,-32640 33555,-49193 10107,-16543 20681,-33554 32639,-50565l39065 -29416c14256,17926 27128,36310 39076,54703 11500,18384 24362,36310 39075,54237 14256,17936 29884,36319 47810,54703 17469,18394 29884,39076 38150,62523 1841,-925 3224,-1383 4139,-1383 925,0 2298,-457 4138,-1372 9650,-7820 18851,-16096 27586,-24363 8266,-7819 17001,-16553 26203,-25288 18841,-16085 36310,-33096 52395,-50565 16096,-17469 32640,-35395 49651,-53321 14713,-14255 30798,-25745 49182,-34937 18394,-8734 37235,-8277 56087,1373 9192,4596 17468,11032 25745,20234 7809,9192 15628,18841 23437,29416 7819,11032 14713,22064 21607,33097 6437,11489 12415,21149 16554,28958 14713,18851 18383,39533 11489,61140 -6436,22065 -17468,43672 -32639,64821 -15628,21139 -32171,40906 -50565,59757 -18384,18851 -32639,34012 -42746,44587 -17927,22532 -35863,34022 -54247,34937 -18383,925 -36319,-3671 -53788,-14713 -17926,-10565 -34927,-24820 -51481,-42289 -16553,-17468 -32181,-33554 -46427,-47810l-9192 -8266c-925,-1841 1831,915 9192,8266 3681,2766 6894,5522 9650,7820 2755,2755 3681,4596 3681,5511l-13331 -13331c-1840,-1830 -5521,-6436 -10574,-13787l-18852 -22522c-1830,18841 -7809,35852 -17468,51480 -10107,16096 -19767,31724 -29874,48267 -6436,10575 -12415,21150 -18851,31267 -6437,10565 -13330,19766 -20682,27576 -7819,8276 -16096,14713 -24820,19766 -9202,5054 -19767,6436 -32639,4596 -12415,-1840 -24363,-6436 -35395,-14245 -11500,-7362 -22532,-16096 -33107,-25288 -11032,-9650 -21139,-19767 -30331,-31256 -9660,-11033 -18851,-20682 -27586,-28959 -16086,-14255 -32181,-29884 -47810,-46895 -15628,-17001 -23904,-39065 -24820,-66193zm90099 1354710c-6436,29874 -4138,54704 5979,74471 10574,19766 25277,34937 45044,46427 19766,11032 42756,18383 68034,21606 25745,2756 50565,2756 74928,-925 11499,-1840 24362,-4138 38160,-7351 14245,-3223 27576,-7362 40448,-12873 12873,-5521 25288,-11947 37235,-19309 11490,-7809 21150,-16543 28044,-26203 14713,-20681 19766,-43204 16085,-66651 -3213,-23905 -9191,-45969 -17468,-65736 -10565,-25745 -24363,-49650 -40906,-71257 -16553,-21597 -31724,-44587 -45054,-68491 -915,-916 -2756,-4596 -5511,-11033 -2766,-5978 -5522,-12872 -8735,-20224 -3223,-6894 -5978,-13330 -7819,-19309 -2298,-5979 -3213,-8734 -2298,-8734 3681,925 5521,0 5979,-2756 458,-2755 0,-5521 -1383,-8734 -1373,-3223 -2755,-6436 -4596,-10117l-4138 -8267c-2756,-5979 -5511,-11957 -8734,-17936 -3214,-5969 -6437,-11490 -10107,-17001 -6904,5511 -13798,11032 -20235,16086 -5968,5511 -12862,11032 -20224,16553 -41831,35853 -77226,79524 -105726,131005 -28044,51490 -47353,103896 -57002,156759zm307073 -976380l0 -925 0 925zm5511 5511l1383 0c0,925 0,1841 0,2756 0,-915 0,-1831 0,-2756l-1383 0zm1383 2756l915 1382c-915,0 -915,-457 -915,-1382zm2298 4138l0 -1373 0 1373zm1383 1383c0,1840 457,2755 1372,2755 -915,0 -1372,-915 -1372,-2755z"/>
  </g>
  <g>
   <path id="1" class="fil0 str0" d="M1122625 2763478c2756,2755 8267,457 16543,-7352 8735,-7361 14256,-12415 17011,-14255 9192,-4596 18384,-7352 27576,-9192 9659,-1840 19309,-4596 28968,-8277 19767,-4596 39534,-9192 59300,-13788 19767,-5053 39991,-10117 60673,-15628 33096,-9659 65278,-21607 96534,-35395 30799,-13797 61598,-28958 91939,-45054 77226,-40448 138366,-94237 182963,-160888 44129,-67119 75385,-142962 93311,-227091 7352,-32172 8277,-65269 3681,-98833 -5063,-34012 -8734,-67109 -11500,-100673 -4596,-50098 -10564,-99748 -17458,-149398 -7362,-49183 -13798,-99291 -18852,-149399 -2755,-39533 -6894,-79066 -12872,-119056 -5979,-39991 -9192,-79982 -10117,-119515 0,-13340 -458,-27586 -1831,-42756 -1383,-15628 -925,-29884 1373,-43214 1840,-13330 7362,-24820 15171,-33555 8276,-9191 22522,-13787 43213,-13787l4139 0 -4139 0c42289,-926 84120,-2756 126409,-5979 42299,-3213 84587,-5054 127801,-5979 15171,0 34012,-457 56534,-915 22532,-458 43672,1840 63906,6894 20224,5053 37235,12873 51023,24362 13788,11033 20224,28501 18384,51949 -3671,30341 -5512,60214 -5512,90098 0,29416 -1840,59300 -5521,88716 -4138,50565 -11032,100673 -19309,150781 -8734,50565 -16543,100673 -23437,151238 -8277,61598 -16096,123653 -22990,184793 -7351,61598 -15628,123195 -25735,185261 -2766,20681 -4606,41373 -5979,61597 -1382,19767 -2755,39991 -4596,60215 -1840,20224 -4596,40458 -8276,60225 -3681,19766 -9192,38608 -17469,56534 -18851,48267 -40448,96077 -64353,142504 -24363,46895 -51948,91024 -82289,133313 -30799,42288 -63896,81821 -100216,119057 -36310,37235 -76768,70332 -120897,99300 -34012,22064 -68949,43671 -104802,64353 -35862,20682 -70332,42746 -103896,66194 -20682,15170 -43204,26660 -67576,35394 -24363,8277 -48725,16096 -72163,24363 -14255,3681 -28043,5063 -40916,4138 -13330,-915 -27118,-457 -41373,1383 -20682,1840 -37235,-4138 -49650,-17011 -12863,-12873 -22522,-29416 -29874,-48725 -7361,-19309 -12873,-39533 -17469,-60682 -4596,-21140 -8734,-38608 -11957,-53321 -7352,-25746 -12863,-51491 -16543,-77226 -3224,-25745 -8277,-51033 -14713,-76311 -916,-4596 -2756,-7819 -5512,-10117 -2298,-2298 -4596,-5511 -6436,-10107 -1840,-7361 -3223,-14255 -4138,-21607 -925,-7351 -2298,-14713 -4139,-22990 -915,-5511 -1840,-12862 -2755,-22979 -925,-9650 -3681,-17011 -9192,-21607zm669765 -1407106l11947 0 -11947 0zm13330 0l1373 0 -1373 0z"/>
  </g>
  <g>
   <path id="2" class="fil0 str0" d="M2373429 1769171c0,-51948 2766,-101588 7819,-148940 5054,-47810 12873,-96993 23905,-147558 4596,-20692 8734,-43671 11948,-68492 3223,-24372 8276,-48267 15638,-70799 7351,-22522 17926,-42289 31714,-60215 13788,-17468 33096,-30341 57917,-38150 45969,-14713 93779,-22532 144344,-23905 50566,-1383 98833,-2766 145260,-4596 44597,-1840 88726,-4138 132855,-6904 44129,-2756 86417,-4596 126876,-6436 23437,-1831 46884,467 70332,7361 22979,6437 45511,15628 67576,26203 20682,8277 40906,15171 60673,21607 19766,6436 39990,13330 60682,21597 17926,8277 39075,17011 63438,27128 24362,9649 47342,21139 68949,34480 21607,12862 39533,28490 53789,46427 14245,17926 21607,39533 21607,64810 915,80449 1830,161356 3213,241795 1382,80907 0,161813 -4596,242262 -1841,40906 -1841,82747 -458,125951 1373,42756 1841,84587 1841,125493l85502 0 0 299722 -86885 0c0,6436 0,13330 -458,21607 -457,7809 -1383,14245 -2298,18841 -3681,30341 -8276,59767 -14255,88268 -5511,28033 -13788,55161 -24820,81364 -10575,26203 -24363,50566 -41374,73545 -16553,22533 -36777,43672 -61140,62523 -27118,19767 -54246,38151 -80906,55162 -27118,17011 -54237,34479 -80907,52405 -23437,16086 -46885,32172 -69407,47343 -22989,15170 -47810,27585 -74928,37702 -26203,9650 -53331,17459 -80906,22980 -27586,5054 -55162,9192 -82290,11947 -27118,2766 -55161,5522 -84119,8277 -28959,2298 -57002,2298 -84120,0 -54246,-5511 -103896,-22980 -148483,-52863 -44587,-29416 -79524,-68949 -105269,-118142 -5054,-11947 -10575,-27576 -16086,-46885 -5979,-19309 -10117,-39075 -12873,-58842 -2298,-20224 -2298,-39990 458,-58842 2756,-18841 10117,-33554 22065,-44586 5521,-5979 13330,-9192 23447,-8735 10107,458 20682,2756 30799,6437 10107,3213 19766,7809 28958,12415 9192,5053 17011,8734 22980,11490 21607,10107 43671,18383 66203,25745 22522,7351 45970,13788 69865,20224 26203,6436 52405,11947 78608,17469 26661,5511 52864,8734 79992,9191 26660,916 53321,-915 79066,-5978 25735,-4596 51023,-13788 75385,-27576 14713,-7819 28501,-16553 41832,-25288 13787,-9192 26660,-18383 39990,-28500 6904,-6437 11958,-11033 16096,-14713 3671,-3671 6436,-10565 8267,-20225 925,-5511 1382,-11032 1382,-16085l0 -18852c-1382,-18841 -4138,-37235 -8734,-54703 -4596,-17469 -8276,-34938 -11490,-51939 -1382,-4596 -2298,-8734 -2755,-12872 0,-3681 -925,-8277 -2298,-12415l-92407 0c-30331,0 -61130,-916 -92396,-2756 -62055,-2756 -123195,-4138 -182953,-4138 -24362,0 -49182,915 -75385,2755 -26203,1841 -50565,-1373 -74013,-9192 -25745,-9191 -48725,-21607 -68959,-37692 -20224,-16554 -40906,-32182 -61130,-46885 -13798,-9202 -26203,-18851 -36778,-29426 -10574,-10575 -19308,-23447 -27128,-38150 -11947,-20224 -20681,-41374 -26660,-63438 -5969,-22065 -10107,-44597 -11947,-67577 -1841,-22979 -2756,-45969 -2756,-69874 0,-23447 458,-46885 1373,-70790 1840,-45969 925,-92396 -2756,-138365 -3681,-46427 -5521,-93322 -5521,-140207zm293743 -234443c-1831,11033 -2756,22990 -2298,35853 467,12872 1383,25287 2765,38160 1373,12405 2756,24362 3671,35395 1841,23447 2756,47352 3223,71247 458,23905 1373,48267 2298,72640 915,44586 1841,88715 2298,132844 458,43672 915,88259 1841,132388 0,12872 1372,25745 4138,39075 2756,12873 6894,24363 12405,34022 5979,9192 13788,17469 24363,24363 10117,6894 23447,10107 39075,10107 19767,925 39991,925 61140,467 20682,-467 41374,-467 62055,-467 73098,0 146643,1382 221571,4138 -4596,-36310 -8735,-72172 -12873,-106642 -4138,-34937 -5969,-70799 -5969,-107109 -925,-45970 -2765,-92397 -5978,-138366 -3223,-46427 -7352,-92397 -12873,-137451 -2756,-22064 -5054,-44587 -7819,-68034 -2756,-23437 -6894,-46427 -11948,-68034 -2755,-13788 -7819,-24820 -14713,-34012 -7351,-9192 -16085,-16553 -26202,-21607 -10108,-5521 -21140,-9659 -32630,-11957 -11499,-2298 -23905,-3213 -37235,-3213l-122737 0c-12873,0 -24831,0 -36778,-458 -11957,-458 -24363,0 -36320,915 -11947,1383 -23437,4596 -33554,9660 -10575,5053 -19767,13330 -27586,25277 -7351,9192 -11490,19309 -13330,30799zm871579 -91939l0 -2755 0 2755zm0 -2755l0 -5521 0 5521z"/>
  </g>
  <g>
   <path id="3" class="fil0 str0" d="M3636658 2478012l0 -317190 44129 0c28959,1382 54246,5521 76311,12415 21607,6894 44587,11032 67576,12415 11490,915 22980,915 33555,-458 10574,-925 22522,-2308 34937,-4138 0,-3223 -915,-6437 -2756,-9660 -1840,-3213 -3681,-6436 -5521,-9192 -13330,-48267 -28033,-95619 -44587,-142504 -16553,-46884 -30341,-95152 -40915,-145260 -11948,-51023 -24821,-100673 -39066,-149855 -14255,-49193 -24372,-99758 -30809,-151706 -1830,-13331 -5053,-29416 -9192,-47343 -4596,-18383 -7351,-36320 -8734,-54246 -1373,-17926 468,-34012 5979,-48267 5053,-14713 16553,-24363 33554,-29874 18851,-5063 38618,-5979 60225,-2765 21607,3680 41373,4596 60215,2765 47352,-4606 93779,-11957 139291,-22064 17926,-4606 37235,-9202 57002,-14713 20224,-5054 39065,-2756 57001,6894 11033,5053 18842,12415 24363,21606 5511,9192 8734,19767 10574,31257 1831,11490 2756,22522 2756,34022l0 34012c0,4596 458,16086 1373,33554 925,17936 1840,39533 3223,64821 1383,25745 2756,53321 4138,83205 1373,29873 2756,59299 4596,87343 3681,18383 7809,32629 12415,43671 0,-11957 458,-18394 1373,-20234 1840,-19767 4138,-38608 7362,-55619 3213,-17011 7809,-34937 14245,-52863 19767,-59758 49183,-115844 88258,-168250 39076,-52406 82289,-98375 130099,-137908 24363,-20224 48268,-39991 72163,-60215 23905,-19767 50107,-37235 79066,-51948 25288,-15171 51948,-26661 80906,-34937 28501,-8267 57002,-16544 85045,-25278 56544,-17469 116302,-29884 178825,-37693 62970,-7819 124568,-14713 185708,-19766 27585,-1841 55161,-1841 82747,-468 27585,925 54246,5064 79523,11957 25288,6437 49651,16544 72630,29874 23448,13340 44129,30341 62523,51033 41374,47342 76311,96535 105269,147100 28501,51023 49640,106642 63438,166409 10565,48268 18384,98366 22980,150314 4596,52405 5054,103428 1383,153536 -4139,45512 -6437,90099 -6894,133770 0,43672 1830,88258 5969,133313 1382,19308 1382,38607 0,57459 15628,-2756 31266,-4596 45969,-5521l35395 0 0 317190 -41831 0c-30799,-1841 -57917,-15628 -81365,-40916 -22979,-25278 -41831,-54236 -55618,-86875 -16086,22064 -32182,43203 -47810,63438 -15628,19766 -37235,35852 -64353,47342 -23448,11490 -46427,17468 -68960,18851 -22522,1373 -45501,2756 -68491,3681 -87801,4596 -175601,6894 -264317,6894l-258348 0c-44129,0 -90098,1830 -137451,5053 -47799,3214 -94694,2298 -141121,-2298 -24362,-1840 -49650,-3680 -76311,-5521 -27118,-1830 -50565,-10107 -71247,-24362 -21149,-13331 -37693,-29874 -49650,-50108 -12415,-19767 -24820,-40448 -37235,-61598 -3671,-6436 -8277,-15628 -13788,-27575 -5521,-11958 -11490,-23448 -18384,-34480 -6436,-11032 -14255,-19766 -22532,-26660 -8734,-6437 -17468,-7819 -26203,-4139 -7351,3681 -13788,10575 -19766,20224 -5511,9192 -10575,19767 -14703,30799 -3681,11033 -7819,22065 -11500,33565 -3213,11489 -6436,21139 -9192,28500 -9649,27119 -23447,47343 -39991,61131 -17011,13797 -36320,23904 -57917,30341 -21607,5978 -44139,9659 -68501,10574 -23905,926 -47800,1383 -70790,1383 -16085,915 -31714,915 -46884,0 -15171,-925 -31267,-1840 -48268,-2765l-75395 5521 -37693 0zm703787 -445439c-1383,13788 -2756,29416 -3681,46427 -915,17468 1383,32181 6437,45054 5521,11948 12415,21139 20224,27118 8276,6437 17011,11032 27128,13788 9649,2766 20682,4138 32171,4138l34022 0c22065,0 45045,458 68492,1841 23447,1383 46885,1383 70332,-458 20692,-3681 41373,-9659 61597,-17468 20692,-8277 41374,-13788 62066,-16554 47800,-5053 94694,-7809 140196,-7809 45969,0 92864,-5521 140206,-16096 19767,3681 41831,7819 66204,12415 24362,4596 47342,3681 68491,-2298 21607,-6436 39533,-16543 54236,-31256 14713,-14255 22065,-34480 22065,-60225 1840,-61130 -4596,-122738 -18841,-184335 -14256,-62055 -37693,-118600 -70332,-169623 -15171,-25277 -33097,-49182 -53789,-71714 -20682,-22980 -40906,-46427 -60672,-70790 -15171,-18841 -32182,-36777 -51491,-53778 -18841,-17011 -39533,-30342 -62055,-40459 -23905,-10574 -49650,-16085 -75853,-16085 -26661,0 -53321,3670 -79524,11489 -26660,7820 -52406,17927 -77226,30342 -24362,11947 -47352,24820 -68034,38608 -20691,14713 -41373,30341 -62055,47809 -20692,17011 -39075,36320 -55161,57002 -14256,21149 -26671,43214 -37235,67119 -10117,23447 -19309,46885 -27586,69407 -15171,46437 -28501,93779 -39076,142046 -11032,48268 -21139,96077 -31256,144345z"/>
  </g>
  <g>
   <path id="4" class="fil0 str0" d="M5672623 2478012l0 -317190 80907 0 0 -1373 37693 0 8276 2755 1373 0c9660,0 16553,458 20224,916 3223,467 5979,467 7819,467 1383,0 3214,-467 5521,-1840 2298,-1383 6427,-4138 12863,-7819 8734,-4139 15171,-11490 19309,-22065 3681,-10107 5979,-21139 5979,-32171 0,-11500 -1383,-22990 -4139,-34938 -2755,-12415 -4596,-22532 -5521,-30341 -4128,-25287 -6894,-50108 -7351,-74928 -458,-24830 -1373,-48735 -3213,-72172l-9660 -126418c-3213,-42289 -6894,-84578 -10574,-126876 -4596,-46427 -9192,-92854 -13331,-139281 -4596,-45970 -7351,-92397 -7809,-139292 0,-47342 -3223,-94694 -9659,-141579 -5969,-46427 -11490,-93779 -16086,-141121 -3213,-42299 -7352,-83672 -11948,-124578 -4596,-40916 -9201,-82289 -13330,-124578 -1840,-13330 -2298,-26203 -925,-38618 1383,-11947 4596,-22980 10117,-32629 5511,-10117 12873,-18394 22065,-24373 9649,-6436 20681,-9649 33096,-9649 21607,915 43214,1383 64811,1383l65736 0c24373,915 48735,1830 73555,2298 25278,457 49650,-468 74013,-2298 19766,-926 40448,-2298 62513,-4139 22064,-1383 42288,915 60682,8277 11490,5511 19767,12863 25278,22064 5063,9650 8734,19767 10117,30332 1383,11032 1383,22532 458,34937 -916,12872 -1373,24362 -1373,35395 0,22074 -468,45054 -1841,68034 -1382,22532 -3223,45511 -4596,67576 -4605,43214 -6903,86428 -6903,130099 0,43662 -916,87333 -2756,131462 -2756,93322 -6436,186643 -11032,279955 -5054,93322 -9192,187558 -13788,282710 -2756,42289 -5521,85045 -8734,127334 -3224,42746 -6437,85503 -10117,128716 -2298,26203 -4596,51023 -6437,74928 -1840,23905 -6894,49183 -14703,74928 -6904,22522 -17011,43214 -29426,61598 -12405,18851 -25278,37235 -38608,56086 -12415,18842 -25287,37693 -38618,56534 -13330,19309 -28958,35395 -46884,48268 -22065,13330 -44129,21149 -66661,23905 -22065,2755 -45045,3681 -69407,2755 -5064,0 -6894,0 -5064,0 1841,0 4139,0 7362,468 3213,458 4596,915 5053,915 458,458 -2298,458 -8276,458l-51939 5063 -51948 8267 -35394 0 -3681 1383 -73088 0z"/>
  </g>
  <g>
   <path id="5" class="fil0 str0" d="M6467424 980340c0,-41364 9659,-71705 28958,-91014 19767,-19309 43214,-32182 71715,-39076 28043,-6436 58384,-9192 90098,-7351 32182,1840 60683,2755 85503,2755 9192,0 22522,0 39991,-457 17936,-458 35394,0 53331,1840 17468,1841 32639,5054 45501,10107 12873,5064 18852,12873 17937,23448 -2766,38617 -3224,77225 -1841,115386 1373,38150 1841,76300 1841,114918 915,44129 0,88258 -2298,132845 -2308,44597 -5064,88726 -7819,132855 -2756,43671 -5522,87800 -8735,132387 -3213,44597 -5053,88726 -5978,132855 -4596,138823 -6437,277189 -5969,414640 457,137450 3671,275816 10107,414640l-6894 39075c-39076,11948 -77226,23905 -114919,35853 -37702,11947 -75853,23905 -114471,35852 -20224,6894 -40905,12873 -62055,17936 -21139,5054 -41831,2298 -62055,-7361 -15171,-6437 -25745,-17011 -31724,-31714 -6426,-14713 -9650,-30799 -10565,-48268 -925,-17468 -467,-35394 915,-53331 1841,-17926 2756,-33554 3681,-47342 915,-39075 2298,-78151 5054,-116759 2298,-38618 4138,-77693 5978,-116769 1373,-39065 2298,-78141 2298,-117216 0,-39076 -1382,-78151 -4596,-117684 -6436,-79982 -11032,-159506 -13330,-238572 -2298,-79066 -3680,-158600 -5063,-239506 -915,-81822 -1841,-162729 -2756,-242253 -915,-79981 -1383,-160888 -1840,-242719z"/>
  </g>
  <g>
   <path id="6" class="fil0 str0" d="M7593202 1959018c-7351,-59300 -13330,-117217 -17926,-174218 -4138,-57002 -1383,-115387 8277,-174686 4596,-30332 9192,-60673 14245,-91472 5064,-30341 10117,-61140 14713,-91481 1841,-10117 3213,-22064 4596,-36310 1383,-14255 4138,-28501 8277,-41841 4138,-13330 10107,-24820 18384,-33554 8276,-9192 19309,-12873 33096,-12405 20692,915 42757,7809 65736,20224 22523,12872 43672,22064 62981,28501 24820,8734 49182,17468 73087,24820 24363,7819 47810,16086 70790,24820 21149,7361 40916,14255 59767,20234 19309,6426 38608,14245 58375,22980 11499,4596 22532,9192 32639,13330 10117,4596 18851,10117 25287,17011 6894,6894 11033,15171 12873,24820 1830,10117 458,22522 -4138,37693 -21150,64821 -43214,130099 -66194,196293 -22532,65736 -38160,132387 -45969,199963 -2766,26661 -4596,53321 -5521,79982 -916,26202 -2298,53330 -4139,79991 -1840,20682 1841,36777 10575,48725 9192,11490 20682,19766 34479,24820 13788,5064 29874,7361 47810,7361l48725 0c44129,0 87801,-1840 130547,-5978 43214,-4139 87343,-5979 132397,-5979 36768,925 73545,2766 110323,6436 36777,3681 73545,5521 110780,5521 13798,0 29884,0 48735,458 18384,458 36768,0 54236,-2298 17926,-2298 34022,-7351 48725,-15170 14713,-7352 25288,-19767 31267,-36778 4138,-11032 6893,-23437 7351,-38608 458,-14713 0,-29426 -1383,-44129 -1372,-15171 -3213,-29884 -5968,-44597 -2766,-14713 -4139,-28500 -5064,-40906 -6894,-74012 -14245,-146642 -22064,-218814 -7810,-72630 -13788,-145728 -18384,-220656 -915,-16085 -2756,-36777 -5054,-61597 -2765,-25278 -3223,-50108 -1383,-74013 1841,-24362 6894,-45959 16086,-64811 8735,-18851 24830,-29883 47810,-33554 47352,-8277 96077,-10575 146185,-7362 50565,2766 98833,6894 145260,11033 15170,1840 29883,4138 44586,6436 14713,2298 29884,4138 45055,5979l-20224 278572c-4596,57459 -9660,115376 -15171,173760 -5064,58385 -8734,116302 -10575,173761 -925,27128 -925,53331 -457,79534 457,26193 457,51480 457,76768l0 13330c915,17001 5979,34012 15628,50566 9192,16543 25746,24820 49183,24820l56544 -1383 0 312594 -56544 0c-21597,-925 -39065,-6894 -51938,-17926 -12873,-11032 -23905,-24830 -32182,-42299 -8734,-17468 -15170,-36767 -18841,-57459 -4138,-20682 -8734,-40448 -12873,-59757 -925,-4596 -1840,-8735 -2765,-12415 -915,-3671 -1373,-7809 -1373,-12405 -11490,22979 -22990,47799 -33564,74470 -10565,26660 -24363,49183 -41364,67566 -15171,16554 -32639,28044 -52863,34937 -19777,6894 -40916,11500 -62981,13331 -22522,1840 -45054,2298 -67576,1382 -22522,-915 -43214,-1382 -62055,-1382 -58842,925 -118600,467 -179740,-916 -60682,-1382 -121355,-457 -181579,2298 -62056,2756 -122738,5512 -182495,7820 -59300,2755 -119525,2298 -181122,-926 -33097,-2755 -66652,-4596 -101131,-5511 -34012,-925 -67109,-4596 -99291,-11032 -18383,-3681 -37692,-4138 -58842,-1383 -10107,2756 -19766,5511 -29416,8277 -9659,2755 -19309,915 -29426,-5521 -9192,-5511 -17468,-14246 -24362,-25745 -6437,-11490 -12405,-23895 -17469,-37236 -5053,-13330 -9649,-26660 -13330,-39990 -3671,-13331 -6894,-24820 -10575,-34937 -20224,-60673 -38608,-120440 -55161,-179740 -16086,-59300 -28043,-119972 -35395,-182037zm699191 789289c-925,-6436 -925,-8276 -457,-6894 457,1841 457,4139 457,6894 -1840,-13330 915,-23905 7352,-32171 6436,-7820 15170,-14256 25287,-19309 10107,-4596 21140,-8735 33097,-11033 11948,-2765 22522,-5063 32172,-6894 24830,-5063 49650,-10117 74470,-13797 24363,-4139 49193,-8277 74013,-12873 14255,-2756 24820,-915 32639,4596 7351,5979 12873,13340 16543,22990 3223,9192 5521,19309 5979,29883 458,10565 1840,20682 4138,30799 2298,23905 6894,47800 14713,71705 7352,23905 12405,48735 14713,74928 916,14255 -925,25745 -5978,34022 -4596,8734 -11490,15628 -20225,20224 -8734,5053 -18851,8276 -30341,10117 -11490,1840 -23447,3213 -36320,4138 -24362,3671 -49182,8734 -73545,14703 -23905,6437 -48735,11033 -73097,13798 -20682,2298 -36768,458 -48725,-6436 -11948,-6437 -21140,-16554 -28501,-29884 -6894,-13788 -11490,-28958 -13788,-46885 -2298,-17468 -3223,-35394 -3223,-54246l0 -52405c0,-17469 -458,-32640 -1373,-45970z"/>
  </g>
  <g>
   <path id="7" class="fil0 str0" d="M9288998 2278048c0,-7351 -458,-14713 -926,-21607 -457,-6894 0,-13788 926,-20224l0 -75395 17468 0c7809,-3671 16544,-4596 25278,-3213 9192,1382 18394,2755 28501,4595 9659,1841 18851,2298 27585,1841 8277,-458 15629,-4139 22065,-11490 9192,-9659 14713,-21149 17468,-34022 2756,-13330 3681,-26660 3214,-41373 -458,-14246 -1373,-28501 -3671,-42289 -2298,-13788 -4138,-26661 -5064,-38151 -2298,-18851 -5511,-37702 -8734,-56544 -2756,-18851 -5511,-37692 -7351,-56544 -4139,-48725 -7820,-96992 -10575,-144802 -2756,-48267 -10575,-96077 -22980,-143419 -6436,-22532 -11032,-45512 -14713,-68959 -3681,-23438 -6436,-46885 -8277,-71248 -1840,-18851 -4596,-39075 -9191,-60682 -4596,-21607 -4596,-41831 0,-60672 4595,-24831 16553,-43214 36319,-53789 19767,-10575 41364,-15171 64354,-13330 22522,1840 45044,915 68034,-2298 22979,-3223 45969,-5521 68949,-7352 17011,-1840 37235,-4606 61597,-8734 23905,-4138 46895,-5521 68960,-4606 22064,925 40915,6904 57001,17469 15628,10574 23448,30341 23448,59299l0 -1372 0 1372c915,46437 4128,92407 8724,136536 5063,44586 5521,90098 925,136983 -3681,41831 -4596,83662 -2756,125036 1831,41373 3671,83204 5512,125035 925,25288 457,49650 -916,73088 -1382,22989 -2765,46437 -4596,69874 -1840,24363 -2298,48725 -1840,72630 458,24362 -1840,48267 -5979,71715l-4138 16085c17926,8735 36778,13331 56087,13331l62055 0 0 317190 -60215 0c-35405,-1841 -65278,-14246 -89641,-37235 -23905,-22523 -43214,-50108 -57927,-81365 -1830,4596 -4138,8735 -6436,12415 -2756,3671 -5054,7810 -6894,12406 -12405,22532 -29416,41831 -51481,58384 -22064,16543 -44586,25745 -67576,28501 -10575,1840 -20682,1840 -30799,0 -9649,-1841 -19766,-2756 -30341,-2756 -12405,915 -24363,1831 -35852,2756 -11490,915 -23448,1840 -35863,2755 -15160,1841 -31256,4139 -47800,6894 -16553,2766 -32639,1841 -47809,-2755l-2756 0 -41373 0 0 -199964zm25277 682180c-2755,-11957 -4138,-24830 -4596,-39075 -457,-13788 0,-28044 1383,-42757 1373,-15160 1840,-28958 1840,-41831 0,-11947 458,-26203 916,-41831 457,-15628 1382,-30331 3223,-44586 1830,-13788 4596,-26203 8734,-36778 4128,-10575 10565,-18841 19767,-24362 15160,-8277 32629,-11033 52395,-8277 19309,2765 36778,4138 52406,4138 13330,-915 27586,1841 42756,7819 14713,5979 27119,17926 35853,36778 4596,7351 9659,11947 15628,13330 6436,1373 12873,3213 20224,5969 15638,7361 30809,11032 45512,11032 14255,0 29426,-5511 45512,-16543 9649,-6437 23447,-18852 41373,-37693 17926,-18851 36778,-35862 56077,-50108 19309,-14713 38160,-23905 56086,-27586 17927,-4138 31257,5064 39076,27586 8277,22522 13788,48268 17468,77684 3671,28958 7810,57001 12405,84129 5979,32172 7362,60673 3224,84578 -4139,24362 -16554,43214 -37236,57001 -15170,9192 -31256,21607 -47809,36320 -16544,14703 -33097,22980 -49650,24820 -17927,916 -34928,-3213 -51481,-12872 -17011,-9192 -32639,-19309 -47810,-30341 -17468,-11033 -33097,-24363 -47342,-39991 -14256,-16086 -27128,-35395 -39533,-58385 -925,-1830 -2766,-5511 -5521,-10564 -2298,-5064 -5511,-9660 -8277,-13798 -3213,-4138 -6436,-7809 -9192,-10107 -3213,-2298 -5511,-1383 -7351,2298 -4596,8276 -7362,22064 -7820,40906 -915,19309 -2297,34479 -4138,46894 -1840,11033 -6894,19767 -14703,25746 -7819,5968 -17011,10107 -26670,12862 -9650,2766 -19299,5064 -28959,6437 -9192,1382 -16543,2765 -22064,3680 -6894,2756 -15171,5979 -23438,9650 -8734,3681 -17011,6436 -25745,8276 -8277,1841 -17011,2298 -25288,1841 -8734,-458 -16543,-4139 -23437,-11490 -6436,-8277 -11032,-18851 -13798,-30799zm201347 -22064c0,-926 457,-1841 1382,-2298 916,-468 1373,-926 1373,-1841l2766 -6894 0 1373c0,1841 -468,3681 -1841,5979 -1382,2298 -2298,4138 -2298,5053l-1382 -1372zm273518 -1578122l0 -1372 0 1372zm0 -6426l0 -1383 0 1383zm0 -13798l0 -5053 0 5053zm0 -9192l0 -5511 0 5511zm0 -5511l0 -1383 0 1383zm0 -1383l0 -1382 0 1382z"/>
  </g>
  <g>
   <path id="8" class="fil0 str0" d="M9830514 1309019c-2298,-13787 -1841,-25277 2298,-35852 4138,-10117 9649,-19766 16543,-28043 7362,-8734 15171,-17011 23905,-24363 8277,-7819 17011,-15170 26203,-22064 17926,-14713 35395,-29416 52406,-44587 17011,-15170 34021,-30341 51023,-44596 19766,-16086 39075,-32172 57926,-48268 18842,-16086 38608,-31714 59300,-45969 18841,-12405 37693,-24820 56077,-36310 18393,-11490 36777,-25288 54703,-40459 58385,-50097 117227,-98365 176984,-144802 59757,-45969 119057,-93311 178357,-142036 8276,-7362 19309,-17937 33564,-31724 14245,-13788 29416,-25278 45044,-34938 16086,-9191 31257,-14245 45970,-14703 14713,-467 27118,8267 37235,26203 8734,17001 14713,36310 17468,57460 2756,20681 5979,40448 10575,58374 4596,18851 9650,37235 14703,56087 5521,18383 11500,36777 17469,55618 6436,18852 12415,37693 17468,56087 5521,18384 10575,36310 15171,54236 3681,17936 7819,36778 13330,56087 5521,19309 7819,38150 6904,57001 -925,18852 -6904,34937 -17469,47810 -11032,13330 -24372,24363 -40000,33097 -15628,9192 -32639,17011 -51023,23447 -18384,6894 -34480,13330 -47810,19767 -17926,7351 -34937,12862 -51481,17468 -16085,4596 -32639,10107 -49650,17469 -17926,10107 -36310,19299 -54703,27576 -18384,8734 -37236,17011 -57002,24820 -32172,15638 -64811,31266 -96993,47352 -32181,16086 -65278,31714 -98375,46885l0 1382 0 -1382c-25277,12872 -37235,28500 -36767,47352 457,18851 6426,38618 18841,59299 11958,20682 26661,40916 43672,60683 17011,19766 29416,36310 37692,49640 25288,42299 51948,81832 80907,119057 28501,37235 55619,77236 80449,119524 24362,40449 50108,79524 77683,117685 27118,38150 54704,76768 82747,114918 12405,18384 25278,36320 38608,54704 12873,18384 25745,36777 38161,54704 6436,7809 12872,17468 20224,28500 7351,10575 12872,22065 17468,34480 4596,11947 6437,23895 5979,35395 -458,11490 -5064,22522 -13798,32639 -15628,16543 -34927,29874 -58832,39066 -23905,9201 -45054,19766 -63906,31723 -21596,15171 -43203,28959 -64810,41832 -21607,13330 -44129,24820 -68492,34937 -20692,9192 -40916,18384 -60225,28043 -19309,9192 -40448,16086 -63895,20682 -22522,4596 -45970,5978 -70790,4596 -24362,-1383 -48267,-1841 -71715,-1841 -30798,0 -61140,-457 -91013,-1373 -29884,-925 -60225,-2297 -91024,-4138l1383 2756 -168250 0 -24362 0 0 -315350 -1383 0c27128,-2756 54704,-2756 82747,0 28501,2766 57002,5979 86428,9660 28958,3670 58374,6893 88258,10107 29416,3223 60215,4138 91471,3223 7362,0 16096,457 27128,1373 10575,925 21140,925 31714,-458 10117,-1373 18852,-4596 26203,-9192 6894,-4138 11490,-11947 13330,-22522 926,-9192 -915,-18851 -4596,-29884 -4138,-10574 -9191,-21149 -15170,-30798 -5511,-10118 -11948,-19767 -19299,-29884 -7362,-9650 -12873,-18384 -17469,-25278l-34937 -62055c-11957,-20692 -23905,-41831 -36320,-63438 -11947,-20692 -25745,-40458 -41373,-59300 -15629,-18851 -30342,-38618 -43672,-59299 -13330,-19767 -26203,-40459 -37693,-61598 -11489,-21607 -22979,-43214 -33554,-64821 -11957,-20682 -23905,-40916 -37235,-60682 -12873,-19767 -24820,-40906 -35395,-63428 -10117,-20234 -20224,-40001 -30341,-58385 -10575,-18384 -22522,-36320 -35852,-53321 -7362,-8734 -15171,-18393 -24373,-28043 -8724,-10117 -17459,-20224 -26193,-30341 -8276,-10575 -15638,-21149 -22074,-32182 -6427,-11490 -10565,-22522 -12405,-33097zm454173 57927l1373 0 -1373 0zm5053 -1382l1383 -1383c0,925 -457,1383 -1383,1383zm6894 -4139l1383 0 -1383 0z"/>
  </g>
  <g>
   <path id="9" class="fil0 str0" d="M11065699 2724402c3671,1841 9192,-915 17469,-7351 8267,-6894 13788,-11033 17469,-12873 10107,-4596 19299,-8277 27575,-10575 8735,-2755 17927,-5053 27586,-6893l85035 -22980c3681,0 5979,-468 7819,-1383l27118 -7819c33097,-9192 65736,-20682 97002,-34470 31257,-13797 62513,-28958 92855,-45054 77225,-40448 137908,-93312 182494,-159048 44587,-65735 75854,-139291 93780,-221112 5968,-32182 6894,-65279 2755,-98833 -4596,-33555 -8734,-67576 -12415,-101588 -4138,-49193 -10107,-98833 -16543,-148026 -6894,-49640 -12873,-99290 -18394,-149398 -3213,-39533 -8267,-79524 -13788,-119515 -5978,-40000 -8734,-79533 -8734,-119066 0,-13331 -915,-28034 -2756,-43204 -1840,-15171 -1840,-29426 458,-42757 2298,-13787 7819,-24820 16086,-34012 8734,-8734 22989,-13330 42298,-13330 42289,-925 84120,-2765 126409,-5978 41831,-3224 84587,-5054 127334,-5979 16095,0 35404,-458 57001,-915 22065,-468 43214,1840 63896,6894 20692,5053 37703,12872 51033,24362 13330,11032 19309,28501 17468,52863 -2765,29884 -4138,59300 -4138,89184 0,29416 -1840,59299 -5064,88715 -4595,50108 -11489,100216 -20224,150324 -9192,49640 -17001,99748 -24362,149855 -5054,41374 -10107,82747 -14713,124111 -4596,41373 -9650,82289 -16086,123663 14255,17011 31256,32181 50565,44586 19309,12415 39076,18852 59758,18852l67576 -1383 0 293743 -68949 0c-28501,-915 -55161,-10575 -79066,-29884 -24363,-18841 -44597,-40906 -60683,-65736 -1840,16096 -4138,32182 -7351,47810 -3223,15628 -7819,31724 -14256,47810 -19766,47352 -41373,94694 -65736,141121 -24362,46895 -51480,91481 -81822,134228 -30341,42756 -63895,82289 -100215,119067 -36310,36777 -76301,70332 -120440,99748 -34012,21607 -68491,42756 -104344,63438 -35394,20691 -69874,42756 -104354,67118 -19766,13331 -41373,24820 -65736,34470 -24362,9202 -49182,17011 -74002,23447 -11958,3681 -24363,5054 -37703,4596 -13788,-457 -26660,0 -39066,925l-4138 0c-21607,1831 -38618,-3680 -50565,-17011 -11958,-12872 -22065,-28958 -29426,-47809 -7809,-18852 -13788,-38618 -18384,-59758 -4596,-21149 -8734,-39533 -11957,-54703 -7352,-24820 -12406,-50566 -15629,-76769 -3213,-25745 -7809,-51490 -14245,-76768 -925,-4596 -2756,-7351 -5979,-9192 -3213,-1840 -5053,-5063 -5979,-9659 -1830,-7809 -3670,-15628 -4595,-23438 -1373,-7819 -3214,-14713 -5054,-20691 -915,-5511 -1840,-13788 -2756,-25278 -925,-11032 -3680,-17926 -9192,-20692z"/>
  </g>
  <g>
   <path id="10" class="fil0 str0" d="M12262725 2478012l0 -292360 54704 0 84120 9649c20681,-8276 35394,-23447 43213,-45044 5512,-13798 7352,-28043 5512,-43214 -1841,-14713 -3671,-29416 -5512,-44129 -3680,-35395 -7361,-70332 -11032,-104811 -3681,-34480 -8734,-69875 -15170,-105269 -11033,-63439 -21607,-126419 -31724,-189389 -10108,-62523 -19767,-126419 -28959,-190772 -1840,-7361 -3213,-16096 -4596,-25745 -1383,-10117 -2298,-20224 -2298,-30799 0,-10575 1383,-20224 3681,-29416 2298,-9202 5969,-17011 10565,-22990 8734,-9192 15170,-17926 19309,-26660 4138,-8735 8734,-16554 12872,-23448 4596,-6436 10575,-12872 17469,-18383 6894,-5521 17011,-9192 29416,-11948 37235,-6436 76768,-7361 119067,-2308 41831,5064 82279,9202 120439,12873 17001,1840 34470,3681 52864,5063 18384,1373 34469,9192 47810,23905 10564,10565 17001,22980 19299,36768 2298,13330 2298,27585 467,42298 -10575,122728 -22532,245466 -35862,367746 -13330,122738 -20224,245475 -20224,368213 0,26660 457,52863 1382,78609 916,26202 458,51938 -1382,77683 -1841,25288 -6894,47352 -14713,66661 -7809,19767 -22065,37693 -42747,55161 -14255,12873 -31724,21140 -52405,25278 -21150,3681 -40916,6437 -60683,8277 -27576,3681 -54704,6894 -81364,9649 -26660,3224 -53321,5979 -80907,8277 -11032,0 -20224,925 -27575,2298 -7819,1383 -16554,2298 -26203,3681 -9192,1383 -22065,2298 -37235,3213 -15629,925 -35863,1383 -61598,1383zm68949 -1645688c-915,-10117 -457,-20682 1841,-31714 2298,-11042 5978,-22074 11032,-32181 4596,-10575 11490,-19309 20224,-27119 8277,-7361 18851,-11957 31256,-12872l32182 0c12873,0 25745,457 39076,915 13330,458 25745,1840 36777,4596 11490,2756 21139,6894 28959,11957 19766,16086 30798,36310 33554,60673 2755,24362 5063,47352 6894,68959 925,12405 3223,32172 6436,59300 3681,26660 5521,53778 5521,81364 0,27576 -3680,51023 -10574,70789 -7352,19767 -21150,28044 -41831,24363 -13331,-1840 -25288,-3213 -36778,-3681 -11032,-457 -22980,-1373 -35395,-3213 -10574,-915 -22522,-458 -35395,915 -13330,1383 -24820,-457 -34479,-5053 -11490,-5054 -20224,-12873 -26203,-22065 -5969,-9649 -10575,-19766 -14245,-31256 -3681,-11033 -5979,-22522 -6894,-34022 -926,-11948 -1841,-22522 -2298,-32639 -2766,-24821 -5064,-49641 -6437,-74003 -1382,-24363 -2298,-48725 -3223,-74013zm271678 -28501c1841,-25287 9650,-41373 22980,-48267 13340,-7352 32182,-9650 56087,-6894 23447,1840 47352,1840 72630,0 8734,-925 19309,-2298 31724,-4138 12862,-1841 23894,-458 33554,4138 10107,5511 17011,13330 20682,23447 4138,10565 6436,21140 6894,31714 467,11033 -458,22522 -1831,34480 -1840,11947 -3223,22064 -4138,30341 -1841,18841 -2766,41831 -2766,69407 0,27586 -1372,53321 -4596,78151 -3213,24820 -9649,45512 -18841,62513 -9192,17468 -25288,24830 -47352,22989 -9192,0 -20224,916 -33555,2298 -13330,1373 -26660,2298 -39533,2756 -12872,458 -25287,0 -37692,-1383 -11958,-1373 -21150,-5969 -27128,-12862 -7352,-9202 -12406,-19309 -15629,-30342 -3213,-11500 -4596,-23447 -4596,-35862 0,-12405 458,-24820 1383,-37235 915,-11948 1373,-22980 1373,-32629 0,-25288 -2298,-50566 -5969,-75853 -4138,-24821 -5521,-50566 -3681,-76769zm67119 488653l1373 0 -1373 0zm4129 0c1840,915 3680,1373 5521,1373 -1841,0 -3681,-458 -5521,-1373zm6436 1373l2765 0 -2765 0z"/>
  </g>
  <g>
   <path id="11" class="fil0 str0" d="M13368279 2453192c-3680,-45512 -3223,-92397 916,-140207 4138,-47809 8276,-94694 12872,-140663 458,-11958 2298,-24363 4596,-37236 2298,-12872 5511,-24830 10107,-35394 4606,-10575 11042,-19767 20234,-27586 8735,-7819 20224,-12415 33555,-14245 21607,-2766 44129,-2766 68034,0 23905,2755 46427,4595 68034,5511 25745,0 51948,0 78151,457 25735,458 51938,1383 78141,3223 19766,1841 40458,4596 61597,7810 21607,3223 42299,3223 62981,457 15628,-2755 27585,-8267 36320,-16086 8266,-8276 14245,-17926 18383,-28958 4139,-11490 5979,-23447 5979,-36320 0,-13330 -925,-25278 -2765,-37235 -2756,-22522 -4596,-44129 -6437,-65269 -1830,-21149 -5053,-41373 -9192,-61140 -4596,-23447 -9649,-45054 -15170,-65278 -5969,-20224 -9650,-41831 -11490,-64353 -1840,-25745 -4138,-51033 -7352,-75396 -2755,-23905 -7819,-48267 -13787,-72630 -9660,-42288 -19309,-84119 -28969,-125950 -9649,-41374 -18384,-84588 -25278,-128259 -1840,-10107 -4138,-20682 -7361,-32629 -3213,-11500 -4596,-23448 -4596,-34938 0,-11499 2298,-22064 6436,-31724 4596,-9191 13331,-15170 26661,-17926 19766,-4596 40458,-5978 62523,-5053 22064,1373 43671,2298 63895,2298 47810,0 95152,915 141589,2755 46427,1841 93312,3213 141579,5054l926 108034c-468,42289 -2766,83195 -5979,123653 -3223,40449 -4596,81822 -4596,124111 0,38618 0,76310 457,113088 458,36777 916,74470 916,113088 1840,44129 1382,87333 -916,130547 -1840,43214 -2298,86885 -457,130557l0 59757c15170,20224 29416,38150 41831,53779 12405,15628 29874,23447 52406,23447l27118 -1383 0 313052 -28501 0c-18851,0 -34937,-4596 -48267,-13331 -13788,-8734 -25288,-19766 -35853,-33096 -10117,-13331 -19766,-28501 -27585,-45512 -8277,-17011 -15629,-34480 -21607,-52863 -7352,10117 -14703,20224 -22523,30341 -7819,10107 -15170,20682 -22522,31714 -24362,34937 -54246,64821 -90098,89641 -17011,11032 -35395,18851 -54704,23905 -19309,4596 -38618,7819 -58384,9191 -19767,1841 -39533,3224 -59758,3681 -20224,458 -39533,1383 -57926,3213 -44130,4596 -88259,5521 -132845,3224 -44587,-2298 -89184,-3224 -134228,-3224 -16096,0 -34479,468 -55161,1383 -20692,915 -40458,-457 -59767,-3213 -19299,-3223 -35853,-9659 -49641,-19309 -14255,-9659 -21606,-26660 -22522,-50565z"/>
  </g>
  <g>
   <path id="12" class="fil0 str0" d="M14344192 2478012l0 -317190 105269 0c34937,0 70332,467 105269,1840 35395,1383 71715,2766 109408,4138 6436,-2298 12405,-4138 18383,-4596 5979,-457 12873,-2298 19767,-4595 -15171,-4596 -29874,-10118 -43671,-17011 -13788,-7352 -27119,-15629 -39534,-25278 -33096,-25288 -64810,-55161 -94694,-89183 -29884,-34480 -53779,-71248 -71715,-110781 -21139,-50107 -34469,-102971 -38608,-158600 -4596,-56076 -1840,-111238 7810,-166409 9659,-55161 26202,-108940 49192,-160430 22980,-51481 51023,-98365 83662,-140664 35853,-45044 76311,-84120 122738,-117217 45969,-33096 95152,-60224 147558,-80906 52405,-20682 107109,-33097 164111,-38151 57002,-5063 114461,-2765 171920,7352 56544,9649 108950,28501 158133,56544 48735,28033 94236,61598 136535,101131 10107,8734 22065,21139 35852,36310 13788,15170 26203,31724 36778,49192 11032,17469 17926,34937 21597,53321 3681,17926 -458,33097 -11948,45512 -15170,17926 -33554,32172 -54703,43204 -21150,10575 -41831,20234 -62513,28043 -20692,8277 -40458,17926 -59300,29884 -18851,11490 -40000,16543 -63438,14713 -17011,-1841 -31266,-8277 -42298,-18852 -11033,-10574 -21597,-22064 -30799,-34479 -9650,-11948 -20224,-23437 -31714,-34012 -11958,-11032 -26203,-17469 -43214,-18851 -45044,-4596 -90556,-4139 -137441,1382 -46437,5054 -88268,22065 -125036,51023 -20691,15171 -37235,33097 -49192,53321 -11948,20234 -22065,41374 -29874,63896 -7361,22532 -12872,45512 -16096,69874 -3213,24363 -4595,48268 -4595,71257 0,24363 925,48268 3223,72173 2298,23904 7351,46884 14703,68949 6894,21607 17011,42288 29883,61597 12415,19309 29416,36778 50108,51949 21139,14245 44129,26202 68949,34937 24820,9192 50566,15170 76769,18841 26660,3681 52863,5521 79991,5521 26660,0 52863,-925 78141,-3223 45512,-6436 91939,-13330 139291,-20224 46885,-6436 91471,-22065 133302,-45512 7362,-458 17937,-2755 31267,-6894 13788,-4138 28033,-8267 44129,-11947 16086,-4139 31714,-7819 47342,-11958 15638,-3671 28968,-5511 40458,-5053 11033,457 19309,4138 24820,11032 5522,6894 5979,19309 1383,36778 915,-4596 1373,-6894 1841,-7352 457,-468 0,1830 -1841,7352 -7361,22522 -11490,36309 -12872,41831 -1383,5053 -1383,5511 0,915 1382,-4139 3213,-11032 5978,-20682 2756,-9649 5054,-17011 6894,-22064 -7361,25277 -14713,50565 -22064,76310 -7819,25735 -15171,51023 -22532,75843 -4596,13798 -8267,27586 -11490,42299 -3213,14703 -7352,29416 -12873,44587 -5053,14713 -11947,28958 -20224,42288 -7809,13788 -19309,24820 -33554,33555 -15171,9201 -32182,14713 -50566,16553 -18394,1383 -36320,3213 -53331,6436 -15628,2756 -31256,5054 -46427,7809 -15170,2298 -30799,5064 -47342,7820 -20692,3213 -41831,6893 -63896,10574 -21607,3681 -43213,7352 -64363,10575 -38608,5969 -80906,13788 -126876,22980 -45502,9191 -84577,13330 -116759,12415 -19766,11032 -41373,19309 -65736,24362 -23905,4596 -48725,9650 -74470,14713 -63896,12863 -128706,22065 -194442,27576l-150781 21607 -129632 0z"/>
  </g>
  <g>
   <path id="13" class="fil0 str0" d="M15850589 608913c0,-11947 -458,-23447 -1373,-34479 -925,-11032 -468,-21140 1373,-30331 925,-10575 8276,-17469 22532,-19767 14245,-2298 26660,-4596 37225,-5979 -11948,-925 -19767,-2755 -23438,-5521 -4138,-3213 -6436,-7809 -6893,-13788 -926,-6436 -2298,-12872 -4139,-20681 -1383,-7362 -2298,-12873 -2298,-16554 -1840,-18384 -4138,-39075 -7361,-62055 -3213,-22990 -4596,-45512 -4596,-67119 -2756,-14245 -4139,-26203 -4139,-36777 0,-10565 2298,-18842 5979,-24820 4139,-6437 11490,-11033 21607,-14246 10575,-3223 25278,-5521 45044,-6436 26671,-1841 53331,-3681 79534,-6437 26661,-2755 53779,-5521 81364,-8276 5054,0 15629,-1383 31714,-4139 16096,-2755 32182,-5053 49193,-6436 16543,-1840 31714,-1840 45044,0 13330,1383 19767,6894 19767,16096l-2298 4128 0 -1373 2298 -2755c-458,4596 -458,9649 925,16086 1373,6436 2298,12415 3213,17468 925,5511 925,10575 -457,15628 -1383,5054 -5054,8277 -11490,10118 -12415,6436 -27128,9649 -43672,9649l-45054 0c-28501,1383 -57002,2298 -85960,2756 -28501,457 -57459,925 -86885,1840 -8735,0 -14704,4138 -17459,12415 -2766,8277 -3681,18384 -3223,29874 457,11500 1840,26670 4138,45512 2298,18383 3681,28958 4596,30798l0 5521c0,2298 915,9650 2298,22065 1383,12405 3681,20224 6436,23905 2756,3671 9192,6436 18852,7809 7809,1840 19766,0 35852,-5979 16543,-5968 55161,-11032 115844,-15160 60672,-4139 68949,-2766 24820,4596 -43672,7351 -63896,11032 -60215,10107 29874,-5054 59300,-9650 87801,-14703 28033,-4606 57001,-7819 86875,-9660 1840,-1840 3223,0 4138,5979 1383,5979 1841,13788 2298,23447 925,10107 925,20682 1383,31714 0,11490 458,21607 458,30341 1840,12873 2755,24363 3213,35395 467,10575 0,22522 -1831,34937 2298,5512 7809,9192 17001,11490 9202,2298 11033,3681 5521,4596 -5978,925 -6436,1383 -2755,1383 4128,0 7809,-925 10565,-2756 -46885,3671 -81822,6437 -104802,8267 -23447,1840 -28501,5064 -16096,10575 -65268,10117 -109865,17011 -133302,20691 -23447,3671 -47810,7352 -73555,10108 -9650,1382 -20682,3680 -33555,5978 -12872,2298 -24830,4596 -35862,6437 -11032,1372 -23895,457 -37693,-2756 -13787,-3681 -23437,-11957 -28500,-26203 0,-7361 0,-17011 0,-28501 0,-11032 0,-22532 0,-34022zm1382 359479c0,-38618 9192,-67119 27576,-85045 18394,-17926 40916,-29874 67576,-35395 26661,-5978 55162,-8276 85045,-6894 30342,1383 57002,1841 81364,1841 8735,0 22065,0 40459,-458 17926,-467 35852,0 53321,1831 17468,1840 32639,5063 45512,10117 12862,5053 18841,12415 17926,22522 -2766,35862 -4139,71257 -3681,106652 458,35852 458,71247 458,107109 925,41374 457,82737 -916,123195 -1840,40916 -3680,81822 -6436,122738 -2756,40906 -5521,81822 -8277,123195 -2755,41374 -4596,83205 -5511,125494 -3681,130089 -5063,259263 -4596,387064 458,127791 3213,256498 8735,385672l-5979 34937c-37693,11957 -75853,23447 -114461,35395 -38160,11499 -76311,22532 -114004,33564 -18851,6436 -39075,11490 -60224,16086 -21140,4596 -41374,2298 -61140,-6894 -14703,-5979 -25278,-16086 -31257,-29426 -5979,-13330 -9649,-28501 -11032,-45044 -1383,-16554 -1383,-33555 -458,-50566 916,-17011 1383,-31256 1841,-43214 457,-37692 1373,-74470 2755,-110322 1383,-35853 2298,-71715 3213,-107567 926,-36320 1383,-72173 1383,-108493 458,-36310 0,-73087 -1383,-109865 -4128,-74470 -6893,-148940 -7809,-222943 -925,-74013 -1382,-148483 -925,-222953 0,-75386 468,-150313 468,-225709 457,-74928 457,-150313 457,-226624zm384757 -727224l0 -1383 0 1383z"/>
  </g>
  <path id="14" class="fil1" d="M233578 2328614c-10565,-57460 -12863,-115387 -5969,-173761 6436,-58385 20682,-114929 42289,-169632 11032,-25278 23447,-49641 37692,-73088 14256,-22980 26661,-47342 36320,-72630 9192,-20682 17469,-39533 24820,-57001 7819,-17469 16554,-36320 26661,-56087 5978,-9649 11957,-21597 17926,-35395 5979,-14245 13330,-26203 22065,-35852 3680,-2756 9201,-3681 15628,-2756 6904,916 13798,3671 21149,8277 -6436,-11957 -13788,-23905 -21607,-35862 -8277,-11948 -16543,-24363 -25735,-37235 -13340,-18842 -27128,-37236 -40916,-55619 -14255,-18394 -27118,-38161 -39991,-58842 -5979,-10575 -5979,-19309 0,-26203 6437,-6437 13788,-13330 22980,-20682 6436,-6436 12415,-11500 18851,-16096l18842 -13788c17926,-12415 34022,-26660 47809,-42288 13788,-15629 28044,-31724 42289,-47810 15638,-17926 31267,-34480 47810,-49650 16553,-15171 34022,-31257 51948,-47343 4596,-5521 11032,-11957 18841,-20224 8277,-7819 17011,-15170 26203,-21607 9660,-5978 18852,-9659 27586,-10117 9192,-457 16543,5521 22980,17011l0 -1382 0 1382c34022,58375 68501,117217 102971,176984 34479,59757 63438,120897 86885,183868 16086,39533 33555,78151 51481,115386 17936,37235 33564,75385 46894,114919 14246,43213 29416,86427 45045,129174 15628,43213 30798,86885 45054,131014 9192,24820 20224,51023 34012,78609 13330,27575 25745,55161 37703,82737 11489,28043 20224,56086 26192,84129 5979,28501 5064,57002 -2298,85503 -7809,30799 -20224,56076 -36310,76768 -16085,20682 -35394,37693 -57926,50565 -22523,13331 -47343,22523 -74461,27576 -27585,5521 -55171,8277 -82747,8277 -50565,915 -98832,3223 -145727,7351 -46427,4139 -95152,2766 -145260,-3213 -36777,-4596 -73545,-6894 -110780,-6894 -36778,0 -74013,-1840 -111705,-5521 -8735,-915 -19767,-1840 -32182,-2755 -12415,-916 -24820,-2756 -36310,-5979 -11500,-3213 -22990,-7352 -33564,-13330 -11033,-5969 -18842,-13331 -24363,-22065 -11490,-17469 -20224,-39075 -25745,-66194 -5054,-27118 -9650,-51022 -13330,-72629zm64820 -1522035c0,-10575 1841,-21607 6437,-32172 4596,-10574 10107,-20691 17011,-30341 6894,-9659 14245,-18394 22064,-26203 8267,-8277 15171,-16096 21607,-24362 12405,-16096 23895,-32640 33555,-49193 10107,-16543 20681,-33554 32639,-50565l39065 -29416c14256,17926 27128,36310 39076,54703 11500,18384 24362,36310 39075,54237 14256,17936 29884,36319 47810,54703 17469,18394 29884,39076 38150,62523 1841,-925 3224,-1383 4139,-1383 925,0 2298,-457 4138,-1372 9650,-7820 18851,-16096 27586,-24363 8266,-7819 17001,-16553 26203,-25288 18841,-16085 36310,-33096 52395,-50565 16096,-17469 32640,-35395 49651,-53321 14713,-14255 30798,-25745 49182,-34937 18394,-8734 37235,-8277 56087,1373 9192,4596 17468,11032 25745,20234 7809,9192 15628,18841 23437,29416 7819,11032 14713,22064 21607,33097 6437,11489 12415,21149 16554,28958 14713,18851 18383,39533 11489,61140 -6436,22065 -17468,43672 -32639,64821 -15628,21139 -32171,40906 -50565,59757 -18384,18851 -32639,34012 -42746,44587 -17927,22532 -35863,34022 -54247,34937 -18383,925 -36319,-3671 -53788,-14713 -17926,-10565 -34927,-24820 -51481,-42289 -16553,-17468 -32181,-33554 -46427,-47810l-9192 -8266c-925,-1841 1831,915 9192,8266 3681,2766 6894,5522 9650,7820 2755,2755 3681,4596 3681,5511l-13331 -13331c-1840,-1830 -5521,-6436 -10574,-13787l-18852 -22522c-1830,18841 -7809,35852 -17468,51480 -10107,16096 -19767,31724 -29874,48267 -6436,10575 -12415,21150 -18851,31267 -6437,10565 -13330,19766 -20682,27576 -7819,8276 -16096,14713 -24820,19766 -9202,5054 -19767,6436 -32639,4596 -12415,-1840 -24363,-6436 -35395,-14245 -11500,-7362 -22532,-16096 -33107,-25288 -11032,-9650 -21139,-19767 -30331,-31256 -9660,-11033 -18851,-20682 -27586,-28959 -16086,-14255 -32181,-29884 -47810,-46895 -15628,-17001 -23904,-39065 -24820,-66193zm90099 1354710c-6436,29874 -4138,54704 5979,74471 10574,19766 25277,34937 45044,46427 19766,11032 42756,18383 68034,21606 25745,2756 50565,2756 74928,-925 11499,-1840 24362,-4138 38160,-7351 14245,-3223 27576,-7362 40448,-12873 12873,-5521 25288,-11947 37235,-19309 11490,-7809 21150,-16543 28044,-26203 14713,-20681 19766,-43204 16085,-66651 -3213,-23905 -9191,-45969 -17468,-65736 -10565,-25745 -24363,-49650 -40906,-71257 -16553,-21597 -31724,-44587 -45054,-68491 -915,-916 -2756,-4596 -5511,-11033 -2766,-5978 -5522,-12872 -8735,-20224 -3223,-6894 -5978,-13330 -7819,-19309 -2298,-5979 -3213,-8734 -2298,-8734 3681,925 5521,0 5979,-2756 458,-2755 0,-5521 -1383,-8734 -1373,-3223 -2755,-6436 -4596,-10117l-4138 -8267c-2756,-5979 -5511,-11957 -8734,-17936 -3214,-5969 -6437,-11490 -10107,-17001 -6904,5511 -13798,11032 -20235,16086 -5968,5511 -12862,11032 -20224,16553 -41831,35853 -77226,79524 -105726,131005 -28044,51490 -47353,103896 -57002,156759zm307073 -976380l0 -925 0 925zm5511 5511l1383 0c0,925 0,1841 0,2756 0,-915 0,-1831 0,-2756l-1383 0zm1383 2756l915 1382c-915,0 -915,-457 -915,-1382zm2298 4138l0 -1373 0 1373zm1383 1383c0,1840 457,2755 1372,2755 -915,0 -1372,-915 -1372,-2755z"/>
  <path id="15" class="fil1" d="M1122625 2763478c2756,2755 8267,457 16543,-7352 8735,-7361 14256,-12415 17011,-14255 9192,-4596 18384,-7352 27576,-9192 9659,-1840 19309,-4596 28968,-8277 19767,-4596 39534,-9192 59300,-13788 19767,-5053 39991,-10117 60673,-15628 33096,-9659 65278,-21607 96534,-35395 30799,-13797 61598,-28958 91939,-45054 77226,-40448 138366,-94237 182963,-160888 44129,-67119 75385,-142962 93311,-227091 7352,-32172 8277,-65269 3681,-98833 -5063,-34012 -8734,-67109 -11500,-100673 -4596,-50098 -10564,-99748 -17458,-149398 -7362,-49183 -13798,-99291 -18852,-149399 -2755,-39533 -6894,-79066 -12872,-119056 -5979,-39991 -9192,-79982 -10117,-119515 0,-13340 -458,-27586 -1831,-42756 -1383,-15628 -925,-29884 1373,-43214 1840,-13330 7362,-24820 15171,-33555 8276,-9191 22522,-13787 43213,-13787l4139 0 -4139 0c42289,-926 84120,-2756 126409,-5979 42299,-3213 84587,-5054 127801,-5979 15171,0 34012,-457 56534,-915 22532,-458 43672,1840 63906,6894 20224,5053 37235,12873 51023,24362 13788,11033 20224,28501 18384,51949 -3671,30341 -5512,60214 -5512,90098 0,29416 -1840,59300 -5521,88716 -4138,50565 -11032,100673 -19309,150781 -8734,50565 -16543,100673 -23437,151238 -8277,61598 -16096,123653 -22990,184793 -7351,61598 -15628,123195 -25735,185261 -2766,20681 -4606,41373 -5979,61597 -1382,19767 -2755,39991 -4596,60215 -1840,20224 -4596,40458 -8276,60225 -3681,19766 -9192,38608 -17469,56534 -18851,48267 -40448,96077 -64353,142504 -24363,46895 -51948,91024 -82289,133313 -30799,42288 -63896,81821 -100216,119057 -36310,37235 -76768,70332 -120897,99300 -34012,22064 -68949,43671 -104802,64353 -35862,20682 -70332,42746 -103896,66194 -20682,15170 -43204,26660 -67576,35394 -24363,8277 -48725,16096 -72163,24363 -14255,3681 -28043,5063 -40916,4138 -13330,-915 -27118,-457 -41373,1383 -20682,1840 -37235,-4138 -49650,-17011 -12863,-12873 -22522,-29416 -29874,-48725 -7361,-19309 -12873,-39533 -17469,-60682 -4596,-21140 -8734,-38608 -11957,-53321 -7352,-25746 -12863,-51491 -16543,-77226 -3224,-25745 -8277,-51033 -14713,-76311 -916,-4596 -2756,-7819 -5512,-10117 -2298,-2298 -4596,-5511 -6436,-10107 -1840,-7361 -3223,-14255 -4138,-21607 -925,-7351 -2298,-14713 -4139,-22990 -915,-5511 -1840,-12862 -2755,-22979 -925,-9650 -3681,-17011 -9192,-21607zm669765 -1407106l11947 0 -11947 0zm13330 0l1373 0 -1373 0z"/>
  <path id="16" class="fil1" d="M2373429 1769171c0,-51948 2766,-101588 7819,-148940 5054,-47810 12873,-96993 23905,-147558 4596,-20692 8734,-43671 11948,-68492 3223,-24372 8276,-48267 15638,-70799 7351,-22522 17926,-42289 31714,-60215 13788,-17468 33096,-30341 57917,-38150 45969,-14713 93779,-22532 144344,-23905 50566,-1383 98833,-2766 145260,-4596 44597,-1840 88726,-4138 132855,-6904 44129,-2756 86417,-4596 126876,-6436 23437,-1831 46884,467 70332,7361 22979,6437 45511,15628 67576,26203 20682,8277 40906,15171 60673,21607 19766,6436 39990,13330 60682,21597 17926,8277 39075,17011 63438,27128 24362,9649 47342,21139 68949,34480 21607,12862 39533,28490 53789,46427 14245,17926 21607,39533 21607,64810 915,80449 1830,161356 3213,241795 1382,80907 0,161813 -4596,242262 -1841,40906 -1841,82747 -458,125951 1373,42756 1841,84587 1841,125493l85502 0 0 299722 -86885 0c0,6436 0,13330 -458,21607 -457,7809 -1383,14245 -2298,18841 -3681,30341 -8276,59767 -14255,88268 -5511,28033 -13788,55161 -24820,81364 -10575,26203 -24363,50566 -41374,73545 -16553,22533 -36777,43672 -61140,62523 -27118,19767 -54246,38151 -80906,55162 -27118,17011 -54237,34479 -80907,52405 -23437,16086 -46885,32172 -69407,47343 -22989,15170 -47810,27585 -74928,37702 -26203,9650 -53331,17459 -80906,22980 -27586,5054 -55162,9192 -82290,11947 -27118,2766 -55161,5522 -84119,8277 -28959,2298 -57002,2298 -84120,0 -54246,-5511 -103896,-22980 -148483,-52863 -44587,-29416 -79524,-68949 -105269,-118142 -5054,-11947 -10575,-27576 -16086,-46885 -5979,-19309 -10117,-39075 -12873,-58842 -2298,-20224 -2298,-39990 458,-58842 2756,-18841 10117,-33554 22065,-44586 5521,-5979 13330,-9192 23447,-8735 10107,458 20682,2756 30799,6437 10107,3213 19766,7809 28958,12415 9192,5053 17011,8734 22980,11490 21607,10107 43671,18383 66203,25745 22522,7351 45970,13788 69865,20224 26203,6436 52405,11947 78608,17469 26661,5511 52864,8734 79992,9191 26660,916 53321,-915 79066,-5978 25735,-4596 51023,-13788 75385,-27576 14713,-7819 28501,-16553 41832,-25288 13787,-9192 26660,-18383 39990,-28500 6904,-6437 11958,-11033 16096,-14713 3671,-3671 6436,-10565 8267,-20225 925,-5511 1382,-11032 1382,-16085l0 -18852c-1382,-18841 -4138,-37235 -8734,-54703 -4596,-17469 -8276,-34938 -11490,-51939 -1382,-4596 -2298,-8734 -2755,-12872 0,-3681 -925,-8277 -2298,-12415l-92407 0c-30331,0 -61130,-916 -92396,-2756 -62055,-2756 -123195,-4138 -182953,-4138 -24362,0 -49182,915 -75385,2755 -26203,1841 -50565,-1373 -74013,-9192 -25745,-9191 -48725,-21607 -68959,-37692 -20224,-16554 -40906,-32182 -61130,-46885 -13798,-9202 -26203,-18851 -36778,-29426 -10574,-10575 -19308,-23447 -27128,-38150 -11947,-20224 -20681,-41374 -26660,-63438 -5969,-22065 -10107,-44597 -11947,-67577 -1841,-22979 -2756,-45969 -2756,-69874 0,-23447 458,-46885 1373,-70790 1840,-45969 925,-92396 -2756,-138365 -3681,-46427 -5521,-93322 -5521,-140207zm293743 -234443c-1831,11033 -2756,22990 -2298,35853 467,12872 1383,25287 2765,38160 1373,12405 2756,24362 3671,35395 1841,23447 2756,47352 3223,71247 458,23905 1373,48267 2298,72640 915,44586 1841,88715 2298,132844 458,43672 915,88259 1841,132388 0,12872 1372,25745 4138,39075 2756,12873 6894,24363 12405,34022 5979,9192 13788,17469 24363,24363 10117,6894 23447,10107 39075,10107 19767,925 39991,925 61140,467 20682,-467 41374,-467 62055,-467 73098,0 146643,1382 221571,4138 -4596,-36310 -8735,-72172 -12873,-106642 -4138,-34937 -5969,-70799 -5969,-107109 -925,-45970 -2765,-92397 -5978,-138366 -3223,-46427 -7352,-92397 -12873,-137451 -2756,-22064 -5054,-44587 -7819,-68034 -2756,-23437 -6894,-46427 -11948,-68034 -2755,-13788 -7819,-24820 -14713,-34012 -7351,-9192 -16085,-16553 -26202,-21607 -10108,-5521 -21140,-9659 -32630,-11957 -11499,-2298 -23905,-3213 -37235,-3213l-122737 0c-12873,0 -24831,0 -36778,-458 -11957,-458 -24363,0 -36320,915 -11947,1383 -23437,4596 -33554,9660 -10575,5053 -19767,13330 -27586,25277 -7351,9192 -11490,19309 -13330,30799zm871579 -91939l0 -2755 0 2755zm0 -2755l0 -5521 0 5521z"/>
  <path id="17" class="fil1" d="M3636658 2478012l0 -317190 44129 0c28959,1382 54246,5521 76311,12415 21607,6894 44587,11032 67576,12415 11490,915 22980,915 33555,-458 10574,-925 22522,-2308 34937,-4138 0,-3223 -915,-6437 -2756,-9660 -1840,-3213 -3681,-6436 -5521,-9192 -13330,-48267 -28033,-95619 -44587,-142504 -16553,-46884 -30341,-95152 -40915,-145260 -11948,-51023 -24821,-100673 -39066,-149855 -14255,-49193 -24372,-99758 -30809,-151706 -1830,-13331 -5053,-29416 -9192,-47343 -4596,-18383 -7351,-36320 -8734,-54246 -1373,-17926 468,-34012 5979,-48267 5053,-14713 16553,-24363 33554,-29874 18851,-5063 38618,-5979 60225,-2765 21607,3680 41373,4596 60215,2765 47352,-4606 93779,-11957 139291,-22064 17926,-4606 37235,-9202 57002,-14713 20224,-5054 39065,-2756 57001,6894 11033,5053 18842,12415 24363,21606 5511,9192 8734,19767 10574,31257 1831,11490 2756,22522 2756,34022l0 34012c0,4596 458,16086 1373,33554 925,17936 1840,39533 3223,64821 1383,25745 2756,53321 4138,83205 1373,29873 2756,59299 4596,87343 3681,18383 7809,32629 12415,43671 0,-11957 458,-18394 1373,-20234 1840,-19767 4138,-38608 7362,-55619 3213,-17011 7809,-34937 14245,-52863 19767,-59758 49183,-115844 88258,-168250 39076,-52406 82289,-98375 130099,-137908 24363,-20224 48268,-39991 72163,-60215 23905,-19767 50107,-37235 79066,-51948 25288,-15171 51948,-26661 80906,-34937 28501,-8267 57002,-16544 85045,-25278 56544,-17469 116302,-29884 178825,-37693 62970,-7819 124568,-14713 185708,-19766 27585,-1841 55161,-1841 82747,-468 27585,925 54246,5064 79523,11957 25288,6437 49651,16544 72630,29874 23448,13340 44129,30341 62523,51033 41374,47342 76311,96535 105269,147100 28501,51023 49640,106642 63438,166409 10565,48268 18384,98366 22980,150314 4596,52405 5054,103428 1383,153536 -4139,45512 -6437,90099 -6894,133770 0,43672 1830,88258 5969,133313 1382,19308 1382,38607 0,57459 15628,-2756 31266,-4596 45969,-5521l35395 0 0 317190 -41831 0c-30799,-1841 -57917,-15628 -81365,-40916 -22979,-25278 -41831,-54236 -55618,-86875 -16086,22064 -32182,43203 -47810,63438 -15628,19766 -37235,35852 -64353,47342 -23448,11490 -46427,17468 -68960,18851 -22522,1373 -45501,2756 -68491,3681 -87801,4596 -175601,6894 -264317,6894l-258348 0c-44129,0 -90098,1830 -137451,5053 -47799,3214 -94694,2298 -141121,-2298 -24362,-1840 -49650,-3680 -76311,-5521 -27118,-1830 -50565,-10107 -71247,-24362 -21149,-13331 -37693,-29874 -49650,-50108 -12415,-19767 -24820,-40448 -37235,-61598 -3671,-6436 -8277,-15628 -13788,-27575 -5521,-11958 -11490,-23448 -18384,-34480 -6436,-11032 -14255,-19766 -22532,-26660 -8734,-6437 -17468,-7819 -26203,-4139 -7351,3681 -13788,10575 -19766,20224 -5511,9192 -10575,19767 -14703,30799 -3681,11033 -7819,22065 -11500,33565 -3213,11489 -6436,21139 -9192,28500 -9649,27119 -23447,47343 -39991,61131 -17011,13797 -36320,23904 -57917,30341 -21607,5978 -44139,9659 -68501,10574 -23905,926 -47800,1383 -70790,1383 -16085,915 -31714,915 -46884,0 -15171,-925 -31267,-1840 -48268,-2765l-75395 5521 -37693 0zm703787 -445439c-1383,13788 -2756,29416 -3681,46427 -915,17468 1383,32181 6437,45054 5521,11948 12415,21139 20224,27118 8276,6437 17011,11032 27128,13788 9649,2766 20682,4138 32171,4138l34022 0c22065,0 45045,458 68492,1841 23447,1383 46885,1383 70332,-458 20692,-3681 41373,-9659 61597,-17468 20692,-8277 41374,-13788 62066,-16554 47800,-5053 94694,-7809 140196,-7809 45969,0 92864,-5521 140206,-16096 19767,3681 41831,7819 66204,12415 24362,4596 47342,3681 68491,-2298 21607,-6436 39533,-16543 54236,-31256 14713,-14255 22065,-34480 22065,-60225 1840,-61130 -4596,-122738 -18841,-184335 -14256,-62055 -37693,-118600 -70332,-169623 -15171,-25277 -33097,-49182 -53789,-71714 -20682,-22980 -40906,-46427 -60672,-70790 -15171,-18841 -32182,-36777 -51491,-53778 -18841,-17011 -39533,-30342 -62055,-40459 -23905,-10574 -49650,-16085 -75853,-16085 -26661,0 -53321,3670 -79524,11489 -26660,7820 -52406,17927 -77226,30342 -24362,11947 -47352,24820 -68034,38608 -20691,14713 -41373,30341 -62055,47809 -20692,17011 -39075,36320 -55161,57002 -14256,21149 -26671,43214 -37235,67119 -10117,23447 -19309,46885 -27586,69407 -15171,46437 -28501,93779 -39076,142046 -11032,48268 -21139,96077 -31256,144345z"/>
  <path id="18" class="fil1" d="M5672623 2478012l0 -317190 80907 0 0 -1373 37693 0 8276 2755 1373 0c9660,0 16553,458 20224,916 3223,467 5979,467 7819,467 1383,0 3214,-467 5521,-1840 2298,-1383 6427,-4138 12863,-7819 8734,-4139 15171,-11490 19309,-22065 3681,-10107 5979,-21139 5979,-32171 0,-11500 -1383,-22990 -4139,-34938 -2755,-12415 -4596,-22532 -5521,-30341 -4128,-25287 -6894,-50108 -7351,-74928 -458,-24830 -1373,-48735 -3213,-72172l-9660 -126418c-3213,-42289 -6894,-84578 -10574,-126876 -4596,-46427 -9192,-92854 -13331,-139281 -4596,-45970 -7351,-92397 -7809,-139292 0,-47342 -3223,-94694 -9659,-141579 -5969,-46427 -11490,-93779 -16086,-141121 -3213,-42299 -7352,-83672 -11948,-124578 -4596,-40916 -9201,-82289 -13330,-124578 -1840,-13330 -2298,-26203 -925,-38618 1383,-11947 4596,-22980 10117,-32629 5511,-10117 12873,-18394 22065,-24373 9649,-6436 20681,-9649 33096,-9649 21607,915 43214,1383 64811,1383l65736 0c24373,915 48735,1830 73555,2298 25278,457 49650,-468 74013,-2298 19766,-926 40448,-2298 62513,-4139 22064,-1383 42288,915 60682,8277 11490,5511 19767,12863 25278,22064 5063,9650 8734,19767 10117,30332 1383,11032 1383,22532 458,34937 -916,12872 -1373,24362 -1373,35395 0,22074 -468,45054 -1841,68034 -1382,22532 -3223,45511 -4596,67576 -4605,43214 -6903,86428 -6903,130099 0,43662 -916,87333 -2756,131462 -2756,93322 -6436,186643 -11032,279955 -5054,93322 -9192,187558 -13788,282710 -2756,42289 -5521,85045 -8734,127334 -3224,42746 -6437,85503 -10117,128716 -2298,26203 -4596,51023 -6437,74928 -1840,23905 -6894,49183 -14703,74928 -6904,22522 -17011,43214 -29426,61598 -12405,18851 -25278,37235 -38608,56086 -12415,18842 -25287,37693 -38618,56534 -13330,19309 -28958,35395 -46884,48268 -22065,13330 -44129,21149 -66661,23905 -22065,2755 -45045,3681 -69407,2755 -5064,0 -6894,0 -5064,0 1841,0 4139,0 7362,468 3213,458 4596,915 5053,915 458,458 -2298,458 -8276,458l-51939 5063 -51948 8267 -35394 0 -3681 1383 -73088 0z"/>
  <path id="19" class="fil1" d="M6467424 980340c0,-41364 9659,-71705 28958,-91014 19767,-19309 43214,-32182 71715,-39076 28043,-6436 58384,-9192 90098,-7351 32182,1840 60683,2755 85503,2755 9192,0 22522,0 39991,-457 17936,-458 35394,0 53331,1840 17468,1841 32639,5054 45501,10107 12873,5064 18852,12873 17937,23448 -2766,38617 -3224,77225 -1841,115386 1373,38150 1841,76300 1841,114918 915,44129 0,88258 -2298,132845 -2308,44597 -5064,88726 -7819,132855 -2756,43671 -5522,87800 -8735,132387 -3213,44597 -5053,88726 -5978,132855 -4596,138823 -6437,277189 -5969,414640 457,137450 3671,275816 10107,414640l-6894 39075c-39076,11948 -77226,23905 -114919,35853 -37702,11947 -75853,23905 -114471,35852 -20224,6894 -40905,12873 -62055,17936 -21139,5054 -41831,2298 -62055,-7361 -15171,-6437 -25745,-17011 -31724,-31714 -6426,-14713 -9650,-30799 -10565,-48268 -925,-17468 -467,-35394 915,-53331 1841,-17926 2756,-33554 3681,-47342 915,-39075 2298,-78151 5054,-116759 2298,-38618 4138,-77693 5978,-116769 1373,-39065 2298,-78141 2298,-117216 0,-39076 -1382,-78151 -4596,-117684 -6436,-79982 -11032,-159506 -13330,-238572 -2298,-79066 -3680,-158600 -5063,-239506 -915,-81822 -1841,-162729 -2756,-242253 -915,-79981 -1383,-160888 -1840,-242719z"/>
  <path id="20" class="fil1" d="M7593202 1959018c-7351,-59300 -13330,-117217 -17926,-174218 -4138,-57002 -1383,-115387 8277,-174686 4596,-30332 9192,-60673 14245,-91472 5064,-30341 10117,-61140 14713,-91481 1841,-10117 3213,-22064 4596,-36310 1383,-14255 4138,-28501 8277,-41841 4138,-13330 10107,-24820 18384,-33554 8276,-9192 19309,-12873 33096,-12405 20692,915 42757,7809 65736,20224 22523,12872 43672,22064 62981,28501 24820,8734 49182,17468 73087,24820 24363,7819 47810,16086 70790,24820 21149,7361 40916,14255 59767,20234 19309,6426 38608,14245 58375,22980 11499,4596 22532,9192 32639,13330 10117,4596 18851,10117 25287,17011 6894,6894 11033,15171 12873,24820 1830,10117 458,22522 -4138,37693 -21150,64821 -43214,130099 -66194,196293 -22532,65736 -38160,132387 -45969,199963 -2766,26661 -4596,53321 -5521,79982 -916,26202 -2298,53330 -4139,79991 -1840,20682 1841,36777 10575,48725 9192,11490 20682,19766 34479,24820 13788,5064 29874,7361 47810,7361l48725 0c44129,0 87801,-1840 130547,-5978 43214,-4139 87343,-5979 132397,-5979 36768,925 73545,2766 110323,6436 36777,3681 73545,5521 110780,5521 13798,0 29884,0 48735,458 18384,458 36768,0 54236,-2298 17926,-2298 34022,-7351 48725,-15170 14713,-7352 25288,-19767 31267,-36778 4138,-11032 6893,-23437 7351,-38608 458,-14713 0,-29426 -1383,-44129 -1372,-15171 -3213,-29884 -5968,-44597 -2766,-14713 -4139,-28500 -5064,-40906 -6894,-74012 -14245,-146642 -22064,-218814 -7810,-72630 -13788,-145728 -18384,-220656 -915,-16085 -2756,-36777 -5054,-61597 -2765,-25278 -3223,-50108 -1383,-74013 1841,-24362 6894,-45959 16086,-64811 8735,-18851 24830,-29883 47810,-33554 47352,-8277 96077,-10575 146185,-7362 50565,2766 98833,6894 145260,11033 15170,1840 29883,4138 44586,6436 14713,2298 29884,4138 45055,5979l-20224 278572c-4596,57459 -9660,115376 -15171,173760 -5064,58385 -8734,116302 -10575,173761 -925,27128 -925,53331 -457,79534 457,26193 457,51480 457,76768l0 13330c915,17001 5979,34012 15628,50566 9192,16543 25746,24820 49183,24820l56544 -1383 0 312594 -56544 0c-21597,-925 -39065,-6894 -51938,-17926 -12873,-11032 -23905,-24830 -32182,-42299 -8734,-17468 -15170,-36767 -18841,-57459 -4138,-20682 -8734,-40448 -12873,-59757 -925,-4596 -1840,-8735 -2765,-12415 -915,-3671 -1373,-7809 -1373,-12405 -11490,22979 -22990,47799 -33564,74470 -10565,26660 -24363,49183 -41364,67566 -15171,16554 -32639,28044 -52863,34937 -19777,6894 -40916,11500 -62981,13331 -22522,1840 -45054,2298 -67576,1382 -22522,-915 -43214,-1382 -62055,-1382 -58842,925 -118600,467 -179740,-916 -60682,-1382 -121355,-457 -181579,2298 -62056,2756 -122738,5512 -182495,7820 -59300,2755 -119525,2298 -181122,-926 -33097,-2755 -66652,-4596 -101131,-5511 -34012,-925 -67109,-4596 -99291,-11032 -18383,-3681 -37692,-4138 -58842,-1383 -10107,2756 -19766,5511 -29416,8277 -9659,2755 -19309,915 -29426,-5521 -9192,-5511 -17468,-14246 -24362,-25745 -6437,-11490 -12405,-23895 -17469,-37236 -5053,-13330 -9649,-26660 -13330,-39990 -3671,-13331 -6894,-24820 -10575,-34937 -20224,-60673 -38608,-120440 -55161,-179740 -16086,-59300 -28043,-119972 -35395,-182037zm699191 789289c-925,-6436 -925,-8276 -457,-6894 457,1841 457,4139 457,6894 -1840,-13330 915,-23905 7352,-32171 6436,-7820 15170,-14256 25287,-19309 10107,-4596 21140,-8735 33097,-11033 11948,-2765 22522,-5063 32172,-6894 24830,-5063 49650,-10117 74470,-13797 24363,-4139 49193,-8277 74013,-12873 14255,-2756 24820,-915 32639,4596 7351,5979 12873,13340 16543,22990 3223,9192 5521,19309 5979,29883 458,10565 1840,20682 4138,30799 2298,23905 6894,47800 14713,71705 7352,23905 12405,48735 14713,74928 916,14255 -925,25745 -5978,34022 -4596,8734 -11490,15628 -20225,20224 -8734,5053 -18851,8276 -30341,10117 -11490,1840 -23447,3213 -36320,4138 -24362,3671 -49182,8734 -73545,14703 -23905,6437 -48735,11033 -73097,13798 -20682,2298 -36768,458 -48725,-6436 -11948,-6437 -21140,-16554 -28501,-29884 -6894,-13788 -11490,-28958 -13788,-46885 -2298,-17468 -3223,-35394 -3223,-54246l0 -52405c0,-17469 -458,-32640 -1373,-45970z"/>
  <path id="21" class="fil1" d="M9288998 2278048c0,-7351 -458,-14713 -926,-21607 -457,-6894 0,-13788 926,-20224l0 -75395 17468 0c7809,-3671 16544,-4596 25278,-3213 9192,1382 18394,2755 28501,4595 9659,1841 18851,2298 27585,1841 8277,-458 15629,-4139 22065,-11490 9192,-9659 14713,-21149 17468,-34022 2756,-13330 3681,-26660 3214,-41373 -458,-14246 -1373,-28501 -3671,-42289 -2298,-13788 -4138,-26661 -5064,-38151 -2298,-18851 -5511,-37702 -8734,-56544 -2756,-18851 -5511,-37692 -7351,-56544 -4139,-48725 -7820,-96992 -10575,-144802 -2756,-48267 -10575,-96077 -22980,-143419 -6436,-22532 -11032,-45512 -14713,-68959 -3681,-23438 -6436,-46885 -8277,-71248 -1840,-18851 -4596,-39075 -9191,-60682 -4596,-21607 -4596,-41831 0,-60672 4595,-24831 16553,-43214 36319,-53789 19767,-10575 41364,-15171 64354,-13330 22522,1840 45044,915 68034,-2298 22979,-3223 45969,-5521 68949,-7352 17011,-1840 37235,-4606 61597,-8734 23905,-4138 46895,-5521 68960,-4606 22064,925 40915,6904 57001,17469 15628,10574 23448,30341 23448,59299l0 -1372 0 1372c915,46437 4128,92407 8724,136536 5063,44586 5521,90098 925,136983 -3681,41831 -4596,83662 -2756,125036 1831,41373 3671,83204 5512,125035 925,25288 457,49650 -916,73088 -1382,22989 -2765,46437 -4596,69874 -1840,24363 -2298,48725 -1840,72630 458,24362 -1840,48267 -5979,71715l-4138 16085c17926,8735 36778,13331 56087,13331l62055 0 0 317190 -60215 0c-35405,-1841 -65278,-14246 -89641,-37235 -23905,-22523 -43214,-50108 -57927,-81365 -1830,4596 -4138,8735 -6436,12415 -2756,3671 -5054,7810 -6894,12406 -12405,22532 -29416,41831 -51481,58384 -22064,16543 -44586,25745 -67576,28501 -10575,1840 -20682,1840 -30799,0 -9649,-1841 -19766,-2756 -30341,-2756 -12405,915 -24363,1831 -35852,2756 -11490,915 -23448,1840 -35863,2755 -15160,1841 -31256,4139 -47800,6894 -16553,2766 -32639,1841 -47809,-2755l-2756 0 -41373 0 0 -199964zm25277 682180c-2755,-11957 -4138,-24830 -4596,-39075 -457,-13788 0,-28044 1383,-42757 1373,-15160 1840,-28958 1840,-41831 0,-11947 458,-26203 916,-41831 457,-15628 1382,-30331 3223,-44586 1830,-13788 4596,-26203 8734,-36778 4128,-10575 10565,-18841 19767,-24362 15160,-8277 32629,-11033 52395,-8277 19309,2765 36778,4138 52406,4138 13330,-915 27586,1841 42756,7819 14713,5979 27119,17926 35853,36778 4596,7351 9659,11947 15628,13330 6436,1373 12873,3213 20224,5969 15638,7361 30809,11032 45512,11032 14255,0 29426,-5511 45512,-16543 9649,-6437 23447,-18852 41373,-37693 17926,-18851 36778,-35862 56077,-50108 19309,-14713 38160,-23905 56086,-27586 17927,-4138 31257,5064 39076,27586 8277,22522 13788,48268 17468,77684 3671,28958 7810,57001 12405,84129 5979,32172 7362,60673 3224,84578 -4139,24362 -16554,43214 -37236,57001 -15170,9192 -31256,21607 -47809,36320 -16544,14703 -33097,22980 -49650,24820 -17927,916 -34928,-3213 -51481,-12872 -17011,-9192 -32639,-19309 -47810,-30341 -17468,-11033 -33097,-24363 -47342,-39991 -14256,-16086 -27128,-35395 -39533,-58385 -925,-1830 -2766,-5511 -5521,-10564 -2298,-5064 -5511,-9660 -8277,-13798 -3213,-4138 -6436,-7809 -9192,-10107 -3213,-2298 -5511,-1383 -7351,2298 -4596,8276 -7362,22064 -7820,40906 -915,19309 -2297,34479 -4138,46894 -1840,11033 -6894,19767 -14703,25746 -7819,5968 -17011,10107 -26670,12862 -9650,2766 -19299,5064 -28959,6437 -9192,1382 -16543,2765 -22064,3680 -6894,2756 -15171,5979 -23438,9650 -8734,3681 -17011,6436 -25745,8276 -8277,1841 -17011,2298 -25288,1841 -8734,-458 -16543,-4139 -23437,-11490 -6436,-8277 -11032,-18851 -13798,-30799zm201347 -22064c0,-926 457,-1841 1382,-2298 916,-468 1373,-926 1373,-1841l2766 -6894 0 1373c0,1841 -468,3681 -1841,5979 -1382,2298 -2298,4138 -2298,5053l-1382 -1372zm273518 -1578122l0 -1372 0 1372zm0 -6426l0 -1383 0 1383zm0 -13798l0 -5053 0 5053zm0 -9192l0 -5511 0 5511zm0 -5511l0 -1383 0 1383zm0 -1383l0 -1382 0 1382z"/>
  <path id="22" class="fil1" d="M9830514 1309019c-2298,-13787 -1841,-25277 2298,-35852 4138,-10117 9649,-19766 16543,-28043 7362,-8734 15171,-17011 23905,-24363 8277,-7819 17011,-15170 26203,-22064 17926,-14713 35395,-29416 52406,-44587 17011,-15170 34021,-30341 51023,-44596 19766,-16086 39075,-32172 57926,-48268 18842,-16086 38608,-31714 59300,-45969 18841,-12405 37693,-24820 56077,-36310 18393,-11490 36777,-25288 54703,-40459 58385,-50097 117227,-98365 176984,-144802 59757,-45969 119057,-93311 178357,-142036 8276,-7362 19309,-17937 33564,-31724 14245,-13788 29416,-25278 45044,-34938 16086,-9191 31257,-14245 45970,-14703 14713,-467 27118,8267 37235,26203 8734,17001 14713,36310 17468,57460 2756,20681 5979,40448 10575,58374 4596,18851 9650,37235 14703,56087 5521,18383 11500,36777 17469,55618 6436,18852 12415,37693 17468,56087 5521,18384 10575,36310 15171,54236 3681,17936 7819,36778 13330,56087 5521,19309 7819,38150 6904,57001 -925,18852 -6904,34937 -17469,47810 -11032,13330 -24372,24363 -40000,33097 -15628,9192 -32639,17011 -51023,23447 -18384,6894 -34480,13330 -47810,19767 -17926,7351 -34937,12862 -51481,17468 -16085,4596 -32639,10107 -49650,17469 -17926,10107 -36310,19299 -54703,27576 -18384,8734 -37236,17011 -57002,24820 -32172,15638 -64811,31266 -96993,47352 -32181,16086 -65278,31714 -98375,46885l0 1382 0 -1382c-25277,12872 -37235,28500 -36767,47352 457,18851 6426,38618 18841,59299 11958,20682 26661,40916 43672,60683 17011,19766 29416,36310 37692,49640 25288,42299 51948,81832 80907,119057 28501,37235 55619,77236 80449,119524 24362,40449 50108,79524 77683,117685 27118,38150 54704,76768 82747,114918 12405,18384 25278,36320 38608,54704 12873,18384 25745,36777 38161,54704 6436,7809 12872,17468 20224,28500 7351,10575 12872,22065 17468,34480 4596,11947 6437,23895 5979,35395 -458,11490 -5064,22522 -13798,32639 -15628,16543 -34927,29874 -58832,39066 -23905,9201 -45054,19766 -63906,31723 -21596,15171 -43203,28959 -64810,41832 -21607,13330 -44129,24820 -68492,34937 -20692,9192 -40916,18384 -60225,28043 -19309,9192 -40448,16086 -63895,20682 -22522,4596 -45970,5978 -70790,4596 -24362,-1383 -48267,-1841 -71715,-1841 -30798,0 -61140,-457 -91013,-1373 -29884,-925 -60225,-2297 -91024,-4138l1383 2756 -168250 0 -24362 0 0 -315350 -1383 0c27128,-2756 54704,-2756 82747,0 28501,2766 57002,5979 86428,9660 28958,3670 58374,6893 88258,10107 29416,3223 60215,4138 91471,3223 7362,0 16096,457 27128,1373 10575,925 21140,925 31714,-458 10117,-1373 18852,-4596 26203,-9192 6894,-4138 11490,-11947 13330,-22522 926,-9192 -915,-18851 -4596,-29884 -4138,-10574 -9191,-21149 -15170,-30798 -5511,-10118 -11948,-19767 -19299,-29884 -7362,-9650 -12873,-18384 -17469,-25278l-34937 -62055c-11957,-20692 -23905,-41831 -36320,-63438 -11947,-20692 -25745,-40458 -41373,-59300 -15629,-18851 -30342,-38618 -43672,-59299 -13330,-19767 -26203,-40459 -37693,-61598 -11489,-21607 -22979,-43214 -33554,-64821 -11957,-20682 -23905,-40916 -37235,-60682 -12873,-19767 -24820,-40906 -35395,-63428 -10117,-20234 -20224,-40001 -30341,-58385 -10575,-18384 -22522,-36320 -35852,-53321 -7362,-8734 -15171,-18393 -24373,-28043 -8724,-10117 -17459,-20224 -26193,-30341 -8276,-10575 -15638,-21149 -22074,-32182 -6427,-11490 -10565,-22522 -12405,-33097zm454173 57927l1373 0 -1373 0zm5053 -1382l1383 -1383c0,925 -457,1383 -1383,1383zm6894 -4139l1383 0 -1383 0z"/>
  <path id="23" class="fil1" d="M11065699 2724402c3671,1841 9192,-915 17469,-7351 8267,-6894 13788,-11033 17469,-12873 10107,-4596 19299,-8277 27575,-10575 8735,-2755 17927,-5053 27586,-6893l85035 -22980c3681,0 5979,-468 7819,-1383l27118 -7819c33097,-9192 65736,-20682 97002,-34470 31257,-13797 62513,-28958 92855,-45054 77225,-40448 137908,-93312 182494,-159048 44587,-65735 75854,-139291 93780,-221112 5968,-32182 6894,-65279 2755,-98833 -4596,-33555 -8734,-67576 -12415,-101588 -4138,-49193 -10107,-98833 -16543,-148026 -6894,-49640 -12873,-99290 -18394,-149398 -3213,-39533 -8267,-79524 -13788,-119515 -5978,-40000 -8734,-79533 -8734,-119066 0,-13331 -915,-28034 -2756,-43204 -1840,-15171 -1840,-29426 458,-42757 2298,-13787 7819,-24820 16086,-34012 8734,-8734 22989,-13330 42298,-13330 42289,-925 84120,-2765 126409,-5978 41831,-3224 84587,-5054 127334,-5979 16095,0 35404,-458 57001,-915 22065,-468 43214,1840 63896,6894 20692,5053 37703,12872 51033,24362 13330,11032 19309,28501 17468,52863 -2765,29884 -4138,59300 -4138,89184 0,29416 -1840,59299 -5064,88715 -4595,50108 -11489,100216 -20224,150324 -9192,49640 -17001,99748 -24362,149855 -5054,41374 -10107,82747 -14713,124111 -4596,41373 -9650,82289 -16086,123663 14255,17011 31256,32181 50565,44586 19309,12415 39076,18852 59758,18852l67576 -1383 0 293743 -68949 0c-28501,-915 -55161,-10575 -79066,-29884 -24363,-18841 -44597,-40906 -60683,-65736 -1840,16096 -4138,32182 -7351,47810 -3223,15628 -7819,31724 -14256,47810 -19766,47352 -41373,94694 -65736,141121 -24362,46895 -51480,91481 -81822,134228 -30341,42756 -63895,82289 -100215,119067 -36310,36777 -76301,70332 -120440,99748 -34012,21607 -68491,42756 -104344,63438 -35394,20691 -69874,42756 -104354,67118 -19766,13331 -41373,24820 -65736,34470 -24362,9202 -49182,17011 -74002,23447 -11958,3681 -24363,5054 -37703,4596 -13788,-457 -26660,0 -39066,925l-4138 0c-21607,1831 -38618,-3680 -50565,-17011 -11958,-12872 -22065,-28958 -29426,-47809 -7809,-18852 -13788,-38618 -18384,-59758 -4596,-21149 -8734,-39533 -11957,-54703 -7352,-24820 -12406,-50566 -15629,-76769 -3213,-25745 -7809,-51490 -14245,-76768 -925,-4596 -2756,-7351 -5979,-9192 -3213,-1840 -5053,-5063 -5979,-9659 -1830,-7809 -3670,-15628 -4595,-23438 -1373,-7819 -3214,-14713 -5054,-20691 -915,-5511 -1840,-13788 -2756,-25278 -925,-11032 -3680,-17926 -9192,-20692z"/>
  <path id="24" class="fil1" d="M12262725 2478012l0 -292360 54704 0 84120 9649c20681,-8276 35394,-23447 43213,-45044 5512,-13798 7352,-28043 5512,-43214 -1841,-14713 -3671,-29416 -5512,-44129 -3680,-35395 -7361,-70332 -11032,-104811 -3681,-34480 -8734,-69875 -15170,-105269 -11033,-63439 -21607,-126419 -31724,-189389 -10108,-62523 -19767,-126419 -28959,-190772 -1840,-7361 -3213,-16096 -4596,-25745 -1383,-10117 -2298,-20224 -2298,-30799 0,-10575 1383,-20224 3681,-29416 2298,-9202 5969,-17011 10565,-22990 8734,-9192 15170,-17926 19309,-26660 4138,-8735 8734,-16554 12872,-23448 4596,-6436 10575,-12872 17469,-18383 6894,-5521 17011,-9192 29416,-11948 37235,-6436 76768,-7361 119067,-2308 41831,5064 82279,9202 120439,12873 17001,1840 34470,3681 52864,5063 18384,1373 34469,9192 47810,23905 10564,10565 17001,22980 19299,36768 2298,13330 2298,27585 467,42298 -10575,122728 -22532,245466 -35862,367746 -13330,122738 -20224,245475 -20224,368213 0,26660 457,52863 1382,78609 916,26202 458,51938 -1382,77683 -1841,25288 -6894,47352 -14713,66661 -7809,19767 -22065,37693 -42747,55161 -14255,12873 -31724,21140 -52405,25278 -21150,3681 -40916,6437 -60683,8277 -27576,3681 -54704,6894 -81364,9649 -26660,3224 -53321,5979 -80907,8277 -11032,0 -20224,925 -27575,2298 -7819,1383 -16554,2298 -26203,3681 -9192,1383 -22065,2298 -37235,3213 -15629,925 -35863,1383 -61598,1383zm68949 -1645688c-915,-10117 -457,-20682 1841,-31714 2298,-11042 5978,-22074 11032,-32181 4596,-10575 11490,-19309 20224,-27119 8277,-7361 18851,-11957 31256,-12872l32182 0c12873,0 25745,457 39076,915 13330,458 25745,1840 36777,4596 11490,2756 21139,6894 28959,11957 19766,16086 30798,36310 33554,60673 2755,24362 5063,47352 6894,68959 925,12405 3223,32172 6436,59300 3681,26660 5521,53778 5521,81364 0,27576 -3680,51023 -10574,70789 -7352,19767 -21150,28044 -41831,24363 -13331,-1840 -25288,-3213 -36778,-3681 -11032,-457 -22980,-1373 -35395,-3213 -10574,-915 -22522,-458 -35395,915 -13330,1383 -24820,-457 -34479,-5053 -11490,-5054 -20224,-12873 -26203,-22065 -5969,-9649 -10575,-19766 -14245,-31256 -3681,-11033 -5979,-22522 -6894,-34022 -926,-11948 -1841,-22522 -2298,-32639 -2766,-24821 -5064,-49641 -6437,-74003 -1382,-24363 -2298,-48725 -3223,-74013zm271678 -28501c1841,-25287 9650,-41373 22980,-48267 13340,-7352 32182,-9650 56087,-6894 23447,1840 47352,1840 72630,0 8734,-925 19309,-2298 31724,-4138 12862,-1841 23894,-458 33554,4138 10107,5511 17011,13330 20682,23447 4138,10565 6436,21140 6894,31714 467,11033 -458,22522 -1831,34480 -1840,11947 -3223,22064 -4138,30341 -1841,18841 -2766,41831 -2766,69407 0,27586 -1372,53321 -4596,78151 -3213,24820 -9649,45512 -18841,62513 -9192,17468 -25288,24830 -47352,22989 -9192,0 -20224,916 -33555,2298 -13330,1373 -26660,2298 -39533,2756 -12872,458 -25287,0 -37692,-1383 -11958,-1373 -21150,-5969 -27128,-12862 -7352,-9202 -12406,-19309 -15629,-30342 -3213,-11500 -4596,-23447 -4596,-35862 0,-12405 458,-24820 1383,-37235 915,-11948 1373,-22980 1373,-32629 0,-25288 -2298,-50566 -5969,-75853 -4138,-24821 -5521,-50566 -3681,-76769zm67119 488653l1373 0 -1373 0zm4129 0c1840,915 3680,1373 5521,1373 -1841,0 -3681,-458 -5521,-1373zm6436 1373l2765 0 -2765 0z"/>
  <path id="25" class="fil1" d="M13368279 2453192c-3680,-45512 -3223,-92397 916,-140207 4138,-47809 8276,-94694 12872,-140663 458,-11958 2298,-24363 4596,-37236 2298,-12872 5511,-24830 10107,-35394 4606,-10575 11042,-19767 20234,-27586 8735,-7819 20224,-12415 33555,-14245 21607,-2766 44129,-2766 68034,0 23905,2755 46427,4595 68034,5511 25745,0 51948,0 78151,457 25735,458 51938,1383 78141,3223 19766,1841 40458,4596 61597,7810 21607,3223 42299,3223 62981,457 15628,-2755 27585,-8267 36320,-16086 8266,-8276 14245,-17926 18383,-28958 4139,-11490 5979,-23447 5979,-36320 0,-13330 -925,-25278 -2765,-37235 -2756,-22522 -4596,-44129 -6437,-65269 -1830,-21149 -5053,-41373 -9192,-61140 -4596,-23447 -9649,-45054 -15170,-65278 -5969,-20224 -9650,-41831 -11490,-64353 -1840,-25745 -4138,-51033 -7352,-75396 -2755,-23905 -7819,-48267 -13787,-72630 -9660,-42288 -19309,-84119 -28969,-125950 -9649,-41374 -18384,-84588 -25278,-128259 -1840,-10107 -4138,-20682 -7361,-32629 -3213,-11500 -4596,-23448 -4596,-34938 0,-11499 2298,-22064 6436,-31724 4596,-9191 13331,-15170 26661,-17926 19766,-4596 40458,-5978 62523,-5053 22064,1373 43671,2298 63895,2298 47810,0 95152,915 141589,2755 46427,1841 93312,3213 141579,5054l926 108034c-468,42289 -2766,83195 -5979,123653 -3223,40449 -4596,81822 -4596,124111 0,38618 0,76310 457,113088 458,36777 916,74470 916,113088 1840,44129 1382,87333 -916,130547 -1840,43214 -2298,86885 -457,130557l0 59757c15170,20224 29416,38150 41831,53779 12405,15628 29874,23447 52406,23447l27118 -1383 0 313052 -28501 0c-18851,0 -34937,-4596 -48267,-13331 -13788,-8734 -25288,-19766 -35853,-33096 -10117,-13331 -19766,-28501 -27585,-45512 -8277,-17011 -15629,-34480 -21607,-52863 -7352,10117 -14703,20224 -22523,30341 -7819,10107 -15170,20682 -22522,31714 -24362,34937 -54246,64821 -90098,89641 -17011,11032 -35395,18851 -54704,23905 -19309,4596 -38618,7819 -58384,9191 -19767,1841 -39533,3224 -59758,3681 -20224,458 -39533,1383 -57926,3213 -44130,4596 -88259,5521 -132845,3224 -44587,-2298 -89184,-3224 -134228,-3224 -16096,0 -34479,468 -55161,1383 -20692,915 -40458,-457 -59767,-3213 -19299,-3223 -35853,-9659 -49641,-19309 -14255,-9659 -21606,-26660 -22522,-50565z"/>
  <path id="26" class="fil1" d="M14344192 2478012l0 -317190 105269 0c34937,0 70332,467 105269,1840 35395,1383 71715,2766 109408,4138 6436,-2298 12405,-4138 18383,-4596 5979,-457 12873,-2298 19767,-4595 -15171,-4596 -29874,-10118 -43671,-17011 -13788,-7352 -27119,-15629 -39534,-25278 -33096,-25288 -64810,-55161 -94694,-89183 -29884,-34480 -53779,-71248 -71715,-110781 -21139,-50107 -34469,-102971 -38608,-158600 -4596,-56076 -1840,-111238 7810,-166409 9659,-55161 26202,-108940 49192,-160430 22980,-51481 51023,-98365 83662,-140664 35853,-45044 76311,-84120 122738,-117217 45969,-33096 95152,-60224 147558,-80906 52405,-20682 107109,-33097 164111,-38151 57002,-5063 114461,-2765 171920,7352 56544,9649 108950,28501 158133,56544 48735,28033 94236,61598 136535,101131 10107,8734 22065,21139 35852,36310 13788,15170 26203,31724 36778,49192 11032,17469 17926,34937 21597,53321 3681,17926 -458,33097 -11948,45512 -15170,17926 -33554,32172 -54703,43204 -21150,10575 -41831,20234 -62513,28043 -20692,8277 -40458,17926 -59300,29884 -18851,11490 -40000,16543 -63438,14713 -17011,-1841 -31266,-8277 -42298,-18852 -11033,-10574 -21597,-22064 -30799,-34479 -9650,-11948 -20224,-23437 -31714,-34012 -11958,-11032 -26203,-17469 -43214,-18851 -45044,-4596 -90556,-4139 -137441,1382 -46437,5054 -88268,22065 -125036,51023 -20691,15171 -37235,33097 -49192,53321 -11948,20234 -22065,41374 -29874,63896 -7361,22532 -12872,45512 -16096,69874 -3213,24363 -4595,48268 -4595,71257 0,24363 925,48268 3223,72173 2298,23904 7351,46884 14703,68949 6894,21607 17011,42288 29883,61597 12415,19309 29416,36778 50108,51949 21139,14245 44129,26202 68949,34937 24820,9192 50566,15170 76769,18841 26660,3681 52863,5521 79991,5521 26660,0 52863,-925 78141,-3223 45512,-6436 91939,-13330 139291,-20224 46885,-6436 91471,-22065 133302,-45512 7362,-458 17937,-2755 31267,-6894 13788,-4138 28033,-8267 44129,-11947 16086,-4139 31714,-7819 47342,-11958 15638,-3671 28968,-5511 40458,-5053 11033,457 19309,4138 24820,11032 5522,6894 5979,19309 1383,36778 915,-4596 1373,-6894 1841,-7352 457,-468 0,1830 -1841,7352 -7361,22522 -11490,36309 -12872,41831 -1383,5053 -1383,5511 0,915 1382,-4139 3213,-11032 5978,-20682 2756,-9649 5054,-17011 6894,-22064 -7361,25277 -14713,50565 -22064,76310 -7819,25735 -15171,51023 -22532,75843 -4596,13798 -8267,27586 -11490,42299 -3213,14703 -7352,29416 -12873,44587 -5053,14713 -11947,28958 -20224,42288 -7809,13788 -19309,24820 -33554,33555 -15171,9201 -32182,14713 -50566,16553 -18394,1383 -36320,3213 -53331,6436 -15628,2756 -31256,5054 -46427,7809 -15170,2298 -30799,5064 -47342,7820 -20692,3213 -41831,6893 -63896,10574 -21607,3681 -43213,7352 -64363,10575 -38608,5969 -80906,13788 -126876,22980 -45502,9191 -84577,13330 -116759,12415 -19766,11032 -41373,19309 -65736,24362 -23905,4596 -48725,9650 -74470,14713 -63896,12863 -128706,22065 -194442,27576l-150781 21607 -129632 0z"/>
  <path id="27" class="fil1" d="M15850589 608913c0,-11947 -458,-23447 -1373,-34479 -925,-11032 -468,-21140 1373,-30331 925,-10575 8276,-17469 22532,-19767 14245,-2298 26660,-4596 37225,-5979 -11948,-925 -19767,-2755 -23438,-5521 -4138,-3213 -6436,-7809 -6893,-13788 -926,-6436 -2298,-12872 -4139,-20681 -1383,-7362 -2298,-12873 -2298,-16554 -1840,-18384 -4138,-39075 -7361,-62055 -3213,-22990 -4596,-45512 -4596,-67119 -2756,-14245 -4139,-26203 -4139,-36777 0,-10565 2298,-18842 5979,-24820 4139,-6437 11490,-11033 21607,-14246 10575,-3223 25278,-5521 45044,-6436 26671,-1841 53331,-3681 79534,-6437 26661,-2755 53779,-5521 81364,-8276 5054,0 15629,-1383 31714,-4139 16096,-2755 32182,-5053 49193,-6436 16543,-1840 31714,-1840 45044,0 13330,1383 19767,6894 19767,16096l-2298 4128 0 -1373 2298 -2755c-458,4596 -458,9649 925,16086 1373,6436 2298,12415 3213,17468 925,5511 925,10575 -457,15628 -1383,5054 -5054,8277 -11490,10118 -12415,6436 -27128,9649 -43672,9649l-45054 0c-28501,1383 -57002,2298 -85960,2756 -28501,457 -57459,925 -86885,1840 -8735,0 -14704,4138 -17459,12415 -2766,8277 -3681,18384 -3223,29874 457,11500 1840,26670 4138,45512 2298,18383 3681,28958 4596,30798l0 5521c0,2298 915,9650 2298,22065 1383,12405 3681,20224 6436,23905 2756,3671 9192,6436 18852,7809 7809,1840 19766,0 35852,-5979 16543,-5968 55161,-11032 115844,-15160 60672,-4139 68949,-2766 24820,4596 -43672,7351 -63896,11032 -60215,10107 29874,-5054 59300,-9650 87801,-14703 28033,-4606 57001,-7819 86875,-9660 1840,-1840 3223,0 4138,5979 1383,5979 1841,13788 2298,23447 925,10107 925,20682 1383,31714 0,11490 458,21607 458,30341 1840,12873 2755,24363 3213,35395 467,10575 0,22522 -1831,34937 2298,5512 7809,9192 17001,11490 9202,2298 11033,3681 5521,4596 -5978,925 -6436,1383 -2755,1383 4128,0 7809,-925 10565,-2756 -46885,3671 -81822,6437 -104802,8267 -23447,1840 -28501,5064 -16096,10575 -65268,10117 -109865,17011 -133302,20691 -23447,3671 -47810,7352 -73555,10108 -9650,1382 -20682,3680 -33555,5978 -12872,2298 -24830,4596 -35862,6437 -11032,1372 -23895,457 -37693,-2756 -13787,-3681 -23437,-11957 -28500,-26203 0,-7361 0,-17011 0,-28501 0,-11032 0,-22532 0,-34022zm1382 359479c0,-38618 9192,-67119 27576,-85045 18394,-17926 40916,-29874 67576,-35395 26661,-5978 55162,-8276 85045,-6894 30342,1383 57002,1841 81364,1841 8735,0 22065,0 40459,-458 17926,-467 35852,0 53321,1831 17468,1840 32639,5063 45512,10117 12862,5053 18841,12415 17926,22522 -2766,35862 -4139,71257 -3681,106652 458,35852 458,71247 458,107109 925,41374 457,82737 -916,123195 -1840,40916 -3680,81822 -6436,122738 -2756,40906 -5521,81822 -8277,123195 -2755,41374 -4596,83205 -5511,125494 -3681,130089 -5063,259263 -4596,387064 458,127791 3213,256498 8735,385672l-5979 34937c-37693,11957 -75853,23447 -114461,35395 -38160,11499 -76311,22532 -114004,33564 -18851,6436 -39075,11490 -60224,16086 -21140,4596 -41374,2298 -61140,-6894 -14703,-5979 -25278,-16086 -31257,-29426 -5979,-13330 -9649,-28501 -11032,-45044 -1383,-16554 -1383,-33555 -458,-50566 916,-17011 1383,-31256 1841,-43214 457,-37692 1373,-74470 2755,-110322 1383,-35853 2298,-71715 3213,-107567 926,-36320 1383,-72173 1383,-108493 458,-36310 0,-73087 -1383,-109865 -4128,-74470 -6893,-148940 -7809,-222943 -925,-74013 -1382,-148483 -925,-222953 0,-75386 468,-150313 468,-225709 457,-74928 457,-150313 457,-226624zm384757 -727224l0 -1383 0 1383z"/>
 </g>
</svg>
