<?xml version="1.0" encoding="UTF-8"?>
<!DOCTYPE svg PUBLIC "-//W3C//DTD SVG 1.1//EN" "http://www.w3.org/Graphics/SVG/1.1/DTD/svg11.dtd">
<!-- Creator: CorelDRAW X7 -->
<svg xmlns="http://www.w3.org/2000/svg" xml:space="preserve" width="2.03707in" height="2.94567in" version="1.1" style="shape-rendering:geometricPrecision; text-rendering:geometricPrecision; image-rendering:optimizeQuality; fill-rule:evenodd; clip-rule:evenodd"
viewBox="0 0 1897 2742"
 xmlns:xlink="http://www.w3.org/1999/xlink">
 <defs>
  <style type="text/css">
   <![CDATA[
    .fil2 {fill:#441600}
    .fil3 {fill:#AB5623}
    .fil0 {fill:white}
    .fil4 {fill:#663300;fill-rule:nonzero}
    .fil1 {fill:white;fill-rule:nonzero}
   ]]>
  </style>
 </defs>
 <g id="Layer_x0020_1">
  <metadata id="CorelCorpID_0Corel-Layer"/>
  <path class="fil0" d="M1071 2239c-89,0 -153,18 -191,52 -35,31 -52,78 -53,140 -1,57 15,100 48,131 34,35 94,53 179,53 154,0 235,-61 244,-184 10,-126 -66,-191 -227,-192z"/>
  <path class="fil1" d="M1071 2367c-32,0 -59,3 -81,9l0 0c-13,3 -21,7 -25,10l-1 1c-1,1 -3,4 -4,7 -4,10 -6,23 -6,38l0 1c0,12 1,22 4,30 1,2 2,4 4,6l4 4c2,2 7,4 15,6l0 0c17,5 42,8 73,8l0 0c48,0 82,-7 100,-20l0 0c10,-7 15,-22 17,-45 0,-3 0,-6 0,-11l1 0c0,-14 -2,-22 -6,-25 -10,-9 -32,-15 -66,-18l0 0c-8,0 -17,-1 -29,-1l0 0zm-148 -238l0 0c42,-11 91,-17 148,-17l0 -1c15,0 31,1 48,2l0 0c93,7 165,35 218,83 60,54 90,126 90,215l0 0c0,8 0,19 -1,30 -8,100 -47,176 -119,230l0 1c-63,47 -147,70 -253,70l0 0c-54,0 -102,-6 -144,-18l-1 0c-49,-15 -90,-38 -123,-70 -30,-29 -53,-64 -68,-104 -13,-36 -19,-76 -19,-120 1,-47 8,-89 22,-126 16,-42 41,-78 74,-108l-1 0c35,-30 78,-53 129,-67z"/>
  <path class="fil0" d="M883 134c-120,13 -228,49 -325,108 -179,112 -304,263 -375,449 -71,178 -73,338 -10,482 52,120 165,250 333,391 64,55 123,110 179,166 122,127 176,242 166,349 37,43 96,67 179,73 69,7 137,-2 204,-24 69,-24 105,-51 108,-85 8,-134 -25,-251 -100,-352 -62,-82 -172,-172 -332,-272 -161,-97 -262,-169 -300,-212 -84,-89 -114,-196 -89,-323 27,-130 94,-216 203,-255 321,-120 436,203 527,415 110,254 708,220 458,-428 -65,-155 -170,-280 -317,-372 -78,-48 -160,-81 -245,-99 -85,-19 -174,-22 -264,-11z"/>
  <path class="fil1" d="M896 261c-51,5 -99,16 -144,31 -44,15 -87,35 -128,59l0 0c-76,48 -141,105 -195,169 -54,65 -97,137 -127,217l-1 1c-30,74 -45,144 -46,209 -1,62 11,120 35,175 21,48 55,100 103,156 51,59 116,122 195,188l2 2c29,25 61,53 95,85 30,28 60,56 90,86l2 3c71,73 123,145 156,215 25,53 40,105 45,157 16,5 36,9 61,11l2 1c25,2 50,1 76,-2l0 0c26,-3 52,-9 76,-17l1 0c8,-3 15,-6 21,-8 0,-39 -5,-76 -15,-110 -12,-44 -33,-84 -60,-121 -25,-33 -61,-69 -108,-108 -50,-40 -112,-84 -188,-131l0 0c-79,-48 -146,-92 -202,-132 -57,-40 -99,-74 -124,-102l-1 0c-56,-60 -95,-127 -116,-202 -20,-73 -21,-152 -5,-235 18,-85 50,-157 96,-216 49,-61 112,-106 189,-133l1 0c415,-154 561,189 670,447l17 38 0 0c18,42 70,67 125,69 24,1 47,-2 68,-11 19,-8 35,-20 48,-36 43,-57 51,-167 -19,-351l0 0c-28,-66 -63,-125 -107,-177 -44,-51 -97,-96 -158,-135l0 0c-33,-20 -67,-37 -102,-51 -34,-14 -69,-25 -103,-32 -37,-8 -73,-13 -109,-14 -36,-2 -74,0 -114,5l-2 0zm-225 -211c63,-21 129,-35 196,-43l0 0c51,-6 103,-8 155,-6 52,2 103,8 152,19 50,11 99,26 146,45 47,19 93,42 138,70l2 1c84,53 157,116 218,187 62,74 112,155 149,244l1 3c109,283 77,479 -15,600 -42,55 -95,94 -153,118 -56,23 -116,33 -176,30 -146,-6 -291,-88 -350,-224l0 0 -16 -38c-69,-162 -161,-378 -349,-307l-2 1c-31,11 -56,28 -75,51 -21,27 -36,63 -46,108 -9,44 -8,83 1,117 9,33 28,64 55,93l3 3c13,15 41,38 83,68 44,31 107,71 188,120l2 1c83,52 155,103 216,152 63,52 113,103 150,152 47,63 81,131 102,204 20,72 28,150 23,231l0 2c-4,55 -30,100 -77,138 -30,23 -69,42 -117,58l0 0c-42,15 -84,25 -127,30l0 0c-41,5 -84,6 -128,2l0 0c-54,-4 -102,-15 -145,-33 -49,-20 -89,-48 -120,-84l-36 -41 5 -55c3,-30 -4,-64 -22,-101 -21,-45 -57,-93 -107,-146 -26,-26 -54,-52 -84,-80 -25,-23 -54,-50 -89,-80l0 0c-88,-74 -162,-146 -223,-216 -64,-75 -112,-148 -143,-220 -39,-88 -58,-182 -56,-281 2,-96 23,-195 64,-298l0 0c41,-107 97,-203 169,-289 70,-84 156,-158 257,-221l1 -1c57,-35 117,-63 180,-84z"/>
  <g id="_1908684784">
   <path class="fil2" d="M1061 2251c-89,0 -153,17 -191,51 -35,29 -52,75 -53,135 -1,55 15,97 48,126 34,35 94,52 180,52 153,0 234,-59 243,-178 10,-122 -66,-185 -227,-186z"/>
   <path class="fil2" d="M873 214c-119,13 -228,48 -325,105 -178,108 -303,254 -375,434 -71,173 -73,328 -10,466 53,117 165,243 333,379 64,53 123,106 179,161 122,122 177,234 166,337 37,42 96,65 179,71 69,7 138,-2 205,-24 69,-22 105,-49 107,-82 8,-129 -25,-243 -100,-340 -62,-80 -172,-167 -332,-263 -161,-94 -262,-164 -300,-206 -84,-86 -114,-190 -88,-313 26,-125 93,-208 203,-246 321,-116 435,197 527,401 110,246 707,214 457,-413 -64,-150 -170,-271 -317,-360 -78,-47 -160,-79 -245,-97 -85,-17 -173,-21 -264,-10z"/>
  </g>
  <path class="fil3" d="M1074 2168c-89,0 -153,17 -191,50 -35,30 -52,75 -53,136 -1,55 15,96 47,126 35,34 95,51 180,51 154,0 235,-58 244,-177 10,-122 -66,-186 -227,-186z"/>
  <path class="fil4" d="M1074 2181c-43,0 -80,4 -111,12 -30,8 -54,20 -72,35l0 0c-16,14 -28,31 -36,51l0 0c-8,21 -12,46 -12,75 -1,26 3,48 10,68 7,19 18,35 33,49l1 0c15,16 37,27 65,35 28,8 64,13 105,13l0 0c74,0 131,-14 169,-42 37,-27 58,-68 63,-124 0,-6 0,-12 0,-19l0 0c0,-45 -14,-81 -42,-106 -29,-25 -73,-41 -133,-45l0 0c-13,-1 -27,-2 -40,-2zm-118 -12c33,-9 73,-13 118,-13 15,0 29,0 42,1 65,5 115,23 148,52 34,30 51,72 51,125l0 0c0,7 0,14 -1,21 -5,63 -29,111 -73,143 -43,31 -104,46 -184,46l0 0c-44,0 -81,-4 -112,-13 -32,-9 -58,-23 -76,-42 -18,-16 -31,-35 -40,-58 -8,-23 -12,-48 -12,-77 0,-32 5,-60 15,-84l0 0c9,-25 24,-45 43,-61l0 0c20,-18 48,-32 81,-40l0 0z"/>
  <path class="fil3" d="M886 131c-120,12 -228,48 -325,105 -179,108 -304,253 -375,434 -71,172 -73,327 -10,466 52,116 165,243 333,379 63,53 123,106 179,160 122,123 176,235 166,338 37,41 96,65 179,71 69,6 137,-2 204,-24 69,-22 105,-49 108,-82 8,-129 -25,-243 -100,-340 -62,-80 -172,-167 -332,-263 -161,-95 -262,-164 -300,-206 -84,-86 -114,-190 -89,-313 27,-125 94,-208 203,-246 321,-116 436,197 527,401 110,246 708,214 458,-413 -65,-150 -170,-271 -317,-361 -78,-46 -160,-78 -245,-96 -85,-18 -174,-21 -264,-10z"/>
  <g>
   <path class="fil4" d="M887 154c-58,7 -113,18 -165,35 -52,17 -102,39 -149,67l-1 1c-87,52 -160,114 -221,184 -61,70 -109,150 -144,237l0 1 0 0c-34,83 -52,162 -53,237 -1,74 13,144 43,211 25,56 66,114 120,175 55,63 124,127 207,194l0 1 0 0c31,26 62,52 93,80l0 0 0 0c30,27 59,54 87,81l1 1c63,63 108,124 137,182 27,56 39,111 36,164 15,14 34,26 57,35 27,11 61,18 100,21l2 0c32,3 64,2 96,-2 33,-3 65,-11 97,-21 32,-11 56,-22 72,-34l1 -1c12,-9 18,-18 18,-27l1 -1c3,-61 -3,-119 -19,-173 -15,-54 -41,-104 -77,-150 -30,-38 -71,-78 -125,-121 -54,-43 -121,-89 -200,-136l-1 0c-80,-48 -145,-88 -195,-123 -52,-35 -88,-64 -109,-87l0 0c-45,-46 -75,-96 -91,-152 -16,-56 -17,-116 -4,-181l0 -1 0 0c14,-66 40,-122 76,-166 37,-44 84,-77 142,-97l0 0c323,-117 448,166 541,377l16 37 1 1c35,78 127,125 220,127 38,1 77,-5 112,-20 34,-14 65,-37 89,-69 61,-81 77,-221 -8,-434l0 0c-31,-73 -73,-139 -124,-197 -51,-59 -112,-109 -183,-152l0 0c-38,-23 -77,-42 -116,-57 -40,-16 -81,-28 -122,-37 -41,-8 -83,-14 -126,-15l-1 0c-42,-2 -85,0 -130,5l-1 0zm-179 -10c55,-18 113,-30 174,-36l1 -1c46,-5 92,-7 137,-5l1 0c45,2 90,7 134,16 44,9 87,22 129,39 42,16 83,36 123,60l0 0 0 0c76,46 140,100 194,161 55,63 99,133 132,210l0 0 1 1c92,232 72,388 2,480 -29,39 -67,67 -109,84 -41,18 -86,26 -131,24 -110,-3 -219,-59 -262,-154l-1 -2 -16 -37c-86,-194 -200,-454 -482,-352l0 0 0 0c-50,18 -91,45 -122,83 -31,38 -53,87 -66,146l0 0c-12,58 -11,111 3,159 14,48 40,92 80,132l0 0 0 1c18,20 52,47 101,80 50,35 115,75 193,121l1 1c81,48 149,95 205,139 57,45 101,88 133,130 40,50 68,105 85,165 18,59 25,122 21,189l-1 2c-1,23 -14,43 -36,60l-2 2c-20,15 -48,28 -85,41 -35,11 -71,19 -107,23l0 0c-35,4 -70,5 -105,2l-2 0c-43,-4 -81,-12 -113,-24 -34,-14 -61,-32 -82,-55l1 0c-5,-5 -7,-11 -6,-18 4,-48 -6,-97 -31,-149 -27,-54 -69,-110 -128,-170 -28,-26 -57,-53 -87,-80l1 0c-29,-25 -59,-52 -92,-79l0 0c-85,-69 -156,-135 -212,-199 -58,-65 -101,-128 -128,-188 -33,-73 -48,-149 -47,-231 2,-80 20,-165 57,-254 37,-93 87,-177 152,-251 63,-74 141,-138 231,-193l2 -1c50,-30 103,-54 159,-72zm-544 517l0 0 0 0 0 0zm541 998l0 0 0 0z"/>
  </g>
 </g>
</svg>
