<?xml version="1.0" encoding="UTF-8"?>
<!DOCTYPE svg PUBLIC "-//W3C//DTD SVG 1.1//EN" "http://www.w3.org/Graphics/SVG/1.1/DTD/svg11.dtd">
<!-- Creator: CorelDRAW X7 -->
<svg xmlns="http://www.w3.org/2000/svg" xml:space="preserve" width="5.56833in" height="2.83132in" version="1.1" style="shape-rendering:geometricPrecision; text-rendering:geometricPrecision; image-rendering:optimizeQuality; fill-rule:evenodd; clip-rule:evenodd"
viewBox="0 0 9772 4969"
 xmlns:xlink="http://www.w3.org/1999/xlink">
 <defs>
  <style type="text/css">
   <![CDATA[
    .str4 {stroke:#1A1A1A;stroke-width:77.2986;stroke-linecap:round;stroke-linejoin:round}
    .str5 {stroke:gray;stroke-width:77.2986;stroke-linecap:round;stroke-linejoin:round}
    .str3 {stroke:#990000;stroke-width:77.2986;stroke-linecap:round;stroke-linejoin:round}
    .str0 {stroke:#1A1A1A;stroke-width:77.2986;stroke-linecap:round;stroke-linejoin:round}
    .str1 {stroke:gray;stroke-width:77.2986;stroke-linecap:round;stroke-linejoin:round}
    .str2 {stroke:gray;stroke-width:77.2986;stroke-linecap:round;stroke-linejoin:round}
    .fil0 {fill:none}
    .fil11 {fill:#333333}
    .fil10 {fill:gray}
    .fil6 {fill:#CCCCCC}
    .fil9 {fill:#990000;fill-rule:nonzero}
    .fil8 {fill:url(#id0)}
    .fil2 {fill:url(#id1)}
    .fil12 {fill:url(#id2)}
    .fil4 {fill:url(#id3)}
    .fil14 {fill:url(#id4)}
    .fil3 {fill:url(#id5)}
    .fil7 {fill:url(#id6)}
    .fil1 {fill:url(#id7)}
    .fil13 {fill:url(#id8)}
    .fil5 {fill:url(#id9)}
   ]]>
  </style>
  <radialGradient id="id0" gradientUnits="userSpaceOnUse" gradientTransform="matrix(-0.820943 -1.09109 0.212446 -0.695166 13581 11917)" cx="7700.04" cy="2073.92" r="361.814" fx="7700.04" fy="2073.92">
   <stop offset="0" style="stop-opacity:1; stop-color:red"/>
   <stop offset="1" style="stop-opacity:1; stop-color:#AD0505"/>
  </radialGradient>
  <radialGradient id="id1" gradientUnits="userSpaceOnUse" gradientTransform="matrix(1.10658 -0.0691258 0.0321641 0.711999 -928 976)" cx="8279.38" cy="1402.48" r="634.197" fx="8279.38" fy="1402.48">
   <stop offset="0" style="stop-opacity:1; stop-color:#FEFEFE"/>
   <stop offset="0.721569" style="stop-opacity:1; stop-color:#D8D8D8"/>
   <stop offset="1" style="stop-opacity:1; stop-color:#B3B3B3"/>
  </radialGradient>
  <radialGradient id="id2" gradientUnits="userSpaceOnUse" gradientTransform="matrix(1.14637 0.105678 -0.0809143 0.877904 -53 125)" cx="1771.92" cy="2555.23" r="998.643" fx="1771.92" fy="2555.23">
   <stop offset="0" style="stop-opacity:1; stop-color:#FEFEFE"/>
   <stop offset="0.721569" style="stop-opacity:1; stop-color:#F0F0F0"/>
   <stop offset="1" style="stop-opacity:1; stop-color:#E2E2E2"/>
  </radialGradient>
  <radialGradient id="id3" gradientUnits="userSpaceOnUse" gradientTransform="matrix(-0.371279 0.544863 -1.62941 -0.48251 11263 4096)" cx="3431.85" cy="4024.27" r="945.782" fx="3431.85" fy="4024.27">
   <stop offset="0" style="stop-opacity:1; stop-color:white"/>
   <stop offset="0.721569" style="stop-opacity:1; stop-color:#E5E5E5"/>
   <stop offset="1" style="stop-opacity:1; stop-color:#CCCCCC"/>
  </radialGradient>
  <radialGradient id="id4" gradientUnits="userSpaceOnUse" gradientTransform="matrix(0.0723259 -1.08983 0.491745 -0.310287 1180 6641)" xlink:href="#id0" cx="2747.67" cy="2783.29" r="452.316" fx="2747.67" fy="2783.29">
  </radialGradient>
  <radialGradient id="id5" gradientUnits="userSpaceOnUse" gradientTransform="matrix(1.13836 -8.76505E-006 1.99415E-005 1.23885 -693 -488)" xlink:href="#id2" cx="5008.93" cy="2044.2" r="3466.74" fx="5008.93" fy="2044.2">
  </radialGradient>
  <radialGradient id="id6" gradientUnits="userSpaceOnUse" gradientTransform="matrix(-0.023721 -0.425943 1.04031 -0.0415283 2244 5019)" xlink:href="#id0" cx="5007.39" cy="2770.84" r="2707.69" fx="5007.39" fy="2770.84">
  </radialGradient>
  <radialGradient id="id7" gradientUnits="userSpaceOnUse" gradientTransform="matrix(1.13389 0.104524 -0.134395 1.45801 -879 -1592)" xlink:href="#id2" cx="8178.49" cy="1609.51" r="720.678" fx="8178.49" fy="1609.51">
  </radialGradient>
  <radialGradient id="id8" gradientUnits="userSpaceOnUse" gradientTransform="matrix(1.03636 0.0459869 -0.0231177 0.609014 -14 850)" xlink:href="#id1" cx="1911.73" cy="2397.57" r="938.728" fx="1911.73" fy="2397.57">
  </radialGradient>
  <radialGradient id="id9" gradientUnits="userSpaceOnUse" gradientTransform="matrix(0.847274 1.0431 -1.69028 0.679633 7541 -6628)" xlink:href="#id3" cx="7515.96" cy="3782.47" r="564.402" fx="7515.96" fy="3782.47">
  </radialGradient>
 </defs>
 <g id="Layer_x0020_1">
  <metadata id="CorelCorpID_0Corel-Layer"/>
  <g>
   <path class="fil0 str0" d="M7729 1903l-170 -438c0,0 1095,-717 1427,-27 139,410 -781,818 -1081,850 133,-14 -154,-331 -176,-385z"/>
   <path id="1" class="fil1" d="M7729 1903l-170 -438c0,0 1095,-717 1427,-27 139,410 -781,818 -1081,850 133,-14 -154,-331 -176,-385z"/>
  </g>
  <g>
   <path class="fil0 str1" d="M7729 1903l-170 -438c0,0 1095,-717 1427,-27 139,410 -781,818 -1081,850 133,-14 -154,-331 -176,-385z"/>
   <path id="1" class="fil2" d="M7729 1903l-170 -438c0,0 1095,-717 1427,-27 139,410 -781,818 -1081,850 133,-14 -154,-331 -176,-385z"/>
  </g>
  <g>
   <path class="fil0 str2" d="M2820 3589c0,0 35,42 -106,98 -31,12 -71,26 -123,39 -280,75 -1074,464 -310,938 764,474 1447,191 1565,87 61,-55 145,-131 210,-192 60,-55 105,-97 105,-97 384,203 2069,314 2756,-171 0,0 307,28 628,152 0,0 562,236 961,84 408,-155 575,-807 85,-1004 -111,-44 -262,-65 -468,-37 0,0 -552,130 -598,-163l-168 -593c-277,-1123 -201,-1351 -1421,-1799 114,-576 -563,-892 -1047,-892 -517,0 -1234,369 -1025,973 -1727,817 -694,1019 -1044,2577z"/>
   <path id="1" class="fil3" d="M2820 3589c0,0 35,42 -106,98 -31,12 -71,26 -123,39 -280,75 -1074,464 -310,938 764,474 1447,191 1565,87 61,-55 145,-131 210,-192 60,-55 105,-97 105,-97 384,203 2069,314 2756,-171 0,0 307,28 628,152 0,0 562,236 961,84 408,-155 575,-807 85,-1004 -111,-44 -262,-65 -468,-37 0,0 -552,130 -598,-163l-168 -593c-277,-1123 -201,-1351 -1421,-1799 114,-576 -563,-892 -1047,-892 -517,0 -1234,369 -1025,973 -1727,817 -694,1019 -1044,2577z"/>
  </g>
  <path class="fil4" d="M2708 3689c-30,12 -69,24 -117,37 -280,75 -1074,464 -310,938 764,474 1447,191 1565,87 61,-55 145,-131 210,-192 51,-46 91,-84 102,-94 -276,-352 -803,-642 -1450,-776z"/>
  <path class="fil5" d="M7294 4362c79,21 164,47 251,81 0,0 562,236 961,84 408,-155 575,-807 85,-1004 -111,-44 -262,-65 -468,-37 0,0 -146,35 -295,28 75,337 -185,550 -541,670 -357,121 -3,120 7,178z"/>
  <path class="fil6" d="M7254 4352c89,22 190,52 291,91 0,0 562,236 961,84 295,-112 464,-484 350,-756 -206,703 -1164,615 -1602,581z"/>
  <path class="fil6" d="M1973 4170c-48,144 16,313 308,494 764,474 1447,191 1565,87 61,-55 145,-131 210,-192 49,-44 87,-80 100,-92 -669,389 -1859,219 -2183,-297z"/>
  <g>
   <path class="fil0 str3" d="M2694 3285l-124 200c0,0 2285,976 4927,-205 0,0 125,-66 178,-151 77,-125 -107,-231 -200,-352l-175 -228 381 -123c0,0 304,133 305,-157l-349 -507 -574 211c0,0 -758,-70 -994,-92 -122,-11 -71,256 -102,491 -119,915 -1574,-234 -1932,-467 0,0 -478,35 -675,175 0,0 -334,180 -495,218l-243 57c486,320 69,962 72,930z"/>
   <path id="1" class="fil7" d="M2694 3285l-124 200c0,0 2285,976 4927,-205 0,0 125,-66 178,-151 77,-125 -107,-231 -200,-352l-175 -228 381 -123c0,0 304,133 305,-157l-349 -507 -574 211c0,0 -758,-70 -994,-92 -122,-11 -71,256 -102,491 -119,915 -1574,-234 -1932,-467 0,0 -478,35 -675,175 0,0 -334,180 -495,218l-243 57c486,320 69,962 72,930z"/>
  </g>
  <g>
   <path class="fil8" d="M7388 1632c0,0 0,0 0,0 -78,55 -124,193 -42,241 218,126 339,321 399,559 24,92 164,95 242,39 0,0 0,0 0,0 78,-55 78,-153 42,-241 -90,-217 -217,-408 -399,-559 -73,-61 -164,-95 -242,-39z"/>
   <path id="1" class="fil9" d="M7393 1638l-5 -6 0 0 0 0 0 0 0 0 0 0 0 0 0 0 0 0 0 0 0 0 0 0 0 0 0 0 0 0 0 0 0 0 0 0 0 0 0 0 0 0 0 0 -4 -7 9 13zm-43 228l-8 14 0 0 -8 -6 -7 -5 -6 -6 -6 -7 -5 -7 -4 -8 -4 -8 -2 -8 -2 -8 -2 -9 -1 -9 0 -9 0 -9 1 -9 2 -9 1 -10 3 -9 3 -9 3 -9 4 -9 4 -9 4 -9 5 -9 6 -8 5 -8 6 -8 6 -8 7 -7 7 -7 7 -7 7 -6 8 -6 9 13 -7 5 -7 6 -6 6 -6 7 -6 6 -6 7 -6 8 -5 8 -5 7 -4 8 -5 9 -3 8 -4 9 -3 8 -3 9 -2 8 -2 9 -1 8 -1 8 0 8 0 8 1 8 1 8 2 7 2 7 3 6 4 6 4 6 4 6 6 5 6 5 6 4 0 0zm403 564l-15 4 0 0 -6 -22 -6 -22 -7 -21 -7 -21 -7 -21 -8 -21 -8 -21 -8 -20 -9 -20 -9 -19 -10 -19 -10 -19 -11 -19 -11 -18 -11 -18 -12 -18 -12 -17 -13 -18 -13 -16 -14 -17 -14 -16 -15 -15 -15 -16 -15 -14 -17 -15 -16 -14 -17 -14 -18 -14 -18 -13 -19 -12 -20 -13 -20 -11 8 -14 21 12 19 12 20 13 18 14 18 13 18 15 17 14 17 15 16 15 15 16 15 16 14 16 14 17 14 17 13 17 12 18 13 18 11 18 11 19 11 19 10 19 10 20 9 20 9 20 9 21 8 20 8 21 7 22 7 21 7 22 6 22 6 22 0 0zm229 35l10 13 0 0 -8 5 -8 5 -9 4 -9 4 -9 4 -9 4 -9 3 -9 2 -10 2 -10 2 -9 1 -10 1 -10 1 -9 0 -10 0 -9 -1 -9 -1 -10 -2 -8 -2 -9 -3 -8 -3 -9 -4 -7 -4 -8 -5 -7 -5 -6 -6 -6 -6 -5 -7 -5 -7 -4 -8 -4 -9 -2 -9 15 -4 2 8 3 7 4 7 4 6 4 6 5 5 6 5 6 4 6 4 7 4 7 3 7 3 8 2 8 2 8 2 8 1 9 1 9 0 9 0 9 0 9 -1 9 -2 9 -1 8 -2 9 -3 9 -2 8 -4 9 -3 8 -4 7 -4 8 -4 7 -5 0 0zm0 0l5 6 0 0 0 0 0 0 0 0 0 0 0 0 0 0 0 0 0 0 0 0 0 0 0 0 0 0 0 0 0 0 0 0 0 0 0 0 0 0 0 0 0 0 5 7 -10 -13zm39 -232l15 -6 0 0 4 9 3 8 3 9 2 8 3 9 2 8 2 9 1 9 2 8 1 9 1 8 0 9 0 8 0 9 -1 8 0 9 -2 8 -1 8 -2 8 -2 8 -3 8 -3 7 -4 8 -4 7 -4 7 -5 7 -5 7 -6 7 -6 6 -6 6 -7 6 -7 6 -10 -13 7 -5 6 -6 6 -5 5 -6 6 -6 4 -6 4 -6 4 -7 4 -6 3 -7 3 -7 2 -7 2 -7 2 -7 2 -8 1 -7 0 -8 1 -8 0 -8 0 -8 0 -8 -1 -8 -1 -8 -1 -8 -2 -8 -2 -8 -2 -8 -2 -8 -3 -9 -2 -8 -3 -8 -4 -8 0 0zm-396 -556l10 -12 0 0 17 14 17 15 16 15 16 15 16 15 15 15 15 16 15 16 15 16 14 17 14 16 13 17 14 17 13 17 13 18 12 17 13 18 12 18 11 18 12 19 11 18 11 19 11 19 10 19 10 19 10 19 10 20 10 20 9 20 9 20 9 20 8 20 -15 6 -8 -20 -9 -20 -9 -20 -9 -20 -9 -19 -10 -20 -10 -19 -10 -19 -10 -19 -11 -18 -11 -19 -11 -18 -11 -18 -12 -18 -12 -18 -12 -18 -12 -17 -13 -17 -13 -17 -13 -17 -14 -17 -13 -16 -14 -16 -15 -16 -14 -16 -15 -16 -16 -15 -15 -15 -16 -15 -16 -15 -17 -14 -16 -14 0 0zm-232 -39l-9 -13 0 0 7 -5 8 -5 8 -4 8 -3 8 -3 8 -3 8 -2 8 -2 8 -1 9 -1 8 0 8 0 8 0 8 1 9 1 8 2 8 2 8 2 8 3 8 3 8 3 8 3 8 4 7 4 8 4 7 5 8 5 7 5 8 5 7 5 7 6 7 6 -10 12 -7 -6 -7 -5 -7 -5 -7 -5 -7 -5 -7 -5 -7 -4 -7 -4 -8 -4 -7 -3 -7 -4 -8 -3 -7 -2 -8 -3 -7 -2 -8 -2 -7 -1 -8 -1 -7 -1 -7 0 -8 0 -7 0 -7 1 -8 1 -7 1 -7 2 -8 2 -7 3 -7 4 -7 3 -7 4 -7 5 0 0z"/>
  </g>
  <path class="fil10" d="M7212 4181c0,-1 -629,275 -1378,397 -164,26 -329,39 -492,37 -740,-7 -1315,-193 -1316,-192 872,445 2240,346 3186,-242z"/>
  <path class="fil11" d="M9380 1215c-161,-241 -493,-318 -431,-353 62,-35 351,71 511,311 160,241 132,525 70,560 -63,35 10,-278 -150,-518z"/>
  <path class="fil11" d="M9646 1037c-102,-152 -313,-201 -273,-223 39,-22 222,45 324,197 101,153 83,333 44,355 -40,22 6,-176 -95,-329z"/>
  <g>
   <path class="fil0 str4" d="M994 2838c280,337 1371,391 1765,321 0,0 326,-392 -137,-804 -446,-122 -799,-288 -1271,-191 -342,70 -659,241 -357,674z"/>
   <path id="1" class="fil12" d="M994 2838c280,337 1371,391 1765,321 0,0 326,-392 -137,-804 -446,-122 -799,-288 -1271,-191 -342,70 -659,241 -357,674z"/>
  </g>
  <g>
   <path class="fil0 str5" d="M994 2838c280,337 1371,391 1765,321 0,0 326,-392 -137,-804 -446,-122 -799,-288 -1271,-191 -342,70 -659,241 -357,674z"/>
   <path id="1" class="fil13" d="M994 2838c280,337 1371,391 1765,321 0,0 326,-392 -137,-804 -446,-122 -799,-288 -1271,-191 -342,70 -659,241 -357,674z"/>
  </g>
  <g>
   <path class="fil14" d="M2800 2239c0,0 0,0 0,0 -95,-9 -220,66 -189,155 83,238 46,465 -63,685 -42,84 62,178 157,187 0,0 0,0 0,0 96,9 160,-66 189,-155 74,-224 102,-451 63,-685 -15,-93 -62,-178 -157,-187z"/>
   <path id="1" class="fil9" d="M2799 2247l1 -8 0 0 0 0 0 0 0 0 0 0 0 0 0 0 0 0 0 0 0 0 0 0 0 0 0 0 0 0 0 0 0 0 0 0 0 0 0 0 0 0 0 0 1 -8 -2 16zm-181 145l-15 5 0 0 -3 -9 -1 -9 -1 -9 0 -9 1 -9 2 -8 2 -8 3 -8 4 -8 5 -7 5 -8 6 -7 6 -6 6 -7 8 -6 7 -6 8 -5 8 -5 9 -5 8 -4 9 -4 10 -4 9 -4 9 -3 10 -2 10 -2 9 -2 10 -1 10 -1 10 0 9 0 10 0 -2 16 -8 0 -9 -1 -9 1 -9 1 -9 1 -9 1 -9 2 -9 3 -9 3 -9 3 -8 3 -9 4 -8 4 -8 5 -7 4 -7 5 -7 6 -7 5 -6 6 -5 6 -5 6 -5 6 -4 7 -3 6 -3 7 -2 7 -1 7 -1 7 0 7 1 8 1 7 2 8 0 0zm-63 690l-15 -7 0 0 10 -20 10 -21 9 -21 9 -20 8 -21 8 -21 7 -20 7 -21 6 -21 6 -21 5 -21 5 -21 4 -21 4 -21 3 -21 2 -21 2 -21 2 -21 1 -21 0 -22 0 -21 -1 -22 -2 -21 -2 -22 -2 -21 -4 -22 -4 -22 -5 -21 -5 -22 -6 -22 -7 -22 -7 -22 15 -5 8 22 7 23 6 22 5 22 5 22 4 23 4 22 2 22 2 22 2 22 1 21 0 22 0 22 -1 22 -2 21 -2 22 -2 22 -3 21 -4 21 -5 22 -4 21 -6 21 -6 22 -6 21 -7 21 -7 21 -8 21 -8 21 -9 21 -9 21 -10 20 -10 21 0 0zm151 176l-2 16 0 0 -9 -1 -9 -2 -10 -2 -9 -3 -9 -3 -9 -3 -9 -4 -9 -4 -9 -5 -8 -5 -9 -5 -7 -6 -8 -6 -7 -6 -7 -6 -7 -7 -6 -7 -6 -7 -5 -8 -5 -7 -4 -8 -4 -8 -3 -8 -3 -9 -2 -8 -1 -9 0 -8 0 -9 2 -9 2 -9 3 -8 3 -9 15 7 -3 7 -3 8 -2 7 -1 7 0 8 0 7 1 7 2 7 2 8 3 7 3 7 4 7 4 7 5 6 5 7 6 6 6 6 6 6 7 6 7 6 8 5 7 5 8 4 8 5 8 4 9 3 8 3 9 3 8 2 9 2 8 2 9 1 0 0zm0 0l-1 8 0 0 0 0 0 0 0 0 0 0 0 0 0 0 0 0 0 0 0 0 0 0 0 0 0 0 0 0 0 0 0 0 0 0 0 0 0 0 0 0 0 0 -1 8 2 -16zm181 -150l15 5 0 0 -3 9 -3 8 -3 8 -4 9 -4 8 -4 8 -4 7 -4 8 -5 7 -5 8 -5 7 -5 6 -5 7 -6 6 -6 6 -6 6 -6 5 -7 6 -7 4 -7 5 -7 4 -7 4 -8 3 -7 3 -8 3 -9 2 -8 2 -8 1 -9 1 -9 0 -9 0 -10 0 2 -16 8 0 9 0 8 0 7 -1 8 -1 8 -1 7 -2 7 -3 7 -2 7 -3 6 -4 7 -4 6 -4 6 -4 6 -5 6 -5 6 -5 5 -6 5 -5 5 -6 5 -7 5 -6 4 -7 5 -7 4 -7 4 -8 4 -7 3 -8 4 -8 3 -8 3 -8 3 -8 0 0zm62 -680l16 -3 0 0 4 22 3 22 3 22 2 22 2 22 1 22 1 21 1 22 1 22 0 22 0 21 -1 22 -1 21 -1 22 -2 22 -2 21 -2 22 -3 21 -3 21 -3 22 -4 21 -4 21 -4 22 -4 21 -5 21 -5 21 -6 22 -5 21 -6 21 -7 21 -6 21 -7 21 -15 -5 6 -21 7 -21 6 -21 6 -20 6 -21 5 -21 5 -21 5 -21 4 -21 4 -21 4 -22 4 -21 3 -21 3 -21 3 -21 2 -21 2 -22 2 -21 1 -21 1 -22 0 -21 1 -22 0 -21 -1 -21 -1 -22 -1 -22 -1 -21 -2 -22 -2 -21 -3 -22 -3 -22 -4 -21 0 0zm-150 -181l2 -16 0 0 9 1 9 2 8 2 9 2 8 3 8 3 7 4 8 4 7 5 6 4 7 5 6 6 6 5 6 6 5 7 5 6 5 7 5 7 4 7 4 8 4 7 4 8 3 8 3 8 3 8 3 9 3 8 2 9 2 8 2 9 2 9 1 9 -16 3 -1 -9 -2 -9 -2 -8 -2 -8 -2 -8 -2 -9 -3 -8 -3 -7 -3 -8 -3 -8 -4 -7 -3 -7 -4 -7 -4 -7 -4 -6 -5 -6 -5 -6 -4 -6 -6 -5 -5 -6 -6 -4 -5 -5 -6 -4 -7 -4 -6 -4 -7 -3 -7 -3 -7 -3 -8 -2 -7 -1 -9 -2 -8 -1 0 0z"/>
  </g>
  <path class="fil11" d="M379 2863c49,285 321,491 250,498 -70,6 -291,-207 -341,-492 -49,-285 93,-533 163,-540 71,-7 -121,249 -72,534z"/>
  <path class="fil11" d="M64 2918c31,180 203,310 158,315 -44,4 -184,-131 -216,-312 -31,-180 59,-338 104,-342 45,-4 -78,158 -46,339z"/>
 </g>
</svg>
