<?xml version="1.0" encoding="UTF-8"?>
<!DOCTYPE svg PUBLIC "-//W3C//DTD SVG 1.1//EN" "http://www.w3.org/Graphics/SVG/1.1/DTD/svg11.dtd">
<!-- Creator: CorelDRAW X7 -->
<svg xmlns="http://www.w3.org/2000/svg" xml:space="preserve" width="8.8536mm" height="8.5171mm" version="1.1" style="shape-rendering:geometricPrecision; text-rendering:geometricPrecision; image-rendering:optimizeQuality; fill-rule:evenodd; clip-rule:evenodd"
viewBox="0 0 52493 50498"
 xmlns:xlink="http://www.w3.org/1999/xlink">
 <defs>
  <style type="text/css">
   <![CDATA[
    .fil9 {fill:#441600}
    .fil2 {fill:#985426}
    .fil10 {fill:#AB5623}
    .fil3 {fill:#FFFFCB}
    .fil7 {fill:white}
    .fil11 {fill:#663300;fill-rule:nonzero}
    .fil8 {fill:white;fill-rule:nonzero}
    .fil0 {fill:#532900;fill-opacity:0.400000}
    .fil1 {fill:url(#id0)}
    .fil6 {fill:url(#id1)}
    .fil4 {fill:url(#id2)}
    .fil5 {fill:url(#id3)}
   ]]>
  </style>
  <linearGradient id="id0" gradientUnits="userSpaceOnUse" x1="24802.8" y1="472.542" x2="24802.8" y2="46776.9">
   <stop offset="0" style="stop-opacity:1; stop-color:#BF772B"/>
   <stop offset="1" style="stop-opacity:1; stop-color:#A26C2E"/>
  </linearGradient>
  <radialGradient id="id1" gradientUnits="userSpaceOnUse" gradientTransform="matrix(-1.25966E-005 -1.05696 1.10402 -6.60579E-005 -675 45485)" cx="22861.7" cy="21319.5" r="45521.7" fx="22861.7" fy="21319.5">
   <stop offset="0" style="stop-opacity:1; stop-color:#FFEBB9"/>
   <stop offset="1" style="stop-opacity:1; stop-color:#FDE09C"/>
  </radialGradient>
  <radialGradient id="id2" gradientUnits="userSpaceOnUse" gradientTransform="matrix(-1.25965E-005 -1.05149 1.10401 -6.57158E-005 -557 45110)" cx="22788.7" cy="21146.4" r="44277.2" fx="22788.7" fy="21146.4">
   <stop offset="0" style="stop-opacity:1; stop-color:#FFD6A1"/>
   <stop offset="1" style="stop-opacity:1; stop-color:#FDBD66"/>
  </radialGradient>
  <radialGradient id="id3" gradientUnits="userSpaceOnUse" gradientTransform="matrix(-1.25963E-005 -1.05695 1.104 -6.60576E-005 -624 45067)" cx="22672.5" cy="21101.9" r="45521.7" fx="22672.5" fy="21101.9">
   <stop offset="0" style="stop-opacity:1; stop-color:#FFE1BB"/>
   <stop offset="1" style="stop-opacity:1; stop-color:#FDCF8F"/>
  </radialGradient>
 </defs>
 <g id="Layer_x0020_1">
  <metadata id="CorelCorpID_0Corel-Layer"/>
  <g id="_2012212448">
   <g>
    <path class="fil0" d="M47527 10441c2043,2112 3773,5086 4471,7902 1093,4402 156,9117 -701,13569 -543,2823 -1820,5538 -3436,7945 -9950,14816 -30837,13633 -40856,-274 -5469,-7589 -5372,-20235 -398,-27716 8081,-12155 32290,-10348 40920,-1426z"/>
    <path class="fil1" d="M44638 7192c2043,2112 3773,5086 4471,7901 1093,4403 156,9118 -700,13570 -544,2822 -1821,5538 -3437,7944 -9949,14816 -30837,13634 -40856,-273 -5468,-7590 -5371,-20236 -398,-27716 8081,-12155 32291,-10348 40920,-1426z"/>
    <path class="fil2" d="M42811 14906c1338,1994 2299,4635 2453,6999 243,3698 -1191,7353 -2524,10809 -844,2192 -2263,4191 -3910,5892 -1235,1277 -2568,2337 -3966,3195 -3304,-1551 -6863,-3168 -1985,1065 -8517,3936 -18792,1015 -24588,-6650 3110,-2714 7328,-6261 -1301,-1927 -348,-580 -673,-1181 -971,-1805 -3301,-6891 -1396,-17045 3684,-22342 286,-298 586,-578 897,-844 2694,1232 4834,2012 1425,-1059 8312,-5337 22834,-1784 29216,4753 -3031,2119 -5847,4235 1361,1616 71,99 141,198 209,298z"/>
    <path class="fil3" d="M41606 10287c419,498 815,1047 1178,1628 -3456,2432 -9163,6103 1145,2199 403,948 705,1923 869,2868 640,3650 -393,7439 -1345,11018 -604,2269 -1800,4409 -3254,6278 -2308,2966 -5148,5022 -8219,6239 -1266,-493 -1967,-577 -1132,408 -7341,2382 -15752,162 -21318,-5791 2582,-2272 4692,-4343 -1260,-1475 -479,-614 -930,-1259 -1350,-1936 -4024,-6497 -3222,-16797 1258,-22610 181,-235 372,-460 568,-680 3641,1708 8342,4002 1680,-1575 8460,-6634 25244,-3635 31180,3429z"/>
    <path class="fil4" d="M43441 14298c1003,1821 1694,3988 1823,5961 243,3698 -1191,7353 -2524,10809 -844,2191 -2263,4190 -3910,5892 -1708,1764 -3600,3117 -5594,4089 -2303,-1031 -3969,-1571 -1601,692 -7878,2980 -16959,384 -22567,-6203 2833,-2472 5637,-5037 -1270,-1650 -664,-951 -1261,-1967 -1779,-3049 -3245,-6778 -1457,-16709 3433,-22075 3378,1586 6976,3209 1536,-1432 8478,-6685 25120,-2434 31157,5030 -3383,2355 -7754,5318 1296,1936z"/>
    <path class="fil5" d="M41406 20878c195,2998 -967,5961 -2046,8763 -684,1776 -1835,3397 -3171,4776 -1384,1430 -2918,2527 -4535,3315 -1867,-835 -3217,-1273 -1297,562 -3676,1390 -8434,1611 -12045,-280 -5109,-2675 -8543,-8188 -8722,-8559 -7817,-16324 6220,-24275 17775,-22465 7847,1229 13718,8956 14041,13888z"/>
    <path class="fil6" d="M39516 21120c174,2665 -859,5300 -1819,7790 -609,1579 -1631,3020 -2818,4246 -1231,1272 -2595,2247 -4033,2948 -1659,-743 -2860,-1132 -1153,499 -3268,1236 -7497,1432 -10707,-249 -4543,-2378 -7596,-7279 -7754,-7610 -6950,-14511 5529,-21579 15801,-19970 6976,1092 12196,7962 12483,12346z"/>
   </g>
   <g>
    <path class="fil7" d="M40332 18475c-135,1255 -279,1227 -1310,2096l-4611 3654c-330,244 -468,278 -806,560 -933,779 -4922,4110 -5548,4043 -1073,-116 272,-3001 558,-3805 342,-962 696,-1997 1044,-3026 -4685,-503 -11494,-141 -12327,5713 -546,3835 3658,7709 6522,9560 957,619 1110,591 1181,1219 -2316,-249 -3564,-766 -5299,-1477 -4854,-1988 -8548,-5862 -7916,-11744 906,-8433 10395,-10837 17211,-10961 622,-12 1055,507 145,-2045 -219,-614 -342,-1048 -527,-1654 -1,-1 -942,-2438 4,-2336 861,93 9015,7139 10698,8465 477,376 1064,963 981,1738z"/>
    <path class="fil8" d="M39217 18264c-65,512 -154,581 -566,902l-2 2 -2 -3 -317 250 -39 32 -4548 3411 -12 9c-86,59 -159,102 -229,143 -176,104 -340,201 -589,398l-2 2 -2 -3 -16 13c-23,17 -44,35 -64,54 -704,556 -2661,2100 -3801,2946 136,-380 299,-765 426,-1067 96,-228 179,-427 205,-494l17 -50c220,-585 383,-1026 509,-1371l525 -1464c203,-574 -103,-1197 -684,-1391 -80,-28 -162,-46 -243,-54l0 -2c-2855,-290 -6484,-281 -9273,942 -2198,965 -3862,2638 -4279,5408 -278,1854 431,3662 1593,5274 725,1005 1631,1940 2573,2757l-206 -80 -42 -16 0 0c-2397,-929 -4479,-2313 -5793,-4160 -1119,-1571 -1690,-3508 -1428,-5823 345,-3035 2105,-5148 4484,-6582 3342,-2015 7894,-2743 11625,-2807 51,-1 94,4 133,8l4 1 0 0c248,29 460,55 763,-48 964,-325 1177,-1000 281,-3381 -145,-385 -265,-761 -408,-1207l-91 -289c1583,1179 4404,3413 6488,5062 1117,885 2035,1611 2466,1933 170,127 354,281 465,437 55,76 92,155 85,218 -3,31 -5,61 -6,90zm810 2611c1033,-805 1229,-958 1397,-2375 7,-34 12,-67 16,-101 76,-668 -140,-1236 -476,-1709 -281,-394 -630,-696 -935,-925 -459,-342 -1342,-1041 -2418,-1893 -2732,-2163 -6654,-5267 -8270,-6113 -157,-121 -350,-201 -564,-222 -285,-29 -543,15 -778,121 -31,12 -61,27 -91,43 -498,265 -725,710 -777,1243 -29,295 2,615 61,921l1 0c76,384 223,804 351,1127 8,61 22,124 41,185l99 309c499,1567 1133,1799 -93,1813 -3752,42 -8021,1087 -11325,3079 -2942,1773 -5122,4410 -5555,8226 -327,2885 399,5320 1819,7314 1582,2221 4016,3859 6792,4934l1 0 41 17c1801,698 3111,1207 5547,1454l0 -3c82,9 165,9 250,-2 611,-74 1049,-621 979,-1222 -121,-1027 -314,-1140 -1282,-1708 -130,-76 -286,-167 -413,-245 -1556,-953 -3526,-2496 -4803,-4268 -861,-1193 -1394,-2476 -1211,-3696 284,-1891 1438,-3041 2964,-3711 1930,-846 4460,-988 6730,-865l-40 112c-210,578 -383,1050 -497,1354l-18 42c-59,159 -109,277 -169,420 -298,706 -754,1790 -849,2627 -123,1092 200,1901 1381,2021 1051,107 5140,-3102 6279,-4000 24,-17 49,-35 73,-54l16 -13 -2 -2c140,-111 232,-165 331,-224 107,-64 221,-129 368,-231 28,-16 54,-35 80,-54l4551 -3414c28,-18 56,-38 84,-60l317 -249 -3 -3z"/>
    <path class="fil9" d="M39931 18871c-126,1168 -266,1142 -1266,1947l-4471 3383c-320,227 -454,257 -781,518 -905,722 -4772,3807 -5381,3742 -1046,-113 251,-2794 526,-3542 328,-895 668,-1858 1002,-2815 -4562,-490 -11187,-183 -11971,5267 -514,3570 3595,7199 6390,8936 935,581 1084,556 1155,1141 -2255,-242 -3471,-730 -5163,-1400 -4733,-1873 -8345,-5500 -7757,-10977 844,-7853 10067,-10049 16700,-10134 606,-8 1029,477 132,-1905 -216,-573 -338,-977 -521,-1543 0,-1 -927,-2275 -6,-2176 838,90 8805,6691 10449,7934 466,353 1040,903 963,1624z"/>
    <g>
     <path class="fil10" d="M39791 17778c-125,1169 -265,1142 -1265,1947l-4471 3383c-320,226 -454,258 -781,519 -905,721 -4773,3807 -5382,3741 -1045,-112 252,-2794 526,-3542 329,-895 669,-1858 1003,-2815 -4562,-490 -11187,-183 -11971,5267 -514,3570 3595,7198 6390,8936 935,581 1083,556 1155,1141 -2255,-242 -3471,-729 -5164,-1399 -4732,-1874 -8344,-5501 -7756,-10978 844,-7853 10067,-10049 16700,-10134 606,-8 1028,477 131,-1905 -215,-573 -336,-977 -520,-1544 0,0 -926,-2275 -6,-2176 838,91 8805,6692 10449,7936 466,351 1040,902 962,1623z"/>
     <path id="1" class="fil11" d="M38399 19558l-5 4 92 -73 87 -70 82 -64 77 -61 73 -57 67 -54 63 -51 59 -48 54 -45 50 -43 45 -42 42 -40 38 -38 35 -38 32 -38 28 -35 25 -37 23 -39 23 -39 20 -42 20 -45 17 -47 17 -51 15 -56 16 -62 15 -65 13 -73 13 -78 13 -83 12 -90 11 -97 12 -105 416 45 -11 107 -12 102 -13 96 -14 91 -15 86 -15 82 -17 78 -18 73 -20 70 -23 69 -25 66 -26 62 -30 60 -32 59 -34 55 -38 54 -41 54 -43 50 -44 49 -49 49 -50 48 -53 48 -56 49 -59 49 -61 50 -66 54 -70 54 -73 58 -77 60 -80 65 -87 68 -90 72 -5 4 -253 -334zm258 330l-5 4 3 -2 2 -2zm-4476 3388l-5 4 -247 -339 4470 -3383 253 334 -4471 3384zm0 0l-5 4 -2 1 7 -5zm-1038 187l0 0 32 -26 30 -23 29 -22 29 -21 28 -21 28 -20 26 -18 28 -19 25 -16 22 -16 26 -16 22 -14 23 -15 25 -15 20 -13 23 -13 24 -14 20 -12 20 -13 23 -13 21 -13 23 -14 21 -12 21 -14 24 -14 23 -15 25 -16 25 -16 24 -16 26 -17 27 -19 28 -20 242 343 -31 21 -30 21 -29 19 -29 19 -27 18 -25 16 -26 16 -23 15 -25 16 -26 15 -22 13 -22 14 -22 12 -22 14 -22 13 -20 12 -21 12 -22 14 -19 11 -21 13 -21 14 -20 13 -23 16 -23 14 -21 15 -23 17 -24 16 -24 18 -26 19 -26 20 -29 22 -28 22 0 0 -261 -327zm-5228 3697l0 0 12 -2 54 -14 85 -30 105 -47 123 -63 140 -77 153 -91 165 -101 174 -113 185 -122 193 -130 201 -139 204 -145 211 -150 212 -154 216 -158 216 -161 216 -162 215 -161 212 -162 208 -159 204 -158 198 -153 191 -149 182 -142 173 -136 164 -128 151 -120 138 -110 124 -98 110 -88 93 -74 261 327 -93 74 -110 88 -124 100 -140 109 -151 120 -163 129 -174 137 -183 143 -192 149 -198 154 -206 158 -209 161 -213 162 -217 163 -217 162 -217 162 -218 159 -215 157 -212 151 -208 147 -203 140 -196 134 -190 124 -181 117 -171 106 -162 95 -150 83 -139 71 -129 57 -118 43 -114 27 -121 4 0 0 45 -416zm700 -3262l0 0 -30 80 -35 87 -39 97 -43 106 -47 113 -49 119 -51 126 -53 131 -54 135 -54 140 -54 141 -53 144 -51 145 -50 145 -47 144 -43 143 -40 141 -35 136 -29 132 -24 127 -18 120 -11 112 -4 102 3 92 10 79 15 66 20 51 22 36 24 26 27 20 38 15 55 11 -45 416 -128 -25 -119 -49 -103 -71 -84 -91 -63 -103 -43 -111 -29 -117 -15 -121 -4 -125 4 -130 14 -135 21 -138 27 -141 32 -146 38 -147 42 -150 45 -150 49 -151 51 -151 54 -149 54 -149 56 -145 55 -142 55 -138 54 -133 51 -126 50 -121 46 -113 43 -103 38 -95 34 -84 26 -73 0 0 394 145zm828 -3095l176 277 -31 90 -32 90 -32 90 -31 89 -31 90 -32 90 -32 89 -31 90 -31 90 -32 89 -31 90 -32 89 -32 90 -31 89 -32 88 -31 89 -31 88 -32 89 -31 88 -32 88 -31 87 -32 88 -31 87 -31 87 -32 87 -31 86 -31 87 -31 85 -31 85 -31 85 -31 85 -31 84 -394 -145 31 -84 31 -83 31 -85 31 -86 31 -85 32 -85 30 -86 31 -86 31 -87 32 -88 31 -87 31 -87 32 -88 31 -88 32 -88 31 -88 32 -89 31 -88 31 -89 32 -90 32 -88 31 -90 32 -89 31 -90 32 -89 31 -90 31 -89 31 -90 32 -90 31 -89 31 -91 32 -89 175 277 45 -416zm0 0l263 29 -87 248 -176 -277zm-12201 5445l0 0 93 -511 128 -484 160 -454 192 -426 221 -398 250 -373 276 -345 301 -319 323 -295 346 -270 365 -246 382 -223 399 -203 414 -180 427 -162 439 -143 450 -124 459 -107 466 -92 473 -75 476 -61 481 -48 483 -35 483 -23 482 -11 480 -1 476 8 472 17 464 25 456 32 448 38 436 44 -45 416 -430 -42 -441 -39 -450 -31 -457 -25 -464 -16 -468 -9 -471 2 -474 11 -472 22 -472 34 -469 47 -465 60 -458 73 -452 89 -444 102 -432 120 -421 137 -408 154 -393 173 -378 190 -359 211 -341 230 -322 252 -300 272 -278 296 -255 318 -230 343 -204 367 -178 395 -148 422 -120 450 -87 481 0 0 -415 -60zm6488 9144l-1 0 -269 -170 -275 -181 -281 -192 -284 -201 -289 -212 -291 -220 -292 -230 -292 -238 -291 -247 -289 -255 -286 -262 -282 -270 -277 -277 -271 -283 -262 -290 -255 -297 -245 -302 -234 -307 -222 -312 -210 -318 -196 -322 -181 -327 -164 -329 -147 -335 -128 -338 -108 -340 -88 -344 -65 -345 -41 -348 -18 -350 9 -351 37 -351 415 60 -33 319 -9 318 16 319 38 320 61 319 81 319 101 318 120 316 139 316 156 313 172 311 186 308 202 305 214 300 227 298 237 292 247 287 255 282 264 276 270 270 276 264 279 256 283 250 285 241 286 234 287 225 284 217 283 207 280 197 275 187 269 178 263 166 -1 0 -220 356zm1287 755l-230 233 -7 -49 -6 -45 -7 -40 -8 -38 -8 -33 -10 -31 -8 -25 -10 -24 -9 -22 -11 -19 -12 -19 -12 -16 -16 -20 -16 -18 -20 -19 -23 -21 -24 -20 -30 -22 -33 -24 -37 -25 -39 -27 -44 -27 -49 -30 -52 -32 -55 -33 -61 -36 -64 -39 -69 -41 -72 -43 -78 -47 -81 -50 -86 -53 220 -356 85 52 79 49 77 46 72 43 68 41 64 38 60 35 59 36 53 33 51 31 50 32 46 30 44 30 42 30 38 30 40 32 36 32 34 34 33 36 29 35 29 41 25 40 23 43 21 43 18 45 16 48 13 45 12 49 11 50 10 54 7 54 8 56 -231 234 45 -416zm186 182l32 262 -263 -28 231 -234zm-5295 -1568l0 0 158 62 155 61 152 60 150 59 148 58 147 56 146 55 144 55 144 52 143 52 143 50 143 50 144 48 145 46 145 45 147 45 148 43 150 42 152 40 155 39 157 38 160 36 164 36 167 34 171 33 176 31 180 30 184 28 190 28 195 26 200 25 206 23 -45 416 -209 -23 -206 -26 -199 -26 -194 -28 -189 -29 -184 -31 -180 -33 -177 -33 -172 -35 -168 -37 -165 -37 -163 -39 -159 -40 -157 -42 -154 -43 -153 -44 -151 -46 -149 -47 -148 -47 -148 -49 -146 -51 -147 -51 -146 -53 -146 -54 -146 -54 -147 -57 -149 -56 -149 -59 -151 -58 -153 -61 -156 -61 -157 -62 0 0 154 -390zm-7625 -10760l0 0 -41 498 -19 488 4 476 27 465 49 455 70 443 91 434 110 423 131 411 150 402 167 391 187 380 204 372 220 360 237 350 253 340 268 330 284 320 298 310 311 300 326 290 338 280 350 269 361 260 373 249 384 239 394 230 402 219 413 209 420 200 428 188 435 179 -154 390 -445 -183 -438 -194 -431 -204 -422 -214 -414 -225 -404 -235 -395 -247 -384 -257 -374 -267 -361 -279 -349 -289 -337 -301 -323 -310 -310 -322 -294 -333 -280 -345 -264 -354 -248 -367 -231 -377 -213 -387 -195 -399 -176 -411 -157 -421 -137 -431 -116 -443 -95 -454 -73 -465 -51 -474 -28 -486 -5 -496 19 -508 44 -517 0 0 416 45zm16494 -9948l1 0 -625 14 -638 27 -649 41 -659 55 -665 70 -670 85 -673 102 -674 118 -673 135 -670 153 -664 173 -658 191 -648 211 -636 232 -624 253 -608 274 -591 296 -571 320 -551 343 -526 366 -502 390 -474 416 -445 442 -415 467 -382 495 -348 522 -310 550 -274 579 -232 610 -191 640 -147 673 -102 705 -416 -45 105 -735 154 -702 200 -671 244 -638 286 -608 327 -577 364 -548 399 -517 433 -488 464 -460 494 -432 520 -406 544 -378 568 -354 589 -329 606 -304 623 -282 638 -258 651 -237 661 -215 669 -195 677 -175 681 -156 683 -138 684 -120 682 -103 681 -86 674 -71 667 -56 657 -41 646 -27 634 -15 0 0 5 419zm326 -2188l0 0 80 216 73 200 66 185 60 170 51 157 46 143 39 132 33 118 28 109 22 99 16 90 10 83 4 77 -1 72 -10 71 -21 70 -34 68 -50 60 -61 48 -64 29 -62 18 -58 7 -53 2 -53 -2 -51 -4 -48 -6 -50 -6 -47 -6 -49 -4 -48 -5 -47 -2 -47 -1 -5 -419 66 1 63 4 59 4 54 6 52 6 47 6 42 4 36 4 26 1 22 -1 10 -1 -1 1 -10 4 -15 12 -10 13 -4 7 1 -2 2 -18 1 -33 -3 -46 -7 -59 -13 -72 -19 -83 -24 -98 -31 -110 -37 -124 -44 -137 -50 -151 -58 -167 -65 -181 -72 -197 -80 -214 0 -1 393 -147zm-507 -1470l-10 -64 17 52 17 53 15 50 17 50 16 51 15 47 16 50 15 48 15 45 15 48 15 46 15 45 15 47 15 45 15 46 14 45 16 46 15 46 14 44 16 46 15 45 16 48 16 45 16 47 17 48 18 49 17 48 18 48 18 50 19 52 18 51 21 53 -393 147 -20 -54 -20 -53 -19 -51 -18 -51 -19 -51 -17 -51 -17 -48 -18 -48 -17 -48 -16 -48 -16 -46 -16 -47 -16 -48 -16 -47 -15 -46 -14 -45 -16 -47 -15 -45 -15 -46 -14 -45 -16 -47 -15 -48 -14 -46 -16 -48 -15 -48 -15 -46 -17 -50 -14 -49 -17 -50 -17 -52 -16 -50 -17 -53 -10 -65 419 0zm-409 65l-10 -31 0 -34 10 65zm170 -2033l0 0 -47 -1 -30 5 -18 6 -11 8 -12 13 -15 22 -14 35 -12 46 -10 59 -5 68 -1 77 4 85 9 88 12 94 17 97 19 98 22 100 25 100 26 99 26 96 29 94 28 91 28 86 27 80 26 75 24 67 21 59 19 48 16 42 11 29 8 19 17 83 -419 0 12 71 -8 -20 -12 -32 -16 -41 -20 -54 -24 -62 -24 -70 -27 -77 -29 -86 -29 -90 -30 -95 -30 -101 -29 -102 -28 -106 -26 -108 -24 -109 -22 -109 -18 -109 -14 -108 -10 -108 -5 -105 0 -102 8 -100 15 -98 27 -96 39 -91 55 -87 73 -76 92 -61 103 -39 111 -16 115 3 0 0 -45 416zm10346 7895l0 0 -175 -133 -207 -162 -240 -189 -269 -213 -296 -237 -321 -256 -343 -274 -363 -292 -380 -304 -394 -317 -407 -327 -418 -333 -423 -340 -430 -341 -432 -343 -433 -343 -429 -337 -425 -334 -418 -325 -406 -314 -396 -303 -380 -289 -364 -271 -343 -254 -321 -232 -295 -208 -268 -184 -237 -155 -204 -124 -165 -92 -117 -54 -47 -15 45 -416 152 40 158 72 187 103 215 133 246 160 274 188 300 212 324 234 346 255 366 274 382 290 397 304 409 316 418 326 425 333 431 339 433 342 433 343 429 343 426 339 417 334 407 327 395 316 380 305 362 291 343 275 320 256 296 235 268 213 238 188 206 160 170 131 0 0 -252 334zm880 1434l0 0 4 -56 2 -55 -2 -54 -4 -53 -7 -52 -9 -51 -13 -52 -15 -51 -17 -50 -19 -49 -22 -48 -23 -49 -27 -48 -27 -47 -30 -46 -31 -47 -33 -44 -36 -45 -35 -45 -38 -43 -38 -42 -38 -41 -42 -41 -41 -40 -42 -39 -42 -39 -42 -36 -43 -36 -43 -35 -42 -34 -43 -33 -42 -33 252 -334 46 35 46 35 48 39 46 38 48 40 49 43 46 42 47 44 47 45 46 46 47 49 45 50 44 51 43 53 41 53 41 56 39 57 37 58 36 61 33 61 31 63 29 65 26 67 23 68 20 69 17 70 14 73 9 74 7 75 2 77 -2 77 -7 79 0 0 -416 -45z"/>
    </g>
   </g>
  </g>
 </g>
</svg>
