<?xml version="1.0" encoding="UTF-8"?>
<!DOCTYPE svg PUBLIC "-//W3C//DTD SVG 1.1//EN" "http://www.w3.org/Graphics/SVG/1.1/DTD/svg11.dtd">
<!-- Creator: CorelDRAW X7 -->
<svg xmlns="http://www.w3.org/2000/svg" xml:space="preserve" width="1.61529in" height="1.31236in" version="1.1" style="shape-rendering:geometricPrecision; text-rendering:geometricPrecision; image-rendering:optimizeQuality; fill-rule:evenodd; clip-rule:evenodd"
viewBox="0 0 1770 1438"
 xmlns:xlink="http://www.w3.org/1999/xlink">
 <defs>
  <style type="text/css">
   <![CDATA[
    .str0 {stroke:#441600;stroke-width:10.9506}
    .fil1 {fill:#441600}
    .fil2 {fill:#AB5623}
    .fil0 {fill:white;fill-rule:nonzero}
   ]]>
  </style>
 </defs>
 <g id="Layer_x0020_1">
  <metadata id="CorelCorpID_0Corel-Layer"/>
  <path class="fil0" d="M172 675c1,-2 3,-3 5,-5l1 -1c2,-2 11,-11 25,-25 97,-99 568,-485 714,-534 2,44 3,83 4,117 1,42 2,75 4,105 -1,8 0,16 2,23 12,42 53,66 93,54l581 -200c4,1 17,41 32,100 28,104 42,253 42,402l0 0c0,151 -14,300 -42,403 -16,60 -28,100 -32,99l-580 -200 0 1c-6,-2 -12,-3 -18,-3 -41,-2 -76,32 -77,76 -1,32 -3,70 -4,112l0 2 -4 111c-146,-47 -614,-429 -714,-531 -14,-15 -24,-24 -26,-27l-4 -3 -2 -3c-9,-11 -14,-24 -14,-36 0,-13 5,-26 14,-37l0 0z"/>
  <path class="fil0" d="M66 571c-5,4 -10,10 -16,16l0 0 0 0c-33,38 -50,85 -50,132 0,47 17,94 50,132 2,2 3,4 5,5 4,5 8,10 13,13 3,4 11,11 21,22 111,109 637,539 814,546 77,4 124,-34 128,-127l5 -124 0 -2 0 -12 476 162c103,30 172,-54 211,-196 31,-112 47,-266 47,-419l-1 0c0,-154 -15,-308 -45,-419 -40,-143 -109,-226 -212,-197l0 1 0 -1 -477 163 0 -9c-1,-39 -3,-82 -4,-127l0 -1c-3,-93 -49,-131 -125,-129l0 0 0 0 -5 0c-180,14 -706,443 -813,549 -10,10 -17,16 -20,19l-2 3z"/>
  <path class="fil1" d="M79 656c-58,51 -58,134 0,184 33,29 831,761 842,508 3,-85 6,-192 8,-257l559 182c219,61 219,-1111 0,-1050l-560 182c-2,-60 -5,-165 -7,-257 -7,-254 -811,481 -842,508z"/>
  <path class="fil2 str0" d="M172 620c-56,50 -56,133 0,184 32,29 719,728 729,475 4,-86 7,-159 9,-224l633 181c213,61 213,-1111 0,-1050l-634 182c-3,-60 -5,-131 -8,-223 -7,-255 -699,447 -729,475z"/>
 </g>
</svg>
