<?xml version="1.0" encoding="UTF-8"?>
<!DOCTYPE svg PUBLIC "-//W3C//DTD SVG 1.1//EN" "http://www.w3.org/Graphics/SVG/1.1/DTD/svg11.dtd">
<!-- Creator: CorelDRAW X7 -->
<svg xmlns="http://www.w3.org/2000/svg" xml:space="preserve" width="91.0668mm" height="86.9298mm" version="1.1" style="shape-rendering:geometricPrecision; text-rendering:geometricPrecision; image-rendering:optimizeQuality; fill-rule:evenodd; clip-rule:evenodd"
viewBox="0 0 5972018 5700720"
 xmlns:xlink="http://www.w3.org/1999/xlink">
 <defs>
  <style type="text/css">
   <![CDATA[
    .fil0 {fill:url(#id0)}
    .fil1 {fill:url(#id1)}
   ]]>
  </style>
  <linearGradient id="id0" gradientUnits="userSpaceOnUse" x1="6.02152e+006" y1="3.52575e+006" x2="-49498.6" y2="2.17497e+006">
   <stop offset="0" style="stop-opacity:1; stop-color:#BF772B"/>
   <stop offset="1" style="stop-opacity:1; stop-color:#A26C2E"/>
  </linearGradient>
  <radialGradient id="id1" gradientUnits="userSpaceOnUse" gradientTransform="matrix(-1.25966E-005 1.04756 1.10402 6.54709E-005 -248594 -239202)" cx="3.27399e+006" cy="3.19071e+006" r="2.56265e+006" fx="3.27399e+006" fy="3.19071e+006">
   <stop offset="0" style="stop-opacity:1; stop-color:#FFE1BB"/>
   <stop offset="1" style="stop-opacity:1; stop-color:#FDCF8F"/>
  </radialGradient>
 </defs>
 <g id="Layer_x0020_1">
  <metadata id="CorelCorpID_0Corel-Layer"/>
  <path class="fil0" d="M5937589 5164846c32330,-678632 71409,-3826797 -35858,-4562672 -95187,-652938 -74982,-575110 -1090064,-600371 -656080,-16329 -4547596,82275 -4636304,144680 -219123,154168 -180006,4750167 -157145,5118881 7987,129131 42672,250779 212867,316561 328535,126979 4075424,124277 4579900,114847 1265493,-23647 1099094,45577 1126604,-531926z"/>
  <path class="fil1" d="M597780 197962c272223,-15864 3318570,-33518 3715464,-33209 15050,99712 28553,201922 40501,306644 -4105,-4957 237,-150089 6178,-306546 350471,1535 700109,17680 967918,61880 -15437,93836 -27963,192676 -37695,296375 31190,-100558 64274,-195719 99260,-285620 466381,83514 428739,85350 442897,947274 -95023,31503 -63408,70870 2007,110060 12217,630950 -25858,3942470 -64280,4049796 -14454,40363 -67369,74320 -148765,102624 -38704,-60241 -80504,-112330 -125268,-156582 21989,57053 43039,115608 63159,175665 -198650,54161 -513401,84026 -851215,96544 -18978,715 -120966,-236770 -140075,-235879 -10395,486 59224,238870 31720,239329 -507879,8407 -3697738,-11339 -3957593,-46344 26835,-84557 55427,-166340 85823,-245178 -62346,61670 -118933,138442 -169389,231413 -15418,-3220 -28763,-6493 -39675,-9863 -93758,-28920 -226816,-47138 -278269,-132620 -58982,-97974 -85633,-244155 -94735,-417367 -8355,-158831 -2013,-2931939 7568,-3120150 7502,-147380 16985,-298801 22959,-446418 136521,-127301 88682,-144161 4459,-135787 27635,-1001868 -14919,-1036592 250333,-1041366 52685,350740 58640,218147 54718,-846 33262,-537 70438,-1403 111995,-3829z"/>
 </g>
</svg>
