<?xml version="1.0" encoding="UTF-8"?>
<!DOCTYPE svg PUBLIC "-//W3C//DTD SVG 1.1//EN" "http://www.w3.org/Graphics/SVG/1.1/DTD/svg11.dtd">
<!-- Creator: CorelDRAW X7 -->
<svg xmlns="http://www.w3.org/2000/svg" xml:space="preserve" width="42.6239mm" height="86.4171mm" version="1.1" style="shape-rendering:geometricPrecision; text-rendering:geometricPrecision; image-rendering:optimizeQuality; fill-rule:evenodd; clip-rule:evenodd"
viewBox="0 0 3452949 7000623"
 xmlns:xlink="http://www.w3.org/1999/xlink">
 <defs>
  <style type="text/css">
   <![CDATA[
    .fil0 {fill:url(#id0)}
    .fil1 {fill:url(#id1)}
   ]]>
  </style>
  <linearGradient id="id0" gradientUnits="userSpaceOnUse" x1="3.82712e+006" y1="3.96769e+006" x2="-374184" y2="3.03292e+006">
   <stop offset="0" style="stop-opacity:1; stop-color:#BF772B"/>
   <stop offset="1" style="stop-opacity:1; stop-color:#A26C2E"/>
  </linearGradient>
  <radialGradient id="id1" gradientUnits="userSpaceOnUse" gradientTransform="matrix(0.527981 1.25965E-005 3.2998E-005 -1.10402 904897 6.66511E+006)" cx="1.9173e+006" cy="3.1678e+006" r="2.99253e+006" fx="1.9173e+006" fy="3.1678e+006">
   <stop offset="0" style="stop-opacity:1; stop-color:#FFE1BB"/>
   <stop offset="1" style="stop-opacity:1; stop-color:#FDCF8F"/>
  </radialGradient>
 </defs>
 <g id="Layer_x0020_1">
  <metadata id="CorelCorpID_0Corel-Layer"/>
  <path class="fil0" d="M3411335 6342557c39071,-833371 86307,-4699397 -43341,-5603060 -115042,-801834 -90625,-706251 -1317460,-737285 -792939,-20050 -1731364,101043 -1838580,177678 -264853,189328 -217560,5833306 -189944,6286110 9673,158576 51571,307958 257271,388733 397093,155943 1160699,152622 1770434,141046 1529472,-29058 1328365,55961 1361620,-653222z"/>
  <path class="fil1" d="M173928 6234182c-17944,-352975 -37905,-3569060 -37564,-4083666 112765,-19515 228358,-37022 346786,-52511 -5606,5323 -169740,-308 -346665,-8020 1734,-454415 19993,-907754 69968,-1254994 106123,20018 217900,36260 335170,48873 -113714,-40432 -221335,-83334 -323002,-128700 94441,-604705 96523,-555896 1071256,-574253 35620,123208 80143,82208 124463,-2609 713526,-15837 1527973,33506 1649341,83351 45649,18730 84048,87345 116055,192884 -68121,50186 -127031,104389 -177071,162425 64516,-28516 130733,-55800 198652,-81893 61251,257570 95000,665673 109185,1103684 777,24627 -267737,156827 -266757,181624 583,13472 270167,-76789 270653,-41129 9568,658512 -12824,4060676 -52405,4397604 -95632,-34794 -188112,-71864 -277272,-111275 69742,80831 156560,154202 261702,219625 -3645,19993 -7372,37281 -11155,51449 -32760,121564 -53304,294074 -149973,360801 -110830,76482 -276114,111024 -471995,122843 -179623,10848 -385177,2609 -598022,-9818 -166677,-9721 -337916,-22035 -504844,-29779 -143962,-177006 -163032,-114969 -153554,-5776 -1133002,-35823 -1172267,19353 -1177670,-324590 396647,-68307 246707,-76027 -948,-70932 -608,-43137 -1588,-91322 -4334,-145218z"/>
 </g>
</svg>
