<?xml version="1.0" encoding="UTF-8"?>
<!DOCTYPE svg PUBLIC "-//W3C//DTD SVG 1.1//EN" "http://www.w3.org/Graphics/SVG/1.1/DTD/svg11.dtd">
<!-- Creator: CorelDRAW X7 -->
<svg xmlns="http://www.w3.org/2000/svg" xml:space="preserve" width="1.95468in" height="2.0721in" version="1.1" style="shape-rendering:geometricPrecision; text-rendering:geometricPrecision; image-rendering:optimizeQuality; fill-rule:evenodd; clip-rule:evenodd"
viewBox="0 0 889 943"
 xmlns:xlink="http://www.w3.org/1999/xlink">
 <defs>
  <style type="text/css">
   <![CDATA[
    .fil3 {fill:#AB5623}
    .fil0 {fill:white}
    .fil4 {fill:#663300;fill-rule:nonzero}
    .fil1 {fill:white;fill-rule:nonzero}
    .fil2 {fill:url(#id0)}
   ]]>
  </style>
  <linearGradient id="id0" gradientUnits="userSpaceOnUse" x1="452.926" y1="413.788" x2="436.342" y2="579.524">
   <stop offset="0" style="stop-opacity:1; stop-color:#441600"/>
   <stop offset="1" style="stop-opacity:1; stop-color:#FEFEFE"/>
  </linearGradient>
 </defs>
 <g id="Layer_x0020_1">
  <metadata id="CorelCorpID_0Corel-Layer"/>
  <g id="_2372930816">
   <path class="fil0" d="M538 943c-47,0 -143,0 -191,0 -10,0 -19,-9 -18,-20l6 -83c-17,-6 -34,-14 -50,-23 -18,21 -34,42 -51,63 -7,8 -19,7 -26,0 -34,-36 -77,-88 -110,-124 -7,-8 -8,-21 0,-28 17,-15 34,-31 51,-47 -15,-26 -26,-55 -35,-86 -25,2 -49,4 -74,6 -10,1 -18,-8 -18,-19 0,-51 4,-120 4,-171 0,-10 8,-20 18,-19 23,2 46,4 69,5 6,-23 14,-45 24,-67l-61 -55c-8,-6 -7,-19 0,-27 34,-36 102,-108 135,-144 7,-7 20,-8 26,0 17,22 34,43 51,64 23,-12 47,-22 72,-28 -1,-24 -3,-48 -5,-71 -1,-11 8,-20 18,-20 48,0 113,-4 161,-4 10,0 19,9 18,19 -2,27 -4,54 -6,81 18,6 36,13 52,22l50 -63c7,-8 19,-7 26,0 34,36 101,108 135,144 7,8 8,21 0,27 -19,18 -39,35 -58,53 7,14 13,28 18,43l80 -7c10,-1 18,9 18,19 0,51 0,153 0,204 0,10 -8,20 -18,19 -25,-2 -50,-5 -75,-7 -6,23 -15,44 -25,64 19,18 38,35 57,52 8,7 7,20 0,28 -34,35 -83,81 -117,117 -7,8 -19,8 -25,0 -14,-18 -28,-35 -43,-53 -22,14 -46,26 -71,34 2,28 4,55 6,82 1,11 -8,20 -18,20zm-93 -598c-78,0 -141,67 -141,149 0,82 63,149 141,149 77,0 140,-67 140,-149 0,-82 -63,-149 -140,-149z"/>
   <path class="fil1" d="M534 939l-182 0 -2 0 -1 0 -2 0c-15,-1 -29,-8 -39,-19 -10,-10 -17,-25 -17,-41l0 -2 1 -1 0 -2 2 -31c-7,9 -13,16 -16,20l0 0c-1,2 -3,4 -5,6 -12,11 -26,16 -40,16 -14,0 -27,-5 -38,-13 -2,-2 -4,-4 -6,-6l0 0c-18,-19 -36,-40 -54,-60l0 -1c-17,-20 -35,-40 -51,-57l-1 -1 0 0 -1 -1c-10,-11 -15,-26 -15,-40 0,-16 6,-33 18,-45l1 0 0 0 1 -1c8,-8 17,-15 24,-21l0 -1c-2,-5 -4,-9 -6,-14 -1,-4 -3,-8 -5,-12l-1 0c-19,1 -31,2 -35,3l-2 0 -1 0 -2 0c-17,0 -31,-7 -42,-19l0 0 0 0c-9,-10 -15,-23 -17,-37l0 -2 0 -2 0 -2c0,-20 1,-51 2,-82 1,-26 2,-52 2,-80 0,-1 0,-3 1,-6l0 0c1,-14 7,-27 16,-37l0 0c11,-11 26,-18 42,-18l2 0 1 0 3 0c7,1 17,2 30,3l0 -2 2 -5 -35 -32 -1 0 0 0 0 -1c-13,-12 -19,-28 -19,-44 0,-15 6,-30 16,-41l1 -1 0 0 0 0 129 -137c2,-2 4,-4 6,-6l0 0c11,-8 24,-13 38,-13 14,0 28,5 39,16 2,2 4,4 6,6l0 0c10,12 18,22 24,30l3 4 5 -2 6 -2 0 -1 0 0c0,-8 -1,-19 -3,-32l0 -2 0 -2 0 -2c0,-16 7,-30 17,-41 10,-10 24,-17 39,-18l2 0 1 0 2 -1c25,0 50,-1 74,-2 29,-1 58,-2 78,-2l2 0 1 0 2 0c15,1 29,8 39,19 10,10 17,25 17,41l0 2 0 1 0 2c-1,11 -2,20 -3,29l17 -21 0 0c2,-3 4,-5 6,-7l0 0c11,-10 26,-15 40,-15l0 0c13,0 26,5 37,13l0 0c2,2 5,4 7,6l0 0 128 137 1 0 0 1 0 0c10,12 16,26 16,41 0,16 -6,32 -18,44l-1 1 0 0 -1 0 -12 11 18 -1 2 -1 1 0 2 0c17,0 31,8 42,19 10,10 16,23 17,37l0 2 0 2 0 2 0 193c0,1 0,3 0,6 -2,14 -8,27 -17,37 -10,11 -25,18 -42,18l-2 0 -1 0 -2 0 -35 -3 -3 0 0 0 -1 4 4 4c14,13 23,21 27,24l0 0 1 1 0 0c12,12 18,28 18,44l0 0c0,15 -6,30 -16,41l0 1 0 0 -1 0c-16,18 -36,37 -56,57 -20,19 -39,38 -55,55 -2,2 -4,4 -6,6l-1 0c-10,9 -23,13 -36,13l-1 0c-14,0 -28,-5 -39,-16 -2,-1 -4,-4 -6,-6 -5,-6 -11,-13 -17,-21l-4 1c-3,2 -5,3 -8,4l1 7 0 0c1,12 2,25 3,39l0 2 0 1 0 2c0,16 -7,31 -17,41 -10,11 -24,18 -38,19l-2 0 -2 0 -1 0zm-154 -86l126 0 -1 -11 0 0c-1,-11 -2,-24 -3,-39l-2 -33 31 -11c10,-4 20,-8 30,-12 9,-5 18,-10 28,-16l32 -20 24 29c5,6 12,15 21,25l0 1 1 0c11,-11 23,-23 35,-35 13,-12 26,-25 37,-37l-7 -7c-8,-7 -17,-15 -27,-25l-24 -22 14 -28c5,-9 9,-18 12,-27 3,-8 6,-17 9,-27l10 -34 35 3c14,1 26,2 36,3l6 1 0 -139 -47 4 -34 3 -10 -32c-2,-5 -4,-12 -7,-19l0 0c-3,-6 -6,-12 -8,-18l-14 -28 24 -22 27 -25 8 -7 -90 -97 -28 35 -22 28 -32 -17c-7,-4 -14,-7 -21,-10 -7,-3 -14,-6 -21,-8l-32 -10 2 -34c1,-14 2,-27 3,-38l1 -10c-16,0 -32,1 -47,1 -18,1 -35,2 -50,2l0 6 0 0c1,10 1,21 2,35l2 35 -34 9c-10,3 -20,6 -30,10 -10,4 -19,8 -28,13l-32 17 -22 -27c-11,-14 -20,-24 -25,-31l-5 -6 -90 97 38 34 24 22 -14 29c-4,9 -8,18 -11,27 -3,9 -6,19 -9,29l-9 34 -35 -2c-13,-1 -25,-2 -34,-2l0 0 -3 -1c0,17 -1,37 -2,56 0,17 -1,35 -1,52l5 0c10,-1 22,-2 36,-3l35 -2 9 34c4,12 8,25 13,37 5,12 11,24 17,34l16 30 -24 23c-9,8 -18,16 -25,23l-6 5c12,13 24,27 37,42l0 0c11,12 21,24 31,35l4 -5c6,-7 14,-17 24,-30l23 -28 32 18c6,3 13,7 20,10l0 0c6,3 13,6 21,9l31 11 -2 33 -4 51zm-169 -44l0 0 0 0 0 0zm234 -438c-25,0 -47,11 -63,28 -17,18 -27,43 -27,71 0,27 10,52 27,70 16,17 38,28 63,28 24,0 46,-11 62,-28 17,-18 28,-43 28,-70 0,-28 -11,-53 -28,-71 -16,-17 -38,-28 -62,-28zm-126 -31c32,-34 77,-55 126,-55 49,0 93,21 125,55 31,33 51,79 51,130 0,50 -20,96 -51,129 -32,34 -76,55 -125,55 -49,0 -94,-21 -126,-55 -31,-33 -51,-79 -51,-129 0,-51 20,-97 51,-130z"/>
   <path class="fil2" d="M538 919c-47,0 -143,0 -191,0 -10,0 -19,-8 -18,-18l6 -78c-17,-6 -34,-13 -50,-22 -18,20 -34,39 -51,59 -7,8 -19,7 -26,0 -34,-34 -77,-83 -110,-117 -7,-7 -8,-19 0,-25 17,-15 34,-30 51,-45 -15,-25 -26,-52 -35,-81 -25,2 -49,4 -74,6 -10,1 -18,-8 -18,-18 0,-48 4,-113 4,-161 0,-10 8,-19 18,-18 23,2 46,4 69,5 6,-22 14,-43 24,-63l-61 -52c-8,-6 -7,-19 0,-26 34,-33 102,-101 135,-135 7,-7 20,-8 26,0 17,20 34,40 51,60 23,-11 47,-20 72,-27 -1,-22 -3,-45 -5,-67 -1,-9 8,-18 18,-18 48,0 113,-4 161,-4 10,0 19,8 18,18 -2,25 -4,51 -6,76 18,6 36,13 52,21l50 -59c7,-8 19,-7 26,0 34,34 101,102 135,135 7,7 8,20 0,26 -19,16 -39,33 -58,49 7,14 13,27 18,41l80 -6c10,-1 18,8 18,18 0,48 0,144 0,191 0,10 -8,19 -18,18 -25,-2 -50,-4 -75,-6 -6,21 -15,41 -25,60 19,17 38,33 57,49 8,7 7,19 0,26 -34,34 -83,77 -117,111 -7,7 -19,7 -25,0 -14,-17 -28,-34 -43,-50 -22,13 -46,24 -71,32 2,26 4,52 6,77 1,10 -8,18 -18,18zm-93 -563c-78,0 -141,63 -141,141 0,77 63,140 141,140 77,0 140,-63 140,-140 0,-78 -63,-141 -140,-141z"/>
   <g>
    <path class="fil3" d="M538 876c-47,0 -143,0 -191,0 -10,0 -19,-8 -18,-18l6 -79c-17,-5 -34,-13 -50,-21 -18,19 -34,39 -51,59 -7,7 -19,7 -26,0 -34,-34 -77,-83 -110,-117 -7,-7 -8,-19 0,-26 17,-14 34,-29 51,-44 -15,-25 -26,-52 -35,-81 -25,2 -49,4 -74,6 -10,1 -18,-8 -18,-18 0,-48 4,-114 4,-161 0,-10 8,-19 18,-18 23,2 46,3 69,5 6,-22 14,-44 24,-64l-61 -51c-8,-7 -7,-19 0,-26 34,-34 102,-102 135,-135 7,-7 20,-8 26,0 17,20 34,40 51,60 23,-12 47,-21 72,-27 -1,-23 -3,-45 -5,-67 -1,-10 8,-18 18,-18 48,0 113,-4 161,-4 10,0 19,8 18,18 -2,25 -4,50 -6,76 18,5 36,12 52,21l50 -59c7,-8 19,-7 26,0 34,33 101,101 135,135 7,7 8,19 0,26 -19,16 -39,32 -58,49 7,13 13,27 18,41l80 -7c10,-1 18,8 18,18 0,48 0,144 0,192 0,10 -8,19 -18,18 -25,-2 -50,-4 -75,-6 -6,21 -15,41 -25,60 19,17 38,33 57,49 8,6 7,19 0,26 -34,33 -83,76 -117,110 -7,7 -19,8 -25,0 -14,-16 -28,-33 -43,-49 -22,13 -46,24 -71,32 2,26 4,51 6,77 1,10 -8,18 -18,18zm-93 -563c-78,0 -141,63 -141,140 0,78 63,140 141,140 77,0 140,-62 140,-140 0,-77 -63,-140 -140,-140z"/>
    <path id="1" class="fil4" d="M347 883l0 -14 0 0 4 0 5 0 5 0 6 0 5 0 6 0 6 0 6 0 6 0 7 0 6 0 7 0 6 0 7 0 7 0 7 0 6 0 7 0 7 0 6 0 7 0 6 0 7 0 6 0 6 0 6 0 6 0 5 0 6 0 5 0 5 0 4 0 0 14 -4 0 -5 0 -5 0 -6 0 -5 0 -6 0 -6 0 -6 0 -6 0 -7 0 -6 0 -7 0 -6 0 -7 0 -7 0 -6 0 -7 0 -7 0 -7 0 -6 0 -7 0 -6 0 -7 0 -6 0 -6 0 -6 0 -6 0 -5 0 -6 0 -5 0 -5 0 -4 0 0 0zm-25 -26l13 1 0 0 0 1 0 0 0 1 0 0 1 1 0 0 0 1 0 0 0 1 0 0 1 1 0 0 0 1 1 0 0 0 0 1 1 0 0 1 1 0 0 0 1 1 0 0 1 0 0 0 1 1 0 0 1 0 0 0 1 0 1 0 0 0 1 0 0 14 -1 0 -2 0 -1 0 -1 -1 -1 0 -2 0 -1 -1 -1 0 -1 -1 -1 0 -1 -1 -1 0 -1 -1 -1 -1 -1 -1 -1 0 -1 -1 -1 -1 0 -1 -1 -1 -1 -1 0 -1 -1 -1 -1 -2 0 -1 0 -1 -1 -1 0 -1 0 -2 0 -1 0 -1 0 -2 0 0zm20 -77l-7 78 -13 -1 7 -78 8 -6 5 7zm-52 -18l-10 -9 8 -1 1 1 2 0 1 1 2 1 1 1 2 0 1 1 2 1 1 1 2 0 1 1 2 1 1 0 2 1 2 1 1 0 2 1 1 1 2 0 1 1 2 1 1 0 2 1 2 0 1 1 2 1 1 0 2 1 2 0 1 1 2 0 1 1 -4 13 -2 -1 -1 0 -2 -1 -2 0 -1 -1 -2 -1 -2 0 -1 -1 -2 -1 -1 0 -2 -1 -2 -1 -1 0 -2 -1 -2 -1 -1 0 -2 -1 -1 -1 -2 0 -2 -1 -1 -1 -2 -1 -1 0 -2 -1 -2 -1 -1 -1 -2 0 -1 -1 -2 -1 -1 -1 -2 0 -2 -1 9 -2zm-51 59l-10 -9 0 0 1 -1 2 -2 1 -2 2 -2 2 -2 1 -2 2 -2 1 -1 2 -2 1 -2 2 -2 2 -2 1 -2 2 -2 1 -1 2 -2 2 -2 1 -2 2 -2 1 -2 2 -1 2 -2 1 -2 2 -2 1 -2 2 -2 1 -2 2 -1 2 -2 1 -2 2 -2 2 -2 10 9 -2 2 -2 2 -1 2 -2 2 -1 1 -2 2 -1 2 -2 2 -2 2 -1 2 -2 1 -1 2 -2 2 -2 2 -1 2 -2 2 -1 1 -2 2 -2 2 -1 2 -2 2 -1 2 -2 2 -1 1 -2 2 -2 2 -1 2 -2 2 -1 2 -2 1 -1 2 -2 2 0 0zm-36 1l10 -10 0 0 0 0 1 1 0 0 1 1 0 0 1 0 0 0 1 1 0 0 1 0 1 0 0 0 1 0 0 1 1 0 0 0 1 0 1 0 0 -1 1 0 0 0 1 0 0 0 1 0 0 0 0 -1 1 0 0 0 1 0 0 -1 0 0 1 -1 10 9 -1 1 -1 1 -1 1 -1 1 -1 0 -1 1 -1 1 -1 0 -1 1 -2 0 -1 0 -1 1 -1 0 -1 0 -2 0 -1 0 -1 0 -1 0 -1 0 -2 0 -1 -1 -1 0 -1 0 -1 -1 -1 0 -2 -1 -1 -1 -1 0 -1 -1 -1 -1 -1 -1 -1 0 0 0zm-110 -117l9 -10 0 0 4 3 3 4 3 3 4 4 3 3 3 4 4 3 3 4 4 4 3 4 4 3 4 4 3 4 4 4 3 4 4 4 3 4 4 4 4 3 3 4 4 4 3 4 4 4 3 3 4 4 3 4 4 3 3 4 3 3 4 4 3 3 3 3 -10 10 -3 -4 -3 -3 -3 -3 -4 -4 -3 -3 -4 -4 -3 -4 -3 -3 -4 -4 -4 -4 -3 -4 -4 -3 -3 -4 -4 -4 -3 -4 -4 -4 -4 -4 -3 -4 -4 -4 -3 -3 -4 -4 -4 -4 -3 -4 -4 -4 -3 -3 -3 -4 -4 -3 -3 -4 -4 -3 -3 -4 -3 -3 -3 -3 0 0zm0 -36l9 11 0 0 0 0 -1 0 0 1 0 0 -1 0 0 1 0 0 0 1 -1 0 0 1 0 0 0 1 0 0 0 1 0 0 0 1 0 0 0 1 0 1 0 0 0 1 0 0 1 1 0 0 0 1 0 0 1 1 0 0 0 1 1 0 0 1 0 0 -9 10 -1 -1 -1 -1 -1 -1 0 -1 -1 -1 -1 -1 0 -1 -1 -1 0 -2 -1 -1 0 -1 0 -1 0 -1 -1 -2 0 -1 0 -1 0 -1 0 -1 1 -2 0 -1 0 -1 0 -1 1 -1 0 -2 1 -1 0 -1 1 -1 1 -1 0 -1 1 -1 1 -1 1 -1 0 0zm51 -36l11 -7 -1 9 -2 1 -1 2 -2 1 -2 1 -1 2 -2 1 -1 2 -2 1 -2 2 -1 1 -2 1 -2 2 -1 1 -2 2 -1 1 -2 1 -2 2 -1 1 -2 2 -2 1 -1 1 -2 2 -1 1 -2 2 -2 1 -1 1 -2 2 -2 1 -1 1 -2 2 -1 1 -2 2 -9 -11 2 -1 2 -2 1 -1 2 -1 1 -2 2 -1 2 -1 1 -2 2 -1 1 -1 2 -2 2 -1 1 -2 2 -1 2 -1 1 -2 2 -1 1 -2 2 -1 2 -1 1 -2 2 -1 1 -2 2 -1 2 -1 1 -2 2 -1 1 -2 2 -1 2 -1 1 -2 2 -1 -1 8zm-29 -77l-1 -14 7 5 1 3 0 2 1 3 1 3 1 2 1 3 1 2 0 3 1 2 1 3 1 2 1 3 1 3 1 2 1 3 2 2 1 2 1 3 1 2 1 3 1 2 1 3 2 2 1 2 1 3 1 2 2 3 1 2 1 2 1 3 2 2 1 2 -11 7 -2 -2 -1 -3 -2 -2 -1 -2 -1 -3 -2 -2 -1 -3 -1 -2 -2 -3 -1 -2 -1 -3 -1 -2 -1 -3 -2 -2 -1 -3 -1 -3 -1 -2 -1 -3 -1 -2 -1 -3 -1 -3 -1 -2 -1 -3 -1 -3 -1 -2 -1 -3 -1 -3 -1 -2 -1 -3 -1 -3 0 -2 -1 -3 7 5zm-74 5l-2 -13 0 0 3 0 2 0 2 -1 3 0 2 0 2 0 3 0 2 -1 2 0 3 0 2 0 2 0 3 -1 2 0 2 0 3 0 2 0 2 0 3 -1 2 0 2 0 3 0 2 0 2 0 2 -1 3 0 2 0 2 0 3 0 2 0 2 -1 3 0 1 14 -3 0 -2 0 -2 0 -3 0 -2 1 -2 0 -3 0 -2 0 -2 0 -2 0 -3 1 -2 0 -2 0 -3 0 -2 0 -2 0 -3 1 -2 0 -2 0 -3 0 -2 0 -2 1 -3 0 -2 0 -2 0 -3 0 -2 0 -2 1 -2 0 -3 0 -2 0 -2 0 0 0zm-26 -24l14 0 0 0 0 0 0 1 0 0 0 1 0 0 0 1 0 1 1 0 0 1 0 0 0 1 1 0 0 1 0 0 1 1 0 0 0 0 1 1 0 0 1 0 0 1 1 0 0 0 1 0 0 1 0 0 1 0 0 0 1 0 0 0 1 0 0 0 2 13 -2 1 -1 -1 -1 0 -2 0 -1 0 -1 0 -1 -1 -2 0 -1 -1 -1 0 -1 -1 -1 0 -1 -1 -1 -1 -1 -1 -1 -1 0 0 -1 -1 -1 -1 -1 -1 0 -1 -1 -1 0 -2 -1 -1 0 -1 -1 -1 0 -1 0 -1 -1 -2 0 -1 0 -1 0 -1 0 0zm5 -161l13 0 0 0 0 4 0 5 0 5 0 5 0 4 0 5 -1 5 0 5 0 6 0 5 0 5 0 5 -1 6 0 5 0 5 0 5 0 6 -1 5 0 5 0 6 0 5 0 5 -1 5 0 5 0 5 0 5 0 5 0 5 0 5 0 4 0 5 0 5 -14 0 0 -5 0 -5 0 -4 0 -5 0 -5 1 -5 0 -5 0 -5 0 -5 0 -6 0 -5 1 -5 0 -5 0 -6 0 -5 0 -5 1 -5 0 -6 0 -5 0 -5 0 -5 1 -6 0 -5 0 -5 0 -5 0 -5 0 -5 0 -5 0 -5 0 -4 1 -5 0 -4 0 0zm25 -25l-1 13 0 0 -1 0 0 0 -1 0 0 0 -1 0 0 1 -1 0 0 0 -1 0 0 0 0 1 -1 0 0 0 -1 1 0 0 -1 0 0 1 0 0 -1 1 0 0 0 1 -1 0 0 1 0 0 0 1 0 0 -1 1 0 0 0 1 0 1 0 0 0 1 -13 0 0 -2 0 -1 0 -1 0 -1 0 -2 1 -1 0 -1 0 -1 1 -1 1 -1 0 -1 1 -1 0 -1 1 -1 1 -1 1 -1 1 -1 1 -1 0 -1 1 0 2 -1 1 -1 1 0 1 -1 1 0 1 0 2 -1 1 0 1 0 1 0 2 0 1 0 0 0zm61 10l13 3 -7 5 -2 0 -2 0 -2 0 -2 0 -2 0 -3 0 -2 -1 -2 0 -2 0 -2 0 -2 0 -2 0 -3 0 -2 -1 -2 0 -2 0 -2 0 -2 0 -3 0 -2 0 -2 -1 -2 0 -2 0 -2 0 -2 0 -2 -1 -3 0 -2 0 -2 0 -2 0 -2 0 -2 -1 1 -13 2 0 2 0 2 0 2 1 3 0 2 0 2 0 2 0 2 1 2 0 2 0 2 0 3 0 2 0 2 1 2 0 2 0 2 0 2 0 2 0 3 0 2 1 2 0 2 0 2 0 2 0 2 0 3 0 2 1 2 0 2 0 2 0 -7 5zm27 -56l8 -11 2 8 -1 2 -1 2 -1 2 -1 2 0 2 -1 2 -1 1 -1 2 -1 2 -1 2 0 2 -1 2 -1 2 -1 2 0 2 -1 2 -1 2 -1 2 0 2 -1 1 -1 2 0 2 -1 2 -1 2 0 2 -1 2 -1 2 0 2 -1 2 0 2 -1 2 -1 2 -13 -3 1 -2 1 -2 0 -2 1 -2 0 -3 1 -2 1 -2 0 -2 1 -2 1 -2 0 -2 1 -2 1 -2 1 -2 0 -2 1 -2 1 -2 1 -2 1 -2 0 -2 1 -2 1 -2 1 -2 1 -2 1 -2 0 -2 1 -2 1 -2 1 -2 1 -2 1 -2 1 -2 2 9zm-53 -62l61 51 -8 11 -61 -52 0 0 8 -10zm-9 -26l10 10 0 0 -1 0 0 1 0 0 -1 1 0 0 0 1 -1 0 0 1 0 0 0 1 0 0 -1 1 0 1 0 0 0 1 0 0 0 1 0 0 0 1 0 0 0 1 1 0 0 1 0 0 0 1 0 0 1 1 0 0 0 1 1 0 0 0 0 1 -8 10 -1 -1 -1 -1 -1 -1 -1 -1 -1 -1 0 -1 -1 -1 -1 -1 0 -2 0 -1 -1 -1 0 -1 0 -1 0 -2 0 -1 0 -1 0 -1 0 -1 0 -2 0 -1 0 -1 1 -1 0 -1 1 -1 0 -2 1 -1 0 -1 1 -1 1 -1 0 -1 1 -1 1 -1 0 0zm136 -135l9 9 0 0 -3 4 -4 3 -3 4 -4 4 -4 4 -4 4 -4 4 -5 4 -4 5 -4 4 -5 5 -5 4 -4 5 -5 5 -5 4 -5 5 -4 5 -5 5 -5 4 -5 5 -4 5 -5 4 -4 5 -5 4 -4 5 -4 4 -4 4 -4 4 -4 4 -4 3 -3 4 -3 3 -10 -10 3 -3 4 -3 4 -4 3 -4 4 -4 4 -4 5 -4 4 -4 4 -5 5 -4 4 -5 5 -4 5 -5 4 -5 5 -5 5 -4 5 -5 4 -5 5 -5 5 -4 4 -5 5 -5 4 -4 5 -4 4 -5 4 -4 4 -4 4 -4 4 -4 4 -3 3 -4 4 -3 0 0zm35 0l-10 9 0 0 -1 0 0 -1 0 0 -1 0 0 -1 0 0 -1 0 0 0 -1 -1 0 0 -1 0 0 0 -1 0 0 0 -1 0 0 0 -1 0 -1 0 0 0 -1 0 0 0 -1 0 0 1 -1 0 -1 0 0 0 -1 1 0 0 -1 0 0 1 0 0 -1 0 -9 -9 0 -1 1 -1 1 -1 1 0 2 -1 1 -1 1 0 1 -1 1 0 1 0 1 -1 1 0 2 0 1 0 1 -1 1 0 2 0 1 0 1 1 1 0 1 0 2 0 1 1 1 0 1 1 1 0 1 1 1 1 1 1 1 0 1 1 1 1 0 0zm43 59l6 12 -8 -2 -2 -1 -1 -2 -2 -2 -1 -2 -2 -2 -2 -2 -1 -2 -2 -2 -2 -2 -1 -1 -2 -2 -1 -2 -2 -2 -2 -2 -1 -2 -2 -2 -1 -2 -2 -2 -2 -1 -1 -2 -2 -2 -1 -2 -2 -2 -2 -2 -1 -2 -2 -2 -1 -2 -2 -1 -1 -2 -2 -2 -2 -2 -1 -2 10 -9 2 2 1 2 2 2 1 2 2 2 2 2 1 2 2 1 1 2 2 2 2 2 1 2 2 2 1 2 2 2 2 1 1 2 2 2 1 2 2 2 2 2 1 2 2 2 1 2 2 1 2 2 1 2 2 2 1 2 2 2 2 2 1 2 -8 -2zm68 -21l14 0 -5 6 -3 1 -2 1 -2 0 -3 1 -2 1 -2 0 -2 1 -3 1 -2 0 -2 1 -2 1 -3 1 -2 0 -2 1 -2 1 -3 1 -2 1 -2 1 -2 0 -2 1 -2 1 -3 1 -2 1 -2 1 -2 1 -2 1 -2 1 -2 1 -3 1 -2 1 -2 1 -2 1 -6 -12 2 -1 2 -1 3 -1 2 -1 2 -1 2 -1 2 -1 3 -1 2 -1 2 -1 2 -1 3 -1 2 -1 2 -1 2 -1 3 -1 2 -1 2 -1 3 0 2 -1 2 -1 3 -1 2 0 2 -1 3 -1 2 -1 2 0 3 -1 2 -1 2 0 3 -1 2 -1 -5 7zm-5 -66l14 -2 0 0 0 3 0 2 0 2 0 2 1 2 0 2 0 2 0 2 0 2 0 2 1 2 0 2 0 3 0 2 0 2 0 2 1 2 0 2 0 2 0 2 0 2 0 2 0 3 1 2 0 2 0 2 0 2 0 2 0 2 0 2 1 2 0 3 -14 0 0 -2 0 -2 0 -2 0 -2 0 -2 -1 -2 0 -2 0 -2 0 -3 0 -2 0 -2 0 -2 -1 -2 0 -2 0 -2 0 -2 0 -2 0 -2 0 -2 -1 -2 0 -3 0 -2 0 -2 0 -2 -1 -2 0 -2 0 -2 0 -2 0 -2 0 -2 -1 -2 0 -2 0 0zm25 -26l0 14 0 0 0 0 -1 0 -1 0 0 0 -1 0 0 0 -1 0 -1 1 0 0 -1 0 0 0 -1 1 0 0 -1 0 0 1 0 0 -1 1 0 0 0 0 -1 1 0 0 0 1 -1 0 0 1 0 0 0 1 0 0 0 0 0 1 0 0 0 1 0 0 -14 2 0 -2 0 -1 0 -1 0 -2 1 -1 0 -1 0 -1 1 -1 0 -2 1 -1 0 -1 1 -1 1 -1 1 -1 0 -1 1 -1 1 0 1 -1 1 -1 1 -1 1 0 1 -1 1 0 1 -1 1 0 2 -1 1 0 1 0 1 -1 2 0 1 0 1 0 0 0zm161 -4l0 13 0 0 -5 0 -4 0 -5 0 -5 1 -4 0 -5 0 -5 0 -5 0 -6 0 -5 0 -5 1 -5 0 -5 0 -6 0 -5 0 -5 1 -6 0 -5 0 -5 0 -5 0 -6 0 -5 1 -5 0 -5 0 -5 0 -5 0 -5 0 -5 1 -5 0 -5 0 -4 0 -5 0 0 -14 5 0 4 0 5 0 5 0 4 0 5 0 5 0 5 0 6 -1 5 0 5 0 5 0 5 0 6 -1 5 0 5 0 6 0 5 0 5 -1 5 0 6 0 5 0 5 0 5 -1 5 0 5 0 5 0 5 0 5 0 5 0 4 0 5 0 0 0zm25 25l-14 -1 0 0 0 0 0 -1 0 0 0 -1 0 0 0 -1 0 0 0 -1 0 0 -1 -1 0 0 0 -1 -1 0 0 0 0 -1 -1 0 0 -1 0 0 -1 0 0 -1 -1 0 0 0 -1 -1 0 0 -1 0 -1 0 0 0 -1 0 0 -1 -1 0 -1 0 0 0 0 -13 1 0 1 0 2 0 1 0 1 1 1 0 2 0 1 1 1 0 1 1 1 0 1 1 1 1 1 0 1 1 1 1 1 1 0 1 1 1 1 1 1 1 0 1 1 1 0 1 1 1 0 2 0 1 1 1 0 1 0 2 0 1 0 1 0 0zm-11 69l-4 13 -4 -7 0 -2 0 -3 0 -2 0 -2 0 -3 1 -2 0 -2 0 -3 0 -2 0 -3 0 -2 1 -2 0 -3 0 -2 0 -2 0 -3 0 -2 1 -3 0 -2 0 -2 0 -3 0 -2 1 -3 0 -2 0 -2 0 -3 0 -2 1 -2 0 -3 0 -2 0 -2 0 -3 14 1 0 3 -1 2 0 2 0 3 0 2 0 2 -1 3 0 2 0 3 0 2 0 2 -1 3 0 2 0 2 0 3 0 2 0 3 -1 2 0 2 0 3 0 2 0 2 0 3 -1 2 0 3 0 2 0 2 0 3 0 2 -1 2 0 3 0 2 -5 -7zm45 23l10 9 -8 2 -1 -1 -2 -1 -1 -1 -2 0 -1 -1 -2 -1 -1 -1 -2 0 -2 -1 -1 -1 -2 0 -1 -1 -2 -1 -2 0 -1 -1 -2 -1 -1 0 -2 -1 -1 0 -2 -1 -2 -1 -1 0 -2 -1 -2 0 -1 -1 -2 -1 -1 0 -2 -1 -2 0 -1 -1 -2 0 -2 -1 4 -13 2 1 2 0 1 1 2 0 2 1 2 1 1 0 2 1 2 0 1 1 2 1 2 0 1 1 2 1 2 0 1 1 2 1 2 0 1 1 2 1 2 0 1 1 2 1 1 0 2 1 2 1 1 1 2 0 2 1 1 1 2 1 1 1 -8 1zm60 -50l-50 59 -10 -9 50 -59 0 0 10 9zm26 -9l-10 9 0 0 0 0 -1 0 0 -1 -1 0 0 0 -1 -1 0 0 -1 0 0 0 -1 -1 -1 0 0 0 -1 0 0 0 -1 0 0 0 -1 0 0 0 -1 0 -1 0 0 0 -1 0 0 1 -1 0 0 0 0 0 -1 0 0 1 -1 0 0 0 0 1 -1 0 -10 -9 1 -1 1 -1 1 0 1 -1 1 -1 1 -1 1 0 1 -1 1 0 2 -1 1 0 1 0 1 0 1 -1 2 0 1 0 1 0 1 1 1 0 2 0 1 0 1 1 1 0 1 0 1 1 2 0 1 1 1 1 1 0 1 1 1 1 1 1 0 0zm135 135l-10 10 0 0 -3 -3 -3 -4 -4 -3 -4 -4 -4 -4 -4 -4 -4 -4 -4 -5 -5 -4 -4 -5 -5 -4 -4 -5 -5 -5 -5 -4 -5 -5 -4 -5 -5 -5 -5 -4 -5 -5 -4 -5 -5 -4 -4 -5 -5 -4 -4 -5 -5 -4 -4 -4 -4 -4 -4 -4 -4 -4 -3 -4 -4 -3 -3 -4 10 -9 3 3 3 4 4 3 4 4 4 4 4 4 4 4 4 5 5 4 4 4 5 5 4 5 5 4 5 5 4 5 5 5 5 4 5 5 4 5 5 5 5 4 4 5 5 4 4 5 5 4 4 4 4 4 4 4 4 4 3 4 4 3 3 3 0 0zm0 36l-9 -10 0 0 0 -1 1 0 0 0 0 -1 1 0 0 -1 0 0 0 -1 0 0 1 -1 0 0 0 -1 0 0 0 -1 0 0 0 -1 0 0 0 -1 0 0 0 -1 0 -1 -1 0 0 -1 0 0 0 -1 -1 0 0 -1 0 0 0 -1 -1 0 0 -1 -1 0 10 -10 1 1 1 1 0 1 1 1 1 1 0 1 1 1 0 2 1 1 0 1 1 1 0 1 0 1 0 2 0 1 0 1 0 1 0 1 0 2 0 1 0 1 -1 1 0 2 0 1 -1 1 0 1 -1 1 -1 1 -1 1 -1 1 0 1 -1 1 0 0zm-57 41l-12 6 2 -8 1 -2 2 -1 2 -2 2 -1 2 -2 2 -1 1 -2 2 -2 2 -1 2 -2 2 -1 1 -2 2 -1 2 -2 2 -1 2 -2 2 -2 1 -1 2 -2 2 -1 2 -2 2 -1 1 -2 2 -1 2 -2 2 -1 2 -2 2 -1 1 -2 2 -1 2 -2 2 -1 9 10 -2 1 -2 2 -2 2 -2 1 -2 2 -1 1 -2 2 -2 1 -2 2 -2 1 -1 2 -2 1 -2 2 -2 1 -2 2 -2 1 -1 2 -2 1 -2 2 -2 1 -2 2 -1 2 -2 1 -2 2 -2 1 -2 2 -1 1 -2 2 -2 1 -2 2 -2 2 -2 1 2 -8zm11 37l1 14 -7 -5 0 -1 -1 -1 0 -2 -1 -1 0 -1 -1 -1 0 -2 -1 -1 0 -1 -1 -2 0 -1 -1 -1 0 -1 -1 -2 0 -1 -1 -1 0 -1 -1 -2 0 -1 -1 -1 0 -1 -1 -2 -1 -1 0 -1 -1 -1 0 -2 -1 -1 -1 -1 0 -1 -1 -1 0 -2 -1 -1 12 -6 1 1 0 1 1 2 1 1 0 1 1 2 0 1 1 1 1 1 0 2 1 1 0 1 1 2 1 1 0 1 1 2 0 1 1 1 0 1 1 2 0 1 1 1 1 2 0 1 1 1 0 2 1 1 0 1 1 2 0 1 1 1 0 2 -7 -5zm82 7l-81 7 -1 -14 81 -6 0 0 1 13zm24 11l-13 0 0 0 0 0 0 -1 -1 0 0 -1 0 0 0 -1 0 -1 0 0 -1 -1 0 0 0 -1 0 0 -1 -1 0 0 0 -1 -1 0 0 0 -1 -1 0 0 0 0 -1 -1 0 0 -1 0 0 0 -1 -1 0 0 -1 0 0 0 -1 0 0 0 -1 0 0 0 -1 -13 1 -1 1 0 2 1 1 0 1 0 1 0 2 1 1 0 1 1 1 0 1 1 1 0 1 1 1 1 1 1 1 1 1 0 0 1 1 1 1 1 1 1 0 1 1 2 0 1 1 1 0 1 0 1 1 1 0 2 0 1 0 1 0 1 0 0zm0 192l-13 0 0 0 0 -5 0 -5 0 -5 0 -5 0 -6 0 -5 0 -6 0 -6 0 -7 0 -6 0 -6 0 -7 0 -7 0 -6 0 -7 0 -7 0 -7 0 -6 0 -7 0 -7 0 -6 0 -7 0 -6 0 -6 0 -6 0 -6 0 -6 0 -6 0 -5 0 -5 0 -5 0 -5 13 0 0 5 0 5 0 5 0 5 0 6 0 6 0 6 0 6 0 6 0 6 0 7 0 6 0 7 0 7 0 6 0 7 0 7 0 7 0 6 0 7 0 7 0 6 0 6 0 7 0 6 0 6 0 5 0 6 0 5 0 5 0 5 0 5 0 0zm-25 25l1 -14 0 0 0 0 1 0 0 0 1 0 0 0 1 0 0 0 1 0 0 0 1 -1 0 0 1 0 0 -1 0 0 1 0 0 -1 1 0 0 0 0 -1 1 0 0 -1 0 0 0 -1 1 0 0 -1 0 -1 0 0 0 -1 0 0 1 -1 0 0 0 -1 13 0 0 1 0 1 0 2 0 1 -1 1 0 1 0 2 -1 1 0 1 -1 1 0 1 -1 1 -1 1 -1 1 0 1 -1 1 -1 1 -1 0 -1 1 -1 1 -1 1 -1 0 -1 1 -1 0 -1 1 -2 0 -1 0 -1 1 -1 0 -2 0 -1 0 -1 0 0 0zm-69 -11l-13 -4 7 -5 3 0 2 0 2 1 3 0 2 0 3 0 2 0 2 1 3 0 2 0 2 0 3 0 2 1 3 0 2 0 2 0 3 0 2 0 2 1 3 0 2 0 2 0 3 0 2 1 2 0 3 0 2 0 2 1 3 0 2 0 2 0 3 0 -1 14 -3 0 -2 -1 -2 0 -3 0 -2 0 -2 0 -3 -1 -2 0 -2 0 -3 0 -2 0 -2 -1 -3 0 -2 0 -3 0 -2 0 -2 -1 -3 0 -2 0 -2 0 -3 0 -2 -1 -2 0 -3 0 -2 0 -2 0 -3 -1 -2 0 -3 0 -2 0 -2 0 -3 0 7 -5zm-26 53l-9 10 -2 -8 1 -2 1 -2 1 -1 1 -2 1 -2 1 -2 0 -1 1 -2 1 -2 1 -2 1 -2 1 -2 0 -1 1 -2 1 -2 1 -2 0 -2 1 -2 1 -1 1 -2 0 -2 1 -2 1 -2 0 -2 1 -2 1 -2 0 -2 1 -1 1 -2 0 -2 1 -2 0 -2 13 4 0 2 -1 2 -1 2 0 2 -1 2 -1 2 0 2 -1 2 -1 2 0 2 -1 2 -1 2 -1 1 0 2 -1 2 -1 2 -1 2 0 2 -1 2 -1 2 -1 2 -1 2 -1 2 0 1 -1 2 -1 2 -1 2 -1 2 -1 2 -1 2 -1 1 -1 2 -1 -8zm56 49l-8 10 0 0 -2 -1 -2 -2 -2 -1 -1 -2 -2 -1 -2 -2 -2 -1 -2 -2 -1 -1 -2 -2 -2 -2 -2 -1 -2 -2 -1 -1 -2 -2 -2 -1 -2 -2 -1 -1 -2 -2 -2 -1 -2 -2 -2 -1 -1 -2 -2 -1 -2 -2 -2 -2 -1 -1 -2 -2 -2 -1 -2 -2 -2 -1 -1 -2 9 -10 1 2 2 1 2 2 2 1 1 2 2 1 2 2 2 1 2 2 1 1 2 2 2 1 2 2 1 2 2 1 2 2 2 1 1 2 2 1 2 2 2 1 2 2 1 1 2 2 2 1 2 2 2 1 1 2 2 1 2 2 2 1 1 2 0 0zm1 35l-10 -9 0 0 1 -1 0 0 0 0 1 -1 0 0 0 -1 1 -1 0 0 0 -1 0 0 0 -1 1 0 0 -1 0 0 0 -1 0 -1 0 0 0 -1 0 0 0 -1 0 0 -1 -1 0 0 0 -1 0 0 0 -1 -1 0 0 0 0 -1 -1 0 0 -1 0 0 8 -10 1 1 1 1 1 1 1 1 1 1 0 1 1 1 1 1 0 1 0 1 1 2 0 1 0 1 0 1 0 1 0 2 0 1 0 1 0 1 0 1 0 2 -1 1 0 1 -1 1 0 1 -1 1 0 1 -1 1 -1 2 0 1 -1 0 -1 1 0 0zm-117 111l-10 -10 0 0 4 -3 3 -3 3 -3 4 -4 3 -3 4 -4 4 -3 3 -3 4 -4 4 -4 4 -3 4 -4 3 -3 4 -4 4 -3 4 -4 4 -4 4 -3 4 -4 4 -3 3 -4 4 -3 4 -4 4 -4 3 -3 4 -3 4 -4 3 -3 3 -3 4 -4 3 -3 3 -3 10 9 -3 4 -4 3 -3 3 -4 4 -3 3 -4 3 -3 4 -4 3 -4 4 -4 3 -3 4 -4 4 -4 3 -4 4 -4 3 -4 4 -4 3 -4 4 -3 4 -4 3 -4 4 -4 3 -4 4 -3 3 -4 4 -4 3 -3 4 -4 3 -3 3 -3 4 -4 3 -3 3 0 0zm-36 0l11 -9 0 0 0 0 0 1 1 0 0 0 1 1 0 0 0 0 1 0 0 0 1 1 0 0 1 0 0 0 1 0 1 0 0 0 1 0 0 0 1 0 0 0 1 0 0 -1 1 0 1 0 0 0 1 0 0 -1 1 0 0 0 1 -1 0 0 0 -1 10 10 -1 1 -1 1 -1 0 -1 1 -1 1 -1 0 -1 1 -1 1 -1 0 -2 0 -1 1 -1 0 -1 0 -1 0 -1 0 -2 1 -1 0 -1 -1 -1 0 -2 0 -1 0 -1 0 -1 -1 -1 0 -1 -1 -2 0 -1 -1 -1 -1 -1 -1 -1 -1 -1 0 -1 -1 0 0zm-34 -49l-7 -11 9 1 1 2 2 1 1 2 1 1 2 2 1 1 2 2 1 2 1 1 2 2 1 1 1 2 2 1 1 2 1 1 2 2 1 2 1 1 2 2 1 1 1 2 2 1 1 2 1 1 2 2 1 2 1 1 2 2 1 1 1 2 1 1 2 2 -11 9 -1 -2 -1 -2 -1 -1 -2 -2 -1 -1 -1 -2 -2 -1 -1 -2 -1 -1 -2 -2 -1 -1 -1 -2 -2 -2 -1 -1 -1 -2 -2 -1 -1 -2 -1 -1 -2 -2 -1 -1 -1 -2 -2 -1 -1 -2 -1 -2 -2 -1 -1 -2 -1 -1 -2 -2 -1 -1 -1 -2 -2 -1 -1 -2 8 1zm-67 26l-14 1 5 -7 2 0 3 -1 2 -1 2 -1 2 -1 3 0 2 -1 2 -1 2 -1 3 -1 2 -1 2 -1 2 -1 2 -1 3 -1 2 -1 2 -1 2 -1 2 -1 2 -1 3 -1 2 -1 2 -1 2 -1 2 -1 2 -1 2 -1 2 -1 2 -2 2 -1 2 -1 2 -1 7 11 -2 2 -2 1 -2 1 -2 1 -2 2 -2 1 -3 1 -2 1 -2 1 -2 1 -2 1 -3 2 -2 1 -2 1 -2 1 -3 1 -2 1 -2 1 -2 1 -3 1 -2 1 -2 1 -3 1 -2 0 -2 1 -3 1 -2 1 -2 1 -3 1 -2 1 -2 0 -3 1 5 -7zm6 77l-13 1 0 0 0 -2 -1 -2 0 -3 0 -2 0 -2 -1 -3 0 -2 0 -3 0 -2 0 -3 -1 -2 0 -2 0 -3 0 -2 0 -3 -1 -2 0 -2 0 -3 0 -2 0 -3 -1 -2 0 -3 0 -2 0 -2 0 -3 -1 -2 0 -3 0 -2 0 -3 0 -2 0 -2 -1 -3 14 -1 0 3 0 2 0 2 1 3 0 2 0 3 0 2 0 3 0 2 1 2 0 3 0 2 0 3 0 2 1 2 0 3 0 2 0 3 0 2 1 3 0 2 0 2 0 3 0 2 1 3 0 2 0 2 0 3 1 2 0 2 0 3 0 2 0 0zm-25 26l0 -14 0 0 1 0 0 0 1 0 1 0 0 0 1 0 0 0 1 -1 0 0 1 0 0 0 1 -1 0 0 1 0 0 -1 1 0 0 -1 1 0 0 0 0 -1 0 0 1 -1 0 0 0 -1 0 0 0 -1 1 0 0 0 0 -1 0 0 0 -1 0 -1 13 -1 0 2 0 1 0 1 0 2 0 1 -1 1 0 1 0 1 -1 2 0 1 -1 1 -1 1 0 1 -1 1 -1 1 -1 1 -1 0 -1 1 -1 1 -1 1 -1 0 -1 1 -1 0 -1 1 -1 0 -1 1 -1 0 -2 0 -1 1 -1 0 -1 0 -2 0 0 0zm-227 -430l-13 0 0 0 0 -7 0 -8 1 -7 2 -7 1 -7 2 -7 3 -7 2 -7 3 -6 3 -7 4 -6 4 -6 4 -6 4 -5 5 -5 5 -6 5 -4 5 -5 6 -4 5 -5 6 -3 7 -4 6 -3 6 -3 7 -3 7 -2 7 -2 7 -2 7 -1 8 -1 7 0 8 -1 0 14 -7 0 -7 1 -7 0 -6 2 -7 1 -6 2 -6 2 -6 2 -6 3 -6 3 -6 3 -5 4 -5 3 -5 4 -5 5 -5 4 -4 5 -4 4 -4 5 -4 6 -3 5 -4 6 -3 5 -2 6 -3 6 -2 7 -2 6 -1 6 -1 7 -1 7 -1 6 0 7 0 0zm134 134l0 13 0 0 -8 0 -7 -1 -8 0 -7 -2 -7 -1 -7 -2 -7 -3 -7 -2 -6 -3 -6 -3 -7 -4 -6 -4 -5 -4 -6 -4 -5 -5 -5 -5 -5 -5 -5 -5 -4 -6 -4 -6 -4 -6 -4 -6 -3 -6 -3 -7 -2 -6 -3 -7 -2 -7 -1 -7 -2 -7 -1 -8 0 -7 0 -8 13 0 0 7 1 7 1 7 1 6 1 7 2 6 2 6 3 6 2 6 3 6 4 5 3 6 4 5 4 5 4 5 4 5 5 4 5 4 5 4 5 4 5 3 6 4 6 3 6 2 6 3 6 2 6 2 7 1 6 1 7 1 7 1 7 0 0 0zm133 -134l14 0 0 0 -1 8 0 7 -1 8 -1 7 -2 7 -2 7 -2 7 -3 6 -3 7 -3 6 -4 6 -4 6 -4 6 -4 6 -5 5 -4 5 -6 5 -5 5 -5 4 -6 4 -6 4 -6 4 -7 3 -6 3 -7 2 -7 3 -7 2 -7 1 -7 2 -7 0 -8 1 -7 0 0 -13 7 0 6 -1 7 -1 7 -1 6 -1 6 -2 7 -2 6 -3 5 -2 6 -3 6 -4 5 -3 5 -4 6 -4 4 -4 5 -4 4 -5 5 -5 4 -5 3 -5 4 -6 3 -5 3 -6 3 -6 2 -6 2 -6 2 -6 1 -7 2 -6 0 -7 1 -7 0 -7 0 0zm-133 -133l0 -14 0 0 7 1 8 0 7 1 7 1 7 2 7 2 7 2 7 3 6 3 7 3 6 4 6 3 6 5 5 4 5 5 6 4 4 6 5 5 4 5 4 6 4 6 4 6 3 7 3 6 3 7 2 7 2 7 2 7 1 7 1 7 0 8 1 7 -14 0 0 -7 -1 -6 0 -7 -2 -7 -1 -6 -2 -6 -2 -7 -2 -6 -3 -6 -3 -5 -3 -6 -4 -5 -3 -6 -4 -5 -5 -4 -4 -5 -5 -4 -4 -5 -6 -4 -5 -3 -5 -4 -6 -3 -6 -3 -5 -3 -6 -2 -7 -2 -6 -2 -6 -1 -7 -2 -7 0 -6 -1 -7 0 0 0z"/>
   </g>
  </g>
 </g>
</svg>
