<?xml version="1.0" encoding="UTF-8"?>
<!DOCTYPE svg PUBLIC "-//W3C//DTD SVG 1.1//EN" "http://www.w3.org/Graphics/SVG/1.1/DTD/svg11.dtd">
<!-- Creator: CorelDRAW X7 -->
<svg xmlns="http://www.w3.org/2000/svg" xml:space="preserve" width="59.1306mm" height="18.0679mm" version="1.1" style="shape-rendering:geometricPrecision; text-rendering:geometricPrecision; image-rendering:optimizeQuality; fill-rule:evenodd; clip-rule:evenodd"
viewBox="0 0 5913160 1806821"
 xmlns:xlink="http://www.w3.org/1999/xlink">
 <defs>
  <style type="text/css">
   <![CDATA[
    .str0 {stroke:#BC7718;stroke-width:7620.13}
    .str1 {stroke:white;stroke-width:7620.13}
    .str2 {stroke:white;stroke-width:84661.4;stroke-linecap:round;stroke-linejoin:round}
    .fil10 {fill:none}
    .fil7 {fill:#663300}
    .fil3 {fill:#985426}
    .fil17 {fill:#990000}
    .fil12 {fill:#CC9933}
    .fil11 {fill:#FFFF99}
    .fil2 {fill:#FFFFCB}
    .fil0 {fill:#4D4D4D;fill-opacity:0.419608}
    .fil15 {fill:url(#id8)}
    .fil8 {fill:url(#id9)}
    .fil1 {fill:url(#id10)}
    .fil6 {fill:url(#id11)}
    .fil16 {fill:url(#id12)}
    .fil14 {fill:url(#id13)}
    .fil5 {fill:url(#id14)}
    .fil9 {fill:url(#id15)}
    .fil13 {fill:url(#id16)}
    .fil4 {fill:url(#id17)}
   ]]>
  </style>
     <mask id="id0">
  <linearGradient id="id1" gradientUnits="userSpaceOnUse" x1="5.48755e+006" y1="389137" x2="5.48755e+006" y2="460058">
   <stop offset="0" style="stop-opacity:1; stop-color:white"/>
   <stop offset="1" style="stop-opacity:0; stop-color:white"/>
  </linearGradient>
      <rect style="fill:url(#id1)" x="5385251" y="322285" width="204603" height="204613"/>
     </mask>
     <mask id="id2">
  <linearGradient id="id3" gradientUnits="userSpaceOnUse" x1="5.42872e+006" y1="1.33113e+006" x2="5.42872e+006" y2="1.40205e+006">
   <stop offset="0" style="stop-opacity:1; stop-color:white"/>
   <stop offset="1" style="stop-opacity:0; stop-color:white"/>
  </linearGradient>
      <rect style="fill:url(#id3)" x="5326420" y="1264281" width="204603" height="204613"/>
     </mask>
     <mask id="id4">
  <linearGradient id="id5" gradientUnits="userSpaceOnUse" x1="532689" y1="1.28875e+006" x2="532689" y2="1.35967e+006">
   <stop offset="0" style="stop-opacity:1; stop-color:white"/>
   <stop offset="1" style="stop-opacity:0; stop-color:white"/>
  </linearGradient>
      <rect style="fill:url(#id5)" x="430387" y="1221901" width="204603" height="204613"/>
     </mask>
     <mask id="id6">
  <linearGradient id="id7" gradientUnits="userSpaceOnUse" x1="532689" y1="353136" x2="532689" y2="424057">
   <stop offset="0" style="stop-opacity:1; stop-color:white"/>
   <stop offset="1" style="stop-opacity:0; stop-color:white"/>
  </linearGradient>
      <rect style="fill:url(#id7)" x="430387" y="286285" width="204603" height="204613"/>
     </mask>
  <linearGradient id="id8" gradientUnits="userSpaceOnUse" x1="532689" y1="296525" x2="532689" y2="480658">
   <stop offset="0" style="stop-opacity:1; stop-color:#663300"/>
   <stop offset="1" style="stop-opacity:1; stop-color:#CC9933"/>
  </linearGradient>
  <linearGradient id="id9" gradientUnits="objectBoundingBox" xlink:href="#id8" x1="50%" y1="10.0037%" x2="50%" y2="89.9963%">
  </linearGradient>
  <linearGradient id="id10" gradientUnits="userSpaceOnUse" x1="3.33511e+006" y1="-275505" x2="2.67325e+006" y2="1.99631e+006">
   <stop offset="0" style="stop-opacity:1; stop-color:#BF772B"/>
   <stop offset="1" style="stop-opacity:1; stop-color:#A26C2E"/>
  </linearGradient>
  <radialGradient id="id11" gradientUnits="userSpaceOnUse" gradientTransform="matrix(1.25966E-005 0.410152 -1.10402 2.56339E-005 3.67503E+006 -322216)" cx="2.77446e+006" cy="815754" r="1.33338e+006" fx="2.77446e+006" fy="815754">
   <stop offset="0" style="stop-opacity:1; stop-color:#FFEBB9"/>
   <stop offset="1" style="stop-opacity:1; stop-color:#FDE09C"/>
  </radialGradient>
  <radialGradient id="id12" gradientUnits="userSpaceOnUse" gradientTransform="matrix(0.0013565 1.26012 -1.26053 0.00135643 952150 -261605)" cx="495268" cy="362986" r="35560.6" fx="495268" fy="362986">
   <stop offset="0" style="stop-opacity:1; stop-color:#FFFF99"/>
   <stop offset="1" style="stop-opacity:1; stop-color:#CC9933"/>
  </radialGradient>
  <radialGradient id="id13" gradientUnits="userSpaceOnUse" gradientTransform="matrix(0.0013565 1.26012 -1.26053 0.00135643 2.13152E+006 672742)" xlink:href="#id12" cx="495268" cy="1.2986e+006" r="35560.6" fx="495268" fy="1.2986e+006">
  </radialGradient>
  <radialGradient id="id14" gradientUnits="userSpaceOnUse" gradientTransform="matrix(1.25966E-005 -0.416127 -1.10403 -2.60073E-005 3.64829E+006 1.95489E+006)" cx="2.75646e+006" cy="807834" r="1.53511e+006" fx="2.75646e+006" fy="807834">
   <stop offset="0" style="stop-opacity:1; stop-color:#FFE1BB"/>
   <stop offset="1" style="stop-opacity:1; stop-color:#FDCF8F"/>
  </radialGradient>
  <radialGradient id="id15" gradientUnits="userSpaceOnUse" gradientTransform="matrix(0.0013565 1.26012 -1.26053 0.00135643 5.94567E+006 -6.46939E+006)" xlink:href="#id12" cx="5.45013e+006" cy="398987" r="35560.6" fx="5.45013e+006" fy="398987">
  </radialGradient>
  <radialGradient id="id16" gradientUnits="userSpaceOnUse" gradientTransform="matrix(0.0013565 1.26012 -1.26053 0.00135643 7.07433E+006 -5.45453E+006)" xlink:href="#id12" cx="5.3913e+006" cy="1.34098e+006" r="35560.6" fx="5.3913e+006" fy="1.34098e+006">
  </radialGradient>
  <radialGradient id="id17" gradientUnits="userSpaceOnUse" gradientTransform="matrix(1.25966E-005 -0.410151 -1.10403 -2.5634E-005 3.56167E+006 1.87143E+006)" cx="2.73329e+006" cy="750353" r="1.63601e+006" fx="2.73329e+006" fy="750353">
   <stop offset="0" style="stop-opacity:1; stop-color:#FFD6A1"/>
   <stop offset="1" style="stop-opacity:1; stop-color:#FDBD66"/>
  </radialGradient>
 </defs>
 <g id="Layer_x0020_1">
  <metadata id="CorelCorpID_0Corel-Layer"/>
  <g id="_1953768144">
   <path class="fil0" d="M5084366 106752c-1049588,-19481 -3014911,-43011 -4153030,21600 -1009837,57351 -889475,45161 -928546,656561 -25250,395167 127232,862835 223764,916266 238464,132002 4442995,108432 5013275,94661 199723,-4820 387856,-25700 489578,-128202 196403,-197903 192243,-578450 177643,-882315 -36611,-762233 70501,-662001 -822684,-678571z"/>
   <path class="fil1" d="M5097696 20750c-1032677,-19490 -2966370,-43010 -4086159,21601 -993597,57341 -875155,45160 -913605,656561 -24851,395167 125192,862834 220163,916265 234614,132003 4371474,108432 4932564,94662 196513,-4820 381606,-25691 481708,-128212 193243,-197894 189133,-578440 174773,-882305 -36011,-762233 69361,-662001 -809444,-678572zm-4536657 783064c-13170,18800 -21350,43170 -20630,64471 1130,33350 21351,65161 40201,95261 11950,19071 30250,36031 50851,50161 126802,87042 312405,40041 368136,-77421 30420,-64101 -2030,-153883 -65601,-197924 -103282,-71541 -317326,-13960 -372957,65452zm4403115 0c-13160,18800 -21340,43170 -20630,64471 1130,33350 21360,65161 40200,95261 11950,19071 30261,36031 50861,50161 126792,87042 312395,40041 368136,-77421 30421,-64101 -2030,-153883 -65601,-197924 -103291,-71541 -317325,-13960 -372966,65452z"/>
   <path class="fil2" d="M4943914 1547176c-496889,8450 -1215511,17800 -1940003,17590 -24711,-48970 -47001,-99091 -66911,-150352 7000,2490 190,72381 -9690,150292 -619791,-780 -1238321,-8810 -1720590,-30650 25361,-46601 46121,-95532 62461,-146723 -52450,49721 -107931,96922 -166422,141683l-3280 -170c-887985,-46211 -831934,-39231 -855095,-483038 274125,-19711 161773,-46661 -4350,-72422l-110 -1510c-23350,-335235 27351,-731992 116702,-777323 31291,-15880 138292,-28800 300285,-39320 75131,36080 157143,66841 245634,92571 -42340,-32300 -82721,-65531 -121192,-99661 320036,-16081 786964,-25421 1297772,-30651 111662,-1150 384347,139032 499129,138262 101651,-680 45270,-142412 147772,-142842 835664,-3640 1674578,190 2111246,1250 -51951,49131 -107712,96462 -167343,141932 126242,-36710 239274,-83661 338046,-141682 31820,0 58671,-50 79851,-160 172343,-910 412987,24950 506679,70191 107431,51881 155902,129242 172503,220934 27260,150402 -31201,339386 -55771,517729 -350196,90181 -202904,92951 -9231,84611 -49310,535089 29461,535159 -508798,537249 -86232,-165583 -98362,-105872 -92762,450 -48001,310 -99951,800 -156532,1760z"/>
   <path class="fil3" d="M4901083 1613647c-477978,8230 -1165660,17291 -1862302,17391 -39220,-69762 -73261,-141983 -102241,-216624 8970,3180 -4730,116982 -18531,216554 -636360,-890 -1270511,-9751 -1749729,-34051 43290,-64871 76581,-134832 100441,-209584 -76531,72572 -159582,139773 -248914,201804 -783723,-41931 -686221,-55321 -719962,-544609l-220 -3330c174883,-16691 116282,-37651 -3010,-58481 -11520,-315756 50101,-655941 117382,-707122 32421,-24671 173493,-44521 387767,-60141 32440,11540 65891,22340 100321,32350 -15620,-11910 -30960,-23960 -46041,-36110 331416,-21911 813914,-34861 1335973,-40831l113632 -1300 260964 98242 147403 -101332c88441,-60791 242874,-870 363226,-890 670711,-150 1305912,7700 1681458,18620 -28730,24461 -58461,48421 -89231,71891 68161,-19820 132482,-42630 192773,-68551 76962,2750 137893,5620 179593,8600 167513,11951 403967,24671 495619,69441 105091,51321 152502,127853 168753,218544 23640,132002 -18701,294065 -45361,452158 -257465,69781 -166503,78241 -10980,73371 -1480,11550 -2790,23070 -3911,34511 -52390,535239 27691,563569 -420557,566869 -136222,-287595 -134102,-153502 -120562,580 -60321,270 -127932,720 -203753,2030z"/>
   <path class="fil4" d="M4901003 1557586c-484858,8340 -1185490,17561 -1892402,17391 -26811,-52211 -50841,-105732 -72141,-160563 7320,2590 -420,78591 -11001,160513 -624230,-810 -1246951,-9261 -1723949,-32401 27501,-49131 49811,-100902 67141,-155193 -55540,52651 -114481,102482 -176793,149563 -830664,-43731 -763622,-44701 -788833,-496028 169243,-16491 112932,-37101 -3590,-57631 -21760,-330386 46031,-707492 114492,-763693 25730,-21141 119992,-38911 264974,-53741 68922,31550 143383,58821 223104,82001 -39160,-29880 -76641,-60531 -112492,-91991 353806,-28361 914416,-43981 1516106,-50561 33821,-350 215424,123992 249494,123512 18501,-260 -105502,-125062 -56511,-125302 904596,-4440 1860812,5930 2323660,24250 -47801,44291 -98742,87112 -152863,128382 111022,-32280 211834,-72481 301695,-121162 27461,1680 51221,3390 70661,5160 167033,15181 403977,24671 495629,69442 105091,51320 152492,127842 168753,218543 14900,83202 3580,178343 -13491,276905 -13360,77181 -30280,156473 -40900,233764 -243165,66651 -157943,75491 -7951,71091 -49190,524619 26591,542799 -445857,545319 -93842,-183683 -104452,-114252 -97452,430 -59251,270 -125412,730 -199483,2000z"/>
   <path class="fil5" d="M4764061 1498195c-449058,7130 -1097929,15011 -1752610,14871 -24830,-44651 -47101,-90422 -66821,-137323 6780,2230 -380,67211 -10180,137273 -578120,-680 -1154850,-7911 -1596607,-27711 25470,-42011 46120,-86281 62191,-132722 -51441,45031 -106042,87651 -163743,127912 -769303,-37401 -707202,-38221 -730562,-424207 156752,-14110 104591,-31731 -3321,-49281 -20150,-282555 42621,-605050 106032,-653121 23831,-18080 111122,-33281 245394,-45961 63842,26981 132793,50301 206634,70131 -36271,-25560 -70981,-51770 -104182,-78671 327666,-24250 846864,-37611 1404104,-43231 31330,-320 199503,106032 231074,105622 17130,-230 -97712,-106962 -52351,-107172 837784,-3790 1723349,5070 2152016,20751 -44270,37880 -91451,74491 -141582,109792 102832,-27601 196203,-61982 279425,-103612 25430,1430 47430,2890 65431,4400 154692,12980 374136,21110 459018,59391 97321,43881 141232,109332 156292,186903 13800,71161 3310,152523 -12500,236814 -12370,66001 -28041,133812 -37881,199913 -225203,57001 -146272,64551 -7350,60791 -45571,448658 24621,464208 -412927,466368 -86921,-157082 -96741,-97711 -90251,360 -54881,230 -116162,630 -184743,1720z"/>
   <path class="fil6" d="M4638138 384256c-416867,-5710 -1019227,-12010 -1626987,-11900 -23050,35731 -43721,72362 -62011,109882 6280,-1770 -370,-53781 -9470,-109852 -536669,550 -1072068,6340 -1482155,22181 23640,33620 42820,69041 57721,106201 -47751,-36030 -98422,-70131 -151993,-102351 -714162,29930 -656521,30590 -678201,339455 145512,11291 97091,25391 -3080,39441 -18711,226094 39570,484168 98441,522629 22121,14470 103152,26630 227804,36781 59261,-21591 123272,-40261 191813,-56111 -33670,20440 -65901,41420 -96711,62951 304185,19400 786163,30100 1303452,34590 29080,250 185213,-84841 214503,-84521 15901,180 -90691,85591 -48580,85761 777723,3030 1599827,-4070 1997743,-16610 -41090,-30300 -84881,-59611 -131422,-87861 95462,22100 182123,49610 259384,82931 23611,-1160 44031,-2330 60761,-3540 143583,-10380 347306,-16880 426108,-47521 90341,-35120 131112,-87491 145082,-149562 12810,-56931 3070,-122042 -11600,-189494 -11490,-52821 -26030,-107081 -35171,-159972 -209053,-45621 -135782,-51661 -6820,-48661 -42300,-359016 22861,-371456 -383336,-373176 -80672,125692 -89792,78181 -83772,-300 -50951,-190 -107841,-500 -171503,-1371z"/>
   <g>
    <circle class="fil7" cx="5506593" cy="438714" r="115092"/>
    <circle class="fil8" cx="5487556" cy="424593" r="115092"/>
    <circle class="fil9 str0" cx="5487556" cy="424593" r="98493"/>
    <path class="fil10 str1" style="mask:url(#id0)" d="M5487553 326096c-54401,0 -98492,44090 -98492,98501 0,54401 44091,98492 98492,98492 54401,0 98491,-44091 98491,-98492 0,-54411 -44090,-98501 -98491,-98501z"/>
    <g>
     <path class="fil7" d="M5543824 371716l-10 -10c-6110,-6110 -16091,-6110 -22201,0l-36720 36721 -36761 -36751c-6110,-6110 -16100,-6100 -22210,10l0 0c-6110,6110 -6110,16091 0,22201l36760 36750 -33410 33411c-6110,6110 -6110,16080 0,22190l20 20c6110,6110 16080,6110 22190,0l33411 -33400 33370 33370c6110,6110 16091,6110 22201,0l0 0c6110,-6110 6120,-16100 10,-22210l-33371 -33381 36721 -36720c6110,-6110 6110,-16091 0,-22201z"/>
     <path class="fil11" d="M5549184 366356l-10 -10c-6110,-6110 -16090,-6110 -22201,0l-36720 36721 -36761 -36761c-6110,-6110 -16100,-6090 -22210,20l0 0c-6110,6110 -6110,16090 0,22201l36760 36750 -33410 33411c-6110,6110 -6110,16080 0,22190l20 20c6110,6110 16090,6110 22200,0l33401 -33410 33370 33380c6111,6110 16091,6110 22201,0l0 0c6110,-6110 6120,-16110 10,-22220l-33371 -33371 36721 -36720c6120,-6111 6120,-16091 0,-22201z"/>
     <path class="fil12" d="M5546504 369036l-10 -10c-6110,-6110 -16090,-6110 -22201,0l-36720 36721 -36761 -36751c-6110,-6110 -16100,-6100 -22210,10l0 0c-6110,6110 -6110,16091 0,22201l36760 36750 -33410 33411c-6110,6110 -6110,16080 0,22190l20 20c6110,6110 16080,6110 22190,0l33411 -33410 33370 33380c6110,6110 16091,6110 22201,0l0 0c6110,-6110 6120,-16100 10,-22220l-33371 -33371 36721 -36720c6110,-6110 6110,-16091 0,-22201z"/>
    </g>
   </g>
   <g>
    <circle class="fil7" cx="5447762" cy="1380710" r="115092"/>
    <circle class="fil8" cx="5428725" cy="1366589" r="115092"/>
    <circle class="fil13 str0" cx="5428725" cy="1366589" r="98493"/>
    <path class="fil10 str1" style="mask:url(#id2)" d="M5428722 1268091c-54401,0 -98492,44091 -98492,98502 0,54401 44091,98492 98492,98492 54401,0 98491,-44091 98491,-98492 0,-54411 -44090,-98502 -98491,-98502z"/>
    <g>
     <path class="fil7" d="M5484993 1313712l-10 -10c-6110,-6110 -16091,-6110 -22201,0l-36720 36721 -36761 -36751c-6110,-6110 -16100,-6100 -22210,10l0 0c-6110,6110 -6110,16090 0,22201l36760 36750 -33410 33411c-6110,6110 -6110,16080 0,22190l20 20c6110,6110 16080,6110 22190,0l33411 -33400 33370 33370c6110,6110 16091,6110 22201,0l0 0c6110,-6110 6120,-16100 10,-22210l-33371 -33381 36721 -36720c6110,-6111 6110,-16091 0,-22201z"/>
     <path class="fil11" d="M5490353 1308352l-10 -10c-6110,-6110 -16090,-6110 -22201,0l-36720 36721 -36761 -36761c-6110,-6110 -16100,-6090 -22210,20l0 0c-6110,6110 -6110,16090 0,22201l36760 36750 -33410 33411c-6110,6110 -6110,16080 0,22190l20 20c6110,6110 16090,6110 22200,0l33401 -33411 33370 33381c6111,6110 16091,6110 22201,0l0 0c6110,-6110 6120,-16110 10,-22220l-33371 -33371 36721 -36720c6120,-6111 6120,-16091 0,-22201z"/>
     <path class="fil12" d="M5487673 1311032l-10 -10c-6110,-6110 -16090,-6110 -22201,0l-36720 36721 -36761 -36751c-6110,-6110 -16100,-6100 -22210,10l0 0c-6110,6110 -6110,16090 0,22201l36760 36750 -33410 33411c-6110,6110 -6110,16080 0,22190l20 20c6110,6110 16080,6110 22190,0l33411 -33410 33370 33380c6110,6110 16091,6110 22201,0l0 0c6110,-6110 6120,-16100 10,-22220l-33371 -33371 36721 -36720c6110,-6111 6110,-16091 0,-22201z"/>
    </g>
   </g>
   <g>
    <circle class="fil7" cx="551729" cy="1338329" r="115092"/>
    <circle class="fil8" cx="532692" cy="1324208" r="115092"/>
    <circle class="fil14 str0" cx="532692" cy="1324208" r="98493"/>
    <path class="fil10 str1" style="mask:url(#id4)" d="M532689 1225711c-54401,0 -98492,44090 -98492,98501 0,54401 44091,98492 98492,98492 54401,0 98492,-44091 98492,-98492 0,-54411 -44091,-98501 -98492,-98501z"/>
    <g>
     <path class="fil7" d="M588960 1271332l-10 -10c-6110,-6111 -16090,-6111 -22200,0l-36721 36720 -36761 -36751c-6110,-6110 -16100,-6100 -22210,10l0 0c-6110,6111 -6110,16091 0,22201l36761 36750 -33411 33411c-6110,6110 -6110,16080 0,22190l20 20c6110,6111 16080,6111 22190,0l33411 -33400 33371 33370c6110,6111 16090,6111 22200,0l0 0c6110,-6110 6120,-16100 10,-22210l-33371 -33381 36721 -36720c6110,-6110 6110,-16090 0,-22200z"/>
     <path class="fil11" d="M594320 1265971l-10 -10c-6110,-6110 -16090,-6110 -22200,0l-36721 36721 -36761 -36761c-6110,-6110 -16100,-6090 -22210,20l0 0c-6110,6111 -6110,16091 0,22201l36761 36750 -33411 33411c-6110,6110 -6110,16080 0,22190l20 20c6110,6110 16090,6110 22200,0l33401 -33410 33371 33380c6110,6110 16090,6110 22200,0l0 0c6110,-6110 6120,-16110 10,-22220l-33371 -33371 36721 -36720c6120,-6110 6120,-16090 0,-22201z"/>
     <path class="fil12" d="M591640 1268651l-10 -10c-6110,-6110 -16090,-6110 -22200,0l-36721 36721 -36761 -36751c-6110,-6110 -16100,-6100 -22210,10l0 0c-6110,6111 -6110,16091 0,22201l36761 36750 -33411 33411c-6110,6110 -6110,16080 0,22190l20 20c6110,6110 16080,6110 22190,0l33411 -33410 33371 33380c6110,6110 16090,6110 22200,0l0 0c6110,-6110 6120,-16100 10,-22220l-33371 -33371 36721 -36720c6110,-6110 6110,-16090 0,-22201z"/>
    </g>
   </g>
   <g>
    <circle class="fil7" cx="551729" cy="402713" r="115092"/>
    <circle class="fil15" cx="532692" cy="388592" r="115092"/>
    <circle class="fil16 str0" cx="532692" cy="388592" r="98493"/>
    <path class="fil10 str1" style="mask:url(#id6)" d="M532689 290095c-54401,0 -98492,44091 -98492,98502 0,54400 44091,98491 98492,98491 54401,0 98492,-44091 98492,-98491 0,-54411 -44091,-98502 -98492,-98502z"/>
    <g>
     <path class="fil7" d="M588960 335716l-10 -10c-6110,-6110 -16090,-6110 -22200,0l-36721 36720 -36761 -36750c-6110,-6110 -16100,-6100 -22210,10l0 0c-6110,6110 -6110,16090 0,22200l36761 36751 -33411 33410c-6110,6110 -6110,16081 0,22191l20 20c6110,6110 16080,6110 22190,0l33411 -33401 33371 33371c6110,6110 16090,6110 22200,0l0 0c6110,-6110 6120,-16101 10,-22211l-33371 -33380 36721 -36721c6110,-6110 6110,-16090 0,-22200z"/>
     <path class="fil11" d="M594320 330356l-10 -10c-6110,-6111 -16090,-6111 -22200,0l-36721 36720 -36761 -36760c-6110,-6111 -16100,-6091 -22210,20l0 0c-6110,6110 -6110,16090 0,22200l36761 36751 -33411 33410c-6110,6110 -6110,16080 0,22191l20 20c6110,6110 16090,6110 22200,0l33401 -33411 33371 33381c6110,6110 16090,6110 22200,0l0 0c6110,-6111 6120,-16111 10,-22221l-33371 -33370 36721 -36721c6120,-6110 6120,-16090 0,-22200z"/>
     <path class="fil12" d="M591640 333036l-10 -10c-6110,-6110 -16090,-6110 -22200,0l-36721 36720 -36761 -36750c-6110,-6110 -16100,-6100 -22210,10l0 0c-6110,6110 -6110,16090 0,22200l36761 36751 -33411 33410c-6110,6110 -6110,16080 0,22191l20 20c6110,6110 16080,6110 22190,0l33411 -33411 33371 33381c6110,6110 16090,6110 22200,0l0 0c6110,-6111 6120,-16101 10,-22221l-33371 -33370 36721 -36721c6110,-6110 6110,-16090 0,-22200z"/>
    </g>
   </g>
  </g>
  <g>
   <path class="fil10 str2" d="M1214451 728352c-380,-4270 -740,-9670 -1300,-16370 -560,-6700 -380,-12830 560,-18230 930,-5390 3160,-9670 7060,-12470 3730,-2781 9680,-2601 17680,750 11160,4280 22320,8550 33491,13020 10970,4460 22320,8930 33850,13770 10610,5020 21950,9680 33681,13760 11720,4280 23070,9120 34030,14520 7820,3161 13400,7431 16571,12461 3350,5200 5390,10790 6320,16930 930,6140 930,12650 0,19340 -930,6700 -2050,13031 -3170,18801 -8551,48920 -18601,98411 -29951,148082 -1110,5390 -2420,11720 -4080,18780 -1680,7071 -2800,14141 -3350,21021 -570,6890 0,13220 1860,18980 1670,5950 5570,10240 11340,13210 9860,5030 19160,9310 27911,13031 8740,3530 18040,6130 28270,7620 9120,1110 18610,1680 28471,1680 48550,2040 97111,3710 145482,4830 10600,0 21580,370 32921,1300 11350,930 22140,560 32190,-1300 7620,-1120 13020,-3530 16180,-7440 3350,-3720 5391,-8560 6511,-14331 1110,-5760 1490,-11710 1110,-17660 -360,-5960 -730,-11720 -1110,-17310l-5391 -70691c-1860,-23621 -4840,-47071 -8750,-70322l-13020 -72371c-740,-3710 -1310,-6880 -1680,-9860 -180,-2790 -730,-5950 -1480,-9120 -560,-5580 -1120,-10970 -1300,-16180 -190,-5200 370,-10421 1300,-15431 1120,-4470 2970,-8000 5580,-10610 2600,-2790 5210,-5960 7820,-9680 5380,-7620 11340,-12280 17851,-14130 6520,-1870 13950,-2980 22700,-3720 13950,-1120 28080,-1680 42411,-1680 6700,370 14320,930 23260,1680 8930,740 17300,2230 25300,4840 8181,2600 14881,6690 20461,12280 5580,5570 8370,13380 8370,23060 0,20091 -370,39811 -1120,59161 -730,19351 -2600,38881 -5380,58601 -1680,19161 -3170,38131 -4290,56551 -1110,18611 -1860,37391 -2230,56741 -370,13021 -930,25861 -1300,38691 -380,12660 -750,25490 -1120,38511 -180,10980 -560,22140 -930,33490 -180,11530 -1860,22511 -4830,33111 -2420,8930 -6701,15630 -12281,20100 -5770,4270 -12290,7440 -19910,9480 -7440,2050 -15260,3170 -23630,3350 -8180,190 -15811,190 -22881,190 -15250,370 -30500,750 -45581,930 -15070,180 -29950,740 -44640,1850 -25111,1680 -50051,3350 -74602,5030 -24560,1670 -49300,2790 -74231,3540 -12830,731 -26050,1481 -39810,2231 -13771,550 -27341,1670 -41111,3150 -13760,1500 -27351,2990 -40561,4650 -13390,1680 -26780,1500 -40181,-360 -10050,-940 -19900,-2970 -29580,-6140 -9490,-3161 -19160,-5951 -28840,-8181 -7801,-2240 -13571,-7450 -17111,-15630 -3720,-8370 -5390,-16190 -5390,-23440 -750,-10420 -1120,-20831 -1120,-31631 0,-10600 -380,-21580 -1110,-32370 -1870,-28651 -4840,-57111 -8940,-85582 -4280,-28270 -7810,-56731 -10600,-85381 -3710,-48741 -7810,-97102 -12650,-145483zm3310496 -198873c0,-16730 3910,-29021 11710,-36831 8000,-7820 17500,-13020 29030,-15820 11340,-2600 23621,-3710 36461,-2970 13030,740 24560,1120 34600,1120 3730,0 9111,0 16191,-180 7250,-200 14320,0 21570,730 7080,750 13220,2050 18420,4100 5210,2050 7630,5200 7260,9490 -1120,15631 -1300,31251 -750,46691 570,15440 750,30891 750,46511 370,17860 0,35710 -930,53761 -930,18050 -2050,35900 -3170,53771 -1110,17660 -2230,35530 -3530,53581 -1300,18030 -2050,35900 -2420,53750 -1860,56181 -2600,112182 -2410,167803 180,55631 1480,111632 4080,167813l-2780 15800c-15820,4851 -31250,9681 -46520,14521 -15251,4830 -30681,9670 -46311,14510 -8190,2790 -16561,5210 -25121,7250 -8550,2050 -16920,940 -25120,-2980 -6130,-2600 -10410,-6880 -12830,-12830 -2600,-5950 -3900,-12470 -4270,-19531 -380,-7070 -200,-14320 370,-21590 730,-7250 1110,-13570 1480,-19150 370,-15811 930,-31631 2050,-47251 930,-15630 1670,-31451 2420,-47261 550,-15810 930,-31620 930,-47441 0,-15810 -560,-31620 -1860,-47610 -2610,-32381 -4470,-64572 -5390,-96552 -930,-32001 -1500,-64191 -2050,-96932 -380,-33120 -750,-65851 -1120,-98041 -380,-32371 -560,-65111 -740,-98232zm-584150 -18410c-1680,-7070 -1110,-11911 2050,-15071 2970,-3170 7070,-5020 12270,-5770 5030,-750 10420,-750 16190,-180 5960,550 10790,750 14880,750 6511,-380 13211,-750 20101,-1320 6880,-550 13580,-1300 20080,-1850 6890,-750 13400,-560 19170,740 5761,1310 11901,1860 18411,1860 10240,0 18240,2420 23820,7450 5580,4830 9850,10781 12830,17851 2790,7250 4840,15070 5950,23820 1120,8730 2240,16730 3351,24001 3920,23620 8940,47060 15260,70311 6140,23250 13020,46140 20650,68651 6880,21020 14880,41481 23631,61021 8930,19720 18780,39061 29200,58231 1110,-1680 2050,-3350 2790,-4850 740,-1480 1670,-2780 2610,-4270 11710,-23631 20830,-47811 27531,-72561 6880,-24731 12100,-49851 16180,-75152 1870,-12830 3540,-25300 5400,-37580 1850,-12471 3350,-24921 4470,-37771 930,-12270 1300,-24550 930,-37011 -380,-12290 -560,-24940 -560,-37590 360,-6880 740,-14131 1110,-21571 370,-7440 750,-14510 1120,-21390 0,-4470 -190,-8750 -550,-12840 -380,-4280 -380,-8560 -200,-12830 200,-4281 750,-8381 1870,-12281 1110,-3910 3530,-7450 7060,-10610 3350,-2980 7070,-4840 11540,-5950 4280,-1110 8741,-1860 13211,-2050 4650,-180 9300,0 13950,560 4830,560 9120,930 13020,930l59531 1670c5400,0 10420,0 15250,190 4650,190 9680,190 14701,190 4280,370 7630,0 10050,-1300 2420,-1300 6130,-380 11160,2410 4460,2970 7620,6320 9490,10240 2050,3720 3160,8000 3350,12650 180,4831 0,9481 -750,13951 -750,4460 -1480,8930 -2230,13400 -3350,19150 -7250,38131 -11720,56921 -4470,18780 -8000,37761 -10600,56931 -1870,12460 -3730,24550 -5770,36830 -2050,12091 -5400,24371 -10051,36831 -4460,12280 -8740,24931 -12830,37771 -4100,13020 -8560,25850 -13400,39060 -8370,24741 -18050,48561 -29400,71812 -11331,23260 -24551,45760 -39801,67161 -6510,9120 -13210,17850 -19910,26420 -6691,8550 -13761,16921 -21391,25301 6140,10230 12840,21200 20090,33300 8741,15250 18611,29201 29391,41851 5020,5950 10420,11720 15820,17860 5390,5950 9670,12470 12470,19901 2971,6520 5381,15260 7251,26050 1670,10970 1860,21390 370,31621 -1310,10230 -4840,18980 -10241,26420 -5380,7440 -13760,11350 -25110,11730 -18220,730 -36271,360 -54501,-1120 -18240,-1310 -36471,-1500 -55071,-560 -19170,1110 -38511,2410 -57671,3530 -19350,1300 -38510,2050 -57861,2050 -8000,0 -15810,-190 -23620,-570 -7820,-360 -15630,-550 -23251,-550 -6150,0 -11540,-180 -16000,-560 -4650,-370 -8750,-1300 -12650,-2970 -3730,-1680 -7080,-4100 -9680,-7450 -2790,-3150 -5020,-8000 -6880,-14130 -1490,-4650 -2790,-8940 -3910,-12470 -930,-3720 -1680,-7441 -2050,-11151 -360,-3920 -360,-7820 190,-11730 560,-4090 1860,-8190 4100,-12650 4080,-8000 9110,-14890 15250,-21020 6130,-5950 12650,-11901 19160,-17671 15620,-13770 30321,-28830 44271,-45210 14150,-16371 27170,-32741 39631,-49121l2240 -3150 2040 -3350c-6140,-9121 -12281,-17861 -18421,-26601 -6140,-8750 -12650,-17680 -19160,-26800 -18790,-27531 -36831,-55801 -53951,-84452 -17110,-28650 -31250,-58781 -42411,-90411 -5950,-14890 -10240,-30521 -13220,-46701 -2780,-16180 -6500,-31801 -10780,-47071 -4470,-14880 -8370,-29950 -11720,-45201 -3530,-15250 -6510,-30510 -9120,-45760zm94321 855014c-370,-5770 -370,-11720 0,-17860 370,-6320 1490,-11540 2980,-16190 1670,-4461 4650,-7251 9120,-8361 2780,-750 7251,-940 13021,-570 5760,380 11530,380 16930,190 5390,-190 10230,-1120 14130,-2970 4090,-1870 5770,-5400 5400,-10800 -1680,-11340 -2980,-22870 -3730,-34970 -730,-11901 -1850,-23631 -3350,-34781 0,-2240 0,-5030 -180,-8190 -190,-3350 -370,-6700 -370,-10230 0,-3350 370,-6700 930,-10051 560,-3160 1490,-5950 2970,-8180 2800,-4280 6890,-6520 11920,-6520l15251 0c10230,-370 20650,-370 31430,-180 10610,180 21221,550 31821,1300 4460,0 9300,-370 15060,-1120 5590,-750 10800,-930 15820,-550 4830,370 8930,1480 12460,3530 3541,2050 5591,6140 6321,12270 0,2621 200,5401 750,8751 550,3350 930,6330 930,9300 0,2800 -740,5580 -2040,8190 -1310,2410 -3720,4090 -7261,4830 -4460,1120 -8930,1860 -13390,2430 -4650,550 -8750,1480 -12840,2420 -10600,1850 -20830,3150 -31071,3710 -10230,370 -20280,1870 -30510,4090 -5020,560 -8370,3540 -9850,8560 -1300,5210 -2240,10791 -2420,17301 -190,6330 180,12650 740,18980 750,6320 1110,11340 1110,15070 380,6140 2420,10420 6150,13020 3530,2601 8180,3901 13570,4101 5400,180 10980,-200 16930,-1120 5771,-930 10981,-1861 15821,-2981 10050,-1860 20080,-3170 30130,-3720 10050,-750 20101,-1680 30331,-2790 6890,-370 12270,370 15990,2410 3910,2050 7080,4850 9680,8571 2420,3530 4280,8000 5400,13580 1120,5390 2040,10780 2600,16370 740,6510 -930,10980 -5030,13580 -4270,2600 -9300,3900 -15070,4280 -5760,370 -11710,180 -18030,-560 -6150,-560 -10981,-940 -14701,-940 -10800,380 -21770,940 -32750,1870 -10780,930 -21771,1670 -32551,2420 -10980,740 -21770,930 -32750,740 -10970,-190 -21571,1120 -32181,3540 -2970,730 -7250,1670 -13390,2601 -5950,750 -12090,1300 -18410,1300 -6330,0 -11921,-750 -16381,-2231 -4650,-1490 -6890,-4650 -6890,-9670 0,-3350 -180,-7820 -550,-13770zm77952 -306765c-5031,3150 -8181,7620 -9491,13380 -1310,5590 930,10420 6891,14330 7250,5590 16180,8931 27150,10421 10980,1490 20280,1850 28280,1120 8371,-750 16741,-2050 25121,-3540 8370,-1681 16370,-3351 24000,-5211 3710,-1120 6500,-2790 8730,-4830 2240,-2990 2620,-5220 1300,-6890 -1300,-1680 -2780,-3720 -4650,-6330 -3900,-5020 -7800,-10220 -11710,-15800 -3720,-5400 -7630,-10610 -11720,-15820 -3540,-5020 -7070,-10231 -10230,-15441 -3350,-5390 -6520,-10230 -9870,-15070 -10221,9110 -20451,17860 -31061,26231 -10610,8370 -21390,16180 -32740,23450zm-754193 -50301l0 -1800 42611 0c14140,0 28460,190 42600,750 14330,550 29021,1120 44281,1670 2600,-920 5010,-1670 7430,-1860 2430,-180 5220,-930 8000,-1860 -6130,-1860 -12090,-4090 -17670,-6880 -5580,-2970 -10980,-6320 -16000,-10240 -13391,-10230 -26231,-22311 -38321,-36081 -12090,-13950 -21760,-28830 -29020,-44831 -8561,-20290 -13951,-41680 -15621,-64191 -1870,-22690 -750,-45010 3160,-67341 3900,-22320 10601,-44091 19901,-64921 9300,-20850 20650,-39821 33860,-56931 14510,-18240 30881,-34051 49671,-47441 18600,-13400 38511,-24370 59721,-32740 21200,-8370 43341,-13391 66401,-15441 23081,-2050 46331,-1120 69581,2971 22891,3910 44091,11530 64001,22880 19721,11350 38141,24930 55251,40931 4090,3540 8931,8560 14521,14700 5570,6140 10600,12840 14880,19900 4450,7070 7250,14140 8740,21591 1480,7250 -190,13390 -4840,18410 -6130,7250 -13580,13020 -22130,17490 -8571,4280 -16931,8180 -25301,11350 -8380,3350 -16380,7250 -24000,12091 -7630,4650 -16191,6690 -25681,5950 -6880,-740 -12650,-3350 -17120,-7630 -4450,-4281 -8730,-8931 -12450,-13951 -3920,-4830 -8200,-9480 -12850,-13760 -4830,-4470 -10601,-7070 -17481,-7640 -18230,-1850 -36650,-1660 -55621,570 -18800,2050 -35720,8930 -50600,20650 -8381,6130 -15071,13390 -19911,21581 -4840,8180 -8920,16740 -12090,25850 -2980,9120 -5210,18420 -6510,28281 -1300,9860 -1860,19540 -1860,28840 0,9850 370,19530 1300,29201 920,9680 2970,18980 5950,27910 2790,8740 6890,17110 12090,24920 5030,7821 11910,14891 20281,21031 8550,5770 17870,10600 27900,14140 10050,3710 20470,6130 31071,7630 10800,1480 21400,2220 32380,2220 10780,0 21380,-370 31621,-1300 18410,-2600 37210,-5390 56361,-8180 18980,-2610 37020,-8940 53950,-18420 2981,-190 7261,-1120 12651,-2790 5590,-1680 11350,-3350 17870,-4830 6500,-1680 12830,-3170 19150,-4850 6330,-1481 11730,-2231 16381,-2041 4470,190 7800,1670 10040,4461 2230,2800 2430,7820 560,14880 370,-1850 550,-2780 750,-2970 180,-180 0,740 -750,2970 -2980,9120 -4650,14700 -5210,16930 -560,2050 -560,2240 0,370 560,-1670 1310,-4450 2410,-8370 1120,-3900 2050,-6880 2800,-8930 -2980,10240 -5950,20470 -8930,30890 -3170,10410 -6141,20651 -9121,30691 -1850,5590 -3350,11170 -4650,17120 -1300,5950 -2970,11900 -5200,18050 -2050,5951 -4850,11721 -8190,17111 -3160,5580 -7810,10040 -13580,13570 -6140,3730 -13030,5970 -20460,6700 -7451,570 -14701,1300 -21581,2610 -6320,1110 -12650,2040 -18790,3160 -6150,930 -12460,2050 -19160,3170 -8371,1300 -16941,2780 -25871,4280 -8730,1480 -17480,2970 -26030,4270 -15641,2430 -32751,5580 -51351,9311 -18420,3720 -34231,5390 -47251,5020 -8000,4460 -16750,7810 -26600,9850 -9681,1870 -19721,3910 -30141,5960 -25860,5210 -52091,8920 -78691,11160l-61021 8750 -50051 0 -2420 0 -9110 0c-7630,0 -14141,-1870 -19531,-5400 -5590,-3540 -10240,-8000 -14520,-13390 -4090,-5400 -8000,-11530 -11150,-18420 -3350,-6881 -6330,-13961 -8750,-21391 -2980,4090 -5950,8180 -9120,12280 -3160,4080 -6131,8371 -9111,12831 -9860,14140 -21950,26230 -36470,36270 -6880,4470 -14320,7630 -22131,9680 -7820,1850 -15630,3170 -23630,3720 -7990,750 -15990,1301 -24190,1481 -8181,200 -16001,570 -23431,1320 -17870,1850 -35720,2220 -53771,1300 -18050,-940 -36080,-1300 -54321,-1300 -6510,0 -13950,180 -22320,550 -8370,370 -16370,-190 -24190,-1300 -7801,-1301 -14501,-3921 -20081,-7821 -5770,-3900 -8750,-10780 -9120,-20460 -1490,-18420 -1300,-37391 370,-56741 1680,-19350 3350,-38331 5210,-56931 190,-4830 930,-9850 1860,-15070 930,-5200 2230,-10040 4090,-14320 1870,-4280 4470,-7991 8190,-11161 3531,-3170 8181,-5020 13581,-5770 8750,-1110 17860,-1110 27530,0 9670,1120 18790,1870 27531,2240 10420,0 21020,0 31620,180 10430,180 21031,560 31631,1300 8000,750 16370,1870 24940,3170 8730,1300 17110,1300 25481,180 6320,-1120 11170,-3350 14700,-6510 3350,-3340 5770,-7260 7430,-11720 1690,-4650 2420,-9490 2420,-14700 0,-5390 -370,-10220 -1110,-15070 -1120,-9111 -1860,-17851 -2610,-26411 -740,-8560 -2040,-16740 -3710,-24740 -1870,-9500 -3920,-18231 -6150,-26421 -2420,-8180 -3900,-16930 -4650,-26040 -740,-10420 -1670,-20650 -2970,-30521 -1120,-9670 -3170,-19530 -5580,-29380 -3911,-17120 -7821,-34051 -11721,-50971 -3910,-16750 -7450,-34241 -10230,-51911 -750,-4090 -1680,-8370 -2980,-13210 -1300,-4650 -1860,-9480 -1860,-14140 0,-4650 920,-8920 2600,-12841 1870,-3720 5400,-6130 10790,-7250 8000,-1860 16381,-2420 25301,-2050 8930,570 17680,930 25860,930 19350,0 38511,370 57301,1120 18790,750 37771,1300 57301,2050l370 43721c-190,17110 -1120,33661 -2420,50031 -1300,16380 -1860,33121 -1860,50231 0,15630 0,30890 180,45771 200,14880 380,30130 380,45760 740,17861 550,35351 -380,52841 -740,17481 -920,35151 -180,52831l0 24181c6140,8190 11910,15440 16930,21770 5020,6320 12091,9480 21201,9480l8560 -430zm-683862 -479538c0,-16730 3910,-29021 11720,-36831 8001,-7820 17491,-13020 29021,-15820 11340,-2600 23620,-3710 36461,-2970 13030,740 24560,1120 34600,1120 3730,0 9120,0 16190,-180 7261,-200 14321,0 21571,730 7080,750 13220,2050 18420,4100 5220,2050 7630,5200 7260,9490 -1110,15631 -1300,31251 -740,46691 560,15440 740,30891 740,46511 370,17860 0,35710 -930,53761 -930,18050 -2050,35900 -3160,53771 -1120,17660 -2240,35530 -3540,53581 -1300,18030 -2050,35900 -2410,53750 -1870,56181 -2610,112182 -2420,167803 180,55631 1480,111632 4080,167813l-2780 15800c-15820,4851 -31251,9681 -46511,14521 -15260,4830 -30690,9670 -46321,14510 -8190,2790 -16550,5210 -25120,7250 -8550,2050 -16920,940 -25110,-2980 -6141,-2600 -10421,-6880 -12841,-12830 -2600,-5950 -3900,-12470 -4270,-19531 -380,-7070 -190,-14320 370,-21590 740,-7250 1120,-13570 1480,-19150 370,-15811 940,-31631 2050,-47251 940,-15630 1670,-31451 2420,-47261 550,-15810 930,-31620 930,-47441 0,-15810 -560,-31620 -1860,-47610 -2600,-32381 -4470,-64572 -5390,-96552 -930,-32001 -1490,-64191 -2050,-96932 -380,-33120 -750,-65851 -1110,-98041 -380,-32371 -570,-65111 -750,-98232zm-451697 591590c-1110,-17670 -920,-36081 740,-55061 1680,-18970 3350,-37211 5220,-55071 370,-4650 920,-9300 1850,-14140 930,-4830 2230,-9300 4100,-13390 1850,-4090 4650,-7811 8180,-10791 3720,-2980 8190,-4830 13590,-5580 8730,-740 17850,-550 27341,180 9490,930 18610,1680 27720,2050 10600,0 21200,0 31621,190 10610,180 21210,560 31630,1300 8000,740 16370,1680 25121,2980 8730,1300 17110,1110 25480,-190 6320,-1110 11170,-3160 14700,-6330 3350,-2970 5770,-6880 7440,-11340 1680,-4460 2410,-9490 2410,-14690 0,-5400 -370,-10420 -1110,-15640 -1120,-8360 -1860,-16731 -2610,-25301 -740,-8550 -2040,-16930 -3710,-25300 -1870,-9110 -3920,-17861 -6150,-26231 -2420,-8370 -3900,-17110 -4650,-26030 -1120,-10620 -2040,-20650 -3150,-30331 -1120,-9670 -2980,-19540 -5400,-29770 -3900,-17300 -7820,-34601 -11720,-51531 -3910,-16740 -7450,-34041 -10230,-51341 -750,-3730 -1680,-8000 -2980,-12840 -1300,-5020 -1860,-9670 -1860,-14140 0,-4650 920,-8740 2600,-12281 1870,-3720 5400,-6320 10790,-7620 8000,-2600 16380,-3530 25300,-2800 8930,750 17500,1120 25681,1120 18970,0 37570,380 56371,1300 18600,930 37570,1680 56731,2430l1120 43151c-370,17490 -1300,34601 -2600,51721 -1121,17110 -1871,34601 -1871,52281 0,16000 190,32180 570,48551 360,16370 550,32550 550,48551 -370,35530 -550,70511 -740,104931 -190,34411 -750,69011 -1490,103622 -370,9110 -560,18960 -560,29381 0,10230 -2600,19350 -8000,27170 -5210,7250 -11350,12460 -18600,15810 -7260,3350 -14880,5020 -23260,5020 -17671,0 -35531,0 -53201,-180 -17671,-190 -34971,560 -51721,2410 -18410,1500 -37021,2050 -55251,1870 -18420,-190 -36831,-190 -55431,-190 -6150,0 -13770,190 -22890,560 -8931,360 -17671,0 -25861,-1120 -8180,-1120 -15250,-3720 -21580,-7820 -6140,-4080 -9490,-10600 -10230,-19530zm-288355 -591590c0,-16730 3910,-29021 11720,-36831 8000,-7820 17490,-13020 29030,-15820 11331,-2600 23621,-3710 36451,-2970 13030,740 24560,1120 34601,1120 3730,0 9120,0 16190,-180 7260,-200 14320,0 21580,730 7070,750 13210,2050 18411,4100 5220,2050 7630,5200 7260,9490 -1110,15631 -1300,31251 -740,46691 560,15440 740,30891 740,46511 370,17860 0,35710 -930,53761 -930,18050 -2050,35900 -3160,53771 -1120,17660 -2240,35530 -3540,53581 -1300,18030 -2050,35900 -2410,53750 -1871,56181 -2611,112182 -2421,167803 180,55631 1481,111632 4091,167813l-2791 15800c-15820,4851 -31250,9681 -46510,14521 -15261,4830 -30691,9670 -46321,14510 -8190,2790 -16550,5210 -25120,7250 -8551,2050 -16921,940 -25111,-2980 -6140,-2600 -10420,-6880 -12840,-12830 -2600,-5950 -3900,-12470 -4270,-19531 -380,-7070 -190,-14320 370,-21590 740,-7250 1120,-13570 1490,-19150 360,-15811 930,-31631 2040,-47251 940,-15630 1670,-31451 2420,-47261 550,-15810 930,-31620 930,-47441 0,-15810 -560,-31620 -1860,-47610 -2600,-32381 -4470,-64572 -5390,-96552 -930,-32001 -1490,-64191 -2050,-96932 -380,-33120 -740,-65851 -1110,-98041 -380,-32371 -570,-65111 -750,-98232zm-604611 -24180c-750,-5401 -1110,-11171 -1110,-17851 0,-6520 930,-12650 2601,-18800 1670,-5950 4650,-10790 8930,-14500 4280,-3730 10230,-5590 18050,-5590 -1120,-380 -2050,-560 -2800,-560l-2790 0 1670 0c750,0 2050,180 3920,560 7250,740 14680,940 22500,560l23821 -1120c5950,-370 11900,-1120 18040,-2050 5950,-920 11910,-370 18040,1310 6700,1860 11721,5210 14881,10240 3170,4830 5400,10600 6520,16920 1110,6330 1670,13030 1480,19710 -180,6700 -180,12651 190,18051 560,13770 1860,27350 3730,40550 1850,13221 4270,26421 7060,39451 1300,5020 2420,10790 3540,17300 1300,6320 1480,12471 930,17851 -560,5400 -2420,9870 -5960,13030 -3340,3170 -9110,4090 -17110,2970 -13761,-2230 -27351,-5380 -40741,-8920 -13590,-3730 -27541,-5210 -42241,-4460 -13200,730 -23610,-2620 -31610,-10051 -8000,-7450 -11541,-18050 -10420,-31820 740,-14130 1110,-28081 920,-41851 -180,-13950 -920,-27530 -2041,-40930zm195334 -8371c0,-5400 0,-11160 190,-17110 180,-5960 1300,-11540 3160,-16560 1860,-5210 4650,-9490 8740,-13210 4100,-3530 9500,-5770 16380,-6520 3720,-731 5020,-1111 4090,-1111 -740,0 -2240,380 -4090,1111 5200,-361 10970,-921 17301,-1661 6500,-750 13020,-1120 19720,-1120 6880,0 13390,550 19530,1670 6320,1111 11530,3351 16001,6881 4650,3910 8370,8380 11160,13400 2790,5020 4840,10230 6320,16000 1490,5580 2420,11530 2980,17860 560,6141 1310,11901 2040,17301 570,7070 1870,14690 3730,23070 1860,8180 3350,17120 4840,26421 1300,9300 2040,18600 2410,27710 370,9120 -560,17300 -2600,24560 -2230,7441 -6140,13761 -11730,19161 -5570,5400 -13570,8750 -23621,10230 -5390,1120 -11530,2240 -18040,3350 -6700,1120 -13390,2050 -20280,2420 -7070,550 -13960,550 -20641,0 -6700,-370 -12470,-1870 -17320,-4470 -5760,-3350 -10030,-7440 -12650,-12280 -2600,-4830 -4080,-10230 -4650,-15811 -550,-5570 -550,-11540 0,-17670 570,-6140 940,-12090 940,-17490 380,-14510 0,-29011 -1120,-43341 -1120,-14320 -2050,-28650 -2790,-42791zm28470 -53400c-4650,380 -6520,380 -5400,200 1120,-200 2970,-200 5400,-200zm276255 289664l0 -560 0 560zm0 -560l0 -2050 0 2050zm0 -2050l0 -3350 0 3350zm0 -3350l0 -550 0 550zm0 -550l0 -560 0 560zm0 -560l0 -560 0 560z"/>
   <path id="1" class="fil17" d="M1214451 728352c-380,-4270 -740,-9670 -1300,-16370 -560,-6700 -380,-12830 560,-18230 930,-5390 3160,-9670 7060,-12470 3730,-2781 9680,-2601 17680,750 11160,4280 22320,8550 33491,13020 10970,4460 22320,8930 33850,13770 10610,5020 21950,9680 33681,13760 11720,4280 23070,9120 34030,14520 7820,3161 13400,7431 16571,12461 3350,5200 5390,10790 6320,16930 930,6140 930,12650 0,19340 -930,6700 -2050,13031 -3170,18801 -8551,48920 -18601,98411 -29951,148082 -1110,5390 -2420,11720 -4080,18780 -1680,7071 -2800,14141 -3350,21021 -570,6890 0,13220 1860,18980 1670,5950 5570,10240 11340,13210 9860,5030 19160,9310 27911,13031 8740,3530 18040,6130 28270,7620 9120,1110 18610,1680 28471,1680 48550,2040 97111,3710 145482,4830 10600,0 21580,370 32921,1300 11350,930 22140,560 32190,-1300 7620,-1120 13020,-3530 16180,-7440 3350,-3720 5391,-8560 6511,-14331 1110,-5760 1490,-11710 1110,-17660 -360,-5960 -730,-11720 -1110,-17310l-5391 -70691c-1860,-23621 -4840,-47071 -8750,-70322l-13020 -72371c-740,-3710 -1310,-6880 -1680,-9860 -180,-2790 -730,-5950 -1480,-9120 -560,-5580 -1120,-10970 -1300,-16180 -190,-5200 370,-10421 1300,-15431 1120,-4470 2970,-8000 5580,-10610 2600,-2790 5210,-5960 7820,-9680 5380,-7620 11340,-12280 17851,-14130 6520,-1870 13950,-2980 22700,-3720 13950,-1120 28080,-1680 42411,-1680 6700,370 14320,930 23260,1680 8930,740 17300,2230 25300,4840 8181,2600 14881,6690 20461,12280 5580,5570 8370,13380 8370,23060 0,20091 -370,39811 -1120,59161 -730,19351 -2600,38881 -5380,58601 -1680,19161 -3170,38131 -4290,56551 -1110,18611 -1860,37391 -2230,56741 -370,13021 -930,25861 -1300,38691 -380,12660 -750,25490 -1120,38511 -180,10980 -560,22140 -930,33490 -180,11530 -1860,22511 -4830,33111 -2420,8930 -6701,15630 -12281,20100 -5770,4270 -12290,7440 -19910,9480 -7440,2050 -15260,3170 -23630,3350 -8180,190 -15811,190 -22881,190 -15250,370 -30500,750 -45581,930 -15070,180 -29950,740 -44640,1850 -25111,1680 -50051,3350 -74602,5030 -24560,1670 -49300,2790 -74231,3540 -12830,731 -26050,1481 -39810,2231 -13771,550 -27341,1670 -41111,3150 -13760,1500 -27351,2990 -40561,4650 -13390,1680 -26780,1500 -40181,-360 -10050,-940 -19900,-2970 -29580,-6140 -9490,-3161 -19160,-5951 -28840,-8181 -7801,-2240 -13571,-7450 -17111,-15630 -3720,-8370 -5390,-16190 -5390,-23440 -750,-10420 -1120,-20831 -1120,-31631 0,-10600 -380,-21580 -1110,-32370 -1870,-28651 -4840,-57111 -8940,-85582 -4280,-28270 -7810,-56731 -10600,-85381 -3710,-48741 -7810,-97102 -12650,-145483zm3310496 -198873c0,-16730 3910,-29021 11710,-36831 8000,-7820 17500,-13020 29030,-15820 11340,-2600 23621,-3710 36461,-2970 13030,740 24560,1120 34600,1120 3730,0 9111,0 16191,-180 7250,-200 14320,0 21570,730 7080,750 13220,2050 18420,4100 5210,2050 7630,5200 7260,9490 -1120,15631 -1300,31251 -750,46691 570,15440 750,30891 750,46511 370,17860 0,35710 -930,53761 -930,18050 -2050,35900 -3170,53771 -1110,17660 -2230,35530 -3530,53581 -1300,18030 -2050,35900 -2420,53750 -1860,56181 -2600,112182 -2410,167803 180,55631 1480,111632 4080,167813l-2780 15800c-15820,4851 -31250,9681 -46520,14521 -15251,4830 -30681,9670 -46311,14510 -8190,2790 -16561,5210 -25121,7250 -8550,2050 -16920,940 -25120,-2980 -6130,-2600 -10410,-6880 -12830,-12830 -2600,-5950 -3900,-12470 -4270,-19531 -380,-7070 -200,-14320 370,-21590 730,-7250 1110,-13570 1480,-19150 370,-15811 930,-31631 2050,-47251 930,-15630 1670,-31451 2420,-47261 550,-15810 930,-31620 930,-47441 0,-15810 -560,-31620 -1860,-47610 -2610,-32381 -4470,-64572 -5390,-96552 -930,-32001 -1500,-64191 -2050,-96932 -380,-33120 -750,-65851 -1120,-98041 -380,-32371 -560,-65111 -740,-98232zm-584150 -18410c-1680,-7070 -1110,-11911 2050,-15071 2970,-3170 7070,-5020 12270,-5770 5030,-750 10420,-750 16190,-180 5960,550 10790,750 14880,750 6511,-380 13211,-750 20101,-1320 6880,-550 13580,-1300 20080,-1850 6890,-750 13400,-560 19170,740 5761,1310 11901,1860 18411,1860 10240,0 18240,2420 23820,7450 5580,4830 9850,10781 12830,17851 2790,7250 4840,15070 5950,23820 1120,8730 2240,16730 3351,24001 3920,23620 8940,47060 15260,70311 6140,23250 13020,46140 20650,68651 6880,21020 14880,41481 23631,61021 8930,19720 18780,39061 29200,58231 1110,-1680 2050,-3350 2790,-4850 740,-1480 1670,-2780 2610,-4270 11710,-23631 20830,-47811 27531,-72561 6880,-24731 12100,-49851 16180,-75152 1870,-12830 3540,-25300 5400,-37580 1850,-12471 3350,-24921 4470,-37771 930,-12270 1300,-24550 930,-37011 -380,-12290 -560,-24940 -560,-37590 360,-6880 740,-14131 1110,-21571 370,-7440 750,-14510 1120,-21390 0,-4470 -190,-8750 -550,-12840 -380,-4280 -380,-8560 -200,-12830 200,-4281 750,-8381 1870,-12281 1110,-3910 3530,-7450 7060,-10610 3350,-2980 7070,-4840 11540,-5950 4280,-1110 8741,-1860 13211,-2050 4650,-180 9300,0 13950,560 4830,560 9120,930 13020,930l59531 1670c5400,0 10420,0 15250,190 4650,190 9680,190 14701,190 4280,370 7630,0 10050,-1300 2420,-1300 6130,-380 11160,2410 4460,2970 7620,6320 9490,10240 2050,3720 3160,8000 3350,12650 180,4831 0,9481 -750,13951 -750,4460 -1480,8930 -2230,13400 -3350,19150 -7250,38131 -11720,56921 -4470,18780 -8000,37761 -10600,56931 -1870,12460 -3730,24550 -5770,36830 -2050,12091 -5400,24371 -10051,36831 -4460,12280 -8740,24931 -12830,37771 -4100,13020 -8560,25850 -13400,39060 -8370,24741 -18050,48561 -29400,71812 -11331,23260 -24551,45760 -39801,67161 -6510,9120 -13210,17850 -19910,26420 -6691,8550 -13761,16921 -21391,25301 6140,10230 12840,21200 20090,33300 8741,15250 18611,29201 29391,41851 5020,5950 10420,11720 15820,17860 5390,5950 9670,12470 12470,19901 2971,6520 5381,15260 7251,26050 1670,10970 1860,21390 370,31621 -1310,10230 -4840,18980 -10241,26420 -5380,7440 -13760,11350 -25110,11730 -18220,730 -36271,360 -54501,-1120 -18240,-1310 -36471,-1500 -55071,-560 -19170,1110 -38511,2410 -57671,3530 -19350,1300 -38510,2050 -57861,2050 -8000,0 -15810,-190 -23620,-570 -7820,-360 -15630,-550 -23251,-550 -6150,0 -11540,-180 -16000,-560 -4650,-370 -8750,-1300 -12650,-2970 -3730,-1680 -7080,-4100 -9680,-7450 -2790,-3150 -5020,-8000 -6880,-14130 -1490,-4650 -2790,-8940 -3910,-12470 -930,-3720 -1680,-7441 -2050,-11151 -360,-3920 -360,-7820 190,-11730 560,-4090 1860,-8190 4100,-12650 4080,-8000 9110,-14890 15250,-21020 6130,-5950 12650,-11901 19160,-17671 15620,-13770 30321,-28830 44271,-45210 14150,-16371 27170,-32741 39631,-49121l2240 -3150 2040 -3350c-6140,-9121 -12281,-17861 -18421,-26601 -6140,-8750 -12650,-17680 -19160,-26800 -18790,-27531 -36831,-55801 -53951,-84452 -17110,-28650 -31250,-58781 -42411,-90411 -5950,-14890 -10240,-30521 -13220,-46701 -2780,-16180 -6500,-31801 -10780,-47071 -4470,-14880 -8370,-29950 -11720,-45201 -3530,-15250 -6510,-30510 -9120,-45760zm94321 855014c-370,-5770 -370,-11720 0,-17860 370,-6320 1490,-11540 2980,-16190 1670,-4461 4650,-7251 9120,-8361 2780,-750 7251,-940 13021,-570 5760,380 11530,380 16930,190 5390,-190 10230,-1120 14130,-2970 4090,-1870 5770,-5400 5400,-10800 -1680,-11340 -2980,-22870 -3730,-34970 -730,-11901 -1850,-23631 -3350,-34781 0,-2240 0,-5030 -180,-8190 -190,-3350 -370,-6700 -370,-10230 0,-3350 370,-6700 930,-10051 560,-3160 1490,-5950 2970,-8180 2800,-4280 6890,-6520 11920,-6520l15251 0c10230,-370 20650,-370 31430,-180 10610,180 21221,550 31821,1300 4460,0 9300,-370 15060,-1120 5590,-750 10800,-930 15820,-550 4830,370 8930,1480 12460,3530 3541,2050 5591,6140 6321,12270 0,2621 200,5401 750,8751 550,3350 930,6330 930,9300 0,2800 -740,5580 -2040,8190 -1310,2410 -3720,4090 -7261,4830 -4460,1120 -8930,1860 -13390,2430 -4650,550 -8750,1480 -12840,2420 -10600,1850 -20830,3150 -31071,3710 -10230,370 -20280,1870 -30510,4090 -5020,560 -8370,3540 -9850,8560 -1300,5210 -2240,10791 -2420,17301 -190,6330 180,12650 740,18980 750,6320 1110,11340 1110,15070 380,6140 2420,10420 6150,13020 3530,2601 8180,3901 13570,4101 5400,180 10980,-200 16930,-1120 5771,-930 10981,-1861 15821,-2981 10050,-1860 20080,-3170 30130,-3720 10050,-750 20101,-1680 30331,-2790 6890,-370 12270,370 15990,2410 3910,2050 7080,4850 9680,8571 2420,3530 4280,8000 5400,13580 1120,5390 2040,10780 2600,16370 740,6510 -930,10980 -5030,13580 -4270,2600 -9300,3900 -15070,4280 -5760,370 -11710,180 -18030,-560 -6150,-560 -10981,-940 -14701,-940 -10800,380 -21770,940 -32750,1870 -10780,930 -21771,1670 -32551,2420 -10980,740 -21770,930 -32750,740 -10970,-190 -21571,1120 -32181,3540 -2970,730 -7250,1670 -13390,2601 -5950,750 -12090,1300 -18410,1300 -6330,0 -11921,-750 -16381,-2231 -4650,-1490 -6890,-4650 -6890,-9670 0,-3350 -180,-7820 -550,-13770zm77952 -306765c-5031,3150 -8181,7620 -9491,13380 -1310,5590 930,10420 6891,14330 7250,5590 16180,8931 27150,10421 10980,1490 20280,1850 28280,1120 8371,-750 16741,-2050 25121,-3540 8370,-1681 16370,-3351 24000,-5211 3710,-1120 6500,-2790 8730,-4830 2240,-2990 2620,-5220 1300,-6890 -1300,-1680 -2780,-3720 -4650,-6330 -3900,-5020 -7800,-10220 -11710,-15800 -3720,-5400 -7630,-10610 -11720,-15820 -3540,-5020 -7070,-10231 -10230,-15441 -3350,-5390 -6520,-10230 -9870,-15070 -10221,9110 -20451,17860 -31061,26231 -10610,8370 -21390,16180 -32740,23450zm-754193 -50301l0 -1800 42611 0c14140,0 28460,190 42600,750 14330,550 29021,1120 44281,1670 2600,-920 5010,-1670 7430,-1860 2430,-180 5220,-930 8000,-1860 -6130,-1860 -12090,-4090 -17670,-6880 -5580,-2970 -10980,-6320 -16000,-10240 -13391,-10230 -26231,-22311 -38321,-36081 -12090,-13950 -21760,-28830 -29020,-44831 -8561,-20290 -13951,-41680 -15621,-64191 -1870,-22690 -750,-45010 3160,-67341 3900,-22320 10601,-44091 19901,-64921 9300,-20850 20650,-39821 33860,-56931 14510,-18240 30881,-34051 49671,-47441 18600,-13400 38511,-24370 59721,-32740 21200,-8370 43341,-13391 66401,-15441 23081,-2050 46331,-1120 69581,2971 22891,3910 44091,11530 64001,22880 19721,11350 38141,24930 55251,40931 4090,3540 8931,8560 14521,14700 5570,6140 10600,12840 14880,19900 4450,7070 7250,14140 8740,21591 1480,7250 -190,13390 -4840,18410 -6130,7250 -13580,13020 -22130,17490 -8571,4280 -16931,8180 -25301,11350 -8380,3350 -16380,7250 -24000,12091 -7630,4650 -16191,6690 -25681,5950 -6880,-740 -12650,-3350 -17120,-7630 -4450,-4281 -8730,-8931 -12450,-13951 -3920,-4830 -8200,-9480 -12850,-13760 -4830,-4470 -10601,-7070 -17481,-7640 -18230,-1850 -36650,-1660 -55621,570 -18800,2050 -35720,8930 -50600,20650 -8381,6130 -15071,13390 -19911,21581 -4840,8180 -8920,16740 -12090,25850 -2980,9120 -5210,18420 -6510,28281 -1300,9860 -1860,19540 -1860,28840 0,9850 370,19530 1300,29201 920,9680 2970,18980 5950,27910 2790,8740 6890,17110 12090,24920 5030,7821 11910,14891 20281,21031 8550,5770 17870,10600 27900,14140 10050,3710 20470,6130 31071,7630 10800,1480 21400,2220 32380,2220 10780,0 21380,-370 31621,-1300 18410,-2600 37210,-5390 56361,-8180 18980,-2610 37020,-8940 53950,-18420 2981,-190 7261,-1120 12651,-2790 5590,-1680 11350,-3350 17870,-4830 6500,-1680 12830,-3170 19150,-4850 6330,-1481 11730,-2231 16381,-2041 4470,190 7800,1670 10040,4461 2230,2800 2430,7820 560,14880 370,-1850 550,-2780 750,-2970 180,-180 0,740 -750,2970 -2980,9120 -4650,14700 -5210,16930 -560,2050 -560,2240 0,370 560,-1670 1310,-4450 2410,-8370 1120,-3900 2050,-6880 2800,-8930 -2980,10240 -5950,20470 -8930,30890 -3170,10410 -6141,20651 -9121,30691 -1850,5590 -3350,11170 -4650,17120 -1300,5950 -2970,11900 -5200,18050 -2050,5951 -4850,11721 -8190,17111 -3160,5580 -7810,10040 -13580,13570 -6140,3730 -13030,5970 -20460,6700 -7451,570 -14701,1300 -21581,2610 -6320,1110 -12650,2040 -18790,3160 -6150,930 -12460,2050 -19160,3170 -8371,1300 -16941,2780 -25871,4280 -8730,1480 -17480,2970 -26030,4270 -15641,2430 -32751,5580 -51351,9311 -18420,3720 -34231,5390 -47251,5020 -8000,4460 -16750,7810 -26600,9850 -9681,1870 -19721,3910 -30141,5960 -25860,5210 -52091,8920 -78691,11160l-61021 8750 -50051 0 -2420 0 -9110 0c-7630,0 -14141,-1870 -19531,-5400 -5590,-3540 -10240,-8000 -14520,-13390 -4090,-5400 -8000,-11530 -11150,-18420 -3350,-6881 -6330,-13961 -8750,-21391 -2980,4090 -5950,8180 -9120,12280 -3160,4080 -6131,8371 -9111,12831 -9860,14140 -21950,26230 -36470,36270 -6880,4470 -14320,7630 -22131,9680 -7820,1850 -15630,3170 -23630,3720 -7990,750 -15990,1301 -24190,1481 -8181,200 -16001,570 -23431,1320 -17870,1850 -35720,2220 -53771,1300 -18050,-940 -36080,-1300 -54321,-1300 -6510,0 -13950,180 -22320,550 -8370,370 -16370,-190 -24190,-1300 -7801,-1301 -14501,-3921 -20081,-7821 -5770,-3900 -8750,-10780 -9120,-20460 -1490,-18420 -1300,-37391 370,-56741 1680,-19350 3350,-38331 5210,-56931 190,-4830 930,-9850 1860,-15070 930,-5200 2230,-10040 4090,-14320 1870,-4280 4470,-7991 8190,-11161 3531,-3170 8181,-5020 13581,-5770 8750,-1110 17860,-1110 27530,0 9670,1120 18790,1870 27531,2240 10420,0 21020,0 31620,180 10430,180 21031,560 31631,1300 8000,750 16370,1870 24940,3170 8730,1300 17110,1300 25481,180 6320,-1120 11170,-3350 14700,-6510 3350,-3340 5770,-7260 7430,-11720 1690,-4650 2420,-9490 2420,-14700 0,-5390 -370,-10220 -1110,-15070 -1120,-9111 -1860,-17851 -2610,-26411 -740,-8560 -2040,-16740 -3710,-24740 -1870,-9500 -3920,-18231 -6150,-26421 -2420,-8180 -3900,-16930 -4650,-26040 -740,-10420 -1670,-20650 -2970,-30521 -1120,-9670 -3170,-19530 -5580,-29380 -3911,-17120 -7821,-34051 -11721,-50971 -3910,-16750 -7450,-34241 -10230,-51911 -750,-4090 -1680,-8370 -2980,-13210 -1300,-4650 -1860,-9480 -1860,-14140 0,-4650 920,-8920 2600,-12841 1870,-3720 5400,-6130 10790,-7250 8000,-1860 16381,-2420 25301,-2050 8930,570 17680,930 25860,930 19350,0 38511,370 57301,1120 18790,750 37771,1300 57301,2050l370 43721c-190,17110 -1120,33661 -2420,50031 -1300,16380 -1860,33121 -1860,50231 0,15630 0,30890 180,45771 200,14880 380,30130 380,45760 740,17861 550,35351 -380,52841 -740,17481 -920,35151 -180,52831l0 24181c6140,8190 11910,15440 16930,21770 5020,6320 12091,9480 21201,9480l8560 -430zm-683862 -479538c0,-16730 3910,-29021 11720,-36831 8001,-7820 17491,-13020 29021,-15820 11340,-2600 23620,-3710 36461,-2970 13030,740 24560,1120 34600,1120 3730,0 9120,0 16190,-180 7261,-200 14321,0 21571,730 7080,750 13220,2050 18420,4100 5220,2050 7630,5200 7260,9490 -1110,15631 -1300,31251 -740,46691 560,15440 740,30891 740,46511 370,17860 0,35710 -930,53761 -930,18050 -2050,35900 -3160,53771 -1120,17660 -2240,35530 -3540,53581 -1300,18030 -2050,35900 -2410,53750 -1870,56181 -2610,112182 -2420,167803 180,55631 1480,111632 4080,167813l-2780 15800c-15820,4851 -31251,9681 -46511,14521 -15260,4830 -30690,9670 -46321,14510 -8190,2790 -16550,5210 -25120,7250 -8550,2050 -16920,940 -25110,-2980 -6141,-2600 -10421,-6880 -12841,-12830 -2600,-5950 -3900,-12470 -4270,-19531 -380,-7070 -190,-14320 370,-21590 740,-7250 1120,-13570 1480,-19150 370,-15811 940,-31631 2050,-47251 940,-15630 1670,-31451 2420,-47261 550,-15810 930,-31620 930,-47441 0,-15810 -560,-31620 -1860,-47610 -2600,-32381 -4470,-64572 -5390,-96552 -930,-32001 -1490,-64191 -2050,-96932 -380,-33120 -750,-65851 -1110,-98041 -380,-32371 -570,-65111 -750,-98232zm-451697 591590c-1110,-17670 -920,-36081 740,-55061 1680,-18970 3350,-37211 5220,-55071 370,-4650 920,-9300 1850,-14140 930,-4830 2230,-9300 4100,-13390 1850,-4090 4650,-7811 8180,-10791 3720,-2980 8190,-4830 13590,-5580 8730,-740 17850,-550 27341,180 9490,930 18610,1680 27720,2050 10600,0 21200,0 31621,190 10610,180 21210,560 31630,1300 8000,740 16370,1680 25121,2980 8730,1300 17110,1110 25480,-190 6320,-1110 11170,-3160 14700,-6330 3350,-2970 5770,-6880 7440,-11340 1680,-4460 2410,-9490 2410,-14690 0,-5400 -370,-10420 -1110,-15640 -1120,-8360 -1860,-16731 -2610,-25301 -740,-8550 -2040,-16930 -3710,-25300 -1870,-9110 -3920,-17861 -6150,-26231 -2420,-8370 -3900,-17110 -4650,-26030 -1120,-10620 -2040,-20650 -3150,-30331 -1120,-9670 -2980,-19540 -5400,-29770 -3900,-17300 -7820,-34601 -11720,-51531 -3910,-16740 -7450,-34041 -10230,-51341 -750,-3730 -1680,-8000 -2980,-12840 -1300,-5020 -1860,-9670 -1860,-14140 0,-4650 920,-8740 2600,-12281 1870,-3720 5400,-6320 10790,-7620 8000,-2600 16380,-3530 25300,-2800 8930,750 17500,1120 25681,1120 18970,0 37570,380 56371,1300 18600,930 37570,1680 56731,2430l1120 43151c-370,17490 -1300,34601 -2600,51721 -1121,17110 -1871,34601 -1871,52281 0,16000 190,32180 570,48551 360,16370 550,32550 550,48551 -370,35530 -550,70511 -740,104931 -190,34411 -750,69011 -1490,103622 -370,9110 -560,18960 -560,29381 0,10230 -2600,19350 -8000,27170 -5210,7250 -11350,12460 -18600,15810 -7260,3350 -14880,5020 -23260,5020 -17671,0 -35531,0 -53201,-180 -17671,-190 -34971,560 -51721,2410 -18410,1500 -37021,2050 -55251,1870 -18420,-190 -36831,-190 -55431,-190 -6150,0 -13770,190 -22890,560 -8931,360 -17671,0 -25861,-1120 -8180,-1120 -15250,-3720 -21580,-7820 -6140,-4080 -9490,-10600 -10230,-19530zm-288355 -591590c0,-16730 3910,-29021 11720,-36831 8000,-7820 17490,-13020 29030,-15820 11331,-2600 23621,-3710 36451,-2970 13030,740 24560,1120 34601,1120 3730,0 9120,0 16190,-180 7260,-200 14320,0 21580,730 7070,750 13210,2050 18411,4100 5220,2050 7630,5200 7260,9490 -1110,15631 -1300,31251 -740,46691 560,15440 740,30891 740,46511 370,17860 0,35710 -930,53761 -930,18050 -2050,35900 -3160,53771 -1120,17660 -2240,35530 -3540,53581 -1300,18030 -2050,35900 -2410,53750 -1871,56181 -2611,112182 -2421,167803 180,55631 1481,111632 4091,167813l-2791 15800c-15820,4851 -31250,9681 -46510,14521 -15261,4830 -30691,9670 -46321,14510 -8190,2790 -16550,5210 -25120,7250 -8551,2050 -16921,940 -25111,-2980 -6140,-2600 -10420,-6880 -12840,-12830 -2600,-5950 -3900,-12470 -4270,-19531 -380,-7070 -190,-14320 370,-21590 740,-7250 1120,-13570 1490,-19150 360,-15811 930,-31631 2040,-47251 940,-15630 1670,-31451 2420,-47261 550,-15810 930,-31620 930,-47441 0,-15810 -560,-31620 -1860,-47610 -2600,-32381 -4470,-64572 -5390,-96552 -930,-32001 -1490,-64191 -2050,-96932 -380,-33120 -740,-65851 -1110,-98041 -380,-32371 -570,-65111 -750,-98232zm-604611 -24180c-750,-5401 -1110,-11171 -1110,-17851 0,-6520 930,-12650 2601,-18800 1670,-5950 4650,-10790 8930,-14500 4280,-3730 10230,-5590 18050,-5590 -1120,-380 -2050,-560 -2800,-560l-2790 0 1670 0c750,0 2050,180 3920,560 7250,740 14680,940 22500,560l23821 -1120c5950,-370 11900,-1120 18040,-2050 5950,-920 11910,-370 18040,1310 6700,1860 11721,5210 14881,10240 3170,4830 5400,10600 6520,16920 1110,6330 1670,13030 1480,19710 -180,6700 -180,12651 190,18051 560,13770 1860,27350 3730,40550 1850,13221 4270,26421 7060,39451 1300,5020 2420,10790 3540,17300 1300,6320 1480,12471 930,17851 -560,5400 -2420,9870 -5960,13030 -3340,3170 -9110,4090 -17110,2970 -13761,-2230 -27351,-5380 -40741,-8920 -13590,-3730 -27541,-5210 -42241,-4460 -13200,730 -23610,-2620 -31610,-10051 -8000,-7450 -11541,-18050 -10420,-31820 740,-14130 1110,-28081 920,-41851 -180,-13950 -920,-27530 -2041,-40930zm195334 -8371c0,-5400 0,-11160 190,-17110 180,-5960 1300,-11540 3160,-16560 1860,-5210 4650,-9490 8740,-13210 4100,-3530 9500,-5770 16380,-6520 3720,-731 5020,-1111 4090,-1111 -740,0 -2240,380 -4090,1111 5200,-361 10970,-921 17301,-1661 6500,-750 13020,-1120 19720,-1120 6880,0 13390,550 19530,1670 6320,1111 11530,3351 16001,6881 4650,3910 8370,8380 11160,13400 2790,5020 4840,10230 6320,16000 1490,5580 2420,11530 2980,17860 560,6141 1310,11901 2040,17301 570,7070 1870,14690 3730,23070 1860,8180 3350,17120 4840,26421 1300,9300 2040,18600 2410,27710 370,9120 -560,17300 -2600,24560 -2230,7441 -6140,13761 -11730,19161 -5570,5400 -13570,8750 -23621,10230 -5390,1120 -11530,2240 -18040,3350 -6700,1120 -13390,2050 -20280,2420 -7070,550 -13960,550 -20641,0 -6700,-370 -12470,-1870 -17320,-4470 -5760,-3350 -10030,-7440 -12650,-12280 -2600,-4830 -4080,-10230 -4650,-15811 -550,-5570 -550,-11540 0,-17670 570,-6140 940,-12090 940,-17490 380,-14510 0,-29011 -1120,-43341 -1120,-14320 -2050,-28650 -2790,-42791zm28470 -53400c-4650,380 -6520,380 -5400,200 1120,-200 2970,-200 5400,-200zm276255 289664l0 -560 0 560zm0 -560l0 -2050 0 2050zm0 -2050l0 -3350 0 3350zm0 -3350l0 -550 0 550zm0 -550l0 -560 0 560zm0 -560l0 -560 0 560z"/>
  </g>
 </g>
</svg>
