<?xml version="1.0" encoding="UTF-8"?>
<!DOCTYPE svg PUBLIC "-//W3C//DTD SVG 1.1//EN" "http://www.w3.org/Graphics/SVG/1.1/DTD/svg11.dtd">
<!-- Creator: CorelDRAW X7 -->
<svg xmlns="http://www.w3.org/2000/svg" xml:space="preserve" width="155.999mm" height="113.685mm" version="1.1" style="shape-rendering:geometricPrecision; text-rendering:geometricPrecision; image-rendering:optimizeQuality; fill-rule:evenodd; clip-rule:evenodd"
viewBox="0 0 15518863 11309394"
 xmlns:xlink="http://www.w3.org/1999/xlink">
 <defs>
  <style type="text/css">
   <![CDATA[
    .fil0 {fill:black;fill-opacity:0.301961}
    .fil2 {fill:#985426}
    .fil1 {fill:#FFFFCB}
    .fil3 {fill:url(#id0)}
    .fil4 {fill:url(#id1)}
    .fil5 {fill:url(#id2)}
   ]]>
  </style>
  <radialGradient id="id0" gradientUnits="userSpaceOnUse" gradientTransform="matrix(1.25965E-005 -0.791326 -1.10402 -4.94567E-005 1.24736E+007 1.04938E+007)" cx="7.03229e+006" cy="4.92871e+006" r="6.90917e+006" fx="7.03229e+006" fy="4.92871e+006">
   <stop offset="0" style="stop-opacity:1; stop-color:#FFD6A1"/>
   <stop offset="1" style="stop-opacity:1; stop-color:#FDBD66"/>
  </radialGradient>
  <radialGradient id="id1" gradientUnits="userSpaceOnUse" gradientTransform="matrix(1.25965E-005 -0.786333 -1.10402 -4.91446E-005 1.24957E+007 1.04776E+007)" cx="7.04131e+006" cy="4.94058e+006" r="6.82811e+006" fx="7.04131e+006" fy="4.94058e+006">
   <stop offset="0" style="stop-opacity:1; stop-color:#FFE1BB"/>
   <stop offset="1" style="stop-opacity:1; stop-color:#FDCF8F"/>
  </radialGradient>
  <radialGradient id="id2" gradientUnits="userSpaceOnUse" gradientTransform="matrix(1.25965E-005 -0.781642 -1.10402 -4.88514E-005 1.25875E+007 1.05262E+007)" cx="7.05333e+006" cy="5.01281e+006" r="6.72004e+006" fx="7.05333e+006" fy="5.01281e+006">
   <stop offset="0" style="stop-opacity:1; stop-color:#FFEBB9"/>
   <stop offset="1" style="stop-opacity:1; stop-color:#FDE09C"/>
  </radialGradient>
 </defs>
 <g id="Layer_x0020_1">
  <metadata id="CorelCorpID_0Corel-Layer"/>
  <g id="_2057244272">
   <path class="fil0" d="M2869387 594138c1009717,-17708 2017952,-99541 3027829,-99541 1454355,0 2907487,111588 4361763,99541 947413,-7840 1847493,55669 2794936,59728 323829,1402 604752,-1582 847027,1701 611477,8376 998217,-102415 1187051,157806 87026,119923 137671,286812 164571,480889 -173136,48486 -333757,111318 -481605,188794 177403,-25010 342939,-38698 497263,-41673 19846,255606 7909,545611 -11868,832443 -33465,485366 -104445,1075146 -122272,1779051 -15260,602931 -114770,1181192 -147519,1777478 -167317,-895 -348103,-14703 -543273,-42220 163257,85544 342103,153230 536170,203478 -1323,40866 -2298,81813 -2845,122898 -11172,853553 95173,1722814 96745,2576446 885,474184 4506,861651 3382,1178138 -243011,29456 -463878,75466 -661954,138537 240733,-16653 460685,-20811 661248,-13281 -15698,1831785 -251089,1028191 -2466660,1040338 -1032857,5670 -2058720,181671 -3091447,198155 -582508,9311 -1163823,-54416 -1745635,-88856 -68482,-248990 -171952,-474811 -311433,-676776 45144,242941 62334,463689 53530,663764 -157846,-6387 -315751,-9520 -473746,-7332 -1018213,14087 -2030318,181085 -3048621,185691 -785687,3551 -1565226,-153151 -2350894,-161308 -1376303,-14276 -1614290,382314 -1634723,-502904 314806,-26651 595709,-78659 841515,-156931 -315741,21856 -595719,22175 -843117,2875 119,-394619 25009,-991641 22602,-1886956 -2129,-789607 82390,-1577443 120580,-2366314 231850,-51829 443156,-127245 633303,-226895 -227472,32063 -435436,45522 -625245,41623 5521,-144744 9152,-289528 10038,-434372 5203,-856567 -88588,-1711403 -104843,-2567831 -55281,-2913347 -443106,-2559256 1738999,-2469017 57411,58255 115298,112681 173674,163227 -38619,-54495 -75506,-108066 -110663,-160740 289608,11022 622569,17090 1006137,10346z"/>
   <path class="fil1" d="M3048770 101042c1014691,-17986 2027900,-101042 3042751,-101042 1461528,0 2921833,113259 4383261,101042 952079,-7978 1856616,56485 2808714,60634 325421,1412 607736,-1612 851215,1731 614491,8485 1003132,-103987 1192891,160163 128449,178827 178060,460456 188933,781400 -220289,52078 -421847,125614 -604195,221165 219773,-30978 421549,-44786 606523,-42538 -955,169754 -10077,346710 -22075,522502 -33634,492667 -104952,1091371 -122868,1805910 -17757,708719 -149081,1383844 -158254,2092722l-209 19130c-192584,4079 -403672,-9510 -634636,-42070 190615,99878 402240,175702 634288,228109 5531,800291 96337,1611992 97800,2410204 1164,634188 7093,1115773 597,1480350 -282326,28829 -536459,78739 -761524,150394 279769,-19359 531773,-22025 758211,-9271 -44756,1468611 -376693,746014 -2473424,757644 -1037950,5779 -2068867,184407 -3106688,201159 -668718,10784 -1335884,-75157 -2004005,-103032 -57679,-135264 -127504,-262489 -209705,-381518 24472,131722 40797,256968 49332,376027 -108344,-2855 -216698,-3870 -325102,-2358 -1023247,14295 -2040326,183840 -3063662,188506 -789567,3601 -1572937,-155478 -2362464,-163745 -1218079,-12754 -1548902,298083 -1624537,-241290 232536,-29894 444668,-75048 635810,-135911 -235152,16275 -450677,20732 -647907,14176 -24820,-372703 18066,-1041879 14932,-2219281 -1900,-714767 65449,-1428122 107270,-2142054 164143,-47860 316995,-108683 458297,-182726 -159437,22472 -309394,35892 -450348,40727 13260,-248890 22651,-497850 24154,-746989 5212,-869500 -89026,-1737239 -105350,-2606599 -50984,-2713580 -383070,-2634583 1256538,-2532357 156821,202085 317323,374714 481635,516981 -126688,-178747 -234804,-347744 -325590,-507619 371819,21318 834493,39911 1409391,29724z"/>
   <path class="fil2" d="M2934138 363601c1021576,-17916 2041659,-100714 3063404,-100714 1471436,0 2941639,112901 4412996,100714 958545,-7938 1869199,56316 2827764,60425 327639,1422 611855,-1602 856975,1721 618659,8476 1009946,-103619 1200998,159656 88051,121337 139293,290185 166501,486540 -175165,49063 -337677,112631 -487256,191012 179483,-25298 346969,-39155 503103,-42160 20075,258610 7999,552018 -12007,842222 -33863,491066 -105668,1087780 -123704,1799951 -15439,610015 -116124,1195060 -149261,1798360 -169276,-916 -352191,-14883 -549649,-42717 165177,86548 346122,155030 542467,205865 -1343,41344 -2328,82777 -2875,124340 -11311,863581 96287,1743048 97879,2606709 895,479754 4556,871777 3422,1191985 -245866,29795 -469329,76351 -669733,140158 243558,-16852 466096,-21050 669017,-13440 -15887,1853303 -254034,1040278 -2495639,1052564 -1044983,5740 -2082903,183800 -3127757,200483 -589352,9421 -1177491,-55052 -1766137,-89900 -69289,-251915 -173972,-480392 -315095,-684725 45671,245797 63061,469131 54157,671563 -159696,-6466 -319462,-9639 -479307,-7421 -1030181,14256 -2054174,183213 -3084434,187869 -794919,3591 -1583610,-154951 -2378510,-163198 -1392468,-14444 -1633251,386801 -1653923,-508813 318497,-26969 602703,-79584 851394,-158771 -319452,22105 -602713,22433 -853016,2905 120,-399255 25298,-1003291 22861,-1909121 -2149,-798888 83365,-1595976 122003,-2394108 234575,-52446 448359,-128748 640744,-229561 -230148,32440 -440559,46059 -632597,42110 5591,-146446 9262,-292931 10157,-439475 5263,-866625 -89632,-1731509 -106076,-2597994 -55928,-2947568 -448309,-2589319 1759433,-2498026 58087,58942 116651,114005 175712,165148 -39076,-55132 -76391,-109329 -111965,-162631 293010,11152 629881,17290 1017954,10475z"/>
   <path class="fil3" d="M3006650 187769c1014691,-18005 2027900,-101271 3042751,-101271 1461518,0 2921823,113557 4383261,101271 952079,-7968 1856606,56665 2808704,60793 325421,1423 607736,-1612 851205,1761 614501,8486 1003152,-104246 1192901,160551 115845,161676 167575,407184 184586,689828 -194096,50686 -373112,118671 -536658,204373 194773,-27457 375390,-41414 542736,-42667 3502,203129 -6844,419748 -21478,634626 -33624,493891 -104942,1094047 -122858,1810347 -16912,676477 -136786,1322424 -156125,1996116 -175991,339 -366914,-13599 -573794,-42766 173156,90736 363652,161596 571039,213107 -5024,846529 96307,1707384 97859,2553188 1034,565745 5849,1010304 2327,1359023 -257853,29585 -491453,77316 -700064,143739 255297,-17667 487485,-21428 698214,-12266 -30103,1649716 -318686,882482 -2476607,894470 -1037950,5779 -2068867,184874 -3106688,201647 -629552,10186 -1257732,-65578 -1886628,-97800 -66205,-188107 -153986,-361910 -263902,-521069 34002,182965 52287,353455 55759,512166 -131533,-4397 -263096,-6267 -394719,-4427 -1023237,14335 -2040316,184288 -3063652,188953 -789567,3621 -1572947,-155856 -2362474,-164123 -1302170,-13678 -1590395,343546 -1636803,-366327 262301,-29476 499641,-77634 711266,-145013 -262907,18195 -501282,21628 -716976,11391 -9928,-393167 23607,-1039512 20821,-2088713 -1999,-752073 72293,-1502564 113279,-2253811 185959,-50049 357891,-116183 515468,-198752 -181154,25536 -350082,39404 -507450,42229 9988,-209287 16802,-418664 18056,-628150 5232,-871628 -89016,-1741526 -105340,-2613015 -52546,-2804217 -404160,-2633498 1413807,-2529123 126778,152434 255944,285867 387556,399822 -96754,-136517 -182696,-267354 -258351,-392779 348212,18095 769303,31734 1278972,22671z"/>
   <path class="fil4" d="M3062866 284823c1002794,-17688 2004115,-99451 3007068,-99451 1444378,0 2887542,111518 4331850,99451 940906,-7829 1834829,55639 2775765,59708 321601,1393 600594,-1572 841227,1711 607279,8346 991364,-102365 1178884,157667 106942,148305 158592,368416 178648,622987 -158314,47153 -306032,106454 -442908,178179 159557,-22492 309624,-35912 450677,-40737 8038,220876 -2895,461042 -19200,699040 -33236,485007 -103718,1074389 -121416,1777816 -16722,664699 -135303,1299355 -154324,1961338 -151608,-3611 -313821,-17349 -487256,-41801 148843,77992 310489,141312 484670,190276 -6516,837019 95063,1688543 96595,2525035 1114,603359 6646,1066650 1224,1421049 -222966,29874 -426911,73984 -611328,132697 219763,-15210 422404,-20105 608970,-15330 -37594,1521814 -346898,792094 -2445957,803694 -1025764,5670 -2044594,181542 -3070258,198016 -634417,10206 -1267432,-67359 -1901232,-97849 -60872,-151012 -136468,-292274 -227134,-423549 27257,146704 44428,285390 51959,416416 -127903,-4178 -255864,-5919 -383876,-4139 -1011229,14057 -2016371,180975 -3027710,185552 -780305,3571 -1554483,-153061 -2334748,-161199 -1236135,-12892 -1547659,310081 -1610958,-282246 224279,-29894 429358,-74143 614710,-133155 -225552,15609 -433039,20334 -623653,14913 -18892,-374565 20204,-1026431 17220,-2141647 -1990,-744124 72561,-1486697 112870,-2230025 151997,-46318 294125,-103938 426155,-173126 -147788,20831 -287429,33893 -419310,39533 9958,-206671 16752,-413411 18006,-620261 5183,-855980 -87981,-1710239 -104097,-2566080 -52048,-2759650 -400737,-2585459 1408824,-2483024 99609,112204 200662,212808 303206,301595 -72113,-101759 -138218,-200344 -198543,-295905 346282,18056 766159,31844 1275380,22851z"/>
   <path class="fil5" d="M3137825 458078c986936,-17300 1972400,-97292 2959486,-97292 1421517,0 2841850,109100 4263308,97292 925994,-7660 1805790,54426 2731805,58395 316527,1373 591093,-1542 827936,1701 597669,8158 975685,-100147 1160222,154225 97232,134030 148017,328047 170748,553191 -111716,39305 -217733,85146 -317930,137651 113528,-16006 222230,-27406 326326,-34410 15082,239310 3661,506724 -14584,771392 -32689,474482 -102067,1051071 -119476,1739218 -16444,649558 -132916,1269799 -151837,1916662 -117844,-6536 -241728,-18852 -371948,-37206 115537,60544 238794,112244 369630,155249 -9092,828295 93263,1671472 94795,2499598 1214,654313 7740,1140086 -975,1499112 -177015,28710 -341208,66990 -492289,115099 173653,-12018 336602,-17598 489395,-17061 -48020,1366613 -382632,683043 -2404505,694125 -1009538,5561 -2012232,177603 -3021661,193719 -641401,10256 -1281339,-70104 -1922183,-98068 -50735,-107977 -109568,-210591 -176657,-307733 19508,104971 33813,205805 43154,302709 -121843,-3810 -243727,-5362 -365670,-3671 -995213,13768 -1984448,177046 -2979780,181542 -767960,3482 -1529891,-149728 -2297811,-157696 -1149647,-11928 -1486727,269791 -1572917,-188168 173245,-28531 334135,-66284 482401,-113487 -176080,12186 -341158,17747 -495801,17021 -35087,-344014 12256,-996139 9003,-2202350 -1999,-737738 73377,-1473903 112642,-2210875 107618,-38410 209904,-82937 306748,-133682 -104564,14743 -205039,25566 -301595,32659 9819,-202323 16514,-404726 17747,-607249 5084,-837387 -86588,-1673103 -102455,-2510381 -51322,-2705283 -395703,-2528656 1397543,-2428538 64533,66572 129653,128349 195389,185272 -43672,-61618 -85105,-122053 -124420,-181383 344720,18195 764866,32391 1276216,23418z"/>
  </g>
 </g>
</svg>
