<?xml version="1.0" encoding="UTF-8"?>
<!DOCTYPE svg PUBLIC "-//W3C//DTD SVG 1.1//EN" "http://www.w3.org/Graphics/SVG/1.1/DTD/svg11.dtd">
<!-- Creator: CorelDRAW X7 -->
<svg xmlns="http://www.w3.org/2000/svg" xml:space="preserve" width="1.9333in" height="2.4029in" version="1.1" style="shape-rendering:geometricPrecision; text-rendering:geometricPrecision; image-rendering:optimizeQuality; fill-rule:evenodd; clip-rule:evenodd"
viewBox="0 0 2654 3299"
 xmlns:xlink="http://www.w3.org/1999/xlink">
 <defs>
  <style type="text/css">
   <![CDATA[
    .fil2 {fill:#441600}
    .fil3 {fill:#AB5623}
    .fil0 {fill:white}
    .fil4 {fill:#663300;fill-rule:nonzero}
    .fil1 {fill:white;fill-rule:nonzero}
   ]]>
  </style>
 </defs>
 <g id="Layer_x0020_1">
  <metadata id="CorelCorpID_0Corel-Layer"/>
  <path class="fil0" d="M1939 483l-1015 749c-82,-65 -185,-105 -298,-105 -262,0 -474,213 -474,475 0,262 212,475 474,475 99,0 190,-30 266,-81l967 771c-7,26 -11,53 -11,80 0,166 134,300 300,300 165,0 299,-134 299,-300 0,-165 -134,-299 -299,-299 -48,0 -92,11 -132,30l-963 -768c31,-63 48,-133 48,-208 0,-61 -11,-119 -32,-172l1012 -747c40,23 87,36 138,36 156,0 283,-127 283,-284 0,-156 -127,-283 -283,-283 -157,0 -284,127 -284,283 0,17 1,33 4,48z"/>
  <path class="fil1" d="M918 1048l866 -639c6,-109 54,-208 127,-281l0 0 0 0c79,-79 188,-128 307,-128 121,0 230,49 308,128 79,78 128,187 128,307 0,120 -49,229 -128,308l0 0c-79,79 -188,128 -308,128 -35,0 -72,-5 -108,-14l-1 0 -6 -2 -861 635c7,38 11,75 11,112 0,47 -6,95 -17,141l-4 17 813 648 1 0c34,-8 68,-12 102,-12 124,0 237,51 319,132l0 1c81,82 132,194 132,318 0,125 -51,238 -132,319 -82,82 -195,133 -319,133 -125,0 -237,-51 -319,-133l-1 0c-81,-81 -132,-194 -132,-319 0,-5 0,-10 1,-16l-822 -655c-21,10 -43,18 -66,25 -59,18 -120,27 -183,27 -173,0 -329,-70 -443,-183 -113,-113 -183,-270 -183,-443 0,-172 70,-329 183,-442l0 -1c114,-113 270,-183 443,-183 72,0 142,12 208,35l0 0c29,11 57,23 84,37zm-21 357l-68 -55c-28,-23 -60,-41 -95,-53l0 0c-33,-12 -69,-18 -108,-18 -89,0 -170,36 -228,95l0 -1c-59,59 -95,140 -95,229 0,89 37,170 95,228 58,59 139,95 228,95 35,0 66,-5 95,-14 30,-9 59,-23 86,-41l73 -49 37 -77c10,-21 19,-44 24,-69 5,-22 8,-47 8,-73 0,-22 -2,-42 -5,-60 -4,-20 -9,-39 -16,-57l-31 -80zm1126 1338l-18 64c-2,7 -3,13 -4,20 -1,4 -1,11 -1,20 0,41 16,78 43,105l0 0c26,27 63,43 105,43 40,0 77,-16 104,-43 27,-27 43,-64 43,-105 0,-41 -16,-78 -43,-104l0 0c-27,-27 -64,-43 -104,-43 -13,0 -24,1 -34,3 -12,3 -23,7 -32,11l-59 29zm76 -2223l55 31c10,6 20,10 31,13l0 0c9,2 20,3 33,3 37,0 70,-14 94,-38l0 0c24,-24 39,-57 39,-94 0,-36 -15,-69 -39,-93 -24,-24 -57,-39 -94,-39 -36,0 -69,15 -93,39l0 0c-24,24 -39,57 -39,93 0,5 1,9 1,12l0 0c0,5 1,9 1,11l11 62z"/>
  <path class="fil2" d="M1939 544l-1015 749c-82,-66 -185,-105 -298,-105 -262,0 -474,213 -474,475 0,262 212,474 474,474 99,0 190,-29 266,-81l967 772c-7,25 -11,52 -11,80 0,166 134,300 300,300 165,0 299,-134 299,-300 0,-165 -134,-299 -299,-299 -48,0 -92,11 -132,30l-963 -768c31,-63 48,-133 48,-208 0,-61 -11,-119 -32,-172l1012 -747c40,23 87,36 138,36 156,0 283,-127 283,-284 0,-156 -127,-283 -283,-283 -157,0 -284,127 -284,283 0,16 1,32 4,48z"/>
  <path class="fil3" d="M1939 362l-1015 749c-82,-66 -185,-105 -298,-105 -262,0 -474,213 -474,475 0,262 212,474 474,474 99,0 190,-30 266,-81l967 772c-7,25 -11,52 -11,80 0,165 134,300 300,300 165,0 299,-135 299,-300 0,-165 -134,-299 -299,-299 -48,0 -92,10 -132,30l-963 -768c31,-63 48,-134 48,-208 0,-61 -11,-119 -32,-172l1012 -747c40,23 87,36 138,36 156,0 283,-127 283,-284 0,-157 -127,-284 -283,-284 -157,0 -284,127 -284,284 0,16 1,32 4,48z"/>
  <path class="fil4" d="M1955 387l-1013 748c-12,8 -27,8 -37,-1l0 0c-39,-31 -83,-56 -131,-73 -46,-16 -96,-25 -148,-25 -122,0 -233,50 -314,131 -80,80 -130,191 -130,314 0,122 50,233 130,314 81,80 192,130 314,130 46,0 90,-7 130,-19 43,-13 82,-32 119,-57 11,-8 26,-6 37,2l966 771c10,8 14,22 10,33 -3,11 -6,23 -7,34 -2,12 -3,24 -3,37 0,74 31,142 79,190 49,49 116,79 191,79 74,0 141,-30 190,-79 49,-48 79,-116 79,-190 0,-74 -30,-142 -79,-190 -49,-49 -116,-79 -190,-79 -22,0 -42,2 -61,7 -21,4 -40,11 -58,20 -11,5 -23,4 -32,-3l0 0 -963 -768c-12,-10 -15,-26 -7,-39 14,-29 25,-60 32,-93 8,-32 12,-66 12,-100 0,-29 -3,-56 -8,-82 -5,-28 -13,-54 -22,-79 -6,-14 -1,-28 10,-36l1012 -746c10,-8 23,-8 33,-2 18,10 38,18 59,24 20,5 41,7 64,7 69,0 133,-28 179,-74 46,-46 74,-109 74,-179 0,-70 -28,-133 -74,-179 -46,-46 -110,-74 -179,-74 -70,0 -134,28 -180,74 -46,46 -74,109 -74,179 0,7 0,15 1,21 1,8 2,15 3,22 2,12 -4,24 -14,30zm-1031 686l982 -725c0,-2 0,-5 0,-8 -1,-8 -2,-17 -2,-26 0,-87 36,-165 92,-222 57,-57 136,-92 223,-92 86,0 165,35 222,92 56,57 92,135 92,222 0,87 -36,165 -92,222 -57,57 -136,92 -222,92 -27,0 -54,-3 -79,-10 -20,-5 -39,-12 -57,-20l-978 722c7,22 13,44 18,67 5,31 8,62 8,94 0,39 -4,77 -13,113 -7,30 -16,59 -28,86l930 742c17,-7 35,-13 53,-17 24,-6 49,-9 75,-9 91,0 173,37 233,97 59,59 96,142 96,233 0,91 -37,174 -96,233 -60,60 -142,97 -233,97 -92,0 -174,-37 -234,-97 -59,-59 -96,-142 -96,-233 0,-15 1,-30 3,-45 1,-8 2,-16 4,-24l-935 -746c-36,22 -75,40 -116,53 -47,14 -97,22 -148,22 -139,0 -265,-57 -357,-148 -91,-92 -148,-218 -148,-357 0,-140 57,-266 148,-357 92,-92 218,-148 357,-148 59,0 115,10 168,28 47,17 91,40 130,69z"/>
 </g>
</svg>
