<?xml version="1.0" encoding="UTF-8"?>
<!DOCTYPE svg PUBLIC "-//W3C//DTD SVG 1.1//EN" "http://www.w3.org/Graphics/SVG/1.1/DTD/svg11.dtd">
<!-- Creator: CorelDRAW X7 -->
<svg xmlns="http://www.w3.org/2000/svg" xml:space="preserve" width="165.562mm" height="30.6695mm" version="1.1" style="shape-rendering:geometricPrecision; text-rendering:geometricPrecision; image-rendering:optimizeQuality; fill-rule:evenodd; clip-rule:evenodd"
viewBox="0 0 16538220 3063614"
 xmlns:xlink="http://www.w3.org/1999/xlink">
 <defs>
  <style type="text/css">
   <![CDATA[
    .str0 {stroke:#BC7718;stroke-width:7611.71}
    .str1 {stroke:white;stroke-width:7611.71}
    .fil8 {fill:none}
    .fil2 {fill:#663300}
    .fil10 {fill:#CC9933}
    .fil9 {fill:#FFFF99}
    .fil0 {fill:black;fill-opacity:0.419608}
    .fil11 {fill:url(#id8)}
    .fil6 {fill:url(#id9)}
    .fil1 {fill:url(#id10)}
    .fil12 {fill:url(#id11)}
    .fil7 {fill:url(#id12)}
    .fil14 {fill:url(#id13)}
    .fil13 {fill:url(#id14)}
    .fil5 {fill:url(#id15)}
    .fil3 {fill:url(#id16)}
    .fil4 {fill:url(#id17)}
   ]]>
  </style>
    <mask id="id0">
  <linearGradient id="id1" gradientUnits="userSpaceOnUse" x1="432529" y1="345803" x2="432529" y2="400843">
   <stop offset="0" style="stop-opacity:1; stop-color:white"/>
   <stop offset="1" style="stop-opacity:0; stop-color:white"/>
  </linearGradient>
     <rect style="fill:url(#id1)" x="352286" y="293091" width="160485" height="160475"/>
    </mask>
    <mask id="id2">
  <linearGradient id="id3" gradientUnits="userSpaceOnUse" x1="432529" y1="2.54144e+006" x2="432529" y2="2.59648e+006">
   <stop offset="0" style="stop-opacity:1; stop-color:white"/>
   <stop offset="1" style="stop-opacity:0; stop-color:white"/>
  </linearGradient>
     <rect style="fill:url(#id3)" x="352286" y="2488730" width="160485" height="160475"/>
    </mask>
    <mask id="id4">
  <linearGradient id="id5" gradientUnits="userSpaceOnUse" x1="1.61898e+007" y1="345803" x2="1.61898e+007" y2="400843">
   <stop offset="0" style="stop-opacity:1; stop-color:white"/>
   <stop offset="1" style="stop-opacity:0; stop-color:white"/>
  </linearGradient>
     <rect style="fill:url(#id5)" x="16109516" y="293091" width="160485" height="160475"/>
    </mask>
    <mask id="id6">
  <linearGradient id="id7" gradientUnits="userSpaceOnUse" x1="1.61898e+007" y1="2.54144e+006" x2="1.61898e+007" y2="2.59648e+006">
   <stop offset="0" style="stop-opacity:1; stop-color:white"/>
   <stop offset="1" style="stop-opacity:0; stop-color:white"/>
  </linearGradient>
     <rect style="fill:url(#id7)" x="16109516" y="2488730" width="160485" height="160475"/>
    </mask>
  <linearGradient id="id8" gradientUnits="objectBoundingBox" x1="50%" y1="10.0037%" x2="50%" y2="89.9963%">
   <stop offset="0" style="stop-opacity:1; stop-color:#663300"/>
   <stop offset="1" style="stop-opacity:1; stop-color:#CC9933"/>
  </linearGradient>
  <linearGradient id="id9" gradientUnits="objectBoundingBox" xlink:href="#id8" x1="50%" y1="10.0037%" x2="50%" y2="89.9963%">
  </linearGradient>
  <linearGradient id="id10" gradientUnits="userSpaceOnUse" x1="8.98806e+006" y1="-953522" x2="7.59321e+006" y2="3.90128e+006">
   <stop offset="0" style="stop-opacity:1; stop-color:#BF772B"/>
   <stop offset="1" style="stop-opacity:1; stop-color:#A26C2E"/>
  </linearGradient>
  <radialGradient id="id11" gradientUnits="userSpaceOnUse" gradientTransform="matrix(0.00135642 1.2602 -1.26045 0.00135651 3.61596E+006 2.03716E+006)" cx="403491" cy="2.54909e+006" r="35521.3" fx="403491" fy="2.54909e+006">
   <stop offset="0" style="stop-opacity:1; stop-color:#FFFF99"/>
   <stop offset="1" style="stop-opacity:1; stop-color:#CC9933"/>
  </radialGradient>
  <radialGradient id="id12" gradientUnits="userSpaceOnUse" gradientTransform="matrix(0.00135642 1.2602 -1.26045 0.00135651 848457 -155502)" xlink:href="#id11" cx="403491" cy="353455" r="35521.3" fx="403491" fy="353455">
  </radialGradient>
  <radialGradient id="id13" gradientUnits="userSpaceOnUse" gradientTransform="matrix(0.00135642 1.2602 -1.26045 0.00135651 1.93518E+007 -1.78201E+007)" xlink:href="#id11" cx="1.61607e+007" cy="2.54909e+006" r="35521.3" fx="1.61607e+007" fy="2.54909e+006">
  </radialGradient>
  <radialGradient id="id14" gradientUnits="userSpaceOnUse" gradientTransform="matrix(0.00135642 1.2602 -1.26045 0.00135651 1.65843E+007 -2.00127E+007)" xlink:href="#id11" cx="1.61607e+007" cy="353455" r="35521.3" fx="1.61607e+007" fy="353455">
  </radialGradient>
  <radialGradient id="id15" gradientUnits="userSpaceOnUse" gradientTransform="matrix(1.25965E-005 -0.214679 -1.10402 -1.34171E-005 8.96665E+006 2.93617E+006)" cx="7.5036e+006" cy="1.32529e+006" r="5.24664e+006" fx="7.5036e+006" fy="1.32529e+006">
   <stop offset="0" style="stop-opacity:1; stop-color:#FFD6A1"/>
   <stop offset="1" style="stop-opacity:1; stop-color:#FDBD66"/>
  </radialGradient>
  <radialGradient id="id16" gradientUnits="userSpaceOnUse" gradientTransform="matrix(1.25966E-005 0.290037 -1.10403 1.81269E-005 8.91013E+006 -847784)" cx="7.45805e+006" cy="1.31535e+006" r="5.31555e+006" fx="7.45805e+006" fy="1.31535e+006">
   <stop offset="0" style="stop-opacity:1; stop-color:#FFEBB9"/>
   <stop offset="1" style="stop-opacity:1; stop-color:#FDE09C"/>
  </radialGradient>
  <radialGradient id="id17" gradientUnits="userSpaceOnUse" gradientTransform="matrix(1.25966E-005 -0.248995 -1.10403 -1.55618E-005 8.93237E+006 3.18419E+006)" cx="7.47073e+006" cy="1.324e+006" r="5.46906e+006" fx="7.47073e+006" fy="1.324e+006">
   <stop offset="0" style="stop-opacity:1; stop-color:#FFE1BB"/>
   <stop offset="1" style="stop-opacity:1; stop-color:#FDCF8F"/>
  </radialGradient>
 </defs>
 <g id="Layer_x0020_1">
  <metadata id="CorelCorpID_0Corel-Layer"/>
  <path class="fil0" d="M15761485 58516c-954440,-18649 -13879564,-41295 -14914537,20748 -918340,55060 -808979,43422 -844431,630713 -22925,379546 115784,2200953 203499,2252217 216774,126742 15178280,104067 15696856,90931 181512,-4595 352765,-24723 445235,-123156 178545,-190063 174769,-1927760 161534,-2219593 -33194,-732192 64040,-635977 -748156,-651860z"/>
  <path class="fil1" d="M15785439 19389c-953291,-18170 -13862733,-40236 -14896447,20218 -917231,53661 -808000,42314 -843412,614611 -22895,369857 115644,2144754 203249,2194709 216514,123506 15159881,101410 15677827,88614 181292,-4485 352336,-24094 444695,-120019 178326,-185209 174560,-1878535 161335,-2162915 -33154,-713493 63960,-619745 -747247,-635218z"/>
  <path class="fil2" d="M15673022 206885c-360568,-5135 -881690,-11068 -1407417,-10968 -19929,32934 -37809,66687 -53642,101279 5434,-1638 -310,-49576 -8191,-101239 -464235,499 -12978586,5833 -13333320,20427 20448,30997 37040,63641 49926,97884 -41305,-33204 -85138,-64640 -131477,-94328 -617777,27580 -567912,28190 -586661,312840 125863,10408 83978,23404 -2667,36350 -16183,208373 34322,2138641 85147,2174043 19069,13265 89233,24543 197055,33893 51265,-19899 106644,-37100 165930,-51714 -29129,18840 -57008,38178 -83659,58017 263133,17880 12731285,27850 13178748,31875 24973,220 160265,-78135 185548,-77885 13665,120 -78315,78884 -42024,79024 672747,2717 1383902,-3746 1728118,-15303 -35542,-27920 -73430,-54931 -113687,-80972 82571,20368 157539,45720 224376,76427 20428,-1059 38218,-2158 52563,-3257 124175,-9490 300493,-15613 368598,-43802 78065,-32315 113487,-80672 125494,-137830 11018,-52423 2547,-112548 -10029,-174650 -9830,-48607 -22506,-1791049 -30407,-1839806 -180843,-42035 -117462,-47609 -5904,-44842 -36590,-330869 19769,-342337 -331599,-343925 -69784,115844 -77675,72052 -72461,-270 -44072,-179 -93488,-489 -148358,-1268z"/>
  <path class="fil3" d="M15698404 173042c-360567,-5135 -881690,-11068 -1407417,-10969 -19928,32935 -37809,66688 -53642,101280 5434,-1638 -309,-49576 -8191,-101240 -464234,500 -12978586,5834 -13333320,20428 20448,30996 37040,63641 49926,97884 -41305,-33204 -85137,-64640 -131477,-94328 -617777,27580 -567911,28190 -586661,312840 125863,10408 83979,23404 -2667,36350 -16182,208373 34323,2138641 85147,2174042 19070,13266 89233,24544 197056,33894 51264,-19899 106644,-37100 165929,-51714 -29128,18839 -57008,38178 -83659,58017 263134,17880 12731286,27849 13178748,31875 24973,220 160266,-78135 185548,-77885 13665,120 -78315,78884 -42024,79024 672747,2717 1383903,-3746 1728118,-15304 -35541,-27919 -73430,-54930 -113686,-80971 82570,20367 157538,45720 224375,76426 20428,-1058 38219,-2157 52563,-3256 124175,-9490 300493,-15613 368599,-43802 78065,-32315 113486,-80673 125493,-137830 11018,-52423 2547,-112548 -10029,-174650 -9829,-48607 -22505,-1791050 -30407,-1839806 -180843,-42035 -117462,-47609 -5903,-44842 -36591,-330869 19768,-342337 -331599,-343925 -69784,115844 -77676,72051 -72461,-270 -44072,-180 -93489,-489 -148359,-1268z"/>
  <path class="fil4" d="M15510199 2697363c-397077,6413 -12360030,13824 -12939019,13705 -21956,-41156 -41655,-83340 -59096,-126553 5994,2048 -339,61943 -9000,126503 -511283,-630 -1021318,-7292 -1412002,-25533 22525,-38727 40795,-79523 55000,-122316 -45491,41494 -93778,80772 -144812,117881 -680349,-34472 -625439,-35231 -646087,-390954 138619,-13006 92499,-29238 -2947,-45420 -17820,-260397 37749,-1873950 93778,-1918222 21037,-16631 98273,-30666 217024,-42353 56458,24863 117432,46359 182741,64629 -32085,-23554 -62782,-47718 -92140,-72501 289775,-22355 748945,-34662 1241758,-39846 27710,-290 176438,97723 204357,97344 15154,-210 -86376,-98583 -46299,-98773 740913,-3466 12913147,4685 13292254,19129 -39157,34912 -80882,68656 -125213,101180 90941,-25432 173511,-57118 247111,-95486 22485,1319 41984,2677 57867,4056 136801,11937 330899,19468 405948,54730 86046,40426 124933,100770 138219,172252 12187,65559 2847,140607 -11058,218253 -10868,60774 -24793,1439622 -33493,1500546 -199164,52532 -129370,59485 -6503,56019 -40297,413489 21776,427824 -365193,429812 -76856,-144773 -85547,-90052 -79813,329 -48537,220 -102958,620 -163382,1589z"/>
  <path class="fil5" d="M15379442 2612335c-436185,7842 -1066509,16512 -1702456,16362 -24124,-49116 -45751,-99451 -64910,-151015 6583,2427 -369,73909 -9889,150965 -561578,-749 -11895795,-8710 -12324928,-30466 24733,-46220 44811,-94917 60394,-145991 -49945,49526 -102988,96405 -159037,140686 -747296,-41135 -686971,-42034 -709647,-466562 152244,-15503 101580,-34892 -3236,-54201 -19589,-310751 41415,-1607919 102988,-1660781 23144,-19868 107962,-36600 238400,-50545 61993,29678 128970,55330 200691,77126 -35231,-28099 -68944,-56928 -101199,-86516 318293,-26681 11596651,-41395 12137941,-47558 30417,-350 193809,116623 224456,116174 16652,-250 -94907,-117642 -50845,-117862 813814,-4176 1674047,5574 2090434,22815 -43003,41655 -88824,81931 -137521,120759 99882,-30367 190573,-68176 271415,-113966 24713,1578 46080,3186 63571,4844 150266,14275 363434,23215 445884,65319 94537,48268 137191,120249 151815,205566 13405,78255 3216,167748 -12137,260447 -12007,72591 -27240,1089623 -36800,1162324 -218752,62702 -142085,71013 -7142,66877 -44262,493453 23914,510544 -401113,512922 -84418,-172772 -93968,-107473 -87665,389 -53312,260 -112847,699 -179464,1888z"/>
  <g id="_2041958176">
   <circle class="fil2" cx="447302" cy="384287" r="89315"/>
   <circle class="fil6" cx="432529" cy="373329" r="89315"/>
   <circle class="fil7 str0" cx="432529" cy="373329" r="76433"/>
   <path class="fil8 str1" style="mask:url(#id0)" d="M432529 296897c-42214,0 -76437,34212 -76437,76436 0,42214 34223,76427 76437,76427 42214,0 76437,-34213 76437,-76427 0,-42224 -34223,-76436 -76437,-76436z"/>
   <g>
    <path class="fil2" d="M476201 332298l-20 -10c-4734,-4745 -12476,-4745 -17221,0l-28499 28499 -28529 -28529c-4735,-4735 -12486,-4725 -17231,20l0 0c-4745,4735 -4745,12477 0,17221l28519 28519 -25922 25922c-4745,4745 -4745,12487 0,17231l10 10c4745,4745 12487,4745 17231,0l25922 -25921 25902 25901c4735,4735 12476,4735 17221,0l0 0c4745,-4744 4755,-12496 10,-17241l-25902 -25902 28509 -28499c4735,-4734 4735,-12476 0,-17221z"/>
    <path class="fil9" d="M480357 328133l-10 -10c-4745,-4735 -12487,-4735 -17231,0l-28499 28499 -28519 -28519c-4745,-4745 -12497,-4735 -17241,10l0 0c-4735,4745 -4735,12486 0,17221l28528 28529 -25921 25922c-4745,4744 -4745,12486 0,17221l10 20c4745,4735 12486,4735 17221,0l25922 -25932 25901 25902c4745,4745 12487,4745 17232,0l0 0c4735,-4745 4745,-12497 10,-17231l-25902 -25902 28499 -28499c4745,-4745 4745,-12487 0,-17231z"/>
    <path class="fil10" d="M478279 330220l-10 -10c-4745,-4744 -12486,-4744 -17231,0l-28499 28499 -28519 -28529c-4745,-4744 -12496,-4724 -17241,10l0 0c-4745,4745 -4745,12487 0,17232l28529 28519 -25932 25921c-4735,4745 -4735,12487 0,17232l20 10c4735,4744 12476,4744 17221,0l25922 -25922 25902 25892c4745,4744 12486,4744 17221,0l0 0c4745,-4735 4755,-12497 10,-17232l-25892 -25901 28499 -28499c4735,-4745 4735,-12487 0,-17222z"/>
   </g>
  </g>
  <g id="_2041983904">
   <circle class="fil2" cx="447302" cy="2579926" r="89315"/>
   <circle class="fil11" cx="432529" cy="2568968" r="89315"/>
   <circle class="fil12 str0" cx="432529" cy="2568968" r="76433"/>
   <path class="fil8 str1" style="mask:url(#id2)" d="M432529 2492536c-42214,0 -76437,34212 -76437,76436 0,42214 34223,76427 76437,76427 42214,0 76437,-34213 76437,-76427 0,-42224 -34223,-76436 -76437,-76436z"/>
   <g>
    <path class="fil2" d="M476201 2527937l-20 -10c-4734,-4745 -12476,-4745 -17221,0l-28499 28499 -28529 -28529c-4735,-4735 -12486,-4725 -17231,20l0 0c-4745,4735 -4745,12476 0,17221l28519 28519 -25922 25922c-4745,4745 -4745,12486 0,17231l10 10c4745,4745 12487,4745 17231,0l25922 -25922 25902 25902c4735,4735 12476,4735 17221,0l0 0c4745,-4745 4755,-12496 10,-17241l-25902 -25902 28509 -28499c4735,-4735 4735,-12476 0,-17221z"/>
    <path class="fil9" d="M480357 2523772l-10 -10c-4745,-4735 -12487,-4735 -17231,0l-28499 28499 -28519 -28519c-4745,-4745 -12497,-4735 -17241,10l0 0c-4735,4744 -4735,12486 0,17221l28528 28529 -25921 25922c-4745,4744 -4745,12486 0,17221l10 20c4745,4735 12486,4735 17221,0l25922 -25932 25901 25902c4745,4745 12487,4745 17232,0l0 0c4735,-4745 4745,-12497 10,-17231l-25902 -25902 28499 -28499c4745,-4745 4745,-12487 0,-17231z"/>
    <path class="fil10" d="M478279 2525859l-10 -10c-4745,-4745 -12486,-4745 -17231,0l-28499 28499 -28519 -28529c-4745,-4744 -12496,-4725 -17241,10l0 0c-4745,4745 -4745,12487 0,17232l28529 28519 -25932 25921c-4735,4745 -4735,12487 0,17232l20 10c4735,4744 12476,4744 17221,0l25922 -25922 25902 25892c4745,4744 12486,4744 17221,0l0 0c4745,-4735 4755,-12497 10,-17232l-25892 -25901 28499 -28499c4735,-4745 4735,-12487 0,-17222z"/>
   </g>
  </g>
  <g id="_2041952544">
   <circle class="fil2" cx="16204532" cy="384287" r="89315"/>
   <circle class="fil6" cx="16189759" cy="373329" r="89315"/>
   <circle class="fil13 str0" cx="16189759" cy="373329" r="76433"/>
   <path class="fil8 str1" style="mask:url(#id4)" d="M16189759 296897c-42214,0 -76437,34212 -76437,76436 0,42214 34223,76427 76437,76427 42214,0 76437,-34213 76437,-76427 0,-42224 -34223,-76436 -76437,-76436z"/>
   <g>
    <path class="fil2" d="M16233432 332298l-20 -10c-4735,-4745 -12477,-4745 -17222,0l-28499 28499 -28529 -28529c-4734,-4735 -12486,-4725 -17231,20l0 0c-4745,4735 -4745,12477 0,17221l28519 28519 -25922 25922c-4744,4745 -4744,12487 0,17231l10 10c4745,4745 12487,4745 17232,0l25921 -25921 25902 25901c4735,4735 12477,4735 17221,0l0 0c4745,-4744 4755,-12496 10,-17241l-25901 -25902 28509 -28499c4734,-4734 4734,-12476 0,-17221z"/>
    <path class="fil9" d="M16237587 328133l-10 -10c-4745,-4735 -12486,-4735 -17231,0l-28499 28499 -28519 -28519c-4745,-4745 -12497,-4735 -17241,10l0 0c-4735,4745 -4735,12486 0,17221l28529 28529 -25922 25922c-4745,4744 -4745,12486 0,17221l10 20c4745,4735 12486,4735 17221,0l25922 -25932 25902 25902c4744,4745 12486,4745 17231,0l0 0c4735,-4745 4745,-12497 10,-17231l-25902 -25902 28499 -28499c4745,-4745 4745,-12487 0,-17231z"/>
    <path class="fil10" d="M16235509 330220l-10 -10c-4745,-4744 -12486,-4744 -17231,0l-28499 28499 -28519 -28529c-4745,-4744 -12496,-4724 -17241,10l0 0c-4745,4745 -4745,12487 0,17232l28529 28519 -25932 25921c-4735,4745 -4735,12487 0,17232l20 10c4735,4744 12476,4744 17221,0l25922 -25922 25902 25892c4745,4744 12486,4744 17221,0l0 0c4745,-4735 4755,-12497 10,-17232l-25892 -25901 28499 -28499c4735,-4745 4735,-12487 0,-17222z"/>
   </g>
  </g>
  <g id="_2041967232">
   <circle class="fil2" cx="16204532" cy="2579926" r="89315"/>
   <circle class="fil11" cx="16189759" cy="2568968" r="89315"/>
   <circle class="fil14 str0" cx="16189759" cy="2568968" r="76433"/>
   <path class="fil8 str1" style="mask:url(#id6)" d="M16189759 2492536c-42214,0 -76437,34212 -76437,76436 0,42214 34223,76427 76437,76427 42214,0 76437,-34213 76437,-76427 0,-42224 -34223,-76436 -76437,-76436z"/>
   <g>
    <path class="fil2" d="M16233432 2527937l-20 -10c-4735,-4745 -12477,-4745 -17222,0l-28499 28499 -28529 -28529c-4734,-4735 -12486,-4725 -17231,20l0 0c-4745,4735 -4745,12476 0,17221l28519 28519 -25922 25922c-4744,4745 -4744,12486 0,17231l10 10c4745,4745 12487,4745 17232,0l25921 -25922 25902 25902c4735,4735 12477,4735 17221,0l0 0c4745,-4745 4755,-12496 10,-17241l-25901 -25902 28509 -28499c4734,-4735 4734,-12476 0,-17221z"/>
    <path class="fil9" d="M16237587 2523772l-10 -10c-4745,-4735 -12486,-4735 -17231,0l-28499 28499 -28519 -28519c-4745,-4745 -12497,-4735 -17241,10l0 0c-4735,4744 -4735,12486 0,17221l28529 28529 -25922 25922c-4745,4744 -4745,12486 0,17221l10 20c4745,4735 12486,4735 17221,0l25922 -25932 25902 25902c4744,4745 12486,4745 17231,0l0 0c4735,-4745 4745,-12497 10,-17231l-25902 -25902 28499 -28499c4745,-4745 4745,-12487 0,-17231z"/>
    <path class="fil10" d="M16235509 2525859l-10 -10c-4745,-4745 -12486,-4745 -17231,0l-28499 28499 -28519 -28529c-4745,-4744 -12496,-4725 -17241,10l0 0c-4745,4745 -4745,12487 0,17232l28529 28519 -25932 25921c-4735,4745 -4735,12487 0,17232l20 10c4735,4744 12476,4744 17221,0l25922 -25922 25902 25892c4745,4744 12486,4744 17221,0l0 0c4745,-4735 4755,-12497 10,-17232l-25892 -25901 28499 -28499c4735,-4745 4735,-12487 0,-17222z"/>
   </g>
  </g>
 </g>
</svg>
