<?xml version="1.0" encoding="UTF-8"?>
<!DOCTYPE svg PUBLIC "-//W3C//DTD SVG 1.1//EN" "http://www.w3.org/Graphics/SVG/1.1/DTD/svg11.dtd">
<!-- Creator: CorelDRAW X7 -->
<svg xmlns="http://www.w3.org/2000/svg" xml:space="preserve" width="38.6384mm" height="8.1243mm" version="1.1" style="shape-rendering:geometricPrecision; text-rendering:geometricPrecision; image-rendering:optimizeQuality; fill-rule:evenodd; clip-rule:evenodd"
viewBox="0 0 3947367 829993"
 xmlns:xlink="http://www.w3.org/1999/xlink">
 <defs>
  <style type="text/css">
   <![CDATA[
    .str0 {stroke:white;stroke-width:108251;stroke-linecap:round;stroke-linejoin:round}
    .fil0 {fill:none;fill-rule:nonzero}
    .fil1 {fill:#990000;fill-rule:nonzero}
   ]]>
  </style>
 </defs>
 <g id="Layer_x0020_1">
  <metadata id="CorelCorpID_0Corel-Layer"/>
  <g>
   <path class="fil0 str0" d="M56393 509951c-1675,-6232 -2452,-12464 -2227,-18584 225,-6119 337,-12453 337,-18910 0,-5108 0,-10338 113,-15681 102,-5333 327,-10676 551,-15795 450,-10900 1002,-21689 1778,-32477 776,-10676 1226,-21464 1451,-32477 0,-5118 -113,-10788 -450,-17020 -327,-6232 674,-11790 3004,-16796 2779,-6007 6896,-9899 12351,-11677 5445,-1777 10901,-3228 16458,-4342 10789,-2441 21250,-4781 31476,-6896 10237,-2114 20913,-4229 31926,-6446 3555,-674 7672,-1788 12351,-3228 4781,-1451 9563,-2565 14569,-3229 4893,-664 9562,-664 14016,-112 4444,562 8122,2227 11228,5231l0 -11126c0,-2891 -215,-6232 -664,-10226 -450,-3903 -552,-7795 -450,-11800 113,-4005 674,-7672 1676,-10900 1001,-3219 2778,-5783 5445,-7560 3116,-1778 6569,-2892 10124,-3443 3555,-562 7346,-899 11238,-899 3780,0 7560,224 11340,674 3678,439 7121,776 10236,1001 6784,439 13343,327 19687,-337 6457,-664 12903,-1001 19462,-1001 5568,0 9572,2115 11902,6456 2339,4332 3790,9450 4229,15345 337,5782 225,11902 -439,18246 -787,6222 -1226,11453 -1338,15570 -1451,21689 -2667,43827 -3668,66292 -1001,20576 -2340,41049 -4005,61175 -1675,20136 -2452,40487 -2227,61072 0,6784 2227,12229 6671,16571 4454,4332 9900,6446 16469,6232l19237 0 0 76744 -28033 0c-7673,-225 -14344,-113 -20351,449 -5895,552 -11452,552 -16571,-112 -5006,-674 -10012,-2227 -14680,-4679 -4792,-2554 -9460,-7111 -14129,-13792 -3116,-4556 -5895,-9450 -8347,-14905 -2329,-5333 -4893,-10564 -7447,-15458 -4118,-7897 -6896,-16131 -8010,-24917 -7121,0 -14129,-112 -21025,-337 -6896,-214 -13904,-327 -21025,-327 -10788,1226 -21576,1553 -32252,1114 -10789,-562 -21577,0 -32151,1665 -6446,1890 -12790,2452 -19237,1778 -6456,-664 -12903,-1329 -19359,-2003 -5895,-1113 -10564,-2891 -13904,-5445 -3443,-2452 -5895,-6681 -7336,-12678zm43715 -361387c215,-2789 1002,-5793 2330,-8909 1450,-3218 3116,-6222 5006,-9337 1890,-3004 3892,-6008 6007,-8786 2002,-2779 3892,-5456 5567,-7785 1441,-2227 3004,-4454 4669,-6681 1665,-2330 3893,-3668 7009,-4107 3003,-225 5782,214 8561,1328 2666,1113 5006,2452 6896,4229l0 337 0 -337c5343,3893 10676,7673 16243,11238 5446,3555 11013,7223 16459,10901 2666,1777 5557,4331 8673,7672 3004,3331 5231,6784 6569,10237l0 -337c0,-2340 552,-5006 1665,-7785 -224,-225 -449,-450 -551,-674 -113,-215 -225,-440 -450,-665 450,-776 1451,-2778 3116,-5670 1665,-2891 3341,-6007 5006,-9123 1665,-3115 3116,-6007 4332,-8673 1113,-2564 1450,-4117 786,-4567 -786,-664 -888,-1328 -449,-2217 562,-888 1226,-1675 2115,-2452 888,-776 1890,-1440 3116,-2114l2441 -1328c1788,-450 3566,-337 5343,214 1778,562 3341,1338 4781,2452 -439,-225 -776,-562 -1226,-1001l-888 -1001c449,224 1113,888 2114,2002 225,337 225,552 113,439 -113,-102 -113,-214 -113,-439 4005,3668 7785,7335 11351,11013 3555,3668 7335,7448 11340,11126 1338,1215 3003,2891 4893,4668 1890,1890 3678,3780 5231,5895 1553,2115 2666,4230 3340,6559 552,2227 215,4679 -888,7345 -2227,4894 -4679,10012 -7346,15130 -2666,5109 -5455,9675 -8234,13792 -1001,1778 -2329,2891 -3892,3331 -1553,337 -3229,449 -4894,112 -1665,-337 -3443,-889 -5118,-1665 -1665,-674 -3218,-1451 -4557,-2115 -4668,-2554 -8898,-5557 -12903,-9123 -4004,-3443 -8346,-6783 -13015,-10124 -1890,-1001 -3668,-3004 -5231,-5783 225,1451 0,3004 -664,4567 -889,2554 -1777,5558 -2666,8898 -889,3443 -2003,6672 -3453,10012 -1441,3218 -3004,6222 -4781,9113 -1778,2779 -3780,5231 -6008,7121 -1440,1563 -3780,2666 -6671,3228 -3003,664 -6119,1001 -9348,1001 -3115,0 -6221,-224 -9225,-664 -3116,-449 -5568,-899 -7458,-1563 -6334,-2227 -12341,-5118 -18021,-8786 -5670,-3780 -11227,-7458 -16683,-11125 -5670,-3443 -8786,-7673 -9562,-12566 -777,-4894 -1001,-10349 -777,-16458zm37146 341588c0,3218 -3340,4556 -9899,4107 -6671,-440 -8234,-664 -4557,-440 11678,440 23017,889 34143,1226 11125,327 22363,889 33591,1666 7008,888 12688,1552 17020,1890 4229,449 8673,1338 13128,2554 -1339,-11003 -2779,-22016 -4342,-32702 -1553,-10789 -2891,-21577 -4005,-32478 -1553,-12566 -3116,-25019 -4556,-37483 -1451,-12341 -2452,-24805 -3116,-37483 -450,450 -889,889 -1441,1226 -562,327 -1226,664 -1900,1114 -6109,3442 -12791,6671 -19901,9450 -7233,2778 -14129,5670 -20698,8459 -9675,3667 -15907,8898 -18461,15681 -2666,6672 -4117,14793 -4342,24131 -439,6896 -439,13792 -102,20688 327,6793 552,13689 777,20698 0,4781 -225,9337 -675,13792 -439,4444 -664,9112 -664,13904zm6007 -383975c450,224 1339,1001 2892,2339 -225,-225 -664,-551 -1339,-1113 -551,-552 -1103,-1002 -1553,-1226z"/>
  </g>
  <g>
   <path id="1" class="fil0 str0" d="M348259 599598l0 -76744 10686 0c7009,327 13118,1328 18461,2993 5231,1676 10788,2677 16356,3004 2779,224 5558,224 8112,-103 2564,-224 5455,-561 8459,-1001 0,-786 -225,-1563 -675,-2339 -439,-777 -888,-1563 -1328,-2227 -3228,-11677 -6783,-23130 -10788,-34480 -4005,-11350 -7345,-23027 -9899,-35154 -2892,-12341 -6007,-24355 -9461,-36257 -3442,-11902 -5894,-24141 -7447,-36707 -450,-3228 -1226,-7120 -2227,-11452 -1114,-4454 -1778,-8786 -2115,-13128 -337,-4342 112,-8234 1451,-11677 1215,-3565 4004,-5895 8111,-7233 4567,-1226 9348,-1440 14579,-664 5220,889 10012,1113 14568,664 11452,-1114 22690,-2891 33703,-5343 4342,-1103 9011,-2217 13792,-3555 4894,-1226 9460,-664 13792,1665 2666,1226 4567,3003 5895,5231 1338,2227 2114,4781 2564,7560 439,2789 664,5455 664,8234l0 8234c0,1114 112,3892 337,8122 215,4332 439,9562 777,15682 326,6232 664,12903 1001,20126 327,7233 664,14353 1113,21137 889,4454 1890,7897 3004,10563 0,-2891 112,-4444 327,-4893 449,-4781 1001,-9338 1788,-13455 776,-4117 1890,-8449 3442,-12790 4782,-14456 11902,-28034 21352,-40712 9460,-12678 19912,-23804 31487,-33366 5894,-4894 11677,-9675 17459,-14578 5782,-4782 12127,-9001 19135,-12566 6119,-3668 12566,-6447 19574,-8449 6896,-2003 13792,-4005 20575,-6120 13680,-4229 28146,-7233 43266,-9123 15242,-1890 30148,-3555 44941,-4781 6671,-449 13352,-449 20024,-112 6671,225 13127,1226 19237,2891 6119,1563 12014,4005 17582,7233 5670,3228 10676,7335 15120,12341 10012,11463 18471,23365 25479,35593 6896,12352 12014,25806 15345,40272 2564,11678 4454,23804 5567,36370 1104,12678 1216,25030 327,37146 -1001,11013 -1553,21801 -1665,32375 0,10564 439,21352 1440,32253 338,4668 338,9347 0,13904 3791,-664 7571,-1114 11126,-1328l8571 0 0 76744 -10124 0c-7458,-450 -14017,-3780 -19687,-9900 -5567,-6119 -10124,-13128 -13464,-21025 -3893,5343 -7785,10462 -11565,15355 -3780,4781 -9011,8674 -15570,11453 -5680,2778 -11237,4229 -16683,4566 -5455,327 -11013,664 -16580,889 -21240,1114 -42490,1665 -63954,1665l-62513 0c-10675,0 -21801,450 -33253,1226 -11575,777 -22915,552 -34153,-562 -5895,-439 -12014,-889 -18461,-1328 -6569,-449 -12239,-2452 -17244,-5895 -5119,-3228 -9123,-7233 -12015,-12126 -3003,-4781 -6007,-9787 -9010,-14906 -889,-1563 -2003,-3780 -3331,-6671 -1338,-2891 -2779,-5680 -4454,-8346 -1553,-2667 -3443,-4782 -5445,-6447 -2115,-1563 -4230,-1900 -6345,-1001 -1777,889 -3340,2554 -4781,4894 -1338,2217 -2554,4781 -3555,7447 -899,2667 -1900,5343 -2789,8122 -776,2779 -1553,5118 -2217,6896 -2339,6559 -5680,11452 -9685,14793 -4107,3341 -8786,5782 -14006,7345 -5231,1441 -10686,2330 -16581,2554 -5782,225 -11565,338 -17122,338 -3903,214 -7683,214 -11351,0 -3667,-225 -7559,-450 -11677,-675l-18246 1339 -9123 0zm170294 -107781c-327,3330 -664,7121 -889,11238 -215,4219 337,7785 1563,10890 1328,2902 3004,5119 4894,6569 2002,1553 4117,2667 6558,3331 2340,674 5006,1001 7785,1001l8234 0c5343,0 10901,112 16571,449 5680,338 11350,338 17020,-112 5006,-889 10012,-2329 14905,-4229 5006,-2003 10012,-3331 15018,-4005 11565,-1216 22915,-1890 33928,-1890 11115,0 22466,-1328 33918,-3893 4791,889 10124,1890 16019,3004 5895,1114 11462,889 16571,-552 5230,-1563 9572,-4004 13127,-7570 3566,-3443 5343,-8336 5343,-14568 440,-14793 -1113,-29699 -4566,-44604 -3443,-15018 -9113,-28697 -17010,-41038 -3678,-6120 -8010,-11902 -13016,-17358 -5006,-5557 -9899,-11227 -14680,-17122 -3678,-4567 -7795,-8908 -12464,-13015 -4556,-4117 -9562,-7346 -15018,-9787 -5782,-2565 -12014,-3903 -18348,-3903 -6457,0 -12903,899 -19247,2789 -6447,1890 -12679,4332 -18686,7335 -5894,2891 -11452,6007 -16458,9348 -5006,3555 -10012,7335 -15018,11565 -5006,4117 -9450,8786 -13352,13792 -3443,5118 -6447,10461 -9001,16243 -2452,5670 -4679,11340 -6681,16796 -3668,11227 -6896,22690 -9450,34367 -2667,11677 -5118,23252 -7570,34929z"/>
  </g>
  <g>
   <path id="2" class="fil0 str0" d="M841680 599598l0 -73965 13128 0c7121,0 13679,439 19462,1328 5895,786 10012,1563 12464,2227 2993,449 5894,664 8448,664l8449 0c4342,225 8684,225 12903,0 4230,-215 8459,-777 12903,-1665 -5670,-4557 -10900,-9450 -15682,-14569 -4556,-4454 -9010,-9123 -13230,-14016 -4229,-5006 -7897,-10349 -10900,-16019 -2115,-3893 -3678,-8337 -4567,-13230 -889,-4904 -1665,-9573 -2227,-14129 -2666,-12014 -3995,-24029 -4107,-36155 -112,-12229 112,-24243 776,-36257 440,-9900 2003,-19248 4557,-27921 2677,-8786 6119,-17347 10461,-25806 3668,-8010 8112,-15345 13343,-21802 5230,-6558 12014,-12014 20248,-16346 9562,-5005 19911,-9235 31139,-12678 11125,-3453 22251,-5343 33376,-5568 9787,-224 19687,450 29699,2003 9899,1563 19461,4117 28472,7784 9011,3678 17460,8572 25244,14579 7785,5895 14466,13230 19912,21903 3892,6345 6783,13016 8571,20137 1890,7008 3330,14129 4444,21249 1665,10227 3228,20576 4342,31139 1216,10564 776,20913 -1451,31149 -1553,8010 -4229,15907 -8336,23804 -4005,7785 -8010,15120 -12127,21801 -5670,8899 -11677,17572 -18133,26021 -6447,8571 -13230,16468 -20351,23804l-3892 3892c-1339,1338 -2677,2564 -3893,3678 3893,439 7673,776 11565,1001 3780,112 7672,439 11902,889 4331,224 8673,551 13128,889 4444,337 8898,224 13229,-225 5006,-889 10125,-1665 15355,-2442 5119,-787 9787,-1113 13905,-1113l15681 0 0 73965 -38484 0 -562 -337c-4444,449 -8898,449 -13455,112 -4566,-225 -8898,-439 -13015,-439 -5231,0 -10451,112 -15794,327 -5343,224 -10451,-440 -15457,-2003 -10686,-3218 -21475,-6896 -32375,-11013 -11013,-4107 -21464,-9225 -31476,-15345 -1339,1114 -2667,2003 -4117,2667 -1441,562 -3004,1226 -4669,1890 -4117,1788 -8234,3565 -12127,5455 -3892,1778 -7897,3556 -12014,5333 -3004,1338 -6784,2902 -11228,4904 -4454,1890 -8571,2779 -12239,2554 -3892,0 -7784,449 -11789,1113 -3892,777 -7785,1441 -11677,1890l-1001 0 327 552 -38710 2340 -18348 0zm52164 -440696c-215,-3667 -215,-7345 -112,-11125 112,-3780 562,-7335 1450,-10564 889,-3340 2340,-5118 4557,-5557 7120,-1563 14353,-1788 21689,-787 7233,889 14466,1226 21699,787 3003,-225 6671,-787 10901,-1676 4219,-776 8336,-1328 12565,-1552 4118,-225 8010,0 11677,664 3668,562 6784,2451 9124,5455 1552,2002 2441,5006 2891,9011 439,4004 889,8111 1226,12341 327,4229 888,8122 1777,11789 889,3566 2442,5783 4894,6671 3892,1451 7120,1788 9562,787 2564,-1001 4567,-2564 6007,-4893 1563,-2228 2565,-4894 3004,-8010 449,-3003 562,-6007 337,-9123 -225,-3453 -889,-7008 -1778,-10676 -1001,-3780 -888,-7121 440,-10124 1563,-3668 3892,-6559 7008,-8459 3116,-2002 6569,-3555 10237,-4556 2891,-1114 5670,-2115 8448,-3116 2892,-1002 5783,-1553 8684,-1778 2891,-225 5782,112 8449,889 2779,889 5343,2666 7672,5230 2452,2892 4454,6008 6007,9338 1666,3341 3004,6896 3893,10574 1001,3667 2002,7447 3003,11452 1001,3892 2115,7458 3341,10676 889,3116 2115,6232 3668,9460 1450,3331 2778,6559 3892,10012 1113,3331 2002,6784 2779,10226 786,3454 1001,6794 786,10125 -449,3892 -1787,6783 -3892,8561 -2227,1900 -4904,3228 -8009,4005 -3116,674 -6457,1113 -9900,1113 -3453,0 -6896,113 -10124,337 -1563,225 -4005,552 -7458,889 -3555,450 -7110,777 -11013,889 -3780,112 -7335,-112 -10676,-664 -3443,-562 -5445,-1665 -6007,-3453 -664,-1114 -664,-2115 0,-3116 562,-889 562,-1890 0,-2779 -889,-1001 -2115,-1890 -3443,-2442 -1451,-449 -2666,-1001 -3780,-1450 -3228,-1441 -6457,-2779 -9572,-3893 -3219,-1113 -6559,-1440 -10339,-1001 -2779,225 -5895,1114 -9236,2452 -3340,1440 -5670,3555 -7008,6334 -1114,2002 -1778,3780 -2002,5455 -225,1553 -1441,3004 -3893,4005 -6896,3555 -14568,5445 -22802,5895 -8234,439 -16019,552 -23467,327 -6671,0 -13128,-664 -19247,-2105 -6007,-1450 -10676,-5455 -14017,-12239 -1440,-2554 -2441,-5782 -2891,-9562 -439,-3790 -664,-7683 -776,-11463 -113,-3780 -113,-7559 112,-11339 225,-3893 225,-7346 0,-10687 0,-1440 -112,-4004 -337,-7560zm29698 240254c-664,6345 -888,12576 -664,18910 225,6345 1226,12464 2892,18584 2451,8448 5894,17234 10461,26245 4556,9011 10114,16571 16571,22690 4004,3668 8009,7233 12126,10564 4107,3340 8449,6569 13005,9572 3893,-2339 7795,-4669 11575,-7008 3780,-2227 7336,-5006 10564,-8234 7008,-6559 13240,-14456 18910,-23804 5670,-9338 9562,-18461 11789,-27359 1666,-5895 2554,-11789 2554,-17684l0 -18246c0,-5006 -214,-10012 -664,-14906 -439,-5006 -1777,-9787 -4229,-14343 -1328,-3116 -3004,-6457 -5221,-10012 -2114,-3565 -5118,-5895 -8785,-7008 -10462,-2115 -21250,-3453 -32600,-3893 -10227,-449 -19901,777 -29024,3780 -9123,2891 -16796,8786 -23140,17685 -2554,3780 -4117,7672 -4669,11789 -562,4117 -1001,8347 -1451,12678zm1002 -272394l224 0 -224 0zm224 0l338 0 -338 0zm338 0l664 -337c-225,225 -440,337 -664,337zm664 -337l337 0 -337 0z"/>
  </g>
  <g>
   <path id="3" class="fil0 str0" d="M1135446 599598l0 -76744 19575 0 0 -337 9123 0 2002 664 327 0c2339,0 4005,112 4904,224 776,113 1440,113 1890,113 327,0 776,-113 1328,-450 562,-327 1563,-1001 3116,-1890 2114,-1001 3667,-2779 4669,-5333 899,-2451 1450,-5118 1450,-7795 0,-2778 -337,-5557 -1001,-8448 -664,-3004 -1114,-5456 -1338,-7346 -1001,-6109 -1666,-12116 -1778,-18123 -112,-6007 -337,-11790 -776,-17470l-2340 -30587c-776,-10227 -1665,-20463 -2554,-30700 -1113,-11227 -2227,-22465 -3228,-33703 -1114,-11115 -1778,-22353 -1890,-33703 0,-11452 -777,-22915 -2340,-34255 -1440,-11238 -2779,-22690 -3892,-34153 -777,-10226 -1778,-20238 -2891,-30137 -1114,-9900 -2227,-19912 -3229,-30148 -439,-3218 -551,-6334 -214,-9338 327,-2891 1113,-5568 2442,-7897 1338,-2452 3115,-4454 5343,-5895 2329,-1563 5006,-2339 8009,-2339 5221,225 10451,337 15682,337l15907 0c5894,214 11789,439 17796,552 6120,112 12014,-113 17909,-552 4781,-225 9787,-562 15120,-1001 5343,-337 10237,214 14691,2002 2779,1328 4781,3116 6109,5333 1226,2339 2115,4781 2452,7345 337,2667 337,5446 112,8449 -224,3116 -337,5895 -337,8572 0,5332 -112,10900 -439,16458 -337,5455 -787,11013 -1114,16356 -1113,10451 -1665,20902 -1665,31476 0,10564 -225,21127 -674,31813 -664,22578 -1553,45156 -2667,67733 -1225,22578 -2227,45381 -3340,68408 -664,10237 -1328,20575 -2115,30812 -776,10349 -1553,20688 -2442,31149 -562,6334 -1113,12341 -1563,18124 -439,5782 -1665,11901 -3555,18133 -1665,5445 -4117,10451 -7121,14906 -3003,4556 -6119,9010 -9337,13567 -3004,4566 -6120,9123 -9348,13679 -3228,4679 -7008,8572 -11340,11688 -5343,3218 -10686,5108 -16131,5782 -5343,664 -10901,889 -16796,664 -1226,0 -1675,0 -1226,0 450,0 1002,0 1778,112 776,113 1114,225 1226,225 112,112 -552,112 -2002,112l-12566 1216 -12576 2003 -8562 0 -888 337 -17685 0z"/>
  </g>
  <g>
   <path id="4" class="fil0 str0" d="M1327756 237209c0,-10011 2339,-17347 7008,-22026 4791,-4668 10461,-7784 17357,-9450 6784,-1563 14129,-2227 21802,-1777 7784,439 14680,664 20687,664 2227,0 5446,0 9675,-113 4342,-112 8561,0 12903,450 4230,439 7897,1216 11013,2442 3116,1226 4557,3116 4342,5670 -674,9347 -787,18685 -449,27920 337,9236 449,18471 449,27809 215,10676 0,21362 -562,32150 -552,10788 -1226,21464 -1890,32140 -664,10564 -1338,21250 -2115,32038 -776,10788 -1226,21464 -1440,32140 -1114,33591 -1563,67080 -1451,100333 113,33254 889,66743 2452,100333l-1675 9450c-9450,2892 -18686,5783 -27809,8674 -9113,2891 -18348,5792 -27696,8684 -4893,1665 -9899,3105 -15007,4331 -5119,1226 -10125,562 -15018,-1777 -3678,-1553 -6232,-4117 -7683,-7673 -1553,-3565 -2329,-7457 -2554,-11677 -225,-4229 -112,-8571 225,-12903 439,-4342 664,-8122 889,-11462 225,-9450 551,-18910 1226,-28248 551,-9348 1001,-18798 1440,-28258 337,-9450 562,-18910 562,-28360 0,-9460 -337,-18910 -1113,-28473 -1564,-19359 -2667,-38596 -3229,-57731 -551,-19135 -889,-38372 -1226,-57957 -214,-19799 -439,-39373 -664,-58610 -225,-19359 -337,-38934 -449,-58733z"/>
  </g>
  <g>
   <path id="5" class="fil0 str0" d="M1584805 344653c0,-2779 112,-5997 225,-9675 112,-3555 674,-6783 1563,-9562 1001,-2779 2779,-4781 5220,-6007 2565,-1226 6007,-1001 10574,449 8449,3331 16908,6559 25357,10002 8459,3341 16907,6457 25356,9235 3453,1339 7008,2667 10686,4230 3668,1553 7009,3330 10012,5445 3004,2002 5445,4679 7111,7897 1787,3341 2451,7233 2002,11790 -552,6007 -1553,12126 -3004,18246 -1440,6007 -2666,12014 -3892,17909 -2779,14129 -5220,28145 -7110,42152 -1901,14016 -3678,28258 -5231,42601 -450,3228 -889,6784 -1563,10574 -552,3780 -777,7447 -664,10901 112,3442 889,6783 2452,9787 1552,3003 4219,5332 7897,6783 2441,1114 5108,2003 7897,2442 2779,562 5782,1001 8898,1226 3106,225 6222,449 9225,674 3116,215 6120,327 9011,552 14241,1553 28146,2891 41937,4117 13680,1226 27696,2002 41825,2441 7111,225 14232,450 21465,675 7233,214 14241,551 21137,1001 4444,0 8673,112 12678,327 3893,225 8010,337 12229,337 1451,0 3565,112 6232,450 2779,326 4781,0 6232,-1114 1777,-1338 2778,-3678 2891,-7121 225,-3565 337,-6119 337,-7897 0,-29259 -1451,-58283 -4230,-86980 -2891,-28698 -5670,-57507 -8459,-86317 -214,-2666 -214,-5455 0,-8459 225,-3106 1002,-5782 2340,-8224 1001,-1890 2666,-3003 4894,-3116 2227,-112 4341,-337 6119,-776 6119,-1339 12239,-2452 18134,-3453 6007,-889 12004,-1441 18123,-1441 6007,215 11902,327 17684,215 5895,-113 11800,-327 17695,-552 5220,-225 10226,777 14793,2779 4669,2115 7223,6119 7560,12239 225,5670 -113,11227 -1114,16571 -1001,5445 -1777,10900 -2441,16345 -675,6457 -1339,13128 -2115,19912 -777,6681 -1563,13465 -2115,20136 -1778,14129 -3341,28258 -4567,42377 -1103,14128 -2441,28145 -3780,42049l-1215 16908c-450,5670 -1339,11228 -2677,16683 -2891,11340 -7785,21689 -14681,30924 -7008,9338 -13679,18798 -20350,28136 -5680,8009 -12352,13015 -19799,15355 -7458,2329 -15692,3892 -24590,4781 -8899,889 -17899,1553 -26910,2002 -9011,440 -17909,337 -26807,-337 -14905,-1113 -29699,-2002 -44604,-2666 -14793,-664 -29484,-1001 -44052,-1001l-24580 0c-8449,0 -16796,224 -25142,664 -3443,0 -7111,112 -10789,449 -3667,327 -7335,552 -10900,552 -3555,0 -7223,-327 -10901,-1001 -3667,-664 -6896,-1890 -9787,-3668 -3003,-1778 -5558,-4005 -7785,-6896 -2114,-2891 -4004,-5895 -5445,-9011 -1563,-3228 -3003,-6558 -4454,-10011 -1441,-3556 -2891,-6784 -4342,-9563 -3892,-8346 -7335,-16795 -10114,-25367l-8459 -25469c-2329,-6895 -4117,-14128 -5220,-21688 -1002,-7448 -1788,-15018 -2115,-22578 -337,-7673 -450,-15243 -450,-22690 0,-7458 -112,-14906 -337,-22364 -439,-14568 -664,-28911 -664,-43153 0,-14241 -112,-28585 -337,-43163zm81760 -103214c-562,-2115 -664,-4454 -450,-6784 113,-2452 675,-4791 1564,-7008 1001,-2339 1890,-4791 2891,-7345 4004,-10901 8561,-21465 13679,-31814 5119,-10338 9450,-21127 13016,-32364 1665,-6120 4229,-11677 7447,-16796 3229,-5118 6232,-10349 9123,-15794 1114,-2452 2115,-4894 3116,-7570 1001,-2554 2115,-5221 3341,-7785 1216,-2554 2666,-5006 4219,-7335 1563,-2227 3453,-4117 5895,-5343 2227,-1338 5006,-2442 8234,-3341 3228,-776 6457,-1440 9787,-1890 3341,-439 6671,-664 9900,-664l8346 0c6447,225 11790,1890 16019,5006 4220,3228 8224,6896 12229,11238 8459,9225 16131,18798 23140,28912 7008,10124 14905,19584 23803,28482 4444,4781 8337,9787 11902,15018 3555,5221 7009,10226 10451,15008 1226,1675 2677,3677 4342,5792 1666,2217 3004,4332 3893,6559 888,2227 1113,4342 664,6559 -327,2115 -2217,4005 -5333,5455 -4230,2227 -8572,4005 -13016,5445 -4454,1339 -8785,2779 -13240,4005 -4669,1114 -9337,2891 -13792,5456 -4556,2441 -9337,4004 -14129,4668 -4444,664 -8673,-224 -12453,-2778 -3892,-2452 -7458,-5670 -10676,-9461 -3228,-3780 -6119,-7784 -8786,-12014 -2677,-4219 -5118,-7897 -7345,-10900 -4005,-5221 -8122,-10227 -12352,-15008 -4219,-4791 -8786,-9235 -13894,-13353 -4903,-4331 -9235,-6783 -13127,-7233 -3893,-327 -7458,2789 -10462,9461 -2666,5894 -5445,11677 -8224,17347 -2789,5567 -5343,11462 -7785,17582 -1787,5220 -3340,10563 -4791,15906 -1440,5445 -3004,10901 -4669,16346 -1113,3453 -2666,6120 -4781,7785 -2115,1777 -4556,2779 -7233,3003 -2779,225 -5558,-224 -8449,-1226 -2891,-888 -5455,-2554 -7784,-4668 -2228,-2227 -3678,-4342 -4230,-6559zm194210 107556c0,225 112,337 224,337 102,0 102,112 102,327 0,-215 0,-327 -102,-327 -112,0 -224,-112 -224,-337zm0 0l0 -337 0 337zm326 3892l0 -1001 0 1001zm0 -1001l0 -889 0 889zm0 -889l0 -1001 0 1001zm0 -1001l0 -337 0 337z"/>
  </g>
  <g>
   <path id="6" class="fil0 str0" d="M2006478 237209c0,-10011 2339,-17347 7008,-22026 4791,-4668 10461,-7784 17357,-9450 6784,-1563 14129,-2227 21802,-1777 7784,439 14680,664 20687,664 2227,0 5446,0 9675,-113 4342,-112 8561,0 12903,450 4230,439 7897,1216 11013,2442 3116,1226 4557,3116 4342,5670 -674,9347 -787,18685 -450,27920 338,9236 450,18471 450,27809 215,10676 0,21362 -562,32150 -552,10788 -1226,21464 -1890,32140 -664,10564 -1338,21250 -2115,32038 -776,10788 -1226,21464 -1440,32140 -1114,33591 -1563,67080 -1451,100333 113,33254 889,66743 2452,100333l-1675 9450c-9450,2892 -18686,5783 -27809,8674 -9113,2891 -18348,5792 -27696,8684 -4893,1665 -9899,3105 -15007,4331 -5119,1226 -10125,562 -15018,-1777 -3678,-1553 -6232,-4117 -7683,-7673 -1553,-3565 -2329,-7457 -2554,-11677 -225,-4229 -112,-8571 225,-12903 439,-4342 664,-8122 889,-11462 224,-9450 551,-18910 1226,-28248 551,-9348 1001,-18798 1440,-28258 337,-9450 562,-18910 562,-28360 0,-9460 -337,-18910 -1114,-28473 -1563,-19359 -2666,-38596 -3228,-57731 -552,-19135 -889,-38372 -1226,-57957 -214,-19799 -439,-39373 -664,-58610 -225,-19359 -337,-38934 -449,-58733z"/>
  </g>
  <g>
   <path id="7" class="fil0 str0" d="M2179223 593591c-889,-11013 -776,-22353 225,-33928 1001,-11565 2002,-22915 3116,-34030 112,-2892 551,-5895 1113,-9011 552,-3116 1328,-6007 2442,-8572 1113,-2554 2666,-4781 4893,-6671 2115,-1890 4894,-3003 8122,-3443 5231,-674 10676,-674 16459,0 5782,665 11237,1114 16468,1329 6222,0 12566,0 18910,112 6222,112 12566,337 18910,776 4782,450 9787,1114 14896,1901 5230,776 10236,776 15242,102 3780,-664 6671,-2003 8786,-3893 2002,-2002 3453,-4331 4454,-7008 1001,-2779 1441,-5670 1441,-8786 0,-3218 -225,-6119 -664,-9010 -664,-5446 -1114,-10676 -1563,-15795 -440,-5108 -1216,-10012 -2217,-14793 -1114,-5670 -2340,-10900 -3678,-15794 -1441,-4893 -2329,-10124 -2779,-15569 -439,-6232 -1001,-12352 -1778,-18246 -664,-5783 -1890,-11678 -3340,-17572 -2330,-10237 -4669,-20351 -7009,-30475 -2329,-10012 -4444,-20463 -6109,-31037 -449,-2442 -1001,-5006 -1788,-7897 -776,-2779 -1103,-5670 -1103,-8449 0,-2779 552,-5343 1553,-7672 1113,-2227 3228,-3678 6456,-4342 4782,-1114 9788,-1451 15120,-1226 5344,337 10574,562 15468,562 11564,0 23017,214 34255,664 11237,439 22577,776 34254,1226l225 26133c-112,10237 -664,20136 -1440,29923 -787,9787 -1114,19799 -1114,30036 0,9337 0,18460 113,27359 112,8898 214,18021 214,27359 450,10686 337,21137 -214,31598 -450,10451 -562,21015 -113,31589l0 14455c3668,4894 7121,9236 10124,13016 3004,3780 7223,5670 12679,5670l6558 -337 0 75753 -6895 0c-4557,0 -8449,-1114 -11678,-3229 -3340,-2114 -6119,-4781 -8673,-8009 -2452,-3218 -4792,-6896 -6681,-11013 -2003,-4107 -3780,-8337 -5221,-12791 -1788,2452 -3565,4894 -5455,7346 -1890,2441 -3668,5006 -5446,7672 -5894,8459 -13127,15682 -21801,21689 -4117,2677 -8571,4567 -13240,5782 -4669,1114 -9348,1900 -14129,2227 -4781,450 -9562,777 -14456,889 -4894,113 -9562,337 -14017,787 -10675,1103 -21351,1328 -32140,776 -10798,-562 -21586,-776 -32487,-776 -3892,0 -8337,102 -13342,327 -5006,225 -9788,-113 -14467,-777 -4668,-776 -8673,-2339 -12004,-4668 -3453,-2340 -5230,-6457 -5455,-12239z"/>
  </g>
  <g>
   <path id="8" class="fil0 str0" d="M2415584 599822l0 -73525 13353 0 1001 0c2442,0 4669,112 6896,337 2115,214 4230,327 6120,327l57721 1563c12791,439 25694,889 38709,1226 13128,327 26256,1001 39486,2104 5006,450 10124,899 15355,1451 5118,552 10451,664 15906,225 4781,-225 9675,-562 14568,-1002 4782,-449 9900,-561 15131,-337 5557,0 11340,225 17132,664 5670,450 11565,899 17347,1339 3341,224 6559,449 10012,664 3341,225 6671,-215 9900,-1328 888,-225 2114,-450 3779,-777 1564,-337 2892,-674 4005,-1001 1114,-337 1778,-787 2115,-1451 337,-664 -225,-1553 -1778,-2666 -2339,-2115 -4893,-4230 -7682,-6120 -2667,-2002 -5445,-4004 -8224,-5894 -18686,-12791 -36595,-26695 -53615,-41601 -17132,-14793 -34367,-29586 -52051,-44164 -11902,-9787 -23365,-19799 -34490,-30138 -11115,-10236 -22578,-20463 -34592,-30475 -6007,-5006 -12116,-9899 -18348,-14905 -6232,-5006 -12464,-10124 -18798,-15355 -3453,-2779 -7233,-5558 -11350,-8122 -4117,-2666 -7672,-5782 -10451,-9450 -3004,-3341 -4567,-6344 -4567,-9348 0,-2891 1001,-5557 2901,-8009 1993,-2329 4557,-4669 7673,-6784 3218,-2217 6446,-4219 10012,-6007 3443,-1890 6896,-3443 10226,-4893 3341,-1441 6007,-2779 8010,-4117 9572,-6222 18797,-12791 27808,-19350 9011,-6671 18358,-13342 27921,-20024 5557,-3555 11238,-5557 16795,-6007 5445,-551 10676,2227 15457,8235 3004,3892 6120,7897 9460,11789 3229,3892 6334,8009 9450,12351 6457,8449 12903,17010 19360,25582 6446,8561 12678,17347 18685,26245 13128,18471 26583,36267 40487,53390 13904,17245 28473,33928 43603,50171 7897,8122 15345,16459 22465,25132l21577 26031c3678,4556 7345,9123 10900,13567 3566,4454 7346,8898 11238,13240 4117,5006 5783,10349 4894,16244 -889,5895 -3004,11115 -6559,15682 -3004,4331 -5895,8561 -8786,12790 -2789,4230 -5792,8449 -8786,12791 -2789,4557 -5905,9236 -9123,14129 -3228,4894 -7008,8898 -11350,12229 -3780,2779 -7335,4454 -11013,5118 -3555,664 -7223,889 -10901,664 -3667,-214 -7447,-439 -11227,-776 -3791,-327 -7785,-439 -11902,-225 -10237,450 -20249,1001 -30148,1563 -9900,439 -19911,552 -30138,113 -19135,-450 -38157,-338 -57292,112 -19125,552 -39373,889 -60613,889 -9787,224 -19472,439 -28922,776 -9460,337 -18910,664 -28472,1114l-36819 4004 -9461 0z"/>
  </g>
  <g>
   <path id="9" class="fil0 str0" d="M2822474 147338c0,-2891 -112,-5680 -337,-8347 -224,-2666 -112,-5118 337,-7335 225,-2564 2003,-4230 5446,-4792 3453,-551 6456,-1103 9010,-1440 -2891,-225 -4781,-664 -5670,-1338 -1001,-777 -1563,-1890 -1665,-3331 -225,-1563 -562,-3116 -1001,-5006 -337,-1788 -562,-3116 -562,-4004 -439,-4455 -1001,-9461 -1778,-15018 -776,-5568 -1113,-11013 -1113,-16244 -664,-3443 -1001,-6334 -1001,-8898 0,-2554 551,-4557 1450,-6007 1002,-1553 2779,-2667 5221,-3443 2564,-777 6119,-1339 10900,-1563 6457,-440 12903,-889 19248,-1553 6446,-664 13015,-1338 19686,-2003 1226,0 3780,-337 7673,-1001 3892,-664 7784,-1226 11902,-1553 4004,-449 7672,-449 10900,0 3228,327 4781,1666 4781,3893l-551 1001 0 -337 551 -664c-112,1103 -112,2329 225,3892 337,1553 562,3004 777,4219 224,1339 224,2565 -113,3791 -327,1215 -1216,2002 -2779,2441 -3003,1563 -6558,2340 -10563,2340l-10901 0c-6896,327 -13792,551 -20800,664 -6896,112 -13904,225 -21025,449 -2115,0 -3555,1002 -4229,3004 -664,2002 -889,4444 -777,7223 113,2779 450,6456 1001,11013 562,4454 889,7008 1114,7458l0 1328c0,562 225,2339 562,5343 327,3003 889,4893 1553,5782 664,889 2227,1563 4556,1890 1890,450 4791,0 8684,-1440 4005,-1451 13342,-2677 28023,-3678 14680,-1001 16683,-664 6007,1113 -10564,1778 -15457,2677 -14568,2452 7233,-1226 14343,-2339 21249,-3565 6784,-1114 13792,-1890 21015,-2329 450,-450 776,0 1001,1440 337,1451 450,3341 562,5680 215,2442 215,4996 327,7673 0,2778 112,5220 112,7335 450,3116 675,5895 777,8571 112,2554 0,5445 -439,8449 551,1338 1890,2227 4117,2779 2227,562 2666,889 1328,1113 -1441,225 -1553,337 -664,337 1001,0 1890,-224 2564,-664 -11350,889 -19809,1553 -25367,2003 -5670,439 -6896,1215 -3892,2554 -15794,2441 -26583,4117 -32253,5006 -5680,889 -11575,1777 -17796,2441 -2340,338 -5006,899 -8122,1451 -3116,552 -6007,1114 -8674,1553 -2676,337 -5792,112 -9123,-664 -3340,-889 -5670,-2891 -6896,-6344 0,-1778 0,-4107 0,-6896 0,-2667 0,-5445 0,-8224zm327 86980c0,-9348 2227,-16243 6682,-20575 4444,-4342 9899,-7233 16346,-8572 6456,-1440 13352,-2002 20575,-1665 7345,337 13792,450 19687,450 2114,0 5343,0 9797,-113 4332,-112 8673,0 12903,440 4219,449 7897,1226 11003,2452 3116,1226 4566,3003 4342,5445 -664,8673 -1002,17245 -889,25806 112,8673 112,17245 112,25918 225,10012 113,20024 -225,29811 -439,9900 -888,19799 -1552,29699 -675,9899 -1339,19798 -2003,29810 -674,10012 -1113,20126 -1338,30363 -889,31476 -1226,62737 -1114,93662 113,30914 777,62063 2115,93314l-1451 8459c-9113,2891 -18348,5670 -27696,8561 -9225,2779 -18460,5456 -27583,8122 -4557,1553 -9450,2779 -14569,3893 -5118,1113 -10012,551 -14793,-1666 -3555,-1450 -6119,-3892 -7560,-7120 -1450,-3229 -2339,-6896 -2676,-10901 -327,-4005 -327,-8122 -113,-12239 225,-4117 337,-7560 450,-10451 112,-9123 337,-18021 664,-26695 337,-8673 562,-17357 776,-26031 225,-8786 337,-17459 337,-26245 113,-8796 0,-17695 -337,-26593 -991,-18011 -1665,-36032 -1890,-53941 -214,-17909 -327,-35931 -214,-53952 0,-18236 112,-36369 112,-54605 102,-18134 102,-36380 102,-54841zm93100 -175963l0 -337 0 337z"/>
  </g>
  <g>
   <path id="10" class="fil0 str0" d="M3091313 474020c-1778,-14353 -3228,-28370 -4342,-42162 -1001,-13792 -327,-27910 2003,-42264 1113,-7335 2227,-14681 3453,-22139 1226,-7335 2441,-14793 3555,-22128 449,-2452 776,-5343 1113,-8786 338,-3453 1002,-6896 2003,-10124 1001,-3228 2452,-6007 4454,-8122 2002,-2227 4669,-3116 7999,-3003 5006,224 10349,1890 15907,4893 5455,3116 10574,5343 15242,6896 6008,2115 11902,4230 17685,6007 5894,1890 11564,3893 17132,6007 5119,1778 9900,3453 14456,4894 4679,1563 9348,3453 14129,5568 2779,1103 5445,2217 7897,3218 2452,1113 4557,2452 6120,4117 1665,1665 2666,3668 3116,6007 439,2452 112,5455 -1002,9123 -5118,15682 -10461,31476 -16019,47495 -5455,15907 -9235,32038 -11125,48384 -664,6446 -1114,12903 -1338,19349 -215,6345 -552,12903 -1001,19360 -440,5006 449,8898 2564,11789 2227,2779 5006,4782 8336,6008 3341,1226 7233,1777 11575,1777l11790 0c10675,0 21239,-439 31588,-1440 10451,-1001 21137,-1451 32038,-1451 8898,225 17797,664 26695,1553 8898,899 17796,1338 26807,1338 3331,0 7223,0 11790,113 4444,112 8898,0 13117,-552 4342,-562 8234,-1788 11800,-3678 3555,-1778 6109,-4781 7560,-8898 1001,-2667 1665,-5670 1777,-9338 113,-3565 0,-7120 -337,-10676 -327,-3678 -776,-7233 -1440,-10798 -664,-3555 -1001,-6896 -1226,-9900 -1665,-17909 -3443,-35480 -5333,-52940 -1900,-17572 -3341,-35266 -4454,-53390 -225,-3892 -664,-8898 -1226,-14905 -664,-6120 -777,-12127 -327,-17909 439,-5895 1665,-11125 3892,-15682 2115,-4566 6007,-7233 11565,-8122 11452,-2002 23242,-2554 35368,-1777 12239,664 23916,1665 35154,2666 3668,450 7223,1001 10788,1553 3556,562 7234,1001 10901,1451l-4893 67406c-1114,13904 -2340,27921 -3678,42040 -1216,14129 -2105,28145 -2554,42049 -225,6559 -225,12903 -113,19248 113,6334 113,12453 113,18573l0 3228c224,4107 1450,8224 3780,12229 2227,4004 6232,6007 11902,6007l13679 -337 0 75640 -13679 0c-5221,-224 -9450,-1665 -12566,-4342 -3116,-2666 -5783,-5996 -7785,-10226 -2115,-4229 -3678,-8898 -4567,-13904 -1001,-5006 -2104,-9787 -3105,-14466 -225,-1104 -450,-2105 -675,-2994 -224,-899 -327,-1900 -327,-3003 -2789,5557 -5567,11565 -8121,18011 -2565,6457 -5895,11902 -10012,16356 -3668,4005 -7897,6784 -12791,8449 -4781,1675 -9899,2779 -15243,3228 -5445,450 -10900,552 -16345,337 -5456,-225 -10462,-337 -15018,-337 -14242,225 -28697,112 -43490,-225 -14681,-327 -29372,-112 -43940,562 -15018,664 -29699,1328 -44155,1890 -14353,664 -28922,552 -43827,-225 -8009,-664 -16131,-1113 -24468,-1338 -8234,-214 -16243,-1113 -24028,-2666 -4454,-889 -9123,-1001 -14241,-337 -2442,674 -4782,1338 -7111,2002 -2339,674 -4679,225 -7121,-1328 -2227,-1338 -4229,-3453 -5894,-6232 -1563,-2779 -3004,-5782 -4230,-9011 -1226,-3228 -2339,-6446 -3228,-9674 -889,-3229 -1665,-6007 -2554,-8459 -4894,-14681 -9348,-29137 -13353,-43491 -3892,-14343 -6783,-29024 -8561,-44042zm169180 190982c-225,-1553 -225,-2003 -112,-1666 112,440 112,1002 112,1666 -439,-3229 225,-5783 1778,-7785 1563,-1890 3677,-3453 6119,-4669 2452,-1113 5118,-2115 8010,-2677 2891,-664 5455,-1225 7784,-1665 6007,-1226 12015,-2452 18022,-3340 5894,-1002 11901,-2003 17909,-3116 3442,-664 6007,-215 7897,1113 1777,1451 3116,3228 4004,5568 777,2217 1329,4669 1441,7223 112,2564 449,5006 1001,7458 562,5782 1676,11564 3566,17347 1777,5782 3003,11789 3555,18133 225,3453 -225,6232 -1441,8235 -1113,2114 -2789,3780 -4893,4893 -2115,1226 -4567,2003 -7346,2442 -2778,449 -5670,787 -8786,1001 -5894,889 -11901,2115 -17796,3566 -5783,1552 -11790,2666 -17684,3330 -5006,562 -8899,112 -11790,-1553 -2891,-1563 -5118,-4005 -6896,-7233 -1675,-3330 -2789,-7008 -3340,-11340 -552,-4229 -777,-8571 -777,-13128l0 -12678c0,-4229 -112,-7897 -337,-11125z"/>
  </g>
  <g>
   <path id="11" class="fil0 str0" d="M3501084 599598l0 -70747 13230 0 20361 2339c5006,-2002 8561,-5670 10451,-10901 1338,-3340 1778,-6783 1338,-10451 -449,-3565 -889,-7120 -1338,-10686 -889,-8561 -1778,-17010 -2667,-25356 -888,-8347 -2114,-16908 -3667,-25469 -2677,-15355 -5231,-30588 -7683,-45830 -2441,-15130 -4781,-30587 -7008,-46157 -439,-1788 -776,-3892 -1103,-6232 -337,-2451 -562,-4893 -562,-7457 0,-2554 337,-4894 889,-7111 561,-2227 1450,-4117 2564,-5568 2104,-2217 3667,-4331 4669,-6446 1001,-2115 2114,-4005 3116,-5670 1113,-1563 2554,-3116 4219,-4454 1675,-1339 4117,-2227 7121,-2892 9010,-1552 18583,-1777 28809,-551 10124,1216 19911,2217 29147,3106 4117,449 8336,888 12791,1225 4444,338 8336,2228 11564,5783 2565,2564 4117,5568 4669,8898 562,3228 562,6682 112,10237 -2554,29698 -5445,59397 -8673,88983 -3228,29698 -4894,59396 -4894,89095 0,6457 113,12791 337,19022 215,6345 113,12566 -337,18798 -449,6120 -1665,11453 -3555,16132 -1890,4781 -5343,9112 -10349,13342 -3443,3116 -7672,5118 -12678,6119 -5118,889 -9900,1553 -14681,2003 -6681,889 -13240,1665 -19686,2339 -6457,777 -12903,1441 -19585,2003 -2666,0 -4893,214 -6671,551 -1890,337 -4005,552 -6334,889 -2227,337 -5343,562 -9011,777 -3790,224 -8683,337 -14905,337zm16683 -398206c-225,-2442 -112,-5006 439,-7673 562,-2666 1451,-5343 2677,-7785 1113,-2564 2779,-4679 4893,-6569 2003,-1777 4557,-2891 7560,-3105l7785 0c3116,0 6232,102 9460,214 3218,113 6222,450 8899,1114 2778,674 5118,1675 7008,2891 4781,3892 7448,8786 8112,14681 674,5894 1226,11462 1675,16693 225,3003 776,7785 1553,14343 889,6457 1338,13016 1338,19687 0,6671 -889,12351 -2564,17132 -1778,4782 -5108,6784 -10114,5895 -3228,-449 -6120,-776 -8898,-889 -2677,-112 -5568,-337 -8572,-776 -2554,-225 -5445,-112 -8561,215 -3228,337 -6007,-103 -8346,-1216 -2779,-1226 -4894,-3116 -6335,-5343 -1450,-2340 -2564,-4781 -3453,-7560 -888,-2677 -1440,-5456 -1665,-8234 -225,-2892 -449,-5446 -562,-7898 -664,-6007 -1215,-12014 -1553,-17909 -337,-5894 -551,-11789 -776,-17908zm65731 -6896c449,-6120 2339,-10012 5568,-11678 3228,-1777 7784,-2339 13567,-1665 5670,440 11462,440 17572,0 2114,-224 4679,-562 7682,-1001 3106,-449 5783,-112 8112,1001 2452,1328 4117,3218 5006,5670 1001,2554 1563,5119 1675,7673 113,2666 -112,5455 -449,8346 -440,2891 -777,5333 -1002,7335 -439,4567 -664,10125 -664,16796 0,6681 -337,12903 -1113,18910 -777,6007 -2340,11013 -4557,15130 -2227,4230 -6119,6007 -11462,5558 -2227,0 -4894,224 -8122,562 -3218,327 -6446,551 -9562,664 -3116,112 -6120,0 -9123,-337 -2892,-327 -5119,-1441 -6559,-3106 -1778,-2227 -3004,-4679 -3780,-7346 -787,-2778 -1114,-5670 -1114,-8673 0,-3004 113,-6007 327,-9011 225,-2891 337,-5568 337,-7897 0,-6119 -551,-12239 -1440,-18358 -1001,-6008 -1338,-12229 -899,-18573zm16244 118242l337 0 -337 0zm1001 0c449,214 889,327 1338,327 -449,0 -889,-113 -1338,-327zm1553 327l674 0 -674 0z"/>
  </g>
  <g>
   <path id="12" class="fil0 str0" d="M3624659 668669c664,675 2002,113 4005,-1777 2114,-1778 3442,-3004 4117,-3443 2217,-1114 4444,-1788 6671,-2227 2339,-450 4669,-1114 7008,-2003 4781,-1113 9563,-2227 14344,-3340 4791,-1226 9685,-2442 14691,-3780 7999,-2340 15794,-5231 23354,-8562 7447,-3340 14905,-7008 22251,-10900 18685,-9787 33478,-22803 44266,-38934 10676,-16244 18236,-34592 22578,-54953 1778,-7785 2002,-15794 889,-23906 -1226,-8234 -2115,-16243 -2779,-24365 -1114,-12127 -2564,-24131 -4229,-36145 -1778,-11902 -3331,-24029 -4557,-36155 -674,-9563 -1675,-19125 -3116,-28810 -1451,-9675 -2227,-19349 -2452,-28912 0,-3228 -102,-6681 -439,-10349 -337,-3780 -225,-7233 337,-10451 439,-3228 1778,-6007 3668,-8122 2002,-2227 5445,-3340 10451,-3340l1001 0 -1001 0c10237,-225 20361,-664 30587,-1441 10237,-786 20473,-1226 30924,-1450 3668,0 8235,-113 13680,-225 5455,-113 10574,449 15467,1675 4894,1216 9011,3106 12341,5895 3341,2666 4894,6896 4455,12566 -889,7335 -1339,14568 -1339,21801 0,7121 -439,14344 -1338,21464 -1001,12239 -2666,24366 -4669,36482 -2115,12239 -4005,24366 -5670,36595 -2002,14905 -3892,29923 -5568,44716 -1777,14905 -3780,29811 -6221,44828 -675,5006 -1114,10012 -1451,14906 -327,4781 -664,9675 -1113,14568 -440,4894 -1114,9787 -2003,14568 -889,4792 -2217,9348 -4219,13690 -4567,11677 -9787,23242 -15580,34480 -5895,11340 -12566,22026 -19911,32252 -7448,10237 -15457,19799 -24243,28810 -8786,9010 -18573,17020 -29249,24028 -8234,5343 -16693,10564 -25367,15570 -8673,5006 -17020,10349 -25132,16019 -5006,3667 -10461,6446 -16356,8561 -5894,2002 -11789,3892 -17459,5895 -3453,899 -6784,1225 -9900,1001 -3228,-215 -6569,-102 -10011,337 -5006,449 -9011,-1001 -12015,-4117 -3116,-3116 -5455,-7121 -7233,-11790 -1777,-4669 -3116,-9562 -4229,-14680 -1104,-5119 -2105,-9348 -2891,-12903 -1778,-6232 -3106,-12454 -4005,-18686 -777,-6232 -2003,-12351 -3555,-18460 -225,-1114 -664,-1901 -1339,-2452 -551,-552 -1103,-1339 -1553,-2452 -449,-1778 -776,-3443 -1001,-5221 -225,-1777 -551,-3565 -1001,-5567 -225,-1329 -449,-3116 -664,-5558 -225,-2340 -889,-4117 -2227,-5231zm162059 -340474l2891 0 -2891 0zm3228 0l338 0 -338 0z"/>
  </g>
  <path id="13" class="fil1" d="M56393 509951c-1675,-6232 -2452,-12464 -2227,-18584 225,-6119 337,-12453 337,-18910 0,-5108 0,-10338 113,-15681 102,-5333 327,-10676 551,-15795 450,-10900 1002,-21689 1778,-32477 776,-10676 1226,-21464 1451,-32477 0,-5118 -113,-10788 -450,-17020 -327,-6232 674,-11790 3004,-16796 2779,-6007 6896,-9899 12351,-11677 5445,-1777 10901,-3228 16458,-4342 10789,-2441 21250,-4781 31476,-6896 10237,-2114 20913,-4229 31926,-6446 3555,-674 7672,-1788 12351,-3228 4781,-1451 9563,-2565 14569,-3229 4893,-664 9562,-664 14016,-112 4444,562 8122,2227 11228,5231l0 -11126c0,-2891 -215,-6232 -664,-10226 -450,-3903 -552,-7795 -450,-11800 113,-4005 674,-7672 1676,-10900 1001,-3219 2778,-5783 5445,-7560 3116,-1778 6569,-2892 10124,-3443 3555,-562 7346,-899 11238,-899 3780,0 7560,224 11340,674 3678,439 7121,776 10236,1001 6784,439 13343,327 19687,-337 6457,-664 12903,-1001 19462,-1001 5568,0 9572,2115 11902,6456 2339,4332 3790,9450 4229,15345 337,5782 225,11902 -439,18246 -787,6222 -1226,11453 -1338,15570 -1451,21689 -2667,43827 -3668,66292 -1001,20576 -2340,41049 -4005,61175 -1675,20136 -2452,40487 -2227,61072 0,6784 2227,12229 6671,16571 4454,4332 9900,6446 16469,6232l19237 0 0 76744 -28033 0c-7673,-225 -14344,-113 -20351,449 -5895,552 -11452,552 -16571,-112 -5006,-674 -10012,-2227 -14680,-4679 -4792,-2554 -9460,-7111 -14129,-13792 -3116,-4556 -5895,-9450 -8347,-14905 -2329,-5333 -4893,-10564 -7447,-15458 -4118,-7897 -6896,-16131 -8010,-24917 -7121,0 -14129,-112 -21025,-337 -6896,-214 -13904,-327 -21025,-327 -10788,1226 -21576,1553 -32252,1114 -10789,-562 -21577,0 -32151,1665 -6446,1890 -12790,2452 -19237,1778 -6456,-664 -12903,-1329 -19359,-2003 -5895,-1113 -10564,-2891 -13904,-5445 -3443,-2452 -5895,-6681 -7336,-12678zm43715 -361387c215,-2789 1002,-5793 2330,-8909 1450,-3218 3116,-6222 5006,-9337 1890,-3004 3892,-6008 6007,-8786 2002,-2779 3892,-5456 5567,-7785 1441,-2227 3004,-4454 4669,-6681 1665,-2330 3893,-3668 7009,-4107 3003,-225 5782,214 8561,1328 2666,1113 5006,2452 6896,4229l0 337 0 -337c5343,3893 10676,7673 16243,11238 5446,3555 11013,7223 16459,10901 2666,1777 5557,4331 8673,7672 3004,3331 5231,6784 6569,10237l0 -337c0,-2340 552,-5006 1665,-7785 -224,-225 -449,-450 -551,-674 -113,-215 -225,-440 -450,-665 450,-776 1451,-2778 3116,-5670 1665,-2891 3341,-6007 5006,-9123 1665,-3115 3116,-6007 4332,-8673 1113,-2564 1450,-4117 786,-4567 -786,-664 -888,-1328 -449,-2217 562,-888 1226,-1675 2115,-2452 888,-776 1890,-1440 3116,-2114l2441 -1328c1788,-450 3566,-337 5343,214 1778,562 3341,1338 4781,2452 -439,-225 -776,-562 -1226,-1001l-888 -1001c449,224 1113,888 2114,2002 225,337 225,552 113,439 -113,-102 -113,-214 -113,-439 4005,3668 7785,7335 11351,11013 3555,3668 7335,7448 11340,11126 1338,1215 3003,2891 4893,4668 1890,1890 3678,3780 5231,5895 1553,2115 2666,4230 3340,6559 552,2227 215,4679 -888,7345 -2227,4894 -4679,10012 -7346,15130 -2666,5109 -5455,9675 -8234,13792 -1001,1778 -2329,2891 -3892,3331 -1553,337 -3229,449 -4894,112 -1665,-337 -3443,-889 -5118,-1665 -1665,-674 -3218,-1451 -4557,-2115 -4668,-2554 -8898,-5557 -12903,-9123 -4004,-3443 -8346,-6783 -13015,-10124 -1890,-1001 -3668,-3004 -5231,-5783 225,1451 0,3004 -664,4567 -889,2554 -1777,5558 -2666,8898 -889,3443 -2003,6672 -3453,10012 -1441,3218 -3004,6222 -4781,9113 -1778,2779 -3780,5231 -6008,7121 -1440,1563 -3780,2666 -6671,3228 -3003,664 -6119,1001 -9348,1001 -3115,0 -6221,-224 -9225,-664 -3116,-449 -5568,-899 -7458,-1563 -6334,-2227 -12341,-5118 -18021,-8786 -5670,-3780 -11227,-7458 -16683,-11125 -5670,-3443 -8786,-7673 -9562,-12566 -777,-4894 -1001,-10349 -777,-16458zm37146 341588c0,3218 -3340,4556 -9899,4107 -6671,-440 -8234,-664 -4557,-440 11678,440 23017,889 34143,1226 11125,327 22363,889 33591,1666 7008,888 12688,1552 17020,1890 4229,449 8673,1338 13128,2554 -1339,-11003 -2779,-22016 -4342,-32702 -1553,-10789 -2891,-21577 -4005,-32478 -1553,-12566 -3116,-25019 -4556,-37483 -1451,-12341 -2452,-24805 -3116,-37483 -450,450 -889,889 -1441,1226 -562,327 -1226,664 -1900,1114 -6109,3442 -12791,6671 -19901,9450 -7233,2778 -14129,5670 -20698,8459 -9675,3667 -15907,8898 -18461,15681 -2666,6672 -4117,14793 -4342,24131 -439,6896 -439,13792 -102,20688 327,6793 552,13689 777,20698 0,4781 -225,9337 -675,13792 -439,4444 -664,9112 -664,13904zm6007 -383975c450,224 1339,1001 2892,2339 -225,-225 -664,-551 -1339,-1113 -551,-552 -1103,-1002 -1553,-1226z"/>
  <path id="14" class="fil1" d="M348259 599598l0 -76744 10686 0c7009,327 13118,1328 18461,2993 5231,1676 10788,2677 16356,3004 2779,224 5558,224 8112,-103 2564,-224 5455,-561 8459,-1001 0,-786 -225,-1563 -675,-2339 -439,-777 -888,-1563 -1328,-2227 -3228,-11677 -6783,-23130 -10788,-34480 -4005,-11350 -7345,-23027 -9899,-35154 -2892,-12341 -6007,-24355 -9461,-36257 -3442,-11902 -5894,-24141 -7447,-36707 -450,-3228 -1226,-7120 -2227,-11452 -1114,-4454 -1778,-8786 -2115,-13128 -337,-4342 112,-8234 1451,-11677 1215,-3565 4004,-5895 8111,-7233 4567,-1226 9348,-1440 14579,-664 5220,889 10012,1113 14568,664 11452,-1114 22690,-2891 33703,-5343 4342,-1103 9011,-2217 13792,-3555 4894,-1226 9460,-664 13792,1665 2666,1226 4567,3003 5895,5231 1338,2227 2114,4781 2564,7560 439,2789 664,5455 664,8234l0 8234c0,1114 112,3892 337,8122 215,4332 439,9562 777,15682 326,6232 664,12903 1001,20126 327,7233 664,14353 1113,21137 889,4454 1890,7897 3004,10563 0,-2891 112,-4444 327,-4893 449,-4781 1001,-9338 1788,-13455 776,-4117 1890,-8449 3442,-12790 4782,-14456 11902,-28034 21352,-40712 9460,-12678 19912,-23804 31487,-33366 5894,-4894 11677,-9675 17459,-14578 5782,-4782 12127,-9001 19135,-12566 6119,-3668 12566,-6447 19574,-8449 6896,-2003 13792,-4005 20575,-6120 13680,-4229 28146,-7233 43266,-9123 15242,-1890 30148,-3555 44941,-4781 6671,-449 13352,-449 20024,-112 6671,225 13127,1226 19237,2891 6119,1563 12014,4005 17582,7233 5670,3228 10676,7335 15120,12341 10012,11463 18471,23365 25479,35593 6896,12352 12014,25806 15345,40272 2564,11678 4454,23804 5567,36370 1104,12678 1216,25030 327,37146 -1001,11013 -1553,21801 -1665,32375 0,10564 439,21352 1440,32253 338,4668 338,9347 0,13904 3791,-664 7571,-1114 11126,-1328l8571 0 0 76744 -10124 0c-7458,-450 -14017,-3780 -19687,-9900 -5567,-6119 -10124,-13128 -13464,-21025 -3893,5343 -7785,10462 -11565,15355 -3780,4781 -9011,8674 -15570,11453 -5680,2778 -11237,4229 -16683,4566 -5455,327 -11013,664 -16580,889 -21240,1114 -42490,1665 -63954,1665l-62513 0c-10675,0 -21801,450 -33253,1226 -11575,777 -22915,552 -34153,-562 -5895,-439 -12014,-889 -18461,-1328 -6569,-449 -12239,-2452 -17244,-5895 -5119,-3228 -9123,-7233 -12015,-12126 -3003,-4781 -6007,-9787 -9010,-14906 -889,-1563 -2003,-3780 -3331,-6671 -1338,-2891 -2779,-5680 -4454,-8346 -1553,-2667 -3443,-4782 -5445,-6447 -2115,-1563 -4230,-1900 -6345,-1001 -1777,889 -3340,2554 -4781,4894 -1338,2217 -2554,4781 -3555,7447 -899,2667 -1900,5343 -2789,8122 -776,2779 -1553,5118 -2217,6896 -2339,6559 -5680,11452 -9685,14793 -4107,3341 -8786,5782 -14006,7345 -5231,1441 -10686,2330 -16581,2554 -5782,225 -11565,338 -17122,338 -3903,214 -7683,214 -11351,0 -3667,-225 -7559,-450 -11677,-675l-18246 1339 -9123 0zm170294 -107781c-327,3330 -664,7121 -889,11238 -215,4219 337,7785 1563,10890 1328,2902 3004,5119 4894,6569 2002,1553 4117,2667 6558,3331 2340,674 5006,1001 7785,1001l8234 0c5343,0 10901,112 16571,449 5680,338 11350,338 17020,-112 5006,-889 10012,-2329 14905,-4229 5006,-2003 10012,-3331 15018,-4005 11565,-1216 22915,-1890 33928,-1890 11115,0 22466,-1328 33918,-3893 4791,889 10124,1890 16019,3004 5895,1114 11462,889 16571,-552 5230,-1563 9572,-4004 13127,-7570 3566,-3443 5343,-8336 5343,-14568 440,-14793 -1113,-29699 -4566,-44604 -3443,-15018 -9113,-28697 -17010,-41038 -3678,-6120 -8010,-11902 -13016,-17358 -5006,-5557 -9899,-11227 -14680,-17122 -3678,-4567 -7795,-8908 -12464,-13015 -4556,-4117 -9562,-7346 -15018,-9787 -5782,-2565 -12014,-3903 -18348,-3903 -6457,0 -12903,899 -19247,2789 -6447,1890 -12679,4332 -18686,7335 -5894,2891 -11452,6007 -16458,9348 -5006,3555 -10012,7335 -15018,11565 -5006,4117 -9450,8786 -13352,13792 -3443,5118 -6447,10461 -9001,16243 -2452,5670 -4679,11340 -6681,16796 -3668,11227 -6896,22690 -9450,34367 -2667,11677 -5118,23252 -7570,34929z"/>
  <path id="15" class="fil1" d="M841680 599598l0 -73965 13128 0c7121,0 13679,439 19462,1328 5895,786 10012,1563 12464,2227 2993,449 5894,664 8448,664l8449 0c4342,225 8684,225 12903,0 4230,-215 8459,-777 12903,-1665 -5670,-4557 -10900,-9450 -15682,-14569 -4556,-4454 -9010,-9123 -13230,-14016 -4229,-5006 -7897,-10349 -10900,-16019 -2115,-3893 -3678,-8337 -4567,-13230 -889,-4904 -1665,-9573 -2227,-14129 -2666,-12014 -3995,-24029 -4107,-36155 -112,-12229 112,-24243 776,-36257 440,-9900 2003,-19248 4557,-27921 2677,-8786 6119,-17347 10461,-25806 3668,-8010 8112,-15345 13343,-21802 5230,-6558 12014,-12014 20248,-16346 9562,-5005 19911,-9235 31139,-12678 11125,-3453 22251,-5343 33376,-5568 9787,-224 19687,450 29699,2003 9899,1563 19461,4117 28472,7784 9011,3678 17460,8572 25244,14579 7785,5895 14466,13230 19912,21903 3892,6345 6783,13016 8571,20137 1890,7008 3330,14129 4444,21249 1665,10227 3228,20576 4342,31139 1216,10564 776,20913 -1451,31149 -1553,8010 -4229,15907 -8336,23804 -4005,7785 -8010,15120 -12127,21801 -5670,8899 -11677,17572 -18133,26021 -6447,8571 -13230,16468 -20351,23804l-3892 3892c-1339,1338 -2677,2564 -3893,3678 3893,439 7673,776 11565,1001 3780,112 7672,439 11902,889 4331,224 8673,551 13128,889 4444,337 8898,224 13229,-225 5006,-889 10125,-1665 15355,-2442 5119,-787 9787,-1113 13905,-1113l15681 0 0 73965 -38484 0 -562 -337c-4444,449 -8898,449 -13455,112 -4566,-225 -8898,-439 -13015,-439 -5231,0 -10451,112 -15794,327 -5343,224 -10451,-440 -15457,-2003 -10686,-3218 -21475,-6896 -32375,-11013 -11013,-4107 -21464,-9225 -31476,-15345 -1339,1114 -2667,2003 -4117,2667 -1441,562 -3004,1226 -4669,1890 -4117,1788 -8234,3565 -12127,5455 -3892,1778 -7897,3556 -12014,5333 -3004,1338 -6784,2902 -11228,4904 -4454,1890 -8571,2779 -12239,2554 -3892,0 -7784,449 -11789,1113 -3892,777 -7785,1441 -11677,1890l-1001 0 327 552 -38710 2340 -18348 0zm52164 -440696c-215,-3667 -215,-7345 -112,-11125 112,-3780 562,-7335 1450,-10564 889,-3340 2340,-5118 4557,-5557 7120,-1563 14353,-1788 21689,-787 7233,889 14466,1226 21699,787 3003,-225 6671,-787 10901,-1676 4219,-776 8336,-1328 12565,-1552 4118,-225 8010,0 11677,664 3668,562 6784,2451 9124,5455 1552,2002 2441,5006 2891,9011 439,4004 889,8111 1226,12341 327,4229 888,8122 1777,11789 889,3566 2442,5783 4894,6671 3892,1451 7120,1788 9562,787 2564,-1001 4567,-2564 6007,-4893 1563,-2228 2565,-4894 3004,-8010 449,-3003 562,-6007 337,-9123 -225,-3453 -889,-7008 -1778,-10676 -1001,-3780 -888,-7121 440,-10124 1563,-3668 3892,-6559 7008,-8459 3116,-2002 6569,-3555 10237,-4556 2891,-1114 5670,-2115 8448,-3116 2892,-1002 5783,-1553 8684,-1778 2891,-225 5782,112 8449,889 2779,889 5343,2666 7672,5230 2452,2892 4454,6008 6007,9338 1666,3341 3004,6896 3893,10574 1001,3667 2002,7447 3003,11452 1001,3892 2115,7458 3341,10676 889,3116 2115,6232 3668,9460 1450,3331 2778,6559 3892,10012 1113,3331 2002,6784 2779,10226 786,3454 1001,6794 786,10125 -449,3892 -1787,6783 -3892,8561 -2227,1900 -4904,3228 -8009,4005 -3116,674 -6457,1113 -9900,1113 -3453,0 -6896,113 -10124,337 -1563,225 -4005,552 -7458,889 -3555,450 -7110,777 -11013,889 -3780,112 -7335,-112 -10676,-664 -3443,-562 -5445,-1665 -6007,-3453 -664,-1114 -664,-2115 0,-3116 562,-889 562,-1890 0,-2779 -889,-1001 -2115,-1890 -3443,-2442 -1451,-449 -2666,-1001 -3780,-1450 -3228,-1441 -6457,-2779 -9572,-3893 -3219,-1113 -6559,-1440 -10339,-1001 -2779,225 -5895,1114 -9236,2452 -3340,1440 -5670,3555 -7008,6334 -1114,2002 -1778,3780 -2002,5455 -225,1553 -1441,3004 -3893,4005 -6896,3555 -14568,5445 -22802,5895 -8234,439 -16019,552 -23467,327 -6671,0 -13128,-664 -19247,-2105 -6007,-1450 -10676,-5455 -14017,-12239 -1440,-2554 -2441,-5782 -2891,-9562 -439,-3790 -664,-7683 -776,-11463 -113,-3780 -113,-7559 112,-11339 225,-3893 225,-7346 0,-10687 0,-1440 -112,-4004 -337,-7560zm29698 240254c-664,6345 -888,12576 -664,18910 225,6345 1226,12464 2892,18584 2451,8448 5894,17234 10461,26245 4556,9011 10114,16571 16571,22690 4004,3668 8009,7233 12126,10564 4107,3340 8449,6569 13005,9572 3893,-2339 7795,-4669 11575,-7008 3780,-2227 7336,-5006 10564,-8234 7008,-6559 13240,-14456 18910,-23804 5670,-9338 9562,-18461 11789,-27359 1666,-5895 2554,-11789 2554,-17684l0 -18246c0,-5006 -214,-10012 -664,-14906 -439,-5006 -1777,-9787 -4229,-14343 -1328,-3116 -3004,-6457 -5221,-10012 -2114,-3565 -5118,-5895 -8785,-7008 -10462,-2115 -21250,-3453 -32600,-3893 -10227,-449 -19901,777 -29024,3780 -9123,2891 -16796,8786 -23140,17685 -2554,3780 -4117,7672 -4669,11789 -562,4117 -1001,8347 -1451,12678zm1002 -272394l224 0 -224 0zm224 0l338 0 -338 0zm338 0l664 -337c-225,225 -440,337 -664,337zm664 -337l337 0 -337 0z"/>
  <path id="16" class="fil1" d="M1135446 599598l0 -76744 19575 0 0 -337 9123 0 2002 664 327 0c2339,0 4005,112 4904,224 776,113 1440,113 1890,113 327,0 776,-113 1328,-450 562,-327 1563,-1001 3116,-1890 2114,-1001 3667,-2779 4669,-5333 899,-2451 1450,-5118 1450,-7795 0,-2778 -337,-5557 -1001,-8448 -664,-3004 -1114,-5456 -1338,-7346 -1001,-6109 -1666,-12116 -1778,-18123 -112,-6007 -337,-11790 -776,-17470l-2340 -30587c-776,-10227 -1665,-20463 -2554,-30700 -1113,-11227 -2227,-22465 -3228,-33703 -1114,-11115 -1778,-22353 -1890,-33703 0,-11452 -777,-22915 -2340,-34255 -1440,-11238 -2779,-22690 -3892,-34153 -777,-10226 -1778,-20238 -2891,-30137 -1114,-9900 -2227,-19912 -3229,-30148 -439,-3218 -551,-6334 -214,-9338 327,-2891 1113,-5568 2442,-7897 1338,-2452 3115,-4454 5343,-5895 2329,-1563 5006,-2339 8009,-2339 5221,225 10451,337 15682,337l15907 0c5894,214 11789,439 17796,552 6120,112 12014,-113 17909,-552 4781,-225 9787,-562 15120,-1001 5343,-337 10237,214 14691,2002 2779,1328 4781,3116 6109,5333 1226,2339 2115,4781 2452,7345 337,2667 337,5446 112,8449 -224,3116 -337,5895 -337,8572 0,5332 -112,10900 -439,16458 -337,5455 -787,11013 -1114,16356 -1113,10451 -1665,20902 -1665,31476 0,10564 -225,21127 -674,31813 -664,22578 -1553,45156 -2667,67733 -1225,22578 -2227,45381 -3340,68408 -664,10237 -1328,20575 -2115,30812 -776,10349 -1553,20688 -2442,31149 -562,6334 -1113,12341 -1563,18124 -439,5782 -1665,11901 -3555,18133 -1665,5445 -4117,10451 -7121,14906 -3003,4556 -6119,9010 -9337,13567 -3004,4566 -6120,9123 -9348,13679 -3228,4679 -7008,8572 -11340,11688 -5343,3218 -10686,5108 -16131,5782 -5343,664 -10901,889 -16796,664 -1226,0 -1675,0 -1226,0 450,0 1002,0 1778,112 776,113 1114,225 1226,225 112,112 -552,112 -2002,112l-12566 1216 -12576 2003 -8562 0 -888 337 -17685 0z"/>
  <path id="17" class="fil1" d="M1327756 237209c0,-10011 2339,-17347 7008,-22026 4791,-4668 10461,-7784 17357,-9450 6784,-1563 14129,-2227 21802,-1777 7784,439 14680,664 20687,664 2227,0 5446,0 9675,-113 4342,-112 8561,0 12903,450 4230,439 7897,1216 11013,2442 3116,1226 4557,3116 4342,5670 -674,9347 -787,18685 -449,27920 337,9236 449,18471 449,27809 215,10676 0,21362 -562,32150 -552,10788 -1226,21464 -1890,32140 -664,10564 -1338,21250 -2115,32038 -776,10788 -1226,21464 -1440,32140 -1114,33591 -1563,67080 -1451,100333 113,33254 889,66743 2452,100333l-1675 9450c-9450,2892 -18686,5783 -27809,8674 -9113,2891 -18348,5792 -27696,8684 -4893,1665 -9899,3105 -15007,4331 -5119,1226 -10125,562 -15018,-1777 -3678,-1553 -6232,-4117 -7683,-7673 -1553,-3565 -2329,-7457 -2554,-11677 -225,-4229 -112,-8571 225,-12903 439,-4342 664,-8122 889,-11462 225,-9450 551,-18910 1226,-28248 551,-9348 1001,-18798 1440,-28258 337,-9450 562,-18910 562,-28360 0,-9460 -337,-18910 -1113,-28473 -1564,-19359 -2667,-38596 -3229,-57731 -551,-19135 -889,-38372 -1226,-57957 -214,-19799 -439,-39373 -664,-58610 -225,-19359 -337,-38934 -449,-58733z"/>
  <path id="18" class="fil1" d="M1584805 344653c0,-2779 112,-5997 225,-9675 112,-3555 674,-6783 1563,-9562 1001,-2779 2779,-4781 5220,-6007 2565,-1226 6007,-1001 10574,449 8449,3331 16908,6559 25357,10002 8459,3341 16907,6457 25356,9235 3453,1339 7008,2667 10686,4230 3668,1553 7009,3330 10012,5445 3004,2002 5445,4679 7111,7897 1787,3341 2451,7233 2002,11790 -552,6007 -1553,12126 -3004,18246 -1440,6007 -2666,12014 -3892,17909 -2779,14129 -5220,28145 -7110,42152 -1901,14016 -3678,28258 -5231,42601 -450,3228 -889,6784 -1563,10574 -552,3780 -777,7447 -664,10901 112,3442 889,6783 2452,9787 1552,3003 4219,5332 7897,6783 2441,1114 5108,2003 7897,2442 2779,562 5782,1001 8898,1226 3106,225 6222,449 9225,674 3116,215 6120,327 9011,552 14241,1553 28146,2891 41937,4117 13680,1226 27696,2002 41825,2441 7111,225 14232,450 21465,675 7233,214 14241,551 21137,1001 4444,0 8673,112 12678,327 3893,225 8010,337 12229,337 1451,0 3565,112 6232,450 2779,326 4781,0 6232,-1114 1777,-1338 2778,-3678 2891,-7121 225,-3565 337,-6119 337,-7897 0,-29259 -1451,-58283 -4230,-86980 -2891,-28698 -5670,-57507 -8459,-86317 -214,-2666 -214,-5455 0,-8459 225,-3106 1002,-5782 2340,-8224 1001,-1890 2666,-3003 4894,-3116 2227,-112 4341,-337 6119,-776 6119,-1339 12239,-2452 18134,-3453 6007,-889 12004,-1441 18123,-1441 6007,215 11902,327 17684,215 5895,-113 11800,-327 17695,-552 5220,-225 10226,777 14793,2779 4669,2115 7223,6119 7560,12239 225,5670 -113,11227 -1114,16571 -1001,5445 -1777,10900 -2441,16345 -675,6457 -1339,13128 -2115,19912 -777,6681 -1563,13465 -2115,20136 -1778,14129 -3341,28258 -4567,42377 -1103,14128 -2441,28145 -3780,42049l-1215 16908c-450,5670 -1339,11228 -2677,16683 -2891,11340 -7785,21689 -14681,30924 -7008,9338 -13679,18798 -20350,28136 -5680,8009 -12352,13015 -19799,15355 -7458,2329 -15692,3892 -24590,4781 -8899,889 -17899,1553 -26910,2002 -9011,440 -17909,337 -26807,-337 -14905,-1113 -29699,-2002 -44604,-2666 -14793,-664 -29484,-1001 -44052,-1001l-24580 0c-8449,0 -16796,224 -25142,664 -3443,0 -7111,112 -10789,449 -3667,327 -7335,552 -10900,552 -3555,0 -7223,-327 -10901,-1001 -3667,-664 -6896,-1890 -9787,-3668 -3003,-1778 -5558,-4005 -7785,-6896 -2114,-2891 -4004,-5895 -5445,-9011 -1563,-3228 -3003,-6558 -4454,-10011 -1441,-3556 -2891,-6784 -4342,-9563 -3892,-8346 -7335,-16795 -10114,-25367l-8459 -25469c-2329,-6895 -4117,-14128 -5220,-21688 -1002,-7448 -1788,-15018 -2115,-22578 -337,-7673 -450,-15243 -450,-22690 0,-7458 -112,-14906 -337,-22364 -439,-14568 -664,-28911 -664,-43153 0,-14241 -112,-28585 -337,-43163zm81760 -103214c-562,-2115 -664,-4454 -450,-6784 113,-2452 675,-4791 1564,-7008 1001,-2339 1890,-4791 2891,-7345 4004,-10901 8561,-21465 13679,-31814 5119,-10338 9450,-21127 13016,-32364 1665,-6120 4229,-11677 7447,-16796 3229,-5118 6232,-10349 9123,-15794 1114,-2452 2115,-4894 3116,-7570 1001,-2554 2115,-5221 3341,-7785 1216,-2554 2666,-5006 4219,-7335 1563,-2227 3453,-4117 5895,-5343 2227,-1338 5006,-2442 8234,-3341 3228,-776 6457,-1440 9787,-1890 3341,-439 6671,-664 9900,-664l8346 0c6447,225 11790,1890 16019,5006 4220,3228 8224,6896 12229,11238 8459,9225 16131,18798 23140,28912 7008,10124 14905,19584 23803,28482 4444,4781 8337,9787 11902,15018 3555,5221 7009,10226 10451,15008 1226,1675 2677,3677 4342,5792 1666,2217 3004,4332 3893,6559 888,2227 1113,4342 664,6559 -327,2115 -2217,4005 -5333,5455 -4230,2227 -8572,4005 -13016,5445 -4454,1339 -8785,2779 -13240,4005 -4669,1114 -9337,2891 -13792,5456 -4556,2441 -9337,4004 -14129,4668 -4444,664 -8673,-224 -12453,-2778 -3892,-2452 -7458,-5670 -10676,-9461 -3228,-3780 -6119,-7784 -8786,-12014 -2677,-4219 -5118,-7897 -7345,-10900 -4005,-5221 -8122,-10227 -12352,-15008 -4219,-4791 -8786,-9235 -13894,-13353 -4903,-4331 -9235,-6783 -13127,-7233 -3893,-327 -7458,2789 -10462,9461 -2666,5894 -5445,11677 -8224,17347 -2789,5567 -5343,11462 -7785,17582 -1787,5220 -3340,10563 -4791,15906 -1440,5445 -3004,10901 -4669,16346 -1113,3453 -2666,6120 -4781,7785 -2115,1777 -4556,2779 -7233,3003 -2779,225 -5558,-224 -8449,-1226 -2891,-888 -5455,-2554 -7784,-4668 -2228,-2227 -3678,-4342 -4230,-6559zm194210 107556c0,225 112,337 224,337 102,0 102,112 102,327 0,-215 0,-327 -102,-327 -112,0 -224,-112 -224,-337zm0 0l0 -337 0 337zm326 3892l0 -1001 0 1001zm0 -1001l0 -889 0 889zm0 -889l0 -1001 0 1001zm0 -1001l0 -337 0 337z"/>
  <path id="19" class="fil1" d="M2006478 237209c0,-10011 2339,-17347 7008,-22026 4791,-4668 10461,-7784 17357,-9450 6784,-1563 14129,-2227 21802,-1777 7784,439 14680,664 20687,664 2227,0 5446,0 9675,-113 4342,-112 8561,0 12903,450 4230,439 7897,1216 11013,2442 3116,1226 4557,3116 4342,5670 -674,9347 -787,18685 -450,27920 338,9236 450,18471 450,27809 215,10676 0,21362 -562,32150 -552,10788 -1226,21464 -1890,32140 -664,10564 -1338,21250 -2115,32038 -776,10788 -1226,21464 -1440,32140 -1114,33591 -1563,67080 -1451,100333 113,33254 889,66743 2452,100333l-1675 9450c-9450,2892 -18686,5783 -27809,8674 -9113,2891 -18348,5792 -27696,8684 -4893,1665 -9899,3105 -15007,4331 -5119,1226 -10125,562 -15018,-1777 -3678,-1553 -6232,-4117 -7683,-7673 -1553,-3565 -2329,-7457 -2554,-11677 -225,-4229 -112,-8571 225,-12903 439,-4342 664,-8122 889,-11462 224,-9450 551,-18910 1226,-28248 551,-9348 1001,-18798 1440,-28258 337,-9450 562,-18910 562,-28360 0,-9460 -337,-18910 -1114,-28473 -1563,-19359 -2666,-38596 -3228,-57731 -552,-19135 -889,-38372 -1226,-57957 -214,-19799 -439,-39373 -664,-58610 -225,-19359 -337,-38934 -449,-58733z"/>
  <path id="20" class="fil1" d="M2179223 593591c-889,-11013 -776,-22353 225,-33928 1001,-11565 2002,-22915 3116,-34030 112,-2892 551,-5895 1113,-9011 552,-3116 1328,-6007 2442,-8572 1113,-2554 2666,-4781 4893,-6671 2115,-1890 4894,-3003 8122,-3443 5231,-674 10676,-674 16459,0 5782,665 11237,1114 16468,1329 6222,0 12566,0 18910,112 6222,112 12566,337 18910,776 4782,450 9787,1114 14896,1901 5230,776 10236,776 15242,102 3780,-664 6671,-2003 8786,-3893 2002,-2002 3453,-4331 4454,-7008 1001,-2779 1441,-5670 1441,-8786 0,-3218 -225,-6119 -664,-9010 -664,-5446 -1114,-10676 -1563,-15795 -440,-5108 -1216,-10012 -2217,-14793 -1114,-5670 -2340,-10900 -3678,-15794 -1441,-4893 -2329,-10124 -2779,-15569 -439,-6232 -1001,-12352 -1778,-18246 -664,-5783 -1890,-11678 -3340,-17572 -2330,-10237 -4669,-20351 -7009,-30475 -2329,-10012 -4444,-20463 -6109,-31037 -449,-2442 -1001,-5006 -1788,-7897 -776,-2779 -1103,-5670 -1103,-8449 0,-2779 552,-5343 1553,-7672 1113,-2227 3228,-3678 6456,-4342 4782,-1114 9788,-1451 15120,-1226 5344,337 10574,562 15468,562 11564,0 23017,214 34255,664 11237,439 22577,776 34254,1226l225 26133c-112,10237 -664,20136 -1440,29923 -787,9787 -1114,19799 -1114,30036 0,9337 0,18460 113,27359 112,8898 214,18021 214,27359 450,10686 337,21137 -214,31598 -450,10451 -562,21015 -113,31589l0 14455c3668,4894 7121,9236 10124,13016 3004,3780 7223,5670 12679,5670l6558 -337 0 75753 -6895 0c-4557,0 -8449,-1114 -11678,-3229 -3340,-2114 -6119,-4781 -8673,-8009 -2452,-3218 -4792,-6896 -6681,-11013 -2003,-4107 -3780,-8337 -5221,-12791 -1788,2452 -3565,4894 -5455,7346 -1890,2441 -3668,5006 -5446,7672 -5894,8459 -13127,15682 -21801,21689 -4117,2677 -8571,4567 -13240,5782 -4669,1114 -9348,1900 -14129,2227 -4781,450 -9562,777 -14456,889 -4894,113 -9562,337 -14017,787 -10675,1103 -21351,1328 -32140,776 -10798,-562 -21586,-776 -32487,-776 -3892,0 -8337,102 -13342,327 -5006,225 -9788,-113 -14467,-777 -4668,-776 -8673,-2339 -12004,-4668 -3453,-2340 -5230,-6457 -5455,-12239z"/>
  <path id="21" class="fil1" d="M2415584 599822l0 -73525 13353 0 1001 0c2442,0 4669,112 6896,337 2115,214 4230,327 6120,327l57721 1563c12791,439 25694,889 38709,1226 13128,327 26256,1001 39486,2104 5006,450 10124,899 15355,1451 5118,552 10451,664 15906,225 4781,-225 9675,-562 14568,-1002 4782,-449 9900,-561 15131,-337 5557,0 11340,225 17132,664 5670,450 11565,899 17347,1339 3341,224 6559,449 10012,664 3341,225 6671,-215 9900,-1328 888,-225 2114,-450 3779,-777 1564,-337 2892,-674 4005,-1001 1114,-337 1778,-787 2115,-1451 337,-664 -225,-1553 -1778,-2666 -2339,-2115 -4893,-4230 -7682,-6120 -2667,-2002 -5445,-4004 -8224,-5894 -18686,-12791 -36595,-26695 -53615,-41601 -17132,-14793 -34367,-29586 -52051,-44164 -11902,-9787 -23365,-19799 -34490,-30138 -11115,-10236 -22578,-20463 -34592,-30475 -6007,-5006 -12116,-9899 -18348,-14905 -6232,-5006 -12464,-10124 -18798,-15355 -3453,-2779 -7233,-5558 -11350,-8122 -4117,-2666 -7672,-5782 -10451,-9450 -3004,-3341 -4567,-6344 -4567,-9348 0,-2891 1001,-5557 2901,-8009 1993,-2329 4557,-4669 7673,-6784 3218,-2217 6446,-4219 10012,-6007 3443,-1890 6896,-3443 10226,-4893 3341,-1441 6007,-2779 8010,-4117 9572,-6222 18797,-12791 27808,-19350 9011,-6671 18358,-13342 27921,-20024 5557,-3555 11238,-5557 16795,-6007 5445,-551 10676,2227 15457,8235 3004,3892 6120,7897 9460,11789 3229,3892 6334,8009 9450,12351 6457,8449 12903,17010 19360,25582 6446,8561 12678,17347 18685,26245 13128,18471 26583,36267 40487,53390 13904,17245 28473,33928 43603,50171 7897,8122 15345,16459 22465,25132l21577 26031c3678,4556 7345,9123 10900,13567 3566,4454 7346,8898 11238,13240 4117,5006 5783,10349 4894,16244 -889,5895 -3004,11115 -6559,15682 -3004,4331 -5895,8561 -8786,12790 -2789,4230 -5792,8449 -8786,12791 -2789,4557 -5905,9236 -9123,14129 -3228,4894 -7008,8898 -11350,12229 -3780,2779 -7335,4454 -11013,5118 -3555,664 -7223,889 -10901,664 -3667,-214 -7447,-439 -11227,-776 -3791,-327 -7785,-439 -11902,-225 -10237,450 -20249,1001 -30148,1563 -9900,439 -19911,552 -30138,113 -19135,-450 -38157,-338 -57292,112 -19125,552 -39373,889 -60613,889 -9787,224 -19472,439 -28922,776 -9460,337 -18910,664 -28472,1114l-36819 4004 -9461 0z"/>
  <path id="22" class="fil1" d="M2822474 147338c0,-2891 -112,-5680 -337,-8347 -224,-2666 -112,-5118 337,-7335 225,-2564 2003,-4230 5446,-4792 3453,-551 6456,-1103 9010,-1440 -2891,-225 -4781,-664 -5670,-1338 -1001,-777 -1563,-1890 -1665,-3331 -225,-1563 -562,-3116 -1001,-5006 -337,-1788 -562,-3116 -562,-4004 -439,-4455 -1001,-9461 -1778,-15018 -776,-5568 -1113,-11013 -1113,-16244 -664,-3443 -1001,-6334 -1001,-8898 0,-2554 551,-4557 1450,-6007 1002,-1553 2779,-2667 5221,-3443 2564,-777 6119,-1339 10900,-1563 6457,-440 12903,-889 19248,-1553 6446,-664 13015,-1338 19686,-2003 1226,0 3780,-337 7673,-1001 3892,-664 7784,-1226 11902,-1553 4004,-449 7672,-449 10900,0 3228,327 4781,1666 4781,3893l-551 1001 0 -337 551 -664c-112,1103 -112,2329 225,3892 337,1553 562,3004 777,4219 224,1339 224,2565 -113,3791 -327,1215 -1216,2002 -2779,2441 -3003,1563 -6558,2340 -10563,2340l-10901 0c-6896,327 -13792,551 -20800,664 -6896,112 -13904,225 -21025,449 -2115,0 -3555,1002 -4229,3004 -664,2002 -889,4444 -777,7223 113,2779 450,6456 1001,11013 562,4454 889,7008 1114,7458l0 1328c0,562 225,2339 562,5343 327,3003 889,4893 1553,5782 664,889 2227,1563 4556,1890 1890,450 4791,0 8684,-1440 4005,-1451 13342,-2677 28023,-3678 14680,-1001 16683,-664 6007,1113 -10564,1778 -15457,2677 -14568,2452 7233,-1226 14343,-2339 21249,-3565 6784,-1114 13792,-1890 21015,-2329 450,-450 776,0 1001,1440 337,1451 450,3341 562,5680 215,2442 215,4996 327,7673 0,2778 112,5220 112,7335 450,3116 675,5895 777,8571 112,2554 0,5445 -439,8449 551,1338 1890,2227 4117,2779 2227,562 2666,889 1328,1113 -1441,225 -1553,337 -664,337 1001,0 1890,-224 2564,-664 -11350,889 -19809,1553 -25367,2003 -5670,439 -6896,1215 -3892,2554 -15794,2441 -26583,4117 -32253,5006 -5680,889 -11575,1777 -17796,2441 -2340,338 -5006,899 -8122,1451 -3116,552 -6007,1114 -8674,1553 -2676,337 -5792,112 -9123,-664 -3340,-889 -5670,-2891 -6896,-6344 0,-1778 0,-4107 0,-6896 0,-2667 0,-5445 0,-8224zm327 86980c0,-9348 2227,-16243 6682,-20575 4444,-4342 9899,-7233 16346,-8572 6456,-1440 13352,-2002 20575,-1665 7345,337 13792,450 19687,450 2114,0 5343,0 9797,-113 4332,-112 8673,0 12903,440 4219,449 7897,1226 11003,2452 3116,1226 4566,3003 4342,5445 -664,8673 -1002,17245 -889,25806 112,8673 112,17245 112,25918 225,10012 113,20024 -225,29811 -439,9900 -888,19799 -1552,29699 -675,9899 -1339,19798 -2003,29810 -674,10012 -1113,20126 -1338,30363 -889,31476 -1226,62737 -1114,93662 113,30914 777,62063 2115,93314l-1451 8459c-9113,2891 -18348,5670 -27696,8561 -9225,2779 -18460,5456 -27583,8122 -4557,1553 -9450,2779 -14569,3893 -5118,1113 -10012,551 -14793,-1666 -3555,-1450 -6119,-3892 -7560,-7120 -1450,-3229 -2339,-6896 -2676,-10901 -327,-4005 -327,-8122 -113,-12239 225,-4117 337,-7560 450,-10451 112,-9123 337,-18021 664,-26695 337,-8673 562,-17357 776,-26031 225,-8786 337,-17459 337,-26245 113,-8796 0,-17695 -337,-26593 -991,-18011 -1665,-36032 -1890,-53941 -214,-17909 -327,-35931 -214,-53952 0,-18236 112,-36369 112,-54605 102,-18134 102,-36380 102,-54841zm93100 -175963l0 -337 0 337z"/>
  <path id="23" class="fil1" d="M3091313 474020c-1778,-14353 -3228,-28370 -4342,-42162 -1001,-13792 -327,-27910 2003,-42264 1113,-7335 2227,-14681 3453,-22139 1226,-7335 2441,-14793 3555,-22128 449,-2452 776,-5343 1113,-8786 338,-3453 1002,-6896 2003,-10124 1001,-3228 2452,-6007 4454,-8122 2002,-2227 4669,-3116 7999,-3003 5006,224 10349,1890 15907,4893 5455,3116 10574,5343 15242,6896 6008,2115 11902,4230 17685,6007 5894,1890 11564,3893 17132,6007 5119,1778 9900,3453 14456,4894 4679,1563 9348,3453 14129,5568 2779,1103 5445,2217 7897,3218 2452,1113 4557,2452 6120,4117 1665,1665 2666,3668 3116,6007 439,2452 112,5455 -1002,9123 -5118,15682 -10461,31476 -16019,47495 -5455,15907 -9235,32038 -11125,48384 -664,6446 -1114,12903 -1338,19349 -215,6345 -552,12903 -1001,19360 -440,5006 449,8898 2564,11789 2227,2779 5006,4782 8336,6008 3341,1226 7233,1777 11575,1777l11790 0c10675,0 21239,-439 31588,-1440 10451,-1001 21137,-1451 32038,-1451 8898,225 17797,664 26695,1553 8898,899 17796,1338 26807,1338 3331,0 7223,0 11790,113 4444,112 8898,0 13117,-552 4342,-562 8234,-1788 11800,-3678 3555,-1778 6109,-4781 7560,-8898 1001,-2667 1665,-5670 1777,-9338 113,-3565 0,-7120 -337,-10676 -327,-3678 -776,-7233 -1440,-10798 -664,-3555 -1001,-6896 -1226,-9900 -1665,-17909 -3443,-35480 -5333,-52940 -1900,-17572 -3341,-35266 -4454,-53390 -225,-3892 -664,-8898 -1226,-14905 -664,-6120 -777,-12127 -327,-17909 439,-5895 1665,-11125 3892,-15682 2115,-4566 6007,-7233 11565,-8122 11452,-2002 23242,-2554 35368,-1777 12239,664 23916,1665 35154,2666 3668,450 7223,1001 10788,1553 3556,562 7234,1001 10901,1451l-4893 67406c-1114,13904 -2340,27921 -3678,42040 -1216,14129 -2105,28145 -2554,42049 -225,6559 -225,12903 -113,19248 113,6334 113,12453 113,18573l0 3228c224,4107 1450,8224 3780,12229 2227,4004 6232,6007 11902,6007l13679 -337 0 75640 -13679 0c-5221,-224 -9450,-1665 -12566,-4342 -3116,-2666 -5783,-5996 -7785,-10226 -2115,-4229 -3678,-8898 -4567,-13904 -1001,-5006 -2104,-9787 -3105,-14466 -225,-1104 -450,-2105 -675,-2994 -224,-899 -327,-1900 -327,-3003 -2789,5557 -5567,11565 -8121,18011 -2565,6457 -5895,11902 -10012,16356 -3668,4005 -7897,6784 -12791,8449 -4781,1675 -9899,2779 -15243,3228 -5445,450 -10900,552 -16345,337 -5456,-225 -10462,-337 -15018,-337 -14242,225 -28697,112 -43490,-225 -14681,-327 -29372,-112 -43940,562 -15018,664 -29699,1328 -44155,1890 -14353,664 -28922,552 -43827,-225 -8009,-664 -16131,-1113 -24468,-1338 -8234,-214 -16243,-1113 -24028,-2666 -4454,-889 -9123,-1001 -14241,-337 -2442,674 -4782,1338 -7111,2002 -2339,674 -4679,225 -7121,-1328 -2227,-1338 -4229,-3453 -5894,-6232 -1563,-2779 -3004,-5782 -4230,-9011 -1226,-3228 -2339,-6446 -3228,-9674 -889,-3229 -1665,-6007 -2554,-8459 -4894,-14681 -9348,-29137 -13353,-43491 -3892,-14343 -6783,-29024 -8561,-44042zm169180 190982c-225,-1553 -225,-2003 -112,-1666 112,440 112,1002 112,1666 -439,-3229 225,-5783 1778,-7785 1563,-1890 3677,-3453 6119,-4669 2452,-1113 5118,-2115 8010,-2677 2891,-664 5455,-1225 7784,-1665 6007,-1226 12015,-2452 18022,-3340 5894,-1002 11901,-2003 17909,-3116 3442,-664 6007,-215 7897,1113 1777,1451 3116,3228 4004,5568 777,2217 1329,4669 1441,7223 112,2564 449,5006 1001,7458 562,5782 1676,11564 3566,17347 1777,5782 3003,11789 3555,18133 225,3453 -225,6232 -1441,8235 -1113,2114 -2789,3780 -4893,4893 -2115,1226 -4567,2003 -7346,2442 -2778,449 -5670,787 -8786,1001 -5894,889 -11901,2115 -17796,3566 -5783,1552 -11790,2666 -17684,3330 -5006,562 -8899,112 -11790,-1553 -2891,-1563 -5118,-4005 -6896,-7233 -1675,-3330 -2789,-7008 -3340,-11340 -552,-4229 -777,-8571 -777,-13128l0 -12678c0,-4229 -112,-7897 -337,-11125z"/>
  <path id="24" class="fil1" d="M3501084 599598l0 -70747 13230 0 20361 2339c5006,-2002 8561,-5670 10451,-10901 1338,-3340 1778,-6783 1338,-10451 -449,-3565 -889,-7120 -1338,-10686 -889,-8561 -1778,-17010 -2667,-25356 -888,-8347 -2114,-16908 -3667,-25469 -2677,-15355 -5231,-30588 -7683,-45830 -2441,-15130 -4781,-30587 -7008,-46157 -439,-1788 -776,-3892 -1103,-6232 -337,-2451 -562,-4893 -562,-7457 0,-2554 337,-4894 889,-7111 561,-2227 1450,-4117 2564,-5568 2104,-2217 3667,-4331 4669,-6446 1001,-2115 2114,-4005 3116,-5670 1113,-1563 2554,-3116 4219,-4454 1675,-1339 4117,-2227 7121,-2892 9010,-1552 18583,-1777 28809,-551 10124,1216 19911,2217 29147,3106 4117,449 8336,888 12791,1225 4444,338 8336,2228 11564,5783 2565,2564 4117,5568 4669,8898 562,3228 562,6682 112,10237 -2554,29698 -5445,59397 -8673,88983 -3228,29698 -4894,59396 -4894,89095 0,6457 113,12791 337,19022 215,6345 113,12566 -337,18798 -449,6120 -1665,11453 -3555,16132 -1890,4781 -5343,9112 -10349,13342 -3443,3116 -7672,5118 -12678,6119 -5118,889 -9900,1553 -14681,2003 -6681,889 -13240,1665 -19686,2339 -6457,777 -12903,1441 -19585,2003 -2666,0 -4893,214 -6671,551 -1890,337 -4005,552 -6334,889 -2227,337 -5343,562 -9011,777 -3790,224 -8683,337 -14905,337zm16683 -398206c-225,-2442 -112,-5006 439,-7673 562,-2666 1451,-5343 2677,-7785 1113,-2564 2779,-4679 4893,-6569 2003,-1777 4557,-2891 7560,-3105l7785 0c3116,0 6232,102 9460,214 3218,113 6222,450 8899,1114 2778,674 5118,1675 7008,2891 4781,3892 7448,8786 8112,14681 674,5894 1226,11462 1675,16693 225,3003 776,7785 1553,14343 889,6457 1338,13016 1338,19687 0,6671 -889,12351 -2564,17132 -1778,4782 -5108,6784 -10114,5895 -3228,-449 -6120,-776 -8898,-889 -2677,-112 -5568,-337 -8572,-776 -2554,-225 -5445,-112 -8561,215 -3228,337 -6007,-103 -8346,-1216 -2779,-1226 -4894,-3116 -6335,-5343 -1450,-2340 -2564,-4781 -3453,-7560 -888,-2677 -1440,-5456 -1665,-8234 -225,-2892 -449,-5446 -562,-7898 -664,-6007 -1215,-12014 -1553,-17909 -337,-5894 -551,-11789 -776,-17908zm65731 -6896c449,-6120 2339,-10012 5568,-11678 3228,-1777 7784,-2339 13567,-1665 5670,440 11462,440 17572,0 2114,-224 4679,-562 7682,-1001 3106,-449 5783,-112 8112,1001 2452,1328 4117,3218 5006,5670 1001,2554 1563,5119 1675,7673 113,2666 -112,5455 -449,8346 -440,2891 -777,5333 -1002,7335 -439,4567 -664,10125 -664,16796 0,6681 -337,12903 -1113,18910 -777,6007 -2340,11013 -4557,15130 -2227,4230 -6119,6007 -11462,5558 -2227,0 -4894,224 -8122,562 -3218,327 -6446,551 -9562,664 -3116,112 -6120,0 -9123,-337 -2892,-327 -5119,-1441 -6559,-3106 -1778,-2227 -3004,-4679 -3780,-7346 -787,-2778 -1114,-5670 -1114,-8673 0,-3004 113,-6007 327,-9011 225,-2891 337,-5568 337,-7897 0,-6119 -551,-12239 -1440,-18358 -1001,-6008 -1338,-12229 -899,-18573zm16244 118242l337 0 -337 0zm1001 0c449,214 889,327 1338,327 -449,0 -889,-113 -1338,-327zm1553 327l674 0 -674 0z"/>
  <path id="25" class="fil1" d="M3624659 668669c664,675 2002,113 4005,-1777 2114,-1778 3442,-3004 4117,-3443 2217,-1114 4444,-1788 6671,-2227 2339,-450 4669,-1114 7008,-2003 4781,-1113 9563,-2227 14344,-3340 4791,-1226 9685,-2442 14691,-3780 7999,-2340 15794,-5231 23354,-8562 7447,-3340 14905,-7008 22251,-10900 18685,-9787 33478,-22803 44266,-38934 10676,-16244 18236,-34592 22578,-54953 1778,-7785 2002,-15794 889,-23906 -1226,-8234 -2115,-16243 -2779,-24365 -1114,-12127 -2564,-24131 -4229,-36145 -1778,-11902 -3331,-24029 -4557,-36155 -674,-9563 -1675,-19125 -3116,-28810 -1451,-9675 -2227,-19349 -2452,-28912 0,-3228 -102,-6681 -439,-10349 -337,-3780 -225,-7233 337,-10451 439,-3228 1778,-6007 3668,-8122 2002,-2227 5445,-3340 10451,-3340l1001 0 -1001 0c10237,-225 20361,-664 30587,-1441 10237,-786 20473,-1226 30924,-1450 3668,0 8235,-113 13680,-225 5455,-113 10574,449 15467,1675 4894,1216 9011,3106 12341,5895 3341,2666 4894,6896 4455,12566 -889,7335 -1339,14568 -1339,21801 0,7121 -439,14344 -1338,21464 -1001,12239 -2666,24366 -4669,36482 -2115,12239 -4005,24366 -5670,36595 -2002,14905 -3892,29923 -5568,44716 -1777,14905 -3780,29811 -6221,44828 -675,5006 -1114,10012 -1451,14906 -327,4781 -664,9675 -1113,14568 -440,4894 -1114,9787 -2003,14568 -889,4792 -2217,9348 -4219,13690 -4567,11677 -9787,23242 -15580,34480 -5895,11340 -12566,22026 -19911,32252 -7448,10237 -15457,19799 -24243,28810 -8786,9010 -18573,17020 -29249,24028 -8234,5343 -16693,10564 -25367,15570 -8673,5006 -17020,10349 -25132,16019 -5006,3667 -10461,6446 -16356,8561 -5894,2002 -11789,3892 -17459,5895 -3453,899 -6784,1225 -9900,1001 -3228,-215 -6569,-102 -10011,337 -5006,449 -9011,-1001 -12015,-4117 -3116,-3116 -5455,-7121 -7233,-11790 -1777,-4669 -3116,-9562 -4229,-14680 -1104,-5119 -2105,-9348 -2891,-12903 -1778,-6232 -3106,-12454 -4005,-18686 -777,-6232 -2003,-12351 -3555,-18460 -225,-1114 -664,-1901 -1339,-2452 -551,-552 -1103,-1339 -1553,-2452 -449,-1778 -776,-3443 -1001,-5221 -225,-1777 -551,-3565 -1001,-5567 -225,-1329 -449,-3116 -664,-5558 -225,-2340 -889,-4117 -2227,-5231zm162059 -340474l2891 0 -2891 0zm3228 0l338 0 -338 0z"/>
 </g>
</svg>
