<?xml version="1.0" encoding="UTF-8"?>
<!DOCTYPE svg PUBLIC "-//W3C//DTD SVG 1.1//EN" "http://www.w3.org/Graphics/SVG/1.1/DTD/svg11.dtd">
<!-- Creator: CorelDRAW X7 -->
<svg xmlns="http://www.w3.org/2000/svg" xml:space="preserve" width="22.764mm" height="4.5765mm" version="1.1" style="shape-rendering:geometricPrecision; text-rendering:geometricPrecision; image-rendering:optimizeQuality; fill-rule:evenodd; clip-rule:evenodd"
viewBox="0 0 2960329 595148"
 xmlns:xlink="http://www.w3.org/1999/xlink">
 <defs>
  <style type="text/css">
   <![CDATA[
    .fil0 {fill:#990000;fill-rule:nonzero}
   ]]>
  </style>
 </defs>
 <g id="Layer_x0020_1">
  <metadata id="CorelCorpID_0Corel-Layer"/>
  <path class="fil0" d="M16165 165390c-10781,-1144 -16165,-7113 -16165,-17894 0,-6190 2289,-12263 6762,-18115 2861,2978 6307,4357 10092,4357l19493 0c-6996,-9182 -10429,-19611 -10429,-31536 0,-14799 5501,-26724 16515,-35905 10898,-9064 25463,-13538 43578,-13538 17556,0 30392,4369 38649,13199 4708,4695 6776,11470 6087,20417 -924,10092 -6425,15138 -16399,15138 -8830,0 -15605,-1834 -20534,-5397 1951,0 3550,-1262 4708,-3667 1144,-2640 1261,-5970 338,-9754l0 -338c-4240,-1378 -8141,-1951 -11808,-1951 -7569,0 -13772,2406 -18467,7335 -4707,4942 -6996,11249 -6996,18817 0,15476 7686,24540 23161,27180l37960 0c11587,689 17439,5045 17439,13186 0,9636 -2289,17322 -6997,23174 -2757,-2757 -6190,-4252 -10442,-4708 -2744,234 -38181,351 -106545,351l0 -351zm427455 143140c7114,31315 3446,60094 -11119,86363 -13420,24201 -34747,43695 -63890,58494 -28896,14447 -60900,22250 -96103,23160 -36933,807 -75699,-7451 -116182,-24877 -41068,-17673 -72486,-39924 -94399,-66531 -24422,-30508 -36698,-69274 -36698,-116298 0,-35554 11235,-53449 33603,-53449 11470,0 27530,5397 48403,16178 -9182,14110 -12966,26607 -11470,37622 5383,40717 23850,72825 55164,96116 29130,21444 63657,31769 103451,30846 37622,-806 65724,-11470 84073,-31887 19039,-21210 20755,-46907 5384,-76960 -17088,-22134 -42199,-33252 -75347,-33252 -15593,0 -30054,3212 -43357,9402 -12498,-16971 -18805,-30170 -18805,-39573 0,-44384 17543,-80861 52408,-109302 34293,-27751 77429,-41627 129381,-41627 41289,0 61810,11470 61810,34293 0,11235 -5839,27062 -17777,47713 -15475,-7569 -32225,-11470 -50340,-11470 -21106,0 -40951,5046 -59534,15137 -19039,10092 -31874,22823 -38649,38311 42329,2289 77987,13759 106896,34631 18115,12731 31887,27413 41289,44046l11808 32914z"/>
  <path id="1" class="fil0" d="M649610 265173c0,80628 235,127886 690,141762 -2068,79366 -8258,129147 -18805,149564 -7230,14097 -18128,24201 -32927,30274 -14097,5501 -34293,8375 -60549,8375 -16749,0 -31197,-4357 -43356,-13083 -12042,-8596 -18129,-18570 -18129,-29923 0,-11704 5969,-25462 17895,-41289 8947,8258 18921,12380 29819,12380 14799,0 25462,-6073 32004,-18115 6190,-12393 9402,-32576 9402,-60561 0,-9403 -221,-21913 -689,-37622l0 -25112c0,-14227 -456,-41757 -1379,-82695l-1716 -76960c0,-12966 3784,-23395 11131,-31315 7686,-8024 17660,-12042 30275,-12042 23512,0 42433,7113 56777,21444 -6996,11015 -10443,32693 -10443,64918z"/>
  <path id="2" class="fil0" d="M777613 465429c-45190,0 -67792,-24774 -67792,-74204 0,-75360 0,-139693 234,-193259l-1612 -156898c0,-12614 3680,-22602 11014,-29936 7452,-7335 17556,-11132 30288,-11132 22016,0 40938,6320 56764,18817 -6645,11015 -10092,32798 -10092,65257l-572 267462c0,14799 1951,25345 5969,31549 4006,6528 11119,9740 21211,9740l72941 0 0 72604 -118353 0z"/>
  <path id="3" class="fil0" d="M1037390 133738c-10781,0 -19390,-3213 -25931,-9754 -6763,-6424 -10092,-14903 -10092,-25462 0,-11691 4136,-21562 12511,-29586 8023,-8023 18115,-12159 30157,-12159 10781,0 19728,3329 26958,9754 6879,6762 10326,15137 10326,25228 0,11925 -4136,21913 -12394,29936 -8492,8024 -19038,12043 -31535,12043zm101044 0c-10677,0 -19390,-3213 -26152,-9754 -6775,-6424 -10091,-14903 -10091,-25462 0,-11691 4122,-21562 12497,-29586 8258,-8023 18466,-12159 30508,-12159 10781,0 19728,3329 26842,9754 6996,6762 10429,15137 10429,25228 0,11925 -4239,21913 -12731,29936 -8479,8024 -18922,12043 -31302,12043zm75010 331691c-19039,0 -32693,-6542 -41068,-19494 -11587,12952 -28675,19494 -51030,19494l-245328 0 0 -72604 81654 0c-11808,-19728 -17777,-39794 -17777,-60445 0,-46556 18129,-85101 54476,-115609 38077,-31536 87052,-46101 147158,-43695 21679,0 40483,6307 56426,18804 -6879,11015 -10442,32577 -10442,64919l1040 90731c221,677 338,1834 338,3668 0,12042 2874,22133 8726,30274 5384,7348 11457,11132 18115,11353l39001 0 0 72604 -41289 0zm-137405 -72604c10429,0 17660,-2289 21444,-6996 3784,-4929 5735,-14331 5735,-28207l-2978 -113321c-22029,5397 -40951,16516 -56894,33266 -16282,17087 -24423,34982 -24423,53786 0,21561 4474,37050 13421,46686 8947,9857 23512,14786 43695,14786z"/>
  <path id="4" class="fil0" d="M1297166 392825c10092,0 17088,-3212 21106,-9740 4006,-6204 6073,-16750 6073,-31549l-1716 -158277c-806,-85322 -1262,-136026 -1262,-151853 0,-12380 3668,-22250 11002,-29585 7465,-7452 17556,-11132 30288,-11132 22133,0 41055,6203 56764,18467 -6645,11014 -10092,32693 -10092,65269l1041 306449c0,49664 -22602,74555 -67909,74555l-101149 0 0 -72604 55854 0z"/>
  <path id="5" class="fil0" d="M1555447 84074c0,13875 807,70887 2406,171008l1951 169058c0,12497 -3668,22484 -11002,29819 -7465,7451 -17556,11132 -30287,11132 -21900,0 -40834,-6321 -56765,-18818 6763,-11236 10092,-32914 10092,-65139l-2068 -171125c-1495,-100122 -2302,-156444 -2302,-168941 0,-12614 3680,-22602 11015,-29936 7452,-7335 17660,-11132 30625,-11132 21900,0 40834,6320 56427,18817 -6646,11015 -10092,32798 -10092,65257z"/>
  <path id="6" class="fil0" d="M1890467 132814c-10780,0 -19493,-3316 -26269,-9740 -6645,-6541 -10091,-15033 -10091,-25580 0,-11704 4135,-21561 12497,-29585 8492,-8258 18701,-12393 30509,-12393 11014,0 19962,3329 26958,10091 7113,6659 10664,15033 10664,25125 0,11925 -4123,21899 -12381,29936 -8492,8024 -19155,12146 -31887,12146zm101500 0c-10781,0 -19494,-3316 -26269,-9740 -6762,-6541 -10091,-15033 -10091,-25580 0,-11704 4135,-21561 12393,-29585 8596,-8258 18804,-12393 30625,-12393 11002,0 19949,3446 26828,10442 7231,6425 10781,14682 10781,24774 0,11925 -4239,21899 -12718,29936 -8492,8024 -19052,12146 -31549,12146zm159890 62747c-6776,11001 -10105,32797 -10105,65256 0,20183 117,42902 351,68130l689 62499c0,49326 -22601,73983 -67896,73983l-180072 0c-54476,0 -92904,-7803 -115271,-23512 -22134,-15489 -34397,-41979 -36582,-79600 -2289,-35893 4812,-67441 21106,-94842 15020,-25697 33032,-38662 54138,-38662 14097,0 25801,11015 35203,33031 -13642,5280 -23278,16750 -28896,34189 -5280,16854 -5618,34982 -923,54475 3784,15476 11235,26491 22484,32915 10781,6307 26945,9402 48741,9402l134765 0c10091,0 17088,-3212 21106,-9740 4005,-6204 6073,-17101 6073,-32577 0,-4928 -572,-28102 -1716,-69508l-1613 -63189c0,-12614 3680,-22484 11015,-29936 7451,-7347 17660,-11132 30625,-11132 21900,0 40834,6307 56778,18818z"/>
  <path id="7" class="fil0" d="M2424026 465429c-234,31769 -3095,54475 -8726,67896 -17426,40951 -51835,61472 -103099,61472 -16867,0 -31314,-4240 -43357,-12732 -12159,-8596 -18128,-18570 -18128,-29923 0,-11938 5969,-25697 18128,-41289 9169,8479 19039,12718 29586,12718 15826,0 27075,-6762 33603,-20182 3784,-8258 6086,-21107 6996,-38298l-8362 0c-65269,-1379 -110914,-21913 -137066,-61824 -11925,-18583 -17894,-39221 -17894,-61823 0,-22822 4824,-45645 14461,-68234 10091,-23980 23512,-42563 40365,-55750 36010,-29819 84880,-43461 146469,-41055 22017,0 40821,5852 56427,17543 -6880,10326 -10326,30391 -10326,60445 0,9181 117,29936 572,62161 0,8492 117,17205 351,25918 221,18817 338,35567 338,50353l90381 0 0 72604 -90719 0zm-169291 -124674c0,17894 7113,31315 21444,40379 15254,8024 36360,11925 63201,11691l-689 -154831c-20417,4708 -39572,18232 -57466,40600 -17660,22134 -26490,42902 -26490,62161z"/>
  <path id="8" class="fil0" d="M2909976 209085c33603,29481 50353,70536 50353,122957 0,38532 -17088,70419 -51380,95765 -34072,25124 -76505,37622 -127314,37622l-279959 0 0 -72604 63539 0c0,-15709 -468,-42668 -1378,-80966l-1613 -69847c0,-12393 3681,-22146 11015,-29246 7452,-7465 17543,-11132 30275,-11132 22250,0 41185,6190 56777,18466 -4240,6541 -7335,22940 -9402,49092 11925,-20872 27179,-39222 46100,-55061 21913,-17998 44970,-29234 69158,-33942 24669,-4928 50808,-4707 78690,690 28206,5501 49885,14903 65139,28206zm-45412 128003c2744,-21796 -6775,-40262 -28570,-55516 -21210,-14903 -44384,-20066 -69496,-15358 -24435,4694 -48402,20521 -71914,47700 -19962,22602 -34631,46231 -44046,70887l0 8024 97143 0c73293,0 112176,-18583 116883,-55737z"/>
 </g>
</svg>
