<?xml version="1.0" encoding="UTF-8"?>
<!DOCTYPE svg PUBLIC "-//W3C//DTD SVG 1.1//EN" "http://www.w3.org/Graphics/SVG/1.1/DTD/svg11.dtd">
<!-- Creator: CorelDRAW X7 -->
<svg xmlns="http://www.w3.org/2000/svg" xml:space="preserve" width="21.3017mm" height="4.5738mm" version="1.1" style="shape-rendering:geometricPrecision; text-rendering:geometricPrecision; image-rendering:optimizeQuality; fill-rule:evenodd; clip-rule:evenodd"
viewBox="0 0 3112182 668233"
 xmlns:xlink="http://www.w3.org/1999/xlink">
 <defs>
  <style type="text/css">
   <![CDATA[
    .fil0 {fill:#990000;fill-rule:nonzero}
   ]]>
  </style>
 </defs>
 <g id="Layer_x0020_1">
  <metadata id="CorelCorpID_0Corel-Layer"/>
  <path class="fil0" d="M585511 522893c-50770,0 -76279,-27964 -76279,-83760 0,-11848 395,-31440 1154,-58498l-379 -60822c0,-11337 -3609,-19314 -10958,-23829 -6954,-4514 -18935,-6837 -35809,-6837l-1549 0c12360,92394 -12506,160944 -74745,205402 -58367,41741 -127823,50244 -208353,25378 -60939,-19198 -105134,-44064 -132849,-74862 -30535,-33632 -45744,-79625 -45744,-137743 0,-47030 12886,-70610 38527,-70610 13412,0 31440,7348 54378,21900 -10052,17912 -14303,34275 -12886,49090 5026,43815 23844,78602 56307,104637 29644,23580 63919,34918 102709,33880 38775,-774 70084,-13777 93927,-39169 27453,-28212 38790,-66490 34012,-114806l-28343 775c-14040,0 -25261,-4252 -33632,-12886 -8240,-8241 -12360,-19593 -12360,-33881 0,-16626 7086,-33895 21126,-51807 12623,7597 37109,11337 73576,11337 20615,0 42909,-131 66870,-380l59916 -774c55927,0 83890,25509 83890,76659l380 114046c0,17780 1680,29629 4895,35429 3228,6574 10183,10051 20746,10563l37752 0 0 81568 -76279 0z"/>
  <path id="1" class="fil0" d="M820805 150249c-12111,0 -21783,-3608 -29132,-10957 -7597,-7217 -11337,-16743 -11337,-28606 0,-13135 4646,-24224 14055,-33238 9014,-9015 20351,-13661 33880,-13661 12112,0 22164,3741 30287,10958 7728,7597 11600,17006 11600,28343 0,13398 -4646,24618 -13923,33633 -9541,9014 -21389,13528 -35430,13528zm113520 0c-11994,0 -21783,-3608 -29380,-10957 -7612,-7217 -11338,-16743 -11338,-28606 0,-13135 4632,-24224 14040,-33238 9278,-9015 20747,-13661 34276,-13661 12111,0 22163,3741 30155,10958 7860,7597 11717,17006 11717,28343 0,13398 -4763,24618 -14303,33633 -9526,9014 -21258,13528 -35167,13528zm84271 372644c-21389,0 -36730,-7349 -46139,-21901 -13017,14552 -32215,21901 -57329,21901l-275618 0 0 -81568 91736 0c-13266,-22164 -19972,-44707 -19972,-67908 0,-52303 20367,-95607 61202,-129883 42778,-35429 97799,-51792 165327,-49089 24354,0 45481,7086 63392,21126 -7728,12375 -11731,36598 -11731,72933l1168 101934c249,760 380,2060 380,4120 0,13529 3229,24866 9804,34012 6048,8255 12871,12506 20351,12755l43816 0 0 81568 -46387 0zm-154370 -81568c11718,0 19841,-2572 24092,-7860 4252,-5538 6443,-16101 6443,-31689l-3345 -127312c-24750,6063 -46007,18555 -63919,37372 -18292,19198 -27438,39301 -27438,60427 0,24224 5026,41624 15078,52450 10051,11075 26415,16612 49089,16612z"/>
  <path id="2" class="fil0" d="M1269333 522893c-22412,0 -38527,-7218 -48315,-21521 -13149,14303 -32215,21521 -57476,21521l-113637 0 0 -81568 62750 0c11338,0 19198,-3609 23712,-10943 4500,-6969 6823,-18949 6823,-35824 0,-5537 -643,-31572 -1928,-78222 -906,-37226 -1418,-60938 -1418,-71253 0,-14172 4120,-25378 12361,-33632 8123,-7992 19329,-12112 33632,-12112 24749,0 46007,7086 63787,21141 -7480,12360 -11337,36583 -11337,72918l1154 104126c511,12886 3872,23581 10183,32084 5800,7860 12375,11717 19709,11717l107208 0 0 81568 -107208 0zm-126917 40075c12112,-132 22163,3740 30286,11206 7729,7349 11586,16626 11586,27963 0,13661 -4631,24998 -13909,34012 -9540,9029 -21520,13529 -35823,13529 -11849,0 -21521,-3608 -29118,-10943 -7597,-7480 -11338,-17137 -11338,-29000 0,-13135 4632,-24224 14041,-33238 9277,-9015 20746,-13661 34275,-13529zm113257 0c12637,-132 22806,3740 30549,11206 7860,7349 11717,16626 11717,27963 0,13661 -4631,24998 -13908,34012 -9541,9029 -21389,13529 -35576,13529 -11980,0 -21769,-3608 -29366,-10943 -7612,-7480 -11337,-17137 -11337,-29000 0,-13135 4631,-24224 13909,-33238 9408,-9015 20746,-13661 34012,-13529z"/>
  <path id="3" class="fil0" d="M1906125 220860c-7845,12374 -11717,40718 -11717,84913l1549 133755c0,55532 -25261,83365 -75899,83365 -48067,0 -81816,-13529 -101145,-40456 -11089,26927 -33896,40456 -68302,40456 -50887,0 -85805,-15209 -105002,-45613 -13018,30404 -34539,45613 -64562,45613l-119700 0 0 -81568 68799 0c11337,0 19197,-3477 23712,-10563 4514,-7086 6822,-18818 6822,-35429 0,-7086 -642,-25904 -1928,-56702 -906,-24092 -1417,-40455 -1417,-49090 0,-14040 4120,-25260 12374,-33500 8109,-8124 19330,-12112 33633,-12112 25129,0 46255,7086 63393,21126 -7729,11863 -11732,31835 -11732,60047l1548 89034c2060,13149 8503,21272 19592,24617 3858,1681 11718,2572 23829,2572 11089,0 18950,-3477 23844,-10563 4251,-7086 6311,-18818 6311,-35429 0,-6312 -642,-29381 -1797,-69077 -1037,-31557 -1548,-52172 -1548,-61975 0,-29892 13397,-44839 40075,-44839 30915,0 53984,6706 69441,20367 -7860,12228 -11717,34275 -11717,65964l1154 105397c643,12769 5289,21403 13529,25655 5801,2951 15852,4500 30155,4500 11338,0 19329,-3477 23844,-10563 4500,-7086 6823,-18818 6823,-35429 0,-10052 -774,-36336 -2323,-78602 -1023,-37241 -1549,-60953 -1549,-71253 0,-30287 13412,-45365 40075,-45365 30930,0 54247,6955 69836,20747z"/>
  <path id="4" class="fil0" d="M2214864 522893c-263,35692 -3477,61201 -9803,76278 -19577,46007 -58236,69062 -115828,69062 -18949,0 -35181,-4763 -48710,-14303 -13660,-9657 -20366,-20863 -20366,-33618 0,-13412 6706,-28869 20366,-46387 10300,9526 21389,14289 33238,14289 17780,0 30418,-7597 37752,-22675 4252,-9277 6837,-23712 7860,-43026l-9394 0c-73328,-1549 -124609,-24618 -153990,-69456 -13397,-20878 -20103,-44064 -20103,-69456 0,-25641 5420,-51282 16246,-76659 11338,-26941 26415,-47819 45350,-62633 40455,-33501 95359,-48827 164552,-46124 24735,0 45861,6574 63393,19709 -7728,11600 -11600,34143 -11600,67907 0,10315 131,33632 643,69836 0,9540 131,19329 394,29118 249,21141 380,39958 380,56570l101540 0 0 81568 -101920 0zm-190193 -140067c0,20104 7992,35181 24092,45364 17138,9015 40850,13398 71005,13135l-775 -173947c-22937,5289 -44458,20483 -64561,45612 -19841,24867 -29761,48199 -29761,69836z"/>
  <path id="5" class="fil0" d="M2685307 522893c-29892,0 -48578,-12886 -55927,-38527 -26664,25641 -62239,38527 -106814,38527l-54642 0c-25772,0 -44706,-6955 -57081,-20747 -10052,13792 -26283,20747 -48695,20747l-60047 0 0 -81568 60047 0c7597,0 14420,-3857 20352,-11717 6311,-8255 9657,-18950 9920,-32084l1037 -107603c0,-34392 -3740,-57461 -11220,-69061 17532,-13266 38526,-19972 63013,-19972 68681,-2572 123191,12754 163384,45612 39563,32084 60441,76805 62750,134398 774,21126 -3215,41361 -11718,60427l103468 0 0 81568 -77827 0zm-166861 -81568c42778,0 64167,-20220 64167,-60690 0,-21638 -9277,-43933 -27964,-66870 -19066,-23449 -40206,-37753 -63392,-43041l-2966 136969c0,22426 10051,33632 30155,33632z"/>
  <path id="6" class="fil0" d="M2810675 441325c11338,0 19198,-3609 23713,-10943 4499,-6969 6822,-18818 6822,-35444l-1928 -177819c-906,-95856 -1417,-152820 -1417,-170601 0,-13908 4120,-24997 12360,-33237 8386,-8372 19723,-12507 34027,-12507 24866,0 46123,6969 63772,20747 -7465,12374 -11337,36729 -11337,73327l1169 344285c0,55796 -25393,83760 -76294,83760l-113637 0 0 -81568 62750 0z"/>
  <path id="7" class="fil0" d="M3100845 94454c0,15589 906,79639 2703,192122l2191 189930c0,14040 -4120,25260 -12360,33501 -8386,8371 -19723,12506 -34026,12506 -24604,0 -45876,-7101 -63773,-21141 7597,-12623 11337,-36978 11337,-73182l-2323 -192253c-1680,-112482 -2586,-175758 -2586,-189799 0,-14171 4135,-25392 12375,-33632 8372,-8240 19840,-12506 34407,-12506 24603,0 45875,7100 63392,21141 -7465,12374 -11337,36846 -11337,73313z"/>
 </g>
</svg>
