<?xml version="1.0" encoding="UTF-8"?>
<!DOCTYPE svg PUBLIC "-//W3C//DTD SVG 1.1//EN" "http://www.w3.org/Graphics/SVG/1.1/DTD/svg11.dtd">
<!-- Creator: CorelDRAW X7 -->
<svg xmlns="http://www.w3.org/2000/svg" xml:space="preserve" width="8.3586mm" height="19.2379mm" version="1.1" style="shape-rendering:geometricPrecision; text-rendering:geometricPrecision; image-rendering:optimizeQuality; fill-rule:evenodd; clip-rule:evenodd"
viewBox="0 0 60024 138149"
 xmlns:xlink="http://www.w3.org/1999/xlink">
 <defs>
  <style type="text/css">
   <![CDATA[
    .fil0 {fill:#AB5623}
    .fil1 {fill:#663300;fill-rule:nonzero}
   ]]>
  </style>
 </defs>
 <g id="Layer_x0020_1">
  <metadata id="CorelCorpID_0Corel-Layer"/>
  <g>
   <path class="fil0" d="M57118 2905l-27877 30696c-415,-33 -843,-50 -1258,-50l-9174 0c-8741,0 -15904,7165 -15904,15904l0 39238c0,8740 7153,15904 15904,15904l9174 0c424,0 843,-16 1258,-49l27877 30695 0 -132338z"/>
   <path id="1" class="fil1" d="M27090 31648l27878 -30696 4301 3907 -27878 30695 -2382 943 -1919 -4849zm4301 3906c-1078,1188 -2916,1276 -4104,198 -1187,-1079 -1276,-2917 -197,-4104l4301 3906zm-3408 903l0 -5811 0 0 39 0 65 0 40 1 39 0 39 0 39 0 66 1 39 1 66 1 40 2 39 0 39 2 39 1 66 2 39 1 40 2 67 2 39 3 40 1 65 4 41 2 39 2 38 2 40 2 66 4 41 3 38 2 66 5 39 3 40 3 41 3 55 4 -463 5792 -22 -1 -36 -3 -40 -3 -39 -3 -13 -1 -38 -2 -39 -3 -12 0 -40 -3 -41 -2 -39 -2 -38 -2 -13 -1 -40 -1 -39 -2 -13 0 -40 -2 -40 -1 -13 -1 -39 -1 -41 -1 -38 -1 -39 -1 -14 0 -39 -1 -13 -1 -39 0 -40 0 -38 0 -40 -1 -12 0 -39 0 0 0zm-9174 -5811l9174 0 0 5811 -9174 0 0 0 0 -5811zm-12998 18809l-5811 0 0 0 24 -962 74 -952 120 -939 166 -926 212 -910 255 -890 297 -875 339 -855 379 -833 416 -810 454 -787 490 -762 526 -738 559 -710 592 -682 622 -652 652 -623 682 -592 711 -558 737 -526 761 -489 787 -455 812 -418 833 -378 854 -338 874 -297 891 -256 911 -212 926 -166 937 -120 953 -74 963 -24 0 5811 -667 17 -655 50 -648 84 -637 114 -623 146 -615 175 -602 205 -589 234 -575 261 -559 287 -545 315 -530 341 -510 363 -492 388 -474 411 -454 433 -433 454 -411 474 -387 492 -364 510 -339 529 -315 545 -289 560 -260 575 -234 589 -204 600 -176 616 -146 624 -114 636 -84 648 -50 656 -17 666 0 0zm-5811 39238l0 -39238 5811 0 0 39238 0 0 -5811 0zm18809 12999l0 5811 0 0 -963 -25 -953 -73 -940 -120 -926 -166 -910 -212 -892 -255 -874 -298 -855 -338 -833 -378 -812 -418 -787 -455 -761 -489 -738 -526 -710 -559 -682 -591 -653 -624 -623 -652 -590 -682 -558 -709 -525 -739 -490 -762 -454 -788 -417 -810 -377 -832 -338 -854 -298 -875 -255 -893 -211 -907 -166 -926 -120 -940 -74 -951 -24 -963 5811 0 17 667 50 657 83 647 115 635 146 627 174 614 205 600 233 590 262 575 287 560 314 545 339 528 364 510 388 493 411 475 432 453 453 432 474 411 492 388 510 363 530 341 544 315 560 287 574 261 589 234 603 204 614 176 625 146 636 114 649 83 658 51 667 17 0 0zm9174 5811l-9174 0 0 -5811 9174 0 0 0 0 5811zm3408 -4908l-4301 3906 2382 943 -55 4 -39 3 -41 3 -40 3 -63 5 -41 2 -39 3 -64 4 -40 2 -40 2 -39 2 -41 2 -64 4 -39 1 -40 2 -66 3 -38 2 -41 1 -66 2 -39 1 -40 1 -39 1 -40 2 -65 1 -39 1 -67 0 -39 0 -40 1 -39 0 -40 1 -66 0 -40 0 0 -5811 40 0 14 0 39 -1 39 0 40 -1 39 0 13 0 40 -1 13 0 40 -1 39 -1 40 -2 39 0 13 -1 39 -1 39 -2 14 0 38 -2 39 -1 14 -1 38 -2 39 -2 40 -3 37 -2 14 0 39 -3 37 -3 14 0 40 -3 36 -3 39 -3 22 -1 2382 943zm-2382 -943c1600,-127 3001,1065 3128,2665 127,1599 -1066,3000 -2665,3127l-463 -5792zm25959 35545l-27878 -30696 4301 -3906 27878 30695 755 1953 -5056 1954zm4301 -3907c1079,1188 990,3025 -197,4104 -1188,1079 -3026,990 -4104,-197l4301 -3907zm755 -130385l0 132338 -5811 0 0 -132338 755 -1953 5056 1953zm-5811 0c0,-1604 1301,-2905 2905,-2905 1605,0 2906,1301 2906,2905l-5811 0z"/>
  </g>
 </g>
</svg>
