<?xml version="1.0" encoding="UTF-8"?>
<!DOCTYPE svg PUBLIC "-//W3C//DTD SVG 1.1//EN" "http://www.w3.org/Graphics/SVG/1.1/DTD/svg11.dtd">
<!-- Creator: CorelDRAW X7 -->
<svg xmlns="http://www.w3.org/2000/svg" xml:space="preserve" width="28.1625mm" height="4.7643mm" version="1.1" style="shape-rendering:geometricPrecision; text-rendering:geometricPrecision; image-rendering:optimizeQuality; fill-rule:evenodd; clip-rule:evenodd"
viewBox="0 0 1257877 212797"
 xmlns:xlink="http://www.w3.org/1999/xlink">
 <defs>
  <style type="text/css">
   <![CDATA[
    .fil0 {fill:#990000;fill-rule:nonzero}
   ]]>
  </style>
 </defs>
 <g id="Layer_x0020_1">
  <metadata id="CorelCorpID_0Corel-Layer"/>
  <path class="fil0" d="M51445 46402c-3703,0 -6695,-1139 -9022,-3345 -2283,-2247 -3466,-5163 -3466,-8786 0,-4019 1420,-7405 4292,-10161 2917,-2836 6423,-4256 10478,-4256 3784,0 6857,1143 9260,3466 2443,2286 3662,5163 3662,8629 0,4096 -1416,7521 -4252,10282 -2917,2756 -6579,4171 -10952,4171zm34861 0c-3703,0 -6695,-1139 -9022,-3345 -2323,-2247 -3466,-5163 -3466,-8786 0,-4019 1420,-7405 4256,-10161 2953,-2836 6459,-4256 10519,-4256 3779,0 6852,1183 9214,3586 2484,2207 3703,5043 3703,8509 0,4096 -1456,7521 -4368,10282 -2917,2756 -6544,4171 -10836,4171zm54916 21551c-2327,3779 -3471,11265 -3471,22413 0,6932 40,14735 121,23400l236 21466c0,16941 -7762,25410 -23319,25410l-61848 0c-18710,0 -31908,-2680 -39591,-8075 -7602,-5320 -11814,-14418 -12564,-27340 -786,-12327 1653,-23163 7249,-32574 5159,-8826 11345,-13279 18594,-13279 4842,0 8862,3783 12091,11345 -4685,1813 -7995,5753 -9925,11742 -1813,5789 -1929,12015 -317,18711 1300,5315 3859,9098 7723,11304 3703,2166 9255,3230 16740,3230l46287 0c3466,0 5869,-1104 7249,-3346 1375,-2130 2086,-5873 2086,-11188 0,-1693 -197,-9653 -590,-23874l-554 -21703c0,-4332 1264,-7722 3783,-10281 2560,-2524 6066,-3824 10519,-3824 7521,0 14025,2166 19501,6463z"/>
  <path id="1" class="fil0" d="M234701 160642c-80,10912 -1063,18710 -2997,23320 -5985,14065 -17804,21113 -35410,21113 -5794,0 -10756,-1456 -14892,-4373 -4176,-2952 -6226,-6378 -6226,-10277 0,-4101 2050,-8826 6226,-14182 3149,2913 6539,4369 10161,4369 5436,0 9300,-2323 11542,-6932 1300,-2837 2090,-7249 2403,-13154l-2872 0c-22417,-474 -38095,-7526 -47077,-21234 -4096,-6383 -6146,-13471 -6146,-21234 0,-7838 1657,-15677 4967,-23435 3466,-8237 8075,-14619 13864,-19148 12368,-10242 29153,-14927 50306,-14101 7562,0 14020,2010 19380,6025 -2363,3547 -3546,10439 -3546,20761 0,3153 40,10282 196,21350 0,2916 41,5909 121,8901 76,6463 116,12216 116,17295l31042 0 0 24936 -31158 0zm-58145 -42820c0,6146 2443,10755 7365,13868 5240,2756 12489,4096 21707,4016l-236 -53179c-7013,1617 -13592,6262 -19738,13945 -6065,7602 -9098,14735 -9098,21350z"/>
  <path id="2" class="fil0" d="M415000 160642c-8866,0 -14418,-3663 -16745,-10952 -11461,7289 -25053,10952 -40730,10952l-96155 0 0 -24936 21940 0 -710 -27809c-273,-12609 -434,-20604 -434,-23989 0,-4257 1264,-7607 3783,-10046 2560,-2563 6026,-3823 10398,-3823 7643,0 14146,2126 19501,6343 -1380,2322 -2403,7919 -3113,16861 9536,-17174 22690,-27340 39470,-30569 8473,-1693 17451,-1617 27027,237 9688,1889 17134,5118 22373,9687 11622,10126 17410,24227 17410,42231 0,7522 -2045,14494 -6222,20877l25960 0 0 24936 -23753 0zm-28992 -44080c942,-7486 -2287,-13828 -9692,-19067 -7290,-5119 -15245,-6892 -23874,-5275 -8388,1612 -16660,7048 -24816,16383 -6932,7843 -11934,15954 -15007,24347l0 2756 33244 0c25173,0 38528,-6383 40145,-19144z"/>
  <path id="3" class="fil0" d="M453327 135706c3466,0 5869,-1104 7249,-3346 1376,-2130 2086,-5753 2086,-10836l-590 -54361c-277,-29305 -433,-46720 -433,-52156 0,-4252 1260,-7642 3779,-10161 2563,-2559 6029,-3823 10402,-3823 7602,0 14101,2130 19496,6342 -2282,3783 -3466,11229 -3466,22418l358 105253c0,17057 -7763,25606 -23324,25606l-34741 0 0 -24936 19184 0z"/>
  <path id="4" class="fil0" d="M542036 29662c0,4766 277,24347 826,58734l670 58065c0,4292 -1259,7722 -3778,10242 -2564,2559 -6030,3823 -10403,3823 -7521,0 -14025,-2171 -19496,-6463 2322,-3859 3466,-11305 3466,-22373l-710 -58774c-514,-34388 -791,-53732 -791,-58025 0,-4332 1264,-7762 3783,-10282 2560,-2519 6066,-3823 10519,-3823 7521,0 14025,2171 19380,6463 -2282,3783 -3466,11265 -3466,22413z"/>
  <path id="5" class="fil0" d="M657102 46402c-3703,0 -6696,-1139 -9023,-3345 -2282,-2247 -3466,-5163 -3466,-8786 0,-4019 1421,-7405 4293,-10161 2916,-2836 6423,-4256 10478,-4256 3783,0 6856,1143 9259,3466 2443,2286 3663,5163 3663,8629 0,4096 -1416,7521 -4252,10282 -2917,2756 -6580,4171 -10952,4171zm34861 0c-3703,0 -6696,-1139 -9023,-3345 -2322,-2247 -3466,-5163 -3466,-8786 0,-4019 1421,-7405 4257,-10161 2952,-2836 6459,-4256 10519,-4256 3778,0 6851,1183 9214,3586 2483,2207 3703,5043 3703,8509 0,4096 -1456,7521 -4369,10282 -2916,2756 -6543,4171 -10835,4171zm54915 21551c-2327,3779 -3470,11265 -3470,22413 0,6932 40,14735 120,23400l237 21466c0,16941 -7763,25410 -23319,25410l-61848 0c-18710,0 -31909,-2680 -39591,-8075 -7602,-5320 -11814,-14418 -12564,-27340 -786,-12327 1652,-23163 7249,-32574 5159,-8826 11345,-13279 18594,-13279 4842,0 8861,3783 12091,11345 -4686,1813 -7995,5753 -9925,11742 -1813,5789 -1929,12015 -317,18711 1300,5315 3859,9098 7723,11304 3702,2166 9254,3230 16740,3230l46286 0c3466,0 5869,-1104 7249,-3346 1376,-2130 2086,-5873 2086,-11188 0,-1693 -196,-9653 -589,-23874l-554 -21703c0,-4332 1264,-7722 3783,-10281 2559,-2524 6066,-3824 10519,-3824 7521,0 14024,2166 19500,6463z"/>
  <path id="6" class="fil0" d="M792691 29662c0,4766 277,24347 826,58734l670 58065c0,4292 -1259,7722 -3778,10242 -2564,2559 -6030,3823 -10403,3823 -7521,0 -14024,-2171 -19496,-6463 2323,-3859 3466,-11305 3466,-22373l-710 -58774c-514,-34388 -791,-53732 -791,-58025 0,-4332 1264,-7762 3783,-10282 2560,-2519 6066,-3823 10519,-3823 7522,0 14025,2171 19380,6463 -2282,3783 -3466,11265 -3466,22413z"/>
  <path id="7" class="fil0" d="M883178 74765c12841,10322 19264,22337 19264,36009l0 18946c0,9058 -2010,16424 -5990,22020 -4252,5950 -9924,8902 -17097,8902l-57828 0c-10675,-473 -16030,-4453 -16030,-12015 0,-6065 2045,-11818 6105,-17174 3113,2756 6419,4177 9925,4253l44240 0c3346,0 5789,-1104 7250,-3346 1299,-2090 1965,-5672 1965,-10836 0,-2559 -36,-4212 -116,-4962 -81,-7249 -3386,-13431 -9925,-18594 -6463,-4922 -14065,-7365 -22850,-7365 -6222,0 -11975,1300 -17214,3899 -5119,-8745 -7290,-15914 -6459,-21470 630,-4136 2600,-7089 5909,-8862 3306,-1849 8469,-2796 15441,-2796 17491,0 31944,4489 43410,13391z"/>
  <path id="8" class="fil0" d="M949278 29662c0,4766 276,24347 826,58734l670 58065c0,4292 -1260,7722 -3779,10242 -2564,2559 -6030,3823 -10402,3823 -7522,0 -14025,-2171 -19497,-6463 2323,-3859 3466,-11305 3466,-22373l-710 -58774c-513,-34388 -790,-53732 -790,-58025 0,-4332 1264,-7762 3783,-10282 2559,-2519 6065,-3823 10518,-3823 7522,0 14025,2171 19381,6463 -2283,3783 -3466,11265 -3466,22413z"/>
  <path id="9" class="fil0" d="M1067340 160642c-7092,-80 -12095,-2720 -15012,-7959 -4211,5319 -9728,7959 -16503,7959l-57788 0c-10715,-473 -16075,-4453 -16075,-12015 0,-6146 2091,-11858 6227,-17174 2952,2676 6221,4096 9848,4253l44196 0c3431,0 5869,-1104 7249,-3346 1381,-2090 2086,-5672 2086,-10836l0 -4962c-156,-7249 -3542,-13431 -10161,-18594 -6459,-4922 -14025,-7365 -22730,-7365 -6302,0 -12091,1300 -17330,3899 -5123,-8745 -7289,-15914 -6463,-21470 710,-4136 2720,-7089 6030,-8862 3305,-1849 8428,-2796 15320,-2796 17651,0 32498,4806 44553,14338 12171,9611 18241,21314 18241,35062l0 12917c393,3546 1537,6503 3466,8785 1693,2166 3547,3230 5552,3230l13395 0 0 24936 -14101 0z"/>
  <path id="10" class="fil0" d="M1188311 135706c10755,629 16151,4730 16151,12372 0,5748 -2086,11380 -6222,16821 -2957,-2680 -6267,-4101 -9929,-4257l-111399 0 0 -24936 31274 0c-6302,-8822 -9451,-18630 -9451,-29305 0,-13712 5043,-24740 15124,-33133 10166,-8388 23677,-12564 40498,-12564 15874,0 27848,3980 36004,12015 4489,4449 6302,10791 5552,19027 -867,9295 -5909,13945 -15244,13945 -7919,0 -14222,-1577 -18907,-4730 1693,0 3073,-1220 4136,-3663 1023,-2640 1179,-5592 590,-8902l0 -352c-3779,-1224 -7446,-1854 -10952,-1854 -7008,0 -12761,2247 -17214,6695 -4449,4534 -6695,10403 -6695,17571 0,6620 2010,12172 5985,16701 3939,4569 9178,7405 15717,8549l34982 0z"/>
  <path id="11" class="fil0" d="M1238617 160642c-7606,0 -14145,-2166 -19617,-6459 2403,-3783 3582,-11269 3582,-22493 0,-4926 -277,-24659 -826,-59208l-670 -58417c0,-4297 1300,-7723 3899,-10242 2560,-2563 6026,-3823 10398,-3823 7683,0 14222,2206 19622,6579 -2368,3783 -3587,11224 -3587,22373 0,4926 277,24659 826,59208l670 58417c0,4216 -1259,7606 -3783,10126 -2635,2639 -6141,3939 -10514,3939zm13274 39470c4016,237 5986,1814 5986,4726 0,3234 -787,5873 -2403,7959 -1104,-1063 -2283,-1617 -3583,-1617l-37031 0 0 -116c-1653,-80 -2993,-750 -4056,-2050 -1063,-1259 -1617,-2599 -1617,-4055 0,-2167 751,-4293 2327,-6459 907,902 2046,1456 3426,1612l6816 0c-2287,-3385 -3466,-7052 -3466,-10951 0,-5079 1809,-9255 5436,-12484 3859,-3154 8982,-4730 15360,-4730 5990,0 10478,1496 13475,4493 1653,1769 2283,4212 1970,7285 -277,3466 -2166,5199 -5632,5199 -2997,0 -5360,-630 -7053,-1849 711,0 1220,-514 1613,-1497 397,-1027 433,-2090 120,-3229l0 -120c-1456,-474 -2836,-711 -4136,-711 -2639,0 -4765,867 -6382,2564 -1693,1693 -2519,3819 -2519,6459 0,5435 2715,8624 8191,9571l13158 0z"/>
 </g>
</svg>
