<?xml version="1.0" encoding="UTF-8"?>
<!DOCTYPE svg PUBLIC "-//W3C//DTD SVG 1.1//EN" "http://www.w3.org/Graphics/SVG/1.1/DTD/svg11.dtd">
<!-- Creator: CorelDRAW X7 -->
<svg xmlns="http://www.w3.org/2000/svg" xml:space="preserve" width="32.0275mm" height="35.3886mm" version="1.1" style="shape-rendering:geometricPrecision; text-rendering:geometricPrecision; image-rendering:optimizeQuality; fill-rule:evenodd; clip-rule:evenodd"
viewBox="0 0 1447788 1599725"
 xmlns:xlink="http://www.w3.org/1999/xlink">
 <defs>
  <style type="text/css">
   <![CDATA[
    .fil1 {fill:#FFC477;fill-rule:nonzero}
    .fil0 {fill:#FFD121;fill-rule:nonzero}
    .fil2 {fill:black;fill-rule:nonzero}
   ]]>
  </style>
 </defs>
 <g id="Layer_x0020_1">
  <metadata id="CorelCorpID_0Corel-Layer"/>
  <g id="_2233810192">
   <path class="fil0" d="M773228 861508c-30002,9841 -58798,-3738 -80518,-23882 -26269,-34314 28628,-16942 52645,-10645 6130,2956 -16798,15320 -1641,21214 32064,4150 56442,31770 76934,61103 24957,31024 21567,83104 -7360,61465l1329 -6817c-6355,-3038 -20550,17761 -34378,13878 131,-4236 4539,-5750 1804,-11740 -2821,12418 -19736,1139 -26843,9321 -3232,-6102 448,-14456 -2838,-22267l-11415 10564c-34043,21730 -43898,-19303 -67164,-31422 3593,-434 7341,841 9059,-2812 -38479,-30684 -90780,-68783 -78828,-136784 4163,3861 12870,8173 18999,7174 -13841,-6500 -11301,-24822 -8186,-38189 16292,4837 -4824,-35540 28144,-42781l-18 3838c-2396,-14633 22842,-4715 29876,-21929 4525,3915 8345,7960 11518,12038 9185,-22001 14863,10989 25088,-240l-750 -4511c9457,-6284 15379,4376 24306,-213l909 2473c27412,-2518 33334,13304 37981,-3508 3621,15126 -21558,949 -15166,23294 70505,-7536 140812,39382 175891,100341 -1831,10898 -1158,15997 -6089,20667 7400,3793 12973,21355 23908,24555 -1207,-2106 -6830,7111 -6473,10546 -2283,12314 20667,10013 14678,26002 -4968,-5759 -10650,-6763 -16911,-4511 15487,9818 12585,28207 11437,41963 -2211,-2884 -3056,-6532 -8467,-7414 10831,18742 -9782,25437 -6537,40558l-7332 -8250c-19347,14276 16821,13873 2803,28230 -1099,-5533 -5253,-5732 -8512,-8250 8828,23236 -11505,46480 -20482,62663 -127,-1700 -2360,-3332 -2360,-3332 -12974,16175 -28768,25898 -47171,42836 -9683,-1216 -7495,-21165 -24212,-13326 5796,22123 -35187,9384 -23117,32054 -22752,-5108 -43157,-21910 -57469,-18063 9480,-4968 27,-25708 13675,-23235l-6198 -14692c4023,-7237 9403,6035 9479,-4873 -6916,-1410 -28713,-140 -33623,-5289 -15826,7536 -33899,26386 -54783,22557 11762,-4574 1456,-22769 8806,-24044 -13060,9574 -26354,17910 -40580,26463 -7247,-1655 4168,-15343 -7613,-14041 -1478,5167 -7052,6591 -11830,9439 -1469,-2947 -32099,-10750 -25088,-29284 931,-8132 12671,1980 8928,-7897 -11889,-5931 -16233,54 -27421,-9240l1401 -2255c-4927,-7830 -27127,-11948 -26730,2816 5145,5171 6103,-10406 10171,597 -13683,3349 -29645,-5389 -38559,-17110 5755,1871 9303,-2089 14823,-4232 -24772,-4154 -41548,-20102 -58676,-38686 -8498,4119 19443,0 16721,5104 -2671,-29451 -43844,-52600 -27412,-84419 2147,4181 -13019,3892 -10437,3205 -837,-16468 13439,-15876 8715,-26147 8336,-709 -3060,-12829 -2889,-24266 -4466,-6762 4358,-2088 3459,7161 -4955,-18959 -760,-72309 24699,-94568 -5189,-1600 -7775,-25965 -3349,-32326l9072 8915c9534,-1546 12142,-19854 21364,-14823 -5217,-21038 -19352,54006 -18421,31408 10908,628 -2418,-34283 9696,-21499 7016,-10931 5095,-32873 16066,-29546 -2477,235 10967,15013 13729,8707 7626,-15257 -2902,-6957 6387,-26079 -1718,-1103 11148,-18267 -1713,-6365 -9669,-9560 30106,-27321 8453,-25699 12296,-1351 50747,-30607 49246,-8032l556 16219c4923,-2021 5556,-6238 7368,-11726 -3245,-1334 10103,-8449 -6903,-5171l2338 -7572c1731,863 5248,2934 5808,5447 -7440,-22878 21020,-5339 26187,-26413 19972,194 53369,-6505 62667,6934 16839,-9032 26052,-15170 40418,-9393 -3006,2084 -6826,2436 -7925,7531 7816,7707 11980,1926 16482,-2337 136,3476 7020,14312 23226,22778 15031,-6731 10917,-19844 12703,-27683 13489,22869 49819,-7526 58924,17734 -5692,1677 -22010,5732 -13087,14533 5967,26589 24067,-11482 41109,6962l1338 -20555c5556,14836 36055,1849 24939,19221 9448,-3209 15094,14642 25423,-1609 24203,28094 78127,43604 67179,82715 5510,1419 10817,12802 16825,4530 2753,-13395 -13218,-3685 -9760,-10800 3255,2988 7897,181 10162,-1211 3983,11414 8078,18375 -10636,21024 5700,25039 41497,-1374 49526,22539 -7192,3617 -8300,7125 -2392,13173 6736,1582 13575,3268 21048,7287 9104,22259 -9475,19885 -20935,26860 7631,8259 11112,23141 22802,25532 -3237,6098 -8761,16165 -14154,19112 11545,-11314 8553,7861 12052,12875l-3549 -4914c-5614,2486 -1636,14560 208,21133 8408,-1220 11391,-14940 13376,-22774 6207,5556 5194,15220 12314,23674 -12893,-2627 -9177,19144 -13019,26205 -4512,8765 9777,12381 8846,15234 -6758,-981 -4064,15292 -12056,5953 -1641,-3472 7866,-6021 2943,-12404 -6261,5397 -17770,2278 -11563,16423 4403,10560 26200,4190 13882,19194 -1962,-4950 -6844,-7025 -10768,-11907 -3141,5216 -7183,8878 -10781,13398l11446 3865c-3603,1126 -4154,-538 -5922,-86 10836,7938 -3110,23764 9403,31472 -1158,8458 -12518,11717 -15976,17969l-560 -1560c-9398,5890 -7943,16744 -2853,26852l-2350 -1338c-3400,6315 -7513,22724 -5714,34111 -17300,11093 -41887,-18344 -38397,4579 -8471,11292 1912,32493 11975,32498 -20437,12720 -39315,55466 -75487,51582 -1768,6171 2097,7744 -4860,14082 -23624,5542 -78945,43215 -104133,21485 8697,-6825 -1663,-11997 -3078,-18637 -5881,12010 -11315,-9281 -10899,9429 2617,10578 2667,15926 12969,18493 -3657,6388 -53133,18150 -66238,6266 7752,4706 2201,8340 -3888,11794 1338,-17097 -17507,-19041 -35350,-15854l-4091 10122c-3449,-3965 -5741,-8291 -7553,-12725 -5488,1862 -10700,20003 -21409,6161 384,-4218 823,-8458 -638,-12042 -18014,3584 -38369,11884 -42519,605l-2821 -17498c-4656,67 -14063,6373 -8439,13299 -17603,-16229 -34808,-24121 -35635,-38786 -13091,2771 -27561,1338 -42294,-1812l-11057 -2997c13476,9610 -727,2174 344,3959 -5578,-1075 -9149,-1396 -15921,-3928 -19650,-2961 -63770,-35585 -75600,-53626l6740 -4426c-2617,-13909 -14425,4715 -16039,-5275 8164,-2215 6216,-17697 19307,-16983 -5103,-17951 -24745,-7138 -34007,-12676 -8951,5407 10361,2044 -981,9032 -3996,1004 -7830,-22114 -21549,-13963 2251,-7021 13150,-11975 19465,-14416l-12056 -2577c6708,-20618 42379,-393 51881,-24315l-7463 -5068c7463,-16811 28904,5737 19474,-14587 -11952,-1691 -34943,4674 -34807,16834 -16735,-15840 -36205,14018 -50951,-9353 3621,-10957 14430,16848 22006,5090 3784,-17395 -20799,-15374 -21621,-29862 497,15125 -18227,12599 -24998,4602 321,-17720 17467,2925 10175,-17865 -9646,533 -24275,-17123 -23122,2305 -23665,-3652 -2884,-20418 -21789,-33275 12283,-10794 38763,17418 39333,-10745 -13729,7423 -23755,-29157 -42208,-12589 2731,-11771 13670,-13186 22865,-6614 6324,-13593 -26065,-37162 1799,-40512l-13787 -6708c5438,-5072 10257,-12422 19623,-19049 7237,-28185 -796,-44798 18561,-38420 -452,-4091 12201,-25319 -5235,-24473 -15627,9836 1063,21002 -21083,20021 19953,-2835 8932,-21513 9095,-33113l7834 3006c366,-7648 6315,-12526 172,-20030 2396,5113 8069,6835 11500,5244l-8431 -10298c3535,-16938 20925,8671 26422,-6532l1777 15352c-326,-3341 12567,-1519 13367,-10013 -9991,-5687 -18154,-19257 -25039,-25206 -190,-9742 13145,3363 7047,-9705l6537 16309c2486,3364 20111,3418 25640,-6541 203,-8408 -8512,-26797 -19809,-19736 2731,-5226 12897,-8824 17969,-592 3033,-13548 -11712,-4647 -12345,-18145 8638,339 23917,-3865 40743,-10678l9728 21875 4778 -7988c7585,17833 13308,669 24238,14484 5131,-3861 3996,-12875 3377,-20220 -31670,2219 -19885,-37050 -41145,-46362 14176,-28917 56646,21477 46990,-25907 -7766,-348 -11563,-24184 -18724,-4724 13571,-12422 -3282,-32289 6519,-29636 2857,11930 22932,10162 26571,28032 -5334,-6008 -8268,727 -7771,3761 8734,3621 15849,18194 22829,9841 2771,-6840 7716,-13119 -2247,-20677 -11622,-7445 -4945,7879 -13317,-3517 5980,-14063 29591,-9289 18470,-32592 -10537,13819 -23967,8082 -30915,1663l11405 -20590 3187 9673c29971,-19948 -6274,-20599 30784,-41610l25685 6468c-1121,16798 -53196,23507 -30042,39902 17254,-12069 19483,-26847 42392,-31539 -3670,4195 -9348,7830 -12512,12142 8430,-2124 28709,19863 46655,-3182 11374,-10271 1433,-9493 -678,-18638 30590,-9913 39428,-20044 58106,-21106 -3576,18222 32846,2084 12120,20622 -7830,-12191 -52216,-8566 -59616,12987 15071,19357 -23556,1085 -22643,25369 21924,-6337 25703,16233 31783,28868 5022,-23 8679,-6817 11487,-9615 302,-13525 -6618,-11984 -9624,-25197 24537,-2798 43590,-6026 58160,-19962 7477,6703 3607,19799 -4982,20929 26834,-2491 53436,4774 73164,14967 -8594,-24876 25956,2008 21332,-17914 -10587,-8033 -17540,-25902 -8038,-33262 7685,3513 -2775,9019 -669,14362 13435,-8453 9837,22367 25134,7495 -24374,221 -12174,23836 -21368,38749 17788,-4814 -4276,11143 10112,15456 17332,-2708 38899,-1266 57582,3250 9108,24573 38622,19921 59588,29568 7983,14578 -9520,26458 -954,35477 10388,6220 5967,-20962 14452,-4435l-3562 2007c6953,-551 17671,29564 39432,12056l-17490 12594c1488,3598 6921,1804 10556,1881 -4100,5325 -5050,12381 -12070,12444 -795,17639 18385,13300 27647,22241l3472 -14253c24415,11383 22232,34098 32009,53400l-11753 2636 10139 8670c-11843,655 -15948,13394 -5085,15726 -11807,-4886 -24410,-14790 -36693,-19270 4177,-9181 16572,3236 26332,-4412 8282,-7147 -1559,-25952 -13267,-22291 1871,6700 3756,5963 9818,9421 -14936,8535 -17020,-1645 -29048,583 2603,1700 -1424,8241 3724,6510 -8521,-2731 -13466,-4647 -18027,-10935 8277,578 6125,-9154 10994,-10574 -10840,8720 -21509,6017 -27299,-5641 3223,-19330 -26260,-7201 -37235,-21052 14420,-7766 28799,-12178 40327,-10542 -3730,-12467 -9516,-6925 -13530,-19297 -9828,6455 -26250,15229 -36634,17584l5013 -9778c-7757,1112 -25649,12093 -27457,7030 -39586,-24356 -49106,-31924 -69136,-40721l3409 -10356c-16970,16342 -36815,-2798 -53324,2866 -23470,-17295 -48314,2215 -59724,-15975 -46796,15482 -39789,18353 -82756,63295l-5058 -18353c1885,15736 -10922,-1433 -15451,7350 14682,1980 6826,18186 11116,28656 -22264,5962 -21414,33311 -22087,56555l-9945 -4756c8082,27426 -18584,38063 -35545,59422 -5361,-54 -16499,-1867 -19388,4832 8720,19682 769,27607 4751,45051 -2400,4575 -6536,9963 -11875,15243 339,-5669 -5877,2355 -8503,5180 22824,27959 21775,53450 72106,89980l-7387 11292c12960,3856 25130,12581 33180,18177 4449,1320 8485,5158 19276,11333 4339,2771 10329,6283 17345,10243 6310,3865 -602,-732 16694,9895l5325 2957c6722,3837 13638,7133 23361,6075l-11341 19348c7807,10012 26295,3824 28664,-12056 11767,11237 45512,5772 41556,22701 8399,6808 14859,-5813 21721,-6491 4634,9204 15713,6744 31788,-1248l-4927 -194c-990,5198 529,14416 5867,14601 1564,-1908 4141,-2920 6885,-3662 16463,-3684 10609,-2178 16459,-3887 5935,-2229 9005,-6388 2025,-18430 15555,5393 28086,-1121 34939,-6510l6550 -3376c14370,-5719 9077,-3929 14714,-5746 7183,-1957 10202,-1510 16264,1524 -4091,-5891 -1812,-8553 -4226,-13137 845,836 30635,-8557 22665,-20193 3725,733 9136,8603 11704,5741 -1135,-3087 -8069,-4945 -10221,-8471 -7902,2296 6559,-28610 16572,-45227 9086,-15071 21861,-32674 21124,-44604 -2423,-33957 -4227,-24166 -8788,-34789 -3815,-5348 -17941,-25920 -26123,-35653 -7595,-7549 -11627,-16237 -22291,-22914l3924 -3580c-9936,-2486 -22064,3770 -14081,-27335 2332,26535 -20238,-9308 -26183,11477 -1663,-6401 -13846,-9466 -6690,-17277 -6690,12332 -37221,-27566 -51994,-11437 890,592 1596,-271 3313,-2319 -5072,-7418 -10049,-6098 -13385,-5280 -4814,855 -38424,3061 -46741,-3566 2857,-2098 7047,-3332 8946,-8553 -9909,-10845 -24528,20374 -28642,-5384 -4235,393 -3286,12965 -1125,11898 -21798,-2201 -19443,-4633 -64394,16057 -3409,1270 -9014,2992 -10678,3982l91 723c1663,5036 -2043,-6518 -7857,-21535 -5194,-13082 -1971,-6573 -3657,-10759 -1125,-6224 -9787,-16282 -5714,-11477l1831 1130c-6812,15446 19067,28709 28615,41444 15591,-15479 -12884,27954 -12291,31267 -30373,18082 -37886,-21304 -34577,10592 -5416,-493 7892,5768 2970,3675 2120,11346 -32331,2748 -23394,14859 15632,2834 6392,7879 15347,11486 -16929,17874 -30630,15718 -20120,29098l-8169 -1415c21549,13223 13372,30143 43541,31259 23624,38275 39898,45381 98799,59544 27485,5280 70284,18091 92434,21996l8427 1781 4267 864 2088 529 1031 257 244 46 113 -5c1040,-5660 -8978,48920 -4706,25857l-117 145 -181 506c-3051,2328 -1718,21282 -1971,14637 7133,7256 -30432,-58390 -16658,-42601 11116,-9506 18023,-14854 25780,-33921 4109,-8024 7143,-17304 9113,-27765l2030 -7463 529 -1835c-3612,22742 -1293,6315 -2224,11387l-732 113c-760,99 -642,456 397,389 -2201,-1167 -7793,-20324 -19998,-33637 -7441,-8381 -14253,-17354 -23176,-26192 -2238,-5546 248,-2527 -6537,-8706 -8037,-25753 -24035,-29406 -50245,-28072 1985,-3011 3888,-3300 2916,-7016 899,17399 -28321,-2296 -999,16749 -7834,-163 -12382,904 -42691,1193 -15031,-1356 -25175,1578 -10162,-1017 3345,-24763 -2251,-62920 -7111,-76102 2821,14199 8883,27394 17594,38401 4375,5456 9452,10393 14971,14796l2048 1654 1153 728 194 208c3630,-4701 -31109,41733 -16368,22055l-5 32 543 -104 913 -321c6735,5384 -39690,-75677 -30473,-60443 -836,-3942 -11540,-12947 859,-1465 3834,3142 8078,5673 12463,7672 -6880,-4910 54973,33550 46981,27981 5343,-10727 -9416,22177 -7956,20329 -357,-4250 -12793,-12341 -13656,-6749l8526 8805 -5077 -759c8101,3775 2491,-1135 16748,4620 -25744,-9819 -63123,-10180 -65347,-11613l-8643 1311 -4503 1654 -1039 507 -615 316 -73 45c161462,-44413 44762,-12341 80871,-22245l-9 104 470 380 2645 3417c2812,4412 3544,9841 9493,17354 1026,2247 6518,10316 3372,8232 8874,11920 19750,27448 24872,37493l6907 14253 3404 7083 113 213c-93836,33641 -26083,9361 -46963,16829l59 -50 117 -81 240 -253 492 -506 819 -963 1428 -3707c5190,-7617 -14804,19067 23262,-33388l755 741c18109,13254 23086,18295 33433,22987 6496,976 10574,1510 11202,1876 0,13851 8806,58495 13525,64190 17829,23760 11858,-6179 -64506,28280 -2844,3770 -538,-3146 -3847,-6586 1179,1071 -9746,-13950 972,307l-9670 -10270c-12987,-12847 -28668,-28321 -41611,-41480 502,-307 6148,-2463 -6098,-15785l-6789 -8426 -3287 -4290 -1659 -2116 -831 -1021 -434 -534 -190 -303 -131 -113 -32 -63c-4272,-3033 36760,26671 19343,14068 -4114,-3770 -12504,-10280 -12644,-11338 -40,-4954 -8263,936 1325,-11260 9253,-25355 11473,-51443 12562,-54029 -294,-2382 -1279,-4864 -2970,-7133l-1198 -1691c11753,21436 3074,4860 5583,9195l-1361 -3657c-1835,-5379 -13086,-6794 -5628,-5705 154,-551 5570,-2585 16315,-8403 7038,-5077 12096,-12838 25387,-24379 8720,-13729 28750,16884 43283,17829 8648,3874 18543,7549 25739,8774 4548,2608 6953,-2468 6049,3214 -10623,40282 -3458,66111 -1384,64968 -3245,-7301 1479,15577 -4931,-27629 8195,-30355 -1537,1166 -5366,-1836 -6826,3698 -15388,6334 -25170,4973z"/>
   <path class="fil1" d="M908783 893056c-25432,12110 -21427,40996 -4697,58667 8806,24247 -34825,16743 -50923,21788 -5063,195 1750,-7463 -9796,-6405 -20830,5293 -49797,-773 -75039,7558 -18539,7712 21906,17458 21445,8349 -13015,-6740 -26567,-11251 -39206,-15238l3485 -1610c-9511,-3259 -22548,2808 -32086,-578 213,-1383 3472,-1270 1664,-3680 -3242,3662 -17870,-1790 -23222,-36 -3585,-2590 -2256,-5732 -6975,-8896l-7120 3259c-9493,3784 -18511,-565 -28289,-4746 -7079,1193 15835,-4991 20826,-13272 -109,1451 -1686,3476 746,3236 13869,-29496 -30744,-10989 -43749,-13733 -19537,877 -50051,11473 -24130,24564 -2129,506 -5285,1967 -4480,5077 4475,-2410 15546,1790 25712,3327 1614,3065 6437,3033 11523,1772 6505,3146 -4001,-9873 14917,5564 1664,1727 2387,2627 2084,4828l-1125 -4c5840,1541 7825,8986 15148,7020l4009 5307c5809,-6487 11586,7269 20022,4389l-109 -1482c7292,-1338 10659,2667 17322,1971l602 886c15369,-1442 24627,1207 23791,-4200 5890,4299 -14841,2875 -5972,9154 21418,-2748 62550,-13417 58599,-27213 -7558,-8490 -23398,-6835 -35020,-17797 -10004,-22684 20722,-20609 29437,-21319 6053,2464 9764,3314 11030,5497 5108,-782 20274,-1021 23430,-5813 -1560,750 3865,1668 6735,863 7952,-8254 7857,-5664 389,-10840 3820,1171 6518,954 6966,-1501 -9565,-3702 -19529,-7300 -30305,-9149 1862,-484 4489,-307 4597,-2125 -11387,217 -22688,-3471 -27593,-12209 -1094,1749 -54,3598 2152,2314 8516,-36 -493,-8177 12418,-9565 -2988,1889 -1492,2839 -1781,4308 20635,-7151 11025,-16821 -3992,-24876l1343 -764c-10199,-7961 -24189,-15130 -39084,-18019 -4919,-3114 4470,-7106 -10470,-10614 -1225,5411 -25183,-1645 -17670,7057l-9520 -2405c17426,-17698 3887,-3015 11003,-5149 3896,4100 11802,5949 15297,6455 -5990,443 3444,9945 -6799,6767l6641 6438c-1958,2459 -8042,-3554 -6551,646 5624,1695 21848,2929 26395,4801 10822,-1804 20763,-8295 37403,-5746 -8300,764 2725,8200 -2677,8110 15582,-6717 -2337,13593 -7359,12296 -5316,501 -1256,-5258 -8923,-3246 398,1758 -2961,2925 -5298,4498 -1664,-434 -23597,1189 -25486,-5348 -2297,-2626 9054,-1130 3069,-3666 -11889,-27 -7979,1392 -19479,3417l-339 -877c-7336,-587 -18963,3508 -12336,6939 4670,50 -1822,-3928 5113,-2179 -5366,3508 -15280,6153 -16514,7093 687,-981 -425,-2568 -623,-4430 4845,-14420 9569,-2360 24984,-2536 1216,-2821 -6329,3770 -7649,1546 6840,4995 16423,6130 24637,6062 4385,0 8322,-27 11405,-190 1207,-90 4249,479 3829,407l601 574 457 561 352 289 136 226 77 72 13 5c222,-5538 -1211,47912 -682,25296l-77 -68 113 -4c1401,-50326 465,-13991 673,-25129l-58 -64 -118 -108 -294 -475 -669 -1315c-402,-1053 -845,-1890 -651,-1524l122 249 50 90c-348,13942 845,-31245 -863,31314l-27 -14 -23 -45 -50 9 -303 -185 -994 -697 -1519 -1306 -1885 -2414c-990,-1573 -1817,-2667 -4579,-3006 465,-2527 -6103,-2265 -11866,-3295 -3581,994 -990,-1664 3878,-335 -8128,-945 -40815,-5162 -60899,-16007 1175,2387 -17788,398 -17079,538l3052 -3318c-3468,-3833 -15582,-5185 -15130,-8819 -10076,1776 37058,8873 22869,7806 -2894,-4660 -17327,882 -14222,-4118 -9506,-3087 -19759,-2061 -26128,-8783 2075,1510 8824,-2599 1962,-5036 -12219,-3960 -4322,131 -14136,-1668l-6333 -266c-1564,3761 -9945,-3856 -6957,1853 -1107,-4679 -14904,-240 -13272,-7075l2066 -4995c-2450,-176 -4624,918 -6469,2256l-633 448 -289 262 -176 131 -72 72 -154 32 59 0c-2170,6342 18009,-54765 9542,-28913l-63 -5 1740 -763 2749 -1149 -27 2532c3372,-6831 7133,4412 10175,-3372 -22665,43559 -7834,15636 -17566,13249 -7323,-3422 -15736,-5501 -22666,-12567 2125,479 4503,1768 5877,737 -3743,-5497 -6333,-4629 -11853,-6776 1817,-271 -8119,-11003 -12725,-17332 -8964,-3123 -8788,2179 -11003,3942 -746,-2857 -2671,-4968 -5167,-6677l-5022 -3367 -2839 -1646 -1442 -845 -678 -452 -95 0 -13 -9c890,-13399 -1940,29903 2002,-30029l32 -59 14 -91 257 -135 407 -217c8752,-5511 25455,-11988 29871,-6338 -2902,-624 -19157,6772 -7133,5877 9488,7788 21160,-5045 33908,1948l-2034 -7156c6414,5673 19225,109 16309,6256 2432,-1699 16319,4842 14737,-1903 22105,9317 48816,3070 58572,10759 1279,-1989 5876,-2477 3277,-4959 -3897,-2500 -2233,3589 -4050,1881 1112,-895 741,-2573 510,-3477 3721,651 4697,-958 6108,5411 1943,-456 2585,-1781 2979,-2866 2526,31526 -2319,10253 -2338,18471 -406,2418 -3648,4805 -10519,2414 995,-2541 181,-3820 -5619,-3689 -4036,1121 -5953,2789 -11793,3400 -17919,-3920 -8408,-7491 -7861,-11844 -7242,-1076 -14520,-3784 -18512,-1397l-6125 -7762c2269,2772 732,3074 -1745,2631l-4064 -994 -18 -27 -81 68c3725,-12242 -8377,27308 8372,-27449l49 -9 41 50 59 32 294 9 447 181 1017 185 1497 86 -3282 122c587,2247 8281,3359 12232,3987 -90,-2970 -7260,-6329 -11165,-8313 3833,-959 8747,1085 13742,153 -2722,3811 9470,6175 14425,8142 5510,2721 7743,-1763 9321,-1103 -475,2269 9366,3300 3865,4945 -2125,100 -3784,-3490 -7699,-2558 3345,2780 1795,6423 10569,6089 6636,-235 999,-8738 11514,-2658 -3314,180 -4358,1650 -7111,2495l9909 5411 1654 -3666c1140,1379 9,1401 584,2102 4402,-3042 16535,3802 20369,-63 5474,1211 10496,6134 15505,8145l-1117 64c5841,4425 9199,3774 18864,3051l-515 805c4037,1265 13629,2933 17946,1799 7603,5275 -1130,15415 9493,13209 9050,2554 13869,-5045 11568,-7658 4882,1519 16486,4276 16093,1184l1383 -190 976 339 556 330 317 113 31 64 73 4c854,-7730 -7703,67459 -4109,35667l-37 -86 -207 -181c-2157,-2179 -3902,-4557 -5118,-7640 -2314,14 -2156,1619 -5406,-18 -14565,-12313 -40323,-13575 -55855,-25879 7034,9 1451,-3752 1867,-6022 -6392,2134 -5637,-5316 -9127,195 -352,3657 -1274,5167 4674,8263 -13692,-1645 -35155,-6410 -42686,-12042 3657,2658 271,2915 -3246,3137 2355,-5538 -7775,-8503 -17006,-9706l-2237 2979 -4358 -5325c-1844,68 -3341,1411 -5402,2157l-1532 271 -923 -14 -271 5 -99 -82 -23 50 -108 -4c4561,-23376 -9991,52211 10071,-52279l520 -37c1424,19 3286,367 5497,1551 511,1343 994,2830 2554,4032 9195,-1501 25328,-5994 33777,308l6514 7205c4190,529 12024,-547 5234,-3964 15930,7309 24036,11726 27607,17431 27981,-1971 66093,11879 91345,18488l-1379 2410c6351,3634 4439,-3947 8711,-1352 -2631,2084 4452,6252 -1465,8444 10225,4973 12138,-3951 17133,-4362 687,-3359 -3947,1935 -3074,-2351 2251,-660 6432,1433 3621,-2427 -954,2278 2897,4991 3923,7269 -953,-1157 -2441,-1569 -3575,-1252 7689,3295 3946,9262 7590,16183 1812,-475 3241,-1180 3625,-2586 8544,2283 -10610,11979 3829,7301 2034,-3567 2219,-7179 972,-8991 -127,-2717 -4209,10944 -4127,5740l-647 312c484,-3883 -1478,8974 1040,-8688l-380 -113 -1672 -393c-5628,14759 -11125,9877 -17499,6717 502,-4235 5800,5773 7987,1623 367,-6537 -9307,-6690 -12575,-11446 3426,5714 -3748,6076 -7830,4281 -4141,-6437 6858,-881 -999,-7793 -3074,1315 -12662,-2649 -6821,4028 -7251,3300 -7861,-8078 -16224,-7319 -389,-6039 16088,-2491 7029,-11550 -732,5059 -16716,-3878 -14972,5723 -3616,-4127 -1984,-7368 2857,-7626 -6288,-7590 -18579,-3124 -15545,-11997l-4937 2454c-1121,-2798 -3331,-5899 -5144,-10211 -5709,-4096 -20347,-7400 -15677,-12852 -2310,-890 -13141,-9154 -11816,-1998 4940,7224 10329,3223 10207,11500 -1781,-8299 -10858,-7432 -15596,-8489l954 -2685c-2857,-810 -7811,-5054 -10921,-3572 2567,-45 2807,-2278 1356,-4213l-4548 2247c-9262,-2852 1872,-7423 -7129,-11256l8011 895c-1709,-190 -2848,-5370 -7654,-6726l-339 266c9896,-20129 -22204,45033 22237,-45159l22 14 86 -68 212 -113 787 -461 1641 -1004 3417 -1813 5999 -3313c6736,1022 782,5076 8363,4091l-9678 787c-1800,637 2386,7978 10510,11432 5813,1067 15979,-583 8783,-6012 4041,1627 8765,6242 4448,7440 9642,2749 402,-4317 9163,-3132 2310,3702 10442,11649 16007,17571l-10967 2545 5597 2404c-9380,1831 2531,5118 -3739,8562 3730,2364 9263,2536 13670,2703 -8688,-12661 17621,-6093 17056,-14777 17141,4218 2983,21884 24632,16798 -2016,-3015 8245,-5592 -2853,-7368 13195,5808 4579,-6356 19181,2066 -11641,-588 8435,11400 -8119,10808 -344,-2938 -4860,-3851 -7161,-4046 2586,4186 -2983,7576 5448,10605 7508,1632 15667,4742 15984,439 1446,-4430 -9873,-3192 -4173,-6013 13150,3147 12549,10447 20035,4399 -7450,-1835 -7938,-7219 -6681,-10004l9122 1212 -2545 2350c12219,6270 6134,-3512 16825,271l3260 6682c-2283,5483 -15885,-6438 -16053,2210 8119,2744 12138,-429 17260,2441l-4761 959c448,447 7089,12661 9055,5853 -3571,-949 -2220,-2273 -3237,-5379l-1708 1234 -190 154 -95 63c-4616,86757 -1270,24072 -2269,43415l-86 -46 -118 -108 -533 -316 -1017 -624 -3834 -2247 -6437 -3255c-3878,-1943 -7165,-3390 -11039,-6175 5398,-3521 -12892,-11075 -723,-9366 1582,5972 18593,19040 26806,18046 45,-2157 656,-2744 1582,-2491l796 375 127 122c714,-13674 -1592,30427 1636,-30603l32 -64 18 -36 67 -221 362 -710c2590,-5 -2622,-655 -2852,3291 7178,366 5148,6342 10465,10189 135,12770 -5719,1144 -7242,3779 -4064,2459 -475,5194 -3318,8725 -9954,-9439 -21875,-15953 -30310,-17187 -2274,-4579 1487,-7192 5963,-4073 -12961,-9724 -28226,-19456 -40350,-29781 4389,11826 -15546,-8462 -13164,475 6135,6066 9295,14348 3594,14406 -4055,-3336 1935,-2508 990,-5013 -7811,-447 -5031,-11079 -14104,-9628 13973,6581 7324,-5673 12748,-8806 -10976,-3472 2681,-3083 -6568,-9208 -11003,-3535 -23778,-9050 -34898,-14918 -9913,-12874 -32190,-23737 -43853,-31878 -321,-9475 -4823,-2247 6858,-20509 9429,1460 -6334,-8087 7422,-2780l-1591 1030c4651,-714 24564,8585 30974,394l-5962 5985c2377,1066 5185,-100 7391,-141 -462,2234 1848,5104 -2514,5289 6853,7093 17151,4503 26002,7052l-4403 -5641c16287,1473 24871,8869 39613,12526l-1732 3625 9331 737c-3377,2871 3634,8173 9307,6252l-25387 1786c-5388,-4358 8277,-2202 5682,-7260 -2187,-4408 -15862,-7979 -19157,-5131 4914,2197 5447,1451 9796,1460 -50,5813 -7681,2993 -12766,5149 2712,750 6035,3585 7165,2102 -6144,741 -11586,-719 -20198,-3151 6487,-280 -2165,-4267 570,-5076 -2251,4430 -10840,3345 -21115,-1280 -6234,-8629 -20948,-370 -32588,-4384 5492,-4073 12784,-6899 21056,-7473 -7657,-3842 -9014,-1392 -16843,-5271l-6925 5226 -4656 2238c2626,-7242 -9814,17403 4945,-16161l3562 1401 -1813 3192c8919,4299 12242,50 21418,8073 15334,14199 33786,26165 47131,35409l-1506 3458c11790,-1659 26657,14362 38858,18502 15541,14036 39409,24027 43952,36042l11478 7888 5619 3892 2834 1940 651 506 226 81 63 5c968,-17820 -1302,24383 -1048,20052l-50 5 -176 68 -624 420 -2640 1361c-15483,7635 -24967,3838 -34988,3001 -19443,-3738 -34921,-10360 -53468,-17399 5112,-54 5501,-1840 8534,-2649 -7115,1736 -4389,-4778 -10058,-6039 5565,6659 -10682,1826 -16287,3155 -14217,-10126 -35766,-12720 -51452,-15871l818 -3558c-8466,36 -16517,-3223 -24464,-7608l-12097 -7070 -6179 -3630 -3201 -1704 -1555 -868 -99 -81c29432,-59842 8145,-16558 14745,-29916l36 -41 37 50 226 144 416 290 813 538c1510,2558 3115,7377 8598,10116 13137,330 16785,4494 32073,10628 8774,6925 21811,18448 28849,26106 19511,9569 36874,18732 55679,33894 8986,9294 19230,13887 27344,35282 -15537,56424 -37090,35174 -49761,43234l-3910 -4390c-52492,3951 -95314,-25784 -130483,-31638l5506 -5778c-9701,-6310 -23575,-5429 -22440,254 -9561,-5692 -24401,-2568 -29207,-8449 -4579,-1307 -7607,-787 -10252,4l-493 95 -230 55 -177 67 -49 37c19063,-99360 5280,-27512 9588,-49744l18 23 1211 -154 2382 -90 5416 443c18276,8783 27367,9773 48414,13507l-5108 -1663c-2640,1057 -3594,4014 1474,5722 8435,-94 29048,9313 23280,-1220 21101,10863 59340,13977 78253,39744 -334,-3454 5674,1012 9222,2061l1854 1727 971 872 489 403 253 208 68 113 58 13c4797,-42176 -6563,57582 -5383,47284l-32 0 -68 104 -6998 2617 -14858 4024c-11157,2640 -19167,1867 -24298,158 -12526,-2391 -24003,-4710 -31792,-5176 -2952,-2098 6139,-2504 -2021,-5081 -5212,-466 -931,2983 -7336,2572 -24067,-814 -68955,-24356 -91725,-30102l-19424 -4484 -9715 -2482 -4900 -1202 -2387 -683 -1247 -330 -561 -162c7735,-25392 -17358,56727 17372,-56877l100 82 158 0 316 86c10949,1663 30559,11034 32529,8267 7224,778 12391,403 22883,2564 5519,1532 7468,352 15745,4402l11206 6591 5081 3883 2382 2075 574 479 168 163 0 32c-1673,-31878 2463,43554 2079,35779l-276 299 -877 1075c-21101,26418 -44250,24628 -58965,26296l710 -1826c-21947,7458 -45078,-10809 -58192,-2333 687,-1727 -18850,-4005 -12933,-6478 -8977,1013 -16843,-2793 -24546,-4570 -2807,-533 -8019,-2111 -9221,-1691l1021 520c-624,-1916 -2170,-4963 -3847,-7228l-2933 -3440 0 -32c7427,-54548 2192,-15247 3883,-27452l199 -168 709 -723 1533 -1469 2942 -3042c2482,-2478 914,-651 1479,-1180l605 72c4259,6279 -5786,-20717 -10496,34885l3553 4836 -2428 -3530 -1423 -1677 -412 -366 -54 -140 -90 -46c1740,-12196 -3743,27213 3747,-27303l217 -217 1415 -1388c1433,-1406 5253,-5339 4344,-4231l1306 1419c999,913 1537,1641 3662,3115l11364 7124c8020,4765 16509,9819 24537,17413 -2264,-615 -5876,-2373 -7368,-1261 4864,7025 20925,5763 19605,15283 4127,3165 5628,-940 2902,-2924 8951,13136 21486,8123 30685,47347l163 1510 -9 813 54 358 -31 216c-35527,43225 -9887,12016 -17820,21599l-32 32 -1830 235 -3721 524 -7495 687 -15134 362c-9290,-1686 -18041,-6243 -26703,-10343l-786 -370 -86 -77c-14068,42650 19135,-58115 15691,-47664l81 -68 172 9 312 64 1505 122 2766 244 5764 524 11468 1225c8119,656 13607,2988 20532,4530 13480,3358 24325,7974 35124,11106 26436,14954 1962,16012 24239,17137 1279,2188 2405,-2531 2066,-818 8756,882 11617,13611 19524,11301 -1415,-5745 5334,-1532 6455,-4543 19392,9588 22082,14032 40517,17743l-2319 1930c5682,470 11545,1818 17340,3644l2134 741 1103 371 479 199 190 0c-470,17458 1062,-38939 -1045,39043l-85 50 -141 54 -424 226 -7880 2920c-6297,2080 -10279,2315 -13154,2378 -14321,1080 -24392,-176 -35386,1713 -16577,-6848 -28710,-2228 -53721,-31566 -3318,-6474 -5456,-15682 -4968,-23818l619 -5823 240 -1370 54 -320c20220,-30306 5678,-8454 10302,-15275l339 -172 1157 -795 5176 -3101c6867,-3784 16134,-7369 19999,-7256 11717,-1758 17833,-1492 22751,-2025 1424,2075 -99,-5922 3946,5054 24637,-13286 11613,-3757 19343,-6758l16681 -100 19343 -1288 9656 -556 2346 -163 1238 -90 597 4 335 -81 140 -23 54 73c-4100,29952 9244,-67115 -9168,67187l-2983 -434c-21829,-5058 -46850,-2762 -85301,-21323 -6880,-5867 -9561,-3254 -18954,-17525 -3698,-6044 -6419,-13078 -7830,-19511l-194 -1229 -190 -615c-32163,35761 43817,-49092 36024,-40304l144 -68 886 77 1659 198 3454 308c8996,786 18977,1632 27109,3517 14755,4344 29695,8164 43722,15541 11522,3937 33447,20527 42528,30070 3513,4896 8096,5199 14289,24790 10981,9046 -14691,52994 -20599,47994 -18584,9439 -23131,7942 -24917,9294l-77 -131c-2504,-6501 -9122,-17716 -7879,-17621l-3119 -6197 -2717 -2469 -1600 -1030 -384 -258c26309,-73019 7332,-20206 13195,-36512l149 46 4656 1532c1496,1044 10352,3205 15686,4796 6767,2134 16355,5547 25174,10013 5714,3892 11347,8354 16468,13173l3784 3648 1727 1948 217 217 59 108c3874,83959 1062,23344 1876,42145l-457 587 -958 1302 -8390 9493c-26436,23692 -51940,18932 -63671,19393 -17101,-6487 -13493,14013 -22787,-15975 11983,-57401 4136,-33605 24315,-31788 4466,1754 8530,2965 15392,8467l8716 7454 3987 4023 1894 2043 926 1022c12599,57297 3436,16052 6257,28759l-68 267 -140 334 -321 782c-5036,14854 -22512,35843 -29813,35997 -38478,10605 -35553,5808 -67684,13195 1198,-1243 3069,-1646 954,-2613 -1144,5985 -21391,1917 -24578,6519 -23615,-3585 -41823,-570 -73164,-20184 -6143,-2369 -15889,-11591 -21300,-29098l-2604 -11532 -547 -5416 -72 -664 -41 -285 -63 -221 72 -73c-9891,-8168 85939,70876 45322,37393l-1134 290 -2315 438c-6008,1284 -14090,1858 -16965,1402 -16640,-1216 -27602,-4774 -41638,-11261 9000,3820 14493,217 4796,-3232l-12002 -1971 -953 -2757c-7898,-4363 -17965,-9430 -11591,-1479 -7459,-10085 -29301,-17996 -16513,-62423 26838,-34310 31055,-21992 41927,-29016 17512,-4372 30690,-4494 45593,-4928 7862,290 14068,95 23353,1483 6243,1338 4986,-384 17829,3974l7431 3177 3522 1849 1632 990 438 222c-13064,-38392 18046,52478 14741,43215l-40 168 -403 800 -6649 12562c-9046,16997 -27711,22607 -31065,24514 -3349,1280 -6319,2582 -5171,2080 -995,-1225 2002,2667 -2423,-3115l-3847 -4606 -1031 -1121c-963,47578 1094,-65181 864,-53504l77 9 104 4 379 150 1433 551c9208,5086 45028,15876 59218,19189 11333,2211 22544,3883 36548,6731 6437,959 13457,2500 21581,5434l11482 3951 2915 963 733 230 384 118 50 54c11938,-56479 -16071,76965 -13245,63214l-208 41 -1420 -18 -5808 -32c-7174,-1302 -13381,958 -32335,-7540l-11089 -6243 -1297 -850 -267 -244 -185 -126 -64 -32 -113 4c-18940,-57613 -5261,-16007 -9456,-28894l339 -1036 1668 -4176 4696 -8811c7974,-12675 20727,-20093 24325,-19786 27100,-8485 39500,-5420 53983,-6351 19447,2766 37348,6821 52754,8241 11667,1514 38939,-3757 14759,20125 -1410,-4521 -7124,-11726 -12399,-24989l-3138 -10325c-1880,-18181 1357,-12219 2152,-19415 2075,-7979 9272,-16116 15207,-20871 12897,-9746 24284,-12034 27014,-14543 -1433,-2644 8806,9344 6125,6067 -13981,31557 -5212,7007 -8783,13236 5746,-3928 12675,-5447 13620,-13702 5361,-2364 -11681,14515 -6893,10411 5632,-21621 9601,325 -6677,3928z"/>
   <g>
    <path class="fil2" d="M451955 615428c63345,-76391 202733,-131812 321522,-115823 16486,2391 32818,6125 49028,11062 86522,26530 166123,88044 215649,173133 49503,85170 68123,194506 31670,313236 -6799,22534 -15745,45453 -26757,68611 -17322,35608 -52690,60339 -90770,80799 -38257,20215 -80256,35042 -112876,44567 -60741,17272 -142837,8647 -223731,-15822 -64308,-19718 -127409,-49942 -175976,-88922 -48143,-38830 -83516,-87737 -84135,-145432 -375,-62002 8096,-127264 26463,-187644 15658,-51072 38482,-98740 69913,-137765zm357378 -61736l0 0c-13968,-4254 -28199,-7436 -42352,-9493 -98903,-15541 -232636,38921 -279970,99563 -26811,33171 -47551,75790 -61876,122563 -16925,55317 -24890,116519 -24591,174318 77,37588 24659,76115 67418,110525 42424,34197 101177,62744 160928,80948 74841,23185 152073,29369 197887,15632 30373,-8720 70212,-23028 104454,-41132 34510,-17910 62432,-40725 71184,-60240l20347 9629 -20347 -9629c10058,-21241 18118,-42117 24383,-62517 64941,-213429 -66505,-383416 -217465,-430167z"/>
   </g>
   <g>
    <path class="fil2" d="M1447788 574839c-3820,18769 -15433,26078 -27199,32240 -15623,7544 -34089,11337 -42827,15772 -34998,17141 -69999,34170 -105123,51379 -27191,13240 -54526,26612 -81830,39956l-19817 -40489c27376,-13367 54647,-26676 81965,-39979 35020,-17101 70008,-34252 105028,-51380 12002,-5664 29469,-9136 42840,-15704 10275,-4611 16685,-12160 16861,-16404l30102 24609z"/>
   </g>
   <g>
    <path class="fil2" d="M956397 0l-50 5 50 -5zm41064 18520l0 0c-32493,71369 -70104,125520 -83896,195600 -10636,52921 -22733,106683 -36602,158397l-43509 -11663c13471,-50502 25473,-103355 35838,-155567 16536,-81106 57270,-138805 87055,-205282l41114 18515z"/>
   </g>
   <g>
    <path class="fil2" d="M2021 487865c0,0 0,0 108,-27l-140 59 32 -32zm37560 -24966l0 0c38311,58580 115502,89744 193164,113138 23443,7233 46822,13787 68927,20572l-13163 43062c-21522,-6505 -44902,-13154 -68923,-20554 -78995,-24465 -167189,-56239 -217457,-131279l37452 -24939z"/>
   </g>
   <g>
    <path class="fil2" d="M167731 1132188c20998,-10139 44242,-8286 52713,-17390l31386 32308c-18385,15663 -44490,12557 -56311,19994 -9579,5166 -18557,12571 -27051,21101 -15193,15035 -28962,33605 -44391,49070 -30775,30657 -61527,61202 -92375,91842l-31702 -31874c30744,-30644 61501,-61266 92213,-91860 14311,-14163 28094,-32823 44409,-49110 9262,-9236 19329,-17675 31109,-24081zm52628 -17435l0 0 85 45 -85 -45z"/>
   </g>
   <g>
    <path class="fil2" d="M594702 1319882l41737 17015c-1659,3915 -3096,7942 -4344,12097 -21884,68109 7377,165181 5542,250731l-44969 -1370c3186,-74149 -29618,-174105 -3594,-262566 1605,-5356 3453,-10605 5628,-15907z"/>
   </g>
   <g>
    <path class="fil2" d="M974352 1266229c40001,26417 46949,69031 60280,94902 6718,14104 12685,32950 19171,50539 5909,17304 14055,33944 16048,35332l-32981 30576c-12364,-14149 -18181,-31598 -25355,-50399 -6682,-18375 -13010,-37565 -17485,-46619 -15551,-34455 -23484,-64620 -43713,-76170l24035 -38161z"/>
   </g>
   <g>
    <path class="fil2" d="M1182094 1054233c56239,17236 112437,34405 168672,51619l-13150 43071c-56248,-17228 -112465,-34419 -168686,-51628l13164 -43062z"/>
   </g>
   <g>
    <path class="fil2" d="M571015 67780l41696 16992c-1645,3924 -3074,7938 -4326,12106 -21910,68128 7323,165218 5551,250736l-45019 -1361c3187,-74117 -29618,-174078 -3621,-262548 1682,-5379 3458,-10636 5719,-15925z"/>
   </g>
  </g>
 </g>
</svg>
