<?xml version="1.0" encoding="UTF-8"?>
<!DOCTYPE svg PUBLIC "-//W3C//DTD SVG 1.1//EN" "http://www.w3.org/Graphics/SVG/1.1/DTD/svg11.dtd">
<!-- Creator: CorelDRAW X7 -->
<svg xmlns="http://www.w3.org/2000/svg" xml:space="preserve" width="23.9211mm" height="20.6908mm" version="1.1" style="shape-rendering:geometricPrecision; text-rendering:geometricPrecision; image-rendering:optimizeQuality; fill-rule:evenodd; clip-rule:evenodd"
viewBox="0 0 517126 447294"
 xmlns:xlink="http://www.w3.org/1999/xlink">
 <defs>
  <style type="text/css">
   <![CDATA[
    .str0 {stroke:#663300;stroke-width:9150.9;stroke-linecap:round;stroke-linejoin:round}
    .fil0 {fill:#AB5623}
    .fil1 {fill:white}
   ]]>
  </style>
 </defs>
 <g id="Layer_x0020_1">
  <metadata id="CorelCorpID_0Corel-Layer"/>
  <path class="fil0 str0" d="M38986 230740c143,-9551 1044,-18959 2704,-28203 1652,-9330 3312,-18589 4895,-27840 291,-1582 603,-3152 745,-4734 227,-1503 824,-2864 1886,-4071 1277,-1868 2782,-3009 4358,-3301 1582,-305 3305,-149 5115,448 1802,603 3541,1349 5264,2334 1731,980 3391,1726 4818,2329 7223,2786 14439,5348 21506,7676 7078,2326 14294,4888 21588,7521 1057,445 2412,899 4144,1425 1725,525 3461,1057 5257,1731 1738,675 3392,1434 4745,2335 1427,908 2478,1807 3087,2858 675,1660 973,3528 753,5714 -227,2261 -681,4446 -1434,6619 -752,2183 -1582,4369 -2406,6399 -836,2034 -1502,3909 -2105,5491 -1356,4434 -2705,8805 -4144,13012 -1427,4285 -2852,8571 -4356,12785 -3087,9849 -4888,20156 -5336,30836 -155,2105 -460,4369 -914,7008 -448,2547 -668,5102 -746,7813 -78,2637 78,5115 454,7599 376,2404 1206,4511 2553,6249 2108,2476 4436,3825 7073,4058 2556,221 5195,376 7904,376 3833,0 7664,-78 11354,-233 3753,-143 7443,-376 11202,-668 6548,-454 12792,-824 18886,-1206 6016,-377 12253,-299 18654,304 6016,604 11955,967 17971,1194 5945,233 11961,233 18133,-72 2030,-155 4358,-220 6989,-220 2640,0 4968,-532 7074,-1505 3242,-1658 5270,-3766 6094,-6399 901,-2702 1206,-5569 901,-8640 -979,-10537 -2105,-21143 -3383,-31751 -1284,-10528 -2484,-21285 -3612,-32118 -824,-7371 -1427,-14737 -1885,-22037 -377,-7365 -746,-14744 -1045,-22044 0,-3087 78,-6159 221,-9252 156,-3085 1204,-5939 3085,-8641 1206,-1440 2711,-2491 4663,-3165 1878,-675 3908,-1128 6094,-1349 2105,-227 4213,-311 6392,-227 2106,71 4071,227 5867,370 7975,298 15801,681 23540,1057 7755,447 15503,1284 23250,2477l-3234 45584c-758,9551 -1582,19035 -2561,28436 -973,9408 -1576,18879 -1888,28430 -142,9856 -142,19638 -64,29487 64,9782 -221,19631 -824,29708 -78,2559 -156,5192 -156,8057 0,2853 -305,5635 -823,8344 -459,2711 -1438,5115 -2943,7301 -1426,2172 -3599,3755 -6463,4810 -3989,1206 -8345,1653 -13239,1348 -4812,-298 -9331,-441 -13395,-441 -9849,299 -19780,370 -29707,299 -10005,-78 -20079,-156 -30155,-299 -10839,-155 -21441,221 -31982,1122 -10515,831 -21285,1207 -32260,1058 -5117,0 -10083,-156 -14964,-532 -4973,-370 -10005,-603 -15055,-746 -2251,-305 -4434,-532 -6684,-603 -2264,-78 -4512,-221 -6698,-532 -3467,-292 -6924,-674 -10385,-1193 -3535,-536 -6918,-154 -10232,1193 -2776,1057 -5257,233 -7521,-2397 -2250,-2562 -4135,-5874 -5705,-9863 -1660,-3986 -3022,-7981 -4070,-12032 -1057,-3982 -1946,-6847 -2484,-8494 -1570,-5569 -3230,-10910 -4888,-16183 -1654,-5258 -3009,-10606 -4060,-16019 -1881,-9175 -3305,-18499 -4369,-28125 -966,-9629 -1349,-18959 -1044,-28060zm311682 -163123c0,-1959 -78,-3844 -221,-5640 -155,-1816 -78,-3464 221,-4966 149,-1732 1347,-2867 3681,-3236 2335,-376 4365,-759 6094,-980 -1949,-155 -3234,-453 -3837,-901 -668,-525 -1044,-1284 -1122,-2261 -155,-1051 -382,-2108 -681,-3386 -220,-1199 -369,-2107 -369,-2711 -312,-3000 -681,-6385 -1207,-10151 -531,-3755 -752,-7443 -752,-10976 -460,-2328 -679,-4293 -679,-6018 0,-1730 374,-3085 977,-4064 681,-1051 1888,-1797 3535,-2335 1725,-525 4135,-902 7378,-1057 4356,-292 8727,-601 13006,-1049 4362,-441 8798,-901 13316,-1349 824,0 2562,-233 5186,-674 2633,-461 5271,-830 8047,-1064 2711,-298 5192,-298 7378,0 2185,234 3236,1142 3236,2646l-383 668 0 -227 383 -441c-78,746 -78,1568 154,2625 220,1057 363,2030 518,2853 150,915 150,1738 -77,2568 -221,822 -822,1347 -1866,1646 -2043,1057 -4449,1582 -7158,1582l-7372 0c-4663,227 -9330,376 -14069,448 -4654,84 -9401,155 -14218,311 -1426,0 -2393,668 -2853,2030 -454,1347 -603,3007 -526,4888 72,1874 305,4356 675,7443 376,3007 597,4738 752,5037l0 908c0,376 156,1582 383,3605 220,2028 603,3312 1050,3916 454,603 1505,1057 3088,1277 1275,305 3227,0 5867,-979 2708,-979 9017,-1803 18956,-2478 9919,-674 11274,-454 4058,753 -7145,1200 -10456,1803 -9853,1647 4881,-824 9698,-1569 14367,-2400 4590,-752 9322,-1277 14218,-1589 299,-289 526,0 668,980 231,979 309,2263 374,3846 156,1647 156,3383 227,5179 0,1888 78,3535 78,4972 298,2108 454,3982 525,5792 78,1729 0,3688 -292,5718 370,901 1272,1502 2776,1872 1505,376 1816,603 902,759 -973,155 -1051,220 -448,220 681,0 1271,-142 1732,-447 -7670,603 -13395,1050 -17150,1355 -3837,299 -4661,824 -2631,1732 -10685,1654 -17986,2782 -21817,3377 -3839,603 -7825,1206 -12041,1660 -1580,227 -3377,603 -5478,986 -2105,363 -4070,745 -5873,1044 -1810,227 -3909,78 -6172,-454 -2251,-590 -3831,-1952 -4661,-4278 0,-1207 0,-2789 0,-4670 0,-1809 0,-3681 0,-5562zm227 58818c0,-6308 1502,-10978 4511,-13920 3010,-2931 6698,-4883 11054,-5785 4371,-977 9038,-1360 13920,-1133 4967,234 9323,312 13310,312 1427,0 3612,0 6619,-78 2932,-78 5870,0 8727,298 2867,296 5336,822 7443,1645 2108,837 3088,2030 2945,3691 -454,5867 -681,11656 -603,17452 71,5860 71,11658 71,17526 156,6775 78,13543 -149,20163 -298,6697 -603,13381 -1057,20078 -448,6698 -902,13395 -1349,20157 -454,6775 -759,13615 -902,20539 -603,21285 -830,42421 -758,63337 77,20909 525,41967 1433,63109l-979 5712c-6172,1952 -12409,3839 -18730,5795 -6237,1881 -12493,3678 -18652,5487 -3087,1055 -6399,1879 -9862,2638 -3455,745 -6763,376 -9997,-1135 -2406,-971 -4137,-2631 -5117,-4817 -977,-2173 -1580,-4654 -1800,-7365 -227,-2709 -227,-5491 -78,-8280 155,-2773 233,-5102 298,-7067 78,-6159 227,-12175 448,-18049 233,-5873 374,-11734 529,-17610 149,-5938 227,-11805 227,-17750 78,-5939 0,-11955 -227,-17971 -672,-12191 -1120,-24372 -1275,-36483 -149,-12110 -227,-24294 -149,-36482 0,-12338 71,-24597 71,-36930 78,-12260 78,-24597 78,-37084zm62960 -118990l0 -233 0 233zm-257306 396375c0,-383 0,-830 -78,-1206 -71,-376 -71,78 78,1206zm0 0c298,597 454,1057 454,1355 0,292 -156,-155 -454,-1355 -305,-2186 78,-3995 1057,-5342 1057,-1427 2404,-2484 4213,-3165 1726,-746 3535,-1349 5414,-1803 1952,-447 3690,-823 5259,-1048 4214,-902 8427,-1660 12493,-2328 4058,-681 8202,-1362 12338,-2108 2406,-454 4207,-234 5491,668 1206,836 2107,2108 2633,3612 519,1581 901,3241 1200,5037 226,1810 447,3539 667,5122 459,3982 1062,7974 1886,11961 823,3988 1355,8046 1660,12190 298,2326 78,4201 -681,5562 -746,1427 -1803,2482 -3150,3306 -1440,824 -3009,1349 -4747,1654 -1807,311 -3610,531 -5485,681 -4142,596 -8202,1426 -12266,2406 -3982,1044 -8124,1878 -12415,2404 -3158,298 -5785,-143 -7891,-1269 -2029,-1207 -3612,-2867 -4740,-4975 -1055,-2099 -1736,-4732 -2035,-7741 -298,-3020 -447,-6016 -447,-8881l0 -8571c0,-2932 -156,-5349 -454,-7372z"/>
  <polygon class="fil1" points="517126,102407 502776,77555 0,367833 14348,392687 "/>
 </g>
</svg>
