<?xml version="1.0" encoding="UTF-8"?>
<!DOCTYPE svg PUBLIC "-//W3C//DTD SVG 1.1//EN" "http://www.w3.org/Graphics/SVG/1.1/DTD/svg11.dtd">
<!-- Creator: CorelDRAW X7 -->
<svg xmlns="http://www.w3.org/2000/svg" xml:space="preserve" width="18.353mm" height="20.6908mm" version="1.1" style="shape-rendering:geometricPrecision; text-rendering:geometricPrecision; image-rendering:optimizeQuality; fill-rule:evenodd; clip-rule:evenodd"
viewBox="0 0 295914 333608"
 xmlns:xlink="http://www.w3.org/1999/xlink">
 <defs>
  <style type="text/css">
   <![CDATA[
    .str0 {stroke:#663300;stroke-width:6825.07;stroke-linecap:round;stroke-linejoin:round}
    .fil0 {fill:#AB5623}
   ]]>
  </style>
 </defs>
 <g id="Layer_x0020_1">
  <metadata id="CorelCorpID_0Corel-Layer"/>
  <path class="fil0 str0" d="M3488 172094c106,-7123 778,-14140 2017,-21035 1231,-6959 2470,-13864 3650,-20764 218,-1180 450,-2350 556,-3531 169,-1120 614,-2136 1406,-3036 953,-1393 2075,-2244 3251,-2462 1180,-227 2465,-111 3814,334 1345,450 2641,1006 3927,1741 1291,731 2529,1287 3593,1737 5387,2078 10769,3989 16040,5725 5279,1735 10661,3646 16101,5610 788,332 1799,670 3091,1062 1287,392 2581,789 3921,1292 1296,503 2530,1069 3539,1741 1064,677 1848,1348 2303,2132 503,1238 725,2631 561,4261 -170,1687 -508,3317 -1069,4937 -561,1628 -1181,3259 -1795,4773 -624,1517 -1120,2915 -1570,4095 -1011,3307 -2017,6567 -3091,9705 -1064,3195 -2127,6393 -3249,9535 -2302,7346 -3646,15034 -3979,22999 -116,1570 -344,3258 -682,5227 -334,1899 -499,3805 -557,5827 -58,1967 58,3815 339,5667 281,1793 900,3365 1904,4662 1572,1846 3309,2852 5276,3026 1906,164 3874,280 5895,280 2858,0 5715,-58 8468,-174 2799,-106 5551,-280 8355,-498 4884,-338 9540,-614 14085,-900 4487,-280 9139,-222 13913,228 4487,450 8917,721 13404,890 4434,174 8921,174 13524,-53 1514,-116 3251,-165 5213,-165 1968,0 3705,-397 5275,-1122 2419,-1237 3931,-2809 4546,-4773 672,-2015 899,-4153 672,-6444 -730,-7859 -1571,-15769 -2523,-23681 -958,-7852 -1853,-15875 -2695,-23954 -614,-5498 -1064,-10992 -1406,-16437 -280,-5493 -556,-10996 -778,-16441 0,-2302 58,-4593 164,-6901 116,-2300 898,-4429 2301,-6444 900,-1074 2022,-1858 3478,-2361 1401,-503 2915,-841 4545,-1006 1570,-169 3142,-232 4768,-169 1570,53 3036,169 4376,276 5948,222 11784,508 17556,788 5784,334 11563,958 17341,1848l-2412 33998c-566,7123 -1180,14197 -1910,21209 -726,7017 -1176,14080 -1408,21204 -106,7350 -106,14646 -48,21992 48,7296 -165,14642 -615,22157 -58,1909 -116,3873 -116,6009 0,2128 -227,4204 -614,6224 -342,2022 -1072,3815 -2195,5445 -1064,1620 -2684,2800 -4820,3587 -2975,900 -6224,1234 -9874,1006 -3590,-222 -6959,-329 -9991,-329 -7345,223 -14753,276 -22156,223 -7462,-58 -14976,-116 -22491,-223 -8084,-116 -15991,165 -23853,837 -7843,619 -15875,900 -24061,789 -3817,0 -7520,-116 -11161,-397 -3708,-276 -7462,-450 -11228,-556 -1679,-228 -3307,-397 -4986,-450 -1688,-58 -3365,-165 -4995,-397 -2586,-217 -5164,-503 -7745,-890 -2637,-400 -5160,-114 -7632,890 -2070,789 -3921,174 -5609,-1788 -1678,-1910 -3084,-4381 -4255,-7355 -1238,-2974 -2254,-5953 -3036,-8975 -789,-2970 -1451,-5106 -1853,-6335 -1170,-4153 -2409,-8137 -3645,-12070 -1234,-3921 -2245,-7910 -3028,-11947 -1403,-6843 -2465,-13797 -3259,-20977 -720,-7181 -1006,-14140 -778,-20928zm232463 -121663c0,-1461 -58,-2867 -164,-4207 -117,-1354 -59,-2583 164,-3703 111,-1292 1004,-2138 2746,-2414 1741,-280 3255,-566 4545,-730 -1454,-116 -2412,-339 -2862,-673 -498,-391 -779,-957 -837,-1686 -116,-784 -285,-1572 -508,-2525 -164,-895 -275,-1572 -275,-2022 -232,-2238 -508,-4763 -900,-7572 -397,-2800 -561,-5551 -561,-8185 -344,-1737 -506,-3203 -506,-4489 0,-1290 279,-2301 728,-3031 508,-784 1408,-1340 2637,-1742 1286,-392 3084,-672 5503,-788 3248,-218 6509,-448 9699,-782 3254,-329 6563,-673 9932,-1006 615,0 1911,-174 3869,-503 1963,-344 3930,-619 6001,-794 2022,-222 3873,-222 5503,0 1630,175 2413,852 2413,1974l-285 498 0 -169 285 -329c-58,556 -58,1169 115,1957 164,789 271,1514 387,2129 111,682 111,1296 -58,1915 -165,613 -613,1005 -1392,1227 -1523,789 -3318,1180 -5338,1180l-5498 0c-3478,170 -6959,281 -10494,334 -3471,63 -7012,116 -10604,232 -1064,0 -1785,498 -2128,1514 -339,1005 -450,2243 -392,3646 53,1398 227,3249 503,5551 281,2243 445,3534 561,3757l0 677c0,281 116,1180 286,2689 164,1513 449,2471 783,2920 339,450 1122,789 2303,953 951,228 2407,0 4375,-730 2021,-730 6726,-1345 14139,-1848 7398,-503 8409,-338 3027,561 -5329,895 -7799,1345 -7350,1229 3641,-614 7233,-1171 10716,-1790 3423,-561 6953,-953 10604,-1185 223,-216 392,0 499,730 172,731 230,1689 279,2869 116,1228 116,2523 169,3863 0,1408 58,2636 58,3708 222,1572 339,2970 392,4320 58,1290 0,2751 -218,4265 276,672 948,1120 2070,1396 1123,280 1355,450 673,566 -726,116 -784,164 -334,164 508,0 948,-106 1291,-334 -5720,450 -9990,784 -12790,1011 -2862,223 -3477,615 -1963,1292 -7969,1233 -13414,2075 -16271,2518 -2864,450 -5837,900 -8981,1239 -1179,169 -2519,450 -4086,735 -1570,271 -3036,556 -4381,779 -1349,169 -2915,58 -4603,-339 -1678,-440 -2857,-1456 -3476,-3191 0,-899 0,-2080 0,-3482 0,-1350 0,-2746 0,-4149zm169 43869c0,-4705 1121,-8188 3365,-10382 2245,-2186 4995,-3642 8244,-4315 3260,-729 6741,-1014 10382,-845 3705,174 6954,233 9927,233 1064,0 2695,0 4937,-59 2187,-58 4378,0 6509,223 2138,221 3980,613 5552,1227 1572,624 2302,1514 2196,2752 -339,4376 -508,8694 -450,13017 53,4371 53,8695 53,13071 116,5053 58,10101 -111,15038 -223,4995 -450,9981 -789,14976 -333,4995 -672,9990 -1006,15033 -338,5054 -566,10155 -672,15319 -450,15876 -619,31639 -566,47239 58,15595 392,31300 1069,47069l-730 4260c-4604,1456 -9255,2864 -13970,4323 -4651,1402 -9318,2742 -13911,4092 -2303,787 -4773,1401 -7356,1967 -2576,556 -5043,280 -7455,-847 -1795,-724 -3086,-1962 -3817,-3592 -728,-1620 -1178,-3471 -1343,-5493 -169,-2020 -169,-4096 -58,-6175 116,-2069 174,-3806 223,-5271 58,-4594 169,-9081 334,-13462 174,-4380 278,-8752 395,-13134 111,-4429 169,-8805 169,-13239 58,-4429 0,-8916 -169,-13403 -502,-9092 -836,-18178 -952,-27210 -111,-9033 -169,-18120 -111,-27210 0,-9202 53,-18346 53,-27544 58,-9144 58,-18345 58,-27658zm46958 -88747l0 -174 0 174zm-191908 295630c0,-285 0,-619 -58,-899 -53,-281 -53,58 58,899zm0 0c223,445 339,789 339,1011 0,218 -116,-116 -339,-1011 -227,-1630 58,-2979 789,-3984 788,-1064 1793,-1852 3142,-2360 1287,-557 2636,-1006 4037,-1345 1456,-334 2753,-614 3923,-782 3143,-672 6285,-1238 9318,-1736 3026,-508 6117,-1016 9202,-1572 1794,-339 3137,-175 4095,498 900,624 1572,1572 1964,2694 387,1179 672,2417 895,3757 169,1349 334,2639 498,3819 342,2970 792,5948 1406,8922 614,2974 1011,6001 1238,9092 223,1734 58,3132 -508,4148 -556,1064 -1344,1851 -2349,2465 -1074,615 -2244,1007 -3541,1234 -1348,232 -2692,396 -4090,508 -3089,445 -6117,1064 -9149,1794 -2970,779 -6059,1401 -9259,1793 -2356,223 -4315,-106 -5885,-946 -1514,-900 -2695,-2138 -3536,-3710 -787,-1566 -1295,-3530 -1517,-5774 -223,-2253 -334,-4487 -334,-6624l0 -6393c0,-2186 -116,-3989 -339,-5498z"/>
 </g>
</svg>
