<?xml version="1.0" encoding="UTF-8"?>
<!DOCTYPE svg PUBLIC "-//W3C//DTD SVG 1.1//EN" "http://www.w3.org/Graphics/SVG/1.1/DTD/svg11.dtd">
<!-- Creator: CorelDRAW X7 -->
<svg xmlns="http://www.w3.org/2000/svg" xml:space="preserve" width="113.147mm" height="19.2148mm" version="1.1" style="shape-rendering:geometricPrecision; text-rendering:geometricPrecision; image-rendering:optimizeQuality; fill-rule:evenodd; clip-rule:evenodd"
viewBox="0 0 14768465 2508006"
 xmlns:xlink="http://www.w3.org/1999/xlink">
 <defs>
  <style type="text/css">
   <![CDATA[
    .fil1 {fill:#985426}
    .fil0 {fill:#666666;fill-opacity:0.509804}
    .fil2 {fill:url(#id0)}
    .fil3 {fill:url(#id1)}
   ]]>
  </style>
  <linearGradient id="id0" gradientUnits="userSpaceOnUse" x1="7.86366e+006" y1="-1.34155e+006" x2="6.90482e+006" y2="3.36655e+006">
   <stop offset="0" style="stop-opacity:1; stop-color:#BF772B"/>
   <stop offset="1" style="stop-opacity:1; stop-color:#A26C2E"/>
  </linearGradient>
  <radialGradient id="id1" gradientUnits="userSpaceOnUse" gradientTransform="matrix(1.25965E-005 -0.138563 -1.10403 -8.66003E-006 7.66598E+006 1.83148E+006)" cx="6.6634e+006" cy="908178" r="3.85452e+006" fx="6.6634e+006" fy="908178">
   <stop offset="0" style="stop-opacity:1; stop-color:#FFEBB9"/>
   <stop offset="1" style="stop-opacity:1; stop-color:#FDE09C"/>
  </radialGradient>
 </defs>
 <g id="Layer_x0020_1">
  <metadata id="CorelCorpID_0Corel-Layer"/>
  <path class="fil0" d="M14329889 498461l-13891326 0c-210171,0 -382111,171927 -382111,382098l0 1245336c0,210171 171940,382111 382111,382111l13891326 0c210171,0 382111,-171940 382111,-382111l0 -1245336c0,-210171 -171940,-382098 -382111,-382098z"/>
  <rect class="fil1" x="21" y="219197" width="14768464" height="2025030" rx="352444" ry="385052"/>
  <rect class="fil2" x="21" y="-4" width="14768464" height="2025030" rx="352444" ry="385052"/>
  <rect class="fil3" x="175908" y="143259" width="14416682" height="1738502" rx="400772" ry="385070"/>
 </g>
</svg>
