<?xml version="1.0" encoding="UTF-8"?>
<!DOCTYPE svg PUBLIC "-//W3C//DTD SVG 1.1//EN" "http://www.w3.org/Graphics/SVG/1.1/DTD/svg11.dtd">
<!-- Creator: CorelDRAW X7 -->
<svg xmlns="http://www.w3.org/2000/svg" xml:space="preserve" width="23.2868mm" height="23.046mm" version="1.1" style="shape-rendering:geometricPrecision; text-rendering:geometricPrecision; image-rendering:optimizeQuality; fill-rule:evenodd; clip-rule:evenodd"
viewBox="0 0 6716312 6646861"
 xmlns:xlink="http://www.w3.org/1999/xlink">
 <defs>
  <style type="text/css">
   <![CDATA[
    .str0 {stroke:#666666;stroke-width:21977.4}
    .str4 {stroke:gray;stroke-width:27399.6}
    .str1 {stroke:#CC9933;stroke-width:27428.5}
    .str2 {stroke:black;stroke-width:50876.8}
    .str3 {stroke:#000066;stroke-width:50876.8}
    .fil11 {fill:none}
    .fil12 {fill:black}
    .fil1 {fill:#000066}
    .fil5 {fill:#007DCB}
    .fil7 {fill:#333300}
    .fil3 {fill:#CCCCCC}
    .fil10 {fill:red}
    .fil4 {fill:white}
    .fil8 {fill:black;fill-rule:nonzero}
    .fil6 {fill:#000066;fill-rule:nonzero}
    .fil2 {fill:gray;fill-rule:nonzero}
    .fil0 {fill:#666666;fill-opacity:0.509804}
    .fil9 {fill:url(#id0)}
   ]]>
  </style>
  <linearGradient id="id0" gradientUnits="userSpaceOnUse" x1="4.49887e+006" y1="4.92207e+006" x2="4.49887e+006" y2="4.40724e+006">
   <stop offset="0" style="stop-opacity:1; stop-color:red"/>
   <stop offset="1" style="stop-opacity:1; stop-color:black"/>
  </linearGradient>
 </defs>
 <g id="Layer_x0020_1">
  <metadata id="CorelCorpID_0Corel-Layer"/>
  <path class="fil0" d="M308924 4198142l-289 116 -288 86 -289 87 0 28 -317 87 -288 87 -260 86 -58 29 -317 86 -317 87 -202 58 -87 28 -346 87 -317 87 -202 57 -144 29 -288 87 -346 86 -174 29 -173 29 -346 86 -317 87 -115 29 -231 29 -317 86 -375 58 -116 29 -230 57 -318 58 -375 58 -86 28 -289 58 -346 58 -375 58 -28 0 -318 57 -375 58 -375 58 -374 28 -375 58 -347 58 -28 0 -375 57 -404 29 -289 29 -86 29 -375 29 -375 58 -288 28 -116 0 -375 58 -403 29 -231 0 -173 29 -404 29 -404 28 -202 29 -173 0 -432 29 -404 29 -173 29 -231 0 -404 29 -403 28 -145 0 -288 0 -404 29 -404 29 -115 0 -346 0 -404 0 -433 29 -57 0 -346 0 -433 29 -433 0 -28 0 -404 0 -462 0 -403 0 -29 0 -433 0 -433 0 -374 0 -58 0 -2538 980 -231 87 -2307 894 -2481 1010 -144 57 -2336 952 -2480 1009 -58 0 -2394 1010 -2394 1009 -29 29 -2394 1038 -2278 981 -115 58 -2365 1038 -2164 981 -202 86 -2307 1067 -2048 952 -259 116 -2279 1096 -1961 922 -317 173 -2250 1096 -1817 895 -404 201 -2220 1125 -1702 866 -490 259 -2135 1125 -1615 865 -548 289 -2134 1153 -1500 808 -606 317 -2076 1183 -1413 807 -664 375 -2076 1154 -1298 779 -721 432 -1990 1183 -1962 1211 -1990 1211 -1125 693 -836 519 -1932 1240 -1039 663 -836 577 -1932 1240 -952 635 -894 605 -1846 1270 -894 605 -923 664 -1817 1269 -779 576 -1009 721 -1760 1270 -750 548 -1038 778 -1702 1298 -634 490 -1067 837 -1702 1327 -548 432 -1125 894 -1615 1327 -519 433 -1096 923 -1644 1355 -433 375 -1153 981 -1558 1384 -375 346 -1182 1038 -1500 1385 -317 288 -1212 1125 -1499 1385 -231 259 -1240 1154 -1414 1442 -201 173 -1212 1240 -1413 1442 -173 144 -1240 1298 -1356 1471 -86 87 -1241 1355 -1355 1471 -29 58 -1269 1442 -1269 1471c-8566,-3028 -17045,-6230 -25265,-9547 -138181,-55549 -178617,-128490 -90333,-162927l3202 -1182 2509 -923 577 -202 2278 -779 981 -317 3317 -1067 173 -29c3028,-952 6143,-1817 9345,-2624l923 -260 3605 -894 346 -58 3345 -779 1616 -346 4989 -1067 116 0 807 -173 3865 -721 548 -86 3374 -606 1933 -317 2076 -318 3346 -519 692 -115 4125 -548 721 -115 3432 -404 2192 -260 1990 -231 3720 -403 548 -58 4327 -404 980 -86 3404 -289 28 0 4413 -317 4067 -288 375 0 4499 -260 1240 -58 3346 -173 2827 -115 1759 -58 4470 -144 173 0 4673 -87 1471 -28 3288 -58 3115 0 1644 0 4787 0 29 0 4788 58 1730 28 3173 58 3432 87 1442 29 4990 173 230 0 4702 201 5018 231 3750 202 1269 87 288 0c6605,375 13325,894 20074,1471l5163 461 692 58 4470 432 5192 519 4326 462 865 115c31322,3490 63481,8941 95207,16209l268718 -97340c-442922,-401419 1424983,-408197 1867934,-6749l472917 93130 1788 -1875 173 -173 1731 -1673 490 -462 1529 -1326 865 -750 1269 -981 1327 -1038 923 -663 1788 -1269 2509 -1644 375 -260 202 -115 2625 -1587 230 -144 2481 -1384 692 -404 2134 -1096 1212 -606 1730 -836 346 -173 2538 -1154 173 -86 2365 -1010 808 -346 2971 -1182 259 -116 3375 -1298 259 -86 3202 -1125 836 -288 2740 -895 1471 -461 2192 -663 2134 -635 1644 -461 2827 -779 4528 -1154 58 0 403 -115 4067 -923 288 -87 3865 -836 952 -202 894 -173 3894 -779 173 -29 2624 -490 2481 -432 1932 -318 3259 -519 1240 -202 4067 -605 548 -58 4644 -635 259 -28 4471 -548 1038 -116 3778 -404 1875 -173 3028 -288 577 -58 4413 -375 3605 -259 1442 -116 1327 -86 3807 -231 5163 -288 259 0 5019 -231 1096 -29 4239 -115 5048 -116 375 -28 2913 -58 2538 0 3893 -29 1644 0 4817 0 779 29 5653 58 173 0 5537 144 1125 29 4644 144 2134 86 3692 145 1038 57 4586 231 259 0 4125 231 1817 115 5105 317 894 87 5999 432 173 29 5941 462 1125 115 7182 663 4009 404 3201 318 3029 346 317 28 5941 664 5336 634 952 145 6374 836 57 0 6317 865 1096 144 5307 779 2192 346 4268 664 317 57 5509 866 664 115 4355 721 2163 375 5451 952 1096 202 6576 1211c163821,30889 290638,102619 283283,160216 -461,3461 -1384,6777 -2769,9979l-4441 -1356 -4442 -1326 -231 -58 -4211 -1269 -4412 -1298 -462 -144 -3951 -1183 -4442 -1298 -721 -201 -3720 -1068 -4442 -1298 -952 -288 -3490 -1009 -4412 -1241 -1212 -346 -3230 -923 -4442 -1269 -1442 -403 -2999 -837 -4442 -1240 -1673 -462 -2769 -778 -4441 -1212 -1904 -548 -2567 -692 -4441 -1211 -2135 -577 -2307 -606 -4441 -1211 -2366 -635 -2105 -548 -4413 -1182 -2624 -692 -1846 -491 -4442 -1153 -2855 -750 -1615 -433 -4442 -1125 -3086 -807 -1356 -346 -4470 -1154 -3317 -836 -1153 -289 -4442 -1125 -3548 -894 -894 -202 -4470 -1124 -3836 -923 -606 -173 -4499 -1096 -4038 -981 -404 -86 -4470 -1068 -4298 -1038 -144 -58 -8941 -2105 -57 0 -4413 -1038 -4471 -1039 -317 -86 -4153 -952 -4442 -1038 -548 -116 -3951 -894 -4471 -1009 -778 -173 -3721 -837 -4441 -980 -1010 -231 -3461 -750 -4499 -980 -1240 -289 -3202 -692 -4470 -952 -1500 -317 -3000 -635 -13440 -2826 -1990 -404 -2509 -548 -4471 -894 -2220 -461 -2250 -462 -4499 -894 -2423 -490 -2048 -404 -4499 -894 -2682 -519 -1789 -375 -4499 -866 -2971 -548 -1528 -317 86 144 0 58 116 173 57 173 87 144 0 29 57 173 87 173 58 173 86 173 29 173 29 174 29 28 57 173 29 145 58 173 0 57 58 145 0 144 57 202 0 57 29 116 29 173 0 173 29 86 0 58 0 202 29 144 0 116 0 86 0 144 0 173 0 145 0 28 -29 173 0 173 -29 145 0 28 0 174 -58 144 -29 173 0 144 -57 144 -29 144 -29 87 0 58 -58 144 -28 115 -58 144 0 58 -29 87 -58 144 -57 115 -29 144 -29 0 -58 145 -86 144 -58 115 -29 87 -29 57 -86 116 -58 144 -57 115 -58 29 -58 87 -58 144 -86 115 -58 116 -29 29 -115 115 -86 144 -87 115 -29 58 -86 58 -87 115 -86 116 -116 144 -86 115 -144 115 -87 116 -58 86 -57 29 -145 116 -86 115 -144 115 -29 29 -87 87 -115 115 -144 115 -116 116 -144 115 -144 116 -144 86 -58 58 -86 57 -145 116 -144 86 -144 116 -29 29 -115 86 -145 87 -173 115 -115 58 -29 28 -144 116 -202 86 -144 87 -87 58 -86 57 -144 87 -202 115 -144 87 -29 0 -173 86 -173 87 -202 115 -116 58 -28 29 -202 86 -202 87 1846 346 16036 3143 1961 375c23765,4759 47214,9893 70258,15315l1039 231 15920 3836 4182 1038 13815 3461 779 202c28582,7297 56472,15084 83612,23304l1760 548c15690,4788 31091,9691 46262,14738l721 260 13642 4615 2076 721 4817 1701 10470 3663 1701 606 13671 4961 779 288 14421 5365 13036 5018 1788 692 5134 2019 9172 3663 1644 664c14017,5653 27688,11421 40984,17276l12142 5422 1471 663 5076 2365c11595,5307 22901,10730 33889,16181l1933 980 10787 5451 11104 5797 1153 606 10845 5855 1067 606 10643 5912 980 577 10383 5970 952 577 2307 1356 8739 5220 9922 6086 836 548 9605 6143 807 519 9345 6201 750 519 2249 1529c5798,3980 11479,7960 16931,11940l8508 6345 577 433 8220 6374 519 433 7931 6431 491 404 2422 2077 5624 4788c2510,2134 4903,4297 7268,6460l433 404 6922 6489 404 346 2826 2827 4125 4067 6287 6547 317 346 5913 6547 260 317 5624 6605 202 288 5220 6605 202 260 4874 6633 173 231 4499 6633 116 231 4124 6634 116 202 3691 6633 116 202 3316 6634 87 173 2913 6633 58 173 2509 6634 29 115 2076 6605 58 116 1644 6604 29 116 1211 6576 29 86 750 6576 0 58 346 6547 0 29 -144 6547 0 0 -577 6489c-1067,8278 -3288,16267 -6576,23939 -466515,-141325 -939576,-231224 -1419618,-267651 -1182,-8509 -1269,-16902 -202,-25208 491,-4009 1298,-7960 2336,-11796l721 -2423 923 -2971 952 -2624 1413 -3634 606 -1500 317 -692 2336 -4846 202 -375 173 -288 2683 -4730 1499 -2394 1789 -2682 1817 -2567 1874 -2567 1990 -2538 318 -404 3547 -4153 260 -260 4067 -4326 663 -663 836 -779 3779 -3634 2105 -1875 2711 -2336 3346 -2769 1730 -1355 3548 -2712 288 -230 5365 -3865 144 -58 6345 -4211 2163 -1326 4500 -2711 2711 -1587 4153 -2307 3346 -1817 865 -462 5826 -2970 836 -404 6893 -3288 664 -317 6460 -2856 952 -403 5105 -2135 2221 -894 5624 -2221 3115 -1182 5509 -2019 346 -115 7701 -2683 346 -115 8306 -2682 1442 -462 7038 -2134 1009 -289 6057 -1701 4066 -1125 4557 -1240 6634 -1702 2855 -721 1644 -375 9345 -2192 317 -86 9230 -2019 2451 -491 2711 -548 6951 -1384 5134 -952 5941 -1067 5134 -894 5826 -952c8855,-1442 17882,-2769 27169,-3980l87 0 8796 -1096 3836 -461 7989 -894 4384 -462 7211 -721 923 -86 11133 -1010 288 -29 11537 -894c7499,-548 15055,-1038 22756,-1471l1846 -86 10815 -548 923 -29 11537 -433 12315 -375 693 -29 11796 -230 202 0 10383 -116 3461 -29 10614 -28 1759 0 11681 86 1211 0c12143,144 24429,462 36946,894l2423 87 12546 519 144 0 13066 606 1355 86c17738,952 35764,2192 54107,3721l346 29 -597023 -117559c-21458,-4211 -39455,-11970 -48310,-19988l-259 0c-364127,-330324 -2023045,-325017 -1658168,6028l-202 0c8825,7989 8047,15834 -4038,20161l-272150 98581 1759 721c8277,3317 16238,6720 23852,10152l-1846 260 -1846 230 -1846 260 -1817 231 -28 0 -1789 259 -1817 231 -1846 260 -1788 259 -57 0 -1760 260 -1788 259 -1788 231 -1788 288 -116 0 -1701 260 -1789 260 -1788 259 -1730 260 -116 29 -1672 259 -1760 260 -1759 288 -1759 260 -145 29 -1615 259 -1759 260 -1731 288 -1730 289 -173 28 -1529 260 -1759 288 -1702 289 -1730 288 -173 29 -1529 260 -1702 288 -1730 317 -1702 289 -173 29 -1500 259 -3374 606 -1673 317 -231 58 -1471 230 -1644 318 -1672 317 -1644 317 -289 29 -1384 288 -1673 318 -1644 317 -1644 317 -231 58 -1384 260 -1615 317 -1644 346 -1615 317 -318 58 -1297 288 -1616 317 -1615 347 -1586 317 -346 86 -1269 260 -1615 346 -1587 346 -1557 346 -346 58 -1240 288 -1587 346 -1557 347 -1586 346 -375 86 -1154 260 -1586 375 -1558 346 -1528 346 -63221 22900zm3480473 191394c5798,3980 11479,7960 16931,11940m1232002 1901073l750 231 16642 5249 5134 1615 12084 3807 9403 2942 7585 2394 13556 4240 3259 1009 16641 5192 981 317 15488 4845 5105 1587 11191 3489 9142 2827 6980 2192 13123 4067 2884 894 15806 4903 1153 346 14508 4499 5133 1586 10383 3231 8999 2797 6374 1962 12835 3980 2451 750 15113 4701 1413 433 13614 4210 5134 1587 9777 3028 8854 2740 5913 1846 12517 3865 2163 663 14594 4528 1558 491 12892 4009 5249 1615 9172 2855 8797 2769 5508 1701 12402 3865 1846 577 14161 4413 1731 548 12344 3865 5336 1672 8710 2740 8854 2798 5134 1615 12316 3894 1586 490 13902 4384 1932 606 11883 3807 5480 1730 8335 2654 8941 2855 4817 1558 12430 3980 1356 432 13729 4413 2134 692 11565 3750 5624 1817 8105 2653 9085 2971 4615 1500 12575 4124 1125 375 16093 5307 11364 3749 5884 1962 7845 2624 9373 3144 4442 1471 12892 4326 923 317 13815 4702 10556 3576 3317 1125 6172 2105 35100 12085 664 231 14132 4932 2884 1009 11278 3951 6518 2308 7701 2711 10238 3605 4096 1471 13930 4961 491 173 14478 5191 3231 1154 11363 4124 6951 2509 7730 2798 10786 3951 4009 1471 14623 5365 260 86 15026 5567 15142 5624 7499 2798 7787 2913 11450 4326 3952 1500 15517 5855c63019,23909 143602,30053 179972,13671 36312,-16383 14767,-49060 -48281,-72970l-15027 -5711 -4355 -1672 -10469 -4009 -8595 -3317 -6028 -2308 -12719 -4932 -1702 -663 -14277 -5566 -2422 -952 -11623 -4557 -6490 -2538 -7383 -2942 -10412 -4096 -3288 -1326 -13556 -5394 -692 -288 -12719 -5076 -4557 -1846 -8682 -3519 -8335 -3374 -4730 -1933 -12084 -4932 -895 -346 -12805 -5278 -2856 -1182 -9835 -4067 -11507 -4759 -1068 -432 -10065 -4211 -2365 -1010 -12345 -5162 -1269 -548 -10988 -4644 -4817 -2019 -7326 -3115 -8277 -3547 -3750 -1587 -21112 -9056 -2740 -1211 -3288 -1413 -8537 -3692 -11739 -5105 -10094 -4413 -1615 -721 -11623 -5105 -1789 -779 -9777 -4326 -11537 -5105 -8537 -3778 -2971 -1327 -11479 -5134 -374 -173 -11047 -4961 -3749 -1672 -7701 -3461 -7095 -3202 -4297 -1961 -10470 -4701 -981 -462 -11392 -5191 -2365 -1067 -9056 -4125 -5711 -2596 -5740 -2624 -9027 -4125 -2423 -1124 -11450 -5250 -11508 -5278 -4355 -2018 -7210 -3317 -7759 -3577 -3807 -1759 -26361 -12171 -8710 -4038 -6490 -3000 -5335 -2480 -10009 -4643 -1874 -866 -11970 -5566 -1615 -750 -10440 -4845 -5192 -2394 -15776 -7326 -3404 -1586 -12344 -5711 -202 -87 -12258 -5710 -3864 -1788 -8711 -4038 -7614 -3519 -5076 -2365 -11450 -5278 -1356 -635 -12950 -5999 -2480 -1124 -10642 -4904 -6346 -2941 -6864 -3173 -10383 -4759 -3028 -1413 -13556 -6230 -894 -404 -12806 -5883 -4989 -2279 -8913 -4095c8393,-4096 16556,-8278 24602,-12547l4298 -2220c8104,-4327 16065,-8682 23794,-13123l2481 -1442c7700,-4442 15257,-8941 22640,-13498l1385 -837c7412,-4586 14623,-9258 21660,-13988l3490 -2336c6749,-4586 13382,-9230 19843,-13931l3259 -2422c6114,-4529 12085,-9086 17882,-13700l1557 -1269c6201,-4961 12172,-9980 17998,-15027l3028 -2653c5682,-5019 11191,-10124 16555,-15229l1500 -1499c5191,-4990 10181,-10066 14998,-15171l1788 -1904c4932,-5278 9691,-10585 14248,-15978l2249 -2711c4471,-5394 8855,-10816 13008,-16296l231 -317 28 -29c4125,-5480 7990,-11017 11710,-16584l2134 -3172c3634,-5538 7095,-11105 10383,-16729l1414 -2509c6691,-11681 12575,-23564 17708,-35648l1298 -3115c2452,-5913 4730,-11883 6778,-17882l606 -1846c1990,-5999 3836,-12027 5422,-18112l375 -1270c1586,-6114 3000,-12257 4211,-18458l663 -3461c1154,-6230 2163,-12518 2913,-18834l144 -1182c750,-6346 1270,-12720 1616,-19151l115 -1817c288,-6172 433,-12402 346,-18632l-86 -4817c-173,-6258 -491,-12575 -981,-18891l-115 -1211c-548,-6230 -1298,-12489 -2192,-18776l-577 -3894c-1010,-6576 -2250,-13209 -3634,-19843l-462 -2192c-1528,-7008 -3201,-14075 -5191,-21141l-58 -202c-1903,-6806 -4038,-13671 -6345,-20535l-1327 -4067c-2307,-6720 -4845,-13498 -7556,-20304l-1068 -2596c-5797,-14248 -12430,-28669 -19958,-43205l-2048 -3951c-3663,-6922 -7499,-13873 -11536,-20882l-1933 -3230c-3836,-6518 -7816,-13036 -11998,-19584l-1904 -3114c-4383,-6807 -9027,-13700 -13815,-20593l-3749 -5336c-4817,-6807 -9777,-13671 -14969,-20535l-3346 -4356c-4557,-5941 -9258,-11911 -14103,-17910l-4326 -5365c-5625,-6864 -11479,-13757 -17450,-20679l-4268 -4846c-6461,-7325 -13094,-14709 -19959,-22092l-1269 -1327c-6835,-7297 -13844,-14623 -21083,-21978l-3403 -3461c-7269,-7297 -14710,-14622 -22382,-21977l-4730 -4528c-7960,-7614 -16180,-15257 -24630,-22900 -8018,-7297 -16238,-14565 -24631,-21805l-779 -663 -779 -692 -7931 -6778 -808 -692 -807 -664 -779 -692 -836 -663 -779 -664 -7239 -6114 -837 -663 -779 -664 -807 -692 -837 -663 -778 -693 -837 -663 -29 -58 -57 -28 -635 -635 -663 -692 -692 -663 -693 -693 -692 -692 -8335 -8162 -692 -692 -692 -664 -721 -692 -693 -663 -692 -692 -692 -693 -4990 -4758 -721 -693 -721 -692c-7643,-7297 -15488,-14623 -23592,-21948 -600658,-544330 -2082026,-982003 -3308722,-977533 -1226695,4442 -1734223,449297 -1133623,993655 8306,7528 16843,15055 25525,22554l778 664 779 692 4788 4067 779 692 807 692 808 663 778 693 837 663 779 692 13728 11537 692 663 11076 10873 663 693 721 692 692 663 692 664 721 692 5682 5451 693 663 721 692c7643,7297 15401,14565 23506,21862 8767,7932 17766,15835 26851,23708l3404 2971c8652,7441 17478,14825 26447,22237l6201 5047c7989,6519 16123,13066 24372,19555l3807 3028c9258,7240 18747,14450 28293,21660l6173 4644c9662,7239 19468,14450 29447,21602l4240 3029c9777,7008 19699,13988 29735,20939l3173 2221c10527,7239 21228,14478 32072,21660l6374 4240c10787,7152 21660,14219 32735,21314l3663 2307c10729,6807 21632,13613 32620,20391l4413 2740c11393,7009 22929,13988 34610,20910l7037 4182c11941,7038 23997,14075 36168,21055l692 375c12085,6922 24343,13786 36716,20650l6547 3634c11940,6576 23967,13123 36167,19670l8451 4500c12027,6403 24198,12805 36456,19151l1846 980 403 202 577 289c13325,6864 26794,13728 40350,20506l5047 2538c13354,6663 26881,13325 40465,19930l6922 3345c13296,6403 26679,12806 40177,19151l1471 692c14363,6749 28841,13441 43435,20074l5740 2596c14334,6518 28726,12979 43291,19411l5105 2249c13902,6115 27890,12171 41994,18228l3893 1673c14421,6172 29015,12287 43638,18401l9662 3980c14248,5913 28553,11768 42974,17565l5884 2365c13844,5537 27774,11046 41734,16526l7037 2769c15171,5912 30428,11767 45714,17564l7499 2827c31322,11825 62990,23477 95004,34927l8624 3086c15661,5567 31380,11076 47185,16555l7095 2452c14883,5134 29851,10210 44849,15257l4499 1529 952 317 1385 462c16093,5393 32245,10700 48454,15978l6547 2134c16180,5249 32447,10441 48742,15604l9547 2970c15574,4903 31207,9749 46925,14565l2856 866c15603,4758 31322,9489 47069,14132l15719 4672c15084,4413 30140,8826 45282,13152l11969 3404c13267,3778 26592,7527 39917,11219l11738 3259c15229,4211 30544,8364 45859,12489l16324 4355c15661,4153 31322,8277 47041,12344l9143 2365c13873,3576 27803,7095 41763,10585l13930 3490c15892,3951 31813,7845 47791,11681l13815 3316c15978,3836 31928,7615 47993,11335l1384 317 144 4125 87 2278 202 5942 0 403 259 6288 58 1413 202 4788 144 3230 144 2942 231 4961 87 1125 288 6028 58 634 259 5336 144 2394 202 3547 231 4067 115 1788 318 5740 0 86 346 5768 115 1616 260 4124 173 3259 144 2394 288 4903 58 750 317 5595 58 894 288 4644 145 2509 144 3028 231 4067 57 1413 289 5451 29 202 259 5221 87 1759 144 3605 144 3346 115 2019 202 4874 0 433 202 5307 29 1124 144 4182 29 2625 58 2625 115 4182 0 1038 87 5249 0 462 28 4730 0 1990 -28 3201 0 3519 -29 1673 -58 5018 0 173 -144 5163 -29 1355 -115 3807 -116 2856 -115 2278 -231 4355 -29 808 -288 5134 -58 750 -346 4412 -144 2250 -231 2913 -346 3750 -144 1413 -548 5162 0 87 -577 5076 -202 1644 -461 3548 -433 3143 -259 2077 -721 4672 -87 520 -865 5249 -173 1009 -750 4240 -491 2538 -1355 6835 -231 1183 -1125 5307 -86 375 -1183 4961 -432 1932 -866 3432 -894 3519 -490 1875 -1384 5133 -87 289 -1557 5451 -433 1327 -1240 4182 -923 2941 -808 2567 -1499 4615 -375 952 -1904 5624 -231 663 -1788 4990 -865 2336 -1269 3346 -1558 4066 -663 1673 -2336 5797c-9922,24199 40494,56761 112569,72768 72076,15950 138440,9287 148448,-14882l2481 -5942 634 -1499 1904 -4355 1327 -2971 1269 -2827 2019 -4326 605 -1356 2711 -5624 29 -86 2711 -5451 750 -1471 2048 -4009 1500 -2827 1355 -2567 2250 -4153 634 -1153 2971 -5278 87 -174 2913 -5018 865 -1471 2192 -3663 1673 -2740 1413 -2336 2509 -4009 635 -1009 3201 -4990 144 -231 3115 -4672 1010 -1500 2278 -3374 1846 -2711 1500 -2135 3403 -4788 3432 -4730 202 -317 3288 -4384 1125 -1500 2423 -3201 2019 -2653 1528 -1990 3029 -3808 634 -807 3634 -4557 289 -404 3461 -4153 3749 -4557 2250 -2654 1557 -1874 3230 -3779 606 -721 3923 -4470 3922 -4499 1384 -1558 2596 -2913 2423 -2682 1615 -1788 3490 -3807 577 -635 4124 -4470 433 -491 3720 -3951 1529 -1644 2653 -2826 2625 -2769 1615 -1702 3749 -3922 520 -577 4326 -4471 577 -605 3778 -3923 1673 -1730 2740 -2798 2826 -2884 1615 -1644 3981 -4067 490 -519 4528 -4586 692 -663 3894 -3951 1817 -1846 2769 -2798 3028 -3057 1586 -1644 4269 -4269 433 -432 4701 -4759 750 -779 4009 -4009 1961 -2019 2826 -2826 3231 -3288 1586 -1615 4499 -4529 375 -403 4903 -4990 866 -894 4066 -4153 2134 -2163 2856 -2913 3403 -3519 1558 -1644 4758 -4903 289 -318 5105 -5278 980 -1009 4125 -4326 2278 -2423 2856 -2999 3634 -3836 1528 -1644 4990 -5307 231 -260 3172 490 30025 4730 31927 4875c10412,1557 20824,3115 31236,4614l28265 4067c11450,1615 22871,3202 34321,4759l22468 3028c13411,1789 26823,3548 40263,5250l18142 2249c13844,1731 27659,3404 41445,5047l17305 2019c14306,1644 28582,3231 42859,4788l17276 1875c14652,1557 29332,3057 43984,4528l14161 1384c15748,1529 31466,3000 47156,4413l12777 1125c15430,1356 30861,2653 46291,3894l12373 980c16844,1327 33658,2567 50444,3750l7384 519c17622,1211 35215,2365 52780,3403l2711 173 1385 87c19064,1125 38100,2163 57106,3115l692 28 289 29 202 0c19179,952 38388,1817 57481,2567l1846 58c18920,750 37812,1413 56616,1961l2279 58c18776,548 37523,980 56241,1355l1904 29c18776,346 37523,577 56212,721l2048 0c18891,144 37725,202 56501,116 38100,-116 75536,-693 112223,-1673l1269 -29c18142,-490 36052,-1067 53876,-1759l837 -58c17622,-663 35129,-1442 52376,-2336l2106 -116c16901,-865 33658,-1817 50213,-2884l981 -57 288 0 1702 -116c16642,-1067 33053,-2249 49377,-3490l836 -86c16411,-1240 32563,-2625 48628,-4067l2826 -259c15373,-1414 30601,-2913 45685,-4471l5048 -548c14594,-1529 29043,-3144 43320,-4845l5739 -693c14162,-1701 28150,-3489 41994,-5364l1009 -115 520 -58 1845 -260c13498,-1846 26881,-3749 40090,-5710l7470 -1125c12402,-1875 24602,-3836 36745,-5826l8393 -1413c12142,-2048 24111,-4154 36023,-6317l7931 -1471c11076,-2047 22007,-4182 32822,-6345l10758 -2163c10210,-2077 20276,-4240 30284,-6432l11537 -2538c9575,-2134 19035,-4326 28438,-6576l11854 -2855c8825,-2134 17507,-4326 26130,-6576zm-4722859 -2086784c212332,-82834 653812,-41677 986069,91889 19872,7989 38879,16123 57135,24429 -380104,49233 -636853,148016 -765314,298397 -20622,-7355 -40869,-14969 -60770,-22987 -332199,-133566 -429453,-308953 -217120,-391728z"/>
  <g id="_2159388224">
   <g>
    <path class="fil1" d="M5638469 5342639l-215679 147641 -215678 147641c369058,429539 564490,572219 810077,930981 37033,54107 110954,67951 165090,30919 54107,-37062 67951,-110983 30918,-165090 -245587,-358762 -307856,-592582 -574728,-1092092z"/>
    <path class="fil1" d="M3358906 5361271l218072 144093 218044 144093c-361993,435510 -555088,581363 -794734,944076 -36167,54742 -109858,69797 -164571,33630 -54741,-36168 -69768,-109859 -33629,-164571 239675,-362714 298137,-597543 556818,-1101321z"/>
   </g>
   <path class="fil2" d="M2965649 1106657c-24948,14622 -57106,6201 -71700,-18748 -14623,-24976 -6230,-57106 18747,-71729l556270 -327238c-7441,-908283 1867789,-923598 1875202,-15315l561548 318095c25208,14219 34120,46205 19930,71412 -14219,25208 -46205,34120 -71413,19901l-588197 -333179c-16931,-9547 -26506,-27111 -26679,-45253l-231 0c-5739,-747346 -1670397,-735348 -1664628,13613l-231 0c115,18142 -9172,35851 -25929,45657l-582689 342784z"/>
   <path class="fil3 str0" d="M5907793 1078651c313307,168032 431097,558203 263094,871539 -10066,18776 -20939,36831 -32534,54165 -313221,-319710 -688769,-523131 -1129211,-605532 8018,-19266 17046,-38302 27112,-57078 168003,-313307 558202,-431097 871539,-263094z"/>
   <path class="fil4" d="M5593879 1567115c-165292,-87622 -344254,-149747 -537205,-185856 7181,-17190 15228,-34178 24227,-50964 148275,-276534 490482,-382354 768516,-239703 -188798,138382 -259143,300155 -255538,476523z"/>
   <path class="fil1" d="M6043695 825248c130307,69883 179280,232147 109425,362454 -4211,7816 -8710,15315 -13555,22525 -130250,-132960 -286456,-217553 -469630,-251817 3346,-8018 7095,-15949 11277,-23737 69883,-130335 232147,-179309 362483,-109425z"/>
   <path class="fil3 str0" d="M2953103 1146487c302175,-187356 698979,-94255 886335,207920 11219,18084 21400,36542 30630,55261 -433491,111386 -797416,334910 -1089006,675155 -12661,-16613 -24631,-33918 -35879,-52030 -187327,-302175 -94226,-698979 207920,-886306z"/>
   <path class="fil4" d="M3219341 1682280c-158543,99359 -301829,223263 -429540,372317 -11306,-14796 -22006,-30284 -32043,-46435 -165349,-266699 -85890,-615972 176656,-785418 25467,232695 130393,374481 284927,459536z"/>
   <path class="fil1" d="M2801598 902082c125663,-77930 290724,-39196 368626,86468 4672,7527 8912,15199 12748,22987 -180290,46319 -331651,139276 -452931,280803 -5278,-6894 -10239,-14104 -14911,-21632 -77930,-125692 -39196,-290724 86468,-368626z"/>
   <circle class="fil5" transform="matrix(0.538896 -0.00440341 0.00440341 0.538896 4.48632E+006 3.83851E+006)" r="4137921"/>
   <circle class="fil1" transform="matrix(0.538896 -0.00440341 0.00440341 0.538896 4.4847E+006 3.64112E+006)" r="4137921"/>
   <circle class="fil4 str1" transform="matrix(0.469039 -0.00383259 0.00383259 0.469039 4.4847E+006 3.64112E+006)" r="4137921"/>
   <ellipse class="fil5 str2" transform="matrix(0.538896 -0.00440341 0.00440341 0.538896 3.60074E+006 3.11725E+006)" rx="818557" ry="1143891"/>
   <g>
    <path class="fil4" d="M3597081 2670483c-243597,1990 -439173,241607 -436750,535216 2394,293580 201834,529966 445460,527976 243597,-1990 439173,-241607 436750,-535187 -2394,-293608 -201834,-529995 -445460,-528005z"/>
    <path id="1" class="fil6" d="M3172502 3205612l-24342 173 0 0 346 -27861 1499 -27515 2654 -27169 3749 -26707 4817 -26246 5855 -25784 6864 -25266 7845 -24717 8826 -24083 9748 -23506 10672 -22843 11536 -22121 12402 -21430 13210 -20650 14074 -19843 14796 -19036 15517 -18170 16267 -17276 16988 -16325 17651 -15344 18257 -14363 18891 -13325 19468 -12229 20045 -11132 20564 -10009 21055 -8767 21544 -7586 21978 -6287 22381 -5019 22785 -3663 23102 -2336 23448 -894 173 24400 -21948 837 -21660 2163 -21285 3432 -20997 4730 -20593 5884 -20218 7124 -19786 8248 -19352 9374 -18892 10498 -18372 11537 -17795 12575 -17334 13613 -16728 14536 -16065 15517 -15459 16411 -14825 17305 -14104 18113 -13382 18978 -12633 19727 -11883 20449 -11017 21199 -10210 21862 -9345 22525 -8479 23102 -7557 23737 -6576 24227 -5624 24804 -4643 25265 -3577 25670 -2538 26130 -1442 26477 -346 26880 0 0zm433203 515863l173 24400 0 0 -23420 -548 -23160 -1903 -22842 -3288 -22439 -4673 -22093 -5941 -21660 -7210 -21228 -8451 -20708 -9633 -20218 -10787 -19670 -11940 -19122 -13008 -18488 -14046 -17882 -15084 -17218 -16036 -16584 -17017 -15834 -17910 -15113 -18776 -14363 -19642 -13556 -20420 -12748 -21198 -11912 -21949 -11017 -22669 -10152 -23304 -9230 -23968 -8220 -24573 -7297 -25150 -6287 -25669 -5220 -26188 -4183 -26650 -3086 -27083 -1932 -27515 -836 -27861 24342 -173 779 26823 1874 26477 2971 26044 4009 25669 5047 25150 6000 24688 7008 24170 7932 23535 8825 22987 9749 22381 10556 21689 11392 21025 12171 20276 12979 19497 13671 18718 14421 17911 15084 17045 15719 16152 16353 15228 16959 14277 17507 13296 18084 12315 18516 11249 19065 10152 19497 9114 19900 7931 20334 6749 20708 5596 21055 4326 21342 3115 21718 1788 21978 490 0 0zm424665 -522900l24342 -173 0 0 -346 27861 -1499 27515 -2654 27140 -3749 26736 -4817 26246 -5855 25756 -6864 25294 -7845 24689 -8826 24111 -9748 23477 -10672 22843 -11536 22122 -12402 21429 -13210 20651 -14074 19843 -14796 19035 -15517 18171 -16267 17276 -16988 16324 -17651 15344 -18257 14363 -18891 13325 -19468 12229 -20045 11133 -20564 10008 -21055 8768 -21544 7585 -21978 6288 -22381 5018 -22785 3663 -23102 2336 -23448 894 -173 -24400 21948 -836 21660 -2163 21285 -3432 20997 -4731 20593 -5883 20218 -7124 19786 -8249 19352 -9373 18892 -10499 18372 -11536 17795 -12575 17334 -13614 16728 -14536 16065 -15517 15459 -16411 14825 -17305 14104 -18112 13382 -18978 12633 -19728 11883 -20449 11017 -21198 10210 -21862 9345 -22497 8479 -23131 7557 -23708 6576 -24256 5624 -24775 4643 -25265 3577 -25698 2538 -26102 1442 -26477 346 -26880 0 0zm-433203 -515892l-173 -24400 0 0 23420 548 23160 1904 22842 3288 22439 4672 22093 5941 21660 7211 21228 8450 20708 9634 20218 10786 19670 11941 19122 13007 18488 14046 17882 15085 17218 16036 16584 17016 15834 17911 15113 18776 14363 19641 13556 20449 12748 21198 11912 21920 11017 22670 10152 23304 9230 23996 8220 24573 7297 25121 6287 25670 5220 26217 4183 26621 3086 27111 1932 27515 836 27861 -24342 173 -779 -26823 -1874 -26477 -2971 -26072 -4009 -25641 -5047 -25179 -6000 -24688 -7008 -24141 -7932 -23592 -8825 -22958 -9749 -22381 -10556 -21689 -11392 -20997 -12171 -20276 -12979 -19526 -13671 -18718 -14421 -17911 -15084 -17045 -15719 -16151 -16353 -15229 -16959 -14276 -17507 -13296 -18084 -12316 -18516 -11248 -19065 -10152 -19497 -9114 -19900 -7932 -20334 -6749 -20708 -5595 -21055 -4326 -21342 -3115 -21718 -1788 -21978 -491 0 0z"/>
   </g>
   <g>
    <path class="fil7" d="M3601724 3236011c-108848,895 -196239,107955 -195171,239127 1067,131172 90188,236819 199036,235925 108849,-894 196239,-107954 195143,-239126 -1067,-131201 -90159,-236820 -199008,-235926z"/>
    <path id="1" class="fil8" d="M3420224 3475023l-27342 231 0 0 144 -12806 692 -12662 1240 -12459 1702 -12258 2221 -12114 2682 -11854 3173 -11623 3634 -11363 4066 -11104 4500 -10816 4903 -10527 5335 -10239 5711 -9864 6114 -9518 6490 -9229 6864 -8797 7211 -8393 7527 -8018 7903 -7556 8162 -7124 8480 -6720 8825 -6172 9056 -5711 9345 -5192 9604 -4672 9835 -4095 10066 -3548 10297 -2942 10469 -2365 10701 -1702 10815 -1067 10960 -432 231 27399 -9345 375 -9143 894 -9027 1471 -8912 2019 -8739 2481 -8566 3028 -8451 3519 -8220 3980 -8018 4441 -7845 4961 -7614 5365 -7383 5797 -7182 6259 -6922 6633 -6605 7038 -6403 7470 -6056 7758 -5740 8133 -5422 8537 -5134 8826 -4759 9143 -4442 9431 -4037 9720 -3663 10008 -3231 10268 -2884 10527 -2451 10700 -1990 10902 -1529 11162 -1125 11364 -634 11450 -144 11652 0 0zm185250 222341l231 27399 0 0 -10989 -231 -10816 -922 -10671 -1529 -10556 -2163 -10354 -2798 -10124 -3403 -9893 -3923 -9662 -4470 -9431 -5076 -9171 -5538 -8884 -6057 -8623 -6547 -8307 -7008 -7989 -7441 -7672 -7874 -7354 -8307 -6980 -8681 -6663 -9085 -6258 -9460 -5855 -9778 -5509 -10123 -5076 -10441 -4672 -10729 -4269 -11075 -3778 -11306 -3375 -11565 -2884 -11826 -2423 -11998 -1903 -12286 -1413 -12431 -894 -12633 -375 -12805 27342 -231 317 11652 836 11479 1298 11277 1731 11133 2192 10902 2595 10671 3029 10470 3432 10210 3807 9921 4211 9691 4557 9345 4932 9085 5278 8739 5566 8422 5913 8047 6172 7701 6489 7325 6749 6951 7009 6518 7268 6144 7470 5682 7729 5249 7903 4787 8105 4327 8277 3836 8509 3403 8623 2884 8739 2336 8941 1875 9056 1298 9201 750 9316 231 0 0zm181587 -225312l27342 -231 0 0 -144 12806 -692 12633 -1212 12488 -1730 12287 -2221 12084 -2682 11826 -3144 11623 -3634 11392 -4067 11104 -4499 10816 -4903 10527 -5336 10239 -5710 9864 -6115 9546 -6518 9201 -6807 8768 -7239 8422 -7528 8018 -7902 7556 -8163 7124 -8479 6720 -8826 6172 -9056 5711 -9345 5191 -9604 4673 -9835 4095 -10066 3548 -10296 2942 -10470 2365 -10700 1701 -10816 1068 -10959 432 -231 -27399 9345 -375 9142 -894 9028 -1471 8912 -2019 8739 -2481 8566 -3028 8451 -3519 8219 -3980 8018 -4442 7845 -4960 7615 -5365 7383 -5797 7182 -6259 6922 -6633 6604 -7038 6374 -7441 6057 -7787 5769 -8162 5422 -8509 5134 -8825 4759 -9143 4441 -9431 4038 -9720 3663 -10008 3230 -10239 2855 -10527 2452 -10729 1990 -10931 1558 -11133 1096 -11335 634 -11479 144 -11652 0 0zm-185221 -222341l-231 -27399 0 0 10989 230 10815 923 10672 1529 10556 2163 10354 2798 10095 3374 9921 3923 9691 4528 9402 5047 9172 5538 8883 6056 8624 6548 8306 7008 7990 7441 7671 7903 7326 8277 7009 8682 6605 9056 6287 9431 5884 9835 5480 10095 5076 10470 4672 10729 4269 11046 3778 11306 3375 11566 2884 11825 2422 12027 1904 12257 1413 12460 894 12633 375 12805 -27342 231 -317 -11652 -836 -11479 -1298 -11306 -1731 -11104 -2192 -10931 -2595 -10671 -3029 -10470 -3432 -10210 -3807 -9893 -4211 -9690 -4557 -9374 -4903 -9056 -5249 -8739 -5596 -8393 -5912 -8076 -6201 -7701 -6461 -7354 -6749 -6922 -7008 -6519 -7268 -6143 -7470 -5682 -7730 -5249 -7902 -4788 -8134 -4355 -8249 -3836 -8479 -3345 -8653 -2913 -8739 -2336 -8941 -1875 -9056 -1298 -9200 -750 -9316 -231 0 0z"/>
   </g>
   <ellipse class="fil4" transform="matrix(0.0774623 -0.000632958 0.000545852 0.0668022 3.47746E+006 3.39473E+006)" rx="818557" ry="1143891"/>
   <ellipse class="fil4" transform="matrix(0.0518595 -0.000423753 0.000365437 0.0447228 3.55861E+006 3.52875E+006)" rx="818557" ry="1143891"/>
   <circle class="fil7" transform="matrix(0.538896 -0.00440341 0.00440341 0.538896 4.48466E+006 3.63601E+006)" r="356801"/>
   <polygon class="fil7" points="5963515,4477705 5727849,4275034 5492183,4072335 4605560,3642795 4567258,3712736 4528928,3782677 5368193,4298684 5665839,4388209 "/>
   <polygon class="fil7" points="3217034,4550069 3468793,4434298 4397900,3759200 4355416,3702180 4312932,3645131 3400063,4342005 "/>
   <ellipse class="fil5 str3" transform="matrix(0.538896 -0.00440341 0.00440341 0.538896 5.39914E+006 3.10255E+006)" rx="818557" ry="1143891"/>
   <g>
    <path class="fil4" d="M5395477 2655774c-243597,1990 -439173,241607 -436750,535216 2394,293608 201834,529995 445460,528005 243597,-1990 439173,-241607 436750,-535216 -2393,-293580 -201834,-529995 -445460,-528005z"/>
    <path id="1" class="fil6" d="M4970898 3190903l-24342 173 0 0 346 -27861 1500 -27515 2653 -27169 3750 -26707 4816 -26246 5855 -25785 6864 -25265 7845 -24717 8826 -24083 9748 -23506 10672 -22843 11536 -22122 12402 -21429 13210 -20651 14075 -19843 14795 -19035 15517 -18170 16267 -17277 16988 -16324 17651 -15344 18257 -14363 18891 -13325 19468 -12229 20045 -11133 20564 -10008 21055 -8768 21545 -7585 21977 -6288 22381 -5018 22785 -3663 23102 -2336 23449 -894 173 24400 -21949 836 -21660 2163 -21285 3433 -20997 4730 -20593 5883 -20218 7124 -19785 8249 -19353 9374 -18892 10498 -18372 11537 -17795 12575 -17334 13613 -16728 14536 -16065 15517 -15459 16411 -14825 17305 -14103 18113 -13383 18977 -12633 19728 -11882 20449 -11018 21199 -10210 21862 -9345 22525 -8479 23102 -7557 23737 -6575 24227 -5625 24804 -4643 25265 -3576 25669 -2539 26131 -1442 26477 -346 26880 0 0zm433203 515892l173 24400 0 0 -23420 -548 -23159 -1904 -22843 -3288 -22439 -4672 -22093 -5941 -21660 -7211 -21227 -8450 -20709 -9634 -20218 -10786 -19670 -11941 -19122 -13007 -18487 -14046 -17882 -15085 -17219 -16036 -16584 -17016 -15834 -17911 -15113 -18776 -14363 -19641 -13556 -20449 -12748 -21198 -11911 -21920 -11018 -22670 -10152 -23304 -9230 -23996 -8219 -24573 -7297 -25121 -6288 -25670 -5220 -26217 -4182 -26621 -3086 -27111 -1933 -27515 -836 -27861 24342 -173 779 26823 1875 26477 2970 26072 4009 25641 5048 25179 5999 24688 7008 24141 7932 23592 8825 22958 9749 22381 10556 21689 11392 20997 12172 20276 12978 19526 13671 18718 14421 17911 15084 17045 15719 16151 16353 15229 16959 14276 17507 13296 18084 12316 18516 11248 19065 10152 19497 9114 19901 7932 20333 6749 20708 5595 21055 4326 21343 3115 21717 1788 21978 491 0 0zm424665 -522929l24343 -173 0 0 -346 27861 -1500 27515 -2654 27169 -3749 26707 -4817 26246 -5855 25784 -6864 25266 -7845 24717 -8825 24083 -9749 23506 -10671 22843 -11537 22121 -12402 21430 -13209 20650 -14075 19843 -14796 19036 -15517 18170 -16267 17276 -16987 16325 -17651 15344 -18257 14363 -18892 13325 -19468 12229 -20045 11132 -20564 10009 -21054 8767 -21545 7586 -21977 6287 -22382 5019 -22785 3663 -23102 2336 -23448 894 -173 -24400 21948 -837 21660 -2163 21286 -3432 20996 -4730 20593 -5884 20218 -7124 19786 -8248 19353 -9374 18891 -10498 18372 -11537 17796 -12575 17333 -13613 16729 -14536 16064 -15517 15460 -16411 14824 -17305 14104 -18113 13382 -18978 12633 -19727 11883 -20449 11017 -21199 10210 -21862 9345 -22525 8480 -23102 7556 -23737 6576 -24227 5624 -24804 4644 -25265 3576 -25670 2538 -26130 1442 -26477 346 -26880 0 0zm-433202 -515892l-173 -24400 0 0 23419 548 23160 1903 22843 3288 22438 4673 22093 5941 21660 7239 21228 8422 20708 9633 20218 10816 19670 11912 19122 13007 18488 14046 17882 15084 17247 16065 16555 17017 15834 17910 15113 18776 14364 19613 13555 20449 12748 21198 11912 21949 11017 22669 10153 23304 9229 23968 8220 24573 7297 25150 6287 25669 5221 26188 4182 26650 3086 27083 1932 27515 837 27861 -24343 173 -779 -26823 -1874 -26477 -2971 -26044 -4009 -25669 -5047 -25150 -5999 -24688 -7009 -24170 -7931 -23535 -8826 -22987 -9748 -22381 -10556 -21689 -11393 -21025 -12171 -20276 -12979 -19526 -13671 -18689 -14421 -17911 -15084 -17045 -15748 -16152 -16324 -15257 -16959 -14277 -17507 -13296 -18084 -12315 -18516 -11220 -19064 -10181 -19497 -9056 -19901 -7960 -20333 -6778 -20709 -5595 -21054 -4327 -21343 -3115 -21718 -1788 -21977 -490 0 0z"/>
   </g>
   <g>
    <path class="fil7" d="M5400121 3221302c-108849,894 -196239,107955 -195172,239156 1067,131172 90188,236790 199036,235896 108849,-894 196239,-107954 195143,-239127 -1067,-131172 -90159,-236790 -199007,-235925z"/>
    <path id="1" class="fil8" d="M5218620 3460342l-27342 231 0 0 144 -12806 692 -12661 1240 -12460 1702 -12258 2221 -12113 2682 -11883 3202 -11594 3605 -11364 4066 -11104 4471 -10844 4932 -10528 5336 -10238 5710 -9864 6115 -9547 6489 -9172 6836 -8796 7239 -8422 7528 -8018 7902 -7557 8162 -7123 8480 -6721 8825 -6172 9057 -5710 9344 -5192 9605 -4672 9835 -4096 10065 -3547 10297 -2942 10470 -2365 10700 -1702 10815 -1067 10960 -433 231 27400 -9345 375 -9143 894 -9027 1471 -8912 2019 -8739 2480 -8566 3029 -8451 3518 -8220 3981 -8018 4441 -7845 4961 -7614 5364 -7383 5798 -7182 6258 -6922 6634 -6605 7037 -6374 7441 -6085 7817 -5740 8133 -5422 8508 -5134 8826 -4759 9143 -4412 9431 -4067 9748 -3663 10008 -3259 10268 -2855 10498 -2452 10730 -1990 10902 -1529 11161 -1125 11364 -634 11450 -144 11652 0 0zm185250 222312l231 27400 0 0 -10989 -231 -10816 -923 -10671 -1528 -10556 -2164 -10354 -2797 -10095 -3375 -9921 -3922 -9691 -4528 -9403 -5048 -9171 -5537 -8883 -6057 -8624 -6518 -8307 -7009 -7989 -7470 -7672 -7873 -7354 -8278 -6980 -8710 -6634 -9057 -6258 -9460 -5884 -9777 -5509 -10123 -5076 -10441 -4672 -10729 -4269 -11075 -3778 -11306 -3374 -11566 -2885 -11825 -2422 -12027 -1904 -12258 -1413 -12431 -894 -12632 -375 -12806 27342 -231 317 11652 836 11479 1298 11278 1731 11104 2192 10931 2596 10671 3028 10470 3432 10210 3807 9921 4211 9691 4557 9345 4932 9085 5249 8739 5567 8364 5941 8076 6172 7729 6490 7297 6749 6951 7008 6547 7268 6086 7470 5710 7730 5249 7902 4788 8134 4355 8248 3836 8480 3346 8652 2913 8739 2336 8941 1875 9057 1298 9200 750 9316 230 0 0zm181588 -225311l27341 -231 0 0 -144 12806 -692 12632 -1211 12489 -1731 12286 -2221 12085 -2682 11825 -3144 11623 -3634 11393 -4066 11104 -4500 10816 -4903 10527 -5335 10239 -5711 9864 -6115 9546 -6518 9201 -6806 8768 -7240 8421 -7527 8018 -7903 7557 -8162 7124 -8480 6720 -8825 6172 -9057 5711 -9344 5191 -9605 4673 -9835 4095 -10065 3548 -10297 2941 -10469 2365 -10701 1702 -10815 1067 -10960 433 -231 -27400 9345 -375 9143 -894 9027 -1471 8912 -2019 8739 -2480 8566 -3028 8451 -3519 8220 -3980 8018 -4442 7845 -4961 7614 -5364 7383 -5797 7182 -6259 6922 -6634 6605 -7037 6374 -7441 6056 -7787 5769 -8163 5422 -8508 5134 -8825 4759 -9143 4441 -9432 4038 -9719 3663 -10008 3230 -10239 2856 -10527 2451 -10729 1990 -10931 1558 -11133 1096 -11335 634 -11479 145 -11652 0 0zm-185222 -222341l-231 -27400 0 0 10989 231 10844 923 10643 1558 10556 2134 10354 2826 10095 3346 9921 3951 9662 4500 9432 5047 9171 5566 8884 6057 8623 6518 8307 7009 7989 7470 7672 7845 7326 8306 7008 8682 6634 9085 6258 9431 5884 9806 5480 10124 5076 10440 4672 10729 4269 11076 3778 11306 3375 11565 2884 11825 2423 12027 1903 12258 1413 12431 895 12632 374 12806 -27341 231 -318 -11652 -836 -11479 -1298 -11277 -1731 -11104 -2191 -10931 -2596 -10672 -3029 -10469 -3432 -10210 -3807 -9922 -4211 -9691 -4557 -9344 -4903 -9086 -5249 -8710 -5624 -8450 -5884 -8047 -6201 -7701 -6460 -7326 -6749 -6922 -7009 -6547 -7268 -6085 -7470 -5711 -7730 -5249 -7902 -4817 -8105 -4297 -8277 -3865 -8480 -3375 -8652 -2884 -8739 -2365 -8941 -1846 -9085 -1326 -9172 -750 -9316 -231 0 0z"/>
   </g>
   <ellipse class="fil4" transform="matrix(0.0774623 -0.000632958 0.000545852 0.0668022 5.27585E+006 3.38003E+006)" rx="818557" ry="1143891"/>
   <ellipse class="fil4" transform="matrix(0.0518595 -0.000423753 0.000365437 0.0447228 5.35701E+006 3.51405E+006)" rx="818557" ry="1143891"/>
   <g>
    <path class="fil9" d="M3882441 4368279c7354,336439 283773,605561 621395,602821 337621,-2769 609598,-276390 611473,-612886 -138671,97889 -362339,162494 -615136,164571 -252798,2047 -477475,-58895 -617732,-154506z"/>
    <path id="1" class="fil8" d="M4503720 4957400l231 27400 0 0 -32159 -548 -31754 -2134 -31294 -3692 -30860 -5192 -30313 -6691 -29736 -8104 -29159 -9518 -28524 -10873 -27832 -12200 -27140 -13470 -26362 -14709 -25553 -15949 -24747 -17103 -23852 -18228 -22929 -19296 -22006 -20391 -20997 -21400 -19987 -22352 -18892 -23305 -17853 -24227 -16641 -25063 -15488 -25900 -14248 -26679 -12979 -27428 -11710 -28150 -10354 -28812 -8998 -29448 -7557 -30053 -6085 -30601 -4644 -31091 -3057 -31582 -1500 -32043 27400 -577 1442 30659 2942 30197 4412 29765 5855 29274 7211 28726 8594 28179 9893 27544 11191 26880 12459 26275 13614 25525 14795 24746 15950 23967 17045 23189 18084 22266 19122 21429 20074 20478 21083 19468 21949 18488 22814 17420 23650 16353 24458 15258 25207 14074 25929 12893 26621 11681 27255 10354 27890 9114 28467 7758 28986 6403 29476 4961 29967 3518 30370 2077 30774 490 0 0zm619491 -587996l-15805 -22381 21603 11277 -952 32015 -2567 31639 -4125 31207 -5624 30687 -7037 30169 -8537 29562 -9864 28986 -11219 28323 -12547 27630 -13815 26938 -15084 26160 -16238 25323 -17420 24487 -18517 23592 -19612 22727 -20651 21718 -21660 20708 -22612 19699 -23563 18632 -24487 17478 -25265 16382 -26131 15142 -26909 13931 -27631 12632 -28322 11335 -28986 9979 -29649 8624 -30198 7153 -30745 5711 -31236 4210 -31697 2654 -32158 1067 -231 -27400 30774 -1009 30313 -2538 29909 -4038 29418 -5422 28871 -6865 28322 -8219 27717 -9576 27112 -10816 26419 -12113 25698 -13296 24976 -14508 24228 -15632 23390 -16728 22526 -17824 21631 -18834 20737 -19843 19785 -20795 18748 -21689 17708 -22612 16671 -23448 15546 -24227 14392 -25006 13238 -25727 11969 -26419 10758 -27111 9460 -27717 8134 -28293 6749 -28842 5393 -29361 3894 -29822 2451 -30255 952 -30688 21602 11277zm-15805 -22381l21747 -15344 -144 26621 -21603 -11277zm-607118 189461l-231 -27399 0 0 23420 -375 23189 -721 23044 -1096 22843 -1442 22583 -1760 22410 -2076 22150 -2452 21920 -2797 21660 -3058 21401 -3403 21112 -3721 20823 -3980 20565 -4326 20246 -4586 19930 -4903 19584 -5163 19237 -5451 18891 -5710 18574 -5971 18200 -6258 17795 -6461 17391 -6749 17017 -6979 16613 -7211 16180 -7441 15719 -7672 15344 -7874 14824 -8075 14392 -8307 13902 -8479 13440 -8682 12950 -8883 15805 22381 -13526 9287 -14075 9085 -14479 8826 -14969 8653 -15459 8421 -15863 8163 -16295 7902 -16700 7672 -17132 7441 -17535 7211 -17911 6922 -18314 6691 -18661 6374 -19036 6143 -19352 5884 -19757 5566 -20045 5278 -20391 5019 -20708 4701 -20968 4384 -21286 4096 -21573 3778 -21804 3461 -22122 3172 -22324 2798 -22611 2509 -22814 2135 -23045 1817 -23246 1442 -23449 1096 -23650 778 -23823 375 0 0zm-604147 -168493l-27400 577 21429 -11594 13066 8652 13584 8451 14046 8277 14536 8047 14969 7845 15430 7614 15892 7441 16296 7182 16699 6922 17132 6691 17507 6461 17911 6172 18285 5941 18632 5682 19007 5394 19353 5133 19670 4846 19987 4557 20305 4297 20621 3952 20911 3691 21169 3375 21430 2999 21746 2769 21920 2394 22208 2077 22410 1730 22670 1413 22814 1067 23044 693 23247 346 23390 0 231 27399 -23852 0 -23650 -346 -23449 -750 -23275 -1067 -23073 -1413 -22872 -1788 -22612 -2134 -22381 -2452 -22150 -2769 -21891 -3115 -21631 -3432 -21314 -3749 -21084 -4067 -20766 -4355 -20448 -4672 -20132 -4961 -19814 -5249 -19468 -5567 -19151 -5797 -18747 -6114 -18430 -6346 -18026 -6633 -17651 -6922 -17219 -7153 -16872 -7412 -16411 -7672 -16007 -7903 -15546 -8133 -15113 -8393 -14623 -8624 -14219 -8854 -13700 -9057 21430 -11594zm-27400 577l-577 -26592 22006 14998 -21429 11594z"/>
   </g>
   <path class="fil10" d="M4094427 4813019c109455,91024 252769,145650 409293,144353 156524,-1270 298916,-58232 406870,-151016 -109454,-90995 -252769,-145650 -409264,-144352 -156524,1269 -298944,58231 -406899,151015z"/>
   <path class="fil11 str4" d="M4469254 1749625l1615 198575m1706767 1679078l198575 -1615m-1466717 -1623356l49839 -192230m-1947652 996568l-172791 -97889m458525 2139219l-139276 141555m2184990 110781l100716 171176m672502 -2081882l191394 -52953m-1836872 -1188452l-1615 -198575m-1623356 1466716l-192230 -49838m996568 1947652l-97889 172791m2139219 -458526l141555 139248m110781 -2184991l171147 -100686m-2081853 -672531l-52982 -191365m-1188423 1836871l-198575 1615m1466688 1623356l-49839 192230m1947653 -996567l172790 97888m-458525 -2139218l139276 -141556m-2184990 -110781l-100687 -171175m-672531 2081881l-191393 52954m1836871 1188451l1644 198575m1623356 -1466687l192230 49809m-996568 -1947652l97889 -172790m-2139219 458525l-141584 -139248m-110781 2184991l-171147 100686m2081882 672531l52953 191394m1188452 -1836900l198575 -1615m-1466717 -1623356l49839 -192230m-1947652 996568l-172791 -97889m458525 2139219l-139276 141555m2184990 110781l100716 171176m672502 -2081882l191394 -52953m-1836872 -1188452l-1615 -198575m-1623356 1466716l-192230 -49838m996568 1947652l-97889 172791m2139219 -458526l141555 139248m110781 -2184991l171147 -100686m-2081853 -672531l-52982 -191365m-1188423 1836871l-198575 1615m1905313 1677463l1644 198575m-1906957 -1876038l198575 -1615m1218274 1817201l49839 -192230m2070604 -706449l-172790 -97888m-146459 -2182886l-139276 141556m-2146401 -423512l100687 171175m-964611 1963660l191393 -52954m1647122 1439980l-1644 -198575m1817230 -1218303l-192230 -49809m-706449 -2070633l-97889 172790m-2182914 146487l141584 139248m-423512 2146429l171147 -100686m1963688 964611l-52953 -191394m1439980 -1647121l-198575 1615m-1218303 -1817201l-49839 192230m-2070604 706449l172791 97889m146458 2182885l139276 -141555m2146430 423512l-100716 -171176m964612 -1963659l-191394 52953m-1647093 -1439980l1615 198575m-1817201 1218303l192230 49838m706449 2070605l97889 -172791m2182885 -146487l-141555 -139248m423483 -2146429l-171147 100686m-1963688 -964582l52982 191365m-1439980 1647121l198575 -1615m1218274 1817201l49839 -192230m2070604 -706449l-172790 -97888m-146459 -2182886l-139276 141556m-2146401 -423512l100687 171175m-964611 1963660l191393 -52954m1647122 1439980l-1644 -198575m1817230 -1218303l-192230 -49809m-706449 -2070633l-97889 172790m-2182914 146487l141584 139248m-423512 2146429l171147 -100686m1963688 964611l-52953 -191394m1439980 -1647121l-198575 1615"/>
   <rect class="fil12" transform="matrix(0.538896 -0.00440341 0.00440341 0.538896 4.41853E+006 1.77017E+006)" width="188884" height="818557"/>
   <rect class="fil12" transform="matrix(0.00440341 0.538896 -0.538896 0.00440341 6.33924E+006 3.57509E+006)" width="188884" height="818557"/>
   <rect class="fil12" transform="matrix(0.00440341 0.538896 -0.538896 0.00440341 3.07045E+006 3.6018E+006)" width="188884" height="818557"/>
   <path class="fil7" d="M5274313 2227763c206305,46579 388527,200767 493568,395074 -135613,-102187 -306616,-183491 -492183,-225427 -367473,-82978 -198633,-214208 -1385,-169647z"/>
   <path class="fil7" d="M3650553 2241030c-205497,49954 -385181,207084 -487050,403092 133941,-104378 303588,-188481 488435,-233445 366088,-88977 195114,-217409 -1385,-169647z"/>
   <rect class="fil12" transform="matrix(0.538896 -0.00440341 0.00440341 0.538896 4.44545E+006 5.06546E+006)" width="188884" height="818557"/>
  </g>
 </g>
</svg>
