<?xml version="1.0" encoding="UTF-8"?>
<!DOCTYPE svg PUBLIC "-//W3C//DTD SVG 1.1//EN" "http://www.w3.org/Graphics/SVG/1.1/DTD/svg11.dtd">
<!-- Creator: CorelDRAW X7 -->
<svg xmlns="http://www.w3.org/2000/svg" xml:space="preserve" width="47.694mm" height="14.5733mm" version="1.1" style="shape-rendering:geometricPrecision; text-rendering:geometricPrecision; image-rendering:optimizeQuality; fill-rule:evenodd; clip-rule:evenodd"
viewBox="0 0 4769400 1457330"
 xmlns:xlink="http://www.w3.org/1999/xlink">
 <defs>
  <style type="text/css">
   <![CDATA[
    .fil3 {fill:#985426}
    .fil2 {fill:#FFFFCB}
    .fil0 {fill:#4D4D4D;fill-opacity:0.419608}
    .fil1 {fill:url(#id0)}
    .fil6 {fill:url(#id1)}
    .fil4 {fill:url(#id2)}
    .fil5 {fill:url(#id3)}
   ]]>
  </style>
  <linearGradient id="id0" gradientUnits="userSpaceOnUse" x1="2.69001e+006" y1="-222220" x2="2.15617e+006" y2="1.61017e+006">
   <stop offset="0" style="stop-opacity:1; stop-color:#BF772B"/>
   <stop offset="1" style="stop-opacity:1; stop-color:#A26C2E"/>
  </linearGradient>
  <radialGradient id="id1" gradientUnits="userSpaceOnUse" gradientTransform="matrix(1.25966E-005 0.410148 -1.10402 2.56336E-005 2.96418E+006 -259885)" cx="2.2378e+006" cy="657960" r="1.33336e+006" fx="2.2378e+006" fy="657960">
   <stop offset="0" style="stop-opacity:1; stop-color:#FFEBB9"/>
   <stop offset="1" style="stop-opacity:1; stop-color:#FDE09C"/>
  </radialGradient>
  <radialGradient id="id2" gradientUnits="userSpaceOnUse" gradientTransform="matrix(1.25966E-005 -0.410148 -1.10403 -2.56338E-005 2.87273E+006 1.50943E+006)" cx="2.20459e+006" cy="605210" r="1.63598e+006" fx="2.20459e+006" fy="605210">
   <stop offset="0" style="stop-opacity:1; stop-color:#FFD6A1"/>
   <stop offset="1" style="stop-opacity:1; stop-color:#FDBD66"/>
  </radialGradient>
  <radialGradient id="id3" gradientUnits="userSpaceOnUse" gradientTransform="matrix(1.25966E-005 -0.416127 -1.10402 -2.60073E-005 2.94262E+006 1.57677E+006)" cx="2.22329e+006" cy="651580" r="1.53508e+006" fx="2.22329e+006" fy="651580">
   <stop offset="0" style="stop-opacity:1; stop-color:#FFE1BB"/>
   <stop offset="1" style="stop-opacity:1; stop-color:#FDCF8F"/>
  </radialGradient>
 </defs>
 <g id="Layer_x0020_1">
  <metadata id="CorelCorpID_0Corel-Layer"/>
  <path class="fil0" d="M4100910 86100c-846560,-15710 -2431740,-34690 -3349720,17420 -814500,46260 -717420,36430 -748940,529570 -20360,318730 102630,695940 180490,739040 192340,106470 3583590,87450 4043560,76350 161100,-3890 312840,-20730 394890,-103410 158410,-159620 155050,-466560 143280,-711650 -29530,-614790 56860,-533950 -663560,-547320z"/>
  <path class="fil1" d="M4111660 16730c-832920,-15710 -2392590,-34690 -3295780,17430 -801400,46250 -705880,36420 -736890,529560 -20040,318730 100980,695940 177580,739040 189240,106470 3525910,87460 3978470,76350 158500,-3890 307790,-20720 388530,-103410 155870,-159620 152550,-466560 140970,-711640 -29040,-614800 55950,-533960 -652880,-547330zm-3659140 631610c-10620,15160 -17210,34810 -16640,52000 910,26900 17230,52550 32430,76830 9630,15380 24400,29060 41010,40460 102280,70200 251980,32290 296930,-62450 24540,-51700 -1630,-124110 -52910,-159630 -83310,-57710 -255950,-11270 -300820,52790zm3551440 0c-10620,15160 -17220,34810 -16640,52000 910,26900 17220,52550 32420,76830 9640,15380 24400,29060 41020,40460 102270,70200 251970,32290 296930,-62450 24540,-51700 -1640,-124110 -52910,-159630 -83310,-57710 -255950,-11270 -300820,52790z"/>
  <path class="fil2" d="M3987630 1247910c-400780,6820 -980400,14350 -1564760,14190 -19920,-39500 -37910,-79920 -53970,-121270 5650,2000 160,58380 -7810,121220 -499900,-630 -998800,-7100 -1387780,-24730 20460,-37580 37200,-77050 50380,-118340 -42310,40110 -87060,78180 -134230,114280l-2650 -130c-716220,-37280 -671020,-31650 -689690,-389610 221100,-15900 130480,-37640 -3510,-58410l-90 -1220c-18830,-270390 22060,-590400 94130,-626970 25240,-12800 111540,-23220 242200,-31710 60600,29100 126750,53910 198120,74660 -34150,-26050 -66720,-52850 -97740,-80390 258120,-12960 634740,-20490 1046740,-24720 90070,-920 310010,112150 402580,111520 81990,-540 36520,-114860 119190,-115210 674020,-2940 1350670,160 1702870,1010 -41900,39630 -86880,77800 -134970,114480 101820,-29610 192990,-67480 272660,-114280 25660,0 47320,-40 64400,-130 139010,-730 333110,20120 408680,56620 86650,41840 125750,104240 139140,178200 21980,121300 -25170,273740 -44990,417580 -282460,72740 -163650,74970 -7440,68240 -39780,431600 23760,431650 -410380,433340 -69560,-133560 -79350,-85390 -74830,360 -38710,250 -80610,650 -126250,1420z"/>
  <path class="fil3" d="M3953080 1301520c-385520,6640 -940190,13950 -1502080,14030 -31640,-56270 -59090,-114520 -82470,-174720 7240,2570 -3810,94350 -14940,174660 -513270,-720 -1024760,-7860 -1411280,-27460 34920,-52320 61770,-108760 81010,-169050 -61730,58540 -128720,112740 -200770,162770 -632130,-33810 -553480,-44620 -580700,-439260l-180 -2690c141060,-13460 93790,-30370 -2430,-47170 -9290,-254670 40420,-529070 94680,-570340 26150,-19910 139940,-35910 312760,-48510 26170,9310 53150,18020 80920,26090 -12600,-9600 -24970,-19320 -37130,-29130 267310,-17660 656470,-28110 1077550,-32930l91650 -1050 210490 79250 118890 -81730c71340,-49040 195900,-710 292970,-730 540980,-120 1053310,6210 1356220,15020 -23170,19730 -47150,39060 -71970,57990 54980,-15990 106860,-34380 155490,-55290 62070,2210 111220,4530 144850,6930 135110,9640 325830,19900 399750,56010 84770,41400 123000,103120 136120,176280 19060,106470 -15090,237180 -36590,364690 -207670,56290 -134300,63110 -8860,59180 -1190,9320 -2250,18610 -3150,27840 -42260,431710 22330,454550 -339210,457220 -109870,-231970 -108170,-123810 -97240,460 -48660,220 -103190,580 -164350,1640z"/>
  <path class="fil4" d="M3953020 1256310c-391080,6730 -956190,14160 -1526360,14030 -21620,-42120 -41010,-85290 -58190,-129510 5900,2090 -330,63380 -8870,129460 -503480,-650 -1005760,-7460 -1390490,-26130 22180,-39630 40170,-81380 54150,-125180 -44800,42470 -92330,82670 -142590,120640 -670000,-35270 -615920,-36060 -636260,-400080 136510,-13310 91090,-29930 -2890,-46490 -17550,-266470 37130,-570640 92340,-615970 20760,-17060 96790,-31390 213730,-43350 55590,25450 115640,47440 179950,66140 -31590,-24100 -61820,-48820 -90740,-74200 285380,-22870 737550,-35470 1222850,-40770 27280,-290 173760,100000 201230,99620 14930,-220 -85080,-100880 -45570,-101070 729620,-3580 1500870,4780 1874200,19560 -38560,35720 -79640,70260 -123300,103550 89550,-26040 170860,-58460 243340,-97730 22150,1360 41310,2740 57000,4160 134720,12250 325830,19900 399750,56010 84770,41400 123000,103120 136120,176280 12020,67110 2880,143840 -10880,223340 -10780,62250 -24430,126200 -33000,188540 -196120,53770 -127380,60890 -6400,57350 -39680,423140 21440,437810 -359620,439840 -75690,-148150 -84250,-92150 -78600,340 -47790,220 -101160,590 -160900,1620z"/>
  <path class="fil5" d="M3842560 1208410c-362190,5750 -885550,12100 -1413600,11990 -20030,-36020 -37990,-72930 -53900,-110760 5470,1790 -310,54210 -8210,110720 -466300,-560 -931470,-6390 -1287780,-22350 20550,-33890 37200,-69600 50160,-107050 -41490,36310 -85520,70690 -132070,103170 -620500,-30170 -570410,-30830 -589250,-342150 126430,-11390 84360,-25600 -2680,-39760 -16250,-227890 34380,-488020 85520,-526790 19220,-14580 89630,-26830 197940,-37070 51490,21770 107100,40580 166660,56570 -29260,-20610 -57260,-41760 -84030,-63450 264280,-19560 683060,-30340 1132510,-34870 25270,-260 160910,85520 186370,85190 13830,-180 -78810,-86280 -42220,-86440 675740,-3060 1390010,4090 1735760,16740 -35710,30550 -73760,60080 -114200,88550 82940,-22260 158250,-49990 225380,-83580 20510,1160 38260,2340 52780,3560 124770,10470 301760,17020 370230,47900 78500,35400 113910,88180 126060,150750 11130,57390 2670,123020 -10090,191010 -9970,53230 -22610,107930 -30550,161240 -181640,45980 -117980,52070 -5930,49040 -36750,361870 19860,374410 -333060,376150 -70100,-126700 -78020,-78810 -72790,290 -44260,190 -93690,510 -149010,1400z"/>
  <path class="fil6" d="M3741000 309930c-336240,-4610 -822090,-9690 -1312280,-9600 -18590,28820 -35270,58360 -50020,88630 5070,-1430 -300,-43380 -7640,-88600 -432860,440 -864700,5110 -1195460,17880 19070,27130 34530,55700 46550,85670 -38520,-29070 -79380,-56570 -122590,-82560 -576030,24140 -529530,24670 -547020,273800 117360,9100 78310,20470 -2480,31810 -15090,182360 31910,390520 79390,421540 17840,11670 83210,21480 183740,29660 47800,-17410 99430,-32470 154720,-45260 -27160,16490 -53160,33420 -78010,50780 245350,15650 634100,24280 1051330,27900 23460,200 149390,-68430 173010,-68170 12830,140 -73150,69040 -39180,69170 627290,2440 1290370,-3280 1611330,-13400 -33150,-24440 -68470,-48070 -106000,-70860 76990,17820 146890,40010 209210,66880 19040,-930 35510,-1870 49000,-2850 115820,-8370 280130,-13610 343690,-38330 72870,-28320 105750,-70570 117020,-120630 10330,-45920 2470,-98440 -9360,-152840 -9270,-42600 -20990,-86370 -28360,-129030 -168620,-36800 -109530,-41670 -5500,-39250 -34120,-289570 18430,-299610 -309190,-301000 -65070,101390 -72430,63060 -67570,-230 -41090,-160 -86980,-410 -138330,-1110z"/>
 </g>
</svg>
