<?xml version="1.0" encoding="UTF-8"?>
<!DOCTYPE svg PUBLIC "-//W3C//DTD SVG 1.1//EN" "http://www.w3.org/Graphics/SVG/1.1/DTD/svg11.dtd">
<!-- Creator: CorelDRAW X7 -->
<svg xmlns="http://www.w3.org/2000/svg" xml:space="preserve" width="1.47756in" height="1.46984in" version="1.1" style="shape-rendering:geometricPrecision; text-rendering:geometricPrecision; image-rendering:optimizeQuality; fill-rule:evenodd; clip-rule:evenodd"
viewBox="0 0 462 460"
 xmlns:xlink="http://www.w3.org/1999/xlink">
 <defs>
  <style type="text/css">
   <![CDATA[
    .fil3 {fill:#007EB4}
    .fil1 {fill:#00B5FE}
    .fil2 {fill:#FEFEFF}
    .fil0 {fill:white}
   ]]>
  </style>
 </defs>
 <g id="Layer_x0020_1">
  <metadata id="CorelCorpID_0Corel-Layer"/>
  <g id="_2201627280">
   <path class="fil0" d="M146 444c-9,-15 -76,-88 -75,-95 5,-4 4,-4 20,-6 17,-2 38,-6 52,-14 -11,-5 -14,-15 -24,-27 -4,-5 -4,-3 -7,-10l-13 -18 15 0 -14 -22c-13,-18 -21,-19 -27,-45l30 7c-7,-18 -35,-39 -20,-86 31,35 74,64 145,66 -2,-41 21,-71 59,-76 61,-7 45,42 104,1 9,5 12,14 18,22l50 72c-4,-67 -66,-139 -134,-167 -176,-71 -353,69 -321,235 9,50 30,80 58,109 1,1 5,5 5,5 0,0 1,1 1,1 22,21 48,38 78,48z"/>
   <path class="fil0" d="M100 252c10,5 25,16 39,21l-25 1 -15 0 13 18c40,23 14,12 50,22l10 4c-11,3 -16,8 -29,11 -14,8 -35,12 -52,14 -16,2 -15,2 -20,6 40,11 61,27 123,19 73,-9 136,-54 163,-118 8,-16 12,-34 12,-54 0,-36 11,-22 26,-45l-29 5c10,-13 22,-19 25,-37 -59,41 -43,-8 -104,-1 -38,5 -61,35 -59,76 -71,-2 -114,-31 -145,-66 -15,47 13,68 20,86l-30 -7c6,26 14,27 27,45z"/>
   <path class="fil0" d="M71 349c-1,7 66,80 75,95 35,14 78,20 124,13 109,-18 188,-104 192,-206l0 -14c0,-10 -2,-15 -3,-24l-50 -72c-6,-8 -9,-17 -18,-22 -3,18 -15,24 -25,37l29 -5c-15,23 -26,9 -26,45 0,20 -4,38 -12,54 -27,64 -90,109 -163,118 -62,8 -83,-8 -123,-19z"/>
   <path class="fil0" d="M143 329c13,-3 18,-8 29,-11l-10 -4c-36,-10 -10,1 -50,-22 3,7 3,5 7,10 10,12 13,22 24,27z"/>
   <path class="fil0" d="M114 274l25 -1c-14,-5 -29,-16 -39,-21l14 22z"/>
  </g>
  <g id="_2201663152">
   <path class="fil1" d="M146 417c-9,-15 -76,-88 -75,-95 5,-4 4,-4 20,-6 17,-2 38,-6 52,-14 -11,-6 -14,-15 -24,-27 -4,-5 -4,-3 -7,-10l-13 -18 15 0 -14 -22c-13,-18 -21,-19 -27,-45l30 7c-7,-18 -35,-39 -20,-86 31,34 74,63 145,66 -2,-41 21,-71 59,-76 61,-7 45,42 104,1 9,5 12,14 18,21l50 72c-4,-66 -66,-139 -134,-166 -176,-71 -353,69 -321,235 9,49 30,79 58,109 1,1 5,4 5,4 0,1 1,1 1,2 22,20 48,38 78,48z"/>
   <path class="fil2" d="M100 225c10,5 25,16 39,20l-25 2 -15 0 13 18c40,23 14,11 50,21l10 4c-11,4 -16,9 -29,12 -14,8 -35,12 -52,14 -16,2 -15,2 -20,6 40,10 61,26 123,19 73,-9 136,-54 163,-118 8,-16 12,-34 12,-54 0,-37 11,-22 26,-45l-29 5c10,-13 22,-19 25,-37 -59,41 -43,-8 -104,-1 -38,5 -61,35 -59,76 -71,-3 -114,-32 -145,-66 -15,47 13,68 20,86l-30 -7c6,26 14,27 27,45z"/>
   <path class="fil3" d="M71 322c-1,7 66,80 75,95 35,14 78,20 124,12 109,-17 188,-104 192,-205l0 -14c0,-10 -2,-16 -3,-25l-50 -72c-6,-7 -9,-16 -18,-21 -3,18 -15,24 -25,37l29 -5c-15,23 -26,8 -26,45 0,20 -4,38 -12,54 -27,64 -90,109 -163,118 -62,7 -83,-9 -123,-19z"/>
   <path class="fil3" d="M143 302c13,-3 18,-8 29,-12l-10 -4c-36,-10 -10,2 -50,-21 3,7 3,5 7,10 10,12 13,21 24,27z"/>
   <path class="fil3" d="M114 247l25 -2c-14,-4 -29,-15 -39,-20l14 22z"/>
  </g>
 </g>
</svg>
