<?xml version="1.0" encoding="UTF-8"?>
<!DOCTYPE svg PUBLIC "-//W3C//DTD SVG 1.1//EN" "http://www.w3.org/Graphics/SVG/1.1/DTD/svg11.dtd">
<!-- Creator: CorelDRAW X7 -->
<svg xmlns="http://www.w3.org/2000/svg" xml:space="preserve" width="8.8536mm" height="8.5171mm" version="1.1" style="shape-rendering:geometricPrecision; text-rendering:geometricPrecision; image-rendering:optimizeQuality; fill-rule:evenodd; clip-rule:evenodd"
viewBox="0 0 46433 44668"
 xmlns:xlink="http://www.w3.org/1999/xlink">
 <defs>
  <style type="text/css">
   <![CDATA[
    .fil9 {fill:#441600}
    .fil2 {fill:#985426}
    .fil10 {fill:#AB5623}
    .fil3 {fill:#FFFFCB}
    .fil7 {fill:white}
    .fil11 {fill:#663300;fill-rule:nonzero}
    .fil8 {fill:white;fill-rule:nonzero}
    .fil0 {fill:#532900;fill-opacity:0.400000}
    .fil1 {fill:url(#id0)}
    .fil6 {fill:url(#id1)}
    .fil5 {fill:url(#id2)}
    .fil4 {fill:url(#id3)}
   ]]>
  </style>
  <linearGradient id="id0" gradientUnits="userSpaceOnUse" x1="24493.9" y1="417.986" x2="24493.9" y2="41376.4">
   <stop offset="0" style="stop-opacity:1; stop-color:#BF772B"/>
   <stop offset="1" style="stop-opacity:1; stop-color:#A26C2E"/>
  </linearGradient>
  <radialGradient id="id1" gradientUnits="userSpaceOnUse" gradientTransform="matrix(1.25966E-005 -1.05696 -1.10402 -6.60579E-005 44348 43728)" cx="23528.9" cy="18858.2" r="40266.2" fx="23528.9" fy="18858.2">
   <stop offset="0" style="stop-opacity:1; stop-color:#FFEBB9"/>
   <stop offset="1" style="stop-opacity:1; stop-color:#FDE09C"/>
  </radialGradient>
  <radialGradient id="id2" gradientUnits="userSpaceOnUse" gradientTransform="matrix(1.25966E-005 -1.05695 -1.10402 -6.60576E-005 43969 43359)" cx="23361.6" cy="18665.7" r="40266.2" fx="23361.6" fy="18665.7">
   <stop offset="0" style="stop-opacity:1; stop-color:#FFE1BB"/>
   <stop offset="1" style="stop-opacity:1; stop-color:#FDCF8F"/>
  </radialGradient>
  <radialGradient id="id3" gradientUnits="userSpaceOnUse" gradientTransform="matrix(1.25964E-005 -1.05149 -1.104 -6.57158E-005 43306 42528)" cx="22655.7" cy="18705" r="39165.4" fx="22655.7" fy="18705">
   <stop offset="0" style="stop-opacity:1; stop-color:#FFD6A1"/>
   <stop offset="1" style="stop-opacity:1; stop-color:#FDBD66"/>
  </radialGradient>
 </defs>
 <g id="Layer_x0020_1">
  <metadata id="CorelCorpID_0Corel-Layer"/>
  <g id="_2012182656">
   <g>
    <path class="fil0" d="M4393 9236c-1807,1868 -3337,4498 -3955,6989 -967,3894 -138,8064 620,12002 480,2497 1610,4899 3040,7028 8800,13106 27276,12059 36139,-242 4837,-6713 4751,-17899 352,-24516 -7149,-10752 -28563,-9153 -36196,-1261z"/>
    <path class="fil1" d="M6948 6362c-1807,1868 -3337,4499 -3955,6989 -967,3894 -138,8064 620,12003 480,2496 1610,4898 3040,7027 8800,13106 27276,12060 36139,-242 4837,-6713 4751,-17899 352,-24516 -7148,-10752 -28563,-9153 -36196,-1261z"/>
    <path class="fil2" d="M8565 13185c-1184,1764 -2034,4100 -2171,6191 -214,3271 1054,6505 2233,9562 746,1938 2001,3706 3458,5211 1093,1129 2272,2067 3508,2826 2923,-1372 6071,-2802 1756,942 7534,3482 16623,898 21750,-5883 -2751,-2400 -6482,-5538 1150,-1704 308,-512 596,-1045 859,-1596 2920,-6096 1236,-15078 -3257,-19763 -254,-264 -520,-511 -794,-747 -2384,1090 -4276,1780 -1261,-936 -7352,-4721 -20198,-1578 -25842,4204 2681,1874 5171,3746 -1205,1429 -63,88 -125,176 -184,264z"/>
    <path class="fil3" d="M9630 9100c-370,440 -721,925 -1042,1439 3057,2152 8105,5399 -1013,1946 -356,838 -623,1701 -769,2536 -565,3229 349,6581 1191,9746 534,2008 1592,3900 2878,5554 2042,2623 4554,4442 7270,5518 1120,-436 1740,-511 1002,361 6492,2107 13932,143 18856,-5123 -2284,-2009 -4150,-3841 1114,-1304 424,-543 824,-1113 1195,-1713 3559,-5747 2850,-14858 -1113,-19999 -161,-208 -329,-407 -502,-602 -3221,1511 -7379,3540 -1487,-1393 -7483,-5868 -22329,-3215 -27580,3034z"/>
    <path class="fil4" d="M8007 12647c-888,1611 -1499,3528 -1613,5273 -214,3271 1054,6504 2233,9561 746,1939 2001,3706 3458,5212 1511,1560 3185,2757 4949,3617 2037,-912 3511,-1390 1416,612 6968,2636 15001,340 19961,-5487 -2505,-2186 -4985,-4456 1125,-1459 586,-841 1114,-1741 1572,-2698 2871,-5995 1290,-14779 -3036,-19526 -2988,1403 -6171,2839 -1359,-1266 -7499,-5913 -22219,-2154 -27559,4449 2992,2083 6858,4704 -1147,1712z"/>
    <path class="fil5" d="M9808 18467c-174,2652 854,5273 1809,7752 606,1571 1623,3004 2804,4225 1225,1265 2582,2235 4012,2932 1651,-739 2846,-1127 1148,497 3251,1229 7460,1425 10654,-248 4519,-2366 7557,-7242 7715,-7571 6915,-14439 -5502,-21472 -15723,-19871 -6941,1087 -12134,7922 -12419,12284z"/>
    <path class="fil6" d="M11479 18682c-154,2357 760,4687 1609,6891 538,1396 1443,2671 2493,3755 1089,1125 2295,1988 3567,2607 1468,-656 2530,-1001 1020,442 2890,1093 6631,1266 9471,-220 4018,-2104 6718,-6439 6858,-6731 6148,-12836 -4891,-19088 -13977,-17665 -6170,966 -10787,7043 -11041,10921z"/>
   </g>
   <g>
    <path class="fil7" d="M10757 16342c120,1110 246,1085 1160,1854l4078 3232c292,216 413,246 712,496 826,688 4355,3635 4908,3576 949,-102 -241,-2654 -494,-3366 -302,-851 -616,-1766 -923,-2676 4144,-446 10167,-125 10904,5053 483,3392 -3236,6819 -5769,8456 -847,547 -982,523 -1045,1078 2049,-220 3152,-677 4687,-1306 4294,-1758 7561,-5185 7002,-10389 -801,-7459 -9194,-9585 -15223,-9695 -551,-10 -933,448 -128,-1809 193,-543 302,-927 465,-1463 1,-1 833,-2156 -3,-2066 -762,82 -7974,6314 -9463,7488 -422,332 -941,852 -868,1537z"/>
    <path class="fil8" d="M11743 16156c58,452 136,513 501,797l2 2 1 -3 281 221 34 28 4023 3018 11 8c76,52 141,90 202,126 156,92 302,179 521,352l3 2 1 -2 14 11c20,15 39,31 57,48 623,492 2354,1857 3362,2605 -120,-335 -264,-676 -376,-943 -85,-201 -159,-378 -182,-437l-15 -44c-195,-518 -339,-908 -450,-1213l-464 -1295c-180,-508 91,-1059 604,-1231 71,-24 144,-40 216,-47l0 -2c2525,-256 5735,-248 8201,833 1945,854 3417,2334 3785,4784 247,1640 -381,3239 -1408,4665 -642,889 -1443,1716 -2276,2438l182 -70 37 -14 0 0c2121,-822 3961,-2046 5124,-3679 990,-1391 1495,-3104 1263,-5152 -305,-2684 -1862,-4553 -3966,-5822 -2956,-1782 -6982,-2426 -10283,-2483 -45,0 -83,4 -117,8l-4 0 0 1c-220,25 -407,48 -675,-43 -853,-287 -1041,-885 -248,-2991 128,-340 234,-673 360,-1068l82 -255c-1401,1043 -3897,3019 -5740,4478 -988,782 -1800,1425 -2181,1709 -151,113 -314,249 -412,387 -49,68 -81,137 -75,193 3,27 4,53 5,80zm-716 2309c-914,-712 -1087,-848 -1236,-2101 -6,-29 -11,-59 -14,-89 -67,-591 124,-1094 421,-1512 249,-349 557,-615 828,-818 406,-302 1186,-921 2139,-1674 2416,-1914 5885,-4660 7314,-5408 139,-107 310,-177 499,-196 252,-26 480,13 689,107 26,11 54,24 80,38 440,235 641,628 687,1099 26,261 -1,545 -54,815l-1 0c-67,340 -197,711 -310,997 -8,54 -20,109 -37,164l-87 273c-442,1386 -1002,1591 83,1604 3319,37 7094,961 10016,2723 2603,1568 4531,3901 4914,7276 289,2552 -353,4706 -1609,6470 -1399,1965 -3552,3413 -6008,4365l0 -1 -37 15c-1593,618 -2752,1068 -4906,1286l0 -2c-72,8 -146,8 -221,-2 -541,-65 -929,-549 -867,-1081 108,-908 279,-1008 1135,-1511 114,-67 252,-148 365,-216 1376,-843 3119,-2208 4249,-3775 761,-1055 1233,-2190 1071,-3270 -252,-1673 -1272,-2690 -2623,-3282 -1706,-749 -3945,-874 -5953,-765l36 98c186,512 339,929 441,1199l14 36c53,141 97,245 150,372 264,625 667,1583 751,2324 109,965 -176,1681 -1221,1787 -930,95 -4547,-2744 -5554,-3538 -22,-15 -44,-31 -65,-48l-14 -11 2 -2c-124,-98 -206,-146 -293,-198 -95,-56 -195,-115 -326,-204 -24,-15 -48,-31 -71,-49l-4025 -3019c-25,-16 -50,-34 -74,-53l-281 -221 3 -2z"/>
    <path class="fil9" d="M11112 16692c111,1034 235,1011 1120,1722l3954 2993c283,200 402,228 691,458 801,639 4222,3368 4760,3310 925,-99 -222,-2472 -465,-3133 -291,-791 -591,-1644 -887,-2490 4035,-433 9895,-162 10590,4659 455,3158 -3181,6368 -5653,7904 -827,514 -958,492 -1022,1010 1995,-215 3071,-646 4568,-1238 4186,-1658 7381,-4866 6860,-9711 -746,-6945 -8904,-8889 -14771,-8964 -536,-6 -910,422 -117,-1685 191,-506 299,-864 461,-1365 0,0 820,-2012 5,-1924 -741,79 -7788,5918 -9242,7018 -412,312 -920,798 -852,1436z"/>
    <g>
     <path class="fil10" d="M11235 15726c111,1033 235,1010 1120,1722l3954 2992c284,200 402,228 692,459 800,638 4221,3367 4759,3309 925,-99 -222,-2471 -465,-3133 -290,-791 -591,-1643 -887,-2490 4036,-433 9896,-162 10590,4659 454,3158 -3181,6367 -5653,7905 -827,513 -958,492 -1022,1009 1995,-214 3071,-645 4568,-1238 4186,-1658 7381,-4865 6861,-9710 -747,-6947 -8905,-8889 -14772,-8965 -536,-6 -910,423 -116,-1685 191,-506 298,-864 460,-1365 0,0 820,-2012 5,-1925 -741,80 -7788,5919 -9243,7020 -411,311 -919,797 -851,1436z"/>
     <path id="1" class="fil11" d="M12467 17300l-224 296 -4 -4 -80 -64 -77 -60 -71 -57 -68 -53 -65 -52 -61 -48 -58 -47 -54 -45 -53 -43 -50 -43 -46 -43 -45 -42 -42 -44 -40 -43 -37 -44 -37 -48 -33 -48 -31 -49 -28 -51 -26 -53 -24 -56 -22 -58 -20 -61 -18 -62 -15 -64 -15 -70 -14 -72 -13 -76 -12 -80 -12 -85 -10 -91 -11 -94 368 -40 11 93 10 86 11 79 11 74 12 69 11 64 14 58 13 55 14 49 15 46 15 41 18 39 17 38 20 35 21 34 22 32 25 32 28 33 31 33 33 34 38 36 40 37 43 38 49 40 52 42 56 46 59 47 64 50 69 54 72 57 77 62 81 65 -4 -4zm-224 296l-4 -4 2 2 2 2zm3955 2992l-3955 -2992 224 -296 3954 2993 -219 299 -4 -4zm4 4l-4 -4 6 6 -2 -2zm914 162l-231 290 0 0 -25 -20 -25 -19 -23 -18 -23 -17 -21 -16 -21 -14 -21 -16 -19 -12 -20 -13 -21 -14 -17 -11 -19 -12 -18 -12 -17 -10 -19 -11 -19 -12 -18 -12 -19 -11 -20 -11 -19 -11 -20 -12 -19 -12 -23 -13 -22 -15 -21 -13 -22 -14 -22 -14 -25 -16 -25 -16 -26 -18 -26 -18 -28 -19 214 -303 25 18 24 16 23 15 22 15 21 13 22 15 21 13 21 13 19 12 18 11 20 12 19 11 20 12 18 12 19 11 20 11 19 12 19 11 22 13 21 14 19 12 23 15 20 13 22 15 25 16 23 17 24 17 25 19 25 18 26 20 27 20 28 23 0 0zm4625 3270l39 368 0 0 -107 -4 -100 -23 -105 -38 -114 -51 -123 -63 -133 -73 -143 -84 -152 -94 -160 -103 -167 -110 -174 -118 -179 -124 -184 -130 -188 -134 -190 -138 -193 -141 -192 -144 -192 -143 -191 -144 -189 -144 -185 -142 -182 -139 -175 -137 -170 -131 -162 -127 -154 -121 -144 -114 -134 -106 -123 -97 -110 -88 -97 -78 -83 -65 231 -290 82 66 97 77 110 87 123 97 133 106 145 114 153 120 161 126 169 132 175 135 180 139 185 142 187 142 190 143 191 144 192 142 190 140 188 136 187 133 180 128 178 122 170 116 164 108 155 99 145 90 136 80 123 68 109 56 93 42 75 26 48 12 11 2 0 0zm-620 -2885l348 -128 0 0 24 64 30 74 33 84 38 92 42 99 43 107 46 113 48 116 48 123 49 126 49 128 48 131 47 132 45 133 44 134 40 133 38 133 33 130 28 129 24 125 18 122 12 119 4 115 -4 111 -13 107 -25 103 -38 98 -56 92 -74 80 -91 63 -105 43 -114 22 -39 -368 48 -9 33 -14 24 -17 22 -23 19 -32 18 -45 13 -58 9 -71 3 -81 -4 -91 -10 -98 -15 -107 -21 -112 -27 -117 -30 -120 -35 -125 -39 -126 -41 -127 -44 -129 -45 -128 -47 -127 -48 -125 -48 -124 -48 -119 -46 -116 -46 -111 -43 -106 -42 -100 -38 -93 -34 -86 -31 -78 -27 -70 0 0zm-732 -2738l39 369 156 -246 27 79 28 80 27 79 29 79 28 80 27 79 28 79 27 80 28 78 29 80 27 79 28 79 28 79 28 78 28 78 27 79 28 78 28 78 28 77 28 78 27 78 28 76 28 78 27 77 27 75 28 77 28 76 27 75 28 76 27 75 27 74 27 74 -348 128 -27 -74 -27 -75 -28 -75 -27 -76 -28 -76 -27 -76 -28 -76 -28 -77 -27 -77 -28 -77 -28 -78 -28 -77 -28 -78 -27 -77 -28 -79 -28 -78 -28 -79 -28 -78 -27 -79 -28 -79 -28 -79 -28 -79 -28 -79 -28 -80 -28 -79 -27 -79 -29 -79 -28 -80 -27 -79 -28 -79 -28 -80 -28 -79 156 -246zm-156 246l-77 -220 233 -26 -156 246zm10948 4571l-367 52 0 0 -77 -425 -105 -398 -132 -373 -157 -349 -181 -325 -203 -303 -225 -282 -246 -261 -266 -242 -284 -222 -302 -204 -318 -186 -334 -168 -348 -153 -361 -136 -372 -122 -383 -106 -392 -90 -400 -79 -405 -64 -411 -53 -415 -42 -417 -30 -418 -20 -419 -10 -417 -1 -414 8 -410 14 -405 22 -398 28 -390 34 -381 38 -39 -369 385 -38 396 -35 404 -28 411 -22 417 -15 421 -7 425 1 426 10 428 20 427 31 425 42 421 54 418 67 413 81 406 95 398 110 388 126 377 143 367 160 353 179 338 197 323 218 305 239 287 260 266 283 244 305 221 330 196 352 169 377 142 402 113 427 82 453 0 0zm-5738 8088l-195 -315 -1 0 232 -147 238 -157 244 -166 247 -174 250 -183 252 -192 254 -199 253 -207 252 -213 250 -221 247 -227 244 -233 239 -239 233 -244 226 -249 219 -254 209 -259 201 -263 189 -266 179 -270 165 -272 152 -275 138 -277 123 -279 106 -280 89 -281 72 -282 54 -283 33 -283 14 -282 -8 -281 -29 -283 367 -52 33 310 8 310 -16 310 -36 308 -58 305 -77 305 -96 301 -113 299 -130 295 -146 292 -159 289 -174 285 -185 281 -197 276 -207 272 -217 267 -225 262 -232 256 -240 251 -245 246 -249 238 -253 232 -256 225 -257 219 -259 210 -258 204 -257 195 -256 187 -251 178 -249 169 -243 160 -238 151 0 0zm-1139 668l39 368 -204 -207 7 -50 7 -47 8 -48 10 -45 11 -43 11 -40 15 -42 16 -40 18 -38 20 -38 23 -36 25 -35 26 -31 29 -33 30 -29 32 -28 35 -29 34 -27 37 -26 39 -26 40 -27 45 -29 45 -27 47 -29 52 -32 53 -31 56 -34 61 -36 64 -38 67 -41 71 -43 75 -46 195 315 -76 47 -73 44 -69 42 -63 38 -61 36 -57 35 -53 31 -49 30 -46 28 -44 26 -38 24 -35 24 -33 22 -29 21 -26 20 -22 18 -20 18 -18 17 -14 16 -14 17 -11 15 -10 17 -10 17 -8 19 -9 21 -7 22 -8 28 -8 29 -7 33 -6 35 -6 41 -5 43 -204 -206zm39 368l-232 25 28 -232 204 207zm4480 -1595l136 346 0 0 -139 55 -137 54 -136 53 -133 52 -133 52 -131 50 -130 50 -129 48 -130 48 -129 46 -129 46 -129 44 -131 44 -131 42 -132 41 -134 41 -134 39 -137 38 -140 37 -140 35 -144 35 -146 33 -149 32 -152 31 -156 30 -159 29 -164 27 -167 26 -171 24 -177 24 -181 22 -186 21 -39 -368 182 -21 177 -21 173 -24 168 -24 163 -25 159 -26 155 -28 151 -30 148 -30 145 -31 142 -32 139 -34 137 -34 134 -36 133 -37 131 -38 130 -39 129 -41 128 -40 126 -43 127 -43 126 -45 127 -46 128 -46 127 -49 129 -48 130 -50 131 -51 133 -52 135 -53 137 -55 139 -55 0 0zm6745 -9517l368 -40 0 0 39 458 16 449 -4 439 -24 429 -46 420 -64 411 -84 402 -103 391 -121 382 -139 373 -156 362 -172 353 -188 343 -205 334 -219 324 -234 314 -247 304 -261 295 -274 284 -285 275 -299 266 -308 256 -320 246 -330 237 -340 228 -350 217 -357 208 -366 200 -373 189 -382 180 -387 171 -394 163 -136 -346 385 -157 378 -167 372 -176 365 -186 356 -194 348 -203 340 -211 330 -220 320 -230 309 -239 299 -247 288 -257 275 -265 263 -274 252 -283 237 -292 224 -301 209 -309 196 -319 179 -329 166 -336 148 -346 132 -355 116 -364 98 -374 80 -384 62 -392 43 -402 24 -412 4 -421 -17 -431 -36 -441 0 0zm-14590 -8799l4 -371 1 0 560 13 571 24 582 37 590 49 596 62 602 77 604 91 604 106 605 122 603 138 598 154 592 173 585 191 575 209 564 229 552 249 536 269 521 291 502 313 481 334 461 359 436 383 411 406 383 432 353 458 322 484 289 510 253 538 216 564 177 594 136 621 93 650 -368 40 -90 -624 -130 -595 -169 -566 -206 -539 -242 -513 -275 -486 -307 -462 -338 -438 -367 -413 -394 -391 -419 -368 -444 -345 -466 -324 -487 -303 -505 -283 -523 -261 -537 -243 -552 -224 -563 -205 -573 -186 -582 -170 -588 -152 -592 -136 -595 -120 -596 -104 -595 -90 -594 -75 -588 -62 -582 -49 -574 -36 -565 -24 -553 -12 1 0zm-288 -1936l347 131 0 0 -71 189 -64 174 -57 161 -51 147 -44 134 -39 122 -33 109 -27 97 -22 87 -16 74 -12 63 -6 52 -2 41 0 29 2 16 1 2 -3 -7 -10 -11 -13 -10 -8 -4 -1 -1 8 1 20 1 23 -1 32 -3 37 -4 41 -5 46 -6 48 -5 52 -4 56 -3 58 -1 -4 371 -42 0 -41 2 -43 4 -43 5 -42 5 -44 5 -42 5 -45 4 -47 1 -47 -2 -52 -6 -54 -15 -57 -26 -54 -42 -44 -53 -30 -61 -19 -62 -8 -63 -2 -63 4 -69 9 -73 14 -80 19 -87 25 -96 29 -105 35 -117 40 -126 46 -138 53 -151 58 -164 65 -177 71 -191 0 0zm502 -1431l263 262 45 -74 -15 47 -15 45 -14 45 -14 44 -14 44 -14 43 -14 43 -13 42 -14 42 -13 42 -13 40 -13 41 -14 41 -13 41 -13 41 -14 41 -13 39 -14 42 -13 41 -14 41 -14 41 -14 43 -15 42 -15 42 -14 43 -16 44 -16 43 -16 46 -17 45 -17 44 -17 48 -18 48 -347 -131 18 -46 16 -45 17 -47 17 -44 15 -43 16 -43 14 -42 15 -42 15 -43 14 -41 14 -39 14 -41 13 -41 14 -40 13 -40 14 -41 13 -40 13 -40 13 -40 13 -40 13 -40 13 -43 14 -41 13 -40 14 -43 13 -42 13 -43 15 -45 14 -44 14 -45 15 -46 15 -46 45 -75zm-45 75l15 -44 30 -31 -45 75zm202 -1684l-40 -369 0 0 102 -3 98 15 92 35 80 52 66 68 49 77 34 81 24 84 13 87 7 89 1 90 -5 93 -8 95 -13 96 -16 97 -20 96 -21 96 -23 95 -25 95 -26 90 -26 88 -26 86 -26 79 -25 75 -24 70 -23 61 -20 55 -17 46 -14 38 -12 28 -6 18 -44 68 -263 -262 -38 57 6 -16 10 -26 14 -36 17 -44 19 -52 21 -60 23 -65 23 -72 26 -76 25 -79 24 -84 25 -86 23 -87 21 -87 20 -90 17 -87 15 -85 11 -82 7 -79 4 -75 -1 -68 -5 -60 -8 -52 -11 -41 -13 -31 -12 -19 -11 -11 -11 -8 -15 -5 -27 -5 -42 2 0 0zm-9151 6983l-223 -296 0 0 151 -116 181 -141 211 -166 237 -189 262 -208 283 -226 303 -243 321 -258 336 -269 350 -280 359 -289 370 -296 376 -300 380 -303 383 -303 383 -303 380 -300 376 -295 371 -288 361 -280 351 -268 338 -257 324 -242 306 -226 286 -207 266 -187 242 -167 218 -141 190 -118 165 -91 141 -63 133 -36 40 369 -41 13 -104 47 -146 81 -180 110 -209 138 -237 162 -262 184 -284 205 -303 225 -322 240 -336 255 -350 268 -360 278 -369 288 -376 295 -380 298 -383 303 -381 304 -381 302 -375 300 -369 295 -360 289 -349 280 -336 270 -321 257 -303 243 -284 227 -262 209 -238 188 -212 167 -184 144 -154 118 0 0zm-779 1268l-368 40 0 0 -6 -70 -1 -68 1 -68 6 -67 9 -65 12 -65 15 -62 18 -61 20 -60 23 -59 26 -58 27 -55 30 -54 31 -54 33 -52 34 -50 36 -49 37 -48 38 -46 39 -45 40 -44 41 -43 41 -42 41 -40 42 -38 41 -38 43 -37 43 -36 41 -34 41 -34 41 -31 41 -31 223 296 -37 28 -38 30 -38 30 -37 31 -39 32 -36 32 -38 34 -37 35 -37 35 -36 37 -34 35 -34 38 -33 38 -31 39 -32 40 -29 39 -28 42 -26 41 -24 41 -23 43 -21 43 -20 43 -17 43 -15 44 -12 45 -12 46 -8 45 -7 46 -3 47 -2 48 2 48 3 50 0 0z"/>
    </g>
   </g>
  </g>
 </g>
</svg>
