<?xml version="1.0" encoding="UTF-8"?>
<!DOCTYPE svg PUBLIC "-//W3C//DTD SVG 1.1//EN" "http://www.w3.org/Graphics/SVG/1.1/DTD/svg11.dtd">
<!-- Creator: CorelDRAW X7 -->
<svg xmlns="http://www.w3.org/2000/svg" xml:space="preserve" width="26.4012mm" height="4.5765mm" version="1.1" style="shape-rendering:geometricPrecision; text-rendering:geometricPrecision; image-rendering:optimizeQuality; fill-rule:evenodd; clip-rule:evenodd"
viewBox="0 0 1046968 181486"
 xmlns:xlink="http://www.w3.org/1999/xlink">
 <defs>
  <style type="text/css">
   <![CDATA[
    .fil0 {fill:#990000;fill-rule:nonzero}
   ]]>
  </style>
 </defs>
 <g id="Layer_x0020_1">
  <metadata id="CorelCorpID_0Corel-Layer"/>
  <path class="fil0" d="M101254 41516c-3359,0 -6016,-980 -8011,-2970 -2026,-1995 -3077,-4620 -3077,-7908 0,-3462 1293,-6432 3811,-8918 2518,-2447 5631,-3673 9303,-3673 3288,0 6016,980 8221,2975 2098,2062 3184,4616 3184,7693 0,3533 -1296,6543 -3815,9026 -2585,2518 -5805,3775 -9616,3775zm66487 22243c10315,8990 15494,21510 15494,37495 0,11750 -5282,21474 -15811,29203 -10386,7661 -23326,11472 -38819,11472l-40465 0c-1717,11960 -6159,21371 -13329,28295 -7170,6888 -16053,10318 -26649,10318 -13641,0 -25114,-5246 -34310,-15775 -9232,-10457 -13852,-23187 -13852,-38228 0,-12623 3430,-18920 10251,-18920 3494,0 8427,1887 14863,5734 -2308,4164 -3497,8605 -3497,13293 0,7308 2169,13253 6467,17837 4236,4580 9724,6888 16509,6888 6262,0 10878,-2518 13816,-7483 2868,-4862 4303,-12555 4303,-23084 0,-1364 -174,-9477 -492,-24376l-523 -22628c0,-3779 1118,-6753 3395,-8919 2307,-2276 5420,-3394 9299,-3394 6785,0 12559,1887 17314,5631 -1293,1995 -2237,6995 -2867,14970 8744,-15248 20458,-24273 35151,-27141 7519,-1502 15525,-1435 23992,211 8534,1677 15109,4544 19760,8601zm-13816 39034c877,-6647 -2026,-12278 -8708,-16930 -6504,-4544 -13535,-6119 -21125,-4683 -7452,1432 -14796,6258 -22033,14546 -6159,6963 -10600,14165 -13329,21616l0 2447 29520 0c22351,0 34240,-5667 35675,-16996z"/>
  <path id="1" class="fil0" d="M254652 141929c-4303,0 -7765,-805 -10351,-2447 0,13709 -1748,23536 -5214,29413 -5068,8395 -14689,12591 -28922,12591 -5107,0 -9513,-1328 -13221,-3989 -3672,-2622 -5528,-5663 -5528,-9125 0,-3641 1856,-7836 5528,-12591 2764,2518 5806,3775 9129,3775 4513,0 7765,-1852 9755,-5524 1892,-3779 2871,-9934 2871,-18468 0,-2867 -71,-6682 -210,-11472 68,-421 103,-2974 103,-7658 0,-2835 -210,-11226 -630,-25217 -278,-12523 -417,-20320 -417,-23469 0,-3882 1154,-7066 3391,-9549 2308,-2447 5385,-3672 9232,-3672 7170,0 12944,2169 17314,6539 -2134,3359 -3181,9970 -3181,19797 0,17627 32,30602 103,38926l30639 0 0 22140 -20391 0z"/>
  <path id="2" class="fil0" d="M271022 119789l47250 0 -7590 -23048c-3010,-9164 -5735,-14970 -8185,-17417 210,-7380 1856,-12519 4897,-15458 7134,-7134 17766,-10667 32003,-10667 14934,0 26930,3707 35952,11155 8954,7451 13431,17242 13431,29417 0,9442 -2831,18115 -8498,26018l28572 0 0 22140 -137832 0 0 -22140zm55851 -42004c4442,6365 9585,20217 15391,41584 5246,-1293 9442,-3914 12591,-7868 3148,-3954 4723,-8673 4723,-14129 0,-6365 -1995,-11576 -5949,-15601 -3985,-3950 -9093,-5945 -15386,-5945 -4232,0 -8011,560 -11370,1646l0 313z"/>
  <path id="3" class="fil0" d="M421762 119789c3078,0 5211,-979 6437,-2970 1221,-1892 1851,-5108 1851,-9621l-523 -48265c-246,-26018 -385,-41480 -385,-46307 0,-3775 1119,-6785 3355,-9021 2276,-2273 5354,-3395 9236,-3395 6750,0 12520,1892 17310,5631 -2026,3359 -3077,9970 -3077,19904l317 93449c0,15145 -6892,22735 -20708,22735l-30845 0 0 -22140 17032 0z"/>
  <path id="4" class="fil0" d="M500523 25638c0,4231 246,21616 734,52147l595 51553c0,3811 -1119,6857 -3355,9093 -2276,2273 -5354,3395 -9236,3395 -6678,0 -12452,-1927 -17310,-5738 2062,-3426 3077,-10037 3077,-19864l-630 -52183c-456,-30532 -702,-47707 -702,-51518 0,-3846 1122,-6892 3359,-9128 2272,-2237 5385,-3395 9339,-3395 6678,0 12452,1927 17207,5738 -2027,3359 -3078,10002 -3078,19900z"/>
  <path id="5" class="fil0" d="M592228 40398c-3287,0 -5944,-1016 -8011,-2975 -2026,-2062 -3041,-4683 -3041,-7903 0,-3601 1257,-6646 3775,-9129 2518,-2447 5631,-3672 9339,-3672 3323,0 6087,1015 8288,3077 2102,2031 3185,4585 3185,7590 0,3673 -1293,6750 -3811,9201 -2590,2550 -5842,3811 -9724,3811zm31059 0c-3288,0 -5984,-1016 -8118,-2975 -2026,-2062 -3077,-4683 -3077,-7903 0,-3601 1296,-6646 3918,-9129 2518,-2447 5595,-3672 9200,-3672 3355,0 6119,1015 8324,3077 2098,2031 3145,4585 3145,7590 0,3673 -1258,6750 -3776,9201 -2589,2550 -5805,3811 -9616,3811zm18428 101531c-6750,-139 -11437,-2482 -14023,-7067 -4933,4723 -11611,7067 -20006,7067l-9827 0c-12837,0 -23048,-3882 -30638,-11683 -7031,-7308 -10354,-16330 -9934,-27033 492,-15740 6052,-27874 16683,-36480 10807,-9093 25812,-13360 45014,-12836 6678,0 12452,1820 17310,5456 -2062,3252 -3077,9585 -3077,18956l210 27668c71,206 107,488 107,908 0,3744 872,6853 2657,9339 1642,2308 3462,3498 5524,3565l12000 0 0 22140 -12000 0zm-42738 -22140c5525,0 8324,-3077 8324,-9232l-944 -37495c-6297,1507 -12031,5390 -17206,11683 -5144,6226 -7698,12313 -7698,18258 0,11191 5842,16786 17524,16786z"/>
  <path id="6" class="fil0" d="M698272 40782c-3287,0 -5912,-979 -7907,-2974 -2062,-1959 -3077,-4544 -3077,-7765 0,-3565 1261,-6575 3815,-9021 2446,-2447 5524,-3708 9196,-3708 3287,0 6016,1015 8220,2974 2098,2062 3149,4616 3149,7693 0,3637 -1261,6682 -3779,9129 -2590,2447 -5806,3672 -9617,3672zm30813 0c-3256,0 -5913,-979 -7975,-2974 -2066,-1959 -3077,-4544 -3077,-7765 0,-3565 1257,-6575 3811,-9021 2518,-2447 5631,-3708 9303,-3708 3288,0 6016,1015 8185,2974 2134,2062 3181,4616 3181,7693 0,3637 -1293,6682 -3883,9129 -2585,2447 -5770,3672 -9545,3672zm22874 101147c-5806,0 -9970,-1995 -12524,-5944 -3533,3949 -8744,5944 -15561,5944l-74811 0 0 -22140 24900 0c-3601,-6016 -5421,-12135 -5421,-18432 0,-14197 5528,-25951 16612,-35254 11611,-9617 26546,-14058 44875,-13325 6611,0 12345,1924 17207,5735 -2098,3358 -3185,9933 -3185,19796l318 27668c67,206 103,559 103,1118 0,3672 876,6750 2661,9232 1641,2241 3493,3395 5524,3462l11893 0 0 22140 -12591 0zm-41901 -22140c3181,0 5385,-698 6539,-2133 1154,-1503 1749,-4370 1749,-8602l-908 -34556c-6718,1646 -12488,5036 -17349,10144 -4965,5211 -7448,10667 -7448,16402 0,6575 1364,11298 4093,14236 2728,3006 7170,4509 13324,4509z"/>
  <path id="7" class="fil0" d="M779516 119789c3077,0 5246,-979 6472,-2970 1225,-1892 1852,-5143 1852,-9724 0,-1503 -175,-8569 -524,-21232l-523 -19340c0,-3847 1154,-6888 3390,-9129 2273,-2169 5318,-3287 9236,-3287 6678,0 12448,1923 17310,5738 -2062,3355 -3077,9930 -3077,19792l313 39732c0,15041 -6888,22560 -20597,22560l-32911 0 0 -22140 19059 0zm-5524 33018c3287,-36 6016,1015 8216,3041 2170,2067 3256,4585 3256,7591 0,3707 -1297,6785 -3882,9232 -2590,2450 -5806,3672 -9621,3672 -3287,0 -5944,-980 -8006,-2971 -2066,-2030 -3082,-4651 -3082,-7871 0,-3565 1297,-6540 3918,-8919 2519,-2518 5596,-3811 9201,-3775zm30848 0c3355,-36 6083,1047 8181,3149 2205,1990 3288,4477 3288,7483 0,3707 -1293,6749 -3883,9128 -2518,2519 -5734,3776 -9652,3776 -3252,0 -5944,-980 -7975,-2971 -2062,-2030 -3077,-4651 -3077,-7871 0,-3565 1297,-6540 3882,-8919 2554,-2518 5596,-3811 9236,-3775z"/>
  <path id="8" class="fil0" d="M888043 141929c-4303,0 -7765,-805 -10351,-2447 0,13709 -1748,23536 -5214,29413 -5068,8395 -14689,12591 -28922,12591 -5107,0 -9513,-1328 -13221,-3989 -3672,-2622 -5528,-5663 -5528,-9125 0,-3641 1856,-7836 5528,-12591 2764,2518 5806,3775 9129,3775 4513,0 7765,-1852 9755,-5524 1892,-3779 2871,-9934 2871,-18468 0,-2867 -71,-6682 -210,-11472 68,-421 103,-2974 103,-7658 0,-2835 -210,-11226 -630,-25217 -278,-12523 -417,-20320 -417,-23469 0,-3882 1154,-7066 3391,-9549 2308,-2447 5385,-3672 9232,-3672 7170,0 12944,2169 17314,6539 -2134,3359 -3181,9970 -3181,19797 0,17627 32,30602 103,38926l30639 0 0 22140 -20391 0z"/>
  <path id="9" class="fil0" d="M922353 119789c1713,0 2831,-488 3395,-1431 416,-805 590,-2661 590,-5528 0,-5176 -174,-23294 -590,-54317l-421 -45605c0,-3743 1119,-6749 3391,-8990 2240,-2272 5318,-3391 9200,-3391 6924,0 12658,1888 17243,5632 -2067,3497 -3078,11226 -3078,23258l210 53789c8392,-15422 20249,-24761 35532,-27981 7519,-1432 15494,-1328 23889,317 8601,1713 15212,4616 19864,8709 10247,8883 15390,21228 15390,37003 0,11821 -5282,21612 -15807,29413 -10493,7519 -23365,11262 -38613,11262l-88135 0 0 -22140 17940 0zm95413 -16893c801,-6504 -2102,-12064 -8709,-16715 -6575,-4585 -13606,-6159 -21125,-4723 -7907,1574 -15703,6856 -23365,15806 -6611,7765 -10735,14971 -12381,21617 -71,349 -103,631 -103,908l30008 0c22279,0 34168,-5631 35675,-16893z"/>
 </g>
</svg>
