<?xml version="1.0" encoding="UTF-8"?>
<!DOCTYPE svg PUBLIC "-//W3C//DTD SVG 1.1//EN" "http://www.w3.org/Graphics/SVG/1.1/DTD/svg11.dtd">
<!-- Creator: CorelDRAW X7 -->
<svg xmlns="http://www.w3.org/2000/svg" xml:space="preserve" width="22.7332mm" height="5.7159mm" version="1.1" style="shape-rendering:geometricPrecision; text-rendering:geometricPrecision; image-rendering:optimizeQuality; fill-rule:evenodd; clip-rule:evenodd"
viewBox="0 0 2962750 744936"
 xmlns:xlink="http://www.w3.org/1999/xlink">
 <defs>
  <style type="text/css">
   <![CDATA[
    .fil0 {fill:#990000;fill-rule:nonzero}
   ]]>
  </style>
 </defs>
 <g id="Layer_x0020_1">
  <metadata id="CorelCorpID_0Corel-Layer"/>
  <path class="fil0" d="M518284 614935c-45184,0 -67704,-24710 -67704,-74143l0 -23211c234,-12994 573,-22534 1029,-28620l-339 -53916c0,-9762 -3101,-16891 -9422,-21139 -6321,-3793 -16904,-5748 -31957,-5748l-1381 0c11495,85508 -12186,147126 -71041,184934 -51831,33677 -111834,39997 -179878,19197 -53564,-17125 -92649,-39189 -117124,-66440 -27017,-29767 -40467,-70338 -40467,-121491 0,-41835 11273,-62635 33690,-62635 11716,0 27811,6320 48494,18845 -8966,15978 -12759,30575 -11495,43790 4145,37703 20006,68043 47935,90916 26208,21725 57122,32308 92532,31617 35970,-691 64486,-12759 85520,-36322 22521,-25179 31722,-58504 27695,-100000l-24593 691c-12642,0 -22651,-3793 -30001,-11156 -7246,-7468 -10804,-17581 -10804,-30340 0,-14597 6321,-29884 18845,-45745 11039,6894 32647,10452 65059,10452l58856 -677c21374,-235 39189,-352 53551,-352 49433,0 74143,22533 74143,67705l0 100690c0,16083 1265,26665 4027,31604 2868,5865 9189,8732 18846,8732l33676 0 0 72762 -67692 0zm-362986 35749c10804,-118 19770,3336 26886,9996 7246,6790 10804,15066 10804,24944 0,12186 -4248,22299 -12759,30340 -8614,8055 -19080,12069 -31721,12069 -10687,0 -19419,-3219 -25857,-9762 -6790,-6673 -10114,-15287 -10114,-25870 0,-11716 4132,-21608 12407,-29649 8276,-8041 18390,-12186 30354,-12068zm101368 0c10700,-118 19771,3336 26899,9996 7247,6790 10805,15066 10805,24944 0,12186 -4249,22182 -12759,30002 -8393,8275 -18963,12407 -31722,12407 -10804,0 -19419,-3219 -25857,-9762 -6790,-6673 -10113,-15287 -10113,-25870 0,-11716 4131,-21608 12407,-29649 8276,-8041 18389,-12186 30340,-12068z"/>
  <path id="1" class="fil0" d="M1076201 614935c-17477,0 -31265,-7351 -41379,-22182 -11494,14831 -29075,22182 -52873,22182 -42878,0 -73101,-12068 -90577,-36088 -9879,24020 -30106,36088 -60576,36088 -45628,0 -76893,-13567 -94018,-40688 -12069,27121 -31266,40688 -57579,40688l-106438 0 0 -72762 61371 0c10113,0 17125,-3101 21152,-9422 4027,-6321 6086,-16786 6086,-31605 0,-6320 -573,-23107 -1720,-50579 -1264,-24254 -1955,-38851 -1955,-43790 0,-12525 3675,-22534 11039,-29884 7702,-7247 17816,-10804 30340,-10804 22416,0 41262,6320 56549,18845 -6660,10804 -10113,28620 -10113,53564 0,13450 117,26665 351,39659l691 39763c1382,10347 5630,17242 12876,20578 5057,2411 13789,3675 25857,3675 10114,0 17125,-3101 21270,-9422 3792,-6321 5630,-16786 5630,-31605 0,-12641 -352,-33103 -1264,-61618l-1734 -55285c0,-26665 11964,-39997 35749,-39997 27590,0 48273,5982 61957,18167 -6777,10909 -10113,30575 -10113,58843l1030 94018c573,11390 4718,19093 12068,22885 5174,2633 14023,4014 26561,4014 9878,0 17007,-3101 21256,-9422 3792,-6321 5747,-16786 5747,-31605 0,-13228 -456,-36674 -1381,-70115l-1603 -63561c0,-27017 11951,-40467 35970,-40467 27356,0 47934,6204 61619,18507 -6673,11039 -10127,36322 -10127,75746 0,7702 352,32412 1043,74143 456,1838 691,3441 691,5057 0,12068 2867,22299 8732,30692 5408,7350 11377,11025 17815,11025l39085 0 0 72762 -39085 0z"/>
  <path id="2" class="fil0" d="M1313670 285286c-11039,0 -19770,-3337 -26209,-9775 -6777,-6555 -10113,-15052 -10113,-25635 0,-11612 4144,-21491 12420,-29649 8276,-8055 18389,-12069 30340,-12069 10804,0 19771,3337 26900,10114 7233,6659 10804,15052 10804,24944 0,11834 -4262,21830 -12759,29884 -8628,8159 -18976,12186 -31383,12186zm128620 329649c-20110,-456 -34602,-6894 -43451,-19197 -11612,12759 -28737,19197 -51140,19197l-245862 0 0 -72762 81832 0c-11834,-19770 -17816,-39880 -17816,-60576 0,-45393 18272,-83904 54946,-115508 36088,-31618 85169,-46214 147126,-43790 22417,0 41262,6203 56549,18493 -6777,11039 -10113,32647 -10113,65059l691 90929c221,678 338,1838 338,3676 0,12980 3219,23446 9775,31265 4939,7012 10687,10452 17125,10452l39424 0 0 72762 -39424 0zm-139997 -72762c10686,0 17933,-2293 21491,-7011 3792,-4705 5747,-14141 5747,-28268 0,-8393 -339,-25401 -1030,-51271l-1733 -62296c-22182,5408 -41262,16551 -57240,33338 -16317,17125 -24475,35162 -24475,54242 0,21152 4483,36556 13450,46448 9188,9879 23784,14818 43790,14818z"/>
  <path id="3" class="fil0" d="M1593560 285286c-10921,0 -19770,-3337 -26208,-9775 -6777,-6777 -10114,-15404 -10114,-25974 0,-11612 4132,-21491 12407,-29662 8393,-8041 18507,-12069 30692,-12069 10805,0 19654,3337 26561,10114 7012,6438 10452,14831 10452,24944 0,12069 -4131,22182 -12407,30236 -8393,8159 -18741,12186 -31383,12186zm70455 329649c-20227,0 -34706,-6438 -43451,-19197 -11482,12759 -28385,19197 -50919,19197l-101368 0 0 -72762 55976 0c10113,-221 17124,-3440 21152,-9761 4014,-6217 6086,-16786 6086,-31617 0,-5174 -574,-28503 -1720,-70116l-1617 -63561c0,-12407 3676,-22299 11039,-29649 7703,-7481 17933,-11156 30692,-11156 21947,0 40910,6203 56549,18506 -6673,11039 -10113,32882 -10113,65398l690 92532c457,11730 3558,21270 9423,28620 5174,7012 11039,10583 17581,10804l38968 0 0 72762 -38968 0z"/>
  <path id="4" class="fil0" d="M1868042 344480c-6660,11026 -10113,32752 -10113,65060l1381 131030c0,49538 -22638,74365 -68044,74365l-101720 0 0 -72762 56315 0c10113,-221 17125,-3558 21152,-10113 4027,-6204 6086,-16786 6086,-31604 0,-5174 -574,-28503 -1720,-69999l-1603 -63678c0,-12876 3675,-22872 11025,-30353 7481,-7116 17712,-10804 30692,-10804 21726,0 40688,6321 56549,18858zm-80803 308159c10804,0 19771,3336 26900,10113 7011,6777 10465,15170 10465,25283 0,11847 -4144,21843 -12420,29884 -8510,8159 -19080,12186 -31722,12186 -10921,0 -19653,-3219 -26208,-9775 -6777,-6542 -10114,-15052 -10114,-25622 0,-11612 4132,-21504 12407,-29545 8393,-8393 18624,-12524 30692,-12524z"/>
  <path id="5" class="fil0" d="M2165970 81832c11716,691 17581,5174 17581,13450 0,9540 -2411,17125 -7129,22990 -2867,-2985 -6321,-4366 -10452,-4366l-107364 0c-11025,-1147 -16551,-7246 -16551,-18285 0,-6204 2307,-12290 6790,-18155 3102,2529 6542,3910 10452,4366l19549 0c-7012,-9657 -10465,-20344 -10465,-31956 0,-14818 5513,-26782 16434,-35970 11273,-9318 25974,-13906 44142,-13906 17359,0 30340,4366 39085,13215 4705,5174 6777,12068 6086,20800 -925,10114 -6555,15170 -16890,15170 -8511,0 -15405,-1720 -20462,-5056 1955,0 3558,-1369 4705,-4014 1043,-2646 1147,-5982 235,-9775l0 -339c-4027,-1381 -7937,-1955 -11730,-1955 -7585,0 -13788,2294 -18506,7012 -4939,4939 -7468,11378 -7468,19184 0,15757 7937,24945 23563,27590l38395 0zm-60576 66663c21947,0 40922,6333 56900,18858 -6907,11039 -10465,32868 -10465,65398l2072 171380c1603,100339 2294,156783 2294,169425 0,12525 -3675,22534 -11026,29884 -7480,7468 -17711,11156 -30692,11156 -21960,0 -40922,-6334 -56900,-18858 7011,-11039 10465,-32751 10465,-65281l-2072 -171497c-1499,-100339 -2307,-156784 -2307,-169308 0,-12642 3688,-22651 11039,-30001 7467,-7351 17698,-11156 30692,-11156z"/>
  <path id="6" class="fil0" d="M2418270 614935c-14141,0 -25518,-2646 -34016,-8041 0,45054 -5747,77349 -17138,96663 -16655,27591 -48273,41379 -95047,41379 -16786,0 -31266,-4366 -43451,-13111 -12068,-8614 -18168,-18610 -18168,-29988 0,-11964 6100,-25753 18168,-41379 9084,8276 19080,12407 30001,12407 14831,0 25518,-6086 32061,-18154 6216,-12420 9435,-32647 9435,-60694 0,-9422 -234,-21960 -691,-37703 222,-1382 339,-9775 339,-25166 0,-9319 -690,-36896 -2072,-82875 -912,-41158 -1368,-66780 -1368,-77128 0,-12759 3792,-23224 11143,-31382 7585,-8042 17698,-12069 30340,-12069 23563,0 42539,7129 56901,21491 -7012,11039 -10453,32764 -10453,65059 0,57931 105,100574 339,127929l100691 0 0 72762 -67014 0z"/>
  <path id="7" class="fil0" d="M2639422 282523c-10687,0 -19432,-3219 -26209,-9775 -6777,-6438 -10114,-14935 -10114,-25518 0,-11716 4132,-21608 12525,-29649 8510,-8041 18741,-12186 30575,-12186 11038,0 20005,3337 26899,9775 7012,6777 10465,15170 10465,25283 0,11951 -4144,21960 -12420,30002 -8510,8041 -19080,12068 -31721,12068zm101381 0c-10921,0 -19771,-3336 -26209,-9996 -6790,-6556 -10113,-14949 -10113,-25297 0,-11716 4131,-21608 12407,-29649 8393,-8041 18389,-12186 30353,-12186 11026,0 19992,3337 26887,9775 7246,6777 10804,15170 10804,25283 0,11951 -4132,21960 -12407,30002 -8511,8041 -19080,12068 -31722,12068zm53903 58269c-6894,11039 -10465,32647 -10465,65059 0,7364 352,30810 1043,70351l338 64368c0,49538 -22520,74365 -67691,74365l-245862 0 0 -72762 81832 0c-11834,-19770 -17816,-39880 -17816,-60576 0,-46657 18168,-85286 54594,-115860 38160,-31605 87241,-46201 147478,-43790 21947,0 40806,6321 56549,18845zm-122181 201381c10452,0 17698,-2293 21491,-7011 3792,-4940 5747,-14362 5747,-28268l-2984 -113567c-22078,5408 -41040,16551 -57019,33338 -16082,17125 -24136,35058 -24136,53903 0,21608 4483,37130 13450,46787 8966,9879 23445,14818 43451,14818z"/>
  <path id="8" class="fil0" d="M2945169 81832c11716,691 17581,5174 17581,13450 0,9540 -2411,17125 -7129,22990 -2867,-2985 -6321,-4366 -10452,-4366l-107364 0c-11025,-1147 -16551,-7246 -16551,-18285 0,-6204 2307,-12290 6790,-18155 3102,2529 6542,3910 10452,4366l19549 0c-7011,-9657 -10465,-20344 -10465,-31956 0,-14818 5513,-26782 16434,-35970 11273,-9318 25974,-13906 44142,-13906 17359,0 30340,4366 39085,13215 4705,5174 6777,12068 6086,20800 -925,10114 -6555,15170 -16890,15170 -8511,0 -15405,-1720 -20462,-5056 1955,0 3558,-1369 4705,-4014 1043,-2646 1147,-5982 235,-9775l0 -339c-4027,-1381 -7937,-1955 -11730,-1955 -7585,0 -13788,2294 -18506,7012 -4939,4939 -7468,11378 -7468,19184 0,15757 7937,24945 23563,27590l38395 0zm-60576 66663c21947,0 40922,6333 56901,18858 -6908,11039 -10466,32868 -10466,65398l2072 171380c1603,100339 2294,156783 2294,169425 0,12525 -3675,22534 -11025,29884 -7481,7468 -17712,11156 -30692,11156 -21961,0 -40923,-6334 -56901,-18858 7011,-11039 10465,-32751 10465,-65281l-2072 -171497c-1499,-100339 -2307,-156784 -2307,-169308 0,-12642 3688,-22651 11039,-30001 7467,-7351 17698,-11156 30692,-11156z"/>
 </g>
</svg>
