<?xml version="1.0" encoding="UTF-8"?>
<!DOCTYPE svg PUBLIC "-//W3C//DTD SVG 1.1//EN" "http://www.w3.org/Graphics/SVG/1.1/DTD/svg11.dtd">
<!-- Creator: CorelDRAW X7 -->
<svg xmlns="http://www.w3.org/2000/svg" xml:space="preserve" width="18.8843mm" height="5.8861mm" version="1.1" style="shape-rendering:geometricPrecision; text-rendering:geometricPrecision; image-rendering:optimizeQuality; fill-rule:evenodd; clip-rule:evenodd"
viewBox="0 0 3659335 1140588"
 xmlns:xlink="http://www.w3.org/1999/xlink">
 <defs>
  <style type="text/css">
   <![CDATA[
    .fil0 {fill:#990000;fill-rule:nonzero}
   ]]>
  </style>
 </defs>
 <g id="Layer_x0020_1">
  <metadata id="CorelCorpID_0Corel-Layer"/>
  <path class="fil0" d="M770611 914315c-67183,0 -100667,-36740 -100667,-110239l0 -34512c348,-19319 852,-33504 1531,-42553l-504 -80165c0,-14514 -4612,-25114 -14010,-31431 -9399,-5639 -25133,-8546 -47514,-8546l-2054 0c17091,127137 -18119,218755 -105628,274969 -77065,50072 -166280,59470 -267450,28544 -79643,-25463 -137756,-58269 -174147,-98788 -40170,-44258 -60168,-104581 -60168,-180638 0,-62202 16762,-93129 50091,-93129 17421,0 41352,9398 72104,28020 -13331,23757 -18970,45460 -17091,65109 6162,56059 29745,101171 71271,135178 38969,32303 84933,48038 137582,47011 53482,-1027 95880,-18971 127156,-54006 33485,-37438 47165,-86986 41177,-148685l-36565 1027c-18797,0 -33679,-5639 -44608,-16587 -10774,-11103 -16064,-26140 -16064,-45111 0,-21703 9399,-44433 28020,-68016 16413,10251 48541,15541 96734,15541l87509 -1007c31780,-349 58269,-524 79623,-524 73499,0 110239,33504 110239,100667l0 149712c0,23912 1880,39647 5988,46991 4263,8720 13661,12983 28020,12983l50072 0 0 108185 -100647 0zm-539707 53153c16064,-174 29396,4961 39976,14863 10774,10096 16064,22400 16064,37089 0,18118 -6317,33155 -18970,45111 -12809,11975 -28369,17944 -47166,17944 -15889,0 -28872,-4787 -38445,-14514 -10096,-9922 -15037,-22730 -15037,-38465 0,-17420 6143,-32128 18448,-44084 12304,-11956 27341,-18118 45130,-17944zm150720 0c15909,-174 29395,4961 39995,14863 10774,10096 16064,22400 16064,37089 0,18118 -6317,32980 -18971,44607 -12479,12305 -28194,18448 -47165,18448 -16064,0 -28873,-4787 -38445,-14514 -10096,-9922 -15037,-22730 -15037,-38465 0,-17420 6143,-32128 18447,-44084 12305,-11956 27342,-18118 45112,-17944z"/>
  <path id="1" class="fil0" d="M934836 806130c15037,0 25462,-4786 31450,-14514 5968,-9243 9050,-24958 9050,-47010l-2558 -235846c-1202,-127136 -1880,-202690 -1880,-226273 0,-18447 5465,-33155 16394,-44084 11122,-11103 26159,-16587 45130,-16587 32981,0 61175,9243 84584,27516 -9902,16413 -15038,48716 -15038,97257l1551 456634c0,74003 -33679,111092 -101190,111092l-150720 0 0 -108185 83227 0z"/>
  <path id="2" class="fil0" d="M1510934 914315c-67337,0 -101016,-36914 -101016,-110569 0,-112293 0,-208154 349,-287971l-2403 -233791c0,-18797 5484,-33679 16413,-44608 11103,-10929 26160,-16587 45131,-16587 32806,0 61000,9418 84583,28039 -9902,16413 -15037,48871 -15037,97238l-853 398540c0,22052 2907,37767 8895,47010 5968,9728 16568,14514 31605,14514l108689 0 0 108185 -176356 0z"/>
  <path id="3" class="fil0" d="M2187350 543291c54354,46991 81696,104252 81696,171744 0,59490 -21877,107333 -65632,143744 -44433,37069 -103051,55536 -175852,55536l-369997 0 0 -108185 67666 0c-11626,-22381 -17595,-46487 -17595,-72628 0,-52300 19649,-95706 58618,-130062 38116,-33834 87490,-52281 148161,-55711 -1530,-7344 -2383,-13332 -2383,-17944 0,-33659 30752,-50576 92625,-50576 72976,0 133997,21355 182693,64082zm-165253 262839c30423,0 55188,-10425 74682,-31450 19300,-19823 29047,-45460 29047,-77239 0,-33330 -11278,-60323 -33659,-80999 -22227,-21025 -51274,-31624 -86987,-31624l-1027 0c-3759,14688 -5484,34860 -5484,60671l1376 160641 22052 0zm-134171 0c7693,-6996 11452,-21180 11452,-42554 0,-5968 -1027,-54683 -3410,-146107 -23079,5968 -42728,20676 -59141,44084 -15715,22556 -23408,46487 -23408,71446 0,39472 7867,63733 23932,73131l50575 0z"/>
  <path id="4" class="fil0" d="M2492761 121672c17420,1027 26140,7693 26140,19998 0,14184 -3584,25462 -10599,34182 -4263,-4437 -9398,-6491 -15541,-6491l-159633 0c-16394,-1706 -24610,-10774 -24610,-27187 0,-9224 3430,-18273 10096,-26993 4612,3759 9728,5813 15541,6491l29066 0c-10425,-14359 -15560,-30248 -15560,-47514 0,-22032 8197,-39821 24435,-53482 16762,-13855 38620,-20676 65632,-20676 25811,0 45112,6492 58114,19649 6995,7693 10076,17944 9049,30927 -1375,15037 -9747,22555 -25113,22555 -12654,0 -22904,-2558 -30423,-7518 2907,0 5290,-2035 6995,-5969 1551,-3933 1706,-8894 349,-14533l0 -504c-5988,-2054 -11801,-2906 -17440,-2906 -11278,0 -20501,3410 -27516,10425 -7344,7344 -11103,16917 -11103,28524 0,23427 11801,37089 35034,41022l57087 0zm-90067 99117c32632,0 60845,9418 84602,28039 -10270,16413 -15560,48871 -15560,97238l3081 254816c2384,149188 3411,233113 3411,251909 0,18622 -5465,33504 -16394,44433 -11123,11104 -26334,16587 -45634,16587 -32652,0 -60846,-9417 -84603,-28039 10425,-16413 15560,-48696 15560,-97063l-3081 -254990c-2228,-149189 -3430,-233113 -3430,-251735 0,-18797 5484,-33679 16413,-44608 11104,-10929 26315,-16587 45635,-16587z"/>
  <path id="5" class="fil0" d="M2867893 914315c-21025,0 -37941,-3933 -50576,-11956 0,66989 -8545,115007 -25481,143724 -24765,41023 -71775,61524 -141322,61524 -24958,0 -46487,-6491 -64605,-19494 -17943,-12808 -27012,-27671 -27012,-44588 0,-17788 9069,-38290 27012,-61524 13507,12305 28369,18448 44608,18448 22051,0 37941,-9049 47669,-26993 9243,-18467 14029,-48541 14029,-90242 0,-14010 -349,-32651 -1027,-56059 330,-2054 504,-14534 504,-37419 0,-13855 -1027,-54858 -3081,-123222 -1357,-61195 -2035,-99291 -2035,-114677 0,-18971 5639,-34531 16568,-46662 11278,-11956 26315,-17943 45111,-17943 35035,0 63249,10599 84603,31954 -10425,16412 -15541,48715 -15541,96733 0,86133 155,149537 504,190211l149712 0 0 108185 -99640 0z"/>
  <path id="6" class="fil0" d="M3196712 420069c-15889,0 -28892,-4786 -38968,-14533 -10076,-9573 -15037,-22207 -15037,-37942 0,-17420 6143,-32128 18622,-44084 12653,-11956 27865,-18118 45460,-18118 16413,0 29744,4961 39995,14533 10425,10076 15561,22556 15561,37593 0,17769 -6163,32651 -18467,44607 -12654,11956 -28369,17944 -47166,17944zm150739 0c-16238,0 -29396,-4961 -38968,-14863 -10096,-9747 -15037,-22226 -15037,-37612 0,-17420 6142,-32128 18447,-44084 12479,-11956 27342,-18118 45131,-18118 16393,0 29725,4961 39976,14533 10774,10076 16064,22556 16064,37593 0,17769 -6143,32651 -18448,44607 -12653,11956 -28369,17944 -47165,17944zm80146 86637c-10251,16413 -15560,48541 -15560,96734 0,10948 523,45808 1550,104600l504 95706c0,73655 -33485,110569 -100648,110569l-365559 0 0 -108185 121672 0c-17595,-29396 -26489,-59296 -26489,-90068 0,-69372 27012,-126807 81173,-172267 56738,-46991 129714,-68694 219277,-65109 32632,0 60672,9398 84080,28020zm-181665 299424c15541,0 26314,-3411 31953,-10425 5639,-7344 8546,-21355 8546,-42030l-4438 -168857c-32825,8041 -61020,24609 -84777,49568 -23912,25462 -35887,52126 -35887,80146 0,32128 6666,55207 19998,69565 13331,14689 34860,22033 64605,22033z"/>
  <path id="7" class="fil0" d="M3575778 914315c-33000,0 -61369,-9398 -85107,-28020 10426,-16413 15541,-48890 15541,-97586 0,-21373 -1201,-106984 -3585,-256870l-2906 -253440c0,-18642 5639,-33504 16916,-44433 11104,-11123 26141,-16587 45112,-16587 33329,0 61698,9572 85126,28543 -10270,16413 -15561,48696 -15561,97062 0,21374 1202,106985 3585,256871l2907 253440c0,18293 -5465,33000 -16413,43929 -11433,11452 -26644,17091 -45615,17091zm57590 171241c17421,1027 25967,7867 25967,20501 0,14030 -3411,25482 -10426,34531 -4786,-4612 -9902,-7015 -15541,-7015l-160660 0 0 -503c-7169,-349 -12983,-3256 -17595,-8895 -4611,-5464 -7014,-11278 -7014,-17595 0,-9398 3255,-18622 10095,-28020 3934,3915 8875,6317 14863,6996l29570 0c-9921,-14689 -15037,-30598 -15037,-47514 0,-22033 7848,-40151 23583,-54161 16742,-13681 38968,-20521 66640,-20521 25985,0 45460,6492 58462,19494 7170,7674 9902,18273 8546,31605 -1202,15037 -9399,22556 -24436,22556 -13002,0 -23253,-2733 -30597,-8023 3081,0 5290,-2228 6995,-6491 1725,-4457 1880,-9069 524,-14010l0 -524c-6317,-2054 -12305,-3081 -17944,-3081 -11452,0 -20676,3760 -27691,11123 -7344,7344 -10929,16568 -10929,28020 0,23583 11782,37419 35539,41527l57086 0z"/>
 </g>
</svg>
