<?xml version="1.0" encoding="UTF-8"?>
<!DOCTYPE svg PUBLIC "-//W3C//DTD SVG 1.1//EN" "http://www.w3.org/Graphics/SVG/1.1/DTD/svg11.dtd">
<!-- Creator: CorelDRAW X7 -->
<svg xmlns="http://www.w3.org/2000/svg" xml:space="preserve" width="26.9471mm" height="5.2635mm" version="1.1" style="shape-rendering:geometricPrecision; text-rendering:geometricPrecision; image-rendering:optimizeQuality; fill-rule:evenodd; clip-rule:evenodd"
viewBox="0 0 2806796 548243"
 xmlns:xlink="http://www.w3.org/1999/xlink">
 <defs>
  <style type="text/css">
   <![CDATA[
    .fil0 {fill:#990000;fill-rule:nonzero}
   ]]>
  </style>
 </defs>
 <g id="Layer_x0020_1">
  <metadata id="CorelCorpID_0Corel-Layer"/>
  <path class="fil0" d="M414221 372787c-36112,0 -54110,-19749 -54110,-59257l0 -18550c187,-10385 458,-18010 822,-22874l-270 -43091c0,-7801 -2479,-13499 -7531,-16894 -5052,-3031 -13510,-4594 -25540,-4594l-1104 0c9187,68339 -9739,117586 -56777,147803 -41425,26914 -89380,31966 -143761,15342 -42810,-13686 -74047,-31320 -93608,-53100 -21593,-23790 -32342,-56215 -32342,-97098 0,-33435 9010,-50059 26925,-50059 9364,0 22228,5052 38758,15062 -7166,12770 -10197,24436 -9187,34997 3312,30134 15989,54382 38310,72662 20946,17363 45653,25821 73953,25269 28748,-552 51538,-10197 68350,-29029 17998,-20124 25352,-46757 22134,-79922l-19655 552c-10104,0 -18103,-3031 -23978,-8916 -5791,-5968 -8635,-14051 -8635,-24248 0,-11666 5052,-23884 15062,-36560 8822,5510 26092,8354 51996,8354l47039 -542c17082,-188 31320,-281 42799,-281 39507,0 59256,18009 59256,54111l0 80473c0,12853 1010,21311 3219,25259 2291,4687 7343,6979 15061,6979l26915 0 0 58152 -54101 0zm-290105 28571c8635,-94 15801,2666 21489,7989 5791,5426 8634,12041 8634,19936 0,9739 -3395,17822 -10197,24248 -6885,6437 -15249,9645 -25352,9645 -8541,0 -15520,-2572 -20666,-7801 -5426,-5333 -8082,-12218 -8082,-20676 0,-9364 3302,-17269 9916,-23696 6614,-6427 14697,-9739 24258,-9645zm81016 0c8551,-94 15801,2666 21498,7989 5791,5426 8635,12041 8635,19936 0,9739 -3396,17728 -10197,23977 -6708,6615 -15155,9916 -25353,9916 -8634,0 -15519,-2572 -20665,-7801 -5427,-5333 -8083,-12218 -8083,-20676 0,-9364 3302,-17269 9916,-23696 6614,-6427 14697,-9739 24249,-9645z"/>
  <path id="1" class="fil0" d="M593438 80474c9187,187 13687,3676 13687,10572 0,7708 -1740,13863 -5323,18551 -2395,-2386 -5145,-3677 -8364,-4042l-85338 0c-3770,-187 -6895,-1833 -9374,-4864 -2385,-2667 -3489,-5791 -3489,-9468 0,-4958 1750,-9822 5333,-14510 2197,2198 4864,3396 8082,3761l15614 0c-5510,-7708 -8364,-16072 -8364,-25259 0,-11853 4416,-21405 13228,-28842 8635,-7166 20218,-10749 34727,-10749 13593,0 23977,3396 31237,10291 3761,4125 5323,9645 4771,16624 -729,7895 -5052,11853 -13135,11853 -6791,0 -12311,-1385 -16436,-4041 1469,0 2562,-1104 3489,-3219 917,-2114 1188,-4687 823,-7531l0 -552c-3395,-1104 -6520,-1562 -9457,-1562 -6063,0 -11031,1927 -14791,5875 -3958,3958 -5885,9093 -5885,15342 0,5604 1562,10385 4875,14520 3583,3760 8082,6239 13686,7250l30404 0zm-85619 234161c8083,0 13780,-2573 16999,-7802 3219,-4968 4864,-13509 4864,-25540 0,-3948 -458,-22509 -1375,-55767l-1375 -50798c0,-10104 3031,-18093 8906,-23978 5968,-5698 13968,-8635 24259,-8635 17540,0 32695,5052 45465,15072 -5416,8812 -8082,26082 -8082,51986l822 104357c0,39508 -18092,59257 -54100,59257l-86442 0 0 -58152 50059 0z"/>
  <path id="2" class="fil0" d="M699452 372787c-36196,0 -54299,-19843 -54299,-59434 0,-60360 0,-111888 188,-154791l-1292 -125668c0,-10104 2948,-18103 8823,-23978 5968,-5875 14061,-8916 24258,-8916 17635,0 32790,5062 45466,15072 -5323,8822 -8083,26269 -8083,52267l-458 214225c0,11853 1562,20301 4781,25269 3208,5229 8905,7802 16988,7802l58423 0 0 58152 -94795 0z"/>
  <path id="3" class="fil0" d="M907521 107118c-8635,0 -15530,-2573 -20770,-7812 -5416,-5146 -8082,-11937 -8082,-20395 0,-9364 3312,-17269 10020,-23696 6426,-6427 14509,-9739 24154,-9739 8635,0 15801,2667 21593,7812 5510,5416 8270,12124 8270,20207 0,9551 -3312,17551 -9927,23977 -6801,6427 -15249,9646 -25258,9646zm80932 0c-8552,0 -15531,-2573 -20947,-7812 -5427,-5146 -8083,-11937 -8083,-20395 0,-9364 3302,-17269 10010,-23696 6614,-6427 14791,-9739 24436,-9739 8635,0 15801,2667 21498,7812 5604,5416 8354,12124 8354,20207 0,9551 -3396,17551 -10197,23977 -6791,6427 -15155,9646 -25071,9646zm60079 265669c-15249,0 -26186,-5239 -32894,-15614 -9280,10375 -22967,15614 -40872,15614l-196497 0 0 -58152 65402 0c-9458,-15801 -14239,-31873 -14239,-48414 0,-37289 14520,-68162 43633,-92598 30498,-25258 69724,-36924 117867,-34997 17363,0 32425,5052 45194,15061 -5510,8823 -8364,26092 -8364,51997l834 72672c177,541 271,1468 271,2937 0,9645 2301,17728 6989,24248 4312,5885 9176,8916 14509,9094l31237 0 0 58152 -33070 0zm-110055 -58152c8354,0 14145,-1834 17176,-5604 3031,-3948 4593,-11479 4593,-22592l-2385 -90765c-17645,4323 -32800,13228 -45570,26644 -13041,13687 -19561,28019 -19561,43080 0,17270 3583,29675 10749,37394 7167,7895 18832,11843 34998,11843z"/>
  <path id="4" class="fil0" d="M1225915 372787c-15061,0 -26091,-5239 -33070,-15614 -9375,10375 -22874,15614 -40695,15614l-81297 0 0 -58152 44737 0c8083,0 13686,-2573 16905,-7802 3208,-4968 4864,-13416 4864,-25269 0,-16166 -364,-58423 -1104,-126773l-1281 -121627c0,-10103 2843,-17998 8541,-23696 6156,-5968 14426,-8916 24800,-8916 17728,0 32894,4968 45476,14791 -5697,9009 -8635,26373 -8635,52277 0,16260 365,88734 1105,217162 552,8823 3031,16072 7530,21770 4312,5416 9000,8083 13958,8083l31237 0 0 58152 -33071 0z"/>
  <path id="5" class="fil0" d="M1308316 106378c-8635,0 -15624,-2656 -21040,-7801 -5333,-5240 -8083,-12041 -8083,-20489 0,-9374 3302,-17269 10010,-23696 6614,-6614 14790,-9926 24436,-9926 8634,0 15801,2666 21592,8082 5510,5333 8353,12041 8353,20124 0,9551 -3395,17541 -10009,23978 -6802,6426 -15249,9728 -25259,9728zm86619 -61912c8635,0 15801,2666 21499,8082 5603,5333 8364,12041 8364,20124 0,9551 -3313,17541 -9927,23978 -6791,6426 -15249,9728 -25352,9728 -8541,0 -15520,-2656 -20947,-7801 -5416,-5240 -8082,-12041 -8082,-20489 0,-9374 3312,-17269 10009,-23696 6614,-6614 14791,-9926 24436,-9926zm-49236 97097c17551,0 32706,5052 45476,15072 -5427,8812 -8083,26269 -8083,52267l823 104628c0,39508 -18093,59257 -54382,59257l-81296 0 0 -58152 45007 0c8083,0 13687,-2573 16905,-7802 3219,-4968 4864,-13509 4864,-25540 0,-3948 -458,-22509 -1374,-55767 -646,-26727 -1011,-43726 -1011,-51069 0,-10104 2938,-18009 8823,-23978 5968,-5885 14051,-8916 24248,-8916z"/>
  <path id="6" class="fil0" d="M1891182 372787c-21217,0 -34539,-7625 -40143,-22874 -6062,9646 -13957,16072 -23696,19103 -8364,2490 -23613,3771 -45747,3771l-60819 0c-25446,187 -45288,5604 -59433,16165 -13687,10385 -20488,24436 -20488,42258 0,17728 6062,32154 18009,43268 12030,11301 27644,16999 46851,16999 12395,0 24061,-3032 34997,-9187 10010,16905 15062,29852 15062,38768 0,18186 -16624,27185 -49788,27185 -39592,0 -73120,-12124 -100410,-36278 -27738,-24259 -41706,-54299 -41706,-90213 0,-28477 9645,-52361 28852,-71568 19197,-19196 45289,-31050 78266,-35549l71932 0c-18748,-6615 -46392,-21770 -83233,-45466 -39133,-25269 -61736,-43820 -67798,-55402 -5052,-9364 -5781,-19010 -2385,-28842 3771,-10927 10655,-20395 20665,-28290 10385,-7999 21686,-12312 33623,-12864 0,10937 8822,25446 26456,43539 16812,17457 38498,35008 65048,52830 26727,17728 51444,31050 74037,39768 23883,9374 40976,11947 51444,7812 917,8457 917,17457 0,26915l84244 0 0 58152 -53840 0z"/>
  <path id="7" class="fil0" d="M2103761 109326c-8822,0 -15801,-2667 -20946,-7812 -5417,-5239 -8083,-12031 -8083,-20488 0,-9281 3312,-17176 9926,-23697 6614,-6437 14697,-9645 24249,-9645 8634,0 15801,2667 21498,8083 5781,5323 8635,12030 8635,19936 0,9458 -3406,17447 -10197,23884 -6896,6520 -15166,9739 -25082,9739zm102795 263461c-16072,-365 -27654,-5510 -34727,-15343 -9280,10197 -22967,15343 -40872,15343l-196497 0 0 -58152 65402 0c-9458,-15801 -14239,-31873 -14239,-48414 0,-36279 14604,-67058 43914,-92316 28842,-25269 68068,-36935 117586,-34998 17915,0 32977,4958 45195,14780 -5417,8823 -8083,26092 -8083,51997l552 72672c177,541 271,1468 271,2937 0,10374 2572,18738 7812,24988 3947,5604 8541,8354 13686,8354l31508 0 0 58152 -31508 0zm-111888 -58152c8541,0 14332,-1834 17176,-5604 3031,-3760 4593,-11302 4593,-22592 0,-6708 -270,-20301 -822,-40977l-1386 -49788c-17728,4323 -32977,13228 -45747,26644 -13040,13687 -19561,28102 -19561,43351 0,16905 3583,29217 10749,37123 7344,7895 19010,11843 34998,11843z"/>
  <path id="8" class="fil0" d="M2585593 372787c-20676,0 -33623,-8541 -39050,-25540 -26727,16999 -58423,25540 -94983,25540l-224234 0 0 -58152 51163 0 -1656 -64850c-636,-29404 -1011,-48049 -1011,-55944 0,-9927 2948,-17739 8823,-23426 5968,-5978 14051,-8916 24248,-8916 17822,0 32987,4958 45476,14791 -3219,5416 -5604,18467 -7260,39320 22238,-40049 52913,-63756 92046,-71287 19759,-3947 40695,-3770 63027,552 22592,4406 39955,11937 52173,22593 27102,23613 40601,56496 40601,98482 0,17541 -4770,33800 -14509,48685l60538 0 0 58152 -55392 0zm-67610 -102795c2197,-17457 -5333,-32248 -22603,-44466 -16999,-11937 -35550,-16072 -55673,-12301 -19561,3760 -38852,16436 -57871,38206 -16166,18290 -27832,37205 -34998,56777l0 6427 77526 0c58704,0 89848,-14885 93619,-44643z"/>
  <path id="9" class="fil0" d="M2690314 106378c-8634,0 -15623,-2656 -21040,-7801 -5333,-5240 -8083,-12041 -8083,-20489 0,-9374 3302,-17269 10010,-23696 6614,-6614 14791,-9926 24436,-9926 8635,0 15801,2666 21592,8082 5510,5333 8354,12041 8354,20124 0,9551 -3396,17541 -10010,23978 -6801,6426 -15249,9728 -25259,9728zm86619 -61912c8635,0 15801,2666 21499,8082 5604,5333 8364,12041 8364,20124 0,9551 -3312,17541 -9926,23978 -6792,6426 -15249,9728 -25353,9728 -8541,0 -15520,-2656 -20946,-7801 -5417,-5240 -8083,-12041 -8083,-20489 0,-9374 3312,-17269 10010,-23696 6614,-6614 14790,-9926 24435,-9926zm-49236 97097c17551,0 32706,5052 45476,15072 -5426,8812 -8082,26269 -8082,52267l822 104628c0,39508 -18092,59257 -54381,59257l-81297 0 0 -58152 45008 0c8082,0 13686,-2573 16905,-7802 3218,-4968 4864,-13509 4864,-25540 0,-3948 -458,-22509 -1375,-55767 -646,-26727 -1010,-43726 -1010,-51069 0,-10104 2937,-18009 8822,-23978 5968,-5885 14051,-8916 24248,-8916z"/>
 </g>
</svg>
