<?xml version="1.0" encoding="UTF-8"?>
<!DOCTYPE svg PUBLIC "-//W3C//DTD SVG 1.1//EN" "http://www.w3.org/Graphics/SVG/1.1/DTD/svg11.dtd">
<!-- Creator: CorelDRAW X7 -->
<svg xmlns="http://www.w3.org/2000/svg" xml:space="preserve" width="163.475mm" height="121.635mm" version="1.1" style="shape-rendering:geometricPrecision; text-rendering:geometricPrecision; image-rendering:optimizeQuality; fill-rule:evenodd; clip-rule:evenodd"
viewBox="0 0 16372137 12181801"
 xmlns:xlink="http://www.w3.org/1999/xlink">
 <defs>
  <style type="text/css">
   <![CDATA[
    .fil0 {fill:none}
    .fil1 {fill:black;fill-opacity:0.301961}
    .fil3 {fill:#985426}
    .fil2 {fill:#FFFFCB}
    .fil4 {fill:url(#id0)}
    .fil5 {fill:url(#id1)}
    .fil6 {fill:url(#id2)}
   ]]>
  </style>
  <radialGradient id="id0" gradientUnits="userSpaceOnUse" gradientTransform="matrix(1.25965E-005 -0.808665 -1.10402 -5.05403E-005 1.32852E+007 1.13133E+007)" cx="7.41892e+006" cy="5.31364e+006" r="7.28907e+006" fx="7.41892e+006" fy="5.31364e+006">
   <stop offset="0" style="stop-opacity:1; stop-color:#FFD6A1"/>
   <stop offset="1" style="stop-opacity:1; stop-color:#FDBD66"/>
  </radialGradient>
  <radialGradient id="id1" gradientUnits="userSpaceOnUse" gradientTransform="matrix(1.25966E-005 -0.803564 -1.10402 -5.02215E-005 1.33089E+007 1.12959E+007)" cx="7.42846e+006" cy="5.32644e+006" r="7.20354e+006" fx="7.42846e+006" fy="5.32644e+006">
   <stop offset="0" style="stop-opacity:1; stop-color:#FFE1BB"/>
   <stop offset="1" style="stop-opacity:1; stop-color:#FDCF8F"/>
  </radialGradient>
  <radialGradient id="id2" gradientUnits="userSpaceOnUse" gradientTransform="matrix(1.25965E-005 -0.79877 -1.10402 -4.99218E-005 1.34075E+007 1.13483E+007)" cx="7.44114e+006" cy="5.40431e+006" r="7.08953e+006" fx="7.44114e+006" fy="5.40431e+006">
   <stop offset="0" style="stop-opacity:1; stop-color:#FFEBB9"/>
   <stop offset="1" style="stop-opacity:1; stop-color:#FDE09C"/>
  </radialGradient>
 </defs>
 <g id="Layer_x0020_1">
  <metadata id="CorelCorpID_0Corel-Layer"/>
  <rect class="fil0" x="280867" y="520373" width="15712604" height="11643988"/>
  <path class="fil1" d="M3027145 1164052c1065233,-18208 2128914,-102354 3194317,-102354 1534319,0 3067346,114742 4601585,102354 999504,-8062 1949073,57236 2948607,61412 341644,1442 638000,-1632 893595,1743 645100,8613 1053104,-105299 1252324,162264 91808,123305 145249,294914 173611,494464 -182645,49865 -352100,114462 -508074,194122 187151,-25709 361794,-39790 524599,-42844 20942,262825 8343,561004 -12519,855938 -35303,499071 -110185,1105503 -128984,1829272 -16104,619953 -121092,1214538 -155644,1827661 -176506,-932 -367243,-15123 -573142,-43416 172239,87963 360923,157557 565651,209225 -1402,42013 -2424,84127 -2995,126360 -11798,877651 100401,1771446 102064,2649177 931,487574 4747,885983 3565,1211403 -256376,30285 -489386,77597 -698351,142444 253962,-17126 486012,-21392 697600,-13660 -16565,1883494 -264889,1057231 -2602286,1069709 -1089640,5839 -2171908,186801 -3261418,203747 -614535,9574 -1227807,-55944 -1841611,-91358 -72249,-256025 -181403,-488224 -328564,-695877 47631,249796 65758,476768 56475,682497 -166521,-6570 -333112,-9794 -499793,-7541 -1074206,14492 -2141953,186200 -3216239,190927 -828888,3656 -1651285,-157467 -2480153,-165849 -1451975,-14682 -1703052,393101 -1724605,-517108 332110,-27402 628456,-80882 887776,-161353 -333101,22464 -628466,22794 -889468,2954 120,-405760 26379,-1019644 23835,-1940230 -2243,-811901 86931,-1621970 127222,-2433111 244598,-53300 467513,-130847 668125,-233301 -239991,32970 -459391,46810 -659632,42794 5828,-148824 9654,-297698 10586,-446632 5488,-880745 -93461,-1759718 -110607,-2640313 -58318,-2995588 -467463,-2631500 1834621,-2538720 60571,59900 121633,115854 183226,167832 -40752,-56024 -79660,-111107 -116756,-165278 305530,11337 656798,17576 1061457,10646z"/>
  <path class="fil2" d="M6426451 0c1541880,0 3082478,122104 4624268,108934 1004422,-8603 1958698,60892 2963139,65368 343317,1523 641155,-1742 898022,1863 648275,9144 1058282,-112109 1258473,172670 135514,192800 187853,496417 199330,842428 -232409,56144 -445049,135423 -637419,238438 231859,-33400 444729,-48282 639873,-45859 -1011,183016 -10636,373793 -23295,563308 -35483,531149 -110787,1176671 -129615,1946950 -18678,764000 -157287,1602211 -166961,2366451l-221 20621c-203175,4397 -425860,-10245 -669527,-45348 201092,107672 424358,189425 669157,245920 5839,862798 101713,1627669 103185,2488154 1162,683649 7481,1202920 621,1595962 -297848,31086 -565952,84897 -803389,162144 295154,-20872 561014,-23746 799904,-9995 -47221,1583312 -397408,804280 -2609427,816819 -1095018,6229 -2182614,198809 -3277502,216866 -705482,11628 -1409331,-81022 -2114191,-111077 -60852,-145829 -134513,-282986 -221233,-411319 25819,142014 43034,277037 52038,405400 -114302,-3085 -228614,-4176 -342976,-2544 -1079505,15413 -2152509,198199 -3232114,203226 -832973,3886 -1659417,-167622 -2492360,-176536 -1285044,-13740 -1634059,321364 -1713859,-260131 245329,-32229 469125,-80912 670769,-146521 -248073,17547 -475456,22344 -683529,15283 -26179,-401814 18979,-1123310 15754,-2392610 -1953,-770509 69044,-1548140 113170,-2317828 173171,-51598 334424,-117176 483498,-196996 -168203,24226 -326411,38688 -475115,43906 13991,-268334 23936,-528345 25488,-796849 5398,-937361 -93921,-1872919 -111147,-2810169 -48583,-2642427 -339100,-2828627 879764,-2758722 1830535,104958 3475089,-38207 5307427,-38207z"/>
  <path class="fil3" d="M3095458 927005c1077752,-18428 2153921,-103556 3231843,-103556 1552336,0 3103380,116085 4655636,103556 1011252,-8162 1971978,57907 2983240,62133 345660,1463 645501,-1652 904100,1763 652672,8713 1065473,-106540 1267027,164167 92899,124758 146961,298379 175664,500273 -184798,50446 -356246,115814 -514054,196406 189355,-26010 366051,-40261 530769,-43356 21182,265910 8433,567604 -12669,866003 -35724,504930 -111578,1118564 -130506,1850766 -16205,627123 -122505,1126875 -157467,1747209 -178579,-942 -371559,-15303 -579873,-43916 174262,88984 365160,159400 572301,211668 -1422,42514 -2483,187192 -3034,229766 -11768,887936 101583,1792247 103255,2680293 942,493293 4807,896389 3616,1225635 -259391,30636 -495135,78508 -706564,144117 256957,-17337 491730,-21653 705802,-13821 -16755,1905617 -268003,1069639 -2632851,1082278 -1102439,5899 -2197427,188985 -3299736,206141 -621756,9684 -1242229,-56606 -1863244,-92440 -73100,-259029 -183536,-493953 -332420,-704049 48182,252730 66530,482366 57136,690519 -168474,-6650 -337027,-9915 -505661,-7631 -1086825,14652 -2167121,188383 -3254027,193170 -838622,3696 -1670684,-159329 -2509286,-167802 -1469030,-14853 -1723053,397718 -1744865,-523177 336015,-27732 635846,-81834 898211,-163256 -337017,22724 -635857,23065 -899924,2984 130,-410527 26480,-1031782 24126,-1963014 -2093,-821235 87943,-1870304 128704,-2690969 247472,-53931 473012,-132379 675977,-236045 -242805,33360 -464779,47361 -667374,43305 5889,-150587 9825,-97707 10706,-248073 5228,-891031 -94562,-1754941 -111908,-2645862 -58979,-3030771 -472952,-2662416 1856173,-2568545 61282,60611 123065,117226 185379,169805 -41222,-56685 -80591,-112409 -118128,-167221 309125,11467 664520,17787 1073926,10776z"/>
  <path class="fil4" d="M6382014 93250c1541870,0 3082468,122425 4624268,109185 1004422,-8593 1958688,61082 2963129,65538 343317,1533 641155,-1742 898012,1893 648285,9154 1058302,-112379 1258484,173091 122223,174302 176796,438990 194743,743709 -204769,54642 -393633,127932 -566172,220331 205489,-29604 396036,-44647 572581,-45999 3696,218990 -7221,452531 -22664,684190 -35463,532461 -110767,1179535 -129605,1951737 -17807,729247 -144307,1510543 -164708,2236846 -185669,360 -387092,-14662 -605351,-46110 182675,97828 383648,174222 602437,229756 -5298,912643 101663,1755932 103245,2667755 1042,609867 6170,1089209 2454,1465164 -272029,31898 -518480,83356 -738561,154964 269335,-19049 514293,-23105 736608,-13220 -31758,1778556 -336206,951401 -2612782,964321 -1095018,6229 -2182614,199320 -3277502,217397 -664169,10986 -1326887,-70696 -1990365,-105439 -69835,-202795 -162444,-390177 -278409,-561765 35874,197257 55163,381063 58829,552171 -138769,-4747 -277568,-6760 -416427,-4777 -1079494,15453 -2152499,198679 -3232104,203716 -832973,3896 -1659427,-168033 -2492360,-176946 -1373778,-14742 -1677845,370377 -1726809,-394934 276727,-31778 527113,-83696 750379,-156336 -277367,19610 -528845,23315 -756398,12279 -10476,-423878 24827,-1120767 21963,-2251849 -2043,-810730 76265,-1611425 119510,-2421343 196185,-53962 377568,-125259 543808,-214273 -191117,27531 -369325,42474 -535345,45529 10536,-225640 17756,-459953 19048,-685692 5409,-939674 -93911,-1877546 -111137,-2817099 -49334,-2691391 -348364,-2853585 936730,-2766293 1839708,124898 3433146,-37497 5250471,-37497z"/>
  <path class="fil5" d="M6403676 199851c1523793,0 3046304,120221 4570027,107211 992644,-8443 1935713,59990 2928387,64377 339281,1502 633614,-1703 887476,1843 640674,8993 1045873,-110366 1243701,169976 112830,159890 167312,397187 188474,671640 -167022,50837 -322856,114773 -467263,192099 168333,-24246 326651,-38718 475455,-43916 8483,238129 -3044,497048 -20250,753634 -35063,522887 -109465,1158333 -128093,1916664 -17607,716569 -142745,1460218 -162805,2173902 -159951,-3896 -331078,-18708 -514054,-45068 157027,84087 327563,152349 511320,205139 -6871,902388 100321,1761080 101913,2662857 1132,650449 7011,1149950 1282,1532035 -235224,32199 -450378,79760 -644940,143056 231848,-16395 445630,-21673 642456,-16525 -39659,1640669 -365970,853955 -2580443,866464 -1082168,6109 -2157016,195714 -3239074,213481 -669297,10996 -1337112,-72620 -2005768,-105499 -64217,-162805 -143967,-315094 -239621,-456627 28753,158168 46871,307683 54813,448945 -134933,-4506 -269927,-6389 -404980,-4466 -1066825,15153 -2127231,195113 -3194176,200041 -823209,3856 -1639958,-165009 -2463127,-173782 -1304102,-13901 -1632757,334293 -1699528,-304298 236607,-32228 452962,-79930 648506,-143546 -237958,16826 -456847,21913 -657950,16075 -19930,-403818 21322,-1106596 18168,-2308915 -2094,-802237 76555,-1602802 119079,-2404188 160351,-49935 310297,-112048 449586,-186641 -155914,22454 -303236,36535 -442365,42614 10505,-222805 17676,-445700 18998,-668696 5468,-922839 -92819,-1843814 -109825,-2766493 -45929,-2488875 -310868,-2764260 721345,-2723158 1877786,74803 3543713,-30235 5393276,-30235z"/>
  <path class="fil6" d="M3310351 493853c1041197,-18658 2080842,-104898 3122209,-104898 1499677,0 2998101,117627 4497718,104898 976900,-8262 1905077,58678 2882007,62955 333932,1482 623588,-1663 873454,1833 630529,8793 1029329,-107973 1224012,166270 102585,144497 156155,353662 180141,596397 -117857,42374 -229705,91788 -335414,148404 119770,-17266 234452,-29555 344268,-37106 15914,258008 3865,546302 -15383,831641 -34482,511540 -107683,1133155 -126040,1875052 -17356,700284 -140231,1368970 -160191,2066349 -124327,-7040 -255014,-20320 -392401,-40110 121894,65268 251929,121012 389957,167372 -9594,892984 98388,1802012 100011,2694815 1272,705422 8162,1229130 -1032,1616192 -186751,30957 -359972,72229 -519361,124097 183205,-12960 355114,-18979 516306,-18398 -50656,1473347 -403667,736388 -2536707,748336 -1065053,5999 -2122874,191478 -3187807,208845 -676668,11056 -1351794,-75574 -2027871,-105719 -53521,-116416 -115594,-227042 -186371,-331770 20581,113171 35674,221874 45529,326351 -128544,-4106 -257127,-5778 -385781,-3956 -1049930,14843 -2093550,190868 -3143610,195715 -810190,3756 -1614009,-161423 -2424158,-170006 -1212856,-12859 -1568471,290858 -1659397,-202865 182775,-30766 352510,-71468 508925,-122354 -185759,13139 -359921,19138 -523067,18347 -37015,-370878 12890,-1073966 9505,-2374353 -2084,-795306 77406,-1648400 118828,-2442926 113541,-41412 221454,-89414 323617,-144117 -110316,15894 -216315,27562 -318178,35203 10365,-218118 17446,-376997 18728,-595286 5308,-902768 -91348,-1803774 -108093,-2706442 -54141,-2916569 -417458,-2726143 1474389,-2618210 68082,71778 136776,138378 206130,199740 -46069,-66430 -89785,-131578 -131258,-195544 363668,19620 806915,34923 1346386,25248z"/>
 </g>
</svg>
