<?xml version="1.0" encoding="UTF-8"?>
<!DOCTYPE svg PUBLIC "-//W3C//DTD SVG 1.1//EN" "http://www.w3.org/Graphics/SVG/1.1/DTD/svg11.dtd">
<!-- Creator: CorelDRAW X7 -->
<svg xmlns="http://www.w3.org/2000/svg" xml:space="preserve" width="19.4675mm" height="95.3446mm" version="1.1" style="shape-rendering:geometricPrecision; text-rendering:geometricPrecision; image-rendering:optimizeQuality; fill-rule:evenodd; clip-rule:evenodd"
viewBox="0 0 224204 1098069"
 xmlns:xlink="http://www.w3.org/1999/xlink">
 <defs>
  <style type="text/css">
   <![CDATA[
    .str3 {stroke:#663333;stroke-width:4875.08}
    .str0 {stroke:#663300;stroke-width:2031.57}
    .str2 {stroke:#996633;stroke-width:2031.57}
    .str4 {stroke:#CC9933;stroke-width:2924.13}
    .str1 {stroke:#663300;stroke-width:877.584}
    .fil1 {fill:none}
    .fil6 {fill:#371B00}
    .fil0 {fill:#532900}
    .fil2 {fill:#946327}
    .fil5 {fill:#A3772D}
    .fil3 {fill:#AD843F}
    .fil4 {fill:url(#id6)}
   ]]>
  </style>
    <clipPath id="id0">
     <path d="M8510 14924l0 1068222c0,7649 6258,13907 13908,13907l186863 0c7649,0 13907,-6258 13907,-13907l0 -1068222c0,-7650 -6258,-13908 -13907,-13908l-186863 0c-7650,0 -13908,6258 -13908,13908z"/>
    </clipPath>
    <clipPath id="id1">
     <path d="M8510 14924l0 1068222c0,7649 6258,13907 13908,13907l186863 0c7649,0 13907,-6258 13907,-13907l0 -1068222c0,-7650 -6258,-13908 -13907,-13908l-186863 0c-7650,0 -13908,6258 -13908,13908z"/>
    </clipPath>
    <clipPath id="id2">
     <path d="M1016 14924l0 1054982c0,7649 6258,13907 13908,13907l186863 0c7649,0 13907,-6258 13907,-13907l0 -1054982c0,-7650 -6258,-13908 -13907,-13908l-186863 0c-7650,0 -13908,6258 -13908,13908z"/>
    </clipPath>
    <clipPath id="id3">
     <path d="M12095 27035l0 1030758c0,6860 5612,12471 12472,12471l167575 0c6860,0 12473,-5611 12473,-12471l0 -1030758c0,-6861 -5613,-12472 -12473,-12472l-167575 0c-6860,0 -12472,5611 -12472,12472z"/>
    </clipPath>
      <mask id="id4">
  <linearGradient id="id5" gradientUnits="userSpaceOnUse" x1="82855.6" y1="542415" x2="122771" y2="542415">
   <stop offset="0" style="stop-opacity:1; stop-color:white"/>
   <stop offset="1" style="stop-opacity:0; stop-color:white"/>
  </linearGradient>
       <rect style="fill:url(#id5)" x="9659" y="11971" width="186308" height="1060887"/>
      </mask>
  <linearGradient id="id6" gradientUnits="userSpaceOnUse" x1="17870.7" y1="542413" x2="198839" y2="542413">
   <stop offset="0" style="stop-opacity:1; stop-color:#A3701E"/>
   <stop offset="1" style="stop-opacity:1; stop-color:#996633"/>
  </linearGradient>
 </defs>
 <g id="Layer_x0020_1">
  <metadata id="CorelCorpID_0Corel-Layer"/>
  <g id="_855964864">
   <path class="fil0" d="M8510 14924l0 1068222c0,7649 6258,13907 13908,13907l186863 0c7649,0 13907,-6258 13907,-13907l0 -1068222c0,-7650 -6258,-13908 -13907,-13908l-186863 0c-7650,0 -13908,6258 -13908,13908z"/>
   <g style="clip-path:url(#id0)">
   </g>
   <path id="1" class="fil1 str0" d="M8510 14924l0 1068222c0,7649 6258,13907 13908,13907l186863 0c7649,0 13907,-6258 13907,-13907l0 -1068222c0,-7650 -6258,-13908 -13907,-13908l-186863 0c-7650,0 -13908,6258 -13908,13908z"/>
   <g style="clip-path:url(#id1)">
    <path id="2" class="fil1 str1" d="M8510 1016l214678 1096037m0 -1096037l-214678 1096037"/>
   </g>
   <path class="fil2" d="M1016 14924l0 1054982c0,7649 6258,13907 13908,13907l186863 0c7649,0 13907,-6258 13907,-13907l0 -1054982c0,-7650 -6258,-13908 -13907,-13908l-186863 0c-7650,0 -13908,6258 -13908,13908z"/>
   <g style="clip-path:url(#id2)">
    <g>
     <path id="1" class="fil3" d="M-24480 529441c7235,-115207 -1113,-125883 4947,-222398 5723,-91095 3720,-165625 -4472,-166472 -8190,-845 -19470,72319 -25190,163413 -3229,51366 -14259,69838 -21229,180829 -6101,97130 -9533,176993 -16657,290411 -6409,102037 -3255,185615 7044,186678 10297,1062 23842,-80795 30251,-182835 8358,-133065 17127,-119404 25306,-249626zm-6064 5172c5534,-88086 -850,-96253 3786,-170051 4375,-69655 2843,-126641 -3421,-127290 -6263,-646 -14888,55296 -19262,124951 -2468,39280 -10903,53400 -16232,138266 -4665,74271 -7289,135335 -12735,222057 -4900,78023 -2490,141930 5385,142742 7876,812 18232,-61778 23131,-139800 6391,-101746 13096,-91304 19348,-190875zm-5184 4427c4075,-64893 -626,-70909 2788,-125273 3223,-51312 2094,-93296 -2520,-93770 -4614,-475 -10968,40734 -14189,92046 -1820,28935 -8033,39341 -11958,101857 -3436,54714 -5369,99698 -9383,163583 -3609,57479 -1833,104557 3967,105153 5802,599 13432,-45510 17041,-102983 4708,-74956 9648,-67262 14254,-140613zm-5311 3561c2868,-45677 -66,-49871 2338,-88139 2267,-36116 1753,-65635 -1152,-65937 -2903,-299 -7099,28737 -9365,64856 -1280,20364 -5242,27731 -8007,71736 -2417,38511 -3845,70167 -6667,115137 -2542,40453 -1642,73555 2009,73932 3649,378 8669,-32115 11211,-72571 3314,-52756 6390,-47383 9633,-99014zm-4783 4590c1376,-21919 -31,-23932 1119,-42294 1091,-17330 843,-31496 -550,-31639 -1395,-144 -3406,13787 -4493,31116 -615,9776 -2515,13309 -3843,34425 -1159,18479 -1844,33670 -3199,55248 -1221,19413 -789,35297 965,35475 1750,182 4158,-15408 5378,-34821 1591,-25316 3067,-22738 4623,-47510zm45938 263390c7238,-115207 -1110,-125881 4953,-222400 5719,-91092 3717,-165624 -4474,-166468 -8193,-844 -19471,72316 -25193,163410 -3226,51369 -14256,69839 -21228,180831 -6100,97130 -9533,176992 -16655,290411 -6409,102036 -3256,185616 7041,186676 10300,1064 23842,-80793 30252,-182829 8356,-133068 17127,-119408 25304,-249631zm-6060 5173c5531,-88089 -851,-96253 3783,-170053 4377,-69653 2845,-126641 -3418,-127287 -6264,-645 -14889,55295 -19262,124949 -2468,39277 -10903,53402 -16233,138268 -4665,74271 -7289,135336 -12736,222055 -4899,78023 -2490,141929 5385,142743 7874,811 18230,-61778 23131,-139799 6390,-101747 13095,-91305 19350,-190876zm-5186 4426c4077,-64893 -626,-70906 2790,-125272 3221,-51311 2093,-93294 -2522,-93769 -4612,-478 -10967,40734 -14189,92046 -1818,28937 -8031,39337 -11958,101857 -3437,54715 -5371,99698 -9382,163585 -3611,57475 -1833,104555 3966,105152 5801,599 13430,-45510 17041,-102986 4708,-74955 9647,-67260 14254,-140613zm-5313 3562c2870,-45675 -63,-49871 2341,-88139 2268,-36115 1751,-65637 -1153,-65936 -2902,-299 -7097,28735 -9367,64853 -1277,20368 -5240,27733 -8003,71738 -2420,38511 -3847,70168 -6670,115135 -2542,40456 -1640,73557 2009,73935 3652,374 8671,-32117 11211,-72573 3314,-52756 6392,-47381 9632,-99013zm-4780 4589c1375,-21918 -32,-23932 1120,-42294 1091,-17331 842,-31496 -551,-31641 -1395,-144 -3407,13791 -4495,31120 -615,9773 -2514,13309 -3840,34422 -1162,18480 -1846,33672 -3202,55251 -1218,19410 -787,35293 965,35474 1753,181 4159,-15410 5380,-34822 1590,-25314 3066,-22735 4623,-47510zm68145 -829066c7236,-115206 -1111,-125882 4951,-222399 5720,-91094 3719,-165624 -4473,-166472 -8193,-842 -19470,72319 -25192,163412 -3226,51367 -14258,69839 -21230,180830 -6100,97132 -9533,176995 -16655,290411 -6409,102037 -3256,185615 7044,186678 10296,1062 23841,-80794 30249,-182831 8359,-133069 17128,-119409 25306,-249629zm-6059 5172c5531,-88087 -852,-96254 3781,-170052 4376,-69652 2845,-126641 -3418,-127289 -6264,-645 -14888,55295 -19263,124948 -2467,39281 -10901,53403 -16231,138271 -4666,74268 -7289,135332 -12737,222054 -4900,78024 -2489,141928 5386,142741 7874,813 18230,-61777 23130,-139799 6391,-101746 13097,-91304 19352,-190874zm-5187 4426c4076,-64894 -627,-70907 2788,-125273 3222,-51311 2095,-93293 -2520,-93770 -4614,-477 -10967,40734 -14191,92047 -1816,28936 -8030,39337 -11957,101859 -3436,54711 -5370,99695 -9383,163581 -3610,57476 -1833,104556 3968,105153 5800,601 13430,-45509 17040,-102986 4708,-74953 9648,-67259 14255,-140611zm-5313 3561c2870,-45677 -63,-49869 2339,-88138 2270,-36117 1754,-65636 -1153,-65937 -2902,-300 -7096,28736 -9364,64854 -1280,20366 -5241,27731 -8005,71738 -2420,38510 -3847,70166 -6670,115134 -2542,40456 -1641,73558 2010,73934 3651,378 8672,-32114 11211,-72573 3313,-52754 6390,-47382 9632,-99012zm-4782 4589c1375,-21918 -32,-23931 1123,-42292 1087,-17331 840,-31499 -553,-31641 -1396,-143 -3408,13789 -4494,31118 -616,9774 -2516,13307 -3842,34425 -1160,18478 -1845,33669 -3200,55247 -1220,19413 -789,35295 964,35478 1754,179 4160,-15412 5379,-34825 1591,-25315 3066,-22736 4623,-47510zm47393 292362c7237,-115206 -1111,-125881 4950,-222399 5723,-91092 3720,-165623 -4473,-166468 -8192,-845 -19472,72316 -25191,163412 -3229,51366 -14260,69837 -21230,180829 -6099,97130 -9531,176991 -16656,290410 -6409,102038 -3255,185616 7043,186678 10299,1063 23843,-80793 30251,-182832 8356,-133067 17128,-119408 25306,-249630zm-6062 5172c5534,-88088 -850,-96252 3785,-170051 4376,-69654 2844,-126643 -3420,-127289 -6263,-643 -14888,55297 -19262,124951 -2468,39277 -10903,53401 -16233,138267 -4664,74271 -7288,135334 -12737,222056 -4899,78022 -2488,141931 5386,142742 7876,811 18231,-61778 23134,-139799 6387,-101748 13094,-91304 19347,-190877zm-5185 4429c4076,-64894 -627,-70909 2787,-125273 3225,-51313 2096,-93296 -2519,-93770 -4613,-475 -10966,40734 -14190,92045 -1817,28936 -8030,39341 -11958,101859 -3435,54713 -5369,99697 -9382,163583 -3609,57477 -1833,104556 3968,105153 5800,597 13429,-45510 17038,-102986 4710,-74954 9648,-67262 14256,-140611zm-5312 3561c2870,-45677 -65,-49871 2339,-88137 2267,-36118 1752,-65639 -1151,-65940 -2904,-298 -7098,28738 -9367,64853 -1277,20369 -5240,27735 -8004,71739 -2419,38510 -3846,70168 -6672,115136 -2539,40455 -1640,73556 2011,73931 3651,380 8671,-32112 11212,-72568 3314,-52757 6390,-47384 9632,-99014zm-4783 4587c1378,-21916 -32,-23932 1122,-42294 1090,-17328 842,-31494 -553,-31638 -1392,-144 -3405,13789 -4494,31120 -612,9773 -2515,13307 -3839,34422 -1162,18478 -1846,33670 -3203,55246 -1219,19414 -787,35298 966,35477 1752,182 4161,-15409 5378,-34821 1592,-25317 3067,-22738 4623,-47512zm-31619 812767c7235,-115203 -1112,-125879 4947,-222397 5723,-91095 3719,-165626 -4472,-166469 -8191,-845 -19470,72314 -25190,163409 -3228,51370 -14259,69839 -21230,180831 -6100,97129 -9532,176992 -16656,290410 -6409,102039 -3256,185617 7044,186680 10297,1061 23843,-80793 30251,-182833 8356,-133068 17127,-119410 25306,-249631zm-6063 5174c5533,-88089 -850,-96254 3785,-170053 4376,-69652 2843,-126642 -3420,-127287 -6264,-646 -14887,55296 -19263,124949 -2467,39278 -10903,53402 -16231,138269 -4665,74267 -7291,135334 -12737,222055 -4900,78022 -2489,141928 5385,142742 7877,811 18231,-61778 23131,-139800 6390,-101746 13096,-91303 19350,-190875zm-5185 4428c4076,-64894 -627,-70908 2788,-125275 3223,-51311 2096,-93293 -2519,-93770 -4615,-475 -10968,40735 -14190,92047 -1819,28938 -8033,39339 -11959,101860 -3435,54711 -5368,99695 -9382,163582 -3609,57476 -1833,104556 3968,105152 5800,599 13430,-45510 17039,-102987 4709,-74952 9648,-67259 14255,-140609zm-5311 3560c2869,-45676 -66,-49870 2338,-88139 2269,-36115 1753,-65638 -1152,-65936 -2903,-299 -7099,28737 -9365,64851 -1279,20367 -5241,27734 -8007,71740 -2417,38508 -3845,70166 -6669,115134 -2540,40457 -1641,73557 2011,73933 3650,378 8669,-32113 11211,-72569 3314,-52758 6390,-47385 9633,-99014zm-4785 4588c1378,-21919 -30,-23932 1123,-42294 1090,-17329 841,-31494 -552,-31639 -1395,-143 -3406,13790 -4494,31119 -614,9773 -2516,13308 -3841,34424 -1161,18479 -1845,33670 -3202,55246 -1219,19413 -787,35295 967,35477 1751,181 4158,-15411 5378,-34821 1592,-25317 3066,-22737 4621,-47512zm35822 -404900c7236,-115205 16807,-124033 22871,-220549 5720,-91095 17001,-164254 25192,-163411 8192,844 10195,75375 4472,166469 -3227,51371 5358,71863 -1614,182853 -6100,97130 -12679,176670 -19803,290086 -6409,102037 -19952,183894 -30249,182833 -10300,-1062 -13453,-84639 -7044,-186678 8357,-133068 -2002,-121382 6175,-251603zm5338 6350c5532,-88090 12851,-94842 17488,-168640 4373,-69655 12998,-125594 19261,-124950 6265,646 7797,57637 3421,127287 -2466,39282 4097,54949 -1234,139818 -4663,74269 -9695,135084 -15141,221807 -4901,78023 -15257,140614 -23131,139801 -7875,-810 -10287,-64717 -5386,-142742 6390,-101744 -1534,-92812 4722,-192381zm4567 5433c4074,-64894 9467,-69868 12882,-124233 3222,-51311 9575,-92524 14190,-92049 4615,478 5742,42459 2520,93770 -1817,28936 3017,40480 -909,102999 -3437,54712 -7143,99514 -11155,163402 -3610,57475 -11241,103584 -17039,102986 -5801,-599 -7578,-47677 -3968,-105155 4708,-74952 -1129,-68370 3479,-141720zm4798 4602c2869,-45677 6288,-49215 8692,-87483 2268,-36115 6462,-65150 9365,-64853 2905,302 3420,29822 1152,65939 -1279,20368 1713,28450 -1051,72455 -2419,38511 -4962,70052 -7785,115018 -2541,40457 -7562,72948 -11212,72572 -3652,-376 -4551,-33478 -2010,-73933 3313,-52758 -394,-48085 2849,-99715zm4149 5510c1377,-21919 3017,-23619 4171,-41978 1086,-17331 3100,-31263 4494,-31120 1393,144 1641,14310 553,31641 -614,9772 821,13652 -505,34767 -1161,18477 -2380,33613 -3738,55191 -1217,19411 -3627,35002 -5379,34822 -1752,-180 -2183,-16063 -963,-35477 1589,-25314 -189,-23072 1367,-47846zm35182 -843714c7235,-115207 16809,-124034 22871,-220552 5721,-91090 17000,-164252 25191,-163408 8192,845 10195,75376 4475,166468 -3227,51371 5357,71863 -1615,182855 -6100,97130 -12681,176668 -19802,290085 -6410,102037 -19954,183895 -30254,182831 -10297,-1058 -13450,-84638 -7042,-186679 8358,-133065 -2003,-121378 6176,-251600zm5340 6349c5530,-88090 12849,-94841 17484,-168640 4376,-69653 13001,-125594 19265,-124948 6263,647 7794,57636 3419,127287 -2467,39278 4098,54948 -1233,139817 -4666,74269 -9698,135085 -15143,221806 -4900,78022 -15256,140613 -23131,139802 -7873,-812 -10286,-64720 -5386,-142742 6391,-101744 -1530,-92811 4725,-192382zm4564 5433c4076,-64895 9469,-69868 12884,-124234 3221,-51311 9575,-92520 14187,-92046 4615,477 5746,42458 2521,93769 -1816,28934 3020,40481 -908,102998 -3437,54712 -7142,99514 -11157,163401 -3608,57476 -11238,103585 -17038,102988 -5801,-599 -7577,-47677 -3967,-105155 4708,-74952 -1128,-68371 3478,-141721zm4799 4602c2870,-45675 6288,-49213 8692,-87482 2268,-36116 6462,-65152 9366,-64853 2904,301 3420,29822 1151,65937 -1280,20368 1712,28452 -1051,72457 -2418,38509 -4961,70050 -7787,115020 -2541,40456 -7560,72946 -11210,72570 -3650,-376 -4552,-33478 -2010,-73933 3314,-52757 -394,-48084 2849,-99716zm4149 5511c1377,-21917 3019,-23618 4169,-41980 1091,-17329 3102,-31262 4495,-31118 1394,144 1642,14310 553,31639 -614,9772 821,13650 -503,34767 -1162,18479 -2382,33613 -3736,55191 -1220,19413 -3629,35004 -5382,34824 -1750,-181 -2182,-16064 -964,-35478 1592,-25314 -188,-23074 1368,-47845zm-10980 512163c7236,-115208 16807,-124033 22869,-220549 5722,-91097 17001,-164255 25194,-163411 8191,844 10194,75375 4472,166469 -3225,51370 5357,71860 -1613,182852 -6099,97132 -12680,176667 -19804,290085 -6410,102040 -19953,183896 -30252,182836 -10298,-1063 -13450,-84641 -7042,-186679 8359,-133066 -2002,-121382 6176,-251603zm5336 6349c5534,-88090 12854,-94839 17489,-168639 4374,-69652 12999,-125597 19262,-124948 6265,646 7797,57635 3421,127287 -2468,39279 4096,54947 -1232,139813 -4666,74272 -9698,135088 -15144,221808 -4902,78025 -15258,140613 -23132,139803 -7875,-814 -10284,-64720 -5385,-142742 6391,-101745 -1532,-92812 4721,-192382zm4569 5432c4074,-64893 9468,-69866 12880,-124234 3224,-51309 9577,-92522 14193,-92044 4614,475 5742,42456 2519,93771 -1818,28934 3018,40477 -910,102994 -3435,54711 -7141,99514 -11154,163401 -3610,57478 -11240,103587 -17040,102988 -5801,-599 -7578,-47678 -3966,-105154 4706,-74954 -1130,-68372 3478,-141722zm4798 4604c2867,-45676 6288,-49215 8692,-87483 2267,-36117 6460,-65152 9366,-64853 2905,299 3420,29821 1151,65939 -1279,20366 1712,28449 -1051,72455 -2420,38507 -4962,70052 -7785,115020 -2541,40455 -7562,72945 -11212,72570 -3652,-377 -4550,-33476 -2010,-73934 3313,-52758 -395,-48084 2849,-99714zm4149 5507c1376,-21915 3017,-23614 4171,-41976 1087,-17331 3100,-31264 4494,-31119 1392,142 1640,14309 551,31640 -613,9773 822,13649 -505,34765 -1160,18480 -2379,33614 -3734,55191 -1219,19413 -3628,35005 -5381,34824 -1752,-181 -2184,-16064 -965,-35477 1591,-25315 -188,-23071 1369,-47848zm-9830 492359c7236,-115204 16809,-124032 22871,-220550 5722,-91092 17001,-164254 25193,-163410 8192,847 10193,75377 4473,166469 -3227,51368 5356,71863 -1614,182854 -6101,97130 -12680,176668 -19805,290086 -6407,102037 -19952,183894 -30249,182831 -10300,-1060 -13453,-84640 -7043,-186678 8357,-133066 -2004,-121380 6174,-251602zm5337 6348c5534,-88087 12855,-94840 17489,-168637 4376,-69653 12999,-125596 19263,-124950 6264,645 7794,57635 3420,127288 -2468,39278 4097,54945 -1233,139818 -4665,74266 -9696,135084 -15143,221805 -4901,78022 -15256,140614 -23130,139800 -7875,-810 -10287,-64721 -5386,-142742 6391,-101744 -1533,-92809 4720,-192382zm4568 5433c4075,-64894 9468,-69866 12882,-124231 3223,-51312 9576,-92522 14191,-92046 4614,475 5742,42457 2521,93769 -1819,28935 3015,40478 -910,102996 -3436,54713 -7143,99515 -11154,163400 -3612,57476 -11240,103586 -17042,102987 -5800,-595 -7577,-47675 -3965,-105152 4707,-74952 -1131,-68372 3477,-141723zm4798 4604c2870,-45674 6290,-49213 8692,-87483 2270,-36115 6462,-65151 9366,-64851 2905,299 3420,29820 1152,65936 -1277,20366 1713,28450 -1053,72455 -2417,38512 -4959,70052 -7783,115021 -2542,40454 -7562,72945 -11213,72571 -3650,-378 -4550,-33479 -2010,-73936 3313,-52756 -393,-48080 2849,-99713zm4149 5510c1377,-21918 3017,-23616 4172,-41979 1088,-17330 3100,-31264 4492,-31121 1394,147 1643,14311 553,31640 -612,9774 823,13653 -503,34769 -1161,18478 -2382,33614 -3736,55192 -1220,19412 -3627,35003 -5381,34822 -1751,-181 -2183,-16065 -964,-35479 1590,-25314 -189,-23069 1367,-47844zm33452 -868146c7236,-115207 16809,-124034 22872,-220552 5719,-91093 16998,-164254 25193,-163410 8190,845 10193,75377 4470,166469 -3225,51371 5358,71862 -1613,182853 -6099,97131 -12679,176667 -19802,290088 -6409,102036 -19953,183894 -30251,182832 -10299,-1062 -13452,-84641 -7044,-186678 8356,-133069 -2004,-121383 6175,-251602zm5338 6347c5533,-88089 12853,-94840 17490,-168639 4373,-69652 12997,-125594 19261,-124948 6264,646 7795,57633 3420,127288 -2467,39278 4097,54949 -1233,139814 -4665,74270 -9696,135088 -15143,221809 -4900,78023 -15257,140614 -23131,139800 -7876,-813 -10285,-64720 -5386,-142742 6390,-101744 -1533,-92810 4722,-192382zm4567 5432c4075,-64892 9468,-69866 12882,-124230 3223,-51315 9577,-92524 14191,-92046 4614,473 5742,42455 2519,93766 -1818,28938 3019,40481 -907,102999 -3437,54713 -7143,99512 -11157,163401 -3609,57475 -11239,103586 -17039,102987 -5802,-599 -7577,-47677 -3967,-105154 4707,-74953 -1128,-68373 3478,-141723zm4800 4604c2865,-45676 6287,-49215 8691,-87481 2267,-36118 6462,-65154 9366,-64852 2904,296 3420,29818 1151,65936 -1280,20366 1713,28450 -1051,72455 -2419,38510 -4962,70052 -7785,115019 -2542,40456 -7562,72946 -11213,72573 -3651,-378 -4551,-33480 -2010,-73936 3314,-52757 -395,-48083 2851,-99714zm4147 5509c1378,-21917 3018,-23616 4172,-41978 1087,-17330 3100,-31264 4495,-31119 1392,143 1638,14310 550,31642 -614,9771 822,13647 -503,34763 -1161,18483 -2382,33616 -3737,55194 -1219,19411 -3627,35002 -5379,34822 -1753,-180 -2185,-16065 -964,-35476 1588,-25317 -190,-23073 1366,-47848zm-8635 512477c7235,-115204 16807,-124033 22870,-220548 5722,-91094 17001,-164258 25193,-163412 8191,846 10194,75376 4473,166471 -3228,51368 5358,71860 -1613,182851 -6102,97131 -12680,176669 -19806,290087 -6408,102037 -19952,183895 -30250,182833 -10298,-1062 -13452,-84643 -7044,-186678 8359,-133068 -2001,-121383 6177,-251604zm5337 6351c5532,-88088 12854,-94840 17488,-168639 4376,-69655 12998,-125596 19264,-124951 6263,646 7794,57634 3418,127287 -2466,39279 4098,54949 -1233,139817 -4663,74269 -9696,135085 -15141,221807 -4902,78023 -15258,140612 -23132,139802 -7874,-813 -10287,-64720 -5386,-142742 6392,-101745 -1532,-92810 4722,-192381zm4567 5430c4075,-64892 9468,-69865 12882,-124230 3222,-51314 9576,-92523 14190,-92047 4615,474 5743,42456 2521,93768 -1818,28937 3017,40478 -909,102998 -3436,54713 -7143,99514 -11155,163399 -3611,57478 -11239,103588 -17040,102986 -5801,-596 -7576,-47675 -3967,-105149 4707,-74954 -1130,-68373 3478,-141725zm4798 4603c2869,-45676 6290,-49214 8692,-87482 2269,-36114 6462,-65149 9367,-64851 2904,298 3419,29819 1150,65935 -1278,20369 1715,28450 -1051,72458 -2418,38510 -4961,70050 -7785,115019 -2541,40456 -7562,72948 -11212,72570 -3650,-376 -4550,-33477 -2010,-73934 3313,-52757 -394,-48081 2849,-99715zm4149 5513c1377,-21920 3017,-23618 4171,-41982 1089,-17329 3101,-31262 4494,-31120 1393,147 1641,14312 553,31641 -614,9774 821,13652 -505,34768 -1160,18480 -2380,33615 -3735,55193 -1219,19411 -3628,35002 -5382,34821 -1750,-179 -2182,-16065 -962,-35476 1589,-25317 -190,-23072 1366,-47845zm23603 118494c7236,-115206 16809,-124033 22872,-220551 5721,-91094 17001,-164255 25192,-163412 8192,846 10194,75377 4474,166469 -3226,51370 5358,71862 -1614,182855 -6101,97131 -12682,176668 -19804,290087 -6409,102038 -19952,183894 -30251,182831 -10299,-1061 -13452,-84640 -7042,-186679 8356,-133065 -2005,-121379 6173,-251600zm5340 6348c5533,-88089 12851,-94840 17486,-168639 4376,-69653 13000,-125596 19264,-124949 6264,646 7793,57635 3420,127288 -2467,39278 4097,54948 -1235,139815 -4664,74268 -9694,135086 -15142,221807 -4899,78023 -15255,140614 -23130,139801 -7874,-810 -10285,-64718 -5385,-142741 6390,-101746 -1532,-92810 4722,-192382zm4566 5432c4076,-64894 9468,-69865 12883,-124232 3221,-51312 9577,-92523 14190,-92046 4613,477 5742,42458 2521,93770 -1819,28933 3017,40478 -911,102996 -3436,54712 -7141,99515 -11156,163400 -3609,57476 -11237,103585 -17039,102987 -5800,-598 -7577,-47677 -3966,-105152 4707,-74955 -1130,-68373 3478,-141723zm4799 4605c2869,-45676 6287,-49214 8693,-87483 2266,-36118 6460,-65152 9363,-64853 2907,300 3422,29820 1152,65938 -1279,20365 1712,28448 -1050,72454 -2419,38510 -4962,70052 -7787,115021 -2541,40453 -7559,72945 -11212,72570 -3649,-377 -4550,-33478 -2008,-73934 3314,-52758 -394,-48083 2849,-99713zm4150 5507c1376,-21915 3016,-23615 4169,-41978 1089,-17329 3101,-31262 4494,-31119 1394,144 1642,14309 552,31641 -613,9773 824,13650 -503,34766 -1161,18479 -2382,33615 -3736,55191 -1220,19415 -3629,35003 -5380,34822 -1751,-178 -2183,-16063 -966,-35474 1592,-25316 -189,-23074 1370,-47849zm-3793 -644618c4397,-70007 13730,-75010 17414,-133660 3475,-55357 12935,-99547 21127,-98701 8191,843 12016,46403 8539,101759 -1962,31216 7102,44065 2867,111513 -3708,59023 -8323,107294 -12652,176217 -3896,62005 -15400,111410 -25699,110348 -10298,-1062 -15490,-52186 -11596,-114194 5080,-80863 -4971,-74148 0,-153282zm5481 4089c3362,-53529 10498,-57355 13313,-102201 2659,-42327 9892,-76115 16155,-75469 6265,645 9187,35481 6529,77806 -1500,23871 5430,33696 2192,85267 -2835,45134 -6365,82041 -9672,134741 -2977,47412 -11776,85190 -19651,84377 -7873,-812 -11845,-39905 -8866,-87317 3882,-61830 -3801,-56697 0,-117204zm4687 3497c2479,-39433 7735,-42251 9809,-75288 1959,-31183 7287,-56073 11902,-55597 4613,477 6767,26139 4809,57321 -1105,17583 4000,24822 1614,62813 -2090,33248 -4688,60437 -7127,99259 -2194,34927 -8673,62755 -14476,62156 -5799,-595 -8725,-29397 -6531,-64323 2861,-45550 -2799,-41767 0,-86341zm4901 3004c1741,-27755 5066,-29779 6526,-53034 1380,-21947 4851,-39495 7756,-39196 2904,299 4141,18334 2761,40283 -776,12374 2406,17428 726,44169 -1469,23403 -3234,42547 -4949,69873 -1544,24582 -5756,44208 -9408,43832 -3652,-376 -5359,-20612 -3815,-45197 2014,-32058 -1569,-29355 403,-60730zm4272 3528c837,-13319 2432,-14291 3132,-25448 662,-10529 2329,-18953 3721,-18808 1394,144 1988,8797 1326,19328 -374,5938 1155,8363 349,21197 -706,11228 -1552,20413 -2375,33526 -742,11798 -2763,21213 -4515,21033 -1752,-182 -2572,-9889 -1831,-21687 967,-15382 -753,-14086 193,-29141zm24166 200827c4395,-70006 13729,-75010 17413,-133661 3478,-55354 12935,-99546 21128,-98700 8191,843 12014,46405 8538,101760 -1961,31216 7103,44064 2866,111512 -3707,59024 -8323,107295 -12651,176216 -3895,62005 -15400,111413 -25699,110349 -10298,-1060 -15489,-52188 -11595,-114195 5079,-80862 -4972,-74147 0,-153281zm5480 4089c3362,-53531 10498,-57354 13313,-102202 2660,-42324 9893,-76117 16156,-75471 6263,646 9186,35484 6528,77810 -1499,23870 5431,33695 2192,85267 -2833,45133 -6363,82041 -9673,134740 -2977,47411 -11775,85190 -19649,84377 -7875,-812 -11845,-39905 -8867,-87318 3883,-61828 -3801,-56695 0,-117203zm4686 3500c2479,-39435 7735,-42253 9810,-75292 1959,-31179 7287,-56071 11902,-55596 4613,477 6767,26141 4808,57319 -1104,17585 4002,24823 1616,62814 -2089,33247 -4689,60437 -7128,99259 -2193,34929 -8673,62756 -14474,62159 -5802,-599 -8727,-29398 -6534,-64324 2863,-45550 -2798,-41767 0,-86339zm4901 3001c1742,-27757 5068,-29780 6528,-53034 1379,-21946 4849,-39495 7756,-39196 2902,299 4140,18335 2761,40282 -778,12375 2405,17429 725,44170 -1468,23402 -3233,42547 -4950,69872 -1543,24586 -5755,44209 -9407,43832 -3648,-375 -5359,-20611 -3815,-45198 2016,-32057 -1570,-29355 402,-60728zm4273 3529c837,-13321 2433,-14290 3133,-25449 661,-10530 2326,-18952 3720,-18808 1395,145 1989,8798 1326,19329 -372,5939 1154,8363 349,21194 -706,11230 -1552,20417 -2375,33528 -742,11798 -2763,21213 -4516,21033 -1749,-180 -2571,-9889 -1830,-21686 967,-15385 -753,-14088 193,-29141zm16037 503089c4902,-78039 -3642,-85570 464,-150950 3875,-61706 376,-112415 -7816,-113258 -8190,-846 -17974,48492 -21849,110198 -2187,34800 -12822,46983 -17545,122169 -4132,65797 -5950,119948 -10774,196777 -4342,69121 487,126014 10785,127077 10299,1062 22168,-54109 26508,-123231 5661,-90138 14688,-80569 20227,-168782zm-5944 3317c3750,-59672 -2786,-65431 353,-115423 2965,-47185 288,-85956 -5974,-86601 -6265,-646 -13745,37080 -16709,84262 -1671,26607 -9803,35924 -13414,93415 -3161,50306 -4550,91714 -8239,150461 -3320,52852 373,96356 8247,97166 7874,815 16951,-41374 20267,-94227 4331,-68925 11233,-61605 15469,-129053zm-5086 2833c2760,-43957 -2052,-48199 260,-85025 2184,-34761 213,-63322 -4402,-63798 -4614,-477 -10124,27316 -12308,62075 -1228,19599 -7221,26464 -9881,68813 -2328,37062 -3351,67566 -6071,110843 -2443,38932 276,70981 6077,71580 5802,599 12485,-30479 14931,-69415 3188,-50773 8273,-45382 11394,-95073zm-5229 2246c1944,-30941 -1070,-33889 559,-59809 1538,-24466 428,-44541 -2475,-44841 -2907,-300 -6506,19289 -8042,43754 -865,13799 -4672,18673 -6544,48482 -1639,26085 -2426,47549 -4338,78011 -1721,27404 -158,49925 3494,50303 3652,376 8006,-21536 9727,-48941 2245,-35737 5422,-31986 7619,-66959zm-4681 2962c932,-14850 -513,-16263 269,-28705 738,-11735 205,-21370 -1188,-21515 -1394,-143 -3121,9257 -3859,20998 -415,6620 -2241,8958 -3139,23262 -787,12518 -1164,22816 -2083,37433 -826,13151 -76,23956 1678,24138 1752,181 3842,-10333 4666,-23483 1078,-17149 2603,-15348 3656,-32128zm-4158 -808721c-4253,55284 -705,60758 -4267,107076 -3365,43713 -3194,79740 380,80464 3573,727 9197,-34122 12560,-77837 1896,-24651 6894,-33133 10992,-86395 3584,-46614 5841,-84998 10029,-139425 3767,-48969 3180,-89401 -1314,-90313 -4493,-912 -11188,38043 -14956,87011 -4912,63856 -8617,56927 -13424,119419zm2698 -2261c-3251,42273 -537,46459 -3261,81876 -2573,33424 -2442,60970 290,61524 2732,555 7031,-26094 9604,-59517 1450,-18848 5271,-25333 8403,-66059 2744,-35644 4468,-64993 7670,-106611 2880,-37440 2432,-68359 -1003,-69057 -3436,-697 -8555,29093 -11436,66533 -3756,48827 -6590,43531 -10267,91311zm2308 -1933c-2393,31141 -395,34224 -2401,60313 -1896,24626 -1800,44917 212,45325 2013,410 5183,-19219 7077,-43845 1067,-13885 3882,-18663 6190,-48665 2022,-26255 3292,-47877 5649,-78535 2124,-27582 1793,-50356 -739,-50871 -2529,-514 -6302,21428 -8424,49011 -2769,35971 -4855,32066 -7564,67267zm2358 -1514c-1686,21923 -443,24059 -1857,42424 -1333,17331 -1387,31588 -119,31847 1266,257 3374,-13587 4708,-30917 752,-9775 2554,-13175 4179,-34291 1420,-18480 2344,-33694 4003,-55272 1495,-19414 1416,-35416 -178,-35740 -1594,-323 -4095,15155 -5589,34568 -1947,25318 -3241,22607 -5147,47381zm-78604 7142c-4254,55284 -705,60759 -4268,107075 -3364,43716 -3192,79741 381,80466 3572,726 9197,-34123 12561,-77841 1894,-24649 6892,-33130 10991,-86392 3584,-46613 5842,-85000 10028,-139426 3767,-48967 3180,-89400 -1312,-90314 -4492,-912 -11188,38043 -14956,87014 -4913,63855 -8618,56926 -13425,119418zm2700 -2261c-3253,42274 -539,46460 -3264,81874 -2572,33427 -2442,60971 290,61527 2733,555 7032,-26094 9603,-59519 1451,-18849 5274,-25333 8406,-66061 2742,-35640 4467,-64990 7668,-106608 2882,-37442 2432,-68359 -1003,-69054 -3434,-699 -8554,29089 -11436,66531 -3756,48826 -6589,43528 -10264,91310zm2308 -1934c-2397,31142 -398,34226 -2404,60315 -1894,24623 -1799,44915 213,45325 2015,409 5182,-19222 7076,-43846 1068,-13885 3883,-18662 6193,-48663 2018,-26258 3290,-47878 5647,-78536 2123,-27585 1793,-50358 -740,-50871 -2528,-515 -6302,21428 -8422,49010 -2769,35969 -4854,32067 -7563,67266zm2356 -1509c-1687,21920 -443,24055 -1858,42418 -1331,17332 -1385,31589 -119,31847 1268,259 3375,-13582 4709,-30917 752,-9772 2554,-13172 4178,-34288 1421,-18480 2345,-33696 4006,-55275 1492,-19414 1414,-35413 -180,-35737 -1594,-325 -4095,15152 -5588,34569 -1947,25315 -3242,22604 -5148,47383zm1449 -1380c-1091,14179 -287,15561 -1200,27439 -863,11210 -897,20432 -77,20600 819,165 2180,-8787 3045,-19998 486,-6322 1650,-8520 2702,-22178 920,-11953 1516,-21794 2590,-35752 967,-12557 913,-22907 -115,-23113 -1031,-209 -2649,9801 -3614,22358 -1261,16376 -2096,14620 -3331,30644zm-2119 1479c-1771,23011 -294,25291 -1777,44570 -1401,18196 -1329,33194 159,33495 1487,301 3828,-14206 5227,-32402 789,-10261 2870,-13791 4576,-35962 1494,-19403 2432,-35383 4175,-58036 1567,-20384 1323,-37216 -545,-37595 -1870,-380 -4657,15838 -6226,36219 -2044,26582 -3587,23697 -5589,49711zm-2180 1825c-2580,33524 -428,36840 -2587,64925 -2040,26507 -1937,48352 229,48793 2168,438 5578,-20692 7616,-47199 1152,-14949 4181,-20090 6666,-52387 2175,-28262 3542,-51540 6081,-84543 2284,-29689 1928,-54207 -796,-54761 -2723,-553 -6785,23068 -9068,52760 -2979,38721 -5225,34520 -8141,72412zm-2547 2133c-3526,45804 -585,50339 -3536,88712 -2788,36218 -2646,66066 314,66669 2962,600 7621,-28275 10407,-64491 1570,-20425 5712,-27451 9107,-71580 2970,-38618 4841,-70421 8308,-115514 3121,-40569 2635,-74070 -1088,-74827 -3721,-754 -9269,31522 -12390,72090 -4070,52908 -7139,47167 -11122,98941zm78087 -6870c-1091,14177 -288,15559 -1201,27438 -863,11210 -897,20432 -77,20598 820,168 2182,-8784 3045,-19995 486,-6324 1651,-8520 2701,-22179 922,-11953 1516,-21794 2593,-35750 964,-12558 912,-22905 -118,-23115 -1030,-208 -2647,9800 -3614,22359 -1261,16372 -2097,14621 -3329,30644zm-2122 1478c-1767,23014 -290,25291 -1774,44571 -1400,18196 -1330,33193 158,33493 1489,303 3830,-14205 5228,-32400 790,-10263 2869,-13791 4576,-35964 1491,-19400 2431,-35381 4175,-58035 1568,-20383 1323,-37214 -546,-37594 -1872,-380 -4658,15836 -6227,36220 -2045,26579 -3587,23696 -5590,49709zm-2177 1824c-2579,33524 -428,36844 -2588,64927 -2041,26506 -1938,48352 231,48791 2165,439 5577,-20693 7615,-47198 1150,-14946 4180,-20091 6665,-52388 2174,-28261 3541,-51538 6081,-84540 2284,-29692 1928,-54210 -796,-54762 -2722,-552 -6783,23069 -9068,52759 -2979,38721 -5225,34519 -8140,72411zm-2548 2134c-3524,45804 -583,50340 -3537,88712 -2787,36219 -2645,66068 316,66668 2961,601 7621,-28274 10404,-64490 1573,-20424 5713,-27451 9109,-71581 2971,-38617 4840,-70421 8308,-115514 3121,-40569 2635,-74070 -1087,-74825 -3722,-755 -9270,31521 -12389,72091 -4071,52903 -7141,47165 -11124,98939zm3692 809417c1257,-20013 -689,-21920 363,-38685 994,-15823 278,-28811 -1601,-29004 -1878,-195 -4208,12477 -5202,28300 -560,8925 -3021,12079 -4232,31359 -1059,16872 -1568,30752 -2805,50453 -1113,17729 -102,32293 2259,32535 2362,247 5180,-13926 6294,-31652 1450,-23114 3506,-20686 4924,-43306zm4696 -2185c2041,-32483 -1517,-35619 192,-62831 1613,-25690 157,-46796 -3253,-47148 -3410,-351 -7483,20186 -9095,45873 -910,14482 -5337,19554 -7303,50851 -1719,27390 -2476,49931 -4485,81911 -1807,28773 202,52455 4490,52896 4287,442 9227,-22522 11035,-51296 2356,-37519 6113,-33535 8419,-70256zm4801 -2677c2973,-47321 -2208,-51885 280,-91530 2351,-37418 230,-68164 -4738,-68677 -4967,-512 -10899,29405 -13249,66822 -1326,21100 -7776,28489 -10638,74077 -2507,39897 -3607,72733 -6534,119318 -2632,41912 296,76411 6541,77055 6243,645 13439,-32810 16073,-74722 3433,-54658 8906,-48854 12265,-102343zm5611 -3129c4061,-64656 -3019,-70895 384,-125063 3211,-51126 311,-93138 -6475,-93837 -6787,-699 -14892,40180 -18103,91303 -1812,28828 -10625,38926 -14536,101216 -3423,54515 -4929,99378 -8928,163031 -3595,57267 406,104405 8937,105286 8533,880 18366,-44833 21964,-102099 4690,-74681 12168,-66752 16757,-139837zm-13077 -506637c1127,-17953 3276,-19263 4222,-34303 891,-14195 3137,-25546 5017,-25353 1877,194 2677,11861 1786,26055 -503,8003 1555,11273 469,28570 -950,15136 -2092,27516 -3202,45192 -999,15902 -3723,28593 -6084,28350 -2361,-245 -3466,-13331 -2468,-29233 1302,-20735 -1014,-18987 260,-39278zm-4379 -2846c1830,-29141 5716,-31222 7250,-55639 1447,-23041 5384,-41435 8793,-41083 3409,352 5002,19317 3554,42358 -815,12995 2958,18343 1195,46418 -1545,24570 -3465,44662 -5267,73350 -1622,25813 -6410,46378 -10698,45934 -4287,-441 -6447,-21722 -4827,-47532 2116,-33661 -2068,-30866 0,-63806zm-4425 -3302c2665,-42449 8325,-45483 10558,-81046 2109,-33565 7844,-60362 12811,-59849 4969,512 7286,28137 5178,61704 -1191,18926 4307,26718 1737,67614 -2247,35792 -5046,65061 -7669,106851 -2365,37599 -9340,67557 -15584,66913 -6245,-642 -9393,-31646 -7031,-69243 3079,-49031 -3014,-44961 0,-92944zm-5173 -3859c3643,-58004 11375,-62147 14427,-110741 2882,-45861 10718,-82473 17506,-81774 6787,699 9954,38448 7072,84309 -1625,25864 5885,36510 2376,92391 -3071,48900 -6896,88893 -10482,145994 -3226,51375 -12759,92307 -21293,91426 -8531,-880 -12832,-43238 -9606,-94612 4207,-66994 -4117,-61431 0,-126993zm-29529 -204938c1126,-17955 3278,-19263 4222,-34303 890,-14194 3137,-25545 5015,-25353 1880,195 2678,11859 1788,26056 -503,8005 1555,11270 467,28567 -950,15137 -2091,27520 -3200,45195 -1000,15897 -3723,28592 -6084,28347 -2363,-243 -3467,-13328 -2467,-29232 1301,-20734 -1016,-18985 259,-39277zm-4378 -2846c1829,-29140 5714,-31223 7248,-55638 1445,-23041 5386,-41436 8795,-41084 3409,349 5001,19315 3554,42359 -817,12992 2957,18342 1193,46418 -1544,24568 -3464,44662 -5267,73352 -1622,25809 -6409,46373 -10697,45931 -4287,-441 -6448,-21723 -4826,-47532 2114,-33662 -2069,-30866 0,-63806zm-4426 -3302c2665,-42450 8324,-45485 10558,-81046 2110,-33567 7844,-60362 12812,-59848 4966,512 7282,28136 5176,61701 -1190,18929 4307,26720 1739,67618 -2249,35787 -5048,65058 -7672,106848 -2361,37601 -9338,67556 -15584,66913 -6242,-642 -9392,-31644 -7029,-69242 3079,-49031 -3014,-44961 0,-92944zm-5173 -3859c3643,-58002 11376,-62149 14427,-110740 2882,-45863 10718,-82475 17505,-81774 6788,699 9954,38445 7073,84309 -1624,25863 5886,36508 2376,92388 -3073,48902 -6897,88895 -10482,145997 -3228,51374 -12759,92306 -21293,91425 -8530,-879 -12833,-43239 -9606,-94611 4209,-66993 -4117,-61432 0,-126994zm-1534 639870c1856,-29542 4069,-31831 5622,-56583 1467,-23359 4181,-42140 6058,-41945 1880,194 2213,19287 745,42647 -828,13173 1107,18400 -680,46865 -1565,24907 -3209,45308 -5035,74393 -1644,26166 -4890,47180 -7253,46936 -2360,-245 -2943,-21651 -1300,-47818 2145,-34125 -252,-31099 1843,-64495zm-4281 -4378c3013,-47957 6998,-51628 9520,-91806 2380,-37920 7077,-68372 10486,-68021 3410,352 4244,31376 1863,69295 -1342,21383 2231,29911 -671,76114 -2539,40430 -5279,73539 -8246,120750 -2666,42472 -8305,76549 -12590,76105 -4288,-441 -5600,-35233 -2932,-77707 3478,-55387 -833,-50524 2570,-104730zm-4312 -5128c4388,-69855 10195,-75208 13870,-133732 3468,-55237 10308,-99599 15275,-99088 4967,514 6181,45706 2712,100942 -1957,31146 3249,43573 -980,110875 -3698,58896 -7686,107123 -12008,175897 -3885,61871 -12098,111506 -18342,110860 -6244,-643 -8156,-51322 -4270,-113194 5066,-80683 -1216,-73600 3743,-152560zm-5038 -5992c5995,-95450 13926,-102764 18951,-182729 4738,-75473 14084,-136086 20869,-135388 6788,702 8447,62450 3707,137923 -2674,42559 4439,59540 -1334,151495 -5056,80474 -10508,146372 -16410,240338 -5309,84540 -16530,152359 -25064,151480 -8531,-881 -11144,-70126 -5834,-154666 6923,-110245 -1661,-100565 5115,-208453zm-28824 -124891c1857,-29542 4067,-31832 5621,-56583 1467,-23360 4180,-42139 6057,-41945 1881,193 2213,19289 747,42646 -828,13174 1108,18402 -681,46864 -1564,24907 -3208,45308 -5034,74393 -1645,26169 -4891,47182 -7252,46938 -2363,-243 -2944,-21653 -1301,-47820 2143,-34122 -254,-31096 1843,-64493zm-4282 -4377c3013,-47954 6997,-51632 9519,-91808 2383,-37917 7077,-68372 10487,-68019 3409,352 4244,31376 1863,69294 -1343,21382 2230,29911 -673,76113 -2538,40431 -5278,73541 -8243,120752 -2667,42473 -8304,76546 -12592,76104 -4286,-443 -5598,-35234 -2932,-77706 3479,-55391 -834,-50526 2571,-104730zm-4311 -5130c4387,-69853 10191,-75209 13867,-133733 3469,-55237 10309,-99598 15277,-99085 4967,510 6181,45704 2711,100941 -1957,31147 3249,43573 -979,110875 -3699,58896 -7687,107124 -12007,175897 -3885,61869 -12098,111506 -18343,110862 -6243,-644 -8156,-51324 -4271,-113196 5068,-80686 -1216,-73600 3745,-152561zm-5038 -5992c5995,-95448 13926,-102763 18948,-182727 4740,-75472 14086,-136087 20873,-135388 6787,699 8446,62450 3706,137921 -2674,42560 4437,59540 -1338,151495 -5054,80475 -10506,146371 -16409,240337 -5309,84542 -16530,152361 -25060,151482 -8534,-881 -11146,-70128 -5837,-154665 6924,-110245 -1659,-100563 5117,-208455zm3415 -518871c1855,-29543 4068,-31834 5622,-56585 1466,-23357 4179,-42139 6057,-41946 1878,193 2212,19289 745,42650 -827,13173 1109,18399 -679,46864 -1564,24904 -3209,45309 -5036,74391 -1643,26168 -4891,47182 -7253,46938 -2361,-243 -2942,-21653 -1298,-47819 2141,-34124 -257,-31099 1842,-64493zm-4282 -4380c3011,-47956 6996,-51628 9520,-91805 2382,-37917 7077,-68372 10488,-68021 3409,352 4242,31376 1860,69294 -1343,21381 2231,29913 -671,76114 -2541,40430 -5280,73540 -8244,120752 -2667,42472 -8304,76547 -12592,76104 -4286,-442 -5598,-35233 -2931,-77706 3480,-55390 -835,-50527 2570,-104732zm-4312 -5128c4389,-69855 10192,-75210 13868,-133734 3471,-55235 10309,-99595 15275,-99084 4968,512 6184,45703 2714,100943 -1956,31147 3249,43570 -978,110871 -3700,58899 -7689,107124 -12010,175898 -3885,61871 -12097,111506 -18342,110864 -6245,-646 -8156,-51324 -4271,-113197 5069,-80686 -1215,-73601 3744,-152561zm-5038 -5993c5995,-95448 13927,-102762 18949,-182726 4740,-75473 14085,-136089 20873,-135390 6787,702 8446,62452 3704,137924 -2672,42559 4440,59538 -1336,151495 -5055,80474 -10506,146370 -16408,240338 -5309,84540 -16530,152361 -25061,151480 -8532,-880 -11147,-70126 -5836,-154666 6924,-110246 -1661,-100565 5115,-208455zm-38672 861753c1855,-29543 4067,-31833 5621,-56583 1468,-23361 4180,-42139 6058,-41946 1880,194 2213,19287 745,42645 -827,13177 1107,18402 -680,46866 -1564,24908 -3209,45309 -5035,74393 -1644,26169 -4890,47181 -7251,46940 -2363,-246 -2944,-21654 -1301,-47822 2144,-34122 -253,-31099 1843,-64493zm-4282 -4380c3013,-47954 6998,-51628 9520,-91804 2382,-37919 7077,-68374 10487,-68022 3409,352 4244,31376 1862,69295 -1344,21383 2230,29913 -673,76113 -2537,40432 -5277,73542 -8243,120751 -2667,42474 -8305,76550 -12592,76107 -4286,-444 -5599,-35235 -2931,-77709 3479,-55387 -833,-50523 2570,-104731zm-4311 -5126c4388,-69857 10192,-75210 13868,-133734 3467,-55237 10307,-99597 15276,-99086 4967,514 6182,45706 2711,100941 -1956,31148 3250,43575 -978,110875 -3699,58896 -7689,107122 -12007,175896 -3887,61871 -12099,111506 -18343,110862 -6245,-643 -8158,-51321 -4271,-113193 5066,-80688 -1215,-73603 3744,-152561zm-5038 -5992c5994,-95448 13926,-102765 18948,-182729 4740,-75470 14085,-136087 20872,-135388 6787,701 8448,62450 3706,137922 -2673,42560 4439,59540 -1337,151495 -5053,80475 -10505,146372 -16409,240339 -5307,84540 -16530,152360 -25062,151481 -8532,-882 -11143,-70128 -5835,-154668 6925,-110245 -1660,-100564 5117,-208452zm4609 -498752c1854,-29544 4065,-31835 5621,-56585 1467,-23359 4178,-42141 6057,-41946 1878,194 2212,19289 745,42648 -827,13175 1109,18400 -680,46863 -1562,24910 -3207,45311 -5035,74393 -1644,26167 -4890,47181 -7253,46939 -2361,-243 -2943,-21653 -1300,-47820 2144,-34123 -252,-31100 1845,-64492zm-4283 -4379c3011,-47957 6997,-51632 9521,-91806 2381,-37920 7076,-68372 10487,-68022 3409,352 4243,31375 1861,69294 -1344,21382 2230,29913 -671,76114 -2541,40432 -5280,73538 -8244,120751 -2669,42473 -8306,76547 -12592,76105 -4286,-441 -5600,-35231 -2931,-77705 3478,-55389 -836,-50528 2569,-104731zm-4311 -5129c4387,-69857 10192,-75211 13867,-133733 3468,-55236 10309,-99598 15276,-99086 4969,513 6182,45704 2712,100941 -1956,31148 3249,43573 -977,110875 -3700,58898 -7690,107123 -12009,175896 -3885,61870 -12100,111506 -18342,110862 -6244,-643 -8158,-51322 -4271,-113194 5067,-80686 -1215,-73601 3744,-152561zm-5039 -5994c5997,-95447 13928,-102764 18949,-182726 4741,-75472 14086,-136088 20874,-135388 6785,700 8444,62451 3703,137923 -2672,42559 4440,59537 -1335,151495 -5055,80471 -10506,146370 -16408,240334 -5310,84543 -16531,152362 -25064,151483 -8533,-879 -11145,-70125 -5835,-154665 6926,-110246 -1659,-100566 5116,-208456zm5760 -518556c1855,-29542 4069,-31833 5622,-56584 1468,-23360 4180,-42142 6058,-41947 1879,194 2210,19287 744,42648 -828,13175 1108,18400 -679,46864 -1565,24910 -3210,45308 -5037,74394 -1642,26166 -4889,47179 -7251,46936 -2361,-244 -2943,-21652 -1300,-47819 2143,-34126 -256,-31099 1843,-64492zm-4282 -4381c3014,-47955 6997,-51628 9522,-91806 2381,-37918 7076,-68369 10484,-68018 3411,351 4245,31373 1862,69293 -1342,21380 2231,29912 -670,76114 -2540,40430 -5278,73540 -8244,120751 -2666,42473 -8307,76548 -12591,76105 -4288,-442 -5600,-35232 -2933,-77708 3480,-55387 -835,-50524 2570,-104731zm-4311 -5126c4387,-69857 10191,-75210 13868,-133734 3471,-55237 10308,-99599 15275,-99085 4968,511 6182,45703 2713,100939 -1956,31150 3249,43575 -978,110874 -3699,58896 -7689,107125 -12009,175897 -3887,61872 -12099,111507 -18343,110862 -6244,-644 -8156,-51320 -4270,-113192 5066,-80687 -1215,-73602 3744,-152561zm-5037 -5994c5994,-95448 13926,-102761 18947,-182727 4740,-75473 14085,-136087 20871,-135388 6789,701 8446,62451 3708,137923 -2675,42559 4439,59538 -1337,151493 -5054,80477 -10505,146371 -16407,240341 -5311,84537 -16530,152357 -25064,151479 -8531,-881 -11145,-70125 -5834,-154668 6924,-110246 -1661,-100564 5116,-208453zm-40404 837320c1856,-29543 4068,-31834 5622,-56584 1467,-23359 4178,-42140 6056,-41947 1880,194 2214,19289 747,42650 -827,13174 1108,18400 -680,46861 -1564,24911 -3208,45311 -5035,74396 -1644,26166 -4891,47180 -7253,46936 -2361,-243 -2943,-21653 -1298,-47820 2141,-34123 -256,-31098 1841,-64492zm-4281 -4380c3010,-47955 6997,-51630 9519,-91805 2382,-37920 7077,-68372 10487,-68021 3409,352 4243,31376 1863,69293 -1344,21382 2228,29913 -674,76115 -2537,40433 -5277,73539 -8244,120752 -2666,42471 -8304,76545 -12590,76104 -4286,-442 -5600,-35232 -2932,-77707 3479,-55389 -833,-50526 2571,-104731zm-4313 -5126c4388,-69859 10193,-75211 13869,-133735 3468,-55235 10309,-99598 15276,-99086 4968,513 6182,45704 2712,100941 -1957,31150 3249,43574 -979,110875 -3700,58896 -7690,107124 -12007,175896 -3887,61873 -12098,111507 -18343,110861 -6245,-641 -8158,-51321 -4272,-113193 5069,-80687 -1215,-73601 3744,-152559zm-5037 -5996c5996,-95447 13926,-102761 18947,-182727 4742,-75471 14087,-136087 20875,-135385 6787,701 8445,62450 3702,137921 -2670,42559 4440,59537 -1334,151495 -5054,80474 -10506,146372 -16409,240337 -5308,84539 -16531,152359 -25062,151481 -8533,-879 -11145,-70125 -5835,-154667 6924,-110245 -1661,-100565 5116,-208455zm-38175 398803c1857,-29543 -41,-32257 1512,-57008 1469,-23360 1135,-42454 -744,-42648 -1878,-194 -4589,18587 -6057,41948 -828,13173 -3391,17937 -5179,46399 -1565,24908 -2485,45382 -4314,74466 -1643,26168 -1061,47578 1300,47821 2362,243 5609,-20769 7253,-46938 2142,-34122 4131,-30647 6229,-64040zm4774 -3446c3011,-47953 -462,-52400 2060,-92577 2382,-37918 1548,-68942 -1862,-69292 -3409,-352 -8107,30101 -10486,68020 -1344,21383 -5936,29071 -8838,75273 -2539,40433 -3967,73675 -6931,120886 -2667,42472 -1357,77264 2930,77706 4287,440 9925,-33632 12592,-76107 3480,-55389 7130,-49702 10535,-103909zm4896 -4180c4386,-69853 -675,-76328 3000,-134852 3470,-55237 2256,-100427 -2711,-100941 -4969,-511 -11806,43848 -15275,99087 -1957,31148 -8646,42348 -12873,109648 -3700,58897 -5781,107320 -10101,176094 -3885,61869 -1973,112548 4272,113192 6244,646 14457,-48990 18342,-110860 5068,-80686 10385,-72406 15346,-151368zm5720 -4882c5996,-95447 -921,-104296 4101,-184257 4742,-75475 3082,-137222 -3705,-137922 -6788,-703 -16132,59914 -20873,135387 -2672,42561 -11812,57862 -17587,149819 -5055,80472 -7899,146640 -13801,240607 -5307,84539 -2696,153784 5836,154663 8531,881 19754,-66937 25063,-151477 6925,-110246 14191,-98928 20966,-206820zm37573 -818008c1856,-29545 -43,-32257 1513,-57009 1466,-23361 1133,-42453 -745,-42648 -1880,-192 -4592,18587 -6059,41948 -827,13173 -3390,17936 -5178,46400 -1563,24908 -2486,45382 -4313,74465 -1645,26168 -1061,47578 1300,47820 2362,245 5607,-20768 7251,-46935 2144,-34124 4133,-30648 6231,-64041zm4773 -3445c3011,-47956 -462,-52402 2061,-92577 2380,-37917 1547,-68941 -1864,-69293 -3409,-352 -8103,30101 -10486,68019 -1342,21383 -5933,29072 -8837,75272 -2539,40433 -3967,73676 -6932,120887 -2668,42473 -1356,77265 2931,77706 4287,442 9925,-33633 12593,-76106 3478,-55390 7130,-49703 10534,-103908zm4896 -4181c4387,-69855 -675,-76330 3001,-134853 3469,-55235 2254,-100427 -2712,-100940 -4967,-513 -11807,43849 -15276,99087 -1957,31148 -8646,42345 -12872,109647 -3699,58896 -5778,107321 -10099,176093 -3886,61872 -1974,112551 4269,113193 6246,645 14458,-48989 18344,-110861 5069,-80686 10385,-72405 15345,-151366zm5719 -4884c5996,-95445 -919,-104294 4104,-184257 4739,-75471 3079,-137222 -3707,-137921 -6789,-700 -16131,59916 -20872,135387 -2674,42560 -11812,57862 -17588,149819 -5055,80472 -7898,146639 -13800,240607 -5309,84541 -2698,153786 5835,154666 8532,882 19754,-66940 25064,-151480 6923,-110245 14189,-98930 20964,-206821zm-41440 -297603c1856,-29542 -42,-32259 1513,-57008 1467,-23358 1134,-42454 -746,-42646 -1878,-196 -4590,18585 -6056,41945 -829,13173 -3391,17938 -5179,46398 -1563,24911 -2487,45386 -4313,74471 -1644,26167 -1062,47575 1300,47821 2361,241 5608,-20773 7252,-46941 2142,-34123 4132,-30647 6229,-64040zm4772 -3446c3013,-47954 -462,-52397 2061,-92575 2383,-37918 1548,-68942 -1861,-69293 -3411,-352 -8105,30101 -10487,68021 -1343,21381 -5935,29070 -8837,75272 -2539,40432 -3967,73674 -6933,120886 -2667,42473 -1354,77263 2933,77704 4286,442 9922,-33630 12591,-76103 3480,-55391 7130,-49706 10533,-103912zm4896 -4177c4389,-69857 -673,-76329 3002,-134855 3469,-55235 2255,-100429 -2712,-100940 -4967,-510 -11806,43849 -15276,99084 -1957,31151 -8645,42351 -12870,109650 -3699,58896 -5783,107320 -10100,176093 -3887,61870 -1974,112551 4270,113196 6244,643 14457,-48992 18342,-110865 5068,-80684 10384,-72404 15344,-151363zm5722 -4883c5996,-95449 -921,-104295 4102,-184260 4740,-75472 3080,-137222 -3707,-137922 -6788,-699 -16132,59915 -20872,135389 -2673,42559 -11811,57860 -17589,149818 -5054,80475 -7896,146640 -13797,240607 -5311,84540 -2698,153786 5833,154666 8533,881 19755,-66941 25065,-151480 6924,-110245 14189,-98929 20965,-206818zm-62195 823823c1855,-29543 -43,-32257 1512,-57007 1467,-23359 1134,-42453 -744,-42648 -1878,-193 -4592,18587 -6058,41948 -828,13173 -3390,17937 -5179,46398 -1564,24910 -2485,45386 -4312,74468 -1643,26166 -1063,47577 1300,47820 2361,243 5608,-20769 7251,-46938 2144,-34122 4131,-30646 6230,-64041zm4772 -3445c3013,-47954 -461,-52399 2062,-92574 2382,-37920 1548,-68944 -1862,-69294 -3412,-353 -8106,30101 -10488,68021 -1342,21381 -5934,29072 -8835,75270 -2540,40432 -3968,73677 -6935,120886 -2667,42474 -1354,77264 2934,77707 4286,442 9923,-33631 12592,-76107 3478,-55388 7129,-49703 10532,-103909zm4896 -4178c4388,-69855 -674,-76331 3001,-134855 3469,-55236 2255,-100428 -2712,-100940 -4967,-513 -11806,43849 -15273,99086 -1958,31150 -8648,42349 -12873,109647 -3699,58898 -5781,107322 -10099,176095 -3886,61871 -1974,112550 4269,113194 6245,643 14459,-48991 18343,-110862 5068,-80685 10385,-72404 15344,-151365zm5723 -4881c5994,-95451 -921,-104297 4101,-184263 4738,-75472 3080,-137220 -3708,-137922 -6786,-696 -16131,59916 -20870,135391 -2675,42559 -11813,57861 -17591,149819 -5052,80473 -7896,146639 -13797,240604 -5309,84543 -2697,153787 5834,154668 8533,879 19754,-66940 25064,-151480 6924,-110245 14190,-98930 20967,-206817zm-39990 -268635c1856,-29543 -41,-32258 1513,-57009 1468,-23358 1134,-42454 -746,-42645 -1877,-195 -4589,18585 -6057,41945 -828,13172 -3389,17936 -5178,46399 -1565,24908 -2486,45383 -4313,74468 -1644,26169 -1062,47576 1302,47819 2358,245 5606,-20772 7251,-46938 2141,-34122 4131,-30647 6228,-64039zm4773 -3447c3014,-47954 -462,-52397 2061,-92575 2382,-37919 1547,-68941 -1863,-69293 -3409,-349 -8104,30101 -10485,68022 -1343,21379 -5934,29069 -8837,75271 -2540,40430 -3967,73674 -6932,120886 -2667,42474 -1356,77263 2930,77705 4287,442 9925,-33631 12592,-76106 3478,-55389 7130,-49703 10534,-103910zm4897 -4177c4386,-69856 -677,-76332 3001,-134855 3469,-55234 2255,-100428 -2712,-100941 -4968,-512 -11806,43851 -15275,99085 -1957,31151 -8647,42348 -12874,109649 -3700,58898 -5779,107322 -10100,176094 -3885,61871 -1973,112551 4272,113193 6243,645 14457,-48989 18342,-110862 5068,-80685 10385,-72405 15346,-151363zm5721 -4884c5995,-95449 -922,-104294 4101,-184260 4739,-75471 3082,-137221 -3706,-137921 -6787,-699 -16133,59915 -20872,135389 -2673,42559 -11814,57860 -17588,149816 -5054,80475 -7899,146641 -13800,240608 -5309,84541 -2698,153788 5835,154667 8531,878 19754,-66940 25063,-151480 6926,-110246 14191,-98931 20967,-206819z"/>
    </g>
   </g>
   <path class="fil1 str2" d="M1016 14924l0 1054982c0,7649 6258,13907 13908,13907l186863 0c7649,0 13907,-6258 13907,-13907l0 -1054982c0,-7650 -6258,-13908 -13907,-13908l-186863 0c-7650,0 -13908,6258 -13908,13908z"/>
   <path class="fil4" d="M12095 27035l0 1030758c0,6860 5612,12471 12472,12471l167575 0c6860,0 12473,-5611 12473,-12471l0 -1030758c0,-6861 -5613,-12472 -12473,-12472l-167575 0c-6860,0 -12472,5611 -12472,12472z"/>
   <g style="clip-path:url(#id3)">
    <g>
     <path id="1" class="fil5" d="M6327 623439c0,-112688 -8063,-122226 -8063,-216632 0,-89102 -5973,-161331 -13344,-161331 -7369,0 -13344,72229 -13344,161331 0,50246 -8824,69304 -8824,177864 0,95008 1417,172965 1417,283902 0,99808 7511,180715 16778,180715 9264,0 16774,-80907 16774,-180715 0,-130154 8606,-117761 8606,-245134zm-5128 5634c0,-86162 -6164,-93456 -6164,-165641 0,-68131 -4569,-123361 -10204,-123361 -5635,0 -10204,55230 -10204,123361 0,38417 -6747,52989 -6747,135998 0,72646 1084,132256 1084,217080 0,76316 5742,138182 12828,138182 7085,0 12828,-61866 12828,-138182 0,-99521 6579,-90044 6579,-187437zm-4387 4821c0,-63474 -4542,-68848 -4542,-122023 0,-50192 -3364,-90875 -7516,-90875 -4151,0 -7517,40683 -7517,90875 0,28302 -4970,39036 -4970,100186 0,53516 797,97429 797,159916 0,56221 4232,101795 9452,101795 5217,0 9449,-45574 9449,-101795 0,-73314 4847,-66330 4847,-138079zm-4548 3994c0,-44676 -2859,-48459 -2859,-85889 0,-35326 -2117,-63966 -4730,-63966 -2614,0 -4732,28640 -4732,63966 0,19922 -3126,27476 -3126,70520 0,37668 499,68575 499,112560 0,39571 2663,71650 5951,71650 3282,0 5945,-32079 5945,-71650 0,-51604 3052,-46689 3052,-97191zm-4017 4939c0,-21439 -1373,-23255 -1373,-41215 0,-16951 -1016,-30693 -2269,-30693 -1254,0 -2270,13742 -2270,30693 0,9559 -1502,13185 -1502,33839 0,18074 241,32906 241,54010 0,18989 1279,34382 2854,34382 1577,0 2854,-15393 2854,-34382 0,-24762 1465,-22402 1465,-46634zm55853 251369c0,-112686 -8061,-122225 -8061,-216632 0,-89100 -5975,-161332 -13345,-161332 -7371,0 -13345,72232 -13345,161332 0,50247 -8824,69302 -8824,177866 0,95006 1417,172963 1417,283899 0,99808 7509,180716 16775,180716 9265,0 16777,-80908 16777,-180716 0,-130154 8606,-117759 8606,-245133zm-5128 5634c0,-86160 -6166,-93457 -6166,-165641 0,-68130 -4567,-123362 -10203,-123362 -5635,0 -10203,55232 -10203,123362 0,38420 -6746,52989 -6746,136001 0,72645 1080,132252 1080,217076 0,76318 5746,138184 12829,138184 7084,0 12828,-61866 12828,-138184 0,-99520 6581,-90041 6581,-187436zm-4387 4822c0,-63473 -4541,-68849 -4541,-122024 0,-50191 -3365,-90877 -7517,-90877 -4152,0 -7516,40686 -7516,90877 0,28303 -4971,39034 -4971,100189 0,53515 799,97425 799,159914 0,56219 4230,101795 9448,101795 5219,0 9449,-45576 9449,-101795 0,-73314 4849,-66332 4849,-138079zm-4548 3994c0,-44678 -2858,-48460 -2858,-85889 0,-35327 -2119,-63966 -4733,-63966 -2611,0 -4730,28639 -4730,63966 0,19920 -3129,27475 -3129,70518 0,37670 502,68575 502,112561 0,39571 2663,71650 5948,71650 3285,0 5949,-32079 5949,-71650 0,-51605 3051,-46689 3051,-97190zm-4019 4936c0,-21436 -1370,-23252 -1370,-41213 0,-16950 -1018,-30695 -2271,-30695 -1255,0 -2271,13745 -2271,30695 0,9560 -1501,13183 -1501,33841 0,18073 241,32904 241,54009 0,18989 1277,34380 2854,34380 1576,0 2855,-15391 2855,-34380 0,-24761 1463,-22405 1463,-46637zm14370 -812544c0,-112686 -8061,-122226 -8061,-216631 0,-89099 -5975,-161332 -13345,-161332 -7371,0 -13345,72233 -13345,161332 0,50246 -8823,69302 -8823,177866 0,95006 1416,172962 1416,283898 0,99808 7510,180717 16774,180717 9268,0 16778,-80909 16778,-180717 0,-130154 8606,-117759 8606,-245133zm-5128 5636c0,-86162 -6163,-93457 -6163,-165643 0,-68129 -4568,-123360 -10205,-123360 -5636,0 -10203,55231 -10203,123360 0,38422 -6747,52989 -6747,136002 0,72645 1082,132252 1082,217076 0,76318 5743,138184 12828,138184 7084,0 12826,-61866 12826,-138184 0,-99518 6582,-90043 6582,-187435zm-4387 4822c0,-63474 -4540,-68850 -4540,-122026 0,-50189 -3366,-90876 -7518,-90876 -4151,0 -7516,40687 -7516,90876 0,28303 -4970,39038 -4970,100190 0,53514 798,97424 798,159913 0,56221 4230,101796 9449,101796 5217,0 9449,-45575 9449,-101796 0,-73312 4848,-66331 4848,-138077zm-4548 3991c0,-44676 -2858,-48458 -2858,-85890 0,-35325 -2118,-63961 -4730,-63961 -2613,0 -4731,28636 -4731,63961 0,19924 -3129,27478 -3129,70520 0,37671 502,68578 502,112562 0,39570 2663,71649 5946,71649 3286,0 5948,-32079 5948,-71649 0,-51604 3052,-46691 3052,-97192zm-4018 4940c0,-21440 -1372,-23255 -1372,-41213 0,-16952 -1014,-30695 -2270,-30695 -1253,0 -2271,13743 -2271,30695 0,9558 -1499,13182 -1499,33838 0,18074 239,32904 239,54009 0,18989 1280,34381 2855,34381 1577,0 2854,-15392 2854,-34381 0,-24760 1464,-22403 1464,-46634zm58780 279378c0,-112684 -8062,-122224 -8062,-216631 0,-89101 -5974,-161331 -13346,-161331 -7371,0 -13343,72230 -13343,161331 0,50247 -8824,69301 -8824,177866 0,95004 1416,172962 1416,283899 0,99806 7510,180716 16776,180716 9266,0 16775,-80910 16775,-180716 0,-130153 8608,-117761 8608,-245134zm-5130 5635c0,-86160 -6164,-93459 -6164,-165641 0,-68131 -4568,-123360 -10203,-123360 -5635,0 -10203,55229 -10203,123360 0,38418 -6747,52989 -6747,136000 0,72646 1083,132253 1083,217078 0,76316 5742,138184 12826,138184 7086,0 12828,-61868 12828,-138184 0,-99522 6580,-90041 6580,-187437zm-4386 4821c0,-63474 -4540,-68846 -4540,-122024 0,-50188 -3366,-90876 -7518,-90876 -4150,0 -7517,40688 -7517,90876 0,28302 -4970,39037 -4970,100187 0,53519 798,97428 798,159917 0,56217 4231,101793 9450,101793 5218,0 9449,-45576 9449,-101793 0,-73315 4848,-66332 4848,-138080zm-4546 3995c0,-44678 -2859,-48460 -2859,-85891 0,-35326 -2119,-63964 -4732,-63964 -2613,0 -4732,28638 -4732,63964 0,19923 -3128,27478 -3128,70520 0,37669 504,68576 504,112560 0,39573 2662,71649 5945,71649 3287,0 5948,-32076 5948,-71649 0,-51604 3054,-46688 3054,-97189zm-4021 4936c0,-21437 -1370,-23251 -1370,-41213 0,-16949 -1016,-30693 -2270,-30693 -1255,0 -2270,13744 -2270,30693 0,9558 -1502,13184 -1502,33838 0,18075 241,32907 241,54012 0,18989 1278,34381 2852,34381 1578,0 2856,-15392 2856,-34381 0,-24763 1463,-22404 1463,-46637zm17367 793046c0,-112684 -8061,-122225 -8061,-216631 0,-89101 -5975,-161334 -13345,-161334 -7371,0 -13346,72233 -13346,161334 0,50246 -8822,69300 -8822,177865 0,95005 1416,172962 1416,283900 0,99806 7510,180714 16775,180714 9267,0 16777,-80908 16777,-180714 0,-130157 8606,-117760 8606,-245134zm-5128 5635c0,-86162 -6164,-93457 -6164,-165643 0,-68129 -4567,-123361 -10204,-123361 -5636,0 -10203,55232 -10203,123361 0,38421 -6747,52989 -6747,136002 0,72644 1082,132252 1082,217077 0,76317 5744,138181 12829,138181 7083,0 12826,-61864 12826,-138181 0,-99520 6581,-90043 6581,-187436zm-4387 4821c0,-63475 -4541,-68848 -4541,-122024 0,-50191 -3366,-90875 -7517,-90875 -4152,0 -7516,40684 -7516,90875 0,28302 -4970,39037 -4970,100188 0,53514 798,97424 798,159916 0,56218 4231,101794 9450,101794 5218,0 9449,-45576 9449,-101794 0,-73314 4847,-66334 4847,-138080zm-4549 3995c0,-44681 -2856,-48460 -2856,-85890 0,-35328 -2119,-63965 -4732,-63965 -2614,0 -4731,28637 -4731,63965 0,19919 -3128,27477 -3128,70520 0,37667 502,68575 502,112559 0,39571 2662,71649 5947,71649 3285,0 5947,-32078 5947,-71649 0,-51603 3051,-46690 3051,-97189zm-4016 4936c0,-21437 -1373,-23255 -1373,-41213 0,-16953 -1017,-30693 -2268,-30693 -1256,0 -2272,13740 -2272,30693 0,9559 -1500,13184 -1500,33838 0,18076 240,32905 240,54010 0,18991 1279,34381 2854,34381 1577,0 2855,-15390 2855,-34381 0,-24761 1464,-22403 1464,-46635zm9286 -397084c0,-112686 8062,-122224 8062,-216631 0,-89100 5975,-161332 13343,-161332 7371,0 13346,72232 13346,161332 0,50247 8823,69300 8823,177866 0,95007 -1415,172961 -1415,283898 0,99809 -7512,180717 -16776,180717 -9265,0 -16776,-80908 -16776,-180717 0,-130156 -8607,-117761 -8607,-245133zm5129 5636c0,-86165 6165,-93458 6165,-165643 0,-68131 4566,-123361 10202,-123361 5636,0 10203,55230 10203,123361 0,38419 6748,52989 6748,136000 0,72646 -1080,132252 -1080,217077 0,76317 -5746,138183 -12829,138183 -7085,0 -12829,-61866 -12829,-138183 0,-99518 -6580,-90042 -6580,-187434zm4386 4820c0,-63473 4542,-68848 4542,-122025 0,-50189 3365,-90876 7515,-90876 4152,0 7517,40687 7517,90876 0,28305 4971,39037 4971,100188 0,53517 -798,97428 -798,159917 0,56219 -4230,101795 -9448,101795 -5220,0 -9450,-45576 -9450,-101795 0,-73314 -4849,-66333 -4849,-138080zm4550 3994c0,-44679 2857,-48461 2857,-85891 0,-35325 2119,-63964 4731,-63964 2612,0 4730,28639 4730,63964 0,19922 3129,27477 3129,70520 0,37669 -501,68576 -501,112560 0,39572 -2664,71652 -5948,71652 -3286,0 -5949,-32080 -5949,-71652 0,-51602 -3049,-46689 -3049,-97189zm4017 4937c0,-21437 1370,-23252 1370,-41213 0,-16950 1017,-30694 2270,-30694 1254,0 2272,13744 2272,30694 0,9560 1500,13184 1500,33838 0,18075 -241,32907 -241,54011 0,18989 -1277,34382 -2854,34382 -1575,0 -2854,-15393 -2854,-34382 0,-24762 -1463,-22402 -1463,-46636zm-15921 -823475c0,-112684 8062,-122225 8062,-216631 0,-89099 5974,-161334 13345,-161334 7370,0 13345,72235 13345,161334 0,50246 8823,69300 8823,177866 0,95006 -1417,172961 -1417,283899 0,99807 -7511,180714 -16775,180714 -9264,0 -16776,-80907 -16776,-180714 0,-130156 -8607,-117760 -8607,-245134zm5129 5635c0,-86162 6164,-93458 6164,-165643 0,-68128 4568,-123358 10202,-123358 5637,0 10205,55230 10205,123358 0,38421 6748,52991 6748,136001 0,72645 -1084,132254 -1084,217079 0,76317 -5744,138182 -12826,138182 -7086,0 -12829,-61865 -12829,-138182 0,-99521 -6580,-90044 -6580,-187437zm4386 4822c0,-63476 4541,-68849 4541,-122025 0,-50191 3366,-90876 7517,-90876 4151,0 7517,40685 7517,90876 0,28302 4971,39036 4971,100187 0,53516 -798,97428 -798,159917 0,56220 -4233,101794 -9450,101794 -5218,0 -9451,-45574 -9451,-101794 0,-73313 -4847,-66334 -4847,-138079zm4549 3993c0,-44677 2857,-48461 2857,-85890 0,-35325 2118,-63965 4733,-63965 2612,0 4730,28640 4730,63965 0,19923 3129,27478 3129,70521 0,37666 -503,68576 -503,112560 0,39572 -2662,71648 -5948,71648 -3284,0 -5948,-32076 -5948,-71648 0,-51604 -3050,-46690 -3050,-97191zm4016 4937c0,-21437 1373,-23253 1373,-41213 0,-16951 1017,-30693 2270,-30693 1253,0 2270,13742 2270,30693 0,9559 1500,13184 1500,33839 0,18073 -239,32905 -239,54009 0,18991 -1278,34383 -2855,34383 -1576,0 -2854,-15392 -2854,-34383 0,-24760 -1465,-22401 -1465,-46635zm18940 498841c0,-112687 8061,-122226 8061,-216632 0,-89100 5975,-161334 13345,-161334 7372,0 13346,72234 13346,161334 0,50247 8821,69300 8821,177866 0,95005 -1415,172963 -1415,283900 0,99805 -7510,180713 -16774,180713 -9267,0 -16778,-80908 -16778,-180713 0,-130157 -8606,-117761 -8606,-245134zm5129 5635c0,-86163 6164,-93458 6164,-165643 0,-68129 4568,-123361 10203,-123361 5636,0 10202,55232 10202,123361 0,38420 6748,52990 6748,136001 0,72644 -1082,132251 -1082,217078 0,76315 -5743,138181 -12828,138181 -7083,0 -12827,-61866 -12827,-138181 0,-99520 -6580,-90044 -6580,-187436zm4387 4821c0,-63474 4540,-68848 4540,-122028 0,-50187 3365,-90872 7517,-90872 4152,0 7516,40685 7516,90872 0,28305 4972,39040 4972,100191 0,53515 -799,97427 -799,159914 0,56221 -4231,101796 -9450,101796 -5217,0 -9449,-45575 -9449,-101796 0,-73312 -4847,-66332 -4847,-138077zm4548 3992c0,-44677 2857,-48458 2857,-85887 0,-35329 2119,-63966 4730,-63966 2616,0 4732,28637 4732,63966 0,19919 3130,27475 3130,70519 0,37668 -503,68576 -503,112560 0,39570 -2662,71649 -5947,71649 -3286,0 -5948,-32079 -5948,-71649 0,-51603 -3051,-46691 -3051,-97192zm4017 4939c0,-21437 1372,-23254 1372,-41213 0,-16952 1018,-30694 2270,-30694 1254,0 2271,13742 2271,30694 0,9558 1500,13184 1500,33838 0,18073 -240,32904 -240,54011 0,18986 -1279,34379 -2854,34379 -1577,0 -2855,-15393 -2855,-34379 0,-24762 -1464,-22403 -1464,-46636zm18856 479475c0,-112684 8061,-122225 8061,-216630 0,-89101 5976,-161334 13346,-161334 7371,0 13344,72233 13344,161334 0,50245 8823,69300 8823,177864 0,95007 -1415,172964 -1415,283901 0,99805 -7510,180712 -16775,180712 -9266,0 -16778,-80907 -16778,-180712 0,-130157 -8606,-117761 -8606,-245135zm5129 5636c0,-86162 6163,-93457 6163,-165641 0,-68131 4569,-123363 10204,-123363 5636,0 10205,55232 10205,123363 0,38418 6747,52988 6747,135997 0,72646 -1085,132255 -1085,217080 0,76317 -5742,138181 -12827,138181 -7083,0 -12826,-61864 -12826,-138181 0,-99520 -6581,-90043 -6581,-187436zm4386 4821c0,-63474 4541,-68848 4541,-122026 0,-50189 3366,-90874 7517,-90874 4153,0 7517,40685 7517,90874 0,28304 4970,39036 4970,100190 0,53515 -797,97428 -797,159915 0,56219 -4232,101795 -9449,101795 -5218,0 -9451,-45576 -9451,-101795 0,-73314 -4848,-66334 -4848,-138079zm4549 3994c0,-44680 2858,-48461 2858,-85890 0,-35326 2118,-63965 4731,-63965 2612,0 4730,28639 4730,63965 0,19920 3129,27475 3129,70520 0,37666 -502,68575 -502,112560 0,39571 -2662,71649 -5947,71649 -3286,0 -5948,-32078 -5948,-71649 0,-51603 -3051,-46690 -3051,-97190zm4018 4937c0,-21438 1370,-23255 1370,-41213 0,-16953 1017,-30695 2270,-30695 1255,0 2272,13742 2272,30695 0,9559 1500,13183 1500,33839 0,18073 -239,32903 -239,54009 0,18988 -1279,34381 -2857,34381 -1574,0 -2852,-15393 -2852,-34381 0,-24761 -1464,-22402 -1464,-46635zm-18839 -847046c0,-112687 8061,-122224 8061,-216631 0,-89102 5975,-161333 13345,-161333 7371,0 13346,72231 13346,161333 0,50245 8822,69301 8822,177865 0,95004 -1416,172961 -1416,283898 0,99807 -7510,180716 -16774,180716 -9266,0 -16777,-80909 -16777,-180716 0,-130154 -8607,-117760 -8607,-245132zm5129 5633c0,-86161 6163,-93457 6163,-165641 0,-68132 4569,-123360 10204,-123360 5636,0 10204,55228 10204,123360 0,38420 6746,52992 6746,136002 0,72644 -1081,132252 -1081,217077 0,76315 -5744,138180 -12829,138180 -7084,0 -12827,-61865 -12827,-138180 0,-99519 -6580,-90042 -6580,-187438zm4387 4824c0,-63477 4540,-68848 4540,-122025 0,-50190 3365,-90875 7516,-90875 4151,0 7517,40685 7517,90875 0,28302 4972,39035 4972,100187 0,53516 -798,97426 -798,159916 0,56220 -4232,101793 -9451,101793 -5218,0 -9449,-45573 -9449,-101793 0,-73315 -4847,-66332 -4847,-138078zm4548 3991c0,-44677 2857,-48458 2857,-85890 0,-35326 2119,-63963 4730,-63963 2615,0 4733,28637 4733,63963 0,19923 3130,27478 3130,70522 0,37667 -503,68575 -503,112560 0,39570 -2664,71649 -5948,71649 -3285,0 -5948,-32079 -5948,-71649 0,-51605 -3051,-46690 -3051,-97192zm4017 4940c0,-21440 1372,-23255 1372,-41214 0,-16952 1016,-30694 2270,-30694 1253,0 2271,13742 2271,30694 0,9557 1499,13184 1499,33836 0,18076 -240,32907 -240,54012 0,18989 -1279,34382 -2853,34382 -1578,0 -2855,-15393 -2855,-34382 0,-24761 -1464,-22404 -1464,-46634zm21053 498906c0,-112684 8059,-122222 8059,-216627 0,-89104 5976,-161335 13346,-161335 7370,0 13345,72231 13345,161335 0,50244 8823,69299 8823,177863 0,95005 -1415,172963 -1415,283899 0,99805 -7512,180717 -16776,180717 -9265,0 -16778,-80912 -16778,-180717 0,-130154 -8604,-117762 -8604,-245135zm5127 5635c0,-86160 6164,-93457 6164,-165642 0,-68128 4570,-123359 10203,-123359 5637,0 10205,55231 10205,123359 0,38419 6748,52993 6748,136000 0,72647 -1084,132255 -1084,217081 0,76314 -5742,138181 -12828,138181 -7084,0 -12827,-61867 -12827,-138181 0,-99520 -6581,-90045 -6581,-187439zm4387 4824c0,-63474 4541,-68850 4541,-122025 0,-50190 3365,-90877 7517,-90877 4151,0 7517,40687 7517,90877 0,28303 4970,39036 4970,100186 0,53517 -796,97427 -796,159919 0,56217 -4233,101792 -9451,101792 -5218,0 -9451,-45575 -9451,-101792 0,-73317 -4847,-66334 -4847,-138080zm4549 3992c0,-44678 2857,-48459 2857,-85888 0,-35325 2118,-63968 4732,-63968 2612,0 4731,28643 4731,63968 0,19919 3128,27475 3128,70518 0,37669 -504,68577 -504,112562 0,39571 -2661,71650 -5946,71650 -3284,0 -5948,-32079 -5948,-71650 0,-51606 -3050,-46690 -3050,-97192zm4017 4937c0,-21436 1372,-23251 1372,-41211 0,-16953 1016,-30694 2270,-30694 1253,0 2270,13741 2270,30694 0,9559 1502,13182 1502,33838 0,18073 -241,32905 -241,54011 0,18987 -1278,34381 -2855,34381 -1576,0 -2853,-15394 -2853,-34381 0,-24762 -1465,-22405 -1465,-46638zm27752 112794c0,-112686 8061,-122224 8061,-216631 0,-89101 5976,-161332 13346,-161332 7370,0 13343,72231 13343,161332 0,50244 8824,69302 8824,177865 0,95005 -1415,172962 -1415,283900 0,99807 -7511,180716 -16777,180716 -9264,0 -16776,-80909 -16776,-180716 0,-130155 -8606,-117762 -8606,-245134zm5129 5634c0,-86159 6164,-93456 6164,-165641 0,-68129 4567,-123359 10204,-123359 5634,0 10203,55230 10203,123359 0,38418 6747,52989 6747,135999 0,72646 -1084,132253 -1084,217081 0,76315 -5742,138181 -12827,138181 -7084,0 -12828,-61866 -12828,-138181 0,-99521 -6579,-90045 -6579,-187439zm4387 4821c0,-63471 4541,-68845 4541,-122024 0,-50189 3364,-90875 7516,-90875 4151,0 7517,40686 7517,90875 0,28303 4969,39036 4969,100188 0,53517 -796,97428 -796,159916 0,56219 -4232,101793 -9450,101793 -5219,0 -9452,-45574 -9452,-101793 0,-73316 -4845,-66334 -4845,-138080zm4548 3994c0,-44677 2858,-48460 2858,-85889 0,-35326 2118,-63964 4730,-63964 2614,0 4732,28638 4732,63964 0,19922 3126,27477 3126,70520 0,37668 -501,68577 -501,112561 0,39571 -2663,71650 -5947,71650 -3284,0 -5946,-32079 -5946,-71650 0,-51604 -3052,-46689 -3052,-97192zm4017 4939c0,-21439 1371,-23254 1371,-41215 0,-16950 1016,-30694 2270,-30694 1256,0 2270,13744 2270,30694 0,9561 1502,13185 1502,33838 0,18074 -241,32907 -241,54013 0,18988 -1278,34380 -2855,34380 -1575,0 -2852,-15392 -2852,-34380 0,-24761 -1465,-22404 -1465,-46636zm-39579 -626082c0,-68477 8060,-74274 8060,-131642 0,-54146 5977,-98040 13346,-98040 7370,0 13346,43894 13346,98040 0,30533 8822,42112 8822,108084 0,57734 -1417,105106 -1417,172521 0,60650 -7510,109817 -16775,109817 -9265,0 -16776,-49167 -16776,-109817 0,-79095 -8606,-71560 -8606,-148963zm5128 3425c0,-52360 6163,-56793 6163,-100660 0,-41402 4569,-74963 10204,-74963 5637,0 10204,33561 10204,74963 0,23349 6748,32202 6748,82646 0,44144 -1084,80369 -1084,131914 0,46375 -5742,83970 -12828,83970 -7085,0 -12827,-37595 -12827,-83970 0,-60476 -6580,-54717 -6580,-113900zm4386 2930c0,-38571 4541,-41840 4541,-74154 0,-30499 3365,-55222 7517,-55222 4152,0 7516,24723 7516,55222 0,17201 4972,23723 4972,60883 0,32521 -798,59204 -798,97179 0,34162 -4232,61857 -9451,61857 -5218,0 -9450,-27695 -9450,-61857 0,-44553 -4847,-40310 -4847,-83908zm4549 2426c0,-27150 2859,-29448 2859,-52194 0,-21469 2118,-38869 4728,-38869 2615,0 4734,17400 4734,38869 0,12106 3125,16697 3125,42854 0,22889 -502,41671 -502,68402 0,24044 -2661,43540 -5946,43540 -3283,0 -5947,-19496 -5947,-43540 0,-31361 -3051,-28375 -3051,-59062zm4016 2999c0,-13026 1374,-14131 1374,-25044 0,-10302 1015,-18651 2269,-18651 1254,0 2271,8349 2271,18651 0,5808 1499,8011 1499,20563 0,10984 -240,19997 -240,32823 0,11536 -1279,20890 -2854,20890 -1577,0 -2854,-9354 -2854,-20890 0,-15049 -1465,-13615 -1465,-28342zm32879 192750c0,-68477 8061,-74273 8061,-131643 0,-54144 5973,-98038 13344,-98038 7369,0 13344,43894 13344,98038 0,30536 8824,42114 8824,108086 0,57734 -1415,105105 -1415,172521 0,60650 -7513,109816 -16778,109816 -9264,0 -16776,-49166 -16776,-109816 0,-79094 -8604,-71561 -8604,-148964zm5127 3425c0,-52358 6163,-56793 6163,-100657 0,-41401 4569,-74964 10204,-74964 5636,0 10205,33563 10205,74964 0,23345 6746,32199 6746,82644 0,44146 -1083,80368 -1083,131917 0,46372 -5742,83969 -12828,83969 -7084,0 -12828,-37597 -12828,-83969 0,-60479 -6579,-54720 -6579,-113904zm4388 2931c0,-38575 4541,-41839 4541,-74154 0,-30499 3364,-55222 7515,-55222 4152,0 7518,24723 7518,55222 0,17201 4968,23723 4968,60883 0,32520 -795,59205 -795,97178 0,34162 -4232,61860 -9450,61860 -5220,0 -9452,-27698 -9452,-61860 0,-44552 -4845,-40309 -4845,-83907zm4548 2425c0,-27150 2857,-29447 2857,-52193 0,-21467 2118,-38869 4731,-38869 2614,0 4731,17402 4731,38869 0,12105 3127,16697 3127,42854 0,22889 -501,41670 -501,68400 0,24046 -2663,43543 -5949,43543 -3283,0 -5946,-19497 -5946,-43543 0,-31360 -3050,-28371 -3050,-59061zm4017 2999c0,-13025 1370,-14128 1370,-25041 0,-10303 1017,-18654 2272,-18654 1252,0 2269,8351 2269,18654 0,5807 1502,8010 1502,20561 0,10983 -242,19998 -242,32820 0,11541 -1277,20895 -2855,20895 -1574,0 -2851,-9354 -2851,-20895 0,-15046 -1465,-13612 -1465,-28340zm42580 487316c0,-76334 -8061,-82793 -8061,-146745 0,-60358 -5974,-109288 -13343,-109288 -7371,0 -13346,48930 -13346,109288 0,34036 -8824,46943 -8824,120485 0,64358 1416,117166 1416,192313 0,67609 7512,122416 16777,122416 9264,0 16778,-54807 16778,-122416 0,-88167 8603,-79770 8603,-166053zm-5126 3817c0,-58365 -6165,-63310 -6165,-112206 0,-46152 -4569,-83565 -10203,-83565 -5637,0 -10205,37413 -10205,83565 0,26024 -6748,35896 -6748,92126 0,49210 1085,89590 1085,147049 0,51698 5741,93607 12827,93607 7084,0 12828,-41909 12828,-93607 0,-67415 6581,-60994 6581,-126969zm-4388 3267c0,-42998 -4541,-46639 -4541,-82660 0,-33999 -3366,-61560 -7516,-61560 -4152,0 -7519,27561 -7519,61560 0,19171 -4968,26444 -4968,67867 0,36251 795,65998 795,108327 0,38083 4232,68956 9452,68956 5218,0 9450,-30873 9450,-68956 0,-49663 4847,-44933 4847,-93534zm-4550 2704c0,-30265 -2856,-32826 -2856,-58182 0,-23931 -2118,-43330 -4731,-43330 -2614,0 -4732,19399 -4732,43330 0,13496 -3127,18613 -3127,47771 0,25517 502,46453 502,76248 0,26807 2662,48536 5947,48536 3284,0 5948,-21729 5948,-48536 0,-34957 3049,-31627 3049,-65837zm-4017 3345c0,-14521 -1370,-15751 -1370,-27918 0,-11483 -1017,-20791 -2271,-20791 -1252,0 -2269,9308 -2269,20791 0,6476 -1503,8932 -1503,22924 0,12242 242,22287 242,36585 0,12862 1277,23290 2855,23290 1574,0 2851,-10428 2851,-23290 0,-16773 1465,-15175 1465,-31591zm-49120 -785524c-697,54156 2781,59117 2196,104488 -552,42822 1623,77814 4859,78160 3233,346 6304,-34085 6856,-76905 311,-24147 4302,-32889 4974,-85062 590,-45660 449,-83189 1138,-136504 619,-47966 -2178,-87201 -6243,-87637 -4068,-436 -7866,38093 -8484,86058 -807,62551 -4507,56188 -5296,117402zm2285 -2467c-533,41409 2127,45204 1681,79895 -424,32742 1241,59499 3713,59764 2474,266 4822,-26063 5244,-58805 237,-18464 3289,-25148 3804,-65040 450,-34912 343,-63609 871,-104374 471,-36677 -1665,-66678 -4776,-67010 -3110,-336 -6013,29127 -6487,65800 -618,47828 -3446,42966 -4050,89770zm1957 -2109c-394,30501 1566,33299 1235,58856 -311,24120 916,43831 2738,44025 1822,196 3552,-19197 3861,-43318 177,-13602 2425,-18527 2802,-47916 333,-25718 254,-46858 642,-76889 349,-27018 -1227,-49119 -3517,-49365 -2291,-246 -4432,21458 -4779,48475 -455,35235 -2539,31651 -2982,66132zm2021 -1707c-279,21472 954,23423 722,41413 -220,16978 533,30838 1680,30962 1146,122 2254,-13541 2474,-30519 123,-9574 1542,-13055 1809,-33741 234,-18104 204,-32981 476,-54121 246,-19015 -723,-34557 -2165,-34712 -1443,-153 -2810,15139 -3056,34155 -319,24799 -1628,22293 -1940,46563zm-69863 14815c-698,54156 2782,59117 2196,104490 -552,42819 1622,77812 4858,78160 3234,346 6305,-34084 6858,-76906 309,-24149 4301,-32890 4974,-85064 588,-45656 449,-83186 1136,-136503 619,-47967 -2176,-87201 -6243,-87636 -4069,-437 -7866,38092 -8483,86058 -807,62550 -4508,56190 -5296,117401zm2285 -2466c-534,41407 2126,45203 1679,79896 -421,32740 1242,59498 3715,59762 2474,266 4822,-26061 5242,-58803 240,-18466 3291,-25151 3804,-65043 452,-34911 345,-63608 871,-104373 473,-36677 -1665,-66678 -4775,-67010 -3111,-336 -6013,29125 -6486,65802 -616,47829 -3447,42963 -4050,89769zm1956 -2110c-394,30503 1566,33300 1237,58853 -311,24122 915,43835 2736,44028 1822,196 3551,-19197 3862,-43318 175,-13602 2425,-18526 2803,-47916 332,-25717 255,-46859 642,-76889 346,-27018 -1227,-49119 -3518,-49365 -2293,-245 -4430,21459 -4779,48475 -455,35235 -2537,31650 -2983,66132zm2021 -1706c-277,21471 955,23422 723,41413 -220,16977 532,30836 1680,30960 1147,124 2255,-13540 2471,-30516 126,-9575 1544,-13057 1812,-33743 235,-18103 205,-32980 476,-54118 246,-19019 -725,-34558 -2166,-34715 -1442,-153 -2810,15139 -3055,34154 -322,24800 -1629,22297 -1941,46565zm-76617 -221967c0,54138 5436,58718 5436,104074 0,42809 4028,77508 8996,77508 4968,0 8996,-34699 8996,-77508 0,-24137 5949,-33293 5949,-85450 0,-45645 -956,-83098 -956,-136394 0,-47952 -5062,-86821 -11309,-86821 -6246,0 -11309,38869 -11309,86821 0,62530 -5803,56574 -5803,117770zm3458 -2708c0,41395 4155,44900 4155,79578 0,32733 3079,59268 6879,59268 3800,0 6880,-26535 6880,-59268 0,-18458 4548,-25458 4548,-65339 0,-34899 -730,-63538 -730,-104289 0,-36666 -3872,-66388 -8648,-66388 -4777,0 -8648,29722 -8648,66388 0,47812 -4436,43259 -4436,90050zm2958 -2317c0,30494 3061,33077 3061,58624 0,24112 2268,43660 5068,43660 2797,0 5066,-19548 5066,-43660 0,-13597 3350,-18754 3350,-48135 0,-25708 -536,-46805 -536,-76826 0,-27011 -2853,-48905 -6372,-48905 -3517,0 -6369,21894 -6369,48905 0,35222 -3268,31868 -3268,66337zm3065 -1919c0,21464 1927,23283 1927,41264 0,16975 1429,30730 3189,30730 1763,0 3189,-13755 3189,-30730 0,-9571 2109,-13200 2109,-33879 0,-18098 -338,-32946 -338,-54078 0,-19009 -1794,-34425 -4009,-34425 -2216,0 -4009,15416 -4009,34425 0,24792 -2058,22431 -2058,46693zm2709 -2372c0,10301 926,11171 926,19801 0,8143 684,14746 1530,14746 844,0 1528,-6603 1528,-14746 0,-4593 1013,-6335 1013,-16258 0,-8683 -162,-15808 -162,-25948 0,-9124 -861,-16518 -1924,-16518 -1063,0 -1923,7394 -1923,16518 0,11897 -988,10762 -988,22405zm-17179 1143206c0,-41271 5436,-44763 5436,-79340 0,-32631 4026,-59087 8995,-59087 4968,0 8995,26456 8995,59087 0,18403 5949,25381 5949,65140 0,34795 -954,63347 -954,103975 0,36552 -5064,66185 -11309,66185 -6248,0 -11311,-29633 -11311,-66185 0,-47668 -5801,-43130 -5801,-89775zm3457 2065c0,-31559 4155,-34230 4155,-60667 0,-24951 3080,-45178 6880,-45178 3799,0 6878,20227 6878,45178 0,14071 4549,19406 4549,49808 0,26605 -732,48436 -732,79502 0,27951 -3869,50607 -8645,50607 -4777,0 -8647,-22656 -8647,-50607 0,-36449 -4438,-32978 -4438,-68643zm2958 1762c0,-23245 3062,-25215 3062,-44688 0,-18382 2268,-33281 5065,-33281 2799,0 5068,14899 5068,33281 0,10365 3351,14297 3351,36693 0,19598 -538,35681 -538,58565 0,20591 -2851,37281 -6371,37281 -3517,0 -6370,-16690 -6370,-37281 0,-26850 -3267,-24292 -3267,-50570zm3066 1463c0,-16362 1928,-17747 1928,-31454 0,-12940 1427,-23428 3189,-23428 1761,0 3189,10488 3189,23428 0,7293 2110,10062 2110,25826 0,13795 -340,25114 -340,41223 0,14492 -1795,26240 -4009,26240 -2215,0 -4010,-11748 -4010,-26240 0,-18900 -2057,-17100 -2057,-35595zm2708 1809c0,-7850 926,-8516 926,-15094 0,-6209 685,-11241 1530,-11241 845,0 1529,5032 1529,11241 0,3501 1013,4827 1013,12391 0,6622 -163,12053 -163,19782 0,6956 -860,12594 -1923,12594 -1063,0 -1925,-5638 -1925,-12594 0,-9068 -987,-8203 -987,-17079zm-869 -581c0,-10583 1245,-11476 1245,-20344 0,-8370 925,-15153 2064,-15153 1140,0 2062,6783 2062,15153 0,4718 1364,6509 1364,16702 0,8925 -219,16245 -219,26663 0,9376 -1161,16975 -2592,16975 -1432,0 -2595,-7599 -2595,-16975 0,-12223 -1329,-11057 -1329,-23021zm-2746 -1399c0,-17182 2263,-18636 2263,-33027 0,-13584 1676,-24597 3745,-24597 2068,0 3745,11013 3745,24597 0,7660 2474,10562 2474,27115 0,14484 -397,26368 -397,43280 0,15217 -2107,27551 -4708,27551 -2600,0 -4708,-12334 -4708,-27551 0,-19842 -2414,-17952 -2414,-37368zm-2792 -1667c0,-25025 3296,-27144 3296,-48111 0,-19785 2442,-35826 5454,-35826 3013,0 5456,16041 5456,35826 0,11159 3605,15391 3605,39501 0,21097 -580,38409 -580,63045 0,22164 -3068,40131 -6856,40131 -3788,0 -6857,-17967 -6857,-40131 0,-28902 -3518,-26150 -3518,-54435zm-3263 -1950c0,-34192 4502,-37086 4502,-65731 0,-27036 3337,-48954 7453,-48954 4118,0 7454,21918 7454,48954 0,15245 4928,21028 4928,53968 0,28828 -791,52482 -791,86143 0,30284 -4193,54835 -9370,54835 -5174,0 -9370,-24551 -9370,-54835 0,-39493 -4806,-35731 -4806,-74380zm13790 -1143946c0,13882 1246,15057 1246,26689 0,10979 924,19876 2063,19876 1139,0 2063,-8897 2063,-19876 0,-6191 1365,-8538 1365,-21914 0,-11705 -220,-21308 -220,-34977 0,-12295 -1160,-22262 -2592,-22262 -1432,0 -2594,9967 -2594,22262 0,16036 -1331,14510 -1331,30202zm-2746 1839c0,22535 2262,24441 2262,43321 0,17820 1678,32263 3747,32263 2067,0 3744,-14443 3744,-32263 0,-10049 2475,-13859 2475,-35571 0,-18998 -399,-34589 -399,-56775 0,-19958 -2105,-36138 -4707,-36138 -2598,0 -4705,16180 -4705,36138 0,26030 -2417,23551 -2417,49025zm-2791 2186c0,32827 3296,35607 3296,63106 0,25957 2440,47000 5453,47000 3014,0 5456,-21043 5456,-47000 0,-14637 3606,-20187 3606,-51812 0,-27678 -579,-50390 -579,-82705 0,-29076 -3070,-52644 -6857,-52644 -3788,0 -6857,23568 -6857,52644 0,37916 -3518,34305 -3518,71411zm-3263 2556c0,44852 4503,48650 4503,86226 0,35465 3338,64218 7453,64218 4116,0 7452,-28753 7452,-64218 0,-19999 4929,-27582 4929,-70797 0,-37817 -791,-68847 -791,-113003 0,-39728 -4195,-71931 -9369,-71931 -5177,0 -9370,32203 -9370,71931 0,51808 -4807,46873 -4807,97574zm75314 222457c-178,13887 619,15150 467,26785 -141,10981 345,19947 1087,20026 744,80 1459,-8758 1602,-19737 78,-6194 997,-8446 1170,-21826 150,-11708 133,-21330 307,-35003 158,-12299 -468,-22352 -1400,-22451 -933,-100 -1817,9788 -1977,22089 -205,16040 -1053,14421 -1256,30117zm-1811 1649c-289,22542 1157,24607 914,43492 -229,17824 676,32391 2023,32534 1346,147 2625,-14187 2855,-32011 129,-10051 1789,-13689 2069,-35408 246,-19005 189,-34628 474,-56822 258,-19965 -906,-36298 -2600,-36479 -1693,-180 -3274,15857 -3529,35824 -337,26036 -1877,23388 -2206,48870zm-1846 1990c-423,32838 1687,35849 1332,63359 -334,25964 985,47183 2946,47393 1962,211 3824,-20668 4158,-46633 189,-14640 2609,-19942 3016,-51578 357,-27687 272,-50444 691,-82772 373,-29082 -1322,-52875 -3788,-53138 -2467,-265 -4767,23099 -5143,52181 -490,37929 -2732,34073 -3212,71188zm-2157 2328c-579,44869 2304,48982 1820,86570 -458,35477 1344,64471 4024,64757 2680,287 5224,-28241 5680,-63715 260,-20009 3566,-27250 4122,-70476 489,-37829 375,-68923 944,-113095 512,-39740 -1804,-72247 -5173,-72609 -3372,-360 -6518,31561 -7029,71302 -667,51824 -3734,46553 -4388,97266zm69415 -14500c-180,13888 617,15150 468,26785 -142,10980 344,19947 1086,20026 741,80 1459,-8758 1599,-19738 81,-6192 998,-8447 1173,-21826 150,-11707 130,-21330 307,-35001 158,-12301 -468,-22352 -1400,-22451 -933,-102 -1819,9787 -1976,22089 -208,16039 -1053,14420 -1257,30116zm-1812 1647c-291,22544 1158,24608 916,43495 -231,17824 675,32391 2020,32533 1348,146 2626,-14186 2855,-32012 129,-10051 1792,-13690 2071,-35407 245,-19004 188,-34629 473,-56821 258,-19964 -906,-36297 -2598,-36479 -1693,-181 -3274,15857 -3532,35823 -335,26037 -1875,23387 -2205,48868zm-1846 1994c-421,32836 1688,35846 1332,63357 -333,25964 986,47184 2946,47394 1963,209 3823,-20668 4157,-46633 190,-14643 2609,-19943 3018,-51579 354,-27686 271,-50443 688,-82770 376,-29084 -1319,-52878 -3785,-53139 -2466,-265 -4770,23098 -5144,52182 -489,37927 -2734,34071 -3212,71188zm-2157 2328c-578,44869 2304,48981 1820,86568 -457,35476 1344,64469 4024,64757 2680,289 5224,-28238 5682,-63714 258,-20009 3565,-27251 4122,-70477 487,-37827 371,-68924 940,-113094 515,-39740 -1801,-72249 -5171,-72610 -3370,-359 -6518,31562 -7029,71302 -668,51823 -3734,46553 -4388,97268zm48745 786248c0,-19575 -1849,-21232 -1849,-37633 0,-15475 -1369,-28026 -3059,-28026 -1692,0 -3060,12551 -3060,28026 0,8728 -2025,12040 -2025,30898 0,16504 325,30048 325,49318 0,17336 1724,31392 3848,31392 2125,0 3847,-14056 3847,-31392 0,-22611 1973,-20456 1973,-42583zm4074 -2591c0,-31776 -3357,-34464 -3357,-61088 0,-25121 -2486,-45489 -5553,-45489 -3069,0 -5555,20368 -5555,45489 0,14171 -3673,19543 -3673,50157 0,26787 590,48770 590,80052 0,28141 3125,50956 6981,50956 3857,0 6984,-22815 6984,-50956 0,-36702 3583,-33206 3583,-69121zm4142 -3085c0,-46285 -4889,-50203 -4889,-88981 0,-36598 -3623,-66266 -8092,-66266 -4467,0 -8091,29668 -8091,66266 0,20639 -5351,28467 -5351,73059 0,39021 859,71044 859,116611 0,40997 4554,74229 10173,74229 5617,0 10172,-33232 10172,-74229 0,-53461 5219,-48371 5219,-100689zm4840 -3602c0,-63243 -6680,-68596 -6680,-121582 0,-50007 -4950,-90544 -11056,-90544 -6108,0 -11056,40537 -11056,90544 0,28200 -7310,38895 -7310,99825 0,53320 1172,97072 1172,159333 0,56016 6224,101424 13900,101424 7676,0 13900,-45408 13900,-101424 0,-73047 7130,-66089 7130,-137576zm-40136 -491059c0,-17561 1849,-19047 1849,-33760 0,-13883 1371,-25139 3060,-25139 1691,0 3060,11256 3060,25139 0,7831 2025,10801 2025,27719 0,14804 -324,26952 -324,44240 0,15554 -1725,28164 -3848,28164 -2126,0 -3847,-12610 -3847,-28164 0,-20280 -1975,-18350 -1975,-38199zm-4073 -2326c0,-28505 3357,-30916 3357,-54796 0,-22540 2486,-40810 5554,-40810 3068,0 5556,18270 5556,40810 0,12709 3672,17528 3672,44992 0,24031 -589,43749 -589,71813 0,25244 -3127,45712 -6983,45712 -3857,0 -6984,-20468 -6984,-45712 0,-32924 -3583,-29789 -3583,-62009zm-4141 -2764c0,-41523 4889,-45039 4889,-79824 0,-32832 3622,-59445 8093,-59445 4466,0 8090,26613 8090,59445 0,18515 5350,25537 5350,65538 0,35007 -858,63732 -858,104609 0,36776 -4555,66591 -10174,66591 -5617,0 -10171,-29815 -10171,-66591 0,-47959 -5219,-43390 -5219,-90323zm-4841 -3234c0,-56732 6680,-61535 6680,-109065 0,-44862 4951,-81228 11056,-81228 6105,0 11056,36366 11056,81228 0,25298 7311,34889 7311,89548 0,47833 -1172,87080 -1172,142933 0,50251 -6224,90984 -13900,90984 -7676,0 -13900,-40733 -13900,-90984 0,-65526 -7131,-59286 -7131,-123416zm-37901 -196208c0,-17559 1849,-19046 1849,-33758 0,-13884 1368,-25141 3060,-25141 1689,0 3059,11257 3059,25141 0,7831 2023,10802 2023,27718 0,14806 -323,26953 -323,44242 0,15552 -1722,28161 -3848,28161 -2125,0 -3847,-12609 -3847,-28161 0,-20284 -1973,-18352 -1973,-38202zm-4073 -2325c0,-28505 3355,-30916 3355,-54797 0,-22536 2489,-40808 5557,-40808 3067,0 5552,18272 5552,40808 0,12711 3673,17531 3673,44991 0,24033 -590,43751 -590,71814 0,25246 -3127,45712 -6982,45712 -3857,0 -6982,-20466 -6982,-45712 0,-32922 -3583,-29788 -3583,-62008zm-4142 -2764c0,-41523 4888,-45039 4888,-79824 0,-32830 3622,-59448 8092,-59448 4468,0 8092,26618 8092,59448 0,18513 5349,25536 5349,65537 0,35009 -859,63732 -859,104610 0,36777 -4554,66591 -10172,66591 -5619,0 -10172,-29814 -10172,-66591 0,-47959 -5218,-43391 -5218,-90323zm-4840 -3234c0,-56731 6679,-61535 6679,-109067 0,-44859 4951,-81223 11055,-81223 6107,0 11056,36364 11056,81223 0,25297 7311,34891 7311,89550 0,47835 -1173,87082 -1173,142935 0,50249 -6222,90984 -13898,90984 -7677,0 -13901,-40735 -13901,-90984 0,-65528 -7129,-59289 -7129,-123418zm34553 622003c0,-28896 1849,-31345 1849,-55552 0,-22849 1370,-41374 3059,-41374 1692,0 3060,18525 3060,41374 0,12883 2025,17772 2025,45611 0,24363 -325,44356 -325,72802 0,25595 -1723,46343 -3848,46343 -2124,0 -3847,-20748 -3847,-46343 0,-33377 -1973,-30197 -1973,-62861zm-4074 -3828c0,-46906 3357,-50875 3357,-90172 0,-37089 2486,-67156 5555,-67156 3067,0 5555,30067 5555,67156 0,20914 3672,28847 3672,74037 0,39545 -589,71996 -589,118177 0,41543 -3127,75223 -6982,75223 -3857,0 -6984,-33680 -6984,-75223 0,-54179 -3584,-49021 -3584,-102042zm-4140 -4550c0,-68327 4888,-74112 4888,-131357 0,-54028 3623,-97824 8091,-97824 4469,0 8092,43796 8092,97824 0,30468 5351,42022 5351,107850 0,57608 -859,104878 -859,172147 0,60517 -4555,109578 -10173,109578 -5618,0 -10172,-49061 -10172,-109578 0,-78922 -5218,-71407 -5218,-148640zm-4842 -5320c0,-93360 6680,-101265 6680,-179478 0,-73823 4951,-133665 11056,-133665 6108,0 11056,59842 11056,133665 0,41628 7311,57416 7311,147360 0,78714 -1173,143303 -1173,235213 0,82691 -6223,149725 -13898,149725 -7677,0 -13901,-67034 -13901,-149725 0,-107832 -7131,-97565 -7131,-203095zm-32777 -118482c0,-28898 1849,-31343 1849,-55554 0,-22848 1370,-41370 3060,-41370 1690,0 3061,18522 3061,41370 0,12888 2023,17773 2023,45613 0,24360 -324,44355 -324,72802 0,25595 -1724,46343 -3848,46343 -2124,0 -3848,-20748 -3848,-46343 0,-33377 -1973,-30198 -1973,-62861zm-4073 -3827c0,-46908 3357,-50877 3357,-90174 0,-37089 2485,-67156 5553,-67156 3070,0 5556,30067 5556,67156 0,20916 3673,28846 3673,74037 0,39549 -591,71998 -591,118175 0,41545 -3124,75225 -6981,75225 -3856,0 -6983,-33680 -6983,-75225 0,-54176 -3584,-49018 -3584,-102038zm-4142 -4551c0,-68329 4889,-74114 4889,-131358 0,-54026 3622,-97824 8093,-97824 4466,0 8091,43798 8091,97824 0,30467 5349,42023 5349,107852 0,57608 -858,104877 -858,172144 0,60518 -4553,109579 -10174,109579 -5616,0 -10171,-49061 -10171,-109579 0,-78920 -5219,-71406 -5219,-148638zm-4840 -5319c0,-93360 6681,-101265 6681,-179482 0,-73819 4949,-133663 11056,-133663 6105,0 11056,59844 11056,133663 0,41631 7311,57417 7311,147365 0,78713 -1174,143300 -1174,235210 0,82692 -6224,149727 -13900,149727 -7675,0 -13900,-67035 -13900,-149727 0,-107834 -7130,-97563 -7130,-203093zm-26077 -504599c0,-28898 1848,-31346 1848,-55554 0,-22848 1369,-41371 3061,-41371 1689,0 3059,18523 3059,41371 0,12884 2023,17772 2023,45610 0,24366 -325,44356 -325,72803 0,25596 -1721,46344 -3846,46344 -2123,0 -3847,-20748 -3847,-46344 0,-33376 -1973,-30196 -1973,-62859zm-4073 -3828c0,-46906 3355,-50877 3355,-90176 0,-37086 2489,-67155 5557,-67155 3065,0 5553,30069 5553,67155 0,20917 3673,28849 3673,74039 0,39546 -590,71998 -590,118176 0,41545 -3127,75224 -6983,75224 -3857,0 -6982,-33679 -6982,-75224 0,-54177 -3583,-49019 -3583,-102039zm-4142 -4549c0,-68331 4888,-74115 4888,-131359 0,-54027 3622,-97825 8092,-97825 4468,0 8092,43798 8092,97825 0,30468 5350,42021 5350,107851 0,57608 -859,104878 -859,172145 0,60517 -4556,109579 -10173,109579 -5618,0 -10174,-49062 -10174,-109579 0,-78920 -5216,-71405 -5216,-148637zm-4840 -5320c0,-93362 6679,-101265 6679,-179481 0,-73822 4951,-133668 11055,-133668 6108,0 11056,59846 11056,133668 0,41629 7311,57415 7311,147359 0,78716 -1173,143303 -1173,235215 0,82692 -6225,149726 -13900,149726 -7675,0 -13899,-67034 -13899,-149726 0,-107834 -7129,-97565 -7129,-203093zm13811 841354c0,-28897 1849,-31342 1849,-55550 0,-22850 1371,-41375 3061,-41375 1690,0 3061,18525 3061,41375 0,12885 2022,17770 2022,45610 0,24364 -325,44355 -325,72804 0,25592 -1723,46341 -3847,46341 -2124,0 -3848,-20749 -3848,-46341 0,-33378 -1973,-30200 -1973,-62864zm-4072 -3826c0,-46904 3356,-50875 3356,-90174 0,-37089 2486,-67157 5554,-67157 3068,0 5555,30068 5555,67157 0,20915 3674,28848 3674,74039 0,39547 -591,71996 -591,118174 0,41546 -3127,75226 -6983,75226 -3856,0 -6981,-33680 -6981,-75226 0,-54177 -3584,-49018 -3584,-102039zm-4142 -4552c0,-68329 4888,-74111 4888,-131355 0,-54029 3623,-97826 8092,-97826 4468,0 8092,43797 8092,97826 0,30468 5349,42021 5349,107851 0,57607 -858,104877 -858,172146 0,60517 -4553,109578 -10172,109578 -5619,0 -10173,-49061 -10173,-109578 0,-78923 -5218,-71407 -5218,-148642zm-4840 -5320c0,-93358 6679,-101263 6679,-179479 0,-73820 4950,-133664 11056,-133664 6107,0 11058,59844 11058,133664 0,41630 7310,57416 7310,147363 0,78714 -1174,143302 -1174,235214 0,82690 -6223,149724 -13900,149724 -7676,0 -13899,-67034 -13899,-149724 0,-107835 -7130,-97566 -7130,-203098zm-23882 -485162c0,-28899 1849,-31346 1849,-55556 0,-22847 1368,-41371 3060,-41371 1690,0 3059,18524 3059,41371 0,12887 2023,17773 2023,45612 0,24365 -325,44356 -325,72803 0,25595 -1721,46342 -3847,46342 -2123,0 -3846,-20747 -3846,-46342 0,-33377 -1973,-30197 -1973,-62859zm-4073 -3830c0,-46905 3355,-50875 3355,-90173 0,-37089 2488,-67156 5555,-67156 3068,0 5554,30067 5554,67156 0,20915 3674,28849 3674,74038 0,39548 -590,71997 -590,118176 0,41543 -3127,75223 -6983,75223 -3856,0 -6982,-33680 -6982,-75223 0,-54178 -3583,-49018 -3583,-102041zm-4142 -4551c0,-68326 4888,-74111 4888,-131356 0,-54027 3622,-97826 8092,-97826 4468,0 8091,43799 8091,97826 0,30470 5350,42024 5350,107851 0,57608 -858,104877 -858,172145 0,60520 -4554,109580 -10173,109580 -5618,0 -10173,-49060 -10173,-109580 0,-78920 -5217,-71405 -5217,-148640zm-4840 -5320c0,-93359 6678,-101263 6678,-179478 0,-73821 4949,-133666 11057,-133666 6107,0 11056,59845 11056,133666 0,41630 7311,57415 7311,147363 0,78711 -1174,143300 -1174,235214 0,82690 -6223,149723 -13900,149723 -7676,0 -13899,-67033 -13899,-149723 0,-107837 -7129,-97567 -7129,-203099zm-23965 -504530c0,-28893 1848,-31343 1848,-55550 0,-22849 1370,-41374 3060,-41374 1690,0 3062,18525 3062,41374 0,12885 2021,17771 2021,45610 0,24364 -324,44355 -324,72804 0,25593 -1722,46343 -3848,46343 -2123,0 -3846,-20750 -3846,-46343 0,-33378 -1973,-30199 -1973,-62864zm-4074 -3824c0,-46906 3357,-50877 3357,-90175 0,-37089 2486,-67157 5555,-67157 3068,0 5553,30068 5553,67157 0,20915 3675,28847 3675,74037 0,39548 -591,71999 -591,118177 0,41545 -3128,75222 -6982,75222 -3857,0 -6983,-33677 -6983,-75222 0,-54179 -3584,-49019 -3584,-102039zm-4142 -4552c0,-68328 4889,-74113 4889,-131355 0,-54029 3622,-97829 8092,-97829 4467,0 8092,43800 8092,97829 0,30467 5352,42021 5352,107849 0,57609 -861,104876 -861,172146 0,60519 -4555,109578 -10173,109578 -5619,0 -10172,-49059 -10172,-109578 0,-78923 -5219,-71407 -5219,-148640zm-4840 -5319c0,-93361 6681,-101265 6681,-179478 0,-73824 4949,-133668 11055,-133668 6106,0 11057,59844 11057,133668 0,41628 7310,57415 7310,147361 0,78714 -1174,143303 -1174,235213 0,82691 -6222,149723 -13899,149723 -7676,0 -13899,-67032 -13899,-149723 0,-107836 -7131,-97568 -7131,-203096zm10895 817785c0,-28896 1847,-31344 1847,-55553 0,-22847 1372,-41372 3062,-41372 1689,0 3060,18525 3060,41372 0,12885 2022,17770 2022,45612 0,24362 -325,44356 -325,72803 0,25594 -1722,46342 -3847,46342 -2123,0 -3845,-20748 -3845,-46342 0,-33377 -1974,-30200 -1974,-62862zm-4073 -3827c0,-46905 3356,-50878 3356,-90174 0,-37088 2487,-67155 5555,-67155 3066,0 5553,30067 5553,67155 0,20916 3674,28846 3674,74038 0,39549 -589,71995 -589,118176 0,41543 -3126,75223 -6983,75223 -3858,0 -6984,-33680 -6984,-75223 0,-54178 -3582,-49018 -3582,-102040zm-4141 -4552c0,-68327 4887,-74111 4887,-131356 0,-54027 3623,-97825 8092,-97825 4469,0 8091,43798 8091,97825 0,30468 5352,42022 5352,107852 0,57605 -859,104875 -859,172145 0,60517 -4555,109578 -10174,109578 -5617,0 -10172,-49061 -10172,-109578 0,-78922 -5217,-71407 -5217,-148641zm-4841 -5320c0,-93359 6678,-101265 6678,-179481 0,-73817 4951,-133663 11056,-133663 6107,0 11057,59846 11057,133663 0,41631 7311,57420 7311,147366 0,78712 -1173,143300 -1173,235212 0,82690 -6224,149724 -13900,149724 -7677,0 -13899,-67034 -13899,-149724 0,-107834 -7130,-97565 -7130,-203097zm-11734 391398c0,-28900 -1850,-31347 -1850,-55556 0,-22849 -1369,-41371 -3059,-41371 -1690,0 -3058,18522 -3058,41371 0,12887 -2024,17771 -2024,45612 0,24364 324,44355 324,72802 0,25595 1721,46343 3847,46343 2124,0 3847,-20748 3847,-46343 0,-33377 1973,-30198 1973,-62858zm4072 -3829c0,-46906 -3355,-50877 -3355,-90176 0,-37088 -2487,-67153 -5554,-67153 -3067,0 -5555,30065 -5555,67153 0,20917 -3674,28849 -3674,74039 0,39548 590,71999 590,118175 0,41545 3128,75224 6984,75224 3856,0 6983,-33679 6983,-75224 0,-54177 3581,-49018 3581,-102038zm4143 -4551c0,-68329 -4888,-74112 -4888,-131356 0,-54029 -3622,-97828 -8092,-97828 -4469,0 -8091,43799 -8091,97828 0,30466 -5350,42022 -5350,107849 0,57609 858,104875 858,172146 0,60519 4554,109577 10173,109577 5618,0 10170,-49058 10170,-109577 0,-78922 5220,-71408 5220,-148639zm4839 -5319c0,-93359 -6677,-101265 -6677,-179481 0,-73821 -4951,-133666 -11056,-133666 -6108,0 -11057,59845 -11057,133666 0,41629 -7312,57416 -7312,147362 0,78716 1175,143302 1175,235215 0,82690 6222,149723 13899,149723 7676,0 13898,-67033 13898,-149723 0,-107836 7130,-97566 7130,-203096zm-12340 -798734c0,-28898 -1849,-31347 -1849,-55554 0,-22849 -1368,-41374 -3058,-41374 -1691,0 -3062,18525 -3062,41374 0,12884 -2022,17772 -2022,45612 0,24362 325,44353 325,72802 0,25595 1720,46344 3846,46344 2123,0 3847,-20749 3847,-46344 0,-33376 1973,-30199 1973,-62860zm4075 -3830c0,-46905 -3356,-50874 -3356,-90173 0,-37089 -2488,-67156 -5556,-67156 -3068,0 -5555,30067 -5555,67156 0,20916 -3671,28849 -3671,74037 0,39547 588,71998 588,118177 0,41545 3126,75225 6984,75225 3855,0 6982,-33680 6982,-75225 0,-54179 3584,-49019 3584,-102041zm4140 -4550c0,-68327 -4888,-74113 -4888,-131357 0,-54026 -3623,-97826 -8092,-97826 -4468,0 -8091,43800 -8091,97826 0,30468 -5350,42024 -5350,107850 0,57609 858,104878 858,172148 0,60518 4555,109577 10172,109577 5618,0 10174,-49059 10174,-109577 0,-78923 5217,-71408 5217,-148641zm4842 -5318c0,-93361 -6681,-101267 -6681,-179480 0,-73820 -4949,-133667 -11055,-133667 -6108,0 -11057,59847 -11057,133667 0,41629 -7309,57415 -7309,147362 0,78714 1172,143299 1172,235213 0,82692 6224,149726 13900,149726 7676,0 13901,-67034 13901,-149726 0,-107835 7129,-97566 7129,-203095zm-53754 -285070c0,-28897 -1849,-31345 -1849,-55555 0,-22847 -1370,-41370 -3061,-41370 -1689,0 -3060,18523 -3060,41370 0,12887 -2022,17773 -2022,45613 0,24365 325,44356 325,72801 0,25595 1723,46344 3847,46344 2123,0 3847,-20749 3847,-46344 0,-33374 1973,-30196 1973,-62859zm4072 -3827c0,-46907 -3353,-50877 -3353,-90175 0,-37087 -2489,-67155 -5556,-67155 -3068,0 -5555,30068 -5555,67155 0,20916 -3673,28848 -3673,74038 0,39549 589,71999 589,118177 0,41544 3127,75223 6984,75223 3856,0 6981,-33679 6981,-75223 0,-54179 3583,-49020 3583,-102040zm4142 -4551c0,-68330 -4887,-74112 -4887,-131357 0,-54029 -3623,-97825 -8092,-97825 -4469,0 -8093,43796 -8093,97825 0,30468 -5348,42023 -5348,107851 0,57606 857,104875 857,172145 0,60519 4555,109580 10174,109580 5617,0 10173,-49061 10173,-109580 0,-78922 5216,-71405 5216,-148639zm4840 -5319c0,-93360 -6678,-101265 -6678,-179479 0,-73823 -4952,-133669 -11057,-133669 -6107,0 -11057,59846 -11057,133669 0,41627 -7308,57415 -7308,147359 0,78716 1172,143303 1172,235216 0,82691 6224,149724 13900,149724 7676,0 13899,-67033 13899,-149724 0,-107835 7129,-97568 7129,-203096zm-9342 806853c0,-28897 -1849,-31345 -1849,-55551 0,-22849 -1371,-41373 -3061,-41373 -1688,0 -3060,18524 -3060,41373 0,12884 -2021,17770 -2021,45610 0,24365 325,44354 325,72804 0,25594 1721,46342 3844,46342 2125,0 3847,-20748 3847,-46342 0,-33377 1975,-30201 1975,-62863zm4072 -3827c0,-46907 -3356,-50875 -3356,-90173 0,-37089 -2486,-67156 -5554,-67156 -3067,0 -5556,30067 -5556,67156 0,20916 -3673,28847 -3673,74036 0,39550 590,72000 590,118176 0,41546 3125,75225 6984,75225 3857,0 6983,-33679 6983,-75225 0,-54177 3582,-49018 3582,-102039zm4142 -4550c0,-68328 -4888,-74113 -4888,-131357 0,-54026 -3623,-97825 -8092,-97825 -4470,0 -8091,43799 -8091,97825 0,30467 -5351,42023 -5351,107849 0,57612 859,104878 859,172148 0,60519 4555,109578 10173,109578 5616,0 10171,-49059 10171,-109578 0,-78923 5219,-71408 5219,-148640zm4840 -5320c0,-93360 -6679,-101264 -6679,-179478 0,-73821 -4949,-133666 -11057,-133666 -6105,0 -11056,59845 -11056,133666 0,41629 -7311,57415 -7311,147361 0,78713 1175,143301 1175,235212 0,82692 6221,149724 13899,149724 7676,0 13899,-67032 13899,-149724 0,-107833 7130,-97566 7130,-203095zm-50827 -257059c0,-28898 -1850,-31344 -1850,-55552 0,-22850 -1368,-41373 -3058,-41373 -1691,0 -3061,18523 -3061,41373 0,12884 -2023,17770 -2023,45612 0,24361 325,44352 325,72802 0,25594 1720,46343 3847,46343 2124,0 3847,-20749 3847,-46343 0,-33377 1973,-30199 1973,-62862zm4072 -3827c0,-46908 -3355,-50877 -3355,-90175 0,-37089 -2487,-67157 -5554,-67157 -3068,0 -5555,30068 -5555,67157 0,20917 -3674,28848 -3674,74037 0,39548 589,71997 589,118175 0,41547 3128,75227 6984,75227 3858,0 6983,-33680 6983,-75227 0,-54177 3582,-49017 3582,-102037zm4143 -4552c0,-68328 -4888,-74114 -4888,-131355 0,-54028 -3623,-97825 -8092,-97825 -4468,0 -8091,43797 -8091,97825 0,30464 -5351,42019 -5351,107848 0,57610 859,104878 859,172147 0,60517 4554,109578 10172,109578 5619,0 10172,-49061 10172,-109578 0,-78922 5219,-71408 5219,-148640zm4839 -5319c0,-93360 -6678,-101266 -6678,-179481 0,-73821 -4950,-133665 -11057,-133665 -6106,0 -11055,59844 -11055,133665 0,41632 -7311,57418 -7311,147364 0,78713 1174,143299 1174,235212 0,82689 6220,149724 13897,149724 7678,0 13900,-67035 13900,-149724 0,-107835 7130,-97564 7130,-203095z"/>
     <path class="fil6 str3" style="mask:url(#id4)" d="M12096 26162l0 1032504c0,6465 5289,11755 11754,11755l157926 0c6465,0 11754,-5290 11754,-11755l0 -1032504c0,-6465 -5289,-11754 -11754,-11754l-157926 0c-6465,0 -11754,5289 -11754,11754z"/>
    </g>
   </g>
   <path class="fil1 str4" d="M12095 27035l0 1030758c0,6860 5612,12471 12472,12471l167575 0c6860,0 12473,-5611 12473,-12471l0 -1030758c0,-6861 -5613,-12472 -12473,-12472l-167575 0c-6860,0 -12472,5611 -12472,12472z"/>
  </g>
 </g>
</svg>
