<?xml version="1.0" encoding="UTF-8"?>
<!DOCTYPE svg PUBLIC "-//W3C//DTD SVG 1.1//EN" "http://www.w3.org/Graphics/SVG/1.1/DTD/svg11.dtd">
<!-- Creator: CorelDRAW X7 -->
<svg xmlns="http://www.w3.org/2000/svg" xml:space="preserve" width="1.63071in" height="0.652437in" version="1.1" style="shape-rendering:geometricPrecision; text-rendering:geometricPrecision; image-rendering:optimizeQuality; fill-rule:evenodd; clip-rule:evenodd"
viewBox="0 0 8958 3584"
 xmlns:xlink="http://www.w3.org/1999/xlink">
 <defs>
  <style type="text/css">
   <![CDATA[
    .fil3 {fill:#985426}
    .fil2 {fill:#FFFFCB}
    .fil0 {fill:#4D4D4D;fill-opacity:0.419608}
    .fil1 {fill:url(#id0)}
    .fil6 {fill:url(#id1)}
    .fil4 {fill:url(#id2)}
    .fil5 {fill:url(#id3)}
   ]]>
  </style>
  <linearGradient id="id0" gradientUnits="userSpaceOnUse" x1="5002.86" y1="-297.442" x2="4099.44" y2="3710.9">
   <stop offset="0" style="stop-opacity:1; stop-color:#A8411E"/>
   <stop offset="1" style="stop-opacity:1; stop-color:#5E2224"/>
  </linearGradient>
  <radialGradient id="id1" gradientUnits="userSpaceOnUse" gradientTransform="matrix(1.25966E-005 0.410153 -1.10403 2.56339E-005 5935 -178)" cx="4220.55" cy="1553.39" r="2883.72" fx="4220.55" fy="1553.39">
   <stop offset="0" style="stop-opacity:1; stop-color:#FFEBB9"/>
   <stop offset="1" style="stop-opacity:1; stop-color:#FDE09C"/>
  </radialGradient>
  <radialGradient id="id2" gradientUnits="userSpaceOnUse" gradientTransform="matrix(1.25966E-005 -0.41015 -1.10403 -2.56339E-005 5801 3194)" cx="4158" cy="1488.42" r="3538.21" fx="4158" fy="1488.42">
   <stop offset="0" style="stop-opacity:1; stop-color:#FFD6A1"/>
   <stop offset="1" style="stop-opacity:1; stop-color:#FDBD66"/>
  </radialGradient>
  <radialGradient id="id3" gradientUnits="userSpaceOnUse" gradientTransform="matrix(1.25966E-005 -0.416127 -1.10403 -2.60073E-005 5885 3280)" cx="4187.05" cy="1537.69" r="3319.98" fx="4187.05" fy="1537.69">
   <stop offset="0" style="stop-opacity:1; stop-color:#FFE1BB"/>
   <stop offset="1" style="stop-opacity:1; stop-color:#FDCF8F"/>
  </radialGradient>
 </defs>
 <g id="Layer_x0020_1">
  <metadata id="CorelCorpID_0Corel-Layer"/>
  <path class="fil0" d="M7703 212c-1591,-39 -4568,-86 -6292,43 -1530,113 -1348,89 -1407,1302 -38,784 193,1712 339,1818 361,261 6731,215 7595,187 303,-9 588,-51 742,-254 297,-393 291,-1147 269,-1750 -56,-1512 107,-1313 -1246,-1346z"/>
  <path class="fil1" d="M7723 41c-1565,-38 -4494,-85 -6191,43 -1505,114 -1325,90 -1384,1302 -37,784 190,1712 334,1818 355,262 6622,215 7472,188 298,-10 579,-51 730,-255 293,-392 287,-1147 265,-1750 -55,-1512 105,-1313 -1226,-1346zm-6873 1553c-20,38 -32,86 -31,128 1,67 32,130 61,189 18,38 45,72 77,100 192,172 473,79 557,-154 46,-127 -3,-305 -99,-392 -157,-142 -481,-28 -565,129zm6670 0c-20,38 -32,86 -31,128 2,67 33,130 61,189 18,38 46,72 77,100 192,172 473,79 558,-154 46,-127 -3,-305 -100,-392 -156,-142 -480,-28 -565,129z"/>
  <path class="fil2" d="M7366 3069c-721,17 -1764,35 -2815,35 -36,-97 -68,-197 -97,-298 10,5 0,143 -14,298 -900,-2 -1798,-18 -2497,-61 36,-92 66,-189 90,-291 -76,99 -156,192 -241,281l-5 0c-1289,-92 -1207,-78 -1241,-958 398,-40 235,-93 -6,-144l-1 -3c-33,-665 40,-1452 170,-1542 45,-32 201,-57 436,-78 109,71 228,133 356,184 -61,-65 -120,-130 -176,-198 465,-32 1142,-51 1884,-61 162,-2 557,276 724,274 148,-1 66,-282 214,-283 1213,-7 2431,0 3064,2 -75,98 -156,192 -242,282 183,-73 347,-166 490,-281 46,0 85,0 116,0 250,-2 599,49 735,139 156,103 227,256 251,438 39,298 -45,673 -81,1027 -508,179 -295,184 -14,168 -71,1061 43,1061 -738,1066 -125,-329 -143,-210 -135,1 -69,0 -145,1 -227,3z"/>
  <path class="fil3" d="M7304 3201c-694,16 -1692,34 -2703,34 -57,-138 -106,-281 -148,-429 13,6 -7,232 -27,429 -923,-2 -1844,-19 -2539,-67 63,-129 111,-268 146,-416 -112,144 -232,277 -362,400 -1137,-83 -996,-109 -1045,-1080l0 -7c254,-33 169,-74 -4,-116 -17,-626 72,-1301 170,-1402 47,-49 252,-89 563,-120 47,23 95,45 145,65 -22,-24 -44,-48 -66,-72 481,-44 1181,-69 1938,-81l165 -3 379 195 214 -201c128,-120 353,-2 527,-2 974,0 1895,16 2440,37 -41,49 -84,96 -129,143 99,-39 192,-85 280,-136 111,5 200,11 260,17 243,24 587,49 720,138 152,102 221,253 245,433 34,262 -28,584 -66,897 -374,139 -242,155 -16,146 -2,23 -4,46 -6,68 -76,1062 40,1118 -610,1125 -198,-571 -195,-305 -175,1 -88,0 -186,1 -296,4z"/>
  <path class="fil4" d="M7304 3090c-704,16 -1721,35 -2746,34 -39,-103 -74,-210 -105,-318 10,5 -1,156 -16,318 -906,-2 -1810,-18 -2502,-64 40,-98 72,-200 97,-308 -80,104 -166,203 -256,297 -1206,-87 -1108,-89 -1145,-984 246,-33 164,-74 -5,-115 -32,-655 67,-1403 166,-1515 37,-41 174,-77 385,-106 100,62 208,117 323,163 -57,-60 -111,-121 -163,-183 514,-56 1327,-87 2200,-100 49,-1 313,246 362,245 27,-1 -153,-248 -82,-249 1313,-9 2701,12 3373,48 -70,88 -144,173 -222,255 161,-64 307,-144 438,-240 40,3 74,6 102,10 243,30 587,49 720,138 152,101 221,253 244,433 22,165 6,354 -19,549 -20,154 -44,311 -60,464 -352,132 -229,150 -11,141 -71,1041 39,1077 -647,1082 -136,-364 -152,-227 -142,1 -86,0 -182,1 -289,4z"/>
  <path class="fil5" d="M7101 2907c-652,14 -1594,30 -2544,30 -36,-89 -68,-180 -97,-273 10,5 0,134 -15,273 -839,-2 -1676,-16 -2317,-55 37,-84 67,-172 90,-264 -74,90 -153,174 -237,254 -1117,-74 -1026,-76 -1060,-841 227,-28 151,-63 -5,-98 -29,-561 62,-1200 154,-1296 34,-36 161,-66 356,-91 92,54 193,100 300,139 -53,-51 -103,-103 -152,-156 476,-48 1230,-74 2038,-86 46,0 290,211 336,210 24,-1 -142,-212 -76,-213 1215,-7 2501,10 3123,41 -64,76 -133,148 -206,218 150,-55 285,-123 406,-205 37,3 69,5 95,8 224,26 543,42 666,118 141,87 205,217 227,371 20,141 5,303 -18,470 -18,131 -41,265 -55,396 -327,113 -213,128 -11,121 -66,890 36,921 -599,925 -126,-312 -141,-194 -131,1 -80,0 -169,1 -268,3z"/>
  <path class="fil6" d="M6866 697c-592,-11 -1447,-23 -2309,-23 -33,71 -63,143 -88,218 8,-4 -1,-107 -14,-218 -762,1 -1522,12 -2104,44 34,67 61,137 82,211 -68,-72 -140,-140 -216,-203 -1013,59 -932,60 -962,673 206,22 137,50 -5,78 -26,449 56,961 140,1037 31,29 146,53 323,73 84,-43 175,-80 273,-112 -48,41 -94,83 -138,125 432,39 1116,60 1851,69 41,0 263,-168 304,-168 23,1 -129,170 -69,170 1104,6 2271,-8 2836,-32 -58,-61 -121,-119 -187,-175 136,44 259,99 369,165 33,-3 62,-5 86,-7 204,-21 493,-34 605,-95 128,-69 186,-173 206,-296 18,-113 4,-242 -17,-376 -16,-105 -37,-213 -50,-317 -296,-91 -192,-103 -9,-97 -60,-712 32,-737 -545,-740 -114,249 -127,155 -118,-1 -73,0 -154,-1 -244,-3z"/>
 </g>
</svg>
