<?xml version="1.0" encoding="UTF-8"?>
<!DOCTYPE svg PUBLIC "-//W3C//DTD SVG 1.1//EN" "http://www.w3.org/Graphics/SVG/1.1/DTD/svg11.dtd">
<!-- Creator: CorelDRAW X7 -->
<svg xmlns="http://www.w3.org/2000/svg" xml:space="preserve" width="83.4234mm" height="66.8296mm" version="1.1" style="shape-rendering:geometricPrecision; text-rendering:geometricPrecision; image-rendering:optimizeQuality; fill-rule:evenodd; clip-rule:evenodd"
viewBox="0 0 5102336 4087427"
 xmlns:xlink="http://www.w3.org/1999/xlink">
 <defs>
  <style type="text/css">
   <![CDATA[
    .str0 {stroke:#DAA725;stroke-width:15529}
    .fil0 {fill:#996633}
    .fil1 {fill:url(#id0)}
   ]]>
  </style>
  <linearGradient id="id0" gradientUnits="userSpaceOnUse" x1="2.55117e+006" y1="2.52622e+006" x2="2.55117e+006" y2="1.56121e+006">
   <stop offset="0" style="stop-opacity:1; stop-color:#CC9933"/>
   <stop offset="1" style="stop-opacity:1; stop-color:#996633"/>
  </linearGradient>
 </defs>
 <g id="Layer_x0020_1">
  <metadata id="CorelCorpID_0Corel-Layer"/>
  <path class="fil0" d="M4831217 0l-4560092 0 -28899 28220c25033,23486 40678,56862 40678,93890 0,71088 -57620,128715 -128709,128715 -38128,0 -72379,-16581 -95944,-42917l-58245 56880 0 3557826 42930 41933c22666,-19914 52385,-32006 84929,-32006 71095,0 128715,57627 128715,128715 0,31462 -11290,60281 -30030,82636l44575 43535 4560092 0 34746 -33933c-11523,-19284 -18146,-41822 -18146,-65914 0,-71088 57626,-128715 128715,-128715 25174,0 48660,7229 68489,19725l57315 -55976 0 -3557826 -32758 -31993c-19242,11449 -41713,18030 -65725,18030 -71089,0 -128715,-57627 -128715,-128715 0,-22930 6000,-44447 16507,-63095l-60428 -59015z"/>
  <path class="fil1 str0" d="M4794092 33278l-4485842 0 -28428 27762c24624,23100 40018,55932 40018,92360 0,69933 -56685,126618 -126617,126618 -37505,0 -71199,-16312 -94379,-42220l-57297 55957 0 3499893 42233 41248c22293,-19591 51529,-31480 83547,-31480 69932,0 126617,56684 126617,126617 0,30948 -11107,59296 -29541,81290l43847 42826 4485842 0 34177 -33382c-11333,-18967 -17847,-41138 -17847,-64838 0,-69933 56685,-126617 126618,-126617 24764,0 47865,7107 67376,19400l56379 -55064 0 -3499893 -32227 -31474c-18929,11266 -41033,17737 -64654,17737 -69932,0 -126617,-56685 -126617,-126618 0,-22556 5902,-43724 16238,-62067l-59443 -58055z"/>
 </g>
</svg>
