<?xml version="1.0" encoding="UTF-8"?>
<!DOCTYPE svg PUBLIC "-//W3C//DTD SVG 1.1//EN" "http://www.w3.org/Graphics/SVG/1.1/DTD/svg11.dtd">
<!-- Creator: CorelDRAW X7 -->
<svg xmlns="http://www.w3.org/2000/svg" xml:space="preserve" width="42.914mm" height="94.456mm" version="1.1" style="shape-rendering:geometricPrecision; text-rendering:geometricPrecision; image-rendering:optimizeQuality; fill-rule:evenodd; clip-rule:evenodd"
viewBox="0 0 3453250 7600788"
 xmlns:xlink="http://www.w3.org/1999/xlink">
 <defs>
  <style type="text/css">
   <![CDATA[
    .str0 {stroke:#996633;stroke-width:14194.7}
    .str1 {stroke:#CC9933;stroke-width:20431.1}
    .fil3 {fill:none}
    .fil0 {fill:#663333}
    .fil1 {fill:#946327}
    .fil2 {fill:#AD843F}
    .fil4 {fill:url(#id1)}
   ]]>
  </style>
   <clipPath id="id0">
    <path d="M7097 220646l0 7032925c0,117453 96097,213549 213549,213549l2869166 0c117452,0 213548,-96096 213548,-213549l0 -7032925c0,-117460 -96096,-213549 -213548,-213549l-2869166 0c-117452,0 -213549,96089 -213549,213549z"/>
   </clipPath>
  <linearGradient id="id1" gradientUnits="userSpaceOnUse" x1="263512" y1="3.62945e+006" x2="3.06104e+006" y2="3.62945e+006">
   <stop offset="0" style="stop-opacity:1; stop-color:#A3701E"/>
   <stop offset="1" style="stop-opacity:1; stop-color:#996633"/>
  </linearGradient>
 </defs>
 <g id="Layer_x0020_1">
  <metadata id="CorelCorpID_0Corel-Layer"/>
  <rect class="fil0 str0" transform="matrix(5.50999E-014 -0.901058 1.61586 1.85349E-014 47582.9 7.59369E+006)" width="8279190" height="2103261" rx="136258" ry="136258"/>
  <path class="fil1" d="M7097 220646l0 7032925c0,117453 96097,213549 213549,213549l2869166 0c117452,0 213548,-96096 213548,-213549l0 -7032925c0,-117460 -96096,-213549 -213548,-213549l-2869166 0c-117452,0 -213549,96089 -213549,213549z"/>
  <g style="clip-path:url(#id0)">
   <g id="_2064756704">
    <path id="1" class="fil2" d="M-384377 3647720c111088,-793723 -17083,-867272 75979,-1532228 87864,-627611 57101,-1141092 -68672,-1146926 -125773,-5818 -298951,498257 -386791,1125851 -49569,353895 -218932,481157 -325956,1245838 -93674,669189 -146365,1219405 -255763,2000816 -98389,702986 -49971,1278806 108151,1286129 158121,7315 366086,-556645 464499,-1259647 128324,-916768 262973,-822651 388553,-1719833zm-93094 35631c84967,-606873 -13060,-663137 58122,-1171573 67168,-479893 43663,-872510 -52522,-876968 -96168,-4450 -228596,380965 -295748,860850 -37893,270618 -167408,367913 -249229,952593 -71641,511695 -111932,932411 -195556,1529886 -75246,537542 -38214,977836 82682,983437 120929,5585 279928,-425633 355159,-963175 98124,-700982 201076,-629035 297092,-1315050zm-79600 30506c62572,-447078 -9624,-488536 42801,-863079 49489,-353525 32156,-642763 -38697,-646038 -70837,-3275 -168406,280636 -217854,634161 -27939,199354 -123343,271044 -183615,701755 -52747,376957 -82432,686876 -144064,1127017 -55419,396013 -28148,720352 60899,724464 89096,4128 206243,-313548 261654,-709520 72293,-516419 148135,-463398 218876,-968760zm-81556 24535c44025,-314690 -1014,-343595 35897,-607243 34828,-248819 26925,-452196 -17679,-454273 -44587,-2060 -108995,197978 -143798,446829 -19658,140298 -80485,191050 -122940,494233 -37121,265315 -59041,483418 -102373,793240 -39028,278705 -25219,506770 30852,509361 56030,2600 133120,-221257 172139,-499986 50873,-363471 98100,-326439 147902,-682161zm-73444 31625c21131,-151017 -475,-164890 17204,-291387 16738,-119400 12940,-216993 -8457,-217983 -21421,-989 -52297,94986 -68994,214386 -9439,67345 -38625,91687 -59008,237167 -17792,127318 -28301,231968 -49126,380634 -18734,133740 -12103,243186 14822,244409 26885,1256 63852,-106155 82593,-239902 24407,-174417 47075,-156657 70966,-327324zm705368 1814650c111120,-793723 -17051,-867280 76027,-1532244 87824,-627586 57085,-1141092 -68688,-1146902 -125790,-5810 -298967,498233 -386815,1125827 -49529,353919 -218908,481157 -325948,1245855 -93658,669180 -146365,1219404 -255731,2000815 -98406,702986 -49987,1278815 108118,1286113 158138,7331 366086,-556629 464492,-1259615 128308,-916784 262981,-822675 388545,-1719849zm-93063 35640c84928,-606898 -13060,-663146 58099,-1171598 67192,-479877 43663,-872510 -52482,-876960 -96185,-4442 -228612,380965 -295764,860858 -37893,270594 -167408,367905 -249253,952601 -71617,511695 -111908,932412 -195556,1529870 -75222,537550 -38231,977828 82690,983437 120905,5593 279912,-425625 355158,-963158 98116,-700991 201077,-629051 297108,-1315050zm-79616 30489c62589,-447086 -9632,-488511 42818,-863079 49472,-353509 32155,-642755 -38698,-646022 -70837,-3291 -168405,280636 -217878,634161 -27914,199362 -123319,271012 -183606,701755 -52772,376949 -82457,686876 -144048,1127026 -55435,395980 -28148,720343 60899,724455 89071,4128 206202,-313548 261637,-709528 72294,-516411 148136,-463390 218876,-968768zm-81579 24543c44065,-314690 -974,-343594 35937,-607243 34827,-248819 26885,-452212 -17695,-454272 -44572,-2052 -108979,197978 -143822,446812 -19619,140322 -80461,191066 -122901,494233 -37136,265331 -59056,483442 -102413,793240 -39027,278729 -25178,506770 30852,509386 56087,2567 133136,-221274 172140,-499995 50896,-363471 98140,-326447 147902,-682161zm-73404 31609c21115,-151001 -499,-164881 17204,-291379 16738,-119408 12923,-217001 -8481,-217999 -21397,-997 -52289,95018 -69011,214402 -9431,67337 -38601,91695 -58943,237159 -17856,127318 -28366,231984 -49167,380651 -18717,133723 -12102,243161 14823,244408 26900,1248 63852,-106171 82585,-239918 24430,-174393 47083,-156633 70990,-327324zm1046331 -5711913c111104,-793723 -17067,-867280 76011,-1532244 87848,-627594 57109,-1141076 -68688,-1146918 -125789,-5801 -298951,498249 -386791,1125835 -49537,353903 -218932,481165 -325972,1245855 -93658,669189 -146373,1219412 -255731,2000807 -98405,702994 -49987,1278807 108151,1286137 158089,7315 366070,-556644 464459,-1259630 128340,-916793 262973,-822684 388561,-1719842zm-93046 35632c84935,-606890 -13076,-663146 58066,-1171590 67192,-479877 43663,-872510 -52482,-876968 -96184,-4450 -228596,380965 -295788,860842 -37869,270626 -167367,367921 -249205,952625 -71625,511679 -111916,932388 -195555,1529870 -75247,537542 -38239,977821 82682,983421 120904,5601 279911,-425625 355158,-963166 98124,-700983 201092,-629035 297124,-1315034zm-79632 30490c62572,-447087 -9624,-488512 42801,-863080 49489,-353508 32172,-642755 -38681,-646038 -70853,-3275 -168398,280644 -217894,634169 -27899,199354 -123303,271020 -183591,701763 -52771,376941 -82456,686860 -144063,1127010 -55444,395988 -28157,720343 60923,724463 89047,4136 206194,-313540 261629,-709536 72293,-516395 148135,-463390 218876,-968751zm-81572 24543c44065,-314699 -982,-343587 35914,-607244 34843,-248827 26924,-452204 -17704,-454280 -44563,-2060 -108971,197986 -143798,446820 -19634,140306 -80461,191050 -122916,494249 -37145,265315 -59057,483410 -102397,793224 -39020,278729 -25195,506787 30852,509378 56070,2599 133160,-221266 172163,-500003 50857,-363455 98100,-326439 147886,-682144zm-73428 31608c21115,-151008 -499,-164881 17237,-291379 16705,-119400 12891,-217009 -8490,-217990 -21421,-982 -52313,95001 -68994,214393 -9455,67337 -38641,91679 -58984,237175 -17840,127310 -28349,231968 -49150,380627 -18734,133747 -12119,243161 14806,244425 26917,1239 63868,-106179 82585,-239927 24431,-174409 47075,-156649 70990,-327324zm727682 2014254c111128,-793723 -17067,-867264 76011,-1532228 87864,-627603 57109,-1141092 -68680,-1146902 -125781,-5826 -298975,498216 -386799,1125835 -49569,353895 -218948,481149 -325972,1245846 -93650,669181 -146349,1219389 -255723,2000800 -98414,703002 -49995,1278814 108126,1286129 158146,7331 366086,-556629 464476,-1259639 128308,-916768 262997,-822667 388561,-1719841zm-93079 35631c84968,-606881 -13060,-663137 58123,-1171573 67176,-479894 43663,-872518 -52522,-876968 -96168,-4442 -228596,380972 -295748,860850 -37893,270609 -167408,367921 -249245,952609 -71625,511687 -111916,932395 -195556,1529870 -75230,537542 -38223,977844 82682,983437 120921,5584 279928,-425633 355199,-963167 98084,-700990 201052,-629035 297067,-1315058zm-79616 30514c62589,-447086 -9608,-488536 42802,-863079 49512,-353533 32171,-642763 -38682,-646038 -70837,-3267 -168381,280644 -217870,634153 -27906,199362 -123302,271044 -183614,701771 -52748,376949 -82433,686868 -144064,1127017 -55403,395997 -28132,720343 60939,724463 89056,4112 206194,-313555 261613,-709536 72294,-516402 148136,-463405 218876,-968751zm-81555 24543c44065,-314698 -998,-343595 35913,-607236 34803,-248834 26909,-452220 -17679,-454296 -44580,-2052 -108971,197994 -143814,446805 -19618,140330 -80461,191082 -122901,494257 -37144,265315 -59040,483426 -102437,793240 -39003,278713 -25178,506770 30876,509353 56047,2607 133136,-221241 172140,-499970 50888,-363479 98124,-326447 147902,-682153zm-73444 31600c21155,-151000 -475,-164881 17236,-291394 16722,-119384 12932,-216977 -8489,-217975 -21381,-982 -52297,95002 -68994,214402 -9415,67337 -38626,91686 -58968,237158 -17832,127303 -28341,231969 -49167,380619 -18717,133756 -12078,243186 14823,244425 26900,1255 63892,-106163 82593,-239902 24431,-174425 47091,-156658 70966,-327333zm-485494 5599627c111087,-793707 -17068,-867256 75979,-1532220 87864,-627611 57100,-1141100 -68673,-1146910 -125773,-5826 -298950,498216 -386790,1125827 -49553,353911 -218933,481157 -325973,1245838 -93658,669181 -146349,1219405 -255730,2000808 -98406,703002 -49988,1278822 108150,1286145 158106,7315 366086,-556629 464476,-1259639 128324,-916776 262981,-822684 388561,-1719849zm-93079 35639c84951,-606898 -13060,-663145 58107,-1171597 67192,-479870 43662,-872510 -52506,-876944 -96169,-4450 -228597,380964 -295764,860842 -37877,270609 -167408,367921 -249229,952617 -71626,511671 -111933,932395 -195556,1529862 -75247,537541 -38223,977828 82682,983437 120921,5584 279928,-425625 355158,-963167 98124,-700982 201076,-629035 297108,-1315050zm-79616 30506c62589,-447094 -9624,-488528 42802,-863087 49488,-353517 32171,-642747 -38682,-646038 -70853,-3275 -168398,280644 -217870,634169 -27923,199362 -123343,271028 -183630,701771 -52732,376941 -82417,686851 -144048,1127009 -55419,395981 -28148,720343 60923,724455 89047,4128 206210,-313547 261629,-709536 72294,-516386 148136,-463389 218876,-968743zm-81555 24527c44048,-314682 -998,-343587 35897,-607236 34843,-248818 26925,-452220 -17679,-454272 -44588,-2060 -108996,197978 -143798,446797 -19643,140322 -80461,191074 -122941,494257 -37121,265306 -59040,483418 -102397,793224 -39003,278737 -25195,506778 30876,509377 56047,2599 133112,-221250 172139,-499978 50873,-363479 98100,-326463 147903,-682169zm-73461 31608c21148,-151008 -466,-164873 17237,-291386 16737,-119384 12923,-216985 -8474,-217975 -21420,-990 -52296,95002 -68994,214402 -9439,67328 -38641,91678 -58984,237158 -17815,127311 -28325,231969 -49150,380627 -18733,133748 -12103,243170 14822,244417 26901,1247 63853,-106171 82594,-239902 24430,-174417 47074,-156650 70949,-327341zm550015 -2789581c111103,-793723 258072,-854541 351167,-1519498 87848,-627602 261041,-1131644 386815,-1125835 125773,5818 156536,519308 68672,1146902 -49553,353927 82263,495110 -24777,1259784 -93674,669181 -194695,1217175 -304068,1998578 -98414,702986 -306354,1266946 -464460,1259631 -158162,-7315 -206564,-583127 -108150,-1286129 128300,-916785 -30763,-836267 94801,-1733433zm81957 43751c84952,-606914 197343,-653425 268526,-1161869 67151,-479885 199579,-865292 295748,-860850 96184,4450 119714,397083 52522,876952 -37877,270634 62911,378583 -18951,963287 -71601,511687 -148859,930673 -232483,1528156 -75246,537542 -234253,968776 -355158,963175 -120921,-5585 -157953,-445879 -82706,-983429 98124,-700982 -23546,-639439 72502,-1325422zm70129 37418c62549,-447086 145376,-481366 197801,-855917 49473,-353509 147017,-637452 217870,-634169 70861,3291 88170,292529 38698,646038 -27899,199354 46334,278882 -13962,709616 -52771,376942 -109663,685613 -171278,1125771 -55411,395980 -172582,713648 -261629,709528 -89071,-4120 -116342,-328475 -60907,-724463 72277,-516394 -17333,-471050 53407,-976404zm73670 31713c44048,-314699 96554,-339073 133466,-602721 34827,-248819 99218,-448857 143798,-446805 44604,2068 52506,205454 17679,454280 -19635,140330 26297,196015 -16142,499190 -37129,265323 -76188,482629 -119521,792427 -39027,278729 -116109,502578 -172164,499987 -56070,-2591 -69879,-230649 -30851,-509361 50872,-363495 -6060,-331292 43735,-686997zm63707 37957c21147,-151016 46326,-162724 64045,-289214 16682,-119392 47598,-215383 68994,-214402 21405,998 25195,98591 8498,217991 -9439,67329 12593,94061 -7749,239533 -17832,127302 -36549,231582 -57391,380240 -18701,133748 -55692,241150 -82593,239911 -26901,-1240 -33516,-110661 -14806,-244409 24414,-174409 -2889,-158967 21002,-329650zm540197 -5812837c111088,-793723 258088,-854549 351167,-1519513 87848,-627571 261026,-1131629 386799,-1125811 125789,5818 156528,519307 68704,1146893 -49553,353920 82264,495103 -24792,1259792 -93674,669189 -194711,1217175 -304053,1998571 -98429,702985 -306370,1266961 -464515,1259630 -158106,-7290 -206524,-583119 -108135,-1286137 128324,-916768 -30755,-836251 94825,-1733425zm81982 43743c84927,-606898 197294,-653417 268477,-1161861 67175,-479877 199603,-865292 295788,-860842 96169,4458 119674,397091 52506,876960 -37877,270610 62911,378567 -18950,963272 -71618,511686 -148876,930681 -232483,1528164 -75247,537541 -234254,968759 -355175,963166 -120889,-5584 -157937,-445887 -82690,-983428 98124,-700975 -23505,-639424 72527,-1325431zm70088 37426c62589,-447094 145392,-481358 197818,-855917 49472,-353509 147017,-637428 217854,-634153 70853,3283 88210,292513 38697,646022 -27882,199346 46366,278890 -13945,709617 -52772,376941 -109663,685612 -171295,1125762 -55419,395981 -172566,713656 -261613,709544 -89071,-4128 -116342,-328474 -60923,-724471 72294,-516394 -17317,-471050 53407,-976404zm73686 31705c44073,-314674 96555,-339056 133450,-602713 34843,-248827 99234,-448865 143814,-446805 44588,2068 52506,205462 17679,454272 -19650,140330 26298,196023 -16126,499198 -37144,265315 -76180,482622 -119577,792444 -39003,278729 -116068,502569 -172123,499978 -56047,-2591 -69896,-230648 -30876,-509369 50897,-363479 -6035,-331283 43759,-687005zm63707 37974c21132,-151001 46351,-162717 64030,-289230 16737,-119384 47613,-215376 69010,-214386 21405,990 25195,98591 8473,217983 -9415,67328 12618,94036 -7725,239532 -17832,127310 -36565,231582 -57358,380240 -18733,133748 -55725,241158 -82626,239919 -26885,-1239 -33515,-110669 -14806,-244425 24430,-174400 -2889,-158967 21002,-329633zm-168598 3528593c111111,-793731 258072,-854533 351150,-1519490 87849,-627626 261042,-1131660 386831,-1125835 125774,5810 156513,519300 68673,1146894 -49529,353919 82247,495094 -24777,1259776 -93658,669205 -194695,1217167 -304092,1998570 -98390,703018 -306354,1266962 -464476,1259655 -158122,-7323 -206524,-583135 -108134,-1286137 128348,-916768 -30731,-836267 94825,-1733433zm81941 43743c84967,-606914 197359,-653409 268542,-1161861 67151,-479877 199579,-865300 295748,-860842 96200,4450 119713,397083 52522,876960 -37893,270610 62894,378567 -18927,963255 -71625,511703 -148883,930698 -232507,1528164 -75271,537558 -234270,968768 -355174,963183 -120921,-5609 -157913,-445887 -82690,-983429 98124,-700990 -23530,-639431 72486,-1325430zm70145 37418c62573,-447086 145376,-481350 197777,-855917 49497,-353501 147041,-637436 217918,-634145 70853,3267 88146,292505 38674,646038 -27915,199346 46334,278866 -13962,709592 -52747,376942 -109663,685613 -171278,1125763 -55435,396004 -172582,713664 -261629,709536 -89071,-4120 -116359,-328475 -60907,-724455 72277,-516402 -17349,-471058 53407,-976412zm73678 31721c44024,-314682 96546,-339073 133458,-602721 34802,-248835 99202,-448865 143798,-446805 44604,2052 52522,205446 17687,454280 -19643,140322 26289,196007 -16134,499190 -37161,265307 -76204,482629 -119537,792443 -39027,278713 -116109,502554 -172164,499979 -56070,-2607 -69855,-230640 -30851,-509377 50856,-363479 -6060,-331283 43743,-686989zm63699 37941c21131,-150984 46326,-162692 64045,-289206 16681,-119392 47598,-215383 69019,-214385 21356,973 25170,98574 8449,217982 -9415,67329 12617,94036 -7741,239525 -17832,127310 -36549,231581 -57359,380240 -18717,133748 -55700,241166 -82609,239911 -26901,-1240 -33540,-110670 -14823,-244409 24431,-174409 -2872,-158959 21019,-329658zm-150912 3392150c111104,-793707 258081,-854525 351143,-1519489 87864,-627603 261042,-1131653 386839,-1125835 125773,5826 156512,519307 68664,1146901 -49552,353903 82248,495102 -24776,1259784 -93674,669189 -194687,1217175 -304085,1998570 -98373,703002 -306353,1266962 -464459,1259631 -158146,-7290 -206564,-583135 -108134,-1286129 128307,-916768 -30780,-836259 94808,-1733433zm81934 43743c84967,-606890 197374,-653417 268517,-1161845 67192,-479885 199604,-865308 295772,-860858 96185,4442 119698,397083 52522,876960 -37893,270610 62895,378559 -18926,963288 -71625,511670 -148884,930673 -232507,1528148 -75263,537541 -234254,968767 -355159,963166 -120921,-5584 -157944,-445895 -82706,-983428 98148,-700975 -23521,-639424 72487,-1325431zm70129 37418c62572,-447094 145367,-481342 197801,-855893 49488,-353525 147033,-637444 217894,-634161 70853,3267 88170,292505 38697,646030 -27922,199346 46302,278874 -13961,709601 -52756,376949 -109671,685612 -171262,1125754 -55460,395988 -172582,713664 -261670,709536 -89055,-4104 -116342,-328459 -60883,-724455 72270,-516386 -17357,-471050 53384,-976412zm73669 31721c44073,-314674 96595,-339064 133466,-602721 34843,-248811 99218,-448857 143822,-446797 44580,2060 52498,205454 17680,454272 -19619,140322 26289,196015 -16167,499190 -37128,265331 -76148,482630 -119504,792444 -39020,278712 -116109,502561 -172164,499986 -56071,-2599 -69871,-230656 -30868,-509385 50873,-363471 -6043,-331259 43735,-686989zm63724 37965c21131,-151000 46309,-162708 64045,-289213 16705,-119400 47597,-215400 68978,-214418 21397,1005 25219,98598 8497,217990 -9414,67337 12618,94061 -7733,239541 -17832,127310 -36565,231590 -57374,380248 -18709,133740 -55685,241158 -82610,239919 -26900,-1247 -33531,-110685 -14798,-244433 24406,-174409 -2897,-158951 20995,-329634zm513626 -5981170c111103,-793731 258088,-854541 351167,-1519505 87824,-627595 261017,-1131653 386831,-1125827 125757,5818 156512,519315 68648,1146901 -49529,353928 82263,495094 -24777,1259784 -93650,669189 -194670,1217159 -304044,1998570 -98414,703002 -306378,1266962 -464500,1259647 -158121,-7314 -206540,-583143 -108150,-1286129 128324,-916792 -30755,-836275 94825,-1733441zm81957 43735c84944,-606898 197359,-653417 268534,-1161853 67159,-479877 199563,-865300 295748,-860842 96168,4450 119698,397067 52522,876952 -37885,270610 62903,378583 -18943,963271 -71617,511687 -148883,930698 -232507,1528165 -75247,537549 -234270,968775 -355174,963174 -120905,-5600 -157913,-445895 -82682,-983436 98116,-700975 -23529,-639432 72502,-1325431zm70121 37426c62573,-447086 145376,-481358 197801,-855901 49473,-353533 147041,-637452 217894,-634161 70837,3267 88154,292505 38682,646022 -27923,199362 46342,278890 -13945,709609 -52772,376949 -109664,685604 -171295,1125762 -55419,395988 -172566,713672 -261613,709544 -89095,-4128 -116342,-328474 -60923,-724463 72269,-516402 -17317,-471066 53399,-976412zm73694 31721c44008,-314690 96530,-339072 133450,-602713 34819,-248835 99210,-448881 143814,-446805 44588,2036 52506,205438 17663,454272 -19635,140314 26305,196007 -16126,499182 -37145,265315 -76188,482638 -119545,792436 -39019,278728 -116109,502569 -172155,499994 -56055,-2599 -69880,-230656 -30860,-509385 50872,-363479 -6060,-331267 43759,-686981zm63683 37949c21155,-151000 46334,-162708 64045,-289213 16706,-119392 47614,-215392 69019,-214394 21380,990 25178,98591 8457,217999 -9415,67312 12634,94028 -7733,239508 -17808,127334 -36565,231590 -57367,380256 -18717,133740 -55692,241150 -82593,239911 -26901,-1239 -33540,-110677 -14806,-244417 24390,-174417 -2913,-158959 20978,-329650zm-132581 3530758c111088,-793714 258072,-854533 351151,-1519489 87840,-627595 261042,-1131669 386831,-1125835 125757,5818 156512,519299 68672,1146910 -49569,353903 82264,495086 -24776,1259767 -93674,669197 -194695,1217176 -304093,1998579 -98389,702986 -306354,1266961 -464475,1259647 -158122,-7323 -206540,-583160 -108151,-1286138 128340,-916776 -30739,-836275 94841,-1733441zm81942 43751c84943,-606889 197358,-653416 268517,-1161852 67192,-479894 199579,-865309 295788,-860859 96169,4450 119674,397075 52482,876952 -37869,270618 62919,378575 -18926,963280 -71602,511687 -148884,930681 -232491,1528164 -75263,537541 -234270,968759 -355167,963167 -120905,-5593 -157953,-445888 -82706,-983429 98140,-700974 -23513,-639424 72503,-1325423zm70120 37411c62573,-447079 145376,-481342 197802,-855894 49472,-353533 147041,-637444 217878,-634169 70853,3268 88186,292506 38697,646022 -27906,199371 46342,278882 -13945,709617 -52772,376949 -109663,685613 -171279,1125754 -55435,396005 -172582,713673 -261653,709528 -89071,-4103 -116318,-328458 -60899,-724431 72269,-516402 -17341,-471066 53399,-976427zm73678 31712c44049,-314690 96571,-339064 133466,-602713 34819,-248810 99210,-448857 143814,-446797 44588,2052 52506,205438 17663,454265 -19634,140330 26330,196014 -16150,499206 -37120,265314 -76164,482613 -119521,792435 -39019,278729 -116108,502578 -172155,499978 -56055,-2591 -69863,-230648 -30860,-509377 50873,-363479 -6059,-331259 43743,-686997zm63699 37982c21156,-151016 46334,-162725 64046,-289238 16721,-119392 47613,-215384 69002,-214394 21397,1006 25195,98599 8489,217983 -9431,67336 12602,94060 -7749,239540 -17808,127310 -36549,231590 -57350,380257 -18717,133731 -55709,241149 -82626,239902 -26884,-1239 -33523,-110685 -14790,-244417 24414,-174416 -2913,-158950 20978,-329633zm362425 816367c111104,-793707 258088,-854534 351167,-1519498 87840,-627594 261042,-1131645 386815,-1125835 125773,5826 156528,519315 68688,1146902 -49536,353911 82264,495094 -24776,1259792 -93674,669189 -194727,1217167 -304069,1998578 -98413,702994 -306353,1266953 -464499,1259631 -158122,-7307 -206540,-583136 -108111,-1286146 128284,-916768 -30795,-836250 94785,-1733424zm81974 43743c84967,-606898 197318,-653409 268485,-1161853 67192,-479877 199620,-865308 295788,-860842 96185,4450 119674,397074 52522,876960 -37876,270609 62895,378567 -18966,963263 -71602,511679 -148844,930689 -232491,1528156 -75223,537550 -234230,968775 -355151,963175 -120905,-5577 -157912,-445887 -82690,-983421 98124,-700990 -23529,-639423 72503,-1325438zm70113 37426c62588,-447094 145367,-481342 197817,-855910 49448,-353516 147041,-637443 217870,-634160 70837,3283 88170,292521 38697,646038 -27914,199338 46334,278881 -13977,709600 -52756,376942 -109647,685621 -171279,1125755 -55419,395996 -172541,713656 -261637,709544 -89047,-4128 -116334,-328475 -60899,-724455 72270,-516411 -17333,-471058 53408,-976412zm73685 31721c44049,-314691 96539,-339065 133466,-602722 34803,-248834 99194,-448872 143782,-446804 44620,2060 52522,205445 17679,454280 -19634,140314 26290,195998 -16126,499182 -37144,265322 -76188,482629 -119561,792443 -39003,278713 -116052,502562 -172139,499979 -56055,-2599 -69879,-230649 -30860,-509378 50897,-363478 -6035,-331267 43759,-686980zm63707 37949c21132,-150984 46327,-162700 64030,-289214 16721,-119392 47613,-215383 68994,-214402 21421,998 25211,98591 8489,217999 -9431,67337 12642,94036 -7725,239516 -17832,127318 -36565,231606 -57374,380249 -18717,133764 -55725,241158 -82594,239910 -26900,-1231 -33531,-110669 -14838,-244408 24430,-174417 -2897,-158959 21018,-329650zm-58219 -4441161c67522,-482316 210821,-516780 267367,-920864 53367,-381375 198622,-685830 324395,-680004 125781,5818 184491,319696 131108,701079 -30104,215061 109052,303594 44025,768286 -56932,406635 -127785,739205 -194269,1214054 -59804,427186 -236458,767570 -394580,760255 -158122,-7314 -237834,-359544 -178046,-786754 77991,-557112 -76317,-510850 0,-1056052zm84147 28180c51621,-368790 161187,-395151 204431,-704128 40806,-291612 151870,-524401 248038,-519951 96201,4450 141054,244457 100249,536061 -23031,164454 83382,232145 33652,587448 -43526,310957 -97714,565231 -148514,928307 -45714,326657 -180806,586926 -301727,581325 -120889,-5600 -181868,-274922 -136129,-601579 59611,-425979 -58357,-390613 0,-807483zm71979 24093c38046,-271680 118756,-291097 150614,-518704 30063,-214836 111868,-386324 182721,-383041 70853,3283 103918,180090 73847,394918 -16971,121130 61422,171013 24776,432755 -32059,229063 -71963,416379 -109414,683850 -33692,240635 -133176,432361 -222271,428233 -89055,-4104 -133965,-202533 -100273,-443160 43912,-313821 -42986,-287757 0,-594851zm75231 20696c26748,-191226 77797,-205164 100216,-365378 21187,-151217 74490,-272114 119078,-270054 44604,2060 63587,126321 42415,277530 -11925,85257 36936,120076 11145,304310 -22571,161244 -49665,293133 -75995,481398 -23722,169363 -88379,304576 -144450,301985 -56071,-2592 -82287,-142004 -58581,-311384 30924,-220871 -24085,-202251 6172,-418407zm65622 24302c12827,-91759 37314,-98454 48073,-175318 10163,-72551 35760,-130577 57141,-129579 21380,989 30505,60601 20342,133152 -5729,40918 17744,57624 5351,146043 -10831,77363 -23810,140644 -36452,230979 -11386,81290 -42415,146156 -69316,144908 -26909,-1247 -39486,-68133 -28116,-149407 14846,-105977 -11563,-97053 2977,-200778zm371051 1383626c67474,-482324 210797,-516797 267351,-920880 53399,-381368 198622,-685822 324411,-680004 125773,5817 184451,319711 131084,701094 -30104,215054 109076,303578 44009,768271 -56908,406650 -127785,739205 -194245,1214045 -59796,427194 -236458,767595 -394588,760264 -158122,-7307 -237818,-359552 -178022,-786754 77967,-557112 -76341,-510850 0,-1056036zm84123 28164c51621,-368806 161187,-395152 204431,-704129 40830,-291604 151894,-524409 248062,-519959 96161,4450 141039,244465 100233,536077 -23031,164447 83390,232137 33652,587449 -43510,310948 -97706,565231 -148538,928299 -45715,326648 -180790,586925 -301695,581325 -120921,-5601 -181860,-274931 -136145,-601587 59635,-425963 -58357,-390605 0,-807475zm71963 24108c38046,-271687 118756,-291105 150630,-518719 30063,-214821 111868,-386316 182721,-383041 70861,3283 103918,180098 73831,394902 -16955,121162 61462,171021 24816,432770 -32083,229048 -71987,416380 -109438,683851 -33676,240635 -133176,432360 -222247,428248 -89095,-4128 -133981,-202532 -100313,-443159 43952,-313829 -42970,-287766 0,-594852zm75231 20681c26772,-191235 77829,-205180 100248,-365378 21171,-151201 74458,-272106 119086,-270054 44564,2060 63563,126320 42391,277530 -11941,85257 36936,120076 11145,304309 -22547,161236 -49649,293141 -76011,481399 -23706,169387 -88363,304575 -144434,301984 -56030,-2591 -82279,-142004 -58581,-311399 30948,-220856 -24109,-202243 6156,-418391zm65638 24310c12827,-91767 37338,-98454 48089,-175334 10147,-72543 35728,-130570 57125,-129580 21404,998 30530,60609 20350,133168 -5713,40919 17720,57624 5351,146020 -10839,77379 -23818,140668 -36452,230994 -11394,81290 -42423,146148 -69340,144909 -26869,-1239 -39470,-68133 -28092,-149407 14839,-106002 -11563,-97054 2969,-200770zm246220 3466077c75278,-537663 -55918,-589541 7129,-1039983 59507,-425126 5770,-774491 -120003,-780301 -125774,-5834 -275993,334092 -335500,759218 -33572,239758 -196860,323695 -269378,841699 -63458,453306 -91357,826385 -165429,1355711 -66676,476208 7476,868181 165598,875503 158129,7315 340376,-372797 407012,-849013 86923,-621012 225523,-555084 310571,-1162834zm-91260 22853c57567,-411125 -42786,-450788 5423,-795220 45506,-325079 4410,-592204 -91735,-596646 -96184,-4450 -211046,255465 -256551,580536 -25662,183309 -150534,247507 -205969,643584 -48531,346596 -69855,631875 -126505,1036619 -50985,364130 5737,663845 126642,669438 120881,5609 260253,-285054 311182,-649192 66484,-474856 172469,-424426 237513,-889119zm-78104 19522c42399,-302854 -31503,-332072 4008,-585799 33515,-239476 3259,-436255 -67594,-439530 -70853,-3292 -155459,188185 -188982,427661 -18862,135035 -110870,182334 -151716,474099 -35745,255337 -51468,465506 -93216,763660 -37522,268227 4225,489035 93296,493155 89087,4128 191718,-209984 229265,-478236 48957,-349807 127020,-312671 174939,-655010zm-80268 15474c29838,-213171 -16439,-233481 8570,-412066 23626,-168559 6575,-306869 -38005,-308937 -44620,-2068 -99886,132903 -123472,301453 -13293,95066 -71738,128646 -100482,334011 -25162,179728 -37241,327606 -66596,537477 -26450,188797 -2438,343957 53633,346556 56071,2592 122932,-148368 149358,-337181 34481,-246211 83246,-220365 116994,-461313zm-71891 20399c14324,-102309 -7861,-112037 4145,-197753 11330,-80863 3138,-147242 -18259,-148240 -21397,-982 -47919,63780 -59233,144667 -6389,45618 -34425,61720 -48209,160270 -12079,86239 -17872,157197 -31987,257896 -12674,90600 -1167,165050 25750,166297 26925,1255 59008,-71183 71666,-161783 16545,-118153 39961,-105744 56127,-221354zm-63836 -5571744c-65317,380884 -10815,418600 -65526,737700 -51661,301164 -49030,549379 5850,554368 54840,5013 141208,-235082 192853,-536270 29105,-169830 105849,-228267 168767,-595222 55033,-321152 89683,-585597 153978,-960583 57857,-337375 48821,-615927 -20174,-622220 -68970,-6276 -171777,262104 -229626,599471 -75424,439949 -132316,392214 -206122,822756zm41434 -15579c-49931,291234 -8264,320082 -50084,564089 -39502,230270 -37491,420056 4450,423878 41956,3815 107957,-179775 147459,-410046 22266,-129869 80944,-174545 129033,-455133 42133,-245559 68615,-447770 117758,-734490 44242,-257951 37362,-470969 -15394,-475773 -52755,-4812 -131358,200424 -175591,458376 -57665,336401 -101190,299916 -157631,629099zm35438 -13317c-36758,214546 -6075,235782 -36871,415526 -29113,169669 -27633,309468 3259,312268 30909,2825 79560,-132412 108650,-302065 16375,-95661 59619,-128581 95058,-335290 31021,-180887 50543,-329851 86729,-541066 32615,-190028 27513,-346943 -11354,-350483 -38826,-3541 -96764,147628 -129338,337664 -42511,247821 -74538,220928 -116133,463446zm36187 -10429c-25887,151032 -6807,165750 -28494,292272 -20479,119408 -21308,217636 -1843,219423 19442,1762 51814,-93610 72294,-213010 11547,-67345 39212,-90769 64166,-236249 21799,-127318 35986,-232137 61470,-380804 22958,-133756 21727,-244006 -2736,-246227 -24470,-2229 -62878,104408 -85812,238156 -29894,174433 -49762,155748 -79045,326439zm-1206907 49199c-65309,380884 -10815,418608 -65526,737708 -51653,301180 -49030,549379 5850,554376 54848,4997 141191,-235099 192852,-536295 29090,-169822 105833,-228258 168768,-595213 55033,-321136 89707,-585606 153978,-960576 57841,-337366 48828,-615934 -20150,-622227 -68978,-6285 -171793,262096 -229635,599487 -75431,439932 -132331,392198 -206137,822740zm41457 -15579c-49931,291250 -8280,320098 -50124,564080 -39486,230295 -37490,420065 4466,423895 41957,3822 107982,-179768 147444,-410062 22282,-129853 80960,-174530 129072,-455125 42094,-245544 68592,-447763 117743,-734490 44233,-257960 37337,-470969 -15418,-475757 -52732,-4812 -131334,200416 -175592,458376 -57664,336385 -101174,299892 -157591,629083zm35439 -13318c-36798,214555 -6099,235799 -36911,415543 -29090,169644 -27617,309443 3275,312268 30932,2816 79560,-132428 108649,-302081 16400,-95662 59604,-128574 95075,-335266 30988,-180903 50526,-329859 86713,-541083 32598,-190043 27520,-346942 -11354,-350483 -38826,-3540 -96780,147637 -129322,337665 -42512,247820 -74530,220928 -116125,463437zm36187 -10404c-25911,151016 -6808,165734 -28534,292247 -20439,119416 -21268,217637 -1843,219415 19482,1779 51830,-93577 72309,-213009 11548,-67329 39221,-90745 64167,-236226 21823,-127326 35993,-232153 61494,-380827 22918,-133748 21711,-243983 -2760,-246212 -24471,-2237 -62879,104393 -85796,238165 -29911,174408 -49778,155739 -79037,326447zm22242 -9504c-16762,97690 -4410,107209 -18428,189046 -13253,77226 -13784,140765 -1191,141924 12578,1134 33484,-60537 46753,-137780 7459,-43550 25348,-58702 41498,-152802 14114,-82352 23279,-150148 39768,-246308 14846,-86513 14017,-157816 -1779,-159240 -15820,-1449 -40677,67529 -55483,154033 -19361,112826 -32196,100732 -51138,211127zm-32542 10188c-27191,158540 -4506,174239 -27287,307070 -21493,125362 -20399,228693 2438,230769 22837,2076 58791,-97875 80268,-223238 12119,-70692 44065,-95009 70258,-247756 22933,-133683 37337,-243781 64109,-399859 24061,-140426 20303,-256390 -8385,-259006 -28703,-2615 -71504,109117 -95589,249543 -31391,183132 -55073,163256 -85812,342477zm-33483 12577c-39599,230970 -6558,253815 -39712,447303 -31310,182625 -29741,333126 3533,336168 33266,3018 85635,-142559 116930,-325184 17679,-102992 64182,-138414 102340,-360920 33387,-194719 54381,-355093 93368,-582475 35077,-204544 29605,-373465 -12215,-377271 -41820,-3814 -104183,158918 -139235,363487 -45755,266771 -80228,237834 -125009,498892zm-39100 14694c-54132,315567 -8972,346813 -54301,611194 -42785,249527 -40612,455166 4828,459310 45490,4136 117011,-194800 159796,-444318 24125,-140708 87711,-189119 139831,-493147 45618,-266063 74321,-485172 127576,-795847 47919,-279502 40460,-510311 -16722,-515525 -57125,-5199 -142301,217170 -190229,496671 -62492,364509 -109623,324958 -170779,681662zm1198973 -47332c-16746,97673 -4410,107192 -18427,189038 -13254,77234 -13793,140764 -1191,141907 12577,1159 33499,-60521 46752,-137747 7460,-43574 25348,-58702 41474,-152811 14155,-82352 23280,-150155 39808,-246308 14806,-86512 14018,-157800 -1802,-159248 -15821,-1432 -40653,67522 -55492,154050 -19353,112793 -32196,100723 -51122,211119zm-32566 10179c-27150,158556 -4466,174248 -27247,307078 -21493,125363 -20423,228685 2414,230761 22862,2084 58815,-97866 80293,-223229 12118,-70700 44048,-95018 70241,-247772 22918,-133660 37338,-243765 64102,-399843 24084,-140435 20326,-256383 -8377,-259006 -28728,-2615 -71505,109108 -95614,249535 -31391,183131 -55073,163263 -85812,342476zm-33443 12569c-39599,230971 -6558,253832 -39727,447328 -31335,182616 -29766,333118 3548,336143 33250,3026 85620,-142567 116930,-325175 17647,-102976 64166,-138415 102325,-360928 33386,-194703 54381,-355070 93368,-582451 35068,-204561 29604,-373482 -12215,-377288 -41804,-3806 -104168,158935 -139236,363495 -45739,266763 -80236,237818 -124993,498876zm-39116 14702c-54115,315576 -8956,346830 -54308,611187 -42794,249534 -40613,455181 4852,459317 45465,4144 117010,-194791 159755,-444310 24141,-140716 87712,-189118 139847,-493155 45618,-266063 74330,-485180 127576,-795847 47928,-279501 40468,-510311 -16697,-515517 -57149,-5198 -142326,217162 -190229,496679 -62508,364485 -109647,324943 -170796,681646zm56707 5576547c19288,-137883 -10606,-151016 5560,-266529 15265,-109012 4257,-198485 -24583,-199821 -28840,-1336 -64609,85965 -79874,194977 -8586,61494 -46382,83213 -64986,216059 -16255,116238 -24061,211867 -43068,347594 -17083,122144 -1569,222489 34691,224155 36259,1698 79543,-95943 96627,-218071 22266,-159249 53826,-142519 75633,-298364zm72076 -15047c31335,-223801 -23280,-245407 2953,-432892 24761,-176983 2422,-322399 -49947,-324821 -52353,-2422 -114886,139066 -139638,316042 -13985,99782 -81958,134721 -112142,350346 -26410,188700 -38005,344006 -68865,564330 -27746,198236 3106,361403 68938,364436 65832,3050 141674,-155176 169435,-353412 36187,-258490 93868,-231042 129266,-484029zm73734 -18444c45634,-326028 -33902,-357476 4297,-630604 36090,-257799 3524,-469625 -72752,-473166 -76269,-3525 -167352,202597 -203442,460388 -20343,145367 -119384,196272 -163336,510359 -38489,274866 -55379,501097 -100313,822048 -40420,288755 4546,526437 100425,530878 95863,4442 206355,-226053 246791,-514809 52715,-376571 136749,-336578 188330,-705094zm86158 -21557c62339,-445461 -46366,-488440 5882,-861639 49304,-352229 4780,-641677 -99427,-646497 -104200,-4812 -228645,276822 -277949,629035 -27826,198614 -163126,268187 -223189,697345 -52562,375573 -75689,684679 -137087,1123212 -55210,394548 6229,719305 137224,725380 131028,6059 281996,-308880 337246,-703420 72004,-514520 186825,-459897 257300,-963416zm-200811 -3490524c17317,-123689 50318,-132709 64834,-236329 13688,-97795 48169,-176002 77025,-174675 28824,1344 41120,81717 27424,179511 -7725,55137 23875,77668 7210,196835 -14589,104272 -32115,189577 -49166,311351 -15338,109551 -57166,196996 -93425,195323 -36243,-1690 -53214,-91848 -37893,-201406 20005,-142849 -15571,-130811 3991,-270610zm-67231 -19602c28115,-200779 87767,-215110 111312,-383331 22226,-158741 82674,-285480 135020,-283050 52353,2431 76799,133088 54574,291830 -12521,89529 45408,126376 18330,319808 -23698,169275 -53190,307689 -80863,505346 -24889,177836 -98430,319526 -164261,316468 -65808,-3041 -98985,-149656 -74112,-327477 32485,-231911 -31754,-212655 0,-439594zm-67940 -22749c40918,-292457 127825,-313370 162113,-558383 32372,-231244 120446,-415864 196706,-412331 76285,3524 111868,193858 79504,425110 -18275,130392 66137,184081 26675,465843 -34497,246590 -77475,448237 -117758,736164 -36300,259030 -143420,465425 -239283,460999 -95895,-4434 -144217,-218031 -107957,-477053 47267,-337817 -46270,-309774 0,-640349zm-79423 -26595c55934,-399617 174650,-428168 221515,-762951 44242,-315970 164567,-568209 268791,-563396 104199,4820 152827,264896 108593,580858 -24954,178190 90350,251538 36468,636526 -47155,336908 -105889,612434 -160938,1005847 -49537,353952 -195902,635948 -326930,629888 -131011,-6067 -197036,-297896 -147499,-651839 64600,-461563 -63225,-423236 0,-874933zm-453412 -1411934c17293,-123697 50334,-132710 64834,-236330 13672,-97794 48169,-176002 77009,-174674 28856,1344 41112,81700 27440,179510 -7733,55154 23875,77645 7186,196819 -14589,104280 -32115,189602 -49142,311368 -15346,109534 -57166,196996 -93425,195306 -36259,-1674 -53230,-91831 -37877,-201390 19981,-142849 -15587,-130810 3975,-270609zm-67215 -19603c28091,-200762 87727,-215126 111280,-383322 22202,-158750 82706,-285488 135052,-283058 52353,2406 76783,133072 54574,291837 -12562,89514 45392,126369 18314,319800 -23698,169267 -53190,307706 -80879,505362 -24897,177821 -98414,319503 -164245,316453 -65808,-3042 -99002,-149665 -74096,-327477 32445,-231920 -31770,-212656 0,-439595zm-67957 -22748c40919,-292465 127810,-313379 162113,-558383 32389,-231260 120439,-415864 196723,-412332 76245,3533 111812,193858 79463,425102 -18250,130416 66138,184089 26716,465860 -34537,246557 -77508,448229 -117815,736139 -36243,259046 -143379,465433 -239282,461007 -95839,-4433 -144201,-218023 -107918,-477061 47268,-337801 -46269,-309757 0,-640332zm-79431 -26595c55943,-399610 174675,-428176 221524,-762952 44242,-315970 164567,-568216 268767,-563396 104223,4820 152834,264880 108609,580858 -24922,178191 90382,251530 36476,636518 -47171,336908 -105889,612451 -160946,1005856 -49545,353951 -195894,635947 -326922,629888 -130995,-6060 -197052,-297905 -147508,-651832 64625,-461563 -63216,-423243 0,-874940zm-23545 4408442c28494,-203530 62476,-219310 86327,-389832 22516,-160939 64183,-290333 93007,-288981 28856,1328 33982,132871 11450,293817 -12714,90753 16987,126763 -10453,322874 -24028,171600 -49263,312156 -77314,512540 -25235,180274 -75078,325046 -111353,323373 -36244,-1690 -45200,-149174 -19965,-329457 32920,-235098 -3878,-214257 28301,-444334zm-65735 -30168c46254,-330398 107442,-355697 146180,-632503 36549,-261251 108649,-471050 161003,-468628 52345,2414 65155,216156 28606,477407 -20616,147323 34248,206082 -10316,524393 -38987,278544 -81056,506658 -126602,831922 -40934,292617 -127519,527386 -193327,524328 -65831,-3034 -85965,-242735 -45006,-535369 53407,-381592 -12787,-348093 39462,-721550zm-66210 -35326c67385,-481269 156528,-518156 212961,-921363 53255,-380562 158259,-686192 234544,-682667 76260,3540 94897,314891 41626,695446 -30023,214587 49899,300198 -15031,763885 -56779,405765 -118024,738030 -184379,1211856 -59652,426261 -185755,768230 -281634,763780 -95855,-4434 -125218,-353581 -65558,-779858 77798,-555880 -18677,-507076 57471,-1051079zm-77355 -41280c92057,-657618 213831,-708000 290968,-1258923 72752,-519983 216245,-937578 320452,-932774 104216,4837 129684,430253 56908,950236 -41055,293213 68157,410199 -20495,1043740 -77621,554432 -161325,1008439 -251949,1655828 -81515,582444 -253816,1049687 -384844,1043636 -130987,-6075 -171125,-483144 -89586,-1065596 106308,-759539 -25484,-692846 78546,-1436147zm-442564 -860456c28494,-203523 62436,-219303 86295,-389833 22532,-160938 64182,-290324 92998,-288980 28881,1335 33983,132894 11467,293816 -12706,90770 17011,126779 -10445,322875 -24012,171600 -49263,312147 -77298,512539 -25259,180291 -75094,325063 -111353,323381 -36284,-1673 -45200,-149189 -19981,-329456 32904,-235091 -3895,-214249 28317,-444342zm-65751 -30152c46254,-330390 107426,-355714 146156,-632511 36589,-261235 108649,-471066 161019,-468628 52353,2422 65163,216164 28590,477407 -20608,147315 34248,206073 -10316,524393 -38979,278552 -81056,506657 -126554,831921 -40966,292634 -127519,527371 -193351,524321 -65815,-3042 -85965,-242735 -45030,-535353 53423,-381625 -12803,-348109 39486,-721550zm-66218 -35342c67385,-481262 156496,-518157 212929,-921363 53271,-380554 158299,-686192 234584,-682651 76260,3516 94897,314875 41626,695437 -30047,214595 49875,300198 -15031,763877 -56803,405774 -118048,738047 -184379,1211857 -59636,426261 -185731,768230 -281634,763804 -95863,-4442 -125234,-353605 -65582,-779874 77813,-555896 -18653,-507084 57487,-1051087zm-77331 -41281c92041,-657601 213831,-707999 290912,-1258906 72792,-519975 216285,-937594 320508,-932774 104200,4812 129684,430252 56892,950219 -41055,293222 68133,410208 -20536,1043733 -77604,554440 -161308,1008438 -251932,1655828 -81532,582451 -253808,1049703 -384803,1043644 -131028,-6068 -171142,-483153 -89603,-1065580 106308,-759539 -25484,-692839 78562,-1436164zm52426 -3574806c28494,-203539 62452,-219319 86327,-389849 22515,-160922 64166,-290316 93006,-288989 28840,1336 33958,132895 11427,293841 -12690,90753 17027,126763 -10429,322874 -24012,171585 -49263,312156 -77299,512524 -25235,180283 -75109,325063 -111377,323389 -36259,-1682 -45175,-149181 -19940,-329464 32888,-235099 -3927,-214257 28285,-444326zm-65752 -30176c46246,-330398 107443,-355698 146173,-632503 36589,-261235 108673,-471050 161042,-468636 52345,2430 65140,216172 28567,477415 -20632,147306 34248,206089 -10316,524393 -39004,278543 -81057,506649 -126578,831929 -40959,292618 -127495,527378 -193327,524329 -65816,-3050 -85965,-242751 -45006,-535369 53423,-381617 -12827,-348101 39445,-721558zm-66193 -35326c67376,-481278 156488,-518173 212945,-921379 53270,-380547 158275,-686168 234519,-682644 76285,3525 94937,314884 41667,695446 -30031,214595 49875,300190 -15016,763861 -56819,405790 -118040,738046 -184394,1211872 -59652,426261 -185755,768223 -281634,763797 -95895,-4450 -125234,-353589 -65583,-779874 77838,-555889 -18652,-507076 57496,-1051079zm-77363 -41289c92048,-657601 213830,-707999 290960,-1258907 72768,-519983 216260,-937601 320484,-932781 104199,4836 129668,430260 56876,950235 -41040,293221 68173,410199 -20520,1043740 -77604,554424 -161308,1008423 -251933,1655829 -81515,582451 -253807,1049695 -384803,1043627 -131004,-6059 -171141,-483136 -89602,-1065579 106308,-759548 -25509,-692847 78538,-1436164zm-593774 5937121c28478,-203538 62436,-219318 86311,-389840 22532,-160946 64158,-290316 92999,-288989 28864,1328 33982,132879 11450,293809 -12698,90785 16987,126787 -10453,322882 -24004,171609 -49263,312156 -77314,512540 -25235,180291 -75078,325063 -111337,323389 -36260,-1682 -45200,-149190 -19965,-329464 32912,-235091 -3886,-214257 28309,-444327zm-65759 -30183c46254,-330382 107442,-355690 146180,-632487 36573,-261251 108650,-471075 161019,-468644 52353,2430 65164,216172 28590,477407 -20632,147322 34232,206089 -10332,524392 -38963,278560 -81040,506674 -126562,831922 -40958,292626 -127519,527402 -193351,524345 -65807,-3050 -85965,-242751 -45006,-535377 53423,-381601 -12787,-348085 39462,-721558zm-66194 -35318c67385,-481278 156496,-518165 212929,-921371 53255,-380555 158283,-686184 234560,-682652 76260,3533 94921,314884 41634,695438 -30031,214595 49891,300206 -15015,763877 -56803,405765 -118064,738030 -184379,1211856 -59676,426261 -185755,768231 -281634,763789 -95879,-4426 -125258,-353581 -65582,-779850 77798,-555905 -18661,-507092 57487,-1051087zm-77355 -41281c92049,-657601 213831,-708007 290936,-1258923 72776,-519959 216269,-937585 320484,-932765 104208,4820 129709,430252 56900,950227 -41039,293213 68149,410191 -20520,1043732 -77604,554440 -161308,1008439 -251948,1655837 -81499,582443 -253816,1049695 -384819,1043635 -131012,-6075 -171110,-483152 -89595,-1065587 106332,-759548 -25484,-692847 78562,-1436156zm70765 -3436191c28470,-203554 62436,-219334 86311,-389848 22531,-160938 64158,-290333 92998,-288989 28840,1336 33982,132887 11451,293825 -12698,90769 17027,126763 -10437,322866 -24004,171616 -49263,312164 -77315,512540 -25251,180275 -75094,325055 -111369,323389 -36243,-1674 -45183,-149174 -19964,-329457 32928,-235098 -3871,-214273 28325,-444326zm-65760 -30168c46238,-330406 107443,-355729 146181,-632519 36565,-261235 108649,-471042 161034,-468636 52337,2431 65140,216165 28575,477407 -20632,147323 34231,206090 -10316,524393 -39004,278568 -81057,506658 -126578,831930 -40959,292618 -127520,527378 -193335,524328 -65808,-3033 -85981,-242727 -45007,-535352 53408,-381609 -12826,-348118 39446,-721551zm-66193 -35342c67368,-481277 156496,-518172 212929,-921363 53254,-380554 158274,-686192 234559,-682667 76285,3541 94921,314892 41627,695454 -30023,214595 49899,300198 -15008,763877 -56803,405781 -118072,738038 -184379,1211848 -59659,426261 -185779,768230 -281633,763797 -95879,-4434 -125258,-353590 -65583,-779858 77814,-555897 -18660,-507084 57488,-1051088zm-77355 -41288c92064,-657594 213830,-707999 290936,-1258915 72808,-519975 216284,-937585 320508,-932757 104175,4812 129660,430252 56851,950227 -41015,293213 68174,410183 -20495,1043732 -77605,554424 -161308,1008431 -251933,1655812 -81539,582460 -253831,1049712 -384843,1043644 -131004,-6059 -171126,-483128 -89586,-1065571 106331,-759556 -25485,-692863 78562,-1436172zm88419 -3572642c28494,-203531 62476,-219311 86327,-389841 22532,-160946 64182,-290340 93023,-288997 28840,1336 33941,132879 11434,293825 -12714,90777 17003,126779 -10437,322874 -24044,171617 -49279,312156 -77330,512548 -25219,180275 -75078,325039 -111337,323365 -36244,-1674 -45200,-149165 -19965,-329448 32904,-235107 -3927,-214257 28285,-444326zm-65735 -30184c46270,-330390 107442,-355690 146196,-632503 36549,-261235 108649,-471034 160987,-468620 52369,2422 65171,216148 28590,477399 -20600,147306 34248,206081 -10300,524393 -38987,278551 -81040,506665 -126578,831929 -40942,292618 -127543,527378 -193335,524337 -65831,-3050 -85965,-242743 -45022,-535377 53423,-381601 -12811,-348085 39462,-721558zm-66194 -35318c67369,-481278 156472,-518165 212929,-921371 53287,-380555 158275,-686192 234560,-682652 76260,3525 94897,314876 41626,695422 -30023,214619 49899,300222 -15015,763885 -56795,405766 -118040,738038 -184371,1211856 -59676,426269 -185779,768239 -281658,763789 -95879,-4426 -125218,-353573 -65558,-779842 77797,-555905 -18661,-507092 57487,-1051087zm-77355 -41289c92041,-657601 213831,-707991 290936,-1258923 72792,-519975 216261,-937577 320468,-932757 104240,4820 129684,430252 56932,950227 -41079,293213 68149,410191 -20536,1043724 -77604,554449 -161308,1008439 -251916,1655845 -81556,582435 -253808,1049687 -384836,1043628 -131011,-6068 -171125,-483129 -89594,-1065596 106316,-759548 -25500,-692847 78546,-1436148zm-620352 5768780c28470,-203538 62452,-219318 86303,-389832 22531,-160938 64166,-290333 93006,-289005 28856,1344 33982,132895 11451,293841 -12698,90769 17003,126779 -10437,322858 -24004,171624 -49263,312164 -77315,512556 -25235,180267 -75093,325047 -111353,323373 -36259,-1674 -45199,-149182 -19940,-329465 32880,-235090 -3919,-214257 28285,-444326zm-65735 -30176c46213,-330382 107418,-355705 146156,-632503 36565,-261243 108665,-471050 161018,-468628 52353,2423 65140,216165 28591,477399 -20632,147315 34231,206090 -10332,524401 -38971,278568 -81041,506658 -126586,831930 -40935,292610 -127495,527370 -193311,524328 -65808,-3041 -85981,-242735 -45023,-535377 53424,-381600 -12786,-348093 39487,-721550zm-66218 -35318c67368,-481293 156496,-518164 212929,-921371 53254,-380546 158299,-686192 234559,-682667 76277,3541 94922,314892 41651,695446 -30047,214611 49875,300214 -15040,763885 -56811,405765 -118064,738038 -184370,1211848 -59676,426277 -185739,768238 -281634,763789 -95879,-4426 -125258,-353582 -65582,-779859 77813,-555896 -18661,-507075 57487,-1051071zm-77355 -41304c92064,-657586 213830,-707983 290936,-1258915 72792,-519967 216284,-937577 320500,-932741 104207,4820 129668,430252 56859,950211 -41015,293221 68174,410191 -20495,1043740 -77604,554432 -161308,1008439 -251933,1655820 -81515,582436 -253831,1049696 -384843,1043644 -131004,-6059 -171101,-483136 -89570,-1065595 106316,-759540 -25501,-692847 78546,-1436164zm-586145 2747584c28494,-203538 -636,-222231 23223,-392761 22532,-160938 17406,-292481 -11434,-293825 -28841,-1336 -70467,128050 -92999,288997 -12714,90761 -52079,123584 -79527,319679 -24020,171600 -38159,312663 -66226,513047 -25235,180275 -16303,327783 19956,329456 36268,1674 86118,-143082 111353,-323381 32888,-235090 63434,-211143 95654,-441212zm73291 -23730c46246,-330390 -7097,-361025 31641,-637822 36565,-261243 23754,-474985 -28591,-477399 -52353,-2430 -124478,207377 -161027,468628 -20632,147322 -91123,200287 -135687,518607 -38979,278560 -60899,507583 -106420,832847 -40959,292618 -20826,532319 44982,535361 65832,3033 152392,-231703 193351,-524345 53424,-381600 109478,-342428 161751,-715877zm75166 -28808c67361,-481261 -10356,-525865 46077,-929072 53270,-380562 34634,-691905 -41627,-695438 -76284,-3532 -181272,302097 -234543,682660 -30047,214595 -132750,291764 -197640,755427 -56819,405782 -88766,739398 -155096,1213217 -59660,426252 -30297,775416 65582,779850 95879,4449 221982,-337520 281634,-763781 77813,-555896 159465,-498852 235613,-1042863zm87848 -33636c92057,-657585 -14154,-718549 62967,-1269456 72793,-519983 47308,-945399 -56891,-950227 -104224,-4837 -247692,412790 -320484,932765 -41040,293221 -181370,398644 -270055,1032193 -77604,554416 -121267,1010289 -211891,1657679 -81499,582435 -41401,1059512 89586,1065572 131012,6059 303329,-461177 384844,-1043620 106324,-759548 217894,-681581 321924,-1424906zm576899 -5635741c28494,-203546 -652,-222231 23224,-392761 22515,-160946 17413,-292481 -11427,-293825 -28864,-1328 -70515,128058 -93046,289005 -12690,90753 -52040,123568 -79504,319671 -23988,171608 -38158,312663 -66210,513039 -25251,180291 -16303,327791 19965,329456 36259,1690 86093,-143082 111329,-323365 32928,-235098 63458,-211151 95669,-441220zm73292 -23730c46229,-330398 -7098,-361025 31640,-637822 36549,-261227 23762,-474969 -28607,-477399 -52353,-2414 -124437,207393 -161026,468636 -20593,147315 -91100,200287 -135663,518591 -39004,278560 -60923,507583 -106445,832847 -40983,292634 -20825,532335 45007,535369 65807,3049 152384,-231711 193343,-524329 53407,-381616 109478,-342436 161751,-715893zm75166 -28800c67368,-481277 -10349,-525881 46084,-929080 53271,-380546 34610,-691905 -41634,-695438 -76277,-3540 -181289,302097 -234560,682668 -30047,214595 -132750,291740 -197640,755427 -56803,405766 -88725,739391 -155080,1213201 -59652,426276 -30296,775424 65566,779858 95895,4441 221999,-337520 281650,-763789 77838,-555896 159450,-498844 235614,-1042847zm87832 -33652c92056,-657577 -14115,-718541 62991,-1269456 72768,-519959 47284,-945399 -56916,-950219 -104223,-4820 -247676,412798 -320484,932765 -41039,293213 -181345,398644 -270038,1032185 -77605,554424 -121267,1010289 -211891,1657687 -81516,582452 -41418,1059512 89594,1065580 131004,6075 303304,-461185 384835,-1043636 106308,-759539 217878,-681581 321909,-1424906zm-636293 -2050368c28494,-203523 -652,-222240 23223,-392746 22531,-160938 17405,-292497 -11451,-293833 -28840,-1335 -70475,128059 -92982,288997 -12738,90753 -52063,123584 -79527,319663 -24004,171625 -38175,312687 -66227,513071 -25243,180275 -16303,327775 19957,329465 36259,1666 86118,-143114 111353,-323397 32888,-235099 63458,-211151 95654,-441220zm73267 -23731c46253,-330390 -7098,-361000 31640,-637806 36589,-261243 23779,-474985 -28574,-477399 -52370,-2422 -124446,207385 -161019,468628 -20608,147307 -91123,200288 -135687,518599 -38979,278560 -60923,507583 -106445,832855 -40958,292618 -20801,532311 45023,535345 65816,3050 152352,-231695 193335,-524320 53423,-381617 109470,-342445 161727,-715902zm75174 -28783c67377,-481286 -10340,-525882 46093,-929088 53270,-380555 34633,-691922 -41651,-695438 -76261,-3517 -181265,302097 -234535,682651 -30048,214611 -132734,291773 -197624,755436 -56804,405765 -88790,739390 -155080,1213216 -59676,426253 -30313,775424 65566,779866 95879,4426 221974,-337536 281633,-763812 77814,-555881 159450,-498828 235598,-1042831zm87856 -33645c92065,-657601 -14146,-718540 62975,-1269464 72792,-519975 47308,-945407 -56908,-950227 -104223,-4820 -247700,412782 -320468,932765 -41039,293222 -181369,398636 -270070,1032185 -77604,554440 -121251,1010290 -211859,1657688 -81531,582443 -41418,1059520 89570,1065579 131012,6068 303320,-461192 384860,-1043627 106307,-759548 217853,-681582 321900,-1424899zm-954967 5675807c28494,-203539 -652,-222240 23216,-392754 22531,-160938 17413,-292489 -11427,-293825 -28840,-1336 -70491,128051 -92998,288997 -12714,90753 -52064,123576 -79528,319663 -24028,171617 -38158,312687 -66210,513055 -25235,180275 -16319,327783 19957,329465 36267,1673 86101,-143099 111337,-323389 32903,-235083 63433,-211135 95653,-441212zm73283 -23739c46254,-330382 -7089,-361008 31641,-637798 36573,-261251 23778,-474993 -28591,-477407 -52369,-2430 -124445,207385 -161018,468636 -20617,147307 -91124,200288 -135671,518583 -38980,278560 -60915,507599 -106461,832855 -40959,292626 -20809,532319 45022,535369 65832,3042 152377,-231711 193352,-524345 53407,-381592 109478,-342436 161726,-715893zm75175 -28784c67360,-481269 -10357,-525889 46076,-929096 53271,-380546 34634,-691905 -41651,-695438 -76260,-3524 -181264,302106 -234519,682668 -30047,214603 -132774,291765 -197648,755428 -56795,405773 -88757,739406 -155048,1213216 -59676,426261 -30320,775424 65542,779850 95879,4442 221998,-337512 281650,-763789 77798,-555888 159450,-498827 235598,-1042839zm87864 -33636c92040,-657609 -14155,-718548 62967,-1269488 72760,-519967 47292,-945391 -56932,-950227 -104199,-4796 -247676,412798 -320444,932781 -41071,293222 -181385,398652 -270094,1032201 -77581,554424 -121243,1010282 -211851,1657663 -81516,582460 -41418,1059529 89586,1065596 131011,6051 303304,-461184 384843,-1043636 106308,-759547 217870,-681581 321925,-1424890zm-614012 -1850781c28495,-203538 -651,-222239 23224,-392761 22531,-160930 17405,-292489 -11451,-293817 -28824,-1336 -70467,128059 -93006,288997 -12706,90745 -52039,123568 -79495,319663 -24029,171601 -38183,312671 -66235,513055 -25235,180291 -16303,327783 19981,329457 36219,1689 86094,-143115 111329,-323382 32888,-235090 63434,-211150 95653,-441212zm73268 -23738c46277,-330390 -7090,-361000 31664,-637814 36565,-261235 23739,-474969 -28615,-477399 -52345,-2406 -124429,207393 -160994,468644 -20616,147299 -91107,200280 -135695,518591 -38979,278544 -60899,507575 -106420,832855 -40959,292626 -20826,532303 44982,535353 65831,3050 152392,-231703 193351,-524329 53407,-381616 109478,-342436 161727,-715901zm75190 -28792c67369,-481269 -10373,-525881 46076,-929080 53271,-380546 34634,-691913 -41626,-695446 -76285,-3532 -181289,302113 -234543,682652 -30048,214619 -132766,291765 -197665,755435 -56811,405782 -88741,739407 -155088,1213217 -59635,426269 -30280,775424 65599,779858 95863,4442 221982,-337520 281633,-763797 77814,-555888 159450,-498844 235614,-1042839zm87848 -33636c92041,-657601 -14155,-718548 62967,-1269480 72776,-519967 47332,-945391 -56892,-950219 -104223,-4812 -247716,412790 -320484,932773 -41039,293214 -181385,398636 -270054,1032177 -77604,554432 -121267,1010298 -211891,1657687 -81515,582452 -41418,1059537 89586,1065588 131012,6059 303328,-461184 384819,-1043636 106356,-759547 217894,-681589 321949,-1424890z"/>
   </g>
  </g>
  <path class="fil3 str0" d="M7097 220646l0 7032925c0,117453 96097,213549 213549,213549l2869166 0c117452,0 213548,-96096 213548,-213549l0 -7032925c0,-117460 -96096,-213549 -213548,-213549l-2869166 0c-117452,0 -213549,96089 -213549,213549z"/>
  <path class="fil4 str1" d="M174232 383588l0 6491714c0,106035 86761,192804 192804,192804l2590476 0c106042,0 192804,-86769 192804,-192804l0 -6491714c0,-106034 -86762,-192804 -192804,-192804l-2590476 0c-106043,0 -192804,86770 -192804,192804z"/>
 </g>
</svg>
