<?xml version="1.0" encoding="UTF-8"?>
<!DOCTYPE svg PUBLIC "-//W3C//DTD SVG 1.1//EN" "http://www.w3.org/Graphics/SVG/1.1/DTD/svg11.dtd">
<!-- Creator: CorelDRAW X7 -->
<svg xmlns="http://www.w3.org/2000/svg" xml:space="preserve" width="1.37541in" height="0.174665in" version="1.1" style="shape-rendering:geometricPrecision; text-rendering:geometricPrecision; image-rendering:optimizeQuality; fill-rule:evenodd; clip-rule:evenodd"
viewBox="0 0 1144 145"
 xmlns:xlink="http://www.w3.org/1999/xlink">
 <defs>
  <style type="text/css">
   <![CDATA[
    .fil0 {fill:#003399;fill-rule:nonzero}
   ]]>
  </style>
 </defs>
 <g id="Layer_x0020_1">
  <metadata id="CorelCorpID_0Corel-Layer"/>
  <path class="fil0" d="M104 48l-7 31c-2,7 -4,14 -5,21l0 0c-1,-7 -3,-14 -5,-22l-9 -30 -11 0 -8 31c-2,7 -4,14 -6,21l0 0c-1,-7 -2,-14 -4,-21l-7 -31 -14 0 18 64 13 0 8 -28c2,-6 4,-13 5,-20l1 0c1,7 2,13 4,20l9 28 12 0 19 -64 -13 0z"/>
  <path id="1" class="fil0" d="M209 48l-8 31c-1,7 -3,14 -4,21l0 0c-2,-7 -3,-14 -5,-22l-9 -30 -11 0 -8 31c-2,7 -4,14 -6,21l0 0c-1,-7 -2,-14 -4,-21l-7 -31 -14 0 18 64 13 0 8 -28c2,-6 4,-13 5,-20l1 0c1,7 2,13 4,20l9 28 12 0 19 -64 -13 0z"/>
  <path id="2" class="fil0" d="M314 48l-8 31c-1,7 -3,14 -4,21l0 0c-2,-7 -3,-14 -5,-22l-9 -30 -11 0 -9 31c-1,7 -3,14 -5,21l0 0c-1,-7 -3,-14 -4,-21l-7 -31 -14 0 18 64 12 0 9 -28c2,-6 4,-13 5,-20l1 0c1,7 2,13 4,20l9 28 12 0 19 -64 -13 0z"/>
  <path id="3" class="fil0" d="M356 114c6,0 9,-4 9,-9 0,-6 -4,-10 -9,-10 -5,0 -8,4 -8,10 0,5 3,9 8,9z"/>
  <path id="4" class="fil0" d="M478 74c0,-21 -11,-27 -20,-27 -9,0 -16,5 -20,12l0 0c-3,-7 -9,-12 -17,-12 -10,0 -16,5 -19,11l0 0 -1 -10 -12 0c1,6 1,11 1,18l0 46 13 0 0 -38c0,-11 7,-16 13,-16 8,0 11,7 11,16l0 38 13 0 0 -39c0,-9 7,-15 13,-15 8,0 11,7 11,18l0 36 14 0 0 -38z"/>
  <path id="5" class="fil0" d="M551 73c0,-14 -5,-26 -24,-26 -8,0 -16,2 -20,5l2 9c4,-2 10,-4 16,-4 13,0 13,9 13,14 -22,0 -36,8 -36,24 0,10 7,19 19,19 8,0 14,-4 18,-9l0 0 1 7 12 0c-1,-4 -1,-9 -1,-15l0 -24zm-13 18c0,7 -6,13 -13,13 -5,0 -10,-3 -10,-10 0,-12 13,-14 23,-14l0 11z"/>
  <path id="6" class="fil0" d="M633 73c0,-20 -11,-26 -21,-26 -10,0 -16,5 -19,11l-1 0 0 -10 -12 0c0,6 0,11 0,18l0 46 14 0 0 -38c0,-10 7,-16 13,-16 10,0 13,8 13,17l0 37 13 0 0 -39z"/>
  <path id="7" class="fil0" d="M715 74c0,-21 -11,-27 -21,-27 -7,0 -14,3 -18,10l0 0 0 -38 -14 0 0 93 14 0 0 -39c0,-9 7,-15 13,-15 9,0 12,8 12,17l0 37 14 0 0 -38z"/>
  <path id="8" class="fil0" d="M789 73c0,-14 -6,-26 -24,-26 -9,0 -17,2 -21,5l3 9c4,-2 10,-4 15,-4 13,0 13,9 13,14 -22,0 -36,8 -36,24 0,10 7,19 19,19 8,0 15,-4 18,-9l1 0 0 7 13 0c-1,-4 -1,-9 -1,-15l0 -24zm-13 18c0,7 -6,13 -14,13 -5,0 -9,-3 -9,-10 0,-12 12,-14 23,-14l0 11z"/>
  <polygon id="9" class="fil0" points="831,19 818,19 818,112 831,112 "/>
  <path id="10" class="fil0" d="M867 114c5,0 9,-4 9,-9 0,-6 -4,-10 -9,-10 -5,0 -9,4 -9,10 0,5 4,9 9,9z"/>
  <path id="11" class="fil0" d="M942 100c-3,2 -7,3 -12,3 -11,0 -20,-8 -20,-23 0,-12 7,-22 20,-22 5,0 9,1 11,2l3 -10c-3,-2 -8,-3 -14,-3 -21,0 -33,15 -33,34 0,20 12,33 30,33 8,0 14,-2 17,-4l-2 -10z"/>
  <path id="12" class="fil0" d="M994 47c-17,0 -30,12 -30,34 0,21 12,33 29,33 14,0 30,-10 30,-34 0,-20 -12,-33 -29,-33zm15 33c0,13 -6,24 -16,24 -10,0 -15,-11 -15,-24 0,-11 4,-23 15,-23 12,0 16,13 16,23z"/>
  <path id="13" class="fil0" d="M1136 74c0,-21 -10,-27 -20,-27 -9,0 -15,5 -20,12l0 0c-3,-7 -9,-12 -17,-12 -10,0 -15,5 -19,11l0 0 -1 -10 -11 0c0,6 0,11 0,18l0 46 14 0 0 -38c0,-11 6,-16 12,-16 8,0 12,7 12,16l0 38 13 0 0 -39c0,-9 6,-15 12,-15 8,0 12,7 12,18l0 36 13 0 0 -38z"/>
 </g>
</svg>
