<?xml version="1.0" encoding="UTF-8"?>
<!DOCTYPE svg PUBLIC "-//W3C//DTD SVG 1.1//EN" "http://www.w3.org/Graphics/SVG/1.1/DTD/svg11.dtd">
<!-- Creator: CorelDRAW X7 -->
<svg xmlns="http://www.w3.org/2000/svg" xml:space="preserve" width="2.24793in" height="2.37677in" version="1.1" style="shape-rendering:geometricPrecision; text-rendering:geometricPrecision; image-rendering:optimizeQuality; fill-rule:evenodd; clip-rule:evenodd"
viewBox="0 0 2714 2870"
 xmlns:xlink="http://www.w3.org/1999/xlink">
 <defs>
  <style type="text/css">
   <![CDATA[
    .fil2 {fill:#441600}
    .fil3 {fill:#AB5623}
    .fil0 {fill:white}
    .fil4 {fill:#663300;fill-rule:nonzero}
    .fil1 {fill:white;fill-rule:nonzero}
   ]]>
  </style>
 </defs>
 <g id="Layer_x0020_1">
  <metadata id="CorelCorpID_0Corel-Layer"/>
  <path class="fil0" d="M2676 607l-484 -479c-51,-51 -134,-51 -185,0l-650 644 -649 -644c-51,-51 -135,-51 -186,0l-484 479c-51,51 -51,134 0,185l650 643 -650 644c-51,50 -51,133 0,184l484 479c51,51 135,51 186,0l649 -644 650 644c51,51 134,51 185,0l484 -479c51,-51 51,-134 0,-184l-649 -644 649 -644c51,-50 51,-133 0,-184z"/>
  <g>
   <path class="fil1" d="M2443 724l-420 -449 -576 615c-49,53 -130,53 -179,0l-1 0 -575 -615 -1 0 -420 450 0 0 576 615c49,52 49,138 0,191l0 0 -1 0 0 0 1 0 1596 -807zm-247 -647l427 456c3,2 5,4 7,7l1 0 0 1 0 0c47,51 70,117 70,184l1 0c0,61 -21,122 -61,172 -3,4 -7,8 -10,12l-1 0 0 0 -493 526 486 519c3,2 5,4 7,7l1 0 0 1 0 1c47,50 70,116 70,183l1 0c0,61 -21,122 -61,172 -3,4 -7,8 -10,12l-1 1 0 -1 -434 463c-48,51 -111,77 -173,77 -63,0 -125,-26 -173,-77l-493 -525 -492 525c-48,51 -111,77 -173,77 -63,0 -126,-26 -174,-77l-427 -456c-2,-2 -4,-4 -7,-7l0 0 0 -1 -1 0c-46,-51 -70,-117 -70,-183l0 0c0,-62 20,-123 61,-173 3,-4 6,-8 10,-12l0 0 1 0 492 -526 -486 -519c-2,-2 -4,-4 -7,-7l0 0 0 -1 -1 0c-46,-51 -70,-117 -70,-183l0 0c0,-62 20,-123 61,-173 3,-4 6,-8 10,-12l0 0 1 0 427 -456c2,-2 4,-5 6,-8 48,-50 111,-76 174,-76 62,0 125,26 173,76l0 1 0 0 492 526 493 -526c48,-51 110,-77 173,-77 62,0 125,26 173,77zm-1350 1454l-575 615 0 0 421 449 575 -615c50,-53 130,-53 180,0l0 0 576 615 421 -449 -1 -1 -575 -614c-50,-53 -50,-139 0,-191l0 -1 0 0 0 0 0 0 -1022 192zm1022 -192l576 -614 -1 -1 -575 615z"/>
  </g>
  <path class="fil2" d="M2569 752l-445 -444c-47,-47 -123,-47 -170,0l-597 596 -596 -596c-47,-47 -124,-47 -171,0l-444 444c-47,47 -47,124 0,171l596 596 -596 597c-47,47 -47,123 0,170l444 445c47,47 124,47 171,0l596 -597 597 597c47,47 123,47 170,0l445 -445c47,-47 47,-123 0,-170l-597 -597 597 -596c47,-47 47,-124 0,-171z"/>
  <path class="fil3" d="M2569 612l-445 -445c-47,-47 -123,-47 -170,0l-597 597 -596 -597c-47,-47 -124,-47 -171,0l-444 445c-47,47 -47,123 0,170l596 597 -596 596c-47,47 -47,124 0,171l444 444c47,47 124,47 171,0l596 -596 597 596c47,47 123,47 170,0l445 -444c47,-47 47,-124 0,-171l-597 -596 597 -597c47,-47 47,-123 0,-170z"/>
  <path class="fil4" d="M2549 632l-445 -445c-17,-18 -41,-27 -65,-27 -24,0 -47,9 -65,27l-597 597c-11,11 -29,11 -40,0l-596 -597 0 0 -1 -1c-18,-17 -41,-26 -65,-26 -23,0 -47,9 -65,27l0 0 0 0 -444 445 -2 1c-17,18 -25,41 -25,64 0,24 9,48 27,65l596 597c11,11 11,29 0,40l-596 596c-18,18 -27,42 -27,66 0,23 9,47 27,65l444 444c18,18 42,27 65,27 24,0 48,-9 66,-27l596 -596c11,-11 29,-11 40,0l597 596c18,18 41,27 65,27 24,0 48,-9 65,-27l445 -444c18,-18 27,-42 27,-65 0,-24 -9,-48 -27,-66l-597 -596c-11,-11 -11,-29 0,-40l597 -597c18,-18 27,-41 27,-65 0,-24 -9,-47 -27,-65zm-405 -485l445 445c28,29 43,67 43,105 0,38 -15,76 -43,105l-577 577 577 576c28,29 43,68 43,106 0,38 -15,76 -43,105l-445 444c-29,29 -67,44 -105,44 -38,0 -76,-15 -105,-44l-577 -577 -576 577c-29,29 -67,44 -106,44 -38,0 -76,-15 -105,-44l-444 -444c-29,-29 -43,-67 -43,-105 0,-38 14,-77 43,-106l577 -576 -577 -577c-29,-29 -43,-67 -43,-105 0,-37 13,-75 41,-103l2 -2 444 -444 0 -1 0 1 0 -1c29,-28 67,-43 105,-43 38,0 75,14 104,42l2 1 0 1 576 576 577 -577c29,-28 67,-43 105,-43 38,0 76,15 105,43z"/>
 </g>
</svg>
