<?xml version="1.0" encoding="utf-8"?>
<!-- Generator: Adobe Illustrator 16.0.0, SVG Export Plug-In . SVG Version: 6.00 Build 0)  -->
<!DOCTYPE svg PUBLIC "-//W3C//DTD SVG 1.1//EN" "http://www.w3.org/Graphics/SVG/1.1/DTD/svg11.dtd">
<svg version="1.1" id="Isolation_Mode" xmlns="http://www.w3.org/2000/svg" xmlns:xlink="http://www.w3.org/1999/xlink" x="0px"
	 y="0px" width="99.391px" height="72px" viewBox="133.609 696 99.391 72" enable-background="new 133.609 696 99.391 72"
	 xml:space="preserve">
<g>
	<g>
		<g opacity="0.2">
			<circle cx="174.536" cy="733.687" r="32.313"/>
		</g>
		<g>
			<circle fill="#CF873C" cx="174.536" cy="731.201" r="32.313"/>
		</g>
	</g>
	<path fill="#A56226" d="M174.577,737.394c-10.632,0-20.063,5.137-25.951,13.061c5.888,7.924,15.319,13.061,25.951,13.061
		c10.632,0,20.063-5.136,25.952-13.061C194.64,742.531,185.208,737.394,174.577,737.394z"/>
	<path fill="#FCC28B" d="M174.577,698.888c-12.444,0-23.238,7.038-28.636,17.348c5.398,10.31,16.192,17.347,28.636,17.347
		c12.445,0,23.239-7.037,28.637-17.347C197.816,705.926,187.021,698.888,174.577,698.888z"/>
	<circle fill="#FCC28B" cx="174.577" cy="730.042" r="28.636"/>
	<path fill="#E7A149" d="M202.107,728.935c0,15.205-12.326,27.532-27.531,27.532c-13.724,0-25.103-10.044-27.189-23.182l5.524-1.915
		l-5.738,0.234c0,0-0.128-1.769-0.128-2.67c0-15.205,12.326-27.531,27.531-27.531c14.188,0,25.87,10.733,27.368,24.522l-5.788-0.198
		l5.941,2.48C202.105,728.449,202.107,728.693,202.107,728.935z"/>
	<path fill="#E7A149" d="M202.107,728.935c0,15.205-12.326,27.532-27.531,27.532c-13.724,0-25.103-10.044-27.189-23.182l5.524-1.915
		l-5.738,0.234c0,0-0.128-1.769-0.128-2.67c0-15.205,12.326-27.531,27.531-27.531c14.188,0,25.87,10.733,27.368,24.522l-5.788-0.198
		l5.941,2.48C202.105,728.449,202.107,728.693,202.107,728.935z"/>
	<circle fill="#874F21" cx="174.577" cy="728.936" r="21.963"/>
	<circle fill="#A56226" cx="174.577" cy="729.784" r="21.113"/>
	<polygon fill="#A56226" points="142.265,732.25 145.941,730.042 152.913,731.37 147.047,731.799 	"/>
	<polygon fill="#A56226" points="206.806,726.608 203.13,724.399 196.158,725.727 202.024,726.157 	"/>
</g>
<g>
	<path opacity="0.2" enable-background="new    " d="M226.471,739.236l-4.749-4.927c-0.987-1.023-2.211-1.396-2.877-0.876
		l-12.848,12.455c-1.48,1.436-3.882,1.321-5.217-0.248l-5.338-6.275c-0.721-0.69-2.354-0.261-3.536,0.931l-4.819,4.858
		c-1.001,1.009-1.339,2.234-0.793,2.875l13.451,16.567c0.61,0.718,2.099,0.454,3.315-0.587l24.237-21.244
		C228.018,742.073,227.636,740.443,226.471,739.236z"/>
	
		<radialGradient id="SVGID_1_" cx="1.5684" cy="692.1448" r="1.0646" gradientTransform="matrix(17.4615 0 0 -17.2957 179.4724 12717.3594)" gradientUnits="userSpaceOnUse">
		<stop  offset="0" style="stop-color:#76DD51"/>
		<stop  offset="1" style="stop-color:#58C239"/>
	</radialGradient>
	<path fill="url(#SVGID_1_)" d="M226.471,736.345l-4.749-4.926c-0.987-1.023-2.211-1.396-2.877-0.876l-12.848,12.455
		c-1.48,1.436-3.882,1.321-5.217-0.247l-5.338-6.276c-0.721-0.689-2.354-0.261-3.536,0.931l-4.819,4.858
		c-1.001,1.01-1.339,2.234-0.793,2.876l13.451,16.566c0.61,0.718,2.099,0.454,3.315-0.586l24.237-21.246
		C228.018,739.184,227.636,737.553,226.471,736.345z"/>
	<path fill="#39891B" d="M226.225,736.089l-23.164,20.304c-1.217,1.041-2.704,1.305-3.315,0.587l-12.268-15.109l-0.391,0.394
		c-1.001,1.01-1.339,2.234-0.793,2.876l13.451,16.566c0.61,0.718,2.099,0.454,3.315-0.587l24.237-21.245
		c0.72-0.691,0.337-2.322-0.827-3.529L226.225,736.089z"/>
	<path fill="#82E85D" d="M215.01,745.918c0,0-0.363,0.365-0.996,1.004c-0.645,0.627-1.565,1.522-2.67,2.598
		c-1.112,1.064-2.428,2.288-3.841,3.595c-0.713,0.646-1.449,1.314-2.198,1.993c-0.376,0.337-0.755,0.677-1.136,1.018
		c-0.386,0.33-0.742,0.691-1.221,1.03c-0.477,0.326-0.997,0.586-1.595,0.712c-0.572,0.117-1.335,0.121-1.924-0.438l-0.107-0.112
		l-0.06-0.073l-0.117-0.147l-0.235-0.294l-0.467-0.583c-0.307-0.39-0.608-0.773-0.907-1.151c-1.187-1.515-2.272-2.946-3.187-4.187
		c-0.921-1.234-1.647-2.297-2.168-3.029c-0.52-0.734-0.798-1.17-0.798-1.17s0.367,0.361,0.98,1.021
		c0.609,0.661,1.501,1.591,2.521,2.746c1.026,1.149,2.204,2.507,3.443,3.979c0.604,0.724,1.228,1.471,1.861,2.229
		c0.157,0.169,0.541,0.22,0.948,0.136c0.406-0.077,0.827-0.275,1.197-0.523c0.365-0.247,0.743-0.611,1.136-0.941
		c0.389-0.332,0.774-0.664,1.158-0.992c0.771-0.652,1.529-1.295,2.264-1.917c1.48-1.229,2.866-2.373,4.068-3.338
		c1.21-0.954,2.219-1.749,2.925-2.306C214.601,746.23,215.01,745.918,215.01,745.918z"/>
	<path fill="#FFFFFF" d="M220.509,732.671c0.214,0.416-0.072,0.949-0.614,1.232c-0.542,0.285-1.168,0.238-1.425-0.144
		c-0.257-0.383-0.014-0.986,0.569-1.304C219.624,732.139,220.294,732.256,220.509,732.671z"/>
	<path fill="#FFFFFF" d="M213.12,738.777c-0.21-0.36,0.752-1.236,1.967-2.216c1.214-0.979,2.264-1.753,2.553-1.487
		c0.29,0.266-0.339,1.561-1.632,2.634C214.714,738.781,213.33,739.136,213.12,738.777z"/>
</g>
</svg>
