<?xml version="1.0" encoding="utf-8"?>
<!-- Generator: Adobe Illustrator 16.0.0, SVG Export Plug-In . SVG Version: 6.00 Build 0)  -->
<!DOCTYPE svg PUBLIC "-//W3C//DTD SVG 1.1//EN" "http://www.w3.org/Graphics/SVG/1.1/DTD/svg11.dtd">
<svg version="1.1" id="Layer_1" xmlns="http://www.w3.org/2000/svg" xmlns:xlink="http://www.w3.org/1999/xlink" x="0px" y="0px"
	 width="692.389px" height="644.577px" viewBox="96.111 0 692.389 644.577" enable-background="new 96.111 0 692.389 644.577"
	 xml:space="preserve">
<pattern  x="0.5" y="768.5" width="427.42" height="366.36" patternUnits="userSpaceOnUse" id="SVGID_9_" viewBox="0 -366.36 427.42 366.36" overflow="visible">
	<g>
		<polygon fill="none" points="0,0 427.42,0 427.42,-366.36 0,-366.36 		"/>
		<g>
			<polygon fill="none" points="0,0 427.42,0 427.42,-366.36 0,-366.36 			"/>
			<g>
				<polygon opacity="0.2" fill="#E7A149" enable-background="new    " points="0,-227.148 0,-183.114 427.42,-183.114 
					427.42,-227.148 				"/>
				<polygon opacity="0.15" fill="#E7A149" enable-background="new    " points="0,-273.052 0,-229.018 427.42,-229.018 
					427.42,-273.052 				"/>
				<polygon opacity="0.1" fill="#E7A149" enable-background="new    " points="0,-318.61 0,-274.576 427.42,-274.576 
					427.42,-318.61 				"/>
				<polygon opacity="0.15" fill="#E7A149" enable-background="new    " points="0,-364.512 0,-320.479 427.42,-320.479 
					427.42,-364.512 				"/>
				<polygon opacity="0.2" fill="#E7A149" enable-background="new    " points="0,-44.034 0,0 427.42,0 427.42,-44.034 				"/>
				<polygon opacity="0.15" fill="#E7A149" enable-background="new    " points="0,-89.936 0,-45.902 427.42,-45.902 
					427.42,-89.936 				"/>
				<polygon opacity="0.1" fill="#E7A149" enable-background="new    " points="0,-135.495 0,-91.461 427.42,-91.461 
					427.42,-135.495 				"/>
				<polygon opacity="0.15" fill="#E7A149" enable-background="new    " points="0,-181.397 0,-137.363 427.42,-137.363 
					427.42,-181.397 				"/>
			</g>
		</g>
	</g>
</pattern>
<g id="window_x5F_panel_x5F_level_1_">
	<g id="window_x5F_panel_x5F_level_2_">
		<g>
			<g>
				<g>
					<g opacity="0.2">
						<path d="M771.663,207.535c0,0,0-49.996,0-106.929c0-44.481,0-96.126,0-96.126s-51.882,0-120.3,0
							c-129.648,0-288.471,0-418.405,0c-68.883,0-121.241,0-121.241,0s0,52.069,0,96.126c0,54.669,0,102.048,0,102.048h3.379v98.51
							l-1.71,2.548v103.104l1.71,2.044c0,0,0,66.375,0,135.32c0,44.022,0,89.818,0,89.818s50.726,0,117.861,0
							c129.286,0,288.473,0,418.405,0c68.172,0,119.953,0,119.953,0s0-45.797,0-89.818c0-68.945,0-135.32,0-135.32l1.286-4.314
							V301.444l-2.335-1.542l-0.729-92.367H771.663L771.663,207.535z"/>
					</g>
					<g>
						<path fill="#CF883C" d="M771.663,199.952c0,0,0-45.63,0-99.346c0-45.414,0-100.607,0-100.607s-51.882,0-120.3,0
							C521.715,0,362.892,0,232.958,0c-68.883,0-121.241,0-121.241,0s0,55.684,0,100.607c0,51.395,0,94.465,0,94.465h3.379v98.511
							l-1.71,2.548v103.103l1.71,2.044c0,0,0,71.326,0,142.903c0,42.594,0,85.338,0,85.338s50.726,0,117.861,0
							c129.286,0,288.473,0,418.405,0c68.172,0,119.953,0,119.953,0s0-42.744,0-85.338c0-71.577,0-142.903,0-142.903l1.286-4.314
							V293.862l-2.335-1.542l-0.729-92.368L771.663,199.952L771.663,199.952z"/>
					</g>
				</g>
				<path fill="#FCC38B" d="M767.002,191.946c0,0,0-41.86,0-91.339c0-42.244,0-93.887,0-93.887s-49.711,0-115.639,0
					c-129.156,0-288.892,0-418.405,0c-66.484,0-116.759,0-116.759,0s0,51.641,0,93.887c0,49.479,0,91.339,0,91.339h3.36v100.468
					h-3.36v100.468h3.36c0,0,0,77.306,0,151.3c0,40.134,0,78.616,0,78.616s48.651,0,113.399,0c128.795,0,288.883,0,418.405,0
					c65.861,0,115.639,0,115.639,0s0-38.482,0-78.616c0-73.994,0-151.3,0-151.3h3.359V292.413h-5.6V191.947L767.002,191.946
					L767.002,191.946z"/>
				<path fill="#E7A149" d="M764.762,5.816c0,0-48.673,0.102-113.398,0.236c-128.916,0.133-289.123,0.297-418.405,0.43
					C167.674,6.618,118.439,6.72,118.439,6.72s0,52.176,0,93.887c0,46.996,0,86.142,0,86.142l27.728,7.094H121.8v93.709l31.839,6.31
					l-35.2,1.093v94.137h25.65l-22.29,6.86c0,0,0,75.846,0,148.231c0,39.04,0,76.375,0,76.375s47.614,0,111.158,0
					c128.543,0,289.116,0,418.405,0c64.662,0,113.398,0,113.398,0s0-37.289,0-76.375c0-72.849,0-149.388,0-149.388l-32.439-5.704
					l35.8-1.896v-94.781l-18.17,1.896l12.568-7.219v-91.619l-17.961-2.557l20.202-7.698c0,0,0-38.297,0-84.61
					C764.762,58.752,764.762,5.816,764.762,5.816z"/>
				<path fill="#CF883C" d="M751.318,600.396c0,0-42.468,0-99.955,0c-127.27,0-290.706,0-418.405,0c-58.056,0-101.077,0-101.077,0
					s0-22.259,0-56.214c0-116.187,0-313.299,0-443.575c0-45.415,0-77.084,0-77.084s43.021,0,101.077,0
					c127.699,0,291.135,0,418.405,0c57.488,0,99.955,0,99.955,0s0,31.669,0,77.084c0,130.276,0,327.389,0,443.575
					C751.318,578.137,751.318,600.396,751.318,600.396z"/>
				<path fill="#A56226" d="M132.374,23.522l7.268,6.721c0,0,39.459,0,93.317,0c126.576,0,292.225,0,418.405,0
					c53.375,0,92.376,0,92.376,0l7.269-6.721c0,0-42.327,0-99.645,0c-127.249,0-290.794,0-418.405,0
					C175.165,23.522,132.374,23.522,132.374,23.522z"/>
				<path fill="#FCC38B" d="M132.374,600.396l7.268-6.722c0,0,39.459,0,93.317,0c126.576,0,292.225,0,418.405,0
					c53.375,0,92.376,0,92.376,0l7.269,6.722c0,0-42.327,0-99.645,0c-127.249,0-290.794,0-418.405,0
					C175.165,600.396,132.374,600.396,132.374,600.396z"/>
				<path fill="#FCC38B" d="M111.717,0l4.418,6.72c0,0,50.302,0,116.823,0c129.501,0,289.204,0,418.405,0
					c66.055,0,115.884,0,115.884,0L771.665,0c0,0-51.883,0-120.301,0C521.715,0,362.892,0,232.958,0C164.075,0,111.717,0,111.717,0z
					"/>
				<polygon fill="#A56226" points="769.538,199.529 765.24,191.931 744.543,192.808 765.622,186.483 771.663,199.529 				"/>
				<polygon fill="#A56226" points="749.95,293.908 765.24,292.413 770.267,292.413 770.229,287.664 763.651,287.137 				"/>
				<polygon fill="#A56226" points="772.602,397.19 768.643,389.091 732.281,389.091 766.977,392.719 771.315,401.504 				"/>
				<path fill="#A56226" d="M115.097,629.52l4.34-6.722c0,0,48.711,0,113.521,0c128.824,0,288.901,0,418.405,0
					c65.851,0,115.613,0,115.613,0l4.339,6.722c0,0-51.78,0-119.953,0c-129.933,0-289.119,0-418.405,0
					C165.821,629.52,115.097,629.52,115.097,629.52z"/>
				<polygon fill="#A56226" points="143.542,389.091 119.437,392.719 115.097,401.391 113.385,399.516 117.758,389.091 				"/>
				<polygon fill="#A56226" points="119.437,292.413 154.008,293.908 121.023,287.621 116.135,292.413 				"/>
				<polygon fill="#A56226" points="111.717,195.737 117.758,187.081 146.166,193.081 119.437,192.559 115.097,195.737 				"/>
				<g>
					
						<linearGradient id="SVGID_1_" gradientUnits="userSpaceOnUse" x1="-55.6909" y1="814.8274" x2="-55.6909" y2="823.4913" gradientTransform="matrix(1.3569 0 0 -1.3569 202.6223 1129.5956)">
						<stop  offset="0" style="stop-color:#F0B66C"/>
						<stop  offset="1" style="stop-color:#AA611D"/>
					</linearGradient>
					<ellipse fill="url(#SVGID_1_)" cx="127.056" cy="16.615" rx="6.939" ry="6.919"/>
					<g>
						<ellipse fill="#303030" cx="127.056" cy="16.615" rx="5.297" ry="5.282"/>
						<g>
							<path fill="#51504F" d="M127.056,14.373c2.13,0,3.903,1.453,4.423,3.412c0.099-0.377,0.17-0.765,0.17-1.171
								c0-2.528-2.055-4.579-4.593-4.579c-2.538,0-4.594,2.051-4.594,4.579c0,0.408,0.07,0.794,0.171,1.171
								C123.152,15.825,124.926,14.373,127.056,14.373z"/>
						</g>
						<ellipse fill="#848280" cx="126.919" cy="12.994" rx="1.271" ry="0.597"/>
					</g>
				</g>
				<g>
					
						<linearGradient id="SVGID_2_" gradientUnits="userSpaceOnUse" x1="407.0415" y1="814.8274" x2="407.0415" y2="823.4913" gradientTransform="matrix(1.3569 0 0 -1.3569 202.6223 1129.5956)">
						<stop  offset="0" style="stop-color:#F0B66C"/>
						<stop  offset="1" style="stop-color:#AA611D"/>
					</linearGradient>
					<ellipse fill="url(#SVGID_2_)" cx="754.937" cy="16.615" rx="6.939" ry="6.919"/>
					<g>
						<ellipse fill="#303030" cx="754.937" cy="16.615" rx="5.297" ry="5.282"/>
						<g>
							<path fill="#51504F" d="M754.937,14.373c2.13,0,3.903,1.453,4.423,3.412c0.101-0.377,0.171-0.765,0.171-1.171
								c0-2.528-2.056-4.579-4.594-4.579s-4.594,2.051-4.594,4.579c0,0.408,0.069,0.794,0.171,1.171
								C751.033,15.825,752.807,14.373,754.937,14.373z"/>
						</g>
						<ellipse fill="#848280" cx="754.801" cy="12.994" rx="1.271" ry="0.597"/>
					</g>
				</g>
				<g>
					
						<linearGradient id="SVGID_3_" gradientUnits="userSpaceOnUse" x1="-53.3423" y1="376.2112" x2="-53.3423" y2="384.8759" gradientTransform="matrix(1.3569 0 0 -1.3569 202.6223 1129.5956)">
						<stop  offset="0" style="stop-color:#F0B66C"/>
						<stop  offset="1" style="stop-color:#AA611D"/>
					</linearGradient>
					<ellipse fill="url(#SVGID_3_)" cx="130.243" cy="611.774" rx="6.938" ry="6.919"/>
					<g>
						<ellipse fill="#303030" cx="130.243" cy="611.774" rx="5.297" ry="5.283"/>
						<g>
							<path fill="#51504F" d="M130.243,609.532c2.13,0,3.903,1.451,4.423,3.412c0.1-0.377,0.17-0.765,0.17-1.172
								c0-2.529-2.055-4.579-4.593-4.579c-2.538,0-4.595,2.051-4.595,4.579c0,0.408,0.07,0.795,0.171,1.172
								C126.338,610.984,128.113,609.532,130.243,609.532z"/>
						</g>
						<ellipse fill="#848280" cx="130.106" cy="608.152" rx="1.271" ry="0.597"/>
					</g>
				</g>
				<g>
					
						<linearGradient id="SVGID_4_" gradientUnits="userSpaceOnUse" x1="407.8794" y1="376.4778" x2="407.8794" y2="385.1425" gradientTransform="matrix(1.3569 0 0 -1.3569 202.6223 1129.5956)">
						<stop  offset="0" style="stop-color:#F0B66C"/>
						<stop  offset="1" style="stop-color:#AA611D"/>
					</linearGradient>
					<ellipse fill="url(#SVGID_4_)" cx="756.073" cy="611.412" rx="6.94" ry="6.919"/>
					<g>
						<ellipse fill="#303030" cx="756.073" cy="611.412" rx="5.297" ry="5.283"/>
						<g>
							<path fill="#51504F" d="M756.073,609.17c2.131,0,3.903,1.453,4.424,3.412c0.1-0.377,0.17-0.765,0.17-1.171
								c0-2.529-2.056-4.579-4.594-4.579c-2.537,0-4.593,2.051-4.593,4.579c0,0.408,0.068,0.794,0.17,1.171
								C752.17,610.621,753.944,609.17,756.073,609.17z"/>
						</g>
						<ellipse fill="#848280" cx="755.938" cy="607.791" rx="1.271" ry="0.597"/>
					</g>
				</g>
			</g>
			<g>
				<path fill="#874F21" d="M743.479,593.674c0,0-38.88,0-92.115,0c-126.114,0-291.816,0-418.405,0c-53.811,0-93.236,0-93.236,0
					s0-19.414,0-49.492c0-112.978,0-314.847,0-443.575c0-41.664,0-70.363,0-70.363s39.425,0,93.236,0c126.589,0,292.291,0,418.405,0
					c53.235,0,92.115,0,92.115,0s0,28.698,0,70.363c0,128.729,0,330.598,0,443.575C743.479,574.26,743.479,593.674,743.479,593.674z
					"/>
				<pattern  id="SVGID_5_" xlink:href="#SVGID_9_" patternTransform="matrix(2.0956 0 0 -2.0015 18469.6836 -30477.2168)">
				</pattern>
				<path display="none" fill="url(#SVGID_5_)" d="M743.479,593.674c0,0-38.88,0-92.115,0c-126.114,0-291.816,0-418.405,0
					c-53.811,0-93.236,0-93.236,0s0-19.414,0-49.492c0-112.978,0-314.847,0-443.575c0-41.664,0-70.363,0-70.363s39.425,0,93.236,0
					c126.589,0,292.291,0,418.405,0c53.235,0,92.115,0,92.115,0s0,28.698,0,70.363c0,128.729,0,330.598,0,443.575
					C743.479,574.26,743.479,593.674,743.479,593.674z"/>
				<path opacity="0.31" enable-background="new    " d="M139.722,30.243c0,0,0,28.698,0,70.363c0,128.729,0,330.598,0,443.575
					c0,30.078,0,49.492,0,49.492s39.425,0,93.236,0c126.589,0,292.291,0,418.405,0c53.235,0,92.115,0,92.115,0s0-19.414,0-49.492
					c0-112.978,0-314.847,0-443.575c0-41.664,0-70.363,0-70.363s-38.88,0-92.115,0c-126.114,0-291.816,0-418.405,0
					C179.147,30.243,139.722,30.243,139.722,30.243z M738.997,592.555c0,0-36.837,0-87.634,0c-125.373,0-292.527,0-418.405,0
					c-51.374,0-88.755,0-88.755,0s0-18.973,0-48.373c0-113.273,0-318.011,0-443.575c0-37.937,0-63.642,0-63.642s37.381,0,88.755,0
					c125.877,0,293.03,0,418.405,0c50.797,0,87.634,0,87.634,0s0,25.706,0,63.642c0,125.564,0,330.302,0,443.575
					C738.997,573.582,738.997,592.555,738.997,592.555z"/>
			</g>
		</g>
	</g>
</g>
<g id="nyt_x5F_exporter_x5F_info" display="none">
</g>
</svg>
