<?xml version="1.0" encoding="utf-8"?>
<!-- Generator: Adobe Illustrator 16.0.0, SVG Export Plug-In . SVG Version: 6.00 Build 0)  -->
<!DOCTYPE svg PUBLIC "-//W3C//DTD SVG 1.1//EN" "http://www.w3.org/Graphics/SVG/1.1/DTD/svg11.dtd">
<svg version="1.1" id="Isolation_Mode" xmlns="http://www.w3.org/2000/svg" xmlns:xlink="http://www.w3.org/1999/xlink" x="0px"
	 y="0px" width="36px" height="49px" viewBox="552.5 421.5 36 49" enable-background="new 552.5 421.5 36 49" xml:space="preserve">
<g>
	<g opacity="0.2">
		<path d="M563.802,438.057c5.523,3.604,10.657,7.777,15.894,11.776c1.106,0.828,1.117,2.316,0.019,3.145
			c-5.258,4.033-10.425,8.228-16.036,11.774c-1.332,0.816-3.477-0.591-3.602-2.168c-0.417-7.532-0.361-14.85,0.168-22.374
			C560.394,438.635,562.509,437.237,563.802,438.057z"/>
	</g>
	<g>
		<path fill="#FFFFFF" d="M563.802,431.634c5.523,3.605,10.657,7.777,15.894,11.776c1.106,0.829,1.117,2.316,0.019,3.146
			c-5.258,4.033-10.425,8.227-16.036,11.774c-1.332,0.815-3.477-0.591-3.602-2.169c-0.417-7.531-0.361-14.849,0.168-22.374
			C560.394,432.212,562.509,430.814,563.802,431.634z"/>
	</g>
</g>
</svg>
