<?xml version="1.0" encoding="UTF-8"?>
<!DOCTYPE svg PUBLIC "-//W3C//DTD SVG 1.1//EN" "http://www.w3.org/Graphics/SVG/1.1/DTD/svg11.dtd">
<!-- Creator: CorelDRAW X7 -->
<svg xmlns="http://www.w3.org/2000/svg" xml:space="preserve" width="13.6914mm" height="9.7762mm" version="1.1" style="shape-rendering:geometricPrecision; text-rendering:geometricPrecision; image-rendering:optimizeQuality; fill-rule:evenodd; clip-rule:evenodd"
viewBox="0 0 156859 112003"
 xmlns:xlink="http://www.w3.org/1999/xlink">
 <defs>
  <style type="text/css">
   <![CDATA[
    .fil0 {fill:#99D501}
   ]]>
  </style>
 </defs>
 <g id="Layer_x0020_1">
  <metadata id="CorelCorpID_0Corel-Layer"/>
  <path class="fil0" d="M89182 91240c1099,-460 4039,-3565 5097,-4644 794,-811 1779,-1729 2566,-2502l2527 -2506 49136 -46419c3534,-3107 7189,-5851 8117,-11238 1594,-9242 -5323,-12416 -11019,-17402 -1132,-991 -4496,-3936 -5741,-3967 -1140,-2450 -10848,-3157 -14874,-2059 -2373,646 -5845,2132 -7675,3767 -2114,1888 -3035,2023 -3728,3405 -565,176 -45,-107 -817,349l-13274 10825c-573,466 -977,916 -1488,1347 -3302,2791 -6151,4776 -9381,7774 -5439,5048 -12487,10422 -18355,15902 -2080,1945 -4485,3512 -5915,5653 -1525,336 -1633,1556 -3168,2081l-12251 -10911c-2259,-2067 -10134,-9010 -12709,-10458 -5466,-3074 -13630,-2824 -18699,239 -2627,1588 -10050,8299 -12685,10795 -5152,4878 -6127,11466 -3252,17273 1787,3610 8197,9439 11244,12221 1371,1251 22230,22539 23610,22944 576,1115 9621,10127 11248,11682 2326,2223 3533,3638 6411,5042 2531,1235 6489,1943 9814,1368 8347,-1444 12633,-8079 19593,-14705 1023,-974 5071,-4691 5668,-5856z"/>
 </g>
</svg>
