<?xml version="1.0" encoding="utf-8"?>
<!-- Generator: Adobe Illustrator 16.0.0, SVG Export Plug-In . SVG Version: 6.00 Build 0)  -->
<!DOCTYPE svg PUBLIC "-//W3C//DTD SVG 1.1//EN" "http://www.w3.org/Graphics/SVG/1.1/DTD/svg11.dtd">
<svg version="1.1" id="Layer_1" xmlns="http://www.w3.org/2000/svg" xmlns:xlink="http://www.w3.org/1999/xlink" x="0px" y="0px"
	 width="220.5px" height="55px" viewBox="0 0 220.5 55" enable-background="new 0 0 220.5 55" xml:space="preserve">
<g>
	<g>
		<linearGradient id="SVGID_1_" gradientUnits="userSpaceOnUse" x1="22.4185" y1="11.8301" x2="22.4185" y2="43.2673">
			<stop  offset="0" style="stop-color:#2BC4F3"/>
			<stop  offset="0.5" style="stop-color:#00AEEE"/>
			<stop  offset="1" style="stop-color:#0095DA"/>
		</linearGradient>
		<path fill="url(#SVGID_1_)" d="M16.103,49.18c-0.501,0-0.969-0.25-1.248-0.667s-0.33-0.945-0.138-1.408
			c0.437-1.052,0.75-2.123,0.931-3.185c0.186-1.089,0.28-2.465,0.28-4.091v-8.342L8.82,18.921c-1.192-2.082-2.196-3.716-2.979-4.852
			c-0.754-1.094-1.484-1.993-2.171-2.673c-0.432-0.428-0.563-1.074-0.332-1.637C3.57,9.198,4.118,8.831,4.726,8.831h12.401
			c0.739,0,1.368,0.539,1.482,1.269c0.085,0.548,0.199,1.049,0.336,1.489c0.136,0.438,0.347,0.942,0.63,1.502l3.033,6.193
			l3.542-6.255c0.265-0.47,0.484-0.931,0.649-1.368c0.163-0.427,0.31-0.972,0.438-1.621c0.139-0.703,0.755-1.209,1.472-1.209H40.11
			c0.611,0,1.161,0.371,1.391,0.937c0.229,0.566,0.092,1.215-0.347,1.641c-0.669,0.648-1.398,1.531-2.167,2.624
			c-0.802,1.142-1.857,2.799-3.136,4.923l-6.968,11.971v8.902c0,1.627,0.094,3.003,0.279,4.091c0.182,1.062,0.495,2.134,0.931,3.185
			c0.192,0.463,0.141,0.991-0.138,1.408s-0.747,0.667-1.248,0.667H16.103z"/>
		<path fill="#FFFFFF" d="M40.11,10.331h0.005 M40.11,10.331c-0.739,0.716-1.523,1.662-2.35,2.839
			c-0.828,1.179-1.892,2.85-3.194,5.013l-7.183,12.339v9.308c0,1.717,0.1,3.166,0.301,4.343c0.201,1.177,0.542,2.347,1.024,3.508
			h-6.291h-6.315c0.482-1.161,0.823-2.331,1.024-3.508c0.201-1.177,0.302-2.626,0.302-4.343v-8.736l-7.303-12.91
			c-1.222-2.132-2.238-3.787-3.049-4.964c-0.812-1.178-1.595-2.14-2.35-2.888h6.189h6.212c0.097,0.62,0.225,1.189,0.386,1.705
			c0.16,0.518,0.401,1.095,0.723,1.731l4.278,8.735l-0.002-0.006l4.943-8.729c0.305-0.541,0.554-1.066,0.747-1.575
			c0.193-0.509,0.362-1.13,0.506-1.861h5.701H40.11 M40.115,7.331H40.11H34.41h-5.701c-1.433,0-2.666,1.013-2.943,2.418
			c-0.14,0.706-0.277,1.139-0.368,1.377c-0.14,0.369-0.327,0.761-0.556,1.167l-2.138,3.776l-1.773-3.622
			c-0.262-0.519-0.442-0.944-0.552-1.299c-0.118-0.377-0.214-0.805-0.288-1.28c-0.228-1.461-1.486-2.538-2.964-2.538h-6.212H4.726
			c-1.216,0-2.312,0.734-2.774,1.859c-0.462,1.125-0.201,2.417,0.664,3.273c0.62,0.614,1.29,1.441,1.991,2.458
			c0.759,1.102,1.74,2.701,2.917,4.753l6.906,12.208v7.946c0,1.541-0.087,2.832-0.259,3.837c-0.163,0.953-0.444,1.916-0.838,2.863
			c-0.384,0.926-0.281,1.982,0.276,2.816c0.557,0.833,1.493,1.334,2.495,1.334h6.315h6.291c1.002,0,1.938-0.501,2.495-1.334
			c0.557-0.834,0.66-1.891,0.276-2.816c-0.394-0.947-0.675-1.911-0.838-2.863c-0.171-1.003-0.258-2.294-0.258-3.837v-8.498
			l6.775-11.639c1.238-2.057,2.274-3.684,3.056-4.798c0.697-0.991,1.349-1.787,1.939-2.366c0.589-0.548,0.958-1.33,0.958-2.197
			C43.113,8.674,41.772,7.331,40.115,7.331L40.115,7.331z"/>
	</g>
	<g>
		<linearGradient id="SVGID_2_" gradientUnits="userSpaceOnUse" x1="48.2192" y1="10.7061" x2="48.2192" y2="43.038">
			<stop  offset="0" style="stop-color:#2BC4F3"/>
			<stop  offset="0.5" style="stop-color:#00AEEE"/>
			<stop  offset="1" style="stop-color:#0095DA"/>
		</linearGradient>
		<path fill="url(#SVGID_2_)" d="M47.568,49.729c-4.248,0-7.796-1.305-10.546-3.877c-2.778-2.599-4.187-5.974-4.187-10.033
			c0-4.67,1.518-8.563,4.511-11.571c2.994-3.009,6.872-4.535,11.524-4.535c4.264,0,7.817,1.31,10.561,3.892
			c2.769,2.608,4.172,5.995,4.172,10.066c0,4.654-1.514,8.535-4.498,11.534C56.118,48.207,52.236,49.729,47.568,49.729z
			 M46.064,28.139c-0.208,0.351-0.431,0.843-0.641,1.531c-0.348,1.14-0.525,2.374-0.525,3.667c0,2.095,0.524,3.873,1.603,5.437
			c0.854,1.238,1.869,2.076,3.086,2.544c0.416-0.528,0.78-1.173,1.086-1.925c0.447-1.094,0.673-2.184,0.673-3.239
			c0-2.023-0.572-3.771-1.75-5.342C48.634,29.527,47.472,28.646,46.064,28.139z"/>
		<path fill="#FFFFFF" d="M48.87,21.213c3.889,0,7.066,1.162,9.533,3.484c2.467,2.324,3.7,5.314,3.7,8.974
			c0,4.264-1.354,7.756-4.062,10.477c-2.708,2.721-6.199,4.081-10.473,4.081c-3.873,0-7.046-1.157-9.521-3.473
			c-2.475-2.314-3.712-5.294-3.712-8.938c0-4.278,1.357-7.783,4.074-10.513C41.125,22.577,44.611,21.213,48.87,21.213
			 M50.051,43.026c0.819-0.764,1.49-1.786,2.012-3.067c0.522-1.28,0.784-2.549,0.784-3.806c0-2.34-0.684-4.419-2.049-6.241
			c-1.366-1.821-3.126-2.987-5.279-3.496c-0.626,0.589-1.137,1.527-1.531,2.816c-0.394,1.289-0.59,2.656-0.59,4.104
			c0,2.387,0.623,4.482,1.868,6.288C46.512,41.432,48.106,42.564,50.051,43.026 M48.87,18.213c-5.066,0-9.301,1.674-12.587,4.977
			c-3.283,3.299-4.947,7.548-4.947,12.629c0,4.491,1.569,8.235,4.663,11.129c3.036,2.841,6.929,4.281,11.57,4.281
			c5.082,0,9.32-1.67,12.6-4.965c3.274-3.291,4.935-7.527,4.935-12.593c0-4.5-1.562-8.254-4.643-11.157
			C57.428,19.66,53.529,18.213,48.87,18.213L48.87,18.213z M49.06,39.333c-0.483-0.357-0.918-0.823-1.323-1.41
			c-0.901-1.306-1.338-2.806-1.338-4.586c0-1.11,0.146-2.166,0.433-3.139c0.583,0.392,1.103,0.895,1.567,1.514
			c0.975,1.301,1.449,2.754,1.449,4.441c0,0.872-0.184,1.747-0.562,2.672C49.213,39.003,49.138,39.172,49.06,39.333L49.06,39.333z"
			/>
	</g>
	<g>
		<linearGradient id="SVGID_3_" gradientUnits="userSpaceOnUse" x1="80.4487" y1="10.625" x2="80.4487" y2="43.0241">
			<stop  offset="0" style="stop-color:#2BC4F3"/>
			<stop  offset="0.5" style="stop-color:#00AEEE"/>
			<stop  offset="1" style="stop-color:#0095DA"/>
		</linearGradient>
		<path fill="url(#SVGID_3_)" d="M77.254,49.729c-3.225,0-5.766-0.896-7.552-2.666c-1.79-1.771-2.698-4.294-2.698-7.496V26.464
			c0-0.504-0.077-1.05-0.228-1.623c-0.165-0.624-0.47-1.463-0.907-2.495c-0.196-0.463-0.147-0.994,0.131-1.414
			c0.278-0.419,0.748-0.671,1.25-0.671h11.811c0.521,0,1.004,0.271,1.277,0.714c0.042,0.068,0.078,0.139,0.108,0.212
			c0.037-0.088,0.082-0.173,0.135-0.254c0.278-0.419,0.747-0.672,1.25-0.672h11.812c0.522,0,1.007,0.271,1.28,0.717
			c0.272,0.445,0.293,1,0.056,1.466c-0.488,0.955-0.835,1.874-1.031,2.73c-0.198,0.872-0.298,1.94-0.298,3.173v13.055
			c0,1.112,0.083,2.099,0.248,2.931c0.164,0.835,0.461,1.763,0.885,2.76c0.197,0.463,0.148,0.994-0.13,1.414
			s-0.748,0.672-1.251,0.672H83.088c-0.788,0-1.434-0.607-1.495-1.38l-2.022,1.566c-0.249,0.193-0.552,0.303-0.867,0.313
			C78.704,49.68,77.271,49.729,77.254,49.729z M80.401,22.438c-0.469,0.929-0.809,2.15-1.01,3.63
			c-0.214,1.564-0.323,3.816-0.323,6.695v5.8c0,0.804,0.141,1.409,0.407,1.752c0.135,0.174,0.346,0.352,0.888,0.352
			c0.443,0,0.841-0.125,1.225-0.388V29.614c0-1.694-0.087-3.109-0.259-4.207c-0.166-1.05-0.46-2.08-0.875-3.06
			c-0.002-0.004-0.003-0.007-0.005-0.011C80.434,22.37,80.418,22.404,80.401,22.438z"/>
		<path fill="#FFFFFF" d="M93.646,21.762h0.005 M93.646,21.762c-0.546,1.067-0.933,2.093-1.158,3.079
			c-0.224,0.986-0.336,2.156-0.336,3.508v13.055c0,1.209,0.091,2.283,0.276,3.222c0.185,0.938,0.51,1.957,0.976,3.055h-5.158h-5.157
			v-2.936l-4.436,3.437l-1.398,0.048c-2.829,0-4.994-0.743-6.496-2.231c-1.503-1.487-2.254-3.631-2.254-6.431V26.464
			c0-0.637-0.092-1.305-0.277-2.005c-0.185-0.7-0.511-1.599-0.976-2.697h5.905h5.906c-0.547,1.083-0.933,2.45-1.158,4.104
			c-0.225,1.641-0.337,3.939-0.337,6.897v5.8c0,1.161,0.241,2.053,0.723,2.673c0.482,0.62,1.172,0.931,2.072,0.931
			c1.013,0,1.921-0.397,2.725-1.193V29.614c0-1.782-0.093-3.262-0.277-4.439c-0.186-1.177-0.511-2.314-0.977-3.413h5.905H93.646
			 M93.65,18.762h-0.005h-5.906h-5.905c-0.49,0-0.964,0.12-1.386,0.339c-0.421-0.22-0.895-0.339-1.386-0.339h-5.906h-5.905
			c-1.006,0-1.945,0.504-2.501,1.343s-0.654,1.9-0.261,2.827c0.509,1.203,0.737,1.912,0.838,2.294
			c0.117,0.445,0.177,0.863,0.177,1.238v13.103c0,3.618,1.058,6.499,3.144,8.563c2.076,2.056,4.972,3.099,8.606,3.099
			c0.034,0,0.068-0.001,0.103-0.002l1.398-0.048c0.63-0.021,1.237-0.24,1.735-0.627l0.704-0.545
			c0.517,0.421,1.176,0.673,1.894,0.673h5.157h5.158c1.006,0,1.946-0.505,2.501-1.344c0.556-0.84,0.653-1.901,0.26-2.828
			c-0.383-0.902-0.65-1.73-0.794-2.462c-0.146-0.739-0.22-1.627-0.22-2.643V28.349c0-1.122,0.088-2.079,0.262-2.844
			c0.161-0.704,0.449-1.473,0.856-2.284c0.241-0.432,0.379-0.929,0.379-1.459C96.648,20.105,95.307,18.762,93.65,18.762
			L93.65,18.762z"/>
	</g>
</g>
<g>
	<g>
		<linearGradient id="SVGID_4_" gradientUnits="userSpaceOnUse" x1="135.9014" y1="20.5083" x2="135.9014" y2="56.1001">
			<stop  offset="0" style="stop-color:#F69453"/>
			<stop  offset="0.5" style="stop-color:#F37521"/>
			<stop  offset="1" style="stop-color:#F15A29"/>
		</linearGradient>
		<path fill="url(#SVGID_4_)" d="M141.748,50.167c-0.655,0-1.235-0.426-1.432-1.052l-4.535-14.47l-4.313,14.45
			c-0.189,0.636-0.774,1.071-1.438,1.071h-7.838c-0.679,0-1.272-0.455-1.448-1.11l-7.981-29.69
			c-0.482-1.756-0.954-3.223-1.402-4.354c-0.438-1.108-0.959-2.178-1.548-3.179c-0.273-0.464-0.276-1.038-0.009-1.505
			c0.267-0.467,0.764-0.755,1.302-0.755h12.788c0.433,0,0.844,0.187,1.129,0.512c0.284,0.325,0.415,0.758,0.358,1.187
			c-0.152,1.14-0.222,2.139-0.205,2.968c0.014,0.81,0.124,1.677,0.327,2.582l1.918,8.985l2.642-9.675
			c0.232-0.862,0.453-1.815,0.654-2.828c0.2-1.007,0.333-1.81,0.393-2.386c0.08-0.764,0.725-1.344,1.492-1.344h7.06
			c0.769,0,1.413,0.581,1.492,1.346c0.076,0.742,0.206,1.636,0.386,2.657c0.176,1,0.363,1.853,0.56,2.537l2.63,10.254l2.41-11.261
			c0.135-0.59,0.188-1.135,0.163-1.641c-0.028-0.549-0.145-1.231-0.345-2.025c-0.113-0.449-0.014-0.924,0.271-1.289
			c0.284-0.365,0.721-0.579,1.184-0.579h12.285c0.539,0,1.037,0.29,1.304,0.758s0.262,1.045-0.015,1.508
			c-0.603,1.014-1.131,2.089-1.568,3.196c-0.445,1.124-0.918,2.584-1.405,4.341l-7.979,29.679c-0.176,0.655-0.77,1.11-1.448,1.11
			H141.748z"/>
		<path fill="#FFFFFF" d="M160.696,11.073c-0.647,1.089-1.205,2.226-1.674,3.411c-0.47,1.186-0.954,2.683-1.456,4.492l-7.981,29.69
			h-3.906h-3.931l-6.002-19.148l0.021-0.068h-0.042l0.021,0.068l-5.716,19.148h-3.906h-3.932l-7.981-29.69
			c-0.501-1.826-0.986-3.331-1.456-4.517c-0.469-1.185-1.019-2.313-1.649-3.387h6.382h6.406c-0.162,1.217-0.235,2.282-0.218,3.195
			c0.016,0.912,0.137,1.873,0.363,2.882l3.201,14.99h0.007l4.263-15.614c0.242-0.897,0.469-1.874,0.679-2.931
			s0.348-1.897,0.413-2.522h3.518h3.542c0.081,0.785,0.215,1.706,0.4,2.763s0.384,1.953,0.595,2.69l4.183,16.311h0.039l3.728-17.416
			c0.161-0.704,0.227-1.381,0.194-2.029c-0.033-0.648-0.162-1.422-0.389-2.318h6.144H160.696 M160.696,8.073h-6.142h-6.144
			c-0.925,0-1.799,0.427-2.367,1.157s-0.769,1.681-0.541,2.578c0.22,0.871,0.285,1.425,0.301,1.737
			c0.019,0.364-0.023,0.771-0.123,1.207l-1.084,5.065l-1.034-4.035c-0.007-0.027-0.015-0.054-0.021-0.08
			c-0.182-0.634-0.358-1.436-0.524-2.384c-0.174-0.986-0.299-1.845-0.371-2.552c-0.158-1.529-1.447-2.692-2.984-2.692h-3.542h-3.518
			c-1.536,0-2.824,1.16-2.983,2.688c-0.056,0.531-0.181,1.288-0.372,2.25c-0.195,0.98-0.407,1.899-0.633,2.733l-1.014,3.714
			l-0.627-2.935c-0.188-0.836-0.285-1.602-0.297-2.307c-0.015-0.76,0.05-1.682,0.191-2.748c0.114-0.857-0.146-1.722-0.717-2.372
			c-0.569-0.651-1.393-1.024-2.257-1.024h-6.406h-6.382c-1.076,0-2.069,0.576-2.604,1.51c-0.534,0.934-0.527,2.083,0.018,3.01
			c0.55,0.936,1.037,1.935,1.446,2.971c0.428,1.081,0.883,2.496,1.352,4.206l7.978,29.675c0.353,1.311,1.541,2.222,2.897,2.222
			h3.932h3.906c1.326,0,2.495-0.871,2.875-2.142l2.911-9.753l3.069,9.792c0.392,1.251,1.551,2.103,2.862,2.103h3.931h3.906
			c1.356,0,2.545-0.911,2.897-2.222l7.981-29.69c0.467-1.683,0.922-3.092,1.348-4.166c0.409-1.034,0.901-2.037,1.463-2.983
			c0.552-0.927,0.563-2.079,0.029-3.017S161.775,8.073,160.696,8.073L160.696,8.073z"/>
	</g>
	<g>
		<linearGradient id="SVGID_5_" gradientUnits="userSpaceOnUse" x1="172.9277" y1="20.6045" x2="172.9277" y2="56.0805">
			<stop  offset="0" style="stop-color:#F69453"/>
			<stop  offset="0.5" style="stop-color:#F37521"/>
			<stop  offset="1" style="stop-color:#F15A29"/>
		</linearGradient>
		<path fill="url(#SVGID_5_)" d="M166.984,50.167c-0.503,0-0.973-0.252-1.251-0.672c-0.277-0.42-0.326-0.951-0.13-1.414
			c0.421-0.991,0.722-2.031,0.896-3.091c0.163-1.087,0.247-2.516,0.247-4.227V30.482c0-1.703-0.088-3.128-0.262-4.236
			c-0.166-1.059-0.463-2.096-0.881-3.081c-0.196-0.463-0.147-0.994,0.13-1.414c0.278-0.419,0.748-0.672,1.251-0.672h3.274
			c-0.84-0.332-1.602-0.834-2.28-1.507c-1.333-1.32-2.009-2.96-2.009-4.873c0-1.914,0.676-3.553,2.01-4.873
			c1.328-1.316,2.978-1.984,4.9-1.984c1.922,0,3.571,0.667,4.9,1.984c1.334,1.32,2.011,2.959,2.011,4.873
			c0,1.913-0.676,3.552-2.01,4.873c-0.68,0.672-1.441,1.175-2.281,1.507h3.372c0.522,0,1.007,0.272,1.279,0.717
			c0.272,0.446,0.294,1.001,0.056,1.466c-0.471,0.92-0.812,2.14-1.013,3.625c-0.217,1.591-0.326,3.867-0.326,6.765v7.11
			c0,1.71,0.088,3.135,0.261,4.235c0.166,1.058,0.463,2.094,0.882,3.081c0.197,0.463,0.149,0.994-0.129,1.414
			c-0.277,0.42-0.747,0.673-1.251,0.673H166.984z"/>
		<path fill="#FFFFFF" d="M172.88,9.344c1.521,0,2.802,0.517,3.846,1.55c1.043,1.032,1.565,2.302,1.565,3.807
			c0,1.506-0.522,2.774-1.565,3.808c-1.044,1.033-2.325,1.55-3.846,1.55s-2.803-0.517-3.846-1.55s-1.564-2.302-1.564-3.808
			c0-1.505,0.521-2.774,1.564-3.807C170.077,9.86,171.359,9.344,172.88,9.344 M178.872,22.58c-0.549,1.072-0.938,2.441-1.164,4.107
			c-0.227,1.665-0.34,3.987-0.34,6.966v7.11c0,1.794,0.093,3.283,0.279,4.469c0.186,1.186,0.514,2.33,0.983,3.435h-5.823h-5.823
			c0.469-1.104,0.801-2.249,0.995-3.435c0.178-1.186,0.267-2.675,0.267-4.469V30.482c0-1.793-0.094-3.282-0.279-4.468
			c-0.187-1.185-0.514-2.33-0.982-3.435h5.944H178.872 M172.88,6.344c-2.3,0-4.36,0.836-5.957,2.418
			c-1.604,1.588-2.453,3.642-2.453,5.938c0,1.871,0.563,3.581,1.641,5.01c-0.659,0.201-1.237,0.625-1.628,1.214
			c-0.556,0.839-0.653,1.901-0.26,2.828c0.37,0.872,0.633,1.791,0.78,2.729c0.161,1.028,0.243,2.375,0.243,4.001v10.281
			c0,1.637-0.078,2.99-0.233,4.024c-0.148,0.901-0.416,1.826-0.79,2.707c-0.394,0.927-0.296,1.988,0.26,2.828
			c0.556,0.839,1.495,1.344,2.502,1.344h5.823h5.823c1.007,0,1.947-0.505,2.502-1.345c0.556-0.84,0.652-1.902,0.259-2.829
			c-0.371-0.874-0.634-1.79-0.78-2.725c-0.161-1.026-0.243-2.373-0.243-4.005v-7.11c0-2.83,0.105-5.038,0.313-6.562
			c0.179-1.318,0.469-2.376,0.862-3.145c0.476-0.93,0.434-2.041-0.111-2.932c-0.403-0.659-1.039-1.128-1.765-1.328
			c1.066-1.425,1.624-3.127,1.624-4.987c0-2.296-0.849-4.349-2.455-5.939C177.238,7.18,175.179,6.344,172.88,6.344L172.88,6.344z"/>
	</g>
	<g>
		<linearGradient id="SVGID_6_" gradientUnits="userSpaceOnUse" x1="199.4434" y1="19.6069" x2="199.4434" y2="56.2801">
			<stop  offset="0" style="stop-color:#F69453"/>
			<stop  offset="0.5" style="stop-color:#F37521"/>
			<stop  offset="1" style="stop-color:#F15A29"/>
		</linearGradient>
		<path fill="url(#SVGID_6_)" d="M201.081,50.167c-0.503,0-0.973-0.252-1.251-0.672c-0.277-0.42-0.326-0.951-0.13-1.414
			c0.419-0.988,0.716-2.024,0.883-3.082c0.172-1.102,0.26-2.527,0.26-4.235v-7.951c0-0.877-0.157-1.546-0.455-1.936
			c-0.153-0.199-0.398-0.407-1.029-0.407c-0.484,0-0.919,0.072-1.314,0.22v10.074c0,1.708,0.088,3.134,0.261,4.236
			c0.166,1.057,0.463,2.093,0.882,3.081c0.196,0.463,0.147,0.994-0.13,1.414c-0.278,0.42-0.748,0.672-1.251,0.672H186.16
			c-0.504,0-0.974-0.253-1.251-0.673c-0.278-0.42-0.326-0.951-0.129-1.414c0.42-0.988,0.721-2.027,0.894-3.089
			c0.164-1.092,0.248-2.521,0.248-4.228V30.482c0-1.703-0.088-3.128-0.262-4.236c-0.167-1.062-0.463-2.099-0.88-3.08
			c-0.197-0.463-0.149-0.995,0.129-1.415c0.277-0.42,0.747-0.672,1.251-0.672h10.384c0.828,0,1.5,0.671,1.5,1.5v1.196l2.257-2.413
			c0.156-0.167,0.349-0.296,0.562-0.377c0.8-0.304,1.714-0.458,2.718-0.458c2.936,0,5.259,0.825,6.902,2.451
			c1.647,1.633,2.482,3.939,2.482,6.855v10.93c0,1.709,0.088,3.135,0.261,4.235c0.166,1.061,0.463,2.097,0.881,3.081
			c0.197,0.463,0.149,0.994-0.129,1.414c-0.277,0.42-0.747,0.673-1.251,0.673H201.081z"/>
		<path fill="#FFFFFF" d="M203.58,22.027c2.539,0,4.488,0.673,5.848,2.018c1.357,1.346,2.037,3.275,2.037,5.789v10.93
			c0,1.794,0.093,3.283,0.279,4.469c0.186,1.186,0.513,2.33,0.982,3.435h-5.823h-5.822c0.469-1.104,0.797-2.249,0.983-3.435
			c0.186-1.186,0.278-2.675,0.278-4.469v-7.951c0-1.232-0.255-2.182-0.764-2.847c-0.511-0.663-1.25-0.996-2.221-0.996
			c-1.067,0-2.006,0.271-2.814,0.816v10.978c0,1.794,0.093,3.283,0.278,4.469c0.187,1.186,0.515,2.33,0.983,3.435h-5.822h-5.823
			c0.47-1.104,0.801-2.249,0.994-3.435c0.178-1.186,0.268-2.675,0.268-4.469V30.482c0-1.793-0.094-3.282-0.279-4.468
			c-0.187-1.185-0.513-2.33-0.982-3.435h5.192h5.191v4.996l4.853-5.188C202.027,22.147,202.755,22.027,203.58,22.027 M203.58,19.027
			c-1.188,0-2.281,0.188-3.251,0.557c-0.428,0.163-0.812,0.421-1.124,0.754l-0.33,0.353c-0.55-0.678-1.39-1.111-2.331-1.111h-5.191
			h-5.192c-1.007,0-1.946,0.505-2.502,1.345s-0.652,1.902-0.259,2.829c0.369,0.868,0.632,1.786,0.779,2.728
			c0.161,1.028,0.243,2.375,0.243,4.001v10.281c0,1.633-0.079,2.986-0.234,4.024c-0.148,0.905-0.415,1.828-0.788,2.705
			c-0.394,0.927-0.297,1.989,0.259,2.829s1.495,1.345,2.502,1.345h5.823h5.822c0.59,0,1.157-0.174,1.638-0.486
			c0.48,0.313,1.048,0.486,1.638,0.486h5.822h5.823c1.007,0,1.946-0.505,2.502-1.345s0.652-1.902,0.259-2.829
			c-0.37-0.871-0.633-1.788-0.779-2.725c-0.161-1.026-0.243-2.373-0.243-4.005v-10.93c0-3.331-0.984-5.996-2.925-7.919
			C209.603,19.998,206.925,19.027,203.58,19.027L203.58,19.027z"/>
	</g>
</g>
</svg>
