<?xml version="1.0" encoding="utf-8"?>
<!-- Generator: Adobe Illustrator 16.0.0, SVG Export Plug-In . SVG Version: 6.00 Build 0)  -->
<!DOCTYPE svg PUBLIC "-//W3C//DTD SVG 1.1//EN" "http://www.w3.org/Graphics/SVG/1.1/DTD/svg11.dtd">
<svg version="1.1" id="Isolation_Mode" xmlns="http://www.w3.org/2000/svg" xmlns:xlink="http://www.w3.org/1999/xlink" x="0px"
	 y="0px" width="434.213px" height="140.27px" viewBox="0 0 434.213 140.27" enable-background="new 0 0 434.213 140.27"
	 xml:space="preserve">
<g>
	<g>
		<g>
			<g>
				<path fill="#FFEFD1" d="M399.531,40.475H36.737c-19.125,0-34.682,15.558-34.682,34.682v30.432
					c0,19.124,15.558,34.682,34.682,34.682h362.794c19.123,0,34.682-15.558,34.682-34.682V75.156
					C434.213,56.032,418.654,40.475,399.531,40.475L399.531,40.475z"/>
			</g>
			<linearGradient id="SVGID_1_" gradientUnits="userSpaceOnUse" x1="63.4512" y1="50.791" x2="28.4294" y2="81.0153">
				<stop  offset="0.2527" style="stop-color:#C4B388"/>
				<stop  offset="0.3249" style="stop-color:#C4B388;stop-opacity:0.895"/>
				<stop  offset="0.9409" style="stop-color:#C4B388;stop-opacity:0"/>
			</linearGradient>
			<path fill="url(#SVGID_1_)" d="M54.125,40.475H36.737c-19.125,0-34.682,15.558-34.682,34.682v28.165h52.07V40.475z"/>
			
				<linearGradient id="SVGID_2_" gradientUnits="userSpaceOnUse" x1="-3152.8296" y1="50.791" x2="-3187.8511" y2="81.0149" gradientTransform="matrix(-1 0 0 1 -2780.0127 0)">
				<stop  offset="0.2527" style="stop-color:#C4B388"/>
				<stop  offset="0.3249" style="stop-color:#C4B388;stop-opacity:0.895"/>
				<stop  offset="0.9409" style="stop-color:#C4B388;stop-opacity:0"/>
			</linearGradient>
			<path fill="url(#SVGID_2_)" d="M382.143,40.475h17.389c19.123,0,34.682,15.558,34.682,34.682v28.165h-52.07V40.475z"/>
			<g>
				<path fill="#FFEFD1" d="M377.781,0H58.487c-9.854,0-17.87,8.016-17.87,17.869v66.757H395.65V17.869
					C395.65,8.016,387.635,0,377.781,0L377.781,0z"/>
			</g>
		</g>
	</g>
</g>
</svg>
