<?xml version="1.0" encoding="utf-8"?>
<!-- Generator: Adobe Illustrator 21.0.0, SVG Export Plug-In . SVG Version: 6.00 Build 0)  -->
<svg version="1.1" id="Isolation_Mode" xmlns="http://www.w3.org/2000/svg" xmlns:xlink="http://www.w3.org/1999/xlink" x="0px"
	 y="0px" viewBox="0 0 124.6 125" style="enable-background:new 0 0 124.6 125;" xml:space="preserve">
<style type="text/css">
	.st0{fill:#FFFFFF;}
	.st1{fill:#439E4D;}
</style>
<g>
	<path class="st0" d="M110.6,14.9C97.3,1.6,79.7,0,62.2,0C44.8,0,27.3,1.6,14,14.9C0.6,28.2,0,45.7,0,63.2
		c0.1,17.3,0.7,34.7,14,47.9C27.3,124.4,44.8,125,62.3,125s35-0.6,48.3-13.9s14-30.7,14-48.1S124,28.2,110.6,14.9z"/>
	<g>
		<g id="fullscreen">
			<g>
				<polygon class="st1" points="88,82 77.7,71.6 71.3,78 81.6,88.3 71.3,98.6 98.3,98.6 98.3,71.6 				"/>
				<polygon class="st1" points="53.3,26.6 26.3,26.6 26.3,53.6 36.6,43.3 46.8,53.5 53.2,47.2 43,37 				"/>
				<polygon class="st1" points="53.3,78 46.9,71.6 36.6,82 26.3,71.6 26.3,98.6 53.3,98.6 43,88.3 				"/>
				<polygon class="st1" points="98.3,26.6 71.3,26.6 81.6,37 71.4,47.2 77.8,53.5 88,43.3 98.3,53.6 				"/>
			</g>
		</g>
	</g>
</g>
</svg>
