<?xml version="1.0" encoding="utf-8"?>
<!-- Generator: Adobe Illustrator 21.0.0, SVG Export Plug-In . SVG Version: 6.00 Build 0)  -->
<svg version="1.1" id="Isolation_Mode" xmlns="http://www.w3.org/2000/svg" xmlns:xlink="http://www.w3.org/1999/xlink" x="0px"
	 y="0px" viewBox="0 0 645.6 85.1" style="enable-background:new 0 0 645.6 85.1;" xml:space="preserve">
<style type="text/css">
	.st0{opacity:0.1;}
	.st1{fill:#5E5E5E;}
	.st2{fill:#FFFFFF;}
	.st3{fill:#F93500;}
	.st4{opacity:0.2;fill:#FFB8B6;enable-background:new    ;}
	.st5{fill-opacity:0.15;}
	.st6{fill:#FFFFFF;stroke:#F93500;stroke-width:0.5;stroke-miterlimit:10;}
</style>
<g>
	<g class="st0">
		<path class="st1" d="M15.5,85.1c-8.3,0-15-6.8-15-15V12.5c0-8.2,6.8-5,15-5h614.6c8.3,0,15-3.2,15,5v57.6c0,8.3-6.8,15-15,15H15.5
			z"/>
	</g>
	<g>
		<g>
			<path class="st2" d="M15.5,78.1c-8.3,0-15-6.8-15-15V15.5c0-8.3,6.8-15,15-15h614.6c8.3,0,15,6.8,15,15v47.6c0,8.3-6.8,15-15,15
				H15.5z"/>
		</g>
		<path class="st3" d="M630.1,78.6H15.5C7,78.6,0,71.6,0,63.1V15.5C0,7,7,0,15.5,0h614.6c8.5,0,15.5,7,15.5,15.5v47.6
			C645.6,71.6,638.6,78.6,630.1,78.6z M15.5,1C7.5,1,1,7.5,1,15.5v47.6c0,8,6.5,14.5,14.5,14.5h614.6c8,0,14.5-6.5,14.5-14.5V15.5
			c0-8-6.5-14.5-14.5-14.5H15.5z"/>
	</g>
	<path class="st4" d="M626.3,72.5h-607c-6.6,0-12-5.4-12-12v-42c0-6.6,5.4-12,12-12h607c6.6,0,12,5.4,12,12v42
		C638.3,67.1,632.9,72.5,626.3,72.5z"/>
</g>
<g>
	<g>
		<circle class="st5" cx="23.5" cy="28" r="21"/>
		<circle class="st6" cx="23.5" cy="24.3" r="21"/>
		<polygon class="st3" points="32.4,30.3 26.6,24.5 32.4,18.7 29.4,15.7 23.7,21.4 17.6,15.3 14.5,18.3 20.7,24.5 14.9,30.3 
			17.9,33.3 23.7,27.4 29.4,33.3 		"/>
	</g>
</g>
</svg>
