<?xml version="1.0" encoding="utf-8"?>
<!-- Generator: Adobe Illustrator 19.2.0, SVG Export Plug-In . SVG Version: 6.00 Build 0)  -->
<svg version="1.1" id="Layer_1" xmlns="http://www.w3.org/2000/svg" xmlns:xlink="http://www.w3.org/1999/xlink" x="0px" y="0px"
	 viewBox="0 0 1024.9 120.3" style="enable-background:new 0 0 1024.9 120.3;" xml:space="preserve">
<style type="text/css">
	.st0{fill:#FFFFFF;}
	.st1{fill:#FFBF31;}
	.st2{fill:#F6FBFA;}
	.st3{opacity:0.2;fill:#FFBF31;enable-background:new    ;}
	.st4{opacity:0.5;fill:#F6FBFA;enable-background:new    ;}
	.st5{opacity:0.77;fill:#FF8950;enable-background:new    ;}
	.st6{fill:#251A15;}
</style>
<g>
	<path class="st0" d="M-0.3,83.3c11.4,0,16.9-2.9,22.8-6c5.8-3.1,11.9-6.3,23.8-6.3c11.9,0,17.9,3.2,23.8,6.3c5.9,3.1,11.4,6,22.8,6
		s16.9-2.9,22.8-6c5.8-3.1,11.9-6.3,23.8-6.3c11.9,0,17.9,3.2,23.8,6.3c5.9,3.1,11.4,6,22.8,6c11.4,0,16.9-2.9,22.8-6
		c5.8-3.1,11.9-6.3,23.8-6.3c11.9,0,17.9,3.2,23.8,6.3c5.9,3.1,11.4,6,22.8,6c11.4,0,16.9-2.9,22.8-6c5.8-3.1,11.9-6.3,23.8-6.3
		c11.9,0,17.9,3.2,23.8,6.3c5.9,3.1,11.4,6,22.8,6c11.4,0,16.9-2.9,22.8-6c5.8-3.1,11.9-6.3,23.8-6.3c11.9,0,17.9,3.2,23.8,6.3
		c5.9,3.1,11.4,6,22.8,6c11.4,0,16.9-2.9,22.8-6c5.8-3.1,11.9-6.3,23.8-6.3c11.9,0,17.9,3.2,23.8,6.3c5.9,3.1,11.4,6,22.8,6
		c11.4,0,16.9-2.9,22.8-6c5.8-3.1,11.9-6.3,23.8-6.3c11.9,0,17.9,3.2,23.8,6.3c5.9,3.1,11.4,6,22.8,6c11.4,0,16.9-2.9,22.8-6
		c5.8-3.1,11.9-6.3,23.8-6.3c11.9,0,17.9,3.2,23.8,6.3c5.9,3.1,11.4,6,22.8,6c11.4,0,16.9-2.9,22.8-6c5.8-3.1,11.9-6.3,23.8-6.3
		s17.9,3.2,23.8,6.3c5.9,3.1,11.4,6,22.8,6c11.4,0,16.9-2.9,22.8-6c5.8-3.1,11.9-6.3,23.8-6.3c11.9,0,17.9,3.2,23.8,6.3
		s11.4,6,22.8,6c11.4,0,16.9-2.9,22.8-6c5.8-3.1,11.9-6.3,23.8-6.3c11.9,0,17.9,3.2,23.8,6.3c5.9,3.1,11.4,6,22.8,6v37H0.3v-37H-0.3
		z"/>
	<path class="st1" d="M982,49.4c-0.1,0.5-4.5,2.9-4.5,4c0,0.7,4.7,3.4,4.9,3.6c0.4,0.5,1.1,4.5,2.2,4.9c0.9,0.3,4.1-3.3,4.7-3.3
		c0.6,0,5.5,0.6,5.9-0.1c0.4-0.7-1.7-5-1.4-5.3c0.3-0.2,2.1-5.4,1.7-6.1c-0.4-0.6-5.4,0.4-5.7,0.2c-0.3-0.2-4.5-3.6-5.2-3.3
		C983.6,44.5,982.3,49.4,982,49.4z"/>
	<path class="st1" d="M799.2,27.1c2,0,1.8-2.9,0-2.9C797,24.2,797.2,27.1,799.2,27.1z"/>
	<path class="st2" d="M976.2,29.7c2,0,1.8-2.9,0-2.9C974,26.8,974.2,29.8,976.2,29.7z"/>
	<path class="st2" d="M844.8,29.4c4.3,0,3.7-6.3,0-6.3C840.1,23.1,840.5,29.4,844.8,29.4z"/>
	<path class="st2" d="M925.5,36.4c3.4,0,2.9-4.9,0-4.9C921.9,31.5,922.1,36.5,925.5,36.4z"/>
	<path class="st1" d="M7.7,93.1c-0.2,0.3-3.4,1.1-3.6,1.8c-0.1,0.4,2.4,3,2.5,3.1c0.2,0.4,0,3.1,0.6,3.5c0.5,0.4,3.2-1.4,3.6-1.3
		c0.4,0.1,3.4,1.3,3.8,0.9s-0.2-3.5,0-3.6c0.3-0.1,2.3-3.1,2.1-3.6S13.2,93.2,13,93s-2.3-3.1-2.8-3C9.5,90.1,7.8,93,7.7,93.1z"/>
	<path class="st1" d="M177.2,93.2c4.7,0,4-6.7,0-6.7C172.2,86.5,172.5,93.2,177.2,93.2z"/>
	<path class="st1" d="M883.2,23.1c-0.2,0.3-3.4,1.1-3.6,1.8c-0.1,0.4,2.4,3,2.5,3.1c0.2,0.4,0,3.1,0.6,3.5c0.5,0.4,3.2-1.4,3.6-1.3
		c0.4,0.1,3.4,1.3,3.8,0.9c0.4-0.4-0.2-3.5,0-3.6c0.3-0.1,2.3-3.1,2.1-3.6c-0.2-0.5-3.5-0.7-3.7-0.9c-0.2-0.2-2.3-3.1-2.8-3
		C884.9,20.1,883.3,23,883.2,23.1z"/>
	<path class="st1" d="M883.9,76.4L883.9,76.4h0.8c0.4,0,0.8,0.4,0.8,0.8s-0.3,0.8-0.8,0.8h-0.8c-1.8-0.1-3.6,0.1-5.3,0.2
		c-0.4,0-0.8-0.3-0.8-0.7s0.3-0.8,0.7-0.8C880.2,76.4,882,76.4,883.9,76.4z M232,76.4c0.6,0,1.2,0,1.8,0c0.4,0,0.8,0.4,0.7,0.8
		c0,0.4-0.4,0.7-0.8,0.7c-2-0.1-4.2,0-6.1,0.1c-0.4,0-0.8-0.3-0.8-0.7s0.3-0.8,0.7-0.8C228.9,76.4,230.4,76.4,232,76.4z M511.4,76.4
		c1.4,0,2.7,0,4,0.1c0.4,0,0.7,0.4,0.7,0.8s-0.4,0.7-0.8,0.7c-1.9-0.1-4.1-0.2-6.1-0.1c-0.4,0-0.8-0.3-0.8-0.7s0.3-0.8,0.7-0.8
		C509.9,76.4,510.6,76.4,511.4,76.4z M790.8,76.4L790.8,76.4c2.2,0,4.3,0.1,6.2,0.3c0.4,0,0.7,0.4,0.7,0.8s-0.4,0.7-0.8,0.7
		c-1.9-0.2-3.9-0.3-6-0.3c-0.4,0-0.8-0.3-0.8-0.8S790.4,76.4,790.8,76.4z M139.9,76.4L139.9,76.4c2.2,0,4.3,0.2,6.2,0.4
		c0.4,0.1,0.7,0.4,0.7,0.9c-0.1,0.4-0.4,0.7-0.9,0.7c-1.9-0.2-3.9-0.4-6-0.4c-0.4,0-0.8-0.4-0.8-0.8
		C139.1,76.7,139.4,76.4,139.9,76.4z M603.1,76.4c0.4,0,0.8,0.3,0.8,0.8c0,0.4-0.3,0.8-0.8,0.8c-2.1,0-4.1,0.2-6,0.5
		c-0.4,0.1-0.8-0.2-0.9-0.7c-0.1-0.4,0.2-0.8,0.7-0.9C598.8,76.6,600.9,76.4,603.1,76.4L603.1,76.4z M421.5,76.4L421.5,76.4
		c2.2,0.1,4.3,0.4,6.2,0.7c0.4,0.1,0.7,0.5,0.6,0.9c-0.1,0.4-0.5,0.7-0.9,0.6c-1.9-0.3-3.9-0.6-6-0.7c-0.4,0-0.8-0.4-0.7-0.8
		C420.7,76.8,421.1,76.4,421.5,76.4z M321.5,76.5c0.4,0,0.7,0.3,0.8,0.7c0,0.4-0.3,0.8-0.7,0.8c-2.1,0.1-4.1,0.4-6,0.7
		c-0.4,0.1-0.8-0.2-0.9-0.6c-0.1-0.4,0.2-0.8,0.6-0.9C317.2,76.8,319.2,76.6,321.5,76.5C321.4,76.5,321.4,76.5,321.5,76.5z
		 M972.4,76.5c0.4,0,0.7,0.3,0.8,0.7c0,0.4-0.3,0.8-0.7,0.8c-2.1,0.2-4.1,0.5-6,0.9c-0.4,0.1-0.8-0.2-0.9-0.6
		c-0.1-0.4,0.2-0.8,0.6-0.9C968.1,77,970.2,76.7,972.4,76.5L972.4,76.5z M703.1,76.6L703.1,76.6c2.3,0.2,4.3,0.5,6.2,1
		c0.4,0.1,0.7,0.5,0.6,0.9c-0.1,0.4-0.5,0.7-0.9,0.6c-1.9-0.5-3.8-0.8-6-1c-0.4,0-0.7-0.4-0.7-0.8C702.4,76.9,702.7,76.6,703.1,76.6
		z M39.8,76.6c0.4,0,0.7,0.3,0.8,0.7c0,0.4-0.3,0.8-0.7,0.8c-2.1,0.2-4,0.5-5.9,1c-0.4,0.1-0.8-0.1-0.9-0.6
		c-0.1-0.4,0.1-0.8,0.6-0.9C35.6,77.2,37.6,76.9,39.8,76.6L39.8,76.6z M52.1,76.7C52.1,76.7,52.2,76.7,52.1,76.7
		c2.3,0.3,4.3,0.6,6.2,1.2c0.4,0.1,0.7,0.5,0.5,0.9s-0.5,0.7-0.9,0.5c-1.9-0.5-3.8-0.9-5.9-1.1c-0.4,0-0.7-0.4-0.7-0.9
		C51.4,77,51.7,76.7,52.1,76.7z M690.8,76.8c0.4,0,0.7,0.3,0.8,0.7c0.1,0.4-0.2,0.8-0.7,0.9c-2.1,0.3-4,0.6-5.9,1.2
		c-0.4,0.1-0.8-0.1-0.9-0.5c-0.1-0.4,0.1-0.8,0.5-0.9C686.6,77.4,688.6,77,690.8,76.8L690.8,76.8z M984.7,76.9h0.1
		c2.1,0.3,4.1,0.7,6.1,1.3c0.4,0.1,0.6,0.6,0.5,1s-0.5,0.6-1,0.5c-1.9-0.6-3.8-1-5.9-1.3c-0.4-0.1-0.7-0.4-0.7-0.9
		C984,77.1,984.3,76.9,984.7,76.9z M333.7,77L333.7,77c2.2,0.4,4.2,0.8,6.2,1.5c0.4,0.1,0.6,0.6,0.5,1s-0.6,0.6-1,0.5
		c-1.9-0.6-3.8-1.1-5.8-1.4c-0.4-0.1-0.7-0.5-0.6-0.9C333,77.3,333.3,77,333.7,77z M409.2,77.1c0.4,0,0.7,0.3,0.8,0.6
		c0.1,0.4-0.2,0.8-0.6,0.9c-2,0.4-3.9,0.8-5.8,1.5c-0.4,0.1-0.8-0.1-1-0.5c-0.1-0.4,0.1-0.8,0.5-1C405.1,77.9,407.1,77.4,409.2,77.1
		C409.1,77.1,409.2,77.1,409.2,77.1z M615.3,77.4c0.1,0,0.1,0,0.2,0c2.1,0.5,4,1.1,6,1.8c0.4,0.2,0.6,0.6,0.4,1s-0.6,0.6-1,0.4
		c-1.9-0.7-3.8-1.3-5.8-1.8c-0.4-0.1-0.7-0.5-0.6-0.9C614.6,77.7,614.9,77.4,615.3,77.4z M127.7,77.5c0.4,0,0.7,0.2,0.7,0.6
		c0.1,0.4-0.2,0.8-0.6,0.9c-2,0.5-3.8,1-5.7,1.8c-0.4,0.2-0.8,0-1-0.4s0-0.8,0.4-1c2-0.8,3.9-1.4,6-1.9
		C127.5,77.5,127.6,77.5,127.7,77.5z M778.6,77.8c0.3,0,0.7,0.2,0.7,0.6c0.1,0.4-0.1,0.8-0.6,0.9c-1.9,0.5-3.8,1.1-5.7,2
		c-0.4,0.2-0.8,0-1-0.4s0-0.8,0.4-1c2-0.9,3.9-1.5,5.9-2C778.5,77.8,778.6,77.8,778.6,77.8z M896.8,78c0.1,0,0.1,0,0.2,0
		c2,0.5,3.9,1.3,5.9,2.2c0.4,0.2,0.6,0.6,0.4,1c-0.2,0.4-0.6,0.6-1,0.4c-1.9-0.9-3.8-1.5-5.7-2.1c-0.4-0.1-0.6-0.5-0.5-0.9
		C896.2,78.2,896.5,78,896.8,78z M245.8,78.2c0.1,0,0.2,0,0.2,0c1.9,0.6,3.8,1.3,5.8,2.3c0.4,0.2,0.5,0.6,0.4,1
		c-0.2,0.4-0.6,0.5-1,0.4c-2-0.9-3.8-1.6-5.6-2.2c-0.4-0.1-0.6-0.6-0.5-1C245.2,78.5,245.5,78.2,245.8,78.2z M497.1,78.4
		c0.3,0,0.6,0.2,0.7,0.5c0.1,0.4-0.1,0.8-0.5,1c-1.8,0.6-3.6,1.3-5.6,2.3c-0.4,0.2-0.8,0-1-0.4s0-0.8,0.4-1c2.1-1,3.9-1.7,5.8-2.3
		C497,78.4,497,78.4,497.1,78.4z M527.3,79c0.1,0,0.2,0,0.3,0c2.3,0.8,4.2,1.8,5.7,2.6c0.4,0.2,0.5,0.7,0.3,1
		c-0.2,0.4-0.7,0.5-1,0.3c-1.4-0.7-3.3-1.7-5.5-2.5c-0.4-0.1-0.6-0.6-0.5-1C526.7,79.1,527,79,527.3,79z M215.6,79.1
		c0.3,0,0.6,0.2,0.7,0.5c0.2,0.4,0,0.8-0.4,1c-2.1,0.8-4,1.7-5.5,2.5c-0.4,0.2-0.8,0-1-0.3c-0.2-0.4,0-0.8,0.3-1
		c1.6-0.8,3.5-1.8,5.7-2.6C215.4,79.1,215.5,79.1,215.6,79.1z M866.7,79.5c0.3,0,0.6,0.2,0.7,0.5c0.2,0.4,0,0.8-0.4,1
		c-2.1,0.8-3.9,1.8-5.5,2.6c-0.4,0.2-0.8,0.1-1-0.3c-0.2-0.4-0.1-0.8,0.3-1c1.6-0.8,3.5-1.8,5.6-2.7
		C866.5,79.5,866.6,79.5,866.7,79.5z M808.8,79.8c0.1,0,0.2,0,0.3,0.1c1.9,0.8,3.7,1.7,5.6,2.7c0.4,0.2,0.5,0.7,0.3,1
		c-0.2,0.4-0.7,0.5-1,0.3c-1.9-1-3.6-1.9-5.5-2.7c-0.4-0.2-0.6-0.6-0.4-1C808.2,79.9,808.5,79.8,808.8,79.8z M157.7,80.2
		c0.1,0,0.2,0,0.3,0.1c1.7,0.8,3.3,1.6,4.8,2.4l0.7,0.4c0.4,0.2,0.5,0.7,0.3,1c-0.2,0.4-0.7,0.5-1,0.3l-0.7-0.3
		c-1.5-0.8-3.1-1.6-4.8-2.4c-0.4-0.2-0.6-0.6-0.4-1C157.2,80.4,157.4,80.2,157.7,80.2z M585.2,80.4c0.3,0,0.6,0.2,0.7,0.4
		c0.2,0.4,0,0.8-0.4,1c-1.5,0.7-3,1.5-4.4,2.2l-1,0.5c-0.4,0.2-0.8,0.1-1-0.3s-0.1-0.8,0.3-1l1-0.5c1.5-0.8,2.9-1.5,4.5-2.3
		C585,80.4,585.1,80.4,585.2,80.4z M439.1,81.1c0.1,0,0.2,0,0.3,0.1c1,0.5,1.9,1,2.9,1.5c0.9,0.5,1.7,0.9,2.6,1.3
		c0.4,0.2,0.5,0.7,0.3,1c-0.2,0.4-0.7,0.5-1,0.3c-0.9-0.4-1.7-0.9-2.6-1.4c-0.9-0.5-1.9-1-2.8-1.5c-0.4-0.2-0.5-0.7-0.3-1
		C438.6,81.3,438.9,81.1,439.1,81.1z M303.8,81.3c0.3,0,0.6,0.2,0.7,0.4c0.2,0.4,0,0.8-0.3,1c-0.8,0.4-1.7,0.9-2.5,1.3
		c-1,0.5-2,1-3,1.5c-0.4,0.2-0.8,0-1-0.3c-0.2-0.4,0-0.8,0.3-1c1-0.5,2-1,2.9-1.5c0.8-0.4,1.7-0.9,2.5-1.3
		C303.6,81.3,303.7,81.3,303.8,81.3z M954.9,81.8c0.3,0,0.5,0.1,0.7,0.4c0.2,0.4,0.1,0.8-0.3,1l-1.6,0.8c-1.3,0.7-2.6,1.4-3.9,2
		c-0.4,0.2-0.8,0-1-0.4c-0.2-0.4,0-0.8,0.4-1c1.3-0.6,2.6-1.3,3.8-2l1.6-0.8C954.7,81.8,954.8,81.8,954.9,81.8z M720.5,82.1
		c0.1,0,0.2,0,0.4,0.1l0.9,0.5c1.6,0.8,3,1.6,4.5,2.3c0.4,0.2,0.6,0.6,0.4,1s-0.6,0.5-1,0.4c-1.6-0.7-3.1-1.5-4.6-2.3l-0.9-0.5
		c-0.4-0.2-0.5-0.7-0.3-1C720,82.3,720.2,82.1,720.5,82.1z M22.5,82.3c0.3,0,0.5,0.1,0.7,0.4c0.2,0.4,0.1,0.8-0.3,1L22.3,84
		c-1.6,0.8-3.2,1.7-4.9,2.5c-0.4,0.2-0.8,0-1-0.4s0-0.8,0.4-1c1.7-0.8,3.3-1.6,4.8-2.4l0.6-0.3C22.2,82.3,22.3,82.3,22.5,82.3z
		 M69.4,82.6c0.1,0,0.2,0,0.4,0.1c1.8,1,3.6,1.9,5.5,2.7c0.4,0.2,0.6,0.6,0.4,1s-0.6,0.6-1,0.4c-1.9-0.9-3.8-1.8-5.6-2.8
		c-0.4-0.2-0.5-0.7-0.3-1C68.9,82.8,69.2,82.6,69.4,82.6z M673.5,82.8c0.3,0,0.5,0.1,0.7,0.4c0.2,0.4,0.1,0.8-0.3,1
		c-1.9,1-3.6,1.9-5.6,2.7c-0.4,0.2-0.8,0-1-0.4s0-0.8,0.4-1c1.9-0.8,3.6-1.7,5.5-2.7C673.3,82.8,673.4,82.8,673.5,82.8z
		 M1001.9,83.2c0.1,0,0.2,0,0.4,0.1c2,1,3.6,1.9,5.5,2.6c0.4,0.2,0.6,0.6,0.4,1s-0.6,0.6-1,0.4c-1.9-0.8-3.6-1.6-5.6-2.7
		c-0.4-0.2-0.5-0.7-0.3-1C1001.3,83.3,1001.6,83.2,1001.9,83.2z M350.8,83.6c0.1,0,0.2,0,0.4,0.1c1.5,0.8,3.4,1.7,5.5,2.5
		c0.4,0.1,0.6,0.6,0.5,1c-0.2,0.4-0.6,0.6-1,0.4c-2.2-0.8-4.1-1.8-5.7-2.6c-0.4-0.2-0.5-0.7-0.3-1C350.3,83.8,350.5,83.6,350.8,83.6
		z M392.2,83.8c0.3,0,0.5,0.2,0.7,0.4c0.2,0.4,0,0.8-0.3,1c-1.5,0.7-3.4,1.7-5.7,2.5c-0.4,0.1-0.8-0.1-1-0.5c-0.1-0.4,0.1-0.8,0.5-1
		c2.2-0.8,4.1-1.7,5.5-2.5C391.9,83.9,392.1,83.8,392.2,83.8z M632.2,84.6c0.1,0,0.2,0,0.3,0.1c2,1,3.8,1.7,5.6,2.2
		c0.4,0.1,0.6,0.6,0.5,1c-0.1,0.4-0.6,0.6-1,0.5c-1.9-0.6-3.7-1.3-5.8-2.3c-0.4-0.2-0.5-0.6-0.4-1C631.6,84.8,631.9,84.6,632.2,84.6
		z M110.8,84.8c0.3,0,0.6,0.2,0.7,0.4c0.2,0.4,0,0.8-0.4,1c-2.1,1-3.9,1.7-5.8,2.3c-0.4,0.1-0.8-0.1-1-0.5c-0.1-0.4,0.1-0.8,0.5-1
		c1.8-0.5,3.6-1.2,5.6-2.2C110.6,84.8,110.7,84.8,110.8,84.8z M761.8,85.2c0.3,0,0.6,0.2,0.7,0.5c0.2,0.4,0,0.8-0.4,1
		c-2,0.9-3.9,1.6-5.9,2.1c-0.4,0.1-0.8-0.1-0.9-0.5c-0.1-0.4,0.1-0.8,0.5-0.9c1.9-0.5,3.7-1.1,5.7-2
		C761.6,85.2,761.7,85.2,761.8,85.2z M913.6,85.5c0.1,0,0.2,0,0.3,0.1c1.9,0.8,3.8,1.4,5.7,1.9c0.4,0.1,0.7,0.5,0.6,0.9
		c-0.1,0.4-0.5,0.7-0.9,0.6c-2-0.5-4-1.1-5.9-2c-0.4-0.2-0.6-0.6-0.4-1C913,85.7,913.3,85.5,913.6,85.5z M262.6,85.9
		c0.1,0,0.2,0,0.3,0.1c1.9,0.8,3.8,1.3,5.7,1.7c0.4,0.1,0.7,0.5,0.6,0.9c-0.1,0.4-0.5,0.7-0.9,0.6c-2.1-0.4-4-1-6-1.8
		c-0.4-0.2-0.6-0.6-0.4-1C262,86.1,262.3,85.9,262.6,85.9z M480.4,86.1c0.3,0,0.6,0.2,0.7,0.5c0.2,0.4,0,0.8-0.4,1
		c-2,0.8-3.9,1.3-6,1.7c-0.4,0.1-0.8-0.2-0.9-0.6c-0.1-0.4,0.2-0.8,0.6-0.9c2-0.4,3.9-1,5.8-1.7C480.2,86.1,480.3,86.1,480.4,86.1z
		 M544.1,86.7c0.1,0,0.2,0,0.2,0c1.9,0.6,3.8,1.1,5.8,1.4c0.4,0.1,0.7,0.5,0.6,0.9c-0.1,0.4-0.5,0.7-0.9,0.6
		c-2.1-0.3-4.1-0.8-6.1-1.5c-0.4-0.1-0.6-0.6-0.5-1C543.4,86.9,543.7,86.7,544.1,86.7z M198.9,86.8c0.3,0,0.6,0.2,0.7,0.5
		c0.1,0.4-0.1,0.8-0.5,1c-2,0.6-4,1.1-6.1,1.4c-0.4,0.1-0.8-0.2-0.9-0.6s0.2-0.8,0.7-0.9c2.1-0.3,4-0.7,5.9-1.3
		C198.7,86.8,198.8,86.8,198.9,86.8z M849.9,87.1c0.3,0,0.6,0.2,0.7,0.6c0.1,0.4-0.1,0.8-0.5,0.9c-2,0.6-4,1-6.1,1.2
		c-0.4,0.1-0.8-0.2-0.9-0.7c-0.1-0.4,0.2-0.8,0.7-0.9c2.1-0.3,4-0.6,5.9-1.2C849.8,87.1,849.8,87.1,849.9,87.1z M825.6,87.3
		c0.1,0,0.1,0,0.2,0c1.9,0.5,3.8,0.8,5.9,1.1c0.4,0,0.7,0.4,0.7,0.8s-0.4,0.7-0.8,0.7c-2.2-0.2-4.2-0.6-6.2-1.1
		c-0.4-0.1-0.7-0.5-0.5-0.9C824.9,87.5,825.2,87.3,825.6,87.3z M174.6,87.5c0.1,0,0.1,0,0.2,0c1.9,0.4,3.8,0.7,6,0.9
		c0.4,0,0.7,0.4,0.7,0.8s-0.4,0.7-0.8,0.7c-2.2-0.2-4.2-0.5-6.2-0.9c-0.4-0.1-0.7-0.5-0.6-0.9C173.9,87.8,174.2,87.5,174.6,87.5z
		 M568.4,87.6c0.4,0,0.7,0.2,0.7,0.6c0.1,0.4-0.2,0.8-0.6,0.9c-2,0.4-4,0.7-6.2,0.9c-0.4,0-0.8-0.3-0.8-0.7s0.3-0.8,0.7-0.8
		c2.1-0.2,4.1-0.4,6-0.9C568.2,87.6,568.3,87.6,568.4,87.6z M456.2,88L456.2,88c2,0.3,4,0.5,6.1,0.6c0.4,0,0.8,0.4,0.7,0.8
		c0,0.4-0.3,0.8-0.8,0.7c-2.2-0.1-4.3-0.3-6.2-0.6c-0.4-0.1-0.7-0.5-0.6-0.9C455.5,88.2,455.8,88,456.2,88z M286.7,88
		c0.5,0,0.8,0.3,0.9,0.6c0.1,0.4-0.2,0.8-0.6,0.9c-2,0.3-4,0.5-6.2,0.6c-0.4,0-0.8-0.3-0.8-0.7s0.3-0.8,0.7-0.8
		C282.9,88.5,284.8,88.3,286.7,88L286.7,88z M937.7,88.3c0.5-0.1,0.8,0.2,0.9,0.6c0.1,0.4-0.2,0.8-0.7,0.9c-2,0.3-4,0.4-6.2,0.5l0,0
		c-0.4,0-0.8-0.3-0.8-0.8c0-0.4,0.3-0.8,0.8-0.8C933.9,88.7,935.8,88.5,937.7,88.3C937.7,88.2,937.7,88.2,937.7,88.3z M737.7,88.3
		C737.8,88.3,737.8,88.3,737.7,88.3c2,0.2,4,0.4,6.1,0.4c0.4,0,0.8,0.3,0.8,0.8c0,0.4-0.3,0.8-0.8,0.8l0,0c-2.2,0-4.3-0.1-6.2-0.4
		c-0.4,0-0.7-0.4-0.7-0.9C737,88.6,737.4,88.3,737.7,88.3z M5.2,88.3c0.4,0,0.7,0.3,0.8,0.7c0,0.4-0.3,0.8-0.7,0.8
		c-1.9,0.2-4,0.3-6.2,0.3c-0.4,0-0.8-0.3-0.8-0.8s0.3-0.8,0.8-0.8C1.2,88.7,3.2,88.6,5.2,88.3C5.1,88.3,5.2,88.3,5.2,88.3z
		 M86.8,88.4L86.8,88.4c1.7,0.2,3.5,0.2,5.4,0.3h0.7c0.4-0.1,0.8,0.3,0.8,0.8c0,0.4-0.3,0.8-0.8,0.8h-0.7c-1.9,0-3.8-0.1-5.5-0.3
		c-0.4,0-0.7-0.4-0.7-0.8C86.1,88.7,86.4,88.4,86.8,88.4z M656.1,88.4c0.4,0,0.7,0.3,0.8,0.7c0,0.4-0.3,0.8-0.7,0.8
		c-1.6,0.1-3.3,0.2-5.1,0.2H650c-0.4,0-0.8-0.4-0.8-0.8s0.3-0.8,0.8-0.8h1.1C652.8,88.7,654.5,88.6,656.1,88.4L656.1,88.4z
		 M1019.4,88.5L1019.4,88.5c1.4,0.1,2.8,0.2,4.3,0.2c0.4,0,0.8,0.3,0.8,0.8s-0.4,0.7-0.9,0.7c-1.5,0-3-0.1-4.3-0.2
		c-0.4,0-0.7-0.4-0.7-0.8C1018.6,88.8,1019,88.5,1019.4,88.5z M368.4,88.6L368.4,88.6c1.1,0.1,2.1,0.1,3.3,0.1c1,0,1.9,0,2.8-0.1
		c0.4,0,0.8,0.3,0.8,0.7s-0.3,0.8-0.7,0.8c-0.9,0-1.9,0.1-3,0.1s-2.2,0-3.3-0.1c-0.4,0-0.7-0.4-0.7-0.8
		C367.7,88.9,368,88.6,368.4,88.6z"/>
	<g>
		<path class="st1" d="M893.3,54.4c1.3,0.3,14-7,16.8-5.3c1.6,1,1.3,16.9,1.5,17.6c0.5,1.8,9.5,9.6,8.8,12.9
			c-0.5,2.5-14.4,5.1-15.4,6.6c-0.9,1.3-6.7,14.5-9.1,14.4c-2.4,0-9.9-11.7-11-11.4c-1,0.3-16.7-3.1-17.8-5.2
			c-1-2.1,9.1-13,9.1-14.1s-2.3-16.6-0.4-17.9C878.7,50,892.8,54.1,893.3,54.4z"/>
		<path class="st3" d="M920.5,79.7c-0.5,2.5-14.4,5.1-15.4,6.6c-0.9,1.3-6.7,14.5-9.1,14.4c-1.3,0-4.2-3.6-6.7-6.7
			c6.7-11.8,6.1-27.1,0.6-40.6c2,0.4,3.4,0.9,3.6,0.9c1.3,0.3,14-7,16.8-5.3c1.6,1,1.3,16.9,1.5,17.6
			C912.2,68.4,921.3,76.2,920.5,79.7z"/>
		<path class="st1" d="M1008,111.1c6.4,0,5.5-9.3,0-9.3C1001.1,101.8,1001.5,111.1,1008,111.1z"/>
		<path class="st1" d="M28.7,105.2c-3.3,0-2.8-4.8,0-4.8C32.2,100.4,32,105.2,28.7,105.2z"/>
		<path class="st1" d="M971.9,112.5c4,0,3.5-5.8,0-5.8C967.6,106.7,967.9,112.5,971.9,112.5z"/>
		<path class="st1" d="M51.9,110.3c-2.3,0-2-3.3,0-3.3C54.4,107,54.2,110.3,51.9,110.3z"/>
		<path class="st4" d="M698.5,66.8c6.4,0,5.5-9.3,0-9.3C691.6,57.5,692.1,66.9,698.5,66.8z"/>
		<path class="st4" d="M804.7,53.7c5,0,4.3-7.3,0-7.3C799.3,46.4,799.7,53.7,804.7,53.7z"/>
		<path class="st5" d="M909.7,74.5c-0.6,3-8.9,0.6-7.1-2.8C904.2,68.9,910.2,71.5,909.7,74.5z"/>
		<path class="st5" d="M889.7,66.7c-0.6,3.5-8.1,0.2-7.5-2.5C883,60.8,890.3,63.2,889.7,66.7z"/>
		<path class="st6" d="M905.6,71.2c0.6-1.3,0-2.9-1.4-3.5c-1.3-0.6-2.9,0-3.5,1.4c-0.1,0.2,0,0.4,0.2,0.5c0.2,0.1,0.4,0,0.5-0.2
			c0.5-0.9,1.6-1.4,2.6-1c1,0.5,1.5,1.6,1.1,2.6c-0.1,0.2,0,0.4,0.3,0.5l0,0C905.6,71.5,905.7,71.5,905.6,71.2z"/>
		<path class="st6" d="M897.2,72.1c0.6-0.2,1-0.7,1.3-1.3c0.1-0.2,0-0.4-0.2-0.5c-0.2-0.1-0.4,0-0.5,0.2c-0.4,0.8-1.4,1.3-2.3,0.9
			c-0.9-0.4-1.3-1.4-0.9-2.3c0.1-0.2,0-0.4-0.2-0.5c-0.2-0.1-0.4,0-0.5,0.2c-0.6,1.2,0,2.7,1.3,3.2c0.4,0.1,0.7,0.2,1,0.2
			C896.6,72.2,896.9,72.1,897.2,72.1z"/>
		<path class="st6" d="M892.5,66.7c0.3-0.7,0.3-1.4,0-2.1c-0.3-0.7-0.8-1.2-1.5-1.5s-1.4-0.3-2.1,0s-1.2,0.8-1.5,1.5
			c-0.1,0.2,0,0.4,0.2,0.5c0.2,0.1,0.4,0,0.5-0.2c0.2-0.5,0.6-0.9,1.1-1.1c0.5-0.2,1-0.2,1.5,0c0.5,0.2,0.9,0.6,1.1,1.1
			c0.2,0.5,0.2,1,0,1.5c-0.1,0.2,0,0.4,0.2,0.5h0.1C892.3,66.9,892.4,66.8,892.5,66.7z"/>
	</g>
</g>
</svg>
