<?xml version="1.0" encoding="utf-8"?>
<!-- Generator: Adobe Illustrator 19.2.0, SVG Export Plug-In . SVG Version: 6.00 Build 0)  -->
<svg version="1.1" id="Layer_1" xmlns="http://www.w3.org/2000/svg" xmlns:xlink="http://www.w3.org/1999/xlink" x="0px" y="0px"
	 viewBox="0 0 47.4 47.4" style="enable-background:new 0 0 47.4 47.4;" xml:space="preserve">
<style type="text/css">
	.st0{clip-path:url(#SVGID_2_);fill:#FEBF31;}
	.st1{clip-path:url(#SVGID_4_);fill:#FFFFFF;}
	.st2{opacity:0.1;clip-path:url(#SVGID_6_);}
	.st3{fill:#030303;}
	.st4{clip-path:url(#SVGID_8_);}
	.st5{fill:#E2E2E2;stroke:#E2E2E2;stroke-width:1.1595;stroke-miterlimit:10;}
	.st6{fill:#E2E2E2;stroke:#F0EFEF;stroke-width:1.0398;stroke-miterlimit:10;}
	.st7{fill:#FFFFFF;stroke:#FFFFFF;stroke-width:1.1595;stroke-miterlimit:10;}
	.st8{fill:#FFFFFF;stroke:#FFFFFF;stroke-width:1.0398;stroke-miterlimit:10;}
</style>
<g>
	<g>
		<g>
			<g>
				<defs>
					<circle id="SVGID_1_" cx="23.7" cy="23.7" r="23.7"/>
				</defs>
				<clipPath id="SVGID_2_">
					<use xlink:href="#SVGID_1_"  style="overflow:visible;"/>
				</clipPath>
				<rect x="-5.8" y="-5.9" class="st0" width="59.1" height="59.1"/>
			</g>
		</g>
		<g>
			<g>
				<defs>
					<circle id="SVGID_3_" cx="23.7" cy="23.7" r="23.7"/>
				</defs>
				<clipPath id="SVGID_4_">
					<use xlink:href="#SVGID_3_"  style="overflow:visible;"/>
				</clipPath>
				<path class="st1" d="M31.7,5.7c-0.6,5.3,1.1,5.8,5.3,5.5c-4.4,2.4-7.4,2.7-7.1-2c-3,2.9-8,3.4-9.8-1.6c-0.2,4.7-5.1,5-9.7,2
					c5.4,0.8,7.8,0,9.2-6.2C22.8,8.5,26.8,9.4,31.7,5.7z"/>
			</g>
		</g>
		<g>
			<g>
				<defs>
					<circle id="SVGID_5_" cx="23.7" cy="23.7" r="23.7"/>
				</defs>
				<clipPath id="SVGID_6_">
					<use xlink:href="#SVGID_5_"  style="overflow:visible;"/>
				</clipPath>
				<g class="st2">
					<path class="st3" d="M15.2,26.1c0.1,0.6,0.3,1.2,0.6,1.7s0.7,0.9,1.1,1.3c0.4,0.3,0.8,0.6,1.3,0.9s1,0.5,1.4,0.8
						c0.4,0.2,0.8,0.5,1.2,0.8c0.3,0.4,0.6,0.7,0.8,1.1c0.1,0.2,0.5,1.8,0.6,1.9s0.3,0.1,0.5,0.1l3.6-0.6c0.2,0,0.4-0.1,0.5-0.3
						c0-0.1,0-0.1,0-0.2c0,0,0.1-0.1,0.2-0.2c0.1-0.2-0.1-1.8-0.1-2c-0.1-0.6-0.4-1.1-0.7-1.6c-0.4-0.5-0.8-0.9-1.2-1.2
						s-0.9-0.6-1.4-0.9s-1-0.5-1.4-0.8s-0.8-0.5-1.1-0.8c-0.4-0.3-0.5-0.6-0.6-1s-0.1-0.7,0.1-1c0.4-0.4,1-0.7,1.9-0.8
						s1.5-0.1,1.9,0.1s0.7,0.4,0.9,0.7s0.4,0.6,0.6,0.8c0.2,0.3,0.4,0.4,0.8,0.3l3.6-0.6c0.2,0,0.3-0.1,0.4-0.2c0,0,0.1-0.1,0.1-0.2
						c0.1-0.1,0.2-0.1,0.2-0.2c0.1-0.1,0.1-0.3,0.1-0.5c-0.1-0.7-0.4-1.3-0.9-2s-1.1-1.3-1.9-1.8c-0.9-0.5-1.8-0.9-2.8-1.1
						c-1-0.3-2.2-0.3-3.5-0.1c-1.1,0.2-2.1,0.5-3,0.9c-1,0.4-1.8,1-2.4,1.6c-0.3,0.3-0.5,0.6-0.7,0.9c-0.4,0.5-0.7,1-0.9,1.6
						C14.7,24.2,14.6,25,15.2,26.1z"/>
					<path class="st3" d="M22.3,36.5c-0.1,0.1-0.1,0.3-0.1,0.5l0.4,2.7c0,0.2,0.1,0.4,0.3,0.5c0.1,0.1,0.3,0.1,0.5,0.1l3.3-0.5
						c0.2,0,0.4-0.1,0.5-0.3c0-0.1,0.1-0.1,0.1-0.2c0.1-0.1,0.1-0.1,0.2-0.2s0.1-0.3,0.1-0.5l-0.4-2.7c0-0.2-0.1-0.4-0.3-0.5
						c-0.1-0.1-0.3-0.1-0.5-0.1l-3.3,0.5c-0.2,0-0.4,0.1-0.5,0.3c0,0.1-0.1,0.1-0.1,0.2C22.4,36.3,22.3,36.4,22.3,36.5z"/>
				</g>
			</g>
		</g>
		<g>
			<g>
				<defs>
					<circle id="SVGID_7_" cx="23.7" cy="23.7" r="23.7"/>
				</defs>
				<clipPath id="SVGID_8_">
					<use xlink:href="#SVGID_7_"  style="overflow:visible;"/>
				</clipPath>
				<g class="st4">
					<g>
						<path class="st5" d="M16.8,24c0.1,0.6,0.3,1.2,0.6,1.7s0.7,0.9,1.1,1.3c0.4,0.3,0.8,0.6,1.3,0.9s1,0.5,1.4,0.8
							c0.4,0.2,0.8,0.5,1.2,0.8c0.3,0.4,0.6,0.7,0.8,1.1c0.1,0.2,0.5,1.8,0.6,1.9s0.3,0.1,0.5,0.1l3.6-0.6c0.2,0,0.4-0.1,0.5-0.3
							s-0.1-1.8-0.1-2c-0.1-0.6-0.4-1.1-0.7-1.6c-0.4-0.5-0.8-0.9-1.2-1.2S25.5,26.3,25,26s-1-0.5-1.4-0.8s-0.8-0.5-1.1-0.8
							c-0.4-0.3-0.5-0.6-0.6-1c-0.1-0.6,0-1,0.4-1.4s1-0.7,1.9-0.8s1.5-0.1,1.9,0.1s0.7,0.4,0.9,0.7s0.4,0.6,0.6,0.8
							c0.2,0.3,0.4,0.4,0.8,0.3l3.6-0.6c0.2,0,0.3-0.1,0.4-0.2c0.1-0.1,0.1-0.3,0.1-0.5c-0.1-0.7-0.4-1.3-0.9-2s-1.1-1.3-1.9-1.8
							c-0.9-0.5-1.8-0.9-2.8-1.1c-1-0.3-2.2-0.3-3.5-0.1c-1.1,0.2-2.1,0.5-3,0.9c-1,0.4-1.8,1-2.4,1.6c-0.6,0.6-1,1.3-1.3,2.1
							C16.4,22.2,16.4,23,16.8,24z"/>
						<path class="st6" d="M24.1,37C24,37.1,24,37.3,24,37.5l0.4,2.7c0,0.2,0.1,0.4,0.3,0.5c0.1,0.1,0.3,0.1,0.5,0.1l3.3-0.5
							c0.2,0,0.4-0.1,0.5-0.3c0.1-0.1,0.1-0.3,0.1-0.5l-0.4-2.7c0-0.2-0.1-0.4-0.3-0.5c-0.1-0.1-0.3-0.1-0.5-0.1l-3.3,0.5
							C24.4,36.7,24.3,36.8,24.1,37z"/>
					</g>
					<g>
						<path class="st7" d="M17.1,23.5c0.1,0.6,0.3,1.2,0.6,1.7s0.7,0.9,1.1,1.3c0.4,0.3,0.8,0.6,1.3,0.9s1,0.5,1.4,0.8
							c0.4,0.2,0.8,0.5,1.2,0.8c0.3,0.4,0.6,0.7,0.8,1.1c0.1,0.2,0.5,1.8,0.6,1.9s0.3,0.1,0.5,0.1l3.6-0.6c0.2,0,0.4-0.1,0.5-0.3
							s-0.1-1.8-0.1-2c-0.1-0.6-0.4-1.1-0.7-1.6c-0.4-0.5-0.8-0.9-1.2-1.2s-0.9-0.6-1.4-0.9s-1-0.5-1.4-0.8s-0.8-0.5-1.1-0.8
							c-0.4-0.3-0.5-0.6-0.6-1c-0.1-0.6,0-1,0.4-1.4s1-0.7,1.9-0.8s1.5-0.1,1.9,0.1s0.7,0.4,0.9,0.7s0.4,0.6,0.6,0.8
							c0.2,0.3,0.4,0.4,0.8,0.3l3.6-0.6c0.2,0,0.3-0.1,0.4-0.2c0.1-0.1,0.1-0.3,0.1-0.5c-0.1-0.7-0.4-1.3-0.9-2
							c-0.5-0.7-1.1-1.3-1.9-1.8c-0.9-0.5-1.8-0.9-2.8-1.1c-1-0.3-2.2-0.3-3.5-0.1c-1.1,0.2-2.1,0.5-3,0.9c-1,0.4-1.8,1-2.4,1.6
							s-1,1.3-1.3,2.1C16.7,21.8,16.6,22.6,17.1,23.5z"/>
						<path class="st8" d="M24.4,36.6c-0.1,0.1-0.1,0.3-0.1,0.5l0.4,2.7c0,0.2,0.1,0.4,0.3,0.5c0.1,0.1,0.3,0.1,0.5,0.1l3.3-0.5
							c0.2,0,0.4-0.1,0.5-0.3c0.1-0.1,0.1-0.3,0.1-0.5L29,36.4c0-0.2-0.1-0.4-0.3-0.5c-0.1-0.1-0.3-0.1-0.5-0.1l-3.3,0.5
							C24.7,36.4,24.5,36.5,24.4,36.6z"/>
					</g>
				</g>
			</g>
		</g>
	</g>
</g>
</svg>
