<?xml version="1.0" encoding="utf-8"?>
<!-- Generator: Adobe Illustrator 22.1.0, SVG Export Plug-In . SVG Version: 6.00 Build 0)  -->
<svg version="1.1" id="Isolation_Mode" xmlns="http://www.w3.org/2000/svg" xmlns:xlink="http://www.w3.org/1999/xlink" x="0px"
	 y="0px" viewBox="0 0 661.5 118.1" style="enable-background:new 0 0 661.5 118.1;" xml:space="preserve">
<style type="text/css">
	.st0{fill:#FFFFFF;}
	.st1{fill:none;stroke:#AECCED;stroke-miterlimit:10;}
	.st2{clip-path:url(#SVGID_2_);fill:#8DB5E7;}
</style>
<g>
	<g>
		<path class="st0" d="M15.5,117.6c-8.3,0-15-6.8-15-15v-87c0-8.3,6.8-15,15-15h601.6c8.3,0,15,6.8,15,15v86.9c0,8.3-6.8,15-15,15
			L15.5,117.6L15.5,117.6z"/>
		<path class="st1" d="M15.5,117.6c-8.3,0-15-6.8-15-15v-87c0-8.3,6.8-15,15-15h601.6c8.3,0,15,6.8,15,15v86.9c0,8.3-6.8,15-15,15
			L15.5,117.6L15.5,117.6z"/>
	</g>
	<g>
		<g>
			<g>
				<defs>
					<rect id="SVGID_1_" x="632.5" width="71.7" height="110.7"/>
				</defs>
				<clipPath id="SVGID_2_">
					<use xlink:href="#SVGID_1_"  style="overflow:visible;"/>
				</clipPath>
				<path class="st2" d="M649.7,81.7h-84.6c-6.2,0-11.3-5.1-11.3-11.3V48.8c0-6.2,5.1-11.3,11.3-11.3h84.6c6.2,0,11.3,5.1,11.3,11.3
					v21.6C661,76.6,655.9,81.7,649.7,81.7z"/>
			</g>
		</g>
	</g>
</g>
</svg>
