<?xml version="1.0" encoding="utf-8"?>
<!-- Generator: Adobe Illustrator 22.1.0, SVG Export Plug-In . SVG Version: 6.00 Build 0)  -->
<svg version="1.1" id="Layer_1" xmlns="http://www.w3.org/2000/svg" xmlns:xlink="http://www.w3.org/1999/xlink" x="0px" y="0px"
	 viewBox="0 0 1024.9 120.3" style="enable-background:new 0 0 1024.9 120.3;" xml:space="preserve">
<style type="text/css">
	.st0{fill:#FFFFFF;}
	.st1{fill:#FFBF31;}
	.st2{fill:#F6FBFA;}
	.st3{opacity:0.2;fill:#FFBF31;enable-background:new    ;}
	.st4{opacity:0.5;fill:#F6FBFA;enable-background:new    ;}
	.st5{opacity:0.77;fill:#FF8950;enable-background:new    ;}
	.st6{fill:#251A15;}
</style>
<g>
	<path class="st0" d="M1024.8,83.3v37H0.2v-37c11.4,0,16.9-2.9,22.8-6S34.9,71,46.8,71s18,3.2,23.8,6.3c5.9,3.1,11.4,6,22.8,6
		s16.9-2.9,22.8-6S128.1,71,140,71c11.9,0,18,3.2,23.8,6.3c5.9,3.1,11.4,6,22.8,6c11.4,0,16.9-2.9,22.8-6c5.9-3.1,11.9-6.3,23.8-6.3
		c11.9,0,18,3.2,23.8,6.3c5.9,3.1,11.4,6,22.8,6s16.9-2.9,22.8-6s11.9-6.3,23.8-6.3s18,3.2,23.8,6.3c5.9,3.1,11.4,6,22.8,6
		s16.9-2.9,22.8-6s11.9-6.3,23.8-6.3s18,3.2,23.8,6.3c5.9,3.1,11.4,6,22.8,6s16.9-2.9,22.8-6s11.9-6.3,23.8-6.3
		c11.9,0,18,3.2,23.8,6.3c5.9,3.1,11.4,6,22.8,6c11.4,0,16.9-2.9,22.8-6c5.9-3.1,11.9-6.3,23.8-6.3c11.9,0,18,3.2,23.8,6.3
		c5.9,3.1,11.4,6,22.8,6c11.4,0,16.9-2.9,22.8-6c5.9-3.1,11.9-6.3,23.8-6.3c11.9,0,18,3.2,23.8,6.3c5.9,3.1,11.4,6,22.8,6
		c11.4,0,16.9-2.9,22.8-6c5.9-3.1,11.9-6.3,23.8-6.3c11.9,0,18,3.2,23.8,6.3c5.9,3.1,11.4,6,22.8,6c11.4,0,16.9-2.9,22.8-6
		c5.9-3.1,11.9-6.3,23.8-6.3c11.9,0,18,3.2,23.8,6.3c5.9,3.1,11.4,6,22.8,6s16.9-2.9,22.8-6c5.9-3.1,11.9-6.3,23.8-6.3
		c11.9,0,18,3.2,23.8,6.3c5.9,3.1,11.4,6,22.8,6H1024.8z"/>
	<path class="st1" d="M40.5,44c-0.7-0.3-4.9,3.1-5.2,3.3s-5.3-0.8-5.7-0.2c-0.4,0.7,1.4,5.9,1.7,6.1c0.3,0.3-1.8,4.6-1.4,5.3
		s5.3,0.1,5.9,0.1s3.8,3.6,4.7,3.3c1.1-0.4,1.8-4.4,2.2-4.9c0.2-0.2,4.9-2.9,4.9-3.6c0-1.1-4.4-3.5-4.5-4
		C42.8,49.4,41.5,44.5,40.5,44z"/>
	<path class="st1" d="M225.9,24.2c-1.8,0-2,2.9,0,2.9S228.1,24.2,225.9,24.2z"/>
	<path class="st2" d="M48.9,26.8c-1.8,0-2,2.9,0,2.9C50.9,29.8,51.1,26.8,48.9,26.8z"/>
	<path class="st2" d="M180.3,23.1c-3.7,0-4.3,6.3,0,6.3S185,23.1,180.3,23.1z"/>
	<path class="st2" d="M99.6,31.5c-2.9,0-3.4,4.9,0,4.9C103,36.5,103.2,31.5,99.6,31.5z"/>
	<path class="st1" d="M1014.9,90c-0.5-0.1-2.6,2.8-2.8,3s-3.5,0.4-3.7,0.9s1.8,3.5,2.1,3.6c0.2,0.1-0.4,3.2,0,3.6s3.4-0.8,3.8-0.9
		c0.4-0.1,3.1,1.7,3.6,1.3c0.6-0.4,0.4-3.1,0.6-3.5c0.1-0.1,2.6-2.7,2.5-3.1c-0.2-0.7-3.4-1.5-3.6-1.8
		C1017.3,93,1015.6,90.1,1014.9,90z"/>
	<path class="st1" d="M847.9,86.5c-4,0-4.7,6.7,0,6.7C852.6,93.2,852.9,86.5,847.9,86.5z"/>
	<path class="st1" d="M139.4,20c-0.5-0.1-2.6,2.8-2.8,3s-3.5,0.4-3.7,0.9s1.8,3.5,2.1,3.6c0.2,0.1-0.4,3.2,0,3.6s3.4-0.8,3.8-0.9
		c0.4-0.1,3.1,1.7,3.6,1.3c0.6-0.4,0.4-3.1,0.6-3.5c0.1-0.1,2.6-2.7,2.5-3.1c-0.2-0.7-3.4-1.5-3.6-1.8C141.8,23,140.2,20.1,139.4,20
		z"/>
	<path class="st1" d="M146.6,76.7c0.4,0,0.7,0.4,0.7,0.8s-0.4,0.7-0.8,0.7c-1.7-0.1-3.5-0.3-5.3-0.2h-0.8c-0.5,0-0.8-0.4-0.8-0.8
		s0.4-0.8,0.8-0.8h0.8l0,0C143.1,76.4,144.9,76.4,146.6,76.7z M797.6,76.5c0.4,0,0.7,0.4,0.7,0.8s-0.4,0.7-0.8,0.7
		c-1.9-0.1-4.1-0.2-6.1-0.1c-0.4,0-0.8-0.3-0.8-0.7c-0.1-0.4,0.3-0.8,0.7-0.8c0.6,0,1.2,0,1.8,0C794.7,76.4,796.2,76.4,797.6,76.5z
		 M516,76.4c0.4,0,0.7,0.4,0.7,0.8s-0.4,0.7-0.8,0.7c-2-0.1-4.2,0-6.1,0.1c-0.4,0-0.8-0.3-0.8-0.7s0.3-0.8,0.7-0.8
		c1.3-0.1,2.6-0.1,4-0.1C514.5,76.4,515.2,76.4,516,76.4z M235,77.1c0,0.5-0.4,0.8-0.8,0.8c-2.1,0-4.1,0.1-6,0.3
		c-0.4,0-0.8-0.3-0.8-0.7s0.3-0.8,0.7-0.8c1.9-0.2,4-0.3,6.2-0.3l0,0C234.7,76.4,235,76.6,235,77.1z M886,77.2
		c0,0.4-0.4,0.8-0.8,0.8c-2.1,0-4.1,0.2-6,0.4c-0.5,0-0.8-0.3-0.9-0.7c0-0.5,0.3-0.8,0.7-0.9c1.9-0.2,4-0.4,6.2-0.4l0,0
		C885.7,76.4,886,76.7,886,77.2z M422,76.4c2.2,0,4.3,0.2,6.2,0.5c0.5,0.1,0.8,0.5,0.7,0.9c-0.1,0.5-0.5,0.8-0.9,0.7
		c-1.9-0.3-3.9-0.5-6-0.5c-0.5,0-0.8-0.4-0.8-0.8C421.2,76.7,421.6,76.4,422,76.4L422,76.4z M604.4,77.1c0.1,0.4-0.3,0.8-0.7,0.8
		c-2.1,0.1-4.1,0.4-6,0.7c-0.4,0.1-0.8-0.2-0.9-0.6c-0.1-0.4,0.2-0.8,0.6-0.9c1.9-0.3,4-0.6,6.2-0.7l0,0
		C604,76.4,604.4,76.8,604.4,77.1z M703.6,76.5c2.3,0.1,4.3,0.3,6.2,0.7c0.4,0.1,0.7,0.5,0.6,0.9c-0.1,0.4-0.5,0.7-0.9,0.6
		c-1.9-0.3-3.9-0.6-6-0.7c-0.4,0-0.7-0.4-0.7-0.8C702.9,76.8,703.2,76.5,703.6,76.5C703.7,76.5,703.7,76.5,703.6,76.5z M52.7,76.5
		c2.2,0.2,4.3,0.5,6.2,0.9c0.4,0.1,0.7,0.5,0.6,0.9c-0.1,0.4-0.5,0.7-0.9,0.6c-1.9-0.4-3.9-0.7-6-0.9c-0.4,0-0.7-0.4-0.7-0.8
		C52,76.8,52.3,76.5,52.7,76.5L52.7,76.5z M322.8,77.3c0,0.4-0.3,0.8-0.7,0.8c-2.2,0.2-4.1,0.5-6,1c-0.4,0.1-0.8-0.2-0.9-0.6
		s0.2-0.8,0.6-0.9c1.9-0.5,3.9-0.8,6.2-1l0,0C322.4,76.6,322.7,76.9,322.8,77.3z M985.3,76.6c2.2,0.3,4.2,0.6,6.1,1
		c0.5,0.1,0.7,0.5,0.6,0.9c-0.1,0.5-0.5,0.7-0.9,0.6c-1.9-0.5-3.8-0.8-5.9-1c-0.4,0-0.7-0.4-0.7-0.8
		C984.6,76.9,984.9,76.6,985.3,76.6L985.3,76.6z M973.8,77.3c0,0.5-0.3,0.9-0.7,0.9c-2.1,0.2-4,0.6-5.9,1.1
		c-0.4,0.2-0.7-0.1-0.9-0.5s0.1-0.8,0.5-0.9c1.9-0.6,3.9-0.9,6.2-1.2c-0.1,0,0,0,0,0C973.4,76.7,973.7,77,973.8,77.3z M334.3,76.8
		c2.2,0.2,4.2,0.6,6.2,1.4c0.4,0.1,0.6,0.5,0.5,0.9s-0.5,0.6-0.9,0.5c-1.9-0.6-3.8-0.9-5.9-1.2c-0.5-0.1-0.8-0.5-0.7-0.9
		C333.6,77.1,333.9,76.8,334.3,76.8L334.3,76.8z M41.3,77.5c0,0.5-0.3,0.8-0.7,0.9c-2.1,0.3-4,0.7-5.9,1.3c-0.5,0.1-0.9-0.1-1-0.5
		s0.1-0.9,0.5-1c2-0.6,4-1,6.1-1.3h0.1C40.8,76.9,41.1,77.1,41.3,77.5z M692.1,77.7c0.1,0.4-0.2,0.8-0.6,0.9c-2,0.3-3.9,0.8-5.8,1.4
		c-0.4,0.1-0.9-0.1-1-0.5s0.1-0.9,0.5-1c2-0.7,4-1.1,6.1-1.5h0.1C691.8,77,692.1,77.3,692.1,77.7z M615.9,77.1
		c2.1,0.3,4.1,0.8,6.1,1.5c0.4,0.2,0.6,0.6,0.5,1c-0.2,0.4-0.6,0.6-1,0.5c-1.9-0.7-3.8-1.1-5.8-1.5c-0.4-0.1-0.7-0.5-0.6-0.9
		C615.2,77.4,615.5,77.1,615.9,77.1C615.9,77.1,616,77.1,615.9,77.1z M410.6,77.9c0.1,0.4-0.2,0.8-0.6,0.9c-2,0.5-3.9,1.1-5.8,1.8
		c-0.4,0.2-0.8,0-1-0.4s0-0.8,0.4-1c2-0.7,3.9-1.3,6-1.8c0.1,0,0.1,0,0.2,0C410.2,77.4,410.5,77.7,410.6,77.9z M897.6,77.5
		c2.1,0.5,4,1.1,6,1.9c0.4,0.2,0.6,0.6,0.4,1s-0.6,0.6-1,0.4c-1.9-0.8-3.7-1.3-5.7-1.8c-0.4-0.1-0.7-0.5-0.6-0.9
		c0-0.4,0.3-0.6,0.7-0.6C897.5,77.5,897.6,77.5,897.6,77.5z M246.8,77.9c2,0.5,3.9,1.1,5.9,2c0.4,0.2,0.6,0.6,0.4,1s-0.6,0.6-1,0.4
		c-1.9-0.9-3.8-1.5-5.7-2c-0.5-0.1-0.7-0.5-0.6-0.9c0-0.4,0.4-0.6,0.7-0.6C246.5,77.8,246.6,77.8,246.8,77.9z M129,78.6
		c0.1,0.4-0.1,0.8-0.5,0.9c-1.9,0.6-3.8,1.2-5.7,2.1c-0.4,0.2-0.8,0-1-0.4s0-0.8,0.4-1c2-0.9,3.9-1.7,5.9-2.2c0.1,0,0.1,0,0.2,0
		C128.6,78,128.9,78.2,129,78.6z M780,78.7c0.1,0.4-0.1,0.9-0.5,1c-1.8,0.6-3.6,1.3-5.6,2.2c-0.4,0.1-0.8,0-1-0.4
		c-0.1-0.4,0-0.8,0.4-1c2-1,3.9-1.7,5.8-2.3c0,0,0.1,0,0.2,0C779.6,78.2,779.9,78.5,780,78.7z M528.2,78.5c1.9,0.6,3.7,1.3,5.8,2.3
		c0.4,0.2,0.6,0.6,0.4,1s-0.6,0.6-1,0.4c-2-1-3.8-1.7-5.6-2.3c-0.4-0.2-0.6-0.6-0.5-1c0.1-0.3,0.4-0.5,0.7-0.5
		C528.1,78.4,528.1,78.4,528.2,78.5z M498.5,79.4c0.1,0.4-0.1,0.9-0.5,1c-2.2,0.8-4.1,1.8-5.5,2.5c-0.3,0.2-0.8,0.1-1-0.3
		c-0.2-0.3-0.1-0.8,0.3-1c1.5-0.8,3.4-1.8,5.7-2.6c0.1,0,0.2,0,0.3,0C498.1,79,498.4,79.1,498.5,79.4z M809.7,79.2
		c2.2,0.8,4.1,1.8,5.7,2.6c0.3,0.2,0.5,0.6,0.3,1c-0.2,0.3-0.6,0.5-1,0.3c-1.5-0.8-3.4-1.7-5.5-2.5c-0.4-0.2-0.6-0.6-0.4-1
		c0.1-0.3,0.4-0.5,0.7-0.5C809.6,79.1,809.7,79.1,809.7,79.2z M158.7,79.6c2.1,0.9,4,1.9,5.6,2.7c0.4,0.2,0.5,0.6,0.3,1
		s-0.6,0.5-1,0.3c-1.6-0.8-3.4-1.8-5.5-2.6c-0.4-0.2-0.6-0.6-0.4-1c0.1-0.3,0.4-0.5,0.7-0.5C158.5,79.5,158.6,79.5,158.7,79.6z
		 M217,80.2c0.2,0.4,0,0.8-0.4,1c-1.9,0.8-3.6,1.7-5.5,2.7c-0.3,0.2-0.8,0.1-1-0.3c-0.2-0.3-0.1-0.8,0.3-1c1.9-1,3.7-1.9,5.6-2.7
		c0.1-0.1,0.2-0.1,0.3-0.1C216.6,79.8,216.9,79.9,217,80.2z M868.2,80.7c0.2,0.4,0,0.8-0.4,1c-1.7,0.8-3.3,1.6-4.8,2.4l-0.7,0.3
		c-0.3,0.2-0.8,0.1-1-0.3c-0.2-0.3-0.1-0.8,0.3-1l0.7-0.4c1.5-0.8,3.1-1.6,4.8-2.4c0.1-0.1,0.2-0.1,0.3-0.1
		C867.7,80.2,867.9,80.4,868.2,80.7z M440.2,80.4c1.6,0.8,3,1.5,4.5,2.3l1,0.5c0.4,0.2,0.5,0.6,0.3,1s-0.6,0.5-1,0.3l-1-0.5
		c-1.4-0.7-2.9-1.5-4.4-2.2c-0.4-0.2-0.6-0.6-0.4-1c0.1-0.2,0.4-0.4,0.7-0.4C440,80.4,440.1,80.4,440.2,80.4z M586.6,81.4
		c0.2,0.3,0.1,0.8-0.3,1c-0.9,0.5-1.9,1-2.8,1.5c-0.9,0.5-1.7,1-2.6,1.4c-0.3,0.2-0.8,0.1-1-0.3c-0.2-0.3-0.1-0.8,0.3-1
		c0.9-0.4,1.7-0.8,2.6-1.3c1-0.5,1.9-1,2.9-1.5c0.1-0.1,0.2-0.1,0.3-0.1C586.2,81.1,586.5,81.3,586.6,81.4z M721.7,81.4
		c0.8,0.4,1.7,0.9,2.5,1.3c0.9,0.5,1.9,1,2.9,1.5c0.3,0.2,0.5,0.6,0.3,1c-0.2,0.3-0.6,0.5-1,0.3c-1-0.5-2-1-3-1.5
		c-0.8-0.4-1.7-0.9-2.5-1.3c-0.3-0.2-0.5-0.6-0.3-1c0.1-0.2,0.4-0.4,0.7-0.4C721.4,81.3,721.5,81.3,721.7,81.4z M70.5,81.8l1.6,0.8
		c1.2,0.7,2.5,1.4,3.8,2c0.4,0.2,0.6,0.6,0.4,1s-0.6,0.6-1,0.4c-1.3-0.6-2.6-1.3-3.9-2l-1.6-0.8c-0.4-0.2-0.5-0.6-0.3-1
		c0.2-0.3,0.4-0.4,0.7-0.4C70.3,81.8,70.4,81.8,70.5,81.8z M305.2,82.6c0.2,0.3,0.1,0.8-0.3,1l-0.9,0.5c-1.5,0.8-3,1.6-4.6,2.3
		c-0.4,0.1-0.8,0-1-0.4s0-0.8,0.4-1c1.5-0.7,2.9-1.5,4.5-2.3l0.9-0.5c0.2-0.1,0.3-0.1,0.4-0.1C304.9,82.1,305.1,82.3,305.2,82.6z
		 M1002.9,82.4l0.6,0.3c1.5,0.8,3.1,1.6,4.8,2.4c0.4,0.2,0.6,0.6,0.4,1s-0.6,0.6-1,0.4c-1.7-0.8-3.3-1.7-4.9-2.5l-0.6-0.3
		c-0.4-0.2-0.5-0.6-0.3-1c0.2-0.3,0.4-0.4,0.7-0.4C1002.8,82.3,1002.9,82.3,1002.9,82.4z M956.3,83c0.2,0.3,0.1,0.8-0.3,1
		c-1.8,1-3.7,1.9-5.6,2.8c-0.4,0.2-0.8,0-1-0.4s0-0.8,0.4-1c1.9-0.8,3.7-1.7,5.5-2.7c0.2-0.1,0.3-0.1,0.4-0.1
		C955.9,82.6,956.2,82.8,956.3,83z M351.9,82.8c1.9,1,3.6,1.9,5.5,2.7c0.4,0.2,0.6,0.6,0.4,1s-0.6,0.6-1,0.4c-2-0.8-3.7-1.7-5.6-2.7
		c-0.4-0.2-0.5-0.6-0.3-1c0.2-0.3,0.4-0.4,0.7-0.4C351.7,82.8,351.8,82.8,351.9,82.8z M23.8,83.6c0.2,0.3,0.1,0.8-0.3,1
		c-2,1.1-3.7,1.9-5.6,2.7c-0.4,0.2-0.8,0-1-0.4s0-0.8,0.4-1c1.9-0.7,3.5-1.6,5.5-2.6c0.2-0.1,0.3-0.1,0.4-0.1
		C23.5,83.2,23.8,83.3,23.8,83.6z M674.9,84c0.2,0.3,0.1,0.8-0.3,1c-1.6,0.8-3.5,1.8-5.7,2.6c-0.4,0.2-0.8,0-1-0.4
		c-0.1-0.4,0.1-0.9,0.5-1c2.1-0.8,4-1.7,5.5-2.5c0.2-0.1,0.3-0.1,0.4-0.1C674.6,83.6,674.8,83.8,674.9,84z M633.2,83.7
		c1.4,0.8,3.3,1.7,5.5,2.5c0.4,0.2,0.6,0.6,0.5,1c-0.2,0.4-0.6,0.6-1,0.5c-2.3-0.8-4.2-1.8-5.7-2.5c-0.3-0.2-0.5-0.6-0.3-1
		c0.2-0.2,0.4-0.4,0.7-0.4C633,83.8,633.2,83.9,633.2,83.7z M393.7,85.1c0.1,0.4,0,0.8-0.4,1c-2.1,1-3.9,1.7-5.8,2.3
		c-0.4,0.1-0.9-0.1-1-0.5s0.1-0.9,0.5-1c1.8-0.5,3.6-1.2,5.6-2.2c0.1-0.1,0.2-0.1,0.3-0.1C393.2,84.6,393.5,84.8,393.7,85.1z
		 M914.7,84.8c2,1,3.8,1.7,5.6,2.2c0.4,0.2,0.6,0.6,0.5,1c-0.2,0.4-0.6,0.6-1,0.5c-1.9-0.6-3.7-1.3-5.8-2.3c-0.4-0.2-0.6-0.6-0.4-1
		c0.1-0.2,0.4-0.4,0.7-0.4C914.4,84.8,914.5,84.8,914.7,84.8z M263.6,85.4c2,0.9,3.8,1.5,5.7,2c0.4,0.1,0.6,0.5,0.5,0.9
		s-0.5,0.6-0.9,0.5c-2-0.5-3.9-1.2-5.9-2.1c-0.4-0.2-0.6-0.6-0.4-1c0.1-0.3,0.4-0.5,0.7-0.5C263.4,85.2,263.5,85.2,263.6,85.4z
		 M112.1,86c0.2,0.4,0,0.8-0.4,1c-1.9,0.9-3.9,1.5-5.9,2c-0.4,0.1-0.8-0.2-0.9-0.6s0.2-0.8,0.6-0.9c1.9-0.5,3.8-1.1,5.7-1.9
		c0.1-0.1,0.2-0.1,0.3-0.1C111.8,85.5,112.1,85.7,112.1,86z M763.2,86.4c0.2,0.4,0,0.8-0.4,1c-2,0.8-3.9,1.4-6,1.8
		c-0.4,0.1-0.8-0.2-0.9-0.6c-0.1-0.4,0.2-0.8,0.6-0.9c1.9-0.4,3.8-0.9,5.7-1.7c0.1-0.1,0.2-0.1,0.3-0.1
		C762.8,85.9,763.1,86.1,763.2,86.4z M544.9,86.1c1.9,0.7,3.8,1.3,5.8,1.7c0.4,0.1,0.7,0.5,0.6,0.9c-0.1,0.4-0.5,0.7-0.9,0.6
		c-2.1-0.4-4-0.9-6-1.7c-0.4-0.2-0.6-0.6-0.4-1c0.1-0.3,0.4-0.5,0.7-0.5C544.8,86.1,544.9,86.1,544.9,86.1z M481.9,87.1
		c0.1,0.4-0.1,0.9-0.5,1c-2,0.7-4,1.2-6.1,1.5c-0.4,0.1-0.8-0.2-0.9-0.6s0.2-0.8,0.6-0.9c2-0.3,3.9-0.8,5.8-1.4c0,0,0.1,0,0.2,0
		C481.4,86.7,481.7,86.9,481.9,87.1z M826.4,86.9c1.9,0.6,3.8,1,5.9,1.3c0.5,0.1,0.8,0.5,0.7,0.9s-0.5,0.7-0.9,0.6
		c-2.1-0.3-4.1-0.8-6.1-1.4c-0.4-0.2-0.6-0.6-0.5-1c0.1-0.3,0.4-0.5,0.7-0.5C826.3,86.8,826.4,86.8,826.4,86.9z M175.4,87
		c1.9,0.6,3.8,0.9,5.9,1.2c0.5,0.1,0.8,0.5,0.7,0.9c-0.1,0.5-0.5,0.8-0.9,0.7c-2.1-0.2-4.1-0.6-6.1-1.2c-0.4-0.1-0.6-0.5-0.5-0.9
		s0.4-0.6,0.7-0.6C175.3,87.1,175.3,87.1,175.4,87z M200.2,87.9c0.2,0.4-0.1,0.8-0.5,0.9c-2,0.5-4,0.9-6.2,1.1
		c-0.4,0-0.8-0.3-0.8-0.7s0.3-0.8,0.7-0.8c2.1-0.3,4-0.6,5.9-1.1c0.1,0,0.1,0,0.2,0C199.9,87.3,200.2,87.5,200.2,87.9z M851.2,88.1
		c0.1,0.4-0.2,0.8-0.6,0.9c-2,0.4-4,0.7-6.2,0.9c-0.4,0-0.8-0.3-0.8-0.7s0.3-0.8,0.7-0.8c2.2-0.2,4.1-0.5,6-0.9c0.1,0,0.1,0,0.2,0
		C850.9,87.5,851.2,87.8,851.2,88.1z M456.9,87.6c1.9,0.5,3.9,0.7,6,0.9c0.4,0,0.7,0.4,0.7,0.8s-0.4,0.7-0.8,0.7
		c-2.2-0.2-4.2-0.5-6.2-0.9c-0.4-0.1-0.7-0.5-0.6-0.9c0-0.4,0.3-0.6,0.7-0.6C456.8,87.6,456.9,87.6,456.9,87.6z M569.7,88.6
		c0.1,0.4-0.2,0.8-0.6,0.9c-1.9,0.3-4,0.5-6.2,0.6c-0.5,0.1-0.8-0.3-0.8-0.7c-0.1-0.4,0.3-0.8,0.7-0.8c2.1-0.1,4.1-0.3,6-0.6h0.1
		C569.3,88,569.6,88.2,569.7,88.6z M738.4,88c1.9,0.3,3.8,0.5,6,0.6c0.4,0,0.7,0.4,0.7,0.8s-0.4,0.7-0.8,0.7
		c-2.2-0.1-4.2-0.3-6.2-0.6c-0.4-0.1-0.7-0.5-0.6-0.9C737.6,88.3,737.9,88,738.4,88L738.4,88z M87.4,88.3c1.9,0.2,3.8,0.4,6,0.4
		c0.5,0,0.8,0.4,0.8,0.8c0,0.5-0.4,0.8-0.8,0.8l0,0c-2.2-0.1-4.2-0.2-6.2-0.5c-0.5-0.1-0.8-0.5-0.7-0.9
		C86.6,88.5,86.9,88.2,87.4,88.3C87.4,88.2,87.4,88.2,87.4,88.3z M288.2,89c0,0.5-0.3,0.9-0.7,0.9c-1.9,0.3-4,0.4-6.2,0.4l0,0
		c-0.5,0-0.8-0.4-0.8-0.8c0-0.5,0.4-0.8,0.8-0.8c2.1,0,4.1-0.2,6.1-0.4c-0.1,0-0.1,0,0,0C287.7,88.3,288.1,88.6,288.2,89z
		 M1019.9,88.3c2,0.3,4,0.4,6.1,0.2c0.5,0,0.8,0.3,0.8,0.8s-0.4,0.8-0.8,0.8c-2.2,0-4.3-0.1-6.2-0.3c-0.4,0-0.7-0.4-0.7-0.8
		C1019.2,88.6,1019.5,88.3,1019.9,88.3C1019.9,88.3,1020,88.3,1019.9,88.3z M939.1,89.2c0,0.4-0.3,0.8-0.7,0.8
		c-1.7,0.2-3.6,0.3-5.5,0.3h-0.7c-0.5,0-0.8-0.4-0.8-0.8c0-0.5,0.4-0.9,0.8-0.8h0.7c1.9-0.1,3.7-0.1,5.4-0.3l0,0
		C938.7,88.4,939,88.7,939.1,89.2z M369,88.4c1.6,0.2,3.3,0.3,5,0.1h1.1c0.5,0,0.8,0.4,0.8,0.8s-0.4,0.8-0.8,0.8H374
		c-1.8,0-3.5-0.1-5.1-0.2c-0.4,0-0.7-0.4-0.7-0.8C368.3,88.7,368.6,88.4,369,88.4L369,88.4z M6.5,89.2c0,0.4-0.3,0.8-0.7,0.8
		c-1.3,0.1-2.8,0.2-4.3,0.2c-0.5,0-0.9-0.2-0.9-0.7s0.4-0.8,0.8-0.8c1.5,0,2.9-0.1,4.3-0.2l0,0C6.1,88.5,6.5,88.8,6.5,89.2z
		 M657.5,89.3c0,0.4-0.3,0.8-0.7,0.8c-1.1,0.1-2.2,0.1-3.3,0.1s-2.1-0.1-3-0.1c-0.4,0-0.7-0.4-0.7-0.8s0.4-0.7,0.8-0.7
		c0.9,0.1,1.8,0.1,2.8,0.1c1.2,0,2.2,0,3.3-0.1l0,0C657.1,88.6,657.4,88.9,657.5,89.3z"/>
	<g>
		<path class="st1" d="M149.3,52c1.9,1.3-0.4,16.8-0.4,17.9S159,81.9,158,84c-1.1,2.1-16.8,5.5-17.8,5.2c-1.1-0.3-8.6,11.4-11,11.4
			c-2.4,0.1-8.2-13.1-9.1-14.4c-1-1.5-14.9-4.1-15.4-6.6c-0.7-3.3,8.3-11.1,8.8-12.9c0.2-0.7-0.1-16.6,1.5-17.6
			c2.8-1.7,15.5,5.6,16.8,5.3C132.3,54.1,146.4,50,149.3,52z"/>
		<path class="st3" d="M113.3,66.6c0.2-0.7-0.1-16.6,1.5-17.6c2.8-1.7,15.5,5.6,16.8,5.3c0.2,0,1.6-0.5,3.6-0.9
			c-5.5,13.5-6.1,28.8,0.6,40.6c-2.5,3.1-5.4,6.7-6.7,6.7c-2.4,0.1-8.2-13.1-9.1-14.4c-1-1.5-14.9-4.1-15.4-6.6
			C103.8,76.2,112.9,68.4,113.3,66.6z"/>
		<path class="st1" d="M17.1,101.8c-5.5,0-6.4,9.3,0,9.3C23.6,111.1,24,101.8,17.1,101.8z"/>
		<path class="st1" d="M996.4,100.4c2.8,0,3.3,4.8,0,4.8S992.9,100.4,996.4,100.4z"/>
		<path class="st1" d="M53.2,106.7c-3.5,0-4,5.8,0,5.8S57.5,106.7,53.2,106.7z"/>
		<path class="st1" d="M973.2,107c2,0,2.3,3.3,0,3.3S970.7,107,973.2,107z"/>
		<path class="st4" d="M326.6,57.5c-5.5,0-6.4,9.3,0,9.3C333,66.9,333.5,57.5,326.6,57.5z"/>
		<path class="st4" d="M220.4,46.4c-4.3,0-5,7.3,0,7.3S225.8,46.4,220.4,46.4z"/>
		<path class="st5" d="M122.5,71.7c1.8,3.4-6.5,5.8-7.1,2.8C114.9,71.5,120.9,68.9,122.5,71.7z"/>
		<path class="st5" d="M142.9,64.2c0.6,2.7-6.9,6-7.5,2.5C134.8,63.2,142.1,60.8,142.9,64.2z"/>
		<path class="st6" d="M119.7,71.5L119.7,71.5c0.3-0.1,0.4-0.3,0.3-0.5c-0.4-1,0.1-2.1,1.1-2.6c1-0.4,2.1,0.1,2.6,1
			c0.1,0.2,0.3,0.3,0.5,0.2c0.2-0.1,0.3-0.3,0.2-0.5c-0.6-1.4-2.2-2-3.5-1.4c-1.4,0.6-2,2.2-1.4,3.5
			C119.4,71.5,119.5,71.5,119.7,71.5z"/>
		<path class="st6" d="M128.9,72.2c0.3,0,0.6-0.1,1-0.2c1.3-0.5,1.9-2,1.3-3.2c-0.1-0.2-0.3-0.3-0.5-0.2c-0.2,0.1-0.3,0.3-0.2,0.5
			c0.4,0.9,0,1.9-0.9,2.3s-1.9-0.1-2.3-0.9c-0.1-0.2-0.3-0.3-0.5-0.2c-0.2,0.1-0.3,0.3-0.2,0.5c0.3,0.6,0.7,1.1,1.3,1.3
			C128.2,72.1,128.5,72.2,128.9,72.2z"/>
		<path class="st6" d="M133,66.9h0.1c0.2-0.1,0.3-0.3,0.2-0.5c-0.2-0.5-0.2-1,0-1.5s0.6-0.9,1.1-1.1c0.5-0.2,1-0.2,1.5,0
			c0.5,0.2,0.9,0.6,1.1,1.1c0.1,0.2,0.3,0.3,0.5,0.2c0.2-0.1,0.3-0.3,0.2-0.5c-0.3-0.7-0.8-1.2-1.5-1.5s-1.4-0.3-2.1,0
			c-0.7,0.3-1.2,0.8-1.5,1.5c-0.3,0.7-0.3,1.4,0,2.1C132.7,66.8,132.8,66.9,133,66.9z"/>
	</g>
</g>
</svg>
