<?xml version="1.0" encoding="utf-8"?>
<!-- Generator: Adobe Illustrator 19.2.0, SVG Export Plug-In . SVG Version: 6.00 Build 0)  -->
<svg version="1.1" id="Layer_1" xmlns="http://www.w3.org/2000/svg" xmlns:xlink="http://www.w3.org/1999/xlink" x="0px" y="0px"
	 viewBox="0 0 45.7 45.7" style="enable-background:new 0 0 45.7 45.7;" xml:space="preserve">
<style type="text/css">
	.st0{fill:#FFA800;}
	.st1{fill:#FFFFFF;}
</style>
<g>
	<g>
		<g>
			<g>
				<circle class="st0" cx="22.9" cy="22.9" r="22.9"/>
			</g>
		</g>
	</g>
	<g>
		<g>
			<g>
				<path class="st1" d="M13,15.8c3,2.2,8.3,6.2,9.9,7.4c0.2,0.2,0.4,0.2,0.7,0.2c0.2,0,0.5-0.1,0.7-0.2c1.6-1.2,6.8-5.2,9.9-7.4
					c0.2-0.1,0.2-0.4,0.1-0.6c-0.4-0.4-0.9-0.6-1.4-0.6H14.3c-0.6,0-1.1,0.2-1.4,0.6C12.8,15.5,12.8,15.7,13,15.8z"/>
				<path class="st1" d="M34.2,17c-0.2-0.1-0.4,0-0.5,0.1c-2,1.5-4.6,3.4-6.5,4.9c-0.1,0.1-0.2,0.2-0.2,0.3c0,0.1,0.1,0.2,0.2,0.3
					c1.8,1.3,4.6,3,6.6,4.3c0.1,0,0.2,0.1,0.3,0.1c0.1,0,0.1,0,0.2,0c0.2-0.1,0.2-0.2,0.2-0.4v-9.1C34.5,17.3,34.4,17.1,34.2,17z"/>
				<path class="st1" d="M13.2,26.9c2-1.2,4.7-3,6.6-4.3c0.1-0.1,0.2-0.2,0.2-0.3c0-0.1-0.1-0.2-0.2-0.3c-2-1.5-4.6-3.4-6.5-4.9
					C13.1,17,12.9,17,12.8,17c-0.2,0.1-0.3,0.2-0.3,0.4v9.1c0,0.1,0.1,0.3,0.2,0.4c0.1,0,0.1,0,0.2,0C13.1,26.9,13.2,26.9,13.2,26.9
					z"/>
				<path class="st1" d="M33.9,28c-1.9-1.2-5.4-3.4-7.5-4.9c-0.2-0.1-0.4-0.1-0.6,0c-0.4,0.3-0.8,0.6-1,0.8c-0.8,0.6-1.8,0.6-2.6,0
					c-0.2-0.2-0.6-0.5-1-0.8c-0.2-0.1-0.4-0.1-0.6,0c-2.1,1.5-5.6,3.7-7.5,4.9c-0.1,0.1-0.2,0.2-0.2,0.3c0,0.1,0,0.2,0.1,0.3
					c0.3,0.3,0.8,0.5,1.3,0.5h18.3c0.5,0,1-0.2,1.3-0.5c0.1-0.1,0.1-0.2,0.1-0.3C34.1,28.1,34,28,33.9,28z"/>
			</g>
		</g>
	</g>
</g>
</svg>
