<?xml version="1.0" encoding="utf-8"?>
<!-- Generator: Adobe Illustrator 21.0.0, SVG Export Plug-In . SVG Version: 6.00 Build 0)  -->
<svg version="1.1" id="Isolation_Mode_1_" xmlns="http://www.w3.org/2000/svg" xmlns:xlink="http://www.w3.org/1999/xlink" x="0px"
	 y="0px" viewBox="0 0 423.3 128.9" style="enable-background:new 0 0 423.3 128.9;" xml:space="preserve">
<style type="text/css">
	.st0{opacity:0.2;}
	.st1{fill:#020202;}
	.st2{fill:#E5E5E5;}
	.st3{fill:url(#SVGID_1_);}
	.st4{fill:#D98513;}
	.st5{fill:#E5912E;}
	.st6{fill:#FF9906;}
	.st7{fill:url(#SVGID_2_);}
	.st8{fill:url(#SVGID_3_);}
	.st9{opacity:0.33;fill:url(#SVGID_4_);enable-background:new    ;}
	.st10{opacity:0.99;fill:#F5F5F5;enable-background:new    ;}
	.st11{opacity:0.3;fill:#F9FF7F;enable-background:new    ;}
	.st12{fill:#FFFFFF;}
</style>
<g id="Isolation_Mode">
	<g>
		<g class="st0">
			<path class="st1" d="M393.6,68.5c0-30-24.6-54.6-54.6-54.6H54.6C24.6,13.8,0,38.4,0,68.5l0,2.3c0,30,24.6,54.6,54.6,54.6H339
				c30,0,54.6-24.6,54.6-54.6C393.6,70.8,393.6,68.5,393.6,68.5z"/>
		</g>
		<g>
			<path class="st2" d="M400.7,60.5c0-30-24.6-54.6-54.6-54.6H61.8c-30,0-54.6,24.6-54.6,54.6v2.3c0,30,24.6,54.6,54.6,54.6h284.3
				c30,0,54.6-24.6,54.6-54.6V60.5z"/>
		</g>
		
			<linearGradient id="SVGID_1_" gradientUnits="userSpaceOnUse" x1="219.3506" y1="1061.1429" x2="219.3506" y2="1009.0959" gradientTransform="matrix(-1 0 0 -1 423.302 1072.6029)">
			<stop  offset="0" style="stop-color:#FFFFFF"/>
			<stop  offset="1" style="stop-color:#FFFFFF;stop-opacity:0"/>
		</linearGradient>
		<path class="st3" d="M41.5,63.5c-28.6-26.2-5.8-52,22.9-52h278.3c28.7,0,50.6,24.1,26.8,49.7L41.5,63.5z"/>
		<g>
			<path class="st4" d="M294.5,64.4c0,35.5,28.9,64.4,64.4,64.4s64.4-28.9,64.4-64.4c0-35.5-28.9-64.4-64.4-64.4
				C323.4,0,294.5,28.9,294.5,64.4z"/>
			<path class="st5" d="M296.3,64.4c0,34.5,28.1,62.6,62.6,62.6c34.5,0,62.6-28.1,62.6-62.6c0-34.5-28.1-62.6-62.6-62.6
				C324.4,1.8,296.3,29.9,296.3,64.4z"/>
			<path class="st6" d="M299.1,64.4c0,33,26.8,59.8,59.8,59.8s59.8-26.8,59.8-59.8c0-33-26.8-59.8-59.8-59.8S299.1,31.4,299.1,64.4z
				"/>
			
				<linearGradient id="SVGID_2_" gradientUnits="userSpaceOnUse" x1="64.3485" y1="8.675" x2="64.3485" y2="122.137" gradientTransform="matrix(-1 0 0 -1 423.302 129.89)">
				<stop  offset="0" style="stop-color:#F9A51A"/>
				<stop  offset="0.1613" style="stop-color:#ED7004"/>
				<stop  offset="0.4608" style="stop-color:#F48120"/>
				<stop  offset="1" style="stop-color:#FEC933"/>
			</linearGradient>
			<path class="st7" d="M344.8,118.9c4.5,1.5,9.2,2.3,14.1,2.3c5,0,9.8-0.8,14.3-2.4c24.2-6.5,42-28.8,42-55.5
				c0-26.4-17.6-47.2-41.5-53.3c-4.7-1.5-9.7-2.3-14.8-2.3c-5.2,0-10.2,0.8-14.9,2.4c-23.9,6.2-41.4,26.9-41.4,53.3
				C302.6,90.1,320.6,112.5,344.8,118.9z"/>
			
				<linearGradient id="SVGID_3_" gradientUnits="userSpaceOnUse" x1="22.4815" y1="18.414" x2="22.4815" y2="109.389" gradientTransform="matrix(-1 0 0 -1 423.302 129.89)">
				<stop  offset="0" style="stop-color:#F89C1C"/>
				<stop  offset="0.3952" style="stop-color:#FAB32E"/>
				<stop  offset="1" style="stop-color:#FFDE4F"/>
			</linearGradient>
			<path class="st8" d="M389,111.5c14.3-10.4,23.6-27.4,23.6-46.6c0-18.7-8.8-34.5-22.3-44.3c10.1,11.1,16.3,26.5,16.3,44.2
				C406.5,83.1,399.8,99.7,389,111.5z"/>
			
				<linearGradient id="SVGID_4_" gradientUnits="userSpaceOnUse" x1="21.0928" y1="85.4258" x2="114.6464" y2="85.4258" gradientTransform="matrix(-1 0 0 -1 423.302 129.89)">
				<stop  offset="0" style="stop-color:#FFDC33"/>
				<stop  offset="1" style="stop-color:#FFB92D"/>
			</linearGradient>
			<path class="st9" d="M401.4,52.2c0-0.2-0.1-0.4-0.1-0.6c-3.8-21-19-36-37.6-39.6c-1.1-0.4-2.3-0.7-3.5-0.9
				c-1.2-0.2-2.3-0.4-3.5-0.5c-1.4-0.1-2.8-0.1-4.2,0c-17.6,2.5-38.7,17-42.9,37c-0.4,1.7-0.6,9-0.7,10.9
				c2.2,5.7,7.2,10.7,12.4,13.6c9.7,5.4,20.7,6.4,31,6.4c17.9,0,39.1-7.1,48.6-25.4C401,52.7,401.1,52.4,401.4,52.2z"/>
		</g>
		<path class="st10" d="M401.8,39.6c-10.6-29.5-44.7-33.5-51.2-28.9C355.3,12.7,378.8,11,401.8,39.6z"/>
		<path class="st11" d="M331.9,114.6c3.3,2,6.8,3.6,10.3,4.6c19.7,5.6,40.8-3.1,54.2-19.8c-1.8,1.1-3.6,2.1-5.5,2.9
			c-10.8,6.5-23.7,7.5-35.7,9.4C347.6,113,339.7,114.4,331.9,114.6z"/>
		<g>
			<g>
				<g>
					<path class="st12" d="M359,47.3c-0.2,0.3-0.3,0.7-0.3,1.2l0,36.7c6.3-6.6,15.4-7.7,20.9-7.7c1.3,0,2.3-1.1,2.3-2.3V40
						c0-0.6-0.2-1.2-0.7-1.7c-0.4-0.4-1-0.7-1.6-0.7c0,0,0,0,0,0C374.1,37.7,364.2,38.9,359,47.3z"/>
					<path class="st12" d="M334.2,77.4c5.4,0,14.6,1.1,20.9,7.7V48.4c0-0.4-0.1-0.8-0.3-1.2c-5.2-8.3-15.1-9.6-20.6-9.6c0,0,0,0,0,0
						c-0.6,0-1.2,0.2-1.6,0.7c-0.4,0.4-0.7,1-0.7,1.7v35.1C331.8,76.4,332.9,77.4,334.2,77.4z"/>
					<path class="st12" d="M324.2,48.1l0,37.2c0,0.7,0.3,1.4,0.9,1.8c0.6,0.4,1.3,0.6,2,0.5c5.6-1.3,15.4-2.8,24.8-0.5
						c-5.4-5.1-13-6-17.6-6c-3.3,0-6-2.7-6-6V45.7h-1.7C325.2,45.7,324.2,46.8,324.2,48.1z"/>
					<path class="st12" d="M379.6,81.1c-4.6,0-12.2,0.9-17.6,6c9.3-2.3,19.2-0.8,24.8,0.5c0.7,0.2,1.4,0,2-0.5
						c0.6-0.4,0.9-1.1,0.9-1.8V48.1c0-1.3-1.1-2.3-2.3-2.3h-1.7v29.3C385.5,78.4,382.9,81.1,379.6,81.1z"/>
				</g>
			</g>
		</g>
	</g>
</g>
</svg>
