<?xml version="1.0" encoding="utf-8"?>
<!-- Generator: Adobe Illustrator 21.0.0, SVG Export Plug-In . SVG Version: 6.00 Build 0)  -->
<svg version="1.1" id="Layer_1" xmlns="http://www.w3.org/2000/svg" xmlns:xlink="http://www.w3.org/1999/xlink" x="0px" y="0px"
	 viewBox="0 0 156.9 135.9" style="enable-background:new 0 0 156.9 135.9;" xml:space="preserve">
<style type="text/css">
	.st0{fill:#EDBE00;}
	.st1{fill:#FFD647;}
	.st2{opacity:0.43;fill:#FFD647;}
	.st3{opacity:0.2;}
	.st4{fill:#C4C4C4;stroke:#FFD647;stroke-width:0.8353;stroke-miterlimit:10;}
</style>
<g>
	<g>
		<g>
			<path class="st0" d="M80.8,11.2l7,14.2c0.3,0.6,0.9,1.1,1.7,1.2l15.7,2.3c1.8,0.3,2.5,2.5,1.2,3.7L95,43.6
				c-0.5,0.5-0.8,1.2-0.6,1.9L97,61.1c0.3,1.8-1.6,3.2-3.2,2.3l-14-7.4c-0.6-0.3-1.4-0.3-2,0l-14,7.4c-1.6,0.8-3.5-0.5-3.2-2.3
				l2.7-15.6c0.1-0.7-0.1-1.4-0.6-1.9l-11.3-11c-1.3-1.3-0.6-3.5,1.2-3.7l15.7-2.3c0.7-0.1,1.3-0.6,1.7-1.2l7-14.2
				C77.6,9.5,80,9.5,80.8,11.2z"/>
			<path class="st1" d="M79,10.4l7,14.2c0.3,0.6,0.9,1.1,1.7,1.2l15.7,2.3c1.8,0.3,2.5,2.5,1.2,3.7l-11.3,11
				c-0.5,0.5-0.8,1.2-0.6,1.9l2.7,15.6c0.3,1.8-1.6,3.2-3.2,2.3l-14-7.4c-0.6-0.3-1.4-0.3-2,0l-14,7.4c-1.6,0.8-3.5-0.5-3.2-2.3
				l2.7-15.6c0.1-0.7-0.1-1.4-0.6-1.9l-11.3-11c-1.3-1.3-0.6-3.5,1.2-3.7l15.7-2.3c0.7-0.1,1.3-0.6,1.7-1.2l7-14.2
				C75.8,8.8,78.1,8.8,79,10.4z"/>
		</g>
		<path class="st2" d="M104.5,31.8c1.3-1.3,0.6-3.5-1.2-3.7L88.6,26C84,38.1,73.5,47.3,60.6,50l-1.8,10.4c-0.3,1.8,1.6,3.2,3.2,2.3
			l14-7.4c0.6-0.3,1.4-0.3,2,0l14,7.4c1.6,0.8,3.5-0.5,3.2-2.3l-2.7-15.6c-0.1-0.7,0.1-1.4,0.6-1.9L104.5,31.8z"/>
		<g>
			<path class="st1" d="M74.8,17c0,0-0.5,1.4-1.4,3.5c-0.4,1-1,2.2-1.5,3.5c-0.3,0.6-0.6,1.3-0.9,2c-0.2,0.3-0.3,0.7-0.5,1
				c-0.2,0.3-0.5,0.6-0.8,0.9c-0.6,0.5-1.5,0.8-2.2,0.9c-0.7,0.1-1.4,0.2-2.1,0.3c-1.4,0.2-2.7,0.3-3.8,0.5
				c-2.2,0.3-3.7,0.4-3.7,0.4s1.5-0.4,3.7-0.8c1.1-0.2,2.4-0.5,3.8-0.7c0.7-0.1,1.4-0.2,2.1-0.4c0.7-0.1,1.3-0.3,1.9-0.8
				c0.3-0.2,0.5-0.5,0.7-0.7c0.2-0.2,0.3-0.6,0.5-0.9c0.3-0.7,0.6-1.3,0.9-1.9c0.6-1.3,1.2-2.4,1.7-3.4C74,18.3,74.8,17,74.8,17z"/>
		</g>
	</g>
	<g class="st3">
		<g>
			<path class="st4" d="M117.4,70.4l6.9,14.1c0.3,0.6,0.9,1.1,1.6,1.2l15.5,2.3c1.8,0.3,2.5,2.5,1.2,3.7l-11.2,11
				c-0.5,0.5-0.7,1.2-0.6,1.9l2.7,15.5c0.3,1.8-1.6,3.1-3.2,2.3l-13.9-7.3c-0.6-0.3-1.4-0.3-2,0l-13.9,7.3c-1.6,0.8-3.5-0.5-3.2-2.3
				l2.7-15.5c0.1-0.7-0.1-1.4-0.6-1.9l-11.2-11c-1.3-1.3-0.6-3.5,1.2-3.7l15.5-2.3c0.7-0.1,1.3-0.5,1.6-1.2l6.9-14.1
				C114.3,68.7,116.6,68.7,117.4,70.4z"/>
		</g>
	</g>
	<g class="st3">
		<g>
			<path class="st4" d="M44.4,70.4l6.9,14.1c0.3,0.6,0.9,1.1,1.6,1.2l15.5,2.3c1.8,0.3,2.5,2.5,1.2,3.7l-11.2,11
				c-0.5,0.5-0.7,1.2-0.6,1.9l2.7,15.5c0.3,1.8-1.6,3.1-3.2,2.3l-13.9-7.3c-0.6-0.3-1.4-0.3-2,0l-13.9,7.3c-1.6,0.8-3.5-0.5-3.2-2.3
				l2.7-15.5c0.1-0.7-0.1-1.4-0.6-1.9l-11.2-11c-1.3-1.3-0.6-3.5,1.2-3.7l15.5-2.3c0.7-0.1,1.3-0.5,1.6-1.2l6.9-14.1
				C41.3,68.7,43.6,68.7,44.4,70.4z"/>
		</g>
	</g>
</g>
</svg>
