<?xml version="1.0" encoding="utf-8"?>
<!-- Generator: Adobe Illustrator 19.2.0, SVG Export Plug-In . SVG Version: 6.00 Build 0)  -->
<svg version="1.1" id="Layer_1" xmlns="http://www.w3.org/2000/svg" xmlns:xlink="http://www.w3.org/1999/xlink" x="0px" y="0px"
	 viewBox="0 0 10.8 10.8" style="enable-background:new 0 0 10.8 10.8;" xml:space="preserve">
<style type="text/css">
	.st0{fill:#FFFFFF;}
</style>
<g>
	<path class="st0" d="M9,6.1H4.2C3.5,6.1,2.9,6,2.6,5.9C2,5.6,1.7,5,1.7,4.2c0-0.6,0.3-1.3,0.8-2.1l0.3,0.2C2.5,2.8,2.4,3.3,2.4,3.5
		c0,0.5,0.2,0.8,0.7,0.9c0.3,0.1,0.7,0.1,1.2,0.1h4.1C8.3,4.3,8.3,4,8.2,4S8,3.7,7.8,3.4l0.5-1.3C8.6,2.5,8.8,2.8,8.8,3
		C8.9,3.3,9,3.8,9,4.5L9,6.1L9,6.1z M6.8,7.4L6.1,8.7L4.8,7.9l0.7-1.3L6.8,7.4z"/>
</g>
</svg>
