<?xml version="1.0" encoding="utf-8"?>
<!-- Generator: Adobe Illustrator 16.0.0, SVG Export Plug-In . SVG Version: 6.00 Build 0)  -->
<!DOCTYPE svg PUBLIC "-//W3C//DTD SVG 1.1//EN" "http://www.w3.org/Graphics/SVG/1.1/DTD/svg11.dtd">
<svg version="1.1" id="Layer_1" xmlns="http://www.w3.org/2000/svg" xmlns:xlink="http://www.w3.org/1999/xlink" x="0px" y="0px"
	 width="91.435px" height="96.23px" viewBox="0 0 91.435 96.23" style="enable-background:new 0 0 91.435 96.23;"
	 xml:space="preserve">
<style type="text/css">
<![CDATA[
	.st0{fill:#F7AD4C;}
	.st1{fill:#F99B1C;}
	.st2{fill:#F9C37B;}
	.st3{fill:url(#SVGID_1_);}
	.st4{fill:url(#SVGID_2_);}
	.st5{fill:url(#SVGID_4_);}
	.st6{fill:url(#SVGID_5_);}
	.st7{fill:url(#SVGID_6_);}
	.st8{fill:url(#SVGID_8_);}
	.st9{fill:#FFFFFF;}
	.st10{fill:#393B41;}
	.st11{opacity:0.5;fill:url(#SVGID_3_);}
	.st12{opacity:0.5;fill:url(#SVGID_7_);}
]]>
</style>
<g>
	
		<radialGradient id="SVGID_1_" cx="3178.9927" cy="59.6152" r="21.9356" gradientTransform="matrix(-1 0 0 1 3234.0186 0)" gradientUnits="userSpaceOnUse">
		<stop  offset="0" style="stop-color:#FFD761"/>
		<stop  offset="0.2069" style="stop-color:#FFD55B"/>
		<stop  offset="0.4739" style="stop-color:#FDCD4B"/>
		<stop  offset="0.7725" style="stop-color:#FBC131"/>
		<stop  offset="1" style="stop-color:#F9B517"/>
	</radialGradient>
	<path class="st3" d="M48.483,51.608c0,0,15.114-18.969,27.396-5.69c12.281,13.277-2.944,47.5-45.816,24.183L48.483,51.608z"/>
	
		<radialGradient id="SVGID_2_" cx="3176.064" cy="39.6616" r="69.2748" gradientTransform="matrix(-1 0 0 1 3234.0186 0)" gradientUnits="userSpaceOnUse">
		<stop  offset="0" style="stop-color:#FFD761"/>
		<stop  offset="0.2069" style="stop-color:#FFD55B"/>
		<stop  offset="0.4739" style="stop-color:#FDCD4B"/>
		<stop  offset="0.7725" style="stop-color:#FBC131"/>
		<stop  offset="1" style="stop-color:#F9B517"/>
	</radialGradient>
	<path class="st4" d="M66.922,39.775c6.64-3.565,11.156-10.571,11.156-18.635C78.078,9.464,68.612,0,56.938,0
		S35.796,9.464,35.796,21.14c0,5.392,2.035,10.296,5.357,14.03c-2.295,0.66-4.825,1.911-7.287,4.286
		C5.271,67.036,5.049,38.481,0.413,48.285c-1.697,3.588,2.381,12.537,2.381,16.634c0,17.293,16.609,31.311,37.1,31.311
		c20.491,0,37.101-14.018,37.101-31.311C76.994,54.245,74.017,45.165,66.922,39.775z"/>
	
		<linearGradient id="SVGID_3_" gradientUnits="userSpaceOnUse" x1="3159.8911" y1="66.6572" x2="3227.3335" y2="66.6572" gradientTransform="matrix(-1 0 0 1 3234.0186 0)">
		<stop  offset="0" style="stop-color:#FFFFFF"/>
		<stop  offset="0.75" style="stop-color:#FEEB07"/>
	</linearGradient>
	<path class="st11" d="M6.685,67.194c0,14.748,15.027,26.701,33.562,26.701c18.538,0,31.021-12.176,33.565-26.701
		c3.727-21.277-26.582-36.188-39.091-22.509C14.795,66.474,6.685,52.447,6.685,67.194z"/>
	<g>
		<path class="st0" d="M77.97,18.43c0,0-1.977-0.083-2.441,3.164l2.55-1.007L77.97,18.43z"/>
		<path class="st0" d="M47.413,21.088c0,0,6.492-6.265,16.958,2.823L47.413,21.088z"/>
		
			<ellipse transform="matrix(0.9864 -0.1642 0.1642 0.9864 -2.1978 9.7072)" class="st10" cx="57.616" cy="18.147" rx="1.627" ry="3.486"/>
		<path class="st10" d="M77.316,16.477c0.315,1.899,0.214,3.497-0.229,3.571s-1.059-1.404-1.375-3.304
			c-0.318-1.897-0.215-2.942,0.229-3.017S76.999,14.58,77.316,16.477z"/>
		<ellipse class="st9" cx="76" cy="15.083" rx="0.364" ry="1.16"/>
		<ellipse class="st9" cx="56.772" cy="16.386" rx="0.845" ry="1.303"/>
	</g>
	<g>
		
			<linearGradient id="SVGID_4_" gradientUnits="userSpaceOnUse" x1="3152.3687" y1="35.0967" x2="3172.3979" y2="35.0967" gradientTransform="matrix(-1 0 0 1 3234.0186 0)">
			<stop  offset="0" style="stop-color:#F7AD4C"/>
			<stop  offset="0.1396" style="stop-color:#F6A545"/>
			<stop  offset="0.6784" style="stop-color:#F08B2B"/>
			<stop  offset="1" style="stop-color:#EF8222"/>
		</linearGradient>
		<path class="st5" d="M76.204,30.928c0,0,3.033,3.474,4.717,4.314c1.683,0.843,0.758,5.53-6.031,3.928
			c-9.507-2.244-13.314-7.977-13.27-8.479L76.204,30.928z"/>
		
			<linearGradient id="SVGID_5_" gradientUnits="userSpaceOnUse" x1="3154.1343" y1="34.0337" x2="3171.0522" y2="34.0337" gradientTransform="matrix(-1 0 0 1 3234.0186 0)">
			<stop  offset="0" style="stop-color:#A01C31"/>
			<stop  offset="0.5657" style="stop-color:#8D1E23"/>
			<stop  offset="1" style="stop-color:#831F1C"/>
		</linearGradient>
		<path class="st6" d="M62.966,30.692c0,0,8.026,6.787,14.57,6.787c6.189,0-1.49-4.539-4.373-6.05
			C70.783,30.181,62.966,30.692,62.966,30.692z"/>
	</g>
	
		<linearGradient id="SVGID_6_" gradientUnits="userSpaceOnUse" x1="3142.5845" y1="28.5488" x2="3172.3979" y2="28.5488" gradientTransform="matrix(-1 0 0 1 3234.0186 0)">
		<stop  offset="0" style="stop-color:#F7AD4C"/>
		<stop  offset="0.1396" style="stop-color:#F6A545"/>
		<stop  offset="0.6784" style="stop-color:#F08B2B"/>
		<stop  offset="1" style="stop-color:#EF8222"/>
	</linearGradient>
	<path class="st7" d="M72.669,22.639c-2.501-0.429-7.605,6.97-10.691,7.531c-3.085,0.563,14.521,7.576,24.874,2.431
		c6.393-3.178,5.26-5.203,1.687-4.641C80.392,29.24,76.526,23.299,72.669,22.639z"/>
	<path class="st2" d="M66.399,30.692c0,0,11.679,4.53,19.932-1.452C86.331,29.24,78.85,33.258,66.399,30.692z"/>
	
		<linearGradient id="SVGID_7_" gradientUnits="userSpaceOnUse" x1="3158.019" y1="21.7183" x2="3193.8569" y2="21.7183" gradientTransform="matrix(-1 0 0 1 3234.0186 0)">
		<stop  offset="0" style="stop-color:#FFFFFF"/>
		<stop  offset="0.75" style="stop-color:#FEEB07"/>
	</linearGradient>
	<circle class="st12" cx="58.081" cy="21.718" r="17.919"/>
	
		<radialGradient id="SVGID_8_" cx="3202.0601" cy="61.4492" r="22.9634" gradientTransform="matrix(-1 0 0 1.006 3234.0186 0.6702)" gradientUnits="userSpaceOnUse">
		<stop  offset="0" style="stop-color:#FFD761"/>
		<stop  offset="0.2069" style="stop-color:#FFD55B"/>
		<stop  offset="0.4739" style="stop-color:#FDCD4B"/>
		<stop  offset="0.7725" style="stop-color:#FBC131"/>
		<stop  offset="1" style="stop-color:#F9B517"/>
	</radialGradient>
	<path class="st8" d="M23.474,53.292c1.062-1.549,17.641-19.693,29.926-5.718C70.179,66.659,31.721,99.304,6.411,72.528
		C6.411,72.528,12.607,69.13,23.474,53.292z"/>
	<path class="st1" d="M57.532,57.31c0,0-1.087-15.91-17.371-14.601C23.878,44.017,15.933,63.329,9.14,68.321
		c-5.916,4.348-8.287,5.271-8.287,5.271s4.456,0.471,5.559,0c1.104-0.471-1.415,2.508,0.273,2.246s2.793-0.262,2.793-0.262
		s-1.993,2.777,0.818,2.455c2.809-0.324,1.976-0.51,1.976-0.51s-1.507,2.059,0.451,2.705c2.243,0.742,8.786,8.902,30.114-1.266
		c0,0-19.121,6.664-27.009-0.127C9.09,73.03,23.503,48.891,35.483,45.522S53.749,46.457,57.532,57.31z"/>
</g>
</svg>
