<?xml version="1.0" encoding="utf-8"?>
<!-- Generator: Adobe Illustrator 19.2.0, SVG Export Plug-In . SVG Version: 6.00 Build 0)  -->
<svg version="1.1" id="Layer_1" xmlns="http://www.w3.org/2000/svg" xmlns:xlink="http://www.w3.org/1999/xlink" x="0px" y="0px"
	 viewBox="0 0 28.4 28.4" style="enable-background:new 0 0 28.4 28.4;" xml:space="preserve">
<style type="text/css">
	.st0{fill:#FFFFFF;}
</style>
<g id="Layer_2">
</g>
<g>
	<path class="st0" d="M23.7,23.9H11c-2.2,0-3.7-0.4-4.7-1.1c-1.1-0.8-1.7-2.1-1.7-4.1c0-1.1,0.2-2.2,0.7-3.2
		c0.2-0.5,0.6-1.3,1.3-2.3l0.8,0.6c-0.7,1.5-1.1,2.6-1.1,3.2c0,1.1,0.4,1.8,1.4,2.3c0.8,0.4,2,0.6,3.7,0.6h10.9
		c-0.3-0.9-0.4-1.4-0.5-1.6c-0.1-0.2-0.5-0.7-1.1-1.6l1.3-3.5c0.7,1.1,1.2,2,1.4,2.7c0.3,0.9,0.4,2.3,0.4,4.1L23.7,23.9L23.7,23.9z
		 M18.9,9.8l-1.7,3.1l-2.4-1.3L13.5,14l-3.1-1.7l1.6-3l2.5,1.3l1.3-2.4L18.9,9.8z M15.7,6.1l-1.6,3l-3-1.7l1.6-3L15.7,6.1z"/>
</g>
</svg>
