<?xml version="1.0" encoding="utf-8"?>
<!-- Generator: Adobe Illustrator 16.0.0, SVG Export Plug-In . SVG Version: 6.00 Build 0)  -->
<!DOCTYPE svg PUBLIC "-//W3C//DTD SVG 1.1//EN" "http://www.w3.org/Graphics/SVG/1.1/DTD/svg11.dtd">
<svg version="1.1" id="Layer_1" xmlns="http://www.w3.org/2000/svg" xmlns:xlink="http://www.w3.org/1999/xlink" x="0px" y="0px"
	 width="28.35px" height="28.35px" viewBox="0 0 28.35 28.35" enable-background="new 0 0 28.35 28.35" xml:space="preserve">
<rect x="0" y="0" fill="#F1F2F2" width="28.35" height="28.35"/>
<linearGradient id="SVGID_1_" gradientUnits="userSpaceOnUse" x1="566.7512" y1="843.1917" x2="592.5849" y2="814.3055" gradientTransform="matrix(1 0 0 1 -566.9707 -812.9199)">
	<stop  offset="0" style="stop-color:#F7E52B"/>
	<stop  offset="1" style="stop-color:#F79721"/>
</linearGradient>
<rect x="1.053" y="1.191" fill="url(#SVGID_1_)" width="26.244" height="25.969"/>
<linearGradient id="SVGID_2_" gradientUnits="userSpaceOnUse" x1="566.7512" y1="843.1917" x2="592.5848" y2="814.306" gradientTransform="matrix(1 0 0 1 -566.9707 -812.9199)">
	<stop  offset="0" style="stop-color:#F7E52B"/>
	<stop  offset="1" style="stop-color:#F79721"/>
</linearGradient>
<rect x="1.053" y="1.191" fill="url(#SVGID_2_)" width="26.244" height="25.969"/>
<linearGradient id="SVGID_3_" gradientUnits="userSpaceOnUse" x1="566.7512" y1="843.1917" x2="592.5848" y2="814.306" gradientTransform="matrix(1 0 0 1 -566.9707 -812.9199)">
	<stop  offset="0" style="stop-color:#F7E52B"/>
	<stop  offset="1" style="stop-color:#F79721"/>
</linearGradient>
<rect x="1.053" y="1.191" fill="url(#SVGID_3_)" width="26.244" height="25.969"/>
<linearGradient id="SVGID_4_" gradientUnits="userSpaceOnUse" x1="566.7512" y1="843.1917" x2="592.5848" y2="814.306" gradientTransform="matrix(1 0 0 1 -566.9707 -812.9199)">
	<stop  offset="0" style="stop-color:#F7E52B"/>
	<stop  offset="1" style="stop-color:#F79721"/>
</linearGradient>
<rect x="1.053" y="1.191" fill="url(#SVGID_4_)" width="26.244" height="25.969"/>
<linearGradient id="SVGID_5_" gradientUnits="userSpaceOnUse" x1="566.7512" y1="843.1917" x2="592.5848" y2="814.306" gradientTransform="matrix(1 0 0 1 -566.9707 -812.9199)">
	<stop  offset="0" style="stop-color:#F7E52B"/>
	<stop  offset="1" style="stop-color:#F79721"/>
</linearGradient>
<rect x="1.053" y="1.191" fill="url(#SVGID_5_)" width="26.244" height="25.969"/>
<linearGradient id="SVGID_6_" gradientUnits="userSpaceOnUse" x1="566.7512" y1="843.1917" x2="592.5848" y2="814.306" gradientTransform="matrix(1 0 0 1 -566.9707 -812.9199)">
	<stop  offset="0" style="stop-color:#F7E52B"/>
	<stop  offset="1" style="stop-color:#F79721"/>
</linearGradient>
<rect x="1.053" y="1.191" fill="url(#SVGID_6_)" width="26.244" height="25.969"/>
<linearGradient id="SVGID_7_" gradientUnits="userSpaceOnUse" x1="566.7512" y1="843.1917" x2="592.5848" y2="814.306" gradientTransform="matrix(1 0 0 1 -566.9707 -812.9199)">
	<stop  offset="0" style="stop-color:#F7E52B"/>
	<stop  offset="1" style="stop-color:#F79721"/>
</linearGradient>
<rect x="1.053" y="1.191" fill="url(#SVGID_7_)" width="26.244" height="25.969"/>
<linearGradient id="SVGID_8_" gradientUnits="userSpaceOnUse" x1="566.7512" y1="843.1917" x2="592.5848" y2="814.306" gradientTransform="matrix(1 0 0 1 -566.9707 -812.9199)">
	<stop  offset="0" style="stop-color:#F7E52B"/>
	<stop  offset="1" style="stop-color:#F79721"/>
</linearGradient>
<rect x="1.053" y="1.191" fill="url(#SVGID_8_)" width="26.244" height="25.969"/>
<linearGradient id="SVGID_9_" gradientUnits="userSpaceOnUse" x1="566.7512" y1="843.1917" x2="592.5848" y2="814.306" gradientTransform="matrix(1 0 0 1 -566.9707 -812.9199)">
	<stop  offset="0" style="stop-color:#F7E52B"/>
	<stop  offset="1" style="stop-color:#F79721"/>
</linearGradient>
<rect x="1.053" y="1.191" fill="url(#SVGID_9_)" width="26.244" height="25.969"/>
<linearGradient id="SVGID_10_" gradientUnits="userSpaceOnUse" x1="566.7512" y1="843.1917" x2="592.5848" y2="814.306" gradientTransform="matrix(1 0 0 1 -566.9707 -812.9199)">
	<stop  offset="0" style="stop-color:#F7E52B"/>
	<stop  offset="1" style="stop-color:#F79721"/>
</linearGradient>
<rect x="1.053" y="1.191" fill="url(#SVGID_10_)" width="26.244" height="25.969"/>
<linearGradient id="SVGID_11_" gradientUnits="userSpaceOnUse" x1="566.7512" y1="843.1917" x2="592.5848" y2="814.306" gradientTransform="matrix(1 0 0 1 -566.9707 -812.9199)">
	<stop  offset="0" style="stop-color:#F7E52B"/>
	<stop  offset="1" style="stop-color:#F79721"/>
</linearGradient>
<rect x="1.053" y="1.191" fill="url(#SVGID_11_)" width="26.244" height="25.969"/>
<linearGradient id="SVGID_12_" gradientUnits="userSpaceOnUse" x1="566.7512" y1="843.1917" x2="592.5848" y2="814.306" gradientTransform="matrix(1 0 0 1 -566.9707 -812.9199)">
	<stop  offset="0" style="stop-color:#F7E52B"/>
	<stop  offset="1" style="stop-color:#F79721"/>
</linearGradient>
<rect x="1.053" y="1.191" fill="url(#SVGID_12_)" width="26.244" height="25.969"/>
<linearGradient id="SVGID_13_" gradientUnits="userSpaceOnUse" x1="566.7512" y1="843.1917" x2="592.5848" y2="814.306" gradientTransform="matrix(1 0 0 1 -566.9707 -812.9199)">
	<stop  offset="0" style="stop-color:#F7E52B"/>
	<stop  offset="1" style="stop-color:#F79721"/>
</linearGradient>
<rect x="1.053" y="1.191" fill="url(#SVGID_13_)" width="26.244" height="25.969"/>
<linearGradient id="SVGID_14_" gradientUnits="userSpaceOnUse" x1="566.7512" y1="843.1917" x2="592.5848" y2="814.306" gradientTransform="matrix(1 0 0 1 -566.9707 -812.9199)">
	<stop  offset="0" style="stop-color:#F7E52B"/>
	<stop  offset="1" style="stop-color:#F79721"/>
</linearGradient>
<rect x="1.053" y="1.191" fill="url(#SVGID_14_)" width="26.244" height="25.969"/>
<linearGradient id="SVGID_15_" gradientUnits="userSpaceOnUse" x1="566.7512" y1="843.1917" x2="592.5848" y2="814.306" gradientTransform="matrix(1 0 0 1 -566.9707 -812.9199)">
	<stop  offset="0" style="stop-color:#F7E52B"/>
	<stop  offset="1" style="stop-color:#F79721"/>
</linearGradient>
<rect x="1.053" y="1.191" fill="url(#SVGID_15_)" width="26.244" height="25.969"/>
<linearGradient id="SVGID_16_" gradientUnits="userSpaceOnUse" x1="566.7512" y1="843.1917" x2="592.5848" y2="814.306" gradientTransform="matrix(1 0 0 1 -566.9707 -812.9199)">
	<stop  offset="0" style="stop-color:#F7E52B"/>
	<stop  offset="1" style="stop-color:#F79721"/>
</linearGradient>
<rect x="1.053" y="1.191" fill="url(#SVGID_16_)" width="26.244" height="25.969"/>
<linearGradient id="SVGID_17_" gradientUnits="userSpaceOnUse" x1="566.7512" y1="843.1917" x2="592.5848" y2="814.306" gradientTransform="matrix(1 0 0 1 -566.9707 -812.9199)">
	<stop  offset="0" style="stop-color:#F7E52B"/>
	<stop  offset="1" style="stop-color:#F79721"/>
</linearGradient>
<rect x="1.053" y="1.191" fill="url(#SVGID_17_)" width="26.244" height="25.969"/>
<linearGradient id="SVGID_18_" gradientUnits="userSpaceOnUse" x1="566.7512" y1="843.1917" x2="592.5848" y2="814.306" gradientTransform="matrix(1 0 0 1 -566.9707 -812.9199)">
	<stop  offset="0" style="stop-color:#F7E52B"/>
	<stop  offset="1" style="stop-color:#F79721"/>
</linearGradient>
<rect x="1.053" y="1.191" fill="url(#SVGID_18_)" width="26.244" height="25.969"/>
<linearGradient id="SVGID_19_" gradientUnits="userSpaceOnUse" x1="566.7512" y1="843.1917" x2="592.5848" y2="814.306" gradientTransform="matrix(1 0 0 1 -566.9707 -812.9199)">
	<stop  offset="0" style="stop-color:#F7E52B"/>
	<stop  offset="1" style="stop-color:#F79721"/>
</linearGradient>
<rect x="1.053" y="1.191" fill="url(#SVGID_19_)" width="26.244" height="25.969"/>
<linearGradient id="SVGID_20_" gradientUnits="userSpaceOnUse" x1="566.7512" y1="843.1917" x2="592.5848" y2="814.306" gradientTransform="matrix(1 0 0 1 -566.9707 -812.9199)">
	<stop  offset="0" style="stop-color:#F7E52B"/>
	<stop  offset="1" style="stop-color:#F79721"/>
</linearGradient>
<rect x="1.053" y="1.191" fill="url(#SVGID_20_)" width="26.244" height="25.969"/>
<linearGradient id="SVGID_21_" gradientUnits="userSpaceOnUse" x1="566.7512" y1="843.1917" x2="592.5848" y2="814.306" gradientTransform="matrix(1 0 0 1 -566.9707 -812.9199)">
	<stop  offset="0" style="stop-color:#F7E52B"/>
	<stop  offset="1" style="stop-color:#F79721"/>
</linearGradient>
<rect x="1.053" y="1.191" fill="url(#SVGID_21_)" width="26.244" height="25.969"/>
<linearGradient id="SVGID_22_" gradientUnits="userSpaceOnUse" x1="566.7512" y1="843.1917" x2="592.5848" y2="814.306" gradientTransform="matrix(1 0 0 1 -566.9707 -812.9199)">
	<stop  offset="0" style="stop-color:#F7E52B"/>
	<stop  offset="1" style="stop-color:#F79721"/>
</linearGradient>
<rect x="1.053" y="1.191" fill="url(#SVGID_22_)" width="26.244" height="25.969"/>
<linearGradient id="SVGID_23_" gradientUnits="userSpaceOnUse" x1="566.7512" y1="843.1917" x2="592.5848" y2="814.306" gradientTransform="matrix(1 0 0 1 -566.9707 -812.9199)">
	<stop  offset="0" style="stop-color:#F7E52B"/>
	<stop  offset="1" style="stop-color:#F79721"/>
</linearGradient>
<rect x="1.053" y="1.191" fill="url(#SVGID_23_)" width="26.244" height="25.969"/>
<linearGradient id="SVGID_24_" gradientUnits="userSpaceOnUse" x1="566.7512" y1="843.1917" x2="592.5848" y2="814.306" gradientTransform="matrix(1 0 0 1 -566.9707 -812.9199)">
	<stop  offset="0" style="stop-color:#F7E52B"/>
	<stop  offset="1" style="stop-color:#F79721"/>
</linearGradient>
<rect x="1.053" y="1.191" fill="url(#SVGID_24_)" width="26.244" height="25.969"/>
<linearGradient id="SVGID_25_" gradientUnits="userSpaceOnUse" x1="566.7512" y1="843.1917" x2="592.5848" y2="814.306" gradientTransform="matrix(1 0 0 1 -566.9707 -812.9199)">
	<stop  offset="0" style="stop-color:#F7E52B"/>
	<stop  offset="1" style="stop-color:#F79721"/>
</linearGradient>
<rect x="1.053" y="1.191" fill="url(#SVGID_25_)" width="26.244" height="25.969"/>
<linearGradient id="SVGID_26_" gradientUnits="userSpaceOnUse" x1="568.0237" y1="827.095" x2="594.2678" y2="827.095" gradientTransform="matrix(1 0 0 1 -566.9707 -812.9199)">
	<stop  offset="0" style="stop-color:#9FDAE1"/>
	<stop  offset="1" style="stop-color:#14B3D9"/>
</linearGradient>
<rect x="1.053" y="1.191" fill="url(#SVGID_26_)" width="26.244" height="25.97"/>
<g id="Layer_2">
</g>
<g>
	<path fill="#231F20" d="M11.257,17.306H5.202c-1.786,0-2.68-0.769-2.68-2.307c0-0.89,0.298-1.736,0.894-2.541l0.412,0.233
		c-0.349,0.714-0.522,1.209-0.522,1.483c0,0.467,0.201,0.801,0.604,1.003c0.356,0.174,0.911,0.262,1.66,0.262h5.055
		c-0.138-0.367-0.243-0.61-0.316-0.728c-0.046-0.084-0.207-0.322-0.481-0.716l0.591-1.593c0.348,0.531,0.566,0.953,0.66,1.265
		c0.119,0.384,0.177,0.982,0.177,1.799V17.306z M9.102,10.838l-0.769,1.43l-1.14-0.577L6.63,12.761l-1.415-0.755l0.728-1.428
		l1.14,0.618l0.591-1.126L9.102,10.838z"/>
	<path fill="#231F20" d="M14.265,15.466c0,0.521-0.247,1.276-0.741,2.266l-0.399-0.179c0.11-0.549,0.165-0.96,0.165-1.235
		c0-0.952-0.128-2.282-0.384-3.989c-0.256-1.708-0.384-2.494-0.384-2.355c0-0.257,0.26-0.888,0.782-1.896
		C13.944,11.575,14.265,14.037,14.265,15.466z"/>
	<path fill="#231F20" d="M20.884,17.142c0,0.724-0.371,1.44-1.111,2.155c-0.67,0.649-1.242,0.975-1.717,0.975
		c-0.439,0-0.994-0.183-1.662-0.55c-0.256-0.146-0.77-0.476-1.538-0.989l0.274-0.425c0.834,0.467,1.432,0.701,1.799,0.701
		c0.605,0,1.338-0.391,2.197-1.167c0.814-0.733,1.223-1.291,1.223-1.676c0-0.293-0.273-0.815-0.824-1.566l0.398-1.868
		c0.641,0.815,0.963,1.667,0.963,2.554v1.855H20.884z"/>
	<path fill="#231F20" d="M25.827,9.177l-0.014,1.62c-1.768,0.577-2.65,0.936-2.65,1.071c0,0.028,0.16,0.22,0.48,0.579
		c0.447,0.503,0.879,1.03,1.291,1.579c0.219,0.284,0.512,0.741,0.879,1.374v1.908h-5.232V15.44h4.162
		c-0.359-0.431-0.619-0.728-0.783-0.893c-0.119-0.11-0.426-0.367-0.92-0.771l-0.248,0.235c-0.477-0.469-0.732-0.723-0.77-0.771
		c-0.191-0.228-0.287-0.467-0.287-0.713c0-0.661,0.146-1.176,0.438-1.552c0.266-0.33,0.719-0.636,1.359-0.92
		C23.609,10.028,24.372,9.735,25.827,9.177z"/>
</g>
</svg>
