<?xml version="1.0" encoding="utf-8"?>
<!-- Generator: Adobe Illustrator 16.0.0, SVG Export Plug-In . SVG Version: 6.00 Build 0)  -->
<!DOCTYPE svg PUBLIC "-//W3C//DTD SVG 1.1//EN" "http://www.w3.org/Graphics/SVG/1.1/DTD/svg11.dtd">
<svg version="1.1" id="Layer_1" xmlns="http://www.w3.org/2000/svg" xmlns:xlink="http://www.w3.org/1999/xlink" x="0px" y="0px"
	 width="28.35px" height="28.35px" viewBox="0 0 28.35 28.35" enable-background="new 0 0 28.35 28.35" xml:space="preserve">
<rect x="0" y="0" fill="#F1F2F2" width="28.35" height="28.35"/>
<linearGradient id="SVGID_1_" gradientUnits="userSpaceOnUse" x1="283.2659" y1="-408.0559" x2="309.0989" y2="-379.1705" gradientTransform="matrix(1 0 0 -1 -283.4854 -377.7847)">
	<stop  offset="0" style="stop-color:#F7E52B"/>
	<stop  offset="1" style="stop-color:#F79721"/>
</linearGradient>
<rect x="1.053" y="1.191" fill="url(#SVGID_1_)" width="26.244" height="25.968"/>
<linearGradient id="SVGID_2_" gradientUnits="userSpaceOnUse" x1="283.2649" y1="-408.0549" x2="309.0978" y2="-379.17" gradientTransform="matrix(1 0 0 -1 -283.4854 -377.7847)">
	<stop  offset="0" style="stop-color:#F7E52B"/>
	<stop  offset="1" style="stop-color:#F79721"/>
</linearGradient>
<rect x="1.053" y="1.191" fill="url(#SVGID_2_)" width="26.244" height="25.968"/>
<linearGradient id="SVGID_3_" gradientUnits="userSpaceOnUse" x1="283.2649" y1="-408.0549" x2="309.0978" y2="-379.17" gradientTransform="matrix(1 0 0 -1 -283.4854 -377.7847)">
	<stop  offset="0" style="stop-color:#F7E52B"/>
	<stop  offset="1" style="stop-color:#F79721"/>
</linearGradient>
<rect x="1.053" y="1.191" fill="url(#SVGID_3_)" width="26.244" height="25.968"/>
<linearGradient id="SVGID_4_" gradientUnits="userSpaceOnUse" x1="283.2649" y1="-408.0549" x2="309.0978" y2="-379.17" gradientTransform="matrix(1 0 0 -1 -283.4854 -377.7847)">
	<stop  offset="0" style="stop-color:#F7E52B"/>
	<stop  offset="1" style="stop-color:#F79721"/>
</linearGradient>
<rect x="1.053" y="1.191" fill="url(#SVGID_4_)" width="26.244" height="25.968"/>
<linearGradient id="SVGID_5_" gradientUnits="userSpaceOnUse" x1="283.2649" y1="-408.0549" x2="309.0978" y2="-379.17" gradientTransform="matrix(1 0 0 -1 -283.4854 -377.7847)">
	<stop  offset="0" style="stop-color:#F7E52B"/>
	<stop  offset="1" style="stop-color:#F79721"/>
</linearGradient>
<rect x="1.053" y="1.191" fill="url(#SVGID_5_)" width="26.244" height="25.968"/>
<linearGradient id="SVGID_6_" gradientUnits="userSpaceOnUse" x1="283.2649" y1="-408.0549" x2="309.0978" y2="-379.17" gradientTransform="matrix(1 0 0 -1 -283.4854 -377.7847)">
	<stop  offset="0" style="stop-color:#F7E52B"/>
	<stop  offset="1" style="stop-color:#F79721"/>
</linearGradient>
<rect x="1.053" y="1.191" fill="url(#SVGID_6_)" width="26.244" height="25.968"/>
<linearGradient id="SVGID_7_" gradientUnits="userSpaceOnUse" x1="283.2649" y1="-408.0549" x2="309.0978" y2="-379.17" gradientTransform="matrix(1 0 0 -1 -283.4854 -377.7847)">
	<stop  offset="0" style="stop-color:#F7E52B"/>
	<stop  offset="1" style="stop-color:#F79721"/>
</linearGradient>
<rect x="1.053" y="1.191" fill="url(#SVGID_7_)" width="26.244" height="25.968"/>
<linearGradient id="SVGID_8_" gradientUnits="userSpaceOnUse" x1="283.2649" y1="-408.0549" x2="309.0978" y2="-379.17" gradientTransform="matrix(1 0 0 -1 -283.4854 -377.7847)">
	<stop  offset="0" style="stop-color:#F7E52B"/>
	<stop  offset="1" style="stop-color:#F79721"/>
</linearGradient>
<rect x="1.053" y="1.191" fill="url(#SVGID_8_)" width="26.244" height="25.968"/>
<linearGradient id="SVGID_9_" gradientUnits="userSpaceOnUse" x1="283.2649" y1="-408.0549" x2="309.0978" y2="-379.17" gradientTransform="matrix(1 0 0 -1 -283.4854 -377.7847)">
	<stop  offset="0" style="stop-color:#F7E52B"/>
	<stop  offset="1" style="stop-color:#F79721"/>
</linearGradient>
<rect x="1.053" y="1.191" fill="url(#SVGID_9_)" width="26.244" height="25.968"/>
<linearGradient id="SVGID_10_" gradientUnits="userSpaceOnUse" x1="283.2649" y1="-408.0549" x2="309.0978" y2="-379.17" gradientTransform="matrix(1 0 0 -1 -283.4854 -377.7847)">
	<stop  offset="0" style="stop-color:#F7E52B"/>
	<stop  offset="1" style="stop-color:#F79721"/>
</linearGradient>
<rect x="1.053" y="1.191" fill="url(#SVGID_10_)" width="26.244" height="25.968"/>
<linearGradient id="SVGID_11_" gradientUnits="userSpaceOnUse" x1="283.2649" y1="-408.0549" x2="309.0978" y2="-379.17" gradientTransform="matrix(1 0 0 -1 -283.4854 -377.7847)">
	<stop  offset="0" style="stop-color:#F7E52B"/>
	<stop  offset="1" style="stop-color:#F79721"/>
</linearGradient>
<rect x="1.053" y="1.191" fill="url(#SVGID_11_)" width="26.244" height="25.968"/>
<linearGradient id="SVGID_12_" gradientUnits="userSpaceOnUse" x1="283.2649" y1="-408.0549" x2="309.0978" y2="-379.17" gradientTransform="matrix(1 0 0 -1 -283.4854 -377.7847)">
	<stop  offset="0" style="stop-color:#F7E52B"/>
	<stop  offset="1" style="stop-color:#F79721"/>
</linearGradient>
<rect x="1.053" y="1.191" fill="url(#SVGID_12_)" width="26.244" height="25.968"/>
<linearGradient id="SVGID_13_" gradientUnits="userSpaceOnUse" x1="283.2649" y1="-408.0549" x2="309.0978" y2="-379.17" gradientTransform="matrix(1 0 0 -1 -283.4854 -377.7847)">
	<stop  offset="0" style="stop-color:#F7E52B"/>
	<stop  offset="1" style="stop-color:#F79721"/>
</linearGradient>
<rect x="1.053" y="1.191" fill="url(#SVGID_13_)" width="26.244" height="25.968"/>
<linearGradient id="SVGID_14_" gradientUnits="userSpaceOnUse" x1="283.2649" y1="-408.0549" x2="309.0978" y2="-379.17" gradientTransform="matrix(1 0 0 -1 -283.4854 -377.7847)">
	<stop  offset="0" style="stop-color:#F7E52B"/>
	<stop  offset="1" style="stop-color:#F79721"/>
</linearGradient>
<rect x="1.053" y="1.191" fill="url(#SVGID_14_)" width="26.244" height="25.968"/>
<linearGradient id="SVGID_15_" gradientUnits="userSpaceOnUse" x1="283.2649" y1="-408.0549" x2="309.0978" y2="-379.17" gradientTransform="matrix(1 0 0 -1 -283.4854 -377.7847)">
	<stop  offset="0" style="stop-color:#F7E52B"/>
	<stop  offset="1" style="stop-color:#F79721"/>
</linearGradient>
<rect x="1.053" y="1.191" fill="url(#SVGID_15_)" width="26.244" height="25.968"/>
<linearGradient id="SVGID_16_" gradientUnits="userSpaceOnUse" x1="283.2649" y1="-408.0549" x2="309.0978" y2="-379.17" gradientTransform="matrix(1 0 0 -1 -283.4854 -377.7847)">
	<stop  offset="0" style="stop-color:#F7E52B"/>
	<stop  offset="1" style="stop-color:#F79721"/>
</linearGradient>
<rect x="1.053" y="1.191" fill="url(#SVGID_16_)" width="26.244" height="25.968"/>
<linearGradient id="SVGID_17_" gradientUnits="userSpaceOnUse" x1="283.2649" y1="-408.0549" x2="309.0978" y2="-379.17" gradientTransform="matrix(1 0 0 -1 -283.4854 -377.7847)">
	<stop  offset="0" style="stop-color:#F7E52B"/>
	<stop  offset="1" style="stop-color:#F79721"/>
</linearGradient>
<rect x="1.053" y="1.191" fill="url(#SVGID_17_)" width="26.244" height="25.968"/>
<linearGradient id="SVGID_18_" gradientUnits="userSpaceOnUse" x1="283.2649" y1="-408.0549" x2="309.0978" y2="-379.17" gradientTransform="matrix(1 0 0 -1 -283.4854 -377.7847)">
	<stop  offset="0" style="stop-color:#F7E52B"/>
	<stop  offset="1" style="stop-color:#F79721"/>
</linearGradient>
<rect x="1.053" y="1.191" fill="url(#SVGID_18_)" width="26.244" height="25.968"/>
<linearGradient id="SVGID_19_" gradientUnits="userSpaceOnUse" x1="283.2649" y1="-408.0549" x2="309.0978" y2="-379.17" gradientTransform="matrix(1 0 0 -1 -283.4854 -377.7847)">
	<stop  offset="0" style="stop-color:#F7E52B"/>
	<stop  offset="1" style="stop-color:#F79721"/>
</linearGradient>
<rect x="1.053" y="1.191" fill="url(#SVGID_19_)" width="26.244" height="25.968"/>
<linearGradient id="SVGID_20_" gradientUnits="userSpaceOnUse" x1="283.2649" y1="-408.0549" x2="309.0978" y2="-379.17" gradientTransform="matrix(1 0 0 -1 -283.4854 -377.7847)">
	<stop  offset="0" style="stop-color:#F7E52B"/>
	<stop  offset="1" style="stop-color:#F79721"/>
</linearGradient>
<rect x="1.053" y="1.191" fill="url(#SVGID_20_)" width="26.244" height="25.968"/>
<linearGradient id="SVGID_21_" gradientUnits="userSpaceOnUse" x1="283.2649" y1="-408.0549" x2="309.0978" y2="-379.17" gradientTransform="matrix(1 0 0 -1 -283.4854 -377.7847)">
	<stop  offset="0" style="stop-color:#F7E52B"/>
	<stop  offset="1" style="stop-color:#F79721"/>
</linearGradient>
<rect x="1.053" y="1.191" fill="url(#SVGID_21_)" width="26.244" height="25.968"/>
<linearGradient id="SVGID_22_" gradientUnits="userSpaceOnUse" x1="283.2649" y1="-408.0549" x2="309.0978" y2="-379.17" gradientTransform="matrix(1 0 0 -1 -283.4854 -377.7847)">
	<stop  offset="0" style="stop-color:#F7E52B"/>
	<stop  offset="1" style="stop-color:#F79721"/>
</linearGradient>
<rect x="1.053" y="1.191" fill="url(#SVGID_22_)" width="26.244" height="25.968"/>
<linearGradient id="SVGID_23_" gradientUnits="userSpaceOnUse" x1="283.2649" y1="-408.0549" x2="309.0978" y2="-379.17" gradientTransform="matrix(1 0 0 -1 -283.4854 -377.7847)">
	<stop  offset="0" style="stop-color:#F7E52B"/>
	<stop  offset="1" style="stop-color:#F79721"/>
</linearGradient>
<rect x="1.053" y="1.191" fill="url(#SVGID_23_)" width="26.244" height="25.968"/>
<linearGradient id="SVGID_24_" gradientUnits="userSpaceOnUse" x1="283.2649" y1="-408.0549" x2="309.0978" y2="-379.17" gradientTransform="matrix(1 0 0 -1 -283.4854 -377.7847)">
	<stop  offset="0" style="stop-color:#F7E52B"/>
	<stop  offset="1" style="stop-color:#F79721"/>
</linearGradient>
<rect x="1.053" y="1.191" fill="url(#SVGID_24_)" width="26.244" height="25.968"/>
<linearGradient id="SVGID_25_" gradientUnits="userSpaceOnUse" x1="283.2649" y1="-408.0549" x2="309.0978" y2="-379.17" gradientTransform="matrix(1 0 0 -1 -283.4854 -377.7847)">
	<stop  offset="0" style="stop-color:#F7E52B"/>
	<stop  offset="1" style="stop-color:#F79721"/>
</linearGradient>
<rect x="1.053" y="1.191" fill="url(#SVGID_25_)" width="26.244" height="25.968"/>
<linearGradient id="SVGID_26_" gradientUnits="userSpaceOnUse" x1="284.5383" y1="-391.9597" x2="310.7825" y2="-391.9597" gradientTransform="matrix(1 0 0 -1 -283.4854 -377.7847)">
	<stop  offset="0" style="stop-color:#9FDAE1"/>
	<stop  offset="1" style="stop-color:#14B3D9"/>
</linearGradient>
<rect x="1.053" y="1.191" fill="url(#SVGID_26_)" width="26.244" height="25.969"/>
<g id="Layer_2">
</g>
<g>
	<path fill="#231F20" d="M12.279,19.454H5.933c-1.08,0-1.865-0.175-2.354-0.525c-0.561-0.39-0.84-1.065-0.84-2.024
		c0-0.561,0.114-1.101,0.345-1.62c0.1-0.24,0.314-0.625,0.645-1.155l0.42,0.285c-0.359,0.76-0.54,1.29-0.54,1.59
		c0,0.53,0.226,0.905,0.676,1.125c0.38,0.189,0.989,0.285,1.83,0.285h5.444c-0.13-0.43-0.22-0.695-0.27-0.795
		c-0.051-0.1-0.235-0.36-0.556-0.78l0.646-1.74c0.36,0.55,0.595,0.996,0.705,1.336c0.13,0.46,0.195,1.145,0.195,2.054V19.454z
		 M9.893,12.419l-0.84,1.545l-1.215-0.66l-0.646,1.2l-1.529-0.855l0.779-1.5l1.261,0.645l0.66-1.215L9.893,12.419z M8.288,10.574
		l-0.825,1.515l-1.515-0.84l0.779-1.515L8.288,10.574z"/>
	<path fill="#231F20" d="M15.518,19.454h-3.765v-2.04c0.46-0.01,0.904-0.005,1.335,0.015c0.489,0.03,0.779,0.045,0.87,0.045
		c0.21,0,0.435-0.015,0.675-0.045l-0.885-5.16l-0.45-0.27c0-0.58,0.225-1.31,0.675-2.19l0.33,0.105c0,0.03,0,0.075,0,0.135
		c-0.01,0.06-0.016,0.11-0.016,0.15c0,0.16,0.115,0.315,0.346,0.465c0.279,0.15,0.564,0.305,0.854,0.465
		c-0.14,0.68-0.306,1.265-0.495,1.755l-0.284-0.105l0.81,4.47V19.454z"/>
	<path fill="#231F20" d="M19.403,19.454h-4.32v-2.04h3.57c-0.12-0.45-0.21-0.735-0.27-0.855c-0.051-0.08-0.221-0.314-0.51-0.704
		l0.614-1.741c0.399,0.571,0.646,1.026,0.735,1.366c0.119,0.439,0.18,1.225,0.18,2.354V19.454z M19.328,11.429l-0.796,1.53
		l-1.079-0.585l-0.615,1.17l-1.396-0.735l0.78-1.485l1.109,0.54l0.601-1.2L19.328,11.429z M17.887,9.614l-0.764,1.56l-1.426-0.75
		l0.78-1.53L17.887,9.614z"/>
	<path fill="#231F20" d="M25.612,19.454c-0.449-0.021-0.955-0.115-1.514-0.285c-0.101-0.03-0.75-0.245-1.951-0.646
		c-0.369,0.471-0.645,0.735-0.824,0.795c-0.291,0.101-1.045,0.146-2.266,0.136v-2.04c1.34,0,2.29-0.26,2.851-0.78
		c0.13-0.12,0.415-0.6,0.854-1.439c0.271-0.521,0.725-0.78,1.365-0.78c0.26,0,0.572,0.42,0.938,1.26s0.547,1.551,0.547,2.13V19.454z
		 M24.233,17.158c0-0.079-0.096-0.254-0.285-0.524c-0.23-0.319-0.455-0.479-0.676-0.479c-0.16,0-0.314,0.229-0.465,0.689
		c0.711,0.301,1.12,0.45,1.23,0.45C24.167,17.294,24.233,17.249,24.233,17.158z"/>
</g>
</svg>
