<?xml version="1.0" encoding="utf-8"?>
<!-- Generator: Adobe Illustrator 16.0.0, SVG Export Plug-In . SVG Version: 6.00 Build 0)  -->
<!DOCTYPE svg PUBLIC "-//W3C//DTD SVG 1.1//EN" "http://www.w3.org/Graphics/SVG/1.1/DTD/svg11.dtd">
<svg version="1.1" id="Layer_1" xmlns="http://www.w3.org/2000/svg" xmlns:xlink="http://www.w3.org/1999/xlink" x="0px" y="0px"
	 width="35.548px" height="35.549px" viewBox="0 0 35.548 35.549" enable-background="new 0 0 35.548 35.549" xml:space="preserve">
<g>
	<g>
		<g>
			<g>
				<g>
					<g>
						<radialGradient id="SVGID_1_" cx="17.7744" cy="17.7754" r="17.7739" gradientUnits="userSpaceOnUse">
							<stop  offset="0" style="stop-color:#000000;stop-opacity:0.1"/>
							<stop  offset="1" style="stop-color:#000000;stop-opacity:0.0969"/>
						</radialGradient>
						<path fill-rule="evenodd" clip-rule="evenodd" fill="url(#SVGID_1_)" d="M17.774,35.55C7.974,35.55,0,27.575,0,17.776
							C0,7.976,7.974,0.001,17.774,0.001c9.8,0,17.773,7.975,17.773,17.775C35.548,27.575,27.574,35.55,17.774,35.55z"/>
						<path fill-rule="evenodd" clip-rule="evenodd" fill="#FFFFFF" d="M17.774,35.04c-9.521,0-17.265-7.744-17.265-17.264
							c0-9.521,7.744-17.266,17.265-17.266c9.52,0,17.265,7.744,17.265,17.266C35.039,27.296,27.294,35.04,17.774,35.04z"/>
						<radialGradient id="SVGID_2_" cx="22.0146" cy="25.8428" r="16.2436" gradientUnits="userSpaceOnUse">
							<stop  offset="0" style="stop-color:#000000;stop-opacity:0.1"/>
							<stop  offset="1" style="stop-color:#000000;stop-opacity:0.0969"/>
						</radialGradient>
						<path fill-rule="evenodd" clip-rule="evenodd" fill="url(#SVGID_2_)" d="M17.774,34.53c-9.239,0-16.755-7.516-16.755-16.754
							c0-9.24,7.516-16.756,16.755-16.756c9.238,0,16.754,7.516,16.754,16.756C34.528,27.015,27.013,34.53,17.774,34.53z"/>
						<radialGradient id="SVGID_3_" cx="21.9502" cy="25.7207" r="15.9975" gradientUnits="userSpaceOnUse">
							<stop  offset="0.0039" style="stop-color:#53C5CE"/>
							<stop  offset="0.1992" style="stop-color:#4ABACE"/>
							<stop  offset="0.5435" style="stop-color:#339CCC"/>
							<stop  offset="0.9936" style="stop-color:#0D6DCA"/>
							<stop  offset="1" style="stop-color:#0C6CCA"/>
						</radialGradient>
						<circle fill-rule="evenodd" clip-rule="evenodd" fill="url(#SVGID_3_)" cx="17.774" cy="17.776" r="16.5"/>
						<radialGradient id="SVGID_4_" cx="23.0938" cy="5.8535" r="20.131" gradientUnits="userSpaceOnUse">
							<stop  offset="0.0039" style="stop-color:#53C5CE"/>
							<stop  offset="0.1992" style="stop-color:#4ABACE"/>
							<stop  offset="0.5435" style="stop-color:#339CCC"/>
							<stop  offset="0.9936" style="stop-color:#0D6DCA"/>
							<stop  offset="1" style="stop-color:#0C6CCA"/>
						</radialGradient>
						<path fill-rule="evenodd" clip-rule="evenodd" fill="url(#SVGID_4_)" d="M17.469,2.294c9.113,0,16.5,7.389,16.5,16.5
							c0,1.447-0.188,2.852-0.538,4.189c0.545-1.639,0.844-3.389,0.844-5.207c0-9.113-7.388-16.502-16.5-16.502
							c-7.665,0-14.11,5.229-15.963,12.313C3.992,7.026,10.176,2.294,17.469,2.294z"/>
						<radialGradient id="SVGID_5_" cx="23.5791" cy="26.9424" r="22.6406" gradientUnits="userSpaceOnUse">
							<stop  offset="0" style="stop-color:#FFFFFF;stop-opacity:0.5"/>
							<stop  offset="1" style="stop-color:#FFFFFF;stop-opacity:0"/>
						</radialGradient>
						<path fill-rule="evenodd" clip-rule="evenodd" fill="url(#SVGID_5_)" d="M1.273,17.776c0,4.174,1.555,7.984,4.111,10.891
							c13.061-0.148,23.593-8.705,23.593-19.244c0-1.475-0.213-2.908-0.604-4.291c-2.867-2.406-6.564-3.857-10.6-3.857
							C8.662,1.274,1.273,8.663,1.273,17.776z"/>
						<radialGradient id="SVGID_6_" cx="7.2832" cy="5.8574" r="25.0768" gradientUnits="userSpaceOnUse">
							<stop  offset="0" style="stop-color:#000000;stop-opacity:0.1"/>
							<stop  offset="1" style="stop-color:#000000;stop-opacity:0.0969"/>
						</radialGradient>
						<path fill-rule="evenodd" clip-rule="evenodd" fill="url(#SVGID_6_)" d="M2.293,18.896c0-9.113,7.387-16.5,16.5-16.5
							c4.566,0,8.701,1.857,11.688,4.855c-3.026-3.65-7.596-5.977-12.707-5.977c-9.112,0-16.501,7.389-16.501,16.502
							c0,4.545,1.838,8.658,4.813,11.643C3.717,26.563,2.293,22.896,2.293,18.896z"/>
						<radialGradient id="SVGID_7_" cx="8.2178" cy="6.8955" r="24.6743" gradientUnits="userSpaceOnUse">
							<stop  offset="0" style="stop-color:#FFFFFF;stop-opacity:0.2"/>
							<stop  offset="1" style="stop-color:#FFFFFF;stop-opacity:0"/>
						</radialGradient>
						<path fill-rule="evenodd" clip-rule="evenodd" fill="url(#SVGID_7_)" d="M29.734,6.415c0.257,0.271,0.509,0.549,0.747,0.836
							c-2.987-2.998-7.122-4.855-11.688-4.855c-9.113,0-16.5,7.387-16.5,16.5c0,3.773,1.269,7.252,3.401,10.031
							c0.317,0.383,0.651,0.752,1.002,1.104c-2.369-2.855-3.793-6.521-3.793-10.523c0-9.113,7.388-16.5,16.501-16.5
							c4.567,0,8.7,1.857,11.688,4.855C30.67,7.353,30.214,6.872,29.734,6.415z"/>
						<radialGradient id="SVGID_8_" cx="23.3535" cy="26.9365" r="14.0306" gradientUnits="userSpaceOnUse">
							<stop  offset="0" style="stop-color:#000000;stop-opacity:0.1"/>
							<stop  offset="1" style="stop-color:#000000;stop-opacity:0.0969"/>
						</radialGradient>
						<path fill-rule="evenodd" clip-rule="evenodd" fill="url(#SVGID_8_)" d="M29.292,5.966c2.349,2.85,3.76,6.502,3.76,10.484
							c0,9.113-7.387,16.5-16.501,16.5c-4.481,0-8.543-1.789-11.518-4.689c3.026,3.672,7.61,6.016,12.741,6.016
							c9.112,0,16.5-7.389,16.5-16.502C34.274,13.146,32.362,8.962,29.292,5.966z"/>
						<radialGradient id="SVGID_9_" cx="22.2842" cy="25.7432" r="13.8159" gradientUnits="userSpaceOnUse">
							<stop  offset="0" style="stop-color:#FFFFFF;stop-opacity:0.2"/>
							<stop  offset="1" style="stop-color:#FFFFFF;stop-opacity:0"/>
						</radialGradient>
						<path fill-rule="evenodd" clip-rule="evenodd" fill="url(#SVGID_9_)" d="M5.034,28.261c2.974,2.9,7.036,4.689,11.518,4.689
							c9.113,0,16.5-7.385,16.5-16.5c0-3.715-1.23-7.146-3.305-9.904c-0.398-0.488-0.82-0.957-1.271-1.395
							c2.351,2.85,3.761,6.502,3.761,10.484c0,9.113-7.388,16.502-16.5,16.502c-4.482,0-8.545-1.791-11.519-4.691
							c0.449,0.545,0.938,1.057,1.451,1.539C5.452,28.751,5.238,28.511,5.034,28.261z"/>
					</g>
					<g>
						<radialGradient id="SVGID_10_" cx="23.4775" cy="-4.4287" r="33.1684" gradientUnits="userSpaceOnUse">
							<stop  offset="0" style="stop-color:#FFFFFF;stop-opacity:0.5"/>
							<stop  offset="1" style="stop-color:#FFFFFF;stop-opacity:0"/>
						</radialGradient>
						<path fill-rule="evenodd" clip-rule="evenodd" fill="url(#SVGID_10_)" d="M5.552,18.794c-0.407-4.074,2.647-8.76,5.501-11.205
							c2.036-1.832,15.277-6.109,12.222,1.02c-0.816,2.24-8.556,7.129-10.797,8.76c-1.63,1.221-7.944,5.5-6.722-0.408"/>
					</g>
				</g>
			</g>
		</g>
	</g>
	<g>
		<g>
			
				<radialGradient id="SVGID_11_" cx="-11044.8496" cy="-6976.3672" r="29.1848" gradientTransform="matrix(-0.445 0 0 0.445 -4900.6602 3132.896)" gradientUnits="userSpaceOnUse">
				<stop  offset="0" style="stop-color:#FFF588"/>
				<stop  offset="0.3132" style="stop-color:#FFF350"/>
				<stop  offset="1" style="stop-color:#FAA919"/>
			</radialGradient>
			<path fill="url(#SVGID_11_)" d="M18.043,29.233c1.368,0,2.48-1.113,2.48-2.48c0-1.369-1.112-2.482-2.48-2.482
				s-2.481,1.113-2.481,2.482C15.562,28.12,16.675,29.233,18.043,29.233z"/>
			<path fill="#D88119" d="M18.043,24.493c1.245,0,2.259,1.014,2.259,2.26c0,1.244-1.014,2.258-2.259,2.258
				s-2.259-1.014-2.259-2.258C15.784,25.507,16.798,24.493,18.043,24.493 M18.043,24.048c-1.493,0-2.704,1.211-2.704,2.705
				c0,1.492,1.211,2.703,2.704,2.703c1.492,0,2.703-1.211,2.703-2.703C20.746,25.259,19.535,24.048,18.043,24.048L18.043,24.048z"/>
		</g>
		<g>
			<g>
				
					<radialGradient id="SVGID_12_" cx="-11044.3311" cy="-6976.9814" r="30.8025" gradientTransform="matrix(-0.445 0 0 0.445 -4900.6602 3132.896)" gradientUnits="userSpaceOnUse">
					<stop  offset="0" style="stop-color:#FFF588"/>
					<stop  offset="0.3132" style="stop-color:#FFF350"/>
					<stop  offset="1" style="stop-color:#FAA919"/>
				</radialGradient>
				<path fill="url(#SVGID_12_)" d="M20.448,22.013v-0.07c0-0.859-0.096-1.557-0.285-2.076c-0.188-0.518-0.471-0.996-0.842-1.42
					c-0.394-0.453-1.309-1.275-2.721-2.445c-0.887-0.721-1.318-1.4-1.318-2.078c0-0.65,0.205-1.174,0.609-1.555
					c0.395-0.371,0.973-0.559,1.718-0.559c0.797,0,1.47,0.271,2.001,0.805c0.452,0.459,0.752,1.158,0.912,2.137l4.586-0.566
					c-0.238-1.697-0.916-3.092-2.014-4.146c-1.186-1.143-3.061-1.721-5.57-1.721c-1.959,0-3.551,0.408-4.732,1.211
					c-1.601,1.08-2.379,2.477-2.379,4.268c0,0.713,0.202,1.416,0.601,2.09c0.411,0.691,1.29,1.57,2.612,2.609
					c1.018,0.807,1.649,1.449,1.932,1.967c0.23,0.422,0.369,0.943,0.415,1.551H20.448z"/>
				<path fill="#D88119" d="M17.524,8.54c2.451,0,4.273,0.559,5.416,1.658c1.013,0.975,1.654,2.248,1.914,3.793l-4.15,0.514
					c-0.176-0.918-0.484-1.588-0.936-2.047c-0.574-0.578-1.301-0.871-2.159-0.871c-0.804,0-1.433,0.209-1.87,0.619
					c-0.451,0.424-0.68,1.002-0.68,1.717c0,0.748,0.459,1.484,1.402,2.252c1.744,1.445,2.426,2.111,2.69,2.416
					c0.354,0.406,0.624,0.859,0.802,1.352c0.17,0.465,0.261,1.086,0.271,1.85h-4.051c-0.062-0.555-0.203-1.035-0.423-1.436
					c-0.3-0.553-0.931-1.199-1.987-2.035c-1.301-1.023-2.162-1.881-2.561-2.551c-0.377-0.637-0.568-1.301-0.568-1.975
					c0-1.711,0.746-3.047,2.281-4.084C14.062,8.935,15.611,8.54,17.524,8.54 M17.524,8.095c-2.004,0-3.638,0.42-4.857,1.25
					C11,10.47,10.19,11.927,10.19,13.796c0,0.754,0.214,1.496,0.632,2.203c0.427,0.719,1.326,1.617,2.667,2.672
					c0.992,0.785,1.604,1.406,1.873,1.898c0.24,0.439,0.375,1,0.4,1.666h4.908v-0.293c0-0.887-0.1-1.609-0.299-2.152
					c-0.196-0.541-0.492-1.043-0.884-1.49c-0.397-0.459-1.321-1.291-2.745-2.469c-0.833-0.678-1.238-1.303-1.238-1.908
					c0-0.586,0.182-1.055,0.539-1.393c0.352-0.33,0.879-0.498,1.565-0.498c0.736,0,1.356,0.25,1.843,0.74
					c0.448,0.453,0.738,1.184,0.882,2.227l5.024-0.621c-0.217-1.848-0.926-3.361-2.109-4.5C22.021,8.696,20.097,8.095,17.524,8.095
					L17.524,8.095z"/>
			</g>
			<g>
				<g>
					
						<linearGradient id="SVGID_13_" gradientUnits="userSpaceOnUse" x1="-11056.6963" y1="-7023.937" x2="-11043.6963" y2="-6970.9375" gradientTransform="matrix(-0.445 0 0 0.445 -4900.6602 3132.896)">
						<stop  offset="0" style="stop-color:#FFFFFF"/>
						<stop  offset="1" style="stop-color:#000000"/>
					</linearGradient>
					<path fill="url(#SVGID_13_)" d="M22.495,10.644c-1.143-1.1-2.965-1.656-5.417-1.656c-1.913,0-3.464,0.393-4.606,1.17
						c-0.254,0.172-0.479,0.354-0.688,0.541c0.315-0.354,0.687-0.684,1.134-0.986c1.143-0.777,2.692-1.172,4.607-1.172
						c2.451,0,4.273,0.559,5.416,1.658c1.013,0.975,1.655,2.248,1.914,3.793l-0.523,0.064
						C24.036,12.683,23.423,11.536,22.495,10.644z"/>
					
						<linearGradient id="SVGID_14_" gradientUnits="userSpaceOnUse" x1="-11057.6797" y1="-7023.6982" x2="-11044.6777" y2="-6970.6895" gradientTransform="matrix(-0.445 0 0 0.445 -4900.6602 3132.896)">
						<stop  offset="0" style="stop-color:#FFFFFF"/>
						<stop  offset="1" style="stop-color:#000000"/>
					</linearGradient>
					<path fill="url(#SVGID_14_)" d="M19.509,20.39c-0.178-0.492-0.447-0.945-0.801-1.352c-0.264-0.305-0.943-0.971-2.694-2.42
						c-0.94-0.766-1.398-1.5-1.398-2.248c0-0.719,0.229-1.295,0.679-1.717c0.053-0.051,0.117-0.088,0.176-0.131
						c-0.27,0.379-0.41,0.848-0.41,1.402c0,0.746,0.459,1.482,1.398,2.248c1.751,1.449,2.432,2.117,2.695,2.42
						c0.354,0.404,0.623,0.859,0.802,1.35c0.169,0.463,0.259,1.084,0.27,1.85h-0.464C19.727,21.229,19.644,20.757,19.509,20.39z"/>
				</g>
				
					<linearGradient id="SVGID_15_" gradientUnits="userSpaceOnUse" x1="-11063.8105" y1="-7022.1948" x2="-11050.8086" y2="-6969.1885" gradientTransform="matrix(-0.445 0 0 0.445 -4900.6602 3132.896)">
					<stop  offset="0" style="stop-color:#FFFFFF"/>
					<stop  offset="1" style="stop-color:#000000"/>
				</linearGradient>
				<path fill="url(#SVGID_15_)" d="M19.856,27.198c0-1.246-1.014-2.26-2.26-2.26c-0.508,0-0.973,0.176-1.352,0.461
					c0.412-0.547,1.062-0.906,1.798-0.906c1.245,0,2.259,1.014,2.259,2.26c0,0.736-0.359,1.385-0.906,1.797
					C19.681,28.171,19.856,27.706,19.856,27.198z"/>
			</g>
			
				<linearGradient id="SVGID_16_" gradientUnits="userSpaceOnUse" x1="-11066.9941" y1="-7037.8545" x2="-11040.0449" y2="-6986.4082" gradientTransform="matrix(-0.445 0 0 0.445 -4900.6602 3132.896)">
				<stop  offset="0" style="stop-color:#FFFFFF;stop-opacity:0"/>
				<stop  offset="1" style="stop-color:#FFFFFF"/>
			</linearGradient>
			<path fill="url(#SVGID_16_)" d="M19.768,12.458c-0.573-0.578-1.299-0.871-2.158-0.871c-0.804,0-1.433,0.209-1.87,0.621
				c-0.451,0.422-0.68,0.998-0.68,1.717c0,0.746,0.459,1.482,1.398,2.248c1.521,1.258,2.233,1.926,2.567,2.279
				c-1.642-0.49-3.382-0.918-5.196-1.264c-0.572-0.107-1.138-0.203-1.699-0.293c-0.419-0.418-0.729-0.795-0.924-1.125
				c-0.38-0.637-0.571-1.303-0.571-1.975c0-1.711,0.746-3.047,2.282-4.084c1.143-0.777,2.692-1.172,4.607-1.172
				c2.451,0,4.273,0.559,5.416,1.658c1.013,0.975,1.655,2.248,1.914,3.793l-4.15,0.514C20.528,13.589,20.22,12.917,19.768,12.458z"
				/>
		</g>
	</g>
</g>
</svg>
