<?xml version="1.0" encoding="utf-8"?>
<!-- Generator: Adobe Illustrator 16.0.0, SVG Export Plug-In . SVG Version: 6.00 Build 0)  -->
<!DOCTYPE svg PUBLIC "-//W3C//DTD SVG 1.1//EN" "http://www.w3.org/Graphics/SVG/1.1/DTD/svg11.dtd">
<svg version="1.1" id="Layer_1" xmlns="http://www.w3.org/2000/svg" xmlns:xlink="http://www.w3.org/1999/xlink" x="0px" y="0px"
	 width="191.416px" height="56.973px" viewBox="0 0 191.416 56.973" enable-background="new 0 0 191.416 56.973"
	 xml:space="preserve">
<g>
	<g opacity="0.3">
		<path d="M20.466,19.509c1.836,0,3.264-1.428,3.264-3.264s-1.428-3.264-3.264-3.264s-3.332,1.428-3.332,3.264
			S18.63,19.509,20.466,19.509z"/>
		<path d="M41.611,23.113h-1.836v12.375c-0.203,3.671-1.972,5.1-5.167,5.1h-21.69c-6.119,0-7.683-6.8-7.683-10.472
			c0-6.867,4.827-9.995,4.827-9.995H7.751C3.875,20.121,0,23.044,0,31.339c0,7.072,4.352,15.027,12.851,15.027
			c0.136,0,0.271,0,0.544-0.068h22.71c7.479-0.476,9.519-6.663,9.519-13.123v-5.507C45.623,24.405,44.671,23.113,41.611,23.113z"/>
		<path d="M28.285,19.509c1.699,0,3.264-1.428,3.264-3.264s-1.564-3.264-3.264-3.264c-1.904,0-3.4,1.428-3.4,3.264
			S26.381,19.509,28.285,19.509z"/>
		<path d="M103.698,50.446c-1.836,0-3.332,1.428-3.332,3.264s1.496,3.264,3.332,3.264s3.264-1.428,3.264-3.264
			S105.534,50.446,103.698,50.446z"/>
		<path d="M111.518,50.446c-1.904,0-3.4,1.428-3.4,3.264s1.496,3.264,3.4,3.264c1.699,0,3.264-1.428,3.264-3.264
			S113.217,50.446,111.518,50.446z"/>
		<path d="M180.333,19.509c1.836,0,3.264-1.428,3.264-3.264s-1.428-3.264-3.264-3.264s-3.332,1.428-3.332,3.264
			S178.497,19.509,180.333,19.509z"/>
		<path d="M183.528,23.113h-1.835v12.375c-0.204,3.671-1.973,5.1-5.168,5.1h-2.928c-0.543,0-0.981,0-1.355,0
			c-2.389,0-1.903,0-5.783,0c-1.428,0-4.556-0.204-6.12-1.156c4.76-3.943,9.044-11.491,10.472-14.959
			c-3.128-1.699-7.819-6.799-15.707-6.799c-6.255,0-10.879,4.42-16.114,6.731c0,1.836-0.34,4.691-0.34,5.779
			c3.06,0.748,8.567,4.352,11.763,8.771c-0.952,0.885-3.808,1.633-5.848,1.633h-8.5h-1.019h-0.545c-3.128,0-5.031-1.36-5.168-4.76
			V9.854c0-3.264-0.951-4.556-4.011-4.556h-1.836v30.189c-0.204,3.671-1.973,5.1-5.168,5.1h-0.206h-1.357h-0.206
			c-3.128,0-5.031-1.36-5.168-4.76v-8.159c0-3.264-0.951-4.556-4.012-4.556h-1.835v12.375c-0.202,3.639-1.945,5.07-5.09,5.095
			c-5.807-0.05-6.813-2.305-6.813-8.087c0-9.314-5.1-14.891-12.442-14.891c-7.888,0-12.919,5.644-12.919,14.891
			c0,5.613-0.954,7.9-6.322,8.075c-3.153-0.088-4.898-1.656-4.898-5.355V9.854c0-3.264-0.952-4.556-4.012-4.556h-1.836v30.189
			c0,6.204,3.215,10.37,9.18,10.781v0.029h0.34h0.068c0.271,0.068,0.408,0.068,0.544,0.068c4.896,0,8.159-1.36,10.267-4.216
			c2.313,2.651,5.644,4.283,9.588,4.283c3.807,0,7.003-1.428,9.179-4.147c1.9,2.571,4.513,3.613,8.435,3.907v0.104h3.06
			c2.788-0.136,4.964-1.02,6.595-2.584c1.564,1.564,3.809,2.448,6.596,2.584h1.702h1.357h1.702c2.787-0.136,4.963-1.02,6.596-2.584
			c1.563,1.564,3.807,2.448,6.595,2.584h2.041h1.019h6.597c7.071,0,11.491-2.38,12.986-3.672c7.071,4.147,9.655,3.672,14.755,3.672
			h1.84h1.355h4.424c7.479-0.476,9.519-6.663,9.519-13.123v-5.507C187.54,24.405,186.588,23.113,183.528,23.113z M81.597,40.927
			c-4.963,0-7.751-3.672-7.751-9.384c0-5.235,2.651-8.431,6.731-8.431c4.827,0,7.479,3.195,7.479,9.314
			C88.057,37.391,85.744,40.927,81.597,40.927z M155.716,36.032c-3.808-2.176-7.071-7.004-11.151-9.044
			c1.496-0.68,5.439-4.079,11.423-4.079c2.584,0,5.576,0.748,8.907,2.448C161.768,29.708,159.184,33.175,155.716,36.032z"/>
		<path d="M188.152,12.982c-1.904,0-3.399,1.428-3.399,3.264s1.495,3.264,3.399,3.264c1.699,0,3.264-1.428,3.264-3.264
			S189.852,12.982,188.152,12.982z"/>
	</g>
	<g>
		<g>
			<path fill="#FFFFFF" d="M36.104,41h-22.71c-0.272,0.068-0.408,0.068-0.544,0.068C4.352,41.068,0,33.113,0,26.041
				c0-8.295,3.875-11.219,7.751-11.219h2.312c0,0-4.827,3.128-4.827,9.995c0,3.672,1.563,10.471,7.683,10.471h21.69
				c3.195,0,4.964-1.428,5.167-5.1V17.814h1.836c3.06,0,4.012,1.292,4.012,4.556v5.507C45.623,34.337,43.583,40.525,36.104,41z
				 M17.134,10.947c0-1.836,1.496-3.264,3.332-3.264s3.264,1.428,3.264,3.264s-1.428,3.264-3.264,3.264S17.134,12.783,17.134,10.947
				z M24.885,10.947c0-1.836,1.496-3.264,3.4-3.264c1.699,0,3.264,1.428,3.264,3.264s-1.564,3.264-3.264,3.264
				C26.381,14.211,24.885,12.783,24.885,10.947z"/>
			<path fill="#FFFFFF" d="M57.051,29.917c0,3.807,1.836,5.371,5.167,5.371h0.884V41h-2.379c-6.188-0.271-9.52-4.486-9.52-10.811V0
				h1.836c3.06,0,4.012,1.292,4.012,4.556V29.917z"/>
			<path fill="#FFFFFF" d="M101.519,35.289V41c-5.507,0-8.839-0.883-11.15-4.012c-2.176,2.721-5.372,4.148-9.179,4.148
				c-3.944,0-7.275-1.633-9.588-4.283c-2.107,2.855-5.371,4.215-10.267,4.215c-0.136,0-0.272,0-0.544-0.068h-0.408v-5.711h0.884
				c5.983,0,7.004-2.244,7.004-8.091c0-9.247,5.031-14.891,12.919-14.891c7.343,0,12.442,5.576,12.442,14.891
				c0,5.847,1.02,8.091,7.003,8.091H101.519z M88.057,27.129c0-6.119-2.652-9.314-7.479-9.314c-4.08,0-6.731,3.195-6.731,8.431
				c0,5.711,2.788,9.383,7.751,9.383C85.744,35.628,88.057,32.093,88.057,27.129z"/>
			<path fill="#FFFFFF" d="M111.381,30.529c0.137,3.4,2.04,4.76,5.168,4.76h1.563V41h-3.06c-2.787-0.135-5.031-1.02-6.596-2.584
				c-1.631,1.564-3.807,2.449-6.595,2.584h-3.06v-5.711h1.563c3.196,0,4.964-1.428,5.168-5.1V17.814h1.835
				c3.061,0,4.012,1.292,4.012,4.556V30.529z M100.366,48.412c0-1.836,1.496-3.264,3.332-3.264s3.264,1.428,3.264,3.264
				s-1.428,3.264-3.264,3.264S100.366,50.248,100.366,48.412z M108.117,48.412c0-1.836,1.496-3.264,3.4-3.264
				c1.699,0,3.264,1.428,3.264,3.264s-1.564,3.264-3.264,3.264C109.613,51.675,108.117,50.248,108.117,48.412z"/>
			<path fill="#FFFFFF" d="M129.333,30.529c0.137,3.4,2.04,4.76,5.168,4.76h1.563V41h-3.06c-2.788-0.135-5.031-1.02-6.595-2.584
				c-1.633,1.564-3.809,2.449-6.596,2.584h-3.06v-5.711h1.563c3.195,0,4.964-1.428,5.168-5.1V0h1.836
				c3.06,0,4.011,1.292,4.011,4.556V30.529z"/>
			<path fill="#FFFFFF" d="M173.598,41h-3.195c-5.1,0-7.684,0.477-14.755-3.672C154.152,38.621,149.732,41,142.661,41h-7.615v-5.711
				h9.519c2.04,0,4.896-0.748,5.848-1.633c-3.195-4.418-8.703-8.022-11.763-8.77c0-1.088,0.34-3.943,0.34-5.779
				c5.235-2.312,9.859-6.731,16.114-6.731c7.888,0,12.579,5.1,15.707,6.799c-1.428,3.468-5.712,11.015-10.472,14.958
				c1.564,0.953,4.692,1.156,6.12,1.156c4.487,0,3.127,0,7.139,0V41z M155.716,30.734c3.468-2.857,6.052-6.324,9.179-10.675
				c-3.331-1.7-6.323-2.448-8.907-2.448c-5.983,0-9.927,3.399-11.423,4.079C148.645,23.729,151.908,28.558,155.716,30.734z"/>
			<path fill="#FFFFFF" d="M178.021,41h-5.779v-5.711h4.283c3.195,0,4.964-1.428,5.168-5.1V17.814h1.835
				c3.06,0,4.012,1.292,4.012,4.556v5.507C187.54,34.337,185.5,40.525,178.021,41z M177.001,10.947c0-1.836,1.496-3.264,3.332-3.264
				s3.264,1.428,3.264,3.264s-1.428,3.264-3.264,3.264S177.001,12.783,177.001,10.947z M184.753,10.947
				c0-1.836,1.495-3.264,3.399-3.264c1.699,0,3.264,1.428,3.264,3.264s-1.564,3.264-3.264,3.264
				C186.248,14.211,184.753,12.783,184.753,10.947z"/>
		</g>
	</g>
</g>
</svg>
