<?xml version="1.0" encoding="utf-8"?>
<!-- Generator: Adobe Illustrator 16.0.0, SVG Export Plug-In . SVG Version: 6.00 Build 0)  -->
<!DOCTYPE svg PUBLIC "-//W3C//DTD SVG 1.1//EN" "http://www.w3.org/Graphics/SVG/1.1/DTD/svg11.dtd">
<svg version="1.1" id="Layer_1" xmlns="http://www.w3.org/2000/svg" xmlns:xlink="http://www.w3.org/1999/xlink" x="0px" y="0px"
	 width="358.266px" height="70.994px" viewBox="0 0 358.266 70.994" enable-background="new 0 0 358.266 70.994"
	 xml:space="preserve">
<g>
	<g opacity="0.3">
		<path d="M51.972,28.667h-6.206c-31.82,0-11.423,33.232-27.333,33.232C6.466,61.763,5.455,56.214,5.455,49.619
			c0-3.672,2.517-8.541,5.517-9.969v-0.205l-2.524-0.271c-5.916,0-8.402,4.623-8.402,11.016c0,9.994,4.911,17.27,18.101,17.27
			c24.75,0,1.825-32.637,27.825-32.637v22.846h2.65c1.359,0,3.35-1.156,3.35-3.06V28.667z"/>
		<path d="M86.706,23.943c1.836,0,3.331-1.496,3.331-3.4c0-1.768-1.495-3.195-3.331-3.195s-3.196,1.428-3.196,3.195
			C83.51,22.447,84.87,23.943,86.706,23.943z"/>
		<path d="M86.176,28.771c-8.228,0-11.205,3.875-11.205,7.75v2.381c0,0,2.501-4.429,9.981-4.429
			c9.043,0,11.953,11.194,12.292,17.194H72.832h-1.696h-1.907c-1.292,0-2.257,0.084-3.257-0.323V38.969
			c0-3.264-0.755-4.302-3.814-4.302h-2.186v17.017c0,8.907,0.964,13.395-6.448,13.395c-0.544,0-0.552-0.067-1.552-0.136v1.564
			c0,1.971,2.105,3.127,4.893,3.127c5.371,0,9.107-4.147,9.107-8.635c0-0.748,0-2.107,0-2.992c0-0.203-0.037-0.34,0.031-0.544
			c0.544,0.136,1.05,0.204,1.73,0.204h3.402h1.696h19.857c7.547,0,10.335,4.352,10.335,4.352c0.204-1.972,0.347-4.147,0.347-6.527
			C103.371,43.729,99.979,28.771,86.176,28.771z"/>
		<path d="M113.975,16.667h-3.003v36.92c0,2.855,1.779,4.08,3.955,4.08h2.045V19.455C116.972,17.823,115.402,16.667,113.975,16.667z
			"/>
		<path d="M112.751,9.17c0-2.313,1.155-2.643,1.836-2.643c0.407,0,2.243,0.141,3.331,2.861c0-0.68,0.68-1.358,0.68-2.174
			c-0.407-1.7-1.972-2.718-3.808-2.718c-2.72,0-4.487,2.04-4.487,4.896c0,0.748,0,1.341,0.272,1.885l0.203,0.39h-2.807v1.125
			c0,0.612,0.903,0.875,1.719,0.875h8.228c0.884,0,1.054-0.264,1.054-0.875v-1.125h-5.405
			C112.818,10.667,112.751,10.19,112.751,9.17z"/>
		<path d="M154.501,28.771c-8.907,0-13.667,6.663-13.667,14.891c0,7.41,4.76,14.006,13.055,14.006
			c8.907,0,13.734-5.711,13.734-14.006C167.623,36.318,162.796,28.771,154.501,28.771z M154.024,52.636
			c-5.1,0-7.411-4.352-7.411-8.907c0-5.032,2.04-9.791,7.888-9.791c4.352,0,7.411,3.943,7.411,8.771
			C161.912,49.236,159.872,52.636,154.024,52.636z"/>
		<path d="M149.877,24.011c1.836,0,3.264-1.428,3.264-3.264s-1.428-3.264-3.264-3.264s-3.331,1.428-3.331,3.264
			S148.041,24.011,149.877,24.011z"/>
		<path d="M158.376,24.011c1.7,0,3.264-1.428,3.264-3.264s-1.563-3.264-3.264-3.264c-1.903,0-3.399,1.428-3.399,3.264
			S156.473,24.011,158.376,24.011z"/>
		<path d="M205.907,28.975c-7.887,0-12.919,5.499-12.919,14.746c0,5.848-1.02,7.947-7.003,7.947h-2.244h-0.887
			c-1.292,0-1.883,0.084-2.883-0.323V38.969c0-3.264-1.129-4.302-4.188-4.302h-1.812v17.017c0,8.907,0.963,13.395-6.448,13.395
			c-0.544,0-1.552-0.067-1.552-0.136v1.564c0,1.971,1.605,3.127,4.392,3.127c5.372,0,8.608-4.147,8.608-8.635
			c0-0.748,0-2.107,0-2.992c0-0.203,0.276-0.34,0.344-0.544c0.544,0.136,1.363,0.204,2.042,0.204h2.383h1.768
			c0.272,0.068,0.408,0.068,0.545,0.068c4.895,0,8.158-1.36,10.267-4.216c2.312,2.651,5.644,4.284,9.587,4.284
			c7.547,0,12.442-5.645,12.442-15.027C218.35,34.55,213.251,28.975,205.907,28.975z M206.383,52.296
			c-4.963,0-7.751-3.672-7.751-9.383c0-5.236,2.652-8.432,6.731-8.432c4.827,0,7.479,3.195,7.479,9.314
			C212.843,48.76,210.53,52.296,206.383,52.296z"/>
		<path d="M278.972,21.223c0-3.264-0.783-4.556-3.844-4.556h-2.156v28.489c0,1.155,0.908,19.989-12.282,19.989
			c-9.791,0-12.97-7.547-12.97-13.938c0-3.536,2.252-8.16,5.252-9.383v-0.272l-2.453-0.204c-5.506,0-8.059,4.283-8.059,10.335
			c0,9.587,5.404,19.31,18.799,19.31c18.971,0,17.713-24.953,17.713-28.013V21.223z"/>
		<path d="M297.571,28.771c-7.888,0-12.919,5.644-12.919,14.891c0,11.762,11.15,13.802,19.446,14.006
			c-1.633,4.012-5.719,6.936-12.449,6.936c-1.359,0-2.678-0.137-3.678-0.408v2.244c0,2.379,2.453,3.127,5.514,3.127
			c8.363,0,14.248-4.895,16.22-11.354c0.407-1.36,1.208-5.712,1.208-10.743C310.913,38.969,308.518,28.771,297.571,28.771z
			 M304.778,51.957c-8.295,0-14.687-0.816-14.687-9.248c0-5.303,2.72-8.703,6.867-8.703
			C305.322,34.006,304.778,42.029,304.778,51.957z"/>
		<path d="M341.106,28.771c-8.229,0-11.135,3.875-11.135,7.75v2.381c0,0,2.432-4.429,9.91-4.429
			c9.043,0,11.883,11.194,12.223,17.194h-24.41h-0.884c-3.331,0-4.839-1.275-4.839-5.083V21.223c0-3.264-1.28-4.556-4.34-4.556
			h-1.66v30.189c0,6.322,3.156,10.539,9.344,10.811h0.68h1.699h19.854c7.547,0,10.335,4.352,10.335,4.352
			c0.204-1.972,0.382-4.147,0.382-6.527C358.266,43.729,354.909,28.771,341.106,28.771z"/>
	</g>
	<g>
		<g>
			<path fill="#FFFFFF" d="M51.606,24.273v25.837c0,1.904-1.632,3.06-2.991,3.06h-2.856V30.325
				c-25.905,0-2.991,32.637-27.741,32.637C4.827,62.961,0,55.686,0,45.691C0,39.3,2.447,34.676,8.363,34.676l2.447,0.272v0.204
				c-3.06,1.427-5.439,6.324-5.439,9.996c0,6.595,1.088,12.17,13.055,12.307c15.91,0-4.487-33.181,27.333-33.181H51.606z"/>
			<path fill="#FFFFFF" d="M65.891,52.966c-0.068,0.204-0.137,0.34-0.137,0.544c0,0.884,0,2.243,0,2.991
				c0,4.488-3.535,8.636-8.906,8.636c-2.788,0-4.692-1.155-4.692-3.128v-1.563c0.544,0.067,1.088,0.136,1.632,0.136
				c7.412,0,6.527-4.487,6.527-13.395v-17.27h1.836c3.06,0,4.012,1.292,4.012,4.555v12.375c0.816,0.408,1.768,0.611,3.06,0.611
				h3.604v5.712h-5.099C67.046,53.17,66.435,53.103,65.891,52.966z"/>
			<path fill="#FFFFFF" d="M103.357,50.995c0,2.38-0.136,4.556-0.34,6.527c0,0-2.788-4.352-10.335-4.352H71.129v-5.712h26.109
				c-0.34-6.051-3.264-17.338-12.307-17.338c-7.479,0-9.995,4.284-9.995,4.284v-2.38c0-3.875,2.991-7.751,11.219-7.751
				C99.958,24.273,103.357,39.232,103.357,50.995z M83.503,16.046c0-1.768,1.36-3.195,3.196-3.195s3.331,1.428,3.331,3.195
				c0,1.904-1.495,3.4-3.331,3.4S83.503,17.95,83.503,16.046z"/>
			<path fill="#FFFFFF" d="M109.684,9.587c-0.815,0-1.359-0.68-1.359-1.292V7.207h2.447l-0.203-0.408
				c-0.272-0.544-0.272-1.156-0.272-1.903c0-2.856,1.768-4.896,4.487-4.896c1.836,0,3.4,1.02,3.808,2.72
				c0,0.815-0.68,1.496-0.68,2.176c-1.088-2.72-2.924-2.856-3.331-2.856c-0.681,0-1.836,0.34-1.836,2.652
				c0,1.02,0.067,1.972,0.815,2.516h5.779v1.088c0,0.612-0.544,1.292-1.428,1.292H109.684z M114.92,53.17
				c-2.176,0-3.672-1.224-3.672-4.079V12.17h2.72c1.428,0,2.991,1.156,2.991,2.788V53.17H114.92z"/>
			<path fill="#FFFFFF" d="M167.616,39.164c0,8.295-4.827,14.007-13.734,14.007c-8.295,0-13.055-6.595-13.055-14.007
				c0-8.227,4.76-14.89,13.667-14.89C162.789,24.273,167.616,31.82,167.616,39.164z M146.539,16.25c0-1.836,1.495-3.264,3.331-3.264
				s3.264,1.428,3.264,3.264s-1.428,3.264-3.264,3.264S146.539,18.086,146.539,16.25z M161.905,38.212
				c0-4.828-3.06-8.771-7.411-8.771c-5.848,0-7.888,4.759-7.888,9.791c0,4.555,2.312,8.906,7.411,8.906
				C159.865,48.138,161.905,44.74,161.905,38.212z M154.97,16.25c0-1.836,1.496-3.264,3.399-3.264c1.7,0,3.264,1.428,3.264,3.264
				s-1.563,3.264-3.264,3.264C156.466,19.514,154.97,18.086,154.97,16.25z"/>
			<path fill="#FFFFFF" d="M179.517,52.966c-0.068,0.204-0.137,0.34-0.137,0.544c0,0.884,0,2.243,0,2.991
				c0,4.488-3.535,8.636-8.907,8.636c-2.787,0-4.691-1.155-4.691-3.128v-1.563c0.544,0.067,1.088,0.136,1.632,0.136
				c7.411,0,6.527-4.487,6.527-13.395v-17.27h1.836c3.06,0,4.012,1.292,4.012,4.555v12.375c0.816,0.408,1.768,0.611,3.06,0.611
				h3.604v5.712h-5.1C180.672,53.17,180.061,53.103,179.517,52.966z"/>
			<path fill="#FFFFFF" d="M218.343,38.28c0,9.384-4.896,15.026-12.442,15.026c-3.943,0-7.275-1.631-9.587-4.283
				c-2.108,2.855-5.372,4.215-10.267,4.215c-0.137,0-0.272,0-0.545-0.067h-1.768v-5.712h2.244c5.983,0,7.003-2.243,7.003-8.091
				c0-9.247,5.032-14.89,12.919-14.89C213.244,24.478,218.343,30.053,218.343,38.28z M212.836,39.3c0-6.12-2.652-9.315-7.479-9.315
				c-4.079,0-6.731,3.196-6.731,8.431c0,5.712,2.788,9.383,7.751,9.383C210.523,47.798,212.836,44.263,212.836,39.3z"/>
			<path fill="#FFFFFF" d="M279.133,38.484c0,3.06,1.156,28.014-17.814,28.014c-13.395,0-18.901-9.724-18.901-19.311
				c0-6.051,2.516-10.335,8.022-10.335l2.38,0.204v0.271c-3.06,1.225-5.099,5.848-5.099,9.383c0,6.393,3.331,13.939,13.122,13.939
				c13.19,0,12.442-18.834,12.442-19.99V12.17h1.836c3.061,0,4.012,1.292,4.012,4.556V38.484z"/>
			<path fill="#FFFFFF" d="M310.891,42.972c0,5.031-0.816,9.383-1.224,10.742c-1.972,6.459-7.888,11.355-16.251,11.355
				c-3.06,0-5.575-0.748-5.575-3.129v-2.243c1.088,0.272,2.38,0.407,3.739,0.407c6.731,0,10.879-2.923,12.512-6.935
				c-8.296-0.204-19.446-2.243-19.446-14.007c0-9.247,5.031-14.89,12.919-14.89C308.511,24.273,310.891,34.472,310.891,42.972z
				 M304.771,47.458c0-9.926,0.544-17.95-7.819-17.95c-4.147,0-6.867,3.399-6.867,8.704
				C290.085,46.643,296.477,47.458,304.771,47.458z"/>
			<path fill="#FFFFFF" d="M321.637,42.087c0,3.808,1.836,5.371,5.167,5.371h0.884v5.712h-2.379
				c-6.188-0.272-9.52-4.487-9.52-10.812V12.17h1.836c3.06,0,4.012,1.292,4.012,4.556V42.087z"/>
			<path fill="#FFFFFF" d="M358.217,50.995c0,2.38-0.136,4.556-0.34,6.527c0,0-2.788-4.352-10.335-4.352h-21.554v-5.712h26.109
				c-0.34-6.051-3.264-17.338-12.307-17.338c-7.479,0-9.995,4.284-9.995,4.284v-2.38c0-3.875,2.991-7.751,11.219-7.751
				C354.817,24.273,358.217,39.232,358.217,50.995z"/>
		</g>
	</g>
</g>
</svg>
