<?xml version="1.0" encoding="utf-8"?>
<!-- Generator: Adobe Illustrator 16.0.0, SVG Export Plug-In . SVG Version: 6.00 Build 0)  -->
<!DOCTYPE svg PUBLIC "-//W3C//DTD SVG 1.1//EN" "http://www.w3.org/Graphics/SVG/1.1/DTD/svg11.dtd">
<svg version="1.1" id="Layer_1" xmlns="http://www.w3.org/2000/svg" xmlns:xlink="http://www.w3.org/1999/xlink" x="0px" y="0px"
	 width="287px" height="100px" viewBox="0 0 287 100" enable-background="new 0 0 287 100" xml:space="preserve">
<g>
	<g>
		<path fill="#FFFFFF" d="M20.947,43.437c-10.361,0-12.536-5.842-12.536-10.742v-5.744c0-0.829,0.671-1.5,1.5-1.5h4.602
			c0.829,0,1.5,0.671,1.5,1.5v5.744c0,2.067,0.829,2.533,1.102,2.686c0.508,0.294,1.584,0.633,3.934,0.633h8.602
			c1.61,0,2.035-0.159,2.103-0.191c0.274-0.116,0.799-0.337,0.799-1.675v-7.163c0-0.829,0.671-1.5,1.5-1.5h4.6
			c0.829,0,1.5,0.671,1.5,1.5v9.507c0,4.284-2.734,6.946-7.135,6.946H20.947z M25.581,26.284c-0.417,0-0.794-0.17-1.066-0.445
			c-0.272,0.275-0.649,0.445-1.066,0.445H19.28c-0.829,0-1.5-0.671-1.5-1.5v-3.83c0-0.829,0.671-1.5,1.5-1.5h4.168
			c0.417,0,0.794,0.17,1.066,0.445c0.272-0.275,0.649-0.445,1.066-0.445h4.169c0.829,0,1.5,0.671,1.5,1.5v3.83
			c0,0.829-0.671,1.5-1.5,1.5H25.581z"/>
		<path fill="#FFFFFF" d="M29.75,20.955v3.83h-4.169v-3.83H29.75 M23.448,20.955v3.83H19.28v-3.83H23.448 M14.513,26.951v5.744
			c0,1.947,0.633,3.3,1.867,3.994c0.967,0.561,2.501,0.825,4.668,0.825h8.602c1.335,0,2.235-0.099,2.734-0.33
			c1.1-0.462,1.668-1.485,1.668-3.036v-7.163h4.6v9.507c0,3.432-2.031,5.446-5.635,5.446H20.947c-7.369,0-11.036-3.07-11.036-9.242
			v-5.744H14.513 M29.75,17.955h-4.169c-0.375,0-0.735,0.069-1.066,0.195c-0.332-0.126-0.691-0.195-1.066-0.195H19.28
			c-1.657,0-3,1.343-3,3v3.572c-0.496-0.362-1.107-0.576-1.768-0.576H9.911c-1.657,0-3,1.343-3,3v5.744
			c0,4.572,1.824,12.242,14.036,12.242h12.069c5.246,0,8.635-3.315,8.635-8.446v-9.507c0-1.657-1.343-3-3-3h-4.6
			c-0.466,0-0.908,0.106-1.302,0.296v-3.326C32.75,19.298,31.407,17.955,29.75,17.955L29.75,17.955z M21.048,34.514
			c-2.321,0-3.042-0.35-3.162-0.42c-0.238-0.134-0.373-0.688-0.373-1.399v-5.486c0.496,0.362,1.107,0.576,1.768,0.576h4.168
			c0.375,0,0.735-0.069,1.066-0.195c0.332,0.126,0.691,0.195,1.066,0.195h4.169c0.466,0,0.908-0.106,1.302-0.296v6.66
			c0,0.127-0.007,0.227-0.017,0.302c-0.223,0.029-0.645,0.064-1.386,0.064H21.048L21.048,34.514z"/>
	</g>
	<g>
		<g>
			<path fill="#FFFFFF" d="M47.685,43.437c-4.401,0-7.135-2.662-7.135-6.946V20.647c0-0.829,0.671-1.5,1.5-1.5h4.668
				c0.829,0,1.5,0.671,1.5,1.5v13.434c0,1.484,0,1.932,2.502,1.932h1.365c0.829,0,1.5,0.671,1.5,1.5v4.423
				c0,0.829-0.671,1.5-1.5,1.5H47.685z"/>
			<path fill="#FFFFFF" d="M46.718,20.647v13.434c0,2.244,0.566,3.432,4.002,3.432h1.365v4.423h-4.4
				c-3.567,0-5.635-2.046-5.635-5.446V20.647H46.718 M46.718,17.647H42.05c-1.657,0-3,1.343-3,3v15.844
				c0,5.052,3.47,8.446,8.635,8.446h4.4c1.657,0,3-1.343,3-3v-4.423c0-1.657-1.343-3-3-3H50.72c-0.461,0-0.78-0.027-0.993-0.057
				c-0.005-0.101-0.009-0.224-0.009-0.375V20.647C49.718,18.991,48.375,17.647,46.718,17.647L46.718,17.647z"/>
		</g>
		<g>
			<path fill="#FFFFFF" d="M62.586,46.276c-2.997,0-5.362-0.954-7.045-2.839h-4.39c-0.829,0-1.5-0.671-1.5-1.5v-4.423
				c0-0.829,0.671-1.5,1.5-1.5h2.319c0.565-4.804,3.899-7.724,8.983-7.724c5.215,0,8.635,2.919,9.214,7.724h2.491
				c0.829,0,1.5,0.671,1.5,1.5v4.423c0,0.829-0.671,1.5-1.5,1.5h-4.617C67.896,45.298,65.508,46.276,62.586,46.276z M62.32,34.987
				c-0.916,0-1.333,1.156-1.333,2.229c0,0.69,0.156,2.297,1.599,2.297c1.019,0,1.535-0.706,1.535-2.098
				c0-2.428-0.918-2.428-1.467-2.428H62.32z"/>
			<path fill="#FFFFFF" d="M62.453,29.79c4.87,0,7.802,2.872,7.802,7.724h3.903v4.423h-5.335c-1.367,1.881-3.468,2.839-6.237,2.839
				c-2.833,0-4.935-0.958-6.334-2.839h-5.101v-4.423h3.733C54.885,32.76,57.62,29.79,62.453,29.79 M62.586,41.013
				c1.901,0,3.035-1.387,3.035-3.598c0-2.608-1.001-3.928-2.967-3.928H62.32c-1.7,0-2.833,1.584-2.833,3.729
				C59.487,39.429,60.62,41.013,62.586,41.013 M62.453,26.79c-5.371,0-9.152,2.946-10.244,7.724h-1.058c-1.657,0-3,1.343-3,3v4.423
				c0,1.657,1.343,3,3,3h3.757c1.533,1.479,3.956,2.839,7.678,2.839c3.689,0,6.083-1.357,7.597-2.839h3.975c1.657,0,3-1.343,3-3
				v-4.423c0-1.657-1.343-3-3-3h-1.234C71.808,29.736,67.943,26.79,62.453,26.79L62.453,26.79z M62.577,37.909
				c-0.045-0.145-0.09-0.373-0.09-0.693c0-0.264,0.034-0.468,0.074-0.613c0.032,0.182,0.06,0.445,0.06,0.812
				C62.621,37.628,62.601,37.792,62.577,37.909L62.577,37.909z"/>
		</g>
	</g>
	<g>
		<path fill="#FFFFFF" d="M73.021,43.437c-0.829,0-1.5-0.671-1.5-1.5v-4.423c0-0.829,0.671-1.5,1.5-1.5h3.166
			c0.366,0,0.868,0,0.868-1.669V20.68c0-0.829,0.671-1.5,1.5-1.5h4.701c0.829,0,1.5,0.671,1.5,1.5v13.5
			c0,0.631-0.046,1.239-0.14,1.833h3.541c0.829,0,1.5,0.671,1.5,1.5v4.423c0,0.829-0.671,1.5-1.5,1.5H73.021z"/>
		<path fill="#FFFFFF" d="M83.257,20.68v13.5c0,1.221-0.199,2.311-0.566,3.333h5.468v4.423H73.021v-4.423h3.166
			c1.568,0,2.368-1.057,2.368-3.169V20.68H83.257 M83.257,17.68h-4.701c-1.657,0-3,1.343-3,3v13.665
			c0,0.061-0.001,0.117-0.003,0.168l-2.531,0c-1.657,0-3,1.343-3,3v4.423c0,1.657,1.343,3,3,3h15.137c1.657,0,3-1.343,3-3v-4.423
			c0-1.657-1.343-3-3-3h-1.905c0.002-0.11,0.004-0.222,0.004-0.333v-13.5C86.257,19.023,84.914,17.68,83.257,17.68L83.257,17.68z"/>
	</g>
	<g>
		<path fill="#FFFFFF" d="M87.489,43.437c-0.829,0-1.5-0.671-1.5-1.5v-4.423c0-0.829,0.671-1.5,1.5-1.5h16.404
			c-0.294-0.701-0.713-1.322-1.253-1.856c-0.985-0.975-2.145-1.448-3.547-1.448H90.69c-0.546,0-1.048-0.296-1.313-0.774
			s-0.248-1.061,0.042-1.523l6.602-10.529c0.274-0.438,0.754-0.703,1.271-0.703h5.568c0.553,0,1.061,0.304,1.322,0.791
			c0.261,0.487,0.233,1.079-0.072,1.539l-2.633,3.962c1.838,0.201,3.457,0.708,4.813,1.506c3.067,1.809,4.994,4.845,5.739,9.035
			h2.971c0.829,0,1.5,0.671,1.5,1.5v4.423c0,0.829-0.671,1.5-1.5,1.5H87.489z"/>
		<path fill="#FFFFFF" d="M102.86,20.68h0.005 M102.86,20.68l-4.167,6.271h2.499c1.636,0.165,3.102,0.594,4.336,1.32
			c2.967,1.75,4.701,4.819,5.202,9.242h4.269v4.423h-27.51v-4.423h18.34c-0.234-1.782-0.967-3.268-2.135-4.423
			c-1.268-1.254-2.802-1.882-4.602-1.882H90.69l6.602-10.529H102.86 M102.865,17.68h-0.005h-5.568c-1.033,0-1.993,0.531-2.542,1.406
			l-6.602,10.529c-0.58,0.925-0.612,2.091-0.083,3.046c0.528,0.955,1.534,1.547,2.625,1.547h8.402c0.565,0,1.054,0.097,1.499,0.305
			H87.489c-1.657,0-3,1.343-3,3v4.423c0,1.657,1.343,3,3,3h27.51c1.657,0,3-1.343,3-3v-4.423c0-1.657-1.343-3-3-3h-1.752
			c-0.97-4.007-3.046-6.969-6.194-8.826c-0.928-0.546-1.955-0.971-3.073-1.271l1.325-1.995c0.351-0.491,0.558-1.092,0.558-1.741
			C105.863,19.023,104.522,17.68,102.865,17.68L102.865,17.68z"/>
	</g>
	<g>
		<path fill="#FFFFFF" d="M113.394,43.437c-0.829,0-1.5-0.671-1.5-1.5v-4.423c0-0.829,0.671-1.5,1.5-1.5h3.434
			c0.346,0,0.869,0,0.869-1.735V20.68c0-0.829,0.671-1.5,1.5-1.5h4.666c0.829,0,1.5,0.671,1.5,1.5v14.886
			c0,2.09-0.611,3.88-1.815,5.32c-1.371,1.687-3.311,2.551-5.753,2.551H113.394z"/>
		<path fill="#FFFFFF" d="M123.862,20.68v14.886c0,1.749-0.499,3.202-1.466,4.357c-1.1,1.353-2.634,2.014-4.603,2.014h-4.4v-4.423
			h3.434c1.567,0,2.369-1.089,2.369-3.235V20.68H123.862 M123.862,17.68h-4.666c-1.657,0-3,1.343-3,3v13.599
			c0,0.086-0.002,0.165-0.005,0.235h-2.797c-1.657,0-3,1.343-3,3v4.423c0,1.657,1.343,3,3,3h4.4c2.875,0,5.271-1.08,6.931-3.122
			c1.409-1.684,2.138-3.797,2.138-6.249V20.68C126.862,19.023,125.519,17.68,123.862,17.68L123.862,17.68z"/>
	</g>
	<g>
		<path fill="#FFFFFF" d="M127.263,43.437c-0.829,0-1.5-0.671-1.5-1.5v-21.29c0-0.829,0.671-1.5,1.5-1.5h4.668
			c0.829,0,1.5,0.671,1.5,1.5v21.29c0,0.829-0.671,1.5-1.5,1.5H127.263z"/>
		<path fill="#FFFFFF" d="M131.931,20.647v21.29h-4.668v-21.29H131.931 M131.931,17.647h-4.668c-1.657,0-3,1.343-3,3v21.29
			c0,1.657,1.343,3,3,3h4.668c1.657,0,3-1.343,3-3v-21.29C134.931,18.991,133.587,17.647,131.931,17.647L131.931,17.647z"/>
	</g>
	<g>
		<path fill="#FFFFFF" d="M151.901,48.916c-3.265,0-6.305-1.315-8.561-3.704c-2.242-2.377-3.477-5.58-3.477-9.019v-3.268
			c0-0.829,0.671-1.5,1.5-1.5h4.668c0.828,0,1.5,0.671,1.5,1.5v2.838c0,1.375,0.317,5.861,4.403,5.861
			c3.771,0,4.335-3.672,4.335-5.861V20.68c0-0.829,0.672-1.5,1.5-1.5h4.668c0.828,0,1.5,0.671,1.5,1.5v15.333h3.5
			c0.828,0,1.5,0.671,1.5,1.5v4.423c0,0.829-0.672,1.5-1.5,1.5h-5.572C159.685,46.885,156.023,48.916,151.901,48.916z"/>
		<path fill="#FFFFFF" d="M162.438,20.68v16.833h5v4.423h-6.434c-1.836,3.433-5.203,5.479-9.104,5.479
			c-2.935,0-5.569-1.221-7.47-3.233c-1.899-2.014-3.067-4.82-3.067-7.989v-3.268h4.668v2.838c0,4.324,2.168,7.361,5.903,7.361
			c3.667,0,5.835-2.74,5.835-7.361V20.68H162.438 M162.438,17.68h-4.668c-1.657,0-3,1.343-3,3v15.084
			c0,4.361-2.134,4.361-2.835,4.361c-2.62,0-2.903-3.05-2.903-4.361v-2.838c0-1.657-1.343-3-3-3h-4.668c-1.657,0-3,1.343-3,3v3.268
			c0,3.823,1.38,7.391,3.885,10.047c2.543,2.692,5.971,4.175,9.652,4.175c4.362,0,8.267-2.018,10.761-5.479h4.776
			c1.657,0,3-1.343,3-3v-4.423c0-1.657-1.343-3-3-3h-2V20.68C165.438,19.023,164.096,17.68,162.438,17.68L162.438,17.68z"/>
	</g>
	<g>
		<path fill="#FFFFFF" d="M166.769,43.437c-0.828,0-1.5-0.671-1.5-1.5v-4.423c0-0.829,0.672-1.5,1.5-1.5h3.836V20.68
			c0-0.829,0.672-1.5,1.5-1.5h4.633c0.408,0,0.799,0.167,1.082,0.461c0.282,0.294,0.434,0.691,0.417,1.099l-0.293,7.308
			c2.438-1.765,4.979-2.629,7.698-2.629c5.807,0,9.575,3.839,10.487,10.595h2.283c0.828,0,1.5,0.671,1.5,1.5v4.423
			c0,0.829-0.672,1.5-1.5,1.5H166.769z M188.365,36.014c-0.197-1.849-1.082-3.568-3.09-3.568c-2.252,0-4.343,1.198-6.237,3.568
			H188.365z"/>
		<path fill="#FFFFFF" d="M176.737,20.68h0.005 M176.737,20.68l-0.433,10.793c3.001-3.102,6.002-4.555,9.337-4.555
			c5.502,0,8.636,3.829,9.136,10.595h3.635v4.423h-31.644v-4.423h5.336V20.68H176.737 M176.204,37.514h13.671
			c0.034-0.23,0.034-0.429,0.034-0.66c0-3.433-1.734-5.908-4.634-5.908C181.839,30.945,178.772,33.157,176.204,37.514
			 M176.742,17.68h-0.005h-4.633c-1.657,0-3,1.343-3,3v13.833h-2.336c-1.657,0-3,1.343-3,3v4.423c0,1.657,1.343,3,3,3h31.644
			c1.657,0,3-1.343,3-3v-4.423c0-1.657-1.343-3-3-3h-1.007c-1.313-6.774-5.496-10.595-11.764-10.595
			c-2.128,0-4.147,0.465-6.088,1.408l0.176-4.4c0.007-0.082,0.011-0.163,0.011-0.246C179.74,19.023,178.399,17.68,176.742,17.68
			L176.742,17.68z M183.01,34.514c0.739-0.378,1.495-0.568,2.266-0.568c0.489,0,0.833,0.231,1.073,0.568H183.01L183.01,34.514z"/>
	</g>
	<g>
		<path fill="#FFFFFF" d="M203.343,48.916c-0.828,0-1.5-0.671-1.5-1.5v-3.829c0-0.051,0.003-0.102,0.008-0.151
			c-0.047,0-4.11,0.001-4.11,0.001c-0.828,0-1.5-0.671-1.5-1.5v-4.423c0-0.829,0.672-1.5,1.5-1.5h2.968c0.346,0,0.868,0,0.868-1.735
			v-7.294c0-0.829,0.672-1.5,1.5-1.5h4.667c0.828,0,1.5,0.671,1.5,1.5v8.582c0,2.09-0.61,3.88-1.815,5.32
			c-0.376,0.462-0.794,0.863-1.252,1.201h1.302c0.828,0,1.5,0.671,1.5,1.5v3.829c0,0.829-0.672,1.5-1.5,1.5H203.343z"/>
		<path fill="#FFFFFF" d="M207.743,26.984v8.582c0,1.749-0.499,3.202-1.466,4.357c-1.1,1.353-2.635,2.014-4.568,2.014h-3.969v-4.423
			h2.968c1.567,0,2.368-1.089,2.368-3.235v-7.294H207.743 M207.478,43.587v3.829h-4.135v-3.829H207.478 M207.743,23.984h-4.667
			c-1.657,0-3,1.343-3,3v7.294c0,0.086-0.002,0.165-0.006,0.235h-2.33c-1.657,0-3,1.343-3,3v4.423c0,1.657,1.343,3,3,3h2.603v2.479
			c0,1.657,1.343,3,3,3h4.135c1.657,0,3-1.343,3-3v-3.829c0-1.038-0.527-1.953-1.329-2.492c1.053-1.552,1.595-3.415,1.595-5.529
			v-8.582C210.743,25.328,209.4,23.984,207.743,23.984L207.743,23.984z"/>
	</g>
	<g>
		<path fill="#FFFFFF" d="M227.746,43.437c-10.361,0-12.536-5.842-12.536-10.742v-5.744c0-0.829,0.672-1.5,1.5-1.5h4.602
			c0.828,0,1.5,0.671,1.5,1.5v5.744c0,2.067,0.829,2.533,1.102,2.686c0.508,0.294,1.584,0.633,3.934,0.633h10.636
			c0.367,0,0.869,0,0.869-1.669v-7.36c0-0.829,0.672-1.5,1.5-1.5h4.666c0.828,0,1.5,0.671,1.5,1.5v7.196
			c0,0.643-0.041,1.251-0.125,1.833h3.527c0.828,0,1.5,0.671,1.5,1.5v4.423c0,0.829-0.672,1.5-1.5,1.5H227.746z"/>
		<path fill="#FFFFFF" d="M221.312,26.951v5.744c0,1.947,0.633,3.3,1.867,3.994c0.967,0.561,2.499,0.825,4.668,0.825h10.636
			c1.567,0,2.369-1.057,2.369-3.169v-7.36h4.666v7.196c0,1.221-0.165,2.311-0.531,3.333h5.434v4.423h-22.674
			c-7.369,0-11.036-3.07-11.036-9.242v-5.744H221.312 M221.312,23.951h-4.602c-1.657,0-3,1.343-3,3v5.744
			c0,4.572,1.823,12.242,14.036,12.242h22.674c1.657,0,3-1.343,3-3v-4.423c0-1.657-1.343-3-3-3h-1.906
			c0.003-0.11,0.004-0.222,0.004-0.333v-7.196c0-1.657-1.343-3-3-3h-4.666c-1.657,0-3,1.343-3,3v7.36
			c0,0.061-0.001,0.117-0.003,0.168l-10.002,0c-2.321,0-3.041-0.35-3.162-0.42c-0.238-0.134-0.373-0.688-0.373-1.399v-5.744
			C224.312,25.294,222.969,23.951,221.312,23.951L221.312,23.951z"/>
	</g>
	<g>
		<path fill="#FFFFFF" d="M226.079,26.284c-0.828,0-1.5-0.671-1.5-1.5v-3.83c0-0.829,0.672-1.5,1.5-1.5h4.169
			c0.828,0,1.5,0.671,1.5,1.5v3.83c0,0.829-0.672,1.5-1.5,1.5H226.079z"/>
		<path fill="#FFFFFF" d="M230.248,20.955v3.83h-4.169v-3.83H230.248 M230.248,17.955h-4.169c-1.657,0-3,1.343-3,3v3.83
			c0,1.657,1.343,3,3,3h4.169c1.657,0,3-1.343,3-3v-3.83C233.248,19.298,231.905,17.955,230.248,17.955L230.248,17.955z"/>
	</g>
	<g>
		<path fill="#FFFFFF" d="M232.381,26.284c-0.828,0-1.5-0.671-1.5-1.5v-3.83c0-0.829,0.672-1.5,1.5-1.5h4.169
			c0.828,0,1.5,0.671,1.5,1.5v3.83c0,0.829-0.672,1.5-1.5,1.5H232.381z"/>
		<path fill="#FFFFFF" d="M236.55,20.955v3.83h-4.169v-3.83H236.55 M236.55,17.955h-4.169c-1.657,0-3,1.343-3,3v3.83
			c0,1.657,1.343,3,3,3h4.169c1.657,0,3-1.343,3-3v-3.83C239.55,19.298,238.207,17.955,236.55,17.955L236.55,17.955z"/>
	</g>
	<g>
		<path fill="#FFFFFF" d="M249.781,43.437c-0.828,0-1.5-0.671-1.5-1.5v-4.423c0-0.829,0.672-1.5,1.5-1.5h2.968
			c0.346,0,0.867,0,0.867-1.735v-7.294c0-0.829,0.672-1.5,1.5-1.5h4.668c0.828,0,1.5,0.671,1.5,1.5v8.582
			c0,2.09-0.61,3.88-1.815,5.32c-1.374,1.687-3.302,2.551-5.719,2.551H249.781z"/>
		<path fill="#FFFFFF" d="M259.784,26.984v8.582c0,1.749-0.499,3.202-1.466,4.357c-1.102,1.353-2.635,2.014-4.568,2.014h-3.969
			v-4.423h2.968c1.567,0,2.367-1.089,2.367-3.235v-7.294H259.784 M259.784,23.984h-4.668c-1.657,0-3,1.343-3,3v7.294
			c0,0.086-0.002,0.165-0.005,0.235h-2.33c-1.657,0-3,1.343-3,3v4.423c0,1.657,1.343,3,3,3h3.969c2.849,0,5.233-1.079,6.895-3.12
			c1.411-1.686,2.14-3.799,2.14-6.251v-8.582C262.784,25.328,261.441,23.984,259.784,23.984L259.784,23.984z"/>
	</g>
	<g>
		<path fill="#FFFFFF" d="M255.317,25.976c-0.828,0-1.5-0.671-1.5-1.5V20.68c0-0.829,0.672-1.5,1.5-1.5h4.167
			c0.828,0,1.5,0.671,1.5,1.5v3.796c0,0.829-0.672,1.5-1.5,1.5H255.317z"/>
		<path fill="#FFFFFF" d="M259.484,20.68v3.796h-4.167V20.68H259.484 M259.484,17.68h-4.167c-1.657,0-3,1.343-3,3v3.796
			c0,1.657,1.343,3,3,3h4.167c1.657,0,3-1.343,3-3V20.68C262.484,19.023,261.142,17.68,259.484,17.68L259.484,17.68z"/>
	</g>
	<g>
		<path fill="#FFFFFF" d="M267.585,43.437c-0.828,0-1.5-0.671-1.5-1.5v-21.29c0-0.175,0.03-0.342,0.085-0.498
			c-0.467-0.254-0.783-0.749-0.783-1.318v-1.684c0-0.729,0.52-1.335,1.208-1.472c0.278-2.021,1.917-3.527,3.959-3.527
			c1.658,0,2.942,0.876,3.615,2.467c0.218,0.516,0.126,1.086-0.194,1.502c0.235,0.265,0.379,0.614,0.379,0.997v1.716
			c0,0.535-0.28,1.005-0.702,1.271c0.066,0.169,0.103,0.353,0.103,0.545v21.29c0,0.829-0.672,1.5-1.5,1.5H267.585z"/>
		<path fill="#FFFFFF" d="M270.554,13.649c1.067,0,1.801,0.529,2.233,1.552l-1.5,0.693c-0.133-0.462-0.367-0.693-0.733-0.693
			c-0.499,0-0.768,0.33-0.768,0.991c0,0.495,0.167,0.825,0.468,0.924h2.6v1.716h-5.967v-1.684h1.299
			c-0.099-0.297-0.133-0.594-0.133-0.858C268.053,14.804,269.12,13.649,270.554,13.649 M272.254,20.647v21.29h-4.669v-21.29H272.254
			 M270.554,10.649c-2.511,0-4.578,1.641-5.261,3.957c-0.845,0.531-1.406,1.471-1.406,2.542v1.684c0,0.732,0.263,1.403,0.698,1.924
			v21.181c0,1.657,1.343,3,3,3h4.669c1.657,0,3-1.343,3-3v-21.29c0-0.005,0-0.011,0-0.016c0.377-0.501,0.6-1.125,0.6-1.8v-1.716
			c0-0.372-0.067-0.729-0.191-1.057c0.192-0.646,0.17-1.359-0.112-2.026C274.641,11.882,272.819,10.649,270.554,10.649
			L270.554,10.649z"/>
	</g>
</g>
<g>
	<linearGradient id="SVGID_1_" gradientUnits="userSpaceOnUse" x1="120.4346" y1="58.9727" x2="118.8976" y2="80.4803">
		<stop  offset="0" style="stop-color:#F69453"/>
		<stop  offset="0.5" style="stop-color:#F37521"/>
		<stop  offset="1" style="stop-color:#F15A29"/>
	</linearGradient>
	<path fill="url(#SVGID_1_)" d="M131.923,78.363c0,2.974-1.778,4.763-4.93,4.763h-10.558c-6.445,0-9.684-2.713-9.684-8.111v-4.966
		h4.025v4.966c0,1.704,0.555,2.887,1.662,3.521c0.845,0.491,2.188,0.722,4.055,0.722h7.524c1.313,0,2.129-0.115,2.422-0.23
		c0.962-0.375,1.459-1.271,1.459-2.742v-11.75h4.023V78.363z M123.027,72.878h-7.584v-2.165h1.663
		c-0.146-0.404-0.204-0.779-0.204-1.097c0-1.935,1.372-3.349,3.237-3.349c1.313,0,2.275,0.664,2.828,1.963l-1.895,0.895
		c-0.204-0.577-0.525-0.865-0.964-0.865c-0.67,0-0.99,0.403-0.99,1.24c0,0.636,0.203,1.04,0.612,1.184h3.296V72.878z"/>
	<linearGradient id="SVGID_2_" gradientUnits="userSpaceOnUse" x1="140.4463" y1="60.4043" x2="138.9093" y2="81.9118">
		<stop  offset="0" style="stop-color:#F69453"/>
		<stop  offset="0.5" style="stop-color:#F37521"/>
		<stop  offset="1" style="stop-color:#F15A29"/>
	</linearGradient>
	<path fill="url(#SVGID_2_)" d="M142.915,80.471c0,2.655-0.671,4.561-2.041,5.744c-1.255,1.127-3.297,1.675-6.097,1.675v-3.263
		c2.683,0,4.023-1.27,4.023-3.811V70.049h4.114V80.471z"/>
	<linearGradient id="SVGID_3_" gradientUnits="userSpaceOnUse" x1="151.1816" y1="61.1709" x2="149.6447" y2="82.6782">
		<stop  offset="0" style="stop-color:#F69453"/>
		<stop  offset="0.5" style="stop-color:#F37521"/>
		<stop  offset="1" style="stop-color:#F15A29"/>
	</linearGradient>
	<path fill="url(#SVGID_3_)" d="M154.668,83.126h-3.85c-3.121,0-4.931-1.789-4.931-4.763V64.506h4.084v11.75
		c0,1.963,0.496,3.002,3.501,3.002h1.195V83.126z"/>
	<linearGradient id="SVGID_4_" gradientUnits="userSpaceOnUse" x1="161.9775" y1="61.9424" x2="160.4406" y2="83.4496">
		<stop  offset="0" style="stop-color:#F69453"/>
		<stop  offset="0.5" style="stop-color:#F37521"/>
		<stop  offset="1" style="stop-color:#F15A29"/>
	</linearGradient>
	<path fill="url(#SVGID_4_)" d="M167.18,83.126h-13.154v-3.868h2.683c1.37,0,2.07-0.924,2.07-2.771v-6.438h4.114v6.294
		c0,1.067-0.177,2.021-0.497,2.915h4.784V83.126z M162.482,87.918h-3.617V84.57h3.617V87.918z"/>
	<linearGradient id="SVGID_5_" gradientUnits="userSpaceOnUse" x1="176.1895" y1="62.957" x2="174.6524" y2="84.4656">
		<stop  offset="0" style="stop-color:#F69453"/>
		<stop  offset="0.5" style="stop-color:#F37521"/>
		<stop  offset="1" style="stop-color:#F15A29"/>
	</linearGradient>
	<path fill="url(#SVGID_5_)" d="M183.773,79.027c0,3.869-2.626,6.582-6.709,6.582c-2.48,0-4.346-0.838-5.543-2.483h-5.25v-3.868
		h4.056c0-4.128,2.392-6.755,6.591-6.755C181.119,72.503,183.773,75.072,183.773,79.027z M179.718,79.172
		c0-2.281-0.874-3.436-2.595-3.436h-0.292c-1.487,0-2.509,1.357-2.509,3.262c0,1.963,0.991,3.32,2.742,3.32
		C178.67,82.318,179.718,81.048,179.718,79.172z"/>
</g>
<g>
	<g>
		<linearGradient id="SVGID_6_" gradientUnits="userSpaceOnUse" x1="24.6201" y1="9.0044" x2="24.6201" y2="47.8465">
			<stop  offset="0" style="stop-color:#2BC4F3"/>
			<stop  offset="0.5" style="stop-color:#00AEEE"/>
			<stop  offset="1" style="stop-color:#0095DA"/>
		</linearGradient>
		<path fill="url(#SVGID_6_)" d="M38.99,36.133c0,3.433-2.033,5.446-5.635,5.446H21.286c-7.369,0-11.036-3.07-11.036-9.242v-5.744
			h4.602v5.744c0,1.947,0.633,3.3,1.867,3.994c0.967,0.561,2.499,0.825,4.668,0.825h8.602c1.333,0,2.233-0.1,2.734-0.33
			c1.1-0.462,1.666-1.486,1.666-3.037v-7.162h4.602V36.133z M23.787,24.426h-4.168v-3.829h4.168V24.426z M30.089,24.426H25.92
			v-3.829h4.169V24.426z"/>
	</g>
	<g>
		<g>
			<linearGradient id="SVGID_7_" gradientUnits="userSpaceOnUse" x1="47.4063" y1="12.4204" x2="47.4063" y2="47.1892">
				<stop  offset="0" style="stop-color:#2BC4F3"/>
				<stop  offset="0.5" style="stop-color:#00AEEE"/>
				<stop  offset="1" style="stop-color:#0095DA"/>
			</linearGradient>
			<path fill="url(#SVGID_7_)" d="M52.424,41.579h-4.4c-3.568,0-5.635-2.046-5.635-5.446V20.289h4.668v13.434
				c0,2.245,0.566,3.433,4,3.433h1.367V41.579z"/>
		</g>
		<g>
			<linearGradient id="SVGID_8_" gradientUnits="userSpaceOnUse" x1="62.9927" y1="12.4214" x2="62.9927" y2="47.1891">
				<stop  offset="0" style="stop-color:#2BC4F3"/>
				<stop  offset="0.5" style="stop-color:#00AEEE"/>
				<stop  offset="1" style="stop-color:#0095DA"/>
			</linearGradient>
			<path fill="url(#SVGID_8_)" d="M74.495,41.579H69.16c-1.365,1.881-3.467,2.839-6.235,2.839c-2.833,0-4.935-0.958-6.334-2.839
				H51.49v-4.423h3.733c0-4.753,2.733-7.724,7.568-7.724c4.868,0,7.802,2.872,7.802,7.724h3.901V41.579z M65.96,37.057
				c0-2.607-1.001-3.927-2.969-3.927h-0.332c-1.702,0-2.833,1.584-2.833,3.729c0,2.211,1.131,3.796,3.099,3.796
				C64.826,40.655,65.96,39.269,65.96,37.057z"/>
		</g>
	</g>
	<g>
		<linearGradient id="SVGID_9_" gradientUnits="userSpaceOnUse" x1="80.9277" y1="12.4204" x2="80.9277" y2="47.1893">
			<stop  offset="0" style="stop-color:#2BC4F3"/>
			<stop  offset="0.5" style="stop-color:#00AEEE"/>
			<stop  offset="1" style="stop-color:#0095DA"/>
		</linearGradient>
		<path fill="url(#SVGID_9_)" d="M88.497,41.579H73.358v-4.423h3.168c1.567,0,2.368-1.057,2.368-3.169V20.322h4.701v13.5
			c0,1.221-0.199,2.311-0.566,3.334h5.468V41.579z"/>
	</g>
	<g>
		<linearGradient id="SVGID_10_" gradientUnits="userSpaceOnUse" x1="101.582" y1="12.4204" x2="101.582" y2="47.1893">
			<stop  offset="0" style="stop-color:#2BC4F3"/>
			<stop  offset="0.5" style="stop-color:#00AEEE"/>
			<stop  offset="1" style="stop-color:#0095DA"/>
		</linearGradient>
		<path fill="url(#SVGID_10_)" d="M115.336,41.579H87.828v-4.423h18.338c-0.232-1.783-0.967-3.268-2.133-4.423
			c-1.268-1.254-2.802-1.882-4.602-1.882h-8.402l6.602-10.53h5.568l-4.169,6.272h2.501c1.634,0.165,3.102,0.594,4.334,1.32
			c2.969,1.749,4.703,4.819,5.203,9.242h4.268V41.579z"/>
	</g>
	<g>
		<linearGradient id="SVGID_11_" gradientUnits="userSpaceOnUse" x1="118.9668" y1="12.4204" x2="118.9668" y2="47.1893">
			<stop  offset="0" style="stop-color:#2BC4F3"/>
			<stop  offset="0.5" style="stop-color:#00AEEE"/>
			<stop  offset="1" style="stop-color:#0095DA"/>
		</linearGradient>
		<path fill="url(#SVGID_11_)" d="M124.201,35.209c0,1.749-0.499,3.202-1.466,4.357c-1.102,1.353-2.634,2.013-4.603,2.013h-4.4
			v-4.423h3.434c1.567,0,2.367-1.089,2.367-3.235v-13.6h4.668V35.209z"/>
	</g>
	<g>
		<linearGradient id="SVGID_12_" gradientUnits="userSpaceOnUse" x1="129.9355" y1="12.4204" x2="129.9355" y2="47.1892">
			<stop  offset="0" style="stop-color:#2BC4F3"/>
			<stop  offset="0.5" style="stop-color:#00AEEE"/>
			<stop  offset="1" style="stop-color:#0095DA"/>
		</linearGradient>
		<path fill="url(#SVGID_12_)" d="M132.27,41.579h-4.668v-21.29h4.668V41.579z"/>
	</g>
	<g>
		<linearGradient id="SVGID_13_" gradientUnits="userSpaceOnUse" x1="154.7402" y1="12.4204" x2="154.7402" y2="47.1892">
			<stop  offset="0" style="stop-color:#2BC4F3"/>
			<stop  offset="0.5" style="stop-color:#00AEEE"/>
			<stop  offset="1" style="stop-color:#0095DA"/>
		</linearGradient>
		<path fill="url(#SVGID_13_)" d="M167.777,41.579h-6.434c-1.836,3.433-5.203,5.479-9.104,5.479
			c-5.869,0-10.537-4.885-10.537-11.223v-3.268h4.668v2.838c0,4.325,2.168,7.361,5.901,7.361c3.669,0,5.837-2.739,5.837-7.361
			V20.322h4.668v16.834h5V41.579z"/>
	</g>
	<g>
		<linearGradient id="SVGID_14_" gradientUnits="userSpaceOnUse" x1="182.9297" y1="12.4204" x2="182.9297" y2="47.1893">
			<stop  offset="0" style="stop-color:#2BC4F3"/>
			<stop  offset="0.5" style="stop-color:#00AEEE"/>
			<stop  offset="1" style="stop-color:#0095DA"/>
		</linearGradient>
		<path fill="url(#SVGID_14_)" d="M198.751,41.579h-31.644v-4.423h5.336V20.322h4.633l-0.433,10.794
			c3.001-3.103,6.002-4.555,9.337-4.555c5.5,0,8.636,3.829,9.136,10.595h3.635V41.579z M190.214,37.156
			c0.034-0.231,0.034-0.429,0.034-0.66c0-3.433-1.734-5.909-4.636-5.909c-3.435,0-6.501,2.212-9.069,6.569H190.214z"/>
	</g>
	<g>
		<linearGradient id="SVGID_15_" gradientUnits="userSpaceOnUse" x1="203.0801" y1="12.4209" x2="203.0801" y2="47.189">
			<stop  offset="0" style="stop-color:#2BC4F3"/>
			<stop  offset="0.5" style="stop-color:#00AEEE"/>
			<stop  offset="1" style="stop-color:#0095DA"/>
		</linearGradient>
		<path fill="url(#SVGID_15_)" d="M208.082,35.209c0,1.749-0.499,3.202-1.466,4.357c-1.102,1.353-2.635,2.013-4.57,2.013h-3.967
			v-4.423h2.968c1.567,0,2.367-1.089,2.367-3.235v-7.294h4.668V35.209z M207.816,47.059h-4.135V43.23h4.135V47.059z"/>
	</g>
	<g>
		<linearGradient id="SVGID_16_" gradientUnits="userSpaceOnUse" x1="233.9043" y1="18.314" x2="233.9043" y2="46.0551">
			<stop  offset="0" style="stop-color:#2BC4F3"/>
			<stop  offset="0.5" style="stop-color:#00AEEE"/>
			<stop  offset="1" style="stop-color:#0095DA"/>
		</linearGradient>
		<path fill="url(#SVGID_16_)" d="M250.759,41.579h-22.674c-7.369,0-11.036-3.07-11.036-9.242v-5.744h4.6v5.744
			c0,1.947,0.635,3.3,1.869,3.994c0.967,0.561,2.499,0.825,4.666,0.825h10.638c1.567,0,2.367-1.057,2.367-3.169v-7.36h4.668v7.195
			c0,1.221-0.167,2.311-0.533,3.334h5.436V41.579z"/>
	</g>
	<g>
		<linearGradient id="SVGID_17_" gradientUnits="userSpaceOnUse" x1="228.502" y1="18.4819" x2="228.502" y2="25.5695">
			<stop  offset="0" style="stop-color:#2BC4F3"/>
			<stop  offset="0.5" style="stop-color:#00AEEE"/>
			<stop  offset="1" style="stop-color:#0095DA"/>
		</linearGradient>
		<rect x="226.418" y="20.597" fill="url(#SVGID_17_)" width="4.167" height="3.829"/>
	</g>
	<g>
		<linearGradient id="SVGID_18_" gradientUnits="userSpaceOnUse" x1="234.8047" y1="18.4819" x2="234.8047" y2="25.5695">
			<stop  offset="0" style="stop-color:#2BC4F3"/>
			<stop  offset="0.5" style="stop-color:#00AEEE"/>
			<stop  offset="1" style="stop-color:#0095DA"/>
		</linearGradient>
		<rect x="232.72" y="20.597" fill="url(#SVGID_18_)" width="4.169" height="3.829"/>
	</g>
	<g>
		<linearGradient id="SVGID_19_" gradientUnits="userSpaceOnUse" x1="255.1211" y1="21.0693" x2="255.1211" y2="45.5253">
			<stop  offset="0" style="stop-color:#2BC4F3"/>
			<stop  offset="0.5" style="stop-color:#00AEEE"/>
			<stop  offset="1" style="stop-color:#0095DA"/>
		</linearGradient>
		<path fill="url(#SVGID_19_)" d="M260.123,35.209c0,1.749-0.499,3.202-1.466,4.357c-1.102,1.353-2.635,2.013-4.57,2.013h-3.967
			v-4.423h2.968c1.567,0,2.367-1.089,2.367-3.235v-7.294h4.668V35.209z"/>
	</g>
	<g>
		<linearGradient id="SVGID_20_" gradientUnits="userSpaceOnUse" x1="257.7402" y1="18.9106" x2="257.7402" y2="25.1209">
			<stop  offset="0" style="stop-color:#2BC4F3"/>
			<stop  offset="0.5" style="stop-color:#00AEEE"/>
			<stop  offset="1" style="stop-color:#0095DA"/>
		</linearGradient>
		<rect x="255.656" y="20.322" fill="url(#SVGID_20_)" width="4.167" height="3.797"/>
	</g>
	<g>
		<linearGradient id="SVGID_21_" gradientUnits="userSpaceOnUse" x1="270.208" y1="12.4204" x2="270.208" y2="47.1888">
			<stop  offset="0" style="stop-color:#2BC4F3"/>
			<stop  offset="0.5" style="stop-color:#00AEEE"/>
			<stop  offset="1" style="stop-color:#0095DA"/>
		</linearGradient>
		<path fill="url(#SVGID_21_)" d="M273.192,18.474h-5.969v-1.684h1.301c-0.099-0.297-0.133-0.594-0.133-0.859
			c0-1.485,1.067-2.64,2.501-2.64c1.065,0,1.801,0.528,2.233,1.552l-1.5,0.693c-0.133-0.462-0.367-0.693-0.733-0.693
			c-0.501,0-0.768,0.33-0.768,0.99c0,0.495,0.167,0.825,0.468,0.925h2.6V18.474z M272.593,41.579h-4.669v-21.29h4.669V41.579z"/>
	</g>
</g>
</svg>
