<?xml version="1.0" encoding="utf-8"?>
<!-- Generator: Adobe Illustrator 22.1.0, SVG Export Plug-In . SVG Version: 6.00 Build 0)  -->
<svg version="1.1" id="Layer_1" xmlns="http://www.w3.org/2000/svg" xmlns:xlink="http://www.w3.org/1999/xlink" x="0px" y="0px"
	 viewBox="0 0 40.9 12.1" style="enable-background:new 0 0 40.9 12.1;" xml:space="preserve">
<style type="text/css">
	.st0{fill:#545454;}
</style>
<g>
	<path class="st0" d="M7.9,11.4v0.3H2.6v-0.3c0.5-0.1,0.9-0.2,1.1-0.5C3.9,10.7,4,10.3,4,9.7V1.4H2.9c-0.7,0-1.3,0.2-1.7,0.5
		S0.5,2.6,0.3,3.2H0l0.1-2.6h0.4c0.2,0.2,0.6,0.2,1.1,0.2H9c0.5,0,0.9-0.1,1.1-0.2h0.4l0.1,2.6h-0.3c-0.2-0.6-0.5-1.1-0.9-1.4
		s-1-0.4-1.6-0.4H6.5v8.4c0,0.5,0.1,0.9,0.3,1.1C7,11.2,7.4,11.3,7.9,11.4z"/>
	<path class="st0" d="M14.5,4.4h0.3v5.8c0,0.7,0.4,1.1,1.2,1.2v0.3h-4.6v-0.3c0.5-0.1,0.8-0.2,1-0.4s0.2-0.5,0.2-0.9V6.3
		c0-0.4-0.1-0.7-0.3-0.9c-0.2-0.2-0.5-0.3-1.1-0.4V4.7L14.5,4.4z M12.4,1.3c0-0.3,0.1-0.6,0.4-0.9C13.1,0.2,13.4,0,13.7,0
		c0.3,0,0.6,0.1,0.9,0.4C14.8,0.6,15,0.9,15,1.3s-0.1,0.6-0.4,0.8c-0.2,0.2-0.5,0.4-0.9,0.4S13,2.4,12.8,2.1
		C12.5,1.9,12.4,1.6,12.4,1.3z"/>
	<path class="st0" d="M20.4,4.4v1.7l0,0C21,4.9,21.8,4.4,23,4.4s2,0.6,2.4,1.7c0.4-0.6,0.8-1.1,1.2-1.3c0.4-0.3,0.9-0.4,1.5-0.4
		c0.8,0,1.3,0.2,1.8,0.7c0.4,0.4,0.6,1.1,0.6,1.9v3c0,0.4,0.1,0.7,0.2,0.9c0.2,0.2,0.5,0.3,0.9,0.4v0.3h-4.5v-0.3
		c0.4-0.1,0.7-0.2,0.9-0.4c0.2-0.2,0.3-0.4,0.3-0.8V6.8c0-0.4-0.1-0.7-0.3-0.9c-0.2-0.2-0.5-0.4-0.9-0.4c-0.8,0-1.3,0.5-1.6,1.5v3.1
		c0,0.4,0.1,0.7,0.2,0.8c0.2,0.2,0.5,0.3,0.9,0.4v0.3h-4.5v-0.3c0.4-0.1,0.7-0.2,0.9-0.4c0.2-0.2,0.3-0.4,0.3-0.8V6.7
		c0-0.3-0.1-0.6-0.3-0.8c-0.2-0.2-0.5-0.3-0.8-0.3c-0.7,0-1.2,0.4-1.7,1.2V10c0,0.5,0.1,0.8,0.2,1s0.5,0.3,0.9,0.4v0.3h-4.5v-0.3
		c0.4-0.1,0.7-0.2,0.9-0.4c0.2-0.2,0.3-0.5,0.3-0.8V6.4c0-0.5-0.1-0.8-0.3-1c-0.2-0.2-0.5-0.3-1.1-0.4V4.7l3.2-0.3H20.4z"/>
	<path class="st0" d="M40.6,9.6h0.3c-0.3,0.8-0.9,1.4-1.6,1.8c-0.7,0.4-1.5,0.7-2.4,0.7c-1.2,0-2.1-0.4-2.9-1.1
		c-0.8-0.7-1.2-1.6-1.2-2.7s0.4-2,1.2-2.7s1.8-1.1,2.9-1.1c1.1,0,1.9,0.3,2.6,0.9c0.7,0.6,1.1,1.3,1.2,2.3h-5.6c0,0.1,0,0.2,0,0.3
		c0,1,0.3,1.7,0.8,2.3s1.1,0.9,1.9,0.9C39,11.1,39.9,10.6,40.6,9.6z M35.3,7.2h3.2c0-0.7-0.2-1.2-0.5-1.6c-0.3-0.4-0.7-0.7-1.1-0.7
		s-0.8,0.2-1.1,0.6C35.5,5.9,35.3,6.5,35.3,7.2z"/>
</g>
</svg>
