<?xml version="1.0" encoding="utf-8"?>
<!-- Generator: Adobe Illustrator 16.0.0, SVG Export Plug-In . SVG Version: 6.00 Build 0)  -->
<!DOCTYPE svg PUBLIC "-//W3C//DTD SVG 1.1//EN" "http://www.w3.org/Graphics/SVG/1.1/DTD/svg11.dtd">
<svg version="1.1" id="Layer_1" xmlns="http://www.w3.org/2000/svg" xmlns:xlink="http://www.w3.org/1999/xlink" x="0px" y="0px"
	 width="164.45px" height="167.701px" viewBox="0 0 164.45 167.701" enable-background="new 0 0 164.45 167.701"
	 xml:space="preserve">
<g>
	<g>
		<g>
			<path fill="#9EC0DF" d="M160.95,167.701H3.5c-1.93,0-3.5-1.57-3.5-3.5V3.5C0,1.57,1.57,0,3.5,0h157.45c1.93,0,3.5,1.57,3.5,3.5
				v160.701C164.45,166.131,162.879,167.701,160.95,167.701z M3.5,1C2.122,1,1,2.121,1,3.5v160.701c0,1.379,1.122,2.5,2.5,2.5
				h157.45c1.378,0,2.5-1.121,2.5-2.5V3.5c0-1.379-1.122-2.5-2.5-2.5H3.5z"/>
			<g>
				<path fill="#9EC0DF" d="M51.68,126.407c-0.192-0.876-0.597-1.54-1.213-1.992c-0.616-0.452-1.414-0.679-2.395-0.679
					c-1.267,0-2.286,0.46-3.056,1.379c-0.771,0.92-1.156,2.162-1.156,3.727c0,1.81,0.365,3.156,1.095,4.041s1.787,1.327,3.17,1.327
					c0.911,0,1.694-0.303,2.351-0.907c0.657-0.604,1.099-1.48,1.327-2.631h1.69c-0.228,1.652-0.855,2.911-1.882,3.778
					c-1.028,0.867-2.277,1.301-3.748,1.301c-1.757,0-3.163-0.604-4.216-1.812c-1.054-1.209-1.581-2.887-1.581-5.035
					c0-2.072,0.55-3.709,1.651-4.908c1.1-1.2,2.552-1.8,4.356-1.8c1.494,0,2.706,0.386,3.634,1.156s1.48,1.789,1.655,3.056H51.68z"
					/>
				<path fill="#9EC0DF" d="M57.004,135.409h-1.576v-12.872h1.576V135.409z"/>
				<path fill="#9EC0DF" d="M59.377,124.323v-1.786h1.576v1.786H59.377z M60.954,135.409h-1.576v-9.378h1.576V135.409z"/>
				<path fill="#9EC0DF" d="M69.246,129.184c-0.228-1.337-0.969-2.006-2.224-2.006c-0.776,0-1.401,0.311-1.874,0.933
					c-0.473,0.622-0.709,1.487-0.709,2.597c0,1.208,0.219,2.111,0.657,2.71c0.438,0.599,1.074,0.897,1.909,0.897
					c0.561,0,1.045-0.206,1.454-0.617s0.671-0.947,0.788-1.606h1.524c-0.158,1.161-0.568,2.05-1.23,2.666s-1.52,0.924-2.57,0.924
					c-1.231,0-2.242-0.422-3.03-1.266c-0.788-0.843-1.182-1.989-1.182-3.437c0-1.588,0.394-2.854,1.182-3.801
					c0.788-0.945,1.895-1.418,3.319-1.418c1.039,0,1.867,0.311,2.482,0.933c0.616,0.621,0.959,1.452,1.029,2.491H69.246z"/>
				<path fill="#9EC0DF" d="M80.306,135.409h-2.023l-2.924-4.737l-1.313,1.182v3.556h-1.524v-12.872h1.524v7.46l4.037-3.966h2.005
					l-3.582,3.493L80.306,135.409z"/>
				<path fill="#9EC0DF" d="M96.786,135.409v-7.601c0-0.1,0.006-0.585,0.018-1.458s0.018-1.458,0.018-1.756h-0.053l-3.599,10.814
					h-1.725l-3.608-10.797h-0.052c0,0.432,0.005,1.048,0.017,1.848s0.018,1.249,0.018,1.349v7.601h-1.681v-12.872h2.487l3.66,10.885
					h0.053l3.643-10.885h2.496v12.872H96.786z"/>
				<path fill="#9EC0DF" d="M101.042,128.886c0.035-1.057,0.378-1.842,1.029-2.355s1.598-0.771,2.841-0.771
					c0.993,0,1.824,0.225,2.496,0.674s1.007,1.098,1.007,1.944v5.402c0,0.368,0.166,0.552,0.499,0.552
					c0.134,0,0.307-0.023,0.517-0.07v1.147c-0.286,0.117-0.584,0.175-0.893,0.175c-0.537,0-0.937-0.115-1.2-0.346
					s-0.4-0.591-0.412-1.081c-0.899,1.016-2.029,1.523-3.389,1.523c-0.888,0-1.6-0.251-2.137-0.753s-0.806-1.156-0.806-1.962
					c0-0.823,0.233-1.488,0.701-1.996c0.467-0.508,1.147-0.814,2.04-0.92l2.785-0.341c0.502-0.076,0.753-0.447,0.753-1.112
					c0-0.49-0.182-0.867-0.547-1.13c-0.365-0.263-0.918-0.394-1.66-0.394c-0.66,0-1.166,0.146-1.519,0.438
					c-0.354,0.292-0.565,0.75-0.635,1.375H101.042z M106.812,130.619c-0.117,0.123-0.346,0.222-0.688,0.298
					s-0.979,0.175-1.913,0.298c-0.689,0.082-1.195,0.251-1.52,0.508c-0.324,0.257-0.486,0.596-0.486,1.016
					c0,0.514,0.137,0.914,0.412,1.2c0.274,0.286,0.712,0.429,1.313,0.429c0.753,0,1.421-0.215,2.005-0.644
					c0.583-0.429,0.875-0.95,0.875-1.563V130.619z"/>
				<path fill="#9EC0DF" d="M110.963,126.031h1.489v1.322h0.035c0.671-1.062,1.605-1.594,2.802-1.594
					c1.208,0,2.162,0.438,2.859,1.317c0.697,0.879,1.046,2.001,1.046,3.367c0,1.529-0.356,2.784-1.068,3.766
					c-0.712,0.98-1.731,1.471-3.056,1.471c-1.086,0-1.918-0.42-2.496-1.261h-0.035v4.702h-1.576V126.031z M112.469,131.162
					c0,1.004,0.245,1.78,0.735,2.329s1.101,0.823,1.83,0.823c0.8,0,1.421-0.325,1.865-0.977c0.444-0.65,0.666-1.533,0.666-2.648
					c0-1.22-0.213-2.11-0.639-2.671c-0.426-0.561-1.068-0.841-1.927-0.841c-0.834,0-1.465,0.328-1.891,0.985
					C112.682,128.819,112.469,129.819,112.469,131.162z"/>
			</g>
		</g>
	</g>
	<path fill="#9EC0DF" d="M121.164,92.292H39.821V33.229h81.343V92.292z M41.821,90.292h77.343V35.229H41.821V90.292z"/>
	<g>
		<g>
			<path fill="#9EC0DF" d="M57.809,77.784l-5.84-1.871l1.871,5.84l1.384-1.365l4.054,4.115l1.197-1.196l-4.052-4.116L57.809,77.784z
				 M57.809,77.784"/>
			<g>
				<path fill="#9EC0DF" d="M54.686,84.702c-3.537,0-6.415-2.877-6.415-6.415s2.878-6.413,6.415-6.413s6.414,2.875,6.414,6.413
					c0,1.487-0.513,2.854-1.365,3.943l0.837,0.851c1.068-1.309,1.71-2.978,1.71-4.794c0-4.189-3.408-7.595-7.596-7.595
					s-7.596,3.405-7.596,7.595c0,4.188,3.408,7.597,7.596,7.597c1.609,0,3.1-0.506,4.329-1.363l-0.843-0.855
					C57.167,84.318,55.971,84.702,54.686,84.702z"/>
				<path fill="#9EC0DF" d="M54.686,82.32c-2.223,0-4.033-1.808-4.033-4.033c0-2.224,1.81-4.032,4.033-4.032
					c2.224,0,4.033,1.809,4.033,4.032c0,0.823-0.25,1.588-0.674,2.227l0.833,0.846c0.635-0.863,1.023-1.92,1.023-3.072
					c0-2.874-2.339-5.214-5.214-5.214s-5.214,2.34-5.214,5.214c0,2.876,2.339,5.215,5.214,5.215c0.955,0,1.839-0.276,2.609-0.727
					l-0.858-0.871C55.905,82.162,55.316,82.32,54.686,82.32z"/>
			</g>
		</g>
	</g>
	<circle fill="#9EC0DF" cx="85.977" cy="64.87" r="4.421"/>
	<polygon fill="#9EC0DF" points="68.809,85.884 115.802,85.884 106.882,66.073 103.751,68.857 99.549,61.168 86.575,78.287 
		81.555,73.166 	"/>
</g>
</svg>
