<?xml version="1.0" encoding="utf-8"?>
<!-- Generator: Adobe Illustrator 16.0.0, SVG Export Plug-In . SVG Version: 6.00 Build 0)  -->
<!DOCTYPE svg PUBLIC "-//W3C//DTD SVG 1.1//EN" "http://www.w3.org/Graphics/SVG/1.1/DTD/svg11.dtd">
<svg version="1.1" id="Layer_1" xmlns="http://www.w3.org/2000/svg" xmlns:xlink="http://www.w3.org/1999/xlink" x="0px" y="0px"
	 width="164.451px" height="167.701px" viewBox="0 0 164.451 167.701" enable-background="new 0 0 164.451 167.701"
	 xml:space="preserve">
<g>
	<g>
		<path fill="#9EC0DF" d="M160.951,167.701H3.5c-1.93,0-3.5-1.57-3.5-3.5V3.5C0,1.57,1.57,0,3.5,0h157.451c1.93,0,3.5,1.57,3.5,3.5
			v160.701C164.451,166.131,162.88,167.701,160.951,167.701z M3.5,1C2.122,1,1,2.121,1,3.5v160.701c0,1.379,1.122,2.5,2.5,2.5
			h157.451c1.378,0,2.5-1.121,2.5-2.5V3.5c0-1.379-1.122-2.5-2.5-2.5H3.5z"/>
		<g>
			<path fill="#9EC0DF" d="M61.72,124.812v-7.601c0-0.1,0.006-0.585,0.018-1.458s0.018-1.458,0.018-1.756h-0.053l-3.599,10.814
				h-1.725l-3.608-10.797h-0.052c0,0.432,0.005,1.048,0.017,1.848s0.018,1.249,0.018,1.349v7.601h-1.681v-12.872h2.487l3.66,10.885
				h0.053l3.643-10.885h2.496v12.872H61.72z"/>
			<path fill="#9EC0DF" d="M65.958,115.434h1.576v6.226c0,0.688,0.156,1.204,0.468,1.546c0.312,0.341,0.76,0.512,1.344,0.512
				c0.812,0,1.445-0.287,1.9-0.862c0.455-0.575,0.683-1.327,0.683-2.255v-5.166h1.577v9.378h-1.489v-1.366l-0.035-0.035
				c-0.595,1.115-1.588,1.673-2.977,1.673c-0.899,0-1.632-0.245-2.198-0.735s-0.849-1.215-0.849-2.172V115.434z"/>
			<path fill="#9EC0DF" d="M77.447,124.812h-1.576v-12.872h1.576V124.812z"/>
			<path fill="#9EC0DF" d="M81.72,116.738v6.103c0,0.24,0.065,0.422,0.197,0.548s0.366,0.188,0.705,0.188h0.604v1.234
				c-0.572,0.082-0.966,0.123-1.182,0.123c-0.66,0-1.141-0.158-1.445-0.474c-0.304-0.314-0.455-0.825-0.455-1.532v-6.19h-1.27
				v-1.305h1.27v-2.619h1.576v2.619h1.506v1.305H81.72z"/>
			<path fill="#9EC0DF" d="M84.785,113.726v-1.786h1.576v1.786H84.785z M86.361,124.812h-1.576v-9.378h1.576V124.812z"/>
			<path fill="#9EC0DF" d="M88.734,115.434h1.489v1.322h0.035c0.671-1.062,1.605-1.594,2.802-1.594c1.208,0,2.162,0.438,2.859,1.317
				c0.697,0.879,1.046,2.001,1.046,3.367c0,1.529-0.356,2.784-1.068,3.766c-0.712,0.98-1.731,1.471-3.056,1.471
				c-1.086,0-1.918-0.42-2.496-1.261h-0.035v4.702h-1.576V115.434z M90.241,120.564c0,1.004,0.245,1.78,0.735,2.329
				s1.101,0.823,1.83,0.823c0.8,0,1.421-0.325,1.865-0.977c0.444-0.65,0.666-1.533,0.666-2.648c0-1.22-0.213-2.11-0.639-2.671
				c-0.426-0.561-1.068-0.841-1.927-0.841c-0.834,0-1.465,0.328-1.891,0.985C90.454,118.222,90.241,119.222,90.241,120.564z"/>
			<path fill="#9EC0DF" d="M100.442,124.812h-1.576v-12.872h1.576V124.812z"/>
			<path fill="#9EC0DF" d="M110.757,121.869c-0.175,0.97-0.651,1.772-1.427,2.408c-0.683,0.537-1.582,0.812-2.697,0.823
				c-1.313-0.012-2.355-0.442-3.126-1.292c-0.771-0.849-1.156-1.992-1.156-3.428c0-1.646,0.396-2.928,1.191-3.845
				c0.793-0.916,1.897-1.374,3.31-1.374c1.267,0,2.256,0.473,2.969,1.418c0.712,0.946,1.068,2.298,1.068,4.055h-6.856
				c0,0.98,0.228,1.739,0.683,2.276c0.455,0.537,1.138,0.806,2.049,0.806c0.642,0,1.194-0.194,1.655-0.582
				c0.461-0.389,0.715-0.811,0.762-1.266H110.757z M109.251,119.374c-0.082-1.017-0.35-1.735-0.806-2.159
				c-0.455-0.423-1.06-0.635-1.812-0.635c-0.765,0-1.382,0.269-1.852,0.806s-0.719,1.2-0.749,1.988H109.251z"/>
			<path fill="#9EC0DF" d="M43.458,146.332h-1.743V133.46h5.955c1.383,0,2.431,0.295,3.144,0.884
				c0.712,0.59,1.068,1.448,1.068,2.575c0,0.741-0.143,1.36-0.429,1.856s-0.735,0.904-1.349,1.226
				c0.525,0.192,0.905,0.463,1.139,0.81c0.233,0.348,0.368,0.887,0.403,1.616l0.114,2.399c0.012,0.396,0.074,0.676,0.188,0.836
				c0.114,0.161,0.273,0.288,0.478,0.381v0.289H50.27c-0.111-0.321-0.189-0.809-0.236-1.462c-0.047-0.654-0.07-1.244-0.07-1.77
				c0-0.263-0.023-0.531-0.07-0.806s-0.149-0.522-0.307-0.744c-0.157-0.222-0.388-0.401-0.691-0.538
				c-0.304-0.138-0.712-0.206-1.226-0.206h-4.212V146.332z M43.458,139.318h4.028c0.934,0,1.604-0.191,2.01-0.574
				c0.406-0.382,0.608-0.933,0.608-1.65c0-0.653-0.175-1.175-0.525-1.563c-0.35-0.388-0.951-0.582-1.804-0.582h-4.317V139.318z"/>
			<path fill="#9EC0DF" d="M62.188,143.39c-0.175,0.97-0.651,1.772-1.427,2.408c-0.683,0.537-1.582,0.812-2.697,0.823
				c-1.313-0.012-2.355-0.442-3.126-1.292c-0.771-0.849-1.156-1.992-1.156-3.428c0-1.646,0.396-2.928,1.191-3.845
				c0.793-0.916,1.897-1.374,3.31-1.374c1.267,0,2.256,0.473,2.969,1.418c0.712,0.946,1.068,2.298,1.068,4.055h-6.856
				c0,0.98,0.228,1.739,0.683,2.276c0.455,0.537,1.138,0.806,2.049,0.806c0.642,0,1.194-0.194,1.655-0.582
				c0.461-0.389,0.715-0.811,0.762-1.266H62.188z M60.682,140.895c-0.082-1.017-0.35-1.735-0.806-2.159
				c-0.455-0.423-1.06-0.635-1.812-0.635c-0.765,0-1.382,0.269-1.852,0.806s-0.719,1.2-0.749,1.988H60.682z"/>
			<path fill="#9EC0DF" d="M69.474,139.624c-0.023-0.56-0.223-0.963-0.6-1.208c-0.377-0.245-0.918-0.368-1.625-0.368
				c-0.514,0-0.953,0.114-1.318,0.342c-0.365,0.228-0.547,0.555-0.547,0.98c0,0.339,0.108,0.589,0.324,0.749
				c0.216,0.161,0.683,0.331,1.401,0.513l1.559,0.394c0.946,0.239,1.622,0.545,2.027,0.915c0.406,0.371,0.608,0.889,0.608,1.555
				c0,0.922-0.337,1.671-1.011,2.246s-1.575,0.862-2.702,0.862c-1.313,0-2.307-0.272-2.981-0.818s-1.018-1.368-1.029-2.466h1.523
				c0.023,0.648,0.238,1.13,0.644,1.445s1.014,0.473,1.826,0.473c0.66,0,1.184-0.131,1.572-0.394s0.583-0.628,0.583-1.095
				c0-0.333-0.125-0.599-0.376-0.797s-0.748-0.383-1.489-0.552l-1.83-0.446c-0.741-0.188-1.289-0.466-1.642-0.837
				c-0.353-0.37-0.529-0.851-0.529-1.44c0-0.922,0.33-1.651,0.989-2.189c0.66-0.536,1.521-0.805,2.583-0.805
				c1.133,0,2.001,0.275,2.605,0.827c0.604,0.552,0.924,1.257,0.958,2.114H69.474z"/>
			<path fill="#9EC0DF" d="M73.151,136.954h1.489v1.322h0.035c0.671-1.062,1.605-1.594,2.802-1.594c1.208,0,2.162,0.438,2.859,1.317
				c0.697,0.879,1.046,2.001,1.046,3.367c0,1.529-0.356,2.784-1.068,3.766c-0.712,0.98-1.731,1.471-3.056,1.471
				c-1.086,0-1.918-0.42-2.496-1.261h-0.035v4.702h-1.576V136.954z M74.658,142.085c0,1.004,0.245,1.78,0.735,2.329
				s1.101,0.823,1.83,0.823c0.8,0,1.421-0.325,1.865-0.977c0.444-0.65,0.666-1.533,0.666-2.648c0-1.22-0.213-2.11-0.639-2.671
				c-0.426-0.561-1.068-0.841-1.927-0.841c-0.834,0-1.465,0.328-1.891,0.985C74.871,139.742,74.658,140.742,74.658,142.085z"/>
			<path fill="#9EC0DF" d="M82.766,141.63c0-1.396,0.388-2.568,1.165-3.521c0.776-0.951,1.833-1.427,3.17-1.427
				c1.366,0,2.435,0.481,3.205,1.444s1.156,2.131,1.156,3.503c0,1.378-0.382,2.551-1.147,3.52c-0.765,0.97-1.836,1.454-3.214,1.454
				c-1.325,0-2.379-0.47-3.161-1.41C83.157,144.254,82.766,143.065,82.766,141.63z M84.377,141.63c0,1.045,0.236,1.904,0.709,2.579
				c0.473,0.674,1.145,1.011,2.014,1.011c0.899,0,1.582-0.353,2.049-1.06c0.467-0.706,0.7-1.55,0.7-2.53
				c0-0.992-0.233-1.835-0.7-2.526c-0.467-0.692-1.15-1.038-2.049-1.038c-0.835,0-1.498,0.326-1.988,0.977
				C84.623,139.693,84.377,140.556,84.377,141.63z"/>
			<path fill="#9EC0DF" d="M100.945,146.332h-1.576v-5.771c0-0.888-0.155-1.52-0.464-1.896c-0.31-0.377-0.823-0.565-1.542-0.565
				c-0.706,0-1.296,0.269-1.769,0.806c-0.473,0.537-0.709,1.308-0.709,2.312v5.114h-1.576v-9.378h1.489v1.322h0.035
				c0.74-1.062,1.684-1.594,2.833-1.594c1.061,0,1.873,0.281,2.435,0.845s0.844,1.37,0.844,2.421V146.332z"/>
			<path fill="#9EC0DF" d="M108.493,139.624c-0.023-0.56-0.223-0.963-0.6-1.208c-0.377-0.245-0.918-0.368-1.625-0.368
				c-0.514,0-0.953,0.114-1.318,0.342c-0.365,0.228-0.547,0.555-0.547,0.98c0,0.339,0.108,0.589,0.324,0.749
				c0.216,0.161,0.683,0.331,1.401,0.513l1.559,0.394c0.946,0.239,1.622,0.545,2.027,0.915c0.406,0.371,0.608,0.889,0.608,1.555
				c0,0.922-0.337,1.671-1.011,2.246s-1.575,0.862-2.702,0.862c-1.313,0-2.307-0.272-2.981-0.818s-1.018-1.368-1.029-2.466h1.523
				c0.023,0.648,0.238,1.13,0.644,1.445s1.014,0.473,1.826,0.473c0.66,0,1.184-0.131,1.572-0.394s0.583-0.628,0.583-1.095
				c0-0.333-0.125-0.599-0.376-0.797s-0.748-0.383-1.489-0.552l-1.83-0.446c-0.741-0.188-1.289-0.466-1.642-0.837
				c-0.353-0.37-0.529-0.851-0.529-1.44c0-0.922,0.33-1.651,0.989-2.189c0.66-0.536,1.521-0.805,2.583-0.805
				c1.133,0,2.001,0.275,2.605,0.827c0.604,0.552,0.924,1.257,0.958,2.114H108.493z"/>
			<path fill="#9EC0DF" d="M120.113,143.39c-0.175,0.97-0.651,1.772-1.427,2.408c-0.683,0.537-1.582,0.812-2.697,0.823
				c-1.313-0.012-2.355-0.442-3.126-1.292c-0.771-0.849-1.156-1.992-1.156-3.428c0-1.646,0.396-2.928,1.191-3.845
				c0.793-0.916,1.897-1.374,3.31-1.374c1.267,0,2.256,0.473,2.969,1.418c0.712,0.946,1.068,2.298,1.068,4.055h-6.856
				c0,0.98,0.228,1.739,0.683,2.276c0.455,0.537,1.138,0.806,2.049,0.806c0.642,0,1.194-0.194,1.655-0.582
				c0.461-0.389,0.715-0.811,0.762-1.266H120.113z M118.607,140.895c-0.082-1.017-0.35-1.735-0.806-2.159
				c-0.455-0.423-1.06-0.635-1.812-0.635c-0.765,0-1.382,0.269-1.852,0.806s-0.719,1.2-0.749,1.988H118.607z"/>
		</g>
	</g>
	<g>
		<rect x="69.354" y="39.757" fill="#9EC0DF" width="48.095" height="3"/>
		<rect x="69.354" y="60.138" fill="#9EC0DF" width="48.095" height="3"/>
		<rect x="69.354" y="80.516" fill="#9EC0DF" width="48.095" height="3"/>
		<g>
			<path fill="#9EC0DF" d="M60.971,42.493c-0.041-0.019-0.081-0.031-0.121-0.031c-0.088,0-0.164,0.034-0.232,0.102l-0.644,0.642
				c-0.06,0.061-0.089,0.136-0.089,0.224v2.556c0,0.444-0.158,0.822-0.474,1.139c-0.315,0.314-0.695,0.473-1.137,0.473h-8.374
				c-0.444,0-0.821-0.158-1.138-0.473c-0.314-0.316-0.472-0.694-0.472-1.139v-8.372c0-0.443,0.158-0.822,0.472-1.137
				c0.317-0.315,0.694-0.475,1.138-0.475h8.374c0.146,0,0.298,0.02,0.452,0.062c0.041,0.015,0.07,0.019,0.091,0.019
				c0.088,0,0.164-0.033,0.231-0.1l0.493-0.493c0.082-0.08,0.111-0.178,0.09-0.29c-0.019-0.109-0.079-0.185-0.181-0.232
				c-0.362-0.169-0.754-0.253-1.176-0.253h-8.374c-0.798,0-1.481,0.283-2.049,0.852c-0.566,0.566-0.849,1.249-0.849,2.049v8.371
				c0,0.799,0.283,1.481,0.849,2.05c0.568,0.566,1.25,0.851,2.049,0.851h8.374c0.797,0,1.48-0.284,2.047-0.851
				c0.568-0.568,0.851-1.251,0.851-2.05v-3.199C61.172,42.643,61.105,42.547,60.971,42.493L60.971,42.493z M60.971,42.493"/>
			<path fill="#9EC0DF" d="M63.497,36.717L62.39,35.61c-0.161-0.16-0.353-0.241-0.575-0.241c-0.221,0-0.412,0.081-0.573,0.241
				l-6.512,6.512l-2.646-2.647c-0.162-0.162-0.354-0.242-0.575-0.242c-0.22,0-0.413,0.08-0.574,0.242l-1.106,1.106
				c-0.161,0.161-0.241,0.354-0.241,0.573c0,0.222,0.08,0.412,0.241,0.573l4.328,4.329c0.161,0.16,0.352,0.24,0.573,0.24
				c0.222,0,0.413-0.08,0.574-0.24l8.192-8.193c0.16-0.159,0.242-0.35,0.242-0.573C63.739,37.068,63.657,36.878,63.497,36.717
				L63.497,36.717z M63.497,36.717"/>
		</g>
		<g>
			<path fill="#9EC0DF" d="M60.971,62.331c-0.041-0.02-0.081-0.03-0.121-0.03c-0.088,0-0.164,0.033-0.232,0.1l-0.644,0.644
				c-0.06,0.061-0.089,0.136-0.089,0.223v2.558c0,0.442-0.158,0.82-0.474,1.136c-0.315,0.315-0.695,0.474-1.137,0.474h-8.374
				c-0.444,0-0.821-0.158-1.138-0.474c-0.314-0.315-0.472-0.693-0.472-1.136V57.45c0-0.442,0.158-0.823,0.472-1.139
				c0.317-0.314,0.694-0.473,1.138-0.473h8.374c0.146,0,0.298,0.02,0.452,0.062c0.041,0.015,0.07,0.02,0.091,0.02
				c0.088,0,0.164-0.033,0.231-0.102l0.493-0.491c0.082-0.081,0.111-0.178,0.09-0.292c-0.019-0.107-0.079-0.184-0.181-0.232
				c-0.362-0.166-0.754-0.251-1.176-0.251h-8.374c-0.798,0-1.481,0.283-2.049,0.85c-0.566,0.567-0.849,1.25-0.849,2.05v8.373
				c0,0.797,0.283,1.48,0.849,2.047c0.568,0.566,1.25,0.851,2.049,0.851h8.374c0.797,0,1.48-0.284,2.047-0.851
				c0.568-0.566,0.851-1.25,0.851-2.047v-3.201C61.172,62.48,61.105,62.385,60.971,62.331L60.971,62.331z M60.971,62.331"/>
			<path fill="#9EC0DF" d="M63.497,56.555l-1.107-1.105c-0.161-0.162-0.353-0.242-0.575-0.242c-0.221,0-0.412,0.08-0.573,0.242
				l-6.512,6.512l-2.646-2.647c-0.162-0.164-0.354-0.243-0.575-0.243c-0.22,0-0.413,0.079-0.574,0.243l-1.106,1.104
				c-0.161,0.163-0.241,0.354-0.241,0.573c0,0.223,0.08,0.413,0.241,0.574l4.328,4.329c0.161,0.16,0.352,0.239,0.573,0.239
				c0.222,0,0.413-0.079,0.574-0.239l8.192-8.192c0.16-0.159,0.242-0.352,0.242-0.575C63.739,56.907,63.657,56.716,63.497,56.555
				L63.497,56.555z M63.497,56.555"/>
		</g>
		<path fill="#9EC0DF" d="M58.604,88.762h-9.621c-1.177,0-2.135-0.959-2.135-2.137v-9.618c0-1.179,0.958-2.138,2.135-2.138h9.621
			c1.178,0,2.137,0.959,2.137,2.138v9.618C60.741,87.803,59.782,88.762,58.604,88.762z M48.983,76.119
			c-0.488,0-0.885,0.398-0.885,0.888v9.618c0,0.489,0.397,0.887,0.885,0.887h9.621c0.489,0,0.887-0.397,0.887-0.887v-9.618
			c0-0.489-0.398-0.888-0.887-0.888H48.983z"/>
	</g>
</g>
</svg>
