<?xml version="1.0" encoding="utf-8"?>
<!-- Generator: Adobe Illustrator 16.0.0, SVG Export Plug-In . SVG Version: 6.00 Build 0)  -->
<!DOCTYPE svg PUBLIC "-//W3C//DTD SVG 1.1//EN" "http://www.w3.org/Graphics/SVG/1.1/DTD/svg11.dtd">
<svg version="1.1" id="Layer_1" xmlns="http://www.w3.org/2000/svg" xmlns:xlink="http://www.w3.org/1999/xlink" x="0px" y="0px"
	 width="164.451px" height="167.702px" viewBox="0 0 164.451 167.702" enable-background="new 0 0 164.451 167.702"
	 xml:space="preserve">
<g>
	<g>
		<g>
			<path fill="#9EC0DF" d="M160.951,167.702H3.5c-1.93,0-3.5-1.57-3.5-3.5V3.5C0,1.57,1.57,0,3.5,0h157.451c1.93,0,3.5,1.57,3.5,3.5
				v160.702C164.451,166.132,162.881,167.702,160.951,167.702z M3.5,1C2.122,1,1,2.121,1,3.5v160.702c0,1.379,1.122,2.5,2.5,2.5
				h157.451c1.378,0,2.5-1.121,2.5-2.5V3.5c0-1.379-1.122-2.5-2.5-2.5H3.5z"/>
			<g>
				<path fill="#9EC0DF" d="M49.264,126.301c-0.035-0.816-0.34-1.457-0.916-1.922c-0.575-0.464-1.333-0.696-2.272-0.696
					c-0.946,0-1.673,0.194-2.181,0.583c-0.508,0.388-0.762,0.947-0.762,1.677c0,0.391,0.111,0.727,0.333,1.007
					c0.222,0.28,0.619,0.487,1.191,0.622l3.678,0.84c0.992,0.217,1.728,0.627,2.207,1.23c0.479,0.604,0.718,1.342,0.718,2.211
					c0,1.273-0.467,2.241-1.401,2.903s-2.148,0.994-3.643,0.994c-1.139,0-2.036-0.146-2.693-0.438
					c-0.657-0.291-1.239-0.756-1.747-1.392c-0.508-0.637-0.762-1.527-0.762-2.671h1.629c0,0.957,0.318,1.698,0.954,2.224
					s1.503,0.788,2.601,0.788c1.062,0,1.89-0.188,2.482-0.564c0.592-0.377,0.889-0.912,0.889-1.606c0-0.631-0.177-1.103-0.53-1.415
					c-0.353-0.312-1.043-0.588-2.071-0.827l-2.776-0.647c-0.922-0.211-1.611-0.577-2.066-1.1c-0.456-0.522-0.683-1.166-0.683-1.931
					c0-1.156,0.39-2.107,1.169-2.854s1.867-1.121,3.262-1.121c1.576,0,2.792,0.328,3.647,0.985c0.855,0.656,1.314,1.697,1.379,3.121
					H49.264z"/>
				<path fill="#9EC0DF" d="M61.226,132.466c-0.175,0.97-0.651,1.772-1.427,2.408c-0.683,0.537-1.582,0.812-2.697,0.823
					c-1.313-0.012-2.355-0.442-3.126-1.292c-0.771-0.849-1.156-1.992-1.156-3.428c0-1.646,0.396-2.928,1.191-3.845
					c0.793-0.916,1.897-1.374,3.31-1.374c1.267,0,2.256,0.473,2.969,1.418c0.712,0.946,1.068,2.298,1.068,4.055H54.5
					c0,0.98,0.228,1.739,0.683,2.276c0.455,0.537,1.138,0.806,2.049,0.806c0.642,0,1.194-0.194,1.655-0.582
					c0.461-0.389,0.715-0.811,0.762-1.266H61.226z M59.719,129.971c-0.082-1.017-0.35-1.735-0.806-2.159
					c-0.455-0.423-1.06-0.635-1.812-0.635c-0.765,0-1.382,0.269-1.852,0.806s-0.719,1.2-0.749,1.988H59.719z"/>
				<path fill="#9EC0DF" d="M70.989,139.121h-1.576v-4.702h-0.035c-0.601,0.841-1.433,1.261-2.496,1.261
					c-1.313,0-2.329-0.487-3.047-1.462c-0.718-0.976-1.077-2.233-1.077-3.774c0-1.366,0.353-2.488,1.06-3.367
					c0.706-0.879,1.655-1.317,2.846-1.317c1.185,0,2.119,0.531,2.802,1.594H69.5v-1.322h1.489V139.121z M69.483,131.161
					c0-1.331-0.209-2.328-0.626-2.99s-1.052-0.994-1.904-0.994c-0.823,0-1.457,0.269-1.9,0.806s-0.666,1.439-0.666,2.706
					c0,1.127,0.225,2.013,0.674,2.657c0.45,0.646,1.068,0.968,1.856,0.968c0.695,0,1.296-0.263,1.804-0.788
					C69.229,133,69.483,132.212,69.483,131.161z"/>
				<path fill="#9EC0DF" d="M73.266,126.03h1.576v6.226c0,0.688,0.156,1.204,0.468,1.546c0.312,0.341,0.76,0.512,1.344,0.512
					c0.812,0,1.445-0.287,1.9-0.862c0.455-0.575,0.683-1.327,0.683-2.255v-5.166h1.577v9.378h-1.489v-1.366l-0.035-0.035
					c-0.595,1.115-1.588,1.673-2.977,1.673c-0.899,0-1.632-0.245-2.198-0.735s-0.849-1.215-0.849-2.172V126.03z"/>
				<path fill="#9EC0DF" d="M91.121,132.466c-0.175,0.97-0.651,1.772-1.427,2.408c-0.683,0.537-1.582,0.812-2.697,0.823
					c-1.313-0.012-2.355-0.442-3.126-1.292c-0.771-0.849-1.156-1.992-1.156-3.428c0-1.646,0.396-2.928,1.191-3.845
					c0.793-0.916,1.897-1.374,3.31-1.374c1.267,0,2.256,0.473,2.969,1.418c0.712,0.946,1.068,2.298,1.068,4.055h-6.856
					c0,0.98,0.228,1.739,0.683,2.276c0.455,0.537,1.138,0.806,2.049,0.806c0.642,0,1.194-0.194,1.655-0.582
					c0.461-0.389,0.715-0.811,0.762-1.266H91.121z M89.615,129.971c-0.082-1.017-0.35-1.735-0.806-2.159
					c-0.455-0.423-1.06-0.635-1.812-0.635c-0.765,0-1.382,0.269-1.852,0.806s-0.719,1.2-0.749,1.988H89.615z"/>
				<path fill="#9EC0DF" d="M100.753,135.408h-1.576v-5.771c0-0.888-0.155-1.52-0.464-1.896c-0.31-0.377-0.823-0.565-1.542-0.565
					c-0.706,0-1.296,0.269-1.769,0.806c-0.473,0.537-0.709,1.308-0.709,2.312v5.114h-1.576v-9.378h1.489v1.322h0.035
					c0.74-1.062,1.684-1.594,2.833-1.594c1.061,0,1.873,0.281,2.435,0.845s0.844,1.37,0.844,2.421V135.408z"/>
				<path fill="#9EC0DF" d="M108.932,129.183c-0.228-1.337-0.969-2.006-2.224-2.006c-0.776,0-1.401,0.311-1.874,0.933
					c-0.473,0.622-0.709,1.487-0.709,2.597c0,1.208,0.219,2.111,0.657,2.71c0.438,0.599,1.074,0.897,1.909,0.897
					c0.561,0,1.045-0.206,1.454-0.617s0.671-0.947,0.788-1.606h1.524c-0.158,1.161-0.568,2.05-1.23,2.666s-1.52,0.924-2.57,0.924
					c-1.231,0-2.242-0.422-3.03-1.266c-0.788-0.843-1.182-1.989-1.182-3.437c0-1.588,0.394-2.854,1.182-3.801
					c0.788-0.945,1.895-1.418,3.319-1.418c1.039,0,1.867,0.311,2.482,0.933c0.616,0.621,0.959,1.452,1.029,2.491H108.932z"/>
				<path fill="#9EC0DF" d="M120.149,132.466c-0.175,0.97-0.651,1.772-1.427,2.408c-0.683,0.537-1.582,0.812-2.697,0.823
					c-1.313-0.012-2.355-0.442-3.126-1.292c-0.771-0.849-1.156-1.992-1.156-3.428c0-1.646,0.396-2.928,1.191-3.845
					c0.793-0.916,1.897-1.374,3.31-1.374c1.267,0,2.256,0.473,2.969,1.418c0.712,0.946,1.068,2.298,1.068,4.055h-6.856
					c0,0.98,0.228,1.739,0.683,2.276c0.455,0.537,1.138,0.806,2.049,0.806c0.642,0,1.194-0.194,1.655-0.582
					c0.461-0.389,0.715-0.811,0.762-1.266H120.149z M118.643,129.971c-0.082-1.017-0.35-1.735-0.806-2.159
					c-0.455-0.423-1.06-0.635-1.812-0.635c-0.765,0-1.382,0.269-1.852,0.806s-0.719,1.2-0.749,1.988H118.643z"/>
			</g>
		</g>
	</g>
	<g>
		<rect x="54.363" y="41.198" fill="#9EC0DF" width="11.005" height="11.006"/>
		<rect x="72.5" y="41.198" fill="#9EC0DF" width="35.256" height="11.006"/>
		<rect x="54.363" y="61.17" fill="#9EC0DF" width="11.005" height="11.004"/>
		<rect x="72.5" y="61.17" fill="#9EC0DF" width="35.256" height="11.004"/>
		<rect x="54.363" y="81.143" fill="#9EC0DF" width="11.005" height="11.004"/>
		<rect x="72.5" y="81.143" fill="#9EC0DF" width="35.256" height="11.004"/>
		<path fill="#9EC0DF" d="M36.794,78.906c0,7.486,5.264,13.769,12.157,15.599v-4.057c-4.66-1.819-8.1-6.279-8.1-11.542
			c0-3.452,1.414-6.488,3.639-8.516l4.461,4.461V62.694H36.794l4.867,4.865C38.615,70.391,36.794,74.444,36.794,78.906
			L36.794,78.906z"/>
		<path fill="#9EC0DF" d="M122.791,67.112c3.036-2.84,4.866-6.887,4.866-11.346c0-7.497-5.271-13.78-12.156-15.601v4.254
			c4.66,1.835,8.101,6.285,8.101,11.553c0,3.443-1.415,6.479-3.64,8.507l-4.461-4.461v12.155h12.156L122.791,67.112z"/>
	</g>
</g>
</svg>
