<?xml version="1.0" encoding="utf-8"?>
<!-- Generator: Adobe Illustrator 16.0.0, SVG Export Plug-In . SVG Version: 6.00 Build 0)  -->
<!DOCTYPE svg PUBLIC "-//W3C//DTD SVG 1.1//EN" "http://www.w3.org/Graphics/SVG/1.1/DTD/svg11.dtd">
<svg version="1.1" id="Layer_1" xmlns="http://www.w3.org/2000/svg" xmlns:xlink="http://www.w3.org/1999/xlink" x="0px" y="0px"
	 width="164.451px" height="167.701px" viewBox="0 0 164.451 167.701" enable-background="new 0 0 164.451 167.701"
	 xml:space="preserve">
<g>
	<path fill="#9EC0DF" d="M160.951,167.701H3.5c-1.93,0-3.5-1.57-3.5-3.5V3.5C0,1.57,1.57,0,3.5,0h157.451c1.93,0,3.5,1.57,3.5,3.5
		v160.701C164.451,166.131,162.88,167.701,160.951,167.701z M3.5,1C2.122,1,1,2.121,1,3.5v160.701c0,1.379,1.122,2.5,2.5,2.5
		h157.451c1.378,0,2.5-1.121,2.5-2.5V3.5c0-1.379-1.122-2.5-2.5-2.5H3.5z"/>
	<path fill="#9EC0DF" d="M63.966,80.565H26.108V42.708h37.858V80.565z M28.913,77.761h32.249V45.513H28.913V77.761z"/>
	<g>
		<path fill="#9EC0DF" d="M39.165,54.949h11.984l0.114,3.602h-0.507c-0.248-1.132-0.564-1.868-0.947-2.21s-1.188-0.512-2.417-0.512
			h-1.18v10.845c0,0.817,0.127,1.323,0.383,1.519s0.814,0.324,1.677,0.386v0.394h-6.178v-0.394c0.896-0.068,1.456-0.216,1.676-0.442
			s0.331-0.797,0.331-1.71V55.829h-1.19c-1.173,0-1.971,0.169-2.396,0.507s-0.744,1.076-0.958,2.215H39.04L39.165,54.949z"/>
	</g>
	<path fill="#9EC0DF" d="M135.403,80.565H97.546V42.708h37.856V80.565z M100.351,77.761h32.247V45.513h-32.247V77.761z"/>
	<g>
		<path fill="#9EC0DF" d="M111.006,68.578c0.835-0.089,1.354-0.241,1.558-0.458c0.204-0.216,0.305-0.781,0.305-1.694v-9.18
			c0-0.752-0.114-1.243-0.341-1.475c-0.228-0.23-0.735-0.374-1.521-0.429v-0.394h11.291l0.072,3.032h-0.59
			c-0.145-0.969-0.417-1.581-0.818-1.839c-0.4-0.258-1.19-0.387-2.37-0.387h-2.906c-0.284,0-0.465,0.049-0.545,0.146
			s-0.119,0.286-0.119,0.569V61.2h3.074c0.903,0,1.479-0.134,1.728-0.402c0.249-0.268,0.448-0.81,0.6-1.627h0.497v4.896h-0.497
			c-0.159-0.821-0.362-1.364-0.61-1.63s-0.821-0.398-1.718-0.398h-3.074v4.636c0,0.776,0.119,1.271,0.357,1.487
			c0.238,0.217,0.757,0.355,1.558,0.417v0.394h-5.93V68.578z"/>
	</g>
	<g>
		<path fill="#9EC0DF" d="M74.689,60.333c0.738-0.803,1.688-1.204,2.851-1.204c1.156,0,2.113,0.38,2.872,1.139
			c0.759,0.759,1.138,1.769,1.138,3.029c0,1.162-0.368,2.172-1.103,3.03c-0.736,0.858-1.688,1.287-2.855,1.287
			c-1.121,0-2.069-0.411-2.846-1.234s-1.165-1.856-1.165-3.101C73.582,62.118,73.951,61.136,74.689,60.333z M76.087,60.109
			c-0.585,0.531-0.877,1.448-0.877,2.75c0,1.039,0.235,2.008,0.706,2.907c0.471,0.899,1.125,1.349,1.961,1.349
			c0.655,0,1.16-0.301,1.514-0.902c0.354-0.601,0.531-1.389,0.531-2.364c0-1.01-0.226-1.961-0.676-2.854s-1.103-1.34-1.957-1.34
			C76.827,59.654,76.427,59.807,76.087,60.109z"/>
		<path fill="#9EC0DF" d="M82.171,67.054c0.537-0.047,0.894-0.142,1.068-0.284c0.175-0.144,0.263-0.448,0.263-0.915v-3.949
			c0-0.578-0.054-0.991-0.162-1.239c-0.108-0.248-0.305-0.372-0.591-0.372c-0.059,0-0.136,0.007-0.232,0.021
			s-0.197,0.034-0.302,0.057v-0.289c0.332-0.116,0.672-0.236,1.021-0.358c0.349-0.123,0.59-0.21,0.724-0.263
			c0.291-0.111,0.591-0.236,0.899-0.377c0.041,0,0.065,0.015,0.074,0.044c0.009,0.029,0.013,0.091,0.013,0.184v1.437
			c0.375-0.52,0.736-0.925,1.084-1.217s0.71-0.438,1.084-0.438c0.299,0,0.542,0.089,0.729,0.268c0.187,0.178,0.281,0.401,0.281,0.67
			c0,0.239-0.071,0.44-0.214,0.604c-0.143,0.164-0.323,0.245-0.539,0.245c-0.222,0-0.445-0.102-0.67-0.306
			c-0.225-0.205-0.401-0.307-0.53-0.307c-0.205,0-0.455,0.165-0.753,0.494c-0.298,0.33-0.447,0.67-0.447,1.021v3.949
			c0,0.502,0.117,0.851,0.351,1.047c0.233,0.195,0.622,0.287,1.165,0.275v0.289h-4.317V67.054z"/>
	</g>
	<g>
		<path fill="#9EC0DF" d="M34.408,113.48h-4.335v-1.541h10.456v1.541H36.15v11.331h-1.742V113.48z"/>
		<path fill="#9EC0DF" d="M41.317,124.812h-1.576v-9.378h1.489v1.559h0.035c0.683-1.221,1.562-1.83,2.636-1.83
			c0.169,0,0.306,0.017,0.411,0.052v1.638h-0.586c-0.707,0-1.284,0.239-1.734,0.718c-0.45,0.479-0.674,1.074-0.674,1.787V124.812z"
			/>
		<path fill="#9EC0DF" d="M45.494,115.434h1.576v6.226c0,0.688,0.156,1.204,0.468,1.546c0.312,0.341,0.76,0.512,1.344,0.512
			c0.812,0,1.445-0.287,1.9-0.862c0.455-0.575,0.683-1.327,0.683-2.255v-5.166h1.577v9.378h-1.489v-1.366l-0.035-0.035
			c-0.595,1.115-1.588,1.673-2.977,1.673c-0.899,0-1.632-0.245-2.198-0.735s-0.849-1.215-0.849-2.172V115.434z"/>
		<path fill="#9EC0DF" d="M63.349,121.869c-0.175,0.97-0.651,1.772-1.427,2.408c-0.683,0.537-1.582,0.812-2.697,0.823
			c-1.313-0.012-2.355-0.442-3.126-1.292c-0.771-0.849-1.156-1.992-1.156-3.428c0-1.646,0.396-2.928,1.191-3.845
			c0.793-0.916,1.897-1.374,3.31-1.374c1.267,0,2.256,0.473,2.969,1.418c0.712,0.946,1.068,2.298,1.068,4.055h-6.856
			c0,0.98,0.228,1.739,0.683,2.276c0.455,0.537,1.138,0.806,2.049,0.806c0.642,0,1.194-0.194,1.655-0.582
			c0.461-0.389,0.715-0.811,0.762-1.266H63.349z M61.842,119.374c-0.082-1.017-0.35-1.735-0.806-2.159
			c-0.455-0.423-1.06-0.635-1.812-0.635c-0.765,0-1.382,0.269-1.852,0.806s-0.719,1.2-0.749,1.988H61.842z"/>
		<path fill="#9EC0DF" d="M69.207,120.109c0-1.396,0.388-2.568,1.165-3.521c0.776-0.951,1.833-1.427,3.17-1.427
			c1.366,0,2.435,0.481,3.205,1.444s1.156,2.131,1.156,3.503c0,1.378-0.382,2.551-1.147,3.52c-0.765,0.97-1.836,1.454-3.214,1.454
			c-1.325,0-2.379-0.47-3.161-1.41C69.598,122.733,69.207,121.545,69.207,120.109z M70.818,120.109c0,1.045,0.236,1.904,0.709,2.579
			c0.473,0.674,1.145,1.011,2.014,1.011c0.899,0,1.582-0.353,2.049-1.06c0.467-0.706,0.7-1.55,0.7-2.53
			c0-0.992-0.233-1.835-0.7-2.526c-0.467-0.692-1.15-1.038-2.049-1.038c-0.835,0-1.498,0.326-1.988,0.977
			C71.063,118.173,70.818,119.035,70.818,120.109z"/>
		<path fill="#9EC0DF" d="M81.326,124.812H79.75v-9.378h1.489v1.559h0.035c0.683-1.221,1.562-1.83,2.636-1.83
			c0.169,0,0.306,0.017,0.411,0.052v1.638h-0.586c-0.707,0-1.284,0.239-1.734,0.718c-0.45,0.479-0.674,1.074-0.674,1.787V124.812z"
			/>
		<path fill="#9EC0DF" d="M91.983,124.812h-1.743v-12.872h8.914v1.541h-7.171v3.94h6.305v1.541h-6.305V124.812z"/>
		<path fill="#9EC0DF" d="M99.742,118.288c0.035-1.057,0.378-1.842,1.029-2.355s1.598-0.771,2.841-0.771
			c0.993,0,1.824,0.225,2.496,0.674s1.007,1.098,1.007,1.944v5.402c0,0.368,0.166,0.552,0.499,0.552c0.134,0,0.307-0.023,0.517-0.07
			v1.147c-0.286,0.117-0.584,0.175-0.893,0.175c-0.537,0-0.937-0.115-1.2-0.346s-0.4-0.591-0.412-1.081
			c-0.899,1.016-2.029,1.523-3.389,1.523c-0.888,0-1.6-0.251-2.137-0.753s-0.806-1.156-0.806-1.962c0-0.823,0.233-1.488,0.701-1.996
			c0.467-0.508,1.147-0.814,2.04-0.92l2.785-0.341c0.502-0.076,0.753-0.447,0.753-1.112c0-0.49-0.182-0.867-0.547-1.13
			c-0.365-0.263-0.918-0.394-1.66-0.394c-0.66,0-1.166,0.146-1.519,0.438c-0.354,0.292-0.565,0.75-0.635,1.375H99.742z
			 M105.512,120.021c-0.117,0.123-0.346,0.222-0.688,0.298s-0.979,0.175-1.913,0.298c-0.689,0.082-1.195,0.251-1.52,0.508
			c-0.324,0.257-0.486,0.596-0.486,1.016c0,0.514,0.137,0.914,0.412,1.2c0.274,0.286,0.712,0.429,1.313,0.429
			c0.753,0,1.421-0.215,2.005-0.644c0.583-0.429,0.875-0.95,0.875-1.563V120.021z"/>
		<path fill="#9EC0DF" d="M111.239,124.812h-1.576v-12.872h1.576V124.812z"/>
		<path fill="#9EC0DF" d="M118.901,118.104c-0.023-0.56-0.223-0.963-0.6-1.208c-0.377-0.245-0.918-0.368-1.625-0.368
			c-0.514,0-0.953,0.114-1.318,0.342c-0.365,0.228-0.547,0.555-0.547,0.98c0,0.339,0.108,0.589,0.324,0.749
			c0.216,0.161,0.683,0.331,1.401,0.513l1.559,0.394c0.946,0.239,1.622,0.545,2.027,0.915c0.406,0.371,0.608,0.889,0.608,1.555
			c0,0.922-0.337,1.671-1.011,2.246s-1.575,0.862-2.702,0.862c-1.313,0-2.307-0.272-2.981-0.818s-1.018-1.368-1.029-2.466h1.523
			c0.023,0.648,0.238,1.13,0.644,1.445s1.014,0.473,1.826,0.473c0.66,0,1.184-0.131,1.572-0.394s0.583-0.628,0.583-1.095
			c0-0.333-0.125-0.599-0.376-0.797s-0.748-0.383-1.489-0.552l-1.83-0.446c-0.741-0.188-1.289-0.466-1.642-0.837
			c-0.353-0.37-0.529-0.851-0.529-1.44c0-0.922,0.33-1.651,0.989-2.189c0.66-0.536,1.521-0.805,2.583-0.805
			c1.133,0,2.001,0.275,2.605,0.827c0.604,0.552,0.924,1.257,0.958,2.114H118.901z"/>
		<path fill="#9EC0DF" d="M130.521,121.869c-0.175,0.97-0.651,1.772-1.427,2.408c-0.683,0.537-1.582,0.812-2.697,0.823
			c-1.313-0.012-2.355-0.442-3.126-1.292c-0.771-0.849-1.156-1.992-1.156-3.428c0-1.646,0.396-2.928,1.191-3.845
			c0.793-0.916,1.897-1.374,3.31-1.374c1.267,0,2.256,0.473,2.969,1.418c0.712,0.946,1.068,2.298,1.068,4.055h-6.856
			c0,0.98,0.228,1.739,0.683,2.276c0.455,0.537,1.138,0.806,2.049,0.806c0.642,0,1.194-0.194,1.655-0.582
			c0.461-0.389,0.715-0.811,0.762-1.266H130.521z M129.015,119.374c-0.082-1.017-0.35-1.735-0.806-2.159
			c-0.455-0.423-1.06-0.635-1.812-0.635c-0.765,0-1.382,0.269-1.852,0.806s-0.719,1.2-0.749,1.988H129.015z"/>
	</g>
	<g>
		<path fill="#9EC0DF" d="M143.06,13.481c0.721-0.768,1.711-1.151,2.97-1.151c1.164,0,2.096,0.329,2.796,0.985
			c0.7,0.657,1.051,1.496,1.051,2.518c0,0.619-0.127,1.121-0.381,1.506c-0.254,0.386-0.774,0.952-1.562,1.699
			c-0.572,0.543-0.945,1.003-1.117,1.379c-0.173,0.377-0.259,0.933-0.259,1.668H145c0-0.834,0.099-1.507,0.298-2.018
			c0.198-0.511,0.64-1.097,1.325-1.756l0.714-0.692c0.214-0.198,0.388-0.405,0.522-0.621c0.242-0.38,0.363-0.773,0.363-1.183
			c0-0.572-0.174-1.068-0.523-1.488c-0.349-0.421-0.925-0.631-1.73-0.631c-0.995,0-1.684,0.362-2.065,1.086
			c-0.215,0.403-0.337,0.983-0.367,1.742h-1.559C141.979,15.264,142.339,14.25,143.06,13.481z M144.965,23.539h1.743v1.821h-1.743
			V23.539z"/>
	</g>
	<path fill="#9EC0DF" d="M145.6,29.007c-5.894,0-10.689-4.796-10.689-10.69S139.706,7.627,145.6,7.627s10.689,4.795,10.689,10.689
		S151.494,29.007,145.6,29.007z M145.6,8.627c-5.342,0-9.689,4.347-9.689,9.689c0,5.344,4.347,9.69,9.689,9.69
		c5.343,0,9.689-4.347,9.689-9.69C155.289,12.974,150.942,8.627,145.6,8.627z"/>
</g>
</svg>
