<?xml version="1.0" encoding="utf-8"?>
<!-- Generator: Adobe Illustrator 16.0.0, SVG Export Plug-In . SVG Version: 6.00 Build 0)  -->
<!DOCTYPE svg PUBLIC "-//W3C//DTD SVG 1.1//EN" "http://www.w3.org/Graphics/SVG/1.1/DTD/svg11.dtd">
<svg version="1.1" id="Layer_1" xmlns="http://www.w3.org/2000/svg" xmlns:xlink="http://www.w3.org/1999/xlink" x="0px" y="0px"
	 width="164.451px" height="167.701px" viewBox="0 0 164.451 167.701" enable-background="new 0 0 164.451 167.701"
	 xml:space="preserve">
<g>
	<g>
		<g>
			<path fill="#9EC0DF" d="M161.487,166.701H4.037c-1.93,0-3.5-1.57-3.5-3.5V2.5c0-1.93,1.57-3.5,3.5-3.5h157.45
				c1.93,0,3.5,1.57,3.5,3.5v160.701C164.987,165.131,163.417,166.701,161.487,166.701z M4.037,0c-1.378,0-2.5,1.121-2.5,2.5
				v160.701c0,1.379,1.122,2.5,2.5,2.5h157.45c1.379,0,2.5-1.121,2.5-2.5V2.5c0-1.379-1.121-2.5-2.5-2.5H4.037z"/>
			<g>
				<path fill="#9EC0DF" d="M41.014,134.409h-1.848l-3.354-12.872h1.883l2.399,10.473h0.043l2.881-10.473h1.9l2.89,10.473h0.035
					l2.408-10.473h1.935l-3.406,12.872h-1.812l-2.942-10.675h-0.035L41.014,134.409z"/>
				<path fill="#9EC0DF" d="M52.318,129.707c0-1.396,0.388-2.568,1.165-3.521c0.776-0.951,1.833-1.427,3.17-1.427
					c1.366,0,2.435,0.481,3.205,1.444s1.156,2.131,1.156,3.503c0,1.378-0.382,2.551-1.147,3.52c-0.765,0.97-1.836,1.454-3.214,1.454
					c-1.325,0-2.379-0.47-3.161-1.41C52.709,132.331,52.318,131.143,52.318,129.707z M53.93,129.707
					c0,1.045,0.236,1.904,0.709,2.579c0.473,0.674,1.145,1.011,2.014,1.011c0.899,0,1.582-0.353,2.049-1.06
					c0.467-0.706,0.7-1.55,0.7-2.53c0-0.992-0.233-1.835-0.7-2.526c-0.467-0.692-1.15-1.038-2.049-1.038
					c-0.835,0-1.498,0.326-1.988,0.977C54.175,127.771,53.93,128.633,53.93,129.707z"/>
				<path fill="#9EC0DF" d="M64.438,134.409h-1.576v-9.378h1.489v1.559h0.035c0.683-1.221,1.562-1.83,2.636-1.83
					c0.169,0,0.306,0.017,0.411,0.052v1.638h-0.586c-0.707,0-1.284,0.239-1.734,0.718c-0.45,0.479-0.674,1.074-0.674,1.787V134.409z
					"/>
				<path fill="#9EC0DF" d="M70.278,134.409h-1.576v-12.872h1.576V134.409z"/>
				<path fill="#9EC0DF" d="M80.506,134.409h-1.489v-1.287h-0.035c-0.595,1.039-1.498,1.559-2.706,1.559
					c-1.302,0-2.309-0.496-3.021-1.488c-0.712-0.993-1.068-2.242-1.068-3.748c0-1.39,0.353-2.518,1.06-3.385
					c0.706-0.867,1.655-1.3,2.846-1.3c1.173,0,2.107,0.531,2.802,1.594l0.035-0.105v-4.711h1.577V134.409z M73.816,129.689
					c0,1.162,0.23,2.057,0.692,2.684c0.461,0.628,1.074,0.941,1.839,0.941c0.729,0,1.34-0.269,1.83-0.806s0.736-1.319,0.736-2.347
					c0-1.319-0.209-2.313-0.626-2.981c-0.417-0.669-1.052-1.003-1.904-1.003c-0.812,0-1.442,0.266-1.892,0.797
					S73.816,128.411,73.816,129.689z"/>
				<path fill="#9EC0DF" d="M87.521,121.537h5.648c1.109,0,1.993,0.301,2.652,0.901c0.66,0.602,0.99,1.381,0.99,2.338
					c0,0.578-0.145,1.105-0.434,1.581s-0.72,0.845-1.291,1.107c0.803,0.304,1.393,0.707,1.771,1.209s0.567,1.146,0.567,1.935
					c0,1.109-0.4,2.021-1.201,2.732s-1.857,1.068-3.173,1.068h-5.53V121.537z M89.237,126.983h3.16c0.923,0,1.599-0.168,2.027-0.503
					c0.43-0.336,0.645-0.86,0.645-1.572c0-0.613-0.203-1.08-0.609-1.401c-0.406-0.32-1.087-0.481-2.045-0.481h-3.178V126.983z
					 M89.237,132.921h3.713c0.91,0,1.594-0.212,2.049-0.635c0.455-0.424,0.683-0.994,0.683-1.712c0-0.73-0.254-1.274-0.762-1.634
					c-0.508-0.358-1.259-0.538-2.251-0.538h-3.432V132.921z"/>
				<path fill="#9EC0DF" d="M99.228,127.886c0.035-1.057,0.379-1.842,1.029-2.355s1.598-0.771,2.842-0.771
					c0.992,0,1.824,0.225,2.495,0.674s1.007,1.098,1.007,1.944v5.402c0,0.368,0.166,0.552,0.5,0.552c0.134,0,0.307-0.023,0.516-0.07
					v1.147c-0.285,0.117-0.584,0.175-0.893,0.175c-0.537,0-0.938-0.115-1.199-0.346c-0.264-0.23-0.4-0.591-0.412-1.081
					c-0.898,1.016-2.029,1.523-3.389,1.523c-0.888,0-1.6-0.251-2.137-0.753s-0.806-1.156-0.806-1.962c0-0.823,0.233-1.488,0.7-1.996
					s1.147-0.814,2.041-0.92l2.784-0.341c0.502-0.076,0.753-0.447,0.753-1.112c0-0.49-0.182-0.867-0.547-1.13
					s-0.918-0.394-1.66-0.394c-0.659,0-1.166,0.146-1.519,0.438c-0.354,0.292-0.565,0.75-0.636,1.375H99.228z M104.999,129.619
					c-0.117,0.123-0.347,0.222-0.688,0.298c-0.342,0.076-0.98,0.175-1.914,0.298c-0.688,0.082-1.195,0.251-1.52,0.508
					c-0.323,0.257-0.485,0.596-0.485,1.016c0,0.514,0.138,0.914,0.411,1.2c0.274,0.286,0.713,0.429,1.314,0.429
					c0.752,0,1.421-0.215,2.005-0.644c0.583-0.429,0.876-0.95,0.876-1.563V129.619z"/>
				<path fill="#9EC0DF" d="M116.785,134.409h-1.576v-5.771c0-0.888-0.155-1.52-0.464-1.896c-0.31-0.377-0.823-0.565-1.541-0.565
					c-0.707,0-1.297,0.269-1.77,0.806s-0.709,1.308-0.709,2.312v5.114h-1.576v-9.378h1.488v1.322h0.035
					c0.74-1.062,1.685-1.594,2.834-1.594c1.061,0,1.872,0.281,2.435,0.845s0.844,1.37,0.844,2.421V134.409z"/>
				<path fill="#9EC0DF" d="M126.829,134.409h-2.023l-2.924-4.737l-1.313,1.182v3.556h-1.524v-12.872h1.524v7.46l4.036-3.966h2.006
					l-3.582,3.493L126.829,134.409z"/>
			</g>
		</g>
	</g>
</g>
<rect x="32.228" y="19.868" fill="#9EC0DF" width="101" height="21.867"/>
<rect x="32.228" y="48.672" fill="none" stroke="#9EC0DF" stroke-miterlimit="10" width="101" height="21.867"/>
<rect x="48.903" y="30.802" fill="#FFFFFF" stroke="#9EC0DF" stroke-miterlimit="10" width="101" height="21.867"/>
<rect x="32.228" y="77.476" fill="none" stroke="#9EC0DF" stroke-miterlimit="10" width="101" height="21.867"/>
<g>
	<path fill="#9EC0DF" d="M97.56,43.773l-1.349,3.748h-1.787l4.843-12.872h1.971l4.658,12.872h-1.9l-1.27-3.748H97.56z
		 M102.095,42.232l-1.899-5.666h-0.035l-2.066,5.666H102.095z"/>
</g>
<g>
	<path fill="#9EC0DF" d="M78.362,55.32h5.648c1.109,0,1.993,0.301,2.653,0.901c0.659,0.602,0.989,1.381,0.989,2.338
		c0,0.578-0.145,1.105-0.434,1.581s-0.72,0.845-1.291,1.107c0.803,0.304,1.393,0.707,1.771,1.209s0.567,1.146,0.567,1.935
		c0,1.109-0.4,2.021-1.201,2.732s-1.857,1.068-3.173,1.068h-5.53V55.32z M80.079,60.767h3.161c0.922,0,1.598-0.168,2.027-0.503
		c0.429-0.336,0.644-0.86,0.644-1.572c0-0.613-0.203-1.08-0.609-1.401c-0.405-0.32-1.087-0.481-2.044-0.481h-3.179V60.767z
		 M80.079,66.704h3.713c0.91,0,1.594-0.212,2.049-0.635c0.455-0.424,0.683-0.994,0.683-1.712c0-0.73-0.254-1.274-0.762-1.634
		c-0.508-0.358-1.258-0.538-2.25-0.538h-3.433V66.704z"/>
</g>
<g>
	<path fill="#9EC0DF" d="M86.646,84.555c-0.192-0.876-0.597-1.54-1.213-1.992c-0.615-0.452-1.414-0.679-2.395-0.679
		c-1.267,0-2.285,0.46-3.056,1.379c-0.771,0.92-1.156,2.162-1.156,3.727c0,1.81,0.364,3.156,1.095,4.041
		c0.729,0.885,1.786,1.327,3.17,1.327c0.91,0,1.694-0.303,2.351-0.907c0.657-0.604,1.1-1.48,1.327-2.631h1.689
		c-0.228,1.652-0.854,2.911-1.882,3.778c-1.028,0.867-2.277,1.301-3.748,1.301c-1.758,0-3.163-0.604-4.217-1.812
		c-1.054-1.209-1.58-2.887-1.58-5.035c0-2.072,0.55-3.709,1.65-4.908c1.101-1.2,2.553-1.8,4.356-1.8
		c1.494,0,2.706,0.386,3.634,1.156c0.929,0.771,1.48,1.789,1.655,3.056H86.646z"/>
</g>
<path fill="#9EC0DF" d="M143.356,47.702L119.006,39.9l7.8,24.35l5.77-5.692l7.852,7.806l4.99-4.988l-7.844-7.81L143.356,47.702z
	 M143.356,47.702"/>
</svg>
