<?xml version="1.0" encoding="utf-8"?>
<!-- Generator: Adobe Illustrator 22.1.0, SVG Export Plug-In . SVG Version: 6.00 Build 0)  -->
<svg version="1.1" id="Layer_1" xmlns="http://www.w3.org/2000/svg" xmlns:xlink="http://www.w3.org/1999/xlink" x="0px" y="0px"
	 viewBox="0 0 1024 768" style="enable-background:new 0 0 1024 768;" xml:space="preserve">
<style type="text/css">
	.st0{fill:#9DCD67;}
	.st1{fill:#FFFDFA;}
	.st2{fill:#507A93;}
	.st3{fill:#F6852F;}
	.st4{fill:#211D22;}
	.st5{fill:#985D35;}
	.st6{opacity:0.53;fill:#4D2818;enable-background:new    ;}
	.st7{fill:#AD703A;}
	.st8{opacity:0.22;fill:#4D2818;enable-background:new    ;}
	.st9{fill:#4D2818;}
	.st10{opacity:0.35;fill:#4D2818;enable-background:new    ;}
	.st11{opacity:0.2;fill:#FBB37C;enable-background:new    ;}
	.st12{fill:#FBB37C;}
	.st13{fill:#F47C2B;}
	.st14{opacity:0.24;fill:#4D2818;enable-background:new    ;}
	.st15{fill:#B57B93;}
	.st16{fill:#009386;}
	.st17{fill:#54606B;}
</style>
<rect class="st0" width="1024" height="768"/>
<path class="st1" d="M976.1,728.3H47.9c-13.8,0-25-11.3-25-25V45.7c0-13.8,11.3-25,25-25h928.3c13.8,0,25,11.3,25,25v657.5
	C1001.1,717,989.9,728.3,976.1,728.3z"/>
<g>
	<g>
		<path class="st2" d="M947.9,35.5c-0.1,0-0.2,0-0.3,0c-0.7,0-1.4,0.6-1.3,1.3c0,0.7,0.6,1.3,1.3,1.3c0.1,0,0.2,0,0.3,0
			c0.7,0,1.4-0.6,1.3-1.3C949.2,36.2,948.6,35.5,947.9,35.5z"/>
		<path class="st2" d="M954.7,44.1c-1.7,0-1.7,2.7,0,2.7S956.4,44.1,954.7,44.1z"/>
		<path class="st2" d="M962.4,33.7c-1.7,0-1.7,2.7,0,2.7C964.1,36.4,964.1,33.7,962.4,33.7z"/>
		<path class="st3" d="M973.5,44.6c-0.2-0.7-0.5-1.4-1-1.8c-0.1-0.3-0.3-0.6-0.5-0.8c-1-1.1-2.6-1-3.7-0.1c-0.1,0.1-0.2,0.2-0.3,0.2
			c-0.8,0.2-1.5,0.7-2.1,1.3c-0.9,1-1.5,2.4-1.3,3.8c0.1,0.5,0.2,0.9,0.4,1.3c0.1,0.9,0.5,1.7,1.3,2.1c0.9,0.4,1.8,0.5,2.6,0.5
			c0.1,0,0.1,0,0.2,0c2.4,0,4.2-2.1,4.4-4.4C973.7,46,973.7,45.3,973.5,44.6z"/>
		<path class="st3" d="M978.4,40.6c-3.3,0-3.6,5.2-0.2,5.2S981.8,40.6,978.4,40.6z"/>
		<path class="st3" d="M981.1,48c-3.4,0-3.5,5.3-0.1,5.3S984.5,48,981.1,48z"/>
		<path class="st4" d="M958,54.8c-0.4-0.1-0.9-0.2-1.3-0.2c-1.4,0-2.8,1.2-2.7,2.7c0.1,1.4,1.2,2.7,2.7,2.7c0.4,0,0.8,0,1.2-0.1
			c1.1-0.2,2-1.3,2-2.5C959.9,56.3,959.2,55.1,958,54.8z"/>
		<path class="st4" d="M967.6,56.8c-0.2,0-0.4,0-0.5,0c-0.7,0-1.4,0.2-1.9,0.7c-0.5,0.4-0.8,1.2-0.8,1.8c0,0.9,0.5,1.8,1.2,2.3
			c0,0,0,0,0.1,0.1s0.3,0.2,0.5,0.2l0,0l0,0c0.1,0,0.2,0,0.3,0.1c0.1,0,0.2,0,0.3,0h0.1l0,0h0.1c0.2,0,0.3,0,0.5,0
			c0.7,0,1.4-0.2,1.9-0.7c0.5-0.4,0.8-1.2,0.8-1.8C970.1,58.1,969.1,56.7,967.6,56.8z"/>
		<path class="st4" d="M959.5,63.5c-3.4,0-3.5,5.3-0.1,5.3C962.7,68.8,962.9,63.5,959.5,63.5z"/>
	</g>
</g>
<g>
	<ellipse class="st5" cx="46.2" cy="678.2" rx="11.5" ry="11.5"/>
	<path class="st6" d="M55.8,684.5c2-3,2.3-6.6,1.3-9.8c-5.7,3.2-10.1,8.6-12.3,14.9C49,690.1,53.3,688.3,55.8,684.5z"/>
	<path class="st7" d="M153,662.5c0,0,15.4-20.8,23.9-5c0,0,6.9,12.9-3.9,17.5c-8.3,3.5-10,3.4-13.9,1.3
		C159,676.4,154,672.2,153,662.5z"/>
	<path class="st8" d="M157.1,657.9c-2.5,2.4-4.1,4.6-4.1,4.6c1,9.7,6.1,13.9,6.1,13.9c1.7,0.9,3,1.5,4.7,1.5
		C159,672.6,157,665,157.1,657.9z"/>
	<path class="st7" d="M173,675.1c10.8-4.6,3.9-17.5,3.9-17.5c-5.7-10.7-14.6-4.7-19.8,0.3c-0.1,7.2,1.9,14.7,6.6,20
		C165.8,677.9,168.4,677,173,675.1z"/>
	<path class="st9" d="M155.9,672.1c0,0,7.5-12.7,14.9-7.2c2.8,2,3.4,5.9,1.3,8.7c-1.9,2.6-5.6,4.8-13,2.8L155.9,672.1z"/>
	<path class="st7" d="M111.2,649.3c0,0-4.4-25.5-19.1-15.2c0,0-12,8.4-4.4,17.4c5.8,6.9,7.4,7.6,11.9,7.4
		C99.6,658.9,105.9,657.5,111.2,649.3z"/>
	<path class="st10" d="M111.2,649.3c0,0-0.2-1-0.5-2.5c-4.1,5.1-10.5,8-16,11.4c1.5,0.7,2.9,0.8,4.8,0.8
		C99.6,658.9,105.9,657.5,111.2,649.3z"/>
	<path class="st9" d="M105.7,655.4c0,0-1-14.7-10-13.2c-3.4,0.6-5.6,3.7-5.1,7.1c0.5,3.2,2.8,6.9,10.4,8.4L105.7,655.4z"/>
	<path class="st7" d="M89.1,669.6c0,0-3.6,6.3-18.8,5.2c-7.5-0.5-14.9,2.9-19.8,8.6c-0.2,0.2-0.4,0.5-0.6,0.8
		c-5.6,7-7.5,16.4-4.3,24.8c2.4,6.2,7.8,12.9,19.9,16.7l62.6-0.3l-3.2-26.7L89.1,669.6z"/>
	<path class="st6" d="M123.1,713.8c1.2,0.1,2.4,0.1,3.5,0l-1.8-15.2l-35.7-29.1c0,0-1.3,2.3-5.8,3.9
		C78.7,695.9,102.9,710.6,123.1,713.8z"/>
	<path class="st7" d="M123.1,713.8c-20.1-3.2-44.3-17.9-39.8-40.3c-2.9,1-7.1,1.7-13,1.3c-7.5-0.5-14.9,2.9-19.8,8.6
		c-0.2,0.2-0.4,0.5-0.6,0.8c-5.6,7-7.5,16.4-4.3,24.8c2.4,6.2,7.8,12.9,19.9,16.7l62.6-0.3l-1.4-11.5
		C125.4,713.9,124.2,713.9,123.1,713.8z"/>
	<path class="st5" d="M140.3,713.2c-8.9,1.1-40.9-4.7-52.1-23.6c-4.6-7.8-3.8-17.7,2.2-24.6c2.9-3.4,7.1-6.9,13.1-9.7
		c0,0,5.5-3.8,12.1-9.9c4.8-4.4,10.6-7.5,16.9-9c1.9-0.4,4.1-0.9,6.6-1.3c0,0-8.5,4.2-10.1,8.6c0,0,10.8-3.9,17.5-1.5
		c0,0-7.6,2-8.5,4.6c0,0,10.4-1.7,15.1,0.6c0,0-3.8,2-5,3.5c0,0,4.8,0.4,5.4,6.9c0.1,1.5,0.4,2.9,0.7,4.3c0,0.2,0.1,0.3,0.1,0.5
		c1.1,3.9,3.3,10.9,5.7,16c0.2,0.4,0.4,0.9,0.8,1.5c1.7,3.1,4.9,8.8,3.8,12.5C161.2,704.8,148.8,712.2,140.3,713.2z"/>
	<path class="st6" d="M105.6,716.3c0,0-4.1,4.5-9.4,0.1c0,0-7.3,0.8-5.6-6.2c0,0,0-2.1-1.1-4.3c-1.4-2.7-5-3.6-7.6-2l-2,1.1
		c0.1-1.8,0.5-4.6,0.1-7.3l0,0c3.1-2.3,8.1-5,14.8-4.6c6.5,0.4,12.4,4.4,15,10.4C111.6,707.8,111.9,712.9,105.6,716.3z"/>
	<path class="st7" d="M144.4,729.4c0,0,7.3-10.3-4.1-18c0,0-7.8-5.7-18.9,0.5c0,0-3.4,2.2-0.1,5.9c0,0-3.2,3.5,1.5,5.7
		c0,0-2.7,3.9,2.2,6C125,729.6,135.4,730.9,144.4,729.4z"/>
	<path class="st7" d="M107.2,717.3c0,0-4.1,4.5-9.4,0.1c0,0-7.3,0.8-5.6-6.2c0,0,0-2.1-1.1-4.3c-1.4-2.7-5-3.6-7.6-2l-2,1.1
		c0.1-1.8,0.5-4.6,0.1-7.3l0,0c3.1-2.3,8.1-5,14.8-4.6c6.5,0.4,12.4,4.4,15,10.4C113.2,708.8,113.5,714,107.2,717.3z"/>
	<path class="st11" d="M119.9,658.6c-0.4,0-0.9,0.2-1.2,0.5c-3,3-4.9,6.9-5.4,11.1c-0.4,3.4,0.2,7.2,2.9,9.5
		c1.3,1.1,2.9,1.7,4.6,1.6c3.2-0.2,4.7-2.8,5.6-5.4c1.4-4.5,1.1-9.5-0.8-13.8C124.7,660.1,122.1,658.5,119.9,658.6L119.9,658.6z"/>
	<path class="st11" d="M157.7,683.3c-1.6,0.6-3.3,0.6-4.9-0.1c-3.3-1.4-5.1-4.8-5.7-8.2c-0.8-4.1-0.2-8.5,1.7-12.2
		c0.2-0.4,0.5-0.7,1-0.8l0,0c1.3-0.5,3-0.4,4.4,0.1c0,0.2,0.1,0.3,0.1,0.5c1.1,3.9,3.3,10.9,5.7,16c0.2,0.4,0.4,0.9,0.8,1.5
		C160.3,681.5,159.3,682.7,157.7,683.3z"/>
	
		<ellipse transform="matrix(0.9999 -1.563493e-02 1.563493e-02 0.9999 -10.4281 1.9563)" class="st9" cx="119.9" cy="667.9" rx="1.9" ry="3.2"/>
	<path class="st12" d="M131,679.1c4.4-1.1,13-2.2,20.8,3.5c2.1,1.5,3.3,4.1,2.9,6.7c-0.5,3.8-2.9,8.9-12.6,11.2
		c-1.5,0.4-3.9,0.6-5.4,0.1c-7.4-2.2-20.5-10.6-11.4-18.6C127,680.6,129,679.7,131,679.1z"/>
	
		<ellipse transform="matrix(0.1195 -0.9928 0.9928 0.1195 -532.5051 743.4962)" class="st9" cx="152.9" cy="672" rx="3.2" ry="1.9"/>
	<path class="st9" d="M116.6,660.7c0,0,2.9-4.6,7.7-1.2C124.3,659.5,121,653.5,116.6,660.7z"/>
	<path class="st9" d="M152.4,660.9c0,0-3.2-4.4-7.8-0.7C144.6,660.2,147.6,654,152.4,660.9z"/>
	
		<ellipse transform="matrix(0.1549 -0.9879 0.9879 0.1549 -555.5497 716.2535)" class="st9" cx="140.9" cy="682.8" rx="2.5" ry="4.7"/>
	<g>
		<path class="st9" d="M131.8,693.9c-0.5-0.3-1-0.7-1.4-1.2c-2.3-2.7-3-6.4-3.1-6.6l0.6-0.1c0,0,0.7,3.3,2.6,5.8
			c1.3,1.7,4,2.8,6,2.2c2.1-0.6,3.6-2.4,3.8-4.6c0.2-2.7-0.2-4-0.2-4.1l0.2-2.5l0.4,2.4c0.2,1.2,0.3,2.3,0.2,3.4
			c0,0.7,0.1,1.4,0.3,2.1l0,0c0.3,1.1,1.2,2,2.3,2.3s2.2,0.2,3.1-0.5c1.3-1,2.4-2.8,3.2-5.2l0.6,0.2c-0.8,2.5-2,4.4-3.4,5.5
			c-1.1,0.8-2.4,1-3.7,0.6s-2.3-1.4-2.7-2.7v-0.1c-0.6,1.8-2,3.2-3.9,3.8C135,695.1,133.2,694.9,131.8,693.9z"/>
	</g>
	<path class="st9" d="M129.4,685.7c0,0-3-0.2-3.5,2.9C125.9,688.7,124.7,683.9,129.4,685.7z"/>
	<path class="st9" d="M151.7,689.6c0,0-1-2.8-4.1-2C147.6,687.5,151.5,684.4,151.7,689.6z"/>
	
		<ellipse transform="matrix(5.615950e-02 -0.9984 0.9984 5.615950e-02 -575.7264 756.4935)" class="st12" cx="112.3" cy="682.8" rx="2.5" ry="4.1"/>
	
		<ellipse transform="matrix(5.615950e-02 -0.9984 0.9984 5.615950e-02 -536.5629 810.533)" class="st12" cx="160.4" cy="689.1" rx="2.5" ry="4.1"/>
	<path class="st9" d="M97.7,717.4c0,0,2.2-2.4,1.7-4.6C99.4,712.8,99,715.6,97.7,717.4z"/>
	<path class="st9" d="M107.2,717.3c0,0,2.8-2.8,1.9-5.6C109.1,711.7,109,714.5,107.2,717.3z"/>
	<path class="st10" d="M93.9,678c-0.4-1.3-0.5-2.5,0-3.8c0.1-0.2-0.1-0.3-0.3-0.2c-0.4,0.4-0.8,0.7-1.2,1.1c0.2-1.1,0.7-2.1,1.5-2.9
		c0.1-0.1,0-0.3-0.2-0.2c-1.1,1-1.8,2.2-1.9,3.7c0,0.2,0.3,0.4,0.4,0.2c0.3-0.3,0.7-0.7,1-1c-0.3,1.1-0.2,2.2,0.4,3.2
		C93.7,678.3,93.9,678.2,93.9,678z"/>
	<path class="st10" d="M55.7,688.6c0.2-0.2,0-0.5-0.2-0.4c-0.6,0.1-1.2,0.2-1.7,0.4c0.9-1.2,2-2.2,3.3-2.9c0.2-0.1,0.1-0.4-0.1-0.3
		c-1.8,0.9-3.2,2.1-4.3,3.8c-0.1,0.2,0.1,0.6,0.4,0.4c0.5-0.3,1-0.6,1.6-0.7c-1.2,1.2-2,2.6-2.2,4.3c0,0.2,0.3,0.3,0.4,0.1
		C53.4,691.4,54.2,689.8,55.7,688.6z"/>
	<path class="st10" d="M142.9,718.8c-0.5-0.3-1.1-0.5-1.7-0.8c0.5-0.2,1-0.3,1.5-0.2c0.3,0,0.3-0.3,0.2-0.5c-0.7-1-1.4-1.9-2.2-2.8
		c1.2,0.4,2.3,1.1,3.2,2.1c0.1,0.2,0.4,0,0.3-0.2c-1.1-1.4-2.5-2.3-4.3-2.7c-0.2,0-0.5,0.2-0.3,0.4c0.9,0.9,1.7,1.9,2.5,3
		c-0.6,0-1.2,0.2-1.7,0.7c-0.2,0.1-0.1,0.4,0.1,0.5c0.7,0.3,1.4,0.7,2.2,0.9C143.1,719.4,143.2,718.9,142.9,718.8z"/>
	<path class="st10" d="M105.1,704.4c0.2-1.2,0.1-2.4-0.4-3.6c-0.1-0.2-0.4-0.1-0.3,0.1c0.2,0.9,0.4,1.8,0.3,2.7
		c-0.4-0.6-0.9-1.1-1.5-1.6c-0.1-0.1-0.4,0-0.4,0.1c-0.6,1.8-1.6,3.3-3.2,4.4c-0.3,0.2,0.1,0.6,0.4,0.4c1.6-1.1,2.6-2.5,3.2-4.2
		c0.6,0.5,1.1,1.1,1.5,1.8C104.7,704.7,105.1,704.6,105.1,704.4z"/>
	<path class="st10" d="M172.6,663.4c-0.7-1.9-2.3-3.1-4.3-3.4c0.7-0.5,1.5-0.9,2.4-1.2c0.2-0.1,0.2-0.4,0-0.5
		c-3.2-1.8-7.3-1.4-10,1.1c-0.2,0.1,0,0.4,0.2,0.3c2.7-1.9,6-2.3,9-1.1c-0.8,0.4-1.6,0.9-2.4,1.4c-0.2,0.1-0.2,0.5,0.1,0.5
		c2.1,0.2,3.6,1.3,4.8,3.1C172.4,663.7,172.6,663.6,172.6,663.4z"/>
	<path class="st10" d="M105.3,642.2c-2-1.1-3.7-2.9-5.9-3.8c-2-0.8-4.1-0.6-6.1-0.3c-0.3,0.1-0.3,0.6,0,0.6c0.7,0,1.3,0.2,1.8,0.5
		c-2.6,0.5-5,2.4-5.5,5.1c-0.1,0.3,0.3,0.3,0.4,0.1c1.2-2.6,3.1-4.4,6-4.7c0.3,0,0.3-0.4,0.1-0.6c-0.4-0.3-0.7-0.4-1.1-0.6
		c1.8-0.1,3.6,0.1,5.3,1c1.6,0.9,3.1,2.1,4.7,3C105.3,642.6,105.4,642.3,105.3,642.2z"/>
	<path class="st10" d="M139,656.2c-0.3-1-1.6-0.6-2.6-0.2c0.2-0.3,0.3-0.7,0.5-1c0.3-0.7,0.9-1.4,1-2.1c0.1-0.5-0.1-0.8-0.6-0.8
		c-0.9-0.1-2.2,0.9-2.9,1.5c-1,0.8-1.7,1.8-2.2,3c-0.1,0.2,0.3,0.5,0.4,0.2c0.9-1.6,2.1-3,3.8-3.7c0.1-0.1,0.2-0.1,0.4-0.2
		c0.5-0.2,0.6,0,0.2,0.4c0,0.4-0.4,0.9-0.6,1.2c-0.3,0.7-0.7,1.4-1,2c-0.1,0.2,0.2,0.5,0.4,0.4c0.5-0.1,2.5-1,2.3,0.1
		c-0.1,0.6-1.1,1.4-1.4,1.9c-0.1,0.2,0.2,0.6,0.4,0.3C137.7,658.6,139.3,657.2,139,656.2z"/>
	<path class="st10" d="M140.1,675.6c-2.9-0.4-5.8-0.3-8.5,0.9c-0.2,0.1-0.1,0.5,0.1,0.4c2.8-0.6,5.5-1.1,8.4-0.8
		C140.4,676.2,140.4,675.7,140.1,675.6z"/>
	<path class="st10" d="M127.9,703.8c-1.6-0.9-2.9-1.9-4-3.4c-0.2-0.2-0.5,0-0.4,0.2c0,0.3,0,0.5,0,0.8c-1.3-0.8-2.1-1.9-2.7-3.4
		c-0.1-0.3-0.5-0.1-0.4,0.2c0.6,1.7,1.6,2.9,3.1,3.8c0.1,0.1,0.3,0,0.4-0.1c0.1-0.2,0.1-0.4,0.1-0.6c1,1.2,2.2,2.3,3.7,2.7
		C127.9,704.2,128.1,703.9,127.9,703.8z"/>
	<path class="st10" d="M154.2,699.6c-0.8,0.7-1.5,1.4-2.2,2.1c-0.3,0.2-3,2.4-3,1.4c0-0.2-0.2-0.4-0.4-0.2c-1.3,1.1-2.7,1.9-4.3,2.5
		c-0.2,0.1-0.1,0.4,0.1,0.4c1.6-0.4,2.9-1.1,4.2-2.2c0.6,1.8,5.5-3.2,5.9-3.8C154.5,699.7,154.3,699.5,154.2,699.6z"/>
</g>
<g>
	<g>
		<g>
			<g>
				<path class="st13" d="M949.7,707.6l3.3,14.1c18.5,6.8,21.7-3,22-9.8c0.1-2.5-0.4-5-1.1-7.4c-2.9-9.2,3.7-11.6,3.7-11.6
					c5.4-1.9,5.8-4.7,4.9-6.8c-0.8-2.1-2.8-3.6-5-4c-1.9-0.4-3.6-0.4-5,0c-2.1,0.5-3.7,1.6-4.9,3c-1.9,2.3-2.7,5.5-3.1,8.4
					c-0.2,1.6-0.2,3.1-0.2,4.4c0,1.6,0.1,2.6,0.1,2.6c-0.2,3.5-1,5.8-2.3,7.2c-1.2,1.4-2.9,2-4.5,2.1
					C953.7,710,949.7,707.6,949.7,707.6z"/>
				<path class="st14" d="M949.7,707.6c0,0,3.2,1.8,6.6,2.1c1.3,4.2,0.9,8.7-0.5,12.9c-0.9-0.3-1.8-0.6-2.8-0.9L949.7,707.6z"/>
				<path class="st13" d="M881.8,728.5l0.3,1.3l0,0c0,0,0.1,0,0.3,0.1c0.2,0,0.6,0.1,1.1,0.2c0.1,0,0.2,0,0.3,0.1
					c6.7,1.1,31.3,4.3,40.6-3.6c0,0,4.5-7.1-4-15.2c-3.2-3.1-10.3-15.7-20.7-5.4c0,0-6,7.1-0.9,17.6c0,0-7.9-7.2-13.7-3.6
					c0,0,0,0-0.1,0C882.3,721.7,881,725.2,881.8,728.5z"/>
				<path class="st14" d="M891.9,719.3c3.8,1.2,7,4.1,7,4.1c-5.1-10.5,0.9-17.6,0.9-17.6c10.4-10.3,17.5,2.3,20.7,5.4
					c8.4,8.2,4,15.2,4,15.2c-5.9,5-17.8,5.6-27.5,5C893.5,728.6,891.4,724.6,891.9,719.3z"/>
				<path class="st3" d="M897.4,702.9c0,0-31.3-15.9-17.5-36.9l8.8-3.2l-0.9,13.4l15.8,11.3C903.6,687.5,898.2,692.6,897.4,702.9z"
					/>
				<path class="st9" d="M887.3,662.2c0,0-7.3,4.6-7.2,11.8C880,674,878.5,666.5,887.3,662.2z"/>
				<path class="st14" d="M882.4,671.3c0.3-1.3,0.8-2.6,1.4-4.2c-1.7,0.7-3.7,1.2-5.6,1.7c0.4-0.9,1-1.9,1.6-2.8l8.8-3.2l-0.9,13.4
					l15.8,11.3c0,0-5.4,5.1-6.2,15.5c0,0,0.5-0.1-2.1-1.7c0.6-3.9,1.7-8.9,3.9-12.4c-3.1,0.4-8.7-2.4-12.7-5.5
					C882.8,680.5,881.2,675.8,882.4,671.3z"/>
				<path class="st3" d="M895.7,727.9c1,2.3,2.3,3.1,4.8,3.5c25.2,4.8,38.4,2.8,44.9,0.6c3.6-1.2,6.3-4.2,7.2-7.9
					c0.7-2.9,1.7-6.9,1.3-11.3c-0.1-1.6-0.5-3.3-1.1-5c-0.4-1.2-1-2.5-1.7-3.7c-0.3-0.5-0.6-1-1-1.5c-0.9-1.4-1.9-2.7-2.9-3.9
					c-0.8-1-1.5-1.9-2.3-2.7c-1.3-1.4-2.5-2.7-3.6-3.8c-3.2-3.1-5.7-4.8-5.7-4.8h-32C893,694.8,891.7,718.2,895.7,727.9z"/>
				<path class="st14" d="M903.6,687.5h32c0,0,2.5,1.7,5.7,4.8l0.1,0.1c-12.5,6.6-28.8,5.6-41.2-1.6
					C901.2,689.5,902.3,688.4,903.6,687.5z"/>
				<path class="st3" d="M941.4,692.4c1.1,1.1,2.3,2.3,3.5,3.7c0.8,0.8,1.5,1.7,2.3,2.7c1,1.2,1.9,2.6,2.9,3.9c0.3,0.5,0.7,1,1,1.5
					c0.7,1.2,1.3,2.5,1.7,3.7c0.6,1.7,0.9,3.4,1.1,5c0.4,4.4-0.6,8.4-1.3,11.3c-0.9,3.7-3.6,6.6-7.2,7.9c-6.4,2.2-19.6,4.2-44.9-0.6
					c-2.5-0.5-3.8-1.2-4.8-3.5c-3.6-8.5-3-27.6,4.4-37.1C912.6,698,928.9,699,941.4,692.4z"/>
				<path class="st12" d="M895.7,720.1c-0.9-6.8-0.7-18,10.2-19.6c0,0,15.1-1.8,15.1,9.5l6.2,16.7l-6.9,5.9
					c-0.5,0.4-1.1,0.5-1.7,0.4c-2.2-0.6-8-0.4-13.2-1.8C900.2,729.8,896.4,725.5,895.7,720.1z"/>
				<path class="st13" d="M932.6,706.7c0,0,1-9.4-6.9-12.1c-5.6-1.9-11.8,0.6-14.5,5.8c-0.7,1.4-1.2,2.9-1.2,4.7l9.6,12.5
					C919.6,717.6,926.6,707.3,932.6,706.7z"/>
				<path class="st14" d="M917.3,702.9c0,0-8.8-5.9-12.8,8.3c0,0-3,8.7,15.4,8.7C920,719.9,925.3,708.4,917.3,702.9z"/>
				<path class="st13" d="M907.3,718.6c0.1,0.1,0.3,0.1,0.4,0.2c1,0.4,2.2,0.8,3.7,1.1c0.1,0,0.2,0,0.3,0.1c1.9,0.3,4.3,0.5,7.1,0.5
					c0,0,5.3-11.5-2.6-17c0,0-8.8-5.9-12.8,8.3C903.4,711.8,902,716,907.3,718.6z"/>
				<path class="st13" d="M943.2,644.7l5.9,10.4l0.1,0.1c5.1,1.1,8.8,1.1,11.4,0.6c4.4-0.8,7.5-4.9,7.1-9.3
					c-0.3-4.4-2.3-7.7-4.1-9.9c-3.3-3.9-9.1-4.7-13.2-1.7c-0.9,0.7-1.8,1.5-2.5,2.3l0,0c-1.7,1.8-3,3.8-3.8,5.2
					c-0.6,1-0.9,1.7-1,1.9C943.2,644.6,943.2,644.6,943.2,644.7z"/>
				<path class="st9" d="M946.6,650.4c0.5-0.7,3.3-4.5,6.9-6.4c5.6-2.9,11.5,4,7.5,8.9c-1.7,2.1-5.1,3.6-11.8,2.2
					c-0.1,0-0.1,0-0.1-0.1l-2.6-4.5C946.5,650.6,946.5,650.5,946.6,650.4z"/>
				<path class="st3" d="M887.4,664.5l-2,3.3c-1.2,1.9-1.8,4.2-1.7,6.4c0.3,4,2.7,6.7,7.8,9.5c10.3,5.7,28.6,12.8,46.8,7.7
					c1.6-0.5,3.3-1.1,4.7-1.9c3.5-1.9,5.6-5.8,5.4-9.8l-0.1-2c0,0,2.9,5.9,4.1,4.9c0.9-0.7,0-12.4-4.9-21c-0.8-1.4,5,6.1,4.9,4.4
					c-0.1-3.6-4.8-15.3-7.7-22.3c-0.5-1.2-1-2.3-1.3-3.2c-0.8-1.8-1.9-3.5-3.4-4.7c-0.2-0.2-0.5-0.4-0.7-0.6c-1.5-1.2-3.2-2.1-5-2.9
					c-2.8-1.3-5.9-2.1-8.8-2.6c-2.3-0.4-4.6-0.6-6.7-0.7c-0.7,0-1.4,0-2.1,0.1c-4.3,0.3-8.4,2-11.7,4.9l-0.1,0.1
					c-6.4,5.8-17.4,15.8-19.9,19c-0.6,0.8,4.1,0,4.1,0c-9.4,8.5-9,11.5-9.4,13C879.4,667.9,887.4,664.5,887.4,664.5z"/>
				<path class="st9" d="M933.9,653.5c1.6-0.5,3.1-1.4,4.4-2.4c2.6-2,5-4.5,6.5-7.4c-0.5-1.2-1-2.3-1.3-3.2
					c-0.8-1.8-1.9-3.5-3.4-4.7c-0.2-0.2-0.5-0.4-0.7-0.6c-3.2,5.3-5.4,11.1-6.6,17.2C932.6,653.1,933.3,653.7,933.9,653.5z"/>
				<path class="st9" d="M905.1,633.9c0.2,0.8,0.5,1.5,0.8,2.2c2,4.5,4.7,8.7,8.1,12.3c0.3,0.4,0.7,0.7,1.2,0.8c1,0,1.3-1.2,1.3-2.2
					c0.2-4.7,0.2-9.4,0.1-14.1c0-1,0.1-2.5,0.1-4C912.5,629.3,908.3,631,905.1,633.9z"/>
				<path class="st9" d="M924.2,651.2c0.6,0.3,1.3-0.4,1.7-1c3.1-4.4,5.5-9.2,7.4-14.2c0.4-1.2,0.8-2.5,1.1-3.7
					c-2.8-1.3-5.9-2.1-8.8-2.6c-0.7,6.6-1.3,13.2-1.9,19.8C923.5,650.1,923.6,650.9,924.2,651.2z"/>
				<path class="st13" d="M898.8,640c-0.1-0.8-1.2-6.9-4.3-11.2c-3-4.2-8.8-5.1-13.1-2.3c-2.4,1.6-5.2,4.2-6.8,8.2
					c-1.6,4.2,0.1,8.9,4.1,11c2.4,1.3,6,2.3,11.1,2.8c0.1,0,0.1,0,0.2-0.1l8.7-8.2C898.8,640.1,898.8,640.1,898.8,640z"/>
				<path class="st9" d="M893.8,644.7c-0.3-0.8-1.9-5.3-4.8-8.1c-4.5-4.4-12.1,0.4-9.8,6.3c1,2.5,3.8,4.9,10.6,5.6
					c0.1,0,0.1,0,0.2-0.1l3.8-3.6C893.8,644.8,893.8,644.7,893.8,644.7z"/>
				<path class="st14" d="M944.1,713.5c-3.2-3.1-15.4-13.3-25.8-3.1c0,0-6.7,7.5,4.2,15.3c0,0-7.9-7.2-13.7-3.6c0,0,0,0-0.1,0
					c-2.9,1.8-4.2,5.3-3.4,8.6l0.3,1.3c0,0,31.4,5.9,42.4-3.3C948,728.7,952.5,721.6,944.1,713.5z"/>
				<path class="st13" d="M907,731.3v0.2l0.3,1.1c0,0,0,0,0.1,0s0.2,0,0.4,0.1c0.1,0,0.2,0,0.3,0c0.2,0,0.4,0.1,0.7,0.1
					c0.1,0,0.2,0,0.4,0.1c0.6,0.1,1.2,0.2,2,0.3c0.5,0.1,1,0.1,1.6,0.2c9.5,1.2,28.8,2.7,36.9-4.2c0,0,4.5-7.1-4-15.2
					c-3.2-3.1-15.4-13.3-25.8-3.1c0,0-5.9,6.6,2.4,13.9c-2.7-1.9-7.8-4.7-11.9-2.2c0,0,0,0-0.1,0C907.6,724.5,906.2,728,907,731.3z"
					/>
				<path class="st12" d="M926.5,671.7c-5.2-2-8.9-1.8-12,2.5c-2.5,3.5,0.8,9.5,6.4,7.1c2.8-1.2,4.9-7.4,4.3-6.2
					c-4.7,9.6,9.9,13.7,7.1,1.5C931.8,674.2,928.3,672.3,926.5,671.7z"/>
				<path class="st9" d="M928.6,674.1l-3.5,1.5l-2.4-3.1c-0.4-0.5-0.1-1.1,0.4-1.3c1.3-0.3,3.5-0.5,5.7,1.4
					C929.3,673,929.2,673.8,928.6,674.1z"/>
				<g>
					<path class="st9" d="M928.7,684.6c1.3,0,2.9-0.7,4.2-2.6l-0.5-0.3c-1.4,2.1-3.4,2.9-5.2,2c-1.9-1-3.2-3.8-2.1-7.3
						c0.1-0.2,0.6-1.2,0.7-1.5l-0.7-0.4c-0.1,0.2-0.4,1.4-0.5,1.6c-1.4,4-3.4,5.2-4.9,5.5c-1.7,0.3-3.6-0.5-4.7-2.1
						c-1-1.3-1.2-2.7-0.7-3.8l-0.5-0.2c-0.6,1.3-0.3,3,0.8,4.4c1.3,1.7,3.4,2.6,5.3,2.3c1.3-0.2,3-1.1,4.4-3.7
						c-0.1,2.7,1.1,4.8,2.8,5.7C927.5,684.5,928.1,684.6,928.7,684.6z"/>
				</g>
				<path class="st9" d="M915.8,676.6c0,0-2.4-1.9-3.8,0C912,676.5,913,672.3,915.8,676.6z"/>
				<path class="st9" d="M933,684.7c0,0,0.4-3.1-2-3.2C931.1,681.4,935.2,680,933,684.7z"/>
				<ellipse class="st9" cx="937.7" cy="670.6" rx="1.7" ry="2.8"/>
				
					<ellipse transform="matrix(0.2154 -0.9765 0.9765 0.2154 62.4535 1409.2147)" class="st9" cx="908.2" cy="665.7" rx="2.8" ry="1.7"/>
				<path class="st9" d="M913.9,655.3c0,0-3-3.9-7-0.4C906.9,654.9,909.4,649.1,913.9,655.3z"/>
				<path class="st9" d="M933.8,657.9c0,0,3.8-3.1,6.9,1.2C940.8,659.1,939.6,652.9,933.8,657.9z"/>
				
					<ellipse transform="matrix(0.253 -0.9675 0.9675 0.253 19.8419 1372.3402)" class="st12" cx="898.6" cy="673.3" rx="2.2" ry="3.7"/>
				
					<ellipse transform="matrix(0.9892 -0.1463 0.1463 0.9892 -89.3468 145.1458)" class="st12" cx="942.1" cy="680" rx="3.7" ry="2.2"/>
				<path class="st9" d="M940.6,698.4L940.6,698.4c1.5-0.8,3-1.5,4.4-2.4c-1.3-1.4-2.5-2.7-3.6-3.8l-2.7,4
					C937.8,697.6,939.2,699.1,940.6,698.4z"/>
				<path class="st9" d="M943.6,704.1c0.1,0.6,1,0.7,1.6,0.6c1.4-0.2,2.8-0.6,4-1.3c0.3-0.2,0.6-0.4,0.9-0.6
					c-0.9-1.4-1.9-2.7-2.9-3.9c-1.3,1.4-2.4,3-3.4,4.6C943.7,703.6,943.6,703.8,943.6,704.1z"/>
				<path class="st9" d="M953.8,712.9L953.8,712.9c0-1.6-0.4-3.3-1-5c-2.2,0.8-4.8,0.7-5.1,2.3C947.3,712.4,951.7,712.7,953.8,712.9
					z"/>
				<path class="st9" d="M967.6,685.1c0.1,0.2,0.3,0.3,0.4,0.4c1,0.9,2.3,1.5,3.5,2.1c0.9,0.4,2.2,0.7,2.7-0.2
					c0.5-0.8-0.2-1.7-0.7-2.5c-0.6-0.9-0.9-1.9-1.1-2.9C970.3,682.5,968.8,683.6,967.6,685.1z"/>
				<path class="st9" d="M964.3,697.8c1,0.2,2.1,0.2,3.2,0c0.2-0.1,0.4-0.1,0.6-0.3c0.3-0.3,0.2-0.8,0-1.2c-0.3-0.3-0.7-0.5-1-0.7
					c-1-0.5-1.7-1.4-2.4-2.2C964.3,695.1,964.3,696.6,964.3,697.8z"/>
				<path class="st9" d="M957.6,709.8c0.5,0.7,1.2,1.3,2,1.7c1.1,0.6,2.3,0.9,3.5,1.1c1.2,0.1,2-1.2,1.3-2.2
					c-0.6-0.8-1.4-1.6-2.1-2.4c-0.1-0.1-0.1-0.2-0.2-0.3C960.9,709.1,959.2,709.7,957.6,709.8z"/>
				<path class="st9" d="M907.5,732.6c0.1,0,0.2,0,0.4,0.1c0.2-1.3,0.5-3.3,1.4-5C909.3,727.7,907.3,729.4,907.5,732.6z"/>
				<path class="st9" d="M882.1,729.8c0,0,0.1,0,0.3,0.1c0.1-1.3,0.5-3.5,1.5-5.4C883.9,724.4,881.7,726.2,882.1,729.8z"/>
				<path class="st9" d="M883.5,730c0.1,0,0.2,0,0.3,0.1c0.5-1.3,1.3-3.2,2.7-4.8C886.6,725.3,884,726.5,883.5,730z"/>
				<path class="st9" d="M908.9,732.8c0.1,0,0.2,0,0.4,0.1c0.5-1.3,1.3-3.1,2.7-4.6C911.9,728.3,909.4,729.5,908.9,732.8z"/>
				<path class="st9" d="M911.5,719.9c0.1,0,0.2,0,0.3,0.1c-0.1-1.6-0.2-4.6,1-7.4C912.6,712.7,910.4,715.9,911.5,719.9z"/>
				<path class="st9" d="M907.3,718.6c0.1,0.1,0.3,0.1,0.4,0.2c-0.1-1.7,0-4.3,1-6.8C908.6,712.1,906.6,714.9,907.3,718.6z"/>
				<path class="st9" d="M919.4,674.7c0,0-12.8-8.3-22.4-4.4C897.1,670.3,907,665.6,919.4,674.7z"/>
				<path class="st9" d="M918.2,675.3c0,0-14.2-5.5-22.8,0.3C895.4,675.6,904.2,668.9,918.2,675.3z"/>
				<path class="st9" d="M929.6,676.5c0,0,14.9-2.9,22.4,4.4C952,680.9,944.5,672.8,929.6,676.5z"/>
				<path class="st9" d="M930.5,677.5c0,0,15.2,0.2,21,8.8C951.5,686.4,945.8,676.9,930.5,677.5z"/>
				<path class="st9" d="M908.2,632.7c0,0,0.6-2.5-1.2-4.3C907,628.4,909.3,629.6,908.2,632.7z"/>
				<path class="st9" d="M903.6,635.3c0,0,0-3.2-2.6-4.1C901,631.2,904.1,631.8,903.6,635.3z"/>
				<path class="st10" d="M879,633.6c2-2.7,5.6-3.7,8.8-3.1c0.2,0,0.3,0.3,0.1,0.4c-0.4,0.4-0.9,0.7-1.4,0.9c1.2,0.2,2.5,0.7,3.3,1
					c2.4,1,4.2,2.6,5.8,4.6c0.1,0.2-0.2,0.4-0.3,0.2c-1.2-1.7-2.9-3-4.8-3.9c-0.9-0.5-1.8-0.8-2.8-1c-0.5-0.1-1.4-0.4-2.2-0.4
					c-0.4,0.2-0.9,0.3-1.4,0.4c-0.2,0.1-0.4-0.2-0.2-0.4c0.4-0.4,0.9-0.5,1.5-0.6c0.5-0.2,1-0.5,1.5-0.9c-3-0.4-5.7,0.8-7.9,2.9
					C879.1,634,878.9,633.7,879,633.6z"/>
				<path class="st10" d="M950.4,642.2c3.6-1.6,8.6-3.6,12.1-0.9c0.2,0.1,0,0.4-0.2,0.4c-0.9-0.1-1.6,0-2.4,0.2
					c2.5,0.8,4.5,3,4.7,5.7c0,0.2-0.3,0.2-0.3,0.1c-0.7-2.7-2.5-4.8-5.2-5.5c-0.2,0-0.3-0.4-0.1-0.5c0.9-0.4,1.7-0.6,2.6-0.6
					c-3.1-2-8.1-0.1-11.1,1.2C950.3,642.6,950.2,642.3,950.4,642.2z"/>
				<path class="st10" d="M920,668.8c1.4-2,3.9-3,6.3-2.8c0.2,0,0.4,0.4,0.1,0.5c-0.6,0.3-1.1,0.6-1.5,0.9c1.4-0.2,2.8-0.3,4.2-0.1
					c0.3,0,0.4,0.4,0.1,0.5c-0.9,0.3-1.8,0.7-2.8,0.9c-0.2,0-0.4-0.2-0.2-0.3c0.5-0.3,1-0.5,1.6-0.7c-1.3,0-2.5,0.1-3.8,0.4
					c-0.3,0.1-0.5-0.3-0.3-0.5c0.5-0.5,0.9-0.8,1.5-1.2c-1.9,0.1-3.5,1-4.9,2.5C920.2,669.2,919.9,669,920,668.8z"/>
				<path class="st10" d="M922.1,715.7c0.3,3.3,1.5,6.4,3.6,9.1c0.1-0.6,0.2-1.2,0.4-1.8c0.1-0.2,0.3-0.2,0.4,0c0.9,3,3,5.1,5.6,6.7
					c0.2,0.1,0,0.4-0.2,0.3c-2.8-1.1-4.7-3.4-5.6-6.1c-0.1,0.5-0.2,1-0.2,1.6c0,0.2-0.2,0.3-0.4,0.2c-2.3-2.8-3.7-6.2-3.9-9.8
					C921.8,715.5,922.1,715.5,922.1,715.7z"/>
				<path class="st10" d="M918,698.6c2.1-1.2,4.4-1.3,6.7-0.6c0.2,0.1,0.3,0.3,0.1,0.4c-0.4,0.3-0.8,0.6-1.3,0.9
					c1.2,0.4,2.2,1.1,2.9,2.2c0.1,0.2-0.2,0.5-0.3,0.3c-1-1.1-2-1.8-3.4-2.1c-0.3-0.1-0.2-0.4,0-0.5c0.6-0.2,1-0.4,1.4-0.7
					c-2-0.5-4-0.3-5.9,0.5C918,699,917.8,698.7,918,698.6z"/>
				<path class="st10" d="M884.6,688.5c0.7,1.7,1.8,3.3,3.2,4.5c-0.1-0.6-0.1-1.1,0-1.7c0-0.3,0.4-0.3,0.5-0.1
					c0.6,1.5,1.7,2.4,3,3.2c0.2,0.1,0.1,0.4-0.1,0.4c-1.3-0.4-2.3-1.4-2.9-2.5c0,0.4,0,0.8,0.1,1.3c0,0.2-0.2,0.3-0.3,0.1
					c-1.5-1.5-2.7-3-3.6-5C884.3,688.5,884.5,688.4,884.6,688.5z"/>
				<path class="st10" d="M963.1,720.4c2.3,0.2,4.5-0.6,6.1-2.3c-0.5,0-1.1,0-1.6,0.1c-0.3,0-0.4-0.4-0.1-0.5
					c2.2-0.4,2.8-2.7,3.3-4.5c0.1-0.2,0.4-0.1,0.3,0.1c-0.2,1.6-0.7,3.5-2.1,4.4c0.3,0,0.5,0,0.8,0c0.2,0,0.3,0.3,0.2,0.4
					c-1.7,2.1-4.2,3.2-6.9,2.8C962.8,720.8,962.8,720.4,963.1,720.4z"/>
				<path class="st10" d="M919.1,687.1c1.3-0.6,2.7-0.2,3.8,0.5c0.2,0.1-0.1,0.4-0.2,0.3c-1.1-0.8-2.3-0.7-3.5-0.5
					C919.1,687.5,919,687.2,919.1,687.1z"/>
				<path class="st10" d="M889.1,658.8c0.5-1.3,1.5-2.2,2.7-2.7c-0.5,0-1.1,0-1.6,0c-0.2,0-0.3-0.2-0.2-0.4c1.6-1.9,3.5-3.4,5.6-4.7
					c0.1-0.1,0.3,0.1,0.2,0.2c-2,1.2-3.6,2.6-5.1,4.4c0.7,0,1.5,0,2.2,0.2c0.2,0,0.2,0.4,0,0.4c-1.6,0.4-2.6,1.4-3.5,2.7
					C889.3,659.1,889,659,889.1,658.8z"/>
				<path class="st10" d="M947,663.5c1.3,1.5,2,3.3,2.2,5.3c0,0.2-0.2,0.3-0.4,0.2c-0.2-0.2-0.4-0.3-0.6-0.5
					c0.3,1.3,0.5,2.6,0.6,3.9c0,0.2-0.3,0.2-0.3,0.1c-0.4-1.5-0.7-3-0.9-4.5c0-0.2,0.3-0.3,0.4-0.2c0.2,0.2,0.5,0.3,0.7,0.5
					c-0.3-1.7-0.9-3.2-1.9-4.6C946.6,663.5,946.8,663.3,947,663.5z"/>
			</g>
		</g>
		<g>
			<g>
				<path class="st15" d="M980.6,653.8c0.2-0.6,0.8-0.8,1.4-0.8c0.6,0,1.2,0.2,1.5,0.8c0.1,0.3,0.2,0.6,0.1,0.9c0,0,0,0,0,0.1
					c-0.1,2-3,2.1-3.1,0c0-0.1,0-0.1,0-0.2C980.4,654.3,980.4,654,980.6,653.8z"/>
				<path class="st15" d="M978.8,661.7c0.1,0,0.3,0,0.4,0c0.8,0.1,1.6,0.7,1.6,1.6c0,0.3-0.1,0.6-0.2,0.8l0,0
					c-0.2,0.4-0.6,0.6-1,0.7c-0.1,0-0.2,0-0.3,0.1c-0.1,0-0.3,0-0.4,0c-0.8,0-1.6-0.8-1.6-1.6C977.3,662.4,977.9,661.7,978.8,661.7z
					"/>
				<path class="st15" d="M989.6,659.7c0.3-0.1,0.7-0.1,1-0.2c0.8-0.1,1.7,0.8,1.6,1.6c0,0.8-0.7,1.7-1.6,1.6
					c-0.3,0-0.6-0.1-0.9-0.1c-0.6-0.2-1.2-0.7-1.2-1.4C988.5,660.5,988.9,659.9,989.6,659.7z"/>
			</g>
			<g>
				<path class="st16" d="M777.5,701.1c0.2-0.5,0.5-0.9,0.8-1.3c0.4-0.4,0.9-0.6,1.4-0.8c0.9-0.4,2-0.5,3.1-0.3
					c0.6,0.1,1.2,0.9,1.3,1.5c0.2,1.2-0.1,2.4-0.7,3.3c-0.1,0.3-0.3,0.7-0.6,1c-1.1,1.4-3.2,2.4-4.9,1.3
					C776.4,704.8,776.7,702.5,777.5,701.1z"/>
				<g>
					<path class="st16" d="M778.2,708.5C777.9,708.6,777.9,708.6,778.2,708.5L778.2,708.5z"/>
					<path class="st16" d="M777.2,709.1c0.3-0.3,0.7-0.5,1.2-0.5c0.1,0,0.2,0,0.2,0c0.1,0,0.2,0,0.3,0c1,0,1.9,0.9,1.9,1.9
						s-0.8,1.9-1.9,1.9c-0.1,0-0.2,0-0.4,0c-0.5-0.1-0.9-0.2-1.3-0.5c-0.3-0.3-0.6-0.9-0.6-1.3C776.7,709.9,776.8,709.4,777.2,709.1
						z"/>
					<path class="st16" d="M778.3,708.5L778.3,708.5C778.2,708.5,778.2,708.5,778.3,708.5C778.2,708.5,778.2,708.5,778.3,708.5z"/>
					<path class="st16" d="M778.5,708.5L778.5,708.5h-0.2C778.3,708.5,778.4,708.5,778.5,708.5z"/>
				</g>
				<path class="st16" d="M771.4,707.6L771.4,707.6c0-0.5,0.2-1,0.5-1.4c0.3-0.3,0.8-0.6,1.3-0.6c1,0,1.9,0.8,1.9,1.8v0.1
					c0.2,1.1-0.7,2.3-1.9,2.3C772.1,709.9,771.1,708.8,771.4,707.6z"/>
				<g>
					<path class="st4" d="M407.5,692.3c0.4-0.4,0.9-0.7,1.5-0.7c0.1,0,0.3,0,0.4,0c0.6,0,1.1,0.2,1.6,0.6c0.4,0.4,0.7,1,0.7,1.5
						c0,0.8-0.4,1.5-1,1.9c0,0,0,0-0.1,0.1s-0.2,0.1-0.3,0.2c0,0,0,0-0.1,0l0,0c-0.1,0-0.1,0-0.2,0s-0.2,0-0.3,0h-0.1l0,0
						c0,0,0,0-0.1,0s-0.3,0-0.4,0c-1.1,0-2.3-0.9-2.3-2.1C406.9,693.3,407.1,692.7,407.5,692.3z"/>
					<path class="st4" d="M400.6,697.2c0.1,0,0.3,0,0.4,0c0.6,0,1.2,0.2,1.6,0.6c0.4,0.4,0.7,1,0.7,1.5c0,0.8-0.4,1.5-1,1.9
						c0,0,0,0-0.1,0.1s-0.2,0.1-0.4,0.2l0,0l0,0c-0.1,0-0.1,0-0.2,0s-0.2,0-0.3,0h-0.1l0,0c0,0,0,0-0.1,0s-0.3,0-0.4,0
						c-0.6,0-1.2-0.2-1.6-0.6c-0.4-0.4-0.7-1-0.7-1.5C398.4,698.3,399.3,697.2,400.6,697.2z"/>
					<path class="st4" d="M405.8,701.4c0.6-0.7,1.7-1,2.6-0.5c0.4,0.2,0.8,0.5,1.1,0.9c0.4,0.4,0.7,1,0.7,1.6c0,0.5-0.2,1.2-0.6,1.6
						c-0.9,0.8-2.2,0.9-3.1,0.1c-0.3-0.3-0.6-0.6-0.8-1c-0.2-0.4-0.4-0.8-0.3-1.4C405.3,702.2,405.5,701.7,405.8,701.4z"/>
				</g>
			</g>
		</g>
		<g>
			<path class="st0" d="M290.2,717.1c0.1-1.1,0.3-2.3,1-3.2s2.1-1.3,3-0.7c0.8,0.5,1.1,1.5,1.3,2.5c0.6,2.9,1.1,5.8,1.4,8.7
				c-0.6-3.5-0.1-7.3,1.4-10.5c0.4-0.8,0.8-1.6,1.6-2.2c0.7-0.5,1.8-0.6,2.5,0c0.5,0.5,0.7,1.3,0.7,2c0.3,3.8-0.3,7.6-1.7,11.1
				c0.8-2.5,2.1-4.8,3.7-6.9c0.4-0.5,0.9-1.1,1.6-1.2c0.8-0.2,1.7,0.4,2.1,1.1s0.4,1.6,0.3,2.5c-0.4,3.4-2.6,6.6-5.7,8.1
				C295,732.6,289.6,725.1,290.2,717.1z"/>
			<g>
				<path class="st17" d="M296.4,727c-1.4-2.9-2.4-5.6-2.4-8.8c0-0.2-0.4-0.3-0.4,0c0,3.1,0.7,6.4,2.6,8.9
					C296.3,727.3,296.4,727.1,296.4,727z"/>
				<path class="st17" d="M300,716.2c-0.7,2.6-1.4,5.2-1.8,7.8c0,0.3,0.4,0.3,0.5,0.1c0.8-2.5,1.3-5.2,1.8-7.8
					C300.6,716,300.1,715.9,300,716.2z"/>
				<path class="st17" d="M306.3,720.6c-2.1,2.1-4.3,3.9-6.6,5.8c-0.2,0.2,0,0.6,0.3,0.4c2.6-1.2,5.1-3.5,6.8-5.8
					C307,720.7,306.6,720.4,306.3,720.6z"/>
			</g>
		</g>
		<g>
			<path class="st0" d="M835.4,716.9c0.1-0.8,0.2-1.7,0.8-2.4s1.5-1,2.3-0.5c0.6,0.4,0.8,1.1,1,1.8c0.5,2.1,0.8,4.3,1,6.4
				c-0.4-2.6,0-5.4,1.1-7.8c0.3-0.6,0.6-1.2,1.2-1.6c0.6-0.4,1.4-0.4,1.9,0c0.4,0.4,0.5,1,0.6,1.5c0.3,2.8-0.2,5.6-1.3,8.2
				c0.6-1.8,1.5-3.6,2.8-5.1c0.3-0.4,0.7-0.8,1.2-0.9c0.6-0.1,1.2,0.3,1.5,0.8s0.3,1.2,0.2,1.8c-0.3,2.5-1.9,4.9-4.2,6
				C838.9,728.4,834.9,722.8,835.4,716.9z"/>
			<g>
				<path class="st17" d="M840,724.2c-1-2.1-1.8-4.1-1.8-6.5c0-0.2-0.3-0.2-0.3,0c0,2.3,0.5,4.7,1.9,6.6
					C839.9,724.4,840,724.3,840,724.2z"/>
				<path class="st17" d="M842.7,716.2c-0.5,1.9-1.1,3.8-1.3,5.8c0,0.2,0.3,0.2,0.3,0.1c0.6-1.9,1-3.9,1.3-5.8
					C843.1,716,842.7,716,842.7,716.2z"/>
				<path class="st17" d="M847.3,719.5c-1.6,1.5-3.2,2.9-4.9,4.3c-0.2,0.2,0,0.4,0.2,0.3c2-0.9,3.7-2.6,5-4.3
					C847.8,719.6,847.5,719.3,847.3,719.5z"/>
			</g>
		</g>
		<g>
			<path class="st0" d="M173.3,707.5c0.1-0.8,0.2-1.7,0.8-2.4c0.5-0.7,1.5-1,2.3-0.5c0.6,0.4,0.8,1.1,1,1.8c0.5,2.1,0.8,4.3,1,6.4
				c-0.4-2.6,0-5.4,1.1-7.8c0.3-0.6,0.6-1.2,1.2-1.6c0.6-0.4,1.4-0.4,1.9,0c0.4,0.4,0.5,1,0.6,1.5c0.3,2.8-0.2,5.6-1.3,8.2
				c0.6-1.8,1.5-3.6,2.8-5.1c0.3-0.4,0.7-0.8,1.2-0.9c0.6-0.1,1.2,0.3,1.5,0.8s0.3,1.2,0.2,1.8c-0.3,2.5-1.9,4.9-4.2,6
				C176.9,718.9,172.9,713.4,173.3,707.5z"/>
			<g>
				<path class="st17" d="M177.9,714.8c-1-2.1-1.8-4.1-1.8-6.5c0-0.2-0.3-0.2-0.3,0c0,2.3,0.5,4.7,1.9,6.6
					C177.8,715,177.9,714.9,177.9,714.8z"/>
				<path class="st17" d="M180.6,706.7c-0.5,1.9-1.1,3.8-1.3,5.8c0,0.2,0.3,0.2,0.3,0.1c0.6-1.9,1-3.9,1.3-5.8
					C181,706.6,180.7,706.6,180.6,706.7z"/>
				<path class="st17" d="M185.3,710.1c-1.6,1.5-3.2,2.9-4.9,4.3c-0.2,0.2,0,0.4,0.2,0.3c2-0.9,3.7-2.6,5-4.3
					C185.8,710.1,185.5,709.9,185.3,710.1z"/>
			</g>
		</g>
		<g>
			<path class="st0" d="M916.6,695.3c0.1-1.3,0.4-2.6,1.2-3.6s2.4-1.5,3.5-0.8c0.9,0.6,1.3,1.8,1.5,2.8c0.7,3.3,1.3,6.6,1.6,9.9
				c-0.6-4-0.1-8.3,1.6-12c0.4-0.9,1-1.9,1.8-2.5c0.9-0.6,2.1-0.7,2.9,0c0.6,0.6,0.8,1.5,0.8,2.3c0.4,4.3-0.3,8.7-2,12.6
				c0.9-2.8,2.4-5.5,4.3-7.8c0.5-0.6,1-1.2,1.8-1.4c0.9-0.2,1.9,0.4,2.3,1.3c0.4,0.8,0.5,1.9,0.4,2.8c-0.4,3.9-2.9,7.6-6.5,9.3
				C922.1,712.9,915.9,704.4,916.6,695.3z"/>
			<g>
				<path class="st17" d="M923.7,706.6c-1.5-3.3-2.7-6.3-2.8-10c0-0.3-0.4-0.3-0.4,0c0,3.6,0.8,7.3,3,10.2
					C923.6,706.8,923.8,706.7,923.7,706.6z"/>
				<path class="st17" d="M927.9,694.2c-0.8,2.9-1.6,5.9-2,9c0,0.3,0.4,0.4,0.5,0.1c0.9-2.9,1.5-6,2.1-9
					C928.5,694,928,693.9,927.9,694.2z"/>
				<path class="st17" d="M935.1,699.3c-2.4,2.4-4.9,4.4-7.5,6.6c-0.3,0.2,0,0.6,0.4,0.5c3-1.4,5.8-4,7.7-6.6
					C935.8,699.4,935.3,699,935.1,699.3z"/>
			</g>
		</g>
	</g>
	<path class="st0" d="M859,719.6c-5.1,2-10.2,4.3-13.5,7.6s-4.5,7.9-1.5,11.3c3.6,4.1,11.4,5.4,18.3,6.2c44.4,5,89.9,4.8,134-0.4
		c9.4-1.1,20-3.1,24.1-8.9c4.6-6.5-1.7-14.2-9.4-19.4C972.1,690.1,899.9,703.3,859,719.6z"/>
	<path class="st0" d="M720.5,716.3c0.1-1.6,0.4-3.3,1.4-4.5s2.9-1.9,4.3-1c1.2,0.7,1.6,2.2,1.9,3.5c0.9,4,1.6,8.1,2,12.2
		c-0.8-5-0.1-10.2,2-14.8c0.5-1.2,1.2-2.3,2.2-3c1.1-0.7,2.6-0.8,3.5,0c0.8,0.7,1,1.8,1,2.8c0.5,5.3-0.4,10.7-2.5,15.5
		c1.1-3.5,2.9-6.8,5.2-9.6c0.6-0.7,1.3-1.5,2.2-1.7c1.2-0.2,2.3,0.5,2.9,1.6c0.6,1,0.6,2.3,0.5,3.4c-0.5,4.8-3.6,9.3-8,11.4
		C727.3,738,719.7,727.5,720.5,716.3z"/>
	<path class="st0" d="M548.3,725.1c-0.9-1.3-1.6-2.9-1.5-4.5s1.2-3.2,2.8-3.4c1.3-0.1,2.6,0.8,3.6,1.7c3.1,2.7,6.1,5.5,8.9,8.6
		c-3.6-3.5-6.2-8.1-7.2-13c-0.3-1.2-0.4-2.6,0-3.8s1.6-2.2,2.8-2.1c1,0.1,1.8,0.9,2.5,1.6c3.5,3.9,6.1,8.8,7.3,13.9
		c-1.2-3.5-1.7-7.2-1.6-10.9c0-0.9,0.1-2,0.8-2.7c0.8-0.9,2.2-1,3.3-0.5s1.8,1.5,2.4,2.5c2.5,4.2,2.7,9.6,0.4,13.9
		C566.7,738.5,554.4,734.6,548.3,725.1z"/>
	<path class="st0" d="M126.7,716.4c3.6,2,7.2,4.3,9.7,7.7c2.4,3.4,3.4,8.1,1.4,11.7c-2.3,4.3-7.7,5.7-12.5,6.6
		c-30.7,5.7-62.3,6.2-93.1,1.4c-6.6-1-14-2.9-17-8.9c-3.4-6.7,0.7-14.7,5.9-20.1C47.1,687.4,97.7,700.2,126.7,716.4z"/>
	<path class="st0" d="M68,682.6c-0.1-2.7-0.5-5.5-2.1-7.6s-4.7-3.3-7.1-2c-2,1.1-2.8,3.5-3.4,5.7c-1.8,6.6-3.2,13.4-4.2,20.2
		c1.7-8.3,0.9-17-2.3-24.9c-0.8-2-1.8-4-3.5-5.2c-1.7-1.3-4.3-1.6-5.9-0.3c-1.3,1.1-1.7,2.9-2,4.7c-1.2,8.8-0.2,17.9,2.9,26.2
		c-1.7-5.9-4.4-11.6-8-16.5c-0.9-1.3-2-2.6-3.6-2.9c-1.9-0.5-4,0.7-5,2.4s-1.2,3.8-1,5.7c0.5,8.1,5.4,15.8,12.5,19.7
		C55.1,718.5,68.6,701.4,68,682.6z"/>
	<g>
		<path class="st17" d="M559.6,714.9c-0.3-0.4-1-0.1-0.7,0.4c2.9,5,4,9.8,4.6,15.5c0,0.4,0.6,0.3,0.7-0.1
			C564.7,725.3,562.7,719.4,559.6,714.9z"/>
		<path class="st17" d="M571,717.6c0-0.4-0.7-0.5-0.7,0c0.1,4.9-1.5,8.7-3.9,12.9c-0.1,0.2,0.2,0.6,0.4,0.3
			C570.1,727.4,571.3,722.3,571,717.6z"/>
		<path class="st17" d="M558.6,729.2c-1.6-2.3-4.2-3.8-6.8-4.6c-0.3-0.1-0.5,0.3-0.2,0.5c2.6,1.1,4.5,2.8,6.6,4.6
			C558.5,729.9,558.8,729.4,558.6,729.2z"/>
	</g>
	<g>
		<path class="st17" d="M729.3,730.2c-1.9-4-3.3-7.8-3.4-12.3c0-0.3-0.5-0.4-0.5,0c0,4.4,1,9,3.7,12.5
			C729.1,730.6,729.4,730.4,729.3,730.2z"/>
		<path class="st17" d="M734.4,715c-1,3.6-2,7.3-2.5,11c-0.1,0.4,0.5,0.5,0.6,0.1c1.2-3.6,1.9-7.3,2.6-11
			C735.2,714.7,734.5,714.6,734.4,715z"/>
		<path class="st17" d="M743.2,721.3c-3,2.9-6.1,5.5-9.3,8.1c-0.3,0.3,0.1,0.8,0.4,0.6c3.7-1.7,7.1-4.9,9.5-8.2
			C744.2,721.4,743.6,720.9,743.2,721.3z"/>
	</g>
	<g>
		<path class="st17" d="M44.5,678.6c-0.1-0.4-0.8-0.3-0.7,0.1c1.9,7.3,2,14.3,1.5,21.8c0,0.4,0.6,0.5,0.7,0.1
			C47.6,693.5,46.7,685.5,44.5,678.6z"/>
		<path class="st17" d="M62.7,683.1c-0.1-0.4-0.7-0.3-0.6,0c0.1,8.6-6.6,16-10.7,23c-0.2,0.3,0.2,0.7,0.5,0.5
			c3.2-3.1,5.7-7.4,7.6-11.4C61.3,691.5,63.5,687.3,62.7,683.1z"/>
		<path class="st17" d="M28.7,690.5c-0.3-0.4-0.9,0.1-0.6,0.5c3.6,6,5.9,12.2,8.1,18.8c0.1,0.4,0.6,0.3,0.6-0.1
			C35.9,702.8,32.8,696,28.7,690.5z"/>
	</g>
	<path class="st0" d="M967.9,692.9c-0.5-1.6-0.8-3.2-0.3-4.8c0.5-1.5,2.1-2.8,3.7-2.6c1.4,0.2,2.3,1.5,3.1,2.6
		c2.4,3.5,4.5,7.1,6.4,10.8c-2.6-4.4-3.9-9.6-3.6-14.8c0.1-1.3,0.3-2.6,1-3.7c0.7-1.1,2.1-1.8,3.4-1.3c1,0.4,1.6,1.4,2,2.3
		c2.4,4.8,3.6,10.3,3.5,15.6c-0.2-3.7,0.3-7.5,1.4-11.1c0.3-0.9,0.7-1.9,1.5-2.4c1-0.6,2.4-0.4,3.3,0.4s1.4,1.9,1.7,3.1
		c1.3,4.8,0,10.2-3.3,13.8C982.5,711,971.3,703.8,967.9,692.9z"/>
	<g>
		<path class="st17" d="M980.1,702.2c-1.3-1.9-2.9-3.5-4-5.6s-1.9-4.2-2.6-6.4c-0.1-0.3-0.5-0.1-0.5,0.1c0.8,4.3,3.2,9.5,6.8,12.2
			C980,702.6,980.3,702.4,980.1,702.2z"/>
		<path class="st17" d="M982.6,686.7c-0.1-0.3-0.4-0.2-0.4,0.1c0.3,2.6,0.5,5.2,0.4,7.8c-0.1,2.4-0.6,4.8-1,7.2
			c0,0.2,0.3,0.3,0.4,0.1C983.7,697.2,983.9,691.5,982.6,686.7z"/>
		<path class="st17" d="M992.5,689.4c0-0.3-0.4-0.4-0.5-0.1c-0.5,2.1-1,4.2-1.9,6.2c-0.9,2.2-2.2,4.1-3.5,6.1
			c-0.2,0.2,0.2,0.6,0.4,0.4C990.1,698.7,992.3,693.8,992.5,689.4z"/>
	</g>
	<path class="st0" d="M105.4,705.3c-0.2-1.5-0.3-3,0.4-4.3c0.7-1.3,2.2-2.3,3.6-1.8c1.2,0.4,1.9,1.6,2.4,2.8c1.6,3.4,3,6.9,4.3,10.5
		c-1.7-4.3-2.1-9.1-1.2-13.7c0.2-1.1,0.6-2.3,1.4-3.2s2.2-1.3,3.2-0.7c0.8,0.5,1.2,1.4,1.5,2.3c1.5,4.6,1.8,9.7,1,14.5
		c0.3-3.4,1.3-6.7,2.8-9.7c0.4-0.8,0.9-1.6,1.6-1.9c1-0.4,2.2,0,2.9,0.8s1,1.9,1.1,3c0.5,4.4-1.4,9.1-4.9,11.9
		C115.9,723.4,106.9,715.5,105.4,705.3z"/>
	<g>
		<path class="st17" d="M116.3,715.6c-1.2-1.7-2.6-3.2-3.7-5.1c-1-1.9-1.7-3.8-2.3-5.8c-0.1-0.2-0.5-0.1-0.4,0.1
			c0.7,3.9,2.9,8.6,6.2,11C116.2,716,116.5,715.8,116.3,715.6z"/>
		<path class="st17" d="M118.6,701.6c-0.1-0.2-0.4-0.2-0.4,0c0.2,2.4,0.5,4.7,0.3,7.1c-0.1,2.2-0.5,4.3-0.9,6.5
			c0,0.2,0.3,0.3,0.4,0.1C119.5,711.1,119.7,706,118.6,701.6z"/>
		<path class="st17" d="M127.5,704c0-0.2-0.4-0.4-0.5-0.1c-0.5,1.9-0.9,3.8-1.7,5.6c-0.9,2-2,3.7-3.2,5.5c-0.1,0.2,0.2,0.6,0.4,0.4
			C125.3,712.5,127.3,708.1,127.5,704z"/>
	</g>
</g>
<g>
	<path class="st3" d="M78.8,607.7c0.3-0.9,1-1.6,2-1.6s1.8,0.6,2.1,1.5c0.2,0.4,0.2,0.9,0.1,1.3c0,1.1-0.9,2.2-2.1,2.2
		s-2.2-0.9-2.2-2.1C78.7,608.5,78.6,608.1,78.8,607.7z"/>
	<path class="st3" d="M67.4,609.7c2.9,0,2.9,4.4,0,4.4C64.6,614.1,64.5,609.7,67.4,609.7z"/>
	<path class="st3" d="M75.6,623.1c2.9,0,2.9,4.5,0,4.5S72.7,623.1,75.6,623.1z"/>
</g>
</svg>
