<?xml version="1.0" encoding="utf-8"?>
<!-- Generator: Adobe Illustrator 21.0.0, SVG Export Plug-In . SVG Version: 6.00 Build 0)  -->
<svg version="1.1" id="Layer_1" xmlns="http://www.w3.org/2000/svg" xmlns:xlink="http://www.w3.org/1999/xlink" x="0px" y="0px"
	 viewBox="0 0 58.9 58.9" style="enable-background:new 0 0 58.9 58.9;" xml:space="preserve">
<style type="text/css">
	.st0{fill:url(#SVGID_1_);}
	.st1{fill:#FFFFFF;}
</style>
<g>
	
		<linearGradient id="SVGID_1_" gradientUnits="userSpaceOnUse" x1="-152.5695" y1="500.2874" x2="-152.5695" y2="557.7149" gradientTransform="matrix(1 0 0 1 182.0195 -499.3477)">
		<stop  offset="0" style="stop-color:#7BBF40"/>
		<stop  offset="1" style="stop-color:#47A537"/>
	</linearGradient>
	<path class="st0" d="M58.9,50c0,4.9-4,8.8-8.8,8.8H8.8C4,58.9,0,54.9,0,50V8.8C0,4,4,0,8.8,0H50c4.9,0,8.8,4,8.8,8.8V50H58.9z"/>
</g>
<g>
	<g>
		<path class="st1" d="M49,28.6c-0.4,0-0.7,0.3-0.7,0.7v15.2c0,1-0.8,1.8-1.8,1.8H12.6c-1,0-1.8-0.8-1.8-1.8V18.4
			c0-1,0.8-1.8,1.8-1.8h24.9c0.4,0,0.7-0.3,0.7-0.7c0-0.4-0.3-0.7-0.7-0.7H12.6c-1.7,0-3.1,1.5-3.1,3.2v26.1c0,1.8,1.4,3.2,3.2,3.2
			h33.8c1.8,0,3.2-1.4,3.2-3.2V29.3C49.6,28.9,49.3,28.6,49,28.6z"/>
	</g>
</g>
<g>
	<g>
		<path class="st1" d="M47.1,10.8c-4.7,0-8.5,3.8-8.5,8.5s3.8,8.5,8.5,8.5c1.9,0,3.8-0.7,5.4-1.9c0.3-0.2,0.3-0.7,0.1-1
			s-0.7-0.3-1-0.1c-1.3,1-2.9,1.6-4.5,1.6c-3.9,0-7.1-3.2-7.1-7.1s3.2-7.1,7.1-7.1s7.1,3.2,7.1,7.1c0,1.4-0.4,2.8-1.2,4
			c-0.2,0.3-0.1,0.7,0.2,1c0.3,0.2,0.7,0.1,1-0.2c0.9-1.4,1.5-3,1.5-4.7C55.6,14.6,51.8,10.8,47.1,10.8z"/>
	</g>
</g>
<g>
	<g>
		<path class="st1" d="M48,23.4L47.9,20l3.4-0.1c0.4,0,0.7-0.3,0.7-0.7c0-0.4-0.3-0.7-0.7-0.7l-3.5,0.2l-0.1-3.4
			c0-0.4-0.3-0.7-0.7-0.7c-0.4,0-0.7,0.3-0.7,0.7l0.1,3.4L43,18.8c-0.4,0-0.7,0.3-0.7,0.7c0,0.1,0.1,0.4,0.2,0.5
			c0.1,0.1,0.4,0.2,0.5,0.2l3.4-0.1l0.1,3.4c0,0.1,0.1,0.4,0.2,0.5c0.1,0.1,0.4,0.2,0.5,0.2C47.7,24.1,48,23.8,48,23.4z"/>
	</g>
</g>
<g>
	<g>
		<path class="st1" d="M36.4,24H21.7c-0.7,0-1.2,0.5-1.2,1.2v2.4c0,0.7,0.5,1.2,1.2,1.2s1.2-0.5,1.2-1.2v-1.2h4.9v13.4h-1.2
			c-0.7,0-1.2,0.5-1.2,1.2s0.5,1.2,1.2,1.2h4.9c0.7,0,1.2-0.5,1.2-1.2s-0.5-1.2-1.2-1.2h-1.2V26.4h4.9v1.2c0,0.7,0.5,1.2,1.2,1.2
			c0.7,0,1.2-0.5,1.2-1.2v-2.4C37.6,24.5,37,24,36.4,24z"/>
	</g>
</g>
</svg>
