<?xml version="1.0" encoding="utf-8"?>
<!-- Generator: Adobe Illustrator 22.1.0, SVG Export Plug-In . SVG Version: 6.00 Build 0)  -->
<svg version="1.1" id="Capa_1" xmlns="http://www.w3.org/2000/svg" xmlns:xlink="http://www.w3.org/1999/xlink" x="0px" y="0px"
	 viewBox="0 0 512 512" style="enable-background:new 0 0 512 512;" xml:space="preserve">
<style type="text/css">
	.st0{fill:#7FD143;}
</style>
<g>
	<path class="st0" d="M100.3,500.6c0,6.3,5.1,11.4,11.4,11.4h288.6c6.3,0,11.4-5.1,11.4-11.4V132.2H100.3V500.6L100.3,500.6z
		 M320,194.9h42.6v247.9H320V194.9z M234.7,194.9h42.6v247.9h-42.6L234.7,194.9L234.7,194.9z M149.4,194.9H192v247.9h-42.6V194.9z"
		/>
	<path class="st0" d="M351.8,52.3V11.4c0-6.3-5.1-11.4-11.4-11.4h-169c-6.3,0-11.4,5.1-11.4,11.4v40.9v7.1v7.1H80.7
		c-6.3,0-11.4,5.1-11.4,11.4v28.8c0,6.3,5.1,11.4,11.4,11.4h19.6h311.4h19.6c6.3,0,11.4-5.1,11.4-11.4V77.8
		c0-6.3-5.1-11.4-11.4-11.4h-79.5v-7.1L351.8,52.3L351.8,52.3z M309.2,64.1H202.8v-4.8v-7.1v-9.6h106.4v9.6v7.1V64.1z"/>
</g>
</svg>
