<?xml version="1.0" encoding="utf-8"?>
<!-- Generator: Adobe Illustrator 22.1.0, SVG Export Plug-In . SVG Version: 6.00 Build 0)  -->
<svg version="1.1" id="Layer_1" xmlns="http://www.w3.org/2000/svg" xmlns:xlink="http://www.w3.org/1999/xlink" x="0px" y="0px"
	 viewBox="0 0 58.9 58.9" style="enable-background:new 0 0 58.9 58.9;" xml:space="preserve">
<style type="text/css">
	.st0{fill:url(#SVGID_1_);}
	.st1{fill:#FFFFFF;}
</style>
<g>
	
		<linearGradient id="SVGID_1_" gradientUnits="userSpaceOnUse" x1="-152.5695" y1="-440.2874" x2="-152.5695" y2="-497.7149" gradientTransform="matrix(1 0 0 -1 182.0195 -439.3477)">
		<stop  offset="0" style="stop-color:#7BBF40"/>
		<stop  offset="1" style="stop-color:#47A537"/>
	</linearGradient>
	<path class="st0" d="M58.9,50c0,4.9-4,8.8-8.8,8.8H8.8C4,58.9,0,54.9,0,50V8.8C0,4,4,0,8.8,0H50c4.9,0,8.8,4,8.8,8.8V50H58.9z"/>
</g>
<g>
</g>
<g>
	<g>
		<path class="st1" d="M52.7,29.9V24l-6.2-0.6c-0.4-1.6-1-3.2-1.9-4.5l4-4.8L44.5,10l-4.8,4c-1.4-0.9-2.9-1.5-4.5-1.8l-0.5-6.3h-5.9
			l-0.5,6.3c-1.6,0.4-3.1,1-4.5,1.8L19,10l-4.2,4.1l4,4.8c-0.9,1.4-1.5,2.9-1.9,4.5L10.7,24v5.9l6.2,0.5c0.4,1.6,1,3.2,1.9,4.5
			l-4,4.8l4.2,4.2l4.8-4c1.4,0.8,2.9,1.5,4.5,1.8l0.5,6.2h5.9l0.5-6.2c1.6-0.4,3.1-1,4.5-1.8l4.8,4l4.2-4.2l-4-4.8
			c0.8-1.4,1.5-2.9,1.9-4.5L52.7,29.9z M31.7,34.3c-4.1,0-7.4-3.3-7.4-7.4c0-4.1,3.3-7.4,7.4-7.4c4.1,0,7.4,3.3,7.4,7.4
			C39.1,31,35.8,34.3,31.7,34.3z"/>
	</g>
</g>
<g>
	<path class="st1" d="M19.7,51.6l5.4-3.2l-2.6-5.3l-5.8,2.2c-1-1.3-2.2-2.4-3.6-3.3l1.6-6.1l-5.6-2l-2.6,5.7
		c-1.6-0.2-3.3-0.1-4.8,0.2l-1.9-3.2v12.7c2-1.8,4.8-2.5,7.5-1.6c3.9,1.4,5.8,5.6,4.4,9.5c-0.2,0.6-0.5,1.1-0.8,1.6h14L20,56.4
		C20.1,54.8,20.1,53.1,19.7,51.6z"/>
</g>
</svg>
