<?xml version="1.0" encoding="utf-8"?>
<!-- Generator: Adobe Illustrator 22.1.0, SVG Export Plug-In . SVG Version: 6.00 Build 0)  -->
<svg version="1.1" id="Layer_1" xmlns="http://www.w3.org/2000/svg" xmlns:xlink="http://www.w3.org/1999/xlink" x="0px" y="0px"
	 viewBox="0 0 58.9 58.9" style="enable-background:new 0 0 58.9 58.9;" xml:space="preserve">
<style type="text/css">
	.st0{fill:url(#SVGID_1_);}
	.st1{fill:#FFFFFF;}
</style>
<g>
	
		<linearGradient id="SVGID_1_" gradientUnits="userSpaceOnUse" x1="-152.5695" y1="-440.2874" x2="-152.5695" y2="-497.7149" gradientTransform="matrix(1 0 0 -1 182.0195 -439.3477)">
		<stop  offset="0" style="stop-color:#7BBF40"/>
		<stop  offset="1" style="stop-color:#47A537"/>
	</linearGradient>
	<path class="st0" d="M58.9,50c0,4.9-4,8.8-8.8,8.8H8.8C4,58.9,0,54.9,0,50V8.8C0,4,4,0,8.8,0H50c4.9,0,8.8,4,8.8,8.8V50H58.9z"/>
</g>
<g>
</g>
<g id="visible_3_">
	<path id="XMLID_4_" class="st1" d="M3.9,28.7c0,0,22.9,28.6,51,0C26.8,0.6,3.9,28.7,3.9,28.7z M29.1,38.6c-5.3,0-9.7-4.3-9.7-9.7
		c0-5.3,4.3-9.7,9.7-9.7c5.3,0,9.7,4.3,9.7,9.7C38.8,34.3,34.5,38.6,29.1,38.6z"/>
	<circle id="XMLID_3_" class="st1" cx="29.1" cy="28.9" r="3.8"/>
</g>
</svg>
