<?xml version="1.0" encoding="utf-8"?>
<!-- Generator: Adobe Illustrator 16.0.0, SVG Export Plug-In . SVG Version: 6.00 Build 0)  -->
<!DOCTYPE svg PUBLIC "-//W3C//DTD SVG 1.1//EN" "http://www.w3.org/Graphics/SVG/1.1/DTD/svg11.dtd">
<svg version="1.1" id="Layer_1" xmlns="http://www.w3.org/2000/svg" xmlns:xlink="http://www.w3.org/1999/xlink" x="0px" y="0px"
	 width="48px" height="48px" viewBox="0 0 48 48" enable-background="new 0 0 48 48" xml:space="preserve">
<g>
	<path fill="#662521" d="M1,42.75c0,1.657,1.343,3,3,3h39.834c1.657,0,3-1.343,3-3V5.303c0-1.657-1.343-3-3-3H4
		c-1.657,0-3,1.343-3,3V42.75z"/>
</g>
<g>
	<path fill="#FFFFFF" d="M10.333,17.752c1.227,1.854,2.303,4.059,2.473,4.438c0.049,0.109,0.125,0.367,0.211,0.682
		c0.598-0.845,1.328-1.543,2.199-2.056c1.244-0.731,2.674-1.032,4.218-0.96c-0.373-0.592-0.711-1.201-0.875-1.675
		c-0.419-1.216-1.937-6.238-2.825-8.382c-0.887-2.144-4.268-0.618-6.232,0.499c-1.964,1.117-2.074,2.493-1.875,2.872
		C7.828,13.548,9.107,15.897,10.333,17.752z"/>
	<path fill="#FFFFFF" d="M17.865,24.662c2.613-1.077,3.172,0.229,3.172,0.229c0.828-0.768,0.249-1.675,0.249-1.675
		s0.209-0.389-0.129-0.788c-0.207-0.243-0.875-1.126-1.458-2.054c-1.544-0.072-2.974,0.229-4.218,0.96
		c-0.872,0.512-1.602,1.21-2.199,2.056c0.212,0.779,0.485,1.921,0.557,2.12c0.1,0.278,0.358,0.657,0.598,0.707
		c0.239,0.05,0.379,0.279,0.379,0.279c0.31,0.628,1.276,0.668,1.276,0.668S15.252,25.738,17.865,24.662z"/>
	<path fill="#FFFFFF" d="M37.359,30.2c-0.801-0.626-1.872-0.927-2.726-1.48c-2.207-1.433,0.651-2.751,1.599-3.604
		c1.606-1.449,2.028-3.118,1.363-5.146c-0.208-0.634-0.659-1.303-0.45-0.669c1.137,3.467-2.479,5.124-4.313,7.063
		c-0.677,0.713-0.583,1.487,0.119,2.199c1.358,1.379,5.447,2.542,2.913,4.685c-1.776,1.501-4.533,1.636-6.502,2.904
		c-0.267,0.171-0.298,0.632-0.03,0.819c1.935,1.352,4.611,1.026,6.517,2.255c-3.287,0.989-6.734,0.344-10.114,0.034
		c0.014-0.097,0.002-0.177,0.002-0.177c-0.43-2.633-0.473-3.204-0.273-4.521c0.198-1.315,0-1.436,0-1.436
		c-2.035-2.792-4.506-8.065-4.506-8.065c-0.329-0.548-1.636-0.781-3.251-0.061c-1.675,0.748-1.556,1.775-1.556,1.775l2.842,8.379
		c0.1,0.27,0.559,0.398,0.559,0.398c2.663,0.769,4.833,3.459,5.123,3.878s0.499,0.26,0.499,0.26l-3.106-6.955
		c-0.237-0.055-0.479-0.261-0.621-0.566c-0.206-0.442-0.124-0.917,0.183-1.06c0.307-0.144,0.723,0.1,0.929,0.542
		c0.155,0.334,0.146,0.685,0.002,0.899l2.96,6.689c-0.021-0.003-0.043-0.005-0.064-0.006c-0.66-0.058,0.032,0.785,1.889,1.019
		c4.137,0.52,5.755,0.487,9.74-0.357c0.409-0.086,0.417-0.609,0.148-0.882c-1.766-1.802-4.351-1.419-6.467-2.402
		C33.458,35.478,40.846,32.927,37.359,30.2z"/>
</g>
</svg>
