<?xml version="1.0" encoding="utf-8"?>
<!-- Generator: Adobe Illustrator 16.0.0, SVG Export Plug-In . SVG Version: 6.00 Build 0)  -->
<!DOCTYPE svg PUBLIC "-//W3C//DTD SVG 1.1//EN" "http://www.w3.org/Graphics/SVG/1.1/DTD/svg11.dtd">
<svg version="1.1" id="Layer_1" xmlns="http://www.w3.org/2000/svg" xmlns:xlink="http://www.w3.org/1999/xlink" x="0px" y="0px"
	 width="48px" height="48px" viewBox="0 0 48 48" enable-background="new 0 0 48 48" xml:space="preserve">
<g>
	<path fill="#99ABD5" d="M1,42.75c0,1.657,1.343,3,3,3h39.834c1.657,0,3-1.343,3-3V5.303c0-1.657-1.343-3-3-3H4
		c-1.657,0-3,1.343-3,3V42.75z"/>
</g>
<g>
	<g>
		<circle fill="#FFFFFF" cx="24" cy="25.688" r="3.494"/>
		<path fill="#FFFFFF" d="M25.482,29.419h-2.965c-2.467,0-4.473,2.007-4.473,4.474v3.627l0.009,0.057l0.25,0.078
			c2.354,0.734,4.399,0.98,6.083,0.98c3.287,0,5.193-0.938,5.31-0.996l0.233-0.119h0.024v-3.627
			C29.955,31.426,27.949,29.419,25.482,29.419z"/>
		<circle fill="#FFFFFF" cx="16.867" cy="15.51" r="5.636"/>
		<path fill="#FFFFFF" d="M31.131,21.146c3.113,0,5.637-2.524,5.637-5.637c0-3.112-2.523-5.636-5.637-5.636
			s-5.636,2.523-5.636,5.636S28.018,21.146,31.131,21.146z"/>
		<path fill="#FFFFFF" d="M21.26,28.869c-0.895-0.771-1.464-1.91-1.464-3.182c0-1.559,0.855-2.919,2.119-3.646
			c-0.823-0.328-1.717-0.513-2.655-0.513h-4.783c-3.979,0-7.216,3.238-7.216,7.217v5.85l0.015,0.092l0.403,0.125
			c3.726,1.164,6.97,1.564,9.656,1.58v-2.5C17.334,31.469,19.009,29.434,21.26,28.869z"/>
		<path fill="#FFFFFF" d="M33.523,21.529H28.74c-0.938,0-1.831,0.185-2.654,0.513c1.265,0.726,2.119,2.085,2.119,3.646
			c0,1.27-0.569,2.41-1.463,3.181c0.9,0.225,1.73,0.687,2.404,1.36c0.98,0.98,1.52,2.281,1.52,3.664v2.5
			c2.687-0.016,5.932-0.416,9.656-1.58l0.403-0.125l0.015-0.092v-5.85C40.739,24.768,37.502,21.529,33.523,21.529z"/>
	</g>
</g>
</svg>
