<?xml version="1.0" encoding="utf-8"?>
<!-- Generator: Adobe Illustrator 21.0.0, SVG Export Plug-In . SVG Version: 6.00 Build 0)  -->
<svg version="1.1" id="Layer_1" xmlns="http://www.w3.org/2000/svg" xmlns:xlink="http://www.w3.org/1999/xlink" x="0px" y="0px"
	 viewBox="0 0 174 184" style="enable-background:new 0 0 174 184;" xml:space="preserve">
<style type="text/css">
	.st0{fill:#985D35;}
	.st1{display:none;}
	.st2{display:inline;fill:#985D35;}
	.st3{display:inline;}
</style>
<g>
	<g>
		<path class="st0" d="M59.8,71.8l-0.2,2.4c-0.3-0.2-1-0.6-1.9-1.2c-2,2.3-3.6,3.4-4.8,3.4c-0.3,0-0.7-0.1-1.4-0.3
			c1.6-0.8,3.3-2.1,5.1-3.7c-1-0.7-1.5-1.4-1.5-2.2c0-0.8,0.3-1.7,0.9-2.6c0.6-0.9,1.2-1.4,2-1.4c1.1,0,1.6,0.7,1.6,2.1
			c0,0.8-0.3,1.7-0.8,2.8C59,71.2,59.5,71.3,59.8,71.8z M58.6,69.7c0-1-0.4-1.5-1.3-1.5c-0.3,0-0.4,0.2-0.4,0.5
			c0,0.5,0.5,1.1,1.6,1.8C58.5,70.2,58.6,69.8,58.6,69.7z"/>
		<path class="st0" d="M62.3,92.6c0,0.7-0.2,1.7-0.7,2.8c-0.4,0-0.9,0-1.5-0.1c-0.7-0.1-1.2-0.1-1.5-0.1c-1.8,0-3.4,0.3-4.9,0.9
			c-2,0.8-3,1.9-3,3.4s0.3,3.5,0.9,6c0.5,2,1,4.1,1.5,6.1c0.2,0.7,0.4,1.4,0.6,2.2c0.3,0.9,0.4,1.7,0.4,2.2s-0.3,1.2-0.9,2
			c-0.2-1.2-0.9-4.1-2.1-8.8c-1-4-1.5-6.7-1.5-8.2c0-1.3,0.2-2.8,0.6-4.4c0.5-1.8,1.3-3.1,2.5-3.8c0.5-0.3,2-0.7,4.5-1.3
			c-0.2-0.2-0.5-0.4-1-0.7c-0.5-0.3-0.9-0.4-1.2-0.4c-0.9,0-1.7,0.4-2.4,1.2l-0.8-0.1c0.6-1.7,1.1-2.8,1.5-3.4
			c0.8-1.1,1.8-1.7,3.1-1.7c1.2,0,2.6,0.7,4,2.2C61.6,90,62.3,91.3,62.3,92.6z"/>
		<path class="st0" d="M76.8,99.8h-3.7c-3,0-4.6-1.7-5-5c-0.5-4.3-1.1-10.6-1.8-18.9c0.7-0.9,1.3-1.6,1.8-2.3l1.7,19.3
			c0.1,1.5,0.6,2.5,1.3,3.1c0.5,0.4,1.5,0.6,2.7,0.6c0.3,0,0.8,0,1.4,0c0.7,0,1.2,0,1.5,0L76.8,99.8L76.8,99.8z"/>
		<path class="st0" d="M78.6,74.9c-0.3-0.3-0.6-0.8-1.1-1.4c0.5-1.3,1.2-2.3,2.2-3.1c0.1,0.9,0.5,1.7,1.2,2.3c0.7,0.7,1.4,1,2.3,1.1
			l-1.7,3.1l-0.8-0.4h-0.2c0.8,4.5,1.2,8.2,1.2,11.1c0,1.8-0.2,3.9-0.6,6.5c4.6-5.1,8.4-7.6,11.6-7.6c1.1,0,2,0.4,2.7,1.3s1,1.9,1,3
			c0,2.6-1.9,4.6-5.6,5.9h10.1v3.2H74.9v-3.3h2.8c0.4,0,0.8,0,1.2-0.1c1-1.5,1.5-4,1.5-7.6c0-2.3-0.5-6-1.5-11
			C78.9,77.3,78.8,76.3,78.6,74.9z M94.4,92.3c0-0.5-0.5-1-1.5-1.4c-0.8-0.4-1.6-0.5-2.2-0.5c-2,0-3.9,0.6-5.8,1.9
			c-1.7,1.1-3.1,2.6-4.3,4.4h1c2.5,0,5.3-0.5,8.2-1.6C92.9,94,94.4,93.1,94.4,92.3z M90.9,78.8l-1.7,3.2l-2.9-2l1.8-3.1L90.9,78.8z"
			/>
		<path class="st0" d="M108.4,68.8c0,2.7-0.8,4-2.5,4c-0.5,0-1-0.2-1.5-0.5c-0.1,0.5-0.4,1-0.9,1.4s-1,0.6-1.6,0.6
			c-1.3,0-2-0.9-2-2.7c0-0.4,0.2-1.2,0.6-2.3l0.5-0.1c0,1.8,0.3,2.6,0.9,2.6c1,0,1.7-1.3,2.2-3.9l0.5-0.1c0.3,1.6,0.8,2.4,1.3,2.4
			c1.1,0,1.6-1.2,1.6-3.5l0.5-0.3C108.4,67.2,108.4,67.9,108.4,68.8z"/>
		<path class="st0" d="M108.3,73.3c0,1.1-0.3,1.8-0.9,2.1l-7.2,4.1c0-1,0.5-1.8,1.6-2.4L108.3,73.3z"/>
		<path class="st0" d="M111.1,99.8h-3.7c-0.5,0-1-0.4-1.5-1.1s-0.7-1.4-0.7-1.9c-1.1,2-2.5,3-4.1,3h-1.9v-3.2c2.1,0,3.5-0.2,4-0.5
			c0.7-0.4,1.2-0.8,1.3-1.3c0.1-0.3,0.2-0.9,0.2-2h0.4c0.4,1.7,1.1,2.7,2.1,3.2c0.7,0.3,2,0.5,3.9,0.5
			C111.1,96.6,111.1,99.8,111.1,99.8z M106.9,85.6l-1.7,2.7l-2.6-1.8l1.6-2.8L106.9,85.6z"/>
		<path class="st0" d="M113.4,75.1c-0.3-0.3-0.7-0.8-1.1-1.5c0.4-1.2,1.2-2.2,2.1-3.1c0.1,0.9,0.5,1.7,1.2,2.4
			c0.7,0.6,1.4,1,2.4,1.2l-1.8,3l-0.9-0.5c-0.2,1.6-0.2,2.6-0.2,2.8c0,1.3,0.3,3.2,0.8,5.7s0.8,4.4,0.8,5.6c0,6.1-1.9,9.2-5.6,9.2
			h-1.9v-3.2c1.8,0,3.1-0.1,3.9-0.3c1.6-0.5,2.4-1.4,2.4-2.7c0-0.5-0.2-2.2-0.7-5c-0.3-1.9-0.6-3.8-0.9-5.6
			c-0.4-2.3-0.6-4.2-0.6-5.6c0-0.2,0-0.5,0.1-1c0.1-0.5,0.1-0.8,0-1.1C113.4,75.3,113.4,75.1,113.4,75.1z"/>
		<path class="st0" d="M124.4,93.3c0,1.6-0.4,3.8-1.3,6.6l-0.6-0.1c0.2-1,0.2-1.9,0.2-2.9c0-2-0.2-4.4-0.6-7.5
			c-0.3-2.5-0.6-4.9-1-7.3c-0.2-1.5-0.3-2.4-0.3-2.6c0-1.4,0.1-2.4,0.4-3.1c0.4-0.9,0.9-1.7,1.4-2.6c0,2.5,0.5,7.7,1.4,15.5
			C124.3,90.7,124.4,92.1,124.4,93.3z"/>
	</g>
	<g class="st1">
		<path class="st2" d="M51.8,76.1l-0.2,2.4c-0.3-0.2-1-0.6-1.9-1.2c-2,2.3-3.6,3.4-4.8,3.4c-0.3,0-0.7-0.1-1.4-0.3
			c1.6-0.8,3.3-2.1,5.1-3.7c-1-0.7-1.5-1.4-1.5-2.2c0-0.8,0.3-1.7,0.9-2.6c0.6-0.9,1.2-1.4,2-1.4c1.1,0,1.6,0.7,1.6,2.1
			c0,0.8-0.3,1.7-0.8,2.8C51,75.4,51.3,75.7,51.8,76.1z M50.6,73.9c0-1-0.4-1.5-1.3-1.5c-0.3,0-0.4,0.2-0.4,0.5
			c0,0.5,0.5,1.1,1.6,1.8C50.5,74.4,50.6,74.2,50.6,73.9z"/>
		<path class="st2" d="M57.1,111.2h-3.7c-1.5,0-2.7-1.9-3.4-5.8c-1.5,1.6-2.8,2.4-4,2.4c-0.8,0-1.6-0.1-2.4-0.3
			c-1.2-0.3-1.8-0.8-1.8-1.3c0-0.3,0.4-1.3,1.2-3s2.7-3.4,5.8-4.9c-0.1-0.6-0.1-1.6-0.2-2.8l1.3-1.4l1.6,9.8
			c0.4,2.2,0.8,3.5,1.3,3.8c0.3,0.2,1.7,0.3,4.3,0.3C57.1,107.9,57.1,111.2,57.1,111.2z M51.3,90.1l-1.8,2.7l-2.9-1.8L45,93.3
			l-2.8-2l1.7-2.8l2.9,1.9l1.7-2.4L51.3,90.1z M49.8,103.7l-0.6-3.7c-2.1,0.7-3.7,2-4.8,4c0.3,0.3,1.1,0.5,2.4,0.5
			S49,104.2,49.8,103.7z"/>
		<path class="st2" d="M74.1,88.7c0,2.7-0.8,4-2.5,4c-0.5,0-1-0.2-1.5-0.5c-0.1,0.5-0.4,1-0.9,1.4s-1,0.6-1.6,0.6
			c-1.3,0-2-0.9-2-2.7c0-0.4,0.2-1.2,0.6-2.3l0.5-0.1c0,1.8,0.3,2.6,0.9,2.6c1,0,1.7-1.3,2.2-3.9l0.5-0.1c0.3,1.6,0.8,2.4,1.3,2.4
			c1.1,0,1.6-1.2,1.6-3.5l0.5-0.3C74.1,87.2,74.1,87.8,74.1,88.7z"/>
		<path class="st2" d="M72.8,82.8c0,1.1-0.3,1.7-0.8,2.1l-7.3,4.1c0-1,0.5-1.8,1.6-2.4L72.8,82.8z"/>
		<path class="st2" d="M86.4,111.2h-4.3c-2.3,0-3.9-0.1-4.8-0.2c-2.1-0.4-3.2-1.3-3.2-2.6c0-0.9,0.2-1.8,0.6-2.7h-1.1
			c-2.3,0-4.6,0.5-6.9,1.4c-0.6,0.3-2.4,1.2-5.3,2.7c-1.8,1-3.3,1.4-4.3,1.4h-1.9V108c2.5,0,4.3-0.2,5.4-0.5
			c1.7-0.7,4.4-1.7,8.2-2.8c-1.3-0.5-2.6-1-3.9-1.5c-1.8-0.6-3.1-1-3.9-1c-0.5,0-0.8,0.2-0.9,0.6h-2.8c0.3-1.2,0.8-2.2,1.7-3
			s1.9-1.2,3.1-1.2c0.7,0,2,0.4,3.7,1.1c1.3,0.5,2.6,1.1,3.8,1.6c3,1.1,6.8,1.6,11.1,1.6l-0.7,2.7c-3.2,0.1-4.6,0.1-4.2,0.1
			c0.1,0.9,0.6,1.5,1.5,1.8s3.9,0.5,9,0.5L86.4,111.2L86.4,111.2z"/>
		<path class="st2" d="M105.1,82.2c0,2.7-0.8,4-2.5,4c-0.5,0-1-0.2-1.5-0.5c-0.1,0.5-0.4,1-0.9,1.4s-1,0.6-1.6,0.6
			c-1.3,0-2-0.9-2-2.7c0-0.4,0.2-1.2,0.6-2.3l0.5-0.1c0,1.8,0.3,2.6,0.9,2.6c1,0,1.7-1.3,2.2-3.9l0.5-0.1c0.3,1.6,0.8,2.4,1.3,2.4
			c1.1,0,1.6-1.2,1.6-3.5l0.5-0.3C104.9,80.6,105.1,81.3,105.1,82.2z"/>
		<path class="st2" d="M104.9,87.8c0,1.1-0.3,1.8-0.9,2.1l-7.2,4.1c0-1,0.5-1.8,1.6-2.4L104.9,87.8z"/>
		<path class="st2" d="M94.3,111.2c-1.9,0-3.2-1-3.7-3c-1.6,2-2.9,3-4.1,3h-1.9V108c2.1,0,3.6-0.2,4.3-0.6c0.7-0.4,1.2-0.8,1.3-1.2
			c0.1-0.3,0.2-1,0.2-2h0.4c0.2,1,0.7,1.9,1.3,2.8c0.4,0.6,1.5,0.9,3.1,1H95c0,0,0,0,0.1,0c0.1,0,0.1,0,0.1,0v3.2
			C95.2,111.2,94.3,111.2,94.3,111.2z"/>
		<path class="st2" d="M94.3,108h2.9c1.8-2.3,3.8-4.4,6-6.3c3-2.6,5.5-3.8,7.4-3.8c1.1,0,2,0.4,2.7,1.2c0.7,0.8,1.2,1.8,1.2,2.9
			c0,1.6-0.6,2.9-1.7,3.9c-0.8,0.7-2.1,1.4-3.9,2c4.1,0,7.4,0,10.1,0v3.2H96.6c-0.3,0.5-0.8,1.4-1.7,2.6l-0.4-0.4
			c0.4-0.9,0.7-1.6,1.1-2.3h-1.3L94.3,108L94.3,108z M112.4,103.8c0-1.2-1.1-1.9-3.3-1.9s-4.2,0.6-6,1.7c-1.1,0.7-2.6,2.2-4.6,4.3
			c4.7,0,8.8-1,12.4-2.9C111.9,104.6,112.4,104.2,112.4,103.8z"/>
		<path class="st2" d="M121.4,86.3c-0.3-0.3-0.7-0.8-1.1-1.5c0.4-1.2,1.2-2.2,2.1-3.1c0.1,0.9,0.5,1.7,1.2,2.4
			c0.7,0.6,1.4,1,2.4,1.2l-1.7,3.1l-0.9-0.5c-0.2,1.6-0.2,2.6-0.2,2.8c0,1.3,0.3,3.2,0.8,5.7s0.8,4.4,0.8,5.6c0,6.1-1.9,9.2-5.6,9.2
			h-1.9v-3.3c1.8,0,3.1-0.1,3.9-0.3c1.6-0.5,2.4-1.4,2.4-2.7c0-0.5-0.2-2.2-0.7-5c-0.3-1.9-0.6-3.8-0.9-5.6
			c-0.4-2.3-0.6-4.2-0.6-5.6c0-0.2,0-0.5,0.1-1c0.1-0.5,0.1-0.8,0-1.1v-0.3C121.5,86.3,121.4,86.3,121.4,86.3z"/>
		<path class="st2" d="M132.3,104.6c0,1.6-0.4,3.8-1.3,6.6l-0.6-0.1c0.2-1,0.2-1.9,0.2-2.9c0-2-0.2-4.4-0.6-7.5
			c-0.3-2.5-0.6-4.9-1-7.3c-0.2-1.5-0.3-2.4-0.3-2.6c0-1.4,0.1-2.4,0.4-3.1c0.4-0.9,0.9-1.7,1.4-2.6c0,2.5,0.5,7.7,1.4,15.5
			C132.1,102,132.3,103.3,132.3,104.6z"/>
	</g>
	<g class="st1">
		<path class="st2" d="M72.4,88.7c0,2.7-0.8,4-2.5,4c-0.5,0-1-0.2-1.5-0.5c-0.1,0.5-0.4,1-0.9,1.4s-1,0.6-1.6,0.6
			c-1.3,0-2-0.9-2-2.7c0-0.4,0.2-1.2,0.6-2.3l0.5-0.1c0,1.8,0.3,2.6,0.9,2.6c1,0,1.7-1.3,2.2-3.9l0.5-0.1c0.3,1.6,0.8,2.4,1.3,2.4
			c1.1,0,1.6-1.2,1.6-3.5l0.5-0.3C72.3,87.2,72.4,87.8,72.4,88.7z"/>
		<path class="st2" d="M68.1,82.8l-0.2,2.4c-0.3-0.2-1-0.6-1.9-1.2c-2,2.3-3.6,3.4-4.8,3.4c-0.3,0-0.7-0.1-1.4-0.3
			c1.6-0.8,3.3-2.1,5.1-3.7c-1-0.7-1.5-1.4-1.5-2.2c0-0.8,0.3-1.7,0.9-2.6c0.6-0.9,1.2-1.4,2-1.4c1.1,0,1.6,0.7,1.6,2.1
			c0,0.8-0.3,1.7-0.8,2.8C67.4,82.3,67.8,82.5,68.1,82.8z M66.9,80.8c0-1-0.4-1.5-1.3-1.5c-0.3,0-0.4,0.2-0.4,0.5
			c0,0.5,0.5,1.1,1.6,1.8C66.9,81.3,66.9,80.9,66.9,80.8z"/>
		<path class="st2" d="M89.1,107.8h-3.7c-1,0-1.7-0.2-2.1-0.5c-0.4-0.4-0.7-1-1-2.1c-3.5,3.1-9.3,4.6-17.5,4.6
			c-9,0-13.4-2.4-13.4-7.3c0-1.3,0.6-3.4,1.9-6.3l0.6,0.3c-0.6,2-0.9,3.2-0.9,3.6c0,4.1,4.4,6.1,13.1,6.1c6.8,0,12-1,15.6-2.9
			c0.2-0.5,0.4-0.9,0.4-1.4c0.6,1.8,2.1,2.7,4.5,2.7c0.3,0,0.7,0,1.2,0s1,0,1.2,0L89.1,107.8L89.1,107.8z M70.8,115.8l-1.9,2.8
			l-2.6-1.9l1.8-2.7L70.8,115.8z"/>
		<path class="st2" d="M106.3,109.2c0,1.1-0.3,1.8-0.9,2.1l-7.2,4.1c0-1,0.5-1.8,1.6-2.4L106.3,109.2z"/>
		<path class="st2" d="M112.3,99.8l-1,2.9h-1.1c-0.6,0-1.5,0-2.7-0.1c-1.1-0.2-2-0.2-2.6-0.2c-2,0-4,0.5-6.2,1.4
			c-1.6,0.9-3.3,1.8-4.9,2.7c-1.8,0.9-3.3,1.4-4.5,1.4h-1.9v-3.2c2,0,3.7-0.1,4.9-0.4c1-0.2,2.5-0.8,4.6-1.6
			c1.3-0.5,2.4-0.9,3.4-1.1c-0.6-0.1-1.9-0.6-3.7-1.4c-1.5-0.7-2.8-1-3.8-1c-0.3,0-0.5,0.2-0.7,0.7h-2.8c1-2.9,2.6-4.3,4.9-4.3
			c1.2,0,3.1,0.7,5.9,2.2S106.9,99.8,112.3,99.8z"/>
		<path class="st2" d="M118.8,70.9l-0.1,2.4c-0.3-0.2-1-0.6-1.9-1.2c-2,2.3-3.6,3.4-4.8,3.4c-0.3,0-0.7-0.1-1.4-0.3
			c1.6-0.8,3.3-2.1,5.1-3.7c-1-0.7-1.5-1.4-1.5-2.2c0-0.8,0.3-1.7,0.9-2.6c0.6-0.9,1.2-1.4,2-1.4c1.1,0,1.6,0.7,1.6,2.1
			c0,0.8-0.3,1.7-0.8,2.8C118.1,70.3,118.4,70.7,118.8,70.9z M117.6,68.8c0-1-0.4-1.5-1.3-1.5c-0.2,0-0.4,0.2-0.4,0.5
			c0,0.5,0.5,1.1,1.6,1.8C117.6,69.3,117.6,69.1,117.6,68.8z"/>
		<path class="st2" d="M122.6,78.2c-0.2,0.9-0.5,1.4-0.8,1.5l-6.5,1.9c0.1-0.6,0.4-1.1,0.8-1.4c0.2-0.1,0.8-0.4,1.6-0.7
			c-1-0.4-1.5-1.1-1.6-1.9c0-0.3,0.1-0.6,0.4-1c0.6-0.8,1.2-1.5,2-2c0.7-0.5,1.4-0.8,1.9-0.8c0.8,0,1.2,0.4,1.2,1.3
			c0,0.5-0.2,1-0.7,1.6c-0.8-0.5-1.4-0.8-1.9-0.8c-0.4,0-1,0.3-1.6,0.8c1.3,1.2,2.4,1.8,3.4,1.8C121.3,78.4,121.9,78.3,122.6,78.2z"
			/>
		<path class="st2" d="M120.6,101.3c0,1.6-0.4,3.8-1.3,6.6l-0.6-0.1c0.2-1,0.2-1.9,0.2-2.9c0-2-0.2-4.4-0.6-7.5
			c-0.3-2.5-0.6-4.9-1-7.3c-0.2-1.5-0.3-2.4-0.3-2.6c0-1.4,0.1-2.4,0.4-3.1c0.4-0.9,0.9-1.7,1.4-2.6c0,2.5,0.5,7.7,1.4,15.5
			C120.4,98.7,120.6,100.1,120.6,101.3z"/>
	</g>
	<g class="st1">
		<path class="st2" d="M48.4,74.3l-0.2,2.4c-0.3-0.2-1-0.6-1.9-1.2c-2,2.3-3.6,3.4-4.8,3.4c-0.3,0-0.7-0.1-1.4-0.3
			c1.6-0.8,3.3-2.1,5.1-3.7c-1-0.7-1.5-1.4-1.5-2.2c0-0.8,0.3-1.7,0.9-2.6c0.6-0.9,1.2-1.4,2-1.4c1.1,0,1.6,0.7,1.6,2.1
			c0,0.8-0.3,1.7-0.8,2.8C47.8,73.8,48,73.9,48.4,74.3z M47.3,72.2c0-1-0.4-1.5-1.3-1.5c-0.3,0-0.4,0.2-0.4,0.5
			c0,0.5,0.5,1.1,1.6,1.8C47.2,72.7,47.3,72.4,47.3,72.2z"/>
		<path class="st2" d="M56.8,107.8H53c-2.1,0-3.6-2-4.6-5.9c-0.9,2-2.1,3.4-3.5,4.2c-1.3,0.7-3.1,1.1-5.3,1.1c-2.7,0-4-0.8-4-2.4
			c0-0.4,0.4-1.6,1.1-3.5h0.6v0.3c0,0.9,0.3,1.6,1,1.9c0.5,0.2,1.2,0.3,2.3,0.3c2.3,0,3.9-0.2,4.9-0.6c1.7-0.6,2.5-1.9,2.5-3.8
			c0-1.2-0.3-2.9-0.8-5.2c-0.6-2.2-0.9-3.8-0.9-5l1.6-2.2l2,12c0.6,3.7,1.9,5.6,3.7,5.6h3L56.8,107.8L56.8,107.8z"/>
		<path class="st2" d="M63.5,111.8l-1.8,2.8l-2.8-1.8l-1.6,2.4l-2.8-1.7l1.6-2.9l3,1.8l1.4-2.4L63.5,111.8z M62,100.7
			c0,4.8-1.7,7.2-5.2,7.2h-1.9v-3.2c3.9,0,5.9-0.7,5.9-2c0-0.3-0.3-1-0.9-2.1c-0.6-1.1-0.9-1.7-0.9-2c0-0.1,0.6-1.2,1.8-3.1
			C61.5,97.2,62,99,62,100.7z"/>
		<path class="st2" d="M86.9,107.8h-3.7c-2.1,0-3.6-2-4.6-5.9c-0.9,2-2.1,3.4-3.5,4.2c-1.3,0.7-3.1,1.1-5.3,1.1c-2.7,0-4-0.8-4-2.4
			c0-0.4,0.4-1.6,1.1-3.5h0.6v0.3c0,0.9,0.3,1.6,1,1.9c0.5,0.2,1.2,0.3,2.3,0.3c2.3,0,3.9-0.2,4.9-0.6c1.7-0.6,2.5-1.9,2.5-3.8
			c0-1.2-0.3-2.9-0.8-5.2c-0.5-2.3-0.8-3.9-0.8-5.1l1.6-2.2l2,12c0.6,3.7,1.9,5.6,3.7,5.6h3V107.8z"/>
		<path class="st2" d="M103.9,78.8c0,1.1-0.3,1.7-0.8,2.1l-7.3,4.1c0-1,0.5-1.8,1.6-2.4L103.9,78.8z"/>
		<path class="st2" d="M116.3,107.8h-4.3c-2.3,0-3.9-0.1-4.8-0.2c-2.1-0.4-3.2-1.3-3.2-2.6c0-0.9,0.2-1.8,0.6-2.7h-1.1
			c-2.3,0-4.6,0.5-6.9,1.4c-0.6,0.3-2.4,1.2-5.3,2.7c-1.8,1-3.3,1.4-4.3,1.4h-1.9v-3.2c2.5,0,4.3-0.2,5.4-0.5
			c1.7-0.7,4.4-1.7,8.2-2.8c-1.3-0.5-2.6-1-3.9-1.5c-1.8-0.6-3.1-1-3.9-1c-0.5,0-0.8,0.2-0.9,0.6h-2.8c0.3-1.2,0.8-2.2,1.7-3
			s1.9-1.2,3.1-1.2c0.7,0,2,0.4,3.7,1.1c1.3,0.5,2.6,1.1,3.8,1.6c3,1.1,6.8,1.6,11.1,1.6l-0.7,2.7c-3.2,0.1-4.6,0.1-4.2,0.1
			c0.1,0.9,0.6,1.5,1.5,1.8c0.9,0.3,3.9,0.5,9,0.5v3.2H116.3z M101.9,110.3l-1.6,2.9l-2.7-1.7l1.6-3L101.9,110.3z"/>
		<path class="st2" d="M114.4,104.6h10.7v3.2h-10.7V104.6z"/>
		<path class="st2" d="M127.6,83c-0.3-0.3-0.7-0.8-1.1-1.5c0.4-1.2,1.2-2.2,2.1-3.1c0.1,0.9,0.5,1.7,1.2,2.4c0.7,0.6,1.4,1,2.4,1.2
			l-1.8,3l-0.9-0.5c-0.2,1.6-0.2,2.6-0.2,2.8c0,1.3,0.3,3.2,0.8,5.7s0.8,4.4,0.8,5.6c0,6.1-1.9,9.2-5.6,9.2h-1.9v-3.2
			c1.8,0,3.1-0.1,3.9-0.3c1.6-0.5,2.4-1.4,2.4-2.7c0-0.5-0.2-2.2-0.7-5c-0.3-1.9-0.6-3.8-0.9-5.6c-0.4-2.3-0.6-4.2-0.6-5.6
			c0-0.2,0-0.5,0.1-1c0.1-0.5,0.1-0.8,0-1.1V83L127.6,83z"/>
		<path class="st2" d="M138.4,101.2c0,1.6-0.4,3.8-1.3,6.6l-0.6-0.1c0.2-1,0.2-1.9,0.2-2.9c0-2-0.2-4.4-0.6-7.5
			c-0.3-2.5-0.6-4.9-1-7.3c-0.2-1.5-0.3-2.4-0.3-2.6c0-1.4,0.1-2.4,0.4-3.1c0.4-0.9,0.9-1.7,1.4-2.6c0,2.5,0.5,7.7,1.4,15.5
			C138.4,98.6,138.4,100,138.4,101.2z"/>
	</g>
</g>
<g class="st1">
	<g>
		<path class="st2" d="M59.8,71.8l-0.2,2.4c-0.3-0.2-1-0.6-1.9-1.2c-2,2.3-3.6,3.4-4.8,3.4c-0.3,0-0.7-0.1-1.4-0.3
			c1.6-0.8,3.3-2.1,5.1-3.7c-1-0.7-1.5-1.4-1.5-2.2c0-0.8,0.3-1.7,0.9-2.6c0.6-0.9,1.2-1.4,2-1.4c1.1,0,1.6,0.7,1.6,2.1
			c0,0.8-0.3,1.7-0.8,2.8C59,71.2,59.5,71.3,59.8,71.8z M58.6,69.7c0-1-0.4-1.5-1.3-1.5c-0.3,0-0.4,0.2-0.4,0.5
			c0,0.5,0.5,1.1,1.6,1.8C58.5,70.2,58.6,69.8,58.6,69.7z"/>
		<path class="st2" d="M62.3,92.6c0,0.7-0.2,1.7-0.7,2.8c-0.4,0-0.9,0-1.5-0.1c-0.7-0.1-1.2-0.1-1.5-0.1c-1.8,0-3.4,0.3-4.9,0.9
			c-2,0.8-3,1.9-3,3.4s0.3,3.5,0.9,6c0.5,2,1,4.1,1.5,6.1c0.2,0.7,0.4,1.4,0.6,2.2c0.3,0.9,0.4,1.7,0.4,2.2s-0.3,1.2-0.9,2
			c-0.2-1.2-0.9-4.1-2.1-8.8c-1-4-1.5-6.7-1.5-8.2c0-1.3,0.2-2.8,0.6-4.4c0.5-1.8,1.3-3.1,2.5-3.8c0.5-0.3,2-0.7,4.5-1.3
			c-0.2-0.2-0.5-0.4-1-0.7c-0.5-0.3-0.9-0.4-1.2-0.4c-0.9,0-1.7,0.4-2.4,1.2l-0.8-0.1c0.6-1.7,1.1-2.8,1.5-3.4
			c0.8-1.1,1.8-1.7,3.1-1.7c1.2,0,2.6,0.7,4,2.2C61.6,90,62.3,91.3,62.3,92.6z"/>
		<path class="st2" d="M76.8,99.8h-3.7c-3,0-4.6-1.7-5-5c-0.5-4.3-1.1-10.6-1.8-18.9c0.7-0.9,1.3-1.6,1.8-2.3l1.7,19.3
			c0.1,1.5,0.6,2.5,1.3,3.1c0.5,0.4,1.5,0.6,2.7,0.6c0.3,0,0.8,0,1.4,0c0.7,0,1.2,0,1.5,0L76.8,99.8L76.8,99.8z"/>
		<path class="st2" d="M78.6,74.9c-0.3-0.3-0.6-0.8-1.1-1.4c0.5-1.3,1.2-2.3,2.2-3.1c0.1,0.9,0.5,1.7,1.2,2.3c0.7,0.7,1.4,1,2.3,1.1
			l-1.7,3.1l-0.8-0.4h-0.2c0.8,4.5,1.2,8.2,1.2,11.1c0,1.8-0.2,3.9-0.6,6.5c4.6-5.1,8.4-7.6,11.6-7.6c1.1,0,2,0.4,2.7,1.3s1,1.9,1,3
			c0,2.6-1.9,4.6-5.6,5.9h10.1v3.2H74.9v-3.3h2.8c0.4,0,0.8,0,1.2-0.1c1-1.5,1.5-4,1.5-7.6c0-2.3-0.5-6-1.5-11
			C78.9,77.3,78.8,76.3,78.6,74.9z M94.4,92.3c0-0.5-0.5-1-1.5-1.4c-0.8-0.4-1.6-0.5-2.2-0.5c-2,0-3.9,0.6-5.8,1.9
			c-1.7,1.1-3.1,2.6-4.3,4.4h1c2.5,0,5.3-0.5,8.2-1.6C92.9,94,94.4,93.1,94.4,92.3z M90.9,78.8l-1.7,3.2l-2.9-2l1.8-3.1L90.9,78.8z"
			/>
		<path class="st2" d="M108.4,68.8c0,2.7-0.8,4-2.5,4c-0.5,0-1-0.2-1.5-0.5c-0.1,0.5-0.4,1-0.9,1.4s-1,0.6-1.6,0.6
			c-1.3,0-2-0.9-2-2.7c0-0.4,0.2-1.2,0.6-2.3l0.5-0.1c0,1.8,0.3,2.6,0.9,2.6c1,0,1.7-1.3,2.2-3.9l0.5-0.1c0.3,1.6,0.8,2.4,1.3,2.4
			c1.1,0,1.6-1.2,1.6-3.5l0.5-0.3C108.4,67.2,108.4,67.9,108.4,68.8z"/>
		<path class="st2" d="M108.3,73.3c0,1.1-0.3,1.8-0.9,2.1l-7.2,4.1c0-1,0.5-1.8,1.6-2.4L108.3,73.3z"/>
		<path class="st2" d="M111.1,99.8h-3.7c-0.5,0-1-0.4-1.5-1.1s-0.7-1.4-0.7-1.9c-1.1,2-2.5,3-4.1,3h-1.9v-3.2c2.1,0,3.5-0.2,4-0.5
			c0.7-0.4,1.2-0.8,1.3-1.3c0.1-0.3,0.2-0.9,0.2-2h0.4c0.4,1.7,1.1,2.7,2.1,3.2c0.7,0.3,2,0.5,3.9,0.5
			C111.1,96.6,111.1,99.8,111.1,99.8z M106.9,85.6l-1.7,2.7l-2.6-1.8l1.6-2.8L106.9,85.6z"/>
		<path class="st2" d="M113.4,75.1c-0.3-0.3-0.7-0.8-1.1-1.5c0.4-1.2,1.2-2.2,2.1-3.1c0.1,0.9,0.5,1.7,1.2,2.4
			c0.7,0.6,1.4,1,2.4,1.2l-1.8,3l-0.9-0.5c-0.2,1.6-0.2,2.6-0.2,2.8c0,1.3,0.3,3.2,0.8,5.7s0.8,4.4,0.8,5.6c0,6.1-1.9,9.2-5.6,9.2
			h-1.9v-3.2c1.8,0,3.1-0.1,3.9-0.3c1.6-0.5,2.4-1.4,2.4-2.7c0-0.5-0.2-2.2-0.7-5c-0.3-1.9-0.6-3.8-0.9-5.6
			c-0.4-2.3-0.6-4.2-0.6-5.6c0-0.2,0-0.5,0.1-1c0.1-0.5,0.1-0.8,0-1.1C113.4,75.3,113.4,75.1,113.4,75.1z"/>
		<path class="st2" d="M124.4,93.3c0,1.6-0.4,3.8-1.3,6.6l-0.6-0.1c0.2-1,0.2-1.9,0.2-2.9c0-2-0.2-4.4-0.6-7.5
			c-0.3-2.5-0.6-4.9-1-7.3c-0.2-1.5-0.3-2.4-0.3-2.6c0-1.4,0.1-2.4,0.4-3.1c0.4-0.9,0.9-1.7,1.4-2.6c0,2.5,0.5,7.7,1.4,15.5
			C124.3,90.7,124.4,92.1,124.4,93.3z"/>
	</g>
	<g class="st3">
		<path class="st0" d="M51.8,76.1l-0.2,2.4c-0.3-0.2-1-0.6-1.9-1.2c-2,2.3-3.6,3.4-4.8,3.4c-0.3,0-0.7-0.1-1.4-0.3
			c1.6-0.8,3.3-2.1,5.1-3.7c-1-0.7-1.5-1.4-1.5-2.2c0-0.8,0.3-1.7,0.9-2.6c0.6-0.9,1.2-1.4,2-1.4c1.1,0,1.6,0.7,1.6,2.1
			c0,0.8-0.3,1.7-0.8,2.8C51,75.4,51.3,75.7,51.8,76.1z M50.6,73.9c0-1-0.4-1.5-1.3-1.5c-0.3,0-0.4,0.2-0.4,0.5
			c0,0.5,0.5,1.1,1.6,1.8C50.5,74.4,50.6,74.2,50.6,73.9z"/>
		<path class="st0" d="M57.1,111.2h-3.7c-1.5,0-2.7-1.9-3.4-5.8c-1.5,1.6-2.8,2.4-4,2.4c-0.8,0-1.6-0.1-2.4-0.3
			c-1.2-0.3-1.8-0.8-1.8-1.3c0-0.3,0.4-1.3,1.2-3s2.7-3.4,5.8-4.9c-0.1-0.6-0.1-1.6-0.2-2.8l1.3-1.4l1.6,9.8
			c0.4,2.2,0.8,3.5,1.3,3.8c0.3,0.2,1.7,0.3,4.3,0.3C57.1,107.9,57.1,111.2,57.1,111.2z M51.3,90.1l-1.8,2.7l-2.9-1.8L45,93.3
			l-2.8-2l1.7-2.8l2.9,1.9l1.7-2.4L51.3,90.1z M49.8,103.7l-0.6-3.7c-2.1,0.7-3.7,2-4.8,4c0.3,0.3,1.1,0.5,2.4,0.5
			S49,104.2,49.8,103.7z"/>
		<path class="st0" d="M74.1,88.7c0,2.7-0.8,4-2.5,4c-0.5,0-1-0.2-1.5-0.5c-0.1,0.5-0.4,1-0.9,1.4s-1,0.6-1.6,0.6
			c-1.3,0-2-0.9-2-2.7c0-0.4,0.2-1.2,0.6-2.3l0.5-0.1c0,1.8,0.3,2.6,0.9,2.6c1,0,1.7-1.3,2.2-3.9l0.5-0.1c0.3,1.6,0.8,2.4,1.3,2.4
			c1.1,0,1.6-1.2,1.6-3.5l0.5-0.3C74.1,87.2,74.1,87.8,74.1,88.7z"/>
		<path class="st0" d="M72.8,82.8c0,1.1-0.3,1.7-0.8,2.1l-7.3,4.1c0-1,0.5-1.8,1.6-2.4L72.8,82.8z"/>
		<path class="st0" d="M86.4,111.2h-4.3c-2.3,0-3.9-0.1-4.8-0.2c-2.1-0.4-3.2-1.3-3.2-2.6c0-0.9,0.2-1.8,0.6-2.7h-1.1
			c-2.3,0-4.6,0.5-6.9,1.4c-0.6,0.3-2.4,1.2-5.3,2.7c-1.8,1-3.3,1.4-4.3,1.4h-1.9V108c2.5,0,4.3-0.2,5.4-0.5
			c1.7-0.7,4.4-1.7,8.2-2.8c-1.3-0.5-2.6-1-3.9-1.5c-1.8-0.6-3.1-1-3.9-1c-0.5,0-0.8,0.2-0.9,0.6h-2.8c0.3-1.2,0.8-2.2,1.7-3
			s1.9-1.2,3.1-1.2c0.7,0,2,0.4,3.7,1.1c1.3,0.5,2.6,1.1,3.8,1.6c3,1.1,6.8,1.6,11.1,1.6l-0.7,2.7c-3.2,0.1-4.6,0.1-4.2,0.1
			c0.1,0.9,0.6,1.5,1.5,1.8s3.9,0.5,9,0.5L86.4,111.2L86.4,111.2z"/>
		<path class="st0" d="M105.1,82.2c0,2.7-0.8,4-2.5,4c-0.5,0-1-0.2-1.5-0.5c-0.1,0.5-0.4,1-0.9,1.4s-1,0.6-1.6,0.6
			c-1.3,0-2-0.9-2-2.7c0-0.4,0.2-1.2,0.6-2.3l0.5-0.1c0,1.8,0.3,2.6,0.9,2.6c1,0,1.7-1.3,2.2-3.9l0.5-0.1c0.3,1.6,0.8,2.4,1.3,2.4
			c1.1,0,1.6-1.2,1.6-3.5l0.5-0.3C104.9,80.6,105.1,81.3,105.1,82.2z"/>
		<path class="st0" d="M104.9,87.8c0,1.1-0.3,1.8-0.9,2.1l-7.2,4.1c0-1,0.5-1.8,1.6-2.4L104.9,87.8z"/>
		<path class="st0" d="M94.3,111.2c-1.9,0-3.2-1-3.7-3c-1.6,2-2.9,3-4.1,3h-1.9V108c2.1,0,3.6-0.2,4.3-0.6c0.7-0.4,1.2-0.8,1.3-1.2
			c0.1-0.3,0.2-1,0.2-2h0.4c0.2,1,0.7,1.9,1.3,2.8c0.4,0.6,1.5,0.9,3.1,1H95c0,0,0,0,0.1,0c0.1,0,0.1,0,0.1,0v3.2
			C95.2,111.2,94.3,111.2,94.3,111.2z"/>
		<path class="st0" d="M94.3,108h2.9c1.8-2.3,3.8-4.4,6-6.3c3-2.6,5.5-3.8,7.4-3.8c1.1,0,2,0.4,2.7,1.2c0.7,0.8,1.2,1.8,1.2,2.9
			c0,1.6-0.6,2.9-1.7,3.9c-0.8,0.7-2.1,1.4-3.9,2c4.1,0,7.4,0,10.1,0v3.2H96.6c-0.3,0.5-0.8,1.4-1.7,2.6l-0.4-0.4
			c0.4-0.9,0.7-1.6,1.1-2.3h-1.3L94.3,108L94.3,108z M112.4,103.8c0-1.2-1.1-1.9-3.3-1.9s-4.2,0.6-6,1.7c-1.1,0.7-2.6,2.2-4.6,4.3
			c4.7,0,8.8-1,12.4-2.9C111.9,104.6,112.4,104.2,112.4,103.8z"/>
		<path class="st0" d="M121.4,86.3c-0.3-0.3-0.7-0.8-1.1-1.5c0.4-1.2,1.2-2.2,2.1-3.1c0.1,0.9,0.5,1.7,1.2,2.4
			c0.7,0.6,1.4,1,2.4,1.2l-1.7,3.1l-0.9-0.5c-0.2,1.6-0.2,2.6-0.2,2.8c0,1.3,0.3,3.2,0.8,5.7s0.8,4.4,0.8,5.6c0,6.1-1.9,9.2-5.6,9.2
			h-1.9v-3.3c1.8,0,3.1-0.1,3.9-0.3c1.6-0.5,2.4-1.4,2.4-2.7c0-0.5-0.2-2.2-0.7-5c-0.3-1.9-0.6-3.8-0.9-5.6
			c-0.4-2.3-0.6-4.2-0.6-5.6c0-0.2,0-0.5,0.1-1c0.1-0.5,0.1-0.8,0-1.1v-0.3C121.5,86.3,121.4,86.3,121.4,86.3z"/>
		<path class="st0" d="M132.3,104.6c0,1.6-0.4,3.8-1.3,6.6l-0.6-0.1c0.2-1,0.2-1.9,0.2-2.9c0-2-0.2-4.4-0.6-7.5
			c-0.3-2.5-0.6-4.9-1-7.3c-0.2-1.5-0.3-2.4-0.3-2.6c0-1.4,0.1-2.4,0.4-3.1c0.4-0.9,0.9-1.7,1.4-2.6c0,2.5,0.5,7.7,1.4,15.5
			C132.1,102,132.3,103.3,132.3,104.6z"/>
	</g>
	<g>
		<path class="st2" d="M72.4,88.7c0,2.7-0.8,4-2.5,4c-0.5,0-1-0.2-1.5-0.5c-0.1,0.5-0.4,1-0.9,1.4s-1,0.6-1.6,0.6
			c-1.3,0-2-0.9-2-2.7c0-0.4,0.2-1.2,0.6-2.3l0.5-0.1c0,1.8,0.3,2.6,0.9,2.6c1,0,1.7-1.3,2.2-3.9l0.5-0.1c0.3,1.6,0.8,2.4,1.3,2.4
			c1.1,0,1.6-1.2,1.6-3.5l0.5-0.3C72.3,87.2,72.4,87.8,72.4,88.7z"/>
		<path class="st2" d="M68.1,82.8l-0.2,2.4c-0.3-0.2-1-0.6-1.9-1.2c-2,2.3-3.6,3.4-4.8,3.4c-0.3,0-0.7-0.1-1.4-0.3
			c1.6-0.8,3.3-2.1,5.1-3.7c-1-0.7-1.5-1.4-1.5-2.2c0-0.8,0.3-1.7,0.9-2.6c0.6-0.9,1.2-1.4,2-1.4c1.1,0,1.6,0.7,1.6,2.1
			c0,0.8-0.3,1.7-0.8,2.8C67.4,82.3,67.8,82.5,68.1,82.8z M66.9,80.8c0-1-0.4-1.5-1.3-1.5c-0.3,0-0.4,0.2-0.4,0.5
			c0,0.5,0.5,1.1,1.6,1.8C66.9,81.3,66.9,80.9,66.9,80.8z"/>
		<path class="st2" d="M89.1,107.8h-3.7c-1,0-1.7-0.2-2.1-0.5c-0.4-0.4-0.7-1-1-2.1c-3.5,3.1-9.3,4.6-17.5,4.6
			c-9,0-13.4-2.4-13.4-7.3c0-1.3,0.6-3.4,1.9-6.3l0.6,0.3c-0.6,2-0.9,3.2-0.9,3.6c0,4.1,4.4,6.1,13.1,6.1c6.8,0,12-1,15.6-2.9
			c0.2-0.5,0.4-0.9,0.4-1.4c0.6,1.8,2.1,2.7,4.5,2.7c0.3,0,0.7,0,1.2,0s1,0,1.2,0L89.1,107.8L89.1,107.8z M70.8,115.8l-1.9,2.8
			l-2.6-1.9l1.8-2.7L70.8,115.8z"/>
		<path class="st2" d="M106.3,109.2c0,1.1-0.3,1.8-0.9,2.1l-7.2,4.1c0-1,0.5-1.8,1.6-2.4L106.3,109.2z"/>
		<path class="st2" d="M112.3,99.8l-1,2.9h-1.1c-0.6,0-1.5,0-2.7-0.1c-1.1-0.2-2-0.2-2.6-0.2c-2,0-4,0.5-6.2,1.4
			c-1.6,0.9-3.3,1.8-4.9,2.7c-1.8,0.9-3.3,1.4-4.5,1.4h-1.9v-3.2c2,0,3.7-0.1,4.9-0.4c1-0.2,2.5-0.8,4.6-1.6
			c1.3-0.5,2.4-0.9,3.4-1.1c-0.6-0.1-1.9-0.6-3.7-1.4c-1.5-0.7-2.8-1-3.8-1c-0.3,0-0.5,0.2-0.7,0.7h-2.8c1-2.9,2.6-4.3,4.9-4.3
			c1.2,0,3.1,0.7,5.9,2.2S106.9,99.8,112.3,99.8z"/>
		<path class="st2" d="M118.8,70.9l-0.1,2.4c-0.3-0.2-1-0.6-1.9-1.2c-2,2.3-3.6,3.4-4.8,3.4c-0.3,0-0.7-0.1-1.4-0.3
			c1.6-0.8,3.3-2.1,5.1-3.7c-1-0.7-1.5-1.4-1.5-2.2c0-0.8,0.3-1.7,0.9-2.6c0.6-0.9,1.2-1.4,2-1.4c1.1,0,1.6,0.7,1.6,2.1
			c0,0.8-0.3,1.7-0.8,2.8C118.1,70.3,118.4,70.7,118.8,70.9z M117.6,68.8c0-1-0.4-1.5-1.3-1.5c-0.2,0-0.4,0.2-0.4,0.5
			c0,0.5,0.5,1.1,1.6,1.8C117.6,69.3,117.6,69.1,117.6,68.8z"/>
		<path class="st2" d="M122.6,78.2c-0.2,0.9-0.5,1.4-0.8,1.5l-6.5,1.9c0.1-0.6,0.4-1.1,0.8-1.4c0.2-0.1,0.8-0.4,1.6-0.7
			c-1-0.4-1.5-1.1-1.6-1.9c0-0.3,0.1-0.6,0.4-1c0.6-0.8,1.2-1.5,2-2c0.7-0.5,1.4-0.8,1.9-0.8c0.8,0,1.2,0.4,1.2,1.3
			c0,0.5-0.2,1-0.7,1.6c-0.8-0.5-1.4-0.8-1.9-0.8c-0.4,0-1,0.3-1.6,0.8c1.3,1.2,2.4,1.8,3.4,1.8C121.3,78.4,121.9,78.3,122.6,78.2z"
			/>
		<path class="st2" d="M120.6,101.3c0,1.6-0.4,3.8-1.3,6.6l-0.6-0.1c0.2-1,0.2-1.9,0.2-2.9c0-2-0.2-4.4-0.6-7.5
			c-0.3-2.5-0.6-4.9-1-7.3c-0.2-1.5-0.3-2.4-0.3-2.6c0-1.4,0.1-2.4,0.4-3.1c0.4-0.9,0.9-1.7,1.4-2.6c0,2.5,0.5,7.7,1.4,15.5
			C120.4,98.7,120.6,100.1,120.6,101.3z"/>
	</g>
	<g>
		<path class="st2" d="M48.4,74.3l-0.2,2.4c-0.3-0.2-1-0.6-1.9-1.2c-2,2.3-3.6,3.4-4.8,3.4c-0.3,0-0.7-0.1-1.4-0.3
			c1.6-0.8,3.3-2.1,5.1-3.7c-1-0.7-1.5-1.4-1.5-2.2c0-0.8,0.3-1.7,0.9-2.6c0.6-0.9,1.2-1.4,2-1.4c1.1,0,1.6,0.7,1.6,2.1
			c0,0.8-0.3,1.7-0.8,2.8C47.8,73.8,48,73.9,48.4,74.3z M47.3,72.2c0-1-0.4-1.5-1.3-1.5c-0.3,0-0.4,0.2-0.4,0.5
			c0,0.5,0.5,1.1,1.6,1.8C47.2,72.7,47.3,72.4,47.3,72.2z"/>
		<path class="st2" d="M56.8,107.8H53c-2.1,0-3.6-2-4.6-5.9c-0.9,2-2.1,3.4-3.5,4.2c-1.3,0.7-3.1,1.1-5.3,1.1c-2.7,0-4-0.8-4-2.4
			c0-0.4,0.4-1.6,1.1-3.5h0.6v0.3c0,0.9,0.3,1.6,1,1.9c0.5,0.2,1.2,0.3,2.3,0.3c2.3,0,3.9-0.2,4.9-0.6c1.7-0.6,2.5-1.9,2.5-3.8
			c0-1.2-0.3-2.9-0.8-5.2c-0.6-2.2-0.9-3.8-0.9-5l1.6-2.2l2,12c0.6,3.7,1.9,5.6,3.7,5.6h3L56.8,107.8L56.8,107.8z"/>
		<path class="st2" d="M63.5,111.8l-1.8,2.8l-2.8-1.8l-1.6,2.4l-2.8-1.7l1.6-2.9l3,1.8l1.4-2.4L63.5,111.8z M62,100.7
			c0,4.8-1.7,7.2-5.2,7.2h-1.9v-3.2c3.9,0,5.9-0.7,5.9-2c0-0.3-0.3-1-0.9-2.1c-0.6-1.1-0.9-1.7-0.9-2c0-0.1,0.6-1.2,1.8-3.1
			C61.5,97.2,62,99,62,100.7z"/>
		<path class="st2" d="M86.9,107.8h-3.7c-2.1,0-3.6-2-4.6-5.9c-0.9,2-2.1,3.4-3.5,4.2c-1.3,0.7-3.1,1.1-5.3,1.1c-2.7,0-4-0.8-4-2.4
			c0-0.4,0.4-1.6,1.1-3.5h0.6v0.3c0,0.9,0.3,1.6,1,1.9c0.5,0.2,1.2,0.3,2.3,0.3c2.3,0,3.9-0.2,4.9-0.6c1.7-0.6,2.5-1.9,2.5-3.8
			c0-1.2-0.3-2.9-0.8-5.2c-0.5-2.3-0.8-3.9-0.8-5.1l1.6-2.2l2,12c0.6,3.7,1.9,5.6,3.7,5.6h3V107.8z"/>
		<path class="st2" d="M103.9,78.8c0,1.1-0.3,1.7-0.8,2.1l-7.3,4.1c0-1,0.5-1.8,1.6-2.4L103.9,78.8z"/>
		<path class="st2" d="M116.3,107.8h-4.3c-2.3,0-3.9-0.1-4.8-0.2c-2.1-0.4-3.2-1.3-3.2-2.6c0-0.9,0.2-1.8,0.6-2.7h-1.1
			c-2.3,0-4.6,0.5-6.9,1.4c-0.6,0.3-2.4,1.2-5.3,2.7c-1.8,1-3.3,1.4-4.3,1.4h-1.9v-3.2c2.5,0,4.3-0.2,5.4-0.5
			c1.7-0.7,4.4-1.7,8.2-2.8c-1.3-0.5-2.6-1-3.9-1.5c-1.8-0.6-3.1-1-3.9-1c-0.5,0-0.8,0.2-0.9,0.6h-2.8c0.3-1.2,0.8-2.2,1.7-3
			s1.9-1.2,3.1-1.2c0.7,0,2,0.4,3.7,1.1c1.3,0.5,2.6,1.1,3.8,1.6c3,1.1,6.8,1.6,11.1,1.6l-0.7,2.7c-3.2,0.1-4.6,0.1-4.2,0.1
			c0.1,0.9,0.6,1.5,1.5,1.8c0.9,0.3,3.9,0.5,9,0.5v3.2H116.3z M101.9,110.3l-1.6,2.9l-2.7-1.7l1.6-3L101.9,110.3z"/>
		<path class="st2" d="M114.4,104.6h10.7v3.2h-10.7V104.6z"/>
		<path class="st2" d="M127.6,83c-0.3-0.3-0.7-0.8-1.1-1.5c0.4-1.2,1.2-2.2,2.1-3.1c0.1,0.9,0.5,1.7,1.2,2.4c0.7,0.6,1.4,1,2.4,1.2
			l-1.8,3l-0.9-0.5c-0.2,1.6-0.2,2.6-0.2,2.8c0,1.3,0.3,3.2,0.8,5.7s0.8,4.4,0.8,5.6c0,6.1-1.9,9.2-5.6,9.2h-1.9v-3.2
			c1.8,0,3.1-0.1,3.9-0.3c1.6-0.5,2.4-1.4,2.4-2.7c0-0.5-0.2-2.2-0.7-5c-0.3-1.9-0.6-3.8-0.9-5.6c-0.4-2.3-0.6-4.2-0.6-5.6
			c0-0.2,0-0.5,0.1-1c0.1-0.5,0.1-0.8,0-1.1V83L127.6,83z"/>
		<path class="st2" d="M138.4,101.2c0,1.6-0.4,3.8-1.3,6.6l-0.6-0.1c0.2-1,0.2-1.9,0.2-2.9c0-2-0.2-4.4-0.6-7.5
			c-0.3-2.5-0.6-4.9-1-7.3c-0.2-1.5-0.3-2.4-0.3-2.6c0-1.4,0.1-2.4,0.4-3.1c0.4-0.9,0.9-1.7,1.4-2.6c0,2.5,0.5,7.7,1.4,15.5
			C138.4,98.6,138.4,100,138.4,101.2z"/>
	</g>
</g>
<g class="st1">
	<g>
		<path class="st2" d="M59.8,71.8l-0.2,2.4c-0.3-0.2-1-0.6-1.9-1.2c-2,2.3-3.6,3.4-4.8,3.4c-0.3,0-0.7-0.1-1.4-0.3
			c1.6-0.8,3.3-2.1,5.1-3.7c-1-0.7-1.5-1.4-1.5-2.2c0-0.8,0.3-1.7,0.9-2.6c0.6-0.9,1.2-1.4,2-1.4c1.1,0,1.6,0.7,1.6,2.1
			c0,0.8-0.3,1.7-0.8,2.8C59,71.2,59.5,71.3,59.8,71.8z M58.6,69.7c0-1-0.4-1.5-1.3-1.5c-0.3,0-0.4,0.2-0.4,0.5
			c0,0.5,0.5,1.1,1.6,1.8C58.5,70.2,58.6,69.8,58.6,69.7z"/>
		<path class="st2" d="M62.3,92.6c0,0.7-0.2,1.7-0.7,2.8c-0.4,0-0.9,0-1.5-0.1c-0.7-0.1-1.2-0.1-1.5-0.1c-1.8,0-3.4,0.3-4.9,0.9
			c-2,0.8-3,1.9-3,3.4s0.3,3.5,0.9,6c0.5,2,1,4.1,1.5,6.1c0.2,0.7,0.4,1.4,0.6,2.2c0.3,0.9,0.4,1.7,0.4,2.2s-0.3,1.2-0.9,2
			c-0.2-1.2-0.9-4.1-2.1-8.8c-1-4-1.5-6.7-1.5-8.2c0-1.3,0.2-2.8,0.6-4.4c0.5-1.8,1.3-3.1,2.5-3.8c0.5-0.3,2-0.7,4.5-1.3
			c-0.2-0.2-0.5-0.4-1-0.7c-0.5-0.3-0.9-0.4-1.2-0.4c-0.9,0-1.7,0.4-2.4,1.2l-0.8-0.1c0.6-1.7,1.1-2.8,1.5-3.4
			c0.8-1.1,1.8-1.7,3.1-1.7c1.2,0,2.6,0.7,4,2.2C61.6,90,62.3,91.3,62.3,92.6z"/>
		<path class="st2" d="M76.8,99.8h-3.7c-3,0-4.6-1.7-5-5c-0.5-4.3-1.1-10.6-1.8-18.9c0.7-0.9,1.3-1.6,1.8-2.3l1.7,19.3
			c0.1,1.5,0.6,2.5,1.3,3.1c0.5,0.4,1.5,0.6,2.7,0.6c0.3,0,0.8,0,1.4,0c0.7,0,1.2,0,1.5,0L76.8,99.8L76.8,99.8z"/>
		<path class="st2" d="M78.6,74.9c-0.3-0.3-0.6-0.8-1.1-1.4c0.5-1.3,1.2-2.3,2.2-3.1c0.1,0.9,0.5,1.7,1.2,2.3c0.7,0.7,1.4,1,2.3,1.1
			l-1.7,3.1l-0.8-0.4h-0.2c0.8,4.5,1.2,8.2,1.2,11.1c0,1.8-0.2,3.9-0.6,6.5c4.6-5.1,8.4-7.6,11.6-7.6c1.1,0,2,0.4,2.7,1.3s1,1.9,1,3
			c0,2.6-1.9,4.6-5.6,5.9h10.1v3.2H74.9v-3.3h2.8c0.4,0,0.8,0,1.2-0.1c1-1.5,1.5-4,1.5-7.6c0-2.3-0.5-6-1.5-11
			C78.9,77.3,78.8,76.3,78.6,74.9z M94.4,92.3c0-0.5-0.5-1-1.5-1.4c-0.8-0.4-1.6-0.5-2.2-0.5c-2,0-3.9,0.6-5.8,1.9
			c-1.7,1.1-3.1,2.6-4.3,4.4h1c2.5,0,5.3-0.5,8.2-1.6C92.9,94,94.4,93.1,94.4,92.3z M90.9,78.8l-1.7,3.2l-2.9-2l1.8-3.1L90.9,78.8z"
			/>
		<path class="st2" d="M108.4,68.8c0,2.7-0.8,4-2.5,4c-0.5,0-1-0.2-1.5-0.5c-0.1,0.5-0.4,1-0.9,1.4s-1,0.6-1.6,0.6
			c-1.3,0-2-0.9-2-2.7c0-0.4,0.2-1.2,0.6-2.3l0.5-0.1c0,1.8,0.3,2.6,0.9,2.6c1,0,1.7-1.3,2.2-3.9l0.5-0.1c0.3,1.6,0.8,2.4,1.3,2.4
			c1.1,0,1.6-1.2,1.6-3.5l0.5-0.3C108.4,67.2,108.4,67.9,108.4,68.8z"/>
		<path class="st2" d="M108.3,73.3c0,1.1-0.3,1.8-0.9,2.1l-7.2,4.1c0-1,0.5-1.8,1.6-2.4L108.3,73.3z"/>
		<path class="st2" d="M111.1,99.8h-3.7c-0.5,0-1-0.4-1.5-1.1s-0.7-1.4-0.7-1.9c-1.1,2-2.5,3-4.1,3h-1.9v-3.2c2.1,0,3.5-0.2,4-0.5
			c0.7-0.4,1.2-0.8,1.3-1.3c0.1-0.3,0.2-0.9,0.2-2h0.4c0.4,1.7,1.1,2.7,2.1,3.2c0.7,0.3,2,0.5,3.9,0.5
			C111.1,96.6,111.1,99.8,111.1,99.8z M106.9,85.6l-1.7,2.7l-2.6-1.8l1.6-2.8L106.9,85.6z"/>
		<path class="st2" d="M113.4,75.1c-0.3-0.3-0.7-0.8-1.1-1.5c0.4-1.2,1.2-2.2,2.1-3.1c0.1,0.9,0.5,1.7,1.2,2.4
			c0.7,0.6,1.4,1,2.4,1.2l-1.8,3l-0.9-0.5c-0.2,1.6-0.2,2.6-0.2,2.8c0,1.3,0.3,3.2,0.8,5.7s0.8,4.4,0.8,5.6c0,6.1-1.9,9.2-5.6,9.2
			h-1.9v-3.2c1.8,0,3.1-0.1,3.9-0.3c1.6-0.5,2.4-1.4,2.4-2.7c0-0.5-0.2-2.2-0.7-5c-0.3-1.9-0.6-3.8-0.9-5.6
			c-0.4-2.3-0.6-4.2-0.6-5.6c0-0.2,0-0.5,0.1-1c0.1-0.5,0.1-0.8,0-1.1C113.4,75.3,113.4,75.1,113.4,75.1z"/>
		<path class="st2" d="M124.4,93.3c0,1.6-0.4,3.8-1.3,6.6l-0.6-0.1c0.2-1,0.2-1.9,0.2-2.9c0-2-0.2-4.4-0.6-7.5
			c-0.3-2.5-0.6-4.9-1-7.3c-0.2-1.5-0.3-2.4-0.3-2.6c0-1.4,0.1-2.4,0.4-3.1c0.4-0.9,0.9-1.7,1.4-2.6c0,2.5,0.5,7.7,1.4,15.5
			C124.3,90.7,124.4,92.1,124.4,93.3z"/>
	</g>
	<g>
		<path class="st2" d="M51.8,76.1l-0.2,2.4c-0.3-0.2-1-0.6-1.9-1.2c-2,2.3-3.6,3.4-4.8,3.4c-0.3,0-0.7-0.1-1.4-0.3
			c1.6-0.8,3.3-2.1,5.1-3.7c-1-0.7-1.5-1.4-1.5-2.2c0-0.8,0.3-1.7,0.9-2.6c0.6-0.9,1.2-1.4,2-1.4c1.1,0,1.6,0.7,1.6,2.1
			c0,0.8-0.3,1.7-0.8,2.8C51,75.4,51.3,75.7,51.8,76.1z M50.6,73.9c0-1-0.4-1.5-1.3-1.5c-0.3,0-0.4,0.2-0.4,0.5
			c0,0.5,0.5,1.1,1.6,1.8C50.5,74.4,50.6,74.2,50.6,73.9z"/>
		<path class="st2" d="M57.1,111.2h-3.7c-1.5,0-2.7-1.9-3.4-5.8c-1.5,1.6-2.8,2.4-4,2.4c-0.8,0-1.6-0.1-2.4-0.3
			c-1.2-0.3-1.8-0.8-1.8-1.3c0-0.3,0.4-1.3,1.2-3s2.7-3.4,5.8-4.9c-0.1-0.6-0.1-1.6-0.2-2.8l1.3-1.4l1.6,9.8
			c0.4,2.2,0.8,3.5,1.3,3.8c0.3,0.2,1.7,0.3,4.3,0.3C57.1,107.9,57.1,111.2,57.1,111.2z M51.3,90.1l-1.8,2.7l-2.9-1.8L45,93.3
			l-2.8-2l1.7-2.8l2.9,1.9l1.7-2.4L51.3,90.1z M49.8,103.7l-0.6-3.7c-2.1,0.7-3.7,2-4.8,4c0.3,0.3,1.1,0.5,2.4,0.5
			S49,104.2,49.8,103.7z"/>
		<path class="st2" d="M74.1,88.7c0,2.7-0.8,4-2.5,4c-0.5,0-1-0.2-1.5-0.5c-0.1,0.5-0.4,1-0.9,1.4s-1,0.6-1.6,0.6
			c-1.3,0-2-0.9-2-2.7c0-0.4,0.2-1.2,0.6-2.3l0.5-0.1c0,1.8,0.3,2.6,0.9,2.6c1,0,1.7-1.3,2.2-3.9l0.5-0.1c0.3,1.6,0.8,2.4,1.3,2.4
			c1.1,0,1.6-1.2,1.6-3.5l0.5-0.3C74.1,87.2,74.1,87.8,74.1,88.7z"/>
		<path class="st2" d="M72.8,82.8c0,1.1-0.3,1.7-0.8,2.1l-7.3,4.1c0-1,0.5-1.8,1.6-2.4L72.8,82.8z"/>
		<path class="st2" d="M86.4,111.2h-4.3c-2.3,0-3.9-0.1-4.8-0.2c-2.1-0.4-3.2-1.3-3.2-2.6c0-0.9,0.2-1.8,0.6-2.7h-1.1
			c-2.3,0-4.6,0.5-6.9,1.4c-0.6,0.3-2.4,1.2-5.3,2.7c-1.8,1-3.3,1.4-4.3,1.4h-1.9V108c2.5,0,4.3-0.2,5.4-0.5
			c1.7-0.7,4.4-1.7,8.2-2.8c-1.3-0.5-2.6-1-3.9-1.5c-1.8-0.6-3.1-1-3.9-1c-0.5,0-0.8,0.2-0.9,0.6h-2.8c0.3-1.2,0.8-2.2,1.7-3
			s1.9-1.2,3.1-1.2c0.7,0,2,0.4,3.7,1.1c1.3,0.5,2.6,1.1,3.8,1.6c3,1.1,6.8,1.6,11.1,1.6l-0.7,2.7c-3.2,0.1-4.6,0.1-4.2,0.1
			c0.1,0.9,0.6,1.5,1.5,1.8s3.9,0.5,9,0.5L86.4,111.2L86.4,111.2z"/>
		<path class="st2" d="M105.1,82.2c0,2.7-0.8,4-2.5,4c-0.5,0-1-0.2-1.5-0.5c-0.1,0.5-0.4,1-0.9,1.4s-1,0.6-1.6,0.6
			c-1.3,0-2-0.9-2-2.7c0-0.4,0.2-1.2,0.6-2.3l0.5-0.1c0,1.8,0.3,2.6,0.9,2.6c1,0,1.7-1.3,2.2-3.9l0.5-0.1c0.3,1.6,0.8,2.4,1.3,2.4
			c1.1,0,1.6-1.2,1.6-3.5l0.5-0.3C104.9,80.6,105.1,81.3,105.1,82.2z"/>
		<path class="st2" d="M104.9,87.8c0,1.1-0.3,1.8-0.9,2.1l-7.2,4.1c0-1,0.5-1.8,1.6-2.4L104.9,87.8z"/>
		<path class="st2" d="M94.3,111.2c-1.9,0-3.2-1-3.7-3c-1.6,2-2.9,3-4.1,3h-1.9V108c2.1,0,3.6-0.2,4.3-0.6c0.7-0.4,1.2-0.8,1.3-1.2
			c0.1-0.3,0.2-1,0.2-2h0.4c0.2,1,0.7,1.9,1.3,2.8c0.4,0.6,1.5,0.9,3.1,1H95c0,0,0,0,0.1,0c0.1,0,0.1,0,0.1,0v3.2
			C95.2,111.2,94.3,111.2,94.3,111.2z"/>
		<path class="st2" d="M94.3,108h2.9c1.8-2.3,3.8-4.4,6-6.3c3-2.6,5.5-3.8,7.4-3.8c1.1,0,2,0.4,2.7,1.2c0.7,0.8,1.2,1.8,1.2,2.9
			c0,1.6-0.6,2.9-1.7,3.9c-0.8,0.7-2.1,1.4-3.9,2c4.1,0,7.4,0,10.1,0v3.2H96.6c-0.3,0.5-0.8,1.4-1.7,2.6l-0.4-0.4
			c0.4-0.9,0.7-1.6,1.1-2.3h-1.3L94.3,108L94.3,108z M112.4,103.8c0-1.2-1.1-1.9-3.3-1.9s-4.2,0.6-6,1.7c-1.1,0.7-2.6,2.2-4.6,4.3
			c4.7,0,8.8-1,12.4-2.9C111.9,104.6,112.4,104.2,112.4,103.8z"/>
		<path class="st2" d="M121.4,86.3c-0.3-0.3-0.7-0.8-1.1-1.5c0.4-1.2,1.2-2.2,2.1-3.1c0.1,0.9,0.5,1.7,1.2,2.4
			c0.7,0.6,1.4,1,2.4,1.2l-1.7,3.1l-0.9-0.5c-0.2,1.6-0.2,2.6-0.2,2.8c0,1.3,0.3,3.2,0.8,5.7s0.8,4.4,0.8,5.6c0,6.1-1.9,9.2-5.6,9.2
			h-1.9v-3.3c1.8,0,3.1-0.1,3.9-0.3c1.6-0.5,2.4-1.4,2.4-2.7c0-0.5-0.2-2.2-0.7-5c-0.3-1.9-0.6-3.8-0.9-5.6
			c-0.4-2.3-0.6-4.2-0.6-5.6c0-0.2,0-0.5,0.1-1c0.1-0.5,0.1-0.8,0-1.1v-0.3C121.5,86.3,121.4,86.3,121.4,86.3z"/>
		<path class="st2" d="M132.3,104.6c0,1.6-0.4,3.8-1.3,6.6l-0.6-0.1c0.2-1,0.2-1.9,0.2-2.9c0-2-0.2-4.4-0.6-7.5
			c-0.3-2.5-0.6-4.9-1-7.3c-0.2-1.5-0.3-2.4-0.3-2.6c0-1.4,0.1-2.4,0.4-3.1c0.4-0.9,0.9-1.7,1.4-2.6c0,2.5,0.5,7.7,1.4,15.5
			C132.1,102,132.3,103.3,132.3,104.6z"/>
	</g>
	<g class="st3">
		<path class="st0" d="M72.4,88.7c0,2.7-0.8,4-2.5,4c-0.5,0-1-0.2-1.5-0.5c-0.1,0.5-0.4,1-0.9,1.4s-1,0.6-1.6,0.6
			c-1.3,0-2-0.9-2-2.7c0-0.4,0.2-1.2,0.6-2.3l0.5-0.1c0,1.8,0.3,2.6,0.9,2.6c1,0,1.7-1.3,2.2-3.9l0.5-0.1c0.3,1.6,0.8,2.4,1.3,2.4
			c1.1,0,1.6-1.2,1.6-3.5l0.5-0.3C72.3,87.2,72.4,87.8,72.4,88.7z"/>
		<path class="st0" d="M68.1,82.8l-0.2,2.4c-0.3-0.2-1-0.6-1.9-1.2c-2,2.3-3.6,3.4-4.8,3.4c-0.3,0-0.7-0.1-1.4-0.3
			c1.6-0.8,3.3-2.1,5.1-3.7c-1-0.7-1.5-1.4-1.5-2.2c0-0.8,0.3-1.7,0.9-2.6c0.6-0.9,1.2-1.4,2-1.4c1.1,0,1.6,0.7,1.6,2.1
			c0,0.8-0.3,1.7-0.8,2.8C67.4,82.3,67.8,82.5,68.1,82.8z M66.9,80.8c0-1-0.4-1.5-1.3-1.5c-0.3,0-0.4,0.2-0.4,0.5
			c0,0.5,0.5,1.1,1.6,1.8C66.9,81.3,66.9,80.9,66.9,80.8z"/>
		<path class="st0" d="M89.1,107.8h-3.7c-1,0-1.7-0.2-2.1-0.5c-0.4-0.4-0.7-1-1-2.1c-3.5,3.1-9.3,4.6-17.5,4.6
			c-9,0-13.4-2.4-13.4-7.3c0-1.3,0.6-3.4,1.9-6.3l0.6,0.3c-0.6,2-0.9,3.2-0.9,3.6c0,4.1,4.4,6.1,13.1,6.1c6.8,0,12-1,15.6-2.9
			c0.2-0.5,0.4-0.9,0.4-1.4c0.6,1.8,2.1,2.7,4.5,2.7c0.3,0,0.7,0,1.2,0s1,0,1.2,0L89.1,107.8L89.1,107.8z M70.8,115.8l-1.9,2.8
			l-2.6-1.9l1.8-2.7L70.8,115.8z"/>
		<path class="st0" d="M106.3,109.2c0,1.1-0.3,1.8-0.9,2.1l-7.2,4.1c0-1,0.5-1.8,1.6-2.4L106.3,109.2z"/>
		<path class="st0" d="M112.3,99.8l-1,2.9h-1.1c-0.6,0-1.5,0-2.7-0.1c-1.1-0.2-2-0.2-2.6-0.2c-2,0-4,0.5-6.2,1.4
			c-1.6,0.9-3.3,1.8-4.9,2.7c-1.8,0.9-3.3,1.4-4.5,1.4h-1.9v-3.2c2,0,3.7-0.1,4.9-0.4c1-0.2,2.5-0.8,4.6-1.6
			c1.3-0.5,2.4-0.9,3.4-1.1c-0.6-0.1-1.9-0.6-3.7-1.4c-1.5-0.7-2.8-1-3.8-1c-0.3,0-0.5,0.2-0.7,0.7h-2.8c1-2.9,2.6-4.3,4.9-4.3
			c1.2,0,3.1,0.7,5.9,2.2S106.9,99.8,112.3,99.8z"/>
		<path class="st0" d="M118.8,70.9l-0.1,2.4c-0.3-0.2-1-0.6-1.9-1.2c-2,2.3-3.6,3.4-4.8,3.4c-0.3,0-0.7-0.1-1.4-0.3
			c1.6-0.8,3.3-2.1,5.1-3.7c-1-0.7-1.5-1.4-1.5-2.2c0-0.8,0.3-1.7,0.9-2.6c0.6-0.9,1.2-1.4,2-1.4c1.1,0,1.6,0.7,1.6,2.1
			c0,0.8-0.3,1.7-0.8,2.8C118.1,70.3,118.4,70.7,118.8,70.9z M117.6,68.8c0-1-0.4-1.5-1.3-1.5c-0.2,0-0.4,0.2-0.4,0.5
			c0,0.5,0.5,1.1,1.6,1.8C117.6,69.3,117.6,69.1,117.6,68.8z"/>
		<path class="st0" d="M122.6,78.2c-0.2,0.9-0.5,1.4-0.8,1.5l-6.5,1.9c0.1-0.6,0.4-1.1,0.8-1.4c0.2-0.1,0.8-0.4,1.6-0.7
			c-1-0.4-1.5-1.1-1.6-1.9c0-0.3,0.1-0.6,0.4-1c0.6-0.8,1.2-1.5,2-2c0.7-0.5,1.4-0.8,1.9-0.8c0.8,0,1.2,0.4,1.2,1.3
			c0,0.5-0.2,1-0.7,1.6c-0.8-0.5-1.4-0.8-1.9-0.8c-0.4,0-1,0.3-1.6,0.8c1.3,1.2,2.4,1.8,3.4,1.8C121.3,78.4,121.9,78.3,122.6,78.2z"
			/>
		<path class="st0" d="M120.6,101.3c0,1.6-0.4,3.8-1.3,6.6l-0.6-0.1c0.2-1,0.2-1.9,0.2-2.9c0-2-0.2-4.4-0.6-7.5
			c-0.3-2.5-0.6-4.9-1-7.3c-0.2-1.5-0.3-2.4-0.3-2.6c0-1.4,0.1-2.4,0.4-3.1c0.4-0.9,0.9-1.7,1.4-2.6c0,2.5,0.5,7.7,1.4,15.5
			C120.4,98.7,120.6,100.1,120.6,101.3z"/>
	</g>
	<g>
		<path class="st2" d="M48.4,74.3l-0.2,2.4c-0.3-0.2-1-0.6-1.9-1.2c-2,2.3-3.6,3.4-4.8,3.4c-0.3,0-0.7-0.1-1.4-0.3
			c1.6-0.8,3.3-2.1,5.1-3.7c-1-0.7-1.5-1.4-1.5-2.2c0-0.8,0.3-1.7,0.9-2.6c0.6-0.9,1.2-1.4,2-1.4c1.1,0,1.6,0.7,1.6,2.1
			c0,0.8-0.3,1.7-0.8,2.8C47.8,73.8,48,73.9,48.4,74.3z M47.3,72.2c0-1-0.4-1.5-1.3-1.5c-0.3,0-0.4,0.2-0.4,0.5
			c0,0.5,0.5,1.1,1.6,1.8C47.2,72.7,47.3,72.4,47.3,72.2z"/>
		<path class="st2" d="M56.8,107.8H53c-2.1,0-3.6-2-4.6-5.9c-0.9,2-2.1,3.4-3.5,4.2c-1.3,0.7-3.1,1.1-5.3,1.1c-2.7,0-4-0.8-4-2.4
			c0-0.4,0.4-1.6,1.1-3.5h0.6v0.3c0,0.9,0.3,1.6,1,1.9c0.5,0.2,1.2,0.3,2.3,0.3c2.3,0,3.9-0.2,4.9-0.6c1.7-0.6,2.5-1.9,2.5-3.8
			c0-1.2-0.3-2.9-0.8-5.2c-0.6-2.2-0.9-3.8-0.9-5l1.6-2.2l2,12c0.6,3.7,1.9,5.6,3.7,5.6h3L56.8,107.8L56.8,107.8z"/>
		<path class="st2" d="M63.5,111.8l-1.8,2.8l-2.8-1.8l-1.6,2.4l-2.8-1.7l1.6-2.9l3,1.8l1.4-2.4L63.5,111.8z M62,100.7
			c0,4.8-1.7,7.2-5.2,7.2h-1.9v-3.2c3.9,0,5.9-0.7,5.9-2c0-0.3-0.3-1-0.9-2.1c-0.6-1.1-0.9-1.7-0.9-2c0-0.1,0.6-1.2,1.8-3.1
			C61.5,97.2,62,99,62,100.7z"/>
		<path class="st2" d="M86.9,107.8h-3.7c-2.1,0-3.6-2-4.6-5.9c-0.9,2-2.1,3.4-3.5,4.2c-1.3,0.7-3.1,1.1-5.3,1.1c-2.7,0-4-0.8-4-2.4
			c0-0.4,0.4-1.6,1.1-3.5h0.6v0.3c0,0.9,0.3,1.6,1,1.9c0.5,0.2,1.2,0.3,2.3,0.3c2.3,0,3.9-0.2,4.9-0.6c1.7-0.6,2.5-1.9,2.5-3.8
			c0-1.2-0.3-2.9-0.8-5.2c-0.5-2.3-0.8-3.9-0.8-5.1l1.6-2.2l2,12c0.6,3.7,1.9,5.6,3.7,5.6h3V107.8z"/>
		<path class="st2" d="M103.9,78.8c0,1.1-0.3,1.7-0.8,2.1l-7.3,4.1c0-1,0.5-1.8,1.6-2.4L103.9,78.8z"/>
		<path class="st2" d="M116.3,107.8h-4.3c-2.3,0-3.9-0.1-4.8-0.2c-2.1-0.4-3.2-1.3-3.2-2.6c0-0.9,0.2-1.8,0.6-2.7h-1.1
			c-2.3,0-4.6,0.5-6.9,1.4c-0.6,0.3-2.4,1.2-5.3,2.7c-1.8,1-3.3,1.4-4.3,1.4h-1.9v-3.2c2.5,0,4.3-0.2,5.4-0.5
			c1.7-0.7,4.4-1.7,8.2-2.8c-1.3-0.5-2.6-1-3.9-1.5c-1.8-0.6-3.1-1-3.9-1c-0.5,0-0.8,0.2-0.9,0.6h-2.8c0.3-1.2,0.8-2.2,1.7-3
			s1.9-1.2,3.1-1.2c0.7,0,2,0.4,3.7,1.1c1.3,0.5,2.6,1.1,3.8,1.6c3,1.1,6.8,1.6,11.1,1.6l-0.7,2.7c-3.2,0.1-4.6,0.1-4.2,0.1
			c0.1,0.9,0.6,1.5,1.5,1.8c0.9,0.3,3.9,0.5,9,0.5v3.2H116.3z M101.9,110.3l-1.6,2.9l-2.7-1.7l1.6-3L101.9,110.3z"/>
		<path class="st2" d="M114.4,104.6h10.7v3.2h-10.7V104.6z"/>
		<path class="st2" d="M127.6,83c-0.3-0.3-0.7-0.8-1.1-1.5c0.4-1.2,1.2-2.2,2.1-3.1c0.1,0.9,0.5,1.7,1.2,2.4c0.7,0.6,1.4,1,2.4,1.2
			l-1.8,3l-0.9-0.5c-0.2,1.6-0.2,2.6-0.2,2.8c0,1.3,0.3,3.2,0.8,5.7s0.8,4.4,0.8,5.6c0,6.1-1.9,9.2-5.6,9.2h-1.9v-3.2
			c1.8,0,3.1-0.1,3.9-0.3c1.6-0.5,2.4-1.4,2.4-2.7c0-0.5-0.2-2.2-0.7-5c-0.3-1.9-0.6-3.8-0.9-5.6c-0.4-2.3-0.6-4.2-0.6-5.6
			c0-0.2,0-0.5,0.1-1c0.1-0.5,0.1-0.8,0-1.1V83L127.6,83z"/>
		<path class="st2" d="M138.4,101.2c0,1.6-0.4,3.8-1.3,6.6l-0.6-0.1c0.2-1,0.2-1.9,0.2-2.9c0-2-0.2-4.4-0.6-7.5
			c-0.3-2.5-0.6-4.9-1-7.3c-0.2-1.5-0.3-2.4-0.3-2.6c0-1.4,0.1-2.4,0.4-3.1c0.4-0.9,0.9-1.7,1.4-2.6c0,2.5,0.5,7.7,1.4,15.5
			C138.4,98.6,138.4,100,138.4,101.2z"/>
	</g>
</g>
<g class="st1">
	<g>
		<path class="st2" d="M59.8,71.8l-0.2,2.4c-0.3-0.2-1-0.6-1.9-1.2c-2,2.3-3.6,3.4-4.8,3.4c-0.3,0-0.7-0.1-1.4-0.3
			c1.6-0.8,3.3-2.1,5.1-3.7c-1-0.7-1.5-1.4-1.5-2.2c0-0.8,0.3-1.7,0.9-2.6c0.6-0.9,1.2-1.4,2-1.4c1.1,0,1.6,0.7,1.6,2.1
			c0,0.8-0.3,1.7-0.8,2.8C59,71.2,59.5,71.3,59.8,71.8z M58.6,69.7c0-1-0.4-1.5-1.3-1.5c-0.3,0-0.4,0.2-0.4,0.5
			c0,0.5,0.5,1.1,1.6,1.8C58.5,70.2,58.6,69.8,58.6,69.7z"/>
		<path class="st2" d="M62.3,92.6c0,0.7-0.2,1.7-0.7,2.8c-0.4,0-0.9,0-1.5-0.1c-0.7-0.1-1.2-0.1-1.5-0.1c-1.8,0-3.4,0.3-4.9,0.9
			c-2,0.8-3,1.9-3,3.4s0.3,3.5,0.9,6c0.5,2,1,4.1,1.5,6.1c0.2,0.7,0.4,1.4,0.6,2.2c0.3,0.9,0.4,1.7,0.4,2.2s-0.3,1.2-0.9,2
			c-0.2-1.2-0.9-4.1-2.1-8.8c-1-4-1.5-6.7-1.5-8.2c0-1.3,0.2-2.8,0.6-4.4c0.5-1.8,1.3-3.1,2.5-3.8c0.5-0.3,2-0.7,4.5-1.3
			c-0.2-0.2-0.5-0.4-1-0.7c-0.5-0.3-0.9-0.4-1.2-0.4c-0.9,0-1.7,0.4-2.4,1.2l-0.8-0.1c0.6-1.7,1.1-2.8,1.5-3.4
			c0.8-1.1,1.8-1.7,3.1-1.7c1.2,0,2.6,0.7,4,2.2C61.6,90,62.3,91.3,62.3,92.6z"/>
		<path class="st2" d="M76.8,99.8h-3.7c-3,0-4.6-1.7-5-5c-0.5-4.3-1.1-10.6-1.8-18.9c0.7-0.9,1.3-1.6,1.8-2.3l1.7,19.3
			c0.1,1.5,0.6,2.5,1.3,3.1c0.5,0.4,1.5,0.6,2.7,0.6c0.3,0,0.8,0,1.4,0c0.7,0,1.2,0,1.5,0L76.8,99.8L76.8,99.8z"/>
		<path class="st2" d="M78.6,74.9c-0.3-0.3-0.6-0.8-1.1-1.4c0.5-1.3,1.2-2.3,2.2-3.1c0.1,0.9,0.5,1.7,1.2,2.3c0.7,0.7,1.4,1,2.3,1.1
			l-1.7,3.1l-0.8-0.4h-0.2c0.8,4.5,1.2,8.2,1.2,11.1c0,1.8-0.2,3.9-0.6,6.5c4.6-5.1,8.4-7.6,11.6-7.6c1.1,0,2,0.4,2.7,1.3s1,1.9,1,3
			c0,2.6-1.9,4.6-5.6,5.9h10.1v3.2H74.9v-3.3h2.8c0.4,0,0.8,0,1.2-0.1c1-1.5,1.5-4,1.5-7.6c0-2.3-0.5-6-1.5-11
			C78.9,77.3,78.8,76.3,78.6,74.9z M94.4,92.3c0-0.5-0.5-1-1.5-1.4c-0.8-0.4-1.6-0.5-2.2-0.5c-2,0-3.9,0.6-5.8,1.9
			c-1.7,1.1-3.1,2.6-4.3,4.4h1c2.5,0,5.3-0.5,8.2-1.6C92.9,94,94.4,93.1,94.4,92.3z M90.9,78.8l-1.7,3.2l-2.9-2l1.8-3.1L90.9,78.8z"
			/>
		<path class="st2" d="M108.4,68.8c0,2.7-0.8,4-2.5,4c-0.5,0-1-0.2-1.5-0.5c-0.1,0.5-0.4,1-0.9,1.4s-1,0.6-1.6,0.6
			c-1.3,0-2-0.9-2-2.7c0-0.4,0.2-1.2,0.6-2.3l0.5-0.1c0,1.8,0.3,2.6,0.9,2.6c1,0,1.7-1.3,2.2-3.9l0.5-0.1c0.3,1.6,0.8,2.4,1.3,2.4
			c1.1,0,1.6-1.2,1.6-3.5l0.5-0.3C108.4,67.2,108.4,67.9,108.4,68.8z"/>
		<path class="st2" d="M108.3,73.3c0,1.1-0.3,1.8-0.9,2.1l-7.2,4.1c0-1,0.5-1.8,1.6-2.4L108.3,73.3z"/>
		<path class="st2" d="M111.1,99.8h-3.7c-0.5,0-1-0.4-1.5-1.1s-0.7-1.4-0.7-1.9c-1.1,2-2.5,3-4.1,3h-1.9v-3.2c2.1,0,3.5-0.2,4-0.5
			c0.7-0.4,1.2-0.8,1.3-1.3c0.1-0.3,0.2-0.9,0.2-2h0.4c0.4,1.7,1.1,2.7,2.1,3.2c0.7,0.3,2,0.5,3.9,0.5
			C111.1,96.6,111.1,99.8,111.1,99.8z M106.9,85.6l-1.7,2.7l-2.6-1.8l1.6-2.8L106.9,85.6z"/>
		<path class="st2" d="M113.4,75.1c-0.3-0.3-0.7-0.8-1.1-1.5c0.4-1.2,1.2-2.2,2.1-3.1c0.1,0.9,0.5,1.7,1.2,2.4
			c0.7,0.6,1.4,1,2.4,1.2l-1.8,3l-0.9-0.5c-0.2,1.6-0.2,2.6-0.2,2.8c0,1.3,0.3,3.2,0.8,5.7s0.8,4.4,0.8,5.6c0,6.1-1.9,9.2-5.6,9.2
			h-1.9v-3.2c1.8,0,3.1-0.1,3.9-0.3c1.6-0.5,2.4-1.4,2.4-2.7c0-0.5-0.2-2.2-0.7-5c-0.3-1.9-0.6-3.8-0.9-5.6
			c-0.4-2.3-0.6-4.2-0.6-5.6c0-0.2,0-0.5,0.1-1c0.1-0.5,0.1-0.8,0-1.1C113.4,75.3,113.4,75.1,113.4,75.1z"/>
		<path class="st2" d="M124.4,93.3c0,1.6-0.4,3.8-1.3,6.6l-0.6-0.1c0.2-1,0.2-1.9,0.2-2.9c0-2-0.2-4.4-0.6-7.5
			c-0.3-2.5-0.6-4.9-1-7.3c-0.2-1.5-0.3-2.4-0.3-2.6c0-1.4,0.1-2.4,0.4-3.1c0.4-0.9,0.9-1.7,1.4-2.6c0,2.5,0.5,7.7,1.4,15.5
			C124.3,90.7,124.4,92.1,124.4,93.3z"/>
	</g>
	<g>
		<path class="st2" d="M51.8,76.1l-0.2,2.4c-0.3-0.2-1-0.6-1.9-1.2c-2,2.3-3.6,3.4-4.8,3.4c-0.3,0-0.7-0.1-1.4-0.3
			c1.6-0.8,3.3-2.1,5.1-3.7c-1-0.7-1.5-1.4-1.5-2.2c0-0.8,0.3-1.7,0.9-2.6c0.6-0.9,1.2-1.4,2-1.4c1.1,0,1.6,0.7,1.6,2.1
			c0,0.8-0.3,1.7-0.8,2.8C51,75.4,51.3,75.7,51.8,76.1z M50.6,73.9c0-1-0.4-1.5-1.3-1.5c-0.3,0-0.4,0.2-0.4,0.5
			c0,0.5,0.5,1.1,1.6,1.8C50.5,74.4,50.6,74.2,50.6,73.9z"/>
		<path class="st2" d="M57.1,111.2h-3.7c-1.5,0-2.7-1.9-3.4-5.8c-1.5,1.6-2.8,2.4-4,2.4c-0.8,0-1.6-0.1-2.4-0.3
			c-1.2-0.3-1.8-0.8-1.8-1.3c0-0.3,0.4-1.3,1.2-3s2.7-3.4,5.8-4.9c-0.1-0.6-0.1-1.6-0.2-2.8l1.3-1.4l1.6,9.8
			c0.4,2.2,0.8,3.5,1.3,3.8c0.3,0.2,1.7,0.3,4.3,0.3C57.1,107.9,57.1,111.2,57.1,111.2z M51.3,90.1l-1.8,2.7l-2.9-1.8L45,93.3
			l-2.8-2l1.7-2.8l2.9,1.9l1.7-2.4L51.3,90.1z M49.8,103.7l-0.6-3.7c-2.1,0.7-3.7,2-4.8,4c0.3,0.3,1.1,0.5,2.4,0.5
			S49,104.2,49.8,103.7z"/>
		<path class="st2" d="M74.1,88.7c0,2.7-0.8,4-2.5,4c-0.5,0-1-0.2-1.5-0.5c-0.1,0.5-0.4,1-0.9,1.4s-1,0.6-1.6,0.6
			c-1.3,0-2-0.9-2-2.7c0-0.4,0.2-1.2,0.6-2.3l0.5-0.1c0,1.8,0.3,2.6,0.9,2.6c1,0,1.7-1.3,2.2-3.9l0.5-0.1c0.3,1.6,0.8,2.4,1.3,2.4
			c1.1,0,1.6-1.2,1.6-3.5l0.5-0.3C74.1,87.2,74.1,87.8,74.1,88.7z"/>
		<path class="st2" d="M72.8,82.8c0,1.1-0.3,1.7-0.8,2.1l-7.3,4.1c0-1,0.5-1.8,1.6-2.4L72.8,82.8z"/>
		<path class="st2" d="M86.4,111.2h-4.3c-2.3,0-3.9-0.1-4.8-0.2c-2.1-0.4-3.2-1.3-3.2-2.6c0-0.9,0.2-1.8,0.6-2.7h-1.1
			c-2.3,0-4.6,0.5-6.9,1.4c-0.6,0.3-2.4,1.2-5.3,2.7c-1.8,1-3.3,1.4-4.3,1.4h-1.9V108c2.5,0,4.3-0.2,5.4-0.5
			c1.7-0.7,4.4-1.7,8.2-2.8c-1.3-0.5-2.6-1-3.9-1.5c-1.8-0.6-3.1-1-3.9-1c-0.5,0-0.8,0.2-0.9,0.6h-2.8c0.3-1.2,0.8-2.2,1.7-3
			s1.9-1.2,3.1-1.2c0.7,0,2,0.4,3.7,1.1c1.3,0.5,2.6,1.1,3.8,1.6c3,1.1,6.8,1.6,11.1,1.6l-0.7,2.7c-3.2,0.1-4.6,0.1-4.2,0.1
			c0.1,0.9,0.6,1.5,1.5,1.8s3.9,0.5,9,0.5L86.4,111.2L86.4,111.2z"/>
		<path class="st2" d="M105.1,82.2c0,2.7-0.8,4-2.5,4c-0.5,0-1-0.2-1.5-0.5c-0.1,0.5-0.4,1-0.9,1.4s-1,0.6-1.6,0.6
			c-1.3,0-2-0.9-2-2.7c0-0.4,0.2-1.2,0.6-2.3l0.5-0.1c0,1.8,0.3,2.6,0.9,2.6c1,0,1.7-1.3,2.2-3.9l0.5-0.1c0.3,1.6,0.8,2.4,1.3,2.4
			c1.1,0,1.6-1.2,1.6-3.5l0.5-0.3C104.9,80.6,105.1,81.3,105.1,82.2z"/>
		<path class="st2" d="M104.9,87.8c0,1.1-0.3,1.8-0.9,2.1l-7.2,4.1c0-1,0.5-1.8,1.6-2.4L104.9,87.8z"/>
		<path class="st2" d="M94.3,111.2c-1.9,0-3.2-1-3.7-3c-1.6,2-2.9,3-4.1,3h-1.9V108c2.1,0,3.6-0.2,4.3-0.6c0.7-0.4,1.2-0.8,1.3-1.2
			c0.1-0.3,0.2-1,0.2-2h0.4c0.2,1,0.7,1.9,1.3,2.8c0.4,0.6,1.5,0.9,3.1,1H95c0,0,0,0,0.1,0c0.1,0,0.1,0,0.1,0v3.2
			C95.2,111.2,94.3,111.2,94.3,111.2z"/>
		<path class="st2" d="M94.3,108h2.9c1.8-2.3,3.8-4.4,6-6.3c3-2.6,5.5-3.8,7.4-3.8c1.1,0,2,0.4,2.7,1.2c0.7,0.8,1.2,1.8,1.2,2.9
			c0,1.6-0.6,2.9-1.7,3.9c-0.8,0.7-2.1,1.4-3.9,2c4.1,0,7.4,0,10.1,0v3.2H96.6c-0.3,0.5-0.8,1.4-1.7,2.6l-0.4-0.4
			c0.4-0.9,0.7-1.6,1.1-2.3h-1.3L94.3,108L94.3,108z M112.4,103.8c0-1.2-1.1-1.9-3.3-1.9s-4.2,0.6-6,1.7c-1.1,0.7-2.6,2.2-4.6,4.3
			c4.7,0,8.8-1,12.4-2.9C111.9,104.6,112.4,104.2,112.4,103.8z"/>
		<path class="st2" d="M121.4,86.3c-0.3-0.3-0.7-0.8-1.1-1.5c0.4-1.2,1.2-2.2,2.1-3.1c0.1,0.9,0.5,1.7,1.2,2.4
			c0.7,0.6,1.4,1,2.4,1.2l-1.7,3.1l-0.9-0.5c-0.2,1.6-0.2,2.6-0.2,2.8c0,1.3,0.3,3.2,0.8,5.7s0.8,4.4,0.8,5.6c0,6.1-1.9,9.2-5.6,9.2
			h-1.9v-3.3c1.8,0,3.1-0.1,3.9-0.3c1.6-0.5,2.4-1.4,2.4-2.7c0-0.5-0.2-2.2-0.7-5c-0.3-1.9-0.6-3.8-0.9-5.6
			c-0.4-2.3-0.6-4.2-0.6-5.6c0-0.2,0-0.5,0.1-1c0.1-0.5,0.1-0.8,0-1.1v-0.3C121.5,86.3,121.4,86.3,121.4,86.3z"/>
		<path class="st2" d="M132.3,104.6c0,1.6-0.4,3.8-1.3,6.6l-0.6-0.1c0.2-1,0.2-1.9,0.2-2.9c0-2-0.2-4.4-0.6-7.5
			c-0.3-2.5-0.6-4.9-1-7.3c-0.2-1.5-0.3-2.4-0.3-2.6c0-1.4,0.1-2.4,0.4-3.1c0.4-0.9,0.9-1.7,1.4-2.6c0,2.5,0.5,7.7,1.4,15.5
			C132.1,102,132.3,103.3,132.3,104.6z"/>
	</g>
	<g>
		<path class="st2" d="M72.4,88.7c0,2.7-0.8,4-2.5,4c-0.5,0-1-0.2-1.5-0.5c-0.1,0.5-0.4,1-0.9,1.4s-1,0.6-1.6,0.6
			c-1.3,0-2-0.9-2-2.7c0-0.4,0.2-1.2,0.6-2.3l0.5-0.1c0,1.8,0.3,2.6,0.9,2.6c1,0,1.7-1.3,2.2-3.9l0.5-0.1c0.3,1.6,0.8,2.4,1.3,2.4
			c1.1,0,1.6-1.2,1.6-3.5l0.5-0.3C72.3,87.2,72.4,87.8,72.4,88.7z"/>
		<path class="st2" d="M68.1,82.8l-0.2,2.4c-0.3-0.2-1-0.6-1.9-1.2c-2,2.3-3.6,3.4-4.8,3.4c-0.3,0-0.7-0.1-1.4-0.3
			c1.6-0.8,3.3-2.1,5.1-3.7c-1-0.7-1.5-1.4-1.5-2.2c0-0.8,0.3-1.7,0.9-2.6c0.6-0.9,1.2-1.4,2-1.4c1.1,0,1.6,0.7,1.6,2.1
			c0,0.8-0.3,1.7-0.8,2.8C67.4,82.3,67.8,82.5,68.1,82.8z M66.9,80.8c0-1-0.4-1.5-1.3-1.5c-0.3,0-0.4,0.2-0.4,0.5
			c0,0.5,0.5,1.1,1.6,1.8C66.9,81.3,66.9,80.9,66.9,80.8z"/>
		<path class="st2" d="M89.1,107.8h-3.7c-1,0-1.7-0.2-2.1-0.5c-0.4-0.4-0.7-1-1-2.1c-3.5,3.1-9.3,4.6-17.5,4.6
			c-9,0-13.4-2.4-13.4-7.3c0-1.3,0.6-3.4,1.9-6.3l0.6,0.3c-0.6,2-0.9,3.2-0.9,3.6c0,4.1,4.4,6.1,13.1,6.1c6.8,0,12-1,15.6-2.9
			c0.2-0.5,0.4-0.9,0.4-1.4c0.6,1.8,2.1,2.7,4.5,2.7c0.3,0,0.7,0,1.2,0s1,0,1.2,0L89.1,107.8L89.1,107.8z M70.8,115.8l-1.9,2.8
			l-2.6-1.9l1.8-2.7L70.8,115.8z"/>
		<path class="st2" d="M106.3,109.2c0,1.1-0.3,1.8-0.9,2.1l-7.2,4.1c0-1,0.5-1.8,1.6-2.4L106.3,109.2z"/>
		<path class="st2" d="M112.3,99.8l-1,2.9h-1.1c-0.6,0-1.5,0-2.7-0.1c-1.1-0.2-2-0.2-2.6-0.2c-2,0-4,0.5-6.2,1.4
			c-1.6,0.9-3.3,1.8-4.9,2.7c-1.8,0.9-3.3,1.4-4.5,1.4h-1.9v-3.2c2,0,3.7-0.1,4.9-0.4c1-0.2,2.5-0.8,4.6-1.6
			c1.3-0.5,2.4-0.9,3.4-1.1c-0.6-0.1-1.9-0.6-3.7-1.4c-1.5-0.7-2.8-1-3.8-1c-0.3,0-0.5,0.2-0.7,0.7h-2.8c1-2.9,2.6-4.3,4.9-4.3
			c1.2,0,3.1,0.7,5.9,2.2S106.9,99.8,112.3,99.8z"/>
		<path class="st2" d="M118.8,70.9l-0.1,2.4c-0.3-0.2-1-0.6-1.9-1.2c-2,2.3-3.6,3.4-4.8,3.4c-0.3,0-0.7-0.1-1.4-0.3
			c1.6-0.8,3.3-2.1,5.1-3.7c-1-0.7-1.5-1.4-1.5-2.2c0-0.8,0.3-1.7,0.9-2.6c0.6-0.9,1.2-1.4,2-1.4c1.1,0,1.6,0.7,1.6,2.1
			c0,0.8-0.3,1.7-0.8,2.8C118.1,70.3,118.4,70.7,118.8,70.9z M117.6,68.8c0-1-0.4-1.5-1.3-1.5c-0.2,0-0.4,0.2-0.4,0.5
			c0,0.5,0.5,1.1,1.6,1.8C117.6,69.3,117.6,69.1,117.6,68.8z"/>
		<path class="st2" d="M122.6,78.2c-0.2,0.9-0.5,1.4-0.8,1.5l-6.5,1.9c0.1-0.6,0.4-1.1,0.8-1.4c0.2-0.1,0.8-0.4,1.6-0.7
			c-1-0.4-1.5-1.1-1.6-1.9c0-0.3,0.1-0.6,0.4-1c0.6-0.8,1.2-1.5,2-2c0.7-0.5,1.4-0.8,1.9-0.8c0.8,0,1.2,0.4,1.2,1.3
			c0,0.5-0.2,1-0.7,1.6c-0.8-0.5-1.4-0.8-1.9-0.8c-0.4,0-1,0.3-1.6,0.8c1.3,1.2,2.4,1.8,3.4,1.8C121.3,78.4,121.9,78.3,122.6,78.2z"
			/>
		<path class="st2" d="M120.6,101.3c0,1.6-0.4,3.8-1.3,6.6l-0.6-0.1c0.2-1,0.2-1.9,0.2-2.9c0-2-0.2-4.4-0.6-7.5
			c-0.3-2.5-0.6-4.9-1-7.3c-0.2-1.5-0.3-2.4-0.3-2.6c0-1.4,0.1-2.4,0.4-3.1c0.4-0.9,0.9-1.7,1.4-2.6c0,2.5,0.5,7.7,1.4,15.5
			C120.4,98.7,120.6,100.1,120.6,101.3z"/>
	</g>
	<g class="st3">
		<path class="st0" d="M48.4,74.3l-0.2,2.4c-0.3-0.2-1-0.6-1.9-1.2c-2,2.3-3.6,3.4-4.8,3.4c-0.3,0-0.7-0.1-1.4-0.3
			c1.6-0.8,3.3-2.1,5.1-3.7c-1-0.7-1.5-1.4-1.5-2.2c0-0.8,0.3-1.7,0.9-2.6c0.6-0.9,1.2-1.4,2-1.4c1.1,0,1.6,0.7,1.6,2.1
			c0,0.8-0.3,1.7-0.8,2.8C47.8,73.8,48,73.9,48.4,74.3z M47.3,72.2c0-1-0.4-1.5-1.3-1.5c-0.3,0-0.4,0.2-0.4,0.5
			c0,0.5,0.5,1.1,1.6,1.8C47.2,72.7,47.3,72.4,47.3,72.2z"/>
		<path class="st0" d="M56.8,107.8H53c-2.1,0-3.6-2-4.6-5.9c-0.9,2-2.1,3.4-3.5,4.2c-1.3,0.7-3.1,1.1-5.3,1.1c-2.7,0-4-0.8-4-2.4
			c0-0.4,0.4-1.6,1.1-3.5h0.6v0.3c0,0.9,0.3,1.6,1,1.9c0.5,0.2,1.2,0.3,2.3,0.3c2.3,0,3.9-0.2,4.9-0.6c1.7-0.6,2.5-1.9,2.5-3.8
			c0-1.2-0.3-2.9-0.8-5.2c-0.6-2.2-0.9-3.8-0.9-5l1.6-2.2l2,12c0.6,3.7,1.9,5.6,3.7,5.6h3L56.8,107.8L56.8,107.8z"/>
		<path class="st0" d="M63.5,111.8l-1.8,2.8l-2.8-1.8l-1.6,2.4l-2.8-1.7l1.6-2.9l3,1.8l1.4-2.4L63.5,111.8z M62,100.7
			c0,4.8-1.7,7.2-5.2,7.2h-1.9v-3.2c3.9,0,5.9-0.7,5.9-2c0-0.3-0.3-1-0.9-2.1c-0.6-1.1-0.9-1.7-0.9-2c0-0.1,0.6-1.2,1.8-3.1
			C61.5,97.2,62,99,62,100.7z"/>
		<path class="st0" d="M86.9,107.8h-3.7c-2.1,0-3.6-2-4.6-5.9c-0.9,2-2.1,3.4-3.5,4.2c-1.3,0.7-3.1,1.1-5.3,1.1c-2.7,0-4-0.8-4-2.4
			c0-0.4,0.4-1.6,1.1-3.5h0.6v0.3c0,0.9,0.3,1.6,1,1.9c0.5,0.2,1.2,0.3,2.3,0.3c2.3,0,3.9-0.2,4.9-0.6c1.7-0.6,2.5-1.9,2.5-3.8
			c0-1.2-0.3-2.9-0.8-5.2c-0.5-2.3-0.8-3.9-0.8-5.1l1.6-2.2l2,12c0.6,3.7,1.9,5.6,3.7,5.6h3V107.8z"/>
		<path class="st0" d="M103.9,78.8c0,1.1-0.3,1.7-0.8,2.1l-7.3,4.1c0-1,0.5-1.8,1.6-2.4L103.9,78.8z"/>
		<path class="st0" d="M116.3,107.8h-4.3c-2.3,0-3.9-0.1-4.8-0.2c-2.1-0.4-3.2-1.3-3.2-2.6c0-0.9,0.2-1.8,0.6-2.7h-1.1
			c-2.3,0-4.6,0.5-6.9,1.4c-0.6,0.3-2.4,1.2-5.3,2.7c-1.8,1-3.3,1.4-4.3,1.4h-1.9v-3.2c2.5,0,4.3-0.2,5.4-0.5
			c1.7-0.7,4.4-1.7,8.2-2.8c-1.3-0.5-2.6-1-3.9-1.5c-1.8-0.6-3.1-1-3.9-1c-0.5,0-0.8,0.2-0.9,0.6h-2.8c0.3-1.2,0.8-2.2,1.7-3
			s1.9-1.2,3.1-1.2c0.7,0,2,0.4,3.7,1.1c1.3,0.5,2.6,1.1,3.8,1.6c3,1.1,6.8,1.6,11.1,1.6l-0.7,2.7c-3.2,0.1-4.6,0.1-4.2,0.1
			c0.1,0.9,0.6,1.5,1.5,1.8c0.9,0.3,3.9,0.5,9,0.5v3.2H116.3z M101.9,110.3l-1.6,2.9l-2.7-1.7l1.6-3L101.9,110.3z"/>
		<path class="st0" d="M114.4,104.6h10.7v3.2h-10.7V104.6z"/>
		<path class="st0" d="M127.6,83c-0.3-0.3-0.7-0.8-1.1-1.5c0.4-1.2,1.2-2.2,2.1-3.1c0.1,0.9,0.5,1.7,1.2,2.4c0.7,0.6,1.4,1,2.4,1.2
			l-1.8,3l-0.9-0.5c-0.2,1.6-0.2,2.6-0.2,2.8c0,1.3,0.3,3.2,0.8,5.7s0.8,4.4,0.8,5.6c0,6.1-1.9,9.2-5.6,9.2h-1.9v-3.2
			c1.8,0,3.1-0.1,3.9-0.3c1.6-0.5,2.4-1.4,2.4-2.7c0-0.5-0.2-2.2-0.7-5c-0.3-1.9-0.6-3.8-0.9-5.6c-0.4-2.3-0.6-4.2-0.6-5.6
			c0-0.2,0-0.5,0.1-1c0.1-0.5,0.1-0.8,0-1.1V83L127.6,83z"/>
		<path class="st0" d="M138.4,101.2c0,1.6-0.4,3.8-1.3,6.6l-0.6-0.1c0.2-1,0.2-1.9,0.2-2.9c0-2-0.2-4.4-0.6-7.5
			c-0.3-2.5-0.6-4.9-1-7.3c-0.2-1.5-0.3-2.4-0.3-2.6c0-1.4,0.1-2.4,0.4-3.1c0.4-0.9,0.9-1.7,1.4-2.6c0,2.5,0.5,7.7,1.4,15.5
			C138.4,98.6,138.4,100,138.4,101.2z"/>
	</g>
</g>
</svg>
