<?xml version="1.0" encoding="utf-8"?>
<!-- Generator: Adobe Illustrator 16.0.0, SVG Export Plug-In . SVG Version: 6.00 Build 0)  -->
<!DOCTYPE svg PUBLIC "-//W3C//DTD SVG 1.1//EN" "http://www.w3.org/Graphics/SVG/1.1/DTD/svg11.dtd">
<svg version="1.1" id="Layer_1" xmlns="http://www.w3.org/2000/svg" xmlns:xlink="http://www.w3.org/1999/xlink" x="0px" y="0px"
	 width="164.45px" height="167.701px" viewBox="0 0 164.45 167.701" enable-background="new 0 0 164.45 167.701"
	 xml:space="preserve">
<g>
	<g>
		<g>
			<path fill="#9EC0DF" d="M161.611,167.701H4.161c-1.93,0-3.5-1.57-3.5-3.5V3.5c0-1.93,1.57-3.5,3.5-3.5h157.45
				c1.93,0,3.5,1.57,3.5,3.5v160.701C165.111,166.131,163.541,167.701,161.611,167.701z M4.161,1c-1.378,0-2.5,1.121-2.5,2.5
				v160.701c0,1.379,1.122,2.5,2.5,2.5h157.45c1.378,0,2.5-1.121,2.5-2.5V3.5c0-1.379-1.122-2.5-2.5-2.5H4.161z"/>
			<g>
				<path fill="#9EC0DF" d="M38.746,119.561c-0.27-0.252-0.45-0.522-0.54-0.811c0.216-0.684,0.612-1.251,1.188-1.701
					c0.072,0.505,0.292,0.937,0.662,1.296c0.369,0.36,0.805,0.567,1.31,0.621l-0.972,1.755l-0.405-0.188h-0.081v0.081
					c0,0.307,0.054,0.792,0.162,1.458c0.144,0.846,0.225,1.35,0.243,1.512c0.108,0.937,0.162,1.863,0.162,2.781
					c0,1.314-0.081,2.484-0.243,3.51c2.682-2.682,4.796-4.022,6.345-4.022c0.612,0,1.103,0.242,1.472,0.729
					c0.369,0.486,0.553,1.044,0.553,1.674c0,1.891-1.449,3.321-4.347,4.293c-2.07,0.702-4.284,1.054-6.642,1.054
					c-0.882,0-1.62-0.261-2.214-0.783c-0.18-0.252-0.45-0.63-0.81-1.134c0.611,0.071,1.197,0.107,1.755,0.107
					c1.368,0,2.097-0.081,2.187-0.243c0.414-0.287,0.747-0.818,0.999-1.593c0.216-0.666,0.324-1.305,0.324-1.917
					C39.853,126.437,39.483,123.61,38.746,119.561z M47.467,129.227c0-0.342-0.279-0.621-0.837-0.837
					c-0.432-0.181-0.855-0.271-1.269-0.271c-2.232,0-4.113,1.179-5.643,3.537h0.162c1.656,0,3.348-0.314,5.076-0.945
					C46.63,130.1,47.467,129.604,47.467,129.227z"/>
				<path fill="#9EC0DF" d="M57.078,133.465h-2.079c-1.674,0-2.61-0.944-2.808-2.835c-0.288-2.411-0.63-5.948-1.026-10.61
					c0.378-0.486,0.72-0.909,1.026-1.27l0.945,10.881c0.072,0.847,0.324,1.423,0.756,1.729c0.306,0.234,0.819,0.351,1.539,0.351
					c0.162,0,0.428-0.009,0.797-0.026c0.369-0.019,0.652-0.027,0.851-0.027V133.465z"/>
				<path fill="#9EC0DF" d="M66.15,133.465h-2.052c-1.26,0-2.457-0.387-3.591-1.161c-0.396,0.307-0.945,0.577-1.647,0.811
					c-0.702,0.234-1.296,0.351-1.782,0.351h-1.053v-1.809c1.656,0,2.664-0.144,3.024-0.432c-0.018-0.036-0.072-0.162-0.162-0.379
					c-0.09-0.216-0.135-0.341-0.135-0.378c0-0.81,0.405-1.836,1.215-3.077c0.846-1.332,1.638-1.998,2.376-1.998
					c0.486,0,0.891,0.387,1.215,1.16c0.233,0.631,0.351,1.233,0.351,1.81c0,0.72-0.414,1.656-1.242,2.808
					c0.503,0.288,1.062,0.459,1.674,0.514c-0.09-0.019,0.513-0.027,1.809-0.027V133.465z M63.963,120.667l-0.972,1.674l-1.566-1.025
					l-0.918,1.377l-1.62-1.107l0.918-1.565l1.728,1.053l0.81-1.485L63.963,120.667z M62.883,128.956
					c0-0.359-0.108-0.679-0.324-0.958c-0.216-0.279-0.504-0.419-0.864-0.419c-0.342,0-0.747,0.14-1.215,0.419
					c-0.468,0.279-0.702,0.58-0.702,0.904c0,0.54,0.405,1.025,1.215,1.458c0.36-0.198,0.72-0.396,1.08-0.594
					C62.613,129.425,62.883,129.154,62.883,128.956z"/>
				<path fill="#9EC0DF" d="M71.847,133.465h-2.079c-0.288,0-0.572-0.206-0.851-0.621c-0.279-0.413-0.418-0.773-0.418-1.079
					c-0.612,1.134-1.386,1.7-2.322,1.7h-1.053v-1.809c1.206,0,1.962-0.09,2.268-0.271c0.414-0.233,0.657-0.477,0.729-0.729
					c0.054-0.144,0.09-0.513,0.108-1.107l0.216,0.027c0.216,0.937,0.612,1.539,1.188,1.809c0.396,0.181,1.134,0.271,2.214,0.271
					V133.465z M69.524,125.393l-0.999,1.565l-1.458-0.999l0.918-1.62L69.524,125.393z"/>
				<path fill="#9EC0DF" d="M73.169,119.533c-0.162-0.18-0.369-0.468-0.621-0.864c0.252-0.665,0.648-1.251,1.188-1.755
					c0.072,0.522,0.292,0.963,0.662,1.323c0.369,0.36,0.814,0.576,1.336,0.647l-0.972,1.756l-0.486-0.298
					c-0.09,0.918-0.135,1.44-0.135,1.566c0,0.72,0.144,1.787,0.432,3.199c0.288,1.413,0.432,2.471,0.432,3.173
					c0,3.456-1.053,5.184-3.159,5.184h-1.053v-1.809c1.008,0,1.746-0.062,2.214-0.189c0.882-0.27,1.323-0.782,1.323-1.539
					c0-0.306-0.126-1.25-0.378-2.835c-0.18-1.062-0.351-2.114-0.513-3.158c-0.216-1.314-0.324-2.358-0.324-3.133
					c0-0.09,0.014-0.27,0.041-0.54c0.027-0.27,0.031-0.477,0.014-0.62V119.533z"/>
				<path fill="#9EC0DF" d="M79.298,129.739c0,0.9-0.252,2.143-0.756,3.726l-0.324-0.081c0.09-0.54,0.135-1.08,0.135-1.619
					c0-1.099-0.118-2.502-0.351-4.213c-0.18-1.386-0.36-2.763-0.54-4.131c-0.108-0.846-0.162-1.341-0.162-1.484
					c0-0.774,0.081-1.351,0.243-1.729c0.252-0.485,0.513-0.972,0.783-1.458c0,1.404,0.27,4.312,0.81,8.721
					C79.244,128.3,79.298,129.056,79.298,129.739z"/>
				<path fill="#9EC0DF" d="M98.738,133.465h-2.079c-1.17,0-2.034-1.106-2.592-3.32c-0.522,1.134-1.18,1.926-1.971,2.376
					c-0.721,0.414-1.72,0.621-2.998,0.621c-1.512,0-2.268-0.459-2.268-1.377c0-0.252,0.207-0.909,0.621-1.972l0.352,0.027v0.162
					c-0.019,0.522,0.162,0.882,0.539,1.08c0.271,0.126,0.703,0.188,1.297,0.188c1.277,0,2.195-0.116,2.754-0.351
					c0.936-0.36,1.404-1.071,1.404-2.133c0-0.666-0.149-1.634-0.446-2.903c-0.297-1.269-0.454-2.218-0.472-2.848l0.918-1.242
					l1.133,6.75c0.342,2.088,1.045,3.132,2.106,3.132h1.701V133.465z"/>
				<path fill="#9EC0DF" d="M102.544,135.76l-0.999,1.594l-1.593-1.026l-0.892,1.377l-1.565-0.945l0.918-1.619l1.674,0.998
					l0.81-1.377L102.544,135.76z M101.654,129.442c0,2.682-0.972,4.022-2.916,4.022h-1.054v-1.809c2.196,0,3.295-0.378,3.295-1.134
					c0-0.18-0.172-0.576-0.514-1.188c-0.342-0.611-0.513-0.98-0.513-1.106c0-0.072,0.342-0.648,1.026-1.729
					C101.428,127.508,101.654,128.488,101.654,129.442z"/>
				<path fill="#9EC0DF" d="M115.747,133.465h-2.078c-1.171,0-2.035-1.106-2.592-3.32c-0.523,1.134-1.18,1.926-1.972,2.376
					c-0.72,0.414-1.72,0.621-2.997,0.621c-1.512,0-2.268-0.459-2.268-1.377c0-0.252,0.207-0.909,0.621-1.972l0.351,0.027v0.162
					c-0.019,0.522,0.162,0.882,0.54,1.08c0.27,0.126,0.702,0.188,1.296,0.188c1.278,0,2.196-0.116,2.754-0.351
					c0.937-0.36,1.404-1.071,1.404-2.133c0-0.666-0.149-1.634-0.446-2.903c-0.297-1.269-0.454-2.218-0.472-2.848l0.918-1.242
					l1.134,6.75c0.342,2.088,1.044,3.132,2.105,3.132h1.701V133.465z"/>
				<path fill="#9EC0DF" d="M128.221,129.091l-0.567,1.216c-2.521,0-4.599,0.279-6.237,0.837c-0.324,0.107-1.277,0.566-2.861,1.377
					c-1.207,0.63-2.143,0.944-2.809,0.944h-1.053v-1.809c1.313,0,2.466-0.162,3.456-0.486c2.052-0.702,3.104-1.062,3.159-1.08
					c-1.512-0.396-3.295-0.827-5.346-1.296c0.09-0.575,0.297-0.999,0.621-1.269c0.232-0.198,0.665-0.414,1.295-0.648
					c1.368-0.504,2.521-1.17,3.457-1.998c0.863-0.792,1.674-1.917,2.43-3.375c0.27-0.54,0.504-0.81,0.701-0.81
					c0.685,0,1.197,1.386,1.539,4.158l-0.513,0.054c-0.144-1.656-0.485-2.484-1.026-2.484c-0.215,0-0.531,0.262-0.944,0.783
					c-1.565,1.944-3.159,3.402-4.779,4.374C121.192,128.588,124.35,129.091,128.221,129.091z M126.762,116.698l-1.053,1.593
					l-1.512-1.134l-0.945,1.377l-1.593-1.161l1.054-1.593l1.565,1.134l0.918-1.377L126.762,116.698z"/>
			</g>
		</g>
	</g>
	<path fill="#9EC0DF" d="M121.825,92.292H40.482V33.229h81.342V92.292z M42.482,90.292h77.342V35.229H42.482V90.292z"/>
	<g>
		<g>
			<path fill="#9EC0DF" d="M58.47,77.784l-5.84-1.871l1.871,5.84l1.384-1.365l4.054,4.115l1.197-1.196l-4.052-4.116L58.47,77.784z
				 M58.47,77.784"/>
			<g>
				<path fill="#9EC0DF" d="M55.347,84.702c-3.537,0-6.415-2.877-6.415-6.415s2.878-6.413,6.415-6.413s6.414,2.875,6.414,6.413
					c0,1.487-0.513,2.854-1.365,3.943l0.837,0.851c1.068-1.309,1.71-2.978,1.71-4.794c0-4.189-3.408-7.595-7.596-7.595
					s-7.596,3.405-7.596,7.595c0,4.188,3.408,7.597,7.596,7.597c1.609,0,3.1-0.506,4.329-1.363l-0.843-0.855
					C57.828,84.318,56.632,84.702,55.347,84.702z"/>
				<path fill="#9EC0DF" d="M55.347,82.32c-2.223,0-4.033-1.808-4.033-4.033c0-2.224,1.81-4.032,4.033-4.032
					c2.224,0,4.033,1.809,4.033,4.032c0,0.823-0.25,1.588-0.674,2.227l0.833,0.846c0.635-0.863,1.023-1.92,1.023-3.072
					c0-2.874-2.339-5.214-5.214-5.214s-5.214,2.34-5.214,5.214c0,2.876,2.339,5.215,5.214,5.215c0.955,0,1.839-0.276,2.609-0.727
					l-0.858-0.871C56.566,82.162,55.977,82.32,55.347,82.32z"/>
			</g>
		</g>
	</g>
	<circle fill="#9EC0DF" cx="86.638" cy="64.87" r="4.421"/>
	<polygon fill="#9EC0DF" points="69.47,85.884 116.463,85.884 107.543,66.073 104.413,68.857 100.21,61.168 87.237,78.287 
		82.216,73.166 	"/>
</g>
</svg>
