<?xml version="1.0" encoding="utf-8"?>
<!-- Generator: Adobe Illustrator 16.0.0, SVG Export Plug-In . SVG Version: 6.00 Build 0)  -->
<!DOCTYPE svg PUBLIC "-//W3C//DTD SVG 1.1//EN" "http://www.w3.org/Graphics/SVG/1.1/DTD/svg11.dtd">
<svg version="1.1" id="Layer_1" xmlns="http://www.w3.org/2000/svg" xmlns:xlink="http://www.w3.org/1999/xlink" x="0px" y="0px"
	 width="164.451px" height="167.701px" viewBox="0 0 164.451 167.701" enable-background="new 0 0 164.451 167.701"
	 xml:space="preserve">
<g>
	<g>
		<path fill="#9EC0DF" d="M161.63,167.701H4.179c-1.93,0-3.5-1.57-3.5-3.5V3.5c0-1.93,1.57-3.5,3.5-3.5H161.63
			c1.93,0,3.5,1.57,3.5,3.5v160.701C165.13,166.131,163.56,167.701,161.63,167.701z M4.179,1c-1.378,0-2.5,1.121-2.5,2.5v160.701
			c0,1.379,1.122,2.5,2.5,2.5H161.63c1.379,0,2.5-1.121,2.5-2.5V3.5c0-1.379-1.121-2.5-2.5-2.5H4.179z"/>
		<g>
			<path fill="#9EC0DF" d="M54.357,132.426l-4.644,1.755c-0.216,0.09-0.783,0.135-1.701,0.135c-2.268,0-4.158-0.486-5.67-1.458
				c-1.8-1.134-2.7-2.772-2.7-4.914c0-1.603,0.324-3.069,0.972-4.4c0.54-1.17,1.404-2.403,2.592-3.699
				c-1.764-0.433-2.646-1.134-2.646-2.106c0-0.864,0.369-1.854,1.107-2.97c0.792-1.206,1.593-1.809,2.403-1.809
				c0.576,0,1.313,0.396,2.214,1.188c-1.026,0-2.025,0.189-2.997,0.567c-1.278,0.468-1.917,1.134-1.917,1.998
				c0,0.45,0.405,0.846,1.215,1.188c0.684,0.307,1.296,0.459,1.836,0.459c0.27,0,1.071-0.333,2.403-0.999
				c0.828-0.432,1.665-0.864,2.511-1.296l-1.377,1.971c-2.232,1.278-3.87,2.422-4.914,3.43c-1.728,1.62-2.592,3.32-2.592,5.103
				c0,1.386,0.594,2.609,1.782,3.672c1.044,0.918,2.295,1.539,3.753,1.863c0.864,0.18,2.16,0.27,3.888,0.27
				c1.368,0,2.835-0.09,4.401-0.27L54.357,132.426z M44.691,108.585l-0.999,1.593l-1.458-0.945l0.918-1.62L44.691,108.585z"/>
			<path fill="#9EC0DF" d="M58.19,119.142c0,0.9-0.252,2.143-0.756,3.726l-0.324-0.081c0.09-0.54,0.135-1.08,0.135-1.619
				c0-1.099-0.118-2.502-0.351-4.213c-0.18-1.386-0.36-2.763-0.54-4.131c-0.108-0.846-0.162-1.341-0.162-1.484
				c0-0.774,0.081-1.351,0.243-1.729c0.252-0.485,0.513-0.972,0.783-1.458c0,1.404,0.27,4.312,0.81,8.721
				C58.136,117.702,58.19,118.458,58.19,119.142z"/>
			<path fill="#9EC0DF" d="M70.557,122.867h-1.971c-0.216,1.746-0.711,3.231-1.485,4.455c-0.972,1.566-2.232,2.35-3.78,2.35
				c-0.558,0-1.62-0.234-3.186-0.702l0.243-0.297c0.396,0.071,0.702,0.107,0.918,0.107c1.458,0,2.799-0.504,4.023-1.512
				c0.54-0.45,1.089-1.144,1.647-2.079c0.558-0.936,0.881-1.736,0.972-2.403c-0.504-0.161-0.927-0.549-1.269-1.16l0.81-1.594
				c0.504,0.702,1.125,1.054,1.863,1.054c0.09,0,0.27,0,0.54,0c0.27-0.019,0.495-0.027,0.675-0.027V122.867z"/>
			<path fill="#9EC0DF" d="M79.764,122.867h-2.052c-1.26,0-2.457-0.387-3.591-1.161c-0.396,0.307-0.945,0.577-1.647,0.811
				c-0.702,0.234-1.296,0.351-1.782,0.351h-1.053v-1.809c1.656,0,2.664-0.144,3.024-0.432c-0.018-0.036-0.072-0.162-0.162-0.379
				c-0.09-0.216-0.135-0.341-0.135-0.378c0-0.81,0.405-1.836,1.215-3.077c0.846-1.332,1.638-1.998,2.376-1.998
				c0.486,0,0.891,0.387,1.215,1.16c0.233,0.631,0.351,1.233,0.351,1.81c0,0.72-0.414,1.656-1.242,2.808
				c0.503,0.288,1.062,0.459,1.674,0.514c-0.09-0.019,0.513-0.027,1.809-0.027V122.867z M76.497,118.358
				c0-0.359-0.108-0.679-0.324-0.958c-0.216-0.279-0.504-0.419-0.864-0.419c-0.342,0-0.747,0.14-1.215,0.419
				c-0.468,0.279-0.702,0.58-0.702,0.904c0,0.54,0.405,1.025,1.215,1.458c0.36-0.198,0.72-0.396,1.08-0.594
				C76.227,118.827,76.497,118.557,76.497,118.358z M77.01,110.447l-1.134,1.647l-1.458-1.161l1.08-1.674L77.01,110.447z"/>
			<path fill="#9EC0DF" d="M81.113,108.936c-0.162-0.18-0.369-0.468-0.621-0.864c0.252-0.665,0.648-1.251,1.188-1.755
				c0.072,0.522,0.292,0.963,0.662,1.323c0.369,0.36,0.814,0.576,1.337,0.647l-0.972,1.756l-0.486-0.298
				c-0.09,0.918-0.135,1.44-0.135,1.566c0,0.72,0.144,1.787,0.432,3.199c0.289,1.413,0.432,2.471,0.432,3.173
				c0,3.456-1.053,5.184-3.159,5.184h-1.053v-1.809c1.008,0,1.746-0.062,2.214-0.189c0.882-0.27,1.323-0.782,1.323-1.539
				c0-0.306-0.126-1.25-0.378-2.835c-0.18-1.062-0.351-2.114-0.513-3.158c-0.216-1.314-0.324-2.358-0.324-3.133
				c0-0.09,0.014-0.27,0.041-0.54c0.027-0.27,0.031-0.477,0.014-0.62V108.936z"/>
			<path fill="#9EC0DF" d="M87.241,119.142c0,0.9-0.252,2.143-0.756,3.726l-0.324-0.081c0.09-0.54,0.136-1.08,0.136-1.619
				c0-1.099-0.118-2.502-0.351-4.213c-0.181-1.386-0.361-2.763-0.541-4.131c-0.107-0.846-0.162-1.341-0.162-1.484
				c0-0.774,0.082-1.351,0.244-1.729c0.252-0.485,0.512-0.972,0.782-1.458c0,1.404,0.271,4.312,0.81,8.721
				C87.188,117.702,87.241,118.458,87.241,119.142z"/>
			<path fill="#9EC0DF" d="M98.285,106.128c-0.108,0.521-0.261,0.81-0.459,0.863l-3.673,1.054c0.072-0.36,0.226-0.621,0.459-0.783
				c0.127-0.072,0.424-0.198,0.892-0.378c-0.54-0.252-0.837-0.604-0.892-1.054c0-0.144,0.072-0.332,0.217-0.566
				c0.324-0.45,0.693-0.828,1.107-1.134c0.414-0.307,0.773-0.459,1.08-0.459c0.467,0,0.701,0.252,0.701,0.756
				c0,0.27-0.135,0.566-0.404,0.891c-0.433-0.287-0.793-0.432-1.08-0.432c-0.252,0-0.55,0.145-0.892,0.432
				c0.738,0.685,1.368,1.026,1.89,1.026C97.52,106.344,97.87,106.271,98.285,106.128z"/>
			<path fill="#9EC0DF" d="M110.705,122.867h-2.079c-0.918,0-1.566-0.603-1.943-1.809c-0.037-0.162-0.199-1.151-0.486-2.97
				l-0.783-4.941c-0.414,2.574-0.828,4.482-1.242,5.724c-0.773,2.286-1.863,3.808-3.268,4.563c-0.918,0.486-2.547,0.918-4.887,1.296
				v-0.351c3.834-1.44,6.219-3.105,7.155-4.995c-0.144-0.99-0.738-2.079-1.782-3.268c-0.9-0.989-1.872-1.8-2.916-2.43
				c-0.81-0.486-1.277-0.729-1.404-0.729c-0.09,0-0.225,0.121-0.404,0.364s-0.324,0.364-0.432,0.364
				c-0.181,0-0.491-0.144-0.932-0.432c-0.441-0.288-0.729-0.526-0.864-0.716c-0.135-0.189-0.202-0.616-0.202-1.282
				c0-1.135,0.225-1.701,0.675-1.701c0.54,0,1.521,0.504,2.942,1.512c1.584,1.134,2.791,2.188,3.619,3.159
				c1.133,1.314,1.836,2.718,2.105,4.212c0.576-1.548,0.953-3.068,1.134-4.562c0.108-1.008,0.162-2.151,0.162-3.43
				c0-0.647,0.036-1.143,0.108-1.484c0.107-0.414,0.314-0.873,0.621-1.377c0.323,3.042,0.566,5.22,0.729,6.533
				c0.414,3.349,0.783,5.373,1.107,6.075c0.27,0.576,0.665,0.864,1.188,0.864h2.079V122.867z"/>
			<path fill="#9EC0DF" d="M117.94,119.951c0,0.36-0.148,0.793-0.445,1.296c-0.297,0.505-0.607,0.757-0.932,0.757
				c-0.469,0-1.504-0.45-3.105-1.351c-0.936,1.477-1.845,2.214-2.727,2.214h-1.08v-1.809h1.053c0.324,0,0.792-0.162,1.404-0.486
				c0.342-0.18,0.58-0.324,0.715-0.432c0.136-0.108,0.284-0.306,0.446-0.594c0.378-0.63,0.756-1.27,1.134-1.917
				c0.558-0.811,1.107-1.216,1.646-1.216c0.504,0,0.963,0.478,1.377,1.432C117.769,118.638,117.94,119.34,117.94,119.951z
				 M116.347,119.601c0-0.954-0.342-1.431-1.025-1.431c-0.234,0-0.441,0.085-0.621,0.256c-0.18,0.172-0.279,0.374-0.297,0.607
				C114.817,119.195,115.466,119.385,116.347,119.601z"/>
			<path fill="#9EC0DF" d="M122.126,119.142c0,0.9-0.253,2.143-0.756,3.726l-0.324-0.081c0.09-0.54,0.135-1.08,0.135-1.619
				c0-1.099-0.117-2.502-0.352-4.213c-0.18-1.386-0.359-2.763-0.539-4.131c-0.108-0.846-0.162-1.341-0.162-1.484
				c0-0.774,0.08-1.351,0.242-1.729c0.252-0.485,0.514-0.972,0.783-1.458c0,1.404,0.27,4.312,0.811,8.721
				C122.071,117.702,122.126,118.458,122.126,119.142z"/>
		</g>
		<g>
			<path fill="#9EC0DF" d="M108.485,60.579c0,1.467-0.652,2.516-1.958,3.146c-2.229,1.042-4.737,1.562-7.524,1.562
				c-1.393,0-2.552-0.161-3.476-0.484c-1.364-0.484-2.046-1.29-2.046-2.42c0-0.514,0.352-1.474,1.056-2.882l0.286,0.109
				c-0.352,0.954-0.527,1.519-0.527,1.694c0,1.555,1.672,2.332,5.016,2.332c2.038,0,4.062-0.322,6.072-0.968
				c1.627-0.528,2.441-0.976,2.441-1.342c0-0.177-0.146-0.535-0.439-1.078c-0.25-0.499-0.353-0.785-0.309-0.858l0.594-1.21
				C108.214,59.208,108.485,60.007,108.485,60.579z M102.634,67.289l-0.771,1.342l-1.21-0.858l0.748-1.275L102.634,67.289z"/>
			<path fill="#9EC0DF" d="M113.215,55.119c-0.088,0.425-0.212,0.659-0.374,0.704l-2.992,0.857c0.059-0.293,0.184-0.506,0.375-0.638
				c0.102-0.059,0.344-0.161,0.726-0.309c-0.44-0.205-0.683-0.491-0.726-0.857c0-0.117,0.058-0.271,0.176-0.462
				c0.264-0.367,0.564-0.675,0.902-0.924c0.336-0.25,0.63-0.374,0.879-0.374c0.382,0,0.572,0.205,0.572,0.615
				c0,0.221-0.109,0.462-0.33,0.727c-0.352-0.234-0.646-0.353-0.88-0.353c-0.206,0-0.447,0.118-0.726,0.353
				c0.602,0.558,1.114,0.836,1.539,0.836C112.591,55.295,112.878,55.236,113.215,55.119z"/>
			<path fill="#9EC0DF" d="M112.269,65.723c0,0.733-0.205,1.746-0.615,3.036l-0.264-0.066c0.072-0.439,0.109-0.88,0.109-1.319
				c0-0.895-0.096-2.039-0.286-3.433c-0.146-1.129-0.294-2.251-0.44-3.365c-0.088-0.689-0.131-1.093-0.131-1.21
				c0-0.631,0.065-1.101,0.197-1.408c0.205-0.396,0.418-0.792,0.639-1.188c0,1.145,0.22,3.513,0.66,7.106
				C112.226,64.55,112.269,65.166,112.269,65.723z"/>
		</g>
	</g>
	<g>
		<path fill="#9EC0DF" d="M45.582,47.238v28.258h74.853V47.238H45.582z M49.267,50.924h67.483V71.81H49.267V50.924z M85.868,67.082
			h1.88V55.657h-1.88v-1.463h5.668v1.463h-1.881v11.421h1.881v1.464h-5.668V67.082z"/>
	</g>
</g>
</svg>
