<?xml version="1.0" encoding="utf-8"?>
<!-- Generator: Adobe Illustrator 16.0.0, SVG Export Plug-In . SVG Version: 6.00 Build 0)  -->
<!DOCTYPE svg PUBLIC "-//W3C//DTD SVG 1.1//EN" "http://www.w3.org/Graphics/SVG/1.1/DTD/svg11.dtd">
<svg version="1.1" id="Layer_1" xmlns="http://www.w3.org/2000/svg" xmlns:xlink="http://www.w3.org/1999/xlink" x="0px" y="0px"
	 width="164.451px" height="167.701px" viewBox="0 0 164.451 167.701" enable-background="new 0 0 164.451 167.701"
	 xml:space="preserve">
<g>
	<g>
		<g>
			<path fill="#9EC0DF" d="M161.366,167.701H3.915c-1.93,0-3.5-1.57-3.5-3.5V3.5c0-1.93,1.57-3.5,3.5-3.5h157.451
				c1.93,0,3.5,1.57,3.5,3.5v160.701C164.866,166.131,163.296,167.701,161.366,167.701z M3.915,1c-1.378,0-2.5,1.121-2.5,2.5
				v160.701c0,1.379,1.122,2.5,2.5,2.5h157.451c1.378,0,2.5-1.121,2.5-2.5V3.5c0-1.379-1.122-2.5-2.5-2.5H3.915z"/>
			<g>
				<path fill="#9EC0DF" d="M68.212,133.465h-2.079c-0.684,0-1.233-0.603-1.647-1.809c0.125,2.214,0.189,3.348,0.189,3.402
					c0,2.249-0.549,3.969-1.647,5.156c-1.134,1.26-2.817,1.891-5.049,1.891c-1.26,0-2.25-0.297-2.97-0.892
					c-0.792-0.647-1.188-1.575-1.188-2.78c0-1.026,0.45-2.728,1.35-5.104l0.297,0.135c-0.18,0.595-0.36,1.188-0.54,1.782
					c-0.198,0.72-0.297,1.313-0.297,1.782c0,0.972,0.405,1.719,1.215,2.241c0.684,0.432,1.539,0.647,2.565,0.647
					c0.828,0,1.791-0.18,2.889-0.54c1.278-0.432,2.088-0.927,2.43-1.484c0.162-0.271,0.243-0.828,0.243-1.675
					c0-1.619-0.081-3.626-0.243-6.021c-0.126-2.016-0.252-4.023-0.378-6.021c-0.018-0.341-0.081-1.17-0.189-2.483
					c-0.108-1.026-0.162-1.854-0.162-2.484c0-0.252,0.125-0.558,0.378-0.918c0.36-0.558,0.549-0.846,0.567-0.864
					c0.054,1.53,0.117,3.061,0.189,4.591c0.072,1.818,0.198,3.33,0.378,4.535c0.036,0.612,0.126,1.513,0.27,2.7
					c0.072,0.307,0.342,0.892,0.81,1.755c0.234,0.433,0.513,0.648,0.837,0.648h1.782V133.465z"/>
				<path fill="#9EC0DF" d="M73.882,133.465h-2.079c-0.288,0-0.572-0.206-0.851-0.621c-0.279-0.413-0.418-0.773-0.418-1.079
					c-0.612,1.134-1.386,1.7-2.322,1.7h-1.053v-1.809c1.206,0,1.962-0.09,2.268-0.271c0.414-0.233,0.657-0.477,0.729-0.729
					c0.054-0.144,0.09-0.513,0.108-1.107l0.216,0.027c0.216,0.937,0.612,1.539,1.188,1.809c0.396,0.181,1.134,0.271,2.214,0.271
					V133.465z M72.748,136.436l-0.972,1.62l-1.566-1.107l-0.864,1.377l-1.566-1.161l0.945-1.512l1.566,1.106l0.918-1.403
					L72.748,136.436z"/>
				<path fill="#9EC0DF" d="M78.309,133.465c-1.08,0-1.782-0.566-2.106-1.7c-0.882,1.134-1.656,1.7-2.322,1.7h-1.053v-1.809
					c1.206,0,2.012-0.108,2.417-0.324s0.652-0.449,0.743-0.702c0.072-0.18,0.108-0.549,0.108-1.106l0.216,0.026
					c0.126,0.54,0.378,1.071,0.756,1.594c0.252,0.342,0.828,0.521,1.728,0.54l-0.108-0.027c0-0.018,0.018-0.027,0.054-0.027
					c0.036,0,0.054,0.01,0.054,0.027v1.809H78.309z"/>
				<path fill="#9EC0DF" d="M78.309,131.656h2.241c1.512-1.944,2.888-3.321,4.13-4.131c1.494-1.008,2.7-1.513,3.619-1.513
					c0.575,0,1.053,0.271,1.43,0.811c0.307,0.468,0.459,1.008,0.459,1.62c0,1.926-1.295,3.321-3.887,4.185
					c-1.746,0.559-3.844,0.837-6.292,0.837c-0.108,0.253-0.288,0.55-0.54,0.892c-0.324,0.432-0.531,0.711-0.621,0.837l-0.405-0.243
					l0.918-1.485h-1.053V131.656z M89.028,129.361c0-0.648-0.486-0.972-1.458-0.972c-1.368,0-2.556,0.288-3.564,0.863
					c-0.738,0.433-1.656,1.233-2.754,2.403h1.053c1.385,0,2.852-0.274,4.401-0.823C88.254,130.284,89.028,129.793,89.028,129.361z"
					/>
				<path fill="#9EC0DF" d="M103.635,133.465h-2.295c-0.126,0.576-0.36,1.423-0.702,2.538c-0.45,1.206-1.09,2.232-1.917,3.078
					c-0.99,1.026-2.043,1.539-3.159,1.539c-0.828,0-1.998-0.414-3.51-1.242l0.243-0.27c0.737,0.27,1.341,0.404,1.81,0.404
					c1.583,0,3.023-0.62,4.319-1.862c1.206-1.171,1.979-2.565,2.321-4.186c-2.285,0-3.428-0.521-3.428-1.565
					c0-0.522,0.27-1.26,0.81-2.214c0.575-1.044,1.089-1.566,1.539-1.566c0.558,0,1.008,0.469,1.35,1.404
					c0.271,0.738,0.405,1.449,0.405,2.133h2.214V133.465z M100.638,131.656c-0.342-1.098-0.828-1.647-1.458-1.647
					c-0.181,0-0.347,0.072-0.499,0.217c-0.153,0.144-0.23,0.306-0.23,0.485C98.45,131.287,99.18,131.603,100.638,131.656z"/>
				<path fill="#9EC0DF" d="M106.767,129.442c0,2.682-0.973,4.022-2.916,4.022h-1.053v-1.809c2.195,0,3.293-0.378,3.293-1.134
					c0-0.18-0.171-0.576-0.513-1.188c-0.342-0.611-0.513-0.98-0.513-1.106c0-0.072,0.342-0.648,1.025-1.729
					C106.541,127.508,106.767,128.488,106.767,129.442z M108.089,120.856l-0.998,1.593l-1.594-1.026l-0.891,1.404l-1.566-0.972
					l0.918-1.62l1.674,0.999l0.811-1.377L108.089,120.856z"/>
			</g>
		</g>
	</g>
	<path fill="#9EC0DF" d="M93.372,73.991h23.736V97.73H93.372V73.991z M115.108,75.991H95.372V95.73h19.736V75.991z"/>
	<path fill="#9EC0DF" d="M92.013,48.907c0-7.294,5.934-13.229,13.227-13.229c7.294,0,13.228,5.935,13.228,13.229
		c0,7.293-5.934,13.227-13.228,13.227C97.946,62.134,92.013,56.2,92.013,48.907z M94.013,48.907c0,6.19,5.036,11.227,11.227,11.227
		c6.191,0,11.228-5.036,11.228-11.227c0-6.191-5.036-11.229-11.228-11.229C99.049,37.679,94.013,42.716,94.013,48.907z"/>
	<circle fill="#9EC0DF" cx="51.983" cy="85.862" r="8.695"/>
	<rect x="43.831" y="40.756" fill="#9EC0DF" width="16.303" height="16.303"/>
	<g>
		<path fill="#9EC0DF" d="M89.393,59.775c0.108,0,0.218-0.035,0.311-0.108l1.175-0.933c0.217-0.172,0.252-0.486,0.08-0.702
			c-0.171-0.218-0.485-0.254-0.702-0.081l-1.175,0.933c-0.217,0.172-0.252,0.486-0.08,0.702
			C89.099,59.711,89.245,59.775,89.393,59.775z"/>
		<path fill="#9EC0DF" d="M65.94,77.897c-0.172-0.216-0.136-0.53,0.081-0.702l2.306-1.831c0.217-0.173,0.531-0.137,0.703,0.081
			c0.172,0.216,0.136,0.53-0.081,0.702l-2.306,1.831c-0.092,0.073-0.202,0.108-0.311,0.108
			C66.185,78.087,66.039,78.022,65.94,77.897z M70.552,74.235c-0.172-0.216-0.136-0.53,0.081-0.702l2.306-1.831
			c0.217-0.173,0.531-0.137,0.703,0.081c0.172,0.216,0.136,0.53-0.081,0.702l-2.306,1.831c-0.092,0.073-0.202,0.108-0.311,0.108
			C70.797,74.425,70.651,74.36,70.552,74.235z M75.165,70.573c-0.172-0.216-0.136-0.53,0.081-0.702l2.306-1.831
			c0.217-0.172,0.531-0.136,0.703,0.081c0.172,0.216,0.136,0.53-0.081,0.702l-2.306,1.831c-0.092,0.073-0.202,0.108-0.311,0.108
			C75.409,70.763,75.263,70.698,75.165,70.573z M79.777,66.91c-0.172-0.216-0.136-0.53,0.081-0.702l2.306-1.831
			c0.216-0.173,0.531-0.137,0.703,0.081c0.172,0.216,0.135,0.53-0.081,0.702l-2.306,1.831c-0.092,0.073-0.202,0.108-0.311,0.108
			C80.021,67.1,79.875,67.035,79.777,66.91z M84.389,63.248c-0.172-0.216-0.136-0.53,0.081-0.702l2.306-1.831
			c0.218-0.173,0.53-0.137,0.702,0.081c0.172,0.216,0.137,0.53-0.08,0.702l-2.307,1.831c-0.092,0.073-0.201,0.108-0.311,0.108
			C84.634,63.438,84.487,63.373,84.389,63.248z"/>
		<path fill="#9EC0DF" d="M62.852,80.852c0.109,0,0.218-0.035,0.311-0.108l1.175-0.933c0.216-0.172,0.252-0.486,0.081-0.702
			c-0.171-0.217-0.485-0.253-0.703-0.081L62.54,79.96c-0.216,0.172-0.252,0.486-0.081,0.702
			C62.558,80.787,62.704,80.852,62.852,80.852z"/>
	</g>
</g>
</svg>
