<?xml version="1.0" encoding="utf-8"?>
<!-- Generator: Adobe Illustrator 16.0.0, SVG Export Plug-In . SVG Version: 6.00 Build 0)  -->
<!DOCTYPE svg PUBLIC "-//W3C//DTD SVG 1.1//EN" "http://www.w3.org/Graphics/SVG/1.1/DTD/svg11.dtd">
<svg version="1.1" id="Layer_1" xmlns="http://www.w3.org/2000/svg" xmlns:xlink="http://www.w3.org/1999/xlink" x="0px" y="0px"
	 width="164.451px" height="167.701px" viewBox="0 0 164.451 167.701" enable-background="new 0 0 164.451 167.701"
	 xml:space="preserve">
<g>
	<g>
		<path fill="#9EC0DF" d="M160.951,167.701H3.5c-1.93,0-3.5-1.57-3.5-3.5V3.5C0,1.57,1.571,0,3.5,0h157.451c1.93,0,3.5,1.57,3.5,3.5
			v160.701C164.451,166.131,162.881,167.701,160.951,167.701z M3.5,1C2.122,1,1,2.121,1,3.5v160.701c0,1.379,1.122,2.5,2.5,2.5
			h157.451c1.379,0,2.5-1.121,2.5-2.5V3.5c0-1.379-1.121-2.5-2.5-2.5H3.5z"/>
		<g>
			<path fill="#9EC0DF" d="M38.302,117.737c0,1.801-0.802,3.088-2.403,3.861c-2.736,1.278-5.814,1.917-9.233,1.917
				c-1.711,0-3.133-0.198-4.267-0.594c-1.674-0.595-2.511-1.584-2.511-2.971c0-0.63,0.432-1.809,1.296-3.537l0.351,0.136
				c-0.432,1.17-0.647,1.862-0.647,2.079c0,1.908,2.052,2.861,6.156,2.861c2.501,0,4.985-0.396,7.451-1.188
				c1.998-0.648,2.997-1.197,2.997-1.647c0-0.216-0.18-0.656-0.54-1.322c-0.306-0.612-0.432-0.963-0.378-1.054l0.729-1.484
				C37.969,116.055,38.302,117.035,38.302,117.737z M31.228,114.362l-1.026,1.62l-1.565-1.161l-0.945,1.351l-1.458-1.107l0.999-1.62
				l1.566,1.161l0.863-1.377L31.228,114.362z"/>
			<path fill="#9EC0DF" d="M46.914,122.867h-2.079c-1.674,0-2.61-0.944-2.808-2.835c-0.288-2.411-0.631-5.948-1.026-10.61
				c0.378-0.486,0.72-0.909,1.026-1.27l0.944,10.881c0.072,0.847,0.324,1.423,0.757,1.729c0.306,0.234,0.818,0.351,1.538,0.351
				c0.162,0,0.428-0.009,0.797-0.026c0.369-0.019,0.652-0.027,0.851-0.027V122.867z"/>
			<path fill="#9EC0DF" d="M49.83,118.845c0,2.682-0.973,4.022-2.916,4.022H45.86v-1.809c2.196,0,3.294-0.378,3.294-1.134
				c0-0.18-0.171-0.576-0.513-1.188c-0.342-0.611-0.513-0.98-0.513-1.106c0-0.072,0.342-0.648,1.025-1.729
				C49.604,116.91,49.83,117.891,49.83,118.845z M50.289,125.081l-0.999,1.594l-1.675-0.892l1.054-1.674L50.289,125.081z"/>
			<path fill="#9EC0DF" d="M58.875,122.867h-2.079c-1.675,0-2.61-0.944-2.809-2.835c-0.288-2.411-0.63-5.948-1.025-10.61
				c0.378-0.486,0.72-0.909,1.025-1.27l0.945,10.881c0.071,0.847,0.324,1.423,0.756,1.729c0.306,0.234,0.819,0.351,1.539,0.351
				c0.162,0,0.428-0.009,0.797-0.026c0.368-0.019,0.651-0.027,0.851-0.027V122.867z"/>
			<path fill="#9EC0DF" d="M71.807,118.305l-0.54,1.62h-0.594c-0.342,0-0.846-0.027-1.512-0.081
				c-0.666-0.055-1.17-0.081-1.512-0.081c-1.116,0-2.277,0.27-3.483,0.81c-0.918,0.505-1.846,1.009-2.781,1.513
				c-1.008,0.521-1.845,0.782-2.511,0.782h-1.053v-1.809c1.134,0,2.061-0.081,2.78-0.243c0.559-0.126,1.422-0.432,2.593-0.918
				c0.737-0.306,1.367-0.513,1.89-0.621c-0.36-0.071-1.053-0.342-2.079-0.81c-0.846-0.378-1.557-0.567-2.133-0.567
				c-0.162,0-0.288,0.135-0.378,0.405h-1.566c0.486-1.62,1.404-2.43,2.754-2.43c0.648,0,1.746,0.404,3.294,1.215
				C66.523,117.899,68.801,118.305,71.807,118.305z M68.378,124.244l-0.918,1.62l-1.485-0.944l0.918-1.675L68.378,124.244z"/>
			<path fill="#9EC0DF" d="M77.773,127.16c-0.107,0.522-0.252,0.811-0.432,0.864l-3.699,1.053c0.108-0.521,0.558-0.918,1.35-1.188
				c-0.539-0.234-0.837-0.585-0.891-1.053c0-0.162,0.081-0.352,0.243-0.567c0.72-1.044,1.448-1.566,2.187-1.566
				c0.198,0,0.355,0.063,0.473,0.189s0.185,0.306,0.203,0.54c0,0.144-0.037,0.27-0.108,0.378c-0.072,0.18-0.162,0.351-0.27,0.513
				c-0.469-0.288-0.838-0.432-1.107-0.432c-0.126,0-0.239,0.027-0.338,0.081s-0.274,0.171-0.526,0.351
				c0.63,0.63,1.26,0.973,1.891,1.026C76.909,127.35,77.251,127.286,77.773,127.16z"/>
			<path fill="#9EC0DF" d="M84.064,109.935c-0.198-0.198-0.36-0.432-0.485-0.702c0.27-0.737,0.675-1.313,1.215-1.728
				c0.071,0.521,0.292,0.963,0.661,1.322c0.369,0.36,0.806,0.567,1.31,0.621l-0.972,1.755l-0.702-0.378
				c-0.072,0.415-0.108,0.883-0.108,1.404c0,3.15-0.477,5.859-1.431,8.127c0.468,0.882,0.702,1.746,0.702,2.592
				c0,1.296-0.864,1.944-2.592,1.944h-3.024v-1.809c1.8,0,3.096-0.855,3.888-2.565c-2.034-3.708-4.185-6.597-6.453-8.667
				l-0.621,0.54c-0.611-0.576-0.944-0.9-0.998-0.972c-0.307-0.378-0.46-0.811-0.46-1.297c0-0.449,0.217-1.134,0.648-2.052
				c2.97,2.448,5.805,6.22,8.505,11.313c0.756-1.656,1.134-3.555,1.134-5.697c0-0.414-0.036-1.039-0.107-1.877
				C84.101,110.974,84.064,110.349,84.064,109.935z M83.417,122.625c0-0.36-0.153-0.792-0.459-1.297
				c-0.378,0.757-0.828,1.342-1.351,1.756h0.297C82.912,123.084,83.417,122.931,83.417,122.625z"/>
			<path fill="#9EC0DF" d="M90.706,119.142c0,0.9-0.252,2.143-0.756,3.726l-0.324-0.081c0.09-0.54,0.136-1.08,0.136-1.619
				c0-1.099-0.118-2.502-0.352-4.213c-0.18-1.386-0.36-2.763-0.54-4.131c-0.107-0.846-0.162-1.341-0.162-1.484
				c0-0.774,0.081-1.351,0.243-1.729c0.252-0.485,0.513-0.972,0.783-1.458c0,1.404,0.27,4.312,0.81,8.721
				C90.652,117.702,90.706,118.458,90.706,119.142z"/>
			<path fill="#9EC0DF" d="M105.854,119.492c0,0.648-0.153,1.323-0.459,2.025c-1.656,1.026-3.34,1.539-5.05,1.539
				c-0.63,0-1.278-0.216-1.943-0.648l0.297-2.214c0.396,0.378,0.98,0.567,1.755,0.567c1.979,0,3.546-0.36,4.698-1.08
				c0-1.008-0.514-1.872-1.539-2.592c-0.612-0.433-1.575-0.892-2.89-1.377l0.595-2.106c1.26,0.252,2.331,0.972,3.213,2.16
				C105.412,116.954,105.854,118.196,105.854,119.492z"/>
			<path fill="#9EC0DF" d="M119.785,122.867h-2.079c-1.17,0-2.034-1.106-2.592-3.32c-0.522,1.134-1.179,1.926-1.971,2.376
				c-0.721,0.414-1.72,0.621-2.997,0.621c-1.512,0-2.269-0.459-2.269-1.377c0-0.252,0.207-0.909,0.621-1.972l0.352,0.027v0.162
				c-0.019,0.522,0.162,0.882,0.54,1.08c0.27,0.126,0.702,0.188,1.296,0.188c1.277,0,2.195-0.116,2.754-0.351
				c0.936-0.36,1.404-1.071,1.404-2.133c0-0.666-0.149-1.634-0.446-2.903c-0.297-1.269-0.454-2.218-0.472-2.848l0.918-1.242
				l1.134,6.75c0.342,2.088,1.044,3.132,2.105,3.132h1.701V122.867z"/>
			<path fill="#9EC0DF" d="M128.856,122.867h-2.079c-0.99,0-2.105-0.72-3.348-2.159c-0.324,0.359-0.891,0.801-1.701,1.322
				c-0.9,0.559-1.548,0.837-1.943,0.837h-1.054v-1.809c1.656,0,2.916-0.459,3.78-1.377c-0.54-0.468-0.909-0.756-1.107-0.864
				c-0.342-0.197-0.792-0.306-1.35-0.324c0.216-0.846,0.562-1.444,1.039-1.795c0.478-0.352,1.166-0.526,2.066-0.526
				c0.756,0,1.467,0.144,2.133,0.432c0.846,0.36,1.269,0.864,1.269,1.512c0,0.721-0.621,1.306-1.863,1.755
				c0.486,0.595,1.116,0.964,1.891,1.107c0.306,0.054,1.062,0.081,2.268,0.081V122.867z"/>
			<path fill="#9EC0DF" d="M134.554,122.867h-2.079c-0.288,0-0.571-0.206-0.851-0.621c-0.279-0.413-0.418-0.773-0.418-1.079
				c-0.612,1.134-1.387,1.7-2.322,1.7h-1.053v-1.809c1.205,0,1.962-0.09,2.268-0.271c0.414-0.233,0.657-0.477,0.729-0.729
				c0.054-0.144,0.09-0.513,0.107-1.107l0.216,0.027c0.217,0.937,0.612,1.539,1.188,1.809c0.396,0.181,1.134,0.271,2.214,0.271
				V122.867z M133.608,114.497l-0.999,1.594l-1.565-1.08l-0.945,1.377l-1.431-1.026l0.918-1.646l1.62,1.106l0.837-1.403
				L133.608,114.497z"/>
			<path fill="#9EC0DF" d="M141.789,119.951c0,0.36-0.148,0.793-0.445,1.296c-0.297,0.505-0.607,0.757-0.932,0.757
				c-0.468,0-1.503-0.45-3.104-1.351c-0.937,1.477-1.846,2.214-2.728,2.214h-1.08v-1.809h1.054c0.323,0,0.791-0.162,1.403-0.486
				c0.342-0.18,0.581-0.324,0.716-0.432c0.135-0.108,0.283-0.306,0.445-0.594c0.378-0.63,0.756-1.27,1.134-1.917
				c0.558-0.811,1.107-1.216,1.647-1.216c0.504,0,0.963,0.478,1.377,1.432C141.618,118.638,141.789,119.34,141.789,119.951z
				 M140.196,119.601c0-0.954-0.342-1.431-1.026-1.431c-0.233,0-0.441,0.085-0.621,0.256c-0.18,0.172-0.279,0.374-0.297,0.607
				C138.666,119.195,139.314,119.385,140.196,119.601z"/>
		</g>
	</g>
	<g>
		<rect x="46.849" y="39.757" fill="#9EC0DF" width="48.094" height="3"/>
		<rect x="46.849" y="60.138" fill="#9EC0DF" width="48.094" height="3"/>
		<rect x="46.849" y="80.516" fill="#9EC0DF" width="48.094" height="3"/>
		<g>
			<path fill="#9EC0DF" d="M114.68,42.493c-0.041-0.019-0.08-0.031-0.12-0.031c-0.088,0-0.164,0.034-0.231,0.102l-0.645,0.642
				c-0.061,0.061-0.09,0.136-0.09,0.224v2.556c0,0.444-0.157,0.822-0.473,1.139c-0.316,0.314-0.695,0.473-1.137,0.473h-8.374
				c-0.444,0-0.821-0.158-1.138-0.473c-0.314-0.316-0.473-0.694-0.473-1.139v-8.372c0-0.443,0.158-0.822,0.473-1.137
				c0.316-0.315,0.693-0.475,1.138-0.475h8.374c0.146,0,0.297,0.02,0.451,0.062c0.041,0.015,0.07,0.019,0.092,0.019
				c0.088,0,0.164-0.033,0.23-0.1l0.492-0.493c0.082-0.08,0.111-0.178,0.091-0.29c-0.019-0.109-0.079-0.185-0.181-0.232
				c-0.362-0.169-0.754-0.253-1.176-0.253h-8.374c-0.798,0-1.481,0.283-2.049,0.852c-0.565,0.566-0.849,1.249-0.849,2.049v8.371
				c0,0.799,0.283,1.481,0.849,2.05c0.567,0.566,1.251,0.851,2.049,0.851h8.374c0.797,0,1.48-0.284,2.047-0.851
				c0.568-0.568,0.851-1.251,0.851-2.05v-3.199C114.882,42.643,114.814,42.547,114.68,42.493L114.68,42.493z M114.68,42.493"/>
			<path fill="#9EC0DF" d="M117.207,36.717L116.1,35.61c-0.16-0.16-0.354-0.241-0.574-0.241c-0.222,0-0.412,0.081-0.574,0.241
				l-6.512,6.512l-2.645-2.647c-0.162-0.162-0.354-0.242-0.575-0.242c-0.22,0-0.413,0.08-0.573,0.242l-1.107,1.106
				c-0.16,0.161-0.24,0.354-0.24,0.573c0,0.222,0.08,0.412,0.24,0.573l4.328,4.329c0.161,0.16,0.352,0.24,0.573,0.24
				s0.413-0.08,0.573-0.24l8.193-8.193c0.16-0.159,0.242-0.35,0.242-0.573C117.449,37.068,117.367,36.878,117.207,36.717
				L117.207,36.717z M117.207,36.717"/>
		</g>
		<g>
			<path fill="#9EC0DF" d="M114.68,62.331c-0.041-0.02-0.08-0.03-0.12-0.03c-0.088,0-0.164,0.033-0.231,0.1l-0.645,0.644
				c-0.061,0.061-0.09,0.136-0.09,0.223v2.558c0,0.442-0.157,0.82-0.473,1.136c-0.316,0.315-0.695,0.474-1.137,0.474h-8.374
				c-0.444,0-0.821-0.158-1.138-0.474c-0.314-0.315-0.473-0.693-0.473-1.136V57.45c0-0.442,0.158-0.823,0.473-1.139
				c0.316-0.314,0.693-0.473,1.138-0.473h8.374c0.146,0,0.297,0.02,0.451,0.062c0.041,0.015,0.07,0.02,0.092,0.02
				c0.088,0,0.164-0.033,0.23-0.102l0.492-0.491c0.082-0.081,0.111-0.178,0.091-0.292c-0.019-0.107-0.079-0.184-0.181-0.232
				c-0.362-0.166-0.754-0.251-1.176-0.251h-8.374c-0.798,0-1.481,0.283-2.049,0.85c-0.565,0.567-0.849,1.25-0.849,2.05v8.373
				c0,0.797,0.283,1.48,0.849,2.047c0.567,0.566,1.251,0.851,2.049,0.851h8.374c0.797,0,1.48-0.284,2.047-0.851
				c0.568-0.566,0.851-1.25,0.851-2.047v-3.201C114.882,62.48,114.814,62.385,114.68,62.331L114.68,62.331z M114.68,62.331"/>
			<path fill="#9EC0DF" d="M117.207,56.555l-1.107-1.105c-0.16-0.162-0.354-0.242-0.574-0.242c-0.222,0-0.412,0.08-0.574,0.242
				l-6.512,6.512l-2.645-2.647c-0.162-0.164-0.354-0.243-0.575-0.243c-0.22,0-0.413,0.079-0.573,0.243l-1.107,1.104
				c-0.16,0.163-0.24,0.354-0.24,0.573c0,0.223,0.08,0.413,0.24,0.574l4.328,4.329c0.161,0.16,0.352,0.239,0.573,0.239
				s0.413-0.079,0.573-0.239l8.193-8.192c0.16-0.159,0.242-0.352,0.242-0.575C117.449,56.907,117.367,56.716,117.207,56.555
				L117.207,56.555z M117.207,56.555"/>
		</g>
		<path fill="#9EC0DF" d="M112.313,88.762h-9.62c-1.178,0-2.135-0.959-2.135-2.137v-9.618c0-1.179,0.957-2.138,2.135-2.138h9.62
			c1.179,0,2.137,0.959,2.137,2.138v9.618C114.45,87.803,113.492,88.762,112.313,88.762z M102.693,76.119
			c-0.488,0-0.885,0.398-0.885,0.888v9.618c0,0.489,0.396,0.887,0.885,0.887h9.62c0.489,0,0.887-0.397,0.887-0.887v-9.618
			c0-0.489-0.397-0.888-0.887-0.888H102.693z"/>
	</g>
</g>
</svg>
