<?xml version="1.0" encoding="utf-8"?>
<!-- Generator: Adobe Illustrator 16.0.0, SVG Export Plug-In . SVG Version: 6.00 Build 0)  -->
<!DOCTYPE svg PUBLIC "-//W3C//DTD SVG 1.1//EN" "http://www.w3.org/Graphics/SVG/1.1/DTD/svg11.dtd">
<svg version="1.1" id="Layer_1" xmlns="http://www.w3.org/2000/svg" xmlns:xlink="http://www.w3.org/1999/xlink" x="0px" y="0px"
	 width="164.451px" height="167.703px" viewBox="0 0 164.451 167.703" enable-background="new 0 0 164.451 167.703"
	 xml:space="preserve">
<g>
	<g>
		<g>
			<path fill="#9EC0DF" d="M161.366,167.674H3.915c-1.93,0-3.5-1.57-3.5-3.5V3.472c0-1.93,1.57-3.5,3.5-3.5h157.451
				c1.93,0,3.5,1.57,3.5,3.5v160.702C164.866,166.104,163.296,167.674,161.366,167.674z M3.915,0.972c-1.378,0-2.5,1.121-2.5,2.5
				v160.702c0,1.379,1.122,2.5,2.5,2.5h157.451c1.379,0,2.5-1.121,2.5-2.5V3.472c0-1.379-1.121-2.5-2.5-2.5H3.915z"/>
			<g>
				<path fill="#9EC0DF" d="M79.35,133.436h-2.079c-0.576,0-0.968-0.099-1.174-0.297c-0.208-0.197-0.401-0.585-0.581-1.161
					c-1.98,1.729-5.256,2.593-9.828,2.593c-5.04,0-7.56-1.377-7.56-4.132c0-0.72,0.351-1.898,1.053-3.536l0.324,0.161
					c-0.324,1.099-0.486,1.782-0.486,2.053c0,2.286,2.457,3.429,7.371,3.429c3.834,0,6.759-0.549,8.775-1.647
					c0.125-0.27,0.207-0.53,0.243-0.782c0.36,1.025,1.206,1.539,2.538,1.539c0.144,0,0.378,0,0.702,0
					c0.306-0.019,0.54-0.027,0.702-0.027V133.436z M69.063,137.918l-1.08,1.565l-1.458-1.079l0.999-1.539L69.063,137.918z"/>
				<path fill="#9EC0DF" d="M85.047,133.436h-2.079c-0.288,0-0.572-0.206-0.851-0.621c-0.279-0.413-0.418-0.773-0.418-1.079
					c-0.612,1.134-1.386,1.7-2.322,1.7h-1.053v-1.809c1.206,0,1.962-0.09,2.268-0.271c0.414-0.233,0.657-0.477,0.729-0.729
					c0.054-0.144,0.09-0.513,0.108-1.107l0.216,0.027c0.216,0.937,0.612,1.539,1.188,1.809c0.396,0.181,1.134,0.271,2.214,0.271
					V133.436z M83.913,136.406l-0.973,1.62l-1.566-1.107l-0.864,1.377l-1.566-1.161l0.945-1.512l1.566,1.106l0.918-1.403
					L83.913,136.406z"/>
				<path fill="#9EC0DF" d="M87.963,129.413c0,2.682-0.972,4.022-2.916,4.022h-1.054v-1.809c2.196,0,3.295-0.378,3.295-1.134
					c0-0.18-0.172-0.576-0.514-1.188c-0.342-0.611-0.513-0.98-0.513-1.106c0-0.072,0.342-0.648,1.026-1.729
					C87.737,127.479,87.963,128.459,87.963,129.413z M89.286,120.827l-1,1.593l-1.592-1.026l-0.892,1.404l-1.565-0.972l0.918-1.62
					l1.674,0.999l0.81-1.377L89.286,120.827z"/>
				<path fill="#9EC0DF" d="M100.517,133.436h-1.971c-0.216,1.746-0.711,3.231-1.484,4.455c-0.973,1.566-2.232,2.35-3.78,2.35
					c-0.558,0-1.62-0.234-3.187-0.702l0.243-0.297c0.396,0.071,0.702,0.107,0.918,0.107c1.458,0,2.799-0.504,4.023-1.512
					c0.54-0.45,1.089-1.144,1.647-2.079c0.557-0.936,0.881-1.736,0.971-2.403c-0.504-0.161-0.927-0.549-1.269-1.16l0.81-1.594
					c0.504,0.702,1.125,1.054,1.863,1.054c0.09,0,0.271,0,0.541,0c0.27-0.019,0.494-0.027,0.674-0.027V133.436z"/>
				<path fill="#9EC0DF" d="M103.568,129.413c0,2.682-0.972,4.022-2.916,4.022h-1.054v-1.809c2.196,0,3.295-0.378,3.295-1.134
					c0-0.18-0.172-0.576-0.514-1.188c-0.342-0.611-0.513-0.98-0.513-1.106c0-0.072,0.342-0.648,1.026-1.729
					C103.343,127.479,103.568,128.459,103.568,129.413z M104.892,120.827l-1,1.593l-1.592-1.026l-0.892,1.404l-1.565-0.972
					l0.918-1.62l1.674,0.999l0.81-1.377L104.892,120.827z"/>
			</g>
		</g>
	</g>
	<g>
		<rect x="99.497" y="41.17" fill="#9EC0DF" width="11.006" height="11.006"/>
		<rect x="57.109" y="41.17" fill="#9EC0DF" width="35.256" height="11.006"/>
		<rect x="99.497" y="61.142" fill="#9EC0DF" width="11.006" height="11.004"/>
		<rect x="57.109" y="61.142" fill="#9EC0DF" width="35.256" height="11.004"/>
		<rect x="99.497" y="81.114" fill="#9EC0DF" width="11.006" height="11.004"/>
		<rect x="57.109" y="81.114" fill="#9EC0DF" width="35.256" height="11.004"/>
		<path fill="#9EC0DF" d="M128.071,78.878c0,7.486-5.264,13.769-12.157,15.599V90.42c4.659-1.819,8.101-6.279,8.101-11.542
			c0-3.452-1.414-6.488-3.64-8.516l-4.461,4.461V62.666h12.157l-4.867,4.865C126.25,70.362,128.071,74.416,128.071,78.878
			L128.071,78.878z"/>
		<path fill="#9EC0DF" d="M42.075,67.084c-3.036-2.84-4.866-6.887-4.866-11.346c0-7.497,5.271-13.78,12.156-15.601v4.254
			c-4.66,1.835-8.101,6.285-8.101,11.553c0,3.443,1.415,6.479,3.64,8.507l4.461-4.461v12.155H37.208L42.075,67.084z"/>
	</g>
</g>
</svg>
