<?xml version="1.0" encoding="utf-8"?>
<!-- Generator: Adobe Illustrator 21.0.0, SVG Export Plug-In . SVG Version: 6.00 Build 0)  -->
<svg version="1.1" id="Layer_1" xmlns="http://www.w3.org/2000/svg" xmlns:xlink="http://www.w3.org/1999/xlink" x="0px" y="0px"
	 viewBox="0 0 161.5 200" style="enable-background:new 0 0 161.5 200;" xml:space="preserve">
<style type="text/css">
	.st0{fill:#FFFFFF;}
</style>
<title>Artboard 42</title>
<g>
	<path class="st0" d="M108.5,72.4c-2.6,0-4.7,2.1-4.7,4.7v88.6c0.1,2.6,2.2,4.6,4.7,4.6c2.5,0,4.6-2.1,4.6-4.6l0,0V77.2
		c0.1-2.5-1.9-4.6-4.4-4.7C108.6,72.4,108.6,72.4,108.5,72.4z"/>
	<path class="st0" d="M53.2,72.4c-2.6,0-4.7,2.1-4.7,4.7v88.6c0.1,2.6,2.2,4.6,4.7,4.6c2.5,0,4.6-2.1,4.6-4.6l0,0V77.2
		c0.1-2.5-1.9-4.6-4.4-4.7C53.3,72.4,53.2,72.4,53.2,72.4z"/>
	<path class="st0" d="M12.9,59.6v115.3c-0.1,6.6,2.3,13,6.9,17.9c4.4,4.6,10.5,7.2,16.8,7.2h88.6c6.3,0,12.3-2.6,16.7-7.2
		c4.5-4.8,7-11.2,6.9-17.9V59.6c9.5-2.9,15-12.9,12.1-22.4c-2.2-7.4-8.9-12.6-16.7-12.9h-24v-5.8c0.1-10.1-8.1-18.4-18.2-18.5
		c-0.1,0-0.2,0-0.3,0H60.7c-5.1-0.3-10.1,1.7-13.7,5.3c-3.5,3.5-5.5,8.2-5.5,13.1v5.8h-24C7.5,24.6-0.3,33,0,42.9
		C0.3,50.7,5.4,57.4,12.9,59.6z M125.2,190.7H36.5c-8.1-0.5-14.4-7.2-14.4-15.3V59.9h117.2v115C139.6,183.2,133.3,190.1,125.2,190.7
		z M50.8,18.5c0-2.4,1-4.7,2.7-6.4c1.9-2,4.5-3,7.2-2.7h40.9c2.5,0,4.8,1,6.6,2.7c1.7,1.7,2.6,4,2.6,6.4v5.8h-60V18.5z M17.4,33.8
		h126.6c4.6-0.1,8.3,3.5,8.4,8.1c0,0.1,0,0.2,0,0.3c0,4.6-3.8,8.4-8.4,8.4l0,0H17.4c-4.6,0-8.4-3.8-8.4-8.4S12.8,33.8,17.4,33.8z"/>
	<path class="st0" d="M80.8,72.4c-2.6-0.1-4.8,2-4.9,4.6c0,0.1,0,0.1,0,0.2v88.6c0.1,2.6,2.2,4.6,4.7,4.6c2.5,0,4.6-2.1,4.6-4.6l0,0
		V77.2C85.4,74.6,83.4,72.5,80.8,72.4C80.9,72.4,80.9,72.4,80.8,72.4z"/>
</g>
</svg>
