<?xml version="1.0" encoding="utf-8"?>
<!-- Generator: Adobe Illustrator 21.0.0, SVG Export Plug-In . SVG Version: 6.00 Build 0)  -->
<svg version="1.1" id="Layer_1" xmlns="http://www.w3.org/2000/svg" xmlns:xlink="http://www.w3.org/1999/xlink" x="0px" y="0px"
	 viewBox="0 0 188.5 200" style="enable-background:new 0 0 188.5 200;" xml:space="preserve">
<style type="text/css">
	.st0{fill:#BCBEC0;}
	.st1{fill:#757779;}
</style>
<g>
	<title>Artboard 47</title>
	<path class="st0" d="M17.7,163.8H5c-2.7,0-5,2.2-5,5s2.2,5,5,5h13c2.7,0,5-2.2,5-5s-2.2-5-5-5H17.7z"/>
	<path class="st0" d="M39.1,182.7c-1.9-1.9-5-1.9-7,0l-9.3,9.2c-1.7,2.1-1.4,5.2,0.7,7c1.8,1.5,4.5,1.5,6.3,0l9.3-9.1
		c2-1.9,2-5,0.2-6.9C39.3,182.8,39.2,182.8,39.1,182.7z"/>
	<path class="st1" d="M183.6,166.3H97l88.6-88.6c3.9-3.8,3.9-10.1,0-13.9c0,0,0,0,0,0L124.9,3c-3.8-3.9-10-4-13.9-0.2
		c-0.1,0.1-0.1,0.1-0.2,0.2L14,99.9c-11.6,11.6-11.6,30.3,0,41.9l29.2,29.2c3.2,3.3,7.6,5.1,12.2,5.1h128.1c2.7,0,5-2.2,5-5
		S186.3,166.3,183.6,166.3z M55.4,166.3c-2,0-3.8-0.8-5.2-2.2L21,134.9c-7.7-7.6-7.9-19.9-0.3-27.7c0.1-0.1,0.2-0.2,0.3-0.3
		l15.8-15.5L89,143.6c1.9,1.9,5,1.9,7,0c1.9-1.9,1.9-5,0-7L43.8,84.4L118,9.9l60.6,60.7L83,166.3H55.4z"/>
</g>
</svg>
