<?xml version="1.0" encoding="utf-8"?>
<!-- Generator: Adobe Illustrator 21.0.0, SVG Export Plug-In . SVG Version: 6.00 Build 0)  -->
<svg version="1.1" id="Layer_1" xmlns="http://www.w3.org/2000/svg" xmlns:xlink="http://www.w3.org/1999/xlink" x="0px" y="0px"
	 viewBox="0 0 200 200" style="enable-background:new 0 0 200 200;" xml:space="preserve">
<style type="text/css">
	.st0{fill:#808080;}
</style>
<g>
	<title>Artboard 15</title>
	<path class="st0" d="M84,0H5.9C2.6,0,0,2.6,0,5.9V84c0.4,3,2.9,5.2,5.9,5.2H84c2.7-0.3,4.9-2.5,5.2-5.2V5.9C89.2,2.9,87,0.4,84,0z
		 M78.1,78.1H11.8V11.8h66.4V78.1z"/>
	<path class="st0" d="M56.7,27.3H33.2c-3.3,0-5.9,2.6-5.9,5.9l0,0v23.5c0,3.2,2.6,5.7,5.7,5.7c0.1,0,0.1,0,0.2,0h23.5
		c3.2,0,5.7-2.6,5.7-5.7V33.2c0.1-3.2-2.4-5.8-5.5-5.9C56.9,27.3,56.8,27.3,56.7,27.3z"/>
	<path class="st0" d="M194.1,0H116c-3.3,0-5.9,2.6-5.9,5.9V84c0.4,3,2.9,5.2,5.9,5.2h78.1c3.3,0,5.9-2.6,5.9-5.9V5.9
		C200,2.6,197.4,0,194.1,0z M188.2,78.1h-66.4V11.8h66.4V78.1z"/>
	<path class="st0" d="M166.8,27.3h-24.1c-3.3,0-5.9,2.6-5.9,5.9v23.5c0,3.2,2.6,5.7,5.7,5.7c0.1,0,0.1,0,0.2,0h24.1
		c3.2,0.1,5.8-2.4,5.9-5.5c0-0.1,0-0.1,0-0.2V33.2C172.7,29.9,170.1,27.3,166.8,27.3z"/>
	<path class="st0" d="M84,110.1H5.9c-3.3,0-5.9,2.6-5.9,5.9v78.1c0,3.3,2.6,5.9,5.9,5.9H84c3-0.4,5.2-2.9,5.2-5.9V116
		C89.2,113,87,110.4,84,110.1z M78.1,188.2H11.8v-66.4h66.4V188.2z"/>
	<path class="st0" d="M56.7,137.6H33.2c-3,0-5.5,2.2-5.9,5.2v24.1c0,3.3,2.6,5.9,5.9,5.9h23.5c3.2,0,5.7-2.6,5.7-5.7
		c0-0.1,0-0.1,0-0.2v-24.1C62.2,139.8,59.7,137.5,56.7,137.6z"/>
	<path class="st0" d="M194.1,165h-33.5v-22.3c0-3.3-2.6-5.9-5.9-5.9c-3.2,0-5.9,2.6-5.9,5.9v28.2c0,3.3,2.6,5.9,5.9,5.9h33.2v11.4
		H155c-3.3,0-5.9,2.6-5.9,5.9c0,3.2,2.6,5.9,5.9,5.9h39.1c3.3,0,5.9-2.6,5.9-5.9v-23.2C200,167.7,197.4,165,194.1,165z"/>
	<path class="st0" d="M194.1,110.1c-3.3,0-5.9,2.6-5.9,5.9v26.8c0,3.3,2.6,5.9,5.9,5.9c3.2,0,5.9-2.6,5.9-5.9V116
		C200,112.7,197.4,110.1,194.1,110.1z"/>
	<path class="st0" d="M142.7,110.1H116c-3.3,0-5.9,2.6-5.9,5.9v26.8c0,3.3,2.6,5.9,5.9,5.9c3.2,0,5.9-2.6,5.9-5.9v-20.9h20.9
		c3.3,0,5.9-2.6,5.9-5.9C148.6,112.7,146,110.1,142.7,110.1z"/>
	<path class="st0" d="M116,165c-3.3,0-5.9,2.6-5.9,5.9v23.2c0,3.3,2.6,5.9,5.9,5.9c3.3,0,5.9-2.6,5.9-5.9c0,0,0,0,0,0v-23.2
		C121.9,167.7,119.2,165,116,165z"/>
</g>
</svg>
