<?xml version="1.0" encoding="utf-8"?>
<!-- Generator: Adobe Illustrator 21.0.0, SVG Export Plug-In . SVG Version: 6.00 Build 0)  -->
<svg version="1.1" id="Layer_1" xmlns="http://www.w3.org/2000/svg" xmlns:xlink="http://www.w3.org/1999/xlink" x="0px" y="0px"
	 viewBox="0 0 194.2 200" style="enable-background:new 0 0 194.2 200;" xml:space="preserve">
<style type="text/css">
	.st0{fill:#FFFFFF;}
</style>
<title>Artboard 2</title>
<path class="st0" d="M134.8,128.2l29.8,29.6c9.8,9.8,19.6,19.6,29.6,29.2L181.2,200l-59.4-59.9c-18.8,13.7-42.8,18.2-65.3,12.2
	c-18.1-4.7-33.6-16.2-43.5-32C-10.7,84.7-1,36.6,34.7,12.9S118.4-1,142.1,34.7c19.2,29,16.8,67.2-5.9,93.5H134.8z M7.7,77.5
	c0,37.7,30.6,68.3,68.3,68.3c37.7,0,68.3-30.6,68.3-68.3S113.8,9.1,76,9.1c-0.1,0-0.1,0-0.2,0C38.2,9.1,7.7,39.6,7.7,77.2
	C7.7,77.3,7.7,77.4,7.7,77.5z"/>
<path class="st0" d="M71.5,113.8V82H39.7v-9.1h31.8V41.1h8.9v31.8h32V82H80.6v31.8H71.5z"/>
</svg>
