<?xml version="1.0" encoding="utf-8"?>
<!-- Generator: Adobe Illustrator 21.0.0, SVG Export Plug-In . SVG Version: 6.00 Build 0)  -->
<svg version="1.1" id="Layer_1" xmlns="http://www.w3.org/2000/svg" xmlns:xlink="http://www.w3.org/1999/xlink" x="0px" y="0px"
	 viewBox="0 0 220.1 200" style="enable-background:new 0 0 220.1 200;" xml:space="preserve">
<style type="text/css">
	.st0{fill:#808080;}
</style>
<g>
	<title>Artboard 12</title>
	<path class="st0" d="M118.5,100v88.2c0.2,4.7-2.5,9-6.9,10.7c-4.4,2.2-9.8,1-12.8-3l-33.3-36.1l-18-19.7c-0.8-1.2-2.1-1.9-3.6-2
		H14.7c-7.6,0.4-14.1-5.4-14.6-13c0-0.3,0-0.5,0-0.8c0-16.4,0-32.8,0-49.1C-0.7,68,4.4,61.6,11.6,60.8c0.9-0.1,1.8-0.1,2.7,0h29.2
		c1.6,0.2,3.2-0.4,4.3-1.6L98.7,4c3.6-4.5,10.2-5.3,14.7-1.7c0.6,0.5,1.2,1.1,1.7,1.7c2.1,2.1,3.3,4.9,3.4,7.9
		C117.3,41.2,118.5,70.6,118.5,100z M109.6,100c0-29.4,0-59.2,0-88.2c0.2-0.9,0.2-1.8,0-2.8c0,0-2.2,0-2.8,1.4
		c-17.2,18.2-34.1,36.7-51.1,55c-1.1,0.9-1.6,2.2-1.6,3.6c0,19.7,0,41.2,0,62c0,1.3,0.6,2.6,1.6,3.6l48.9,54.9l0,0c0,0,1.6,0,2.2,0
		s0-1,0-1.6c0.1-0.7,0.1-1.3,0-2L109.6,100z M43.5,69.5h-29c-4.3,0-5.5,1.4-5.5,5.7v49.3c0,4.3,1.2,5.7,5.7,5.7h28.8V69.5z"/>
	<path class="st0" d="M187.1,95.5l31.8-31.6c1.6-1.7,1.6-4.4,0-6.1c-1.6-1.7-4.4-1.8-6.1-0.2c-0.1,0.1-0.1,0.1-0.2,0.2L181,89.4
		l-31.6-31.6c-1.5-1.8-4.3-2.1-6.1-0.5c-1.8,1.5-2.1,4.3-0.5,6.1c0.2,0.2,0.3,0.4,0.5,0.5l31.6,31.6l-31.6,31.6
		c-1.7,1.5-1.8,4.2-0.3,5.9c0.1,0.1,0.2,0.2,0.3,0.3c0.7,0.9,1.8,1.4,3,1.4c1.2,0,2.4-0.5,3.2-1.4l31.6-31.6l31.6,31.6
		c1.6,1.7,4.4,1.8,6.1,0.2c0.1-0.1,0.1-0.1,0.2-0.2c1.6-1.7,1.6-4.4,0-6.1L187.1,95.5z"/>
</g>
</svg>
