<?xml version="1.0" encoding="utf-8"?>
<!-- Generator: Adobe Illustrator 21.0.0, SVG Export Plug-In . SVG Version: 6.00 Build 0)  -->
<svg version="1.1" id="Layer_1" xmlns="http://www.w3.org/2000/svg" xmlns:xlink="http://www.w3.org/1999/xlink" x="0px" y="0px"
	 viewBox="0 0 199.8 200" style="enable-background:new 0 0 199.8 200;" xml:space="preserve">
<style type="text/css">
	.st0{fill:#808080;}
</style>
<title>Artboard 11</title>
<g>
	<path class="st0" d="M118.5,100v88.2c0.2,4.7-2.5,9-6.9,10.7c-4.4,2.2-9.8,1-12.8-3l-33.3-36.1l-18-19.7c-0.8-1.2-2.1-1.9-3.6-2
		H14.7c-7.6,0.4-14.1-5.4-14.6-13c0-0.3,0-0.5,0-0.8c0-16.4,0-32.8,0-49.1C-0.7,68,4.4,61.6,11.6,60.8c0.9-0.1,1.8-0.1,2.7,0h29.2
		c1.6,0.2,3.2-0.4,4.3-1.6L98.7,4c3.6-4.5,10.2-5.3,14.7-1.7c0.6,0.5,1.2,1.1,1.7,1.7c2.1,2.1,3.3,4.9,3.4,7.9
		C117.3,41.2,118.5,70.6,118.5,100z M109.6,100c0-29.4,0-59.2,0-88.2c0.2-0.9,0.2-1.8,0-2.8c0,0-2.2,0-2.8,1.4
		c-17.2,18.2-34.1,36.7-51.1,55c-1.1,0.9-1.6,2.2-1.6,3.6c0,19.7,0,41.2,0,62c0,1.3,0.6,2.6,1.6,3.6l48.9,54.9l0,0c0,0,1.6,0,2.2,0
		s0-1,0-1.6c0.1-0.7,0.1-1.3,0-2L109.6,100z M43.5,69.5h-29c-4.3,0-5.5,1.4-5.5,5.7v49.3c0,4.3,1.2,5.7,5.7,5.7h28.8V69.5z"/>
	<path class="st0" d="M158.9,43.6l4.9-7.1c20.8,12.2,34.1,34,35.7,58c2.2,27.8-11.7,54.5-35.9,68.5l-4.7-6.9
		c31.1-18.3,41.4-58.4,23-89.4C176.3,57.1,168.4,49.2,158.9,43.6z"/>
	<path class="st0" d="M149.2,141.7l-4.9-7.3c12.5-6.9,20.1-20.2,19.7-34.5c0.2-14.3-7.3-27.6-19.7-34.7l4.9-7.1
		c14.5,8,23.7,23,24.3,39.5C174.6,115.6,165.2,132.8,149.2,141.7z"/>
	<path class="st0" d="M129.5,112.5c5.8-2,9.4-7.7,8.7-13.8c-0.1-5.8-4.1-10.8-9.7-12.2l5.9-7.5c7.2,3,12.2,9.8,13,17.6
		c1.2,8.9-3.2,17.6-11,21.9c-1.4,0-2.4,0-3.2,0L129.5,112.5z"/>
</g>
</svg>
