<?xml version="1.0" encoding="utf-8"?>
<!-- Generator: Adobe Illustrator 21.0.0, SVG Export Plug-In . SVG Version: 6.00 Build 0)  -->
<svg version="1.1" id="Layer_1" xmlns="http://www.w3.org/2000/svg" xmlns:xlink="http://www.w3.org/1999/xlink" x="0px" y="0px"
	 viewBox="0 0 200 200" style="enable-background:new 0 0 200 200;" xml:space="preserve">
<style type="text/css">
	.st0{fill:#E9F4E8;}
	.st1{fill:#34B450;}
</style>
<title>Artboard 35</title>
<g>
	<g id="Layer_1_1_">
		<g>
			<path class="st0" d="M41.2,0h117.7C181.6,0,200,18.4,200,41.2v117.7c0,22.7-18.4,41.2-41.2,41.2H41.2C18.4,200,0,181.6,0,158.8
				V41.2C0,18.4,18.4,0,41.2,0z"/>
		</g>
		<path class="st1" d="M37.9,162.1V37.9h124.2v91.2c0.1,1-0.3,2.1-1.1,2.8c-9.8,9.8-19.5,19.4-29.2,29.2c-0.7,0.8-1.7,1.2-2.7,1.1
			C129.2,162.1,37.9,162.1,37.9,162.1z M43.9,156h82.7v-29.5h29.3V43.9h-112L43.9,156z M151.3,132.6h-18.8v18.8L151.3,132.6z"/>
		<path class="st1" d="M67.5,76.3v-5.8h67.8v5.8H67.5z"/>
		<path class="st1" d="M135.3,88.2v5.8H67.5v-5.8H135.3z"/>
		<path class="st1" d="M67.5,111.8v-5.8h67.8v5.8H67.5z"/>
	</g>
</g>
</svg>
