<?xml version="1.0" encoding="utf-8"?>
<!-- Generator: Adobe Illustrator 21.0.0, SVG Export Plug-In . SVG Version: 6.00 Build 0)  -->
<svg version="1.1" id="Layer_1" xmlns="http://www.w3.org/2000/svg" xmlns:xlink="http://www.w3.org/1999/xlink" x="0px" y="0px"
	 viewBox="0 0 193.1 200" style="enable-background:new 0 0 193.1 200;" xml:space="preserve">
<style type="text/css">
	.st0{fill:#757779;}
	.st1{fill:#BCBEC0;}
</style>
<title>Artboard 45</title>
<path class="st0" d="M193.1,139.9V66.1c0-9.3-7.5-16.8-16.8-16.8l0,0h-20.2V10.8c0-5.9-4.9-10.8-10.8-10.8H47.9
	c-6,0-10.8,4.8-10.8,10.8c0,0,0,0,0,0v38.5H16.8C7.5,49.4,0,56.9,0,66.1v73.7c0,9.3,7.5,16.7,16.8,16.8h20.3v32.6
	c0,6,4.8,10.8,10.8,10.8c0,0,0,0,0,0h97.5c5.9,0,10.8-4.9,10.8-10.8v-32.6h20.2C185.6,156.6,193.1,149.2,193.1,139.9
	C193.1,139.9,193.1,139.9,193.1,139.9z M45.1,10.8C45,9.3,46.2,8,47.7,7.9c0.1,0,0.1,0,0.2,0h97.5c1.5,0,2.7,1.3,2.7,2.8v38.7h-103
	V10.8z M148.1,189.2c0,1.5-1.3,2.7-2.8,2.7H47.9c-1.5,0-2.7-1.2-2.8-2.7v-82.1h103L148.1,189.2L148.1,189.2z M185.1,140
	c0,4.8-3.9,8.7-8.8,8.7h-20.2V103c0-2.3-1.8-4.1-4.1-4.1l0,0h-111c-2.2,0-4,1.8-4,4c0,0,0,0.1,0,0.1v45.5H16.8
	c-4.8,0.1-8.8-3.8-8.9-8.6c0,0,0-0.1,0-0.1V66.1c0-4.8,3.9-8.8,8.7-8.8c0.1,0,0.1,0,0.2,0h159.6c4.8,0,8.8,3.9,8.8,8.8v0v73.7V140z"
	/>
<path class="st0" d="M28.7,74c-2.2,0.6-3.4,2.9-2.8,5.1c0.4,1.4,1.5,2.4,2.8,2.8c1,0.1,2-0.3,2.8-0.9c0.8-0.8,1.2-1.8,1.2-2.8
	C32.8,75.9,31,74.1,28.7,74C28.7,74,28.7,74,28.7,74z"/>
<path class="st1" d="M68,153.4h57.2c2.1,0,3.8-1.6,4-3.6c0-2.2-1.8-4-4-4c0,0,0,0,0,0H68c-2.2,0-4,1.7-4,3.9c0,0.1,0,0.1,0,0.2
	C64.2,151.8,66,153.4,68,153.4z"/>
<path class="st1" d="M68,176.3h57.2c2.2-0.4,3.6-2.6,3.1-4.7c-0.3-1.6-1.6-2.8-3.1-3.1H68c-2.2-0.4-4.3,1-4.7,3.1
	c-0.4,2.2,1,4.3,3.1,4.7C67,176.4,67.5,176.4,68,176.3z"/>
<path class="st1" d="M68,130.5h57.2c2.2-0.6,3.4-2.9,2.8-5.1c-0.4-1.4-1.5-2.4-2.8-2.8H68c-2.2,0.6-3.4,2.9-2.8,5.1
	C65.6,129.1,66.7,130.2,68,130.5z"/>
</svg>
