<?xml version="1.0" encoding="utf-8"?>
<!-- Generator: Adobe Illustrator 21.0.0, SVG Export Plug-In . SVG Version: 6.00 Build 0)  -->
<svg version="1.1" id="Layer_1" xmlns="http://www.w3.org/2000/svg" xmlns:xlink="http://www.w3.org/1999/xlink" x="0px" y="0px"
	 viewBox="0 0 59 59" style="enable-background:new 0 0 59 59;" xml:space="preserve">
<style type="text/css">
	.st0{fill:#0199DE;}
</style>
<g>
	<path class="st0" d="M33.3,16.3c-0.2,1-0.5,1.5-0.8,1.6l-6.8,2c0.1-0.7,0.4-1.2,0.8-1.5c0.2-0.1,0.8-0.4,1.7-0.7
		c-1-0.5-1.5-1.1-1.7-1.9c0-0.3,0.1-0.6,0.4-1.1c0.6-0.8,1.3-1.5,2-2.1c0.8-0.6,1.4-0.9,2-0.9c0.9,0,1.3,0.5,1.3,1.4
		c0,0.5-0.3,1-0.8,1.6c-0.8-0.5-1.5-0.8-2-0.8c-0.5,0-1,0.3-1.6,0.8c1.4,1.3,2.5,1.9,3.5,1.9C31.9,16.7,32.6,16.5,33.3,16.3z"/>
	<path class="st0" d="M31.2,40.4c0,1.7-0.5,4-1.4,6.9l-0.6-0.2c0.2-1,0.3-2,0.3-3c0-2-0.2-4.6-0.7-7.8c-0.3-2.6-0.7-5.1-1-7.7
		c-0.2-1.6-0.3-2.5-0.3-2.8c0-1.4,0.2-2.5,0.5-3.2c0.5-0.9,1-1.8,1.5-2.7c0,2.6,0.5,8,1.5,16.1C31.1,37.7,31.2,39.1,31.2,40.4z"/>
</g>
</svg>
