<?xml version="1.0" encoding="utf-8"?>
<!-- Generator: Adobe Illustrator 21.0.0, SVG Export Plug-In . SVG Version: 6.00 Build 0)  -->
<svg version="1.1" id="Layer_1" xmlns="http://www.w3.org/2000/svg" xmlns:xlink="http://www.w3.org/1999/xlink" x="0px" y="0px"
	 viewBox="0 0 59 59" style="enable-background:new 0 0 59 59;" xml:space="preserve">
<style type="text/css">
	.st0{fill:#0199DE;}
</style>
<g>
	<path class="st0" d="M33.9,42.8h-4.3c-0.2,1.1-0.7,2.6-1.3,4.7c-0.8,2.2-2,4.1-3.6,5.7C22.9,55.1,21,56,18.9,56
		c-1.5,0-3.7-0.8-6.5-2.3l0.4-0.5c1.4,0.5,2.5,0.8,3.4,0.8c2.9,0,5.6-1.1,8-3.4c2.2-2.2,3.7-4.8,4.3-7.8c-4.2,0-6.3-1-6.3-2.9
		c0-1,0.5-2.3,1.5-4.1c1.1-1.9,2-2.9,2.8-2.9c1,0,1.9,0.9,2.5,2.6c0.5,1.4,0.8,2.7,0.8,3.9h4.1V42.8z M28.3,39.4c-0.6-2-1.5-3-2.7-3
		c-0.3,0-0.6,0.1-0.9,0.4c-0.3,0.3-0.4,0.6-0.4,0.9C24.3,38.7,25.6,39.3,28.3,39.4z"/>
	<path class="st0" d="M33.7,7c0,1-0.4,1.9-1.1,2.8c-0.8,0.9-1.6,1.3-2.6,1.3c-1.8,0-2.7-1-2.7-3c0-1.2,0.3-2.3,0.8-3.1
		c0.6-1.1,1.5-1.6,2.7-1.6c0.8,0,1.5,0.4,2.1,1.2C33.4,5.3,33.7,6.2,33.7,7z M32.3,7.6c0-0.4-0.3-0.9-1-1.4
		c-0.7-0.5-1.3-0.8-1.7-0.8c-1,0-1.5,0.6-1.5,1.7c0,1,0.8,1.5,2.5,1.5C31.7,8.7,32.3,8.3,32.3,7.6z"/>
	<path class="st0" d="M36.7,17c-0.3-0.3-0.7-0.9-1.1-1.6c0.5-1.2,1.2-2.3,2.2-3.3c0.1,1,0.5,1.8,1.2,2.5c0.7,0.7,1.5,1.1,2.5,1.2
		L39.7,19l-0.9-0.5c-0.2,1.7-0.3,2.7-0.3,2.9c0,1.3,0.3,3.3,0.8,5.9c0.5,2.6,0.8,4.6,0.8,5.9c0,6.4-2,9.6-5.8,9.6h-2v-3.4
		c1.9,0,3.2-0.1,4.1-0.3c1.6-0.5,2.5-1.5,2.5-2.8c0-0.6-0.2-2.3-0.7-5.3c-0.3-2-0.6-3.9-1-5.9c-0.4-2.4-0.6-4.4-0.6-5.8
		c0-0.2,0-0.5,0.1-1s0.1-0.9,0-1.2V17z"/>
</g>
</svg>
