<?xml version="1.0" encoding="utf-8"?>
<!-- Generator: Adobe Illustrator 21.1.0, SVG Export Plug-In . SVG Version: 6.00 Build 0)  -->
<svg version="1.1" id="Layer_1" xmlns="http://www.w3.org/2000/svg" xmlns:xlink="http://www.w3.org/1999/xlink" x="0px" y="0px"
	 viewBox="0 0 15.3 15.3" style="enable-background:new 0 0 15.3 15.3;" xml:space="preserve">
<style type="text/css">
	.st0{fill:#00AD68;}
</style>
<g>
	<g>
		<polygon class="st0" points="11.1,3.4 11.2,3.5 11,3.6 11,3.8 11.2,3.8 11.4,3.8 11.6,3.6 11.4,3.5 11.4,3.4 11.2,3.3 11.2,3 
			10.9,3 10.9,3.1 10.9,3.2 11,3.3 		"/>
		<polygon class="st0" points="11,3.5 11,3.3 10.8,3.3 10.6,3.3 10.5,3.6 10.5,3.7 10.7,3.7 		"/>
		<path class="st0" d="M7.1,4.1l0,0.1H6.8v0.1h0c0,0,0,0,0,0.1l0.1,0l0.1,0l0-0.1l0.1,0l0-0.1L7.1,4.1L7.1,4.1z"/>
		<polygon class="st0" points="6.5,4.3 6.5,4.4 6.7,4.4 6.7,4.3 6.6,4.2 		"/>
		<path class="st0" d="M15.3,7.6c0-0.2,0-0.4,0-0.7c-0.1-0.7-0.2-1.4-0.5-2.1c0,0,0-0.1-0.1-0.1c-0.3-0.8-0.8-1.6-1.4-2.2
			c0,0-0.1-0.1-0.1-0.1C13,2.2,12.9,2.1,12.8,2c-1.4-1.2-3.2-2-5.1-2c-2,0-3.8,0.8-5.2,2C2.2,2.3,1.9,2.6,1.6,3C0.6,4.3,0,5.9,0,7.6
			c0,4.2,3.4,7.7,7.7,7.7c3,0,5.5-1.7,6.8-4.2c0.3-0.5,0.5-1.1,0.6-1.7c0-0.2,0.1-0.3,0.1-0.5C15.3,8.6,15.3,8.1,15.3,7.6
			C15.3,7.6,15.3,7.6,15.3,7.6z M13.9,4.5L13.9,4.5C14,4.6,14,4.7,14.1,4.8l-0.1,0l-0.1,0V4.5z M12.8,3.2l0-0.3
			C12.9,3,13,3.1,13.1,3.2L13,3.4l-0.5,0l0-0.1L12.8,3.2z M3.5,2.3L3.5,2.3l0.2,0l0-0.1h0.3v0.1L3.9,2.5H3.5L3.5,2.3L3.5,2.3z
			 M3.8,2.7c0,0,0.2,0,0.2,0c0,0,0,0.2,0,0.2l-0.3,0L3.5,2.7L3.8,2.7z M14.3,5.7h-0.6l-0.3-0.3l-0.4,0v0.2H13l-0.1-0.1l-0.6-0.2V5.1
			l-0.8,0.1l-0.2,0.1h-0.3l-0.2,0l-0.4,0.2v0.4L9.6,6.4l0.1,0.2h0.2l0,0.2l-0.1,0l0,0.6l0.7,0.8h0.3l0,0h0.5l0.2-0.1h0.3l0.2,0.2
			l0.4,0l-0.1,0.6l0.5,0.9l-0.3,0.5l0,0.2l0.2,0.2v0.6l0.3,0.4v0.5h0.2c-1.3,1.6-3.3,2.6-5.4,2.6c-3.9,0-7-3.1-7-7
			c0-1,0.2-1.9,0.6-2.7V4.7l0.3-0.3c0.1-0.2,0.2-0.3,0.3-0.5l0,0.1L1.4,4.4C1.4,4.5,1.3,4.7,1.2,4.9v0.4l0.3,0.1V6l0.3,0.5l0.2,0
			l0-0.2L1.7,5.9L1.7,5.5h0.2l0.1,0.4l0.4,0.6L2.2,6.7l0.2,0.4l0.6,0.2V7.1l0.2,0l0,0.2l0.2,0l0.3,0.1l0.4,0.5l0.5,0l0.1,0.4
			L4.4,8.7l0,0.4L4.4,9.3L4.9,10l0,0.2c0,0,0.2,0.1,0.2,0.1c0,0,0.4,0.3,0.4,0.3v1.2l0.1,0l-0.1,0.6l0.2,0.3l0,0.5l0.3,0.6l0.4,0.4
			l0.4,0L7,14l-0.3-0.3l0-0.1l0.1-0.2l0-0.2l-0.2,0l-0.1-0.1L6.7,13l0-0.1l-0.2-0.1l0-0.1l0.3,0l0.4-0.2l0.1-0.3l0.4-0.6l-0.1-0.4
			L7.8,11l0.4,0l0.3-0.2l0.1-0.8l0.3-0.4l0.1-0.2L8.6,9.2L8.5,8.9l-0.6,0L7.4,8.7l0-0.3L7.2,8.1l-0.4,0L6.5,7.7L6.2,7.6l0,0.1
			l-0.4,0L5.7,7.5L5.2,7.4L4.9,7.8L4.3,7.7l0-0.6L3.9,7L4,6.7l0-0.2L3.4,6.9l-0.3,0L3,6.6l0.1-0.3L3.2,6l0.4-0.2l0.8,0l0,0.3
			l0.3,0.1l0-0.4L5,5.5l0.4-0.3l0-0.2l0.4-0.4l0.5-0.3l0,0L6.6,4l0.1,0l0.1,0.1L6.9,4l0,0l-0.1,0l-0.1,0V3.8l0.1-0.1h0.2l0.1,0
			L7,3.9l0.1,0v0l0,0l0.2,0l0-0.1l0.1,0v0.1L7.4,3.9h0l0,0.1l0.4,0.1c0,0,0,0,0,0l0.1,0l0-0.2L7.6,3.9l0-0.1l0.3-0.1l0-0.2L7.5,3.3
			l0-0.4L7.2,3.1H7l0-0.3L6.6,2.6L6.4,2.8v0.5L6,3.4L5.8,3.7l-0.2,0V3.3l-0.3,0L5.1,3.2L5.1,2.9l0.6-0.4L6,2.4l0,0.2l0.2,0l0-0.1
			l0.2,0l0,0l-0.1,0l0-0.1l0.2,0l0.1-0.1l0,0l0,0l0,0l0.5-0.1l0.2,0.2L6.8,2.5l0.7,0.2l0.1-0.2h0.3L8,2.3L7.8,2.2V2L7.1,1.7L6.7,1.7
			L6.4,1.8l0,0.3l-0.3,0l0-0.2l0.3-0.2l-0.5,0l-0.1,0L5.7,1.9l0.2,0l0,0.2l-0.3,0l0,0.1l-0.4,0c0,0,0-0.2,0-0.2s0.3,0,0.3,0l0.3-0.3
			L5.5,1.7L5.3,1.9L5,1.8L4.8,1.6H4.4L4,1.9h0.4l0,0.1L4.3,2.1l0.4,0l0.1,0.2l-0.5,0l0-0.1L4,2.1L3.9,2L3.5,2
			c1.2-0.8,2.6-1.3,4.1-1.3c1.8,0,3.4,0.7,4.6,1.8l-0.1,0.1l-0.3,0.1l-0.1,0.1l0,0.2l0.2,0L12,3.3l0.3-0.1l0,0.3h-0.1l-0.2,0l-0.3,0
			l-0.3,0.4l-0.4,0.1l-0.1,0.3l0.2,0l0,0.2l-0.4-0.1l-0.3,0.1l-0.1,0.2L10.5,5l0.2,0.1l0.3,0l0.2,0l0.1-0.2l0.3-0.4l0.2,0l0.2-0.2
			l0,0.2l0.5,0.4l-0.1,0.1l-0.2,0L12.5,5l0.2,0L12.8,5l0-0.2l0.1,0l-0.1-0.1l-0.4-0.2l-0.1-0.3h0.3l0.1,0.1L13,4.5l0,0.3l0.3,0.3
			l0.1-0.4l0.2-0.1l0,0.3l0.2,0.2l0.4,0C14.3,5.3,14.3,5.5,14.3,5.7L14.3,5.7z M4.2,3.5l0.2-0.1l0.2,0L4.5,3.7L4.3,3.7L4.2,3.5z
			 M5.1,4v0.1H4.7l-0.2,0l0-0.1l0.2-0.1L5.1,4L5.1,4L5.1,4z M5.3,4.2v0.1L5.2,4.4l-0.1,0c0,0,0-0.2,0-0.2H5.3z M5.2,4.1V4l0.1,0.1
			L5.2,4.1z M5.3,4.5v0.1L5.2,4.7H5l0-0.2l0.1,0l0-0.1L5.3,4.5z M4.7,4.2H5L4.7,4.6L4.5,4.6l0-0.2L4.7,4.2z M5.7,4.4v0.1H5.5
			L5.4,4.5V4.4h0L5.7,4.4z M5.5,4.2L5.5,4.2h0.2H5.5L5.5,4.2z M14.5,6.1L14.5,6.1C14.5,6.1,14.5,6.1,14.5,6.1L14.5,6.1z"/>
		<path class="st0" d="M1.2,4.7v0.2c0.1-0.2,0.2-0.4,0.3-0.5L1.2,4.7z"/>
	</g>
</g>
</svg>
