<?xml version="1.0" encoding="iso-8859-1"?>
<!-- Generator: Adobe Illustrator 16.0.0, SVG Export Plug-In . SVG Version: 6.00 Build 0)  -->
<!DOCTYPE svg PUBLIC "-//W3C//DTD SVG 1.1//EN" "http://www.w3.org/Graphics/SVG/1.1/DTD/svg11.dtd">
<svg xmlns="http://www.w3.org/2000/svg" xmlns:xlink="http://www.w3.org/1999/xlink" version="1.1" id="Capa_1" x="0px" y="0px" width="512px" height="512px" viewBox="0 0 34.974 34.974" style="enable-background:new 0 0 34.974 34.974;" xml:space="preserve">
<g>
	<path d="M31.326,14.039h-4.98l-5.43-7.701c0.219-0.479,0.344-1.008,0.344-1.565C21.26,2.689,19.57,1,17.487,1   c-2.085,0-3.773,1.69-3.773,3.774c0,0.56,0.124,1.089,0.343,1.564l-5.43,7.702H3.648C1.631,14.039,0,15.674,0,17.688v12.637   c0,2.017,1.634,3.648,3.648,3.648h27.68c2.016,0,3.646-1.633,3.646-3.648V17.689C34.975,15.673,33.34,14.039,31.326,14.039z    M8.615,22.632H7.01v-1.158c0-0.773-0.339-1.064-0.881-1.064c-0.54,0-0.88,0.291-0.88,1.064v5.838c0,0.771,0.34,1.051,0.88,1.051   c0.542,0,0.881-0.276,0.881-1.051v-1.543h1.605v1.436c0,1.73-0.864,2.72-2.532,2.72c-1.667,0-2.533-0.987-2.533-2.72v-5.622   c0-1.729,0.865-2.718,2.533-2.718s2.532,0.988,2.532,2.718V22.632z M16.323,8.361c0.366,0.119,0.758,0.185,1.163,0.185   c0.406,0,0.796-0.063,1.162-0.185l4.004,5.679H12.319L16.323,8.361z M14.147,29.798H9.653V18.988h1.698v9.267h2.795L14.147,29.798   L14.147,29.798z M19.91,27.203c0,1.73-0.911,2.72-2.578,2.72c-1.668,0-2.58-0.987-2.58-2.72v-5.62c0-1.729,0.912-2.72,2.58-2.72   c1.667,0,2.578,0.988,2.578,2.72V27.203z M23.279,29.922c-1.666,0-2.53-0.987-2.53-2.72v-0.664h1.604v0.771   c0,0.773,0.34,1.051,0.881,1.051c0.539,0,0.879-0.276,0.879-1.051c0-2.225-3.319-2.641-3.319-5.729   c0-1.729,0.853-2.721,2.502-2.721c1.651,0,2.502,0.988,2.502,2.721v0.342h-1.604v-0.449c0-0.773-0.312-1.064-0.851-1.064   c-0.541,0-0.851,0.291-0.851,1.064c0,2.225,3.32,2.643,3.32,5.729C25.812,28.933,24.947,29.922,23.279,29.922z M31.423,20.531   h-2.937v3.013h2.332v1.543h-2.332v3.168h2.937v1.545H26.79V18.988h4.633V20.531z M18.212,21.472v5.838   c0,0.773-0.339,1.064-0.88,1.064c-0.54,0-0.882-0.291-0.882-1.064v-5.838c0-0.771,0.342-1.064,0.882-1.064   C17.873,20.408,18.212,20.701,18.212,21.472z" fill="#00ab67"/>
</g>
<g>
</g>
<g>
</g>
<g>
</g>
<g>
</g>
<g>
</g>
<g>
</g>
<g>
</g>
<g>
</g>
<g>
</g>
<g>
</g>
<g>
</g>
<g>
</g>
<g>
</g>
<g>
</g>
<g>
</g>
</svg>
