<?xml version="1.0" encoding="utf-8"?>
<!-- Generator: Adobe Illustrator 21.0.0, SVG Export Plug-In . SVG Version: 6.00 Build 0)  -->
<svg version="1.1" id="Capa_1" xmlns="http://www.w3.org/2000/svg" xmlns:xlink="http://www.w3.org/1999/xlink" x="0px" y="0px"
	 viewBox="44.7 8.6 96.2 58.8" style="enable-background:new 44.7 8.6 96.2 58.8;" xml:space="preserve">
<style type="text/css">
	.st0{fill:#00A951;}
</style>
<g>
	<g>
		<g>
			<path class="st0" d="M123.1,8.6H62.9c-0.8,0-1.4,0.6-1.4,1.4V66c0,0.8,0.6,1.4,1.4,1.4h60.2c0.8,0,1.4-0.6,1.4-1.4V10
				C124.5,9.2,123.9,8.6,123.1,8.6z M121.7,64.5H64.3V11.5h57.3V64.5L121.7,64.5z"/>
		</g>
	</g>
	<g>
		<g>
			<path class="st0" d="M131.4,12.4H128c0,1,0,1.9-0.1,2.9h2.1v44.5h-2.4c-0.3,1-0.6,1.9-0.9,2.9h4.7c0.8,0,1.4-0.6,1.4-1.4V13.8
				C132.8,13,132.2,12.4,131.4,12.4z"/>
		</g>
	</g>
	<g>
		<g>
			<path class="st0" d="M139.4,22.4H136c0,1,0,1.9-0.1,2.9h2.1v27.5h-2.4c-0.3,1-0.6,1.9-0.9,2.9h4.7c0.8,0,1.4-0.6,1.4-1.4V23.8
				C140.8,23,140.2,22.4,139.4,22.4z"/>
		</g>
	</g>
	<g>
		<g>
			<path class="st0" d="M54.1,12.4h3.4c0,1,0,1.9,0.1,2.9h-2.1v44.5h2.4c0.3,1,0.6,1.9,0.9,2.9h-4.7c-0.8,0-1.4-0.6-1.4-1.4V13.8
				C52.7,13,53.3,12.4,54.1,12.4z"/>
		</g>
	</g>
	<g>
		<g>
			<path class="st0" d="M46.1,22.4h3.4c0,1,0,1.9,0.1,2.9h-2.1v27.5h2.4c0.3,1,0.6,1.9,0.9,2.9h-4.7c-0.8,0-1.4-0.6-1.4-1.4V23.8
				C44.7,23,45.3,22.4,46.1,22.4z"/>
		</g>
	</g>
	<g id="Play">
		<path class="st0" d="M106.3,36.3L86.8,24c-0.6-0.3-1.3-0.3-1.8-0.3c-2.2,0-2.1,1.7-2.1,2.1v25.1c0,0.4,0,2.1,2.1,2.1
			c0.5,0,1.3,0.1,1.8-0.3l19.5-12.3c1.6-1,1.3-2.1,1.3-2.1S107.9,37.3,106.3,36.3z"/>
	</g>
</g>
</svg>
