<?xml version="1.0" encoding="utf-8"?>
<!-- Generator: Adobe Illustrator 22.1.0, SVG Export Plug-In . SVG Version: 6.00 Build 0)  -->
<svg version="1.1" id="Isolation_Mode" xmlns="http://www.w3.org/2000/svg" xmlns:xlink="http://www.w3.org/1999/xlink" x="0px"
	 y="0px" viewBox="0 0 50.2 49.9" style="enable-background:new 0 0 50.2 49.9;" xml:space="preserve">
<style type="text/css">
	.st0{opacity:0.15;}
	.st1{fill:#7A7A7A;}
	.st2{fill:#FFFFFF;}
	.st3{fill:#99714D;}
	.st4{fill:#DB7516;}
	.st5{fill:#FFBF1C;}
	.st6{fill:#FFF840;}
</style>
<g>
	<g class="st0">
		<path d="M37.1,49.9c-1.4,0-2.8-0.5-4.3-1.4L25,43.4l-7.3,5c-1.4,1-2.9,1.5-4.3,1.5c-1.9,0-3.6-0.8-4.7-2.3
			c-0.9-1.2-1.8-3.2-0.9-6.3l2.4-8.9L3,26.7c-3.7-3-3-6.3-2.7-7.3c0.3-1,1.7-4.1,6.5-4.3l9-0.3l3.1-8.4C20.5,1.9,24,1.5,25,1.5
			c1.3,0,4.5,0.5,6.1,4.8l3.2,8.5l9.1,0.3c4.8,0.2,6.2,3.3,6.5,4.3c0.4,1.2,1,4.4-2.6,7.3l-7.1,5.7l2.6,8.9c0.9,3.1,0,5.1-0.9,6.3
			C40.7,49.1,39,49.9,37.1,49.9z"/>
	</g>
	<g>
		<path class="st1" d="M37.1,48.4c-1.4,0-2.8-0.5-4.3-1.4L25,41.8l-7.3,5c-1.4,1-2.9,1.5-4.3,1.5c-1.9,0-3.6-0.8-4.7-2.3
			c-0.9-1.2-1.8-3.2-0.9-6.3l2.4-8.9L3,25.2c-3.7-3-3-6.3-2.7-7.3c0.3-1,1.7-4.1,6.5-4.3l9-0.3l3.1-8.4C20.5,0.3,24,0,25,0
			c1.3,0,4.5,0.5,6.1,4.8l3.2,8.5l9.1,0.3c4.8,0.2,6.2,3.3,6.5,4.3c0.4,1.2,1,4.4-2.6,7.3l-7.1,5.7l2.6,8.9c0.9,3.1,0,5.1-0.9,6.3
			C40.7,47.6,39,48.4,37.1,48.4z"/>
	</g>
	<g>
		<path class="st2" d="M37.1,47.3c-1.2,0-2.4-0.4-3.6-1.2L25,40.5l-7.9,5.5c-1.2,0.9-2.5,1.3-3.7,1.3c-1.5,0-2.9-0.7-3.8-1.8
			c-0.7-1-1.4-2.6-0.7-5.3l2.6-9.7l-7.8-6.2c-3.1-2.4-2.6-5-2.3-6c0.3-1,1.5-3.4,5.4-3.5l9.8-0.3l3.3-9.2c1.3-3.7,4-4.1,5-4.1
			c1.1,0,3.7,0.4,5,4l3.5,9.2l9.9,0.3c3.9,0.1,5.1,2.5,5.4,3.5c0.3,1,0.8,3.6-2.3,6.1l-7.7,6.2l2.8,9.7c0.7,2.6,0,4.3-0.7,5.3
			C40,46.6,38.6,47.3,37.1,47.3z"/>
	</g>
	<path class="st3" d="M43.2,18.7l-4.3-0.1l-8.2-0.3l-1.4-3.6v0l-1.5-4l-1.5-4c-0.7-2-2-2-2.7,0l-1.8,4.9l-2.4,6.7l-3.9,0.1h0
		l-3.9,0.1l-4.7,0.2c-2.1,0.1-2.5,1.2-0.8,2.5l3.4,2.7l3.4,2.7c0,0,0,0,0,0l3,2.4l-2.2,7.9l-1.1,4.2c-0.6,2,0.4,2.7,2.2,1.5l3.5-2.4
		l3.5-2.4v0l3.2-2.2l6.9,4.6l3.7,2.5c1.8,1.2,2.7,0.5,2.2-1.6l-2.4-8.5c0,0,0,0,0,0L34.3,29l3-2.4c0,0,0,0,0,0l3.4-2.7l3.4-2.7
		C45.7,19.9,45.3,18.7,43.2,18.7z"/>
</g>
<g>
	<path class="st4" d="M37.1,44.6c-0.6,0-1.4-0.3-2.1-0.8l-10-6.6L23,38.6l-0.5,0.4l-7,4.8c-0.8,0.5-1.5,0.8-2.2,0.8
		c-0.7,0-1.2-0.3-1.6-0.8c-0.5-0.7-0.6-1.7-0.3-2.9l3.1-11.4l-9.2-7.3c-1.7-1.3-1.6-2.5-1.4-3.1c0.2-0.6,0.8-1.6,3-1.7l4.7-0.2
		l6.9-0.2l4-10.9c0.7-2,1.9-2.3,2.5-2.3c0.6,0,1.8,0.3,2.5,2.3l1.5,4l2.6,6.9l7.3,0.2l4.3,0.1c2.1,0.1,2.8,1.1,3,1.7
		c0.2,0.6,0.3,1.8-1.4,3.1l-9.1,7.3l0.9,3.1v0l2.4,8.3c0.4,1.3,0.3,2.2-0.2,2.9C38.4,44.3,37.8,44.6,37.1,44.6L37.1,44.6z"/>
	<path class="st5" d="M43.2,18.7l-4.3-0.1l-8.2-0.3l-1.4-3.6v0l-1.5-4l-1.5-4c-0.7-2-2-2-2.7,0l-1.8,4.9l-2.4,6.7l-3.9,0.1h0
		l-3.9,0.1l-4.7,0.2c-2.1,0.1-2.5,1.2-0.8,2.5l3.4,2.7l3.4,2.7c0,0,0,0,0,0l3,2.4l-2.2,7.9l-1.1,4.2c-0.6,2,0.4,2.7,2.2,1.5l3.5-2.4
		l3.5-2.4v0l3.2-2.2l6.9,4.6l3.7,2.5c1.8,1.2,2.7,0.5,2.2-1.6l-2.4-8.5c0,0,0,0,0,0L34.3,29l3-2.4c0,0,0,0,0,0l3.4-2.7l3.4-2.7
		C45.7,19.9,45.3,18.7,43.2,18.7z"/>
	<g>
		<polygon class="st6" points="24.9,26.9 7.3,20.2 20.5,19.8 25,7.4 29.7,19.8 42.9,20.2 		"/>
	</g>
</g>
</svg>
