<?xml version="1.0" encoding="utf-8"?>
<!-- Generator: Adobe Illustrator 16.0.0, SVG Export Plug-In . SVG Version: 6.00 Build 0)  -->
<!DOCTYPE svg PUBLIC "-//W3C//DTD SVG 1.1//EN" "http://www.w3.org/Graphics/SVG/1.1/DTD/svg11.dtd">
<svg version="1.1" id="Layer_1" xmlns="http://www.w3.org/2000/svg" xmlns:xlink="http://www.w3.org/1999/xlink" x="0px" y="0px"
	 width="82.417px" height="82.416px" viewBox="0 0 82.417 82.416" enable-background="new 0 0 82.417 82.416" xml:space="preserve">
<g>
	<g>
		<defs>
			<path id="XMLID_1_" d="M70.347,12.07C62.3,4.024,51.755,0,41.208,0c-10.546,0-21.094,4.024-29.14,12.07
				c-16.092,16.092-16.092,42.185,0,58.277c8.046,8.046,18.594,12.07,29.14,12.07c10.546,0,21.091-4.024,29.138-12.07
				C86.44,54.255,86.44,28.162,70.347,12.07z"/>
		</defs>
		<use xlink:href="#XMLID_1_"  overflow="visible" fill="#EF1401"/>
		<clipPath id="XMLID_3_">
			<use xlink:href="#XMLID_1_"  overflow="visible"/>
		</clipPath>
		<g opacity="0.2" clip-path="url(#XMLID_3_)">
			<polygon opacity="0" points="77.974,51.813 65.933,63.854 53.892,51.815 43.573,62.134 55.612,74.175 43.573,86.216 
				53.892,96.534 65.933,84.494 77.974,96.534 88.294,86.216 76.253,74.175 88.294,62.134 			"/>
			<polygon opacity="0.0244" points="77.37,51.009 65.329,63.049 53.288,51.012 42.969,61.329 55.009,73.371 42.969,85.411 
				53.288,95.73 65.329,83.689 77.37,95.73 87.69,85.411 75.649,73.371 87.69,61.329 			"/>
			<polygon opacity="0.0488" points="76.767,50.204 64.726,62.245 52.687,50.207 42.367,60.525 54.407,72.566 42.367,84.607 
				52.687,94.927 64.726,82.886 76.767,94.927 87.087,84.607 75.046,72.566 87.087,60.525 			"/>
			<polygon opacity="0.0732" points="76.163,49.4 64.124,61.441 52.083,49.403 41.764,59.722 53.804,71.763 41.764,83.804 
				52.083,94.122 64.124,82.082 76.163,94.122 86.485,83.804 74.442,71.763 86.485,59.722 			"/>
			<polygon opacity="0.0976" points="75.562,48.596 63.521,60.637 51.479,48.599 41.16,58.918 53.2,70.959 41.16,82.999 
				51.479,93.317 63.521,81.277 75.562,93.317 85.882,82.999 73.841,70.959 85.882,58.918 			"/>
			<polygon opacity="0.122" points="74.958,47.792 62.917,59.833 50.878,47.795 40.558,58.113 52.597,70.155 40.558,82.195 
				50.878,92.514 62.917,80.474 74.958,92.514 85.278,82.195 73.237,70.155 85.278,58.113 			"/>
			<polygon opacity="0.1463" points="74.354,46.988 62.313,59.029 50.274,46.991 39.955,57.31 51.995,69.351 39.955,81.392 
				50.274,91.71 62.313,79.67 74.354,91.71 84.675,81.392 72.634,69.351 84.675,57.31 			"/>
			<polygon opacity="0.1707" points="73.751,46.184 61.71,58.226 49.671,46.187 39.352,56.505 51.392,68.546 39.352,80.588 
				49.671,90.906 61.71,78.866 73.751,90.906 84.071,80.588 72.03,68.546 84.071,56.505 			"/>
			<polygon opacity="0.1951" points="73.149,45.38 61.106,57.421 49.067,45.383 38.748,55.701 50.788,67.742 38.748,79.783 
				49.067,90.102 61.106,78.062 73.149,90.102 83.47,79.783 71.427,67.742 83.47,55.701 			"/>
			<polygon opacity="0.2195" points="72.546,44.576 60.505,56.616 48.464,44.579 38.145,54.897 50.187,66.938 38.145,78.979 
				48.464,89.298 60.505,77.258 72.546,89.298 82.866,78.979 70.825,66.938 82.866,54.897 			"/>
			<polygon opacity="0.2439" points="71.942,43.772 59.901,55.813 47.862,43.775 37.542,54.094 49.583,66.135 37.542,78.175 
				47.862,88.494 59.901,76.453 71.942,88.494 82.263,78.175 70.222,66.135 82.263,54.094 			"/>
			<polygon opacity="0.2683" points="71.339,42.968 59.298,55.009 47.259,42.971 36.939,53.289 48.979,65.33 36.939,77.371 
				47.259,87.689 59.298,75.649 71.339,87.689 81.659,77.371 69.618,65.33 81.659,53.289 			"/>
			<polygon opacity="0.2927" points="70.735,42.164 58.694,54.204 46.655,42.166 36.336,52.485 48.376,64.525 36.336,76.567 
				46.655,86.886 58.694,74.845 70.735,86.886 81.056,76.567 69.015,64.525 81.056,52.485 			"/>
			<polygon opacity="0.3171" points="70.134,41.36 58.093,53.4 46.052,41.363 35.733,51.681 47.772,63.722 35.733,75.763 
				46.052,86.082 58.093,74.041 70.134,86.082 80.454,75.763 68.413,63.722 80.454,51.681 			"/>
			<polygon opacity="0.3415" points="69.53,40.556 57.489,52.597 45.45,40.559 35.13,50.877 47.171,62.918 35.13,74.959 
				45.45,85.278 57.489,73.237 69.53,85.278 79.851,74.959 67.81,62.918 79.851,50.877 			"/>
			<polygon opacity="0.3659" points="68.927,39.752 56.886,51.792 44.846,39.754 34.527,50.073 46.567,62.114 34.527,74.155 
				44.846,84.474 56.886,72.434 68.927,84.474 79.247,74.155 67.206,62.114 79.247,50.073 			"/>
			<polygon opacity="0.3902" points="68.323,38.947 56.282,50.988 44.243,38.95 33.923,49.269 45.964,61.31 33.923,73.351 
				44.243,83.669 56.282,71.629 68.323,83.669 78.644,73.351 66.603,61.31 78.644,49.269 			"/>
			<polygon opacity="0.4146" points="67.722,38.144 55.681,50.185 43.64,38.146 33.321,48.465 45.361,60.506 33.321,72.547 
				43.64,82.865 55.681,70.825 67.722,82.865 78.042,72.547 66.001,60.506 78.042,48.465 			"/>
			<polygon opacity="0.439" points="67.118,37.34 55.077,49.381 43.038,37.343 32.717,47.661 44.758,59.702 32.717,71.743 
				43.038,82.062 55.077,70.021 67.118,82.062 77.438,71.743 65.397,59.702 77.438,47.661 			"/>
			<polygon opacity="0.4634" points="66.515,36.535 54.474,48.576 42.434,36.538 32.115,46.856 44.155,58.897 32.115,70.938 
				42.434,81.258 54.474,69.217 66.515,81.258 76.835,70.938 64.794,58.897 76.835,46.856 			"/>
			<polygon opacity="0.4878" points="65.911,35.731 53.87,47.771 41.831,35.734 31.511,46.052 43.552,58.093 31.511,70.134 
				41.831,80.453 53.87,68.413 65.911,80.453 76.231,70.134 64.19,58.093 76.231,46.052 			"/>
			<polygon opacity="0.5122" points="65.31,34.928 53.269,46.968 41.228,34.93 30.909,45.249 42.949,57.29 30.909,69.331 
				41.228,79.649 53.269,67.608 65.31,79.649 75.63,69.331 63.589,57.29 75.63,45.249 			"/>
			<polygon opacity="0.5366" points="64.706,34.123 52.665,46.164 40.625,34.126 30.305,44.444 42.346,56.485 30.305,68.526 
				40.625,78.845 52.665,66.805 64.706,78.845 75.026,68.526 62.985,56.485 75.026,44.444 			"/>
			<polygon opacity="0.561" points="64.103,33.319 52.062,45.36 40.022,33.322 29.703,43.641 41.743,55.681 29.703,67.723 
				40.022,78.041 52.062,66.001 64.103,78.041 74.423,67.723 62.382,55.681 74.423,43.641 			"/>
			<polygon opacity="0.5854" points="63.499,32.515 51.458,44.556 39.419,32.518 29.099,42.836 41.14,54.878 29.099,66.919 
				39.419,77.237 51.458,65.196 63.499,77.237 73.819,66.919 61.778,54.878 73.819,42.836 			"/>
			<polygon opacity="0.6098" points="62.897,31.711 50.854,43.752 38.816,31.714 28.496,42.032 40.537,54.073 28.496,66.114 
				38.816,76.433 50.854,64.393 62.897,76.433 73.216,66.114 61.177,54.073 73.216,42.032 			"/>
			<polygon opacity="0.6341" points="62.294,30.907 50.253,42.948 38.213,30.91 27.893,41.229 39.934,53.27 27.893,65.311 
				38.213,75.629 50.253,63.589 62.294,75.629 72.614,65.311 60.573,53.27 72.614,41.229 			"/>
			<polygon opacity="0.6585" points="61.69,30.103 49.649,42.144 37.61,30.105 27.29,40.424 39.331,52.466 27.29,64.506 
				37.61,74.825 49.649,62.784 61.69,74.825 72.011,64.506 59.97,52.466 72.011,40.424 			"/>
			<polygon opacity="0.6829" points="61.087,29.299 49.046,41.34 37.007,29.302 26.687,39.62 38.728,51.661 26.687,63.702 
				37.007,74.021 49.046,61.98 61.087,74.021 71.407,63.702 59.366,51.661 71.407,39.62 			"/>
			<polygon opacity="0.7073" points="60.483,28.495 48.442,40.536 36.404,28.498 26.084,38.816 38.125,50.857 26.084,62.897 
				36.404,73.217 48.442,61.177 60.483,73.217 70.804,62.897 58.763,50.857 70.804,38.816 			"/>
			<polygon opacity="0.7317" points="59.882,27.691 47.841,39.731 35.801,27.693 25.481,38.012 37.522,50.054 25.481,62.094 
				35.801,72.413 47.841,60.372 59.882,72.413 70.202,62.094 58.161,50.054 70.202,38.012 			"/>
			<polygon opacity="0.7561" points="59.278,26.887 47.237,38.927 35.198,26.889 24.878,37.208 36.918,49.249 24.878,61.29 
				35.198,71.608 47.237,59.568 59.278,71.608 69.599,61.29 57.558,49.249 69.599,37.208 			"/>
			<polygon opacity="0.7805" points="58.675,26.083 46.634,38.123 34.595,26.085 24.275,36.404 36.316,48.445 24.275,60.485 
				34.595,70.805 46.634,58.764 58.675,70.805 68.995,60.485 56.954,48.445 68.995,36.404 			"/>
			<polygon opacity="0.8049" points="58.071,25.279 46.031,37.319 33.992,25.281 23.671,35.6 35.712,47.641 23.671,59.682 
				33.992,70.001 46.031,57.96 58.071,70.001 68.392,59.682 56.351,47.641 68.392,35.6 			"/>
			<polygon opacity="0.8293" points="57.47,24.475 45.428,36.515 33.389,24.477 23.068,34.796 35.109,46.837 23.068,58.878 
				33.389,69.197 45.428,57.156 57.47,69.197 67.79,58.878 55.747,46.837 67.79,34.796 			"/>
			<polygon opacity="0.8537" points="56.866,23.671 44.825,35.711 32.786,23.673 22.465,33.992 34.506,46.033 22.465,58.073 
				32.786,68.393 44.825,56.352 56.866,68.393 67.187,58.073 55.146,46.033 67.187,33.992 			"/>
			<polygon opacity="0.878" points="56.263,22.866 44.222,34.907 32.183,22.869 21.862,33.188 33.903,45.229 21.862,57.27 
				32.183,67.589 44.222,55.548 56.263,67.589 66.583,57.27 54.542,45.229 66.583,33.188 			"/>
			<polygon opacity="0.9024" points="55.659,22.063 43.619,34.103 31.58,22.065 21.26,32.384 33.3,44.425 21.26,56.466 
				31.58,66.784 43.619,54.743 55.659,66.784 65.979,56.466 53.938,44.425 65.979,32.384 			"/>
			<polygon opacity="0.9268" points="55.058,21.258 43.016,33.299 30.977,21.261 20.657,31.58 32.697,43.621 20.657,55.661 
				30.977,65.98 43.016,53.939 55.058,65.98 65.378,55.661 53.335,43.621 65.378,31.58 			"/>
			<polygon opacity="0.9512" points="54.454,20.455 42.413,32.495 30.374,20.457 20.053,30.776 32.094,42.817 20.053,54.857 
				30.374,65.177 42.413,53.136 54.454,65.177 64.774,54.857 52.733,42.817 64.774,30.776 			"/>
			<polygon opacity="0.9756" points="53.851,19.65 41.81,31.691 29.771,19.652 19.45,29.972 31.491,42.012 19.45,54.053 
				29.771,64.373 41.81,52.331 53.851,64.373 64.171,54.053 52.13,42.012 64.171,29.972 			"/>
			<polygon points="53.247,18.846 41.207,30.887 29.167,18.849 18.847,29.167 30.888,41.208 18.847,53.249 29.167,63.568 
				41.207,51.527 53.247,63.568 63.567,53.249 51.526,41.208 63.567,29.167 			"/>
		</g>
	</g>
	<polygon fill="#FFFFFF" points="53.247,18.846 41.207,30.887 29.167,18.849 18.847,29.167 30.888,41.208 18.847,53.249 
		29.167,63.568 41.207,51.527 53.247,63.568 63.567,53.249 51.526,41.208 63.567,29.167 	"/>
</g>
</svg>
