<?xml version="1.0" encoding="utf-8"?>
<!-- Generator: Adobe Illustrator 19.2.0, SVG Export Plug-In . SVG Version: 6.00 Build 0)  -->
<svg version="1.1" id="Layer_1" xmlns="http://www.w3.org/2000/svg" xmlns:xlink="http://www.w3.org/1999/xlink" x="0px" y="0px"
	 viewBox="0 0 539.6 61.6" style="enable-background:new 0 0 539.6 61.6;" xml:space="preserve">
<style type="text/css">
	.st0{fill:#97896F;}
	.st1{fill:#EBCC8E;}
	.st2{fill:#E5C37D;}
	.st3{fill:url(#SVGID_1_);}
	.st4{fill:#F7EBD2;}
	.st5{fill:url(#SVGID_2_);}
	.st6{fill:url(#SVGID_3_);}
	.st7{fill:#99845C;}
	.st8{opacity:0.2;}
	.st9{fill:#FFFFFF;}
	.st10{opacity:0.1;fill:#42210B;}
</style>
<g>
	<path class="st0" d="M2.4,10.6C2,10.7-2.4,34.2,1.8,47.5c3.8,13.4,11.6,12,23.1,13.3c11.6,1.8,503.5,0.8,508.5-4.3
		c4.5-4.9,8.7-15,4.2-42.4l0,0C537.4,13.9,28.7,5.6,2.4,10.6z"/>
	<path class="st1" d="M537.6,47.5c-0.6,5.5-6.6,10.7-12.8,11.3c-13.9,1.1-496.2,1.1-510.1,0C8.4,58.2,2.4,53,1.8,47.5
		C0.6,35.8,0.7,24,2,12.3C2.7,6.7,8.7,1.5,14.9,0.9c13.8-1.2,495.9-1.2,509.7,0c6.2,0.6,12.1,5.8,12.8,11.4
		C538.8,24,538.8,35.8,537.6,47.5z"/>
	<path class="st2" d="M524.6,0.9c-13.8-1.2-495.9-1.2-509.7,0C8.7,1.5,2.7,6.7,2,12.3C0.7,24,0.6,35.8,1.8,47.5
		C2.4,53,8.4,58.2,14.7,58.8c13.9,1.1,496.2,1.1,510.1,0c6.3-0.5,12.2-5.8,12.8-11.3c1.2-11.8,1.2-23.5-0.2-35.3
		C536.7,6.7,530.8,1.5,524.6,0.9z M535.2,23.6c0,0.2,0,0.4,0,0.7c-0.5,3.8-0.2,6.7-2,10.5c-0.8,2-2.2,3.9-4.1,5.3
		c-1.8,1.5-4.3,2-6,3.9c-1.3,1.4-2,3.2-2.2,4.9c-0.4,2.6-0.5,2.8-3.6,3.7c-3.9,1.4-8-2.2-12.2-0.9c-2.8,0.8-4.7,1.7-7.6,1.5
		C494.6,53,21.7,52.6,19,51.3c-4.6-2-5.3-0.8-7-4.4c-1.6-3.6-5.4-6.3-6.3-9.9c-0.9-2.8-0.8-5.5-2-8.2c-1.4-3.2-1.6-5-0.7-8.3
		c0.8-3.1,0.3-6.4,2.2-9.5c2.3-3.9,5.9-3.9,9.6-5.4c4.2-1.8,6.1-4.3,10.9-4.2c3.2,0.2,475,0.1,478.4,0.4c3.7,0.3,7.3,0.9,11,1.2
		c3.9,0.3,7.5,0.8,10.7,3.5c3.1,2.4,8.9,5.5,9.8,8.7C536.3,18.1,535.2,20.8,535.2,23.6z"/>
	<linearGradient id="SVGID_1_" gradientUnits="userSpaceOnUse" x1="510.6413" y1="35.2451" x2="536.9014" y2="50.4063">
		<stop  offset="0" style="stop-color:#766647"/>
		<stop  offset="1" style="stop-color:#EBCC8E"/>
	</linearGradient>
	<path class="st3" d="M537.6,47.5c1-9.6,1.1-19.3,0.4-28.9c-0.7,13.6-3.3,24.3-10.6,31.8c-7.5,7.8-30.8,9.4-30.8,9.1
		c9.4,0.3,18.8,0,28.2-0.7C531.1,58.3,537,53.1,537.6,47.5z"/>
	<path class="st4" d="M502.1,59.1c0,0.2,16.8-2,23.5-8.3c4.7-4.4,8.7-12.9,10.5-19.3c0.7-2.5,1.5-6.5,1.5-6.5
		c0.1,0.1,0.2,12.9-7.9,23.4C521.9,58.9,502.1,59.4,502.1,59.1z"/>
	<linearGradient id="SVGID_2_" gradientUnits="userSpaceOnUse" x1="-6.82" y1="26.3544" x2="32.7954" y2="49.2264">
		<stop  offset="0" style="stop-color:#766647"/>
		<stop  offset="1" style="stop-color:#EBCC8E"/>
	</linearGradient>
	<path class="st5" d="M2.5,25c-0.2-5-0.3-9.9,0-14.8v0c-0.2,0.7-0.4,1.4-0.5,2.1C0.7,24,0.6,35.8,1.8,47.5
		C2.4,53,8.4,58.2,14.7,58.8c4.1,0.3,8.1,0.6,12.2,0.7c0,0.1-10.4-1.4-17.9-7.9C1,45.2,2.2,25.1,2.5,25z"/>
	<path class="st4" d="M26,59.4c0,0.1-12-3.7-16.3-8.1c-4.3-4.4-6.8-18.7-6.7-18.6c-0.2-2.6-0.4-5.1-0.5-7.6c0,0-1.9,10.1,1.6,19.1
		c2.8,7.5,5.3,9.2,10.4,11.5C19.6,57.9,21.6,58.5,26,59.4z"/>
	<linearGradient id="SVGID_3_" gradientUnits="userSpaceOnUse" x1="240.6576" y1="95.0982" x2="318.1353" y2="-87.4278">
		<stop  offset="0" style="stop-color:#766647"/>
		<stop  offset="1" style="stop-color:#EBCC8E"/>
	</linearGradient>
	<path class="st6" d="M524.6,0.9C511.9-0.2,30.8-0.3,18.1,0.6c11.3-0.8,494.3,0.9,500.7,1.9c6.3,1,12.2,4.6,14.2,5.7
		c2.1,1.2,4.6,5.9,4.6,5.8c-0.1-0.6-0.1-1.3-0.2-1.9C536.7,6.7,530.8,1.5,524.6,0.9z"/>
	<path class="st4" d="M534.1,7.9c-2.3-1.9-13-5.8-13-5.8c0,0.2-472.1-1.5-493.5-1.6c0,0,0,0,0,0c9,0.2,486.5,1.4,491.2,2.1
		c6.3,1,12.2,4.6,14.2,5.7c2.1,1.2,4.6,5.9,4.6,5.8C537.6,14.2,536.4,9.7,534.1,7.9z"/>
	<path class="st2" d="M14,16.6c-0.1,0-3.4,4.2,2.9,3.9c6.1-0.4,7.9,1.9,9.9-0.3c2-2.2-1.2-2.8-1.6-4.9C24.6,13.2,22.2,10.9,14,16.6z
		"/>
	<path class="st4" d="M521.4,33.9c-1.8-1.1-3.6-2.2-5.6-3.4c1.9,0,3.8,0.1,5.7,0.1c0,0,0.7-2.6,3.3,0
		C527.2,33.3,523.8,37,521.4,33.9z"/>
	<path class="st7" d="M523.2,35.1c-0.8,0-1.7,0-2.5,0c0,0-0.5-1.6-4.9-4.5C515.8,30.5,521.2,32.8,523.2,35.1z"/>
	<path class="st2" d="M516.8,21.6c0,0-4.2,0.7-3.9,3.3c0.3,2.6,4.7,2.4,6.9,1.2C521.9,24.8,523.4,21.4,516.8,21.6z"/>
	<path class="st2" d="M512.9,37.5c0,0,3,4.1-1.2,6.3c-4.2,2.3-7.8,3.9-7.8,3.9c3.3-1.1,6.6-2.3,10-3.5
		C513.9,44.2,519.2,39.2,512.9,37.5z"/>
	<path class="st2" d="M499,29.9c0,0,3.5-6,6.8-8.1c3.3-2.1,9-3.6,12.1-8.2c3.1-4.5,0.9-9.7-9.3-11.8c4.4,0.4,8.9,0.8,13.4,1.4
		c-0.1,0.1,5.2,7.1-2.8,12.3c-8.1,5.3-15.8,11.4-15.7,11.3C501.9,27.9,500.4,28.9,499,29.9z"/>
	<g>
		<path class="st4" d="M15.5,30.8c0,0-1.9,0.9-0.4,3.1c1.5,2.2,5.4,2.3,6.7,0.8L15.5,30.8z"/>
		<path class="st2" d="M22,34.3c-0.6,1.2-2.8,1.5-4.7,0.7c-1.9-0.8-3-2.5-2.3-3.7c0.6-1.2,2.8-1.5,4.7-0.7
			C21.6,31.5,22.7,33.1,22,34.3z"/>
	</g>
	<g class="st8">
		<path class="st9" d="M509.8,5.1C502.1,4.4,21.5,5.2,16.5,7.2c-8.7,3-9,9.3-8.6,16.5c0.4,5.9,3.3,11,2.3,17
			c-0.4,4.6-2.1,6.6,2.5,10.1c2.9,2.3,6.6,3.4,10,4.1c13.6,2.8,503.1-0.3,507.2-14.7c3.1-10.4,5.8-28.9-9.8-33.8
			C517,5.3,512.8,5.2,509.8,5.1z"/>
	</g>
	<path class="st4" d="M520.1,2.7c-0.1,0.1,7.2,6.4-1.1,12.9c-8.4,6.6-19.8,9.9-22.9,19.6c0,0,6.5-9.5,13.3-12.4
		c6.8-3,16-9.8,14.7-14.4c-1.2-4.7-3-5.9-3-5.9C520.8,2.5,520.5,2.6,520.1,2.7z"/>
	<path class="st10" d="M24.9,60.8c11.6,1.8,503.5,0.8,508.5-4.3c3.8-3.9,6.9-11.4,5.9-28.6c-4,4.5-5.9,8.9-14.8,10.2
		c-7.9,1.2-13.1,6.3-20.2,8.1c-7.8,1.7-483.6-1.3-490.6-4c-4.1-1.8-7.1-2.9-9.4-6.4C2.1,32.9,2,32.2,0,31
		c-0.1,5.8,0.5,11.7,1.8,16.5C2,49,2.5,50.4,3.3,51.7C7.6,60.7,14.7,59.7,24.9,60.8z"/>
</g>
</svg>
