<?xml version="1.0" encoding="utf-8"?>
<!-- Generator: Adobe Illustrator 19.2.0, SVG Export Plug-In . SVG Version: 6.00 Build 0)  -->
<svg version="1.1" id="Layer_1" xmlns="http://www.w3.org/2000/svg" xmlns:xlink="http://www.w3.org/1999/xlink" x="0px" y="0px"
	 viewBox="0 0 46.2 48.9" style="enable-background:new 0 0 46.2 48.9;" xml:space="preserve">
<style type="text/css">
	.st0{opacity:0.15;}
	.st1{fill:#56B731;}
	.st2{fill:#FFBF1C;}
	.st3{fill:#FFFFFF;}
	.st4{fill:#E6E6E6;}
	.st5{fill:#CECECE;}
	.st6{fill:url(#SVGID_1_);}
	.st7{fill:url(#SVGID_2_);}
	.st8{opacity:0.5;}
</style>
<g>
	<g>
		<circle class="st0" cx="23.1" cy="25.8" r="23.1"/>
		<circle class="st1" cx="23.1" cy="23.1" r="23.1"/>
		<circle class="st2" cx="23.1" cy="23.1" r="17.5"/>
		<circle class="st3" cx="23.1" cy="23.1" r="21.2"/>
		<path class="st4" d="M44.3,23.1c0,11.7-9.5,21.2-21.2,21.2c-11.7,0-21.2-9.5-21.2-21.2C11.5,23.1,34.6,23.1,44.3,23.1z"/>
		<circle class="st5" cx="23.1" cy="23.1" r="17.5"/>
		<linearGradient id="SVGID_1_" gradientUnits="userSpaceOnUse" x1="23.1105" y1="6.7631" x2="23.1105" y2="39.458">
			<stop  offset="0" style="stop-color:#FFFFFF"/>
			<stop  offset="1" style="stop-color:#C9CDDB"/>
		</linearGradient>
		<circle class="st6" cx="23.1" cy="23.1" r="16.3"/>
		<linearGradient id="SVGID_2_" gradientUnits="userSpaceOnUse" x1="23.1921" y1="21.6904" x2="24.5397" y2="2.5356">
			<stop  offset="0" style="stop-color:#FFFFFF;stop-opacity:0"/>
			<stop  offset="8.962709e-002" style="stop-color:#FFFFFF;stop-opacity:8.962709e-002"/>
			<stop  offset="1" style="stop-color:#FFFFFF"/>
		</linearGradient>
		<path class="st7" d="M37.7,23.1c-7.3,0-22.6,0-29.2,0c0-8.1,6.5-14.6,14.6-14.6C31.2,8.5,37.7,15.1,37.7,23.1z"/>
	</g>
	<g>
		<g class="st8">
			<path class="st3" d="M21.2,34.6c-5.5-0.3-10-5.3-10-11.2c0-6.2,5.1-11.3,11.3-11.3c6.2,0,11.3,5.1,11.3,11.3c0,0.6,0,1.2-0.1,1.8
				c1.4,0.9,1.9,1.6,2,2.5c0,0.6-0.3,1.2-0.8,1.8c-1.6,1.6-6.7,4.1-8.5,4.1c0,0,0,0,0,0c-0.3,0-0.6-0.1-0.9-0.2
				c-0.9-0.4-1.5-2.1-1.9-3.7c0,0.4,0,0.9,0,1.3c0,1.3,0,3.7-2.2,3.7C21.3,34.6,21.2,34.6,21.2,34.6z M22.4,19.7
				c-2,0-3.7,1.7-3.7,3.7c0,1.8,1.5,3.2,2.9,3.6c0.8,0.3,1.3,0.8,1.5,1.4c-0.3-1.4-0.4-2.6-0.4-2.8c-0.2-2.2,0-3.2,0.8-3.8
				c0.3-0.2,0.7-0.4,1.2-0.4c0.1,0,0.4,0,0.9,0.1C25,20.5,23.8,19.7,22.4,19.7z"/>
		</g>
		<g>
			<path class="st1" d="M31.9,25.9c0.2-0.8,0.3-1.6,0.3-2.5c0-5.4-4.4-9.8-9.8-9.8c-5.4,0-9.8,4.4-9.8,9.8c0,5,3.9,9.5,8.6,9.7
				c0.5,0,0.8-0.2,0.8-2.2c0-2.1-0.2-2.3-0.8-2.5c-2.1-0.7-4-2.6-4-5c0-2.8,2.3-5.2,5.2-5.2c2.8,0,5.2,2.3,5.2,5.2
				c0,0.1,0,0.2,0,0.3c-1.5-0.6-2.8-1-3.1-0.7c-0.9,0.7,0.7,8.6,1.6,9.1c0.9,0.4,8.1-3,8.1-4.4C34.1,27.3,33.2,26.6,31.9,25.9z"/>
		</g>
		<g>
			<g>
				<path class="st1" d="M31.9,25.9c0.2-0.8,0.3-1.6,0.3-2.5c0-5.4-4.4-9.8-9.8-9.8c-5.4,0-9.8,4.4-9.8,9.8c0,5,3.9,9.5,8.6,9.7
					c0.5,0,0.8-0.2,0.8-2.2c0-2.1-0.2-2.3-0.8-2.5c-2.1-0.7-4-2.6-4-5c0-2.8,2.3-5.2,5.2-5.2c2.8,0,5.2,2.3,5.2,5.2
					c0,0.1,0,0.2,0,0.3c-1.5-0.6-2.8-1-3.1-0.7c-0.9,0.7,0.7,8.6,1.6,9.1c0.9,0.4,8.1-3,8.1-4.4C34.1,27.3,33.2,26.6,31.9,25.9z"/>
			</g>
		</g>
	</g>
</g>
</svg>
