<?xml version="1.0" encoding="utf-8"?>
<!-- Generator: Adobe Illustrator 16.0.0, SVG Export Plug-In . SVG Version: 6.00 Build 0)  -->
<!DOCTYPE svg PUBLIC "-//W3C//DTD SVG 1.1//EN" "http://www.w3.org/Graphics/SVG/1.1/DTD/svg11.dtd">
<svg version="1.1" id="button_x5F_big" xmlns="http://www.w3.org/2000/svg" xmlns:xlink="http://www.w3.org/1999/xlink" x="0px"
	 y="0px" width="47.143px" height="52.435px" viewBox="0 0 47.143 52.435" enable-background="new 0 0 47.143 52.435"
	 xml:space="preserve">
<g id="btn_x5F_big_x5F_menu_x5F_reload_x5F_brown">
</g>
<g>
	<g opacity="0.2">
		<path d="M42.826,7.139l-2.802,2.982C19.902-7.115-8.616,15.143,2.485,38.557c9.491,20.019,27.841,14.187,35.955,8.236
			c1.123-0.824,1.667-2.194,0.958-3.394l-0.918-1.556c-1.169-1.978-3.723-2.576-5.685-1.381c-3.481,2.121-9.192,4.813-14.018,2.289
			C-1.093,32.359,16.713,2.691,33.39,17.141l-1.741,1.687c-1.162,1.126-0.729,3.175,0.788,3.64c2.586,0.791,6.429,1.105,9.494,1.227
			c2.782,0.109,5.105-2.205,5.183-5.139c0.098-3.713-0.004-8.444-0.97-10.763C45.563,6.399,43.842,6.059,42.826,7.139z"/>
	</g>
	<g>
		<path fill="#FFFFFF" d="M42.826,3.139l-2.802,2.982C19.902-11.115-8.616,11.143,2.485,34.557
			c9.491,20.019,27.841,14.187,35.955,8.236c1.123-0.824,1.667-2.194,0.958-3.394l-0.918-1.556
			c-1.169-1.978-3.723-2.576-5.685-1.381c-3.481,2.121-9.192,4.813-14.018,2.289C-1.093,28.359,16.713-1.309,33.39,13.141
			l-1.741,1.687c-1.162,1.126-0.729,3.175,0.788,3.64c2.586,0.791,6.429,1.105,9.494,1.227c2.782,0.109,5.105-2.205,5.183-5.139
			c0.098-3.713-0.004-8.444-0.97-10.763C45.563,2.399,43.842,2.059,42.826,3.139z"/>
	</g>
</g>
</svg>
