<?xml version="1.0" encoding="utf-8"?>
<!-- Generator: Adobe Illustrator 21.0.0, SVG Export Plug-In . SVG Version: 6.00 Build 0)  -->
<svg version="1.1" id="button_x5F_big" xmlns="http://www.w3.org/2000/svg" xmlns:xlink="http://www.w3.org/1999/xlink" x="0px"
	 y="0px" viewBox="0 0 61.053 58.434" enable-background="new 0 0 61.053 58.434" xml:space="preserve">
<g id="btn_x5F_big_x5F_sound_x5F_music_x5F_brown">
	<g>
		<g>
			<g>
				<g opacity="0.2">
					<path d="M52.143,40.748L52.143,40.748L46.136,5.176L11.962,22.455l6.039,22.959c-0.973-0.361-2.045-0.564-3.174-0.564
						c-4.397,0-7.96,3.041-7.96,6.792c0,3.751,3.563,6.792,7.96,6.792s7.96-3.041,7.96-6.792c0-0.184-0.016-0.363-0.032-0.543h0.001
						l-0.002-0.014c-0.026-0.284-0.069-0.563-0.136-0.836l-3.228-19.846l23.03-12.193c0,0,1.818,9.281,3.259,16.569
						c-0.472-0.075-0.957-0.119-1.454-0.119c-4.396,0-7.96,3.041-7.96,6.793c0,3.751,3.563,6.792,7.96,6.792s7.96-3.041,7.96-6.792
						C52.186,41.215,52.171,40.979,52.143,40.748z"/>
				</g>
				<g>
					<path fill="#FFFFFF" d="M52.143,36.748L52.143,36.748L46.136,1.176L11.962,18.455l6.039,22.959
						c-0.973-0.361-2.045-0.564-3.174-0.564c-4.397,0-7.96,3.041-7.96,6.792c0,3.751,3.563,6.792,7.96,6.792s7.96-3.041,7.96-6.792
						c0-0.184-0.016-0.363-0.032-0.543h0.001l-0.002-0.014c-0.026-0.284-0.069-0.563-0.136-0.836l-3.228-19.846l23.03-12.193
						c0,0,1.818,9.281,3.259,16.569c-0.472-0.075-0.957-0.119-1.454-0.119c-4.396,0-7.96,3.041-7.96,6.793
						c0,3.751,3.563,6.792,7.96,6.792s7.96-3.041,7.96-6.792C52.186,37.215,52.171,36.979,52.143,36.748z"/>
				</g>
			</g>
		</g>
		<g>
			<g opacity="0.31">
				
					<line fill="none" stroke="#000000" stroke-width="3" stroke-linecap="round" stroke-linejoin="round" stroke-miterlimit="10" x1="3.5" y1="44.762" x2="59.553" y2="10.847"/>
			</g>
			<g>
				
					<line fill="none" stroke="#FFFFFF" stroke-width="3" stroke-linecap="round" stroke-linejoin="round" stroke-miterlimit="10" x1="1.5" y1="44.762" x2="57.553" y2="10.847"/>
			</g>
		</g>
	</g>
</g>
</svg>
