<?xml version="1.0" encoding="utf-8"?>
<!-- Generator: Adobe Illustrator 16.0.0, SVG Export Plug-In . SVG Version: 6.00 Build 0)  -->
<!DOCTYPE svg PUBLIC "-//W3C//DTD SVG 1.1//EN" "http://www.w3.org/Graphics/SVG/1.1/DTD/svg11.dtd">
<svg version="1.1" id="Layer_1" xmlns="http://www.w3.org/2000/svg" xmlns:xlink="http://www.w3.org/1999/xlink" x="0px" y="0px"
	 width="515.267px" height="47.127px" viewBox="0 0 515.267 47.127" enable-background="new 0 0 515.267 47.127"
	 xml:space="preserve">
<g>
	<path fill="#3C2A20" d="M3.252,26.666c-1.055,0-1.863-0.791-1.863-1.934c0-1.125,0.809-1.916,1.881-1.916
		c1.107,0,1.898,0.791,1.898,1.916c0,1.143-0.791,1.934-1.898,1.934H3.252z"/>
	<path fill="#3C2A20" d="M30.621,26.367h-0.246c-1.688,0-2.971-0.404-3.727-1.424h-0.053c-3.006,1.318-6.328,2.197-9.545,2.197
		c-2.936,0-4.834-0.615-6.188-1.477c-1.564-1.02-2.531-2.584-2.531-4.869c0-1.494,0.316-3.041,1.055-4.658l1.072,0.369
		c-0.246,0.773-0.404,1.477-0.404,2.109c0,2.672,2.232,4.869,7.84,4.869c2.426,0,5.607-0.527,7.822-1.389l0.826-2.285
		c0.51-0.387,0.984-0.703,1.389-0.949l0.176,0.141c-0.246,0.809-0.422,1.494-0.422,1.986c0,1.266,1.23,1.863,2.689,1.863h0.246
		V26.367z M16.049,11.039c0.879,0.738,1.705,1.494,2.479,2.268c-0.527,0.756-1.107,1.477-1.74,2.197
		c-0.844-0.826-1.705-1.582-2.549-2.268L16.049,11.039z M20.303,10.811c0.879,0.738,1.705,1.494,2.479,2.268
		c-0.527,0.756-1.107,1.477-1.74,2.197c-0.844-0.826-1.705-1.582-2.549-2.268L20.303,10.811z"/>
	<path fill="#3C2A20" d="M31.57,22.852c3.797,0,6.293-0.088,6.293-1.125c0-0.088-0.018-0.176-0.053-0.246
		c-0.615,0.07-1.266,0.088-1.916,0.088c-2.988,0-4.623-1.055-4.623-3.357c0-1.371,0.492-2.584,1.389-3.551
		c0.844-0.914,1.793-1.494,2.795-1.494c2.391,0,3.99,4.307,3.99,8.35c0,4.57-2.848,4.852-8.578,4.852h-0.246
		c-0.844,0-1.23-0.914-1.23-1.758s0.387-1.758,1.23-1.758H31.57z M32.555,8.262c0.809,0.721,1.477,1.459,2.004,2.18
		c-0.457,0.668-1.037,1.266-1.723,1.793c-0.668-0.721-1.354-1.406-2.057-2.092L32.555,8.262z M34.664,15.926
		c-1.195,0-1.898,0.65-1.898,1.178c0,0.984,1.846,1.67,4.605,1.74C36.721,16.998,35.824,15.926,34.664,15.926z M36.264,8.104
		c0.809,0.721,1.477,1.459,2.004,2.18c-0.457,0.668-1.037,1.266-1.723,1.793c-0.668-0.721-1.354-1.406-2.057-2.092L36.264,8.104z"/>
	<path fill="#3C2A20" d="M52.383,22.852v3.516h-1.318c-0.738,3.182-2.953,6.416-5.695,6.416c-1.582,0-3.305-0.686-5.168-1.951
		l0.404-0.932c0.65,0.281,1.354,0.492,2.145,0.492c1.512,0,2.988-0.721,4.395-1.811c0.967-0.738,1.705-1.512,2.039-2.215h-0.492
		c-3.357,0-5.59-1.072-5.59-4.236c0-1.283,0.439-2.443,1.336-3.498c0.844-1.002,1.793-1.564,2.813-1.564
		c1.969,0,3.234,2.127,3.938,5.783H52.383z M46.406,19.934c-1.125,0-1.775,0.844-1.775,1.283c0,1.02,1.793,1.688,4.096,1.688
		c0.246,0,0.475-0.018,0.686-0.053C48.762,21.094,47.76,19.934,46.406,19.934z"/>
	<path fill="#3C2A20" d="M56.9,8.42c0,1.16,0.668,2.584,1.934,4.693l-1.564,1.195c0.07,1.354,0.105,3.006,0.105,4.729
		c0,1.564-0.264,2.76-0.65,3.885c-0.229,0.668-0.51,1.301-0.879,1.863c-0.686,0.932-1.635,1.582-3.217,1.582h-0.246
		c-0.844,0-1.23-0.914-1.23-1.758s0.387-1.758,1.23-1.758h0.246c1.125,0,1.986-0.211,2.496-0.721
		c0.299-0.299,0.299-0.791,0.299-1.74c0-4.377-0.58-8.279-0.58-9.158c0-0.65,0.141-1.213,0.475-1.635s0.756-0.861,1.371-1.318
		L56.9,8.42z"/>
	<path fill="#3C2A20" d="M61.277,26.578c0.176-1.248,0.229-2.549,0.229-4.236c0-3.797-0.176-7.576-0.598-11.426
		c0.703-0.844,1.371-1.582,2.039-2.232l0.299,0.158c0.352,3.797,0.404,7.348,0.404,10.758c0,2.76-0.158,4.605-0.545,5.203
		c-0.369,0.668-0.844,1.354-1.441,2.057L61.277,26.578z"/>
	<path fill="#3C2A20" d="M90.176,22.852v3.516h-0.949c0.053,0.281,0.07,0.563,0.07,0.861c0,0.65-0.352,1.529-0.914,2.549
		c-2.479,2.18-5.66,3.217-8.121,3.217c-4.043,0-6.557-2.531-6.557-6.785c0-2.127,0.738-4.395,1.951-6.75l0.984,0.475
		c-0.738,1.705-1.09,3.059-1.09,4.096c0,3.586,2.197,5.326,5.291,5.326c2.197,0,4.412-0.563,6.645-2.109
		c-0.668-0.756-2.514-1.09-5.115-1.195l-0.246-0.316l1.652-2.883H90.176z M78.451,34.207c0.861,0.65,1.67,1.371,2.426,2.197
		c-0.545,0.861-1.125,1.547-1.67,2.127c-0.826-0.791-1.635-1.512-2.479-2.162L78.451,34.207z M82.6,33.926
		c0.861,0.65,1.67,1.371,2.426,2.197c-0.545,0.861-1.125,1.547-1.67,2.127c-0.826-0.791-1.635-1.512-2.479-2.162L82.6,33.926z"/>
	<path fill="#3C2A20" d="M101.285,22.852v3.516h-0.246c-0.229,0-0.615-0.018-1.213-0.088c0.229,0.598,0.281,1.178,0.281,1.775
		c0,1.6-1.283,4.113-3.727,4.113c-2.18,0-4.781-2.039-4.781-5.854c-0.738,0.053-1.143,0.053-1.424,0.053
		c-0.844,0-1.23-0.914-1.23-1.758s0.387-1.758,1.23-1.758h1.969c0.703-3.498,1.688-6.328,3.006-8.42h0.281l1.055,1.74
		c1.055,1.723,1.898,3.41,1.898,4.957c0,0.58-0.123,1.143-0.316,1.723H101.285z M97.154,29.355c0.527,0,0.861-0.176,0.861-0.51
		c0-0.51-0.211-1.125-0.633-1.688c-0.527-0.686-1.23-1.037-2.25-1.037c-0.563,0-1.178,0.053-1.846,0.158
		C93.656,27.756,95.502,29.355,97.154,29.355z M96.627,22.148c0-0.668-0.703-2.021-1.793-3.709h-0.07
		c-0.563,1.652-0.984,3.094-1.354,4.412C95.432,22.852,96.627,22.711,96.627,22.148z"/>
	<path fill="#3C2A20" d="M109.512,26.367h-0.229c-1.6,0-3.094-0.316-4.025-1.916h-0.053c-0.949,1.248-2.145,1.916-3.674,1.916
		h-0.246c-0.844,0-1.23-0.914-1.23-1.758s0.387-1.758,1.23-1.758h0.246c1.178,0,1.811-0.246,2.391-0.598
		c0.967-0.598,1.055-1.723,1.441-2.531c0.404-0.281,0.861-0.598,1.406-0.914l0.123,0.105c-0.211,0.738-0.334,1.266-0.334,1.617
		c0,0.826,0.193,1.354,0.861,1.811c0.527,0.316,1.125,0.51,1.881,0.51h0.211V26.367z M103.201,13.5
		c0.809,0.721,1.477,1.459,2.004,2.18c-0.457,0.668-1.037,1.266-1.723,1.793c-0.668-0.721-1.354-1.406-2.057-2.092L103.201,13.5z
		 M106.91,13.342c0.809,0.721,1.477,1.459,2.004,2.18c-0.457,0.668-1.037,1.266-1.723,1.793c-0.668-0.721-1.354-1.406-2.057-2.092
		L106.91,13.342z"/>
	<path fill="#3C2A20" d="M117.738,26.367h-0.229c-1.6,0-3.094-0.316-4.025-1.916h-0.053c-0.949,1.248-2.145,1.916-3.674,1.916
		h-0.246c-0.844,0-1.23-0.914-1.23-1.758s0.387-1.758,1.23-1.758h0.246c1.178,0,1.811-0.246,2.391-0.598
		c0.967-0.598,1.055-1.723,1.441-2.531c0.404-0.281,0.861-0.598,1.406-0.914l0.123,0.105c-0.211,0.738-0.334,1.266-0.334,1.617
		c0,0.826,0.193,1.354,0.861,1.811c0.527,0.316,1.125,0.51,1.881,0.51h0.211V26.367z M112.922,13.008
		c0.932,0.633,1.758,1.318,2.514,2.057c-0.387,0.861-0.914,1.582-1.582,2.162c-0.721-0.633-1.6-1.283-2.549-1.951L112.922,13.008z"
		/>
	<path fill="#3C2A20" d="M122.203,15.873c1.213,2.18,1.775,3.779,1.775,4.904c0,1.037-0.193,2.074-0.721,3.199
		c-0.563,1.02-1.125,1.529-1.723,1.793c-0.808,0.369-1.951,0.598-3.55,0.598h-0.246c-0.844,0-1.23-0.914-1.23-1.758
		s0.387-1.758,1.23-1.758h0.387c2.021,0,3.832-0.404,3.832-0.686c0-0.422-0.914-2.197-1.722-3.586
		c0.598-1.037,1.195-1.951,1.792-2.742L122.203,15.873z M119.338,29.408c0.809,0.721,1.477,1.459,2.004,2.18
		c-0.457,0.668-1.037,1.266-1.723,1.793c-0.668-0.721-1.354-1.406-2.057-2.092L119.338,29.408z M123.046,29.25
		c0.809,0.721,1.477,1.459,2.004,2.18c-0.457,0.668-1.037,1.266-1.723,1.793c-0.668-0.721-1.354-1.406-2.056-2.092L123.046,29.25z"
		/>
	<path fill="#3C2A20" d="M145.757,15.838c1.143,2.461,1.846,5.01,1.846,7.752c0,1.283-0.422,2.865-1.072,4.324
		c-1.424,2.039-4.113,3.252-6.328,3.252c-3.393,0-5.555-2.373-5.555-5.836c0-1.758,0.51-3.621,1.6-5.625l0.967,0.492
		c-0.58,1.213-0.896,2.355-0.896,3.111c0,3.656,3.059,4.131,4.184,4.131c1.775,0,3.85-0.914,4.852-1.951
		c0.229-0.246,0.352-0.527,0.352-0.896c0-1.23-0.615-3.111-2.021-5.801c0.527-0.984,1.143-1.934,1.863-2.988L145.757,15.838z
		 M140.449,10.248c1.107,0.703,2.057,1.459,2.865,2.268c-0.457,0.844-1.037,1.688-1.775,2.496c-0.914-0.809-1.881-1.547-2.865-2.232
		L140.449,10.248z"/>
	<path fill="#3C2A20" d="M152.666,4.957l-0.475-0.527c-0.141-0.176-0.352-0.246-0.598-0.246c-0.703,0.018-1.178,0.352-1.178,0.615
		c0,0.457,0.809,0.932,2.303,0.932c0.65,0,1.16-0.018,1.775-0.053l0.07,0.158c-0.193,0.475-0.439,0.949-0.721,1.424
		c-1.916,0.246-3.428,0.65-4.395,1.266l-0.211-0.211c0.211-0.457,0.439-0.896,0.686-1.318c-0.686-0.299-1.072-0.738-1.072-1.406
		c0-0.545,0.369-1.301,1.125-1.986c0.668-0.58,1.424-0.932,2.18-0.932s1.248,0.387,1.248,0.984c0,0.387-0.176,0.809-0.51,1.301
		H152.666z M150.996,26.578c0.176-1.248,0.229-2.549,0.229-4.236c0-3.797-0.176-7.576-0.598-11.426
		c0.703-0.844,1.371-1.582,2.039-2.232l0.299,0.158c0.352,3.797,0.404,7.348,0.404,10.758c0,2.76-0.158,4.605-0.545,5.203
		c-0.369,0.668-0.844,1.354-1.441,2.057L150.996,26.578z"/>
	<path fill="#3C2A20" d="M178.224,26.367h-0.246c-1.195,0-2.074-0.422-2.707-1.213h-0.07c-0.07,0.896-0.352,1.793-0.756,2.654
		c-1.389,1.863-3.516,2.883-5.59,2.883c-3.85,0-5.133-2.953-5.133-5.537c0-1.828,0.475-3.656,1.371-5.326l0.967,0.422
		c-0.51,1.248-0.756,2.232-0.756,2.971c0,2.32,1.441,3.92,3.814,3.92c1.371,0,3.34-0.721,4.553-2.162
		c0.035-0.826,0.053-1.617,0.053-2.338c0-2.848-0.281-7.699-0.527-11.865c0.598-0.703,1.23-1.336,1.863-1.863l0.281,0.141
		c0.123,2.742,0.211,6.24,0.229,10.635c0,1.143,0.193,1.898,0.633,2.426c0.475,0.51,1.072,0.738,1.775,0.738h0.246V26.367z"/>
	<path fill="#3C2A20" d="M186.451,26.367h-0.229c-1.6,0-3.094-0.316-4.025-1.916h-0.053c-0.949,1.248-2.145,1.916-3.674,1.916
		h-0.246c-0.844,0-1.23-0.914-1.23-1.758s0.387-1.758,1.23-1.758h0.246c1.178,0,1.811-0.246,2.391-0.598
		c0.967-0.598,1.055-1.723,1.441-2.531c0.404-0.281,0.861-0.598,1.406-0.914l0.123,0.105c-0.211,0.738-0.334,1.266-0.334,1.617
		c0,0.826,0.193,1.354,0.861,1.811c0.527,0.316,1.125,0.51,1.881,0.51h0.211V26.367z M181.687,29.373
		c0.932,0.633,1.758,1.318,2.514,2.057c-0.387,0.861-0.914,1.582-1.582,2.162c-0.721-0.633-1.6-1.283-2.549-1.951L181.687,29.373z"
		/>
	<path fill="#3C2A20" d="M187.4,22.852c3.797,0,6.293-0.088,6.293-1.125c0-0.088-0.018-0.176-0.053-0.246
		c-0.615,0.07-1.266,0.088-1.916,0.088c-2.988,0-4.623-1.055-4.623-3.357c0-1.371,0.492-2.584,1.389-3.551
		c0.844-0.914,1.793-1.494,2.795-1.494c2.391,0,3.99,4.307,3.99,8.35c0,4.57-2.848,4.852-8.578,4.852h-0.246
		c-0.844,0-1.23-0.914-1.23-1.758s0.387-1.758,1.23-1.758H187.4z M188.384,8.262c0.809,0.721,1.477,1.459,2.004,2.18
		c-0.457,0.668-1.037,1.266-1.723,1.793c-0.668-0.721-1.354-1.406-2.057-2.092L188.384,8.262z M190.494,15.926
		c-1.195,0-1.898,0.65-1.898,1.178c0,0.984,1.846,1.67,4.605,1.74C192.55,16.998,191.654,15.926,190.494,15.926z M192.093,8.104
		c0.809,0.721,1.477,1.459,2.004,2.18c-0.457,0.668-1.037,1.266-1.723,1.793c-0.668-0.721-1.354-1.406-2.057-2.092L192.093,8.104z"
		/>
	<path fill="#3C2A20" d="M223.4,26.367h-0.264c-3.094,0-3.568-2.25-4.201-5.098l-0.088-0.352l-0.088-0.018
		c-0.422,0.844-1.055,1.371-1.846,1.6c0.176,0.738,0.281,1.547,0.281,2.391c0,1.459-0.229,2.76-0.791,3.797
		c-1.459,1.951-3.779,2.953-5.678,2.953c-3.111,0-5.414-2.18-5.414-5.906c0-1.705,0.352-3.217,0.914-4.553l0.932,0.369
		c-0.211,0.809-0.352,1.547-0.352,2.25c0,2.584,1.459,4.289,4.096,4.289c1.916,0,4.166-1.16,4.904-2.443
		c-0.387-2.215-1.441-3.357-2.619-4.377c0.264-1.055,0.545-2.127,0.861-3.182l0.193-0.035c0.896,0.738,1.758,1.441,2.689,1.441
		c1.564,0,1.758-1.6,2.742-2.813l0.316,0.035c0.316,1.09,0.598,3.393,1.23,4.711c0.404,0.826,1.09,1.424,1.934,1.424h0.246V26.367z
		 M210.287,12.727c0.949,0.65,1.793,1.336,2.566,2.092c-0.387,0.879-0.932,1.617-1.617,2.215c-0.738-0.65-1.635-1.318-2.602-1.986
		L210.287,12.727z M217.335,30.287c0.809,0.721,1.477,1.459,2.004,2.18c-0.457,0.668-1.037,1.266-1.723,1.793
		c-0.668-0.721-1.354-1.406-2.057-2.092L217.335,30.287z M221.044,30.129c0.809,0.721,1.477,1.459,2.004,2.18
		c-0.457,0.668-1.037,1.266-1.723,1.793c-0.668-0.721-1.354-1.406-2.057-2.092L221.044,30.129z"/>
	<path fill="#3C2A20" d="M227.865,15.873c1.213,2.18,1.775,3.779,1.775,4.904c0,1.037-0.193,2.074-0.721,3.199
		c-0.563,1.02-1.125,1.529-1.723,1.793c-0.809,0.369-1.951,0.598-3.551,0.598H223.4c-0.844,0-1.23-0.914-1.23-1.758
		s0.387-1.758,1.23-1.758h0.387c2.021,0,3.832-0.404,3.832-0.686c0-0.422-0.914-2.197-1.723-3.586
		c0.598-1.037,1.195-1.951,1.793-2.742L227.865,15.873z M224.648,11.021c0.809,0.721,1.477,1.459,2.004,2.18
		c-0.457,0.668-1.037,1.266-1.723,1.793c-0.668-0.721-1.354-1.406-2.057-2.092L224.648,11.021z M228.357,10.863
		c0.809,0.721,1.477,1.459,2.004,2.18c-0.457,0.668-1.037,1.266-1.723,1.793c-0.668-0.721-1.354-1.406-2.057-2.092L228.357,10.863z"
		/>
	<path fill="#3C2A20" d="M236.232,17.051c1.529,2.514,2.145,4.043,2.145,5.484c0,0.826-0.07,1.283-0.07,1.617
		c0,1.688-0.316,3.252-1.125,4.658c-1.107,1.881-2.461,2.971-3.99,2.971c-1.354,0-3.217-0.563-4.816-1.529l0.334-0.932
		c0.527,0.141,1.107,0.211,1.758,0.211c1.441,0,2.936-0.826,4.271-2.127c1.195-1.195,1.934-2.408,1.934-2.971
		c0-0.633-0.668-1.863-2.355-4.395c0.492-1.055,1.055-2.074,1.582-2.988H236.232z"/>
	<path fill="#3C2A20" d="M250.962,22.852v3.516h-1.318c-0.738,3.182-2.953,6.416-5.695,6.416c-1.582,0-3.305-0.686-5.168-1.951
		l0.404-0.932c0.65,0.281,1.354,0.492,2.145,0.492c1.512,0,2.988-0.721,4.395-1.811c0.967-0.738,1.705-1.512,2.039-2.215h-0.492
		c-3.357,0-5.59-1.072-5.59-4.236c0-1.283,0.439-2.443,1.336-3.498c0.844-1.002,1.793-1.564,2.813-1.564
		c1.969,0,3.234,2.127,3.938,5.783H250.962z M244.986,19.934c-1.125,0-1.775,0.844-1.775,1.283c0,1.02,1.793,1.688,4.096,1.688
		c0.246,0,0.475-0.018,0.686-0.053C247.341,21.094,246.339,19.934,244.986,19.934z"/>
	<path fill="#3C2A20" d="M256.201,18.826c-0.158,0.668-0.246,1.213-0.246,1.6c0,0.896,0.369,1.424,0.949,1.74
		c2.479-3.709,4.975-5.977,7.453-5.977c2.127,0,3.902,1.705,3.902,3.938c0,0.967-0.264,1.863-0.65,2.725h2.215v3.516h-0.246
		c-2.391,0-4.377-0.211-5.959-0.492c-1.336,0.299-2.725,0.492-4.201,0.492c-2.092,0-3.727-0.439-4.518-1.775h-0.088
		c-0.914,1.125-2.057,1.775-3.621,1.775h-0.229c-0.844,0-1.23-0.914-1.23-1.758s0.387-1.758,1.23-1.758h0.246
		c1.318,0,2.232-0.352,2.707-1.055c0.316-0.457,0.58-1.371,0.844-2.092c0.422-0.316,0.844-0.65,1.318-0.967L256.201,18.826z
		 M260.736,22.852c2.883,0,5.643-0.879,5.643-1.477c0-0.545-0.949-2.109-2.83-2.109c-1.723,0-3.445,1.213-5.168,3.34
		C258.978,22.781,259.751,22.852,260.736,22.852z"/>
	<path fill="#3C2A20" d="M274.341,8.42c0,1.16,0.668,2.584,1.934,4.693l-1.564,1.195c0.07,1.354,0.105,3.006,0.105,4.729
		c0,1.564-0.264,2.76-0.65,3.885c-0.229,0.668-0.51,1.301-0.879,1.863c-0.686,0.932-1.635,1.582-3.217,1.582h-0.246
		c-0.844,0-1.23-0.914-1.23-1.758s0.387-1.758,1.23-1.758h0.246c1.125,0,1.986-0.211,2.496-0.721
		c0.299-0.299,0.299-0.791,0.299-1.74c0-4.377-0.58-8.279-0.58-9.158c0-0.65,0.141-1.213,0.475-1.635s0.756-0.861,1.371-1.318
		L274.341,8.42z"/>
	<path fill="#3C2A20" d="M278.718,26.578c0.176-1.248,0.229-2.549,0.229-4.236c0-3.797-0.176-7.576-0.598-11.426
		c0.703-0.844,1.371-1.582,2.039-2.232l0.299,0.158c0.352,3.797,0.404,7.348,0.404,10.758c0,2.76-0.158,4.605-0.545,5.203
		c-0.369,0.668-0.844,1.354-1.441,2.057L278.718,26.578z"/>
	<path fill="#3C2A20" d="M309.287,26.367h-0.264c-3.094,0-3.568-2.25-4.201-5.098l-0.088-0.352l-0.088-0.018
		c-0.422,0.844-1.055,1.371-1.846,1.6c0.176,0.738,0.281,1.547,0.281,2.391c0,1.459-0.229,2.76-0.791,3.797
		c-1.459,1.951-3.779,2.953-5.678,2.953c-3.111,0-5.414-2.18-5.414-5.906c0-1.705,0.352-3.217,0.914-4.553l0.932,0.369
		c-0.211,0.809-0.352,1.547-0.352,2.25c0,2.584,1.459,4.289,4.096,4.289c1.916,0,4.166-1.16,4.904-2.443
		c-0.387-2.215-1.441-3.357-2.619-4.377c0.264-1.055,0.545-2.127,0.861-3.182l0.193-0.035c0.896,0.738,1.758,1.441,2.689,1.441
		c1.564,0,1.758-1.6,2.742-2.813l0.316,0.035c0.316,1.09,0.598,3.393,1.23,4.711c0.404,0.826,1.09,1.424,1.934,1.424h0.246V26.367z
		 M296.173,12.727c0.949,0.65,1.793,1.336,2.566,2.092c-0.387,0.879-0.932,1.617-1.617,2.215c-0.738-0.65-1.635-1.318-2.602-1.986
		L296.173,12.727z M303.222,30.287c0.809,0.721,1.477,1.459,2.004,2.18c-0.457,0.668-1.037,1.266-1.723,1.793
		c-0.668-0.721-1.354-1.406-2.057-2.092L303.222,30.287z M306.931,30.129c0.809,0.721,1.477,1.459,2.004,2.18
		c-0.457,0.668-1.037,1.266-1.723,1.793c-0.668-0.721-1.354-1.406-2.057-2.092L306.931,30.129z"/>
	<path fill="#3C2A20" d="M313.751,15.873c1.213,2.18,1.775,3.779,1.775,4.904c0,1.037-0.193,2.074-0.721,3.199
		c-0.563,1.02-1.125,1.529-1.723,1.793c-0.809,0.369-1.951,0.598-3.551,0.598h-0.246c-0.844,0-1.23-0.914-1.23-1.758
		s0.387-1.758,1.23-1.758h0.387c2.021,0,3.832-0.404,3.832-0.686c0-0.422-0.914-2.197-1.723-3.586
		c0.598-1.037,1.195-1.951,1.793-2.742L313.751,15.873z M312.609,29.338c0.932,0.633,1.758,1.318,2.514,2.057
		c-0.387,0.861-0.914,1.582-1.582,2.162c-0.721-0.633-1.6-1.283-2.549-1.951L312.609,29.338z"/>
	<path fill="#3C2A20" d="M328.974,25.031c-1.758,0-3.393-0.615-3.393-2.496c0-0.826,0.246-1.723,0.721-2.707
		c0.949-2.039,2.9-3.48,5.15-4.746L331.4,14.15c0.563-0.563,1.143-1.107,1.74-1.635l0.281,0.088c0.088,1.74,0.105,3.832,0.105,6.504
		c0,1.477,0,2.602,0.527,3.129c0.545,0.475,0.967,0.615,2.004,0.615h0.246v3.516h-0.246c-2.162,0-3.111-0.404-3.867-1.986
		C331.119,24.785,330.046,25.031,328.974,25.031z M329.132,7.717c0.809,0.721,1.477,1.459,2.004,2.18
		c-0.457,0.668-1.037,1.266-1.723,1.793c-0.668-0.721-1.354-1.406-2.057-2.092L329.132,7.717z M331.716,17.824
		c-2.496,1.16-4.096,2.408-4.096,3.129c0,0.615,0.844,0.826,1.811,0.826c0.809,0,1.582-0.123,2.355-0.369
		C331.787,20.021,331.751,18.791,331.716,17.824z M332.841,7.559c0.809,0.721,1.477,1.459,2.004,2.18
		c-0.457,0.668-1.037,1.266-1.723,1.793c-0.668-0.721-1.354-1.406-2.057-2.092L332.841,7.559z"/>
	<path fill="#3C2A20" d="M344.531,26.367h-0.229c-1.6,0-3.094-0.316-4.025-1.916h-0.053c-0.949,1.248-2.145,1.916-3.674,1.916
		h-0.246c-0.844,0-1.23-0.914-1.23-1.758s0.387-1.758,1.23-1.758h0.246c1.178,0,1.811-0.246,2.391-0.598
		c0.967-0.598,1.055-1.723,1.441-2.531c0.404-0.281,0.861-0.598,1.406-0.914l0.123,0.105c-0.211,0.738-0.334,1.266-0.334,1.617
		c0,0.826,0.193,1.354,0.861,1.811c0.527,0.316,1.125,0.51,1.881,0.51h0.211V26.367z M338.22,13.5
		c0.809,0.721,1.477,1.459,2.004,2.18c-0.457,0.668-1.037,1.266-1.723,1.793c-0.668-0.721-1.354-1.406-2.057-2.092L338.22,13.5z
		 M341.929,13.342c0.809,0.721,1.477,1.459,2.004,2.18c-0.457,0.668-1.037,1.266-1.723,1.793c-0.668-0.721-1.354-1.406-2.057-2.092
		L341.929,13.342z"/>
	<path fill="#3C2A20" d="M362.531,26.367h-0.246c-1.969,0-3.393-0.439-3.99-1.617h-0.07c-0.949,1.09-1.951,1.617-2.971,1.617
		c-0.967,0-1.635-0.492-1.951-1.494h-0.088c-0.949,0.949-1.74,1.494-2.9,1.494c-0.879,0-1.564-0.352-1.881-1.336
		c-1.072,0.861-2.303,1.336-3.656,1.336h-0.246c-0.844,0-1.23-0.914-1.23-1.758s0.387-1.758,1.23-1.758h0.246
		c1.477,0,2.479-0.281,3.146-0.791c0.527-0.387,0.914-1.055,1.512-1.863c0.457-0.246,0.967-0.492,1.529-0.703l0.193,0.176
		c-0.65,0.932-1.072,1.74-1.072,2.285c0,0.65,0.352,0.896,0.914,0.896c0.791,0,1.283-0.316,1.67-0.686
		c0.686-0.686,0.809-1.441,1.266-2.285c0.475-0.281,0.914-0.492,1.424-0.703l0.141,0.176c-0.439,1.037-0.809,1.916-0.809,2.391
		c0,0.756,0.316,1.107,0.879,1.107c0.844,0,1.371-0.369,1.775-0.896c0.492-0.633,0.668-1.617,0.984-2.479
		c0.439-0.299,0.879-0.598,1.406-0.861l0.123,0.123c-0.299,0.949-0.492,1.705-0.492,2.285c0,1.23,0.914,1.828,2.918,1.828h0.246
		V26.367z"/>
	<path fill="#3C2A20" d="M367.048,8.42c0,1.16,0.668,2.584,1.934,4.693l-1.564,1.195c0.07,1.354,0.105,3.006,0.105,4.729
		c0,1.564-0.264,2.76-0.65,3.885c-0.229,0.668-0.51,1.301-0.879,1.863c-0.686,0.932-1.635,1.582-3.217,1.582h-0.246
		c-0.844,0-1.23-0.914-1.23-1.758s0.387-1.758,1.23-1.758h0.246c1.125,0,1.986-0.211,2.496-0.721
		c0.299-0.299,0.299-0.791,0.299-1.74c0-4.377-0.58-8.279-0.58-9.158c0-0.65,0.141-1.213,0.475-1.635s0.756-0.861,1.371-1.318
		L367.048,8.42z"/>
	<path fill="#3C2A20" d="M371.425,26.578c0.176-1.248,0.229-2.549,0.229-4.236c0-3.797-0.176-7.576-0.598-11.426
		c0.703-0.844,1.371-1.582,2.039-2.232l0.299,0.158c0.352,3.797,0.404,7.348,0.404,10.758c0,2.76-0.158,4.605-0.545,5.203
		c-0.369,0.668-0.844,1.354-1.441,2.057L371.425,26.578z"/>
	<path fill="#3C2A20" d="M401.923,15.697c1.143,1.916,1.863,3.973,1.863,4.922c0,1.178-0.58,3.252-1.459,4.342
		c-2.461,1.354-6.24,2.162-9.545,2.162c-2.936,0-4.834-0.598-6.188-1.459c-1.564-1.02-2.531-2.584-2.531-4.869
		c0-1.494,0.316-3.041,1.055-4.658l1.072,0.369c-0.246,0.773-0.404,1.477-0.404,2.109c0,2.672,2.232,4.852,7.84,4.852
		c3.023,0,7.084-0.844,8.139-1.389c-0.316-0.896-0.914-2.127-1.74-3.621c0.527-0.949,1.107-1.916,1.705-2.742L401.923,15.697z
		 M391.289,11.039c0.879,0.738,1.705,1.494,2.479,2.268c-0.527,0.756-1.107,1.477-1.74,2.197c-0.844-0.826-1.705-1.582-2.549-2.268
		L391.289,11.039z M395.542,10.811c0.879,0.738,1.705,1.494,2.479,2.268c-0.527,0.756-1.107,1.477-1.74,2.197
		c-0.844-0.826-1.705-1.582-2.549-2.268L395.542,10.811z"/>
	<path fill="#3C2A20" d="M411.662,26.367h-0.299c-2.391,0-4.113-1.213-4.166-4.641c-0.018-2.004-0.176-7.172-0.633-11.496
		c0.65-0.703,1.336-1.354,2.021-1.951l0.246,0.123c0.281,2.531,0.316,5.414,0.316,7.875c0,1.846-0.035,2.777-0.035,4.219
		c0,1.758,0.703,2.355,2.303,2.355h0.246V26.367z"/>
	<path fill="#3C2A20" d="M412.611,22.852c3.797,0,6.293-0.088,6.293-1.125c0-0.088-0.018-0.176-0.053-0.246
		c-0.615,0.07-1.266,0.088-1.916,0.088c-2.988,0-4.623-1.055-4.623-3.357c0-1.371,0.492-2.584,1.389-3.551
		c0.844-0.914,1.793-1.494,2.795-1.494c2.391,0,3.99,4.307,3.99,8.35c0,4.57-2.848,4.852-8.578,4.852h-0.246
		c-0.844,0-1.23-0.914-1.23-1.758s0.387-1.758,1.23-1.758H412.611z M415.335,7.91c0.932,0.633,1.758,1.318,2.514,2.057
		c-0.387,0.861-0.914,1.582-1.582,2.162c-0.721-0.633-1.6-1.283-2.549-1.951L415.335,7.91z M415.705,15.926
		c-1.195,0-1.898,0.65-1.898,1.178c0,0.984,1.846,1.67,4.605,1.74C417.761,16.998,416.865,15.926,415.705,15.926z"/>
	<path fill="#3C2A20" d="M425.074,14.098c2.145,3.322,3.779,5.273,3.779,8.297l0.053,0.018c0.826-0.844,1.441-1.986,1.441-3.814
		c0-2.338-0.141-5.098-0.369-8.631c0.703-0.686,1.336-1.266,1.898-1.723l0.211,0.105c0.193,2.725,0.193,6.275,0.193,10.688
		c0,2.479,0.791,3.814,2.514,3.814h0.246v3.516h-0.246c-2.285,0-3.568-1.195-3.938-3.674h-0.07
		c-0.844,3.182-3.727,4.148-5.959,4.148c-1.371,0-2.461-0.176-3.357-0.475v-0.334c2.566-0.896,4.729-1.916,6.398-3.094
		c-0.457-1.547-2.145-3.99-4.395-6.961c-1.16-1.529-2.408-2.742-2.408-3.779c0-0.598,0.211-1.354,0.563-2.232h0.246
		c0.773,0.809,2.162,1.74,3.973,2.742L425.074,14.098z"/>
	<path fill="#3C2A20" d="M443.267,26.367h-0.229c-1.6,0-3.094-0.316-4.025-1.916h-0.053c-0.949,1.248-2.145,1.916-3.674,1.916
		h-0.246c-0.844,0-1.23-0.914-1.23-1.758s0.387-1.758,1.23-1.758h0.246c1.178,0,1.811-0.246,2.391-0.598
		c0.967-0.598,1.055-1.723,1.441-2.531c0.404-0.281,0.861-0.598,1.406-0.914l0.123,0.105c-0.211,0.738-0.334,1.266-0.334,1.617
		c0,0.826,0.193,1.354,0.861,1.811c0.527,0.316,1.125,0.51,1.881,0.51h0.211V26.367z M436.957,13.5
		c0.809,0.721,1.477,1.459,2.004,2.18c-0.457,0.668-1.037,1.266-1.723,1.793c-0.668-0.721-1.354-1.406-2.057-2.092L436.957,13.5z
		 M440.666,13.342c0.809,0.721,1.477,1.459,2.004,2.18c-0.457,0.668-1.037,1.266-1.723,1.793c-0.668-0.721-1.354-1.406-2.057-2.092
		L440.666,13.342z"/>
	<path fill="#3C2A20" d="M452.408,20.461c-1.916-0.65-3.463-0.932-4.465-0.932c-0.668,0-1.143,0.105-1.459,0.316l-0.809,1.846
		h-0.352l-1.143-2.232c0.422-2.18,2.004-3.146,3.832-3.146c1.195,0,2.83,0.439,4.869,1.213c1.705,0.633,2.883,0.826,4.342,0.826
		h1.301l0.035,0.141c-0.369,0.721-0.844,1.547-1.459,2.443c-1.248,0-2.057,0.211-3.006,1.055c-3.111,2.813-5.449,4.377-10.582,4.377
		h-0.246c-0.844,0-1.23-0.914-1.23-1.758s0.387-1.758,1.23-1.758h0.246c3.727,0,6.117-0.545,8.895-2.303V20.461z M449.121,10.178
		c0.932,0.633,1.758,1.318,2.514,2.057c-0.387,0.861-0.914,1.582-1.582,2.162c-0.721-0.633-1.6-1.283-2.549-1.951L449.121,10.178z"
		/>
	<path fill="#3C2A20" d="M462.99,14.713c2.654,3.99,4.113,5.625,4.113,8.789c0.844-0.492,1.459-1.143,1.459-3.129
		c0-6.732-0.475-7.77-0.475-9.299c0-0.967,0.369-1.775,1.775-2.848l0.299,0.193c-0.035,0.088-0.07,0.211-0.07,0.404
		c0,0.773,0.809,2.355,1.951,4.254l-1.6,1.178v3.34c0,2.883-0.439,5.379-1.529,7.313c-0.932,1.652-2.285,2.707-4.975,2.707
		c-1.582,0-3.322-0.316-5.238-1.072v-0.439c3.621-0.809,5.994-1.529,7.453-2.197c-0.141-0.932-2.197-3.902-5.379-8.191
		c-1.037-1.406-1.705-2.461-1.705-3.34c0-0.668,0.334-1.547,0.896-2.496l0.229,0.018c0.527,0.844,1.846,2.057,3.639,3.516
		L462.99,14.713z"/>
	<path fill="#3C2A20" d="M474.486,26.578c0.176-1.248,0.229-2.549,0.229-4.236c0-3.797-0.176-7.576-0.598-11.426
		c0.703-0.844,1.371-1.582,2.039-2.232l0.299,0.158c0.352,3.797,0.404,7.348,0.404,10.758c0,2.76-0.158,4.605-0.545,5.203
		c-0.369,0.668-0.844,1.354-1.441,2.057L474.486,26.578z"/>
	<path fill="#3C2A20" d="M498.972,26.367h-0.246c-1.775,0-3.146-0.703-3.797-2.953h-0.053c-0.264,0.896-0.58,1.406-0.967,1.705
		c-1.02,0.809-2.25,1.248-3.779,1.248c-1.846,0-3.111-1.09-3.111-4.096c0-0.352,0-0.861,0.035-1.494l1.143-0.105
		c0.07,1.371,0.756,2.18,2.232,2.18c0.809,0,1.67-0.211,2.584-0.615c0.65-0.281,1.107-0.615,1.107-1.16
		c0-0.686-0.633-3.428-1.512-5.871c0.475-0.826,1.002-1.617,1.617-2.408l0.299,0.088c0.439,1.6,0.896,3.621,1.512,7.049
		c0.352,2.004,1.283,2.918,2.689,2.918h0.246V26.367z"/>
	<path fill="#3C2A20" d="M508.078,20.461c-1.916-0.65-3.428-0.932-4.43-0.932c-0.668,0-1.143,0.105-1.459,0.316l-0.809,1.846h-0.352
		l-1.143-2.232c0.422-2.18,2.004-3.146,3.832-3.146c1.195,0,2.83,0.439,4.869,1.213c1.705,0.633,2.883,0.826,4.342,0.826h1.301
		l0.035,0.141c-0.369,0.721-0.844,1.547-1.459,2.443c-1.248,0-2.057,0.211-3.006,1.055c-3.111,2.813-5.449,4.377-10.582,4.377
		h-0.246c-0.844,0-1.23-0.914-1.23-1.758s0.387-1.758,1.23-1.758h0.246c3.727,0,6.082-0.545,8.859-2.303V20.461z M505.353,28.283
		c0.932,0.633,1.758,1.318,2.514,2.057c-0.387,0.861-0.914,1.582-1.582,2.162c-0.721-0.633-1.6-1.283-2.549-1.951L505.353,28.283z"
		/>
</g>
</svg>
