<?xml version="1.0" encoding="utf-8"?>
<!-- Generator: Adobe Illustrator 16.0.0, SVG Export Plug-In . SVG Version: 6.00 Build 0)  -->
<!DOCTYPE svg PUBLIC "-//W3C//DTD SVG 1.1//EN" "http://www.w3.org/Graphics/SVG/1.1/DTD/svg11.dtd">
<svg version="1.1" id="Capa_1" xmlns="http://www.w3.org/2000/svg" xmlns:xlink="http://www.w3.org/1999/xlink" x="0px" y="0px"
	 width="268.832px" height="185px" viewBox="0 41.916 268.832 185" enable-background="new 0 41.916 268.832 185"
	 xml:space="preserve">
<g>
	<path fill="#137BC1" d="M3.661,125.577l80-80c4.881-4.881,12.797-4.881,17.678,0c4.882,4.882,4.882,12.796,0,17.678l-58.661,58.661
		h213.654c6.902,0,12.5,5.597,12.5,12.5c0,6.902-5.598,12.5-12.5,12.5H42.678l58.659,58.661c4.882,4.882,4.882,12.796,0,17.678
		c-2.44,2.438-5.64,3.661-8.839,3.661s-6.398-1.223-8.839-3.661l-79.998-80C-1.221,138.373-1.221,130.459,3.661,125.577z"/>
</g>
</svg>
