<?xml version="1.0" encoding="utf-8"?>
<!-- Generator: Adobe Illustrator 16.0.0, SVG Export Plug-In . SVG Version: 6.00 Build 0)  -->
<!DOCTYPE svg PUBLIC "-//W3C//DTD SVG 1.1//EN" "http://www.w3.org/Graphics/SVG/1.1/DTD/svg11.dtd">
<svg version="1.1" id="Layer_1" xmlns="http://www.w3.org/2000/svg" xmlns:xlink="http://www.w3.org/1999/xlink" x="0px" y="0px"
	 width="25.71px" height="22.681px" viewBox="8.229 3.791 25.71 22.681" enable-background="new 8.229 3.791 25.71 22.681"
	 xml:space="preserve">
<path fill="#ED889E" d="M20.2,26.471h-6.061c-0.709,0-1.378-0.276-1.882-0.779l-3.25-3.25c-1.038-1.038-1.038-2.726,0-3.765
	l4.398-4.392c0.347-0.346,0.908-0.346,1.255,0l8.788,8.789c0.167,0.166,0.26,0.393,0.26,0.629c0,0.235-0.094,0.461-0.262,0.627
	l-1.366,1.362C21.577,26.195,20.909,26.471,20.2,26.471z"/>
<path fill="#EA7589" d="M22.081,25.693l1.366-1.362c0.168-0.166,0.262-0.392,0.262-0.627c0-0.236-0.093-0.463-0.26-0.629
	l-4.397-4.397l-6.904,6.904l0.11,0.11c0.504,0.503,1.172,0.779,1.882,0.779H20.2C20.909,26.471,21.577,26.195,22.081,25.693z"/>
<path fill="#008894" d="M30.201,17.21c-0.235,0-0.461-0.094-0.627-0.26l-8.789-8.788c-0.347-0.346-0.347-0.908-0.001-1.254
	l2.331-2.338c1.039-1.039,2.728-1.039,3.766-0.001l6.279,6.279c1.039,1.038,1.039,2.727,0,3.764l-2.33,2.337
	C30.664,17.116,30.437,17.21,30.201,17.21L30.201,17.21L30.201,17.21z"/>
<path fill="#03777A" d="M29.574,16.95c0.166,0.167,0.392,0.26,0.627,0.26l0,0c0.236,0,0.463-0.094,0.628-0.261l2.331-2.337
	c1.039-1.038,1.039-2.727,0-3.764l-3.139-3.14l-4.846,4.845L29.574,16.95z"/>
<path fill="#E65E71" d="M12.778,14.914L12.778,14.914l8.635-8.635l10.044,10.043l0,0l-8.636,8.635L12.778,14.914z"/>
<rect x="21.074" y="12.023" transform="matrix(-0.7071 -0.7071 0.7071 -0.7071 29.2215 48.3603)" fill="#D35067" width="7.106" height="12.21"/>
</svg>
