<?xml version="1.0" encoding="utf-8"?>
<!-- Generator: Adobe Illustrator 16.0.0, SVG Export Plug-In . SVG Version: 6.00 Build 0)  -->
<!DOCTYPE svg PUBLIC "-//W3C//DTD SVG 1.1//EN" "http://www.w3.org/Graphics/SVG/1.1/DTD/svg11.dtd">
<svg version="1.1" id="Capa_1" xmlns="http://www.w3.org/2000/svg" xmlns:xlink="http://www.w3.org/1999/xlink" x="0px" y="0px"
	 width="400.004px" height="248.175px" viewBox="0 75.914 400.004 248.175" enable-background="new 0 75.914 400.004 248.175"
	 xml:space="preserve">
<g>
	<path fill="#808286" d="M17.316,182.686h323.571l-77.209-77.214c-6.764-6.76-6.764-17.726,0-24.485
		c6.765-6.764,17.729-6.764,24.484,0l106.768,106.771c6.765,6.76,6.765,17.727,0,24.485L288.163,319.017
		c-3.382,3.383-7.812,5.072-12.242,5.072s-8.86-1.689-12.242-5.072c-6.764-6.76-6.764-17.727,0-24.483l77.209-77.219H17.316
		C7.754,217.315,0,209.562,0,200C0,190.438,7.753,182.686,17.316,182.686z"/>
</g>
</svg>
