<?xml version="1.0" encoding="utf-8"?>
<!-- Generator: Adobe Illustrator 16.0.0, SVG Export Plug-In . SVG Version: 6.00 Build 0)  -->
<!DOCTYPE svg PUBLIC "-//W3C//DTD SVG 1.1//EN" "http://www.w3.org/Graphics/SVG/1.1/DTD/svg11.dtd">
<svg version="1.1" id="Capa_1" xmlns="http://www.w3.org/2000/svg" xmlns:xlink="http://www.w3.org/1999/xlink" x="0px" y="0px"
	 width="768px" height="121.344px" viewBox="128 404.223 768 121.344" enable-background="new 128 404.223 768 121.344"
	 xml:space="preserve">
<path fill="#FFFFFF" d="M269.536,424.447c-22.271,0-40.448,18.145-40.448,40.448c0,22.112,18.145,40.448,40.448,40.448
	c22.112,0,40.448-18.304,40.448-40.448C309.983,442.591,291.647,424.447,269.536,424.447z M148.224,444.671
	c-11.296,0-20.224,8.928-20.224,20.191s8.928,20.224,20.224,20.224c11.295,0,20.224-8.928,20.224-20.224
	S159.488,444.671,148.224,444.671z M431.136,404.223c-33.6,0-60.672,27.072-60.672,60.672s27.072,60.672,60.672,60.672
	s60.672-27.072,60.672-60.672S464.704,404.223,431.136,404.223z M754.463,424.447c-22.111,0-40.447,18.145-40.447,40.448
	c0,22.112,18.304,40.448,40.447,40.448c22.271,0,40.448-18.304,40.448-40.448C794.911,442.591,776.736,424.447,754.463,424.447z
	 M875.776,444.671c-11.296,0-20.225,8.928-20.225,20.224s8.929,20.224,20.225,20.224S896,476.158,896,464.863
	S887.072,444.671,875.776,444.671z M592.863,404.223c-33.6,0-60.672,27.072-60.672,60.672s27.072,60.672,60.672,60.672
	c33.599,0,60.672-27.072,60.672-60.672S626.464,404.223,592.863,404.223z"/>
</svg>
