<?xml version="1.0" encoding="utf-8"?>
<!-- Generator: Adobe Illustrator 16.0.0, SVG Export Plug-In . SVG Version: 6.00 Build 0)  -->
<!DOCTYPE svg PUBLIC "-//W3C//DTD SVG 1.1//EN" "http://www.w3.org/Graphics/SVG/1.1/DTD/svg11.dtd">
<svg version="1.1" id="Objects" xmlns="http://www.w3.org/2000/svg" xmlns:xlink="http://www.w3.org/1999/xlink" x="0px" y="0px"
	 width="132.74px" height="116.852px" viewBox="0 0 132.74 116.852" enable-background="new 0 0 132.74 116.852"
	 xml:space="preserve">
<g>
	
		<linearGradient id="SVGID_1_" gradientUnits="userSpaceOnUse" x1="-24.6392" y1="202.3899" x2="-24.6392" y2="88.3633" gradientTransform="matrix(1 0 0 -1 91.0098 204.2524)">
		<stop  offset="0" style="stop-color:#89C551"/>
		<stop  offset="1" style="stop-color:#55AE47"/>
	</linearGradient>
	<path fill="url(#SVGID_1_)" d="M132.74,99.299c0,9.693-7.859,17.553-17.558,17.553H17.553C7.857,116.852,0,108.992,0,99.299V17.553
		C0,7.857,7.857,0,17.554,0h97.63c9.696,0,17.557,7.856,17.557,17.553L132.74,99.299L132.74,99.299z"/>
</g>
<polygon display="none" fill="#FFFFFF" points="24.302,100.008 110.085,100.008 119.271,47.756 15,47.756 "/>
<path display="none" fill="#FFFFFF" d="M42.044,71.656l13.732-14.739c0.351-0.374,0.843-0.586,1.383-0.586
	c0.539,0,1.007,0.212,1.382,0.586l13.73,14.739c0.704,0.75,0.657,1.944-0.093,2.647c-0.353,0.327-0.82,0.492-1.266,0.492
	c-0.493,0-1.008-0.211-1.383-0.586L59.056,62.962v26.783c0,1.03-0.842,1.874-1.873,1.874s-1.875-0.844-1.875-1.874V62.962
	L44.833,74.21c-0.703,0.75-1.899,0.798-2.647,0.094C41.389,73.601,41.343,72.406,42.044,71.656z"/>
<path display="none" fill="#FFFFFF" d="M28.473,44.007V30.416c0-1.031,0.844-1.875,1.875-1.875h73.575
	c1.03,0,1.874,0.844,1.874,1.875v13.591h5.155v-21.09H67.299c-0.491,0-0.96-0.163-1.311-0.49l-9.889-9.584H22.92l1.195,31.164
	H28.473z"/>
<path display="none" fill="#FFFFFF" d="M32.222,32.29h69.826v11.717H32.222V32.29z"/>
<path display="none" fill="#662323" d="M34.711,71.656l13.732-14.74c0.351-0.374,0.843-0.586,1.383-0.586
	c0.539,0,1.007,0.212,1.382,0.586l13.73,14.74c0.704,0.75,0.657,1.943-0.093,2.646c-0.353,0.328-0.82,0.492-1.266,0.492
	c-0.493,0-1.008-0.211-1.383-0.586L51.723,62.961v26.783c0,1.031-0.842,1.875-1.873,1.875s-1.875-0.844-1.875-1.875V62.961
	L37.5,74.209c-0.703,0.75-1.899,0.799-2.647,0.094C34.056,73.6,34.01,72.406,34.711,71.656z"/>
<path display="none" fill="#662323" d="M71.853,73.647c0.749-0.705,1.945-0.656,2.648,0.094l10.473,11.248V58.205
	c0-1.031,0.845-1.875,1.876-1.875s1.873,0.844,1.873,1.875v26.783L99.197,73.74c0.375-0.375,0.89-0.586,1.383-0.586
	c0.445,0,0.913,0.164,1.266,0.492c0.75,0.703,0.797,1.896,0.093,2.646l-13.73,14.74c-0.375,0.373-0.843,0.586-1.382,0.586
	c-0.54,0-1.032-0.213-1.383-0.586l-13.731-14.74C71.01,75.543,71.056,74.35,71.853,73.647z"/>
<path display="none" fill="#FFFFFF" d="M91.091,10.364H20V105h7.886V18.25h55.318v23.659h23.659V105h7.887V30.419L94.697,10.364
	H91.091z M106.863,34.023H91.091V18.25h0.337l15.436,15.434V34.023z"/>
<path display="none" fill="#FFFFFF" d="M87.7,100.661V58.385l6.399,6.4l4.527-4.524L84.5,46.135L70.372,60.261l4.527,4.524l6.4-6.4
	v42.276H87.7z"/>
<path display="none" fill="#FFFFFF" d="M46.895,37.757v37.276l-6.4-6.4l-4.527,4.524l14.127,14.126l14.127-14.126l-4.527-4.524
	l-6.4,6.4V37.757H46.895z"/>
<g>
	<g>
		<path fill="#FFFFFF" d="M108.955,51.712h-0.866l-5.515,5.512c-0.324,0.326-0.686,0.596-1.05,0.866h4.24v41.246l-3.311-21.654
			c-0.389-1.371-1.641-2.317-3.067-2.317H31.933V47.628h8.262l-5.185-5.187c-0.373-0.371-0.697-0.774-0.993-1.191h-5.272
			c-1.762,0-3.189,1.428-3.189,3.189v30.926h-6.378c-1,0-1.943,0.469-2.544,1.266c-0.604,0.8-0.797,1.833-0.523,2.795l9.193,22.046
			c0.671,2.341,2.812,3.953,5.246,3.953h76.136c3.014,0,5.457-2.443,5.457-5.457V54.901
			C112.143,53.14,110.716,51.712,108.955,51.712z"/>
	</g>
	<path fill="#FFFFFF" d="M58.311,63.054c0.407,0.519,0.938,0.778,1.471,0.778s1.066-0.26,1.468-0.778L72.88,48.248
		c0.597-0.759,0.772-1.898,0.452-2.883c-0.322-0.991-1.083-1.637-1.922-1.637h-5.081V18.528c0-1.949-1.24-3.527-2.771-3.527h-7.555
		c-1.529,0-2.765,1.578-2.765,3.527v25.201h-5.084c-0.84,0-1.595,0.646-1.918,1.637c-0.322,0.985-0.147,2.125,0.45,2.883
		L58.311,63.054z"/>
	<path fill="#FFFFFF" d="M92.258,15.779C91.851,15.26,91.319,15,90.787,15s-1.066,0.26-1.468,0.778L77.688,30.584
		c-0.597,0.759-0.772,1.898-0.452,2.883c0.322,0.991,1.083,1.637,1.922,1.637h5.081v25.201c0,1.949,1.24,3.527,2.771,3.527h7.555
		c1.529,0,2.765-1.578,2.765-3.527V35.104h5.084c0.84,0,1.595-0.646,1.918-1.637c0.322-0.985,0.147-2.125-0.45-2.883L92.258,15.779z
		"/>
</g>
</svg>
