<?xml version="1.0" encoding="utf-8"?>
<!-- Generator: Adobe Illustrator 16.0.0, SVG Export Plug-In . SVG Version: 6.00 Build 0)  -->
<!DOCTYPE svg PUBLIC "-//W3C//DTD SVG 1.1//EN" "http://www.w3.org/Graphics/SVG/1.1/DTD/svg11.dtd">
<svg version="1.1" id="Isolation_Mode_1_" xmlns="http://www.w3.org/2000/svg" xmlns:xlink="http://www.w3.org/1999/xlink" x="0px"
	 y="0px" width="754.111px" height="773px" viewBox="214.643 -2.5 754.111 773" enable-background="new 214.643 -2.5 754.111 773"
	 xml:space="preserve">
<g id="Isolation_Mode">
</g>
<g>
	<g>
		<path fill="#EFEFEF" stroke="#6AC622" stroke-width="5" stroke-miterlimit="10" d="M635.223,0H237.207
			c-11.081,0-20.064,8.982-20.064,26.413v727.872c0,4.731,8.982,13.715,20.064,13.715h549.586c11.081,0,20.064-8.983,20.064-13.715
			V177.984c0-9.545-1.275-12.617-3.524-14.88L643.753,3.525C641.49,1.276,638.418,0,635.223,0z"/>
		<polygon fill="#D3D3D3" points="642.286,2.071 642.286,164.572 804.786,164.572 		"/>
		<path fill="#7FD143" d="M299.79,500.508L299.79,500.508c-5.881,0-11.525-1.909-16.341-5.51
			c-17.592-13.198-19.957-27.884-18.842-37.887c3.076-27.511,37.092-56.305,101.137-85.641
			c25.416-55.696,49.596-124.32,64.012-181.657c-16.865-36.703-33.257-84.322-21.309-112.255
			c4.191-9.784,9.412-17.287,19.162-20.532c3.853-1.284,13.586-2.906,17.168-2.906c8.517,0,16.003,10.968,21.309,17.726
			c4.986,6.355,16.29,19.823-6.302,114.944c22.778,47.045,55.055,94.969,85.979,127.785c22.154-4.005,41.215-6.05,56.744-6.05
			c26.464,0,42.5,6.168,49.04,18.876c5.405,10.51,3.192,22.795-6.591,36.501c-9.414,13.162-22.392,20.125-37.515,20.125
			c-20.55,0-44.477-12.978-71.16-38.612c-47.94,10.021-103.925,27.899-149.178,47.687c-14.127,29.978-27.663,54.125-40.27,71.835
			C329.514,489.186,314.576,500.508,299.79,500.508z M344.773,413.886c-36.111,20.294-50.831,36.973-51.895,46.368
			c-0.169,1.557-0.625,5.645,7.283,11.694C302.68,471.154,317.381,464.446,344.773,413.886z M575.216,338.823
			c13.773,10.594,17.135,15.952,26.143,15.952c3.955,0,15.227-0.169,20.447-7.453c2.519-3.531,3.498-5.796,3.887-7.012
			c-2.078-1.098-4.833-3.329-19.855-3.329C597.303,336.998,586.571,337.369,575.216,338.823z M448.986,227.599
			c-12.083,41.807-28.034,86.942-45.186,127.819c35.318-13.704,73.71-25.668,109.771-34.135
			C490.759,294.786,467.963,261.699,448.986,227.599z M438.728,84.604c-1.656,0.557-22.474,29.69,1.623,54.346
			C456.387,103.209,439.455,84.367,438.728,84.604z"/>
		<path fill="#7FD143" d="M786.793,768H237.207c-11.081,0-20.064-8.983-20.064-20.064V534.857h589.714v213.079
			C806.857,759.017,797.874,768,786.793,768z"/>
		<g>
			<path fill="#FFFFFF" d="M366.423,726.857h-22.505V588.672h39.744c5.87,0,11.685,0.933,17.431,2.812
				c5.746,1.878,10.903,4.689,15.47,8.434c4.566,3.744,8.256,8.284,11.067,13.591c2.812,5.308,4.224,11.273,4.224,17.911
				c0,7.008-1.193,13.344-3.565,19.035c-2.373,5.691-5.691,10.478-9.943,14.346c-4.251,3.867-9.381,6.871-15.374,8.996
				c-5.993,2.126-12.631,3.182-19.872,3.182h-16.69v49.879H366.423z M366.423,605.733v54.747h20.626c2.743,0,5.458-0.466,8.16-1.412
				c2.688-0.933,5.157-2.469,7.406-4.595c2.25-2.126,4.06-5.088,5.431-8.9c1.371-3.813,2.057-8.53,2.057-14.153
				c0-2.249-0.315-4.854-0.933-7.776c-0.631-2.935-1.906-5.746-3.84-8.434c-1.947-2.688-4.663-4.938-8.16-6.748
				s-8.133-2.715-13.879-2.715h-16.869V605.733z"/>
			<path fill="#FFFFFF" d="M569.86,653.924c0,11.369-1.221,21.093-3.661,29.157c-2.441,8.063-5.527,14.812-9.285,20.256
				s-7.968,9.724-12.658,12.85c-4.69,3.127-9.216,5.459-13.591,7.036c-4.375,1.563-8.379,2.564-12,3.003
				c-3.62,0.412-6.309,0.631-8.063,0.631h-52.307V588.672h41.623c11.63,0,21.847,1.852,30.651,5.526
				c8.805,3.676,16.128,8.599,21.942,14.716c5.815,6.116,10.148,13.097,13.029,20.9C568.421,637.632,569.86,645.668,569.86,653.924z
				 M503.113,710.359c15.25,0,26.249-4.868,32.996-14.619c6.748-9.751,10.121-23.877,10.121-42.378
				c0-5.746-0.686-11.438-2.057-17.061c-1.385-5.622-4.032-10.71-7.968-15.277c-3.937-4.566-9.285-8.256-16.032-11.067
				c-6.748-2.812-15.497-4.224-26.249-4.224H480.8v104.626H503.113L503.113,710.359z"/>
			<path fill="#FFFFFF" d="M625.362,605.733v43.501h57.751v15.374h-57.751v62.249h-22.876V588.672h86.428v17.061H625.362z"/>
		</g>
	</g>
	<path fill="#7FD143" d="M963.921,428.615c3.219-2.529,4.833-5.826,4.833-9.131c0-3.306-1.614-6.622-4.833-9.114l-91.926-72.214
		c-4.712-3.704-11.784-4.795-17.903-2.807c-6.149,2.001-10.16,6.725-10.16,11.933v31.548H687.465
		c-12.103,0-21.901,7.7-21.901,17.207v46.906c0,9.494,9.799,17.164,21.901,17.164h156.467v31.566c0,5.213,4.011,9.902,10.16,11.907
		c6.119,2.001,13.191,0.917,17.903-2.794L963.921,428.615z"/>
</g>
</svg>
