<?xml version="1.0"?>
<svg xmlns="http://www.w3.org/2000/svg" xmlns:xlink="http://www.w3.org/1999/xlink" version="1.1" id="Capa_1" x="0px" y="0px" viewBox="0 0 512.001 512.001" style="enable-background:new 0 0 512.001 512.001;" xml:space="preserve" width="512px" height="512px" class=""><g><g>
	<g>
		<path d="M108.048,426.678c-4.031-3.501-7.957-7.163-11.766-10.957c-2.867-2.882-5.662-5.824-8.353-8.823    c-5.544-6.206-15.059-6.72-21.265-1.177c-6.191,5.544-6.72,15.059-1.177,21.265c3.044,3.411,6.22,6.764,9.515,10.044    c4.324,4.309,8.75,8.441,13.28,12.382c2.853,2.471,6.368,3.691,9.883,3.691c4.205,0,8.383-1.75,11.367-5.176    C114.989,441.648,114.327,432.134,108.048,426.678z" data-original="#000000" class="active-path" data-old_color="#000000" fill="#A9A49F"/>
	</g>
</g><g>
	<g>
		<path d="M31.4,280.031c-0.853-7.985-1.279-16-1.279-24.03c0-8.324-6.735-15.059-15.059-15.059    c-8.323,0-15.059,6.735-15.059,15.059c0,9.088,0.485,18.191,1.456,27.235c0.823,7.72,7.353,13.456,14.955,13.456    c0.53,0,1.074-0.029,1.618-0.087C26.297,295.722,32.283,288.296,31.4,280.031z" data-original="#000000" class="active-path" data-old_color="#000000" fill="#A9A49F"/>
	</g>
</g><g>
	<g>
		<path d="M180.768,469.03c-8.823-3.117-17.5-6.794-25.97-11.029c-7.426-3.676-16.485-0.706-20.206,6.735    c-3.721,7.441-0.706,16.485,6.735,20.206c9.588,4.794,19.412,8.971,29.412,12.5c1.661,0.573,3.353,0.853,5.015,0.853    c6.206,0,12.015-3.868,14.205-10.044C192.723,480.411,188.605,471.809,180.768,469.03z" data-original="#000000" class="active-path" data-old_color="#000000" fill="#A9A49F"/>
	</g>
</g><g>
	<g>
		<path d="M55.752,360.647c-4.381-8.397-8.219-16.999-11.47-25.765C41.4,327.088,32.694,323.089,24.93,326    c-7.794,2.897-11.779,11.559-8.883,19.352c3.676,9.927,8.058,19.765,13,29.235c2.692,5.147,7.941,8.089,13.367,8.089    c2.353,0,4.735-0.544,6.956-1.706C56.738,377.117,59.591,368.015,55.752,360.647z" data-original="#000000" class="active-path" data-old_color="#000000" fill="#A9A49F"/>
	</g>
</g><g>
	<g>
		<path d="M264.002,481.75l-8,0.133c-6.75,0-13.5-0.309-20.206-0.898c-7.97-0.779-15.588,5.397-16.324,13.676    c-0.736,8.279,5.382,15.588,13.676,16.324c7.589,0.677,15.22,1.015,22.853,1.015c3.015,0,6.059-0.044,9.088-0.162    c8.308-0.294,14.809-7.279,14.5-15.588C279.296,487.927,272.37,480.911,264.002,481.75z" data-original="#000000" class="active-path" data-old_color="#000000" fill="#A9A49F"/>
	</g>
</g><g>
	<g>
		<path d="M365.972,470.97c-3.324-7.618-12.192-11.146-19.823-7.794c-8.662,3.78-17.529,6.97-26.514,9.602    c-7.985,2.338-12.573,10.706-10.235,18.677c1.927,6.574,7.927,10.838,14.455,10.838c1.397,0,2.824-0.191,4.22-0.603    c10.265-3,20.397-6.676,30.102-10.896C365.795,487.47,369.295,478.602,365.972,470.97z" data-original="#000000" class="active-path" data-old_color="#000000" fill="#A9A49F"/>
	</g>
</g><g>
	<g>
		<path d="M437.016,74.988C388.664,26.635,324.384,0.002,256.002,0.002c-48.707,0-95.21,13.741-135.48,38.989L85.944,4.415    c-3.558-3.559-8.632-5.133-13.676-4.103c-4.956,1.015-9.073,4.455-10.956,9.162L1.077,160.061    c-2.236,5.588-0.927,11.971,3.338,16.235c2.882,2.882,6.735,4.412,10.646,4.412c1.881,0,3.78-0.353,5.588-1.073L171.237,119.4    c4.706-1.882,8.147-6,9.162-10.956s-0.529-10.102-4.103-13.676l-33.844-33.844C176.585,40.979,215.416,30.121,256,30.121    c60.338,0,117.059,23.5,159.72,66.161c42.661,42.661,66.161,99.382,66.161,159.72c0,60.338-23.498,117.058-66.159,159.719    c-6.75,6.75-13.838,12.986-21.177,18.72c-6.559,5.103-7.72,14.574-2.603,21.132c2.971,3.809,7.397,5.794,11.882,5.794    c3.236,0,6.5-1.044,9.25-3.191c8.308-6.47,16.309-13.53,23.941-21.162c48.353-48.353,74.984-112.631,74.984-181.014    S485.369,123.341,437.016,74.988z" data-original="#000000" class="active-path" data-old_color="#000000" fill="#A9A49F"/>
	</g>
</g><g>
	<g>
		<path d="M374.647,245.354L266.649,137.355c-5.882-5.882-15.412-5.882-21.294,0L137.355,245.354    c-5.882,5.882-5.882,15.412,0,21.294l107.999,107.999c2.941,2.941,6.794,4.412,10.646,4.412c3.853,0,7.706-1.471,10.647-4.412    l107.999-107.999C380.529,260.767,380.529,251.236,374.647,245.354z" data-original="#000000" class="active-path" data-old_color="#000000" fill="#A9A49F"/>
	</g>
</g></g> </svg>
