<?xml version="1.0" encoding="utf-8"?>
<!-- Generator: Adobe Illustrator 16.0.0, SVG Export Plug-In . SVG Version: 6.00 Build 0)  -->
<!DOCTYPE svg PUBLIC "-//W3C//DTD SVG 1.1//EN" "http://www.w3.org/Graphics/SVG/1.1/DTD/svg11.dtd">
<svg version="1.1" id="Layer_1" xmlns="http://www.w3.org/2000/svg" xmlns:xlink="http://www.w3.org/1999/xlink" x="0px" y="0px"
	 width="48px" height="48px" viewBox="0 0 48 48" enable-background="new 0 0 48 48" xml:space="preserve">
<g>
	<path fill="#0466EF" d="M1,42.75c0,1.657,1.343,3,3,3h39.834c1.657,0,3-1.343,3-3V5.303c0-1.657-1.343-3-3-3H4
		c-1.657,0-3,1.343-3,3V42.75z"/>
</g>
<g>
	<g>
		<g>
			<path fill="#FFFFFF" d="M29.299,34.556c0.338-0.429,0.782-0.752,1.284-0.944c-0.616-1.055-0.956-2.268-0.971-3.502
				c-0.002-0.15,0.003-0.3,0.01-0.449l-1.835-0.731l-1.626-1.37c-0.43-0.362-1.063-0.336-1.462,0.061l-2.26,2.247l-2.267-2.248
				c-0.398-0.396-1.031-0.421-1.46-0.06l-1.625,1.37l-6.942,2.769c-2.235,0.89-2.233,8.806-2.425,9.533H26.75
				c-0.281-0.401-0.459-0.867-0.52-1.367c-0.094-0.795,0.129-1.58,0.625-2.209L29.299,34.556z"/>
			<path fill="#FFFFFF" d="M36.683,37.106L36.683,37.106c-0.694-0.001-1.392-0.105-2.056-0.306
				c-0.069,0.533-0.281,1.042-0.619,1.469l-2.334,2.96h5.483c-0.088-0.33-0.136-2.153-0.373-4.126
				C36.751,37.104,36.717,37.106,36.683,37.106z"/>
			<path fill="#FFFFFF" d="M17.595,13.7c1.284,0.61,3.004,0.946,4.843,0.946s3.558-0.336,4.843-0.946
				c0.793-0.377,1.351-0.831,1.615-1.3c-0.009-0.003-0.017-0.006-0.025-0.009c-0.777-9.449-5.499-4.129-6.433-4.129
				s-5.655-5.32-6.434,4.129c-0.008,0.003-0.016,0.006-0.024,0.009C16.245,12.869,16.802,13.323,17.595,13.7z"/>
			<path fill="#FFFFFF" d="M15.518,18.113c0.305,5.608,3.225,8.91,6.919,8.91c3.695,0,6.612-3.301,6.918-8.909
				c1.792-0.708,2.902-1.688,2.902-2.771c0-0.963-0.877-1.845-2.328-2.526c-0.359,0.725-1.101,1.373-2.174,1.882
				c-1.43,0.68-3.318,1.054-5.318,1.054c-1.999,0-3.888-0.375-5.318-1.054c-1.073-0.51-1.814-1.158-2.173-1.882
				c-1.452,0.681-2.329,1.563-2.329,2.526C12.619,16.425,13.727,17.405,15.518,18.113z"/>
			<path fill="#FFFFFF" d="M40.283,25.477c-2.51-1.98-6.163-1.549-8.144,0.962c-1.706,2.163-1.621,5.174,0.04,7.231l-0.83,1.054
				c-0.396,0.071-0.771,0.283-1.041,0.626l-2.444,3.099c-0.587,0.744-0.46,1.825,0.285,2.413c0.745,0.587,1.825,0.46,2.413-0.286
				l2.444-3.099c0.27-0.342,0.388-0.754,0.366-1.157l0.83-1.053c2.389,1.136,5.336,0.516,7.042-1.646
				C43.226,31.109,42.794,27.456,40.283,25.477z M39.896,32.557c-1.394,1.766-3.965,2.069-5.73,0.677
				c-1.768-1.395-2.07-3.964-0.678-5.731c1.394-1.767,3.964-2.07,5.731-0.677C40.985,28.219,41.289,30.789,39.896,32.557z"/>
		</g>
	</g>
</g>
</svg>
