<?xml version="1.0" encoding="utf-8"?>
<!-- Generator: Adobe Illustrator 16.0.0, SVG Export Plug-In . SVG Version: 6.00 Build 0)  -->
<!DOCTYPE svg PUBLIC "-//W3C//DTD SVG 1.1//EN" "http://www.w3.org/Graphics/SVG/1.1/DTD/svg11.dtd">
<svg version="1.1" id="Layer_1" xmlns="http://www.w3.org/2000/svg" xmlns:xlink="http://www.w3.org/1999/xlink" x="0px" y="0px"
	 width="48px" height="48px" viewBox="0 0 48 48" enable-background="new 0 0 48 48" xml:space="preserve">
<g>
	<path fill="#5B0505" d="M1,42.75c0,1.657,1.343,3,3,3h39.834c1.657,0,3-1.343,3-3V5.303c0-1.657-1.343-3-3-3H4
		c-1.657,0-3,1.343-3,3V42.75z"/>
</g>
<g>
	<g>
		<g id="Layer_5_56_">
			<g>
				<g>
					<g>
						<path fill="#FFFFFF" d="M27.928,12.441c0.314-0.245,0.572-0.12,0.576,0.278l0.041,4.667c0.003,0.398,0.275,0.905,0.604,1.127
							l3.868,2.612c0.33,0.223,0.291,0.508-0.086,0.634l-4.427,1.481c-0.377,0.126-0.774,0.541-0.884,0.923l-1.29,4.486
							c-0.11,0.383-0.394,0.434-0.63,0.114l-2.776-3.753c-0.237-0.319-0.755-0.569-1.152-0.556l-4.666,0.16
							c-0.397,0.014-0.533-0.24-0.302-0.563l2.71-3.801c0.231-0.323,0.309-0.894,0.173-1.267l-1.594-4.388
							c-0.136-0.374,0.063-0.581,0.442-0.462l4.452,1.404c0.379,0.12,0.945,0.017,1.259-0.227L27.928,12.441z"/>
						<path fill="#FFFFFF" d="M29.105,9.262c0.139-0.288,0.483-0.408,0.771-0.27l0,0c0.287,0.139,0.408,0.484,0.27,0.771
							l-0.565,1.171c-0.139,0.288-0.484,0.408-0.772,0.27l0,0c-0.287-0.139-0.407-0.484-0.27-0.772L29.105,9.262z"/>
					</g>
					<g>
						<path fill="#FFFFFF" d="M15.61,21.11c-0.31,0.074-0.623-0.115-0.698-0.426l0,0c-0.075-0.31,0.115-0.622,0.425-0.697
							l1.264-0.308c0.311-0.076,0.623,0.114,0.698,0.425l0,0c0.075,0.31-0.115,0.622-0.425,0.698L15.61,21.11z"/>
						<path fill="#FFFFFF" d="M19.663,11.046c-0.146-0.284-0.036-0.632,0.248-0.779l0,0c0.283-0.146,0.632-0.036,0.779,0.248
							l0.598,1.155c0.146,0.283,0.036,0.632-0.247,0.779l0,0c-0.284,0.146-0.632,0.036-0.779-0.248L19.663,11.046z"/>
					</g>
					<g>
						<path fill="#FFFFFF" d="M29.508,27.818c0.134,0.29,0.478,0.416,0.768,0.282l0,0c0.289-0.134,0.416-0.477,0.281-0.767
							l-0.545-1.181c-0.134-0.29-0.477-0.416-0.767-0.282l0,0c-0.29,0.134-0.416,0.478-0.282,0.767L29.508,27.818z"/>
						<path fill="#FFFFFF" d="M34.867,18.386c0.313-0.062,0.518-0.365,0.456-0.678l0,0c-0.062-0.314-0.365-0.518-0.679-0.457
							l-1.275,0.25c-0.314,0.061-0.518,0.364-0.457,0.678l0,0c0.063,0.313,0.365,0.518,0.679,0.456L34.867,18.386z"/>
					</g>
				</g>
				<path fill="#FFFFFF" d="M16.014,40.318c-0.138,0.286-0.485,0.407-0.772,0.27l-0.886-0.428c-0.286-0.139-0.407-0.485-0.269-0.772
					l6.492-13.448c0.138-0.286,0.485-0.407,0.771-0.27l0.887,0.428c0.286,0.139,0.408,0.485,0.269,0.772L16.014,40.318z"/>
			</g>
		</g>
	</g>
</g>
</svg>
