<?xml version="1.0" encoding="utf-8"?>
<!-- Generator: Adobe Illustrator 16.0.0, SVG Export Plug-In . SVG Version: 6.00 Build 0)  -->
<!DOCTYPE svg PUBLIC "-//W3C//DTD SVG 1.1//EN" "http://www.w3.org/Graphics/SVG/1.1/DTD/svg11.dtd">
<svg version="1.1" id="Layer_1" xmlns="http://www.w3.org/2000/svg" xmlns:xlink="http://www.w3.org/1999/xlink" x="0px" y="0px"
	 width="48px" height="48px" viewBox="0 0 48 48" enable-background="new 0 0 48 48" xml:space="preserve">
<g>
	<path fill="#891B1B" d="M1,42.75c0,1.657,1.343,3,3,3h39.834c1.657,0,3-1.343,3-3V5.303c0-1.657-1.343-3-3-3H4
		c-1.657,0-3,1.343-3,3V42.75z"/>
</g>
<g>
	<g>
		<path fill="#FFFFFF" d="M23.653,17.849c-0.117-2.24-0.436-4.465-0.587-6.703c-0.021-0.297-0.306-0.595-0.627-0.478
			c-0.782,0.285-7.257,2.679-7.13,4.057c-0.177,0.057-0.334,0.207-0.352,0.416c-0.144,1.717,0.233,3.553,0.35,5.271
			c0.131,1.937,0.123,3.853-0.235,5.766c-0.052,0.281,0.125,0.608,0.449,0.591c0.02-0.002,0.04-0.003,0.059-0.004
			c0.042-0.002,0.084-0.012,0.125-0.026c0.109,0.125,0.297,0.194,0.468,0.111c1.411-0.692,2.938-1.146,4.391-1.741
			c0.62-0.255,1.808-0.646,2.25-1.334c0.169-0.021,0.341-0.122,0.413-0.293C23.933,21.801,23.745,19.624,23.653,17.849z
			 M19.737,14.434c0.386-0.201,1.167-0.556,1.686-1.017c0.087,1.185,0.164,2.371,0.179,3.559c0,0.061,0,0.12,0,0.179
			c-0.264,0.087-0.497,0.289-0.75,0.424c-0.63,0.338-1.304,0.601-1.96,0.884c-0.519,0.225-1.642,0.596-2.308,1.133
			c-0.02-0.414-0.045-0.828-0.074-1.24c-0.046-0.664-0.008-1.451-0.085-2.178C17.467,15.478,18.623,15.013,19.737,14.434z
			 M22.59,17.578c0.001-0.201,0.002-0.401,0.002-0.602c0-0.033-0.001-0.067-0.001-0.1c0.013,0.17,0.029,0.341,0.042,0.511
			c0.005,0.067,0.007,0.132,0.011,0.199C22.626,17.581,22.608,17.579,22.59,17.578z"/>
		<path fill="#FFFFFF" d="M19.045,7.463c-1.204,0.053-2.39,0.996-3.377,1.614c-1.412,0.883-2.788,1.704-4.339,2.319
			c-0.096,0.013-0.172,0.058-0.229,0.124c-0.142,0.049-0.257,0.154-0.28,0.319c-0.175,1.268-1.098,9.2-0.502,11.933
			c-0.602,0.929,0.307,2.081,1.147,2.611c0.483,0.305,1.104,0.542,1.683,0.498c0.187-0.015,0.378-0.078,0.532-0.181
			c0.04,0.049,0.082,0.095,0.128,0.139c0.138,0.131,0.391,0.082,0.438-0.115c0.25-1.047-0.027-2.314,0.047-3.415
			c0.075-1.112,0.084-2.228,0.147-3.341c0.065-1.141,0.141-2.28,0.155-3.423c0.007-0.548,0.106-1.368-0.355-1.769
			c-0.007-0.006-0.015-0.01-0.023-0.016c0.05-0.223-0.06-0.481-0.341-0.462c-1.233,0.084-1.819-1.011-2.048-2.09
			c1.292-0.354,2.469-1.112,3.593-1.812c1.223-0.762,2.673-1.365,3.822-2.201C19.534,7.983,19.469,7.445,19.045,7.463z"/>
		<path fill="#FFFFFF" d="M21.365,10.003c-0.276-0.09-0.553,0.065-0.84,0.006C20.294,9.96,20.1,9.813,19.938,9.649
			c-0.154-0.155-0.262-0.348-0.369-0.536c-0.077-0.136-0.088-0.323-0.203-0.427c0.003-0.063-0.064-0.127-0.129-0.084
			c-0.028,0.019-0.037,0.016-0.037,0.016c-0.122-0.015-0.213,0.092-0.252,0.192c-0.203,0.523,0.249,1.201,0.602,1.54
			c0.459,0.441,1.587,0.792,2.015,0.14C21.686,10.304,21.56,10.066,21.365,10.003z"/>
		<path fill="#FFFFFF" d="M28.405,32.305c0.002-0.056-0.008-0.111-0.045-0.168c-0.731-1.102-2.009-1.917-3.037-2.729
			c-1.02-0.807-2.033-1.635-3.095-2.386c0.003-0.038,0.003-0.076-0.003-0.114c-0.279-1.457-2.723-0.646-3.518-0.3
			c-1.796,0.778-3.402,1.902-4.91,3.14c-0.189,0.155-0.055,0.404,0.136,0.458c1.261,0.974,2.535,1.928,3.783,2.918
			c1.221,0.968,2.426,2.233,3.828,2.925c0.121,0.06,0.24,0.059,0.339,0.02c0.103,0.161,0.339,0.227,0.453,0.006
			c1.064-2.068,3.532-2.92,5.755-2.968C28.548,33.096,28.652,32.55,28.405,32.305z"/>
		<path fill="#FFFFFF" d="M37.104,27.169c-0.101-0.377-0.459-0.561-0.771-0.759c-0.681-0.437-1.323-0.901-1.992-1.357
			c-1.667-1.141-2.97-2.748-4.724-3.764c-0.533-1.107-2.837,0.175-3.41,0.631c-1.217,0.967-2.892,2.925-2.68,4.616
			c0,0.007,0.003,0.013,0.005,0.02c-0.044,0.044-0.066,0.115-0.025,0.169c0.775,1.042,1.907,1.823,2.937,2.68
			c0.632,0.527,1.263,1.053,1.918,1.551c0.416,0.317,0.998,0.96,1.579,0.832c0.004-0.001,0.008-0.004,0.014-0.004
			c0.138,0.173,0.421,0.226,0.543-0.024c0.581-1.182,1.564-2.051,2.658-2.754c0.601-0.388,1.245-0.678,1.938-0.85
			c0.497-0.123,0.964,0.136,1.427-0.012c0.154-0.05,0.295-0.23,0.228-0.401c-0.009-0.021-0.02-0.035-0.029-0.055
			c0.104-0.011,0.188-0.047,0.286-0.143C37.104,27.447,37.14,27.302,37.104,27.169z"/>
		<path fill="#FFFFFF" d="M38.409,29.495c-0.463-0.448-0.933-0.938-1.515-1.229c-0.513-0.256-0.964,0.503-0.451,0.771
			c0.308,0.16,0.574,0.389,0.825,0.632c-1.683,0.716-3.405,1.383-4.979,2.305c-0.603,0.352-1.207,0.705-1.652,1.251
			c-0.603,0.74-0.568,1.864-1.939,1.527c-1.482-0.363-2.041-0.092-3.213,0.902c-1.426,1.21-3.054,2.147-4.352,3.498
			c-1.643-1.475-3.562-2.552-5.274-3.942c-1.242-1.008-1.151-2.553-1.88-3.868c-0.144-0.26-0.536-0.08-0.468,0.197
			c0.333,1.354,0.251,2.718,1.172,3.83c0.66,0.798,1.666,1.364,2.505,1.942c1.271,0.876,2.524,1.76,3.637,2.835
			c0.176,0.17,0.497,0.196,0.669,0c1.256-1.435,2.908-2.398,4.38-3.586c0.708-0.572,1.258-1.292,2.229-1
			c0.742,0.222,1.211,0.277,1.953,0.023c0.39-0.135,0.642-0.469,0.853-0.799c0.143-0.226,0.229-0.505,0.341-0.746
			c0.276-0.604,0.977-0.925,1.521-1.243c1.758-1.03,3.702-1.695,5.544-2.566C38.587,30.102,38.612,29.692,38.409,29.495z"/>
		<path fill="#FFFFFF" d="M32.981,34.883"/>
	</g>
</g>
</svg>
