<?xml version="1.0" encoding="utf-8"?>
<!-- Generator: Adobe Illustrator 16.0.0, SVG Export Plug-In . SVG Version: 6.00 Build 0)  -->
<!DOCTYPE svg PUBLIC "-//W3C//DTD SVG 1.1//EN" "http://www.w3.org/Graphics/SVG/1.1/DTD/svg11.dtd">
<svg version="1.1" id="Layer_1" xmlns="http://www.w3.org/2000/svg" xmlns:xlink="http://www.w3.org/1999/xlink" x="0px" y="0px"
	 width="48px" height="48px" viewBox="0 0 48 48" enable-background="new 0 0 48 48" xml:space="preserve">
<g>
	<path fill="#FF0000" d="M1,42.75c0,1.657,1.343,3,3,3h39.834c1.657,0,3-1.343,3-3V5.303c0-1.657-1.343-3-3-3H4
		c-1.657,0-3,1.343-3,3V42.75z"/>
</g>
<g>
	<path fill="#FFFFFF" d="M9.758,18.706h10.418c1.705,0,3.091-1.387,3.091-3.091c0-1.705-1.386-3.092-3.091-3.092
		c-0.198,0-0.397,0.019-0.591,0.057c-0.455-1.256-1.62-2.094-2.925-2.094c-0.056,0-0.108,0.003-0.154,0.006
		c-0.013,0.001-0.027,0.002-0.041,0.003C15.943,8.823,14.415,7.7,12.662,7.7c-2.197,0-3.985,1.788-3.985,3.985
		c0,0.328,0.042,0.659,0.125,0.99c-1.263,0.41-2.136,1.605-2.136,2.94C6.667,17.319,8.053,18.706,9.758,18.706z"/>
	<path fill="#FFFFFF" d="M40.083,27.711c-0.352-0.022-0.729-0.033-1.125-0.033c-1.093,0-2.493,0.081-4.195,0.333v-2.842h5.701
		c0.249,0,0.449-0.106,0.547-0.291c0.098-0.184,0.075-0.404-0.061-0.606l-3.206-4.766h0.929c0.23,0,0.414-0.1,0.506-0.275
		c0.091-0.174,0.069-0.38-0.06-0.565l-3.289-4.746h1.054c0.207,0,0.381-0.098,0.463-0.262c0.083-0.164,0.061-0.36-0.062-0.525
		l-4.208-5.734c-0.109-0.147-0.271-0.232-0.444-0.232c-0.173,0-0.336,0.085-0.444,0.233l-4.209,5.732
		c-0.122,0.166-0.146,0.362-0.063,0.526s0.257,0.262,0.465,0.262h1.054l-3.291,4.745c-0.129,0.185-0.149,0.392-0.059,0.565
		c0.092,0.175,0.275,0.276,0.505,0.276h0.93l-3.207,4.763c-0.136,0.203-0.158,0.423-0.06,0.607c0.099,0.186,0.298,0.292,0.547,0.292
		h5.677v3.727c-1.485,0.386-3.112,0.887-4.882,1.532c-5.705,2.083-10.224,4.64-12.41,5.979c-1.5,0.918-2.786,1.798-3.721,2.545
		c-1.396,1.116-1.463,1.491-1.417,1.754c0.036,0.204,0.208,0.421,0.581,0.421h31.225c0.03,0.003,0.075,0.007,0.133,0.007l0,0
		c0.177,0,0.516-0.033,0.813-0.256c0.243-0.181,0.531-0.546,0.531-1.255V28.997C41.33,28.446,41.114,27.775,40.083,27.711z"/>
	<path fill="#FFFFFF" d="M23.932,28.561c0.202-0.077,0.354-0.28,0.376-0.506c0.018-0.19-0.062-0.36-0.215-0.456
		c-3.449-2.148-10.535-3.815-14.329-3.815c-2.087,0-3.146,0.481-3.146,1.43v11.732c0,0.462,0.281,0.669,0.558,0.669
		c0.217,0,0.388-0.122,0.451-0.174c0.134-0.111,0.262-0.214,0.382-0.309c1.009-0.807,2.378-1.745,3.959-2.714
		C14.07,33.131,18.418,30.659,23.932,28.561z"/>
</g>
</svg>
