<?xml version="1.0" encoding="utf-8"?>
<!-- Generator: Adobe Illustrator 16.0.0, SVG Export Plug-In . SVG Version: 6.00 Build 0)  -->
<!DOCTYPE svg PUBLIC "-//W3C//DTD SVG 1.1//EN" "http://www.w3.org/Graphics/SVG/1.1/DTD/svg11.dtd">
<svg version="1.1" id="Layer_1" xmlns="http://www.w3.org/2000/svg" xmlns:xlink="http://www.w3.org/1999/xlink" x="0px" y="0px"
	 width="48px" height="48px" viewBox="0 0 48 48" enable-background="new 0 0 48 48" xml:space="preserve">
<g>
	<path fill="#F4C500" d="M1,42.75c0,1.657,1.343,3,3,3h39.834c1.657,0,3-1.343,3-3V5.303c0-1.657-1.343-3-3-3H4
		c-1.657,0-3,1.343-3,3V42.75z"/>
</g>
<path fill="#FFFFFF" d="M36.729,7.355c-1.998,0-3.649,1.482-3.927,3.404h-2.314v2.269c0,0.314-0.255,0.567-0.567,0.567
	c-0.314,0-0.567-0.253-0.567-0.567V10.76h-1.136v3.404c0,0.313-0.252,0.567-0.567,0.567c-0.313,0-0.566-0.254-0.566-0.567V10.76
	H15.69c-0.276-1.922-1.929-3.404-3.926-3.404c-2.189,0-3.971,1.781-3.971,3.971v23.261c0,2.19,1.782,3.972,3.971,3.972h5.674v-3.404
	c0-0.313,0.254-0.567,0.567-0.567s0.567,0.255,0.567,0.567v3.404h1.135v-1.701c0-0.314,0.254-0.567,0.567-0.567
	c0.314,0,0.567,0.253,0.567,0.567v1.701h15.887c2.188,0,3.971-1.781,3.971-3.972V11.327C40.699,9.137,38.917,7.355,36.729,7.355z
	 M14.601,31.812c-0.721-0.736-1.727-1.194-2.837-1.194s-2.115,0.458-2.836,1.194V11.327c0-1.564,1.272-2.836,2.836-2.836
	c1.564,0,2.837,1.272,2.837,2.836V31.812z M18.406,20.806l-0.802-0.802l1.301-1.301l-1.301-1.301l0.802-0.802l1.301,1.301
	l1.301-1.301l0.802,0.802l-1.301,1.301l1.301,1.301l-0.802,0.802l-1.301-1.301L18.406,20.806z M19.921,23.503
	c-0.242,0-0.465-0.156-0.541-0.398c-0.16-0.507-0.241-1.034-0.241-1.565c0-0.314,0.253-0.568,0.567-0.568
	c0.313,0,0.567,0.254,0.567,0.568c0,0.416,0.063,0.828,0.188,1.226c0.094,0.299-0.072,0.617-0.371,0.711
	C20.035,23.495,19.978,23.503,19.921,23.503z M22.722,26.082c-0.107,0.178-0.294,0.276-0.487,0.276c-0.099,0-0.2-0.026-0.292-0.081
	c-0.604-0.363-1.132-0.814-1.565-1.343c-0.199-0.242-0.164-0.599,0.079-0.798c0.244-0.2,0.601-0.163,0.798,0.079
	c0.351,0.427,0.779,0.793,1.272,1.09C22.796,25.466,22.883,25.814,22.722,26.082z M27.318,27.03
	c-0.077,0.242-0.301,0.397-0.541,0.397c-0.059,0-0.115-0.009-0.17-0.026c-0.398-0.125-0.811-0.188-1.227-0.188
	c-0.52,0-1.036-0.058-1.537-0.173c-0.305-0.069-0.496-0.374-0.427-0.68c0.071-0.306,0.374-0.499,0.68-0.426
	c0.417,0.095,0.848,0.145,1.284,0.145c0.531,0,1.059,0.08,1.565,0.239C27.247,26.413,27.411,26.731,27.318,27.03z M29.146,29.466
	c-0.296-0.492-0.663-0.921-1.091-1.272c-0.241-0.199-0.276-0.557-0.078-0.799c0.199-0.241,0.557-0.276,0.799-0.078
	c0.528,0.435,0.98,0.961,1.342,1.566c0.162,0.268,0.074,0.617-0.195,0.778c-0.091,0.055-0.191,0.08-0.291,0.08
	C29.44,29.741,29.252,29.644,29.146,29.466z M30.487,32.887c-0.314,0-0.567-0.255-0.567-0.567c0-0.437-0.049-0.867-0.145-1.283
	c-0.071-0.306,0.12-0.609,0.426-0.68c0.306-0.069,0.609,0.12,0.68,0.425c0.115,0.5,0.174,1.017,0.174,1.538
	C31.055,32.632,30.8,32.887,30.487,32.887z M39.564,31.812c-0.722-0.736-1.727-1.194-2.836-1.194c-1.111,0-2.116,0.458-2.838,1.194
	V11.327c0-1.564,1.273-2.836,2.838-2.836c1.563,0,2.836,1.272,2.836,2.836V31.812z"/>
</svg>
