<?xml version="1.0" encoding="utf-8"?>
<!-- Generator: Adobe Illustrator 16.0.0, SVG Export Plug-In . SVG Version: 6.00 Build 0)  -->
<!DOCTYPE svg PUBLIC "-//W3C//DTD SVG 1.1//EN" "http://www.w3.org/Graphics/SVG/1.1/DTD/svg11.dtd">
<svg version="1.1" id="Layer_1" xmlns="http://www.w3.org/2000/svg" xmlns:xlink="http://www.w3.org/1999/xlink" x="0px" y="0px"
	 width="48px" height="48px" viewBox="0 0 48 48" enable-background="new 0 0 48 48" xml:space="preserve">
<g>
	<path fill="#32353A" d="M1,42.75c0,1.657,1.343,3,3,3h39.834c1.657,0,3-1.343,3-3V5.303c0-1.657-1.343-3-3-3H4
		c-1.657,0-3,1.343-3,3V42.75z"/>
</g>
<g>
	<path fill="#FFFFFF" d="M24.153,30.635h8.705v1.855h-8.705V30.635z M26.092,28.934h6.766v-1.857h-6.766V28.934z M34.28,8.302
		H16.028c-1.646,0-2.983,1.528-2.983,3.408v21.718l1.777-2.605V11.709c0-0.884,0.553-1.631,1.207-1.631H34.28
		c0.654,0,1.207,0.748,1.207,1.631v21.96c0,0.885-0.553,1.631-1.207,1.631H18.827l-1.214,1.775h16.667
		c1.646,0,2.984-1.527,2.984-3.406v-21.96C37.266,9.83,35.928,8.302,34.28,8.302z M14.822,33.67v-2.85l2.501-3.664l0.829-1.215
		l0.924-1.355c0.063-0.123,0.139-0.242,0.242-0.355l0.047-0.066l0.013,0.008c0.083-0.082,0.173-0.164,0.28-0.238l4.663-3.226
		c0.323-0.223,0.603-0.329,0.821-0.329c0.441,0,0.639,0.43,0.455,1.2l-1.304,5.517c-0.029,0.129-0.082,0.232-0.129,0.342
		l0.019,0.012l-0.055,0.08c-0.058,0.113-0.128,0.209-0.204,0.297l-0.955,1.4l-4.144,6.074h-1.553l4.932-7.229
		c-0.063-0.033-0.124-0.051-0.185-0.092l-0.396-0.271c0,0-3.484,5.107-5.179,7.592h-0.418C15.375,35.301,14.822,34.553,14.822,33.67
		z M20.298,24.801l2.956,2.018l1.147-4.855L20.298,24.801z M27.082,25.381h5.775v-1.857h-5.775V25.381z M15.309,36.967
		c0.231,0.064,0.472,0.111,0.719,0.111h0.032l1.213-1.777h-0.829C16.073,35.846,15.38,36.863,15.309,36.967z M32.857,12.856H21.819
		v1.856h11.038V12.856z M27.082,21.824h5.775v-1.855h-5.775V21.824z M20.229,19.968h-2.74v1.855h2.74V19.968z M32.857,16.412H17.489
		v1.856h15.369V16.412z M16.062,37.076h1.552l-3.231,4.738c-0.033,0.049-0.078,0.084-0.114,0.127
		c-0.024,0.049-0.041,0.1-0.071,0.145c-0.198,0.289-0.515,0.463-0.883,0.529c-0.231,0.08-0.469,0.135-0.712,0.135
		c-0.419,0-0.838-0.119-1.208-0.373l-1.262-0.861c-0.602-0.408-0.924-1.072-0.934-1.754c-0.06-0.348-0.005-0.688,0.183-0.965
		c0.025-0.039,0.063-0.068,0.095-0.104c0.031-0.057,0.055-0.115,0.091-0.168l1.738-2.547l1.741-2.551v0.242
		c0,1.592,0.966,2.926,2.265,3.295c-0.013,0.02-0.208,0.305-0.208,0.305l0.565,0.385L16.062,37.076z M15.231,38.66l-3.039-2.074
		l-1.16,1.697c0.338,0.066,0.688,0.203,1.012,0.426l1.261,0.863c0.326,0.219,0.579,0.496,0.765,0.787L15.231,38.66z M20.229,12.856
		h-2.74v1.856h2.74V12.856z"/>
</g>
</svg>
