<?xml version="1.0" encoding="utf-8"?>
<!-- Generator: Adobe Illustrator 16.0.0, SVG Export Plug-In . SVG Version: 6.00 Build 0)  -->
<!DOCTYPE svg PUBLIC "-//W3C//DTD SVG 1.1//EN" "http://www.w3.org/Graphics/SVG/1.1/DTD/svg11.dtd">
<svg version="1.1" id="Layer_1" xmlns="http://www.w3.org/2000/svg" xmlns:xlink="http://www.w3.org/1999/xlink" x="0px" y="0px"
	 width="48px" height="48px" viewBox="0 0 48 48" enable-background="new 0 0 48 48" xml:space="preserve">
<g>
	<path fill="#00695C" d="M1,42.75c0,1.657,1.343,3,3,3h39.834c1.657,0,3-1.343,3-3V5.303c0-1.657-1.343-3-3-3H4
		c-1.657,0-3,1.343-3,3V42.75z"/>
</g>
<g>
	<path fill="#FFFFFF" d="M44.109,22.75c-0.414-3.164-4.205-7.558-4.205-7.558c-0.988-2.543-3.541-1.697-3.541-1.697l-1.705,0.46
		c-1.688,0.507-1.607,2.716-0.875,3.163c0.32,0.196,1.262,0.247,1.539,0c0.082-0.075,0.02-0.434,0.02-0.434
		c1.791,0.098,1.92-0.939,1.92-0.939l0.609-0.122c0.611-0.333,0.744,1.082,0.744,1.082c-0.414,4.009,1.322,5.477,1.322,5.477
		c-0.25,0.796-1.125,0.643-1.125,0.643c-2.775-1.442-4.834,1.283-4.834,1.283c-1.57-1.337-4.809,1.031-4.809,1.031
		c-1.814,0.358-1.922-1.825-1.922-1.825s-0.084-1.391-0.143-1.518c-0.086-0.217,0.386-0.107,0.386-0.107
		c1.596-2.904,0-2.517,0-2.517c0.386-5.01-4.006-3.958-4.006-3.958c-3.379,0.926-2.141,4.291-2.141,4.291
		c-0.742-0.18-0.386,0.925-0.386,0.925c0.192,1.698,0.799,1.313,0.799,1.313c0.078,0.594,0.412,1.414,0.412,1.414l0.051,1.364
		c-0.381,2.264-2.771,0.386-2.771,0.386c-1.402-1.977-4.917-0.871-4.917-0.871c-1.815-2.701-4.675-1.16-4.675-1.16
		c0.304-0.671-0.052-4.009-0.052-4.009c0.355-0.413,1.068-2.748,1.068-2.748c0.305,0.412,1.681,0.485,1.681,0.485
		c0.105,0.62,0.547,0.872,0.547,0.872c0.935,0.387,0.547-2.672,0.547-2.672c0.244-0.972-1.317-1.205-1.317-1.205
		c-2.724-0.75-3.354,0.971-3.354,0.971l-0.711,1.546c-1.014,1.105-2.918,4.882-2.918,4.882c-1.096,3.006-0.046,3.547-0.046,3.547
		l1.977,1.537c3.354,3.246,5.38,2.78,5.38,2.78c2.697-0.051,2.475,1.695,2.475,1.695c0.107,2.674,1.974,5.446,1.974,5.446
		c0.137,0.466,0.235,0.959,0.332,1.447h12.787c0.236-0.527,0.482-1.021,0.702-1.328c1.046-1.479,2.478-3.396,3.003-4.668
		c1.033-2.5,1.521-2.44,1.521-2.44c3.686,0,5.717-2.671,5.717-2.671c0.604-0.773,1.521-1.727,2.193-2.109
		C44.27,23.718,44.109,22.75,44.109,22.75z"/>
</g>
</svg>
