<?xml version="1.0" encoding="utf-8"?>
<!-- Generator: Adobe Illustrator 16.0.0, SVG Export Plug-In . SVG Version: 6.00 Build 0)  -->
<!DOCTYPE svg PUBLIC "-//W3C//DTD SVG 1.1//EN" "http://www.w3.org/Graphics/SVG/1.1/DTD/svg11.dtd">
<svg version="1.1" id="Layer_1" xmlns="http://www.w3.org/2000/svg" xmlns:xlink="http://www.w3.org/1999/xlink" x="0px" y="0px"
	 width="48px" height="48px" viewBox="0 0 48 48" enable-background="new 0 0 48 48" xml:space="preserve">
<g>
	<path fill="#004D40" d="M1,42.75c0,1.657,1.343,3,3,3h39.834c1.657,0,3-1.343,3-3V5.303c0-1.657-1.343-3-3-3H4
		c-1.657,0-3,1.343-3,3V42.75z"/>
</g>
<path fill-rule="evenodd" clip-rule="evenodd" fill="#FFFFFF" d="M37.956,36.355c-0.328,0.416-0.59,0.747-0.976,1.236
	c0-0.942,0-1.719,0-2.541c-2.036,0-3.966,0-5.972,0c0,0.456,0,0.895,0,1.334c-0.052,0.023-0.103,0.047-0.152,0.07
	c-0.278-0.334-0.555-0.668-0.872-1.049c-0.304,0.358-0.588,0.695-0.995,1.18c0-0.589,0-1.033,0-1.57
	c-0.458,0-0.814-0.047-1.146,0.021c-0.186,0.036-0.419,0.236-0.48,0.414c-0.387,1.11-1.064,1.646-2.233,1.664
	c-0.832,0.013-1.663,0.015-2.494-0.012c-0.991-0.032-1.775-0.538-2-1.431c-0.151-0.602-0.463-0.681-0.966-0.648
	c-0.396,0.028-0.793,0.007-1.263,0.007c0,0.409,0,0.732,0,1.056c0,0.314,0,0.629,0,1.143c-0.412-0.497-0.69-0.836-1.012-1.223
	c-0.325,0.379-0.621,0.729-1.021,1.197c0-0.795,0-1.435,0-2.167c-1.738,0-3.415-0.013-5.092,0.023
	c-0.124,0.003-0.331,0.33-0.344,0.521c-0.046,0.588-0.017,1.182-0.017,1.98c-0.407-0.479-0.674-0.797-1-1.181
	c-0.305,0.355-0.589,0.686-0.976,1.135c0-0.869,0-1.62,0-2.467c-0.958,0-1.823,0-2.709,0c-0.299-1.616,0.022-3.219-0.453-4.88
	c2.202-2.329,4.531-4.798,6.862-7.263c0.674-0.713,1.374-1.403,2.017-2.145c0.291-0.336,0.546-0.359,0.914-0.191
	c1.542,0.701,3.07,0.714,4.675,0.094c1.107-0.429,2.294-0.825,3.512-0.252c0.083,0.04,0.213,0.06,0.29,0.022
	c1.271-0.614,2.494-0.165,3.653,0.272c1.591,0.598,3.091,0.501,4.628-0.118c0.218-0.088,0.652,0.01,0.817,0.183
	c3.01,3.145,5.995,6.313,8.803,9.285c-0.108,1.74-0.204,3.292-0.31,4.952c-0.852,0-1.714,0-2.626,0c0,0.859,0,1.609,0,2.604
	C38.596,37.109,38.309,36.771,37.956,36.355z M40.818,31.045c-0.291,0.095-0.458,0.145-0.621,0.2
	c-2.929,0.987-5.854,1.194-8.778-0.027c-0.438-0.184-0.899-0.34-1.366-0.425c-1.329-0.247-2.661-0.501-4.004-0.645
	c-0.615-0.065-1.235,0.152-1.459,0.919c2.891-0.774,5.414,0.392,7.979,1.306c-0.219,0.053-0.418,0-0.615-0.056
	c-1.284-0.363-2.547-0.835-3.854-1.055c-0.987-0.168-2.032-0.066-3.043,0.022c-0.436,0.038-0.762,0.386-0.494,0.959
	c1.203-0.576,2.412-0.439,3.618-0.081c-0.448,0.046-0.891-0.035-1.336-0.046c-0.45-0.012-0.904,0.024-1.352,0.083
	c-0.72,0.097-1.153,0.447-1.036,1.259c0.03,0.212-0.025,0.436-0.041,0.655c-0.353,0-0.643,0-0.925,0
	c-0.241-1.736-0.569-2.036-2.176-2.011c-0.25,0.006-0.5,0.042-0.749,0.072c-0.521,0.063-1.043,0.131-1.564,0.196
	c-0.009-0.073-0.019-0.148-0.029-0.226c0.732-0.096,1.463-0.27,2.195-0.27c0.731,0,1.463,0.174,2.239,0.276
	c0.078-0.451-0.217-0.784-0.656-0.858c-0.755-0.127-1.563-0.304-2.292-0.163c-1.575,0.302-3.113,0.793-4.667,1.206
	c-0.182,0.049-0.363,0.097-0.546,0.146c-0.014-0.085-0.027-0.17-0.041-0.256c2.634-0.7,5.167-2.033,8.111-1.098
	c-0.314-0.867-0.979-0.99-1.667-1.005c-1.847-0.038-3.59,0.497-5.286,1.131c-2.213,0.83-4.447,1.035-6.745,0.521
	c-0.831-0.185-1.647-0.434-2.574-0.682c0.045,0.981,0.089,1.918,0.133,2.88c0.623,0,1.137,0,1.674,0
	c0.038-0.332,0.071-0.623,0.11-0.977c0.586,0.101,1.128,0.178,1.663,0.292c0.107,0.022,0.179,0.188,0.282,0.27
	c0.195,0.158,0.394,0.421,0.6,0.433c1.006,0.044,2.015,0.02,3.022,0.02c0.59,0,1.18,0,1.751,0c0.14-1.214,0.227-1.27,2.092-1.398
	c0.026,0.44,0.052,0.879,0.083,1.414c1.042,0,2.031,0,3.025,0c0.015,0.251,0.026,0.4,0.033,0.551c0.056,1.154,0.379,1.472,1.52,1.48
	c0.428,0.004,0.856,0.004,1.284,0.002c1.841-0.002,1.841-0.002,2.062-1.839c0.005-0.047,0.042-0.088,0.102-0.21
	c0.358,0,0.754,0,1.15,0c0.417,0,0.835,0,1.308,0c0-0.445-0.005-0.768,0.002-1.091c0.008-0.338,0.027-0.679,0.046-1.093
	c0.681,0.196,1.415,0.215,1.831,0.588c0.299,0.269,0.171,1.01,0.235,1.556c1.979,0,3.903,0,5.832,0
	c0.052-0.249,0.091-0.441,0.139-0.669c0.639-0.097,1.271-0.191,1.913-0.289c0.047,0.375,0.085,0.662,0.123,0.953
	c0.549,0,1.043,0,1.592,0C40.707,33.005,40.76,32.085,40.818,31.045z M23.283,29.435c0.063-0.097,0.113-0.138,0.113-0.18
	c0.007-2.464,0.009-4.932,0.015-7.396c0.001-0.489-0.276-0.723-0.716-0.646c-0.813,0.141-1.638,0.28-2.414,0.548
	c-1.46,0.504-2.91,0.584-4.357,0.053c-0.493-0.181-0.766-0.036-1.087,0.309c-1.661,1.786-3.343,3.553-5.019,5.329
	c-0.789,0.833-1.579,1.668-2.438,2.576c2.338,0.827,4.587,1.378,6.948,0.749c1.237-0.328,2.437-0.801,3.673-1.133
	C19.727,29.182,21.467,28.72,23.283,29.435z M24.472,29.192c1.181,0,2.272-0.159,3.299,0.035c1.646,0.313,3.267,0.796,4.862,1.319
	c2.653,0.871,5.181,0.457,7.696-0.483c-0.025-0.122-0.02-0.185-0.047-0.213c-2.497-2.657-4.987-5.315-7.505-7.949
	c-0.133-0.14-0.504-0.163-0.721-0.096c-1.513,0.467-2.99,0.511-4.502-0.063c-0.742-0.283-1.553-0.393-2.341-0.529
	c-0.423-0.073-0.742,0.109-0.742,0.616C24.472,24.34,24.472,26.851,24.472,29.192z"/>
<path fill-rule="evenodd" clip-rule="evenodd" fill="#FFFFFF" d="M31.08,19.037c-0.201,0.185-0.361,0.332-0.52,0.477
	c-4.043-3.736-9.685-3.438-13.282,0.017c-0.152-0.161-0.304-0.32-0.454-0.478C20.053,15.366,26.965,14.775,31.08,19.037z"/>
<path fill-rule="evenodd" clip-rule="evenodd" fill="#FFFFFF" d="M22.985,15.024c0.286-2.108,0.563-4.157,0.84-6.207
	c0.05,0,0.101,0.001,0.152,0.003c0.273,2.046,0.545,4.092,0.828,6.204C24.171,15.024,23.612,15.024,22.985,15.024z"/>
<path fill-rule="evenodd" clip-rule="evenodd" fill="#FFFFFF" d="M36.822,14.033c-1.293,1.691-2.587,3.382-3.912,5.114
	c-0.407-0.468-0.789-0.907-1.189-1.369c1.612-1.234,3.314-2.535,5.018-3.837C36.767,13.972,36.794,14.002,36.822,14.033z"/>
<path fill-rule="evenodd" clip-rule="evenodd" fill="#FFFFFF" d="M20.234,15.617c-0.566,0.234-1.086,0.45-1.697,0.703
	c-0.561-2.107-1.101-4.132-1.639-6.157c0.046-0.019,0.092-0.038,0.138-0.057C18.088,11.92,19.141,13.734,20.234,15.617z"/>
<path fill-rule="evenodd" clip-rule="evenodd" fill="#FFFFFF" d="M16.139,17.824c-0.447,0.488-0.817,0.891-1.237,1.35
	c-1.334-1.748-2.633-3.45-3.931-5.151c0.025-0.026,0.05-0.054,0.076-0.081C12.745,15.236,14.443,16.531,16.139,17.824z"/>
<path fill-rule="evenodd" clip-rule="evenodd" fill="#FFFFFF" d="M29.258,16.295c-0.571-0.223-1.077-0.42-1.703-0.664
	c1.104-1.904,2.177-3.756,3.249-5.607c0.04,0.016,0.08,0.029,0.12,0.044C30.375,12.122,29.825,14.175,29.258,16.295z"/>
<path fill-rule="evenodd" clip-rule="evenodd" fill="#FFFFFF" d="M40.723,19.967c-1.642,0.953-3.282,1.905-4.969,2.884
	c-0.42-0.424-0.822-0.83-1.326-1.337c2.147-0.573,4.184-1.116,6.221-1.659C40.674,19.893,40.697,19.931,40.723,19.967z"/>
<path fill-rule="evenodd" clip-rule="evenodd" fill="#FFFFFF" d="M13.346,21.503c-0.499,0.504-0.901,0.91-1.322,1.336
	c-1.678-0.972-3.321-1.922-4.963-2.874c0.016-0.038,0.03-0.076,0.045-0.114C9.14,20.389,11.175,20.928,13.346,21.503z"/>
<path fill-rule="evenodd" clip-rule="evenodd" fill="#FFFFFF" d="M22.578,25.935c-0.196,0.166-0.37,0.425-0.593,0.479
	c-1.579,0.394-3.192,0.664-4.747,1.133c-1.286,0.387-2.548,0.511-3.904,0.318c0-0.23,0-0.441,0-0.628
	c0.085-0.05,0.131-0.1,0.169-0.094c1.863,0.258,3.567-0.359,5.29-0.919c1.168-0.382,2.362-0.677,3.606-0.551
	C22.458,25.762,22.518,25.848,22.578,25.935z"/>
<path fill-rule="evenodd" clip-rule="evenodd" fill="#FFFFFF" d="M22.47,24.034c0,0.244,0,0.436,0,0.718
	c-2.783-0.065-5.194,1.995-8.155,1.245c0.032-0.222,0.064-0.449,0.106-0.749C17.277,25.915,19.649,23.831,22.47,24.034z"/>
<path fill-rule="evenodd" clip-rule="evenodd" fill="#FFFFFF" d="M15.074,24.24c0.25-0.257,0.456-0.608,0.584-0.582
	c1.733,0.359,3.241-0.46,4.832-0.848c0.647-0.158,1.318-0.223,2.032-0.339c0,0.322,0,0.534,0,0.813
	C20.054,23.268,17.895,25.117,15.074,24.24z"/>
<path fill-rule="evenodd" clip-rule="evenodd" fill="#FFFFFF" d="M25.359,25.432c1.504,0.331,2.844,0.531,4.124,0.928
	c1.619,0.499,3.199,1.087,4.967,0.71c0.059,0.286,0.101,0.497,0.151,0.74c-1.31,0.307-2.54,0.159-3.767-0.184
	c-1.757-0.491-3.52-0.969-5.278-1.454c-0.036,0.066-0.072,0.132-0.11,0.199C25.427,26.158,25.407,25.946,25.359,25.432z"/>
<path fill-rule="evenodd" clip-rule="evenodd" fill="#FFFFFF" d="M33.53,25.988c-2.89,0.803-5.298-1.281-8.088-1.216
	c-0.03-0.245-0.058-0.455-0.085-0.697c0.131-0.032,0.231-0.09,0.313-0.071c1.346,0.294,2.682,0.637,4.034,0.887
	c1.074,0.198,2.166,0.339,3.255,0.402C33.457,25.322,33.577,25.486,33.53,25.988z"/>
<path fill-rule="evenodd" clip-rule="evenodd" fill="#FFFFFF" d="M25.328,23.28c-0.019-0.264-0.033-0.455-0.047-0.647
	c0.098-0.041,0.172-0.103,0.231-0.091c0.979,0.191,1.982,0.312,2.93,0.609c1.308,0.408,2.596,0.773,4.005,0.43
	c0.079,0.267,0.137,0.471,0.202,0.694C30.027,25.15,27.848,23.313,25.328,23.28z"/>
</svg>
