<?xml version="1.0" encoding="utf-8"?>
<!-- Generator: Adobe Illustrator 16.0.0, SVG Export Plug-In . SVG Version: 6.00 Build 0)  -->
<!DOCTYPE svg PUBLIC "-//W3C//DTD SVG 1.1//EN" "http://www.w3.org/Graphics/SVG/1.1/DTD/svg11.dtd">
<svg version="1.1" id="Layer_1" xmlns="http://www.w3.org/2000/svg" xmlns:xlink="http://www.w3.org/1999/xlink" x="0px" y="0px"
	 width="48px" height="48px" viewBox="0 0 48 48" enable-background="new 0 0 48 48" xml:space="preserve">
<g>
	<path fill="#212121" d="M1,42.75c0,1.657,1.343,3,3,3h39.834c1.657,0,3-1.343,3-3V5.303c0-1.657-1.343-3-3-3H4
		c-1.657,0-3,1.343-3,3V42.75z"/>
</g>
<g id="_x33_7-People_watching_movie">
	<path fill="#FFFFFF" d="M40.937,9.66h-7.971H15.481H7.51H7.237v11.369v3.935v11.369h2.917c0.062-1.064,0.34-2.093,0.814-2.997
		c0.259-0.492,0.569-0.938,0.923-1.329c-0.456-0.759-0.708-1.65-0.708-2.576c0-1.194,0.414-2.285,1.095-3.122
		c-0.893-1.204-1.84-2.259-2.669-3.103c0.546-0.133,1.183-0.356,1.883-0.727c2.468-1.307,4.667-3.823,6.554-7.49
		c1.911,0.261,3.995,0.404,6.176,0.404c2.182,0,4.266-0.144,6.177-0.404c1.887,3.667,4.086,6.184,6.554,7.49
		c0.7,0.37,1.336,0.594,1.882,0.727c-0.828,0.844-1.775,1.898-2.668,3.103c0.681,0.837,1.095,1.929,1.095,3.122
		c0,0.926-0.252,1.817-0.708,2.576c0.354,0.391,0.665,0.837,0.923,1.329c0.476,0.904,0.754,1.933,0.815,2.997h2.917V24.963v-3.935
		V9.66H40.937L40.937,9.66z M11.12,21.576c-0.232,0.127-0.457,0.234-0.671,0.326c1.735-1.905,3.706-4.54,4.633-7.442
		c0.622,0.14,1.271,0.265,1.947,0.376C14.884,18.876,12.679,20.729,11.12,21.576z M31.417,14.835
		c0.676-0.111,1.326-0.236,1.947-0.376c0.928,2.903,2.898,5.538,4.635,7.442C36.22,21.139,33.771,19.281,31.417,14.835z"/>
	<path fill="#FFFFFF" d="M17.348,32.176c0.801-0.596,1.328-1.604,1.328-2.746c0-1.83-1.351-3.314-3.017-3.314
		c-1.667,0-3.017,1.484-3.017,3.314c0,1.143,0.526,2.15,1.328,2.746c-1.398,0.8-2.37,2.562-2.37,4.606
		c0,2.799,1.817,2.937,4.059,2.937c2.243,0,4.06-0.138,4.06-2.937C19.718,34.737,18.746,32.976,17.348,32.176z"/>
	<path fill="#FFFFFF" d="M25.919,32.176c0.801-0.596,1.327-1.604,1.327-2.746c0-1.83-1.35-3.314-3.017-3.314
		c-1.666,0-3.017,1.484-3.017,3.314c0,1.143,0.527,2.15,1.328,2.746c-1.398,0.8-2.371,2.562-2.371,4.606
		c0,2.799,1.817,2.937,4.06,2.937s4.06-0.138,4.06-2.937C28.289,34.737,27.317,32.976,25.919,32.176z"/>
	<path fill="#FFFFFF" d="M34.477,32.176c0.802-0.596,1.328-1.604,1.328-2.746c0-1.83-1.352-3.314-3.018-3.314
		s-3.017,1.484-3.017,3.314c0,1.143,0.526,2.15,1.327,2.746c-1.398,0.8-2.37,2.562-2.37,4.606c0,2.799,1.818,2.937,4.06,2.937
		c2.242,0,4.061-0.138,4.061-2.937C36.848,34.737,35.875,32.976,34.477,32.176z"/>
</g>
</svg>
