<?xml version="1.0" encoding="utf-8"?>
<!-- Generator: Adobe Illustrator 16.0.0, SVG Export Plug-In . SVG Version: 6.00 Build 0)  -->
<!DOCTYPE svg PUBLIC "-//W3C//DTD SVG 1.1//EN" "http://www.w3.org/Graphics/SVG/1.1/DTD/svg11.dtd">
<svg version="1.1" id="Layer_1" xmlns="http://www.w3.org/2000/svg" xmlns:xlink="http://www.w3.org/1999/xlink" x="0px" y="0px"
	 width="48px" height="48px" viewBox="0 0 48 48" enable-background="new 0 0 48 48" xml:space="preserve">
<g>
	<path fill="#616161" d="M1,42.75c0,1.657,1.343,3,3,3h39.834c1.657,0,3-1.343,3-3V5.303c0-1.657-1.343-3-3-3H4
		c-1.657,0-3,1.343-3,3V42.75z"/>
</g>
<g>
	<path fill="#FFFFFF" d="M37.735,37.801l-0.823-4.35c-0.106-0.557-0.375-1.068-0.776-1.469L23.479,19.325l-1.872,1.872l9.498,9.499
		c0.278,0.279,0.278,0.729,0,1.008s-0.729,0.279-1.008,0l-9.499-9.498l-1.872,1.872l12.656,12.657c0.401,0.4,0.911,0.67,1.47,0.775
		l4.35,0.824c0.147,0.029,0.301-0.02,0.407-0.125C37.717,38.102,37.764,37.949,37.735,37.801z"/>
	<path fill="#FFFFFF" d="M24.899,13.653l-0.917-0.917c-0.773-0.773-2.084-0.547-2.55,0.448l-1.89,4.042
		c-0.968-0.968-1.784-1.784-2.923-2.923c0.181-1.09-0.148-2.25-0.989-3.09c-1.385-1.385-3.63-1.385-5.014,0
		c-1.385,1.384-1.385,3.629,0,5.014c0.841,0.841,2,1.17,3.09,0.989c1.14,1.14,1.955,1.955,2.923,2.923l-4.042,1.89
		c-0.992,0.464-1.224,1.774-0.448,2.55l0.917,0.917c0.618,0.618,1.619,0.618,2.236,0l9.608-9.608
		C25.517,15.272,25.517,14.271,24.899,13.653z"/>
</g>
</svg>
