<?xml version="1.0" encoding="utf-8"?>
<!-- Generator: Adobe Illustrator 16.0.0, SVG Export Plug-In . SVG Version: 6.00 Build 0)  -->
<!DOCTYPE svg PUBLIC "-//W3C//DTD SVG 1.1//EN" "http://www.w3.org/Graphics/SVG/1.1/DTD/svg11.dtd">
<svg version="1.1" id="Layer_1" xmlns="http://www.w3.org/2000/svg" xmlns:xlink="http://www.w3.org/1999/xlink" x="0px" y="0px"
	 width="48px" height="48px" viewBox="0 0 48 48" enable-background="new 0 0 48 48" xml:space="preserve">
<g>
	<path fill="#FF3600" d="M1,42.75c0,1.657,1.343,3,3,3h39.834c1.657,0,3-1.343,3-3V5.303c0-1.657-1.343-3-3-3H4
		c-1.657,0-3,1.343-3,3V42.75z"/>
</g>
<g>
	<path fill="#FFFFFF" d="M33.925,13.484h-0.994v-2.609c0-1.439-0.71-2.782-1.9-3.592c-1.188-0.81-2.7-0.979-4.038-0.452l-17.006,6.7
		c-0.003,0.001-0.005,0.003-0.008,0.004c-0.022,0.009-0.039,0.026-0.061,0.038c-0.052,0.028-0.102,0.057-0.144,0.097
		c-0.021,0.02-0.035,0.045-0.054,0.067c-0.032,0.041-0.063,0.081-0.086,0.128c-0.013,0.028-0.021,0.058-0.031,0.088
		c-0.016,0.049-0.027,0.099-0.031,0.151c-0.001,0.017-0.009,0.031-0.009,0.048v23.547c0,2.109,1.716,3.825,3.826,3.825h20.536
		c2.396,0,4.347-1.949,4.347-4.346V17.83C38.271,15.433,36.321,13.484,33.925,13.484z M27.48,8.074
		c0.941-0.372,1.962-0.257,2.799,0.312c0.836,0.57,1.316,1.477,1.316,2.489v2.609H13.747L27.48,8.074z M36.937,37.179
		c0,1.661-1.351,3.012-3.012,3.012H13.389c-1.373,0-2.491-1.118-2.491-2.49V14.82h21.364h1.662c1.661,0,3.012,1.351,3.012,3.011
		V37.179z"/>
	<path fill="#FFFFFF" d="M33.719,24.307l-6.129-0.891l-2.74-5.552c-0.227-0.457-0.972-0.457-1.198,0l-2.741,5.552l-6.129,0.891
		c-0.251,0.037-0.46,0.213-0.539,0.456c-0.079,0.24-0.014,0.506,0.169,0.683l4.435,4.323L17.8,35.873
		c-0.043,0.25,0.06,0.503,0.266,0.652c0.206,0.15,0.479,0.171,0.703,0.052l5.481-2.882l5.48,2.882
		c0.098,0.051,0.205,0.076,0.311,0.076c0.139,0,0.277-0.043,0.394-0.128c0.205-0.149,0.308-0.402,0.266-0.652l-1.048-6.104
		l4.436-4.323c0.182-0.178,0.247-0.443,0.168-0.683C34.18,24.52,33.971,24.343,33.719,24.307z M28.472,29.057
		c-0.158,0.152-0.229,0.374-0.192,0.591l0.877,5.116l-4.594-2.415c-0.098-0.051-0.205-0.077-0.311-0.077s-0.214,0.026-0.311,0.077
		l-4.594,2.415l0.878-5.116c0.037-0.217-0.035-0.437-0.192-0.591l-3.717-3.623l5.137-0.748c0.218-0.031,0.406-0.168,0.503-0.365
		l2.297-4.655l2.297,4.655c0.1,0.197,0.286,0.334,0.504,0.365l5.138,0.748L28.472,29.057z"/>
</g>
</svg>
