<?xml version="1.0" encoding="utf-8"?>
<!-- Generator: Adobe Illustrator 16.0.0, SVG Export Plug-In . SVG Version: 6.00 Build 0)  -->
<!DOCTYPE svg PUBLIC "-//W3C//DTD SVG 1.1//EN" "http://www.w3.org/Graphics/SVG/1.1/DTD/svg11.dtd">
<svg version="1.1" id="Layer_1" xmlns="http://www.w3.org/2000/svg" xmlns:xlink="http://www.w3.org/1999/xlink" x="0px" y="0px"
	 width="48px" height="48px" viewBox="0 0 48 48" enable-background="new 0 0 48 48" xml:space="preserve">
<g>
	<path fill="#258DCD" d="M1,42.75c0,1.657,1.343,3,3,3h39.834c1.657,0,3-1.343,3-3V5.303c0-1.657-1.343-3-3-3H4
		c-1.657,0-3,1.343-3,3V42.75z"/>
</g>
<g>
	<path fill="#FFFFFF" d="M29.393,23.957c0-2.801-2.279-5.081-5.08-5.081c-2.801,0-5.081,2.279-5.081,5.081s2.279,5.081,5.081,5.081
		C27.113,29.037,29.393,26.758,29.393,23.957z M20.35,23.957c0-2.185,1.778-3.962,3.962-3.962c2.186,0,3.962,1.777,3.962,3.962
		s-1.776,3.962-3.962,3.962C22.128,27.919,20.35,26.142,20.35,23.957z"/>
	<path fill="#FFFFFF" d="M25.986,25.631c0.219-0.219,0.219-0.572,0-0.792c-0.218-0.217-0.572-0.217-0.79,0
		c-0.487,0.488-1.28,0.488-1.768,0c-0.219-0.217-0.572-0.217-0.79,0c-0.219,0.22-0.219,0.573,0,0.792
		c0.446,0.446,1.041,0.692,1.674,0.692S25.539,26.077,25.986,25.631z"/>
	<path fill="#FFFFFF" d="M24.313,30.633c-3.191,0-6.026,1.911-7.225,4.87c-0.116,0.286,0.022,0.612,0.309,0.729
		c0.069,0.026,0.14,0.039,0.21,0.039c0.221,0,0.43-0.131,0.519-0.35c1.026-2.534,3.456-4.171,6.188-4.171
		c2.733,0,5.163,1.637,6.188,4.171c0.117,0.287,0.441,0.425,0.729,0.311c0.287-0.117,0.426-0.443,0.309-0.729
		C30.339,32.544,27.503,30.633,24.313,30.633z"/>
	<path fill="#FFFFFF" d="M19.323,15.374c0.214,0.197,0.543,0.197,0.757,0l1.928-1.773l1.926,1.774c0.215,0.196,0.543,0.196,0.757,0
		l1.928-1.773l1.928,1.774c0.105,0.098,0.242,0.147,0.377,0.147c0.136,0,0.271-0.049,0.378-0.147l2.307-2.123
		c0.228-0.208,0.242-0.563,0.032-0.79c-0.208-0.227-0.562-0.242-0.79-0.033l-1.927,1.774l-1.927-1.774
		c-0.213-0.197-0.543-0.197-0.758,0l-1.927,1.774l-1.926-1.774c-0.215-0.197-0.543-0.197-0.757,0l-1.927,1.773l-1.927-1.773
		c-0.227-0.209-0.581-0.194-0.79,0.033s-0.194,0.581,0.033,0.79L19.323,15.374z"/>
	<path fill="#FFFFFF" d="M12.551,38.508h22.777c0.309,0,0.56-0.25,0.56-0.56V8.368c0-0.309-0.251-0.559-0.56-0.559H12.551
		c-1.062,0-1.925,0.864-1.925,1.926v29.581c0,1.061,0.864,1.926,1.925,1.926h22.777c0.309,0,0.56-0.251,0.56-0.56
		c0-0.31-0.251-0.559-0.56-0.559H12.551c-0.445,0-0.807-0.362-0.807-0.808S12.105,38.508,12.551,38.508z M11.744,9.734
		c0-0.446,0.362-0.808,0.807-0.808h0.186v5.886c0,0.309,0.25,0.56,0.559,0.56c0.309,0,0.56-0.25,0.56-0.56V8.927H34.77V37.39H13.855
		V17.05c0-0.309-0.25-0.56-0.56-0.56c-0.309,0-0.559,0.25-0.559,0.56v20.34h-0.186c-0.288,0-0.562,0.064-0.807,0.178V9.734z"/>
</g>
</svg>
