<?xml version="1.0" encoding="utf-8"?>
<!-- Generator: Adobe Illustrator 16.0.0, SVG Export Plug-In . SVG Version: 6.00 Build 0)  -->
<!DOCTYPE svg PUBLIC "-//W3C//DTD SVG 1.1//EN" "http://www.w3.org/Graphics/SVG/1.1/DTD/svg11.dtd">
<svg version="1.1" id="Layer_1" xmlns="http://www.w3.org/2000/svg" xmlns:xlink="http://www.w3.org/1999/xlink" x="0px" y="0px"
	 width="48px" height="48px" viewBox="0 0 48 48" enable-background="new 0 0 48 48" xml:space="preserve">
<g>
	<path fill="#3BBDE7" d="M1,42.75c0,1.657,1.343,3,3,3h39.834c1.657,0,3-1.343,3-3V5.303c0-1.657-1.343-3-3-3H4
		c-1.657,0-3,1.343-3,3V42.75z"/>
</g>
<g>
	<path fill="#FFFFFF" d="M17.833,30.592c1.564-1.057,2.594-2.844,2.594-4.869c0-3.236-2.633-5.869-5.869-5.869
		c-3.237,0-5.87,2.633-5.87,5.869c0,2.025,1.03,3.813,2.594,4.869c-1.671,0.477-2.898,2.016-2.898,3.838v6.99
		c0,0.318,0.258,0.577,0.577,0.577h11.193c0.319,0,0.577-0.259,0.577-0.577v-6.99C20.732,32.607,19.504,31.068,17.833,30.592z
		 M15.889,32.391l-0.701-0.799h1.402L15.889,32.391z M13.652,31.592l1.391,1.584l-1.302,0.973l-0.628-2.557H13.652z M17.906,31.844
		c0.073,0.033,0.145,0.069,0.215,0.108l-0.206,2.104l-1.18-0.881L17.906,31.844z M9.843,25.723c0-2.6,2.115-4.715,4.715-4.715
		c2.6,0,4.715,2.115,4.715,4.715s-2.115,4.715-4.715,4.715C11.958,30.438,9.843,28.322,9.843,25.723z M9.539,34.43
		c0-1.414,1.039-2.589,2.394-2.803l0.895,3.643c0.046,0.188,0.183,0.34,0.365,0.404c0.063,0.023,0.129,0.035,0.195,0.035
		c0.123,0,0.244-0.039,0.345-0.115l1.579-1.178v6.427h-2.923v-5.722c0-0.318-0.258-0.578-0.577-0.578s-0.577,0.26-0.577,0.578v5.722
		H9.539V34.43z M19.578,40.843h-3.111v-6.427l1.579,1.178c0.102,0.076,0.223,0.115,0.345,0.115c0.079,0,0.159-0.017,0.233-0.05
		c0.19-0.085,0.321-0.265,0.341-0.472l0.215-2.203c0.252,0.424,0.397,0.918,0.397,1.445V40.843L19.578,40.843z"/>
	<path fill="#FFFFFF" d="M17.756,36.051c-0.092-0.218-0.31-0.362-0.547-0.355c-0.252,0.006-0.474,0.18-0.542,0.422
		c-0.066,0.236,0.031,0.499,0.235,0.635c0.202,0.135,0.476,0.127,0.669-0.02C17.777,36.575,17.857,36.29,17.756,36.051
		C17.741,36.016,17.771,36.086,17.756,36.051z"/>
	<path fill="#FFFFFF" d="M14.352,24.648c-0.09-0.213-0.3-0.356-0.533-0.356c-0.232,0-0.444,0.144-0.533,0.356
		c-0.095,0.227-0.03,0.5,0.158,0.66c0.191,0.162,0.472,0.182,0.683,0.048C14.361,25.209,14.46,24.904,14.352,24.648
		C14.337,24.614,14.367,24.683,14.352,24.648z"/>
	<path fill="#FFFFFF" d="M17.061,25.09c0.092,0.218,0.31,0.362,0.547,0.356c0.256-0.007,0.483-0.188,0.545-0.437
		c0.055-0.222-0.029-0.462-0.211-0.601c-0.2-0.152-0.484-0.155-0.688-0.007C17.041,24.558,16.96,24.846,17.061,25.09
		C17.076,25.125,17.046,25.055,17.061,25.09z"/>
	<path fill="#FFFFFF" d="M31.95,19.483c0.095,0.06,0.202,0.09,0.31,0.09c0.096,0,0.191-0.023,0.277-0.071
		c0.186-0.102,0.301-0.295,0.301-0.506v-1.342h0.587c0.988,0,1.793-0.805,1.793-1.793V9.827c0-0.989-0.805-1.793-1.793-1.793h-5.979
		V7.796c0-0.989-0.805-1.793-1.794-1.793H15.058c-0.989,0-1.793,0.805-1.793,1.793v6.034c0,0.989,0.805,1.793,1.793,1.793h0.587
		v1.343c0,0.21,0.115,0.405,0.3,0.506c0.086,0.047,0.182,0.071,0.277,0.071c0.108,0,0.216-0.03,0.31-0.09l2.872-1.83h1.634v0.239
		c0,0.989,0.805,1.793,1.793,1.793h6.247L31.95,19.483z M19.236,14.468c-0.11,0-0.217,0.031-0.31,0.09L16.8,15.914v-0.868
		c0-0.318-0.258-0.577-0.577-0.577h-1.165c-0.352,0-0.639-0.287-0.639-0.639V7.796c0-0.353,0.287-0.639,0.639-0.639h10.593
		c0.353,0,0.64,0.287,0.64,0.639v0.237h-3.46c-0.782,0-1.448,0.503-1.692,1.203h-4.405c-0.319,0-0.577,0.258-0.577,0.577
		s0.258,0.577,0.577,0.577h4.304v0.965h-4.304c-0.319,0-0.577,0.259-0.577,0.578s0.258,0.577,0.577,0.577h4.304v1.958H19.236z
		 M22.192,15.861V9.827c0-0.352,0.287-0.639,0.639-0.639h10.593c0.354,0,0.64,0.287,0.64,0.639v6.034
		c0,0.353-0.286,0.639-0.64,0.639H32.26c-0.318,0-0.577,0.259-0.577,0.578v0.867l-2.126-1.354c-0.093-0.059-0.2-0.09-0.311-0.09
		h-6.415C22.479,16.5,22.192,16.213,22.192,15.861z"/>
	<path fill="#FFFFFF" d="M24.507,12.421h7.241c0.319,0,0.578-0.259,0.578-0.578s-0.259-0.577-0.578-0.577h-7.241
		c-0.319,0-0.577,0.258-0.577,0.577S24.188,12.421,24.507,12.421z"/>
	<path fill="#FFFFFF" d="M32.326,13.963c0-0.319-0.259-0.577-0.578-0.577h-7.241c-0.319,0-0.577,0.258-0.577,0.577
		s0.258,0.577,0.577,0.577h7.241C32.067,14.541,32.326,14.282,32.326,13.963z"/>
	<path fill="#FFFFFF" d="M36.717,30.592c1.563-1.057,2.594-2.844,2.594-4.869c0-3.236-2.633-5.869-5.869-5.869
		s-5.869,2.633-5.869,5.869c0,2.025,1.03,3.813,2.594,4.869c-1.671,0.477-2.898,2.016-2.898,3.838v6.99
		c0,0.318,0.258,0.577,0.577,0.577h11.193c0.318,0,0.577-0.259,0.577-0.577v-6.99C39.615,32.607,38.388,31.068,36.717,30.592z
		 M35.5,31.592c-0.439,0.691-1.21,1.136-2.059,1.136c-0.85,0-1.619-0.444-2.059-1.136H35.5z M28.727,25.723
		c0-2.6,2.115-4.715,4.715-4.715s4.715,2.115,4.715,4.715s-2.115,4.715-4.715,4.715S28.727,28.322,28.727,25.723z M28.422,34.43
		c0-1.184,0.729-2.201,1.762-2.625c0.582,1.248,1.848,2.077,3.258,2.077s2.676-0.83,3.258-2.077
		c1.032,0.424,1.762,1.441,1.762,2.625v2.049h-2.021v-1.357c0-0.318-0.26-0.578-0.578-0.578s-0.577,0.26-0.577,0.578v5.722h-6.862
		V34.43L28.422,34.43z M36.438,40.843v-3.21h2.022v3.21H36.438z"/>
	<path fill="#FFFFFF" d="M33.647,25.09c0.102,0.241,0.358,0.39,0.618,0.35c0.229-0.033,0.418-0.205,0.475-0.428
		c0.06-0.235-0.039-0.488-0.239-0.623c-0.228-0.153-0.534-0.117-0.729,0.072C33.611,24.626,33.559,24.875,33.647,25.09
		C33.662,25.125,33.633,25.055,33.647,25.09z"/>
	<path fill="#FFFFFF" d="M30.972,24.756c-0.015-0.074-0.046-0.145-0.085-0.208c-0.292-0.426-0.975-0.276-1.052,0.236
		c-0.07,0.465,0.445,0.821,0.854,0.586C30.904,25.249,31.021,24.999,30.972,24.756C30.965,24.719,30.979,24.794,30.972,24.756z"/>
	<path fill="#FFFFFF" d="M33.555,26.847c-0.18-0.181-0.473-0.181-0.652,0c-0.154,0.154-0.359,0.239-0.578,0.239
		c-0.218,0-0.423-0.085-0.577-0.239c-0.181-0.181-0.474-0.181-0.653,0s-0.18,0.474,0,0.653c0.34,0.34,0.785,0.509,1.23,0.509
		s0.892-0.169,1.23-0.509C33.735,27.32,33.735,27.027,33.555,26.847z"/>
</g>
</svg>
