<?xml version="1.0" encoding="utf-8"?>
<!-- Generator: Adobe Illustrator 16.0.0, SVG Export Plug-In . SVG Version: 6.00 Build 0)  -->
<!DOCTYPE svg PUBLIC "-//W3C//DTD SVG 1.1//EN" "http://www.w3.org/Graphics/SVG/1.1/DTD/svg11.dtd">
<svg version="1.1" id="Layer_1" xmlns="http://www.w3.org/2000/svg" xmlns:xlink="http://www.w3.org/1999/xlink" x="0px" y="0px"
	 width="172.195px" height="61.348px" viewBox="0 0 172.195 61.348" enable-background="new 0 0 172.195 61.348"
	 xml:space="preserve">
<g>
	<g opacity="0.3">
		<path d="M20.466,30.394c1.836,0,3.264-1.428,3.264-3.264c0-1.835-1.428-3.264-3.264-3.264s-3.332,1.428-3.332,3.264
			C17.134,28.966,18.63,30.394,20.466,30.394z"/>
		<path d="M28.285,30.394c1.699,0,3.264-1.428,3.264-3.264c0-1.835-1.564-3.264-3.264-3.264c-1.904,0-3.4,1.428-3.4,3.264
			C24.885,28.966,26.381,30.394,28.285,30.394z"/>
		<path d="M60.451,30.326c1.699,0,3.264-1.428,3.264-3.264c0-1.835-1.564-3.264-3.264-3.264c-1.904,0-3.399,1.428-3.399,3.264
			C57.052,28.898,58.547,30.326,60.451,30.326z"/>
		<path d="M137.318,28.286c-8.229,0-11.123,3.875-11.123,7.751v2.379c0,0,2.42-4.114,9.898-4.114
			c9.043,0,11.871,11.507,12.211,17.507H123.55h-1.354h-0.209c-3.128,0-4.791-1.697-4.791-5.098V35.085
			c0-3.264-1.329-4.276-4.389-4.276h-1.611v15.563c0,3.129-1.404,5.305-5.552,5.305c-1.836,0-3.999-0.477-6.175-1.769
			c0.203-0.815,0.312-1.768,0.38-2.788c-0.068-0.135-0.083-11.895-0.083-11.895c0-3.264-0.966-4.416-4.025-4.416h-1.545v15.563
			c0,3.672-2.263,5.438-5.458,5.438h-6.542V35.085c0-3.264-0.529-4.276-3.589-4.276h-1.411v21h-7.021h-1.019H68.61
			c-3.128,0-5.415-1.697-5.415-5.098v-8.158c0-3.264-0.704-4.744-3.764-4.744h-2.236v12.563c0,3.672-1.572,5.438-4.768,5.438h-0.209
			h-1.354h-0.21c-3.535,0-5.1-1.324-5.1-7.58c0-1.359,0.068-3.374,0.068-5.686c0-3.264-0.952-4.734-4.012-4.734h-1.416v12.563
			c-1,3.672-2.392,5.438-5.587,5.438h-21.69c-6.119,0-7.683-7.066-7.683-10.738c0-6.867,4.827-10.262,4.827-10.262H7.751
			C3.875,30.809,0,33.644,0,41.939c0,7.071,4.352,14.87,12.851,14.87c0.136,0,0.271,0,23.254,0c2.72,0,4.759-1,6.187-2h0.272
			c1.563,1,3.808,2,6.596,2h1.705h1.354h1.705c2.787,0,4.963-1.02,6.596-2.584c1.563,1.564,3.807,2.584,6.595,2.584h2.041h1.019
			h20.06c2.72,0,4.827-0.765,6.459-2.396c0.34,0.271,2.924,2.677,9.859,2.677c2.923,0,5.235-1.16,6.935-2.996
			c1.564,1.563,4.216,2.716,7.004,2.716h1.705h1.354h20.199c7.547,0,10.335,4.539,10.335,4.539c0.204-1.973,0.388-4.055,0.388-6.435
			C154.472,43.151,151.121,28.286,137.318,28.286z"/>
		<path d="M166.121,10.809c-0.748,0-0.815-1.291-0.815-2.311c0-2.312,1.155-2.549,1.835-2.549c0.408,0,2.244,0.188,3.332,2.907
			c0-0.68,0.68-1.335,0.68-2.15C170.745,5.006,169.181,4,167.345,4c-2.72,0-4.487,2.046-4.487,4.902c0,0.748,0,1.157,0.272,1.701
			l0.204,0.206h-2.139v1.499c0,0.612,0.234,1.501,1.051,1.501h8.227c0.884,0,1.723-0.89,1.723-1.501v-1.499H166.121z"/>
		<path d="M166.529,15.809h-2.334v37.295c0,2.855,1.11,3.705,3.286,3.705h1.714V18.971
			C169.195,17.339,167.957,15.809,166.529,15.809z"/>
	</g>
	<g>
		<path fill="#FFFFFF" d="M20.466,26.394c1.836,0,3.264-1.428,3.264-3.264c0-1.835-1.428-3.264-3.264-3.264
			s-3.332,1.428-3.332,3.264C17.134,24.966,18.63,26.394,20.466,26.394z"/>
		<path fill="#FFFFFF" d="M28.285,26.394c1.699,0,3.264-1.428,3.264-3.264c0-1.835-1.564-3.264-3.264-3.264
			c-1.904,0-3.4,1.428-3.4,3.264C24.885,24.966,26.381,26.394,28.285,26.394z"/>
		<path fill="#FFFFFF" d="M60.451,26.326c1.699,0,3.264-1.428,3.264-3.264c0-1.835-1.564-3.264-3.264-3.264
			c-1.904,0-3.399,1.428-3.399,3.264C57.052,24.898,58.547,26.326,60.451,26.326z"/>
		<path fill="#FFFFFF" d="M137.318,24.286c-8.229,0-11.123,3.875-11.123,7.751v2.379c0,0,2.42-4.114,9.898-4.114
			c9.043,0,11.871,11.507,12.211,17.507H123.55h-1.354h-0.209c-3.128,0-4.791-1.697-4.791-5.098V31.085
			c0-3.264-1.329-4.276-4.389-4.276h-1.611v15.563c0,3.129-1.404,5.305-5.552,5.305c-1.836,0-3.999-0.477-6.175-1.769
			c0.203-0.815,0.312-1.768,0.38-2.788c-0.068-0.135-0.083-11.895-0.083-11.895c0-3.264-0.966-4.416-4.025-4.416h-1.545v15.563
			c0,3.672-2.263,5.438-5.458,5.438h-6.542V31.085c0-3.264-0.529-4.276-3.589-4.276h-1.411v21h-7.021h-1.019H68.61
			c-3.128,0-5.415-1.697-5.415-5.098v-8.158c0-3.264-0.704-4.744-3.764-4.744h-2.236v12.563c0,3.672-1.572,5.438-4.768,5.438h-0.209
			h-1.354h-0.21c-3.535,0-5.1-1.324-5.1-7.58c0-1.359,0.068-3.374,0.068-5.686c0-3.264-0.952-4.734-4.012-4.734h-1.416v12.563
			c-1,3.672-2.392,5.438-5.587,5.438h-21.69c-6.119,0-7.683-7.066-7.683-10.738c0-6.867,4.827-10.262,4.827-10.262H7.751
			C3.875,26.809,0,29.644,0,37.939c0,7.071,4.352,14.87,12.851,14.87c0.136,0,0.271,0,23.254,0c2.72,0,4.759-1,6.187-2h0.272
			c1.563,1,3.808,2,6.596,2h1.705h1.354h1.705c2.787,0,4.963-1.02,6.596-2.584c1.563,1.564,3.807,2.584,6.595,2.584h2.041h1.019
			h20.06c2.72,0,4.827-0.765,6.459-2.396c0.34,0.271,2.924,2.677,9.859,2.677c2.923,0,5.235-1.16,6.935-2.996
			c1.564,1.563,4.216,2.716,7.004,2.716h1.705h1.354h20.199c7.547,0,10.335,4.539,10.335,4.539c0.204-1.973,0.388-4.055,0.388-6.435
			C154.472,39.151,151.121,24.286,137.318,24.286z"/>
		<path fill="#FFFFFF" d="M166.121,6.809c-0.748,0-0.815-1.291-0.815-2.311c0-2.312,1.155-2.549,1.835-2.549
			c0.408,0,2.244,0.188,3.332,2.907c0-0.68,0.68-1.335,0.68-2.15C170.745,1.006,169.181,0,167.345,0
			c-2.72,0-4.487,2.046-4.487,4.902c0,0.748,0,1.157,0.272,1.701l0.204,0.206h-2.139v1.499c0,0.612,0.234,1.501,1.051,1.501h8.227
			c0.884,0,1.723-0.89,1.723-1.501V6.809H166.121z"/>
		<path fill="#FFFFFF" d="M166.529,11.809h-2.334v37.295c0,2.855,1.11,3.705,3.286,3.705h1.714V14.971
			C169.195,13.339,167.957,11.809,166.529,11.809z"/>
	</g>
</g>
</svg>
