<?xml version="1.0" encoding="utf-8"?>
<!-- Generator: Adobe Illustrator 19.2.0, SVG Export Plug-In . SVG Version: 6.00 Build 0)  -->
<svg version="1.1" id="Layer_1" xmlns="http://www.w3.org/2000/svg" xmlns:xlink="http://www.w3.org/1999/xlink" x="0px" y="0px"
	 viewBox="0 0 393 102.4" style="enable-background:new 0 0 393 102.4;" xml:space="preserve">
<style type="text/css">
	.st0{fill:#1B1464;}
</style>
<g>
	<path class="st0" d="M29.6,13.9v13.3h3.9v3.3h-7.3V17.4c-14.9,0-1.7,18.7-15.9,18.7C2.8,36.1,0,31.9,0,26.2c0-3.4,1.3-6.3,4.4-6.3
		L6.2,20v0.1c-1.8,0.8-3.1,3.6-3.1,5.7c0,3.8,0.6,7,7.5,7.1c9.1,0-2.6-19,15.7-19H29.6z"/>
	<path class="st0" d="M34.9,30.5h-2.1v-3.3H34c1.8,0,2.8-0.8,3-2.9V7h1.1c1.8,0,2.3,0.7,2.3,2.6V23C40.4,26.7,39.2,30.2,34.9,30.5z"
		/>
	<path class="st0" d="M44,37.8c-0.5,0-0.8-0.4-0.8-0.7v-0.6h1.4l-0.1-0.2c-0.2-0.3-0.2-0.7-0.2-1.1c0-1.6,1-2.8,2.6-2.8
		c1.1,0,2,0.6,2.2,1.6c0,0.5-0.4,0.9-0.4,1.2c-0.6-1.6-1.7-1.6-1.9-1.6c-0.4,0-1.1,0.2-1.1,1.5c0,0.6,0,1.1,0.5,1.4h3.3v0.6
		c0,0.4-0.3,0.7-0.8,0.7H44z M46.4,30.5c-1.2,0-2.1-0.7-2.1-2.3V7h1.6c0.8,0,1.7,0.7,1.7,1.6v21.9H46.4z"/>
	<path class="st0" d="M86.2,30.4c0,0.1-0.1,0.2-0.1,0.3c0,0.5,0,1.3,0,1.7c0,2.6-2,5-5.1,5c-1.6,0-2.7-0.7-2.7-1.8v-0.9
		c0.3,0,0.6,0.1,0.9,0.1c4.3,0,3.7-2.6,3.7-7.7v-9.9h1.1c1.8,0,2.3,0.7,2.3,2.6v7.1c0.5,0.2,1,0.4,1.8,0.4h2.1v3.3h-2.9
		C86.9,30.5,86.5,30.5,86.2,30.4z"/>
	<path class="st0" d="M89.4,27.2h4.1V7h1.1c1.8,0,2.3,0.7,2.3,2.6V21c1.5-3.6,4.4-7.1,8.4-7.1c8,0,10.6,6.4,10.6,13.3h3.3v3.3H89.4
		V27.2z M97.1,27.2h15.3c-0.2-3.5-1.1-9.7-7.1-9.7C101.3,17.6,98.1,22.4,97.1,27.2z M103.1,9.4c0-1.1,0.9-1.9,2-1.9
		c1,0,1.9,0.8,1.9,1.9c0,1.1-0.9,1.9-1.9,1.9C104,11.3,103.1,10.5,103.1,9.4z"/>
	<path class="st0" d="M121.4,30.5h-3.3v-3.3h2.5c1.8,0,2.8-0.8,3-2.9v-7.1h1.1c1.8,0,2.3,0.7,2.3,2.6V23
		C126.9,26.7,125.7,30.2,121.4,30.5z M123.2,13.2c0-1.1,0.9-1.9,2-1.9c1,0,1.9,0.8,1.9,1.9c0,1.1-0.9,1.9-1.9,1.9
		C124,15.1,123.2,14.3,123.2,13.2z"/>
	<path class="st0" d="M133.3,30.5c-1.2,0-2.1-0.7-2.1-2.3V7h1.6c0.8,0,1.7,0.7,1.7,1.6v21.9H133.3z"/>
	<path class="st0" d="M183.9,28.7c-1.2,1.2-2.8,1.8-4.7,1.8c-1.9,0-3.5-0.6-4.8-1.7c-0.8,2.9-2.8,5.6-6.3,5.8
		c-2.4,0-3.1-0.9-3.1-2.1v-1.2l2.4,0c3.9-0.1,4.5-2.5,4.5-5.7c0-1-0.1-2.1-0.1-3.2c0-4.3,2.3-8.2,7.4-8.4c4.2,0,7.1,3.2,7.1,8
		c0,1.8-0.4,3.4-0.9,4.7c0.7,0.5,1.7,0.6,2.9,0.6h0.5v3.3h-0.2c-0.2,0-0.2,0-0.3,0c-0.2,0-0.2,0-0.5,0
		C185.5,30.5,184.6,29.7,183.9,28.7z M183.1,22.5c0-3.5-1.5-5.3-4.3-5.3c-2.3,0-3.9,1.8-3.9,4.8c0,3.3,1.6,5.4,4.4,5.4
		C181.8,27.4,183.1,25.4,183.1,22.5z"/>
	<path class="st0" d="M191.1,30.5h-3.3v-3.3h2.5c1.8,0,2.8-0.8,3-2.9v-7.1h1.1c1.8,0,2.3,0.7,2.3,2.6V23
		C196.6,26.7,195.4,30.2,191.1,30.5z M190.4,13.3c0-1.1,0.9-1.9,1.9-1.9c1.1,0,1.9,0.8,1.9,1.9c0,1.1-0.8,1.9-1.9,1.9
		C191.3,15.2,190.4,14.4,190.4,13.3z M192.7,9.3c0-1.1,0.9-1.9,2-1.9c1,0,1.9,0.8,1.9,1.9s-0.9,1.9-1.9,1.9
		C193.6,11.2,192.7,10.3,192.7,9.3z M194.9,13.3c0-1.1,0.9-1.9,2-1.9c1,0,1.9,0.8,1.9,1.9c0,1.1-0.9,1.9-1.9,1.9
		C195.8,15.1,194.9,14.3,194.9,13.3z"/>
	<path class="st0" d="M247.8,22.1c0,1.8,0.7,16.1-10.2,16.1c-7.7,0-10.8-5.6-10.8-11.1c0-3.5,1.4-5.9,4.6-5.9l1.4,0.1v0.2
		c-1.8,0.7-2.9,3.4-2.9,5.4c0,3.7,1.9,8,7.5,8c7.6,0,7.1-10.8,7.1-11.5V7h1.1c1.8,0,2.3,0.7,2.3,2.6V22.1z"/>
	<path class="st0" d="M254.2,30.5c-1.2,0-2.1-0.7-2.1-2.3V7h1.6c0.8,0,1.7,0.7,1.7,1.6v21.9H254.2z"/>
	<path class="st0" d="M277.2,30.5h-3.9c-0.7,3.7-4.3,6.8-9.3,6.8c-1.8,0-3.2-0.4-3.2-1.8V34c0.6,0.1,1.3,0.2,2,0.2
		c3.4,0,6.8-1.2,7.3-3.6c-4.8-0.2-11.2-1.3-11.2-8c0-5.3,2.9-8.5,7.4-8.5c4.3,0,7.2,3.2,7.2,8c0,5.2,0,5.3,0,5.3h3.7V30.5z
		 M270.4,27.2c0-5.7,0.3-10.3-4.5-10.3c-2.4,0-3.9,1.9-3.9,5C262,26.8,265.7,27.2,270.4,27.2z M264.1,11.7c-0.5,0-0.8-0.4-0.8-0.7
		v-0.6h1.4l-0.1-0.2c-0.2-0.3-0.2-0.7-0.2-1.1c0-1.6,1-2.8,2.6-2.8c1.1,0,2,0.6,2.2,1.6c0,0.5-0.1,0.9-0.4,1.2
		c-0.6-1.6-1.7-1.6-1.9-1.6c-0.4,0-1.1,0.2-1.1,1.5c0,0.6,0,1.1,0.5,1.4h3.3V11c0,0.4-0.3,0.7-0.8,0.7H264.1z"/>
	<path class="st0" d="M276.6,27.2h4.4v-12h1.1c1.8,0,2.3,0.7,2.3,2.6v9.4h3.5c1.8,0,2.8-0.8,3-2.9v-9.1h1.1c1.8,0,2.3,0.7,2.3,2.6
		c0,0,0,6.8,0,6.9c0,0.6-0.1,1.1-0.2,1.6c1.2,0.7,2.5,1,3.5,1c2.4,0,3-1.2,3.1-3v-9.1h1.1c1.8,0,2.3,0.7,2.3,2.6v6.7
		c0.1,2,1.2,2.7,3,2.7h0.9v3.3h-1.8c-1.6-0.1-3.1-0.7-4-1.6c-1,1.1-2.3,1.6-4,1.6c-4,0-5.5-1.3-5.7-1.5c-0.9,0.9-2.1,1.4-3.7,1.5
		h-12.1V27.2z"/>
	<path class="st0" d="M309.4,30.5h-2.1v-3.3h1.3c1.8,0,2.8-0.8,3-2.9V7h1.1c1.8,0,2.3,0.7,2.3,2.6V23
		C314.8,26.7,313.7,30.2,309.4,30.5z"/>
	<path class="st0" d="M320.8,30.5c-1.2,0-2.1-0.7-2.1-2.3V7h1.6c0.8,0,1.7,0.7,1.7,1.6v21.9H320.8z"/>
	<path class="st0" d="M351.8,5.5c-0.5,0-0.8-0.4-0.8-0.7V4.1h1.4l-0.1-0.2c-0.2-0.3-0.2-0.7-0.2-1.1c0-1.6,1-2.8,2.6-2.8
		c1.1,0,2,0.6,2.2,1.6c0,0.5-0.4,0.9-0.4,1.2c-0.6-1.6-1.7-1.6-1.9-1.6c-0.4,0-1.1,0.2-1.1,1.5c0,0.6,0,1.1,0.5,1.4h3.3v0.6
		c0,0.4-0.3,0.7-0.8,0.7H351.8z M354.8,30.5c-1.2,0-2.1-0.7-2.1-2.3V7h1.6c0.8,0,1.7,0.7,1.7,1.6v21.9H354.8z"/>
	<path class="st0" d="M364.3,30.4c0,0.1-0.1,0.2-0.1,0.3c0,0.5,0,1.3,0,1.7c0,2.6-2,5-5.1,5c-1.6,0-2.7-0.7-2.7-1.8v-0.9
		c0.3,0,0.6,0.1,0.9,0.1c4.3,0,3.7-2.6,3.7-7.7v-9.9h1.1c1.8,0,2.3,0.7,2.3,2.6v7.1c0.5,0.2,1,0.4,1.8,0.4h2.1v3.3h-2.9
		C364.9,30.5,364.6,30.5,364.3,30.4z"/>
	<path class="st0" d="M367.5,27.2h5.3c-1-1.1-1.6-2.7-1.6-4.8c0-5.3,2.9-8.5,7.4-8.5c4.3,0,7.2,3.2,7.2,8v8.6h-18.4V27.2z
		 M378.3,16.9c-2.4,0-3.9,1.9-3.9,5c0,4.8,3.7,5.3,8.4,5.3C382.8,21.5,383.1,16.9,378.3,16.9z M374.5,9.4c0-1.1,0.9-1.9,1.9-1.9
		c1.1,0,1.9,0.8,1.9,1.9c0,1.1-0.8,1.9-1.9,1.9C375.4,11.3,374.5,10.5,374.5,9.4z M379.4,9.4c0-1.1,0.9-1.9,1.9-1.9
		c1,0,1.9,0.8,1.9,1.9c0,1.1-0.9,1.9-1.9,1.9C380.2,11.3,379.4,10.5,379.4,9.4z"/>
	<path class="st0" d="M391.8,30.5c-1.2,0-2.1-0.7-2.1-2.3V7h1.6c0.8,0,1.7,0.7,1.7,1.6v21.9H391.8z"/>
	<path class="st0" d="M18.4,89.5c-1.4,0-2.5-1-2.5-2.4c0-1.4,1.1-2.5,2.5-2.5c1.4,0,2.5,1,2.5,2.5C20.8,88.5,19.8,89.5,18.4,89.5z"
		/>
	<path class="st0" d="M47.1,86.2v3.3h-0.4c-1.3,0-2.9-0.3-3.8-1.1c-0.9,0.9-2.2,1-3.8,1.1h-2.7c-4,0-7.3,1.9-7.3,4.3
		c0,5.4,3.5,5.6,6.4,5.6c2.1,0,3.9-0.5,5-1.7V99c0,1.2-1.4,3.4-5.6,3.4c-4,0-9.1-1.6-9.2-8.2c0-6.5,5.6-8.2,11.1-8.2
		c1.1,0,2.2,0,3.2,0.2c-0.2-3.5-1.9-9.9-7.1-9.9c-4.3,0-5.7,2.5-5.7,2.5v-1.4c0-2.2,1.7-4.4,6.4-4.4c6.4,0,8.9,5.7,9.7,11.4
		c0.3,1.3,1.5,1.9,2.8,1.9H47.1z"/>
	<path class="st0" d="M53.5,83.5c0.1,2,1.2,2.7,3,2.7h0.9v3.3h-1.8c-1.6-0.1-2.9-0.6-3.8-1.5c-0.9,0.9-2.2,1.4-3.8,1.5h-1.8v-3.3
		h0.9c1.8,0,2.8-0.8,3-2.9v-7.1h1.1c1.8,0,2.3,0.7,2.3,2.6V83.5z M47.2,93.8c0-1.1,0.9-1.9,1.9-1.9c1.1,0,1.9,0.8,1.9,1.9
		c0,1.1-0.8,1.9-1.9,1.9C48.1,95.6,47.2,94.8,47.2,93.8z M51.7,93.8c0-1.1,0.9-1.9,2-1.9c1,0,1.9,0.8,1.9,1.9c0,1.1-0.9,1.9-1.9,1.9
		C52.5,95.6,51.7,94.8,51.7,93.8z"/>
	<path class="st0" d="M75,86.2h2.8v3.3H56.6v-3.3h15c-0.2-3.5-1.9-9.9-7.1-9.9c-4.3,0-5.7,2.5-5.7,2.5v-1.4c0-2.2,1.7-4.4,6.4-4.4
		C72.4,72.9,74.6,79.9,75,86.2z"/>
	<path class="st0" d="M77,86.2h4.1v-9.5h1.1c1.8,0,2.3,0.7,2.3,2.6V80c1.5-3.6,4.4-7.1,8.4-7.1c8,0,10.6,6.4,10.6,13.3h3.3v3.3H77
		V86.2z M84.7,86.2H100c-0.2-3.5-1.1-9.7-7.1-9.7C88.9,76.6,85.8,81.4,84.7,86.2z"/>
	<path class="st0" d="M108.1,89.5h-2.1v-3.3h1.3c1.8,0,2.8-0.8,3-2.9V66h1.1c1.8,0,2.3,0.7,2.3,2.6V82
		C113.5,85.7,112.4,89.2,108.1,89.5z"/>
	<path class="st0" d="M119.6,89.5c-1.2,0-2.1-0.7-2.1-2.3V66h1.6c0.8,0,1.7,0.7,1.7,1.6v21.9H119.6z"/>
	<path class="st0" d="M156.4,81.1c0,0.5,0,2.1-0.2,4.3c0.6,0.6,1.3,0.9,2.4,0.9h0.9v3.3h-1.8c-0.8,0-1.5-0.2-2.2-0.4
		c-1.1,4-3.6,8.1-9.4,8.1c-7.7,0-10.8-5.6-10.8-11.1c0-3.5,1.4-5.9,4.6-5.9l1.4,0.1v0.2c-1.8,0.7-2.9,3.4-2.9,5.4c0,3.7,1.9,8,7.5,8
		c7.6,0,7.1-10.8,7.1-11.5V66h1.1c1.8,0,2.3,0.7,2.3,2.6V81.1z"/>
	<path class="st0" d="M158.7,86.2h12.6c-0.2-3.5-1.1-9.2-7.4-9.2c-0.7,0-1.3,0.1-2.1,0.3l-0.7-0.9c-0.4-0.4-0.5-0.9-0.5-1.3
		c0-0.6,0.3-1.2,1.1-1.8l14.6-10.8l0.9,1.2c0.2,0.3,0.4,0.7,0.4,1.1c0,0.5-0.2,0.9-0.6,1.2l-10.5,7.8c6.8,1.3,8.3,7.5,8.3,12.3h3.5
		v3.3h-19.6V86.2z"/>
	<path class="st0" d="M177.7,86.2h4.4v-12h1.1c1.8,0,2.3,0.7,2.3,2.6v9.4h3.5c1.8,0,2.8-0.8,3-2.9v-9.1h1.1c1.8,0,2.3,0.7,2.3,2.6
		c0,0,0,6.8,0,6.9c0,0.6-0.1,1.1-0.2,1.6c1.2,0.7,2.5,1,3.5,1c2.4,0,3-1.2,3.1-3v-9.1h1.1c1.8,0,2.3,0.7,2.3,2.6v6.7
		c0.1,2,1.2,2.7,3,2.7h0.9v3.3h-1.8c-1.6-0.1-3.1-0.7-4-1.6c-1,1.1-2.3,1.6-4,1.6c-4,0-5.5-1.3-5.7-1.5c-0.9,0.9-2.1,1.4-3.7,1.5
		h-12.1V86.2z M189.2,68.3c0-1.1,0.9-1.9,1.9-1.9c1.1,0,1.9,0.8,1.9,1.9c0,1.1-0.8,1.9-1.9,1.9C190.1,70.2,189.2,69.4,189.2,68.3z
		 M191.4,64.3c0-1.1,0.9-1.9,2-1.9c1,0,1.9,0.8,1.9,1.9c0,1.1-0.9,1.9-1.9,1.9C192.2,66.2,191.4,65.4,191.4,64.3z M193.7,68.3
		c0-1.1,0.9-1.9,2-1.9c1,0,1.9,0.8,1.9,1.9c0,1.1-0.9,1.9-1.9,1.9C194.5,70.2,193.7,69.4,193.7,68.3z"/>
	<path class="st0" d="M210.5,89.5h-2.1v-3.3h1.3c1.8,0,2.8-0.8,3-2.9V66h1.1c1.8,0,2.3,0.7,2.3,2.6V82
		C215.9,85.7,214.8,89.2,210.5,89.5z"/>
	<path class="st0" d="M222.1,83.1c0,2.2,1.1,3.1,3,3.1h0.5v3.3h-1.4c-3.5-0.2-5.5-2.6-5.5-6.2V66h1.1c1.8,0,2.3,0.7,2.3,2.6V83.1z"
		/>
	<path class="st0" d="M227.9,89.5h-3.3v-3.3h2.5c1.8,0,2.8-0.8,3-2.9v-7.1h1.1c1.8,0,2.3,0.7,2.3,2.6V82
		C233.4,85.7,232.2,89.2,227.9,89.5z M227.2,93.8c0-1.1,0.9-1.9,1.9-1.9c1.1,0,1.9,0.8,1.9,1.9c0,1.1-0.8,1.9-1.9,1.9
		C228.1,95.6,227.2,94.8,227.2,93.8z"/>
	<path class="st0" d="M268.6,81.1c0,0.5,0,2.1-0.2,4.3c0.6,0.6,1.3,0.9,2.4,0.9h0.9v3.3H270c-0.8,0-1.5-0.2-2.2-0.4
		c-1.1,4-3.6,8.1-9.4,8.1c-7.7,0-10.8-5.6-10.8-11.1c0-3.5,1.4-5.9,4.6-5.9l1.4,0.1v0.2c-1.8,0.7-2.9,3.4-2.9,5.4c0,3.7,1.9,8,7.5,8
		c7.6,0,7.1-10.8,7.1-11.5V66h1.1c1.8,0,2.3,0.7,2.3,2.6V81.1z"/>
	<path class="st0" d="M271,86.2h4v-9.5h1.1c1.8,0,2.3,0.7,2.3,2.6V80c1.5-3.6,4.4-7.1,8.4-7.1c7.7,0,10.6,6.1,10.6,12.2
		c0,1.9-0.2,4.4-1.6,4.4H271V86.2z M278.6,86.2h15.3c-0.2-3.5-1.1-9.7-7.1-9.7C282.8,76.6,279.6,81.4,278.6,86.2z"/>
	<path class="st0" d="M315.5,83.6c0,2.9-0.5,5.4-0.7,6.2c-1.1,3.7-4.5,6.5-9.3,6.5c-1.8,0-3.2-0.4-3.2-1.8v-1.3
		c0.6,0.2,1.4,0.2,2.1,0.2c3.9,0,6.2-1.7,7.2-4c-4.8-0.1-11.2-1.3-11.2-8c0-5.3,2.9-8.5,7.4-8.5C314.2,72.9,315.5,78.8,315.5,83.6z
		 M312,86.2c0-5.7,0.3-10.3-4.5-10.3c-2.4,0-3.9,1.9-3.9,5C303.6,85.8,307.3,86.2,312,86.2z"/>
	<path class="st0" d="M347.2,88.3c0,1.4-0.1,2.6-0.2,3.7c0,0-1.6-2.5-5.9-2.5h-1.1c-4,0-7.3,1.9-7.3,4.3c0,5.4,3.5,5.6,6.4,5.6
		c2.1,0,3.9-0.5,5-1.7V99c0,1.2-1.4,3.4-5.6,3.4c-4,0-9.1-1.6-9.2-8.2c0-6.5,5.6-8.2,11.1-8.2c1.1,0,2.2,0,3.2,0.2
		c-0.2-3.5-1.9-9.9-7.1-9.9c-4.3,0-5.7,2.5-5.7,2.5v-1.4c0-2.2,1.7-4.4,6.4-4.4C345.3,72.9,347.2,81.5,347.2,88.3z"/>
	<path class="st0" d="M368.7,89.5h-3.9c-0.7,3.7-4.3,6.8-9.3,6.8c-1.8,0-3.2-0.4-3.2-1.8V93c0.6,0.1,1.3,0.2,2,0.2
		c3.4,0,6.8-1.2,7.3-3.6c-4.8-0.2-11.2-1.3-11.2-8c0-5.3,2.9-8.5,7.4-8.5c4.3,0,7.2,3.2,7.2,8c0,5.2,0,5.3,0,5.3h3.7V89.5z
		 M361.9,86.2c0-5.7,0.3-10.3-4.5-10.3c-2.4,0-3.9,1.9-3.9,5C353.5,85.8,357.2,86.2,361.9,86.2z"/>
	<path class="st0" d="M375.2,83.5c0.1,2,1.2,2.7,3,2.7h0.9v3.3h-1.8c-1.6-0.1-2.9-0.6-3.8-1.5c-0.9,0.9-2.2,1.4-3.8,1.5h-1.8v-3.3
		h0.9c1.8,0,2.8-0.8,3-2.9V66h1.1c1.8,0,2.3,0.7,2.3,2.6V83.5z"/>
	<path class="st0" d="M380.4,89.5h-2.1v-3.3h1.3c1.8,0,2.8-0.8,3-2.9V66h1.1c1.8,0,2.3,0.7,2.3,2.6V82
		C385.8,85.7,384.7,89.2,380.4,89.5z"/>
	<path class="st0" d="M391.8,89.5c-1.2,0-2.1-0.7-2.1-2.3V66h1.6c0.8,0,1.7,0.7,1.7,1.6v21.9H391.8z"/>
</g>
</svg>
