<?xml version="1.0" encoding="utf-8"?>
<!-- Generator: Adobe Illustrator 16.0.0, SVG Export Plug-In . SVG Version: 6.00 Build 0)  -->
<!DOCTYPE svg PUBLIC "-//W3C//DTD SVG 1.1//EN" "http://www.w3.org/Graphics/SVG/1.1/DTD/svg11.dtd">
<svg version="1.1" id="Capa_1" xmlns="http://www.w3.org/2000/svg" xmlns:xlink="http://www.w3.org/1999/xlink" x="0px" y="0px"
	 width="512px" height="512px" viewBox="0 0 512 512" enable-background="new 0 0 512 512" xml:space="preserve">
<g>
	<path fill="#B2243B" d="M436.815,60.599c-20.523-11.337-44.051-17.82-69.223-17.82c-44.4,0-84.056,20.208-110.288,51.957v385.68
		c0,0,221.887-139.396,246.552-250.046c4.555-13.852,7.101-28.683,7.101-44.131C510.956,132.115,481.04,85.155,436.815,60.599z"/>
	<path fill="#DD3E51" d="M146.764,42.779c-25.014,0-48.526,6.483-69.143,17.82C33.395,85.076,3.479,132.115,3.479,186.239
		c0,15.448,2.545,30.279,7.114,44.131C35.15,341.02,257.304,480.416,257.304,480.416V94.736
		C230.899,62.987,191.242,42.779,146.764,42.779z"/>
</g>
</svg>
