<?xml version="1.0" encoding="utf-8"?>
<!-- Generator: Adobe Illustrator 16.0.0, SVG Export Plug-In . SVG Version: 6.00 Build 0)  -->
<!DOCTYPE svg PUBLIC "-//W3C//DTD SVG 1.1//EN" "http://www.w3.org/Graphics/SVG/1.1/DTD/svg11.dtd">
<svg version="1.1" id="Capa_1" xmlns="http://www.w3.org/2000/svg" xmlns:xlink="http://www.w3.org/1999/xlink" x="0px" y="0px"
	 width="512px" height="512px" viewBox="0 0 512 512" enable-background="new 0 0 512 512" xml:space="preserve">
<g>
	<g>
		<path fill="#575656" d="M0,344.434c0,67.932,55.261,123.208,123.208,123.208c42.877,0,80.702-22.034,102.771-55.365h259.928
			c14.388,0,26.093-11.7,26.093-26.094V70.452c0-14.388-11.705-26.093-26.093-26.093H81.459c-14.394,0-26.094,11.706-26.094,26.093
			v171.204C22.034,263.727-0.005,301.551,0,344.434z M129.591,85.534H89.579V71.621h40.012V85.534z M200.043,85.534h-40.012V71.621
			h40.012V85.534z M272.234,85.534h-40.012V71.621h40.012V85.534z M246.406,344.434c0-67.938-55.26-123.208-123.202-123.208
			c-12.619,0-24.805,1.91-36.27,5.454V106.983h394.011v276.59H240.008C244.147,371.273,246.416,358.117,246.406,344.434z
			 M31.313,344.438c0-50.673,41.223-91.896,91.896-91.896c50.674,0,91.896,41.223,91.896,91.896s-41.223,91.896-91.896,91.896
			C72.535,436.334,31.313,395.111,31.313,344.438z"/>
	</g>
</g>
<polygon fill="#575656" points="138.008,279.495 74.008,343.495 138.008,407.495 "/>
<path fill="#575656" d="M183.59,203.181v-52.07l-5.572,1.223v42.455c-2.773-1.275-6.361-1.637-10.293-0.77
	c-8.76,1.926-15.857,9.148-15.857,16.129c0,6.979,7.098,11.08,15.857,9.154C176.487,217.383,183.59,210.161,183.59,203.181z"/>
<path fill="#575656" d="M397.927,190.763h-0.006l-9.729,2.141l-74.773,16.437l-9.729,2.139v74.128
	c-4.839-2.229-11.103-2.851-17.962-1.344c-15.29,3.363-27.694,15.966-27.694,28.158c0,12.195,12.399,19.349,27.694,15.985
	c15.291-3.364,27.688-15.967,27.688-28.16v-75.014l74.774-16.436v58.229c-4.84-2.23-11.103-2.852-17.961-1.346
	c-15.291,3.364-27.695,15.967-27.695,28.161c0,12.192,12.398,19.347,27.695,15.989c15.289-3.363,27.693-15.967,27.693-28.16v-90.907
	H397.927z"/>
<path fill="#575656" d="M432.888,167.455c-2.773-1.275-6.361-1.637-10.285-0.77c-8.761,1.926-15.859,9.148-15.859,16.127
	s7.099,11.08,15.859,9.154c8.761-1.925,15.858-9.148,15.858-16.127v-52.07l-5.573,1.223V167.455z"/>
<path fill="#575656" d="M258.024,192.706c-2.154-0.991-4.941-1.271-7.989-0.598c-6.805,1.496-12.318,7.106-12.318,12.526
	s5.514,8.606,12.318,7.11c6.805-1.495,12.318-7.106,12.318-12.526v-40.445l-4.329,0.95V192.706z"/>
</svg>
