<?xml version="1.0" encoding="utf-8"?>
<!-- Generator: Adobe Illustrator 16.0.0, SVG Export Plug-In . SVG Version: 6.00 Build 0)  -->
<!DOCTYPE svg PUBLIC "-//W3C//DTD SVG 1.1//EN" "http://www.w3.org/Graphics/SVG/1.1/DTD/svg11.dtd">
<svg version="1.1" id="Layer_1" xmlns="http://www.w3.org/2000/svg" xmlns:xlink="http://www.w3.org/1999/xlink" x="0px" y="0px"
	 width="50px" height="49px" viewBox="0 0 50 49" enable-background="new 0 0 50 49" xml:space="preserve">
<path fill="#CECECE" d="M45.16,0H3.821C1.799,0,0.16,1.343,0.16,3v43c0,1.657,1.639,3,3.661,3H45.16"/>
<circle fill="#CECECE" cx="36.913" cy="25.752" r="13.087"/>
<g opacity="0.3">
	<g>
		<path d="M20.246,36.736c-1.471,1.471-3.855,1.471-5.325,0l-8.249-8.25c-1.471-1.47-1.471-3.854,0-5.324
			c1.469-1.469,3.854-1.469,5.324,0l4.915,4.915c0.372,0.37,0.974,0.37,1.346,0l13.309-13.31c1.471-1.47,3.855-1.47,5.325,0
			c0.707,0.706,1.104,1.664,1.104,2.663c0,0.998-0.396,1.956-1.104,2.662L20.246,36.736z"/>
	</g>
</g>
<g>
	<g>
		<path fill="#FFFFFF" d="M20.246,34.736c-1.471,1.471-3.855,1.471-5.325,0l-8.249-8.25c-1.471-1.47-1.471-3.854,0-5.324
			c1.469-1.469,3.854-1.469,5.324,0l4.915,4.915c0.372,0.37,0.974,0.37,1.346,0l13.309-13.31c1.471-1.47,3.855-1.47,5.325,0
			c0.707,0.706,1.104,1.664,1.104,2.663c0,0.998-0.396,1.956-1.104,2.662L20.246,34.736z"/>
	</g>
</g>
</svg>
