<?xml version="1.0" encoding="utf-8"?>
<!-- Generator: Adobe Illustrator 16.0.0, SVG Export Plug-In . SVG Version: 6.00 Build 0)  -->
<!DOCTYPE svg PUBLIC "-//W3C//DTD SVG 1.1//EN" "http://www.w3.org/Graphics/SVG/1.1/DTD/svg11.dtd">
<svg version="1.1" id="Capa_1" xmlns="http://www.w3.org/2000/svg" xmlns:xlink="http://www.w3.org/1999/xlink" x="0px" y="0px"
	 width="512px" height="512px" viewBox="0 0 512 512" enable-background="new 0 0 512 512" xml:space="preserve">
<g>
	<g>
		<path fill="#FFFFFF" d="M307.009,367.916c0,24.853,20.132,44.982,44.989,44.982c24.849,0,44.985-20.13,44.985-44.982
			c0-24.851-20.137-44.98-44.985-44.98C327.141,322.936,307.009,343.065,307.009,367.916z M332.436,367.916
			c0-10.807,8.76-19.555,19.563-19.555c10.802,0,19.555,8.748,19.555,19.555c0,10.803-8.753,19.557-19.555,19.557
			C341.196,387.473,332.436,378.719,332.436,367.916z"/>
		<path fill="#FFFFFF" d="M69.792,367.916c0,24.853,20.131,44.982,44.989,44.982c24.849,0,44.984-20.13,44.984-44.982
			c0-24.851-20.136-44.98-44.984-44.98C89.923,322.936,69.792,343.065,69.792,367.916z M95.219,367.916
			c0-10.807,8.759-19.555,19.563-19.555c10.802,0,19.554,8.748,19.554,19.555c0,10.803-8.752,19.557-19.554,19.557
			C103.978,387.473,95.219,378.719,95.219,367.916z"/>
		<path fill="#FFFFFF" d="M301.389,177.843c0-6.302,5.156-11.459,11.46-11.459h158.144c6.303,0,11.459,5.157,11.459,11.459v6.876
			c0,6.303-5.155,11.46-11.459,11.46H312.849c-6.302,0-11.46-5.157-11.46-11.46V177.843z"/>
		<path fill="#FFFFFF" d="M0,296.357v48.664c0,14.09,11.525,25.615,25.616,25.615c0,0,16.118,0,29.133,0
			c1.434,0,1.411-1.805,1.411-2.718c0-32.318,26.297-58.612,58.62-58.612s58.621,26.291,58.621,58.612
			c0,0.786-0.094,2.718,2.197,2.718c0,0,87.169,0,115.552,0c2.483,0,2.225-1.805,2.225-2.718c0-32.318,26.297-58.612,58.622-58.612
			c32.322,0,58.62,26.291,58.62,58.612c0,0.909,0.479,2.718,3.726,2.718c3.58,0,14.318,0,14.318,0
			c14.257,0,25.922-11.666,25.922-25.922c0,0,0-41.768,0-55.691c0-8.021-10.074-7.834-10.074-7.834h-89.508
			c-12.638,0-22.92-10.281-22.92-22.92v-6.875c0-12.637,10.282-22.919,22.92-22.919h90.943c0,0,8.639,0.004,8.639-6.3
			c0-1.981,0-4.369,0-7.926c0-7.162-6.634-6.61-6.634-6.61H312.849c-12.638,0-22.92-10.281-22.92-22.919v-6.876
			c0-12.638,10.282-22.919,22.92-22.919c0,0,101.325,0,135.101,0c6.634,0,6.634-6.854,6.634-6.854v-23.047
			c0-14.255-11.665-25.922-36.235-25.922h-241.42c-17.162,0-25.229,11.665-25.229,25.922c0,0,0,27.583,0,36.777
			c0,4.01-3.985,3.927-3.985,3.927h-29.622c-14.083,0-30.911,10.235-37.391,22.744l-21.658,43.85
			c-6.477,12.509-15.916,15.205-32.41,19.493C12.939,255.374-0.002,255.374,0,296.357z M72.045,247.005
			c0.93-1.25,1.797-2.645,2.608-4.215l19.272-39.019c5.764-11.13,20.736-20.238,33.271-20.238c0,0,15.603,0,20.804,0
			c3.868,0,3.698,2.332,3.698,2.332v60.736c0,0-0.4,2.933-3.412,2.933c-18.514,0-72.911,0-72.911,0
			C72.509,249.535,71.361,247.921,72.045,247.005z"/>
		<path fill="#FFFFFF" d="M343.542,251.394c0-6.302,5.155-11.459,11.459-11.459h145.538c6.303,0,11.459,5.157,11.459,11.459v6.875
			c0,6.304-5.155,11.461-11.459,11.461H355.001c-6.302,0-11.459-5.157-11.459-11.461V251.394z"/>
	</g>
</g>
</svg>
