<?xml version="1.0" encoding="utf-8"?>
<!-- Generator: Adobe Illustrator 16.0.0, SVG Export Plug-In . SVG Version: 6.00 Build 0)  -->
<!DOCTYPE svg PUBLIC "-//W3C//DTD SVG 1.1//EN" "http://www.w3.org/Graphics/SVG/1.1/DTD/svg11.dtd">
<svg version="1.1" id="Capa_1" xmlns="http://www.w3.org/2000/svg" xmlns:xlink="http://www.w3.org/1999/xlink" x="0px" y="0px"
	 width="512px" height="512px" viewBox="0 0 512 512" enable-background="new 0 0 512 512" xml:space="preserve">
<g>
	<g>
		<path fill="#FFD27B" d="M466.281,457.144c11.511,0,21.481-3.8,29.959-11.304L351.183,300.777c-3.48,2.492-6.854,4.914-10.04,7.219
			c-10.855,7.998-19.666,14.24-26.432,18.712c-6.765,4.481-15.765,9.051-26.999,13.716c-11.242,4.67-21.715,6.998-31.432,6.998
			h-0.284h-0.284c-9.717,0-20.19-2.326-31.433-6.998c-11.24-4.665-20.24-9.232-26.999-13.716
			c-6.765-4.472-15.569-10.712-26.431-18.712c-3.026-2.219-6.384-4.652-10.013-7.258L15.752,445.84
			c8.477,7.504,18.456,11.304,29.964,11.304H466.281L466.281,457.144z"/>
		<path fill="#FFD27B" d="M28.861,209.43C18.006,202.193,8.38,193.905,0,184.57v220.702l127.854-127.854
			C102.276,259.563,69.32,236.925,28.861,209.43z"/>
		<path fill="#FFD27B" d="M483.429,209.43c-38.917,26.34-71.992,49.015-99.231,68.041L512,405.277V184.57
			C503.806,193.718,494.282,202,483.429,209.43z"/>
		<path fill="#FFD27B" d="M466.281,54.856H45.717c-14.672,0-25.952,4.955-33.854,14.854C3.953,79.614,0.005,91.999,0.005,106.853
			c0,11.998,5.239,24.998,15.713,39.004c10.474,14,21.618,24.997,33.428,32.996c6.476,4.575,25.999,18.148,58.574,40.716
			c17.585,12.186,32.877,22.807,46.019,31.973c11.201,7.806,20.86,14.563,28.838,20.172c0.915,0.644,2.354,1.672,4.267,3.039
			c2.059,1.479,4.664,3.354,7.879,5.677c6.189,4.478,11.332,8.096,15.428,10.86c4.09,2.767,9.046,5.854,14.859,9.284
			c5.809,3.425,11.287,6.001,16.43,7.714c5.145,1.713,9.904,2.571,14.285,2.571h0.284h0.284c4.379,0,9.142-0.858,14.286-2.571
			c5.141-1.713,10.614-4.283,16.429-7.714c5.808-3.432,10.757-6.525,14.858-9.284c4.097-2.767,9.238-6.383,15.431-10.86
			c3.208-2.32,5.813-4.199,7.872-5.673c1.911-1.371,3.352-2.396,4.271-3.043c6.213-4.323,15.896-11.055,28.913-20.093
			c23.688-16.458,58.572-40.682,104.801-72.768c13.904-9.711,25.521-21.43,34.855-35.14c9.317-13.71,13.991-28.092,13.991-43.14
			c0-12.572-4.53-23.33-13.57-32.29C489.38,59.333,478.661,54.856,466.281,54.856z"/>
	</g>
</g>
</svg>
