<?xml version="1.0" encoding="utf-8"?>
<!-- Generator: Adobe Illustrator 16.0.0, SVG Export Plug-In . SVG Version: 6.00 Build 0)  -->
<!DOCTYPE svg PUBLIC "-//W3C//DTD SVG 1.1//EN" "http://www.w3.org/Graphics/SVG/1.1/DTD/svg11.dtd">
<svg version="1.1" id="Capa_1" xmlns="http://www.w3.org/2000/svg" xmlns:xlink="http://www.w3.org/1999/xlink" x="0px" y="0px"
	 width="768px" height="545.984px" viewBox="128 110.995 768 545.984" enable-background="new 128 110.995 768 545.984"
	 xml:space="preserve">
<g>
	<g>
		<path fill="#FD991C" d="M749.814,532.687c-3.046,0-6.092-1.114-8.47-3.368L598.85,395.639c-4.978-4.655-5.226-12.506-0.545-17.483
			c4.681-5.027,12.481-5.25,17.509-0.545l142.495,133.68c4.978,4.655,5.226,12.506,0.545,17.483
			C756.402,531.374,753.133,532.687,749.814,532.687z"/>
		<path fill="#FD991C" d="M274.161,532.687c-3.293,0-6.587-1.313-9.039-3.913c-4.681-4.978-4.433-12.828,0.545-17.483
			l142.545-133.68c5.002-4.656,12.853-4.458,17.508,0.545c4.681,4.978,4.434,12.828-0.544,17.483L282.63,529.319
			C280.253,531.573,277.207,532.687,274.161,532.687z"/>
	</g>
	<path fill="#FD991C" d="M834.089,656.98H189.912c-34.125,0-61.912-27.761-61.912-61.911V172.906
		c0-34.15,27.786-61.911,61.912-61.911h644.177c34.125,0,61.911,27.761,61.911,61.911v422.162
		C896,629.219,868.214,656.98,834.089,656.98z M189.912,135.76c-20.48,0-37.147,16.666-37.147,37.146v422.162
		c0,20.48,16.667,37.146,37.147,37.146h644.177c20.479,0,37.146-16.666,37.146-37.146V172.906c0-20.48-16.667-37.146-37.146-37.146
		H189.912z"/>
	<path fill="#FD991C" d="M512,446.208c-16.469,0-32.937-5.473-45.468-16.394L148.555,152.426
		c-5.151-4.482-5.696-12.308-1.213-17.483c4.532-5.151,12.333-5.622,17.484-1.189l317.978,277.364
		c15.824,13.793,42.57,13.793,58.37,0l317.581-276.918c5.127-4.482,12.928-3.987,17.484,1.188
		c4.482,5.176,3.962,12.977-1.189,17.484L557.468,429.789C544.912,440.736,528.469,446.208,512,446.208z"/>
</g>
</svg>
