<?xml version="1.0" encoding="utf-8"?>
<!-- Generator: Adobe Illustrator 16.0.0, SVG Export Plug-In . SVG Version: 6.00 Build 0)  -->
<!DOCTYPE svg PUBLIC "-//W3C//DTD SVG 1.1//EN" "http://www.w3.org/Graphics/SVG/1.1/DTD/svg11.dtd">
<svg version="1.1" id="Layer_1" xmlns="http://www.w3.org/2000/svg" xmlns:xlink="http://www.w3.org/1999/xlink" x="0px" y="0px"
	 width="150px" height="376.003px" viewBox="0 0 150 376.003" enable-background="new 0 0 150 376.003" xml:space="preserve">
<rect y="-0.5" display="none" fill="#A91F1E" width="73" height="73"/>
<g>
	<path fill="#969596" d="M29.931,39.923c-0.65,0-1.177,0.527-1.177,1.177v5.337l-4.477-6.038c-0.302-0.407-0.832-0.575-1.314-0.416
		c-0.482,0.159-0.808,0.609-0.808,1.117v8.249c0,0.649,0.527,1.177,1.177,1.177s1.177-0.527,1.177-1.177v-4.686l4.477,6.037
		c0.227,0.306,0.58,0.477,0.946,0.477c0.123,0,0.248-0.02,0.369-0.06c0.482-0.159,0.808-0.609,0.808-1.117v-8.9
		C31.107,40.45,30.581,39.923,29.931,39.923z"/>
	<path fill="#969596" d="M49.005,39.923c-0.65,0-1.177,0.527-1.177,1.177v3.658l-0.732-1.335c-0.204-0.372-0.593-0.605-1.018-0.61
		c-0.419-0.011-0.819,0.219-1.032,0.587l-0.91,1.57V41.1c0-0.649-0.527-1.177-1.177-1.177s-1.177,0.527-1.177,1.177v8.249
		c0,0.532,0.357,0.998,0.872,1.137c0.514,0.138,1.057-0.086,1.324-0.547l2.059-3.554l1.937,3.53c0.21,0.383,0.609,0.61,1.032,0.61
		c0.097,0,0.195-0.012,0.292-0.037c0.521-0.133,0.885-0.603,0.885-1.14V41.1C50.182,40.45,49.655,39.923,49.005,39.923
		L49.005,39.923z"/>
	<path fill="#969596" d="M39.093,42.276c0.65,0,1.177-0.526,1.177-1.177c0-0.649-0.527-1.177-1.177-1.177h-4.904
		c-0.65,0-1.177,0.527-1.177,1.177v8.249c0,0.649,0.527,1.177,1.177,1.177h4.904c0.65,0,1.177-0.527,1.177-1.177
		c0-0.65-0.527-1.177-1.177-1.177h-3.727v-1.771h3.727c0.65,0,1.177-0.527,1.177-1.177c0-0.65-0.527-1.177-1.177-1.177h-3.727
		v-1.771H39.093z"/>
	<path fill="#969596" d="M52.968,32.8l-15.844-22c-0.221-0.307-0.577-0.489-0.955-0.489s-0.734,0.183-0.955,0.489l-15.845,22
		c-2.192,0.554-3.819,2.541-3.819,4.902v15.695c0,2.788,2.268,5.056,5.056,5.056h31.125c2.788,0,5.056-2.269,5.056-5.056V37.702
		C56.788,35.341,55.16,33.354,52.968,32.8L52.968,32.8z M36.168,13.502l13.788,19.145H22.38L36.168,13.502z M54.434,53.397
		c0,1.49-1.212,2.702-2.702,2.702H20.605c-1.49,0-2.702-1.212-2.702-2.702V37.702c0-1.49,1.212-2.702,2.702-2.702h31.126
		c1.49,0,2.702,1.212,2.702,2.702V53.397z"/>
	<path fill="#969596" d="M20.083,35.915c-0.31,0-0.614,0.124-0.832,0.345c-0.22,0.219-0.345,0.521-0.345,0.832
		c0,0.31,0.125,0.612,0.345,0.832c0.218,0.219,0.522,0.345,0.832,0.345c0.309,0,0.612-0.126,0.832-0.345
		c0.219-0.22,0.345-0.522,0.345-0.832c0-0.311-0.126-0.613-0.345-0.832C20.695,36.039,20.392,35.915,20.083,35.915z"/>
	<path fill="#969596" d="M52.254,35.915c-0.309,0-0.613,0.124-0.832,0.345c-0.219,0.219-0.345,0.521-0.345,0.832
		c0,0.31,0.126,0.612,0.345,0.832c0.22,0.219,0.523,0.345,0.832,0.345c0.31,0,0.614-0.126,0.833-0.345
		c0.22-0.22,0.344-0.522,0.344-0.832c0-0.311-0.124-0.613-0.344-0.832C52.868,36.039,52.563,35.915,52.254,35.915z"/>
</g>
<rect y="75.003" display="none" fill="#A91F1E" width="73" height="73"/>
<g>
	<g>
		<path fill="#969596" d="M54.643,110.693c-0.075-0.096-1.883-2.363-4.982-4.64c-4.142-3.043-8.647-4.651-13.031-4.651
			s-8.891,1.608-13.032,4.651c-3.099,2.277-4.907,4.544-4.982,4.64l-0.641,0.811l0.641,0.81c0.075,0.096,1.883,2.363,4.982,4.64
			c4.142,3.043,8.648,4.651,13.032,4.651s8.89-1.608,13.031-4.651c3.1-2.277,4.908-4.544,4.982-4.64l0.641-0.81L54.643,110.693z
			 M36.629,118.581c-3.902,0-7.077-3.175-7.077-7.077c0-0.612,0.078-1.206,0.225-1.771l-1.616-0.272
			c-0.158,0.656-0.242,1.34-0.242,2.044c0,2.52,1.076,4.794,2.793,6.385c-2.21-0.816-4.09-1.962-5.508-2.998
			c-1.757-1.283-3.074-2.583-3.825-3.387c0.751-0.808,2.068-2.105,3.825-3.389c1.418-1.036,3.298-2.181,5.508-2.999l1.084,1.222
			c1.266-1.186,2.965-1.912,4.833-1.912c3.902,0,7.077,3.173,7.077,7.077C43.706,115.406,40.531,118.581,36.629,118.581z
			 M48.054,114.891c-1.418,1.036-3.298,2.182-5.509,2.998c1.717-1.591,2.794-3.866,2.794-6.386c0-2.52-1.077-4.794-2.794-6.386
			c2.21,0.817,4.09,1.962,5.509,2.999c1.757,1.283,3.074,2.583,3.825,3.388C51.128,112.31,49.812,113.608,48.054,114.891z"/>
		<path fill="#969596" d="M32.125,110.127c-0.132,0.435-0.204,0.897-0.204,1.376c0,2.6,2.107,4.708,4.708,4.708
			c2.6,0,4.708-2.108,4.708-4.708c0-2.601-2.108-4.708-4.708-4.708c-1.267,0-2.416,0.501-3.262,1.314l2.322,2.619L32.125,110.127z"
			/>
	</g>
</g>
<rect y="151.003" display="none" fill="#A91F1E" width="73" height="73"/>
<g>
	<path id="XMLID_810_" fill="#969596" d="M50.867,176.964c-1.874-1.873-4.369-2.909-7.019-2.909c-2.651,0-5.153,1.036-7.027,2.917
		l-0.541,0.54l-0.555-0.555c-1.88-1.881-4.376-2.918-7.034-2.918c-2.65,0-5.138,1.029-7.012,2.91c-1.88,1.881-2.91,4.376-2.91,7.026
		c0,2.651,1.037,5.146,2.917,7.02l13.527,13.527c0.281,0.281,0.667,0.444,1.073,0.444c0.4,0,0.785-0.163,1.074-0.444l13.491-13.505
		c1.88-1.881,2.91-4.376,2.917-7.026C53.776,181.34,52.74,178.845,50.867,176.964z M28.58,180.681c-1.77,0-3.213,1.444-3.213,3.214
		c0,0.814-0.659,1.474-1.474,1.474s-1.473-0.659-1.473-1.474c0-3.392,2.762-6.153,6.153-6.153c0.814,0,1.473,0.659,1.473,1.474
		C30.054,180.029,29.395,180.681,28.58,180.681z"/>
</g>
<rect y="227.003" display="none" fill="#A91F1E" width="73" height="73"/>
<g>
	<path fill="#969596" d="M40.959,269.079c0.668-1.118,1.652-1.69,2.956-1.706c1.304-0.015,1.962-0.679,1.983-1.986
		c0.019-1.301,0.585-2.285,1.703-2.95c1.121-0.668,1.363-1.568,0.725-2.707c-0.635-1.137-0.635-2.272,0-3.411
		c0.638-1.137,0.397-2.034-0.725-2.703c-1.118-0.67-1.686-1.652-1.703-2.96c-0.021-1.3-0.679-1.964-1.983-1.98
		c-1.304-0.018-2.288-0.588-2.956-1.705c-0.669-1.12-1.568-1.364-2.704-0.726c-1.136,0.636-2.275,0.636-3.411,0
		c-1.138-0.637-2.037-0.395-2.707,0.726c-0.667,1.119-1.652,1.689-2.954,1.705c-1.301,0.017-1.962,0.681-1.98,1.98
		c-0.022,1.308-0.588,2.288-1.706,2.96c-1.122,0.669-1.367,1.565-0.726,2.703c0.638,1.139,0.638,2.274,0,3.411
		c-0.641,1.139-0.397,2.04,0.726,2.707c1.117,0.665,1.686,1.649,1.706,2.95c0.018,1.305,0.679,1.972,1.98,1.986
		c1.303,0.016,2.287,0.588,2.956,1.706c0.668,1.12,1.568,1.363,2.705,0.722c1.136-0.628,2.275-0.628,3.411,0
		C39.391,270.441,40.292,270.199,40.959,269.079z M36.552,265.159c-3.942,0-7.137-3.195-7.137-7.137
		c0-3.939,3.194-7.135,7.137-7.135c3.94,0,7.134,3.195,7.134,7.135C43.686,261.964,40.492,265.159,36.552,265.159z"/>
	<path fill="#969596" d="M29.068,268.42c-1.371,0-1.554-0.64-1.554-0.64l-5.355,10.526l4.294-0.483l2.375,3.573
		c0,0,4.947-10.322,4.947-10.253C31.21,271.079,32.231,268.488,29.068,268.42z"/>
	<path fill="#969596" d="M45.514,268.193c-3.912,0.409-3.116,1.38-4.011,2.135c-1.029,1.099-2.315,0.882-2.315,0.882l6.039,10.392
		l1.486-3.849l4.224,0.552L45.514,268.193z"/>
	<polygon fill="#969596" points="38.042,256.447 36.549,253.425 35.054,256.447 31.711,256.937 34.127,259.292 33.558,262.625 
		36.549,261.053 39.541,262.625 38.971,259.292 41.386,256.937 	"/>
</g>
<rect y="303.003" display="none" fill="#A91F1E" width="73" height="73"/>
<g>
	<path fill="#969596" d="M54.262,343.646c-0.075-0.239-0.282-0.412-0.529-0.447l-5.056-0.708l-2.258-4.408
		c-0.222-0.435-0.935-0.435-1.157,0l-2.257,4.408l-5.056,0.708c-0.248,0.035-0.454,0.208-0.529,0.447
		c-0.075,0.239-0.008,0.499,0.175,0.67l3.644,3.425l-0.858,4.829c-0.043,0.241,0.055,0.487,0.252,0.635
		c0.115,0.086,0.251,0.128,0.388,0.128c0.1,0,0.202-0.021,0.294-0.069l4.528-2.294l4.528,2.294c0.219,0.112,0.484,0.089,0.682-0.059
		c0.197-0.147,0.295-0.393,0.252-0.635l-0.859-4.829l3.644-3.425C54.269,344.145,54.337,343.884,54.262,343.646z M49.296,347.033
		c-0.16,0.15-0.233,0.371-0.195,0.587l0.692,3.893l-3.659-1.854c-0.093-0.047-0.193-0.07-0.294-0.07c-0.1,0-0.201,0.023-0.293,0.07
		l-3.659,1.854l0.692-3.893c0.039-0.216-0.035-0.437-0.195-0.587l-2.912-2.736l4.047-0.566c0.209-0.029,0.392-0.158,0.489-0.347
		l1.832-3.579l1.833,3.579c0.096,0.188,0.279,0.317,0.488,0.347l4.047,0.566L49.296,347.033z"/>
	<polygon fill="#969596" points="15.772,343.068 32.122,359.453 36.114,355.471 19.748,339.104 	"/>
	<path fill="#969596" d="M33.115,342.278c0.076-0.238,0.282-0.412,0.529-0.447l8.086-1.132l3.532-6.896
		c0.222-0.435,0.935-0.435,1.157,0l3.532,6.896l0.854,0.12l1.646-1.642v-9.193l-7.226-7.21h-9.105l-15.451,15.411l16.367,16.367
		l1.227-1.225l0.87-4.89l-5.842-5.489C33.107,342.777,33.04,342.517,33.115,342.278z M43.358,328.626
		c1.411,0,2.558,1.148,2.558,2.56s-1.147,2.559-2.558,2.559c-1.411,0-2.559-1.147-2.559-2.559S41.947,328.626,43.358,328.626z"/>
</g>
<rect x="77" y="-0.5" display="none" fill="#A91F1E" width="73" height="73"/>
<g>
	<path fill="#FFFFFF" d="M106.931,39.923c-0.65,0-1.177,0.527-1.177,1.177v5.337l-4.477-6.038c-0.303-0.407-0.832-0.575-1.314-0.416
		s-0.809,0.609-0.809,1.117v8.249c0,0.649,0.527,1.177,1.178,1.177c0.649,0,1.176-0.527,1.176-1.177v-4.686l4.477,6.037
		c0.227,0.306,0.58,0.477,0.946,0.477c0.123,0,0.247-0.02,0.368-0.06c0.482-0.159,0.809-0.609,0.809-1.117v-8.9
		C108.107,40.45,107.58,39.923,106.931,39.923z"/>
	<path fill="#FFFFFF" d="M126.006,39.923c-0.65,0-1.178,0.527-1.178,1.177v3.658l-0.732-1.335c-0.203-0.372-0.593-0.605-1.018-0.61
		c-0.419-0.011-0.818,0.219-1.031,0.587l-0.91,1.57V41.1c0-0.649-0.527-1.177-1.178-1.177c-0.649,0-1.176,0.527-1.176,1.177v8.249
		c0,0.532,0.357,0.998,0.871,1.137c0.514,0.138,1.057-0.086,1.324-0.547l2.059-3.554l1.937,3.53c0.21,0.383,0.609,0.61,1.032,0.61
		c0.096,0,0.194-0.012,0.291-0.037c0.521-0.133,0.885-0.603,0.885-1.14V41.1C127.182,40.45,126.655,39.923,126.006,39.923
		L126.006,39.923z"/>
	<path fill="#FFFFFF" d="M116.093,42.276c0.649,0,1.177-0.526,1.177-1.177c0-0.649-0.527-1.177-1.177-1.177h-4.903
		c-0.65,0-1.178,0.527-1.178,1.177v8.249c0,0.649,0.527,1.177,1.178,1.177h4.903c0.649,0,1.177-0.527,1.177-1.177
		c0-0.65-0.527-1.177-1.177-1.177h-3.728v-1.771h3.728c0.649,0,1.177-0.527,1.177-1.177c0-0.65-0.527-1.177-1.177-1.177h-3.728
		v-1.771H116.093z"/>
	<path fill="#FFFFFF" d="M129.968,32.8l-15.845-22c-0.221-0.307-0.576-0.489-0.955-0.489c-0.378,0-0.733,0.183-0.954,0.489
		l-15.845,22c-2.191,0.554-3.819,2.541-3.819,4.902v15.695c0,2.788,2.269,5.056,5.056,5.056h31.126c2.788,0,5.056-2.269,5.056-5.056
		V37.702C133.787,35.341,132.16,33.354,129.968,32.8L129.968,32.8z M113.168,13.502l13.789,19.145H99.381L113.168,13.502z
		 M131.434,53.397c0,1.49-1.212,2.702-2.702,2.702H97.605c-1.49,0-2.702-1.212-2.702-2.702V37.702c0-1.49,1.212-2.702,2.702-2.702
		h31.126c1.49,0,2.702,1.212,2.702,2.702V53.397z"/>
	<path fill="#FFFFFF" d="M97.083,35.915c-0.31,0-0.614,0.124-0.832,0.345c-0.22,0.219-0.345,0.521-0.345,0.832
		c0,0.31,0.125,0.612,0.345,0.832c0.218,0.219,0.522,0.345,0.832,0.345s0.612-0.126,0.832-0.345c0.219-0.22,0.345-0.522,0.345-0.832
		c0-0.311-0.126-0.613-0.345-0.832C97.695,36.039,97.393,35.915,97.083,35.915z"/>
	<path fill="#FFFFFF" d="M129.254,35.915c-0.309,0-0.613,0.124-0.832,0.345c-0.219,0.219-0.345,0.521-0.345,0.832
		c0,0.31,0.126,0.612,0.345,0.832c0.221,0.219,0.523,0.345,0.832,0.345c0.31,0,0.613-0.126,0.832-0.345
		c0.221-0.22,0.345-0.522,0.345-0.832c0-0.311-0.124-0.613-0.345-0.832C129.867,36.039,129.563,35.915,129.254,35.915z"/>
</g>
<rect x="77" y="75.003" display="none" fill="#A91F1E" width="73" height="73"/>
<g>
	<g>
		<path fill="#FFFFFF" d="M131.643,110.693c-0.074-0.096-1.883-2.363-4.982-4.64c-4.141-3.043-8.646-4.651-13.031-4.651
			c-4.384,0-8.891,1.608-13.031,4.651c-3.1,2.277-4.908,4.544-4.982,4.64l-0.641,0.811l0.641,0.81
			c0.074,0.096,1.883,2.363,4.982,4.64c4.142,3.043,8.647,4.651,13.031,4.651c4.385,0,8.891-1.608,13.031-4.651
			c3.1-2.277,4.908-4.544,4.982-4.64l0.642-0.81L131.643,110.693z M113.629,118.581c-3.902,0-7.076-3.175-7.076-7.077
			c0-0.612,0.078-1.206,0.225-1.771l-1.616-0.272c-0.158,0.656-0.242,1.34-0.242,2.044c0,2.52,1.076,4.794,2.794,6.385
			c-2.211-0.816-4.09-1.962-5.509-2.998c-1.757-1.283-3.074-2.583-3.825-3.387c0.752-0.808,2.068-2.105,3.825-3.389
			c1.419-1.036,3.298-2.181,5.509-2.999l1.084,1.222c1.266-1.186,2.965-1.912,4.832-1.912c3.902,0,7.077,3.173,7.077,7.077
			C120.706,115.406,117.531,118.581,113.629,118.581z M125.055,114.891c-1.419,1.036-3.299,2.182-5.51,2.998
			c1.718-1.591,2.795-3.866,2.795-6.386c0-2.52-1.077-4.794-2.795-6.386c2.211,0.817,4.091,1.962,5.51,2.999
			c1.757,1.283,3.074,2.583,3.824,3.388C128.128,112.31,126.812,113.608,125.055,114.891z"/>
		<path fill="#FFFFFF" d="M109.125,110.127c-0.132,0.435-0.203,0.897-0.203,1.376c0,2.6,2.107,4.708,4.707,4.708
			c2.601,0,4.709-2.108,4.709-4.708c0-2.601-2.108-4.708-4.709-4.708c-1.267,0-2.415,0.501-3.262,1.314l2.322,2.619L109.125,110.127
			z"/>
	</g>
</g>
<rect x="77" y="151.003" display="none" fill="#A91F1E" width="73" height="73"/>
<g>
	<path id="XMLID_1_" fill="#FFFFFF" d="M127.867,176.964c-1.874-1.873-4.369-2.909-7.02-2.909s-5.153,1.036-7.027,2.917l-0.54,0.54
		l-0.556-0.555c-1.88-1.881-4.375-2.918-7.033-2.918c-2.65,0-5.139,1.029-7.012,2.91c-1.881,1.881-2.91,4.376-2.91,7.026
		c0,2.651,1.037,5.146,2.918,7.02l13.527,13.527c0.281,0.281,0.666,0.444,1.072,0.444c0.4,0,0.785-0.163,1.074-0.444l13.49-13.505
		c1.881-1.881,2.91-4.376,2.918-7.026C130.776,181.34,129.74,178.845,127.867,176.964z M105.58,180.681
		c-1.77,0-3.213,1.444-3.213,3.214c0,0.814-0.66,1.474-1.475,1.474s-1.473-0.659-1.473-1.474c0-3.392,2.762-6.153,6.152-6.153
		c0.814,0,1.474,0.659,1.474,1.474C107.054,180.029,106.395,180.681,105.58,180.681z"/>
</g>
<rect x="77" y="227.003" display="none" fill="#A91F1E" width="73" height="73"/>
<g>
	<path fill="#FFFFFF" d="M117.959,269.079c0.668-1.118,1.652-1.69,2.956-1.706c1.304-0.015,1.962-0.679,1.983-1.986
		c0.019-1.301,0.585-2.285,1.703-2.95c1.121-0.668,1.363-1.568,0.725-2.707c-0.635-1.137-0.635-2.272,0-3.411
		c0.639-1.137,0.397-2.034-0.725-2.703c-1.118-0.67-1.686-1.652-1.703-2.96c-0.021-1.3-0.68-1.964-1.983-1.98
		c-1.304-0.018-2.288-0.588-2.956-1.705c-0.669-1.12-1.568-1.364-2.704-0.726c-1.136,0.636-2.275,0.636-3.411,0
		c-1.139-0.637-2.037-0.395-2.707,0.726c-0.666,1.119-1.651,1.689-2.953,1.705c-1.302,0.017-1.963,0.681-1.98,1.98
		c-0.022,1.308-0.589,2.288-1.706,2.96c-1.122,0.669-1.366,1.565-0.726,2.703c0.639,1.139,0.639,2.274,0,3.411
		c-0.641,1.139-0.396,2.04,0.726,2.707c1.117,0.665,1.686,1.649,1.706,2.95c0.018,1.305,0.679,1.972,1.98,1.986
		c1.303,0.016,2.287,0.588,2.955,1.706c0.669,1.12,1.568,1.363,2.705,0.722c1.136-0.628,2.275-0.628,3.411,0
		C116.391,270.441,117.291,270.199,117.959,269.079z M113.552,265.159c-3.942,0-7.137-3.195-7.137-7.137
		c0-3.939,3.194-7.135,7.137-7.135c3.94,0,7.134,3.195,7.134,7.135C120.686,261.964,117.492,265.159,113.552,265.159z"/>
	<path fill="#FFFFFF" d="M106.068,268.42c-1.371,0-1.555-0.64-1.555-0.64l-5.355,10.526l4.295-0.483l2.374,3.573
		c0,0,4.947-10.322,4.947-10.253C108.211,271.079,109.23,268.488,106.068,268.42z"/>
	<path fill="#FFFFFF" d="M122.514,268.193c-3.912,0.409-3.116,1.38-4.012,2.135c-1.029,1.099-2.314,0.882-2.314,0.882l6.039,10.392
		l1.486-3.849l4.223,0.552L122.514,268.193z"/>
	<polygon fill="#FFFFFF" points="115.042,256.447 113.549,253.425 112.055,256.447 108.711,256.937 111.127,259.292 
		110.558,262.625 113.549,261.053 116.541,262.625 115.971,259.292 118.387,256.937 	"/>
</g>
<rect x="77" y="303.003" display="none" fill="#A91F1E" width="73" height="73"/>
<g>
	<path fill="#FFFFFF" d="M131.262,343.646c-0.075-0.239-0.282-0.412-0.529-0.447l-5.056-0.708l-2.258-4.408
		c-0.222-0.435-0.935-0.435-1.157,0l-2.257,4.408l-5.056,0.708c-0.248,0.035-0.454,0.208-0.529,0.447
		c-0.076,0.239-0.008,0.499,0.175,0.67l3.644,3.425l-0.858,4.829c-0.044,0.241,0.055,0.487,0.252,0.635
		c0.114,0.086,0.251,0.128,0.388,0.128c0.101,0,0.202-0.021,0.295-0.069l4.527-2.294l4.528,2.294
		c0.219,0.112,0.483,0.089,0.683-0.059c0.197-0.147,0.295-0.393,0.252-0.635l-0.859-4.829l3.644-3.425
		C131.27,344.145,131.338,343.884,131.262,343.646z M126.296,347.033c-0.16,0.15-0.233,0.371-0.194,0.587l0.691,3.893l-3.658-1.854
		c-0.094-0.047-0.193-0.07-0.295-0.07c-0.1,0-0.201,0.023-0.293,0.07l-3.66,1.854l0.692-3.893c0.039-0.216-0.035-0.437-0.195-0.587
		l-2.912-2.736l4.048-0.566c0.209-0.029,0.392-0.158,0.488-0.347l1.832-3.579l1.832,3.579c0.097,0.188,0.279,0.317,0.488,0.347
		l4.047,0.566L126.296,347.033z"/>
	<polygon fill="#FFFFFF" points="92.771,343.068 109.121,359.453 113.114,355.471 96.748,339.104 	"/>
	<path fill="#FFFFFF" d="M110.115,342.278c0.075-0.238,0.281-0.412,0.529-0.447l8.086-1.132l3.531-6.896
		c0.223-0.435,0.936-0.435,1.156,0l3.533,6.896l0.854,0.12l1.646-1.642v-9.193l-7.226-7.21h-9.105l-15.451,15.411l16.367,16.367
		l1.227-1.225l0.87-4.89l-5.843-5.489C110.107,342.777,110.039,342.517,110.115,342.278z M120.357,328.626
		c1.412,0,2.559,1.148,2.559,2.56s-1.146,2.559-2.559,2.559c-1.41,0-2.559-1.147-2.559-2.559S118.947,328.626,120.357,328.626z"/>
</g>
</svg>
