<?xml version="1.0" encoding="utf-8"?>
<!-- Generator: Adobe Illustrator 16.0.0, SVG Export Plug-In . SVG Version: 6.00 Build 0)  -->
<!DOCTYPE svg PUBLIC "-//W3C//DTD SVG 1.1//EN" "http://www.w3.org/Graphics/SVG/1.1/DTD/svg11.dtd">
<svg version="1.1" id="OBJECTS" xmlns="http://www.w3.org/2000/svg" xmlns:xlink="http://www.w3.org/1999/xlink" x="0px" y="0px"
	 width="800px" height="668.305px" viewBox="0 0 800 668.305" enable-background="new 0 0 800 668.305" xml:space="preserve">
<g>
	<circle fill="#FC981B" cx="504.421" cy="462.032" r="154.123"/>
	<circle fill="#FFC78F" cx="290.706" cy="263.876" r="92.28"/>
	<circle fill="#FFCE00" cx="508.641" cy="246.536" r="115.89"/>
	<circle fill="#86E2AF" cx="296.027" cy="468.076" r="102.372"/>
	<g>
		<path fill="#556080" d="M534.697,538.76H290.019c-23.017,0-41.679-18.662-41.679-41.679V252.402
			c0-23.017,18.662-41.678,41.679-41.678h244.678c23.018,0,41.68,18.662,41.68,41.678v244.679
			C576.377,520.098,557.715,538.76,534.697,538.76z"/>
		<path fill="#F0C419" d="M406.284,235.022H290.019c-9.586,0-17.38,7.793-17.38,17.379v116.265h133.645V235.022z"/>
		<path fill="#ED7161" d="M272.639,380.816v116.265c0,9.586,7.793,17.379,17.38,17.379h116.265V380.816H272.639z"/>
		<path fill="#67B9CC" d="M534.697,235.022H418.434v133.644h133.644V252.402C552.077,242.816,544.283,235.022,534.697,235.022z"/>
		<path fill="#A4E869" d="M418.434,514.46h116.264c9.586,0,17.38-7.793,17.38-17.379V380.816H418.434V514.46z"/>
		<circle fill="#F29C1F" cx="336.424" cy="304.881" r="45.56"/>
		
			<rect x="455.182" y="271.779" transform="matrix(-0.7071 0.7071 -0.7071 -0.7071 1041.8074 172.1571)" fill="#48A0DC" width="60.133" height="60.134"/>
		<polygon fill="#DF4D60" points="381.984,484.087 339.462,484.087 296.938,484.087 339.462,399.042 		"/>
		<polygon fill="#4FBA6F" points="485.256,399.042 500.611,430.161 533.853,435.488 510.106,459.369 515.97,493.576 
			485.256,477.422 454.541,493.576 460.404,459.369 436.657,435.488 469.897,430.161 		"/>
	</g>
</g>
<g>
	<polygon fill="#FFC4F7" points="165.927,296.548 184.639,296.437 175.379,312.622 	"/>
	<polygon fill="#FFC4F7" points="281.911,68.432 299.783,62.911 295.401,80.272 	"/>
	<polygon fill="#955EDB" points="177.332,406.065 124.948,420.755 146.566,454.446 	"/>
	<polygon fill="#4FBCD8" points="151.14,345.384 107.607,328.839 102.898,349.854 	"/>
	<polygon fill="#955EDB" points="607.869,171.848 634.474,124.595 595.25,115.986 	"/>
	<polygon fill="#4FBCD8" points="635.71,186.712 682.278,188.384 679.918,166.981 	"/>
	<ellipse fill="#B5B5B5" cx="169.36" cy="549.867" rx="26.243" ry="26.118"/>
	<path fill="#FF9D00" d="M230.096,105.118c-8.023-27.938-14.377-56.133-19.428-84.664l-72.471,17.452L240.87,140.091
		C237.046,128.482,233.455,116.816,230.096,105.118z"/>
	<path fill="#FF9D00" d="M747.922,49.992c-27.347-15.116-53.624-31.687-79.171-49.494l-41.62,67.867l155.576-0.001
		C770.973,62.452,759.371,56.322,747.922,49.992z"/>
	<polygon fill="#955EDB" points="676.341,581.961 661.717,605.385 634.45,566.95 620.137,589.874 600.126,529.578 625.968,564.396 
		636.001,547.461 	"/>
	<polygon fill="#FF5C00" points="570.083,55.622 548.494,38.335 535.543,83.584 514.414,66.667 515.578,130.155 528.388,88.79 
		543.485,101.465 	"/>
	<polygon fill="#FF5C00" points="383.246,593.772 361.656,576.485 348.705,621.732 327.576,604.816 328.74,668.305 341.55,626.938 
		356.648,639.615 	"/>
	<g>
		<path fill="#FF5C00" d="M9.15,218.243c1.343-1.938,2.731-3.835,4.107-5.743c1.37-1.914,2.77-3.8,4.167-5.688
			c2.802-3.771,5.637-7.512,8.494-11.233l4.307-5.563c1.436-1.855,2.879-3.702,4.338-5.536c2.896-3.686,5.821-7.347,8.765-10.989
			l4.564-5.648l3.104,7.134c2.032,4.672,3.965,9.381,5.95,14.071l5.802,14.125l5.665,14.175l5.544,14.219l-10.964-2.52l11.39-11.311
			l11.487-11.21l11.574-11.12c3.85-3.716,7.777-7.35,11.663-11.029l6.988-6.618l3.859,8.673c2.174,4.887,4.245,9.821,6.367,14.731
			c2.131,4.906,4.154,9.862,6.236,14.791l3.059,7.423l3.039,7.432c1.972,4.979,3.999,9.933,5.925,14.933l-8.067-0.468
			c2.628-3.86,5.275-7.708,7.957-11.536c1.33-1.921,2.673-3.833,4.03-5.737l4.066-5.715c2.727-3.8,5.479-7.585,8.27-11.347
			c1.399-1.878,2.795-3.759,4.227-5.618c1.424-1.863,2.834-3.735,4.297-5.575c-0.949,2.151-1.95,4.27-2.937,6.397
			c-0.979,2.132-1.995,4.242-3.007,6.354c-2.032,4.22-4.103,8.417-6.198,12.599l-3.169,6.257c-1.054,2.086-2.122,4.166-3.204,6.235
			c-2.141,4.154-4.316,8.288-6.512,12.409l-3.918,7.355l-4.149-7.823c-2.511-4.733-4.919-9.514-7.384-14.268l-3.616-7.168
			l-3.595-7.178c-2.354-4.805-4.768-9.583-7.073-14.41c-2.314-4.823-4.68-9.623-6.942-14.469l10.847,2.054
			c-3.806,3.76-7.569,7.565-11.412,11.289l-11.5,11.198l-11.587,11.107L72.319,238.69l-7.648,7.204l-3.316-9.724l-4.926-14.444
			l-4.806-14.489l-4.668-14.539c-1.506-4.865-3.063-9.71-4.521-14.593l7.667,1.487c-3.316,3.307-6.653,6.597-10.017,9.861
			c-1.672,1.641-3.358,3.27-5.054,4.89l-5.084,4.863c-3.404,3.229-6.83,6.438-10.288,9.618c-1.732,1.587-3.463,3.175-5.224,4.737
			C12.68,215.128,10.938,216.706,9.15,218.243z"/>
	</g>
	<g>
		<path fill="#FFD71E" d="M633.749,475.438c1.354-1.93,2.753-3.819,4.14-5.72c1.381-1.905,2.792-3.784,4.2-5.664
			c2.824-3.755,5.681-7.479,8.56-11.185l4.339-5.538c1.445-1.846,2.9-3.685,4.369-5.51c2.918-3.669,5.863-7.313,8.828-10.939
			l4.597-5.621l3.063,7.152c2.006,4.684,3.911,9.403,5.869,14.104l5.72,14.157l5.583,14.207l5.462,14.25l-10.949-2.583
			l11.455-11.245l11.551-11.145l11.639-11.054c3.87-3.693,7.819-7.306,11.726-10.962l7.026-6.577l3.809,8.693
			c2.146,4.899,4.188,9.846,6.282,14.768c2.104,4.919,4.098,9.886,6.151,14.826l3.017,7.439l2.996,7.449
			c1.943,4.99,3.942,9.955,5.84,14.966l-8.064-0.514c2.65-3.846,5.319-7.679,8.023-11.49c1.34-1.913,2.695-3.817,4.063-5.714
			l4.099-5.692c2.749-3.784,5.522-7.554,8.335-11.299c1.41-1.871,2.817-3.743,4.26-5.594c1.435-1.855,2.855-3.719,4.329-5.551
			c-0.961,2.146-1.975,4.259-2.974,6.381c-0.992,2.126-2.02,4.23-3.044,6.337c-2.056,4.209-4.151,8.394-6.271,12.563l-3.204,6.239
			c-1.066,2.08-2.146,4.153-3.24,6.217c-2.165,4.143-4.364,8.264-6.583,12.372l-3.96,7.333l-4.104-7.847
			c-2.483-4.748-4.864-9.542-7.302-14.31l-3.575-7.189l-3.554-7.198c-2.327-4.818-4.713-9.609-6.99-14.449
			c-2.286-4.837-4.625-9.649-6.859-14.509l10.835,2.116c-3.828,3.738-7.613,7.521-11.477,11.224l-11.563,11.131l-11.651,11.041
			L696.8,496.245l-7.689,7.16l-3.26-9.743l-4.843-14.472l-4.723-14.516l-4.585-14.565c-1.478-4.873-3.007-9.728-4.437-14.618
			l7.659,1.531c-3.336,3.288-6.691,6.558-10.074,9.804c-1.682,1.632-3.377,3.25-5.082,4.861l-5.112,4.833
			c-3.422,3.209-6.866,6.398-10.343,9.558c-1.742,1.577-3.481,3.156-5.251,4.707C637.297,472.343,635.545,473.91,633.749,475.438z"
			/>
	</g>
	<ellipse fill="#FF5C00" cx="260.536" cy="592.488" rx="5.744" ry="5.718"/>
	<ellipse fill="#FF5C00" cx="676.17" cy="370.295" rx="5.744" ry="5.717"/>
	<ellipse fill="#4FBCD8" cx="608.085" cy="38.581" rx="5.744" ry="5.717"/>
	<ellipse fill="#FF5C00" cx="303.286" cy="115.008" rx="5.744" ry="5.717"/>
	<ellipse fill="#955EDB" cx="112.491" cy="61.43" rx="5.744" ry="5.717"/>
	<ellipse fill="#955EDB" cx="102.99" cy="601.943" rx="5.744" ry="5.717"/>
	<ellipse fill="#955EDB" cx="670.628" cy="239.5" rx="5.743" ry="5.717"/>
	<ellipse fill="#4FBCD8" cx="108.532" cy="470.36" rx="5.744" ry="5.717"/>
	<ellipse fill="#4FBCD8" cx="421.248" cy="581.457" rx="5.745" ry="5.718"/>
	<ellipse fill="#4FBCD8" cx="484.582" cy="55.915" rx="5.744" ry="5.717"/>
</g>
</svg>
