<?xml version="1.0" encoding="utf-8"?>
<!-- Generator: Adobe Illustrator 16.0.0, SVG Export Plug-In . SVG Version: 6.00 Build 0)  -->
<!DOCTYPE svg PUBLIC "-//W3C//DTD SVG 1.1//EN" "http://www.w3.org/Graphics/SVG/1.1/DTD/svg11.dtd">
<svg version="1.1" id="Layer_1" xmlns="http://www.w3.org/2000/svg" xmlns:xlink="http://www.w3.org/1999/xlink" x="0px" y="0px"
	 width="194px" height="485px" viewBox="0 0 194 485" enable-background="new 0 0 194 485" xml:space="preserve">
<g>
	
		<image display="none" overflow="visible" width="99" height="102" xlink:href="E18E4654.jpg"  transform="matrix(1 0 0 1 51.5 170.8447)">
	</image>
	<g>
		<defs>
			<path id="SVGID_1_" d="M102.642,178.836c23.122,0,41.866,18.808,41.866,42.008s-18.744,42.008-41.866,42.008
				s-41.864-18.808-41.864-42.008S79.52,178.836,102.642,178.836L102.642,178.836z"/>
		</defs>
		<use xlink:href="#SVGID_1_"  overflow="visible" opacity="0.2" fill-rule="evenodd" clip-rule="evenodd"/>
		<clipPath id="SVGID_2_">
			<use xlink:href="#SVGID_1_"  overflow="visible" opacity="0.2"/>
		</clipPath>
		<g display="none" clip-path="url(#SVGID_2_)">
			
				<image display="inline" overflow="visible" width="99" height="102" xlink:href="E18E4655.jpg"  transform="matrix(1 0 0 1 51.5 170.8447)">
			</image>
		</g>
	</g>
	<g>
		<defs>
			<path id="SVGID_3_" d="M102.642,183.996c20.283,0,36.725,16.498,36.725,36.849c0,20.352-16.441,36.849-36.725,36.849
				c-20.28,0-36.724-16.497-36.724-36.849C65.918,200.494,82.361,183.996,102.642,183.996L102.642,183.996z"/>
		</defs>
		<clipPath id="SVGID_4_">
			<use xlink:href="#SVGID_3_"  overflow="visible"/>
		</clipPath>
		<g clip-path="url(#SVGID_4_)">
			<image overflow="visible" width="99" height="102" xlink:href="E18E4653.jpg"  transform="matrix(1 0 0 1 51.5 170.8447)">
			</image>
		</g>
	</g>
	<g>
		<defs>
			<path id="SVGID_5_" d="M118.031,244.644H96.45c-0.228,0-0.413-0.185-0.413-0.411v-1.763c0-0.225,0.186-0.409,0.413-0.409h4.754
				c0.229,0,0.415-0.185,0.415-0.411v-1.523c0-0.227,0.187-0.411,0.414-0.411h8.846c0.229,0,0.416,0.185,0.416,0.411v1.523
				c0,0.227,0.187,0.411,0.414,0.411h6.322c0.228,0,0.415,0.185,0.414,0.409v1.763C118.445,244.459,118.259,244.644,118.031,244.644
				L118.031,244.644z M128.654,237.527H97.218c0,0-1.169,0-1.169-1.449c0-0.862,0-2.583,0-3.443c0-1.452,1.133-1.449,1.133-1.449
				h32.163v-27.521c0-0.371-0.316-0.687-0.692-0.687H83.539c-0.374,0-0.693,0.315-0.693,0.687c0,0,0,5.362,0,7.334
				c0,0.991,0.115,1.127-0.438,1.127c-0.393,0-0.78,0-1.129,0c-0.659,0-0.586-0.137-0.586-1.11c0-1.978,0-7.352,0-7.352
				c0-1.554,1.277-2.819,2.846-2.819h45.113c1.57,0,2.848,1.265,2.848,2.819v31.044C131.5,236.263,130.223,237.527,128.654,237.527
				L128.654,237.527z M106.096,232.552c-0.709,0-1.282,0.57-1.282,1.271c0,0.7,0.573,1.271,1.282,1.271s1.283-0.57,1.283-1.271
				C107.379,233.122,106.805,232.552,106.096,232.552L106.096,232.552z M91.657,244.844H75.336c-1.012,0-1.836-0.815-1.836-1.818
				v-26.562c0-1.003,0.824-1.82,1.836-1.82h16.321c1.013,0,1.838,0.817,1.838,1.82v26.562
				C93.495,244.028,92.67,244.844,91.657,244.844L91.657,244.844z M83.473,243.567c0.525,0,0.95-0.423,0.95-0.943
				c0-0.519-0.425-0.94-0.95-0.94s-0.951,0.422-0.951,0.94C82.521,243.145,82.947,243.567,83.473,243.567L83.473,243.567z
				 M85.51,216.499h-4.026c-0.191,0-0.347,0.154-0.347,0.346c0,0.19,0.155,0.344,0.347,0.344h4.026c0.191,0,0.348-0.153,0.348-0.344
				C85.857,216.653,85.701,216.499,85.51,216.499L85.51,216.499z M91.915,218.729c0-0.244-0.196-0.441-0.435-0.441H75.515
				c-0.24,0-0.437,0.197-0.437,0.441V240.8c0,0.241,0.196,0.44,0.437,0.44H91.48c0.238,0,0.435-0.199,0.435-0.44V218.729
				L91.915,218.729z"/>
		</defs>
		<clipPath id="SVGID_6_">
			<use xlink:href="#SVGID_5_"  overflow="visible"/>
		</clipPath>
		<g clip-path="url(#SVGID_6_)">
			<image overflow="visible" width="99" height="102" xlink:href="E18E465C.jpg"  transform="matrix(1 0 0 1 51.5 170.8447)">
			</image>
		</g>
	</g>
	<g>
		<defs>
			<path id="SVGID_7_" d="M102.642,178.836c23.122,0,41.866,18.808,41.866,42.008s-18.744,42.008-41.866,42.008
				s-41.864-18.808-41.864-42.008S79.52,178.836,102.642,178.836L102.642,178.836z"/>
		</defs>
		<defs>
			<path id="SVGID_8_" d="M118.031,244.644H96.45c-0.228,0-0.413-0.185-0.413-0.411v-1.763c0-0.225,0.186-0.409,0.413-0.409h4.754
				c0.229,0,0.415-0.185,0.415-0.411v-1.523c0-0.227,0.187-0.411,0.414-0.411h8.846c0.229,0,0.416,0.185,0.416,0.411v1.523
				c0,0.227,0.187,0.411,0.414,0.411h6.322c0.228,0,0.415,0.185,0.414,0.409v1.763C118.445,244.459,118.259,244.644,118.031,244.644
				L118.031,244.644z M128.654,237.527H97.218c0,0-1.169,0-1.169-1.449c0-0.862,0-2.583,0-3.443c0-1.452,1.133-1.449,1.133-1.449
				h32.163v-27.521c0-0.371-0.316-0.687-0.692-0.687H83.539c-0.374,0-0.693,0.315-0.693,0.687c0,0,0,5.362,0,7.334
				c0,0.991,0.115,1.127-0.438,1.127c-0.393,0-0.78,0-1.129,0c-0.659,0-0.586-0.137-0.586-1.11c0-1.978,0-7.352,0-7.352
				c0-1.554,1.277-2.819,2.846-2.819h45.113c1.57,0,2.848,1.265,2.848,2.819v31.044C131.5,236.263,130.223,237.527,128.654,237.527
				L128.654,237.527z M106.096,232.552c-0.709,0-1.282,0.57-1.282,1.271c0,0.7,0.573,1.271,1.282,1.271s1.283-0.57,1.283-1.271
				C107.379,233.122,106.805,232.552,106.096,232.552L106.096,232.552z M91.657,244.844H75.336c-1.012,0-1.836-0.815-1.836-1.818
				v-26.562c0-1.003,0.824-1.82,1.836-1.82h16.321c1.013,0,1.838,0.817,1.838,1.82v26.562
				C93.495,244.028,92.67,244.844,91.657,244.844L91.657,244.844z M83.473,243.567c0.525,0,0.95-0.423,0.95-0.943
				c0-0.519-0.425-0.94-0.95-0.94s-0.951,0.422-0.951,0.94C82.521,243.145,82.947,243.567,83.473,243.567L83.473,243.567z
				 M85.51,216.499h-4.026c-0.191,0-0.347,0.154-0.347,0.346c0,0.19,0.155,0.344,0.347,0.344h4.026c0.191,0,0.348-0.153,0.348-0.344
				C85.857,216.653,85.701,216.499,85.51,216.499L85.51,216.499z M91.915,218.729c0-0.244-0.196-0.441-0.435-0.441H75.515
				c-0.24,0-0.437,0.197-0.437,0.441V240.8c0,0.241,0.196,0.44,0.437,0.44H91.48c0.238,0,0.435-0.199,0.435-0.44V218.729
				L91.915,218.729z"/>
		</defs>
		<clipPath id="SVGID_9_">
			<use xlink:href="#SVGID_7_"  overflow="visible"/>
		</clipPath>
		<clipPath id="SVGID_10_" clip-path="url(#SVGID_9_)">
			<use xlink:href="#SVGID_8_"  overflow="visible"/>
		</clipPath>
		<g clip-path="url(#SVGID_10_)">
			<image overflow="visible" width="99" height="102" xlink:href="E18E465F.jpg"  transform="matrix(1 0 0 1 51.5 170.8447)">
			</image>
		</g>
	</g>
	<g>
		<defs>
			<path id="SVGID_11_" d="M102.642,183.996c20.283,0,36.725,16.498,36.725,36.849c0,20.352-16.441,36.849-36.725,36.849
				c-20.28,0-36.724-16.497-36.724-36.849C65.918,200.494,82.361,183.996,102.642,183.996L102.642,183.996z"/>
		</defs>
		<defs>
			<path id="SVGID_12_" d="M118.031,244.644H96.45c-0.228,0-0.413-0.185-0.413-0.411v-1.763c0-0.225,0.186-0.409,0.413-0.409h4.754
				c0.229,0,0.415-0.185,0.415-0.411v-1.523c0-0.227,0.187-0.411,0.414-0.411h8.846c0.229,0,0.416,0.185,0.416,0.411v1.523
				c0,0.227,0.187,0.411,0.414,0.411h6.322c0.228,0,0.415,0.185,0.414,0.409v1.763C118.445,244.459,118.259,244.644,118.031,244.644
				L118.031,244.644z M128.654,237.527H97.218c0,0-1.169,0-1.169-1.449c0-0.862,0-2.583,0-3.443c0-1.452,1.133-1.449,1.133-1.449
				h32.163v-27.521c0-0.371-0.316-0.687-0.692-0.687H83.539c-0.374,0-0.693,0.315-0.693,0.687c0,0,0,5.362,0,7.334
				c0,0.991,0.115,1.127-0.438,1.127c-0.393,0-0.78,0-1.129,0c-0.659,0-0.586-0.137-0.586-1.11c0-1.978,0-7.352,0-7.352
				c0-1.554,1.277-2.819,2.846-2.819h45.113c1.57,0,2.848,1.265,2.848,2.819v31.044C131.5,236.263,130.223,237.527,128.654,237.527
				L128.654,237.527z M106.096,232.552c-0.709,0-1.282,0.57-1.282,1.271c0,0.7,0.573,1.271,1.282,1.271s1.283-0.57,1.283-1.271
				C107.379,233.122,106.805,232.552,106.096,232.552L106.096,232.552z M91.657,244.844H75.336c-1.012,0-1.836-0.815-1.836-1.818
				v-26.562c0-1.003,0.824-1.82,1.836-1.82h16.321c1.013,0,1.838,0.817,1.838,1.82v26.562
				C93.495,244.028,92.67,244.844,91.657,244.844L91.657,244.844z M83.473,243.567c0.525,0,0.95-0.423,0.95-0.943
				c0-0.519-0.425-0.94-0.95-0.94s-0.951,0.422-0.951,0.94C82.521,243.145,82.947,243.567,83.473,243.567L83.473,243.567z
				 M85.51,216.499h-4.026c-0.191,0-0.347,0.154-0.347,0.346c0,0.19,0.155,0.344,0.347,0.344h4.026c0.191,0,0.348-0.153,0.348-0.344
				C85.857,216.653,85.701,216.499,85.51,216.499L85.51,216.499z M91.915,218.729c0-0.244-0.196-0.441-0.435-0.441H75.515
				c-0.24,0-0.437,0.197-0.437,0.441V240.8c0,0.241,0.196,0.44,0.437,0.44H91.48c0.238,0,0.435-0.199,0.435-0.44V218.729
				L91.915,218.729z"/>
		</defs>
		<clipPath id="SVGID_13_">
			<use xlink:href="#SVGID_11_"  overflow="visible"/>
		</clipPath>
		<clipPath id="SVGID_14_" clip-path="url(#SVGID_13_)">
			<use xlink:href="#SVGID_12_"  overflow="visible"/>
		</clipPath>
		<g clip-path="url(#SVGID_14_)">
			<image overflow="visible" width="99" height="102" xlink:href="E18E465D.jpg"  transform="matrix(1 0 0 1 51.5 170.8447)">
			</image>
		</g>
	</g>
	<g>
		<defs>
			<path id="SVGID_15_" d="M127.688,181.641c-6.086,0-11.02,4.951-11.02,11.058s4.934,11.058,11.02,11.058
				s11.021-4.951,11.021-11.058S133.773,181.641,127.688,181.641L127.688,181.641z M125.622,199.61l-4.563-5.962l2.023-2.116
				l2.54,3.241l7.964-6.522l0.99,0.994L125.622,199.61L125.622,199.61z"/>
		</defs>
		<clipPath id="SVGID_16_">
			<use xlink:href="#SVGID_15_"  overflow="visible"/>
		</clipPath>
		<g clip-path="url(#SVGID_16_)">
			<image overflow="visible" width="99" height="102" xlink:href="E18E4652.jpg"  transform="matrix(1 0 0 1 51.5 170.8447)">
			</image>
		</g>
	</g>
	<g>
		<defs>
			<path id="SVGID_17_" d="M102.642,178.836c23.122,0,41.866,18.808,41.866,42.008s-18.744,42.008-41.866,42.008
				s-41.864-18.808-41.864-42.008S79.52,178.836,102.642,178.836L102.642,178.836z"/>
		</defs>
		<defs>
			<path id="SVGID_18_" d="M127.688,181.641c-6.086,0-11.02,4.951-11.02,11.058s4.934,11.058,11.02,11.058
				s11.021-4.951,11.021-11.058S133.773,181.641,127.688,181.641L127.688,181.641z M125.622,199.61l-4.563-5.962l2.023-2.116
				l2.54,3.241l7.964-6.522l0.99,0.994L125.622,199.61L125.622,199.61z"/>
		</defs>
		<clipPath id="SVGID_19_">
			<use xlink:href="#SVGID_17_"  overflow="visible"/>
		</clipPath>
		<clipPath id="SVGID_20_" clip-path="url(#SVGID_19_)">
			<use xlink:href="#SVGID_18_"  overflow="visible"/>
		</clipPath>
		<g clip-path="url(#SVGID_20_)">
			<image overflow="visible" width="99" height="102" xlink:href="E18E4656.jpg"  transform="matrix(1 0 0 1 51.5 170.8447)">
			</image>
		</g>
	</g>
	<g>
		<defs>
			<path id="SVGID_21_" d="M102.642,183.996c20.283,0,36.725,16.498,36.725,36.849c0,20.352-16.441,36.849-36.725,36.849
				c-20.28,0-36.724-16.497-36.724-36.849C65.918,200.494,82.361,183.996,102.642,183.996L102.642,183.996z"/>
		</defs>
		<defs>
			<path id="SVGID_22_" d="M127.688,181.641c-6.086,0-11.02,4.951-11.02,11.058s4.934,11.058,11.02,11.058
				s11.021-4.951,11.021-11.058S133.773,181.641,127.688,181.641L127.688,181.641z M125.622,199.61l-4.563-5.962l2.023-2.116
				l2.54,3.241l7.964-6.522l0.99,0.994L125.622,199.61L125.622,199.61z"/>
		</defs>
		<clipPath id="SVGID_23_">
			<use xlink:href="#SVGID_21_"  overflow="visible"/>
		</clipPath>
		<clipPath id="SVGID_24_" clip-path="url(#SVGID_23_)">
			<use xlink:href="#SVGID_22_"  overflow="visible"/>
		</clipPath>
		<g clip-path="url(#SVGID_24_)">
			<image overflow="visible" width="99" height="102" xlink:href="E18E4657.jpg"  transform="matrix(1 0 0 1 51.5 170.8447)">
			</image>
		</g>
	</g>
	<g>
		<defs>
			<path id="SVGID_25_" d="M118.031,244.644H96.45c-0.228,0-0.413-0.185-0.413-0.411v-1.763c0-0.225,0.186-0.409,0.413-0.409h4.754
				c0.229,0,0.415-0.185,0.415-0.411v-1.523c0-0.227,0.187-0.411,0.414-0.411h8.846c0.229,0,0.416,0.185,0.416,0.411v1.523
				c0,0.227,0.187,0.411,0.414,0.411h6.322c0.228,0,0.415,0.185,0.414,0.409v1.763C118.445,244.459,118.259,244.644,118.031,244.644
				L118.031,244.644z M128.654,237.527H97.218c0,0-1.169,0-1.169-1.449c0-0.862,0-2.583,0-3.443c0-1.452,1.133-1.449,1.133-1.449
				h32.163v-27.521c0-0.371-0.316-0.687-0.692-0.687H83.539c-0.374,0-0.693,0.315-0.693,0.687c0,0,0,5.362,0,7.334
				c0,0.991,0.115,1.127-0.438,1.127c-0.393,0-0.78,0-1.129,0c-0.659,0-0.586-0.137-0.586-1.11c0-1.978,0-7.352,0-7.352
				c0-1.554,1.277-2.819,2.846-2.819h45.113c1.57,0,2.848,1.265,2.848,2.819v31.044C131.5,236.263,130.223,237.527,128.654,237.527
				L128.654,237.527z M106.096,232.552c-0.709,0-1.282,0.57-1.282,1.271c0,0.7,0.573,1.271,1.282,1.271s1.283-0.57,1.283-1.271
				C107.379,233.122,106.805,232.552,106.096,232.552L106.096,232.552z M91.657,244.844H75.336c-1.012,0-1.836-0.815-1.836-1.818
				v-26.562c0-1.003,0.824-1.82,1.836-1.82h16.321c1.013,0,1.838,0.817,1.838,1.82v26.562
				C93.495,244.028,92.67,244.844,91.657,244.844L91.657,244.844z M83.473,243.567c0.525,0,0.95-0.423,0.95-0.943
				c0-0.519-0.425-0.94-0.95-0.94s-0.951,0.422-0.951,0.94C82.521,243.145,82.947,243.567,83.473,243.567L83.473,243.567z
				 M85.51,216.499h-4.026c-0.191,0-0.347,0.154-0.347,0.346c0,0.19,0.155,0.344,0.347,0.344h4.026c0.191,0,0.348-0.153,0.348-0.344
				C85.857,216.653,85.701,216.499,85.51,216.499L85.51,216.499z M91.915,218.729c0-0.244-0.196-0.441-0.435-0.441H75.515
				c-0.24,0-0.437,0.197-0.437,0.441V240.8c0,0.241,0.196,0.44,0.437,0.44H91.48c0.238,0,0.435-0.199,0.435-0.44V218.729
				L91.915,218.729z"/>
		</defs>
		<defs>
			<path id="SVGID_26_" d="M127.688,181.641c-6.086,0-11.02,4.951-11.02,11.058s4.934,11.058,11.02,11.058
				s11.021-4.951,11.021-11.058S133.773,181.641,127.688,181.641L127.688,181.641z M125.622,199.61l-4.563-5.962l2.023-2.116
				l2.54,3.241l7.964-6.522l0.99,0.994L125.622,199.61L125.622,199.61z"/>
		</defs>
		<clipPath id="SVGID_27_">
			<use xlink:href="#SVGID_25_"  overflow="visible"/>
		</clipPath>
		<clipPath id="SVGID_28_" clip-path="url(#SVGID_27_)">
			<use xlink:href="#SVGID_26_"  overflow="visible"/>
		</clipPath>
		<g clip-path="url(#SVGID_28_)">
			<image overflow="visible" width="99" height="102" xlink:href="99902A73.jpg"  transform="matrix(1 0 0 1 51.5 170.8447)">
			</image>
		</g>
	</g>
	<g>
		<defs>
			<path id="SVGID_29_" d="M102.642,178.836c23.122,0,41.866,18.808,41.866,42.008s-18.744,42.008-41.866,42.008
				s-41.864-18.808-41.864-42.008S79.52,178.836,102.642,178.836L102.642,178.836z"/>
		</defs>
		<defs>
			<path id="SVGID_30_" d="M118.031,244.644H96.45c-0.228,0-0.413-0.185-0.413-0.411v-1.763c0-0.225,0.186-0.409,0.413-0.409h4.754
				c0.229,0,0.415-0.185,0.415-0.411v-1.523c0-0.227,0.187-0.411,0.414-0.411h8.846c0.229,0,0.416,0.185,0.416,0.411v1.523
				c0,0.227,0.187,0.411,0.414,0.411h6.322c0.228,0,0.415,0.185,0.414,0.409v1.763C118.445,244.459,118.259,244.644,118.031,244.644
				L118.031,244.644z M128.654,237.527H97.218c0,0-1.169,0-1.169-1.449c0-0.862,0-2.583,0-3.443c0-1.452,1.133-1.449,1.133-1.449
				h32.163v-27.521c0-0.371-0.316-0.687-0.692-0.687H83.539c-0.374,0-0.693,0.315-0.693,0.687c0,0,0,5.362,0,7.334
				c0,0.991,0.115,1.127-0.438,1.127c-0.393,0-0.78,0-1.129,0c-0.659,0-0.586-0.137-0.586-1.11c0-1.978,0-7.352,0-7.352
				c0-1.554,1.277-2.819,2.846-2.819h45.113c1.57,0,2.848,1.265,2.848,2.819v31.044C131.5,236.263,130.223,237.527,128.654,237.527
				L128.654,237.527z M106.096,232.552c-0.709,0-1.282,0.57-1.282,1.271c0,0.7,0.573,1.271,1.282,1.271s1.283-0.57,1.283-1.271
				C107.379,233.122,106.805,232.552,106.096,232.552L106.096,232.552z M91.657,244.844H75.336c-1.012,0-1.836-0.815-1.836-1.818
				v-26.562c0-1.003,0.824-1.82,1.836-1.82h16.321c1.013,0,1.838,0.817,1.838,1.82v26.562
				C93.495,244.028,92.67,244.844,91.657,244.844L91.657,244.844z M83.473,243.567c0.525,0,0.95-0.423,0.95-0.943
				c0-0.519-0.425-0.94-0.95-0.94s-0.951,0.422-0.951,0.94C82.521,243.145,82.947,243.567,83.473,243.567L83.473,243.567z
				 M85.51,216.499h-4.026c-0.191,0-0.347,0.154-0.347,0.346c0,0.19,0.155,0.344,0.347,0.344h4.026c0.191,0,0.348-0.153,0.348-0.344
				C85.857,216.653,85.701,216.499,85.51,216.499L85.51,216.499z M91.915,218.729c0-0.244-0.196-0.441-0.435-0.441H75.515
				c-0.24,0-0.437,0.197-0.437,0.441V240.8c0,0.241,0.196,0.44,0.437,0.44H91.48c0.238,0,0.435-0.199,0.435-0.44V218.729
				L91.915,218.729z"/>
		</defs>
		<defs>
			<path id="SVGID_31_" d="M127.688,181.641c-6.086,0-11.02,4.951-11.02,11.058s4.934,11.058,11.02,11.058
				s11.021-4.951,11.021-11.058S133.773,181.641,127.688,181.641L127.688,181.641z M125.622,199.61l-4.563-5.962l2.023-2.116
				l2.54,3.241l7.964-6.522l0.99,0.994L125.622,199.61L125.622,199.61z"/>
		</defs>
		<clipPath id="SVGID_32_">
			<use xlink:href="#SVGID_29_"  overflow="visible"/>
		</clipPath>
		<clipPath id="SVGID_33_" clip-path="url(#SVGID_32_)">
			<use xlink:href="#SVGID_30_"  overflow="visible"/>
		</clipPath>
		<clipPath id="SVGID_34_" clip-path="url(#SVGID_33_)">
			<use xlink:href="#SVGID_31_"  overflow="visible"/>
		</clipPath>
		<g clip-path="url(#SVGID_34_)">
			<image overflow="visible" width="99" height="102" xlink:href="99902A71.jpg"  transform="matrix(1 0 0 1 51.5 170.8447)">
			</image>
		</g>
	</g>
	<g>
		<defs>
			<path id="SVGID_35_" d="M102.642,183.996c20.283,0,36.725,16.498,36.725,36.849c0,20.352-16.441,36.849-36.725,36.849
				c-20.28,0-36.724-16.497-36.724-36.849C65.918,200.494,82.361,183.996,102.642,183.996L102.642,183.996z"/>
		</defs>
		<defs>
			<path id="SVGID_36_" d="M118.031,244.644H96.45c-0.228,0-0.413-0.185-0.413-0.411v-1.763c0-0.225,0.186-0.409,0.413-0.409h4.754
				c0.229,0,0.415-0.185,0.415-0.411v-1.523c0-0.227,0.187-0.411,0.414-0.411h8.846c0.229,0,0.416,0.185,0.416,0.411v1.523
				c0,0.227,0.187,0.411,0.414,0.411h6.322c0.228,0,0.415,0.185,0.414,0.409v1.763C118.445,244.459,118.259,244.644,118.031,244.644
				L118.031,244.644z M128.654,237.527H97.218c0,0-1.169,0-1.169-1.449c0-0.862,0-2.583,0-3.443c0-1.452,1.133-1.449,1.133-1.449
				h32.163v-27.521c0-0.371-0.316-0.687-0.692-0.687H83.539c-0.374,0-0.693,0.315-0.693,0.687c0,0,0,5.362,0,7.334
				c0,0.991,0.115,1.127-0.438,1.127c-0.393,0-0.78,0-1.129,0c-0.659,0-0.586-0.137-0.586-1.11c0-1.978,0-7.352,0-7.352
				c0-1.554,1.277-2.819,2.846-2.819h45.113c1.57,0,2.848,1.265,2.848,2.819v31.044C131.5,236.263,130.223,237.527,128.654,237.527
				L128.654,237.527z M106.096,232.552c-0.709,0-1.282,0.57-1.282,1.271c0,0.7,0.573,1.271,1.282,1.271s1.283-0.57,1.283-1.271
				C107.379,233.122,106.805,232.552,106.096,232.552L106.096,232.552z M91.657,244.844H75.336c-1.012,0-1.836-0.815-1.836-1.818
				v-26.562c0-1.003,0.824-1.82,1.836-1.82h16.321c1.013,0,1.838,0.817,1.838,1.82v26.562
				C93.495,244.028,92.67,244.844,91.657,244.844L91.657,244.844z M83.473,243.567c0.525,0,0.95-0.423,0.95-0.943
				c0-0.519-0.425-0.94-0.95-0.94s-0.951,0.422-0.951,0.94C82.521,243.145,82.947,243.567,83.473,243.567L83.473,243.567z
				 M85.51,216.499h-4.026c-0.191,0-0.347,0.154-0.347,0.346c0,0.19,0.155,0.344,0.347,0.344h4.026c0.191,0,0.348-0.153,0.348-0.344
				C85.857,216.653,85.701,216.499,85.51,216.499L85.51,216.499z M91.915,218.729c0-0.244-0.196-0.441-0.435-0.441H75.515
				c-0.24,0-0.437,0.197-0.437,0.441V240.8c0,0.241,0.196,0.44,0.437,0.44H91.48c0.238,0,0.435-0.199,0.435-0.44V218.729
				L91.915,218.729z"/>
		</defs>
		<defs>
			<path id="SVGID_37_" d="M127.688,181.641c-6.086,0-11.02,4.951-11.02,11.058s4.934,11.058,11.02,11.058
				s11.021-4.951,11.021-11.058S133.773,181.641,127.688,181.641L127.688,181.641z M125.622,199.61l-4.563-5.962l2.023-2.116
				l2.54,3.241l7.964-6.522l0.99,0.994L125.622,199.61L125.622,199.61z"/>
		</defs>
		<clipPath id="SVGID_38_">
			<use xlink:href="#SVGID_35_"  overflow="visible"/>
		</clipPath>
		<clipPath id="SVGID_39_" clip-path="url(#SVGID_38_)">
			<use xlink:href="#SVGID_36_"  overflow="visible"/>
		</clipPath>
		<clipPath id="SVGID_40_" clip-path="url(#SVGID_39_)">
			<use xlink:href="#SVGID_37_"  overflow="visible"/>
		</clipPath>
		<g clip-path="url(#SVGID_40_)">
			<image overflow="visible" width="99" height="102" xlink:href="99902A77.jpg"  transform="matrix(1 0 0 1 51.5 170.8447)">
			</image>
		</g>
	</g>
	<g>
		<defs>
			<path id="SVGID_41_" d="M128.69,179.629c-6.086,0-11.021,4.951-11.021,11.058s4.935,11.058,11.021,11.058
				c6.085,0,11.02-4.951,11.02-11.058S134.775,179.629,128.69,179.629L128.69,179.629z M126.624,197.599l-4.564-5.96l2.024-2.117
				l2.54,3.239l7.963-6.522l0.991,0.994L126.624,197.599L126.624,197.599z"/>
		</defs>
		<clipPath id="SVGID_42_">
			<use xlink:href="#SVGID_41_"  overflow="visible"/>
		</clipPath>
		<g clip-path="url(#SVGID_42_)">
			<image overflow="visible" width="99" height="102" xlink:href="99902A72.jpg"  transform="matrix(1 0 0 1 51.5 170.8447)">
			</image>
		</g>
	</g>
	<g>
		<defs>
			<path id="SVGID_43_" d="M118.67,190.688c0-5.546,4.495-10.058,10.021-10.058c5.524,0,10.02,4.512,10.02,10.058
				s-4.495,10.058-10.02,10.058C123.165,200.745,118.67,196.234,118.67,190.688 M123.36,188.831l-2.023,2.116
				c-0.185,0.193-0.277,0.441-0.277,0.691c0,0.213,0.067,0.428,0.206,0.608l4.563,5.96c0.183,0.239,0.465,0.382,0.765,0.392
				c0.009,0,0.018,0,0.026,0c0.292,0,0.57-0.126,0.76-0.347l8.954-10.367c0.163-0.188,0.244-0.42,0.244-0.653
				c0-0.256-0.098-0.511-0.292-0.706l-0.99-0.994c-0.194-0.196-0.452-0.294-0.71-0.294c-0.223,0-0.447,0.075-0.633,0.226
				c0,0-5.892,4.823-7.174,5.875c-0.711-0.91-1.909-2.435-1.909-2.435c-0.178-0.228-0.447-0.366-0.737-0.38
				c-0.016-0.002-0.033-0.002-0.049-0.002C123.812,188.521,123.551,188.633,123.36,188.831"/>
		</defs>
		<clipPath id="SVGID_44_">
			<use xlink:href="#SVGID_43_"  overflow="visible"/>
		</clipPath>
		<g clip-path="url(#SVGID_44_)">
			<image overflow="visible" width="99" height="102" xlink:href="99902A6D.jpg"  transform="matrix(1 0 0 1 51.5 170.8447)">
			</image>
		</g>
	</g>
</g>
</svg>
