<?xml version="1.0" encoding="UTF-8"?>
<!DOCTYPE svg PUBLIC "-//W3C//DTD SVG 1.1//EN" "http://www.w3.org/Graphics/SVG/1.1/DTD/svg11.dtd">
<!-- Creator: CorelDRAW X7 -->
<svg xmlns="http://www.w3.org/2000/svg" xml:space="preserve" width="124.394mm" height="28.8481mm" version="1.1" style="shape-rendering:geometricPrecision; text-rendering:geometricPrecision; image-rendering:optimizeQuality; fill-rule:evenodd; clip-rule:evenodd"
viewBox="0 0 6326 1467"
 xmlns:xlink="http://www.w3.org/1999/xlink">
 <defs>
  <style type="text/css">
   <![CDATA[
    .fil2 {fill:#FEFEFE;fill-rule:nonzero}
    .fil1 {fill:#131313;fill-rule:nonzero}
    .fil0 {fill:white;fill-rule:nonzero}
   ]]>
  </style>
 </defs>
 <g id="__x0023_Layer_x0020_1">
  <metadata id="CorelCorpID_0Corel-Layer"/>
  <path class="fil0" d="M281 749c0,35 -8,66 -26,91 -21,29 -49,43 -83,43 -35,0 -62,-14 -84,-43 -18,-25 -27,-56 -27,-91l0 -143 -61 0 0 150c0,53 17,96 52,132 33,35 73,53 120,53 48,0 88,-18 121,-55 33,-36 50,-80 50,-130l0 -150 -62 0 0 143z"/>
  <polygon class="fil0" points="203,496 143,496 143,556 203,556 "/>
  <path class="fil0" d="M510 606c-68,0 -116,49 -116,122 0,72 46,123 116,123 28,0 48,-9 58,-27 -1,42 -20,67 -58,68l0 48c78,0 118,-32 118,-96l0 -114c0,-72 -46,-124 -118,-124zm0 191l0 0c-33,0 -56,-31 -56,-69 0,-37 22,-67 54,-67 34,0 57,28 57,70 0,35 -22,66 -55,66z"/>
  <polygon class="fil0" points="1238,496 1179,496 1179,556 1238,556 "/>
  <polygon class="fil0" points="1290,411 1231,411 1231,472 1290,472 "/>
  <polygon class="fil0" points="1282,556 1341,556 1341,496 1282,496 "/>
  <path class="fil0" d="M1384 730c0,40 -15,60 -46,60l-59 0c8,-9 12,-31 12,-66l0 -118 -61 0 0 124c0,40 -15,60 -46,60l-56 0 0 -4c6,-10 9,-30 9,-62l0 -118 -61 0 0 120c0,43 -15,64 -46,64l-33 0 -11 0 -89 0 -20 0 -73 0 0 -184 -61 0 0 206c0,52 -25,77 -75,77l0 52c73,0 123,-32 132,-90l77 0 20 0 89 0 11 0 343 0c62,0 105,-51 105,-128l0 -117 -61 0 0 124z"/>
  <path class="fil0" d="M1738 733c0,19 -1,32 -4,39 -6,12 -18,18 -39,18l-30 0 -21 0 -15 0c-23,0 -39,-4 -47,-9 -11,-9 -17,-26 -17,-52l0 -226 -60 0 0 250c0,30 7,53 21,70 16,19 38,28 67,28l51 0 21 0 43 0c61,0 91,-32 91,-98l0 -147 -61 0 0 127z"/>
  <polygon class="fil0" points="1798,496 1739,496 1739,556 1798,556 "/>
  <polygon class="fil0" points="3174,496 3114,496 3114,556 3174,556 "/>
  <path class="fil0" d="M3678 733c0,19 -1,32 -4,39 -6,12 -18,18 -38,18l-33 0 -19 0 -35 0 0 -16c0,-36 -12,-66 -34,-90 -22,-24 -51,-36 -88,-36 -36,0 -65,12 -88,35 -22,23 -34,53 -34,89 0,6 0,12 1,18l-41 0 -18 0 -86 0c9,-11 13,-31 13,-63l0 -121 -60 0 0 124c0,19 -2,33 -7,41 -6,13 -18,19 -36,19l-43 0 -13 0 -93 0 -14 0 -35 0c0,-136 -69,-238 -187,-262l-7 58c78,16 134,96 134,187 0,5 0,11 0,17l-72 0c9,-22 14,-41 14,-56 0,-65 -43,-105 -107,-105 -63,0 -107,40 -107,105 0,15 5,34 14,56l-63 0 -12 0 -84 0 -24 0 -68 0c2,-12 3,-22 3,-34l0 -253 -61 0 0 246c0,76 -46,134 -110,134 -66,0 -110,-59 -110,-134l0 -46 -62 0 0 53c0,102 78,185 172,185 60,0 116,-34 147,-90l89 0 24 0 84 0 12 0 416 0 14 0 93 0 13 0 219 0 18 0 65 0c24,32 56,47 97,47 43,0 75,-15 98,-47l59 0 19 0 45 0c61,0 91,-32 91,-98l0 -250 -61 0 0 230zm-1030 58l0 0c-29,0 -49,-25 -49,-57 0,-33 17,-57 49,-57 30,0 50,22 50,57 0,32 -21,57 -50,57zm824 31l0 0c-10,13 -25,20 -43,20 -38,0 -61,-32 -61,-71 0,-19 5,-35 14,-47 11,-15 25,-22 44,-22 19,0 34,8 46,22 10,14 14,31 14,50 0,19 -4,35 -14,48z"/>
  <polygon class="fil0" points="3795,851 3855,851 3855,502 3795,502 "/>
  <path class="fil0" d="M4101 812c0,52 -25,77 -75,77l0 52c93,0 136,-41 136,-138l0 -197 -61 0 0 206z"/>
  <polygon class="fil0" points="4218,851 4278,851 4278,502 4218,502 "/>
  <path class="fil0" d="M4477 615c-14,-5 -25,-7 -33,-8 -7,0 -26,-1 -56,-1l0 55c19,0 38,1 55,5 54,12 82,53 82,124l-196 0 0 61 257 0 0 -61c0,-93 -37,-151 -109,-175z"/>
  <path class="fil1" d="M119 1171c17,0 34,3 49,9 16,6 29,15 40,27 11,11 20,26 26,44 6,17 10,38 10,62 0,21 -3,40 -8,57 -5,18 -13,33 -23,46 -11,13 -24,23 -39,30 -16,8 -34,11 -55,11l-119 0 0 -286 119 0zm-4 234l0 0c8,0 17,-2 25,-5 8,-3 16,-8 22,-15 6,-6 11,-15 15,-26 4,-11 6,-24 6,-40 0,-15 -1,-28 -4,-39 -3,-12 -7,-22 -13,-30 -6,-8 -15,-15 -25,-19 -10,-5 -22,-7 -37,-7l-43 0 0 181 54 0z"/>
  <path class="fil1" d="M278 1314c0,-13 4,-24 9,-33 6,-9 13,-16 22,-21 9,-6 18,-10 29,-12 11,-2 22,-3 33,-3 10,0 20,0 31,2 10,1 19,4 28,8 8,5 15,11 21,18 5,8 8,18 8,31l0 107c0,10 0,19 1,27 1,9 3,15 6,19l-56 0c-1,-3 -2,-6 -2,-9 -1,-4 -1,-7 -2,-11 -8,10 -19,16 -31,20 -11,4 -23,6 -36,6 -9,0 -18,-2 -26,-4 -9,-2 -16,-6 -22,-11 -6,-5 -11,-12 -14,-19 -4,-8 -6,-17 -6,-28 0,-12 2,-21 6,-29 4,-8 9,-14 16,-18 6,-5 13,-8 21,-11 9,-2 17,-4 25,-5 8,-1 16,-2 24,-3 8,-1 15,-2 21,-4 7,-1 11,-4 15,-7 4,-3 5,-7 5,-13 0,-6 -1,-11 -3,-15 -2,-3 -4,-6 -8,-8 -3,-2 -7,-4 -11,-4 -4,-1 -9,-1 -13,-1 -11,0 -20,2 -26,7 -6,5 -10,13 -11,24l-54 0zm126 42l0 0c-2,2 -5,4 -9,5 -3,1 -7,2 -11,3 -4,1 -8,1 -12,2 -5,1 -9,1 -13,2 -5,1 -9,2 -13,3 -4,2 -7,3 -10,6 -3,2 -5,5 -7,8 -2,4 -3,8 -3,13 0,6 1,10 3,13 2,4 4,7 7,9 3,2 7,3 11,4 4,1 8,1 13,1 11,0 19,-2 25,-6 6,-3 10,-8 13,-13 3,-5 4,-11 5,-16 1,-5 1,-10 1,-13l0 -21z"/>
  <path class="fil1" d="M553 1250l0 39 1 0c3,-7 6,-13 10,-18 5,-6 10,-10 15,-14 6,-4 12,-7 19,-9 6,-2 13,-3 20,-3 3,0 7,0 11,2l0 53c-2,-1 -5,-1 -9,-2 -3,0 -7,0 -10,0 -10,0 -19,1 -26,5 -7,3 -12,8 -16,14 -5,6 -8,13 -9,21 -2,8 -3,17 -3,26l0 93 -55 0 0 -207 52 0z"/>
  <path class="fil1" d="M901 1171l103 286 -63 0 -20 -63 -103 0 -22 63 -61 0 104 -286 62 0zm4 176l0 0 -35 -105 -1 0 -36 105 72 0z"/>
  <polygon class="fil1" points="1079,1171 1079,1457 1024,1457 1024,1171 "/>
  <polygon class="fil1" points="1320,1171 1384,1368 1385,1368 1446,1171 1531,1171 1531,1457 1474,1457 1474,1255 1474,1255 1406,1457 1360,1457 1292,1257 1291,1257 1291,1457 1235,1457 1235,1171 "/>
  <path class="fil1" d="M1576 1314c1,-13 4,-24 10,-33 6,-9 13,-16 21,-21 9,-6 19,-10 30,-12 11,-2 22,-3 33,-3 10,0 20,0 30,2 11,1 20,4 29,8 8,5 15,11 20,18 6,8 8,18 8,31l0 107c0,10 1,19 2,27 1,9 3,15 5,19l-55 0c-1,-3 -2,-6 -3,-9 0,-4 -1,-7 -1,-11 -9,10 -19,16 -31,20 -12,4 -24,6 -36,6 -10,0 -18,-2 -27,-4 -8,-2 -15,-6 -21,-11 -6,-5 -11,-12 -15,-19 -3,-8 -5,-17 -5,-28 0,-12 2,-21 6,-29 4,-8 9,-14 15,-18 7,-5 14,-8 22,-11 8,-2 16,-4 25,-5 8,-1 16,-2 24,-3 8,-1 15,-2 21,-4 6,-1 11,-4 15,-7 3,-3 5,-7 5,-13 0,-6 -1,-11 -3,-15 -2,-3 -5,-6 -8,-8 -3,-2 -7,-4 -11,-4 -4,-1 -9,-1 -14,-1 -11,0 -19,2 -25,7 -6,5 -10,13 -11,24l-55 0zm127 42l0 0c-3,2 -6,4 -9,5 -3,1 -7,2 -11,3 -4,1 -8,1 -13,2 -4,1 -8,1 -13,2 -4,1 -8,2 -12,3 -4,2 -7,3 -10,6 -3,2 -6,5 -7,8 -2,4 -3,8 -3,13 0,6 1,10 3,13 1,4 4,7 7,9 3,2 7,3 11,4 4,1 8,1 12,1 11,0 20,-2 25,-6 6,-3 11,-8 14,-13 2,-5 4,-11 5,-16 0,-5 1,-10 1,-13l0 -21z"/>
  <path class="fil1" d="M1852 1250l0 29 1 0c7,-12 16,-21 27,-26 11,-6 22,-8 34,-8 15,0 27,2 36,6 9,4 17,10 22,17 6,7 9,16 12,27 2,11 3,22 3,35l0 127 -55 0 0 -117c0,-17 -3,-29 -8,-38 -5,-8 -14,-12 -27,-12 -15,0 -26,4 -32,13 -7,10 -10,25 -10,46l0 108 -55 0 0 -207 52 0z"/>
  <path class="fil1" d="M2083 1171l0 108 1 0c7,-12 16,-21 27,-26 11,-6 21,-8 32,-8 14,0 26,2 36,6 9,4 16,10 22,17 5,7 9,16 11,27 2,11 3,22 3,35l0 127 -54 0 0 -117c0,-17 -3,-29 -8,-38 -5,-8 -14,-12 -27,-12 -15,0 -26,4 -33,13 -7,10 -10,25 -10,46l0 108 -55 0 0 -286 55 0z"/>
  <path class="fil1" d="M2255 1314c0,-13 4,-24 9,-33 6,-9 13,-16 22,-21 9,-6 19,-10 29,-12 11,-2 22,-3 33,-3 10,0 21,0 31,2 10,1 19,4 28,8 8,5 15,11 21,18 5,8 8,18 8,31l0 107c0,10 0,19 1,27 1,9 3,15 6,19l-56 0c-1,-3 -2,-6 -2,-9 -1,-4 -1,-7 -2,-11 -8,10 -19,16 -30,20 -12,4 -24,6 -37,6 -9,0 -18,-2 -26,-4 -8,-2 -16,-6 -22,-11 -6,-5 -11,-12 -14,-19 -4,-8 -5,-17 -5,-28 0,-12 2,-21 6,-29 3,-8 9,-14 15,-18 6,-5 13,-8 21,-11 9,-2 17,-4 25,-5 8,-1 16,-2 24,-3 8,-1 15,-2 21,-4 7,-1 12,-4 15,-7 4,-3 5,-7 5,-13 0,-6 -1,-11 -3,-15 -2,-3 -4,-6 -7,-8 -4,-2 -7,-4 -12,-4 -4,-1 -8,-1 -13,-1 -11,0 -20,2 -26,7 -6,5 -10,13 -11,24l-54 0zm126 42l0 0c-2,2 -5,4 -9,5 -3,1 -7,2 -11,3 -4,1 -8,1 -12,2 -5,1 -9,1 -13,2 -4,1 -8,2 -12,3 -4,2 -8,3 -11,6 -3,2 -5,5 -7,8 -2,4 -3,8 -3,13 0,6 1,10 3,13 2,4 4,7 7,9 3,2 7,3 11,4 4,1 8,1 13,1 11,0 19,-2 25,-6 6,-3 10,-8 13,-13 3,-5 5,-11 5,-16 1,-5 1,-10 1,-13l0 -21z"/>
  <polygon class="fil1" points="2535,1171 2535,1457 2480,1457 2480,1171 "/>
  <path class="fil1" d="M2815 1171c17,0 32,3 44,8 12,5 22,12 29,21 8,8 13,18 17,29 3,11 5,22 5,34 0,12 -2,23 -5,34 -4,11 -9,21 -17,29 -7,9 -17,16 -29,21 -12,5 -27,8 -44,8l-64 0 0 102 -60 0 0 -286 124 0zm-17 135l0 0c7,0 14,-1 20,-2 7,-1 12,-3 17,-6 5,-3 9,-7 12,-13 3,-5 4,-13 4,-22 0,-9 -1,-16 -4,-22 -3,-6 -7,-10 -12,-13 -5,-3 -10,-5 -17,-6 -6,-1 -13,-2 -20,-2l-47 0 0 86 47 0z"/>
  <path class="fil1" d="M3077 1457l0 -28 -1 0c-7,12 -16,20 -27,26 -11,5 -23,8 -34,8 -15,0 -27,-2 -36,-6 -10,-4 -17,-10 -22,-17 -6,-8 -10,-17 -12,-27 -2,-11 -3,-23 -3,-35l0 -128 55 0 0 117c0,17 2,30 7,39 6,8 15,12 28,12 15,0 26,-4 32,-14 7,-9 10,-24 10,-45l0 -109 55 0 0 207 -52 0z"/>
  <path class="fil1" d="M3225 1171l0 105 1 0c7,-11 16,-19 27,-24 12,-5 24,-7 36,-7 10,0 20,2 30,6 9,4 18,11 26,20 8,9 14,20 19,34 5,13 7,30 7,49 0,19 -2,35 -7,49 -5,13 -11,25 -19,34 -8,8 -17,15 -26,19 -10,4 -20,7 -30,7 -15,0 -28,-3 -39,-8 -12,-4 -21,-13 -27,-24l0 0 0 26 -52 0 0 -286 54 0zm89 158l0 0c-2,-8 -5,-15 -8,-21 -4,-7 -9,-11 -15,-15 -6,-4 -13,-5 -21,-5 -8,0 -15,1 -21,5 -6,4 -11,8 -14,15 -4,6 -7,13 -9,21 -2,8 -3,16 -3,25 0,9 1,17 3,25 2,8 5,15 9,21 3,6 8,11 14,15 6,3 13,5 21,5 8,0 15,-2 21,-5 6,-4 11,-9 15,-15 3,-6 6,-13 8,-21 2,-8 3,-16 3,-25 0,-9 -1,-17 -3,-25z"/>
  <polygon class="fil1" points="3462,1171 3462,1457 3408,1457 3408,1171 "/>
  <path class="fil1" d="M3507 1218l0 -47 55 0 0 47 -55 0zm55 32l0 0 0 207 -55 0 0 -207 55 0z"/>
  <path class="fil1" d="M3651 1406c3,4 6,8 10,11 3,3 8,5 13,6 5,1 10,2 16,2 3,0 7,0 12,-1 4,-1 8,-3 11,-5 4,-2 7,-5 9,-8 2,-3 3,-7 3,-13 0,-8 -5,-14 -16,-19 -11,-4 -26,-8 -46,-13 -8,-1 -16,-4 -23,-6 -8,-3 -14,-6 -20,-10 -6,-4 -11,-10 -15,-16 -3,-6 -5,-14 -5,-23 0,-13 3,-24 8,-33 5,-8 11,-15 19,-20 9,-5 18,-8 28,-10 10,-2 21,-3 32,-3 11,0 21,1 31,3 10,2 19,6 27,11 8,5 15,12 20,20 6,8 9,19 10,32l-52 0c-1,-11 -5,-19 -12,-22 -7,-4 -16,-6 -26,-6 -3,0 -6,0 -10,0 -3,1 -7,2 -10,3 -3,1 -5,3 -7,6 -2,2 -3,6 -3,10 0,5 2,9 5,12 4,4 9,6 14,8 6,2 13,4 20,6 8,1 15,3 23,5 8,2 16,4 23,7 8,2 15,6 20,10 6,5 11,10 15,17 3,6 5,14 5,24 0,14 -3,25 -8,34 -5,9 -12,17 -20,22 -9,6 -19,10 -30,12 -10,2 -22,4 -33,4 -11,0 -23,-2 -34,-4 -11,-2 -21,-6 -29,-12 -9,-6 -16,-13 -21,-22 -6,-9 -9,-21 -10,-35l52 0c0,6 2,12 4,16z"/>
  <path class="fil1" d="M3867 1171l0 108 1 0c7,-12 16,-21 27,-26 10,-6 21,-8 31,-8 15,0 27,2 36,6 10,4 17,10 22,17 6,7 10,16 12,27 2,11 3,22 3,35l0 127 -55 0 0 -117c0,-17 -2,-29 -7,-38 -6,-8 -15,-12 -28,-12 -15,0 -26,4 -32,13 -7,10 -10,25 -10,46l0 108 -55 0 0 -286 55 0z"/>
  <path class="fil1" d="M4099 1408c8,8 20,12 36,12 11,0 20,-3 28,-9 8,-5 13,-11 15,-18l48 0c-8,25 -19,43 -35,54 -16,10 -36,16 -58,16 -16,0 -30,-3 -43,-8 -12,-5 -23,-13 -32,-22 -8,-10 -15,-22 -20,-35 -5,-13 -7,-28 -7,-44 0,-15 2,-30 7,-43 5,-14 12,-25 21,-35 9,-10 20,-17 32,-23 13,-6 27,-8 42,-8 17,0 32,3 44,10 13,7 23,16 31,27 8,12 14,25 18,40 3,14 5,30 4,46l-144 0c1,18 5,31 13,40zm62 -109l0 0c-6,-8 -16,-11 -30,-11 -8,0 -16,1 -22,4 -5,3 -10,7 -13,12 -4,4 -6,9 -8,14 -1,5 -2,10 -2,14l89 0c-3,-15 -7,-26 -14,-33z"/>
  <path class="fil1" d="M4314 1250l0 39 1 0c2,-7 6,-13 10,-18 4,-6 10,-10 15,-14 6,-4 12,-7 18,-9 7,-2 13,-3 20,-3 4,0 8,0 12,2l0 53c-2,-1 -5,-1 -9,-2 -4,0 -7,0 -10,0 -10,0 -19,1 -26,5 -7,3 -12,8 -17,14 -4,6 -7,13 -9,21 -1,8 -2,17 -2,26l0 93 -55 0 0 -207 52 0z"/>
  <path class="fil1" d="M4458 1406c2,4 5,8 9,11 4,3 9,5 14,6 5,1 10,2 15,2 4,0 8,0 12,-1 5,-1 9,-3 12,-5 3,-2 6,-5 9,-8 2,-3 3,-7 3,-13 0,-8 -5,-14 -16,-19 -11,-4 -26,-8 -46,-13 -8,-1 -16,-4 -23,-6 -8,-3 -15,-6 -20,-10 -6,-4 -11,-10 -15,-16 -3,-6 -5,-14 -5,-23 0,-13 2,-24 7,-33 5,-8 12,-15 20,-20 8,-5 18,-8 28,-10 10,-2 21,-3 32,-3 10,0 21,1 31,3 10,2 19,6 27,11 8,5 15,12 20,20 5,8 8,19 9,32l-52 0c0,-11 -4,-19 -12,-22 -7,-4 -15,-6 -25,-6 -3,0 -6,0 -10,0 -4,1 -7,2 -10,3 -3,1 -5,3 -7,6 -2,2 -3,6 -3,10 0,5 1,9 5,12 4,4 8,6 14,8 6,2 12,4 20,6 7,1 15,3 23,5 8,2 15,4 23,7 8,2 14,6 20,10 6,5 11,10 14,17 4,6 6,14 6,24 0,14 -3,25 -8,34 -5,9 -12,17 -21,22 -8,6 -18,10 -29,12 -11,2 -22,4 -33,4 -12,0 -23,-2 -34,-4 -11,-2 -21,-6 -30,-12 -8,-6 -15,-13 -21,-22 -5,-9 -8,-21 -9,-35l52 0c0,6 2,12 4,16z"/>
  <path class="fil0" d="M5668 125c-62,-35 -129,-64 -203,-89 -142,48 -262,114 -359,200 -98,86 -173,190 -224,313 -26,62 -42,121 -52,172 -20,101 -17,171 -17,172l0 0 0 1 0 0 0 1 0 538 1304 0 0 -538 0 -1 0 0 0 -1 0 0c0,-3 2,-49 -8,-120l-1 -4 4 -1c4,-1 9,-2 13,-3 4,-2 8,-3 12,-4l5 -2 1 5c11,76 8,127 8,131l0 568 0 4 -4 0 -1364 0 -4 0 0 -4 0 -568 0 0c-1,-9 -33,-660 685,-895l1 0 1 0c86,28 160,62 226,100 65,38 121,80 170,124l4 4 -5 3c-3,3 -7,5 -10,8 -3,2 -6,5 -9,7l-3 3 -3 -3c-50,-45 -106,-86 -168,-121z"/>
  <path class="fil1" d="M5465 165c119,45 218,106 298,183 -15,37 -23,77 -23,120 0,151 105,277 247,310 10,65 10,109 9,115l0 3 0 6 0 352 -1062 0 0 -352 0 -5 0 -5c-1,-1 -5,-136 60,-293 84,-201 242,-346 471,-434z"/>
  <path class="fil1" d="M5086 1206l0 73 20 -2c17,-2 34,-3 50,-3 127,0 251,52 291,83l8 6 11 9 11 -9 8 -6c40,-31 164,-83 290,-83 17,0 34,1 50,3l19 2 0 -73 -758 0z"/>
  <path class="fil2" d="M5780 1000c-9,0 -16,7 -16,15 0,8 7,15 16,15l79 0c8,0 15,-7 15,-15 0,-8 -7,-15 -15,-15l-79 0z"/>
  <path class="fil2" d="M5874 1101c0,-9 -7,-15 -15,-15l-97 0c-9,0 -16,6 -16,15 0,8 7,15 16,15l97 0c8,0 15,-7 15,-15z"/>
  <path class="fil2" d="M5859 1128l-79 0c-9,0 -16,7 -16,15 0,9 7,15 16,15l79 0c8,0 15,-6 15,-15 0,-8 -7,-15 -15,-15z"/>
  <path class="fil2" d="M5874 1058c0,-8 -7,-15 -15,-15l-108 0c-9,0 -15,7 -15,15 0,8 6,15 15,15l108 0c8,0 15,-7 15,-15z"/>
  <path class="fil2" d="M5053 1015c0,8 7,15 15,15l79 0c9,0 16,-7 16,-15 0,-8 -7,-15 -16,-15l-79 0c-8,0 -15,7 -15,15z"/>
  <path class="fil2" d="M5053 1058c0,8 7,15 15,15l108 0c9,0 15,-7 15,-15 0,-8 -6,-15 -15,-15l-108 0c-8,0 -15,7 -15,15z"/>
  <path class="fil2" d="M5053 1101c0,8 7,15 15,15l97 0c9,0 16,-7 16,-15 0,-9 -7,-15 -16,-15l-97 0c-8,0 -15,6 -15,15z"/>
  <path class="fil2" d="M5053 1143c0,9 7,15 15,15l79 0c9,0 16,-6 16,-15 0,-8 -7,-15 -16,-15l-79 0c-8,0 -15,7 -15,15z"/>
  <path class="fil2" d="M5599 522l0 7c0,1 -4,71 23,99 3,-12 11,-29 27,-41 -19,-84 -94,-147 -184,-147 -91,0 -166,63 -185,147 7,3 24,13 28,39 12,-7 31,-30 23,-89l-2 -18 14 11c1,1 82,65 198,25 -9,-5 -21,-12 -30,-21l-13 -12 101 0z"/>
  <path class="fil2" d="M5669 572c0,-4 1,-8 1,-12 0,-113 -91,-204 -204,-204 -112,0 -203,91 -203,204 0,4 1,8 1,12 27,-85 108,-152 202,-152 95,0 176,67 203,152z"/>
  <path class="fil2" d="M5693 652c0,-29 -13,-53 -29,-53 -4,0 -9,2 -12,5 0,0 0,-1 0,-1 -16,16 -18,38 -18,38l0 12 -10 -6c-38,-21 -40,-88 -40,-111l-47 0c13,8 25,14 25,14l15 7 -15 6c-104,43 -185,6 -215,-13 5,82 -42,94 -44,95l-9 2 0 -9c0,-22 -10,-32 -16,-36 0,0 0,1 0,1 -4,-3 -7,-4 -11,-4 -16,0 -29,24 -29,53 0,30 13,53 29,53 8,0 14,-5 19,-14 26,74 96,127 179,127 83,0 153,-54 178,-128 6,9 13,15 21,15 16,0 29,-23 29,-53zm-259 23l0 0c5,-14 17,-23 31,-23 13,0 25,9 30,22 1,4 -1,8 -4,9 -4,2 -8,0 -9,-4 -3,-8 -10,-13 -17,-13 -8,0 -15,5 -17,13 -1,3 -4,5 -7,5 -1,0 -2,0 -2,-1 -4,-1 -6,-5 -5,-8zm134 -49l0 0c0,16 -13,28 -28,28 -16,0 -29,-12 -29,-28 0,-16 13,-28 29,-28 15,0 28,12 28,28zm-178 28l0 0c-16,0 -29,-12 -29,-28 0,-16 13,-28 29,-28 15,0 28,12 28,28 0,16 -13,28 -28,28zm75 83l0 0c26,0 51,-3 72,-16 -15,25 -42,41 -72,41 -31,0 -58,-16 -73,-41 21,13 46,16 73,16z"/>
  <g id="_1117564576">
   <path class="fil2" d="M5747 856c-23,-12 -85,-40 -145,-25 -12,-15 -17,-20 -17,-20 0,0 -7,-7 -17,-3 -12,4 -13,15 -13,15 0,47 -37,86 -84,89l-13 0c-47,-3 -84,-42 -84,-89 0,0 -1,-11 -13,-15 -10,-4 -18,3 -18,3 0,0 -4,5 -16,20 -60,-15 -123,13 -145,25 195,0 282,92 282,92 0,0 87,-92 283,-92z"/>
  </g>
  <path class="fil2" d="M5870 991c0,0 -11,-20 -29,-23l0 20 19 0c0,0 5,1 10,3z"/>
  <path class="fil2" d="M5058 991c0,0 10,-20 28,-23l0 20 -19 0c0,0 -5,1 -9,3z"/>
  <g id="_1117590656">
   <path class="fil2" d="M5780 988l51 0 0 -113c-221,-32 -331,60 -359,85l0 389c36,-29 187,-104 359,-86l0 -92 -51 0c-15,0 -27,-12 -27,-28 0,-6 2,-11 5,-15 -13,-2 -23,-14 -23,-27 0,-7 3,-13 7,-18 -11,-4 -18,-14 -18,-25 0,-15 13,-28 28,-28l6 0c-3,-4 -5,-9 -5,-15 0,-15 12,-27 27,-27z"/>
   <path class="fil2" d="M5098 875l0 113 50 0c15,0 28,12 28,27 0,6 -2,11 -5,15l6 0c15,0 27,13 27,28 0,11 -7,21 -17,25 4,5 7,11 7,18 0,13 -10,25 -24,27 4,4 6,9 6,15 0,16 -12,28 -28,28l-50 0 0 92c172,-18 322,57 359,86l0 -389c-24,-25 -137,-117 -359,-85z"/>
  </g>
  <g id="_1117575264">
   <path class="fil2" d="M5389 818c0,1 0,3 0,5 0,41 34,75 75,75 42,0 76,-34 76,-75 0,-3 0,-1 0,-4 -17,7 -34,10 -52,12 -8,1 -16,1 -24,1 -26,0 -52,-5 -75,-14z"/>
  </g>
  <path class="fil0" d="M6029 213c-75,0 -143,31 -192,80 -49,49 -79,117 -79,192 0,74 30,142 79,191 49,49 117,80 192,80 75,0 142,-31 191,-80 50,-49 80,-117 80,-191 0,-75 -30,-143 -80,-192 -49,-49 -116,-80 -191,-80zm-210 61c53,-54 128,-87 210,-87 82,0 156,33 210,87 54,54 87,128 87,211 0,82 -33,156 -87,210 -54,54 -128,87 -210,87 -82,0 -157,-33 -210,-87 -54,-54 -88,-128 -88,-210 0,-83 34,-157 88,-211z"/>
 </g>
</svg>
