<?xml version="1.0" encoding="utf-8"?>
<!-- Generator: Adobe Illustrator 16.0.0, SVG Export Plug-In . SVG Version: 6.00 Build 0)  -->
<!DOCTYPE svg PUBLIC "-//W3C//DTD SVG 1.1//EN" "http://www.w3.org/Graphics/SVG/1.1/DTD/svg11.dtd">
<svg version="1.1" id="Layer_1" xmlns="http://www.w3.org/2000/svg" xmlns:xlink="http://www.w3.org/1999/xlink" x="0px" y="0px"
	 width="94px" height="79px" viewBox="0 0 94 79" enable-background="new 0 0 94 79" xml:space="preserve">
<g>
	<path fill="none" d="M60.634,21.786c-0.552,1.037-0.867,2.22-0.867,3.476c0,4.013,3.202,7.285,7.187,7.413
		c0.08,0.004,0.159,0.014,0.241,0.014c1.612,0,3.103-0.523,4.321-1.399c0.24-0.172,0.467-0.358,0.684-0.557
		c1.484-1.359,2.422-3.306,2.422-5.471c0-4.098-3.332-7.429-7.427-7.429c-0.796,0-1.562,0.129-2.28,0.361
		c-0.279,0.091-0.549,0.2-0.813,0.322C62.619,19.198,61.397,20.35,60.634,21.786z"/>
	<path fill="#FFFFFF" d="M67.194,17.833c4.095,0,7.427,3.331,7.427,7.429c0,2.165-0.938,4.111-2.422,5.471
		c0.099,0.271,0.194,0.547,0.289,0.823c1.793-1.509,2.935-3.768,2.935-6.296c0-4.545-3.685-8.229-8.229-8.229
		c-1.003,0-1.959,0.188-2.847,0.517c0.194,0.208,0.376,0.433,0.566,0.646C65.633,17.961,66.398,17.833,67.194,17.833z"/>
	<path fill="#FFFFFF" d="M64.102,18.516c0.264-0.122,0.533-0.231,0.813-0.322c-0.19-0.214-0.372-0.438-0.566-0.646
		c-0.281,0.104-0.554,0.221-0.818,0.353C63.723,18.103,63.914,18.308,64.102,18.516z"/>
	<path fill="#FFFFFF" d="M71.516,31.289c0.096,0.266,0.188,0.531,0.277,0.796c0.242-0.163,0.473-0.342,0.695-0.529
		c-0.095-0.276-0.19-0.552-0.289-0.823C71.982,30.93,71.756,31.117,71.516,31.289z"/>
	<path fill="#FFFFFF" d="M67.194,32.688c-0.082,0-0.161-0.01-0.241-0.014c0.096,0.267,0.186,0.543,0.277,0.813
		c1.689-0.007,3.26-0.521,4.563-1.402c-0.09-0.265-0.182-0.53-0.277-0.796C70.297,32.165,68.807,32.688,67.194,32.688z"/>
	<path fill="#FFFFFF" d="M60.068,21.156c0.193,0.203,0.378,0.419,0.565,0.63c0.764-1.436,1.985-2.588,3.468-3.27
		c-0.188-0.208-0.379-0.413-0.572-0.616C62.08,18.624,60.875,19.757,60.068,21.156z"/>
	<path fill="#FFFFFF" d="M59.767,25.261c0-1.256,0.315-2.438,0.867-3.476c-0.188-0.211-0.372-0.427-0.565-0.63
		c-0.697,1.208-1.104,2.607-1.104,4.104c0,4.546,3.686,8.229,8.229,8.229c0.013,0,0.024-0.002,0.036-0.002
		c-0.092-0.27-0.182-0.546-0.277-0.813C62.969,32.546,59.767,29.274,59.767,25.261z"/>
	<path fill="none" d="M56.643,31.096c0.112-0.423,0.377-1.057,0.979-1.506c-0.698-3.103-3.462-5.419-6.774-5.419
		c-3.316,0-6.081,2.33-6.772,5.438c0.226,0.104,0.868,0.472,1.015,1.436c0.426-0.289,1.128-1.108,0.842-3.294l-0.084-0.655
		l0.515,0.416c0.032,0.025,3.02,2.375,7.302,0.917c-0.347-0.191-0.785-0.469-1.117-0.777l-0.489-0.46h3.737l-0.018,0.281
		C55.775,27.502,55.635,30.082,56.643,31.096z"/>
	<path fill="#FFFFFF" d="M48.182,34.52c0.545,0.905,1.535,1.512,2.666,1.512c1.134,0,2.124-0.606,2.67-1.512
		c-0.779,0.479-1.688,0.57-2.67,0.57C49.869,35.09,48.957,34.999,48.182,34.52z"/>
	<path fill="#FFFFFF" d="M49.895,33.137c0.027,0.007,0.055,0.016,0.084,0.016c0.107,0,0.206-0.069,0.243-0.176
		c0.097-0.283,0.349-0.475,0.626-0.475s0.531,0.191,0.628,0.47c0.046,0.137,0.194,0.207,0.329,0.159
		c0.133-0.047,0.203-0.193,0.158-0.327c-0.171-0.487-0.617-0.814-1.115-0.814s-0.947,0.328-1.114,0.821
		C49.688,32.943,49.76,33.091,49.895,33.137z"/>
	<circle fill="#FFFFFF" cx="53.605" cy="31.029" r="1.041"/>
	<circle fill="#FFFFFF" cx="48.093" cy="31.029" r="1.041"/>
	<path fill="none" d="M50.913,23.46c3.486,0,6.437,2.445,7.444,5.595c0.01-0.156,0.023-0.312,0.023-0.47
		c0-4.125-3.344-7.468-7.468-7.468c-4.126,0-7.469,3.343-7.469,7.468c0,0.158,0.015,0.313,0.022,0.47
		C44.476,25.906,47.428,23.46,50.913,23.46z"/>
	<rect x="50.556" y="52.404" fill="#FFFFFF" width="0.562" height="0.563"/>
	<path fill="none" d="M50.836,38.614c-0.975,0-1.908-0.188-2.765-0.529c-0.006,0.057-0.012,0.113-0.012,0.173
		c0,1.531,1.242,2.777,2.776,2.777c1.533,0,2.775-1.246,2.775-2.777c0-0.113,0.002-0.042-0.009-0.15
		c-0.61,0.263-1.245,0.399-1.913,0.458C51.408,38.596,51.125,38.614,50.836,38.614z"/>
	<g>
		<path fill="none" d="M50.836,41.035c1.533,0,2.775-1.246,2.775-2.777c0-0.113,0.002-0.042-0.009-0.15
			c-0.61,0.263-1.245,0.399-1.913,0.458c-0.281,0.031-0.564,0.049-0.854,0.049c-0.975,0-1.908-0.188-2.765-0.529
			c-0.006,0.057-0.012,0.113-0.012,0.173C48.06,39.789,49.302,41.035,50.836,41.035z"/>
		<path fill="none" d="M43.444,28.585c0,0.158,0.015,0.313,0.022,0.47c1.009-3.149,3.961-5.595,7.446-5.595
			c3.486,0,6.437,2.445,7.444,5.595c0.01-0.156,0.023-0.312,0.023-0.47c0-4.125-3.344-7.468-7.468-7.468
			C46.787,21.118,43.444,24.46,43.444,28.585z"/>
		<path fill="none" d="M56.643,31.096c0.112-0.423,0.377-1.057,0.979-1.506c-0.698-3.103-3.462-5.419-6.774-5.419
			c-3.316,0-6.081,2.33-6.772,5.438c0.226,0.104,0.868,0.472,1.015,1.436c0.426-0.289,1.128-1.108,0.842-3.294l-0.084-0.655
			l0.515,0.416c0.032,0.025,3.02,2.375,7.302,0.917c-0.347-0.191-0.785-0.469-1.117-0.777l-0.489-0.46h3.737l-0.018,0.281
			C55.775,27.502,55.635,30.082,56.643,31.096z"/>
		<rect x="38.34" y="52.404" fill="#FFFFFF" width="0.453" height="0.563"/>
		<g>
			<path fill="none" d="M43.444,28.585c0,0.158,0.015,0.313,0.022,0.47c1.009-3.149,3.961-5.595,7.446-5.595
				c3.486,0,6.437,2.445,7.444,5.595c0.01-0.156,0.023-0.312,0.023-0.47c0-4.125-3.344-7.468-7.468-7.468
				C46.787,21.118,43.444,24.46,43.444,28.585z"/>
			<path fill="none" d="M50.836,41.035c1.533,0,2.775-1.246,2.775-2.777c0-0.113,0.002-0.042-0.009-0.15
				c-0.61,0.263-1.245,0.399-1.913,0.458c-0.281,0.031-0.564,0.049-0.854,0.049c-0.975,0-1.908-0.188-2.765-0.529
				c-0.006,0.057-0.012,0.113-0.012,0.173C48.06,39.789,49.302,41.035,50.836,41.035z"/>
			<path fill="none" d="M56.643,31.096c0.112-0.423,0.377-1.057,0.979-1.506c-0.698-3.103-3.462-5.419-6.774-5.419
				c-3.316,0-6.081,2.33-6.772,5.438c0.226,0.104,0.868,0.472,1.015,1.436c0.426-0.289,1.128-1.108,0.842-3.294l-0.084-0.655
				l0.515,0.416c0.032,0.025,3.02,2.375,7.302,0.917c-0.347-0.191-0.785-0.469-1.117-0.777l-0.489-0.46h3.737l-0.018,0.281
				C55.775,27.502,55.635,30.082,56.643,31.096z"/>
			<g>
				<path fill="none" d="M37.184,45.328c0,0.306,0.247,0.553,0.55,0.553h2.918c0.306,0,0.554-0.247,0.554-0.553
					c0-0.305-0.248-0.549-0.554-0.549h-2.918C37.431,44.779,37.184,45.023,37.184,45.328z"/>
				<path fill="none" d="M43.444,28.585c0,0.158,0.015,0.313,0.022,0.47c1.009-3.149,3.961-5.595,7.446-5.595
					c3.486,0,6.437,2.445,7.444,5.595c0.01-0.156,0.023-0.312,0.023-0.47c0-4.125-3.344-7.468-7.468-7.468
					C46.787,21.118,43.444,24.46,43.444,28.585z"/>
				<path fill="none" d="M50.836,41.035c1.533,0,2.775-1.246,2.775-2.777c0-0.113,0.002-0.042-0.009-0.15
					c-0.61,0.263-1.245,0.399-1.913,0.458c-0.281,0.031-0.564,0.049-0.854,0.049c-0.975,0-1.908-0.188-2.765-0.529
					c-0.006,0.057-0.012,0.113-0.012,0.173C48.06,39.789,49.302,41.035,50.836,41.035z"/>
				<path fill="none" d="M56.643,31.096c0.112-0.423,0.377-1.057,0.979-1.506c-0.698-3.103-3.462-5.419-6.774-5.419
					c-3.316,0-6.081,2.33-6.772,5.438c0.226,0.104,0.868,0.472,1.015,1.436c0.426-0.289,1.128-1.108,0.842-3.294l-0.084-0.655
					l0.515,0.416c0.032,0.025,3.02,2.375,7.302,0.917c-0.347-0.191-0.785-0.469-1.117-0.777l-0.489-0.46h3.737l-0.018,0.281
					C55.775,27.502,55.635,30.082,56.643,31.096z"/>
				<path fill="none" d="M37.18,46.907c0,0.303,0.246,0.549,0.549,0.549h3.982c0.307,0,0.557-0.246,0.557-0.549
					c0-0.306-0.25-0.557-0.557-0.557h-3.982C37.426,46.35,37.18,46.601,37.18,46.907z"/>
				<path fill="none" d="M38.793,54.453c6.326-0.678,10.432,2.104,11.763,3.143v-4.628v-0.563v-9.086
					c-0.873-0.92-5.056-3.836-11.763-3.153v4.162h1.858c0.554,0,1.006,0.452,1.006,1.001c0,0.213-0.067,0.409-0.181,0.57h0.234
					c0.555,0,1.007,0.452,1.007,1.009c0,0.421-0.266,0.78-0.637,0.93c0.146,0.172,0.241,0.396,0.241,0.64
					c0,0.502-0.373,0.918-0.858,0.991c0.12,0.164,0.193,0.364,0.193,0.582c0,0.562-0.441,1.005-1.006,1.005h-1.858v1.35v0.563
					V54.453z"/>
				<g>
					<path fill="none" d="M41.314,47.926h-3.588c-0.304,0-0.549,0.246-0.549,0.55s0.245,0.552,0.549,0.552h3.588
						c0.307,0,0.555-0.248,0.555-0.552S41.621,47.926,41.314,47.926z"/>
					<path fill="none" d="M56.643,31.096c0.112-0.423,0.377-1.057,0.979-1.506c-0.698-3.103-3.462-5.419-6.774-5.419
						c-3.316,0-6.081,2.33-6.772,5.438c0.226,0.104,0.868,0.472,1.015,1.436c0.426-0.289,1.128-1.108,0.842-3.294l-0.084-0.655
						l0.515,0.416c0.032,0.025,3.02,2.375,7.302,0.917c-0.347-0.191-0.785-0.469-1.117-0.777l-0.489-0.46h3.737l-0.018,0.281
						C55.775,27.502,55.635,30.082,56.643,31.096z"/>
					<path fill="none" d="M37.18,46.907c0,0.303,0.246,0.549,0.549,0.549h3.982c0.307,0,0.557-0.246,0.557-0.549
						c0-0.306-0.25-0.557-0.557-0.557h-3.982C37.426,46.35,37.18,46.601,37.18,46.907z"/>
					<path fill="none" d="M37.184,45.328c0,0.306,0.247,0.553,0.55,0.553h2.918c0.306,0,0.554-0.247,0.554-0.553
						c0-0.305-0.248-0.549-0.554-0.549h-2.918C37.431,44.779,37.184,45.023,37.184,45.328z"/>
					<path fill="none" d="M50.836,41.035c1.533,0,2.775-1.246,2.775-2.777c0-0.113,0.002-0.042-0.009-0.15
						c-0.61,0.263-1.245,0.399-1.913,0.458c-0.281,0.031-0.564,0.049-0.854,0.049c-0.975,0-1.908-0.188-2.765-0.529
						c-0.006,0.057-0.012,0.113-0.012,0.173C48.06,39.789,49.302,41.035,50.836,41.035z"/>
					<path fill="none" d="M38.793,54.453c6.326-0.678,10.432,2.104,11.763,3.143v-4.628v-0.563v-9.086
						c-0.873-0.92-5.056-3.836-11.763-3.153v4.162h1.858c0.554,0,1.006,0.452,1.006,1.001c0,0.213-0.067,0.409-0.181,0.57h0.234
						c0.555,0,1.007,0.452,1.007,1.009c0,0.421-0.266,0.78-0.637,0.93c0.146,0.172,0.241,0.396,0.241,0.64
						c0,0.502-0.373,0.918-0.858,0.991c0.12,0.164,0.193,0.364,0.193,0.582c0,0.562-0.441,1.005-1.006,1.005h-1.858v1.35v0.563
						V54.453z"/>
					<path fill="none" d="M43.444,28.585c0,0.158,0.015,0.313,0.022,0.47c1.009-3.149,3.961-5.595,7.446-5.595
						c3.486,0,6.437,2.445,7.444,5.595c0.01-0.156,0.023-0.312,0.023-0.47c0-4.125-3.344-7.468-7.468-7.468
						C46.787,21.118,43.444,24.46,43.444,28.585z"/>
					<path fill="none" d="M38.393,44.339v-0.738c-0.65,0.125-1.047,0.857-1.047,0.857c0.165-0.1,0.363-0.119,0.363-0.119H38.393z"/>
					<path fill="none" d="M40.651,49.5h-2.925c-0.304,0-0.549,0.248-0.549,0.55c0,0.305,0.245,0.554,0.549,0.554h2.925
						c0.31,0,0.554-0.244,0.554-0.554C41.205,49.748,40.957,49.5,40.651,49.5z"/>
					<rect x="38.34" y="52.404" fill="none" width="0.453" height="0.563"/>
					<rect x="50.556" y="52.404" fill="none" width="0.562" height="0.563"/>
					<rect x="62.879" y="52.404" fill="#FFFFFF" width="0.455" height="0.563"/>
					<path fill="#FFFFFF" d="M62.879,54.453c-6.324-0.678-10.433,2.104-11.762,3.143v-4.628h-0.562v4.628
						c-1.331-1.039-5.437-3.82-11.763-3.143v-1.486H38.34v2.097l0.762-0.082c0.616-0.068,1.234-0.1,1.84-0.1
						c4.631,0,7.769,1.908,9.226,3.045l0.286,0.223l0.413,0.324l0.413-0.324l0.287-0.223c1.457-1.137,4.592-3.045,9.225-3.045
						c0.604,0,1.223,0.031,1.839,0.1l0.704,0.082v-2.097h-0.455V54.453z"/>
					<path fill="none" d="M55.885,38.583c-0.434-0.564-0.596-0.756-0.596-0.756s-0.287-0.26-0.639-0.098
						c-0.434,0.146-0.466,0.528-0.466,0.528c0,1.751-1.374,3.184-3.099,3.293h-0.494c-1.725-0.109-3.094-1.542-3.094-3.293
						c0,0-0.036-0.382-0.469-0.528c-0.352-0.162-0.639,0.098-0.639,0.098s-0.164,0.191-0.596,0.756
						c-2.205-0.559-4.518,0.477-5.336,0.903c7.184,0,10.38,3.386,10.38,3.386s3.171-3.386,10.382-3.386
						C60.401,39.059,58.089,38.024,55.885,38.583z"/>
					<circle fill="none" cx="53.605" cy="31.029" r="1.041"/>
					<path fill="none" d="M48.182,34.52c0.545,0.905,1.535,1.512,2.666,1.512c1.134,0,2.124-0.606,2.67-1.512
						c-0.779,0.479-1.688,0.57-2.67,0.57C49.869,35.09,48.957,34.999,48.182,34.52z"/>
					<path fill="none" d="M49.895,33.137c0.027,0.007,0.055,0.016,0.084,0.016c0.107,0,0.206-0.069,0.243-0.176
						c0.097-0.283,0.349-0.475,0.626-0.475s0.531,0.191,0.628,0.47c0.046,0.137,0.194,0.207,0.329,0.159
						c0.133-0.047,0.203-0.193,0.158-0.327c-0.171-0.487-0.617-0.814-1.115-0.814s-0.947,0.328-1.114,0.821
						C49.688,32.943,49.76,33.091,49.895,33.137z"/>
					<circle fill="none" cx="48.093" cy="31.029" r="1.04"/>
					<path fill="none" d="M57.73,30.207c0-0.004,0-0.008,0-0.013c-0.576,0.58-0.644,1.382-0.644,1.393l-0.029,0.416l-0.364-0.206
						c-1.377-0.768-1.465-3.23-1.455-4.075h-1.726c0.462,0.299,0.911,0.502,0.917,0.503l0.559,0.257l-0.568,0.231
						c-3.825,1.562-6.784,0.21-7.906-0.463c0.191,2.997-1.521,3.439-1.599,3.46l-0.325,0.078v-0.336
						c0-0.799-0.393-1.154-0.615-1.297c0,0.007-0.004,0.014-0.004,0.017c-0.121-0.09-0.252-0.144-0.39-0.144
						c-0.585,0-1.061,0.879-1.061,1.962c0,1.079,0.476,1.956,1.061,1.956c0.276,0,0.526-0.2,0.717-0.521
						c0.948,2.709,3.519,4.65,6.55,4.65c3.049,0,5.635-1.965,6.572-4.697c0.189,0.352,0.457,0.568,0.746,0.568
						c0.587,0,1.063-0.877,1.063-1.956c0-1.083-0.476-1.962-1.063-1.962C58.013,30.028,57.865,30.093,57.73,30.207z M49.733,32.811
						c0.167-0.493,0.616-0.821,1.114-0.821s0.944,0.327,1.115,0.814c0.045,0.134-0.025,0.28-0.158,0.327
						c-0.135,0.048-0.283-0.022-0.329-0.159c-0.097-0.278-0.351-0.47-0.628-0.47s-0.529,0.191-0.626,0.475
						c-0.037,0.106-0.136,0.176-0.243,0.176c-0.029,0-0.057-0.009-0.084-0.016C49.76,33.091,49.688,32.943,49.733,32.811z
						 M47.053,31.029c0-0.576,0.467-1.04,1.04-1.04c0.575,0,1.04,0.464,1.04,1.04c0,0.574-0.465,1.041-1.04,1.041
						C47.52,32.07,47.053,31.603,47.053,31.029z M50.848,36.032c-1.131,0-2.121-0.606-2.666-1.512
						c0.775,0.479,1.688,0.57,2.666,0.57c0.982,0,1.891-0.092,2.67-0.57C52.972,35.425,51.981,36.032,50.848,36.032z M53.605,32.07
						c-0.574,0-1.039-0.467-1.039-1.041c0-0.576,0.465-1.04,1.039-1.04s1.039,0.464,1.039,1.04
						C54.645,31.603,54.18,32.07,53.605,32.07z"/>
					<path fill="#FFFFFF" d="M72.98,33.033c-0.155-0.501-0.324-0.989-0.492-1.478c-0.223,0.188-0.453,0.366-0.695,0.529
						c3.236,9.574,2.887,18.366,2.887,18.366v12.637H26.976V52.722c0,0-2.306-34.196,23.852-42.77
						c5.339,1.742,9.481,4.572,12.702,7.947c0.265-0.132,0.537-0.249,0.818-0.353c-3.637-3.881-8.087-6.7-13.26-8.389l-0.261-0.085
						l-0.258,0.085c-5.89,1.922-10.844,5.307-14.722,10.057c-3.09,3.783-5.502,8.432-7.172,13.817
						c-2.793,9.009-2.555,19.175-2.535,19.705v10.35v0.836h0.835H74.68h0.836v-0.836V50.466
						C75.535,49.936,75.773,42.042,72.98,33.033z"/>
					<g>
						<path fill="none" d="M50.836,41.035c1.533,0,2.775-1.246,2.775-2.777c0-0.113,0.002-0.042-0.009-0.15
							c-0.61,0.263-1.245,0.399-1.913,0.458c-0.281,0.031-0.564,0.049-0.854,0.049c-0.975,0-1.908-0.188-2.765-0.529
							c-0.006,0.057-0.012,0.113-0.012,0.173C48.06,39.789,49.302,41.035,50.836,41.035z"/>
						<path fill="none" d="M55.885,38.583c-0.434-0.564-0.596-0.756-0.596-0.756s-0.287-0.26-0.639-0.098
							c-0.434,0.146-0.466,0.528-0.466,0.528c0,1.751-1.374,3.184-3.099,3.293h-0.494c-1.725-0.109-3.094-1.542-3.094-3.293
							c0,0-0.036-0.382-0.469-0.528c-0.352-0.162-0.639,0.098-0.639,0.098s-0.164,0.191-0.596,0.756
							c-2.205-0.559-4.518,0.477-5.336,0.903c7.184,0,10.38,3.386,10.38,3.386s3.171-3.386,10.382-3.386
							C60.401,39.059,58.089,38.024,55.885,38.583z"/>
						<path fill="none" d="M40.651,49.5h-2.925c-0.304,0-0.549,0.248-0.549,0.55c0,0.305,0.245,0.554,0.549,0.554h2.925
							c0.31,0,0.554-0.244,0.554-0.554C41.205,49.748,40.957,49.5,40.651,49.5z"/>
						<path fill="none" d="M37.18,46.907c0,0.303,0.246,0.549,0.549,0.549h3.982c0.307,0,0.557-0.246,0.557-0.549
							c0-0.306-0.25-0.557-0.557-0.557h-3.982C37.426,46.35,37.18,46.601,37.18,46.907z"/>
						<path fill="none" d="M41.314,47.926h-3.588c-0.304,0-0.549,0.246-0.549,0.55s0.245,0.552,0.549,0.552h3.588
							c0.307,0,0.555-0.248,0.555-0.552S41.621,47.926,41.314,47.926z"/>
						<path fill="none" d="M57.73,30.207c0-0.004,0-0.008,0-0.013c-0.576,0.58-0.644,1.382-0.644,1.393l-0.029,0.416l-0.364-0.206
							c-1.377-0.768-1.465-3.23-1.455-4.075h-1.726c0.462,0.299,0.911,0.502,0.917,0.503l0.559,0.257l-0.568,0.231
							c-3.825,1.562-6.784,0.21-7.906-0.463c0.191,2.997-1.521,3.439-1.599,3.46l-0.325,0.078v-0.336
							c0-0.799-0.393-1.154-0.615-1.297c0,0.007-0.004,0.014-0.004,0.017c-0.121-0.09-0.252-0.144-0.39-0.144
							c-0.585,0-1.061,0.879-1.061,1.962c0,1.079,0.476,1.956,1.061,1.956c0.276,0,0.526-0.2,0.717-0.521
							c0.948,2.709,3.519,4.65,6.55,4.65c3.049,0,5.635-1.965,6.572-4.697c0.189,0.352,0.457,0.568,0.746,0.568
							c0.587,0,1.063-0.877,1.063-1.956c0-1.083-0.476-1.962-1.063-1.962C58.013,30.028,57.865,30.093,57.73,30.207z"/>
						<path fill="none" d="M62.879,52.404v0.563v1.486c-6.324-0.678-10.433,2.104-11.762,3.143v-4.628v-0.563h-0.562v-9.086
							c-0.873-0.92-5.056-3.836-11.763-3.153v4.162h1.858c0.554,0,1.006,0.452,1.006,1.001c0,0.213-0.067,0.409-0.181,0.57h0.234
							c0.555,0,1.007,0.452,1.007,1.009c0,0.421-0.266,0.78-0.637,0.93c0.146,0.172,0.241,0.396,0.241,0.64
							c0,0.502-0.373,0.918-0.858,0.991c0.12,0.164,0.193,0.364,0.193,0.582c0,0.562-0.441,1.005-1.006,1.005h-1.858v1.35H38.34
							v0.563v2.097l0.762-0.082c0.616-0.068,1.234-0.1,1.84-0.1c4.631,0,7.769,1.908,9.226,3.045l0.286,0.223l0.413,0.324
							l0.413-0.324l0.287-0.223c1.457-1.137,4.592-3.045,9.225-3.045c0.604,0,1.223,0.031,1.839,0.1l0.704,0.082v-2.097v-0.563
							H62.879z"/>
						<path fill="none" d="M37.184,45.328c0,0.306,0.247,0.553,0.55,0.553h2.918c0.306,0,0.554-0.247,0.554-0.553
							c0-0.305-0.248-0.549-0.554-0.549h-2.918C37.431,44.779,37.184,45.023,37.184,45.328z"/>
						<path fill="none" d="M38.393,44.339v-0.738c-0.65,0.125-1.047,0.857-1.047,0.857c0.165-0.1,0.363-0.119,0.363-0.119H38.393z"
							/>
						<path fill="none" d="M43.444,28.585c0,0.158,0.015,0.313,0.022,0.47c1.009-3.149,3.961-5.595,7.446-5.595
							c3.486,0,6.437,2.445,7.444,5.595c0.01-0.156,0.023-0.312,0.023-0.47c0-4.125-3.344-7.468-7.468-7.468
							C46.787,21.118,43.444,24.46,43.444,28.585z"/>
						<path fill="none" d="M56.643,31.096c0.112-0.423,0.377-1.057,0.979-1.506c-0.698-3.103-3.462-5.419-6.774-5.419
							c-3.316,0-6.081,2.33-6.772,5.438c0.226,0.104,0.868,0.472,1.015,1.436c0.426-0.289,1.128-1.108,0.842-3.294l-0.084-0.655
							l0.515,0.416c0.032,0.025,3.02,2.375,7.302,0.917c-0.347-0.191-0.785-0.469-1.117-0.777l-0.489-0.46h3.737l-0.018,0.281
							C55.775,27.502,55.635,30.082,56.643,31.096z"/>
						<path fill="none" d="M63.943,46.35h-3.981c-0.308,0-0.556,0.251-0.556,0.557c0,0.303,0.248,0.549,0.556,0.549h3.981
							c0.305,0,0.549-0.246,0.549-0.549C64.492,46.601,64.248,46.35,63.943,46.35z"/>
						<path fill="none" d="M63.939,44.779h-2.917c-0.307,0-0.556,0.244-0.556,0.549c0,0.306,0.249,0.553,0.556,0.553h2.917
							c0.303,0,0.55-0.247,0.55-0.553C64.489,45.023,64.242,44.779,63.939,44.779z"/>
						<path fill="none" d="M64.328,44.458c0,0-0.396-0.732-1.047-0.857v0.738h0.684C63.965,44.339,64.162,44.359,64.328,44.458z"/>
						<path fill="none" d="M51.117,57.596c1.329-1.039,5.438-3.82,11.762-3.143v-1.486v-0.563v-1.35h-1.856
							c-0.563,0-1.006-0.443-1.006-1.005c0-0.218,0.073-0.418,0.192-0.582c-0.483-0.073-0.855-0.489-0.855-0.991
							c0-0.244,0.09-0.468,0.24-0.64c-0.373-0.149-0.639-0.509-0.639-0.93c0-0.557,0.452-1.009,1.007-1.009h0.234
							c-0.112-0.161-0.18-0.357-0.18-0.57c0-0.549,0.45-1.001,1.006-1.001h1.856v-4.162c-6.787-0.683-10.744,2.233-11.762,3.153
							v9.086v0.563V57.596z"/>
						<path fill="none" d="M63.947,49.5h-2.925c-0.307,0-0.556,0.248-0.556,0.55c0,0.31,0.244,0.554,0.556,0.554h2.925
							c0.303,0,0.55-0.249,0.55-0.554C64.497,49.748,64.25,49.5,63.947,49.5z"/>
						<path fill="none" d="M71.793,32.084c-1.303,0.881-2.873,1.396-4.563,1.402c0.115,0.333,0.232,0.661,0.342,1.001
							C70.213,42.796,70.01,49.626,70,49.913l-0.027,3.055h-6.639v2.097l-0.704-0.082c-0.616-0.068-1.235-0.1-1.839-0.1
							c-4.633,0-7.768,1.908-9.225,3.045l-0.287,0.223l-0.413,0.324l-0.413-0.324l-0.286-0.223
							c-1.457-1.137-4.595-3.045-9.226-3.045c-0.605,0-1.224,0.031-1.84,0.1l-0.762,0.082v-2.097h-6.66l-0.027-3.055
							c-0.009-0.286-0.212-7.116,2.43-15.425c3.076-9.676,8.605-16.218,16.436-19.445l0.309-0.127l0.309,0.127
							c3.422,1.41,6.403,3.453,8.934,6.113c0.807-1.398,2.012-2.532,3.461-3.256c-3.221-3.375-7.363-6.205-12.702-7.947
							c-26.157,8.573-23.852,42.77-23.852,42.77v10.366H74.68V50.451C74.68,50.451,75.029,41.659,71.793,32.084z"/>
						<path fill="#FFFFFF" d="M50.826,14.916l-0.309,0.127c-7.83,3.228-13.359,9.77-16.436,19.445
							c-2.642,8.309-2.438,15.139-2.43,15.425l0.027,3.055h6.66v-0.563h0.453v-1.35h1.858c0.564,0,1.006-0.443,1.006-1.005
							c0-0.218-0.073-0.418-0.193-0.582c0.485-0.073,0.858-0.489,0.858-0.991c0-0.244-0.096-0.468-0.241-0.64
							c0.371-0.149,0.637-0.509,0.637-0.93c0-0.557-0.452-1.009-1.007-1.009h-0.234c0.113-0.161,0.181-0.357,0.181-0.57
							c0-0.549-0.452-1.001-1.006-1.001h-1.858v-4.162c6.707-0.683,10.89,2.233,11.763,3.153v9.086h0.562v-9.086
							c1.018-0.92,4.975-3.836,11.762-3.153v4.162h-1.856c-0.556,0-1.006,0.452-1.006,1.001c0,0.213,0.067,0.409,0.18,0.57h-0.234
							c-0.555,0-1.007,0.452-1.007,1.009c0,0.421,0.266,0.78,0.639,0.93c-0.15,0.172-0.24,0.396-0.24,0.64
							c0,0.502,0.372,0.918,0.855,0.991c-0.119,0.164-0.192,0.364-0.192,0.582c0,0.562,0.442,1.005,1.006,1.005h1.856v1.35h0.455
							v0.563h6.639L70,49.913c0.01-0.286,0.213-7.116-2.428-15.425c-0.109-0.34-0.227-0.668-0.342-1.001
							c-0.012,0-0.023,0.002-0.036,0.002c-4.544,0-8.229-3.684-8.229-8.229c0-1.496,0.406-2.896,1.104-4.104
							c-2.53-2.66-5.512-4.703-8.934-6.113L50.826,14.916z M38.393,43.601v0.738h-0.684c0,0-0.198,0.02-0.363,0.119
							C37.346,44.458,37.742,43.726,38.393,43.601z M40.651,50.603h-2.925c-0.304,0-0.549-0.249-0.549-0.554
							c0-0.302,0.245-0.55,0.549-0.55h2.925c0.306,0,0.554,0.248,0.554,0.55C41.205,50.359,40.961,50.603,40.651,50.603z
							 M41.314,49.028h-3.588c-0.304,0-0.549-0.248-0.549-0.552s0.245-0.55,0.549-0.55h3.588c0.307,0,0.555,0.246,0.555,0.55
							S41.621,49.028,41.314,49.028z M41.711,46.35c0.307,0,0.557,0.251,0.557,0.557c0,0.303-0.25,0.549-0.557,0.549h-3.982
							c-0.303,0-0.549-0.246-0.549-0.549c0-0.306,0.246-0.557,0.549-0.557H41.711z M40.651,44.779c0.306,0,0.554,0.244,0.554,0.549
							c0,0.306-0.248,0.553-0.554,0.553h-2.918c-0.303,0-0.55-0.247-0.55-0.553c0-0.305,0.247-0.549,0.55-0.549H40.651z
							 M63.947,50.603h-2.925c-0.312,0-0.556-0.244-0.556-0.554c0-0.302,0.249-0.55,0.556-0.55h2.925c0.303,0,0.55,0.248,0.55,0.55
							C64.497,50.354,64.25,50.603,63.947,50.603z M63.947,49.028h-3.588c-0.306,0-0.555-0.248-0.555-0.552s0.249-0.55,0.555-0.55
							h3.588c0.303,0,0.55,0.246,0.55,0.55S64.25,49.028,63.947,49.028z M63.943,47.456h-3.981c-0.308,0-0.556-0.246-0.556-0.549
							c0-0.306,0.248-0.557,0.556-0.557h3.981c0.305,0,0.549,0.251,0.549,0.557C64.492,47.209,64.248,47.456,63.943,47.456z
							 M63.939,45.88h-2.917c-0.307,0-0.556-0.247-0.556-0.553c0-0.305,0.249-0.549,0.556-0.549h2.917
							c0.303,0,0.55,0.244,0.55,0.549C64.489,45.633,64.242,45.88,63.939,45.88z M63.281,43.601c0.65,0.125,1.047,0.857,1.047,0.857
							c-0.166-0.1-0.363-0.119-0.363-0.119h-0.684V43.601z M50.839,42.872c0,0-3.196-3.386-10.38-3.386
							c0.818-0.427,3.131-1.462,5.336-0.903c0.432-0.564,0.596-0.756,0.596-0.756s0.287-0.26,0.639-0.098
							c0.433,0.146,0.469,0.528,0.469,0.528c0,1.751,1.369,3.184,3.094,3.293h0.494c1.725-0.109,3.099-1.542,3.099-3.293
							c0,0,0.032-0.382,0.466-0.528c0.352-0.162,0.639,0.098,0.639,0.098s0.162,0.191,0.596,0.756
							c2.204-0.559,4.517,0.477,5.336,0.903C54.01,39.486,50.839,42.872,50.839,42.872z M48.06,38.257
							c0-0.06,0.006-0.116,0.012-0.173c0.856,0.341,1.79,0.529,2.765,0.529c0.289,0,0.572-0.018,0.854-0.049
							c0.668-0.059,1.303-0.195,1.913-0.458c0.011,0.108,0.009,0.037,0.009,0.15c0,1.531-1.242,2.777-2.775,2.777
							C49.302,41.035,48.06,39.789,48.06,38.257z M59.229,31.99c0,1.079-0.476,1.956-1.063,1.956c-0.289,0-0.557-0.217-0.746-0.568
							c-0.938,2.732-3.523,4.697-6.572,4.697c-3.031,0-5.602-1.941-6.55-4.65c-0.19,0.321-0.44,0.521-0.717,0.521
							c-0.585,0-1.061-0.877-1.061-1.956c0-1.083,0.476-1.962,1.061-1.962c0.138,0,0.269,0.054,0.39,0.144
							c0-0.003,0.004-0.01,0.004-0.017c0.223,0.143,0.615,0.498,0.615,1.297v0.336l0.325-0.078c0.078-0.021,1.79-0.463,1.599-3.46
							c1.122,0.673,4.081,2.024,7.906,0.463l0.568-0.231l-0.559-0.257c-0.006-0.001-0.455-0.204-0.917-0.503h1.726
							c-0.01,0.845,0.078,3.308,1.455,4.075l0.364,0.206l0.029-0.416c0-0.011,0.067-0.813,0.644-1.393c0,0.005,0,0.009,0,0.013
							c0.135-0.113,0.282-0.179,0.436-0.179C58.753,30.028,59.229,30.907,59.229,31.99z M52.058,27.191l0.489,0.46
							c0.332,0.309,0.771,0.586,1.117,0.777c-4.282,1.458-7.27-0.892-7.302-0.917l-0.515-0.416l0.084,0.655
							c0.286,2.186-0.416,3.005-0.842,3.294c-0.146-0.964-0.789-1.332-1.015-1.436c0.691-3.107,3.456-5.438,6.772-5.438
							c3.313,0,6.076,2.316,6.774,5.419c-0.603,0.449-0.867,1.083-0.979,1.506c-1.008-1.015-0.867-3.594-0.865-3.624l0.018-0.281
							H52.058z M58.381,28.585c0,0.158-0.014,0.313-0.023,0.47c-1.008-3.149-3.958-5.595-7.444-5.595
							c-3.485,0-6.438,2.445-7.446,5.595c-0.008-0.156-0.022-0.312-0.022-0.47c0-4.125,3.343-7.468,7.469-7.468
							C55.037,21.118,58.381,24.46,58.381,28.585z"/>
					</g>
				</g>
			</g>
		</g>
	</g>
</g>
</svg>
