<?xml version="1.0" encoding="utf-8"?>
<!-- Generator: Adobe Illustrator 16.0.0, SVG Export Plug-In . SVG Version: 6.00 Build 0)  -->
<!DOCTYPE svg PUBLIC "-//W3C//DTD SVG 1.1//EN" "http://www.w3.org/Graphics/SVG/1.1/DTD/svg11.dtd">
<svg version="1.1" id="Layer_1" xmlns="http://www.w3.org/2000/svg" xmlns:xlink="http://www.w3.org/1999/xlink" x="0px" y="0px"
	 width="548.605px" height="477.762px" viewBox="0 0 548.605 477.762" enable-background="new 0 0 548.605 477.762"
	 xml:space="preserve">
<g>
	<defs>
		<rect id="SVGID_1_" width="548.605" height="477.762"/>
	</defs>
	<clipPath id="SVGID_2_">
		<use xlink:href="#SVGID_1_"  overflow="visible"/>
	</clipPath>
	<path clip-path="url(#SVGID_2_)" fill="#FFFFFF" d="M414.594,0c21.196,0,38.379,17.183,38.379,38.379s-17.183,38.379-38.379,38.379
		s-38.379-17.183-38.379-38.379S393.397,0,414.594,0"/>
	<path clip-path="url(#SVGID_2_)" fill="#FFFFFF" d="M515.934,115.634c0,0-44.688-35.144-44.795-35.227
		c-5.729-4.504-12.123-1.515-18.299-0.061c-2.545,0.6-5.262,0.909-7.744,1.735c-6.059,2.026-12.084,4.156-18.055,6.432
		c-11.205,4.275-23.451,8.718-33.053,16.102c-1.754,1.346-3.539,2.849-4.681,4.773c-1.655,0.948-3.151,2.228-4.34,3.88
		l-25.647,35.625l-36.879,18.443c-6.804,3.399-9.56,11.671-6.156,18.473c2.414,4.826,7.274,7.613,12.326,7.613
		c2.067,0,4.17-0.468,6.146-1.459l39.912-19.958c1.992-0.995,3.715-2.46,5.016-4.272l18.229-25.318
		c6.654,17.032,15.354,36.971,21.096,49.866l-44.414,9.229c-6.489,1.347-11.373,6.723-12.096,13.314l-12.279,112.051
		c-0.307,2.791,0.218,5.459,1.281,7.852h27.859c0.623-1.406,1.098-2.901,1.274-4.516l11.069-101.001l48.061-9.988l11.9,10.915
		c-0.496,1.702-0.742,3.504-0.671,5.371l3.517,90.573c0.119,3.062,1.074,6.041,2.765,8.604l38.524,58.506h33.023
		c1.381-4.604,0.858-9.746-1.988-14.076l-38.869-59.024l-3.334-85.884c-0.062-1.573-0.354-3.085-0.817-4.517l-0.017-0.346
		l-16.998-117.309l27.429,21.57l4.368,49.728c0.632,7.167,6.642,12.564,13.703,12.562c0.404,0,0.814-0.019,1.222-0.055
		c7.575-0.667,13.176-7.344,12.512-14.923l-4.894-55.662C520.809,121.464,518.924,117.985,515.934,115.634"/>
	<linearGradient id="SVGID_3_" gradientUnits="userSpaceOnUse" x1="-57" y1="350.8813" x2="491.6055" y2="350.8813">
		<stop  offset="0" style="stop-color:#FFFFFF"/>
		<stop  offset="0.9104" style="stop-color:#FFFFFF;stop-opacity:0.0896"/>
		<stop  offset="1" style="stop-color:#FFFFFF;stop-opacity:0"/>
	</linearGradient>
	<polygon clip-path="url(#SVGID_2_)" fill="url(#SVGID_3_)" points="438.883,346.971 329.164,346.971 329.164,287.211 
		219.442,287.211 219.442,224.001 0,224.001 0,229.201 0,377.865 0,476.458 548.605,477.762 547.459,476.458 548.605,476.458 
		548.605,405.43 438.883,405.43 	"/>
</g>
<g>
	<defs>
		<rect id="SVGID_4_" width="548.605" height="477.762"/>
	</defs>
	<clipPath id="SVGID_5_">
		<use xlink:href="#SVGID_4_"  overflow="visible"/>
	</clipPath>
	<path clip-path="url(#SVGID_5_)" fill="#FFFFFF" d="M414.594,0c21.196,0,38.379,17.183,38.379,38.379s-17.183,38.379-38.379,38.379
		s-38.379-17.183-38.379-38.379S393.397,0,414.594,0"/>
	<path clip-path="url(#SVGID_5_)" fill="#FFFFFF" d="M515.934,115.634c0,0-44.688-35.144-44.795-35.227
		c-5.729-4.504-12.123-1.515-18.299-0.061c-2.545,0.6-5.262,0.909-7.744,1.735c-6.059,2.026-12.084,4.156-18.055,6.432
		c-11.205,4.275-23.451,8.718-33.053,16.102c-1.754,1.346-3.539,2.849-4.681,4.773c-1.655,0.948-3.151,2.228-4.34,3.88
		l-25.647,35.625l-36.879,18.443c-6.804,3.399-9.56,11.671-6.156,18.473c2.414,4.826,7.274,7.613,12.326,7.613
		c2.067,0,4.17-0.468,6.146-1.459l39.912-19.958c1.992-0.995,3.715-2.46,5.016-4.272l18.229-25.318
		c6.654,17.032,15.354,36.971,21.096,49.866l-44.414,9.229c-6.489,1.347-11.373,6.723-12.096,13.314l-12.279,112.051
		c-0.307,2.791,0.218,5.459,1.281,7.852h27.859c0.623-1.406,1.098-2.901,1.274-4.516l11.069-101.001l48.061-9.988l11.9,10.915
		c-0.496,1.702-0.742,3.504-0.671,5.371l3.517,90.573c0.119,3.062,1.074,6.041,2.765,8.604l38.524,58.506h33.023
		c1.381-4.604,0.858-9.746-1.988-14.076l-38.869-59.024l-3.334-85.884c-0.062-1.573-0.354-3.085-0.817-4.517l-0.017-0.346
		l-16.998-117.309l27.429,21.57l4.368,49.728c0.632,7.167,6.642,12.564,13.703,12.562c0.404,0,0.814-0.019,1.222-0.055
		c7.575-0.667,13.176-7.344,12.512-14.923l-4.894-55.662C520.809,121.464,518.924,117.985,515.934,115.634"/>
	<linearGradient id="SVGID_6_" gradientUnits="userSpaceOnUse" x1="-57" y1="350.8813" x2="491.6055" y2="350.8813">
		<stop  offset="0" style="stop-color:#FFFFFF"/>
		<stop  offset="0.9104" style="stop-color:#FFFFFF;stop-opacity:0.0896"/>
		<stop  offset="1" style="stop-color:#FFFFFF;stop-opacity:0"/>
	</linearGradient>
	<polygon clip-path="url(#SVGID_5_)" fill="url(#SVGID_6_)" points="438.883,346.971 329.164,346.971 329.164,287.211 
		219.442,287.211 219.442,224.001 0,224.001 0,229.201 0,377.865 0,476.458 548.605,477.762 547.459,476.458 548.605,476.458 
		548.605,405.43 438.883,405.43 	"/>
</g>
</svg>
