<?xml version="1.0" encoding="utf-8"?>
<!-- Generator: Adobe Illustrator 21.0.0, SVG Export Plug-In . SVG Version: 6.00 Build 0)  -->
<svg version="1.1" id="Layer_1" xmlns="http://www.w3.org/2000/svg" xmlns:xlink="http://www.w3.org/1999/xlink" x="0px" y="0px"
	 viewBox="0 0 146.1 30.8" style="enable-background:new 0 0 146.1 30.8;" xml:space="preserve">
<style type="text/css">
	.st0{fill:#FFFFFF;}
</style>
<g id="Layer_x0020_1_1_">
	<path class="st0" d="M9.7,1.7l44-1.7c0.3,0,0.6,0,1,0c0.7,0.1,1.3,0.4,1.8,0.9s0.9,1,0.9,1.7c0,0.2,0,0.5,0,0.8L52.8,24
		c-0.2,0.9-0.6,1.7-1.3,2.2c-0.6,0.5-1.4,0.9-2.4,0.9l-35.3-1.2c-1,0-1.7-0.3-2.4-0.9l0,0c-0.6-0.6-1.1-1.4-1.3-2.2L6.2,5.1
		c0-0.1,0-0.1,0-0.2C6,4.1,6.4,3.3,7.1,2.8c0.6-0.5,1.4-0.8,2.3-1C9.5,1.8,9.6,1.8,9.7,1.7z M51.8,2.8l-42,1.5c-0.1,0-0.2,0-0.3,0
		C8.9,4.5,8.3,4.7,7.9,5.1c-0.3,0.2-0.5,0.6-0.5,1v0.1l3.8,16.5c0.1,0.6,0.4,1.2,0.9,1.6c0.4,0.3,0.8,0.5,1.4,0.5l34,1.2
		c0.6,0,1-0.2,1.4-0.5c0.4-0.4,0.7-0.9,0.9-1.6l4.3-19.3c0-0.1,0-0.3,0-0.4c0-0.3-0.2-0.7-0.5-0.9c-0.3-0.3-0.7-0.5-1.1-0.5
		C52.1,2.8,51.9,2.8,51.8,2.8z"/>
	<path class="st0" d="M16.8,6.4L29.7,5c0.1,0,0.3,0,0.4,0c0.3,0.1,0.6,0.2,0.8,0.4c0.2,0.2,0.4,0.5,0.4,0.8c0,0.1,0,0.2,0,0.3
		l-2.1,9.6c-0.1,0.4-0.3,0.8-0.6,1c-0.3,0.3-0.6,0.4-1.1,0.4h-8.9c-0.4,0-0.8-0.2-1.1-0.4l0,0c-0.3-0.3-0.5-0.6-0.6-1L15.1,8V7.9
		c-0.1-0.4,0.1-0.7,0.4-1c0.3-0.2,0.7-0.4,1-0.5C16.7,6.4,16.7,6.4,16.8,6.4z M28.8,6.4l-12,1.3h-0.1c-0.3,0-0.5,0.2-0.7,0.3
		s-0.3,0.3-0.2,0.5l0,0l1.8,7.6c0.1,0.3,0.2,0.5,0.4,0.7c0.2,0.1,0.4,0.2,0.6,0.2h8.3c0.3,0,0.5-0.1,0.6-0.2
		c0.2-0.2,0.3-0.4,0.4-0.7l2-8.9c0-0.1,0-0.1,0-0.2c0-0.2-0.1-0.3-0.2-0.4s-0.3-0.2-0.5-0.2C28.9,6.4,28.9,6.4,28.8,6.4z"/>
	<g id="_1849662416_1_">
		<path class="st0" d="M35.3,18.6l0.4-0.7L35,17.5l0.4-0.7L33.9,16L33,17.3l0,0c0.3,0.1,0.5,0.3,0.7,0.4l-0.4,0.7l0.7,0.4l-0.8,1.5
			l0.7,0.4c-0.2,0.5-0.6,1.1-0.9,1.5l0,0c0.2,0.1,0.4,0.2,0.5,0.3c0.3,0.1,0.2,0.1,0,0.5s-0.4,0.8-0.7,1.1l0.7,0.4
			c0,0.2-0.7,1.2-0.8,1.5l5.9,3.4l0.9-1.5l0.8,0.4l1.3-2.2l0.7,0.4l3-5.2c-0.1-0.1-0.7-0.4-0.7-0.5c0-0.2,0.4-0.6,0.4-0.7
			c-0.1-0.1-0.5-0.4-0.7-0.4L43,21.9l-0.7-0.4l1.7-3l-1.5-0.9l-1.3,2.2l-0.7-0.4l1.7-2.9c-0.1-0.1-1.3-0.8-1.5-0.9l-1.7,3l-0.7-0.4
			c0-0.1,0.1-0.1,0.1-0.2c1.2-2.1,2.5-4.3,3.7-6.5l-1.5-0.8L36,19.1C35.8,19,35.3,18.7,35.3,18.6L35.3,18.6z"/>
		<path class="st0" d="M33.1,22.3c-0.1,0.1-0.1,0.2-0.2,0.3l-0.7,1.1c0.1,0.1,0.2,0.1,0.4,0.2c0.1,0.1,0.2,0.1,0.3,0.2
			c-0.4,0.8-0.8,1.5-1.2,2.2c0.6,0.4,1.2,0.7,1.8,1.1l3.7,2.2c0.6,0.4,1.2,0.7,1.9,1.1c0.1-0.2,0.1-0.3,0.3-0.5
			c0.1-0.2,0.4-0.6,0.5-0.9c0.1-0.1,0.1-0.1,0.2-0.3c0.1-0.2,0.2-0.4,0.3-0.6c0.1,0.2,0.5,0.3,0.7,0.4c0.4-0.7,0.8-1.4,1.3-2.2
			c0.2,0.1,0.4,0.2,0.6,0.3c0.1,0.1,0.1,0.1,0.2,0c0.2-0.3,0.3-0.6,0.5-0.9c0.3-0.6,0.7-1.1,1-1.7l1.4-2.5c-0.2-0.1-0.6-0.3-0.7-0.4
			l-3,5.2l-0.7-0.4l-1.3,2.2L39.6,28l-0.9,1.5l-5.9-3.4c0.1-0.3,0.8-1.3,0.8-1.5L33,24.2c0.2-0.4,0.4-0.8,0.7-1.1
			c0.2-0.4,0.2-0.3,0-0.5C33.5,22.5,33.3,22.4,33.1,22.3z"/>
		<path class="st0" d="M35.4,16.7L35,17.4l0.7,0.4l-0.4,0.7L36,19l4.7-8.1L40,10.5l0,0l0,0l0,0l-3.8,6.6
			C35.8,17,35.6,16.9,35.4,16.7z"/>
		<path class="st0" d="M42.2,11.8l-3.9,6.6l0.7,0.4l1.7-3c0.2,0,1.4,0.8,1.5,0.9c0.2,0.2,1.6,0.9,1.9,1.1c0,0,0.1,0-0.1-0.1
			l-1.5-0.8c-0.4-0.2-0.3-0.1,0.1-0.9l-1.1-0.6c-0.1-0.1-0.2-0.1-0.3-0.2l1.7-2.9c-0.2-0.1-0.3-0.2-0.6-0.4
			C42.3,11.8,42.3,11.8,42.2,11.8z"/>
		<path class="st0" d="M44.1,18.8l0.4-0.7c-0.1-0.1-0.2-0.2-0.4-0.2c-0.3-0.2-1.7-0.9-1.9-1.1l-1.7,2.9l0.7,0.4l1.3-2.2L44.1,18.8z"
			/>
		<path class="st0" d="M33,17.4c-0.1,0.1-0.1,0.1-0.2,0.3c-0.1,0.1-0.1,0.3-0.2,0.4l0.7,0.4c-0.1,0.2-0.7,1.3-0.8,1.5l0.7,0.4
			l-0.6,1.1c-0.1,0.2-0.1,0.2-0.2,0.4l0.7,0.4c0.3-0.4,0.6-1,0.9-1.5l-0.7-0.4l0.8-1.5l-0.7-0.4l0.4-0.7
			C33.5,17.6,33.3,17.5,33,17.4z"/>
		<path class="st0" d="M33,17.3l0.9-1.5l1.5,0.8l0.2-0.4c0.1-0.1,0.1-0.2,0.2-0.4l-2-1.1c-0.3-0.2-0.2-0.2-0.5,0.2l-0.9,1.6
			c-0.1,0.2-0.2,0.2,0,0.3C32.5,17.1,32.9,17.3,33,17.3z"/>
		<path class="st0" d="M45.1,20.4c0.1,0,0,0,0.1-0.1l0.1-0.1c0-0.2,0.2-0.4,0.3-0.6l-1.5-0.8l-1.7,3l0.7,0.4l1.3-2.2
			C44.5,20,44.9,20.3,45.1,20.4z"/>
		<path class="st0" d="M42.2,11.7c0.1-0.2,0.3-0.5,0.4-0.7l-1.5-0.8l-0.4,0.7L42.2,11.7z"/>
		<path class="st0" d="M45.1,20.4c0,0.2-0.4,0.6-0.4,0.7s0.6,0.4,0.7,0.5c0.2,0.1,0.5,0.3,0.7,0.4l-1.4,2.5l1.5-2.5l-0.7-0.4
			c0.1-0.1,0.1-0.2,0.2-0.4c0.1-0.1,0.1-0.3,0.2-0.4c-0.8-0.5-0.8-0.3-0.6-0.6l-0.1,0.1C45.1,20.4,45.2,20.4,45.1,20.4z"/>
	</g>
	<path class="st0" d="M69.8,18.6h-2.5l2.1-7.2l-4.3,7.2h-2.6L62,11.3l-1.8,7.3h-2.6l2.9-10.9H64l0.5,7.7l4.6-7.7h3.5L69.8,18.6z
		 M79.2,18.6h-5.6c-0.8,0-1.3-0.2-1.7-0.6c-0.4-0.4-0.4-1-0.2-1.8c0.3-0.9,0.7-1.6,1.3-2c0.6-0.4,1.5-0.6,2.6-0.6h2.5
		c0.1-0.4,0.1-0.7-0.1-0.8c-0.2-0.2-0.6-0.2-1.3-0.2h-3.6l0.5-2h4.3c1.1,0,1.9,0.3,2.3,0.8s0.5,1.3,0.2,2.3L79.2,18.6z M77.3,16.7
		l0.3-1.2h-2.2c-0.4,0-0.7,0-0.9,0.1c-0.2,0.1-0.3,0.3-0.3,0.5c-0.1,0.2-0.1,0.3,0,0.4c0,0,0.1,0.1,0.2,0.1s0.3,0,0.5,0L77.3,16.7
		L77.3,16.7z M88.1,18.6h-2.4l1.3-4.9c0.1-0.5,0.2-0.8,0-1c-0.1-0.1-0.4-0.2-0.9-0.2h-1.4L83,18.6h-2.4l2.2-8.1h4
		c1.2,0,2,0.2,2.4,0.7s0.5,1.2,0.2,2.3L88.1,18.6z M96.8,18.6h-2.4l1.3-4.9c0.1-0.5,0.1-0.8,0-0.9c-0.1-0.1-0.2-0.1-0.3-0.2
		c-0.1,0-0.3-0.1-0.6-0.1h-1.4l-1.6,6.1h-2.4l2.9-10.9h2.4L94,10.5h1.6c1.2,0,2,0.2,2.4,0.7s0.5,1.2,0.2,2.3L96.8,18.6z M106,18.6
		h-5.6c-0.8,0-1.4-0.2-1.7-0.6c-0.4-0.4-0.4-1-0.2-1.8c0.3-0.9,0.7-1.6,1.3-2c0.6-0.4,1.5-0.6,2.6-0.6h2.5c0.1-0.4,0.1-0.7-0.1-0.8
		c-0.2-0.2-0.6-0.2-1.3-0.2H100l0.5-2h4.3c1.1,0,1.9,0.3,2.3,0.8s0.5,1.3,0.2,2.3L106,18.6z M104.1,16.7l0.3-1.2h-2.2
		c-0.4,0-0.7,0-0.9,0.1c-0.2,0.1-0.3,0.3-0.3,0.5c-0.1,0.2,0,0.3,0,0.4c0,0,0.1,0.1,0.2,0.1s0.3,0,0.5,0L104.1,16.7L104.1,16.7z
		 M109.9,18.6h-2.5l2.9-10.9h2.5L109.9,18.6z M115.5,18.6h-2.1l0.6-2.2h2.1L115.5,18.6z M123.3,18.6h-2.9c-0.4,0-0.7,0-1-0.1
		c-0.3,0-0.5-0.1-0.8-0.2c-0.4-0.1-0.8-0.4-1-0.8c-0.1-0.2-0.2-0.4-0.3-0.6c-0.1-0.2-0.2-0.5-0.2-0.7c0-0.3,0-0.5,0-0.8
		s0.1-0.6,0.2-0.9c0.2-0.6,0.4-1.2,0.8-1.7c0.3-0.5,0.7-1,1.3-1.4c0.4-0.3,0.9-0.6,1.4-0.7c0.5-0.2,1.1-0.2,1.9-0.2h2.9l-0.5,2h-2.3
		c-0.5,0-0.9,0-1.2,0.1c-0.3,0.1-0.6,0.2-0.8,0.4c-0.4,0.3-0.7,0.8-0.9,1.6c-0.1,0.4-0.1,0.8-0.1,1.1c0.1,0.3,0.1,0.6,0.4,0.7
		l0.4,0.2c0.1,0,0.3,0,0.4,0s0.4,0,0.6,0h2.3L123.3,18.6z M133.4,14.5c-0.3,1.3-1,2.3-2,3.1c-1,0.8-2.1,1.1-3.4,1.1
		c-1.3,0-2.2-0.4-2.8-1.1c-0.6-0.8-0.7-1.8-0.3-3.1c0.3-1.3,1-2.3,2-3c1-0.8,2.1-1.1,3.4-1.1s2.2,0.4,2.8,1.1
		C133.6,12.2,133.7,13.2,133.4,14.5z M130.9,14.5c0.2-0.7,0.1-1.2-0.1-1.6c-0.2-0.4-0.6-0.6-1.1-0.6s-1,0.2-1.4,0.6
		c-0.4,0.4-0.7,0.9-0.9,1.6c-0.1,0.4-0.1,0.7-0.1,0.9c0,0.3,0.1,0.5,0.2,0.7c0.2,0.4,0.6,0.6,1.1,0.6c0.6,0,1-0.2,1.4-0.6
		C130.4,15.7,130.7,15.2,130.9,14.5z M144.5,18.6h-2.4l1.3-4.9c0.1-0.5,0.2-0.8,0.1-1c-0.1-0.2-0.4-0.2-0.9-0.2h-0.9l-1.6,6.1h-2.4
		l1.6-6.1h-2l-1.6,6.1h-2.4l2.2-8.1h8c1.2,0,2,0.2,2.4,0.7s0.5,1.2,0.2,2.3L144.5,18.6z"/>
	<path class="st0" d="M2.7,10.5l21.2-2.2c0.2,0,0.5,0,0.7,0c0.5,0.1,1,0.3,1.4,0.7c0.4,0.3,0.6,0.8,0.7,1.3c0,0.2,0,0.4,0,0.6
		L23,20.5c-0.1,0.7-0.5,1.3-1,1.7c-0.5,0.4-1.1,0.7-1.8,0.7H5.7c-0.7,0-1.3-0.3-1.8-0.7l0,0c-0.5-0.4-0.8-1.1-1-1.7L0,13
		c0-0.1,0-0.1,0-0.2c-0.1-0.6,0.2-1.2,0.7-1.6c0.5-0.4,1.1-0.6,1.7-0.8C2.6,10.5,2.7,10.5,2.7,10.5z M22.5,10.4L2.7,12.5
		c-0.1,0-0.2,0-0.2,0c-0.4,0.1-0.9,0.3-1.2,0.5s-0.4,0.5-0.4,0.8v0.1l2.7,6.5c0.1,0.5,0.3,0.9,0.7,1.2C4.6,21.8,5,22,5.4,22H19
		c0.4,0,0.8-0.1,1-0.4c0.3-0.3,0.5-0.7,0.7-1.2l3.4-8.6c0-0.1,0-0.2,0-0.3c0-0.3-0.2-0.5-0.4-0.7c-0.2-0.2-0.5-0.4-0.8-0.4
		C22.8,10.4,22.6,10.4,22.5,10.4z"/>
	<path class="st0" d="M62.4,4.2L62,5.9h-0.6l1.2-4.5h1.3c0.3,0,0.5,0,0.7,0.1s0.3,0.2,0.4,0.3s0.2,0.3,0.2,0.4c0,0.2,0,0.4-0.1,0.6
		c0.1,0.2,0,0.4-0.1,0.6s-0.3,0.3-0.4,0.4C64.4,3.9,64.2,4,64,4.1c-0.2,0.1-0.5,0.1-0.7,0.1H62.4z M62.6,3.7h0.7
		c0.2,0,0.3,0,0.5-0.1c0.1,0,0.3-0.1,0.4-0.2c0.1-0.1,0.2-0.2,0.3-0.3c0.1-0.1,0.1-0.2,0.2-0.4c0.1-0.3,0.1-0.5-0.1-0.7
		c-0.1-0.2-0.4-0.2-0.7-0.2h-0.7L62.6,3.7z"/>
	<path id="_x31__1_" class="st0" d="M67.1,2.7c0.2,0,0.4,0,0.6,0.1C67.9,2.9,68,3,68.1,3.1s0.1,0.3,0.2,0.5c0,0.2,0,0.4-0.1,0.7
		C68.1,4.6,68,4.8,67.9,5s-0.3,0.4-0.4,0.5c-0.2,0.1-0.4,0.3-0.6,0.3c-0.2,0.1-0.4,0.1-0.7,0.1c-0.2,0-0.4,0-0.6-0.1
		s-0.3-0.2-0.4-0.3C65.1,5.4,65.1,5.2,65,5c0-0.2,0-0.4,0.1-0.7c0.1-0.3,0.2-0.5,0.3-0.7c0.1-0.2,0.3-0.4,0.4-0.5
		C66,3,66.2,2.8,66.4,2.8C66.7,2.7,66.9,2.7,67.1,2.7z M66.4,5.5c0.3,0,0.6-0.1,0.8-0.3c0.2-0.2,0.4-0.5,0.5-0.9s0.1-0.7,0-0.9
		s-0.3-0.3-0.6-0.3c-0.2,0-0.3,0-0.4,0.1s-0.3,0.1-0.4,0.2c-0.1,0.1-0.2,0.2-0.3,0.4c-0.1,0.1-0.1,0.3-0.2,0.5
		c0,0.2-0.1,0.4-0.1,0.5s0,0.3,0.1,0.4s0.1,0.2,0.2,0.2C66.1,5.5,66.2,5.5,66.4,5.5z"/>
	<path id="_x32__1_" class="st0" d="M68.9,2.7h0.4h0.1c0,0,0,0,0,0.1l0.1,2c0,0.1,0,0.1,0,0.2s0,0.1,0,0.2c0-0.1,0.1-0.1,0.1-0.2
		s0.1-0.1,0.1-0.2l1.3-2c0,0,0-0.1,0.1-0.1h0.1h0.2h0.1c0,0,0,0,0,0.1l0.1,2.1c0,0.1,0,0.1,0,0.2s0,0.1,0,0.2c0-0.1,0.1-0.1,0.1-0.2
		s0.1-0.1,0.1-0.2l1.2-2c0,0,0-0.1,0.1-0.1h0.1h0.4L71.7,6h-0.4c-0.1,0-0.1,0-0.1-0.1l-0.1-2.2V3.6c0-0.1,0-0.1,0-0.1s0,0.1-0.1,0.1
		l-0.1,0.1l-1.3,2.2C69.6,6,69.5,6,69.4,6H69L68.9,2.7z"/>
	<path id="_x33__1_" class="st0" d="M75.4,2.7c0.2,0,0.4,0,0.5,0.1c0.1,0,0.3,0.1,0.3,0.2c0.1,0.1,0.1,0.3,0.2,0.4
		c0,0.2,0,0.4-0.1,0.6c0,0.1-0.1,0.1-0.1,0.2h-0.1H74c0,0.3,0,0.5,0,0.6s0,0.3,0.1,0.4s0.1,0.2,0.3,0.2c0.1,0,0.2,0.1,0.4,0.1
		c0.1,0,0.3,0,0.4,0s0.2-0.1,0.3-0.1c0.1,0,0.2-0.1,0.2-0.1c0.1,0,0.1-0.1,0.1-0.1s0.1,0,0.1,0.1L76,5.5c-0.1,0.1-0.2,0.2-0.3,0.2
		c-0.1,0.1-0.2,0.1-0.4,0.2c-0.1,0-0.2,0.1-0.4,0.1c-0.1,0-0.2,0-0.4,0c-0.2,0-0.4,0-0.6-0.1s-0.3-0.2-0.4-0.3
		c-0.1-0.1-0.2-0.3-0.2-0.5s0-0.5,0.1-0.7s0.1-0.4,0.3-0.6c0.1-0.2,0.3-0.4,0.4-0.5C74.3,3.2,74.5,3,74.7,3
		C74.9,2.7,75.2,2.7,75.4,2.7z M75.3,3.1c-0.3,0-0.5,0.1-0.7,0.2c-0.2,0.2-0.4,0.4-0.5,0.6h1.7c0-0.1,0.1-0.3,0-0.4
		c0-0.1,0-0.2-0.1-0.3c0-0.1-0.1-0.1-0.2-0.2C75.5,3.1,75.4,3.1,75.3,3.1z"/>
	<path id="_x34__1_" class="st0" d="M76.6,5.9l0.9-3.2h0.3c0.1,0,0.1,0,0.1,0v0.1l-0.1,0.5c0.2-0.2,0.4-0.4,0.5-0.5
		c0.2-0.1,0.4-0.2,0.6-0.2c0.1,0,0.2,0,0.2,0c0.1,0,0.1,0,0.2,0.1l-0.2,0.4c0,0.1-0.1,0.1-0.1,0.1h-0.1c-0.1,0-0.1,0-0.2,0
		c-0.2,0-0.4,0.1-0.5,0.2c-0.2,0.1-0.3,0.3-0.5,0.5l-0.5,2C77.2,5.9,76.6,5.9,76.6,5.9z"/>
	<path id="_x35__1_" class="st0" d="M81.2,2.7c0.2,0,0.4,0,0.5,0.1c0.2,0,0.3,0.1,0.4,0.2s0.1,0.3,0.2,0.4c0,0.2,0,0.4-0.1,0.6
		c0,0.1,0,0.1-0.1,0.2H82h-2.1c-0.1,0.2-0.1,0.4-0.1,0.5s0,0.3,0.1,0.4s0.1,0.2,0.3,0.2c0.1,0,0.2,0.1,0.4,0.1c0.1,0,0.3,0,0.4,0
		s0.2-0.1,0.3-0.1c0.1,0,0.2-0.1,0.2-0.1c0.1,0,0.1-0.1,0.1-0.1s0.1,0,0.1,0.1l0.1,0.2c-0.1,0.1-0.2,0.2-0.3,0.2
		c-0.1,0.1-0.2,0.1-0.3,0.2c-0.1,0-0.2,0.1-0.4,0.1c-0.1,0-0.2,0-0.4,0c-0.2,0-0.4,0-0.6-0.1s-0.3-0.2-0.4-0.3
		c-0.1-0.1-0.2-0.3-0.2-0.5s0-0.5,0.1-0.7s0.2-0.4,0.3-0.6c0.1-0.2,0.3-0.4,0.4-0.5c0.2-0.1,0.4-0.3,0.6-0.3
		C80.8,2.7,81,2.7,81.2,2.7z M81.1,3.1c-0.3,0-0.5,0.1-0.7,0.2C80.2,3.5,80.1,3.7,80,4h1.7c0-0.1,0-0.3,0-0.4c0-0.1,0-0.2-0.1-0.3
		c0-0.1-0.1-0.1-0.2-0.2C81.3,3.1,81.2,3.1,81.1,3.1z"/>
	<path id="_x36__1_" class="st0" d="M84.6,5.9C84.5,5.9,84.5,5.9,84.6,5.9V5.4c-0.2,0.2-0.4,0.3-0.6,0.4s-0.4,0.1-0.6,0.1
		s-0.3,0-0.5-0.1c-0.1-0.1-0.2-0.2-0.3-0.3c-0.1-0.1-0.1-0.3-0.1-0.5s0-0.4,0.1-0.7c0.1-0.2,0.2-0.5,0.3-0.7
		c0.1-0.2,0.3-0.4,0.4-0.5c0.2-0.2,0.3-0.3,0.5-0.4c0.2-0.1,0.4-0.1,0.6-0.1s0.4,0,0.5,0.1s0.2,0.2,0.3,0.3l0.5-1.8h0.6l-1.2,4.6
		L84.6,5.9L84.6,5.9z M83.6,5.5c0.2,0,0.4,0,0.5-0.1c0.2-0.1,0.3-0.2,0.5-0.4L85,3.5c-0.1-0.1-0.2-0.2-0.3-0.3
		c-0.1-0.1-0.2-0.1-0.4-0.1c-0.3,0-0.6,0.1-0.8,0.3c-0.2,0.2-0.4,0.5-0.5,0.9c-0.1,0.2-0.1,0.4-0.1,0.5s0,0.3,0.1,0.4
		c0,0.1,0.1,0.2,0.2,0.2C83.4,5.5,83.5,5.5,83.6,5.5z"/>
	<path id="_x37__1_" class="st0" d="M87.1,5.9l1.2-4.6h0.6l-0.5,1.9C88.6,3,88.8,2.9,89,2.8c0.2-0.1,0.4-0.1,0.6-0.1s0.3,0,0.5,0.1
		c0.1,0.1,0.2,0.2,0.3,0.3c0.1,0.1,0.1,0.3,0.1,0.5s0,0.4-0.1,0.7c-0.1,0.2-0.2,0.5-0.3,0.7c-0.1,0.2-0.3,0.4-0.4,0.5
		c-0.2,0.1-0.3,0.3-0.5,0.3c-0.2,0.1-0.4,0.1-0.6,0.1s-0.4,0-0.5-0.1s-0.2-0.2-0.3-0.3l-0.1,0.3c0,0.1-0.1,0.1-0.2,0.1
		C87.5,5.9,87.1,5.9,87.1,5.9z M89.3,3.1c-0.2,0-0.4,0-0.5,0.1c-0.2,0.1-0.3,0.2-0.5,0.4l-0.4,1.5C88,5.2,88,5.3,88.2,5.4
		c0.1,0.1,0.2,0.1,0.4,0.1c0.3,0,0.6-0.1,0.8-0.3c0.2-0.2,0.4-0.5,0.5-0.9C90,4.1,90,3.9,90,3.8s0-0.3-0.1-0.4
		c0-0.1-0.1-0.2-0.2-0.2C89.5,3.1,89.4,3.1,89.3,3.1z"/>
	<path id="_x38__1_" class="st0" d="M91.2,6.8L91.2,6.8L91,6.9h-0.4l0.9-1.2l-0.5-3h0.5h0.1c0,0,0,0,0,0.1l0.3,2v0.1V5
		c0,0.1,0.1,0,0.1,0l0.1-0.1l1.4-2l0.1-0.1h0.1h0.4L91.2,6.8z"/>
	<path id="_x39__1_" class="st0" d="M93.8,5.5c0-0.1,0-0.1,0.1-0.2c0-0.1,0.1-0.1,0.1-0.1l0.1-0.1c0.1,0,0.1,0,0.2,0s0.1,0,0.1,0
		s0.1,0,0.1,0.1c0,0,0,0.1,0.1,0.1c0,0,0,0.1,0,0.2s0,0.1-0.1,0.2l-0.1,0.1l-0.1,0.1c-0.1,0-0.1,0-0.2,0s-0.1,0-0.1,0
		s-0.1,0-0.1-0.1V5.7C93.8,5.7,93.8,5.6,93.8,5.5z M94.4,3.2c0-0.1,0-0.1,0.1-0.2l0.1-0.1l0.1-0.1c0.1,0,0.1,0,0.2,0s0.1,0,0.1,0
		s0.1,0,0.1,0.1c0,0,0,0.1,0.1,0.1c0,0,0,0.1,0,0.2c0,0.1,0,0.1-0.1,0.2L95,3.5l-0.1,0.1c-0.1,0-0.1,0-0.2,0s-0.1,0-0.1,0
		s-0.1,0-0.1-0.1V3.4C94.4,3.3,94.4,3.3,94.4,3.2z"/>
	<path class="st0" d="M100.9,21l-0.1,0.5h-2.3L98,23.1h1.8l-0.1,0.5h-1.8l-0.4,1.6h2.3l-0.1,0.5h-2.9l1.3-4.8L100.9,21L100.9,21z
		 M100.9,23.5h1.6l-0.1,0.5h-1.6L100.9,23.5z M103.6,25.2h2.1l-0.1,0.5h-2.7l1.3-4.8h0.6L103.6,25.2z M108.3,22.3
		c0.2,0,0.4,0,0.5,0.1c0.2,0.1,0.3,0.2,0.4,0.3c0.1,0.1,0.1,0.3,0.2,0.5c0,0.2,0,0.4-0.1,0.6c0,0.1-0.1,0.2-0.1,0.2h-0.1h-2.2
		c-0.1,0.2-0.1,0.4-0.1,0.6s0,0.3,0.1,0.4s0.2,0.2,0.3,0.2c0.1,0.1,0.3,0.1,0.4,0.1s0.3,0,0.4-0.1c0.1,0,0.2-0.1,0.3-0.1
		c0.1,0,0.2-0.1,0.2-0.1c0.1,0,0.1-0.1,0.1-0.1s0.1,0,0.1,0.1l0.1,0.2c-0.1,0.1-0.2,0.2-0.3,0.2c-0.1,0.1-0.2,0.1-0.4,0.2
		c-0.1,0-0.3,0.1-0.4,0.1s-0.3,0-0.4,0c-0.2,0-0.4,0-0.6-0.1s-0.3-0.2-0.4-0.3c-0.1-0.2-0.2-0.3-0.2-0.6c0-0.2,0-0.5,0.1-0.8
		c0.1-0.2,0.2-0.5,0.3-0.7c0.1-0.2,0.3-0.4,0.5-0.5s0.4-0.3,0.6-0.4C107.8,22.4,108,22.3,108.3,22.3z M108.2,22.8
		c-0.3,0-0.5,0.1-0.7,0.2c-0.2,0.2-0.4,0.4-0.5,0.7h1.8c0-0.1,0.1-0.3,0-0.4c0-0.1,0-0.2-0.1-0.3c-0.1-0.1-0.1-0.1-0.2-0.2
		C108.4,22.8,108.3,22.8,108.2,22.8z M112,25.7h-0.3c-0.1,0-0.1,0-0.1,0v-0.1v-0.3c-0.1,0.1-0.2,0.2-0.3,0.2
		c-0.1,0.1-0.2,0.1-0.3,0.2c-0.1,0-0.2,0.1-0.3,0.1c-0.1,0-0.2,0-0.4,0c-0.1,0-0.2,0-0.4-0.1c-0.1,0-0.2-0.1-0.3-0.2
		c-0.1-0.1-0.1-0.2-0.1-0.3c0-0.1,0-0.2,0-0.4c0-0.1,0.1-0.3,0.2-0.4s0.3-0.2,0.4-0.3c0.2-0.1,0.4-0.2,0.7-0.2
		c0.3-0.1,0.6-0.1,1-0.1l0.1-0.3c0.1-0.3,0.1-0.5,0-0.6s-0.2-0.2-0.4-0.2c-0.1,0-0.3,0-0.4,0.1c-0.1,0-0.2,0.1-0.3,0.1
		c-0.1,0-0.2,0.1-0.2,0.1c-0.1,0-0.1,0.1-0.2,0.1h-0.1c0,0,0,0-0.1-0.1l-0.1-0.2c0.2-0.2,0.5-0.3,0.7-0.4s0.5-0.1,0.8-0.1
		c0.2,0,0.3,0,0.5,0.1c0.1,0.1,0.2,0.1,0.3,0.3c0.1,0.1,0.1,0.2,0.1,0.4c0,0.2,0,0.3-0.1,0.5L112,25.7z M110.5,25.4
		c0.1,0,0.2,0,0.3,0c0.1,0,0.2-0.1,0.3-0.1c0.1,0,0.2-0.1,0.3-0.1c0.1-0.1,0.2-0.1,0.3-0.2l0.2-0.7c-0.3,0-0.5,0-0.7,0.1
		c-0.2,0-0.4,0.1-0.5,0.1c-0.1,0.1-0.2,0.1-0.3,0.2c-0.1,0.1-0.1,0.2-0.1,0.3c0,0.1,0,0.2,0,0.2C110.3,25.3,110.3,25.3,110.5,25.4
		v0.1C110.4,25.4,110.4,25.4,110.5,25.4z M112.9,25.7l0.9-3.4h0.3c0.1,0,0.1,0,0.1,0v0.1l-0.1,0.6c0.2-0.2,0.4-0.4,0.6-0.6
		c0.2-0.1,0.4-0.2,0.6-0.2c0.1,0,0.2,0,0.2,0c0.1,0,0.1,0.1,0.2,0.1l-0.2,0.4c0,0.1-0.1,0.1-0.1,0.1h-0.1c-0.1,0-0.1,0-0.3,0
		c-0.2,0-0.4,0.1-0.6,0.2s-0.3,0.3-0.5,0.5l-0.6,2.1L112.9,25.7L112.9,25.7z M115.5,25.7l0.9-3.4h0.4c0.1,0,0.1,0,0.1,0.1l-0.1,0.4
		c0.2-0.2,0.4-0.3,0.6-0.4s0.4-0.2,0.7-0.2c0.2,0,0.3,0,0.5,0.1c0.1,0.1,0.2,0.1,0.3,0.3c0.1,0.1,0.1,0.2,0.1,0.4
		c0,0.2,0,0.3-0.1,0.5l-0.6,2.1h-0.6l0.6-2.1c0.1-0.3,0.1-0.5,0-0.6s-0.2-0.2-0.5-0.2c-0.2,0-0.3,0-0.5,0.1s-0.3,0.2-0.5,0.3
		l-0.7,2.5h-0.6C115.5,25.6,115.5,25.7,115.5,25.7z M120.8,22.4l-0.9,3.4h-0.6l0.9-3.4H120.8z M121.2,21.3c0,0.1,0,0.1-0.1,0.2
		l-0.1,0.1c0,0-0.1,0.1-0.2,0.1s-0.1,0-0.2,0s-0.1,0-0.2,0l-0.1-0.1c0,0,0-0.1-0.1-0.1c0,0,0-0.1,0-0.2s0-0.1,0.1-0.2
		c0-0.1,0.1-0.1,0.1-0.1s0.1-0.1,0.2-0.1s0.1,0,0.2,0s0.1,0,0.2,0l0.1,0.1c0,0,0,0.1,0.1,0.1C121.2,21.2,121.2,21.3,121.2,21.3z
		 M120.9,25.7l0.9-3.4h0.4c0.1,0,0.1,0,0.1,0.1l-0.1,0.4c0.2-0.2,0.4-0.3,0.6-0.4s0.4-0.2,0.7-0.2c0.2,0,0.3,0,0.5,0.1
		c0.1,0.1,0.2,0.1,0.3,0.3c0.1,0.1,0.1,0.2,0.1,0.4c0,0.2,0,0.3-0.1,0.5l-0.6,2.1h-0.6l0.6-2.1c0.1-0.3,0.1-0.5,0-0.6
		s-0.2-0.2-0.5-0.2c-0.2,0-0.3,0-0.5,0.1s-0.3,0.2-0.5,0.3l-0.7,2.5h-0.6C120.9,25.6,120.9,25.7,120.9,25.7z M126.7,22.3
		c0.1,0,0.3,0,0.4,0s0.2,0.1,0.3,0.1h0.9l-0.1,0.2c0,0.1-0.1,0.1-0.2,0.1l-0.4,0.1c0,0.1,0,0.3,0,0.5s-0.1,0.3-0.2,0.4
		s-0.2,0.2-0.4,0.3c-0.1,0.1-0.3,0.2-0.5,0.2s-0.3,0.1-0.5,0.1s-0.3,0-0.4-0.1c-0.1,0-0.1,0.1-0.2,0.1c-0.1,0.1-0.1,0.1-0.1,0.2
		s0,0.1,0,0.2c0.1,0,0.1,0.1,0.2,0.1s0.2,0,0.4,0c0.1,0,0.3,0,0.4,0s0.3,0,0.4,0s0.2,0.1,0.3,0.1c0.1,0.1,0.2,0.1,0.2,0.2
		s0,0.2,0,0.4c0,0.1-0.1,0.3-0.2,0.4s-0.2,0.3-0.4,0.4c-0.2,0.1-0.3,0.2-0.6,0.3c-0.2,0.1-0.4,0.1-0.7,0.1c-0.2,0-0.5,0-0.6-0.1
		c-0.2,0-0.3-0.1-0.4-0.2s-0.2-0.2-0.2-0.3c0-0.1,0-0.2,0-0.3c0-0.2,0.1-0.3,0.3-0.4c0.1-0.1,0.3-0.2,0.5-0.3
		c-0.1,0-0.1-0.1-0.2-0.2c0-0.1,0-0.2,0-0.3c0,0,0-0.1,0.1-0.2c0-0.1,0.1-0.1,0.1-0.2c0.1-0.1,0.1-0.1,0.2-0.1s0.1-0.1,0.2-0.1
		c-0.1-0.1-0.2-0.2-0.3-0.4c-0.1-0.2-0.1-0.3,0-0.5c0-0.2,0.1-0.3,0.2-0.4s0.2-0.3,0.4-0.3c0.1-0.1,0.3-0.2,0.5-0.2
		C126.3,22.3,126.5,22.3,126.7,22.3z M126.8,25.9c0-0.1,0-0.2,0-0.2c0-0.1-0.1-0.1-0.2-0.1s-0.2,0-0.3-0.1c-0.1,0-0.2,0-0.3,0
		c-0.1,0-0.2,0-0.4,0c-0.1,0-0.2,0-0.3,0c-0.1,0.1-0.3,0.1-0.4,0.2s-0.2,0.2-0.2,0.3c0,0.1,0,0.1,0,0.2s0.1,0.1,0.1,0.2
		c0.1,0,0.2,0.1,0.3,0.1c0.1,0,0.3,0,0.4,0c0.2,0,0.3,0,0.4,0s0.3-0.1,0.4-0.1c0.1-0.1,0.2-0.1,0.3-0.2
		C126.7,26.1,126.7,26,126.8,25.9z M126.2,24.1c0.1,0,0.2,0,0.3,0c0.1,0,0.2-0.1,0.3-0.1c0.1-0.1,0.1-0.1,0.2-0.2s0.1-0.2,0.1-0.3
		c0.1-0.2,0-0.4-0.1-0.5s-0.3-0.2-0.5-0.2s-0.4,0.1-0.6,0.2s-0.3,0.3-0.3,0.5c0,0.1,0,0.2,0,0.3c0,0.1,0,0.2,0.1,0.2
		c0,0.1,0.1,0.1,0.2,0.1C126,24.1,126.1,24.1,126.2,24.1z M133.9,21l-0.1,0.5h-1.5l-1.1,4.2h-0.6l1.1-4.2H130l0.1-0.5H133.9z
		 M134.8,22.3c0.2,0,0.4,0,0.5,0.1c0.2,0.1,0.3,0.2,0.4,0.3c0.1,0.1,0.1,0.3,0.2,0.5c0,0.2,0,0.4-0.1,0.6c0,0.1-0.1,0.2-0.1,0.2
		h-0.1h-2.2c-0.1,0.2-0.1,0.4-0.1,0.6s0,0.3,0.1,0.4s0.2,0.2,0.3,0.2c0.1,0.1,0.2,0.1,0.4,0.1c0.1,0,0.3,0,0.4-0.1
		c0.1,0,0.2-0.1,0.3-0.1S135,25,135,25c0.1,0,0.1-0.1,0.1-0.1s0.1,0,0.1,0.1l0.1,0.2c-0.1,0.1-0.2,0.2-0.3,0.2
		c-0.1,0.1-0.2,0.1-0.4,0.2c-0.1,0-0.3,0.1-0.4,0.1c-0.1,0-0.3,0-0.4,0c-0.2,0-0.4,0-0.6-0.1c-0.2-0.1-0.3-0.2-0.4-0.3
		c-0.1-0.2-0.2-0.3-0.2-0.6c0-0.2,0-0.5,0.1-0.8c0.1-0.2,0.2-0.5,0.3-0.7s0.3-0.4,0.5-0.5s0.4-0.3,0.6-0.4
		C134.3,22.4,134.5,22.3,134.8,22.3z M134.7,22.8c-0.3,0-0.5,0.1-0.7,0.2c-0.2,0.2-0.4,0.4-0.5,0.7h1.8c0-0.1,0.1-0.3,0-0.4
		c0-0.1,0-0.2-0.1-0.3c-0.1-0.1-0.1-0.1-0.2-0.2C134.9,22.8,134.8,22.8,134.7,22.8z M138.5,25.7h-0.3c-0.1,0-0.1,0-0.1,0v-0.1v-0.3
		c-0.1,0.1-0.2,0.2-0.3,0.2c-0.1,0.1-0.2,0.1-0.3,0.2c-0.1,0-0.2,0.1-0.3,0.1s-0.2,0-0.4,0c-0.1,0-0.2,0-0.4-0.1
		c-0.1,0-0.2-0.1-0.3-0.2s-0.1-0.2-0.1-0.3c0-0.1,0-0.2,0-0.4c0-0.1,0.1-0.3,0.2-0.4c0.1-0.1,0.3-0.2,0.4-0.3
		c0.2-0.1,0.4-0.2,0.7-0.2c0.3-0.1,0.6-0.1,1-0.1l0.1-0.3c0.1-0.3,0.1-0.5,0-0.6s-0.2-0.2-0.4-0.2c-0.1,0-0.3,0-0.4,0.1
		c-0.1,0-0.2,0.1-0.3,0.1s-0.2,0.1-0.2,0.1c-0.1,0-0.1,0.1-0.2,0.1h-0.1c0,0,0,0-0.1-0.1l-0.1-0.2c0.2-0.2,0.5-0.3,0.7-0.4
		s0.5-0.1,0.7-0.1s0.3,0,0.5,0.1c0.1,0.1,0.2,0.1,0.3,0.3c0.1,0.1,0.1,0.2,0.1,0.4c0,0.2,0,0.3-0.1,0.5L138.5,25.7z M137,25.4
		c0.1,0,0.2,0,0.3,0s0.2-0.1,0.3-0.1s0.2-0.1,0.3-0.1c0.1-0.1,0.2-0.1,0.3-0.2l0.2-0.7c-0.3,0-0.5,0-0.7,0.1c-0.2,0-0.4,0.1-0.5,0.1
		c-0.1,0.1-0.2,0.1-0.3,0.2s-0.1,0.2-0.2,0.3c0,0.1,0,0.2,0,0.2c0,0.1,0,0.1,0.1,0.2l0.1,0.1C136.9,25.4,136.9,25.4,137,25.4z
		 M139.4,25.7l0.9-3.4h0.3c0.1,0,0.1,0,0.1,0.1v0.3c0.2-0.2,0.3-0.3,0.5-0.4s0.4-0.1,0.6-0.1c0.2,0,0.4,0.1,0.5,0.2s0.2,0.3,0.2,0.5
		c0.1-0.1,0.2-0.2,0.3-0.3c0.1-0.1,0.2-0.2,0.3-0.2c0.1-0.1,0.2-0.1,0.3-0.1s0.2,0,0.3,0c0.2,0,0.3,0,0.5,0.1
		c0.1,0.1,0.2,0.1,0.3,0.2s0.1,0.2,0.1,0.4c0,0.2,0,0.3-0.1,0.5l-0.6,2.1h-0.6l0.6-2.1c0.1-0.3,0.1-0.5,0-0.6s-0.2-0.2-0.4-0.2
		c-0.1,0-0.2,0-0.3,0.1c-0.1,0-0.2,0.1-0.3,0.2s-0.2,0.2-0.2,0.3c-0.1,0.1-0.1,0.2-0.2,0.4l-0.6,2.1h-0.6l0.6-2.1
		c0.1-0.3,0.1-0.5,0-0.6s-0.2-0.2-0.4-0.2c-0.1,0-0.3,0-0.4,0.1c-0.1,0.1-0.3,0.2-0.4,0.3l-0.7,2.5L139.4,25.7L139.4,25.7z"/>
</g>
</svg>
