<?xml version="1.0" encoding="utf-8"?>
<!-- Generator: Adobe Illustrator 16.0.0, SVG Export Plug-In . SVG Version: 6.00 Build 0)  -->
<!DOCTYPE svg PUBLIC "-//W3C//DTD SVG 1.1//EN" "http://www.w3.org/Graphics/SVG/1.1/DTD/svg11.dtd">
<svg version="1.1" id="Layer_1" xmlns="http://www.w3.org/2000/svg" xmlns:xlink="http://www.w3.org/1999/xlink" x="0px" y="0px"
	 width="48px" height="48px" viewBox="0 0 48 48" enable-background="new 0 0 48 48" xml:space="preserve">
<g>
	<path fill="#218189" d="M1,42.75c0,1.657,1.343,3,3,3h39.834c1.657,0,3-1.343,3-3V5.303c0-1.657-1.343-3-3-3H4
		c-1.657,0-3,1.343-3,3V42.75z"/>
</g>
<g>
	<g>
		<path fill="#FFFFFF" d="M20.08,6.096H7.403c-0.365,0-0.66,0.295-0.66,0.66v20.146c0,0.364,0.295,0.66,0.66,0.66H20.08
			c0.364,0,0.659-0.296,0.659-0.66V6.756C20.739,6.391,20.444,6.096,20.08,6.096z M19.419,26.242H8.063V7.416h11.356V26.242
			L19.419,26.242z"/>
	</g>
</g>
<g>
	<g>
		<path fill="#FFFFFF" d="M20.08,28.808H7.403c-0.365,0-0.66,0.296-0.66,0.659v12.678c0,0.363,0.295,0.659,0.66,0.659H20.08
			c0.364,0,0.659-0.296,0.659-0.659V29.467C20.739,29.104,20.444,28.808,20.08,28.808z M8.063,41.484v-2.569l1.976-2.173
			l4.311,4.742H8.063L8.063,41.484z M16.134,41.484l-1.871-2.06l0.793-0.871l2.662,2.931H16.134L16.134,41.484z M19.419,41.391
			l-3.875-4.264c-0.125-0.138-0.302-0.216-0.488-0.216c-0.187,0-0.364,0.078-0.489,0.216l-1.197,1.316l-2.843-3.127
			c-0.125-0.138-0.302-0.216-0.489-0.216c-0.186,0-0.363,0.078-0.488,0.216l-1.487,1.636v-6.825h11.356V41.391L19.419,41.391z"/>
	</g>
</g>
<g>
	<g>
		<path fill="#FFFFFF" d="M35.265,21.337H22.588c-0.365,0-0.66,0.296-0.66,0.661v20.146c0,0.363,0.295,0.659,0.66,0.659h12.676
			c0.364,0,0.66-0.296,0.66-0.659V21.998C35.925,21.633,35.629,21.337,35.265,21.337z M34.604,41.484H23.249V22.659h11.356V41.484z"
			/>
	</g>
</g>
<g>
	<g>
		<path fill="#FFFFFF" d="M35.265,6.096H22.588c-0.365,0-0.66,0.295-0.66,0.66v12.677c0,0.364,0.295,0.659,0.66,0.659h12.676
			c0.364,0,0.66-0.295,0.66-0.659V6.756C35.925,6.391,35.629,6.096,35.265,6.096z M34.604,18.772H23.249V7.416h11.356V18.772z"/>
	</g>
</g>
<g>
	<g>
		<path fill="#FFFFFF" d="M32.161,9.133h-6.47c-0.364,0-0.66,0.295-0.66,0.66v1.584c0,0.365,0.296,0.66,0.66,0.66
			c0.365,0,0.66-0.295,0.66-0.66v-0.925h1.915v5.415h-0.66c-0.365,0-0.66,0.295-0.66,0.66c0,0.364,0.295,0.66,0.66,0.66h2.641
			c0.364,0,0.66-0.295,0.66-0.66c0-0.365-0.296-0.66-0.66-0.66h-0.66v-5.415h1.915v0.925c0,0.365,0.295,0.66,0.659,0.66
			c0.365,0,0.66-0.295,0.66-0.66V9.793C32.821,9.428,32.526,9.133,32.161,9.133z"/>
	</g>
</g>
<g>
	<g>
		<path fill="#FFFFFF" d="M16.139,30.983c-1.459,0-2.647,1.188-2.647,2.646s1.188,2.647,2.647,2.647s2.647-1.188,2.647-2.647
			S17.598,30.983,16.139,30.983z M16.139,34.956c-0.732,0-1.327-0.595-1.327-1.326s0.595-1.326,1.327-1.326
			c0.731,0,1.327,0.595,1.327,1.326S16.87,34.956,16.139,34.956z"/>
	</g>
</g>
<g>
	<g>
		<path fill="#FFFFFF" d="M17.175,9.022h-4.754c-0.364,0-0.661,0.296-0.661,0.66c0,0.365,0.296,0.66,0.661,0.66h4.754
			c0.364,0,0.66-0.295,0.66-0.66C17.835,9.318,17.539,9.022,17.175,9.022z"/>
	</g>
</g>
<g>
	<g>
		<path fill="#FFFFFF" d="M17.175,11.881h-6.866c-0.365,0-0.661,0.295-0.661,0.66s0.296,0.66,0.661,0.66h6.866
			c0.364,0,0.66-0.295,0.66-0.66S17.539,11.881,17.175,11.881z"/>
	</g>
</g>
<g>
	<g>
		<path fill="#FFFFFF" d="M17.175,14.74h-6.866c-0.365,0-0.661,0.295-0.661,0.66c0,0.365,0.296,0.66,0.661,0.66h6.866
			c0.364,0,0.66-0.295,0.66-0.66C17.835,15.035,17.539,14.74,17.175,14.74z"/>
	</g>
</g>
<g>
	<g>
		<path fill="#FFFFFF" d="M17.175,17.598h-6.866c-0.365,0-0.661,0.295-0.661,0.66s0.296,0.66,0.661,0.66h6.866
			c0.364,0,0.66-0.295,0.66-0.66S17.539,17.598,17.175,17.598z"/>
	</g>
</g>
<g>
	<g>
		<path fill="#FFFFFF" d="M17.175,20.456h-6.866c-0.365,0-0.661,0.295-0.661,0.66s0.296,0.661,0.661,0.661h6.866
			c0.364,0,0.66-0.296,0.66-0.661S17.539,20.456,17.175,20.456z"/>
	</g>
</g>
<g>
	<g>
		<path fill="#FFFFFF" d="M13.213,23.315h-2.905c-0.365,0-0.661,0.295-0.661,0.66s0.296,0.66,0.661,0.66h2.905
			c0.365,0,0.66-0.295,0.66-0.66S13.578,23.315,13.213,23.315z"/>
	</g>
</g>
<g>
	<g>
		<path fill="#FFFFFF" d="M32.36,24.264h-4.754c-0.365,0-0.66,0.296-0.66,0.661c0,0.364,0.296,0.661,0.66,0.661h4.754
			c0.364,0,0.66-0.297,0.66-0.661C33.021,24.56,32.725,24.264,32.36,24.264z"/>
	</g>
</g>
<g>
	<g>
		<path fill="#FFFFFF" d="M32.36,27.123h-6.866c-0.365,0-0.661,0.296-0.661,0.66c0,0.365,0.296,0.66,0.661,0.66h6.866
			c0.364,0,0.66-0.295,0.66-0.66C33.021,27.419,32.725,27.123,32.36,27.123z"/>
	</g>
</g>
<g>
	<g>
		<path fill="#FFFFFF" d="M32.36,29.981h-6.866c-0.365,0-0.661,0.296-0.661,0.66c0,0.365,0.296,0.66,0.661,0.66h6.866
			c0.364,0,0.66-0.295,0.66-0.66C33.021,30.277,32.725,29.981,32.36,29.981z"/>
	</g>
</g>
<g>
	<g>
		<path fill="#FFFFFF" d="M32.36,32.84h-6.866c-0.365,0-0.661,0.296-0.661,0.66s0.296,0.66,0.661,0.66h6.866
			c0.364,0,0.66-0.296,0.66-0.66S32.725,32.84,32.36,32.84z"/>
	</g>
</g>
<g>
	<g>
		<path fill="#FFFFFF" d="M32.36,35.698h-6.866c-0.365,0-0.661,0.295-0.661,0.66c0,0.364,0.296,0.66,0.661,0.66h6.866
			c0.364,0,0.66-0.296,0.66-0.66C33.021,35.993,32.725,35.698,32.36,35.698z"/>
	</g>
</g>
<g>
	<g>
		<path fill="#FFFFFF" d="M28.398,38.557h-2.904c-0.365,0-0.661,0.295-0.661,0.66c0,0.364,0.296,0.66,0.661,0.66h2.904
			c0.364,0,0.66-0.296,0.66-0.66C29.059,38.852,28.763,38.557,28.398,38.557z"/>
	</g>
</g>
<g>
	<g>
		<path fill="#FFFFFF" d="M41.89,39.872c-0.259-0.258-0.677-0.258-0.935,0l-0.678,0.678V8.35l0.678,0.678
			c0.13,0.128,0.298,0.193,0.467,0.193c0.17,0,0.338-0.065,0.468-0.193c0.258-0.258,0.258-0.676,0-0.934l-1.805-1.805
			c-0.259-0.258-0.677-0.258-0.936,0l-1.805,1.805c-0.258,0.257-0.258,0.676,0,0.934s0.677,0.258,0.935,0l0.678-0.678v32.2
			l-0.678-0.678c-0.258-0.258-0.677-0.258-0.935,0s-0.258,0.676,0,0.934l1.805,1.805c0.13,0.13,0.299,0.193,0.468,0.193
			s0.338-0.063,0.468-0.193l1.805-1.805C42.147,40.548,42.147,40.13,41.89,39.872z"/>
	</g>
</g>
</svg>
