<?xml version="1.0" encoding="utf-8"?>
<!-- Generator: Adobe Illustrator 16.0.0, SVG Export Plug-In . SVG Version: 6.00 Build 0)  -->
<!DOCTYPE svg PUBLIC "-//W3C//DTD SVG 1.1//EN" "http://www.w3.org/Graphics/SVG/1.1/DTD/svg11.dtd">
<svg version="1.1" id="Layer_1" xmlns="http://www.w3.org/2000/svg" xmlns:xlink="http://www.w3.org/1999/xlink" x="0px" y="0px"
	 width="180px" height="180px" viewBox="0 0 180 180" enable-background="new 0 0 180 180" xml:space="preserve">
<path fill="#575756" d="M101.153,74.376h-22c-2.761,0-5,2.239-5,5v21.999c0,2.762,2.239,5,5,5h22c2.762,0,5-2.238,5-5V79.376
	C106.153,76.615,103.915,74.376,101.153,74.376z M93.581,90.382h-2.242c0,3.583,0,7.994,0,7.994h-3.322c0,0,0-4.367,0-7.994h-1.58
	v-2.824h1.58v-1.828c0-1.308,0.621-3.354,3.353-3.354l2.461,0.01v2.742c0,0-1.496,0-1.786,0c-0.291,0-0.705,0.146-0.705,0.77v1.66
	h2.533L93.581,90.382z"/>
</svg>
