<?xml version="1.0" encoding="utf-8"?>
<!-- Generator: Adobe Illustrator 16.0.0, SVG Export Plug-In . SVG Version: 6.00 Build 0)  -->
<!DOCTYPE svg PUBLIC "-//W3C//DTD SVG 1.1//EN" "http://www.w3.org/Graphics/SVG/1.1/DTD/svg11.dtd">
<svg version="1.1" id="Layer_1" xmlns="http://www.w3.org/2000/svg" xmlns:xlink="http://www.w3.org/1999/xlink" x="0px" y="0px"
	 width="180px" height="180px" viewBox="0 0 180 180" enable-background="new 0 0 180 180" xml:space="preserve">
<rect x="84.472" y="78.23" fill="#FFFFFF" width="19.047" height="20.29"/>
<path fill="#37589B" d="M103.431,71.969h-22c-2.761,0-5,2.24-5,5v22c0,2.762,2.239,5,5,5h22c2.762,0,5-2.238,5-5v-22
	C108.431,74.209,106.192,71.969,103.431,71.969z M95.858,87.975h-2.242c0,3.583,0,7.994,0,7.994h-3.322c0,0,0-4.367,0-7.994h-1.58
	v-2.824h1.58v-1.828c0-1.307,0.621-3.354,3.353-3.354l2.461,0.01v2.742c0,0-1.496,0-1.786,0c-0.291,0-0.705,0.146-0.705,0.77v1.66
	h2.533L95.858,87.975z"/>
</svg>
