<?xml version="1.0" encoding="utf-8"?>
<!-- Generator: Adobe Illustrator 16.0.0, SVG Export Plug-In . SVG Version: 6.00 Build 0)  -->
<!DOCTYPE svg PUBLIC "-//W3C//DTD SVG 1.1//EN" "http://www.w3.org/Graphics/SVG/1.1/DTD/svg11.dtd">
<svg version="1.1" id="Layer_1" xmlns="http://www.w3.org/2000/svg" xmlns:xlink="http://www.w3.org/1999/xlink" x="0px" y="0px"
	 width="180px" height="180px" viewBox="0 0 180 180" enable-background="new 0 0 180 180" xml:space="preserve">
<path fill="#575756" d="M100.392,74.376h-22c-2.761,0-5,2.239-5,5v21.999c0,2.762,2.239,5,5,5h22c2.761,0,5-2.238,5-5V79.376
	C105.392,76.615,103.152,74.376,100.392,74.376z M84.94,93.925c-1.96,0-3.549-1.59-3.549-3.549s1.589-3.548,3.549-3.548
	c1.959,0,3.549,1.589,3.549,3.548S86.899,93.925,84.94,93.925z M93.843,93.925c-1.959,0-3.548-1.59-3.548-3.549
	s1.589-3.548,3.548-3.548c1.96,0,3.549,1.589,3.549,3.548S95.803,93.925,93.843,93.925z"/>
</svg>
