<?xml version="1.0" encoding="utf-8"?>
<!-- Generator: Adobe Illustrator 16.0.0, SVG Export Plug-In . SVG Version: 6.00 Build 0)  -->
<!DOCTYPE svg PUBLIC "-//W3C//DTD SVG 1.1//EN" "http://www.w3.org/Graphics/SVG/1.1/DTD/svg11.dtd">
<svg version="1.1" id="Layer_1" xmlns="http://www.w3.org/2000/svg" xmlns:xlink="http://www.w3.org/1999/xlink" x="0px" y="0px"
	 width="180px" height="180px" viewBox="0 0 180 180" enable-background="new 0 0 180 180" xml:space="preserve">
<rect x="78.261" y="82.578" fill="#FFFFFF" width="20.911" height="15.114"/>
<path fill="#E72684" d="M100.392,74.247h-22c-2.761,0-5,2.24-5,5v22c0,2.762,2.239,5,5,5h22c2.761,0,5-2.238,5-5v-22
	C105.392,76.487,103.152,74.247,100.392,74.247z M84.94,93.795c-1.96,0-3.549-1.59-3.549-3.548c0-1.959,1.589-3.547,3.549-3.547
	c1.959,0,3.549,1.588,3.549,3.547C88.489,92.205,86.899,93.795,84.94,93.795z M93.843,93.795c-1.959,0-3.548-1.59-3.548-3.548
	c0-1.959,1.589-3.547,3.548-3.547c1.96,0,3.549,1.588,3.549,3.547C97.392,92.205,95.803,93.795,93.843,93.795z"/>
</svg>
