<?xml version="1.0" encoding="utf-8"?>
<!-- Generator: Adobe Illustrator 16.0.0, SVG Export Plug-In . SVG Version: 6.00 Build 0)  -->
<!DOCTYPE svg PUBLIC "-//W3C//DTD SVG 1.1//EN" "http://www.w3.org/Graphics/SVG/1.1/DTD/svg11.dtd">
<svg version="1.1" id="Layer_1" xmlns="http://www.w3.org/2000/svg" xmlns:xlink="http://www.w3.org/1999/xlink" x="0px" y="0px"
	 width="180px" height="180px" viewBox="0 0 180 180" enable-background="new 0 0 180 180" xml:space="preserve">
<g>
	<path fill="#575756" d="M100.763,74.376h-22c-2.762,0-5,2.239-5,5v21.999c0,2.762,2.238,5,5,5h22c2.761,0,5-2.238,5-5V79.376
		C105.763,76.615,103.523,74.376,100.763,74.376z M85.396,98.022h-3.431V87.706h3.431V98.022z M83.68,86.297h-0.022
		c-1.15,0-1.895-0.794-1.895-1.783c0-1.013,0.768-1.784,1.939-1.784c1.174,0,1.896,0.771,1.918,1.784
		C85.62,85.503,84.876,86.297,83.68,86.297z M97.763,98.022h-3.43v-5.52c0-1.387-0.496-2.334-1.738-2.334
		c-0.946,0-1.512,0.641-1.76,1.256c-0.091,0.221-0.113,0.526-0.113,0.836v5.762h-3.429c0,0,0.044-9.35,0-10.316h3.429v1.461
		c0.457-0.704,1.271-1.703,3.092-1.703c2.256,0,3.949,1.474,3.949,4.644V98.022z"/>
	<path fill="#575756" d="M90.722,89.2v-0.033c-0.006,0.012-0.015,0.023-0.022,0.033H90.722z"/>
</g>
</svg>
