<?xml version="1.0" encoding="utf-8"?>
<!-- Generator: Adobe Illustrator 16.0.0, SVG Export Plug-In . SVG Version: 6.00 Build 0)  -->
<!DOCTYPE svg PUBLIC "-//W3C//DTD SVG 1.1//EN" "http://www.w3.org/Graphics/SVG/1.1/DTD/svg11.dtd">
<svg version="1.1" id="Layer_1" xmlns="http://www.w3.org/2000/svg" xmlns:xlink="http://www.w3.org/1999/xlink" x="0px" y="0px"
	 width="180px" height="180px" viewBox="0 0 180 180" enable-background="new 0 0 180 180" xml:space="preserve">
<rect x="77.64" y="79.679" fill="#FFFFFF" width="24.224" height="22.774"/>
<g>
	<path fill="#02679A" d="M100.763,74.247h-22c-2.762,0-5,2.24-5,5v22c0,2.762,2.238,5,5,5h22c2.761,0,5-2.238,5-5v-22
		C105.763,76.487,103.523,74.247,100.763,74.247z M85.396,97.893h-3.431V87.577h3.431V97.893z M83.68,86.168h-0.022
		c-1.15,0-1.895-0.795-1.895-1.783c0-1.014,0.768-1.785,1.939-1.785c1.174,0,1.896,0.771,1.918,1.785
		C85.62,85.374,84.876,86.168,83.68,86.168z M97.763,97.893h-3.43v-5.52c0-1.386-0.496-2.333-1.738-2.333
		c-0.946,0-1.512,0.641-1.76,1.255c-0.091,0.221-0.113,0.527-0.113,0.836v5.762h-3.429c0,0,0.044-9.349,0-10.316h3.429v1.461
		c0.457-0.703,1.271-1.703,3.092-1.703c2.256,0,3.949,1.475,3.949,4.644V97.893z"/>
	<path fill="#02679A" d="M90.722,89.071v-0.033c-0.006,0.012-0.015,0.023-0.022,0.033H90.722z"/>
</g>
</svg>
