<?xml version="1.0" encoding="utf-8"?>
<!-- Generator: Adobe Illustrator 16.0.0, SVG Export Plug-In . SVG Version: 6.00 Build 0)  -->
<!DOCTYPE svg PUBLIC "-//W3C//DTD SVG 1.1//EN" "http://www.w3.org/Graphics/SVG/1.1/DTD/svg11.dtd">
<svg version="1.1" id="Layer_1" xmlns="http://www.w3.org/2000/svg" xmlns:xlink="http://www.w3.org/1999/xlink" x="0px" y="0px"
	 width="180px" height="180px" viewBox="0 0 180 180" enable-background="new 0 0 180 180" xml:space="preserve">
<path fill="#575756" d="M101.175,74.376h-22c-2.762,0-5,2.239-5,5v21.999c0,2.762,2.238,5,5,5h22c2.762,0,5-2.238,5-5V79.376
	C106.175,76.615,103.937,74.376,101.175,74.376z M91.827,93.939c-0.992,0-1.926-0.536-2.245-1.146c0,0-0.534,2.117-0.646,2.526
	c-0.398,1.444-1.569,2.89-1.659,3.007c-0.063,0.083-0.204,0.057-0.219-0.052c-0.025-0.185-0.324-2.007,0.027-3.493
	c0.177-0.746,1.183-5.008,1.183-5.008s-0.294-0.586-0.294-1.453c0-1.363,0.79-2.379,1.773-2.379c0.836,0,1.238,0.627,1.238,1.379
	c0,0.841-0.534,2.098-0.811,3.262c-0.23,0.975,0.488,1.77,1.45,1.77c1.741,0,2.914-2.236,2.914-4.886
	c0-2.015-1.356-3.522-3.824-3.522c-2.787,0-4.524,2.08-4.524,4.402c0,0.801,0.236,1.365,0.606,1.802
	c0.17,0.201,0.193,0.282,0.132,0.513c-0.045,0.169-0.145,0.576-0.188,0.737c-0.061,0.233-0.25,0.315-0.46,0.229
	c-1.284-0.523-1.882-1.93-1.882-3.511c0-2.61,2.201-5.741,6.568-5.741c3.509,0,5.818,2.539,5.818,5.266
	C96.786,91.246,94.781,93.939,91.827,93.939z"/>
</svg>
