<?xml version="1.0" encoding="utf-8"?>
<!-- Generator: Adobe Illustrator 16.0.0, SVG Export Plug-In . SVG Version: 6.00 Build 0)  -->
<!DOCTYPE svg PUBLIC "-//W3C//DTD SVG 1.1//EN" "http://www.w3.org/Graphics/SVG/1.1/DTD/svg11.dtd">
<svg version="1.1" id="Layer_1" xmlns="http://www.w3.org/2000/svg" xmlns:xlink="http://www.w3.org/1999/xlink" x="0px" y="0px"
	 width="180px" height="180px" viewBox="0 0 180 180" enable-background="new 0 0 180 180" xml:space="preserve">
<rect x="76.833" y="78" fill="#FFFFFF" width="25.667" height="22.167"/>
<path fill="#3AAAE1" d="M100.958,74.247h-22c-2.762,0-5,2.24-5,5v22c0,2.762,2.238,5,5,5h22c2.762,0,5-2.238,5-5v-22
	C105.958,76.487,103.72,74.247,100.958,74.247z M96.32,86.985c0.007,0.141,0.01,0.281,0.01,0.424c0,4.337-3.302,9.339-9.34,9.339
	c-1.854,0-3.579-0.543-5.032-1.475c0.258,0.031,0.519,0.045,0.783,0.045c1.539,0,2.953-0.523,4.076-1.404
	c-1.436-0.025-2.648-0.975-3.065-2.279c0.2,0.039,0.405,0.059,0.617,0.059c0.3,0,0.59-0.039,0.864-0.115
	c-1.5-0.301-2.633-1.628-2.633-3.218c0-0.014,0-0.027,0-0.041c0.443,0.246,0.949,0.395,1.487,0.41
	c-0.881-0.588-1.46-1.594-1.46-2.732c0-0.602,0.162-1.164,0.444-1.65c1.618,1.986,4.038,3.293,6.766,3.43
	c-0.056-0.24-0.085-0.49-0.085-0.748c0-1.813,1.47-3.281,3.283-3.281c0.943,0,1.797,0.398,2.396,1.035
	c0.747-0.146,1.45-0.42,2.085-0.795c-0.246,0.766-0.766,1.41-1.443,1.814c0.664-0.078,1.297-0.254,1.885-0.516
	C97.519,85.944,96.962,86.522,96.32,86.985z"/>
</svg>
