<?xml version="1.0" encoding="utf-8"?>
<!-- Generator: Adobe Illustrator 16.0.0, SVG Export Plug-In . SVG Version: 6.00 Build 0)  -->
<!DOCTYPE svg PUBLIC "-//W3C//DTD SVG 1.1//EN" "http://www.w3.org/Graphics/SVG/1.1/DTD/svg11.dtd">
<svg version="1.1" id="Layer_1" xmlns="http://www.w3.org/2000/svg" xmlns:xlink="http://www.w3.org/1999/xlink" x="0px" y="0px"
	 width="180px" height="180px" viewBox="0 0 180 180" enable-background="new 0 0 180 180" xml:space="preserve">
<path fill="#575756" d="M100.587,74.376h-22c-2.761,0-5,2.239-5,5v21.999c0,2.762,2.239,5,5,5h22c2.761,0,5-2.238,5-5V79.376
	C105.587,76.615,103.348,74.376,100.587,74.376z M97.507,86.747c-0.895,5.036-5.889,9.301-7.392,10.275s-2.874-0.39-3.37-1.422
	c-0.57-1.177-2.275-7.554-2.722-8.082c-0.446-0.527-1.787,0.528-1.787,0.528l-0.649-0.852c0,0,2.721-3.25,4.791-3.657
	c2.196-0.431,2.193,3.372,2.722,5.482c0.511,2.042,0.854,3.21,1.3,3.21c0.447,0,1.3-1.139,2.233-2.884
	c0.935-1.747-0.04-3.291-1.868-2.193C91.495,82.767,98.4,81.712,97.507,86.747z"/>
</svg>
