<?xml version="1.0" encoding="utf-8"?>
<!-- Generator: Adobe Illustrator 16.0.0, SVG Export Plug-In . SVG Version: 6.00 Build 0)  -->
<!DOCTYPE svg PUBLIC "-//W3C//DTD SVG 1.1//EN" "http://www.w3.org/Graphics/SVG/1.1/DTD/svg11.dtd">
<svg version="1.1" id="Layer_1" xmlns="http://www.w3.org/2000/svg" xmlns:xlink="http://www.w3.org/1999/xlink" x="0px" y="0px"
	 width="190.55px" height="70.55px" viewBox="0 0 190.55 70.55" enable-background="new 0 0 190.55 70.55" xml:space="preserve">
<g>
	<path fill-rule="evenodd" clip-rule="evenodd" fill="#FFFFFF" d="M54.7,21.45c-1.3-4.767-0.134-9.4,3.5-13.9
		c4.433-5.533,11.267-8.017,20.5-7.45c8.6,0.566,15.283,3.183,20.05,7.85c2.4,2.333,3.934,4.616,4.6,6.85l1-1.45
		c1.034-1.1,2.417-2.083,4.15-2.95c5.566-2.8,13.634-3.783,24.2-2.95c10.533,0.833,18.366,5.083,23.5,12.75
		c2.566,3.833,4.066,7.583,4.5,11.25c8.066-2.3,15.2-2.05,21.399,0.75c7.101,3.233,9.733,8.983,7.9,17.25
		c-1.667,7.5-8.267,12.316-19.8,14.45l-11.7,1.05l-5.15-0.15c-10.267,5.834-22.017,7.134-35.25,3.9c-4.133-1-8.166-2.4-12.1-4.2
		l-4.65-2.4c-13.066,8.334-26.433,10.5-40.1,6.5c-4.267-1.232-8.3-3.017-12.1-5.35L44.7,60.1c-3.434,2.434-7.733,4.034-12.9,4.801
		L17.1,64.35C12.066,63.25,8.033,61.367,5,58.7C1.667,55.767,0,52.233,0,48.1C0,40.9,5.117,35.967,15.35,33.3
		c5.133-1.333,10.25-1.95,15.35-1.85c2.5-8.067,7.25-12.15,14.25-12.25C48.45,19.133,51.7,19.883,54.7,21.45z"/>
</g>
<g>
	<path fill-rule="evenodd" clip-rule="evenodd" fill="#D4EFFC" d="M1.05,43c2.7,6.333,9.1,10.2,19.2,11.6
		c9.9,1.367,18.05-0.232,24.45-4.8l4.45,3.15c3.8,2.333,7.833,4.116,12.1,5.35c13.667,4,27.033,1.834,40.1-6.5l4.65,2.4
		c3.934,1.767,7.967,3.167,12.1,4.2c13.233,3.199,24.983,1.883,35.25-3.95l5,0.149l11.351-1c11.3-1.966,17.983-6.482,20.05-13.55
		c0.967,2.767,1.05,5.9,0.25,9.4c-1.667,7.5-8.267,12.316-19.8,14.45l-11.7,1.05l-5.15-0.15c-10.267,5.834-22.017,7.134-35.25,3.9
		c-4.133-1-8.166-2.4-12.1-4.2l-4.65-2.4c-13.066,8.334-26.433,10.5-40.1,6.5c-4.267-1.232-8.3-3.017-12.1-5.35L44.7,60.1
		c-3.434,2.434-7.733,4.034-12.9,4.801L17.1,64.35C12.066,63.25,8.033,61.367,5,58.7C1.667,55.767,0,52.233,0,48.1
		C0,46.3,0.35,44.6,1.05,43z"/>
</g>
</svg>
