<?xml version="1.0" encoding="utf-8"?>
<!-- Generator: Adobe Illustrator 16.0.0, SVG Export Plug-In . SVG Version: 6.00 Build 0)  -->
<!DOCTYPE svg PUBLIC "-//W3C//DTD SVG 1.1//EN" "http://www.w3.org/Graphics/SVG/1.1/DTD/svg11.dtd">
<svg version="1.1" id="Layer_1" xmlns="http://www.w3.org/2000/svg" xmlns:xlink="http://www.w3.org/1999/xlink" x="0px" y="0px"
	 width="182.2px" height="182.5px" viewBox="0 0 182.2 182.5" enable-background="new 0 0 182.2 182.5" xml:space="preserve">
<g>
	<path fill-rule="evenodd" clip-rule="evenodd" fill="#F2990A" d="M155.904,28.278l-2.881,13.413
		c-0.274,1.293-0.038,2.445,0.709,3.455c0.746,1.01,1.777,1.57,3.092,1.679l13.666,1.208c1.315,0.109,2.202,0.616,2.661,1.521
		c0.45,0.886,0.337,1.891-0.341,3.014l-7.101,11.759c-0.671,1.143-0.819,2.307-0.446,3.492c0.38,1.205,1.17,2.074,2.369,2.61
		l12.542,5.578c1.218,0.528,1.896,1.288,2.033,2.279c0.138,0.991-0.299,1.916-1.308,2.774l-10.542,8.818
		c-1.01,0.858-1.529,1.906-1.559,3.144c-0.021,1.256,0.451,2.334,1.42,3.231l10.033,9.343c0.977,0.917,1.372,1.858,1.188,2.826
		c-0.196,0.993-0.913,1.721-2.151,2.182l-12.8,4.926c-1.25,0.487-2.095,1.312-2.534,2.473c-0.433,1.18-0.333,2.354,0.301,3.521
		l6.479,12.1c0.613,1.176,0.67,2.188,0.17,3.039c-0.491,0.87-1.405,1.332-2.743,1.388l-13.711,0.483
		c-1.317,0.048-2.369,0.555-3.155,1.522c-0.807,0.976-1.097,2.119-0.873,3.432l2.189,13.55c0.197,1.302-0.082,2.284-0.836,2.949
		c-0.754,0.664-1.759,0.796-3.015,0.395l-13.122-3.97c-1.268-0.374-2.438-0.241-3.515,0.398c-1.05,0.651-1.693,1.64-1.934,2.963
		l-2.335,13.524c-0.228,1.296-0.801,2.132-1.718,2.507c-0.917,0.374-1.92,0.182-3.01-0.576l-11.105-8.037
		c-1.078-0.785-2.229-1.04-3.453-0.763c-1.217,0.296-2.147,1.021-2.79,2.175l-6.593,12.021c-0.636,1.173-1.455,1.786-2.459,1.84
		c-1.004,0.053-1.881-0.458-2.632-1.534l-7.92-11.209c-0.759-1.094-1.768-1.708-3.025-1.84c-1.239-0.141-2.346,0.232-3.32,1.121
		l-10.159,9.264c-0.975,0.888-1.942,1.193-2.902,0.917c-0.971-0.25-1.639-1.014-2.004-2.29l-3.842-13.176
		c-0.365-1.277-1.115-2.186-2.25-2.726c-1.126-0.521-2.307-0.519-3.541,0.008l-12.589,5.441c-1.207,0.537-2.229,0.52-3.064-0.053
		c-0.809-0.562-1.185-1.512-1.13-2.849l0.627-13.696c0.055-1.338-0.361-2.438-1.248-3.302c-0.907-0.855-2.021-1.236-3.342-1.144
		l-13.672,1.069c-1.322,0.094-2.28-0.262-2.876-1.065c-0.596-0.805-0.653-1.817-0.171-3.04l5.053-12.762
		c0.501-1.229,0.466-2.407-0.105-3.534c-0.563-1.107-1.494-1.83-2.792-2.17l-13.273-3.44c-1.29-0.32-2.083-0.954-2.381-1.902
		c-0.306-0.968-0.018-1.954,0.864-2.961l8.915-10.427c0.863-0.999,1.208-2.12,1.034-3.364s-0.821-2.229-1.941-2.952L1.592,91.285
		c-1.101-0.732-1.636-1.605-1.605-2.621c0.02-0.989,0.605-1.819,1.758-2.49l11.802-6.958c1.152-0.671,1.845-1.623,2.078-2.854
		c0.232-1.232-0.056-2.373-0.864-3.425L6.384,62.08c-0.789-1.06-1.019-2.058-0.688-2.995c0.357-0.926,1.181-1.53,2.471-1.811
		l13.453-2.752c1.297-0.262,2.26-0.934,2.888-2.015c0.628-1.081,0.731-2.249,0.308-3.502l-4.409-13.011
		c-0.423-1.253-0.313-2.268,0.329-3.043s1.613-1.071,2.914-0.889l13.623,1.759c1.319,0.175,2.446-0.152,3.379-0.979
		c0.933-0.826,1.408-1.901,1.425-3.223l0.074-13.738c-0.001-1.314,0.425-2.235,1.279-2.762c0.855-0.528,1.871-0.497,3.047,0.093
		l12.31,6.073c1.185,0.608,2.36,0.675,3.525,0.199c1.146-0.468,1.939-1.338,2.377-2.609l4.512-12.942
		c0.447-1.252,1.16-1.99,2.14-2.211c0.96-0.214,1.909,0.146,2.847,1.077l9.669,9.76c0.938,0.932,2.029,1.367,3.274,1.304
		c1.245-0.063,2.277-0.618,3.098-1.666L98.7,1.418c0.819-1.048,1.73-1.52,2.73-1.416c1.001,0.104,1.79,0.751,2.365,1.943
		l5.957,12.379c0.576,1.191,1.466,1.953,2.672,2.286s2.363,0.139,3.474-0.583l11.534-7.451c1.117-0.702,2.129-0.847,3.032-0.436
		c0.892,0.438,1.417,1.316,1.576,2.632l1.644,13.605c0.159,1.317,0.752,2.333,1.78,3.051c1.028,0.717,2.18,0.916,3.453,0.596
		l13.329-3.303c1.293-0.327,2.292-0.145,2.999,0.548C155.979,25.975,156.198,26.977,155.904,28.278z"/>
</g>
</svg>
