<?xml version="1.0" encoding="utf-8"?>
<!-- Generator: Adobe Illustrator 21.0.0, SVG Export Plug-In . SVG Version: 6.00 Build 0)  -->
<svg version="1.1" id="Isolation_Mode" xmlns="http://www.w3.org/2000/svg" xmlns:xlink="http://www.w3.org/1999/xlink" x="0px"
	 y="0px" viewBox="0 0 54.6 58" style="enable-background:new 0 0 54.6 58;" xml:space="preserve">
<style type="text/css">
	.st0{opacity:0.1;}
	.st1{fill:#4C4C4C;}
	.st2{fill:#FFFFFF;}
	.st3{fill:#DAEDB9;}
	.st4{fill:#7DA23D;}
</style>
<g id="Layer_6">
	<g>
		<g class="st0">
			<circle class="st1" cx="27.3" cy="30.7" r="25.3"/>
			<path class="st1" d="M52.5,30.7h-2c0,3.2-0.6,6.3-1.8,9c-1.8,4.2-4.7,7.7-8.4,10.2c-1.9,1.3-3.9,2.2-6.1,2.9
				c-2.2,0.7-4.5,1-6.9,1c-3.2,0-6.3-0.6-9-1.8c-4.2-1.8-7.7-4.7-10.2-8.4c-1.3-1.9-2.2-3.9-2.9-6.1c-0.7-2.2-1-4.5-1-6.9
				c0-3.2,0.6-6.3,1.8-9c1.8-4.2,4.7-7.7,8.4-10.2c1.9-1.3,3.9-2.2,6.1-2.9c2.2-0.7,4.5-1,6.9-1c3.2,0,6.3,0.6,9,1.8
				c4.2,1.8,7.7,4.7,10.2,8.4c1.3,1.9,2.2,3.9,2.9,6.1c0.7,2.2,1,4.5,1,6.9H52.5h2c0-3.8-0.8-7.4-2.1-10.6c-2.1-4.9-5.5-9.1-9.9-12
				c-2.2-1.5-4.6-2.6-7.1-3.4c-2.6-0.8-5.3-1.2-8.1-1.2c-3.8,0-7.4,0.8-10.6,2.1c-4.9,2.1-9.1,5.5-12,9.9C3.2,17.6,2,20,1.2,22.6
				C0.4,25.2,0,27.9,0,30.7c0,3.8,0.8,7.4,2.1,10.6c2.1,4.9,5.5,9.1,9.9,12c2.2,1.5,4.6,2.6,7.1,3.4c2.6,0.8,5.3,1.2,8.1,1.2
				c3.8,0,7.4-0.8,10.6-2.1c4.9-2.1,9.1-5.5,12-9.9c1.5-2.2,2.6-4.6,3.4-7.1c0.8-2.6,1.2-5.3,1.2-8.1H52.5z"/>
		</g>
		<g>
			<path class="st2" d="M52.5,27.3h-2c0,3.2-0.6,6.3-1.8,9c-1.8,4.2-4.7,7.7-8.4,10.2c-1.9,1.3-3.9,2.2-6.1,2.9
				c-2.2,0.7-4.5,1-6.9,1c-3.2,0-6.3-0.6-9-1.8C14.1,46.9,10.5,44,8,40.3c-1.3-1.9-2.2-3.9-2.9-6.1c-0.7-2.2-1-4.5-1-6.9
				c0-3.2,0.6-6.3,1.8-9c1.8-4.2,4.7-7.7,8.4-10.2c1.9-1.3,3.9-2.2,6.1-2.9c2.2-0.7,4.5-1,6.9-1c3.2,0,6.3,0.6,9,1.8
				c4.2,1.8,7.7,4.7,10.2,8.4c1.3,1.9,2.2,3.9,2.9,6.1c0.7,2.2,1,4.5,1,6.9H52.5h2c0-3.8-0.8-7.4-2.1-10.6c-2.1-4.9-5.5-9.1-9.9-12
				C40.4,3.2,38,2,35.4,1.2C32.8,0.4,30.1,0,27.3,0c-3.8,0-7.4,0.8-10.6,2.1c-4.9,2.1-9.1,5.5-12,9.9c-1.5,2.2-2.6,4.6-3.4,7.1
				C0.4,21.7,0,24.5,0,27.3c0,3.8,0.8,7.4,2.1,10.6c2.1,4.9,5.5,9.1,9.9,12c2.2,1.5,4.6,2.6,7.1,3.4c2.6,0.8,5.3,1.2,8.1,1.2
				c3.8,0,7.4-0.8,10.6-2.1c4.9-2.1,9.1-5.5,12-9.9c1.5-2.2,2.6-4.6,3.4-7.1c0.8-2.6,1.2-5.3,1.2-8.1H52.5z"/>
			<circle class="st3" cx="27.3" cy="27.3" r="25.5"/>
		</g>
		<path class="st4" d="M939.5,1214c-5,1.2-9.6,5-13,8.8c-2.6,2.9-4.7,6.3-6.1,9.9c-1.8-4-4.4-8-8.5-9.2c-0.9-0.2-1.5,0.9-0.9,1.5
			c3.8,3.9,6,7.8,8,12.8c0.6,1.4,2.7,1.7,3.2,0c1.3-4.9,3.4-9.4,6.6-13.4c3.2-3.9,7.2-6.4,11.2-9.3
			C940.5,1214.8,940.2,1213.8,939.5,1214z"/>
		<path class="st4" d="M41.5,17c-5,1.2-9.6,5-13,8.8c-2.6,2.9-4.7,6.3-6.1,9.9c-1.8-4-4.4-8-8.5-9.2c-0.9-0.2-1.5,0.9-0.9,1.5
			c3.8,3.9,6,7.8,8,12.8c0.6,1.4,2.7,1.7,3.2,0c1.3-4.9,3.4-9.4,6.6-13.4c3.2-3.9,7.2-6.4,11.2-9.3C42.5,17.8,42.2,16.8,41.5,17z"/>
	</g>
</g>
</svg>
