<?xml version="1.0" encoding="utf-8"?>
<!-- Generator: Adobe Illustrator 16.0.0, SVG Export Plug-In . SVG Version: 6.00 Build 0)  -->
<!DOCTYPE svg PUBLIC "-//W3C//DTD SVG 1.1//EN" "http://www.w3.org/Graphics/SVG/1.1/DTD/svg11.dtd">
<svg version="1.1" id="Layer_1" xmlns="http://www.w3.org/2000/svg" xmlns:xlink="http://www.w3.org/1999/xlink" x="0px" y="0px"
	 width="113.653px" height="53.971px" viewBox="0 0 113.653 53.971" enable-background="new 0 0 113.653 53.971"
	 xml:space="preserve">
<g>
	<g>
		<g>
			<g>
				<g>
					<g>
						<g>
							<path fill="#272361" d="M25.013,52.971C11.221,52.971,0,41.75,0,27.956c0-13.788,11.221-25.01,25.013-25.01h63.63
								c13.79,0,25.011,11.223,25.011,25.01c0,13.795-11.221,25.016-25.011,25.016H25.013z"/>
							<path fill="#2E368F" d="M25.013,51.057c-12.738,0-23.101-10.359-23.101-23.102c0-12.735,10.362-23.098,23.101-23.098h63.63
								c12.736,0,23.1,10.363,23.1,23.098c0,12.742-10.363,23.102-23.1,23.102H25.013z"/>
							<path fill="#1072BA" d="M25.013,49.145c-11.683,0-21.187-9.502-21.187-21.189c0-11.68,9.504-21.186,21.187-21.186h63.63
								c11.681,0,21.185,9.506,21.185,21.186c0,11.688-9.504,21.189-21.185,21.189H25.013z"/>
							<path fill="#010101" d="M107.915,27.956c0,10.65-8.63,19.277-19.272,19.277h-63.63c-10.645,0-19.274-8.627-19.274-19.277l0,0
								c0-10.641,8.63-19.27,19.274-19.27h63.63C99.285,8.686,107.915,17.314,107.915,27.956L107.915,27.956z"/>
							<path fill="#2F2F83" d="M25.013,45.321c-9.573,0-17.361-7.789-17.361-17.365c0-9.573,7.788-17.362,17.361-17.362h63.63
								c9.571,0,17.359,7.789,17.359,17.362c0,9.576-7.788,17.365-17.359,17.365H25.013z"/>
						</g>
					</g>
				</g>
			</g>
		</g>
	</g>
	<g>
		<text transform="matrix(1 0 0 1 62.3789 38.9302)" fill="#FFFFFF" font-family="'CoconNextArabic-Light'" font-size="32.8316">00</text>
	</g>
	<g>
		<path opacity="0.5" fill="#191B23" d="M26.482,40.139c-0.558,0-1.145-0.137-1.75-0.406c-0.311-0.129-0.676-0.299-1.073-0.502
			c-0.408-0.209-0.801-0.438-1.169-0.68c-0.388-0.256-0.723-0.518-0.999-0.777c-0.526-0.498-0.784-1.014-0.784-1.582
			c0-0.662,0.326-1.287,0.992-1.912c0.42-0.412,0.938-0.895,1.526-1.424c0.576-0.518,1.216-1.076,1.9-1.662
			c0.688-0.584,1.418-1.197,2.17-1.816c0.415-0.344,0.842-0.689,1.274-1.031c-0.218-0.311-0.434-0.619-0.643-0.922
			c-0.473-0.682-0.919-1.329-1.342-1.948c-0.431-0.629-0.824-1.213-1.172-1.74c-0.351-0.531-0.655-0.994-0.911-1.385l-0.037-0.061
			l-0.01-0.02c-0.724-1.355-0.239-2.17,0.114-2.535c0.42-0.436,1.018-0.646,2.063-0.729c0.129-0.018,0.327-0.027,0.521-0.027h1.386
			c0.295,0,0.617,0.002,0.967,0.012c0.343,0.008,0.689,0.02,1.034,0.035c0.98,0.064,1.736,0.26,2.316,0.6
			c0.523,0.305,0.987,0.697,1.38,1.17l0.063,0.072l0.05,0.08c0.298,0.469,0.653,1.006,1.058,1.6l0.374,0.543
			c0.801-0.639,1.557-1.242,2.256-1.793c1.082-0.85,2.049-1.574,2.88-2.148c0.662-0.439,1.354-0.662,2.065-0.662
			c0.576,0,1.199,0.113,1.85,0.34l0.066,0.025c0.622,0.268,1.199,0.582,1.735,0.943c0.5,0.338,0.933,0.658,1.287,0.951
			c1.197,0.988,1.066,2.037,0.953,2.441c-0.166,0.607-0.562,1.15-1.174,1.611l-3.688,2.795c-1.073,0.814-2.2,1.672-3.38,2.572
			c0.698,1.008,1.371,1.984,2.021,2.924c0.842,1.223,1.638,2.363,2.367,3.389c1.065,1.18,0.53,2.158,0.34,2.432
			c-0.492,0.699-1.344,0.859-2.029,0.92c-0.643,0.037-1.285,0.053-1.925,0.053c-0.628,0-1.287-0.016-1.957-0.047
			c-0.411-0.021-0.78-0.07-1.097-0.145c-0.312-0.074-0.609-0.172-0.889-0.291c-0.31-0.133-0.602-0.305-0.871-0.508
			c-0.225-0.17-0.449-0.367-0.689-0.602c-0.33-0.305-0.785-0.838-1.384-1.623c-0.306-0.402-0.65-0.863-1.022-1.371
			c-0.762,0.615-1.49,1.217-2.17,1.793c-1.023,0.861-1.967,1.645-2.809,2.324C27.936,39.895,27.248,40.139,26.482,40.139z"/>
		<path fill="#F69321" d="M26.332,38.901c-0.488,0-1.01-0.121-1.551-0.365c-0.309-0.127-0.667-0.293-1.053-0.49
			c-0.394-0.201-0.769-0.42-1.122-0.652c-0.362-0.24-0.678-0.484-0.934-0.727c-0.424-0.4-0.632-0.801-0.632-1.229
			c0-0.523,0.275-1.031,0.838-1.559c0.42-0.412,0.934-0.893,1.519-1.418c0.572-0.516,1.209-1.07,1.895-1.652
			c0.68-0.582,1.406-1.191,2.161-1.814c0.527-0.436,1.075-0.875,1.628-1.309c-0.31-0.438-0.612-0.87-0.905-1.293
			c-0.471-0.68-0.919-1.326-1.341-1.943c-0.43-0.631-0.821-1.211-1.167-1.734c-0.352-0.531-0.654-0.994-0.911-1.383l-0.024-0.041
			l-0.007-0.014c-0.546-1.023-0.277-1.629,0.042-1.959c0.33-0.344,0.839-0.512,1.755-0.584c0.126-0.014,0.306-0.025,0.481-0.025
			h1.385c0.295,0,0.613,0.004,0.955,0.012c0.343,0.01,0.684,0.02,1.024,0.037c0.898,0.059,1.583,0.232,2.096,0.533
			c0.474,0.275,0.895,0.635,1.253,1.063l0.042,0.047l0.033,0.057c0.3,0.471,0.661,1.012,1.069,1.609
			c0.217,0.316,0.44,0.643,0.668,0.977c0.951-0.764,1.846-1.477,2.66-2.119c1.072-0.846,2.032-1.563,2.855-2.131
			c0.575-0.383,1.174-0.574,1.788-0.574c0.523,0,1.092,0.104,1.689,0.311l0.053,0.02c0.583,0.252,1.128,0.549,1.638,0.895
			c0.488,0.33,0.908,0.641,1.248,0.924c0.945,0.777,0.906,1.549,0.798,1.939c-0.14,0.502-0.476,0.957-0.998,1.354
			c-0.899,0.68-3.689,2.795-3.689,2.795c-1.185,0.899-2.437,1.85-3.751,2.856c0.793,1.143,1.555,2.242,2.285,3.303
			c0.854,1.24,1.656,2.391,2.386,3.418c0.827,0.896,0.5,1.592,0.321,1.85c-0.374,0.531-1.057,0.66-1.675,0.715
			c-0.626,0.033-1.253,0.051-1.882,0.051c-0.621,0-1.272-0.016-1.933-0.049c-0.385-0.018-0.721-0.063-1.007-0.131
			c-0.285-0.068-0.558-0.156-0.812-0.266c-0.271-0.117-0.531-0.268-0.77-0.447c-0.209-0.158-0.421-0.342-0.644-0.561
			c-0.317-0.293-0.756-0.809-1.338-1.57c-0.387-0.51-0.826-1.105-1.313-1.775c-0.913,0.73-1.777,1.441-2.577,2.119
			c-1.026,0.865-1.968,1.645-2.8,2.318C27.566,38.692,26.983,38.901,26.332,38.901z"/>
		<path fill="#F15B2A" d="M26.332,38.417c-0.42,0-0.876-0.109-1.356-0.322c-0.3-0.125-0.65-0.287-1.026-0.48
			c-0.379-0.193-0.742-0.404-1.075-0.623c-0.343-0.229-0.635-0.453-0.87-0.678c-0.32-0.303-0.479-0.59-0.479-0.875
			c0-0.381,0.223-0.775,0.686-1.205c0.424-0.416,0.936-0.895,1.511-1.41c0.57-0.516,1.205-1.07,1.883-1.646
			c0.685-0.582,1.408-1.189,2.154-1.807c0.638-0.525,1.305-1.059,1.984-1.588c-0.399-0.561-0.792-1.12-1.169-1.665
			c-0.47-0.68-0.919-1.326-1.34-1.943c-0.426-0.621-0.816-1.201-1.163-1.725c-0.35-0.531-0.653-0.994-0.908-1.383l-0.011-0.02
			l-0.012-0.02c-0.318-0.6-0.327-1.061-0.024-1.373c0.237-0.244,0.669-0.377,1.441-0.436c0.126-0.016,0.286-0.025,0.446-0.025h1.385
			c0.291,0,0.605,0.004,0.943,0.012c0.34,0.008,0.676,0.021,1.016,0.035c0.814,0.055,1.425,0.207,1.871,0.469
			c0.426,0.248,0.804,0.568,1.126,0.955l0.022,0.025l0.017,0.027c0.311,0.486,0.673,1.031,1.077,1.621
			c0.311,0.453,0.631,0.926,0.964,1.412c1.106-0.891,2.136-1.715,3.063-2.445c1.063-0.838,2.016-1.549,2.83-2.113
			c0.492-0.326,0.998-0.49,1.515-0.49c0.47,0,0.984,0.096,1.532,0.287l0.035,0.014c0.537,0.23,1.057,0.514,1.54,0.842
			c0.475,0.32,0.882,0.621,1.211,0.895c0.699,0.576,0.734,1.102,0.643,1.439c-0.112,0.396-0.39,0.766-0.829,1.098
			c-0.895,0.678-3.688,2.795-3.688,2.795c-1.295,0.983-2.669,2.028-4.118,3.135c0.888,1.279,1.737,2.506,2.546,3.682
			c0.865,1.256,1.674,2.418,2.41,3.451c0.561,0.594,0.474,1.016,0.299,1.266c-0.204,0.293-0.6,0.445-1.32,0.508
			c-0.605,0.035-1.218,0.049-1.838,0.049c-0.618,0-1.262-0.014-1.91-0.045c-0.349-0.018-0.658-0.059-0.918-0.119
			s-0.506-0.143-0.73-0.238c-0.235-0.102-0.461-0.234-0.67-0.391c-0.19-0.145-0.387-0.314-0.598-0.521
			c-0.304-0.279-0.727-0.777-1.29-1.518c-0.464-0.607-1.003-1.338-1.603-2.178c-1.073,0.854-2.076,1.676-2.986,2.445
			c-1.04,0.881-1.979,1.656-2.792,2.311C27.351,38.245,26.867,38.417,26.332,38.417z"/>
		<g>
			<path fill="#F7AE1A" d="M38.474,21.344c0.999-0.803,1.881-1.477,2.646-2.016c0.376-0.256,0.761-0.383,1.15-0.383
				c0.389,0,0.818,0.082,1.284,0.246c0.48,0.211,0.939,0.467,1.375,0.768c0.436,0.299,0.803,0.578,1.105,0.832
				c0.372,0.316,0.522,0.613,0.449,0.893c-0.077,0.277-0.278,0.543-0.608,0.799c-0.991,0.766-2.151,1.664-3.481,2.693
				c-1.329,1.029-2.745,2.129-4.249,3.301c0.93,1.367,1.818,2.674,2.659,3.92c0.842,1.248,1.609,2.367,2.299,3.359
				c0.271,0.285,0.357,0.498,0.261,0.643c-0.099,0.143-0.396,0.234-0.891,0.279c-1.096,0.061-2.253,0.061-3.47,0
				c-0.303-0.014-0.562-0.047-0.778-0.1c-0.218-0.053-0.421-0.121-0.608-0.203s-0.364-0.188-0.529-0.316
				c-0.166-0.127-0.338-0.281-0.52-0.463c-0.27-0.254-0.662-0.723-1.17-1.406c-0.512-0.684-1.113-1.521-1.805-2.514
				c-1.172,0.947-2.248,1.846-3.232,2.693c-0.985,0.85-1.859,1.588-2.625,2.221c-0.557,0.465-1.263,0.502-2.119,0.111
				c-0.286-0.119-0.601-0.27-0.945-0.449c-0.347-0.182-0.67-0.373-0.971-0.576c-0.299-0.203-0.551-0.402-0.754-0.596
				c-0.203-0.195-0.307-0.361-0.307-0.496c0-0.227,0.168-0.496,0.499-0.813c0.404-0.404,0.876-0.855,1.418-1.352
				s1.13-1.021,1.771-1.578c0.637-0.555,1.313-1.133,2.026-1.734s1.454-1.203,2.22-1.803c-0.464-0.661-0.92-1.319-1.361-1.971
				c-0.444-0.654-0.865-1.277-1.262-1.873c-0.4-0.592-0.765-1.145-1.095-1.656c-0.33-0.508-0.617-0.951-0.856-1.328
				c-0.194-0.375-0.229-0.631-0.101-0.766c0.127-0.137,0.474-0.225,1.047-0.271c0.121-0.014,0.246-0.023,0.384-0.023
				c0.149,0,0.301,0,0.451,0h0.855c0.27,0,0.563,0.006,0.879,0.014c0.314,0.008,0.632,0.02,0.947,0.033
				c0.675,0.045,1.19,0.172,1.542,0.383c0.354,0.211,0.667,0.48,0.936,0.811c0.302,0.482,0.643,1.008,1.026,1.578
				c0.383,0.572,0.784,1.172,1.205,1.803C36.373,23.045,37.473,22.148,38.474,21.344z"/>
		</g>
		<path fill="#FFFFFF" d="M42.893,19.744c0.211,0.414-0.07,0.941-0.607,1.225c-0.537,0.281-1.161,0.234-1.414-0.143
			c-0.254-0.381-0.014-0.979,0.563-1.295C42.016,19.217,42.68,19.332,42.893,19.744z"/>
		<path fill="#FFFFFF" d="M35.566,25.801c-0.209-0.357,0.746-1.227,1.95-2.197c1.204-0.973,2.244-1.74,2.532-1.477
			c0.285,0.264-0.338,1.549-1.619,2.611C37.146,25.803,35.774,26.156,35.566,25.801z"/>
	</g>
</g>
</svg>
