<?xml version="1.0" encoding="utf-8"?>
<!-- Generator: Adobe Illustrator 16.0.0, SVG Export Plug-In . SVG Version: 6.00 Build 0)  -->
<!DOCTYPE svg PUBLIC "-//W3C//DTD SVG 1.1//EN" "http://www.w3.org/Graphics/SVG/1.1/DTD/svg11.dtd">
<svg version="1.1" id="Layer_1" xmlns="http://www.w3.org/2000/svg" xmlns:xlink="http://www.w3.org/1999/xlink" x="0px" y="0px"
	 width="28.238px" height="21.92px" viewBox="0 0 28.238 21.92" enable-background="new 0 0 28.238 21.92" xml:space="preserve">
<g>
	<path opacity="0.5" fill="#191B23" d="M5.775,21.92c-0.559,0-1.145-0.137-1.75-0.406c-0.311-0.129-0.676-0.299-1.074-0.502
		c-0.408-0.209-0.801-0.438-1.168-0.68c-0.389-0.256-0.723-0.518-1-0.777C0.258,19.057,0,18.542,0,17.973
		c0-0.662,0.326-1.287,0.992-1.912c0.42-0.412,0.938-0.895,1.525-1.424c0.576-0.518,1.217-1.076,1.9-1.662
		c0.689-0.584,1.418-1.197,2.17-1.816c0.416-0.344,0.842-0.689,1.275-1.031C7.645,9.817,7.43,9.508,7.221,9.206
		c-0.473-0.683-0.92-1.329-1.342-1.948c-0.432-0.629-0.824-1.213-1.172-1.74C4.355,4.986,4.051,4.523,3.795,4.132L3.758,4.072
		l-0.01-0.02C3.025,2.697,3.51,1.883,3.863,1.518c0.42-0.436,1.018-0.646,2.063-0.729c0.129-0.018,0.328-0.027,0.521-0.027h1.387
		c0.295,0,0.617,0.002,0.967,0.012c0.342,0.008,0.689,0.02,1.033,0.035c0.98,0.064,1.736,0.26,2.316,0.6
		c0.523,0.305,0.988,0.697,1.381,1.169l0.063,0.072l0.051,0.08c0.297,0.469,0.652,1.006,1.057,1.6l0.375,0.543
		c0.801-0.639,1.557-1.242,2.256-1.793c1.082-0.85,2.049-1.574,2.879-2.148c0.662-0.439,1.355-0.662,2.066-0.662
		c0.576,0,1.199,0.113,1.85,0.34l0.066,0.025c0.621,0.268,1.199,0.582,1.734,0.943c0.5,0.338,0.934,0.658,1.287,0.951
		c1.197,0.988,1.066,2.037,0.953,2.441c-0.166,0.607-0.561,1.15-1.174,1.611l-3.688,2.796c-1.074,0.814-2.201,1.672-3.381,2.572
		c0.699,1.008,1.371,1.984,2.021,2.924c0.842,1.223,1.637,2.363,2.367,3.389c1.064,1.18,0.529,2.158,0.34,2.432
		c-0.492,0.699-1.344,0.859-2.029,0.92c-0.643,0.037-1.285,0.053-1.926,0.053c-0.627,0-1.287-0.016-1.957-0.047
		c-0.41-0.021-0.779-0.07-1.096-0.145c-0.313-0.074-0.609-0.172-0.889-0.291c-0.311-0.133-0.602-0.305-0.871-0.508
		c-0.225-0.17-0.449-0.367-0.689-0.602c-0.33-0.305-0.785-0.838-1.385-1.623c-0.305-0.402-0.65-0.863-1.021-1.371
		c-0.762,0.615-1.49,1.217-2.17,1.793c-1.023,0.861-1.967,1.645-2.809,2.324C7.229,21.676,6.541,21.92,5.775,21.92z"/>
	<path fill="#F69321" d="M5.625,20.682c-0.488,0-1.01-0.121-1.551-0.365c-0.309-0.127-0.668-0.293-1.053-0.49
		c-0.395-0.201-0.77-0.42-1.123-0.652c-0.361-0.24-0.678-0.484-0.934-0.727c-0.424-0.4-0.631-0.801-0.631-1.229
		c0-0.523,0.275-1.031,0.838-1.559c0.42-0.412,0.934-0.893,1.518-1.418c0.572-0.516,1.209-1.07,1.895-1.652
		c0.68-0.582,1.406-1.191,2.162-1.814C7.273,10.34,7.82,9.901,8.373,9.467C8.064,9.03,7.762,8.597,7.469,8.173
		c-0.471-0.68-0.92-1.326-1.342-1.943c-0.43-0.631-0.82-1.211-1.166-1.734C4.609,3.964,4.307,3.501,4.049,3.113L4.025,3.072
		L4.018,3.058C3.473,2.035,3.74,1.43,4.061,1.1c0.33-0.344,0.838-0.512,1.754-0.584C5.941,0.502,6.121,0.49,6.297,0.49h1.385
		c0.295,0,0.613,0.004,0.955,0.012c0.342,0.01,0.684,0.02,1.023,0.037c0.898,0.059,1.584,0.232,2.096,0.533
		c0.475,0.275,0.895,0.635,1.254,1.062l0.041,0.047l0.033,0.057c0.301,0.471,0.662,1.012,1.07,1.609
		c0.217,0.316,0.439,0.643,0.668,0.977c0.951-0.764,1.846-1.477,2.66-2.119c1.072-0.845,2.031-1.562,2.855-2.13
		C20.912,0.191,21.512,0,22.125,0c0.523,0,1.092,0.104,1.689,0.311l0.053,0.02c0.584,0.252,1.129,0.549,1.639,0.895
		c0.488,0.33,0.908,0.641,1.248,0.923c0.945,0.777,0.906,1.549,0.797,1.939c-0.139,0.502-0.475,0.957-0.998,1.354
		c-0.898,0.68-3.689,2.795-3.689,2.795c-1.184,0.899-2.436,1.851-3.75,2.856c0.793,1.143,1.555,2.242,2.285,3.303
		c0.854,1.24,1.656,2.391,2.385,3.418c0.828,0.896,0.5,1.592,0.322,1.85c-0.375,0.531-1.057,0.66-1.676,0.715
		c-0.625,0.033-1.252,0.051-1.881,0.051c-0.621,0-1.273-0.016-1.934-0.049c-0.385-0.018-0.721-0.063-1.006-0.131
		s-0.559-0.156-0.813-0.266c-0.27-0.117-0.531-0.268-0.77-0.447c-0.209-0.158-0.42-0.342-0.643-0.561
		c-0.318-0.293-0.756-0.809-1.338-1.57c-0.387-0.51-0.826-1.105-1.313-1.775c-0.914,0.73-1.777,1.441-2.578,2.119
		c-1.025,0.865-1.967,1.645-2.799,2.318C6.859,20.473,6.275,20.682,5.625,20.682z"/>
	<path fill="#F15B2A" d="M5.625,20.198c-0.42,0-0.877-0.109-1.357-0.322c-0.299-0.125-0.65-0.287-1.025-0.48
		c-0.379-0.193-0.742-0.404-1.076-0.623c-0.342-0.229-0.635-0.453-0.869-0.678c-0.32-0.303-0.479-0.59-0.479-0.875
		c0-0.381,0.223-0.775,0.686-1.205c0.424-0.416,0.936-0.895,1.51-1.41c0.57-0.516,1.205-1.07,1.883-1.646
		c0.686-0.582,1.408-1.189,2.154-1.807c0.639-0.525,1.305-1.059,1.984-1.588c-0.398-0.561-0.791-1.12-1.168-1.665
		c-0.471-0.68-0.92-1.326-1.34-1.943C6.102,5.333,5.711,4.753,5.363,4.23c-0.35-0.531-0.652-0.994-0.908-1.383l-0.01-0.02
		l-0.012-0.02c-0.318-0.6-0.328-1.06-0.025-1.373C4.646,1.191,5.078,1.059,5.85,1c0.127-0.016,0.287-0.025,0.447-0.025h1.385
		c0.291,0,0.605,0.004,0.943,0.012c0.34,0.008,0.676,0.021,1.016,0.035c0.814,0.055,1.424,0.207,1.871,0.469
		c0.426,0.248,0.803,0.568,1.125,0.955L12.66,2.47l0.016,0.027c0.311,0.486,0.674,1.031,1.078,1.621
		c0.311,0.453,0.631,0.926,0.963,1.412c1.107-0.891,2.137-1.715,3.064-2.445c1.063-0.838,2.016-1.548,2.83-2.113
		c0.492-0.326,0.998-0.49,1.514-0.49c0.471,0,0.984,0.096,1.533,0.287l0.035,0.014c0.537,0.23,1.057,0.514,1.539,0.842
		c0.475,0.32,0.883,0.621,1.211,0.894c0.699,0.576,0.734,1.102,0.643,1.439c-0.111,0.396-0.389,0.766-0.828,1.098
		c-0.895,0.678-3.688,2.795-3.688,2.795c-1.295,0.983-2.67,2.028-4.119,3.136c0.889,1.279,1.738,2.506,2.547,3.682
		c0.865,1.256,1.674,2.418,2.41,3.451c0.561,0.594,0.473,1.016,0.299,1.266c-0.205,0.293-0.6,0.445-1.32,0.508
		c-0.605,0.035-1.219,0.049-1.838,0.049s-1.262-0.014-1.91-0.045c-0.35-0.018-0.658-0.059-0.918-0.119s-0.506-0.143-0.73-0.238
		c-0.236-0.102-0.461-0.234-0.67-0.391c-0.191-0.145-0.387-0.314-0.598-0.521c-0.305-0.279-0.727-0.777-1.291-1.518
		c-0.463-0.607-1.002-1.338-1.602-2.178c-1.074,0.854-2.076,1.676-2.986,2.445c-1.041,0.881-1.98,1.656-2.793,2.311
		C6.643,20.026,6.16,20.198,5.625,20.198z"/>
	<g>
		<path fill="#F7AE1A" d="M17.766,3.125c1-0.803,1.881-1.476,2.646-2.015c0.377-0.256,0.762-0.383,1.15-0.383
			s0.818,0.082,1.285,0.246c0.48,0.211,0.939,0.467,1.375,0.768c0.436,0.298,0.803,0.578,1.105,0.832
			c0.371,0.316,0.521,0.613,0.449,0.893c-0.078,0.277-0.279,0.543-0.609,0.799c-0.99,0.766-2.15,1.664-3.48,2.693
			s-2.746,2.13-4.25,3.302c0.93,1.367,1.818,2.674,2.66,3.92c0.842,1.248,1.609,2.367,2.299,3.359
			c0.271,0.285,0.357,0.498,0.26,0.643c-0.098,0.143-0.395,0.234-0.891,0.279c-1.096,0.061-2.252,0.061-3.469,0
			c-0.303-0.014-0.563-0.047-0.779-0.1s-0.42-0.121-0.607-0.203s-0.365-0.188-0.529-0.316c-0.166-0.127-0.338-0.281-0.52-0.463
			c-0.27-0.254-0.662-0.723-1.17-1.406c-0.512-0.684-1.113-1.521-1.805-2.514c-1.172,0.947-2.248,1.846-3.232,2.693
			C8.668,17,7.795,17.739,7.029,18.372c-0.557,0.465-1.264,0.502-2.119,0.111c-0.287-0.119-0.602-0.27-0.945-0.449
			c-0.348-0.182-0.67-0.373-0.971-0.576c-0.299-0.203-0.551-0.402-0.754-0.596c-0.203-0.195-0.307-0.361-0.307-0.496
			c0-0.227,0.168-0.496,0.498-0.813c0.404-0.404,0.877-0.855,1.418-1.352c0.543-0.496,1.131-1.021,1.771-1.578
			c0.637-0.555,1.313-1.133,2.025-1.734c0.715-0.602,1.455-1.203,2.221-1.803c-0.465-0.661-0.92-1.319-1.361-1.972
			C8.061,6.46,7.641,5.837,7.244,5.242c-0.4-0.592-0.766-1.145-1.096-1.656c-0.33-0.508-0.617-0.951-0.855-1.328
			c-0.195-0.375-0.23-0.63-0.102-0.765c0.127-0.137,0.475-0.225,1.047-0.271c0.121-0.014,0.246-0.023,0.385-0.023
			c0.148,0,0.301,0,0.451,0H7.93c0.27,0,0.563,0.006,0.879,0.014c0.314,0.008,0.631,0.02,0.947,0.033
			c0.674,0.045,1.189,0.172,1.541,0.383c0.354,0.211,0.668,0.48,0.936,0.81c0.303,0.482,0.643,1.008,1.027,1.578
			c0.383,0.572,0.783,1.172,1.205,1.803C15.666,4.826,16.766,3.929,17.766,3.125z"/>
	</g>
	<path fill="#FFFFFF" d="M22.186,1.525c0.211,0.414-0.07,0.941-0.607,1.224c-0.537,0.281-1.162,0.234-1.414-0.143
		c-0.254-0.381-0.014-0.978,0.563-1.294C21.309,0.998,21.973,1.113,22.186,1.525z"/>
	<path fill="#FFFFFF" d="M14.859,7.582c-0.209-0.357,0.746-1.227,1.949-2.197c1.205-0.973,2.244-1.74,2.533-1.477
		c0.285,0.264-0.338,1.549-1.619,2.611C16.439,7.583,15.066,7.937,14.859,7.582z"/>
</g>
</svg>
