<?xml version="1.0" encoding="utf-8"?>
<!-- Generator: Adobe Illustrator 16.0.0, SVG Export Plug-In . SVG Version: 6.00 Build 0)  -->
<!DOCTYPE svg PUBLIC "-//W3C//DTD SVG 1.1//EN" "http://www.w3.org/Graphics/SVG/1.1/DTD/svg11.dtd">
<svg version="1.1" id="Layer_1" xmlns="http://www.w3.org/2000/svg" xmlns:xlink="http://www.w3.org/1999/xlink" x="0px" y="0px"
	 width="57.596px" height="115.324px" viewBox="0 0 57.596 115.324" enable-background="new 0 0 57.596 115.324"
	 xml:space="preserve">
<g>
	<g opacity="0.2">
		<path opacity="0.1" fill-rule="evenodd" clip-rule="evenodd" d="M0.005,110.947c0.445-2.697,3.204-3.152,6.012-4.588
			c9.966-5.1,22.523-12.08,31.834-17.533c2.515,1.066,19.425,5.24,19.739,6.285c0.188,0.625-4.488,2.891-5.542,3.408l-4.343,2.234
			l-20.911,10.756l-5.445,2.801l-1.752,0.932c-1.22,0.6-16.241-2.287-17.083-2.658C-0.797,111.166,0.187,111.859,0.005,110.947z"/>
		<path opacity="0.1" fill-rule="evenodd" clip-rule="evenodd" d="M0.005,110.939c0.562-2.623,3.204-3.145,6.012-4.58
			c9.966-5.1,22.433-12.014,31.744-17.468c2.515,1.067,18.622,5.052,18.937,6.097c0.188,0.625-4.404,2.847-5.458,3.364l-4.244,2.062
			L25.906,111.25l-5.327,2.862l-1.752,0.933c-1.22,0.599-15.345-2.109-16.187-2.48C-0.463,111.235,0.175,111.793,0.005,110.939z"/>
		<path opacity="0.1" fill-rule="evenodd" clip-rule="evenodd" d="M0.005,110.93c0.679-2.548,3.204-3.136,6.012-4.571
			c9.966-5.1,22.343-11.948,31.653-17.401c2.515,1.067,17.821,4.862,18.135,5.907c0.188,0.625-4.32,2.803-5.374,3.319l-4.146,1.889
			l-21.268,10.918l-5.208,2.923l-1.752,0.933c-1.219,0.6-14.449-1.931-15.291-2.302C-0.13,111.304,0.164,111.728,0.005,110.93z"/>
		<path opacity="0.1" fill-rule="evenodd" clip-rule="evenodd" d="M0.005,110.921c0.796-2.473,3.204-3.127,6.012-4.563
			c9.966-5.1,22.253-11.882,31.563-17.335c2.516,1.066,17.02,4.672,17.334,5.717c0.188,0.626-4.237,2.759-5.291,3.276l-4.048,1.715
			l-21.445,10.999l-5.089,2.985l-1.752,0.932c-1.22,0.601-13.553-1.752-14.395-2.123C0.203,111.373,0.152,111.663,0.005,110.921z"/>
		<path opacity="0.1" fill-rule="evenodd" clip-rule="evenodd" d="M0.005,110.914c0.912-2.398,3.204-3.119,6.012-4.555
			c9.966-5.1,22.163-11.816,31.473-17.27c2.516,1.066,16.217,4.483,16.531,5.528c0.188,0.626-4.153,2.715-5.207,3.231l-3.949,1.543
			l-21.623,11.08l-4.972,3.047l-1.752,0.932c-1.219,0.6-12.656-1.574-13.498-1.945C0.536,111.442,0.141,111.597,0.005,110.914z"/>
		<path opacity="0.1" fill-rule="evenodd" clip-rule="evenodd" d="M0.005,110.906c1.029-2.324,3.204-3.111,6.012-4.547
			c9.966-5.1,22.072-11.75,31.383-17.203c2.515,1.066,15.414,4.294,15.729,5.339c0.188,0.626-4.069,2.671-5.123,3.188l-3.851,1.369
			l-21.802,11.16l-4.853,3.108l-1.752,0.933c-1.219,0.6-11.76-1.396-12.603-1.768C0.87,111.511,0.13,111.533,0.005,110.906z"/>
		<path opacity="0.1" fill-rule="evenodd" clip-rule="evenodd" d="M0.005,110.897c1.146-2.248,3.204-3.103,6.012-4.538
			c9.966-5.1,21.982-11.684,31.292-17.138c2.515,1.067,14.612,4.104,14.927,5.149c0.188,0.626-3.985,2.627-5.039,3.145l-3.752,1.196
			l-21.98,11.241l-4.734,3.17l-1.752,0.933c-1.22,0.6-10.864-1.218-11.707-1.589C1.203,111.58,0.118,111.467,0.005,110.897z"/>
		<path opacity="0.1" fill-rule="evenodd" clip-rule="evenodd" d="M0.005,110.888c1.263-2.173,3.204-3.094,6.012-4.529
			c9.966-5.1,21.893-11.617,31.202-17.072c2.515,1.067,13.81,3.916,14.125,4.961c0.188,0.626-3.902,2.583-4.956,3.1l-3.653,1.023
			l-22.158,11.322l-4.615,3.232l-1.752,0.932c-1.22,0.6-9.968-1.038-10.811-1.41C1.536,111.649,0.107,111.402,0.005,110.888z"/>
		<path opacity="0.1" fill-rule="evenodd" clip-rule="evenodd" d="M0.005,110.88c1.379-2.099,3.204-3.086,6.012-4.521
			c9.966-5.1,21.802-11.552,31.111-17.006c2.516,1.067,13.008,3.727,13.323,4.771c0.188,0.626-3.818,2.539-4.872,3.056l-3.555,0.851
			l-22.336,11.403l-4.497,3.293l-1.752,0.933c-1.219,0.6-9.072-0.86-9.914-1.232C1.87,111.718,0.096,111.336,0.005,110.88z"/>
		<path opacity="0.1" fill-rule="evenodd" clip-rule="evenodd" d="M0.005,110.873c1.496-2.024,3.204-3.078,6.012-4.514
			c9.966-5.1,21.712-11.486,31.021-16.939c2.516,1.067,12.206,3.537,12.521,4.582c0.188,0.626-3.734,2.495-4.788,3.012l-3.457,0.678
			L18.8,109.175l-4.378,3.354l-1.752,0.934c-1.219,0.6-8.175-0.683-9.018-1.055C2.203,111.788,0.084,111.271,0.005,110.873z"/>
		<path opacity="0.1" fill-rule="evenodd" clip-rule="evenodd" d="M0.005,110.864c1.613-1.949,3.204-3.069,6.012-4.505
			c9.966-5.1,21.622-11.42,30.932-16.874c2.516,1.067,11.403,3.349,11.719,4.394c0.188,0.626-3.651,2.451-4.705,2.967l-3.358,0.505
			l-22.692,11.565l-4.26,3.416l-1.752,0.933c-1.219,0.6-7.279-0.504-8.122-0.876C2.536,111.857,0.073,111.206,0.005,110.864z"/>
		<path opacity="0.1" fill-rule="evenodd" clip-rule="evenodd" d="M0.005,110.855c1.729-1.873,3.204-3.061,6.012-4.496
			c9.966-5.1,21.532-11.354,30.841-16.809c2.516,1.068,10.602,3.159,10.917,4.204c0.188,0.626-3.567,2.407-4.621,2.924l-3.26,0.331
			l-22.87,11.646l-4.142,3.479l-1.752,0.932c-1.219,0.6-6.383-0.324-7.226-0.697C2.87,111.925,0.062,111.14,0.005,110.855z"/>
		<path opacity="0.1" fill-rule="evenodd" clip-rule="evenodd" d="M0.005,110.847c1.847-1.799,3.204-3.053,6.012-4.488
			c9.966-5.1,21.441-11.287,30.75-16.742c2.516,1.068,9.8,2.97,10.115,4.015c0.188,0.626-3.483,2.363-4.537,2.88l-3.161,0.158
			l-23.049,11.727l-4.022,3.539l-1.752,0.934c-1.219,0.6-5.487-0.146-6.33-0.52C3.203,111.995,0.05,111.076,0.005,110.847z"/>
		<path opacity="0.1" fill-rule="evenodd" clip-rule="evenodd" d="M0.005,110.838c1.963-1.724,3.204-3.044,6.012-4.479
			c9.966-5.1,21.352-11.222,30.66-16.676c2.516,1.067,8.998,2.78,9.313,3.825c0.188,0.626-3.399,2.319-4.453,2.835l-3.063-0.014
			l-23.227,11.808l-3.904,3.601l-1.752,0.934c-1.219,0.6-4.591,0.03-5.433-0.342C3.536,112.064,0.039,111.009,0.005,110.838z"/>
		<path opacity="0.1" fill-rule="evenodd" clip-rule="evenodd" d="M0.005,110.831c2.08-1.649,3.204-3.036,6.012-4.472
			c9.966-5.1,21.261-11.155,30.57-16.61c2.516,1.068,8.195,2.591,8.51,3.636c0.188,0.627-3.315,2.275-4.369,2.791l-2.964-0.187
			l-23.405,11.889l-3.786,3.662l-1.752,0.934c-1.219,0.6-3.694,0.21-4.537-0.163C3.87,112.132,0.027,110.945,0.005,110.831z"/>
		<path opacity="0.1" fill-rule="evenodd" clip-rule="evenodd" d="M0.005,110.823c2.197-1.575,3.204-3.028,6.012-4.464
			c9.966-5.1,21.171-11.09,30.48-16.545c2.516,1.068,7.393,2.402,7.708,3.447c0.188,0.627-3.232,2.231-4.286,2.747l-2.866-0.36
			L13.47,107.619l-3.667,3.724l-1.751,0.933c-1.219,0.6-2.799,0.389-3.642,0.016C4.203,112.202,0.016,110.879,0.005,110.823z"/>
		<path opacity="0.1" fill-rule="evenodd" clip-rule="evenodd" d="M0.005,110.814c2.313-1.5,3.204-3.02,6.012-4.455
			c9.966-5.1,21.081-11.023,30.39-16.479c2.516,1.068,6.591,2.213,6.906,3.258c0.188,0.627-3.148,2.188-4.202,2.703l-2.768-0.533
			l-23.761,12.051l-3.549,3.785l-1.752,0.934c-1.219,0.6-1.902,0.566-2.745,0.193L0.005,110.814z"/>
		<path opacity="0.1563" fill-rule="evenodd" clip-rule="evenodd" d="M0.047,110.8c2.197-1.575,3.162-3.006,5.97-4.441
			c9.966-5.1,21.049-11.001,30.357-16.457c2.516,1.068,6.552,2.214,6.868,3.258c0.188,0.627-3.065,2.127-4.119,2.643l-2.855-0.592
			l-23.986,12.128l-3.313,3.772l-1.752,0.934c-1.219,0.6-1.925,0.566-2.768,0.193C4.242,112.149,0.059,110.857,0.047,110.8z"/>
		<path opacity="0.2125" fill-rule="evenodd" clip-rule="evenodd" d="M0.089,110.787c2.081-1.65,3.12-2.992,5.928-4.428
			c9.966-5.1,21.017-10.979,30.325-16.435c2.516,1.068,6.514,2.213,6.829,3.258c0.188,0.627-2.981,2.066-4.035,2.582l-2.942-0.65
			l-24.212,12.205l-3.077,3.759l-1.752,0.934c-1.219,0.6-1.949,0.566-2.791,0.193C3.947,112.028,0.112,110.901,0.089,110.787z"/>
		<path opacity="0.2688" fill-rule="evenodd" clip-rule="evenodd" d="M0.131,110.772c1.963-1.725,3.078-2.978,5.885-4.413
			c9.966-5.1,20.984-10.957,30.293-16.412c2.516,1.068,6.475,2.213,6.79,3.258c0.188,0.627-2.896,2.006-3.951,2.521l-3.03-0.709
			l-24.438,12.281l-2.841,3.746l-1.752,0.934c-1.219,0.6-1.972,0.566-2.814,0.194C3.653,111.907,0.166,110.944,0.131,110.772z"/>
		<path opacity="0.325" fill-rule="evenodd" clip-rule="evenodd" d="M0.173,110.758c1.847-1.8,3.036-2.964,5.843-4.399
			c9.966-5.1,20.952-10.936,30.261-16.391c2.516,1.068,6.437,2.213,6.751,3.258c0.188,0.627-2.813,1.945-3.866,2.461l-3.119-0.768
			L11.38,107.279l-2.604,3.733l-1.752,0.933c-1.219,0.6-1.995,0.566-2.837,0.194C3.358,111.785,0.219,110.987,0.173,110.758z"/>
		<path opacity="0.3812" fill-rule="evenodd" clip-rule="evenodd" d="M0.215,110.745c1.73-1.874,2.994-2.95,5.801-4.386
			c9.966-5.1,20.92-10.913,30.229-16.368c2.516,1.068,6.397,2.213,6.713,3.257c0.188,0.627-2.729,1.885-3.783,2.401l-3.207-0.827
			L11.08,107.258l-2.369,3.722l-1.752,0.932c-1.219,0.6-2.018,0.567-2.86,0.194C3.064,111.664,0.272,111.031,0.215,110.745z"/>
		<path opacity="0.4375" fill-rule="evenodd" clip-rule="evenodd" d="M0.258,110.73c1.613-1.949,2.951-2.936,5.759-4.371
			c9.966-5.1,20.888-10.891,30.197-16.346c2.515,1.068,6.357,2.213,6.674,3.257c0.188,0.627-2.646,1.824-3.7,2.341l-3.295-0.886
			L10.78,107.238l-2.133,3.709l-1.751,0.933c-1.219,0.6-2.041,0.566-2.884,0.194C2.77,111.542,0.326,111.073,0.258,110.73z"/>
		<path opacity="0.4938" fill-rule="evenodd" clip-rule="evenodd" d="M0.3,110.716c1.496-2.023,2.909-2.922,5.717-4.357
			c9.966-5.1,20.855-10.869,30.164-16.324c2.516,1.068,6.32,2.213,6.635,3.258c0.188,0.627-2.562,1.764-3.615,2.279l-3.383-0.943
			l-25.338,12.59l-1.897,3.695l-1.752,0.933c-1.219,0.6-2.063,0.565-2.907,0.194C2.476,111.419,0.38,111.117,0.3,110.716z"/>
		<path opacity="0.55" fill-rule="evenodd" clip-rule="evenodd" d="M0.342,110.703c1.38-2.099,2.867-2.908,5.675-4.344
			c9.966-5.1,20.823-10.847,30.133-16.302c2.515,1.068,6.281,2.213,6.596,3.257c0.188,0.627-2.479,1.703-3.531,2.22l-3.471-1.003
			l-25.564,12.667l-1.661,3.683l-1.752,0.933c-1.219,0.6-2.087,0.566-2.93,0.194C2.181,111.298,0.433,111.16,0.342,110.703z"/>
		<path opacity="0.6062" fill-rule="evenodd" clip-rule="evenodd" d="M0.384,110.689c1.263-2.174,2.825-2.895,5.633-4.33
			c9.966-5.1,20.791-10.824,30.1-16.279c2.516,1.068,6.243,2.213,6.558,3.256c0.188,0.627-2.394,1.643-3.447,2.16l-3.558-1.063
			L9.878,107.177l-1.424,3.67l-1.753,0.933c-1.219,0.6-2.11,0.566-2.953,0.194C1.887,111.177,0.487,111.203,0.384,110.689z"/>
		<path opacity="0.6625" fill-rule="evenodd" clip-rule="evenodd" d="M0.426,110.675c1.147-2.249,2.783-2.881,5.591-4.316
			c9.966-5.1,20.759-10.803,30.068-16.258c2.515,1.068,6.203,2.213,6.518,3.257c0.189,0.627-2.31,1.582-3.363,2.099l-3.646-1.12
			L9.578,107.158l-1.188,3.656l-1.752,0.933c-1.219,0.6-2.134,0.567-2.976,0.194C1.592,111.055,0.54,111.247,0.426,110.675z"/>
		<path opacity="0.7188" fill-rule="evenodd" clip-rule="evenodd" d="M0.468,110.661c1.03-2.323,2.741-2.866,5.548-4.302
			c9.966-5.1,20.727-10.78,30.036-16.235c2.515,1.068,6.165,2.213,6.479,3.257c0.189,0.627-2.227,1.521-3.28,2.038l-3.733-1.179
			L9.277,107.137l-0.953,3.645l-1.751,0.933c-1.22,0.6-2.157,0.565-3,0.194C1.298,110.933,0.594,111.289,0.468,110.661z"/>
		<path opacity="0.775" fill-rule="evenodd" clip-rule="evenodd" d="M0.51,110.647c0.913-2.397,2.699-2.853,5.506-4.288
			c9.966-5.1,20.694-10.758,30.004-16.213c2.515,1.068,6.126,2.213,6.441,3.256c0.188,0.627-2.144,1.461-3.197,1.979l-3.821-1.238
			L8.978,107.117l-0.717,3.632l-1.752,0.933c-1.22,0.6-2.18,0.566-3.023,0.194C1.004,110.812,0.647,111.333,0.51,110.647z"/>
		<path opacity="0.8313" fill-rule="evenodd" clip-rule="evenodd" d="M0.552,110.633c0.796-2.474,2.657-2.839,5.464-4.274
			c9.966-5.1,20.662-10.736,29.971-16.191c2.516,1.068,6.088,2.213,6.403,3.257c0.188,0.626-2.06,1.4-3.113,1.917l-3.909-1.297
			L8.677,107.097l-0.48,3.618l-1.752,0.933c-1.219,0.6-2.203,0.566-3.045,0.194C0.709,110.691,0.701,111.375,0.552,110.633z"/>
		<path opacity="0.8875" fill-rule="evenodd" clip-rule="evenodd" d="M0.595,110.619c0.679-2.547,2.614-2.824,5.422-4.26
			c9.966-5.1,20.63-10.714,29.939-16.169c2.515,1.067,6.049,2.213,6.363,3.256c0.189,0.627-1.976,1.34-3.029,1.857l-3.997-1.355
			L8.376,107.077l-0.245,3.606l-1.751,0.932c-1.22,0.6-2.226,0.566-3.069,0.195C0.415,110.569,0.754,111.418,0.595,110.619z"/>
		<path opacity="0.9438" fill-rule="evenodd" clip-rule="evenodd" d="M0.637,110.605c0.563-2.622,2.572-2.811,5.38-4.246
			c9.966-5.1,20.598-10.691,29.907-16.147c2.515,1.068,6.011,2.214,6.325,3.256c0.189,0.628-1.892,1.279-2.945,1.797l-4.085-1.413
			L8.076,107.056l-0.008,3.594l-1.752,0.932c-1.22,0.6-2.25,0.566-3.092,0.195C0.121,110.447,0.808,111.462,0.637,110.605z"/>
		<path fill-rule="evenodd" clip-rule="evenodd" d="M0.679,110.591c0.446-2.697,2.53-2.797,5.338-4.232
			c9.966-5.1,20.565-10.67,29.875-16.125c2.515,1.068,5.972,2.213,6.286,3.256c0.189,0.627-1.808,1.219-2.861,1.736l-4.173-1.473
			L7.775,107.037l0.228,3.58l-1.752,0.932c-1.22,0.6-2.272,0.566-3.115,0.195C-0.174,110.326,0.861,111.505,0.679,110.591z"/>
	</g>
	<linearGradient id="SVGID_1_" gradientUnits="userSpaceOnUse" x1="23.4473" y1="-6.2183" x2="16.4693" y2="43.4324">
		<stop  offset="0" style="stop-color:#F3D699"/>
		<stop  offset="1" style="stop-color:#FFFFFF"/>
	</linearGradient>
	<polygon fill-rule="evenodd" clip-rule="evenodd" fill="url(#SVGID_1_)" points="4.363,20.214 0.027,18.634 37.942,0 42.278,1.581 
			"/>
	<linearGradient id="SVGID_2_" gradientUnits="userSpaceOnUse" x1="32.4736" y1="30.9731" x2="28.0754" y2="10.2812">
		<stop  offset="0" style="stop-color:#E2B969"/>
		<stop  offset="0.62" style="stop-color:#C99341"/>
		<stop  offset="1" style="stop-color:#865433"/>
	</linearGradient>
	<polygon fill-rule="evenodd" clip-rule="evenodd" fill="url(#SVGID_2_)" points="38.855,95.453 34.52,93.869 34.52,6.147 
		38.855,7.729 	"/>
	<linearGradient id="SVGID_3_" gradientUnits="userSpaceOnUse" x1="-48.9976" y1="65.519" x2="11.7892" y2="65.519">
		<stop  offset="0" style="stop-color:#E2B969"/>
		<stop  offset="1" style="stop-color:#F4D8A3"/>
	</linearGradient>
	<polygon fill-rule="evenodd" clip-rule="evenodd" fill="url(#SVGID_3_)" points="4.363,112.404 0.027,110.822 0.027,18.634 
		4.363,20.214 	"/>
	<polygon fill-rule="evenodd" clip-rule="evenodd" fill="#C0832B" points="4.363,20.214 42.278,1.581 42.278,93.769 38.855,95.453 
		38.855,7.729 7.786,22.962 7.786,110.722 4.363,112.404 	"/>
	<polygon fill-rule="evenodd" clip-rule="evenodd" fill="#392516" points="7.129,22.862 39.513,6.946 39.513,95.128 39.02,95.371 
		39.02,7.649 7.622,23.08 7.622,110.802 7.129,111.044 	"/>
	<linearGradient id="SVGID_4_" gradientUnits="userSpaceOnUse" x1="36.8818" y1="5.6753" x2="43.2704" y2="127.5774">
		<stop  offset="0" style="stop-color:#F3D699"/>
		<stop  offset="1" style="stop-color:#FFFFFF"/>
	</linearGradient>
	<polygon fill-rule="evenodd" clip-rule="evenodd" fill="url(#SVGID_4_)" points="39.02,7.675 39.513,6.946 39.513,95.128 
		39.02,95.371 	"/>
	<g>
		<polygon fill-rule="evenodd" clip-rule="evenodd" fill="#946126" points="7.634,23 34.707,9.794 34.707,93.9 7.764,106.994 
			7.644,29.425 		"/>
		<linearGradient id="SVGID_5_" gradientUnits="userSpaceOnUse" x1="23.522" y1="100.6313" x2="19.2286" y2="18.7092">
			<stop  offset="0" style="stop-color:#976427"/>
			<stop  offset="1" style="stop-color:#986629"/>
		</linearGradient>
		<path fill-rule="evenodd" clip-rule="evenodd" fill="url(#SVGID_5_)" d="M7.889,23.225c0.479-0.232,26.339-12.846,26.818-13.079
			c0,1.662,0,82.091,0,83.753C34.2,94.146,8.433,106.668,7.926,106.915c0-1.604-0.112-75.735-0.112-77.339
			C7.813,29.39,7.792,23.273,7.889,23.225z"/>
		<linearGradient id="SVGID_6_" gradientUnits="userSpaceOnUse" x1="23.5938" y1="100.5825" x2="19.3194" y2="19.0224">
			<stop  offset="0" style="stop-color:#9B6729"/>
			<stop  offset="1" style="stop-color:#9D6B2D"/>
		</linearGradient>
		<path fill-rule="evenodd" clip-rule="evenodd" fill="url(#SVGID_6_)" d="M8.146,23.451c0.958-0.465,25.604-12.486,26.562-12.952
			c0,3.325,0,80.077,0,83.401c-1.015,0.493-25.604,12.443-26.619,12.937c0-3.208-0.105-73.902-0.105-77.11
			C7.983,29.354,7.949,23.545,8.146,23.451z"/>
		<linearGradient id="SVGID_7_" gradientUnits="userSpaceOnUse" x1="23.6655" y1="100.5327" x2="19.4102" y2="19.3363">
			<stop  offset="0" style="stop-color:#9E6B2A"/>
			<stop  offset="1" style="stop-color:#A17031"/>
		</linearGradient>
		<path fill-rule="evenodd" clip-rule="evenodd" fill="url(#SVGID_7_)" d="M8.401,23.676c1.437-0.698,24.869-12.126,26.306-12.824
			c0,4.987,0,78.061,0,83.048c-1.522,0.739-24.935,12.117-26.456,12.857c0-4.813-0.098-72.068-0.098-76.88
			C8.153,29.319,8.107,23.818,8.401,23.676z"/>
		<linearGradient id="SVGID_8_" gradientUnits="userSpaceOnUse" x1="23.7373" y1="100.4819" x2="19.501" y2="19.6485">
			<stop  offset="0" style="stop-color:#A26E2C"/>
			<stop  offset="1" style="stop-color:#A67535"/>
		</linearGradient>
		<path fill-rule="evenodd" clip-rule="evenodd" fill="url(#SVGID_8_)" d="M8.657,23.901c1.915-0.931,24.135-11.766,26.05-12.697
			c0,6.649,0,76.046,0,82.696c-2.029,0.986-24.265,11.792-26.294,12.778c0-6.417-0.09-70.235-0.09-76.651
			C8.323,29.284,8.265,24.091,8.657,23.901z"/>
		<linearGradient id="SVGID_9_" gradientUnits="userSpaceOnUse" x1="23.8076" y1="100.4312" x2="19.5904" y2="19.9623">
			<stop  offset="0" style="stop-color:#A5712E"/>
			<stop  offset="1" style="stop-color:#AB7A3A"/>
		</linearGradient>
		<path fill-rule="evenodd" clip-rule="evenodd" fill="url(#SVGID_9_)" d="M8.913,24.126c2.394-1.164,23.401-11.406,25.794-12.569
			c0,8.312,0,74.031,0,82.343c-2.536,1.232-23.596,11.467-26.132,12.699c0-8.021-0.083-68.4-0.083-76.421
			C8.492,29.249,8.423,24.364,8.913,24.126z"/>
		<linearGradient id="SVGID_10_" gradientUnits="userSpaceOnUse" x1="23.8799" y1="100.3813" x2="19.6817" y2="20.2754">
			<stop  offset="0" style="stop-color:#A97530"/>
			<stop  offset="1" style="stop-color:#B0803F"/>
		</linearGradient>
		<path fill-rule="evenodd" clip-rule="evenodd" fill="url(#SVGID_10_)" d="M9.168,24.352c2.873-1.396,22.667-11.046,25.539-12.442
			c0,9.974,0,72.016,0,81.991c-3.044,1.479-22.927,11.141-25.97,12.62c0-9.624-0.075-66.567-0.075-76.191
			C8.663,29.213,8.581,24.637,9.168,24.352z"/>
		<linearGradient id="SVGID_11_" gradientUnits="userSpaceOnUse" x1="23.9502" y1="100.3315" x2="19.7711" y2="20.5893">
			<stop  offset="0" style="stop-color:#AC7832"/>
			<stop  offset="1" style="stop-color:#B58644"/>
		</linearGradient>
		<path fill-rule="evenodd" clip-rule="evenodd" fill="url(#SVGID_11_)" d="M9.425,24.577c3.351-1.629,21.931-10.687,25.282-12.315
			c0,11.636,0,70.001,0,81.638c-3.551,1.725-22.257,10.815-25.808,12.541c0-11.229-0.067-64.733-0.067-75.961
			C8.832,29.179,8.739,24.91,9.425,24.577z"/>
		<linearGradient id="SVGID_12_" gradientUnits="userSpaceOnUse" x1="24.022" y1="100.2827" x2="19.8618" y2="20.9026">
			<stop  offset="0" style="stop-color:#B07B34"/>
			<stop  offset="1" style="stop-color:#BA8C4A"/>
		</linearGradient>
		<path fill-rule="evenodd" clip-rule="evenodd" fill="url(#SVGID_12_)" d="M9.68,24.802c3.83-1.861,21.197-10.326,25.027-12.188
			c0,13.298,0,67.987,0,81.286c-4.058,1.972-21.587,10.49-25.645,12.463c0-12.833-0.06-62.9-0.06-75.732
			C9.002,29.144,8.896,25.182,9.68,24.802z"/>
		<linearGradient id="SVGID_13_" gradientUnits="userSpaceOnUse" x1="24.0938" y1="100.2319" x2="19.9527" y2="21.2155">
			<stop  offset="0" style="stop-color:#B47F36"/>
			<stop  offset="1" style="stop-color:#BF9250"/>
		</linearGradient>
		<path fill-rule="evenodd" clip-rule="evenodd" fill="url(#SVGID_13_)" d="M9.936,25.027c4.31-2.094,20.462-9.966,24.771-12.06
			c0,14.961,0,65.972,0,80.933c-4.565,2.219-20.918,10.165-25.483,12.385c0-14.438-0.053-61.067-0.053-75.503
			C9.171,29.108,9.055,25.455,9.936,25.027z"/>
		<linearGradient id="SVGID_14_" gradientUnits="userSpaceOnUse" x1="24.1646" y1="100.1821" x2="20.0425" y2="21.5286">
			<stop  offset="0" style="stop-color:#B78338"/>
			<stop  offset="1" style="stop-color:#C49856"/>
		</linearGradient>
		<path fill-rule="evenodd" clip-rule="evenodd" fill="url(#SVGID_14_)" d="M10.192,25.252c4.788-2.327,19.727-9.606,24.515-11.933
			c0,16.623,0,63.958,0,80.581c-5.073,2.465-20.249,9.84-25.32,12.306c0-16.042-0.045-59.233-0.045-75.273
			C9.342,29.073,9.212,25.728,10.192,25.252z"/>
		<linearGradient id="SVGID_15_" gradientUnits="userSpaceOnUse" x1="24.2363" y1="100.1343" x2="20.1333" y2="21.8437">
			<stop  offset="0" style="stop-color:#BB863A"/>
			<stop  offset="1" style="stop-color:#CA9F5D"/>
		</linearGradient>
		<path fill-rule="evenodd" clip-rule="evenodd" fill="url(#SVGID_15_)" d="M10.447,25.477c5.267-2.559,18.993-9.246,24.26-11.805
			c0,18.285,0,61.941,0,80.228c-5.58,2.711-19.579,9.514-25.158,12.227c0-17.646-0.037-57.4-0.037-75.044
			C9.512,29.038,9.37,26,10.447,25.477z"/>
		<linearGradient id="SVGID_16_" gradientUnits="userSpaceOnUse" x1="24.3071" y1="100.0835" x2="20.2232" y2="22.1566">
			<stop  offset="0" style="stop-color:#BF8A3C"/>
			<stop  offset="1" style="stop-color:#CFA563"/>
		</linearGradient>
		<path fill-rule="evenodd" clip-rule="evenodd" fill="url(#SVGID_16_)" d="M10.703,25.703c5.745-2.792,18.259-8.886,24.004-11.678
			c0,19.948,0,59.927,0,79.875c-6.087,2.957-18.909,9.188-24.996,12.147c0-19.249-0.03-55.566-0.03-74.814
			C9.681,29.003,9.528,26.273,10.703,25.703z"/>
		<linearGradient id="SVGID_17_" gradientUnits="userSpaceOnUse" x1="24.3784" y1="100.0327" x2="20.3135" y2="22.4696">
			<stop  offset="0" style="stop-color:#C38E3F"/>
			<stop  offset="1" style="stop-color:#D5AC69"/>
		</linearGradient>
		<path fill-rule="evenodd" clip-rule="evenodd" fill="url(#SVGID_17_)" d="M10.959,25.928c6.224-3.024,17.524-8.526,23.748-11.551
			c0,21.61,0,57.913,0,79.523c-6.595,3.204-18.24,8.863-24.834,12.068c0-20.854-0.022-53.732-0.022-74.584
			C9.851,28.968,9.686,26.546,10.959,25.928z"/>
		<linearGradient id="SVGID_18_" gradientUnits="userSpaceOnUse" x1="24.4502" y1="99.9829" x2="20.4043" y2="22.7827">
			<stop  offset="0" style="stop-color:#C79241"/>
			<stop  offset="1" style="stop-color:#DBB370"/>
		</linearGradient>
		<path fill-rule="evenodd" clip-rule="evenodd" fill="url(#SVGID_18_)" d="M11.215,26.153c6.703-3.257,16.79-8.166,23.492-11.423
			c0,23.272,0,55.897,0,79.17c-7.102,3.45-17.57,8.537-24.671,11.989c0-22.457-0.015-51.898-0.015-74.354
			C10.021,28.933,9.843,26.819,11.215,26.153z"/>
		<linearGradient id="SVGID_19_" gradientUnits="userSpaceOnUse" x1="24.5215" y1="99.9331" x2="20.4947" y2="23.0967">
			<stop  offset="0" style="stop-color:#CB9643"/>
			<stop  offset="1" style="stop-color:#E1BB77"/>
		</linearGradient>
		<path fill-rule="evenodd" clip-rule="evenodd" fill="url(#SVGID_19_)" d="M11.471,26.378c7.182-3.49,16.055-7.806,23.236-11.296
			c0,24.935,0,53.882,0,78.818c-7.609,3.697-16.901,8.212-24.509,11.911c0-24.062-0.007-50.066-0.007-74.126
			C10.191,28.897,10.001,27.091,11.471,26.378z"/>
		<linearGradient id="SVGID_20_" gradientUnits="userSpaceOnUse" x1="24.5928" y1="99.8833" x2="20.585" y2="23.4098">
			<stop  offset="0" style="stop-color:#D09A46"/>
			<stop  offset="1" style="stop-color:#EAC47F"/>
		</linearGradient>
		<path fill-rule="evenodd" clip-rule="evenodd" fill="url(#SVGID_20_)" d="M11.727,26.604c7.66-3.723,15.32-7.446,22.98-11.169
			c0,26.597,0,51.868,0,78.465c-8.116,3.943-16.231,7.887-24.347,11.832c0-25.666,0-48.232,0-73.896
			C10.36,28.862,10.159,27.364,11.727,26.604z"/>
	</g>
	<path fill-rule="evenodd" clip-rule="evenodd" fill="#F3D699" d="M10.183,34.942c3.131-1.521,5.32-11.16,9.79-13.331
		c0,10.607,0,20.883,0,31.49l-9.827,4.777L10.183,34.942z"/>
	<path fill-rule="evenodd" clip-rule="evenodd" fill="#AC742A" d="M10.183,34.855c3.1-1.507,5.156-10.992,9.58-13.143
		c0,10.5,0,20.67,0,31.172l-9.617,4.674L10.183,34.855z"/>
	<path fill-rule="evenodd" clip-rule="evenodd" fill="#F3D699" d="M10.65,35.303c2.922-1.419,5.843-11.319,8.763-12.739
		c0,9.896,0,19.79,0,29.685l-8.763,4.26V35.303z"/>
	<path fill-rule="evenodd" clip-rule="evenodd" fill="#392516" d="M10.909,35.434c2.841-1.381,5.534-10.809,8.37-12.441
		c0.045-0.024,0.089-0.376,0.134-0.397c0,9.775,0,19.878,0,29.653l-8.794,4.275l0.29-0.505V35.434z"/>
	<linearGradient id="SVGID_21_" gradientUnits="userSpaceOnUse" x1="27.6665" y1="104.2251" x2="10.5728" y2="16.2856">
		<stop  offset="0" style="stop-color:#D09A46"/>
		<stop  offset="1" style="stop-color:#EAC47F"/>
	</linearGradient>
	<path fill-rule="evenodd" clip-rule="evenodd" fill="url(#SVGID_21_)" d="M10.909,35.434c2.886-1.401,5.466-11.035,8.352-12.438
		c0,9.775,0,19.173,0,28.948l-8.352,4.059V35.434z"/>
	<path fill-rule="evenodd" clip-rule="evenodd" fill="#392516" d="M10.183,34.855c3.034-1.475,5.068-10.598,9.303-12.998
		c0.091-0.052,0.404-0.206,0.497-0.252l-0.22,0.293c-4.299,2.319-6.341,11.564-9.396,13.049L10.33,57.469l-0.185,0.458
		L10.183,34.855z"/>
	<path fill-rule="evenodd" clip-rule="evenodd" fill="#392516" d="M32.287,24.199c-3.131,1.521-5.319-5.989-9.789-3.816
		c0,10.607,0,20.883,0,31.491l9.828-4.775L32.287,24.199z"/>
	<path fill-rule="evenodd" clip-rule="evenodd" fill="#F3D699" d="M32.287,24.199c-0.025,0.012-0.051,0.022-0.076,0.034
		c-0.401,0.663-0.85,1.56-1.281,2.751c-2.611,7.193-6.129,19.701-8.231,24.441l-0.2,0.448l9.828-4.775L32.287,24.199z"/>
	<path fill-rule="evenodd" clip-rule="evenodd" fill="#AC742A" d="M32.289,24.112c-3.102,1.506-5.157-5.981-9.58-3.831
		c0,10.5,0,20.67,0,31.172l9.617-4.675L32.289,24.112z"/>
	<path fill-rule="evenodd" clip-rule="evenodd" fill="#F3D699" d="M31.82,25.016c-2.921,1.42-5.842-5.643-8.764-4.223
		c0,9.895,0,19.79,0,29.686l8.764-4.26V25.016z"/>
	<path fill-rule="evenodd" clip-rule="evenodd" fill="#392516" d="M31.82,25.016c-0.02,0.009-0.038,0.016-0.057,0.024
		c-0.273,0.538-0.558,1.181-0.834,1.944c-2.436,6.709-6.185,17.623-7.873,23.158v0.336l8.764-4.26V25.016z"/>
	<path fill-rule="evenodd" clip-rule="evenodd" fill="#F3D699" d="M31.561,25.396c-2.885,1.403-5.617-5.648-8.504-4.246v29.323
		c0.083-0.268,0.188-0.54,0.279-0.833c0.089-0.286,0.164-0.925,0.262-1.232c1.854-5.857,5.131-15.359,7.332-21.424
		c0.209-0.577,0.422-1.084,0.631-1.529V25.396z"/>
	<linearGradient id="SVGID_22_" gradientUnits="userSpaceOnUse" x1="39.917" y1="102.1812" x2="22.8427" y2="14.3414">
		<stop  offset="0" style="stop-color:#D09A46"/>
		<stop  offset="1" style="stop-color:#EAC47F"/>
	</linearGradient>
	<path fill-rule="evenodd" clip-rule="evenodd" fill="url(#SVGID_22_)" d="M31.561,25.396c-2.885,1.403-5.465-5.723-8.352-4.32
		c0,9.775,0,19.174,0,28.949l8.352-4.06V25.396z"/>
	<path fill-rule="evenodd" clip-rule="evenodd" fill="#392516" d="M32.289,24.112c-3.102,1.506-5.157-5.981-9.58-3.831v0.186
		c4.297-1.859,6.34,5.401,9.396,3.915l0.037,22.486l0.184-0.09L32.289,24.112z"/>
	<path fill-rule="evenodd" clip-rule="evenodd" fill="#F3D699" d="M32.289,24.112l-0.005,0.002
		c-0.059,0.095-0.118,0.192-0.179,0.297l0.037,22.646l0.184-0.089L32.289,24.112z"/>
	<polygon fill-rule="evenodd" clip-rule="evenodd" fill="#AC742A" points="10.154,70.017 19.963,65.25 19.963,97.716 
		10.154,102.482 	"/>
	<polygon fill-rule="evenodd" clip-rule="evenodd" fill="#F3D699" points="19.712,65.373 19.963,65.25 19.963,97.716 
		10.154,102.484 10.154,102.091 19.712,97.447 	"/>
	<polygon fill-rule="evenodd" clip-rule="evenodd" fill="#392516" points="10.406,101.984 10.154,102.482 10.154,70.017 
		19.963,65.25 19.708,65.765 10.406,70.287 	"/>
	<linearGradient id="SVGID_23_" gradientUnits="userSpaceOnUse" x1="19.4404" y1="106.1821" x2="2.3362" y2="18.1883">
		<stop  offset="0" style="stop-color:#D09A46"/>
		<stop  offset="1" style="stop-color:#EAC47F"/>
	</linearGradient>
	<polygon fill-rule="evenodd" clip-rule="evenodd" fill="url(#SVGID_23_)" points="10.73,70.898 19.388,66.689 19.388,96.39 
		10.73,100.597 	"/>
	<polygon fill-rule="evenodd" clip-rule="evenodd" fill="#F3D699" points="10.995,100.57 10.775,100.677 10.775,70.888 
		19.343,66.724 19.343,67.066 10.995,71.125 	"/>
	<polygon fill-rule="evenodd" clip-rule="evenodd" fill="#392516" points="19.123,67.16 19.343,66.724 19.343,96.511 
		10.775,100.677 10.998,100.226 19.123,96.277 	"/>
	<polygon fill-rule="evenodd" clip-rule="evenodd" fill="#AC742A" points="22.508,64.013 32.315,59.248 32.315,91.712 22.508,96.48 
			"/>
	<polygon fill-rule="evenodd" clip-rule="evenodd" fill="#F3D699" points="32.064,59.369 32.315,59.248 32.315,91.712 22.508,96.48 
		22.508,96.087 32.064,91.443 	"/>
	<polygon fill-rule="evenodd" clip-rule="evenodd" fill="#392516" points="22.76,95.98 22.508,96.478 22.508,64.013 32.315,59.248 
		32.061,59.761 22.76,64.283 	"/>
	<linearGradient id="SVGID_24_" gradientUnits="userSpaceOnUse" x1="32.4521" y1="103.5688" x2="15.5001" y2="16.3581">
		<stop  offset="0" style="stop-color:#D09A46"/>
		<stop  offset="1" style="stop-color:#EAC47F"/>
	</linearGradient>
	<polygon fill-rule="evenodd" clip-rule="evenodd" fill="url(#SVGID_24_)" points="23.084,64.894 31.74,60.687 31.74,90.386 
		23.084,94.593 	"/>
	<polygon fill-rule="evenodd" clip-rule="evenodd" fill="#F3D699" points="23.348,94.566 23.128,94.673 23.128,64.884 31.695,60.72 
		31.695,61.062 23.348,65.121 	"/>
	<polygon fill-rule="evenodd" clip-rule="evenodd" fill="#392516" points="31.477,61.156 31.695,60.72 31.695,90.509 23.128,94.673 
		23.351,94.224 31.477,90.273 	"/>
	<linearGradient id="SVGID_25_" gradientUnits="userSpaceOnUse" x1="40.3828" y1="103.8677" x2="9.4512" y2="18.8838">
		<stop  offset="0" style="stop-color:#F3D699"/>
		<stop  offset="1" style="stop-color:#FFFFFF"/>
	</linearGradient>
	<polygon fill-rule="evenodd" clip-rule="evenodd" fill="url(#SVGID_25_)" points="4.363,20.214 42.278,1.581 42.278,2.117 
		4.763,20.555 4.763,112.208 4.363,112.404 	"/>
	<linearGradient id="SVGID_26_" gradientUnits="userSpaceOnUse" x1="30.8262" y1="14.3018" x2="34.2864" y2="47.224">
		<stop  offset="0" style="stop-color:#F3D699"/>
		<stop  offset="1" style="stop-color:#FFFFFF"/>
	</linearGradient>
	<path fill="url(#SVGID_26_)" d="M34.587,9.609c0-0.083,0.079-0.15,0.175-0.15c0.099,0,0.178,0.067,0.178,0.15v84.308
		c0,0.082-0.079,0.148-0.178,0.148c-0.096,0-0.175-0.066-0.175-0.148V9.609z"/>
	<linearGradient id="SVGID_27_" gradientUnits="userSpaceOnUse" x1="12.1313" y1="67.4683" x2="11.0251" y2="59.597">
		<stop  offset="0" style="stop-color:#AA6E34"/>
		<stop  offset="1" style="stop-color:#AC7233"/>
	</linearGradient>
	<path fill-rule="evenodd" clip-rule="evenodd" fill="url(#SVGID_27_)" d="M9.139,59.57l1.387-0.682
		c0.16-0.078,0.291,0.041,0.291,0.27v3.879l3.787-1.859v1.707l-3.787,1.861v2.234c0,0.227-0.131,0.477-0.291,0.555l-1.387,0.682
		c-0.159,0.078-0.291-0.041-0.291-0.268v-7.824C8.848,59.898,8.979,59.648,9.139,59.57z"/>
	<path fill-rule="evenodd" clip-rule="evenodd" fill="#FFFFFF" d="M8.984,59.164l1.385-0.682c0.16-0.078,0.291,0.039,0.291,0.262
		v7.664c0,0.223-0.131,0.469-0.291,0.549l-1.385,0.68c-0.16,0.078-0.292-0.039-0.292-0.26V59.71
		C8.692,59.488,8.824,59.242,8.984,59.164z"/>
	<linearGradient id="SVGID_28_" gradientUnits="userSpaceOnUse" x1="8.7588" y1="63.355" x2="10.8373" y2="63.355">
		<stop  offset="0" style="stop-color:#DFE0E0"/>
		<stop  offset="0.16" style="stop-color:#4C5454"/>
		<stop  offset="0.25" style="stop-color:#9C9B9D"/>
		<stop  offset="0.8" style="stop-color:#7D8180"/>
		<stop  offset="1" style="stop-color:#FFFFFF"/>
	</linearGradient>
	<path fill-rule="evenodd" clip-rule="evenodd" fill="url(#SVGID_28_)" d="M8.984,59.371l1.385-0.68
		c0.16-0.08,0.291,0.041,0.291,0.268v7.824c0,0.225-0.131,0.477-0.291,0.555l-1.385,0.682c-0.16,0.078-0.292-0.043-0.292-0.27
		v-7.822C8.692,59.701,8.824,59.449,8.984,59.371z"/>
	<linearGradient id="SVGID_29_" gradientUnits="userSpaceOnUse" x1="10.7476" y1="61.8511" x2="10.4301" y2="63.3444">
		<stop  offset="0" style="stop-color:#41494F"/>
		<stop  offset="0.02" style="stop-color:#959798"/>
		<stop  offset="0.07" style="stop-color:#E5E5E5"/>
		<stop  offset="0.15" style="stop-color:#C2C2C5"/>
		<stop  offset="0.23" style="stop-color:#EEEDEF"/>
		<stop  offset="0.28" style="stop-color:#FFFFFF"/>
		<stop  offset="0.57" style="stop-color:#EEEDEF"/>
		<stop  offset="0.68" style="stop-color:#303E44"/>
		<stop  offset="0.7" style="stop-color:#878B8E"/>
		<stop  offset="0.81" style="stop-color:#EEEDEF"/>
		<stop  offset="0.85" style="stop-color:#595F60"/>
		<stop  offset="0.91" style="stop-color:#929497"/>
		<stop  offset="0.96" style="stop-color:#ECECEC"/>
		<stop  offset="1" style="stop-color:#DEDEDD"/>
	</linearGradient>
	<path fill-rule="evenodd" clip-rule="evenodd" fill="url(#SVGID_29_)" d="M11.658,63.515c-0.104-0.02-2.092-0.385-2.176-0.41
		c-0.186-0.051-0.309-0.145-0.327-0.42c-0.024-0.373,0.317-0.994,0.814-0.949l2.156,0.402c-0.679-0.004-0.979,0.879-0.722,1.227
		C11.473,63.457,11.543,63.486,11.658,63.515z"/>
	<polygon fill-rule="evenodd" clip-rule="evenodd" fill="#FFFFFF" points="10.9,62.009 16.133,59.447 16.447,59.503 16.133,61.156 
		11.272,63.761 10.9,63.716 	"/>
	<linearGradient id="SVGID_30_" gradientUnits="userSpaceOnUse" x1="13.8086" y1="61.9937" x2="13.8086" y2="59.6702">
		<stop  offset="0" style="stop-color:#DFE0E0"/>
		<stop  offset="1" style="stop-color:#FFFFFF"/>
	</linearGradient>
	<polygon fill-rule="evenodd" clip-rule="evenodd" fill="url(#SVGID_30_)" points="11.203,62.027 16.414,59.466 16.414,61.173 
		11.203,63.736 	"/>
	<linearGradient id="SVGID_31_" gradientUnits="userSpaceOnUse" x1="15.8955" y1="60.3853" x2="11.4781" y2="62.9356">
		<stop  offset="0" style="stop-color:#C0BEBE"/>
		<stop  offset="1" style="stop-color:#444C4C"/>
	</linearGradient>
	<polygon fill-rule="evenodd" clip-rule="evenodd" fill="url(#SVGID_31_)" points="11.199,62.357 16.182,59.908 16.182,60.958 
		11.199,63.41 	"/>
</g>
</svg>
