<?xml version="1.0" encoding="utf-8"?>
<!-- Generator: Adobe Illustrator 16.0.0, SVG Export Plug-In . SVG Version: 6.00 Build 0)  -->
<!DOCTYPE svg PUBLIC "-//W3C//DTD SVG 1.1//EN" "http://www.w3.org/Graphics/SVG/1.1/DTD/svg11.dtd">
<svg version="1.1" id="_x31_200_x__x_800_px" xmlns="http://www.w3.org/2000/svg" xmlns:xlink="http://www.w3.org/1999/xlink"
	 x="0px" y="0px" width="27.648px" height="28.145px" viewBox="0 0 27.648 28.145" enable-background="new 0 0 27.648 28.145"
	 xml:space="preserve">
<g>
	<g>
		<g>
			<path opacity="0.3" fill="#3C3C3C" d="M27.648,14.322c0,7.635-6.189,13.822-13.824,13.822S0,21.957,0,14.322
				C0,6.686,6.189,0.496,13.824,0.496S27.648,6.686,27.648,14.322z"/>
			<ellipse fill="#005896" cx="13.824" cy="13.336" rx="13.469" ry="13.336"/>
			<radialGradient id="SVGID_1_" cx="13.8242" cy="13.335" r="12.5674" gradientUnits="userSpaceOnUse">
				<stop  offset="0" style="stop-color:#56FEFE"/>
				<stop  offset="0.2344" style="stop-color:#55FBFB"/>
				<stop  offset="0.4255" style="stop-color:#50F1F2"/>
				<stop  offset="0.6014" style="stop-color:#48E0E4"/>
				<stop  offset="0.7682" style="stop-color:#3DC8CF"/>
				<stop  offset="0.927" style="stop-color:#2FA9B5"/>
				<stop  offset="1" style="stop-color:#2798A6"/>
			</radialGradient>
			<circle fill="url(#SVGID_1_)" cx="13.825" cy="13.336" r="12.567"/>
			<radialGradient id="SVGID_2_" cx="13.8086" cy="13.2227" r="12.112" gradientUnits="userSpaceOnUse">
				<stop  offset="0" style="stop-color:#56FEFE"/>
				<stop  offset="0.2344" style="stop-color:#55FBFB"/>
				<stop  offset="0.4255" style="stop-color:#50F1F2"/>
				<stop  offset="0.6014" style="stop-color:#48E0E4"/>
				<stop  offset="0.7682" style="stop-color:#3DC8CF"/>
				<stop  offset="0.927" style="stop-color:#2FA9B5"/>
				<stop  offset="1" style="stop-color:#2798A6"/>
			</radialGradient>
			<ellipse fill="url(#SVGID_2_)" cx="13.808" cy="13.223" rx="12.179" ry="12.045"/>
			<path opacity="0.2" fill="#FFFFFF" d="M2.4,8.396C4.822,5.355,9.02,3.346,13.79,3.346c4.818,0,9.05,2.051,11.464,5.139
				c-1.703-4.264-6.183-7.309-11.445-7.309C8.586,1.176,4.128,4.18,2.4,8.396z"/>
			<path opacity="0.5" fill="#FFFFFF" d="M17.926,5.984c-0.119,0.254-0.021,0.574,0.219,0.715c0,0,0.483,0.396,1.048,0.73
				c0.585,0.342,1.132,0.551,1.132,0.551c0.24,0.141,0.531,0.049,0.649-0.205c0,0,0.226-0.277,0.487-0.834
				c0.229-0.49,0.338-0.922,0.338-0.922c0.048-0.281-0.016-0.521-0.22-0.717c-0.233-0.223-0.596-0.471-1.044-0.734
				C20.012,4.26,19.4,4.023,19.4,4.023c-0.24-0.141-0.531-0.051-0.65,0.203c-0.217,0.35-0.226,0.395-0.465,0.906
				C18.065,5.6,17.926,5.984,17.926,5.984z"/>
			<path opacity="0.5" fill="#FFFFFF" d="M15.593,4.281c-0.042,0.152,0.044,0.314,0.19,0.359c0,0,0.305,0.156,0.647,0.266
				c0.356,0.113,0.677,0.156,0.677,0.156c0.146,0.047,0.297-0.041,0.339-0.193c0,0,0.097-0.18,0.187-0.516
				c0.08-0.297,0.098-0.545,0.098-0.545c0-0.158-0.06-0.281-0.189-0.361c-0.15-0.09-0.375-0.182-0.646-0.268
				c-0.318-0.1-0.679-0.152-0.679-0.152c-0.146-0.045-0.298,0.041-0.339,0.193c-0.086,0.217-0.086,0.244-0.168,0.553
				C15.633,4.055,15.593,4.281,15.593,4.281z"/>
		</g>
	</g>
	<g>
		<g>
			<path fill-rule="evenodd" clip-rule="evenodd" fill="none" stroke="#0F768B" stroke-miterlimit="22.9256" d="M22.291,7.295
				l-2.656-2.586c-0.336-0.326-0.879-0.318-1.205,0.016l-4.602,4.732L9.225,4.725C8.896,4.391,8.354,4.383,8.018,4.709L5.363,7.295
				C5.025,7.621,5.018,8.162,5.346,8.5l4.707,4.836l-4.707,4.836c-0.328,0.336-0.32,0.879,0.018,1.205l2.654,2.586
				c0.336,0.326,0.879,0.318,1.207-0.02l4.604-4.729l4.602,4.729c0.326,0.338,0.869,0.346,1.205,0.02l2.656-2.586
				c0.336-0.326,0.344-0.869,0.016-1.205l-4.705-4.836L22.307,8.5C22.635,8.162,22.629,7.621,22.291,7.295z"/>
			<path fill-rule="evenodd" clip-rule="evenodd" fill="#FFFFFF" d="M22.291,7.295l-2.656-2.586
				c-0.336-0.326-0.879-0.318-1.205,0.016l-4.602,4.732L9.225,4.725C8.896,4.391,8.354,4.383,8.018,4.709L5.363,7.295
				C5.025,7.621,5.018,8.162,5.346,8.5l4.707,4.836l-4.707,4.836c-0.328,0.336-0.32,0.879,0.018,1.205l2.654,2.586
				c0.336,0.326,0.879,0.318,1.207-0.02l4.604-4.729l4.602,4.729c0.326,0.338,0.869,0.346,1.205,0.02l2.656-2.586
				c0.336-0.326,0.344-0.869,0.016-1.205l-4.705-4.836L22.307,8.5C22.635,8.162,22.629,7.621,22.291,7.295z"/>
		</g>
		<path opacity="0.1" fill-rule="evenodd" clip-rule="evenodd" d="M5.363,7.295C5.025,7.621,5.018,8.164,5.346,8.5l4.707,4.836
			l0.697-0.717l-5.283-5.43L5.363,7.295z"/>
		<path opacity="0.1" fill-rule="evenodd" clip-rule="evenodd" d="M22.184,18.047l-2.549,2.48c-0.336,0.326-0.879,0.318-1.205-0.018
			l-4.602-4.73l-4.604,4.73c-0.328,0.336-0.871,0.344-1.207,0.018l-2.551-2.48l-0.121,0.125c-0.328,0.336-0.32,0.879,0.018,1.205
			l2.654,2.586c0.012,0.008,0.02,0.018,0.031,0.025c0.176,0.076,0.355,0.146,0.535,0.215c0.232,0.006,0.467-0.078,0.641-0.26
			l4.604-4.729l4.602,4.729c0.174,0.182,0.406,0.266,0.639,0.26c0.182-0.068,0.359-0.139,0.537-0.215
			c0.01-0.008,0.018-0.018,0.029-0.025l2.656-2.586c0.338-0.326,0.344-0.869,0.016-1.205L22.184,18.047z"/>
		<path opacity="0.1" fill-rule="evenodd" clip-rule="evenodd" d="M22.184,7.189l-5.279,5.43l0.697,0.717L22.307,8.5
			c0.328-0.336,0.32-0.879-0.016-1.205L22.184,7.189z"/>
	</g>
</g>
</svg>
