<?xml version="1.0" encoding="utf-8"?>
<!-- Generator: Adobe Illustrator 16.0.0, SVG Export Plug-In . SVG Version: 6.00 Build 0)  -->
<!DOCTYPE svg PUBLIC "-//W3C//DTD SVG 1.1//EN" "http://www.w3.org/Graphics/SVG/1.1/DTD/svg11.dtd">
<svg version="1.1" id="_x31_200_x__x_800_px" xmlns="http://www.w3.org/2000/svg" xmlns:xlink="http://www.w3.org/1999/xlink"
	 x="0px" y="0px" width="63.93px" height="65.08px" viewBox="0 0 63.93 65.08" enable-background="new 0 0 63.93 65.08"
	 xml:space="preserve">
<g>
	<g>
		<g>
			<g>
				<path opacity="0.3" fill="#3C3C3C" d="M63.93,33.117c0,17.652-14.313,31.963-31.963,31.963C14.311,65.08,0,50.77,0,33.117
					C0,15.461,14.311,1.15,31.967,1.15C49.617,1.15,63.93,15.461,63.93,33.117z"/>
				<path fill="#005896" d="M63.109,30.836c0,17.027-13.945,30.836-31.143,30.836c-17.199,0-31.143-13.809-31.143-30.836
					C0.824,13.807,14.768,0,31.967,0C49.164,0,63.109,13.807,63.109,30.836z"/>
				<radialGradient id="SVGID_1_" cx="31.9658" cy="30.8359" r="29.0581" gradientUnits="userSpaceOnUse">
					<stop  offset="0" style="stop-color:#56FEFE"/>
					<stop  offset="0.2344" style="stop-color:#55FBFB"/>
					<stop  offset="0.4255" style="stop-color:#50F1F2"/>
					<stop  offset="0.6014" style="stop-color:#48E0E4"/>
					<stop  offset="0.7682" style="stop-color:#3DC8CF"/>
					<stop  offset="0.927" style="stop-color:#2FA9B5"/>
					<stop  offset="1" style="stop-color:#2798A6"/>
				</radialGradient>
				<circle fill="url(#SVGID_1_)" cx="31.966" cy="30.836" r="29.058"/>
				<radialGradient id="SVGID_2_" cx="31.9277" cy="30.5752" r="28.0068" gradientUnits="userSpaceOnUse">
					<stop  offset="0" style="stop-color:#56FEFE"/>
					<stop  offset="0.2344" style="stop-color:#55FBFB"/>
					<stop  offset="0.4255" style="stop-color:#50F1F2"/>
					<stop  offset="0.6014" style="stop-color:#48E0E4"/>
					<stop  offset="0.7682" style="stop-color:#3DC8CF"/>
					<stop  offset="0.927" style="stop-color:#2FA9B5"/>
					<stop  offset="1" style="stop-color:#2798A6"/>
				</radialGradient>
				<ellipse fill="url(#SVGID_2_)" cx="31.928" cy="30.574" rx="28.162" ry="27.852"/>
				<path opacity="0.2" fill="#FFFFFF" d="M5.551,19.416c5.598-7.033,15.307-11.68,26.336-11.68
					c11.141,0,20.926,4.742,26.506,11.885c-3.938-9.859-14.295-16.9-26.463-16.9C19.852,2.721,9.545,9.664,5.551,19.416z"/>
				<path opacity="0.5" fill="#FFFFFF" d="M41.447,13.838c-0.273,0.588-0.045,1.328,0.508,1.654c0,0,1.117,0.918,2.422,1.688
					c1.354,0.793,2.617,1.273,2.617,1.273c0.555,0.326,1.229,0.115,1.502-0.473c0,0,0.521-0.641,1.125-1.93
					c0.533-1.133,0.781-2.131,0.781-2.131c0.113-0.65-0.035-1.207-0.506-1.656c-0.541-0.514-1.377-1.09-2.416-1.699
					c-1.207-0.713-2.623-1.262-2.623-1.262c-0.555-0.324-1.227-0.115-1.504,0.473c-0.502,0.809-0.52,0.912-1.074,2.094
					C41.771,12.951,41.447,13.838,41.447,13.838z"/>
				<path opacity="0.5" fill="#FFFFFF" d="M36.055,9.9c-0.096,0.354,0.102,0.727,0.439,0.832c0,0,0.705,0.361,1.498,0.613
					c0.822,0.262,1.564,0.363,1.564,0.363c0.338,0.105,0.686-0.096,0.783-0.447c0,0,0.225-0.416,0.432-1.193
					c0.186-0.686,0.227-1.26,0.227-1.26c0-0.365-0.139-0.65-0.439-0.834c-0.348-0.211-0.865-0.422-1.494-0.619
					c-0.734-0.232-1.57-0.354-1.57-0.354c-0.336-0.105-0.689,0.094-0.781,0.445c-0.199,0.504-0.199,0.564-0.391,1.277
					C36.146,9.375,36.055,9.9,36.055,9.9z"/>
			</g>
		</g>
	</g>
	<g>
		<g>
			<g>
				<path fill-rule="evenodd" clip-rule="evenodd" fill="none" stroke="#005896" stroke-width="2" stroke-miterlimit="10" d="
					M21.479,21.445c0.631-0.525,1.273-0.467,1.725,0.211l1.531,2.27c0.486,0.715,0.561,1.432-0.238,1.977
					c-2.576,1.771-2.83,2.904-3.262,7.275c-0.432,4.365,4.359,9.736,9.74,9.736c5.375,0,9.738-4.357,9.738-9.736
					c0-1.285-0.25-2.514-0.699-3.639l-3.256,2.783c-0.941,0.807-1.355,0.975-1.596-0.322l-2.43-13.113
					c-0.459-2.486-0.365-2.373,2.025-1.527l12.393,4.393c1.061,0.375,1.227,0.646,0.246,1.482l-3.176,2.709
					c1.178,2.146,1.844,4.609,1.844,7.234c0,8.33-6.754,15.088-15.09,15.088c-8.338,0-15.09-8.316-15.09-15.088
					C15.885,26.404,18.143,24.221,21.479,21.445z"/>
				<path fill-rule="evenodd" clip-rule="evenodd" fill="#FFFFFF" d="M21.479,21.445c0.631-0.525,1.273-0.467,1.725,0.211
					l1.531,2.27c0.486,0.715,0.561,1.432-0.238,1.977c-2.576,1.771-2.83,2.904-3.262,7.275c-0.432,4.365,4.359,9.736,9.74,9.736
					c5.375,0,9.738-4.357,9.738-9.736c0-1.285-0.25-2.514-0.699-3.639l-3.256,2.783c-0.941,0.807-1.355,0.975-1.596-0.322
					l-2.43-13.113c-0.459-2.486-0.365-2.373,2.025-1.527l12.393,4.393c1.061,0.375,1.227,0.646,0.246,1.482l-3.176,2.709
					c1.178,2.146,1.844,4.609,1.844,7.234c0,8.33-6.754,15.088-15.09,15.088c-8.338,0-15.09-8.316-15.09-15.088
					C15.885,26.404,18.143,24.221,21.479,21.445z"/>
			</g>
			<path opacity="0.1" fill-rule="evenodd" clip-rule="evenodd" fill="#010101" d="M30.975,46.326
				c8.008,0,14.561-6.238,15.063-14.119c0.02,0.322,0.029,0.641,0.029,0.971c0,8.33-6.756,15.088-15.092,15.088
				c-8.338,0-15.09-8.316-15.09-15.088c0-0.42,0.01-0.824,0.023-1.211C16.369,38.592,22.939,46.326,30.975,46.326z"/>
			<path opacity="0.1" fill-rule="evenodd" clip-rule="evenodd" fill="#010101" d="M47.15,21.752
				c1.061,0.375,1.227,0.646,0.246,1.482l-3.176,2.709c-0.195-0.467-0.418-0.932-0.66-1.369l3.387-2.893L47.15,21.752z"/>
			<path opacity="0.1" fill-rule="evenodd" clip-rule="evenodd" fill="#010101" d="M32.732,16.945l0.531,2.867l1.898,10.248
				c0.24,1.295,0.654,1.127,1.596,0.318l3.256-2.777c0.449,1.123,0.699,2.35,0.699,3.633c0,0.33-0.014,0.654-0.049,0.973
				c-0.09-0.934-0.314-1.83-0.65-2.668l-3.256,2.783c-0.941,0.807-1.355,0.975-1.596-0.322l-2.197-11.869l-0.232-1.244
				c-0.238-1.301-0.33-1.891-0.016-2.035C32.721,16.887,32.729,16.918,32.732,16.945z"/>
		</g>
	</g>
</g>
</svg>
