<?xml version="1.0" encoding="utf-8"?>
<!-- Generator: Adobe Illustrator 16.0.0, SVG Export Plug-In . SVG Version: 6.00 Build 0)  -->
<!DOCTYPE svg PUBLIC "-//W3C//DTD SVG 1.1//EN" "http://www.w3.org/Graphics/SVG/1.1/DTD/svg11.dtd">
<svg version="1.1" id="Layer_1" xmlns="http://www.w3.org/2000/svg" xmlns:xlink="http://www.w3.org/1999/xlink" x="0px" y="0px"
	 width="35.935px" height="44.991px" viewBox="0 0 35.935 44.991" enable-background="new 0 0 35.935 44.991" xml:space="preserve">
<g>
	<g enable-background="new    ">
		<g enable-background="new    ">
			<defs>
				<path id="SVGID_1_" enable-background="new    " d="M25.407,42.315l0.087-0.139l-0.002,0.002
					C25.466,42.219,25.432,42.274,25.407,42.315z"/>
			</defs>
			<clipPath id="SVGID_2_">
				<use xlink:href="#SVGID_1_"  overflow="visible"/>
			</clipPath>
			<g clip-path="url(#SVGID_2_)" enable-background="new    ">
				<polyline fill="#845723" points="25.407,42.317 25.492,42.178 25.494,42.176 25.407,42.315 25.407,42.317 				"/>
			</g>
		</g>
		<g enable-background="new    ">
			<defs>
				<path id="SVGID_3_" enable-background="new    " d="M25.973,1.854c-0.092-0.153-0.281-0.473-0.545-0.717l0.651,0.605
					C25.993,1.796,25.959,1.831,25.973,1.854z"/>
			</defs>
			<clipPath id="SVGID_4_">
				<use xlink:href="#SVGID_3_"  overflow="visible"/>
			</clipPath>
			<g clip-path="url(#SVGID_4_)" enable-background="new    ">
				<polyline fill="#D98E28" points="25.428,1.138 26.08,1.743 26.074,1.746 25.428,1.138 25.428,1.138 				"/>
				<polyline fill="#D58B28" points="25.428,1.138 26.074,1.746 26.062,1.754 25.428,1.138 25.428,1.138 				"/>
				<polyline fill="#CF8729" points="25.428,1.138 26.062,1.754 26.051,1.762 25.43,1.138 25.428,1.138 				"/>
				<polyline fill="#CB842A" points="25.43,1.138 26.051,1.762 26.041,1.769 25.431,1.137 25.43,1.138 				"/>
				<polyline fill="#C6822A" points="25.431,1.137 26.041,1.769 26.027,1.777 25.435,1.137 25.431,1.137 				"/>
				<path fill="#C17F2A" d="M25.435,1.137l0.592,0.641c-0.007,0.006-0.015,0.011-0.021,0.016l-0.563-0.657
					C25.444,1.136,25.437,1.137,25.435,1.137"/>
				<path fill="#BC7B2A" d="M25.444,1.136l0.563,0.657c-0.01,0.009-0.017,0.016-0.022,0.022l-0.519-0.683
					C25.457,1.134,25.45,1.135,25.444,1.136"/>
				<path fill="#B7782A" d="M25.465,1.133l0.519,0.683c-0.011,0.013-0.015,0.023-0.013,0.032l-0.443-0.721
					C25.501,1.129,25.481,1.131,25.465,1.133"/>
				<path fill="#B2752A" d="M25.528,1.127l0.443,0.721c0,0.003,0.001,0.005,0.002,0.007l-0.426-0.729
					c-0.007,0-0.014,0.001-0.014,0.001"/>
			</g>
		</g>
		<g enable-background="new    ">
			<defs>
				<path id="SVGID_5_" enable-background="new    " d="M34.368,43.127l-0.655,0.59c1.6-1.441,1.568-3.695,1.566-3.865l0.655-0.592
					C35.936,39.432,35.967,41.684,34.368,43.127z"/>
			</defs>
			<clipPath id="SVGID_6_">
				<use xlink:href="#SVGID_5_"  overflow="visible"/>
			</clipPath>
			<g clip-path="url(#SVGID_6_)" enable-background="new    ">
				<path fill="#CF8729" d="M35.279,39.852l0.655-0.592c0,0.021,0,0.076-0.002,0.158l-0.654,0.59
					C35.28,39.928,35.279,39.874,35.279,39.852"/>
				<path fill="#D58B28" d="M35.278,40.008l0.654-0.59c-0.005,0.195-0.025,0.545-0.108,0.973l-0.655,0.59
					C35.251,40.553,35.273,40.204,35.278,40.008"/>
				<path fill="#CF8729" d="M35.168,40.981l0.655-0.59c-0.06,0.307-0.151,0.656-0.292,1.014l-0.654,0.592
					C35.018,41.637,35.109,41.29,35.168,40.981"/>
				<path fill="#CB842A" d="M34.877,41.997l0.654-0.592c-0.063,0.162-0.137,0.326-0.222,0.49l-0.655,0.59
					C34.741,42.323,34.814,42.159,34.877,41.997"/>
				<path fill="#C6822A" d="M34.655,42.485l0.655-0.59c-0.061,0.115-0.126,0.232-0.198,0.346l-0.655,0.592
					C34.529,42.717,34.595,42.602,34.655,42.485"/>
				<path fill="#C17F2A" d="M34.457,42.833l0.655-0.592c-0.058,0.092-0.119,0.18-0.185,0.27l-0.654,0.59
					C34.338,43.012,34.399,42.922,34.457,42.833"/>
				<path fill="#BC7B2A" d="M34.273,43.1l0.654-0.59c-0.058,0.076-0.118,0.152-0.182,0.229l-0.655,0.59
					C34.155,43.254,34.215,43.178,34.273,43.1"/>
				<path fill="#B7782A" d="M34.09,43.329l0.655-0.59c-0.06,0.07-0.123,0.139-0.188,0.207l-0.655,0.59
					C33.968,43.469,34.031,43.399,34.09,43.329"/>
				<path fill="#B2752A" d="M33.902,43.536l0.655-0.59c-0.06,0.061-0.121,0.119-0.186,0.178l-0.654,0.59
					C33.782,43.657,33.843,43.596,33.902,43.536"/>
				<polyline fill="#AC722A" points="33.717,43.713 34.372,43.124 34.369,43.125 33.712,43.717 33.717,43.713 				"/>
			</g>
		</g>
		<g>
			<polygon fill="#F29E1F" points="0.766,21.377 1.42,20.786 24.604,0.372 23.949,0.963 			"/>
		</g>
		<g enable-background="new    ">
			<defs>
				<path id="SVGID_7_" enable-background="new    " d="M23.949,0.963l0.655-0.591c0.446-0.279,1.348-0.354,2.451-0.369
					l-0.654,0.591C25.297,0.608,24.395,0.684,23.949,0.963z"/>
			</defs>
			<clipPath id="SVGID_8_">
				<use xlink:href="#SVGID_7_"  overflow="visible"/>
			</clipPath>
			<g clip-path="url(#SVGID_8_)" enable-background="new    ">
				<path fill="#EB9822" d="M23.949,0.963l0.655-0.591c0.019-0.012,0.039-0.023,0.06-0.035l-0.654,0.591
					C23.988,0.939,23.968,0.951,23.949,0.963"/>
				<path fill="#E69625" d="M24.009,0.928l0.654-0.591c0.021-0.012,0.044-0.022,0.067-0.033l-0.654,0.591
					C24.053,0.905,24.031,0.916,24.009,0.928"/>
				<path fill="#DF9126" d="M24.077,0.895l0.654-0.591c0.024-0.012,0.05-0.022,0.075-0.033l-0.654,0.591
					C24.125,0.872,24.1,0.883,24.077,0.895"/>
				<path fill="#D98E28" d="M24.152,0.861l0.654-0.591c0.028-0.011,0.057-0.021,0.086-0.032l-0.654,0.591
					C24.208,0.84,24.179,0.851,24.152,0.861"/>
				<path fill="#D58B28" d="M24.238,0.829l0.654-0.591c0.033-0.011,0.066-0.021,0.102-0.032l-0.655,0.591
					C24.303,0.808,24.27,0.818,24.238,0.829"/>
				<path fill="#CF8729" d="M24.338,0.797l0.655-0.591c0.038-0.011,0.079-0.022,0.121-0.032l-0.655,0.591
					C24.417,0.774,24.377,0.785,24.338,0.797"/>
				<path fill="#CB842A" d="M24.459,0.765l0.655-0.591c0.049-0.012,0.1-0.023,0.151-0.034L24.612,0.73
					C24.559,0.741,24.508,0.752,24.459,0.765"/>
				<path fill="#C6822A" d="M24.612,0.73l0.654-0.591c0.063-0.012,0.127-0.023,0.193-0.034l-0.654,0.591
					C24.738,0.707,24.673,0.719,24.612,0.73"/>
				<path fill="#C17F2A" d="M24.805,0.696l0.654-0.591c0.085-0.013,0.173-0.024,0.265-0.034l-0.655,0.591
					C24.977,0.672,24.889,0.684,24.805,0.696"/>
				<path fill="#BC7B2A" d="M25.069,0.662l0.655-0.591c0.122-0.014,0.251-0.025,0.386-0.034l-0.654,0.591
					C25.321,0.637,25.192,0.648,25.069,0.662"/>
				<path fill="#B7782A" d="M25.456,0.628l0.654-0.591c0.209-0.014,0.431-0.023,0.664-0.029l-0.655,0.591
					C25.886,0.604,25.665,0.613,25.456,0.628"/>
				<path fill="#B2752A" d="M26.119,0.599l0.655-0.591c0.092-0.002,0.186-0.004,0.281-0.005l-0.654,0.591
					C26.305,0.595,26.211,0.597,26.119,0.599"/>
			</g>
		</g>
		<g>
			<polygon fill="#D18829" points="34.81,5.525 35.465,4.935 35.934,39.26 35.279,39.852 			"/>
		</g>
		<g enable-background="new    ">
			<defs>
				<path id="SVGID_9_" enable-background="new    " d="M26.401,0.594l0.654-0.591c0.969-0.013,2.093,0.021,3.203,0.006
					c5.139-0.068,5.203,4.676,5.207,4.926L34.81,5.525c-0.004-0.25-0.068-4.994-5.207-4.926C28.494,0.614,27.369,0.58,26.401,0.594z
					"/>
			</defs>
			<clipPath id="SVGID_10_">
				<use xlink:href="#SVGID_9_"  overflow="visible"/>
			</clipPath>
			<g clip-path="url(#SVGID_10_)" enable-background="new    ">
				<path fill="#B2752A" d="M26.401,0.594l0.654-0.591c0.969-0.013,2.093,0.021,3.203,0.006c0.087-0.001,0.172-0.001,0.256,0.001
					L29.859,0.6c-0.084-0.001-0.169-0.001-0.256,0C28.494,0.614,27.369,0.58,26.401,0.594"/>
				<path fill="#AC722A" d="M29.859,0.6l0.655-0.59c0.113,0.002,0.225,0.006,0.334,0.014l-0.655,0.59
					C30.084,0.606,29.973,0.603,29.859,0.6"/>
				<path fill="#A76E29" d="M30.193,0.613l0.655-0.59c0.11,0.007,0.219,0.016,0.325,0.027l-0.655,0.591
					C30.413,0.63,30.304,0.621,30.193,0.613"/>
				<path fill="#A26B28" d="M30.518,0.642l0.655-0.591c0.107,0.013,0.212,0.026,0.314,0.043l-0.655,0.591
					C30.731,0.668,30.625,0.654,30.518,0.642"/>
				<path fill="#9D6828" d="M30.833,0.685l0.655-0.591c0.118,0.02,0.233,0.042,0.345,0.067l-0.654,0.591
					C31.067,0.727,30.952,0.704,30.833,0.685"/>
				<path fill="#996427" d="M31.178,0.752l0.654-0.591c0.131,0.029,0.256,0.063,0.377,0.1l-0.654,0.591
					C31.434,0.814,31.308,0.781,31.178,0.752"/>
				<path fill="#946126" d="M31.555,0.852l0.654-0.591c0.5,0.152,0.924,0.366,1.282,0.618L32.836,1.47
					C32.478,1.217,32.055,1.004,31.555,0.852"/>
				<path fill="#996427" d="M32.836,1.47l0.655-0.591c0.097,0.068,0.189,0.141,0.277,0.215l-0.654,0.59
					C33.026,1.61,32.934,1.539,32.836,1.47"/>
				<path fill="#9D6828" d="M33.115,1.684l0.654-0.59c0.071,0.06,0.14,0.121,0.204,0.184l-0.654,0.59
					C33.253,1.805,33.185,1.744,33.115,1.684"/>
				<path fill="#A26B28" d="M33.319,1.867l0.654-0.59c0.065,0.063,0.128,0.126,0.188,0.191L33.505,2.06
					C33.446,1.994,33.383,1.93,33.319,1.867"/>
				<path fill="#A76E29" d="M33.505,2.06l0.655-0.591c0.06,0.065,0.117,0.133,0.172,0.2L33.677,2.26
					C33.623,2.191,33.566,2.125,33.505,2.06"/>
				<path fill="#AC722A" d="M33.677,2.26l0.655-0.591c0.059,0.073,0.114,0.146,0.167,0.221L33.844,2.48
					C33.792,2.406,33.736,2.332,33.677,2.26"/>
				<path fill="#B2752A" d="M33.844,2.48L34.5,1.89c0.057,0.08,0.11,0.161,0.16,0.243l-0.655,0.59
					C33.955,2.642,33.901,2.561,33.844,2.48"/>
				<path fill="#B7782A" d="M34.004,2.723l0.655-0.59c0.055,0.088,0.105,0.178,0.153,0.268l-0.654,0.591
					C34.111,2.901,34.059,2.813,34.004,2.723"/>
				<path fill="#BC7B2A" d="M34.159,2.991L34.813,2.4c0.055,0.104,0.105,0.207,0.151,0.311l-0.655,0.59
					C34.263,3.198,34.213,3.095,34.159,2.991"/>
				<path fill="#C17F2A" d="M34.309,3.301l0.655-0.59c0.057,0.126,0.106,0.252,0.151,0.376L34.46,3.678
					C34.417,3.554,34.366,3.428,34.309,3.301"/>
				<path fill="#C6822A" d="M34.46,3.678l0.655-0.591c0.059,0.165,0.108,0.325,0.148,0.479L34.61,4.157
					C34.569,4.003,34.52,3.842,34.46,3.678"/>
				<path fill="#CB842A" d="M34.61,4.157l0.654-0.591c0.062,0.23,0.104,0.445,0.134,0.634l-0.655,0.591
					C34.713,4.603,34.671,4.388,34.61,4.157"/>
				<path fill="#CF8729" d="M34.743,4.791L35.398,4.2c0.063,0.399,0.066,0.679,0.067,0.734L34.81,5.525
					C34.809,5.469,34.805,5.19,34.743,4.791"/>
			</g>
		</g>
		<g enable-background="new    ">
			<defs>
				<path id="SVGID_11_" enable-background="new    " d="M2.052,24.233l-1.138,1.408c-1.098-1.363-1.279-2.773-0.148-4.264
					l1.451,1.35C1.726,23.395,1.77,23.797,2.052,24.233z"/>
			</defs>
			<clipPath id="SVGID_12_">
				<use xlink:href="#SVGID_11_"  overflow="visible"/>
			</clipPath>
			<g clip-path="url(#SVGID_12_)" enable-background="new    ">
				<path fill="#895B24" d="M2.052,24.233l-1.138,1.408c-0.012-0.016-0.024-0.031-0.036-0.047l1.164-1.375
					C2.045,24.223,2.049,24.229,2.052,24.233"/>
				<path fill="#8E5E25" d="M2.042,24.219l-1.164,1.375c-0.085-0.105-0.163-0.213-0.235-0.32l1.339-1.156
					C2,24.151,2.021,24.184,2.042,24.219"/>
				<path fill="#946126" d="M1.982,24.118l-1.339,1.156c-0.057-0.082-0.108-0.164-0.157-0.246l1.457-0.988
					C1.955,24.065,1.968,24.092,1.982,24.118"/>
				<path fill="#996427" d="M1.943,24.04l-1.457,0.988c-0.039-0.066-0.076-0.133-0.11-0.199l1.54-0.852
					C1.923,23.999,1.933,24.02,1.943,24.04"/>
				<path fill="#9D6828" d="M1.916,23.977l-1.54,0.852c-0.029-0.057-0.058-0.113-0.084-0.17l1.604-0.734
					C1.901,23.942,1.908,23.959,1.916,23.977"/>
				<path fill="#A26B28" d="M1.895,23.924l-1.604,0.734c-0.023-0.051-0.045-0.102-0.066-0.152l1.654-0.631
					C1.884,23.891,1.889,23.909,1.895,23.924"/>
				<path fill="#A76E29" d="M1.879,23.875l-1.654,0.631c-0.02-0.047-0.037-0.094-0.054-0.143l1.696-0.533
					C1.872,23.846,1.875,23.862,1.879,23.875"/>
				<path fill="#AC722A" d="M1.868,23.831l-1.696,0.533c-0.016-0.043-0.03-0.086-0.043-0.131l1.73-0.443
					C1.862,23.803,1.864,23.817,1.868,23.831"/>
				<path fill="#B2752A" d="M1.859,23.79l-1.73,0.443c-0.013-0.041-0.024-0.082-0.035-0.123l1.759-0.361
					C1.854,23.762,1.856,23.776,1.859,23.79"/>
				<path fill="#B7782A" d="M1.852,23.749L0.093,24.11c-0.011-0.039-0.021-0.08-0.029-0.119l1.783-0.279
					C1.848,23.723,1.85,23.737,1.852,23.749"/>
				<path fill="#BC7B2A" d="M1.847,23.711l-1.783,0.279c-0.008-0.039-0.016-0.078-0.022-0.115l1.803-0.203
					C1.845,23.686,1.846,23.698,1.847,23.711"/>
				<path fill="#C17F2A" d="M1.844,23.672l-1.803,0.203c-0.007-0.039-0.013-0.076-0.018-0.115l1.819-0.125
					C1.843,23.649,1.843,23.661,1.844,23.672"/>
				<path fill="#C6822A" d="M1.843,23.635L0.024,23.76c-0.005-0.037-0.01-0.074-0.013-0.111l1.832-0.051
					C1.842,23.61,1.842,23.624,1.843,23.635"/>
				<path fill="#CB842A" d="M1.843,23.598l-1.832,0.051c-0.003-0.037-0.006-0.076-0.008-0.113l1.842,0.025
					C1.844,23.573,1.843,23.586,1.843,23.598"/>
				<path fill="#CF8729" d="M1.845,23.561l-1.842-0.025C0.001,23.497,0,23.459,0,23.42l1.85,0.102
					C1.847,23.534,1.846,23.547,1.845,23.561"/>
				<path fill="#D58B28" d="M1.849,23.522L0,23.42C0,23.381,0,23.342,0.001,23.303l1.853,0.178
					C1.852,23.495,1.85,23.508,1.849,23.522"/>
				<path fill="#D98E28" d="M1.854,23.481l-1.853-0.178c0.002-0.041,0.004-0.082,0.007-0.123l1.854,0.258
					C1.859,23.452,1.856,23.467,1.854,23.481"/>
				<path fill="#DF9126" d="M1.862,23.438L0.008,23.18c0.004-0.043,0.009-0.088,0.015-0.131l1.85,0.342
					C1.869,23.407,1.865,23.422,1.862,23.438"/>
				<path fill="#E69625" d="M1.873,23.391l-1.85-0.342c0.006-0.045,0.013-0.091,0.021-0.137l1.841,0.43
					C1.88,23.36,1.876,23.375,1.873,23.391"/>
				<path fill="#EB9822" d="M1.885,23.342l-1.841-0.43c0.01-0.053,0.021-0.105,0.033-0.159l1.827,0.533
					C1.897,23.305,1.891,23.325,1.885,23.342"/>
				<path fill="#EF9B21" d="M1.905,23.286l-1.827-0.533c0.015-0.06,0.031-0.12,0.05-0.181l1.803,0.645
					C1.92,23.241,1.912,23.262,1.905,23.286"/>
				<path fill="#F49E1E" d="M1.93,23.217l-1.803-0.645c0.022-0.072,0.049-0.146,0.077-0.219l1.763,0.78
					C1.954,23.163,1.941,23.19,1.93,23.217"/>
				<path fill="#FAA21B" d="M1.967,23.133l-1.763-0.78c0.038-0.099,0.083-0.197,0.133-0.297l1.69,0.96
					C2.005,23.057,1.985,23.096,1.967,23.133"/>
				<path fill="#FAA31A" d="M2.028,23.017l-1.69-0.96c0.112-0.225,0.255-0.451,0.429-0.68l1.451,1.35
					C2.142,22.829,2.08,22.925,2.028,23.017"/>
			</g>
		</g>
		<g>
			<polygon fill="#805522" points="24.539,43.038 23.672,44.633 0.915,25.641 2.052,24.233 			"/>
		</g>
		<g enable-background="new    ">
			<defs>
				<path id="SVGID_13_" enable-background="new    " d="M24.536,43.04c-0.02,0.037-0.046,0.086-0.065,0.125l0.068-0.127
					C24.537,43.038,24.537,43.04,24.536,43.04z"/>
			</defs>
			<clipPath id="SVGID_14_">
				<use xlink:href="#SVGID_13_"  overflow="visible"/>
			</clipPath>
			<g clip-path="url(#SVGID_14_)" enable-background="new    ">
				<polyline fill="#845723" points="24.536,43.04 24.47,43.167 24.469,43.165 24.539,43.038 24.537,43.04 				"/>
			</g>
		</g>
		<g enable-background="new    ">
			<defs>
				<path id="SVGID_15_" enable-background="new    " d="M24.47,43.165c0.02-0.039,0.046-0.088,0.065-0.125
					c-0.01,0.02,1.668,0.102,3.219,0.082c1.215-0.016,2.174-0.078,2.286-0.072l0.178,1.865c-0.052,0.002-1.033,0.055-2.287,0.07
					c-1.655,0.023-3.696-0.021-4.259-0.352L24.47,43.165z"/>
			</defs>
			<clipPath id="SVGID_16_">
				<use xlink:href="#SVGID_15_"  overflow="visible"/>
			</clipPath>
			<g clip-path="url(#SVGID_16_)" enable-background="new    ">
				<path fill="#895B24" d="M30.041,43.049l0.178,1.865c-0.052,0.002-1.033,0.055-2.287,0.07c-0.743,0.012-1.564,0.008-2.295-0.029
					l0.085-1.855c0.589,0.018,1.324,0.031,2.033,0.021C28.969,43.106,29.928,43.043,30.041,43.049"/>
				<path fill="#845723" d="M25.721,43.1l-0.085,1.855c-0.896-0.045-1.654-0.141-1.964-0.322l0.866-1.596
					C24.498,43.047,24.999,43.079,25.721,43.1"/>
			</g>
		</g>
		<g enable-background="new    ">
			<defs>
				<path id="SVGID_17_" enable-background="new    " d="M33.129,40.014l2.149-0.162c0.003,0.25,0.068,4.994-5.061,5.063
					l-0.178-1.865C33.152,43.047,33.131,40.147,33.129,40.014z"/>
			</defs>
			<clipPath id="SVGID_18_">
				<use xlink:href="#SVGID_17_"  overflow="visible"/>
			</clipPath>
			<g clip-path="url(#SVGID_18_)" enable-background="new    ">
				<path fill="#EF9B21" d="M33.129,40.014l2.149-0.162c0.001,0.088,0.01,0.732-0.202,1.533L33,40.936
					C33.133,40.45,33.129,40.061,33.129,40.014"/>
				<path fill="#EB9822" d="M33,40.936l2.076,0.449c-0.061,0.229-0.139,0.469-0.24,0.711l-1.983-0.73
					C32.916,41.219,32.963,41.073,33,40.936"/>
				<path fill="#E69625" d="M32.853,41.366l1.983,0.73c-0.057,0.137-0.12,0.273-0.191,0.41l-1.91-0.893
					C32.779,41.532,32.818,41.45,32.853,41.366"/>
				<path fill="#DF9126" d="M32.735,41.614l1.91,0.893c-0.055,0.104-0.115,0.209-0.18,0.311l-1.84-1.014
					C32.665,41.741,32.702,41.678,32.735,41.614"/>
				<path fill="#D98E28" d="M32.625,41.803l1.84,1.014c-0.05,0.08-0.104,0.16-0.159,0.238l-1.778-1.109
					C32.562,41.899,32.594,41.852,32.625,41.803"/>
				<path fill="#D58B28" d="M32.528,41.946l1.778,1.109c-0.052,0.07-0.105,0.141-0.162,0.211l-1.716-1.193
					C32.463,42.032,32.497,41.989,32.528,41.946"/>
				<path fill="#CF8729" d="M32.428,42.073l1.716,1.193c-0.051,0.061-0.104,0.123-0.159,0.182l-1.653-1.264
					C32.365,42.147,32.397,42.11,32.428,42.073"/>
				<path fill="#CB842A" d="M32.332,42.184l1.653,1.264c-0.051,0.057-0.104,0.109-0.158,0.164l-1.592-1.33
					C32.268,42.25,32.3,42.217,32.332,42.184"/>
				<path fill="#C6822A" d="M32.235,42.282l1.592,1.33c-0.052,0.051-0.105,0.1-0.161,0.148l-1.529-1.389
					C32.17,42.342,32.203,42.313,32.235,42.282"/>
				<path fill="#C17F2A" d="M32.136,42.372l1.529,1.389c-0.054,0.047-0.109,0.094-0.167,0.139l-1.464-1.443
					C32.07,42.428,32.104,42.399,32.136,42.372"/>
				<path fill="#BC7B2A" d="M32.035,42.456l1.464,1.443c-0.055,0.043-0.111,0.084-0.17,0.127l-1.397-1.494
					C31.966,42.506,32,42.481,32.035,42.456"/>
				<path fill="#B7782A" d="M31.931,42.532l1.397,1.494c-0.059,0.041-0.119,0.08-0.182,0.119l-1.326-1.541
					C31.858,42.581,31.895,42.555,31.931,42.532"/>
				<path fill="#B2752A" d="M31.821,42.604l1.326,1.541c-0.062,0.041-0.126,0.078-0.191,0.115l-1.252-1.588
					C31.744,42.649,31.783,42.627,31.821,42.604"/>
				<path fill="#AC722A" d="M31.704,42.672l1.252,1.588c-0.066,0.037-0.134,0.072-0.204,0.107l-1.172-1.633
					C31.622,42.715,31.664,42.694,31.704,42.672"/>
				<path fill="#A76E29" d="M31.58,42.735l1.172,1.633c-0.074,0.037-0.151,0.072-0.23,0.105l-1.082-1.676
					C31.487,42.778,31.534,42.756,31.58,42.735"/>
				<path fill="#A26B28" d="M31.439,42.797l1.082,1.676c-0.08,0.035-0.163,0.066-0.248,0.098l-0.984-1.715
					C31.34,42.838,31.39,42.819,31.439,42.797"/>
				<path fill="#9D6828" d="M31.289,42.856l0.984,1.715c-0.096,0.035-0.194,0.066-0.296,0.098l-0.868-1.756
					C31.17,42.895,31.231,42.875,31.289,42.856"/>
				<path fill="#996427" d="M31.109,42.913l0.868,1.756c-0.106,0.031-0.217,0.059-0.33,0.086l-0.738-1.791
					C30.977,42.948,31.043,42.93,31.109,42.913"/>
				<path fill="#946126" d="M30.909,42.963l0.738,1.791c-0.141,0.031-0.287,0.059-0.439,0.082l-0.566-1.826
					C30.734,42.997,30.823,42.981,30.909,42.963"/>
				<path fill="#8E5E25" d="M30.641,43.01l0.566,1.826c-0.183,0.027-0.374,0.049-0.574,0.061l-0.341-1.854
					C30.414,43.036,30.53,43.026,30.641,43.01"/>
				<path fill="#895B24" d="M30.292,43.043l0.341,1.854c-0.135,0.01-0.272,0.016-0.415,0.018l-0.178-1.865
					C30.127,43.049,30.211,43.047,30.292,43.043"/>
			</g>
		</g>
		<g enable-background="new    ">
			<defs>
				<path id="SVGID_19_" enable-background="new    " d="M25.016,2.713c-0.139-0.378-0.243-0.588-0.411-0.834l-0.656-0.916
					c0.446-0.279,1.349-0.354,2.452-0.369l-0.123,2.135C25.538,2.74,25.043,2.789,25.016,2.713z"/>
			</defs>
			<clipPath id="SVGID_20_">
				<use xlink:href="#SVGID_19_"  overflow="visible"/>
			</clipPath>
			<g clip-path="url(#SVGID_20_)" enable-background="new    ">
				<polyline fill="#FAA21B" points="25.125,2.604 23.949,0.963 23.952,0.961 25.122,2.606 25.124,2.605 				"/>
				<polyline fill="#F49E1E" points="25.122,2.606 23.952,0.961 23.965,0.953 25.112,2.612 25.122,2.606 				"/>
				<polyline fill="#EF9B21" points="25.112,2.612 23.965,0.953 23.978,0.945 25.103,2.618 25.112,2.612 				"/>
				<polyline fill="#EB9822" points="25.103,2.618 23.978,0.945 23.992,0.938 25.094,2.624 25.103,2.618 				"/>
				<polyline fill="#E69625" points="25.094,2.624 23.992,0.938 24.005,0.93 25.085,2.629 25.094,2.624 				"/>
				<polyline fill="#DF9126" points="25.085,2.629 24.005,0.93 24.019,0.923 25.078,2.635 25.085,2.629 				"/>
				<path fill="#D98E28" d="M25.078,2.635l-1.059-1.712c0.012-0.007,0.024-0.013,0.037-0.02l1.004,1.745
					C25.065,2.645,25.071,2.64,25.078,2.635"/>
				<path fill="#D58B28" d="M25.06,2.648l-1.004-1.745c0.013-0.006,0.026-0.012,0.039-0.018l0.949,1.775
					C25.049,2.657,25.054,2.652,25.06,2.648"/>
				<path fill="#CF8729" d="M25.044,2.661l-0.949-1.775c0.026-0.013,0.054-0.023,0.083-0.034l0.846,1.832
					C25.029,2.676,25.036,2.669,25.044,2.661"/>
				<path fill="#CB842A" d="M25.024,2.684l-0.846-1.832c0.054-0.021,0.111-0.04,0.172-0.058l0.668,1.922
					C25.012,2.707,25.014,2.696,25.024,2.684"/>
				<path fill="#C6822A" d="M25.018,2.716L24.35,0.794c0.123-0.036,0.26-0.065,0.409-0.09l0.368,2.046
					C25.065,2.744,25.028,2.733,25.018,2.716"/>
				<path fill="#C17F2A" d="M25.127,2.75l-0.368-2.046c0.246-0.04,0.525-0.067,0.83-0.085l0.033,2.128
					C25.401,2.754,25.231,2.759,25.127,2.75"/>
				<path fill="#BC7B2A" d="M25.623,2.747l-0.033-2.128c0.254-0.014,0.526-0.021,0.812-0.025l-0.123,2.135
					C26.029,2.732,25.807,2.74,25.623,2.747"/>
			</g>
		</g>
		<g>
			<polygon fill="#FAA21B" points="2.217,22.727 0.766,21.377 23.949,0.963 25.125,2.604 			"/>
		</g>
		<g>
			<polygon fill="#F29D1F" points="32.661,5.688 34.81,5.525 35.279,39.852 33.129,40.014 			"/>
		</g>
		<g>
			
				<radialGradient id="SVGID_21_" cx="3714.145" cy="18.6147" r="14.6217" gradientTransform="matrix(1 0 0 1 -3702.5488 0)" gradientUnits="userSpaceOnUse">
				<stop  offset="0" style="stop-color:#FDD38F"/>
				<stop  offset="1" style="stop-color:#F9AB2D"/>
			</radialGradient>
			<path fill="url(#SVGID_21_)" d="M26.278,2.729c0.928-0.013,2.053,0.021,3.203,0.006c3.121-0.078,3.178,2.82,3.18,2.953
				l0.469,34.327c0.002,0.133,0.022,3.033-3.089,3.035c-0.112-0.006-1.071,0.057-2.286,0.072c-1.578,0.02-3.289-0.064-3.216-0.084
				L2.052,24.233c-0.282-0.436-0.326-0.838,0.165-1.506L25.125,2.604C24.768,2.822,25.314,2.744,26.278,2.729z"/>
		</g>
		<g enable-background="new    ">
			<defs>
				<path id="SVGID_22_" enable-background="new    " d="M26.278,2.729l0.123-2.135c0.968-0.014,2.093,0.021,3.202,0.006
					c5.139-0.068,5.203,4.676,5.207,4.926l-2.149,0.162c-0.002-0.133-0.059-3.031-3.18-2.953C28.331,2.75,27.206,2.716,26.278,2.729
					z"/>
			</defs>
			<clipPath id="SVGID_23_">
				<use xlink:href="#SVGID_22_"  overflow="visible"/>
			</clipPath>
			<g clip-path="url(#SVGID_23_)" enable-background="new    ">
				<path fill="#BC7B2A" d="M26.278,2.729l0.123-2.135c0.131-0.002,0.265-0.003,0.4-0.003l-0.137,2.135
					C26.533,2.726,26.403,2.727,26.278,2.729"/>
				<path fill="#B7782A" d="M26.665,2.726l0.137-2.135c0.715-0.002,1.495,0.014,2.281,0.013l-0.139,2.135
					C28.138,2.74,27.358,2.725,26.665,2.726"/>
				<path fill="#BC7B2A" d="M28.944,2.738l0.139-2.135c0.174,0,0.348-0.002,0.521-0.004c0.046-0.001,0.091-0.001,0.135-0.001
					l-0.176,2.135c-0.026,0-0.054,0.001-0.081,0.001C29.301,2.736,29.122,2.738,28.944,2.738"/>
				<path fill="#B7782A" d="M29.562,2.733l0.176-2.135c0.128,0.001,0.254,0.004,0.376,0.011l-0.323,2.127
					C29.716,2.733,29.64,2.732,29.562,2.733"/>
				<path fill="#B2752A" d="M29.791,2.736l0.323-2.127c0.13,0.007,0.257,0.017,0.381,0.029l-0.473,2.113
					C29.947,2.745,29.87,2.74,29.791,2.736"/>
				<path fill="#AC722A" d="M30.022,2.752l0.473-2.113c0.136,0.016,0.268,0.033,0.396,0.056l-0.628,2.089
					C30.185,2.771,30.105,2.761,30.022,2.752"/>
				<path fill="#A76E29" d="M30.262,2.783l0.628-2.089c0.171,0.029,0.335,0.065,0.491,0.107l-0.82,2.044
					C30.466,2.821,30.367,2.8,30.262,2.783"/>
				<path fill="#A26B28" d="M30.561,2.846l0.82-2.044c0.511,0.137,0.946,0.335,1.316,0.574l-1.335,1.811
					C31.137,3.043,30.873,2.925,30.561,2.846"/>
				<path fill="#A76E29" d="M31.363,3.187l1.335-1.811c0.107,0.069,0.209,0.142,0.306,0.218l-1.454,1.724
					C31.491,3.271,31.428,3.228,31.363,3.187"/>
				<path fill="#AC722A" d="M31.549,3.317l1.454-1.724c0.065,0.051,0.128,0.104,0.188,0.156l-1.527,1.661
					C31.627,3.379,31.589,3.348,31.549,3.317"/>
				<path fill="#B2752A" d="M31.665,3.411l1.527-1.661c0.06,0.054,0.117,0.107,0.173,0.163L31.771,3.51
					C31.737,3.476,31.702,3.443,31.665,3.411"/>
				<path fill="#B7782A" d="M31.771,3.51l1.594-1.597c0.053,0.052,0.104,0.105,0.152,0.159l-1.653,1.533
					C31.834,3.572,31.803,3.541,31.771,3.51"/>
				<path fill="#BC7B2A" d="M31.864,3.605l1.653-1.533c0.049,0.055,0.097,0.109,0.142,0.164l-1.708,1.469
					C31.922,3.671,31.894,3.638,31.864,3.605"/>
				<path fill="#C17F2A" d="M31.951,3.705l1.708-1.469c0.051,0.062,0.099,0.124,0.145,0.188l-1.765,1.394
					C32.01,3.779,31.981,3.742,31.951,3.705"/>
				<path fill="#C6822A" d="M32.039,3.817l1.765-1.394c0.047,0.064,0.092,0.129,0.135,0.195l-1.816,1.316
					C32.095,3.896,32.068,3.856,32.039,3.817"/>
				<path fill="#CB842A" d="M32.122,3.936l1.816-1.316c0.049,0.074,0.095,0.148,0.139,0.224l-1.871,1.229
					C32.179,4.025,32.151,3.98,32.122,3.936"/>
				<path fill="#CF8729" d="M32.206,4.071l1.871-1.229c0.048,0.084,0.093,0.168,0.135,0.252L32.29,4.224
					C32.263,4.173,32.236,4.122,32.206,4.071"/>
				<path fill="#D58B28" d="M32.29,4.224l1.922-1.129c0.048,0.096,0.092,0.191,0.133,0.286l-1.974,1.016
					C32.346,4.34,32.319,4.281,32.29,4.224"/>
				<path fill="#D98E28" d="M32.371,4.396l1.974-1.016c0.049,0.116,0.094,0.23,0.133,0.343l-2.024,0.881
					C32.428,4.536,32.401,4.467,32.371,4.396"/>
				<path fill="#DF9126" d="M32.453,4.604l2.024-0.881c0.052,0.147,0.095,0.291,0.132,0.43l-2.075,0.711
					C32.511,4.78,32.485,4.693,32.453,4.604"/>
				<path fill="#E69625" d="M32.534,4.864l2.075-0.711c0.053,0.197,0.091,0.383,0.12,0.551l-2.12,0.493
					C32.59,5.096,32.567,4.983,32.534,4.864"/>
				<path fill="#EB9822" d="M32.609,5.197l2.12-0.493c0.058,0.339,0.074,0.603,0.079,0.736l-2.149,0.198
					C32.656,5.561,32.645,5.401,32.609,5.197"/>
				<path fill="#EF9B21" d="M32.659,5.639l2.149-0.198c0.001,0.042,0.002,0.07,0.002,0.085l-2.149,0.162
					C32.661,5.68,32.66,5.663,32.659,5.639"/>
			</g>
		</g>
	</g>
</g>
</svg>
