<?xml version="1.0" encoding="utf-8"?>
<!-- Generator: Adobe Illustrator 16.0.0, SVG Export Plug-In . SVG Version: 6.00 Build 0)  -->
<!DOCTYPE svg PUBLIC "-//W3C//DTD SVG 1.1//EN" "http://www.w3.org/Graphics/SVG/1.1/DTD/svg11.dtd">
<svg version="1.1" id="Layer_1" xmlns="http://www.w3.org/2000/svg" xmlns:xlink="http://www.w3.org/1999/xlink" x="0px" y="0px"
	 width="67.242px" height="73.817px" viewBox="0 0 67.242 73.817" enable-background="new 0 0 67.242 73.817" xml:space="preserve">
<g>
	
		<linearGradient id="SVGID_1_" gradientUnits="userSpaceOnUse" x1="9370.8057" y1="18.748" x2="9386.6162" y2="30.6623" gradientTransform="matrix(-1 0 0 1 9435.5371 0)">
		<stop  offset="0" style="stop-color:#1C5563"/>
		<stop  offset="0.1664" style="stop-color:#2D6A78"/>
		<stop  offset="0.4337" style="stop-color:#448C9B"/>
		<stop  offset="0.6715" style="stop-color:#54A9B9"/>
		<stop  offset="0.8684" style="stop-color:#5FBDCF"/>
		<stop  offset="1" style="stop-color:#63C8D9"/>
	</linearGradient>
	<polygon fill-rule="evenodd" clip-rule="evenodd" fill="url(#SVGID_1_)" points="62.08,12.037 65.098,17.128 65.238,17.435 
		65.373,17.748 65.506,18.06 65.631,18.376 65.752,18.695 65.865,19.017 65.975,19.34 66.076,19.666 66.174,19.995 66.266,20.327 
		66.35,20.661 66.432,20.996 66.539,21.458 66.641,21.89 66.74,22.292 66.832,22.667 66.916,23.014 66.994,23.337 67.063,23.636 
		67.123,23.913 67.168,24.169 67.205,24.403 67.23,24.619 67.242,24.818 67.24,25 67.225,25.166 67.195,25.318 67.146,25.458 
		67.082,25.588 67,25.707 66.898,25.816 66.777,25.917 66.635,26.013 66.471,26.103 66.287,26.189 66.078,26.273 65.844,26.355 
		65.588,26.437 65.305,26.521 64.994,26.607 64.66,26.695 64.293,26.789 63.898,26.889 63.477,26.998 54.48,29.232 54.008,29.351 
		53.572,29.463 53.162,29.57 52.787,29.669 52.441,29.759 52.123,29.843 51.828,29.917 51.561,29.981 51.316,30.035 51.098,30.077 
		50.896,30.107 50.717,30.123 50.557,30.127 50.412,30.117 50.287,30.091 50.178,30.05 50.078,29.995 49.994,29.92 49.922,29.83 
		49.857,29.72 46.84,24.628 46.902,24.738 46.977,24.83 47.061,24.903 47.16,24.96 47.27,25 47.396,25.025 47.539,25.037 
		47.701,25.032 47.879,25.015 48.078,24.985 48.299,24.941 48.543,24.889 48.813,24.826 49.105,24.751 49.422,24.669 49.771,24.578 
		50.146,24.478 50.553,24.373 50.992,24.259 51.463,24.14 60.459,21.906 60.883,21.797 61.277,21.698 61.641,21.605 61.979,21.515 
		62.287,21.429 62.57,21.346 62.828,21.264 63.061,21.181 63.27,21.099 63.455,21.011 63.617,20.921 63.76,20.826 63.881,20.724 
		63.982,20.615 64.063,20.497 64.131,20.368 64.176,20.227 64.207,20.076 64.227,19.909 64.227,19.726 64.215,19.528 64.189,19.312 
		64.15,19.078 64.104,18.822 64.045,18.544 63.977,18.246 63.898,17.922 63.814,17.575 63.723,17.201 63.625,16.798 63.523,16.367 
		63.414,15.906 63.334,15.569 63.25,15.236 63.156,14.904 63.059,14.574 62.955,14.249 62.848,13.925 62.734,13.602 62.615,13.285 
		62.486,12.968 62.355,12.656 62.223,12.344 	"/>
	
		<linearGradient id="SVGID_2_" gradientUnits="userSpaceOnUse" x1="9397.5615" y1="16.709" x2="9425.6729" y2="40.2975" gradientTransform="matrix(-1 0 0 1 9435.5371 0)">
		<stop  offset="0" style="stop-color:#1C5563"/>
		<stop  offset="0.1664" style="stop-color:#2D6A78"/>
		<stop  offset="0.4337" style="stop-color:#448C9B"/>
		<stop  offset="0.6715" style="stop-color:#54A9B9"/>
		<stop  offset="0.8684" style="stop-color:#5FBDCF"/>
		<stop  offset="1" style="stop-color:#63C8D9"/>
	</linearGradient>
	<polygon fill-rule="evenodd" clip-rule="evenodd" fill="url(#SVGID_2_)" points="45.094,17.251 48.111,22.342 47.996,22.132 
		47.879,21.926 47.756,21.723 47.629,21.523 47.496,21.326 47.361,21.129 47.221,20.935 47.074,20.747 46.928,20.56 46.775,20.376 
		46.617,20.195 46.455,20.018 46.289,19.843 45.752,19.323 45.186,18.849 44.592,18.416 43.971,18.027 43.326,17.679 42.658,17.376 
		41.969,17.115 41.26,16.894 40.531,16.716 39.785,16.58 39.027,16.484 38.252,16.429 37.465,16.416 36.668,16.443 35.861,16.511 
		35.047,16.619 34.225,16.765 33.4,16.954 32.57,17.179 31.74,17.446 30.908,17.75 30.08,18.092 29.252,18.474 28.428,18.894 
		27.611,19.351 26.803,19.848 26.002,20.38 25.211,20.952 24.434,21.558 23.666,22.203 22.916,22.883 22.184,23.6 21.475,24.345 
		20.803,25.107 20.166,25.882 19.564,26.675 19,27.477 18.471,28.292 17.979,29.117 17.523,29.948 17.105,30.786 16.725,31.628 
		16.381,32.476 16.074,33.324 15.807,34.17 15.578,35.017 15.387,35.86 15.234,36.7 15.121,37.532 15.047,38.358 15.012,39.173 
		15.018,39.979 15.063,40.772 15.148,41.552 15.275,42.315 15.443,43.063 15.648,43.792 15.898,44.501 16.189,45.187 16.521,45.851 
		16.895,46.489 13.877,41.397 13.504,40.759 13.172,40.095 12.881,39.409 12.633,38.7 12.424,37.972 12.258,37.226 12.131,36.46 
		12.047,35.683 12.002,34.889 11.996,34.083 12.029,33.266 12.104,32.441 12.217,31.609 12.369,30.769 12.561,29.926 12.791,29.079 
		13.057,28.232 13.365,27.384 13.707,26.537 14.088,25.695 14.506,24.856 14.963,24.025 15.453,23.201 15.982,22.386 16.549,21.583 
		17.148,20.792 17.785,20.015 18.457,19.253 19.164,18.509 19.898,17.792 20.65,17.111 21.414,16.466 22.193,15.86 22.984,15.291 
		23.785,14.756 24.596,14.259 25.412,13.802 26.234,13.382 27.061,13.002 27.891,12.658 28.721,12.353 29.553,12.087 30.383,11.862 
		31.209,11.673 32.027,11.527 32.844,11.419 33.65,11.351 34.447,11.325 35.234,11.339 36.008,11.392 36.77,11.488 37.514,11.625 
		38.242,11.804 38.951,12.023 39.641,12.285 40.309,12.589 40.953,12.937 41.574,13.324 42.168,13.757 42.734,14.232 43.273,14.751 
		43.439,14.926 43.6,15.104 43.758,15.285 43.91,15.469 44.057,15.656 44.203,15.845 44.344,16.038 44.479,16.234 44.611,16.432 
		44.738,16.632 44.861,16.836 44.979,17.042 	"/>
	
		<linearGradient id="SVGID_3_" gradientUnits="userSpaceOnUse" x1="9375.0635" y1="43.4111" x2="9395.4111" y2="71.4175" gradientTransform="matrix(-1 0 0 1 9435.5371 0)">
		<stop  offset="0" style="stop-color:#1C5563"/>
		<stop  offset="0.1664" style="stop-color:#2D6A78"/>
		<stop  offset="0.4337" style="stop-color:#448C9B"/>
		<stop  offset="0.6715" style="stop-color:#54A9B9"/>
		<stop  offset="0.8684" style="stop-color:#5FBDCF"/>
		<stop  offset="1" style="stop-color:#63C8D9"/>
	</linearGradient>
	<polygon fill-rule="evenodd" clip-rule="evenodd" fill="url(#SVGID_3_)" points="63.748,41.429 47.275,69.2 46.957,69.743 
		46.654,70.253 46.369,70.726 46.096,71.167 45.84,71.573 45.596,71.944 45.365,72.282 45.145,72.585 44.936,72.854 44.736,73.091 
		44.547,73.294 44.367,73.464 44.195,73.601 44.029,73.704 43.875,73.774 43.721,73.813 43.574,73.817 43.432,73.792 43.293,73.733 
		43.156,73.642 43.021,73.519 42.891,73.362 42.758,73.175 39.74,68.083 39.871,68.272 40.006,68.427 40.139,68.55 40.275,68.642 
		40.414,68.7 40.557,68.726 40.705,68.722 40.855,68.683 41.014,68.612 41.18,68.509 41.352,68.372 41.531,68.204 41.719,67.999 
		41.92,67.765 42.127,67.493 42.348,67.19 42.578,66.853 42.822,66.481 43.08,66.075 43.352,65.636 43.639,65.161 43.941,64.653 
		44.26,64.108 60.73,36.337 60.998,35.903 61.244,35.503 61.463,35.133 61.662,34.791 61.838,34.476 61.988,34.191 62.117,33.929 
		62.223,33.696 62.303,33.486 62.359,33.296 62.391,33.132 62.398,32.988 62.383,32.865 62.34,32.761 65.357,37.853 65.398,37.956 
		65.414,38.079 65.41,38.224 65.377,38.388 65.32,38.575 65.238,38.786 65.135,39.021 65.006,39.282 64.854,39.567 64.68,39.882 
		64.48,40.224 64.26,40.595 64.016,40.995 	"/>
	
		<linearGradient id="SVGID_4_" gradientUnits="userSpaceOnUse" x1="9402.8896" y1="58.335" x2="9429.9785" y2="66.6169" gradientTransform="matrix(-1 0 0 1 9435.5371 0)">
		<stop  offset="0" style="stop-color:#1C5563"/>
		<stop  offset="0.1664" style="stop-color:#2D6A78"/>
		<stop  offset="0.4337" style="stop-color:#448C9B"/>
		<stop  offset="0.6715" style="stop-color:#54A9B9"/>
		<stop  offset="0.8684" style="stop-color:#5FBDCF"/>
		<stop  offset="1" style="stop-color:#63C8D9"/>
	</linearGradient>
	<polygon fill-rule="evenodd" clip-rule="evenodd" fill="url(#SVGID_4_)" points="36.818,60.888 39.834,65.979 38.816,66.368 
		37.787,66.735 36.748,67.081 35.703,67.405 34.65,67.706 33.596,67.983 32.537,68.235 31.477,68.462 30.418,68.661 29.359,68.835 
		28.303,68.979 27.252,69.095 26.205,69.181 25.166,69.237 24.139,69.261 23.121,69.255 22.113,69.214 21.121,69.138 20.143,69.03 
		19.18,68.886 18.236,68.704 17.309,68.485 16.406,68.231 15.523,67.937 14.666,67.603 13.832,67.228 13.023,66.813 12.244,66.356 
		11.494,65.856 10.777,65.313 10.092,64.726 9.439,64.091 8.512,63.065 7.666,61.981 4.648,56.892 5.496,57.974 6.424,58.999 
		7.074,59.634 7.76,60.222 8.479,60.765 9.227,61.265 10.006,61.722 10.814,62.138 11.646,62.511 12.506,62.845 13.389,63.14 
		14.293,63.394 15.217,63.612 16.162,63.794 17.123,63.938 18.104,64.048 19.098,64.122 20.104,64.163 21.121,64.171 22.15,64.146 
		23.188,64.091 24.232,64.003 25.285,63.888 26.34,63.743 27.398,63.571 28.459,63.372 29.52,63.144 30.578,62.892 31.635,62.614 
		32.686,62.313 33.73,61.989 34.77,61.644 35.799,61.276 	"/>
	
		<linearGradient id="SVGID_5_" gradientUnits="userSpaceOnUse" x1="9431.5146" y1="53.0869" x2="9378.0449" y2="22.2159" gradientTransform="matrix(-1 0 0 1 9435.5371 0)">
		<stop  offset="0" style="stop-color:#028EA5"/>
		<stop  offset="1" style="stop-color:#91D4DC"/>
	</linearGradient>
	<path fill-rule="evenodd" clip-rule="evenodd" fill="url(#SVGID_5_)" d="M58.229,6.492c2.537,2.624,4.361,5.814,5.186,9.414
		c1.166,5.088,1.727,4.811-2.955,6l-8.996,2.234c-5.203,1.293-4.596,1.728-5.043-2.502c-0.281-2.656-1.359-5.04-3.146-6.887
		c-5.576-5.768-16.373-4.083-24.109,3.758c-7.734,7.842-9.486,18.876-3.91,24.642c3.572,3.695,9.287,4.332,14.967,2.252
		l-2.143-4.719c-1.605-3.391-1.875-3.221,2.176-3.797l26.863-3.816c5.721-0.813,6.578-1.518,3.613,3.265L44.26,64.108
		c-3.486,5.982-4.061,6.02-5.803,0.893l-1.639-4.113c-10.811,4.252-23.631,5.109-30.395-1.889
		c-10.311-10.658-7.775-31.498,6.527-45.994C27.254-1.493,47.918-4.169,58.229,6.492z"/>
	<path opacity="0.54" fill-rule="evenodd" clip-rule="evenodd" fill="#FFFFFF" d="M60.799,9.725
		c-6.02,1.528-11.607,3.497-16.762,5.903c-0.238-0.305-0.492-0.598-0.764-0.877c-5.576-5.768-16.373-4.083-24.109,3.758
		c-7.012,7.109-9.107,16.845-5.281,22.9C10.58,46.417,7.801,51.96,5.541,58.024c-9.223-10.893-6.67-30.859,7.42-45.142
		C27.053-1.401,47.918-4.169,58.229,6.492C59.195,7.491,60.057,8.572,60.799,9.725z"/>
	<path fill-rule="evenodd" clip-rule="evenodd" fill="#9FD8DD" d="M60.898,33.979C39.564,57.714,13.012,61.935,5.416,46.28
		C13.445,61.933,40.461,56.165,60.898,33.979z"/>
	<path fill-rule="evenodd" clip-rule="evenodd" fill="#FFFFFF" d="M64.215,20.025c-0.434,0.526-1.479,0.766-3.518,1.283
		l-8.996,2.234c-5.201,1.294-4.594,1.727-5.043-2.5c-0.281-2.658-1.359-5.041-3.146-6.888c-5.574-5.767-16.371-4.085-24.107,3.757
		c-2.664,2.701-4.619,5.781-5.809,8.893c1.205-2.906,3.076-5.768,5.568-8.295c7.736-7.841,18.533-9.525,24.109-3.758
		c1.787,1.847,2.865,4.23,3.146,6.887c0.447,4.229-0.16,3.795,5.043,2.502l8.996-2.234C63.139,21.226,64.1,21.025,64.215,20.025
		L64.215,20.025z M30.02,44.96c0.146-0.049,0.291-0.102,0.439-0.154l-2.143-4.717c-0.609-1.291-1.027-2.064-1.086-2.563
		c-0.572,0.41-0.092,1.176,0.848,3.158L30.02,44.96L30.02,44.96z M60.73,36.337L44.26,64.108c-3.486,5.982-4.061,6.02-5.803,0.893
		l-1.639-4.113c-10.811,4.252-23.631,5.109-30.395-1.889c-6.955-7.189-8.357-18.871-3.742-30.126
		c-4.346,11.068-2.854,22.466,3.98,29.531c6.766,6.996,19.584,6.139,30.395,1.887l1.639,4.113c1.742,5.129,2.316,5.09,5.803-0.891
		l16.473-27.775c0.635-1.025,1.096-1.797,1.369-2.371C62.168,33.958,61.623,34.9,60.73,36.337z"/>
	<path fill-rule="evenodd" clip-rule="evenodd" fill="#FFFFFF" d="M22.615,9.996c20.566-11.366,31.969-0.684,32.479,12.16
		C53.932,8.095,41.83-0.131,22.615,9.996z"/>
	<path fill-rule="evenodd" clip-rule="evenodd" fill="#2E368F" d="M40.066,68.485c-0.512-0.477-0.986-1.65-1.609-3.484l-1.486-3.73
		c0.043-0.016,0.086-0.033,0.127-0.049l1.639,4.115C39.244,66.833,39.654,67.888,40.066,68.485z"/>
	<path fill-rule="evenodd" clip-rule="evenodd" fill="#1C5563" d="M58.229,6.492c0.414,0.428,0.809,0.87,1.18,1.326
		c-0.289-0.338-0.59-0.67-0.9-0.99C48.197-3.834,27.533-1.159,13.23,13.339C-0.539,27.296-3.398,47.128,5.605,58.099
		C-3.736,47.2-0.959,27.105,12.951,13.005C27.254-1.493,47.918-4.169,58.229,6.492z"/>
</g>
</svg>
