<?xml version="1.0" encoding="utf-8"?>
<!-- Generator: Adobe Illustrator 16.0.0, SVG Export Plug-In . SVG Version: 6.00 Build 0)  -->
<!DOCTYPE svg PUBLIC "-//W3C//DTD SVG 1.1//EN" "http://www.w3.org/Graphics/SVG/1.1/DTD/svg11.dtd">
<svg version="1.1" id="Layer_1" xmlns="http://www.w3.org/2000/svg" xmlns:xlink="http://www.w3.org/1999/xlink" x="0px" y="0px"
	 width="157.041px" height="33.085px" viewBox="0 0 157.041 33.085" enable-background="new 0 0 157.041 33.085"
	 xml:space="preserve">
<g id="Layer_x0020_1_1_">
	<path fill="#FFFFFF" d="M10.482,1.874L57.688,0.02c0.348-0.037,0.695-0.021,1.031,0.039c0.746,0.129,1.445,0.477,1.977,0.953
		c0.541,0.486,0.92,1.111,1.01,1.783C61.74,3.061,61.73,3.334,61.67,3.61l-4.926,22.202c-0.207,0.932-0.666,1.799-1.361,2.416
		c-0.656,0.582-1.506,0.943-2.543,0.943l-37.9-1.305c-1.029,0-1.875-0.359-2.527-0.938l-0.002-0.002
		c-0.695-0.617-1.156-1.484-1.369-2.416L6.662,5.469C6.645,5.385,6.631,5.313,6.621,5.252C6.504,4.364,6.92,3.6,7.617,3.014
		c0.639-0.533,1.527-0.912,2.432-1.076C10.205,1.909,10.35,1.887,10.482,1.874z M55.648,3.028L10.461,4.67
		c-0.111,0.012-0.211,0.025-0.299,0.041C9.537,4.825,8.936,5.079,8.514,5.432C8.145,5.743,7.922,6.131,7.979,6.565
		C7.984,6.61,7.99,6.645,7.996,6.672l4.084,17.758c0.152,0.662,0.465,1.266,0.93,1.68c0.377,0.334,0.867,0.543,1.461,0.543
		l36.508,1.303c0.596,0,1.088-0.209,1.469-0.547c0.463-0.412,0.775-1.014,0.922-1.672l4.594-20.704
		c0.027-0.137,0.033-0.273,0.016-0.408C57.93,4.258,57.715,3.909,57.4,3.627c-0.32-0.291-0.74-0.502-1.184-0.578
		C56.027,3.016,55.838,3.008,55.648,3.028z"/>
	<path fill="#FFFFFF" d="M18.045,6.909l13.84-1.461c0.16-0.018,0.32-0.01,0.477,0.016c0.346,0.063,0.67,0.223,0.912,0.441
		c0.254,0.227,0.428,0.516,0.471,0.826c0.016,0.123,0.012,0.248-0.018,0.375l-2.277,10.268c-0.096,0.43-0.309,0.834-0.629,1.117
		c-0.303,0.27-0.699,0.438-1.176,0.438h-9.537c-0.479,0-0.869-0.168-1.172-0.436h-0.002c-0.318-0.285-0.531-0.688-0.631-1.117
		l-2.023-8.807c-0.01-0.037-0.016-0.072-0.02-0.1c-0.055-0.41,0.137-0.764,0.461-1.035c0.295-0.248,0.705-0.422,1.123-0.498
		C17.916,6.924,17.982,6.915,18.045,6.909z M30.943,6.838L18.035,8.2c-0.053,0.004-0.1,0.014-0.139,0.02
		c-0.289,0.051-0.566,0.17-0.764,0.334c-0.17,0.143-0.273,0.324-0.246,0.523c0.004,0.021,0.004,0.037,0.008,0.049l1.889,8.213
		c0.07,0.307,0.215,0.584,0.432,0.777c0.172,0.152,0.4,0.248,0.672,0.248h8.898c0.271,0,0.502-0.096,0.678-0.252
		c0.213-0.189,0.357-0.467,0.424-0.771l2.125-9.575c0.016-0.063,0.018-0.127,0.008-0.189c-0.023-0.17-0.123-0.334-0.266-0.463
		c-0.15-0.133-0.344-0.229-0.549-0.266C31.119,6.833,31.029,6.829,30.943,6.838z"/>
	<g id="_1849662416_1_">
		<path fill="#FFFFFF" d="M37.904,20.021l0.439-0.779l-0.789-0.467l0.463-0.799l-1.59-0.912L35.51,18.64l-0.006,0.029
			c0.281,0.102,0.537,0.277,0.799,0.432l-0.449,0.793l0.789,0.475l-0.908,1.582l0.781,0.467c-0.254,0.488-0.625,1.17-0.951,1.592
			l0.035,0.018c0.199,0.086,0.385,0.201,0.572,0.309c0.271,0.16,0.26,0.084,0.023,0.494c-0.234,0.412-0.473,0.818-0.709,1.229
			l0.775,0.457c-0.033,0.201-0.742,1.289-0.889,1.602l6.354,3.678l0.92-1.576l0.82,0.465l1.361-2.391l0.801,0.445l3.211-5.547
			c-0.104-0.123-0.75-0.408-0.754-0.502c-0.004-0.18,0.422-0.605,0.383-0.775c-0.145-0.135-0.576-0.385-0.762-0.455l-1.387,2.377
			l-0.783-0.453l1.84-3.188l-1.6-0.92l-1.381,2.385l-0.795-0.461l1.838-3.166c-0.111-0.113-1.428-0.871-1.6-0.924l-1.832,3.174
			l-0.785-0.459c-0.002-0.084,0.055-0.154,0.102-0.234c1.34-2.262,2.711-4.668,4.027-6.946l-1.592-0.906l-5.063,8.754
			c-0.254-0.074-0.758-0.43-0.764-0.434L37.904,20.021z"/>
		<path fill="#010101" d="M35.6,24.026c-0.072,0.127-0.146,0.193-0.236,0.355l-0.703,1.221c0.127,0.076,0.262,0.148,0.391,0.225
			c0.143,0.086,0.203,0.152,0.373,0.252c-0.471,0.816-0.871,1.568-1.342,2.381c0.668,0.387,1.275,0.771,1.965,1.166l4.025,2.326
			c0.697,0.402,1.344,0.742,2.018,1.133c0.115-0.201,0.146-0.361,0.32-0.578c0.146-0.184,0.389-0.658,0.541-0.914
			c0.078-0.133,0.113-0.141,0.193-0.275c0.133-0.223,0.189-0.387,0.326-0.625c0.131,0.188,0.578,0.334,0.781,0.451
			c0.463-0.801,0.912-1.521,1.379-2.33c0.242,0.074,0.463,0.25,0.674,0.361c0.119,0.059,0.123,0.059,0.193-0.053
			c0.182-0.285,0.363-0.633,0.535-0.932c0.352-0.611,0.703-1.221,1.057-1.834l1.549-2.684c-0.215-0.127-0.633-0.328-0.799-0.482
			l-3.211,5.547l-0.801-0.445l-1.361,2.391l-0.82-0.465l-0.92,1.576l-6.354-3.678c0.146-0.313,0.855-1.4,0.889-1.602l-0.775-0.457
			c0.236-0.41,0.475-0.816,0.709-1.229c0.236-0.41,0.248-0.334-0.023-0.494C35.984,24.228,35.799,24.112,35.6,24.026z"/>
		<path fill="#010101" d="M38.018,17.976l-0.463,0.799l0.789,0.467l-0.439,0.779l0.783,0.453l5.047-8.75l-0.777-0.441
			c-0.006,0.006-0.01,0.006-0.018,0.014l-0.035,0.029c-0.002,0.008-0.008,0.014-0.014,0.021l-4.074,7.053
			C38.527,18.233,38.303,18.122,38.018,17.976z"/>
		<path fill="#010101" d="M45.367,12.676l-4.145,7.147l0.785,0.459l1.832-3.174c0.172,0.053,1.488,0.811,1.6,0.924
			c0.176,0.18,1.68,0.994,2.018,1.189c0.006-0.041,0.064-0.025-0.115-0.137l-1.59-0.914c-0.383-0.215-0.352-0.066,0.156-0.949
			l-1.195-0.692c-0.158-0.09-0.205-0.15-0.375-0.25l1.818-3.15c-0.205-0.115-0.332-0.24-0.598-0.377
			C45.447,12.698,45.463,12.727,45.367,12.676z"/>
		<path fill="#010101" d="M47.377,20.194l0.461-0.785c-0.121-0.07-0.25-0.168-0.381-0.188c-0.338-0.195-1.842-1.01-2.018-1.189
			l-1.838,3.166l0.795,0.461l1.381-2.385L47.377,20.194z"/>
		<path fill="#010101" d="M35.504,18.669c-0.068,0.113-0.096,0.109-0.25,0.377c-0.08,0.139-0.16,0.275-0.238,0.414l0.756,0.438
			c-0.074,0.246-0.744,1.398-0.867,1.615l0.781,0.451l-0.691,1.195c-0.1,0.172-0.117,0.262-0.203,0.406l0.773,0.443
			c0.326-0.422,0.697-1.104,0.951-1.592l-0.781-0.467l0.908-1.582l-0.789-0.475l0.449-0.793
			C36.041,18.946,35.785,18.771,35.504,18.669z"/>
		<path fill="#010101" d="M35.51,18.64l0.918-1.576l1.59,0.912l0.252-0.377c0.068-0.139,0.117-0.258,0.217-0.43l-2.125-1.229
			c-0.342-0.199-0.258-0.23-0.531,0.246l-1.016,1.758c-0.107,0.178-0.186,0.215-0.023,0.316
			C34.943,18.358,35.381,18.642,35.51,18.64z"/>
		<path fill="#010101" d="M48.469,21.913c0.121-0.006,0.021,0.037,0.121-0.082c0.006-0.008,0.061-0.105,0.07-0.123
			c0.029-0.197,0.209-0.422,0.314-0.602l-1.598-0.912l-1.84,3.188l0.783,0.453l1.387-2.377
			C47.893,21.528,48.324,21.778,48.469,21.913z"/>
		<path fill="#010101" d="M45.379,12.618c0.141-0.246,0.342-0.539,0.41-0.771l-1.566-0.908l-0.453,0.771L45.379,12.618z"/>
		<path fill="#010101" d="M48.469,21.913c0.039,0.17-0.387,0.596-0.383,0.775c0.004,0.094,0.65,0.379,0.754,0.502
			c0.166,0.154,0.584,0.355,0.799,0.482l-1.549,2.684l1.578-2.734l-0.781-0.449c0.07-0.125,0.096-0.223,0.186-0.381
			c0.082-0.137,0.162-0.277,0.242-0.416c-0.867-0.5-0.826-0.373-0.654-0.668c-0.01,0.018-0.064,0.115-0.07,0.123
			C48.49,21.95,48.59,21.907,48.469,21.913z"/>
	</g>
	<path fill="#FFFFFF" d="M75.049,19.985h-2.715l2.238-7.729l-4.598,7.729h-2.791l-0.502-7.84l-1.912,7.84h-2.793l3.152-11.762h3.811
		l0.525,8.254l4.924-8.254h3.813L75.049,19.985z M85.201,19.985h-6.072c-0.844,0-1.451-0.225-1.822-0.678
		c-0.383-0.443-0.457-1.086-0.232-1.934c0.273-1.016,0.746-1.745,1.414-2.186c0.664-0.443,1.613-0.664,2.844-0.664h2.68
		c0.115-0.422,0.072-0.725-0.127-0.91c-0.205-0.17-0.66-0.252-1.357-0.252h-3.822l0.564-2.117h4.652c1.182,0,2.008,0.273,2.477,0.82
		s0.553,1.375,0.256,2.488L85.201,19.985z M83.107,17.901l0.35-1.309h-2.373c-0.473,0-0.793,0.045-0.957,0.137
		c-0.166,0.092-0.287,0.283-0.365,0.574c-0.059,0.215-0.053,0.373,0.021,0.473c0.041,0.043,0.129,0.072,0.262,0.092
		c0.135,0.021,0.311,0.033,0.525,0.033H83.107z M94.67,19.985h-2.584l1.402-5.243c0.15-0.559,0.168-0.912,0.049-1.064
		c-0.133-0.137-0.453-0.205-0.945-0.205h-1.557l-1.746,6.512h-2.584l2.342-8.741h4.299c1.313,0,2.184,0.254,2.604,0.768
		c0.424,0.514,0.484,1.338,0.178,2.479L94.67,19.985z M104.074,19.985h-2.602l1.406-5.25c0.141-0.521,0.148-0.861,0.021-1.018
		c-0.088-0.09-0.193-0.156-0.32-0.199c-0.139-0.039-0.344-0.061-0.611-0.061l-1.547,0.016l-1.744,6.512h-2.584l3.152-11.762h2.584
		l-0.811,3.021h1.729c1.293,0,2.158,0.254,2.594,0.756c0.436,0.506,0.498,1.334,0.191,2.486L104.074,19.985z M113.996,19.985h-6.07
		c-0.842,0-1.451-0.225-1.822-0.678c-0.381-0.443-0.457-1.086-0.23-1.934c0.271-1.016,0.744-1.745,1.41-2.186
		c0.668-0.443,1.615-0.664,2.846-0.664h2.68c0.115-0.422,0.072-0.725-0.127-0.91c-0.205-0.17-0.66-0.252-1.357-0.252h-3.822
		l0.566-2.117h4.65c1.182,0,2.008,0.273,2.477,0.82s0.555,1.375,0.256,2.488L113.996,19.985z M111.904,17.901l0.352-1.309h-2.373
		c-0.475,0-0.795,0.045-0.957,0.137c-0.17,0.092-0.291,0.283-0.367,0.574c-0.059,0.215-0.051,0.373,0.021,0.473
		c0.041,0.043,0.127,0.072,0.264,0.092c0.133,0.021,0.309,0.033,0.523,0.033H111.904z M118.15,19.985h-2.68l3.15-11.762h2.682
		L118.15,19.985z M124.209,19.985h-2.277l0.641-2.391h2.277L124.209,19.985z M132.578,19.985h-3.16
		c-0.387,0-0.734-0.021-1.039-0.064c-0.297-0.041-0.572-0.094-0.818-0.182c-0.441-0.156-0.82-0.436-1.123-0.82
		c-0.141-0.178-0.24-0.406-0.33-0.662c-0.086-0.248-0.176-0.516-0.221-0.805c-0.039-0.279-0.035-0.566-0.014-0.861
		c0.023-0.29,0.086-0.61,0.18-0.958c0.174-0.65,0.443-1.268,0.816-1.84c0.365-0.563,0.803-1.084,1.35-1.52
		c0.453-0.361,0.984-0.598,1.549-0.77c0.563-0.17,1.227-0.26,1.994-0.26h3.156l-0.586,2.195h-2.523
		c-0.521,0-0.955,0.027-1.285,0.096c-0.33,0.07-0.602,0.215-0.828,0.389c-0.438,0.332-0.775,0.898-0.994,1.709
		c-0.119,0.451-0.135,0.838-0.07,1.153c0.061,0.307,0.143,0.658,0.439,0.773l0.461,0.184c0.127,0.049,0.277,0.035,0.418,0.047
		c0.152,0.01,0.383,0.014,0.691,0.014h2.521L132.578,19.985z M143.402,15.6c-0.367,1.37-1.078,2.463-2.129,3.286
		c-1.045,0.818-2.264,1.23-3.656,1.23c-1.402,0-2.398-0.416-3.01-1.23c-0.609-0.811-0.738-1.9-0.367-3.286
		c0.361-1.354,1.074-2.445,2.123-3.271c1.037-0.814,2.258-1.23,3.668-1.23c1.393,0,2.395,0.404,3.004,1.215
		C143.648,13.129,143.77,14.225,143.402,15.6z M140.719,15.6c0.193-0.725,0.156-1.289-0.08-1.707
		c-0.223-0.4-0.611-0.613-1.207-0.613c-0.59,0-1.096,0.215-1.537,0.613c-0.426,0.385-0.754,0.951-0.957,1.707
		c-0.104,0.391-0.146,0.721-0.145,0.987c0,0.283,0.057,0.535,0.178,0.748c0.229,0.398,0.635,0.598,1.213,0.598
		c0.598,0,1.102-0.207,1.535-0.598C140.18,16.921,140.52,16.346,140.719,15.6z M155.385,19.985h-2.602l1.4-5.227
		c0.145-0.535,0.182-0.91,0.061-1.08c-0.119-0.166-0.451-0.238-0.938-0.229l-1.01,0.023l-1.744,6.512h-2.633l1.744-6.512h-2.15
		l-1.744,6.512h-2.6l2.34-8.741h8.57c1.248,0,2.1,0.256,2.553,0.768c0.455,0.514,0.529,1.338,0.225,2.479L155.385,19.985z"/>
	<path fill="#FFFFFF" d="M2.953,11.29l22.781-2.404c0.264-0.027,0.527-0.018,0.783,0.027c0.568,0.1,1.1,0.365,1.506,0.729
		c0.412,0.369,0.697,0.846,0.766,1.357c0.029,0.203,0.021,0.41-0.023,0.617l-3.943,10.35c-0.156,0.713-0.506,1.371-1.035,1.844
		c-0.498,0.441-1.148,0.715-1.934,0.715H6.152c-0.783,0-1.428-0.273-1.922-0.715H4.229c-0.529-0.471-0.879-1.129-1.041-1.838
		l-3.141-7.948c-0.014-0.063-0.025-0.117-0.031-0.164c-0.092-0.676,0.229-1.258,0.756-1.703c0.488-0.406,1.162-0.695,1.852-0.82
		C2.742,11.317,2.854,11.301,2.953,11.29z M24.182,11.174L2.939,13.417c-0.086,0.01-0.162,0.02-0.229,0.031
		c-0.475,0.086-0.932,0.279-1.256,0.549c-0.281,0.236-0.451,0.533-0.406,0.861c0.006,0.035,0.008,0.063,0.014,0.082l2.914,6.969
		c0.117,0.504,0.355,0.963,0.709,1.279c0.287,0.254,0.66,0.412,1.111,0.412h14.639c0.453,0,0.828-0.16,1.117-0.416
		c0.352-0.314,0.588-0.771,0.701-1.271l3.689-9.211c0.021-0.104,0.025-0.209,0.01-0.311c-0.035-0.279-0.199-0.547-0.438-0.76
		c-0.244-0.221-0.564-0.381-0.902-0.439C24.471,11.167,24.324,11.161,24.182,11.174z"/>
	<path fill="#FFFFFF" d="M67.129,4.528l-0.484,1.807h-0.65l1.295-4.838h1.428c0.307,0,0.563,0.035,0.77,0.107
		c0.207,0.07,0.367,0.17,0.48,0.303c0.113,0.131,0.184,0.287,0.205,0.473c0.025,0.184,0.006,0.391-0.055,0.617
		c-0.063,0.227-0.156,0.432-0.283,0.619c-0.129,0.186-0.287,0.348-0.477,0.482c-0.188,0.135-0.404,0.24-0.65,0.316
		c-0.244,0.074-0.512,0.113-0.803,0.113H67.129z M67.268,4.008h0.777c0.186,0,0.357-0.025,0.512-0.076
		c0.158-0.049,0.297-0.119,0.418-0.207c0.119-0.088,0.221-0.193,0.303-0.318c0.084-0.125,0.145-0.26,0.186-0.408
		c0.082-0.307,0.053-0.549-0.094-0.723c-0.143-0.172-0.406-0.258-0.791-0.258h-0.775L67.268,4.008z"/>
	<path id="_x31__1_" fill="#FFFFFF" d="M72.166,2.864c0.25,0,0.465,0.041,0.645,0.125c0.178,0.082,0.316,0.201,0.418,0.354
		c0.098,0.154,0.158,0.338,0.176,0.557c0.016,0.215-0.014,0.457-0.084,0.727c-0.072,0.27-0.174,0.514-0.307,0.729
		c-0.135,0.217-0.291,0.4-0.473,0.553c-0.184,0.152-0.385,0.271-0.607,0.352c-0.223,0.082-0.463,0.123-0.711,0.123
		S70.76,6.34,70.582,6.258c-0.182-0.08-0.32-0.199-0.422-0.352C70.057,5.754,70,5.571,69.982,5.354
		c-0.02-0.215,0.006-0.459,0.08-0.729c0.07-0.27,0.174-0.512,0.307-0.727c0.137-0.219,0.295-0.402,0.479-0.557
		c0.182-0.152,0.387-0.271,0.609-0.354C71.682,2.905,71.916,2.864,72.166,2.864z M71.35,5.913c0.338,0,0.619-0.111,0.848-0.338
		c0.227-0.227,0.393-0.543,0.502-0.949c0.107-0.406,0.111-0.725,0.006-0.951c-0.105-0.229-0.326-0.34-0.664-0.34
		c-0.172,0-0.328,0.027-0.469,0.086c-0.143,0.059-0.27,0.143-0.385,0.254c-0.113,0.109-0.211,0.246-0.297,0.406
		c-0.084,0.162-0.154,0.342-0.209,0.545C70.629,4.829,70.6,5.012,70.6,5.17c-0.002,0.158,0.023,0.295,0.082,0.404
		c0.055,0.109,0.135,0.191,0.246,0.25C71.037,5.883,71.18,5.913,71.35,5.913z"/>
	<path id="_x32__1_" fill="#FFFFFF" d="M74.074,2.915h0.475c0.049,0,0.086,0.012,0.111,0.037s0.039,0.053,0.039,0.088l0.064,2.201
		c-0.002,0.082-0.008,0.16-0.012,0.236c-0.004,0.074-0.012,0.148-0.02,0.227c0.039-0.078,0.078-0.152,0.121-0.227
		c0.043-0.076,0.086-0.154,0.133-0.236l1.316-2.215c0.021-0.035,0.049-0.061,0.082-0.086c0.035-0.021,0.072-0.033,0.115-0.033h0.26
		c0.047,0,0.08,0.012,0.104,0.033c0.021,0.025,0.035,0.051,0.037,0.086l0.111,2.215c0.004,0.078,0.006,0.156,0.004,0.232
		s-0.004,0.152-0.006,0.229c0.031-0.076,0.068-0.154,0.107-0.234s0.078-0.156,0.117-0.227l1.258-2.201
		c0.021-0.037,0.051-0.066,0.09-0.088c0.037-0.025,0.076-0.037,0.119-0.037h0.451l-2.023,3.42h-0.475
		c-0.059,0-0.09-0.037-0.09-0.113L76.43,3.899c-0.006-0.051-0.006-0.104-0.002-0.154c0.004-0.055,0.006-0.105,0.008-0.156
		c-0.025,0.051-0.049,0.102-0.076,0.156c-0.025,0.055-0.055,0.109-0.086,0.16l-1.387,2.316c-0.047,0.076-0.1,0.113-0.168,0.113
		h-0.451L74.074,2.915z"/>
	<path id="_x33__1_" fill="#FFFFFF" d="M81.055,2.86c0.207,0,0.387,0.035,0.541,0.105c0.154,0.068,0.277,0.166,0.369,0.295
		s0.148,0.291,0.166,0.482c0.021,0.189-0.002,0.406-0.066,0.648c-0.025,0.096-0.053,0.158-0.082,0.189s-0.07,0.049-0.127,0.049
		h-2.273c-0.055,0.215-0.074,0.404-0.063,0.564c0.01,0.16,0.049,0.293,0.113,0.4c0.066,0.107,0.156,0.186,0.271,0.24
		c0.117,0.053,0.258,0.078,0.418,0.078c0.15,0,0.287-0.018,0.406-0.053c0.117-0.035,0.221-0.072,0.311-0.113
		s0.166-0.076,0.229-0.111c0.063-0.037,0.111-0.055,0.15-0.055c0.049,0,0.082,0.021,0.1,0.059l0.109,0.219
		c-0.1,0.09-0.209,0.168-0.33,0.234s-0.244,0.119-0.375,0.164c-0.129,0.041-0.26,0.072-0.393,0.096
		c-0.131,0.021-0.258,0.029-0.383,0.029c-0.234,0-0.441-0.039-0.619-0.119s-0.318-0.195-0.424-0.35
		c-0.102-0.154-0.164-0.346-0.184-0.574c-0.021-0.227,0.01-0.488,0.088-0.783c0.064-0.238,0.16-0.461,0.289-0.668
		c0.127-0.207,0.281-0.387,0.459-0.539s0.377-0.27,0.6-0.357C80.574,2.903,80.809,2.86,81.055,2.86z M80.951,3.305
		c-0.289,0-0.541,0.084-0.752,0.25s-0.377,0.398-0.496,0.697h1.857c0.039-0.143,0.055-0.27,0.045-0.383
		C81.6,3.754,81.57,3.655,81.518,3.569c-0.051-0.082-0.123-0.148-0.219-0.193C81.205,3.329,81.088,3.305,80.951,3.305z"/>
	<path id="_x34__1_" fill="#FFFFFF" d="M82.309,6.334l0.916-3.42h0.346c0.064,0,0.107,0.014,0.123,0.039
		c0.02,0.027,0.021,0.072,0.014,0.137l-0.109,0.566c0.184-0.254,0.383-0.451,0.592-0.59c0.209-0.143,0.43-0.213,0.662-0.213
		c0.096,0,0.176,0.012,0.248,0.033c0.07,0.021,0.133,0.051,0.188,0.092L85.09,3.426c-0.033,0.057-0.074,0.086-0.129,0.086
		c-0.031,0-0.076-0.012-0.137-0.033c-0.059-0.021-0.146-0.033-0.264-0.033c-0.209,0-0.4,0.066-0.576,0.191
		c-0.174,0.129-0.342,0.313-0.5,0.555L82.91,6.334H82.309z"/>
	<path id="_x35__1_" fill="#FFFFFF" d="M87.313,2.86c0.203,0,0.383,0.035,0.539,0.105c0.154,0.068,0.277,0.166,0.369,0.295
		s0.146,0.291,0.166,0.482c0.021,0.189-0.002,0.406-0.066,0.648c-0.027,0.096-0.053,0.158-0.082,0.189
		c-0.027,0.031-0.07,0.049-0.127,0.049h-2.273c-0.055,0.215-0.076,0.404-0.064,0.564c0.01,0.16,0.049,0.293,0.113,0.4
		c0.066,0.107,0.158,0.186,0.275,0.24c0.115,0.053,0.254,0.078,0.416,0.078c0.152,0,0.287-0.018,0.404-0.053
		c0.119-0.035,0.223-0.072,0.313-0.113c0.088-0.041,0.166-0.076,0.229-0.111c0.061-0.037,0.111-0.055,0.148-0.055
		c0.051,0,0.084,0.021,0.1,0.059l0.109,0.219c-0.096,0.09-0.207,0.168-0.328,0.234s-0.246,0.119-0.375,0.164
		c-0.129,0.041-0.26,0.072-0.393,0.096c-0.133,0.021-0.26,0.029-0.383,0.029c-0.236,0-0.443-0.039-0.621-0.119
		s-0.318-0.195-0.422-0.35c-0.102-0.154-0.166-0.346-0.186-0.574c-0.02-0.227,0.01-0.488,0.088-0.783
		c0.064-0.238,0.162-0.461,0.289-0.668C85.68,3.68,85.834,3.5,86.01,3.348c0.178-0.152,0.377-0.27,0.6-0.357
		C86.83,2.903,87.064,2.86,87.313,2.86z M87.205,3.305c-0.287,0-0.539,0.084-0.752,0.25c-0.211,0.166-0.377,0.398-0.496,0.697h1.859
		c0.037-0.143,0.053-0.27,0.045-0.383c-0.008-0.115-0.037-0.215-0.088-0.301c-0.051-0.082-0.125-0.148-0.219-0.193
		C87.461,3.329,87.344,3.305,87.205,3.305z"/>
	<path id="_x36__1_" fill="#FFFFFF" d="M90.969,6.334c-0.086,0-0.127-0.041-0.127-0.123l0.057-0.416
		c-0.195,0.178-0.398,0.318-0.615,0.428c-0.215,0.105-0.447,0.158-0.689,0.158c-0.195,0-0.363-0.037-0.504-0.113
		c-0.137-0.074-0.244-0.186-0.318-0.33c-0.072-0.146-0.111-0.33-0.113-0.549c-0.002-0.217,0.035-0.469,0.111-0.754
		c0.066-0.25,0.162-0.484,0.291-0.703c0.125-0.219,0.271-0.404,0.443-0.564c0.17-0.162,0.357-0.287,0.564-0.377
		c0.205-0.092,0.424-0.137,0.656-0.137c0.211,0,0.377,0.037,0.508,0.105c0.131,0.072,0.236,0.172,0.318,0.299l0.508-1.895h0.602
		l-1.332,4.971H90.969z M89.922,5.897c0.195,0,0.381-0.047,0.553-0.137s0.34-0.215,0.508-0.379l0.443-1.656
		c-0.07-0.148-0.162-0.252-0.279-0.313c-0.115-0.059-0.254-0.09-0.412-0.09c-0.318,0-0.596,0.113-0.828,0.342
		c-0.232,0.227-0.402,0.551-0.516,0.973c-0.061,0.223-0.094,0.414-0.096,0.572c-0.006,0.158,0.016,0.289,0.063,0.393
		c0.047,0.102,0.117,0.178,0.213,0.223C89.666,5.872,89.785,5.897,89.922,5.897z"/>
	<path id="_x37__1_" fill="#FFFFFF" d="M93.656,6.334l1.334-4.971h0.605l-0.559,2.08c0.189-0.176,0.391-0.318,0.602-0.424
		s0.436-0.16,0.67-0.16c0.199,0,0.369,0.037,0.508,0.111c0.141,0.076,0.246,0.186,0.318,0.334c0.072,0.146,0.111,0.328,0.113,0.547
		c0.004,0.217-0.033,0.467-0.109,0.75c-0.068,0.254-0.164,0.486-0.291,0.705c-0.125,0.219-0.271,0.406-0.441,0.564
		s-0.357,0.283-0.566,0.373c-0.207,0.092-0.426,0.137-0.656,0.137c-0.219,0-0.396-0.041-0.527-0.127s-0.234-0.207-0.307-0.361
		l-0.113,0.313c-0.041,0.086-0.104,0.129-0.191,0.129H93.656z M95.984,3.34c-0.193,0-0.379,0.047-0.549,0.143
		c-0.174,0.094-0.348,0.229-0.516,0.402l-0.438,1.629c0.068,0.146,0.16,0.25,0.277,0.311c0.113,0.059,0.254,0.088,0.414,0.088
		c0.32,0,0.596-0.111,0.83-0.34c0.229-0.227,0.402-0.551,0.514-0.971c0.061-0.225,0.092-0.416,0.096-0.574
		c0.004-0.16-0.02-0.291-0.066-0.395c-0.045-0.102-0.117-0.176-0.211-0.223C96.238,3.362,96.123,3.34,95.984,3.34z"/>
	<path id="_x38__1_" fill="#FFFFFF" d="M98.053,7.348c-0.033,0.045-0.066,0.08-0.104,0.107c-0.039,0.027-0.09,0.041-0.152,0.041
		h-0.445l0.982-1.338l-0.541-3.24h0.52c0.051,0,0.088,0.014,0.111,0.039c0.021,0.023,0.035,0.055,0.039,0.086l0.33,2.18
		c0.008,0.051,0.012,0.102,0.012,0.15c0.002,0.051,0,0.104-0.002,0.154c0.031-0.051,0.059-0.104,0.088-0.154
		c0.031-0.049,0.063-0.102,0.096-0.152l1.471-2.178c0.023-0.035,0.055-0.066,0.096-0.09c0.037-0.023,0.076-0.035,0.113-0.035h0.48
		L98.053,7.348z"/>
	<path id="_x39__1_" fill="#FFFFFF" d="M100.816,5.965c0.014-0.059,0.039-0.115,0.076-0.164c0.035-0.055,0.076-0.098,0.125-0.139
		c0.045-0.037,0.098-0.068,0.156-0.09c0.057-0.023,0.115-0.035,0.174-0.035c0.057,0,0.109,0.012,0.156,0.035
		c0.045,0.021,0.082,0.053,0.111,0.09c0.027,0.041,0.045,0.084,0.055,0.139c0.006,0.049,0.002,0.105-0.016,0.164
		c-0.016,0.063-0.041,0.117-0.076,0.17c-0.035,0.049-0.076,0.094-0.127,0.133c-0.047,0.037-0.1,0.066-0.156,0.088
		c-0.059,0.021-0.117,0.033-0.176,0.033c-0.057,0-0.111-0.012-0.156-0.033s-0.082-0.051-0.109-0.088
		c-0.025-0.039-0.045-0.084-0.051-0.133C100.795,6.083,100.799,6.028,100.816,5.965z M101.494,3.434
		c0.014-0.057,0.041-0.113,0.076-0.166c0.035-0.049,0.076-0.096,0.123-0.133c0.047-0.041,0.1-0.07,0.158-0.094
		c0.057-0.021,0.115-0.031,0.174-0.031s0.111,0.01,0.156,0.031c0.045,0.023,0.082,0.053,0.109,0.094
		c0.029,0.037,0.047,0.084,0.055,0.133c0.008,0.053,0.002,0.109-0.012,0.166c-0.018,0.063-0.043,0.119-0.078,0.168
		c-0.033,0.053-0.076,0.098-0.125,0.135c-0.049,0.039-0.102,0.068-0.16,0.09c-0.057,0.021-0.115,0.031-0.174,0.031
		c-0.057,0-0.109-0.01-0.156-0.031s-0.08-0.051-0.109-0.09c-0.025-0.037-0.043-0.082-0.051-0.135
		C101.471,3.553,101.477,3.497,101.494,3.434z"/>
	<path fill="#FFFFFF" d="M108.438,22.548l-0.15,0.564h-2.455l-0.457,1.699h1.988l-0.145,0.543h-1.988l-0.469,1.75h2.455l-0.15,0.563
		h-3.152l1.371-5.119H108.438z M108.445,25.255h1.762l-0.145,0.543h-1.762L108.445,25.255z M111.389,27.083h2.213l-0.156,0.584
		h-2.906l1.371-5.119h0.693L111.389,27.083z M116.396,23.991c0.217,0,0.406,0.037,0.57,0.109c0.164,0.074,0.295,0.178,0.391,0.314
		s0.156,0.307,0.178,0.508c0.02,0.203-0.004,0.432-0.074,0.689c-0.027,0.1-0.055,0.166-0.084,0.201
		c-0.031,0.031-0.076,0.047-0.137,0.047h-2.406c-0.057,0.23-0.078,0.43-0.066,0.598c0.012,0.172,0.053,0.311,0.121,0.426
		c0.07,0.113,0.168,0.197,0.291,0.254c0.121,0.057,0.27,0.084,0.441,0.084c0.158,0,0.303-0.02,0.428-0.057s0.232-0.078,0.33-0.121
		c0.094-0.041,0.174-0.08,0.24-0.117c0.066-0.039,0.119-0.057,0.16-0.057c0.051,0,0.086,0.02,0.104,0.061L117,27.163
		c-0.105,0.096-0.221,0.178-0.35,0.248c-0.127,0.068-0.26,0.127-0.396,0.172s-0.275,0.078-0.416,0.102
		c-0.139,0.021-0.273,0.033-0.404,0.033c-0.248,0-0.469-0.043-0.656-0.127s-0.338-0.209-0.445-0.371
		c-0.109-0.164-0.176-0.365-0.197-0.607c-0.023-0.24,0.01-0.516,0.094-0.828c0.066-0.252,0.17-0.488,0.305-0.707
		c0.137-0.219,0.297-0.408,0.486-0.57c0.188-0.16,0.398-0.287,0.633-0.377C115.887,24.038,116.135,23.991,116.396,23.991z
		 M116.285,24.462c-0.307,0-0.572,0.088-0.797,0.268c-0.223,0.174-0.396,0.42-0.525,0.732h1.967
		c0.039-0.146,0.057-0.281,0.049-0.402c-0.008-0.123-0.039-0.23-0.094-0.318s-0.131-0.156-0.232-0.207
		C116.553,24.485,116.43,24.462,116.285,24.462z M120.375,27.667h-0.281c-0.061,0-0.109-0.008-0.141-0.027
		c-0.033-0.02-0.049-0.063-0.043-0.123l0.018-0.338c-0.117,0.086-0.23,0.164-0.34,0.232s-0.219,0.127-0.33,0.172
		c-0.113,0.045-0.229,0.082-0.348,0.105c-0.121,0.025-0.25,0.037-0.387,0.037c-0.141,0-0.266-0.021-0.379-0.061
		c-0.111-0.039-0.203-0.098-0.271-0.178c-0.07-0.078-0.115-0.178-0.135-0.301c-0.021-0.119-0.012-0.262,0.033-0.426
		c0.037-0.145,0.113-0.283,0.229-0.416s0.271-0.25,0.475-0.354c0.203-0.102,0.453-0.188,0.754-0.252
		c0.303-0.066,0.658-0.1,1.066-0.1l0.076-0.283c0.076-0.283,0.072-0.496-0.008-0.641c-0.082-0.145-0.242-0.219-0.477-0.219
		c-0.154,0-0.289,0.021-0.406,0.059c-0.115,0.041-0.219,0.084-0.311,0.131c-0.09,0.051-0.168,0.096-0.234,0.133
		c-0.066,0.041-0.129,0.061-0.182,0.061c-0.043,0-0.078-0.01-0.104-0.033c-0.027-0.023-0.045-0.051-0.057-0.084l-0.059-0.199
		c0.25-0.193,0.504-0.34,0.762-0.436s0.525-0.145,0.807-0.145c0.201,0,0.373,0.035,0.514,0.102c0.137,0.066,0.246,0.158,0.32,0.279
		c0.074,0.117,0.117,0.262,0.125,0.432c0.01,0.168-0.012,0.354-0.066,0.555L120.375,27.667z M118.834,27.274
		c0.111,0,0.215-0.012,0.314-0.033c0.098-0.021,0.195-0.055,0.287-0.096c0.094-0.039,0.186-0.09,0.275-0.148
		c0.092-0.059,0.182-0.125,0.273-0.199l0.201-0.752c-0.293,0-0.547,0.021-0.762,0.057c-0.213,0.039-0.393,0.084-0.537,0.145
		s-0.258,0.131-0.338,0.211c-0.078,0.082-0.133,0.174-0.16,0.273c-0.025,0.096-0.031,0.178-0.02,0.246
		c0.014,0.068,0.039,0.127,0.08,0.17c0.041,0.045,0.094,0.076,0.158,0.096C118.674,27.263,118.748,27.274,118.834,27.274z
		 M121.34,27.667l0.971-3.619h0.363c0.07,0,0.113,0.016,0.131,0.041c0.02,0.027,0.025,0.076,0.016,0.145l-0.117,0.6
		c0.195-0.268,0.404-0.477,0.627-0.625c0.223-0.15,0.455-0.225,0.699-0.225c0.1,0,0.188,0.014,0.262,0.035
		c0.076,0.023,0.143,0.057,0.199,0.098l-0.209,0.475c-0.031,0.061-0.076,0.09-0.135,0.09c-0.033,0-0.082-0.012-0.143-0.035
		c-0.064-0.021-0.158-0.033-0.283-0.033c-0.221,0-0.424,0.066-0.607,0.201s-0.361,0.328-0.529,0.586l-0.609,2.268H121.34z
		 M124.217,27.667l0.971-3.619h0.379c0.088,0,0.135,0.045,0.135,0.133l-0.057,0.393c0.205-0.174,0.42-0.314,0.641-0.42
		c0.223-0.109,0.461-0.162,0.717-0.162c0.195,0,0.363,0.033,0.496,0.098c0.133,0.066,0.234,0.16,0.305,0.279
		c0.066,0.121,0.105,0.264,0.111,0.436c0.008,0.168-0.016,0.355-0.07,0.561l-0.617,2.303h-0.637l0.617-2.303
		c0.074-0.275,0.07-0.488-0.014-0.639c-0.086-0.152-0.258-0.229-0.514-0.229c-0.188,0-0.375,0.045-0.563,0.135
		c-0.188,0.092-0.373,0.217-0.551,0.371l-0.715,2.664H124.217z M129.861,24.048l-0.969,3.619h-0.637l0.973-3.619H129.861z
		 M130.309,22.913c-0.016,0.063-0.043,0.121-0.082,0.172c-0.039,0.053-0.086,0.104-0.139,0.143c-0.051,0.043-0.111,0.076-0.172,0.1
		s-0.121,0.035-0.184,0.035s-0.115-0.012-0.164-0.035c-0.047-0.023-0.084-0.057-0.115-0.1c-0.031-0.039-0.051-0.09-0.061-0.143
		c-0.01-0.051-0.008-0.109,0.01-0.172c0.016-0.063,0.045-0.121,0.084-0.178c0.039-0.055,0.086-0.105,0.139-0.146
		s0.107-0.074,0.166-0.096c0.061-0.025,0.123-0.035,0.184-0.035c0.063,0,0.115,0.01,0.166,0.035
		c0.049,0.021,0.088,0.055,0.117,0.096c0.031,0.041,0.053,0.092,0.063,0.146C130.33,22.792,130.326,22.851,130.309,22.913z
		 M130.014,27.667l0.971-3.619h0.377c0.092,0,0.137,0.045,0.137,0.133l-0.055,0.393c0.201-0.174,0.416-0.314,0.641-0.42
		c0.219-0.109,0.459-0.162,0.713-0.162c0.197,0,0.363,0.033,0.498,0.098c0.133,0.066,0.234,0.16,0.305,0.279
		c0.068,0.121,0.105,0.264,0.113,0.436c0.006,0.168-0.018,0.355-0.072,0.561l-0.617,2.303h-0.637l0.617-2.303
		c0.074-0.275,0.068-0.488-0.014-0.639c-0.086-0.152-0.258-0.229-0.516-0.229c-0.188,0-0.373,0.045-0.559,0.135
		c-0.189,0.092-0.375,0.217-0.553,0.371l-0.715,2.664H130.014z M136.184,23.991c0.158,0,0.301,0.018,0.428,0.051
		c0.129,0.033,0.238,0.086,0.332,0.152h0.982l-0.063,0.236c-0.023,0.078-0.086,0.131-0.191,0.152l-0.426,0.057
		c0.041,0.156,0.033,0.328-0.018,0.518c-0.047,0.178-0.123,0.336-0.229,0.48c-0.107,0.143-0.232,0.268-0.383,0.369
		c-0.148,0.104-0.311,0.184-0.492,0.238c-0.178,0.053-0.367,0.08-0.564,0.08c-0.17,0-0.324-0.02-0.465-0.059
		c-0.088,0.047-0.158,0.1-0.213,0.156s-0.09,0.113-0.105,0.166c-0.023,0.09-0.006,0.156,0.051,0.201s0.139,0.08,0.248,0.098
		c0.109,0.021,0.236,0.031,0.381,0.031c0.146,0,0.293,0,0.447,0c0.15,0,0.293,0.012,0.432,0.039s0.256,0.07,0.354,0.129
		c0.1,0.061,0.168,0.143,0.209,0.25c0.041,0.105,0.037,0.244-0.008,0.414c-0.041,0.154-0.121,0.307-0.238,0.453
		c-0.117,0.148-0.262,0.277-0.439,0.393c-0.176,0.115-0.375,0.205-0.604,0.273s-0.475,0.104-0.738,0.104s-0.488-0.025-0.672-0.078
		c-0.186-0.051-0.332-0.123-0.439-0.211s-0.178-0.189-0.213-0.305c-0.033-0.115-0.033-0.236,0-0.363
		c0.047-0.178,0.145-0.33,0.291-0.455c0.148-0.125,0.328-0.225,0.545-0.299c-0.088-0.047-0.152-0.109-0.193-0.189
		c-0.037-0.08-0.041-0.186-0.004-0.318c0.014-0.053,0.035-0.107,0.07-0.164c0.033-0.055,0.078-0.109,0.133-0.164
		s0.115-0.105,0.184-0.156c0.072-0.049,0.15-0.092,0.236-0.131c-0.15-0.102-0.254-0.234-0.311-0.4
		c-0.059-0.166-0.055-0.359,0.004-0.58c0.047-0.176,0.125-0.338,0.23-0.482c0.107-0.145,0.234-0.27,0.383-0.369
		s0.314-0.18,0.496-0.234S135.984,23.991,136.184,23.991z M136.277,27.856c0.025-0.094,0.02-0.168-0.016-0.223
		c-0.035-0.057-0.092-0.1-0.168-0.129c-0.078-0.031-0.17-0.053-0.279-0.068c-0.107-0.016-0.225-0.023-0.346-0.023
		c-0.125,0-0.252,0-0.379,0c-0.129,0-0.248-0.016-0.355-0.047c-0.152,0.064-0.283,0.143-0.395,0.236
		c-0.107,0.092-0.18,0.203-0.215,0.332c-0.021,0.082-0.02,0.156,0.002,0.225c0.023,0.072,0.07,0.133,0.143,0.184
		c0.07,0.051,0.17,0.092,0.291,0.121c0.121,0.031,0.27,0.045,0.447,0.045c0.17,0,0.328-0.014,0.473-0.047
		c0.143-0.031,0.27-0.076,0.379-0.135c0.111-0.057,0.201-0.127,0.271-0.207C136.203,28.04,136.252,27.952,136.277,27.856z
		 M135.672,25.903c0.129,0,0.248-0.016,0.355-0.053c0.109-0.037,0.205-0.086,0.287-0.15c0.086-0.064,0.156-0.141,0.213-0.23
		c0.059-0.09,0.1-0.188,0.129-0.297c0.061-0.221,0.041-0.396-0.059-0.529c-0.1-0.129-0.279-0.195-0.535-0.195
		s-0.465,0.066-0.635,0.195c-0.17,0.133-0.285,0.309-0.346,0.529c-0.029,0.109-0.037,0.207-0.025,0.297
		c0.01,0.09,0.039,0.166,0.088,0.23c0.051,0.064,0.117,0.113,0.205,0.15C135.439,25.888,135.547,25.903,135.672,25.903z
		 M143.965,22.542l-0.156,0.586h-1.652l-1.217,4.535h-0.691l1.215-4.535h-1.66l0.158-0.586H143.965z M144.887,23.991
		c0.217,0,0.406,0.037,0.57,0.109c0.164,0.074,0.295,0.178,0.391,0.314s0.156,0.307,0.178,0.508c0.02,0.203-0.004,0.432-0.072,0.689
		c-0.027,0.1-0.055,0.166-0.088,0.201c-0.029,0.031-0.074,0.047-0.133,0.047h-2.406c-0.057,0.23-0.078,0.43-0.066,0.598
		c0.01,0.172,0.051,0.311,0.121,0.426c0.07,0.113,0.166,0.197,0.289,0.254c0.121,0.057,0.27,0.084,0.441,0.084
		c0.16,0,0.303-0.02,0.428-0.057c0.127-0.037,0.234-0.078,0.33-0.121c0.094-0.041,0.176-0.08,0.24-0.117
		c0.066-0.039,0.119-0.057,0.158-0.057c0.053,0,0.088,0.02,0.105,0.061l0.115,0.232c-0.102,0.096-0.219,0.178-0.346,0.248
		c-0.131,0.068-0.262,0.127-0.398,0.172s-0.275,0.078-0.416,0.102c-0.137,0.021-0.273,0.033-0.404,0.033
		c-0.25,0-0.469-0.043-0.656-0.127s-0.336-0.209-0.445-0.371c-0.111-0.164-0.176-0.365-0.197-0.607
		c-0.021-0.24,0.01-0.516,0.094-0.828c0.068-0.252,0.168-0.488,0.305-0.707s0.299-0.408,0.486-0.57
		c0.188-0.16,0.398-0.287,0.633-0.377C144.377,24.038,144.625,23.991,144.887,23.991z M144.775,24.462
		c-0.307,0-0.57,0.088-0.795,0.268c-0.225,0.174-0.398,0.42-0.527,0.732h1.969c0.039-0.146,0.055-0.281,0.045-0.402
		c-0.006-0.123-0.037-0.23-0.092-0.318s-0.131-0.156-0.23-0.207C145.045,24.485,144.92,24.462,144.775,24.462z M148.867,27.667
		h-0.281c-0.064,0-0.109-0.008-0.143-0.027s-0.047-0.063-0.043-0.123l0.02-0.338c-0.119,0.086-0.232,0.164-0.342,0.232
		c-0.107,0.068-0.219,0.127-0.332,0.172c-0.111,0.045-0.227,0.082-0.346,0.105c-0.119,0.025-0.25,0.037-0.387,0.037
		c-0.141,0-0.266-0.021-0.377-0.061c-0.113-0.039-0.205-0.098-0.273-0.178c-0.068-0.078-0.113-0.178-0.135-0.301
		c-0.023-0.119-0.01-0.262,0.033-0.426c0.039-0.145,0.115-0.283,0.229-0.416s0.273-0.25,0.477-0.354
		c0.201-0.102,0.453-0.188,0.754-0.252c0.299-0.066,0.656-0.1,1.066-0.1l0.074-0.283c0.076-0.283,0.074-0.496-0.008-0.641
		s-0.24-0.219-0.477-0.219c-0.154,0-0.287,0.021-0.404,0.059c-0.117,0.041-0.221,0.084-0.311,0.131
		c-0.092,0.051-0.17,0.096-0.234,0.133c-0.068,0.041-0.129,0.061-0.184,0.061c-0.043,0-0.076-0.01-0.104-0.033
		c-0.025-0.023-0.045-0.051-0.055-0.084l-0.063-0.199c0.254-0.193,0.508-0.34,0.766-0.436c0.256-0.096,0.523-0.145,0.805-0.145
		c0.203,0,0.373,0.035,0.514,0.102c0.139,0.066,0.244,0.158,0.32,0.279c0.076,0.117,0.117,0.262,0.127,0.432
		c0.008,0.168-0.014,0.354-0.068,0.555L148.867,27.667z M147.324,27.274c0.111,0,0.215-0.012,0.316-0.033
		c0.098-0.021,0.193-0.055,0.287-0.096c0.092-0.039,0.184-0.09,0.275-0.148s0.182-0.125,0.273-0.199l0.199-0.752
		c-0.291,0-0.545,0.021-0.76,0.057c-0.215,0.039-0.395,0.084-0.539,0.145s-0.256,0.131-0.336,0.211
		c-0.08,0.082-0.135,0.174-0.162,0.273c-0.025,0.096-0.029,0.178-0.018,0.246c0.01,0.068,0.037,0.127,0.078,0.17
		c0.041,0.045,0.094,0.076,0.16,0.096S147.238,27.274,147.324,27.274z M149.83,27.667l0.971-3.619h0.377
		c0.092,0,0.137,0.045,0.137,0.133l-0.053,0.371c0.178-0.166,0.363-0.299,0.557-0.402c0.193-0.107,0.398-0.158,0.617-0.158
		c0.246,0,0.426,0.066,0.541,0.203c0.113,0.137,0.174,0.32,0.178,0.551c0.086-0.131,0.182-0.244,0.291-0.338
		c0.109-0.098,0.221-0.176,0.338-0.238c0.119-0.061,0.24-0.105,0.363-0.135c0.125-0.029,0.244-0.043,0.363-0.043
		c0.189,0,0.354,0.029,0.486,0.092c0.133,0.059,0.232,0.148,0.307,0.266c0.07,0.115,0.111,0.26,0.121,0.43
		c0.008,0.172-0.018,0.365-0.074,0.586l-0.619,2.303h-0.635l0.617-2.303c0.076-0.283,0.072-0.5-0.012-0.646
		c-0.084-0.145-0.244-0.221-0.48-0.221c-0.105,0-0.209,0.021-0.313,0.057c-0.104,0.037-0.201,0.09-0.293,0.162
		c-0.09,0.07-0.17,0.162-0.24,0.27c-0.072,0.109-0.127,0.234-0.164,0.379l-0.617,2.303h-0.635l0.615-2.303
		c0.078-0.293,0.08-0.51,0-0.652c-0.078-0.143-0.229-0.215-0.453-0.215c-0.156,0-0.314,0.043-0.469,0.129
		c-0.158,0.084-0.313,0.201-0.465,0.346l-0.721,2.695H149.83z"/>
</g>
</svg>
