<?xml version="1.0" encoding="utf-8"?>
<!-- Generator: Adobe Illustrator 16.0.0, SVG Export Plug-In . SVG Version: 6.00 Build 0)  -->
<!DOCTYPE svg PUBLIC "-//W3C//DTD SVG 1.1//EN" "http://www.w3.org/Graphics/SVG/1.1/DTD/svg11.dtd">
<svg version="1.1" id="Layer_1" xmlns="http://www.w3.org/2000/svg" xmlns:xlink="http://www.w3.org/1999/xlink" x="0px" y="0px"
	 width="70.347px" height="71.614px" viewBox="0 0 70.347 71.614" enable-background="new 0 0 70.347 71.614" xml:space="preserve">
<g>
	<g>
		<g>
			<circle opacity="0.3" fill="#3D3D3D" cx="35.173" cy="36.44" r="35.173"/>
			<path fill="#8D633A" d="M69.442,33.934c0,18.737-15.342,33.93-34.269,33.93S0.905,52.67,0.905,33.934
				C0.905,15.191,16.247,0,35.174,0S69.442,15.191,69.442,33.934z"/>
			<circle fill="#F79421" cx="35.173" cy="33.934" r="31.976"/>
			<ellipse fill="#FBB03C" cx="35.133" cy="33.645" rx="30.988" ry="30.647"/>
			<path opacity="0.2" fill="#FFFFFF" d="M6.107,21.363C12.27,13.625,22.951,8.516,35.086,8.516
				c12.262,0,23.027,5.217,29.169,13.076C59.921,10.742,48.522,2.994,35.136,2.994C21.846,2.994,10.501,10.635,6.107,21.363z"/>
			<path opacity="0.5" fill="#FFFFFF" d="M45.607,15.227c-0.302,0.646-0.053,1.461,0.559,1.82c0,0,1.229,1.012,2.668,1.857
				c1.487,0.875,2.878,1.4,2.878,1.4c0.61,0.359,1.35,0.129,1.654-0.52c0,0,0.571-0.703,1.236-2.123
				c0.585-1.248,0.86-2.346,0.86-2.346c0.123-0.715-0.04-1.328-0.558-1.82c-0.598-0.568-1.517-1.201-2.658-1.871
				c-1.329-0.783-2.887-1.387-2.887-1.387c-0.61-0.359-1.353-0.129-1.654,0.518c-0.554,0.891-0.573,1.004-1.185,2.303
				C45.963,14.25,45.607,15.227,45.607,15.227z"/>
			<path opacity="0.5" fill="#FFFFFF" d="M39.673,10.895c-0.104,0.389,0.112,0.799,0.483,0.918c0,0,0.777,0.395,1.649,0.67
				c0.903,0.291,1.72,0.402,1.72,0.402c0.373,0.117,0.758-0.105,0.865-0.494c0,0,0.245-0.457,0.475-1.313
				c0.203-0.752,0.247-1.385,0.247-1.385c0-0.404-0.15-0.717-0.484-0.918c-0.384-0.234-0.951-0.463-1.645-0.682
				c-0.809-0.256-1.726-0.389-1.726-0.389c-0.371-0.117-0.757,0.104-0.86,0.49c-0.22,0.555-0.22,0.621-0.428,1.404
				C39.774,10.316,39.673,10.895,39.673,10.895z"/>
		</g>
	</g>
	<g>
		<path fill-rule="evenodd" clip-rule="evenodd" fill="#F79421" d="M52.583,31.014l-0.186-0.107L28.944,17.367l-0.16-0.094
			l-0.088-0.033c-1.513-0.615-2.822-0.643-3.893-0.008c-1.131,0.674-1.734,1.887-1.729,3.697h-0.009v25.407l0.009,0.02
			c0.023,2.658,0.975,3.982,2.461,4.523c1.277,0.469,2.646,0.121,4.039-0.447l0.111-0.047l0.129-0.074l22.498-12.99l0.184-0.105
			l0.131-0.111c0.959-0.82,1.521-1.756,1.592-2.827V34.27c0.076-1.133-0.394-2.188-1.51-3.146L52.583,31.014z M26.892,20.766
			c0.047-0.027,0.051-0.006,0.061,0.039C26.866,20.805,26.806,20.814,26.892,20.766z M27.907,46.684
			c-0.514,0.213-0.918,0.365-0.975,0.346c-0.146-0.053,0.232-0.123,0.236-0.693h0.008V21.074L49.728,34.09L27.907,46.684z"/>
		<linearGradient id="SVGID_1_" gradientUnits="userSpaceOnUse" x1="52.1777" y1="33.9365" x2="24.1494" y2="33.9365">
			<stop  offset="0" style="stop-color:#C7723B"/>
			<stop  offset="1" style="stop-color:#5D240C"/>
		</linearGradient>
		<path fill-rule="evenodd" clip-rule="evenodd" fill="url(#SVGID_1_)" d="M27.925,19.141c-1.795-0.727-2.809-0.248-2.803,1.789
			v25.407c0.029,3.246,1.716,3.004,3.674,2.203l22.498-12.991c1.075-0.924,1.244-1.875,0.086-2.871L27.925,19.141z"/>
		<path opacity="0.1" fill-rule="evenodd" clip-rule="evenodd" fill="#010101" d="M30.724,44.79
			c-1.959,0.807-3.646,1.047-3.676-2.197V18.873c-0.281-0.053-0.535-0.068-0.758-0.031c-0.354,0.059-0.633,0.232-0.827,0.533
			c-0.228,0.348-0.343,0.861-0.341,1.555v25.407c0.01,1.119,0.215,1.822,0.563,2.232c0.297,0.35,0.695,0.484,1.158,0.48
			c0.572-0.002,1.246-0.223,1.953-0.51l22.498-12.991c1.035-0.891,1.23-1.801,0.209-2.758L30.724,44.79z"/>
	</g>
</g>
</svg>
