<?xml version="1.0" encoding="utf-8"?>
<!-- Generator: Adobe Illustrator 16.0.0, SVG Export Plug-In . SVG Version: 6.00 Build 0)  -->
<!DOCTYPE svg PUBLIC "-//W3C//DTD SVG 1.1//EN" "http://www.w3.org/Graphics/SVG/1.1/DTD/svg11.dtd">
<svg version="1.1" id="Layer_1" xmlns="http://www.w3.org/2000/svg" xmlns:xlink="http://www.w3.org/1999/xlink" x="0px" y="0px"
	 width="48px" height="48px" viewBox="0 0 48 48" enable-background="new 0 0 48 48" xml:space="preserve">
<g>
	<path fill="#F7A615" d="M1,42.75c0,1.657,1.343,3,3,3h39.834c1.657,0,3-1.343,3-3V5.303c0-1.657-1.343-3-3-3H4
		c-1.657,0-3,1.343-3,3V42.75z"/>
</g>
<g>
	<g>
		<defs>
			<rect id="SVGID_1_" x="8" y="11.23" width="32.667" height="27.183"/>
		</defs>
		<clipPath id="SVGID_2_">
			<use xlink:href="#SVGID_1_"  overflow="visible"/>
		</clipPath>
		<path clip-path="url(#SVGID_2_)" fill="#FFFFFF" d="M34.17,20.471c0.308,0,0.563,0.255,0.563,0.563
			c0,0.314-0.255,0.569-0.563,0.569c-0.314,0-0.564-0.255-0.564-0.569C33.605,20.727,33.855,20.471,34.17,20.471L34.17,20.471z
			 M31.612,20.477c-0.633,0-1.148,0.51-1.148,1.148c0,0.633,0.516,1.148,1.148,1.148c0.638,0,1.148-0.515,1.148-1.148
			C32.761,20.987,32.25,20.477,31.612,20.477L31.612,20.477z M32.765,18.94c0,0.425,0.341,0.766,0.766,0.766
			c0.422,0,0.766-0.34,0.766-0.766c0-0.42-0.344-0.766-0.766-0.766C33.105,18.174,32.765,18.52,32.765,18.94L32.765,18.94z
			 M40.31,21.513c-0.282,0.282-0.744,0.282-1.03,0l-0.357-0.356l-9.431,9.438l-4.851-8.156l7.784-7.785l-0.354-0.355
			c-0.289-0.283-0.282-0.745,0-1.026c0.279-0.281,0.744-0.287,1.03,0l7.209,7.209C40.597,20.764,40.597,21.226,40.31,21.513
			L40.31,21.513z M37.838,20.073l-4.329-4.334l-6.021,6.056l-1.209,1.213h8.651L37.838,20.073z M19.416,27.771
			c0,0.664,0.542,1.202,1.201,1.202c0.665,0,1.207-0.538,1.207-1.202c0-0.665-0.542-1.202-1.207-1.202
			C19.958,26.569,19.416,27.106,19.416,27.771L19.416,27.771z M17.176,25.947c-0.648,0-1.169,0.527-1.169,1.17
			c0,0.648,0.527,1.175,1.169,1.175c0.649,0,1.175-0.526,1.175-1.175C18.352,26.475,17.825,25.947,17.176,25.947L17.176,25.947z
			 M20.478,25.055c0-0.474-0.383-0.861-0.855-0.861c-0.474,0-0.863,0.387-0.863,0.861c0,0.473,0.389,0.861,0.863,0.861
			C20.095,25.916,20.478,25.527,20.478,25.055L20.478,25.055z M29.617,32.934c0.729,2.165-0.073,4.174-2.402,4.174H10.663
			c-2.328,0-3.132-1.987-2.404-4.152c0,0,2.872-5.349,7.545-13.026v-4.444h-0.287c-0.419,0-0.76-0.341-0.76-0.761
			c0-0.416,0.346-0.756,0.76-0.756h1.202l-0.712-2.737h5.816l-0.717,2.737h1.26c0.415,0,0.754,0.341,0.754,0.756
			c-0.005,0.42-0.34,0.761-0.76,0.761h-0.287v4.444C26.747,27.606,29.617,32.934,29.617,32.934L29.617,32.934z M26.118,30.031
			c-0.323-0.628-4.199-7.359-5.39-9.299l-0.181-0.303H17.33l-0.18,0.303c-1.213,1.983-4.887,8.406-5.296,9.097
			c-0.027,0.059-0.064,0.128-0.101,0.202H26.118z M26.118,30.031"/>
	</g>
</g>
</svg>
