<?xml version="1.0" encoding="utf-8"?>
<!-- Generator: Adobe Illustrator 16.0.0, SVG Export Plug-In . SVG Version: 6.00 Build 0)  -->
<!DOCTYPE svg PUBLIC "-//W3C//DTD SVG 1.1//EN" "http://www.w3.org/Graphics/SVG/1.1/DTD/svg11.dtd">
<svg version="1.1" id="Layer_1" xmlns="http://www.w3.org/2000/svg" xmlns:xlink="http://www.w3.org/1999/xlink" x="0px" y="0px"
	 width="48px" height="48px" viewBox="0 0 48 48" enable-background="new 0 0 48 48" xml:space="preserve">
<g>
	<path fill="#8EB025" d="M1,42.75c0,1.657,1.343,3,3,3h39.834c1.657,0,3-1.343,3-3V5.303c0-1.657-1.343-3-3-3H4
		c-1.657,0-3,1.343-3,3V42.75z"/>
</g>
<g>
	<path fill="#FFFFFF" d="M23.631,5.397c-10.292,0-18.667,8.374-18.667,18.667c0,10.292,8.376,18.666,18.667,18.666
		c10.293,0,18.666-8.374,18.666-18.666C42.299,13.771,33.926,5.397,23.631,5.397z M29.311,39.878
		c0.031-0.312-0.189-0.638-0.189-0.638l1.509-2.152c0,0,1.228-1.535,1.38-2.149c0.154-0.613,1.688-1.381,2.609-3.033
		c0.921-1.652-3.84-0.623-3.248-0.977c0.592-0.356-1.051-0.75-2.893-1.316c-1.841-0.564-2.596-2.965-2.596-2.965
		c-4.744-1.84-0.936,6.204-0.936,6.204s1.261,0.438,1.436,1.82c0.161,1.304-0.289,5.175,1.332,5.696
		c-1.313,0.327-2.674,0.52-4.084,0.52c-9.276,0-16.824-7.548-16.824-16.826c0-1.462,0.208-2.875,0.56-4.227
		c0.538,0.884,1.496,2.339,3.222,4.715c3.685,5.064,5.834,3.222,9.825,6.175c3.993,2.953,1.688-2.185,0-2.165
		c-1.688,0.022-2.917-3.703-2.917-3.703s-0.768-2.61,0.613-3.947s1.843,0.262,2.917,0s1.688-1.733,1.227-3.116
		c-0.461-1.382-1.688,1.074-2.456,0.768s-0.307-1.382,3.685-2.304c3.99-0.923,1.227-2.345,1.227-2.345s-1.688,0.809-3.224-0.267
		c-1.534-1.074-1.229,1.843-2.763-1.074c-1.198-2.279-3.791-1.708-5.658-1.588c2.893-2.335,6.567-3.743,10.566-3.743
		c5.284,0,10.002,2.454,13.09,6.278c-1.479,0.137-3.916,0.678-4.47,2.729l-2.188,2.51c-2.649,3.132,1.036,5.521,1.726,5.307
		c0.692-0.218,1.957-1.254,2.878,0.936c0.92,2.188,0.911,6.571,1.486,7.261s2.228-1.005,2.075-3.771
		c0.252-0.821,1.655-1.874,2.161-3.152C39.886,32.062,35.414,37.682,29.311,39.878z"/>
</g>
</svg>
