<?xml version="1.0" encoding="utf-8"?>
<!-- Generator: Adobe Illustrator 16.0.0, SVG Export Plug-In . SVG Version: 6.00 Build 0)  -->
<!DOCTYPE svg PUBLIC "-//W3C//DTD SVG 1.1//EN" "http://www.w3.org/Graphics/SVG/1.1/DTD/svg11.dtd">
<svg version="1.1" id="Layer_1" xmlns="http://www.w3.org/2000/svg" xmlns:xlink="http://www.w3.org/1999/xlink" x="0px" y="0px"
	 width="48px" height="48px" viewBox="0 0 48 48" enable-background="new 0 0 48 48" xml:space="preserve">
<g>
	<path fill="#C03A2A" d="M1,42.75c0,1.657,1.343,3,3,3h39.834c1.657,0,3-1.343,3-3V5.303c0-1.657-1.343-3-3-3H4
		c-1.657,0-3,1.343-3,3V42.75z"/>
</g>
<g>
	<g>
		<path fill="#FFFFFF" d="M7.145,22.656l2.535,8.997l4.665-1.313L9.947,14.721l-3.682,1.035c0.153,0.657,0.153,1.24,0,1.759
			c-0.153,0.518-0.408,0.968-0.77,1.353c-0.36,0.383-0.792,0.707-1.3,0.974c-0.505,0.262-1.046,0.465-1.618,0.618l0.911,3.226
			L7.145,22.656z"/>
		<path fill="#FFFFFF" d="M42.51,28.139l-7.189-1.485l0.004-0.024c0.838-0.301,1.721-0.584,2.63-0.834
			c0.911-0.254,1.763-0.579,2.549-0.959c0.796-0.389,1.483-0.881,2.073-1.486c0.583-0.611,0.986-1.428,1.194-2.442
			c0.177-0.838,0.171-1.601-0.008-2.301c-0.184-0.695-0.517-1.305-1-1.838c-0.487-0.526-1.109-0.979-1.867-1.35
			c-0.757-0.368-1.614-0.655-2.577-0.853c-1.062-0.22-2.058-0.272-2.979-0.141c-0.923,0.126-1.741,0.42-2.454,0.883
			c-0.715,0.462-1.301,1.092-1.769,1.878c-0.468,0.798-0.782,1.75-0.947,2.853l4.292,0.893c0.169-0.984,0.495-1.739,0.975-2.267
			c0.483-0.523,1.188-0.69,2.098-0.504c0.53,0.111,0.957,0.346,1.268,0.699c0.318,0.364,0.4,0.91,0.247,1.637
			c-0.061,0.291-0.184,0.533-0.382,0.73c-0.19,0.202-0.416,0.369-0.674,0.505c-0.255,0.138-0.526,0.252-0.812,0.352
			c-0.283,0.104-0.535,0.193-0.757,0.271c-0.568,0.202-1.146,0.407-1.745,0.605c-0.598,0.203-1.184,0.424-1.746,0.662
			c-0.561,0.244-1.102,0.514-1.622,0.815c-0.516,0.307-0.986,0.659-1.418,1.042c-0.502,0.449-0.926,0.98-1.27,1.595
			c-0.337,0.615-0.566,1.308-0.684,2.091l13.763,2.85L42.51,28.139z"/>
		<polygon fill="#FFFFFF" points="18.546,34.817 21.832,31.533 25.092,34.817 27.636,32.303 24.352,29.012 27.636,25.699 
			25.114,23.189 21.832,26.495 18.546,23.207 16.027,25.728 19.313,29.012 16.027,32.303 		"/>
	</g>
</g>
</svg>
