<?xml version="1.0" encoding="utf-8"?>
<!-- Generator: Adobe Illustrator 16.0.0, SVG Export Plug-In . SVG Version: 6.00 Build 0)  -->
<!DOCTYPE svg PUBLIC "-//W3C//DTD SVG 1.1//EN" "http://www.w3.org/Graphics/SVG/1.1/DTD/svg11.dtd">
<svg version="1.1" id="Capa_1" xmlns="http://www.w3.org/2000/svg" xmlns:xlink="http://www.w3.org/1999/xlink" x="0px" y="0px"
	 width="325.125px" height="459px" viewBox="66.938 0 325.125 459" enable-background="new 66.938 0 325.125 459"
	 xml:space="preserve">
<g>
	<g>
		<path fill="#3C92CA" d="M296.438,76.5V57.375C296.438,24.862,271.575,0,239.063,0h-114.75C91.8,0,66.938,24.862,66.938,57.375V459
			l114.75-114.75L296.438,459V286.875c53.551-5.737,95.625-49.726,95.625-105.188C392.063,126.225,349.986,82.237,296.438,76.5z
			 M286.875,267.75c-47.813,0-86.062-38.25-86.062-86.063c0-47.812,38.25-86.062,86.062-86.062s86.063,38.25,86.063,86.062
			C372.938,229.5,334.688,267.75,286.875,267.75z"/>
		<g>
			<path fill="#3C92CA" d="M352.592,153.579l-83.793,83.793c-0.74,0.738-1.934,0.738-2.67,0l-47.579-47.581
				c-0.738-0.734-0.738-1.928,0-2.666l11.56-11.563c0.739-0.736,1.933-0.736,2.671,0l34.685,34.684l70.897-70.898
				c0.741-0.738,1.932-0.738,2.672,0l11.557,11.56C353.332,151.646,353.332,152.838,352.592,153.579z"/>
		</g>
	</g>
</g>
</svg>
