<?xml version="1.0" encoding="utf-8"?>
<!-- Generator: Adobe Illustrator 16.0.0, SVG Export Plug-In . SVG Version: 6.00 Build 0)  -->
<!DOCTYPE svg PUBLIC "-//W3C//DTD SVG 1.1//EN" "http://www.w3.org/Graphics/SVG/1.1/DTD/svg11.dtd">
<svg version="1.1" id="Layer_1" xmlns="http://www.w3.org/2000/svg" xmlns:xlink="http://www.w3.org/1999/xlink" x="0px" y="0px"
	 width="129.223px" height="113.509px" viewBox="1.977 366.491 129.223 113.509"
	 enable-background="new 1.977 366.491 129.223 113.509" xml:space="preserve">
<path fill="#1084C3" d="M67.149,471.893l51.89-58.377c4.865-5.675,4.865-14.594-0.811-20.269l-21.891-21.892
	c-2.433-3.243-6.486-4.864-10.541-4.864H71.203c-4.054,0-8.108,1.621-11.351,4.864L5.53,432.975
	c-4.865,5.676-4.865,15.405,0.811,20.27l21.891,21.892c2.433,3.242,6.486,4.864,10.54,4.864H131.2v-8.107H67.149L67.149,471.893z
	 M56.609,471.081C56.609,471.081,56.609,470.271,56.609,471.081l-21.891-21.891c-3.243-3.243-3.243-7.297,0-10.54l27.566-31.62
	h-8.108l-24.323,26.755c-4.865,5.676-4.865,13.783,0.811,19.459l18.647,18.647h-10.54c-1.622,0-3.243-0.811-4.865-1.621
	l-22.702-22.702c-2.433-2.432-2.433-6.486,0-8.918l28.377-31.62h14.594l28.377-32.432h8.107l-28.377,32.432l25.134,29.998
	L59.041,469.46C58.23,470.271,57.419,470.271,56.609,471.081L56.609,471.081z"/>
</svg>
