<?xml version="1.0" encoding="utf-8"?>
<!-- Generator: Adobe Illustrator 16.0.0, SVG Export Plug-In . SVG Version: 6.00 Build 0)  -->
<!DOCTYPE svg PUBLIC "-//W3C//DTD SVG 1.1//EN" "http://www.w3.org/Graphics/SVG/1.1/DTD/svg11.dtd">
<svg version="1.1" id="Capa_1" xmlns="http://www.w3.org/2000/svg" xmlns:xlink="http://www.w3.org/1999/xlink" x="0px" y="0px"
	 width="512px" height="277.246px" viewBox="0 117.377 512 277.246" enable-background="new 0 117.377 512 277.246"
	 xml:space="preserve">
<g>
	<g>
		<path fill="#1084C3" d="M503.203,244.878c-1.033-1.309-25.841-32.43-68.372-63.676c-56.833-41.755-118.672-63.825-178.833-63.825
			c-60.158,0-121.998,22.07-178.833,63.825c-42.53,31.245-67.337,62.367-68.372,63.676L0,255.999l8.794,11.122
			c1.034,1.31,25.842,32.431,68.372,63.677c56.835,41.754,118.675,63.825,178.833,63.825c60.16,0,121.999-22.071,178.833-63.825
			c42.53-31.246,67.338-62.367,68.371-63.677L512,255.999L503.203,244.878z M255.998,353.113c-53.547,0-97.113-43.564-97.113-97.113
			c0-8.39,1.069-16.533,3.079-24.305l-22.171-3.731c-2.172,8.995-3.325,18.384-3.325,28.036c0,34.59,14.775,65.789,38.338,87.636
			c-30.332-11.204-56.124-26.926-75.589-41.146c-24.116-17.613-42.19-35.429-52.494-46.49c10.309-11.064,28.38-28.878,52.494-46.49
			c19.466-14.22,45.259-29.941,75.589-41.146l14.874,16.766c17.371-16.266,40.7-26.241,66.318-26.241
			c53.548,0,97.112,43.563,97.112,97.112S309.546,353.113,255.998,353.113z M412.779,302.49
			c-19.468,14.22-45.258,29.941-75.589,41.146c23.562-21.845,38.337-53.045,38.337-87.637s-14.775-65.791-38.337-87.638
			c30.331,11.206,56.121,26.928,75.589,41.146c24.117,17.614,42.19,35.43,52.494,46.49
			C454.966,267.065,436.894,284.878,412.779,302.49z"/>
		<path fill="#1084C3" d="M194.2,237.122c-1.823,5.973-2.81,12.309-2.81,18.878c0,35.682,28.926,64.608,64.608,64.608
			c35.682,0,64.607-28.926,64.607-64.608c0-35.682-28.926-64.608-64.607-64.608c-17.38,0-33.145,6.876-44.758,18.039l31.868,35.922
			L194.2,237.122z"/>
	</g>
</g>
</svg>
