<?xml version="1.0" encoding="utf-8"?>
<!-- Generator: Adobe Illustrator 16.0.0, SVG Export Plug-In . SVG Version: 6.00 Build 0)  -->
<!DOCTYPE svg PUBLIC "-//W3C//DTD SVG 1.1//EN" "http://www.w3.org/Graphics/SVG/1.1/DTD/svg11.dtd">
<svg version="1.1" id="Capa_1" xmlns="http://www.w3.org/2000/svg" xmlns:xlink="http://www.w3.org/1999/xlink" x="0px" y="0px"
	 width="787.873px" height="768px" viewBox="185.6 0 787.873 768" enable-background="new 185.6 0 787.873 768"
	 xml:space="preserve">
<g>
	<g>
		<defs>
			<rect id="SVGID_1_" x="485.12" y="0" width="488.353" height="768"/>
		</defs>
		<clipPath id="SVGID_2_">
			<use xlink:href="#SVGID_1_"  overflow="visible"/>
		</clipPath>
		
			<rect x="455.889" y="10.324" clip-path="url(#SVGID_2_)" fill="none" stroke="#1084C3" stroke-width="20" stroke-linecap="round" stroke-linejoin="round" stroke-miterlimit="10" width="487.393" height="741.27"/>
	</g>
	<g>
		<path fill="#1084C3" d="M736,460.8H288c-7.078,0-12.8,5.722-12.8,12.8s5.721,12.8,12.8,12.8h448c7.078,0,12.8-5.722,12.8-12.8
			S743.078,460.8,736,460.8z"/>
		<path fill="#1084C3" d="M569.6,396.8H736c7.078,0,12.8-5.722,12.8-12.8c0-7.079-5.722-12.801-12.8-12.801H569.6
			c-7.078,0-12.8,5.722-12.8,12.801C556.8,391.078,562.521,396.8,569.6,396.8z"/>
		<path fill="#1084C3" d="M569.6,307.199H736c7.078,0,12.8-5.722,12.8-12.8s-5.722-12.8-12.8-12.8H569.6
			c-7.078,0-12.8,5.722-12.8,12.8S562.521,307.199,569.6,307.199z"/>
		<path fill="#1084C3" d="M569.6,217.6H736c7.078,0,12.8-5.722,12.8-12.8S743.078,192,736,192H569.6c-7.078,0-12.8,5.722-12.8,12.8
			S562.521,217.6,569.6,217.6z"/>
		<path fill="#1084C3" d="M736,614.4H288c-7.078,0-12.8,5.722-12.8,12.8c0,7.079,5.721,12.801,12.8,12.801h448
			c7.078,0,12.8-5.722,12.8-12.801C748.8,620.121,743.078,614.4,736,614.4z"/>
		<path fill="#1084C3" d="M288,563.199h179.2c7.078,0,12.8-5.722,12.8-12.8s-5.722-12.8-12.8-12.8H288
			c-7.078,0-12.8,5.722-12.8,12.8S280.921,563.199,288,563.199z"/>
		<path fill="#1084C3" d="M736,537.6H569.6c-7.078,0-12.8,5.722-12.8,12.8s5.722,12.8,12.8,12.8H736c7.078,0,12.8-5.722,12.8-12.8
			S743.078,537.6,736,537.6z"/>
		<path fill="#1084C3" d="M527.488,559.488c2.304-2.432,3.712-5.76,3.712-9.088c0-3.341-1.408-6.669-3.712-8.96
			c-4.736-4.864-13.581-4.864-18.176-0.128c-2.317,2.419-3.713,5.747-3.713,9.088c0,3.328,1.396,6.656,3.713,9.088
			c2.419,2.304,5.619,3.712,9.088,3.712C521.729,563.199,525.056,561.791,527.488,559.488z"/>
		<path fill="#1084C3" d="M825.6,51.2h-320V12.8c0-7.078-5.721-12.8-12.8-12.8H288c-7.078,0-12.8,5.722-12.8,12.8v38.4h-76.8
			c-7.078,0-12.8,5.721-12.8,12.8v691.199c0,7.079,5.722,12.801,12.8,12.801h627.2c7.079,0,12.801-5.722,12.801-12.801V64
			C838.4,56.921,832.679,51.2,825.6,51.2z M812.8,742.4H211.2V76.8h64v294.399c0,4.852,2.739,9.28,7.078,11.456
			c4.339,2.163,9.536,1.716,13.402-1.216l94.72-71.04l94.72,71.04c1.05,0.794,2.214,1.356,3.417,1.792
			c0.436,0.153,0.884,0.205,1.332,0.308c0.793,0.179,1.562,0.346,2.381,0.384c0.191,0,0.371,0.09,0.563,0.09
			c0.218,0,0.41-0.142,0.628-0.154c1.74-0.076,3.481-0.396,5.106-1.203c4.314-2.176,7.053-6.604,7.053-11.456V76.8h307.2V742.4z"/>
	</g>
</g>
</svg>
