<?xml version="1.0" encoding="utf-8"?>
<!-- Generator: Adobe Illustrator 16.0.0, SVG Export Plug-In . SVG Version: 6.00 Build 0)  -->
<!DOCTYPE svg PUBLIC "-//W3C//DTD SVG 1.1//EN" "http://www.w3.org/Graphics/SVG/1.1/DTD/svg11.dtd">
<svg version="1.1" id="Capa_1" xmlns="http://www.w3.org/2000/svg" xmlns:xlink="http://www.w3.org/1999/xlink" x="0px" y="0px"
	 width="150.34px" height="185.913px" viewBox="48.985 326.087 150.34 185.913"
	 enable-background="new 48.985 326.087 150.34 185.913" xml:space="preserve">
<g>
	<g>
		<path fill="#1084C3" d="M178.086,348.362h-28.939c-1.443-12.519-12.094-22.274-24.993-22.274
			c-12.898,0-23.547,9.756-24.991,22.274h-28.94c-11.711,0-21.238,9.528-21.238,21.24v1.09c0,8.949,5.572,16.609,13.422,19.73
			V490.76c0,11.711,9.528,21.24,21.238,21.24h81.019c11.711,0,21.238-9.53,21.238-21.24V390.422
			c7.849-3.121,13.422-10.781,13.422-19.73v-1.09C199.325,357.89,189.797,348.362,178.086,348.362z M124.154,336.16
			c7.336,0,13.46,5.258,14.814,12.201h-29.626C110.697,341.418,116.821,336.16,124.154,336.16z M175.829,490.76
			c0,6.157-5.01,11.167-11.166,11.167H83.645c-6.155,0-11.165-5.011-11.165-11.167v-98.828h103.349V490.76z M189.251,370.692
			c0,6.157-5.01,11.167-11.166,11.167H70.223c-6.155,0-11.165-5.01-11.165-11.167v-1.09c0-6.158,5.01-11.168,11.165-11.168h107.864
			c6.156,0,11.166,5.01,11.166,11.168L189.251,370.692L189.251,370.692z"/>
		<path fill="#1084C3" d="M97.151,489.045c2.782,0,5.037-2.256,5.037-5.036v-56.708c0-2.781-2.255-5.037-5.037-5.037
			c-2.781,0-5.036,2.256-5.036,5.037v56.708C92.115,486.79,94.37,489.045,97.151,489.045z"/>
		<path fill="#1084C3" d="M124.154,489.045c2.782,0,5.037-2.256,5.037-5.036v-56.708c0-2.781-2.256-5.037-5.037-5.037
			c-2.781,0-5.036,2.256-5.036,5.037v56.708C119.118,486.79,121.373,489.045,124.154,489.045z"/>
		<path fill="#1084C3" d="M151.157,489.045c2.781,0,5.036-2.256,5.036-5.036v-56.708c0-2.781-2.255-5.037-5.036-5.037
			c-2.782,0-5.037,2.256-5.037,5.037v56.708C146.12,486.79,148.376,489.045,151.157,489.045z"/>
	</g>
</g>
</svg>
