<?xml version="1.0" encoding="utf-8"?>
<!-- Generator: Adobe Illustrator 16.0.0, SVG Export Plug-In . SVG Version: 6.00 Build 0)  -->
<!DOCTYPE svg PUBLIC "-//W3C//DTD SVG 1.1//EN" "http://www.w3.org/Graphics/SVG/1.1/DTD/svg11.dtd">
<svg version="1.1" id="Layer_1" xmlns="http://www.w3.org/2000/svg" xmlns:xlink="http://www.w3.org/1999/xlink" x="0px" y="0px"
	 width="735px" height="735px" viewBox="144.5 16.5 735 735" enable-background="new 144.5 16.5 735 735" xml:space="preserve">
<g>
	<path fill="#1084C3" d="M870.5,699.3L693.8,522.6c43.8-53.4,70.2-121.8,70.2-196.35c0-171-138.75-309.75-309.75-309.75
		C283.1,16.5,144.5,155.25,144.5,326.25S283.1,636,454.25,636c74.55,0,142.8-26.25,196.2-70.051L827.15,742.5
		c12,12,31.35,12,43.35,0C882.5,730.65,882.5,711.15,870.5,699.3z M454.25,574.35C317.3,574.35,206,463.05,206,326.25
		S317.3,78,454.25,78c136.8,0,248.25,111.45,248.25,248.25S591.05,574.35,454.25,574.35z"/>
</g>
</svg>
