<?xml version="1.0" encoding="utf-8"?>
<!-- Generator: Adobe Illustrator 16.0.0, SVG Export Plug-In . SVG Version: 6.00 Build 0)  -->
<!DOCTYPE svg PUBLIC "-//W3C//DTD SVG 1.1//EN" "http://www.w3.org/Graphics/SVG/1.1/DTD/svg11.dtd">
<svg version="1.1" id="Capa_1" xmlns="http://www.w3.org/2000/svg" xmlns:xlink="http://www.w3.org/1999/xlink" x="0px" y="0px"
	 width="710.831px" height="767.996px" viewBox="156.582 0 710.831 767.996" enable-background="new 156.582 0 710.831 767.996"
	 xml:space="preserve">
<path fill="#1084C3" d="M722.539,478.195c-44.781,0-84.872,20.429-111.474,52.452l-173.038-98.245
	c5.382-15.143,8.339-31.424,8.339-48.392c0-16.965-2.957-33.246-8.339-48.389l173.024-98.268
	c26.598,32.032,66.695,52.468,111.481,52.468c79.884,0,144.875-65.015,144.875-144.933C867.415,64.994,802.424,0,722.539,0
	c-79.894,0-144.892,64.994-144.892,144.886c0,16.968,2.954,33.252,8.338,48.398l-173.034,98.271
	c-26.598-32.016-66.685-52.438-111.457-52.438c-79.904,0-144.913,64.995-144.913,144.889c0,79.891,65.008,144.886,144.913,144.886
	c44.772,0,84.856-20.422,111.454-52.435l173.038,98.248c-5.384,15.146-8.342,31.435-8.342,48.405
	c0,79.891,64.998,144.886,144.893,144.886c79.884,0,144.876-64.998,144.876-144.886
	C867.415,543.206,802.424,478.195,722.539,478.195z M722.539,50.7c51.928,0,94.175,42.251,94.175,94.186
	c0,51.961-42.247,94.231-94.175,94.231c-51.938,0-94.191-42.271-94.191-94.231C628.348,92.951,670.602,50.7,722.539,50.7z
	 M301.498,478.195c-51.948,0-94.212-42.254-94.212-94.185c0-51.938,42.264-94.188,94.212-94.188
	c51.928,0,94.171,42.251,94.171,94.188C395.669,435.941,353.422,478.195,301.498,478.195z M722.539,717.299
	c-51.938,0-94.191-42.254-94.191-94.185c0-51.951,42.254-94.219,94.191-94.219c51.928,0,94.175,42.268,94.175,94.219
	C816.714,675.045,774.467,717.299,722.539,717.299z"/>
</svg>
