<?xml version="1.0" encoding="utf-8"?>
<!-- Generator: Adobe Illustrator 16.0.0, SVG Export Plug-In . SVG Version: 6.00 Build 0)  -->
<!DOCTYPE svg PUBLIC "-//W3C//DTD SVG 1.1//EN" "http://www.w3.org/Graphics/SVG/1.1/DTD/svg11.dtd">
<svg version="1.1" id="Layer_1" xmlns="http://www.w3.org/2000/svg" xmlns:xlink="http://www.w3.org/1999/xlink" x="0px" y="0px"
	 width="660.085px" height="562.113px" viewBox="14.135 37.482 660.085 562.113"
	 enable-background="new 14.135 37.482 660.085 562.113" xml:space="preserve">
<g>
	<path fill="none" stroke="#1084C3" stroke-width="15" stroke-miterlimit="10" d="M654.106,245.176H483.737
		c-6.297,0-12.613,2.525-17.651,7.563l-46.664,46.663c-5.05,5.045-5.05,12.62,0,17.658l46.664,46.664
		c5.038,5.044,11.354,7.563,17.651,7.563h170.369c7.563,0,12.613-5.044,12.613-12.613V257.79
		C666.72,250.227,661.669,245.176,654.106,245.176z"/>
	<path fill="#1084C3" d="M360.151,599.595V151.388c-3.944,5.97-8.19,9.214-12.613,9.214c-4.43,0-8.669-3.245-12.62-9.239v448.231"/>
	<path fill="#1084C3" d="M363.021,133.531c19.193-6.792,32.944-25.086,32.944-46.608c0-21.529-13.759-39.824-32.944-46.614
		c-5.162-1.822-10.701-2.827-16.48-2.827c-5.789,0-11.328,1.005-16.489,2.827c-19.193,6.79-32.944,25.085-32.944,46.614
		c0,21.522,13.759,39.816,32.944,46.608c5.161,1.83,10.7,2.833,16.489,2.833C352.321,136.364,357.868,135.361,363.021,133.531z"/>
	<path fill="none" stroke="#1084C3" stroke-width="15" stroke-miterlimit="10" d="M650.216,456.781H483.737
		c-6.297,0-12.613,2.525-17.651,7.563l-46.664,46.67c-5.05,5.038-5.05,12.607,0,17.651l46.664,46.67
		c5.038,5.038,11.354,7.563,17.651,7.563h166.479c7.563,0,12.613-5.044,12.613-12.614V469.395
		C662.829,461.825,657.785,456.781,650.216,456.781z"/>
	<path fill="none" stroke="#1084C3" stroke-width="15" stroke-miterlimit="10" d="M230.979,439.49
		c-5.038,5.044-11.354,7.569-17.651,7.569H34.242c-7.563,0-12.607-5.051-12.607-12.62V333.555c0-7.563,5.038-12.613,12.607-12.613
		h179.086c6.297,0,12.613,2.525,17.651,7.563l46.664,46.67c5.05,5.044,5.05,12.613,0,17.651L230.979,439.49z"/>
	<line fill="none" stroke="#1084C3" stroke-width="22" stroke-miterlimit="10" x1="422.5" y1="308.232" x2="347.537" y2="308.232"/>
	<line fill="none" stroke="#1084C3" stroke-width="22" stroke-miterlimit="10" x1="336.394" y1="383.5" x2="281.418" y2="383.5"/>
	<line fill="none" stroke="#1084C3" stroke-width="22" stroke-miterlimit="10" x1="423.394" y1="519.5" x2="348.431" y2="519.5"/>
</g>
</svg>
