<?xml version="1.0" encoding="utf-8"?>
<!-- Generator: Adobe Illustrator 21.0.0, SVG Export Plug-In . SVG Version: 6.00 Build 0)  -->
<svg version="1.1" id="Isolation_Mode" xmlns="http://www.w3.org/2000/svg" xmlns:xlink="http://www.w3.org/1999/xlink" x="0px"
	 y="0px" viewBox="0 0 60.3 58.6" style="enable-background:new 0 0 60.3 58.6;" xml:space="preserve">
<style type="text/css">
	.st0{fill:#FFA452;}
	.st1{fill:#FFB171;}
	.st2{fill:#FFFFFF;}
</style>
<g>
	<path class="st0" d="M0.2,30.7c-1-5.5,2-10.8,6.8-12.9c0-0.5-0.2-0.8-0.2-1.3c0-3.8,3.2-7,7-7c0.5,0,1.2,0,1.7,0.2
		c1.2-4.5,5-8,9.8-8.8c5.1-0.8,10.1,1.7,12.6,6c1.2-1,2.8-1.7,4.5-1.7c3.8,0,7,3.2,7,7c0,1.7-0.7,3.3-1.7,4.5c0.5-0.2,1-0.2,1.7-0.2
		c3.8,0,7,3.2,7,7c0,0.8-0.2,1.5-0.3,2.3c2.2,1.5,3.7,3.8,4.2,6.6c1,5.6-2.8,10.8-8.5,11.8c-1.7,0.3-3.3,0.2-4.8-0.3
		c-0.3,2.8-2.5,5.1-5.3,5.8c-2.5,0.5-5-0.3-6.6-2c-1.2,3.5-4.2,6.1-8,6.8c-3.3,0.5-6.6-0.5-8.8-2.8c-2,2.7-6.5,7-14.9,7
		c0,0,8.5-2.5,8.3-11.3c-3.3-0.5-6-3.5-6-7c0-0.5,0-1,0.2-1.3C2.7,37,0.7,34.2,0.2,30.7z"/>
	<path class="st1" d="M13.3,20.4c0-0.3-0.2-0.7-0.2-1c0-2.8,2.3-5.1,5.1-5.1c0.3,0,0.8,0,1.2,0.2c0.8-3.2,3.7-5.8,7.1-6.5
		c3.8-0.7,7.3,1.2,9.1,4.3c0.8-0.7,2-1.2,3.2-1.2c2.8,0,5.1,2.3,5.1,5.1c0,1.2-0.5,2.3-1.2,3.3c0.3-0.2,0.8-0.2,1.2-0.2
		c2.8,0,5.1,2.3,5.1,5.1c0,0.7-0.2,1.2-0.3,1.7c1.5,1.2,2.7,2.8,3,4.8c0.7,4-2,7.8-6.1,8.5c-1.2,0.2-2.5,0.2-3.5-0.3
		c-0.3,2-1.8,3.7-3.8,4.2c-1.8,0.5-3.7-0.2-4.8-1.5c-0.8,2.5-3,4.5-5.8,4.8c-3.8,0.7-7.5-1.8-8.5-5.5c-0.7,0.3-1.3,0.5-2.2,0.5
		c-2.8,0-5.1-2.3-5.1-5.1c0-0.3,0-0.7,0.2-1c-2-1.3-3.3-3.3-3.8-5.8C7.7,25.9,9.8,22.1,13.3,20.4z"/>
	<g>
		<circle class="st0" cx="55.1" cy="12.1" r="2.3"/>
		<circle class="st0" cx="39.2" cy="0.8" r="0.8"/>
		<circle class="st0" cx="3" cy="16.3" r="1.7"/>
		<circle class="st0" cx="13.1" cy="50.6" r="1.5"/>
		<circle class="st0" cx="49.2" cy="49.6" r="1.5"/>
		<circle class="st0" cx="5.5" cy="10.5" r="0.8"/>
		<circle class="st0" cx="58.8" cy="24.7" r="1.3"/>
	</g>
	<g>
		<g>
			<path class="st2" d="M25.9,36.4c-0.8-0.3-1.5-0.8-1.8-1.5c-0.5-0.8-0.8-1.7-0.5-2.7c0.5-2.3,3-4.3,4.3-5.1l0.2-0.2
				c1.8-1,5.5-3.3,6.1-5.6c0.2-0.7,0-1.3-0.3-2c-0.3-0.5-0.8-1-1.5-1.3c-0.8-0.3-1.8-0.2-2.7,0.3c-1.3,1-1.3,2.2-1.3,3.8v0.3
				c0,0.7-0.5,1.5-1.2,2c-0.7,0.3-1.3,0.5-1.8,0.2c-0.3-0.2-0.5-0.3-0.7-0.5c-1.2-1.3-1.7-3-1.5-4.6c0.3-2.2,1.8-4.3,3.8-5.6
				c2.2-1.3,5-1.7,7.3-0.7c1.7,0.7,3,1.8,3.8,3.5c2.3,4.2-0.5,8.5-4,11.3c-1.3,1.2-2.8,1.8-4,2.5c-1.2,0.7-2.2,1.2-2.5,1.7
				c-0.2,0.2-0.3,0.7-0.2,1c0,0.3,0.3,0.5,0.7,0.7c0.7,0.3,1.7,0.2,2.2-0.3c0.3-0.2,0.5-0.3,0.8-0.2c0.2,0.2,0.5,0.3,0.5,0.7
				c0.2,0.5,0,0.8-0.2,1.3C30.2,36.9,27.7,37,25.9,36.4L25.9,36.4z"/>
		</g>
		<g>
			<path class="st2" d="M25.8,43.8c-1.3-0.5-2-2-1.3-3.3c0.5-1.3,2-2,3.3-1.3c1.3,0.5,2,2,1.3,3.3C28.6,43.7,27.1,44.3,25.8,43.8
				L25.8,43.8z"/>
		</g>
	</g>
</g>
</svg>
