<?xml version="1.0" encoding="utf-8"?>
<!-- Generator: Adobe Illustrator 22.1.0, SVG Export Plug-In . SVG Version: 6.00 Build 0)  -->
<svg version="1.1" id="Layer_1" xmlns="http://www.w3.org/2000/svg" xmlns:xlink="http://www.w3.org/1999/xlink" x="0px" y="0px"
	 viewBox="0 0 71.8 59.4" style="enable-background:new 0 0 71.8 59.4;" xml:space="preserve">
<style type="text/css">
	.st0{opacity:0.35;}
	.st1{fill:#606060;}
	.st2{fill:#FFB000;}
	.st3{fill:#FFBB33;}
	.st4{fill:#F5F5F5;}
	.st5{fill:#FFFFFF;}
	.st6{fill:#DB9200;}
	.st7{fill:#F7801E;}
	.st8{fill:#FF8931;}
</style>
<g id="XMLID_3_">
	<g id="XMLID_1_" class="st0">
		<g id="XMLID_2_">
			<g id="XMLID_18_">
				<g id="XMLID_32_">
					
						<ellipse id="XMLID_35_" transform="matrix(0.9973 -7.310658e-02 7.310658e-02 0.9973 -2.0957 3.3701)" class="st1" cx="45" cy="30.3" rx="26.8" ry="23"/>
					<path id="XMLID_34_" class="st1" d="M26.5,36.1C25.7,25.4,35.3,16,48,15.1c11.5-0.8,21.5,5.6,23.8,14.8c0-0.5,0-0.9-0.1-1.4
						C70.8,15.8,58,6.4,43.3,7.5c-14.8,1.1-26,12.2-25.1,24.9C19.1,44.3,30.4,53.3,44,53.5C34.5,51.6,27.2,44.8,26.5,36.1z"/>
					<path id="XMLID_33_" class="st1" d="M43.7,51.7c0,0,7.4,12.2,18.5,5.9c-6.5,0.9-7.2-7.1-5.8-12L43.7,51.7z"/>
				</g>
				<g id="XMLID_19_">
					<g id="XMLID_30_">
						<path id="XMLID_31_" class="st1" d="M45.9,52.8c-0.1-0.2-0.2-0.3-0.3-0.4c-0.2,0-0.3,0-0.5,0v-0.2c0.2,0,0.4,0,0.5,0h0.1l0,0
							c0.1,0.1,0.2,0.2,0.3,0.4L45.9,52.8z"/>
					</g>
					<g id="XMLID_28_">
						<path id="XMLID_29_" class="st1" d="M56,58.5v-0.2c0.4,0,0.7,0,1.1-0.1v0.2C56.8,58.5,56.4,58.5,56,58.5z M54.9,58.4
							c-0.4,0-0.7-0.1-1.1-0.2l0.1-0.2c0.3,0.1,0.7,0.2,1,0.2V58.4z M52.8,57.9c-0.3-0.1-0.7-0.3-1-0.4l0.1-0.2
							c0.3,0.2,0.7,0.3,1,0.4L52.8,57.9z M50.9,57c-0.3-0.2-0.6-0.4-0.9-0.6l0.1-0.2c0.3,0.2,0.6,0.4,0.9,0.6L50.9,57z M49.1,55.8
							c-0.3-0.2-0.6-0.5-0.8-0.7l0.1-0.2c0.3,0.2,0.6,0.5,0.8,0.7L49.1,55.8z M47.4,54.4c-0.3-0.3-0.5-0.5-0.8-0.8l0.2-0.1
							c0.2,0.3,0.5,0.5,0.8,0.8L47.4,54.4z"/>
					</g>
					<g id="XMLID_26_">
						<path id="XMLID_27_" class="st1" d="M58.2,58.2L58.1,58c0.1,0,0.1,0,0.2,0c-0.1,0-0.1,0-0.2-0.1l0.1-0.2
							c0.2,0.1,0.3,0.1,0.5,0.2l0.4,0.1l-0.4,0.1C58.5,58.1,58.4,58.2,58.2,58.2z"/>
					</g>
					<g id="XMLID_24_">
						<path id="XMLID_25_" class="st1" d="M57.1,57.3c-0.3-0.2-0.5-0.5-0.8-0.9l0.2-0.1c0.2,0.3,0.5,0.6,0.8,0.8L57.1,57.3z
							 M55.7,55.5c-0.2-0.3-0.3-0.7-0.5-1.1l0.2-0.1c0.1,0.4,0.3,0.7,0.5,1L55.7,55.5z M54.9,53.3c-0.1-0.4-0.2-0.8-0.2-1.1h0.2
							c0.1,0.4,0.1,0.7,0.2,1.1H54.9z"/>
					</g>
					<g id="XMLID_22_">
						<path id="XMLID_23_" class="st1" d="M54.6,51c0-0.2,0-0.4,0-0.5v-0.1h0.1c0.2-0.1,0.3-0.1,0.5-0.2l0.1,0.2
							c-0.1,0.1-0.3,0.1-0.4,0.2c0,0.2,0,0.3,0,0.5L54.6,51z"/>
					</g>
					<g id="XMLID_20_">
						<path id="XMLID_21_" class="st1" d="M44,52.4c-0.4,0-0.7,0-1.1,0v-0.2c0.4,0,0.7,0,1.1,0V52.4z M41.8,52.3
							c-0.4,0-0.7-0.1-1.1-0.1V52c0.4,0,0.7,0.1,1.1,0.1V52.3z M39.7,52c-0.4-0.1-0.7-0.1-1.1-0.2v-0.2c0.4,0.1,0.7,0.1,1.1,0.2V52z
							 M37.6,51.6c-0.4-0.1-0.7-0.2-1.1-0.3l0.1-0.2c0.3,0.1,0.7,0.2,1,0.3V51.6z M35.5,51c-0.3-0.1-0.7-0.2-1-0.4l0.1-0.2
							c0.3,0.1,0.7,0.2,1,0.4L35.5,51z M33.4,50.3c-0.3-0.1-0.7-0.3-1-0.4l0.1-0.2c0.3,0.2,0.7,0.3,1,0.4L33.4,50.3z M56.2,50
							l-0.1-0.2c0.3-0.1,0.7-0.3,1-0.5l0.1,0.2C56.9,49.7,56.6,49.8,56.2,50z M31.5,49.3c-0.3-0.2-0.6-0.3-1-0.5l0.1-0.2
							c0.3,0.2,0.6,0.4,0.9,0.5V49.3z M58.2,49l-0.1-0.2c0.3-0.2,0.6-0.4,0.9-0.5l0.1,0.2C58.8,48.6,58.5,48.8,58.2,49z M29.6,48.2
							c-0.3-0.2-0.6-0.4-0.9-0.6l0.1-0.2c0.3,0.2,0.6,0.4,0.9,0.6L29.6,48.2z M60,47.9l-0.1-0.2c0.3-0.2,0.6-0.4,0.9-0.6l0.1,0.2
							C60.7,47.5,60.3,47.7,60,47.9z M27.8,47c-0.3-0.2-0.6-0.5-0.8-0.7l0.1-0.2c0.3,0.2,0.6,0.5,0.8,0.7L27.8,47z M61.8,46.6
							l-0.1-0.2c0.3-0.2,0.6-0.4,0.8-0.7l0.1,0.2C62.4,46.2,62.1,46.4,61.8,46.6z M26.2,45.6c-0.3-0.2-0.5-0.5-0.8-0.8l0.2-0.2
							c0.2,0.3,0.5,0.5,0.8,0.8L26.2,45.6z M63.5,45.2L63.4,45c0.3-0.2,0.5-0.5,0.8-0.8l0.2,0.2C64,44.7,63.7,45,63.5,45.2z
							 M24.6,44c-0.2-0.3-0.5-0.6-0.7-0.8l0.2-0.1c0.2,0.3,0.5,0.6,0.7,0.8L24.6,44z M65,43.7l-0.2-0.1c0.2-0.3,0.5-0.5,0.7-0.8
							l0.2,0.1C65.5,43.1,65.2,43.4,65,43.7z M23.3,42.3c-0.2-0.3-0.4-0.6-0.6-0.9l0.2-0.1c0.2,0.3,0.4,0.6,0.6,0.9L23.3,42.3z
							 M66.4,42l-0.2-0.1c0.2-0.3,0.4-0.6,0.6-0.9l0.2,0.1C66.8,41.4,66.6,41.7,66.4,42z M22.1,40.5c-0.2-0.3-0.3-0.6-0.5-1l0.2-0.1
							c0.2,0.3,0.3,0.6,0.5,0.9L22.1,40.5z M67.6,40.2l-0.2-0.1c0.2-0.3,0.4-0.6,0.5-0.9l0.2,0.1C67.9,39.5,67.7,39.8,67.6,40.2z
							 M21.2,38.6c-0.1-0.3-0.3-0.7-0.4-1l0.2-0.1c0.1,0.3,0.3,0.7,0.4,1L21.2,38.6z M68.6,38.2l-0.2-0.1c0.1-0.3,0.3-0.7,0.4-1
							l0.2,0.1C68.9,37.6,68.7,37.9,68.6,38.2z M20.4,36.5c-0.1-0.3-0.2-0.7-0.3-1.1h0.2c0.1,0.3,0.2,0.7,0.3,1L20.4,36.5z
							 M69.4,36.2l-0.2-0.1c0.1-0.3,0.2-0.7,0.3-1l0.2,0.1C69.6,35.5,69.5,35.9,69.4,36.2z M19.9,34.4c-0.1-0.4-0.1-0.7-0.2-1.1h0.2
							c0,0.4,0.1,0.7,0.2,1.1H19.9z M69.9,34.1h-0.2c0.1-0.3,0.1-0.7,0.2-1.1h0.2C70.1,33.4,70,33.8,69.9,34.1z M19.7,32.2
							c0-0.4,0-0.7,0-1.1h0.2c0,0.4,0,0.7,0,1.1H19.7z M70.3,32h-0.2c0-0.4,0.1-0.7,0.1-1.1h0.2C70.3,31.2,70.3,31.6,70.3,32z
							 M19.9,30.1h-0.2c0-0.4,0.1-0.7,0.1-1.1H20C19.9,29.4,19.9,29.7,19.9,30.1z M70.1,29.8c0-0.3,0-0.7,0-1v-0.1h0.2v0.1
							c0,0.3,0,0.7,0,1H70.1z M20.1,27.9h-0.2c0.1-0.4,0.1-0.7,0.2-1.1h0.2C20.2,27.2,20.2,27.6,20.1,27.9z M70,27.6
							c0-0.4-0.1-0.7-0.2-1.1H70c0.1,0.4,0.1,0.7,0.2,1.1H70z M20.6,25.8l-0.2-0.1c0.1-0.3,0.2-0.7,0.3-1l0.2,0.1
							C20.8,25.2,20.7,25.5,20.6,25.8z M69.6,25.5c-0.1-0.3-0.2-0.7-0.3-1l0.2-0.1c0.1,0.3,0.2,0.7,0.3,1L69.6,25.5z M21.3,23.8
							l-0.2-0.1c0.1-0.3,0.3-0.7,0.4-1l0.2,0.1C21.6,23.2,21.4,23.5,21.3,23.8z M68.9,23.5c-0.1-0.3-0.3-0.7-0.4-1l0.2-0.1
							c0.1,0.3,0.3,0.7,0.4,1L68.9,23.5z M22.2,21.9L22,21.8c0.2-0.3,0.4-0.6,0.5-0.9l0.2,0.1C22.6,21.2,22.4,21.6,22.2,21.9z
							 M68,21.5c-0.2-0.3-0.3-0.6-0.5-0.9l0.2-0.1c0.2,0.3,0.4,0.6,0.5,1H68z M23.4,20l-0.2-0.1c0.2-0.3,0.4-0.6,0.6-0.9l0.2,0.1
							C23.8,19.4,23.6,19.7,23.4,20z M67,19.7c-0.2-0.3-0.4-0.6-0.6-0.9l0.2-0.1c0.2,0.3,0.4,0.6,0.6,0.9L67,19.7z M24.7,18.3
							l-0.2-0.1c0.2-0.3,0.5-0.6,0.7-0.8l0.2,0.1C25.1,17.8,24.9,18,24.7,18.3z M65.7,17.9c-0.2-0.3-0.5-0.5-0.7-0.8l0.2-0.1
							c0.2,0.3,0.5,0.5,0.7,0.8L65.7,17.9z M26.1,16.7l-0.2-0.2c0.3-0.3,0.5-0.5,0.8-0.7l0.1,0.2C26.6,16.2,26.4,16.5,26.1,16.7z
							 M64.2,16.3c-0.3-0.3-0.5-0.5-0.8-0.7l0.1-0.2c0.3,0.2,0.5,0.5,0.8,0.7L64.2,16.3z M27.7,15.3l-0.1-0.2
							c0.3-0.2,0.6-0.5,0.8-0.7l0.1,0.2C28.3,14.8,28,15.1,27.7,15.3z M62.6,14.9c-0.3-0.2-0.6-0.5-0.8-0.7l0.1-0.2
							c0.3,0.2,0.6,0.4,0.9,0.7L62.6,14.9z M29.4,14l-0.1-0.2c0.3-0.2,0.6-0.4,0.9-0.6l0.1,0.2C30,13.6,29.7,13.8,29.4,14z
							 M60.9,13.6c-0.3-0.2-0.6-0.4-0.9-0.6l0.1-0.2c0.3,0.2,0.6,0.4,0.9,0.6L60.9,13.6z M31.2,12.8l-0.1-0.2c0.3-0.2,0.6-0.4,1-0.5
							l0.1,0.2C31.9,12.5,31.5,12.6,31.2,12.8z M59.1,12.5c-0.3-0.2-0.6-0.3-1-0.5l0.1-0.2c0.3,0.2,0.6,0.3,1,0.5L59.1,12.5z
							 M33.1,11.8L33,11.6c0.3-0.2,0.7-0.3,1-0.4l0.1,0.2C33.8,11.5,33.5,11.7,33.1,11.8z M57.2,11.5c-0.3-0.1-0.7-0.3-1-0.4
							l0.1-0.2c0.3,0.1,0.7,0.3,1,0.4L57.2,11.5z M35.1,11L35,10.8c0.3-0.1,0.7-0.3,1-0.4l0.1,0.2C35.8,10.7,35.5,10.8,35.1,11z
							 M55.2,10.7c-0.3-0.1-0.7-0.2-1-0.3l0.1-0.2c0.3,0.1,0.7,0.2,1,0.3L55.2,10.7z M37.2,10.3l-0.1-0.2c0.3-0.1,0.7-0.2,1-0.3
							l0.1,0.2C37.8,10.1,37.5,10.2,37.2,10.3z M53.1,10c-0.3-0.1-0.7-0.2-1-0.3V9.5c0.4,0.1,0.7,0.2,1.1,0.3L53.1,10z M39.2,9.7
							V9.5c0.4-0.1,0.7-0.1,1.1-0.2v0.2C39.9,9.6,39.6,9.6,39.2,9.7z M51,9.5c-0.4-0.1-0.7-0.1-1.1-0.2V9.1c0.4,0.1,0.7,0.1,1.1,0.2
							V9.5z M41.4,9.3V9.1C41.8,9,42.1,9,42.5,9v0.2C42.1,9.2,41.7,9.3,41.4,9.3z M48.9,9.2c-0.4,0-0.7-0.1-1.1-0.1V8.9
							c0.4,0,0.7,0.1,1.1,0.1V9.2z M43.5,9.1V8.9c0.4,0,0.7,0,1.1-0.1V9C44.2,9.1,43.9,9.1,43.5,9.1z M46.7,9.1c-0.4,0-0.7,0-1.1,0
							V8.9c0.4,0,0.7,0,1.1,0V9.1z"/>
					</g>
				</g>
			</g>
			<g id="XMLID_16_">
				<path id="XMLID_17_" class="st1" d="M44.9,16.4c2.4,0,4.4,0.8,6,2.4c1.5,1.6,2.3,3.4,2.3,5.5c0,1-0.2,1.9-0.5,2.8
					c-0.4,0.8-0.8,1.5-1.3,2s-1,0.9-1.5,1.2s-1,0.6-1.3,0.7L48,31.2c0,0.4,0,5-0.1,5.2c0,0.2-0.1,0.4-0.3,0.7
					c-0.2,0.2-0.5,0.4-0.9,0.5s-0.9,0.2-1.6,0.2s-1.2-0.1-1.6-0.2c-0.4-0.1-0.7-0.3-0.8-0.6c-0.2-0.3-0.3-0.5-0.3-0.7
					s-0.1-4.8-0.1-5.3v-0.1c0-0.1,0-0.1,0-0.2c0-1,0.3-1.8,0.8-2.4c0.6-0.6,1.2-1,1.9-1.1c0.7-0.2,1.3-0.5,1.9-0.9s0.8-1,0.8-1.7
					c0-0.8-0.2-1.4-0.6-1.8s-1.2-0.6-2.2-0.6c-0.6,0-1.2,0.1-1.6,0.4s-0.7,0.5-0.7,0.8l-0.1,0.4c-0.2,0.6-0.5,1.1-0.7,1.4
					c-0.3,0.3-0.7,0.5-1.2,0.5c-0.4,0-0.8-0.1-1.4-0.3c-0.9-0.3-1.5-0.7-1.8-1s-0.5-0.7-0.5-1.1c0-0.2,0.1-0.6,0.3-1.2l0.1-0.2
					c0-0.1,0.1-0.3,0.2-0.6c0.1-0.2,0.3-0.7,0.7-1.3c0.4-0.6,0.9-1.1,1.4-1.6s1.3-0.9,2.2-1.2C42.6,16.6,43.7,16.4,44.9,16.4z
					 M45,38.9c1.2,0,2.1,0.2,2.6,0.7c0.4,0.4,0.6,1.3,0.6,2.6c0,0.5,0,0.9-0.1,1.2c0,0.3-0.2,0.6-0.3,1c-0.2,0.4-0.5,0.6-1,0.8
					s-1.1,0.2-1.9,0.2c-1.2,0-2.1-0.2-2.6-0.7c-0.4-0.4-0.6-1.1-0.6-2v-0.6c0-0.5,0-0.9,0.1-1.2c0-0.3,0.1-0.6,0.3-1s0.5-0.6,1-0.8
					C43.6,39,44.2,38.9,45,38.9z"/>
			</g>
			<g id="XMLID_6_">
				<path id="XMLID_15_" class="st1" d="M18.2,31.7c0,0.2,0,0.4,0,0.6c0.1,1.6,0.4,3.2,0.9,4.7c1.9,1.8,5.2,3.9,9.4,1.5
					c-2.6,0.4-3.7-1.6-3.8-3.9c6-2.4,10-7.8,9.6-13.8c-0.2-3.1-1.6-5.8-3.7-7.9C23.4,17,18.5,24,18.2,31.7z"/>
				<g id="XMLID_7_">
					<g>
						
							<ellipse id="XMLID_13_" transform="matrix(0.9973 -7.309470e-02 7.309470e-02 0.9973 -1.3392 1.2339)" class="st1" cx="16.2" cy="18.9" rx="16.2" ry="13.9"/>
						<path id="XMLID_12_" class="st1" d="M5,22.4C4.5,15.2,10.4,8.8,18.2,8.2c6.2-0.5,11.7,2.8,14,7.8C30.7,9.3,23.5,4.5,15.3,5.1
							c-8.9,0.7-15.7,7.4-15.1,15c0.4,5.8,5,10.5,11.1,12.1C7.7,30.2,5.3,26.6,5,22.4z"/>
						<path id="XMLID_8_" class="st1" d="M15.5,31.9c0,0,4.4,7.3,11.2,3.5c-3.9,0.6-4.4-4.3-3.5-7.2L15.5,31.9z"/>
					</g>
				</g>
			</g>
			<g id="XMLID_4_">
				<path id="XMLID_5_" class="st1" d="M16.2,10.6c1.4,0,2.6,0.5,3.5,1.4s1.3,2,1.3,3.2c0,0.6-0.1,1.1-0.3,1.6s-0.5,0.9-0.8,1.2
					c-0.3,0.3-0.6,0.5-0.9,0.7s-0.6,0.3-0.8,0.4l-0.3,0.1c0,0.2,0,2.9,0,3s-0.1,0.3-0.2,0.4s-0.3,0.2-0.5,0.3C17,23,16.7,23,16.3,23
					s-0.7,0-0.9-0.1s-0.4-0.2-0.5-0.3c-0.1-0.2-0.2-0.3-0.2-0.4s0-2.8,0-3.1c0,0,0,0,0-0.1v-0.1c0-0.6,0.2-1,0.5-1.4
					c0.3-0.3,0.7-0.6,1.1-0.7s0.7-0.3,1.1-0.5c0.3-0.3,0.5-0.6,0.5-1c0-0.5-0.1-0.8-0.4-1c-0.2-0.2-0.7-0.4-1.3-0.4
					c-0.4,0-0.7,0.1-0.9,0.2c-0.2,0.2-0.4,0.3-0.4,0.5l-0.1,0.2c-0.1,0.3-0.3,0.6-0.4,0.8c-0.2,0.2-0.4,0.3-0.7,0.3
					c-0.2,0-0.5-0.1-0.8-0.2c-0.5-0.2-0.9-0.4-1.1-0.6s-0.3-0.4-0.3-0.6c0-0.1,0.1-0.4,0.2-0.7v-0.1c0-0.1,0.1-0.2,0.1-0.3
					c0.1-0.1,0.2-0.4,0.4-0.7s0.5-0.7,0.8-0.9c0.3-0.3,0.7-0.5,1.3-0.7C14.9,10.7,15.5,10.6,16.2,10.6z M16.3,23.7
					c0.7,0,1.2,0.1,1.5,0.4c0.2,0.2,0.4,0.7,0.4,1.5c0,0.3,0,0.5,0,0.7s-0.1,0.4-0.2,0.6s-0.3,0.4-0.6,0.4c-0.3,0.1-0.6,0.1-1.1,0.1
					c-0.7,0-1.2-0.1-1.5-0.4c-0.2-0.2-0.3-0.6-0.3-1.2v-0.3c0-0.3,0-0.5,0-0.7s0.1-0.3,0.2-0.6c0.1-0.2,0.3-0.4,0.6-0.5
					C15.4,23.7,15.8,23.7,16.3,23.7z"/>
			</g>
		</g>
	</g>
	<g id="XMLID_9_">
		<g id="XMLID_94_">
			<g id="XMLID_180_">
				
					<ellipse id="XMLID_183_" transform="matrix(0.9973 -7.310658e-02 7.310658e-02 0.9973 -1.7302 3.3567)" class="st2" cx="45" cy="25.3" rx="26.8" ry="23"/>
				<path id="XMLID_182_" class="st3" d="M26.5,31.1C25.7,20.4,35.3,11,48,10.1c11.5-0.8,21.5,5.6,23.8,14.8c0-0.5,0-0.9-0.1-1.4
					C70.8,10.8,58,1.4,43.3,2.5c-14.8,1.1-26,12.2-25.1,24.9C19.1,39.3,30.4,48.3,44,48.5C34.5,46.6,27.2,39.8,26.5,31.1z"/>
				<path id="XMLID_181_" class="st2" d="M43.7,46.7c0,0,7.4,12.2,18.5,5.9c-6.5,0.9-7.2-7.1-5.8-12L43.7,46.7z"/>
			</g>
			<g id="XMLID_95_">
				<g id="XMLID_178_">
					<path id="XMLID_179_" class="st4" d="M45.9,47.8c-0.1-0.2-0.2-0.3-0.3-0.4c-0.2,0-0.3,0-0.5,0v-0.2c0.2,0,0.4,0,0.5,0h0.1l0,0
						c0.1,0.1,0.2,0.2,0.3,0.4L45.9,47.8z"/>
				</g>
				<g id="XMLID_170_">
					<path id="XMLID_171_" class="st4" d="M56,53.5v-0.2c0.4,0,0.7,0,1.1-0.1v0.2C56.8,53.5,56.4,53.5,56,53.5z M54.9,53.4
						c-0.4,0-0.7-0.1-1.1-0.2l0.1-0.2c0.3,0.1,0.7,0.2,1,0.2V53.4z M52.8,52.9c-0.3-0.1-0.7-0.3-1-0.4l0.1-0.2
						c0.3,0.2,0.7,0.3,1,0.4L52.8,52.9z M50.9,52c-0.3-0.2-0.6-0.4-0.9-0.6l0.1-0.2c0.3,0.2,0.6,0.4,0.9,0.6L50.9,52z M49.1,50.8
						c-0.3-0.2-0.6-0.5-0.8-0.7l0.1-0.2c0.3,0.2,0.6,0.5,0.8,0.7L49.1,50.8z M47.4,49.4c-0.3-0.3-0.5-0.5-0.8-0.8l0.2-0.1
						c0.2,0.3,0.5,0.5,0.8,0.8L47.4,49.4z"/>
				</g>
				<g id="XMLID_168_">
					<path id="XMLID_169_" class="st4" d="M58.2,53.2L58.1,53c0.1,0,0.1,0,0.2,0c-0.1,0-0.1,0-0.2-0.1l0.1-0.2
						c0.2,0.1,0.3,0.1,0.5,0.2l0.4,0.1l-0.4,0.1C58.5,53.1,58.4,53.2,58.2,53.2z"/>
				</g>
				<g id="XMLID_163_">
					<path id="XMLID_164_" class="st4" d="M57.1,52.3c-0.3-0.2-0.5-0.5-0.8-0.9l0.2-0.1c0.2,0.3,0.5,0.6,0.8,0.8L57.1,52.3z
						 M55.7,50.5c-0.2-0.3-0.3-0.7-0.5-1.1l0.2-0.1c0.1,0.4,0.3,0.7,0.5,1L55.7,50.5z M54.9,48.3c-0.1-0.4-0.2-0.8-0.2-1.1h0.2
						c0.1,0.4,0.1,0.7,0.2,1.1H54.9z"/>
				</g>
				<g id="XMLID_161_">
					<path id="XMLID_162_" class="st4" d="M54.6,46c0-0.2,0-0.4,0-0.5v-0.1h0.1c0.2-0.1,0.3-0.1,0.5-0.2l0.1,0.2
						c-0.1,0.1-0.3,0.1-0.4,0.2c0,0.2,0,0.3,0,0.5L54.6,46z"/>
				</g>
				<g id="XMLID_96_">
					<path id="XMLID_97_" class="st4" d="M44,47.4c-0.4,0-0.7,0-1.1,0v-0.2c0.4,0,0.7,0,1.1,0V47.4z M41.8,47.3
						c-0.4,0-0.7-0.1-1.1-0.1V47c0.4,0,0.7,0.1,1.1,0.1V47.3z M39.7,47c-0.4-0.1-0.7-0.1-1.1-0.2v-0.2c0.4,0.1,0.7,0.1,1.1,0.2V47z
						 M37.6,46.6c-0.4-0.1-0.7-0.2-1.1-0.3l0.1-0.2c0.3,0.1,0.7,0.2,1,0.3V46.6z M35.5,46c-0.3-0.1-0.7-0.2-1-0.4l0.1-0.2
						c0.3,0.1,0.7,0.2,1,0.4L35.5,46z M33.4,45.3c-0.3-0.1-0.7-0.3-1-0.4l0.1-0.2c0.3,0.2,0.7,0.3,1,0.4L33.4,45.3z M56.2,45
						l-0.1-0.2c0.3-0.1,0.7-0.3,1-0.5l0.1,0.2C56.9,44.7,56.6,44.8,56.2,45z M31.5,44.3c-0.3-0.2-0.6-0.3-1-0.5l0.1-0.2
						c0.3,0.2,0.6,0.4,0.9,0.5V44.3z M58.2,44l-0.1-0.2c0.3-0.2,0.6-0.4,0.9-0.5l0.1,0.2C58.8,43.6,58.5,43.8,58.2,44z M29.6,43.2
						c-0.3-0.2-0.6-0.4-0.9-0.6l0.1-0.2c0.3,0.2,0.6,0.4,0.9,0.6L29.6,43.2z M60,42.9l-0.1-0.2c0.3-0.2,0.6-0.4,0.9-0.6l0.1,0.2
						C60.7,42.5,60.3,42.7,60,42.9z M27.8,42c-0.3-0.2-0.6-0.5-0.8-0.7l0.1-0.2c0.3,0.2,0.6,0.5,0.8,0.7L27.8,42z M61.8,41.6
						l-0.1-0.2c0.3-0.2,0.6-0.4,0.8-0.7l0.1,0.2C62.4,41.2,62.1,41.4,61.8,41.6z M26.2,40.6c-0.3-0.2-0.5-0.5-0.8-0.8l0.2-0.2
						c0.2,0.3,0.5,0.5,0.8,0.8L26.2,40.6z M63.5,40.2L63.4,40c0.3-0.2,0.5-0.5,0.8-0.8l0.2,0.2C64,39.7,63.7,40,63.5,40.2z M24.6,39
						c-0.2-0.3-0.5-0.6-0.7-0.8l0.2-0.1c0.2,0.3,0.5,0.6,0.7,0.8L24.6,39z M65,38.7l-0.2-0.1c0.2-0.3,0.5-0.5,0.7-0.8l0.2,0.1
						C65.5,38.1,65.2,38.4,65,38.7z M23.3,37.3c-0.2-0.3-0.4-0.6-0.6-0.9l0.2-0.1c0.2,0.3,0.4,0.6,0.6,0.9L23.3,37.3z M66.4,37
						l-0.2-0.1c0.2-0.3,0.4-0.6,0.6-0.9l0.2,0.1C66.8,36.4,66.6,36.7,66.4,37z M22.1,35.5c-0.2-0.3-0.3-0.6-0.5-1l0.2-0.1
						c0.2,0.3,0.3,0.6,0.5,0.9L22.1,35.5z M67.6,35.2l-0.2-0.1c0.2-0.3,0.4-0.6,0.5-0.9l0.2,0.1C67.9,34.5,67.7,34.8,67.6,35.2z
						 M21.2,33.6c-0.1-0.3-0.3-0.7-0.4-1l0.2-0.1c0.1,0.3,0.3,0.7,0.4,1L21.2,33.6z M68.6,33.2l-0.2-0.1c0.1-0.3,0.3-0.7,0.4-1
						l0.2,0.1C68.9,32.6,68.7,32.9,68.6,33.2z M20.4,31.5c-0.1-0.3-0.2-0.7-0.3-1.1h0.2c0.1,0.3,0.2,0.7,0.3,1L20.4,31.5z
						 M69.4,31.2l-0.2-0.1c0.1-0.3,0.2-0.7,0.3-1l0.2,0.1C69.6,30.5,69.5,30.9,69.4,31.2z M19.9,29.4c-0.1-0.4-0.1-0.7-0.2-1.1h0.2
						c0,0.4,0.1,0.7,0.2,1.1H19.9z M69.9,29.1h-0.2c0.1-0.3,0.1-0.7,0.2-1.1h0.2C70.1,28.4,70,28.8,69.9,29.1z M19.7,27.2
						c0-0.4,0-0.7,0-1.1h0.2c0,0.4,0,0.7,0,1.1H19.7z M70.3,27h-0.2c0-0.4,0.1-0.7,0.1-1.1h0.2C70.3,26.2,70.3,26.6,70.3,27z
						 M19.9,25.1h-0.2c0-0.4,0.1-0.7,0.1-1.1H20C19.9,24.4,19.9,24.7,19.9,25.1z M70.1,24.8c0-0.3,0-0.7,0-1v-0.1h0.2v0.1
						c0,0.3,0,0.7,0,1H70.1z M20.1,22.9h-0.2c0.1-0.4,0.1-0.7,0.2-1.1h0.2C20.2,22.2,20.2,22.6,20.1,22.9z M70,22.6
						c0-0.4-0.1-0.7-0.2-1.1H70c0.1,0.4,0.1,0.7,0.2,1.1H70z M20.6,20.8l-0.2-0.1c0.1-0.3,0.2-0.7,0.3-1l0.2,0.1
						C20.8,20.2,20.7,20.5,20.6,20.8z M69.6,20.5c-0.1-0.3-0.2-0.7-0.3-1l0.2-0.1c0.1,0.3,0.2,0.7,0.3,1L69.6,20.5z M21.3,18.8
						l-0.2-0.1c0.1-0.3,0.3-0.7,0.4-1l0.2,0.1C21.6,18.2,21.4,18.5,21.3,18.8z M68.9,18.5c-0.1-0.3-0.3-0.7-0.4-1l0.2-0.1
						c0.1,0.3,0.3,0.7,0.4,1L68.9,18.5z M22.2,16.9L22,16.8c0.2-0.3,0.4-0.6,0.5-0.9l0.2,0.1C22.6,16.2,22.4,16.6,22.2,16.9z
						 M68,16.5c-0.2-0.3-0.3-0.6-0.5-0.9l0.2-0.1c0.2,0.3,0.4,0.6,0.5,1H68z M23.4,15l-0.2-0.1c0.2-0.3,0.4-0.6,0.6-0.9l0.2,0.1
						C23.8,14.4,23.6,14.7,23.4,15z M67,14.7c-0.2-0.3-0.4-0.6-0.6-0.9l0.2-0.1c0.2,0.3,0.4,0.6,0.6,0.9L67,14.7z M24.7,13.3
						l-0.2-0.1c0.2-0.3,0.5-0.6,0.7-0.8l0.2,0.1C25.1,12.8,24.9,13,24.7,13.3z M65.7,12.9c-0.2-0.3-0.5-0.5-0.7-0.8l0.2-0.1
						c0.2,0.3,0.5,0.5,0.7,0.8L65.7,12.9z M26.1,11.7l-0.2-0.2c0.3-0.3,0.5-0.5,0.8-0.7l0.1,0.2C26.6,11.2,26.4,11.5,26.1,11.7z
						 M64.2,11.3c-0.3-0.3-0.5-0.5-0.8-0.7l0.1-0.2c0.3,0.2,0.5,0.5,0.8,0.7L64.2,11.3z M27.7,10.3l-0.1-0.2
						c0.3-0.2,0.6-0.5,0.8-0.7l0.1,0.2C28.3,9.8,28,10.1,27.7,10.3z M62.6,9.9c-0.3-0.2-0.6-0.5-0.8-0.7L61.9,9
						c0.3,0.2,0.6,0.4,0.9,0.7L62.6,9.9z M29.4,9l-0.1-0.2c0.3-0.2,0.6-0.4,0.9-0.6l0.1,0.2C30,8.6,29.7,8.8,29.4,9z M60.9,8.6
						C60.6,8.4,60.3,8.2,60,8l0.1-0.2C60.4,8,60.7,8.2,61,8.4L60.9,8.6z M31.2,7.8l-0.1-0.2c0.3-0.2,0.6-0.4,1-0.5l0.1,0.2
						C31.9,7.5,31.5,7.6,31.2,7.8z M59.1,7.5c-0.3-0.2-0.6-0.3-1-0.5l0.1-0.2c0.3,0.2,0.6,0.3,1,0.5L59.1,7.5z M33.1,6.8L33,6.6
						c0.3-0.2,0.7-0.3,1-0.4l0.1,0.2C33.8,6.5,33.5,6.7,33.1,6.8z M57.2,6.5c-0.3-0.1-0.7-0.3-1-0.4l0.1-0.2c0.3,0.1,0.7,0.3,1,0.4
						L57.2,6.5z M35.1,6L35,5.8c0.3-0.1,0.7-0.3,1-0.4l0.1,0.2C35.8,5.7,35.5,5.8,35.1,6z M55.2,5.7c-0.3-0.1-0.7-0.2-1-0.3l0.1-0.2
						c0.3,0.1,0.7,0.2,1,0.3L55.2,5.7z M37.2,5.3l-0.1-0.2c0.3-0.1,0.7-0.2,1-0.3L38.2,5C37.8,5.1,37.5,5.2,37.2,5.3z M53.1,5
						c-0.3-0.1-0.7-0.2-1-0.3V4.5c0.4,0.1,0.7,0.2,1.1,0.3L53.1,5z M39.2,4.7V4.5c0.4-0.1,0.7-0.1,1.1-0.2v0.2
						C39.9,4.6,39.6,4.6,39.2,4.7z M51,4.5c-0.4-0.1-0.7-0.1-1.1-0.2V4.1c0.4,0.1,0.7,0.1,1.1,0.2V4.5z M41.4,4.3V4.1
						C41.8,4,42.1,4,42.5,4v0.2C42.1,4.2,41.7,4.3,41.4,4.3z M48.9,4.2c-0.4,0-0.7-0.1-1.1-0.1V3.9c0.4,0,0.7,0.1,1.1,0.1V4.2z
						 M43.5,4.1V3.9c0.4,0,0.7,0,1.1-0.1V4C44.2,4.1,43.9,4.1,43.5,4.1z M46.7,4.1c-0.4,0-0.7,0-1.1,0V3.9c0.4,0,0.7,0,1.1,0V4.1z"
						/>
				</g>
			</g>
		</g>
		<g id="XMLID_90_">
			<path id="XMLID_91_" class="st5" d="M44.9,11.4c2.4,0,4.4,0.8,6,2.4c1.5,1.6,2.3,3.4,2.3,5.5c0,1-0.2,1.9-0.5,2.8
				c-0.4,0.8-0.8,1.5-1.3,2s-1,0.9-1.5,1.2c-0.5,0.3-1,0.6-1.3,0.7L48,26.2c0,0.4,0,5-0.1,5.2c0,0.2-0.1,0.4-0.3,0.7
				c-0.2,0.2-0.5,0.4-0.9,0.5s-0.9,0.2-1.6,0.2s-1.2-0.1-1.6-0.2c-0.4-0.1-0.7-0.3-0.8-0.6c-0.2-0.3-0.3-0.5-0.3-0.7
				s-0.1-4.8-0.1-5.3v-0.1c0-0.1,0-0.1,0-0.2c0-1,0.3-1.8,0.8-2.4c0.6-0.6,1.2-1,1.9-1.1c0.7-0.2,1.3-0.5,1.9-0.9s0.8-1,0.8-1.7
				c0-0.8-0.2-1.4-0.6-1.8s-1.2-0.6-2.2-0.6c-0.6,0-1.2,0.1-1.6,0.4s-0.7,0.5-0.7,0.8l-0.1,0.4c-0.2,0.6-0.5,1.1-0.7,1.4
				c-0.3,0.3-0.7,0.5-1.2,0.5c-0.4,0-0.8-0.1-1.4-0.3c-0.9-0.3-1.5-0.7-1.8-1s-0.5-0.7-0.5-1.1c0-0.2,0.1-0.6,0.3-1.2l0.1-0.2
				c0-0.1,0.1-0.3,0.2-0.6c0.1-0.2,0.3-0.7,0.7-1.3c0.4-0.6,0.9-1.1,1.4-1.6s1.3-0.9,2.2-1.2C42.6,11.6,43.7,11.4,44.9,11.4z
				 M45,33.9c1.2,0,2.1,0.2,2.6,0.7c0.4,0.4,0.6,1.3,0.6,2.6c0,0.5,0,0.9-0.1,1.2c0,0.3-0.2,0.6-0.3,1c-0.2,0.4-0.5,0.6-1,0.8
				s-1.1,0.2-1.9,0.2c-1.2,0-2.1-0.2-2.6-0.7c-0.4-0.4-0.6-1.1-0.6-2v-0.6c0-0.5,0-0.9,0.1-1.2c0-0.3,0.1-0.6,0.3-1s0.5-0.6,1-0.8
				C43.6,34,44.2,33.9,45,33.9z"/>
		</g>
		<g id="XMLID_14_">
			<path id="XMLID_85_" class="st6" d="M18.2,26.7c0,0.2,0,0.4,0,0.6c0.1,1.6,0.4,3.2,0.9,4.7c1.9,1.8,5.2,3.9,9.4,1.5
				c-2.6,0.4-3.7-1.6-3.8-3.9c6-2.4,10-7.8,9.6-13.8c-0.2-3.1-1.6-5.8-3.7-7.9C23.4,12,18.5,19,18.2,26.7z"/>
			<g id="XMLID_76_">
				<g>
					
						<ellipse id="XMLID_190_" transform="matrix(0.9973 -7.309470e-02 7.309470e-02 0.9973 -0.9737 1.2205)" class="st7" cx="16.2" cy="13.9" rx="16.2" ry="13.9"/>
					<path id="XMLID_189_" class="st8" d="M5,17.4C4.5,10.2,10.4,3.8,18.2,3.2c6.2-0.5,11.7,2.8,14,7.8C30.7,4.3,23.5-0.5,15.3,0.1
						C6.4,0.8-0.4,7.5,0.2,15.1c0.4,5.8,5,10.5,11.1,12.1C7.7,25.2,5.3,21.6,5,17.4z"/>
					<path id="XMLID_188_" class="st7" d="M15.5,26.9c0,0,4.4,7.3,11.2,3.5c-3.9,0.6-4.4-4.3-3.5-7.2L15.5,26.9z"/>
				</g>
			</g>
		</g>
		<g id="XMLID_10_">
			<path id="XMLID_11_" class="st5" d="M16.2,5.6c1.4,0,2.6,0.5,3.5,1.4S21,9,21,10.2c0,0.6-0.1,1.1-0.3,1.6
				c-0.2,0.5-0.5,0.9-0.8,1.2s-0.6,0.5-0.9,0.7s-0.6,0.3-0.8,0.4l-0.3,0.1c0,0.2,0,2.9,0,3s-0.1,0.3-0.2,0.4s-0.3,0.2-0.5,0.3
				C17,18,16.7,18,16.3,18s-0.7,0-0.9-0.1s-0.4-0.2-0.5-0.3c-0.1-0.2-0.2-0.3-0.2-0.4s0-2.8,0-3.1c0,0,0,0,0-0.1v-0.1
				c0-0.6,0.2-1,0.5-1.4c0.3-0.3,0.7-0.6,1.1-0.7s0.7-0.3,1.1-0.5c0.3-0.3,0.5-0.6,0.5-1c0-0.5-0.1-0.8-0.4-1
				c-0.2-0.2-0.7-0.4-1.3-0.4c-0.4,0-0.7,0.1-0.9,0.2c-0.2,0.2-0.4,0.3-0.4,0.5l-0.1,0.2c-0.1,0.3-0.3,0.6-0.4,0.8
				c-0.2,0.2-0.4,0.3-0.7,0.3c-0.2,0-0.5-0.1-0.8-0.2c-0.5-0.2-0.9-0.4-1.1-0.6c-0.2-0.2-0.3-0.4-0.3-0.6c0-0.1,0.1-0.4,0.2-0.7V8.7
				c0-0.1,0.1-0.2,0.1-0.3C11.9,8.3,12,8,12.2,7.7C12.4,7.4,12.7,7,13,6.8c0.3-0.3,0.7-0.5,1.3-0.7C14.9,5.7,15.5,5.6,16.2,5.6z
				 M16.3,18.7c0.7,0,1.2,0.1,1.5,0.4c0.2,0.2,0.4,0.7,0.4,1.5c0,0.3,0,0.5,0,0.7s-0.1,0.4-0.2,0.6s-0.3,0.4-0.6,0.4
				c-0.3,0.1-0.6,0.1-1.1,0.1c-0.7,0-1.2-0.1-1.5-0.4c-0.2-0.2-0.3-0.6-0.3-1.2v-0.3c0-0.3,0-0.5,0-0.7s0.1-0.3,0.2-0.6
				c0.1-0.2,0.3-0.4,0.6-0.5C15.4,18.7,15.8,18.7,16.3,18.7z"/>
		</g>
	</g>
</g>
</svg>
