<?xml version="1.0" encoding="utf-8"?>
<!-- Generator: Adobe Illustrator 21.0.0, SVG Export Plug-In . SVG Version: 6.00 Build 0)  -->
<svg version="1.1" id="Layer_1" xmlns:svgjs="http://svgjs.com/svgjs"
	 xmlns="http://www.w3.org/2000/svg" xmlns:xlink="http://www.w3.org/1999/xlink" x="0px" y="0px" viewBox="0 0 512 512"
	 style="enable-background:new 0 0 512 512;" xml:space="preserve">
<style type="text/css">
	.st0{fill:#79B7EA;}
</style>
<g>
	<path class="st0" d="M256,0C114.8,0,0,114.8,0,256s114.8,256,256,256s256-114.8,256-256S397.2,0,256,0z M350.3,320.1
		c8.3,8.3,8.3,21.8,0,30.2c-4.2,4.2-9.6,6.3-15.1,6.3c-5.5,0-10.9-2.1-15.1-6.3L256,286.2l-64.1,64.1c-4.2,4.2-9.6,6.3-15.1,6.3
		c-5.5,0-10.9-2.1-15.1-6.3c-8.3-8.3-8.3-21.8,0-30.2l64.1-64.1l-64.1-64.1c-8.3-8.3-8.3-21.8,0-30.2c8.3-8.3,21.8-8.3,30.2,0
		l64.1,64.1l64.1-64.1c8.3-8.3,21.8-8.3,30.2,0c8.3,8.3,8.3,21.8,0,30.2L286.2,256L350.3,320.1z"/>
</g>
</svg>
