<?xml version="1.0" encoding="UTF-8" ?>
<!DOCTYPE svg PUBLIC "-//W3C//DTD SVG 1.1//EN" "http://www.w3.org/Graphics/SVG/1.1/DTD/svg11.dtd">
<svg width="283pt" height="108pt" viewBox="0 0 283 108" version="1.1" xmlns="http://www.w3.org/2000/svg">
<g id="#fffffeff">
</g>
<g id="#215898ff">
<path fill="#215898" opacity="1.00" d=" M 69.58 16.92 C 70.60 15.49 72.44 15.84 73.95 15.61 C 75.83 17.31 76.53 20.87 74.11 22.40 C 71.28 22.74 68.79 19.63 69.58 16.92 Z" />
<path fill="#215898" opacity="1.00" d=" M 76.24 20.45 C 78.52 18.90 81.39 19.59 83.97 19.49 C 88.81 19.77 93.64 19.25 98.43 18.55 C 98.46 19.53 98.52 21.50 98.55 22.49 C 91.15 21.46 83.71 20.83 76.24 20.45 Z" />
<path fill="#215898" opacity="1.00" d=" M 149.39 22.72 C 151.95 21.96 154.97 22.04 157.21 23.65 C 162.12 28.06 160.03 37.72 153.56 39.41 C 150.88 40.17 147.68 40.13 145.42 38.31 C 140.89 33.69 142.25 23.82 149.39 22.72 M 148.56 24.58 C 145.21 25.91 146.21 30.17 146.27 32.98 C 146.54 37.50 153.49 39.97 156.01 35.97 C 157.21 32.58 156.67 28.73 155.43 25.41 C 153.27 24.61 150.82 23.38 148.56 24.58 Z" />
<path fill="#215898" opacity="1.00" d=" M 186.42 23.63 C 189.89 21.71 193.95 22.28 197.70 22.82 C 197.68 24.20 197.66 25.57 197.65 26.95 C 194.96 24.10 189.84 22.60 186.72 25.55 C 184.54 28.95 184.92 34.22 187.94 37.05 C 189.77 38.26 192.15 38.97 194.33 38.39 C 195.50 36.41 194.55 33.79 194.64 31.58 C 195.57 31.57 197.43 31.56 198.37 31.55 C 198.22 34.10 198.17 36.66 198.18 39.21 C 193.98 39.79 189.27 40.77 185.44 38.37 C 180.78 34.83 181.22 26.49 186.42 23.63 Z" />
<path fill="#215898" opacity="1.00" d=" M 203.09 22.79 C 204.48 22.79 205.88 22.78 207.28 22.77 C 206.22 25.12 206.26 27.67 206.58 30.18 C 209.18 29.73 211.83 29.82 214.43 30.26 C 214.59 27.75 214.55 25.23 214.28 22.72 C 215.28 22.74 217.26 22.77 218.26 22.79 C 216.56 28.21 216.91 34.26 218.12 39.76 C 216.66 39.79 215.21 39.82 213.76 39.87 C 214.67 37.08 214.65 34.13 214.58 31.23 C 211.83 31.21 209.08 31.22 206.33 31.24 C 206.27 34.10 206.36 36.99 207.22 39.75 C 205.75 39.78 204.28 39.83 202.81 39.89 C 204.16 34.30 203.82 28.43 203.09 22.79 Z" />
<path fill="#215898" opacity="1.00" d=" M 222.51 22.26 C 227.28 23.28 232.17 22.74 236.96 22.22 C 236.78 23.57 236.60 24.93 236.41 26.29 C 235.07 24.89 233.62 23.50 231.48 23.75 C 229.52 28.80 230.06 34.64 231.56 39.76 C 229.96 39.79 228.35 39.81 226.76 39.85 C 228.60 34.65 227.46 29.01 227.62 23.61 C 225.41 24.22 223.34 25.20 221.32 26.28 C 221.72 24.94 222.11 23.60 222.51 22.26 Z" />
<path fill="#215898" opacity="1.00" d=" M 257.61 22.88 C 259.02 22.80 260.44 22.74 261.86 22.67 C 265.13 27.15 268.68 31.42 272.41 35.52 C 272.69 31.19 272.58 26.80 271.27 22.62 C 272.38 22.70 273.49 22.78 274.60 22.86 C 274.10 28.56 273.64 34.26 273.49 39.98 C 272.47 39.61 271.40 39.24 270.78 38.29 C 267.64 34.49 264.31 30.85 261.27 26.97 C 261.06 31.27 260.60 35.68 261.78 39.88 C 260.61 39.87 259.44 39.86 258.27 39.85 C 259.20 34.93 259.59 29.92 259.40 24.92 C 258.95 24.41 258.06 23.39 257.61 22.88 Z" />
<path fill="#215898" opacity="1.00" d=" M 86.72 32.02 C 87.66 28.90 85.96 25.65 87.04 22.60 C 88.72 26.42 90.12 30.42 90.50 34.60 C 86.13 33.94 82.25 31.53 77.84 31.07 C 76.71 35.66 78.12 40.21 79.59 44.55 C 85.00 48.14 90.40 52.07 93.70 57.83 C 89.29 60.19 84.71 62.52 81.23 66.19 C 79.98 67.32 80.14 69.10 79.84 70.60 L 78.90 70.60 C 78.96 67.84 78.84 65.07 78.06 62.41 C 79.95 62.18 82.33 62.41 83.35 60.41 C 84.81 58.11 87.06 56.61 89.31 55.18 C 83.94 51.93 78.35 49.07 72.73 46.29 C 65.75 43.85 58.17 42.95 50.85 44.18 C 43.17 45.71 36.41 50.63 31.94 56.97 C 29.56 60.01 28.01 63.62 25.58 66.62 C 23.51 69.32 19.80 68.50 16.86 68.87 C 13.83 68.93 11.53 71.02 9.28 72.77 C 9.98 69.62 11.41 66.71 13.13 64.00 C 17.94 62.32 23.49 60.98 26.47 56.45 C 29.10 52.47 32.33 48.77 36.57 46.47 C 42.39 43.29 49.15 42.63 55.66 42.36 C 53.85 37.10 48.86 34.07 45.08 30.32 C 51.11 32.79 57.20 35.13 63.54 36.68 C 67.41 37.55 71.14 40.48 71.72 44.58 C 72.23 44.89 73.25 45.53 73.77 45.85 C 74.20 43.92 75.24 41.88 74.44 39.90 C 72.96 35.58 70.77 31.47 69.95 26.94 C 70.19 25.89 70.52 24.86 70.95 23.86 C 76.63 25.70 81.45 29.30 86.72 32.02 Z" />
<path fill="#215898" opacity="1.00" d=" M 124.40 22.89 C 125.91 22.83 127.41 22.76 128.93 22.68 C 128.18 24.98 128.01 27.38 127.99 29.77 C 130.78 29.80 133.58 29.82 136.37 29.81 C 136.40 27.43 136.19 25.04 135.38 22.79 C 136.44 22.79 138.55 22.79 139.61 22.79 C 138.87 28.41 138.69 34.21 139.82 39.79 C 138.35 39.79 136.88 39.79 135.41 39.79 C 136.31 37.01 136.40 34.08 136.30 31.19 C 133.55 31.19 130.80 31.21 128.05 31.26 C 127.99 34.15 128.08 37.06 128.79 39.88 C 127.74 39.86 125.63 39.81 124.58 39.78 C 125.60 34.25 126.15 28.32 124.40 22.89 Z" />
<path fill="#215898" opacity="1.00" d=" M 163.49 22.81 C 164.35 22.79 166.08 22.76 166.94 22.74 C 166.54 26.98 165.89 31.30 166.65 35.53 C 168.53 38.67 172.35 37.45 175.04 36.21 C 175.32 31.71 175.67 27.21 175.02 22.73 C 175.88 22.76 177.58 22.82 178.44 22.85 C 178.50 28.58 178.09 34.34 178.83 40.04 C 177.12 39.84 175.02 40.11 174.53 37.98 C 172.07 39.76 168.77 40.54 165.93 39.14 C 161.86 34.73 164.34 28.18 163.49 22.81 Z" />
<path fill="#215898" opacity="1.00" d=" M 240.23 25.26 C 243.55 22.46 248.62 21.18 252.55 23.51 C 254.87 24.90 254.96 27.87 255.81 30.17 C 254.93 33.14 254.33 36.69 251.40 38.39 C 247.88 40.69 241.88 40.73 239.72 36.58 C 237.99 33.11 237.99 28.51 240.23 25.26 M 242.82 24.62 C 241.01 28.36 240.69 33.26 243.65 36.51 C 245.57 38.65 248.67 38.04 251.11 37.32 C 252.66 33.85 253.06 29.42 251.00 26.09 C 249.11 23.39 245.57 24.13 242.82 24.62 Z" />
<path fill="#215898" opacity="1.00" d=" M 125.28 47.30 C 126.62 47.60 128.71 46.88 129.18 48.66 C 130.91 52.54 132.60 56.44 134.28 60.35 C 137.10 56.44 138.38 51.65 140.73 47.45 C 141.91 47.44 143.09 47.43 144.28 47.42 C 142.91 52.93 142.77 58.97 144.33 64.45 C 143.32 64.46 141.30 64.49 140.29 64.51 C 140.93 59.94 140.66 55.32 140.74 50.73 C 138.36 55.44 136.66 60.49 133.96 65.04 C 130.54 60.88 129.24 55.48 126.72 50.79 C 126.14 55.35 127.00 59.91 127.38 64.45 C 126.30 64.47 125.22 64.49 124.14 64.51 C 125.21 58.85 125.53 53.05 125.28 47.30 Z" />
<path fill="#215898" opacity="1.00" d=" M 149.29 47.41 C 150.73 47.41 152.16 47.41 153.59 47.41 C 152.33 52.93 152.23 58.95 153.60 64.45 C 152.20 64.45 150.80 64.46 149.41 64.47 C 150.22 58.85 150.35 53.00 149.29 47.41 Z" />
<path fill="#215898" opacity="1.00" d=" M 158.75 47.45 C 162.47 47.43 166.19 47.39 169.92 47.42 C 169.84 48.61 169.76 49.81 169.68 51.00 C 167.87 49.06 165.30 48.53 162.73 48.72 C 162.45 51.05 162.19 53.38 162.01 55.72 C 164.35 55.69 166.66 55.33 168.75 54.26 C 168.68 55.78 168.62 57.30 168.57 58.82 C 166.90 56.97 164.48 56.61 162.10 56.68 C 162.13 59.31 162.41 61.92 162.80 64.52 C 161.44 64.47 160.09 64.41 158.75 64.35 C 159.58 58.78 159.54 53.03 158.75 47.45 Z" />
<path fill="#215898" opacity="1.00" d=" M 174.17 47.39 C 177.86 47.37 181.56 47.38 185.26 47.46 C 185.24 48.59 185.23 49.72 185.23 50.85 C 183.21 49.68 181.01 48.88 178.77 48.23 C 177.11 50.41 177.34 53.16 177.37 55.73 C 179.67 55.74 181.92 55.32 183.97 54.27 C 183.94 55.75 183.92 57.23 183.90 58.71 C 183.03 58.05 182.17 57.39 181.30 56.75 C 180.36 56.74 178.48 56.74 177.55 56.74 C 177.19 59.33 177.29 61.96 178.39 64.37 C 176.97 64.41 175.56 64.46 174.15 64.51 C 174.98 58.86 174.95 53.04 174.17 47.39 Z" />
<path fill="#215898" opacity="1.00" d=" M 189.17 47.53 C 190.60 47.44 192.04 47.35 193.47 47.25 C 191.86 52.43 192.98 57.95 192.58 63.29 C 194.18 63.07 195.79 62.85 197.39 62.62 C 198.16 61.89 198.94 61.16 199.73 60.45 C 199.65 61.83 199.55 63.20 199.45 64.58 C 196.04 64.42 192.64 64.42 189.23 64.46 C 190.23 58.90 190.39 53.07 189.17 47.53 Z" />
<path fill="#215898" opacity="1.00" d=" M 203.32 47.38 C 204.83 47.41 206.34 47.43 207.85 47.45 C 206.23 52.86 206.27 59.02 207.86 64.45 C 206.36 64.44 204.87 64.45 203.38 64.46 C 204.56 58.90 204.73 52.91 203.32 47.38 Z" />
<path fill="#215898" opacity="1.00" d=" M 212.00 47.37 C 213.27 47.39 214.54 47.40 215.81 47.41 C 219.42 51.61 222.55 56.24 226.50 60.12 C 226.57 55.90 227.17 51.52 225.70 47.46 C 226.80 47.42 227.90 47.37 229.01 47.33 C 227.91 53.16 228.96 59.20 227.38 64.94 C 222.87 61.68 220.07 56.69 216.21 52.77 C 215.68 52.71 214.63 52.60 214.10 52.54 C 213.94 50.62 213.08 48.92 212.00 47.37 Z" />
<path fill="#215898" opacity="1.00" d=" M 212.52 64.52 C 213.70 60.79 213.35 56.86 213.68 53.02 L 215.23 53.24 C 215.04 56.95 215.22 60.69 216.16 64.29 C 214.94 64.37 213.73 64.45 212.52 64.52 Z" />
<path fill="#215898" opacity="1.00" d=" M 30.83 61.78 C 34.91 55.19 44.03 53.22 50.92 56.23 C 61.39 59.56 68.76 68.20 75.28 76.59 C 76.88 75.91 78.49 75.23 80.09 74.54 C 81.61 76.83 84.04 78.91 84.01 81.87 C 84.25 83.23 83.70 84.99 84.99 85.97 C 91.75 91.87 99.16 97.24 107.47 100.75 C 106.09 98.39 104.54 96.13 102.92 93.93 C 102.63 87.25 102.75 80.46 101.26 73.90 C 100.30 69.33 97.69 65.39 95.63 61.27 C 98.80 63.40 101.55 66.22 103.19 69.69 C 106.98 77.53 108.11 86.39 107.88 95.02 C 107.41 100.12 111.09 104.03 113.67 108.00 L 111.86 108.00 C 99.50 102.44 89.95 92.51 80.33 83.26 C 74.00 83.31 67.54 81.03 63.38 76.09 C 66.72 76.67 70.08 77.67 73.50 77.02 C 67.06 70.69 59.35 65.80 51.39 61.59 C 46.79 59.13 41.33 58.26 36.20 59.24 C 34.61 60.07 33.59 61.63 32.38 62.90 C 35.03 66.25 38.33 69.14 40.12 73.10 C 39.52 75.61 38.94 78.13 38.28 80.64 C 37.65 78.47 37.63 75.75 35.45 74.48 C 32.93 72.40 28.99 71.76 27.44 68.71 C 27.56 66.11 29.52 63.94 30.83 61.78 Z" />
<path fill="#215898" opacity="1.00" d=" M 124.26 72.27 C 125.85 72.55 127.46 72.58 129.04 72.19 C 128.10 74.56 127.97 77.11 128.18 79.63 C 130.87 79.78 133.56 79.80 136.25 79.60 C 136.38 77.11 136.33 74.58 135.30 72.27 C 136.45 72.33 138.75 72.44 139.90 72.50 C 138.69 78.02 138.55 84.01 140.02 89.49 C 138.85 89.47 136.51 89.45 135.33 89.44 C 136.37 86.72 136.37 83.80 136.30 80.94 C 133.56 80.93 130.83 80.92 128.10 80.93 C 128.07 83.85 127.87 86.85 128.92 89.63 C 127.35 89.44 125.76 89.35 124.18 89.39 C 126.07 83.97 126.03 77.73 124.26 72.27 Z" />
<path fill="#215898" opacity="1.00" d=" M 150.75 72.09 C 151.38 72.07 152.66 72.03 153.29 72.00 C 155.50 77.84 157.18 83.95 160.38 89.36 C 159.04 89.39 157.71 89.43 156.38 89.48 C 155.65 87.16 154.91 84.83 154.21 82.50 C 152.36 82.57 150.51 82.66 148.67 82.74 C 147.92 84.99 147.30 87.29 147.32 89.67 C 146.15 89.66 144.97 89.64 143.80 89.62 C 146.70 84.05 149.41 78.26 150.75 72.09 M 151.33 75.32 C 150.73 77.34 150.05 79.33 149.29 81.29 C 150.69 81.31 152.10 81.33 153.51 81.34 C 153.04 79.24 152.30 77.23 151.33 75.32 Z" />
<path fill="#215898" opacity="1.00" d=" M 164.43 71.94 C 168.06 72.51 172.49 71.01 175.60 73.39 C 177.96 76.62 174.79 79.51 172.74 81.80 C 174.59 84.52 176.66 87.06 178.87 89.48 C 177.47 89.55 176.08 89.60 174.68 89.65 C 172.91 86.63 171.07 83.54 168.18 81.45 C 167.98 84.20 168.06 86.96 168.47 89.68 C 167.45 89.66 165.41 89.64 164.39 89.62 C 164.93 83.75 164.91 77.82 164.43 71.94 M 168.03 73.13 C 168.06 75.74 168.08 78.36 168.15 80.98 C 170.31 80.97 173.19 80.59 173.50 77.89 C 174.11 74.64 170.79 72.98 168.03 73.13 Z" />
<path fill="#215898" opacity="1.00" d=" M 182.95 74.24 C 185.80 71.38 190.15 71.90 193.80 72.24 C 193.79 73.78 193.77 75.31 193.75 76.85 C 191.69 74.08 187.69 72.43 184.65 74.65 C 181.68 78.05 182.35 85.07 187.12 86.53 C 189.52 87.64 192.12 86.59 194.32 85.52 C 193.40 86.87 192.50 88.24 191.60 89.60 C 189.15 89.55 186.52 89.92 184.26 88.75 C 178.98 86.18 178.39 77.75 182.95 74.24 Z" />
<path fill="#215898" opacity="1.00" d=" M 203.40 72.50 C 206.23 71.52 209.77 71.86 211.93 74.08 C 216.44 80.02 211.96 90.67 203.90 89.65 C 194.55 89.59 194.23 73.49 203.40 72.50 M 200.92 74.76 C 198.46 79.56 199.63 87.24 205.97 87.94 C 207.06 87.65 208.16 87.36 209.26 87.10 C 211.05 83.38 211.63 78.52 208.67 75.23 C 206.55 73.10 203.44 74.02 200.92 74.76 Z" />
<path fill="#215898" opacity="1.00" d=" M 216.83 72.40 C 218.12 72.35 219.40 72.29 220.70 72.22 C 220.83 76.82 219.63 81.45 220.72 86.01 C 221.87 86.56 223.02 87.11 224.17 87.67 C 225.97 86.96 227.72 86.14 229.40 85.18 C 229.07 80.84 230.22 76.20 228.13 72.18 C 229.58 72.35 231.05 72.42 232.51 72.62 C 232.12 78.26 231.21 84.17 232.95 89.65 C 231.75 89.62 230.55 89.59 229.35 89.56 C 229.34 88.90 229.32 87.57 229.32 86.90 C 227.36 88.02 225.53 89.92 223.09 89.65 C 220.46 89.86 218.22 87.76 217.78 85.26 C 216.13 81.04 219.15 76.48 216.83 72.40 Z" />
<path fill="#215898" opacity="1.00" d=" M 237.33 72.02 C 240.53 72.23 243.82 71.67 246.97 72.37 C 248.83 72.96 249.15 75.07 249.87 76.62 C 248.77 78.36 247.46 79.96 245.79 81.19 C 247.08 84.30 249.48 86.71 251.33 89.47 C 250.56 89.54 249.01 89.69 248.23 89.76 C 245.64 87.17 244.42 83.21 240.83 81.72 C 240.68 84.40 240.84 87.09 241.65 89.67 C 240.13 89.64 238.61 89.63 237.10 89.61 C 238.62 83.85 238.27 77.84 237.33 72.02 M 240.91 72.94 C 240.83 75.62 240.84 78.31 240.90 81.00 C 242.92 81.04 244.77 80.32 246.39 79.13 C 246.31 77.75 246.19 76.37 246.02 75.00 C 244.79 73.48 242.65 73.43 240.91 72.94 Z" />
<path fill="#215898" opacity="1.00" d=" M 252.79 72.49 C 254.24 72.13 255.72 72.08 257.19 72.42 C 260.71 73.15 264.21 71.76 267.76 72.06 C 267.60 73.34 267.44 74.61 267.27 75.89 C 266.50 75.20 265.74 74.50 264.99 73.81 C 264.19 73.81 262.58 73.82 261.78 73.82 C 261.73 79.04 260.86 84.45 262.48 89.51 C 260.86 89.25 259.24 89.27 257.63 89.53 C 259.37 84.42 258.99 78.91 258.34 73.64 C 256.29 73.92 254.37 74.66 252.66 75.81 C 252.71 74.70 252.75 73.60 252.79 72.49 Z" />
<path fill="#215898" opacity="1.00" d=" M 89.97 84.09 C 93.26 85.45 96.88 86.94 97.84 90.76 C 94.17 90.57 90.75 87.69 89.97 84.09 Z" />
</g>
</svg>
