<?xml version="1.0" encoding="UTF-8" ?>
<!DOCTYPE svg PUBLIC "-//W3C//DTD SVG 1.1//EN" "http://www.w3.org/Graphics/SVG/1.1/DTD/svg11.dtd">
<svg width="223pt" height="226pt" viewBox="0 0 223 226" version="1.1" xmlns="http://www.w3.org/2000/svg">
<g id="#da251cff">
<path fill="#da251c" opacity="1.00" d=" M 0.00 0.00 L 223.00 0.00 L 223.00 226.00 L 0.00 226.00 L 0.00 0.00 M 6.45 5.64 C 6.32 29.58 6.30 53.52 6.45 77.45 C 11.37 77.21 16.29 77.35 21.20 77.41 C 12.69 78.68 5.56 86.26 5.42 94.97 C 5.33 107.34 5.35 119.71 5.42 132.08 C 5.53 141.02 13.22 148.98 22.09 149.64 C 25.71 149.80 29.35 149.85 32.95 149.52 C 37.64 148.81 40.81 144.99 44.05 141.90 C 44.12 144.79 44.19 147.67 44.49 150.54 C 42.32 150.44 40.15 150.37 37.98 150.29 C 37.74 159.47 37.95 168.65 37.87 177.84 C 32.79 177.75 27.70 178.01 22.62 177.64 C 22.81 168.55 22.91 159.44 22.57 150.35 C 16.63 150.45 10.70 150.36 4.76 150.44 C 4.80 174.08 4.80 197.72 4.76 221.36 C 10.69 221.31 16.62 221.26 22.54 221.41 C 23.10 211.34 22.49 201.24 22.85 191.17 C 27.76 190.33 32.82 191.08 37.79 190.84 C 38.29 201.06 37.24 211.33 38.33 221.51 C 44.14 221.11 49.96 221.46 55.77 221.24 C 55.65 184.42 55.70 147.61 55.72 110.80 C 47.56 110.76 39.40 110.84 31.24 110.78 C 31.05 113.97 31.03 117.17 31.25 120.37 C 33.62 120.38 35.99 120.37 38.36 120.34 C 38.32 124.23 38.59 128.13 38.28 132.02 C 37.87 136.78 32.21 139.97 27.91 137.91 C 24.63 136.83 23.17 133.21 23.35 129.99 C 23.37 119.33 23.37 108.68 23.36 98.03 C 23.44 95.43 23.20 92.33 25.42 90.48 C 28.41 87.26 34.37 87.50 36.87 91.18 C 39.10 94.12 38.21 98.03 38.50 101.46 C 44.25 101.34 49.99 101.42 55.73 101.38 C 55.76 96.93 56.01 92.27 53.98 88.15 C 51.59 82.30 45.86 78.56 39.82 77.30 C 43.31 77.29 46.81 77.31 50.29 77.41 C 54.92 58.57 59.80 39.78 64.03 20.85 C 64.38 20.71 65.07 20.44 65.41 20.31 C 65.50 25.96 64.36 31.52 64.14 37.16 C 62.62 50.53 62.97 64.02 63.27 77.45 C 69.08 77.30 74.90 77.29 80.71 77.45 C 81.36 73.98 81.25 70.45 80.93 66.96 C 80.86 48.97 81.21 30.98 81.19 12.98 C 81.25 10.50 81.29 7.99 80.57 5.59 C 71.89 5.80 63.19 5.71 54.51 5.64 C 50.48 19.77 47.51 34.20 43.46 48.32 C 40.17 34.09 36.39 19.94 33.47 5.64 C 24.46 5.76 15.45 5.72 6.45 5.64 M 92.20 25.10 C 86.59 27.85 82.77 33.74 82.55 39.99 C 82.33 46.65 82.50 53.33 82.51 59.99 C 82.54 66.47 86.51 72.76 92.39 75.52 C 97.51 78.18 103.46 77.11 109.00 77.34 C 114.80 77.53 120.95 75.22 124.27 70.27 C 127.51 66.33 128.05 61.11 127.86 56.21 C 122.38 56.15 116.91 56.16 111.43 56.17 C 111.37 60.13 112.69 65.52 108.30 67.69 C 108.02 68.34 107.75 68.99 107.47 69.63 C 105.98 67.82 103.07 68.28 101.51 66.49 C 99.23 64.27 100.04 60.83 99.88 58.00 C 100.06 50.97 99.52 43.91 100.08 36.90 C 100.71 32.70 106.42 30.77 109.54 33.62 C 112.43 36.05 111.24 40.23 111.64 43.51 C 117.05 43.50 122.47 43.47 127.89 43.48 C 128.00 38.76 127.21 33.71 124.03 30.01 C 120.61 25.34 114.72 22.93 109.00 23.26 C 103.40 23.53 97.37 22.35 92.20 25.10 M 99.47 101.31 C 96.16 103.89 97.12 108.35 95.78 111.83 C 94.13 111.32 94.83 109.22 94.70 107.95 C 94.76 104.00 94.73 100.04 94.72 96.09 C 88.67 95.95 83.90 100.02 80.11 104.26 C 80.12 102.30 80.13 100.35 80.15 98.40 C 74.47 98.35 68.79 98.26 63.12 98.43 C 63.08 115.52 62.97 132.62 63.18 149.72 C 69.22 149.62 75.28 150.00 81.30 149.48 C 81.00 139.65 81.27 129.80 81.16 119.97 C 81.24 117.43 80.74 113.91 83.64 112.70 C 88.04 111.80 92.52 112.87 96.95 112.64 C 102.41 112.19 107.90 112.47 113.38 112.43 C 113.54 110.04 112.94 106.73 115.82 105.74 C 119.07 103.57 122.93 104.95 125.58 107.37 C 125.61 109.44 125.79 111.54 125.42 113.59 C 122.58 116.30 118.57 116.94 115.01 118.23 C 109.25 120.14 103.05 122.28 99.22 127.30 C 95.78 131.85 96.30 138.18 98.21 143.25 C 100.12 147.84 105.35 149.47 109.92 149.65 C 111.87 150.12 114.46 148.87 116.02 150.10 C 116.22 173.85 116.00 197.62 116.13 221.38 C 121.57 221.27 127.01 221.32 132.45 221.37 C 132.70 197.75 132.52 174.11 132.54 150.48 C 127.44 150.01 122.13 151.11 117.18 149.80 C 120.50 148.41 123.62 146.51 126.18 143.92 C 126.86 145.47 127.24 147.12 127.50 148.79 C 132.94 148.67 138.39 148.81 143.83 148.56 C 143.02 146.46 141.65 144.41 141.88 142.06 C 142.40 134.05 141.54 126.03 141.96 118.02 C 142.25 114.00 141.88 109.97 141.76 105.96 C 141.71 102.66 139.00 100.17 136.50 98.40 C 125.24 91.41 109.39 92.38 99.47 101.31 M 142.18 97.40 C 146.68 114.82 151.05 132.27 155.45 149.72 C 162.12 149.85 168.79 149.70 175.46 149.82 C 177.34 140.41 179.14 130.95 181.62 121.68 C 183.77 130.99 185.27 140.43 187.37 149.74 C 194.08 149.92 200.79 149.80 207.50 149.93 C 211.45 132.28 216.09 114.79 220.01 97.14 C 213.83 97.16 207.65 97.07 201.47 97.25 C 200.03 108.84 198.13 120.36 196.63 131.94 C 194.31 120.35 191.52 108.85 189.26 97.25 C 184.01 97.24 178.76 97.22 173.51 97.28 C 171.13 108.89 168.88 120.53 166.22 132.08 C 164.24 120.51 162.37 108.93 160.48 97.35 C 154.38 97.32 148.28 97.26 142.18 97.40 M 89.53 150.50 C 89.61 174.11 89.54 197.71 89.57 221.32 C 95.11 221.36 100.64 221.26 106.17 221.38 C 106.18 197.77 106.04 174.16 106.24 150.55 C 100.67 150.28 95.10 150.38 89.53 150.50 M 63.13 169.49 C 63.08 186.77 62.97 204.04 63.20 221.32 C 69.01 221.37 74.83 221.18 80.63 221.45 C 80.94 219.65 81.23 217.84 81.20 216.01 C 81.11 203.99 81.18 191.97 81.16 179.96 C 81.11 176.41 81.51 172.81 80.65 169.32 C 74.81 169.56 68.97 169.31 63.13 169.49 Z" />
<path fill="#da251c" opacity="1.00" d=" M 22.92 19.73 C 23.78 21.01 24.31 22.44 24.55 23.95 C 28.23 41.77 32.45 59.49 35.91 77.35 C 31.76 77.26 27.60 77.27 23.45 77.37 C 23.14 64.90 23.72 52.42 22.96 39.97 C 23.05 33.22 22.17 26.45 22.92 19.73 Z" />
<path fill="#da251c" opacity="1.00" d=" M 112.75 131.94 C 114.59 126.30 120.98 124.76 125.67 122.27 C 126.58 127.81 127.24 134.61 123.02 139.02 C 118.57 142.83 110.92 137.51 112.75 131.94 Z" />
</g>
<g id="#fefefeff">
<path fill="#fefefe" opacity="1.00" d=" M 6.45 5.64 C 15.45 5.72 24.46 5.76 33.47 5.64 C 36.39 19.94 40.17 34.09 43.46 48.32 C 47.51 34.20 50.48 19.77 54.51 5.64 C 63.19 5.71 71.89 5.80 80.57 5.59 C 81.29 7.99 81.25 10.50 81.19 12.98 C 81.21 30.98 80.86 48.97 80.93 66.96 C 81.25 70.45 81.36 73.98 80.71 77.45 C 74.90 77.29 69.08 77.30 63.27 77.45 C 62.97 64.02 62.62 50.53 64.14 37.16 C 64.36 31.52 65.50 25.96 65.41 20.31 C 65.07 20.44 64.38 20.71 64.03 20.85 C 59.80 39.78 54.92 58.57 50.29 77.41 C 46.81 77.31 43.31 77.29 39.82 77.30 C 45.86 78.56 51.59 82.30 53.98 88.15 C 56.01 92.27 55.76 96.93 55.73 101.38 C 49.99 101.42 44.25 101.34 38.50 101.46 C 38.21 98.03 39.10 94.12 36.87 91.18 C 34.37 87.50 28.41 87.26 25.42 90.48 C 23.20 92.33 23.44 95.43 23.36 98.03 C 23.37 108.68 23.37 119.33 23.35 129.99 C 23.17 133.21 24.63 136.83 27.91 137.91 C 32.21 139.97 37.87 136.78 38.28 132.02 C 38.59 128.13 38.32 124.23 38.36 120.34 C 35.99 120.37 33.62 120.38 31.25 120.37 C 31.03 117.17 31.05 113.97 31.24 110.78 C 39.40 110.84 47.56 110.76 55.72 110.80 C 55.70 147.61 55.65 184.42 55.77 221.24 C 49.96 221.46 44.14 221.11 38.33 221.51 C 37.24 211.33 38.29 201.06 37.79 190.84 C 32.82 191.08 27.76 190.33 22.85 191.17 C 22.49 201.24 23.10 211.34 22.54 221.41 C 16.62 221.26 10.69 221.31 4.76 221.36 C 4.80 197.72 4.80 174.08 4.76 150.44 C 10.70 150.36 16.63 150.45 22.57 150.35 C 22.91 159.44 22.81 168.55 22.62 177.64 C 27.70 178.01 32.79 177.75 37.87 177.84 C 37.95 168.65 37.74 159.47 37.98 150.29 C 40.15 150.37 42.32 150.44 44.49 150.54 C 44.19 147.67 44.12 144.79 44.05 141.90 C 40.81 144.99 37.64 148.81 32.95 149.52 C 29.35 149.85 25.71 149.80 22.09 149.64 C 13.22 148.98 5.53 141.02 5.42 132.08 C 5.35 119.71 5.33 107.34 5.42 94.97 C 5.56 86.26 12.69 78.68 21.20 77.41 C 16.29 77.35 11.37 77.21 6.45 77.45 C 6.30 53.52 6.32 29.58 6.45 5.64 M 22.92 19.73 C 22.17 26.45 23.05 33.22 22.96 39.97 C 23.72 52.42 23.14 64.90 23.45 77.37 C 27.60 77.27 31.76 77.26 35.91 77.35 C 32.45 59.49 28.23 41.77 24.55 23.95 C 24.31 22.44 23.78 21.01 22.92 19.73 Z" />
<path fill="#fefefe" opacity="1.00" d=" M 92.20 25.10 C 97.37 22.35 103.40 23.53 109.00 23.26 C 114.72 22.93 120.61 25.34 124.03 30.01 C 127.21 33.71 128.00 38.76 127.89 43.48 C 122.47 43.47 117.05 43.50 111.64 43.51 C 111.24 40.23 112.43 36.05 109.54 33.62 C 106.42 30.77 100.71 32.70 100.08 36.90 C 99.52 43.91 100.06 50.97 99.88 58.00 C 100.04 60.83 99.23 64.27 101.51 66.49 C 103.07 68.28 105.98 67.82 107.47 69.63 C 107.75 68.99 108.02 68.34 108.30 67.69 C 112.69 65.52 111.37 60.13 111.43 56.17 C 116.91 56.16 122.38 56.15 127.86 56.21 C 128.05 61.11 127.51 66.33 124.27 70.27 C 120.95 75.22 114.80 77.53 109.00 77.34 C 103.46 77.11 97.51 78.18 92.39 75.52 C 86.51 72.76 82.54 66.47 82.51 59.99 C 82.50 53.33 82.33 46.65 82.55 39.99 C 82.77 33.74 86.59 27.85 92.20 25.10 Z" />
<path fill="#fefefe" opacity="1.00" d=" M 99.47 101.31 C 109.39 92.38 125.24 91.41 136.50 98.40 C 139.00 100.17 141.71 102.66 141.76 105.96 C 141.88 109.97 142.25 114.00 141.96 118.02 C 141.54 126.03 142.40 134.05 141.88 142.06 C 141.65 144.41 143.02 146.46 143.83 148.56 C 138.39 148.81 132.94 148.67 127.50 148.79 C 127.24 147.12 126.86 145.47 126.18 143.92 C 123.62 146.51 120.50 148.41 117.18 149.80 C 122.13 151.11 127.44 150.01 132.54 150.48 C 132.52 174.11 132.70 197.75 132.45 221.37 C 127.01 221.32 121.57 221.27 116.13 221.38 C 116.00 197.62 116.22 173.85 116.02 150.10 C 114.46 148.87 111.87 150.12 109.92 149.65 C 105.35 149.47 100.12 147.84 98.21 143.25 C 96.30 138.18 95.78 131.85 99.22 127.30 C 103.05 122.28 109.25 120.14 115.01 118.23 C 118.57 116.94 122.58 116.30 125.42 113.59 C 125.79 111.54 125.61 109.44 125.58 107.37 C 122.93 104.95 119.07 103.57 115.82 105.74 C 112.94 106.73 113.54 110.04 113.38 112.43 C 107.90 112.47 102.41 112.19 96.95 112.64 C 92.52 112.87 88.04 111.80 83.64 112.70 C 80.74 113.91 81.24 117.43 81.16 119.97 C 81.27 129.80 81.00 139.65 81.30 149.48 C 75.28 150.00 69.22 149.62 63.18 149.72 C 62.97 132.62 63.08 115.52 63.12 98.43 C 68.79 98.26 74.47 98.35 80.15 98.40 C 80.13 100.35 80.12 102.30 80.11 104.26 C 83.90 100.02 88.67 95.95 94.72 96.09 C 94.73 100.04 94.76 104.00 94.70 107.95 C 94.83 109.22 94.13 111.32 95.78 111.83 C 97.12 108.35 96.16 103.89 99.47 101.31 M 112.75 131.94 C 110.92 137.51 118.57 142.83 123.02 139.02 C 127.24 134.61 126.58 127.81 125.67 122.27 C 120.98 124.76 114.59 126.30 112.75 131.94 Z" />
<path fill="#fefefe" opacity="1.00" d=" M 142.18 97.40 C 148.28 97.26 154.38 97.32 160.48 97.35 C 162.37 108.93 164.24 120.51 166.22 132.08 C 168.88 120.53 171.13 108.89 173.51 97.28 C 178.76 97.22 184.01 97.24 189.26 97.25 C 191.52 108.85 194.31 120.35 196.63 131.94 C 198.13 120.36 200.03 108.84 201.47 97.25 C 207.65 97.07 213.83 97.16 220.01 97.14 C 216.09 114.79 211.45 132.28 207.50 149.93 C 200.79 149.80 194.08 149.92 187.37 149.74 C 185.27 140.43 183.77 130.99 181.62 121.68 C 179.14 130.95 177.34 140.41 175.46 149.82 C 168.79 149.70 162.12 149.85 155.45 149.72 C 151.05 132.27 146.68 114.82 142.18 97.40 Z" />
<path fill="#fefefe" opacity="1.00" d=" M 89.53 150.50 C 95.10 150.38 100.67 150.28 106.24 150.55 C 106.04 174.16 106.18 197.77 106.17 221.38 C 100.64 221.26 95.11 221.36 89.57 221.32 C 89.54 197.71 89.61 174.11 89.53 150.50 Z" />
<path fill="#fefefe" opacity="1.00" d=" M 63.13 169.49 C 68.97 169.31 74.81 169.56 80.65 169.32 C 81.51 172.81 81.11 176.41 81.16 179.96 C 81.18 191.97 81.11 203.99 81.20 216.01 C 81.23 217.84 80.94 219.65 80.63 221.45 C 74.83 221.18 69.01 221.37 63.20 221.32 C 62.97 204.04 63.08 186.77 63.13 169.49 Z" />
</g>
</svg>
