<?xml version="1.0" encoding="UTF-8" ?>
<!DOCTYPE svg PUBLIC "-//W3C//DTD SVG 1.1//EN" "http://www.w3.org/Graphics/SVG/1.1/DTD/svg11.dtd">
<svg width="292pt" height="173pt" viewBox="0 0 292 173" version="1.1" xmlns="http://www.w3.org/2000/svg">
<g id="#21368bff">
<path fill="#21368b" opacity="1.00" d=" M 0.00 0.00 L 292.00 0.00 L 292.00 94.80 C 285.12 91.73 277.78 89.82 270.59 87.64 C 193.01 66.06 109.81 65.25 31.71 84.75 C 21.01 87.49 10.36 90.54 0.00 94.41 L 0.00 0.00 M 27.55 17.04 C 28.35 28.89 28.31 40.85 27.44 52.69 C 29.49 52.68 31.54 52.69 33.59 52.73 C 32.67 41.89 33.06 31.00 32.96 20.13 C 36.51 20.27 40.71 19.68 43.45 22.48 C 46.37 25.07 46.21 29.89 43.90 32.82 C 41.93 35.14 38.77 35.59 35.97 36.19 C 36.02 36.88 36.10 38.25 36.14 38.94 C 41.40 38.82 47.27 36.80 49.79 31.83 C 52.26 27.42 50.68 21.11 46.05 18.83 C 40.36 15.78 33.69 17.61 27.55 17.04 M 61.46 17.98 C 62.12 29.63 62.18 41.33 61.52 52.99 C 67.54 52.46 73.59 52.56 79.61 52.93 C 79.69 51.64 79.77 50.36 79.85 49.07 C 75.51 49.09 71.17 49.37 66.83 49.32 C 67.05 44.95 66.98 40.56 67.01 36.18 C 70.93 35.87 74.86 36.10 78.78 36.40 C 78.78 35.42 78.77 33.44 78.77 32.45 C 74.88 33.03 70.93 33.10 67.00 32.96 C 66.99 29.05 67.00 25.15 67.00 21.25 C 71.16 21.30 75.31 21.49 79.45 21.89 C 79.47 20.62 79.50 19.35 79.53 18.07 C 73.51 17.96 67.48 18.10 61.46 17.98 M 100.19 18.01 C 96.43 29.75 92.17 41.34 87.61 52.79 C 89.27 52.76 90.94 52.73 92.60 52.72 C 93.50 49.41 94.49 46.13 95.34 42.81 C 99.85 42.37 104.38 42.55 108.90 42.68 C 110.14 46.00 111.24 49.37 112.27 52.76 C 114.27 52.74 116.28 52.74 118.29 52.76 C 113.84 41.31 109.20 29.90 105.59 18.15 C 103.79 18.12 101.99 18.06 100.19 18.01 M 128.13 17.96 C 128.78 29.55 128.78 41.18 128.12 52.77 C 130.07 52.74 132.03 52.72 133.99 52.72 C 133.83 42.14 133.07 31.54 133.62 20.96 C 136.51 21.11 139.74 20.93 142.15 22.84 C 144.90 24.77 144.96 28.81 143.55 31.56 C 142.16 34.29 138.83 34.68 136.18 35.33 C 136.74 36.83 137.25 38.40 138.29 39.66 C 141.52 43.91 144.46 48.38 147.45 52.80 C 149.66 52.73 151.87 52.73 154.08 52.75 C 149.94 47.34 145.86 41.89 141.66 36.52 C 148.56 35.75 152.40 26.53 147.71 21.31 C 142.56 16.10 134.61 18.53 128.13 17.96 M 165.82 19.79 C 162.30 22.25 161.44 27.60 164.05 31.01 C 167.46 35.27 173.43 36.84 176.25 41.66 C 178.09 44.59 175.90 49.07 172.38 49.22 C 168.39 49.77 164.84 47.28 161.84 44.98 C 161.87 46.74 161.87 48.49 161.83 50.25 C 166.54 52.79 172.57 54.44 177.55 51.65 C 183.18 48.75 183.79 39.86 179.04 35.89 C 175.81 33.04 171.61 31.46 168.66 28.28 C 166.69 26.27 167.76 22.33 170.46 21.56 C 173.67 20.11 176.91 22.31 179.21 24.39 C 179.88 23.14 180.56 21.89 181.25 20.65 C 176.89 17.41 170.36 16.39 165.82 19.79 M 202.47 18.61 C 199.31 19.72 196.55 21.82 194.50 24.45 C 188.35 32.18 190.34 44.93 198.51 50.46 C 204.08 54.20 212.04 54.28 217.51 50.29 C 224.29 45.51 227.02 35.83 223.77 28.20 C 220.55 20.10 210.69 15.58 202.47 18.61 M 235.26 18.01 C 236.11 29.57 236.00 41.22 235.27 52.79 C 236.80 52.80 238.34 52.81 239.88 52.82 C 239.48 44.10 239.46 35.38 239.79 26.66 C 246.39 35.24 252.76 44.01 259.08 52.80 C 260.58 52.76 262.08 52.74 263.59 52.73 C 263.14 49.85 262.92 46.93 262.95 44.02 C 263.03 35.38 262.68 26.72 263.61 18.12 C 262.06 18.13 260.53 18.13 258.99 18.11 C 259.13 26.60 259.23 35.09 258.98 43.58 C 252.55 35.09 246.18 26.54 239.81 18.01 C 238.29 18.01 236.78 18.01 235.26 18.01 Z" />
<path fill="#21368b" opacity="1.00" d=" M 205.34 21.47 C 211.01 19.79 216.90 23.97 218.54 29.36 C 220.63 35.44 219.45 43.07 214.53 47.46 C 210.23 51.33 202.89 50.23 199.68 45.48 C 194.14 38.14 195.64 24.45 205.34 21.47 Z" />
<path fill="#21368b" opacity="1.00" d=" M 101.55 23.85 C 104.57 28.25 105.44 33.91 107.41 38.88 C 103.82 39.09 100.22 39.09 96.64 38.90 C 98.27 33.88 100.05 28.91 101.55 23.85 Z" />
</g>
<g id="#ffffffff">
<path fill="#ffffff" opacity="1.00" d=" M 27.55 17.04 C 33.69 17.61 40.36 15.78 46.05 18.83 C 50.68 21.11 52.26 27.42 49.79 31.83 C 47.27 36.80 41.40 38.82 36.14 38.94 C 36.10 38.25 36.02 36.88 35.97 36.19 C 38.77 35.59 41.93 35.14 43.90 32.82 C 46.21 29.89 46.37 25.07 43.45 22.48 C 40.71 19.68 36.51 20.27 32.96 20.13 C 33.06 31.00 32.67 41.89 33.59 52.73 C 31.54 52.69 29.49 52.68 27.44 52.69 C 28.31 40.85 28.35 28.89 27.55 17.04 Z" />
<path fill="#ffffff" opacity="1.00" d=" M 61.46 17.98 C 67.48 18.10 73.51 17.96 79.53 18.07 C 79.50 19.35 79.47 20.62 79.45 21.89 C 75.31 21.49 71.16 21.30 67.00 21.25 C 67.00 25.15 66.99 29.05 67.00 32.96 C 70.93 33.10 74.88 33.03 78.77 32.45 C 78.77 33.44 78.78 35.42 78.78 36.40 C 74.86 36.10 70.93 35.87 67.01 36.18 C 66.98 40.56 67.05 44.95 66.83 49.32 C 71.17 49.37 75.51 49.09 79.85 49.07 C 79.77 50.36 79.69 51.64 79.61 52.93 C 73.59 52.56 67.54 52.46 61.52 52.99 C 62.18 41.33 62.12 29.63 61.46 17.98 Z" />
<path fill="#ffffff" opacity="1.00" d=" M 100.19 18.01 C 101.99 18.06 103.79 18.12 105.59 18.15 C 109.20 29.90 113.84 41.31 118.29 52.76 C 116.28 52.74 114.27 52.74 112.27 52.76 C 111.24 49.37 110.14 46.00 108.90 42.68 C 104.38 42.55 99.85 42.37 95.34 42.81 C 94.49 46.13 93.50 49.41 92.60 52.72 C 90.94 52.73 89.27 52.76 87.61 52.79 C 92.17 41.34 96.43 29.75 100.19 18.01 M 101.55 23.85 C 100.05 28.91 98.27 33.88 96.64 38.90 C 100.22 39.09 103.82 39.09 107.41 38.88 C 105.44 33.91 104.57 28.25 101.55 23.85 Z" />
<path fill="#ffffff" opacity="1.00" d=" M 128.13 17.96 C 134.61 18.53 142.56 16.10 147.71 21.31 C 152.40 26.53 148.56 35.75 141.66 36.52 C 145.86 41.89 149.94 47.34 154.08 52.75 C 151.87 52.73 149.66 52.73 147.45 52.80 C 144.46 48.38 141.52 43.91 138.29 39.66 C 137.25 38.40 136.74 36.83 136.18 35.33 C 138.83 34.68 142.16 34.29 143.55 31.56 C 144.96 28.81 144.90 24.77 142.15 22.84 C 139.74 20.93 136.51 21.11 133.62 20.96 C 133.07 31.54 133.83 42.14 133.99 52.72 C 132.03 52.72 130.07 52.74 128.12 52.77 C 128.78 41.18 128.78 29.55 128.13 17.96 Z" />
<path fill="#ffffff" opacity="1.00" d=" M 165.82 19.79 C 170.36 16.39 176.89 17.41 181.25 20.65 C 180.56 21.89 179.88 23.14 179.21 24.39 C 176.91 22.31 173.67 20.11 170.46 21.56 C 167.76 22.33 166.69 26.27 168.66 28.28 C 171.61 31.46 175.81 33.04 179.04 35.89 C 183.79 39.86 183.18 48.75 177.55 51.65 C 172.57 54.44 166.54 52.79 161.83 50.25 C 161.87 48.49 161.87 46.74 161.84 44.98 C 164.84 47.28 168.39 49.77 172.38 49.22 C 175.90 49.07 178.09 44.59 176.25 41.66 C 173.43 36.84 167.46 35.27 164.05 31.01 C 161.44 27.60 162.30 22.25 165.82 19.79 Z" />
<path fill="#ffffff" opacity="1.00" d=" M 202.47 18.61 C 210.69 15.58 220.55 20.10 223.77 28.20 C 227.02 35.83 224.29 45.51 217.51 50.29 C 212.04 54.28 204.08 54.20 198.51 50.46 C 190.34 44.93 188.35 32.18 194.50 24.45 C 196.55 21.82 199.31 19.72 202.47 18.61 M 205.34 21.47 C 195.64 24.45 194.14 38.14 199.68 45.48 C 202.89 50.23 210.23 51.33 214.53 47.46 C 219.45 43.07 220.63 35.44 218.54 29.36 C 216.90 23.97 211.01 19.79 205.34 21.47 Z" />
<path fill="#ffffff" opacity="1.00" d=" M 235.26 18.01 C 236.78 18.01 238.29 18.01 239.81 18.01 C 246.18 26.54 252.55 35.09 258.98 43.58 C 259.23 35.09 259.13 26.60 258.99 18.11 C 260.53 18.13 262.06 18.13 263.61 18.12 C 262.68 26.72 263.03 35.38 262.95 44.02 C 262.92 46.93 263.14 49.85 263.59 52.73 C 262.08 52.74 260.58 52.76 259.08 52.80 C 252.76 44.01 246.39 35.24 239.79 26.66 C 239.46 35.38 239.48 44.10 239.88 52.82 C 238.34 52.81 236.80 52.80 235.27 52.79 C 236.00 41.22 236.11 29.57 235.26 18.01 Z" />
<path fill="#ffffff" opacity="1.00" d=" M 28.16 107.42 C 33.76 107.41 39.36 107.43 44.97 107.40 C 44.97 107.93 44.99 108.99 45.00 109.53 C 42.98 109.79 39.70 109.55 39.56 112.36 C 39.31 121.92 39.54 131.49 39.45 141.06 C 39.30 142.87 39.81 145.23 42.02 145.42 C 45.67 145.89 49.74 145.07 52.39 142.36 C 55.43 139.58 56.17 135.35 57.93 131.79 L 58.86 133.03 C 59.33 137.92 58.81 142.87 58.84 147.78 C 48.59 147.76 38.33 147.78 28.08 147.77 C 28.08 147.24 28.08 146.20 28.08 145.67 C 29.76 145.24 32.00 145.65 33.02 143.91 C 33.66 137.98 33.14 131.99 33.30 126.03 C 33.13 121.09 33.70 116.09 32.98 111.19 C 31.90 109.51 29.71 109.87 28.03 109.45 C 28.06 108.95 28.12 107.93 28.16 107.42 Z" />
<path fill="#ffffff" opacity="1.00" d=" M 144.53 120.47 C 144.78 117.24 148.38 115.21 151.24 116.73 C 153.91 117.73 153.12 122.85 149.95 122.01 C 147.96 122.25 147.95 119.60 147.69 118.33 C 146.35 119.48 145.77 121.42 147.51 122.54 C 151.06 125.55 150.74 131.36 147.39 134.39 C 144.00 138.14 138.56 137.14 134.10 138.16 C 133.03 138.49 131.36 140.07 132.97 140.87 C 138.46 142.67 144.78 141.09 149.90 144.20 C 153.58 146.32 153.63 151.93 150.77 154.77 C 146.38 159.50 139.10 160.32 133.10 158.82 C 129.73 157.98 125.92 155.77 125.64 151.92 C 125.94 148.09 129.87 146.36 133.09 145.51 C 130.53 145.37 127.35 144.26 127.80 141.06 C 128.96 138.52 131.82 137.67 134.15 136.59 C 131.41 135.65 128.76 133.81 127.87 130.92 C 126.33 126.92 129.05 122.48 132.68 120.75 C 136.35 118.81 140.71 119.20 144.53 120.47 M 136.30 122.16 C 133.06 124.49 133.15 129.33 134.37 132.72 C 135.61 136.05 140.83 136.55 142.74 133.60 C 144.51 130.50 144.60 126.34 142.54 123.37 C 141.18 121.37 138.34 121.30 136.30 122.16 M 133.27 147.51 C 131.27 148.18 129.23 150.55 130.34 152.71 C 132.08 156.70 136.96 157.82 140.90 157.19 C 143.93 156.80 147.80 155.38 148.33 151.93 C 148.75 149.33 146.11 147.92 143.99 147.43 C 140.49 146.71 136.71 146.34 133.27 147.51 Z" />
<path fill="#ffffff" opacity="1.00" d=" M 102.15 125.06 C 104.27 121.17 108.78 118.41 113.26 119.67 C 116.81 120.27 119.12 123.61 119.55 127.01 C 120.20 132.98 119.51 139.01 120.00 145.00 C 121.27 145.23 122.55 145.45 123.83 145.68 C 123.87 146.19 123.94 147.22 123.98 147.74 C 120.69 147.78 117.40 147.78 114.11 147.78 C 114.03 140.82 114.20 133.87 114.05 126.92 C 114.13 124.19 111.80 121.33 108.87 121.95 C 104.80 122.77 102.81 127.30 102.57 131.06 C 102.49 135.73 102.25 140.44 102.85 145.09 C 104.21 145.27 105.58 145.45 106.94 145.62 C 106.96 146.16 107.00 147.23 107.02 147.77 C 102.26 147.78 97.50 147.74 92.74 147.82 C 92.72 147.30 92.69 146.27 92.67 145.76 C 94.27 145.42 97.22 145.45 96.89 143.02 C 96.94 137.00 96.94 130.97 96.89 124.95 C 97.41 121.52 91.81 123.56 92.53 120.09 C 95.67 120.09 98.81 120.03 101.94 119.84 C 102.01 121.58 102.06 123.32 102.15 125.06 Z" />
<path fill="#ffffff" opacity="1.00" d=" M 169.00 119.89 C 173.40 118.25 178.59 120.68 180.17 125.12 C 181.65 122.96 183.31 120.57 186.00 119.87 C 190.17 118.42 195.75 120.36 196.92 124.93 C 198.16 131.58 196.81 138.40 197.76 145.09 C 199.08 145.29 200.40 145.50 201.73 145.71 C 201.75 146.21 201.81 147.22 201.84 147.73 C 198.46 147.77 195.09 147.77 191.72 147.82 C 191.64 140.86 191.84 133.91 191.64 126.96 C 191.72 124.84 190.41 123.17 188.88 121.87 C 185.36 121.24 182.05 123.53 181.39 127.04 C 180.43 132.31 181.04 137.74 180.93 143.08 C 180.52 145.50 183.35 145.30 184.92 145.68 C 184.95 146.21 185.00 147.25 185.02 147.77 C 181.76 147.77 178.50 147.77 175.23 147.77 C 175.17 140.87 175.33 133.97 175.18 127.07 C 175.39 124.60 173.66 121.96 171.03 121.92 C 167.15 121.51 164.57 125.55 164.65 129.05 C 164.53 134.38 164.45 139.73 164.78 145.06 C 166.14 145.24 167.50 145.41 168.86 145.58 C 168.91 146.13 169.00 147.23 169.04 147.78 C 164.17 147.57 159.23 148.19 154.41 147.47 L 154.33 145.78 C 155.95 145.32 159.11 145.62 158.77 143.04 C 158.85 136.74 158.95 130.41 158.72 124.11 C 158.46 122.15 155.91 122.65 154.52 122.16 C 154.46 121.68 154.33 120.71 154.27 120.22 C 157.54 120.08 160.81 119.99 164.09 119.84 C 164.03 121.48 163.98 123.13 163.92 124.78 C 165.28 122.88 166.53 120.50 169.00 119.89 Z" />
<path fill="#ffffff" opacity="1.00" d=" M 209.11 120.91 C 213.27 118.82 218.24 119.06 222.57 120.49 C 224.91 121.30 226.54 123.55 226.69 126.01 C 227.08 131.99 226.36 138.01 227.01 143.97 C 229.78 147.55 230.00 140.62 232.43 140.36 C 232.91 144.12 230.24 148.74 225.96 148.01 C 223.24 148.31 221.72 145.37 221.82 143.02 C 219.64 147.32 214.61 149.34 210.00 148.22 C 206.99 147.79 203.72 145.40 203.92 142.07 C 203.56 139.60 205.17 137.45 207.12 136.15 C 211.25 133.31 216.16 131.93 220.94 130.66 C 220.87 127.98 222.27 124.21 219.41 122.54 C 216.60 121.00 213.11 121.73 210.17 122.51 C 212.21 123.94 213.22 127.37 210.80 128.94 C 208.61 130.76 205.13 128.66 205.25 125.97 C 205.43 123.70 207.24 121.98 209.11 120.91 M 211.16 138.33 C 209.82 140.54 209.83 144.30 212.53 145.44 C 214.67 146.66 217.31 145.27 218.88 143.73 C 221.67 140.64 221.12 136.26 221.15 132.44 C 217.48 133.66 213.46 135.00 211.16 138.33 Z" />
<path fill="#ffffff" opacity="1.00" d=" M 247.82 119.82 C 252.19 118.27 257.69 120.84 258.68 125.53 C 259.86 131.55 258.86 137.73 259.34 143.80 C 259.70 145.68 261.99 145.24 263.36 145.77 C 263.43 146.26 263.55 147.23 263.62 147.71 C 260.25 147.79 256.88 147.79 253.51 147.79 C 253.38 140.58 253.69 133.36 253.39 126.17 C 253.35 123.52 250.67 121.23 248.03 122.02 C 244.55 122.97 242.73 126.62 242.10 129.91 C 241.81 134.32 241.95 138.75 241.99 143.17 C 241.67 145.87 245.22 145.19 246.82 145.76 C 246.69 146.25 246.43 147.22 246.29 147.71 C 241.59 147.90 236.88 147.70 232.17 147.77 C 232.14 147.26 232.07 146.24 232.04 145.73 C 233.39 145.49 234.75 145.24 236.10 144.98 C 236.45 137.64 236.38 130.27 236.15 122.93 C 234.79 122.66 233.43 122.40 232.08 122.16 C 232.09 121.65 232.11 120.64 232.13 120.14 C 235.25 120.12 238.37 120.02 241.49 119.76 C 241.54 121.55 241.53 123.34 241.48 125.13 C 243.08 122.87 245.02 120.58 247.82 119.82 Z" />
<path fill="#ffffff" opacity="1.00" d=" M 70.37 120.48 C 78.64 116.74 89.42 122.81 89.98 131.98 C 91.18 139.13 86.31 146.87 79.00 148.06 C 71.87 149.95 63.81 145.24 62.08 138.04 C 60.07 131.19 63.53 123.02 70.37 120.48 M 72.40 122.32 C 68.32 124.55 68.20 129.87 67.97 133.94 C 68.17 138.19 68.38 144.12 73.11 145.88 C 75.57 146.43 78.64 146.62 80.58 144.69 C 83.39 141.95 83.54 137.74 83.66 134.07 C 83.55 130.37 83.41 126.18 80.76 123.30 C 78.53 121.31 75.05 121.24 72.40 122.32 Z" />
</g>
<g id="#ffdd00ff">
<path fill="#ffdd00" opacity="1.00" d=" M 31.71 84.75 C 109.81 65.25 193.01 66.06 270.59 87.64 C 277.78 89.82 285.12 91.73 292.00 94.80 L 292.00 95.75 C 290.97 95.35 289.92 95.01 288.86 94.73 C 242.37 84.03 194.78 77.49 147.02 77.53 C 97.51 77.29 48.13 84.03 0.00 95.39 L 0.00 94.41 C 10.36 90.54 21.01 87.49 31.71 84.75 Z" />
</g>
<g id="#0076c0ff">
<path fill="#0076c0" opacity="1.00" d=" M 0.00 95.39 C 48.13 84.03 97.51 77.29 147.02 77.53 C 194.78 77.49 242.37 84.03 288.86 94.73 C 289.92 95.01 290.97 95.35 292.00 95.75 L 292.00 173.00 L 0.00 173.00 L 0.00 95.39 M 28.16 107.42 C 28.12 107.93 28.06 108.95 28.03 109.45 C 29.71 109.87 31.90 109.51 32.98 111.19 C 33.70 116.09 33.13 121.09 33.30 126.03 C 33.14 131.99 33.66 137.98 33.02 143.91 C 32.00 145.65 29.76 145.24 28.08 145.67 C 28.08 146.20 28.08 147.24 28.08 147.77 C 38.33 147.78 48.59 147.76 58.84 147.78 C 58.81 142.87 59.33 137.92 58.86 133.03 L 57.93 131.79 C 56.17 135.35 55.43 139.58 52.39 142.36 C 49.74 145.07 45.67 145.89 42.02 145.42 C 39.81 145.23 39.30 142.87 39.45 141.06 C 39.54 131.49 39.31 121.92 39.56 112.36 C 39.70 109.55 42.98 109.79 45.00 109.53 C 44.99 108.99 44.97 107.93 44.97 107.40 C 39.36 107.43 33.76 107.41 28.16 107.42 M 144.53 120.47 C 140.71 119.20 136.35 118.81 132.68 120.75 C 129.05 122.48 126.33 126.92 127.87 130.92 C 128.76 133.81 131.41 135.65 134.15 136.59 C 131.82 137.67 128.96 138.52 127.80 141.06 C 127.35 144.26 130.53 145.37 133.09 145.51 C 129.87 146.36 125.94 148.09 125.64 151.92 C 125.92 155.77 129.73 157.98 133.10 158.82 C 139.10 160.32 146.38 159.50 150.77 154.77 C 153.63 151.93 153.58 146.32 149.90 144.20 C 144.78 141.09 138.46 142.67 132.97 140.87 C 131.36 140.07 133.03 138.49 134.10 138.16 C 138.56 137.14 144.00 138.14 147.39 134.39 C 150.74 131.36 151.06 125.55 147.51 122.54 C 145.77 121.42 146.35 119.48 147.69 118.33 C 147.95 119.60 147.96 122.25 149.95 122.01 C 153.12 122.85 153.91 117.73 151.24 116.73 C 148.38 115.21 144.78 117.24 144.53 120.47 M 102.15 125.06 C 102.06 123.32 102.01 121.58 101.94 119.84 C 98.81 120.03 95.67 120.09 92.53 120.09 C 91.81 123.56 97.41 121.52 96.89 124.95 C 96.94 130.97 96.94 137.00 96.89 143.02 C 97.22 145.45 94.27 145.42 92.67 145.76 C 92.69 146.27 92.72 147.30 92.74 147.82 C 97.50 147.74 102.26 147.78 107.02 147.77 C 107.00 147.23 106.96 146.16 106.94 145.62 C 105.58 145.45 104.21 145.27 102.85 145.09 C 102.25 140.44 102.49 135.73 102.57 131.06 C 102.81 127.30 104.80 122.77 108.87 121.95 C 111.80 121.33 114.13 124.19 114.05 126.92 C 114.20 133.87 114.03 140.82 114.11 147.78 C 117.40 147.78 120.69 147.78 123.98 147.74 C 123.94 147.22 123.87 146.19 123.83 145.68 C 122.55 145.45 121.27 145.23 120.00 145.00 C 119.51 139.01 120.20 132.98 119.55 127.01 C 119.12 123.61 116.81 120.27 113.26 119.67 C 108.78 118.41 104.27 121.17 102.15 125.06 M 169.00 119.89 C 166.53 120.50 165.28 122.88 163.92 124.78 C 163.98 123.13 164.03 121.48 164.09 119.84 C 160.81 119.99 157.54 120.08 154.27 120.22 C 154.33 120.71 154.46 121.68 154.52 122.16 C 155.91 122.65 158.46 122.15 158.72 124.11 C 158.95 130.41 158.85 136.74 158.77 143.04 C 159.11 145.62 155.95 145.32 154.33 145.78 L 154.41 147.47 C 159.23 148.19 164.17 147.57 169.04 147.78 C 169.00 147.23 168.91 146.13 168.86 145.58 C 167.50 145.41 166.14 145.24 164.78 145.06 C 164.45 139.73 164.53 134.38 164.65 129.05 C 164.57 125.55 167.15 121.51 171.03 121.92 C 173.66 121.96 175.39 124.60 175.18 127.07 C 175.33 133.97 175.17 140.87 175.23 147.77 C 178.50 147.77 181.76 147.77 185.02 147.77 C 185.00 147.25 184.95 146.21 184.92 145.68 C 183.35 145.30 180.52 145.50 180.93 143.08 C 181.04 137.74 180.43 132.31 181.39 127.04 C 182.05 123.53 185.36 121.24 188.88 121.87 C 190.41 123.17 191.72 124.84 191.64 126.96 C 191.84 133.91 191.64 140.86 191.72 147.82 C 195.09 147.77 198.46 147.77 201.84 147.73 C 201.81 147.22 201.75 146.21 201.73 145.71 C 200.40 145.50 199.08 145.29 197.76 145.09 C 196.81 138.40 198.16 131.58 196.92 124.93 C 195.75 120.36 190.17 118.42 186.00 119.87 C 183.31 120.57 181.65 122.96 180.17 125.12 C 178.59 120.68 173.40 118.25 169.00 119.89 M 209.11 120.91 C 207.24 121.98 205.43 123.70 205.25 125.97 C 205.13 128.66 208.61 130.76 210.80 128.94 C 213.22 127.37 212.21 123.94 210.17 122.51 C 213.11 121.73 216.60 121.00 219.41 122.54 C 222.27 124.21 220.87 127.98 220.94 130.66 C 216.16 131.93 211.25 133.31 207.12 136.15 C 205.17 137.45 203.56 139.60 203.92 142.07 C 203.72 145.40 206.99 147.79 210.00 148.22 C 214.61 149.34 219.64 147.32 221.82 143.02 C 221.72 145.37 223.24 148.31 225.96 148.01 C 230.24 148.74 232.91 144.12 232.43 140.36 C 230.00 140.62 229.78 147.55 227.01 143.97 C 226.36 138.01 227.08 131.99 226.69 126.01 C 226.54 123.55 224.91 121.30 222.57 120.49 C 218.24 119.06 213.27 118.82 209.11 120.91 M 247.82 119.82 C 245.02 120.58 243.08 122.87 241.48 125.13 C 241.53 123.34 241.54 121.55 241.49 119.76 C 238.37 120.02 235.25 120.12 232.13 120.14 C 232.11 120.64 232.09 121.65 232.08 122.16 C 233.43 122.40 234.79 122.66 236.15 122.93 C 236.38 130.27 236.45 137.64 236.10 144.98 C 234.75 145.24 233.39 145.49 232.04 145.73 C 232.07 146.24 232.14 147.26 232.17 147.77 C 236.88 147.70 241.59 147.90 246.29 147.71 C 246.43 147.22 246.69 146.25 246.82 145.76 C 245.22 145.19 241.67 145.87 241.99 143.17 C 241.95 138.75 241.81 134.32 242.10 129.91 C 242.73 126.62 244.55 122.97 248.03 122.02 C 250.67 121.23 253.35 123.52 253.39 126.17 C 253.69 133.36 253.38 140.58 253.51 147.79 C 256.88 147.79 260.25 147.79 263.62 147.71 C 263.55 147.23 263.43 146.26 263.36 145.77 C 261.99 145.24 259.70 145.68 259.34 143.80 C 258.86 137.73 259.86 131.55 258.68 125.53 C 257.69 120.84 252.19 118.27 247.82 119.82 M 70.37 120.48 C 63.53 123.02 60.07 131.19 62.08 138.04 C 63.81 145.24 71.87 149.95 79.00 148.06 C 86.31 146.87 91.18 139.13 89.98 131.98 C 89.42 122.81 78.64 116.74 70.37 120.48 Z" />
<path fill="#0076c0" opacity="1.00" d=" M 72.40 122.32 C 75.05 121.24 78.53 121.31 80.76 123.30 C 83.41 126.18 83.55 130.37 83.66 134.07 C 83.54 137.74 83.39 141.95 80.58 144.69 C 78.64 146.62 75.57 146.43 73.11 145.88 C 68.38 144.12 68.17 138.19 67.97 133.94 C 68.20 129.87 68.32 124.55 72.40 122.32 Z" />
<path fill="#0076c0" opacity="1.00" d=" M 136.30 122.16 C 138.34 121.30 141.18 121.37 142.54 123.37 C 144.60 126.34 144.51 130.50 142.74 133.60 C 140.83 136.55 135.61 136.05 134.37 132.72 C 133.15 129.33 133.06 124.49 136.30 122.16 Z" />
<path fill="#0076c0" opacity="1.00" d=" M 211.16 138.33 C 213.46 135.00 217.48 133.66 221.15 132.44 C 221.12 136.26 221.67 140.64 218.88 143.73 C 217.31 145.27 214.67 146.66 212.53 145.44 C 209.83 144.30 209.82 140.54 211.16 138.33 Z" />
<path fill="#0076c0" opacity="1.00" d=" M 133.27 147.51 C 136.71 146.34 140.49 146.71 143.99 147.43 C 146.11 147.92 148.75 149.33 148.33 151.93 C 147.80 155.38 143.93 156.80 140.90 157.19 C 136.96 157.82 132.08 156.70 130.34 152.71 C 129.23 150.55 131.27 148.18 133.27 147.51 Z" />
</g>
</svg>
