<?xml version="1.0" encoding="UTF-8" ?>
<!DOCTYPE svg PUBLIC "-//W3C//DTD SVG 1.1//EN" "http://www.w3.org/Graphics/SVG/1.1/DTD/svg11.dtd">
<svg width="1280pt" height="209pt" viewBox="0 0 1280 209" version="1.1" xmlns="http://www.w3.org/2000/svg">
<path fill="#cd0000" stroke="#cd0000" stroke-width="0.09375" opacity="1.00" d=" M 54.9 18.9 C 64.9 13.0 76.1 7.8 88.0 8.7 C 94.0 9.0 99.6 12.0 103.1 16.9 C 109.5 25.6 109.2 36.9 110.1 47.1 C 110.4 49.6 111.3 53.1 114.3 53.7 C 118.9 54.0 122.7 50.9 126.1 48.2 C 136.7 39.7 146.2 30.0 157.4 22.4 C 165.7 16.6 175.9 13.5 186.1 13.9 C 194.3 14.3 202.3 18.2 207.3 24.8 C 214.6 34.5 216.9 47.1 216.7 59.0 C 216.7 74.2 217.3 89.4 216.7 104.6 C 214.9 100.6 214.5 96.2 212.8 92.3 C 210.0 84.8 205.2 77.8 198.0 74.0 C 188.2 68.6 176.2 69.8 166.3 74.3 C 151.7 80.7 141.1 93.1 128.8 102.8 C 124.4 106.1 120.0 110.9 114.1 110.3 C 109.9 109.4 110.0 104.2 109.6 100.9 C 109.5 92.3 109.0 83.2 104.3 75.7 C 100.2 68.2 91.4 64.0 83.0 65.0 C 74.6 66.0 66.5 69.1 59.0 73.0 C 39.3 83.1 23.5 99.0 8.9 115.3 C 8.5 99.2 8.8 83.1 8.7 67.0 C 8.8 64.6 8.2 61.9 10.0 60.0 C 22.7 44.1 37.4 29.5 54.9 18.9 Z" />
<path fill="#000000" stroke="#000000" stroke-width="0.09375" opacity="1.00" d=" M 539.3 26.2 C 550.8 20.7 564.5 19.1 576.6 23.4 C 582.0 25.1 587.2 27.9 592.9 28.2 C 596.4 27.6 597.9 24.0 599.6 21.3 C 600.5 21.4 601.5 21.4 602.4 21.4 C 603.0 38.3 603.7 55.2 604.0 72.1 C 602.8 72.0 601.6 71.9 600.5 71.8 C 598.0 60.4 593.8 48.9 586.0 40.0 C 578.4 31.7 566.1 28.3 555.4 31.3 C 545.1 33.9 536.9 42.0 532.2 51.3 C 524.3 66.5 522.1 84.0 521.9 101.0 C 521.5 118.2 524.7 136.1 534.2 150.8 C 540.1 159.8 549.2 167.4 560.2 168.5 C 570.0 170.3 580.1 165.8 586.6 158.6 C 595.3 149.2 599.7 136.9 603.1 124.8 C 604.5 125.1 606.0 125.5 607.4 125.8 C 605.4 140.4 600.0 155.0 589.8 165.8 C 582.0 173.7 571.2 179.0 560.0 179.0 C 550.4 179.5 540.2 177.7 532.4 171.6 C 515.7 159.0 506.1 138.9 503.3 118.5 C 500.9 99.1 502.1 78.8 509.6 60.6 C 515.5 46.5 525.3 33.2 539.3 26.2 Z" />
<path fill="#000000" stroke="#000000" stroke-width="0.09375" opacity="1.00" d=" M 1092.2 21.3 C 1092.9 21.2 1094.2 21.1 1094.8 21.1 C 1107.7 59.3 1120.4 97.6 1133.2 135.8 C 1136.1 144.2 1138.5 152.8 1141.9 161.1 C 1143.8 165.7 1147.0 170.8 1152.4 171.5 C 1157.9 172.6 1162.9 168.8 1165.2 164.1 C 1168.6 157.3 1167.5 149.4 1167.9 142.0 C 1168.1 111.3 1167.9 80.7 1168.0 50.0 C 1168.0 47.1 1168.2 44.1 1167.8 41.2 C 1166.0 37.5 1163.4 34.3 1161.0 31.0 C 1158.9 28.1 1154.9 28.6 1151.8 28.0 C 1151.8 26.7 1151.8 25.4 1151.8 24.1 C 1161.5 24.2 1171.2 24.0 1180.9 24.1 C 1201.0 57.3 1221.1 90.5 1241.2 123.7 C 1243.1 127.0 1245.0 130.4 1247.5 133.3 C 1248.1 108.9 1247.7 84.4 1247.7 60.0 C 1247.4 51.4 1248.4 42.3 1244.8 34.3 C 1242.4 29.1 1236.1 28.7 1231.2 28.0 C 1231.1 26.7 1231.1 25.4 1231.0 24.0 C 1244.5 23.9 1258.0 24.0 1271.5 24.0 C 1271.4 25.3 1271.3 26.7 1271.3 28.0 C 1266.8 28.8 1261.8 29.9 1259.1 34.0 C 1254.9 40.2 1255.6 47.9 1255.5 55.0 C 1255.3 96.2 1255.6 137.4 1255.3 178.6 C 1253.4 178.5 1251.5 178.2 1250.7 176.2 C 1229.3 141.0 1208.0 105.7 1186.5 70.6 C 1183.1 65.2 1180.0 59.6 1176.2 54.5 C 1175.8 78.0 1176.1 101.5 1176.1 125.0 C 1176.1 134.7 1176.0 144.4 1176.3 154.1 C 1176.5 159.0 1177.5 164.3 1181.0 168.0 C 1183.8 170.9 1188.1 171.3 1191.8 172.2 C 1191.8 173.4 1191.8 174.5 1191.8 175.7 C 1164.5 175.8 1137.3 175.7 1110.0 175.7 C 1110.0 174.6 1110.1 173.5 1110.1 172.3 C 1113.6 171.6 1117.3 171.3 1120.4 169.4 C 1122.5 166.0 1121.9 161.8 1120.9 158.1 C 1117.9 147.5 1114.4 137.0 1111.4 126.4 C 1096.5 126.1 1081.5 126.3 1066.6 126.4 C 1063.8 135.7 1061.0 144.9 1058.2 154.2 C 1057.0 158.4 1055.4 163.2 1057.5 167.4 C 1059.7 171.4 1064.6 171.8 1068.5 172.8 C 1068.4 173.5 1068.3 175.1 1068.2 175.9 C 1056.2 176.1 1044.2 176.2 1032.2 175.9 C 1032.2 175.2 1032.3 173.9 1032.4 173.2 C 1035.7 172.2 1039.4 171.6 1041.8 168.8 C 1046.4 163.6 1047.9 156.5 1050.1 150.1 C 1064.3 107.2 1078.0 64.1 1092.2 21.3 M 1088.5 55.5 C 1082.3 76.0 1075.8 96.4 1069.7 116.9 C 1082.5 117.0 1095.3 117.0 1108.0 116.8 C 1102.2 96.2 1095.8 75.9 1089.4 55.5 C 1089.2 55.5 1088.8 55.5 1088.5 55.5 Z" />
<path fill="#000000" stroke="#000000" stroke-width="0.09375" opacity="1.00" d=" M 450.7 23.7 C 451.0 22.0 452.6 21.8 453.9 21.2 C 469.2 65.8 483.8 110.5 498.8 155.2 C 500.3 159.2 501.4 163.5 503.8 167.2 C 505.7 170.4 509.4 171.3 512.7 172.5 C 512.7 173.7 512.8 174.8 512.9 176.0 C 498.3 176.4 483.7 176.2 469.1 176.1 C 469.1 175.3 469.1 173.7 469.1 172.9 C 472.7 172.0 476.7 171.9 479.7 169.7 C 481.7 166.4 481.1 162.3 480.2 158.8 C 477.4 149.0 474.4 139.3 471.4 129.6 C 471.0 128.5 470.7 126.4 469.0 126.7 C 454.6 126.5 440.3 126.8 426.0 126.8 C 422.9 136.5 419.9 146.2 417.0 156.0 C 415.9 160.1 414.6 164.9 417.3 168.7 C 419.7 171.9 424.1 172.3 427.7 173.2 C 427.7 173.9 427.7 175.4 427.7 176.1 C 421.8 176.6 415.9 176.4 410.0 176.5 C 388.5 176.4 366.9 176.5 345.4 176.4 C 345.4 175.6 345.4 173.8 345.4 173.0 C 349.2 172.2 353.5 172.1 356.8 169.8 C 360.1 166.5 360.5 161.5 360.5 157.1 C 360.7 128.4 360.7 99.7 360.7 71.0 C 360.6 63.2 360.9 55.4 360.4 47.7 C 358.3 51.8 357.1 56.3 355.6 60.6 C 342.9 98.2 330.2 135.9 317.6 173.6 C 317.1 174.9 316.7 176.6 314.9 176.7 C 314.3 175.7 313.8 174.7 313.4 173.6 C 300.0 134.8 286.4 96.0 272.8 57.2 C 272.3 55.9 271.7 54.6 271.1 53.3 C 270.5 57.2 270.6 61.1 270.6 65.0 C 270.6 92.7 270.4 120.3 270.7 148.0 C 270.8 154.6 271.0 161.7 274.5 167.6 C 277.0 171.5 282.2 171.8 286.3 173.1 C 286.2 174.3 286.1 175.4 286.1 176.6 C 272.9 176.6 259.6 176.9 246.4 176.5 C 246.3 175.5 246.3 174.4 246.2 173.4 C 250.7 172.5 255.8 171.6 258.8 167.8 C 262.4 163.4 262.9 157.5 262.8 152.0 C 263.0 116.0 262.9 80.0 262.9 43.9 C 262.9 40.2 262.4 36.1 259.9 33.1 C 256.5 29.5 251.2 29.1 246.6 28.4 C 246.5 27.2 246.4 26.1 246.3 25.0 C 257.8 24.5 269.3 24.7 280.8 24.8 C 294.0 62.9 307.1 101.1 320.6 139.2 C 322.6 134.7 323.9 130.0 325.5 125.4 C 336.7 91.7 348.1 58.1 359.4 24.4 C 370.6 24.4 381.9 24.5 393.2 24.5 C 393.2 25.9 393.1 27.2 393.1 28.6 C 389.2 29.4 384.3 29.2 381.7 32.7 C 378.5 36.7 378.5 42.1 378.4 47.0 C 378.2 83.3 378.3 119.7 378.3 156.0 C 378.3 160.6 378.6 165.6 382.0 169.0 C 386.9 173.6 395.7 174.7 400.6 169.6 C 405.3 164.8 406.8 158.0 408.9 151.9 C 423.1 109.2 436.8 66.4 450.7 23.7 M 448.2 55.5 C 441.3 75.9 435.3 96.7 428.9 117.2 C 441.7 117.4 454.4 117.4 467.2 117.2 C 463.9 104.6 459.8 92.3 456.1 79.9 C 453.5 71.8 451.4 63.4 448.2 55.5 Z" />
<path fill="#000000" stroke="#000000" stroke-width="0.09375" opacity="1.00" d=" M 616.0 24.1 C 627.6 24.0 639.1 23.5 650.6 24.1 C 657.3 44.0 664.4 63.9 671.2 83.8 C 677.7 102.0 683.6 120.3 690.4 138.3 C 696.8 120.8 702.3 103.0 708.3 85.3 C 715.2 64.8 722.1 44.2 729.0 23.7 C 740.4 23.6 751.7 23.4 763.1 23.8 C 763.0 25.1 762.9 26.4 762.9 27.7 C 759.0 28.5 754.4 28.4 751.6 31.6 C 748.0 35.8 748.2 41.8 748.1 47.0 C 747.9 83.3 748.0 119.7 748.0 156.0 C 748.0 160.5 748.7 165.6 752.3 168.7 C 755.5 171.6 760.0 172.0 764.1 172.4 C 764.0 173.5 763.9 174.6 764.0 175.6 C 747.7 175.5 731.4 175.7 715.1 175.7 C 715.0 174.5 715.0 173.4 715.0 172.2 C 718.9 171.3 723.4 171.3 726.7 168.7 C 730.1 165.0 730.2 159.7 730.2 155.0 C 730.4 124.3 730.4 93.7 730.4 63.0 C 730.3 57.8 730.6 52.5 729.9 47.3 C 729.0 49.0 728.3 50.8 727.6 52.6 C 714.8 91.1 701.7 129.4 688.9 167.9 C 687.9 170.5 687.4 173.4 685.8 175.7 C 683.9 176.3 683.7 174.1 683.1 172.9 C 671.4 139.0 659.6 105.2 647.7 71.3 C 645.3 64.8 643.5 58.1 640.5 51.8 C 640.0 81.5 640.3 111.3 640.3 141.0 C 640.5 149.4 639.8 158.4 643.8 166.1 C 646.1 170.6 651.7 170.8 655.9 172.2 C 655.9 173.4 656.0 174.6 656.0 175.8 C 642.7 175.8 629.4 176.1 616.1 175.7 C 616.1 174.6 616.1 173.5 616.1 172.4 C 620.2 171.7 624.7 170.9 627.7 167.7 C 631.8 163.6 632.6 157.5 632.5 152.0 C 632.6 115.4 632.6 78.7 632.6 42.0 C 632.5 38.2 631.7 33.9 628.6 31.4 C 625.2 28.5 620.6 28.2 616.4 27.5 C 616.2 26.4 616.1 25.3 616.0 24.1 Z" />
<path fill="#000000" stroke="#000000" stroke-width="0.09375" opacity="1.00" d=" M 781.7 23.7 C 798.5 23.7 815.4 23.6 832.2 23.8 C 832.1 25.1 832.0 26.4 831.9 27.7 C 827.5 28.4 822.4 28.6 819.2 32.2 C 816.2 35.3 815.9 39.9 815.9 44.0 C 815.6 81.3 815.9 118.7 815.9 156.0 C 815.9 159.7 815.5 163.8 818.2 166.8 C 821.5 170.9 827.3 171.3 832.1 172.1 C 832.1 173.4 832.2 174.6 832.2 175.9 C 815.4 175.9 798.5 175.8 781.6 175.9 C 781.7 174.6 781.7 173.4 781.7 172.1 C 786.4 171.1 792.2 171.5 795.6 167.6 C 798.2 163.6 797.7 158.6 798.0 154.0 C 798.0 117.7 798.1 81.3 797.9 45.0 C 797.8 40.1 798.0 34.4 794.2 30.8 C 790.7 27.9 785.7 28.1 781.5 27.4 C 781.5 26.5 781.6 24.6 781.7 23.7 Z" />
<path fill="#000000" stroke="#000000" stroke-width="0.09375" opacity="1.00" d=" M 848.9 23.8 C 865.8 23.5 882.6 23.7 899.4 23.7 C 899.5 24.6 899.6 26.5 899.7 27.4 C 895.2 28.5 889.6 28.4 886.4 32.4 C 883.1 36.1 883.3 41.3 883.3 46.0 C 883.1 86.4 883.2 126.7 883.2 167.1 C 896.0 166.9 909.7 168.5 921.6 162.6 C 932.5 157.3 939.2 146.8 944.4 136.4 C 945.9 136.3 947.3 136.3 948.8 136.3 C 944.7 148.6 940.2 160.8 936.1 173.1 C 935.6 174.1 935.4 176.0 933.9 175.8 C 905.6 175.8 877.3 175.9 849.0 175.9 C 849.0 174.6 849.0 173.4 849.1 172.2 C 853.3 171.3 858.1 171.3 861.8 168.8 C 865.5 165.7 865.0 160.3 865.3 156.0 C 865.5 118.7 865.5 81.3 865.3 44.0 C 865.3 39.6 865.1 34.5 861.9 31.1 C 858.5 27.9 853.4 28.1 849.1 27.6 C 849.0 26.3 849.0 25.0 848.9 23.8 Z" />
<path fill="#000000" stroke="#000000" stroke-width="0.09375" opacity="1.00" d=" M 940.8 24.0 C 957.7 23.9 974.6 23.9 991.5 24.0 C 991.4 25.2 991.3 26.5 991.3 27.8 C 986.9 28.6 981.6 28.7 978.4 32.4 C 975.0 36.1 975.2 41.4 975.2 46.0 C 974.9 86.4 975.1 126.9 975.0 167.3 C 987.0 167.1 999.5 168.6 1010.9 163.9 C 1018.2 161.3 1024.1 155.9 1028.8 149.8 C 1031.9 145.8 1033.9 141.0 1036.8 136.7 C 1038.1 136.3 1039.6 136.3 1041.0 136.1 C 1036.8 149.5 1031.8 162.8 1027.1 176.0 C 998.3 176.0 969.6 176.1 940.8 176.0 C 940.9 174.7 941.0 173.5 941.2 172.3 C 945.8 171.3 951.4 171.7 954.9 167.9 C 957.4 164.1 957.0 159.3 957.2 155.0 C 957.4 118.3 957.4 81.7 957.2 45.0 C 957.1 40.5 957.3 35.5 954.2 31.8 C 950.9 28.0 945.5 28.3 940.9 27.8 C 940.9 26.5 940.9 25.2 940.8 24.0 Z" />
<path fill="#cd0000" stroke="#cd0000" stroke-width="0.09375" opacity="1.00" d=" M 64.7 87.7 C 73.0 83.9 82.5 81.3 91.6 83.4 C 99.0 85.0 104.2 91.5 106.6 98.3 C 108.8 105.4 109.2 113.0 109.8 120.4 C 110.0 123.1 110.6 126.5 113.4 127.7 C 116.8 128.3 120.0 126.6 122.7 124.7 C 134.4 115.9 144.6 105.1 156.8 96.8 C 166.6 89.9 179.3 86.2 191.2 88.9 C 199.7 90.6 206.7 96.9 210.5 104.4 C 215.0 113.2 216.6 123.2 216.4 133.0 C 216.4 148.1 216.9 163.3 216.4 178.5 C 214.7 175.2 214.4 171.4 213.1 168.0 C 210.9 161.8 207.7 155.7 202.6 151.4 C 195.7 145.5 186.0 143.4 177.2 145.1 C 167.2 146.8 158.0 151.8 150.2 158.2 C 141.1 165.7 132.5 174.0 123.1 181.1 C 120.3 183.1 116.8 185.3 113.1 184.2 C 111.2 183.8 110.5 181.7 110.0 180.0 C 108.6 173.6 109.7 167.0 108.2 160.6 C 106.5 152.3 101.7 143.7 93.4 140.6 C 84.8 137.1 75.4 140.1 67.2 143.2 C 48.6 150.7 32.8 163.7 19.1 178.1 C 15.6 181.6 12.5 185.5 8.9 189.0 C 8.2 173.3 8.7 157.7 8.5 142.0 C 8.6 139.0 7.8 135.5 10.3 133.3 C 25.3 114.9 42.9 97.8 64.7 87.7 Z" />
</svg>
