<?xml version="1.0" encoding="utf-8"?>
<!-- Generator: Adobe Illustrator 21.0.0, SVG Export Plug-In . SVG Version: 6.00 Build 0)  -->
<svg version="1.1" id="Layer_1" xmlns="http://www.w3.org/2000/svg" xmlns:xlink="http://www.w3.org/1999/xlink" x="0px" y="0px"
	 viewBox="0 0 87.9 87.9" style="enable-background:new 0 0 87.9 87.9;" xml:space="preserve">
<style type="text/css">
	.st0{fill:none;}
	.st1{opacity:0.1;fill:#FFFFFF;}
	.st2{fill:#FFFFFF;}
	.st3{fill:url(#SVGID_1_);}
	.st4{opacity:0.35;clip-path:url(#SVGID_3_);fill:url(#SVGID_4_);}
</style>
<pattern  y="87.9" width="32" height="32" patternUnits="userSpaceOnUse" id="Motivo_nuevo_5" viewBox="4.5 -36.3 32 32" style="overflow:visible;">
	<g>
		<rect x="4.5" y="-36.3" class="st0" width="32" height="32"/>
		<g>
			<rect x="4.5" y="-36.3" class="st1" width="32" height="32"/>
			<polygon class="st2" points="20.7,-24.8 22,-21.8 25.2,-21.5 22.7,-19.4 23.5,-16.2 20.7,-17.9 17.9,-16.2 18.7,-19.4 
				16.2,-21.5 19.4,-21.8 			"/>
			<polygon class="st2" points="36.5,-8.6 37.8,-5.6 41.1,-5.3 38.6,-3.2 39.4,0 36.5,-1.7 33.7,0 34.5,-3.2 32,-5.3 35.3,-5.6 			
				"/>
		</g>
		<g>
			<polygon class="st2" points="4.5,-8.6 5.8,-5.6 9.1,-5.3 6.6,-3.2 7.4,0 4.5,-1.7 1.7,0 2.5,-3.2 0,-5.3 3.3,-5.6 			"/>
		</g>
		<g>
			<polygon class="st2" points="36.5,-40.6 37.8,-37.6 41.1,-37.3 38.6,-35.2 39.4,-32 36.5,-33.7 33.7,-32 34.5,-35.2 32,-37.3 
				35.3,-37.6 			"/>
		</g>
		<g>
			<polygon class="st2" points="4.5,-40.6 5.8,-37.6 9.1,-37.3 6.6,-35.2 7.4,-32 4.5,-33.7 1.7,-32 2.5,-35.2 0,-37.3 3.3,-37.6 
							"/>
		</g>
	</g>
</pattern>
<g>
	<g>
		<linearGradient id="SVGID_1_" gradientUnits="userSpaceOnUse" x1="37.6352" y1="-44.2602" x2="53.6352" y2="179.2398">
			<stop  offset="0" style="stop-color:#FFFFFF"/>
			<stop  offset="0.1429" style="stop-color:#CBF2FF"/>
			<stop  offset="0.288" style="stop-color:#9EE7FF"/>
			<stop  offset="0.4342" style="stop-color:#78DEFF"/>
			<stop  offset="0.5791" style="stop-color:#5BD6FF"/>
			<stop  offset="0.7226" style="stop-color:#47D1FF"/>
			<stop  offset="0.8637" style="stop-color:#3ACEFF"/>
			<stop  offset="1" style="stop-color:#36CDFF"/>
		</linearGradient>
		<rect class="st3" width="87.9" height="87.9"/>
	</g>
</g>
<g>
	<defs>
		<rect id="SVGID_2_" x="0.3" width="87.9" height="87.9"/>
	</defs>
	<clipPath id="SVGID_3_">
		<use xlink:href="#SVGID_2_"  style="overflow:visible;"/>
	</clipPath>
	<pattern  id="SVGID_4_" xlink:href="#Motivo_nuevo_5" patternTransform="matrix(1 0 0 1 35.0003 27.1)">
	</pattern>
	<rect class="st4" width="125" height="250"/>
</g>
</svg>
