<?xml version="1.0" encoding="utf-8"?>
<!-- Generator: Adobe Illustrator 19.2.0, SVG Export Plug-In . SVG Version: 6.00 Build 0)  -->
<svg version="1.1" id="Layer_1" xmlns="http://www.w3.org/2000/svg" xmlns:xlink="http://www.w3.org/1999/xlink" x="0px" y="0px"
	 viewBox="0 0 49.5 13.1" style="enable-background:new 0 0 49.5 13.1;" xml:space="preserve">
<style type="text/css">
	.st0{fill:#606060;}
</style>
<g>
	<path class="st0" d="M0,12.9V0h5.7c1.1,0,2,0.1,2.6,0.3S9.4,1,9.8,1.6s0.5,1.2,0.5,1.9c0,0.9-0.3,1.7-0.9,2.3S7.9,6.9,6.7,7
		c0.5,0.2,0.8,0.4,1,0.6c0.5,0.5,1,1,1.4,1.7l2.2,3.5H9.2l-1.7-2.7C7,9.4,6.6,8.8,6.3,8.4S5.7,7.7,5.4,7.6S4.9,7.3,4.6,7.2
		c-0.2,0-0.5-0.1-0.9-0.1h-2v5.7H0z M1.7,5.7h3.7c0.8,0,1.4-0.1,1.8-0.2S8,5,8.2,4.7s0.3-0.7,0.3-1.2c0-0.6-0.2-1.1-0.7-1.5
		S6.7,1.4,5.8,1.4H1.7V5.7z"/>
	<path class="st0" d="M19.2,9.9l1.6,0.2c-0.3,1-0.7,1.7-1.4,2.2s-1.6,0.8-2.7,0.8c-1.4,0-2.4-0.4-3.2-1.3c-0.8-0.8-1.2-2-1.2-3.5
		c0-1.6,0.4-2.8,1.2-3.7s1.9-1.3,3.1-1.3c1.2,0,2.3,0.4,3.1,1.3s1.2,2,1.2,3.6c0,0.1,0,0.2,0,0.4h-7c0.1,1,0.3,1.8,0.9,2.4
		s1.2,0.8,2,0.8c0.6,0,1.1-0.2,1.5-0.5S18.9,10.5,19.2,9.9z M14,7.3h5.2c-0.1-0.8-0.3-1.4-0.6-1.8c-0.5-0.6-1.2-0.9-2-0.9
		c-0.7,0-1.3,0.2-1.8,0.7S14,6.5,14,7.3z"/>
	<path class="st0" d="M22.1,10.1l1.6-0.2c0.1,0.6,0.3,1.1,0.7,1.4s1,0.5,1.7,0.5c0.7,0,1.3-0.1,1.6-0.4s0.5-0.6,0.5-1
		c0-0.4-0.2-0.6-0.5-0.8c-0.2-0.1-0.8-0.3-1.6-0.5c-1.2-0.3-2-0.5-2.4-0.8s-0.8-0.5-1-0.9c-0.2-0.4-0.3-0.8-0.3-1.3
		c0-0.4,0.1-0.8,0.3-1.2c0.2-0.4,0.5-0.6,0.8-0.9c0.2-0.2,0.6-0.3,1-0.5s0.9-0.2,1.4-0.2c0.7,0,1.4,0.1,1.9,0.3s1,0.5,1.2,0.9
		c0.3,0.4,0.4,0.8,0.5,1.4L28,6.2c-0.1-0.5-0.3-0.9-0.6-1.1S26.6,4.6,26,4.6c-0.7,0-1.2,0.1-1.6,0.4s-0.5,0.5-0.5,0.8
		c0,0.2,0.1,0.4,0.2,0.6c0.1,0.2,0.3,0.3,0.6,0.4c0.2,0.1,0.6,0.2,1.4,0.4C27.3,7.5,28,7.8,28.5,8s0.8,0.5,1,0.8s0.4,0.8,0.4,1.4
		c0,0.5-0.2,1-0.5,1.5c-0.3,0.5-0.8,0.8-1.3,1.1c-0.6,0.3-1.2,0.4-2,0.4c-1.2,0-2.1-0.3-2.8-0.8S22.3,11.1,22.1,10.1z"/>
	<path class="st0" d="M37.9,12.9v-1.4c-0.7,1.1-1.7,1.6-3,1.6c-0.6,0-1.1-0.1-1.5-0.3s-0.8-0.5-1.1-0.8s-0.4-0.7-0.5-1.2
		c-0.1-0.3-0.1-0.8-0.1-1.5V3.6h1.6v5.2c0,0.8,0,1.4,0.1,1.7c0.1,0.4,0.3,0.7,0.6,1c0.3,0.2,0.7,0.4,1.2,0.4s0.9-0.1,1.3-0.4
		s0.7-0.6,0.9-1c0.2-0.4,0.3-1,0.3-1.8v-5h1.6v9.3H37.9z"/>
	<path class="st0" d="M41.8,12.9V0h1.6v12.9H41.8z"/>
	<path class="st0" d="M49.2,11.5l0.2,1.4C49,13,48.6,13,48.3,13c-0.6,0-1-0.1-1.3-0.3s-0.5-0.4-0.7-0.7s-0.2-0.9-0.2-1.9V4.8h-1.2
		V3.6h1.2V1.2l1.6-0.9v3.3h1.6v1.2h-1.6v5.5c0,0.5,0,0.7,0.1,0.9s0.1,0.2,0.3,0.3s0.3,0.1,0.5,0.1C48.7,11.5,49,11.5,49.2,11.5z"/>
</g>
</svg>
