<?xml version="1.0" encoding="utf-8"?>
<!-- Generator: Adobe Illustrator 21.0.0, SVG Export Plug-In . SVG Version: 6.00 Build 0)  -->
<svg version="1.1" id="Isolation_Mode" xmlns="http://www.w3.org/2000/svg" xmlns:xlink="http://www.w3.org/1999/xlink" x="0px"
	 y="0px" viewBox="0 0 66.8 80.3" style="enable-background:new 0 0 66.8 80.3;" xml:space="preserve">
<style type="text/css">
	.st0{fill:#FFFFFF;}
	.st1{display:none;}
	.st2{display:inline;opacity:0.15;}
	.st3{display:inline;}
	.st4{fill:#E2E2E2;}
	.st5{display:inline;fill:#E2E2E2;}
	.st6{opacity:0.15;}
	.st7{fill:#EF4990;}
	.st8{fill:#99714D;}
	.st9{fill:#DB7516;}
	.st10{fill:#FFBF1C;}
	.st11{fill:#FFF840;}
</style>
<rect x="29.1" y="50.9" class="st0" width="7.9" height="26.6"/>
<g class="st1">
	<g class="st2">
		<path d="M48,61.1c-1.6,0-3.2-0.5-4.8-1.6l-10.7-7.1l-10.1,6.9c-1.6,1.1-3.3,1.7-4.9,1.7c-2,0-3.8-0.9-5-2.4c-1-1.3-1.9-3.5-1-6.9
			l3.3-12.2L5,31.6c-4.2-3.3-3.4-7-3-8c0.3-1,1.9-4.5,7.2-4.6l12.4-0.4L25.8,7c1.8-5,5.6-5.4,6.7-5.4c1.4,0,4.8,0.5,6.7,5.3
			l4.4,11.7L56.1,19c5.3,0.2,6.8,3.6,7.2,4.6c0.3,1,1.2,4.7-3,8l-9.8,7.8L54,51.6c1,3.5,0,5.7-0.9,7C51.8,60.2,50,61.1,48,61.1z"/>
	</g>
	<g class="st3">
		<path class="st4" d="M48,59.6c-1.6,0-3.2-0.5-4.8-1.6l-10.7-7.1l-10.1,6.9c-1.6,1.1-3.3,1.7-4.9,1.7c-2,0-3.8-0.9-5-2.4
			c-1-1.3-1.9-3.5-1-6.9L14.8,38L5,30c-4.2-3.3-3.4-7-3-8c0.3-1,1.9-4.5,7.2-4.6L21.6,17l4.2-11.6c1.8-5,5.6-5.4,6.7-5.4
			c1.4,0,4.8,0.5,6.7,5.3L43.5,17L56,17.4c5.3,0.2,6.8,3.6,7.2,4.6c0.3,1,1.2,4.7-3,8l-9.8,7.8L53.9,50c1,3.5,0,5.7-0.9,7
			C51.8,58.7,50,59.6,48,59.6z"/>
	</g>
	<g class="st3">
		<path class="st0" d="M48,58.2c-1.3,0-2.6-0.5-4-1.4l-11.5-7.6l-10.8,7.4c-1.4,1-2.8,1.5-4.1,1.5c-1.6,0-3-0.7-4-1.9
			c-0.8-1-1.5-2.9-0.8-5.8l3.6-13.1L5.8,29c-3.4-2.7-2.9-5.5-2.6-6.5c0.4-1.1,1.6-3.6,6-3.7l13.3-0.4L27,5.8
			c1.5-4.1,4.3-4.5,5.4-4.5s3.9,0.4,5.4,4.4l4.7,12.5l13.4,0.4c4.3,0.1,5.6,2.6,6,3.7s0.8,3.8-2.5,6.5l-10.5,8.4l3.7,13.1
			c0.8,2.9,0.1,4.8-0.7,5.8C51,57.5,49.6,58.2,48,58.2z"/>
	</g>
	<path class="st5" d="M55.8,22.7l-5.5-0.2l-10.5-0.3l-1.7-4.6l0,0l-2-5.2l-2-5.2c-1-2.5-2.5-2.5-3.4,0l-2.3,6.3l-3.1,8.6l-4.9,0.2
		l0,0l-5.1,0.2l-6,0.2c-2.7,0.1-3.2,1.5-1.1,3.2l4.4,3.5l4.4,3.5l0,0l3.9,3.1l-2.8,10.2l-1.5,5.4c-0.7,2.6,0.5,3.5,2.8,2l4.5-3.1
		l4.5-3.1l0,0l4.1-2.8l8.9,5.9l4.8,3.2c2.3,1.5,3.5,0.6,2.8-2l-3.1-10.9l0,0l-1.4-4.7l3.9-3.1l0,0l4.3-3.5L57,26
		C59,24.2,58.5,22.8,55.8,22.7z"/>
</g>
<g>
	<rect x="29.1" y="50.9" class="st0" width="7.9" height="26.6"/>
	<g>
		<g class="st6">
			<path d="M48,61.1c-1.6,0-3.2-0.5-4.8-1.6l-10.7-7.1l-10.1,6.9c-1.6,1.1-3.3,1.7-4.9,1.7c-2,0-3.8-0.9-5-2.4c-1-1.3-1.9-3.5-1-6.9
				l3.3-12.2L5,31.6c-4.2-3.3-3.4-7-3-8c0.3-1,1.9-4.5,7.2-4.6l12.4-0.4L25.8,7c1.8-5,5.6-5.4,6.7-5.4c1.4,0,4.8,0.5,6.7,5.3
				l4.4,11.7L56.1,19c5.3,0.2,6.8,3.6,7.2,4.6c0.3,1,1.2,4.7-3,8l-9.8,7.8L54,51.6c1,3.5,0,5.7-0.9,7C51.8,60.2,50,61.1,48,61.1z"/>
		</g>
		<g>
			<path class="st7" d="M48,59.6c-1.6,0-3.2-0.5-4.8-1.6l-10.7-7.1l-10.1,6.9c-1.6,1.1-3.3,1.7-4.9,1.7c-2,0-3.8-0.9-5-2.4
				c-1-1.3-1.9-3.5-1-6.9L14.8,38L5,30c-4.2-3.3-3.4-7-3-8c0.3-1,1.9-4.5,7.2-4.6L21.6,17l4.2-11.6c1.8-5,5.6-5.4,6.7-5.4
				c1.4,0,4.8,0.5,6.7,5.3L43.5,17L56,17.4c5.3,0.2,6.8,3.6,7.2,4.6c0.3,1,1.2,4.7-3,8l-9.8,7.8L53.9,50c1,3.5,0,5.7-0.9,7
				C51.8,58.7,50,59.6,48,59.6z"/>
		</g>
		<g>
			<path class="st0" d="M48,58.2c-1.3,0-2.6-0.5-4-1.4l-11.5-7.6l-10.8,7.4c-1.4,1-2.8,1.5-4.1,1.5c-1.6,0-3-0.7-4-1.9
				c-0.8-1-1.5-2.9-0.8-5.8l3.6-13.1L5.8,29c-3.4-2.7-2.9-5.5-2.6-6.5c0.4-1.1,1.6-3.6,6-3.7l13.3-0.4L27,5.8
				c1.5-4.1,4.3-4.5,5.4-4.5s3.9,0.4,5.4,4.4l4.7,12.5l13.4,0.4c4.3,0.1,5.6,2.6,6,3.7s0.8,3.8-2.5,6.5l-10.5,8.4l3.7,13.1
				c0.8,2.9,0.1,4.8-0.7,5.8C51,57.5,49.6,58.2,48,58.2z"/>
		</g>
		<path class="st8" d="M55.8,22.7l-5.5-0.2l-10.5-0.3l-1.7-4.6l0,0l-2-5.2l-2-5.2c-1-2.5-2.5-2.5-3.4,0l-2.3,6.3l-3.1,8.6l-4.9,0.2
			l0,0l-5.1,0.2l-6,0.2c-2.7,0.1-3.2,1.5-1.1,3.2l4.4,3.5l4.4,3.5l0,0l3.9,3.1l-2.8,10.2l-1.5,5.4c-0.7,2.6,0.5,3.5,2.8,2l4.5-3.1
			l4.5-3.1l0,0l4.1-2.8l8.9,5.9l4.8,3.2c2.3,1.5,3.5,0.6,2.8-2l-3.1-10.9l0,0l-1.4-4.7l3.9-3.1l0,0l4.3-3.5L57,26
			C59,24.2,58.5,22.8,55.8,22.7z"/>
	</g>
	<g>
		<path class="st9" d="M48,55.6c-0.8,0-1.6-0.3-2.5-0.9l-13-8.6l-12.3,8.5c-0.9,0.6-1.8,1-2.6,1c-0.7,0-1.4-0.3-1.8-0.9
			c-0.6-0.8-0.7-1.9-0.3-3.4l4-14.8L7.5,27c-2-1.6-1.9-2.9-1.7-3.6s1-1.8,3.5-1.9L24.5,21l5.1-14.2C30.4,4.4,31.7,4,32.4,4
			c0.7,0,2,0.4,2.9,2.7l2,5.2l2,5.2l1.5,3.8L56,21.4c2.5,0.1,3.3,1.2,3.5,1.9c0.2,0.7,0.3,2-1.7,3.6l-11.9,9.5l1.2,4.1l0,0l3.1,10.7
			c0.4,1.5,0.3,2.7-0.3,3.5C49.4,55.2,48.7,55.6,48,55.6L48,55.6z"/>
		<path class="st10" d="M55.8,22.7l-5.5-0.2l-10.5-0.3l-1.7-4.6l0,0l-2-5.2l-2-5.2c-1-2.5-2.5-2.5-3.4,0l-2.3,6.3l-3.1,8.6l-4.9,0.2
			l0,0l-5.1,0.2l-6,0.2c-2.7,0.1-3.2,1.5-1.1,3.2l4.4,3.5l4.4,3.5l0,0l3.9,3.1l-2.8,10.2l-1.5,5.4c-0.7,2.6,0.5,3.5,2.8,2l4.5-3.1
			l4.5-3.1l0,0l4.1-2.8l8.9,5.9l4.8,3.2c2.3,1.5,3.5,0.6,2.8-2l-3.1-10.9l0,0l-1.4-4.7l3.9-3.1l0,0l4.3-3.5L57,26
			C59,24.2,58.5,22.8,55.8,22.7z"/>
		<g>
			<path class="st11" d="M32.4,32.1L9.2,24.7c-0.2-0.2-0.4-0.3-0.5-0.4c0.2,0,0.4,0,0.6-0.1l17-0.6l5.8-15.9
				c0.1-0.3,0.2-0.5,0.3-0.6c0.1,0.1,0.2,0.3,0.3,0.6l6,15.9l17,0.6c0.3,0,0.5,0,0.6,0.1c-0.1,0.1-0.3,0.3-0.5,0.4L32.4,32.1z"/>
		</g>
	</g>
</g>
</svg>
