<?xml version="1.0" encoding="utf-8"?>
<!-- Generator: Adobe Illustrator 19.0.0, SVG Export Plug-In . SVG Version: 6.00 Build 0)  -->
<svg version="1.1" id="Layer_1" xmlns="http://www.w3.org/2000/svg" xmlns:xlink="http://www.w3.org/1999/xlink" x="0px" y="0px"
	 viewBox="102 -63.4 604.9 326.4" style="enable-background:new 102 -63.4 604.9 326.4;" xml:space="preserve">
<style type="text/css">
	.st0{opacity:0.1;enable-background:new    ;}
	.st1{fill:#FFFFFF;}
	.st2{fill:#FF4C62;}
	.st3{fill:#FF94A1;}
	.st4{fill:#DFD5E2;}
	.st5{fill:#B4CD3C;}
	.st6{fill:#D2E18A;}
	.st7{fill:#F59C00;}
	.st8{fill:#F9C466;}
	.st9{fill:#8ED8F4;}
	.st10{opacity:0.3;fill:#FFFFFF;enable-background:new    ;}
	.st11{fill:#57C7EA;}
	.st12{fill:#BBBDBF;}
	.st13{fill:#E6E7E8;}
	.st14{fill:#A43467;}
	.st15{fill:#EF65A3;}
	.st16{fill:#A6A8AB;}
	.st17{fill:url(#SVGID_1_);}
	.st18{fill:#D0D2D3;}
	.st19{fill:#AC8D30;}
	.st20{fill:#F9CD2B;}
	.st21{fill:url(#SVGID_2_);}
	.st22{fill:#A3272E;}
	.st23{fill:#EF535A;}
	.st24{fill:url(#SVGID_3_);}
	.st25{fill:#5D2C5B;}
	.st26{fill:#A163A7;}
	.st27{fill:url(#SVGID_4_);}
	.st28{fill:url(#SVGID_5_);}
	.st29{fill:#3D7337;}
	.st30{fill:#72BE49;}
	.st31{fill:url(#SVGID_6_);}
	.st32{fill:url(#SVGID_7_);}
	.st33{fill:url(#SVGID_8_);}
	.st34{fill:#334977;}
	.st35{fill:#6785C2;}
	.st36{fill:url(#SVGID_9_);}
	.st37{fill:url(#SVGID_10_);}
</style>
<g>
	<g>
		<path class="st0" d="M578.6,40.7l-41.7,9.1c-1.4,0.3-2.8-0.5-3.1-1.9l-13.5-64c-0.3-1.4,0.6-2.7,2-3l41.7-9.1
			c1.4-0.3,2.8,0.5,3.1,1.9l13.5,64C581,39,580.1,40.4,578.6,40.7"/>
		<path class="st1" d="M575.1,40.1l-41.7,9.1c-1.4,0.3-2.8-0.5-3.1-1.9l-13.5-64c-0.3-1.4,0.6-2.7,2-3l41.7-9.1
			c1.4-0.3,2.8,0.5,3.1,1.9l13.5,64C577.4,38.5,576.5,39.8,575.1,40.1"/>
		<g>
			<g>
				<path class="st2" d="M542.9-11.2c-7.3-1.6-15.2,5.3-13.8,12.9c0.3,1.4,0.8,3,2,3.8c1,0.7,2.2,0.3,3.2-0.1
					c0.8-0.3,2.3-0.8,2.5-1.8c0.3-1.3-1.5-2.2-1.5-3.5c0-1.5,1.5-2.9,2.8-3.5c2.4-1.1,5.4-0.1,6.4,2.4c0.7,1.7,0.3,3.9-0.6,5.5
					c-0.8,1.3-2,2.3-2.6,3.7c-0.7,1.5-0.3,3.3,0.6,4.6c0.9,1.5,2.3,2.5,4.1,1.9c0.8-0.3,2.6-0.8,3.1-1.6c0.2-0.3,0.1-0.5,0-0.9
					c-0.3-0.9-0.8-1.4-0.8-2.4c-0.1-1.7,0.8-3.3,1.6-4.8c1.7-3.2,2.3-6.7,0.8-10.1C549.2-8.1,546.3-10.4,542.9-11.2z"/>
				<path class="st2" d="M552.7,18.1c-1.6-2-5.4-1.2-6.9,0.6c-1.5,1.8-1.1,5.1,1.1,6.1c1.9,0.8,4.5,0,5.7-1.6
					C553.8,21.9,553.9,19.5,552.7,18.1C552.7,18.1,552.7,18.1,552.7,18.1z"/>
			</g>
			<path class="st3" d="M530.9-3.9c0,0.2-0.1,0.3-0.1,0.5c-0.2,1.1,0.6,1.9,1.6,1.1c0.3-0.3,0.5-0.7,0.7-1c0.6-0.9,1.3-1.8,2.2-2.5
				c0.8-0.7,1.9-1.2,2.7-1.9c0.2-0.2,0.4-0.5,0.4-0.8c0-0.5-0.6-0.7-1.1-0.7C534.4-9.3,531.7-6.5,530.9-3.9z"/>
			<g>
				<path class="st4" d="M536.9,3.7c0.3-1.3-1.5-2.2-1.5-3.5c0-1.5,1.5-2.9,2.8-3.5c1.6-0.7,3.5-0.5,4.9,0.5
					c-0.6-0.9-1.6-1.6-2.7-1.9c-1.9-0.4-3.9,0.3-5.3,1.7c-0.9,0.9-1.5,2.1-1.5,3.4c0,0.8,0.3,1.6,0,2.4c-0.6,1.7-2.2,1.1-3.4,1.5
					c0.3,0.5,0.6,0.9,1.1,1.2c1,0.7,2.2,0.3,3.2-0.1C535.2,5.2,536.7,4.7,536.9,3.7z"/>
				<path class="st4" d="M546.3-9.8c0.3,0.3,0.7,0.6,0.9,0.9c0.9,1.1,1.7,2.4,2.1,3.8c0.9,2.7,0.6,5.8-0.8,8.2
					c-0.6,1-1.4,1.9-1.9,2.9c-0.6,1-0.9,2.2-0.6,3.3c0.3,1,1.1,2.1,0.5,2.9c-0.1,0.2-0.4,0.4-0.6,0.6c-1,0.7-2.3,1-3.5,0.8
					c0.9,1.1,2.1,1.7,3.5,1.2c0.8-0.3,2.6-0.8,3.1-1.6c0.2-0.3,0.1-0.5,0-0.9c-0.3-0.9-0.8-1.4-0.8-2.4c-0.1-1.7,0.8-3.3,1.6-4.8
					c1.7-3.2,2.3-6.7,0.8-10.1C549.7-6.9,548.2-8.6,546.3-9.8z"/>
			</g>
			<path class="st4" d="M552.7,18.1C552.7,18.1,552.7,18.1,552.7,18.1c-0.7-0.8-1.7-1.2-2.8-1.2c1.5,1.2,2,3.3,1.2,5
				c0,0.1-0.1,0.1-0.1,0.2c-0.8,1.5-2.4,2.4-4.1,2.6c0,0-0.1,0-0.1,0c0.1,0,0.1,0.1,0.2,0.1c1.9,0.8,4.5,0,5.7-1.6
				C553.8,21.9,553.9,19.5,552.7,18.1z"/>
			<path class="st3" d="M546.4,19.7c-0.4,0.7-0.5,1.6-0.3,2.3c0.1,0.4,0.4,0.7,0.8,0.7c0.2,0,0.4-0.2,0.6-0.3
				c0.1-0.2,0.2-0.4,0.3-0.6c0.3-0.7,0.8-1.3,1.3-1.8c0.7-0.6,0.6-1.6-0.5-1.6C547.7,18.3,546.7,19,546.4,19.7z"/>
		</g>
	</g>
	<g>
		<path class="st0" d="M596.1,45l-42.2-6.5c-1.4-0.2-2.4-1.5-2.2-2.9L562-28.9c0.2-1.4,1.6-2.3,3-2.1l42.2,6.5
			c1.4,0.2,2.4,1.5,2.2,2.9l-10.3,64.6C598.8,44.3,597.5,45.2,596.1,45"/>
		<path class="st0" d="M601.6,46.3l-42.2-6.5c-1.4-0.2-2.4-1.5-2.2-2.9l10.3-64.6c0.2-1.4,1.6-2.3,3-2.1l42.2,6.5
			c1.4,0.2,2.4,1.5,2.2,2.9l-10.3,64.6C604.4,45.6,603,46.5,601.6,46.3"/>
		<path class="st1" d="M598.5,44.5L556.2,38c-1.4-0.2-2.4-1.5-2.2-2.9l10.3-64.6c0.2-1.4,1.6-2.3,3-2.1l42.2,6.5
			c1.4,0.2,2.4,1.5,2.2,2.9l-10.3,64.6C601.2,43.8,599.9,44.8,598.5,44.5"/>
	</g>
	<g>
		<g>
			<path class="st5" d="M590.3-6.4c-4.5-5.6-14.6-5.1-18.1,1.4c-0.6,1.2-1.2,2.7-0.8,4.1c0.3,1.1,1.5,1.6,2.5,1.9
				c0.8,0.3,2.2,0.7,3,0.1c1-0.8,0.2-2.5,1-3.5c0.9-1.1,2.9-1.3,4.1-1c2.4,0.6,4.1,3.2,3.4,5.6c-0.5,1.7-2.1,3.2-3.8,3.8
				c-1.4,0.5-2.9,0.5-4.2,1.2c-1.4,0.8-2.2,2.3-2.4,3.8c-0.2,1.7,0.2,3.3,1.9,3.9c0.8,0.3,2.4,1,3.3,0.6c0.3-0.1,0.4-0.3,0.5-0.6
				c0.3-0.9,0.3-1.5,0.8-2.3c1-1.3,2.6-2,4.1-2.6c3.2-1.4,5.7-3.7,6.7-7.2C593.2-0.3,592.4-3.9,590.3-6.4z"/>
			<path class="st5" d="M580,21.4c0-2.5-3.4-4.2-5.6-3.7c-2.2,0.5-3.9,3.1-2.8,5.3c0.9,1.8,3.4,2.7,5.3,2.3
				C578.6,25,580.2,23.2,580,21.4C580,21.4,580,21.4,580,21.4z"/>
		</g>
		<path class="st6" d="M576.9-8.2c-0.1,0.1-0.3,0.2-0.4,0.3c-0.8,0.7-0.7,1.8,0.5,1.7c0.4,0,0.8-0.2,1.2-0.3c1-0.3,2.1-0.5,3.1-0.6
			c1.1,0,2.1,0.3,3.2,0.2c0.3,0,0.6-0.1,0.7-0.4c0.3-0.4,0-0.9-0.4-1.2C582.8-10.1,579.1-9.6,576.9-8.2z"/>
		<g>
			<path class="st4" d="M576.8,1.1c1-0.8,0.2-2.5,1-3.5c0.9-1.1,2.9-1.3,4.1-1c1.6,0.4,2.9,1.7,3.4,3.3c0.1-1.1-0.2-2.2-0.9-3.1
				c-1.2-1.5-3.2-2.1-5-1.9c-1.2,0.1-2.4,0.7-3.2,1.6c-0.5,0.6-0.8,1.4-1.4,1.8c-1.5,0.9-2.3-0.5-3.5-0.9c-0.1,0.5-0.1,1.1,0.1,1.6
				c0.3,1.1,1.5,1.6,2.5,1.9C574.6,1.2,576.1,1.7,576.8,1.1z"/>
			<path class="st4" d="M592-3.4c0,0.4,0.1,0.9,0.1,1.2c0,1.4-0.2,2.8-0.7,4.2c-1,2.6-3,4.7-5.6,5.7c-1,0.4-2.1,0.6-3.2,1
				c-1,0.4-2,1.1-2.5,2.1c-0.4,0.9-0.4,2.2-1.4,2.5c-0.3,0.1-0.5,0.1-0.8,0.1c-1.2-0.1-2.3-0.6-3.1-1.4c0,1.3,0.5,2.5,2,3
				c0.8,0.3,2.4,1,3.3,0.6c0.3-0.1,0.4-0.3,0.5-0.6c0.3-0.9,0.3-1.5,0.8-2.3c1-1.3,2.6-2,4.1-2.6c3.2-1.4,5.7-3.7,6.7-7.2
				C592.9,0.8,592.7-1.4,592-3.4z"/>
		</g>
		<path class="st4" d="M580,21.4C580,21.4,580,21.4,580,21.4c0-1-0.6-1.9-1.4-2.6c0.4,1.8-0.5,3.7-2.1,4.5c-0.1,0-0.1,0.1-0.2,0.1
			c-1.5,0.6-3.3,0.3-4.6-0.5c0,0-0.1,0-0.1,0c0,0.1,0,0.1,0.1,0.2c0.9,1.8,3.4,2.7,5.3,2.3C578.6,25,580.2,23.2,580,21.4z"/>
		<path class="st6" d="M574.4,18.8c-0.7,0.3-1.3,0.8-1.6,1.6c-0.1,0.3-0.2,0.8,0.1,1c0.2,0.1,0.4,0.1,0.6,0.1
			c0.2-0.1,0.4-0.2,0.6-0.3c0.6-0.4,1.4-0.6,2.1-0.6c0.9,0,1.4-0.8,0.6-1.5C576.2,18.6,575.1,18.6,574.4,18.8z"/>
	</g>
	<g>
		<path class="st0" d="M623.5,54.6l-41.2-11.4c-1.4-0.4-2.2-1.8-1.8-3.1l17.8-62.9c0.4-1.3,1.8-2.1,3.2-1.7l41.2,11.4
			c1.4,0.4,2.2,1.8,1.9,3.1l-17.8,62.9C626.4,54.2,624.9,55,623.5,54.6"/>
		<path class="st0" d="M630,55.1l-41.2-11.4c-1.4-0.4-2.2-1.8-1.8-3.1l17.8-62.9c0.4-1.3,1.8-2.1,3.2-1.7l41.2,11.4
			c1.4,0.4,2.2,1.8,1.9,3.1l-17.8,62.9C632.8,54.8,631.4,55.5,630,55.1"/>
		<path class="st1" d="M627.1,53l-41.2-11.4c-1.4-0.4-2.2-1.8-1.8-3.1l17.8-62.9c0.4-1.3,1.8-2.1,3.2-1.7l41.2,11.4
			c1.4,0.4,2.2,1.8,1.8,3.1l-17.8,62.9C629.9,52.6,628.5,53.4,627.1,53"/>
	</g>
	<g>
		<g>
			<path class="st7" d="M624,3.9c-3-5.3-11.5-6.3-15.3-1.3c-0.7,0.9-1.4,2.1-1.2,3.3c0.1,1,1,1.5,1.8,1.9c0.6,0.3,1.7,0.9,2.4,0.5
				c1-0.6,0.5-2.1,1.3-2.8c0.9-0.8,2.6-0.7,3.6-0.2c1.9,0.9,3,3.2,2,5.2c-0.6,1.4-2.2,2.3-3.7,2.6c-1.2,0.2-2.5,0.1-3.6,0.5
				c-1.3,0.4-2.1,1.6-2.5,2.9c-0.4,1.4-0.3,2.7,1.1,3.5c0.6,0.4,1.9,1.1,2.6,1c0.3-0.1,0.4-0.2,0.5-0.5c0.3-0.7,0.4-1.2,1-1.8
				c1-1,2.5-1.3,3.8-1.6c2.9-0.7,5.3-2.3,6.5-5C625.5,9.4,625.4,6.4,624,3.9z"/>
			<path class="st7" d="M611.6,25.7c0.3-2.1-2.2-3.9-4.1-3.8c-1.9,0.1-3.7,2.1-3.1,4c0.5,1.6,2.4,2.7,4.1,2.6
				C609.9,28.4,611.4,27.1,611.6,25.7C611.6,25.7,611.6,25.7,611.6,25.7z"/>
		</g>
		<path class="st8" d="M613.1,0.6c-0.1,0.1-0.2,0.1-0.4,0.2c-0.8,0.5-0.8,1.4,0.2,1.5c0.3,0,0.7,0,1-0.1c0.9-0.1,1.8-0.2,2.7-0.1
			c0.9,0.1,1.7,0.5,2.6,0.6c0.2,0,0.5,0,0.7-0.2c0.3-0.3,0.1-0.8-0.2-1.1C618.3-0.2,615.1-0.3,613.1,0.6z"/>
		<g>
			<path class="st4" d="M611.7,8.3c1-0.6,0.5-2.1,1.3-2.8c0.9-0.8,2.6-0.7,3.6-0.2c1.3,0.6,2.2,1.9,2.4,3.2c0.2-0.9,0.1-1.9-0.3-2.7
				c-0.8-1.4-2.3-2.2-3.9-2.3c-1,0-2.1,0.2-2.9,0.9c-0.5,0.4-0.8,1-1.4,1.3c-1.4,0.6-1.9-0.7-2.8-1.2c-0.1,0.4-0.2,0.9-0.1,1.3
				c0.1,1,1,1.5,1.8,1.9C609.9,8.1,611,8.7,611.7,8.3z"/>
			<path class="st4" d="M625,6.7c0,0.3,0,0.7-0.1,1.1c-0.2,1.2-0.6,2.3-1.2,3.4c-1.2,2-3.2,3.5-5.4,4c-0.9,0.2-1.9,0.2-2.8,0.4
				s-1.8,0.6-2.3,1.4c-0.5,0.7-0.7,1.8-1.5,1.9c-0.2,0-0.5,0-0.7-0.1c-0.9-0.3-1.8-0.8-2.4-1.6c-0.2,1.1,0.1,2.1,1.2,2.8
				c0.6,0.4,1.9,1.1,2.6,1c0.3-0.1,0.4-0.2,0.5-0.5c0.3-0.7,0.4-1.2,1-1.8c1-1,2.5-1.3,3.8-1.6c2.9-0.7,5.3-2.3,6.5-5
				C625.1,10.3,625.3,8.5,625,6.7z"/>
		</g>
		<path class="st4" d="M611.6,25.7C611.6,25.7,611.6,25.7,611.6,25.7c0.1-0.9-0.2-1.7-0.8-2.4c0.1,1.5-0.9,3-2.4,3.5
			c-0.1,0-0.1,0-0.2,0c-1.3,0.3-2.8-0.2-3.8-1.1c0,0,0,0-0.1,0c0,0,0,0.1,0,0.1c0.5,1.6,2.4,2.7,4.1,2.6
			C609.9,28.4,611.4,27.1,611.6,25.7z"/>
		<path class="st8" d="M607.2,22.7c-0.6,0.1-1.2,0.5-1.6,1.1c-0.2,0.3-0.2,0.6,0,0.9c0.1,0.1,0.3,0.2,0.5,0.1c0.2,0,0.3-0.1,0.5-0.2
			c0.6-0.2,1.2-0.3,1.8-0.2c0.8,0.1,1.3-0.5,0.7-1.2C608.8,22.8,607.8,22.6,607.2,22.7z"/>
	</g>
	<g>
		<path class="st0" d="M641.3,69.7l-38.2-19.2c-1.3-0.7-1.8-2.2-1.2-3.4l29.7-58.3c0.6-1.2,2.2-1.7,3.5-1.1L673.3,7
			c1.3,0.7,1.8,2.2,1.2,3.4l-29.7,58.3C644.2,69.9,642.6,70.3,641.3,69.7"/>
		<path class="st0" d="M637.3,64.9l-38.2-19.2c-1.3-0.7-1.8-2.2-1.2-3.4l29.7-58.3c0.6-1.2,2.2-1.7,3.5-1.1l38.2,19.2
			c1.3,0.7,1.8,2.2,1.2,3.4l-29.7,58.3C640.2,65.1,638.6,65.6,637.3,64.9"/>
		<path class="st1" d="M638.9,67l-38.2-19.2c-1.3-0.7-1.8-2.2-1.2-3.4l29.7-58.3c0.6-1.2,2.2-1.7,3.5-1.1l38.2,19.2
			c1.3,0.7,1.8,2.2,1.2,3.4L642.4,66C641.7,67.2,640.2,67.7,638.9,67"/>
	</g>
	<g>
		<g>
			<path class="st9" d="M648.7,15.2c-3.3-7.2-14.3-9.4-19.8-3.4c-1,1.1-2.1,2.6-2,4.1c0.1,1.3,1.1,2.1,2.1,2.7
				c0.8,0.5,2.2,1.4,3.1,0.9c1.3-0.6,0.9-2.6,2-3.5c1.2-1,3.4-0.6,4.7,0.1c2.4,1.3,3.5,4.5,2.1,7c-1,1.7-3.1,2.8-5.1,3
				c-1.6,0.2-3.2-0.2-4.8,0.2c-1.7,0.4-2.9,1.8-3.6,3.4c-0.7,1.7-0.7,3.5,1,4.7c0.8,0.5,2.3,1.7,3.3,1.6c0.4-0.1,0.5-0.2,0.7-0.5
				c0.5-0.8,0.7-1.6,1.5-2.3c1.4-1.2,3.3-1.4,5.1-1.7c3.8-0.6,7.1-2.4,9.1-5.9C650.1,22.5,650.2,18.5,648.7,15.2z"/>
			<path class="st9" d="M630.1,42.2c0.6-2.7-2.5-5.4-5-5.5c-2.5-0.1-5,2.3-4.4,4.9c0.5,2.2,2.9,3.8,5,3.9
				C627.6,45.6,629.8,44.1,630.1,42.2C630.1,42.2,630.1,42.2,630.1,42.2z"/>
		</g>
		<path class="st10" d="M634.8,9.7c-0.2,0.1-0.3,0.1-0.5,0.2c-1.1,0.5-1.2,1.8,0.1,2c0.4,0.1,0.9,0,1.3,0c1.2-0.1,2.4,0,3.5,0.2
			c1.1,0.2,2.2,0.9,3.4,1c0.3,0,0.7,0,0.9-0.2c0.4-0.3,0.2-1-0.1-1.4C641.7,9.2,637.5,8.7,634.8,9.7z"/>
		<g>
			<path class="st11" d="M632.2,19.6c1.3-0.6,0.9-2.6,2-3.5c1.2-1,3.4-0.6,4.7,0.1c1.6,0.9,2.7,2.7,2.7,4.5c0.4-1.1,0.3-2.4-0.1-3.5
				c-0.8-1.9-2.8-3.1-4.8-3.4c-1.3-0.2-2.8,0.1-3.9,0.9c-0.7,0.5-1.2,1.3-2,1.5c-1.9,0.6-2.3-1.2-3.5-1.9c-0.2,0.6-0.4,1.1-0.3,1.7
				c0.1,1.3,1.1,2.1,2.1,2.7C629.8,19.1,631.3,20,632.2,19.6z"/>
			<path class="st11" d="M649.7,18.9c-0.1,0.4-0.1,1-0.2,1.4c-0.4,1.5-1,3-1.9,4.3c-1.7,2.5-4.5,4.3-7.5,4.6c-1.2,0.1-2.4,0-3.7,0.2
				c-1.2,0.2-2.5,0.6-3.2,1.6c-0.7,0.9-1.1,2.2-2.2,2.3c-0.3,0-0.6,0-0.9-0.2c-1.2-0.4-2.3-1.3-2.9-2.4c-0.3,1.4-0.1,2.8,1.3,3.8
				c0.8,0.5,2.3,1.7,3.3,1.6c0.4-0.1,0.5-0.2,0.7-0.5c0.5-0.8,0.7-1.6,1.5-2.3c1.4-1.2,3.3-1.4,5.1-1.7c3.8-0.6,7.1-2.4,9.1-5.9
				C649.5,23.7,649.9,21.3,649.7,18.9z"/>
		</g>
		<path class="st11" d="M630.1,42.2C630.1,42.2,630.1,42.2,630.1,42.2c0.3-1.1-0.1-2.2-0.8-3.2c0,2-1.5,3.8-3.5,4.2
			c-0.1,0-0.2,0-0.2,0c-1.8,0.3-3.6-0.5-4.8-1.8c0,0,0,0-0.1-0.1c0,0.1,0,0.1,0,0.2c0.5,2.2,2.9,3.8,5,3.9
			C627.6,45.6,629.8,44.1,630.1,42.2z"/>
		<path class="st10" d="M624.8,37.9c-0.9,0.1-1.7,0.5-2.2,1.2c-0.2,0.3-0.4,0.8-0.1,1.1c0.1,0.2,0.4,0.3,0.6,0.2
			c0.2,0,0.5-0.1,0.7-0.1c0.8-0.2,1.6-0.2,2.4,0c1,0.2,1.7-0.5,1.1-1.5C626.8,38.1,625.6,37.8,624.8,37.9z"/>
	</g>
</g>
<g>
	<path class="st12" d="M175.2,45.3c0,3.3,0.2,8.1,0.4,14.2c0.3,5.6,0.4,10.1,0.4,12.9c0,2.7-0.2,7-0.4,12.5
		c-0.2,5.8-0.4,10.4-0.4,13.6c0,7.8,6.2,13.8,14,13.8h8.3c2.9,0,5.5-0.8,7.7-2.3c4.2,3,9.3,3,11.6,3c4.1,0,7.4-0.9,10-2.6
		c2.1,1.2,4.4,1.9,7,1.9h8.6c7.9,0,14-6.2,14-14.1c0-3.4-0.1-8-0.3-13.4c-0.2-5-0.3-9.4-0.3-12.4c0-3,0.1-7.6,0.3-13.2
		c0.2-6.2,0.3-10.9,0.3-13.9c0-7.8-6.2-14-14-14c-0.4,0-0.9,0-1.5-0.1l-1.8-0.1c-2.1-0.1-3.6-0.2-4.7-0.2c-6,0-11,3.6-13.5,9.7
		c-0.1,0.2-0.1,0.4-0.2,0.6c-1.6,4.3-3.1,8.2-4.5,11.9c-1.8-4.2-3.8-8.5-5.9-13.2c-3.6-8.2-9.7-9.4-13-9.4c-2.3,0-5.3,0.3-9.7,0.8
		C180.4,32.4,175.2,38.2,175.2,45.3z"/>
	<g>
		<path class="st13" d="M451.2,118.5c11.4,0,21.4-4.5,29-13.1c7.2-8,10.8-17.6,10.8-28.7c0-11-3.6-20.7-10.8-28.6
			c-7.6-8.6-17.7-13.2-29-13.2c-11.3,0-21.3,4.5-28.9,13.1c-7.2,8-10.9,17.7-10.9,28.8c0,11.1,3.6,20.7,10.8,28.7
			C429.8,114,439.8,118.5,451.2,118.5z M451.1,70.2c1,0,1.6,0.1,2.6,1.3c0.1,0.1,0.1,0.1,0.2,0.2c1.1,1.4,1.6,2.9,1.6,4.9
			c0,2.1-0.5,3.7-1.7,5.1c-0.1,0.2-0.2,0.3-0.4,0.5c-0.8,0.9-1.4,1-2.3,1c-0.8,0-1.3-0.1-2.3-1.2c-0.1-0.1-0.1-0.1-0.2-0.2
			c-1.2-1.4-1.7-3-1.7-5.1c0-1.9,0.5-3.5,1.5-4.8c0.1-0.1,0.2-0.3,0.4-0.4C449.8,70.3,450.3,70.2,451.1,70.2z"/>
		<g>
			<path class="st14" d="M439.5,107.1c11.4,0,21.4-4.5,29-13.1c7.2-8,10.8-17.6,10.8-28.7c0-11-3.6-20.7-10.8-28.6
				c-7.6-8.6-17.7-13.2-29-13.2c-11.3,0-21.3,4.5-28.9,13.1c-7.2,8-10.9,17.7-10.9,28.8c0,11.1,3.6,20.7,10.8,28.7
				C418,102.6,428.1,107.1,439.5,107.1z M439.4,58.8c1,0,1.6,0.1,2.6,1.3c0.1,0.1,0.1,0.2,0.2,0.2c1.1,1.4,1.6,2.9,1.6,4.9
				c0,2.1-0.5,3.7-1.7,5.1c-0.1,0.2-0.2,0.3-0.4,0.5c-0.8,0.9-1.4,1-2.3,1c-0.8,0-1.3-0.1-2.3-1.2c-0.1-0.1-0.1-0.1-0.2-0.2
				c-1.2-1.4-1.7-3-1.7-5.1c0-1.9,0.5-3.5,1.5-4.8c0.1-0.1,0.2-0.3,0.4-0.4C438.1,58.9,438.6,58.8,439.4,58.8z"/>
			<path class="st15" d="M436,102.6c11.4,0,21.4-4.5,29-13.1c7.2-8,10.8-17.6,10.8-28.7c0-11-3.6-20.7-10.8-28.6
				c-7.6-8.6-17.7-13.2-29-13.2c-11.3,0-21.3,4.5-28.9,13.1c-7.2,8-10.9,17.7-10.9,28.8c0,11.1,3.6,20.7,10.8,28.7
				C414.5,98.1,424.5,102.6,436,102.6z M435.9,54.3c1,0,1.6,0.1,2.6,1.3c0.1,0.1,0.1,0.2,0.2,0.2c1.1,1.4,1.6,2.9,1.6,4.9
				c0,2.1-0.5,3.7-1.7,5.1c-0.1,0.2-0.2,0.3-0.4,0.5c-0.8,0.9-1.4,1-2.3,1c-0.8,0-1.3-0.1-2.3-1.2c-0.1-0.1-0.1-0.1-0.2-0.2
				c-1.2-1.4-1.7-3-1.7-5.1c0-1.9,0.5-3.5,1.5-4.8c0.1-0.1,0.2-0.3,0.4-0.4C434.5,54.4,435,54.3,435.9,54.3z"/>
			<path class="st16" d="M429.2,73.2L429.2,73.2c-2.5-3-3.6-6.4-3.6-10.3c0-4,1.2-7.4,3.6-10.4h0c2.4-3,5.2-4.4,8.7-4.4
				c3.6,0,6.5,1.4,8.9,4.3l0,0c2.5,2.9,3.6,6.3,3.6,10.3c0,4-1.2,7.4-3.6,10.4v0c-2.5,3-5.3,4.4-8.9,4.4
				C434.4,77.6,431.6,76.2,429.2,73.2z M460.9,39.7c-6.1-6.9-13.8-10.4-22.9-10.4c-9,0-16.7,3.5-22.8,10.4
				c-5.8,6.5-8.8,14.3-8.8,23.2c0,9,2.9,16.8,8.7,23.3c6.1,6.9,13.8,10.3,22.9,10.3c9.1,0,16.8-3.5,22.9-10.3
				c5.8-6.4,8.7-14.2,8.7-23.2C469.6,53.9,466.7,46.1,460.9,39.7z"/>
			<path class="st1" d="M426.3,70.3L426.3,70.3c-2.5-3-3.6-6.4-3.6-10.3c0-4,1.2-7.4,3.6-10.4h0c2.4-3,5.2-4.4,8.7-4.4
				c3.6,0,6.5,1.4,8.9,4.3l0,0c2.5,2.9,3.6,6.3,3.6,10.3c0,4-1.2,7.4-3.6,10.4v0c-2.5,3-5.3,4.4-8.9,4.4
				C431.4,74.6,428.7,73.3,426.3,70.3z M457.9,36.8c-6.1-6.9-13.8-10.4-22.9-10.4c-9,0-16.7,3.5-22.8,10.4
				c-5.8,6.5-8.8,14.3-8.8,23.2c0,9,2.9,16.8,8.7,23.3c6.1,6.9,13.8,10.3,22.9,10.3c9.1,0,16.8-3.5,22.9-10.3
				c5.8-6.4,8.7-14.2,8.7-23.2C466.7,51,463.7,43.2,457.9,36.8z"/>
			<linearGradient id="SVGID_1_" gradientUnits="userSpaceOnUse" x1="452.5648" y1="89.6579" x2="419.3148" y2="32.0671">
				<stop  offset="0" style="stop-color:#FFFFFF"/>
				<stop  offset="0.4008" style="stop-color:#FBFBFB"/>
				<stop  offset="0.7974" style="stop-color:#EFF0F0"/>
				<stop  offset="1" style="stop-color:#E6E7E8"/>
			</linearGradient>
			<path class="st17" d="M427.2,71.2L427.2,71.2c-2.5-3-3.6-6.4-3.6-10.3c0-4,1.2-7.4,3.6-10.4h0c2.4-3,5.2-4.4,8.7-4.4
				c3.6,0,6.5,1.4,8.9,4.3l0,0c2.5,2.9,3.6,6.3,3.6,10.3c0,4-1.2,7.4-3.6,10.4v0c-2.5,3-5.3,4.4-8.9,4.4
				C432.3,75.5,429.5,74.2,427.2,71.2z M458.8,37.6c-6.1-6.9-13.8-10.4-22.9-10.4c-9,0-16.7,3.5-22.8,10.4
				c-5.8,6.5-8.8,14.3-8.8,23.2c0,9,2.9,16.8,8.7,23.3c6.1,6.9,13.8,10.3,22.9,10.3c9.1,0,16.8-3.5,22.9-10.3
				c5.8-6.4,8.7-14.2,8.7-23.2C467.6,51.9,464.6,44.1,458.8,37.6z"/>
		</g>
	</g>
	<g>
		<path class="st18" d="M639.6,51.2c1.3-7.9-3.8-15.1-11.5-16.3l-8.7-1.4c-5.5-0.9-10.7,1.5-13.6,5.7c-1.4-4.9-5.6-8.8-11.1-9.7
			l-8.6-1.4c-7.7-1.2-14.8,3.9-16,11.7c-1,6.3-1.7,11-2.2,14.2c-0.5,2.9-0.2,5.7,0.9,8.5c0.1,0.3,0.2,0.6,0.3,0.9
			c1.2,2.9,3.1,6.8,5.6,11.6c0.1,0.2,0.2,0.3,0.2,0.5c2.1,3.9,3.8,7.1,5.2,9.6c-0.2,0.9-0.4,1.8-0.6,2.8c-0.7,3-1.1,5.2-1.4,6.8
			c-0.5,3.1-0.1,6.1,1.1,8.5c1.9,4.1,5.7,6.9,10.2,7.6l9.2,1.5c7.7,1.2,14.8-3.7,16-11.3c0.2-1.3,0.5-3.6,0.9-6.9
			c0.1-0.9,0.2-1.9,0.3-2.9c1.8-1.7,3.6-3.4,5.4-5.1l3.7-3.5c0.1-0.1,0.2-0.2,0.4-0.4c8.6-8.6,11.5-12.7,12.3-17.6
			c0.2-1.5,0.6-3.9,1-6.9C639.1,54.8,639.4,52.7,639.6,51.2z"/>
		<g>
			<path class="st19" d="M635.1,44.6c1.3-7.9-3.8-15.1-11.5-16.3l-8.7-1.4c-5.5-0.9-10.7,1.5-13.6,5.7c-1.4-4.9-5.6-8.8-11.1-9.7
				l-8.6-1.4c-7.7-1.2-14.8,3.9-16,11.7c-1,6.3-1.7,11-2.2,14.2c-0.5,2.9-0.2,5.7,0.9,8.5c0.1,0.3,0.2,0.6,0.3,0.9
				c1.2,2.9,3.1,6.8,5.6,11.6c0.1,0.2,0.2,0.3,0.2,0.5c2.1,3.9,3.8,7.1,5.2,9.6c-0.2,0.9-0.4,1.8-0.6,2.8c-0.7,3-1.1,5.2-1.4,6.8
				c-0.5,3.1-0.1,6.1,1.1,8.5c1.9,4.1,5.7,6.9,10.2,7.6l9.2,1.5c7.7,1.2,14.8-3.7,16-11.3c0.2-1.3,0.5-3.6,0.9-6.9
				c0.1-0.9,0.2-1.9,0.3-2.9c1.8-1.7,3.6-3.4,5.4-5.1l3.7-3.5c0.1-0.1,0.2-0.2,0.4-0.4c8.6-8.6,11.5-12.7,12.3-17.6
				c0.2-1.5,0.6-3.9,1-6.9C634.5,48.2,634.8,46,635.1,44.6z"/>
			<path class="st20" d="M632.3,39.5c1.3-7.9-3.8-15.1-11.5-16.3l-8.7-1.4c-5.5-0.9-10.7,1.5-13.6,5.7c-1.4-4.9-5.6-8.8-11.1-9.7
				l-8.6-1.4c-7.7-1.2-14.8,3.9-16,11.7c-1,6.3-1.7,11-2.2,14.2c-0.5,2.9-0.2,5.7,0.9,8.5c0.1,0.3,0.2,0.6,0.3,0.9
				c1.2,2.9,3.1,6.8,5.6,11.6c0.1,0.2,0.2,0.3,0.2,0.5c2.1,3.9,3.8,7.1,5.2,9.6c-0.2,0.9-0.4,1.8-0.6,2.8c-0.7,3-1.1,5.2-1.4,6.8
				c-0.5,3.1-0.1,6.1,1.1,8.5c1.9,4.1,5.7,6.9,10.2,7.6l9.2,1.5c7.7,1.2,14.8-3.7,16-11.3c0.2-1.3,0.5-3.6,0.9-6.9
				c0.1-0.9,0.2-1.9,0.3-2.9c1.8-1.7,3.6-3.4,5.4-5.1l3.7-3.5c0.1-0.1,0.2-0.2,0.4-0.4c8.6-8.6,11.5-12.7,12.3-17.6
				c0.2-1.5,0.6-3.9,1-6.9C631.7,43.1,632.1,41,632.3,39.5z"/>
			<path class="st16" d="M624.9,47.2c0.4-2.9,0.8-5.1,1-6.6c0.6-4-1.9-6.5-4.7-6.9c-0.6-0.1-8.1-1.3-8.7-1.4
				c-3.2-0.5-6.1,1.6-6.6,4.9c-0.3,1.6-0.5,3.7-0.8,6.8c-0.2,2.2-0.4,4-0.5,5.2c-0.5,0.6-1.8,2.1-5.2,5.3l0,0
				c-1.3,1.1-2.4,2.2-3.5,3.3c-4.4-7.2-5.6-10-5.9-10.9c0.2-1.4,0.6-3.2,1.1-5.5c0.6-2.9,1.1-5.2,1.3-6.7c0.5-3.1-1.5-5.7-4.6-6.2
				c-0.7-0.1-8-1.3-8.6-1.4c-3.3-0.5-6.1,1.6-6.6,4.9c-1,6.3-1.7,10.9-2.2,14.2c-0.3,1.6,0,3.2,0.6,4.9l0,0.1
				c1.1,2.6,2.9,6.3,5.4,11.3l0.1,0.1c2.8,5.3,5,9.3,6.5,12.1c0,0.1,0,0.1,0,0.3c-0.2,1.2-0.6,3.1-1.2,5.7c-0.6,2.8-1.1,4.8-1.3,6.3
				c-0.2,1.4-0.1,2.6,0.5,3.7c0.8,1.7,2.3,2.7,4.1,3l9.2,1.5c3.3,0.5,6.1-1.4,6.6-4.5c0.2-1.5,0.5-3.6,0.8-6.5
				c0.3-2.6,0.5-4.7,0.7-5.9c0,0,0.1-0.1,0.2-0.2c3.6-3.5,7.4-7,11-10.4l0.1-0.1c8.8-8.8,9.8-11.3,10.1-13.3
				C624.1,52.5,624.5,50.2,624.9,47.2z"/>
			<path class="st1" d="M622.5,43.8c0.4-2.9,0.8-5.1,1-6.6c0.6-4-1.9-6.5-4.7-6.9c-0.6-0.1-8.1-1.3-8.7-1.4
				c-3.2-0.5-6.1,1.6-6.6,4.9c-0.3,1.6-0.5,3.7-0.8,6.8c-0.2,2.2-0.4,4-0.5,5.2c-0.5,0.6-1.8,2.1-5.2,5.3l0,0
				c-1.3,1.1-2.4,2.2-3.5,3.3c-4.4-7.2-5.6-10-5.9-10.9c0.2-1.4,0.6-3.2,1.1-5.5c0.6-2.9,1.1-5.2,1.3-6.7c0.5-3.1-1.5-5.7-4.6-6.2
				c-0.7-0.1-8-1.3-8.6-1.4c-3.3-0.5-6.1,1.6-6.6,4.9c-1,6.3-1.7,10.9-2.2,14.2c-0.3,1.6,0,3.2,0.6,4.9l0,0.1
				c1.1,2.6,2.9,6.3,5.4,11.3l0.1,0.1c2.8,5.3,5,9.3,6.5,12.1c0,0.1,0,0.1,0,0.3c-0.2,1.2-0.6,3.1-1.2,5.7c-0.6,2.8-1.1,4.8-1.3,6.3
				c-0.2,1.4-0.1,2.6,0.5,3.7c0.8,1.7,2.3,2.7,4.1,3l9.2,1.5c3.3,0.5,6.1-1.4,6.6-4.5c0.2-1.5,0.5-3.6,0.8-6.5
				c0.3-2.6,0.5-4.7,0.7-5.9c0,0,0.1-0.1,0.2-0.2c3.6-3.5,7.4-7,11-10.4l0.1-0.1c8.8-8.8,9.8-11.3,10.1-13.3
				C621.7,49.1,622.1,46.9,622.5,43.8z"/>
			
				<linearGradient id="SVGID_2_" gradientUnits="userSpaceOnUse" x1="617.7092" y1="81.5908" x2="582.4399" y2="20.5027" gradientTransform="matrix(0.9875 0.1578 -0.1578 0.9875 14.0605 -91.683)">
				<stop  offset="0" style="stop-color:#FFFFFF"/>
				<stop  offset="0.4008" style="stop-color:#FBFBFB"/>
				<stop  offset="0.7974" style="stop-color:#EFF0F0"/>
				<stop  offset="1" style="stop-color:#E6E7E8"/>
			</linearGradient>
			<path class="st21" d="M623.2,44.8c0.4-2.9,0.8-5.1,1-6.6c0.6-4-1.9-6.5-4.7-6.9c-0.6-0.1-8.1-1.3-8.7-1.4
				c-3.2-0.5-6.1,1.6-6.6,4.9c-0.3,1.6-0.5,3.7-0.8,6.8c-0.2,2.2-0.4,4-0.5,5.2c-0.5,0.6-1.8,2.1-5.2,5.3l0,0
				c-1.3,1.1-2.4,2.2-3.5,3.3c-4.4-7.2-5.6-10-5.9-10.9c0.2-1.4,0.6-3.2,1.1-5.5c0.6-2.9,1.1-5.2,1.3-6.7c0.5-3.1-1.5-5.7-4.6-6.2
				c-0.7-0.1-8-1.3-8.6-1.4c-3.3-0.5-6.1,1.6-6.6,4.9c-1,6.3-1.7,10.9-2.2,14.2c-0.3,1.6,0,3.2,0.6,4.9l0,0.1
				c1.1,2.6,2.9,6.3,5.4,11.3l0.1,0.1c2.8,5.3,5,9.3,6.5,12.1c0,0.1,0,0.1,0,0.3c-0.2,1.2-0.6,3.1-1.2,5.7c-0.6,2.8-1.1,4.8-1.3,6.3
				c-0.2,1.4-0.1,2.6,0.5,3.7c0.8,1.7,2.3,2.7,4.1,3l9.2,1.5c3.3,0.5,6.1-1.4,6.6-4.5c0.2-1.5,0.5-3.6,0.8-6.5
				c0.3-2.6,0.5-4.7,0.7-5.9c0,0,0.1-0.1,0.2-0.2c3.6-3.5,7.4-7,11-10.4l0.1-0.1c8.8-8.8,9.8-11.3,10.1-13.3
				C622.4,50.1,622.8,47.9,623.2,44.8z"/>
		</g>
	</g>
	<g>
		<path class="st18" d="M518.2,108.9c2.2-0.3,4.5-0.7,4.9-0.7c4.6-0.8,8.2-3.6,10.1-7.4c3.3,3,7.6,4.3,12.1,3.6l9.3-1.5
			c7.6-1.2,12.5-8,11.3-15.3c-0.5-3.3-1.5-4.8-8.5-15c-0.4-0.6-0.8-1.2-1.2-1.7c1-1.8,1.7-3.6,2.2-5.5c1.3-4.2,1.4-9,0.4-15
			c-1.6-9.5-6.5-16.8-14.3-21.1c-6.5-3.7-14.3-4.8-22.9-3.4c-2.6,0.4-6.3,1.1-10.3,1.9c-4.2,0.8-7.4,1.4-9.5,1.7
			c-5.6,0.9-8.6,3.9-10.2,6.2c-2,3.1-2.8,6.8-2,10.4c0,0.1,0.1,0.3,0.1,0.4l0.1,0.5c2,8.6,3.7,17.1,5,25.1c0.3,2,0.9,5.7,1.6,12.4
			c0.7,6.2,1.3,10.6,1.8,13.6c1.3,7.7,8.3,12.7,16.1,11.5C514.7,109.4,516.4,109.2,518.2,108.9z"/>
		<g>
			<path class="st22" d="M511.8,104c2.2-0.3,4.5-0.7,4.9-0.7c4.6-0.8,8.2-3.6,10.1-7.4c3.3,3,7.6,4.3,12.1,3.6l9.3-1.5
				c7.6-1.2,12.5-8,11.3-15.3c-0.5-3.3-1.5-4.8-8.5-15c-0.4-0.6-0.8-1.2-1.2-1.7c1-1.8,1.7-3.6,2.2-5.5c1.3-4.2,1.4-9,0.4-15
				c-1.6-9.5-6.5-16.8-14.3-21.1c-6.5-3.7-14.3-4.8-22.9-3.4c-2.6,0.4-6.3,1.1-10.3,1.9c-4.2,0.8-7.4,1.4-9.5,1.7
				c-5.6,0.9-8.6,3.9-10.2,6.2c-2,3.1-2.8,6.8-2,10.4c0,0.1,0.1,0.2,0.1,0.4l0.1,0.5c2,8.6,3.7,17.1,5,25.1c0.3,2,0.9,5.7,1.6,12.4
				c0.7,6.2,1.3,10.6,1.8,13.6c1.3,7.7,8.3,12.7,16.1,11.5C508.3,104.6,510,104.3,511.8,104z"/>
			<path class="st23" d="M507.6,100.2c2.2-0.3,4.5-0.7,4.9-0.7c4.6-0.8,8.2-3.6,10.1-7.4c3.3,3,7.6,4.3,12.1,3.6l9.3-1.5
				c7.6-1.2,12.5-8,11.3-15.3c-0.5-3.3-1.5-4.8-8.5-15c-0.4-0.6-0.8-1.2-1.2-1.7c1-1.8,1.7-3.6,2.2-5.5c1.3-4.2,1.4-9,0.4-15
				c-1.6-9.5-6.5-16.8-14.3-21.1c-6.5-3.7-14.3-4.8-22.9-3.4c-2.6,0.4-6.3,1.1-10.3,1.9c-4.2,0.8-7.4,1.4-9.5,1.7
				c-5.6,0.9-8.6,3.9-10.2,6.2c-2,3.1-2.8,6.8-2,10.4c0,0.1,0.1,0.3,0.1,0.4l0.1,0.5c2,8.6,3.7,17.1,5,25.1c0.3,2,0.9,5.7,1.6,12.4
				c0.7,6.2,1.3,10.6,1.8,13.6c1.3,7.7,8.3,12.7,16.1,11.5C504,100.7,505.8,100.4,507.6,100.2z"/>
			<path class="st16" d="M523.7,50c0.3,2,0.7,4.3-5.2,5.2c-2.1,0.3-4.1,0.6-6,0.9l-0.5-3.1c-0.6-3.4-0.9-5.8-1.2-7.4
				c0.5-0.1,1.1-0.2,1.9-0.3c6-1,8-0.5,8.5-0.3C522.6,45.5,523.3,48,523.7,50z M542.4,70.2c-2.2-3.1-3.6-5.2-4.4-6.5
				c2.2-2.5,3.6-5.1,4.3-7.7c0.9-3.1,1-6.8,0.2-11.4c-1.2-7.1-4.6-12.2-10.2-15.3c-4.9-2.7-10.8-3.6-17.6-2.4c-2.2,0.4-5.6,1-10,1.9
				c-4.4,0.8-7.6,1.4-9.8,1.8c-0.8,0.1-3.2,0.5-4.7,2.7c-0.8,1.3-1.1,2.7-0.8,4.2l0.2,0.7c2.1,9,3.8,17.6,5.1,25.7
				c0.5,2.8,1,7,1.7,12.7c0.7,5.8,1.3,10.3,1.8,13.2c0.5,3.2,3.4,5.2,6.6,4.7c0.6-0.1,8.1-1.2,8.8-1.3c3.1-0.5,5.1-3.3,4.6-6.5
				c-0.3-1.9-0.8-4.5-1.6-8.3c-0.4-2-0.8-3.7-1.1-5.2c0.7-0.1,1.4-0.2,2.4-0.4c1.2-0.2,2-0.3,2.4-0.4c5,7.9,8.1,12.6,9.1,14.2l0,0
				c1.5,2.1,3.8,3.1,6.2,2.7c0.6-0.1,8.7-1.4,9.3-1.5c3.5-0.6,5-3.4,4.6-5.9C549.3,80.5,549.3,80.1,542.4,70.2z"/>
			<path class="st1" d="M520.3,47.6c0.3,2,0.7,4.3-5.2,5.2c-2.1,0.3-4.1,0.6-6,0.9l-0.5-3.1c-0.6-3.4-0.9-5.8-1.2-7.4
				c0.5-0.1,1.1-0.2,1.9-0.3c6-1,8-0.5,8.5-0.3C519.2,43.1,520,45.6,520.3,47.6z M539.1,67.8c-2.2-3.1-3.6-5.2-4.4-6.5
				c2.2-2.5,3.6-5.1,4.3-7.7c0.9-3.1,1-6.8,0.2-11.4c-1.2-7.1-4.6-12.2-10.2-15.3c-4.9-2.7-10.8-3.6-17.6-2.4c-2.2,0.4-5.6,1-10,1.9
				c-4.4,0.8-7.6,1.4-9.8,1.8c-0.8,0.1-3.2,0.5-4.7,2.7c-0.8,1.3-1.1,2.7-0.8,4.2l0.2,0.7c2.1,9,3.8,17.6,5.1,25.7
				c0.5,2.8,1,7,1.7,12.7c0.7,5.8,1.3,10.3,1.8,13.2c0.5,3.2,3.4,5.2,6.6,4.7c0.6-0.1,8.1-1.2,8.8-1.3c3.1-0.5,5.1-3.3,4.6-6.5
				c-0.3-1.9-0.8-4.5-1.6-8.3c-0.4-2-0.8-3.7-1.1-5.2c0.7-0.1,1.4-0.2,2.4-0.4c1.2-0.2,2-0.3,2.4-0.4c5,7.9,8.1,12.6,9.1,14.2l0,0
				c1.5,2.1,3.8,3.1,6.2,2.7c0.6-0.1,8.7-1.4,9.3-1.5c3.5-0.6,5-3.4,4.6-5.9C545.9,78.1,545.9,77.7,539.1,67.8z"/>
			
				<linearGradient id="SVGID_3_" gradientUnits="userSpaceOnUse" x1="531.0192" y1="91.8098" x2="492.0369" y2="24.2905" gradientTransform="matrix(0.9867 -0.1624 0.1624 0.9867 0.5172 85.3847)">
				<stop  offset="0" style="stop-color:#FFFFFF"/>
				<stop  offset="0.4008" style="stop-color:#FBFBFB"/>
				<stop  offset="0.7974" style="stop-color:#EFF0F0"/>
				<stop  offset="1" style="stop-color:#E6E7E8"/>
			</linearGradient>
			<path class="st24" d="M521.3,48.3c0.3,2,0.7,4.3-5.2,5.2c-2.1,0.3-4.1,0.6-6,0.9l-0.5-3.1c-0.6-3.4-0.9-5.8-1.2-7.4
				c0.5-0.1,1.1-0.2,1.8-0.3c6-1,8-0.5,8.5-0.3C520.3,43.8,521,46.3,521.3,48.3z M540.1,68.5c-2.2-3.1-3.6-5.2-4.4-6.5
				c2.2-2.5,3.6-5.1,4.3-7.7c0.9-3.1,1-6.8,0.2-11.4c-1.2-7.1-4.6-12.2-10.2-15.3c-4.9-2.7-10.8-3.6-17.6-2.4c-2.2,0.4-5.6,1-10,1.9
				c-4.4,0.8-7.6,1.4-9.8,1.8c-0.8,0.1-3.2,0.5-4.7,2.7c-0.8,1.3-1.1,2.7-0.8,4.2l0.2,0.7c2.1,9,3.8,17.6,5.1,25.7
				c0.5,2.8,1,7,1.7,12.7c0.7,5.8,1.3,10.3,1.8,13.2c0.5,3.2,3.4,5.2,6.6,4.7c0.6-0.1,8.1-1.2,8.8-1.3c3.1-0.5,5.1-3.3,4.6-6.5
				c-0.3-1.9-0.8-4.5-1.6-8.3c-0.4-2-0.8-3.7-1.1-5.2c0.7-0.1,1.4-0.2,2.4-0.4c1.2-0.2,2-0.3,2.4-0.4c5,7.9,8.1,12.6,9.1,14.2l0,0
				c1.5,2.1,3.8,3.1,6.2,2.7c0.6-0.1,8.7-1.4,9.3-1.5c3.5-0.6,5-3.4,4.6-5.9C547,78.8,546.9,78.4,540.1,68.5z"/>
		</g>
	</g>
	<g>
		<path class="st25" d="M171.3,42c0,3.3,0.2,8.1,0.4,14.2c0.3,5.6,0.4,10.1,0.4,12.9c0,2.7-0.2,7-0.4,12.5
			c-0.2,5.8-0.4,10.4-0.4,13.6c0,7.8,6.2,13.8,14,13.8h8.3c2.9,0,5.5-0.8,7.7-2.3c4.2,3,9.3,3,11.6,3c4.1,0,7.4-0.9,10-2.6
			c2.1,1.2,4.4,1.9,7,1.9h8.6c7.9,0,14-6.2,14-14.1c0-3.4-0.1-8-0.3-13.4c-0.2-5-0.3-9.4-0.3-12.4c0-3,0.1-7.6,0.3-13.2
			c0.2-6.2,0.3-10.9,0.3-13.9c0-7.8-6.2-14-14-14c-0.4,0-0.9,0-1.5-0.1l-1.8-0.1c-2.1-0.1-3.6-0.2-4.7-0.2c-6,0-11,3.6-13.5,9.7
			c-0.1,0.2-0.1,0.4-0.2,0.6c-1.6,4.3-3.1,8.2-4.5,11.9c-1.8-4.2-3.8-8.5-5.9-13.2c-3.6-8.2-9.7-9.4-13-9.4c-2.3,0-5.3,0.3-9.7,0.8
			C176.4,29.1,171.3,34.9,171.3,42z"/>
		<path class="st26" d="M167.7,37.5c0,3.3,0.2,8.1,0.4,14.2c0.3,5.6,0.4,10.1,0.4,12.9c0,2.7-0.2,7-0.4,12.5
			c-0.2,5.8-0.4,10.4-0.4,13.6c0,7.8,6.2,13.8,14,13.8h8.3c2.9,0,5.5-0.8,7.7-2.3c4.2,3,9.3,3,11.6,3c4.1,0,7.4-0.9,10-2.6
			c2.1,1.2,4.4,1.9,7,1.9h8.6c7.9,0,14-6.2,14-14.1c0-3.4-0.1-8-0.3-13.4c-0.2-5-0.3-9.4-0.3-12.4c0-3,0.1-7.6,0.3-13.2
			c0.2-6.2,0.3-10.9,0.3-13.9c0-7.8-6.2-14-14-14c-0.4,0-0.9,0-1.5-0.1l-1.8-0.1c-2.1-0.1-3.6-0.2-4.7-0.2c-6,0-11,3.6-13.5,9.7
			c-0.1,0.2-0.1,0.4-0.2,0.6c-1.6,4.3-3.1,8.2-4.5,11.9c-1.8-4.2-3.8-8.5-5.9-13.2c-3.6-8.2-9.7-9.4-13-9.4c-2.3,0-5.3,0.3-9.7,0.8
			C172.9,24.6,167.7,30.4,167.7,37.5z"/>
		<path class="st16" d="M242.5,79.4c-0.2-5.7-0.3-9.9-0.3-12.7c0-2.9,0.1-7.5,0.3-13.5c0.2-6,0.3-10.6,0.3-13.7
			c0-3.3-2.5-5.8-5.8-5.8c-0.8,0-2.1-0.1-3.8-0.1c-1.9-0.1-3.3-0.1-4.3-0.1c-1.5,0-4.3,0.6-5.8,4.6v0c-4.7,12.6-8.7,23-11.9,30.9
			c-4-9.5-8.7-20-13.8-31.4c-0.6-1.3-2-4.5-5.5-4.5c-2,0-4.9,0.3-8.6,0.8c-3,0.4-5.1,2.7-5.1,5.6c0,3.1,0.2,7.7,0.4,13.8
			c0.3,5.9,0.5,10.4,0.5,13.4c0,2.8-0.1,7.1-0.5,12.8c-0.2,5.8-0.4,10.3-0.4,13.3c0,3.2,2.5,5.6,5.8,5.6c0.6,0,7.7,0,8.3,0
			c2.9,0,5.8-2.1,5.8-6.2c0-2.2,0-5.1-0.1-8.7c0.5,1.1,0.9,2.1,1.3,3.1v0c1.6,3.8,2.9,6.7,3.8,8.9l0.1,0.3l0.1,0.3
			c1.7,2.8,5,3,8.2,3c1.9,0,5.4,0,7-3l0.1-0.2l0.1-0.2c1.5-3.6,2.7-6.6,3.6-9.1c0.2-0.4,0.3-0.7,0.5-1.1c-0.1,2.7-0.1,5-0.1,6.8
			c0,4,2.9,6.2,5.8,6.2c0.6,0,8,0,8.6,0c3.3,0,5.8-2.5,5.8-5.8C242.8,89.6,242.7,85.3,242.5,79.4z"/>
		<path class="st1" d="M239.6,76.4c-0.2-5.7-0.3-9.9-0.3-12.7c0-2.9,0.1-7.5,0.3-13.5c0.2-6,0.3-10.6,0.3-13.7
			c0-3.3-2.5-5.8-5.8-5.8c-0.8,0-2.1-0.1-3.8-0.1c-1.9-0.1-3.3-0.1-4.3-0.1c-1.5,0-4.3,0.6-5.8,4.6v0c-4.7,12.6-8.7,23-11.9,30.9
			c-4-9.5-8.7-20-13.8-31.4c-0.6-1.3-2-4.5-5.5-4.5c-2,0-4.9,0.3-8.6,0.8c-3,0.4-5.1,2.7-5.1,5.6c0,3.1,0.2,7.7,0.4,13.8
			c0.3,5.9,0.5,10.4,0.5,13.4c0,2.8-0.1,7.1-0.5,12.8c-0.2,5.8-0.4,10.3-0.4,13.3c0,3.2,2.5,5.6,5.8,5.6c0.6,0,7.7,0,8.3,0
			c2.9,0,5.8-2.1,5.8-6.2c0-2.2,0-5.1-0.1-8.7c0.5,1.1,0.9,2.1,1.3,3.1v0c1.6,3.8,2.9,6.7,3.8,8.9l0.1,0.3l0.1,0.3
			c1.7,2.8,5,3,8.2,3c1.9,0,5.4,0,7-3l0.1-0.2l0.1-0.2c1.5-3.6,2.7-6.6,3.6-9.1c0.2-0.4,0.3-0.7,0.5-1.1c-0.1,2.7-0.1,5-0.1,6.8
			c0,4,2.9,6.2,5.8,6.2c0.6,0,8,0,8.6,0c3.3,0,5.8-2.5,5.8-5.8C239.9,86.6,239.8,82.3,239.6,76.4z"/>
		<linearGradient id="SVGID_4_" gradientUnits="userSpaceOnUse" x1="229.3576" y1="100.4564" x2="187.3157" y2="27.6377">
			<stop  offset="0" style="stop-color:#FFFFFF"/>
			<stop  offset="0.4008" style="stop-color:#FBFBFB"/>
			<stop  offset="0.7974" style="stop-color:#EFF0F0"/>
			<stop  offset="1" style="stop-color:#E6E7E8"/>
		</linearGradient>
		<path class="st27" d="M240.4,77.3c-0.2-5.7-0.3-9.9-0.3-12.7c0-2.9,0.1-7.5,0.3-13.5c0.2-6,0.3-10.6,0.3-13.7
			c0-3.3-2.5-5.8-5.8-5.8c-0.8,0-2.1-0.1-3.8-0.1c-1.9-0.1-3.3-0.1-4.3-0.1c-1.5,0-4.3,0.6-5.8,4.6v0c-4.7,12.6-8.7,23-11.9,30.9
			c-4-9.5-8.7-20-13.8-31.4c-0.6-1.3-2-4.5-5.5-4.5c-2,0-4.9,0.3-8.6,0.8c-3,0.4-5.1,2.7-5.1,5.6c0,3.1,0.2,7.7,0.4,13.8
			c0.3,5.9,0.5,10.4,0.5,13.4c0,2.8-0.1,7.1-0.5,12.8c-0.2,5.8-0.4,10.3-0.4,13.3c0,3.2,2.5,5.6,5.8,5.6c0.6,0,7.7,0,8.3,0
			c2.9,0,5.8-2.1,5.8-6.2c0-2.2,0-5.1-0.1-8.7c0.5,1.1,0.9,2.1,1.3,3.1v0c1.6,3.8,2.9,6.7,3.8,8.9l0.1,0.3l0.1,0.3
			c1.7,2.8,5,3,8.2,3c1.9,0,5.4,0,7-3l0.1-0.2l0.1-0.2c1.5-3.6,2.7-6.6,3.6-9.1c0.2-0.4,0.3-0.7,0.5-1.1c-0.1,2.7-0.1,5-0.1,6.8
			c0,4,2.9,6.2,5.8,6.2c0.6,0,8,0,8.6,0c3.3,0,5.8-2.5,5.8-5.8C240.8,87.5,240.7,83.2,240.4,77.3z"/>
	</g>
	<g>
		<path class="st12" d="M320,44.8c0.1,3.3,0.5,8.1,0.9,14.2c0.5,5.6,0.8,10,0.9,12.9c0.1,2.7,0.1,7,0,12.5c0,5.8-0.1,10.4,0.1,13.6
			c0.3,7.7,6.6,13.6,14.5,13.3l8.3-0.3c2.9-0.1,5.5-1,7.6-2.6c4.3,2.9,9.4,2.7,11.7,2.6c4-0.1,7.3-1.1,9.9-2.9
			c2.1,1.1,4.5,1.7,7.1,1.6l8.6-0.3c7.9-0.3,13.8-6.7,13.5-14.5c-0.1-3.4-0.4-8-0.8-13.4c-0.4-5-0.7-9.4-0.8-12.4
			c-0.1-3-0.2-7.6-0.2-13.2c0-6.2-0.1-10.9-0.2-13.9c-0.3-7.8-6.7-13.7-14.5-13.5c-0.4,0-0.9,0-1.5,0l-1.8,0c-2.1,0-3.6,0-4.7,0
			c-6,0.2-10.9,4-13.1,10.2c-0.1,0.2-0.1,0.4-0.2,0.6c-1.5,4.3-2.8,8.3-4.1,12c-2-4.1-4.1-8.4-6.4-13c-3.9-8-10-9-13.4-8.9
			c-2.3,0.1-5.3,0.4-9.6,1.2C324.7,31.8,319.7,37.7,320,44.8z"/>
		<g>
			<path class="st25" d="M315.9,41.7c0.1,3.3,0.5,8.1,0.9,14.2c0.5,5.6,0.8,10,0.9,12.9c0.1,2.7,0.1,7,0,12.5
				c0,5.8-0.1,10.4,0.1,13.6c0.3,7.7,6.6,13.6,14.5,13.3l8.3-0.3c2.9-0.1,5.5-1,7.6-2.6c4.3,2.9,9.4,2.7,11.7,2.6
				c4-0.1,7.3-1.1,9.9-2.9c2.1,1.1,4.5,1.7,7.1,1.6l8.6-0.3c7.9-0.3,13.8-6.7,13.5-14.5c-0.1-3.4-0.4-8-0.8-13.4
				c-0.4-5-0.7-9.4-0.8-12.4c-0.1-3-0.2-7.6-0.2-13.2c0-6.2-0.1-10.9-0.2-13.9c-0.3-7.8-6.7-13.7-14.5-13.5c-0.4,0-0.9,0-1.5,0
				l-1.8,0c-2.1,0-3.6,0-4.7,0c-6,0.2-10.9,4-13.1,10.2c-0.1,0.2-0.1,0.4-0.2,0.6c-1.5,4.3-2.8,8.3-4.1,12c-2-4.1-4.1-8.4-6.4-13
				c-3.9-8-10-9-13.4-8.9c-2.3,0.1-5.3,0.4-9.6,1.2C320.6,28.6,315.7,34.6,315.9,41.7z"/>
			<path class="st26" d="M312.2,37.3c0.1,3.3,0.5,8.1,0.9,14.2c0.5,5.6,0.8,10,0.9,12.9c0.1,2.7,0.1,7,0,12.5
				c0,5.8-0.1,10.4,0.1,13.6c0.3,7.7,6.6,13.6,14.5,13.3l8.3-0.3c2.9-0.1,5.5-1,7.6-2.6c4.3,2.9,9.4,2.7,11.7,2.6
				c4-0.1,7.3-1.1,9.9-2.9c2.1,1.1,4.5,1.7,7.1,1.6l8.6-0.3c7.9-0.3,13.8-6.7,13.5-14.5c-0.1-3.4-0.4-8-0.8-13.4
				c-0.4-5-0.7-9.4-0.8-12.4c-0.1-3-0.2-7.6-0.2-13.2c0-6.2-0.1-10.9-0.2-13.9c-0.3-7.8-6.7-13.7-14.5-13.5c-0.4,0-0.9,0-1.5,0
				l-1.8,0c-2.1,0-3.6,0-4.7,0c-6,0.2-10.9,4-13.1,10.2c-0.1,0.2-0.1,0.4-0.2,0.6c-1.5,4.3-2.8,8.3-4.1,12c-2-4.1-4.1-8.4-6.4-13
				c-3.9-8-10-9-13.4-8.9c-2.3,0.1-5.3,0.4-9.6,1.2C316.9,24.2,312,30.2,312.2,37.3z"/>
			<path class="st16" d="M388.4,76.5c-0.4-5.7-0.7-9.9-0.8-12.7c-0.1-2.9-0.2-7.5-0.2-13.5c0-6-0.1-10.6-0.2-13.7
				c-0.1-3.3-2.7-5.7-6-5.6c-0.8,0-2.1,0-3.8,0c-1.9,0-3.3,0-4.3,0c-1.5,0.1-4.2,0.7-5.7,4.8l0,0c-4.3,12.8-7.9,23.3-10.8,31.3
				c-4.3-9.3-9.4-19.7-15-30.9c-0.6-1.2-2.1-4.4-5.7-4.3c-2,0.1-4.9,0.4-8.6,1.1c-3,0.5-5,2.9-4.9,5.8c0.1,3.1,0.4,7.7,0.9,13.7
				c0.5,5.9,0.8,10.4,0.9,13.3c0.1,2.8,0.1,7.1,0,12.8c0,5.8,0,10.3,0.1,13.3c0.1,3.2,2.7,5.5,6,5.4c0.6,0,7.7-0.3,8.3-0.3
				c2.9-0.1,5.7-2.3,5.6-6.4c-0.1-2.2-0.2-5.1-0.4-8.7c0.5,1.1,1,2.1,1.4,3l0,0c1.8,3.7,3.2,6.6,4.1,8.7l0.1,0.3l0.2,0.3
				c1.8,2.7,5.1,2.9,8.4,2.7c1.9-0.1,5.4-0.2,6.9-3.3l0.1-0.2l0.1-0.2c1.4-3.6,2.5-6.7,3.2-9.2c0.1-0.4,0.3-0.7,0.4-1.1
				c0,2.7,0.1,5,0.1,6.8c0.1,4,3.1,6,6,5.9c0.6,0,8-0.3,8.6-0.3c3.3-0.1,5.7-2.7,5.6-6.1C389.1,86.7,388.9,82.4,388.4,76.5z"/>
			<path class="st1" d="M385.4,73.7c-0.4-5.7-0.7-9.9-0.8-12.7c-0.1-2.9-0.2-7.5-0.2-13.5c0-6-0.1-10.6-0.2-13.7
				c-0.1-3.3-2.7-5.7-6-5.6c-0.8,0-2.1,0-3.8,0c-1.9,0-3.3,0-4.3,0c-1.5,0.1-4.2,0.7-5.7,4.8l0,0c-4.3,12.8-7.9,23.3-10.8,31.3
				c-4.3-9.3-9.4-19.7-15-30.9c-0.6-1.2-2.1-4.4-5.7-4.3c-2,0.1-4.9,0.4-8.6,1.1c-3,0.5-5,2.9-4.9,5.8c0.1,3.1,0.4,7.7,0.9,13.7
				c0.5,5.9,0.8,10.4,0.9,13.3c0.1,2.8,0.1,7.1,0,12.8c0,5.8,0,10.3,0.1,13.3c0.1,3.2,2.7,5.5,6,5.4c0.6,0,7.7-0.3,8.3-0.3
				c2.9-0.1,5.7-2.3,5.6-6.4c-0.1-2.2-0.2-5.1-0.4-8.7c0.5,1.1,1,2.1,1.4,3l0,0c1.8,3.7,3.2,6.6,4.1,8.7l0.1,0.3l0.2,0.3
				c1.8,2.7,5.1,2.9,8.4,2.8c1.9-0.1,5.4-0.2,6.9-3.3l0.1-0.2l0.1-0.2c1.4-3.6,2.5-6.7,3.2-9.2c0.1-0.4,0.3-0.7,0.4-1.1
				c0,2.7,0.1,5,0.1,6.8c0.1,4,3.1,6,6,5.9c0.6,0,8-0.3,8.6-0.3c3.3-0.1,5.7-2.7,5.6-6.1C386.1,83.8,385.9,79.5,385.4,73.7z"/>
			
				<linearGradient id="SVGID_5_" gradientUnits="userSpaceOnUse" x1="374.1194" y1="98.8391" x2="332.0775" y2="26.0204" gradientTransform="matrix(0.9994 -3.578839e-002 3.578839e-002 0.9994 -1.3424 12.6376)">
				<stop  offset="0" style="stop-color:#FFFFFF"/>
				<stop  offset="0.4008" style="stop-color:#FBFBFB"/>
				<stop  offset="0.7974" style="stop-color:#EFF0F0"/>
				<stop  offset="1" style="stop-color:#E6E7E8"/>
			</linearGradient>
			<path class="st28" d="M386.3,74.5c-0.4-5.7-0.7-9.9-0.8-12.7c-0.1-2.9-0.2-7.5-0.2-13.5c0-6-0.1-10.6-0.2-13.7
				c-0.1-3.3-2.7-5.7-6-5.6c-0.8,0-2.1,0-3.8,0c-1.9,0-3.3,0-4.3,0c-1.5,0.1-4.2,0.7-5.7,4.8l0,0c-4.3,12.8-7.9,23.3-10.8,31.3
				c-4.3-9.3-9.4-19.7-15-30.9c-0.6-1.2-2.1-4.4-5.7-4.3c-2,0.1-4.9,0.4-8.6,1.1c-3,0.5-5,2.9-4.9,5.8c0.1,3.1,0.4,7.7,0.9,13.7
				c0.5,5.9,0.8,10.4,0.9,13.3c0.1,2.8,0.1,7.1,0,12.8c0,5.8,0,10.3,0.1,13.3c0.1,3.2,2.7,5.5,6,5.4c0.6,0,7.7-0.3,8.3-0.3
				c2.9-0.1,5.7-2.3,5.6-6.4c-0.1-2.2-0.2-5.1-0.4-8.7c0.5,1.1,1,2.1,1.4,3l0,0c1.8,3.7,3.2,6.6,4.1,8.7l0.1,0.3l0.2,0.3
				c1.8,2.7,5.1,2.9,8.4,2.7c1.9-0.1,5.4-0.2,6.9-3.3l0.1-0.2l0.1-0.2c1.4-3.6,2.5-6.7,3.2-9.2c0.1-0.4,0.3-0.7,0.4-1.1
				c0,2.7,0.1,5,0.1,6.8c0.1,4,3.1,6,6,5.9c0.6,0,8-0.3,8.6-0.3c3.3-0.1,5.7-2.7,5.6-6.1C387,84.7,386.8,80.4,386.3,74.5z"/>
		</g>
	</g>
	<g>
		<path class="st13" d="M280.2,224.2c6.2,0,12-1.1,17.3-3.3c1.8,0.7,3.6,1.1,5.6,1.1c4.1,0,7.9-1.7,10.5-4.6
			c2.5-2.8,3.8-6.6,3.4-10.3l0-0.6c-0.5-6.4-0.7-11.1-0.7-14.3c0-0.8,0-2,0.1-3.7c0.1-2,0.1-3.5,0.1-4.5c0-4.3-1.7-8.1-4.5-10.7
			c1.4-2.1,2.4-4.6,2.4-7.7c0-2.9-0.9-5.7-2.7-8.4c-3.4-5.1-8.1-9.2-13.9-12.2c-5.6-2.8-11.5-4.2-17.5-4.2c-11.7,0-21.7,4.6-29,13.2
			c-6.7,7.8-10.1,17.5-10.1,28.6c0,11,3.4,20.5,10.2,28.4C258.7,219.6,268.7,224.2,280.2,224.2z M279.9,189c-0.3-0.1-0.6-0.4-1.1-1
			c-1.2-1.6-1.7-3.2-1.7-5.3c0-2.3,0.5-3.9,1.7-5.5c0.8-1.1,1.1-1.1,1.7-1.1c0,0,0.1,0,0.2,0.1c0.2,0.1,0.4,0.3,0.7,0.5
			c-1.1,1.9-1.7,4.2-1.7,6.6C279.7,185,279.7,186.9,279.9,189z"/>
		<path class="st18" d="M326.9,211.1c0,0,0.1,0,0.2,0l8.5,1.1c4.4,0.6,8.7-1,11.8-4.5c0.8-1,1.6-2,2.3-3.3c0.4-0.6,0.7-1.4,1.1-2.1
			l4.2,0.5c0.2,1.1,0.5,2.1,0.8,3c1.9,5.9,6.1,9.7,11.6,10.5c0.1,0,0.2,0,0.3,0c0.5,0.1,3.6,0.4,5.9,0.7l2.6,0.3
			c7.7,1,14.4-4.1,15.4-11.5c0.3-2.5,0-4-0.7-6.7c-0.3-1.4-0.8-3.4-1.5-6c-1.3-5.2-3.2-13-5.8-23.2c-2.5-10-5.6-22.3-6.2-24.5
			c0-0.1-0.1-0.3-0.1-0.3c-2.5-8.1-8.2-10-11.4-10.5c-0.7-0.1-7.4-0.9-8.5-1c-4.7-0.6-10.8,1.3-14.3,8.3c-1.8,3.5-2.8,5.3-3.4,6.2
			c-0.1,0.1-0.1,0.2-0.2,0.3c-5.5,9.8-8.5,15.1-9.5,17.1L317.3,190c-0.9,1.7-1.8,3.6-2.2,6.1C314.2,203.5,319.3,210.1,326.9,211.1z"
			/>
		<g>
			<path class="st29" d="M268.5,212.8c6.2,0,12-1.1,17.3-3.3c1.8,0.7,3.6,1.1,5.6,1.1c4.1,0,7.9-1.7,10.5-4.6
				c2.5-2.8,3.8-6.6,3.4-10.3l0-0.6c-0.5-6.4-0.7-11.1-0.7-14.3c0-0.8,0-2,0.1-3.7c0.1-2,0.1-3.5,0.1-4.5c0-4.3-1.7-8.1-4.5-10.7
				c1.4-2.1,2.4-4.6,2.4-7.7c0-2.9-0.9-5.7-2.7-8.4c-3.4-5.1-8.1-9.2-13.9-12.2c-5.6-2.8-11.5-4.2-17.5-4.2
				c-11.7,0-21.7,4.6-29,13.2c-6.7,7.8-10.1,17.5-10.1,28.6c0,11,3.4,20.5,10.2,28.4C247,208.3,257,212.8,268.5,212.8z M268.2,177.6
				c-0.3-0.1-0.6-0.4-1.1-1c-1.2-1.6-1.7-3.2-1.7-5.3c0-2.3,0.5-3.9,1.7-5.5c0.8-1.1,1.1-1.1,1.7-1.1c0,0,0.1,0,0.2,0.1
				c0.2,0.1,0.4,0.3,0.7,0.5c-1.1,1.9-1.7,4.2-1.7,6.6C267.9,173.6,268,175.5,268.2,177.6z"/>
			<path class="st30" d="M264.9,208.3c6.2,0,12-1.1,17.3-3.3c1.8,0.7,3.6,1.1,5.6,1.1c4.1,0,7.9-1.7,10.5-4.6
				c2.5-2.8,3.8-6.6,3.4-10.3l0-0.6c-0.5-6.4-0.7-11.1-0.7-14.3c0-0.8,0-2,0.1-3.7c0.1-2,0.1-3.5,0.1-4.5c0-4.3-1.7-8.1-4.5-10.7
				c1.4-2.1,2.4-4.6,2.4-7.7c0-2.9-0.9-5.7-2.7-8.4c-3.4-5.1-8.1-9.2-13.9-12.2c-5.6-2.8-11.5-4.2-17.5-4.2
				c-11.7,0-21.7,4.6-29,13.2c-6.7,7.8-10.1,17.5-10.1,28.6c0,11,3.4,20.5,10.2,28.4C243.5,203.7,253.5,208.3,264.9,208.3z
				 M264.7,173.1c-0.3-0.1-0.6-0.4-1.1-1c-1.2-1.6-1.7-3.2-1.7-5.3c0-2.3,0.5-3.9,1.7-5.5c0.8-1.1,1.1-1.1,1.7-1.1
				c0,0,0.1,0,0.2,0.1c0.2,0.1,0.4,0.3,0.7,0.5c-1.1,1.9-1.7,4.2-1.7,6.6C264.4,169.1,264.5,171,264.7,173.1z"/>
			<path class="st16" d="M295.6,193.9l0-0.6c-0.5-6.3-0.7-11.3-0.7-14.9c0-0.9,0-2.2,0.1-4c0.1-1.9,0.1-3.3,0.1-4.3
				c0-4-2.8-6.1-5.6-6.1c-0.6,0-1.4,0-2.5,0.1c-1.1,0.1-1.8,0.1-2,0.1c-0.2,0-0.8,0-1.9-0.1c-1.2-0.1-2-0.1-2.6-0.1
				c-3.2,0-5.7,2.4-5.7,5.5c0,2.1,0.2,4.7,0.5,7.9c0.2,1.8,0.3,3.2,0.4,4.3c-2.5,1.2-5.2,1.7-8.1,1.7c-3.3,0-6-1.3-8.3-4.3
				c-2.3-3-3.4-6.4-3.4-10.3c0-4.1,1.1-7.5,3.3-10.4c2.2-2.9,4.9-4.3,8.3-4.3c1.6,0,3.2,0.5,4.7,1.6c1.2,0.8,2.5,2,3.8,3.6
				c2.1,2.4,3.5,4,6.1,4c2.5,0,3.9-1.5,6.8-4.7c2.8-3.1,4-4.7,4-6.9c0-1.7-0.8-3-1.3-3.8c-2.7-4-6.3-7.1-10.7-9.4
				c-4.4-2.2-9.1-3.4-13.8-3.4c-9.3,0-17,3.5-22.8,10.3c-5.4,6.3-8.1,14.2-8.1,23.3c0,9,2.8,16.7,8.2,23
				c5.9,6.9,13.6,10.3,22.6,10.3c6.4,0,12.2-1.4,17.2-4.1c0.2,0.1,0.4,0.2,0.7,0.3c2.4,1.2,3.7,1.7,5,1.7c2.4,0,3.8-1.2,4.4-1.8
				C295.2,197,295.7,195.5,295.6,193.9z"/>
			<path class="st1" d="M292.7,191l0-0.6c-0.5-6.3-0.7-11.3-0.7-14.9c0-0.9,0-2.2,0.1-4c0.1-1.9,0.1-3.3,0.1-4.3
				c0-4-2.8-6.1-5.6-6.1c-0.6,0-1.4,0-2.5,0.1c-1.1,0.1-1.8,0.1-2,0.1c-0.2,0-0.8,0-1.9-0.1c-1.2-0.1-2-0.1-2.6-0.1
				c-3.2,0-5.7,2.4-5.7,5.5c0,2.1,0.2,4.7,0.5,7.9c0.2,1.8,0.3,3.2,0.4,4.3c-2.5,1.2-5.2,1.7-8.1,1.7c-3.3,0-6-1.3-8.3-4.3
				c-2.3-3-3.4-6.4-3.4-10.3c0-4.1,1.1-7.5,3.3-10.4c2.2-2.9,4.9-4.3,8.3-4.3c1.6,0,3.2,0.5,4.7,1.6c1.2,0.8,2.5,2,3.8,3.6
				c2.1,2.4,3.5,4,6,4c2.5,0,3.9-1.5,6.8-4.7c2.8-3.1,4-4.7,4-6.9c0-1.7-0.8-3-1.3-3.8c-2.7-4-6.3-7.1-10.7-9.4
				c-4.4-2.2-9.1-3.4-13.8-3.4c-9.3,0-17,3.5-22.8,10.3c-5.4,6.3-8.1,14.2-8.1,23.3c0,9,2.8,16.7,8.2,23
				c5.9,6.9,13.6,10.3,22.6,10.3c6.4,0,12.2-1.4,17.2-4.1c0.2,0.1,0.4,0.2,0.7,0.3c2.4,1.2,3.7,1.7,5,1.7c2.4,0,3.8-1.2,4.4-1.8
				C292.3,194,292.8,192.5,292.7,191z"/>
			<linearGradient id="SVGID_6_" gradientUnits="userSpaceOnUse" x1="284.5491" y1="200.7463" x2="248.2396" y2="137.8564">
				<stop  offset="0" style="stop-color:#FFFFFF"/>
				<stop  offset="0.4008" style="stop-color:#FBFBFB"/>
				<stop  offset="0.7974" style="stop-color:#EFF0F0"/>
				<stop  offset="1" style="stop-color:#E6E7E8"/>
			</linearGradient>
			<path class="st31" d="M293.5,191.8l0-0.6c-0.5-6.3-0.7-11.3-0.7-14.9c0-0.9,0-2.2,0.1-4c0.1-1.9,0.1-3.3,0.1-4.3
				c0-4-2.8-6.1-5.6-6.1c-0.6,0-1.4,0-2.5,0.1c-1.1,0.1-1.8,0.1-2,0.1c-0.2,0-0.8,0-1.9-0.1c-1.2-0.1-2-0.1-2.6-0.1
				c-3.2,0-5.7,2.4-5.7,5.5c0,2.1,0.2,4.7,0.5,7.9c0.2,1.8,0.3,3.2,0.4,4.3c-2.5,1.2-5.2,1.7-8.1,1.7c-3.3,0-6-1.3-8.3-4.3
				c-2.3-3-3.4-6.4-3.4-10.3c0-4.1,1.1-7.5,3.3-10.4c2.2-2.9,4.9-4.3,8.3-4.3c1.6,0,3.2,0.5,4.7,1.6c1.2,0.8,2.5,2,3.8,3.6
				c2.1,2.4,3.5,4,6.1,4c2.5,0,3.9-1.5,6.8-4.7c2.8-3.1,4-4.7,4-6.9c0-1.7-0.8-3-1.3-3.8c-2.7-4-6.3-7.1-10.7-9.4
				c-4.4-2.2-9.1-3.4-13.8-3.4c-9.3,0-17,3.5-22.8,10.3c-5.4,6.3-8.1,14.2-8.1,23.3c0,9,2.8,16.7,8.2,23
				c5.9,6.9,13.6,10.3,22.6,10.3c6.4,0,12.2-1.4,17.2-4.1c0.2,0.1,0.4,0.2,0.7,0.3c2.4,1.2,3.7,1.7,5,1.7c2.4,0,3.8-1.2,4.4-1.8
				C293.2,194.9,293.7,193.4,293.5,191.8z"/>
		</g>
		<g>
			<path class="st19" d="M322.2,204.6c0,0,0.1,0,0.2,0l8.5,1.1c4.4,0.6,8.7-1,11.8-4.5c0.8-1,1.6-2,2.3-3.3c0.4-0.6,0.7-1.3,1.1-2.1
				l4.2,0.5c0.2,1.1,0.5,2.1,0.8,3c1.9,5.9,6.1,9.7,11.6,10.5c0.1,0,0.2,0,0.3,0c0.5,0.1,3.6,0.4,5.9,0.7l2.6,0.3
				c7.7,1,14.4-4.1,15.4-11.5c0.3-2.5,0-4-0.7-6.7c-0.3-1.4-0.8-3.4-1.5-6c-1.3-5.2-3.2-13-5.8-23.2c-2.5-10-5.6-22.3-6.2-24.5
				c0-0.1-0.1-0.3-0.1-0.3c-2.5-8.1-8.2-10-11.4-10.5c-0.7-0.1-7.4-0.9-8.5-1c-4.7-0.6-10.8,1.3-14.3,8.3c-1.8,3.5-2.8,5.3-3.4,6.2
				c-0.1,0.1-0.1,0.2-0.2,0.3c-5.5,9.8-8.5,15.1-9.5,17.1l-12.5,24.2c-0.9,1.7-1.8,3.6-2.2,6.1C309.4,196.9,314.6,203.5,322.2,204.6
				z"/>
			<path class="st20" d="M319.3,199.6c0,0,0.1,0,0.2,0l8.5,1.1c4.4,0.6,8.7-1,11.8-4.5c0.8-1,1.6-2,2.3-3.3c0.4-0.6,0.7-1.3,1.1-2.1
				l4.2,0.5c0.2,1.1,0.5,2.1,0.8,3c1.9,5.9,6.1,9.7,11.6,10.5c0.1,0,0.2,0,0.3,0c0.5,0.1,3.6,0.4,5.9,0.7l2.6,0.3
				c7.7,1,14.4-4.1,15.4-11.5c0.3-2.5,0-4-0.7-6.7c-0.3-1.4-0.8-3.4-1.5-6c-1.3-5.2-3.2-13-5.8-23.2c-2.5-10-5.6-22.3-6.2-24.5
				c0-0.1-0.1-0.3-0.1-0.3c-2.5-8.1-8.2-10-11.4-10.5c-0.7-0.1-7.4-0.9-8.5-1c-4.7-0.6-10.8,1.3-14.3,8.3c-1.8,3.5-2.8,5.3-3.4,6.2
				c-0.1,0.1-0.1,0.2-0.2,0.3c-5.5,9.8-8.5,15.1-9.5,17.1l-12.5,24.2c-0.9,1.7-1.8,3.6-2.2,6.1C306.6,192,311.7,198.6,319.3,199.6z"
				/>
			<path class="st16" d="M348.8,167.4c-0.2,0-0.4-0.1-0.6-0.1c0.7-1.3,1.6-2.9,2.7-5.2c0.1,0.1,0.1,0.3,0.1,0.4c0.6,2.2,1,4,1.3,5.3
				L348.8,167.4z M376.9,191.9c-0.3-1.3-0.8-3.3-1.4-5.9c-1.3-5.2-3.2-12.9-5.8-23.1c-3.7-14.8-5.7-22.7-6.1-24.3l0,0
				c-0.4-1.1-1.3-4.5-4.7-4.9c-0.7-0.1-7.7-1-8.4-1c-1.4-0.2-4.1,0.1-6,3.9c-1.6,3-2.8,5.2-3.7,6.7l0,0.1c-5.3,9.4-8.4,15-9.5,17
				l-12.6,24.3c-0.8,1.5-1.2,2.4-1.3,3.3c-0.4,3,1.7,5.5,4.8,5.9l8.6,1.1c1,0.1,2.9,0.1,4.6-1.8c0.4-0.5,0.9-1.1,1.3-1.9
				c0.6-1.1,1.3-2.6,2.2-4.7c0.4-1.1,0.8-1.8,1.1-2.4c1,0.1,2.5,0.3,4.8,0.6l6,0.8c2.6,0.3,4.3,0.5,5.4,0.7c0.1,0.6,0.3,1.4,0.5,2.6
				c0.3,2.3,0.7,4,1.1,5.3c0.9,2.9,2.6,4.5,4.9,4.8c0.6,0.1,8,1,8.6,1.1c3.7,0.5,5.9-1.9,6.2-4.4
				C377.6,194.7,377.5,194.3,376.9,191.9z"/>
			<path class="st1" d="M346.7,164.4c-0.2,0-0.4-0.1-0.6-0.1c0.7-1.3,1.6-2.9,2.7-5.2c0.1,0.1,0.1,0.3,0.1,0.4c0.5,2.2,1,4,1.3,5.3
				L346.7,164.4z M374.8,188.8c-0.3-1.3-0.8-3.3-1.4-5.9c-1.3-5.2-3.2-12.9-5.8-23.1c-3.7-14.8-5.7-22.7-6.1-24.3l0,0
				c-0.4-1.1-1.3-4.5-4.7-4.9c-0.7-0.1-7.7-1-8.4-1c-1.4-0.2-4.1,0.1-6,3.9c-1.6,3-2.8,5.2-3.7,6.7l0,0.1c-5.3,9.4-8.4,15-9.5,17
				l-12.6,24.3c-0.8,1.5-1.2,2.4-1.3,3.3c-0.4,3,1.7,5.5,4.8,5.9l8.6,1.1c1,0.1,2.9,0.1,4.6-1.8c0.4-0.5,0.9-1.1,1.3-1.9
				c0.6-1.1,1.3-2.6,2.2-4.7c0.4-1.1,0.8-1.8,1.1-2.4c1,0.1,2.5,0.3,4.8,0.6l6,0.8c2.6,0.3,4.3,0.5,5.4,0.7c0.1,0.6,0.3,1.4,0.5,2.6
				c0.3,2.3,0.7,4,1.1,5.3c0.9,2.9,2.6,4.5,4.9,4.8c0.6,0.1,8,1,8.6,1.1c3.7,0.5,5.9-1.9,6.2-4.4
				C375.5,191.6,375.4,191.3,374.8,188.8z"/>
			
				<linearGradient id="SVGID_7_" gradientUnits="userSpaceOnUse" x1="361.8848" y1="204.7388" x2="325.9994" y2="142.5835" gradientTransform="matrix(0.9909 0.135 -0.135 0.9909 25.1025 -47.551)">
				<stop  offset="0" style="stop-color:#FFFFFF"/>
				<stop  offset="0.4008" style="stop-color:#FBFBFB"/>
				<stop  offset="0.7974" style="stop-color:#EFF0F0"/>
				<stop  offset="1" style="stop-color:#E6E7E8"/>
			</linearGradient>
			<path class="st32" d="M347,165.1c-0.2,0-0.4-0.1-0.6-0.1c0.7-1.3,1.6-2.9,2.7-5.2c0.1,0.1,0.1,0.3,0.1,0.4c0.5,2.2,1,4,1.3,5.3
				L347,165.1z M375.1,189.6c-0.3-1.3-0.8-3.3-1.4-5.9c-1.3-5.2-3.2-12.9-5.8-23.1c-3.7-14.8-5.7-22.7-6.1-24.3l0,0
				c-0.4-1.1-1.3-4.5-4.7-4.9c-0.7-0.1-7.7-1-8.4-1c-1.4-0.2-4.1,0.1-6,3.9c-1.6,3-2.8,5.2-3.7,6.7l0,0.1c-5.3,9.4-8.4,15-9.5,17
				l-12.6,24.3c-0.8,1.5-1.2,2.4-1.3,3.3c-0.4,3,1.7,5.5,4.8,5.9l8.6,1.1c1,0.1,2.9,0.1,4.6-1.8c0.4-0.5,0.9-1.1,1.3-1.9
				c0.6-1.1,1.3-2.6,2.2-4.7c0.4-1.1,0.8-1.8,1.1-2.4c1,0.1,2.5,0.3,4.8,0.6l6,0.8c2.6,0.3,4.3,0.5,5.4,0.7c0.1,0.6,0.3,1.4,0.5,2.6
				c0.3,2.3,0.7,4,1.1,5.3c0.9,2.9,2.6,4.5,4.9,4.8c0.6,0.1,8,1,8.6,1.1c3.7,0.5,5.9-1.9,6.2-4.4C375.9,192.4,375.8,192,375.1,189.6
				z"/>
		</g>
		<path class="st12" d="M397,148.8c0,3.3,0.2,8.1,0.4,14.2c0.3,5.6,0.4,10.1,0.4,12.9c0,2.7-0.2,7-0.4,12.5
			c-0.2,5.8-0.4,10.4-0.4,13.6c0,7.8,6.2,13.8,14,13.8h8.3c2.9,0,5.5-0.8,7.7-2.3c4.2,3,9.3,3,11.6,3c4.1,0,7.4-0.9,10-2.6
			c2.1,1.2,4.4,1.9,7,1.9h8.6c7.9,0,14-6.2,14-14.1c0-3.4-0.1-8-0.3-13.4c-0.2-5-0.3-9.4-0.3-12.4c0-3,0.1-7.6,0.3-13.2
			c0.2-6.2,0.3-10.9,0.3-13.9c0-7.8-6.2-14-14-14c-0.4,0-0.9,0-1.5-0.1l-1.8-0.1c-2.1-0.1-3.6-0.2-4.7-0.2c-6,0-11,3.6-13.5,9.7
			c-0.1,0.2-0.1,0.4-0.2,0.6c-1.6,4.3-3.1,8.2-4.5,11.9c-1.8-4.2-3.8-8.5-5.9-13.2c-3.6-8.2-9.7-9.4-13-9.4c-2.3,0-5.3,0.3-9.7,0.8
			C402.2,135.9,397,141.7,397,148.8z"/>
		<g>
			<path class="st25" d="M393.1,145.5c0,3.3,0.2,8.1,0.4,14.2c0.3,5.6,0.4,10.1,0.4,12.9c0,2.7-0.2,7-0.4,12.5
				c-0.2,5.8-0.4,10.4-0.4,13.6c0,7.8,6.2,13.8,14,13.8h8.3c2.9,0,5.5-0.8,7.7-2.3c4.2,3,9.3,3,11.6,3c4.1,0,7.4-0.9,10-2.6
				c2.1,1.2,4.4,1.9,7,1.9h8.6c7.9,0,14-6.2,14-14.1c0-3.4-0.1-8-0.3-13.4c-0.2-5-0.3-9.4-0.3-12.4c0-3,0.1-7.6,0.3-13.2
				c0.2-6.2,0.3-10.9,0.3-13.9c0-7.8-6.2-14-14-14c-0.4,0-0.9,0-1.5-0.1l-1.8-0.1c-2.1-0.1-3.6-0.2-4.7-0.2c-6,0-11,3.6-13.5,9.7
				c-0.1,0.2-0.1,0.4-0.2,0.6c-1.6,4.3-3.1,8.2-4.5,11.9c-1.8-4.2-3.8-8.5-5.9-13.2c-3.6-8.2-9.7-9.4-13-9.4c-2.3,0-5.3,0.3-9.7,0.8
				C398.2,132.6,393.1,138.4,393.1,145.5z"/>
			<path class="st26" d="M389.5,141c0,3.3,0.2,8.1,0.4,14.2c0.3,5.6,0.4,10.1,0.4,12.9c0,2.7-0.2,7-0.4,12.5
				c-0.2,5.8-0.4,10.4-0.4,13.6c0,7.8,6.2,13.8,14,13.8h8.3c2.9,0,5.5-0.8,7.7-2.3c4.2,3,9.3,3,11.6,3c4.1,0,7.4-0.9,10-2.6
				c2.1,1.2,4.4,1.9,7,1.9h8.6c7.9,0,14-6.2,14-14.1c0-3.4-0.1-8-0.3-13.4c-0.2-5-0.3-9.4-0.3-12.4c0-3,0.1-7.6,0.3-13.2
				c0.2-6.2,0.3-10.9,0.3-13.9c0-7.8-6.2-14-14-14c-0.4,0-0.9,0-1.5-0.1l-1.8-0.1c-2.1-0.1-3.6-0.2-4.7-0.2c-6,0-11,3.6-13.5,9.7
				c-0.1,0.2-0.1,0.4-0.2,0.6c-1.6,4.3-3.1,8.2-4.5,11.9c-1.8-4.2-3.8-8.5-5.9-13.2c-3.6-8.2-9.7-9.4-13-9.4c-2.3,0-5.3,0.3-9.7,0.8
				C394.7,128.1,389.5,133.9,389.5,141z"/>
			<path class="st16" d="M464.3,182.9c-0.2-5.7-0.3-9.9-0.3-12.7c0-2.9,0.1-7.5,0.3-13.5c0.2-6,0.3-10.6,0.3-13.7
				c0-3.3-2.5-5.8-5.8-5.8c-0.8,0-2.1-0.1-3.8-0.1c-1.9-0.1-3.3-0.1-4.3-0.1c-1.5,0-4.3,0.6-5.8,4.6v0c-4.7,12.6-8.7,23-11.9,30.9
				c-4-9.5-8.7-20-13.8-31.4c-0.6-1.3-2-4.5-5.5-4.5c-2,0-4.9,0.3-8.6,0.8c-3,0.4-5.1,2.7-5.1,5.6c0,3.1,0.2,7.7,0.4,13.8
				c0.3,5.9,0.5,10.4,0.5,13.4c0,2.8-0.1,7.1-0.5,12.8c-0.2,5.8-0.4,10.3-0.4,13.3c0,3.2,2.5,5.6,5.8,5.6c0.6,0,7.7,0,8.3,0
				c2.9,0,5.8-2.1,5.8-6.2c0-2.2,0-5.1-0.1-8.7c0.5,1.1,0.9,2.1,1.3,3.1v0c1.6,3.8,2.9,6.7,3.8,8.9l0.1,0.3l0.1,0.3
				c1.7,2.8,5,3,8.2,3c1.9,0,5.4,0,7-3l0.1-0.2l0.1-0.2c1.5-3.6,2.7-6.6,3.6-9.1c0.2-0.4,0.3-0.7,0.5-1.1c-0.1,2.7-0.1,5-0.1,6.8
				c0,4,2.9,6.2,5.8,6.2c0.6,0,8,0,8.6,0c3.3,0,5.8-2.5,5.8-5.8C464.6,193.1,464.6,188.8,464.3,182.9z"/>
			<path class="st1" d="M461.4,180c-0.2-5.7-0.3-9.9-0.3-12.7c0-2.9,0.1-7.5,0.3-13.5c0.2-6,0.3-10.6,0.3-13.7
				c0-3.3-2.5-5.8-5.8-5.8c-0.8,0-2.1-0.1-3.8-0.1c-1.9-0.1-3.3-0.1-4.3-0.1c-1.5,0-4.3,0.6-5.8,4.6v0c-4.7,12.6-8.7,23-11.9,30.9
				c-4-9.5-8.7-20-13.8-31.4c-0.6-1.3-2-4.5-5.5-4.5c-2,0-4.9,0.3-8.6,0.8c-3,0.4-5.1,2.7-5.1,5.6c0,3.1,0.2,7.7,0.4,13.8
				c0.3,5.9,0.5,10.4,0.5,13.4c0,2.8-0.1,7.1-0.5,12.8c-0.2,5.8-0.4,10.3-0.4,13.3c0,3.2,2.5,5.6,5.8,5.6c0.6,0,7.7,0,8.3,0
				c2.9,0,5.8-2.1,5.8-6.2c0-2.2,0-5.1-0.1-8.7c0.5,1.1,0.9,2.1,1.3,3.1v0c1.6,3.8,2.9,6.7,3.8,8.9l0.1,0.3l0.1,0.3
				c1.7,2.8,5,3,8.2,3c1.9,0,5.4,0,7-3l0.1-0.2l0.1-0.2c1.5-3.6,2.7-6.6,3.6-9.1c0.2-0.4,0.3-0.7,0.5-1.1c-0.1,2.7-0.1,5-0.1,6.8
				c0,4,2.9,6.2,5.8,6.2c0.6,0,8,0,8.6,0c3.3,0,5.8-2.5,5.8-5.8C461.7,190.1,461.6,185.9,461.4,180z"/>
			<linearGradient id="SVGID_8_" gradientUnits="userSpaceOnUse" x1="451.1712" y1="203.9876" x2="409.1294" y2="131.1689">
				<stop  offset="0" style="stop-color:#FFFFFF"/>
				<stop  offset="0.4008" style="stop-color:#FBFBFB"/>
				<stop  offset="0.7974" style="stop-color:#EFF0F0"/>
				<stop  offset="1" style="stop-color:#E6E7E8"/>
			</linearGradient>
			<path class="st33" d="M462.3,180.9c-0.2-5.7-0.3-9.9-0.3-12.7c0-2.9,0.1-7.5,0.3-13.5c0.2-6,0.3-10.6,0.3-13.7
				c0-3.3-2.5-5.8-5.8-5.8c-0.8,0-2.1-0.1-3.8-0.1c-1.9-0.1-3.3-0.1-4.3-0.1c-1.5,0-4.3,0.6-5.8,4.6v0c-4.7,12.6-8.7,23-11.9,30.9
				c-4-9.5-8.7-20-13.8-31.4c-0.6-1.3-2-4.5-5.5-4.5c-2,0-4.9,0.3-8.6,0.8c-3,0.4-5.1,2.7-5.1,5.6c0,3.1,0.2,7.7,0.4,13.8
				c0.3,5.9,0.5,10.4,0.5,13.4c0,2.8-0.1,7.1-0.5,12.8c-0.2,5.8-0.4,10.3-0.4,13.3c0,3.2,2.5,5.6,5.8,5.6c0.6,0,7.7,0,8.3,0
				c2.9,0,5.8-2.1,5.8-6.2c0-2.2,0-5.1-0.1-8.7c0.5,1.1,0.9,2.1,1.3,3.1v0c1.6,3.8,2.9,6.7,3.8,8.9l0.1,0.3l0.1,0.3
				c1.7,2.8,5,3,8.2,3c1.9,0,5.4,0,7-3l0.1-0.2l0.1-0.2c1.5-3.6,2.7-6.6,3.6-9.1c0.2-0.4,0.3-0.7,0.5-1.1c-0.1,2.7-0.1,5-0.1,6.8
				c0,4,2.9,6.2,5.8,6.2c0.6,0,8,0,8.6,0c3.3,0,5.8-2.5,5.8-5.8C462.6,191,462.5,186.7,462.3,180.9z"/>
		</g>
		<path class="st18" d="M476.4,199.8c-1,7.9,4.4,14.9,12.4,15.9c2,0.3,5,0.6,8.9,1c3.7,0.4,6.5,0.7,8.2,0.9c7.6,1,11.2,1.8,12.9,2.3
			c1.4,0.4,2.4,0.6,3.3,0.7c6.3,0.8,12.3-2.5,14.8-8.4c0-0.1,0.1-0.2,0.1-0.3l0.1-0.2c0.1-0.3,0.2-0.5,0.3-0.8l0-0.1
			c0.4-1.5,0.8-2.8,1.1-3.8c0.1-0.3,0.2-0.6,0.4-1c0.7-1.6,1.1-3.2,1.3-4.7c0.5-4.1-0.6-7.9-3-10.8c1.3-1.8,2.1-3.8,2.4-6.2
			c0-0.1,0.1-0.7,0.5-2.2c0-0.1,0-0.1,0.1-0.2c0.5-2.2,0.8-3.8,1-5.1c0.3-2.5,0-4.9-0.8-7c2-2.1,3.3-4.8,3.8-7.9
			c0.2-1.4,0.3-3.4,0.1-8.3c0-6-4.2-13-13.2-14.1c-1.8-0.2-4.5-0.6-8.2-0.9c-3.6-0.3-6-0.6-7.4-0.8c-1.2-0.2-3.8-0.5-7.8-1.2
			c-3.8-0.6-6.6-1-8.5-1.3c-3.9-0.5-7.7,0.5-10.7,2.9c-2.9,2.4-4.8,5.8-5.1,9.6c0,0.1,0,0.2,0,0.3l0,0.5c-0.3,3.9-0.5,7-0.7,8.7
			c0,0.1,0,0.2,0,0.3c-0.7,8-1.3,13.4-1.7,16.1c-0.4,2.7-1.1,7-2.1,12.3C477.6,192.1,476.8,196.7,476.4,199.8z"/>
		<g>
			<path class="st34" d="M471.2,192.6c-1.2,7.9,4.1,14.9,12,16.1c2,0.3,5,0.7,8.9,1.2c3.7,0.5,6.4,0.8,8.2,1.1
				c7.6,1.1,11.1,2,12.8,2.5c1.4,0.4,2.4,0.7,3.3,0.8c6.3,1,12.3-2.3,15-8.1c0-0.1,0.1-0.2,0.1-0.3l0.1-0.2c0.1-0.2,0.2-0.5,0.3-0.8
				l0-0.1c0.5-1.5,0.9-2.8,1.1-3.8c0.1-0.3,0.3-0.6,0.4-1c0.7-1.6,1.2-3.2,1.4-4.7c0.6-4.1-0.5-7.9-2.7-10.8
				c1.3-1.7,2.2-3.8,2.5-6.1c0-0.1,0.1-0.7,0.5-2.2c0-0.1,0-0.1,0.1-0.2c0.6-2.2,0.9-3.8,1.1-5.1c0.4-2.5,0.1-4.9-0.7-7
				c2-2,3.4-4.7,3.9-7.9c0.2-1.4,0.3-3.4,0.3-8.3c0.1-6-3.9-13-12.9-14.4c-1.8-0.3-4.5-0.6-8.2-1.1c-3.6-0.4-6-0.7-7.4-1
				c-1.2-0.2-3.8-0.6-7.7-1.3c-3.8-0.7-6.6-1.2-8.5-1.4c-3.9-0.6-7.7,0.4-10.7,2.7c-3,2.3-4.9,5.7-5.3,9.5c0,0.1,0,0.2,0,0.3l0,0.5
				c-0.4,3.9-0.7,7-0.9,8.7c0,0.1,0,0.2,0,0.3c-0.9,8-1.6,13.4-2,16.1c-0.4,2.7-1.2,7-2.3,12.3C472.5,184.9,471.7,189.5,471.2,192.6
				z"/>
			<path class="st35" d="M468.4,187.6c-1.2,7.9,4.1,14.9,12,16.1c2,0.3,5,0.7,8.9,1.2c3.7,0.5,6.4,0.8,8.2,1.1
				c7.6,1.1,11.1,2,12.8,2.5c1.4,0.4,2.4,0.7,3.3,0.8c6.3,1,12.3-2.3,14.9-8.1c0-0.1,0.1-0.2,0.1-0.3l0.1-0.2
				c0.1-0.3,0.2-0.5,0.3-0.8l0-0.1c0.5-1.5,0.9-2.8,1.1-3.8c0.1-0.3,0.3-0.6,0.4-1c0.7-1.6,1.2-3.2,1.4-4.7
				c0.6-4.1-0.5-7.9-2.7-10.8c1.3-1.7,2.2-3.8,2.5-6.1c0-0.1,0.1-0.7,0.5-2.2c0-0.1,0-0.1,0.1-0.2c0.6-2.2,0.9-3.8,1.1-5.1
				c0.4-2.5,0.1-4.9-0.7-7c2-2,3.4-4.7,3.9-7.9c0.2-1.4,0.3-3.4,0.3-8.3c0.1-6-3.9-13-12.9-14.4c-1.8-0.3-4.5-0.6-8.2-1.1
				c-3.6-0.4-6-0.7-7.4-1c-1.2-0.2-3.8-0.6-7.7-1.3c-3.8-0.7-6.6-1.2-8.5-1.4c-3.9-0.6-7.7,0.4-10.7,2.7c-3,2.3-4.9,5.7-5.3,9.5
				c0,0.1,0,0.2,0,0.3l0,0.5c-0.4,3.9-0.7,7-0.9,8.7c0,0.1,0,0.2,0,0.3c-0.9,8-1.6,13.4-2,16.1c-0.4,2.7-1.2,7-2.3,12.3
				C469.7,179.9,468.8,184.5,468.4,187.6z"/>
			<path class="st16" d="M521.1,185c-0.2,0-0.3,0-0.5-0.1l-0.6,0c-10.3-0.8-13.9-1.1-15-1.3l-4.3-0.6c-0.5-0.1-0.9-0.2-1.3-0.2
				c0-0.3,0.1-0.6,0.1-1.1l0.9-5.7c1.1,0.1,2.8,0.4,5.1,0.7c6.4,1,8.5,1.4,9.2,1.6l0.1,0c2.9,0.7,3.5,0.8,3.8,0.9
				c3.9,0.6,6.4-1.9,6.8-4.6c0.1-0.4,0.2-1.4,0.8-3.2c0.5-1.9,0.8-3.3,0.9-4.3c0.5-3.1-1.5-5.8-4.6-6.3c-0.2,0-0.4,0-0.6-0.1
				c-2.1-0.1-3.9-0.2-5.4-0.4l-0.1,0c-3.9-0.4-8.5-1-13.5-1.8l0.7-5c0-0.1,0-0.2,0-0.3c0,0,0,0,0.1,0c2.1,0.3,5.4,1,9.8,1.8
				c4.5,1,7.9,1.6,10.2,1.9c3.2,0.5,6-1.6,6.5-4.8c0.1-0.8,0.2-2.3,0.2-7.2c0-2.5-1.5-5.5-5.9-6.2c-1.8-0.3-4.4-0.6-7.9-1
				c-3.4-0.4-6-0.7-7.7-1c-1.7-0.3-4.4-0.7-8-1.4c-3.7-0.7-6.4-1.1-8.3-1.4c-1.7-0.3-3.3,0.1-4.5,1.1c-1.2,0.9-2,2.3-2.2,3.9l0,0.7
				c-0.4,4-0.7,7.1-0.9,9.1l0,0.1c-0.9,8-1.6,13.5-2,16.4c-0.4,2.8-1.2,7.1-2.4,12.7c-1.2,5.8-2.1,10.3-2.5,13.2
				c-0.5,3.4,1.7,6.3,5.2,6.8c1.9,0.3,4.9,0.7,8.7,1.2c3.8,0.5,6.6,0.8,8.4,1.1c6.4,1,11.1,1.9,14,2.8l0,0c1,0.3,1.6,0.5,2.1,0.5
				c2.7,0.4,5.2-0.9,6.3-3.4l0.1-0.2l0.1-0.3c0.5-1.6,0.9-2.9,1.2-3.9c0.2-0.4,0.4-0.9,0.5-1.4c0.5-1.1,0.8-2,0.9-2.9
				C526.2,187.8,523.7,185.4,521.1,185z"/>
			<path class="st1" d="M518.6,181.6c-0.2,0-0.3,0-0.5-0.1l-0.6,0c-10.3-0.8-13.9-1.1-15-1.3l-4.3-0.6c-0.5-0.1-0.9-0.2-1.3-0.2
				c0-0.3,0.1-0.6,0.1-1.1l0.9-5.7c1.1,0.1,2.8,0.4,5.1,0.7c6.4,1,8.5,1.4,9.2,1.6l0.1,0c2.9,0.7,3.5,0.8,3.8,0.9
				c3.9,0.6,6.4-1.9,6.8-4.6c0.1-0.4,0.2-1.4,0.8-3.2c0.5-1.9,0.8-3.3,0.9-4.3c0.5-3.1-1.5-5.8-4.6-6.3c-0.2,0-0.4,0-0.6-0.1
				c-2.1-0.1-3.9-0.2-5.4-0.4l-0.1,0c-3.9-0.4-8.5-1-13.5-1.8l0.7-5c0-0.1,0-0.2,0-0.3c0,0,0,0,0.1,0c2.1,0.3,5.4,1,9.8,1.8
				c4.5,1,7.9,1.6,10.2,1.9c3.2,0.5,6-1.6,6.5-4.8c0.1-0.8,0.2-2.3,0.2-7.2c0-2.5-1.5-5.5-5.9-6.2c-1.8-0.3-4.4-0.6-7.9-1
				c-3.4-0.4-6-0.7-7.7-1c-1.7-0.3-4.4-0.7-8-1.4c-3.7-0.7-6.4-1.1-8.3-1.4c-1.7-0.3-3.3,0.1-4.5,1.1c-1.2,0.9-2,2.3-2.2,3.9l0,0.7
				c-0.4,4-0.7,7.1-0.9,9.1l0,0.1c-0.9,8-1.6,13.5-2,16.4c-0.4,2.8-1.2,7.1-2.4,12.7c-1.2,5.8-2.1,10.3-2.5,13.2
				c-0.5,3.4,1.7,6.3,5.2,6.8c1.9,0.3,4.9,0.7,8.7,1.2c3.8,0.5,6.6,0.8,8.4,1.1c6.4,1,11.1,1.9,14,2.8l0,0c1,0.3,1.6,0.5,2.1,0.5
				c2.7,0.4,5.2-0.9,6.3-3.4l0.1-0.2l0.1-0.3c0.5-1.6,0.9-2.9,1.2-3.9c0.2-0.4,0.4-0.9,0.5-1.4c0.5-1.1,0.8-2,0.9-2.9
				C523.7,184.4,521.2,182,518.6,181.6z"/>
			
				<linearGradient id="SVGID_9_" gradientUnits="userSpaceOnUse" x1="520.9089" y1="197.3065" x2="483.3271" y2="132.2128" gradientTransform="matrix(0.9889 0.1489 -0.1489 0.9889 30.7389 -71.1555)">
				<stop  offset="0" style="stop-color:#FFFFFF"/>
				<stop  offset="0.4008" style="stop-color:#FBFBFB"/>
				<stop  offset="0.7974" style="stop-color:#EFF0F0"/>
				<stop  offset="1" style="stop-color:#E6E7E8"/>
			</linearGradient>
			<path class="st36" d="M519.4,182.6c-0.2,0-0.3,0-0.5-0.1l-0.6,0c-10.3-0.8-13.9-1.1-15-1.3l-4.3-0.6c-0.5-0.1-0.9-0.2-1.3-0.2
				c0-0.3,0.1-0.6,0.1-1.1l0.9-5.7c1.1,0.1,2.8,0.4,5.1,0.7c6.4,1,8.6,1.4,9.2,1.6l0.1,0c2.9,0.7,3.5,0.8,3.8,0.9
				c3.9,0.6,6.4-1.9,6.8-4.6c0.1-0.4,0.2-1.4,0.8-3.2c0.5-1.9,0.8-3.3,0.9-4.3c0.5-3.1-1.5-5.8-4.6-6.3c-0.2,0-0.4,0-0.6-0.1
				c-2.1-0.1-3.9-0.2-5.4-0.4l-0.1,0c-3.9-0.4-8.5-1-13.5-1.8l0.7-5c0-0.1,0-0.2,0-0.3c0,0,0,0,0.1,0c2.1,0.3,5.4,1,9.8,1.8
				c4.5,1,7.9,1.6,10.2,1.9c3.2,0.5,6-1.6,6.5-4.8c0.1-0.8,0.2-2.3,0.2-7.2c0-2.5-1.5-5.5-5.9-6.2c-1.8-0.3-4.4-0.6-7.9-1
				c-3.4-0.4-6-0.7-7.7-1c-1.7-0.3-4.4-0.7-8-1.4c-3.7-0.7-6.4-1.1-8.3-1.4c-1.7-0.3-3.3,0.1-4.5,1.1c-1.2,0.9-2,2.3-2.2,3.9l0,0.7
				c-0.4,4-0.7,7.1-0.9,9.1l0,0.1c-0.9,8-1.6,13.5-2,16.4c-0.4,2.8-1.2,7.1-2.4,12.7c-1.2,5.8-2.1,10.3-2.5,13.2
				c-0.5,3.4,1.7,6.3,5.2,6.8c1.9,0.3,4.9,0.7,8.7,1.2c3.8,0.5,6.6,0.8,8.4,1.1c6.4,1,11.1,1.9,14,2.8l0,0c1,0.3,1.6,0.5,2.1,0.5
				c2.7,0.4,5.2-0.9,6.3-3.4l0.1-0.2l0.1-0.3c0.5-1.6,0.9-2.9,1.2-3.9c0.2-0.4,0.4-0.9,0.5-1.4c0.5-1.1,0.8-2,0.9-2.9
				C524.5,185.4,522,183,519.4,182.6z"/>
		</g>
	</g>
	<g>
		<path class="st18" d="M250.9,91.4c-1.1,7.9,4.3,14.9,12.3,16c2,0.3,5,0.6,8.9,1.1c3.7,0.4,6.5,0.7,8.2,1c7.6,1,11.2,1.9,12.9,2.4
			c1.4,0.4,2.4,0.6,3.3,0.8c6.3,0.9,12.3-2.4,14.8-8.3c0-0.1,0.1-0.2,0.1-0.3l0.1-0.2c0.1-0.3,0.2-0.5,0.3-0.8l0-0.1
			c0.5-1.5,0.8-2.8,1.1-3.8c0.1-0.3,0.2-0.6,0.4-1c0.7-1.6,1.1-3.2,1.3-4.7c0.6-4.1-0.6-7.9-2.9-10.8c1.3-1.8,2.1-3.8,2.5-6.1
			c0-0.1,0.1-0.7,0.5-2.2c0-0.1,0-0.1,0.1-0.2c0.5-2.2,0.9-3.8,1-5.1c0.3-2.5,0-4.9-0.8-7c2-2.1,3.4-4.8,3.8-7.9
			c0.2-1.4,0.3-3.4,0.2-8.3c0-6-4.1-13-13.1-14.2c-1.8-0.3-4.5-0.6-8.2-1c-3.6-0.4-6-0.7-7.4-0.9c-1.2-0.2-3.8-0.5-7.7-1.2
			c-3.8-0.6-6.6-1.1-8.5-1.3c-3.9-0.5-7.7,0.5-10.7,2.8c-3,2.4-4.8,5.7-5.2,9.6c0,0.1,0,0.2,0,0.3l0,0.5c-0.3,3.9-0.6,7-0.8,8.7
			c0,0.1,0,0.2,0,0.3c-0.8,8-1.4,13.4-1.8,16.1c-0.4,2.7-1.1,7-2.2,12.3C252.2,83.7,251.4,88.3,250.9,91.4z"/>
		<g>
			<path class="st34" d="M246.2,84.9c-1.1,7.9,4.3,14.9,12.3,16c2,0.3,5,0.6,8.9,1.1c3.7,0.4,6.5,0.7,8.2,1c7.6,1,11.2,1.9,12.9,2.4
				c1.4,0.4,2.4,0.6,3.3,0.8c6.3,0.9,12.3-2.4,14.8-8.3c0-0.1,0.1-0.2,0.1-0.3l0.1-0.2c0.1-0.3,0.2-0.5,0.3-0.8l0-0.1
				c0.5-1.5,0.8-2.8,1.1-3.8c0.1-0.3,0.2-0.6,0.4-1c0.7-1.6,1.1-3.2,1.3-4.7c0.6-4.1-0.6-7.9-2.9-10.8c1.3-1.7,2.1-3.8,2.5-6.1
				c0-0.1,0.1-0.7,0.5-2.2c0-0.1,0-0.1,0.1-0.2c0.5-2.2,0.9-3.8,1-5.1c0.3-2.5,0-4.9-0.8-7c2-2.1,3.4-4.8,3.8-7.9
				c0.2-1.4,0.3-3.4,0.2-8.3c0-6-4.1-13-13.1-14.2c-1.8-0.3-4.5-0.6-8.2-1c-3.6-0.4-6-0.7-7.4-0.9c-1.2-0.2-3.8-0.5-7.7-1.2
				c-3.8-0.6-6.6-1.1-8.5-1.3c-3.9-0.5-7.7,0.5-10.7,2.8c-3,2.4-4.8,5.7-5.2,9.6c0,0.1,0,0.2,0,0.3l0,0.5c-0.3,3.9-0.6,7-0.8,8.7
				c0,0.1,0,0.2,0,0.3c-0.8,8-1.4,13.4-1.8,16.1c-0.4,2.7-1.1,7-2.2,12.3C247.5,77.1,246.7,81.8,246.2,84.9z"/>
			<path class="st35" d="M243.4,79.9c-1.1,7.9,4.3,14.9,12.3,16c2,0.3,5,0.6,8.9,1.1c3.7,0.4,6.5,0.7,8.2,1c7.6,1,11.2,1.9,12.9,2.4
				c1.4,0.4,2.4,0.6,3.3,0.8c6.3,0.9,12.3-2.4,14.8-8.3c0-0.1,0.1-0.2,0.1-0.3l0.1-0.2c0.1-0.3,0.2-0.5,0.3-0.8l0-0.1
				c0.5-1.5,0.8-2.8,1.1-3.8c0.1-0.3,0.2-0.6,0.4-1c0.7-1.6,1.1-3.2,1.3-4.7c0.6-4.1-0.6-7.9-2.9-10.8c1.3-1.7,2.1-3.8,2.5-6.1
				c0-0.1,0.1-0.7,0.5-2.2c0-0.1,0-0.1,0.1-0.2c0.5-2.2,0.9-3.8,1-5.1c0.3-2.5,0-4.9-0.8-7c2-2.1,3.4-4.8,3.8-7.9
				c0.2-1.4,0.3-3.4,0.2-8.3c0-6-4.1-13-13.1-14.2c-1.8-0.3-4.5-0.6-8.2-1c-3.6-0.4-6-0.7-7.4-0.9c-1.2-0.2-3.8-0.5-7.7-1.2
				c-3.8-0.6-6.6-1.1-8.5-1.3c-3.9-0.5-7.7,0.5-10.7,2.8c-3,2.4-4.8,5.7-5.2,9.6c0,0.1,0,0.2,0,0.3l0,0.5c-0.3,3.9-0.6,7-0.8,8.7
				c0,0.1,0,0.2,0,0.3c-0.8,8-1.4,13.4-1.8,16.1c-0.4,2.7-1.1,7-2.2,12.3C244.6,72.2,243.8,76.8,243.4,79.9z"/>
			<path class="st16" d="M296,76.6c-0.2,0-0.3,0-0.5-0.1l-0.6,0c-10.3-0.6-13.9-1-15-1.1l-4.3-0.6c-0.5-0.1-0.9-0.2-1.3-0.2
				c0-0.3,0.1-0.6,0.1-1.1l0.8-5.7c1.1,0.1,2.8,0.3,5.1,0.6c6.4,0.9,8.6,1.3,9.3,1.5l0.1,0c3,0.7,3.5,0.8,3.8,0.8
				c3.9,0.5,6.3-1.9,6.7-4.7c0.1-0.4,0.2-1.4,0.7-3.3c0.5-1.9,0.7-3.3,0.9-4.3c0.4-3.1-1.6-5.8-4.7-6.2c-0.2,0-0.4,0-0.6,0
				c-2.1-0.1-3.9-0.2-5.4-0.4l-0.1,0c-3.9-0.4-8.5-0.9-13.5-1.6l0.7-5c0-0.1,0-0.2,0-0.3c0,0,0,0,0.1,0c2.1,0.3,5.4,0.9,9.8,1.7
				c4.6,0.9,7.9,1.5,10.2,1.8c3.2,0.4,6-1.6,6.4-4.9c0.1-0.8,0.2-2.3,0.1-7.2c0-2.5-1.6-5.5-6-6.1c-1.8-0.2-4.4-0.6-7.9-0.9
				c-3.4-0.3-6-0.7-7.7-0.9c-1.7-0.2-4.4-0.7-8-1.3c-3.7-0.6-6.4-1-8.3-1.3c-1.7-0.2-3.3,0.2-4.5,1.1c-1.2,1-2,2.4-2.1,3.9l0,0.7
				c-0.3,4-0.6,7.1-0.8,9.2l0,0.1c-0.8,8-1.4,13.5-1.8,16.4c-0.4,2.8-1.1,7.1-2.2,12.8c-1.1,5.8-1.9,10.3-2.3,13.3
				c-0.5,3.4,1.8,6.3,5.2,6.7c1.9,0.3,4.9,0.6,8.7,1c3.8,0.4,6.6,0.8,8.4,1c6.4,0.9,11.1,1.8,14,2.6l0,0c1,0.3,1.6,0.4,2.1,0.5
				c2.7,0.4,5.1-1,6.2-3.4l0.1-0.2l0.1-0.3c0.5-1.6,0.9-3,1.1-4c0.2-0.4,0.4-0.9,0.5-1.4c0.5-1.1,0.7-2,0.9-2.9
				C301.2,79.3,298.7,76.9,296,76.6z"/>
			<path class="st1" d="M293.5,73.3c-0.2,0-0.3,0-0.5-0.1l-0.6,0c-10.3-0.6-13.9-1-15-1.1l-4.3-0.6c-0.5-0.1-0.9-0.2-1.3-0.2
				c0-0.3,0.1-0.6,0.1-1.1l0.8-5.7c1.1,0.1,2.8,0.3,5.1,0.6c6.4,0.9,8.6,1.3,9.3,1.5l0.1,0c3,0.7,3.5,0.8,3.8,0.8
				c3.9,0.5,6.3-1.9,6.7-4.7c0.1-0.4,0.2-1.4,0.7-3.3c0.5-1.9,0.7-3.3,0.9-4.3c0.4-3.1-1.6-5.8-4.7-6.2c-0.2,0-0.4,0-0.6,0
				c-2.1-0.1-3.9-0.2-5.4-0.4l-0.1,0c-3.9-0.4-8.5-0.9-13.5-1.6l0.7-5c0-0.1,0-0.2,0-0.3c0,0,0,0,0.1,0c2.1,0.3,5.4,0.9,9.8,1.7
				c4.6,0.9,7.9,1.5,10.2,1.8c3.2,0.4,6-1.6,6.4-4.9c0.1-0.8,0.2-2.3,0.1-7.2c0-2.5-1.6-5.5-6-6.1c-1.8-0.2-4.4-0.6-7.9-0.9
				c-3.4-0.3-6-0.7-7.7-0.9c-1.7-0.2-4.5-0.7-8-1.3c-3.7-0.6-6.4-1-8.3-1.3c-1.7-0.2-3.3,0.2-4.5,1.1c-1.2,1-2,2.4-2.1,3.9l0,0.7
				c-0.3,4-0.6,7.1-0.8,9.2l0,0.1c-0.8,8-1.4,13.5-1.8,16.4c-0.4,2.8-1.1,7.1-2.2,12.8c-1.1,5.8-1.9,10.3-2.3,13.3
				c-0.5,3.4,1.8,6.3,5.2,6.7c1.9,0.3,4.9,0.6,8.7,1c3.8,0.4,6.6,0.8,8.4,1c6.4,0.9,11.1,1.8,14,2.6l0,0c1,0.3,1.6,0.4,2.1,0.5
				c2.7,0.4,5.1-1,6.2-3.4l0.1-0.2l0.1-0.3c0.5-1.6,0.9-3,1.1-4c0.2-0.4,0.4-0.9,0.5-1.4c0.5-1.1,0.7-2,0.9-2.9
				C298.7,76,296.1,73.6,293.5,73.3z"/>
			
				<linearGradient id="SVGID_10_" gradientUnits="userSpaceOnUse" x1="298.8311" y1="93.7609" x2="261.2492" y2="28.6672" gradientTransform="matrix(0.9906 0.1365 -0.1365 0.9906 8.3822 -40.4935)">
				<stop  offset="0" style="stop-color:#FFFFFF"/>
				<stop  offset="0.4008" style="stop-color:#FBFBFB"/>
				<stop  offset="0.7974" style="stop-color:#EFF0F0"/>
				<stop  offset="1" style="stop-color:#E6E7E8"/>
			</linearGradient>
			<path class="st37" d="M294.3,74.3c-0.2,0-0.3,0-0.5-0.1l-0.6,0c-10.3-0.6-13.9-1-15-1.1l-4.3-0.6c-0.5-0.1-0.9-0.2-1.3-0.2
				c0-0.3,0.1-0.6,0.1-1.1l0.8-5.7c1.1,0.1,2.8,0.3,5.1,0.6c6.4,0.9,8.6,1.3,9.3,1.5l0.1,0c3,0.7,3.5,0.8,3.8,0.8
				c3.9,0.5,6.3-1.9,6.7-4.7c0.1-0.4,0.2-1.4,0.7-3.3c0.5-1.9,0.7-3.3,0.9-4.3c0.4-3.1-1.6-5.8-4.7-6.2c-0.2,0-0.4,0-0.6,0
				c-2.1-0.1-3.9-0.2-5.4-0.4l-0.1,0c-3.9-0.4-8.5-0.9-13.5-1.6l0.7-5c0-0.1,0-0.2,0-0.3c0,0,0,0,0.1,0c2.1,0.3,5.4,0.9,9.8,1.7
				c4.6,0.9,7.9,1.5,10.2,1.8c3.2,0.4,6-1.6,6.4-4.9c0.1-0.8,0.2-2.3,0.1-7.2c0-2.5-1.6-5.5-6-6.1c-1.8-0.2-4.4-0.6-7.9-0.9
				c-3.4-0.3-6-0.7-7.7-0.9c-1.7-0.2-4.5-0.7-8-1.3c-3.7-0.6-6.4-1-8.3-1.3c-1.7-0.2-3.3,0.2-4.5,1.1c-1.2,1-2,2.4-2.1,3.9l0,0.7
				c-0.3,4-0.6,7.1-0.8,9.2l0,0.1c-0.8,8-1.4,13.5-1.8,16.4c-0.4,2.8-1.1,7.1-2.2,12.8c-1.1,5.8-1.9,10.3-2.3,13.3
				c-0.5,3.4,1.8,6.3,5.2,6.7c1.9,0.3,4.9,0.6,8.7,1c3.8,0.4,6.6,0.8,8.4,1c6.4,0.9,11.1,1.8,14,2.6l0,0c1,0.3,1.6,0.4,2.1,0.5
				c2.7,0.4,5.1-1,6.2-3.4l0.1-0.2l0.1-0.3c0.5-1.6,0.9-3,1.1-4c0.2-0.4,0.4-0.9,0.5-1.4c0.5-1.1,0.7-2,0.9-2.9
				C299.4,77,296.9,74.6,294.3,74.3z"/>
		</g>
	</g>
</g>
</svg>
