<?xml version="1.0" encoding="utf-8"?>
<!-- Generator: Adobe Illustrator 19.0.0, SVG Export Plug-In . SVG Version: 6.00 Build 0)  -->
<svg version="1.1" id="Layer_1" xmlns="http://www.w3.org/2000/svg" xmlns:xlink="http://www.w3.org/1999/xlink" x="0px" y="0px"
	 viewBox="-275.3 12.8 201.3 33.5" style="enable-background:new -275.3 12.8 201.3 33.5;" xml:space="preserve">
<style type="text/css">
	.st0{fill:#29609C;}
</style>
<g>
	<path class="st0" d="M-266.5,45.7l-8.7-32.9h4.5l5,21.6c0.5,2.3,1,4.5,1.4,6.7c0.8-3.5,1.3-5.5,1.5-6.1l6.3-22.2h5.3l4.7,16.7
		c1.2,4.1,2,8,2.6,11.7c0.4-2.1,1-4.5,1.6-7.2l5.2-21.2h4.4l-9,32.9h-4.2l-6.9-25.1c-0.6-2.1-0.9-3.4-1-3.9c-0.3,1.5-0.7,2.8-1,3.9
		l-7,25.1H-266.5z"/>
	<path class="st0" d="M-213.9,38l4.2,0.5c-0.7,2.4-1.9,4.3-3.7,5.7c-1.8,1.3-4.1,2-6.8,2c-3.5,0-6.3-1.1-8.3-3.2
		c-2-2.1-3.1-5.2-3.1-9c0-4,1-7.1,3.1-9.3c2.1-2.2,4.7-3.3,8-3.3c3.2,0,5.8,1.1,7.8,3.3c2,2.2,3,5.2,3,9.2c0,0.2,0,0.6,0,1.1h-17.8
		c0.1,2.6,0.9,4.6,2.2,6c1.3,1.4,3,2.1,5,2.1c1.5,0,2.7-0.4,3.8-1.2C-215.3,41-214.5,39.7-213.9,38z M-227.1,31.5h13.3
		c-0.2-2-0.7-3.5-1.5-4.5c-1.3-1.6-3-2.3-5-2.3c-1.9,0-3.4,0.6-4.7,1.9C-226.3,27.7-227,29.4-227.1,31.5z"/>
	<path class="st0" d="M-204.7,45.7V12.8h4v32.9H-204.7z"/>
	<path class="st0" d="M-194.5,45.7V12.8h4v32.9H-194.5z"/>
	<path class="st0" d="M-155.9,45.7v-3c-1.5,2.4-3.7,3.5-6.7,3.5c-1.9,0-3.6-0.5-5.2-1.6s-2.8-2.5-3.7-4.4c-0.9-1.9-1.3-4-1.3-6.5
		c0-2.4,0.4-4.5,1.2-6.5c0.8-1.9,2-3.4,3.6-4.5c1.6-1,3.4-1.5,5.3-1.5c1.4,0,2.7,0.3,3.8,0.9s2,1.4,2.7,2.4V12.8h4v32.9H-155.9z
		 M-168.7,33.8c0,3.1,0.6,5.3,1.9,6.9c1.3,1.5,2.8,2.3,4.6,2.3c1.8,0,3.3-0.7,4.5-2.2c1.2-1.4,1.9-3.6,1.9-6.6
		c0-3.3-0.6-5.7-1.9-7.2s-2.8-2.3-4.6-2.3c-1.8,0-3.3,0.7-4.5,2.2C-168.1,28.3-168.7,30.6-168.7,33.8z"/>
	<path class="st0" d="M-147.3,33.8c0-4.4,1.2-7.7,3.7-9.8c2.1-1.8,4.6-2.7,7.5-2.7c3.3,0,6,1.1,8,3.2c2.1,2.1,3.1,5.1,3.1,8.9
		c0,3.1-0.5,5.5-1.4,7.2c-0.9,1.8-2.3,3.1-4,4.1s-3.7,1.5-5.8,1.5c-3.3,0-6-1.1-8.1-3.2C-146.3,40.9-147.3,37.8-147.3,33.8z
		 M-143.2,33.8c0,3.1,0.7,5.3,2,6.9c1.3,1.5,3,2.3,5,2.3c2,0,3.7-0.8,5-2.3c1.3-1.5,2-3.9,2-7c0-2.9-0.7-5.2-2-6.7
		c-1.3-1.5-3-2.3-5-2.3c-2,0-3.7,0.8-5,2.3C-142.5,28.4-143.2,30.7-143.2,33.8z"/>
	<path class="st0" d="M-120.2,45.7V21.8h3.6v3.4c1.8-2.6,4.3-3.9,7.6-3.9c1.4,0,2.8,0.3,4,0.8s2.1,1.2,2.7,2c0.6,0.8,1,1.8,1.3,3
		c0.1,0.7,0.2,2.1,0.2,3.9v14.7h-4V31.2c0-1.6-0.2-2.9-0.5-3.7c-0.3-0.8-0.9-1.5-1.7-2c-0.8-0.5-1.7-0.7-2.8-0.7
		c-1.7,0-3.2,0.5-4.5,1.6c-1.3,1.1-1.9,3.2-1.9,6.2v13H-120.2z"/>
	<path class="st0" d="M-78.3,38l4.2,0.5c-0.7,2.4-1.9,4.3-3.7,5.7c-1.8,1.3-4.1,2-6.8,2c-3.5,0-6.3-1.1-8.3-3.2
		c-2-2.1-3.1-5.2-3.1-9c0-4,1-7.1,3.1-9.3c2.1-2.2,4.7-3.3,8-3.3c3.2,0,5.8,1.1,7.8,3.3c2,2.2,3,5.2,3,9.2c0,0.2,0,0.6,0,1.1h-17.8
		c0.1,2.6,0.9,4.6,2.2,6c1.3,1.4,3,2.1,5,2.1c1.5,0,2.7-0.4,3.8-1.2C-79.8,41-78.9,39.7-78.3,38z M-91.6,31.5h13.3
		c-0.2-2-0.7-3.5-1.5-4.5c-1.3-1.6-3-2.3-5-2.3c-1.9,0-3.4,0.6-4.7,1.9C-90.8,27.7-91.5,29.4-91.6,31.5z"/>
</g>
</svg>
