<?xml version="1.0" encoding="utf-8"?>
<!-- Generator: Adobe Illustrator 19.2.0, SVG Export Plug-In . SVG Version: 6.00 Build 0)  -->
<svg version="1.1" id="Isolation_Mode" xmlns="http://www.w3.org/2000/svg" xmlns:xlink="http://www.w3.org/1999/xlink" x="0px"
	 y="0px" viewBox="0 0 60.3 58.6" style="enable-background:new 0 0 60.3 58.6;" xml:space="preserve">
<style type="text/css">
	.st0{fill:#FFA452;}
	.st1{fill:#FFB171;}
	.st2{fill:#FFFFFF;}
</style>
<g>
	<path class="st0" d="M54.6,39.1c0.2,0.3,0.2,0.8,0.2,1.3c0,3.5-2.7,6.5-6,7c-0.2,8.8,8.3,11.3,8.3,11.3c-8.4,0-12.9-4.3-14.9-7
		C40,54,36.7,55,33.4,54.5c-3.8-0.7-6.8-3.3-8-6.8c-1.6,1.7-4.1,2.5-6.6,2c-2.8-0.7-5-3-5.3-5.8c-1.5,0.5-3.1,0.6-4.8,0.3
		C3,43.2-0.8,38,0.2,32.4c0.5-2.8,2-5.1,4.2-6.6c-0.1-0.8-0.3-1.5-0.3-2.3c0-3.8,3.2-7,7-7c0.7,0,1.2,0,1.7,0.2
		c-1-1.2-1.7-2.8-1.7-4.5c0-3.8,3.2-7,7-7c1.7,0,3.3,0.7,4.5,1.7c2.5-4.3,7.5-6.8,12.6-6C40,1.7,43.8,5.2,45,9.7
		c0.5-0.2,1.2-0.2,1.7-0.2c3.8,0,7,3.2,7,7c0,0.5-0.2,0.8-0.2,1.3c4.8,2.1,7.8,7.4,6.8,12.9C59.8,34.2,57.8,37,54.6,39.1z"/>
	<path class="st1" d="M52.2,29.7c-0.5,2.5-1.8,4.5-3.8,5.8c0.2,0.3,0.2,0.7,0.2,1c0,2.8-2.3,5.1-5.1,5.1c-0.9,0-1.5-0.2-2.2-0.5
		c-1,3.7-4.7,6.2-8.5,5.5c-2.8-0.3-5-2.3-5.8-4.8c-1.1,1.3-3,2-4.8,1.5c-2-0.5-3.5-2.2-3.8-4.2c-1,0.5-2.3,0.5-3.5,0.3
		c-4.1-0.7-6.8-4.5-6.1-8.5c0.3-2,1.5-3.6,3-4.8c-0.1-0.5-0.3-1-0.3-1.7c0-2.8,2.3-5.1,5.1-5.1c0.4,0,0.9,0,1.2,0.2
		c-0.7-1-1.2-2.1-1.2-3.3c0-2.8,2.3-5.1,5.1-5.1c1.2,0,2.4,0.5,3.2,1.2c1.8-3.1,5.3-5,9.1-4.3c3.4,0.7,6.3,3.3,7.1,6.5
		c0.4-0.2,0.9-0.2,1.2-0.2c2.8,0,5.1,2.3,5.1,5.1c0,0.3-0.2,0.7-0.2,1C50.7,22.1,52.8,25.9,52.2,29.7z"/>
	<g>
		<circle class="st0" cx="5.4" cy="12.1" r="2.3"/>
		<circle class="st0" cx="21.3" cy="0.8" r="0.8"/>
		<circle class="st0" cx="57.5" cy="16.3" r="1.7"/>
		<circle class="st0" cx="47.4" cy="50.6" r="1.5"/>
		<circle class="st0" cx="11.3" cy="49.6" r="1.5"/>
		<circle class="st0" cx="55" cy="10.5" r="0.8"/>
		<circle class="st0" cx="1.7" cy="24.7" r="1.3"/>
	</g>
	<g>
		<g>
			<path class="st2" d="M34.6,36.4c-1.8,0.6-4.3,0.5-5.5-1c-0.2-0.5-0.4-0.8-0.2-1.3c0-0.4,0.3-0.5,0.5-0.7c0.3-0.1,0.5,0,0.8,0.2
				c0.5,0.5,1.5,0.6,2.2,0.3c0.4-0.2,0.7-0.4,0.7-0.7c0.1-0.3,0-0.8-0.2-1c-0.3-0.5-1.3-1-2.5-1.7s-2.7-1.3-4-2.5
				c-3.5-2.8-6.3-7.1-4-11.3c0.8-1.7,2.1-2.8,3.8-3.5c2.3-1,5.1-0.6,7.3,0.7c2,1.3,3.5,3.4,3.8,5.6c0.2,1.6-0.3,3.3-1.5,4.6
				c-0.2,0.2-0.4,0.3-0.7,0.5c-0.5,0.3-1.1,0.1-1.8-0.2c-0.7-0.5-1.2-1.3-1.2-2v-0.3c0-1.6,0-2.8-1.3-3.8c-0.9-0.5-1.9-0.6-2.7-0.3
				c-0.7,0.3-1.2,0.8-1.5,1.3c-0.3,0.7-0.5,1.3-0.3,2c0.6,2.3,4.3,4.6,6.1,5.6l0.2,0.2c1.3,0.8,3.8,2.8,4.3,5.1c0.3,1,0,1.9-0.5,2.7
				C36.1,35.6,35.4,36.1,34.6,36.4L34.6,36.4z"/>
		</g>
		<g>
			<path class="st2" d="M34.7,43.8c-1.3,0.5-2.8-0.1-3.3-1.3c-0.7-1.3,0-2.8,1.3-3.3c1.3-0.7,2.8,0,3.3,1.3
				C36.7,41.8,36,43.3,34.7,43.8L34.7,43.8z"/>
		</g>
	</g>
</g>
</svg>
