<?xml version="1.0" encoding="utf-8"?>
<!-- Generator: Adobe Illustrator 21.0.0, SVG Export Plug-In . SVG Version: 6.00 Build 0)  -->
<svg version="1.1" id="Layer_1" xmlns="http://www.w3.org/2000/svg" xmlns:xlink="http://www.w3.org/1999/xlink" x="0px" y="0px"
	 viewBox="0 0 80 80" style="enable-background:new 0 0 80 80;" xml:space="preserve">
<style type="text/css">
	.st0{fill:#D3D3D3;}
	.st1{opacity:0.3;}
	.st2{fill:#FFDC64;}
	.st3{fill:#FFC850;}
	.st4{display:none;}
	.st5{display:inline;}
	.st6{fill:#7F7F7F;}
</style>
<g>
	<g>
		<path class="st0" d="M63.9,60.7H28.1l9.9-6.5h17.4c0.6,0,1-0.4,1-1s-0.4-1-1-1H41l5.1-3.3h4c0.6,0,1-0.4,1-1s-0.4-1-1-1h-3.3V30.8
			c0-0.3-0.2-0.7-0.5-0.8L9,5.5C8.4,5.1,7.5,5.6,7.5,6.3v66.1c0,0.5,0.5,1,1,1h45.4c0.6,0,1-0.4,1-1c0-0.6-0.4-1-1-1h-42L25,62.7
			h38.9c0.6,0,1-0.4,1-1S64.5,60.7,63.9,60.7z M38.3,27.1l6.5,4.3v2.3l-6.5-2.4V27.1z M38.3,33.4l6.5,2.4v2.6h-6.5V33.4z M38.3,40.4
			h6.5v2.6l-6.5,2.4V40.4z M38.3,47.5l6.5-2.4v2.3l-6.5,4.3V47.5z M23.5,61.4l-14,9.2V58.2l14-5.2V61.4z M23.5,50.9L9.5,56V40.4h14
			V50.9z M23.5,38.4h-14V22.7l14,5.2V38.4z M23.5,25.7l-14-5.2V8.2l14,9.2V25.7z M25.5,18.7l10.8,7.1v4.7l-10.8-4V18.7z M25.5,28.6
			l10.8,4v5.7H25.5V28.6z M25.5,40.4h10.8v5.7l-10.8,4V40.4z M25.5,52.2l10.8-4V53L25.5,60V52.2z"/>
	</g>
</g>
<g class="st1">
	<g>
		<g>
			<path class="st2" d="M64.9,24.2l-11.7-1.1l-4.6-10.8c-0.3-0.7-1.4-0.7-1.7,0l-4.6,10.8l-11.8,1.1c-0.8,0.1-1.1,1.1-0.5,1.6
				l8.8,7.7l-2.6,11.5c-0.1,0.8,0.7,1.4,1.4,1l10.1-6l10.1,6c0.7,0.4,1.6-0.2,1.4-1l-2.6-11.5l8.8-7.7C66,25.3,65.7,24.3,64.9,24.2z
				"/>
		</g>
	</g>
	<path class="st3" d="M50.2,16.3l-1.7-3.9c-0.3-0.7-1.4-0.7-1.7,0l-4.6,10.8l-11.7,1.1c-0.8,0.1-1.1,1.1-0.5,1.6l8.8,7.7l-2.6,11.5
		c-0.1,0.8,0.7,1.4,1.4,1l1.3-0.8C41.1,31,47.3,20.5,50.2,16.3z"/>
</g>
<g class="st4">
	<g class="st5">
		<g>
			<g>
				<path class="st6" d="M38.3,42.8c-0.6-0.4-1.4-0.1-1.8,0.5c-1.3,2.4-2.4,4.9-3.2,7.4c-0.2,0.7,0.2,1.4,0.9,1.7
					c0.1,0,0.3,0.1,0.4,0.1c0.6,0,1.1-0.4,1.3-0.9c0.8-2.4,1.8-4.7,3-7C39.2,43.9,38.9,43.1,38.3,42.8z"/>
				<path class="st6" d="M46.5,30.7c-2,1.9-3.8,3.9-5.5,5.9c-0.5,0.6-0.4,1.4,0.2,1.9c0.2,0.2,0.5,0.3,0.8,0.3c0.4,0,0.8-0.2,1-0.5
					c1.5-1.9,3.3-3.8,5.2-5.6c0.5-0.5,0.6-1.3,0.1-1.9C47.8,30.2,47,30.2,46.5,30.7z"/>
				<path class="st6" d="M33.1,57.5c-0.1,0-0.2,0-0.3,0s-0.2,0-0.3,0c-0.7,0.1-1.3,0.7-1.2,1.5c0.1,1.3,0.2,2.6,0.2,3.8
					c0,0.7,0.6,1.3,1.3,1.3s1.3-0.6,1.3-1.3c0-1.3,0.1-2.6,0.2-3.8C34.3,58.3,33.8,57.6,33.1,57.5z"/>
				<path class="st6" d="M17.3,29.1c-0.6-0.5-1.4-0.4-1.9,0.1c-0.5,0.6-0.4,1.4,0.1,1.9c2.1,1.8,4.1,3.8,5.8,5.8
					c0.3,0.3,0.6,0.5,1,0.5c0.3,0,0.6-0.1,0.9-0.3c0.6-0.5,0.6-1.3,0.1-1.9C21.5,33.1,19.5,31.1,17.3,29.1z"/>
				<path class="st6" d="M32,50.2c-0.9-2.7-2.1-5.4-3.6-7.9c-0.4-0.6-1.2-0.8-1.8-0.5c-0.6,0.4-0.8,1.2-0.5,1.8
					c1.4,2.4,2.5,4.9,3.4,7.4c0.2,0.6,0.7,0.9,1.3,0.9c0.1,0,0.3,0,0.4-0.1C31.9,51.6,32.2,50.9,32,50.2z"/>
				<path class="st6" d="M10.4,24c-2.1-1.4-3.5-2.1-3.5-2.1c-0.7-0.3-1.5-0.1-1.8,0.6S5,23.9,5.7,24.3c0,0,1.3,0.7,3.3,1.9
					c0.2,0.1,0.5,0.2,0.7,0.2c0.4,0,0.9-0.2,1.1-0.6C11.1,25.2,11,24.4,10.4,24z"/>
				<path class="st6" d="M54.4,24.4c-0.5,0.4-1.1,0.8-1.8,1.2c-0.6,0.4-0.7,1.3-0.3,1.8c0.3,0.4,0.7,0.6,1.1,0.6
					c0.3,0,0.5-0.1,0.8-0.2c0.6-0.4,1.1-0.8,1.7-1.1C55.3,25.9,54.8,25.2,54.4,24.4z"/>
			</g>
		</g>
	</g>
	<g class="st5">
		<path class="st2" d="M77.7,16l-11.6-1.1L61.5,4.2c-0.3-0.7-1.4-0.7-1.7,0l-4.6,10.7L43.6,16c-0.8,0.1-1.1,1.1-0.5,1.6l8.7,7.7
			l-2.6,11.3c-0.2,0.8,0.7,1.4,1.4,1l10-5.9l10,5.9c0.7,0.4,1.6-0.2,1.4-1l-2.6-11.3l8.7-7.7C78.8,17.1,78.5,16.1,77.7,16z"/>
		<path class="st3" d="M63.2,8.1l-1.7-3.9c-0.3-0.7-1.4-0.7-1.7,0l-4.6,10.7L43.6,16c-0.8,0.1-1.1,1.1-0.5,1.6l8.7,7.7l-2.6,11.3
			c-0.2,0.8,0.7,1.4,1.4,1l1.3-0.8C54.1,22.7,60.3,12.3,63.2,8.1z"/>
	</g>
	<g class="st5">
		<path class="st6" d="M40,71H25.9c-0.6,0-1-0.4-1-1s0.4-1,1-1H40c0.6,0,1,0.4,1,1S40.6,71,40,71z"/>
	</g>
	<g class="st5">
		<path class="st6" d="M38,76H28c-0.6,0-1-0.4-1-1s0.4-1,1-1h10c0.6,0,1,0.4,1,1S38.5,76,38,76z"/>
	</g>
</g>
<g>
	<g>
		<g>
			<path class="st2" d="M70.6,32.1l-15.7-1.5l-6.2-14.5c-0.4-1-1.9-1-2.3,0l-6.2,14.5l-15.8,1.5c-1.1,0.1-1.5,1.5-0.7,2.2l11.8,10.4
				L32,60.1c-0.2,1.1,0.9,1.9,1.9,1.4l13.5-8l13.5,8c0.9,0.6,2.1-0.3,1.9-1.4l-3.5-15.4l11.8-10.4C72.1,33.5,71.7,32.2,70.6,32.1z"
				/>
		</g>
	</g>
	<path class="st3" d="M50.9,21.4l-2.3-5.3c-0.4-1-1.9-1-2.3,0l-6.2,14.5l-15.7,1.5c-1.1,0.1-1.5,1.5-0.7,2.2l11.8,10.4L32,60.1
		c-0.2,1.1,0.9,1.9,1.9,1.4l1.8-1.1C38.7,41.2,47,27.1,50.9,21.4z"/>
</g>
<path class="st6" d="M60.7,52.9c-0.5-0.1-1,0.1-1.1,0.6c-0.1,0.5,0.1,1,0.6,1.1c4.1,1.2,6.7,2.9,6.7,4.5c0,1.1-1.4,2.4-3.8,3.5
	c-2.7,1.2-6.5,2-10.7,2.4l-3.7-0.1c0,0,0,0,0,0c-0.5,0-0.9,0.4-0.9,0.9c0,0.5,0.4,0.9,0.9,0.9l3.7,0.1c0,0,0,0,0,0c0,0,0.1,0,0.1,0
	c4.4-0.4,8.5-1.3,11.3-2.5c4.1-1.8,4.9-3.8,4.9-5.1C68.6,56.6,65.8,54.4,60.7,52.9z"/>
<path class="st6" d="M41.8,61.5c-0.3-0.4-0.9-0.4-1.3-0.1c-0.4,0.3-0.4,0.9-0.1,1.3l2,2.4c-4.3-0.3-8.1-1.1-10.9-2.2
	c-2.8-1.1-4.4-2.4-4.4-3.7c0-1.4,2.1-3,5.7-4.2c0.5-0.2,0.7-0.7,0.6-1.1c-0.2-0.5-0.7-0.7-1.1-0.6c-2.1,0.7-3.7,1.5-4.9,2.4
	c-1.4,1.1-2.1,2.2-2.1,3.5c0,2.1,1.9,3.9,5.5,5.4c2.9,1.2,6.9,2,11.2,2.3l-1.8,2c-0.3,0.4-0.3,0.9,0.1,1.3c0.2,0.2,0.4,0.2,0.6,0.2
	c0.2,0,0.5-0.1,0.7-0.3l3.3-3.6c0.1-0.2,0.2-0.4,0.2-0.6v-0.1c0-0.2-0.1-0.4-0.2-0.6L41.8,61.5z"/>
<g>
	<g>
		<path class="st0" d="M74.6,71.4H58.7c-0.6,0-1,0.4-1,1c0,0.6,0.4,1,1,1h15.9c0.6,0,1-0.4,1-1C75.6,71.9,75.1,71.4,74.6,71.4z"/>
	</g>
</g>
</svg>
