<?xml version="1.0" encoding="utf-8"?>
<!-- Generator: Adobe Illustrator 21.0.0, SVG Export Plug-In . SVG Version: 6.00 Build 0)  -->
<svg version="1.1" id="Layer_1" xmlns="http://www.w3.org/2000/svg" xmlns:xlink="http://www.w3.org/1999/xlink" x="0px" y="0px"
	 viewBox="0 0 80 80" style="enable-background:new 0 0 80 80;" xml:space="preserve">
<style type="text/css">
	.st0{display:none;}
	.st1{display:inline;}
	.st2{fill:#7F7F7F;}
	.st3{fill:#FFDC64;}
	.st4{fill:#FFC850;}
	.st5{clip-path:url(#SVGID_2_);}
	.st6{fill:#D8D8D8;}
	.st7{clip-path:url(#SVGID_2_);fill:#7F7F7F;}
</style>
<g class="st0">
	<g class="st1">
		<g>
			<g>
				<path class="st2" d="M38.3,42.8c-0.6-0.4-1.4-0.1-1.8,0.5c-1.3,2.4-2.4,4.9-3.2,7.4c-0.2,0.7,0.2,1.4,0.9,1.7
					c0.1,0,0.3,0.1,0.4,0.1c0.6,0,1.1-0.4,1.3-0.9c0.8-2.4,1.8-4.7,3-7C39.2,43.9,38.9,43.1,38.3,42.8z"/>
				<path class="st2" d="M46.5,30.7c-2,1.9-3.8,3.9-5.5,5.9c-0.5,0.6-0.4,1.4,0.2,1.9c0.2,0.2,0.5,0.3,0.8,0.3c0.4,0,0.8-0.2,1-0.5
					c1.5-1.9,3.3-3.8,5.2-5.6c0.5-0.5,0.6-1.3,0.1-1.9C47.8,30.2,47,30.2,46.5,30.7z"/>
				<path class="st2" d="M33.1,57.5c-0.1,0-0.2,0-0.3,0s-0.2,0-0.3,0c-0.7,0.1-1.3,0.7-1.2,1.5c0.1,1.3,0.2,2.6,0.2,3.8
					c0,0.7,0.6,1.3,1.3,1.3s1.3-0.6,1.3-1.3c0-1.3,0.1-2.6,0.2-3.8C34.3,58.3,33.8,57.6,33.1,57.5z"/>
				<path class="st2" d="M17.3,29.1c-0.6-0.5-1.4-0.4-1.9,0.1c-0.5,0.6-0.4,1.4,0.1,1.9c2.1,1.8,4.1,3.8,5.8,5.8
					c0.3,0.3,0.6,0.5,1,0.5c0.3,0,0.6-0.1,0.9-0.3c0.6-0.5,0.6-1.3,0.1-1.9C21.5,33.1,19.5,31.1,17.3,29.1z"/>
				<path class="st2" d="M32,50.2c-0.9-2.7-2.1-5.4-3.6-7.9c-0.4-0.6-1.2-0.8-1.8-0.5c-0.6,0.4-0.8,1.2-0.5,1.8
					c1.4,2.4,2.5,4.9,3.4,7.4c0.2,0.6,0.7,0.9,1.3,0.9c0.1,0,0.3,0,0.4-0.1C31.9,51.6,32.2,50.9,32,50.2z"/>
				<path class="st2" d="M10.4,24c-2.1-1.4-3.5-2.1-3.5-2.1c-0.7-0.3-1.5-0.1-1.8,0.6S5,23.9,5.7,24.3c0,0,1.3,0.7,3.3,1.9
					c0.2,0.1,0.5,0.2,0.7,0.2c0.4,0,0.9-0.2,1.1-0.6C11.1,25.2,11,24.4,10.4,24z"/>
				<path class="st2" d="M54.4,24.4c-0.5,0.4-1.1,0.8-1.8,1.2c-0.6,0.4-0.7,1.3-0.3,1.8c0.3,0.4,0.7,0.6,1.1,0.6
					c0.3,0,0.5-0.1,0.8-0.2c0.6-0.4,1.1-0.8,1.7-1.1C55.3,25.9,54.8,25.2,54.4,24.4z"/>
			</g>
		</g>
	</g>
	<g class="st1">
		<path class="st3" d="M77.7,16l-11.6-1.1L61.5,4.2c-0.3-0.7-1.4-0.7-1.7,0l-4.6,10.7L43.6,16c-0.8,0.1-1.1,1.1-0.5,1.6l8.7,7.7
			l-2.6,11.3c-0.2,0.8,0.7,1.4,1.4,1l10-5.9l10,5.9c0.7,0.4,1.6-0.2,1.4-1l-2.6-11.3l8.7-7.7C78.8,17.1,78.5,16.1,77.7,16z"/>
		<path class="st4" d="M63.2,8.1l-1.7-3.9c-0.3-0.7-1.4-0.7-1.7,0l-4.6,10.7L43.6,16c-0.8,0.1-1.1,1.1-0.5,1.6l8.7,7.7l-2.6,11.3
			c-0.2,0.8,0.7,1.4,1.4,1l1.3-0.8C54.1,22.7,60.3,12.3,63.2,8.1z"/>
	</g>
	<g class="st1">
		<path class="st2" d="M40,71H25.9c-0.6,0-1-0.4-1-1s0.4-1,1-1H40c0.6,0,1,0.4,1,1S40.6,71,40,71z"/>
	</g>
	<g class="st1">
		<path class="st2" d="M38,76H28c-0.6,0-1-0.4-1-1s0.4-1,1-1h10c0.6,0,1,0.4,1,1S38.5,76,38,76z"/>
	</g>
</g>
<g>
	<defs>
		<rect id="SVGID_1_" width="80" height="80"/>
	</defs>
	<clipPath id="SVGID_2_">
		<use xlink:href="#SVGID_1_"  style="overflow:visible;"/>
	</clipPath>
	<g class="st5">
		<g>
			<path class="st6" d="M29.9,30.1l-15.2-5.8L12.5,8.2c-0.2-1.1-1.6-1.5-2.3-0.6L0,20.2l-16-2.9c-1.1-0.2-1.9,1-1.3,2l8.9,13.6
				l-7.6,14.3c-0.6,1,0.4,2.1,1.5,1.9l15.7-4.3l11.3,11.7c0.8,0.8,2.1,0.3,2.3-0.8l0.8-16.2L30,32.4C31.1,31.9,31,30.4,29.9,30.1z"
				/>
		</g>
		<path class="st6" d="M13.3,14l-0.8-5.8c-0.2-1.1-1.6-1.5-2.3-0.6L0,20.2l-16-2.9c-1.1-0.2-1.9,1-1.3,2l8.9,13.6l-7.6,14.3
			c-0.6,1,0.4,2.1,1.5,1.9l2.1-0.6C-4.3,30.3,7.8,18.6,13.3,14z"/>
	</g>
	<path class="st7" d="M41.3,22.8c4.9,0.2,9.8-1.5,13.5-4.9c3.6-3.2,5.7-7.7,6.1-12.5l3.4,0.2c-0.4,5.7-2.9,10.9-7.2,14.8
		c-4.4,4-10.1,6-15.9,5.7c-5.9-0.3-11.3-2.8-15.3-7.2l2.6-2.2C31.8,20.4,36.3,22.6,41.3,22.8z"/>
	<path class="st7" d="M33.5,15.7c0.9,0.2,1.5,1.1,1.3,2c-0.2,0.9-1.1,1.5-2,1.3l-5.1-1.1L26.6,23c-0.2,0.9-1.1,1.5-2,1.3
		c-0.9-0.2-1.5-1.1-1.3-2l1.8-8.4L33.5,15.7z"/>
	<g class="st5">
		<g>
			<path class="st3" d="M90.3,56.2L74,50l-2.4-17.3c-0.2-1.2-1.7-1.6-2.5-0.7L58.2,45.6L41,42.5c-1.2-0.2-2.1,1.1-1.4,2.1l9.5,14.6
				l-8.2,15.4c-0.6,1.1,0.4,2.3,1.6,2L59.4,72l12.1,12.6c0.9,0.9,2.3,0.3,2.4-0.9l0.9-17.4l15.7-7.6C91.5,58.1,91.4,56.6,90.3,56.2z
				"/>
		</g>
		<path class="st4" d="M72.5,39l-0.9-6.3c-0.2-1.2-1.7-1.6-2.5-0.7L58.2,45.6L41,42.5c-1.2-0.2-2.1,1.1-1.4,2.1l9.5,14.6l-8.2,15.4
			c-0.6,1.1,0.4,2.3,1.6,2l2.2-0.6C53.6,56.4,66.6,43.9,72.5,39z"/>
	</g>
</g>
</svg>
