<?xml version="1.0" encoding="utf-8"?>
<!-- Generator: Adobe Illustrator 21.0.0, SVG Export Plug-In . SVG Version: 6.00 Build 0)  -->
<svg version="1.1" id="Layer_1" xmlns="http://www.w3.org/2000/svg" xmlns:xlink="http://www.w3.org/1999/xlink" x="0px" y="0px"
	 viewBox="0 0 80 80" style="enable-background:new 0 0 80 80;" xml:space="preserve">
<style type="text/css">
	.st0{display:none;}
	.st1{display:inline;}
	.st2{fill:#7F7F7F;}
	.st3{fill:#FFDC64;}
	.st4{fill:#FFC850;}
</style>
<g class="st0">
	<g class="st1">
		<g>
			<g>
				<path class="st2" d="M38.3,42.8c-0.6-0.4-1.4-0.1-1.8,0.5c-1.3,2.4-2.4,4.9-3.2,7.4c-0.2,0.7,0.2,1.4,0.9,1.7
					c0.1,0,0.3,0.1,0.4,0.1c0.6,0,1.1-0.4,1.3-0.9c0.8-2.4,1.8-4.7,3-7C39.2,43.9,38.9,43.1,38.3,42.8z"/>
				<path class="st2" d="M46.5,30.7c-2,1.9-3.8,3.9-5.5,5.9c-0.5,0.6-0.4,1.4,0.2,1.9c0.2,0.2,0.5,0.3,0.8,0.3c0.4,0,0.8-0.2,1-0.5
					c1.5-1.9,3.3-3.8,5.2-5.6c0.5-0.5,0.6-1.3,0.1-1.9C47.8,30.2,47,30.2,46.5,30.7z"/>
				<path class="st2" d="M33.1,57.5c-0.1,0-0.2,0-0.3,0c-0.1,0-0.2,0-0.3,0c-0.7,0.1-1.3,0.7-1.2,1.5c0.1,1.3,0.2,2.6,0.2,3.8
					c0,0.7,0.6,1.3,1.3,1.3s1.3-0.6,1.3-1.3c0-1.3,0.1-2.6,0.2-3.8C34.3,58.3,33.8,57.6,33.1,57.5z"/>
				<path class="st2" d="M17.3,29.1c-0.6-0.5-1.4-0.4-1.9,0.1c-0.5,0.6-0.4,1.4,0.1,1.9c2.1,1.8,4.1,3.8,5.8,5.8
					c0.3,0.3,0.6,0.5,1,0.5c0.3,0,0.6-0.1,0.9-0.3c0.6-0.5,0.6-1.3,0.1-1.9C21.5,33.1,19.5,31.1,17.3,29.1z"/>
				<path class="st2" d="M32,50.2c-0.9-2.7-2.1-5.4-3.6-7.9c-0.4-0.6-1.2-0.8-1.8-0.5c-0.6,0.4-0.8,1.2-0.5,1.8
					c1.4,2.4,2.5,4.9,3.4,7.4c0.2,0.6,0.7,0.9,1.3,0.9c0.1,0,0.3,0,0.4-0.1C31.9,51.6,32.2,50.9,32,50.2z"/>
				<path class="st2" d="M10.4,24c-2.1-1.4-3.5-2.1-3.5-2.1c-0.7-0.3-1.5-0.1-1.8,0.6c-0.3,0.7-0.1,1.4,0.6,1.8c0,0,1.3,0.7,3.3,1.9
					c0.2,0.1,0.5,0.2,0.7,0.2c0.4,0,0.9-0.2,1.1-0.6C11.1,25.2,11,24.4,10.4,24z"/>
				<path class="st2" d="M54.4,24.4c-0.5,0.4-1.1,0.8-1.8,1.2c-0.6,0.4-0.7,1.3-0.3,1.8c0.3,0.4,0.7,0.6,1.1,0.6
					c0.3,0,0.5-0.1,0.8-0.2c0.6-0.4,1.1-0.8,1.7-1.1C55.3,25.9,54.8,25.2,54.4,24.4z"/>
			</g>
		</g>
	</g>
	<g class="st1">
		<path class="st3" d="M77.7,16l-11.6-1.1L61.5,4.2c-0.3-0.7-1.4-0.7-1.7,0l-4.6,10.7L43.6,16c-0.8,0.1-1.1,1.1-0.5,1.6l8.7,7.7
			l-2.6,11.3c-0.2,0.8,0.7,1.4,1.4,1l10-5.9l10,5.9c0.7,0.4,1.6-0.2,1.4-1l-2.6-11.3l8.7-7.7C78.8,17.1,78.5,16.1,77.7,16z"/>
		<path class="st4" d="M63.2,8.1l-1.7-3.9c-0.3-0.7-1.4-0.7-1.7,0l-4.6,10.7L43.6,16c-0.8,0.1-1.1,1.1-0.5,1.6l8.7,7.7l-2.6,11.3
			c-0.2,0.8,0.7,1.4,1.4,1l1.3-0.8C54.1,22.7,60.3,12.3,63.2,8.1z"/>
	</g>
	<g class="st1">
		<path class="st2" d="M40,71H25.9c-0.6,0-1-0.4-1-1s0.4-1,1-1H40c0.6,0,1,0.4,1,1S40.6,71,40,71z"/>
	</g>
	<g class="st1">
		<path class="st2" d="M38,76H28c-0.6,0-1-0.4-1-1s0.4-1,1-1h10c0.6,0,1,0.4,1,1S38.5,76,38,76z"/>
	</g>
</g>
<g>
	<g>
		<g>
			<path class="st3" d="M65.3,28.9l-17.4-1.6l-6.9-16c-0.5-1.1-2.1-1.1-2.6,0l-6.9,16l-17.4,1.6c-1.2,0.1-1.7,1.6-0.8,2.4l13.1,11.5
				l-3.8,17c-0.3,1.2,1,2.1,2.1,1.5l15-8.9l15,8.9c1.1,0.6,2.3-0.3,2.1-1.5l-3.8-17l13.1-11.5C67,30.5,66.5,29,65.3,28.9z"/>
		</g>
		<g>
			<path class="st2" d="M22,10.7c0.9,1.2,3.4,6.5,4.8,9.6c0.2,0.5-0.4,0.9-0.8,0.6c-2.5-2.3-6.7-6.4-7.6-7.6c-0.7-1-0.5-2.3,0.5-3
				C19.9,9.5,21.3,9.7,22,10.7z"/>
			<path class="st2" d="M57.5,10.7c-0.9,1.2-3.4,6.5-4.8,9.6c-0.2,0.5,0.4,0.9,0.8,0.6c2.5-2.3,6.7-6.4,7.6-7.6c0.7-1,0.5-2.3-0.5-3
				C59.6,9.5,58.2,9.7,57.5,10.7z"/>
			<path class="st2" d="M71.5,46.8c-1.4-0.5-7.2-1.2-10.6-1.7c-0.5-0.1-0.8,0.6-0.3,0.9c3,1.6,8.1,4.4,9.5,4.9
				c1.1,0.4,2.4-0.3,2.7-1.4C73.3,48.4,72.6,47.2,71.5,46.8z"/>
			<path class="st2" d="M8,46.8c1.4-0.5,7.2-1.2,10.6-1.7c0.5-0.1,0.8,0.6,0.3,0.9c-3,1.6-8.1,4.4-9.5,4.9c-1.1,0.4-2.4-0.3-2.7-1.4
				C6.2,48.4,6.9,47.2,8,46.8z"/>
			<path class="st2" d="M37.6,71.3c0-1.5,1.1-7.3,1.7-10.6c0.1-0.5,0.8-0.5,0.9,0C40.9,64,42,69.8,42,71.3c0,1.2-1,2.2-2.2,2.2
				C38.6,73.5,37.6,72.5,37.6,71.3z"/>
		</g>
	</g>
	<path class="st4" d="M43.5,17.1L41,11.3c-0.5-1.1-2.1-1.1-2.6,0l-6.9,16l-17.4,1.6c-1.2,0.1-1.7,1.6-0.8,2.4l13.1,11.5l-3.8,17
		c-0.3,1.2,1,2.1,2.1,1.5l2-1.2C30,39,39.2,23.4,43.5,17.1z"/>
</g>
</svg>
