<?xml version="1.0" encoding="utf-8"?>
<!-- Generator: Adobe Illustrator 21.0.0, SVG Export Plug-In . SVG Version: 6.00 Build 0)  -->
<svg version="1.1" id="Layer_1" xmlns="http://www.w3.org/2000/svg" xmlns:xlink="http://www.w3.org/1999/xlink" x="0px" y="0px"
	 viewBox="0 0 80 80" style="enable-background:new 0 0 80 80;" xml:space="preserve">
<style type="text/css">
	.st0{display:none;}
	.st1{display:inline;}
	.st2{fill:#7F7F7F;}
	.st3{fill:#FFDC64;}
	.st4{fill:#FFC850;}
</style>
<g class="st0">
	<g class="st1">
		<g>
			<g>
				<path class="st2" d="M38.3,42.8c-0.6-0.4-1.4-0.1-1.8,0.5c-1.3,2.4-2.4,4.9-3.2,7.4c-0.2,0.7,0.2,1.4,0.9,1.7
					c0.1,0,0.3,0.1,0.4,0.1c0.6,0,1.1-0.4,1.3-0.9c0.8-2.4,1.8-4.7,3-7C39.2,43.9,38.9,43.1,38.3,42.8z"/>
				<path class="st2" d="M46.5,30.7c-2,1.9-3.8,3.9-5.5,5.9c-0.5,0.6-0.4,1.4,0.2,1.9c0.2,0.2,0.5,0.3,0.8,0.3c0.4,0,0.8-0.2,1-0.5
					c1.5-1.9,3.3-3.8,5.2-5.6c0.5-0.5,0.6-1.3,0.1-1.9C47.8,30.2,47,30.2,46.5,30.7z"/>
				<path class="st2" d="M33.1,57.5c-0.1,0-0.2,0-0.3,0s-0.2,0-0.3,0c-0.7,0.1-1.3,0.7-1.2,1.5c0.1,1.3,0.2,2.6,0.2,3.8
					c0,0.7,0.6,1.3,1.3,1.3s1.3-0.6,1.3-1.3c0-1.3,0.1-2.6,0.2-3.8C34.3,58.3,33.8,57.6,33.1,57.5z"/>
				<path class="st2" d="M17.3,29.1c-0.6-0.5-1.4-0.4-1.9,0.1c-0.5,0.6-0.4,1.4,0.1,1.9c2.1,1.8,4.1,3.8,5.8,5.8
					c0.3,0.3,0.6,0.5,1,0.5c0.3,0,0.6-0.1,0.9-0.3c0.6-0.5,0.6-1.3,0.1-1.9C21.5,33.1,19.5,31.1,17.3,29.1z"/>
				<path class="st2" d="M32,50.2c-0.9-2.7-2.1-5.4-3.6-7.9c-0.4-0.6-1.2-0.8-1.8-0.5c-0.6,0.4-0.8,1.2-0.5,1.8
					c1.4,2.4,2.5,4.9,3.4,7.4c0.2,0.6,0.7,0.9,1.3,0.9c0.1,0,0.3,0,0.4-0.1C31.9,51.6,32.2,50.9,32,50.2z"/>
				<path class="st2" d="M10.4,24c-2.1-1.4-3.5-2.1-3.5-2.1c-0.7-0.3-1.5-0.1-1.8,0.6S5,23.9,5.7,24.3c0,0,1.3,0.7,3.3,1.9
					c0.2,0.1,0.5,0.2,0.7,0.2c0.4,0,0.9-0.2,1.1-0.6C11.1,25.2,11,24.4,10.4,24z"/>
				<path class="st2" d="M54.4,24.4c-0.5,0.4-1.1,0.8-1.8,1.2c-0.6,0.4-0.7,1.3-0.3,1.8c0.3,0.4,0.7,0.6,1.1,0.6
					c0.3,0,0.5-0.1,0.8-0.2c0.6-0.4,1.1-0.8,1.7-1.1C55.3,25.9,54.8,25.2,54.4,24.4z"/>
			</g>
		</g>
	</g>
	<g class="st1">
		<path class="st3" d="M77.7,16l-11.6-1.1L61.5,4.2c-0.3-0.7-1.4-0.7-1.7,0l-4.6,10.7L43.6,16c-0.8,0.1-1.1,1.1-0.5,1.6l8.7,7.7
			l-2.6,11.3c-0.2,0.8,0.7,1.4,1.4,1l10-5.9l10,5.9c0.7,0.4,1.6-0.2,1.4-1l-2.6-11.3l8.7-7.7C78.8,17.1,78.5,16.1,77.7,16z"/>
		<path class="st4" d="M63.2,8.1l-1.7-3.9c-0.3-0.7-1.4-0.7-1.7,0l-4.6,10.7L43.6,16c-0.8,0.1-1.1,1.1-0.5,1.6l8.7,7.7l-2.6,11.3
			c-0.2,0.8,0.7,1.4,1.4,1l1.3-0.8C54.1,22.7,60.3,12.3,63.2,8.1z"/>
	</g>
	<g class="st1">
		<path class="st2" d="M40,71H25.9c-0.6,0-1-0.4-1-1s0.4-1,1-1H40c0.6,0,1,0.4,1,1S40.6,71,40,71z"/>
	</g>
	<g class="st1">
		<path class="st2" d="M38,76H28c-0.6,0-1-0.4-1-1s0.4-1,1-1h10c0.6,0,1,0.4,1,1S38.5,76,38,76z"/>
	</g>
</g>
<g>
	<g>
		<g>
			<path class="st3" d="M58.3,28.4l-12.4-1.2L41,15.8c-0.3-0.8-1.5-0.8-1.8,0l-4.9,11.5l-12.5,1.2c-0.9,0.1-1.2,1.2-0.6,1.7l9.4,8.2
				l-2.8,12.2c-0.2,0.9,0.7,1.5,1.5,1.1l10.7-6.3l10.7,6.3c0.7,0.5,1.7-0.2,1.5-1.1l-2.8-12.2l9.4-8.2
				C59.5,29.6,59.2,28.5,58.3,28.4z"/>
		</g>
	</g>
	<path class="st4" d="M42.7,20l-1.8-4.2c-0.3-0.8-1.5-0.8-1.8,0l-4.9,11.5l-12.4,1.2c-0.9,0.1-1.2,1.2-0.6,1.7l9.4,8.2l-2.8,12.2
		c-0.2,0.9,0.7,1.5,1.5,1.1l1.4-0.9C33,35.7,39.6,24.5,42.7,20z"/>
</g>
<g>
	<g>
		<path class="st2" d="M17.1,27.3l-4-4c-0.3-0.3-0.8-0.3-1.1,0c-0.3,0.3-0.3,0.8,0,1.1l2.7,2.7l-8.6,0c-0.4,0-0.8,0.3-0.8,0.8
			c0,0.4,0.3,0.8,0.8,0.8l8.6,0l-2.7,2.7c-0.3,0.3-0.3,0.8,0,1.1c0.3,0.3,0.8,0.3,1.1,0l4-4C17.4,28.1,17.4,27.6,17.1,27.3z"/>
	</g>
</g>
<g>
	<g>
		<path class="st2" d="M16.6,41.9H8l2.7-2.7c0.3-0.3,0.3-0.8,0-1.1c-0.3-0.3-0.8-0.3-1.1,0l-4,4c-0.3,0.3-0.3,0.8,0,1.1l4,4
			c0.3,0.3,0.8,0.3,1.1,0c0.3-0.3,0.3-0.8,0-1.1L8,43.4h8.6c0.4,0,0.8-0.3,0.8-0.8S17,41.9,16.6,41.9z"/>
	</g>
</g>
<g>
	<g>
		<path class="st2" d="M62.7,28.4l4,4c0.3,0.3,0.8,0.3,1.1,0s0.3-0.8,0-1.1L65,28.6h8.6c0.4,0,0.8-0.3,0.8-0.8
			c0-0.4-0.3-0.8-0.8-0.8l-8.6,0l2.7-2.7c0.3-0.3,0.3-0.8,0-1.1c-0.3-0.3-0.8-0.3-1.1,0l-4,4C62.4,27.6,62.4,28.1,62.7,28.4z"/>
	</g>
</g>
<g>
	<g>
		<path class="st2" d="M62.4,42.7c0,0.4,0.3,0.8,0.8,0.8h8.6l-2.7,2.7c-0.3,0.3-0.3,0.8,0,1.1c0.3,0.3,0.8,0.3,1.1,0l4-4
			c0.3-0.3,0.3-0.8,0-1.1l-4-4c-0.3-0.3-0.8-0.3-1.1,0s-0.3,0.8,0,1.1l2.7,2.7h-8.6C62.8,41.9,62.4,42.2,62.4,42.7z"/>
	</g>
</g>
<g>
	<g>
		<path class="st2" d="M8.5,64.1c1.8,0,2.6,0.8,3.7,1.7c1.2,1.1,2.5,2.3,5.1,2.3s3.9-1.2,5.1-2.3c1.1-1,1.9-1.7,3.7-1.7
			c1.8,0,2.6,0.8,3.7,1.7c1.2,1.1,2.5,2.3,5.1,2.3c2.6,0,3.9-1.2,5.1-2.3c1.1-1,1.9-1.7,3.7-1.7c1.8,0,2.6,0.8,3.7,1.7
			c1.2,1.1,2.5,2.3,5.1,2.3s3.9-1.2,5.1-2.3c1.1-1,1.9-1.7,3.7-1.7s2.6,0.8,3.7,1.7c1.2,1.1,2.5,2.3,5.1,2.3c0.6,0,1.1-0.5,1.1-1.1
			S70.5,66,69.9,66c-1.8,0-2.6-0.8-3.7-1.7c-1.2-1.1-2.5-2.3-5.1-2.3c-2.6,0-3.9,1.2-5.1,2.3c-1.1,1-1.9,1.7-3.7,1.7
			c-1.8,0-2.6-0.8-3.7-1.7c-1.2-1.1-2.5-2.3-5.1-2.3s-3.9,1.2-5.1,2.3c-1.1,1-1.9,1.7-3.7,1.7s-2.6-0.8-3.7-1.7
			C30,63.2,28.6,62,26,62s-3.9,1.2-5.1,2.3c-1.1,1-1.9,1.7-3.7,1.7c-1.8,0-2.6-0.8-3.7-1.7c-1.2-1.1-2.5-2.3-5.1-2.3
			c-0.6,0-1.1,0.5-1.1,1.1C7.4,63.6,7.9,64.1,8.5,64.1z"/>
	</g>
</g>
</svg>
