<?xml version="1.0" encoding="utf-8"?>
<!-- Generator: Adobe Illustrator 21.0.0, SVG Export Plug-In . SVG Version: 6.00 Build 0)  -->
<svg version="1.1" id="Layer_1" xmlns="http://www.w3.org/2000/svg" xmlns:xlink="http://www.w3.org/1999/xlink" x="0px" y="0px"
	 viewBox="0 0 80 80" style="enable-background:new 0 0 80 80;" xml:space="preserve">
<style type="text/css">
	.st0{fill:#F2F2F2;}
	.st1{fill:#D8D8D8;}
	.st2{display:none;}
	.st3{display:inline;}
	.st4{fill:#7F7F7F;}
	.st5{fill:#FFDC64;}
	.st6{fill:#FFC850;}
</style>
<g>
	<path class="st0" d="M33.6,54.9L23.2,54l-4.1-9.5c-0.3-0.7-1.2-0.7-1.5,0L13.5,54L3.2,54.9c-0.7,0.1-1,0.9-0.5,1.4l7.8,6.8
		L8.2,73.3c-0.2,0.7,0.6,1.2,1.2,0.9l8.9-5.3l8.9,5.3c0.7,0.4,1.4-0.2,1.2-0.9l-2.3-10.1l7.8-6.8C34.6,55.9,34.3,55,33.6,54.9z"/>
</g>
<g>
	<path class="st1" d="M56.5,38l-14.7-1.4L36,23.2c-0.4-0.9-1.8-0.9-2.2,0L28,36.7L13.3,38c-1,0.1-1.4,1.4-0.7,2l11.1,9.7l-3.2,14.4
		c-0.3,1,0.8,1.8,1.8,1.3l12.7-7.5l12.7,7.5c0.9,0.5,1.9-0.3,1.8-1.3l-3.2-14.4L57.2,40C57.9,39.4,57.5,38.1,56.5,38z"/>
</g>
<g class="st2">
	<g class="st3">
		<g>
			<g>
				<path class="st4" d="M38.3,42.8c-0.6-0.4-1.4-0.1-1.8,0.5c-1.3,2.4-2.4,4.9-3.2,7.4c-0.2,0.7,0.2,1.4,0.9,1.7
					c0.1,0,0.3,0.1,0.4,0.1c0.6,0,1.1-0.4,1.3-0.9c0.8-2.4,1.8-4.7,3-7C39.2,43.9,38.9,43.1,38.3,42.8z"/>
				<path class="st4" d="M46.5,30.7c-2,1.9-3.8,3.9-5.5,5.9c-0.5,0.6-0.4,1.4,0.2,1.9c0.2,0.2,0.5,0.3,0.8,0.3c0.4,0,0.8-0.2,1-0.5
					c1.5-1.9,3.3-3.8,5.2-5.6c0.5-0.5,0.6-1.3,0.1-1.9C47.8,30.2,47,30.2,46.5,30.7z"/>
				<path class="st4" d="M33.1,57.5c-0.1,0-0.2,0-0.3,0c-0.1,0-0.2,0-0.3,0c-0.7,0.1-1.3,0.7-1.2,1.5c0.1,1.3,0.2,2.6,0.2,3.8
					c0,0.7,0.6,1.3,1.3,1.3s1.3-0.6,1.3-1.3c0-1.3,0.1-2.6,0.2-3.8C34.3,58.3,33.8,57.6,33.1,57.5z"/>
				<path class="st4" d="M17.3,29.1c-0.6-0.5-1.4-0.4-1.9,0.1c-0.5,0.6-0.4,1.4,0.1,1.9c2.1,1.8,4.1,3.8,5.8,5.8
					c0.3,0.3,0.6,0.5,1,0.5c0.3,0,0.6-0.1,0.9-0.3c0.6-0.5,0.6-1.3,0.1-1.9C21.5,33.1,19.5,31.1,17.3,29.1z"/>
				<path class="st4" d="M32,50.2c-0.9-2.7-2.1-5.4-3.6-7.9c-0.4-0.6-1.2-0.8-1.8-0.5c-0.6,0.4-0.8,1.2-0.5,1.8
					c1.4,2.4,2.5,4.9,3.4,7.4c0.2,0.6,0.7,0.9,1.3,0.9c0.1,0,0.3,0,0.4-0.1C31.9,51.6,32.2,50.9,32,50.2z"/>
				<path class="st4" d="M10.4,24c-2.1-1.4-3.5-2.1-3.5-2.1c-0.7-0.3-1.5-0.1-1.8,0.6c-0.3,0.7-0.1,1.4,0.6,1.8c0,0,1.3,0.7,3.3,1.9
					c0.2,0.1,0.5,0.2,0.7,0.2c0.4,0,0.9-0.2,1.1-0.6C11.1,25.2,11,24.4,10.4,24z"/>
				<path class="st4" d="M54.4,24.4c-0.5,0.4-1.1,0.8-1.8,1.2c-0.6,0.4-0.7,1.3-0.3,1.8c0.3,0.4,0.7,0.6,1.1,0.6
					c0.3,0,0.5-0.1,0.8-0.2c0.6-0.4,1.1-0.8,1.7-1.1C55.3,25.9,54.8,25.2,54.4,24.4z"/>
			</g>
		</g>
	</g>
	<g class="st3">
		<path class="st5" d="M77.7,16l-11.6-1.1L61.5,4.2c-0.3-0.7-1.4-0.7-1.7,0l-4.6,10.7L43.6,16c-0.8,0.1-1.1,1.1-0.5,1.6l8.7,7.7
			l-2.6,11.3c-0.2,0.8,0.7,1.4,1.4,1l10-5.9l10,5.9c0.7,0.4,1.6-0.2,1.4-1l-2.6-11.3l8.7-7.7C78.8,17.1,78.5,16.1,77.7,16z"/>
		<path class="st6" d="M63.2,8.1l-1.7-3.9c-0.3-0.7-1.4-0.7-1.7,0l-4.6,10.7L43.6,16c-0.8,0.1-1.1,1.1-0.5,1.6l8.7,7.7l-2.6,11.3
			c-0.2,0.8,0.7,1.4,1.4,1l1.3-0.8C54.1,22.7,60.3,12.3,63.2,8.1z"/>
	</g>
	<g class="st3">
		<path class="st4" d="M40,71H25.9c-0.6,0-1-0.4-1-1s0.4-1,1-1H40c0.6,0,1,0.4,1,1S40.6,71,40,71z"/>
	</g>
	<g class="st3">
		<path class="st4" d="M38,76H28c-0.6,0-1-0.4-1-1s0.4-1,1-1h10c0.6,0,1,0.4,1,1S38.5,76,38,76z"/>
	</g>
</g>
<g>
	<path class="st5" d="M77.7,23.9l-17.4-1.6l-6.9-16c-0.5-1.1-2.1-1.1-2.6,0l-6.9,16l-17.4,1.6c-1.2,0.1-1.7,1.6-0.8,2.4l13.1,11.5
		l-3.8,17c-0.3,1.2,1,2.1,2.1,1.5l15-8.9l15,8.9c1.1,0.6,2.3-0.3,2.1-1.5l-3.8-17l13.1-11.5C79.4,25.5,78.9,24,77.7,23.9z"/>
</g>
<path class="st6" d="M55.9,12.1l-2.5-5.8c-0.5-1.1-2.1-1.1-2.6,0l-6.9,16l-17.4,1.6c-1.2,0.1-1.7,1.6-0.8,2.4l13.1,11.5l-3.8,17
	c-0.3,1.2,1,2.1,2.1,1.5l2-1.2C42.4,34,51.6,18.4,55.9,12.1z"/>
</svg>
