<?xml version="1.0" encoding="utf-8"?>
<!-- Generator: Adobe Illustrator 21.0.0, SVG Export Plug-In . SVG Version: 6.00 Build 0)  -->
<svg version="1.1" id="Layer_1" xmlns="http://www.w3.org/2000/svg" xmlns:xlink="http://www.w3.org/1999/xlink" x="0px" y="0px"
	 viewBox="0 0 80 80" style="enable-background:new 0 0 80 80;" xml:space="preserve">
<style type="text/css">
	.st0{display:none;}
	.st1{display:inline;}
	.st2{fill:#7F7F7F;}
	.st3{fill:#FFDC64;}
	.st4{fill:#FFC850;}
	.st5{opacity:0.3;}
</style>
<g class="st0">
	<g class="st1">
		<g>
			<g>
				<path class="st2" d="M38.3,42.8c-0.6-0.4-1.4-0.1-1.8,0.5c-1.3,2.4-2.4,4.9-3.2,7.4c-0.2,0.7,0.2,1.4,0.9,1.7
					c0.1,0,0.3,0.1,0.4,0.1c0.6,0,1.1-0.4,1.3-0.9c0.8-2.4,1.8-4.7,3-7C39.2,43.9,38.9,43.1,38.3,42.8z"/>
				<path class="st2" d="M46.5,30.7c-2,1.9-3.8,3.9-5.5,5.9c-0.5,0.6-0.4,1.4,0.2,1.9c0.2,0.2,0.5,0.3,0.8,0.3c0.4,0,0.8-0.2,1-0.5
					c1.5-1.9,3.3-3.8,5.2-5.6c0.5-0.5,0.6-1.3,0.1-1.9C47.8,30.2,47,30.2,46.5,30.7z"/>
				<path class="st2" d="M33.1,57.5c-0.1,0-0.2,0-0.3,0s-0.2,0-0.3,0c-0.7,0.1-1.3,0.7-1.2,1.5c0.1,1.3,0.2,2.6,0.2,3.8
					c0,0.7,0.6,1.3,1.3,1.3s1.3-0.6,1.3-1.3c0-1.3,0.1-2.6,0.2-3.8C34.3,58.3,33.8,57.6,33.1,57.5z"/>
				<path class="st2" d="M17.3,29.1c-0.6-0.5-1.4-0.4-1.9,0.1c-0.5,0.6-0.4,1.4,0.1,1.9c2.1,1.8,4.1,3.8,5.8,5.8
					c0.3,0.3,0.6,0.5,1,0.5c0.3,0,0.6-0.1,0.9-0.3c0.6-0.5,0.6-1.3,0.1-1.9C21.5,33.1,19.5,31.1,17.3,29.1z"/>
				<path class="st2" d="M32,50.2c-0.9-2.7-2.1-5.4-3.6-7.9c-0.4-0.6-1.2-0.8-1.8-0.5c-0.6,0.4-0.8,1.2-0.5,1.8
					c1.4,2.4,2.5,4.9,3.4,7.4c0.2,0.6,0.7,0.9,1.3,0.9c0.1,0,0.3,0,0.4-0.1C31.9,51.6,32.2,50.9,32,50.2z"/>
				<path class="st2" d="M10.4,24c-2.1-1.4-3.5-2.1-3.5-2.1c-0.7-0.3-1.5-0.1-1.8,0.6S5,23.9,5.7,24.3c0,0,1.3,0.7,3.3,1.9
					c0.2,0.1,0.5,0.2,0.7,0.2c0.4,0,0.9-0.2,1.1-0.6C11.1,25.2,11,24.4,10.4,24z"/>
				<path class="st2" d="M54.4,24.4c-0.5,0.4-1.1,0.8-1.8,1.2c-0.6,0.4-0.7,1.3-0.3,1.8c0.3,0.4,0.7,0.6,1.1,0.6
					c0.3,0,0.5-0.1,0.8-0.2c0.6-0.4,1.1-0.8,1.7-1.1C55.3,25.9,54.8,25.2,54.4,24.4z"/>
			</g>
		</g>
	</g>
	<g class="st1">
		<path class="st3" d="M77.7,16l-11.6-1.1L61.5,4.2c-0.3-0.7-1.4-0.7-1.7,0l-4.6,10.7L43.6,16c-0.8,0.1-1.1,1.1-0.5,1.6l8.7,7.7
			l-2.6,11.3c-0.2,0.8,0.7,1.4,1.4,1l10-5.9l10,5.9c0.7,0.4,1.6-0.2,1.4-1l-2.6-11.3l8.7-7.7C78.8,17.1,78.5,16.1,77.7,16z"/>
		<path class="st4" d="M63.2,8.1l-1.7-3.9c-0.3-0.7-1.4-0.7-1.7,0l-4.6,10.7L43.6,16c-0.8,0.1-1.1,1.1-0.5,1.6l8.7,7.7l-2.6,11.3
			c-0.2,0.8,0.7,1.4,1.4,1l1.3-0.8C54.1,22.7,60.3,12.3,63.2,8.1z"/>
	</g>
	<g class="st1">
		<path class="st2" d="M40,71H25.9c-0.6,0-1-0.4-1-1s0.4-1,1-1H40c0.6,0,1,0.4,1,1S40.6,71,40,71z"/>
	</g>
	<g class="st1">
		<path class="st2" d="M38,76H28c-0.6,0-1-0.4-1-1s0.4-1,1-1h10c0.6,0,1,0.4,1,1S38.5,76,38,76z"/>
	</g>
</g>
<g class="st5">
	<g>
		<g>
			<path class="st3" d="M67.4,34.9L52,38.6L41.5,26.9c-0.7-0.8-2.1-0.4-2.2,0.7l-1.2,15.7l-14.4,6.5c-1,0.5-1,1.9,0,2.3l14.6,6
				L40,73.8c0.1,1.1,1.5,1.5,2.2,0.7l10.2-12l15.4,3.2c1.1,0.2,1.9-1,1.3-1.9l-8.3-13.4l7.8-13.7C69.3,35.8,68.4,34.6,67.4,34.9z"/>
		</g>
	</g>
	<path class="st4" d="M45.3,31.2L41.5,27c-0.7-0.8-2.1-0.4-2.2,0.7l-1.2,15.7l-14.4,6.5c-1,0.5-1,1.9,0,2.3l14.6,6L40,73.8
		c0.1,1.1,1.5,1.5,2.2,0.7l1.4-1.6C40.2,53.8,43.5,37.8,45.3,31.2z"/>
</g>
<g>
	<g>
		<g>
			<path class="st3" d="M63.2,43.3l-15.7-1.5l-6.2-14.5c-0.4-1-1.9-1-2.3,0l-6.2,14.5L17,43.3c-1.1,0.1-1.5,1.5-0.7,2.2l11.8,10.4
				l-3.5,15.4c-0.2,1.1,0.9,1.9,1.9,1.4l13.5-8l13.5,8c0.9,0.6,2.1-0.3,1.9-1.4l-3.5-15.4l11.8-10.4C64.7,44.7,64.3,43.4,63.2,43.3z
				"/>
		</g>
	</g>
	<path class="st4" d="M43.5,32.6l-2.3-5.3c-0.4-1-1.9-1-2.3,0l-6.2,14.5L17,43.3c-1.1,0.1-1.5,1.5-0.7,2.2l11.8,10.4l-3.5,15.4
		c-0.2,1.1,0.9,1.9,1.9,1.4l1.8-1.1C31.3,52.4,39.6,38.3,43.5,32.6z"/>
</g>
<path class="st2" d="M39.1,21.5L39.1,21.5c-0.8,0-1.4,0.6-1.5,1.4c0,0.8,0.6,1.4,1.4,1.4c1,0,1.9,0,2.9,0c0.4,0,0.7-0.2,1-0.4
	c0.3-0.3,0.4-0.6,0.4-1c0-0.8-0.7-1.4-1.4-1.4C40.9,21.5,40,21.5,39.1,21.5z"/>
<path class="st2" d="M74.7,6.1L74.7,6.1c0-0.1-0.1-0.2-0.1-0.2c0-0.1-0.1-0.2-0.1-0.3c-0.1-0.1-0.1-0.2-0.2-0.2
	c0-0.1-0.1-0.1-0.2-0.2l0,0l0,0c-0.1,0-0.2-0.1-0.2-0.1s-0.1,0-0.1-0.1c-0.1,0-0.2-0.1-0.4-0.1l0,0c-0.1,0-0.2,0-0.3,0l-5.5,1
	c-0.8,0.1-1.3,0.9-1.1,1.6c0.1,0.8,0.9,1.3,1.6,1.1l1.8-0.3C64,15.1,56,19.5,47.2,21c-0.8,0.1-1.3,0.8-1.1,1.6
	c0.1,0.8,0.8,1.3,1.6,1.1c9.7-1.6,18.5-6.6,24.8-14.1l0.5,2.5c0.1,0.5,0.4,0.9,0.9,1.1s1,0.1,1.4-0.3c0.4-0.3,0.6-0.8,0.4-1.3
	L74.7,6.1z"/>
<path class="st2" d="M6.5,12.9c0.4,0.1,0.7,0,1-0.2s0.5-0.5,0.6-0.9l0.5-2.5c6.3,7.6,15,12.6,24.7,14.3c0.8,0.1,1.5-0.4,1.6-1.1
	c0.1-0.8-0.4-1.5-1.1-1.6c-8.8-1.5-16.7-6-22.5-12.8l1.8,0.4c0.8,0.1,1.5-0.3,1.6-1.1s-0.3-1.5-1.1-1.6L8.1,4.7c-0.1,0-0.2,0-0.3,0
	l0,0c-0.1,0-0.2,0-0.4,0.1c0,0-0.1,0-0.1,0.1C7.2,4.9,7.1,5,7.1,5l0,0l0,0C7,5,6.9,5,6.9,5.1C6.8,5.2,6.8,5.2,6.7,5.3
	C6.6,5.4,6.6,5.5,6.6,5.6S6.5,5.7,6.5,5.8l0,0l-1.1,5.4C5.2,12,5.7,12.8,6.5,12.9z"/>
</svg>
