<?xml version="1.0" encoding="utf-8"?>
<!-- Generator: Adobe Illustrator 21.0.0, SVG Export Plug-In . SVG Version: 6.00 Build 0)  -->
<svg version="1.1" id="Layer_1" xmlns="http://www.w3.org/2000/svg" xmlns:xlink="http://www.w3.org/1999/xlink" x="0px" y="0px"
	 viewBox="0 0 80 80" style="enable-background:new 0 0 80 80;" xml:space="preserve">
<style type="text/css">
	.st0{opacity:0.5;}
	.st1{fill:#FFDC64;}
	.st2{fill:#FFC850;}
	.st3{display:none;}
	.st4{display:inline;}
	.st5{fill:#7F7F7F;}
</style>
<g class="st0">
	<g>
		<path class="st1" d="M69.9,33.4l-19.6-1.8l-7.8-18.1c-0.6-1.2-2.4-1.2-2.9,0l-7.8,18.1l-19.6,1.8c-1.4,0.1-1.9,1.8-0.9,2.7
			l14.8,13l-4.3,19.2c-0.3,1.4,1.1,2.4,2.4,1.7l16.9-10L58,70c1.2,0.7,2.6-0.3,2.4-1.7l-4.3-19.2l14.8-13
			C71.9,35.2,71.3,33.5,69.9,33.4z"/>
	</g>
	<path class="st2" d="M45.3,20.1l-2.8-6.5c-0.6-1.2-2.4-1.2-2.9,0l-7.8,18.1l-19.6,1.8c-1.4,0.1-1.9,1.8-0.9,2.7l14.8,13l-4.3,19.2
		c-0.3,1.4,1.1,2.4,2.4,1.7l2.3-1.4C30.1,44.8,40.5,27.2,45.3,20.1z"/>
</g>
<g class="st3">
	<g class="st4">
		<g>
			<g>
				<path class="st5" d="M38.3,42.8c-0.6-0.4-1.4-0.1-1.8,0.5c-1.3,2.4-2.4,4.9-3.2,7.4c-0.2,0.7,0.2,1.4,0.9,1.7
					c0.1,0,0.3,0.1,0.4,0.1c0.6,0,1.1-0.4,1.3-0.9c0.8-2.4,1.8-4.7,3-7C39.2,43.9,38.9,43.1,38.3,42.8z"/>
				<path class="st5" d="M46.5,30.7c-2,1.9-3.8,3.9-5.5,5.9c-0.5,0.6-0.4,1.4,0.2,1.9c0.2,0.2,0.5,0.3,0.8,0.3c0.4,0,0.8-0.2,1-0.5
					c1.5-1.9,3.3-3.8,5.2-5.6c0.5-0.5,0.6-1.3,0.1-1.9C47.8,30.2,47,30.2,46.5,30.7z"/>
				<path class="st5" d="M33.1,57.5c-0.1,0-0.2,0-0.3,0c-0.1,0-0.2,0-0.3,0c-0.7,0.1-1.3,0.7-1.2,1.5c0.1,1.3,0.2,2.6,0.2,3.8
					c0,0.7,0.6,1.3,1.3,1.3s1.3-0.6,1.3-1.3c0-1.3,0.1-2.6,0.2-3.8C34.3,58.3,33.8,57.6,33.1,57.5z"/>
				<path class="st5" d="M17.3,29.1c-0.6-0.5-1.4-0.4-1.9,0.1c-0.5,0.6-0.4,1.4,0.1,1.9c2.1,1.8,4.1,3.8,5.8,5.8
					c0.3,0.3,0.6,0.5,1,0.5c0.3,0,0.6-0.1,0.9-0.3c0.6-0.5,0.6-1.3,0.1-1.9C21.5,33.1,19.5,31.1,17.3,29.1z"/>
				<path class="st5" d="M32,50.2c-0.9-2.7-2.1-5.4-3.6-7.9c-0.4-0.6-1.2-0.8-1.8-0.5c-0.6,0.4-0.8,1.2-0.5,1.8
					c1.4,2.4,2.5,4.9,3.4,7.4c0.2,0.6,0.7,0.9,1.3,0.9c0.1,0,0.3,0,0.4-0.1C31.9,51.6,32.2,50.9,32,50.2z"/>
				<path class="st5" d="M10.4,24c-2.1-1.4-3.5-2.1-3.5-2.1c-0.7-0.3-1.5-0.1-1.8,0.6c-0.3,0.7-0.1,1.4,0.6,1.8c0,0,1.3,0.7,3.3,1.9
					c0.2,0.1,0.5,0.2,0.7,0.2c0.4,0,0.9-0.2,1.1-0.6C11.1,25.2,11,24.4,10.4,24z"/>
				<path class="st5" d="M54.4,24.4c-0.5,0.4-1.1,0.8-1.8,1.2c-0.6,0.4-0.7,1.3-0.3,1.8c0.3,0.4,0.7,0.6,1.1,0.6
					c0.3,0,0.5-0.1,0.8-0.2c0.6-0.4,1.1-0.8,1.7-1.1C55.3,25.9,54.8,25.2,54.4,24.4z"/>
			</g>
		</g>
	</g>
	<g class="st4">
		<path class="st1" d="M77.7,16l-11.6-1.1L61.5,4.2c-0.3-0.7-1.4-0.7-1.7,0l-4.6,10.7L43.6,16c-0.8,0.1-1.1,1.1-0.5,1.6l8.7,7.7
			l-2.6,11.3c-0.2,0.8,0.7,1.4,1.4,1l10-5.9l10,5.9c0.7,0.4,1.6-0.2,1.4-1l-2.6-11.3l8.7-7.7C78.8,17.1,78.5,16.1,77.7,16z"/>
		<path class="st2" d="M63.2,8.1l-1.7-3.9c-0.3-0.7-1.4-0.7-1.7,0l-4.6,10.7L43.6,16c-0.8,0.1-1.1,1.1-0.5,1.6l8.7,7.7l-2.6,11.3
			c-0.2,0.8,0.7,1.4,1.4,1l1.3-0.8C54.1,22.7,60.3,12.3,63.2,8.1z"/>
	</g>
	<g class="st4">
		<path class="st5" d="M40,71H25.9c-0.6,0-1-0.4-1-1s0.4-1,1-1H40c0.6,0,1,0.4,1,1S40.6,71,40,71z"/>
	</g>
	<g class="st4">
		<path class="st5" d="M38,76H28c-0.6,0-1-0.4-1-1s0.4-1,1-1h10c0.6,0,1,0.4,1,1S38.5,76,38,76z"/>
	</g>
</g>
<g>
	<g>
		<path class="st1" d="M60.4,36.6l-13.2-1.2L42,23.3c-0.4-0.8-1.6-0.8-2,0l-5.2,12.1l-13.2,1.2c-0.9,0.1-1.3,1.2-0.6,1.8l9.9,8.7
			l-2.9,12.9c-0.2,0.9,0.8,1.6,1.6,1.1L41,54.3l11.3,6.7c0.8,0.5,1.7-0.2,1.6-1.1l-2.9-12.9l9.9-8.7C61.7,37.8,61.3,36.6,60.4,36.6z
			"/>
	</g>
	<path class="st2" d="M43.9,27.6L42,23.3c-0.4-0.8-1.6-0.8-2,0l-5.2,12.1l-13.2,1.2c-0.9,0.1-1.3,1.2-0.6,1.8l9.9,8.7l-2.9,12.9
		c-0.2,0.9,0.8,1.6,1.6,1.1l1.5-0.9C33.7,44.2,40.7,32.4,43.9,27.6z"/>
</g>
<path class="st5" d="M11.7,62.7c0.4,0.2,0.9,0.1,1.2-0.3c0.2-0.4,0.1-0.9-0.3-1.2c-2.9-1.7-5-4.4-5.9-7.6c-0.9-3.2-0.5-6.6,1.1-9.5
	C8,43.7,7.9,43.2,7.4,43c-0.4-0.2-0.9-0.1-1.2,0.3C4.5,46.6,4,50.5,5.1,54.1C6.1,57.8,8.5,60.8,11.7,62.7L11.7,62.7z"/>
<path class="st5" d="M17.2,58.4c-2.1-1.2-3.7-3.2-4.4-5.6c-0.7-2.4-0.4-4.9,0.8-7c0.2-0.4,0.1-0.9-0.3-1.2c-0.4-0.2-0.9-0.1-1.2,0.3
	c-1.4,2.6-1.7,5.5-1,8.3c0.8,2.8,2.6,5.1,5.1,6.6l0,0c0.4,0.2,0.9,0.1,1.2-0.3C17.8,59.1,17.7,58.6,17.2,58.4z"/>
<path class="st5" d="M69.4,62.7c3.3-1.9,5.7-4.9,6.7-8.6c1-3.7,0.6-7.5-1.2-10.8c-0.2-0.4-0.7-0.6-1.2-0.3c-0.4,0.2-0.6,0.7-0.3,1.2
	c1.6,2.9,2,6.3,1.1,9.5c-0.9,3.2-3,5.9-5.9,7.6c-0.4,0.2-0.5,0.8-0.3,1.2C68.5,62.8,69,63,69.4,62.7L69.4,62.7z"/>
<path class="st5" d="M63.6,59.5c0.2,0.4,0.7,0.5,1.2,0.3l0,0c2.5-1.5,4.4-3.8,5.1-6.6c0.8-2.8,0.5-5.8-1-8.3
	c-0.2-0.4-0.7-0.6-1.2-0.3c-0.4,0.2-0.6,0.7-0.3,1.2c1.2,2.2,1.5,4.7,0.8,7c-0.7,2.4-2.2,4.4-4.4,5.6C63.5,58.6,63.4,59.1,63.6,59.5
	z"/>
</svg>
