<?xml version="1.0" encoding="utf-8"?>
<!-- Generator: Adobe Illustrator 21.0.0, SVG Export Plug-In . SVG Version: 6.00 Build 0)  -->
<svg version="1.1" id="Layer_1" xmlns="http://www.w3.org/2000/svg" xmlns:xlink="http://www.w3.org/1999/xlink" x="0px" y="0px"
	 viewBox="0 0 80 80" style="enable-background:new 0 0 80 80;" xml:space="preserve">
<style type="text/css">
	.st0{opacity:0.3;}
	.st1{fill:#FFDC64;}
	.st2{fill:#FFC850;}
	.st3{display:none;}
	.st4{display:inline;}
	.st5{fill:#7F7F7F;}
</style>
<g class="st0">
	<g>
		<path class="st1" d="M67.4,25.7L49.9,27l-9.5-14.7c-0.7-1-2.3-0.7-2.6,0.4l-4.2,17l-16.9,4.5c-1.2,0.3-1.4,1.9-0.4,2.5l14.9,9.2
			l-0.9,17.4c-0.1,1.2,1.3,1.9,2.3,1.1l13.4-11.3l16.3,6.3c1.2,0.4,2.2-0.7,1.8-1.8l-6.6-16.2l11.1-13.5
			C69.3,27,68.6,25.6,67.4,25.7z"/>
	</g>
	<path class="st2" d="M43.8,17.6l-3.4-5.3c-0.7-1-2.3-0.7-2.6,0.4l-4.2,17l-16.9,4.5c-1.2,0.3-1.4,1.9-0.4,2.5l14.9,9.2l-0.9,17.4
		c-0.1,1.2,1.3,1.9,2.3,1.1l1.8-1.5C34.1,41.5,40.6,24.5,43.8,17.6z"/>
</g>
<g class="st3">
	<g class="st4">
		<g>
			<g>
				<path class="st5" d="M38.3,42.8c-0.6-0.4-1.4-0.1-1.8,0.5c-1.3,2.4-2.4,4.9-3.2,7.4c-0.2,0.7,0.2,1.4,0.9,1.7
					c0.1,0,0.3,0.1,0.4,0.1c0.6,0,1.1-0.4,1.3-0.9c0.8-2.4,1.8-4.7,3-7C39.2,43.9,38.9,43.1,38.3,42.8z"/>
				<path class="st5" d="M46.5,30.7c-2,1.9-3.8,3.9-5.5,5.9c-0.5,0.6-0.4,1.4,0.2,1.9c0.2,0.2,0.5,0.3,0.8,0.3c0.4,0,0.8-0.2,1-0.5
					c1.5-1.9,3.3-3.8,5.2-5.6c0.5-0.5,0.6-1.3,0.1-1.9C47.8,30.2,47,30.2,46.5,30.7z"/>
				<path class="st5" d="M33.1,57.5c-0.1,0-0.2,0-0.3,0c-0.1,0-0.2,0-0.3,0c-0.7,0.1-1.3,0.7-1.2,1.5c0.1,1.3,0.2,2.6,0.2,3.8
					c0,0.7,0.6,1.3,1.3,1.3s1.3-0.6,1.3-1.3c0-1.3,0.1-2.6,0.2-3.8C34.3,58.3,33.8,57.6,33.1,57.5z"/>
				<path class="st5" d="M17.3,29.1c-0.6-0.5-1.4-0.4-1.9,0.1c-0.5,0.6-0.4,1.4,0.1,1.9c2.1,1.8,4.1,3.8,5.8,5.8
					c0.3,0.3,0.6,0.5,1,0.5c0.3,0,0.6-0.1,0.9-0.3c0.6-0.5,0.6-1.3,0.1-1.9C21.5,33.1,19.5,31.1,17.3,29.1z"/>
				<path class="st5" d="M32,50.2c-0.9-2.7-2.1-5.4-3.6-7.9c-0.4-0.6-1.2-0.8-1.8-0.5c-0.6,0.4-0.8,1.2-0.5,1.8
					c1.4,2.4,2.5,4.9,3.4,7.4c0.2,0.6,0.7,0.9,1.3,0.9c0.1,0,0.3,0,0.4-0.1C31.9,51.6,32.2,50.9,32,50.2z"/>
				<path class="st5" d="M10.4,24c-2.1-1.4-3.5-2.1-3.5-2.1c-0.7-0.3-1.5-0.1-1.8,0.6c-0.3,0.7-0.1,1.4,0.6,1.8c0,0,1.3,0.7,3.3,1.9
					c0.2,0.1,0.5,0.2,0.7,0.2c0.4,0,0.9-0.2,1.1-0.6C11.1,25.2,11,24.4,10.4,24z"/>
				<path class="st5" d="M54.4,24.4c-0.5,0.4-1.1,0.8-1.8,1.2c-0.6,0.4-0.7,1.3-0.3,1.8c0.3,0.4,0.7,0.6,1.1,0.6
					c0.3,0,0.5-0.1,0.8-0.2c0.6-0.4,1.1-0.8,1.7-1.1C55.3,25.9,54.8,25.2,54.4,24.4z"/>
			</g>
		</g>
	</g>
	<g class="st4">
		<path class="st1" d="M77.7,16l-11.6-1.1L61.5,4.2c-0.3-0.7-1.4-0.7-1.7,0l-4.6,10.7L43.6,16c-0.8,0.1-1.1,1.1-0.5,1.6l8.7,7.7
			l-2.6,11.3c-0.2,0.8,0.7,1.4,1.4,1l10-5.9l10,5.9c0.7,0.4,1.6-0.2,1.4-1l-2.6-11.3l8.7-7.7C78.8,17.1,78.5,16.1,77.7,16z"/>
		<path class="st2" d="M63.2,8.1l-1.7-3.9c-0.3-0.7-1.4-0.7-1.7,0l-4.6,10.7L43.6,16c-0.8,0.1-1.1,1.1-0.5,1.6l8.7,7.7l-2.6,11.3
			c-0.2,0.8,0.7,1.4,1.4,1l1.3-0.8C54.1,22.7,60.3,12.3,63.2,8.1z"/>
	</g>
	<g class="st4">
		<path class="st5" d="M40,71H25.9c-0.6,0-1-0.4-1-1s0.4-1,1-1H40c0.6,0,1,0.4,1,1S40.6,71,40,71z"/>
	</g>
	<g class="st4">
		<path class="st5" d="M38,76H28c-0.6,0-1-0.4-1-1s0.4-1,1-1h10c0.6,0,1,0.4,1,1S38.5,76,38,76z"/>
	</g>
</g>
<g>
	<g>
		<path class="st1" d="M65.8,31.7l-16.4-1.5l-6.5-15.1c-0.5-1-2-1-2.5,0l-6.5,15.1l-16.4,1.5c-1.1,0.1-1.6,1.5-0.8,2.3l12.4,10.9
			l-3.6,16.1c-0.3,1.1,0.9,2,2,1.4l14.2-8.4l14.2,8.4c1,0.6,2.2-0.3,2-1.4l-3.6-16.1L66.6,34C67.4,33.2,67,31.8,65.8,31.7z"/>
	</g>
	<path class="st2" d="M45.2,20.6l-2.4-5.5c-0.5-1-2-1-2.5,0l-6.5,15.1l-16.4,1.5c-1.1,0.1-1.6,1.5-0.8,2.3l12.4,10.9l-3.6,16.1
		c-0.3,1.1,0.9,2,2,1.4l1.9-1.1C32.5,41.2,41.2,26.5,45.2,20.6z"/>
</g>
<path class="st5" d="M20.4,70.3c-5.2-2.5-9-7.5-9.5-13.6H8.5c0.8,9.8,9,17.6,19.1,17.6c0.4,0,0.7,0,1.1-0.1l-6.1-6.1L20.4,70.3z"/>
<path class="st5" d="M54.6,5.5c-0.4,0-0.7,0-1.1,0.1l6.1,6.1l2.1-2.1c5.2,2.5,9,7.5,9.5,13.5h2.4C72.9,13.2,64.7,5.5,54.6,5.5z"/>
<g class="st0">
	<g>
		<path class="st1" d="M63.1,30.7l-17.4-2.2l-6.4-16.3c-0.5-1.1-2.1-1.2-2.6-0.1l-7.5,15.8l-17.5,1c-1.2,0.1-1.8,1.5-0.9,2.4
			l12.7,12l-4.4,16.9c-0.3,1.2,0.9,2.1,2.1,1.6l15.3-8.4l14.7,9.4c1.1,0.6,2.3-0.2,2.2-1.4l-3.2-17.2l13.5-11.1
			C64.8,32.4,64.3,30.9,63.1,30.7z"/>
	</g>
	<path class="st2" d="M41.7,18.1l-2.3-5.9c-0.5-1.1-2.1-1.2-2.6-0.1l-7.5,15.8l-17.5,1c-1.2,0.1-1.8,1.5-0.9,2.4l12.7,12l-4.4,16.9
		c-0.3,1.2,0.9,2.1,2.1,1.6l2-1.1C27.4,39.6,37.2,24.3,41.7,18.1z"/>
</g>
</svg>
