<?xml version="1.0" encoding="utf-8"?>
<!-- Generator: Adobe Illustrator 19.2.0, SVG Export Plug-In . SVG Version: 6.00 Build 0)  -->
<svg version="1.1" id="Layer_1" xmlns="http://www.w3.org/2000/svg" xmlns:xlink="http://www.w3.org/1999/xlink" x="0px" y="0px"
	 viewBox="0 0 62.3 28.5" style="enable-background:new 0 0 62.3 28.5;" xml:space="preserve">
<style type="text/css">
	.st0{fill:#1B363C;}
</style>
<g>
	<path class="st0" d="M2.9,19.8c-0.9,0-1.5-0.1-1.8-0.2c-0.5-0.2-0.8-0.6-0.9-1.3C0,18.1,0,17.7,0,17.2c0-1,0.1-2.1,0.3-3.3
		c0.2-1.2,0.5-2.2,0.9-3c0.1-0.2,0.1-0.3,0.3-0.5c0.1-0.2,0.3-0.3,0.4-0.3C2,10.1,2,10.2,2,10.4c0,0.1,0,0.4-0.1,0.7
		c0,0.2-0.1,0.4-0.1,0.7c0,0.2,0,0.4,0,0.6c0,0.8,0.2,1.4,0.7,1.7c0.4,0.3,1,0.5,1.8,0.5h8.7c-0.1-1.2-0.4-2.9-1-5
		c-0.6-2.3-1.1-4-1.6-5.2L13.9,0c0.3,1.1,0.7,2.5,1,3.9c0.2,1,0.5,2.1,0.7,3.5c0.1,0.7,0.2,1.3,0.4,2c0.5,2.7,0.8,4.2,1,4.5
		c0.2,0.3,0.7,0.5,1.6,0.5h0.9v5.3h-3.4c-0.6,0-1.1-0.3-1.6-0.8c-0.5-0.6-0.8-1.4-1.1-2.5c-0.3,0.9-0.6,1.7-0.9,2.2
		c-0.5,0.7-1,1.1-1.6,1.1H2.9z"/>
	<path class="st0" d="M28.2,9.4L31.9,5c0.1,0.4,0.2,0.9,0.2,1.5c0,0.6,0.1,1.1,0.1,1.7c0,1-0.1,1.9-0.2,2.9
		c-0.1,0.9-0.3,1.8-0.5,2.6v0.1c0,0.2,0.3,0.4,0.8,0.6c0.5,0.2,1.1,0.3,1.8,0.3H35v5.3h-2.7c-1.2,0-2.1-0.3-2.6-0.8
		c-0.3-0.3-0.5-0.9-0.8-1.7c-0.1,0.7-0.5,1.4-0.9,1.8c-0.5,0.5-1,0.7-1.6,0.7h-8.2v-5.3h9.1c0.3,0,0.6-0.3,0.9-1
		c0.3-0.7,0.4-1.4,0.4-2.2c0-0.3,0-0.6-0.1-0.9S28.4,9.7,28.2,9.4z M24.9,26.6l-1.7,1.7c-0.1,0.1-0.3,0.2-0.5,0.2
		c-0.1,0-0.2,0-0.3-0.1c-0.1,0-0.2-0.1-0.3-0.2l-2.1-2c-0.3-0.2-0.5-0.4-0.5-0.6c0-0.2,0.1-0.4,0.2-0.5l2.4-2.3
		c0.1-0.1,0.3-0.1,0.4-0.1c0.3,0,0.5,0.1,0.8,0.3l1.5,1.5c0.2,0.2,0.3,0.2,0.4,0.2c0.1,0,0.2-0.1,0.4-0.3l1.7-1.6
		c0.1-0.1,0.1-0.1,0.2-0.1c0.1,0,0.2,0,0.3,0c0.3,0,0.5,0.1,0.7,0.3l2.2,2.1c0.2,0.2,0.3,0.4,0.2,0.5c0,0.2-0.1,0.4-0.4,0.5
		l-2.1,2.1c-0.1,0.1-0.3,0.2-0.5,0.2c-0.3,0-0.4-0.1-0.5-0.2l-1.6-1.7c-0.2-0.2-0.3-0.3-0.4-0.3C25.2,26.4,25.1,26.4,24.9,26.6z"/>
	<path class="st0" d="M42.3,19.8h-8.8v-5.3h8.9c1.2,0,2.5-0.2,3.8-0.6c0.9-0.3,1.8-0.6,2.7-1c-0.7-0.4-2-0.9-3.7-1.5
		c-1.5-0.5-2.7-0.9-3.4-1c-0.4-0.1-0.9-0.1-1.3-0.1c-0.8,0-1.4,0.2-2,0.6c-0.4,0.3-0.8,0.6-1,0.8c0.2-0.7,0.6-1.4,1-2.2
		c0.7-1.2,1.4-2.1,2.2-2.8c1-0.9,2-1.4,3.1-1.4c1.3,0,2.6,0.2,3.8,0.7c0.8,0.3,1.9,0.8,3.2,1.6c1.6,1,2.7,1.6,3.3,1.8
		c1.5,0.8,2.9,1.4,4.1,1.8c1.3,0.4,2.8,0.8,4.3,0.9c-0.3,0.4-0.7,0.9-1.2,1.6c-0.4,0.6-0.8,1.2-1.2,1.8c-0.4,0.6-0.7,1-0.9,1.3
		c-0.4-0.2-0.9-0.4-1.5-0.5c-0.7-0.1-1.4-0.2-2.2-0.2c-1.1,0-2.3,0.1-3.5,0.3c-1,0.1-2,0.5-3.3,1.1c-1,0.5-2,1-3,1.5
		C44.2,19.6,43.1,19.8,42.3,19.8z M43.2,25c0.1,0.2,0.2,0.4,0.2,0.5c0,0.2-0.2,0.4-0.5,0.6l-2.1,2c-0.1,0.1-0.3,0.2-0.6,0.2
		c-0.1,0-0.2,0-0.3,0c-0.1,0-0.1-0.1-0.2-0.1l-2.1-2c-0.3-0.2-0.4-0.4-0.4-0.6c0-0.1,0-0.2,0.1-0.2c0-0.1,0.1-0.2,0.2-0.3l2.2-2
		c0.2-0.2,0.4-0.3,0.7-0.3c0.2,0,0.3,0,0.4,0.1L43.2,25z"/>
</g>
</svg>
