
<svg xmlns="http://www.w3.org/2000/svg" version="1.1" xmlns:xlink="http://www.w3.org/1999/xlink" preserveAspectRatio="none" x="0px" y="0px" width="465px" height="321px" viewBox="0 0 465 321">
<defs>
<filter id="Filter_1" x="-20%" y="-20%" width="140%" height="140%" color-interpolation-filters="sRGB">
<feColorMatrix in="SourceGraphic" type="matrix" values="1 0 0 0 0 0 1 0 0 0 0 0 1 0 0 0 0 0 0.18 0" result="result1"/>
</filter>

<filter id="Filter_2" x="-20%" y="-20%" width="140%" height="140%" color-interpolation-filters="sRGB">
<feColorMatrix in="SourceGraphic" type="matrix" values="1 0 0 0 0 0 1 0 0 0 0 0 1 0 0 0 0 0 0.23 0" result="result1"/>
</filter>

<g id="flash0_ai_2_Isolation_Mode__Path__12_0_Layer0_0_FILL">
<path fill="#000000" stroke="none" d="
M 92.75 0.4
L 91.2 0 3.4 0
Q 1.1 0 0.35 1.7 -0.05 2.55 0 3.4
L 0 57.2 0.35 59
Q 1.1 60.75 3.4 60.75
L 90.8 60.75
Q 93.25 60.75 94 59 94.4 58.1 94.3 57.2
L 94.3 3.15
Q 94.3 1.2 92.75 0.4 Z"/>
</g>

<g id="Layer0_0_MEMBER_0_MEMBER_1_FILL">
<path fill="#666666" stroke="none" d="
M 178.85 197.45
L 177.3 197.05 89.45 197.05
Q 87.2 197.05 86.45 198.8 86.05 199.65 86.1 200.5
L 86.1 254.25 86.45 256.05
Q 87.2 257.8 89.45 257.8
L 176.9 257.8
Q 179.3 257.8 180.1 256.05
L 180.4 254.25 180.4 200.2
Q 180.4 198.25 178.85 197.45 Z"/>
</g>

<g id="Layer0_0_MEMBER_0_MEMBER_2_FILL">
<path fill="#FFFFFF" stroke="none" d="
M 91.4 201.5
L 91.4 253.45 172.2 253.45 172.2 201.5 91.4 201.5 Z"/>
</g>

<g id="Layer0_0_MEMBER_0_MEMBER_3_FILL">
<path fill="#E6E6E6" stroke="none" d="
M 91.1 201.2
L 91.1 253.75 172.5 253.75 172.5 201.2 91.1 201.2
M 91.7 253.15
L 91.7 201.8 171.9 201.8 171.9 253.15 91.7 253.15 Z"/>
</g>

<g id="Layer0_0_MEMBER_0_MEMBER_4_FILL">
<path fill="#B3B3B3" stroke="none" d="
M 175.35 220.85
Q 175 221.2 175 221.7
L 175 232.85
Q 175 233.35 175.35 233.65 175.7 234 176.2 234 176.7 234 177.05 233.65 177.4 233.35 177.4 232.85
L 177.4 221.7
Q 177.4 221.2 177.05 220.85 176.7 220.5 176.2 220.5 175.7 220.5 175.35 220.85 Z"/>
</g>

<g id="Layer0_0_MEMBER_0_MEMBER_5_FILL">
<path fill="#999999" stroke="none" d="
M 127.15 218.35
L 127.15 215.5 103.15 215.5 103.15 218.35 127.15 218.35 Z"/>
</g>

<g id="Layer0_0_MEMBER_0_MEMBER_6_FILL">
<path fill="#999999" stroke="none" d="
M 123.3 223.4
L 123.3 220.55 103.15 220.55 103.15 223.4 123.3 223.4 Z"/>
</g>

<g id="Layer0_0_MEMBER_0_MEMBER_7_FILL">
<path fill="#999999" stroke="none" d="
M 127.15 228
L 127.15 226.45 103.15 226.45 103.15 228 127.15 228 Z"/>
</g>

<g id="Layer0_0_MEMBER_0_MEMBER_8_FILL">
<path fill="#999999" stroke="none" d="
M 123.3 230.7
L 123.3 229.2 103.15 229.2 103.15 230.7 123.3 230.7 Z"/>
</g>

<g id="Layer0_0_MEMBER_0_MEMBER_9_FILL">
<path fill="#999999" stroke="none" d="
M 160 217.85
Q 155.6 213.45 149.35 213.45 143.15 213.45 138.7 217.85 134.3 222.3 134.3 228.5 134.3 234.75 138.7 239.2 143.1 243.6 149.35 243.6 155.6 243.6 160 239.2 164.4 234.75 164.4 228.5 164.4 222.25 160 217.85 Z"/>
</g>

<g id="Layer0_0_MEMBER_0_MEMBER_10_FILL">
<path fill="#3CB44A" stroke="none" d="
M -88.1 94.55
L -88.1 89.9 -115.5 89.9 -115.5 94.55 -88.1 94.55 Z"/>
</g>

<g id="Layer0_0_MEMBER_0_MEMBER_11_FILL">
<path fill="#3CB44A" stroke="none" d="
M -22.1 50.7
L -22.1 41.2 -131.75 41.2 -131.75 50.7 -22.1 50.7 Z"/>
</g>

<g id="Layer0_0_MEMBER_0_MEMBER_12_FILL">
<path fill="#4EB86E" stroke="none" d="
M 133.95 248.25
L 133.5 247.8 131.2 250.1 128.95 247.8 128.5 248.25 131.2 250.95 133.95 248.25 Z"/>
</g>

<g id="flash0_ai_2_Isolation_Mode__Path__0_Layer0_0_FILL">
<path fill="#FFFFFF" stroke="none" d="
M 39.95 0
L 0 0 0 24.4 39.95 0 Z"/>
</g>

<g id="flash0_ai_2_Isolation_Mode__Path__14_0_Layer0_0_FILL">
<path fill="#000000" stroke="none" d="
M 31.45 0
L 1.9 0
Q 0 0 0 2.2
L 0 58.75
Q 0 61 1.85 61
L 31.5 61
Q 32.6 61 33.05 60
L 33.25 59 33.25 2.2
Q 33.25 0 31.45 0 Z"/>
</g>

<g id="Layer0_0_MEMBER_1_MEMBER_1_FILL">
<path fill="#666666" stroke="none" d="
M 165.85 210.45
L 164.9 210.65
Q 163.9 211.15 163.9 212.6
L 163.9 269.2
Q 163.9 270.75 164.9 271.25 165.35 271.5 165.85 271.45
L 195.4 271.45
Q 196.5 271.45 196.95 270.45
L 197.15 269.45 197.15 212.6
Q 197.15 211.15 196.2 210.65
L 195.25 210.45 165.85 210.45 Z"/>
</g>

<g id="Layer0_0_MEMBER_1_MEMBER_2_FILL">
<path fill="#FFFFFF" stroke="none" d="
M 194.85 214.85
L 166.1 214.85 166.1 265.25 194.85 265.25 194.85 214.85 Z"/>
</g>

<g id="Layer0_0_MEMBER_1_MEMBER_3_FILL">
<path fill="#4D4D4D" stroke="none" d="
M 181.9 212.8
Q 181.9 212.3 181.55 211.95 181.2 211.55 180.7 211.55 180.2 211.55 179.8 211.95 179.45 212.3 179.45 212.8 179.45 213.35 179.8 213.7 180.2 214.05 180.7 214.05 181.2 214.05 181.55 213.7 181.9 213.3 181.9 212.8 Z"/>
</g>

<g id="Layer0_0_MEMBER_1_MEMBER_4_FILL">
<path fill="#F2F2F2" stroke="none" d="
M 180.3 212.8
Q 180.3 213.2 180.7 213.2 181.05 213.2 181.05 212.8 181.05 212.4 180.7 212.4 180.3 212.4 180.3 212.8 Z"/>
</g>

<g id="Layer0_0_MEMBER_1_MEMBER_5_FILL">
<path fill="#B3B3B3" stroke="none" d="
M 182.6 268.25
Q 182.6 267.45 182.05 266.85 181.5 266.3 180.65 266.3 179.85 266.3 179.3 266.85 178.7 267.45 178.7 268.25 178.7 269.05 179.3 269.6 179.85 270.2 180.65 270.2 181.45 270.2 182.05 269.6 182.6 269.05 182.6 268.25 Z"/>
</g>

<g id="Layer0_0_MEMBER_1_MEMBER_6_FILL">
<path fill="#999999" stroke="none" d="
M 189.7 252.5
L 189.7 249.75 169.2 249.75 169.2 252.5 189.7 252.5 Z"/>
</g>

<g id="Layer0_0_MEMBER_1_MEMBER_7_FILL">
<path fill="#999999" stroke="none" d="
M 186.4 257.4
L 186.4 254.65 169.2 254.65 169.2 257.4 186.4 257.4 Z"/>
</g>

<g id="Layer0_0_MEMBER_1_MEMBER_8_FILL">
<path fill="#999999" stroke="none" d="
M 192.35 234.7
Q 192.35 229.9 188.95 226.5 185.55 223.1 180.75 223.1 175.95 223.1 172.6 226.5 169.2 229.9 169.2 234.7 169.2 239.5 172.6 242.9 175.95 246.25 180.75 246.25 185.55 246.25 188.95 242.9 192.35 239.5 192.35 234.7 Z"/>
</g>

<g id="Layer0_0_MEMBER_1_MEMBER_9_FILL">
<path fill="#3CB44A" stroke="none" d="
M 2.65 124.65
L 2.65 120.45 -26.8 120.45 -26.8 124.65 2.65 124.65 Z"/>
</g>

<g id="Layer0_0_MEMBER_1_MEMBER_10_FILL">
<path fill="#3CB44A" stroke="none" d="
M 8.05 67.05
L 8.05 59.55 -30.7 59.55 -30.7 67.05 8.05 67.05 Z"/>
</g>

<g id="Layer0_0_MEMBER_1_MEMBER_11_FILL">
<path fill="#FFFFFF" stroke="none" d="
M 167.4 215.75
L 167.4 216.2 172 216.2 172 215.75 167.4 215.75 Z"/>
</g>

<g id="Layer0_0_MEMBER_1_MEMBER_12_FILL">
<path fill="#FFFFFF" stroke="none" d="
M 167.4 218.55
L 167.4 219 172 219 172 218.55 167.4 218.55 Z"/>
</g>

<g id="Layer0_0_MEMBER_1_MEMBER_13_FILL">
<path fill="#FFFFFF" stroke="none" d="
M 167.4 217.1
L 167.4 217.55 172 217.55 172 217.1 167.4 217.1 Z"/>
</g>

<g id="flash0_ai_2_Isolation_Mode__Path__0_0_Layer0_0_FILL">
<path fill="#FFFFFF" stroke="none" d="
M 0 0
L 0 29.45 28.75 0 0 0 Z"/>
</g>
</defs>

<g transform="matrix( 4.041229248046875, 0, 0, 4.041229248046875, 0,14.6) ">
<g transform="matrix( 1, 0, 0, 1, 0,0) ">
<use filter="url(#Filter_1)" xlink:href="#flash0_ai_2_Isolation_Mode__Path__12_0_Layer0_0_FILL"/>
</g>
</g>

<g transform="matrix( 4.041229248046875, 0, 0, 4.041229248046875, -331.2,-796.3) ">
<use xlink:href="#Layer0_0_MEMBER_0_MEMBER_1_FILL"/>
</g>

<g transform="matrix( 4.041229248046875, 0, 0, 4.041229248046875, -331.2,-796.3) ">
<use xlink:href="#Layer0_0_MEMBER_0_MEMBER_2_FILL"/>
</g>

<g transform="matrix( 4.041229248046875, 0, 0, 4.041229248046875, -331.2,-796.3) ">
<use xlink:href="#Layer0_0_MEMBER_0_MEMBER_3_FILL"/>
</g>

<g transform="matrix( 4.041229248046875, 0, 0, 4.041229248046875, -331.2,-796.3) ">
<use xlink:href="#Layer0_0_MEMBER_0_MEMBER_4_FILL"/>
</g>

<g transform="matrix( 4.041229248046875, 0, 0, 4.041229248046875, -331.2,-796.3) ">
<use xlink:href="#Layer0_0_MEMBER_0_MEMBER_5_FILL"/>
</g>

<g transform="matrix( 4.041229248046875, 0, 0, 4.041229248046875, -331.2,-796.3) ">
<use xlink:href="#Layer0_0_MEMBER_0_MEMBER_6_FILL"/>
</g>

<g transform="matrix( 4.041229248046875, 0, 0, 4.041229248046875, -331.2,-796.3) ">
<use xlink:href="#Layer0_0_MEMBER_0_MEMBER_7_FILL"/>
</g>

<g transform="matrix( 4.041229248046875, 0, 0, 4.041229248046875, -331.2,-796.3) ">
<use xlink:href="#Layer0_0_MEMBER_0_MEMBER_8_FILL"/>
</g>

<g transform="matrix( 4.041229248046875, 0, 0, 4.041229248046875, -331.2,-796.3) ">
<use xlink:href="#Layer0_0_MEMBER_0_MEMBER_9_FILL"/>
</g>

<g transform="matrix( 3, 0, 0, 3, 432.15,-106.75) ">
<use xlink:href="#Layer0_0_MEMBER_0_MEMBER_10_FILL"/>
</g>

<g transform="matrix( 3, 0, 0, 3, 432.15,-106.75) ">
<use xlink:href="#Layer0_0_MEMBER_0_MEMBER_11_FILL"/>
</g>

<g transform="matrix( 4.041229248046875, 0, 0, 4.041229248046875, -331.2,-796.3) ">
<use xlink:href="#Layer0_0_MEMBER_0_MEMBER_12_FILL"/>
</g>

<g transform="matrix( 4.041229248046875, 0, 0, 4.041229248046875, 36.75,17.45) ">
<g transform="matrix( 1, 0, 0, 1, 0,0) ">
<use filter="url(#Filter_2)" xlink:href="#flash0_ai_2_Isolation_Mode__Path__0_Layer0_0_FILL"/>
</g>
</g>

<g transform="matrix( 4.041229248046875, 0, 0, 4.041229248046875, 315.6,75.05) ">
<g transform="matrix( 1, 0, 0, 1, 0,0) ">
<use filter="url(#Filter_1)" xlink:href="#flash0_ai_2_Isolation_Mode__Path__14_0_Layer0_0_FILL"/>
</g>
</g>

<g transform="matrix( 4.041229248046875, 0, 0, 4.041229248046875, -331.2,-796.3) ">
<use xlink:href="#Layer0_0_MEMBER_1_MEMBER_1_FILL"/>
</g>

<g transform="matrix( 4.041229248046875, 0, 0, 4.041229248046875, -331.2,-796.3) ">
<use xlink:href="#Layer0_0_MEMBER_1_MEMBER_2_FILL"/>
</g>

<g transform="matrix( 4.041229248046875, 0, 0, 4.041229248046875, -331.2,-796.3) ">
<use xlink:href="#Layer0_0_MEMBER_1_MEMBER_3_FILL"/>
</g>

<g transform="matrix( 4.041229248046875, 0, 0, 4.041229248046875, -331.2,-796.3) ">
<use xlink:href="#Layer0_0_MEMBER_1_MEMBER_4_FILL"/>
</g>

<g transform="matrix( 4.041229248046875, 0, 0, 4.041229248046875, -331.2,-796.3) ">
<use xlink:href="#Layer0_0_MEMBER_1_MEMBER_5_FILL"/>
</g>

<g transform="matrix( 4.041229248046875, 0, 0, 4.041229248046875, -331.2,-796.3) ">
<use xlink:href="#Layer0_0_MEMBER_1_MEMBER_6_FILL"/>
</g>

<g transform="matrix( 4.041229248046875, 0, 0, 4.041229248046875, -331.2,-796.3) ">
<use xlink:href="#Layer0_0_MEMBER_1_MEMBER_7_FILL"/>
</g>

<g transform="matrix( 4.041229248046875, 0, 0, 4.041229248046875, -331.2,-796.3) ">
<use xlink:href="#Layer0_0_MEMBER_1_MEMBER_8_FILL"/>
</g>

<g transform="matrix( 3, 0, 0, 3, 432.15,-106.75) ">
<use xlink:href="#Layer0_0_MEMBER_1_MEMBER_9_FILL"/>
</g>

<g transform="matrix( 3, 0, 0, 3, 432.15,-106.75) ">
<use xlink:href="#Layer0_0_MEMBER_1_MEMBER_10_FILL"/>
</g>

<g transform="matrix( 4.041229248046875, 0, 0, 4.041229248046875, -331.2,-796.3) ">
<use xlink:href="#Layer0_0_MEMBER_1_MEMBER_11_FILL"/>
</g>

<g transform="matrix( 4.041229248046875, 0, 0, 4.041229248046875, -331.2,-796.3) ">
<use xlink:href="#Layer0_0_MEMBER_1_MEMBER_12_FILL"/>
</g>

<g transform="matrix( 4.041229248046875, 0, 0, 4.041229248046875, -331.2,-796.3) ">
<use xlink:href="#Layer0_0_MEMBER_1_MEMBER_13_FILL"/>
</g>

<g transform="matrix( 4.041229248046875, -0.098236083984375, 0, 4.041229248046875, 340.05,73.7) ">
<g transform="matrix( 1, 0, 0, 1, 0,0) ">
<use filter="url(#Filter_2)" xlink:href="#flash0_ai_2_Isolation_Mode__Path__0_0_Layer0_0_FILL"/>
</g>
</g>
</svg>
