<?xml version="1.0" encoding="utf-8"?>
<!-- Generator: Adobe Illustrator 21.0.0, SVG Export Plug-In . SVG Version: 6.00 Build 0)  -->
<svg version="1.1" id="Layer_1" xmlns="http://www.w3.org/2000/svg" xmlns:xlink="http://www.w3.org/1999/xlink" x="0px" y="0px"
	 viewBox="0 0 59 59" style="enable-background:new 0 0 59 59;" xml:space="preserve">
<style type="text/css">
	.st0{fill:#0199DE;}
</style>
<g>
	<path class="st0" d="M25.4,11.7c0,1.1-0.3,1.8-0.8,2.1L17,18.1c0-1,0.5-1.9,1.6-2.5L25.4,11.7z"/>
	<path class="st0" d="M29,33.7c0,3.2-0.9,6.2-2.8,9c-2.1,3.1-4.6,4.7-7.7,4.7c-1.6,0-3.6-0.6-6-1.8l0.4-0.5c0.9,0.3,1.9,0.5,3,0.5
		c1.6,0,3.2-0.5,4.6-1.4c1.6-1,3.1-2.3,4.4-3.7c1.8-1.9,2.7-3.5,2.7-4.8c0-0.9-0.4-2-1.1-3.3c-0.6-1.1-1.1-2.1-1.8-3.1l2-3.4
		C28.3,27.9,29,30.6,29,33.7z"/>
	<path class="st0" d="M46.5,29.8c0,1.2-0.3,2.5-0.9,3.8c-3.1,1.9-6.2,2.9-9.3,2.9c-1.2,0-2.4-0.4-3.6-1.2l0.5-4.1
		c0.7,0.7,1.8,1,3.3,1c3.7,0,6.6-0.7,8.7-2c0-1.9-1-3.5-2.9-4.8c-1.1-0.8-2.9-1.7-5.3-2.6l1.1-3.9c2.3,0.5,4.3,1.8,6,4
		C45.7,25.1,46.5,27.4,46.5,29.8z"/>
</g>
</svg>
