<?xml version="1.0" encoding="utf-8"?>
<!-- Generator: Adobe Illustrator 21.0.0, SVG Export Plug-In . SVG Version: 6.00 Build 0)  -->
<svg version="1.1" id="Layer_1" xmlns="http://www.w3.org/2000/svg" xmlns:xlink="http://www.w3.org/1999/xlink" x="0px" y="0px"
	 viewBox="0 0 59 59" style="enable-background:new 0 0 59 59;" xml:space="preserve">
<style type="text/css">
	.st0{fill:#0199DE;}
</style>
<g>
	<path class="st0" d="M26.1,9.4c0,1.1-0.3,1.8-0.8,2.1l-7.6,4.3c0-1,0.5-1.9,1.6-2.5L26.1,9.4z"/>
	<path class="st0" d="M25.8,34.6c-0.1,1.8-0.3,3.4-0.8,5c-0.9,3.5-2.4,6-4.5,7.4c-2,1.3-4.9,2-8.6,2c-2.2,0-4.1-0.6-5.6-1.8
		C4.8,45.9,4,44.1,4,41.9c0-1.1,0.3-2.5,0.9-4.2c0.5-1.3,1-2.7,1.5-4L7,34c-1,2.6-1.5,4.7-1.5,6.3c0,3.6,2.9,5.4,8.6,5.4
		c1.8,0,3.7-0.4,5.7-1.2c1.7-0.7,2.9-1.5,3.5-2.7c0.5-0.8,0.8-2.3,1.1-4.3c0.1-1.3,0.2-2.1,0.2-2.4c0-0.4-0.3-0.9-0.8-1.5
		c-0.4-0.5-0.8-1-1.1-1.5l1.5-3.3c0.8,1.7,1.8,2.5,3.1,2.4v3.4H25.8z"/>
	<path class="st0" d="M26.2,31.3c1.4,0,2.6-0.5,3.7-1.6c0.5-0.5,0.8-1.2,0.9-2.1c0-0.8,0.1-1.6,0.1-2.4h0.4c0.3,1.1,1,2,2.1,2.8
		c1.1,0.8,2.2,1.2,3.3,1.2c0.2,0,0.4-0.1,0.8-0.3c0.4-0.2,0.6-0.4,0.6-0.5c0-0.7-0.4-1.4-1.3-2.2l0.9-3c1,0.6,1.5,1.6,1.5,3.1
		c0,1.5-0.3,2.9-0.8,4.1c-0.7,1.6-1.8,2.4-3.1,2.4c-1.1,0-2.4-0.8-3.9-2.3c-0.5,1.1-1.3,2-2.2,2.8c-1.1,0.9-2.1,1.4-3.1,1.4V31.3z"
		/>
	<path class="st0" d="M51.3,10.3c0,1.1-0.3,1.8-0.8,2.1l-7.6,4.3c0-1,0.5-1.9,1.7-2.5L51.3,10.3z"/>
	<path class="st0" d="M54.9,32.3c0,3.2-0.9,6.2-2.8,9c-2.1,3.1-4.6,4.7-7.7,4.7c-1.6,0-3.6-0.6-6-1.8l0.5-0.5c0.9,0.3,1.9,0.5,3,0.5
		c1.6,0,3.2-0.5,4.6-1.4c1.6-1,3.1-2.3,4.5-3.7c1.8-1.9,2.7-3.5,2.7-4.8c0-0.9-0.4-2-1.1-3.3c-0.6-1.1-1.1-2.1-1.8-3.1l2-3.4
		C54.1,26.6,54.9,29.2,54.9,32.3z"/>
</g>
</svg>
