<?xml version="1.0" encoding="utf-8"?>
<!-- Generator: Adobe Illustrator 21.0.0, SVG Export Plug-In . SVG Version: 6.00 Build 0)  -->
<svg version="1.1" id="Isolation_Mode" xmlns="http://www.w3.org/2000/svg" xmlns:xlink="http://www.w3.org/1999/xlink" x="0px"
	 y="0px" viewBox="0 0 61.9 66.8" style="enable-background:new 0 0 61.9 66.8;" xml:space="preserve">
<style type="text/css">
	.st0{fill:#2D2D2D;fill-opacity:0.3;}
	.st1{fill:#FFFFFF;}
	.st2{fill:#FFBB10;}
	.st3{fill:#A0DCEA;}
	.st4{opacity:0.5;}
</style>
<g>
	<circle class="st0" cx="30.9" cy="36.3" r="30.4"/>
	<g>
		<circle class="st1" cx="30.9" cy="30.9" r="30.4"/>
		<path class="st2" d="M30.9,61.9C13.9,61.9,0,48,0,30.9C0,13.9,13.9,0,30.9,0C48,0,61.9,13.9,61.9,30.9C61.9,48,48,61.9,30.9,61.9z
			 M30.9,1C14.4,1,1,14.4,1,30.9s13.4,29.9,29.9,29.9s29.9-13.4,29.9-29.9S47.5,1,30.9,1z"/>
	</g>
	<path class="st3" d="M30.8,56.6c-1.7,0-3.4-0.2-5-0.5l0.1-0.5c1.6,0.3,3.3,0.5,4.9,0.5L30.8,56.6z M35.8,56.1l-0.1-0.5
		c1.6-0.3,3.2-0.8,4.7-1.4l0.2,0.5C39.1,55.3,37.5,55.8,35.8,56.1z M21,54.6c-1.5-0.7-3-1.5-4.4-2.4l0.3-0.4
		c1.4,0.9,2.8,1.7,4.3,2.4L21,54.6z M45.1,52.3l-0.3-0.4c1.4-0.9,2.7-2,3.8-3.1l0.4,0.4C47.8,50.3,46.5,51.4,45.1,52.3z M12.7,48.9
		c-1.2-1.2-2.2-2.5-3.2-3.9l0.4-0.3c0.9,1.4,1.9,2.7,3.1,3.8L12.7,48.9z M52.2,45.2l-0.4-0.3c0.9-1.4,1.7-2.8,2.3-4.4l0.5,0.2
		C54,42.3,53.2,43.8,52.2,45.2z M7.2,40.5c-0.6-1.6-1.1-3.2-1.4-4.8l0.5-0.1c0.3,1.6,0.8,3.2,1.4,4.7L7.2,40.5z M56.1,36l-0.5-0.1
		c0.3-1.6,0.5-3.3,0.5-4.9h0.5C56.6,32.6,56.4,34.3,56.1,36z M5.8,30.7l-0.5,0c0-1.7,0.2-3.4,0.5-5l0.5,0.1C6,27.4,5.8,29,5.8,30.7z
		 M55.7,26.5c-0.3-1.6-0.7-3.2-1.3-4.8l0.5-0.2c0.6,1.6,1.1,3.2,1.4,4.9L55.7,26.5z M7.8,21.1l-0.5-0.2c0.7-1.5,1.5-3,2.4-4.4
		l0.4,0.3C9.3,18.1,8.5,19.6,7.8,21.1z M52.1,17.4c-0.9-1.4-1.9-2.7-3.1-3.9l0.4-0.3c1.2,1.2,2.2,2.5,3.1,4L52.1,17.4z M13.4,13
		l-0.3-0.4c1.2-1.2,2.5-2.2,3.9-3.1l0.3,0.4C15.9,10.8,14.6,11.8,13.4,13z M45.3,10.3c-1.4-0.9-2.8-1.7-4.3-2.4l0.2-0.5
		c1.5,0.7,3,1.5,4.4,2.5L45.3,10.3z M21.7,7.6l-0.2-0.5C23,6.5,24.7,6,26.3,5.7l0.1,0.5C24.8,6.5,23.2,7,21.7,7.6z M36.2,6.4
		C34.6,6,33,5.9,31.3,5.8l0-0.5c1.7,0,3.4,0.2,5,0.6L36.2,6.4z"/>
	<g class="st4">
		<path class="st2" d="M38.1,21.9c0,1.2-0.3,2.2-0.9,3c-0.6,1-1.5,1.4-2.7,1.4c-1.6,0-2.4-0.9-2.5-2.6c0-0.9,0.4-1.6,1.3-2.3
			l1.2-0.7c0.5-0.3,0.7-0.8,0.7-1.4c0-0.8-0.3-1.5-1-2c-0.7-0.5-1.4-0.7-2.3-0.7c-1.1,0-2.1,0.4-2.9,1.2c-0.8,0.8-1.2,1.7-1.2,2.9
			c0,0.9,0.3,1.9,0.8,3l1.8,3.6c1.5,2.9,2.2,5.7,2.2,8.3c0,0.6,0,1-0.1,1.3c0,0-0.1,0.7-0.2,2h-0.8c0-0.2,0-0.6,0-1.1
			c0-0.5,0-0.9,0-1.2c0-0.7-0.1-1.3-0.2-1.9c-0.3-0.6-0.6-1.1-1-1.4l-3-2.6c-2.3-2.1-3.5-4.6-3.5-7.3c0-2.1,0.7-4,2.2-5.5
			c1.5-1.6,3.3-2.3,5.4-2.3c1.8,0,3.4,0.6,4.7,1.8C37.4,18.6,38.1,20.1,38.1,21.9z M33.9,43.8c0,0.7-0.2,1.3-0.7,1.8
			s-1.1,0.7-1.9,0.7c-0.6,0-1.3-0.2-1.8-0.7c-0.4-0.5-0.6-1.1-0.7-1.8c0-0.7,0.2-1.3,0.7-1.8c0.5-0.5,1.1-0.8,1.8-0.8
			c0.7,0,1.3,0.2,1.8,0.7C33.7,42.5,33.9,43.1,33.9,43.8z"/>
	</g>
</g>
</svg>
