<?xml version="1.0" encoding="utf-8"?>
<!-- Generator: Adobe Illustrator 21.0.0, SVG Export Plug-In . SVG Version: 6.00 Build 0)  -->
<svg version="1.1" id="Layer_1" xmlns:svgjs="http://svgjs.com/svgjs"
	 xmlns="http://www.w3.org/2000/svg" xmlns:xlink="http://www.w3.org/1999/xlink" x="0px" y="0px" viewBox="0 0 512 512"
	 style="enable-background:new 0 0 512 512;" xml:space="preserve">
<style type="text/css">
	.st0{fill:#FFB42F;}
</style>
<g>
	<g id="XMLID_28_">
		<path id="XMLID_29_" class="st0" d="M256,0C187.6,0,123.3,26.6,75,75c-99.8,99.8-99.8,262.2,0,362c48.4,48.4,112.6,75,181,75
			c68.4,0,132.7-26.6,181-75c99.8-99.8,99.8-262.2,0-362C388.7,26.6,324.4,0,256,0z M371.2,371.2c-4.5,4.5-10.5,6.8-16.5,6.8
			c-6,0-11.9-2.3-16.5-6.8L256,288.9l-82.3,82.3c-4.5,4.5-10.5,6.8-16.5,6.8c-6,0-11.9-2.3-16.5-6.8c-9.1-9.1-9.1-23.8,0-32.9
			l82.3-82.3l-82.3-82.3c-9.1-9.1-9.1-23.8,0-32.9c9.1-9.1,23.8-9.1,32.9,0l82.3,82.3l82.3-82.3c9.1-9.1,23.8-9.1,32.9,0
			c9.1,9.1,9.1,23.8,0,32.9L288.9,256l82.3,82.3C380.3,347.4,380.3,362.1,371.2,371.2z"/>
	</g>
</g>
</svg>
