<?xml version="1.0" encoding="utf-8"?>
<!-- Generator: Adobe Illustrator 19.2.0, SVG Export Plug-In . SVG Version: 6.00 Build 0)  -->
<svg version="1.1" id="Layer_1" xmlns="http://www.w3.org/2000/svg" xmlns:xlink="http://www.w3.org/1999/xlink" x="0px" y="0px"
	 viewBox="0 0 169.8 725.4" style="enable-background:new 0 0 169.8 725.4;" xml:space="preserve">
<style type="text/css">
	.st0{opacity:0.8;fill:#FFFFFF;enable-background:new    ;}
	.st1{fill:#FFFFFF;}
	.st2{opacity:0.5;}
	.st3{opacity:0.2;}
	.st4{fill:#606060;}
	.st5{fill:#FFB32C;}
	.st6{fill:#FFC76E;}
	.st7{fill:#FCCDA2;}
	.st8{fill:#FBB980;}
	.st9{fill:url(#SVGID_1_);}
	.st10{fill:#905C39;}
	.st11{fill:#643210;}
	.st12{fill:url(#SVGID_2_);}
	.st13{fill:#FCC99B;}
	.st14{fill:#FDE3CB;}
	.st15{fill:#CE3357;}
	.st16{fill:#693412;}
	.st17{fill:#FCC696;}
	.st18{fill:#FBC08C;}
	.st19{fill:#F7B5B7;}
	.st20{fill:url(#SVGID_3_);}
	.st21{fill:url(#SVGID_4_);}
	.st22{fill:#602D11;}
	.st23{fill:#481D00;}
	.st24{opacity:0.29;fill:#FFFFFF;enable-background:new    ;}
	.st25{fill:url(#SVGID_5_);}
	.st26{fill:url(#SVGID_6_);}
	.st27{fill:#00ADEE;}
	.st28{fill:#008FC8;}
	.st29{fill:#F16A21;}
	.st30{fill:url(#SVGID_7_);}
	.st31{fill:url(#SVGID_8_);}
	.st32{opacity:0.2;fill:#606060;enable-background:new    ;}
	.st33{fill:url(#SVGID_9_);}
	.st34{fill:#F1F1F2;}
	.st35{fill:#F8A556;}
	.st36{fill:url(#SVGID_10_);}
	.st37{fill:url(#SVGID_11_);}
	.st38{fill:#E4872E;}
	.st39{fill:#FDDDBF;}
	.st40{opacity:0.3;}
	.st41{opacity:0.5;fill:#3D7BA5;enable-background:new    ;}
</style>
<g>
	<g>
		<g>
			<path class="st0" d="M97.3,455.4c-1.1-0.9-1.4-1.6-1.1-3c0-0.3-0.3-0.4-0.5-0.2c-0.9,1.1-1.6,1.4-3,1.1c-0.3,0-0.4,0.3-0.2,0.5
				c1.1,0.9,1.4,1.6,1.1,3c0,0.3,0.3,0.4,0.5,0.2c0.9-1.1,1.6-1.4,3-1.1C97.4,455.9,97.5,455.6,97.3,455.4z"/>
			<path class="st0" d="M164.5,455.4c-1.5-1.2-1.8-2-1.5-3.9c0.1-0.3-0.4-0.5-0.6-0.3c-1.2,1.5-2,1.8-3.9,1.5
				c-0.3-0.1-0.5,0.4-0.3,0.6c1.5,1.2,1.8,2,1.5,3.9c-0.1,0.3,0.4,0.5,0.6,0.3c1.2-1.5,2-1.8,3.9-1.5
				C164.6,456.1,164.8,455.7,164.5,455.4z"/>
			<path class="st1" d="M102.2,415.8c-1.8-1.4-2.2-2.5-1.8-4.7c0.1-0.4-0.5-0.7-0.7-0.3c-1.4,1.8-2.5,2.2-4.7,1.8
				c-0.4-0.1-0.7,0.5-0.3,0.7c1.8,1.4,2.2,2.5,1.8,4.7c-0.1,0.4,0.5,0.7,0.7,0.3c1.4-1.8,2.5-2.2,4.7-1.8
				C102.3,416.6,102.5,416.1,102.2,415.8z"/>
			<path class="st0" d="M21.5,496.1c-1.1-0.9-1.4-1.6-1.1-3c0-0.3-0.3-0.4-0.5-0.2c-0.9,1.1-1.6,1.4-3,1.1c-0.3,0-0.4,0.3-0.2,0.5
				c1.1,0.9,1.4,1.6,1.1,3c0,0.3,0.3,0.4,0.5,0.2c0.9-1.1,1.6-1.4,3-1.1C21.5,496.6,21.7,496.3,21.5,496.1z"/>
			<path class="st0" d="M63.9,470.2c-1.5-1.2-1.8-2-1.5-3.9c0.1-0.3-0.4-0.5-0.6-0.3c-1.2,1.5-2,1.8-3.9,1.5
				c-0.3-0.1-0.5,0.4-0.3,0.6c1.5,1.2,1.8,2,1.5,3.9c-0.1,0.3,0.4,0.5,0.6,0.3c1.2-1.5,2-1.8,3.9-1.5
				C64,470.9,64.1,470.4,63.9,470.2z"/>
			<path class="st1" d="M34.1,449.5c-1.8-1.4-2.2-2.5-1.8-4.7c0.1-0.4-0.5-0.7-0.7-0.3c-1.4,1.8-2.5,2.2-4.7,1.8
				c-0.4-0.1-0.7,0.5-0.3,0.7c1.8,1.4,2.2,2.5,1.8,4.7c-0.1,0.4,0.5,0.7,0.7,0.3c1.4-1.8,2.5-2.2,4.7-1.8
				C34.2,450.3,34.4,449.7,34.1,449.5z"/>
			<path class="st1" d="M149.3,401.7c-0.4-2.3,0-3.3,1.8-4.8c0.3-0.3,0.1-0.8-0.3-0.7c-2.3,0.4-3.3,0-4.8-1.8
				c-0.3-0.3-0.8-0.1-0.7,0.3c0.4,2.3,0,3.3-1.8,4.8c-0.3,0.3-0.1,0.8,0.3,0.7c2.3-0.4,3.3,0,4.8,1.8
				C148.9,402.4,149.4,402.2,149.3,401.7z"/>
			<path class="st1" d="M76.1,381.7c-0.4-2.3,0-3.3,1.8-4.8c0.3-0.3,0.1-0.8-0.3-0.7c-2.3,0.4-3.3,0-4.8-1.8
				c-0.3-0.3-0.8-0.1-0.7,0.3c0.4,2.3,0,3.3-1.8,4.8c-0.3,0.3-0.1,0.8,0.3,0.7c2.3-0.4,3.3,0,4.8,1.8
				C75.6,382.3,76.2,382.1,76.1,381.7z"/>
			<path class="st0" d="M159,33.3c-1.5-1.2-1.8-2-1.5-3.9c0.1-0.3-0.4-0.5-0.6-0.3c-1.2,1.5-2,1.8-3.9,1.5c-0.3-0.1-0.5,0.4-0.3,0.6
				c1.5,1.2,1.8,2,1.5,3.9c-0.1,0.3,0.4,0.5,0.6,0.3c1.2-1.5,2-1.8,3.9-1.5C159.1,34,159.3,33.6,159,33.3z"/>
			<path class="st1" d="M29.9,36.8c-1.8-1.4-2.2-2.5-1.8-4.7c0.1-0.4-0.5-0.7-0.7-0.3c-1.4,1.8-2.5,2.2-4.7,1.8
				c-0.4-0.1-0.7,0.5-0.3,0.7c1.8,1.4,2.2,2.5,1.8,4.7c-0.1,0.4,0.5,0.7,0.7,0.3c1.4-1.8,2.5-2.2,4.7-1.8
				C30,37.6,30.3,37.1,29.9,36.8z"/>
			<path class="st1" d="M30.2,85.2c-1.8-1.4-2.2-2.5-1.8-4.7c0.1-0.4-0.5-0.7-0.7-0.3C26.3,82,25.2,82.4,23,82
				c-0.4-0.1-0.7,0.5-0.3,0.7c1.8,1.4,2.2,2.5,1.8,4.7c-0.1,0.4,0.5,0.7,0.7,0.3c1.4-1.8,2.5-2.2,4.7-1.8
				C30.3,86,30.5,85.5,30.2,85.2z"/>
			<path class="st1" d="M72.2,17.4c-0.4-2.3,0-3.3,1.8-4.8c0.3-0.3,0.1-0.8-0.3-0.7c-2.3,0.4-3.3,0-4.8-1.8
				c-0.3-0.3-0.8-0.1-0.7,0.3c0.4,2.3,0,3.3-1.8,4.8c-0.3,0.3-0.1,0.8,0.3,0.7c2.3-0.4,3.3,0,4.8,1.8C71.8,18.1,72.3,17.8,72.2,17.4
				z"/>
			<g class="st2">
				<path class="st0" d="M136.3,39.4c-1.1-0.9-1.4-1.6-1.1-3c0-0.3-0.3-0.4-0.5-0.2c-0.9,1.1-1.6,1.4-3,1.1c-0.3,0-0.4,0.3-0.2,0.5
					c1.1,0.9,1.4,1.6,1.1,3c0,0.3,0.3,0.4,0.5,0.2c0.9-1.1,1.6-1.4,3-1.1C136.4,39.9,136.5,39.6,136.3,39.4z"/>
				<path class="st0" d="M102.9,54.2c-1.5-1.2-1.8-2-1.5-3.9c0.1-0.3-0.4-0.5-0.6-0.3c-1.2,1.5-2,1.8-3.9,1.5
					c-0.3-0.1-0.5,0.4-0.3,0.6c1.5,1.2,1.8,2,1.5,3.9c-0.1,0.3,0.4,0.5,0.6,0.3c1.2-1.5,2-1.8,3.9-1.5
					C103,54.9,103.1,54.4,102.9,54.2z"/>
			</g>
		</g>
	</g>
	<g>
		<g class="st3">
			<circle class="st4" cx="67.1" cy="128.4" r="36.7"/>
		</g>
		<g>
			<g>
				<circle class="st5" cx="67.1" cy="122.4" r="36.7"/>
				<path class="st1" d="M67.1,159.9c-20.7,0-37.5-16.8-37.5-37.5s16.8-37.5,37.5-37.5s37.5,16.8,37.5,37.5
					C104.5,143.1,87.7,159.9,67.1,159.9z M67.1,86.4c-19.8,0-36,16.1-36,36c0,19.8,16.1,36,36,36c19.8,0,36-16.1,36-36
					C103,102.6,86.9,86.4,67.1,86.4z"/>
			</g>
		</g>
		<g>
			<g class="st3">
				<circle class="st4" cx="99.4" cy="309.9" r="47.2"/>
			</g>
			<g>
				<g>
					<circle class="st5" cx="99.4" cy="304.9" r="47.2"/>
					<path class="st1" d="M99.4,352.9c-26.4,0-47.9-21.5-47.9-47.9s21.5-48,47.9-48s47.9,21.5,47.9,47.9S125.9,352.9,99.4,352.9z
						 M99.4,258.5c-25.6,0-46.4,20.8-46.4,46.4s20.8,46.4,46.4,46.4s46.4-20.8,46.4-46.4S125,258.5,99.4,258.5z"/>
				</g>
			</g>
			<g>
				<g>
					<path class="st1" d="M66.5,308.4l2.6-0.6l-0.4-1.4c-0.3-1.1-0.4-2-0.3-2.7c0.1-0.7,0.3-1.3,0.6-1.8c0.3-0.5,0.7-0.8,1.2-1.1
						c0.5-0.3,1-0.4,1.6-0.6c1.1-0.3,2-0.4,2.5-0.4l0.7,3c-0.2,0-0.5,0-0.8,0c-0.3,0-0.6,0.1-0.9,0.2c-0.5,0.1-0.8,0.3-1.1,0.7
						c-0.3,0.3-0.3,0.8-0.1,1.6l0.4,1.8l3-0.7l0.7,2.8l-3,0.7l3.6,14.3l-3.5,0.9l-3.6-14.3l-2.6,0.6L66.5,308.4z"/>
					<path class="st1" d="M94.2,315.6c0.1,0.5,0.3,0.8,0.4,1c0.2,0.2,0.4,0.2,0.7,0.1c0.1,0,0.2-0.1,0.4-0.1c0.1,0,0.3-0.1,0.5-0.2
						l0.7,2.6c-0.1,0.1-0.3,0.2-0.4,0.3c-0.2,0.1-0.4,0.2-0.6,0.3c-0.2,0.1-0.4,0.2-0.6,0.3c-0.2,0.1-0.4,0.1-0.5,0.2
						c-0.7,0.2-1.3,0.2-1.9,0c-0.5-0.2-1-0.7-1.3-1.4c-0.5,0.9-1.2,1.6-2.2,2.2s-1.9,1-2.8,1.2c-0.7,0.2-1.4,0.2-2.1,0.2
						c-0.7,0-1.4-0.2-2-0.5c-0.6-0.3-1.1-0.7-1.6-1.3c-0.5-0.6-0.8-1.3-1-2.1c-0.3-1.1-0.3-2-0.1-2.7c0.2-0.8,0.5-1.4,1-1.9
						c0.5-0.5,1.1-1,1.8-1.3s1.4-0.7,2.1-0.9c0.6-0.3,1.2-0.5,1.7-0.7c0.6-0.2,1-0.4,1.4-0.7c0.4-0.2,0.7-0.5,0.9-0.9
						c0.2-0.3,0.2-0.8,0.1-1.3c-0.1-0.5-0.3-0.9-0.6-1.1c-0.3-0.3-0.6-0.4-1-0.5c-0.4-0.1-0.7-0.1-1.1-0.1c-0.4,0-0.8,0.1-1.1,0.2
						c-1,0.2-1.7,0.7-2.3,1.3c-0.5,0.6-0.7,1.4-0.6,2.3l-3.5,0.9c-0.2-1.1-0.2-2.1,0-2.9c0.2-0.8,0.6-1.6,1.2-2.2
						c0.6-0.6,1.2-1.1,2-1.5c0.8-0.4,1.6-0.7,2.5-0.9c0.8-0.2,1.6-0.3,2.4-0.3c0.8,0,1.5,0.1,2.3,0.4c0.7,0.2,1.3,0.6,1.8,1.2
						c0.5,0.5,0.9,1.3,1.1,2.2L94.2,315.6z M89.6,311.7c-0.4,0.5-1,0.9-1.8,1.2c-0.8,0.3-1.5,0.6-2.2,0.9c-0.4,0.2-0.7,0.3-1,0.5
						c-0.3,0.2-0.6,0.5-0.8,0.7c-0.2,0.3-0.4,0.6-0.4,1c-0.1,0.4,0,0.8,0.1,1.3c0.1,0.4,0.3,0.7,0.6,1c0.3,0.2,0.6,0.4,1,0.5
						c0.4,0.1,0.7,0.1,1.1,0.1c0.4,0,0.7-0.1,1-0.2c0.4-0.1,0.8-0.3,1.2-0.5c0.4-0.2,0.8-0.5,1.1-0.9c0.3-0.4,0.6-0.8,0.7-1.3
						c0.2-0.5,0.2-1,0-1.6L89.6,311.7z"/>
					<path class="st1" d="M93.1,294.7l3.5-0.9l5.9,23.7l-3.5,0.9L93.1,294.7z"/>
					<path class="st1" d="M107.6,310.5c0.4,1.1,1,1.8,1.7,2c0.8,0.3,1.6,0.3,2.6,0.1c0.3-0.1,0.7-0.2,1.1-0.4
						c0.4-0.2,0.8-0.4,1.1-0.6c0.3-0.2,0.6-0.5,0.7-0.9c0.2-0.4,0.2-0.8,0-1.3c-0.1-0.5-0.4-0.8-0.8-1.1c-0.4-0.2-0.8-0.4-1.4-0.5
						c-0.5-0.1-1.1-0.1-1.8-0.1c-0.6,0-1.3,0-2,0c-0.7,0-1.4,0-2-0.1c-0.7-0.1-1.3-0.2-1.8-0.5s-1.1-0.6-1.5-1.2
						c-0.4-0.5-0.8-1.2-1-2.1c-0.2-0.9-0.2-1.8,0-2.5c0.3-0.7,0.7-1.4,1.2-1.9c0.5-0.5,1.2-1,1.9-1.3c0.7-0.4,1.5-0.6,2.2-0.8
						c0.8-0.2,1.6-0.3,2.4-0.3c0.8,0,1.5,0.1,2.2,0.4c0.7,0.3,1.3,0.7,1.9,1.3c0.6,0.6,1,1.3,1.4,2.3l-3.6,0.9
						c-0.4-0.9-0.9-1.4-1.6-1.5c-0.7-0.2-1.4-0.1-2.2,0.1c-0.2,0.1-0.5,0.2-0.9,0.3c-0.3,0.1-0.6,0.3-0.9,0.5
						c-0.3,0.2-0.5,0.4-0.6,0.7c-0.1,0.3-0.2,0.6-0.1,1c0.1,0.5,0.4,0.8,0.7,1c0.4,0.2,0.8,0.4,1.3,0.4c0.5,0.1,1.1,0.1,1.8,0.1
						c0.6,0,1.3,0,2,0c0.7,0,1.3,0,2,0.1c0.7,0.1,1.3,0.2,1.9,0.5s1.1,0.6,1.5,1.1c0.4,0.5,0.8,1.2,1,2c0.3,1,0.3,1.9,0,2.8
						c-0.3,0.8-0.7,1.5-1.2,2.1c-0.6,0.6-1.3,1.1-2,1.5c-0.8,0.4-1.6,0.7-2.4,0.9c-1,0.2-2,0.4-2.9,0.3c-0.9,0-1.7-0.2-2.5-0.6
						c-0.7-0.3-1.4-0.8-1.9-1.5s-1-1.5-1.2-2.5L107.6,310.5z"/>
					<path class="st1" d="M123,304.4c0.2,0.7,0.4,1.3,0.7,1.9c0.3,0.6,0.7,1.1,1.2,1.4c0.5,0.4,1,0.6,1.6,0.8c0.6,0.1,1.3,0.1,2-0.1
						c1-0.3,1.8-0.7,2.3-1.3c0.5-0.6,0.8-1.5,0.9-2.5l3.3-0.8c0,1-0.1,1.9-0.3,2.7c-0.3,0.8-0.7,1.6-1.2,2.2
						c-0.5,0.7-1.1,1.2-1.8,1.7c-0.7,0.5-1.5,0.8-2.4,1c-1.2,0.3-2.4,0.4-3.5,0.2c-1.1-0.2-2-0.6-2.9-1.3c-0.9-0.6-1.6-1.5-2.2-2.5
						c-0.6-1-1.1-2.2-1.4-3.5c-0.3-1.2-0.4-2.4-0.3-3.6c0.1-1.2,0.4-2.3,0.8-3.3c0.5-1,1.1-1.9,1.9-2.6c0.8-0.7,1.8-1.2,3-1.5
						c1.2-0.3,2.4-0.3,3.6,0c1.1,0.3,2.1,0.9,3,1.6c0.9,0.8,1.6,1.7,2.2,2.8c0.6,1.1,1,2.4,1.2,3.7L123,304.4z M130.6,299.9
						c-0.2-0.6-0.5-1.1-0.8-1.6c-0.3-0.5-0.7-0.9-1.2-1.2c-0.4-0.3-0.9-0.6-1.5-0.7c-0.5-0.1-1.1-0.1-1.7,0
						c-0.6,0.2-1.1,0.4-1.6,0.8c-0.4,0.4-0.8,0.8-1,1.3c-0.3,0.5-0.4,1.1-0.5,1.7c-0.1,0.6,0,1.2,0.1,1.9L130.6,299.9z"/>
				</g>
			</g>
		</g>
		<g>
			<circle class="st5" cx="123.7" cy="140.2" r="5"/>
		</g>
		<g>
			<circle class="st5" cx="22.7" cy="280.7" r="7.6"/>
		</g>
		<g>
			<circle class="st6" cx="38.5" cy="256.2" r="3.1"/>
		</g>
		<g>
			<circle class="st6" cx="45.6" cy="353.9" r="3.1"/>
		</g>
		<g>
			<g>
				<path class="st1" d="M39.8,104.8l17,3.4l-0.6,3.2l-6.7-1.3l-3.6,17.8l-3.7-0.7l3.6-17.8l-6.6-1.3L39.8,104.8z"/>
				<path class="st1" d="M54.9,113.8l3.1,0.6l-0.6,2.9l0.1,0c0.2-0.4,0.5-0.8,0.8-1.1c0.4-0.3,0.8-0.6,1.2-0.9
					c0.5-0.2,1-0.4,1.5-0.5c0.5-0.1,1-0.1,1.6,0c0.4,0.1,0.7,0.1,0.8,0.2c0.1,0,0.3,0.1,0.4,0.2l-0.7,3.2c-0.2-0.1-0.5-0.2-0.7-0.2
					c-0.2-0.1-0.5-0.1-0.7-0.2c-0.6-0.1-1.1-0.1-1.7,0c-0.5,0.1-1,0.4-1.5,0.7s-0.9,0.9-1.2,1.5c-0.3,0.6-0.6,1.3-0.8,2.2l-1.5,7.2
					l-3.4-0.7L54.9,113.8z"/>
				<path class="st1" d="M75.5,133.8l-3.3-0.7l0.4-2.1l-0.1,0c-0.6,0.7-1.3,1.2-2.2,1.5c-0.9,0.3-1.8,0.4-2.6,0.2
					c-2-0.4-3.3-1.2-4-2.4c-0.7-1.2-0.8-2.8-0.4-4.8l1.9-9.6l3.4,0.7l-1.9,9.3c-0.3,1.3-0.2,2.3,0.2,3c0.4,0.7,1.1,1.1,2,1.3
					c0.7,0.1,1.3,0.2,1.8,0c0.5-0.1,1-0.3,1.3-0.6c0.4-0.3,0.7-0.7,0.9-1.2c0.2-0.5,0.4-1,0.5-1.6l1.8-8.8l3.4,0.7L75.5,133.8z"/>
				<path class="st1" d="M83,128.3c-0.1,0.6-0.1,1.2-0.1,1.8s0.2,1.1,0.5,1.6c0.3,0.5,0.6,0.9,1.1,1.2c0.5,0.3,1,0.6,1.7,0.7
					c1,0.2,1.8,0.1,2.5-0.2c0.7-0.3,1.3-0.8,1.7-1.6l3.2,0.6c-0.3,0.8-0.8,1.5-1.4,2c-0.6,0.6-1.2,1-1.9,1.3s-1.4,0.5-2.2,0.6
					c-0.8,0.1-1.6,0-2.4-0.1c-1.2-0.2-2.2-0.6-3.1-1.2c-0.8-0.6-1.5-1.3-2-2.1c-0.5-0.8-0.8-1.8-0.9-2.8c-0.1-1-0.1-2.2,0.2-3.3
					c0.2-1.1,0.6-2.1,1.1-3c0.5-0.9,1.2-1.7,2-2.3c0.8-0.6,1.7-1,2.7-1.3c1-0.2,2.1-0.3,3.2,0c1.2,0.2,2.2,0.7,3.1,1.4
					c0.9,0.7,1.5,1.5,2,2.5c0.5,1,0.7,2,0.8,3.1c0.1,1.1-0.1,2.2-0.4,3.4L83,128.3z M91.3,127.7c0.1-0.5,0.1-1.1,0-1.6
					c-0.1-0.5-0.3-1-0.5-1.4c-0.3-0.4-0.6-0.8-1-1.1c-0.4-0.3-0.9-0.5-1.5-0.6c-0.6-0.1-1.1-0.1-1.7,0c-0.5,0.1-1,0.3-1.4,0.6
					c-0.4,0.3-0.8,0.7-1.1,1.1c-0.3,0.4-0.5,1-0.7,1.5L91.3,127.7z"/>
			</g>
		</g>
		<g>
			<path class="st1" d="M65.1,204.2c0.8-1.6,1.9-2.9,3.2-4c1.3-1.1,2.8-1.8,4.6-2.3c1.7-0.4,3.6-0.5,5.7-0.1c2.1,0.4,3.9,1,5.4,2
				c1.5,1,2.6,2.2,3.5,3.7s1.5,3.1,1.7,4.8c0.3,1.8,0.2,3.7-0.1,5.6s-0.9,3.7-1.8,5.3c-0.8,1.6-1.9,2.9-3.2,4
				c-1.3,1.1-2.8,1.8-4.5,2.2c-1.7,0.4-3.6,0.5-5.8,0.1c-2.1-0.4-3.9-1-5.4-2c-1.5-1-2.7-2.2-3.6-3.6s-1.5-3-1.7-4.8
				s-0.2-3.6,0.1-5.6S64.3,205.8,65.1,204.2z M67.9,214.7c0.2,1.3,0.6,2.5,1.2,3.4c0.6,1,1.4,1.8,2.3,2.4c0.9,0.6,2,1,3.1,1.2
				c1.1,0.2,2.2,0.2,3.3-0.1c1.1-0.3,2.1-0.8,3-1.5c0.9-0.7,1.7-1.7,2.3-2.8c0.6-1.2,1.1-2.6,1.4-4.2c0.3-1.6,0.3-3.1,0.1-4.4
				c-0.2-1.3-0.6-2.5-1.2-3.5c-0.6-1-1.4-1.8-2.3-2.4c-0.9-0.6-2-1-3.1-1.2c-1.1-0.2-2.2-0.2-3.3,0.1c-1.1,0.3-2.1,0.8-3,1.5
				c-0.9,0.7-1.7,1.7-2.3,2.9c-0.6,1.2-1.1,2.6-1.4,4.2C67.7,212,67.7,213.4,67.9,214.7z"/>
			<path class="st1" d="M100.6,202.2l-1,5.6l0.1,0c1.4-2,3-3.3,4.7-4.1c1.7-0.8,3.8-0.9,6.1-0.4l-0.8,4.6c-1.7-0.3-3.3-0.3-4.6,0
				c-1.3,0.3-2.4,0.8-3.3,1.6c-0.9,0.8-1.7,1.8-2.2,3.1c-0.6,1.3-1,2.8-1.3,4.5l-2,11.8l-4.4-0.8l4.6-26.6L100.6,202.2z"/>
		</g>
	</g>
	<g>
		<path class="st7" d="M117.8,595.6c-9-3.3-8.1-16.1-8.1-16.1l-6.9-0.3l0,0h-0.3h-0.3l0,0l-6.9,0.3c0,0,0.9,12.8-8.1,16.1
			c0,0,4,5.7,15.8,5.7C115,601.3,118.3,595.7,117.8,595.6z"/>
		<path class="st8" d="M102.9,579.2L102.9,579.2h-0.3h-0.3l0,0l-6.9,0.3c0,0,0.3,4.6-1.3,9c5.5,0.9,11.2,1,17,0
			c-1.7-4.4-1.3-9-1.3-9L102.9,579.2z"/>
		<g>
			
				<linearGradient id="SVGID_1_" gradientUnits="userSpaceOnUse" x1="99.0608" y1="539.4811" x2="99.0608" y2="592.538" gradientTransform="matrix(1 0 0 1 0 -40)">
				<stop  offset="0" style="stop-color:#7A3F1B"/>
				<stop  offset="1" style="stop-color:#6A3513"/>
			</linearGradient>
			<path class="st9" d="M118.2,480.6c1.6-0.1,3.2-0.2,4.8-0.3c-1.3-2.3-5.6-2.2-7.4-0.7c-0.7-0.6-1.3-1.2-2-1.8c-1.1-1-2-1.5-3.3-2
				c-2.1-0.9,0.5,2.7,0.8,3.1c0,0-13.9-7.8-31.6-0.8s-29.1,25.8-29.7,37.2c-1,17.5,5,36.3,10,41.9h79.9c0,0,10.4-19.8,8.5-42.8
				C145.9,486,118.2,480.6,118.2,480.6z"/>
			<path class="st10" d="M63.4,514.4c0,0,20.7,6.6,38.9-4.2C102.4,510.2,83.6,517,63.4,514.4z"/>
			<path class="st11" d="M50,513.1c-0.1,0.7-0.2,1.4-0.2,2.1c-0.1,2.2-0.1,4.5-0.1,6.8c1-5.2,5-17.5,20.5-23.7
				C70.2,498.2,57.6,500,50,513.1z"/>
			<path class="st11" d="M70.1,522.4c-6.9,0.8-14,2.3-20,5.7c1.5,13,5.8,24.8,9.6,29h79.9c0,0,6.6-12.5,8.3-29.2
				c-2.2-1.7-4.7-3.1-7.4-3.9c-6.8-2.1-14.2-2-20.7-5.1c-1.9-0.9-2.5-2.9-3.4-4.8c-3,2.7-7.1,4.6-10.9,5.7c-6.8,2-13.9,3.1-21.1,3.2
				c4.1-0.9,8.1-2.4,11.8-4.5C87.9,521.2,78.9,521.4,70.1,522.4z"/>
			
				<linearGradient id="SVGID_2_" gradientUnits="userSpaceOnUse" x1="99.7" y1="565.5287" x2="99.7" y2="595.4464" gradientTransform="matrix(1 0 0 1 0 -40)">
				<stop  offset="0" style="stop-color:#532507"/>
				<stop  offset="1" style="stop-color:#3F1600"/>
			</linearGradient>
			<path class="st12" d="M53.7,544.8c1.8,5.6,4,10.1,6.1,12.4h79.9c0,0,3.5-6.6,6-16.7c-1.6-4.6-3.4-7.7-3.4-7.7l-84.7,1.5
				C55.9,536.3,54.6,540.7,53.7,544.8z"/>
			<path class="st13" d="M63.4,555.3c0,0-2.2-1.4-4.4-0.3c-2.2,1.2-2.3,4.6-1.3,6.4c1,1.9,4,5.4,9.3,3.6L63.4,555.3z"/>
			<path class="st13" d="M135.7,555.3c0,0,2.2-1.4,4.4-0.3c2.2,1.2,2.3,4.6,1.3,6.4c-1,1.9-4,5.4-9.3,3.6L135.7,555.3z"/>
			<g>
				<path class="st14" d="M104.2,529.3c1.8-1.2,3.6-2.4,5.4-3.6c-7.2,3.7-15.6,5-23.6,3.6c2.6-1.2,5.4-1.8,8.2-2.4
					c-10.2,0.4-20.6,0.8-30.2,4.2c-1.8,0.6-3.5,1.4-5.1,2.3c-0.5,0.3-0.9,0.6-1.3,0.9c0.4,5.6,1,10,2,14.2
					c6.7,30,33.6,43.4,58.9,30.7c14.5-7.2,21.5-24.1,23.8-46.5c-3.8-3.1-8.5-4.9-13.4-5C120.6,527.5,112.1,531.9,104.2,529.3z"/>
			</g>
			<path class="st15" d="M94.8,563.7c0,0,6.4,0.7,10.6,0c0,0,0.1,9.9-5.3,9.9S94.8,563.7,94.8,563.7z"/>
			<path class="st16" d="M112.5,505c-5.3,2.1-11.2,2.2-16.9,1.6c-3.4-0.4-6.8-1.1-10.2-1.2s-7,0.5-9.8,2.5c0.9-1.2,3.7-3.1,6.1-3.8
				c2.1-0.6,4.4-1,6.6-1c8.8,0,17.4,2.3,25.8-0.3c1.4-0.4,2.9-1.1,3.7-2.3C116.4,502.7,115,504.1,112.5,505z"/>
			<path class="st17" d="M104.2,529.3c2.3-0.8,5.7-2.9,5.4-3.6c-7.2,3.7-15.6,5-23.6,3.6c2.6-1.2,5.4-1.8,8.2-2.4
				c-10.2,0.4-20.6,0.8-30.2,4.2c-1.8,0.6-3.5,1.4-5.1,2.3c-0.5,0.3-0.9,0.6-1.3,0.9c0.1,0.8,0.1,1.6,0.2,2.4
				c2.1-1.4,11.8-7,26.3-6.9c0,0,5.7,3.4,18.4,0.1c0,0,4.1,3.3,15,0.6c10.5-2.6,20.6,0.5,24.5,5.2c0.1-0.9,0.2-1.9,0.3-2.8
				c-3.8-3.1-8.5-4.9-13.4-5C120.6,527.5,112.1,531.9,104.2,529.3z"/>
			<path class="st18" d="M101.1,559c0,0-4.9-2.4-2.6-3C100.9,555.3,104,558.2,101.1,559z"/>
			<path class="st19" d="M103.8,571.2c-0.6-0.5-1.6-1.1-3.6-1.1c-2.1,0-3.2,0.6-3.7,1.2c0.8,1.3,1.9,2.3,3.6,2.3
				C101.9,573.6,103,572.6,103.8,571.2z"/>
			<path class="st10" d="M99.5,480.6c-4.8-0.7-9.8-0.4-14.3,1.3c-0.8,0.3-1.6,0.7-2.3,1.3c6.2-1.4,12.8-1.4,19-0.1
				c1.6,0.3,3.3,0.8,4.5,2c-0.4,0.3-1,0.3-1.5,0.2c-4.4-0.5-8.9-0.4-13.3,0.2c-1.9,0.3-3.9,0.7-5.5,1.9c7.3-0.6,14.8-1,21.8,1
				c0.8,0.2,1.6,0.5,2.5,0.5c1.5,0,3-0.9,2.7-2.5c-0.2-1.4-2-1.9-3.1-2.4C106.7,482.4,103.2,481.2,99.5,480.6z"/>
			<path class="st10" d="M135.6,499.8c0.7,1.4,1.3,2.8,1.5,4.3c-3.4-7.6-10.8-13.2-19-14.5c-0.9-0.1-2.1-0.4-2.2-1.5
				c-0.1-0.8,0.4-1,1-1.1c1.6-0.3,3.8,0.6,5.3,1.1c3.6,1.3,6.9,3.5,9.6,6.3C133.3,496.1,134.6,497.9,135.6,499.8z"/>
			
				<linearGradient id="SVGID_3_" gradientUnits="userSpaceOnUse" x1="71.9231" y1="570.7047" x2="82.679" y2="570.7047" gradientTransform="matrix(1 0 0 1 0 -40)">
				<stop  offset="0" style="stop-color:#7A3F1B"/>
				<stop  offset="1" style="stop-color:#6A3513"/>
			</linearGradient>
			<path class="st20" d="M82.7,530.7c0,0-5.2-4.2-10.8,1.5C71.9,532.2,77.7,531.2,82.7,530.7z"/>
			<g>
				
					<linearGradient id="SVGID_4_" gradientUnits="userSpaceOnUse" x1="45.6919" y1="532.3955" x2="57.53" y2="532.3955" gradientTransform="matrix(0.9958 9.178754e-002 -9.178754e-002 0.9958 75.3804 13.2457)">
					<stop  offset="0" style="stop-color:#7A3F1B"/>
					<stop  offset="1" style="stop-color:#6A3513"/>
				</linearGradient>
				<path class="st21" d="M83.8,547.4c-0.2-3.9-3-6.3-6.3-6.1s-5.7,3.3-5.5,6.9c0.2,3.9,3.1,7,6.3,6.8
					C81.6,554.7,84,551.4,83.8,547.4z"/>
				<path class="st1" d="M83.9,548.3c-0.2-3.9-3-6.3-6.3-6.1s-5.7,3.3-5.5,6.9c0.2,3.9,3.1,7,6.3,6.8
					C81.6,555.6,84.1,552.3,83.9,548.3z"/>
				<path class="st22" d="M83.6,549c-0.2-2.9-2.3-5.1-4.6-5c-2.4,0.2-4.2,2.6-4,5.5s2.3,5.1,4.6,5C81.9,554.4,83.7,551.9,83.6,549z"
					/>
				<path class="st23" d="M83.3,549c-0.1-1.9-1.5-3.4-3.1-3.3c-1.6,0.1-2.8,1.8-2.7,3.7c0.1,1.9,1.5,3.4,3.1,3.3
					C82.2,552.6,83.4,551,83.3,549z"/>
				<polygon class="st1" points="75.3,544.4 77.6,547.7 74.7,547.2 				"/>
				<path class="st24" d="M77.6,548.5c-0.8,0.1-1.5,0.9-1.4,1.9s0.8,1.7,1.6,1.7c0.8-0.1,1.5-0.9,1.4-1.9
					C79.2,549.2,78.5,548.5,77.6,548.5z"/>
			</g>
			
				<linearGradient id="SVGID_5_" gradientUnits="userSpaceOnUse" x1="-1093.9421" y1="570.7047" x2="-1083.1862" y2="570.7047" gradientTransform="matrix(-1 0 0 1 -966.2297 -40)">
				<stop  offset="0" style="stop-color:#7A3F1B"/>
				<stop  offset="1" style="stop-color:#6A3513"/>
			</linearGradient>
			<path class="st25" d="M117,530.7c0,0,5.2-4.2,10.8,1.5C127.7,532.2,121.9,531.2,117,530.7z"/>
			<g>
				
					<linearGradient id="SVGID_6_" gradientUnits="userSpaceOnUse" x1="-1115.4957" y1="639.4271" x2="-1103.6578" y2="639.4271" gradientTransform="matrix(-0.9958 9.178754e-002 9.178754e-002 0.9958 -1041.6101 13.2457)">
					<stop  offset="0" style="stop-color:#7A3F1B"/>
					<stop  offset="1" style="stop-color:#6A3513"/>
				</linearGradient>
				<path class="st26" d="M116.1,547.4c0.2-3.9,3-6.3,6.3-6.1s5.7,3.3,5.5,6.9c-0.2,3.9-3.1,7-6.3,6.8
					C118.3,554.7,115.9,551.4,116.1,547.4z"/>
				<path class="st1" d="M116,548.3c0.2-3.9,3-6.3,6.3-6.1s5.7,3.3,5.5,6.9c-0.2,3.9-3.1,7-6.3,6.8
					C118.3,555.6,115.8,552.3,116,548.3z"/>
				<path class="st22" d="M116.4,549c0.2-2.9,2.3-5.1,4.6-5c2.4,0.2,4.2,2.6,4,5.5s-2.3,5.1-4.6,5C118,554.4,116.2,551.9,116.4,549z
					"/>
				<path class="st23" d="M116.6,549c0.1-1.9,1.5-3.4,3.1-3.3c1.6,0.1,2.8,1.8,2.7,3.7c-0.1,1.9-1.5,3.4-3.1,3.3
					S116.5,551,116.6,549z"/>
				<polygon class="st1" points="124.7,544.4 122.3,547.7 125.3,547.2 				"/>
				<path class="st24" d="M122.3,548.5c0.8,0.1,1.5,0.9,1.4,1.9s-0.8,1.7-1.6,1.7c-0.8-0.1-1.5-0.9-1.4-1.9
					C120.7,549.2,121.5,548.5,122.3,548.5z"/>
			</g>
		</g>
		<g>
			<path class="st27" d="M122.5,595.9c2.1,1.6,9.5,2.3,16.9,7.7c6,4.3,16,19.4,22.4,48.1c0,0-9.1,3.5-21.6,6.1
				c2.1,21.9,9.2,49.1,9.2,49.1c-50.3,11.4-95.1,0-95.1,0c4.4-20.1,6.9-35.1,8.3-49.3c-13.2-1-23.5-5.5-23.5-5.5
				s12.6-41.2,23.5-48.1c4.4-2.8,13.4-7.2,20-8.3l3.3-2c0,0,13.3,7.3,33.2,0L122.5,595.9z"/>
			<path class="st28" d="M135.3,601c-5.9-3.1-11.1-3.9-12.8-5.1l-3.3-2.5c-20,7.3-33.2,0-33.2,0l-3.3,2c-3.8,0.6-8.5,2.4-12.6,4.3
				c4-1.1,10.2-2.1,15.7,0.1c11.4,4.5,20,4.7,31.3,0.2C122.5,597.9,130,599.6,135.3,601z"/>
			<path class="st28" d="M122.4,614.7c-1.8,1.4-3.2,3.3-5.1,4.7c-2.2,1.6-4.7,3-7.3,4.1c-5.3,2.3-11.2,3.5-17.1,4
				c-1.5,0.1-3.1,0.2-4.5,0.8s-2.5,1.8-2.3,3.2c0.2,2,2.9,2.9,5.1,3.1c7.2,0.7,14.6-1.6,20.2-5.5s9.4-9.2,11.8-15
				C123,614.2,122.7,614.4,122.4,614.7z"/>
			<path class="st29" d="M122.5,594.9l-3.3-2.5c-20,7.3-33.2,0-33.2,0l-3.3,2C82.7,594.5,96.7,604.8,122.5,594.9z"/>
			
				<linearGradient id="SVGID_7_" gradientUnits="userSpaceOnUse" x1="143.5749" y1="660.6215" x2="143.5749" y2="696.0594" gradientTransform="matrix(1 0 0 1 0 -40)">
				<stop  offset="0" style="stop-color:#008FC8"/>
				<stop  offset="1" style="stop-color:#0078A7"/>
			</linearGradient>
			<path class="st30" d="M140.2,657.6c1.1-0.2,2.3-0.5,3.4-0.7c-0.5-3.9-1.4-11.5-1.3-16.7c0.1-7.3,6.5-20.9,4.5-20.2
				s-4.3,13.5-5.1,10.8C140.9,628,142,606,142,606C139,627.1,140.2,657.6,140.2,657.6z"/>
			
				<linearGradient id="SVGID_8_" gradientUnits="userSpaceOnUse" x1="59.678" y1="661.1986" x2="59.678" y2="698.2361" gradientTransform="matrix(1 0 0 1 0 -40)">
				<stop  offset="0" style="stop-color:#008FC8"/>
				<stop  offset="1" style="stop-color:#0078A7"/>
			</linearGradient>
			<path class="st31" d="M61.5,633.4c-0.3,4.2-2.3-10.6-4.4-12.5c-2.1-1.9,2.5,12.3,3.1,18.4c0.4,4.3-0.6,13.1-1.3,17.8
				c1.2,0.2,2.4,0.3,3.6,0.4c0,0,1.3-34.4-1.5-52.6C61.2,604.9,61.9,629.2,61.5,633.4z"/>
		</g>
	</g>
	<rect x="34.6" y="650.1" class="st1" width="121.3" height="62.8"/>
	<path class="st32" d="M161.9,650.1H34.6v19.1l14.6,4.8c0,0,1.9,1,4.8,0c2.8-1,44-15.2,44-15.2l64,4.2v-12.9L161.9,650.1
		L161.9,650.1z"/>
	<path class="st14" d="M74.4,645.9c-5.3-9.3-5.4-13-6.4-14.5c-1-1.4-12.6-10.1-12.7-11.3c-0.2-1.2,2.1-2.1,5.7,0
		c3.6,2.1,12.6,8.5,13.3,9.6c0.7,1.1,11.4,10.9,13.5,12.1c0,0,46.4-5,62.6-3.7c0,0,11.3,1.1,11.9,9.8c0.7,9.7-8.8,11.1-14.2,11.1
		s-44-3.7-60.4-6.2C87.8,652.9,79.7,655.2,74.4,645.9z"/>
	<g>
		<g>
			
				<linearGradient id="SVGID_9_" gradientUnits="userSpaceOnUse" x1="-10.9278" y1="645.7739" x2="35.573" y2="676.0274" gradientTransform="matrix(1 0 0 1 0 -40)">
				<stop  offset="0" style="stop-color:#EAEBEC"/>
				<stop  offset="1" style="stop-color:#CFD0D2"/>
			</linearGradient>
			<path class="st33" d="M50.2,616.9c0,0-20.3-14.8-40-15.1c0,0,10.1,45.3,10.1,53l30.1,8.7L50.2,616.9z"/>
			<path class="st34" d="M92.6,604.1C76.4,599.5,52.8,616,52.8,616c-1.9,1.2-4,0.3-4,0.3s-24.9-14.9-41.9-10.9
				c0,0,8.7,40.6,9.3,48.3l32.8,9.4c2.3,1.5,4-0.3,4-0.3l31.7-10.5C85.1,644.6,92.6,604.1,92.6,604.1z"/>
			<g>
				<path class="st35" d="M52.9,616.4c-2.1,1.3-4.4,0.3-4.4,0.3l-1.1,0.7l0.7,53.1l1.3,0.7c2.6,1.7,4.4-0.3,4.4-0.3l1.4-1.9
					l-0.9-51.9L52.9,616.4z"/>
			</g>
			<g>
				
					<linearGradient id="SVGID_10_" gradientUnits="userSpaceOnUse" x1="64.1548" y1="669.7457" x2="95.4752" y2="695.846" gradientTransform="matrix(1 0 0 1 0 -40)">
					<stop  offset="0" style="stop-color:#FCBA7E"/>
					<stop  offset="1" style="stop-color:#F8A556"/>
				</linearGradient>
				<path class="st36" d="M97.2,607.4c0,0-8.2,43.6-8.6,52L53.8,671L53,616.5C52.9,616.4,78.7,601.7,97.2,607.4z"/>
			</g>
			
				<linearGradient id="SVGID_11_" gradientUnits="userSpaceOnUse" x1="27.2871" y1="673.3142" x2="22.7763" y2="699.8586" gradientTransform="matrix(1 0 0 1 0 -40)">
				<stop  offset="0" style="stop-color:#FCBA7E"/>
				<stop  offset="1" style="stop-color:#F8A556"/>
			</linearGradient>
			<path class="st37" d="M2.9,609.3c0,0,9.7,43.3,10.4,51.7l36,10.3l-0.8-54.5C48.5,616.7,21.7,602.7,2.9,609.3z"/>
			<path class="st38" d="M11.2,648.6c1.8-1.4,4.3-3.3,6.1-4.3c2.9-1.6,1-3.9,1-3.9s2.6-0.9,3.3-2.6c0.8-1.7-0.5-2.5-0.5-2.5
				c1-0.6,1.2-1.8,1.2-1.8c0.3-2.8-2.1-2.4-2.8-3c-0.6-0.6,1.7-1.3-0.4-3.7c-1.9-2.1-11.1-2.9-13.2-3.1
				C7.8,631.8,9.6,640.6,11.2,648.6z"/>
		</g>
		<path class="st39" d="M4.3,640.5c-0.1-0.2-0.2-0.5-0.3-0.7c-0.2-0.7-0.2-1.6,0.2-2.3c0.1-0.2,0.3-0.4,0.2-0.6
			c0-0.1-0.1-0.2-0.2-0.3c-0.8-0.9-1.4-2.1-1.4-3.4c0-0.6,0-1.2,0.3-1.8c0.2-0.5,0.6-0.8,0.5-1.4c-0.1-0.5-0.4-0.9-0.5-1.4
			c-0.1-0.6,0-1.3,0.1-2c0.5-1.5,2-1.8,3.6-1.8c0.8,0,1.6,0.1,2.4,0.3c2.7,0.5,5.1,0.5,7.7,1.5c0.6,0.2,1.2,0.5,1.7,1
			c0.4,0.5,0.6,1.3,0.2,1.8c-0.4,0.6-1.2,0.6-1.9,0.6c-2.7,0-5.4,0-8.1-0.1c-0.2,0-1.8-0.2-1.3,0.3c0.1,0.1,0.3,0.1,0.4,0.1
			c3,0.3,5.9,0.2,8.9,0.5c1.3,0.1,2.5,0.3,3.7,0.7c0.3,0.1,0.5,0.2,0.7,0.4c0.5,0.4,0.4,1.2,0.2,1.8c-0.4,0.9-2.2,1.3-3.4,1.4
			c-2,0-3.2,0.2-5.5,0.3c-1,0-2.3,0.2-3.4,0.2c-0.2,0-0.9-0.1-1,0.2c0,0.1,0.1,0.2,0.3,0.2c3.4,0.5,6.9,0.4,10.4-0.2
			c0.6-0.1,1.2-0.2,1.7,0.2c0.4,0.4,0.5,1.1,0.3,1.6s-0.7,0.9-1.2,1.2c-1,0.5-2.1,0.8-3.2,1.1c-1.2,0.4-2.4,0.7-3.6,1
			c-0.8,0.2-1.6,0.3-2.4,0.4c-0.2,0-0.6,0-0.6,0.4c0,0.5,1.6-0.1,1.9-0.1c1.4-0.3,2.8-0.6,4.3-0.9c0.6-0.1,1.2-0.2,1.7,0.1
			c0.5,0.4,0.5,1.3,0.1,1.9c-0.4,0.6-1,0.9-1.7,1.2c-1.4,0.7-2.7,1.3-4.1,2c-1.3,0.6-2.3,1.3-3.8,0.7c-0.8-0.3-1.3-1.4-1.5-2.2
			c-0.1-0.5-0.1-1-0.3-1.4c-0.2-0.4-0.5-0.7-0.8-1.1C4.8,641.3,4.5,640.9,4.3,640.5z"/>
	</g>
	<g>
		<g class="st40">
			<g>
				<path class="st41" d="M28.2,547.5l-0.6-2.3c-0.1-0.3-0.1-0.7,0-1c0.1-0.4,0.3-0.8,0.5-1.2s0.5-0.8,0.8-1.2s0.5-0.9,0.8-1.3
					c0.2-0.5,0.4-0.9,0.5-1.4s0.1-1,0-1.5c-0.1-0.3-0.2-0.7-0.4-1c-0.2-0.3-0.5-0.5-0.7-0.7c-0.3-0.2-0.6-0.3-1-0.4
					c-0.4-0.1-0.7,0-1.1,0.1c-0.5,0.1-0.9,0.4-1.2,0.6c-0.3,0.3-0.5,0.6-0.6,1c-0.1,0.3-0.1,0.7-0.1,1.1c0,0.4,0.1,0.7,0.2,1.1
					l0.1,0.5l-5.4,1.5c0-0.1-0.1-0.2-0.1-0.3c-0.1-0.2-0.1-0.4-0.2-0.6c-0.3-1-0.3-2-0.1-2.9c0.2-0.9,0.6-1.8,1.2-2.6
					s1.4-1.5,2.4-2.1s2.1-1.1,3.4-1.4c1.2-0.3,2.4-0.5,3.5-0.5s2.1,0.2,2.9,0.6c0.9,0.4,1.6,0.9,2.2,1.6c0.6,0.7,1,1.5,1.3,2.5
					c0.2,0.7,0.2,1.4,0.1,2c-0.1,0.6-0.3,1.2-0.6,1.8s-0.6,1.1-1,1.6s-0.7,1-1.1,1.4c-0.3,0.4-0.6,0.8-0.8,1.2
					c-0.3,0.4-0.3,0.9-0.2,1.3l0.4,1.4L28.2,547.5z"/>
			</g>
			<g>
				
					<rect x="29.5" y="549.2" transform="matrix(0.9642 -0.265 0.265 0.9642 -145.0259 28.2281)" class="st41" width="5.2" height="4.8"/>
			</g>
		</g>
		<g>
			<path class="st1" d="M27.5,544.6l-0.6-2.3c-0.1-0.3-0.1-0.7,0-1c0.1-0.4,0.3-0.8,0.5-1.2s0.5-0.8,0.8-1.2s0.5-0.9,0.8-1.3
				c0.2-0.5,0.4-0.9,0.5-1.4s0.1-1,0-1.5c-0.1-0.3-0.2-0.7-0.4-1c-0.2-0.3-0.5-0.5-0.7-0.7c-0.3-0.2-0.6-0.3-1-0.4
				c-0.4-0.1-0.7,0-1.1,0.1c-0.5,0.1-0.9,0.4-1.2,0.6c-0.3,0.3-0.5,0.6-0.6,1c-0.1,0.3-0.1,0.7-0.1,1.1c0,0.4,0.1,0.7,0.2,1.1
				l0.1,0.5l-5.4,1.5c0-0.1-0.1-0.2-0.1-0.3c-0.1-0.2-0.1-0.4-0.2-0.6c-0.3-1-0.3-2-0.1-2.9c0.2-0.9,0.6-1.8,1.2-2.6
				s1.4-1.5,2.4-2.1s2.1-1.1,3.4-1.4c1.2-0.3,2.4-0.5,3.5-0.5s2.1,0.2,2.9,0.6c0.9,0.4,1.6,0.9,2.2,1.6c0.6,0.7,1,1.5,1.3,2.5
				c0.2,0.7,0.2,1.4,0.1,2c-0.1,0.6-0.3,1.2-0.6,1.8s-0.6,1.1-1,1.6s-0.7,1-1.1,1.4c-0.3,0.4-0.6,0.8-0.8,1.2
				c-0.3,0.4-0.3,0.9-0.2,1.3l0.4,1.4L27.5,544.6z"/>
		</g>
		<g>
			
				<rect x="28.7" y="546.4" transform="matrix(0.9642 -0.265 0.265 0.9642 -144.3129 27.9156)" class="st1" width="5.2" height="4.8"/>
		</g>
	</g>
	<g>
		<g class="st40">
			<g>
				<path class="st41" d="M149.1,483l0.6-1.4c0.1-0.2,0.2-0.4,0.4-0.5s0.5-0.3,0.7-0.4c0.3-0.1,0.6-0.2,0.9-0.3
					c0.3-0.1,0.6-0.2,0.9-0.3c0.3-0.1,0.6-0.3,0.8-0.5c0.3-0.2,0.5-0.5,0.6-0.8c0.1-0.2,0.2-0.4,0.2-0.7c0-0.2,0-0.5-0.1-0.7
					s-0.2-0.4-0.3-0.6c-0.2-0.2-0.4-0.3-0.6-0.4c-0.3-0.1-0.6-0.2-0.9-0.2c-0.3,0-0.5,0.1-0.7,0.3c-0.2,0.1-0.4,0.3-0.5,0.5
					s-0.3,0.4-0.4,0.6l-0.1,0.3l-3.3-1.5c0-0.1,0-0.1,0.1-0.2c0-0.1,0.1-0.2,0.1-0.4c0.3-0.6,0.7-1.1,1.2-1.5s1.1-0.6,1.7-0.8
					c0.6-0.1,1.3-0.2,2.1-0.1c0.7,0.1,1.5,0.3,2.3,0.7c0.8,0.3,1.4,0.7,1.9,1.2s0.9,1,1.2,1.5s0.4,1.1,0.4,1.7s-0.1,1.2-0.4,1.8
					c-0.2,0.4-0.4,0.8-0.7,1c-0.3,0.3-0.7,0.5-1,0.6c-0.4,0.2-0.8,0.3-1.1,0.4c-0.4,0.1-0.8,0.2-1.1,0.2c-0.4,0.1-0.7,0.2-0.9,0.3
					c-0.3,0.1-0.5,0.3-0.6,0.5l-0.4,0.9L149.1,483z"/>
			</g>
			<g>
				
					<rect x="147.8" y="485" transform="matrix(0.4099 -0.9121 0.9121 0.4099 -355.7692 423.454)" class="st41" width="3.1" height="3.4"/>
			</g>
		</g>
		<g>
			<path class="st1" d="M149.9,481.3l0.6-1.4c0.1-0.2,0.2-0.4,0.4-0.5s0.5-0.3,0.7-0.4c0.3-0.1,0.6-0.2,0.9-0.3
				c0.3-0.1,0.6-0.2,0.9-0.3c0.3-0.1,0.6-0.3,0.8-0.5c0.3-0.2,0.5-0.5,0.6-0.8c0.1-0.2,0.2-0.4,0.2-0.7c0-0.2,0-0.5-0.1-0.7
				s-0.2-0.4-0.3-0.6c-0.2-0.2-0.4-0.3-0.6-0.4c-0.3-0.1-0.6-0.2-0.9-0.2c-0.3,0-0.5,0.1-0.7,0.3c-0.2,0.1-0.4,0.3-0.5,0.5
				s-0.3,0.4-0.4,0.6l-0.1,0.3l-3.3-1.5c0-0.1,0-0.1,0.1-0.2c0-0.1,0.1-0.2,0.1-0.4c0.3-0.6,0.7-1.1,1.2-1.5s1.1-0.6,1.7-0.8
				c0.6-0.1,1.3-0.2,2.1-0.1c0.7,0.1,1.5,0.3,2.3,0.7c0.8,0.3,1.4,0.7,1.9,1.2s0.9,1,1.2,1.5s0.4,1.1,0.4,1.7s-0.1,1.2-0.4,1.8
				c-0.2,0.4-0.4,0.8-0.7,1c-0.3,0.3-0.7,0.5-1,0.6c-0.4,0.2-0.8,0.3-1.1,0.4c-0.4,0.1-0.8,0.2-1.1,0.2c-0.4,0.1-0.7,0.2-0.9,0.3
				c-0.3,0.1-0.5,0.3-0.6,0.5l-0.4,0.9L149.9,481.3z"/>
		</g>
		<g>
			
				<rect x="148.5" y="483.2" transform="matrix(0.4099 -0.9121 0.9121 0.4099 -353.7472 423.0425)" class="st1" width="3.1" height="3.4"/>
		</g>
	</g>
</g>
</svg>
