<?xml version="1.0" encoding="utf-8"?>
<!-- Generator: Adobe Illustrator 21.0.0, SVG Export Plug-In . SVG Version: 6.00 Build 0)  -->
<svg version="1.1" id="Layer_1" xmlns="http://www.w3.org/2000/svg" xmlns:xlink="http://www.w3.org/1999/xlink" x="0px" y="0px"
	 viewBox="0 0 204 200" style="enable-background:new 0 0 204 200;" xml:space="preserve">
<g>
	<title>Artboard 44</title>
	<path d="M110.6,35.3l68.9,68.4l9.2-9.2l7.6-7.6c1.4-1.8,4-2.2,5.8-0.9c0.1,0.1,0.3,0.2,0.4,0.3c1.7,1.4,2,4,0.6,5.7
		c-0.2,0.2-0.4,0.4-0.6,0.6l-41.1,41.1c-1.9,1.9-4.2,3.4-6.6,4.5l-53.4,23.7c-1,0.4-1.9,1-2.7,1.8l-18.4,18.4
		c-3.6,3.6-5.1,3.6-8.7,0l-0.9-1.2c-0.5,0.6-1.1,1.2-1.8,1.7c-5.2,5.3-10.3,10.4-15.4,15.7c-1.5,1.8-4,2.3-6.1,1.3L3.6,182.2
		c-4.1-1.7-4.8-4.7-1.6-7.9l29.4-29.5c0.6-0.6,1.2-1.1,1.9-1.6l-1.8-1.8c-2.6-2.7-2.7-4.6,0-7.2c6.2-6.3,12.4-12.4,18.4-18.4
		c0.8-0.9,1.4-1.8,1.9-2.9l24.9-55c0.3-0.9,0.8-1.8,1.5-2.5c7.1-7.2,14.2-14.2,21.4-21.3l31.8-31.7L133,1c1.5-1.3,3.7-1.3,5.2,0
		c1.4,1.5,1.4,3.8,0,5.3l-1.4,1.6l-25.2,25.9L110.6,35.3z M147.4,132.2L81.8,66.5L81,68.2c-7.2,16-14.4,32.2-21.6,48.6
		c-0.6,1.3-1.4,2.5-2.4,3.5c-5.3,5.3-10.5,10.5-15.8,15.8l-1.4,1.5l36.8,36.8l17.1-17.8c0.9-0.9,1.9-1.7,3.1-2.2l28.6-12.8
		L147.4,132.2z M172.3,109.9l-67.9-68.3L87,58.9l68.3,68L172.3,109.9z M11.7,176.5l36.8,14c0.8,0.1,1.6-0.2,2.1-0.7l13.6-13.4
		l0.6-1.2l-25.9-25.8L11.7,176.5z"/>
	<path d="M11.7,176.5l27.6-27.1L65,175.2l-1,1.2l-13.6,13.4c-0.5,0.6-1.3,0.9-2.1,0.7L11.7,176.5z"/>
</g>
</svg>
