<?xml version="1.0" encoding="utf-8"?>
<!-- Generator: Adobe Illustrator 21.0.0, SVG Export Plug-In . SVG Version: 6.00 Build 0)  -->
<svg version="1.1" id="Layer_1" xmlns="http://www.w3.org/2000/svg" xmlns:xlink="http://www.w3.org/1999/xlink" x="0px" y="0px"
	 viewBox="0 0 48 48" style="enable-background:new 0 0 48 48;" xml:space="preserve">
<style type="text/css">
	.st0{fill:none;}
</style>
<g>
	<g>
		<g>
			<path d="M27,44.8c0-0.3-0.3-0.6-0.7-0.5c-6.6,0.8-14.4-0.7-16.5-5c-0.1-0.3-0.5-0.4-0.8-0.3s-0.4,0.5-0.3,0.8
				c2,4.2,8.1,5.9,14.1,5.9c1.2,0,2.5-0.1,3.6-0.2C26.8,45.4,27,45.1,27,44.8z"/>
		</g>
	</g>
	<g>
		<g>
			<path d="M30.2,34.6c-2-1.1-5.2-2.2-7.3-2.2c-0.3,0-0.6,0.3-0.6,0.6s0.3,0.6,0.6,0.6c1.4,0,4.2,0.7,6.7,2.1c1.6,0.9,4.3,2.7,4.3,5
				c0,1.3-2,2.5-5.2,3.2c-0.3,0.1-0.5,0.4-0.5,0.7c0.1,0.3,0.3,0.5,0.6,0.5c0,0,0.1,0,0.1,0c3.9-0.9,6.2-2.5,6.2-4.4
				C35.2,38.4,33.4,36.3,30.2,34.6z"/>
		</g>
	</g>
</g>
<g>
	
		<rect x="11.1" y="2.9" transform="matrix(2.089961e-02 -0.9998 0.9998 2.089961e-02 7.6129 44.7203)" class="st0" width="31" height="31.1"/>
	<path d="M31.5,6.5L31.5,6.5c0.2-0.2,0.6-0.2,0.8,0c0.2,0.3,0.2,0.6,0,0.8l-6.6,6.3c-0.2,0.2-0.5,0.2-0.7,0c-0.2-0.2-0.2-0.6,0-0.8
		L31.5,6.5z"/>
	
		<rect x="11.1" y="2.9" transform="matrix(2.089961e-02 -0.9998 0.9998 2.089961e-02 7.6129 44.7203)" class="st0" width="31" height="31.1"/>
	<path d="M34.8,9.9L34.8,9.9c0.2-0.2,0.5-0.2,0.8,0c0.2,0.2,0.2,0.6,0,0.8L28.9,17c-0.2,0.2-0.6,0.2-0.8,0c-0.2-0.2-0.2-0.5,0-0.7
		L34.8,9.9z"/>
	
		<rect x="11.1" y="2.9" transform="matrix(2.089961e-02 -0.9998 0.9998 2.089961e-02 7.6129 44.7203)" class="st0" width="31" height="31.1"/>
	<path d="M38,13.4L38,13.4c0.3-0.2,0.6-0.2,0.8,0c0.2,0.2,0.2,0.5,0,0.7l-6.5,6.3c-0.2,0.2-0.6,0.2-0.8,0c-0.2-0.2-0.2-0.6,0-0.8
		L38,13.4z"/>
	
		<rect x="11.1" y="2.9" transform="matrix(2.089961e-02 -0.9998 0.9998 2.089961e-02 7.6129 44.7203)" class="st0" width="31" height="31.1"/>
	<path d="M28.3,3.2C28.5,3,28.8,3,29,3.2c0.2,0.2,0.2,0.5,0,0.8l-7.3,6.9L15.9,24l4.7,4.9L34,23.7l7.2-6.9c0.2-0.2,0.6-0.2,0.8,0
		c0.2,0.2,0.2,0.6,0,0.8l-7.4,7.1c0,0-0.1,0.1-0.2,0.1c-6.4,2.5-16.4,7.1-22.7,8.8l-0.2,0.1l0,0l-0.1,0l-0.1,0l-0.2,0
		c-0.1,0-0.1,0-0.2-0.1l-0.1-0.1l0-0.1l-0.1-0.1l0-0.1l0-0.2c2.1-6.2,7.2-16.1,10-22.5c0-0.1,0-0.2,0.1-0.3L28.3,3.2z"/>
</g>
</svg>
