<svg xmlns="http://www.w3.org/2000/svg" width="26" height="23" viewBox="8.229 3.791 25.71 22.681"><path d="M20.2 26.47h-6.06a2.65 2.65 0 0 1-1.882-.779l-3.25-3.25c-1.038-1.038-1.038-2.726 0-3.765l4.398-4.392a.89.89 0 0 1 1.255 0l8.788 8.79c.167.166.26.393.26.63a.88.88 0 0 1-.262.627l-1.366 1.362a2.64 2.64 0 0 1-1.88.779z" fill="#ED889E"/><path d="M22.08 25.693l1.366-1.362a.88.88 0 0 0 .262-.627c0-.236-.093-.463-.26-.63l-4.397-4.397-6.904 6.904.1.1c.504.503 1.172.78 1.882.78h6.06a2.65 2.65 0 0 0 1.881-.778z" fill="#EA7589"/><path d="M30.2 17.2a.89.89 0 0 1-.627-.26l-8.79-8.788c-.347-.346-.347-.908-.001-1.254l2.33-2.338c1.04-1.04 2.728-1.04 3.766-.001l6.28 6.28c1.04 1.038 1.04 2.727 0 3.764l-2.33 2.337a.89.89 0 0 1-.629.261z" fill="#008894"/><path d="M29.574 16.95c.166.167.392.26.627.26s.463-.094.628-.26l2.33-2.337c1.04-1.038 1.04-2.727 0-3.764l-3.14-3.14-4.846 4.845 4.4 4.397z" fill="#03777A"/><path d="M12.778 14.914l8.635-8.635 10.044 10.043-8.636 8.635-10.043-10.043z" fill="#E65E71"/><path d="M22.822 24.957l-5.025-5.024L26.43 11.3l5.025 5.025z" fill="#D35067"/></svg>