<?xml version="1.0" encoding="utf-8"?>
<!-- Generator: Adobe Illustrator 21.0.0, SVG Export Plug-In . SVG Version: 6.00 Build 0)  -->
<svg version="1.1" id="Isolation_Mode" xmlns="http://www.w3.org/2000/svg" xmlns:xlink="http://www.w3.org/1999/xlink" x="0px"
	 y="0px" viewBox="0 0 124.6 125" style="enable-background:new 0 0 124.6 125;" xml:space="preserve">
<style type="text/css">
	.st0{fill:#FFFFFF;}
	.st1{fill:#439E4D;}
	.st2{fill:#FFA800;}
</style>
<g>
	<path class="st0" d="M110.6,14.9C97.3,1.6,79.7,0,62.2,0C44.8,0,27.3,1.6,14,14.9C0.6,28.2,0,45.7,0,63.2
		c0.1,17.3,0.7,34.7,14,47.9C27.3,124.4,44.8,125,62.3,125s35-0.6,48.3-13.9s14-30.7,14-48.1S124,28.2,110.6,14.9z"/>
	<path class="st1" d="M86.8,77.1c3.4-4.2,6.1-9.8,7.3-15.6c0.8-3.7,0.5-7.7-0.8-11.6c-2-6.2-6.4-10.1-10.6-13.9
		c-3.2-2.8-6.1-5.5-8-9l-0.3-0.6c-1.1-2-2.4-4.4-2.4-6.2s-1.4-3.3-3.2-3.5c-1.8-0.1-3.4,1.2-3.7,3l-8.7,61.1c-2.6-2.1-6-3.7-9.9-4.3
		c-9.4-1.3-18,3.7-19.1,11.3s5.7,14.8,15.2,16.1s18-3.7,19.1-11.3l5.7-40c4.9,2.7,12.6,8.9,13.2,20.9c-0.5,0.6-1,1.2-1.6,1.7
		c-1.5,1.2-1.6,3.4-0.4,4.9s3.4,1.6,4.9,0.4c1.1-0.9,2.1-2,3-3.2C86.6,77.3,86.7,77.2,86.8,77.1z"/>
</g>
<polygon class="st0" points="39.3,29.8 48.3,24 85.7,95.1 76.6,100.9 "/>
<rect x="54.8" y="25.5" transform="matrix(0.8642 -0.5032 0.5032 0.8642 -25.6679 38.1961)" class="st2" width="6.2" height="82.3"/>
</svg>
