<?xml version="1.0" encoding="utf-8"?>
<!-- Generator: Adobe Illustrator 21.0.0, SVG Export Plug-In . SVG Version: 6.00 Build 0)  -->
<svg version="1.1" id="Isolation_Mode" xmlns="http://www.w3.org/2000/svg" xmlns:xlink="http://www.w3.org/1999/xlink" x="0px"
	 y="0px" viewBox="0 0 124.6 125" style="enable-background:new 0 0 124.6 125;" xml:space="preserve">
<style type="text/css">
	.st0{fill:#FFFFFF;}
	.st1{fill:#FFAC33;}
	.st2{fill:#439E4D;}
</style>
<g>
	<path class="st0" d="M110.6,14.9C97.3,1.6,79.7,0,62.2,0C44.8,0,27.3,1.6,14,14.9C0.6,28.2,0,45.7,0,63.2
		c0.1,17.3,0.7,34.7,14,47.9C27.3,124.4,44.8,125,62.3,125s35-0.6,48.3-13.9s14-30.7,14-48.1S124,28.2,110.6,14.9z"/>
	<g transform="matrix(1.25 0 0 -1.25 0 45)">
		<g>
			<g>
				<g>
					<path class="st1" d="M85.2-18.8c0-1.2-0.9-2.1-2.1-2.2H72.4c-1.2,0-2.1,1-2.1,2.1c0,1.2,1,2.1,2.1,2.1h10.7
						C84.3-16.7,85.2-17.7,85.2-18.8"/>
					<path class="st1" d="M81.8-7.1c0.5-1.1,0.1-2.3-1-2.9l-9.7-4.6c-1.1-0.5-2.3,0-2.9,1c-0.5,1.1-0.1,2.3,1,2.9L79-6.1
						C80-5.6,81.3-6,81.8-7.1"/>
					<path class="st1" d="M81.9-30.6c0.5,1.1,0,2.3-1,2.9l-9.7,4.5c-1.1,0.5-2.3,0-2.9-1c-0.5-1.1,0-2.3,1-2.8l9.7-4.6
						C80.1-32.2,81.4-31.7,81.9-30.6"/>
				</g>
				<path class="st2" d="M63.7-7.7c-2.4,0.7-4.5,2.6-5.3,3.8c-1.3,2,0.3,2.6-0.3,8.2C57.7,9.4,50.5,15,41.9,15.6
					c-3.9,0.3-8-0.5-12.2-2.8C18.9,6.9,14.7-5.5,23-17.6c7.5-10.8,0.5-15.7,0.5-15.7s0.3-2.3,4.9-5.3c4.6-3.1,10.3-1,10.3-1
					s1.9,6.6,8,6c4.4-0.6,10.5,0.2,12.1,1.7c1.5,1.4-0.3,3.2,0.9,7.1c-4,0.4-6.1,2.3-6.4,4.9c4.4-0.4,6.2,1,7.5,2.5
					c0,0.9-0.1,2.8-0.2,4.1C64.3-12.2,65.8-8.3,63.7-7.7"/>
			</g>
		</g>
	</g>
</g>
</svg>
