<?xml version="1.0" encoding="utf-8"?>
<!-- Generator: Adobe Illustrator 16.0.0, SVG Export Plug-In . SVG Version: 6.00 Build 0)  -->
<!DOCTYPE svg PUBLIC "-//W3C//DTD SVG 1.1//EN" "http://www.w3.org/Graphics/SVG/1.1/DTD/svg11.dtd">
<svg version="1.1" id="Layer_1" xmlns="http://www.w3.org/2000/svg" xmlns:xlink="http://www.w3.org/1999/xlink" x="0px" y="0px"
	 width="42.167px" height="42.583px" viewBox="0 0 42.167 42.583" enable-background="new 0 0 42.167 42.583" xml:space="preserve">
<g>
	<defs>
		
			<rect id="SVGID_1_" x="-14.968" y="-8.366" transform="matrix(0.7161 0.698 -0.698 0.7161 14.7213 -5.9306)" width="59.237" height="46.994"/>
	</defs>
	<clipPath id="SVGID_2_">
		<use xlink:href="#SVGID_1_"  overflow="visible"/>
	</clipPath>
	<g clip-path="url(#SVGID_2_)">
		
			<rect x="-18.658" y="125.184" transform="matrix(0.7071 0.7071 -0.7071 0.7071 133.5729 -55.1352)" fill-rule="evenodd" clip-rule="evenodd" fill="#6DC3F7" width="303.997" height="16.972"/>
		
			<rect x="-13.897" y="127.156" transform="matrix(0.7071 0.7071 -0.7071 0.7071 131.5998 -59.8967)" fill-rule="evenodd" clip-rule="evenodd" fill="#2691E0" width="303.998" height="3.504"/>
		
			<rect x="-22.286" y="133.94" transform="matrix(0.7071 0.7071 -0.7071 0.7071 135.0745 -51.5081)" fill-rule="evenodd" clip-rule="evenodd" fill="#1B61BB" width="303.998" height="6.713"/>
		
			<linearGradient id="SVGID_3_" gradientUnits="userSpaceOnUse" x1="-66.8335" y1="771.6753" x2="-49.2212" y2="771.6753" gradientTransform="matrix(-0.6814 0.6814 -0.6814 -0.6814 512.1976 591.6084)">
			<stop  offset="0" style="stop-color:#855253"/>
			<stop  offset="0.38" style="stop-color:#F58220"/>
			<stop  offset="1" style="stop-color:#562D28"/>
		</linearGradient>
		<path fill-rule="evenodd" clip-rule="evenodd" fill="url(#SVGID_3_)" d="M24.775,27.564c0.13,0.526-0.044,2.215-1.294,3.464
			c-1.249,1.249-3.182,1.602-3.622,1.163l-0.826-1.318l11.352-11.469l1.475,0.787c0.623,0.623,0.654,0.654,1.16,1.159
			c-0.691,0.854-2.299,1.714-3.491,1.445c0.175,0.504-0.081,2.128-1.344,3.392C27.251,27.12,26.036,27.71,24.775,27.564
			L24.775,27.564z"/>
		
			<linearGradient id="SVGID_4_" gradientUnits="userSpaceOnUse" x1="-62.2075" y1="806.188" x2="-68.83" y2="768.6301" gradientTransform="matrix(-0.6814 0.6814 -0.6814 -0.6814 504.0882 597.6943)">
			<stop  offset="0.01" style="stop-color:#FED09E"/>
			<stop  offset="0.99" style="stop-color:#F9A870"/>
		</linearGradient>
		<path fill-rule="evenodd" clip-rule="evenodd" fill="url(#SVGID_4_)" d="M24.239,27.027c0.129,0.527,0.083,2.346-1.165,3.595
			c-1.249,1.249-3.006,1.413-3.452,1.2L0.816,1.418L31.771,20.1c0.288,0.289,0.407,0.408,0.912,0.912
			c-0.691,0.852-2.516,1.653-3.689,1.247c0.176,0.504,0.119,2.326-1.145,3.589c-0.708,0.708-1.677,1.088-2.46,1.216
			C25.115,27.109,24.6,27.098,24.239,27.027L24.239,27.027z"/>
		<path fill-rule="evenodd" clip-rule="evenodd" fill="#E89A66" d="M24.239,27.027c0.13,0.527,0.085,2.345-1.165,3.594
			c-1.249,1.249-3.006,1.414-3.453,1.2L0.816,1.418l25.885,25.229c-0.446,0.215-0.905,0.35-1.313,0.417
			C25.115,27.109,24.6,27.098,24.239,27.027L24.239,27.027z"/>
		<path fill-rule="evenodd" clip-rule="evenodd" fill="#D38856" d="M23.494,30.122c-0.122,0.173-0.261,0.341-0.419,0.5
			c-0.215,0.215-0.447,0.399-0.686,0.553L0.816,1.418L23.494,30.122L23.494,30.122z"/>
		<path fill-rule="evenodd" clip-rule="evenodd" fill="#FED09E" d="M30.474,22.272c-0.522,0.122-1.045,0.137-1.48-0.014
			c0.086,0.247,0.115,0.807-0.022,1.465L0.816,1.418C3.804,3.467,30.647,22.23,30.474,22.272L30.474,22.272z"/>
		<path fill-rule="evenodd" clip-rule="evenodd" fill="#2691E0" d="M8.234,13.352L0.816,1.418l14.837,8.919
			C14.197,13.184,10.349,14.771,8.234,13.352L8.234,13.352z"/>
		<path fill-rule="evenodd" clip-rule="evenodd" fill="#1B61BB" d="M10.671,13.845c-0.285,0.034-0.565,0.044-0.838,0.024
			L0.816,1.418L10.671,13.845L10.671,13.845z"/>
		<path fill-rule="evenodd" clip-rule="evenodd" fill="#6DC3F7" d="M15.64,10.364c-0.603,1.16-1.602,2.109-2.716,2.728L0.816,1.418
			L15.64,10.364L15.64,10.364z"/>
		<path fill-rule="evenodd" clip-rule="evenodd" fill="#FFFFFF" d="M14.991,11.356c-0.213,0.268-0.448,0.517-0.699,0.748
			L0.816,1.418L14.991,11.356L14.991,11.356z"/>
	</g>
	<g clip-path="url(#SVGID_2_)">
		<g>
			
				<rect x="-18.675" y="125.071" transform="matrix(0.7071 0.7071 -0.7071 0.7071 133.4876 -55.1553)" fill-rule="evenodd" clip-rule="evenodd" fill="#AEC82F" width="303.995" height="16.971"/>
			
				<rect x="-13.914" y="127.042" transform="matrix(0.7071 0.7071 -0.7071 0.7071 131.5148 -59.9169)" fill-rule="evenodd" clip-rule="evenodd" fill="#8AA023" width="303.996" height="3.503"/>
			
				<rect x="-22.303" y="133.826" transform="matrix(0.7071 0.7071 -0.7071 0.7071 134.9895 -51.5282)" fill-rule="evenodd" clip-rule="evenodd" fill="#70841A" width="303.996" height="6.713"/>
			
				<linearGradient id="SVGID_5_" gradientUnits="userSpaceOnUse" x1="-151.6035" y1="697.562" x2="-133.9922" y2="697.562" gradientTransform="matrix(-0.6814 0.6814 -0.6814 -0.6814 403.9144 598.7549)">
				<stop  offset="0" style="stop-color:#855253"/>
				<stop  offset="0.38" style="stop-color:#F58220"/>
				<stop  offset="1" style="stop-color:#562D28"/>
			</linearGradient>
			<path fill-rule="evenodd" clip-rule="evenodd" fill="url(#SVGID_5_)" d="M24.757,27.451c0.131,0.526-0.045,2.215-1.294,3.465
				c-1.249,1.249-3.181,1.6-3.62,1.161l-0.827-1.318L30.367,19.29l1.477,0.787c0.623,0.623,0.654,0.654,1.159,1.159
				c-0.692,0.854-2.299,1.714-3.491,1.445c0.175,0.504-0.081,2.128-1.344,3.391C27.232,27.007,26.018,27.596,24.757,27.451
				L24.757,27.451z"/>
			
				<linearGradient id="SVGID_6_" gradientUnits="userSpaceOnUse" x1="-146.978" y1="732.0776" x2="-153.6008" y2="694.5182" gradientTransform="matrix(-0.6814 0.6814 -0.6814 -0.6814 395.805 604.8428)">
				<stop  offset="0.01" style="stop-color:#FED09E"/>
				<stop  offset="0.99" style="stop-color:#F9A870"/>
			</linearGradient>
			<path fill-rule="evenodd" clip-rule="evenodd" fill="url(#SVGID_6_)" d="M24.221,26.916c0.13,0.525,0.084,2.344-1.165,3.593
				c-1.249,1.25-3.006,1.414-3.453,1.201L0.798,1.305l30.955,18.682c0.288,0.288,0.407,0.407,0.912,0.912
				c-0.692,0.854-2.517,1.654-3.689,1.246c0.176,0.505,0.118,2.327-1.145,3.59c-0.708,0.709-1.677,1.087-2.461,1.216
				C25.096,26.997,24.582,26.985,24.221,26.916L24.221,26.916z"/>
			<path fill-rule="evenodd" clip-rule="evenodd" fill="#E89A66" d="M24.221,26.916c0.131,0.526,0.084,2.344-1.165,3.593
				c-1.249,1.25-3.006,1.415-3.453,1.201L0.798,1.305l25.886,25.229c-0.446,0.215-0.906,0.352-1.314,0.417
				C25.096,26.997,24.582,26.985,24.221,26.916L24.221,26.916z"/>
			<path fill-rule="evenodd" clip-rule="evenodd" fill="#D38856" d="M23.476,30.009c-0.123,0.174-0.262,0.341-0.42,0.499
				c-0.215,0.216-0.446,0.398-0.685,0.553L0.798,1.305L23.476,30.009L23.476,30.009z"/>
			<path fill-rule="evenodd" clip-rule="evenodd" fill="#FED09E" d="M30.456,22.16c-0.522,0.122-1.046,0.136-1.48-0.015
				c0.085,0.247,0.115,0.807-0.024,1.466L0.798,1.305C3.786,3.355,30.629,22.117,30.456,22.16L30.456,22.16z"/>
		</g>
		<path fill-rule="evenodd" clip-rule="evenodd" fill="#8AA023" d="M8.216,13.238L0.798,1.305l14.837,8.92
			C14.179,13.072,10.331,14.659,8.216,13.238L8.216,13.238z"/>
		<path fill-rule="evenodd" clip-rule="evenodd" fill="#70841A" d="M10.652,13.733c-0.284,0.034-0.565,0.042-0.837,0.023
			L0.798,1.305L10.652,13.733L10.652,13.733z"/>
		<path fill-rule="evenodd" clip-rule="evenodd" fill="#AEC82F" d="M15.622,10.252c-0.602,1.16-1.601,2.109-2.716,2.726L0.798,1.305
			L15.622,10.252L15.622,10.252z"/>
		<path fill-rule="evenodd" clip-rule="evenodd" fill="#FFFFFF" d="M14.973,11.245c-0.212,0.266-0.447,0.517-0.698,0.747
			L0.798,1.305L14.973,11.245L14.973,11.245z"/>
		<g display="none">
			<g display="inline">
				
					<rect x="-18.676" y="125.07" transform="matrix(0.7071 0.7071 -0.7071 0.7071 133.4874 -55.1553)" fill-rule="evenodd" clip-rule="evenodd" fill="#EC1C24" width="303.995" height="16.971"/>
			</g>
			<g display="inline">
				
					<rect x="-13.914" y="127.043" transform="matrix(0.7071 0.7071 -0.7071 0.7071 131.5141 -59.9174)" fill-rule="evenodd" clip-rule="evenodd" fill="#BE1E2D" width="303.997" height="3.503"/>
			</g>
			<g display="inline">
				
					<rect x="-22.304" y="133.826" transform="matrix(0.7071 0.7071 -0.7071 0.7071 134.9892 -51.5281)" fill-rule="evenodd" clip-rule="evenodd" fill="#940000" width="303.996" height="6.713"/>
			</g>
			
				<linearGradient id="SVGID_7_" gradientUnits="userSpaceOnUse" x1="-56.9487" y1="700.6831" x2="-39.3374" y2="700.6831" gradientTransform="matrix(-0.6814 0.6814 -0.6814 -0.6814 470.5394 536.3838)">
				<stop  offset="0" style="stop-color:#855253"/>
				<stop  offset="0.38" style="stop-color:#F58220"/>
				<stop  offset="1" style="stop-color:#562D28"/>
			</linearGradient>
			<path display="inline" fill-rule="evenodd" clip-rule="evenodd" fill="url(#SVGID_7_)" d="M24.757,27.451
				c0.131,0.526-0.044,2.214-1.294,3.465c-1.248,1.248-3.181,1.6-3.62,1.162l-0.825-1.32l11.35-11.468l1.476,0.787
				c0.623,0.623,0.654,0.654,1.159,1.159c-0.691,0.853-2.298,1.713-3.49,1.444c0.176,0.503-0.081,2.128-1.344,3.391
				C27.232,27.007,26.018,27.595,24.757,27.451L24.757,27.451z"/>
			
				<linearGradient id="SVGID_8_" gradientUnits="userSpaceOnUse" x1="-52.3218" y1="735.1978" x2="-58.9447" y2="697.6371" gradientTransform="matrix(-0.6814 0.6814 -0.6814 -0.6814 462.43 542.4697)">
				<stop  offset="0.01" style="stop-color:#FED09E"/>
				<stop  offset="0.99" style="stop-color:#F9A870"/>
			</linearGradient>
			<path display="inline" fill-rule="evenodd" clip-rule="evenodd" fill="url(#SVGID_8_)" d="M24.221,26.915
				c0.13,0.524,0.084,2.343-1.166,3.594c-1.249,1.248-3.005,1.413-3.452,1.2L0.798,1.305l30.954,18.682
				c0.288,0.288,0.408,0.407,0.912,0.912c-0.692,0.853-2.516,1.653-3.689,1.246c0.177,0.504,0.118,2.327-1.145,3.59
				c-0.709,0.708-1.677,1.087-2.46,1.216C25.097,26.995,24.582,26.984,24.221,26.915L24.221,26.915z"/>
			<path display="inline" fill-rule="evenodd" clip-rule="evenodd" fill="#E89A66" d="M24.221,26.915
				c0.131,0.526,0.084,2.343-1.166,3.594c-1.249,1.248-3.005,1.414-3.453,1.199L0.798,1.305l25.885,25.229
				c-0.446,0.215-0.905,0.351-1.313,0.417C25.097,26.995,24.582,26.984,24.221,26.915L24.221,26.915z"/>
			<path display="inline" fill-rule="evenodd" clip-rule="evenodd" fill="#D38856" d="M23.476,30.008
				c-0.122,0.174-0.261,0.341-0.42,0.5c-0.214,0.214-0.446,0.397-0.684,0.551L0.798,1.305L23.476,30.008L23.476,30.008z"/>
			<path display="inline" fill-rule="evenodd" clip-rule="evenodd" fill="#FED09E" d="M30.457,22.158
				c-0.522,0.122-1.046,0.138-1.481-0.013c0.087,0.246,0.115,0.807-0.024,1.466L0.798,1.305
				C3.786,3.354,30.629,22.118,30.457,22.158L30.457,22.158z"/>
			<g display="inline">
				<path fill-rule="evenodd" clip-rule="evenodd" fill="#BE1E2D" d="M8.216,13.238L0.798,1.305l14.838,8.918
					C14.179,13.07,10.331,14.658,8.216,13.238L8.216,13.238z"/>
			</g>
			<g display="inline">
				<path fill-rule="evenodd" clip-rule="evenodd" fill="#940000" d="M10.652,13.732c-0.285,0.035-0.565,0.043-0.837,0.024
					L0.798,1.305L10.652,13.732L10.652,13.732z"/>
			</g>
			<g display="inline">
				<path fill-rule="evenodd" clip-rule="evenodd" fill="#EC1C24" d="M15.622,10.25c-0.603,1.161-1.601,2.11-2.716,2.727
					L0.798,1.305L15.622,10.25L15.622,10.25z"/>
			</g>
			<path display="inline" fill-rule="evenodd" clip-rule="evenodd" fill="#FFFFFF" d="M14.973,11.244
				c-0.213,0.265-0.447,0.516-0.698,0.746L0.798,1.305L14.973,11.244L14.973,11.244z"/>
		</g>
		<g>
			<g>
				
					<rect x="-18.676" y="125.071" transform="matrix(0.7071 0.7071 -0.7071 0.7071 133.4873 -55.155)" fill-rule="evenodd" clip-rule="evenodd" fill="#F98AA6" width="303.995" height="16.971"/>
			</g>
			<g>
				
					<rect x="-13.915" y="127.043" transform="matrix(0.7071 0.7071 -0.7071 0.7071 131.5145 -59.9167)" fill-rule="evenodd" clip-rule="evenodd" fill="#F2166E" width="303.996" height="3.503"/>
			</g>
			<g>
				
					<rect x="-22.303" y="133.827" transform="matrix(0.7071 0.7071 -0.7071 0.7071 134.9892 -51.528)" fill-rule="evenodd" clip-rule="evenodd" fill="#D10B5A" width="303.996" height="6.713"/>
			</g>
			
				<linearGradient id="SVGID_9_" gradientUnits="userSpaceOnUse" x1="-61.4028" y1="695.2769" x2="-43.792" y2="695.2769" gradientTransform="matrix(-0.6814 0.6814 -0.6814 -0.6814 463.8371 535.7569)">
				<stop  offset="0" style="stop-color:#855253"/>
				<stop  offset="0.38" style="stop-color:#F58220"/>
				<stop  offset="1" style="stop-color:#562D28"/>
			</linearGradient>
			<path fill-rule="evenodd" clip-rule="evenodd" fill="url(#SVGID_9_)" d="M24.757,27.452c0.13,0.525-0.045,2.214-1.295,3.464
				c-1.248,1.248-3.181,1.6-3.62,1.162l-0.825-1.32l11.35-11.468l1.476,0.787c0.623,0.623,0.654,0.654,1.16,1.16
				c-0.691,0.853-2.299,1.713-3.49,1.444c0.176,0.503-0.081,2.128-1.344,3.392C27.232,27.008,26.018,27.596,24.757,27.452
				L24.757,27.452z"/>
			
				<linearGradient id="SVGID_10_" gradientUnits="userSpaceOnUse" x1="-56.7769" y1="729.7856" x2="-63.3995" y2="692.2266" gradientTransform="matrix(-0.6814 0.6814 -0.6814 -0.6814 455.7277 541.8428)">
				<stop  offset="0.01" style="stop-color:#FED09E"/>
				<stop  offset="0.99" style="stop-color:#F9A870"/>
			</linearGradient>
			<path fill-rule="evenodd" clip-rule="evenodd" fill="url(#SVGID_10_)" d="M24.221,26.916c0.131,0.524,0.085,2.344-1.165,3.594
				c-1.249,1.249-3.005,1.412-3.453,1.2L0.798,1.305l30.955,18.683c0.288,0.287,0.407,0.407,0.912,0.912
				c-0.692,0.853-2.516,1.654-3.689,1.246c0.177,0.503,0.118,2.327-1.145,3.59c-0.709,0.709-1.678,1.087-2.461,1.216
				C25.097,26.996,24.582,26.985,24.221,26.916L24.221,26.916z"/>
			<path fill-rule="evenodd" clip-rule="evenodd" fill="#E89A66" d="M24.221,26.916c0.132,0.526,0.085,2.344-1.165,3.594
				c-1.249,1.249-3.005,1.412-3.453,1.199L0.798,1.305l25.886,25.229c-0.446,0.215-0.905,0.351-1.314,0.417
				C25.097,26.996,24.582,26.985,24.221,26.916L24.221,26.916z"/>
			<path fill-rule="evenodd" clip-rule="evenodd" fill="#D38856" d="M23.476,30.009c-0.122,0.173-0.26,0.341-0.419,0.5
				c-0.214,0.214-0.446,0.398-0.684,0.551L0.798,1.305L23.476,30.009L23.476,30.009z"/>
			<path fill-rule="evenodd" clip-rule="evenodd" fill="#FED09E" d="M30.457,22.159c-0.522,0.122-1.046,0.137-1.481-0.014
				c0.088,0.246,0.115,0.807-0.023,1.466L0.798,1.305C3.786,3.355,30.629,22.118,30.457,22.159L30.457,22.159z"/>
			<g>
				<path fill-rule="evenodd" clip-rule="evenodd" fill="#F80B7B" d="M8.216,13.239L0.798,1.305l14.838,8.918
					C14.18,13.071,10.33,14.658,8.216,13.239L8.216,13.239z"/>
			</g>
			<g>
				<path fill-rule="evenodd" clip-rule="evenodd" fill="#B4264D" d="M10.653,13.732c-0.286,0.034-0.565,0.043-0.838,0.024
					L0.798,1.305L10.653,13.732L10.653,13.732z"/>
			</g>
			<g>
				<path fill-rule="evenodd" clip-rule="evenodd" fill="#FA7A8E" d="M15.622,10.251c-0.603,1.161-1.602,2.109-2.716,2.727
					L0.798,1.305L15.622,10.251L15.622,10.251z"/>
			</g>
			<path fill-rule="evenodd" clip-rule="evenodd" fill="#FFFFFF" d="M14.973,11.245c-0.212,0.266-0.447,0.516-0.698,0.746
				L0.798,1.305L14.973,11.245L14.973,11.245z"/>
		</g>
	</g>
</g>
</svg>
