<?xml version="1.0" encoding="utf-8"?>
<!-- Generator: Adobe Illustrator 21.0.0, SVG Export Plug-In . SVG Version: 6.00 Build 0)  -->
<svg version="1.1" id="Isolation_Mode" xmlns="http://www.w3.org/2000/svg" xmlns:xlink="http://www.w3.org/1999/xlink" x="0px"
	 y="0px" viewBox="0 0 124.6 125" style="enable-background:new 0 0 124.6 125;" xml:space="preserve">
<style type="text/css">
	.st0{fill:#FFFFFF;}
	.st1{fill:#439E4D;}
</style>
<g>
	<path class="st0" d="M110.6,14.9C97.3,1.6,79.7,0,62.2,0C44.8,0,27.3,1.6,14,14.9C0.6,28.2,0,45.7,0,63.2
		c0.1,17.3,0.7,34.7,14,47.9C27.3,124.4,44.8,125,62.3,125s35-0.6,48.3-13.9s14-30.7,14-48.1S124,28.2,110.6,14.9z"/>
	<g>
		<path class="st1" d="M46.4,58.6h-10c-6.6,0-12-5.4-12-12v-10c0-6.6,5.4-12,12-12h10c6.6,0,12,5.4,12,12v10
			C58.4,53.2,53,58.6,46.4,58.6z"/>
		<path class="st1" d="M88.4,58.6h-10c-6.6,0-12-5.4-12-12v-10c0-6.6,5.4-12,12-12h10c6.6,0,12,5.4,12,12v10
			C100.4,53.2,95,58.6,88.4,58.6z"/>
		<path class="st1" d="M46.4,102.6h-10c-6.6,0-12-5.4-12-12v-10c0-6.6,5.4-12,12-12h10c6.6,0,12,5.4,12,12v10
			C58.4,97.2,53,102.6,46.4,102.6z"/>
		<path class="st1" d="M88.4,102.6h-10c-6.6,0-12-5.4-12-12v-10c0-6.6,5.4-12,12-12h10c6.6,0,12,5.4,12,12v10
			C100.4,97.2,95,102.6,88.4,102.6z"/>
	</g>
</g>
</svg>
