<?xml version="1.0" encoding="utf-8"?>
<!-- Generator: Adobe Illustrator 21.0.0, SVG Export Plug-In . SVG Version: 6.00 Build 0)  -->
<svg version="1.1" id="Layer_1" xmlns="http://www.w3.org/2000/svg" xmlns:xlink="http://www.w3.org/1999/xlink" x="0px" y="0px"
	 viewBox="0 0 174 184" style="enable-background:new 0 0 174 184;" xml:space="preserve">
<style type="text/css">
	.st0{display:none;}
	.st1{display:inline;}
	.st2{fill:#985D35;}
	.st3{display:inline;fill:#985D35;}
</style>
<g class="st0">
	<g class="st1">
		<path class="st2" d="M59.8,71.8l-0.2,2.4c-0.3-0.2-1-0.6-1.9-1.2c-2,2.3-3.6,3.4-4.8,3.4c-0.3,0-0.7-0.1-1.4-0.3
			c1.6-0.8,3.3-2.1,5.1-3.7c-1-0.7-1.5-1.4-1.5-2.2c0-0.8,0.3-1.7,0.9-2.6c0.6-0.9,1.2-1.4,2-1.4c1.1,0,1.6,0.7,1.6,2.1
			c0,0.8-0.3,1.7-0.8,2.8C59,71.2,59.5,71.3,59.8,71.8z M58.6,69.7c0-1-0.4-1.5-1.3-1.5c-0.3,0-0.4,0.2-0.4,0.5
			c0,0.5,0.5,1.1,1.6,1.8C58.5,70.2,58.6,69.8,58.6,69.7z"/>
		<path class="st2" d="M62.3,92.6c0,0.7-0.2,1.7-0.7,2.8c-0.4,0-0.9,0-1.5-0.1c-0.7-0.1-1.2-0.1-1.5-0.1c-1.8,0-3.4,0.3-4.9,0.9
			c-2,0.8-3,1.9-3,3.4s0.3,3.5,0.9,6c0.5,2,1,4.1,1.5,6.1c0.2,0.7,0.4,1.4,0.6,2.2c0.3,0.9,0.4,1.7,0.4,2.2s-0.3,1.2-0.9,2
			c-0.2-1.2-0.9-4.1-2.1-8.8c-1-4-1.5-6.7-1.5-8.2c0-1.3,0.2-2.8,0.6-4.4c0.5-1.8,1.3-3.1,2.5-3.8c0.5-0.3,2-0.7,4.5-1.3
			c-0.2-0.2-0.5-0.4-1-0.7c-0.5-0.3-0.9-0.4-1.2-0.4c-0.9,0-1.7,0.4-2.4,1.2l-0.8-0.1c0.6-1.7,1.1-2.8,1.5-3.4
			c0.8-1.1,1.8-1.7,3.1-1.7c1.2,0,2.6,0.7,4,2.2C61.6,90,62.3,91.3,62.3,92.6z"/>
		<path class="st2" d="M76.8,99.8h-3.7c-3,0-4.6-1.7-5-5c-0.5-4.3-1.1-10.6-1.8-18.9c0.7-0.9,1.3-1.6,1.8-2.3l1.7,19.3
			c0.1,1.5,0.6,2.5,1.3,3.1c0.5,0.4,1.5,0.6,2.7,0.6c0.3,0,0.8,0,1.4,0c0.7,0,1.2,0,1.5,0L76.8,99.8L76.8,99.8z"/>
		<path class="st2" d="M78.6,74.9c-0.3-0.3-0.6-0.8-1.1-1.4c0.5-1.3,1.2-2.3,2.2-3.1c0.1,0.9,0.5,1.7,1.2,2.3c0.7,0.7,1.4,1,2.3,1.1
			l-1.7,3.1l-0.8-0.4h-0.2c0.8,4.5,1.2,8.2,1.2,11.1c0,1.8-0.2,3.9-0.6,6.5c4.6-5.1,8.4-7.6,11.6-7.6c1.1,0,2,0.4,2.7,1.3s1,1.9,1,3
			c0,2.6-1.9,4.6-5.6,5.9h10.1v3.2H74.9v-3.3h2.8c0.4,0,0.8,0,1.2-0.1c1-1.5,1.5-4,1.5-7.6c0-2.3-0.5-6-1.5-11
			C78.9,77.3,78.8,76.3,78.6,74.9z M94.4,92.3c0-0.5-0.5-1-1.5-1.4c-0.8-0.4-1.6-0.5-2.2-0.5c-2,0-3.9,0.6-5.8,1.9
			c-1.7,1.1-3.1,2.6-4.3,4.4h1c2.5,0,5.3-0.5,8.2-1.6C92.9,94,94.4,93.1,94.4,92.3z M90.9,78.8l-1.7,3.2l-2.9-2l1.8-3.1L90.9,78.8z"
			/>
		<path class="st2" d="M108.4,68.8c0,2.7-0.8,4-2.5,4c-0.5,0-1-0.2-1.5-0.5c-0.1,0.5-0.4,1-0.9,1.4s-1,0.6-1.6,0.6
			c-1.3,0-2-0.9-2-2.7c0-0.4,0.2-1.2,0.6-2.3l0.5-0.1c0,1.8,0.3,2.6,0.9,2.6c1,0,1.7-1.3,2.2-3.9l0.5-0.1c0.3,1.6,0.8,2.4,1.3,2.4
			c1.1,0,1.6-1.2,1.6-3.5l0.5-0.3C108.4,67.2,108.4,67.9,108.4,68.8z"/>
		<path class="st2" d="M108.3,73.3c0,1.1-0.3,1.8-0.9,2.1l-7.2,4.1c0-1,0.5-1.8,1.6-2.4L108.3,73.3z"/>
		<path class="st2" d="M111.1,99.8h-3.7c-0.5,0-1-0.4-1.5-1.1s-0.7-1.4-0.7-1.9c-1.1,2-2.5,3-4.1,3h-1.9v-3.2c2.1,0,3.5-0.2,4-0.5
			c0.7-0.4,1.2-0.8,1.3-1.3c0.1-0.3,0.2-0.9,0.2-2h0.4c0.4,1.7,1.1,2.7,2.1,3.2c0.7,0.3,2,0.5,3.9,0.5
			C111.1,96.6,111.1,99.8,111.1,99.8z M106.9,85.6l-1.7,2.7l-2.6-1.8l1.6-2.8L106.9,85.6z"/>
		<path class="st2" d="M113.4,75.1c-0.3-0.3-0.7-0.8-1.1-1.5c0.4-1.2,1.2-2.2,2.1-3.1c0.1,0.9,0.5,1.7,1.2,2.4
			c0.7,0.6,1.4,1,2.4,1.2l-1.8,3l-0.9-0.5c-0.2,1.6-0.2,2.6-0.2,2.8c0,1.3,0.3,3.2,0.8,5.7s0.8,4.4,0.8,5.6c0,6.1-1.9,9.2-5.6,9.2
			h-1.9v-3.2c1.8,0,3.1-0.1,3.9-0.3c1.6-0.5,2.4-1.4,2.4-2.7c0-0.5-0.2-2.2-0.7-5c-0.3-1.9-0.6-3.8-0.9-5.6
			c-0.4-2.3-0.6-4.2-0.6-5.6c0-0.2,0-0.5,0.1-1c0.1-0.5,0.1-0.8,0-1.1C113.4,75.3,113.4,75.1,113.4,75.1z"/>
		<path class="st2" d="M124.4,93.3c0,1.6-0.4,3.8-1.3,6.6l-0.6-0.1c0.2-1,0.2-1.9,0.2-2.9c0-2-0.2-4.4-0.6-7.5
			c-0.3-2.5-0.6-4.9-1-7.3c-0.2-1.5-0.3-2.4-0.3-2.6c0-1.4,0.1-2.4,0.4-3.1c0.4-0.9,0.9-1.7,1.4-2.6c0,2.5,0.5,7.7,1.4,15.5
			C124.3,90.7,124.4,92.1,124.4,93.3z"/>
	</g>
	<g>
		<path class="st3" d="M51.8,76.1l-0.2,2.4c-0.3-0.2-1-0.6-1.9-1.2c-2,2.3-3.6,3.4-4.8,3.4c-0.3,0-0.7-0.1-1.4-0.3
			c1.6-0.8,3.3-2.1,5.1-3.7c-1-0.7-1.5-1.4-1.5-2.2c0-0.8,0.3-1.7,0.9-2.6c0.6-0.9,1.2-1.4,2-1.4c1.1,0,1.6,0.7,1.6,2.1
			c0,0.8-0.3,1.7-0.8,2.8C51,75.4,51.3,75.7,51.8,76.1z M50.6,73.9c0-1-0.4-1.5-1.3-1.5c-0.3,0-0.4,0.2-0.4,0.5
			c0,0.5,0.5,1.1,1.6,1.8C50.5,74.4,50.6,74.2,50.6,73.9z"/>
		<path class="st3" d="M57.1,111.2h-3.7c-1.5,0-2.7-1.9-3.4-5.8c-1.5,1.6-2.8,2.4-4,2.4c-0.8,0-1.6-0.1-2.4-0.3
			c-1.2-0.3-1.8-0.8-1.8-1.3c0-0.3,0.4-1.3,1.2-3s2.7-3.4,5.8-4.9c-0.1-0.6-0.1-1.6-0.2-2.8l1.3-1.4l1.6,9.8
			c0.4,2.2,0.8,3.5,1.3,3.8c0.3,0.2,1.7,0.3,4.3,0.3C57.1,107.9,57.1,111.2,57.1,111.2z M51.3,90.1l-1.8,2.7l-2.9-1.8L45,93.3
			l-2.8-2l1.7-2.8l2.9,1.9l1.7-2.4L51.3,90.1z M49.8,103.7l-0.6-3.7c-2.1,0.7-3.7,2-4.8,4c0.3,0.3,1.1,0.5,2.4,0.5
			S49,104.2,49.8,103.7z"/>
		<path class="st3" d="M74.1,88.7c0,2.7-0.8,4-2.5,4c-0.5,0-1-0.2-1.5-0.5c-0.1,0.5-0.4,1-0.9,1.4s-1,0.6-1.6,0.6
			c-1.3,0-2-0.9-2-2.7c0-0.4,0.2-1.2,0.6-2.3l0.5-0.1c0,1.8,0.3,2.6,0.9,2.6c1,0,1.7-1.3,2.2-3.9l0.5-0.1c0.3,1.6,0.8,2.4,1.3,2.4
			c1.1,0,1.6-1.2,1.6-3.5l0.5-0.3C74.1,87.2,74.1,87.8,74.1,88.7z"/>
		<path class="st3" d="M72.8,82.8c0,1.1-0.3,1.7-0.8,2.1l-7.3,4.1c0-1,0.5-1.8,1.6-2.4L72.8,82.8z"/>
		<path class="st3" d="M86.4,111.2h-4.3c-2.3,0-3.9-0.1-4.8-0.2c-2.1-0.4-3.2-1.3-3.2-2.6c0-0.9,0.2-1.8,0.6-2.7h-1.1
			c-2.3,0-4.6,0.5-6.9,1.4c-0.6,0.3-2.4,1.2-5.3,2.7c-1.8,1-3.3,1.4-4.3,1.4h-1.9V108c2.5,0,4.3-0.2,5.4-0.5
			c1.7-0.7,4.4-1.7,8.2-2.8c-1.3-0.5-2.6-1-3.9-1.5c-1.8-0.6-3.1-1-3.9-1c-0.5,0-0.8,0.2-0.9,0.6h-2.8c0.3-1.2,0.8-2.2,1.7-3
			s1.9-1.2,3.1-1.2c0.7,0,2,0.4,3.7,1.1c1.3,0.5,2.6,1.1,3.8,1.6c3,1.1,6.8,1.6,11.1,1.6l-0.7,2.7c-3.2,0.1-4.6,0.1-4.2,0.1
			c0.1,0.9,0.6,1.5,1.5,1.8s3.9,0.5,9,0.5L86.4,111.2L86.4,111.2z"/>
		<path class="st3" d="M105.1,82.2c0,2.7-0.8,4-2.5,4c-0.5,0-1-0.2-1.5-0.5c-0.1,0.5-0.4,1-0.9,1.4s-1,0.6-1.6,0.6
			c-1.3,0-2-0.9-2-2.7c0-0.4,0.2-1.2,0.6-2.3l0.5-0.1c0,1.8,0.3,2.6,0.9,2.6c1,0,1.7-1.3,2.2-3.9l0.5-0.1c0.3,1.6,0.8,2.4,1.3,2.4
			c1.1,0,1.6-1.2,1.6-3.5l0.5-0.3C104.9,80.6,105.1,81.3,105.1,82.2z"/>
		<path class="st3" d="M104.9,87.8c0,1.1-0.3,1.8-0.9,2.1l-7.2,4.1c0-1,0.5-1.8,1.6-2.4L104.9,87.8z"/>
		<path class="st3" d="M94.3,111.2c-1.9,0-3.2-1-3.7-3c-1.6,2-2.9,3-4.1,3h-1.9V108c2.1,0,3.6-0.2,4.3-0.6c0.7-0.4,1.2-0.8,1.3-1.2
			c0.1-0.3,0.2-1,0.2-2h0.4c0.2,1,0.7,1.9,1.3,2.8c0.4,0.6,1.5,0.9,3.1,1H95c0,0,0,0,0.1,0c0.1,0,0.1,0,0.1,0v3.2
			C95.2,111.2,94.3,111.2,94.3,111.2z"/>
		<path class="st3" d="M94.3,108h2.9c1.8-2.3,3.8-4.4,6-6.3c3-2.6,5.5-3.8,7.4-3.8c1.1,0,2,0.4,2.7,1.2c0.7,0.8,1.2,1.8,1.2,2.9
			c0,1.6-0.6,2.9-1.7,3.9c-0.8,0.7-2.1,1.4-3.9,2c4.1,0,7.4,0,10.1,0v3.2H96.6c-0.3,0.5-0.8,1.4-1.7,2.6l-0.4-0.4
			c0.4-0.9,0.7-1.6,1.1-2.3h-1.3L94.3,108L94.3,108z M112.4,103.8c0-1.2-1.1-1.9-3.3-1.9s-4.2,0.6-6,1.7c-1.1,0.7-2.6,2.2-4.6,4.3
			c4.7,0,8.8-1,12.4-2.9C111.9,104.6,112.4,104.2,112.4,103.8z"/>
		<path class="st3" d="M121.4,86.3c-0.3-0.3-0.7-0.8-1.1-1.5c0.4-1.2,1.2-2.2,2.1-3.1c0.1,0.9,0.5,1.7,1.2,2.4
			c0.7,0.6,1.4,1,2.4,1.2l-1.7,3.1l-0.9-0.5c-0.2,1.6-0.2,2.6-0.2,2.8c0,1.3,0.3,3.2,0.8,5.7s0.8,4.4,0.8,5.6c0,6.1-1.9,9.2-5.6,9.2
			h-1.9v-3.3c1.8,0,3.1-0.1,3.9-0.3c1.6-0.5,2.4-1.4,2.4-2.7c0-0.5-0.2-2.2-0.7-5c-0.3-1.9-0.6-3.8-0.9-5.6
			c-0.4-2.3-0.6-4.2-0.6-5.6c0-0.2,0-0.5,0.1-1c0.1-0.5,0.1-0.8,0-1.1v-0.3C121.5,86.3,121.4,86.3,121.4,86.3z"/>
		<path class="st3" d="M132.3,104.6c0,1.6-0.4,3.8-1.3,6.6l-0.6-0.1c0.2-1,0.2-1.9,0.2-2.9c0-2-0.2-4.4-0.6-7.5
			c-0.3-2.5-0.6-4.9-1-7.3c-0.2-1.5-0.3-2.4-0.3-2.6c0-1.4,0.1-2.4,0.4-3.1c0.4-0.9,0.9-1.7,1.4-2.6c0,2.5,0.5,7.7,1.4,15.5
			C132.1,102,132.3,103.3,132.3,104.6z"/>
	</g>
	<g>
		<path class="st3" d="M72.4,88.7c0,2.7-0.8,4-2.5,4c-0.5,0-1-0.2-1.5-0.5c-0.1,0.5-0.4,1-0.9,1.4s-1,0.6-1.6,0.6
			c-1.3,0-2-0.9-2-2.7c0-0.4,0.2-1.2,0.6-2.3l0.5-0.1c0,1.8,0.3,2.6,0.9,2.6c1,0,1.7-1.3,2.2-3.9l0.5-0.1c0.3,1.6,0.8,2.4,1.3,2.4
			c1.1,0,1.6-1.2,1.6-3.5l0.5-0.3C72.3,87.2,72.4,87.8,72.4,88.7z"/>
		<path class="st3" d="M68.1,82.8l-0.2,2.4c-0.3-0.2-1-0.6-1.9-1.2c-2,2.3-3.6,3.4-4.8,3.4c-0.3,0-0.7-0.1-1.4-0.3
			c1.6-0.8,3.3-2.1,5.1-3.7c-1-0.7-1.5-1.4-1.5-2.2c0-0.8,0.3-1.7,0.9-2.6c0.6-0.9,1.2-1.4,2-1.4c1.1,0,1.6,0.7,1.6,2.1
			c0,0.8-0.3,1.7-0.8,2.8C67.4,82.3,67.8,82.5,68.1,82.8z M66.9,80.8c0-1-0.4-1.5-1.3-1.5c-0.3,0-0.4,0.2-0.4,0.5
			c0,0.5,0.5,1.1,1.6,1.8C66.9,81.3,66.9,80.9,66.9,80.8z"/>
		<path class="st3" d="M89.1,107.8h-3.7c-1,0-1.7-0.2-2.1-0.5c-0.4-0.4-0.7-1-1-2.1c-3.5,3.1-9.3,4.6-17.5,4.6
			c-9,0-13.4-2.4-13.4-7.3c0-1.3,0.6-3.4,1.9-6.3l0.6,0.3c-0.6,2-0.9,3.2-0.9,3.6c0,4.1,4.4,6.1,13.1,6.1c6.8,0,12-1,15.6-2.9
			c0.2-0.5,0.4-0.9,0.4-1.4c0.6,1.8,2.1,2.7,4.5,2.7c0.3,0,0.7,0,1.2,0s1,0,1.2,0L89.1,107.8L89.1,107.8z M70.8,115.8l-1.9,2.8
			l-2.6-1.9l1.8-2.7L70.8,115.8z"/>
		<path class="st3" d="M106.3,109.2c0,1.1-0.3,1.8-0.9,2.1l-7.2,4.1c0-1,0.5-1.8,1.6-2.4L106.3,109.2z"/>
		<path class="st3" d="M112.3,99.8l-1,2.9h-1.1c-0.6,0-1.5,0-2.7-0.1c-1.1-0.2-2-0.2-2.6-0.2c-2,0-4,0.5-6.2,1.4
			c-1.6,0.9-3.3,1.8-4.9,2.7c-1.8,0.9-3.3,1.4-4.5,1.4h-1.9v-3.2c2,0,3.7-0.1,4.9-0.4c1-0.2,2.5-0.8,4.6-1.6
			c1.3-0.5,2.4-0.9,3.4-1.1c-0.6-0.1-1.9-0.6-3.7-1.4c-1.5-0.7-2.8-1-3.8-1c-0.3,0-0.5,0.2-0.7,0.7h-2.8c1-2.9,2.6-4.3,4.9-4.3
			c1.2,0,3.1,0.7,5.9,2.2S106.9,99.8,112.3,99.8z"/>
		<path class="st3" d="M118.8,70.9l-0.1,2.4c-0.3-0.2-1-0.6-1.9-1.2c-2,2.3-3.6,3.4-4.8,3.4c-0.3,0-0.7-0.1-1.4-0.3
			c1.6-0.8,3.3-2.1,5.1-3.7c-1-0.7-1.5-1.4-1.5-2.2c0-0.8,0.3-1.7,0.9-2.6c0.6-0.9,1.2-1.4,2-1.4c1.1,0,1.6,0.7,1.6,2.1
			c0,0.8-0.3,1.7-0.8,2.8C118.1,70.3,118.4,70.7,118.8,70.9z M117.6,68.8c0-1-0.4-1.5-1.3-1.5c-0.2,0-0.4,0.2-0.4,0.5
			c0,0.5,0.5,1.1,1.6,1.8C117.6,69.3,117.6,69.1,117.6,68.8z"/>
		<path class="st3" d="M122.6,78.2c-0.2,0.9-0.5,1.4-0.8,1.5l-6.5,1.9c0.1-0.6,0.4-1.1,0.8-1.4c0.2-0.1,0.8-0.4,1.6-0.7
			c-1-0.4-1.5-1.1-1.6-1.9c0-0.3,0.1-0.6,0.4-1c0.6-0.8,1.2-1.5,2-2c0.7-0.5,1.4-0.8,1.9-0.8c0.8,0,1.2,0.4,1.2,1.3
			c0,0.5-0.2,1-0.7,1.6c-0.8-0.5-1.4-0.8-1.9-0.8c-0.4,0-1,0.3-1.6,0.8c1.3,1.2,2.4,1.8,3.4,1.8C121.3,78.4,121.9,78.3,122.6,78.2z"
			/>
		<path class="st3" d="M120.6,101.3c0,1.6-0.4,3.8-1.3,6.6l-0.6-0.1c0.2-1,0.2-1.9,0.2-2.9c0-2-0.2-4.4-0.6-7.5
			c-0.3-2.5-0.6-4.9-1-7.3c-0.2-1.5-0.3-2.4-0.3-2.6c0-1.4,0.1-2.4,0.4-3.1c0.4-0.9,0.9-1.7,1.4-2.6c0,2.5,0.5,7.7,1.4,15.5
			C120.4,98.7,120.6,100.1,120.6,101.3z"/>
	</g>
	<g>
		<path class="st3" d="M48.4,74.3l-0.2,2.4c-0.3-0.2-1-0.6-1.9-1.2c-2,2.3-3.6,3.4-4.8,3.4c-0.3,0-0.7-0.1-1.4-0.3
			c1.6-0.8,3.3-2.1,5.1-3.7c-1-0.7-1.5-1.4-1.5-2.2c0-0.8,0.3-1.7,0.9-2.6c0.6-0.9,1.2-1.4,2-1.4c1.1,0,1.6,0.7,1.6,2.1
			c0,0.8-0.3,1.7-0.8,2.8C47.8,73.8,48,73.9,48.4,74.3z M47.3,72.2c0-1-0.4-1.5-1.3-1.5c-0.3,0-0.4,0.2-0.4,0.5
			c0,0.5,0.5,1.1,1.6,1.8C47.2,72.7,47.3,72.4,47.3,72.2z"/>
		<path class="st3" d="M56.8,107.8H53c-2.1,0-3.6-2-4.6-5.9c-0.9,2-2.1,3.4-3.5,4.2c-1.3,0.7-3.1,1.1-5.3,1.1c-2.7,0-4-0.8-4-2.4
			c0-0.4,0.4-1.6,1.1-3.5h0.6v0.3c0,0.9,0.3,1.6,1,1.9c0.5,0.2,1.2,0.3,2.3,0.3c2.3,0,3.9-0.2,4.9-0.6c1.7-0.6,2.5-1.9,2.5-3.8
			c0-1.2-0.3-2.9-0.8-5.2c-0.6-2.2-0.9-3.8-0.9-5l1.6-2.2l2,12c0.6,3.7,1.9,5.6,3.7,5.6h3L56.8,107.8L56.8,107.8z"/>
		<path class="st3" d="M63.5,111.8l-1.8,2.8l-2.8-1.8l-1.6,2.4l-2.8-1.7l1.6-2.9l3,1.8l1.4-2.4L63.5,111.8z M62,100.7
			c0,4.8-1.7,7.2-5.2,7.2h-1.9v-3.2c3.9,0,5.9-0.7,5.9-2c0-0.3-0.3-1-0.9-2.1c-0.6-1.1-0.9-1.7-0.9-2c0-0.1,0.6-1.2,1.8-3.1
			C61.5,97.2,62,99,62,100.7z"/>
		<path class="st3" d="M86.9,107.8h-3.7c-2.1,0-3.6-2-4.6-5.9c-0.9,2-2.1,3.4-3.5,4.2c-1.3,0.7-3.1,1.1-5.3,1.1c-2.7,0-4-0.8-4-2.4
			c0-0.4,0.4-1.6,1.1-3.5h0.6v0.3c0,0.9,0.3,1.6,1,1.9c0.5,0.2,1.2,0.3,2.3,0.3c2.3,0,3.9-0.2,4.9-0.6c1.7-0.6,2.5-1.9,2.5-3.8
			c0-1.2-0.3-2.9-0.8-5.2c-0.5-2.3-0.8-3.9-0.8-5.1l1.6-2.2l2,12c0.6,3.7,1.9,5.6,3.7,5.6h3V107.8z"/>
		<path class="st3" d="M103.9,78.8c0,1.1-0.3,1.7-0.8,2.1l-7.3,4.1c0-1,0.5-1.8,1.6-2.4L103.9,78.8z"/>
		<path class="st3" d="M116.3,107.8h-4.3c-2.3,0-3.9-0.1-4.8-0.2c-2.1-0.4-3.2-1.3-3.2-2.6c0-0.9,0.2-1.8,0.6-2.7h-1.1
			c-2.3,0-4.6,0.5-6.9,1.4c-0.6,0.3-2.4,1.2-5.3,2.7c-1.8,1-3.3,1.4-4.3,1.4h-1.9v-3.2c2.5,0,4.3-0.2,5.4-0.5
			c1.7-0.7,4.4-1.7,8.2-2.8c-1.3-0.5-2.6-1-3.9-1.5c-1.8-0.6-3.1-1-3.9-1c-0.5,0-0.8,0.2-0.9,0.6h-2.8c0.3-1.2,0.8-2.2,1.7-3
			s1.9-1.2,3.1-1.2c0.7,0,2,0.4,3.7,1.1c1.3,0.5,2.6,1.1,3.8,1.6c3,1.1,6.8,1.6,11.1,1.6l-0.7,2.7c-3.2,0.1-4.6,0.1-4.2,0.1
			c0.1,0.9,0.6,1.5,1.5,1.8c0.9,0.3,3.9,0.5,9,0.5v3.2H116.3z M101.9,110.3l-1.6,2.9l-2.7-1.7l1.6-3L101.9,110.3z"/>
		<path class="st3" d="M114.4,104.6h10.7v3.2h-10.7V104.6z"/>
		<path class="st3" d="M127.6,83c-0.3-0.3-0.7-0.8-1.1-1.5c0.4-1.2,1.2-2.2,2.1-3.1c0.1,0.9,0.5,1.7,1.2,2.4c0.7,0.6,1.4,1,2.4,1.2
			l-1.8,3l-0.9-0.5c-0.2,1.6-0.2,2.6-0.2,2.8c0,1.3,0.3,3.2,0.8,5.7s0.8,4.4,0.8,5.6c0,6.1-1.9,9.2-5.6,9.2h-1.9v-3.2
			c1.8,0,3.1-0.1,3.9-0.3c1.6-0.5,2.4-1.4,2.4-2.7c0-0.5-0.2-2.2-0.7-5c-0.3-1.9-0.6-3.8-0.9-5.6c-0.4-2.3-0.6-4.2-0.6-5.6
			c0-0.2,0-0.5,0.1-1c0.1-0.5,0.1-0.8,0-1.1V83L127.6,83z"/>
		<path class="st3" d="M138.4,101.2c0,1.6-0.4,3.8-1.3,6.6l-0.6-0.1c0.2-1,0.2-1.9,0.2-2.9c0-2-0.2-4.4-0.6-7.5
			c-0.3-2.5-0.6-4.9-1-7.3c-0.2-1.5-0.3-2.4-0.3-2.6c0-1.4,0.1-2.4,0.4-3.1c0.4-0.9,0.9-1.7,1.4-2.6c0,2.5,0.5,7.7,1.4,15.5
			C138.4,98.6,138.4,100,138.4,101.2z"/>
	</g>
</g>
<g class="st0">
	<g>
		<path class="st3" d="M61.8,64.8l-0.2,2.4c-0.3-0.2-1-0.6-1.9-1.2c-2,2.3-3.6,3.4-4.8,3.4c-0.3,0-0.7-0.1-1.4-0.3
			c1.6-0.8,3.3-2.1,5.1-3.7c-1-0.7-1.5-1.4-1.5-2.2c0-0.8,0.3-1.7,0.9-2.6c0.6-0.9,1.2-1.4,2-1.4c1.1,0,1.6,0.7,1.6,2.1
			c0,0.8-0.3,1.7-0.8,2.8C61,64.2,61.5,64.3,61.8,64.8z M60.6,62.7c0-1-0.4-1.5-1.3-1.5c-0.3,0-0.4,0.2-0.4,0.5
			c0,0.5,0.5,1.1,1.6,1.8C60.5,63.2,60.6,62.8,60.6,62.7z"/>
		<path class="st3" d="M64.3,85.6c0,0.7-0.2,1.7-0.7,2.8c-0.4,0-0.9,0-1.5-0.1c-0.7-0.1-1.2-0.1-1.5-0.1c-1.8,0-3.4,0.3-4.9,0.9
			c-2,0.8-3,1.9-3,3.4s0.3,3.5,0.9,6c0.5,2,1,4.1,1.5,6.1c0.2,0.7,0.4,1.4,0.6,2.2c0.3,0.9,0.4,1.7,0.4,2.2s-0.3,1.2-0.9,2
			c-0.2-1.2-0.9-4.1-2.1-8.8c-1-4-1.5-6.7-1.5-8.2c0-1.3,0.2-2.8,0.6-4.4c0.5-1.8,1.3-3.1,2.5-3.8c0.5-0.3,2-0.7,4.5-1.3
			c-0.2-0.2-0.5-0.4-1-0.7c-0.5-0.3-0.9-0.4-1.2-0.4c-0.9,0-1.7,0.4-2.4,1.2l-0.8-0.1c0.6-1.7,1.1-2.8,1.5-3.4
			c0.8-1.1,1.8-1.7,3.1-1.7c1.2,0,2.6,0.7,4,2.2C63.6,83,64.3,84.3,64.3,85.6z"/>
		<path class="st3" d="M78.8,92.8h-3.7c-3,0-4.6-1.7-5-5c-0.5-4.3-1.1-10.6-1.8-18.9c0.7-0.9,1.3-1.6,1.8-2.3l1.7,19.3
			c0.1,1.5,0.6,2.5,1.3,3.1c0.5,0.4,1.5,0.6,2.7,0.6c0.3,0,0.8,0,1.4,0c0.7,0,1.2,0,1.5,0L78.8,92.8L78.8,92.8z"/>
		<path class="st3" d="M80.6,67.9c-0.3-0.3-0.6-0.8-1.1-1.4c0.5-1.3,1.2-2.3,2.2-3.1c0.1,0.9,0.5,1.7,1.2,2.3c0.7,0.7,1.4,1,2.3,1.1
			l-1.7,3.1l-0.8-0.4h-0.2c0.8,4.5,1.2,8.2,1.2,11.1c0,1.8-0.2,3.9-0.6,6.5c4.6-5.1,8.4-7.6,11.6-7.6c1.1,0,2,0.4,2.7,1.3s1,1.9,1,3
			c0,2.6-1.9,4.6-5.6,5.9h10.1v3.2H76.9v-3.3h2.8c0.4,0,0.8,0,1.2-0.1c1-1.5,1.5-4,1.5-7.6c0-2.3-0.5-6-1.5-11
			C80.9,70.3,80.8,69.3,80.6,67.9z M96.4,85.3c0-0.5-0.5-1-1.5-1.4c-0.8-0.4-1.6-0.5-2.2-0.5c-2,0-3.9,0.6-5.8,1.9
			c-1.7,1.1-3.1,2.6-4.3,4.4h1c2.5,0,5.3-0.5,8.2-1.6C94.9,87,96.4,86.1,96.4,85.3z M92.9,71.8l-1.7,3.2l-2.9-2l1.8-3.1L92.9,71.8z"
			/>
		<path class="st3" d="M110.4,61.8c0,2.7-0.8,4-2.5,4c-0.5,0-1-0.2-1.5-0.5c-0.1,0.5-0.4,1-0.9,1.4s-1,0.6-1.6,0.6
			c-1.3,0-2-0.9-2-2.7c0-0.4,0.2-1.2,0.6-2.3l0.5-0.1c0,1.8,0.3,2.6,0.9,2.6c1,0,1.7-1.3,2.2-3.9l0.5-0.1c0.3,1.6,0.8,2.4,1.3,2.4
			c1.1,0,1.6-1.2,1.6-3.5l0.5-0.3C110.4,60.2,110.4,60.9,110.4,61.8z"/>
		<path class="st3" d="M110.3,66.3c0,1.1-0.3,1.8-0.9,2.1l-7.2,4.1c0-1,0.5-1.8,1.6-2.4L110.3,66.3z"/>
		<path class="st3" d="M113.1,92.8h-3.7c-0.5,0-1-0.4-1.5-1.1s-0.7-1.4-0.7-1.9c-1.1,2-2.5,3-4.1,3h-1.9v-3.2c2.1,0,3.5-0.2,4-0.5
			c0.7-0.4,1.2-0.8,1.3-1.3c0.1-0.3,0.2-0.9,0.2-2h0.4c0.4,1.7,1.1,2.7,2.1,3.2c0.7,0.3,2,0.5,3.9,0.5
			C113.1,89.6,113.1,92.8,113.1,92.8z M108.9,78.6l-1.7,2.7l-2.6-1.8l1.6-2.8L108.9,78.6z"/>
		<path class="st3" d="M115.4,68.1c-0.3-0.3-0.7-0.8-1.1-1.5c0.4-1.2,1.2-2.2,2.1-3.1c0.1,0.9,0.5,1.7,1.2,2.4
			c0.7,0.6,1.4,1,2.4,1.2l-1.8,3l-0.9-0.5c-0.2,1.6-0.2,2.6-0.2,2.8c0,1.3,0.3,3.2,0.8,5.7s0.8,4.4,0.8,5.6c0,6.1-1.9,9.2-5.6,9.2
			h-1.9v-3.2c1.8,0,3.1-0.1,3.9-0.3c1.6-0.5,2.4-1.4,2.4-2.7c0-0.5-0.2-2.2-0.7-5c-0.3-1.9-0.6-3.8-0.9-5.6
			c-0.4-2.3-0.6-4.2-0.6-5.6c0-0.2,0-0.5,0.1-1c0.1-0.5,0.1-0.8,0-1.1C115.4,68.3,115.4,68.1,115.4,68.1z"/>
		<path class="st3" d="M126.4,86.3c0,1.6-0.4,3.8-1.3,6.6l-0.6-0.1c0.2-1,0.2-1.9,0.2-2.9c0-2-0.2-4.4-0.6-7.5
			c-0.3-2.5-0.6-4.9-1-7.3c-0.2-1.5-0.3-2.4-0.3-2.6c0-1.4,0.1-2.4,0.4-3.1c0.4-0.9,0.9-1.7,1.4-2.6c0,2.5,0.5,7.7,1.4,15.5
			C126.3,83.7,126.4,85.1,126.4,86.3z"/>
	</g>
	<g class="st1">
		<path class="st2" d="M53.8,69.1l-0.2,2.4c-0.3-0.2-1-0.6-1.9-1.2c-2,2.3-3.6,3.4-4.8,3.4c-0.3,0-0.7-0.1-1.4-0.3
			c1.6-0.8,3.3-2.1,5.1-3.7c-1-0.7-1.5-1.4-1.5-2.2c0-0.8,0.3-1.7,0.9-2.6c0.6-0.9,1.2-1.4,2-1.4c1.1,0,1.6,0.7,1.6,2.1
			c0,0.8-0.3,1.7-0.8,2.8C53,68.4,53.3,68.7,53.8,69.1z M52.6,66.9c0-1-0.4-1.5-1.3-1.5c-0.3,0-0.4,0.2-0.4,0.5
			c0,0.5,0.5,1.1,1.6,1.8C52.5,67.4,52.6,67.2,52.6,66.9z"/>
		<path class="st2" d="M59.1,104.2h-3.7c-1.5,0-2.7-1.9-3.4-5.8c-1.5,1.6-2.8,2.4-4,2.4c-0.8,0-1.6-0.1-2.4-0.3
			c-1.2-0.3-1.8-0.8-1.8-1.3c0-0.3,0.4-1.3,1.2-3s2.7-3.4,5.8-4.9c-0.1-0.6-0.1-1.6-0.2-2.8l1.3-1.4l1.6,9.8
			c0.4,2.2,0.8,3.5,1.3,3.8c0.3,0.2,1.7,0.3,4.3,0.3C59.1,100.9,59.1,104.2,59.1,104.2z M53.3,83.1l-1.8,2.7l-2.9-1.8L47,86.3
			l-2.8-2l1.7-2.8l2.9,1.9l1.7-2.4L53.3,83.1z M51.8,96.7L51.3,93c-2.1,0.7-3.7,2-4.8,4c0.3,0.3,1.1,0.5,2.4,0.5S51,97.2,51.8,96.7z
			"/>
		<path class="st2" d="M76.1,81.7c0,2.7-0.8,4-2.5,4c-0.5,0-1-0.2-1.5-0.5c-0.1,0.5-0.4,1-0.9,1.4s-1,0.6-1.6,0.6
			c-1.3,0-2-0.9-2-2.7c0-0.4,0.2-1.2,0.6-2.3l0.5-0.1c0,1.8,0.3,2.6,0.9,2.6c1,0,1.7-1.3,2.2-3.9l0.5-0.1c0.3,1.6,0.8,2.4,1.3,2.4
			c1.1,0,1.6-1.2,1.6-3.5l0.5-0.3C76.1,80.2,76.1,80.8,76.1,81.7z"/>
		<path class="st2" d="M74.8,75.8c0,1.1-0.3,1.7-0.8,2.1l-7.3,4.1c0-1,0.5-1.8,1.6-2.4L74.8,75.8z"/>
		<path class="st2" d="M88.4,104.2h-4.3c-2.3,0-3.9-0.1-4.8-0.2c-2.1-0.4-3.2-1.3-3.2-2.6c0-0.9,0.2-1.8,0.6-2.7h-1.1
			c-2.3,0-4.6,0.5-6.9,1.4c-0.6,0.3-2.4,1.2-5.3,2.7c-1.8,1-3.3,1.4-4.3,1.4h-1.9V101c2.5,0,4.3-0.2,5.4-0.5
			c1.7-0.7,4.4-1.7,8.2-2.8c-1.3-0.5-2.6-1-3.9-1.5c-1.8-0.6-3.1-1-3.9-1c-0.5,0-0.8,0.2-0.9,0.6h-2.8c0.3-1.2,0.8-2.2,1.7-3
			s1.9-1.2,3.1-1.2c0.7,0,2,0.4,3.7,1.1c1.3,0.5,2.6,1.1,3.8,1.6c3,1.1,6.8,1.6,11.1,1.6l-0.7,2.7c-3.2,0.1-4.6,0.1-4.2,0.1
			c0.1,0.9,0.6,1.5,1.5,1.8s3.9,0.5,9,0.5L88.4,104.2L88.4,104.2z"/>
		<path class="st2" d="M107.1,75.2c0,2.7-0.8,4-2.5,4c-0.5,0-1-0.2-1.5-0.5c-0.1,0.5-0.4,1-0.9,1.4s-1,0.6-1.6,0.6
			c-1.3,0-2-0.9-2-2.7c0-0.4,0.2-1.2,0.6-2.3l0.5-0.1c0,1.8,0.3,2.6,0.9,2.6c1,0,1.7-1.3,2.2-3.9l0.5-0.1c0.3,1.6,0.8,2.4,1.3,2.4
			c1.1,0,1.6-1.2,1.6-3.5l0.5-0.3C106.9,73.6,107.1,74.3,107.1,75.2z"/>
		<path class="st2" d="M106.9,80.8c0,1.1-0.3,1.8-0.9,2.1l-7.2,4.1c0-1,0.5-1.8,1.6-2.4L106.9,80.8z"/>
		<path class="st2" d="M96.3,104.2c-1.9,0-3.2-1-3.7-3c-1.6,2-2.9,3-4.1,3h-1.9V101c2.1,0,3.6-0.2,4.3-0.6c0.7-0.4,1.2-0.8,1.3-1.2
			c0.1-0.3,0.2-1,0.2-2h0.4c0.2,1,0.7,1.9,1.3,2.8c0.4,0.6,1.5,0.9,3.1,1H97c0,0,0,0,0.1,0c0.1,0,0.1,0,0.1,0v3.2
			C97.2,104.2,96.3,104.2,96.3,104.2z"/>
		<path class="st2" d="M96.3,101h2.9c1.8-2.3,3.8-4.4,6-6.3c3-2.6,5.5-3.8,7.4-3.8c1.1,0,2,0.4,2.7,1.2c0.7,0.8,1.2,1.8,1.2,2.9
			c0,1.6-0.6,2.9-1.7,3.9c-0.8,0.7-2.1,1.4-3.9,2c4.1,0,7.4,0,10.1,0v3.2H98.6c-0.3,0.5-0.8,1.4-1.7,2.6l-0.4-0.4
			c0.4-0.9,0.7-1.6,1.1-2.3h-1.3L96.3,101L96.3,101z M114.4,96.8c0-1.2-1.1-1.9-3.3-1.9s-4.2,0.6-6,1.7c-1.1,0.7-2.6,2.2-4.6,4.3
			c4.7,0,8.8-1,12.4-2.9C113.9,97.6,114.4,97.2,114.4,96.8z"/>
		<path class="st2" d="M123.4,79.3c-0.3-0.3-0.7-0.8-1.1-1.5c0.4-1.2,1.2-2.2,2.1-3.1c0.1,0.9,0.5,1.7,1.2,2.4
			c0.7,0.6,1.4,1,2.4,1.2l-1.7,3.1l-0.9-0.5c-0.2,1.6-0.2,2.6-0.2,2.8c0,1.3,0.3,3.2,0.8,5.7s0.8,4.4,0.8,5.6c0,6.1-1.9,9.2-5.6,9.2
			h-1.9v-3.3c1.8,0,3.1-0.1,3.9-0.3c1.6-0.5,2.4-1.4,2.4-2.7c0-0.5-0.2-2.2-0.7-5c-0.3-1.9-0.6-3.8-0.9-5.6
			c-0.4-2.3-0.6-4.2-0.6-5.6c0-0.2,0-0.5,0.1-1c0.1-0.5,0.1-0.8,0-1.1v-0.3C123.5,79.3,123.4,79.3,123.4,79.3z"/>
		<path class="st2" d="M134.3,97.6c0,1.6-0.4,3.8-1.3,6.6l-0.6-0.1c0.2-1,0.2-1.9,0.2-2.9c0-2-0.2-4.4-0.6-7.5
			c-0.3-2.5-0.6-4.9-1-7.3c-0.2-1.5-0.3-2.4-0.3-2.6c0-1.4,0.1-2.4,0.4-3.1c0.4-0.9,0.9-1.7,1.4-2.6c0,2.5,0.5,7.7,1.4,15.5
			C134.1,95,134.3,96.3,134.3,97.6z"/>
	</g>
	<g>
		<path class="st3" d="M74.4,81.7c0,2.7-0.8,4-2.5,4c-0.5,0-1-0.2-1.5-0.5c-0.1,0.5-0.4,1-0.9,1.4s-1,0.6-1.6,0.6
			c-1.3,0-2-0.9-2-2.7c0-0.4,0.2-1.2,0.6-2.3l0.5-0.1c0,1.8,0.3,2.6,0.9,2.6c1,0,1.7-1.3,2.2-3.9l0.5-0.1c0.3,1.6,0.8,2.4,1.3,2.4
			c1.1,0,1.6-1.2,1.6-3.5l0.5-0.3C74.3,80.2,74.4,80.8,74.4,81.7z"/>
		<path class="st3" d="M70.1,75.8l-0.2,2.4c-0.3-0.2-1-0.6-1.9-1.2c-2,2.3-3.6,3.4-4.8,3.4c-0.3,0-0.7-0.1-1.4-0.3
			c1.6-0.8,3.3-2.1,5.1-3.7c-1-0.7-1.5-1.4-1.5-2.2c0-0.8,0.3-1.7,0.9-2.6c0.6-0.9,1.2-1.4,2-1.4c1.1,0,1.6,0.7,1.6,2.1
			c0,0.8-0.3,1.7-0.8,2.8C69.4,75.3,69.8,75.5,70.1,75.8z M68.9,73.8c0-1-0.4-1.5-1.3-1.5c-0.3,0-0.4,0.2-0.4,0.5
			c0,0.5,0.5,1.1,1.6,1.8C68.9,74.3,68.9,73.9,68.9,73.8z"/>
		<path class="st3" d="M91.1,100.8h-3.7c-1,0-1.7-0.2-2.1-0.5c-0.4-0.4-0.7-1-1-2.1c-3.5,3.1-9.3,4.6-17.5,4.6
			c-9,0-13.4-2.4-13.4-7.3c0-1.3,0.6-3.4,1.9-6.3l0.6,0.3c-0.6,2-0.9,3.2-0.9,3.6c0,4.1,4.4,6.1,13.1,6.1c6.8,0,12-1,15.6-2.9
			c0.2-0.5,0.4-0.9,0.4-1.4c0.6,1.8,2.1,2.7,4.5,2.7c0.3,0,0.7,0,1.2,0s1,0,1.2,0L91.1,100.8L91.1,100.8z M72.8,108.8l-1.9,2.8
			l-2.6-1.9l1.8-2.7L72.8,108.8z"/>
		<path class="st3" d="M108.3,102.2c0,1.1-0.3,1.8-0.9,2.1l-7.2,4.1c0-1,0.5-1.8,1.6-2.4L108.3,102.2z"/>
		<path class="st3" d="M114.3,92.8l-1,2.9h-1.1c-0.6,0-1.5,0-2.7-0.1c-1.1-0.2-2-0.2-2.6-0.2c-2,0-4,0.5-6.2,1.4
			c-1.6,0.9-3.3,1.8-4.9,2.7c-1.8,0.9-3.3,1.4-4.5,1.4h-1.9v-3.2c2,0,3.7-0.1,4.9-0.4c1-0.2,2.5-0.8,4.6-1.6
			c1.3-0.5,2.4-0.9,3.4-1.1c-0.6-0.1-1.9-0.6-3.7-1.4c-1.5-0.7-2.8-1-3.8-1c-0.3,0-0.5,0.2-0.7,0.7h-2.8c1-2.9,2.6-4.3,4.9-4.3
			c1.2,0,3.1,0.7,5.9,2.2S108.9,92.8,114.3,92.8z"/>
		<path class="st3" d="M120.8,63.9l-0.1,2.4c-0.3-0.2-1-0.6-1.9-1.2c-2,2.3-3.6,3.4-4.8,3.4c-0.3,0-0.7-0.1-1.4-0.3
			c1.6-0.8,3.3-2.1,5.1-3.7c-1-0.7-1.5-1.4-1.5-2.2c0-0.8,0.3-1.7,0.9-2.6c0.6-0.9,1.2-1.4,2-1.4c1.1,0,1.6,0.7,1.6,2.1
			c0,0.8-0.3,1.7-0.8,2.8C120.1,63.3,120.4,63.7,120.8,63.9z M119.6,61.8c0-1-0.4-1.5-1.3-1.5c-0.2,0-0.4,0.2-0.4,0.5
			c0,0.5,0.5,1.1,1.6,1.8C119.6,62.3,119.6,62.1,119.6,61.8z"/>
		<path class="st3" d="M124.6,71.2c-0.2,0.9-0.5,1.4-0.8,1.5l-6.5,1.9c0.1-0.6,0.4-1.1,0.8-1.4c0.2-0.1,0.8-0.4,1.6-0.7
			c-1-0.4-1.5-1.1-1.6-1.9c0-0.3,0.1-0.6,0.4-1c0.6-0.8,1.2-1.5,2-2c0.7-0.5,1.4-0.8,1.9-0.8c0.8,0,1.2,0.4,1.2,1.3
			c0,0.5-0.2,1-0.7,1.6c-0.8-0.5-1.4-0.8-1.9-0.8c-0.4,0-1,0.3-1.6,0.8c1.3,1.2,2.4,1.8,3.4,1.8C123.3,71.4,123.9,71.3,124.6,71.2z"
			/>
		<path class="st3" d="M122.6,94.3c0,1.6-0.4,3.8-1.3,6.6l-0.6-0.1c0.2-1,0.2-1.9,0.2-2.9c0-2-0.2-4.4-0.6-7.5
			c-0.3-2.5-0.6-4.9-1-7.3c-0.2-1.5-0.3-2.4-0.3-2.6c0-1.4,0.1-2.4,0.4-3.1c0.4-0.9,0.9-1.7,1.4-2.6c0,2.5,0.5,7.7,1.4,15.5
			C122.4,91.7,122.6,93.1,122.6,94.3z"/>
	</g>
	<g>
		<path class="st3" d="M50.4,67.3l-0.2,2.4c-0.3-0.2-1-0.6-1.9-1.2c-2,2.3-3.6,3.4-4.8,3.4c-0.3,0-0.7-0.1-1.4-0.3
			c1.6-0.8,3.3-2.1,5.1-3.7c-1-0.7-1.5-1.4-1.5-2.2c0-0.8,0.3-1.7,0.9-2.6c0.6-0.9,1.2-1.4,2-1.4c1.1,0,1.6,0.7,1.6,2.1
			c0,0.8-0.3,1.7-0.8,2.8C49.8,66.8,50,66.9,50.4,67.3z M49.3,65.2c0-1-0.4-1.5-1.3-1.5c-0.3,0-0.4,0.2-0.4,0.5
			c0,0.5,0.5,1.1,1.6,1.8C49.2,65.7,49.3,65.4,49.3,65.2z"/>
		<path class="st3" d="M58.8,100.8H55c-2.1,0-3.6-2-4.6-5.9c-0.9,2-2.1,3.4-3.5,4.2c-1.3,0.7-3.1,1.1-5.3,1.1c-2.7,0-4-0.8-4-2.4
			c0-0.4,0.4-1.6,1.1-3.5h0.6v0.3c0,0.9,0.3,1.6,1,1.9c0.5,0.2,1.2,0.3,2.3,0.3c2.3,0,3.9-0.2,4.9-0.6c1.7-0.6,2.5-1.9,2.5-3.8
			c0-1.2-0.3-2.9-0.8-5.2c-0.6-2.2-0.9-3.8-0.9-5l1.6-2.2l2,12c0.6,3.7,1.9,5.6,3.7,5.6h3L58.8,100.8L58.8,100.8z"/>
		<path class="st3" d="M65.6,104.8l-1.8,2.8l-2.8-1.8l-1.6,2.4l-2.8-1.7l1.6-2.9l3,1.8l1.4-2.4L65.6,104.8z M64,93.7
			c0,4.8-1.7,7.2-5.2,7.2h-1.9v-3.2c3.9,0,5.9-0.7,5.9-2c0-0.3-0.3-1-0.9-2.1c-0.6-1.1-0.9-1.7-0.9-2c0-0.1,0.6-1.2,1.8-3.1
			C63.5,90.2,64,92,64,93.7z"/>
		<path class="st3" d="M88.9,100.8h-3.7c-2.1,0-3.6-2-4.6-5.9c-0.9,2-2.1,3.4-3.5,4.2c-1.3,0.7-3.1,1.1-5.3,1.1c-2.7,0-4-0.8-4-2.4
			c0-0.4,0.4-1.6,1.1-3.5h0.6v0.3c0,0.9,0.3,1.6,1,1.9c0.5,0.2,1.2,0.3,2.3,0.3c2.3,0,3.9-0.2,4.9-0.6c1.7-0.6,2.5-1.9,2.5-3.8
			c0-1.2-0.3-2.9-0.8-5.2c-0.5-2.3-0.8-3.9-0.8-5.1l1.6-2.2l2,12c0.6,3.7,1.9,5.6,3.7,5.6h3V100.8z"/>
		<path class="st3" d="M105.9,71.8c0,1.1-0.3,1.7-0.8,2.1l-7.3,4.1c0-1,0.5-1.8,1.6-2.4L105.9,71.8z"/>
		<path class="st3" d="M118.3,100.8h-4.3c-2.3,0-3.9-0.1-4.8-0.2c-2.1-0.4-3.2-1.3-3.2-2.6c0-0.9,0.2-1.8,0.6-2.7h-1.1
			c-2.3,0-4.6,0.5-6.9,1.4c-0.6,0.3-2.4,1.2-5.3,2.7c-1.8,1-3.3,1.4-4.3,1.4h-1.9v-3.2c2.5,0,4.3-0.2,5.4-0.5
			c1.7-0.7,4.4-1.7,8.2-2.8c-1.3-0.5-2.6-1-3.9-1.5c-1.8-0.6-3.1-1-3.9-1c-0.5,0-0.8,0.2-0.9,0.6h-2.8c0.3-1.2,0.8-2.2,1.7-3
			s1.9-1.2,3.1-1.2c0.7,0,2,0.4,3.7,1.1c1.3,0.5,2.6,1.1,3.8,1.6c3,1.1,6.8,1.6,11.1,1.6l-0.7,2.7c-3.2,0.1-4.6,0.1-4.2,0.1
			c0.1,0.9,0.6,1.5,1.5,1.8c0.9,0.3,3.9,0.5,9,0.5v3.2H118.3z M103.9,103.3l-1.6,2.9l-2.7-1.7l1.6-3L103.9,103.3z"/>
		<path class="st3" d="M116.4,97.6h10.7v3.2h-10.7V97.6z"/>
		<path class="st3" d="M129.6,76c-0.3-0.3-0.7-0.8-1.1-1.5c0.4-1.2,1.2-2.2,2.1-3.1c0.1,0.9,0.5,1.7,1.2,2.4c0.7,0.6,1.4,1,2.4,1.2
			l-1.8,3l-0.9-0.5c-0.2,1.6-0.2,2.6-0.2,2.8c0,1.3,0.3,3.2,0.8,5.7s0.8,4.4,0.8,5.6c0,6.1-1.9,9.2-5.6,9.2h-1.9v-3.2
			c1.8,0,3.1-0.1,3.9-0.3c1.6-0.5,2.4-1.4,2.4-2.7c0-0.5-0.2-2.2-0.7-5c-0.3-1.9-0.6-3.8-0.9-5.6c-0.4-2.3-0.6-4.2-0.6-5.6
			c0-0.2,0-0.5,0.1-1c0.1-0.5,0.1-0.8,0-1.1V76L129.6,76z"/>
		<path class="st3" d="M140.4,94.2c0,1.6-0.4,3.8-1.3,6.6l-0.6-0.1c0.2-1,0.2-1.9,0.2-2.9c0-2-0.2-4.4-0.6-7.5
			c-0.3-2.5-0.6-4.9-1-7.3c-0.2-1.5-0.3-2.4-0.3-2.6c0-1.4,0.1-2.4,0.4-3.1c0.4-0.9,0.9-1.7,1.4-2.6c0,2.5,0.5,7.7,1.4,15.5
			C140.4,91.6,140.4,93,140.4,94.2z"/>
	</g>
</g>
<g>
	<g class="st0">
		<path class="st3" d="M62.8,69.8l-0.2,2.4c-0.3-0.2-1-0.6-1.9-1.2c-2,2.3-3.6,3.4-4.8,3.4c-0.3,0-0.7-0.1-1.4-0.3
			c1.6-0.8,3.3-2.1,5.1-3.7c-1-0.7-1.5-1.4-1.5-2.2c0-0.8,0.3-1.7,0.9-2.6c0.6-0.9,1.2-1.4,2-1.4c1.1,0,1.6,0.7,1.6,2.1
			c0,0.8-0.3,1.7-0.8,2.8C62,69.2,62.5,69.3,62.8,69.8z M61.6,67.7c0-1-0.4-1.5-1.3-1.5c-0.3,0-0.4,0.2-0.4,0.5
			c0,0.5,0.5,1.1,1.6,1.8C61.5,68.2,61.6,67.8,61.6,67.7z"/>
		<path class="st3" d="M65.3,90.6c0,0.7-0.2,1.7-0.7,2.8c-0.4,0-0.9,0-1.5-0.1c-0.7-0.1-1.2-0.1-1.5-0.1c-1.8,0-3.4,0.3-4.9,0.9
			c-2,0.8-3,1.9-3,3.4s0.3,3.5,0.9,6c0.5,2,1,4.1,1.5,6.1c0.2,0.7,0.4,1.4,0.6,2.2c0.3,0.9,0.4,1.7,0.4,2.2s-0.3,1.2-0.9,2
			c-0.2-1.2-0.9-4.1-2.1-8.8c-1-4-1.5-6.7-1.5-8.2c0-1.3,0.2-2.8,0.6-4.4c0.5-1.8,1.3-3.1,2.5-3.8c0.5-0.3,2-0.7,4.5-1.3
			c-0.2-0.2-0.5-0.4-1-0.7c-0.5-0.3-0.9-0.4-1.2-0.4c-0.9,0-1.7,0.4-2.4,1.2l-0.8-0.1c0.6-1.7,1.1-2.8,1.5-3.4
			c0.8-1.1,1.8-1.7,3.1-1.7c1.2,0,2.6,0.7,4,2.2C64.6,88,65.3,89.3,65.3,90.6z"/>
		<path class="st3" d="M79.8,97.8h-3.7c-3,0-4.6-1.7-5-5c-0.5-4.3-1.1-10.6-1.8-18.9c0.7-0.9,1.3-1.6,1.8-2.3l1.7,19.3
			c0.1,1.5,0.6,2.5,1.3,3.1c0.5,0.4,1.5,0.6,2.7,0.6c0.3,0,0.8,0,1.4,0c0.7,0,1.2,0,1.5,0L79.8,97.8L79.8,97.8z"/>
		<path class="st3" d="M81.6,72.9c-0.3-0.3-0.6-0.8-1.1-1.4c0.5-1.3,1.2-2.3,2.2-3.1c0.1,0.9,0.5,1.7,1.2,2.3c0.7,0.7,1.4,1,2.3,1.1
			l-1.7,3.1l-0.8-0.4h-0.2c0.8,4.5,1.2,8.2,1.2,11.1c0,1.8-0.2,3.9-0.6,6.5c4.6-5.1,8.4-7.6,11.6-7.6c1.1,0,2,0.4,2.7,1.3s1,1.9,1,3
			c0,2.6-1.9,4.6-5.6,5.9h10.1v3.2H77.9v-3.3h2.8c0.4,0,0.8,0,1.2-0.1c1-1.5,1.5-4,1.5-7.6c0-2.3-0.5-6-1.5-11
			C81.9,75.3,81.8,74.3,81.6,72.9z M97.4,90.3c0-0.5-0.5-1-1.5-1.4c-0.8-0.4-1.6-0.5-2.2-0.5c-2,0-3.9,0.6-5.8,1.9
			c-1.7,1.1-3.1,2.6-4.3,4.4h1c2.5,0,5.3-0.5,8.2-1.6C95.9,92,97.4,91.1,97.4,90.3z M93.9,76.8l-1.7,3.2l-2.9-2l1.8-3.1L93.9,76.8z"
			/>
		<path class="st3" d="M111.4,66.8c0,2.7-0.8,4-2.5,4c-0.5,0-1-0.2-1.5-0.5c-0.1,0.5-0.4,1-0.9,1.4s-1,0.6-1.6,0.6
			c-1.3,0-2-0.9-2-2.7c0-0.4,0.2-1.2,0.6-2.3l0.5-0.1c0,1.8,0.3,2.6,0.9,2.6c1,0,1.7-1.3,2.2-3.9l0.5-0.1c0.3,1.6,0.8,2.4,1.3,2.4
			c1.1,0,1.6-1.2,1.6-3.5l0.5-0.3C111.4,65.2,111.4,65.9,111.4,66.8z"/>
		<path class="st3" d="M111.3,71.3c0,1.1-0.3,1.8-0.9,2.1l-7.2,4.1c0-1,0.5-1.8,1.6-2.4L111.3,71.3z"/>
		<path class="st3" d="M114.1,97.8h-3.7c-0.5,0-1-0.4-1.5-1.1s-0.7-1.4-0.7-1.9c-1.1,2-2.5,3-4.1,3h-1.9v-3.2c2.1,0,3.5-0.2,4-0.5
			c0.7-0.4,1.2-0.8,1.3-1.3c0.1-0.3,0.2-0.9,0.2-2h0.4c0.4,1.7,1.1,2.7,2.1,3.2c0.7,0.3,2,0.5,3.9,0.5
			C114.1,94.6,114.1,97.8,114.1,97.8z M109.9,83.6l-1.7,2.7l-2.6-1.8l1.6-2.8L109.9,83.6z"/>
		<path class="st3" d="M116.4,73.1c-0.3-0.3-0.7-0.8-1.1-1.5c0.4-1.2,1.2-2.2,2.1-3.1c0.1,0.9,0.5,1.7,1.2,2.4
			c0.7,0.6,1.4,1,2.4,1.2l-1.8,3l-0.9-0.5c-0.2,1.6-0.2,2.6-0.2,2.8c0,1.3,0.3,3.2,0.8,5.7s0.8,4.4,0.8,5.6c0,6.1-1.9,9.2-5.6,9.2
			h-1.9v-3.2c1.8,0,3.1-0.1,3.9-0.3c1.6-0.5,2.4-1.4,2.4-2.7c0-0.5-0.2-2.2-0.7-5c-0.3-1.9-0.6-3.8-0.9-5.6
			c-0.4-2.3-0.6-4.2-0.6-5.6c0-0.2,0-0.5,0.1-1c0.1-0.5,0.1-0.8,0-1.1C116.4,73.3,116.4,73.1,116.4,73.1z"/>
		<path class="st3" d="M127.4,91.3c0,1.6-0.4,3.8-1.3,6.6l-0.6-0.1c0.2-1,0.2-1.9,0.2-2.9c0-2-0.2-4.4-0.6-7.5
			c-0.3-2.5-0.6-4.9-1-7.3c-0.2-1.5-0.3-2.4-0.3-2.6c0-1.4,0.1-2.4,0.4-3.1c0.4-0.9,0.9-1.7,1.4-2.6c0,2.5,0.5,7.7,1.4,15.5
			C127.3,88.7,127.4,90.1,127.4,91.3z"/>
	</g>
	<g class="st0">
		<path class="st3" d="M54.8,74.1l-0.2,2.4c-0.3-0.2-1-0.6-1.9-1.2c-2,2.3-3.6,3.4-4.8,3.4c-0.3,0-0.7-0.1-1.4-0.3
			c1.6-0.8,3.3-2.1,5.1-3.7c-1-0.7-1.5-1.4-1.5-2.2c0-0.8,0.3-1.7,0.9-2.6c0.6-0.9,1.2-1.4,2-1.4c1.1,0,1.6,0.7,1.6,2.1
			c0,0.8-0.3,1.7-0.8,2.8C54,73.4,54.3,73.7,54.8,74.1z M53.6,71.9c0-1-0.4-1.5-1.3-1.5c-0.3,0-0.4,0.2-0.4,0.5
			c0,0.5,0.5,1.1,1.6,1.8C53.5,72.4,53.6,72.2,53.6,71.9z"/>
		<path class="st3" d="M60.1,109.2h-3.7c-1.5,0-2.7-1.9-3.4-5.8c-1.5,1.6-2.8,2.4-4,2.4c-0.8,0-1.6-0.1-2.4-0.3
			c-1.2-0.3-1.8-0.8-1.8-1.3c0-0.3,0.4-1.3,1.2-3s2.7-3.4,5.8-4.9c-0.1-0.6-0.1-1.6-0.2-2.8l1.3-1.4l1.6,9.8
			c0.4,2.2,0.8,3.5,1.3,3.8c0.3,0.2,1.7,0.3,4.3,0.3C60.1,105.9,60.1,109.2,60.1,109.2z M54.3,88.1l-1.8,2.7l-2.9-1.8L48,91.3
			l-2.8-2l1.7-2.8l2.9,1.9l1.7-2.4L54.3,88.1z M52.8,101.7L52.3,98c-2.1,0.7-3.7,2-4.8,4c0.3,0.3,1.1,0.5,2.4,0.5
			S52,102.2,52.8,101.7z"/>
		<path class="st3" d="M77.1,86.7c0,2.7-0.8,4-2.5,4c-0.5,0-1-0.2-1.5-0.5c-0.1,0.5-0.4,1-0.9,1.4s-1,0.6-1.6,0.6
			c-1.3,0-2-0.9-2-2.7c0-0.4,0.2-1.2,0.6-2.3l0.5-0.1c0,1.8,0.3,2.6,0.9,2.6c1,0,1.7-1.3,2.2-3.9l0.5-0.1c0.3,1.6,0.8,2.4,1.3,2.4
			c1.1,0,1.6-1.2,1.6-3.5l0.5-0.3C77.1,85.2,77.1,85.8,77.1,86.7z"/>
		<path class="st3" d="M75.8,80.8c0,1.1-0.3,1.7-0.8,2.1l-7.3,4.1c0-1,0.5-1.8,1.6-2.4L75.8,80.8z"/>
		<path class="st3" d="M89.4,109.2h-4.3c-2.3,0-3.9-0.1-4.8-0.2c-2.1-0.4-3.2-1.3-3.2-2.6c0-0.9,0.2-1.8,0.6-2.7h-1.1
			c-2.3,0-4.6,0.5-6.9,1.4c-0.6,0.3-2.4,1.2-5.3,2.7c-1.8,1-3.3,1.4-4.3,1.4h-1.9V106c2.5,0,4.3-0.2,5.4-0.5
			c1.7-0.7,4.4-1.7,8.2-2.8c-1.3-0.5-2.6-1-3.9-1.5c-1.8-0.6-3.1-1-3.9-1c-0.5,0-0.8,0.2-0.9,0.6h-2.8c0.3-1.2,0.8-2.2,1.7-3
			s1.9-1.2,3.1-1.2c0.7,0,2,0.4,3.7,1.1c1.3,0.5,2.6,1.1,3.8,1.6c3,1.1,6.8,1.6,11.1,1.6l-0.7,2.7c-3.2,0.1-4.6,0.1-4.2,0.1
			c0.1,0.9,0.6,1.5,1.5,1.8s3.9,0.5,9,0.5L89.4,109.2L89.4,109.2z"/>
		<path class="st3" d="M108.1,80.2c0,2.7-0.8,4-2.5,4c-0.5,0-1-0.2-1.5-0.5c-0.1,0.5-0.4,1-0.9,1.4s-1,0.6-1.6,0.6
			c-1.3,0-2-0.9-2-2.7c0-0.4,0.2-1.2,0.6-2.3l0.5-0.1c0,1.8,0.3,2.6,0.9,2.6c1,0,1.7-1.3,2.2-3.9l0.5-0.1c0.3,1.6,0.8,2.4,1.3,2.4
			c1.1,0,1.6-1.2,1.6-3.5l0.5-0.3C107.9,78.6,108.1,79.3,108.1,80.2z"/>
		<path class="st3" d="M107.9,85.8c0,1.1-0.3,1.8-0.9,2.1l-7.2,4.1c0-1,0.5-1.8,1.6-2.4L107.9,85.8z"/>
		<path class="st3" d="M97.3,109.2c-1.9,0-3.2-1-3.7-3c-1.6,2-2.9,3-4.1,3h-1.9V106c2.1,0,3.6-0.2,4.3-0.6c0.7-0.4,1.2-0.8,1.3-1.2
			c0.1-0.3,0.2-1,0.2-2h0.4c0.2,1,0.7,1.9,1.3,2.8c0.4,0.6,1.5,0.9,3.1,1H98c0,0,0,0,0.1,0c0.1,0,0.1,0,0.1,0v3.2
			C98.2,109.2,97.3,109.2,97.3,109.2z"/>
		<path class="st3" d="M97.3,106h2.9c1.8-2.3,3.8-4.4,6-6.3c3-2.6,5.5-3.8,7.4-3.8c1.1,0,2,0.4,2.7,1.2c0.7,0.8,1.2,1.8,1.2,2.9
			c0,1.6-0.6,2.9-1.7,3.9c-0.8,0.7-2.1,1.4-3.9,2c4.1,0,7.4,0,10.1,0v3.2H99.6c-0.3,0.5-0.8,1.4-1.7,2.6l-0.4-0.4
			c0.4-0.9,0.7-1.6,1.1-2.3h-1.3L97.3,106L97.3,106z M115.4,101.8c0-1.2-1.1-1.9-3.3-1.9s-4.2,0.6-6,1.7c-1.1,0.7-2.6,2.2-4.6,4.3
			c4.7,0,8.8-1,12.4-2.9C114.9,102.6,115.4,102.2,115.4,101.8z"/>
		<path class="st3" d="M124.4,84.3c-0.3-0.3-0.7-0.8-1.1-1.5c0.4-1.2,1.2-2.2,2.1-3.1c0.1,0.9,0.5,1.7,1.2,2.4
			c0.7,0.6,1.4,1,2.4,1.2l-1.7,3.1l-0.9-0.5c-0.2,1.6-0.2,2.6-0.2,2.8c0,1.3,0.3,3.2,0.8,5.7s0.8,4.4,0.8,5.6c0,6.1-1.9,9.2-5.6,9.2
			h-1.9v-3.3c1.8,0,3.1-0.1,3.9-0.3c1.6-0.5,2.4-1.4,2.4-2.7c0-0.5-0.2-2.2-0.7-5c-0.3-1.9-0.6-3.8-0.9-5.6
			c-0.4-2.3-0.6-4.2-0.6-5.6c0-0.2,0-0.5,0.1-1c0.1-0.5,0.1-0.8,0-1.1v-0.3C124.5,84.3,124.4,84.3,124.4,84.3z"/>
		<path class="st3" d="M135.3,102.6c0,1.6-0.4,3.8-1.3,6.6l-0.6-0.1c0.2-1,0.2-1.9,0.2-2.9c0-2-0.2-4.4-0.6-7.5
			c-0.3-2.5-0.6-4.9-1-7.3c-0.2-1.5-0.3-2.4-0.3-2.6c0-1.4,0.1-2.4,0.4-3.1c0.4-0.9,0.9-1.7,1.4-2.6c0,2.5,0.5,7.7,1.4,15.5
			C135.1,100,135.3,101.3,135.3,102.6z"/>
	</g>
	<g>
		<path class="st2" d="M75.4,86.7c0,2.7-0.8,4-2.5,4c-0.5,0-1-0.2-1.5-0.5c-0.1,0.5-0.4,1-0.9,1.4s-1,0.6-1.6,0.6
			c-1.3,0-2-0.9-2-2.7c0-0.4,0.2-1.2,0.6-2.3l0.5-0.1c0,1.8,0.3,2.6,0.9,2.6c1,0,1.7-1.3,2.2-3.9l0.5-0.1c0.3,1.6,0.8,2.4,1.3,2.4
			c1.1,0,1.6-1.2,1.6-3.5l0.5-0.3C75.3,85.2,75.4,85.8,75.4,86.7z"/>
		<path class="st2" d="M71.1,80.8l-0.2,2.4c-0.3-0.2-1-0.6-1.9-1.2c-2,2.3-3.6,3.4-4.8,3.4c-0.3,0-0.7-0.1-1.4-0.3
			c1.6-0.8,3.3-2.1,5.1-3.7c-1-0.7-1.5-1.4-1.5-2.2c0-0.8,0.3-1.7,0.9-2.6c0.6-0.9,1.2-1.4,2-1.4c1.1,0,1.6,0.7,1.6,2.1
			c0,0.8-0.3,1.7-0.8,2.8C70.4,80.3,70.8,80.5,71.1,80.8z M69.9,78.8c0-1-0.4-1.5-1.3-1.5c-0.3,0-0.4,0.2-0.4,0.5
			c0,0.5,0.5,1.1,1.6,1.8C69.9,79.3,69.9,78.9,69.9,78.8z"/>
		<path class="st2" d="M92.1,105.8h-3.7c-1,0-1.7-0.2-2.1-0.5c-0.4-0.4-0.7-1-1-2.1c-3.5,3.1-9.3,4.6-17.5,4.6
			c-9,0-13.4-2.4-13.4-7.3c0-1.3,0.6-3.4,1.9-6.3l0.6,0.3c-0.6,2-0.9,3.2-0.9,3.6c0,4.1,4.4,6.1,13.1,6.1c6.8,0,12-1,15.6-2.9
			c0.2-0.5,0.4-0.9,0.4-1.4c0.6,1.8,2.1,2.7,4.5,2.7c0.3,0,0.7,0,1.2,0s1,0,1.2,0L92.1,105.8L92.1,105.8z M73.8,113.8l-1.9,2.8
			l-2.6-1.9l1.8-2.7L73.8,113.8z"/>
		<path class="st2" d="M109.3,107.2c0,1.1-0.3,1.8-0.9,2.1l-7.2,4.1c0-1,0.5-1.8,1.6-2.4L109.3,107.2z"/>
		<path class="st2" d="M115.3,97.8l-1,2.9h-1.1c-0.6,0-1.5,0-2.7-0.1c-1.1-0.2-2-0.2-2.6-0.2c-2,0-4,0.5-6.2,1.4
			c-1.6,0.9-3.3,1.8-4.9,2.7c-1.8,0.9-3.3,1.4-4.5,1.4h-1.9v-3.2c2,0,3.7-0.1,4.9-0.4c1-0.2,2.5-0.8,4.6-1.6
			c1.3-0.5,2.4-0.9,3.4-1.1c-0.6-0.1-1.9-0.6-3.7-1.4c-1.5-0.7-2.8-1-3.8-1c-0.3,0-0.5,0.2-0.7,0.7h-2.8c1-2.9,2.6-4.3,4.9-4.3
			c1.2,0,3.1,0.7,5.9,2.2S109.9,97.8,115.3,97.8z"/>
		<path class="st2" d="M121.8,68.9l-0.1,2.4c-0.3-0.2-1-0.6-1.9-1.2c-2,2.3-3.6,3.4-4.8,3.4c-0.3,0-0.7-0.1-1.4-0.3
			c1.6-0.8,3.3-2.1,5.1-3.7c-1-0.7-1.5-1.4-1.5-2.2c0-0.8,0.3-1.7,0.9-2.6c0.6-0.9,1.2-1.4,2-1.4c1.1,0,1.6,0.7,1.6,2.1
			c0,0.8-0.3,1.7-0.8,2.8C121.1,68.3,121.4,68.7,121.8,68.9z M120.6,66.8c0-1-0.4-1.5-1.3-1.5c-0.2,0-0.4,0.2-0.4,0.5
			c0,0.5,0.5,1.1,1.6,1.8C120.6,67.3,120.6,67.1,120.6,66.8z"/>
		<path class="st2" d="M125.6,76.2c-0.2,0.9-0.5,1.4-0.8,1.5l-6.5,1.9c0.1-0.6,0.4-1.1,0.8-1.4c0.2-0.1,0.8-0.4,1.6-0.7
			c-1-0.4-1.5-1.1-1.6-1.9c0-0.3,0.1-0.6,0.4-1c0.6-0.8,1.2-1.5,2-2c0.7-0.5,1.4-0.8,1.9-0.8c0.8,0,1.2,0.4,1.2,1.3
			c0,0.5-0.2,1-0.7,1.6c-0.8-0.5-1.4-0.8-1.9-0.8c-0.4,0-1,0.3-1.6,0.8c1.3,1.2,2.4,1.8,3.4,1.8C124.3,76.4,124.9,76.3,125.6,76.2z"
			/>
		<path class="st2" d="M123.6,99.3c0,1.6-0.4,3.8-1.3,6.6l-0.6-0.1c0.2-1,0.2-1.9,0.2-2.9c0-2-0.2-4.4-0.6-7.5
			c-0.3-2.5-0.6-4.9-1-7.3c-0.2-1.5-0.3-2.4-0.3-2.6c0-1.4,0.1-2.4,0.4-3.1c0.4-0.9,0.9-1.7,1.4-2.6c0,2.5,0.5,7.7,1.4,15.5
			C123.4,96.7,123.6,98.1,123.6,99.3z"/>
	</g>
	<g class="st0">
		<path class="st3" d="M51.4,72.3l-0.2,2.4c-0.3-0.2-1-0.6-1.9-1.2c-2,2.3-3.6,3.4-4.8,3.4c-0.3,0-0.7-0.1-1.4-0.3
			c1.6-0.8,3.3-2.1,5.1-3.7c-1-0.7-1.5-1.4-1.5-2.2c0-0.8,0.3-1.7,0.9-2.6c0.6-0.9,1.2-1.4,2-1.4c1.1,0,1.6,0.7,1.6,2.1
			c0,0.8-0.3,1.7-0.8,2.8C50.8,71.8,51,71.9,51.4,72.3z M50.3,70.2c0-1-0.4-1.5-1.3-1.5c-0.3,0-0.4,0.2-0.4,0.5
			c0,0.5,0.5,1.1,1.6,1.8C50.2,70.7,50.3,70.4,50.3,70.2z"/>
		<path class="st3" d="M59.8,105.8H56c-2.1,0-3.6-2-4.6-5.9c-0.9,2-2.1,3.4-3.5,4.2c-1.3,0.7-3.1,1.1-5.3,1.1c-2.7,0-4-0.8-4-2.4
			c0-0.4,0.4-1.6,1.1-3.5h0.6v0.3c0,0.9,0.3,1.6,1,1.9c0.5,0.2,1.2,0.3,2.3,0.3c2.3,0,3.9-0.2,4.9-0.6c1.7-0.6,2.5-1.9,2.5-3.8
			c0-1.2-0.3-2.9-0.8-5.2c-0.6-2.2-0.9-3.8-0.9-5l1.6-2.2l2,12c0.6,3.7,1.9,5.6,3.7,5.6h3L59.8,105.8L59.8,105.8z"/>
		<path class="st3" d="M66.6,109.8l-1.8,2.8l-2.8-1.8l-1.6,2.4l-2.8-1.7l1.6-2.9l3,1.8l1.4-2.4L66.6,109.8z M64.9,98.7
			c0,4.8-1.7,7.2-5.2,7.2h-1.9v-3.2c3.9,0,5.9-0.7,5.9-2c0-0.3-0.3-1-0.9-2.1c-0.6-1.1-0.9-1.7-0.9-2c0-0.1,0.6-1.2,1.8-3.1
			C64.6,95.2,64.9,97,64.9,98.7z"/>
		<path class="st3" d="M89.9,105.8h-3.7c-2.1,0-3.6-2-4.6-5.9c-0.9,2-2.1,3.4-3.5,4.2c-1.3,0.7-3.1,1.1-5.3,1.1c-2.7,0-4-0.8-4-2.4
			c0-0.4,0.4-1.6,1.1-3.5h0.6v0.3c0,0.9,0.3,1.6,1,1.9c0.5,0.2,1.2,0.3,2.3,0.3c2.3,0,3.9-0.2,4.9-0.6c1.7-0.6,2.5-1.9,2.5-3.8
			c0-1.2-0.3-2.9-0.8-5.2c-0.5-2.3-0.8-3.9-0.8-5.1l1.6-2.2l2,12c0.6,3.7,1.9,5.6,3.7,5.6h3V105.8z"/>
		<path class="st3" d="M106.9,76.8c0,1.1-0.3,1.7-0.8,2.1l-7.3,4.1c0-1,0.5-1.8,1.6-2.4L106.9,76.8z"/>
		<path class="st3" d="M119.3,105.8h-4.3c-2.3,0-3.9-0.1-4.8-0.2c-2.1-0.4-3.2-1.3-3.2-2.6c0-0.9,0.2-1.8,0.6-2.7h-1.1
			c-2.3,0-4.6,0.5-6.9,1.4c-0.6,0.3-2.4,1.2-5.3,2.7c-1.8,1-3.3,1.4-4.3,1.4h-1.9v-3.2c2.5,0,4.3-0.2,5.4-0.5
			c1.7-0.7,4.4-1.7,8.2-2.8c-1.3-0.5-2.6-1-3.9-1.5c-1.8-0.6-3.1-1-3.9-1c-0.5,0-0.8,0.2-0.9,0.6h-2.8c0.3-1.2,0.8-2.2,1.7-3
			s1.9-1.2,3.1-1.2c0.7,0,2,0.4,3.7,1.1c1.3,0.5,2.6,1.1,3.8,1.6c3,1.1,6.8,1.6,11.1,1.6l-0.7,2.7c-3.2,0.1-4.6,0.1-4.2,0.1
			c0.1,0.9,0.6,1.5,1.5,1.8c0.9,0.3,3.9,0.5,9,0.5v3.2H119.3z M104.9,108.3l-1.6,2.9l-2.7-1.7l1.6-3L104.9,108.3z"/>
		<path class="st3" d="M117.4,102.6h10.7v3.2h-10.7V102.6z"/>
		<path class="st3" d="M130.6,81c-0.3-0.3-0.7-0.8-1.1-1.5c0.4-1.2,1.2-2.2,2.1-3.1c0.1,0.9,0.5,1.7,1.2,2.4c0.7,0.6,1.4,1,2.4,1.2
			l-1.8,3l-0.9-0.5c-0.2,1.6-0.2,2.6-0.2,2.8c0,1.3,0.3,3.2,0.8,5.7s0.8,4.4,0.8,5.6c0,6.1-1.9,9.2-5.6,9.2h-1.9v-3.2
			c1.8,0,3.1-0.1,3.9-0.3c1.6-0.5,2.4-1.4,2.4-2.7c0-0.5-0.2-2.2-0.7-5c-0.3-1.9-0.6-3.8-0.9-5.6c-0.4-2.3-0.6-4.2-0.6-5.6
			c0-0.2,0-0.5,0.1-1c0.1-0.5,0.1-0.8,0-1.1V81L130.6,81z"/>
		<path class="st3" d="M141.4,99.2c0,1.6-0.4,3.8-1.3,6.6l-0.6-0.1c0.2-1,0.2-1.9,0.2-2.9c0-2-0.2-4.4-0.6-7.5
			c-0.3-2.5-0.6-4.9-1-7.3c-0.2-1.5-0.3-2.4-0.3-2.6c0-1.4,0.1-2.4,0.4-3.1c0.4-0.9,0.9-1.7,1.4-2.6c0,2.5,0.5,7.7,1.4,15.5
			C141.4,96.6,141.4,98,141.4,99.2z"/>
	</g>
</g>
<g class="st0">
	<g>
		<path class="st3" d="M59.8,71.8l-0.2,2.4c-0.3-0.2-1-0.6-1.9-1.2c-2,2.3-3.6,3.4-4.8,3.4c-0.3,0-0.7-0.1-1.4-0.3
			c1.6-0.8,3.3-2.1,5.1-3.7c-1-0.7-1.5-1.4-1.5-2.2c0-0.8,0.3-1.7,0.9-2.6c0.6-0.9,1.2-1.4,2-1.4c1.1,0,1.6,0.7,1.6,2.1
			c0,0.8-0.3,1.7-0.8,2.8C59,71.2,59.5,71.3,59.8,71.8z M58.6,69.7c0-1-0.4-1.5-1.3-1.5c-0.3,0-0.4,0.2-0.4,0.5
			c0,0.5,0.5,1.1,1.6,1.8C58.5,70.2,58.6,69.8,58.6,69.7z"/>
		<path class="st3" d="M62.3,92.6c0,0.7-0.2,1.7-0.7,2.8c-0.4,0-0.9,0-1.5-0.1c-0.7-0.1-1.2-0.1-1.5-0.1c-1.8,0-3.4,0.3-4.9,0.9
			c-2,0.8-3,1.9-3,3.4s0.3,3.5,0.9,6c0.5,2,1,4.1,1.5,6.1c0.2,0.7,0.4,1.4,0.6,2.2c0.3,0.9,0.4,1.7,0.4,2.2s-0.3,1.2-0.9,2
			c-0.2-1.2-0.9-4.1-2.1-8.8c-1-4-1.5-6.7-1.5-8.2c0-1.3,0.2-2.8,0.6-4.4c0.5-1.8,1.3-3.1,2.5-3.8c0.5-0.3,2-0.7,4.5-1.3
			c-0.2-0.2-0.5-0.4-1-0.7c-0.5-0.3-0.9-0.4-1.2-0.4c-0.9,0-1.7,0.4-2.4,1.2l-0.8-0.1c0.6-1.7,1.1-2.8,1.5-3.4
			c0.8-1.1,1.8-1.7,3.1-1.7c1.2,0,2.6,0.7,4,2.2C61.6,90,62.3,91.3,62.3,92.6z"/>
		<path class="st3" d="M76.8,99.8h-3.7c-3,0-4.6-1.7-5-5c-0.5-4.3-1.1-10.6-1.8-18.9c0.7-0.9,1.3-1.6,1.8-2.3l1.7,19.3
			c0.1,1.5,0.6,2.5,1.3,3.1c0.5,0.4,1.5,0.6,2.7,0.6c0.3,0,0.8,0,1.4,0c0.7,0,1.2,0,1.5,0L76.8,99.8L76.8,99.8z"/>
		<path class="st3" d="M78.6,74.9c-0.3-0.3-0.6-0.8-1.1-1.4c0.5-1.3,1.2-2.3,2.2-3.1c0.1,0.9,0.5,1.7,1.2,2.3c0.7,0.7,1.4,1,2.3,1.1
			l-1.7,3.1l-0.8-0.4h-0.2c0.8,4.5,1.2,8.2,1.2,11.1c0,1.8-0.2,3.9-0.6,6.5c4.6-5.1,8.4-7.6,11.6-7.6c1.1,0,2,0.4,2.7,1.3s1,1.9,1,3
			c0,2.6-1.9,4.6-5.6,5.9h10.1v3.2H74.9v-3.3h2.8c0.4,0,0.8,0,1.2-0.1c1-1.5,1.5-4,1.5-7.6c0-2.3-0.5-6-1.5-11
			C78.9,77.3,78.8,76.3,78.6,74.9z M94.4,92.3c0-0.5-0.5-1-1.5-1.4c-0.8-0.4-1.6-0.5-2.2-0.5c-2,0-3.9,0.6-5.8,1.9
			c-1.7,1.1-3.1,2.6-4.3,4.4h1c2.5,0,5.3-0.5,8.2-1.6C92.9,94,94.4,93.1,94.4,92.3z M90.9,78.8l-1.7,3.2l-2.9-2l1.8-3.1L90.9,78.8z"
			/>
		<path class="st3" d="M108.4,68.8c0,2.7-0.8,4-2.5,4c-0.5,0-1-0.2-1.5-0.5c-0.1,0.5-0.4,1-0.9,1.4s-1,0.6-1.6,0.6
			c-1.3,0-2-0.9-2-2.7c0-0.4,0.2-1.2,0.6-2.3l0.5-0.1c0,1.8,0.3,2.6,0.9,2.6c1,0,1.7-1.3,2.2-3.9l0.5-0.1c0.3,1.6,0.8,2.4,1.3,2.4
			c1.1,0,1.6-1.2,1.6-3.5l0.5-0.3C108.4,67.2,108.4,67.9,108.4,68.8z"/>
		<path class="st3" d="M108.3,73.3c0,1.1-0.3,1.8-0.9,2.1l-7.2,4.1c0-1,0.5-1.8,1.6-2.4L108.3,73.3z"/>
		<path class="st3" d="M111.1,99.8h-3.7c-0.5,0-1-0.4-1.5-1.1s-0.7-1.4-0.7-1.9c-1.1,2-2.5,3-4.1,3h-1.9v-3.2c2.1,0,3.5-0.2,4-0.5
			c0.7-0.4,1.2-0.8,1.3-1.3c0.1-0.3,0.2-0.9,0.2-2h0.4c0.4,1.7,1.1,2.7,2.1,3.2c0.7,0.3,2,0.5,3.9,0.5
			C111.1,96.6,111.1,99.8,111.1,99.8z M106.9,85.6l-1.7,2.7l-2.6-1.8l1.6-2.8L106.9,85.6z"/>
		<path class="st3" d="M113.4,75.1c-0.3-0.3-0.7-0.8-1.1-1.5c0.4-1.2,1.2-2.2,2.1-3.1c0.1,0.9,0.5,1.7,1.2,2.4
			c0.7,0.6,1.4,1,2.4,1.2l-1.8,3l-0.9-0.5c-0.2,1.6-0.2,2.6-0.2,2.8c0,1.3,0.3,3.2,0.8,5.7s0.8,4.4,0.8,5.6c0,6.1-1.9,9.2-5.6,9.2
			h-1.9v-3.2c1.8,0,3.1-0.1,3.9-0.3c1.6-0.5,2.4-1.4,2.4-2.7c0-0.5-0.2-2.2-0.7-5c-0.3-1.9-0.6-3.8-0.9-5.6
			c-0.4-2.3-0.6-4.2-0.6-5.6c0-0.2,0-0.5,0.1-1c0.1-0.5,0.1-0.8,0-1.1C113.4,75.3,113.4,75.1,113.4,75.1z"/>
		<path class="st3" d="M124.4,93.3c0,1.6-0.4,3.8-1.3,6.6l-0.6-0.1c0.2-1,0.2-1.9,0.2-2.9c0-2-0.2-4.4-0.6-7.5
			c-0.3-2.5-0.6-4.9-1-7.3c-0.2-1.5-0.3-2.4-0.3-2.6c0-1.4,0.1-2.4,0.4-3.1c0.4-0.9,0.9-1.7,1.4-2.6c0,2.5,0.5,7.7,1.4,15.5
			C124.3,90.7,124.4,92.1,124.4,93.3z"/>
	</g>
	<g>
		<path class="st3" d="M51.8,76.1l-0.2,2.4c-0.3-0.2-1-0.6-1.9-1.2c-2,2.3-3.6,3.4-4.8,3.4c-0.3,0-0.7-0.1-1.4-0.3
			c1.6-0.8,3.3-2.1,5.1-3.7c-1-0.7-1.5-1.4-1.5-2.2c0-0.8,0.3-1.7,0.9-2.6c0.6-0.9,1.2-1.4,2-1.4c1.1,0,1.6,0.7,1.6,2.1
			c0,0.8-0.3,1.7-0.8,2.8C51,75.4,51.3,75.7,51.8,76.1z M50.6,73.9c0-1-0.4-1.5-1.3-1.5c-0.3,0-0.4,0.2-0.4,0.5
			c0,0.5,0.5,1.1,1.6,1.8C50.5,74.4,50.6,74.2,50.6,73.9z"/>
		<path class="st3" d="M57.1,111.2h-3.7c-1.5,0-2.7-1.9-3.4-5.8c-1.5,1.6-2.8,2.4-4,2.4c-0.8,0-1.6-0.1-2.4-0.3
			c-1.2-0.3-1.8-0.8-1.8-1.3c0-0.3,0.4-1.3,1.2-3s2.7-3.4,5.8-4.9c-0.1-0.6-0.1-1.6-0.2-2.8l1.3-1.4l1.6,9.8
			c0.4,2.2,0.8,3.5,1.3,3.8c0.3,0.2,1.7,0.3,4.3,0.3C57.1,107.9,57.1,111.2,57.1,111.2z M51.3,90.1l-1.8,2.7l-2.9-1.8L45,93.3
			l-2.8-2l1.7-2.8l2.9,1.9l1.7-2.4L51.3,90.1z M49.8,103.7l-0.6-3.7c-2.1,0.7-3.7,2-4.8,4c0.3,0.3,1.1,0.5,2.4,0.5
			S49,104.2,49.8,103.7z"/>
		<path class="st3" d="M74.1,88.7c0,2.7-0.8,4-2.5,4c-0.5,0-1-0.2-1.5-0.5c-0.1,0.5-0.4,1-0.9,1.4s-1,0.6-1.6,0.6
			c-1.3,0-2-0.9-2-2.7c0-0.4,0.2-1.2,0.6-2.3l0.5-0.1c0,1.8,0.3,2.6,0.9,2.6c1,0,1.7-1.3,2.2-3.9l0.5-0.1c0.3,1.6,0.8,2.4,1.3,2.4
			c1.1,0,1.6-1.2,1.6-3.5l0.5-0.3C74.1,87.2,74.1,87.8,74.1,88.7z"/>
		<path class="st3" d="M72.8,82.8c0,1.1-0.3,1.7-0.8,2.1l-7.3,4.1c0-1,0.5-1.8,1.6-2.4L72.8,82.8z"/>
		<path class="st3" d="M86.4,111.2h-4.3c-2.3,0-3.9-0.1-4.8-0.2c-2.1-0.4-3.2-1.3-3.2-2.6c0-0.9,0.2-1.8,0.6-2.7h-1.1
			c-2.3,0-4.6,0.5-6.9,1.4c-0.6,0.3-2.4,1.2-5.3,2.7c-1.8,1-3.3,1.4-4.3,1.4h-1.9V108c2.5,0,4.3-0.2,5.4-0.5
			c1.7-0.7,4.4-1.7,8.2-2.8c-1.3-0.5-2.6-1-3.9-1.5c-1.8-0.6-3.1-1-3.9-1c-0.5,0-0.8,0.2-0.9,0.6h-2.8c0.3-1.2,0.8-2.2,1.7-3
			s1.9-1.2,3.1-1.2c0.7,0,2,0.4,3.7,1.1c1.3,0.5,2.6,1.1,3.8,1.6c3,1.1,6.8,1.6,11.1,1.6l-0.7,2.7c-3.2,0.1-4.6,0.1-4.2,0.1
			c0.1,0.9,0.6,1.5,1.5,1.8s3.9,0.5,9,0.5L86.4,111.2L86.4,111.2z"/>
		<path class="st3" d="M105.1,82.2c0,2.7-0.8,4-2.5,4c-0.5,0-1-0.2-1.5-0.5c-0.1,0.5-0.4,1-0.9,1.4s-1,0.6-1.6,0.6
			c-1.3,0-2-0.9-2-2.7c0-0.4,0.2-1.2,0.6-2.3l0.5-0.1c0,1.8,0.3,2.6,0.9,2.6c1,0,1.7-1.3,2.2-3.9l0.5-0.1c0.3,1.6,0.8,2.4,1.3,2.4
			c1.1,0,1.6-1.2,1.6-3.5l0.5-0.3C104.9,80.6,105.1,81.3,105.1,82.2z"/>
		<path class="st3" d="M104.9,87.8c0,1.1-0.3,1.8-0.9,2.1l-7.2,4.1c0-1,0.5-1.8,1.6-2.4L104.9,87.8z"/>
		<path class="st3" d="M94.3,111.2c-1.9,0-3.2-1-3.7-3c-1.6,2-2.9,3-4.1,3h-1.9V108c2.1,0,3.6-0.2,4.3-0.6c0.7-0.4,1.2-0.8,1.3-1.2
			c0.1-0.3,0.2-1,0.2-2h0.4c0.2,1,0.7,1.9,1.3,2.8c0.4,0.6,1.5,0.9,3.1,1H95c0,0,0,0,0.1,0c0.1,0,0.1,0,0.1,0v3.2
			C95.2,111.2,94.3,111.2,94.3,111.2z"/>
		<path class="st3" d="M94.3,108h2.9c1.8-2.3,3.8-4.4,6-6.3c3-2.6,5.5-3.8,7.4-3.8c1.1,0,2,0.4,2.7,1.2c0.7,0.8,1.2,1.8,1.2,2.9
			c0,1.6-0.6,2.9-1.7,3.9c-0.8,0.7-2.1,1.4-3.9,2c4.1,0,7.4,0,10.1,0v3.2H96.6c-0.3,0.5-0.8,1.4-1.7,2.6l-0.4-0.4
			c0.4-0.9,0.7-1.6,1.1-2.3h-1.3L94.3,108L94.3,108z M112.4,103.8c0-1.2-1.1-1.9-3.3-1.9s-4.2,0.6-6,1.7c-1.1,0.7-2.6,2.2-4.6,4.3
			c4.7,0,8.8-1,12.4-2.9C111.9,104.6,112.4,104.2,112.4,103.8z"/>
		<path class="st3" d="M121.4,86.3c-0.3-0.3-0.7-0.8-1.1-1.5c0.4-1.2,1.2-2.2,2.1-3.1c0.1,0.9,0.5,1.7,1.2,2.4
			c0.7,0.6,1.4,1,2.4,1.2l-1.7,3.1l-0.9-0.5c-0.2,1.6-0.2,2.6-0.2,2.8c0,1.3,0.3,3.2,0.8,5.7s0.8,4.4,0.8,5.6c0,6.1-1.9,9.2-5.6,9.2
			h-1.9v-3.3c1.8,0,3.1-0.1,3.9-0.3c1.6-0.5,2.4-1.4,2.4-2.7c0-0.5-0.2-2.2-0.7-5c-0.3-1.9-0.6-3.8-0.9-5.6
			c-0.4-2.3-0.6-4.2-0.6-5.6c0-0.2,0-0.5,0.1-1c0.1-0.5,0.1-0.8,0-1.1v-0.3C121.5,86.3,121.4,86.3,121.4,86.3z"/>
		<path class="st3" d="M132.3,104.6c0,1.6-0.4,3.8-1.3,6.6l-0.6-0.1c0.2-1,0.2-1.9,0.2-2.9c0-2-0.2-4.4-0.6-7.5
			c-0.3-2.5-0.6-4.9-1-7.3c-0.2-1.5-0.3-2.4-0.3-2.6c0-1.4,0.1-2.4,0.4-3.1c0.4-0.9,0.9-1.7,1.4-2.6c0,2.5,0.5,7.7,1.4,15.5
			C132.1,102,132.3,103.3,132.3,104.6z"/>
	</g>
	<g>
		<path class="st3" d="M72.4,88.7c0,2.7-0.8,4-2.5,4c-0.5,0-1-0.2-1.5-0.5c-0.1,0.5-0.4,1-0.9,1.4s-1,0.6-1.6,0.6
			c-1.3,0-2-0.9-2-2.7c0-0.4,0.2-1.2,0.6-2.3l0.5-0.1c0,1.8,0.3,2.6,0.9,2.6c1,0,1.7-1.3,2.2-3.9l0.5-0.1c0.3,1.6,0.8,2.4,1.3,2.4
			c1.1,0,1.6-1.2,1.6-3.5l0.5-0.3C72.3,87.2,72.4,87.8,72.4,88.7z"/>
		<path class="st3" d="M68.1,82.8l-0.2,2.4c-0.3-0.2-1-0.6-1.9-1.2c-2,2.3-3.6,3.4-4.8,3.4c-0.3,0-0.7-0.1-1.4-0.3
			c1.6-0.8,3.3-2.1,5.1-3.7c-1-0.7-1.5-1.4-1.5-2.2c0-0.8,0.3-1.7,0.9-2.6c0.6-0.9,1.2-1.4,2-1.4c1.1,0,1.6,0.7,1.6,2.1
			c0,0.8-0.3,1.7-0.8,2.8C67.4,82.3,67.8,82.5,68.1,82.8z M66.9,80.8c0-1-0.4-1.5-1.3-1.5c-0.3,0-0.4,0.2-0.4,0.5
			c0,0.5,0.5,1.1,1.6,1.8C66.9,81.3,66.9,80.9,66.9,80.8z"/>
		<path class="st3" d="M89.1,107.8h-3.7c-1,0-1.7-0.2-2.1-0.5c-0.4-0.4-0.7-1-1-2.1c-3.5,3.1-9.3,4.6-17.5,4.6
			c-9,0-13.4-2.4-13.4-7.3c0-1.3,0.6-3.4,1.9-6.3l0.6,0.3c-0.6,2-0.9,3.2-0.9,3.6c0,4.1,4.4,6.1,13.1,6.1c6.8,0,12-1,15.6-2.9
			c0.2-0.5,0.4-0.9,0.4-1.4c0.6,1.8,2.1,2.7,4.5,2.7c0.3,0,0.7,0,1.2,0s1,0,1.2,0L89.1,107.8L89.1,107.8z M70.8,115.8l-1.9,2.8
			l-2.6-1.9l1.8-2.7L70.8,115.8z"/>
		<path class="st3" d="M106.3,109.2c0,1.1-0.3,1.8-0.9,2.1l-7.2,4.1c0-1,0.5-1.8,1.6-2.4L106.3,109.2z"/>
		<path class="st3" d="M112.3,99.8l-1,2.9h-1.1c-0.6,0-1.5,0-2.7-0.1c-1.1-0.2-2-0.2-2.6-0.2c-2,0-4,0.5-6.2,1.4
			c-1.6,0.9-3.3,1.8-4.9,2.7c-1.8,0.9-3.3,1.4-4.5,1.4h-1.9v-3.2c2,0,3.7-0.1,4.9-0.4c1-0.2,2.5-0.8,4.6-1.6
			c1.3-0.5,2.4-0.9,3.4-1.1c-0.6-0.1-1.9-0.6-3.7-1.4c-1.5-0.7-2.8-1-3.8-1c-0.3,0-0.5,0.2-0.7,0.7h-2.8c1-2.9,2.6-4.3,4.9-4.3
			c1.2,0,3.1,0.7,5.9,2.2S106.9,99.8,112.3,99.8z"/>
		<path class="st3" d="M118.8,70.9l-0.1,2.4c-0.3-0.2-1-0.6-1.9-1.2c-2,2.3-3.6,3.4-4.8,3.4c-0.3,0-0.7-0.1-1.4-0.3
			c1.6-0.8,3.3-2.1,5.1-3.7c-1-0.7-1.5-1.4-1.5-2.2c0-0.8,0.3-1.7,0.9-2.6c0.6-0.9,1.2-1.4,2-1.4c1.1,0,1.6,0.7,1.6,2.1
			c0,0.8-0.3,1.7-0.8,2.8C118.1,70.3,118.4,70.7,118.8,70.9z M117.6,68.8c0-1-0.4-1.5-1.3-1.5c-0.2,0-0.4,0.2-0.4,0.5
			c0,0.5,0.5,1.1,1.6,1.8C117.6,69.3,117.6,69.1,117.6,68.8z"/>
		<path class="st3" d="M122.6,78.2c-0.2,0.9-0.5,1.4-0.8,1.5l-6.5,1.9c0.1-0.6,0.4-1.1,0.8-1.4c0.2-0.1,0.8-0.4,1.6-0.7
			c-1-0.4-1.5-1.1-1.6-1.9c0-0.3,0.1-0.6,0.4-1c0.6-0.8,1.2-1.5,2-2c0.7-0.5,1.4-0.8,1.9-0.8c0.8,0,1.2,0.4,1.2,1.3
			c0,0.5-0.2,1-0.7,1.6c-0.8-0.5-1.4-0.8-1.9-0.8c-0.4,0-1,0.3-1.6,0.8c1.3,1.2,2.4,1.8,3.4,1.8C121.3,78.4,121.9,78.3,122.6,78.2z"
			/>
		<path class="st3" d="M120.6,101.3c0,1.6-0.4,3.8-1.3,6.6l-0.6-0.1c0.2-1,0.2-1.9,0.2-2.9c0-2-0.2-4.4-0.6-7.5
			c-0.3-2.5-0.6-4.9-1-7.3c-0.2-1.5-0.3-2.4-0.3-2.6c0-1.4,0.1-2.4,0.4-3.1c0.4-0.9,0.9-1.7,1.4-2.6c0,2.5,0.5,7.7,1.4,15.5
			C120.4,98.7,120.6,100.1,120.6,101.3z"/>
	</g>
	<g class="st1">
		<path class="st2" d="M48.4,74.3l-0.2,2.4c-0.3-0.2-1-0.6-1.9-1.2c-2,2.3-3.6,3.4-4.8,3.4c-0.3,0-0.7-0.1-1.4-0.3
			c1.6-0.8,3.3-2.1,5.1-3.7c-1-0.7-1.5-1.4-1.5-2.2c0-0.8,0.3-1.7,0.9-2.6c0.6-0.9,1.2-1.4,2-1.4c1.1,0,1.6,0.7,1.6,2.1
			c0,0.8-0.3,1.7-0.8,2.8C47.8,73.8,48,73.9,48.4,74.3z M47.3,72.2c0-1-0.4-1.5-1.3-1.5c-0.3,0-0.4,0.2-0.4,0.5
			c0,0.5,0.5,1.1,1.6,1.8C47.2,72.7,47.3,72.4,47.3,72.2z"/>
		<path class="st2" d="M56.8,107.8H53c-2.1,0-3.6-2-4.6-5.9c-0.9,2-2.1,3.4-3.5,4.2c-1.3,0.7-3.1,1.1-5.3,1.1c-2.7,0-4-0.8-4-2.4
			c0-0.4,0.4-1.6,1.1-3.5h0.6v0.3c0,0.9,0.3,1.6,1,1.9c0.5,0.2,1.2,0.3,2.3,0.3c2.3,0,3.9-0.2,4.9-0.6c1.7-0.6,2.5-1.9,2.5-3.8
			c0-1.2-0.3-2.9-0.8-5.2c-0.6-2.2-0.9-3.8-0.9-5l1.6-2.2l2,12c0.6,3.7,1.9,5.6,3.7,5.6h3L56.8,107.8L56.8,107.8z"/>
		<path class="st2" d="M63.5,111.8l-1.8,2.8l-2.8-1.8l-1.6,2.4l-2.8-1.7l1.6-2.9l3,1.8l1.4-2.4L63.5,111.8z M62,100.7
			c0,4.8-1.7,7.2-5.2,7.2h-1.9v-3.2c3.9,0,5.9-0.7,5.9-2c0-0.3-0.3-1-0.9-2.1c-0.6-1.1-0.9-1.7-0.9-2c0-0.1,0.6-1.2,1.8-3.1
			C61.5,97.2,62,99,62,100.7z"/>
		<path class="st2" d="M86.9,107.8h-3.7c-2.1,0-3.6-2-4.6-5.9c-0.9,2-2.1,3.4-3.5,4.2c-1.3,0.7-3.1,1.1-5.3,1.1c-2.7,0-4-0.8-4-2.4
			c0-0.4,0.4-1.6,1.1-3.5h0.6v0.3c0,0.9,0.3,1.6,1,1.9c0.5,0.2,1.2,0.3,2.3,0.3c2.3,0,3.9-0.2,4.9-0.6c1.7-0.6,2.5-1.9,2.5-3.8
			c0-1.2-0.3-2.9-0.8-5.2c-0.5-2.3-0.8-3.9-0.8-5.1l1.6-2.2l2,12c0.6,3.7,1.9,5.6,3.7,5.6h3V107.8z"/>
		<path class="st2" d="M103.9,78.8c0,1.1-0.3,1.7-0.8,2.1l-7.3,4.1c0-1,0.5-1.8,1.6-2.4L103.9,78.8z"/>
		<path class="st2" d="M116.3,107.8h-4.3c-2.3,0-3.9-0.1-4.8-0.2c-2.1-0.4-3.2-1.3-3.2-2.6c0-0.9,0.2-1.8,0.6-2.7h-1.1
			c-2.3,0-4.6,0.5-6.9,1.4c-0.6,0.3-2.4,1.2-5.3,2.7c-1.8,1-3.3,1.4-4.3,1.4h-1.9v-3.2c2.5,0,4.3-0.2,5.4-0.5
			c1.7-0.7,4.4-1.7,8.2-2.8c-1.3-0.5-2.6-1-3.9-1.5c-1.8-0.6-3.1-1-3.9-1c-0.5,0-0.8,0.2-0.9,0.6h-2.8c0.3-1.2,0.8-2.2,1.7-3
			s1.9-1.2,3.1-1.2c0.7,0,2,0.4,3.7,1.1c1.3,0.5,2.6,1.1,3.8,1.6c3,1.1,6.8,1.6,11.1,1.6l-0.7,2.7c-3.2,0.1-4.6,0.1-4.2,0.1
			c0.1,0.9,0.6,1.5,1.5,1.8c0.9,0.3,3.9,0.5,9,0.5v3.2H116.3z M101.9,110.3l-1.6,2.9l-2.7-1.7l1.6-3L101.9,110.3z"/>
		<path class="st2" d="M114.4,104.6h10.7v3.2h-10.7V104.6z"/>
		<path class="st2" d="M127.6,83c-0.3-0.3-0.7-0.8-1.1-1.5c0.4-1.2,1.2-2.2,2.1-3.1c0.1,0.9,0.5,1.7,1.2,2.4c0.7,0.6,1.4,1,2.4,1.2
			l-1.8,3l-0.9-0.5c-0.2,1.6-0.2,2.6-0.2,2.8c0,1.3,0.3,3.2,0.8,5.7s0.8,4.4,0.8,5.6c0,6.1-1.9,9.2-5.6,9.2h-1.9v-3.2
			c1.8,0,3.1-0.1,3.9-0.3c1.6-0.5,2.4-1.4,2.4-2.7c0-0.5-0.2-2.2-0.7-5c-0.3-1.9-0.6-3.8-0.9-5.6c-0.4-2.3-0.6-4.2-0.6-5.6
			c0-0.2,0-0.5,0.1-1c0.1-0.5,0.1-0.8,0-1.1V83L127.6,83z"/>
		<path class="st2" d="M138.4,101.2c0,1.6-0.4,3.8-1.3,6.6l-0.6-0.1c0.2-1,0.2-1.9,0.2-2.9c0-2-0.2-4.4-0.6-7.5
			c-0.3-2.5-0.6-4.9-1-7.3c-0.2-1.5-0.3-2.4-0.3-2.6c0-1.4,0.1-2.4,0.4-3.1c0.4-0.9,0.9-1.7,1.4-2.6c0,2.5,0.5,7.7,1.4,15.5
			C138.4,98.6,138.4,100,138.4,101.2z"/>
	</g>
</g>
</svg>
