<?xml version="1.0" encoding="utf-8"?>
<!-- Generator: Adobe Illustrator 21.0.0, SVG Export Plug-In . SVG Version: 6.00 Build 0)  -->
<svg version="1.1" id="Layer_1" xmlns="http://www.w3.org/2000/svg" xmlns:xlink="http://www.w3.org/1999/xlink" x="0px" y="0px"
	 viewBox="0 0 59 59" style="enable-background:new 0 0 59 59;" xml:space="preserve">
<style type="text/css">
	.st0{fill:#0199DE;}
</style>
<g>
	<path class="st0" d="M21.1,13.9l-0.2,2.4c-0.3-0.2-1-0.6-2-1.3c-2.1,2.4-3.7,3.6-5,3.6c-0.3,0-0.8-0.1-1.4-0.3
		c1.7-0.9,3.4-2.2,5.3-3.9c-1-0.7-1.5-1.5-1.5-2.3c0-0.8,0.3-1.7,0.9-2.7c0.6-1,1.3-1.5,2-1.5c1.1,0,1.7,0.7,1.7,2.2
		c0,0.8-0.3,1.8-0.8,3C20.3,13.3,20.6,13.6,21.1,13.9z M19.8,11.7c0-1-0.5-1.5-1.4-1.5c-0.3,0-0.5,0.2-0.5,0.5
		c0,0.5,0.6,1.1,1.6,1.9C19.8,12.2,19.8,12,19.8,11.7z"/>
	<path class="st0" d="M26.6,46.8h-3.9c-1.6,0-2.8-2-3.5-6c-1.6,1.7-2.9,2.5-4.1,2.5c-0.8,0-1.7-0.1-2.5-0.4
		c-1.3-0.3-1.9-0.8-1.9-1.4c0-0.3,0.4-1.3,1.3-3.1c0.8-1.8,2.9-3.5,6.1-5.1c-0.1-0.7-0.1-1.6-0.3-2.9l1.4-1.5l1.7,10.3
		c0.4,2.3,0.8,3.6,1.4,4c0.3,0.2,1.8,0.3,4.5,0.3V46.8z M20.5,24.8l-1.9,2.8l-3-1.9l-1.7,2.6L11,26.2l1.8-2.9l3,2l1.8-2.5L20.5,24.8
		z M19.1,39l-0.7-3.9c-2.2,0.7-3.8,2.1-5,4.2c0.3,0.3,1.2,0.5,2.5,0.5S18.2,39.5,19.1,39z"/>
	<path class="st0" d="M41.2,21.5c0,1.1-0.3,1.8-0.8,2.1l-7.6,4.3c0-1,0.5-1.9,1.6-2.5L41.2,21.5z"/>
	<path class="st0" d="M34.8,46.8c-2,0-3.3-1-3.9-3.2c-1.6,2.1-3.1,3.2-4.3,3.2h-2v-3.4c2.2,0,3.7-0.2,4.5-0.6s1.2-0.8,1.4-1.3
		c0.1-0.3,0.2-1,0.2-2l0.4,0c0.2,1,0.7,2,1.4,3c0.5,0.6,1.5,1,3.2,1l-0.2-0.1c0,0,0,0,0.1,0c0.1,0,0.1,0,0.1,0v3.4H34.8z"/>
	<path class="st0" d="M34.8,43.4c1.4,0,2.6-0.5,3.7-1.6c0.5-0.5,0.8-1.2,0.9-2.1c0-0.8,0.1-1.6,0.2-2.4H40c0.3,1.1,1,2,2.1,2.8
		c1.1,0.8,2.2,1.2,3.3,1.2c0.2,0,0.4-0.1,0.8-0.3c0.4-0.2,0.6-0.4,0.6-0.5c0-0.7-0.4-1.4-1.3-2.2l0.9-3c1,0.6,1.5,1.6,1.5,3.1
		c0,1.5-0.3,2.9-0.8,4.1c-0.7,1.6-1.8,2.4-3.1,2.4c-1.1,0-2.4-0.8-3.9-2.3c-0.5,1.1-1.3,2-2.2,2.8c-1.1,0.9-2.1,1.4-3.1,1.4V43.4z"
		/>
</g>
</svg>
