<?xml version="1.0" encoding="utf-8"?>
<!-- Generator: Adobe Illustrator 22.1.0, SVG Export Plug-In . SVG Version: 6.00 Build 0)  -->
<svg version="1.1" id="Layer_1" xmlns="http://www.w3.org/2000/svg" xmlns:xlink="http://www.w3.org/1999/xlink" x="0px" y="0px"
	 viewBox="0 0 1024 82.4" style="enable-background:new 0 0 1024 82.4;" xml:space="preserve">
<style type="text/css">
	.st0{fill:#FFFFFF;}
	.st1{fill:none;}
	.st2{opacity:0.8;fill:#FFFFFF;enable-background:new    ;}
	.st3{opacity:0.8;fill:#FFFAF8;enable-background:new    ;}
</style>
<g>
	<path class="st0" d="M722,32.5c0.5-0.4,0.9-0.2,0.9,0.4l0.1,4.3c0,0.6,0.5,1.5,1,1.8l3.6,2.4c0.5,0.4,0.5,0.8-0.1,1l-4.1,1.4
		c-0.6,0.2-1.2,0.9-1.4,1.5l-1.1,4.2c-0.2,0.6-0.6,0.7-1,0.2l-2.6-3.4c-0.4-0.5-1.2-0.9-1.9-0.9l-4.3,0.2c-0.6,0-0.9-0.4-0.5-0.9
		l2.5-3.5c0.4-0.5,0.5-1.5,0.3-2.1l-1.5-4c-0.2-0.6,0.1-0.9,0.7-0.8l4.1,1.2c0.6,0.2,1.5,0,2-0.4L722,32.5z"/>
	<g>
		<rect y="-0.1" class="st1" width="1024" height="82.5"/>
		<path class="st2" d="M124.7,22.5c0.5-0.4,0.9-0.2,0.9,0.4l0.1,4.3c0,0.6,0.5,1.5,1,1.8l3.6,2.4c0.5,0.4,0.5,0.8-0.1,1l-4.1,1.4
			c-0.6,0.2-1.2,0.9-1.4,1.5l-1.1,4.2c-0.2,0.6-0.6,0.7-1,0.2l-2.6-3.4c-0.4-0.5-1.2-0.9-1.9-0.9l-4.3,0.2c-0.6,0-0.9-0.4-0.5-0.9
			l2.5-3.5c0.4-0.5,0.5-1.5,0.3-2.1l-1.5-4c-0.2-0.6,0.1-0.9,0.7-0.8l4.1,1.2c0.6,0.2,1.5,0,2-0.4L124.7,22.5z"/>
		<path class="st3" d="M186.5,48.1c0,0,1.2-4,4.5-4.4c0,0-3-0.5-4.5-4.5c-1.5,4-4.5,4.5-4.5,4.5C185.3,44.1,186.5,48.1,186.5,48.1z"
			/>
		<path class="st3" d="M410.9,52.1c0,0,2-6.2,7-6.9c0,0-4.7-0.8-7-7c-2.3,6.2-7,7-7,7C409,45.8,410.9,52.1,410.9,52.1z"/>
		<circle class="st3" cx="164.1" cy="10.5" r="1.6"/>
		<circle class="st3" cx="90.6" cy="61.3" r="2.7"/>
		<circle class="st3" cx="249" cy="43.6" r="2.7"/>
		<path class="st2" d="M52,4.8c0.1-0.4,0.4-0.5,0.7-0.1l1.7,2.2c0.3,0.3,0.8,0.6,1.3,0.6l2.9-0.1c0.4,0,0.6,0.3,0.3,0.6l-1.7,2.4
			c-0.2,0.4-0.3,1-0.2,1.4l1,2.7c0.2,0.4-0.1,0.6-0.5,0.5l-2.8-0.8c-0.4-0.1-1,0-1.4,0.3L51,16.4c-0.3,0.3-0.6,0.1-0.6-0.3l-0.1-2.9
			c0-0.4-0.3-1-0.7-1.2l-2.4-1.6c-0.4-0.2-0.3-0.6,0.1-0.7l2.8-1c0.4-0.1,0.8-0.6,1-1L52,4.8z"/>
		<path class="st3" d="M550.2,57.1c0,0,2-6.2,7-6.9c0,0-4.7-0.8-7-7c-2.3,6.2-7,7-7,7C548.3,50.9,550.2,57.1,550.2,57.1z"/>
		<circle class="st3" cx="609.4" cy="14.7" r="2.7"/>
		<ellipse class="st3" cx="326.9" cy="5.6" rx="1.6" ry="1"/>
		<circle class="st3" cx="626.2" cy="18.4" r="1.6"/>
		<circle class="st3" cx="644.1" cy="2.6" r="1.6"/>
		<circle class="st3" cx="635.9" cy="79.8" r="2.7"/>
		<circle class="st3" cx="602.3" cy="78.2" r="1.6"/>
		<path class="st2" d="M993.6,51.8c0.5-0.4,0.9-0.2,0.9,0.4l0.1,4.3c0,0.6,0.5,1.5,1,1.8l3.6,2.4c0.5,0.4,0.5,0.8-0.1,1l-4.1,1.4
			c-0.6,0.2-1.2,0.9-1.4,1.5l-1.1,4.2c-0.2,0.6-0.6,0.7-1,0.2l-2.6-3.4c-0.4-0.5-1.2-0.9-1.9-0.9l-4.3,0.2c-0.6,0-0.9-0.4-0.5-0.9
			l2.5-3.5c0.4-0.5,0.5-1.5,0.3-2.1l-1.5-4c-0.2-0.6,0.1-0.9,0.7-0.8l4.1,1.2c0.6,0.2,1.5,0,2-0.4L993.6,51.8z"/>
		<path class="st2" d="M830.3,46.2c0.3-0.3,0.6-0.1,0.6,0.3l0.1,2.9c0,0.4,0.3,1,0.7,1.2l2.4,1.6c0.4,0.2,0.3,0.6-0.1,0.7l-2.8,1
			c-0.4,0.1-0.8,0.6-1,1l-0.8,2.8c-0.1,0.4-0.4,0.5-0.7,0.1l-1.8-2.3c-0.3-0.3-0.8-0.6-1.3-0.6l-2.9,0.1c-0.4,0-0.6-0.3-0.3-0.6
			l1.7-2.4c0.2-0.4,0.3-1,0.2-1.4l-1-2.7c-0.2-0.4,0.1-0.6,0.5-0.5l2.8,0.8c0.4,0.1,1,0,1.4-0.3L830.3,46.2z"/>
		<circle class="st3" cx="698.4" cy="20" r="2.7"/>
		<circle class="st3" cx="719.2" cy="7.3" r="1.6"/>
		<circle class="st3" cx="745.5" cy="1.5" r="1.6"/>
		<path class="st3" d="M999.7,25.4c0,0,2-6.2,7-6.9c0,0-4.7-0.8-7-7c-2.3,6.2-7,7-7,7C997.7,19.1,999.7,25.4,999.7,25.4z"/>
		<path class="st3" d="M209.5,80.1c0,0,1.2-4,4.5-4.4c0,0-3-0.5-4.5-4.5c-1.5,4-4.5,4.5-4.5,4.5C208.2,76.1,209.5,80.1,209.5,80.1z"
			/>
		<circle class="st3" cx="727.3" cy="59.7" r="1.6"/>
		<circle class="st3" cx="777.5" cy="41.9" r="1.6"/>
		<circle class="st3" cx="874.6" cy="57.5" r="1.6"/>
		<circle class="st3" cx="815.1" cy="14.7" r="1.6"/>
		<circle class="st3" cx="859.2" cy="10" r="2.7"/>
		<circle class="st3" cx="967.6" cy="25.7" r="2.7"/>
		<path class="st3" d="M913.8,44.7c0,0,1.2-4,4.5-4.4c0,0-3-0.5-4.5-4.5c-1.5,4-4.5,4.5-4.5,4.5C912.5,40.7,913.8,44.7,913.8,44.7z"
			/>
		<path class="st3" d="M24.3,64c0,0,2-6.2,7-6.9c0,0-4.7-0.8-7-7c-2.3,6.2-7,7-7,7C22.4,57.8,24.3,64,24.3,64z"/>
		<circle class="st3" cx="393.8" cy="5.5" r="2.7"/>
		<circle class="st3" cx="350.6" cy="78.1" r="2.7"/>
		<path class="st3" d="M495,11.1c0,0,1.2-4,4.5-4.4c0,0-3-0.5-4.5-4.5c-1.5,4-4.5,4.5-4.5,4.5C493.8,7.1,495,11.1,495,11.1z"/>
		<path class="st3" d="M445.8,81.3c0,0,1.1-3.5,4-3.9c0,0-2.7-0.5-4-4c-1.3,3.5-4,4-4,4C444.7,77.7,445.8,81.3,445.8,81.3z"/>
		<path class="st3" d="M789.8,75.2c0,0,1.2-4,4.5-4.4c0,0-3-0.5-4.5-4.5c-1.5,4-4.5,4.5-4.5,4.5C788.6,71.1,789.8,75.2,789.8,75.2z"
			/>
		<circle class="st3" cx="588.9" cy="6" r="2.7"/>
		<path class="st3" d="M755.1,65.1c0,0,2-6.2,7-6.9c0,0-4.7-0.8-7-7c-2.3,6.2-7,7-7,7C753.1,58.8,755.1,65.1,755.1,65.1z"/>
		<path class="st3" d="M246.2,15c0,0,1.2-4,4.5-4.4c0,0-3-0.5-4.5-4.5c-1.5,4-4.5,4.5-4.5,4.5C245,11,246.2,15,246.2,15z"/>
		<path class="st2" d="M306.5,35.3c0.3-0.3,0.6-0.1,0.6,0.3l0.1,2.9c0,0.4,0.3,1,0.7,1.2l2.4,1.6c0.4,0.2,0.3,0.6-0.1,0.7l-2.8,1
			c-0.4,0.1-0.8,0.6-1,1l-0.8,2.8c-0.1,0.4-0.4,0.5-0.7,0.1l-1.8-2.3c-0.3-0.3-0.8-0.6-1.3-0.6l-2.9,0.1c-0.4,0-0.6-0.3-0.3-0.6
			l1.7-2.4c0.2-0.4,0.3-1,0.2-1.4l-1-2.7c-0.2-0.4,0.1-0.6,0.5-0.5l2.8,0.8c0.4,0.1,1,0,1.4-0.3L306.5,35.3z"/>
	</g>
</g>
</svg>
