<?xml version="1.0" encoding="utf-8"?>
<!-- Generator: Adobe Illustrator 21.0.0, SVG Export Plug-In . SVG Version: 6.00 Build 0)  -->
<svg version="1.1" id="Isolation_Mode" xmlns="http://www.w3.org/2000/svg" xmlns:xlink="http://www.w3.org/1999/xlink" x="0px"
	 y="0px" viewBox="0 0 61.9 66.7" style="enable-background:new 0 0 61.9 66.7;" xml:space="preserve">
<style type="text/css">
	.st0{fill:#919191;fill-opacity:0.15;}
	.st1{fill:#FFFFFF;stroke:#FFAF24;stroke-miterlimit:10;}
	.st2{fill:none;stroke:#A0DCEA;stroke-width:0.5;stroke-miterlimit:10;stroke-dasharray:5,5;}
	.st3{fill:#DAF0F8;}
</style>
<circle class="st0" cx="30.9" cy="36.3" r="30.4"/>
<circle class="st1" cx="30.9" cy="30.9" r="30.4"/>
<circle class="st2" cx="30.9" cy="30.9" r="25.4"/>
<g>
	<path class="st3" d="M37.8,22.2c0,1.2-0.3,2.2-0.9,3c-0.6,1-1.5,1.4-2.7,1.4c-1.6,0-2.4-0.9-2.5-2.6c0-0.9,0.4-1.6,1.3-2.3l1.2-0.7
		c0.5-0.3,0.7-0.8,0.7-1.4c0-0.8-0.3-1.5-1-2s-1.4-0.7-2.3-0.7c-1.1,0-2.1,0.4-2.9,1.2c-0.8,0.8-1.2,1.7-1.2,2.9
		c0,0.9,0.3,1.9,0.8,3l1.8,3.6c1.5,2.9,2.2,5.7,2.2,8.3c0,0.6,0,1-0.1,1.3c0,0-0.1,0.7-0.2,2h-0.8c0-0.2,0-0.6,0-1.1s0-0.9,0-1.2
		c0-0.7-0.1-1.3-0.2-1.9c-0.3-0.6-0.6-1.1-1-1.4L27,31c-2.3-2.1-3.5-4.6-3.5-7.3c0-2.1,0.7-4,2.2-5.5c1.5-1.6,3.3-2.3,5.4-2.3
		c1.8,0,3.4,0.6,4.7,1.8C37.1,18.9,37.8,20.4,37.8,22.2z M33.6,44c0,0.7-0.2,1.3-0.7,1.8s-1.1,0.7-1.9,0.7c-0.6,0-1.3-0.2-1.8-0.7
		c-0.4-0.5-0.6-1.1-0.7-1.8c0-0.7,0.2-1.3,0.7-1.8s1.1-0.8,1.8-0.8c0.7,0,1.3,0.2,1.8,0.7C33.4,42.7,33.6,43.3,33.6,44z"/>
</g>
</svg>
