<?xml version="1.0" encoding="utf-8"?>
<!-- Generator: Adobe Illustrator 22.1.0, SVG Export Plug-In . SVG Version: 6.00 Build 0)  -->
<svg version="1.1" id="Layer_1" xmlns="http://www.w3.org/2000/svg" xmlns:xlink="http://www.w3.org/1999/xlink" x="0px" y="0px"
	 viewBox="0 0 51.7 58.8" style="enable-background:new 0 0 51.7 58.8;" xml:space="preserve">
<style type="text/css">
	.st0{opacity:0.1;}
	.st1{fill:#484848;}
	.st2{fill:#FDB515;}
	.st3{opacity:5.000000e-02;}
	.st4{clip-path:url(#SVGID_2_);fill:#010101;}
	.st5{opacity:0.2;}
	.st6{clip-path:url(#SVGID_4_);fill:#838383;}
	.st7{clip-path:url(#SVGID_6_);fill:none;stroke:#B7B7B8;stroke-width:1.9636;stroke-miterlimit:10;}
	.st8{clip-path:url(#SVGID_8_);fill:#838383;}
	.st9{fill:#FFFFFF;}
	.st10{fill:#EBEBEB;}
	.st11{fill:#F99B21;}
</style>
<g>
	<g class="st0">
		<path class="st1" d="M16.6,42.3H8.1c-4.5,0-8.1-3.6-8.1-8.1v-8.5c0-4.5,3.6-8.1,8.1-8.1h8.5c4.5,0,8.1,3.6,8.1,8.1v8.5
			C24.7,38.7,21.1,42.3,16.6,42.3z"/>
	</g>
	<g>
		<path class="st2" d="M26,34.7h-8.5c-4.5,0-8.1-3.6-8.1-8.1v-8.5c0-4.5,3.6-8.1,8.1-8.1H26c4.5,0,8.1,3.6,8.1,8.1v8.5
			C34.1,31.1,30.5,34.7,26,34.7z"/>
	</g>
	<g>
		<rect x="12.9" y="46" transform="matrix(0.7072 -0.707 0.707 0.7072 -27.4946 27.285)" class="st2" width="12.6" height="1.6"/>
	</g>
	<g>
		
			<rect x="19.2" y="47.3" transform="matrix(0.7071 -0.7071 0.7071 0.7071 -27.1157 30.8139)" class="st2" width="8.9" height="1.6"/>
	</g>
	<g class="st3">
		<g>
			<g>
				<defs>
					<rect id="SVGID_1_" x="10.8" y="16" width="23.2" height="18.3"/>
				</defs>
				<clipPath id="SVGID_2_">
					<use xlink:href="#SVGID_1_"  style="overflow:visible;"/>
				</clipPath>
				<path class="st4" d="M10.8,28.7v5.7h16.9c3.5,0,6.3-2.8,6.3-6.3V16C28,22.1,19.4,26.1,10.8,28.7"/>
			</g>
		</g>
	</g>
	<g>
		<g class="st5">
			<g>
				<g>
					<defs>
						
							<rect id="SVGID_3_" x="28.1" y="29.4" transform="matrix(0.9999 -1.354880e-02 1.354880e-02 0.9999 -0.5934 0.506)" width="17.9" height="29.3"/>
					</defs>
					<clipPath id="SVGID_4_">
						<use xlink:href="#SVGID_3_"  style="overflow:visible;"/>
					</clipPath>
					<path class="st6" d="M28.6,52.1V30.3l17,13.6c0.4,0.3,0.2,1-0.3,1l-6.5,0.8c-0.4,0.1-0.6,0.5-0.5,0.8l4.8,9.7
						c0.1,0.3,0,0.6-0.3,0.8l-2.5,1.2c-0.3,0.1-0.6,0-0.8-0.3l-4.8-9.7c-0.2-0.4-0.7-0.4-1-0.1l-4.2,4.4
						C29.2,52.8,28.6,52.6,28.6,52.1"/>
				</g>
				<g>
					<defs>
						
							<rect id="SVGID_5_" x="28.1" y="29.4" transform="matrix(0.9999 -1.354880e-02 1.354880e-02 0.9999 -0.5934 0.506)" width="17.9" height="29.3"/>
					</defs>
					<clipPath id="SVGID_6_">
						<use xlink:href="#SVGID_5_"  style="overflow:visible;"/>
					</clipPath>
					<path class="st7" d="M28.6,52.1V30.3l17,13.6c0.4,0.3,0.2,1-0.3,1l-6.5,0.8c-0.4,0.1-0.6,0.5-0.5,0.8l4.8,9.7
						c0.1,0.3,0,0.6-0.3,0.8l-2.5,1.2c-0.3,0.1-0.6,0-0.8-0.3l-4.8-9.7c-0.2-0.4-0.7-0.4-1-0.1l-4.2,4.4
						C29.2,52.8,28.6,52.6,28.6,52.1z"/>
				</g>
				<g>
					<defs>
						
							<rect id="SVGID_7_" x="28.1" y="29.4" transform="matrix(0.9999 -1.354880e-02 1.354880e-02 0.9999 -0.5934 0.506)" width="17.9" height="29.3"/>
					</defs>
					<clipPath id="SVGID_8_">
						<use xlink:href="#SVGID_7_"  style="overflow:visible;"/>
					</clipPath>
					<path class="st8" d="M45.3,43.8L28.4,30.3l12.9,27.4l1.3-0.7c0.3-0.1,0.4-0.5,0.3-0.8l-4.8-9.7c-0.2-0.4,0.1-0.8,0.5-0.8
						l6.5-0.8C45.6,44.8,45.7,44.1,45.3,43.8"/>
				</g>
			</g>
		</g>
		<path class="st9" d="M29.2,47.6V25.8l17,13.6c0.4,0.3,0.2,1-0.3,1l-6.5,0.8c-0.4,0.1-0.6,0.5-0.5,0.8l4.8,9.7
			c0.1,0.3,0,0.6-0.3,0.8l-2.5,1.2c-0.3,0.1-0.6,0-0.8-0.3l-4.8-9.7c-0.2-0.4-0.7-0.4-1-0.1L30.1,48C29.9,48.3,29.2,48.1,29.2,47.6"
			/>
		<path class="st10" d="M46,39.3L29.1,25.8L42,53.2l1.3-0.6c0.3-0.1,0.4-0.5,0.3-0.8l-4.8-9.7c-0.2-0.4,0.1-0.8,0.5-0.8l6.5-0.8
			C46.2,40.3,46.4,39.6,46,39.3"/>
		<path class="st11" d="M50,9.1c-2.2,0-3.9,1.8-3.9,4c0-2.2-1.8-3.9-4-3.9V9.1c2.2,0,3.9-1.8,3.9-4C46.1,7.3,47.9,9.1,50,9.1L50,9.1
			z"/>
		<path class="st11" d="M17.2,3.3c-1.8,0-3.2,1.5-3.2,3.3c0-1.8-1.5-3.2-3.3-3.2V3.3c1.8,0,3.2-1.5,3.2-3.3
			C14,1.8,15.4,3.2,17.2,3.3L17.2,3.3z"/>
		<path class="st11" d="M10.7,47.2c-1.6,0-2.9,1.4-2.9,3c0-1.6-1.4-2.9-3-2.9v-0.1c1.6,0,2.9-1.4,2.9-3C7.8,45.8,9.1,47.1,10.7,47.2
			L10.7,47.2z"/>
		<path class="st11" d="M51.7,28.2c-1.2,0-2.2,1-2.2,2.2c0-1.2-1-2.2-2.2-2.2l0,0c1.2,0,2.2-1,2.2-2.2
			C49.5,27.2,50.5,28.2,51.7,28.2L51.7,28.2z"/>
	</g>
</g>
</svg>
