<?xml version="1.0" encoding="utf-8"?>
<!-- Generator: Adobe Illustrator 21.0.0, SVG Export Plug-In . SVG Version: 6.00 Build 0)  -->
<svg version="1.1" id="Layer_1" xmlns="http://www.w3.org/2000/svg" xmlns:xlink="http://www.w3.org/1999/xlink" x="0px" y="0px"
	 viewBox="0 0 971 221.5" style="enable-background:new 0 0 971 221.5;" xml:space="preserve">
<style type="text/css">
	.st0{opacity:0.1;fill:#606060;}
	.st1{fill:#FFFFFF;stroke:#FFD47D;stroke-miterlimit:10;}
</style>
<g>
	<path class="st0" d="M950.5,221.5h-930c-11,0-20-9-20-20v-172c0-11,9-20,20-20h930c11,0,20,9,20,20v172
		C970.5,212.5,961.5,221.5,950.5,221.5z"/>
	<path class="st1" d="M950.5,212.5h-930c-11,0-20-9-20-20v-172c0-11,9-20,20-20h930c11,0,20,9,20,20v172
		C970.5,203.5,961.5,212.5,950.5,212.5z"/>
</g>
</svg>
