<?xml version="1.0" encoding="utf-8"?>
<!-- Generator: Adobe Illustrator 21.0.0, SVG Export Plug-In . SVG Version: 6.00 Build 0)  -->
<svg version="1.1" id="Layer_1" xmlns="http://www.w3.org/2000/svg" xmlns:xlink="http://www.w3.org/1999/xlink" x="0px" y="0px"
	 viewBox="0 0 180 180" style="enable-background:new 0 0 180 180;" xml:space="preserve">
<style type="text/css">
	.st0{fill:#FFFFFF;}
	.st1{display:none;}
	.st2{display:inline;}
	.st3{fill:url(#SVGID_1_);}
	.st4{fill:#D15900;}
	.st5{clip-path:url(#SVGID_4_);}
	.st6{fill:#FBC6A4;}
	.st7{fill:#EAAD85;}
	.st8{fill:#DE9173;}
	.st9{fill:#353431;}
	.st10{fill:#4A4944;}
	.st11{fill:#272623;}
	.st12{fill:#476B58;}
	.st13{fill:#59806B;}
	.st14{fill:#355444;}
	.st15{fill:#75655A;}
	.st16{fill:#59493C;}
	.st17{fill:#D5954D;}
	.st18{fill:#4A3C30;}
	.st19{fill:#D387AA;}
	.st20{fill:#D3C8C2;}
	.st21{fill:#A79D97;}
	.st22{fill:#42352A;}
	.st23{fill:#201F1C;}
	.st24{fill:#2B2B2B;}
	.st25{fill:#385546;}
	.st26{fill:#69A083;}
	.st27{fill:#25382F;}
	.st28{fill:#E5E6E6;}
	.st29{fill:#DDDFE0;}
	.st30{fill:#B2A297;}
	.st31{fill:#262223;}
	.st32{fill:#412820;}
	.st33{fill:#D5956A;}
	.st34{fill:#4D1F1C;}
	.st35{fill:#F48F87;}
	.st36{fill:#F2F2F2;}
	.st37{fill:#D9DADE;}
	.st38{fill:#C08E76;}
	.st39{fill:#ADBEB6;}
</style>
<rect class="st0" width="180" height="180"/>
<rect class="st0" width="180" height="180"/>
<g>
	<g>
		<g>
			<g class="st1">
				<g class="st2">
					<g>
						
							<radialGradient id="SVGID_1_" cx="96.3333" cy="191" r="167.1662" gradientTransform="matrix(1 0 0 -1 0 275)" gradientUnits="userSpaceOnUse">
							<stop  offset="0.173" style="stop-color:#FFFFFF"/>
							<stop  offset="1" style="stop-color:#36CDFF;stop-opacity:0.3"/>
						</radialGradient>
						<rect id="SVGID_2_" x="0.4" y="0.1" class="st3" width="180" height="180"/>
					</g>
				</g>
			</g>
			<g>
				<g>
					<g>
						<path class="st4" d="M168.9,173.6h-2.6V173h2.6V173.6z M163.1,173.6h-2.6V173h2.6V173.6z M157.3,173.6h-2.6V173h2.6V173.6z
							 M151.5,173.6H149V173h2.6v0.6H151.5z M145.8,173.6h-2.6V173h2.6V173.6z M140,173.6h-2.6V173h2.6V173.6z M134.2,173.6h-2.6
							V173h2.6V173.6z M128.5,173.6h-2.6V173h2.6V173.6z M122.7,173.6h-2.6V173h2.6V173.6z M116.9,173.6h-2.6V173h2.6V173.6z
							 M111.2,173.6h-2.6V173h2.6V173.6z M105.4,173.6h-2.6V173h2.6V173.6z M99.6,173.6H97V173h2.6V173.6z M93.9,173.6h-2.6V173h2.6
							V173.6z M88.1,173.6h-2.6V173h2.6V173.6z M82.3,173.6h-2.6V173h2.6V173.6z M76.5,173.6H74V173h2.6L76.5,173.6L76.5,173.6z
							 M70.8,173.6h-2.6V173h2.6V173.6z M65,173.6h-2.6V173H65V173.6z M59.2,173.6h-2.6V173h2.6V173.6z M53.5,173.6h-2.6V173h2.6
							V173.6z M47.7,173.6h-2.6V173h2.6V173.6z M41.9,173.6h-2.6V173h2.6V173.6z M36.2,173.6h-2.6V173h2.6V173.6z M30.4,173.6h-2.6
							V173h2.6V173.6z M24.6,173.6H22V173h2.6V173.6z M18.9,173.6h-2.6V173h2.6V173.6z M13.1,173.6H12c-0.5,0-1-0.1-1.5-0.2l0.2-0.6
							c0.4,0.1,0.9,0.2,1.3,0.2h1.1V173.6z M171.5,172.8l-0.3-0.5c0.7-0.4,1.2-1,1.6-1.8l0.6,0.3
							C172.9,171.6,172.3,172.3,171.5,172.8z M7.8,171.3c-0.5-0.8-0.8-1.7-0.8-2.6h0.6c0,0.8,0.3,1.6,0.7,2.2L7.8,171.3z
							 M173.9,167.5h-0.6V165h0.6V167.5z M7.6,165.5H6.9V163h0.6L7.6,165.5L7.6,165.5z M173.9,161.8h-0.6v-2.6h0.6V161.8z
							 M7.6,159.8H6.9v-2.6h0.6L7.6,159.8L7.6,159.8z M173.9,156h-0.6v-2.6h0.6V156z M7.6,154H6.9v-2.6h0.6L7.6,154L7.6,154z
							 M173.9,150.2h-0.6v-2.6h0.6V150.2z M7.6,148.2H6.9v-2.6h0.6L7.6,148.2L7.6,148.2z M173.9,144.4h-0.6v-2.6h0.6V144.4z
							 M7.6,142.4H6.9v-2.6h0.6L7.6,142.4L7.6,142.4z M173.9,138.7h-0.6v-2.6h0.6V138.7z M7.6,136.7H6.9v-2.6h0.6L7.6,136.7
							L7.6,136.7z M173.9,132.9h-0.6v-2.6h0.6V132.9z M7.6,130.9H6.9v-2.6h0.6L7.6,130.9L7.6,130.9z M173.9,127.1h-0.6v-2.6h0.6
							V127.1z M7.6,125.1H6.9v-2.6h0.6L7.6,125.1L7.6,125.1z M173.9,121.4h-0.6v-2.6h0.6V121.4z M7.6,119.4H6.9v-2.6h0.6L7.6,119.4
							L7.6,119.4z M173.9,115.6h-0.6V113h0.6V115.6z M7.6,113.6H6.9V111h0.6L7.6,113.6L7.6,113.6z M173.9,109.8h-0.6v-2.6h0.6V109.8
							z M7.6,107.8H6.9v-2.6h0.6L7.6,107.8L7.6,107.8z M173.9,104.1h-0.6v-2.6h0.6V104.1z M7.6,102.1H6.9v-2.6h0.6L7.6,102.1
							L7.6,102.1z M173.9,98.3h-0.6v-2.6h0.6V98.3z M7.6,96.3H6.9v-2.6h0.6L7.6,96.3L7.6,96.3z M173.9,92.5h-0.6V90h0.6V92.5z
							 M7.6,90.5H6.9V88h0.6L7.6,90.5L7.6,90.5z M173.9,86.8h-0.6v-2.6h0.6V86.8z M7.6,84.8H6.9v-2.6h0.6L7.6,84.8L7.6,84.8z
							 M173.9,81h-0.6v-2.6h0.6V81z M7.6,79H6.9v-2.6h0.6L7.6,79L7.6,79z M173.9,75.2h-0.6v-2.6h0.6V75.2z M7.6,73.2H6.9v-2.6h0.6
							L7.6,73.2L7.6,73.2z M173.9,69.4h-0.6v-2.6h0.6V69.4z M7.6,67.4H6.9v-2.6h0.6L7.6,67.4L7.6,67.4z M173.9,63.7h-0.6v-2.6h0.6
							V63.7z M7.6,61.7H6.9v-2.6h0.6L7.6,61.7L7.6,61.7z M173.9,57.9h-0.6v-2.6h0.6V57.9z M7.6,55.9H6.9v-2.6h0.6L7.6,55.9L7.6,55.9
							z M173.9,52.1h-0.6v-2.6h0.6V52.1z M7.6,50.1H6.9v-2.6h0.6L7.6,50.1L7.6,50.1z M173.9,46.4h-0.6v-2.6h0.6V46.4z M7.6,44.4H6.9
							v-2.6h0.6L7.6,44.4L7.6,44.4z M173.9,40.6h-0.6V38h0.6V40.6z M7.6,38.6H6.9V36h0.6L7.6,38.6L7.6,38.6z M173.9,34.8h-0.6v-2.6
							h0.6V34.8z M7.6,32.8H6.9v-2.6h0.6L7.6,32.8L7.6,32.8z M173.9,29.1h-0.6v-2.6h0.6V29.1z M7.6,27.1H6.9v-2.6h0.6L7.6,27.1
							L7.6,27.1z M173.9,23.3h-0.6v-2.6h0.6V23.3z M7.6,21.3H6.9v-2.6h0.6L7.6,21.3L7.6,21.3z M173.9,17.5h-0.6V15h0.6V17.5z
							 M7.6,15.5H6.9V13h0.6L7.6,15.5L7.6,15.5z M173.9,11.8h-0.6v-0.1c0-0.8-0.2-1.5-0.6-2.2l0.6-0.3c0.4,0.8,0.7,1.6,0.7,2.5
							L173.9,11.8L173.9,11.8z M7.9,9.9L7.3,9.7c0.4-0.9,1-1.6,1.7-2.1l0.4,0.5C8.8,8.6,8.2,9.2,7.9,9.9z M170.4,7.6
							c-0.5-0.2-1-0.3-1.6-0.3H168V6.6h0.8c0.6,0,1.2,0.1,1.8,0.3L170.4,7.6z M164.8,7.3h-2.6V6.6h2.6V7.3z M159,7.3h-2.6V6.6h2.6
							V7.3z M153.3,7.3h-2.6V6.6h2.6V7.3z M147.5,7.3h-2.6V6.6h2.6V7.3z M141.7,7.3h-2.6V6.6h2.6V7.3z M136,7.3h-2.6V6.6h2.6V7.3z
							 M130.2,7.3h-2.6V6.6h2.6V7.3z M124.4,7.3h-2.6V6.6h2.6V7.3z M118.6,7.3H116V6.6h2.6V7.3z M112.9,7.3h-2.6V6.6h2.6V7.3z
							 M107.1,7.3h-2.6V6.6h2.6V7.3z M101.3,7.3h-2.6V6.6h2.6V7.3z M95.6,7.3H93V6.6h2.6V7.3z M89.8,7.3h-2.6V6.6h2.6V7.3z M84,7.3
							h-2.6V6.6H84V7.3z M78.3,7.3h-2.6V6.6h2.6V7.3z M72.5,7.3h-2.6V6.6h2.6V7.3z M66.7,7.3h-2.6V6.6h2.6V7.3z M61,7.3h-2.6V6.6H61
							V7.3z M55.2,7.3h-2.6V6.6h2.6V7.3z M49.4,7.3h-2.6V6.6h2.6V7.3z M43.6,7.3H41V6.6h2.6V7.3z M37.9,7.3h-2.6V6.6h2.6V7.3z
							 M32.1,7.3h-2.6V6.6h2.6V7.3z M26.3,7.3h-2.6V6.6h2.6V7.3z M20.6,7.3H18V6.6h2.6V7.3z M14.8,7.3h-2.6V6.6h2.6
							C14.8,6.6,14.8,7.3,14.8,7.3z"/>
					</g>
				</g>
			</g>
		</g>
	</g>
</g>
<g>
	<g>
		<g>
			<g>
				<g>
					<defs>
						<ellipse id="SVGID_3_" cx="89.7" cy="49.7" rx="129.7" ry="117"/>
					</defs>
					<clipPath id="SVGID_4_">
						<use xlink:href="#SVGID_3_"  style="overflow:visible;"/>
					</clipPath>
					<g class="st5">
						<g>
							<path class="st6" d="M123.2,182c0,0-0.9,4.3-1,6.5s-0.3,4,1.2,4c1.4,0,1.9-2,2.3-4c0.6,0.2,1.4,5.5,1.4,5.5s-0.8,2.9,0.3,3
								c1.1,0.2,1.9-0.7,2.2-1.9c0.5,0.2,1.2-0.8,1.5-2.2c0.9-0.5,1.6-4.7,1.1-6.3s-2.6-3.5-2.6-3.5L123.2,182z"/>
							<path class="st7" d="M128.3,182.9c0,0,1.4,1.1,3.2,3.2c-2.1-2.1-6.9,0.2-9,2.2c0.3-1.8,0.7-4.1,0.7-4.1L128.3,182.9z"/>
							<path class="st8" d="M129.4,195.2c0.7-3.3-0.7-6.2-0.7-6.3h-0.1v0.1C128.6,189,129.9,191.9,129.4,195.2L129.4,195.2
								C129.5,195.2,129.5,195.2,129.4,195.2z"/>
							<path class="st8" d="M131,193C131,193,131.1,193,131,193c0.6-4.1-0.6-5.7-0.7-5.8h-0.1v0.1C130.2,187.3,131.5,188.9,131,193
								C130.9,193,130.9,193,131,193L131,193z"/>
							<path class="st9" d="M118.1,168.6c0,0-2.2,80.8-3.8,104.2c-7.7,4.8-14.8,0-14.8,0s-3.6-73.4-4.6-73.5
								c-1.1-0.1-3.3,70.3-3.9,73.8c-4.1,3-11.2,3.7-15.5-1.1c-1.4-15.3-4.1-102.8-4.1-102.8L118.1,168.6z"/>
							<path class="st10" d="M113.8,240.6c-4.5,1.4-11.6,0.3-11.6,0.3s-0.4-16.2-0.5-22.9c4.5,0.3,12.7,0,12.7,0
								S114.1,226.3,113.8,240.6z"/>
							<path class="st10" d="M87.8,241.1c-4.5,1.3-11.5,0.1-11.5,0.1s-1.5-15.8-1.6-22.5c4.5,0.2,12.8-0.3,12.8-0.3
								S87.5,227.5,87.8,241.1z"/>
							<path class="st11" d="M116.9,176.1c0,0-1.6,29.9-1.4,29.4c0.2-0.5-6.8-22-22.7-19.3c-15.9,2.7-17.1,31.6-17.1,31.6
								s-2.4-38.3-2.4-38.8L116.9,176.1z"/>
							<g>
								<path class="st7" d="M99.2,101c-1.6-0.4-3.8-0.6-3.8-0.6v-3.8l-3.5,0.1c0,0,0.2,1.8,0.2,3.8c-2.4,0.5-4.7,1.3-4.7,1.3
									C90.1,107.3,98.1,106.9,99.2,101z"/>
								<path class="st7" d="M99.3,101c-1.6-0.4-3.8-0.6-3.8-0.6s0-0.7,0-1.6c-1.8,0.5-3.5,0-3.5,0s0.1-0.3,0.1,1.7
									c-2.4,0.5-4.7,1.3-4.7,1.3C87.1,112,101.4,111.4,99.3,101z"/>
								<path class="st0" d="M92.6,105.1h3l4.9,3.8l-5.5,8.3l-6.4-9.1c0,0,3.7-2.8,4-2.9V105.1z"/>
								<path class="st9" d="M94,110.5c0,0-4.5,6.7,1.1,10.8c5.2-4.3,0.5-10.9,0.5-10.9l2.2-4.4l-3.3-1.4l-4.4,1.8L94,110.5z"/>
							</g>
							<path class="st12" d="M124.5,178.2c0.4-44.4-11-71.1-22.2-74.2c-0.9,1.2-7.3,13.1-7.3,13.1s-7.3-9.9-9.1-11.5
								c-21,5.3-21.3,51.8-20.8,72.7C65.1,178.3,91.3,190.5,124.5,178.2z"/>
							<path class="st13" d="M86,162.3l1.1-1.2c0.1,0.1,10.2,9.7,16.7,18.2l-1.3,1C96,171.8,86,162.3,86,162.3z"/>
							<path class="st13" d="M91.7,183.7c0.8,0,1.5,0,2.3,0c-3.9-4-6.9-6.9-7-7l-1.1,1.2C86,178,88.5,180.3,91.7,183.7z"/>
							<path class="st13" d="M86,132.3l1.1-1.2c0.1,0.1,10.2,9.7,16.7,18.2l-1.3,1C96,141.9,86,132.4,86,132.3z"/>
							<g>
								<path class="st14" d="M85.9,162.9l1.3,1c6.4-8.4,16.4-17.9,16.5-18l-1.1-1.2C102.5,144.8,92.4,154.4,85.9,162.9z"/>
								<path class="st14" d="M93.7,183.8c0.7,0,1.4,0,2.2,0c4.2-4.5,7.7-7.8,7.8-7.9l-1.1-1.2C102.6,174.7,98.4,178.7,93.7,183.8z"
									/>
								<path class="st14" d="M85.9,177.9l1.3,1c6.4-8.4,16.4-17.9,16.5-18l-1.1-1.2C102.5,159.8,92.4,169.4,85.9,177.9z"/>
								<path class="st14" d="M85.9,134.7l1.3,1c6.4-8.4,16.4-17.9,16.5-18l-1.1-1.2C102.5,116.6,92.4,126.2,85.9,134.7z"/>
								<path class="st14" d="M85.9,147.9l1.3,1c6.4-8.4,16.4-17.9,16.5-18l-1.1-1.2C102.5,129.8,92.4,139.4,85.9,147.9z"/>
							</g>
							<path class="st13" d="M86,117.3l1.1-1.2c0.1,0.1,10.2,9.7,16.7,18.2l-1.3,1C96,126.9,86,117.4,86,117.3z"/>
							<path class="st13" d="M86,147.3l1.1-1.2c0.1,0.1,10.2,9.7,16.7,18.2l-1.3,1C96,156.9,86,147.4,86,147.3z"/>
							<path class="st0" d="M87.3,108.7c0.2-0.3,1-1,1.5-1.1c2.1,1.8,6.1,7.9,6.1,7.9l3.9-8.3c0,0,1.1,0.4,2,0.7l-5.7,11.5
								C95.1,119.4,89.7,111.5,87.3,108.7z"/>
							<polygon class="st0" points="94.5,104.6 88.1,109.4 87,101.8 92.1,100 							"/>
							<polygon class="st0" points="100.7,101.1 101.3,108.9 94.5,104.6 95.5,99.7 							"/>
							<path class="st15" d="M73.4,110.4C66.8,119.9,61.6,167,63,183c2.7,3.2,14.3,7.1,23.6,6.1c4.5-2.1,1.3-87.5,1.3-87.5
								S81.7,104.7,73.4,110.4z"/>
							<path class="st15" d="M116.6,111.2c6.6,9.5,9.6,54.8,8.2,70.8c-2.7,3.3-14.3,6.5-23.6,5.5c-3.6-29.8-0.2-85.8-0.2-85.8
								S109.6,103.9,116.6,111.2z"/>
							<path class="st16" d="M89,163.7c0,0-5.2-41.6-5.2-42.6c2-1.4,4.2-2.6,4.2-2.6s-2.4-0.9-4.8-1.6c-0.6-0.6-3.1-9.4-3.8-10.9
								c2.8-1.7,6-3.8,8.5-5.3C92.9,111.2,89,163.7,89,163.7z"/>
							<path class="st16" d="M99.7,163.7c0,0,5.2-41.6,5.2-42.6c-2-1.4-4.2-2.6-4.2-2.6s2.4-0.9,4.8-1.6c0.6-0.6,2.1-10.6,2.8-12.1
								c-2.7-1.7-5.8-3.5-7.8-4.1C95.4,111.2,99.7,163.7,99.7,163.7z"/>
							<g>
								<g>
									<path class="st17" d="M77.2,188.2c0.5,7.5-12.6,68.7-17.8,100.2c-0.5,2.9-3.1,1.8-3-0.1c1.1-7.5,19.3-97,17-99.3
										c-3.7-3.6-9.8,3.4-11.4,0.7c-1.7-3,4.1-4.7,6.4-5.3C74.3,182.9,77,185.8,77.2,188.2z"/>
									<g>
										<path class="st6" d="M70.5,172.4c2.5,3.2,0.7,6.4,2.6,8.5c2.4,2.2,4.1,3.9,3.7,5.5c-0.5-0.3-1.2-1.6-2.4-1.4
											c0,0-1.1,0.6-0.7,4.6c-0.2,0.8-1.3,2-2.4,0.1c0.1,2.1-1.7,2-2.2,0.4c-0.2,1.4-1.8,1.7-2.3,0.1c-0.9,2.4-2.6-1.6-1.4-5.6
											c1.1-3.6-0.2-10.6-0.2-10.6S67.9,169.2,70.5,172.4z"/>
									</g>
									<g>
										<path class="st7" d="M71.6,175.5c-0.3,2.6,0.5,5.1,0.5,5.1s-1.1-1.8-2.8-1.7c-1.7,0.1-2,1.7-3.3,3.3
											c1-1.8-0.1-5.8-0.1-5.8S70.4,174.6,71.6,175.5z"/>
									</g>
								</g>
							</g>
							<path class="st16" d="M73,126.3c-1.9,8.6-2.4,13.8-1.6,14.8c0.7,1.1,0.2,1.8-0.3,5.2c-0.6,3.4,7.1,28.8,6.3,30.6
								c-3.3-1.3-9.8-0.1-12.6,2c-3.4-2.3-7.9-31.9-9.2-33.4c-1.3-1.6,2.3-3.6,0.5-4.9c-1.8-1.3,0.5-4.2,2.3-5.7
								c1.8-1.5,1.6-8.5,5.6-15.6c3.2-5.7,5.7-6.7,9.4-8.9C73.4,110.4,75.6,114.5,73,126.3z"/>
							<g>
								<path class="st18" d="M66,178.1c-3.3-4.1-7.6-31.5-8.8-33c-1.3-1.6,2.3-3.6,0.5-4.9c-1.8-1.3,0.5-4.2,2.3-5.7
									c1.8-1.5,1.6-8.5,5.6-15.6c2.8-5,5-6.4,8-8.1c0,0.2,0.1,0.5,0.2,0.8c-1.5,1.2-2.9,2.9-4.5,5.7c-4,7.1-3.8,14.1-5.6,15.6
									c-1.8,1.6-4.1,4.4-2.3,5.7c1.8,1.3-1.8,3.4-0.5,4.9s5.7,30,9,33.2C68.4,177.1,67,177.5,66,178.1z"/>
								<path class="st16" d="M71.5,176.4c-0.3,0-0.6,0.1-0.9,0.2C70.9,176.5,71.2,176.4,71.5,176.4z"/>
							</g>
							<path class="st16" d="M116.8,126.6c2.6,17.7,1.7,50.5,3.8,57.6c3.1,0.7,7.2,0.9,10.9-1c0.2-6.9-2-32.8-2-33.6
								s-1.4-1.9-0.8-2.7c0.6-0.8,1.2-2.9,0.4-3.5s-1-1.9-1.2-3.3c-1.1-25.9-12.1-29.6-12.1-29.6L116.8,126.6z"/>
							<path class="st18" d="M129.5,184.1c-0.7,0.2-1.4,0.4-2.1,0.5c0-8.5-2.1-33.3-2.1-34.1s-1.4-2-0.8-2.8s1.2-3,0.4-3.6
								c-0.8-0.6-1-2-1.2-3.4c-0.6-15.1-4.5-23-7.8-27l-0.1-2.3c3.5,2.8,9.3,10.4,10.1,29.3c0.2,1.4,0.4,2.8,1.2,3.4
								c0.8,0.6,0.2,2.8-0.4,3.6s0.8,2,0.8,2.8S129.6,175.1,129.5,184.1z"/>
							<g>
								<circle class="st18" cx="103" cy="160.2" r="1.9"/>
							</g>
							<g>
								<circle class="st18" cx="103.9" cy="174.2" r="1.9"/>
							</g>
							<g>
								<path class="st6" d="M80,273.1l-0.9,8.8c0,0-1.4,2-1.8,2.5c0.5,0.4,2.6,1.8,3.9,3c1.4-1.5,3.6-4.1,3.6-4.1l0.9-10.7
									L80,273.1z"/>
								<path class="st7" d="M84.9,277.7c0,0-0.1,0.6-0.4,3.6c-1.9-2.6-4.9-0.4-4.9-0.4l0.5-2.7L84.9,277.7z"/>
								<g>
									<g>
										<path class="st19" d="M66,291v-0.1c0.1,0.1,0.1,0.2,0.1,0.3C66.1,291.2,66.1,291.1,66,291z"/>
									</g>
									<path class="st20" d="M74.6,279.7c-0.9,0.1-1.2,1.4-1.5,2.4c-0.5,1.4-2.2,2.8-2.4,3.5c-0.2,0.7,3.4,2,5.2,1.1
										c1.7-0.9,3.2-3.8,3.5-4.7c0.3-0.9-0.4-1.6-0.8-1.8C78.1,280,75.4,279.7,74.6,279.7z"/>
									<g>
										<path class="st20" d="M85.5,286.8c0.3,0.8,0.7,2.6,0.2,3.5c-1.3,2.5-5,5.7-10.6,6.9c-3.4,0.7-9.7,0.1-9.7-3.9
											c0-0.7,0.4-1.5,0.7-2.3c0.2,1.1,1.6,2.7,5.2,3C76.7,294.5,83.4,290.7,85.5,286.8z"/>
									</g>
									<path class="st21" d="M65.3,294.1c0.7,3.3,6.5,3.8,9.6,3.1c5.7-1.3,9.4-4.4,10.6-6.9c0.5-1,0.1-2.8-0.2-3.5
										c-0.1,0.1-0.2,0.3-0.3,0.5c0,0.6,0.2,2,0,2.4c-1.2,2.5-4.9,5.3-10.5,6.5C71.9,296.8,67.2,296,65.3,294.1z"/>
									<g>
										<path class="st16" d="M84.9,282.1c-0.7,1.5-4.4,3.3-5.1,2.6c-0.9-0.9-2.5-2.7-3.5-2.3c-0.5,0.2-2.2,3.4-3.1,3.2
											c-0.7-0.3,1.9-3,1.7-3.4c-0.4-0.6-1.7,0.3-2.7,0.7c-0.9,0.8-1.4,1.2-2.1,1.8c-1.9,1.7-4,3.7-4,6.4c0.2,1.2,1.8,2.7,5.1,3
											c5.5,0.6,12.3-3.2,14.1-6.8c0.5-0.7,0.3-3.3-0.3-5.6C84.9,281.8,84.9,281.9,84.9,282.1z"/>
									</g>
									<path class="st22" d="M70.7,292.8c-2.3-0.2-3.7-1-4.5-1.8l0,0c0-0.1,0-0.3,0-0.5c0.7,0.4,1.8,0.7,3.1,0.8
										c5.5,0.6,12.3-3.2,14.1-6.8c0.1-0.2,0.2-0.6,0.2-1.1c0.5-0.3,0.9-0.7,1.1-1.1c0.2,1.7,0.2,3.3-0.1,3.8
										C82.8,289.6,76,293.4,70.7,292.8z"/>
									<path class="st0" d="M76.6,283.7c0.1,0,0.1-0.1,0-0.2c0,0-1.7-1.8-3.6-0.6c-0.1,0-0.2,0.1-0.1,0.2c0,0.1,0.1,0.1,0.2,0.1
										c1.7-1,3.1,0.5,3.2,0.6c0,0.1,0.1,0.1,0.1,0.1C76.5,283.9,76.5,283.9,76.6,283.7z"/>
									<path class="st0" d="M75.6,285.4c0.1-0.1,0.1-0.2,0-0.3c0,0-1.9-2.1-3.7-0.6c-0.1,0.1-0.1,0.2,0,0.3c0,0.1,0.1,0.1,0.2,0
										c1.5-1.4,3.1,0.4,3.2,0.5c0,0.1,0.1,0.1,0.1,0.1C75.5,285.4,75.5,285.4,75.6,285.4z"/>
								</g>
							</g>
							<g>
								<path class="st6" d="M109.1,273.1l0.9,8.8c0,0,1.5,2,1.9,2.5c-0.5,0.4-2.6,1.8-3.9,3c-1.4-1.5-3.6-4.1-3.6-4.1l-0.9-10.7
									L109.1,273.1z"/>
								<path class="st7" d="M104.4,277.7c0,0,0.1,0.6,0.4,3.6c1.9-2.6,4.9-0.4,4.9-0.4l-0.5-2.7L104.4,277.7z"/>
								<g>
									<g>
										<path class="st19" d="M123.2,291v-0.1c-0.1,0.1-0.1,0.2-0.1,0.3C123.1,291.2,123.1,291.1,123.2,291z"/>
									</g>
									<path class="st20" d="M114.6,279.7c0.9,0.1,1.2,1.4,1.5,2.4c0.5,1.4,2.2,2.8,2.4,3.5c0.2,0.7-3.5,2-5.2,1.1
										c-1.7-0.9-3.2-3.8-3.5-4.7c-0.3-0.9,0.4-1.6,0.8-1.8C111.1,280,113.8,279.7,114.6,279.7z"/>
									<g>
										<path class="st20" d="M103.8,286.8c-0.4,0.8-0.8,2.6-0.3,3.5c1.3,2.5,5,5.7,10.6,6.9c3.4,0.7,9.7,0.1,9.7-3.9
											c0-0.7-0.4-1.5-0.7-2.3c-0.2,1.1-1.6,2.7-5.2,3C112.6,294.5,105.8,290.7,103.8,286.8z"/>
									</g>
									<path class="st21" d="M123.8,294.1c-0.7,3.3-6.5,3.8-9.6,3.1c-5.7-1.3-9.3-4.4-10.6-6.9c-0.4-1,0-2.8,0.3-3.5
										c0.1,0.1,0.2,0.3,0.3,0.5c0,0.6-0.2,2,0,2.4c1.2,2.5,4.9,5.3,10.5,6.5C117.3,296.8,122,296,123.8,294.1z"/>
									<g>
										<path class="st16" d="M104.3,281.6c-0.6,2.3-0.8,4.9-0.3,5.6c1.8,3.5,8.6,7.3,14.1,6.8c3.3-0.3,4.8-1.8,5.1-3
											c0-2.7-2.1-4.7-4-6.4c-0.7-0.6-1.2-1-2.1-1.8c-1-0.5-2.3-1.3-2.7-0.7c-0.3,0.4,2.4,3.2,1.7,3.4c-0.8,0.2-2.5-3-3.1-3.2
											c-1-0.4-2.6,1.4-3.5,2.3c-0.8,0.7-4.4-1.1-5.1-2.6C104.3,281.9,104.3,281.8,104.3,281.6z"/>
									</g>
									<path class="st22" d="M104.7,286c-0.3-0.6-0.4-2.1-0.1-3.7c0.3,0.4,0.7,0.8,1.2,1.2c0,0.4,0.1,0.7,0.2,0.9
										c1.8,3.5,8.6,7.3,14.1,6.8c1.3-0.1,2.3-0.4,3.1-0.8c0,0.1,0,0.3,0,0.5c-0.8,0.8-2.2,1.6-4.5,1.8
										C113.2,293.2,106.4,289.4,104.7,286z"/>
									<path class="st0" d="M112.6,283.7c-0.1,0-0.1-0.1,0-0.2c0,0,1.7-1.8,3.6-0.6c0.1,0,0.2,0.1,0.1,0.2c0,0.1-0.1,0.1-0.2,0.1
										c-1.7-1-3.1,0.5-3.2,0.6c0,0.1-0.1,0.1-0.1,0.1S112.7,283.9,112.6,283.7z"/>
									<path class="st0" d="M113.8,285.4c-0.2-0.1-0.2-0.2-0.1-0.3c0,0,1.9-2.1,3.7-0.6c0.1,0.1,0.1,0.2,0,0.3s-0.2,0.1-0.3,0
										c-1.5-1.4-3.1,0.4-3.2,0.5C113.9,285.4,113.8,285.4,113.8,285.4C113.7,285.4,113.7,285.4,113.8,285.4z"/>
								</g>
							</g>
							<path class="st23" d="M114.3,270c-0.2,2.4-0.3,4.8-0.3,6c-0.6,0.6-1.8,0.4-2.5,0.8c-2.8,0.7-7.3,1.5-11.9-0.2
								c-0.1-1.4-0.2-3.7-0.3-6.4C101.3,270.8,107.4,271.9,114.3,270z"/>
							<path class="st23" d="M75.8,276.3c-0.1-1.5-0.1-2.8-0.4-6.1c2,0.7,8.4,1.8,15.6-0.4c0,2.3-0.4,4.8-0.4,6.5
								C89,277,82.5,278.8,75.8,276.3z"/>
							<path class="st24" d="M75.8,278c8.2,3.4,15.3-0.4,15.3-0.4s0.1-2,0.4-6c-9.7,3.1-16.4,0.1-16.4,0.1S75.2,275.8,75.8,278z"/>
							<path class="st24" d="M99.4,278c8.2,3.4,15.3-0.4,15.3-0.4s0.1-2,0.4-6c-9.7,3.1-16.4,0.1-16.4,0.1S98.8,275.8,99.4,278z"/>
						</g>
						<g>
							<g>
								<path class="st12" d="M107.8,32c0,0-5.8-0.7-11.2-7.1c-5.3-6.5-11.2-7.2-19.1-7.9s-11.2,2.8-11.3,8.4
									c-0.1,5.7-3.5,8.1-5.6,13.1c-2.1,4.9,0.1,8.5,0.1,8.5L107.8,32z"/>
								<path class="st25" d="M102,30.8c0,0-8.3-5.6-18.6-2.3S65.8,38,65.1,43.1L102,30.8z"/>
								<path class="st26" d="M121.7,35.6c-3-4.1-13.8-5.9-20.1-5.8c-6.4,0.2-25.5,6.1-31.3,9.4c-5.7,3.3-9.9,6.1-12.9,9.4
									C57.4,48.6,124.7,39.8,121.7,35.6z"/>
								<path class="st25" d="M122.8,56.4c10.7-25-10.9-27.4-28.6-21.9S48.2,45.9,50,61.7c1.9,15.8,14.8,15.5,24,17.6
									C85.4,81.9,112.1,81.3,122.8,56.4z"/>
								<path class="st27" d="M120.1,57.2c8.4-19.6-19.7-22-33.6-17.7C72.7,43.8,58,51.7,59.4,64.1c1.5,12.4,6.4,16.8,13.6,18.4
									C81.9,84.6,111.8,76.8,120.1,57.2z"/>
							</g>
							<g>
								<path class="st28" d="M121.4,60.9c3.7-1.5,5.8-5.3,1.8-9.3c3.6-2.1,1.3-5.9-1.9-5.6c1.1-3.4-4.8-2.5-6.9-2.5
									C114.4,43.5,117.8,62.3,121.4,60.9z"/>
							</g>
							<path class="st7" d="M114.8,44c-5.7-2.1-11.3-2.7-23.3-0.3c-16.1,3.2-22,11.2-25.2,11.3C73.8,40.1,103.2,33.8,114.8,44z"/>
							<path class="st6" d="M109.9,97.3c-0.6,0.3-1.2,0.6-1.8,0.8c-19.2,7.6-35.4-3.7-40.2-16.1c-4.6-9-4.4-17.4-2.9-23.3l0,0l0,0
								c0.4-1.3,0.8-2.5,1.2-3.5c8.1-16.7,44.1-22.8,51.9-7.1C125.7,63.3,128.2,88.7,109.9,97.3z"/>
							<path class="st7" d="M122.9,77.2c-1.5,8.3-5.3,16-14.5,19.6c-18.7,7.3-34.5-3.7-39.1-15.7c-3.6-9.1-4.4-16.9-2.9-22.6
								c-1,5.5-0.7,12.8,3.3,20.4c3.2,6,20.4,23,39.1,15.7C117.3,91.3,121,84.5,122.9,77.2z"/>
							<path class="st7" d="M103,75.9c5.1-3.2,0.5-6.8-3.1-4C103,71,104.5,73.7,103,75.9z"/>
							<g>
								<g>
									<path class="st7" d="M92.9,72.2c1.6,0.1,1.9,2.2-1.3,3.8c-3.4,1.7-6.4-0.1-7-1.2c-0.7-1.5,0.8-1.5,0.8-1.5
										S91.3,72,92.9,72.2z"/>
									
										<ellipse transform="matrix(0.9436 -0.3312 0.3312 0.9436 -17.9037 33.162)" class="st0" cx="88.4" cy="69.1" rx="5.4" ry="5.7"/>
									<path class="st29" d="M83.9,70.7c0.9,2.7,3.7,4.2,6.3,3.3s3.8-3.8,2.9-6.5c-0.3-0.7-0.6-1.3-1.1-1.8l0,0
										c0.3,0.3,0.6,0.8,0.8,1.4c0.8,2.5-0.4,5.2-2.7,6s-4.9-0.5-5.8-3c-0.9-2.5,1-4.2,3.3-5c1.7-0.6,3.2-0.5,4.2,0.5
										c-1.4-1.4-3.4-1.9-5.2-1.3C84.1,65.2,82.8,68.1,83.9,70.7z"/>
									<path class="st30" d="M86.4,66.9c-1.5,0.6-2.3,2.3-1.7,3.9c0.6,1.6,2.3,2.4,3.8,1.9c1.5-0.6,2.3-2.3,1.7-3.9
										C89.6,67.2,87.9,66.3,86.4,66.9z"/>
									
										<ellipse transform="matrix(0.9438 -0.3305 0.3305 0.9438 -18.1036 32.7981)" class="st31" cx="87.4" cy="69.6" rx="1.7" ry="1.8"/>
									<path class="st0" d="M87.8,67.1c-0.4,0.1-0.7,0.6-0.5,1.1s0.7,0.8,1.1,0.6c0.4-0.1,0.7-0.6,0.5-1.1
										C88.8,67.2,88.3,67,87.8,67.1z"/>
									<path class="st0" d="M86.3,71.3c-0.3,0.1-0.4,0.3-0.3,0.6c0.1,0.2,0.4,0.4,0.6,0.3c0.3-0.1,0.4-0.4,0.3-0.6
										S86.6,71.3,86.3,71.3z"/>
									<path class="st7" d="M90.9,63.9c0,0-4.3-2.2-6.7-0.5c-2.4,1.6-1.7,5.1-1.7,5.1C85.4,63.6,90.9,63.9,90.9,63.9z"/>
									<path class="st32" d="M90.7,63.9c-0.1,0-0.2,0-0.3,0s-0.3,0-0.5,0s-0.5,0-0.7,0c-0.1,0-0.3,0-0.4,0
										C88.7,64,88.5,64,88.4,64c-0.3,0-0.6,0.1-0.9,0.2c-0.1,0-0.2,0.1-0.4,0.1c0,0.1-0.1,0.1-0.2,0.1l-0.2,0.1
										c-0.1,0.1-0.2,0.1-0.4,0.2c-0.1,0-0.2,0.1-0.4,0.2c-0.1,0-0.3,0.1-0.4,0.2s-0.3,0.2-0.4,0.3c-0.2,0.2-0.5,0.4-0.7,0.6
										s-0.4,0.4-0.6,0.6c-0.1,0.1-0.2,0.2-0.3,0.3s-0.1,0.2-0.1,0.2c-0.2,0.2-0.3,0.3-0.4,0.5c0,0.1-0.1,0.3-0.2,0.4
										c-0.1,0.3-0.2,0.4-0.2,0.4s0.1-0.1,0.3-0.3c0.1-0.1,0.2-0.3,0.3-0.4c0.1-0.2,0.2-0.3,0.4-0.5c0.1-0.1,0.3-0.3,0.5-0.5
										c0.1-0.1,0.2-0.2,0.3-0.3c0.1,0,0.1-0.1,0.2-0.1s0.1-0.1,0.2-0.1c0.2-0.2,0.4-0.3,0.7-0.5c0.1,0,0.3-0.1,0.4-0.2
										s0.3-0.1,0.4-0.2s0.3-0.1,0.4-0.2s0.3-0.1,0.4-0.2c0.3-0.1,0.5-0.2,0.8-0.3c0.3,0,0.5-0.1,0.8-0.2c0.2-0.1,0.5-0.2,0.7-0.2
										c0.4-0.1,0.8-0.2,1.1-0.2c0.2-0.1,0.4-0.1,0.4-0.1S90.9,63.9,90.7,63.9z"/>
								</g>
							</g>
							<g>
								<g>
									<path class="st7" d="M113.6,68.3c1.4,0.4,1.3,2.3-1.9,3.2c-3.4,0.9-5.8-1.3-6.1-2.4c-0.4-1.5,1-1.2,1-1.2
										S112.2,67.9,113.6,68.3z"/>
									
										<ellipse transform="matrix(0.9913 -0.1315 0.1315 0.9913 -7.5574 15.0343)" class="st0" cx="110.1" cy="64.7" rx="4.9" ry="5.2"/>
									<path class="st29" d="M105.5,65.6c0.3,2.6,2.7,4.5,5.2,4.2c2.5-0.4,4.3-2.8,3.9-5.5c-0.1-0.7-0.3-1.3-0.6-1.9
										c0.3,0.4,0.4,0.9,0.5,1.5c0.3,2.5-1.3,4.7-3.6,5c-2.3,0.3-4.5-1.4-4.8-3.9c-0.4-2.5,1.7-3.7,4-4c1.7-0.3,3.1,0.1,3.8,1.2
										c-0.9-1.5-2.7-2.4-4.5-2.2C106.9,60.3,105.1,62.7,105.5,65.6z"/>
									<path class="st30" d="M108.5,62.8c-1.5,0.2-2.5,1.6-2.3,3.2s1.5,2.7,3,2.5s2.5-1.7,2.3-3.2
										C111.3,63.8,109.9,62.7,108.5,62.8z"/>
									
										<ellipse transform="matrix(0.9913 -0.1313 0.1313 0.9913 -7.6851 14.8446)" class="st31" cx="108.7" cy="65.7" rx="1.6" ry="1.7"/>
									<path class="st0" d="M109.7,63.4c-0.5,0-0.8,0.4-0.7,0.9c0.1,0.4,0.5,0.8,0.9,0.7c0.5,0,0.8-0.4,0.7-0.9
										C110.5,63.7,110.1,63.3,109.7,63.4z"/>
									<path class="st0" d="M107.5,66.9c-0.2,0-0.3,0.3-0.3,0.5c0.1,0.3,0.3,0.4,0.5,0.4c0.2,0,0.3-0.3,0.3-0.5
										C108,67.1,107.8,66.9,107.5,66.9z"/>
									<path class="st7" d="M113.4,60.5c0,0-3.5-2.7-6-1.7s-2.5,4.3-2.5,4.3C108.5,59.2,113.4,60.5,113.4,60.5z"/>
									<path class="st32" d="M113.4,60.5c-0.2-0.1-0.3-0.1-0.6-0.1c-0.1,0-0.2-0.1-0.4-0.1s-0.4-0.1-0.6-0.1c-0.1,0-0.2,0-0.3,0
										c-0.2,0-0.3,0-0.4,0c-0.3,0-0.5,0-0.8,0c-0.1,0-0.3,0-0.4,0s-0.1,0-0.2,0h-0.2c-0.1,0-0.2,0.1-0.4,0.1
										c-0.1,0-0.3,0.1-0.4,0.1s-0.3,0-0.4,0.1c-0.1,0.1-0.3,0.1-0.4,0.2c-0.3,0.1-0.6,0.3-0.8,0.4c-0.3,0.1-0.5,0.3-0.7,0.4
										c-0.1,0.1-0.2,0.1-0.3,0.2c-0.1,0-0.2,0.1-0.3,0.2c-0.1,0.1-0.3,0.3-0.4,0.4c-0.1,0.2-0.2,0.3-0.3,0.4
										c-0.1,0.2-0.2,0.3-0.2,0.3s0.1,0,0.3-0.2c0.1-0.1,0.3-0.2,0.4-0.3c0.2-0.1,0.3-0.2,0.5-0.3c0.2-0.2,0.4-0.3,0.6-0.4
										c0.1-0.1,0.2-0.1,0.3-0.2c0.1,0,0.1-0.1,0.2-0.1s0.1-0.1,0.2-0.1c0.2-0.1,0.4-0.2,0.7-0.3c0.1,0,0.3-0.1,0.4-0.1
										s0.3-0.1,0.4-0.1s0.3-0.1,0.4-0.1s0.3-0.1,0.4-0.1c0.3,0,0.5-0.1,0.8-0.1s0.6-0.1,0.8-0.1s0.5,0,0.7,0c0.4,0,0.7,0,1,0
										S113.4,60.5,113.4,60.5S113.3,60.5,113.4,60.5z"/>
								</g>
							</g>
							<g>
								<path class="st6" d="M70.9,79.6c-0.3,3.9-5.7,5.1-9.8,1.8c-4-3.2-4.6-10.3,0.2-11.4c4.6-1,6.7,3,6.7,3L70.9,79.6z"/>
								<path class="st7" d="M61.7,80.9c3.8,3,8.9,1.9,9.2-1.7c-1.4,3-5.7,3.8-9.1,0.3c-2.4-2.6-3.6-7.9,0.9-9.1
									c0.8-0.2,1.5-0.2,2.2,0c-0.8-0.3-1.8-0.4-3-0.1C57.4,71.3,58,77.9,61.7,80.9z"/>
								<path class="st33" d="M64.1,74.3c-1.9,0.5-2.3,1.7-1.8,3.1c1.4-2.9,3.5-2,3.4,3c2.9-4.6-1.8-9.9-4.6-8.2
									C61.1,72.2,63.3,72.5,64.1,74.3z"/>
							</g>
							<g>
								<path class="st34" d="M102.6,88.7c4.3-0.3,6-2.3,7.3-6.2c-7.2,0.7-12.7,1.4-12.7,1.4C96.9,85.8,99.3,89,102.6,88.7z"/>
								<path class="st35" d="M97.2,83.9c0,0,1.8-0.2,4.6-0.5c0.4,0.2,0.7,0.6,1.1,0.9c1.3,1.1,1.9,2.6,2,4
									c-0.7,0.2-1.4,0.3-2.3,0.4C99.3,89,96.9,85.8,97.2,83.9z"/>
								<path class="st0" d="M99.1,83.8c1.9-0.3,5.3-0.7,9.3-1.1c-1.2,1.4-2.9,2.2-5.5,2.4C101.4,85.2,100,84.6,99.1,83.8z"/>
							</g>
							<g>
								<path class="st7" d="M77.8,67.7c-0.1-0.2-0.2-0.3-0.2-0.4v-0.1c-0.1-0.1-0.1-0.2-0.1-0.3s0-0.1,0-0.2c0,0,0-0.1,0-0.2
									c0-0.1,0-0.2,0-0.3v-0.1c0-0.4,0.1-0.9,0.2-1.4l0,0c0.1-0.1,0.1-0.3,0.2-0.5l0,0l0,0c0.7-2.3,2.4-4.9,4.8-6.4
									c1.4-0.9,3.6-0.1,4.6,0.8l0,0l0,0c0.1,0.1,0.1,0.1,0.2,0.2l0,0c0.1,0.1,0.2,0.1,0.2,0.2s0,0.1,0,0.1l0.1,0.1
									c0.1,0.1,0.1,0.1,0.1,0.2C88.2,60.4,80.9,62.6,77.8,67.7z"/>
								<path class="st36" d="M78.1,66.4c2.8-4.9,9.8-7,9.6-8c-0.2-0.9-3.2-2.6-5-1.5C79,59.2,77,64.7,78.1,66.4z"/>
								<path class="st37" d="M78.7,65c-0.3-0.6-0.3-1.6,0.1-2.8c0,0.4,0.1,0.8,0.3,1.1c2.7-3.3,7.3-4.5,7.1-5.3c0-0.1,0-0.1,0-0.1
									c0.2,0.2,0.4,0.4,0.4,0.6C86.7,59.3,81,61.1,78.7,65z"/>
							</g>
							<g>
								<path class="st7" d="M117.2,59.2c0-0.2,0-0.3,0-0.4v-0.1c0,0-0.1-0.1-0.1-0.2c0-0.1-0.1-0.1-0.1-0.2c0-0.1-0.1-0.1-0.1-0.2
									c0-0.1-0.1-0.1-0.1-0.2c-0.1,0-0.1-0.1-0.1-0.1c-0.2-0.3-0.5-0.7-0.8-1l0,0c-0.1-0.2-0.3-0.3-0.4-0.4l0,0l0,0
									c-1.7-1.5-4.2-2.8-6.8-2.8c-1.6-0.1-2.9,1.6-3.3,2.8l0,0l0,0c-0.1,0.1-0.1,0.2-0.1,0.3l0,0c0,0.1,0,0.1,0,0.2s0,0.1,0,0.1
									c0,0.1,0,0.2,0,0.2c0,0.1,0,0.1,0,0.2C105.6,58.3,112.3,56.6,117.2,59.2z"/>
								<path class="st36" d="M116.4,58.4c-4.6-2.5-11.1-0.9-11.4-1.8c-0.3-0.9,1.3-3.6,3.2-3.6C112.3,53.1,116.4,56.4,116.4,58.4z"
									/>
								<path class="st37" d="M115.5,57.7c0-0.6-0.6-1.5-1.5-2.3c0.2,0.3,0.3,0.7,0.3,1c-3.8-1.4-8.2-0.1-8.5-0.9c0-0.1,0-0.1,0-0.1
									c-0.1,0.3-0.2,0.5-0.1,0.7C105.9,56.8,111.6,55.4,115.5,57.7z"/>
							</g>
							<path class="st36" d="M69.9,67.6c0.3,3.8-0.6,5.5-2.5,6.2c-1.9-0.8-3.1-2-3.8-3.4c-0.1-0.1-0.3-0.2-0.4-0.3
								c-2.4,0.7-3.4-0.5-2.7-1.5c-5.1,0.5-5-5.9-0.4-7.6c-6.9-1.6-2.9-10.4,3.8-8.5c-2.7-1.8,0.1-6.3,4.9-5.5
								c1.9-3.6,4.6-2,5.2-0.9c0.1,0.1,0.1,0.3,0.1,0.5C76.2,49.5,79.2,63.3,69.9,67.6z"/>
							<path class="st28" d="M69.1,66.8c0.2,3.5-0.6,4.9-2.3,5.6c-1.7-0.7-2.7-1.8-3.4-3.1c-0.1-0.1-0.3-0.2-0.4-0.3
								c-2.1,0.7-3.1-0.4-2.4-1.3c-3.8,0.3-4.4-3.4-2.3-5.7c0.2,0.6,1.1,1,2.6,0.5c0.2,0.1,0.3,0.2,0.4,0.3c0.6,1.3,1.6,2.4,3.4,3.1
								c1.8-0.6,2.6-2.1,2.3-5.6c5.5-2.5,6.3-8.6,5.7-13.3c0.1,0.1,0.1,0.2,0.2,0.3c0.1,0.1,0.1,0.2,0.1,0.4
								C74.9,50.4,77.6,63,69.1,66.8z"/>
							<path class="st7" d="M110.3,43.7c-13.2-3.9-24.6-0.2-32.9,5.1C77.4,48.8,94.6,39.9,110.3,43.7z"/>
							<path class="st7" d="M109.1,51.2c-9.8-2.9-18.3-0.1-24.5,3.8C84.6,55,97.3,48.4,109.1,51.2z"/>
							<path class="st7" d="M111,46.9c-10.6-3.1-19.7-0.1-26.4,4.1C84.6,51,98.4,44,111,46.9z"/>
							<g>
								<path class="st36" d="M106.3,76.9c3.7,0.3,5.2,1.3,5.7,5.2c-1.6,0.6-13.7,2-17.5,2.3c-0.1-4.5,3.2-6.6,6.7-7.2
									C102.2,77.1,104.7,76.7,106.3,76.9z"/>
							</g>
							<path class="st38" d="M76.7,69.2c-0.3,0.3-1.2-0.1-1.5-0.8c-0.3-0.8,0.6-1,1.4-0.6C77.1,68,77,68.9,76.7,69.2z"/>
							<path class="st38" d="M80.3,49.7c0.4,0.5-0.4,1.8-1.5,2.1s-1.4-1.2-0.6-2.3C78.7,48.8,79.9,49,80.3,49.7z"/>
							<path class="st38" d="M84.7,44.1c0.1,0.2-0.1,0.6-0.5,0.7c-0.4,0.1-0.5-0.4-0.2-0.8C84.2,43.8,84.6,43.9,84.7,44.1z"/>
							<path class="st38" d="M83.2,49.2c-0.1,0.3-0.8,0.5-1.3,0.2c-0.5-0.2-0.1-0.9,0.6-1C82.9,48.3,83.3,48.9,83.2,49.2z"/>
							<path class="st38" d="M97.7,40.8c-0.1,0.3-0.8,0.5-1.3,0.2c-0.5-0.2-0.1-0.9,0.6-1C97.4,39.9,97.7,40.4,97.7,40.8z"/>
							<path class="st38" d="M78.7,54.8c0,0.2-0.4,0.6-0.8,0.6c-0.5,0-0.4-0.6,0-0.9C78.2,54.3,78.6,54.5,78.7,54.8z"/>
							<path class="st38" d="M101.7,56.5c0,0.2-0.4,0.6-0.8,0.6c-0.5,0-0.4-0.6,0-0.9C101.1,56,101.5,56.3,101.7,56.5z"/>
							<path class="st38" d="M120.3,67c0,0.2-0.4,0.6-0.8,0.6c-0.5,0-0.4-0.6,0-0.9C119.8,66.5,120.2,66.7,120.3,67z"/>
							<path class="st38" d="M77.4,62.6c-0.2,0.2-0.9,0.1-1.2-0.3c-0.3-0.5,0.3-0.8,0.9-0.7C77.5,61.7,77.6,62.4,77.4,62.6z"/>
							<path class="st38" d="M78.9,70c-0.2-0.1-0.3-0.6,0-0.9c0.3-0.3,0.6,0,0.6,0.5C79.5,69.9,79,70.1,78.9,70z"/>
							<path class="st26" d="M84.8,25.3c5.3-1.3,10.2,2.1,11.3,1.2c1.1-0.9-4-5-6.2-6.1c-2.3-1.1-6.3-0.1-11.1-1.8
								c-4.8-1.7-7.9,1.5-8,4.6C70.6,29.2,79.5,26.5,84.8,25.3z"/>
							<path class="st39" d="M78.3,38.5c6.7-2.2,22.2-6.3,25.3-7s2.8-0.9-0.4-0.9S88,33.7,84.1,35.1C78.4,37.2,71.6,40.7,78.3,38.5z
								"/>
						</g>
					</g>
				</g>
			</g>
		</g>
	</g>
</g>
</svg>
