<?xml version="1.0" encoding="utf-8"?>
<!-- Generator: Adobe Illustrator 21.0.0, SVG Export Plug-In . SVG Version: 6.00 Build 0)  -->
<svg version="1.1" id="Layer_1" xmlns="http://www.w3.org/2000/svg" xmlns:xlink="http://www.w3.org/1999/xlink" x="0px" y="0px"
	 viewBox="0 0 180 180" style="enable-background:new 0 0 180 180;" xml:space="preserve">
<style type="text/css">
	.st0{fill:#FFFFFF;}
	.st1{display:none;}
	.st2{display:inline;}
	.st3{fill:url(#SVGID_10_);}
	.st4{fill:#F47769;}
	.st5{clip-path:url(#SVGID_13_);}
	.st6{fill:#FBC6A4;}
	.st7{fill:#EAAD85;}
	.st8{fill:#DE9173;}
	.st9{fill:#BEA373;}
	.st10{fill:#B09462;}
	.st11{fill:#5E4D4E;}
	.st12{fill:#385546;}
	.st13{fill:#476B58;}
	.st14{fill:#CFD1D2;}
	.st15{fill:#B7B9BB;}
	.st16{fill:#E5E6E6;}
	.st17{fill:#4D1F1C;}
	.st18{fill:#EC756C;}
	.st19{fill:#E07669;}
	.st20{fill:#F6A094;}
	.st21{fill:#DDDFE0;}
	.st22{fill:#B2A297;}
	.st23{fill:#262223;}
	.st24{fill:#412820;}
	.st25{fill:#F2F2F2;}
	.st26{fill:#D9DADE;}
	.st27{fill:#C08E76;}
	.st28{clip-path:url(#SVGID_17_);}
	.st29{clip-path:url(#SVGID_19_);fill:url(#SVGID_20_);}
	.st30{fill:url(#SVGID_22_);}
	.st31{clip-path:url(#SVGID_25_);}
	.st32{clip-path:url(#SVGID_26_);fill:url(#SVGID_27_);}
	.st33{fill:url(#SVGID_28_);}
	.st34{clip-path:url(#SVGID_31_);}
	.st35{clip-path:url(#SVGID_32_);fill:url(#SVGID_33_);}
	.st36{fill:url(#SVGID_34_);}
	.st37{fill:#373537;}
	.st38{clip-path:url(#SVGID_37_);}
	.st39{clip-path:url(#SVGID_38_);fill:url(#SVGID_39_);}
	.st40{fill:url(#SVGID_40_);}
	.st41{clip-path:url(#SVGID_43_);}
	.st42{clip-path:url(#SVGID_44_);fill:url(#SVGID_45_);}
	.st43{fill:url(#SVGID_46_);}
	.st44{clip-path:url(#SVGID_49_);}
	.st45{clip-path:url(#SVGID_50_);fill:url(#SVGID_51_);}
	.st46{fill:url(#SVGID_52_);}
	.st47{fill:#D5956A;}
	.st48{fill:#D5954D;}
	.st49{fill:#B27447;}
	.st50{fill:#557866;}
</style>
<rect class="st0" width="180" height="180"/>
<g>
	<g>
		<g>
			<g class="st1">
				<g class="st2">
					<g>
						
							<radialGradient id="SVGID_10_" cx="96.3333" cy="-12" r="167.1662" gradientTransform="matrix(1 0 0 1 0 96)" gradientUnits="userSpaceOnUse">
							<stop  offset="0" style="stop-color:#FFFFFF"/>
							<stop  offset="1" style="stop-color:#FFA194;stop-opacity:0.6"/>
						</radialGradient>
						<rect id="SVGID_2_" x="0.4" y="0.1" class="st3" width="180" height="180"/>
					</g>
				</g>
			</g>
			<g>
				<g>
					<g>
						<path class="st4" d="M168.9,173.6h-2.6V173h2.6V173.6z M163.1,173.6h-2.6V173h2.6V173.6z M157.3,173.6h-2.6V173h2.6V173.6z
							 M151.5,173.6H149V173h2.6v0.6H151.5z M145.8,173.6h-2.6V173h2.6V173.6z M140,173.6h-2.6V173h2.6V173.6z M134.2,173.6h-2.6
							V173h2.6V173.6z M128.5,173.6h-2.6V173h2.6V173.6z M122.7,173.6h-2.6V173h2.6V173.6z M116.9,173.6h-2.6V173h2.6V173.6z
							 M111.2,173.6h-2.6V173h2.6V173.6z M105.4,173.6h-2.6V173h2.6V173.6z M99.6,173.6H97V173h2.6V173.6z M93.9,173.6h-2.6V173h2.6
							V173.6z M88.1,173.6h-2.6V173h2.6V173.6z M82.3,173.6h-2.6V173h2.6V173.6z M76.5,173.6H74V173h2.6L76.5,173.6L76.5,173.6z
							 M70.8,173.6h-2.6V173h2.6V173.6z M65,173.6h-2.6V173H65V173.6z M59.2,173.6h-2.6V173h2.6V173.6z M53.5,173.6h-2.6V173h2.6
							V173.6z M47.7,173.6h-2.6V173h2.6V173.6z M41.9,173.6h-2.6V173h2.6V173.6z M36.2,173.6h-2.6V173h2.6V173.6z M30.4,173.6h-2.6
							V173h2.6V173.6z M24.6,173.6H22V173h2.6V173.6z M18.9,173.6h-2.6V173h2.6V173.6z M13.1,173.6H12c-0.5,0-1-0.1-1.5-0.2l0.2-0.6
							c0.4,0.1,0.9,0.2,1.3,0.2h1.1V173.6z M171.5,172.8l-0.3-0.5c0.7-0.4,1.2-1,1.6-1.8l0.6,0.3
							C172.9,171.6,172.3,172.3,171.5,172.8z M7.8,171.3c-0.5-0.8-0.8-1.7-0.8-2.6h0.6c0,0.8,0.3,1.6,0.7,2.2L7.8,171.3z
							 M173.9,167.5h-0.6V165h0.6V167.5z M7.6,165.5H6.9V163h0.6L7.6,165.5L7.6,165.5z M173.9,161.8h-0.6v-2.6h0.6V161.8z
							 M7.6,159.8H6.9v-2.6h0.6L7.6,159.8L7.6,159.8z M173.9,156h-0.6v-2.6h0.6V156z M7.6,154H6.9v-2.6h0.6L7.6,154L7.6,154z
							 M173.9,150.2h-0.6v-2.6h0.6V150.2z M7.6,148.2H6.9v-2.6h0.6L7.6,148.2L7.6,148.2z M173.9,144.4h-0.6v-2.6h0.6V144.4z
							 M7.6,142.4H6.9v-2.6h0.6L7.6,142.4L7.6,142.4z M173.9,138.7h-0.6v-2.6h0.6V138.7z M7.6,136.7H6.9v-2.6h0.6L7.6,136.7
							L7.6,136.7z M173.9,132.9h-0.6v-2.6h0.6V132.9z M7.6,130.9H6.9v-2.6h0.6L7.6,130.9L7.6,130.9z M173.9,127.1h-0.6v-2.6h0.6
							V127.1z M7.6,125.1H6.9v-2.6h0.6L7.6,125.1L7.6,125.1z M173.9,121.4h-0.6v-2.6h0.6V121.4z M7.6,119.4H6.9v-2.6h0.6L7.6,119.4
							L7.6,119.4z M173.9,115.6h-0.6V113h0.6V115.6z M7.6,113.6H6.9V111h0.6L7.6,113.6L7.6,113.6z M173.9,109.8h-0.6v-2.6h0.6V109.8
							z M7.6,107.8H6.9v-2.6h0.6L7.6,107.8L7.6,107.8z M173.9,104.1h-0.6v-2.6h0.6V104.1z M7.6,102.1H6.9v-2.6h0.6L7.6,102.1
							L7.6,102.1z M173.9,98.3h-0.6v-2.6h0.6V98.3z M7.6,96.3H6.9v-2.6h0.6L7.6,96.3L7.6,96.3z M173.9,92.5h-0.6V90h0.6V92.5z
							 M7.6,90.5H6.9V88h0.6L7.6,90.5L7.6,90.5z M173.9,86.8h-0.6v-2.6h0.6V86.8z M7.6,84.8H6.9v-2.6h0.6L7.6,84.8L7.6,84.8z
							 M173.9,81h-0.6v-2.6h0.6V81z M7.6,79H6.9v-2.6h0.6L7.6,79L7.6,79z M173.9,75.2h-0.6v-2.6h0.6V75.2z M7.6,73.2H6.9v-2.6h0.6
							L7.6,73.2L7.6,73.2z M173.9,69.4h-0.6v-2.6h0.6V69.4z M7.6,67.4H6.9v-2.6h0.6L7.6,67.4L7.6,67.4z M173.9,63.7h-0.6v-2.6h0.6
							V63.7z M7.6,61.7H6.9v-2.6h0.6L7.6,61.7L7.6,61.7z M173.9,57.9h-0.6v-2.6h0.6V57.9z M7.6,55.9H6.9v-2.6h0.6L7.6,55.9L7.6,55.9
							z M173.9,52.1h-0.6v-2.6h0.6V52.1z M7.6,50.1H6.9v-2.6h0.6L7.6,50.1L7.6,50.1z M173.9,46.4h-0.6v-2.6h0.6V46.4z M7.6,44.4H6.9
							v-2.6h0.6L7.6,44.4L7.6,44.4z M173.9,40.6h-0.6V38h0.6V40.6z M7.6,38.6H6.9V36h0.6L7.6,38.6L7.6,38.6z M173.9,34.8h-0.6v-2.6
							h0.6V34.8z M7.6,32.8H6.9v-2.6h0.6L7.6,32.8L7.6,32.8z M173.9,29.1h-0.6v-2.6h0.6V29.1z M7.6,27.1H6.9v-2.6h0.6L7.6,27.1
							L7.6,27.1z M173.9,23.3h-0.6v-2.6h0.6V23.3z M7.6,21.3H6.9v-2.6h0.6L7.6,21.3L7.6,21.3z M173.9,17.5h-0.6V15h0.6V17.5z
							 M7.6,15.5H6.9V13h0.6L7.6,15.5L7.6,15.5z M173.9,11.8h-0.6v-0.1c0-0.8-0.2-1.5-0.6-2.2l0.6-0.3c0.4,0.8,0.7,1.6,0.7,2.5
							L173.9,11.8L173.9,11.8z M7.9,9.9L7.3,9.7c0.4-0.9,1-1.6,1.7-2.1l0.4,0.5C8.8,8.6,8.2,9.2,7.9,9.9z M170.4,7.6
							c-0.5-0.2-1-0.3-1.6-0.3H168V6.6h0.8c0.6,0,1.2,0.1,1.8,0.3L170.4,7.6z M164.8,7.3h-2.6V6.6h2.6V7.3z M159,7.3h-2.6V6.6h2.6
							V7.3z M153.3,7.3h-2.6V6.6h2.6V7.3z M147.5,7.3h-2.6V6.6h2.6V7.3z M141.7,7.3h-2.6V6.6h2.6V7.3z M136,7.3h-2.6V6.6h2.6V7.3z
							 M130.2,7.3h-2.6V6.6h2.6V7.3z M124.4,7.3h-2.6V6.6h2.6V7.3z M118.6,7.3H116V6.6h2.6V7.3z M112.9,7.3h-2.6V6.6h2.6V7.3z
							 M107.1,7.3h-2.6V6.6h2.6V7.3z M101.3,7.3h-2.6V6.6h2.6V7.3z M95.6,7.3H93V6.6h2.6V7.3z M89.8,7.3h-2.6V6.6h2.6V7.3z M84,7.3
							h-2.6V6.6H84V7.3z M78.3,7.3h-2.6V6.6h2.6V7.3z M72.5,7.3h-2.6V6.6h2.6V7.3z M66.7,7.3h-2.6V6.6h2.6V7.3z M61,7.3h-2.6V6.6H61
							V7.3z M55.2,7.3h-2.6V6.6h2.6V7.3z M49.4,7.3h-2.6V6.6h2.6V7.3z M43.6,7.3H41V6.6h2.6V7.3z M37.9,7.3h-2.6V6.6h2.6V7.3z
							 M32.1,7.3h-2.6V6.6h2.6V7.3z M26.3,7.3h-2.6V6.6h2.6V7.3z M20.6,7.3H18V6.6h2.6V7.3z M14.8,7.3h-2.6V6.6h2.6
							C14.8,6.6,14.8,7.3,14.8,7.3z"/>
					</g>
				</g>
			</g>
		</g>
	</g>
</g>
<g>
	<g>
		<g>
			<g>
				<defs>
					<ellipse id="SVGID_11_" cx="89.7" cy="49.7" rx="129.7" ry="117"/>
				</defs>
				<clipPath id="SVGID_13_">
					<use xlink:href="#SVGID_11_"  style="overflow:visible;"/>
				</clipPath>
				<g class="st5">
					<g>
						<g>
							<path class="st6" d="M118.7,186.6c0,0,2.3,2.1,2.8,3.9c0.5,1.8-0.2,6.4-1.3,7c-0.4,1.6-1.1,2.7-1.7,2.4
								c-0.3,1.3-1.2,2.3-2.5,2.2c-1.2-0.1-0.3-3.4-0.3-3.4s-0.9-5.9-1.5-6.1c-0.5,2.2-0.9,4.4-2.6,4.4c-1.6,0-1.4-2-1.3-4.4
								s1.1-7.2,1.1-7.2L118.7,186.6z"/>
							<path class="st7" d="M111.7,187.8c0,0-0.5,2.6-0.8,4.5c2.4-2.3,7.7-4.7,9.9-2.5c-2-2.3-3.5-3.5-3.5-3.5L111.7,187.8z"/>
							<path class="st8" d="M118.6,199.9C118.5,199.9,118.5,199.9,118.6,199.9c0.5-3.7-0.9-6.9-0.9-6.9v-0.1h0.1
								C117.8,193,119.3,196.2,118.6,199.9C118.7,199.9,118.6,200,118.6,199.9z"/>
							<path class="st8" d="M120.3,197.5C120.2,197.5,120.2,197.5,120.3,197.5c0.5-4.6-0.8-6.3-0.9-6.3v-0.1h0.1
								C119.6,191.2,121,192.9,120.3,197.5C120.4,197.5,120.3,197.6,120.3,197.5L120.3,197.5z"/>
						</g>
						<g>
							<path class="st6" d="M64,248.3c0,0,0.1,34.8-0.4,37.3c-0.1,1.9,0,3.7,0,3.7l7.7,2.4l3.4-4.6c0,0-3.9-1.8-4.3-3.5
								c0.1-4,0.3-32.1,0.2-33.5C70.5,248.8,64,248.3,64,248.3z"/>
							<g>
								<path class="st9" d="M63.5,288c0,0,4.9,2.3,6.8,1.9c0.2-2,1.7-3.9,3.3-4.3c1.6-0.3,2,1.6,2,1.6s10.5,0.5,10.7,8.5
									c-2.9,2.3-5.3,2.2-8.8,1.8c-3.5-0.4-13.5-3.5-14.4-4.3c-0.5-0.6-0.4-1.9-0.4-3.3s-0.1-2.8,0.9-3.4
									C63.6,287.2,63.5,288,63.5,288z"/>
								<path class="st10" d="M62.7,290c0-1.4-0.1-2.8,0.9-3.4c0,0.6-0.1,1.4-0.1,1.4s0.4,0.2,1,0.4c0,1,0,2,0.4,2.4
									c0.9,0.7,10.8,3.8,14.4,4.3c2.7,0.3,4.8,0.5,7-0.6c0.1,0.4,0.1,0.8,0.1,1.2c-2.9,2.3-5.3,2.2-8.8,1.8
									c-3.5-0.4-13.5-3.5-14.4-4.3C62.6,292.7,62.7,291.4,62.7,290z"/>
								<path class="st11" d="M62.8,292.6c0,0-0.7,1.2,0.5,2c1.2,0.7,11.5,3.9,14.4,4.4c2.8,0.4,6.7,0.7,9.1-2.1
									c0.3-1.3-0.5-1.6-0.5-1.6s-0.8,1.5-2.7,2c-2,0.5-6.1,0.6-12-1.1C65.6,294.4,63.2,293.4,62.8,292.6z"/>
							</g>
						</g>
						<g>
							<path class="st6" d="M87.4,243.8c0,0,0.1,34.8-0.4,37.3c-0.1,1.9,0,3.7,0,3.7l7.7,2.4l3.4-4.6c0,0-3.9-1.8-4.3-3.5
								c0.1-4,0.3-32.1,0.2-33.5C93.8,244.3,87.4,243.8,87.4,243.8z"/>
							<g>
								<path class="st9" d="M86.8,283.4c0,0,4.9,2.3,6.8,1.9c0.2-2,1.7-3.9,3.3-4.3c1.6-0.3,2,1.6,2,1.6s10.5,0.5,10.7,8.5
									c-2.9,2.3-5.3,2.2-8.8,1.8c-3.5-0.4-13.5-3.5-14.4-4.3c-0.5-0.6-0.4-1.9-0.4-3.3s-0.1-2.8,0.9-3.4
									C86.9,282.7,86.8,283.4,86.8,283.4z"/>
								<path class="st10" d="M86.1,285.5c0-1.4-0.1-2.8,0.9-3.4c0,0.6-0.1,1.4-0.1,1.4s0.4,0.2,1,0.4c0,1,0,2,0.4,2.4
									c0.8,0.7,10.8,3.8,14.4,4.3c2.7,0.3,4.8,0.5,7-0.6c0.1,0.4,0.1,0.8,0.1,1.2c-2.9,2.3-5.3,2.2-8.8,1.8
									c-3.5-0.4-13.5-3.5-14.4-4.3C86,288.1,86.1,286.8,86.1,285.5z"/>
								<path class="st11" d="M86.2,288c0,0-0.7,1.2,0.5,2c1.2,0.7,11.5,3.9,14.4,4.4c2.8,0.4,6.7,0.7,9.1-2.1
									c0.3-1.3-0.5-1.6-0.5-1.6s-0.8,1.5-2.7,2c-2,0.5-6.1,0.6-12-1.1C89,289.8,86.6,288.8,86.2,288z"/>
							</g>
						</g>
						<path class="st12" d="M107.6,101.8c0,0,3.1,2,6.2,8.7c5.4,11.8,1.9,42.9,6,76.1c-3.6,1.5-7.6,3.1-11.1,0.5
							c-3.2-6-3.3-26.4-2.9-31.2c0.5-7.3,0.1-18.7,0.1-20.1C105.9,135.4,107.6,101.8,107.6,101.8z"/>
						<path class="st13" d="M109.2,102.8c-2.8-2.3-7.5-4.4-7.5-4.4l-19.9-1.6c-0.8,0-12.8,2.3-21.7,8.3c-7.4,5-14.5,24.4-12.1,51.2
							c-2,4.3-9.1,25.3-0.5,50.3c-0.8,9.6-5.6,34.4-4.8,39.5c3.3,6.8,14.5,8.6,30.2,9.4c13.3,0.7,40.1-1.8,43.9-10.2
							c0.5-5.1-3-18.8-3.7-25.1c-0.5-12.4-2.2-44.9-8.5-61.3c-0.8-5.8,0-13.4,0.5-16.7c2.8-0.2,9-4,10.6-13.5
							C117.2,118.6,113.1,106,109.2,102.8z"/>
						<path class="st12" d="M48.7,158c0,0-7.3,28.1,1.3,47c-0.8,5.2-6,37.5-5,40.9c1.1,3.4,32.8,11.3,58.8,2.6
							c-34.6-0.8-56.9,2.9-48.8-41.7C47.9,184.2,48.7,158,48.7,158z"/>
						<path class="st0" d="M84.9,95.4c0,0-3-1.1-5.2,2.2c-2.2,3.4-1.1,12.9,4.4,18.4c5.6,5.5,10.7,0.7,11.7-5.6
							C91.6,108.6,85.6,105.7,84.9,95.4z"/>
						<path class="st0" d="M101.2,98.5c0,0,2.4,7.7-5.4,11.8c0.9,4.3,5.2,9.3,8.6,7.5c5.4-2.8,3-14,0.4-17.9
							C103.9,99,101.2,98.5,101.2,98.5z"/>
						<path class="st6" d="M85.8,91.1c0,0-0.5,3-0.9,4.3c-1.3,1.5-1.4,14.5,10.9,14.9c5.7,0.3,8.8-5.5,5.8-11
							c0.5-4.2-0.1-3.7-0.1-3.7L85.8,91.1z"/>
						<path class="st7" d="M85.8,91.1l15.7,4.6c0,0,0.6-0.5,0.1,3.7c0.3,0.6,0.5,1.1,0.7,1.7c-1.2,1.5-3.1,2.5-5.5,2.4
							c-5.2-0.2-9.4-1.7-12.4-3.6c-0.2-2.1,0.1-3.9,0.5-4.4C85.3,94.1,85.8,91.1,85.8,91.1z"/>
						<g>
							<path class="st14" d="M58.5,49c0,0-5.4-2.9-6.5-12.7c-1.1-9.9,8.5-16.4,11.6-16.8c4.1-5.2,14.7-8.4,20.2-6.3
								c6.6-2.8,23,4.3,20.5,18.1C92.7,33.3,58.5,49,58.5,49z"/>
							<path class="st15" d="M94.9,16.9c6,3,10.9,10.9,4.8,17.1C71.3,46.7,60.2,49.1,60.2,49.1s-7.5-7-6.8-16.9
								c7.5,4.2,10.7,4.8,19.3-0.8C81.4,25.7,102.5,29.9,94.9,16.9z"/>
							<path class="st16" d="M117.4,73.4c3.3-2.5,7.4-9.9,7.7-19.5c0.3-10.3-8.9-28.3-26.6-24c-11.9-4.2-30.4,2.6-37.7,13
								s-5.1,23.4-3.2,30.8C59.5,81.1,66.1,88.5,70,86C73.4,80.1,117.4,73.4,117.4,73.4z"/>
							<path class="st6" d="M68.4,82.6c0,0,2.8,13.6,22.9,16.7c2.2,3,7.6,3.3,10.6,0.4c4.3-1.9,16.1-7.9,17.5-15.1
								c1.3-7.2-1.3-11.4-2.1-14.3c-0.7-3,1.2-16.1-0.4-19.1c-1.8-3.9-20.6-15.1-20.6-15.1L65.9,54.8L66,66.1
								C66,66.1,66.4,78.5,68.4,82.6z"/>
							<path class="st7" d="M67.9,78.5c0,0,2.9,14,23.6,17.2c2.3,3.1,7.9,3.4,10.9,0.5c4-1.8,14-6.8,17.2-13.1
								c-0.1,0.5-0.1,1-0.2,1.6c0,0.1-0.1,0.3-0.1,0.4c-3.1,6.4-13.2,11.5-17.2,13.3c-3.1,2.9-8.6,2.6-10.9-0.5
								c-14-2.2-19.9-9.4-22.2-13.7c-0.4-1-0.5-1.6-0.5-1.6c-1-2-1.6-6.2-1.9-9.8C66.8,75.1,67.3,77.2,67.9,78.5z"/>
							<path class="st7" d="M66,65l-0.2-11.4l14.4-8.9l16.1-8l13,6.6c3.7,2.6,6.8,5.1,7.5,6.6c0.6,1.1,0.7,3.5,0.7,6.2
								c-1.1-1.4-2.3-2.3-2.9-2.5c-0.2,0.7-1.4,2.4-1.7,2c0.2-1.8-4.3-4.9-6.9-5.8c-2.6-0.9-5-2.9-6.7-4.4c-0.8,4-15.5,6.5-18.9,9
								s-4,6.4-4.6,7.6c-0.9,0.2-1.6-1.3-1.9-3.9c-1.9,2.6-3.6,6.2-3.6,6.2s-0.5-0.5-0.9-1.6c-0.6,1.2-1.8,4.4-2.5,6.7
								c-0.6-0.5-1.2-1.1-1.6-1.7C65.6,66.2,66,65,66,65z"/>
							<path class="st16" d="M121.4,47.4c3,6.3,0.2,13.3-0.8,13.7c0-4.4-4.6-9.1-6-9.6c-0.2,0.7-1.4,2.4-1.7,2
								c0.2-1.8-4.3-4.9-6.9-5.8c-2.6-0.9-5-2.9-6.7-4.4c-0.8,4-15.5,6.5-18.9,9s-4,6.4-4.6,7.6C75,60.1,74.3,58.6,74,56
								c-1.9,2.6-3.6,6.2-3.6,6.2s-0.5-0.5-0.9-1.6c-0.6,1.2-1.8,4.4-2.5,6.7c-5.3-4-4.4-16-4.4-16l33.8-16.7L121.4,47.4z"/>
							<g>
								<g>
									<path class="st17" d="M106.2,84.1c0,0-4.5,2.2-8.5,2c-3.8-0.2-6.5-1.3-7.9-2.5c1.1,2,1.3,3.2,2.8,5.4
										c1.1,1.5,2.8,2.7,5,2.8c2.3,0,4.2-0.8,5.8-2.8C104.5,87.6,105,85.6,106.2,84.1z"/>
									<path class="st18" d="M93.1,88.8c1,0.9,3,2.2,4.6,2.2c1.5,0,4.1-1,5.3-1.9C102,87.5,95,86.6,93.1,88.8z"/>
									<path class="st19" d="M95.7,89.6c0.1,0.7,4,0.9,4.2,0.1C100,88.9,95.6,89,95.7,89.6z"/>
									<path class="st20" d="M89.8,83.6L89.8,83.6c2.2,0.9,4.6,1.4,7.9,1.5c0.1,0,0.2,0,0.3,0c3.8,0.1,8.1-1.1,8.2-1.2V84
										c-1.1,1.7-0.9,7.8-8.2,7.7C91.4,91.9,90.8,85.3,89.8,83.6z M97.8,86.2c-3.2-0.2-5.9-1-7.7-2.3c0.3,0.6,0.6,1.2,0.8,1.7
										c0.5,1.1,3.7,3.9,7.1,3.8c3.9-0.1,5.9-1.6,6.7-2.7c0.5-0.8,0.8-1.6,1.4-2.4C105,84.7,101.1,86.3,97.8,86.2z"/>
								</g>
							</g>
							<path class="st7" d="M97.6,74.6c4.2-2,7.9,2.6,2.2,4.6C101.8,77.4,100.9,74.4,97.6,74.6z"/>
							<g>
								<g>
									<path class="st7" d="M83.7,73.1c0,0-1.3-0.3-1,1.2c0.3,1.1,2.6,3.2,5.9,2.4c3.1-0.8,3.2-2.7,1.9-3.1
										C89.1,73.1,83.7,73.1,83.7,73.1z"/>
									
										<ellipse transform="matrix(0.9925 -0.1224 0.1224 0.9925 -7.9261 11.1759)" class="st0" cx="87" cy="70.1" rx="4.8" ry="5.1"/>
									<path class="st21" d="M86.5,65.5c1.7-0.2,3.4,0.7,4.2,2.2c-0.7-1.1-2-1.4-3.6-1.2c-2.2,0.3-4.2,1.4-3.9,3.7
										c0.3,2.3,2.3,4,4.5,3.7s3.7-2.4,3.5-4.7c-0.1-0.6-0.2-1-0.4-1.4l0,0c0.3,0.5,0.5,1.2,0.6,1.8c0.3,2.5-1.4,4.8-3.8,5.1
										c-2.4,0.3-4.6-1.5-4.9-4.1C82.4,68.1,84.1,65.8,86.5,65.5z"/>
									<path class="st22" d="M88.7,70.1c0.2,1.5-0.8,2.9-2.2,3c-1.4,0.2-2.7-0.9-2.9-2.4c-0.2-1.5,0.8-2.9,2.2-3.1
										C87.2,67.5,88.5,68.6,88.7,70.1z"/>
									<path class="st23" d="M87.6,70.2c0.1,0.9-0.5,1.6-1.3,1.7s-1.6-0.5-1.7-1.4s0.5-1.6,1.3-1.7C86.8,68.7,87.5,69.3,87.6,70.2
										z"/>
									<path class="st0" d="M87.9,68.9c0.1,0.4-0.2,0.8-0.7,0.9c-0.4,0.1-0.8-0.3-0.9-0.7c-0.1-0.4,0.2-0.8,0.7-0.9
										C87.4,68.1,87.8,68.4,87.9,68.9z"/>
									<path class="st0" d="M85.3,71.9c0,0.2-0.1,0.4-0.3,0.5c-0.2,0-0.4-0.1-0.4-0.4c0-0.2,0.1-0.4,0.3-0.5
										C85.1,71.6,85.3,71.7,85.3,71.9z"/>
									<path class="st7" d="M82.1,68.4c0,0,0.1-3.2,2.5-4.2s5.8,1.7,5.8,1.7S85.6,64.6,82.1,68.4z"/>
									<path class="st24" d="M90.3,65.9c0,0-0.1,0-0.4,0c-0.2,0-0.6,0-1,0c-0.2,0-0.4,0-0.7,0c-0.2,0-0.5,0-0.7,0.1
										c-0.3,0-0.5,0.1-0.8,0.1c-0.1,0-0.3,0.1-0.4,0.1s-0.3,0.1-0.4,0.1s-0.3,0.1-0.4,0.1s-0.3,0.1-0.4,0.1
										c-0.3,0.1-0.5,0.2-0.7,0.3c-0.1,0-0.1,0.1-0.2,0.1S84.1,67,84,67c-0.1,0.1-0.2,0.1-0.3,0.2c-0.2,0.1-0.4,0.2-0.6,0.4
										c-0.2,0.1-0.3,0.2-0.5,0.3c-0.1,0.1-0.3,0.2-0.3,0.3c-0.2,0.2-0.3,0.2-0.3,0.2s0.1-0.1,0.2-0.3c0.1-0.1,0.2-0.2,0.3-0.3
										c0.1-0.1,0.3-0.3,0.4-0.4s0.2-0.1,0.3-0.2c0.1-0.1,0.2-0.1,0.3-0.2c0.2-0.1,0.4-0.3,0.7-0.4c0.2-0.1,0.5-0.3,0.7-0.4
										c0.1-0.1,0.3-0.1,0.4-0.2s0.3-0.1,0.4-0.1s0.3-0.1,0.4-0.1s0.3-0.1,0.4-0.1h0.2c0.1,0,0.1,0,0.2,0s0.3,0,0.4,0
										c0.3,0,0.5,0,0.8,0c0.1,0,0.2,0,0.4,0c0.1,0,0.2,0,0.3,0c0.2,0,0.4,0.1,0.6,0.1s0.3,0.1,0.4,0.1
										C90.1,65.8,90.2,65.9,90.3,65.9L90.3,65.9z"/>
								</g>
							</g>
							<g>
								<g>
									<path class="st7" d="M105.5,72.4c0,0-1.2-0.5-1.1,0.9c0.1,1.1,1.8,3.5,5.1,3.4c3-0.2,3.6-1.9,2.4-2.6
										C110.6,73.5,105.5,72.4,105.5,72.4z"/>
									
										<ellipse transform="matrix(8.302624e-02 -0.9965 0.9965 8.302624e-02 30.1514 173.338)" class="st0" cx="109.3" cy="70.3" rx="4.9" ry="4.6"/>
									<path class="st21" d="M109.6,65.7c1.7,0.1,3.1,1.3,3.7,2.9c-0.4-1.2-1.6-1.7-3.2-1.9c-2.2-0.2-4.3,0.5-4.5,2.8
										s1.4,4.3,3.6,4.5s4.1-1.5,4.3-3.8c0-0.6,0-1-0.1-1.4c0.2,0.6,0.3,1.2,0.2,1.8c-0.2,2.5-2.3,4.4-4.7,4.2
										c-2.4-0.2-4.1-2.4-3.9-4.9C105.1,67.4,107.2,65.5,109.6,65.7z"/>
									<path class="st22" d="M110.4,71c-0.1,1.5-1.3,2.5-2.7,2.4c-1.4-0.1-2.4-1.4-2.3-2.8c0.1-1.5,1.3-2.5,2.7-2.4
										C109.6,68.3,110.6,69.6,110.4,71z"/>
									
										<ellipse transform="matrix(8.328576e-02 -0.9965 0.9965 8.328576e-02 28.4356 172.4529)" class="st23" cx="108" cy="70.8" rx="1.6" ry="1.5"/>
									<path class="st0" d="M109.9,69.8c0,0.4-0.4,0.7-0.8,0.7s-0.7-0.4-0.7-0.8s0.4-0.8,0.8-0.7
										C109.6,68.9,109.9,69.3,109.9,69.8z"/>
									
										<ellipse transform="matrix(8.170892e-02 -0.9967 0.9967 8.170892e-02 25.9512 172.4209)" class="st0" cx="106.5" cy="72.1" rx="0.4" ry="0.4"/>
									<path class="st7" d="M104.9,67.7c0,0,0.7-3,3.1-3.4c2.5-0.5,5.1,2.7,5.1,2.7S108.9,64.8,104.9,67.7z"/>
									<path class="st24" d="M113.1,67c0,0-0.1,0-0.4-0.1c-0.2-0.1-0.6-0.1-0.9-0.2c-0.2,0-0.4-0.1-0.6-0.1s-0.5-0.1-0.7-0.1
										s-0.5,0-0.8,0c-0.1,0-0.3,0-0.4,0s-0.3,0-0.4,0s-0.3,0-0.4,0s-0.3,0-0.4,0.1c-0.3,0-0.5,0.1-0.7,0.1c-0.1,0-0.1,0-0.2,0
										s-0.1,0-0.2,0.1c-0.1,0-0.2,0.1-0.3,0.1c-0.2,0.1-0.4,0.1-0.6,0.2s-0.4,0.1-0.5,0.2s-0.3,0.1-0.4,0.2
										c-0.2,0.1-0.3,0.2-0.3,0.2s0.1-0.1,0.3-0.2c0.1-0.1,0.2-0.2,0.3-0.3c0.1-0.1,0.3-0.2,0.5-0.3c0.1-0.1,0.2-0.1,0.3-0.2
										c0.1-0.1,0.2-0.1,0.3-0.1c0.2-0.1,0.4-0.2,0.7-0.3c0.2-0.1,0.5-0.2,0.8-0.2c0.1,0,0.3,0,0.4-0.1c0.1,0,0.3,0,0.4,0
										s0.3,0,0.4,0s0.3,0,0.4,0h0.2c0.1,0,0.1,0,0.2,0s0.3,0,0.4,0c0.3,0,0.5,0.1,0.7,0.1c0.1,0,0.2,0.1,0.3,0.1
										c0.1,0,0.2,0.1,0.3,0.1c0.2,0.1,0.4,0.1,0.5,0.2s0.3,0.1,0.4,0.2C112.9,66.8,113,66.9,113.1,67L113.1,67z"/>
								</g>
							</g>
							<g>
								<path class="st7" d="M106.8,61.7L106.8,61.7v-0.2l0,0c0,0,0-0.1,0-0.2l0,0c0-0.1,0-0.1,0-0.2l0,0l0,0
									c0.3-0.8,1.2-1.9,2.2-1.9c1.7,0,3.4,0.9,4.5,1.9l0,0l0,0c0.1,0.1,0.2,0.2,0.3,0.2l0,0c0.2,0.2,0.4,0.4,0.6,0.7
									c0,0,0,0,0,0.1l0.1,0.1c0,0,0,0.1,0.1,0.1c0,0,0,0.1,0.1,0.1c0,0.1,0,0.1,0.1,0.2v0.1c0,0.1,0,0.2,0,0.2
									C111.5,61.2,107,62.4,106.8,61.7z"/>
								<path class="st25" d="M108.7,58.8c-1.3,0-2.3,1.8-2.1,2.4c0.2,0.6,4.5-0.5,7.6,1.2C114.2,61.1,111.5,58.9,108.7,58.8z"/>
								<path class="st26" d="M107.1,60.9c0-0.1,0-0.3,0-0.5l0,0c0.2,0.5,3.1-0.4,5.7,0.6c0-0.2-0.1-0.5-0.2-0.7
									c0.6,0.5,1,1.1,1,1.6C111,60.4,107.2,61.4,107.1,60.9z"/>
							</g>
							<g>
								<path class="st7" d="M86.8,62.2L86.8,62.2V62l0,0c0,0,0-0.1,0-0.2l0,0c0-0.1,0-0.1,0-0.2l0,0l0,0c-0.3-0.8-1.2-1.9-2.2-1.9
									c-1.7,0-3.4,0.9-4.5,1.9l0,0l0,0c-0.1,0.1-0.2,0.2-0.3,0.2l0,0c-0.2,0.2-0.4,0.4-0.6,0.7c0,0,0,0,0,0.1l-0.1,0.1
									c0,0,0,0.1-0.1,0.1c0,0,0,0.1-0.1,0.1c0,0.1,0,0.1-0.1,0.2v0.1c0,0.1,0,0.2,0,0.2C82.1,61.6,86.6,62.8,86.8,62.2z"/>
								<path class="st25" d="M84.9,59.2c1.3,0,2.3,1.8,2.1,2.4c-0.2,0.6-4.6-0.5-7.6,1.2C79.4,61.5,82.1,59.3,84.9,59.2z"/>
								<path class="st26" d="M86.5,61.3c0-0.1,0-0.3,0-0.5l0,0c-0.2,0.5-3.1-0.4-5.7,0.6c0-0.2,0.1-0.5,0.2-0.7
									c-0.6,0.5-1,1.1-1,1.6C82.6,60.8,86.4,61.8,86.5,61.3z"/>
							</g>
							<g>
								<path class="st27" d="M115.9,59.8c-0.8-0.5-1.9-0.2-1.6,0.6s1.3,1.2,1.7,0.9C116.3,61,116.4,60.1,115.9,59.8z"/>
								<path class="st27" d="M72.4,63.5c-0.8,1.2-0.6,2.9,0.7,2.5c1.3-0.3,2.1-1.8,1.7-2.4C74.3,63,72.9,62.7,72.4,63.5z"/>
								<path class="st27" d="M81.9,55.6c-0.3,0.4-0.2,1,0.2,0.9c0.4-0.1,0.7-0.6,0.6-0.8C82.6,55.4,82.1,55.3,81.9,55.6z"/>
								<path class="st27" d="M111,55.4c-0.7,0.1-1.2,0.8-0.6,1.2c0.6,0.3,1.4,0.1,1.4-0.3C111.8,56,111.5,55.3,111,55.4z"/>
								<path class="st27" d="M96.3,51.1c-0.7,0.1-1.2,0.8-0.6,1.2c0.6,0.3,1.4,0.1,1.4-0.3C97.1,51.6,96.8,51,96.3,51.1z"/>
								<path class="st27" d="M75.2,67.2c-0.4,0.3-0.5,1,0,1s0.9-0.4,0.8-0.7C75.9,67.2,75.5,66.9,75.2,67.2z"/>
								<path class="st27" d="M97.6,62.5c-0.4,0.3-0.5,1,0,1s0.9-0.4,0.8-0.7C98.4,62.5,97.9,62.3,97.6,62.5z"/>
								<path class="st27" d="M116.2,81.2c-0.4,0.3-0.5,1,0,1s0.9-0.4,0.8-0.7C117,81.2,116.5,81,116.2,81.2z"/>
								<path class="st27" d="M74.3,75.1c-0.7-0.2-1.3,0.2-1,0.7c0.4,0.5,1.1,0.6,1.3,0.3C74.8,75.9,74.7,75.2,74.3,75.1z"/>
								<path class="st27" d="M76.9,84c0-0.5-0.4-0.9-0.7-0.6c-0.3,0.3-0.2,0.9,0,1S76.9,84.3,76.9,84z"/>
							</g>
							<g>
								<g>
									<g id="SVGID_1_">
										<g>
											<defs>
												<polygon id="SVGID_14_" points="1,1 2,1 1,2 												"/>
											</defs>
											<defs>
												<polygon id="SVGID_16_" points="-1,-1 -2,-1 -1,-2 												"/>
											</defs>
											<clipPath id="SVGID_17_">
												<use xlink:href="#SVGID_14_"  style="overflow:visible;"/>
											</clipPath>
											<clipPath id="SVGID_19_" class="st28">
												<use xlink:href="#SVGID_16_"  style="overflow:visible;"/>
											</clipPath>
											
												<linearGradient id="SVGID_20_" gradientUnits="userSpaceOnUse" x1="164.7262" y1="367.0641" x2="184.1736" y2="382.2837" gradientTransform="matrix(0.9992 -3.990000e-02 -3.990000e-02 -0.9992 -67.9085 444.9128)">
												<stop  offset="0" style="stop-color:#000000"/>
												<stop  offset="7.613736e-02" style="stop-color:#2F2F2F"/>
												<stop  offset="0.1663" style="stop-color:#5F5F5F"/>
												<stop  offset="0.2616" style="stop-color:#8A8A8A"/>
												<stop  offset="0.3604" style="stop-color:#AEAEAE"/>
												<stop  offset="0.4636" style="stop-color:#CCCCCC"/>
												<stop  offset="0.5727" style="stop-color:#E2E2E2"/>
												<stop  offset="0.6902" style="stop-color:#F3F3F3"/>
												<stop  offset="0.8224" style="stop-color:#FCFCFC"/>
												<stop  offset="1" style="stop-color:#FFFFFF"/>
											</linearGradient>
											<polygon class="st29" points="89.4,63.5 79.3,71.6 79.4,73.5 92.6,64.9 											"/>
										</g>
									</g>
									
										<linearGradient id="SVGID_22_" gradientUnits="userSpaceOnUse" x1="164.7262" y1="367.0641" x2="184.1736" y2="382.2837" gradientTransform="matrix(0.9992 -3.990000e-02 -3.990000e-02 -0.9992 -67.9085 444.9128)">
										<stop  offset="0" style="stop-color:#FFFFFF"/>
										<stop  offset="0.1078" style="stop-color:#FFFFFF"/>
										<stop  offset="1" style="stop-color:#FFFFFF"/>
									</linearGradient>
									<polygon class="st30" points="89.4,63.5 79.3,71.6 79.4,73.5 92.6,64.9 									"/>
									<g id="SVGID_3_">
										<g>
											<defs>
												<polygon id="SVGID_23_" points="1,1 2,1 1,2 												"/>
											</defs>
											<defs>
												<polygon id="SVGID_24_" points="-1,-1 -2,-1 -1,-2 												"/>
											</defs>
											<clipPath id="SVGID_25_">
												<use xlink:href="#SVGID_23_"  style="overflow:visible;"/>
											</clipPath>
											<clipPath id="SVGID_26_" class="st31">
												<use xlink:href="#SVGID_24_"  style="overflow:visible;"/>
											</clipPath>
											
												<linearGradient id="SVGID_27_" gradientUnits="userSpaceOnUse" x1="166.2749" y1="365.0853" x2="185.7205" y2="380.3036" gradientTransform="matrix(0.9992 -3.990000e-02 -3.990000e-02 -0.9992 -67.9085 444.9128)">
												<stop  offset="0" style="stop-color:#000000"/>
												<stop  offset="7.613736e-02" style="stop-color:#2F2F2F"/>
												<stop  offset="0.1663" style="stop-color:#5F5F5F"/>
												<stop  offset="0.2616" style="stop-color:#8A8A8A"/>
												<stop  offset="0.3604" style="stop-color:#AEAEAE"/>
												<stop  offset="0.4636" style="stop-color:#CCCCCC"/>
												<stop  offset="0.5727" style="stop-color:#E2E2E2"/>
												<stop  offset="0.6902" style="stop-color:#F3F3F3"/>
												<stop  offset="0.8224" style="stop-color:#FCFCFC"/>
												<stop  offset="1" style="stop-color:#FFFFFF"/>
											</linearGradient>
											<polygon class="st32" points="93.3,65.5 80.5,74.5 80.8,75.4 94.1,66.3 											"/>
										</g>
									</g>
									
										<linearGradient id="SVGID_28_" gradientUnits="userSpaceOnUse" x1="166.2749" y1="365.0853" x2="185.7205" y2="380.3036" gradientTransform="matrix(0.9992 -3.990000e-02 -3.990000e-02 -0.9992 -67.9085 444.9128)">
										<stop  offset="0" style="stop-color:#FFFFFF"/>
										<stop  offset="0.1078" style="stop-color:#FFFFFF"/>
										<stop  offset="1" style="stop-color:#FFFFFF"/>
									</linearGradient>
									<polygon class="st33" points="93.3,65.5 80.5,74.5 80.8,75.4 94.1,66.3 									"/>
									<g id="SVGID_4_">
										<g>
											<defs>
												<polygon id="SVGID_29_" points="1,1 2,1 1,2 												"/>
											</defs>
											<defs>
												<polygon id="SVGID_30_" points="-1,-1 -2,-1 -1,-2 												"/>
											</defs>
											<clipPath id="SVGID_31_">
												<use xlink:href="#SVGID_29_"  style="overflow:visible;"/>
											</clipPath>
											<clipPath id="SVGID_32_" class="st34">
												<use xlink:href="#SVGID_30_"  style="overflow:visible;"/>
											</clipPath>
											
												<linearGradient id="SVGID_33_" gradientUnits="userSpaceOnUse" x1="170.2306" y1="360.0299" x2="189.6727" y2="375.2455" gradientTransform="matrix(0.9992 -3.990000e-02 -3.990000e-02 -0.9992 -67.9085 444.9128)">
												<stop  offset="0" style="stop-color:#000000"/>
												<stop  offset="7.613736e-02" style="stop-color:#2F2F2F"/>
												<stop  offset="0.1663" style="stop-color:#5F5F5F"/>
												<stop  offset="0.2616" style="stop-color:#8A8A8A"/>
												<stop  offset="0.3604" style="stop-color:#AEAEAE"/>
												<stop  offset="0.4636" style="stop-color:#CCCCCC"/>
												<stop  offset="0.5727" style="stop-color:#E2E2E2"/>
												<stop  offset="0.6902" style="stop-color:#F3F3F3"/>
												<stop  offset="0.8224" style="stop-color:#FCFCFC"/>
												<stop  offset="1" style="stop-color:#FFFFFF"/>
											</linearGradient>
											<polygon class="st35" points="94.9,70.8 86,79.1 88.7,79.2 95.2,71.7 											"/>
										</g>
									</g>
									
										<linearGradient id="SVGID_34_" gradientUnits="userSpaceOnUse" x1="170.2306" y1="360.0299" x2="189.6727" y2="375.2455" gradientTransform="matrix(0.9992 -3.990000e-02 -3.990000e-02 -0.9992 -67.9085 444.9128)">
										<stop  offset="0" style="stop-color:#FFFFFF"/>
										<stop  offset="0.1078" style="stop-color:#FFFFFF"/>
										<stop  offset="1" style="stop-color:#FFFFFF"/>
									</linearGradient>
									<polygon class="st36" points="94.9,70.8 86,79.1 88.7,79.2 95.2,71.7 									"/>
									<path class="st37" d="M87.1,62.9c-4.5,0.2-8.1,4-7.9,8.6c0.2,4.5,4,8.1,8.6,7.9c4.5-0.2,8.1-4,7.9-8.6
										C95.4,66.2,91.6,62.7,87.1,62.9z M87.7,78.6c-4.2,0.2-7.6-3.1-7.8-7.2c-0.2-4.2,3.1-7.6,7.2-7.8c4.2-0.2,7.6,3.1,7.8,7.2
										C95.1,75,91.8,78.5,87.7,78.6z"/>
									<g>
										<g id="SVGID_5_">
											<g>
												<defs>
													<polygon id="SVGID_35_" points="1,1 2,1 1,2 													"/>
												</defs>
												<defs>
													<polygon id="SVGID_36_" points="-1,-1 -2,-1 -1,-2 													"/>
												</defs>
												<clipPath id="SVGID_37_">
													<use xlink:href="#SVGID_35_"  style="overflow:visible;"/>
												</clipPath>
												<clipPath id="SVGID_38_" class="st38">
													<use xlink:href="#SVGID_36_"  style="overflow:visible;"/>
												</clipPath>
												
													<linearGradient id="SVGID_39_" gradientUnits="userSpaceOnUse" x1="183.3562" y1="363.1722" x2="206.065" y2="382.8615" gradientTransform="matrix(0.9992 -3.990000e-02 -3.990000e-02 -0.9992 -67.9085 444.9128)">
													<stop  offset="0" style="stop-color:#000000"/>
													<stop  offset="7.613736e-02" style="stop-color:#2F2F2F"/>
													<stop  offset="0.1663" style="stop-color:#5F5F5F"/>
													<stop  offset="0.2616" style="stop-color:#8A8A8A"/>
													<stop  offset="0.3604" style="stop-color:#AEAEAE"/>
													<stop  offset="0.4636" style="stop-color:#CCCCCC"/>
													<stop  offset="0.5727" style="stop-color:#E2E2E2"/>
													<stop  offset="0.6902" style="stop-color:#F3F3F3"/>
													<stop  offset="0.8224" style="stop-color:#FCFCFC"/>
													<stop  offset="1" style="stop-color:#FFFFFF"/>
												</linearGradient>
												<polygon class="st39" points="112.1,62.6 102,70.7 102,72.5 115.3,64 												"/>
											</g>
										</g>
										
											<linearGradient id="SVGID_40_" gradientUnits="userSpaceOnUse" x1="183.3562" y1="363.1722" x2="206.065" y2="382.8615" gradientTransform="matrix(0.9992 -3.990000e-02 -3.990000e-02 -0.9992 -67.9085 444.9128)">
											<stop  offset="0" style="stop-color:#FFFFFF"/>
											<stop  offset="0.1078" style="stop-color:#FFFFFF"/>
											<stop  offset="1" style="stop-color:#FFFFFF"/>
										</linearGradient>
										<polygon class="st40" points="112.1,62.6 102,70.7 102,72.5 115.3,64 										"/>
										<g id="SVGID_7_">
											<g>
												<defs>
													<polygon id="SVGID_41_" points="1,1 2,1 1,2 													"/>
												</defs>
												<defs>
													<polygon id="SVGID_42_" points="-1,-1 -2,-1 -1,-2 													"/>
												</defs>
												<clipPath id="SVGID_43_">
													<use xlink:href="#SVGID_41_"  style="overflow:visible;"/>
												</clipPath>
												<clipPath id="SVGID_44_" class="st41">
													<use xlink:href="#SVGID_42_"  style="overflow:visible;"/>
												</clipPath>
												
													<linearGradient id="SVGID_45_" gradientUnits="userSpaceOnUse" x1="184.9872" y1="361.289" x2="207.7037" y2="380.9852" gradientTransform="matrix(0.9992 -3.990000e-02 -3.990000e-02 -0.9992 -67.9085 444.9128)">
													<stop  offset="0" style="stop-color:#000000"/>
													<stop  offset="7.613736e-02" style="stop-color:#2F2F2F"/>
													<stop  offset="0.1663" style="stop-color:#5F5F5F"/>
													<stop  offset="0.2616" style="stop-color:#8A8A8A"/>
													<stop  offset="0.3604" style="stop-color:#AEAEAE"/>
													<stop  offset="0.4636" style="stop-color:#CCCCCC"/>
													<stop  offset="0.5727" style="stop-color:#E2E2E2"/>
													<stop  offset="0.6902" style="stop-color:#F3F3F3"/>
													<stop  offset="0.8224" style="stop-color:#FCFCFC"/>
													<stop  offset="1" style="stop-color:#FFFFFF"/>
												</linearGradient>
												<polygon class="st42" points="116,64.6 103.2,73.6 103.5,74.5 116.8,65.4 												"/>
											</g>
										</g>
										
											<linearGradient id="SVGID_46_" gradientUnits="userSpaceOnUse" x1="184.9872" y1="361.289" x2="207.7037" y2="380.9852" gradientTransform="matrix(0.9992 -3.990000e-02 -3.990000e-02 -0.9992 -67.9085 444.9128)">
											<stop  offset="0" style="stop-color:#FFFFFF"/>
											<stop  offset="0.1078" style="stop-color:#FFFFFF"/>
											<stop  offset="1" style="stop-color:#FFFFFF"/>
										</linearGradient>
										<polygon class="st43" points="116,64.6 103.2,73.6 103.5,74.5 116.8,65.4 										"/>
										<g id="SVGID_8_">
											<g>
												<defs>
													<polygon id="SVGID_47_" points="1,1 2,1 1,2 													"/>
												</defs>
												<defs>
													<polygon id="SVGID_48_" points="-1,-1 -2,-1 -1,-2 													"/>
												</defs>
												<clipPath id="SVGID_49_">
													<use xlink:href="#SVGID_47_"  style="overflow:visible;"/>
												</clipPath>
												<clipPath id="SVGID_50_" class="st44">
													<use xlink:href="#SVGID_48_"  style="overflow:visible;"/>
												</clipPath>
												
													<linearGradient id="SVGID_51_" gradientUnits="userSpaceOnUse" x1="189.1655" y1="356.4714" x2="211.8775" y2="376.1636" gradientTransform="matrix(0.9992 -3.990000e-02 -3.990000e-02 -0.9992 -67.9085 444.9128)">
													<stop  offset="0" style="stop-color:#000000"/>
													<stop  offset="1" style="stop-color:#FFFFFF"/>
												</linearGradient>
												<polygon class="st45" points="117.6,69.9 108.7,78.2 111.3,78.3 117.9,70.8 												"/>
											</g>
										</g>
										
											<linearGradient id="SVGID_52_" gradientUnits="userSpaceOnUse" x1="189.1655" y1="356.4714" x2="211.8775" y2="376.1636" gradientTransform="matrix(0.9992 -3.990000e-02 -3.990000e-02 -0.9992 -67.9085 444.9128)">
											<stop  offset="0" style="stop-color:#FFFFFF"/>
											<stop  offset="1" style="stop-color:#FFFFFF"/>
										</linearGradient>
										<polygon class="st46" points="117.6,69.9 108.7,78.2 111.3,78.3 117.9,70.8 										"/>
										<path class="st37" d="M109.8,62c-4.5,0.2-8.1,4-7.9,8.6c0.2,4.5,4,8.1,8.6,7.9c4.5-0.2,8.1-4,7.9-8.6
											C118.1,65.3,114.3,61.8,109.8,62z M110.4,77.7c-4.2,0.2-7.7-3.1-7.8-7.2c-0.2-4.1,3.1-7.6,7.2-7.8s7.7,3.1,7.8,7.2
											C117.8,74,114.5,77.5,110.4,77.7z"/>
										<polygon class="st37" points="102,70.7 95.5,70.9 95.5,70.2 101.9,69.9 										"/>
										<polygon class="st37" points="67,69.2 79.7,69.8 79.6,70.7 67.1,70 										"/>
										<g>
											<path class="st6" d="M69,72c0,0-0.4-4-4.6-4.7c-4.4-0.7-6.2,5.4-3.9,9.4c2.3,4.1,7.2,4.9,8.7,1.7L69,72z"/>
											<path class="st7" d="M64.9,67.8c1.1,0.2,1.8,0.6,2.4,1.1c-0.5-0.4-1.1-0.6-1.8-0.7c-4.1-0.5-4.9,4.3-3.7,7.3
												c1.6,4,5.5,4.8,7.6,2.8c-1.4,2.9-6,2.1-8.2-1.7C59.1,72.8,60.8,67.1,64.9,67.8z"/>
											<path class="st47" d="M63.6,69.1c2.9-0.5,5,5.4,1.1,8.4c1.7-4.1,0.3-5.6-1.8-3.6c0.1-1.4,0.8-2.2,2.5-2
												C65.2,70,63.6,69.1,63.6,69.1z"/>
										</g>
										<path class="st0" d="M100.9,31.6c0,0,7.5-0.2,14.1,4c-6.2-1.6-7-0.8-7-0.8s9.9,3.6,14.9,10.1c-11.5-8.5-22-10.3-22-10.3
											l5.2-1.4L100.9,31.6z"/>
										<path class="st0" d="M93.3,32c0,0-9.9-3.2-25.2,5.6c5.4-2,12.3-1.8,12.3-1.8s-7.9,1.6-15.9,14.1
											c16.7-14.3,29.8-13.7,29.8-13.7l-11.5-2L93.3,32z"/>
										<path class="st14" d="M99.5,39.4c0,0-8.9,5.2-16.3,7.3c-9.7,2.6-8.1,9.5-8.1,9.5s1.6-6.2,14.5-9.1
											C96.6,45.5,99.5,39.4,99.5,39.4z"/>
										<path class="st14" d="M100.7,39.2c0,0,2.4,5.4,7.2,7.5c4.8,2,5.2,4,5.2,4l2-3.4c0,0,5.4,6,3.4,13.7c4-5.2,2.2-13.1-6-17.5
											c0.2,2,0.4,4,0.4,4S101.7,41.6,100.7,39.2z"/>
										<path class="st48" d="M92.3,175.3c2.5,1,9.1,3.9,6.7,7c-2.2,3-8.4-6-13.2-2.4c-3,2.3,6.3,114.7,6.6,123.6
											c-0.1,2.3-3.3,3.1-3.5-0.3c-1.7-37.4-9-116.1-7.4-124.8C82.1,175.8,85.6,172.7,92.3,175.3z"/>
										<g>
											<path class="st6" d="M78.2,163.7l4.7,2.7c0,0,4.7-0.2,7,0.5c2.4,0.7,5.4,2.8,6.2,5.9c1.3,5.3-2.5,6.4-2.5,6.4
												s-1.5,3.6-3.1,1.8c-2.2,1.8-4,2.2-4.3,0.2c0.3-1.7,0.8-2.5,0.8-2.5s-2-1.5-2.8-3.4c-1.6-0.5-2.8-0.3-5-1.2
												c-2.5-1-4.4-2.2-6.2-3.5C70.9,168.5,72.8,158.8,78.2,163.7z"/>
											<path class="st49" d="M90.5,181.1L90.5,181.1c-0.2-0.1-0.2-0.2-0.2-0.3c0,0,0.7-1.5,0.4-3c-0.4-2.1-1.7-3.5-1.7-3.5
												c-0.1-0.1-0.1-0.2,0-0.3s0.2-0.1,0.3,0c0.1,0.1,1.3,1.4,1.8,3.6c0.3,1.7-0.4,3.2-0.4,3.3
												C90.7,181.1,90.6,181.1,90.5,181.1z"/>
											<path class="st49" d="M93.6,179.3L93.6,179.3c-0.2,0-0.2-0.1-0.2-0.2c0,0,0.6-1.8,0.5-3c-0.2-2.4-1.5-3.2-1.5-3.2
												c-0.1-0.1-0.1-0.2-0.1-0.3c0.1-0.1,0.2-0.1,0.2-0.1c0.1,0,1.5,0.9,1.7,3.5c0.1,1.3-0.5,3.1-0.6,3.2
												C93.8,179.3,93.7,179.3,93.6,179.3z"/>
										</g>
										<path class="st12" d="M61.2,104.3c-5.4,3.4-21.3,20.8-17.1,39.2c4.2,18.3,27.3,30.3,28.6,29.3c0.6-4.5,5.4-8.7,7.1-9.1
											c-6.9-5.4-18.7-11.2-22.1-23.6c-2.2-8.3,4.4-16.3,6-20.5C68.3,108.1,61.2,104.3,61.2,104.3z"/>
										<path class="st12" d="M105,142.1c0,0-5.7,3.8-12.2-1.9c-2.6,6.3-16.8,3.9-22.3,1.6c7.1,6,16,5.8,22.3,2.9
											C101.5,149.3,105,142.1,105,142.1z"/>
										<path class="st50" d="M107.5,124c2,3.4-1.7,12.5-7.5,8.2c-5.7-4.3-7.6-0.2-15.4,1.9c-7.8,2.1-9.2-10.7-2.6-12.8
											c6.6-2.1,9.5,3.9,13.9,3.1C100.2,123.7,104.6,119.2,107.5,124z"/>
									</g>
								</g>
							</g>
						</g>
					</g>
				</g>
			</g>
		</g>
	</g>
</g>
</svg>
