<?xml version="1.0" encoding="utf-8"?>
<!-- Generator: Adobe Illustrator 21.0.0, SVG Export Plug-In . SVG Version: 6.00 Build 0)  -->
<svg version="1.1" id="Layer_1" xmlns="http://www.w3.org/2000/svg" xmlns:xlink="http://www.w3.org/1999/xlink" x="0px" y="0px"
	 viewBox="0 0 180 180" style="enable-background:new 0 0 180 180;" xml:space="preserve">
<style type="text/css">
	.st0{fill:#FFFFFF;}
	.st1{fill:#508906;}
	.st2{clip-path:url(#SVGID_2_);}
	.st3{fill:#FBC6A4;}
	.st4{fill:#EAAD85;}
	.st5{fill:#437E49;}
	.st6{fill:#7DAF81;}
	.st7{fill:#295A31;}
	.st8{fill:#DBEDEF;}
	.st9{fill:#C8DDE0;}
	.st10{fill:#AAAAAA;}
	.st11{fill:#848383;}
	.st12{fill:#CCCBCB;}
	.st13{fill:#9F9F9E;}
	.st14{fill:#E0E0DF;}
	.st15{fill:#CE7754;}
	.st16{fill:#3B7241;}
	.st17{fill:#FFE142;}
	.st18{fill:#5B9B62;}
	.st19{fill:#F8AF9A;}
	.st20{fill:#FBD3C4;}
	.st21{fill:#FCD8C1;}
	.st22{fill:#712914;}
	.st23{fill:#4D1F1C;}
	.st24{fill:#321514;}
	.st25{fill:#EC756C;}
	.st26{fill:#F48F87;}
	.st27{fill:#F7B0AD;}
	.st28{fill:#D9DBDC;}
	.st29{fill:#72B5D9;}
	.st30{fill:#231F20;}
	.st31{fill:#D5956A;}
	.st32{fill:#5F1E07;}
	.st33{fill:#8A4A37;}
	.st34{fill:#67ABB9;}
	.st35{fill:#A1CED8;}
	.st36{fill:#4A96A5;}
	.st37{fill:#2C7885;}
</style>
<rect class="st0" width="180" height="180"/>
<rect class="st0" width="180" height="180"/>
<g>
	<g>
		<g>
			<path class="st1" d="M168.9,173.6h-2.6V173h2.6V173.6z M163.1,173.6h-2.6V173h2.6V173.6z M157.3,173.6h-2.6V173h2.6V173.6z
				 M151.5,173.6H149V173h2.6v0.6H151.5z M145.8,173.6h-2.6V173h2.6V173.6z M140,173.6h-2.6V173h2.6V173.6z M134.2,173.6h-2.6V173
				h2.6V173.6z M128.5,173.6h-2.6V173h2.6V173.6z M122.7,173.6h-2.6V173h2.6V173.6z M116.9,173.6h-2.6V173h2.6V173.6z M111.2,173.6
				h-2.6V173h2.6V173.6z M105.4,173.6h-2.6V173h2.6V173.6z M99.6,173.6H97V173h2.6V173.6z M93.9,173.6h-2.6V173h2.6V173.6z
				 M88.1,173.6h-2.6V173h2.6V173.6z M82.3,173.6h-2.6V173h2.6V173.6z M76.5,173.6H74V173h2.6L76.5,173.6L76.5,173.6z M70.8,173.6
				h-2.6V173h2.6V173.6z M65,173.6h-2.6V173H65V173.6z M59.2,173.6h-2.6V173h2.6V173.6z M53.5,173.6h-2.6V173h2.6V173.6z
				 M47.7,173.6h-2.6V173h2.6V173.6z M41.9,173.6h-2.6V173h2.6V173.6z M36.2,173.6h-2.6V173h2.6V173.6z M30.4,173.6h-2.6V173h2.6
				V173.6z M24.6,173.6H22V173h2.6V173.6z M18.9,173.6h-2.6V173h2.6V173.6z M13.1,173.6H12c-0.5,0-1-0.1-1.5-0.2l0.2-0.6
				c0.4,0.1,0.9,0.2,1.3,0.2h1.1V173.6z M171.5,172.8l-0.3-0.5c0.7-0.4,1.2-1,1.6-1.8l0.6,0.3C172.9,171.6,172.3,172.3,171.5,172.8z
				 M7.8,171.3c-0.5-0.8-0.8-1.7-0.8-2.6h0.6c0,0.8,0.3,1.6,0.7,2.2L7.8,171.3z M173.9,167.5h-0.6V165h0.6V167.5z M7.6,165.5H6.9
				V163h0.6L7.6,165.5L7.6,165.5z M173.9,161.8h-0.6v-2.6h0.6V161.8z M7.6,159.8H6.9v-2.6h0.6L7.6,159.8L7.6,159.8z M173.9,156h-0.6
				v-2.6h0.6V156z M7.6,154H6.9v-2.6h0.6L7.6,154L7.6,154z M173.9,150.2h-0.6v-2.6h0.6V150.2z M7.6,148.2H6.9v-2.6h0.6L7.6,148.2
				L7.6,148.2z M173.9,144.4h-0.6v-2.6h0.6V144.4z M7.6,142.4H6.9v-2.6h0.6L7.6,142.4L7.6,142.4z M173.9,138.7h-0.6v-2.6h0.6V138.7z
				 M7.6,136.7H6.9v-2.6h0.6L7.6,136.7L7.6,136.7z M173.9,132.9h-0.6v-2.6h0.6V132.9z M7.6,130.9H6.9v-2.6h0.6L7.6,130.9L7.6,130.9z
				 M173.9,127.1h-0.6v-2.6h0.6V127.1z M7.6,125.1H6.9v-2.6h0.6L7.6,125.1L7.6,125.1z M173.9,121.4h-0.6v-2.6h0.6V121.4z M7.6,119.4
				H6.9v-2.6h0.6L7.6,119.4L7.6,119.4z M173.9,115.6h-0.6V113h0.6V115.6z M7.6,113.6H6.9V111h0.6L7.6,113.6L7.6,113.6z M173.9,109.8
				h-0.6v-2.6h0.6V109.8z M7.6,107.8H6.9v-2.6h0.6L7.6,107.8L7.6,107.8z M173.9,104.1h-0.6v-2.6h0.6V104.1z M7.6,102.1H6.9v-2.6h0.6
				L7.6,102.1L7.6,102.1z M173.9,98.3h-0.6v-2.6h0.6V98.3z M7.6,96.3H6.9v-2.6h0.6L7.6,96.3L7.6,96.3z M173.9,92.5h-0.6V90h0.6V92.5
				z M7.6,90.5H6.9V88h0.6L7.6,90.5L7.6,90.5z M173.9,86.8h-0.6v-2.6h0.6V86.8z M7.6,84.8H6.9v-2.6h0.6L7.6,84.8L7.6,84.8z
				 M173.9,81h-0.6v-2.6h0.6V81z M7.6,79H6.9v-2.6h0.6L7.6,79L7.6,79z M173.9,75.2h-0.6v-2.6h0.6V75.2z M7.6,73.2H6.9v-2.6h0.6
				L7.6,73.2L7.6,73.2z M173.9,69.4h-0.6v-2.6h0.6V69.4z M7.6,67.4H6.9v-2.6h0.6L7.6,67.4L7.6,67.4z M173.9,63.7h-0.6v-2.6h0.6V63.7
				z M7.6,61.7H6.9v-2.6h0.6L7.6,61.7L7.6,61.7z M173.9,57.9h-0.6v-2.6h0.6V57.9z M7.6,55.9H6.9v-2.6h0.6L7.6,55.9L7.6,55.9z
				 M173.9,52.1h-0.6v-2.6h0.6V52.1z M7.6,50.1H6.9v-2.6h0.6L7.6,50.1L7.6,50.1z M173.9,46.4h-0.6v-2.6h0.6V46.4z M7.6,44.4H6.9
				v-2.6h0.6L7.6,44.4L7.6,44.4z M173.9,40.6h-0.6V38h0.6V40.6z M7.6,38.6H6.9V36h0.6L7.6,38.6L7.6,38.6z M173.9,34.8h-0.6v-2.6h0.6
				V34.8z M7.6,32.8H6.9v-2.6h0.6L7.6,32.8L7.6,32.8z M173.9,29.1h-0.6v-2.6h0.6V29.1z M7.6,27.1H6.9v-2.6h0.6L7.6,27.1L7.6,27.1z
				 M173.9,23.3h-0.6v-2.6h0.6V23.3z M7.6,21.3H6.9v-2.6h0.6L7.6,21.3L7.6,21.3z M173.9,17.5h-0.6V15h0.6V17.5z M7.6,15.5H6.9V13
				h0.6L7.6,15.5L7.6,15.5z M173.9,11.8h-0.6v-0.1c0-0.8-0.2-1.5-0.6-2.2l0.6-0.3c0.4,0.8,0.7,1.6,0.7,2.5L173.9,11.8L173.9,11.8z
				 M7.9,9.9L7.3,9.7c0.4-0.9,1-1.6,1.7-2.1l0.4,0.5C8.8,8.6,8.2,9.2,7.9,9.9z M170.4,7.6c-0.5-0.2-1-0.3-1.6-0.3H168V6.6h0.8
				c0.6,0,1.2,0.1,1.8,0.3L170.4,7.6z M164.8,7.3h-2.6V6.6h2.6V7.3z M159,7.3h-2.6V6.6h2.6V7.3z M153.3,7.3h-2.6V6.6h2.6V7.3z
				 M147.5,7.3h-2.6V6.6h2.6V7.3z M141.7,7.3h-2.6V6.6h2.6V7.3z M136,7.3h-2.6V6.6h2.6V7.3z M130.2,7.3h-2.6V6.6h2.6V7.3z
				 M124.4,7.3h-2.6V6.6h2.6V7.3z M118.6,7.3H116V6.6h2.6V7.3z M112.9,7.3h-2.6V6.6h2.6V7.3z M107.1,7.3h-2.6V6.6h2.6V7.3z
				 M101.3,7.3h-2.6V6.6h2.6V7.3z M95.6,7.3H93V6.6h2.6V7.3z M89.8,7.3h-2.6V6.6h2.6V7.3z M84,7.3h-2.6V6.6H84V7.3z M78.3,7.3h-2.6
				V6.6h2.6V7.3z M72.5,7.3h-2.6V6.6h2.6V7.3z M66.7,7.3h-2.6V6.6h2.6V7.3z M61,7.3h-2.6V6.6H61V7.3z M55.2,7.3h-2.6V6.6h2.6V7.3z
				 M49.4,7.3h-2.6V6.6h2.6V7.3z M43.6,7.3H41V6.6h2.6V7.3z M37.9,7.3h-2.6V6.6h2.6V7.3z M32.1,7.3h-2.6V6.6h2.6V7.3z M26.3,7.3
				h-2.6V6.6h2.6V7.3z M20.6,7.3H18V6.6h2.6V7.3z M14.8,7.3h-2.6V6.6h2.6C14.8,6.6,14.8,7.3,14.8,7.3z"/>
		</g>
	</g>
</g>
<g>
	<g>
		<g>
			<g>
				<g>
					<g>
						<defs>
							<ellipse id="SVGID_1_" cx="55.4" cy="56" rx="110.9" ry="100"/>
						</defs>
						<clipPath id="SVGID_2_">
							<use xlink:href="#SVGID_1_"  style="overflow:visible;"/>
						</clipPath>
						<g class="st2">
							<g>
								<g>
									<g>
										<path class="st3" d="M48.6,163.8c0,0,1.3,6.9-7.6,18c1,1.1,3.5,1.7,3.5,1.7s9.6-7.4,9-21.2
											C50.8,162.4,48.6,163.8,48.6,163.8z"/>
										<path class="st4" d="M48,169.2C48,169.2,48,169.1,48,169.2c0.9-3.5,0.6-5.4,0.6-5.4s2.2-1.4,4.8-1.5
											c0.1,2.4-0.1,4.6-0.5,6.6C52.4,166.1,48.8,167.5,48,169.2z"/>
									</g>
									<g>
										<path class="st5" d="M41.7,180.3c-0.8-0.7-1.4,0.1-2.5,1.6c-1,1.4-2.9,1.8-2.8,2.9c1.3,4.4,9.8,9.9,13.1,7.4
											c3.1-2.7,1.7-6.7-1.5-5.8c-0.5-0.5-2-1.4-2.7-1.5c0.6-0.5,0.8-1,0.3-1.6C45,183.8,42,182.2,41.7,180.3z"/>
										<path class="st6" d="M50.9,189.3c0.2-1.2-0.4-2.6-1.4-2.6s1.6,3.2-0.5,4.4C50.4,191.1,50.9,189.7,50.9,189.3z"/>
										<path class="st7" d="M41.7,180.5c0.1,0.4,0.2,0.6,0.4,0.9c-1.1,1.2-2.7,1.6-2.5,2.6c1,3.4,6.3,7.5,10.2,8
											c-0.1,0.1-0.2,0.2-0.3,0.3c-3.3,2.5-11.3-3-12.6-7.4c-0.1-1.1,1.5-1.1,2.6-2.5C40.6,180.8,40.9,179.8,41.7,180.5z"/>
										<path class="st8" d="M50,191.7c-1.6,0.8-11.4-2.4-12.5-8.4c-0.8-0.3-2.1,0.8-2,1.5c0.9,2.5,2.5,4.7,6.3,6.9
											c3.3,1.9,6.4,2.1,7.3,1.6C50.6,192.7,50,191.7,50,191.7z"/>
										<path class="st9" d="M37.6,183.7c0,0.1,0,0.1,0,0.2c-0.3,0.3-0.5,0.3-0.5,0.6c0.9,2.5,2.5,4.7,6.3,6.9
											c2.3,1.3,4.2,1.6,5.6,1.6c-0.1,0.1-0.2,0.1-0.3,0.2c-0.9,0.5-3.4,0.4-6.8-1.5c-3.1-1.8-5.2-4.1-6.1-6.6
											C35.8,184.3,36.8,183.4,37.6,183.7z"/>
										<path class="st8" d="M48.1,186.5c0.3,0.7-0.2,1.7-0.9,2.1c-0.8,0.3-2.5-1-2.9-1.8c0.2-1,1-1.7,1-1.7
											S47.3,184.8,48.1,186.5z"/>
										<path class="st9" d="M45.9,185c-0.2,0.3-0.7,0.8-0.8,1.5c0.3,0.6,1.5,1.3,2.4,1.5c-0.1,0.1-0.2,0.1-0.2,0.1
											c-0.8,0.3-2.3-0.7-2.8-1.5c0.2-1,0.8-1.7,0.8-1.7S45.5,185,45.9,185z"/>
									</g>
								</g>
								<g>
									<g>
										<path class="st3" d="M69.9,159.5c0,0,5.4,6.4,3.9,26.9c-1.7,1.1-4.2,0.1-4.2,0.1s1.6-13.3-3.9-24.9
											C68,160.1,69.9,159.5,69.9,159.5z"/>
										<path class="st4" d="M65.7,161.7c1.8-1.2,3.3-1.8,3.9-2c0.1,0,0.2,0,0.3,0c0.3,0.3,1.6,2.2,2.7,6.6
											c-1.8-2.5-4.6-2.7-4.5,2.3C67.6,166.2,66.8,163.9,65.7,161.7z"/>
									</g>
									<g>
										<path class="st5" d="M69.4,185.4c-1,0-0.9,0.9-0.8,2.7c0.1,1.7-1,3.1-0.2,3.8c3.7,2.4,13.2,1.1,14-2.8
											c0.6-3.9-2.9-5.9-4.7-3.2c-0.7-0.1-2.3,0.3-2.9,0.6c0.1-0.7-0.1-1.2-0.8-1.3C73.9,185.9,70.8,186.6,69.4,185.4z"/>
										<path class="st6" d="M81.6,186.2c-0.6-0.9-1.9-1.6-2.6-1s3.1,1.3,2.4,3.5C82.4,187.8,81.8,186.5,81.6,186.2z"/>
										<path class="st7" d="M69.5,185.5c0.3,0.2,0.5,0.3,0.9,0.4c0,1.5-0.9,2.8-0.2,3.5c2.9,1.8,9.2,1.5,12.3-0.6
											c0,0.1,0,0.3,0,0.4c-0.8,3.9-10,4.8-13.7,2.5c-0.8-0.7,0.4-1.8,0.3-3.4C68.9,186.5,68.5,185.5,69.5,185.5z"/>
										<path class="st8" d="M82.5,188.5c-0.7,1.5-9.7,5.4-14.2,1.7c-0.8,0.3-1,1.9-0.5,2.4c2.2,1.2,4.7,1.9,8.8,1.1
											c3.6-0.7,5.9-2.4,6.3-3.4C83.5,188.9,82.5,188.5,82.5,188.5z"/>
										<path class="st9" d="M68.5,190.4c0.1,0,0.1,0.1,0.2,0.1c0,0.4-0.2,0.5,0,0.7c2.2,1.2,4.7,1.9,8.8,1.1c2.5-0.5,4-1.5,5-2.4
											c0,0.1,0,0.2-0.1,0.3c-0.3,1-2.2,2.4-5.8,3.1c-3.4,0.7-6.3,0.3-8.5-0.9C67.7,191.9,67.8,190.7,68.5,190.4z"/>
										<path class="st8" d="M77.8,185.9c0.6,0.3,0.9,1.4,0.6,2.1c-0.4,0.8-2.4,0.8-3.3,0.5c-0.5-0.9-0.3-1.9-0.3-1.9
											S76.2,185.2,77.8,185.9z"/>
										<path class="st9" d="M75.4,186.2c0,0.3,0,1,0.4,1.6c0.6,0.2,1.9,0,2.7-0.4c0,0.1,0,0.2-0.1,0.2c-0.4,0.8-2.1,0.9-2.9,0.6
											c-0.5-0.9-0.4-1.7-0.4-1.7S75,186.4,75.4,186.2z"/>
									</g>
								</g>
								<g>
									<path class="st10" d="M51.6,147.7c0,0,6.7,10.4,7.7,16.7c1.4,1.4,15.4-2.2,15.3-4.9c-0.7-4.5-3.9-13.7-6.4-16.6
										C59.6,144.7,51.6,147.7,51.6,147.7z"/>
									<path class="st11" d="M71.7,151.6c0-0.3-0.9-4-2.3-5.4c-5.6-1.5-9.6-1.5-9.6-1.5l-2.4,12c0,0,1.5,3.6,2.6,6.8
										c-0.6-9,1.7-13.7,4.8-14.1C67.9,149.1,71.7,151.6,71.7,151.6z"/>
									<path class="st11" d="M74.6,159.3c0,0-6,5-15.4,4.9c-0.3,0.8,0.4,1.6,0.4,1.6s8.4,0.8,15.2-4.5
										C75.4,160.3,74.6,159.3,74.6,159.3z"/>
								</g>
								<g>
									<path class="st12" d="M43.9,143.5c0,0,0,11.1-3,16.7c0.3,2,15.4,7.3,16.8,5.1c2.2-4,4.5-13.9,2.4-21
										C52.3,140.5,43.9,143.5,43.9,143.5z"/>
									<path class="st13" d="M60.2,151.2c0,0,0-5.2-1.2-7.5c-3.8-0.7-14.7-1.1-14.7-1.1s0.5,3.3-0.1,6.6c3.3-3.5,5.2-4,9-3.5
										C56.9,146.3,60.2,151.2,60.2,151.2z"/>
									<path class="st14" d="M59.4,154.7c-0.4-3.7-2.8-4.9-3.1-1.3c-0.3,3.6,1.5,7.2,1.2,10.8C59.4,159.5,59.6,156.6,59.4,154.7z"
										/>
									<path class="st11" d="M57.9,165.1c0,0-9.5,0.6-16.9-5.1c-0.7,0.5-0.7,1.5-0.7,1.5s7.9,5.5,16.6,5.3
										C58,166.4,57.9,165.1,57.9,165.1z"/>
								</g>
								<g>
									<path class="st3" d="M73.9,123.5c0,0-2.6,3.9,1.7,17.2c3.1,5.1,2.1,7.2,1.6,6.4c0.4,1.6-0.9,2.4-1,0.5
										c0.2,2.1-1.3,2.4-1.6,0.5c-0.1,1.1-1.4,1.9-1.7-0.8c-0.2-1.6-0.4-3.1-0.4-3.1s-1.4,2.2-2.1,1.3s1.2-3.5,1.8-4.3
										c-0.4-3-8.7-15.4-4-23.2C71.3,117.6,73.9,123.5,73.9,123.5z"/>
									<path class="st15" d="M74.5,148.4c0,0.1,0.1,0.1,0.1,0.1c0.1,0,0.1-0.1,0.1-0.1c-0.1-1.6-0.4-3.4-0.4-3.4
										c0-0.1-0.1-0.1-0.1-0.1c-0.1,0-0.1,0.1-0.1,0.1l0,0C74,145.1,74.4,146.8,74.5,148.4L74.5,148.4z"/>
									<path class="st15" d="M76,147.9c0,0.1,0.1,0.1,0.1,0.1c0.1,0,0.1-0.1,0.1-0.1c0-0.7-0.3-2.4-0.6-3.4c0-0.1-0.1-0.1-0.2-0.1
										s-0.1,0.1-0.1,0.2C75.7,145.6,76,147.3,76,147.9L76,147.9z"/>
									<path class="st15" d="M76.3,144.2L76.3,144.2c0.5,1,0.8,3,0.8,3.1s0.1,0.1,0.1,0.1c0.1,0,0.1-0.1,0.1-0.1
										c0-0.1-0.3-2.1-0.8-3.1c0-0.1-0.1-0.1-0.2-0.1C76.3,144,76.3,144.1,76.3,144.2z"/>
								</g>
								<g>
									<path class="st16" d="M68.4,113.7c1.7,2.1,5.8,7.3,6.7,10.3c-1.1,2.6-5,5.6-6.8,5.6c-2.2-2.9-3.9-7.7-3.9-7.7L68.4,113.7z"
										/>
									<path class="st7" d="M72.7,124.5c-5.8,3.8-4-0.9-2.7-5.1c-3.7,5.1-3.1,7.1-3.1,7.1s0.5,1.3,1.2,1.8
										C69.8,127.5,71.2,126.4,72.7,124.5z"/>
									<path class="st5" d="M71.8,118.6c-0.9-1.2-1.8-0.7-0.9,0.4c0.9,1.2,2.3,2.7,3,4.4C73.5,121.5,72.3,119.2,71.8,118.6z"/>
									<path class="st17" d="M74.7,123c-0.6,1.2-3.4,4.4-6.9,6c-0.1,0.4,0.6,1.2,0.9,1.3c2.6-1.2,5.9-3.9,6.8-5.6
										C75.4,123.8,74.7,123,74.7,123z"/>
								</g>
								<path class="st3" d="M67.2,112.9c0,0-2.3-1.2-4-1.8c0.2-1.2,0.8-3.1,0.8-3.1l-3.6-0.7c0,0-0.5,1.9-0.7,3.2
									c-1.1,0.1-3.6,0.3-3.6,0.3s3.2,9.1,7.5,9.8C67.8,121.2,67.2,112.9,67.2,112.9z"/>
								<g>
									<path class="st18" d="M63,114.9c2.8-0.2,2.4-2.2,1.8-3.2c4.4,1.4,5.6,3.5,6.6,8c0.9,4.2,1.3,10.1-0.3,25.9
										c-4,4.5-27.3-1.2-29.5-4.2c0.5-3.7,7.6-16.1,10.1-29.1c1-1.3,3.1-1.7,5.9-1.8C57.9,111.7,58.1,114.6,63,114.9z"/>
									<path class="st5" d="M51.4,118.8c-0.5,3.4-0.2,19.1,6.1,23.5s12.4,2.6,13.4-4c-0.2,3.6-0.3,6.7-0.9,7.1
										c-1.9,1.4-14.4,2.1-27.4-4.2c1.4-5.3,7.2-19.6,8.4-22.4C52.1,116,51.4,118.8,51.4,118.8z"/>
									<path class="st6" d="M69.8,121.9c-1.7-4.5-5.6-3.6-3.9,0.7c1.8,4.3,4.4,7.8,4.9,13.6C71.3,129.9,70.6,124,69.8,121.9z"/>
								</g>
								<g>
									<path class="st3" d="M51.2,112.6c0,0-4.2,1.3-7.4,3c-2.8,1.4-17.1,6.9-4.9,23c-0.3,1.3-0.7,4.1,0.4,3.9
										c0.6-0.1,0.9-2.2,0.9-2.2s0.3,3.9,1.8,3.3c1.1-0.4,0.2-3.6,0.2-3.6s2,3.2,3.1,2.5s-1.7-3.7-1.7-3.7s2.9,2.2,3.6,1.1
										c0.7-1.1-4.2-3.5-4.2-3.5s2.1-0.3,1.6-1.3s-3.5,0.3-3.5,0.3s-8.7-9.2,2.1-14.8c4-2.1,7.7-3.5,7.8-3.5
										C52.8,114.5,51.2,112.6,51.2,112.6z"/>
									<path class="st4" d="M48.3,114.1c1.6,0.1,1.9,1.5,1.7,2.8c0.4-0.2,0.8-0.3,1.3-0.5c0.9-1.5,0.6-2.6,0.3-3.3
										C50.5,113.3,49.4,113.6,48.3,114.1L48.3,114.1z"/>
								</g>
								<g>
									<path class="st16" d="M53.6,111.1c-3.8,0-9.1,1.1-12.8,3.4c-0.2,1.7,1.8,7.2,3.2,7.9c2-0.1,6.7-2,6.7-2
										S55,115.4,53.6,111.1z"/>
									<path class="st7" d="M50.5,120c0,0-6.3,1.1-8.4-5.5c0.5,3,2.3,6.4,3.1,6.8C46.7,121.3,50.5,120,50.5,120z"/>
									<path class="st5" d="M51.1,111.8c2,0,2.1,1.3,0.2,1.2c-1.9-0.1-4.4-0.4-6.7,0.3C47,112.2,50.2,111.8,51.1,111.8z"/>
									<path class="st17" d="M41.5,114c-0.1,1.1,0.9,5,3.2,8.3c-0.5,0.3-1.1,0.5-1.3,0.4c-1-0.4-3.7-6.3-3.3-7.9
										C40.7,114.2,41.5,114,41.5,114z"/>
								</g>
								<path class="st17" d="M64.2,111.5c0.5,0.9,0.1,2.6-1.9,2.5s-3.7-1.9-4-3.4c-0.8-0.1-1.5,0-1.5,0s0.6,4.4,5.8,4.7
									c3.5,0.2,3.1-2.8,2.7-3.4C64.9,111.6,64.2,111.5,64.2,111.5z"/>
								<g>
									<g>
										<g>
											<path class="st3" d="M58.2,106.4c0,0,0.6,3.6,0.5,5.1c1,1.1,3.1,0.4,4.1-0.2c-0.4-2.1-0.5-4.9-0.5-4.9H58.2z"/>
										</g>
									</g>
								</g>
								<path class="st4" d="M63.2,106.4h-5.1c0,0,0.5,2.1,0.6,3.8c1.2,0.6,3.5,0.3,4.8-0.2C63.3,108.3,63.2,106.4,63.2,106.4z"/>
								<g>
									<g>
										<path class="st3" d="M84.6,64c4,8.1,8,33.6-14.8,42.6c-22.7,9-37.7-5.5-43.5-21.3c-6.9-19.1,6.9-33.4,20.4-37.2
											C67.9,42.2,79.3,53.2,84.6,64z"/>
										<path class="st4" d="M86.6,70c-0.6-2.4-1.3-4.5-2-5.9c-5.3-10.8-16.7-21.8-37.9-15.9C33.2,52,19.3,66.3,26.3,85.4
											c0.8,2.2,1.8,4.4,3,6.6c0-1.6-0.5-2.7-0.5-2.7s2.9,4.4,10,2.5c-5.4-1.2-9.8-6.9-9.6-15.8c2.5,9.6,7.4,10,7.4,10
											S28.1,75.4,37,67.3C31.8,75.4,38.9,79,38.9,79s-6-15.8,25-19.2c-0.5,6.4-7.6,9.1-7.6,9.1s6.6,0.8,15.4-9.5
											c1.6,2.6,5.5,7.6,10.7,8.1c-4.9-4.2-4.5-7.8-4.5-7.8S83.6,62.3,86.6,70z"/>
										<path class="st19" d="M75.9,85.4c0.3,2.1,3.7,3.3,6.8,2c3.1-1.3,4.4-4.1,3.8-6.6c-0.5-2.3-3.7-3.7-6.5-0.9
											C77.4,82.6,75.6,83.2,75.9,85.4z"/>
										
											<ellipse transform="matrix(0.9806 -0.1959 0.1959 0.9806 -14.1508 18.1138)" class="st20" cx="84.5" cy="80.6" rx="0.7" ry="0.5"/>
										
											<ellipse transform="matrix(0.9807 -0.1953 0.1953 0.9807 -14.7658 14.4317)" class="st21" cx="65.8" cy="82.1" rx="0.8" ry="0.5"/>
										<path class="st19" d="M40.7,93.5c0.7,2.9,3.8,4.3,7.6,3.8c3.6-0.5,6.8-3.9,5.7-6.5c-1.1-2.4-2.9-1.2-7.4-1.9
											C42.2,88.2,40,90.7,40.7,93.5z"/>
										
											<ellipse transform="matrix(0.9736 -0.2282 0.2282 0.9736 -19.7074 12.3598)" class="st20" cx="43.6" cy="91.4" rx="0.6" ry="0.5"/>
										<path class="st22" d="M75.7,64.2c-3.4-0.8-4,3-1.7,2.9c2.4-0.1,4.5,0.7,4.8,0.4C79.4,66.9,77.6,64.6,75.7,64.2z"/>
										<path class="st22" d="M44.5,70.6c2.8-2.2,4.9,1,2.8,1.9c-2.2,0.9-3.8,2.5-4.1,2.4C42.4,74.7,43,71.8,44.5,70.6z"/>
										<path class="st4" d="M25.9,84.7c-1.8-5.4-1-10.3,1.3-14.6c-1.1,3.5-1.2,8.4,0.2,12.6c5.2,15.7,21.6,29.4,42.2,20.6
											c10.2-4.3,13.5-10.8,16-16c-1.7,6.8-6.2,13.4-16,18.1C50.1,114.7,31.1,100.4,25.9,84.7z"/>
										<g>
											<path class="st23" d="M72.8,87.3c0,0,2.6,12.5-6.3,14.6c-8.8,2.1-8.9-10.5-8.9-10.5S64.3,92.3,72.8,87.3z"/>
											<path class="st24" d="M64.7,90.7c0.1,3.1-0.5,7.7-3.8,10c-3.2-2.9-3.2-9.3-3.2-9.3S60.4,91.7,64.7,90.7z"/>
											<path class="st25" d="M71.4,98.3c-1,1.6-2.5,3-4.9,3.5c-4.4,1-6.6-1.5-7.7-4.4c0.3-0.6,1.7-1.3,3.1-0.8
												C63.2,94.1,69,95.5,71.4,98.3z"/>
											<path class="st26" d="M60.3,97.1c0.7-0.3,1.5-0.2,1.9,0c0.2-0.5,0.7-1.1,2-1.3c3.3-0.4,7.6,2.8,3.5,4.7
												C63.6,102.4,57.9,98.3,60.3,97.1z"/>
											<path class="st27" d="M67.2,96.8c-0.7-0.7-2.5-1-3-0.5c-0.5,0.6,1,1.3,2,1.4S67.6,97.3,67.2,96.8z"/>
											<path class="st0" d="M70.2,88.6c0.5,1.3,0.3,2.3-1.4,3.2c-1.6,0.8-4,1.4-5.6,1.6c-2,0.2-3.1-0.6-3.1-2
												C63.5,91.1,66.2,90.5,70.2,88.6z"/>
										</g>
										<path class="st15" d="M66.2,85.5L66.2,85.5c1.2-0.6,1.7-1.7,1.4-2.8c-0.2-1-1.1-1.8-2-1.9c-0.6,0-1.6,0.2-2.3,2.1
											c0,0.1,0,0.2,0.1,0.2s0.2,0,0.2-0.1c0.5-1.3,1.2-1.9,2-1.9s1.5,0.8,1.7,1.7c0.1,0.5,0.2,1.6-1.2,2.4
											c-0.1,0-0.1,0.1-0.1,0.2C66.1,85.5,66.1,85.5,66.2,85.5z"/>
										<g>
											
												<ellipse transform="matrix(0.6591 -0.7521 0.7521 0.6591 -43.3145 64.4694)" class="st4" cx="49.5" cy="80" rx="6" ry="6.4"/>
											<path class="st4" d="M46.8,84c-1.9,0.6-2.2,1.6-0.6,2.2c1.6,0.6,4.4,0.6,6.3,0.1c1.9-0.6,2.2-1.6,0.6-2.2
												C51.5,83.4,48.7,83.4,46.8,84z"/>
											
												<ellipse transform="matrix(0.659 -0.7521 0.7521 0.659 -42.9277 64.5166)" class="st0" cx="49.7" cy="79.6" rx="5.8" ry="6.2"/>
											<path class="st28" d="M44.6,78.4c-0.1,1.6,0.6,3.3,1.9,4.5c2.3,2,5.7,1.9,7.5-0.3c0.5-0.6,0.9-1.3,1.1-2
												c-0.1,1.1-0.4,2.2-1.2,3.1C52,85.9,48.6,86,46.4,84C44.7,82.4,44.1,80.3,44.6,78.4z"/>
											
												<ellipse transform="matrix(0.9752 -0.2213 0.2213 0.9752 -16.5665 13.5301)" class="st29" cx="52.1" cy="80.7" rx="3.2" ry="3.4"/>
											
												<ellipse transform="matrix(0.9753 -0.221 0.221 0.9753 -16.611 13.7166)" class="st30" cx="53" cy="81.1" rx="2" ry="2.1"/>
											
												<ellipse transform="matrix(0.9752 -0.2212 0.2212 0.9752 -16.2944 13.8985)" class="st0" cx="53.9" cy="79.7" rx="0.8" ry="0.9"/>
											
												<ellipse transform="matrix(0.975 -0.2224 0.2224 0.975 -17.1278 13.6853)" class="st0" cx="52.2" cy="82.9" rx="0.5" ry="0.5"/>
										</g>
										<g>
											
												<ellipse transform="matrix(0.1597 -0.9872 0.9872 0.1597 -10.2442 137.0401)" class="st4" cx="75.4" cy="74.5" rx="5.6" ry="5.3"/>
											<path class="st4" d="M72.9,78.6c-1.7,0.5-1.9,1.4-0.5,1.9s3.8,0.6,5.5,0.1s1.9-1.4,0.5-1.9C77,78.1,74.6,78.1,72.9,78.6z
												"/>
											
												<ellipse transform="matrix(0.16 -0.9871 0.9871 0.16 -9.8541 137.5414)" class="st0" cx="75.9" cy="74.6" rx="5.5" ry="5.2"/>
											<path class="st28" d="M71.5,74.1c0.1-0.6,0.3-1.1,0.6-1.6c-0.1,0.3-0.2,0.6-0.2,0.9c-0.4,2.6,1.3,5.1,3.7,5.5
												c1.5,0.2,2.9-0.3,3.9-1.4c-1,1.4-2.6,2.2-4.3,1.9C72.7,79.1,71,76.7,71.5,74.1z"/>
											
												<ellipse transform="matrix(0.9751 -0.2216 0.2216 0.9751 -14.8453 19.08)" class="st29" cx="77.6" cy="75.7" rx="2.8" ry="3"/>
											
												<ellipse transform="matrix(0.9751 -0.2219 0.2219 0.9751 -14.9323 19.3172)" class="st30" cx="78.5" cy="76.1" rx="1.7" ry="1.8"/>
											
												<ellipse transform="matrix(0.975 -0.2221 0.2221 0.975 -14.6578 19.4639)" class="st0" cx="79.2" cy="74.9" rx="0.7" ry="0.8"/>
											
												<ellipse transform="matrix(0.9745 -0.2242 0.2242 0.9745 -15.3983 19.3731)" class="st0" cx="77.6" cy="77.5" rx="0.4" ry="0.5"/>
										</g>
									</g>
									<g>
										<path class="st3" d="M32,88.7c0,0-2.5-3.3-6.5-1.7c-4.2,1.7-2.6,8,1.6,10.3s8.9,0.5,8.6-3.1L32,88.7z"/>
										<path class="st4" d="M26.1,87.2c1-0.4,1.9-0.5,2.7-0.4c-0.6-0.1-1.3,0-1.9,0.3c-3.9,1.8-2,6.4,0.6,8.4
											c3.6,2.7,7.3,1.3,8.1-1.6c0.3,3.3-4.1,5.1-8,2.9C23.7,94.6,22.2,88.8,26.1,87.2z"/>
										<path class="st31" d="M25.7,89c2.2-1.9,7.3,2.1,5.4,6.7c-0.7-4.5-2.7-5-3.5-2.2c-0.7-1.2-0.5-2.3,1.1-3
											C27.6,89,25.7,89,25.7,89z"/>
									</g>
									<path class="st22" d="M25.1,87.7c0.7,0.6,3.4,5.2,3.2,6c1.4-2.8,0.1-5.8,0.1-5.8S33,91.1,40,89.2
										c-5.4-1.2-11.4-5.6-11.3-14.6c2.5,9.6,8,9.8,8,9.8s-9-10.3-0.1-18.4C31.4,74.1,36,77.9,36,77.9s-0.8-17.6,27.5-19.4
										c-0.7,4-10.6,6.9-10.6,6.9S62.4,67,71.3,58c1.6,2.6,7.3,7.2,12.5,7.6c-2.8-3.1-6.3-7.3-6.3-7.3s6.3,2.8,9.2,11.3
										C85.2,59.3,81,51.8,81,51.8S70.2,39,61,38.7c0.5-1.3-30.3-2.5-35,11.2c-8.9-1.4-9,14.3-9.6,20c4.5,8.9,7.6,19,4.4,22.8
										C24.2,91.1,25.1,87.7,25.1,87.7z"/>
									<path class="st32" d="M80.9,51.9c0,0-9.8-11.5-18.6-13h-0.1c-0.1,0-0.2-0.1-0.2-0.1c-0.3,0-0.7-0.1-1-0.1
										c0.5-1.3-30.3-2.5-35,11.2c-8.9-1.4-11.8,13.8-9.6,20c1.7,3.5,4.2,10.1,5.2,13.5c3-8.4,9.6-17,9.6-17s3.3-2.7,8.6-6.5
										c12.9-8,31.2-13.3,43.1-3.3c0.1-0.1,0.1-0.1,0.2-0.2C81.8,53.6,80.9,51.9,80.9,51.9z"/>
									<path class="st33" d="M28.5,51.8c4-12.8,13.7-15.8,24-13.7C37,39.5,33.7,47.8,30.7,52c10.7-6.4,16-3.1,16-3.1
										s-8.6-0.6-16.1,6.4c-2.5,2.4-6.7,5.8-7.2,17.4C18.2,59.8,28.3,54,28.3,54s-8.6,1.5-11.2,8.8C18.4,52,28.5,51.8,28.5,51.8z"
										/>
									<g>
										<path class="st34" d="M30.8,64.8c0,0-6.7,8.8-9.7,17.5c-11-17.2-7.5-40,14.4-47.2c19-6.2,28.1,3.1,33.7,5.2
											C48.4,50.4,30.8,64.8,30.8,64.8z"/>
										<path class="st35" d="M28.6,66.7C37.8,58,67.2,38,82.1,50.5c8.6-6.8,7.6-15.1-5.9-16.1C60.3,33.1,36.5,42.8,28.6,66.7z"/>
										<path class="st36" d="M30.8,64.8C44.7,53.7,67.6,42.4,82.5,55c8.6-6.8,9.6-19.7-5.9-19.9C64.7,34.9,39.7,41.4,30.8,64.8z"
											/>
										<path class="st36" d="M30.7,38.8c-4.6,2.5-21,16.7-10.9,36.6c2.3-6.7,9.4-11.3,9.4-11.3S20.9,68,20,59.5
											C18.7,48.3,30.7,38.8,30.7,38.8z"/>
										<path class="st37" d="M76.1,36.7c-7.6,0.9-27.7,1.2-42.4,24.7c6.9-5.5,17-14.6,38.6-12.1c-6.4-2.9-21.1,0.1-17.8-3.4
											C60.1,39.8,76.1,36.7,76.1,36.7z"/>
									</g>
								</g>
							</g>
						</g>
					</g>
				</g>
			</g>
		</g>
	</g>
</g>
<g>
	<path class="st36" d="M121.6,105.2h-6.4c-2.7,0-4.1,0.3-4.1,1c0,0.4,0.8,0.8,2.3,1.3c2.1,0.6,3.5,1.2,4.3,1.7
		c1.5,1,2.3,2.2,2.3,3.7c0,2.5-2.2,4.6-6.7,6.1c-3.5,1.2-6.9,1.9-10.1,1.9c-2.9,0-5.5-0.8-7.8-2.5c-2.5-1.8-3.8-4-3.8-6.7
		c0-2,0.3-3.8,0.9-5.6c0.4-1,1.2-2.8,2.5-5.2l0.8,0.3c-1,2.5-1.6,4.4-1.6,5.7c0,5.4,4.6,8.2,13.7,8.2c1.5,0,3.2-0.1,5.2-0.4
		c2.8-0.4,4.2-0.9,4.2-1.6c0-0.4-0.6-0.6-1.9-0.6c-5.3,0-8-1.3-8-4c0-2.5,0.9-4.7,2.6-6.6c1.8-1.9,4-2.8,6.6-2.8h5V105.2z
		 M111,123.8l-2.4,3.7L105,125l-1.8,3.1l-4-2.8l2.4-3.7l3.5,2.6l2.2-3.4L111,123.8z"/>
	<path class="st36" d="M146.7,91l-0.7,4.9c-0.8,0.1-2,0.2-3.5,0.2c-3,0-5.7,0.6-8.2,1.8c-1.3,0.6-3,1.7-5.1,3.4
		c-2.2,1.7-3.8,2.8-5,3.3c-0.8,0.4-2.4,0.7-4.7,0.7V99c2.8,0,5-0.2,6.7-0.7c1.5-0.4,3.5-1.3,6.2-2.6c-2.4-1.2-4.3-1.7-5.7-1.7
		c-1,0-1.7,0.4-2,1.1H121c0.6-2.3,1.2-4,1.9-5c1.1-1.6,2.6-2.3,4.7-2.3c1.3,0,3.1,0.4,5.5,1.3c3.9,1.4,7.4,2.2,10.4,2.2
		c0.4,0,0.9,0,1.6-0.1C145.8,91,146.3,91,146.7,91z M140,82.3l-2.2,3.7l-3.8-2.7l2.3-3.7L140,82.3z"/>
	<path class="st36" d="M160.6,70c-0.2,0.8-0.4,1.3-0.7,1.6c-0.3,0.3-0.8,0.5-1.6,0.7l-8,2.3c0.7-1.4,1.7-2.2,3.2-2.6
		c-1.4-1-2.1-1.8-2.1-2.4c0-0.9,0.7-2,2.2-3.3c1.4-1.3,2.7-2,3.6-2c1.1,0,1.7,0.5,1.7,1.6c0,0.4-0.3,1.2-0.8,2.3
		c-1.1-0.7-2-1.1-2.7-1.1c-0.8,0-1.5,0.4-2.1,1.2c2,1.5,3.5,2.2,4.5,2.2C158.8,70.4,159.7,70.3,160.6,70z"/>
	<path class="st36" d="M157.4,97.3c0,2.2-0.5,4.4-1.4,6.7h-1.1c0-3.4-0.4-7.1-1.1-11c-1.2-6.3-1.8-10.3-1.8-12.1
		c0-1,0.4-2.1,1.1-3.1c0.3-0.4,1-1.3,2.3-2.6c0,2.3,0.3,6,1,11C157.1,91.3,157.4,95,157.4,97.3z"/>
</g>
</svg>
