<?xml version="1.0" encoding="utf-8"?>
<!-- Generator: Adobe Illustrator 21.0.0, SVG Export Plug-In . SVG Version: 6.00 Build 0)  -->
<svg version="1.1" id="Layer_1" xmlns="http://www.w3.org/2000/svg" xmlns:xlink="http://www.w3.org/1999/xlink" x="0px" y="0px"
	 viewBox="0 0 180 180" style="enable-background:new 0 0 180 180;" xml:space="preserve">
<style type="text/css">
	.st0{display:none;fill:#FFFFFF;}
	.st1{fill:#FFFFFF;}
	.st2{display:none;}
	.st3{display:inline;}
	.st4{fill:url(#SVGID_1_);}
	.st5{fill:#508906;}
	.st6{fill:#91510C;}
	.st7{clip-path:url(#SVGID_4_);}
	.st8{fill:#FBC6A4;}
	.st9{fill:#E8AC84;}
	.st10{fill:#35B78B;}
	.st11{fill:#67C2A0;}
	.st12{fill:#8CCFB7;}
	.st13{fill:#1E9670;}
	.st14{fill:#7DB5A0;}
	.st15{fill:#197D5B;}
	.st16{fill:#DC9E76;}
	.st17{fill:#DCDEDF;}
	.st18{fill:#A38F88;}
	.st19{fill:#221F1F;}
	.st20{fill:#412820;}
	.st21{fill:#383638;}
	.st22{fill:#4D201C;}
	.st23{fill:#311615;}
	.st24{fill:#EB756C;}
	.st25{fill:#F48F86;}
	.st26{fill:#F7AFAC;}
	.st27{fill:#D4946A;}
	.st28{fill:#43322C;}
	.st29{fill:#715E53;}
	.st30{fill:#32241D;}
	.st31{fill:#CD7754;}
</style>
<rect class="st0" width="180" height="180"/>
<rect class="st1" width="180" height="180"/>
<rect class="st1" width="180" height="180"/>
<g>
	<g>
		<g>
			<g class="st2">
				<g class="st3">
					<g>
						
							<radialGradient id="SVGID_1_" cx="96.3333" cy="287" r="167.1662" gradientTransform="matrix(1 0 0 -1 0 371)" gradientUnits="userSpaceOnUse">
							<stop  offset="0.173" style="stop-color:#FFFFFF"/>
							<stop  offset="1" style="stop-color:#36CDFF;stop-opacity:0.3"/>
						</radialGradient>
						<rect id="SVGID_2_" x="0.4" y="0.1" class="st4" width="180" height="180"/>
					</g>
				</g>
			</g>
			<g>
				<g>
					<g>
						<path class="st5" d="M168.9,173.6h-2.6V173h2.6V173.6z M163.1,173.6h-2.6V173h2.6V173.6z M157.3,173.6h-2.6V173h2.6V173.6z
							 M151.5,173.6H149V173h2.6v0.6H151.5z M145.8,173.6h-2.6V173h2.6V173.6z M140,173.6h-2.6V173h2.6V173.6z M134.2,173.6h-2.6
							V173h2.6V173.6z M128.5,173.6h-2.6V173h2.6V173.6z M122.7,173.6h-2.6V173h2.6V173.6z M116.9,173.6h-2.6V173h2.6V173.6z
							 M111.2,173.6h-2.6V173h2.6V173.6z M105.4,173.6h-2.6V173h2.6V173.6z M99.6,173.6H97V173h2.6V173.6z M93.9,173.6h-2.6V173h2.6
							V173.6z M88.1,173.6h-2.6V173h2.6V173.6z M82.3,173.6h-2.6V173h2.6V173.6z M76.5,173.6H74V173h2.6L76.5,173.6L76.5,173.6z
							 M70.8,173.6h-2.6V173h2.6V173.6z M65,173.6h-2.6V173H65V173.6z M59.2,173.6h-2.6V173h2.6V173.6z M53.5,173.6h-2.6V173h2.6
							V173.6z M47.7,173.6h-2.6V173h2.6V173.6z M41.9,173.6h-2.6V173h2.6V173.6z M36.2,173.6h-2.6V173h2.6V173.6z M30.4,173.6h-2.6
							V173h2.6V173.6z M24.6,173.6H22V173h2.6V173.6z M18.9,173.6h-2.6V173h2.6V173.6z M13.1,173.6H12c-0.5,0-1-0.1-1.5-0.2l0.2-0.6
							c0.4,0.1,0.9,0.2,1.3,0.2h1.1V173.6z M171.5,172.8l-0.3-0.5c0.7-0.4,1.2-1,1.6-1.8l0.6,0.3
							C172.9,171.6,172.3,172.3,171.5,172.8z M7.8,171.3c-0.5-0.8-0.8-1.7-0.8-2.6h0.6c0,0.8,0.3,1.6,0.7,2.2L7.8,171.3z
							 M173.9,167.5h-0.6V165h0.6V167.5z M7.6,165.5H6.9V163h0.6L7.6,165.5L7.6,165.5z M173.9,161.8h-0.6v-2.6h0.6V161.8z
							 M7.6,159.8H6.9v-2.6h0.6L7.6,159.8L7.6,159.8z M173.9,156h-0.6v-2.6h0.6V156z M7.6,154H6.9v-2.6h0.6L7.6,154L7.6,154z
							 M173.9,150.2h-0.6v-2.6h0.6V150.2z M7.6,148.2H6.9v-2.6h0.6L7.6,148.2L7.6,148.2z M173.9,144.4h-0.6v-2.6h0.6V144.4z
							 M7.6,142.4H6.9v-2.6h0.6L7.6,142.4L7.6,142.4z M173.9,138.7h-0.6v-2.6h0.6V138.7z M7.6,136.7H6.9v-2.6h0.6L7.6,136.7
							L7.6,136.7z M173.9,132.9h-0.6v-2.6h0.6V132.9z M7.6,130.9H6.9v-2.6h0.6L7.6,130.9L7.6,130.9z M173.9,127.1h-0.6v-2.6h0.6
							V127.1z M7.6,125.1H6.9v-2.6h0.6L7.6,125.1L7.6,125.1z M173.9,121.4h-0.6v-2.6h0.6V121.4z M7.6,119.4H6.9v-2.6h0.6L7.6,119.4
							L7.6,119.4z M173.9,115.6h-0.6V113h0.6V115.6z M7.6,113.6H6.9V111h0.6L7.6,113.6L7.6,113.6z M173.9,109.8h-0.6v-2.6h0.6V109.8
							z M7.6,107.8H6.9v-2.6h0.6L7.6,107.8L7.6,107.8z M173.9,104.1h-0.6v-2.6h0.6V104.1z M7.6,102.1H6.9v-2.6h0.6L7.6,102.1
							L7.6,102.1z M173.9,98.3h-0.6v-2.6h0.6V98.3z M7.6,96.3H6.9v-2.6h0.6L7.6,96.3L7.6,96.3z M173.9,92.5h-0.6V90h0.6V92.5z
							 M7.6,90.5H6.9V88h0.6L7.6,90.5L7.6,90.5z M173.9,86.8h-0.6v-2.6h0.6V86.8z M7.6,84.8H6.9v-2.6h0.6L7.6,84.8L7.6,84.8z
							 M173.9,81h-0.6v-2.6h0.6V81z M7.6,79H6.9v-2.6h0.6L7.6,79L7.6,79z M173.9,75.2h-0.6v-2.6h0.6V75.2z M7.6,73.2H6.9v-2.6h0.6
							L7.6,73.2L7.6,73.2z M173.9,69.4h-0.6v-2.6h0.6V69.4z M7.6,67.4H6.9v-2.6h0.6L7.6,67.4L7.6,67.4z M173.9,63.7h-0.6v-2.6h0.6
							V63.7z M7.6,61.7H6.9v-2.6h0.6L7.6,61.7L7.6,61.7z M173.9,57.9h-0.6v-2.6h0.6V57.9z M7.6,55.9H6.9v-2.6h0.6L7.6,55.9L7.6,55.9
							z M173.9,52.1h-0.6v-2.6h0.6V52.1z M7.6,50.1H6.9v-2.6h0.6L7.6,50.1L7.6,50.1z M173.9,46.4h-0.6v-2.6h0.6V46.4z M7.6,44.4H6.9
							v-2.6h0.6L7.6,44.4L7.6,44.4z M173.9,40.6h-0.6V38h0.6V40.6z M7.6,38.6H6.9V36h0.6L7.6,38.6L7.6,38.6z M173.9,34.8h-0.6v-2.6
							h0.6V34.8z M7.6,32.8H6.9v-2.6h0.6L7.6,32.8L7.6,32.8z M173.9,29.1h-0.6v-2.6h0.6V29.1z M7.6,27.1H6.9v-2.6h0.6L7.6,27.1
							L7.6,27.1z M173.9,23.3h-0.6v-2.6h0.6V23.3z M7.6,21.3H6.9v-2.6h0.6L7.6,21.3L7.6,21.3z M173.9,17.5h-0.6V15h0.6V17.5z
							 M7.6,15.5H6.9V13h0.6L7.6,15.5L7.6,15.5z M173.9,11.8h-0.6v-0.1c0-0.8-0.2-1.5-0.6-2.2l0.6-0.3c0.4,0.8,0.7,1.6,0.7,2.5
							L173.9,11.8L173.9,11.8z M7.9,9.9L7.3,9.7c0.4-0.9,1-1.6,1.7-2.1l0.4,0.5C8.8,8.6,8.2,9.2,7.9,9.9z M170.4,7.6
							c-0.5-0.2-1-0.3-1.6-0.3H168V6.6h0.8c0.6,0,1.2,0.1,1.8,0.3L170.4,7.6z M164.8,7.3h-2.6V6.6h2.6V7.3z M159,7.3h-2.6V6.6h2.6
							V7.3z M153.3,7.3h-2.6V6.6h2.6V7.3z M147.5,7.3h-2.6V6.6h2.6V7.3z M141.7,7.3h-2.6V6.6h2.6V7.3z M136,7.3h-2.6V6.6h2.6V7.3z
							 M130.2,7.3h-2.6V6.6h2.6V7.3z M124.4,7.3h-2.6V6.6h2.6V7.3z M118.6,7.3H116V6.6h2.6V7.3z M112.9,7.3h-2.6V6.6h2.6V7.3z
							 M107.1,7.3h-2.6V6.6h2.6V7.3z M101.3,7.3h-2.6V6.6h2.6V7.3z M95.6,7.3H93V6.6h2.6V7.3z M89.8,7.3h-2.6V6.6h2.6V7.3z M84,7.3
							h-2.6V6.6H84V7.3z M78.3,7.3h-2.6V6.6h2.6V7.3z M72.5,7.3h-2.6V6.6h2.6V7.3z M66.7,7.3h-2.6V6.6h2.6V7.3z M61,7.3h-2.6V6.6H61
							V7.3z M55.2,7.3h-2.6V6.6h2.6V7.3z M49.4,7.3h-2.6V6.6h2.6V7.3z M43.6,7.3H41V6.6h2.6V7.3z M37.9,7.3h-2.6V6.6h2.6V7.3z
							 M32.1,7.3h-2.6V6.6h2.6V7.3z M26.3,7.3h-2.6V6.6h2.6V7.3z M20.6,7.3H18V6.6h2.6V7.3z M14.8,7.3h-2.6V6.6h2.6
							C14.8,6.6,14.8,7.3,14.8,7.3z"/>
					</g>
				</g>
			</g>
		</g>
	</g>
</g>
<g>
	<path class="st6" d="M111.3,72.6c-0.1,0.4-0.1,0.6-0.1,0.8c0,0.6,0.2,2,0.6,4.1c1.3,6.2,2,10.2,2,12.2c0,1.1-0.3,2-0.8,2.8
		c4,0.4,6,1.5,6,3.2c0,0.3-0.3,1.5-0.8,3.5l-0.8,2.8c-0.6,2.4-2.9,4.5-6.7,6.2c-3.3,1.5-6.5,2.2-9.6,2.2c-3.4,0-6-0.8-7.9-2.5
		s-2.8-4.1-2.8-7.3c0-3.4,1.3-7.3,4-11.6l0.9,0.5c-1.5,3-2.3,5.4-2.3,7c0,2.4,1,4.2,3,5.6c1.8,1.2,3.9,1.9,6.5,1.9
		c3.2,0,6.4-0.6,9.5-1.8c2.8-1.1,4.2-2,4.2-2.8c0-0.5-0.8-1-2.4-1.4s-3.5-0.7-5.7-0.7c-1.8,0-2.6-0.3-2.6-1c0-0.2,0.1-0.6,0.4-1.2
		s0.8-1.3,1.5-2.3c0.5-0.3,1.1-0.5,2-0.7s1.5-0.4,1.8-0.6c0.5-0.4,0.7-1,0.7-2c0-2.6-0.6-6-1.7-10.1c-1.5-5.4-2.3-8.7-2.5-9.9
		c-0.6-0.7-1-1.2-1.2-1.7c0.6-2.4,1.6-3.9,3-4.5c0,1.4,0.6,2.6,1.7,3.6s2.4,1.4,3.9,1.2l-2.8,4.6C112,72.9,111.8,72.8,111.3,72.6z
		 M110.3,114l-2.3,3.8l-3.7-2.4l-1.8,3.1l-3.9-2.8l2.3-3.8l3.5,2.8l2.2-3.4L110.3,114z"/>
	<path class="st6" d="M135,98.1h-4.2c-2,0-3.4-0.8-4.3-2.4c-0.8-1.2-1.2-3.7-1.4-7.3c0-1.5-0.3-4.2-0.8-8.1
		c-0.5-3.6-0.8-6.3-0.8-8.1c0-0.6,0-1,0.1-1.3c0-0.3,1.1-1.2,3.1-2.9c0,0.2,0.3,3.4,0.8,9.6c0.5,5.6,0.8,9,0.8,10.2
		c0,1.4,0.2,2.4,0.7,3s1.4,1,2.8,1c-2.1,0-1.1-0.1,3.2-0.1L135,98.1L135,98.1z"/>
	<path class="st6" d="M160,83.9l-0.7,4.9c-0.8,0.1-2,0.2-3.5,0.2c-3,0-5.7,0.6-8.2,1.8c-1.3,0.6-3,1.7-5.1,3.4
		c-2.2,1.7-3.8,2.8-5,3.3c-0.8,0.4-2.4,0.7-4.7,0.7V92c2.8,0,5-0.2,6.7-0.7c1.5-0.4,3.5-1.3,6.2-2.6c-2.4-1.2-4.3-1.7-5.7-1.7
		c-1,0-1.7,0.4-2,1.1h-3.9c0.6-2.3,1.2-4,1.9-5c1.1-1.6,2.6-2.3,4.7-2.3c1.3,0,3.1,0.4,5.5,1.3c3.9,1.4,7.4,2.2,10.4,2.2
		c0.4,0,0.9,0,1.6-0.1C159.1,83.9,159.7,83.9,160,83.9z M153.3,75.1l-2.2,3.7l-3.8-2.7l2.3-3.7L153.3,75.1z"/>
</g>
<g>
	<g>
		<g>
			<g>
				<g>
					<g>
						<defs>
							<ellipse id="SVGID_3_" cx="53.1" cy="56.4" rx="110.9" ry="100"/>
						</defs>
						<clipPath id="SVGID_4_">
							<use xlink:href="#SVGID_3_"  style="overflow:visible;"/>
						</clipPath>
						<g class="st7">
							<g>
								<path class="st8" d="M61.1,94.9c0,0-0.3,1.8-0.3,6.6c4.1,0.5,9.6,2.6,9.6,2.6s-0.2,2.4-8.9,3.9s-14.4-4.5-14.4-4.5
									s4.1-1.7,8.6-1.7c0-1.9,0.4-6.6,0.4-6.6L61.1,94.9z"/>
								<path class="st9" d="M60.7,100.8c-1.8,0.4-3.5,0.3-5,0.1c0.1-2.2,0.4-5.6,0.4-5.6l5.1-0.3c0,0-0.3,1.6-0.3,5.7
									C60.8,100.7,60.7,100.7,60.7,100.8z"/>
								<g>
									<path class="st10" d="M33,111c-3.2,12.1,3.1,35.2,3.8,70.2c1.7,2.4,46.7-0.4,47.6-1.9c0.8-1.4-4.8-21.5-5.1-35.1
										c-0.2-13.6,5.9-28.5,3.8-32.5c-2-4.1-14.7-8.9-18-9.5c-0.5,4.2-12.1,2.5-13.5-0.1C44.6,102.7,33,109.1,33,111z"/>
									<path class="st11" d="M75.6,133.9c0.5-5.9,1.4-12.1,2.9-16.5c2.4-7.1-8.6-12.5-10.7-2.1C67.4,117.6,69.6,130.4,75.6,133.9z
										"/>
									<path class="st12" d="M34.6,146.8c8.1,0.4,35.7,1,44.9-2.2l0,0c0,0.5,0.1,1,0.1,1.4v-0.1c0,0.5,0.1,1,0.1,1.4
										c0,0.1,0,0.1,0,0.2c0,0.4,0.1,0.9,0.1,1.3c0,0.1,0,0.2,0,0.3c0.1,0.6,0.1,1,0.2,1.5v0.1c-4.1,1-21.7,4.3-44.8,1.9
										C35,150.6,34.8,148.7,34.6,146.8z M33.7,137.6c0.2,1.8,0.3,3.7,0.6,5.7c23,2.5,40.7-0.7,45.3-1.7c0-0.5,0.1-1,0.1-1.5
										c0,0,0-0.2,0-0.3c0-0.4,0.1-0.8,0.1-1.2c0-0.1,0-0.2,0-0.4c0-0.4,0.1-0.8,0.1-1.2c0-0.1,0-0.2,0-0.3c0.1-0.5,0.1-1,0.2-1.5
										C71.4,138.8,41.3,137.9,33.7,137.6z"/>
									<path class="st13" d="M39,180.3c15,2.1,39.3-0.4,44.4-2.3c-36.4,0.7-47.7-34.8-49.2-49.8C34.2,128.2,37,154.4,39,180.3z"/>
									<g>
										<path class="st14" d="M36.5,152.8c1.9,0.1,3.7,0.3,5.5,0.4c-1.1-2.1-2-4.1-2.9-6.2c-1.1,0-2.2-0.1-3.1-0.1
											C36.2,148.8,36.4,150.7,36.5,152.8z"/>
										<path class="st14" d="M35.2,137.6c0.2,1.7,0.4,3.7,0.6,5.8c0.7,0.1,1.4,0.1,2.1,0.2c-0.8-2.1-1.4-4-1.9-6
											C35.6,137.6,35.4,137.6,35.2,137.6z"/>
									</g>
									<path class="st15" d="M60.1,106.4c4.4-0.3,6.7-1.4,7.9-3.3c-0.5-0.6-2.1-1.1-3.2-1c-2.4,3.8-10.7,1.6-12.4,0.1
										c-1.1-0.6-2.6,0-3.2,0.3C50.1,103.9,54.2,106.8,60.1,106.4z"/>
								</g>
								<g>
									<path class="st8" d="M27,59.6c7.4-15.1,40.9-24.6,46.8-9.9c7.6,18.8,7.1,41.6-8.5,47.7c-17.4,6.8-30.1-7-35.1-12.6
										C22.8,76.5,25.1,64.6,27,59.6z"/>
									<path class="st9" d="M28,72l-2-11l0.4-4.3L41,51.1L59,44c0,0,13.7-0.5,15.6,4.5c1.9,4.9,2.6,11.8,2.6,11.8
										s-4.7-8.5-8.8-11.5c-7.8,6.8-29.3,10.6-35.2,10.5c-5.4,5.4-1.8,13.1,0.3,16.8L28,72z"/>
									<path class="st9" d="M77.5,77.8c-1.3,7.7-3.7,14.5-12.2,17.9c-17.1,6.8-31.7-7-34.5-12.6c-4.1-8-4-15.7-2.6-21
										c-0.9,5.2-0.6,11.9,3,19c2.8,5.7,17.4,19.4,34.5,12.6C73.5,90.6,75.7,84.7,77.5,77.8z"/>
									<path class="st16" d="M62.3,75.1c3-3.3-0.8-4.9-3-2.3C61.5,72,62.5,73.3,62.3,75.1z"/>
									<g>
										<path class="st9" d="M51.1,72.2c1.5,0.1,1.6,1.9-1.1,3.3c-2.9,1.5-5.6-0.1-6.1-1c-0.6-1.3,0.7-1.3,0.7-1.3
											S49.7,72,51.1,72.2z"/>
										
											<ellipse transform="matrix(0.9436 -0.3312 0.3312 0.9436 -20.5086 19.6303)" class="st1" cx="47.3" cy="70" rx="4.7" ry="5"/>
										<path class="st17" d="M49,74.4c-2.3,0.8-4.8-0.5-5.6-2.9s0.3-5,2.6-5.8c1.7-0.6,3.4-0.1,4.6,1.2c-1-0.9-2.3-0.9-3.8-0.4
											c-2.1,0.7-3.8,2.2-3,4.4c0.7,2.2,3,3.4,5.1,2.6c2.1-0.8,3.2-3.1,2.4-5.3c-0.2-0.5-0.4-1-0.7-1.3c0-0.1,0-0.1,0-0.1
											c0.4,0.4,0.7,1,1,1.6C52.5,70.8,51.3,73.3,49,74.4z"/>
										<path class="st18" d="M46.2,67.7c-1.3,0.4-2,1.9-1.5,3.3c0.4,1.4,1.9,2.1,3.2,1.7s2-1.9,1.5-3.3S47.4,67.3,46.2,67.7z"/>
										<path class="st19" d="M46.2,69c-0.8,0.3-1.2,1.1-0.9,1.9c0.3,0.7,1.1,1.2,1.9,0.9c0.8-0.4,1.2-1.2,0.9-2
											C47.8,69,47,68.5,46.2,69z"/>
										<path class="st1" d="M47.1,68c-0.3,0.1-0.6,0.6-0.4,1c0,0.4,0.5,0.7,0.9,0.5c0.3-0.1,0.6-0.6,0.4-1
											C47.9,68.1,47.5,67.9,47.1,68z"/>
										<path class="st1" d="M45.8,71.6c-0.3,0.1-0.4,0.2-0.3,0.5c0.1,0.2,0.3,0.4,0.5,0.3c0.3-0.1,0.4-0.2,0.3-0.5
											C46.2,71.7,46,71.6,45.8,71.6z"/>
										<path class="st9" d="M49.6,65.3c0,0-3.7-1.9-5.8-0.4c-2.1,1.4-1.5,4.4-1.5,4.4C44.8,65,49.6,65.3,49.6,65.3z"/>
										<path class="st20" d="M49.6,65.3c0-0.1-0.2,0-0.3,0s-0.2,0-0.4,0s-0.4,0-0.6,0c0,0-0.2,0-0.3,0c0,0.1-0.2,0.1-0.3,0.1
											c-0.3,0-0.5,0.1-0.8,0.2c0,0-0.1,0.1-0.3,0.1c0,0.1-0.1,0.1-0.2,0.1l-0.2,0.1C46.1,66,46,66,45.8,66.1
											c0,0-0.1,0.1-0.3,0.2c0,0-0.2,0.1-0.3,0.2c0,0.1-0.2,0.2-0.3,0.3c-0.2,0.2-0.4,0.3-0.6,0.5s-0.3,0.3-0.5,0.5
											c-0.1,0.1-0.2,0.2-0.3,0.3c-0.1,0.1-0.1,0.2-0.2,0.3s-0.2,0.2-0.3,0.4c0,0.1-0.1,0.3-0.2,0.4c-0.1,0.2-0.2,0.3-0.2,0.3
											s0.1-0.1,0.3-0.3c0.1,0,0.2-0.2,0.3-0.3c0-0.1,0.1-0.2,0.3-0.4c0.1-0.1,0.2-0.2,0.4-0.4c0.1-0.1,0.2-0.2,0.3-0.3
											c0.1,0,0.1-0.1,0.2-0.1s0.1-0.1,0.2-0.1c0.2-0.1,0.3-0.2,0.6-0.4c0,0,0.3-0.1,0.3-0.2s0.2-0.1,0.3-0.2
											c0,0,0.2-0.1,0.3-0.2c0-0.1,0.2-0.1,0.3-0.2c0.2-0.1,0.4-0.2,0.7-0.3c0.3-0.1,0.4-0.2,0.7-0.3c0.2-0.1,0.4-0.1,0.6-0.2
											c0.3-0.1,0.6-0.2,0.9-0.2C49.4,65.3,49.6,65.3,49.6,65.3L49.6,65.3z"/>
									</g>
									<path class="st21" d="M40.8,65.2c0,0-0.2-3.7,2.3-5c1.4-0.7,2.8,1.2,1.1,2C42.2,63.1,40.8,65.2,40.8,65.2z"/>
									<path class="st21" d="M71.8,58.9c0,0-1.5-2.9-4.1-2.8c-1.5,0-1.7,2.3,0,2.1C69.6,57.9,71.8,58.9,71.8,58.9z"/>
									<g>
										<g>
											<path class="st9" d="M72.7,68.4c1.3,0.3,1.1,2-1.6,2.8c-3,0.8-5.1-1.2-5.4-2.1c-0.3-1.3,0.9-1,0.9-1S71.4,68.1,72.7,68.4
												z"/>
											
												<ellipse transform="matrix(0.9913 -0.1313 0.1313 0.9913 -7.9815 9.6849)" class="st1" cx="69.4" cy="65.4" rx="4.4" ry="4.6"/>
											<path class="st17" d="M69.9,69.5c-2.2,0.3-4.3-1.4-4.6-3.8c-0.3-2.4,1.3-4.6,3.5-4.9c1.6-0.2,3,0.6,3.9,1.9
												c-0.6-0.9-1.7-1.2-3.2-1c-2.1,0.3-3.9,1.4-3.6,3.5c0.4,2.1,2.2,3.7,4.3,3.4c2.1-0.2,3.5-2.3,3.2-4.4
												c-0.1-0.5-0.2-1-0.4-1.3c0.3,0.4,0.5,1,0.6,1.6C73.9,66.9,72.4,69.1,69.9,69.5z"/>
											<path class="st18" d="M68.7,63.1c-1.3,0.1-2.2,1.3-2,2.7c0.1,1.3,1.3,2.3,2.6,2.1c1.3-0.1,2.2-1.3,2-2.7
												C71.2,63.8,70,63,68.7,63.1z"/>
											<path class="st19" d="M68.5,64.1c-0.7,0.1-1.2,0.8-1.1,1.6c0,0.9,0.7,1.4,1.5,1.3c0.8-0.1,1.3-0.8,1.2-1.6
												C70,64.6,69.3,64,68.5,64.1z"/>
											<path class="st1" d="M69.5,63.6c-0.4,0.1-0.7,0.5-0.6,0.9c0,0.3,0.5,0.7,0.8,0.6c0.3-0.1,0.7-0.5,0.6-0.9
												C70.3,63.8,69.9,63.5,69.5,63.6z"/>
											<path class="st1" d="M67.7,66.7c-0.2,0-0.3,0.2-0.3,0.4c0.1,0.2,0.2,0.3,0.4,0.3c0.2,0,0.3-0.2,0.3-0.4
												C68,66.7,67.8,66.7,67.7,66.7z"/>
											<path class="st9" d="M72.4,61.5c0,0-3.1-2.4-5.2-1.5C65,61,65,63.8,65,63.8C68.2,60.4,72.4,61.5,72.4,61.5z"/>
											<path class="st20" d="M72.2,62c-0.1,0-0.2-0.1-0.3-0.1s-0.2-0.1-0.4-0.1c-0.2,0-0.3-0.1-0.5-0.1c-0.1,0-0.2,0-0.3,0
												s-0.2,0-0.3,0c-0.2,0-0.4,0-0.7,0c0,0-0.2,0-0.3,0c-0.1,0-0.1,0-0.2,0H69c-0.1,0-0.2,0.1-0.4,0.1c0,0-0.1,0.1-0.3,0.1
												c0,0-0.2,0-0.3,0.1c0,0.1-0.2,0.1-0.3,0.2c-0.3,0-0.5,0.2-0.7,0.3c-0.3,0-0.4,0.2-0.6,0.3c-0.1,0.1-0.2,0.1-0.3,0.2
												c-0.1,0-0.2,0.1-0.3,0.2c0,0-0.2,0.2-0.3,0.3s-0.2,0.2-0.3,0.3C65.1,64,65,64.1,65,64.1s0.1-0.1,0.3-0.3
												c0-0.1,0.2-0.2,0.3-0.3c0.1-0.1,0.2-0.2,0.4-0.3c0.2,0,0.3-0.2,0.5-0.3c0.1-0.1,0.2-0.1,0.3-0.2c0.1,0,0.1-0.1,0.2-0.1
												c0.1,0,0.1-0.1,0.2-0.1c0.3-0.1,0.4-0.2,0.7-0.3c0-0.1,0.2-0.1,0.3-0.2c0.1,0,0.5,0,0.5,0l0.3-0.1c0,0,0.2-0.1,0.3-0.1
												c0.3-0.1,0.4-0.2,0.7-0.2c0.3,0,0.5-0.1,0.7-0.1c0.2,0,0.4,0,0.6,0c0.4,0,0.7,0,0.9,0c0.2,0,0.3,0,0.3,0
												S72.5,61.5,72.2,62z"/>
										</g>
									</g>
									<g>
										<path class="st22" d="M54.6,81.1c0,0-0.8,10.9,6.9,9.7s6.3-12.1,6.3-12.1C60.2,82.5,54.6,81.1,54.6,81.1z"/>
										<path class="st23" d="M54.7,81.1c0,0-0.5,5.5,2.1,8.2c3-1.8,3.7-5.6,3.9-8.3C56.9,81.7,54.7,81.1,54.7,81.1z"/>
										<path class="st24" d="M57.9,86c-1.2-0.6-2.4-0.1-2.7,0.4c0.7,2.5,2.5,4.9,6.3,4.3c2-0.2,3.5-1.2,4.4-2.6
											C64,85.5,59.2,83.9,57.9,86z"/>
										<path class="st25" d="M62.5,89.7c3.7-1.4,0.2-4.4-2.6-4.3c-1.1,0-1.5,0.5-1.8,0.9c-0.3-0.2-1-0.4-1.6-0.1
											C54.3,87.1,58.9,91.1,62.5,89.7z"/>
										<path class="st26" d="M61.5,87.3c-0.8-0.2-2.1-1-1.6-1.4c0.4-0.4,1.9,0,2.5,0.6C62.7,86.9,62.3,87.3,61.5,87.3z"/>
										<path class="st1" d="M56.5,81.2c-0.1,1.2,0.8,2,2.5,2c1.5,0,3.5-0.3,5-0.9c1.6-0.5,1.8-1.5,1.5-2.6
											C62,81,59.6,81.3,56.5,81.2z"/>
									</g>
									<g>
										<path class="st8" d="M33.4,82.7c0,3.4-3.9,4.5-7.1,1.6c-3.3-2.9-4.2-9.3-0.7-10.2c3.2-0.9,5.1,2.6,5.1,2.6L33.4,82.7z"/>
										<path class="st9" d="M26.6,83.8c3.1,2.7,6.7,1.7,6.7-1.5c-0.9,2.7-4,3.5-6.7,0.3c-2-2.3-3.2-7,0-8.1
											c0.6-0.2,1.1-0.2,1.6,0c-0.7-0.3-1.3-0.4-2.2-0.1C22.8,75.2,23.7,81.1,26.6,83.8z"/>
										<path class="st27" d="M27.9,78.1c-1.4,0.4-1.6,1.4-1.1,2.7c0.8-2.5,2.4-1.7,2.7,2.7c1.8-4.2-2.1-8.9-4-7.4
											C25.5,76.1,27.2,76.3,27.9,78.1z"/>
									</g>
									<path class="st28" d="M24.4,74.9c-0.3-7.4-6.9-13.5-6.5-19.7c-5.7-7.1,9.9-14.7,14.6-17.1s4-7.1,0.9-6.2
										c1.4-2.2,13.1-6.2,22.1,0.3c2.9-1.7,6.7-2.6,12.6-0.2s7,8.2,7,13.3s3.1,12.1,2.6,16c-1.3-4-3.6-9.9-9.8-14.3
										c-4.5,5.3-26.3,10-35.4,10.9c-4.4,3.4-5.4,9.4,1,18.3c-1.8,0.2-3.5,1.1-3.5,1.1S27.4,73.7,24.4,74.9z"/>
									<path class="st29" d="M37.8,40.8c5.4-1.1,6.6-1.1,11-3.6C44,45.4,30.3,47.9,30.3,47.9s5-2.8,6.7-4.6
										c-5.8,1-14.6,4.5-16,9.4c-0.9-2,0.1-6.3,7-9.7c7.5-3.7,11.4-7.4,10.8-10.1C42.5,36.7,37.8,40.8,37.8,40.8z"/>
									<path class="st29" d="M50.6,32.5c-4.1,0.1-6.7,1.2-6.7,1.2s9.1,0,13,1.2c-6-6.4-16.2-3.8-16.2-3.8S46.8,30.8,50.6,32.5z"/>
									<path class="st29" d="M70,39c-3.1-3.4-6.4-4.9-6.4-4.9s3.4-0.4,5.3-0.4c-5.9-2.6-10.3-0.1-10.3-0.1S66.6,36.6,70,39z"/>
									<path class="st30" d="M77.5,61.3c-1.3-4-3.6-11.5-9.8-15.9c-4.5,5.3-27.3,10.9-36.4,11.8c-4.4,3.5-5.2,9.6,1.2,18.5
										c-10.2-7.8-6.2-18.1-2.1-19.9c27.2-3.5,35.3-15.2,35.3-15.2C76.8,46.4,77.7,61.2,77.5,61.3z"/>
								</g>
								<g>
									<g>
										<path class="st8" d="M31.9,149.3c-3,17.2-7.4,27.3-7.4,27.3s-4.4-0.6-4.5,0.9c-0.2,1.3,2.4,1.6,2.4,1.6s-2.4,2.9-3.4,4
											c-1.3,1.5-0.3,2.5,1.1,1.5c0.7-0.6,2.1-1.8,2.2-1.8c0,0.2-1.4,2.1-2.1,3.2c-1.1,1.6,0.6,2.6,1.5,1.1
											c0.2-0.6,2-3.1,2.1-3.2c0,0.2-1.1,2.6-1.5,3.6c-0.5,1.2,0.8,1.9,1.6,0.5c0.3-0.6,1.6-3.2,1.7-3.3c-0.1,0.6-1,2.9-0.2,3.3
											c0.7,0.3,1.5-1,2.1-3.1c1.6-2.5,2.1-5,1.1-6.7c6.7-12.4,8.7-29.6,8.7-29.6S33.2,144.9,31.9,149.3z"/>
										<path class="st9" d="M31.3,154.2c0.2-2,0.4-2.8,0.4-4.9c1.5-4.4,5.1,0.3,5.1,0.3s-0.6,2-1,5.8
											C35.3,151.3,32,151.8,31.3,154.2z"/>
										<path class="st31" d="M25.4,179.7c-1.2,1.2-2.8,0.4-3.7-0.2c-0.1-0.1-0.1-0.2,0-0.3c0.1-0.1,0.2-0.1,0.3,0
											c0.6,0.6,2,1.3,3,0.3c0.1-0.1,0.2-0.1,0.3,0C25.4,179.6,25.4,179.6,25.4,179.7L25.4,179.7z"/>
									</g>
									<path class="st15" d="M39.9,126.4c0.4,8.5,0.2,34.1-8.1,48.8c-3.7,0.8-6.5-1-7.6-3.2c5.7-11.7,7.2-30.2,6.8-42.2
										c-0.4-11.7,1.1-18.2,2.2-19.6C34.2,113.7,37.9,119.1,39.9,126.4z"/>
								</g>
								<g>
									<g>
										<path class="st8" d="M89.5,149.4c5.3,16.6,10.9,26.1,10.9,26.1s4.3-1.1,4.6,0.3c0.4,1.5-2.1,2-2.1,2s2.7,2.5,3.9,3.5
											c1.5,1.3,0.6,2.5-0.9,1.6c-1-0.5-2.4-1.5-2.5-1.5c0.1,0.2,1.6,1.9,2.5,2.9c1.1,1.5-0.4,2.6-1.5,1.3
											c-0.4-0.4-2.5-2.7-2.6-2.8c0.1,0.1,1.5,2.3,2,3.3c0.7,1.2-0.6,2-1.5,0.8c-0.4-0.5-2-3-2.1-3.1c0.2,0.6,1.3,2.7,0.6,3.2
											c-0.7,0.5-1.6-0.6-2.5-2.7c-2-2.3-2.8-4.7-2-6.5c-8.4-11.4-12.5-28.2-12.5-28.2S87.4,145.3,89.5,149.4z"/>
										<path class="st9" d="M90.3,154.3c-0.5-1.9-0.7-2.7-1-4.8c-2-4.1-5,1-5,1s0.9,1.9,1.8,5.6C86.1,151.9,89.5,152,90.3,154.3z
											"/>
										<path class="st31" d="M99.6,178.8c1.4,1.1,2.8,0.1,3.5-0.7c0.1-0.1,0.1-0.2,0-0.3s-0.2-0.1-0.3,0
											c-0.5,0.7-1.7,1.7-2.9,0.8c-0.1-0.1-0.2-0.1-0.3,0C99.6,178.7,99.6,178.7,99.6,178.8C99.6,178.9,99.6,178.9,99.6,178.8z"
											/>
									</g>
									<path class="st15" d="M78.4,127.8c0.6,8.6,4.2,33.9,14.3,47.4c3.7,0.2,6.3-1.9,7.1-4.2c-7.1-10.9-11-29.1-12.1-41
										c-1.1-11.6-3.4-17.9-4.7-19.1C82.5,114.4,79.4,120.2,78.4,127.8z"/>
								</g>
							</g>
						</g>
					</g>
				</g>
			</g>
		</g>
	</g>
</g>
</svg>
