<?xml version="1.0" encoding="utf-8"?>
<!-- Generator: Adobe Illustrator 21.0.0, SVG Export Plug-In . SVG Version: 6.00 Build 0)  -->
<svg version="1.1" id="Layer_1" xmlns="http://www.w3.org/2000/svg" xmlns:xlink="http://www.w3.org/1999/xlink" x="0px" y="0px"
	 viewBox="0 0 180 180" style="enable-background:new 0 0 180 180;" xml:space="preserve">
<style type="text/css">
	.st0{fill:#FFFFFF;}
	.st1{display:none;}
	.st2{display:inline;}
	.st3{fill:url(#SVGID_1_);}
	.st4{fill:#508906;}
	.st5{clip-path:url(#SVGID_4_);}
	.st6{fill:#F8D5C9;}
	.st7{fill:#FA8C89;}
	.st8{opacity:0.25;fill:#FA8C89;}
	.st9{opacity:0.5;fill:#D0DBFD;}
	.st10{fill:#113F6A;}
	.st11{opacity:0.25;fill:#113F6A;}
	.st12{opacity:0.34;fill:#113F6A;}
	.st13{opacity:0.6;fill:#113F6A;}
	.st14{fill:#D0DBFD;}
	.st15{opacity:0.15;fill:#FA8C89;}
	.st16{opacity:0.34;fill:#0A2233;}
	.st17{fill:#FF5E6C;}
	.st18{opacity:0.5;fill:#FF5E6C;}
	.st19{fill:#FFE0C2;}
	.st20{opacity:0.45;fill:#F4D0A4;enable-background:new    ;}
	.st21{fill:#F4D0A4;}
	.st22{fill:#F49166;}
	.st23{opacity:0.62;fill:#F4D0A4;enable-background:new    ;}
	.st24{opacity:0.5;}
	.st25{opacity:0.45;fill:#E8B277;enable-background:new    ;}
	.st26{fill:#7E3716;}
	.st27{opacity:0.25;fill:#7E3716;enable-background:new    ;}
	.st28{opacity:0.3;}
	.st29{fill:#FFFCF8;}
	.st30{fill:#FDE9CF;}
	.st31{opacity:0.1;fill:#EA2F69;enable-background:new    ;}
	.st32{fill:#BF5900;}
	.st33{fill:#DD7A37;}
	.st34{fill:#A54700;}
	.st35{opacity:0.25;fill:#471807;enable-background:new    ;}
	.st36{opacity:0.2;}
	.st37{fill:#EAAD85;}
	.st38{fill:#DDDFE0;}
	.st39{fill:#B2A297;}
	.st40{fill:#262223;}
	.st41{fill:#412820;}
	.st42{fill:url(#SVGID_5_);}
	.st43{fill:url(#SVGID_6_);}
	.st44{fill:url(#SVGID_7_);}
	.st45{fill:#373537;}
	.st46{fill:url(#SVGID_8_);}
	.st47{fill:url(#SVGID_9_);}
	.st48{fill:url(#SVGID_10_);}
	.st49{fill:#994302;}
</style>
<rect class="st0" width="180" height="180"/>
<rect class="st0" width="180" height="180"/>
<g>
	<g>
		<g>
			<g class="st1">
				<g class="st2">
					<g>
						
							<radialGradient id="SVGID_1_" cx="96.3333" cy="383" r="167.1662" gradientTransform="matrix(1 0 0 -1 0 467)" gradientUnits="userSpaceOnUse">
							<stop  offset="0.173" style="stop-color:#FFFFFF"/>
							<stop  offset="1" style="stop-color:#36CDFF;stop-opacity:0.3"/>
						</radialGradient>
						<rect id="SVGID_2_" x="0.4" y="0.1" class="st3" width="180" height="180"/>
					</g>
				</g>
			</g>
			<g>
				<g>
					<g>
						<path class="st4" d="M168.9,173.6h-2.6V173h2.6V173.6z M163.1,173.6h-2.6V173h2.6V173.6z M157.3,173.6h-2.6V173h2.6V173.6z
							 M151.5,173.6H149V173h2.6v0.6H151.5z M145.8,173.6h-2.6V173h2.6V173.6z M140,173.6h-2.6V173h2.6V173.6z M134.2,173.6h-2.6
							V173h2.6V173.6z M128.5,173.6h-2.6V173h2.6V173.6z M122.7,173.6h-2.6V173h2.6V173.6z M116.9,173.6h-2.6V173h2.6V173.6z
							 M111.2,173.6h-2.6V173h2.6V173.6z M105.4,173.6h-2.6V173h2.6V173.6z M99.6,173.6H97V173h2.6V173.6z M93.9,173.6h-2.6V173h2.6
							V173.6z M88.1,173.6h-2.6V173h2.6V173.6z M82.3,173.6h-2.6V173h2.6V173.6z M76.5,173.6H74V173h2.6L76.5,173.6L76.5,173.6z
							 M70.8,173.6h-2.6V173h2.6V173.6z M65,173.6h-2.6V173H65V173.6z M59.2,173.6h-2.6V173h2.6V173.6z M53.5,173.6h-2.6V173h2.6
							V173.6z M47.7,173.6h-2.6V173h2.6V173.6z M41.9,173.6h-2.6V173h2.6V173.6z M36.2,173.6h-2.6V173h2.6V173.6z M30.4,173.6h-2.6
							V173h2.6V173.6z M24.6,173.6H22V173h2.6V173.6z M18.9,173.6h-2.6V173h2.6V173.6z M13.1,173.6H12c-0.5,0-1-0.1-1.5-0.2l0.2-0.6
							c0.4,0.1,0.9,0.2,1.3,0.2h1.1V173.6z M171.5,172.8l-0.3-0.5c0.7-0.4,1.2-1,1.6-1.8l0.6,0.3
							C172.9,171.6,172.3,172.3,171.5,172.8z M7.8,171.3c-0.5-0.8-0.8-1.7-0.8-2.6h0.6c0,0.8,0.3,1.6,0.7,2.2L7.8,171.3z
							 M173.9,167.5h-0.6V165h0.6V167.5z M7.6,165.5H6.9V163h0.6L7.6,165.5L7.6,165.5z M173.9,161.8h-0.6v-2.6h0.6V161.8z
							 M7.6,159.8H6.9v-2.6h0.6L7.6,159.8L7.6,159.8z M173.9,156h-0.6v-2.6h0.6V156z M7.6,154H6.9v-2.6h0.6L7.6,154L7.6,154z
							 M173.9,150.2h-0.6v-2.6h0.6V150.2z M7.6,148.2H6.9v-2.6h0.6L7.6,148.2L7.6,148.2z M173.9,144.4h-0.6v-2.6h0.6V144.4z
							 M7.6,142.4H6.9v-2.6h0.6L7.6,142.4L7.6,142.4z M173.9,138.7h-0.6v-2.6h0.6V138.7z M7.6,136.7H6.9v-2.6h0.6L7.6,136.7
							L7.6,136.7z M173.9,132.9h-0.6v-2.6h0.6V132.9z M7.6,130.9H6.9v-2.6h0.6L7.6,130.9L7.6,130.9z M173.9,127.1h-0.6v-2.6h0.6
							V127.1z M7.6,125.1H6.9v-2.6h0.6L7.6,125.1L7.6,125.1z M173.9,121.4h-0.6v-2.6h0.6V121.4z M7.6,119.4H6.9v-2.6h0.6L7.6,119.4
							L7.6,119.4z M173.9,115.6h-0.6V113h0.6V115.6z M7.6,113.6H6.9V111h0.6L7.6,113.6L7.6,113.6z M173.9,109.8h-0.6v-2.6h0.6V109.8
							z M7.6,107.8H6.9v-2.6h0.6L7.6,107.8L7.6,107.8z M173.9,104.1h-0.6v-2.6h0.6V104.1z M7.6,102.1H6.9v-2.6h0.6L7.6,102.1
							L7.6,102.1z M173.9,98.3h-0.6v-2.6h0.6V98.3z M7.6,96.3H6.9v-2.6h0.6L7.6,96.3L7.6,96.3z M173.9,92.5h-0.6V90h0.6V92.5z
							 M7.6,90.5H6.9V88h0.6L7.6,90.5L7.6,90.5z M173.9,86.8h-0.6v-2.6h0.6V86.8z M7.6,84.8H6.9v-2.6h0.6L7.6,84.8L7.6,84.8z
							 M173.9,81h-0.6v-2.6h0.6V81z M7.6,79H6.9v-2.6h0.6L7.6,79L7.6,79z M173.9,75.2h-0.6v-2.6h0.6V75.2z M7.6,73.2H6.9v-2.6h0.6
							L7.6,73.2L7.6,73.2z M173.9,69.4h-0.6v-2.6h0.6V69.4z M7.6,67.4H6.9v-2.6h0.6L7.6,67.4L7.6,67.4z M173.9,63.7h-0.6v-2.6h0.6
							V63.7z M7.6,61.7H6.9v-2.6h0.6L7.6,61.7L7.6,61.7z M173.9,57.9h-0.6v-2.6h0.6V57.9z M7.6,55.9H6.9v-2.6h0.6L7.6,55.9L7.6,55.9
							z M173.9,52.1h-0.6v-2.6h0.6V52.1z M7.6,50.1H6.9v-2.6h0.6L7.6,50.1L7.6,50.1z M173.9,46.4h-0.6v-2.6h0.6V46.4z M7.6,44.4H6.9
							v-2.6h0.6L7.6,44.4L7.6,44.4z M173.9,40.6h-0.6V38h0.6V40.6z M7.6,38.6H6.9V36h0.6L7.6,38.6L7.6,38.6z M173.9,34.8h-0.6v-2.6
							h0.6V34.8z M7.6,32.8H6.9v-2.6h0.6L7.6,32.8L7.6,32.8z M173.9,29.1h-0.6v-2.6h0.6V29.1z M7.6,27.1H6.9v-2.6h0.6L7.6,27.1
							L7.6,27.1z M173.9,23.3h-0.6v-2.6h0.6V23.3z M7.6,21.3H6.9v-2.6h0.6L7.6,21.3L7.6,21.3z M173.9,17.5h-0.6V15h0.6V17.5z
							 M7.6,15.5H6.9V13h0.6L7.6,15.5L7.6,15.5z M173.9,11.8h-0.6v-0.1c0-0.8-0.2-1.5-0.6-2.2l0.6-0.3c0.4,0.8,0.7,1.6,0.7,2.5
							L173.9,11.8L173.9,11.8z M7.9,9.9L7.3,9.7c0.4-0.9,1-1.6,1.7-2.1l0.4,0.5C8.8,8.6,8.2,9.2,7.9,9.9z M170.4,7.6
							c-0.5-0.2-1-0.3-1.6-0.3H168V6.6h0.8c0.6,0,1.2,0.1,1.8,0.3L170.4,7.6z M164.8,7.3h-2.6V6.6h2.6V7.3z M159,7.3h-2.6V6.6h2.6
							V7.3z M153.3,7.3h-2.6V6.6h2.6V7.3z M147.5,7.3h-2.6V6.6h2.6V7.3z M141.7,7.3h-2.6V6.6h2.6V7.3z M136,7.3h-2.6V6.6h2.6V7.3z
							 M130.2,7.3h-2.6V6.6h2.6V7.3z M124.4,7.3h-2.6V6.6h2.6V7.3z M118.6,7.3H116V6.6h2.6V7.3z M112.9,7.3h-2.6V6.6h2.6V7.3z
							 M107.1,7.3h-2.6V6.6h2.6V7.3z M101.3,7.3h-2.6V6.6h2.6V7.3z M95.6,7.3H93V6.6h2.6V7.3z M89.8,7.3h-2.6V6.6h2.6V7.3z M84,7.3
							h-2.6V6.6H84V7.3z M78.3,7.3h-2.6V6.6h2.6V7.3z M72.5,7.3h-2.6V6.6h2.6V7.3z M66.7,7.3h-2.6V6.6h2.6V7.3z M61,7.3h-2.6V6.6H61
							V7.3z M55.2,7.3h-2.6V6.6h2.6V7.3z M49.4,7.3h-2.6V6.6h2.6V7.3z M43.6,7.3H41V6.6h2.6V7.3z M37.9,7.3h-2.6V6.6h2.6V7.3z
							 M32.1,7.3h-2.6V6.6h2.6V7.3z M26.3,7.3h-2.6V6.6h2.6V7.3z M20.6,7.3H18V6.6h2.6V7.3z M14.8,7.3h-2.6V6.6h2.6
							C14.8,6.6,14.8,7.3,14.8,7.3z"/>
					</g>
				</g>
			</g>
		</g>
	</g>
</g>
<g>
	<g>
		<g>
			<g>
				<g>
					<g>
						<g>
							<g>
								<defs>
									<ellipse id="SVGID_3_" cx="90.6" cy="48" rx="129.7" ry="117"/>
								</defs>
								<clipPath id="SVGID_4_">
									<use xlink:href="#SVGID_3_"  style="overflow:visible;"/>
								</clipPath>
								<g class="st5">
									<g>
										<g>
											<path class="st6" d="M138.1,246c0.1,0.8-2.2,11.8,1.5,12.3c3.7,0.5,2.8-6,4.5-6.6c1.7-0.6,4.4,18.3,7.2,18.5
												c2.8,0.3,5.3-9.9,5.8-12.1c0,0,1.2,3,2.3,2.4c1.1-0.6-3.2-14.5-6.1-19.9C150.4,235.3,137.5,242.7,138.1,246z"/>
											<path class="st7" d="M152,254.3c0.1,0,0.5,2,0.7,4.1c0.3,2,0.5,4.1,0.5,4.1s0,0.5,0.1,1.3c0,0.8,0.1,1.8,0,2.9
												c0,1-0.3,2.1-0.7,2.8c-0.4,0.7-0.9,1-0.9,0.9c0,0,0.4-0.3,0.7-1c0.3-0.7,0.5-1.7,0.5-2.7c0-1-0.1-2-0.2-2.8
												c-0.1-0.8-0.1-1.3-0.1-1.3s-0.1-2.1-0.3-4.1C152.1,256.3,151.9,254.3,152,254.3z M154.9,257.9c0,1.9-0.2,3.8-0.2,3.8
												s0,0.5-0.1,1.2c0,0.7-0.1,1.6-0.3,2.6c-0.2,0.9-0.5,1.8-0.8,2.4c-0.3,0.6-0.6,1-0.6,1c0,0,0.4-0.3,0.8-0.9
												c0.4-0.6,0.8-1.5,1-2.4c0.2-0.9,0.4-1.9,0.4-2.6c0.1-0.7,0.1-1.2,0.1-1.2s0.1-1.9,0-3.8c-0.1-1.9-0.3-3.8-0.4-3.8
												C154.9,254.1,155,256,154.9,257.9z M156.2,253.5c0.2,1,0.3,2,0.3,2s0.2,1,0.2,2c0.1,1,0,2,0.1,2c0.1,0,0.3-1,0.4-2
												c0.1-1,0-2,0-2s-0.2-1-0.5-2c-0.3-1-0.8-1.9-0.9-1.8C155.7,251.6,156,252.6,156.2,253.5z"/>
											<path class="st8" d="M159.4,260.6c0.2-0.1,0.2-0.7,0.1-1.6c-1.4-0.9-2.8-5.5-2.9-5.6c-0.1-0.1-0.3,10.1-3.2,11.9
												c-2.8,1.8-4.8-8.2-6.6-11.2c-1.8-3-2.8-2.4-2.8-2.4c1.7-0.6,4.4,18.3,7.2,18.5c2.8,0.3,5.3-9.9,5.8-12.1
												C157.1,258.2,158.3,261.2,159.4,260.6z"/>
											<path class="st8" d="M139.6,258.3c2,0.3,2.6-1.5,3.1-3.2c-0.5,0.6-1,1.1-1.8,1.3c-2.4,0.5-3.7-10.3,1.7-9
												c4,0.9,9.4-2.3,11.9-4.1c-0.4-1-0.8-1.8-1.2-2.5c-2.9-5.4-15.8,2-15.2,5.3C138.2,246.8,135.9,257.8,139.6,258.3z"/>
											<path class="st0" d="M137.2,240.6l0.5,4.2c0,0,8,4.4,17.4-3.4l-1.8-4.5L137.2,240.6z"/>
											<path class="st9" d="M152.7,243.3c-8.6,2.3-14.7-0.4-10.2-0.7c5-0.3,10.1-3.2,11.5-4l-0.6-1.5l-16.2,3.6l0.5,4.2
												C137.7,244.9,144.4,248.5,152.7,243.3z"/>
											<path class="st10" d="M130.6,106.5c1.6-0.9,7.3,52.7,9.9,68c2.6,15.3,14.9,62,14.9,62s-11.8,7-20.9,3.1
												c0,0-9.9-57.3-10.6-66.8C123.1,163.2,116.5,114.4,130.6,106.5z"/>
											<path class="st11" d="M131.1,107.5c-0.5,2.6-1.5,5.9-3.8,10c-3.2,5.7-4.5,21.8-5.1,36c0.6,8.8,1.4,16.1,1.7,19.3
												c0.7,9.6,10.6,66.8,10.6,66.8c9.1,3.8,20.9-3.1,20.9-3.1s-2.3-8.6-5-19.6c-0.5,6.2-2,15.9-7.1,15.9c-0.5,0-1-0.2-1.4-0.4
												c-2.5-1.3-3.8-4.9-4.7-7.3c-1.5-4-2.4-8.2-3-12.4c-0.4-2.5-1.1-5-1.5-7.4c-1.6-12.8-2.5-25.7-2.5-38.7
												c0-14.3,1.4-28.7,3.6-42.8C132.7,116,131.8,109.8,131.1,107.5z"/>
											<path class="st12" d="M140.5,188.9c-0.1,0-0.1-2-0.1-3.9c0-2-0.1-3.9-0.1-3.9s0-2-0.1-3.9c-0.1-2-0.2-3.9-0.1-3.9
												c0.1,0,0.4,1.9,0.5,3.9c0.2,2,0.3,3.9,0.3,3.9s0,2-0.1,4C140.7,186.9,140.5,188.9,140.5,188.9z M142.6,194.3
												c0-0.9,0-2,0-3.1c0-2.3-0.2-4.5-0.2-4.5s-0.2-2.3-0.5-4.5c-0.2-1.1-0.3-2.3-0.5-3.1c-0.2-0.8-0.3-1.4-0.3-1.4
												c0,0,0,0.6,0.1,1.4c0.1,0.8,0.2,2,0.3,3.1c0.2,2.3,0.3,4.5,0.3,4.5s0.2,2.3,0.3,4.5c0.1,1.1,0.1,2.3,0.2,3.1
												c0,0.9,0.1,1.4,0.1,1.4C142.5,195.7,142.6,195.1,142.6,194.3z"/>
											<path class="st13" d="M137.9,169.2c-0.4-4.7-0.9-9.4-0.9-9.4s-0.6-4.7-1.2-9.3c-0.3-2.3-0.7-4.7-0.9-6.4
												c-0.3-1.7-0.5-2.9-0.6-2.9c-0.1,0,0,1.2,0.1,2.9c0.1,1.8,0.3,4.1,0.5,6.5c0.4,4.7,0.9,9.4,0.9,9.4s0.6,4.7,1.2,9.3
												c0.3,2.3,0.7,4.7,0.9,6.4c0.3,1.7,0.5,2.9,0.6,2.9c0.1,0,0-1.2-0.1-3C138.3,173.9,138.1,171.5,137.9,169.2z"/>
											<path class="st13" d="M148.2,214.5c-0.2-3-0.7-6-0.7-6s-0.6-3-1.4-5.9c-0.8-2.9-1.9-5.8-2-5.7c-0.2,0.1,0.6,3,1.2,5.9
												c0.6,3,1.1,5.9,1.1,5.9s0.6,2.9,1.1,5.9c0.5,3,0.8,6,1,6C148.5,220.5,148.5,217.5,148.2,214.5z"/>
										</g>
										<path class="st9" d="M82.5,98.9c0,0-22.3,3.8-29.5,8.6c0,0,8.8,25.8,3.9,37.9c3.9,12.2,6.8,24.8,8.6,37.5
											c0.5,3.7,0.9,7.4,1.1,11.1c0.2,3.5-1.2,8.4,3.4,9.3c3.1,0.7,6.2,1.3,9.4,1.9c8.5,1.4,17.4,2.3,26,1.2
											c3.7-0.5,8.2-1,11-3.7c2.1-2,2.2-5,2.6-7.6c0.9-6.5,1.9-12.9,2.7-19.4c2.2-15.8,4.3-31.7,5.7-47.6c0.3-3,0.5-6,0.6-8.9
											C128.7,98.2,97.7,98.7,82.5,98.9z"/>
										<path class="st0" d="M82.5,98.9c0,0-22.3,3.8-29.5,8.6c0,0,8.8,25.8,3.9,37.9c3.9,12.2,6.8,24.8,8.6,37.5
											c0.5,3.7,0.9,7.4,1.1,11.1c0.2,3.5-1.2,8.4,3.4,9.3c3.1,0.7,6.2,1.3,9.4,1.9c8.5,1.4,17.4,2.3,26,1.2
											c3.7-0.5,8.2-1,11-3.7c2.1-2,2.2-5,2.6-7.6c0.9-6.5,1.9-12.9,2.7-19.4c2.2-15.8,4.3-31.7,5.7-47.6c0.3-3,0.5-6,0.6-8.9
											C128.7,98.2,97.7,98.7,82.5,98.9z"/>
										<path class="st9" d="M82.5,98.9c0,0-22.3,3.8-29.5,8.6c0,0,8.8,25.8,3.9,37.9c3.9,12.2,6.8,24.8,8.6,37.5
											c0.5,3.7,0.9,7.4,1.1,11.1c0.2,3.5-1.2,8.4,3.4,9.3c3.1,0.7,6.2,1.3,9.4,1.9c8.5,1.4,17.4,2.3,26,1.2
											c3.7-0.5,8.2-1,11-3.7c2.1-2,2.2-5,2.6-7.6c0.9-6.5,1.9-12.9,2.7-19.4c2.2-15.8,4.3-31.7,5.7-47.6c0.3-3,0.5-6,0.6-8.9
											C128.7,98.2,97.7,98.7,82.5,98.9z"/>
										<g>
											<path class="st9" d="M78.9,113.8l0-0.1C78.9,113.6,78.9,113.7,78.9,113.8z"/>
											<path class="st9" d="M105.3,106.2c2.1,15,4.1,92.5-12.1,89.2c-14.4-2.9-14.5-73.8-14.3-81.2c0-0.3,0-0.4,0-0.5L72,203.7
												c2.4,0.5,4.9,1,7.3,1.4c8.5,1.4,17.4,2.3,26,1.2c3.7-0.5,8.2-1,11-3.7c0.1-0.1,0.1-0.1,0.2-0.2
												c2.2-5.9-1.1-14.4,0.6-28.7C119.5,153.6,103.2,91.2,105.3,106.2z"/>
											<path class="st14" d="M95.9,189.2c0,0,0.1,0.5,0.1,1.4c0,0.8,0.1,1.9,0.1,3c0,2.2,0.1,4.4,0.1,4.4s-0.1,2.2-0.1,4.4
												c-0.1,1.1-0.2,2.2-0.4,3c-0.2,0.8-0.5,1.3-0.5,1.3c0,0,0.2-0.5,0.3-1.3c0.1-0.8,0.2-1.9,0.2-3c0-2.2-0.1-4.4-0.1-4.4
												s0.1-2.2,0.1-4.4c0-1.1,0.1-2.2,0.1-3C95.8,189.7,95.8,189.2,95.9,189.2z"/>
										</g>
										<path class="st6" d="M80.2,92.2l0.6,9.7c0,0,6.5,7.3,18.3,1.1l-0.6-11C98.5,92,84.6,86.5,80.2,92.2z"/>
										<path class="st15" d="M80.2,92.2l0.6,9.7c0,0,6.5,7.3,18.3,1.1l-0.6-11C98.5,92,84.6,86.5,80.2,92.2z"/>
										<path class="st8" d="M99.1,103l-0.2-3.6c-10.6,10.5-19.2-7.8-14-4.4c4.4,2.9,11.5-0.1,13.7-1.1l0-0.7
											c-1.7-0.7-6.1-2.6-11-3.7c-3-0.1-5.8,0.5-7.4,2.6l0.6,9.7C80.8,101.9,87.2,109.2,99.1,103z"/>
										<path class="st12" d="M102.1,100.3c0,0,22.4-0.2,26.3,5.2c1.7,2.3,1.3,6.2,1.1,8.9c-0.4,5.4-1.3,10.7-2.3,16
											c-2.6,14.6-4.7,27.6-6.3,42.4c-0.9,8.6-2.2,18.8-2.3,27.4c0,3.6-0.1,7.3,0,11c0,2.6,1.2,7.8-0.2,10.1
											c-2.2,3.6-10.9,3.4-14.2,1.9c-3.2-1.5,1.5-59.8,2.8-86.9C108.3,109.1,102.1,100.3,102.1,100.3z"/>
										<path class="st10" d="M103.6,99.5c0,0,22.4-0.2,26.3,5.2c1.7,2.3,1.3,6.2,1.1,8.9c-0.4,5.4-1.3,10.7-2.3,16
											c-2.6,14.6-4.7,27.6-6.3,42.4c-0.9,8.6-2.2,18.8-2.3,27.4c0,3.6-0.1,7.3,0,11c0,2.6,1.2,7.8-0.2,10.1
											c-2.2,3.6-10.9,3.4-14.2,1.9c-3.2-1.5,1.5-59.8,2.8-86.9C109.8,108.3,103.6,99.5,103.6,99.5z"/>
										<path class="st10" d="M99.5,95.5c0.3,0.7,6.1,0.2,11.2,6.8c5.1,6.7,11.9,26.5,9.9,29.4c-2,2.9-7.4,0.1-7.4,0.1
											s4.6,9.1,5.5,19c0.8,9.8-12.7,37.7-12.7,37.7s0-37.8,0.9-46.3c1-8.5,0-33.8-3.3-40C101.3,98,99.5,95.5,99.5,95.5z"/>
										<path class="st12" d="M99.5,95.5c0.3,0.7,6.1,0.2,11.2,6.8c5.1,6.7,11.9,26.5,9.9,29.4c-2,2.9-7.4,0.1-7.4,0.1
											s4.6,9.1,5.5,19c0.8,9.8-12.7,37.7-12.7,37.7s0-37.8,0.9-46.3c1-8.5,0-33.8-3.3-40C101.3,98,99.5,95.5,99.5,95.5z"/>
										<g>
											<path class="st16" d="M115,135.9c1.2,3.5,2.5,8,2.9,12.8c0.7,8.4-9,29.8-11.9,36c0,2.4,0,3.8,0,3.8s13.5-27.8,12.7-37.7
												C118.2,145.1,116.4,139.5,115,135.9z"/>
											<path class="st16" d="M116.9,114.7c2.4,6.8,3.9,13.4,2.8,15c-2,2.9-7.4,0.1-7.4,0.1s0.4,0.8,1,2.2
												c1.1,0.5,5.4,2.4,7.1-0.2C121.8,130.1,119.8,122.2,116.9,114.7z"/>
										</g>
										<path class="st12" d="M130.4,134.4c-0.5,1.8-1.1,3.6-1.1,3.6s-0.6,1.8-1.2,3.5c-0.6,1.5-1.3,3-1.4,3.4
											c0.6-3.4,1.1-5.8,1.1-5.8c0.6-3.5,1.2-7,1.7-10.5c0.7-4.2,1.2-8.2,1.4-12.4c0.1-1.6-0.3-3.2-0.1-4.8
											c-0.6,5.7-0.8,11.7-1.8,17.4c-0.6,3.4-1.2,6.8-1.8,10.2c0,0-4.2,28.3-4,28.3c0.1,0,2.3-15.3,3.6-22.3c0,0,0,0.1,0,0.1
											c0.1,0,1-1.6,1.8-3.3c0.8-1.7,1.4-3.5,1.4-3.5s0.6-1.8,1-3.7c0.4-1.8,0.7-3.7,0.6-3.7
											C131.3,130.8,130.9,132.6,130.4,134.4z"/>
										<g>
											<path class="st9" d="M84.1,154.3c-0.2-25.2-7.2-54.2-7.2-54.2c-0.1,0-0.2-0.1-0.3-0.1c-7.1,1.5-18.8,4.2-23.6,7.5
												c0,0,7.1,20.9,5,33.9c1.4,7.6,2.6,14.6,3.2,19.1c1.8,7.4,3.3,14.9,4.4,22.3c0.5,3.7,0.9,7.4,1.1,11.1
												c0.2,3.5-1.2,8.4,3.3,9.3c2.8,0.6,5.6,1.2,8.5,1.7C81.4,190.1,84.2,169.3,84.1,154.3z"/>
											<path class="st10" d="M74.9,99.9c0,0,7,29,7.2,54.2c0.2,25.2-7.9,66.9-10.9,69.1c-3,2.2-17.5-3.5-18.3-6.5
												c-0.8-3,7.4-43.7,6.6-53.3C58.7,153.8,50.2,109,48,106C45.7,103.1,70.4,97.7,74.9,99.9z"/>
											<path class="st10" d="M78.3,95.8c0,0-6.8,2.2-8.9,12.2c-2.1,10-4.4,25.2-1.3,26.2c3.2,0.9,6.3-1,6.3-1S70.1,146,70,152.8
												c-0.2,6.8,7.5,35.3,9,35.1c1.5-0.3,3.2-32.3,2.8-51.4c-0.4-19.1-5.4-36.1-1.7-40.7C80.1,95.7,79.5,94.8,78.3,95.8z"/>
											<path class="st12" d="M78.3,95.8c0,0-6.8,2.2-8.9,12.2c-2.1,10-4.4,25.2-1.3,26.2c3.2,0.9,6.3-1,6.3-1S70.1,146,70,152.8
												c-0.2,6.8,7.5,35.3,9,35.1c1.5-0.3,3.2-32.3,2.8-51.4c-0.4-19.1-5.4-36.1-1.7-40.7C80.1,95.7,79.5,94.8,78.3,95.8z"/>
											<path class="st16" d="M71.6,150.9c0.2-6.8,4.5-19.7,4.5-19.7s-3.1,2-6.3,1c-3.2-0.9-0.8-16.2,1.3-26.2
												c0.7-3.4,2-5.9,3.3-7.7c-1.9,1.8-4,4.8-5,9.6c-2.1,10-4.4,25.2-1.3,26.2c3.2,0.9,6.3-1,6.3-1S70.1,146,70,152.8
												c-0.2,6.8,7.5,35.3,9,35.1c0.3,0,0.6-1.2,0.8-3.2C77.3,179.2,71.5,156.8,71.6,150.9z"/>
											<g>
												<path class="st11" d="M56.6,127.5l0.2-0.8C56.7,126.9,56.7,127.2,56.6,127.5z"/>
												<path class="st11" d="M69.3,200.3c-7.6-4.1-5.5-26.2-5.9-40.1c-0.3-13.9-1.9-34.8-1.9-34.8s-2.6,5.6-4.1,5.6
													c-1.2,0-1.1-2.1-0.8-3.5l-1.9,6.5c2.4,12.2,4.5,24.8,4.9,29.4c0.7,8.4-5.4,40.6-6.5,50.6c5.1,3.4,11.4,6.9,16.8,9.7
													c0.6-0.1,1-0.2,1.3-0.5c1.9-1.5,6-19.4,8.6-38.8C77.5,192.9,73.8,202.7,69.3,200.3z"/>
											</g>
										</g>
										<path class="st11" d="M120,220.4c1.4-2.3,0.2-7.5,0.2-10.1c0-3.7,0-7.3,0-11c0-2.9,0.2-5.9,0.4-9
											c-1.7,7.8-4.4,15.5-8.1,16.1c-7.7,1.3-6.6-22.7-6.6-22.7s-0.1,0.4-0.2,1c-1.1,19.7-1.6,36.7,0.1,37.5
											C109.1,223.8,117.8,224,120,220.4z"/>
										<g>
											<g>
												<path class="st10" d="M70.4,130.2c0,0-0.8-0.4-1.1-1.6c-0.3-1.2-0.2-2.7-0.1-4.2c0.2-3.1,0.7-6.1,0.7-6.1s0.5-3,1.3-6
													c0.4-1.5,0.8-3,1.1-4.1c0.3-1.1,0.6-1.8,0.6-1.8c0,0-0.1,0.8-0.4,1.9c-0.3,1.1-0.6,2.6-0.9,4.1c-0.6,3-1.1,6-1.1,6
													s-0.5,3-0.9,6c-0.2,1.5-0.4,3-0.1,4.1C69.8,129.7,70.5,130.2,70.4,130.2z"/>
											</g>
											<g>
												<path class="st10" d="M74.3,130.5c0,0.1-0.2,0.2-0.5,0.3c-0.3,0.1-0.6,0.1-0.6,0.1s-0.3,0-0.6-0.2
													c-0.3-0.1-0.5-0.3-0.5-0.4c0-0.1,0.3-0.1,0.6-0.1c0.3,0,0.5,0,0.5,0s0.3,0,0.5,0.1C74,130.4,74.3,130.4,74.3,130.5z"/>
											</g>
											<g>
												<path class="st10" d="M75.5,166.3c0,0-0.1-0.2-0.2-0.6c-0.1-0.4-0.2-0.9-0.3-1.5c-0.3-1.3-0.6-3-0.9-4.7
													c-0.3-1.7-0.7-3.4-0.9-4.7c-0.2-1.3-0.2-2.2-0.2-2.2s0-0.9,0-2.2c0.1-1.3,0.3-3.1,0.7-4.8c0.4-1.7,0.8-3.4,1.2-4.6
													c0.2-0.6,0.4-1.1,0.5-1.5c0.1-0.4,0.2-0.6,0.2-0.6c0,0-0.2,0.9-0.5,2.1c-0.3,1.3-0.7,3-1,4.7c-0.3,1.7-0.5,3.4-0.5,4.7
													c0,1.3,0,2.1,0,2.1s0,0.9,0.2,2.1c0.1,1.3,0.5,3,0.7,4.7c0.3,1.7,0.5,3.4,0.7,4.7c0.1,0.6,0.2,1.2,0.2,1.6
													C75.5,166.1,75.5,166.3,75.5,166.3z"/>
											</g>
											<g>
												<path class="st10" d="M118,126.8c-0.1,0,0.1-0.9-0.2-2.1c-0.2-1.2-0.7-2.8-1.3-4.4c-1.1-3.2-2.4-6.3-2.4-6.3
													s-1.3-3.1-2.8-6.1c-0.8-1.5-1.6-3-2.2-4.1c-0.6-1.1-1.1-1.8-1-1.9c0,0,0.1,0.2,0.4,0.5c0.2,0.3,0.5,0.7,0.9,1.3
													c0.7,1.1,1.6,2.5,2.4,4c1.6,3,3,6.1,3,6.1s1.3,3.1,2.3,6.4c0.5,1.6,1,3.3,1.1,4.5c0.1,0.6,0.1,1.2,0,1.5
													C118.1,126.6,118.1,126.9,118,126.8z"/>
											</g>
											<g>
												<path class="st10" d="M117.3,128.4c0,0.2-1,0.3-1,0.3s-1-0.1-1-0.3c0-0.2,1-0.3,1-0.3S117.3,128.2,117.3,128.4z"/>
											</g>
											<g>
												<path class="st10" d="M115.4,144.7c-0.1,0-0.2-1.3-0.5-2.5c-0.3-1.2-0.8-2.4-0.8-2.4s-0.4-1.2-0.9-2.4
													c-0.5-1.2-1-2.4-0.9-2.4c0.1,0,0.7,1.1,1.3,2.2c0.6,1.2,1,2.4,1,2.4s0.4,1.2,0.6,2.5
													C115.6,143.4,115.5,144.7,115.4,144.7z"/>
											</g>
											<g>
												<path class="st10" d="M110.4,171.5c0,0,0.3-0.7,0.7-1.8c0.5-1.1,1-2.6,1.5-4.1c1-3,1.7-6.1,1.7-6.1s0.7-3.1,1.1-6.2
													c0.2-1.6,0.3-3.2,0.4-4.3c0.1-1.2,0.1-2,0.1-2c0,0,0,0.2,0.1,0.5c0,0.3,0.1,0.8,0.1,1.4c0,1.2,0,2.8-0.2,4.4
													c-0.3,3.2-0.9,6.3-0.9,6.3s-0.7,3.1-1.9,6.1c-0.6,1.5-1.2,3-1.7,4c-0.3,0.5-0.5,1-0.7,1.3
													C110.6,171.3,110.5,171.5,110.4,171.5z"/>
											</g>
										</g>
										<path class="st13" d="M58.6,112.2c-0.2,0-0.2,1.5-0.3,3.1c-0.1,1.5-0.2,3-0.2,3s0,1.5,0,3c0,1.5-0.1,3,0.1,3.1
											c0.2,0,0.6-1.5,0.8-3c0.3-1.5,0.4-3.1,0.4-3.1s0-1.5-0.1-3.1C59.1,113.7,58.8,112.2,58.6,112.2z"/>
										<path class="st13" d="M129.1,113.3c0-0.5-0.1-1.2-0.2-2c-0.1-0.8-0.2-1.8-0.4-2.9c-0.1-0.5-0.2-1.1-0.3-1.6
											c-0.1-0.5-0.2-1.1-0.4-1.7c-0.1-0.3-0.4-0.6-0.7-0.8c-0.3-0.2-0.6-0.3-0.9-0.3c-0.6-0.1-1.1-0.2-1.6-0.2
											c-1.1-0.1-2-0.1-2.9-0.1c-1.7,0.1-2.8,0.3-2.8,0.4c0,0.1,1.1,0,2.8,0.1c0.8,0,1.8,0.1,2.8,0.3c1,0.2,2.3,0.3,2.5,1
											c0.2,0.4,0.2,1,0.3,1.5c0.1,0.5,0.2,1.1,0.2,1.6c0.1,1,0.2,2,0.3,2.8c0.1,0.8,0.1,1.5,0.1,2c0,0.5,0,0.8,0,0.8
											s0.3,4.4-0.3,8.8c-0.2,2.2-0.6,4.4-0.9,6c-0.3,1.6-0.6,2.7-0.5,2.7c0.1,0,0.5-1,1-2.6c0.5-1.6,1-3.8,1.3-6
											c0.7-4.4,0.6-9,0.6-9S129.1,113.8,129.1,113.3z"/>
										<path class="st13" d="M124.6,142.6c-0.6,3.3-1.1,6.6-1.1,6.6s-0.3,3.3-0.5,6.7c-0.2,3.3-0.1,6.7,0,6.7
											c0.2,0,0.5-3.3,0.8-6.6c0.4-3.3,0.8-6.6,0.8-6.6s0.3-3.3,0.7-6.6c0.4-3.3,0.9-6.6,0.7-6.6
											C126.1,136,125.3,139.3,124.6,142.6z"/>
										<g>
											<path class="st9" d="M102,190.6c-1.4,4.1-3.9,8.4-6.7,11.6c-0.2,0.2-0.4,0.4-0.6,0.4c-0.3,0-0.5-0.2-0.7-0.4
												c-0.7-0.8-1.4-1.6-2.1-2.4c-8.6-9.8-7.4-20.4-6.5-32.7c1.1-15.9,3.1-31.9,5.6-47.6c-2.8-1.3-5-5.4-5-5.4
												c-0.4-2.7,3.6-6.9,6.2-7.2c2.6-0.3,6.3,6.1,6.3,6.1s-0.2,4.5-3.8,6.4c0.2,1.6,5.6,40.4,6.7,50.8c0.3,2.8,0.7,5.6,1.1,8.3
												C103.1,182.7,103.5,186.5,102,190.6z"/>
											<g>
												<path class="st17" d="M103.2,190c-1.4,4.1-3.9,8.4-6.7,11.6c-0.2,0.2-0.4,0.4-0.6,0.4c-0.3,0-0.5-0.2-0.7-0.4
													c-0.7-0.8-1.4-1.6-2.1-2.4c-8.6-9.8-7.4-20.4-6.5-32.7c1.1-15.9,3.1-31.9,5.6-47.6c-2.8-1.3-5-5.4-5-5.4
													c-0.4-2.7,3.6-6.9,6.2-7.2c2.6-0.3,6.3,6.1,6.3,6.1s-0.2,4.5-3.8,6.4c0.2,1.6,5.6,40.4,6.7,50.8
													c0.3,2.8,0.7,5.6,1.1,8.3C104.2,182.1,104.6,185.9,103.2,190z"/>
												<path class="st18" d="M103.6,177.9c-0.1-0.4-0.1-0.8-0.2-1.1c-1.1,10.5-5.9,18.3-11.4,7.1c-5.7-11.5,0.2-61.5,1.7-62.5
													c1-0.6,2.9,6.5,4,11c-1-7.5-1.8-13.1-1.9-13.7c1.5-0.7,2.3-1.9,2.9-3.1c-0.9,0.7-3.9,2.8-6.3,0.9
													c-2.8-2.3-0.5-9.1-0.2-9.6c0,0-0.8,0.3-1.9,0.9c-1.9,1.5-3.5,3.9-3.2,5.6c0,0,2.2,4.1,5,5.4
													c-2.4,15.8-4.4,31.7-5.6,47.6c-0.9,12.2-2.1,22.9,6.5,32.7c0.7,0.8,1.4,1.6,2.1,2.4c0.2,0.2,0.4,0.4,0.7,0.4
													c0.3,0,0.4-0.2,0.6-0.4c2.7-3.2,5.2-7.6,6.7-11.6C104.6,185.9,104.2,182.1,103.6,177.9z"/>
												<path class="st17" d="M99.7,168.2c-0.3,0-3-20.5-3-20.5s-2.1-20.6-1.7-20.6c0.3,0,3,20.5,3,20.5S100,168.2,99.7,168.2z
													 M101.1,179c0.1-1.4,0-2.8,0-2.8s-0.2-1.4-0.4-2.8c-0.2-1.4-0.6-2.8-0.8-2.7c-0.2,0-0.1,1.4-0.1,2.8c0,1.4,0,2.8,0,2.8
													s0.2,1.4,0.3,2.8c0.2,1.4,0.3,2.8,0.5,2.8C100.9,181.8,101,180.4,101.1,179z M96.4,115.3c0.4-0.9,0.3-1.9,0.3-1.9
													s-0.2-1-0.8-1.7c-0.6-0.8-1.5-1.1-1.6-0.9c-0.1,0.2,0.5,0.7,0.8,1.4c0.3,0.7,0.3,1.4,0.3,1.4s0.2,0.7,0.1,1.5
													c-0.1,0.8-0.5,1.5-0.4,1.6C95.3,116.8,96,116.3,96.4,115.3z"/>
											</g>
										</g>
										<g>
											<path class="st9" d="M80.4,97.6c0.1,0,0.2-0.1,0.2-0.1c-0.5,0.2,1,3.8,1.3,4.2c0.8,1.2,1.9,2.2,3.1,3
												c2.4,1.6,5.5,2.5,8.3,1.6c1.8-0.5,3.6-1.4,4.6-3c1.3-2,1.4-4.1,1.2-6.3c2.3,2.6,4.6,5.7,5.8,9c1.1,3-0.1,12.1-4.7,9.9
												c-2.4-1.1-4.7-5.5-6.5-7.8c0,0-5.3,9.9-7.1,10.2c-3.5,0.5-6.6-4.4-7.9-6.9c-2.1-4.1-2.6-9.4,0.8-13
												C79.7,98.2,80.1,97.8,80.4,97.6z"/>
											<path class="st0" d="M80,95.7c0.1,0,0.2-0.1,0.2-0.1c-0.5,0.2,1,3.8,1.3,4.2c0.8,1.2,1.9,2.2,3.1,3
												c2.4,1.6,5.5,2.5,8.3,1.6c1.8-0.5,3.6-1.4,4.6-3c1.3-2,1.4-4.1,1.2-6.3c2.3,2.6,4.6,5.7,5.8,9c1.1,3-0.1,12.1-4.7,9.9
												c-2.4-1.1-4.7-5.5-6.5-7.8c0,0-5.3,9.9-7.1,10.2c-3.5,0.5-6.6-4.4-7.9-6.9c-2.1-4.1-2.6-9.4,0.8-13
												C79.4,96.3,79.7,95.9,80,95.7z"/>
											<g>
												<path class="st9" d="M86,113.8c-5.9-1.2-4.2-10.8-4.2-10.8s3.1,5.5,11.4,2.7c8.4-2.8,5.7-9,5.5-10.4
													c0.2,2.2,0.1,4.3-1.2,6.3c-1,1.6-2.8,2.4-4.6,3c-2.8,0.9-5.9,0-8.3-1.6c-1.2-0.8-2.3-1.8-3.1-3
													c-0.3-0.5-1.8-4.1-1.3-4.2c-0.1,0-0.2,0.1-0.2,0.1c-0.3,0.2-0.7,0.6-0.9,0.8c-3.4,3.6-2.9,8.9-0.8,13
													c1.3,2.5,4.4,7.4,7.9,6.9c0.7-0.1,1.8-1.4,2.9-3.1C88.3,113.8,87.3,114,86,113.8z"/>
												<path class="st9" d="M93.3,106.3c1.8,2.3,4.1,6.7,6.5,7.8c4,1.8,5.4-4.5,5.1-8.2c-0.5,2.6-1.3,5.2-2.4,6.3
													C100.1,114.9,93.3,106.3,93.3,106.3z"/>
											</g>
										</g>
										<g>
											<g>
												<g>
													<g>
														<path class="st19" d="M79.6,92.3l0.4,8.5c0,0,5.6,6.4,16,1.1l-0.4-9.6C95.8,92.3,83.6,87.3,79.6,92.3z"/>
														<path class="st20" d="M96,98.8c-9.3,9.1-16.7-6.9-12.3-3.9c3.8,2.5,10.1,0,12-0.9v-0.4l-0.1-1.1
															c-0.1-0.2-0.2-0.4-0.4-0.4c-0.6-0.3-1.8-0.7-3.5-1.1c-1.8-0.3-3.9-0.5-5.7-1c-0.6,0-1.3,0-1.8,0.1c0,0,0,0-0.1,0
															c-0.3,0-0.5,0.1-0.9,0.1c0,0,0,0-0.1,0c-0.3,0.1-0.5,0.1-0.8,0.2h-0.1c-0.3,0.1-0.4,0.2-0.6,0.3c-0.1,0-0.1,0-0.2,0.1
															c-0.3,0.1-0.4,0.3-0.7,0.4c0,0-0.1,0-0.1,0.1c-0.2,0.1-0.4,0.3-0.5,0.4c-0.1,0-0.1,0.1-0.2,0.1
															c-0.2,0.2-0.4,0.4-0.5,0.5l0,0l0.4,8.5c0,0,5.6,6.4,16,1.1L96,98.8z"/>
													</g>
													<g>
														<g>
															<g>
																<g>
																	<g>
																		<path class="st21" d="M114.4,55.5c0,0,2.5-3.6,5.9-1.3c4,2.6,2,16.5-3.4,16.3C111.4,70.3,113.5,55.2,114.4,55.5z"
																			/>
																		<path class="st20" d="M114.4,55.5c0,0,2.5-3.6,5.9-1.3c4,2.6,2,16.5-3.4,16.3C111.4,70.3,113.5,55.2,114.4,55.5z"
																			/>
																		<g>
																			<g>
																				<path class="st22" d="M119.4,66.3c0-0.1-0.4,0-0.9-0.1c-0.3-0.1-0.4-0.3-0.6-0.4c-0.1-0.3-0.2-0.6,0-0.9
																					c0.1-0.3,0.3-0.6,0.5-0.8c0.2-0.2,0.4-0.3,0.9-0.6c0.4-0.4,0.6-1.1,0.5-1.4c-0.1-0.4-0.2-0.5-0.2-0.5
																					s-0.1-0.2-0.3-0.4c-0.1-0.2-0.3-0.3-0.5-0.4c-0.1-0.1-0.3-0.1-0.4-0.2c0,0,0,0-0.1,0l0,0c0,0,0-0.2,0-0.3
																					s0-0.3,0.1-0.4c0.1-0.5,0.3-1.1,0.5-1.5c0.5-1,1.3-1.3,1.3-1.4c0-0.2-1-0.1-1.8,0.9c-0.4,0.4-0.8,1.1-1,1.7
																					c-0.1,0.2-0.1,0.4-0.1,0.4c0,0.2-0.1,0.3-0.1,0.5c0,0.4,0,0.9,0,1.2c0.3,0,0.6,0,0.8,0.1c0.1,0,0.2,0.1,0.2,0.1
																					c0.1,0.1,0.2,0.2,0.3,0.3c0.1,0.2,0.1,0.2,0.1,0.2c0,0.1,0.1,0,0,0.1c-0.1,0.2-0.4,0.4-0.8,0.7
																					c-0.4,0.4-0.6,0.9-0.7,1.5s0,1.2,0.4,1.6c0.3,0.4,0.7,0.5,1.1,0.5C119.1,66.7,119.4,66.3,119.4,66.3z"/>
																			</g>
																		</g>
																		<path class="st23" d="M116.9,70.5c-5.4-0.2-3.4-15.3-2.5-15c0,0,1.2-1.8,3.1-2c-0.9,2.2,0.4,5.6,0.4,5.6
																			s1.4-2.3,2.2-1.5c0.8,0.8-0.4,4.4,1.2,4.7c0.5,0.1,0.9-0.3,1.1-0.9C122.1,65.8,120,70.5,116.9,70.5z"/>
																	</g>
																	<g class="st24">
																		<g>
																			<path class="st21" d="M122,57.2c0.3,0.8,0.1,1.6-0.3,1.8s-0.8-0.3-1.1-1.1c-0.3-0.8-0.1-1.6,0.3-1.8
																				C121.2,56,121.7,56.4,122,57.2z"/>
																			<path class="st21" d="M120.6,54.9c0.1,0.3,0,0.5-0.3,0.7s-0.5,0.1-0.6-0.2s0-0.5,0.3-0.7S120.5,54.7,120.6,54.9z
																				"/>
																		</g>
																	</g>
																</g>
																<path class="st19" d="M53.5,55.9c-0.4-12.4,4.6-32.4,30.8-32.6c26.2-0.2,30.2,28.6,30.2,28.6s2.7,10.6,2.5,18.7
																	c-0.4,8.1-4.6,20.1-23.3,22s-33.2-6-36.6-17.5c0,0-6.9-0.1-8.9-7.7C46.8,61.9,49.7,56.5,53.5,55.9z"/>
																<g>
																	<g>
																		<path class="st25" d="M53.5,55.9c-0.1-3.7,0.3-8.1,1.5-12.4c1-3.2,2.4-6.3,4.2-8.9c-3.8,6.3-4.4,15.8-4.2,21.6
																			c-0.4,0.1-1.1-0.2-1.7-0.2C53.5,55.9,53.5,55.9,53.5,55.9z"/>
																		<path class="st25" d="M50.1,58c-1.1,2.1-1.4,4.7-0.8,7.5c1.8,7.6,8.9,7.7,8.9,7.7C61.5,84.8,76,92.6,94.8,90.7
																			c9.9-1.1,15.7-4.8,19.1-9.4c-3.1,5.3-9.1,10.1-20.3,11.2C74.8,94.4,60.4,86.5,57,75c0,0-6.9-0.1-8.9-7.7
																			C47.3,63.7,48.3,60.2,50.1,58z"/>
																	</g>
																</g>
																<g>
																	<path class="st26" d="M103.2,62.5c-0.1,2.5,1.1,4.5,2.5,4.5s2.5-2,2.6-4.5s-1.1-4.5-2.5-4.5
																		C104.4,57.9,103.3,59.9,103.2,62.5z"/>
																	<path class="st27" d="M104.6,58.4c-0.2,0.6-0.3,1.2-0.3,1.9c-0.1,2.5,1.1,4.5,2.5,4.5c0.4,0,0.8-0.2,1.1-0.5
																		c-0.4,1.5-1.3,2.5-2.3,2.5c-1.4,0-2.5-2-2.5-4.5C103.2,60.7,103.8,59.2,104.6,58.4z"/>
																	<g>
																		<path class="st26" d="M107.8,61.7c0.1,0.9-0.3,1.6-0.7,1.6s-0.9-0.6-0.9-1.5c-0.1-0.9,0.3-1.6,0.7-1.6
																			C107.3,60.2,107.7,60.8,107.8,61.7z"/>
																		<path class="st26" d="M106,59.4c0,0.2,0.2,0.4,0.4,0.4c0.2,0,0.4-0.2,0.4-0.4s-0.2-0.4-0.4-0.4S106,59.2,106,59.4
																			z"/>
																	</g>
																</g>
																<g>
																	<g>
																		<g>
																			<g>
																				<path class="st22" d="M52.2,70.1c-0.1,0,0,0.9,0.8,1.5c0.2,0.2,0.4,0.3,0.8,0.3c0.4,0,0.7-0.2,1-0.4
																					c0.3-0.3,0.5-0.7,0.5-1.1c0.1-0.4-0.1-1.1-0.4-1.4c-0.4-0.3-0.6-0.4-0.8-0.5s-0.3-0.3-0.4-0.4
																					c-0.2-0.4-0.2-0.9-0.1-1.1c0.2-0.5,0.6-0.6,0.6-0.6s0.1,0,0.3-0.1c0.1,0,0.2,0,0.3,0s0.1,0,0.2,0.1
																					c0,0,0,0,0.1,0.1s0.2,0.2,0.2,0.3c0.3,0.4,0.5,0.5,0.8,0.5c0.2,0,0.4-0.1,0.5-0.3c0.1-0.2,0.2-0.3,0.3-0.5
																					c0.1-0.4,0.2-1.2,0.2-1.6s0-0.7-0.1-1.1c-0.1-0.7-0.3-1.5-0.6-2.1s-0.7-1.1-1.1-1.3c-0.8-0.6-1.5-0.4-1.5-0.3
																					c0,0.1,0.5,0.2,1.1,0.8S56,62.7,56,64c0,0.4,0,0.6,0,1s0,0.3-0.1,0.4c0,0.1-0.2,0-0.1-0.1l0,0l-0.4-0.1
																					C55.3,65.1,55.1,65,55,65c-0.3-0.1-0.4-0.1-0.6-0.1c-0.4,0-0.5,0.1-0.5,0.1s-0.2,0.1-0.5,0.3
																					c-0.4,0.2-0.8,0.8-0.9,1.5c-0.2,0.7-0.1,1.6,0.4,2.3c0.2,0.4,0.4,0.6,0.8,0.8s0.5,0.3,0.7,0.4
																					c0.1,0.1,0.2,0.2,0.2,0.4c0,0.2-0.1,0.4-0.3,0.6c-0.3,0.4-0.7,0.4-1,0.3C52.5,70.7,52.3,70,52.2,70.1z"/>
																			</g>
																		</g>
																		<g class="st28">
																			<path class="st29" d="M51,60.2c-0.5,0.5-1.1,0.7-1.4,0.4c-0.3-0.4,0-1.1,0.5-1.7c0.5-0.5,1.1-0.7,1.4-0.4
																				C51.8,59,51.6,59.7,51,60.2z"/>
																			<path class="st29" d="M53.1,57.6c0.1,0.3,0,0.5-0.3,0.7s-0.5,0.1-0.6-0.2s0-0.5,0.3-0.7
																				C52.7,57.2,53,57.3,53.1,57.6z"/>
																		</g>
																	</g>
																</g>
															</g>
															<g>
																<path class="st22" d="M86.1,79.4c0.1,0,0.1,0.4,0.1,0.8S85.9,81,85.9,81s-0.3,0.4-0.7,0.4c-0.4,0.1-0.8-0.2-0.8-0.3
																	c0-0.1,0.4,0,0.6-0.2c0.3-0.2,0.4-0.4,0.4-0.4s0.2-0.2,0.4-0.5C85.9,79.7,86,79.4,86.1,79.4z"/>
															</g>
															<g>
																<path class="st22" d="M101.2,80.3c0.1,0.1-0.4,0.4-0.8,0.2c-0.4-0.1-0.8-0.4-0.8-0.4s-0.3-0.4-0.4-0.8s0-0.8,0-0.8
																	c0.1,0,0.2,0.4,0.4,0.7c0.2,0.4,0.4,0.5,0.4,0.5s0.2,0.3,0.4,0.4C100.8,80.3,101.2,80.3,101.2,80.3z"/>
															</g>
															<g>
																<path class="st22" d="M100,79.8c0.1,0-0.2,0.2-0.7,0.6c-0.5,0.3-1.3,0.5-2.3,0.8c-0.9,0.2-1.9,0.3-2.6,0.4
																	s-1.2,0.1-1.2,0.1s-0.5,0-1.2,0c-0.8,0-1.8-0.1-2.7-0.3c-1.9-0.3-3.5-0.9-3.3-1c0.1,0,1.8,0.5,3.6,0.6
																	c0.9,0.1,1.8,0.2,2.5,0.2s1.1,0,1.1,0s0.4,0,1.1-0.1c0.7,0,1.6-0.1,2.5-0.3s1.7-0.4,2.3-0.5
																	C99.6,80,100,79.8,100,79.8z"/>
															</g>
															<g>
																<path class="st25" d="M88.7,71.1c0,0,3.4,0.9,7.8-2.5c0,0,2.3,1.3-1.7,3C89.7,73.8,88.7,71.1,88.7,71.1z"/>
																<g>
																	<path class="st22" d="M90.9,72.1c0-0.1,0.7,0.1,1.7,0s2.2-0.6,3.3-1.2c0.5-0.4,1-0.8,1.1-1.2
																		c0.1-0.4-0.2-0.8-0.5-1c-0.4-0.3-0.7-0.4-1-0.4c-0.3-0.1-0.4-0.1-0.4-0.1s-0.4-0.1-1,0c-0.3,0-0.7,0.1-1.1,0.2
																		c-0.2,0.1-0.4,0.2-0.7,0.3c-0.4,0.2-1,0.6-1.4,1c0-0.5,0-1.2-0.1-1.8c0-0.4,0-0.7,0-1.1c0-0.8,0-1.5,0-2.2
																		c0-1.4,0.1-2.5,0.2-2.5s0.3,1.1,0.4,2.5c0.1,0.7,0.2,1.5,0.2,2.3c0,0.4,0.1,0.8,0.1,1.1c0,0.1,0,0.2,0.1,0.2
																		c0.1-0.1,0.1-0.1,0.2-0.1c0.3-0.2,0.5-0.3,0.8-0.4c0.5-0.2,1-0.3,1.3-0.4c0.7-0.1,1.1,0,1.1,0s0.2,0,0.5,0.1
																		c0.4,0.1,0.8,0.3,1.3,0.6c0.3,0.2,0.5,0.4,0.7,0.8s0.3,0.8,0.1,1.2c-0.3,0.9-1,1.3-1.6,1.7c-1.3,0.6-2.6,1-3.7,1.1
																		C91.6,72.6,90.9,72.2,90.9,72.1z"/>
																</g>
																
																	<ellipse transform="matrix(0.9136 -0.4066 0.4066 0.9136 -20.111 44.0013)" class="st30" cx="93.5" cy="69.3" rx="1.1" ry="0.5"/>
															</g>
															<path class="st31" d="M83.1,71c0.1,2.5-3,4.6-6.8,4.8c-3.9,0.2-7.1-1.7-7.3-4.1c-0.1-2.5,3-4.6,6.8-4.8
																C79.7,66.6,83,68.5,83.1,71z M107.8,63.7c-3.8,0.9-6.3,3.5-5.8,6s4,3.7,7.8,2.8c3.8-0.9,6.3-3.5,5.8-6
																C115,64.1,111.5,62.8,107.8,63.7z"/>
														</g>
														<g>
															<g>
																<path class="st32" d="M75.2,51.2c-0.1,0.2-0.9,0.1-1.5,0.2c-0.7,0.1-1.2,0.4-1.2,0.4s-0.6,0.1-1.1,0.5
																	c-0.6,0.4-1.1,1-1.2,0.9c-0.3-0.1-0.2-1,0.4-1.8c0.3-0.4,0.6-0.7,0.9-0.9s0.5-0.4,0.5-0.4s0.3-0.1,0.6-0.1
																	c0.4-0.1,0.8,0,1.2,0.1C74.6,50.4,75.2,51,75.2,51.2z"/>
															</g>
														</g>
														<path class="st8" d="M113,44.4c0,0,1.9,6.7,3,12.4c-0.2-3.9-2.8-30-28-32.7C61,21.2,53.3,41.5,52.3,54.4
															c-2,0.1-3.9,1.5-5.3,3.6c3.8,2.5,7.4-0.7,7.4-0.7s-0.3,6.1,4.3,5.6c4.5-0.5,2.7-8.8,2.7-8.8s5.3,1.9,6.1-9.1
															c0,0,5.6,0.5,9.9-5.1c0,0,14.7,14.4,26.7,7.2C104.2,47,109.6,50.8,113,44.4z"/>
														<path class="st32" d="M54.2,55.7c0,0-0.3,6.1,4.3,5.6c4.5-0.5,2.7-8.8,2.7-8.8s5.3,1.9,6.1-9.1c0,0,5.6,0.5,9.9-5.1
															c0,0,14.7,14.4,26.7,7.2c0,0,5.3,3.7,8.8-2.7c0,0,3.7,12.8,3.7,18.2c0,0,4-1.6,4.5-4.5s-1.9-4.5-1.9-4.5
															s1.3-3.5-0.5-7.2c0,0,4.8-7.8-1.3-15.8c-6.1-8-12-4.8-12-4.8s0-4.3-9.6-8.8s-23,0-26.7,7.2c0,0-14.2-8-15.5,6.1
															c0,0-15.5,2.9-6.1,16c0,0-6.4,5.1-2.1,10.2C49.4,59.9,54.2,55.7,54.2,55.7z"/>
														<path class="st27" d="M121.1,56.5c0.5-2.9-1.9-4.5-1.9-4.5s1.3-3.5-0.5-7.2c0,0,2.8-4.5,1.4-10.3
															c-0.7,1.5-1.5,2.8-2.2,3c-1.5,0.3-4-3-4-3s-1.5,7.2-4,3.3c-2.5-3.8-7.3-5.5-7.3-5.5s4,2.2,0.7,7.7
															c-3.3,5.5-17.5,0.8-23-4.5c-5.5-5.3-0.3-9.2-0.3-9.2s-2.5,1-5.7-1.2c-3.2-2.2,1.2-5.2,1.2-5.2s-2.5,1.2-3.8,0.2
															c-0.2-0.2-0.2-0.5,0-0.9c-1.1,1-2,2.1-2.6,3.3c0,0-1.8-1-4.2-1.7l-1.5,1.4c0,0,3.7,1.2,4.8,4.2c1.2,3-3,4.5-3,4.5
															s6.8-2.3,7,2.2c0.2,4.5-7,3.8-7,3.8s1.2,7.8-4.5,9.2c-5.7,1.3-6.8-7.5-6.8-7.5s-2.5,4.2-7,0.7
															c-2.1-1.6-2.1-3.7-1.5-5.6c-1.5,2.4-1.6,6,2,11c0,0-6.4,5.1-2.1,10.2c4.3,5.1,9.1,0.8,9.1,0.8s-0.3,6.1,4.3,5.6
															c4.5-0.5,2.7-8.8,2.7-8.8s5.3,1.9,6.1-9.1c0,0,5.6,0.5,9.9-5.1c0,0,14.7,14.4,26.7,7.2c0,0,5.3,3.7,8.8-2.7
															c0,0,3.7,12.8,3.7,18.2C116.5,61,120.5,59.4,121.1,56.5z"/>
														<g>
															<g>
																<path class="st33" d="M102.6,32.2c0.1-0.1,1.8,1.5,3.1,3.6c0.6,1,1,2.2,1.2,3.1c0.2,0.9,0.1,1.5,0.1,1.5
																	s0,0.6-0.2,1.5c-0.2,0.9-0.8,2.1-1.7,2.9c-0.9,0.8-2.1,1.3-3,1.4c-0.9,0.1-1.5-0.2-1.5-0.3c0-0.1,0.6,0.1,1.4-0.1
																	c0.8-0.2,1.9-0.7,2.6-1.5c0.8-0.8,1.2-1.8,1.3-2.6c0.2-0.8,0.1-1.4,0.1-1.4s0-0.6-0.1-1.4c-0.1-0.8-0.4-1.9-0.9-2.9
																	C104,34.1,102.5,32.3,102.6,32.2z"/>
															</g>
															<g>
																<path class="st33" d="M109.7,27.8c0-0.1,0.9,0.2,1.7,1.2c0.8,1,1.6,2.4,2.3,3.8c0.8,1.5,1.3,3,1.5,4.3
																	c0.2,1.3,0.1,2.1,0.1,2.1s-0.1,0.9-0.6,2.1c-0.5,1.2-1.6,2.5-3,3.5c-1.3,1-2.9,1.6-4.2,1.7c-1.3,0.1-2-0.4-2-0.4
																	c0-0.1,0.8,0.3,2,0.1c1.2-0.2,2.6-0.9,3.9-1.8c1.2-1,2.2-2.2,2.6-3.3c0.4-1.1,0.5-1.8,0.5-1.8s0.1-0.8,0-1.9
																	c-0.1-1.2-0.6-2.7-1.3-4.1c-0.7-1.5-1.3-2.9-2-3.9C110.4,28.2,109.7,27.8,109.7,27.8z"/>
															</g>
															<g>
																<path class="st33" d="M119.7,41c0.1,0-0.2,1.1-0.9,1.9c-0.7,0.8-1.7,1.3-1.7,1.3s-1,0.4-2.1,0.3c-1.1,0-2-0.5-2-0.6
																	c0.1-0.1,1,0.1,1.9,0c0.9-0.1,1.7-0.5,1.7-0.5s0.9-0.3,1.6-0.9C119.1,41.8,119.6,40.9,119.7,41z"/>
															</g>
															<g>
																<path class="st33" d="M119.3,50.8c0.1,0.1-0.1,0.7-0.6,1.3c-0.2,0.3-0.5,0.5-0.8,0.7c-0.3,0.1-0.5,0.2-0.5,0.2
																	c0,0-0.9,0.1-1.5-0.5c-0.3-0.3-0.5-0.6-0.5-0.9c0-0.3,0.1-0.5,0.2-0.4c0.1,0,0.2,0.6,0.7,0.9
																	c0.2,0.1,0.5,0.2,0.7,0.1c0.2,0,0.3-0.1,0.3-0.1s0.5-0.1,1-0.4C118.7,51.2,119.2,50.7,119.3,50.8z"/>
															</g>
															<g>
																<path class="st33" d="M75.3,31.1c0.1,0.1-0.4,1-0.3,2c0.1,1,0.5,1.9,0.5,1.9s0.4,0.9,1,1.7c0.6,0.8,1.3,1.6,1.2,1.7
																	c-0.1,0.1-0.9-0.5-1.7-1.3c-0.8-0.8-1.3-1.8-1.3-1.8s-0.5-1.1-0.4-2.3C74.4,31.9,75.2,31,75.3,31.1z"/>
															</g>
															<g>
																<path class="st33" d="M97.4,19.9c0,0.1-0.9-0.4-2.3-0.7c-1.4-0.3-3.3-0.5-5.2-0.1c-1.9,0.3-3.6,1.2-4.7,2
																	c-0.1,0.1-0.3,0.2-0.4,0.3c-0.2,0.2-0.5,0.4-0.7,0.5c-0.1,0.1-0.2,0.2-0.3,0.3c-0.1,0.1-0.1-0.2-0.2-0.2
																	c-0.1-0.2-0.2-0.5-0.2-0.7c-0.2-0.5-0.3-0.5-0.3-0.6c0,0-0.1-0.2-0.4-0.4c-0.3-0.3-0.7-0.6-1.3-0.9
																	c-1.2-0.6-3.2-0.6-4.9,0.1c-1.8,0.7-3.2,2-4,3.2c-0.8,1.2-1.1,2.1-1.2,2.1c0,0,0-0.2,0.1-0.7c0.1-0.4,0.3-1,0.7-1.6
																	c0.8-1.3,2.2-2.8,4.1-3.6c1.8-0.8,4-0.9,5.5-0.3c0.7,0.3,1.3,0.7,1.7,1c0.4,0.3,0.5,0.6,0.5,0.6
																	c0,0,0.2,0.3,0.3,0.6c0,0,0,0,0,0c0,0,0,0,0.1-0.1c0.1-0.1,0.3-0.2,0.4-0.3c1.2-0.9,3.1-1.7,5.1-1.9
																	c2-0.3,4-0.1,5.4,0.4c0.7,0.2,1.3,0.5,1.7,0.7C97.2,19.7,97.4,19.9,97.4,19.9z"/>
															</g>
															<g>
																<path class="st33" d="M51.6,36.8c0,0-0.6-0.1-0.9-0.8c-0.4-0.7-0.3-1.9,0.4-2.8c0.7-0.9,1.5-1.7,2.3-2.3
																	c0.4-0.3,0.9-0.6,1.3-0.7c0.2-0.1,0.4-0.1,0.6-0.1c0.2,0,0.1,0,0.1,0c0,0,0,0,0,0c0,0,0,0,0,0c0,0,0,0,0-0.1
																	c0-0.1-0.1-0.3-0.1-0.4c0-0.2,0-0.4,0-0.5c0-0.2,0-0.3,0-0.3s0-0.9,0.7-2c0.6-1.1,2-2.3,3.6-2.7
																	c1.6-0.5,3.3-0.2,4.4,0.4c1.1,0.6,1.6,1.2,1.5,1.3c-0.1,0.1-0.6-0.5-1.7-0.9c-1-0.4-2.6-0.6-4-0.1
																	c-1.4,0.5-2.5,1.6-3,2.5c-0.5,1-0.5,1.7-0.5,1.7s0,0,0,0.2c0,0.1,0,0.2,0,0.4c0,0.1,0,0.2,0.1,0.3
																	c0,0,0.1,0.2,0.1,0.3l0.1,0.2l0.2,0.3c-0.1,0.1-0.3,0.3-0.3,0.4c0,0,0,0,0,0c0,0,0,0-0.3,0.3
																	c-0.3-0.2-0.8-0.3-0.9-0.3c-0.1,0-0.3,0-0.5,0c-0.3,0.1-0.7,0.2-1.1,0.5c-0.7,0.5-1.7,1.3-2.3,2
																	c-0.7,0.8-0.8,1.8-0.6,2.4C51.2,36.5,51.6,36.7,51.6,36.8z"/>
															</g>
															<g>
																<path class="st33" d="M72,35.3c0,0,0,0.2-0.2,0.6c-0.2,0.4-0.5,0.9-1,1.5c-0.5,0.5-1.2,1.1-2,1.5
																	c-0.4,0.2-0.9,0.4-1.3,0.5c-0.4,0.1-0.2,0.1-0.1,0.7c0.3,1.9,0.4,3.9,0.2,5.3c-0.2,1.5-0.6,2.4-0.6,2.4
																	s-0.1,0.2-0.3,0.6c-0.2,0.4-0.5,0.9-1,1.5c-0.9,1.2-2.9,2.3-5,2.2c-2.1,0-3.8-1.5-4.5-2.8c-0.3-0.7-0.5-1.3-0.5-1.7
																	c0-0.4,0-0.7,0-0.7c0.1,0,0,1,0.8,2.2c0.7,1.2,2.3,2.4,4.2,2.4c1.8,0,3.5-1,4.3-2.1c0.4-0.5,0.7-1,0.9-1.4
																	c0.2-0.4,0.2-0.6,0.2-0.6s0.4-0.8,0.6-2.2c0.2-1.4,0.2-3.3,0-5.1l-0.1-0.9l0-0.3c0.1,0,0.2,0,0.3-0.1l0.5-0.1
																	c0.4-0.1,0.9-0.3,1.3-0.4c0.8-0.4,1.5-0.8,2-1.3C71.5,36.2,71.9,35.3,72,35.3z"/>
															</g>
															<g>
																<path class="st33" d="M52.9,55.7c0,0-0.2,0.5-1,0.7c-0.7,0.2-1.7,0-2.5-0.6c-0.8-0.6-1.2-1.5-1.4-2.2
																	c-0.2-0.7-0.2-1.2-0.2-1.2s-0.2-1.9,0.3-3.7c0.2-0.9,0.7-1.8,1.2-2.3c0.5-0.5,1-0.7,1-0.6c0,0.1-0.3,0.3-0.7,0.8
																	c-0.4,0.5-0.7,1.3-0.8,2.2c-0.3,1.7,0,3.4,0,3.4s0,0.4,0.1,1c0.1,0.6,0.4,1.4,1,1.9c0.6,0.5,1.4,0.8,2,0.7
																	C52.5,56,52.8,55.7,52.9,55.7z"/>
															</g>
															<g>
																<path class="st33" d="M62.5,37.2c0,0-0.3-0.2-0.6-0.7c-0.3-0.5-0.4-1.3-0.3-2c0.1-0.8,0.3-1.5,0.6-2
																	c0.3-0.5,0.6-0.8,0.6-0.8s0.3-0.3,0.7-0.6c0.5-0.3,1.1-0.7,1.8-0.9c1.4-0.4,2.9-0.3,2.9-0.2c0,0.1-1.4,0.3-2.6,0.8
																	c-1.3,0.5-2.1,1.5-2.1,1.5S63.3,32.6,63,33c-0.3,0.4-0.6,1-0.7,1.6C61.9,35.9,62.6,37.2,62.5,37.2z"/>
															</g>
															<g>
																<path class="st33" d="M97.5,26.7c0,0.2-2.2,0.4-4.1,1.3c-1,0.5-1.7,1-2.2,1.8c-0.1,0.2-0.2,0.3-0.3,0.5
																	c-0.1,0.1-0.1,0.2-0.2,0.2l-0.2-0.2c-0.2-0.2-0.4-0.4-0.6-0.5c-0.2-0.1-0.3-0.2-0.3-0.2s-0.4-0.4-1-0.8
																	c-0.6-0.5-1.5-1-2.5-1.1c-1-0.1-2,0.2-2.7,0.6c-0.6,0.4-0.9,1-0.9,0.9c0,0,0.1-0.6,0.7-1.2c0.6-0.6,1.8-1.1,2.9-1
																	c1.2,0.1,2.3,0.6,3,1c0.7,0.5,1.1,0.8,1.1,0.8s0.1,0.1,0.3,0.3c0.1,0.1,0,0.1,0.1,0.1c0.4-0.6,1.5-1.4,2.5-1.7
																	C95.3,26.6,97.5,26.6,97.5,26.7z"/>
															</g>
														</g>
														<g>
															<g>
																<path class="st34" d="M49.4,31.6c0.1,0.1-0.5,0.9-0.9,1.7C48,34.1,47.7,35,47.7,35s-0.4,0.8-0.7,1.7
																	c-0.3,0.9-0.4,1.8-0.6,1.9c-0.2,0-0.4-1-0.3-2c0.1-1,0.4-2,0.4-2s0.5-0.9,1.2-1.7C48.4,32,49.3,31.4,49.4,31.6z"/>
															</g>
															<g>
																<path class="st34" d="M64.7,43.5c0.1,0,0.2,1.3-0.2,2.6c-0.2,0.6-0.5,1.3-0.8,1.7c-0.3,0.4-0.6,0.7-0.6,0.7
																	s-0.3,0.2-0.8,0.4c-0.5,0.2-1.3,0.3-2.1,0c-0.7-0.3-1.2-0.8-1.4-1.3c-0.2-0.5-0.1-0.9,0-0.9c0.1,0,0.2,0.3,0.4,0.6
																	c0.3,0.3,0.7,0.6,1.2,0.7c0.5,0.1,1-0.1,1.3-0.2c0.3-0.2,0.5-0.4,0.5-0.4s0.9-0.6,1.4-1.7
																	C64.2,44.7,64.5,43.5,64.7,43.5z"/>
															</g>
															<g>
																<path class="st34" d="M70.6,35c0.1,0.1-0.4,0.7-1,1.1C69,36.6,68.4,37,68.4,37s-0.7,0.2-1.4,0.3
																	c-0.7,0.1-1.5,0.1-1.5-0.1c0-0.2,0.6-0.4,1.3-0.7c0.6-0.3,1.2-0.6,1.2-0.6s0.6-0.2,1.3-0.4
																	C69.8,35.1,70.5,34.9,70.6,35z"/>
															</g>
															<g>
																<path class="st34" d="M101.6,41.8c0.1,0.2-3.3,0.9-6.6,0.3c-3.3-0.5-6.4-2-6.4-2s-3-1.5-5.6-3.7
																	c-1.3-1.1-2.5-2.2-3.2-3.3c-0.7-1.1-0.7-2-0.7-2c0.1,0,0.3,0.8,1.1,1.7c0.7,0.9,2.1,1.9,3.4,2.9
																	c2.6,1.9,5.6,3.2,5.6,3.2s2.9,1.5,6,2.2C98.3,42,101.6,41.6,101.6,41.8z"/>
															</g>
															<g>
																<path class="st34" d="M104.3,37.7c-0.2,0-0.5-0.4-0.8-0.9c-0.3-0.4-0.7-0.8-0.7-0.8s-0.2-0.5-0.5-0.9
																	c-0.3-0.5-0.6-0.9-0.6-1c0.1-0.1,0.7,0.1,1.2,0.4c0.5,0.3,0.9,0.8,0.9,0.8s0.3,0.5,0.5,1.1
																	C104.5,37.1,104.5,37.7,104.3,37.7z"/>
															</g>
															<g>
																<path class="st34" d="M110.8,40.6c-0.2-0.1,0.2-1.6-0.1-3.1c-0.2-1.5-0.9-2.9-0.9-2.9s-0.5-1.4-1.3-2.8
																	c-0.8-1.4-1.7-2.7-1.5-2.8c0.1-0.1,1.3,1,2.3,2.3c1,1.3,1.7,2.8,1.7,2.8s0.6,1.6,0.6,3.3
																	C111.7,39.2,110.9,40.7,110.8,40.6z"/>
															</g>
															<g>
																<path class="st34" d="M116.4,39.1c-0.2-0.1,0.3-1.4,0.2-2.8c0-1.4-0.5-2.6-0.5-2.6s-0.3-1.3-0.9-2.5
																	c-0.6-1.2-1.7-2.1-1.6-2.3c0.1-0.1,1.4,0.6,2.3,1.8c0.9,1.2,1.4,2.6,1.4,2.6s0.3,1.5,0.1,3
																	C117.3,37.9,116.6,39.2,116.4,39.1z"/>
															</g>
															<g>
																<path class="st34" d="M97,19.3c-0.1,0.2-1.9-0.8-3.8-1.5c-1.9-0.7-3.8-1-3.8-1s-1.9-0.5-3.9-0.3
																	c-2,0.1-3.8,1.1-3.9,0.9c-0.1-0.1,1.6-1.4,3.8-1.8c2.1-0.4,4.3-0.1,4.3-0.1s2.1,0.5,4,1.4C95.4,18,97,19.2,97,19.3z
																	"/>
															</g>
															<g>
																<path class="st34" d="M59.9,56.6c0.2,0,0.2,1.1-0.6,1.8c-0.8,0.8-2.1,0.6-2,0.6c0,0-0.3-0.1-0.6-0.3
																	c-0.4-0.2-0.8-0.7-0.9-1.1c-0.4-1-0.2-1.8-0.1-1.9c0.2,0,0.4,0.9,0.8,1.5c0.4,0.6,1.1,0.6,1.1,0.6s0.6,0.3,1.3-0.1
																	C59.4,57.4,59.7,56.6,59.9,56.6z"/>
															</g>
															<g>
																<path class="st34" d="M116.5,50.9c-0.1-0.1,0.3-0.7,0.4-1.4c0.1-0.7,0-1.3,0-1.3s0-0.7,0-1.4
																	c-0.1-0.7-0.2-1.5,0-1.6c0.2-0.1,0.6,0.6,0.9,1.3c0.3,0.7,0.4,1.6,0.4,1.6s0,0.9-0.4,1.7
																	C117.3,50.6,116.5,51,116.5,50.9z"/>
															</g>
														</g>
													</g>
													<g>
														<path class="st26" d="M103.6,62.3c0,2.5,1,4.5,2.4,4.5s2.5-2,2.6-4.5c0-2.5-1-4.5-2.4-4.5
															C104.8,57.9,103.6,59.9,103.6,62.3z"/>
														<path class="st35" d="M105,58.4c-0.2,0.6-0.3,1.2-0.3,2c0,2.5,1,4.5,2.4,4.5c0.4,0,0.8-0.2,1.2-0.5
															c-0.4,1.5-1.3,2.5-2.3,2.5c-1.4,0-2.5-2-2.4-4.5C103.6,60.6,104.2,59.1,105,58.4z"/>
														<g class="st36">
															<path class="st0" d="M108.1,61.6c0.1,0.9-0.3,1.6-0.7,1.6c-0.4,0-0.8-0.6-0.9-1.5s0.3-1.6,0.7-1.6
																C107.6,60.1,108,60.7,108.1,61.6z"/>
															
																<ellipse transform="matrix(3.656011e-03 -1 1 3.656011e-03 46.9218 165.8442)" class="st0" cx="106.7" cy="59.4" rx="0.3" ry="0.3"/>
														</g>
													</g>
													<g>
														<path class="st37" d="M77.3,65.3c0,0-1.5-0.3-1.1,1.3c0.3,1.2,2.9,3.6,6.6,2.7c3.5-0.9,3.6-3,2.1-3.5
															C83.3,65.3,77.3,65.3,77.3,65.3z"/>
														
															<ellipse transform="matrix(0.9925 -0.1224 0.1224 0.9925 -6.9721 10.3765)" class="st0" cx="81" cy="61.9" rx="5.4" ry="5.7"/>
														<path class="st38" d="M80.4,56.8c1.9-0.2,3.8,0.8,4.7,2.5c-0.8-1.2-2.2-1.6-4-1.3c-2.5,0.3-4.7,1.6-4.4,4.2
															c0.3,2.6,2.6,4.5,5.1,4.2c2.5-0.3,4.2-2.7,3.9-5.3c-0.1-0.7-0.2-1.1-0.4-1.6l0,0c0.3,0.6,0.6,1.3,0.7,2
															c0.3,2.8-1.6,5.4-4.3,5.7c-2.7,0.3-5.2-1.7-5.5-4.6C75.8,59.7,77.7,57.1,80.4,56.8z"/>
														<path class="st39" d="M82.9,61.9c0.2,1.7-0.9,3.3-2.5,3.4c-1.6,0.2-3-1-3.3-2.7c-0.2-1.7,0.9-3.3,2.5-3.5
															C81.2,59,82.7,60.2,82.9,61.9z"/>
														<path class="st40" d="M81.6,62c0.1,1-0.6,1.8-1.5,1.9c-0.9,0.1-1.8-0.6-1.9-1.6c-0.1-1,0.6-1.8,1.5-1.9
															C80.7,60.4,81.5,61,81.6,62z"/>
														<path class="st0" d="M82,60.6c0.1,0.4-0.2,0.9-0.8,1c-0.4,0.1-0.9-0.3-1-0.8c-0.1-0.4,0.2-0.9,0.8-1
															C81.4,59.7,81.9,60,82,60.6z"/>
														<path class="st0" d="M79.1,64c0,0.2-0.1,0.4-0.3,0.6c-0.2,0-0.4-0.1-0.4-0.4c0-0.2,0.1-0.4,0.3-0.6
															C78.8,63.6,79.1,63.7,79.1,64z"/>
														<path class="st37" d="M75.5,60c0,0,0.1-3.6,2.8-4.7c2.7-1.1,6.5,1.9,6.5,1.9S79.4,55.8,75.5,60z"/>
														<path class="st41" d="M84.7,57.2c0,0-0.1,0-0.4,0c-0.2,0-0.7,0-1.1,0c-0.2,0-0.4,0-0.8,0c-0.2,0-0.6,0-0.8,0.1
															c-0.3,0-0.6,0.1-0.9,0.1c-0.1,0-0.3,0.1-0.4,0.1c-0.1,0-0.3,0.1-0.4,0.1c-0.1,0-0.3,0.1-0.4,0.1
															c-0.1,0-0.3,0.1-0.4,0.1c-0.3,0.1-0.6,0.2-0.8,0.3c-0.1,0-0.1,0.1-0.2,0.1s-0.1,0.1-0.2,0.1c-0.1,0.1-0.2,0.1-0.3,0.2
															c-0.2,0.1-0.4,0.2-0.7,0.4c-0.2,0.1-0.3,0.2-0.6,0.3c-0.1,0.1-0.3,0.2-0.3,0.3C75.5,60,75.3,60,75.3,60
															s0.1-0.1,0.2-0.3c0.1-0.1,0.2-0.2,0.3-0.3c0.1-0.1,0.3-0.3,0.4-0.4c0.1-0.1,0.2-0.1,0.3-0.2s0.2-0.1,0.3-0.2
															c0.2-0.1,0.4-0.3,0.8-0.4c0.2-0.1,0.6-0.3,0.8-0.4c0.1-0.1,0.3-0.1,0.4-0.2c0.1-0.1,0.3-0.1,0.4-0.1
															c0.1,0,0.3-0.1,0.4-0.1c0.1,0,0.3-0.1,0.4-0.1h0.2c0.1,0,0.1,0,0.2,0c0.1,0,0.3,0,0.4,0c0.3,0,0.6,0,0.9,0
															c0.1,0,0.2,0,0.4,0c0.1,0,0.2,0,0.3,0c0.2,0,0.4,0.1,0.7,0.1s0.3,0.1,0.4,0.1C84.5,57.1,84.6,57.2,84.7,57.2
															L84.7,57.2z"/>
													</g>
													<g>
														<path class="st37" d="M101.8,64.5c0,0-1.3-0.6-1.2,1c0.1,1.2,2,3.9,5.7,3.8c3.4-0.2,4-2.1,2.7-2.9
															C107.5,65.8,101.8,64.5,101.8,64.5z"/>
														
															<ellipse transform="matrix(8.303016e-02 -0.9965 0.9965 8.303016e-02 35.3146 162.6042)" class="st0" cx="106" cy="62.1" rx="5.5" ry="5.2"/>
														<path class="st38" d="M106.4,57c1.9,0.1,3.5,1.5,4.2,3.3c-0.4-1.3-1.8-1.9-3.6-2.1c-2.5-0.2-4.8,0.6-5.1,3.1
															s1.6,4.8,4,5.1c2.5,0.2,4.6-1.7,4.8-4.3c0-0.7,0-1.1-0.1-1.6c0.2,0.7,0.3,1.3,0.2,2c-0.2,2.8-2.6,4.9-5.3,4.7
															c-2.7-0.2-4.6-2.7-4.4-5.5C101.3,58.9,103.7,56.8,106.4,57z"/>
														<path class="st39" d="M107.3,62.9c-0.1,1.7-1.5,2.8-3,2.7c-1.6-0.1-2.7-1.6-2.6-3.1c0.1-1.7,1.5-2.8,3-2.7
															C106.4,59.9,107.5,61.4,107.3,62.9z"/>
														
															<ellipse transform="matrix(8.328789e-02 -0.9965 0.9965 8.328789e-02 33.4249 161.6171)" class="st40" cx="104.6" cy="62.6" rx="1.8" ry="1.7"/>
														<path class="st0" d="M106.7,61.6c0,0.4-0.4,0.8-0.9,0.8c-0.4,0-0.8-0.4-0.8-0.9c0-0.4,0.4-0.9,0.9-0.8
															C106.4,60.6,106.7,61,106.7,61.6z"/>
														
															<ellipse transform="matrix(8.170536e-02 -0.9967 0.9967 8.170536e-02 30.4586 161.5683)" class="st0" cx="102.9" cy="64.3" rx="0.4" ry="0.4"/>
														<path class="st37" d="M101.1,59.2c0,0,0.8-3.4,3.5-3.8c2.8-0.6,5.7,3,5.7,3S105.6,56,101.1,59.2z"/>
														<path class="st41" d="M110.3,58.5c0,0-0.1,0-0.4-0.1c-0.2-0.1-0.7-0.1-1-0.2c-0.2,0-0.4-0.1-0.7-0.1s-0.6-0.1-0.8-0.1
															s-0.6,0-0.9,0c-0.1,0-0.3,0-0.4,0c-0.1,0-0.3,0-0.4,0c-0.1,0-0.3,0-0.4,0s-0.3,0-0.4,0.1c-0.3,0-0.6,0.1-0.8,0.1
															c-0.1,0-0.1,0-0.2,0c-0.1,0-0.1,0-0.2,0.1c-0.1,0-0.2,0.1-0.3,0.1c-0.2,0.1-0.4,0.1-0.7,0.2c-0.2,0.1-0.4,0.1-0.6,0.2
															c-0.1,0.1-0.3,0.1-0.4,0.2c-0.2,0.1-0.3,0.2-0.3,0.2s0.1-0.1,0.3-0.2c0.1-0.1,0.2-0.2,0.3-0.3
															c0.1-0.1,0.3-0.2,0.6-0.3c0.1-0.1,0.2-0.1,0.3-0.2c0.1-0.1,0.2-0.1,0.3-0.1c0.2-0.1,0.4-0.2,0.8-0.3
															c0.2-0.1,0.6-0.2,0.9-0.2c0.1,0,0.3,0,0.4-0.1c0.1,0,0.3,0,0.4,0c0.1,0,0.3,0,0.4,0c0.1,0,0.3,0,0.4,0h0.2
															c0.1,0,0.1,0,0.2,0c0.1,0,0.3,0,0.4,0c0.3,0,0.6,0.1,0.8,0.1c0.1,0,0.2,0.1,0.3,0.1c0.1,0,0.2,0.1,0.3,0.1
															c0.2,0.1,0.4,0.1,0.6,0.2c0.1,0.1,0.3,0.1,0.4,0.2C110.1,58.2,110.2,58.3,110.3,58.5L110.3,58.5z"/>
													</g>
													
														<linearGradient id="SVGID_5_" gradientUnits="userSpaceOnUse" x1="160.3625" y1="-294.4214" x2="182.2232" y2="-311.5298" gradientTransform="matrix(0.9992 -3.990000e-02 3.990000e-02 0.9992 -73.0922 364.1722)">
														<stop  offset="0" style="stop-color:#FFFFFF"/>
														<stop  offset="0.1078" style="stop-color:#FFFFFF"/>
														<stop  offset="1" style="stop-color:#FFFFFF"/>
													</linearGradient>
													<polygon class="st42" points="83.7,54.5 72.3,63.6 72.4,65.8 87.3,56.1 													"/>
													
														<linearGradient id="SVGID_6_" gradientUnits="userSpaceOnUse" x1="162.1033" y1="-292.1971" x2="183.9621" y2="-309.304" gradientTransform="matrix(0.9992 -3.990000e-02 3.990000e-02 0.9992 -73.0922 364.1722)">
														<stop  offset="0" style="stop-color:#FFFFFF"/>
														<stop  offset="0.1078" style="stop-color:#FFFFFF"/>
														<stop  offset="1" style="stop-color:#FFFFFF"/>
													</linearGradient>
													<polygon class="st43" points="88.1,56.8 73.7,66.9 74,67.9 89,57.7 													"/>
													
														<linearGradient id="SVGID_7_" gradientUnits="userSpaceOnUse" x1="166.5499" y1="-286.5143" x2="188.4047" y2="-303.6182" gradientTransform="matrix(0.9992 -3.990000e-02 3.990000e-02 0.9992 -73.0922 364.1722)">
														<stop  offset="0" style="stop-color:#FFFFFF"/>
														<stop  offset="0.1078" style="stop-color:#FFFFFF"/>
														<stop  offset="1" style="stop-color:#FFFFFF"/>
													</linearGradient>
													<polygon class="st44" points="89.9,62.7 79.8,72.1 82.9,72.2 90.2,63.7 													"/>
													<path class="st45" d="M81.1,53.8c-5.1,0.2-9.1,4.5-8.9,9.7c0.2,5.1,4.5,9.1,9.7,8.9c5.1-0.2,9.1-4.5,8.9-9.7
														C90.4,57.6,86.1,53.6,81.1,53.8z M81.8,71.5C77,71.7,73.2,68,73,63.4c-0.2-4.7,3.5-8.5,8.1-8.8
														c4.7-0.2,8.5,3.5,8.8,8.1C90.1,67.4,86.4,71.4,81.8,71.5z"/>
													
														<linearGradient id="SVGID_8_" gradientUnits="userSpaceOnUse" x1="181.3044" y1="-290.0466" x2="206.8313" y2="-312.1793" gradientTransform="matrix(0.9992 -3.990000e-02 3.990000e-02 0.9992 -73.0922 364.1722)">
														<stop  offset="0" style="stop-color:#FFFFFF"/>
														<stop  offset="0.1078" style="stop-color:#FFFFFF"/>
														<stop  offset="1" style="stop-color:#FFFFFF"/>
													</linearGradient>
													<polygon class="st46" points="109.2,53.5 97.8,62.6 97.8,64.6 112.8,55.1 													"/>
													
														<linearGradient id="SVGID_9_" gradientUnits="userSpaceOnUse" x1="183.1378" y1="-287.9297" x2="208.6734" y2="-310.0701" gradientTransform="matrix(0.9992 -3.990000e-02 3.990000e-02 0.9992 -73.0922 364.1722)">
														<stop  offset="0" style="stop-color:#FFFFFF"/>
														<stop  offset="0.1078" style="stop-color:#FFFFFF"/>
														<stop  offset="1" style="stop-color:#FFFFFF"/>
													</linearGradient>
													<polygon class="st47" points="113.6,55.8 99.2,65.9 99.5,66.9 114.5,56.7 													"/>
													
														<linearGradient id="SVGID_10_" gradientUnits="userSpaceOnUse" x1="187.8346" y1="-282.5142" x2="213.3651" y2="-304.6501" gradientTransform="matrix(0.9992 -3.990000e-02 3.990000e-02 0.9992 -73.0922 364.1722)">
														<stop  offset="0" style="stop-color:#FFFFFF"/>
														<stop  offset="1" style="stop-color:#FFFFFF"/>
													</linearGradient>
													<polygon class="st48" points="115.4,61.7 105.4,71 108.3,71.2 115.7,62.7 													"/>
													<path class="st45" d="M106.6,52.8c-5.1,0.2-9.1,4.5-8.9,9.7c0.2,5.1,4.5,9.1,9.7,8.9c5.1-0.2,9.1-4.5,8.9-9.7
														C115.9,56.5,111.7,52.6,106.6,52.8z M107.3,70.5c-4.7,0.2-8.7-3.5-8.8-8.1c-0.2-4.6,3.5-8.5,8.1-8.8
														c4.6-0.2,8.7,3.5,8.8,8.1C115.6,66.3,111.9,70.3,107.3,70.5z"/>
													<polygon class="st45" points="98.4,62.6 91.1,62.8 91.1,62 98.3,61.7 													"/>
													<polygon class="st45" points="58.5,60.9 72.8,61.6 72.7,62.6 58.6,61.8 													"/>
												</g>
											</g>
										</g>
									</g>
								</g>
								<g class="st5">
									<path class="st6" d="M56.1,243.7c0.1,0.8-2.2,11.8,1.5,12.3c3.7,0.5,2.8-6,4.5-6.6c1.7-0.6,4.4,18.3,7.2,18.5
										c2.8,0.3,5.3-9.9,5.8-12.1c0,0,1.2,3,2.3,2.4c1.1-0.6-3.2-14.5-6.1-19.9C68.5,233,55.5,240.4,56.1,243.7z"/>
									<path class="st7" d="M70,252c0.1,0,0.5,2,0.7,4.1c0.3,2,0.5,4.1,0.5,4.1s0,0.5,0.1,1.3c0,0.8,0.1,1.8,0,2.9
										c0,1-0.3,2.1-0.7,2.8c-0.4,0.7-0.9,1-0.9,0.9c0,0,0.4-0.3,0.7-1c0.3-0.7,0.5-1.7,0.5-2.7c0-1-0.1-2-0.2-2.8
										c-0.1-0.8-0.1-1.3-0.1-1.3s-0.1-2.1-0.3-4.1C70.2,254,69.9,252,70,252z M73,255.6c0,1.9-0.2,3.8-0.2,3.8s0,0.5-0.1,1.2
										c0,0.7-0.1,1.6-0.3,2.6c-0.2,0.9-0.5,1.8-0.8,2.4c-0.3,0.6-0.6,1-0.6,1c0,0,0.4-0.3,0.8-0.9c0.4-0.6,0.8-1.5,1-2.4
										c0.2-0.9,0.4-1.9,0.4-2.6c0.1-0.7,0.1-1.2,0.1-1.2s0.1-1.9,0-3.8c-0.1-1.9-0.3-3.8-0.4-3.8C72.9,251.8,73,253.7,73,255.6z
										 M74.2,251.2c0.2,1,0.3,2,0.3,2s0.2,1,0.2,2c0.1,1,0,2,0.1,2c0.1,0,0.3-1,0.4-2c0.1-1,0-2,0-2s-0.2-1-0.5-2
										c-0.3-1-0.8-1.9-0.9-1.8C73.7,249.3,74,250.3,74.2,251.2z"/>
									<path class="st8" d="M77.4,258.3c0.2-0.1,0.2-0.7,0.1-1.6c-1.4-0.9-2.8-5.5-2.9-5.6c-0.1-0.1-0.3,10.1-3.2,11.9
										c-2.8,1.8-4.8-8.2-6.6-11.2c-1.8-3-2.8-2.4-2.8-2.4c1.7-0.6,4.4,18.3,7.2,18.5c2.8,0.3,5.3-9.9,5.8-12.1
										C75.1,255.9,76.3,258.9,77.4,258.3z"/>
									<path class="st8" d="M57.6,256c2,0.3,2.6-1.5,3.1-3.2c-0.5,0.6-1,1.1-1.8,1.3c-2.4,0.5-3.7-10.3,1.7-9
										c4,0.9,9.4-2.3,11.9-4.1c-0.4-1-0.8-1.8-1.2-2.5c-2.9-5.4-15.8,2-15.2,5.3C56.3,244.5,53.9,255.5,57.6,256z"/>
									<path class="st0" d="M55.2,238.3l0.5,4.2c0,0,8,4.4,17.4-3.4l-1.8-4.5L55.2,238.3z"/>
									<path class="st9" d="M70.7,241c-8.6,2.3-14.7-0.4-10.2-0.7c5-0.3,10.1-3.2,11.5-4l-0.6-1.5l-16.2,3.6l0.5,4.2
										C55.8,242.6,62.4,246.2,70.7,241z"/>
									<path class="st10" d="M49.2,104.2c1.6-0.9,10.3,55,12.9,70.3c2.6,15.3,19.4,60.2,19.4,60.2s-19.3,6.4-28.4,2.6
										c0,0-9.9-57.3-10.6-66.8C41.7,160.9,35.1,112.1,49.2,104.2z"/>
									<path class="st11" d="M49.1,105.2c-0.5,2.6-1.5,5.9-3.8,10c-3.2,5.7-4.5,21.8-5.1,36c0.6,8.8,1.4,16.1,1.7,19.3
										c0.7,9.6,10.6,66.8,10.6,66.8c9.1,3.8,20.9-3.1,20.9-3.1s-2.3-8.6-5-19.6c-0.5,6.2-2,15.9-7.1,15.9c-0.5,0-1-0.2-1.4-0.4
										c-2.5-1.3-3.8-4.9-4.7-7.3c-1.5-4-2.4-8.2-3-12.4c-0.4-2.5-1.1-5-1.5-7.4c-1.6-12.8-2.5-25.7-2.5-38.7
										c0-14.3,1.4-28.7,3.6-42.8C50.7,113.7,49.8,107.5,49.1,105.2z"/>
									<path class="st12" d="M58.5,186.6c-0.1,0-0.1-2-0.1-3.9c0-2-0.1-3.9-0.1-3.9s0-2-0.1-3.9c-0.1-2-0.2-3.9-0.1-3.9
										c0.1,0,0.4,1.9,0.5,3.9c0.2,2,0.3,3.9,0.3,3.9s0,2-0.1,4C58.8,184.6,58.6,186.6,58.5,186.6z M60.6,192c0-0.9,0-2,0-3.1
										c0-2.3-0.2-4.5-0.2-4.5s-0.2-2.3-0.5-4.5c-0.2-1.1-0.3-2.3-0.5-3.1c-0.2-0.8-0.3-1.4-0.3-1.4c0,0,0,0.6,0.1,1.4
										c0.1,0.8,0.2,2,0.3,3.1c0.2,2.3,0.3,4.5,0.3,4.5s0.2,2.3,0.3,4.5c0.1,1.1,0.1,2.3,0.2,3.1c0,0.9,0.1,1.4,0.1,1.4
										C60.6,193.4,60.6,192.8,60.6,192z"/>
									<path class="st13" d="M55.9,166.9c-0.4-4.7-0.9-9.4-0.9-9.4s-0.6-4.7-1.2-9.3c-0.3-2.3-0.7-4.7-0.9-6.4
										c-0.3-1.7-0.5-2.9-0.6-2.9c-0.1,0,0,1.2,0.1,2.9c0.1,1.8,0.3,4.1,0.5,6.5c0.4,4.7,0.9,9.4,0.9,9.4s0.6,4.7,1.2,9.3
										c0.3,2.3,0.7,4.7,0.9,6.4c0.3,1.7,0.5,2.9,0.6,2.9c0.1,0,0-1.2-0.1-3C56.3,171.6,56.1,169.2,55.9,166.9z"/>
									<path class="st13" d="M66.2,212.2c-0.2-3-0.7-6-0.7-6s-0.6-3-1.4-5.9c-0.8-2.9-1.9-5.8-2-5.7c-0.2,0.1,0.6,3,1.2,5.9
										c0.6,3,1.1,5.9,1.1,5.9s0.6,2.9,1.1,5.9c0.5,3,0.8,6,1,6C66.5,218.2,66.5,215.2,66.2,212.2z"/>
								</g>
							</g>
						</g>
						<path class="st12" d="M51.3,133.9c0.5,1.8,1.1,3.6,1.1,3.6s0.6,1.8,1.2,3.5c0.6,1.5,1.3,3,1.4,3.4c-0.6-3.4-1.1-5.8-1.1-5.8
							c-0.6-3.5-1.2-7-1.7-10.5c-0.7-4.2-1.2-8.2-1.4-12.4c-0.1-1.6,0.3-3.2,0.1-4.8c0.6,5.7,0.8,11.7,1.8,17.4
							c0.6,3.4,1.2,6.8,1.8,10.2c0,0,3.3,21.2,3.1,21.3c-0.1,0-1.4-8.2-2.7-15.3c0,0,0,0.1,0,0.1c-0.1,0-1-1.6-1.8-3.3
							c-0.8-1.7-1.4-3.5-1.4-3.5s-0.6-1.8-1-3.7c-0.4-1.8-0.7-3.7-0.6-3.7C50.4,130.2,50.7,132.1,51.3,133.9z"/>
					</g>
				</g>
			</g>
			<g>
				<path class="st49" d="M92,76.9c0-0.6,0-1.1-0.1-1.7c0-0.3-0.2-0.3-0.3,0c0,0.4-0.1,0.8-0.1,1.2c0-0.5-0.1-1-0.2-1.5
					c-0.1-0.3-0.4-0.3-0.4,0.1c0,0.3,0,0.5,0,0.8c0,0-0.1,0.1-0.1,0.2c0,0.1,0,0.2,0,0.3c0-0.2,0-0.4,0-0.6c0-0.4-0.4-0.4-0.4,0
					c0,0.1,0,0.2,0,0.2c0-0.2,0-0.3,0-0.5c0-0.2-0.1-0.3-0.2-0.3c0-0.1,0-0.2,0-0.4c0-0.3-0.3-0.3-0.3-0.1c-0.1,1.4-0.6,2.9-0.5,4.3
					c0,0.3,0.3,0.2,0.3,0c0,0,0-0.1,0-0.1c0,0.1,0,0.2,0,0.3c0,0.3,0.3,0.4,0.3,0.1c0-0.1,0.1-0.2,0.1-0.4c0,0,0,0,0-0.1
					c0-0.1,0-0.1,0-0.2c0,0.1,0,0.3,0.1,0.4c0,0.1,0.1,0.1,0.2,0.1c0,0,0,0.1,0,0.1c0,0.2,0.1,0.3,0.2,0.1c0.1-0.3,0.2-0.7,0.3-1
					c0,0.2,0.1,0.4,0.2,0.5c0.1,0.3,0.4,0.1,0.4-0.2c0-0.2,0.1-0.3,0.1-0.5c0,0.2,0.1,0.4,0.1,0.5c0.1,0.2,0.3,0.1,0.3-0.1
					C92.1,78,92,77.4,92,76.9z"/>
				<path class="st49" d="M92.2,75.7c0-0.2-0.2-0.1-0.2,0c0,0.6,0,1.2,0.1,1.8c0,0.1,0.2,0.1,0.2,0C92.4,76.9,92.3,76.3,92.2,75.7z"
					/>
				<path class="st49" d="M89.5,74.7c-0.1,0.4-0.2,0.9-0.3,1.4c0-0.2,0.1-0.3,0.1-0.5c0-0.3-0.2-0.4-0.3-0.3c0-0.3-0.2-0.4-0.3-0.2
					c-0.2,0.5-0.3,1.1-0.4,1.6c0,0,0,0,0,0c0.1-0.3,0.1-0.7,0.1-1c0-0.3-0.2-0.4-0.3-0.3c-0.1-0.2-0.3-0.3-0.4-0.1
					c-0.1-0.2-0.3-0.3-0.4,0c-0.1,0.2-0.2,0.5-0.3,0.7c0-0.4-0.4-0.7-0.6-0.2c-0.1,0.3-0.2,0.6-0.3,0.9c-0.1-0.2-0.3-0.2-0.4,0
					c-0.1,0.1-0.1,0.2-0.2,0.3c-0.1-0.3-0.4-0.5-0.5-0.2c-0.3,0.5-0.6,1.1-0.9,1.6c0.1-0.4,0.3-0.8,0.4-1.1c0.1-0.2-0.1-0.5-0.2-0.3
					c-0.1,0.1-0.2,0.3-0.2,0.4c0-0.2-0.2-0.5-0.3-0.3c-0.1,0.2-0.3,0.3-0.4,0.5c0.1-0.2-0.1-0.4-0.2-0.3c-0.2,0.3-0.5,0.6-0.8,0.9
					c0-0.1,0.1-0.2,0.1-0.3c0.1-0.3-0.2-0.5-0.3-0.2c-0.1,0.1-0.1,0.3-0.2,0.4c0-0.2-0.2-0.3-0.3-0.1c-0.1,0.2-0.2,0.4-0.4,0.6
					c0-0.2-0.1-0.4-0.3-0.2c-0.2,0.4-0.4,0.7-0.7,1c-0.1,0.1-0.2,0.2-0.2,0.3c0.1-0.2,0.2-0.5,0.4-0.7c0.1-0.3-0.1-0.6-0.2-0.4
					c-0.2,0.3-0.4,0.6-0.6,0.9c0-0.1,0.1-0.2,0.1-0.3c0.1-0.3-0.2-0.5-0.3-0.2c-0.2,0.4-0.4,0.7-0.6,1c0.1-0.3,0.2-0.6,0.3-0.9
					c0.1-0.3-0.1-0.5-0.2-0.2c-0.1,0.3-0.3,0.6-0.4,0.9c-0.1,0.3-0.3,0.5-0.4,0.8c0,0.2,0.1,0.3,0.2,0.3c0.1-0.1,0.2-0.2,0.3-0.3
					c0,0.1,0.1,0.2,0.1,0.1c0.2-0.1,0.4-0.3,0.6-0.6c-0.1,0.2,0.1,0.4,0.2,0.3c0.1,0,0.1-0.1,0.1-0.2c0,0.2,0.1,0.4,0.2,0.3
					c0.1,0,0.2-0.1,0.3-0.2c0,0,0,0,0,0c-0.1,0.2,0,0.4,0.2,0.2c0.1-0.2,0.3-0.3,0.4-0.5c0,0,0,0,0.1,0c0,0,0,0,0,0
					c-0.1,0.2,0.1,0.4,0.2,0.3c0.1-0.1,0.1-0.2,0.2-0.3c0,0.2,0.1,0.4,0.2,0.4c0,0.1,0.1,0.2,0.2,0.1c0.1-0.1,0.3-0.3,0.4-0.5
					c0,0,0.1,0,0.1,0c0,0,0.1-0.1,0.1-0.1c-0.1,0.2-0.2,0.5-0.2,0.8c0,0.2,0.1,0.2,0.2,0.1c0-0.1,0.1-0.2,0.1-0.2c0,0,0,0,0,0
					c0.3,0,0.5-0.2,0.7-0.5c-0.1,0.1-0.2,0.4-0.2,0.3c1.6-1.9,0.7-0.4,0.4-0.1c-0.4,0.4,0.8-0.3,1.1-0.9c0,0,0.1,0,0.1,0
					c-0.1,0.2-0.2,0.5-0.3,0.7c-0.1,0.1,0,0.3,0.1,0.2c0.2-0.3,0.4-0.6,0.6-0.9c0,0.5,0.5,0.6,0.7,0.2c0.1-0.2,0.2-0.3,0.2-0.5
					c0,0,0.1,0,0.1,0.1c-0.1,0.2-0.1,0.4-0.2,0.6c0,0.2,0.1,0.3,0.2,0.2c0.1-0.3,0.3-0.6,0.4-0.9c0,0,0.1,0,0.1,0c0,0.1,0,0.1,0,0.2
					c-0.1,0.2,0.1,0.4,0.2,0.3c0.2-0.2,0.3-0.5,0.4-0.7c0,0,0,0,0,0c0,0.2-0.1,0.3-0.1,0.5c-0.1,0.2,0.1,0.4,0.2,0.2
					c0.1-0.2,0.2-0.3,0.2-0.5c0,0,0,0.1,0,0.1c-0.1,0.2,0.1,0.4,0.2,0.3c0.1-0.3,0.3-0.5,0.4-0.8c0,0.1,0,0.3,0,0.4
					c0,0.3,0.2,0.4,0.4,0.2c0.1-0.1,0.1-0.2,0.2-0.3c0,0.3,0.3,0.4,0.4,0c0.1-0.4,0.1-0.7,0.2-1.1c0,0.3,0,0.5,0,0.8
					c0,0.4,0.3,0.4,0.4,0.1c0.1-0.7,0.2-1.4,0.3-2.1c0.1-0.7,0.2-1.4,0.3-2.1C89.9,74.6,89.6,74.4,89.5,74.7z"/>
				<path class="st49" d="M78.4,79.3c-0.3,0.4-0.6,0.7-0.9,1.2c-0.1,0.2,0,0.5,0.2,0.4c0.4-0.3,0.6-0.9,0.9-1.3
					C78.7,79.4,78.5,79.1,78.4,79.3z"/>
				<path class="st49" d="M93.4,76.5c0-0.6,0-1.1,0-1.7c0-0.3,0.2-0.3,0.3,0c0,0.4,0.1,0.8,0.2,1.2c0-0.5,0-1,0.1-1.5
					c0-0.4,0.4-0.4,0.4,0c0,0.3,0,0.5,0,0.8c0,0,0.1,0.1,0.1,0.2c0,0.1,0,0.2,0.1,0.3c0-0.2,0-0.4,0-0.5c0-0.4,0.3-0.4,0.4-0.1
					c0,0.1,0,0.1,0,0.2c0-0.2,0-0.3,0-0.5c0-0.2,0.1-0.3,0.2-0.3c0-0.1,0-0.2-0.1-0.4c0-0.3,0.3-0.4,0.3-0.1
					c0.2,1.3,0.8,2.8,0.7,4.2c0,0.3-0.3,0.3-0.3,0c0,0,0-0.1,0-0.1c0,0.1,0,0.2,0,0.3c0,0.3-0.2,0.4-0.3,0.1c0-0.1-0.1-0.2-0.1-0.4
					c0,0,0,0,0-0.1c0-0.1,0-0.1-0.1-0.2c0,0.1,0,0.3-0.1,0.4c0,0.1-0.1,0.2-0.2,0.2c0,0,0,0.1,0,0.1c0,0.2-0.1,0.3-0.2,0.2
					c-0.1-0.3-0.2-0.6-0.3-1c0,0.2-0.1,0.4-0.1,0.6c-0.1,0.3-0.4,0.1-0.4-0.1c0-0.1-0.1-0.3-0.1-0.5c0,0.2-0.1,0.4-0.1,0.5
					c-0.1,0.2-0.3,0.2-0.3-0.1C93.3,77.6,93.4,77.1,93.4,76.5z"/>
				<path class="st49" d="M95.7,74c0.1,0.4,0.3,0.9,0.4,1.3c0-0.2-0.1-0.3-0.1-0.5c-0.1-0.3,0.2-0.5,0.3-0.3c0-0.3,0.2-0.5,0.3-0.2
					c0.2,0.5,0.3,1,0.5,1.6c0,0,0,0,0,0c-0.1-0.3-0.2-0.7-0.2-1c0-0.3,0.1-0.4,0.3-0.3c0.1-0.2,0.2-0.3,0.4-0.1
					c0.1-0.2,0.3-0.4,0.4-0.1c0.1,0.2,0.2,0.4,0.4,0.7c0-0.4,0.3-0.7,0.5-0.3c0.1,0.3,0.3,0.6,0.4,0.8c0.1-0.2,0.3-0.2,0.4-0.1
					c0.1,0.1,0.1,0.2,0.2,0.3c0-0.3,0.3-0.6,0.5-0.3c0.3,0.5,0.7,1,1,1.5c-0.2-0.4-0.3-0.7-0.5-1.1c-0.1-0.2,0.1-0.5,0.2-0.3
					c0.1,0.1,0.2,0.3,0.3,0.4c0-0.2,0.1-0.5,0.3-0.3c0.2,0.1,0.3,0.3,0.4,0.5c-0.1-0.2,0.1-0.4,0.2-0.3c0.3,0.3,0.5,0.5,0.8,0.8
					c0-0.1-0.1-0.2-0.1-0.3c-0.1-0.3,0.1-0.5,0.2-0.3c0.1,0.1,0.2,0.2,0.2,0.4c0-0.2,0.2-0.3,0.3-0.2c0.1,0.2,0.3,0.4,0.4,0.5
					c0-0.2,0.1-0.5,0.3-0.3c0.2,0.3,0.5,0.6,0.7,0.9c0.1,0.1,0.2,0.2,0.3,0.2c-0.1-0.2-0.3-0.4-0.4-0.6c-0.2-0.2,0-0.6,0.2-0.4
					c0.2,0.2,0.4,0.5,0.6,0.8c0-0.1-0.1-0.2-0.1-0.3c-0.1-0.2,0.1-0.5,0.2-0.3c0.2,0.4,0.4,0.6,0.6,0.9c-0.1-0.3-0.3-0.6-0.4-0.8
					c-0.1-0.2,0.1-0.5,0.2-0.3c0.2,0.3,0.3,0.6,0.5,0.8c0.2,0.2,0.3,0.4,0.4,0.8c0,0.1,0,0.3-0.2,0.3c-0.1,0-0.2-0.1-0.3-0.2
					c0,0.1-0.1,0.2-0.1,0.2c-0.2-0.1-0.4-0.3-0.6-0.5c0.1,0.2,0,0.4-0.2,0.3c0,0-0.1-0.1-0.1-0.1c0.1,0.2-0.1,0.4-0.2,0.4
					c-0.1,0-0.2-0.1-0.3-0.1c0,0,0,0,0,0c0.1,0.2,0,0.4-0.1,0.3c-0.1-0.1-0.3-0.3-0.4-0.4c0,0,0,0-0.1,0c0,0,0,0,0,0
					c0.1,0.2,0,0.4-0.2,0.3c-0.1-0.1-0.2-0.2-0.2-0.3c0,0.2,0,0.4-0.1,0.4c0,0.1-0.1,0.2-0.1,0.2c-0.2-0.1-0.3-0.3-0.5-0.4
					c0,0-0.1,0-0.1,0c0,0-0.1-0.1-0.1-0.1c0.1,0.2,0.2,0.5,0.3,0.8c0,0.2-0.1,0.2-0.2,0.2c-0.1-0.1-0.1-0.1-0.1-0.2c0,0,0,0-0.1,0
					c-0.3,0-0.5-0.2-0.7-0.4c0.1,0.1,0.3,0.4,0.2,0.3c-1.7-1.7-0.8-0.3-0.4,0c0.4,0.4-0.8-0.1-1.2-0.7c0,0-0.1,0-0.1,0
					c0.1,0.2,0.3,0.4,0.4,0.6c0.1,0.1,0,0.3-0.1,0.2c-0.3-0.2-0.5-0.5-0.7-0.8c0,0.5-0.4,0.7-0.7,0.3c-0.1-0.1-0.2-0.3-0.3-0.4
					c0,0-0.1,0.1-0.1,0.1c0.1,0.2,0.2,0.4,0.2,0.6c0.1,0.2-0.1,0.3-0.2,0.2c-0.2-0.3-0.3-0.5-0.5-0.8c0,0-0.1,0-0.1,0
					c0,0.1,0,0.1,0.1,0.2c0.1,0.2-0.1,0.4-0.2,0.3c-0.2-0.2-0.3-0.4-0.5-0.7c0,0,0,0,0,0c0.1,0.1,0.1,0.3,0.2,0.4
					c0.1,0.2-0.1,0.4-0.2,0.2c-0.1-0.2-0.2-0.3-0.3-0.5c0,0,0,0.1,0,0.1c0.1,0.2-0.1,0.5-0.2,0.3c-0.1-0.2-0.3-0.5-0.4-0.7
					c0,0.1,0.1,0.3,0.1,0.4c0,0.3-0.2,0.4-0.3,0.3c-0.1-0.1-0.1-0.2-0.2-0.3c0,0.3-0.3,0.4-0.4,0.1c-0.1-0.3-0.2-0.7-0.2-1
					c0,0.3,0.1,0.5,0.1,0.8c0,0.4-0.3,0.5-0.4,0.1c-0.2-0.7-0.3-1.4-0.4-2.1c-0.1-0.7-0.3-1.3-0.5-2C95.3,73.9,95.6,73.7,95.7,74z"
					/>
				<path class="st49" d="M107,76.8c0.3,0.3,0.7,0.6,1,1.1c0.1,0.2,0,0.5-0.2,0.4c-0.4-0.2-0.7-0.8-1-1.2
					C106.7,76.9,106.9,76.6,107,76.8z"/>
				<path class="st49" d="M93.3,77c-0.1-0.4-0.1-0.9-0.2-1.3c0-0.1-0.2-0.1-0.2,0c0,0.4,0,0.8,0,1.3c0.1,0.5,0.1,1.1,0.4,1.4
					c0.1,0.1,0.2,0,0.2-0.1C93.5,77.8,93.4,77.4,93.3,77z"/>
			</g>
		</g>
	</g>
</g>
</svg>
