<?xml version="1.0" encoding="utf-8"?>
<!-- Generator: Adobe Illustrator 21.0.0, SVG Export Plug-In . SVG Version: 6.00 Build 0)  -->
<svg version="1.1" id="Layer_1" xmlns="http://www.w3.org/2000/svg" xmlns:xlink="http://www.w3.org/1999/xlink" x="0px" y="0px"
	 viewBox="0 0 180 180" style="enable-background:new 0 0 180 180;" xml:space="preserve">
<style type="text/css">
	.st0{fill:#FFFFFF;}
	.st1{display:none;}
	.st2{display:inline;}
	.st3{fill:url(#SVGID_1_);}
	.st4{fill:#508906;}
	.st5{clip-path:url(#SVGID_4_);}
	.st6{fill:#F8D5C9;}
	.st7{fill:#FA8C89;}
	.st8{opacity:0.25;fill:#FA8C89;}
	.st9{opacity:0.5;fill:#D0DBFD;}
	.st10{fill:#113F6A;}
	.st11{opacity:0.25;fill:#113F6A;}
	.st12{opacity:0.34;fill:#113F6A;}
	.st13{opacity:0.6;fill:#113F6A;}
	.st14{fill:#D0DBFD;}
	.st15{opacity:0.15;fill:#FA8C89;}
	.st16{opacity:0.34;fill:#0A2233;}
	.st17{fill:#FF5E6C;}
	.st18{opacity:0.5;fill:#FF5E6C;}
	.st19{fill:#FFE0C2;}
	.st20{opacity:0.45;fill:#F4D0A4;enable-background:new    ;}
	.st21{fill:#F4D0A4;}
	.st22{fill:#F49166;}
	.st23{opacity:0.62;fill:#F4D0A4;enable-background:new    ;}
	.st24{opacity:0.5;}
	.st25{opacity:0.45;fill:#E8B277;enable-background:new    ;}
	.st26{fill:#7E3716;}
	.st27{opacity:0.25;fill:#7E3716;enable-background:new    ;}
	.st28{opacity:0.3;}
	.st29{fill:#FFFCF8;}
	.st30{fill:#FDE9CF;}
	.st31{opacity:0.1;fill:#EA2F69;enable-background:new    ;}
	.st32{fill:#BF5900;}
	.st33{fill:#DD7A37;}
	.st34{fill:#A54700;}
	.st35{opacity:0.25;fill:#471807;enable-background:new    ;}
	.st36{opacity:0.2;}
	.st37{fill:#EAAD85;}
	.st38{fill:#DDDFE0;}
	.st39{fill:#B2A297;}
	.st40{fill:#262223;}
	.st41{fill:#412820;}
	.st42{fill:url(#SVGID_5_);}
	.st43{fill:url(#SVGID_6_);}
	.st44{fill:url(#SVGID_7_);}
	.st45{fill:#373537;}
	.st46{fill:url(#SVGID_8_);}
	.st47{fill:url(#SVGID_9_);}
	.st48{fill:url(#SVGID_10_);}
	.st49{fill:#994302;}
</style>
<rect class="st0" width="180" height="180"/>
<rect class="st0" width="180" height="180"/>
<g>
	<g>
		<g>
			<g class="st1">
				<g class="st2">
					<g>
						
							<radialGradient id="SVGID_1_" cx="96.3333" cy="383" r="167.1662" gradientTransform="matrix(1 0 0 -1 0 467)" gradientUnits="userSpaceOnUse">
							<stop  offset="0.173" style="stop-color:#FFFFFF"/>
							<stop  offset="1" style="stop-color:#36CDFF;stop-opacity:0.3"/>
						</radialGradient>
						<rect id="SVGID_2_" x="0.4" y="0.1" class="st3" width="180" height="180"/>
					</g>
				</g>
			</g>
			<g>
				<g>
					<g>
						<path class="st4" d="M168.9,173.6h-2.6V173h2.6V173.6z M163.1,173.6h-2.6V173h2.6V173.6z M157.3,173.6h-2.6V173h2.6V173.6z
							 M151.5,173.6H149V173h2.6v0.6H151.5z M145.8,173.6h-2.6V173h2.6V173.6z M140,173.6h-2.6V173h2.6V173.6z M134.2,173.6h-2.6
							V173h2.6V173.6z M128.5,173.6h-2.6V173h2.6V173.6z M122.7,173.6h-2.6V173h2.6V173.6z M116.9,173.6h-2.6V173h2.6V173.6z
							 M111.2,173.6h-2.6V173h2.6V173.6z M105.4,173.6h-2.6V173h2.6V173.6z M99.6,173.6H97V173h2.6V173.6z M93.9,173.6h-2.6V173h2.6
							V173.6z M88.1,173.6h-2.6V173h2.6V173.6z M82.3,173.6h-2.6V173h2.6V173.6z M76.5,173.6H74V173h2.6L76.5,173.6L76.5,173.6z
							 M70.8,173.6h-2.6V173h2.6V173.6z M65,173.6h-2.6V173H65V173.6z M59.2,173.6h-2.6V173h2.6V173.6z M53.5,173.6h-2.6V173h2.6
							V173.6z M47.7,173.6h-2.6V173h2.6V173.6z M41.9,173.6h-2.6V173h2.6V173.6z M36.2,173.6h-2.6V173h2.6V173.6z M30.4,173.6h-2.6
							V173h2.6V173.6z M24.6,173.6H22V173h2.6V173.6z M18.9,173.6h-2.6V173h2.6V173.6z M13.1,173.6H12c-0.5,0-1-0.1-1.5-0.2l0.2-0.6
							c0.4,0.1,0.9,0.2,1.3,0.2h1.1V173.6z M171.5,172.8l-0.3-0.5c0.7-0.4,1.2-1,1.6-1.8l0.6,0.3
							C172.9,171.6,172.3,172.3,171.5,172.8z M7.8,171.3c-0.5-0.8-0.8-1.7-0.8-2.6h0.6c0,0.8,0.3,1.6,0.7,2.2L7.8,171.3z
							 M173.9,167.5h-0.6V165h0.6V167.5z M7.6,165.5H6.9V163h0.6L7.6,165.5L7.6,165.5z M173.9,161.8h-0.6v-2.6h0.6V161.8z
							 M7.6,159.8H6.9v-2.6h0.6L7.6,159.8L7.6,159.8z M173.9,156h-0.6v-2.6h0.6V156z M7.6,154H6.9v-2.6h0.6L7.6,154L7.6,154z
							 M173.9,150.2h-0.6v-2.6h0.6V150.2z M7.6,148.2H6.9v-2.6h0.6L7.6,148.2L7.6,148.2z M173.9,144.4h-0.6v-2.6h0.6V144.4z
							 M7.6,142.4H6.9v-2.6h0.6L7.6,142.4L7.6,142.4z M173.9,138.7h-0.6v-2.6h0.6V138.7z M7.6,136.7H6.9v-2.6h0.6L7.6,136.7
							L7.6,136.7z M173.9,132.9h-0.6v-2.6h0.6V132.9z M7.6,130.9H6.9v-2.6h0.6L7.6,130.9L7.6,130.9z M173.9,127.1h-0.6v-2.6h0.6
							V127.1z M7.6,125.1H6.9v-2.6h0.6L7.6,125.1L7.6,125.1z M173.9,121.4h-0.6v-2.6h0.6V121.4z M7.6,119.4H6.9v-2.6h0.6L7.6,119.4
							L7.6,119.4z M173.9,115.6h-0.6V113h0.6V115.6z M7.6,113.6H6.9V111h0.6L7.6,113.6L7.6,113.6z M173.9,109.8h-0.6v-2.6h0.6V109.8
							z M7.6,107.8H6.9v-2.6h0.6L7.6,107.8L7.6,107.8z M173.9,104.1h-0.6v-2.6h0.6V104.1z M7.6,102.1H6.9v-2.6h0.6L7.6,102.1
							L7.6,102.1z M173.9,98.3h-0.6v-2.6h0.6V98.3z M7.6,96.3H6.9v-2.6h0.6L7.6,96.3L7.6,96.3z M173.9,92.5h-0.6V90h0.6V92.5z
							 M7.6,90.5H6.9V88h0.6L7.6,90.5L7.6,90.5z M173.9,86.8h-0.6v-2.6h0.6V86.8z M7.6,84.8H6.9v-2.6h0.6L7.6,84.8L7.6,84.8z
							 M173.9,81h-0.6v-2.6h0.6V81z M7.6,79H6.9v-2.6h0.6L7.6,79L7.6,79z M173.9,75.2h-0.6v-2.6h0.6V75.2z M7.6,73.2H6.9v-2.6h0.6
							L7.6,73.2L7.6,73.2z M173.9,69.4h-0.6v-2.6h0.6V69.4z M7.6,67.4H6.9v-2.6h0.6L7.6,67.4L7.6,67.4z M173.9,63.7h-0.6v-2.6h0.6
							V63.7z M7.6,61.7H6.9v-2.6h0.6L7.6,61.7L7.6,61.7z M173.9,57.9h-0.6v-2.6h0.6V57.9z M7.6,55.9H6.9v-2.6h0.6L7.6,55.9L7.6,55.9
							z M173.9,52.1h-0.6v-2.6h0.6V52.1z M7.6,50.1H6.9v-2.6h0.6L7.6,50.1L7.6,50.1z M173.9,46.4h-0.6v-2.6h0.6V46.4z M7.6,44.4H6.9
							v-2.6h0.6L7.6,44.4L7.6,44.4z M173.9,40.6h-0.6V38h0.6V40.6z M7.6,38.6H6.9V36h0.6L7.6,38.6L7.6,38.6z M173.9,34.8h-0.6v-2.6
							h0.6V34.8z M7.6,32.8H6.9v-2.6h0.6L7.6,32.8L7.6,32.8z M173.9,29.1h-0.6v-2.6h0.6V29.1z M7.6,27.1H6.9v-2.6h0.6L7.6,27.1
							L7.6,27.1z M173.9,23.3h-0.6v-2.6h0.6V23.3z M7.6,21.3H6.9v-2.6h0.6L7.6,21.3L7.6,21.3z M173.9,17.5h-0.6V15h0.6V17.5z
							 M7.6,15.5H6.9V13h0.6L7.6,15.5L7.6,15.5z M173.9,11.8h-0.6v-0.1c0-0.8-0.2-1.5-0.6-2.2l0.6-0.3c0.4,0.8,0.7,1.6,0.7,2.5
							L173.9,11.8L173.9,11.8z M7.9,9.9L7.3,9.7c0.4-0.9,1-1.6,1.7-2.1l0.4,0.5C8.8,8.6,8.2,9.2,7.9,9.9z M170.4,7.6
							c-0.5-0.2-1-0.3-1.6-0.3H168V6.6h0.8c0.6,0,1.2,0.1,1.8,0.3L170.4,7.6z M164.8,7.3h-2.6V6.6h2.6V7.3z M159,7.3h-2.6V6.6h2.6
							V7.3z M153.3,7.3h-2.6V6.6h2.6V7.3z M147.5,7.3h-2.6V6.6h2.6V7.3z M141.7,7.3h-2.6V6.6h2.6V7.3z M136,7.3h-2.6V6.6h2.6V7.3z
							 M130.2,7.3h-2.6V6.6h2.6V7.3z M124.4,7.3h-2.6V6.6h2.6V7.3z M118.6,7.3H116V6.6h2.6V7.3z M112.9,7.3h-2.6V6.6h2.6V7.3z
							 M107.1,7.3h-2.6V6.6h2.6V7.3z M101.3,7.3h-2.6V6.6h2.6V7.3z M95.6,7.3H93V6.6h2.6V7.3z M89.8,7.3h-2.6V6.6h2.6V7.3z M84,7.3
							h-2.6V6.6H84V7.3z M78.3,7.3h-2.6V6.6h2.6V7.3z M72.5,7.3h-2.6V6.6h2.6V7.3z M66.7,7.3h-2.6V6.6h2.6V7.3z M61,7.3h-2.6V6.6H61
							V7.3z M55.2,7.3h-2.6V6.6h2.6V7.3z M49.4,7.3h-2.6V6.6h2.6V7.3z M43.6,7.3H41V6.6h2.6V7.3z M37.9,7.3h-2.6V6.6h2.6V7.3z
							 M32.1,7.3h-2.6V6.6h2.6V7.3z M26.3,7.3h-2.6V6.6h2.6V7.3z M20.6,7.3H18V6.6h2.6V7.3z M14.8,7.3h-2.6V6.6h2.6
							C14.8,6.6,14.8,7.3,14.8,7.3z"/>
					</g>
				</g>
			</g>
		</g>
	</g>
</g>
<g>
	<g>
		<g>
			<g>
				<g>
					<g>
						<g>
							<g>
								<defs>
									<ellipse id="SVGID_3_" cx="57.9" cy="56.7" rx="110.9" ry="100"/>
								</defs>
								<clipPath id="SVGID_4_">
									<use xlink:href="#SVGID_3_"  style="overflow:visible;"/>
								</clipPath>
								<g class="st5">
									<g>
										<g>
											<path class="st6" d="M98.4,225.9c0.1,0.7-1.9,10.1,1.3,10.5c3.1,0.4,2.4-5.2,3.8-5.6c1.4-0.5,3.7,15.6,6.2,15.8
												c2.4,0.2,4.5-8.4,5-10.3c0,0,1,2.6,1.9,2.1c1-0.5-2.7-12.4-5.2-17C109,216.7,97.9,223.1,98.4,225.9z"/>
											<path class="st7" d="M110.3,233c0.1,0,0.4,1.7,0.6,3.5c0.2,1.7,0.4,3.5,0.4,3.5s0,0.4,0,1.1c0,0.7,0.1,1.5,0,2.4
												c0,0.9-0.2,1.8-0.6,2.4c-0.3,0.6-0.8,0.8-0.8,0.8c0,0,0.4-0.3,0.6-0.9c0.3-0.6,0.4-1.4,0.4-2.3c0-0.9-0.1-1.7-0.1-2.4
												c-0.1-0.7-0.1-1.1-0.1-1.1s-0.1-1.8-0.2-3.5C110.5,234.7,110.3,233,110.3,233z M112.9,236.1c0,1.6-0.1,3.2-0.1,3.2
												s0,0.4,0,1c0,0.6-0.1,1.4-0.3,2.2c-0.2,0.8-0.4,1.5-0.7,2.1c-0.3,0.5-0.5,0.9-0.5,0.9c0,0,0.3-0.3,0.7-0.8
												c0.3-0.5,0.7-1.3,0.9-2.1c0.2-0.8,0.3-1.6,0.4-2.2c0.1-0.6,0.1-1,0.1-1s0.1-1.6,0-3.3c-0.1-1.6-0.3-3.2-0.4-3.2
												C112.8,232.8,112.9,234.4,112.9,236.1z M113.9,232.3c0.2,0.8,0.3,1.7,0.3,1.7s0.1,0.8,0.2,1.7c0.1,0.8,0,1.7,0.1,1.7
												c0.1,0,0.3-0.8,0.3-1.7c0.1-0.9,0-1.7,0-1.7s-0.1-0.9-0.4-1.7c-0.3-0.8-0.7-1.6-0.7-1.6
												C113.5,230.7,113.7,231.5,113.9,232.3z"/>
											<path class="st8" d="M116.7,238.4c0.2-0.1,0.2-0.6,0.1-1.3c-1.2-0.7-2.4-4.7-2.5-4.8c-0.1-0.1-0.3,8.6-2.7,10.1
												c-2.4,1.5-4.1-7-5.6-9.6c-1.5-2.6-2.4-2-2.4-2c1.4-0.5,3.7,15.6,6.2,15.8c2.4,0.2,4.5-8.4,5-10.3
												C114.7,236.3,115.7,238.9,116.7,238.4z"/>
											<path class="st8" d="M99.7,236.4c1.7,0.2,2.2-1.2,2.6-2.8c-0.4,0.5-0.9,1-1.5,1.1c-2,0.4-3.2-8.8,1.4-7.7
												c3.4,0.8,8-2,10.2-3.5c-0.3-0.8-0.7-1.5-1-2.2c-2.4-4.7-13.5,1.7-13,4.5C98.6,226.6,96.6,236,99.7,236.4z"/>
											<path class="st0" d="M97.7,221.3l0.5,3.6c0,0,6.8,3.8,14.9-2.9l-1.5-3.8L97.7,221.3z"/>
											<path class="st9" d="M111,223.6c-7.3,2-12.6-0.3-8.7-0.6c4.2-0.3,8.6-2.8,9.8-3.4l-0.5-1.3l-13.8,3.1l0.5,3.6
												C98.2,224.9,103.8,228.1,111,223.6z"/>
											<path class="st10" d="M92,106.7c1.4-0.8,6.2,45,8.5,58.1c2.2,13.1,12.7,53,12.7,53s-10.1,6-17.9,2.7
												c0,0-8.5-48.9-9.1-57.1C85.7,155.1,80,113.4,92,106.7z"/>
											<path class="st11" d="M92.5,107.5c-0.5,2.3-1.3,5.1-3.3,8.5c-2.7,4.9-3.9,18.6-4.4,30.8c0.5,7.5,1.2,13.8,1.4,16.5
												c0.6,8.2,9.1,57.1,9.1,57.1c7.8,3.3,17.9-2.7,17.9-2.7s-1.9-7.4-4.3-16.8c-0.4,5.3-1.7,13.5-6,13.6
												c-0.4,0-0.8-0.1-1.2-0.3c-2.1-1.1-3.2-4.2-4-6.2c-1.3-3.4-2.1-7-2.6-10.6c-0.3-2.1-1-4.2-1.2-6.3
												c-1.4-10.9-2.2-22-2.2-33.1c0-12.2,1.2-24.5,3.1-36.5C93.9,114.8,93,109.5,92.5,107.5z"/>
											<path class="st12" d="M100.5,177.1c-0.1,0,0-1.7-0.1-3.4c0-1.7-0.1-3.4-0.1-3.4s0-1.7-0.1-3.4c-0.1-1.7-0.2-3.4-0.1-3.4
												c0.1,0,0.3,1.7,0.5,3.4c0.2,1.7,0.2,3.4,0.2,3.4s0,1.7-0.1,3.4C100.7,175.4,100.5,177.1,100.5,177.1z M102.3,181.7
												c0-0.7,0-1.7,0-2.7c0-1.9-0.1-3.9-0.1-3.9s-0.2-1.9-0.4-3.9c-0.1-1-0.3-1.9-0.4-2.6c-0.1-0.7-0.2-1.2-0.3-1.2
												c0,0,0,0.5,0.1,1.2c0.1,0.7,0.2,1.7,0.3,2.7c0.2,1.9,0.3,3.9,0.3,3.9s0.2,1.9,0.3,3.9c0.1,1,0.1,1.9,0.1,2.7
												c0,0.7,0.1,1.2,0.1,1.2C102.2,182.9,102.3,182.4,102.3,181.7z"/>
											<path class="st13" d="M98.3,160.2c-0.4-4-0.8-8-0.8-8s-0.5-4-1.1-8c-0.3-2-0.6-4-0.8-5.5c-0.2-1.5-0.4-2.5-0.5-2.5
												c-0.1,0,0,1,0.1,2.5c0.1,1.5,0.3,3.5,0.5,5.5c0.4,4,0.8,8,0.8,8s0.5,4,1.1,8c0.3,2,0.6,4,0.8,5.5
												c0.2,1.5,0.4,2.5,0.5,2.5c0.1,0,0-1-0.1-2.5C98.6,164.2,98.4,162.2,98.3,160.2z"/>
											<path class="st13" d="M107.1,199c-0.2-2.6-0.6-5.2-0.6-5.2s-0.5-2.6-1.2-5.1c-0.7-2.5-1.6-4.9-1.7-4.9
												c-0.1,0,0.5,2.5,1,5.1c0.5,2.5,0.9,5.1,0.9,5.1s0.5,2.5,0.9,5.1c0.4,2.5,0.7,5.1,0.8,5.1
												C107.3,204.1,107.3,201.6,107.1,199z"/>
										</g>
										<path class="st9" d="M50.9,100.1c0,0-19.1,3.2-25.2,7.4c0,0,7.6,22.1,3.3,32.4c3.3,10.4,5.8,21.2,7.4,32
											c0.4,3.2,0.8,6.3,1,9.5c0.2,3-1.1,7.2,2.9,8c2.7,0.6,5.3,1.1,8,1.6c7.3,1.2,14.9,2,22.3,1c3.2-0.4,7-0.8,9.4-3.1
											c1.8-1.7,1.9-4.3,2.2-6.5c0.8-5.5,1.6-11.1,2.3-16.6c1.9-13.5,3.7-27.1,4.9-40.7c0.2-2.5,0.4-5.1,0.5-7.6
											C90.4,99.6,63.9,100,50.9,100.1z"/>
										<path class="st0" d="M50.9,100.1c0,0-19.1,3.2-25.2,7.4c0,0,7.6,22.1,3.3,32.4c3.3,10.4,5.8,21.2,7.4,32
											c0.4,3.2,0.8,6.3,1,9.5c0.2,3-1.1,7.2,2.9,8c2.7,0.6,5.3,1.1,8,1.6c7.3,1.2,14.9,2,22.3,1c3.2-0.4,7-0.8,9.4-3.1
											c1.8-1.7,1.9-4.3,2.2-6.5c0.8-5.5,1.6-11.1,2.3-16.6c1.9-13.5,3.7-27.1,4.9-40.7c0.2-2.5,0.4-5.1,0.5-7.6
											C90.4,99.6,63.9,100,50.9,100.1z"/>
										<path class="st9" d="M50.9,100.1c0,0-19.1,3.2-25.2,7.4c0,0,7.6,22.1,3.3,32.4c3.3,10.4,5.8,21.2,7.4,32
											c0.4,3.2,0.8,6.3,1,9.5c0.2,3-1.1,7.2,2.9,8c2.7,0.6,5.3,1.1,8,1.6c7.3,1.2,14.9,2,22.3,1c3.2-0.4,7-0.8,9.4-3.1
											c1.8-1.7,1.9-4.3,2.2-6.5c0.8-5.5,1.6-11.1,2.3-16.6c1.9-13.5,3.7-27.1,4.9-40.7c0.2-2.5,0.4-5.1,0.5-7.6
											C90.4,99.6,63.9,100,50.9,100.1z"/>
										<g>
											<path class="st9" d="M47.9,112.9l0-0.1C47.9,112.8,47.9,112.8,47.9,112.9z"/>
											<path class="st9" d="M70.4,106.4c1.8,12.9,3.5,79.1-10.3,76.3c-12.3-2.5-12.4-63.1-12.3-69.4c0-0.2,0-0.4,0-0.5L42,189.7
												c2.1,0.4,4.2,0.9,6.3,1.2c7.3,1.2,14.9,2,22.3,1c3.2-0.4,7-0.8,9.4-3.1c0.1-0.1,0.1-0.1,0.1-0.2c1.9-5-0.9-12.3,0.5-24.5
												C82.6,147,68.6,93.6,70.4,106.4z"/>
											<path class="st14" d="M62.4,177.3c0,0,0.1,0.5,0.1,1.2c0,0.7,0,1.6,0.1,2.6c0,1.9,0.1,3.8,0.1,3.8s0,1.9-0.1,3.8
												c0,0.9-0.1,1.9-0.3,2.6c-0.2,0.7-0.4,1.1-0.5,1.1c0,0,0.1-0.5,0.3-1.1c0.1-0.7,0.2-1.6,0.2-2.5c0-1.9-0.1-3.7-0.1-3.7
												s0-1.9,0.1-3.7c0-0.9,0.1-1.9,0.1-2.6C62.3,177.8,62.3,177.3,62.4,177.3z"/>
										</g>
										<path class="st6" d="M49,94.4l0.5,8.3c0,0,5.5,6.2,15.7,0.9l-0.5-9.4C64.6,94.3,52.7,89.5,49,94.4z"/>
										<path class="st15" d="M49,94.4l0.5,8.3c0,0,5.5,6.2,15.7,0.9l-0.5-9.4C64.6,94.3,52.7,89.5,49,94.4z"/>
										<path class="st8" d="M65.1,103.7l-0.2-3.1c-9,9-16.4-6.6-12-3.7c3.7,2.4,9.8-0.1,11.7-1l0-0.6c-1.4-0.6-5.3-2.2-9.4-3.1
											c-2.5-0.1-4.9,0.4-6.3,2.2l0.5,8.3C49.4,102.7,55,109,65.1,103.7z"/>
										<path class="st12" d="M67.7,101.3c0,0,19.1-0.1,22.5,4.5c1.5,2,1.1,5.3,0.9,7.6c-0.3,4.6-1.1,9.1-1.9,13.7
											c-2.2,12.5-4,23.6-5.4,36.2c-0.8,7.3-1.9,16.1-2,23.5c0,3.1-0.1,6.2,0,9.4c0,2.2,1.1,6.7-0.1,8.6
											c-1.9,3.1-9.3,2.9-12.2,1.6c-2.7-1.3,1.3-51.1,2.4-74.3C73,108.9,67.7,101.3,67.7,101.3z"/>
										<path class="st10" d="M69,100.7c0,0,19.1-0.1,22.5,4.5c1.5,2,1.1,5.3,0.9,7.6c-0.3,4.6-1.1,9.1-1.9,13.7
											c-2.2,12.5-4,23.6-5.4,36.2c-0.8,7.3-1.9,16.1-2,23.5c0,3.1-0.1,6.2,0,9.4c0,2.2,1.1,6.7-0.1,8.6
											c-1.9,3.1-9.3,2.9-12.2,1.6c-2.7-1.3,1.3-51.1,2.4-74.3C74.3,108.2,69,100.7,69,100.7z"/>
										<path class="st10" d="M65.4,97.3c0.2,0.6,5.2,0.2,9.6,5.9c4.4,5.7,10.2,22.7,8.4,25.2c-1.7,2.5-6.3,0-6.3,0
											s4,7.8,4.7,16.2C82.6,153,71,176.8,71,176.8s0-32.3,0.8-39.6c0.8-7.3,0-28.9-2.9-34.2C67,99.4,65.4,97.3,65.4,97.3z"/>
										<path class="st12" d="M65.4,97.3c0.2,0.6,5.2,0.2,9.6,5.9c4.4,5.7,10.2,22.7,8.4,25.2c-1.7,2.5-6.3,0-6.3,0
											s4,7.8,4.7,16.2C82.6,153,71,176.8,71,176.8s0-32.3,0.8-39.6c0.8-7.3,0-28.9-2.9-34.2C67,99.4,65.4,97.3,65.4,97.3z"/>
										<g>
											<path class="st16" d="M78.7,131.8c1,3,2.1,6.9,2.5,10.9c0.6,7.2-7.7,25.5-10.2,30.8c0,2,0,3.3,0,3.3s11.6-23.8,10.8-32.2
												C81.4,139.6,79.9,134.9,78.7,131.8z"/>
											<path class="st16" d="M80.4,113.7c2.1,5.8,3.4,11.5,2.4,12.8c-1.7,2.5-6.3,0-6.3,0s0.4,0.7,0.9,1.9
												c0.9,0.4,4.6,2,6.1-0.1C84.5,126.8,82.8,120.1,80.4,113.7z"/>
										</g>
										<path class="st12" d="M91.8,130.5c-0.4,1.5-1,3-1,3s-0.5,1.5-1.1,3c-0.5,1.3-1.1,2.6-1.2,2.9c0.5-2.9,0.9-5,0.9-5
											c0.5-3,1-6,1.5-9c0.6-3.5,1-7,1.2-10.6c0.1-1.4-0.3-2.7-0.1-4.1c-0.5,4.9-0.6,10-1.5,14.9c-0.5,2.9-1.1,5.8-1.6,8.7
											c0,0-3.6,24.2-3.4,24.2c0.1,0,2-13,3.1-19.1c0,0,0,0.1,0,0.1c0.1,0,0.9-1.4,1.5-2.8c0.7-1.5,1.2-3,1.2-3s0.5-1.5,0.8-3.1
											c0.4-1.6,0.6-3.2,0.5-3.2C92.6,127.4,92.3,129,91.8,130.5z"/>
										<g>
											<path class="st9" d="M52.3,147.5c-0.2-21.6-6.1-46.4-6.1-46.4c-0.1,0-0.2-0.1-0.2-0.1c-6.1,1.3-16.1,3.6-20.2,6.4
												c0,0,6.1,17.8,4.2,28.9c1.2,6.5,2.2,12.5,2.7,16.3c1.6,6.3,2.8,12.7,3.7,19.1c0.4,3.2,0.8,6.3,1,9.5c0.2,3-1.1,7.2,2.9,8
												c2.4,0.5,4.8,1,7.2,1.5C50,178.1,52.4,160.4,52.3,147.5z"/>
											<path class="st10" d="M44.4,101.1c0,0,6,24.8,6.1,46.4c0.2,21.6-6.8,57.1-9.3,59.1c-2.5,1.9-14.9-3-15.6-5.5
												c-0.7-2.5,6.3-37.3,5.6-45.6c-0.7-8.2-7.9-46.6-9.8-49.1C19.5,103.7,40.6,99.2,44.4,101.1z"/>
											<path class="st10" d="M47.3,97.5c0,0-5.8,1.9-7.6,10.4c-1.8,8.5-3.8,21.6-1.1,22.4c2.7,0.8,5.4-0.9,5.4-0.9
												s-3.7,11-3.8,16.8c-0.2,5.8,6.4,30.2,7.7,30c1.2-0.2,2.7-27.6,2.4-43.9c-0.3-16.4-4.6-30.9-1.4-34.8
												C48.8,97.5,48.4,96.7,47.3,97.5z"/>
											<path class="st12" d="M47.3,97.5c0,0-5.8,1.9-7.6,10.4c-1.8,8.5-3.8,21.6-1.1,22.4c2.7,0.8,5.4-0.9,5.4-0.9
												s-3.7,11-3.8,16.8c-0.2,5.8,6.4,30.2,7.7,30c1.2-0.2,2.7-27.6,2.4-43.9c-0.3-16.4-4.6-30.9-1.4-34.8
												C48.8,97.5,48.4,96.7,47.3,97.5z"/>
											<path class="st16" d="M41.6,144.6c0.2-5.8,3.8-16.8,3.8-16.8s-2.7,1.7-5.4,0.9c-2.7-0.8-0.7-13.9,1.1-22.4
												c0.6-2.9,1.7-5,2.9-6.6c-1.6,1.6-3.4,4.1-4.3,8.2c-1.8,8.5-3.8,21.6-1.1,22.4c2.7,0.8,5.4-0.9,5.4-0.9s-3.7,11-3.8,16.8
												c-0.2,5.8,6.4,30.2,7.7,30c0.2,0,0.5-1,0.7-2.7C46.5,168.8,41.5,149.7,41.6,144.6z"/>
											<g>
												<path class="st11" d="M28.8,124.7l0.2-0.7C28.9,124.1,28.9,124.4,28.8,124.7z"/>
												<path class="st11" d="M39.6,186.9c-6.5-3.5-4.7-22.4-5-34.3c-0.3-11.8-1.7-29.7-1.7-29.7s-2.3,4.8-3.5,4.8
													c-1,0-0.9-1.8-0.7-3l-1.7,5.6c2,10.5,3.8,21.2,4.2,25.1c0.6,7.2-4.6,34.7-5.5,43.2c4.4,2.9,9.8,5.9,14.4,8.3
													c0.5-0.1,0.9-0.2,1.2-0.4c1.6-1.2,5.1-16.6,7.3-33.1C46.7,180.5,43.5,188.9,39.6,186.9z"/>
											</g>
										</g>
										<path class="st11" d="M83,204c1.2-2,0.2-6.4,0.1-8.6c0-3.1,0-6.2,0-9.4c0-2.4,0.2-5,0.4-7.7c-1.5,6.6-3.7,13.2-6.9,13.8
											c-6.6,1.1-5.6-19.4-5.6-19.4s-0.1,0.3-0.2,0.9c-0.9,16.9-1.4,31.4,0.1,32C73.6,206.9,81.1,207.1,83,204z"/>
										<g>
											<g>
												<path class="st10" d="M40.6,126.9c0,0-0.7-0.3-0.9-1.3c-0.3-1-0.1-2.3-0.1-3.6c0.2-2.6,0.6-5.2,0.6-5.2s0.4-2.6,1.1-5.1
													c0.3-1.3,0.7-2.5,1-3.5c0.3-0.9,0.5-1.5,0.6-1.5c0,0-0.1,0.6-0.4,1.6c-0.2,1-0.5,2.2-0.8,3.5c-0.5,2.5-0.9,5.1-0.9,5.1
													s-0.5,2.6-0.7,5.2c-0.1,1.3-0.3,2.6-0.1,3.5C40.1,126.5,40.7,126.9,40.6,126.9z"/>
											</g>
											<g>
												<path class="st10" d="M43.9,127.2c0,0.1-0.2,0.2-0.5,0.3c-0.3,0.1-0.5,0.1-0.5,0.1s-0.3,0-0.5-0.1
													c-0.2-0.1-0.5-0.2-0.4-0.3c0-0.1,0.3-0.1,0.5-0.1c0.2,0,0.5,0,0.5,0s0.2,0,0.5,0.1C43.7,127.1,43.9,127.1,43.9,127.2z"
													/>
											</g>
											<g>
												<path class="st10" d="M44.9,157.8c0,0-0.1-0.2-0.1-0.5c-0.1-0.3-0.2-0.8-0.3-1.3c-0.2-1.1-0.5-2.5-0.8-4
													c-0.3-1.5-0.6-2.9-0.7-4c-0.2-1.1-0.2-1.9-0.2-1.9s0-0.8,0-1.9c0.1-1.1,0.3-2.6,0.6-4.1c0.3-1.5,0.7-2.9,1-4
													c0.2-0.5,0.3-1,0.4-1.3c0.1-0.3,0.2-0.5,0.2-0.5c0,0-0.1,0.7-0.4,1.8c-0.3,1.1-0.6,2.5-0.9,4c-0.3,1.5-0.4,2.9-0.5,4
													c0,1.1,0,1.8,0,1.8s0,0.7,0.1,1.8c0.1,1.1,0.4,2.6,0.6,4c0.2,1.5,0.5,2.9,0.6,4c0.1,0.6,0.1,1,0.2,1.3
													C44.9,157.6,44.9,157.8,44.9,157.8z"/>
											</g>
											<g>
												<path class="st10" d="M81.3,124.1c0,0,0.1-0.7-0.1-1.8c-0.2-1.1-0.6-2.4-1.1-3.8c-0.9-2.7-2.1-5.4-2.1-5.4
													s-1.1-2.7-2.4-5.2c-0.6-1.3-1.3-2.6-1.9-3.5c-0.5-0.9-0.9-1.6-0.9-1.6c0,0,0.1,0.1,0.3,0.4c0.2,0.3,0.4,0.6,0.7,1.1
													c0.6,0.9,1.3,2.2,2,3.4c1.4,2.5,2.5,5.2,2.5,5.2s1.1,2.7,1.9,5.5c0.4,1.4,0.8,2.8,0.9,3.9c0.1,0.5,0.1,1,0,1.3
													C81.4,123.9,81.3,124.1,81.3,124.1z"/>
											</g>
											<g>
												<path class="st10" d="M80.7,125.4c0,0.1-0.9,0.3-0.9,0.3s-0.9-0.1-0.9-0.3c0-0.1,0.9-0.3,0.9-0.3S80.7,125.2,80.7,125.4
													z"/>
											</g>
											<g>
												<path class="st10" d="M79.1,139.3c-0.1,0-0.2-1.1-0.5-2.1c-0.3-1-0.7-2.1-0.7-2.1s-0.3-1-0.7-2c-0.4-1-0.8-2-0.7-2.1
													c0.1,0,0.6,0.9,1.1,1.9c0.5,1,0.9,2,0.9,2s0.4,1.1,0.5,2.2C79.2,138.2,79.2,139.4,79.1,139.3z"/>
											</g>
											<g>
												<path class="st10" d="M74.8,162.2c0,0,0.2-0.6,0.6-1.6c0.4-0.9,0.9-2.2,1.3-3.5c0.9-2.6,1.4-5.2,1.4-5.2
													s0.6-2.6,0.9-5.3c0.2-1.3,0.3-2.7,0.3-3.7c0-1,0.1-1.7,0.1-1.7c0,0,0,0.2,0.1,0.5c0,0.3,0,0.7,0,1.2c0,1,0,2.4-0.1,3.7
													c-0.2,2.7-0.8,5.4-0.8,5.4s-0.6,2.7-1.6,5.2c-0.5,1.3-1,2.5-1.5,3.4c-0.2,0.5-0.4,0.8-0.6,1.1
													C74.9,162.1,74.8,162.2,74.8,162.2z"/>
											</g>
										</g>
										<path class="st13" d="M30.5,111.5c-0.1,0-0.2,1.3-0.3,2.6c-0.1,1.3-0.2,2.6-0.2,2.6s0,1.3,0,2.6c0,1.3-0.1,2.6,0.1,2.6
											c0.1,0,0.5-1.3,0.7-2.6c0.2-1.3,0.3-2.6,0.3-2.6s0-1.3-0.1-2.6C30.9,112.8,30.7,111.5,30.5,111.5z"/>
										<path class="st13" d="M90.8,112.5c0-0.4-0.1-1-0.1-1.7c-0.1-0.7-0.2-1.6-0.3-2.4c-0.1-0.4-0.1-0.9-0.2-1.4
											c-0.1-0.5-0.1-0.9-0.4-1.5c-0.1-0.3-0.3-0.5-0.6-0.7c-0.3-0.2-0.5-0.2-0.8-0.3c-0.5-0.1-0.9-0.1-1.4-0.2
											c-0.9-0.1-1.7-0.1-2.5-0.1c-1.4,0-2.4,0.2-2.4,0.3c0,0.1,1,0,2.4,0.1c0.7,0,1.5,0.1,2.4,0.3c0.8,0.2,2,0.2,2.1,0.9
											c0.1,0.3,0.2,0.9,0.2,1.3c0.1,0.5,0.1,0.9,0.2,1.4c0.1,0.9,0.2,1.7,0.2,2.4c0,0.7,0.1,1.3,0.1,1.7c0,0.4,0,0.6,0,0.6
											s0.2,3.8-0.2,7.5c-0.2,1.9-0.5,3.7-0.8,5.1c-0.3,1.4-0.5,2.3-0.4,2.3c0.1,0,0.4-0.9,0.8-2.2c0.4-1.4,0.9-3.2,1.2-5.1
											c0.6-3.8,0.5-7.7,0.5-7.7S90.8,112.9,90.8,112.5z"/>
										<path class="st13" d="M87,137.5c-0.5,2.8-0.9,5.7-0.9,5.7s-0.3,2.9-0.4,5.7c-0.1,2.9-0.1,5.7,0,5.7c0.1,0,0.4-2.8,0.7-5.7
											c0.3-2.8,0.7-5.7,0.7-5.7s0.3-2.8,0.6-5.7c0.3-2.8,0.8-5.7,0.6-5.7C88.2,131.9,87.5,134.7,87,137.5z"/>
										<g>
											<path class="st9" d="M67.6,178.5c-1.2,3.5-3.3,7.2-5.7,9.9c-0.1,0.2-0.3,0.3-0.5,0.3c-0.2,0-0.4-0.2-0.6-0.3
												c-0.6-0.7-1.2-1.4-1.8-2c-7.4-8.4-6.3-17.5-5.6-27.9c1-13.6,2.7-27.2,4.8-40.7c-2.4-1.1-4.3-4.6-4.3-4.6
												c-0.4-2.3,3.1-5.9,5.3-6.1c2.2-0.3,5.3,5.2,5.3,5.2s-0.1,3.9-3.2,5.4c0.2,1.4,4.7,34.5,5.7,43.5c0.3,2.4,0.6,4.8,0.9,7.1
												C68.5,171.8,68.9,175,67.6,178.5z"/>
											<g>
												<path class="st17" d="M68.6,178c-1.2,3.5-3.3,7.2-5.7,9.9c-0.1,0.2-0.3,0.3-0.5,0.3c-0.2,0-0.4-0.2-0.6-0.3
													c-0.6-0.7-1.2-1.4-1.8-2c-7.4-8.4-6.3-17.5-5.6-27.9c1-13.6,2.7-27.2,4.8-40.7c-2.4-1.1-4.3-4.6-4.3-4.6
													c-0.4-2.3,3.1-5.9,5.3-6.1c2.2-0.3,5.3,5.2,5.3,5.2s-0.1,3.9-3.2,5.4c0.2,1.4,4.7,34.5,5.7,43.5
													c0.3,2.4,0.6,4.8,0.9,7.1C69.5,171.3,69.8,174.5,68.6,178z"/>
												<path class="st18" d="M69,167.7c0-0.3-0.1-0.6-0.1-1c-0.9,8.9-5,15.6-9.8,6.1c-4.9-9.9,0.1-52.6,1.4-53.4
													c0.9-0.5,2.5,5.5,3.4,9.4c-0.9-6.4-1.5-11.2-1.6-11.7c1.2-0.6,2-1.6,2.5-2.6c-0.8,0.6-3.4,2.4-5.4,0.8
													c-2.4-1.9-0.4-7.8-0.2-8.2c0,0-0.7,0.3-1.6,0.7c-1.6,1.3-3,3.3-2.7,4.8c0,0,1.9,3.5,4.3,4.6
													c-2.1,13.5-3.8,27.1-4.8,40.7c-0.7,10.4-1.8,19.6,5.6,27.9c0.6,0.7,1.2,1.4,1.8,2c0.2,0.2,0.3,0.4,0.6,0.3
													c0.2,0,0.4-0.2,0.5-0.3c2.3-2.8,4.5-6.5,5.7-9.9C69.8,174.5,69.5,171.3,69,167.7z"/>
												<path class="st17" d="M65.6,159.4c-0.3,0-2.5-17.5-2.5-17.5s-1.8-17.6-1.5-17.6c0.3,0,2.5,17.5,2.5,17.5
													S65.9,159.4,65.6,159.4z M66.8,168.6c0.1-1.2,0-2.4,0-2.4s-0.1-1.2-0.4-2.4c-0.2-1.2-0.5-2.4-0.6-2.3
													c-0.1,0-0.1,1.2-0.1,2.4c0,1.2,0,2.4,0,2.4s0.1,1.2,0.3,2.4c0.1,1.2,0.3,2.4,0.4,2.4C66.6,171,66.8,169.8,66.8,168.6z
													 M62.8,114.2c0.3-0.8,0.2-1.6,0.2-1.6s-0.2-0.8-0.7-1.5c-0.5-0.7-1.3-0.9-1.3-0.8c-0.1,0.1,0.5,0.6,0.7,1.2
													c0.3,0.6,0.3,1.2,0.3,1.2s0.2,0.6,0.1,1.3c-0.1,0.6-0.4,1.2-0.3,1.3C61.8,115.5,62.5,115,62.8,114.2z"/>
											</g>
										</g>
										<g>
											<path class="st9" d="M49.1,99c0.1,0,0.1-0.1,0.2-0.1c-0.4,0.1,0.9,3.2,1.1,3.6c0.7,1,1.6,1.9,2.6,2.6
												c2,1.3,4.7,2.1,7.1,1.4c1.5-0.5,3.1-1.2,3.9-2.6c1.1-1.7,1.2-3.5,1-5.4c2,2.2,3.9,4.9,5,7.7c0.9,2.6-0.1,10.3-4,8.5
												c-2-0.9-4-4.7-5.5-6.7c0,0-4.5,8.5-6.1,8.7c-3,0.4-5.6-3.7-6.7-5.9c-1.8-3.5-2.3-8,0.7-11.1C48.6,99.5,48.9,99.2,49.1,99
												z"/>
											<path class="st0" d="M48.8,97.5c0.1,0,0.1-0.1,0.2-0.1c-0.4,0.1,0.9,3.2,1.1,3.6c0.7,1,1.6,1.9,2.6,2.6
												c2,1.3,4.7,2.1,7.1,1.4c1.5-0.5,3.1-1.2,3.9-2.6c1.1-1.7,1.2-3.5,1-5.4c2,2.2,3.9,4.9,5,7.7c0.9,2.6-0.1,10.3-4,8.5
												c-2-0.9-4-4.7-5.5-6.7c0,0-4.5,8.5-6.1,8.7c-3,0.4-5.6-3.7-6.7-5.9c-1.8-3.5-2.3-8,0.7-11.1C48.3,98,48.5,97.6,48.8,97.5
												z"/>
											<g>
												<path class="st9" d="M54,112.9c-5.1-1-3.6-9.2-3.6-9.2s2.6,4.7,9.8,2.3c7.1-2.4,4.9-7.7,4.7-8.9c0.2,1.9,0.1,3.7-1,5.4
													c-0.9,1.3-2.4,2.1-3.9,2.6c-2.4,0.7-5.1,0-7.1-1.4c-1-0.7-2-1.5-2.6-2.6c-0.2-0.4-1.6-3.5-1.1-3.6
													c-0.1,0-0.1,0.1-0.2,0.1c-0.3,0.2-0.6,0.5-0.8,0.7c-2.9,3.1-2.5,7.6-0.7,11.1c1.1,2.2,3.8,6.3,6.7,5.9
													c0.6-0.1,1.5-1.2,2.5-2.6C55.9,112.9,55,113.1,54,112.9z"/>
												<path class="st9" d="M60.2,106.5c1.5,2,3.5,5.8,5.5,6.7c3.4,1.6,4.6-3.8,4.3-7c-0.5,2.2-1.1,4.4-2.1,5.4
													C65.9,113.8,60.2,106.5,60.2,106.5z"/>
											</g>
										</g>
										<g>
											<g>
												<g>
													<g>
														<path class="st19" d="M48.4,94.6l0.3,7.3c0,0,4.8,5.5,13.7,0.9l-0.3-8.2C62.3,94.6,51.9,90.3,48.4,94.6z"/>
														<path class="st20" d="M62.5,100.1c-7.9,7.8-14.3-5.9-10.5-3.3c3.2,2.1,8.6,0,10.3-0.8v-0.3l-0.1-0.9
															c-0.1-0.2-0.2-0.3-0.3-0.3c-0.5-0.3-1.5-0.6-3-0.9c-1.5-0.3-3.3-0.4-4.9-0.9c-0.5,0-1.1,0-1.5,0.1c0,0,0,0-0.1,0
															c-0.3,0-0.4,0.1-0.8,0.1c0,0,0,0-0.1,0c-0.3,0.1-0.4,0.1-0.7,0.2h-0.1c-0.3,0.1-0.3,0.2-0.5,0.3c-0.1,0-0.1,0-0.2,0.1
															c-0.3,0.1-0.3,0.3-0.6,0.3c0,0-0.1,0-0.1,0.1c-0.2,0.1-0.3,0.3-0.4,0.3c-0.1,0-0.1,0.1-0.2,0.1
															c-0.2,0.2-0.3,0.3-0.4,0.4l0,0l0.3,7.3c0,0,4.8,5.5,13.7,0.9L62.5,100.1z"/>
													</g>
													<g>
														<g>
															<g>
																<g>
																	<g>
																		<path class="st21" d="M78.2,63.1c0,0,2.1-3.1,5-1.1c3.4,2.2,1.7,14.1-2.9,13.9C75.6,75.8,77.4,62.9,78.2,63.1z"/>
																		<path class="st20" d="M78.2,63.1c0,0,2.1-3.1,5-1.1c3.4,2.2,1.7,14.1-2.9,13.9C75.6,75.8,77.4,62.9,78.2,63.1z"/>
																		<g>
																			<g>
																				<path class="st22" d="M82.5,72.3c0-0.1-0.3,0-0.8-0.1c-0.3-0.1-0.3-0.3-0.5-0.3c-0.1-0.3-0.2-0.5,0-0.8
																					c0.1-0.3,0.3-0.5,0.4-0.7c0.2-0.2,0.3-0.3,0.8-0.5c0.3-0.3,0.5-0.9,0.4-1.2c-0.1-0.3-0.2-0.4-0.2-0.4
																					s-0.1-0.2-0.3-0.3c-0.1-0.2-0.3-0.3-0.4-0.3c-0.1-0.1-0.3-0.1-0.3-0.2c0,0,0,0-0.1,0l0,0c0,0,0-0.2,0-0.3
																					s0-0.3,0.1-0.3c0.1-0.4,0.3-0.9,0.4-1.3c0.4-0.9,1.1-1.1,1.1-1.2c0-0.2-0.9-0.1-1.5,0.8
																					c-0.3,0.3-0.7,0.9-0.9,1.5c-0.1,0.2-0.1,0.3-0.1,0.3c0,0.2-0.1,0.3-0.1,0.4c0,0.3,0,0.8,0,1
																					c0.3,0,0.5,0,0.7,0.1c0.1,0,0.2,0.1,0.2,0.1c0.1,0.1,0.2,0.2,0.3,0.3c0.1,0.2,0.1,0.2,0.1,0.2
																					c0,0.1,0.1,0,0,0.1c-0.1,0.2-0.3,0.3-0.7,0.6c-0.3,0.3-0.5,0.8-0.6,1.3c-0.1,0.5,0,1,0.3,1.4
																					c0.3,0.3,0.6,0.4,0.9,0.4C82.2,72.7,82.5,72.3,82.5,72.3z"/>
																			</g>
																		</g>
																		<path class="st23" d="M80.3,75.9c-4.6-0.2-2.9-13.1-2.1-12.8c0,0,1-1.5,2.6-1.7c-0.8,1.9,0.3,4.8,0.3,4.8
																			s1.2-2,1.9-1.3c0.7,0.7-0.3,3.8,1,4c0.4,0.1,0.8-0.3,0.9-0.8C84.8,71.9,83,75.9,80.3,75.9z"/>
																	</g>
																	<g class="st24">
																		<g>
																			<path class="st21" d="M84.7,64.6c0.3,0.7,0.1,1.4-0.3,1.5c-0.3,0.2-0.7-0.3-0.9-0.9s-0.1-1.4,0.3-1.5
																				C84,63.5,84.4,63.9,84.7,64.6z"/>
																			<path class="st21" d="M83.5,62.6c0.1,0.3,0,0.4-0.3,0.6c-0.3,0.2-0.4,0.1-0.5-0.2c-0.1-0.3,0-0.4,0.3-0.6
																				C83.2,62.3,83.4,62.4,83.5,62.6z"/>
																		</g>
																	</g>
																</g>
																<path class="st19" d="M26.1,63.5c-0.3-10.6,3.9-27.7,26.3-27.9C74.9,35.4,78.3,60,78.3,60s2.3,9.1,2.1,16
																	c-0.3,6.9-3.9,17.2-19.9,18.8s-28.4-5.1-31.3-15c0,0-5.9-0.1-7.6-6.6C20.4,68.6,22.9,64,26.1,63.5z"/>
																<g>
																	<g>
																		<path class="st25" d="M26.1,63.5c-0.1-3.2,0.3-6.9,1.3-10.6c0.9-2.7,2.1-5.4,3.6-7.6c-3.2,5.4-3.8,13.5-3.6,18.5
																			c-0.3,0.1-0.9-0.2-1.5-0.2C26.1,63.5,26.1,63.5,26.1,63.5z"/>
																		<path class="st25" d="M23.2,65.3c-0.9,1.8-1.2,4-0.7,6.4c1.5,6.5,7.6,6.6,7.6,6.6c2.8,9.9,15.2,16.6,31.3,15
																			c8.5-0.9,13.4-4.1,16.3-8c-2.6,4.5-7.8,8.6-17.4,9.6c-16.1,1.6-28.4-5.1-31.3-15c0,0-5.9-0.1-7.6-6.6
																			C20.8,70.1,21.7,67.1,23.2,65.3z"/>
																	</g>
																</g>
																<g>
																	<path class="st26" d="M68.6,69.1c-0.1,2.1,0.9,3.8,2.1,3.8c1.2,0,2.1-1.7,2.2-3.8c0.1-2.1-0.9-3.8-2.1-3.8
																		C69.6,65.2,68.7,66.9,68.6,69.1z"/>
																	<path class="st27" d="M69.8,65.6c-0.2,0.5-0.3,1-0.3,1.6c-0.1,2.1,0.9,3.8,2.1,3.8c0.3,0,0.7-0.2,0.9-0.4
																		c-0.3,1.3-1.1,2.1-2,2.1c-1.2,0-2.1-1.7-2.1-3.8C68.6,67.6,69.1,66.3,69.8,65.6z"/>
																	<g>
																		<path class="st26" d="M72.5,68.4c0.1,0.8-0.3,1.4-0.6,1.4s-0.8-0.5-0.8-1.3c-0.1-0.8,0.3-1.4,0.6-1.4
																			C72.1,67.1,72.5,67.6,72.5,68.4z"/>
																		<path class="st26" d="M71,66.4c0,0.2,0.2,0.3,0.3,0.3c0.2,0,0.3-0.2,0.3-0.3s-0.2-0.3-0.3-0.3S71,66.3,71,66.4z"
																			/>
																	</g>
																</g>
																<g>
																	<g>
																		<g>
																			<g>
																				<path class="st22" d="M25,75.6c-0.1,0,0,0.8,0.7,1.3c0.2,0.2,0.3,0.3,0.7,0.3c0.3,0,0.6-0.2,0.9-0.3
																					c0.3-0.3,0.4-0.6,0.4-0.9c0.1-0.3-0.1-0.9-0.3-1.2c-0.3-0.3-0.5-0.3-0.7-0.4c-0.2-0.1-0.3-0.3-0.3-0.3
																					c-0.2-0.3-0.2-0.8-0.1-0.9c0.2-0.4,0.5-0.5,0.5-0.5s0.1,0,0.3-0.1c0.1,0,0.2,0,0.3,0c0.1,0,0.1,0,0.2,0.1
																					c0,0,0,0,0.1,0.1s0.2,0.2,0.2,0.3c0.3,0.3,0.4,0.4,0.7,0.4c0.2,0,0.3-0.1,0.4-0.3c0.1-0.2,0.2-0.3,0.3-0.4
																					c0.1-0.3,0.2-1,0.2-1.4c0-0.3,0-0.6-0.1-0.9c-0.1-0.6-0.3-1.3-0.5-1.8c-0.3-0.5-0.6-0.9-0.9-1.1
																					C27,66.8,26.4,67,26.4,67c0,0.1,0.4,0.2,0.9,0.7c0.5,0.5,0.9,1.5,0.9,2.6c0,0.3,0,0.5,0,0.9s0,0.3-0.1,0.3
																					c0,0.1-0.2,0-0.1-0.1l0,0l-0.3-0.1c-0.1-0.1-0.3-0.2-0.3-0.2c-0.3-0.1-0.3-0.1-0.5-0.1c-0.3,0-0.4,0.1-0.4,0.1
																					s-0.2,0.1-0.4,0.3c-0.3,0.2-0.7,0.7-0.8,1.3c-0.2,0.6-0.1,1.4,0.3,2c0.2,0.3,0.3,0.5,0.7,0.7s0.4,0.3,0.6,0.3
																					c0.1,0.1,0.2,0.2,0.2,0.3c0,0.2-0.1,0.3-0.3,0.5C26.6,77,26.2,77,26,76.9C25.3,76.1,25.1,75.5,25,75.6z"/>
																			</g>
																		</g>
																		<g class="st28">
																			<path class="st29" d="M24,67.1c-0.4,0.4-0.9,0.6-1.2,0.3c-0.3-0.3,0-0.9,0.4-1.5c0.4-0.4,0.9-0.6,1.2-0.3
																				C24.7,66.1,24.5,66.7,24,67.1z"/>
																			<path class="st29" d="M25.8,64.9c0.1,0.3,0,0.4-0.3,0.6c-0.3,0.2-0.4,0.1-0.5-0.2c-0.1-0.3,0-0.4,0.3-0.6
																				C25.5,64.6,25.7,64.7,25.8,64.9z"/>
																		</g>
																	</g>
																</g>
															</g>
															<g>
																<path class="st22" d="M54,83.5c0.1,0,0.1,0.3,0.1,0.7s-0.3,0.7-0.3,0.7s-0.3,0.3-0.6,0.3c-0.3,0.1-0.7-0.2-0.7-0.3
																	s0.3,0,0.5-0.2c0.3-0.2,0.3-0.3,0.3-0.3s0.2-0.2,0.3-0.4C53.8,83.8,53.9,83.5,54,83.5z"/>
															</g>
															<g>
																<path class="st22" d="M66.9,84.3c0.1,0.1-0.3,0.3-0.7,0.2c-0.3-0.1-0.7-0.3-0.7-0.3s-0.3-0.3-0.3-0.7
																	c-0.1-0.3,0-0.7,0-0.7c0.1,0,0.2,0.3,0.3,0.6c0.2,0.3,0.3,0.4,0.3,0.4s0.2,0.3,0.3,0.3
																	C66.6,84.3,66.9,84.3,66.9,84.3z"/>
															</g>
															<g>
																<path class="st22" d="M65.9,83.9c0.1,0-0.2,0.2-0.6,0.5c-0.4,0.2-1.1,0.5-2,0.7c-0.8,0.2-1.6,0.3-2.2,0.3
																	c-0.6,0-1,0.1-1,0.1s-0.4,0-1,0c-0.7,0-1.5-0.1-2.3-0.2c-1.6-0.3-3-0.8-2.8-0.9c0.1,0,1.5,0.4,3.1,0.5
																	c0.8,0.1,1.5,0.1,2.1,0.1c0.6,0,0.9,0,0.9,0s0.3,0,0.9,0c0.6,0,1.4-0.1,2.1-0.2c0.8-0.1,1.5-0.3,2-0.5
																	C65.5,84,65.9,83.8,65.9,83.9z"/>
															</g>
															<g>
																<path class="st25" d="M56.2,76.4c0,0,2.9,0.8,6.7-2.1c0,0,2,1.1-1.5,2.6C57.1,78.8,56.2,76.4,56.2,76.4z"/>
																<g>
																	<path class="st22" d="M58.1,77.3c0-0.1,0.6,0.1,1.5,0c0.9-0.1,1.9-0.5,2.8-1c0.4-0.3,0.9-0.7,0.9-1
																		c0.1-0.3-0.2-0.7-0.4-0.9c-0.3-0.3-0.6-0.3-0.9-0.3C61.8,74,61.7,74,61.7,74s-0.3-0.1-0.9,0
																		c-0.3,0-0.6,0.1-0.9,0.2c-0.2,0.1-0.3,0.2-0.6,0.3c-0.3,0.2-0.9,0.5-1.2,0.9c0-0.4,0-1-0.1-1.5c0-0.3,0-0.6,0-0.9
																		c0-0.7,0-1.3,0-1.9c0-1.2,0.1-2.1,0.2-2.1s0.3,0.9,0.3,2.1c0.1,0.6,0.2,1.3,0.2,2c0,0.3,0.1,0.7,0.1,0.9
																		c0,0.1,0,0.2,0.1,0.2c0.1-0.1,0.1-0.1,0.2-0.1c0.3-0.2,0.4-0.3,0.7-0.3c0.4-0.2,0.9-0.3,1.1-0.3
																		c0.6-0.1,0.9,0,0.9,0s0.2,0,0.4,0.1c0.3,0.1,0.7,0.3,1.1,0.5c0.3,0.2,0.4,0.3,0.6,0.7c0.2,0.3,0.3,0.7,0.1,1
																		c-0.3,0.8-0.9,1.1-1.4,1.5c-1.1,0.5-2.2,0.9-3.2,0.9C58.7,77.7,58.1,77.4,58.1,77.3z"/>
																</g>
																
																	<ellipse transform="matrix(0.9136 -0.4066 0.4066 0.9136 -25.2413 30.9985)" class="st30" cx="60.3" cy="74.9" rx="0.9" ry="0.4"/>
															</g>
															<path class="st31" d="M51.4,76.4c0.1,2.1-2.6,3.9-5.8,4.1c-3.3,0.2-6.1-1.5-6.2-3.5c-0.1-2.1,2.6-3.9,5.8-4.1
																C48.5,72.6,51.4,74.2,51.4,76.4z M72.5,70.1c-3.2,0.8-5.4,3-5,5.1c0.4,2.1,3.4,3.2,6.7,2.4c3.2-0.8,5.4-3,5-5.1
																C78.7,70.5,75.7,69.4,72.5,70.1z"/>
														</g>
														<g>
															<g>
																<path class="st32" d="M44.7,59.4c-0.1,0.2-0.8,0.1-1.3,0.2c-0.6,0.1-1,0.3-1,0.3s-0.5,0.1-0.9,0.4
																	c-0.5,0.3-0.9,0.9-1,0.8c-0.3-0.1-0.2-0.9,0.3-1.5c0.3-0.3,0.5-0.6,0.8-0.8s0.4-0.3,0.4-0.3s0.3-0.1,0.5-0.1
																	c0.3-0.1,0.7,0,1,0.1C44.2,58.8,44.7,59.3,44.7,59.4z"/>
															</g>
														</g>
														<path class="st8" d="M77,53.6c0,0,1.7,5.7,2.6,10.6c-0.2-3.3-2.4-25.7-23.9-28C32.5,33.8,26,51.1,25.1,62.1
															c-1.7,0.1-3.4,1.3-4.5,3c3.2,2.2,6.4-0.6,6.4-0.6s-0.2,5.3,3.7,4.8c3.9-0.5,2.3-7.5,2.3-7.5s4.6,1.6,5.3-7.8
															c0,0,4.8,0.5,8.5-4.3c0,0,12.6,12.3,22.9,6.2C69.5,55.8,74.1,59,77,53.6z"/>
														<path class="st32" d="M26.8,63.2c0,0-0.2,5.3,3.7,4.8c3.9-0.5,2.3-7.5,2.3-7.5s4.6,1.6,5.3-7.8c0,0,4.8,0.5,8.5-4.3
															c0,0,12.6,12.3,22.9,6.2c0,0,4.6,3.2,7.5-2.3c0,0,3.2,11,3.2,15.5c0,0,3.4-1.4,3.9-3.9c0.5-2.5-1.6-3.9-1.6-3.9
															s1.1-3-0.5-6.2c0,0,4.1-6.6-1.1-13.5s-10.3-4.1-10.3-4.1s0-3.7-8.2-7.5s-19.7,0-22.9,6.2c0,0-12.1-6.9-13.3,5.3
															c0,0-13.3,2.5-5.3,13.7c0,0-5.5,4.3-1.8,8.7C22.7,66.9,26.8,63.2,26.8,63.2z"/>
														<path class="st27" d="M83.9,63.9c0.5-2.5-1.6-3.9-1.6-3.9s1.1-3-0.5-6.2c0,0,2.4-3.9,1.2-8.8
															c-0.6,1.2-1.3,2.4-1.8,2.5c-1.3,0.3-3.4-2.6-3.4-2.6s-1.3,6.1-3.4,2.8c-2.1-3.3-6.3-4.7-6.3-4.7s3.4,1.8,0.6,6.5
															c-2.8,4.7-14.9,0.7-19.6-3.8c-4.7-4.6-0.3-7.8-0.3-7.8s-2.1,0.9-4.8-1c-2.7-1.9,1-4.4,1-4.4s-2.1,1-3.3,0.1
															c-0.2-0.1-0.2-0.4,0-0.8c-0.9,0.9-1.7,1.8-2.2,2.8c0,0-1.5-0.9-3.6-1.4l-1.3,1.2c0,0,3.1,1,4.1,3.6
															c1,2.6-2.6,3.8-2.6,3.8s5.8-2,6,1.9c0.1,3.8-6,3.3-6,3.3s1,6.7-3.8,7.8c-4.8,1.1-5.8-6.4-5.8-6.4s-2.1,3.6-6,0.6
															c-1.8-1.4-1.8-3.2-1.3-4.8c-1.3,2.1-1.3,5.1,1.7,9.4c0,0-5.5,4.3-1.8,8.7c3.7,4.3,7.8,0.7,7.8,0.7s-0.2,5.3,3.7,4.8
															c3.9-0.5,2.3-7.5,2.3-7.5s4.6,1.6,5.3-7.8c0,0,4.8,0.5,8.5-4.3c0,0,12.6,12.3,22.9,6.2c0,0,4.6,3.2,7.5-2.3
															c0,0,3.2,11,3.2,15.5C80,67.8,83.5,66.4,83.9,63.9z"/>
														<g>
															<g>
																<path class="st33" d="M68.1,43.2c0.1-0.1,1.6,1.3,2.6,3.1c0.5,0.9,0.9,1.9,1,2.7c0.1,0.8,0.1,1.3,0.1,1.3
																	s0,0.5-0.2,1.3c-0.2,0.8-0.7,1.8-1.5,2.5c-0.8,0.7-1.8,1.1-2.6,1.2c-0.8,0.1-1.3-0.2-1.3-0.2c0-0.1,0.5,0,1.2-0.1
																	c0.7-0.1,1.6-0.6,2.3-1.3c0.7-0.7,1-1.6,1.1-2.3c0.1-0.7,0.1-1.2,0.1-1.2s0-0.5-0.1-1.2c-0.1-0.7-0.4-1.6-0.8-2.5
																	C69.3,44.8,68,43.3,68.1,43.2z"/>
															</g>
															<g>
																<path class="st33" d="M74.2,39.4c0,0,0.7,0.2,1.4,1c0.7,0.8,1.3,2.1,2,3.3c0.6,1.2,1.1,2.6,1.3,3.7
																	c0.2,1.1,0.1,1.8,0.1,1.8s0,0.8-0.5,1.8c-0.4,1-1.4,2.2-2.6,3c-1.2,0.8-2.5,1.4-3.6,1.4c-1.1,0.1-1.7-0.3-1.7-0.4
																	c0-0.1,0.7,0.2,1.7,0.1c1-0.1,2.2-0.7,3.3-1.6c1.1-0.8,1.9-1.9,2.2-2.8c0.4-0.9,0.4-1.6,0.4-1.6s0.1-0.6,0-1.6
																	c-0.1-1-0.5-2.3-1.1-3.5c-0.6-1.2-1.2-2.5-1.7-3.3C74.8,39.8,74.1,39.4,74.2,39.4z"/>
															</g>
															<g>
																<path class="st33" d="M82.7,50.6c0.1,0-0.1,0.9-0.8,1.6c-0.6,0.7-1.4,1.1-1.4,1.1s-0.9,0.3-1.8,0.3
																	c-0.9,0-1.7-0.5-1.7-0.6c0-0.1,0.9,0.1,1.6,0c0.8-0.1,1.5-0.5,1.5-0.5s0.7-0.3,1.4-0.8
																	C82.2,51.3,82.6,50.6,82.7,50.6z"/>
															</g>
															<g>
																<path class="st33" d="M82.4,59c0.1,0.1-0.1,0.6-0.5,1.1c-0.2,0.2-0.4,0.5-0.7,0.6c-0.2,0.1-0.4,0.2-0.4,0.2
																	c0,0-0.8,0.1-1.3-0.4c-0.3-0.2-0.4-0.6-0.4-0.8c0-0.3,0.1-0.4,0.1-0.4c0.1,0,0.1,0.5,0.6,0.7
																	c0.2,0.1,0.4,0.1,0.6,0.1c0.2,0,0.2,0,0.2,0s0.4,0,0.9-0.4C81.9,59.4,82.3,59,82.4,59z"/>
															</g>
															<g>
																<path class="st33" d="M44.8,42.2c0.1,0.1-0.4,0.8-0.3,1.7c0.1,0.8,0.5,1.6,0.5,1.6s0.3,0.8,0.9,1.5
																	c0.5,0.7,1.1,1.4,1,1.5c-0.1,0.1-0.8-0.5-1.5-1.1c-0.7-0.6-1.1-1.5-1.1-1.5s-0.4-0.9-0.3-1.9
																	C44,42.9,44.7,42.1,44.8,42.2z"/>
															</g>
															<g>
																<path class="st33" d="M63.7,32.7c0,0.1-0.8-0.3-2-0.6c-1.2-0.3-2.9-0.4-4.5-0.1c-1.6,0.3-3.1,1-4.1,1.7
																	c-0.1,0.1-0.2,0.2-0.3,0.3c-0.2,0.2-0.4,0.3-0.6,0.5c-0.1,0.1-0.2,0.2-0.3,0.2c-0.1,0.1-0.1-0.2-0.1-0.2
																	c-0.1-0.2-0.1-0.4-0.2-0.6c-0.2-0.5-0.3-0.5-0.3-0.5c0,0-0.1-0.2-0.3-0.4c-0.2-0.2-0.6-0.5-1.1-0.7
																	c-1.1-0.5-2.7-0.5-4.2,0.1c-1.5,0.6-2.8,1.7-3.4,2.7c-0.7,1-0.9,1.8-1,1.8c0,0,0-0.2,0.1-0.6
																	c0.1-0.3,0.3-0.9,0.6-1.4c0.6-1.1,1.9-2.4,3.5-3.1c1.6-0.7,3.5-0.8,4.7-0.3c0.6,0.2,1.1,0.6,1.4,0.8
																	c0.3,0.3,0.4,0.5,0.4,0.5c0,0,0.2,0.3,0.3,0.5c0,0,0,0,0,0c0,0,0,0,0.1,0c0.1-0.1,0.2-0.2,0.4-0.3
																	c1.1-0.7,2.7-1.4,4.4-1.7c1.7-0.3,3.4,0,4.6,0.4c0.6,0.2,1.1,0.4,1.4,0.6C63.5,32.5,63.7,32.6,63.7,32.7z"/>
															</g>
															<g>
																<path class="st33" d="M24.5,47.1c0,0-0.5-0.1-0.8-0.7c-0.3-0.6-0.2-1.6,0.3-2.4c0.6-0.8,1.3-1.4,2-2
																	c0.4-0.3,0.8-0.5,1.1-0.6c0.2,0,0.4-0.1,0.5-0.1c0.2,0,0.1,0,0.1,0c0,0,0,0,0,0c0,0,0,0,0,0c0,0,0,0,0-0.1
																	c0-0.1-0.1-0.2-0.1-0.3c0-0.2,0-0.3,0-0.4c0-0.2,0-0.2,0-0.2s0-0.8,0.6-1.7c0.5-0.9,1.7-2,3-2.3
																	c1.4-0.4,2.8-0.1,3.8,0.4c0.9,0.5,1.4,1,1.3,1.1c0,0.1-0.5-0.4-1.5-0.8c-0.9-0.4-2.3-0.5-3.4-0.1
																	c-1.2,0.4-2.2,1.4-2.6,2.2c-0.5,0.8-0.4,1.4-0.4,1.4s0,0,0,0.2c0,0.1,0,0.2,0,0.3c0,0.1,0,0.1,0,0.2
																	c0,0,0.1,0.2,0.1,0.3l0.1,0.2l0.2,0.2c-0.1,0.1-0.2,0.3-0.2,0.3c0,0,0,0,0,0c0,0,0,0-0.3,0.3
																	c-0.3-0.2-0.7-0.2-0.7-0.2c-0.1,0-0.3,0-0.4,0c-0.3,0.1-0.6,0.2-0.9,0.4c-0.6,0.5-1.4,1.1-2,1.7
																	c-0.6,0.7-0.7,1.5-0.5,2.1C24.1,46.9,24.5,47,24.5,47.1z"/>
															</g>
															<g>
																<path class="st33" d="M41.9,45.8c0,0,0,0.2-0.2,0.5c-0.2,0.3-0.4,0.8-0.9,1.2c-0.4,0.5-1,0.9-1.7,1.3
																	c-0.4,0.2-0.7,0.4-1.1,0.5c-0.3,0.1-0.2,0.1-0.1,0.6c0.2,1.6,0.4,3.3,0.2,4.6c-0.2,1.3-0.5,2.1-0.5,2.1
																	s-0.1,0.2-0.3,0.5c-0.2,0.3-0.4,0.8-0.9,1.3c-0.8,1-2.5,2-4.2,1.9c-1.8,0-3.3-1.3-3.8-2.4c-0.3-0.6-0.4-1.1-0.4-1.5
																	c0-0.4,0-0.6,0-0.6c0.1,0,0,0.9,0.7,1.9c0.6,1,2,2.1,3.5,2c1.6,0,3-0.8,3.7-1.8c0.4-0.4,0.6-0.9,0.7-1.2
																	c0.1-0.3,0.2-0.5,0.2-0.5s0.3-0.7,0.5-1.9c0.2-1.2,0.2-2.8,0-4.4l-0.1-0.7l0-0.3c0.1,0,0.2,0,0.2-0.1l0.4-0.1
																	c0.4-0.1,0.7-0.2,1.1-0.4c0.7-0.3,1.2-0.7,1.7-1.1C41.5,46.6,41.9,45.8,41.9,45.8z"/>
															</g>
															<g>
																<path class="st33" d="M25.6,63.3c0,0-0.2,0.4-0.8,0.6c-0.6,0.2-1.5,0-2.2-0.5c-0.7-0.5-1.1-1.3-1.2-1.9
																	c-0.2-0.6-0.2-1-0.2-1s-0.1-1.6,0.3-3.1c0.2-0.8,0.6-1.5,1-1.9c0.4-0.4,0.8-0.6,0.8-0.5c0,0.1-0.3,0.3-0.6,0.7
																	c-0.3,0.4-0.6,1.1-0.7,1.8c-0.2,1.5,0,2.9,0,2.9s0,0.4,0.1,0.9c0.1,0.5,0.4,1.2,0.9,1.7c0.5,0.5,1.2,0.7,1.7,0.6
																	C25.3,63.5,25.6,63.2,25.6,63.3z"/>
															</g>
															<g>
																<path class="st33" d="M33.9,47.5c0,0-0.3-0.2-0.5-0.6c-0.2-0.4-0.3-1.1-0.3-1.7c0.1-0.6,0.3-1.3,0.5-1.7
																	c0.2-0.4,0.5-0.7,0.5-0.7s0.2-0.2,0.6-0.5c0.4-0.3,1-0.6,1.6-0.7c1.2-0.4,2.4-0.3,2.4-0.2c0,0.1-1.2,0.2-2.3,0.7
																	c-1.1,0.4-1.8,1.3-1.8,1.3s-0.2,0.2-0.4,0.5c-0.2,0.3-0.5,0.8-0.6,1.4C33.3,46.3,33.9,47.4,33.9,47.5z"/>
															</g>
															<g>
																<path class="st33" d="M63.8,38.5c0,0.1-1.9,0.4-3.5,1.1c-0.8,0.4-1.5,0.9-1.9,1.5c-0.1,0.1-0.2,0.3-0.3,0.4
																	c0,0-0.1,0.2-0.1,0.1l-0.2-0.1c-0.2-0.2-0.4-0.3-0.5-0.5c-0.2-0.1-0.2-0.2-0.2-0.2s-0.3-0.3-0.9-0.7
																	c-0.5-0.4-1.3-0.8-2.2-0.9c-0.9-0.1-1.7,0.1-2.3,0.5c-0.5,0.4-0.7,0.8-0.8,0.8c0,0,0-0.5,0.6-1
																	c0.5-0.5,1.5-0.9,2.5-0.9c1,0,1.9,0.5,2.5,0.9c0.6,0.4,1,0.7,1,0.7s0.1,0.1,0.2,0.2c0.1,0.1,0,0.1,0.1,0.1
																	c0.4-0.5,1.3-1.2,2.2-1.5C61.9,38.4,63.8,38.4,63.8,38.5z"/>
															</g>
														</g>
														<g>
															<g>
																<path class="st34" d="M22.6,42.6c0.1,0.1-0.4,0.8-0.8,1.5c-0.4,0.7-0.6,1.4-0.6,1.4s-0.4,0.7-0.6,1.5
																	c-0.3,0.8-0.4,1.6-0.5,1.6c-0.1,0-0.3-0.8-0.2-1.7c0.1-0.9,0.4-1.7,0.4-1.7s0.4-0.8,1-1.5
																	C21.8,43,22.6,42.5,22.6,42.6z"/>
															</g>
															<g>
																<path class="st34" d="M35.7,52.8c0.1,0,0.1,1.1-0.2,2.2c-0.1,0.6-0.4,1.1-0.7,1.5c-0.3,0.4-0.5,0.6-0.5,0.6
																	s-0.2,0.2-0.7,0.4c-0.4,0.2-1.1,0.3-1.8,0c-0.6-0.2-1.1-0.7-1.2-1.2c-0.2-0.4-0.1-0.8,0-0.7c0.1,0,0.1,0.3,0.4,0.5
																	c0.2,0.3,0.6,0.6,1.1,0.6c0.4,0.1,0.8-0.1,1.1-0.2c0.3-0.2,0.4-0.3,0.4-0.3s0.8-0.5,1.2-1.5
																	C35.3,53.9,35.5,52.8,35.7,52.8z"/>
															</g>
															<g>
																<path class="st34" d="M40.7,45.6c0.1,0.1-0.3,0.6-0.8,1c-0.5,0.4-1.1,0.7-1.1,0.7s-0.6,0.2-1.2,0.3
																	c-0.6,0.1-1.3,0.1-1.3-0.1c0-0.1,0.5-0.4,1.1-0.6c0.5-0.3,1-0.5,1-0.5s0.6-0.2,1.1-0.4
																	C40.1,45.7,40.6,45.4,40.7,45.6z"/>
															</g>
															<g>
																<path class="st34" d="M67.3,51.3c0,0.1-2.8,0.8-5.7,0.3c-2.9-0.4-5.5-1.7-5.5-1.7s-2.6-1.3-4.8-3.1
																	c-1.1-0.9-2.2-1.9-2.8-2.8c-0.6-0.9-0.6-1.7-0.6-1.7c0.1,0,0.3,0.7,0.9,1.5c0.6,0.8,1.8,1.6,2.9,2.4
																	c2.3,1.7,4.8,2.8,4.8,2.8s2.4,1.3,5.2,1.9C64.4,51.5,67.3,51.2,67.3,51.3z"/>
															</g>
															<g>
																<path class="st34" d="M69.6,47.9c-0.1,0-0.4-0.4-0.7-0.7c-0.3-0.4-0.6-0.7-0.6-0.7s-0.2-0.4-0.5-0.8
																	c-0.2-0.4-0.6-0.8-0.5-0.9c0.1-0.1,0.6,0.1,1,0.4c0.4,0.3,0.8,0.7,0.8,0.7s0.3,0.5,0.4,1
																	C69.7,47.3,69.7,47.9,69.6,47.9z"/>
															</g>
															<g>
																<path class="st34" d="M75.1,50.4c-0.1,0,0.2-1.4-0.1-2.7c-0.2-1.3-0.7-2.5-0.7-2.5s-0.4-1.2-1.1-2.4
																	c-0.6-1.2-1.4-2.3-1.3-2.4c0.1-0.1,1.1,0.9,1.9,2c0.9,1.1,1.4,2.4,1.4,2.4s0.5,1.4,0.5,2.8
																	C75.9,49.1,75.2,50.4,75.1,50.4z"/>
															</g>
															<g>
																<path class="st34" d="M79.9,49c-0.1-0.1,0.2-1.2,0.2-2.4c0-1.2-0.4-2.2-0.4-2.2s-0.2-1.1-0.8-2.1
																	c-0.5-1-1.4-1.8-1.3-1.9c0.1-0.1,1.2,0.5,2,1.5c0.8,1,1.2,2.3,1.2,2.3s0.3,1.3,0.1,2.5C80.7,48,80.1,49.1,79.9,49z"
																	/>
															</g>
															<g>
																<path class="st34" d="M63.3,32.2c-0.1,0.1-1.6-0.7-3.3-1.3c-1.6-0.6-3.3-0.9-3.3-0.9s-1.6-0.4-3.3-0.3
																	c-1.7,0.1-3.3,0.9-3.3,0.8c-0.1-0.1,1.4-1.2,3.2-1.5C55.1,28.7,57,29,57,29s1.8,0.4,3.4,1.2
																	C61.9,31,63.4,32,63.3,32.2z"/>
															</g>
															<g>
																<path class="st34" d="M31.6,64c0.2,0,0.2,0.9-0.5,1.5c-0.7,0.7-1.8,0.5-1.7,0.5c0,0-0.2-0.1-0.5-0.2
																	c-0.3-0.2-0.7-0.6-0.8-1c-0.3-0.8-0.2-1.6-0.1-1.6c0.2,0,0.4,0.7,0.7,1.2C29,65,29.5,65,29.5,65s0.5,0.2,1.1-0.1
																	C31.2,64.7,31.5,64,31.6,64z"/>
															</g>
															<g>
																<path class="st34" d="M80,59.1c-0.1-0.1,0.3-0.6,0.4-1.2c0.1-0.6,0-1.1,0-1.1s0-0.6,0-1.2c-0.1-0.6-0.2-1.3,0-1.3
																	c0.1,0,0.5,0.5,0.8,1.1c0.3,0.6,0.4,1.4,0.4,1.4s0,0.8-0.4,1.4C80.7,58.9,80,59.3,80,59.1z"/>
															</g>
														</g>
													</g>
													<g>
														<path class="st26" d="M69,68.9c0,2.1,0.9,3.8,2.1,3.8c1.2,0,2.1-1.7,2.2-3.8c0-2.1-0.9-3.8-2.1-3.8
															C70,65.2,69,66.9,69,68.9z"/>
														<path class="st35" d="M70.2,65.6c-0.2,0.5-0.3,1-0.3,1.7c0,2.1,0.9,3.8,2.1,3.8c0.3,0,0.7-0.2,1-0.4
															c-0.3,1.3-1.1,2.1-2,2.1c-1.2,0-2.1-1.7-2.1-3.8C69,67.5,69.5,66.2,70.2,65.6z"/>
														<g class="st36">
															<path class="st0" d="M72.8,68.3c0.1,0.8-0.3,1.4-0.6,1.4s-0.7-0.5-0.8-1.3C71.4,67.6,71.7,67,72,67
																C72.4,67,72.7,67.6,72.8,68.3z"/>
															
																<ellipse transform="matrix(3.656011e-03 -1 1 3.656011e-03 4.9527 137.7546)" class="st0" cx="71.6" cy="66.4" rx="0.3" ry="0.3"/>
														</g>
													</g>
													<g>
														<path class="st37" d="M46.5,71.5c0,0-1.2-0.3-1,1.2c0.3,1.1,2.5,3.1,5.7,2.3c3-0.8,3.1-2.6,1.8-3
															C51.6,71.5,46.5,71.5,46.5,71.5z"/>
														
															<ellipse transform="matrix(0.9925 -0.1224 0.1224 0.9925 -8.0211 6.5899)" class="st0" cx="49.6" cy="68.6" rx="4.6" ry="4.9"/>
														<path class="st38" d="M49.1,64.2c1.6-0.2,3.3,0.7,4,2.1c-0.7-1.1-1.9-1.3-3.5-1.2c-2.1,0.3-4,1.3-3.7,3.6
															c0.3,2.2,2.2,3.8,4.3,3.6c2.1-0.3,3.6-2.3,3.4-4.5c-0.1-0.6-0.2-1-0.4-1.3l0,0c0.3,0.5,0.5,1.2,0.6,1.7
															c0.3,2.4-1.3,4.6-3.7,4.9c-2.3,0.3-4.4-1.4-4.7-3.9C45.2,66.7,46.8,64.4,49.1,64.2z"/>
														<path class="st39" d="M51.3,68.6c0.2,1.4-0.8,2.8-2.1,2.9c-1.3,0.2-2.6-0.9-2.8-2.3c-0.2-1.4,0.8-2.8,2.1-3
															C49.8,66.1,51.1,67.1,51.3,68.6z"/>
														<path class="st40" d="M50.2,68.7c0.1,0.9-0.5,1.5-1.2,1.6c-0.8,0.1-1.5-0.5-1.6-1.3c-0.1-0.9,0.5-1.5,1.2-1.6
															C49.4,67.2,50.1,67.8,50.2,68.7z"/>
														<path class="st0" d="M50.5,67.4c0.1,0.4-0.2,0.8-0.7,0.9C49.4,68.4,49,68,49,67.6c-0.1-0.4,0.2-0.8,0.7-0.9
															C50,66.7,50.4,66.9,50.5,67.4z"/>
														<path class="st0" d="M48,70.3c0,0.2-0.1,0.4-0.3,0.5c-0.2,0-0.4-0.1-0.4-0.4c0-0.2,0.1-0.4,0.3-0.5
															C47.8,70,48,70.1,48,70.3z"/>
														<path class="st37" d="M44.9,66.9c0,0,0.1-3.1,2.4-4c2.3-1,5.6,1.6,5.6,1.6S48.3,63.3,44.9,66.9z"/>
														<path class="st41" d="M52.8,64.5c0,0-0.1,0-0.4,0c-0.2,0-0.6,0-1,0c-0.2,0-0.4,0-0.7,0c-0.2,0-0.5,0-0.7,0.1
															c-0.3,0-0.5,0.1-0.8,0.1c-0.1,0-0.3,0.1-0.4,0.1c-0.1,0-0.3,0.1-0.4,0.1c-0.1,0-0.3,0.1-0.4,0.1s-0.3,0.1-0.4,0.1
															c-0.3,0.1-0.5,0.2-0.7,0.3c-0.1,0-0.1,0.1-0.2,0.1c-0.1,0-0.1,0.1-0.2,0.1c-0.1,0.1-0.2,0.1-0.3,0.2
															c-0.2,0.1-0.4,0.2-0.6,0.4c-0.2,0.1-0.3,0.2-0.5,0.3c-0.1,0.1-0.3,0.2-0.3,0.3c-0.2,0.2-0.3,0.2-0.3,0.2
															s0.1-0.1,0.2-0.3c0.1-0.1,0.2-0.2,0.3-0.3c0.1-0.1,0.3-0.3,0.4-0.4c0.1-0.1,0.2-0.1,0.3-0.2c0.1-0.1,0.2-0.1,0.3-0.2
															c0.2-0.1,0.4-0.3,0.7-0.4c0.2-0.1,0.5-0.3,0.7-0.4c0.1-0.1,0.3-0.1,0.4-0.2c0.1-0.1,0.3-0.1,0.4-0.1
															c0.1,0,0.3-0.1,0.4-0.1c0.1,0,0.3-0.1,0.4-0.1h0.2c0.1,0,0.1,0,0.2,0c0.1,0,0.3,0,0.4,0c0.3,0,0.5,0,0.8,0
															c0.1,0,0.2,0,0.4,0c0.1,0,0.2,0,0.3,0c0.2,0,0.4,0.1,0.6,0.1s0.3,0.1,0.4,0.1C52.6,64.4,52.7,64.5,52.8,64.5
															L52.8,64.5z"/>
													</g>
													<g>
														<path class="st37" d="M67.4,70.8c0,0-1.2-0.5-1.1,0.9c0.1,1.1,1.7,3.4,4.9,3.3c2.9-0.2,3.5-1.8,2.3-2.5
															C72.3,71.8,67.4,70.8,67.4,70.8z"/>
														
															<ellipse transform="matrix(8.303016e-02 -0.9965 0.9965 8.303016e-02 -3.36 133.8111)" class="st0" cx="71" cy="68.7" rx="4.7" ry="4.4"/>
														<path class="st38" d="M71.3,64.4c1.6,0.1,3,1.2,3.6,2.8c-0.4-1.2-1.5-1.6-3.1-1.8c-2.1-0.2-4.1,0.5-4.3,2.7
															c-0.2,2.2,1.3,4.1,3.5,4.3c2.1,0.2,3.9-1.4,4.1-3.7c0-0.6,0-1-0.1-1.3c0.2,0.6,0.3,1.2,0.2,1.7
															c-0.2,2.4-2.2,4.2-4.5,4c-2.3-0.2-3.9-2.3-3.7-4.7C67,66,69,64.2,71.3,64.4z"/>
														<path class="st39" d="M72.1,69.4c-0.1,1.4-1.2,2.4-2.6,2.3s-2.3-1.3-2.2-2.7c0.1-1.4,1.2-2.4,2.6-2.3
															C71.3,66.9,72.3,68.1,72.1,69.4z"/>
														
															<ellipse transform="matrix(8.328789e-02 -0.9965 0.9965 8.328789e-02 -4.9697 132.9638)" class="st40" cx="69.8" cy="69.2" rx="1.5" ry="1.4"/>
														<path class="st0" d="M71.6,68.3c0,0.4-0.4,0.7-0.8,0.7s-0.7-0.4-0.7-0.8s0.4-0.8,0.8-0.7
															C71.3,67.4,71.6,67.8,71.6,68.3z"/>
														
															<ellipse transform="matrix(8.170536e-02 -0.9967 0.9967 8.170536e-02 -7.5381 132.9443)" class="st0" cx="68.4" cy="70.6" rx="0.4" ry="0.4"/>
														<path class="st37" d="M66.8,66.3c0,0,0.7-2.9,3-3.3c2.4-0.5,4.9,2.6,4.9,2.6S70.7,63.5,66.8,66.3z"/>
														<path class="st41" d="M74.7,65.6c0,0-0.1,0-0.4-0.1c-0.2-0.1-0.6-0.1-0.9-0.2c-0.2,0-0.4-0.1-0.6-0.1
															c-0.2,0-0.5-0.1-0.7-0.1c-0.2,0-0.5,0-0.8,0c-0.1,0-0.3,0-0.4,0c-0.1,0-0.3,0-0.4,0c-0.1,0-0.3,0-0.4,0
															c-0.1,0-0.3,0-0.4,0.1c-0.3,0-0.5,0.1-0.7,0.1c-0.1,0-0.1,0-0.2,0c-0.1,0-0.1,0-0.2,0.1c-0.1,0-0.2,0.1-0.3,0.1
															c-0.2,0.1-0.4,0.1-0.6,0.2c-0.2,0.1-0.4,0.1-0.5,0.2c-0.1,0.1-0.3,0.1-0.4,0.2c-0.2,0.1-0.3,0.2-0.3,0.2
															s0.1-0.1,0.3-0.2c0.1-0.1,0.2-0.2,0.3-0.3c0.1-0.1,0.3-0.2,0.5-0.3c0.1-0.1,0.2-0.1,0.3-0.2c0.1-0.1,0.2-0.1,0.3-0.1
															c0.2-0.1,0.4-0.2,0.7-0.3c0.2-0.1,0.5-0.2,0.8-0.2c0.1,0,0.3,0,0.4-0.1c0.1,0,0.3,0,0.4,0c0.1,0,0.3,0,0.4,0
															c0.1,0,0.3,0,0.4,0h0.2c0.1,0,0.1,0,0.2,0c0.1,0,0.3,0,0.4,0c0.3,0,0.5,0.1,0.7,0.1c0.1,0,0.2,0.1,0.3,0.1
															s0.2,0.1,0.3,0.1c0.2,0.1,0.4,0.1,0.5,0.2c0.1,0.1,0.3,0.1,0.4,0.2C74.5,65.4,74.6,65.5,74.7,65.6L74.7,65.6z"/>
													</g>
													
														<linearGradient id="SVGID_5_" gradientUnits="userSpaceOnUse" x1="129.597" y1="-289.2403" x2="148.2815" y2="-303.8628" gradientTransform="matrix(0.9992 -3.990000e-02 3.990000e-02 0.9992 -73.0922 364.1722)">
														<stop  offset="0" style="stop-color:#FFFFFF"/>
														<stop  offset="0.1078" style="stop-color:#FFFFFF"/>
														<stop  offset="1" style="stop-color:#FFFFFF"/>
													</linearGradient>
													<polygon class="st42" points="51.9,62.2 42.2,70 42.3,71.8 55,63.6 													"/>
													
														<linearGradient id="SVGID_6_" gradientUnits="userSpaceOnUse" x1="131.0849" y1="-287.3392" x2="149.7676" y2="-301.9604" gradientTransform="matrix(0.9992 -3.990000e-02 3.990000e-02 0.9992 -73.0922 364.1722)">
														<stop  offset="0" style="stop-color:#FFFFFF"/>
														<stop  offset="0.1078" style="stop-color:#FFFFFF"/>
														<stop  offset="1" style="stop-color:#FFFFFF"/>
													</linearGradient>
													<polygon class="st43" points="55.7,64.2 43.4,72.8 43.7,73.7 56.4,64.9 													"/>
													
														<linearGradient id="SVGID_7_" gradientUnits="userSpaceOnUse" x1="134.8855" y1="-282.4821" x2="153.5648" y2="-297.1008" gradientTransform="matrix(0.9992 -3.990000e-02 3.990000e-02 0.9992 -73.0922 364.1722)">
														<stop  offset="0" style="stop-color:#FFFFFF"/>
														<stop  offset="0.1078" style="stop-color:#FFFFFF"/>
														<stop  offset="1" style="stop-color:#FFFFFF"/>
													</linearGradient>
													<polygon class="st44" points="57.2,69.3 48.7,77.2 51.3,77.3 57.5,70.1 													"/>
													<path class="st45" d="M49.7,61.7c-4.3,0.2-7.8,3.8-7.6,8.3c0.2,4.3,3.8,7.8,8.3,7.6c4.3-0.2,7.8-3.8,7.6-8.3
														C57.7,64.8,54,61.5,49.7,61.7z M50.3,76.7c-4,0.2-7.3-3-7.5-6.9c-0.2-4,3-7.3,6.9-7.5c4-0.2,7.3,3,7.5,6.9
														C57.4,73.3,54.2,76.7,50.3,76.7z"/>
													
														<linearGradient id="SVGID_8_" gradientUnits="userSpaceOnUse" x1="147.4961" y1="-285.5012" x2="169.314" y2="-304.418" gradientTransform="matrix(0.9992 -3.990000e-02 3.990000e-02 0.9992 -73.0922 364.1722)">
														<stop  offset="0" style="stop-color:#FFFFFF"/>
														<stop  offset="0.1078" style="stop-color:#FFFFFF"/>
														<stop  offset="1" style="stop-color:#FFFFFF"/>
													</linearGradient>
													<polygon class="st46" points="73.7,61.4 64,69.2 64,70.9 76.8,62.7 													"/>
													
														<linearGradient id="SVGID_9_" gradientUnits="userSpaceOnUse" x1="149.0632" y1="-283.6918" x2="170.8884" y2="-302.6152" gradientTransform="matrix(0.9992 -3.990000e-02 3.990000e-02 0.9992 -73.0922 364.1722)">
														<stop  offset="0" style="stop-color:#FFFFFF"/>
														<stop  offset="0.1078" style="stop-color:#FFFFFF"/>
														<stop  offset="1" style="stop-color:#FFFFFF"/>
													</linearGradient>
													<polygon class="st47" points="77.5,63.3 65.2,71.9 65.5,72.8 78.3,64.1 													"/>
													
														<linearGradient id="SVGID_10_" gradientUnits="userSpaceOnUse" x1="153.0775" y1="-279.0632" x2="174.8985" y2="-297.9828" gradientTransform="matrix(0.9992 -3.990000e-02 3.990000e-02 0.9992 -73.0922 364.1722)">
														<stop  offset="0" style="stop-color:#FFFFFF"/>
														<stop  offset="1" style="stop-color:#FFFFFF"/>
													</linearGradient>
													<polygon class="st48" points="79,68.4 70.5,76.4 73,76.5 79.3,69.3 													"/>
													<path class="st45" d="M71.5,60.8c-4.3,0.2-7.8,3.8-7.6,8.3c0.2,4.3,3.8,7.8,8.3,7.6c4.3-0.2,7.8-3.8,7.6-8.3
														C79.5,64,75.9,60.6,71.5,60.8z M72.1,75.9c-4,0.2-7.4-3-7.5-6.9c-0.2-3.9,3-7.3,6.9-7.5c3.9-0.2,7.4,3,7.5,6.9
														C79.2,72.3,76,75.7,72.1,75.9z"/>
													<polygon class="st45" points="64.5,69.2 58.3,69.3 58.3,68.7 64.4,68.4 													"/>
													<polygon class="st45" points="30.4,67.7 42.6,68.3 42.5,69.2 30.5,68.5 													"/>
												</g>
											</g>
										</g>
									</g>
								</g>
								<g class="st5">
									<path class="st6" d="M28.4,223.9c0.1,0.7-1.9,10.1,1.3,10.5c3.1,0.4,2.4-5.2,3.8-5.6c1.4-0.5,3.7,15.6,6.2,15.8
										c2.4,0.2,4.5-8.4,5-10.3c0,0,1,2.6,1.9,2.1c1-0.5-2.7-12.4-5.2-17C38.9,214.8,27.9,221.1,28.4,223.9z"/>
									<path class="st7" d="M40.3,231c0.1,0,0.4,1.7,0.6,3.5c0.2,1.7,0.4,3.5,0.4,3.5s0,0.4,0,1.1c0,0.7,0.1,1.5,0,2.4
										c0,0.9-0.2,1.8-0.6,2.4c-0.3,0.6-0.8,0.8-0.8,0.8c0,0,0.4-0.3,0.6-0.9c0.3-0.6,0.4-1.4,0.4-2.3c0-0.9-0.1-1.7-0.1-2.4
										c-0.1-0.7-0.1-1.1-0.1-1.1s-0.1-1.8-0.2-3.5C40.4,232.8,40.2,231,40.3,231z M42.8,234.1c0,1.6-0.1,3.2-0.1,3.2s0,0.4,0,1
										c0,0.6-0.1,1.4-0.3,2.2c-0.2,0.8-0.4,1.5-0.7,2.1c-0.3,0.5-0.5,0.9-0.5,0.9c0,0,0.3-0.3,0.7-0.8c0.3-0.5,0.7-1.3,0.9-2.1
										c0.2-0.8,0.3-1.6,0.4-2.2c0.1-0.6,0.1-1,0.1-1s0.1-1.6,0-3.3c-0.1-1.6-0.3-3.2-0.4-3.2C42.7,230.9,42.8,232.5,42.8,234.1z
										 M43.8,230.4c0.2,0.8,0.3,1.7,0.3,1.7s0.1,0.8,0.2,1.7c0.1,0.8,0,1.7,0.1,1.7c0.1,0,0.3-0.8,0.3-1.7c0.1-0.9,0-1.7,0-1.7
										s-0.1-0.9-0.4-1.7c-0.3-0.8-0.7-1.6-0.7-1.6C43.4,228.7,43.7,229.5,43.8,230.4z"/>
									<path class="st8" d="M46.6,236.4c0.2-0.1,0.2-0.6,0.1-1.3c-1.2-0.7-2.4-4.7-2.5-4.8c-0.1-0.1-0.3,8.6-2.7,10.1
										c-2.4,1.5-4.1-7-5.6-9.6c-1.5-2.6-2.4-2-2.4-2c1.4-0.5,3.7,15.6,6.2,15.8c2.4,0.2,4.5-8.4,5-10.3
										C44.6,234.3,45.6,236.9,46.6,236.4z"/>
									<path class="st8" d="M29.7,234.4c1.7,0.2,2.2-1.2,2.6-2.8c-0.4,0.5-0.9,1-1.5,1.1c-2,0.4-3.2-8.8,1.4-7.7
										c3.4,0.8,8-2,10.2-3.5c-0.3-0.8-0.7-1.5-1-2.2c-2.4-4.7-13.5,1.7-13,4.5C28.5,224.6,26.5,234,29.7,234.4z"/>
									<path class="st0" d="M27.6,219.3l0.5,3.6c0,0,6.8,3.8,14.9-2.9l-1.5-3.8L27.6,219.3z"/>
									<path class="st9" d="M40.9,221.6c-7.3,2-12.6-0.3-8.7-0.6c4.2-0.3,8.6-2.8,9.8-3.4l-0.5-1.3l-13.8,3.1l0.5,3.6
										C28.1,223,33.8,226.1,40.9,221.6z"/>
									<path class="st10" d="M22.4,104.7c1.4-0.8,8.8,47,11,60.1c2.2,13.1,16.6,51.5,16.6,51.5s-16.5,5.5-24.3,2.2
										c0,0-8.5-48.9-9.1-57.1C16.1,153.2,10.4,111.4,22.4,104.7z"/>
									<path class="st11" d="M22.4,105.6c-0.5,2.3-1.3,5.1-3.3,8.5c-2.7,4.9-3.9,18.6-4.4,30.8c0.5,7.5,1.2,13.8,1.4,16.5
										c0.6,8.2,9.1,57.1,9.1,57.1c7.8,3.3,17.9-2.7,17.9-2.7s-1.9-7.4-4.3-16.8c-0.4,5.3-1.7,13.5-6,13.6c-0.4,0-0.8-0.1-1.2-0.3
										c-2.1-1.1-3.2-4.2-4-6.2c-1.3-3.4-2.1-7-2.6-10.6c-0.3-2.1-1-4.2-1.2-6.3c-1.4-10.9-2.2-22-2.2-33.1
										c0-12.2,1.2-24.5,3.1-36.5C23.8,112.8,23,107.6,22.4,105.6z"/>
									<path class="st12" d="M30.4,175.1c-0.1,0,0-1.7-0.1-3.4c0-1.7-0.1-3.4-0.1-3.4s0-1.7-0.1-3.4c-0.1-1.7-0.2-3.4-0.1-3.4
										c0.1,0,0.3,1.7,0.5,3.4c0.2,1.7,0.2,3.4,0.2,3.4s0,1.7-0.1,3.4C30.6,173.4,30.5,175.1,30.4,175.1z M32.2,179.7
										c0-0.7,0-1.7,0-2.7c0-1.9-0.1-3.9-0.1-3.9s-0.2-1.9-0.4-3.9c-0.1-1-0.3-1.9-0.4-2.6c-0.1-0.7-0.2-1.2-0.3-1.2
										c0,0,0,0.5,0.1,1.2c0.1,0.7,0.2,1.7,0.3,2.7c0.2,1.9,0.3,3.9,0.3,3.9s0.2,1.9,0.3,3.9c0.1,1,0.1,1.9,0.1,2.7
										c0,0.7,0.1,1.2,0.1,1.2C32.2,180.9,32.2,180.4,32.2,179.7z"/>
									<path class="st13" d="M28.2,158.3c-0.4-4-0.8-8-0.8-8s-0.5-4-1.1-8c-0.3-2-0.6-4-0.8-5.5c-0.2-1.5-0.4-2.5-0.5-2.5
										c-0.1,0,0,1,0.1,2.5c0.1,1.5,0.3,3.5,0.5,5.5c0.4,4,0.8,8,0.8,8s0.5,4,1.1,8c0.3,2,0.6,4,0.8,5.5c0.2,1.5,0.4,2.5,0.5,2.5
										c0.1,0,0-1-0.1-2.5C28.6,162.3,28.4,160.3,28.2,158.3z"/>
									<path class="st13" d="M37,197c-0.2-2.6-0.6-5.2-0.6-5.2s-0.5-2.6-1.2-5.1c-0.7-2.5-1.6-4.9-1.7-4.9c-0.1,0,0.5,2.5,1,5.1
										c0.5,2.5,0.9,5.1,0.9,5.1s0.5,2.5,0.9,5.1c0.4,2.5,0.7,5.1,0.8,5.1C37.2,202.2,37.2,199.6,37,197z"/>
								</g>
							</g>
						</g>
						<path class="st12" d="M24.2,130.1c0.4,1.5,1,3,1,3s0.5,1.5,1.1,3c0.5,1.3,1.1,2.6,1.2,2.9c-0.5-2.9-0.9-5-0.9-5
							c-0.5-3-1-6-1.5-9c-0.6-3.5-1-7-1.2-10.6c-0.1-1.4,0.3-2.7,0.1-4.1c0.5,4.9,0.6,10,1.5,14.9c0.5,2.9,1.1,5.8,1.6,8.7
							c0,0,2.8,18.2,2.7,18.2c-0.1,0-1.2-7-2.3-13.1c0,0,0,0.1,0,0.1c-0.1,0-0.9-1.4-1.5-2.8c-0.7-1.5-1.2-3-1.2-3s-0.5-1.5-0.8-3.1
							c-0.4-1.6-0.6-3.2-0.5-3.2C23.5,127,23.8,128.5,24.2,130.1z"/>
					</g>
				</g>
			</g>
			<g>
				<path class="st49" d="M59,81.3c0-0.5,0-1-0.1-1.4c0-0.2-0.2-0.2-0.2,0c0,0.3-0.1,0.7-0.1,1c0-0.4-0.1-0.9-0.1-1.3
					c-0.1-0.3-0.4-0.3-0.4,0.1c0,0.2,0,0.4,0,0.7c0,0-0.1,0.1-0.1,0.1c0,0.1,0,0.2,0,0.2c0-0.2,0-0.3,0-0.5c0-0.3-0.3-0.3-0.3,0
					c0,0.1,0,0.1,0,0.2c0-0.1,0-0.3,0-0.4c0-0.1-0.1-0.2-0.2-0.3c0-0.1,0-0.2,0-0.3c0-0.2-0.2-0.3-0.3-0.1c-0.1,1.2-0.5,2.5-0.4,3.7
					c0,0.2,0.2,0.2,0.3,0c0,0,0-0.1,0-0.1c0,0.1,0,0.2,0,0.2c0,0.3,0.2,0.3,0.3,0.1c0-0.1,0-0.2,0.1-0.3c0,0,0,0,0,0
					c0-0.1,0-0.1,0-0.2c0,0.1,0,0.2,0.1,0.3c0,0.1,0.1,0.1,0.1,0.1c0,0,0,0.1,0,0.1c0,0.2,0.1,0.3,0.2,0.1c0.1-0.3,0.2-0.6,0.2-0.9
					c0,0.2,0.1,0.3,0.1,0.5c0.1,0.2,0.3,0.1,0.4-0.2c0-0.1,0-0.3,0.1-0.4c0,0.2,0.1,0.3,0.1,0.4c0.1,0.2,0.2,0.1,0.2-0.1
					C59.1,82.3,59,81.8,59,81.3z"/>
				<path class="st49" d="M59.3,80.3c0-0.2-0.2-0.1-0.2,0c0,0.5,0,1,0.1,1.6c0,0.1,0.1,0.1,0.2,0C59.4,81.4,59.3,80.9,59.3,80.3z"/>
				<path class="st49" d="M56.9,79.5c-0.1,0.4-0.2,0.8-0.3,1.2c0-0.1,0-0.3,0.1-0.4c0-0.2-0.2-0.4-0.3-0.2c0-0.2-0.2-0.4-0.3-0.1
					c-0.1,0.5-0.2,0.9-0.3,1.4c0,0,0,0,0,0c0.1-0.3,0.1-0.6,0.1-0.9c0-0.2-0.1-0.3-0.3-0.3c-0.1-0.2-0.2-0.2-0.3-0.1
					c-0.1-0.2-0.2-0.3-0.3,0c-0.1,0.2-0.2,0.4-0.3,0.6c0-0.4-0.3-0.6-0.5-0.2c-0.1,0.3-0.2,0.5-0.3,0.8c-0.1-0.1-0.3-0.2-0.4,0
					c-0.1,0.1-0.1,0.2-0.2,0.3c-0.1-0.3-0.3-0.4-0.5-0.2c-0.3,0.4-0.5,0.9-0.8,1.4c0.1-0.3,0.2-0.7,0.3-1c0.1-0.2-0.1-0.4-0.2-0.2
					c-0.1,0.1-0.1,0.2-0.2,0.4c0-0.2-0.1-0.4-0.3-0.2c-0.1,0.1-0.2,0.3-0.3,0.4c0-0.2-0.1-0.4-0.2-0.2c-0.2,0.3-0.4,0.5-0.6,0.8
					c0-0.1,0.1-0.2,0.1-0.3c0.1-0.2-0.1-0.4-0.2-0.2c-0.1,0.1-0.1,0.2-0.2,0.3c0-0.2-0.2-0.3-0.2-0.1c-0.1,0.2-0.2,0.3-0.3,0.5
					c0-0.2-0.1-0.4-0.2-0.2c-0.2,0.3-0.4,0.6-0.6,0.8c-0.1,0.1-0.1,0.2-0.2,0.2c0.1-0.2,0.2-0.4,0.3-0.6c0.1-0.2-0.1-0.5-0.2-0.3
					c-0.2,0.2-0.3,0.5-0.5,0.8c0-0.1,0.1-0.2,0.1-0.2c0.1-0.2-0.1-0.4-0.2-0.2c-0.1,0.3-0.3,0.6-0.5,0.9c0.1-0.3,0.2-0.6,0.3-0.8
					c0.1-0.2-0.1-0.4-0.2-0.2c-0.1,0.3-0.2,0.5-0.4,0.8c-0.1,0.2-0.3,0.4-0.3,0.7c0,0.1,0.1,0.3,0.2,0.2c0.1-0.1,0.2-0.1,0.2-0.2
					c0,0.1,0.1,0.2,0.1,0.1c0.2-0.1,0.3-0.3,0.5-0.5c-0.1,0.2,0.1,0.3,0.2,0.3c0,0,0.1-0.1,0.1-0.1c0,0.2,0.1,0.3,0.2,0.3
					c0.1,0,0.2-0.1,0.2-0.2c0,0,0,0,0,0c-0.1,0.1,0,0.3,0.1,0.2c0.1-0.1,0.2-0.3,0.3-0.4c0,0,0,0,0.1,0c0,0,0,0,0,0
					c-0.1,0.2,0,0.4,0.2,0.2c0.1-0.1,0.1-0.2,0.2-0.3c0,0.2,0.1,0.3,0.1,0.3c0,0.1,0.1,0.2,0.1,0.1c0.1-0.1,0.2-0.3,0.4-0.4
					c0,0,0.1,0,0.1,0c0,0,0.1-0.1,0.1-0.1c-0.1,0.2-0.2,0.4-0.2,0.7c0,0.1,0.1,0.2,0.2,0.1c0-0.1,0.1-0.1,0.1-0.2c0,0,0,0,0,0
					c0.2,0,0.4-0.2,0.6-0.4c0,0.1-0.2,0.4-0.1,0.3c1.4-1.7,0.6-0.4,0.4-0.1c-0.4,0.4,0.7-0.2,1-0.8c0,0,0.1,0,0.1,0
					c-0.1,0.2-0.2,0.4-0.3,0.6c-0.1,0.1,0,0.3,0.1,0.2c0.2-0.2,0.4-0.5,0.5-0.8c0,0.4,0.4,0.5,0.6,0.2c0.1-0.1,0.1-0.3,0.2-0.4
					c0,0,0.1,0,0.1,0.1c-0.1,0.2-0.1,0.4-0.2,0.6c0,0.2,0.1,0.3,0.2,0.1c0.1-0.2,0.2-0.5,0.3-0.7c0,0,0.1,0,0.1,0c0,0.1,0,0.1,0,0.2
					c-0.1,0.2,0.1,0.3,0.2,0.2c0.1-0.2,0.3-0.4,0.4-0.6c0,0,0,0,0,0c0,0.1-0.1,0.3-0.1,0.4c-0.1,0.2,0.1,0.3,0.2,0.2
					c0.1-0.1,0.1-0.3,0.2-0.4c0,0,0,0,0,0.1c-0.1,0.2,0.1,0.4,0.2,0.2c0.1-0.2,0.2-0.4,0.3-0.7c0,0.1,0,0.2,0,0.4
					c0,0.3,0.2,0.3,0.3,0.2c0.1-0.1,0.1-0.2,0.1-0.3c0,0.3,0.3,0.3,0.3,0c0.1-0.3,0.1-0.6,0.1-0.9c0,0.2,0,0.4,0,0.7
					c0,0.3,0.3,0.4,0.3,0.1c0.1-0.6,0.2-1.2,0.3-1.8c0.1-0.6,0.2-1.2,0.3-1.8C57.2,79.4,57,79.2,56.9,79.5z"/>
				<path class="st49" d="M47.4,83.4c-0.2,0.3-0.5,0.6-0.8,1c-0.1,0.2,0,0.5,0.2,0.4c0.3-0.2,0.5-0.7,0.8-1.1
					C47.7,83.5,47.5,83.3,47.4,83.4z"/>
				<path class="st49" d="M60.2,81c0-0.5,0-1,0-1.4c0-0.2,0.2-0.3,0.2,0c0,0.3,0.1,0.7,0.1,1c0-0.4,0-0.9,0.1-1.3
					c0-0.3,0.3-0.3,0.4,0c0,0.2,0,0.4,0,0.6c0,0,0.1,0.1,0.1,0.1c0,0.1,0,0.2,0.1,0.2c0-0.2,0-0.3,0-0.5c0-0.3,0.3-0.4,0.3-0.1
					c0,0.1,0,0.1,0,0.2c0-0.1,0-0.3,0-0.4c0-0.1,0.1-0.3,0.2-0.3c0-0.1,0-0.2,0-0.3c0-0.2,0.2-0.3,0.3-0.1c0.2,1.1,0.7,2.4,0.6,3.6
					c0,0.2-0.2,0.2-0.3,0c0,0,0-0.1,0-0.1c0,0.1,0,0.1,0,0.2c0,0.3-0.2,0.3-0.3,0.1c0-0.1-0.1-0.2-0.1-0.3c0,0,0,0,0,0
					c0-0.1,0-0.1,0-0.2c0,0.1,0,0.2-0.1,0.3c0,0.1-0.1,0.1-0.1,0.1c0,0,0,0.1,0,0.1c0,0.1-0.1,0.3-0.2,0.1c-0.1-0.3-0.2-0.5-0.3-0.8
					c0,0.2,0,0.3-0.1,0.5c-0.1,0.2-0.3,0.1-0.4-0.1c0-0.1-0.1-0.3-0.1-0.4c0,0.2,0,0.3-0.1,0.5c-0.1,0.2-0.2,0.1-0.2-0.1
					C60.2,82,60.2,81.5,60.2,81z"/>
				<path class="st49" d="M62.2,78.9c0.1,0.3,0.2,0.7,0.4,1.1c0-0.1-0.1-0.3-0.1-0.4c-0.1-0.2,0.1-0.4,0.2-0.3
					c0-0.2,0.2-0.4,0.3-0.2c0.2,0.4,0.3,0.9,0.4,1.3c0,0,0,0,0,0c-0.1-0.3-0.1-0.6-0.2-0.9c0-0.2,0.1-0.3,0.2-0.3
					c0.1-0.2,0.2-0.3,0.3-0.1c0-0.2,0.2-0.3,0.3-0.1c0.1,0.2,0.2,0.4,0.3,0.6c0-0.4,0.3-0.6,0.5-0.3c0.1,0.2,0.2,0.5,0.3,0.7
					c0.1-0.1,0.2-0.2,0.4,0c0.1,0.1,0.1,0.2,0.2,0.2c0-0.3,0.3-0.5,0.4-0.3c0.3,0.4,0.6,0.8,0.9,1.3c-0.1-0.3-0.3-0.6-0.4-0.9
					c-0.1-0.2,0.1-0.4,0.2-0.3c0.1,0.1,0.1,0.2,0.2,0.3c0-0.2,0.1-0.4,0.2-0.3c0.1,0.1,0.3,0.3,0.4,0.4c-0.1-0.2,0.1-0.4,0.2-0.2
					c0.2,0.2,0.5,0.5,0.7,0.7c0-0.1-0.1-0.2-0.1-0.3c-0.1-0.2,0.1-0.4,0.2-0.2c0.1,0.1,0.1,0.2,0.2,0.3c0-0.2,0.1-0.3,0.2-0.2
					c0.1,0.2,0.2,0.3,0.4,0.4c0-0.2,0.1-0.4,0.2-0.2c0.2,0.3,0.4,0.5,0.6,0.7c0.1,0.1,0.1,0.1,0.2,0.2c-0.1-0.2-0.2-0.4-0.3-0.5
					c-0.1-0.2,0-0.5,0.2-0.3c0.2,0.2,0.4,0.4,0.6,0.7c0-0.1-0.1-0.1-0.1-0.2c-0.1-0.2,0.1-0.4,0.2-0.2c0.2,0.3,0.3,0.5,0.5,0.8
					c-0.1-0.3-0.2-0.5-0.3-0.7c-0.1-0.2,0.1-0.4,0.2-0.2c0.1,0.3,0.3,0.5,0.4,0.7c0.1,0.2,0.3,0.4,0.4,0.6c0,0.1,0,0.3-0.1,0.3
					c-0.1,0-0.2-0.1-0.3-0.2c0,0.1,0,0.2-0.1,0.1c-0.2-0.1-0.4-0.2-0.5-0.4c0.1,0.2,0,0.4-0.2,0.3c0,0-0.1-0.1-0.1-0.1
					c0,0.2,0,0.3-0.1,0.3c-0.1,0-0.2-0.1-0.2-0.1c0,0,0,0,0,0c0.1,0.1,0,0.3-0.1,0.2c-0.1-0.1-0.2-0.2-0.3-0.4c0,0,0,0-0.1,0
					c0,0,0,0,0,0c0.1,0.1,0,0.4-0.1,0.3c-0.1-0.1-0.1-0.2-0.2-0.2c0,0.2,0,0.3-0.1,0.4c0,0.1-0.1,0.2-0.1,0.1
					c-0.1-0.1-0.3-0.2-0.4-0.3c0,0-0.1,0-0.1,0c0,0-0.1-0.1-0.1-0.1c0.1,0.2,0.2,0.4,0.2,0.7c0,0.1-0.1,0.2-0.2,0.1
					c0-0.1-0.1-0.1-0.1-0.2c0,0,0,0-0.1,0c-0.2,0-0.4-0.1-0.6-0.3c0.1,0.1,0.2,0.3,0.2,0.3c-1.5-1.4-0.7-0.3-0.4,0
					c0.4,0.3-0.7-0.1-1-0.6c0,0-0.1,0-0.1,0c0.1,0.2,0.2,0.4,0.3,0.5c0.1,0.1,0,0.3-0.1,0.2c-0.2-0.2-0.4-0.4-0.6-0.7
					c0,0.4-0.4,0.6-0.6,0.3c-0.1-0.1-0.2-0.3-0.2-0.4c0,0-0.1,0-0.1,0.1c0.1,0.2,0.1,0.3,0.2,0.5c0.1,0.2-0.1,0.3-0.2,0.2
					c-0.1-0.2-0.3-0.4-0.4-0.7c0,0-0.1,0-0.1,0c0,0.1,0,0.1,0.1,0.2c0.1,0.2-0.1,0.4-0.2,0.2c-0.1-0.2-0.3-0.4-0.4-0.6c0,0,0,0,0,0
					c0,0.1,0.1,0.2,0.1,0.4c0.1,0.2-0.1,0.4-0.2,0.2c-0.1-0.1-0.2-0.3-0.2-0.4c0,0,0,0,0,0.1c0.1,0.2-0.1,0.4-0.2,0.2
					c-0.1-0.2-0.3-0.4-0.4-0.6c0,0.1,0.1,0.2,0.1,0.4c0,0.3-0.2,0.4-0.3,0.2c-0.1-0.1-0.1-0.2-0.2-0.2c0,0.3-0.3,0.4-0.3,0.1
					c-0.1-0.3-0.1-0.6-0.2-0.9c0,0.2,0.1,0.4,0.1,0.6c0,0.3-0.3,0.4-0.3,0.1c-0.2-0.6-0.3-1.2-0.4-1.8c-0.1-0.6-0.3-1.1-0.4-1.7
					C61.9,78.8,62.1,78.6,62.2,78.9z"/>
				<path class="st49" d="M71.9,81.3c0.3,0.3,0.6,0.5,0.8,0.9c0.1,0.2,0,0.5-0.2,0.4c-0.3-0.2-0.6-0.6-0.8-1
					C71.6,81.4,71.8,81.1,71.9,81.3z"/>
				<path class="st49" d="M60.2,81.4c-0.1-0.4-0.1-0.7-0.2-1.1c0-0.1-0.1-0.1-0.2,0c0,0.4,0,0.7,0,1.1c0,0.4,0.1,0.9,0.3,1.2
					c0.1,0.1,0.2,0,0.2-0.1C60.4,82.1,60.2,81.8,60.2,81.4z"/>
			</g>
		</g>
	</g>
</g>
<g>
	<path class="st32" d="M123.7,84.2h-5.7c-2.4,0-3.6,0.3-3.6,0.8c0,0.3,0.7,0.7,2,1.2c1.8,0.6,3.1,1.1,3.8,1.5c1.3,0.8,2,1.9,2,3.2
		c0,2.2-2,4-5.9,5.4c-3.1,1.1-6.1,1.6-9,1.6c-2.6,0-4.9-0.7-6.9-2.2c-2.2-1.6-3.3-3.6-3.3-5.9c0-1.7,0.3-3.4,0.8-4.9
		c0.3-0.9,1.1-2.5,2.2-4.6l0.7,0.3c-0.9,2.2-1.4,3.9-1.4,5c0,4.8,4,7.2,12.1,7.2c1.3,0,2.9-0.1,4.6-0.4c2.4-0.4,3.7-0.8,3.7-1.4
		c0-0.4-0.6-0.5-1.7-0.5c-4.7,0-7.1-1.2-7.1-3.5c0-2.2,0.8-4.2,2.3-5.8c1.6-1.6,3.5-2.5,5.8-2.5h4.4V84.2z M114.4,100.5l-2.1,3.2
		l-3.2-2.1l-1.6,2.8l-3.5-2.4l2.1-3.3l3.1,2.3l1.9-3L114.4,100.5z"/>
	<path class="st32" d="M144.5,84.2h-3.7c-1.5,0-2.7-0.5-3.4-1.4c-0.2,2.1-1.2,3.1-2.9,3.1c-1.6,0-3.7-1.5-6.5-4.4
		c-0.3,0.4-0.9,1.1-1.9,2c-0.6,0.5-2,0.7-4.1,0.7v-5.5h1.9c1.3,0,2.5-0.6,3.4-1.9c0.7-1.1,1.4-2.3,2.1-3.4c0.9-1.2,2-1.8,3.2-1.8
		c0.7,0,1.4,0.6,2.3,1.7c0.9,1.2,1.7,2.3,2.6,3.4c1.1,1.2,2.2,1.9,3.4,1.9h3.7V84.2z M134.2,78.7c0-0.8-0.1-1.7-0.4-2.6
		c-0.3-1.3-0.8-1.9-1.3-1.9c-0.5,0-1,0.4-1.4,1.3c-0.3,0.7-0.6,1.3-0.9,2c1.7,1.6,2.8,2.4,3.4,2.4C134,79.9,134.2,79.5,134.2,78.7z"
		/>
	<path class="st32" d="M162.4,72.6c-0.3,2.8-0.7,4.4-1.4,5c-0.6,0.5-3.3,1.7-8.1,3.6c-4.9,1.9-7.6,2.9-8.3,2.9h-1.8v-5.5
		c2.5,0,4.1-0.3,4.7-0.9c-1.7-1.3-2.6-2.4-2.6-3.2c0-1.6,1-3.7,3.1-6.1c2.1-2.5,4-3.7,5.7-3.7c1.8,0,3.8,1.8,6.1,5.3
		c-1.4-0.5-2.6-0.8-3.6-0.8c-1.4,0-2.8,0.2-4.3,0.5c-2.2,0.5-3.3,1.2-3.3,2c0,0.7,0.7,1.4,2.1,2.3c1.4,0.9,2.5,1.3,3.3,1.3
		C155.6,75.3,158.4,74.4,162.4,72.6z"/>
</g>
</svg>
