<?xml version="1.0" encoding="utf-8"?>
<!-- Generator: Adobe Illustrator 21.0.0, SVG Export Plug-In . SVG Version: 6.00 Build 0)  -->
<svg version="1.1" id="Layer_1" xmlns="http://www.w3.org/2000/svg" xmlns:xlink="http://www.w3.org/1999/xlink" x="0px" y="0px"
	 viewBox="0 0 180 180" style="enable-background:new 0 0 180 180;" xml:space="preserve">
<style type="text/css">
	.st0{fill:#FFFFFF;}
	.st1{display:none;}
	.st2{display:inline;}
	.st3{fill:url(#SVGID_1_);}
	.st4{fill:#508906;}
	.st5{clip-path:url(#SVGID_4_);}
	.st6{clip-path:url(#SVGID_6_);}
	.st7{fill:#FBC6A4;}
	.st8{fill:#EAAD85;}
	.st9{fill:#CE7754;}
	.st10{fill:#E76BA7;}
	.st11{fill:#7D92A3;}
	.st12{fill:#627684;}
	.st13{fill:#495967;}
	.st14{fill:#ABB6C3;}
	.st15{fill:#6A7F8E;}
	.st16{fill:#BA4582;}
	.st17{fill:#E98FBB;}
	.st18{fill:#D35592;}
	.st19{fill:#613E24;}
	.st20{fill:#73492B;}
	.st21{fill:#344B56;}
	.st22{fill:#263B44;}
	.st23{fill:#D5956A;}
	.st24{fill:#F8AF9A;}
	.st25{fill:#FBD3C4;}
	.st26{fill:#DDDFE0;}
	.st27{fill:#73BBD9;}
	.st28{fill:#231F20;}
	.st29{fill:#412820;}
	.st30{fill:#DDA078;}
	.st31{fill:#865D3E;}
	.st32{fill:#F6A094;}
	.st33{fill:#4D1F1C;}
	.st34{fill:#EC756C;}
	.st35{fill:#F48F87;}
	.st36{fill:#FBD6D1;}
</style>
<rect class="st0" width="180" height="180"/>
<rect class="st0" width="180" height="180"/>
<g>
	<g>
		<g>
			<g class="st1">
				<g class="st2">
					<g>
						
							<radialGradient id="SVGID_1_" cx="96.3333" cy="-108" r="167.1662" gradientTransform="matrix(1 0 0 1 0 192)" gradientUnits="userSpaceOnUse">
							<stop  offset="0.173" style="stop-color:#FFFFFF"/>
							<stop  offset="1" style="stop-color:#36CDFF;stop-opacity:0.3"/>
						</radialGradient>
						<rect id="SVGID_2_" x="0.4" y="0.1" class="st3" width="180" height="180"/>
					</g>
				</g>
			</g>
			<g>
				<g>
					<g>
						<path class="st4" d="M168.9,173.6h-2.6V173h2.6V173.6z M163.1,173.6h-2.6V173h2.6V173.6z M157.3,173.6h-2.6V173h2.6V173.6z
							 M151.5,173.6H149V173h2.6v0.6H151.5z M145.8,173.6h-2.6V173h2.6V173.6z M140,173.6h-2.6V173h2.6V173.6z M134.2,173.6h-2.6
							V173h2.6V173.6z M128.5,173.6h-2.6V173h2.6V173.6z M122.7,173.6h-2.6V173h2.6V173.6z M116.9,173.6h-2.6V173h2.6V173.6z
							 M111.2,173.6h-2.6V173h2.6V173.6z M105.4,173.6h-2.6V173h2.6V173.6z M99.6,173.6H97V173h2.6V173.6z M93.9,173.6h-2.6V173h2.6
							V173.6z M88.1,173.6h-2.6V173h2.6V173.6z M82.3,173.6h-2.6V173h2.6V173.6z M76.5,173.6H74V173h2.6L76.5,173.6L76.5,173.6z
							 M70.8,173.6h-2.6V173h2.6V173.6z M65,173.6h-2.6V173H65V173.6z M59.2,173.6h-2.6V173h2.6V173.6z M53.5,173.6h-2.6V173h2.6
							V173.6z M47.7,173.6h-2.6V173h2.6V173.6z M41.9,173.6h-2.6V173h2.6V173.6z M36.2,173.6h-2.6V173h2.6V173.6z M30.4,173.6h-2.6
							V173h2.6V173.6z M24.6,173.6H22V173h2.6V173.6z M18.9,173.6h-2.6V173h2.6V173.6z M13.1,173.6H12c-0.5,0-1-0.1-1.5-0.2l0.2-0.6
							c0.4,0.1,0.9,0.2,1.3,0.2h1.1V173.6z M171.5,172.8l-0.3-0.5c0.7-0.4,1.2-1,1.6-1.8l0.6,0.3
							C172.9,171.6,172.3,172.3,171.5,172.8z M7.8,171.3c-0.5-0.8-0.8-1.7-0.8-2.6h0.6c0,0.8,0.3,1.6,0.7,2.2L7.8,171.3z
							 M173.9,167.5h-0.6V165h0.6V167.5z M7.6,165.5H6.9V163h0.6L7.6,165.5L7.6,165.5z M173.9,161.8h-0.6v-2.6h0.6V161.8z
							 M7.6,159.8H6.9v-2.6h0.6L7.6,159.8L7.6,159.8z M173.9,156h-0.6v-2.6h0.6V156z M7.6,154H6.9v-2.6h0.6L7.6,154L7.6,154z
							 M173.9,150.2h-0.6v-2.6h0.6V150.2z M7.6,148.2H6.9v-2.6h0.6L7.6,148.2L7.6,148.2z M173.9,144.4h-0.6v-2.6h0.6V144.4z
							 M7.6,142.4H6.9v-2.6h0.6L7.6,142.4L7.6,142.4z M173.9,138.7h-0.6v-2.6h0.6V138.7z M7.6,136.7H6.9v-2.6h0.6L7.6,136.7
							L7.6,136.7z M173.9,132.9h-0.6v-2.6h0.6V132.9z M7.6,130.9H6.9v-2.6h0.6L7.6,130.9L7.6,130.9z M173.9,127.1h-0.6v-2.6h0.6
							V127.1z M7.6,125.1H6.9v-2.6h0.6L7.6,125.1L7.6,125.1z M173.9,121.4h-0.6v-2.6h0.6V121.4z M7.6,119.4H6.9v-2.6h0.6L7.6,119.4
							L7.6,119.4z M173.9,115.6h-0.6V113h0.6V115.6z M7.6,113.6H6.9V111h0.6L7.6,113.6L7.6,113.6z M173.9,109.8h-0.6v-2.6h0.6V109.8
							z M7.6,107.8H6.9v-2.6h0.6L7.6,107.8L7.6,107.8z M173.9,104.1h-0.6v-2.6h0.6V104.1z M7.6,102.1H6.9v-2.6h0.6L7.6,102.1
							L7.6,102.1z M173.9,98.3h-0.6v-2.6h0.6V98.3z M7.6,96.3H6.9v-2.6h0.6L7.6,96.3L7.6,96.3z M173.9,92.5h-0.6V90h0.6V92.5z
							 M7.6,90.5H6.9V88h0.6L7.6,90.5L7.6,90.5z M173.9,86.8h-0.6v-2.6h0.6V86.8z M7.6,84.8H6.9v-2.6h0.6L7.6,84.8L7.6,84.8z
							 M173.9,81h-0.6v-2.6h0.6V81z M7.6,79H6.9v-2.6h0.6L7.6,79L7.6,79z M173.9,75.2h-0.6v-2.6h0.6V75.2z M7.6,73.2H6.9v-2.6h0.6
							L7.6,73.2L7.6,73.2z M173.9,69.4h-0.6v-2.6h0.6V69.4z M7.6,67.4H6.9v-2.6h0.6L7.6,67.4L7.6,67.4z M173.9,63.7h-0.6v-2.6h0.6
							V63.7z M7.6,61.7H6.9v-2.6h0.6L7.6,61.7L7.6,61.7z M173.9,57.9h-0.6v-2.6h0.6V57.9z M7.6,55.9H6.9v-2.6h0.6L7.6,55.9L7.6,55.9
							z M173.9,52.1h-0.6v-2.6h0.6V52.1z M7.6,50.1H6.9v-2.6h0.6L7.6,50.1L7.6,50.1z M173.9,46.4h-0.6v-2.6h0.6V46.4z M7.6,44.4H6.9
							v-2.6h0.6L7.6,44.4L7.6,44.4z M173.9,40.6h-0.6V38h0.6V40.6z M7.6,38.6H6.9V36h0.6L7.6,38.6L7.6,38.6z M173.9,34.8h-0.6v-2.6
							h0.6V34.8z M7.6,32.8H6.9v-2.6h0.6L7.6,32.8L7.6,32.8z M173.9,29.1h-0.6v-2.6h0.6V29.1z M7.6,27.1H6.9v-2.6h0.6L7.6,27.1
							L7.6,27.1z M173.9,23.3h-0.6v-2.6h0.6V23.3z M7.6,21.3H6.9v-2.6h0.6L7.6,21.3L7.6,21.3z M173.9,17.5h-0.6V15h0.6V17.5z
							 M7.6,15.5H6.9V13h0.6L7.6,15.5L7.6,15.5z M173.9,11.8h-0.6v-0.1c0-0.8-0.2-1.5-0.6-2.2l0.6-0.3c0.4,0.8,0.7,1.6,0.7,2.5
							L173.9,11.8L173.9,11.8z M7.9,9.9L7.3,9.7c0.4-0.9,1-1.6,1.7-2.1l0.4,0.5C8.8,8.6,8.2,9.2,7.9,9.9z M170.4,7.6
							c-0.5-0.2-1-0.3-1.6-0.3H168V6.6h0.8c0.6,0,1.2,0.1,1.8,0.3L170.4,7.6z M164.8,7.3h-2.6V6.6h2.6V7.3z M159,7.3h-2.6V6.6h2.6
							V7.3z M153.3,7.3h-2.6V6.6h2.6V7.3z M147.5,7.3h-2.6V6.6h2.6V7.3z M141.7,7.3h-2.6V6.6h2.6V7.3z M136,7.3h-2.6V6.6h2.6V7.3z
							 M130.2,7.3h-2.6V6.6h2.6V7.3z M124.4,7.3h-2.6V6.6h2.6V7.3z M118.6,7.3H116V6.6h2.6V7.3z M112.9,7.3h-2.6V6.6h2.6V7.3z
							 M107.1,7.3h-2.6V6.6h2.6V7.3z M101.3,7.3h-2.6V6.6h2.6V7.3z M95.6,7.3H93V6.6h2.6V7.3z M89.8,7.3h-2.6V6.6h2.6V7.3z M84,7.3
							h-2.6V6.6H84V7.3z M78.3,7.3h-2.6V6.6h2.6V7.3z M72.5,7.3h-2.6V6.6h2.6V7.3z M66.7,7.3h-2.6V6.6h2.6V7.3z M61,7.3h-2.6V6.6H61
							V7.3z M55.2,7.3h-2.6V6.6h2.6V7.3z M49.4,7.3h-2.6V6.6h2.6V7.3z M43.6,7.3H41V6.6h2.6V7.3z M37.9,7.3h-2.6V6.6h2.6V7.3z
							 M32.1,7.3h-2.6V6.6h2.6V7.3z M26.3,7.3h-2.6V6.6h2.6V7.3z M20.6,7.3H18V6.6h2.6V7.3z M14.8,7.3h-2.6V6.6h2.6
							C14.8,6.6,14.8,7.3,14.8,7.3z"/>
					</g>
				</g>
			</g>
		</g>
	</g>
</g>
<g>
	<g>
		<g>
			<g>
				<g>
					<g>
						<defs>
							<ellipse id="SVGID_3_" cx="94" cy="52" rx="129.7" ry="117"/>
						</defs>
						<clipPath id="SVGID_4_">
							<use xlink:href="#SVGID_3_"  style="overflow:visible;"/>
						</clipPath>
						<g class="st5">
							<g>
								<g>
									<g>
										<g>
											<g>
												<defs>
													<ellipse id="SVGID_5_" cx="94" cy="52" rx="129.7" ry="117"/>
												</defs>
												<clipPath id="SVGID_6_">
													<use xlink:href="#SVGID_5_"  style="overflow:visible;"/>
												</clipPath>
												<g class="st6">
													<g>
														<g>
															<g>
																<path class="st7" d="M57.8,141c-3.4,23.8-18.1,63.7-18.1,63.7s-6.1-0.5-6.2,1.5c-0.1,1.9,3.4,2.1,3.4,2.1
																	s-3.1,4.1-4.5,5.7c-1.7,2-0.2,3.4,1.6,1.9c1.1-0.9,2.9-2.6,3-2.6c-0.1,0.3-1.8,3-2.7,4.6c-1.4,2.4,1,3.5,2.2,1.5
																	c0.4-0.6,2.7-4.3,2.8-4.4c-0.1,0.2-1.4,3.5-1.9,5c-0.6,1.8,1.3,2.6,2.3,0.7c0.4-0.8,2.1-4.6,2.2-4.7
																	c-0.2,0.9-1.2,4.1-0.1,4.6c1,0.5,2-1.3,2.7-4.3c2-3.5,2.6-7.1,1.1-9.3c8.7-17.3,19.7-66.9,19.7-66.9
																	S59.5,135.1,57.8,141z"/>
																<path class="st8" d="M57.3,147.8c0.2-2.7,1.3-5.3,1.1-6.8c3.8-1.1,5.9,1.8,5.9,1.8s-1.9,3.5-2.3,8.7
																	C61.4,147.4,58,144.6,57.3,147.8z"/>
																<path class="st9" d="M41.3,209.4c-1.7,1.7-3.7,0.6-4.7-0.3c-0.1-0.1-0.1-0.2,0-0.3s0.2-0.1,0.3,0
																	c0.9,0.8,2.7,1.8,4.1,0.3c0.1-0.1,0.2-0.1,0.3,0c0.1,0.1,0.1,0.1,0.1,0.2C41.4,209.3,41.3,209.4,41.3,209.4z"/>
															</g>
															<g>
																<path class="st7" d="M100.8,341.4c0.2,3.4,0,12.8-0.1,17.6c0,1.8,12.6,8,12.3,9.6c-0.8,4.5-16.3-4.3-17.1-6.4
																	c0.4-8.3,0.6-20.6,0.6-20.6S99.3,340.7,100.8,341.4z"/>
																<path class="st10" d="M108.4,367.4c3.3-0.5,1.3-2.3,1.3-2.3s8.2,4.7,10.4,6.9c2.1,2.1,2.2,4.2-2.7,4.2
																	c-7.5-0.1-20.7-6.7-22-8.2c-1.3-1.5-0.4-7.6,0.4-7.9C97.6,363.3,105.1,368,108.4,367.4z"/>
															</g>
															<g>
																<path class="st7" d="M80.2,343.5c0,0,0.1,18.3,0.2,21.1s-0.9,11.5,3.7,11.5c3.3,0,1.5-9,1-12
																	c-0.1-3.5,0.1-20.7,0.1-20.7L80.2,343.5z"/>
																<path class="st10" d="M83.1,371.9c-2.9-0.2-3-9.5-3-9.5s-2.5,6.4-1.5,13.9c0.9,6.8,3.1,9.1,6.3,8.4
																	c3.9-0.8,3.6-10.2,2.7-14.5c-0.9-4.1-1.7-6.6-2.6-7.9C84.8,367.6,85.9,372.2,83.1,371.9z"/>
															</g>
															<path class="st7" d="M118.8,129.6c0,14.3,11,51.9,11,51.9s4.3-4.6,5-7c-4.8-14-9.2-47.6-9.2-47.6
																S121.6,126.4,118.8,129.6z"/>
															<path class="st8" d="M121.2,136.1c-0.7-2.2-1.4-4.8-1.9-6.4c2.6-3,5.6-2.7,5.6-2.7s0.5,3.6,1.5,6.2
																C123.7,129.7,121.2,134.2,121.2,136.1z"/>
															<g>
																<path class="st7" d="M88.8,97.6l0.7,5.8c0,0-5,1.8-9.6,3.7c1,3,6,6,15.1,5.2c9.1-0.9,9.7-7.5,9.7-7.5
																	s-2.8-0.6-9.1-1.8c-0.3-3-0.6-5.9-0.6-5.9L88.8,97.6z"/>
																<path class="st8" d="M95,97.1l-6.1,0.4l0.5,4c1.5,0.1,3.2,0.1,5-0.1c0.4,0,0.7,0,1.1-0.1C95.2,99,95,97.1,95,97.1z"
																	/>
															</g>
															<g>
																<path class="st11" d="M69.8,186.1c-5.6,12.4,4.3,91.8,4.6,98.2c0.3,6.4,1.7,20.3,2.7,59.4
																	c1.2,2.4,10.1,2.2,11.1,0.2C88,332,91.8,264.8,97.1,230c-0.5,10.4-3.5,77.2-2,113c2.4,2.4,9.3,1.6,10.3-0.4
																	c1.1-25.5,10-66.8,14.4-103s1.4-54.7,1.4-54.7S75.4,173.9,69.8,186.1z"/>
																<path class="st12" d="M70.9,189.5c0,0-1.3,10.7-0.9,21.6c18.7-10.2,40.4-13.5,50.4-6.9c0.5-10.9-1.2-14.5-1.2-14.5
																	L70.9,189.5z"/>
																<path class="st13" d="M103.6,286.5c-0.1-0.1-0.2-0.2-0.1-0.3c0.1-0.1,0.2-0.2,0.3-0.1c4.7,2.3,7.3,0.2,7.3,0.2
																	c0.1-0.1,0.2-0.1,0.3,0c0.1,0.1,0.1,0.2,0,0.3c-0.1,0-0.8,0.7-2.3,0.9C107.8,287.7,106,287.6,103.6,286.5z"/>
																<path class="st13" d="M80.7,286.2c-0.1-0.1-0.2-0.2-0.1-0.3c0.1-0.1,0.2-0.2,0.3-0.1c4.7,2.3,7.3,0.2,7.3,0.2
																	c0.1-0.1,0.2-0.1,0.3,0c0.1,0.1,0.1,0.2,0,0.3c-0.1,0-0.8,0.7-2.3,0.9C84.9,287.4,83.1,287.3,80.7,286.2z"/>
																<path class="st14" d="M108.4,283c-3.1-1.6-1-53.6,3.2-62c4.2-8.4,6.4-0.1,5.6,11.3
																	C115.7,254.2,113.5,285.8,108.4,283z"/>
																<path class="st14" d="M81.9,268.9c-3.3-0.8-6.1-24.3-5.7-36.5c0.5-12.2,9-11.6,10.4,1.1
																	C87.8,243.8,85.4,269.7,81.9,268.9z"/>
																<g>
																	<path class="st15" d="M96.5,290.9c-0.9,20,0.3,45.6,0.7,53.3c0.8,0.2,1.6,0.3,2.4,0.3l1.4-117.1
																		c-0.9,0.8-1.6,1.6-3.2,3.5C97.6,236,97.7,267.6,96.5,290.9z"/>
																</g>
															</g>
															<g>
																<path class="st16" d="M118,134.5c0,0,7.8-3.6,8.2-8.2c-2.4-5.9-8.8-14.9-10.8-16.6L118,134.5z"/>
																<path class="st10" d="M115.4,109.7c1.6,1.8,3.4,10.9,6.3,21c4.3,14.9,3,17.8-3.9,22.2c-0.4,5.5,2.7,22.8,6.1,38.7
																	c-17.2,10.1-42.9,10.7-58.5-0.2c14.8-39.9-2.4-67.1-4.1-70.7c2.5-3.6,8.2-8.9,19.5-14.1c2.4,2.8,6.4,5,13.1,4.6
																	c6.7-0.4,10.6-4.2,9.4-6.9C103.3,104.3,113,107,115.4,109.7z"/>
																<g>
																	<path class="st10" d="M103.5,104.3c-0.1,0-0.2,0-0.2,0c0.1,0.1,0.1,0.1,0.1,0.2
																		C103.4,104.4,103.4,104.4,103.5,104.3z"/>
																	<path class="st16" d="M66.4,188.8c-0.3,0.9-0.6,1.8-0.9,2.7c15.6,10.9,41.3,10.3,58.5,0.2
																		c-0.2-0.8-0.3-1.5-0.5-2.3C106.5,198.8,81.8,199.2,66.4,188.8z"/>
																</g>
																<path class="st16" d="M106.3,105.3c0.4,1.1-1,7-9.6,8c-12.6,1.5-18.1-5.4-18.1-5.4s1.1-1.1,3.6-1.6
																	c2.8,2.4,8.4,4.5,13.3,3.6c6.3-1.1,7.3-4.1,7.2-5.5C102.7,104.4,105.1,104.4,106.3,105.3z"/>
																<path class="st17" d="M115.8,136.8c5.2,1.6-2.4-16.7-5.3-15.7C110.5,121.1,108.6,134.5,115.8,136.8z"/>
																<path class="st18" d="M118.5,189.6c-16.6,8.2-39.8,3.2-49.3-2.1c8.1-20.4,2.4-42.8,2.4-42.8S76.9,192.9,118.5,189.6
																	z"/>
																<path class="st16" d="M69.8,136.9c0,0-2.4,7.7-4.7,10.2c-3.5-0.3-9.1-3.3-10.4-6.5c1.6-8.4,5.7-19.2,7-20.2
																	C69.6,125.7,69.8,136.9,69.8,136.9z"/>
															</g>
														</g>
														<path class="st19" d="M89.7,25.7C88.8,10,71.1,11.6,70,12.7c0.7,0.1,5.3-0.1,6.1,3.1c-5.3-4-18.5,1.8-19.4,10.2
															c-0.9,8.4,4.8,12,4.8,12S84.3,28,89.7,25.7z"/>
														<path class="st20" d="M77.3,13.1c2.6,0.7,8.7,2.8,9.3,9.4C73.7,19.4,65.3,27.4,61.3,36c0-3.7,2.9-11.8,8.9-14.5
															c0,0-7.7-0.1-11.3,4.4c4.2-10.5,16.8-9.8,20.7-6.8C80.2,18.2,81.5,15.3,77.3,13.1z"/>
														<g>
															<path class="st7" d="M102.8,291.6c0,0,0,20.4,0.1,22.5c1.4,1.2,3.1,3.6,3.7,4.7c1.2,2,1.9,7.7-3.2,5.6
																c-5.2-2.2-6.5-5.7-6.1-6.8c0.4-1.1,0.2-25.4,0.2-25.4L102.8,291.6z"/>
															<path class="st8" d="M98,298.5c0,0,0,0.4-0.2,4.2c0.7-2.1,3.3-2.6,4.7,0c-0.1-0.3-0.1-3.5-0.1-3.5L98,298.5z"/>
														</g>
														<path class="st21" d="M113.4,331c-4.4,3.4-15.3-8.1-16.1-10.9c-0.7-2.7,0.2-5.6,0.2-5.6s3.4,7.4,8,6.6
															c2.7-0.4,1.1-2.6-1.8-6.4C109.5,319.8,116.7,328.4,113.4,331z"/>
														<path class="st22" d="M97,318.5c0.1,0.5,0.1,1.1,0.3,1.6c0.8,2.8,11.8,14.3,16.1,10.9c0.3-0.2,0.5-0.4,0.6-0.7
															C109.5,332.4,98.7,321.8,97,318.5z"/>
														<g>
															<path class="st7" d="M82,291.6c0,0,0,20.4,0,22.5c-1.4,1.2-3.1,3.6-3.7,4.7c-1.2,2-1.9,7.7,3.2,5.6
																c5.2-2.2,6.5-5.7,6.1-6.8c-0.4-1.1-0.2-25.4-0.2-25.4L82,291.6z"/>
															<path class="st8" d="M86.8,298.5c0,0,0,0.4,0.2,4.2c-0.7-2.1-3.3-2.6-4.7,0c0.1-0.3,0.1-3.5,0.1-3.5L86.8,298.5z"/>
														</g>
														<path class="st8" d="M95.2,100.9c-0.8,0.3-1.7,0.5-2.7,0.5c-0.9,0-1.8-0.1-2.5-0.3c0.1-3.4-0.2-9-0.2-9l5.4-0.5
															C95.2,91.6,95,96.2,95.2,100.9z"/>
														<path class="st21" d="M71.4,331c4.4,3.4,15.3-8.1,16.1-10.9c0.7-2.7-0.2-5.6-0.2-5.6s-3.4,7.4-8,6.6
															c-2.7-0.4-1.1-2.6,1.8-6.4C75.3,319.8,68.1,328.4,71.4,331z"/>
														<path class="st22" d="M87.8,318.5c-0.1,0.5-0.1,1.1-0.3,1.6c-0.8,2.8-11.8,14.3-16.1,10.9c-0.3-0.2-0.5-0.4-0.6-0.7
															C75.3,332.4,86.1,321.8,87.8,318.5z"/>
														<g>
															<g>
																<path class="st7" d="M116.1,74.5c1,3,4.8,2.7,6.7-0.8c2-3.5,0.8-9.3-2.5-9.1c-3.2,0.2-3.7,3.9-3.7,3.9L116.1,74.5z"
																	/>
																<path class="st8" d="M122.3,73.5c-1.8,3.3-5.3,3.6-6.3,0.8c1.5,2,4.5,1.7,5.9-1.9c1-2.6,0.7-7.2-2.5-7.1
																	c-0.6,0-1,0.2-1.4,0.5c0.5-0.4,1.1-0.7,1.9-0.8C123,64.8,124.1,70.2,122.3,73.5z"/>
																<path class="st23" d="M119.4,68.6c1.3,0,1.8,0.8,1.8,2.1c-1.5-2-2.7-0.8-1.6,3.2c-2.9-3-0.9-8.3,1.2-7.6
																	C120.8,66.3,119.5,67.1,119.4,68.6z"/>
															</g>
															<path class="st7" d="M89.5,38.8c-26.8,0.6-31.7,27.9-24,43.5c5.7,11.7,20.1,18.1,30.2,17.1c10-1,17.7-9.1,22.2-19.6
																C125.6,61.7,116.3,38.2,89.5,38.8z"/>
															<g>
																<g>
																	<g>
																		<path class="st8" d="M70.8,61.3c-5.7,4.5-7.6,9.1-7.2,15.8c-7.6-8.8-7-25.1-1.9-34.2c3.5-6.4,6.5-9.9,16-10
																			c16.1-11.8,36.2-1.5,40.8,14.6c4.1,14.5,4.3,22.7,0,28.3c0.2-11.1-1-20-16.3-21.2c-14.4-1.2-20.7-6.1-20.7-6.1
																			C80.6,55.6,76.6,56.8,70.8,61.3z"/>
																	</g>
																</g>
															</g>
															<path class="st8" d="M62.2,69.3c0.3,4.4,1.4,8.6,3.2,12.2c5.7,11.7,20.1,18.1,30.2,17.1c10-1,17.7-9.1,22.2-19.6
																c2.4-5.7,2.5-11.6,1.7-17.4c0.4,5.2,0.2,10.4-1.9,15.4c-4.5,10.5-12.3,18.6-22.2,19.6c-10.1,1-24.5-5.5-30.2-17.1
																C63.7,76.4,62.7,72.9,62.2,69.3z"/>
															<path class="st24" d="M111.2,72.8c-3.3,1.3-4.9,0.6-5.3,2.6c-0.5,2.1,2.5,4.2,5.3,4c2.9-0.2,5-1.8,5.1-4.1
																S114.3,71.5,111.2,72.8z"/>
															
																<ellipse transform="matrix(2.345588e-02 -0.9997 0.9997 2.345588e-02 36.7708 185.04)" class="st25" cx="113.1" cy="73.7" rx="0.4" ry="0.5"/>
															<path class="st24" d="M78.7,76.1c3.6,0.7,5.1-0.2,5.9,1.8c0.9,2.1-1.8,4.7-4.8,5c-3.1,0.3-5.6-1.1-6-3.4
																C73.4,77.1,75.3,75.3,78.7,76.1z"/>
															
																<ellipse transform="matrix(0.9834 -0.1814 0.1814 0.9834 -12.8522 15.121)" class="st25" cx="76.2" cy="77.8" rx="0.5" ry="0.4"/>
															<g>
																<path class="st8" d="M103.7,70.4c-1.3,0.8-0.7,2.6,2.6,2.8c3.5,0.1,5.4-2.6,5.5-3.7c0.1-1.6-1.2-1-1.2-1
																	S105.1,69.6,103.7,70.4z"/>
																
																	<ellipse transform="matrix(0.9962 -8.666088e-02 8.666088e-02 0.9962 -5.4055 9.5411)" class="st0" cx="107.2" cy="67" rx="5" ry="5.3"/>
																<path class="st26" d="M102.5,67.5c0.3,2.7,2.5,4.7,5.1,4.5c2.3-0.2,4-2.1,4.2-4.4c-0.6,1.7-2.1,2.9-3.9,3.1
																	c-2.6,0.2-4.9-1.8-5.1-4.5c0-0.3,0-0.6,0-0.9C102.6,65.9,102.5,66.7,102.5,67.5z"/>
																
																	<ellipse transform="matrix(0.9962 -8.661952e-02 8.661952e-02 0.9962 -5.4183 9.4839)" class="st27" cx="106.6" cy="67.2" rx="2.7" ry="2.9"/>
																<path class="st28" d="M106.4,65.5c0.8,0,1.6,0.7,1.7,1.6c0,0.9-0.6,1.7-1.5,1.8c-0.9,0-1.7-0.7-1.8-1.6
																	C104.8,66.4,105.4,65.6,106.4,65.5z"/>
																
																	<ellipse transform="matrix(0.9962 -8.693235e-02 8.693235e-02 0.9962 -5.2938 9.6147)" class="st0" cx="107.7" cy="65.6" rx="0.8" ry="0.8"/>
																
																	<ellipse transform="matrix(0.9963 -8.637232e-02 8.637232e-02 0.9963 -5.4989 9.3361)" class="st0" cx="105.1" cy="68.2" rx="0.4" ry="0.4"/>
																<path class="st8" d="M102.9,63.5c0,0,2.8-3.5,5.5-3c2.7,0.5,3.4,3.7,3.4,3.7C107.4,61.1,102.9,63.5,102.9,63.5z"/>
																<path class="st29" d="M102.9,63.5c0.1-0.1,0.2-0.2,0.6-0.3c0.1-0.1,0.2-0.1,0.4-0.2c0.2,0,0.4-0.1,0.6-0.2
																	c0.1,0,0.2-0.1,0.3-0.1c0.2,0,0.3-0.1,0.4-0.1c0.3-0.1,0.5-0.2,0.8-0.2c0.1-0.1,0.3-0.1,0.4-0.1s0.1,0,0.2,0h0.2
																	c0.1,0,0.3,0,0.4,0c0.2,0,0.4,0,0.5,0s0.3,0,0.4,0c0.1,0.1,0.3,0.1,0.4,0.1c0.3,0,0.5,0.1,0.8,0.2s0.6,0.2,0.8,0.3
																	c0.1,0.1,0.2,0.1,0.3,0.2c0.1,0.1,0.2,0.1,0.3,0.2c0.2,0.1,0.4,0.2,0.5,0.3c0.2,0.1,0.3,0.2,0.4,0.3
																	c0.2,0.2,0.3,0.3,0.3,0.3s-0.2-0.1-0.4-0.2c-0.1-0.1-0.2-0.1-0.4-0.2c-0.2-0.1-0.4-0.1-0.6-0.2
																	c-0.2,0-0.5-0.1-0.7-0.2c-0.2,0-0.3-0.1-0.4-0.1c-0.1-0.1-0.1-0.1-0.2-0.1s-0.1,0-0.2,0c-0.2-0.1-0.5-0.2-0.8-0.2
																	c-0.1-0.1-0.3-0.1-0.4-0.1s-0.3,0-0.4,0s-0.3,0-0.4,0s-0.3,0-0.4,0c-0.3,0-0.5,0-0.8,0S105.2,63,105,63
																	c-0.3,0-0.5,0.1-0.7,0.1c-0.4,0.1-0.8,0.2-1,0.3C103,63.4,102.9,63.5,102.9,63.5L102.9,63.5z"/>
															</g>
															<g>
																<path class="st8" d="M86.3,72.5c1.4,0.5,1.2,2.4-2,3.1c-3.4,0.8-5.8-1.5-6-2.6c-0.4-1.5,1-1.2,1-1.2
																	S84.9,72,86.3,72.5z"/>
																
																	<ellipse transform="matrix(0.9962 -8.682409e-02 8.682409e-02 0.9962 -5.7511 7.4189)" class="st0" cx="82.4" cy="69.8" rx="4.9" ry="5.2"/>
																<path class="st26" d="M78.2,71.6c0.8,1.9,2.6,3.2,4.7,3c2.6-0.2,4.4-2.6,4.2-5.3c-0.1-1-0.5-1.9-1-2.6
																	c0.1,0.5,0.3,1,0.3,1.5c0.2,2.7-1.7,5.1-4.2,5.3C80.6,73.7,79.1,72.9,78.2,71.6z"/>
																
																	<ellipse transform="matrix(0.9963 -8.642901e-02 8.642901e-02 0.9963 -5.7447 7.3247)" class="st27" cx="81.7" cy="70" rx="2.7" ry="2.8"/>
																
																	<ellipse transform="matrix(0.9962 -8.657930e-02 8.657930e-02 0.9962 -5.7538 7.339)" class="st28" cx="81.7" cy="70" rx="1.6" ry="1.7"/>
																
																	<ellipse transform="matrix(0.9963 -8.585726e-02 8.585726e-02 0.9963 -5.5729 7.3872)" class="st0" cx="83.1" cy="68.5" rx="0.8" ry="0.8"/>
																
																	<ellipse transform="matrix(0.9963 -8.591702e-02 8.591702e-02 0.9963 -5.8091 7.1653)" class="st0" cx="80.3" cy="71.1" rx="0.4" ry="0.4"/>
																<path class="st8" d="M86,65.7c0,0-3.4-2.9-5.9-2c-2.5,0.9-2.7,4.2-2.7,4.2C81.1,64.2,86,65.7,86,65.7z"/>
																<path class="st29" d="M86,65.7c-0.2-0.1-0.3-0.1-0.5-0.1c-0.1,0-0.2-0.1-0.4-0.1s-0.4-0.1-0.6-0.1
																	c-0.1-0.1-0.2-0.1-0.3-0.1c-0.2,0-0.3,0-0.4,0c-0.3,0-0.5,0-0.8,0c-0.1,0-0.3,0-0.4,0s-0.1,0-0.2,0h-0.2
																	c-0.1,0.1-0.3,0.1-0.4,0.1s-0.3,0.1-0.4,0.1s-0.3,0-0.4,0.1c-0.1,0-0.3,0.1-0.4,0.1c-0.3,0.1-0.5,0.3-0.8,0.4
																	c-0.3,0.1-0.5,0.3-0.7,0.4c-0.1,0.1-0.2,0.1-0.3,0.2c-0.1,0.1-0.2,0.1-0.3,0.2c-0.2,0.1-0.4,0.3-0.5,0.4
																	c-0.1,0.1-0.2,0.2-0.3,0.3c-0.2,0.2-0.3,0.3-0.3,0.3s0.1,0,0.3-0.2c0.1-0.1,0.3-0.2,0.4-0.3
																	c0.1-0.1,0.3-0.2,0.5-0.3c0.2-0.1,0.4-0.2,0.6-0.3c0.1-0.1,0.2-0.1,0.3-0.2c0.1,0,0.1-0.1,0.2-0.1s0.1-0.1,0.2-0.1
																	c0.3-0.1,0.5-0.2,0.8-0.3c0.1,0,0.3-0.1,0.4-0.1s0.3-0.1,0.4-0.1s0.3-0.1,0.4-0.1c0.1-0.1,0.3-0.1,0.4-0.1
																	c0.3,0,0.5-0.1,0.8-0.1s0.6,0,0.8,0s0.5,0,0.7,0c0.4,0,0.7,0.1,1,0.1S86,65.7,86,65.7L86,65.7z"/>
															</g>
															<path class="st30" d="M96.2,73.8c2.3,2.3,0.4,4.1,0.4,4.1C99.5,76.9,98.7,74.1,96.2,73.8z"/>
															<g>
																<g>
																	<g>
																		<path class="st20" d="M71.3,58.5c-5.8,4.6-8,9.8-7.7,18.6c-7.6-8.8-12.1-25.4-8-34.9c2.4-5.5,9-11.8,18.5-11.9
																			c16.1-11.8,38.2-5.4,45.8,13.7c4.5,11.2,3,26.2-1.3,31.8c3.2-12.6-0.4-21.9-15.6-24.1
																			c-12.9-1.9-22.8-7.6-22.8-7.6C79.3,51.1,77.1,54.1,71.3,58.5z"/>
																	</g>
																	<g>
																		<path class="st19" d="M103.4,50c15.3,2.2,19.3,11.3,16.4,23.8c0.4-0.9,0.8-2,1.2-3.1c1.2-6.4,1.5-16.5-4.2-19.8
																			c-7.1-4.2-32.6-6.6-38.7-12.1c-1,6.5-7.3,12.6-12.8,17.3c-5.5,4.8-4.5,15.7-4.5,15.7l1.9,0.4
																			c0.5-6.6,2.9-11.1,7.9-15c6-4.7,8.2-7.7,9.2-15C79.8,42.2,90,48.1,103.4,50z"/>
																	</g>
																	<g>
																		<path class="st31" d="M92.1,30.6c0,0-8.6,0.6-10.2,2.3c3.6-1.8,14.2-1.3,23.8,1.2C94.8,28.6,88,28.4,88,28.4
																			s7.7-0.2,11.5-0.1c-16.1-4.5-21.8,1.2-21.8,1.2C82.9,27.9,92.1,30.6,92.1,30.6z"/>
																	</g>
																	<g>
																		<path class="st31" d="M63.9,38c2-1.5,10.8-2.4,10.8-2.4s-5.9,1.9-7.5,6.5c5-4.8,9.3-4.4,9.3-4.4
																			s-5.2,5.9-10.2,11.5c1.2-3.6,5.7-8.9,5.7-8.9S62.7,46.4,56.8,56c1.5-10.4,7.8-15.8,7.8-15.8s-3-0.5-9,7.4
																			C58,35.9,67.8,32.4,71.3,32.4C71.3,32.4,68.1,34.7,63.9,38z"/>
																	</g>
																</g>
															</g>
															<g>
																<g>
																	<g>
																		<path class="st19" d="M112.1,59.2c0,0-1.2-2.9-4.4-2.8c-2.3,0.1-1.6,2.4-0.3,2.3
																			C110.8,58.4,112.1,59.2,112.1,59.2z"/>
																	</g>
																</g>
															</g>
															<g>
																<g>
																	<path class="st19" d="M76.3,62.7c0,0,0.6-3.5,3.6-3.9c2.2-0.3,1.6,2,0.5,2.3C77.3,61.9,76.3,62.7,76.3,62.7z"/>
																</g>
															</g>
															<g>
																<g>
																	<g>
																		<path class="st32" d="M97.1,83.6c-1.8-1.4-7.5,1.1-11.1,1.1c1.9,5.9,4.4,10,11.2,9c6.6-1,8-5.6,8.4-11.6
																			C102.1,83.4,98.7,81.7,97.1,83.6z"/>
																	</g>
																</g>
																<g>
																	<g>
																		<g>
																			<g>
																				<path class="st33" d="M95.9,84.8c-3.8,0.5-7.7,0.4-9.9-0.1c3.6,5.8,6.1,6.9,10.8,6.3c4.7-0.6,7.1-2.4,8.8-8.9
																					C103.7,83.3,99.9,84.3,95.9,84.8z"/>
																			</g>
																		</g>
																	</g>
																</g>
																<path class="st0" d="M87.4,85c0.1,0.1,0.2,0.3,0.4,0.4c2.2,1.8,7.3,1.8,10.3,1.3c3.1-0.5,4.2-1.4,5.6-3
																	c0.2-0.3,0.3-0.6,0.5-0.9C99.9,84.5,91.8,85.4,87.4,85z"/>
																<path class="st34" d="M93.6,91.1c1,0.1,2.1,0,3.2-0.1c1.1-0.2,2.2-0.4,3.2-0.8c0.9-0.4,1.7-0.9,2.4-1.6
																	c-1.2-0.9-5-1.1-6.8,0.1c-2.1-0.5-3.6,0.2-4.3,1.6C92,90.7,92.8,90.9,93.6,91.1z"/>
																<path class="st35" d="M93.8,90.2c0.7,0,2-0.4,1.6-0.9c-0.3-0.4-1.7-0.3-2.3,0.1C92.7,89.7,93,90.2,93.8,90.2z"/>
																<path class="st36" d="M101.3,91.4c0.7-0.3,1.6-1.2,1.1-1.5c-0.4-0.3-1.6,0.4-2,1C100.2,91.4,100.6,91.7,101.3,91.4z
																	"/>
																<path class="st36" d="M99.3,83.7c0.4,0,1.1-0.1,0.9-0.4c-0.2-0.2-0.9-0.2-1.2,0C98.7,83.4,98.9,83.7,99.3,83.7z"/>
															</g>
															<path class="st31" d="M98.6,37.7c0,0-2.3-1.4-5.3-3.1c9.7,0.9,15.2,6.6,15.2,6.6s-6.4-2.3-8.7-1.2
																c4.9,1.6,12.1,2.2,15.3,7.9c-2.2-2.5-7.1-3.9-15.1-5.6s-15.9-5.5-15.9-5.5C89.5,36,98.6,37.7,98.6,37.7z"/>
															<g>
																<path class="st7" d="M67.4,80.7c-0.5,4.1-5.3,4.7-8.7,0.7c-3.3-4-3.4-11.6,0.9-12.2c4.1-0.5,5.7,4,5.7,4L67.4,80.7z
																	"/>
																<path class="st8" d="M59.3,81c3.2,3.7,7.7,3.1,8.2-0.7c-1.4,3-5.3,3.4-8-0.8c-2-3.1-2.7-8.9,1.3-9.7
																	c0.7-0.1,1.3,0,1.9,0.3c-0.7-0.4-1.6-0.6-2.6-0.5C56.1,70.1,56.2,77.2,59.3,81z"/>
																<path class="st23" d="M61.8,74.1c-1.7,0.3-2.2,1.5-1.8,3.1c1.4-2.8,3.2-1.6,2.8,3.7c2.8-4.7-1-10.9-3.5-9.4
																	C59.3,71.5,61.1,72.1,61.8,74.1z"/>
															</g>
														</g>
													</g>
												</g>
											</g>
										</g>
									</g>
								</g>
							</g>
						</g>
					</g>
				</g>
			</g>
		</g>
	</g>
</g>
</svg>
