<?xml version="1.0" encoding="utf-8"?>
<!-- Generator: Adobe Illustrator 21.0.0, SVG Export Plug-In . SVG Version: 6.00 Build 0)  -->
<svg version="1.1" id="Layer_1" xmlns="http://www.w3.org/2000/svg" xmlns:xlink="http://www.w3.org/1999/xlink" x="0px" y="0px"
	 viewBox="0 0 180 180" style="enable-background:new 0 0 180 180;" xml:space="preserve">
<style type="text/css">
	.st0{fill:#FFFFFF;}
	.st1{display:none;}
	.st2{display:inline;}
	.st3{fill:url(#SVGID_1_);}
	.st4{fill:#508906;}
	.st5{fill:#BA4582;}
	.st6{clip-path:url(#SVGID_4_);}
	.st7{clip-path:url(#SVGID_6_);}
	.st8{fill:#FBC6A4;}
	.st9{fill:#EAAD85;}
	.st10{fill:#CE7754;}
	.st11{fill:#E76BA7;}
	.st12{fill:#7D92A3;}
	.st13{fill:#627684;}
	.st14{fill:#495967;}
	.st15{fill:#ABB6C3;}
	.st16{fill:#6A7F8E;}
	.st17{fill:#E98FBB;}
	.st18{fill:#D35592;}
	.st19{fill:#613E24;}
	.st20{fill:#73492B;}
	.st21{fill:#344B56;}
	.st22{fill:#263B44;}
	.st23{fill:#D5956A;}
	.st24{fill:#F8AF9A;}
	.st25{fill:#FBD3C4;}
	.st26{fill:#DDDFE0;}
	.st27{fill:#73BBD9;}
	.st28{fill:#231F20;}
	.st29{fill:#412820;}
	.st30{fill:#DDA078;}
	.st31{fill:#865D3E;}
	.st32{fill:#F6A094;}
	.st33{fill:#4D1F1C;}
	.st34{fill:#EC756C;}
	.st35{fill:#F48F87;}
	.st36{fill:#FBD6D1;}
</style>
<rect class="st0" width="180" height="180"/>
<rect class="st0" width="180" height="180"/>
<g>
	<g>
		<g>
			<g class="st1">
				<g class="st2">
					<g>
						
							<radialGradient id="SVGID_1_" cx="96.3333" cy="-108" r="167.1662" gradientTransform="matrix(1 0 0 1 0 192)" gradientUnits="userSpaceOnUse">
							<stop  offset="0.173" style="stop-color:#FFFFFF"/>
							<stop  offset="1" style="stop-color:#36CDFF;stop-opacity:0.3"/>
						</radialGradient>
						<rect id="SVGID_2_" x="0.4" y="0.1" class="st3" width="180" height="180"/>
					</g>
				</g>
			</g>
			<g>
				<g>
					<g>
						<path class="st4" d="M168.9,173.6h-2.6V173h2.6V173.6z M163.1,173.6h-2.6V173h2.6V173.6z M157.3,173.6h-2.6V173h2.6V173.6z
							 M151.5,173.6H149V173h2.6v0.6H151.5z M145.8,173.6h-2.6V173h2.6V173.6z M140,173.6h-2.6V173h2.6V173.6z M134.2,173.6h-2.6
							V173h2.6V173.6z M128.5,173.6h-2.6V173h2.6V173.6z M122.7,173.6h-2.6V173h2.6V173.6z M116.9,173.6h-2.6V173h2.6V173.6z
							 M111.2,173.6h-2.6V173h2.6V173.6z M105.4,173.6h-2.6V173h2.6V173.6z M99.6,173.6H97V173h2.6V173.6z M93.9,173.6h-2.6V173h2.6
							V173.6z M88.1,173.6h-2.6V173h2.6V173.6z M82.3,173.6h-2.6V173h2.6V173.6z M76.5,173.6H74V173h2.6L76.5,173.6L76.5,173.6z
							 M70.8,173.6h-2.6V173h2.6V173.6z M65,173.6h-2.6V173H65V173.6z M59.2,173.6h-2.6V173h2.6V173.6z M53.5,173.6h-2.6V173h2.6
							V173.6z M47.7,173.6h-2.6V173h2.6V173.6z M41.9,173.6h-2.6V173h2.6V173.6z M36.2,173.6h-2.6V173h2.6V173.6z M30.4,173.6h-2.6
							V173h2.6V173.6z M24.6,173.6H22V173h2.6V173.6z M18.9,173.6h-2.6V173h2.6V173.6z M13.1,173.6H12c-0.5,0-1-0.1-1.5-0.2l0.2-0.6
							c0.4,0.1,0.9,0.2,1.3,0.2h1.1V173.6z M171.5,172.8l-0.3-0.5c0.7-0.4,1.2-1,1.6-1.8l0.6,0.3
							C172.9,171.6,172.3,172.3,171.5,172.8z M7.8,171.3c-0.5-0.8-0.8-1.7-0.8-2.6h0.6c0,0.8,0.3,1.6,0.7,2.2L7.8,171.3z
							 M173.9,167.5h-0.6V165h0.6V167.5z M7.6,165.5H6.9V163h0.6L7.6,165.5L7.6,165.5z M173.9,161.8h-0.6v-2.6h0.6V161.8z
							 M7.6,159.8H6.9v-2.6h0.6L7.6,159.8L7.6,159.8z M173.9,156h-0.6v-2.6h0.6V156z M7.6,154H6.9v-2.6h0.6L7.6,154L7.6,154z
							 M173.9,150.2h-0.6v-2.6h0.6V150.2z M7.6,148.2H6.9v-2.6h0.6L7.6,148.2L7.6,148.2z M173.9,144.4h-0.6v-2.6h0.6V144.4z
							 M7.6,142.4H6.9v-2.6h0.6L7.6,142.4L7.6,142.4z M173.9,138.7h-0.6v-2.6h0.6V138.7z M7.6,136.7H6.9v-2.6h0.6L7.6,136.7
							L7.6,136.7z M173.9,132.9h-0.6v-2.6h0.6V132.9z M7.6,130.9H6.9v-2.6h0.6L7.6,130.9L7.6,130.9z M173.9,127.1h-0.6v-2.6h0.6
							V127.1z M7.6,125.1H6.9v-2.6h0.6L7.6,125.1L7.6,125.1z M173.9,121.4h-0.6v-2.6h0.6V121.4z M7.6,119.4H6.9v-2.6h0.6L7.6,119.4
							L7.6,119.4z M173.9,115.6h-0.6V113h0.6V115.6z M7.6,113.6H6.9V111h0.6L7.6,113.6L7.6,113.6z M173.9,109.8h-0.6v-2.6h0.6V109.8
							z M7.6,107.8H6.9v-2.6h0.6L7.6,107.8L7.6,107.8z M173.9,104.1h-0.6v-2.6h0.6V104.1z M7.6,102.1H6.9v-2.6h0.6L7.6,102.1
							L7.6,102.1z M173.9,98.3h-0.6v-2.6h0.6V98.3z M7.6,96.3H6.9v-2.6h0.6L7.6,96.3L7.6,96.3z M173.9,92.5h-0.6V90h0.6V92.5z
							 M7.6,90.5H6.9V88h0.6L7.6,90.5L7.6,90.5z M173.9,86.8h-0.6v-2.6h0.6V86.8z M7.6,84.8H6.9v-2.6h0.6L7.6,84.8L7.6,84.8z
							 M173.9,81h-0.6v-2.6h0.6V81z M7.6,79H6.9v-2.6h0.6L7.6,79L7.6,79z M173.9,75.2h-0.6v-2.6h0.6V75.2z M7.6,73.2H6.9v-2.6h0.6
							L7.6,73.2L7.6,73.2z M173.9,69.4h-0.6v-2.6h0.6V69.4z M7.6,67.4H6.9v-2.6h0.6L7.6,67.4L7.6,67.4z M173.9,63.7h-0.6v-2.6h0.6
							V63.7z M7.6,61.7H6.9v-2.6h0.6L7.6,61.7L7.6,61.7z M173.9,57.9h-0.6v-2.6h0.6V57.9z M7.6,55.9H6.9v-2.6h0.6L7.6,55.9L7.6,55.9
							z M173.9,52.1h-0.6v-2.6h0.6V52.1z M7.6,50.1H6.9v-2.6h0.6L7.6,50.1L7.6,50.1z M173.9,46.4h-0.6v-2.6h0.6V46.4z M7.6,44.4H6.9
							v-2.6h0.6L7.6,44.4L7.6,44.4z M173.9,40.6h-0.6V38h0.6V40.6z M7.6,38.6H6.9V36h0.6L7.6,38.6L7.6,38.6z M173.9,34.8h-0.6v-2.6
							h0.6V34.8z M7.6,32.8H6.9v-2.6h0.6L7.6,32.8L7.6,32.8z M173.9,29.1h-0.6v-2.6h0.6V29.1z M7.6,27.1H6.9v-2.6h0.6L7.6,27.1
							L7.6,27.1z M173.9,23.3h-0.6v-2.6h0.6V23.3z M7.6,21.3H6.9v-2.6h0.6L7.6,21.3L7.6,21.3z M173.9,17.5h-0.6V15h0.6V17.5z
							 M7.6,15.5H6.9V13h0.6L7.6,15.5L7.6,15.5z M173.9,11.8h-0.6v-0.1c0-0.8-0.2-1.5-0.6-2.2l0.6-0.3c0.4,0.8,0.7,1.6,0.7,2.5
							L173.9,11.8L173.9,11.8z M7.9,9.9L7.3,9.7c0.4-0.9,1-1.6,1.7-2.1l0.4,0.5C8.8,8.6,8.2,9.2,7.9,9.9z M170.4,7.6
							c-0.5-0.2-1-0.3-1.6-0.3H168V6.6h0.8c0.6,0,1.2,0.1,1.8,0.3L170.4,7.6z M164.8,7.3h-2.6V6.6h2.6V7.3z M159,7.3h-2.6V6.6h2.6
							V7.3z M153.3,7.3h-2.6V6.6h2.6V7.3z M147.5,7.3h-2.6V6.6h2.6V7.3z M141.7,7.3h-2.6V6.6h2.6V7.3z M136,7.3h-2.6V6.6h2.6V7.3z
							 M130.2,7.3h-2.6V6.6h2.6V7.3z M124.4,7.3h-2.6V6.6h2.6V7.3z M118.6,7.3H116V6.6h2.6V7.3z M112.9,7.3h-2.6V6.6h2.6V7.3z
							 M107.1,7.3h-2.6V6.6h2.6V7.3z M101.3,7.3h-2.6V6.6h2.6V7.3z M95.6,7.3H93V6.6h2.6V7.3z M89.8,7.3h-2.6V6.6h2.6V7.3z M84,7.3
							h-2.6V6.6H84V7.3z M78.3,7.3h-2.6V6.6h2.6V7.3z M72.5,7.3h-2.6V6.6h2.6V7.3z M66.7,7.3h-2.6V6.6h2.6V7.3z M61,7.3h-2.6V6.6H61
							V7.3z M55.2,7.3h-2.6V6.6h2.6V7.3z M49.4,7.3h-2.6V6.6h2.6V7.3z M43.6,7.3H41V6.6h2.6V7.3z M37.9,7.3h-2.6V6.6h2.6V7.3z
							 M32.1,7.3h-2.6V6.6h2.6V7.3z M26.3,7.3h-2.6V6.6h2.6V7.3z M20.6,7.3H18V6.6h2.6V7.3z M14.8,7.3h-2.6V6.6h2.6
							C14.8,6.6,14.8,7.3,14.8,7.3z"/>
					</g>
				</g>
			</g>
		</g>
	</g>
</g>
<g>
	<path class="st5" d="M110.9,95.7h-5.7c-2.4,0-3.6,0.3-3.6,0.8c0,0.3,0.7,0.7,2,1.2c1.8,0.6,3.1,1.1,3.8,1.5c1.3,0.8,2,1.9,2,3.2
		c0,2.2-2,4-5.9,5.4c-3.1,1.1-6.1,1.6-9,1.6c-2.6,0-4.9-0.7-6.9-2.2c-2.2-1.6-3.3-3.6-3.3-5.9c0-1.7,0.3-3.4,0.8-4.9
		c0.3-0.9,1.1-2.5,2.2-4.6l0.7,0.3c-0.9,2.2-1.4,3.9-1.4,5c0,4.8,4,7.2,12.1,7.2c1.3,0,2.9-0.1,4.6-0.4c2.4-0.4,3.7-0.8,3.7-1.4
		c0-0.4-0.6-0.5-1.7-0.5c-4.7,0-7.1-1.2-7.1-3.5c0-2.2,0.8-4.2,2.3-5.8c1.6-1.6,3.5-2.5,5.8-2.5h4.4v5.5
		C110.7,95.7,110.9,95.7,110.9,95.7z M101.6,112l-2.1,3.2l-3.2-2.1l-1.6,2.8l-3.5-2.4l2.1-3.3l3.1,2.3l1.9-3L101.6,112z"/>
	<path class="st5" d="M121.9,95.7h-3.7c-1.7,0-2.9-1-3.7-3c-1,2-2.2,3-3.6,3h-1.8v-5.5c2.2,0,3,0,2.5,0c1.2,0,2-0.2,2.3-0.6
		c0.1-0.1,0.2-0.9,0.2-2.5l0.3,0.1c0.2,1.6,1.2,2.5,2.9,2.9c0.5,0.1,2,0.2,4.6,0.2C121.9,90.3,121.9,95.7,121.9,95.7z M119.7,81.7
		l-1.9,3.3l-3.2-2.2l-1.6,2.8l-3.5-2.5l2.1-3.3l3.1,2.4l1.9-3L119.7,81.7z"/>
	<path class="st5" d="M125.9,73.1v0.4c0,1.6,0.3,4,0.9,7.2s0.9,5.6,0.9,7.2c0,2-0.4,3.7-1.2,5.2c-1,1.8-2.5,2.6-4.4,2.6h-1.8v-5.5
		c1.9,0,2.9-0.1,3.2-0.2c1-0.2,1.4-1,1.4-2.3c0-1.9-0.4-4.8-1.2-8.6c-0.9-4.2-1.3-7.1-1.4-8.9c-0.2-0.2-0.4-0.5-0.6-0.9
		c0.6-2.1,1.4-3.4,2.6-4c0.1,1.2,0.6,2.3,1.6,3.2c1,0.9,2.1,1.2,3.4,1l-2.4,4L125.9,73.1z"/>
	<path class="st5" d="M143.1,95.7h-3.7c-1.7,0-3-0.7-3.8-2.1c-0.7-1.1-1.1-3.2-1.2-6.4c0-1.3-0.3-3.7-0.7-7.2
		c-0.4-3.2-0.7-5.6-0.7-7.2c0-0.5,0-0.9,0.1-1.1c0-0.2,1-1.1,2.8-2.5c0,0.1,0.2,3,0.7,8.5c0.4,4.9,0.7,8,0.7,9
		c0,1.2,0.2,2.1,0.6,2.7c0.4,0.6,1.3,0.9,2.5,0.9c-1.9,0-0.9-0.1,2.8-0.1v5.5C143.2,95.7,143.1,95.7,143.1,95.7z"/>
	<path class="st5" d="M165.2,83.1l-0.6,4.3c-0.7,0.1-1.8,0.2-3.1,0.2c-2.6,0-5.1,0.5-7.3,1.6c-1.1,0.5-2.6,1.5-4.5,3
		s-3.4,2.4-4.4,2.9c-0.7,0.4-2.1,0.6-4.1,0.6v-5.5c2.4,0,4.4-0.2,6-0.6c1.3-0.4,3.1-1.1,5.5-2.3c-2.1-1-3.8-1.5-5-1.5
		c-0.9,0-1.5,0.3-1.7,1h-3.4c0.5-2,1.1-3.5,1.7-4.4c1-1.4,2.3-2.1,4.1-2.1c1.1,0,2.7,0.4,4.9,1.2c3.4,1.3,6.5,1.9,9.2,1.9
		c0.3,0,0.8,0,1.4-0.1C164.4,83.1,164.9,83.1,165.2,83.1z M159.3,75.4l-1.9,3.3l-3.4-2.4l2-3.3L159.3,75.4z"/>
</g>
<g>
	<g>
		<g>
			<g>
				<g>
					<g>
						<defs>
							<ellipse id="SVGID_3_" cx="51.4" cy="60.7" rx="110.9" ry="100"/>
						</defs>
						<clipPath id="SVGID_4_">
							<use xlink:href="#SVGID_3_"  style="overflow:visible;"/>
						</clipPath>
						<g class="st6">
							<g>
								<g>
									<g>
										<g>
											<g>
												<defs>
													<ellipse id="SVGID_5_" cx="51.4" cy="60.7" rx="110.9" ry="100"/>
												</defs>
												<clipPath id="SVGID_6_">
													<use xlink:href="#SVGID_5_"  style="overflow:visible;"/>
												</clipPath>
												<g class="st7">
													<g>
														<g>
															<g>
																<path class="st8" d="M20.3,136.9c-2.9,20.3-15.4,54.4-15.4,54.4s-5.2-0.4-5.3,1.3c-0.1,1.6,2.9,1.8,2.9,1.8
																	s-2.7,3.4-3.9,4.8c-1.5,1.8-0.2,3,1.4,1.7c1-0.7,2.5-2.2,2.6-2.2c0,0.2-1.5,2.6-2.3,3.9c-1.2,1.9,0.9,2.9,1.9,1.2
																	c0.3-0.6,2.3-3.7,2.4-3.8c-0.1,0.2-1.2,3-1.6,4.3c-0.5,1.5,1.1,2.2,2,0.6c0.4-0.7,1.8-3.9,1.9-4
																	c-0.1,0.7-1,3.4-0.1,3.9c0.9,0.4,1.7-1.2,2.3-3.7c1.8-3,2.3-6,1-7.9c7.4-14.8,16.8-57.2,16.8-57.2
																	S21.9,131.7,20.3,136.9z"/>
																<path class="st9" d="M20.1,142.5c0.1-2.3,1-4.5,0.9-5.8c3.3-0.9,5.1,1.6,5.1,1.6s-1.7,3-2,7.4
																	C23.6,142.2,20.7,139.8,20.1,142.5z"/>
																<path class="st10" d="M6.5,195.1c-1.5,1.6-3.3,0.6-4.2-0.2c-0.1-0.1-0.1-0.2,0-0.3c0.1-0.1,0.2-0.1,0.3,0
																	c0.7,0.7,2.3,1.5,3.5,0.3c0.1-0.1,0.2-0.1,0.3,0C6.5,195,6.5,195,6.5,195.1C6.5,195.2,6.4,195.2,6.5,195.1z"/>
															</g>
															<g>
																<path class="st8" d="M57.3,308c0.2,3,0,11-0.1,15.1c0,1.6,10.8,6.8,10.5,8.2c-0.8,3.8-14-3.7-14.7-5.5
																	c0.3-7.1,0.5-17.6,0.5-17.6S56,307.4,57.3,308z"/>
																<path class="st11" d="M63.8,330.4c2.8-0.4,1.1-2,1.1-2s7,4,8.9,5.9c1.8,1.8,1.9,3.6-2.3,3.6c-6.4,0-17.6-5.7-18.8-7
																	s-0.4-6.5,0.3-6.8C54.6,326.8,61,330.8,63.8,330.4z"/>
															</g>
															<g>
																<path class="st8" d="M39.6,310c0,0,0,15.6,0.1,18c0.1,2.4-0.7,9.8,3.2,9.8c2.9,0,1.3-7.7,0.9-10.3
																	c-0.1-3,0.1-17.7,0.1-17.7L39.6,310z"/>
																<path class="st11" d="M42.1,334.1c-2.4-0.2-2.5-8.1-2.5-8.1s-2.1,5.5-1.3,11.9c0.7,5.8,2.7,7.8,5.4,7.2
																	c3.3-0.7,3.1-8.7,2.3-12.4c-0.7-3.6-1.4-5.7-2.2-6.8C43.5,330.4,44.6,334.4,42.1,334.1z"/>
															</g>
															<path class="st8" d="M72.8,127c0,12.2,9.4,44.4,9.4,44.4s3.6-4,4.2-6c-4.1-12-7.9-40.7-7.9-40.7S75,124.3,72.8,127z"
																/>
															<path class="st9" d="M74.8,132.5c-0.7-1.8-1.2-4-1.7-5.4c2.2-2.5,4.8-2.3,4.8-2.3s0.4,3.1,1.3,5.3
																C76.8,127.1,74.7,131,74.8,132.5z"/>
															<g>
																<path class="st8" d="M47,99.6l0.6,5c0,0-4.3,1.6-8.2,3.2c0.9,2.5,5.1,5.1,12.9,4.4c7.8-0.7,8.3-6.4,8.3-6.4
																	s-2.4-0.5-7.8-1.5c-0.3-2.5-0.5-5-0.5-5L47,99.6z"/>
																<path class="st9" d="M52.3,99.2l-5.2,0.3l0.4,3.4c1.3,0.1,2.7,0.1,4.3,0c0.3,0,0.6-0.1,0.9-0.1
																	C52.5,100.9,52.3,99.3,52.3,99.2z"/>
															</g>
															<g>
																<path class="st12" d="M30.8,175.4c-4.8,10.6,3.7,78.5,3.9,83.9c0.2,5.4,1.5,17.3,2.3,50.7c1,2,8.7,1.8,9.5,0.1
																	c-0.2-10.1,3.1-67.5,7.6-97.3c-0.4,8.9-2.9,66-1.7,96.6c2,2,8,1.3,8.8-0.4c1-21.8,8.5-57.1,12.3-88
																	s1.2-46.7,1.2-46.7S35.5,164.9,30.8,175.4z"/>
																<path class="st13" d="M31.6,178.3c0,0-1.2,9.1-0.8,18.4c16-8.7,34.6-11.5,43.1-5.9c0.4-9.3-1-12.4-1-12.4
																	L31.6,178.3z"/>
																<path class="st14" d="M59.6,261.1c-0.1-0.1-0.1-0.2-0.1-0.3c0.1-0.1,0.2-0.1,0.3-0.1c4.1,2,6.3,0.2,6.3,0.2
																	c0.1-0.1,0.2-0.1,0.3,0c0.1,0.1,0.1,0.2,0,0.3c-0.1,0-0.7,0.6-2,0.8C63.2,262.2,61.7,262.1,59.6,261.1z"/>
																<path class="st14" d="M40,260.9c-0.1-0.1-0.1-0.2-0.1-0.3c0.1-0.1,0.2-0.1,0.3-0.1c4.1,2,6.3,0.2,6.3,0.2
																	c0.1-0.1,0.2-0.1,0.3,0c0.1,0.1,0.1,0.2,0,0.3c-0.1,0-0.7,0.6-2,0.8C43.7,261.9,42.1,261.8,40,260.9z"/>
																<path class="st15" d="M63.7,258.1c-2.6-1.4-0.8-45.8,2.8-53c3.6-7.1,5.5,0,4.8,9.7C70,233.5,68.1,260.5,63.7,258.1z
																	"/>
																<path class="st15" d="M41.1,246.1c-2.9-0.7-5.3-20.8-4.9-31.2c0.4-10.4,7.7-9.9,8.9,0.9
																	C46.1,224.6,44.1,246.8,41.1,246.1z"/>
																<g>
																	<path class="st16" d="M53.6,264.9c-0.8,17,0.3,39,0.6,45.5c0.6,0.2,1.3,0.3,2,0.3l1.2-100.1
																		c-0.8,0.7-1.4,1.4-2.7,3C54.5,217.9,54.6,245,53.6,264.9z"/>
																</g>
															</g>
															<g>
																<path class="st5" d="M72.1,131.2c0,0,6.6-3,7-7c-2.1-5.1-7.6-12.7-9.3-14.2L72.1,131.2z"/>
																<path class="st11" d="M69.8,110c1.4,1.5,2.9,9.2,5.4,17.9c3.7,12.8,2.6,15.3-3.3,19c-0.4,4.7,2.3,19.5,5.2,33.1
																	c-14.7,8.6-36.6,9.1-50-0.2c12.6-34.1-2.1-57.3-3.5-60.4c2-3,6.9-7.5,16.6-12c2.1,2.4,5.5,4.3,11.2,3.9s9-3.6,8-5.9
																	C59.4,105.4,67.7,107.7,69.8,110z"/>
																<g>
																	<path class="st11" d="M59.4,105.4L59.4,105.4c0,0.1,0,0.1,0,0.2C59.5,105.5,59.5,105.5,59.4,105.4z"/>
																	<path class="st5" d="M27.9,177.5c-0.3,0.8-0.5,1.5-0.8,2.3c13.3,9.3,35.3,8.8,50,0.2c-0.1-0.6-0.3-1.2-0.4-1.9
																		C62.1,186.2,41,186.5,27.9,177.5z"/>
																</g>
																<path class="st5" d="M62,106.3c0.3,0.9-0.8,5.9-8.2,6.8c-10.8,1.3-15.5-4.6-15.5-4.6s1-1,3.1-1.4
																	c2.3,2,7.1,3.9,11.3,3.1c5.4-0.9,6.3-3.5,6.2-4.7C58.9,105.5,60.9,105.5,62,106.3z"/>
																<path class="st17" d="M70.2,133.2c4.3,1.4-2.1-14.3-4.6-13.4C65.6,119.8,63.9,131.2,70.2,133.2z"/>
																<path class="st18" d="M72.4,178.3c-14.1,7-33.9,2.8-42.1-1.8c6.8-17.4,2-36.6,2-36.6S36.9,181.1,72.4,178.3z"/>
																<path class="st5" d="M30.8,133.3c0,0-2.1,6.5-4.1,8.7c-3-0.2-7.8-2.8-8.9-5.5c1.4-7.3,4.9-16.5,6-17.3
																	C30.6,123.7,30.8,133.3,30.8,133.3z"/>
															</g>
														</g>
														<path class="st19" d="M47.8,38.3c-0.8-13.4-16-12.1-16.9-11.1c0.5,0.1,4.5-0.1,5.2,2.6c-4.6-3.4-15.8,1.5-16.6,8.7
															c-0.8,7.1,4.1,10.2,4.1,10.2S43.2,40.2,47.8,38.3z"/>
														<path class="st20" d="M37.1,27.6c2.3,0.6,7.5,2.4,8,8c-11-2.7-18.2,4.1-21.6,11.5c0-3.1,2.4-10.1,7.6-12.4
															c0,0-6.6-0.2-9.7,3.7c3.6-8.9,14.4-8.4,17.7-5.8C39.6,31.8,40.8,29.3,37.1,27.6z"/>
														<g>
															<path class="st8" d="M59.1,265.5c0,0,0,17.4,0.1,19.2c1.2,1,2.5,3,3.1,4c1,1.8,1.6,6.6-2.8,4.8s-5.5-4.8-5.2-5.8
																s0.1-21.7,0.1-21.7L59.1,265.5z"/>
															<path class="st9" d="M54.8,271.4c0,0,0,0.4-0.1,3.6c0.6-1.8,2.8-2.2,4,0c-0.1-0.2-0.1-3-0.1-3L54.8,271.4z"/>
														</g>
														<path class="st21" d="M68,299.3c-3.7,2.9-13-6.9-13.7-9.3c-0.7-2.3,0.1-4.8,0.1-4.8s2.9,6.3,6.8,5.6
															c2.3-0.4,1-2.2-1.5-5.5C64.7,289.6,70.9,297,68,299.3z"/>
														<path class="st22" d="M54.2,288.5c0,0.5,0.1,0.9,0.2,1.4c0.6,2.4,10,12.2,13.7,9.3c0.2-0.1,0.4-0.4,0.5-0.6
															C64.7,300.3,55.4,291.3,54.2,288.5z"/>
														<g>
															<path class="st8" d="M41.1,265.5c0,0,0,17.4-0.1,19.2c-1.2,1-2.5,3-3.1,4c-1,1.8-1.6,6.6,2.8,4.8s5.5-4.8,5.2-5.8
																S45.8,266,45.8,266L41.1,265.5z"/>
															<path class="st9" d="M45.3,271.4c0,0,0,0.4,0.1,3.6c-0.6-1.8-2.8-2.2-4,0c0.1-0.2,0.1-3,0.1-3L45.3,271.4z"/>
														</g>
														<path class="st9" d="M52.5,102.4c-0.7,0.3-1.5,0.5-2.3,0.5c-0.8,0.1-1.6,0-2.2-0.2c0.1-2.9-0.2-7.7-0.2-7.7l4.6-0.4
															C52.4,94.6,52.3,98.5,52.5,102.4z"/>
														<path class="st21" d="M32.1,299.3c3.7,2.9,13-6.9,13.7-9.3c0.7-2.3-0.1-4.8-0.1-4.8s-2.9,6.3-6.8,5.6
															c-2.3-0.4-1-2.2,1.5-5.5C35.4,289.6,29.3,297,32.1,299.3z"/>
														<path class="st22" d="M46,288.5c0,0.5-0.1,0.9-0.2,1.4c-0.6,2.4-10,12.2-13.7,9.3c-0.2-0.1-0.4-0.4-0.5-0.6
															C35.5,300.3,44.7,291.3,46,288.5z"/>
														<g>
															<g>
																<path class="st8" d="M70.3,80c0.9,2.6,4.1,2.3,5.7-0.7s0.7-8-2.2-7.8c-2.7,0.2-3.1,3.3-3.1,3.3L70.3,80z"/>
																<path class="st9" d="M75.7,79.1c-1.6,2.8-4.6,3-5.4,0.6c1.3,1.7,3.8,1.5,5-1.6c0.9-2.3,0.6-6.1-2.1-6.1
																	c-0.5,0-0.9,0.1-1.2,0.4c0.4-0.3,0.9-0.5,1.6-0.6C76.3,71.6,77.1,76.2,75.7,79.1z"/>
																<path class="st23" d="M73.2,74.9c1.1,0,1.5,0.7,1.5,1.8c-1.3-1.7-2.3-0.7-1.3,2.7c-2.5-2.6-0.8-7.1,1-6.5
																	C74.4,72.9,73.2,73.6,73.2,74.9z"/>
															</g>
															<path class="st8" d="M47.6,49.4c-22.9,0.5-27.1,23.9-20.5,37.2c4.9,9.9,17.2,15.5,25.8,14.6
																c8.4-0.8,15.1-7.7,18.9-16.7C78.5,69,70.5,48.9,47.6,49.4z"/>
															<g>
																<g>
																	<g>
																		<path class="st9" d="M31.6,68.7c-4.9,3.9-6.6,7.8-6.2,13.5c-6.5-7.6-5.9-21.5-1.6-29.3c3-5.5,5.6-8.5,13.7-8.6
																			c13.8-10.1,31-1.2,34.9,12.5c3.5,12.4,3.7,19.4,0,24.2c0.2-9.5-0.8-17.1-13.9-18.1c-12.3-1-17.7-5.2-17.7-5.2
																			C40,63.7,36.6,64.8,31.6,68.7z"/>
																	</g>
																</g>
															</g>
															<path class="st9" d="M24.3,75.4c0.2,3.7,1.2,7.3,2.7,10.4c4.9,9.9,17.2,15.5,25.8,14.6c8.4-0.8,15.1-7.7,18.9-16.7
																c2-4.8,2.1-9.9,1.4-14.8c0.3,4.5,0.2,8.9-1.6,13.2c-3.8,9-10.4,15.8-18.9,16.7c-8.6,0.9-20.9-4.6-25.8-14.6
																C25.5,81.6,24.7,78.6,24.3,75.4z"/>
															<path class="st24" d="M66.1,78.5c-2.8,1-4.1,0.5-4.5,2.2c-0.4,1.8,2.1,3.6,4.5,3.4c2.5-0.2,4.3-1.6,4.4-3.5
																S68.8,77.4,66.1,78.5z"/>
															
																<ellipse transform="matrix(2.345588e-02 -0.9997 0.9997 2.345588e-02 -13.0635 145.0224)" class="st25" cx="67.7" cy="79.2" rx="0.3" ry="0.4"/>
															<path class="st24" d="M38.4,81.2c3,0.7,4.3-0.1,5,1.6c0.7,1.8-1.6,4.1-4.1,4.3c-2.6,0.2-4.7-0.9-5.1-2.9
																S35.4,80.6,38.4,81.2z"/>
															
																<ellipse transform="matrix(0.9834 -0.1814 0.1814 0.9834 -14.429 7.9649)" class="st25" cx="36.3" cy="82.9" rx="0.4" ry="0.3"/>
															<g>
																<path class="st9" d="M59.7,76.3c-1.1,0.7-0.6,2.3,2.2,2.4c3,0.2,4.7-2.1,4.7-3.1c0.1-1.3-1-0.8-1-0.8
																	S60.9,75.7,59.7,76.3z"/>
																
																	<ellipse transform="matrix(0.9962 -8.666088e-02 8.666088e-02 0.9962 -6.1404 5.7036)" class="st0" cx="62.6" cy="73.6" rx="4.3" ry="4.5"/>
																<path class="st26" d="M58.8,73.8c0.2,2.3,2.1,4,4.3,3.8c2-0.2,3.4-1.8,3.6-3.8c-0.6,1.5-1.8,2.6-3.4,2.7
																	c-2.2,0.2-4.1-1.5-4.3-3.8c0-0.2,0-0.5,0-0.7C58.8,72.6,58.7,73.2,58.8,73.8z"/>
																
																	<ellipse transform="matrix(0.9962 -8.661952e-02 8.661952e-02 0.9962 -6.1455 5.6594)" class="st27" cx="62.1" cy="73.6" rx="2.3" ry="2.5"/>
																
																	<ellipse transform="matrix(0.9962 -8.681633e-02 8.681633e-02 0.9962 -6.1692 5.6697)" class="st28" cx="62.1" cy="73.8" rx="1.4" ry="1.5"/>
																
																	<ellipse transform="matrix(0.9962 -8.693235e-02 8.693235e-02 0.9962 -6.04 5.7664)" class="st0" cx="63.2" cy="72.2" rx="0.7" ry="0.7"/>
																
																	<ellipse transform="matrix(0.9963 -8.637232e-02 8.637232e-02 0.9963 -6.2146 5.5326)" class="st0" cx="60.8" cy="74.6" rx="0.4" ry="0.4"/>
																<path class="st9" d="M59.1,70.5c0,0,2.4-3,4.7-2.6c2.3,0.5,2.9,3.2,2.9,3.2C62.9,68.5,59.1,70.5,59.1,70.5z"/>
																<path class="st29" d="M59,70.5c0.1-0.1,0.2-0.1,0.5-0.2c0.1-0.1,0.3-0.1,0.4-0.2c0.2-0.1,0.3-0.1,0.5-0.2
																	c0.1,0,0.2-0.1,0.3-0.1s0.2-0.1,0.3-0.1c0.2,0,0.5-0.1,0.7-0.1s0.3,0,0.4,0c0.1,0,0.1,0,0.2,0h0.2
																	c0.1,0,0.3,0,0.4,0c0.1,0,0.3,0,0.4,0c0.1,0,0.3,0,0.4,0c0.1,0.1,0.3,0.1,0.4,0.1c0.2,0,0.5,0.1,0.7,0.2
																	c0.2,0,0.4,0.1,0.6,0.2c0.1,0,0.2,0,0.3,0.1c0.1,0,0.2,0.1,0.3,0.1c0.1,0.1,0.3,0.2,0.4,0.3c0.1,0,0.2,0.1,0.3,0.2
																	C66.9,70.9,67,71,67,71s-0.1,0-0.3-0.1c-0.1-0.1-0.3-0.1-0.4-0.2c-0.2-0.1-0.3-0.1-0.5-0.2s-0.4-0.1-0.6-0.2
																	c-0.1,0-0.2-0.1-0.3-0.1s-0.1,0-0.2,0c-0.1,0-0.1,0-0.2,0c-0.2,0-0.5-0.1-0.7-0.1C63.6,70,63.5,70,63.4,70
																	c-0.2,0-0.3,0-0.4,0c-0.2,0-0.3,0-0.4,0c-0.2,0-0.3,0-0.4,0c-0.2,0-0.5,0-0.7,0c-0.3,0.1-0.5,0.1-0.7,0.1
																	c-0.2,0-0.4,0.1-0.6,0.1c-0.4,0.1-0.7,0.1-0.9,0.2S59,70.5,59,70.5L59,70.5z"/>
															</g>
															<g>
																<path class="st9" d="M44.8,78.2c1.2,0.4,1,2.1-1.7,2.7c-2.9,0.6-4.9-1.4-5.1-2.3c-0.3-1.3,0.9-1,0.9-1
																	S43.6,77.8,44.8,78.2z"/>
																
																	<ellipse transform="matrix(0.9962 -8.682409e-02 8.682409e-02 0.9962 -6.4405 3.8921)" class="st0" cx="41.5" cy="76" rx="4.2" ry="4.5"/>
																<path class="st26" d="M37.8,77.5c0.6,1.7,2.2,2.8,4,2.6c2.2-0.2,3.8-2.2,3.6-4.5c0-0.8-0.3-1.6-0.8-2.2
																	c0.2,0.3,0.3,0.8,0.3,1.2c0.2,2.3-1.4,4.3-3.6,4.5C39.9,79.2,38.7,78.6,37.8,77.5z"/>
																
																	<ellipse transform="matrix(0.9963 -8.642901e-02 8.642901e-02 0.9963 -6.4296 3.8275)" class="st27" cx="41" cy="76.2" rx="2.3" ry="2.4"/>
																
																	<ellipse transform="matrix(0.9962 -8.657930e-02 8.657930e-02 0.9962 -6.4317 3.8259)" class="st28" cx="40.9" cy="76.1" rx="1.4" ry="1.4"/>
																
																	<ellipse transform="matrix(0.9963 -8.585726e-02 8.585726e-02 0.9963 -6.2609 3.8923)" class="st0" cx="42.1" cy="74.7" rx="0.7" ry="0.7"/>
																
																	<ellipse transform="matrix(0.9963 -8.591702e-02 8.591702e-02 0.9963 -6.4638 3.6961)" class="st0" cx="39.7" cy="76.9" rx="0.4" ry="0.4"/>
																<path class="st9" d="M44.5,72.4c0,0-2.8-2.5-5-1.7c-2.1,0.8-2.3,3.6-2.3,3.6C40.4,71.1,44.5,72.4,44.5,72.4z"/>
																<path class="st29" d="M44.6,72.4c-0.1-0.1-0.2-0.1-0.1-0.2c-0.1,0-0.2-0.1-0.4-0.1c-0.1,0-0.3-0.1-0.5-0.1
																	c-0.1,0-0.2,0-0.3,0s-0.2,0-0.3,0c-0.2,0-0.5,0-0.7,0s-0.3,0-0.4,0c-0.1,0-0.1,0-0.2,0h-0.2
																	c-0.1,0.1-0.3,0.1-0.4,0.1c-0.2,0-0.3,0.1-0.4,0.1c-0.2,0-0.3,0.1-0.4,0.1c-0.2,0-0.3,0.1-0.4,0.1
																	c-0.3,0.1-0.5,0.2-0.7,0.3c-0.2,0-0.4,0.2-0.6,0.3c-0.1,0.1-0.2,0.1-0.3,0.2c0,0.1-0.1,0.1-0.2,0.2
																	c-0.2,0.1-0.3,0.2-0.4,0.3c-0.1,0.1-0.2,0.2-0.3,0.3c-0.1,0.2-0.2,0.3-0.2,0.3s0.1-0.1,0.3-0.2
																	c0.1,0,0.2-0.1,0.3-0.2c0.1-0.1,0.2-0.2,0.4-0.3c0.1-0.1,0.3-0.2,0.5-0.3c0.1,0,0.2-0.1,0.3-0.1l0.1-0.1
																	c0.1-0.1,0.1-0.1,0.2-0.1c0.3,0,0.5-0.1,0.7-0.2c0.1,0,0.2-0.1,0.3-0.1c0.1-0.1,0.2-0.1,0.3-0.1
																	c0.2,0,0.3-0.1,0.4-0.1c0.2-0.1,0.3-0.1,0.4-0.1c0.2-0.1,0.5-0.1,0.7-0.1c0.3,0,0.5,0,0.7,0c0.2,0,0.4,0,0.6,0
																	c0.4,0.1,0.7,0.1,0.9,0.1S44.6,72.4,44.6,72.4L44.6,72.4z"/>
															</g>
															<path class="st30" d="M53.4,79.3c1.9,1.9,0.3,3.5,0.3,3.5C56.1,82,55.4,79.6,53.4,79.3z"/>
															<g>
																<g>
																	<g>
																		<path class="st20" d="M32,66.1c-4.9,3.9-6.8,8.4-6.6,15.9c-6.4-7.5-10.3-21.7-6.8-29.8c2-4.6,7.7-10,15.8-10.1
																			C48.1,32,67,37.5,73.5,53.8c3.8,9.6,2.6,22.4-1.1,27.2c2.8-10.8-0.3-18.7-13.3-20.6c-11.1-1.6-19.5-6.5-19.5-6.5
																			C38.8,59.9,37,62.5,32,66.1z"/>
																	</g>
																	<g>
																		<path class="st19" d="M59.4,59c13,2,16.5,9.7,14,20.4c0.4-0.8,0.8-1.6,1.1-2.6c1-5.4,1.3-14.1-3.6-16.9
																			c-6.1-3.5-27.8-5.6-33.1-10.3c-0.9,5.5-6.3,10.7-11,14.7c-4.7,4-3.8,13.4-3.8,13.4l1.6,0.3
																			c0.5-5.7,2.5-9.5,6.8-12.9c5.1-4,7.1-6.6,7.9-12.8C39.3,52.3,48,57.4,59.4,59z"/>
																	</g>
																	<g>
																		<path class="st31" d="M49.8,42.5c0,0-7.3,0.5-8.7,1.9c3.1-1.5,12.1-1.2,20.3,1c-9.3-4.7-15.1-4.8-15.1-4.8
																			s6.5-0.2,9.8-0.1c-13.8-3.8-18.6,1-18.6,1C41.9,40.1,49.8,42.5,49.8,42.5z"/>
																	</g>
																	<g>
																		<path class="st31" d="M25.5,48.8c1.7-1.4,9.3-2.1,9.3-2.1s-5,1.7-6.4,5.6c4.3-4.2,8-3.8,8-3.8s-4.4,5.1-8.7,9.9
																			c1.1-3,4.9-7.6,4.9-7.6s-7.9,5.2-13,13.4c1.3-8.9,6.7-13.5,6.7-13.5s-2.6-0.4-7.7,6.3C20.7,47,29,44,32,44
																			C32,44,29.3,45.9,25.5,48.8z"/>
																	</g>
																</g>
															</g>
															<g>
																<g>
																	<g>
																		<path class="st19" d="M66.9,66.9c0,0-1-2.5-3.7-2.4c-2,0-1.4,2-0.3,1.9C65.8,66.2,66.9,66.9,66.9,66.9z"/>
																	</g>
																</g>
															</g>
															<g>
																<g>
																	<path class="st19" d="M36.3,70c0,0,0.5-3,3.1-3.4c1.9-0.3,1.4,1.7,0.4,1.9C37.2,69.2,36.3,70,36.3,70z"/>
																</g>
															</g>
															<g>
																<g>
																	<g>
																		<path class="st32" d="M54.1,87.7c-1.5-1.3-6.4,0.9-9.5,0.9c1.7,5,3.8,8.6,9.6,7.7c5.6-0.8,6.8-4.8,7.2-9.9
																			C58.3,87.5,55.4,86.1,54.1,87.7z"/>
																	</g>
																</g>
																<g>
																	<g>
																		<g>
																			<g>
																				<path class="st33" d="M53.2,88.7c-3.3,0.4-6.6,0.4-8.5-0.1c3.1,5,5.2,5.9,9.2,5.4s6-2.1,7.5-7.6
																					C59.7,87.4,56.5,88.3,53.2,88.7z"/>
																			</g>
																		</g>
																	</g>
																</g>
																<path class="st0" d="M45.6,88.8c0.1,0.2,0.3,0.3,0.4,0.4c1.9,1.5,6.2,1.6,8.8,1.1s3.6-1.3,4.8-2.6
																	c0.2-0.2,0.4-0.4,0.5-0.7C56.5,88.5,49.6,89.3,45.6,88.8z"/>
																<path class="st34" d="M51,94c0.9,0.1,1.9,0,2.8-0.1c0.9-0.2,1.8-0.4,2.7-0.7c0.8-0.3,1.5-0.7,2.1-1.3
																	c-1-0.7-4.3-0.9-5.8,0.1c-1.8-0.4-3.1,0.2-3.7,1.4C49.7,93.8,50.4,94,51,94z"/>
																<path class="st35" d="M51.2,93.4c0.7,0,1.7-0.4,1.4-0.8c-0.2-0.4-1.4-0.3-1.9,0.1C50.3,92.9,50.5,93.3,51.2,93.4z"
																	/>
																<path class="st36" d="M57.6,94.3c0.6-0.2,1.4-0.9,1-1.2c-0.3-0.2-1.4,0.4-1.7,0.9C56.7,94.3,57.1,94.6,57.6,94.3z"
																	/>
																<path class="st36" d="M56,87.8c0.3,0.1,0.8-0.1,0.7-0.3s-0.7-0.2-1,0C55.5,87.6,55.6,87.8,56,87.8z"/>
															</g>
															<path class="st31" d="M55.4,48.4c0,0-2.1-1.2-4.6-2.6c8.3,0.7,13,5.6,13,5.6s-5.5-1.9-7.4-1
																c4.2,1.4,10.3,1.9,13.1,6.8c-1.9-2.1-6.1-3.3-12.9-4.8C49.8,51,43,47.7,43,47.7C47.6,47,55.4,48.4,55.4,48.4z"/>
															<g>
																<path class="st8" d="M28.7,85.2c-0.4,3.5-4.5,4-7.4,0.6s-3-9.9,0.7-10.4c3.5-0.5,4.9,3.4,4.9,3.4L28.7,85.2z"/>
																<path class="st9" d="M21.8,85.5c2.7,3.2,6.6,2.7,7-0.6c-1.2,2.6-4.5,2.9-6.8-0.7c-1.8-2.7-2.3-7.7,1.1-8.3
																	c0.6-0.1,1.1,0,1.6,0.2c-0.6-0.3-1.3-0.5-2.2-0.4C19,76.2,19.1,82.2,21.8,85.5z"/>
																<path class="st23" d="M23.9,79.7c-1.4,0.2-1.8,1.2-1.5,2.6c1.2-2.5,2.7-1.4,2.4,3.1c2.4-3.9-0.8-9.3-3-8
																	C21.8,77.4,23.3,77.9,23.9,79.7z"/>
															</g>
														</g>
													</g>
												</g>
											</g>
										</g>
									</g>
								</g>
							</g>
						</g>
					</g>
				</g>
			</g>
		</g>
	</g>
</g>
</svg>
