<?xml version="1.0" encoding="utf-8"?>
<!-- Generator: Adobe Illustrator 16.0.0, SVG Export Plug-In . SVG Version: 6.00 Build 0)  -->
<!DOCTYPE svg PUBLIC "-//W3C//DTD SVG 1.1//EN" "http://www.w3.org/Graphics/SVG/1.1/DTD/svg11.dtd">
<svg version="1.1" id="Capa_1" xmlns="http://www.w3.org/2000/svg" xmlns:xlink="http://www.w3.org/1999/xlink" x="0px" y="0px"
	 width="361.963px" height="512px" viewBox="75.019 0 361.963 512" enable-background="new 75.019 0 361.963 512"
	 xml:space="preserve">
<g>
	<g>
		<path fill="#DCF3CA" d="M175.482,164.568h-51.795c-4.142,0-7.5,3.357-7.5,7.5v51.796c0,4.144,3.358,7.5,7.5,7.5h51.795
			c4.142,0,7.5-3.356,7.5-7.5v-51.796C182.982,167.925,179.624,164.568,175.482,164.568z M167.982,216.364h-36.795v-36.796h36.795
			V216.364z"/>
	</g>
</g>
<g>
	<g>
		<path fill="#DCF3CA" d="M388.314,164.568H210.797c-4.142,0-7.5,3.357-7.5,7.5c0,4.144,3.358,7.5,7.5,7.5h177.516
			c4.144,0,7.502-3.356,7.502-7.5C395.814,167.925,392.456,164.568,388.314,164.568z"/>
	</g>
</g>
<g>
	<g>
		<path fill="#DCF3CA" d="M320.509,208.83H210.797c-4.142,0-7.5,3.356-7.5,7.5c0,4.143,3.358,7.5,7.5,7.5h109.712
			c4.142,0,7.5-3.357,7.5-7.5C328.009,212.187,324.65,208.83,320.509,208.83z"/>
	</g>
</g>
<g>
	<g>
		<path fill="#DCF3CA" d="M175.482,256.371h-51.795c-4.142,0-7.5,3.356-7.5,7.5v51.795c0,4.143,3.358,7.5,7.5,7.5h51.795
			c4.142,0,7.5-3.357,7.5-7.5v-51.795C182.982,259.728,179.624,256.371,175.482,256.371z M167.982,308.165h-36.795v-36.794h36.795
			V308.165z"/>
	</g>
</g>
<g>
	<g>
		<path fill="#DCF3CA" d="M388.314,256.371H210.797c-4.142,0-7.5,3.356-7.5,7.5c0,4.143,3.358,7.5,7.5,7.5h177.516
			c4.144,0,7.502-3.357,7.502-7.5C395.814,259.728,392.456,256.371,388.314,256.371z"/>
	</g>
</g>
<g>
	<g>
		<path fill="#DCF3CA" d="M260.439,300.632h-49.644c-4.142,0-7.5,3.356-7.5,7.5c0,4.143,3.358,7.5,7.5,7.5h49.644
			c4.144,0,7.5-3.357,7.5-7.5C267.939,303.989,264.582,300.632,260.439,300.632z"/>
	</g>
</g>
<g>
	<g>
		<path fill="#DCF3CA" d="M235.619,361.391H123.687c-4.142,0-7.5,3.356-7.5,7.5c0,4.143,3.358,7.5,7.5,7.5h111.932
			c4.142,0,7.5-3.357,7.5-7.5C243.119,364.747,239.761,361.391,235.619,361.391z"/>
	</g>
</g>
<g>
	<g>
		<path fill="#DCF3CA" d="M235.619,408.478H123.687c-4.142,0-7.5,3.357-7.5,7.5s3.358,7.5,7.5,7.5h111.932
			c4.142,0,7.5-3.357,7.5-7.5S239.761,408.478,235.619,408.478z"/>
	</g>
</g>
<g>
	<g>
		<path fill="#DCF3CA" d="M235.619,455.564H123.687c-4.142,0-7.5,3.357-7.5,7.5s3.358,7.5,7.5,7.5h111.932
			c4.142,0,7.5-3.357,7.5-7.5S239.761,455.564,235.619,455.564z"/>
	</g>
</g>
<g>
	<g>
		<path fill="#DCF3CA" d="M388.313,361.391H276.381c-4.142,0-7.5,3.356-7.5,7.5c0,4.143,3.358,7.5,7.5,7.5h111.932
			c4.144,0,7.5-3.357,7.5-7.5C395.813,364.747,392.455,361.391,388.313,361.391z"/>
	</g>
</g>
<g>
	<g>
		<path fill="#DCF3CA" d="M388.313,408.478H276.381c-4.142,0-7.5,3.357-7.5,7.5s3.358,7.5,7.5,7.5h111.932
			c4.144,0,7.5-3.357,7.5-7.5S392.455,408.478,388.313,408.478z"/>
	</g>
</g>
<g>
	<g>
		<path fill="#DCF3CA" d="M388.313,455.564H276.381c-4.142,0-7.5,3.357-7.5,7.5s3.358,7.5,7.5,7.5h111.932
			c4.144,0,7.5-3.357,7.5-7.5S392.455,455.564,388.313,455.564z"/>
	</g>
</g>
<g>
	<g>
		<path fill="#DCF3CA" d="M205.281,126.977l-37.304-95.663c-1.123-2.88-3.896-4.774-6.987-4.774c-3.091,0-5.865,1.896-6.987,4.774
			L116.7,126.977c-1.505,3.859,0.403,8.207,4.263,9.712c3.86,1.508,8.208-0.402,9.712-4.263l12.113-31.063h36.406l12.113,31.063
			c3.194,6.42,8.817,4.612,9.712,4.263C204.877,135.184,206.786,130.836,205.281,126.977z M148.636,86.362l12.354-31.681
			l12.354,31.681H148.636z"/>
	</g>
</g>
<g>
	<g>
		<path fill="#DCF3CA" d="M269.249,98.285h-16.416V81.869c0-4.144-3.358-7.5-7.5-7.5s-7.5,3.356-7.5,7.5v16.416h-16.416
			c-4.142,0-7.5,3.356-7.5,7.5c0,4.143,3.358,7.5,7.5,7.5h16.416v16.416c0,4.143,3.358,7.5,7.5,7.5s7.5-3.357,7.5-7.5v-16.416
			h16.416c4.142,0,7.5-3.357,7.5-7.5C276.749,101.642,273.391,98.285,269.249,98.285z"/>
	</g>
</g>
<g>
	<g>
		<path fill="#DCF3CA" d="M415.752,66.273l-45.044-45.045C357.02,7.539,338.816,0,319.458,0H110.771
			C91.057,0,75.019,16.038,75.019,35.752v348.927c0,4.143,3.358,7.5,7.5,7.5s7.5-3.357,7.5-7.5V35.752
			C90.019,24.31,99.328,15,110.771,15h201.187v77.098c0,18.156,14.771,32.927,32.927,32.927H398c4.143,0,7.5-3.356,7.5-7.5
			c0-4.143-3.357-7.5-7.5-7.5h-53.116c-9.885,0-17.927-8.042-17.927-17.927v-76.6c12.51,1.621,24.077,7.27,33.145,16.338
			l45.045,45.045c10.855,10.854,16.834,25.29,16.834,40.644v358.724c0,11.442-9.309,20.753-20.752,20.753H110.771
			c-11.443,0-20.752-9.311-20.752-20.753v-60.271c0-4.143-3.358-7.5-7.5-7.5s-7.5,3.357-7.5,7.5v60.271
			c0,19.715,16.038,35.752,35.752,35.752H401.23c19.713,0,35.752-16.037,35.752-35.752V117.524
			C436.98,98.164,429.442,79.963,415.752,66.273z"/>
	</g>
</g>
</svg>
