<?xml version="1.0" encoding="utf-8"?>
<!-- Generator: Adobe Illustrator 16.0.0, SVG Export Plug-In . SVG Version: 6.00 Build 0)  -->
<!DOCTYPE svg PUBLIC "-//W3C//DTD SVG 1.1//EN" "http://www.w3.org/Graphics/SVG/1.1/DTD/svg11.dtd">
<svg version="1.1" id="OBJECTS" xmlns="http://www.w3.org/2000/svg" xmlns:xlink="http://www.w3.org/1999/xlink" x="0px" y="0px"
	 width="439.659px" height="520.926px" viewBox="0 0 439.659 520.926" enable-background="new 0 0 439.659 520.926"
	 xml:space="preserve">
<g>
	<g>
		<path fill="#FFF6BD" d="M439.659,419.557c-0.032,0.021-0.077,0.043-0.108,0.064C346.623,480.7,94.512,449.046,94.512,449.046
			C16.963,317.978,40.992,59.117,40.992,59.117c146.251-29.894,300.857-19.092,307.771-18.59c0.163,0.012,0.24,0.022,0.24,0.022
			c0,0.011,0,0.011,0,0.022c1.082,158.189,88.023,372.54,90.602,378.843C439.638,419.513,439.659,419.557,439.659,419.557z"/>
		<path fill="#F4E9AE" d="M439.551,419.621c-1.464,5.949-3.135,11.866-5.154,17.654c-2.87,8.234-4.781,17.51-9.664,24.787
			c-1.946,2.898-5.755,6.287-9.102,7.736c-138.715,60.073-360.439,16.384-360.439,16.384
			C-5.975,363.852,26.793,51.832,26.793,51.832s50.614-6.259,52.789-6.554c61.536-8.191,161.772-17.804,258.652-6.968
			c0.22,0.022,0.448,0.043,0.667,0.077c3.594,0.688,7.908,1.802,9.863,2.14c-6.914-0.502-161.521-11.304-307.771,18.59
			c0,0-24.029,258.861,53.52,389.929C94.512,449.046,346.623,480.7,439.551,419.621z"/>
		<path opacity="0.4" fill="#F4E9AE" d="M94.512,449.046c-0.103-0.173-0.201-0.349-0.303-0.522
			c-2.561,3.965-5.242,7.847-8.115,11.589c-8.079,10.523-17.91,20.94-30.344,26.179c12.228,2.338,225.186,41.841,359.881-16.492
			c3.347-1.449,7.155-4.838,9.102-7.736c4.883-7.277,6.794-16.553,9.664-24.787c2.02-5.788,3.69-11.705,5.154-17.654
			C346.623,480.7,94.512,449.046,94.512,449.046z"/>
		<path fill="none" stroke="#262424" stroke-width="1.0922" stroke-miterlimit="10" d="M338.9,38.387
			c-0.163-0.033-0.316-0.055-0.48-0.088"/>
		<path fill="none" stroke="#262424" stroke-width="1.0922" stroke-miterlimit="10" d="M348.764,40.527
			c0.087,0.022,0.163,0.033,0.24,0.044c0.099,0.022,0.186,0.033,0.273,0.044"/>
		<path fill="#5BB637" d="M420.729,466.522c0,0-0.639,0.909-2.55,2.002c-1.59,0.909-2.548,1.274-2.548,1.274
			c-138.715,60.073-360.439,16.384-360.439,16.384C-5.975,363.852,26.793,51.832,26.793,51.832s50.614-6.259,52.789-6.554
			c61.536-8.191,161.772-17.804,258.652-6.968c0.22,0.022,0.448,0.043,0.667,0.077c0.306,0.032,0.601,0.076,0.907,0.109
			c-6.074-20.119-25.756-18.7-25.756-18.7c-43.919-0.721-149.112,1.366-252.056,13.817c-0.055,0-0.109,0.011-0.164,0.011
			c-3.43,0.295-29.676,3.451-31.784,4.226C9.022,45.519,9.317,51.471,6.041,89.7c0,0-18.568,222.817,15.292,366.993
			c0,0,2.548,48.058,49.879,54.611c0,0,172.937,21.845,294.175-6.554C365.387,504.75,424.368,495.284,420.729,466.522z"/>
		<g>
			<path opacity="0.6" fill="#C9BC85" d="M77.507,63.347c-4.975-2.31-12.006,1.781-11.12,7.783c0.795,5.37,6.45,6.996,10.91,4.974
				c4.614-2.092,5.499-8.88,1.496-11.976C78.385,63.813,77.954,63.554,77.507,63.347z"/>
			<g>
				<path fill="#777671" d="M52.188,35.924c-0.001-0.003-0.002-0.006-0.004-0.009C52.185,35.925,52.188,35.936,52.188,35.924z"/>
				<path fill="#777671" d="M52.188,35.908c-0.002,0-0.005,0-0.007,0c0.001,0.002,0.002,0.004,0.002,0.007
					C52.183,35.906,52.183,35.897,52.188,35.908z"/>
				<path fill="#777671" d="M80.783,47.627c-0.229-5.286-1.169-9.655-1.835-12.998c-3.091-15.466-13.653-18.928-13.653-18.928
					C46.159,12.216,44.785,28.413,45.122,35.6c1.594-0.186,4.944-0.644,6.747-0.83c-1.274-3.869-0.375-10.53,4.142-12.788
					c5.461-2.73,10.278,1.136,13.096,5.505c1.277,1.977,2.282,4.249,3.058,6.673c1.441,4.489,2.119,9.546,2.25,14.407
					c0.054,1.999,0.01,3.965-0.11,5.855c-0.087,1.43-0.229,2.817-0.404,4.128c-0.404,3.025-1.027,3.342-1.78,6.302
					c-0.623,2.425-2.141,4.544,0.251,6.488c1.901,1.551,3.921,0.896,4.828-1.519c2.261-6.062,3.255-11.556,3.55-16.448
					C80.87,51.352,80.881,49.44,80.783,47.627z"/>
			</g>
		</g>
		<g>
			<path opacity="0.6" fill="#C9BC85" d="M123.403,56.79c-4.975-2.309-12.006,1.781-11.12,7.783c0.794,5.369,6.45,6.996,10.91,4.974
				c4.613-2.091,5.499-8.881,1.495-11.975C124.282,57.257,123.851,56.998,123.403,56.79z"/>
			<g>
				<path fill="#777671" d="M98.084,29.351c-0.001,0-0.002,0-0.004,0C98.083,29.4,98.105,29.584,98.084,29.351z"/>
				<path fill="#777671" d="M126.679,41.071c-0.229-5.287-1.169-9.655-1.835-12.998c-3.091-15.467-13.653-18.929-13.653-18.929
					C92.055,5.66,90.948,23.139,91.287,30.326c1.594-0.186,5.007-0.48,6.809-0.665c0-0.004-1.536-10.775,3.812-14.236
					c5.125-3.318,10.278,1.135,13.096,5.504c1.278,1.977,2.282,4.249,3.058,6.674c1.441,4.489,2.119,9.546,2.25,14.406
					c0.054,1.999,0.01,3.965-0.11,5.855c-0.087,1.431-0.229,2.818-0.404,4.128c-0.404,3.025-1.026,3.343-1.78,6.302
					c-0.622,2.425-2.141,4.544,0.251,6.488c1.901,1.55,3.921,0.895,4.828-1.518c2.262-6.063,3.255-11.556,3.55-16.449
					C126.766,44.795,126.777,42.883,126.679,41.071z"/>
			</g>
		</g>
		<g>
			<path opacity="0.6" fill="#C9BC85" d="M164.908,52.967c-4.975-2.31-12.006,1.781-11.12,7.783c0.794,5.369,6.45,6.996,10.91,4.974
				c4.613-2.091,5.499-8.88,1.496-11.975C165.787,53.434,165.356,53.175,164.908,52.967z"/>
			<path fill="#777671" d="M168.151,42.993c-0.295,4.894-1.288,10.387-3.55,16.449c-0.906,2.414-2.926,3.069-4.827,1.518
				c-2.392-1.943-0.874-4.063-0.251-6.488c0.753-2.96,1.376-3.277,1.78-6.302c0.175-1.311,0.316-2.698,0.404-4.129
				c0.12-1.889,0.164-3.855,0.109-5.854c-0.131-4.86-0.809-9.917-2.25-14.406c-0.775-2.425-1.78-4.697-3.058-6.674
				c-2.818-4.369-7.635-8.235-13.096-5.504c-4.522,2.26-3.839,14.402-3.829,14.423c-1.802,0.186-5.231,0.377-6.827,0.563
				c-0.337-7.187,0.803-24.751,19.939-21.267c0,0,10.562,3.462,13.653,18.929c0.666,3.343,1.605,7.711,1.835,12.998
				C168.282,39.061,168.271,40.973,168.151,42.993z"/>
		</g>
		<g>
			<path opacity="0.6" fill="#C9BC85" d="M209.263,51.141c-4.914-2.437-12.049,1.471-11.318,7.494
				c0.656,5.387,6.268,7.16,10.778,5.253c4.667-1.972,5.727-8.736,1.805-11.933C210.128,51.631,209.704,51.361,209.263,51.141z"/>
			<path fill="#777671" d="M212.761,41.254c-0.421,4.884-1.556,10.35-3.973,16.352c-0.969,2.39-3.005,2.993-4.865,1.393
				c-2.341-2.005-0.769-4.083-0.084-6.492c0.83-2.939,1.46-3.239,1.942-6.254c0.209-1.306,0.386-2.689,0.511-4.117
				c0.168-1.885,0.263-3.849,0.26-5.85c-0.005-4.862-0.552-9.935-1.877-14.459c-0.713-2.443-1.658-4.741-2.885-6.75
				c-2.705-4.44-7.419-8.43-12.95-5.841c-4.579,2.144-4.191,13.801-4.181,13.823c-1.806,0.139-5.158,0.288-6.865,0.391
				c-0.152-7.194,1.45-24.229,20.489-20.253c0,0,10.469,3.735,13.16,19.276c0.58,3.358,1.406,7.75,1.5,13.04
				C212.994,37.327,212.933,39.238,212.761,41.254z"/>
		</g>
		<g>
			<path opacity="0.6" fill="#C9BC85" d="M252.949,48.981c-4.912-2.447-12.057,1.448-11.337,7.473
				c0.646,5.388,6.256,7.171,10.774,5.274c4.671-1.962,5.743-8.724,1.824-11.929C253.815,49.473,253.391,49.202,252.949,48.981z"/>
			<path fill="#777671" d="M256.468,39.102c-0.43,4.884-1.575,10.347-4.005,16.345c-0.973,2.387-3.013,2.986-4.872,1.383
				c-2.337-2.01-0.76-4.085-0.071-6.492c0.838-2.938,1.468-3.237,1.956-6.25c0.211-1.306,0.393-2.689,0.519-4.117
				c0.172-1.884,0.271-3.849,0.271-5.849c0.004-4.862-0.533-9.936-1.85-14.463c-0.709-2.445-1.65-4.744-2.873-6.756
				c-2.698-4.445-7.408-8.443-12.944-5.865c-4.583,2.134-4.211,13.966-4.2,13.988c-1.808,0.135-5.227,0.131-6.827,0.273
				c-0.14-7.194,1.448-24.296,20.485-20.283c0,0,10.467,3.753,13.13,19.299c0.575,3.36,1.393,7.754,1.474,13.044
				C256.708,35.174,256.644,37.085,256.468,39.102z"/>
		</g>
		<g>
			<path opacity="0.6" fill="#C9BC85" d="M295.372,49.624c-4.729-2.785-12.129,0.601-11.832,6.66
				c0.267,5.42,5.738,7.592,10.379,6.015c4.796-1.631,6.339-8.301,2.654-11.772C296.201,50.174,295.796,49.874,295.372,49.624z"/>
			<path fill="#777671" d="M299.572,40.013c-0.771,4.842-2.296,10.212-5.138,16.025c-1.14,2.313-3.215,2.768-4.957,1.04
				c-2.191-2.168-0.472-4.129,0.383-6.482c1.041-2.872,1.69-3.126,2.389-6.099c0.302-1.288,0.579-2.654,0.806-4.07
				c0.302-1.868,0.538-3.821,0.678-5.815c0.344-4.851,0.163-9.949-0.834-14.558c-0.535-2.488-1.314-4.847-2.392-6.939
				c-2.381-4.624-6.799-8.942-12.505-6.758c-4.719,1.81-5.172,13.465-5.162,13.487c-1.812,0.009-5.257,0.109-6.86,0.139
				c0.362-7.186,3.171-24.306,21.88-18.971c0,0,10.178,4.477,11.748,20.171c0.339,3.392,0.847,7.832,0.559,13.115
				C300.085,36.113,299.89,38.015,299.572,40.013z"/>
		</g>
		<g>
			<g>
				<g>
					<path fill="#55803E" d="M19.148,447.955c-0.116,0.032-0.586-1.354-1.379-4.036c-0.425-1.335-0.804-3.02-1.282-5.005
						c-0.231-0.994-0.5-2.062-0.745-3.211c-0.232-1.152-0.479-2.379-0.741-3.678c-1.062-5.196-2.099-11.596-3.209-19.038
						c-1.041-7.45-2.165-15.942-3.172-25.352c-2.079-18.813-4-41.262-5.716-66.204c-0.412-6.238-0.882-12.621-1.206-19.164
						c-0.313-6.543-0.632-13.224-0.958-20.024c-0.379-13.606-0.773-27.696-0.734-42.121c-0.077-28.851,0.546-56.327,1.403-81.299
						c0.375-12.49,0.887-24.349,1.306-35.452c0.231-5.55,0.455-10.91,0.67-16.062c0.108-2.574,0.215-5.096,0.319-7.563
						c0.064-2.466,0.127-4.879,0.188-7.236c0.243-9.468,0.836-18.066,2.048-25.54c1.202-7.464,3-13.848,5.555-18.622
						c1.271-2.379,2.725-4.354,4.306-5.752c0.354-0.388,0.805-0.648,1.178-0.955c0.193-0.146,0.383-0.288,0.569-0.428
						c0.203-0.115,0.401-0.227,0.595-0.336c0.393-0.21,0.754-0.432,1.119-0.598c0.377-0.137,0.735-0.268,1.073-0.391
						c0.66-0.288,1.31-0.311,1.833-0.432c0.528-0.125,0.986-0.091,1.349-0.096c0.727,0.004,1.091,0.037,1.091,0.097
						c0,0.06-0.364,0.146-1.06,0.256c-0.347,0.062-0.784,0.084-1.276,0.261c-0.489,0.172-1.092,0.243-1.692,0.568
						c-0.307,0.139-0.631,0.285-0.974,0.44c-0.33,0.18-0.653,0.413-1.004,0.63c-0.174,0.112-0.351,0.227-0.533,0.344
						c-0.165,0.141-0.334,0.286-0.507,0.433c-0.332,0.31-0.733,0.564-1.047,0.95c-1.403,1.378-2.692,3.301-3.818,5.623
						c-2.265,4.657-3.838,10.923-4.838,18.29c-1.012,7.379-1.429,15.882-1.515,25.301c-0.024,2.366-0.049,4.789-0.075,7.266
						c-0.068,2.474-0.139,5.001-0.21,7.582c-0.151,5.154-0.308,10.516-0.47,16.068c-0.309,11.102-0.639,22.964-0.986,35.445
						c-0.681,24.961-1.206,52.403-1.129,81.194c-0.039,14.397,0.33,28.445,0.662,42.013c0.295,6.777,0.585,13.436,0.869,19.957
						c0.288,6.521,0.72,12.911,1.087,19.142c1.539,24.926,3.205,47.359,4.968,66.163c0.85,9.406,1.8,17.895,2.655,25.347
						c0.925,7.44,1.763,13.848,2.616,19.055c0.206,1.304,0.4,2.534,0.583,3.689c0.208,1.15,0.402,2.227,0.583,3.226
						c0.37,1.997,0.639,3.699,0.952,5.051C19.018,446.473,19.263,447.923,19.148,447.955z"/>
				</g>
			</g>
		</g>
		<g>
			<g>
				<g>
					<path fill="#55803E" d="M367.571,504.748c0.029,0.117-1.099,0.505-3.278,1.139c-1.094,0.306-2.446,0.684-4.045,1.131
						c-1.601,0.446-3.474,0.836-5.571,1.332c-8.398,1.942-20.666,4.285-35.94,6.296c-30.53,4.119-73.083,7.024-120.046,6.112
						c-5.87-0.124-11.667-0.329-17.383-0.526c-2.859-0.14-5.697-0.278-8.513-0.416c-2.809-0.13-5.626-0.276-8.35-0.473
						c-10.973-0.61-21.658-0.871-31.81-1.366c-20.315-0.925-38.637-2.417-53.872-4.99c-15.204-2.545-27.426-6.26-34.813-11.068
						c-3.687-2.37-6.071-4.966-7.192-6.996c-1.15-2.023-1.3-3.264-1.225-3.278c0.15-0.057,0.529,1.092,1.811,2.896
						c1.256,1.816,3.657,4.116,7.311,6.227c7.314,4.282,19.388,7.588,34.491,9.797c15.13,2.239,33.356,3.474,53.623,4.22
						c10.141,0.407,20.776,0.598,31.875,1.168c2.79,0.188,5.539,0.32,8.345,0.441c2.798,0.13,5.618,0.26,8.459,0.392
						c5.69,0.185,11.467,0.383,17.313,0.506c46.783,0.909,89.192-1.598,119.676-5.079c15.254-1.691,27.523-3.656,35.97-5.185
						c2.109-0.392,3.999-0.677,5.616-1.017c1.622-0.317,2.996-0.586,4.105-0.803C366.355,504.794,367.541,504.633,367.571,504.748z"
						/>
				</g>
			</g>
		</g>
	</g>
	<g>
		<g>
			<defs>
				<rect id="SVGID_1_" x="119.014" y="121.35" width="188.896" height="273.979"/>
			</defs>
			<clipPath id="SVGID_2_">
				<use xlink:href="#SVGID_1_"  overflow="visible"/>
			</clipPath>
			<path clip-path="url(#SVGID_2_)" fill="#2B484E" d="M307.667,202.337c-3.697-41.039-35.318-72.912-75.52-79.605
				c-39.348-6.559-82.174,10.449-102.742,45.474c-9.983,16.987-12.393,36.058-8.838,55.321c2.825,15.276,6.675,39.814,23.045,46.39
				c1.378,0.545,2.49-0.485,2.799-1.692c0.643,1.03,2.377,1.381,3.367,0.096c9.649-12.603,19.031-25.49,27.668-38.78
				c0.642-1.012,0.642-1.966,0.294-2.764c0.081-0.233,0.134-0.486,0.114-0.779c-0.779-15.235,4.283-30.122,18.78-37.301
				c14.227-7.044,33.372-1.616,41.72,11.986c8.018,13.018,5.72,31.484-5.02,42.246c-11.772,11.831-25.453,10.488-40.476,10.118
				c-2.921-0.058-4.205,3.989-1.909,5.645c0.856,23.252,0.703,48.744,4.848,71.489c0.194,1.013,0.917,1.636,1.773,1.908
				c0.053,1.401,0.971,2.687,2.838,2.588c12.221-0.584,24.519-0.974,36.641-2.685c0.021,0,0.038,0,0.06-0.021
				c0.018,0.099,0.038,0.195,0.077,0.291c1.459,4.418,7.451,2.549,6.81-1.866c-1.77-12.104-2.568-23.312-1.205-35.415
				C280.989,284.162,311.208,241.644,307.667,202.337L307.667,202.337z M237.245,288.637c-1.284,0.331-2.063,1.108-2.433,2.004
				c-7.782-0.058-15.742,0.817-23.447,1.362c-0.736,0.058-0.757,1.167,0,1.147c7.628-0.136,15.548,0,23.214-0.738
				c0.098,0.954,0.525,1.886,1.207,2.568c-0.331,1.614-0.604,3.268-0.837,4.922c-5.565-1.382-12.59-0.037-17.805,1.946
				c-0.525,0.194-0.331,0.953,0.233,0.836c3.133-0.642,6.246-1.265,9.438-1.44c2.666-0.156,5.313,0.138,7.959,0
				c-0.389,3.039-0.565,6.112-0.604,9.186c-8.523-1.168-17.222-1.226-25.8-0.543c-0.855,0.058-0.875,1.379,0,1.36
				c8.677-0.272,17.161,0.312,25.781,1.226c0.019,1.985,0.135,3.971,0.311,5.936c-0.077-0.021-0.116-0.077-0.215-0.077
				c-7.607,0.194-15.509,1.459-23.039,2.608c-0.66,0.096-0.508,1.187,0.156,1.145c7.609-0.368,15.606-0.737,23.117-2.081
				c0.058,0,0.077-0.058,0.116-0.078c0.234,2.065,0.525,4.127,0.954,6.151c-11.345,0.096-22.709,1.381-33.997,2.489
				c3.931-21.403-0.133-47.226-6.689-68.067c15.856,5.722,36.309-2.49,46.329-15.177c11.5-14.575,12.414-36.991,0.798-51.78
				c-24.596-31.271-78.924-7.628-69.214,31.64c-0.39,0.233-0.737,0.564-1.051,1.012c-8.993,12.979-17.321,26.521-25.277,40.162
				c-0.078,0.099-0.078,0.196-0.119,0.313c-0.173-0.43-0.442-0.818-0.912-1.071c-14.688-7.879-19.208-42.595-19.457-57.286
				c-0.313-18.408,6.75-35.493,18.875-49.153c23.153-26.075,60.476-36.232,93.965-27.592c8.405,2.16,16.247,5.565,23.33,9.963
				c-21.755-1.362-43.665-1.868-65.459-1.401c-3.675,0.078-12.668-1.226-10.429,4.904c0.058,0.175,0.293,0.117,0.272-0.058
				c-0.507-3.016,73.027-0.895,79.625-0.739c4.884,3.444,9.358,7.394,13.367,11.772c-37.517-2.335-75.463-2.569-112.958,0.019
				c-0.855,0.063-0.875,1.382,0,1.362c38.279-0.817,76.28-0.875,114.553,0.526h0.021c2.119,2.472,4.046,5.078,5.836,7.802
				c-30.375-3.833-62.132-2.918-92.504,0.293c-0.607,0.077-0.641,1.011,0,0.973c31.288-1.479,62.072-0.642,93.322-0.059
				c1.888,2.918,3.561,5.955,5.041,9.107c-21.095-0.759-42.44-0.409-63.533,0.331c-0.799,0.039-0.799,1.226,0,1.265
				c21.364,0.758,43.003,1.108,64.389,0.311c1.401,3.172,2.53,6.461,3.522,9.827c-15.354,1.829-30.55,2.491-46.02,2.024
				c-0.915-0.02-0.896,1.323,0,1.401c15.526,1.44,31.211,0.934,46.66-1.226c0.585,2.243,1.072,4.514,1.46,6.83
				c-9.379,0.195-18.796,0.934-28.176,1.128c-0.837,0.02-0.837,1.246,0,1.285c9.32,0.584,19.128,0.758,28.468-0.39
				c0.313,2.063,0.584,4.146,0.72,6.286c0.098,1.576,0.06,3.152,0.04,4.729c-15.353-0.623-31.309,1.712-46.332,4.456
				c-0.798,0.156-0.622,1.557,0.195,1.458c15.371-2.023,30.764-2.509,46.137-3.911c-0.136,3.094-0.564,6.188-1.108,9.263
				c-12.493-1.227-26.114,0.583-38.275,2.802c-0.683,0.116-0.547,1.264,0.155,1.207c12.53-1.09,25.256-0.954,37.749-2.063
				c-1.167,5.526-2.977,10.936-5.332,16.171c-14.73-0.994-29.597-0.798-44.327,0.077c-0.739,0.039-0.758,1.167,0,1.167
				c14.459-0.039,28.838,0.429,43.276,0.916c-1.945,4.047-4.222,7.938-6.79,11.656c-0.136-0.137-0.351-0.253-0.622-0.253
				c-11.657-0.214-23.217-0.098-34.852-0.778c-0.875-0.058-0.837,1.231,0,1.323c11.267,1.363,23.039,2.141,34.383,1.266
				c-6.402,8.93-14.437,16.754-23.407,22.845c-0.021,0-0.021-0.021-0.04-0.021c-13.952,0.876-27.885,1.149-41.836,1.266
				c-0.681,0-0.661,0.992,0,1.013c12.939,0.622,25.919,0.426,38.858-0.254C251.587,283.52,244.544,286.711,237.245,288.637
				L237.245,288.637z M237.245,288.637"/>
		</g>
		<path fill="#2B484E" d="M244.251,350.709c-0.37-0.896-1.032-1.459-1.771-1.75c0.155-0.973-0.194-2.024-1.148-2.549
			c-11.169-6.053-28.488-2.959-40.727-0.547c-1.185-1.127-3.502-0.642-3.656,1.479c-1.092,14.46,0.114,28.837,3.912,42.828
			c0.622,2.258,2.644,2.94,4.393,2.473c0.353,0.117,0.703,0.214,1.15,0.214c12.96-0.234,28.001,0.254,40.571-3.074
			c0.466-0.137,0.837-0.332,1.129-0.565c0.817-0.233,1.498-0.856,1.42-1.887C248.552,375.985,248.647,361.255,244.251,350.709
			L244.251,350.709z M207.535,386.163c-2.767-11.421-4.787-22.884-5.86-34.577c6.657-0.584,13.368-0.935,20.043-0.758
			c5.604,0.135,11.402,1.282,16.948,0.524c0,0.037-0.02,0.078-0.02,0.117c-0.175,2.566-0.078,5.232,0.214,7.958
			c-8.678-0.778-17.979,0.252-26.505,1.284c-0.876,0.097-0.932,1.479,0,1.42c8.856-0.602,17.904-0.311,26.739-1.051
			c0.292,2.121,0.7,4.28,1.146,6.44c-7.335,0.43-14.477,0.916-21.949,0.353c-0.681-0.06-0.855,1.126-0.155,1.223
			c7.219,1.093,15.178,1.578,22.553,0.392c0.39,1.674,0.837,3.346,1.266,5.02c-9.535,0.759-19.148,2.181-28.603,3.112
			c-0.897,0.099-0.937,1.441,0,1.42c9.435-0.096,19.651-0.524,29.167-2.237c0.66,2.453,1.322,4.867,1.946,7.2
			C232.634,382.796,219.324,384.821,207.535,386.163L207.535,386.163z M207.535,386.163"/>
		<path fill="#222221" d="M273.128,264.021c-16.424-0.72-33.411,0.973-49.815,2.024c-0.777,0.058-0.798,1.227,0,1.227
			c16.423-0.215,33.508,0.156,49.815-1.811C274.022,265.363,274.081,264.08,273.128,264.021L273.128,264.021z M273.128,264.021"/>
	</g>
</g>
</svg>
