<?xml version="1.0" encoding="utf-8"?>
<!-- Generator: Adobe Illustrator 18.0.0, SVG Export Plug-In . SVG Version: 6.00 Build 0)  -->
<!DOCTYPE svg PUBLIC "-//W3C//DTD SVG 1.1//EN" "http://www.w3.org/Graphics/SVG/1.1/DTD/svg11.dtd">
<svg version="1.1" id="Layer_1" xmlns="http://www.w3.org/2000/svg" xmlns:xlink="http://www.w3.org/1999/xlink" x="0px" y="0px"
	 viewBox="0 0 47.4 47.4" style="enable-background:new 0 0 47.4 47.4;" xml:space="preserve">
<style type="text/css">
	.st0{clip-path:url(#SVGID_2_);}
	.st1{fill:#FFBF31;}
	.st2{clip-path:url(#SVGID_4_);fill:#FFFFFF;}
	.st3{opacity:0.1;clip-path:url(#SVGID_6_);}
	.st4{fill:#020202;}
	.st5{fill:#E2E2E2;stroke:#E2E2E2;stroke-width:1.1595;stroke-miterlimit:10;}
	.st6{fill:#E2E2E2;stroke:#EFEFEF;stroke-width:1.0398;stroke-miterlimit:10;}
	.st7{fill:#FFFFFF;stroke:#FFFFFF;stroke-width:1.1595;stroke-miterlimit:10;}
	.st8{fill:#FFFFFF;stroke:#FFFFFF;stroke-width:1.0398;stroke-miterlimit:10;}
</style>
<g>
	<g>
		<g>
			<defs>
				<circle id="SVGID_1_" cx="23.7" cy="23.7" r="23.7"/>
			</defs>
			<use xlink:href="#SVGID_1_"  style="overflow:visible;fill:#FFBF31;"/>
			<clipPath id="SVGID_2_">
				<use xlink:href="#SVGID_1_"  style="overflow:visible;"/>
			</clipPath>
			<g class="st0">
				<rect x="-5.8" y="-5.9" class="st1" width="59.1" height="59.1"/>
			</g>
		</g>
		<g>
			<defs>
				<circle id="SVGID_3_" cx="23.7" cy="23.7" r="23.7"/>
			</defs>
			<clipPath id="SVGID_4_">
				<use xlink:href="#SVGID_3_"  style="overflow:visible;"/>
			</clipPath>
			<path class="st2" d="M19.6,3.4c-1.4,6.2-3.8,7-9.2,6.2c4.6,3,9.5,2.7,9.7-2c1.8,5,6.8,4.5,9.8,1.6c-0.3,4.7,2.7,4.4,7.1,2
				c-4.2,0.3-5.9-0.2-5.3-5.5C26.8,9.4,22.8,8.5,19.6,3.4z"/>
		</g>
		<g>
			<defs>
				<circle id="SVGID_5_" cx="23.7" cy="23.7" r="23.7"/>
			</defs>
			<clipPath id="SVGID_6_">
				<use xlink:href="#SVGID_5_"  style="overflow:visible;"/>
			</clipPath>
			<g class="st3">
				<path class="st4" d="M15,23.5c0.2-0.6,0.5-1.1,0.9-1.6c0.2-0.3,0.4-0.6,0.7-0.9c0.6-0.6,1.4-1.2,2.4-1.6c0.9-0.4,1.9-0.7,3-0.9
					c1.3-0.2,2.5-0.2,3.5,0.1c1,0.2,1.9,0.6,2.8,1.1c0.8,0.5,1.4,1.1,1.9,1.8s0.8,1.3,0.9,2c0,0.2,0,0.4-0.1,0.5
					c0,0.1-0.1,0.1-0.2,0.2c0,0.1-0.1,0.2-0.1,0.2c-0.1,0.1-0.2,0.2-0.4,0.2l-3.6,0.6c-0.4,0.1-0.6,0-0.8-0.3
					c-0.2-0.2-0.4-0.5-0.6-0.8c-0.2-0.3-0.5-0.5-0.9-0.7s-1-0.2-1.9-0.1c-0.9,0.1-1.5,0.4-1.9,0.8c-0.2,0.3-0.2,0.6-0.1,1
					c0.1,0.4,0.2,0.7,0.6,1c0.3,0.3,0.7,0.5,1.1,0.8c0.4,0.3,0.9,0.5,1.4,0.8s1,0.6,1.4,0.9c0.4,0.3,0.8,0.7,1.2,1.2
					c0.3,0.5,0.6,1,0.7,1.6c0,0.2,0.2,1.8,0.1,2c-0.1,0.1-0.2,0.2-0.2,0.2c0,0.1,0,0.1,0,0.2c-0.1,0.2-0.3,0.3-0.5,0.3l-3.6,0.6
					c-0.2,0-0.4,0-0.5-0.1s-0.5-1.7-0.6-1.9c-0.2-0.4-0.5-0.7-0.8-1.1c-0.4-0.3-0.8-0.6-1.2-0.8c-0.4-0.3-0.9-0.5-1.4-0.8
					s-0.9-0.6-1.3-0.9c-0.4-0.4-0.8-0.8-1.1-1.3s-0.5-1.1-0.6-1.7C14.6,25,14.7,24.2,15,23.5z"/>
				<path class="st4" d="M22.5,36.3c0-0.1,0.1-0.1,0.1-0.2c0.1-0.2,0.3-0.3,0.5-0.3l3.3-0.5c0.2,0,0.4,0,0.5,0.1
					c0.2,0.1,0.3,0.3,0.3,0.5l0.4,2.7c0,0.2,0,0.4-0.1,0.5s-0.1,0.1-0.2,0.2c0,0.1-0.1,0.1-0.1,0.2c-0.1,0.2-0.3,0.3-0.5,0.3
					l-3.3,0.5c-0.2,0-0.4,0-0.5-0.1c-0.2-0.1-0.3-0.3-0.3-0.5L22.2,37c0-0.2,0-0.4,0.1-0.5C22.3,36.4,22.4,36.3,22.5,36.3z"/>
			</g>
		</g>
		<g>
			<g>
				<g>
					<path class="st5" d="M16.7,21.4c0.3-0.8,0.7-1.5,1.3-2.1c0.6-0.6,1.4-1.2,2.4-1.6c0.9-0.4,1.9-0.7,3-0.9
						c1.3-0.2,2.5-0.2,3.5,0.1c1,0.2,1.9,0.6,2.8,1.1c0.8,0.5,1.4,1.1,1.9,1.8s0.8,1.3,0.9,2c0,0.2,0,0.4-0.1,0.5s-0.2,0.2-0.4,0.2
						l-3.6,0.6c-0.4,0.1-0.6,0-0.8-0.3c-0.2-0.2-0.4-0.5-0.6-0.8c-0.2-0.3-0.5-0.5-0.9-0.7s-1-0.2-1.9-0.1c-0.9,0.1-1.5,0.4-1.9,0.8
						c-0.4,0.4-0.5,0.8-0.4,1.4c0.1,0.4,0.2,0.7,0.6,1c0.3,0.3,0.7,0.5,1.1,0.8c0.4,0.3,0.9,0.5,1.4,0.8s1,0.6,1.4,0.9
						c0.4,0.3,0.8,0.7,1.2,1.2c0.3,0.5,0.6,1,0.7,1.6c0,0.2,0.2,1.8,0.1,2c-0.1,0.2-0.3,0.3-0.5,0.3l-3.6,0.6c-0.2,0-0.4,0-0.5-0.1
						s-0.5-1.7-0.6-1.9c-0.2-0.4-0.5-0.7-0.8-1.1c-0.4-0.3-0.8-0.6-1.2-0.8c-0.4-0.3-0.9-0.5-1.4-0.8s-0.9-0.6-1.3-0.9
						c-0.4-0.4-0.8-0.8-1.1-1.3s-0.5-1.1-0.6-1.7C16.4,23,16.4,22.2,16.7,21.4z"/>
					<path class="st6" d="M24.6,36.7l3.3-0.5c0.2,0,0.4,0,0.5,0.1c0.2,0.1,0.3,0.3,0.3,0.5l0.4,2.7c0,0.2,0,0.4-0.1,0.5
						c-0.1,0.2-0.3,0.3-0.5,0.3l-3.3,0.5c-0.2,0-0.4,0-0.5-0.1c-0.2-0.1-0.3-0.3-0.3-0.5L24,37.5c0-0.2,0-0.4,0.1-0.5
						C24.3,36.8,24.4,36.7,24.6,36.7z"/>
				</g>
				<g>
					<path class="st7" d="M17,20.9c0.3-0.8,0.7-1.5,1.3-2.1s1.4-1.2,2.4-1.6c0.9-0.4,1.9-0.7,3-0.9c1.3-0.2,2.5-0.2,3.5,0.1
						c1,0.2,1.9,0.6,2.8,1.1c0.8,0.5,1.4,1.1,1.9,1.8s0.8,1.3,0.9,2c0,0.2,0,0.4-0.1,0.5S32.5,22,32.3,22l-3.6,0.6
						c-0.4,0.1-0.6,0-0.8-0.3c-0.2-0.2-0.4-0.5-0.6-0.8c-0.2-0.3-0.5-0.5-0.9-0.7s-1-0.2-1.9-0.1c-0.9,0.1-1.5,0.4-1.9,0.8
						c-0.4,0.4-0.5,0.8-0.4,1.4c0.1,0.4,0.2,0.7,0.6,1c0.3,0.3,0.7,0.5,1.1,0.8c0.4,0.3,0.9,0.5,1.4,0.8s1,0.6,1.4,0.9
						c0.4,0.3,0.8,0.7,1.2,1.2c0.3,0.5,0.6,1,0.7,1.6c0,0.2,0.2,1.8,0.1,2c-0.1,0.2-0.3,0.3-0.5,0.3l-3.6,0.6c-0.2,0-0.4,0-0.5-0.1
						s-0.5-1.7-0.6-1.9c-0.2-0.4-0.5-0.7-0.8-1.1c-0.4-0.3-0.8-0.6-1.2-0.8c-0.4-0.3-0.9-0.5-1.4-0.8s-0.9-0.6-1.3-0.9
						c-0.4-0.4-0.8-0.8-1.1-1.3s-0.5-1.1-0.6-1.7C16.6,22.6,16.7,21.8,17,20.9z"/>
					<path class="st8" d="M24.9,36.3l3.3-0.5c0.2,0,0.4,0,0.5,0.1c0.2,0.1,0.3,0.3,0.3,0.5l0.4,2.7c0,0.2,0,0.4-0.1,0.5
						c-0.1,0.2-0.3,0.3-0.5,0.3l-3.3,0.5c-0.2,0-0.4,0-0.5-0.1c-0.2-0.1-0.3-0.3-0.3-0.5l-0.4-2.7c0-0.2,0-0.4,0.1-0.5
						C24.5,36.5,24.7,36.4,24.9,36.3z"/>
				</g>
			</g>
		</g>
	</g>
</g>
</svg>
