<?xml version="1.0" encoding="utf-8"?>
<!-- Generator: Adobe Illustrator 22.1.0, SVG Export Plug-In . SVG Version: 6.00 Build 0)  -->
<svg version="1.1" id="Isolation_Mode" xmlns="http://www.w3.org/2000/svg" xmlns:xlink="http://www.w3.org/1999/xlink" x="0px"
	 y="0px" viewBox="0 0 58.6 62.6" style="enable-background:new 0 0 58.6 62.6;" xml:space="preserve">
<style type="text/css">
	.st0{opacity:0.2;fill:#969696;enable-background:new    ;}
	.st1{fill:#FFC933;}
	.st2{fill:#FFCF6E;}
	.st3{opacity:0.1;}
	.st4{fill:#020202;}
	.st5{fill:#E2E2E2;stroke:#E2E2E2;stroke-width:1.1595;stroke-miterlimit:10;}
	.st6{fill:#E2E2E2;stroke:#EFEFEF;stroke-width:1.0398;stroke-miterlimit:10;}
	.st7{fill:#FFFFFF;stroke:#FFFFFF;stroke-width:1.1595;stroke-miterlimit:10;}
	.st8{fill:#FFFFFF;stroke:#FFFFFF;stroke-width:1.0398;stroke-miterlimit:10;}
</style>
<g>
	<path class="st0" d="M1,62.6c11.7,0,15.7-8.6,15.7-8.6l0.3-0.3c2.2,2.9,5.8,4.6,9.7,4c2.8-0.5,5.1-2,6.5-4.1
		c1.6,2.2,4.3,3.3,7.1,2.7c3.7-0.9,6-4.5,5.1-8.2c0-0.2-0.1-0.4-0.2-0.5c0.8,0.1,1.7,0.1,2.6-0.1c5.4-0.9,9.1-6,8.2-11.5
		c-0.4-2.1-1.4-4-2.8-5.4c1.8-1.2,3-3.3,3-5.6c0-3.8-3.1-6.8-6.8-6.8c-0.5,0-1,0.1-1.4,0.2c0.3-1.4,0.4-2.9,0.1-4.5
		C47,7.4,40.9,3,34.4,4.1c-3,0.5-5.6,2.1-7.3,4.3c-1.4-2.2-3.8-3.6-6.6-3.6c-4.4,0-7.9,3.5-7.9,7.9c0,0.4,0,0.7,0.1,1.1
		c-0.4,0-0.9,0-1.3,0c-3.7,0.5-6.4,3.9-5.9,7.6c0.1,0.9,0.4,1.8,0.8,2.5c-2.9,0.8-5.1,3.4-5.1,6.6c0,2.3,1.2,4.4,2.9,5.6
		c-1.6,2-2.4,4.6-2,7.3c0.6,3.8,3.5,6.6,7,7.4C9.9,59.9,1,62.6,1,62.6z"/>
	<path class="st1" d="M1,59.6c11.7,0,15.7-8.6,15.7-8.6l0.3-0.3c2.2,2.9,5.8,4.6,9.7,4c2.8-0.5,5.1-2,6.5-4.1
		c1.6,2.2,4.3,3.3,7.1,2.7c3.7-0.9,6-4.5,5.1-8.2c0-0.2-0.1-0.4-0.2-0.5c0.8,0.1,1.7,0.1,2.6-0.1c5.4-0.9,9.1-6,8.2-11.5
		c-0.4-2.1-1.4-4-2.8-5.4c1.8-1.2,3-3.3,3-5.6c0-3.8-3.1-6.8-6.8-6.8c-0.5,0-1,0.1-1.4,0.2c0.3-1.4,0.4-2.9,0.1-4.5
		C47,4.4,40.9,0,34.4,1.1c-3,0.5-5.6,2.1-7.3,4.3c-1.4-2.2-3.8-3.6-6.6-3.6c-4.4,0-7.9,3.5-7.9,7.9c0,0.4,0,0.7,0.1,1.1
		c-0.4,0-0.9,0-1.3,0c-3.7,0.5-6.4,3.9-5.9,7.6c0.1,0.9,0.4,1.8,0.8,2.5c-2.9,0.8-5.1,3.4-5.1,6.6c0,2.3,1.2,4.4,2.9,5.6
		c-1.6,2-2.4,4.6-2,7.3c0.6,3.8,3.5,6.6,7,7.4C9.9,56.9,1,59.6,1,59.6z"/>
	<path class="st2" d="M7.9,27.4c0-2.4,1.6-4.4,3.8-5c-0.3-0.6-0.5-1.2-0.6-1.9c-0.3-2.8,1.7-5.4,4.5-5.7c0.3,0,0.7,0,1,0
		c0-0.3-0.1-0.5-0.1-0.8c0-3.3,2.7-5.9,5.9-5.9c2.1,0,3.9,1.1,5,2.7c1.3-1.7,3.2-2.8,5.5-3.2c4.9-0.8,9.5,2.5,10.3,7.4
		c0.2,1.1,0.2,2.3-0.1,3.4c0.3-0.1,0.7-0.1,1.1-0.1c2.8,0,5.1,2.3,5.1,5.1c0,1.8-0.9,3.3-2.2,4.2c1.1,1.1,1.8,2.5,2.1,4
		c0.7,4.1-2.1,7.9-6.2,8.6c-0.7,0.1-1.3,0.1-1.9,0.1c0,0.1,0.1,0.3,0.1,0.4c0.6,2.8-1.1,5.5-3.8,6.2c-2.1,0.5-4.2-0.4-5.3-2
		c-1.1,1.6-2.8,2.8-4.9,3.1c-4,0.7-7.8-2-8.6-5.9c-0.6,0.3-1.3,0.6-2.1,0.7c-3.7,0.6-7.3-1.9-7.9-5.6c-0.3-2,0.3-4,1.5-5.5
		C8.8,30.7,7.9,29.2,7.9,27.4z"/>
	<g>
		<circle class="st1" cx="52.2" cy="10" r="1.4"/>
		<circle class="st1" cx="10.2" cy="3.8" r="1.2"/>
		<circle class="st1" cx="49.6" cy="47.8" r="1.2"/>
		<circle class="st1" cx="1.4" cy="18.1" r="1.4"/>
		<circle class="st1" cx="57.4" cy="28.5" r="1.2"/>
		<circle class="st1" cx="27" cy="0.8" r="0.8"/>
		<circle class="st1" cx="9" cy="8.3" r="1.7"/>
		<circle class="st1" cx="33.7" cy="56.5" r="1.7"/>
	</g>
</g>
<g class="st3">
	<path class="st4" d="M37.5,23.7c-0.2-0.6-0.5-1.1-0.9-1.6c-0.2-0.3-0.4-0.6-0.7-0.9c-0.6-0.6-1.4-1.2-2.3-1.6s-1.9-0.7-2.9-0.9
		c-1.3-0.2-2.4-0.2-3.4,0.1c-1,0.2-1.9,0.6-2.7,1.1c-0.8,0.5-1.4,1.1-1.9,1.8c-0.5,0.7-0.8,1.3-0.9,2c0,0.2,0,0.4,0.1,0.5
		c0,0.1,0.1,0.1,0.2,0.2c0,0.1,0.1,0.2,0.1,0.2c0.1,0.1,0.2,0.2,0.4,0.2l3.5,0.6c0.4,0.1,0.6,0,0.8-0.3c0.2-0.2,0.4-0.5,0.6-0.8
		s0.5-0.5,0.9-0.7s1-0.2,1.9-0.1s1.5,0.4,1.9,0.8c0.2,0.3,0.2,0.6,0.1,1s-0.2,0.7-0.6,1c-0.3,0.3-0.7,0.5-1.1,0.8s-0.9,0.5-1.4,0.8
		s-1,0.6-1.4,0.9S27,29.5,26.6,30c-0.3,0.5-0.6,1-0.7,1.6c0,0.2-0.2,1.8-0.1,2c0.1,0.1,0.2,0.2,0.2,0.2c0,0.1,0,0.1,0,0.2
		c0.1,0.2,0.3,0.3,0.5,0.3l3.5,0.6c0.2,0,0.4,0,0.5-0.1s0.5-1.7,0.6-1.9c0.2-0.4,0.5-0.7,0.8-1.1c0.4-0.3,0.8-0.6,1.2-0.8
		c0.4-0.3,0.9-0.5,1.4-0.8s0.9-0.6,1.3-0.9c0.4-0.4,0.8-0.8,1.1-1.3c0.3-0.5,0.5-1.1,0.6-1.7C37.9,25.3,37.8,24.4,37.5,23.7z"/>
	<path class="st4" d="M30.1,36.2c0-0.1-0.1-0.1-0.1-0.2c-0.1-0.2-0.3-0.3-0.5-0.3l-3.2-0.5c-0.2,0-0.4,0-0.5,0.1
		c-0.2,0.1-0.3,0.3-0.3,0.5l-0.4,2.6c0,0.2,0,0.4,0.1,0.5s0.1,0.1,0.2,0.2c0,0.1,0.1,0.1,0.1,0.2c0.1,0.2,0.3,0.3,0.5,0.3l3.2,0.5
		c0.2,0,0.4,0,0.5-0.1c0.2-0.1,0.3-0.3,0.3-0.5l0.4-2.6c0-0.2,0-0.4-0.1-0.5C30.2,36.3,30.2,36.2,30.1,36.2z"/>
</g>
<g>
	<g>
		<path class="st5" d="M35.8,21.6c-0.3-0.8-0.7-1.5-1.3-2.1c-0.6-0.6-1.4-1.2-2.3-1.6s-1.9-0.7-2.9-0.9c-1.3-0.2-2.4-0.2-3.4,0.1
			c-1,0.2-1.9,0.6-2.7,1.1c-0.8,0.5-1.4,1.1-1.9,1.8c-0.5,0.7-0.8,1.3-0.9,2c0,0.2,0,0.4,0.1,0.5s0.2,0.2,0.4,0.2l3.5,0.6
			c0.4,0.1,0.6,0,0.8-0.3c0.2-0.2,0.4-0.5,0.6-0.8s0.5-0.5,0.9-0.7s1-0.2,1.9-0.1s1.5,0.4,1.9,0.8s0.5,0.8,0.4,1.4
			c-0.1,0.4-0.2,0.7-0.6,1c-0.3,0.3-0.7,0.5-1.1,0.8s-0.9,0.5-1.4,0.8s-1,0.6-1.4,0.9s-0.8,0.7-1.2,1.2c-0.3,0.5-0.6,1-0.7,1.6
			c0,0.2-0.2,1.8-0.1,2s0.3,0.3,0.5,0.3l3.5,0.6c0.2,0,0.4,0,0.5-0.1s0.5-1.7,0.6-1.9c0.2-0.4,0.5-0.7,0.8-1.1
			c0.4-0.3,0.8-0.6,1.2-0.8c0.4-0.3,0.9-0.5,1.4-0.8s0.9-0.6,1.3-0.9c0.4-0.4,0.8-0.8,1.1-1.3c0.3-0.5,0.5-1.1,0.6-1.7
			C36.1,23.2,36,22.4,35.8,21.6z"/>
		<path class="st6" d="M28.1,34l-3.2-0.5c-0.2,0-0.4,0-0.5,0.1c-0.2,0.1-0.3,0.3-0.3,0.5l-0.4,2.6c0,0.2,0,0.4,0.1,0.5
			c0.1,0.2,0.3,0.3,0.5,0.3l3.2,0.5c0.2,0,0.4,0,0.5-0.1c0.2-0.1,0.3-0.3,0.3-0.5l0.4-2.6c0-0.2,0-0.4-0.1-0.5
			C28.4,34.2,28.3,34.1,28.1,34z"/>
	</g>
	<g>
		<path class="st7" d="M35.5,21.2c-0.3-0.8-0.7-1.5-1.3-2.1c-0.6-0.6-1.4-1.2-2.3-1.6S30,16.8,29,16.6c-1.3-0.2-2.4-0.2-3.4,0.1
			c-1,0.2-1.9,0.6-2.7,1.1c-0.8,0.5-1.4,1.1-1.9,1.8c-0.5,0.7-0.8,1.3-0.9,2c0,0.2,0,0.4,0.1,0.5s0.2,0.2,0.4,0.2l3.5,0.6
			c0.4,0.1,0.6,0,0.8-0.3c0.2-0.2,0.4-0.5,0.6-0.8s0.5-0.5,0.9-0.7s1-0.2,1.9-0.1s1.5,0.4,1.9,0.8s0.5,0.8,0.4,1.4
			c-0.1,0.4-0.2,0.7-0.6,1c-0.3,0.3-0.7,0.5-1.1,0.8s-0.9,0.5-1.4,0.8s-1,0.6-1.4,0.9s-0.8,0.7-1.2,1.2c-0.3,0.5-0.6,1-0.7,1.6
			c0,0.2-0.2,1.8-0.1,2s0.3,0.3,0.5,0.3l3.5,0.6c0.2,0,0.4,0,0.5-0.1s0.5-1.7,0.6-1.9c0.2-0.4,0.5-0.7,0.8-1.1
			c0.4-0.3,0.8-0.6,1.2-0.8c0.4-0.3,0.9-0.5,1.4-0.8s0.9-0.6,1.3-0.9c0.4-0.4,0.8-0.8,1.1-1.3c0.3-0.5,0.5-1.1,0.6-1.7
			C35.8,22.8,35.8,22,35.5,21.2z"/>
		<path class="st8" d="M27.8,33.6l-3.2-0.5c-0.2,0-0.4,0-0.5,0.1c-0.2,0.1-0.3,0.3-0.3,0.5l-0.4,2.6c0,0.2,0,0.4,0.1,0.5
			c0.1,0.2,0.3,0.3,0.5,0.3l3.2,0.5c0.2,0,0.4,0,0.5-0.1c0.2-0.1,0.3-0.3,0.3-0.5l0.4-2.6c0-0.2,0-0.4-0.1-0.5
			C28.1,33.8,28,33.7,27.8,33.6z"/>
	</g>
</g>
</svg>
