<?xml version="1.0" encoding="utf-8"?>
<!-- Generator: Adobe Illustrator 16.0.0, SVG Export Plug-In . SVG Version: 6.00 Build 0)  -->
<!DOCTYPE svg PUBLIC "-//W3C//DTD SVG 1.1//EN" "http://www.w3.org/Graphics/SVG/1.1/DTD/svg11.dtd">
<svg version="1.1" id="Layer_1" xmlns="http://www.w3.org/2000/svg" xmlns:xlink="http://www.w3.org/1999/xlink" x="0px" y="0px"
	 width="48px" height="48px" viewBox="0 0 48 48" enable-background="new 0 0 48 48" xml:space="preserve">
<g>
	<path fill="#EE7413" d="M1,42.75c0,1.657,1.343,3,3,3h39.834c1.657,0,3-1.343,3-3V5.303c0-1.657-1.343-3-3-3H4
		c-1.657,0-3,1.343-3,3V42.75z"/>
</g>
<g>
	<g>
		<path fill="#FFFFFF" d="M35.518,37.615l4.453-18.813l-13.166-1.291l0.666-0.996l-2.539-3.143l1.029-0.831l1.801,2.229
			l-0.516,0.415l1.521,1.885l1.598-1.292l-1.519-1.884l-0.343,0.274l-1.803-2.227l0.627-0.507l-0.775-0.965L12.615,21.729
			l0.776,0.964l2.113-1.707l2.539,3.142l0.487-0.204l-1.526,8.009l0-0.001L4.842,33.734l16.226,5.822L35.518,37.615z M19.683,23.449
			l4.37-1.813l1.906-2.857l11.989,1.409l-3.753,15.849l-16.07-4.546L19.683,23.449z M17.03,37.285l-3.983-1.52l1.92-0.256
			l4.467,1.491L17.03,37.285z"/>
		<polygon fill="#FFFFFF" points="36.465,38.275 21.015,40.534 21.015,40.528 4.572,34.513 4.572,35.445 20.902,41.691 
			37.305,39.084 41.904,20.028 40.906,19.334 		"/>
		<path fill="#FFFFFF" d="M10.928,29.762c0.351-0.082,0.67-0.227,0.958-0.417l0.515,0.382l0.306-0.412l2.554,1.894l0.741-1.002
			l-2.555-1.892l0.247-0.333l-0.525-0.39c0.133-0.482,0.151-1.007,0.026-1.523c-0.395-1.645-2.05-2.661-3.694-2.267
			c-1.644,0.393-2.658,2.05-2.266,3.692C7.627,29.138,9.284,30.153,10.928,29.762z M9.798,25.047
			c0.958-0.229,1.922,0.363,2.151,1.319c0.229,0.958-0.361,1.922-1.319,2.148c-0.957,0.23-1.92-0.36-2.151-1.318
			C8.249,26.24,8.843,25.275,9.798,25.047z"/>
		<path fill="#FFFFFF" d="M30.956,10.942c0.46,0.553,1.151,0.908,1.925,0.912c0.005,0,0.01,0.001,0.012,0.001l0,0h0.003
			c0.782,0,1.479-0.354,1.944-0.913c0.044-0.05,0.08-0.104,0.124-0.157c0.291-0.413,0.465-0.917,0.465-1.459
			s-0.174-1.044-0.465-1.458c-0.038-0.054-0.078-0.106-0.124-0.158c-0.465-0.557-1.162-0.912-1.941-0.912h-0.006l0,0
			c-0.002,0-0.007,0-0.012,0c-0.773,0.004-1.465,0.357-1.925,0.912c-0.045,0.051-0.084,0.104-0.124,0.158
			c-0.292,0.413-0.467,0.916-0.467,1.458s0.173,1.046,0.467,1.459C30.871,10.838,30.911,10.892,30.956,10.942z M33.616,11.533
			c0.236-0.226,0.433-0.558,0.568-0.957c0.181,0.068,0.347,0.149,0.485,0.242C34.394,11.146,34.033,11.396,33.616,11.533z
			 M34.791,10.66c-0.159-0.108-0.345-0.201-0.549-0.277c0.072-0.269,0.12-0.563,0.132-0.87h0.833
			C35.175,9.937,35.025,10.33,34.791,10.66z M35.219,9.306H34.38c-0.002-0.37-0.051-0.721-0.138-1.036
			c0.206-0.076,0.391-0.17,0.552-0.277C35.057,8.364,35.214,8.816,35.219,9.306z M34.67,7.834c-0.139,0.093-0.305,0.175-0.485,0.242
			c-0.135-0.399-0.33-0.73-0.568-0.958C34.033,7.256,34.396,7.507,34.67,7.834z M32.999,7.014c0.421,0.064,0.785,0.501,0.989,1.125
			c-0.297,0.088-0.631,0.142-0.989,0.15V7.014z M32.999,8.498c0.375-0.009,0.731-0.066,1.045-0.161
			c0.079,0.294,0.125,0.622,0.126,0.969h-1.171V8.498z M32.999,9.513h1.165c-0.012,0.285-0.053,0.557-0.12,0.804
			c-0.316-0.095-0.67-0.154-1.048-0.163V9.513H32.999z M32.999,10.363c0.358,0.009,0.692,0.062,0.989,0.15
			c-0.203,0.625-0.568,1.061-0.989,1.125V10.363z M31.12,10.818c0.139-0.092,0.303-0.171,0.476-0.237
			c0.133,0.392,0.325,0.72,0.561,0.945C31.751,11.388,31.393,11.141,31.12,10.818z M32.794,11.641
			c-0.424-0.06-0.793-0.496-1.002-1.125c0.3-0.09,0.638-0.145,1.002-0.153V11.641L32.794,11.641z M32.794,10.153
			c-0.379,0.009-0.742,0.07-1.061,0.168c-0.065-0.249-0.109-0.521-0.121-0.809h1.18v0.641H32.794z M32.794,9.306H31.61
			c0-0.349,0.047-0.678,0.124-0.975c0.32,0.098,0.68,0.157,1.06,0.167V9.306z M32.794,7.012V8.29
			c-0.364-0.009-0.7-0.063-1.002-0.152C32.001,7.507,32.367,7.072,32.794,7.012z M32.156,7.125
			c-0.232,0.226-0.425,0.554-0.561,0.947c-0.177-0.066-0.337-0.146-0.476-0.237C31.393,7.514,31.751,7.264,32.156,7.125z
			 M30.999,7.992c0.159,0.106,0.34,0.198,0.541,0.273c-0.085,0.315-0.137,0.669-0.138,1.041h-0.828
			C30.578,8.816,30.737,8.364,30.999,7.992z M31.406,9.513c0.017,0.31,0.06,0.605,0.134,0.874c-0.201,0.075-0.382,0.166-0.541,0.272
			c-0.23-0.331-0.38-0.724-0.415-1.148L31.406,9.513L31.406,9.513z"/>
		<path fill="#FFFFFF" d="M35.221,14.561l-0.379,0.654l-0.971,0.389l0.494,1.229l0.97-0.392l0.724,0.212l3.27-1.313l0.289,0.722
			l0.985-0.396l-0.296-0.74l1.598-0.642l-0.826-2.058l-1.599,0.64l-0.324-0.809l-0.985,0.396l0.32,0.796L35.221,14.561z
			 M39.212,15.059l-3.168,1.273l-0.726-0.209l-0.787,0.316l-0.267-0.665l0.786-0.316l0.378-0.652l3.172-1.274L39.212,15.059z"/>
		<path fill="#FFFFFF" d="M19.296,9.002c0.657-0.109,1.1-0.733,0.989-1.389c-0.11-0.653-0.732-1.099-1.388-0.989
			c-0.654,0.11-1.098,0.733-0.989,1.387C18.021,8.669,18.642,9.113,19.296,9.002z M19.002,7.244c0.315-0.052,0.614,0.16,0.667,0.476
			c0.054,0.314-0.161,0.614-0.474,0.667C18.88,8.44,18.58,8.227,18.527,7.913C18.474,7.595,18.688,7.297,19.002,7.244z"/>
		<path fill="#FFFFFF" d="M19.356,9.343c-0.658,0.11-1.1,0.732-0.989,1.389c0.109,0.654,0.732,1.098,1.389,0.987
			c0.655-0.11,1.098-0.733,0.985-1.387C20.631,9.677,20.009,9.234,19.356,9.343z M20.123,10.435
			c0.056,0.315-0.157,0.614-0.474,0.667c-0.313,0.053-0.614-0.162-0.667-0.476c-0.053-0.314,0.16-0.614,0.476-0.666
			C19.773,9.907,20.071,10.12,20.123,10.435z"/>
		<path fill="#FFFFFF" d="M17.186,9.524l-1.757,2.535l1.398-0.234l1.76-2.533L16.101,7.47l-1.427,0.116l2.516,1.938H17.186z
			 M17.713,9.084c0.167-0.03,0.325,0.084,0.355,0.25c0.028,0.168-0.083,0.326-0.252,0.355c-0.169,0.028-0.326-0.084-0.353-0.251
			C17.433,9.27,17.546,9.11,17.713,9.084z"/>
		<path fill="#FFFFFF" d="M34.398,22.641l-5.565-0.785l0.347,1.594l0.785,0.074l0.354,1.639l-0.689,0.373l0.355,1.646l4.748-2.989
			L34.398,22.641z M31.356,24.604l-0.21-0.975l1.693,0.154l0.005,0.015L31.356,24.604z"/>
		<path fill="#FFFFFF" d="M26.33,29.681c-0.068-0.084-0.146-0.152-0.234-0.208c-0.088-0.057-0.178-0.1-0.272-0.13
			c0.157-0.086,0.28-0.195,0.376-0.321s0.143-0.295,0.143-0.509c0-0.105-0.021-0.221-0.054-0.346
			c-0.035-0.123-0.104-0.238-0.206-0.346c-0.099-0.106-0.236-0.194-0.413-0.264c-0.175-0.068-0.402-0.103-0.676-0.103h-2.312v4.221
			h2.396c0.183,0,0.364-0.027,0.544-0.082c0.175-0.055,0.331-0.136,0.47-0.243c0.138-0.105,0.253-0.237,0.334-0.398
			c0.085-0.159,0.126-0.347,0.126-0.56c0-0.152-0.021-0.288-0.061-0.407C26.451,29.868,26.396,29.768,26.33,29.681z M23.98,28.461
			h0.686c0.135,0,0.24,0.023,0.322,0.065c0.08,0.043,0.121,0.119,0.121,0.225c0,0.138-0.037,0.229-0.117,0.276
			c-0.078,0.049-0.188,0.071-0.326,0.071H23.98V28.461L23.98,28.461z M25.213,30.472c-0.025,0.052-0.064,0.093-0.113,0.122
			c-0.048,0.03-0.101,0.05-0.162,0.061c-0.061,0.013-0.125,0.02-0.191,0.02H23.98v-0.786h0.818c0.303,0,0.454,0.127,0.454,0.384
			C25.253,30.353,25.238,30.42,25.213,30.472z"/>
		<path fill="#FFFFFF" d="M8.462,17.017c0.257,0.291,0.543,0.523,0.854,0.697c0.31,0.174,0.633,0.278,0.971,0.31
			c0.333,0.034,0.67-0.006,1.011-0.118c0.344-0.112,0.675-0.31,0.995-0.594c0.287-0.254,0.501-0.529,0.64-0.824
			c0.141-0.293,0.218-0.587,0.232-0.88c0.016-0.291-0.025-0.57-0.12-0.836c-0.094-0.265-0.229-0.498-0.403-0.696l-1.195,1.058
			c0.064,0.108,0.115,0.217,0.156,0.325c0.041,0.109,0.062,0.216,0.064,0.319c0.002,0.104-0.018,0.204-0.06,0.3
			c-0.042,0.097-0.115,0.19-0.218,0.282c-0.144,0.127-0.292,0.203-0.444,0.224c-0.15,0.022-0.301,0.007-0.45-0.044
			c-0.148-0.054-0.292-0.133-0.432-0.239c-0.139-0.106-0.269-0.225-0.386-0.359s-0.22-0.274-0.308-0.426
			c-0.087-0.153-0.148-0.304-0.185-0.458c-0.033-0.154-0.03-0.304,0.009-0.453c0.041-0.146,0.133-0.285,0.277-0.411
			c0.126-0.11,0.249-0.177,0.371-0.201c0.122-0.023,0.233-0.023,0.337-0.003c0.104,0.021,0.191,0.055,0.268,0.103
			c0.076,0.049,0.133,0.089,0.175,0.118l1.182-1.048c-0.492-0.45-1.006-0.681-1.543-0.689c-0.535-0.009-1.078,0.228-1.626,0.706
			c-0.308,0.273-0.538,0.565-0.696,0.882c-0.156,0.316-0.243,0.642-0.256,0.978c-0.015,0.335,0.042,0.673,0.171,1.01
			C7.985,16.384,8.188,16.706,8.462,17.017z"/>
	</g>
</g>
</svg>
