<?xml version="1.0" encoding="utf-8"?>
<!-- Generator: Adobe Illustrator 16.0.0, SVG Export Plug-In . SVG Version: 6.00 Build 0)  -->
<!DOCTYPE svg PUBLIC "-//W3C//DTD SVG 1.1//EN" "http://www.w3.org/Graphics/SVG/1.1/DTD/svg11.dtd">
<svg version="1.1" id="Layer_1" xmlns="http://www.w3.org/2000/svg" xmlns:xlink="http://www.w3.org/1999/xlink" x="0px" y="0px"
	 width="48px" height="48px" viewBox="0 0 48 48" enable-background="new 0 0 48 48" xml:space="preserve">
<g>
	<path fill="#26A36A" d="M1,42.75c0,1.657,1.343,3,3,3h39.834c1.657,0,3-1.343,3-3V5.303c0-1.657-1.343-3-3-3H4
		c-1.657,0-3,1.343-3,3V42.75z"/>
</g>
<g>
	<g>
		<path fill="#FFFFFF" d="M12.876,15.395c0,1.253,1.016,2.269,2.269,2.269s2.269-1.016,2.269-2.269c0-1.253-1.016-2.27-2.269-2.27
			S12.876,14.142,12.876,15.395z"/>
		<path fill="#FFFFFF" d="M29.844,33.939L29.844,33.939H6.448l1.021-2.801h22.452c0.054-0.312,0.125-0.615,0.215-0.913H6.692
			l-2.789,6.188l0.468,1.236h27.425c-0.923-1.027-1.574-2.303-1.845-3.71H29.844z M19.562,36.104l0.879-1.425h3.435l0.879,1.425
			H19.562z"/>
		<path fill="#FFFFFF" d="M20.305,24.475v0.824c0,0.299,0.24,0.539,0.534,0.539h12.672c0.633-0.393,1.327-0.695,2.062-0.892V14.861
			c0-0.296-0.24-0.538-0.537-0.538H20.839c-0.296,0-0.534,0.243-0.534,0.538v3.538c0.322,0.305,0.597,0.68,0.78,1.154l0.151-0.104
			c0.044-0.043,0.095-0.073,0.143-0.108v-3.94h13.118v9.361H21.382v-1.007L20.305,24.475z"/>
		<path fill="#FFFFFF" d="M32.364,26.701l-14.198,0.007l-0.003-5.665h0.648v1.758c0,0.003,0,0.005,0,0.008
			c0,0.544,0.442,0.99,0.991,0.99c0.161,0,0.307-0.044,0.44-0.113l0.004,0.004l1.716-1.149l0.9-0.604c0,0,0.647-0.435,0.649-0.437
			c0.333-0.268,0.381-0.723,0.233-1.09l3.857-2.76l-0.293-0.41l-3.862,2.763c-0.016-0.013-0.025-0.022-0.025-0.022
			c-0.166-0.122-0.359-0.188-0.559-0.195c-0.275-0.011-0.499,0.102-0.766,0.292l-1.305,0.897v-0.338
			c-0.215-2.578-3.206-2.541-3.206-2.541h-1.291l-1.088,1.789l-1.096-1.788h-1.24c-2.312,0.042-2.983,1.219-3.176,1.954v-0.725
			H9.692v-8.178h8.457h19.06v7.407h0.003v6.133c0.125-0.006,0.252-0.009,0.379-0.009c0.63,0,1.247,0.075,1.844,0.22v-6.04V9.18
			H18.392H7.469v9.845v9.681h23.308C31.193,27.952,31.731,27.275,32.364,26.701z M12.218,26.695H11.59l0.012-5.627h0.62
			L12.218,26.695z"/>
		<path fill="#FFFFFF" d="M37.564,25.752c-3.693,0-6.691,2.994-6.691,6.691c0,3.692,2.998,6.687,6.691,6.687
			s6.686-2.994,6.686-6.687C44.253,28.748,41.258,25.752,37.564,25.752z M40.794,32.742l-4.124,3.559
			c-0.139,0.124-0.354,0.158-0.535,0.094c-0.186-0.068-0.306-0.223-0.306-0.396v-7.117c0-0.172,0.121-0.327,0.306-0.396
			c0.184-0.065,0.396-0.028,0.535,0.092l4.124,3.559C40.985,32.309,40.985,32.576,40.794,32.742z"/>
	</g>
</g>
</svg>
