<?xml version="1.0" encoding="utf-8"?>
<!-- Generator: Adobe Illustrator 16.0.0, SVG Export Plug-In . SVG Version: 6.00 Build 0)  -->
<!DOCTYPE svg PUBLIC "-//W3C//DTD SVG 1.1//EN" "http://www.w3.org/Graphics/SVG/1.1/DTD/svg11.dtd">
<svg version="1.1" id="Layer_1" xmlns="http://www.w3.org/2000/svg" xmlns:xlink="http://www.w3.org/1999/xlink" x="0px" y="0px"
	 width="48px" height="48px" viewBox="0 0 48 48" enable-background="new 0 0 48 48" xml:space="preserve">
<g>
	<path fill="#F2984E" d="M1,42.75c0,1.657,1.343,3,3,3h39.834c1.657,0,3-1.343,3-3V5.303c0-1.657-1.343-3-3-3H4
		c-1.657,0-3,1.343-3,3V42.75z"/>
</g>
<g>
	<g>
		<path fill="#FFFFFF" d="M36.23,12.121H11.771c-1.837,0-3.331,1.494-3.331,3.329v17.151c0,1.836,1.494,3.33,3.331,3.33H36.23
			c1.834,0,3.328-1.494,3.328-3.33V15.45C39.559,13.615,38.064,12.121,36.23,12.121z M37.975,32.602
			c0,0.963-0.781,1.746-1.744,1.746H11.771c-0.963,0-1.747-0.783-1.747-1.746V15.45c0-0.962,0.784-1.745,1.747-1.745H36.23
			c0.961,0,1.744,0.783,1.744,1.745V32.602L37.975,32.602z"/>
		<path fill="#FFFFFF" d="M23.999,16.123c-4.365,0-7.903,3.539-7.903,7.905c0,4.365,3.538,7.902,7.903,7.902
			c4.366,0,7.905-3.537,7.905-7.902C31.904,19.662,28.364,16.123,23.999,16.123z M21.856,28.314v-8.573l5.727,4.286L21.856,28.314z"
			/>
		<path fill="#FFFFFF" d="M27.82,10.416h1.843c0.151,0,0.272-0.121,0.272-0.272V7.515c0-0.151-0.121-0.272-0.272-0.272H27.82
			c-0.149,0-0.271,0.122-0.271,0.272v2.629C27.548,10.295,27.67,10.416,27.82,10.416z"/>
		<path fill="#FFFFFF" d="M23.078,10.416h1.844c0.15,0,0.271-0.121,0.271-0.272V7.515c0-0.151-0.121-0.272-0.271-0.272h-1.844
			c-0.15,0-0.272,0.122-0.272,0.272v2.629C22.806,10.295,22.93,10.416,23.078,10.416z"/>
		<path fill="#FFFFFF" d="M18.338,10.416h1.843c0.15,0,0.272-0.121,0.272-0.272V7.515c0-0.151-0.122-0.272-0.272-0.272h-1.844
			c-0.15,0-0.272,0.122-0.272,0.272v2.629C18.065,10.295,18.187,10.416,18.338,10.416z"/>
		<path fill="#FFFFFF" d="M13.599,10.416h1.841c0.15,0,0.273-0.121,0.273-0.272V7.515c0-0.151-0.123-0.272-0.272-0.272h-1.842
			c-0.153,0-0.273,0.122-0.273,0.272v2.629C13.324,10.295,13.446,10.416,13.599,10.416z"/>
		<path fill="#FFFFFF" d="M8.858,10.416h1.841c0.148,0,0.272-0.121,0.272-0.272V7.515c0-0.151-0.124-0.272-0.271-0.272H8.858
			c-0.153,0-0.275,0.122-0.275,0.272v2.629C8.583,10.295,8.705,10.416,8.858,10.416z"/>
		<path fill="#FFFFFF" d="M32.563,10.416h1.842c0.148,0,0.272-0.121,0.272-0.272V7.515c0-0.151-0.124-0.272-0.273-0.272h-1.843
			c-0.152,0-0.271,0.122-0.271,0.272v2.629C32.29,10.295,32.408,10.416,32.563,10.416z"/>
		<path fill="#FFFFFF" d="M37.302,10.416h1.844c0.149,0,0.271-0.121,0.271-0.272V7.515c0-0.151-0.122-0.272-0.271-0.272h-1.844
			c-0.149,0-0.27,0.122-0.27,0.272v2.629C37.03,10.295,37.15,10.416,37.302,10.416z"/>
		<path fill="#FFFFFF" d="M29.663,37.637h-1.844c-0.149,0-0.271,0.121-0.271,0.273v2.629c0,0.15,0.122,0.271,0.271,0.271h1.844
			c0.15,0,0.271-0.123,0.271-0.271V37.91C29.936,37.758,29.813,37.637,29.663,37.637z"/>
		<path fill="#FFFFFF" d="M24.922,37.637h-1.845c-0.149,0-0.271,0.121-0.271,0.273v2.629c0,0.15,0.122,0.271,0.271,0.271h1.845
			c0.15,0,0.271-0.123,0.271-0.271V37.91C25.193,37.758,25.072,37.637,24.922,37.637z"/>
		<path fill="#FFFFFF" d="M20.182,37.637h-1.844c-0.15,0-0.272,0.121-0.272,0.273v2.629c0,0.15,0.122,0.271,0.272,0.271h1.844
			c0.15,0,0.271-0.123,0.271-0.271V37.91C20.454,37.758,20.332,37.637,20.182,37.637z"/>
		<path fill="#FFFFFF" d="M15.44,37.637h-1.843c-0.151,0-0.273,0.121-0.273,0.273v2.629c0,0.15,0.122,0.271,0.273,0.271h1.842
			c0.148,0,0.273-0.123,0.273-0.271V37.91C15.712,37.758,15.59,37.637,15.44,37.637z"/>
		<path fill="#FFFFFF" d="M10.7,37.637H8.858c-0.153,0-0.276,0.121-0.276,0.273v2.629c0,0.15,0.123,0.271,0.276,0.271h1.841
			c0.148,0,0.272-0.123,0.272-0.271V37.91C10.971,37.758,10.847,37.637,10.7,37.637z"/>
		<path fill="#FFFFFF" d="M34.403,37.637h-1.843c-0.152,0-0.271,0.121-0.271,0.273v2.629c0,0.15,0.118,0.271,0.271,0.271h1.843
			c0.148,0,0.273-0.123,0.273-0.271V37.91C34.677,37.758,34.553,37.637,34.403,37.637z"/>
		<path fill="#FFFFFF" d="M39.145,37.637h-1.843c-0.151,0-0.271,0.121-0.271,0.273v2.629c0,0.15,0.12,0.271,0.271,0.271h1.843
			c0.15,0,0.272-0.123,0.272-0.271V37.91C39.417,37.758,39.295,37.637,39.145,37.637z"/>
	</g>
</g>
<g>
	<g>
		<path fill="#FFFFFF" d="M3.757-37.438H34.73c1.524,0,2.759-1.235,2.759-2.759v-20.226c0-1.523-1.234-2.758-2.759-2.758H3.757
			C2.234-63.181,1-61.946,1-60.423v20.226C1-38.674,2.234-37.438,3.757-37.438z M21.368-39.376H17.12V-42h4.249V-39.376z
			 M31.492-61.182h4.248v2.625h-4.248V-61.182z M31.365-42h4.25v2.624h-4.25V-42z M24.368-61.182h4.249v2.625h-4.249V-61.182z
			 M24.243-42h4.249v2.624h-4.249V-42z M17.246-61.182h4.249v2.625h-4.249V-61.182z M16.054-54.841l6.38,3.19
			c1.48,0.741,1.48,1.941,0,2.682l-6.38,3.19c-1.481,0.741-2.682-0.002-2.682-1.658v-5.747
			C13.372-54.839,14.572-55.582,16.054-54.841z M10.123-61.182h4.249v2.625h-4.249V-61.182z M9.998-42h4.248v2.624H9.998V-42z
			 M2.999-61.182h4.249v2.625H2.999V-61.182z M2.874-42h4.249v2.624H2.874V-42z"/>
	</g>
</g>
</svg>
