<?xml version="1.0" encoding="utf-8"?>
<!-- Generator: Adobe Illustrator 18.0.0, SVG Export Plug-In . SVG Version: 6.00 Build 0)  -->
<!DOCTYPE svg PUBLIC "-//W3C//DTD SVG 1.1//EN" "http://www.w3.org/Graphics/SVG/1.1/DTD/svg11.dtd">
<svg version="1.1" id="Isolation_Mode" xmlns="http://www.w3.org/2000/svg" xmlns:xlink="http://www.w3.org/1999/xlink" x="0px"
	 y="0px" viewBox="0 0 19 41" style="enable-background:new 0 0 19 41;" xml:space="preserve">
<style type="text/css">
	.st0{opacity:0.25;}
	.st1{fill:#0AC9B9;}
</style>
<g class="st0">
	<path class="st1" d="M19,8.5c0,1.5-0.4,2.9-1.2,4c-0.9,1.3-2,1.9-3.6,1.9c-2.1,0-3.2-1.1-3.3-3.4c-0.1-1.2,0.5-2.2,1.7-3L14.2,7
		c0.6-0.4,1-1,1-1.9c0-1.1-0.4-2-1.3-2.6c-0.9-0.6-1.9-0.9-3.1-0.9c-1.5,0-2.8,0.5-3.9,1.6C5.7,4.2,5.2,5.5,5.2,7
		c0,1.2,0.3,2.6,1.1,4l2.4,4.8c2,3.9,3,7.6,3,11c0,0.7,0,1.3-0.1,1.7c0,0.1-0.1,1-0.3,2.7h-1c0-0.3,0-0.7,0-1.4c0-0.7,0-1.2,0-1.6
		c0-1-0.1-1.8-0.2-2.5c-0.4-0.9-0.8-1.5-1.3-1.9l-4-3.5C1.6,17.4,0,14.2,0,10.5c0-2.8,1-5.3,3-7.4C5,1,7.4,0,10.2,0
		c2.4,0,4.5,0.8,6.2,2.4C18.1,4.1,19,6.1,19,8.5z M13.5,37.6c0,1-0.3,1.8-1,2.4c-0.6,0.6-1.5,1-2.5,1c-0.9,0-1.7-0.3-2.4-1
		c-0.5-0.6-0.8-1.4-0.9-2.4c-0.1-0.9,0.2-1.7,0.9-2.4c0.6-0.7,1.5-1,2.4-1c1,0,1.8,0.3,2.5,1C13.2,35.8,13.5,36.6,13.5,37.6z"/>
</g>
</svg>
