<?xml version="1.0" encoding="utf-8"?>
<!-- Generator: Adobe Illustrator 22.1.0, SVG Export Plug-In . SVG Version: 6.00 Build 0)  -->
<svg version="1.1" id="Layer_1" xmlns="http://www.w3.org/2000/svg" xmlns:xlink="http://www.w3.org/1999/xlink" x="0px" y="0px"
	 viewBox="0 0 116.4 78.4" style="enable-background:new 0 0 116.4 78.4;" xml:space="preserve">
<style type="text/css">
	.st0{fill:#F27323;}
	.st1{fill:#5BC6CD;}
	.st2{fill:#FCC7A6;}
	.st3{fill:#F9B09B;}
	.st4{fill:#FBD3C5;}
	.st5{fill:#FCD8C1;}
	.st6{fill:#DC5826;}
	.st7{fill:#4E201D;}
	.st8{fill:#321716;}
	.st9{fill:#EC756C;}
	.st10{fill:#F59088;}
	.st11{fill:#F8B1AD;}
	.st12{fill:#FFFFFF;}
	.st13{fill:#CE7754;}
	.st14{fill:#6C4533;}
	.st15{fill:#F68832;}
	.st16{fill:#EAAE86;}
	.st17{fill:#D5956A;}
	.st18{fill:#F8D94A;}
	.st19{fill:#2E3031;}
	.st20{fill:#3E281A;}
	.st21{fill:#503628;}
</style>
<g>
	<g>
		<path class="st0" d="M97.2,54.3c0.1,0.3-0.5,4.2-3.7,4.3c1.8,1.1,1.8,4.2-0.6,4.8c2.5,0.4,2.1,2.4,1.3,3.8c2.5-0.8,4.1,2,2.5,3.7
			c1.5,2.2,3.8,4.2,7.7,4c-1.1,1.3-4.1,1.2-4.1,1.2s0.4,1.5,3.2,2.2c-4.4,0.8-6.7-1.1-7.9-6.6c-2,1.1-3.9-2.3-2.6-4.3
			c-2.8-0.2-2.9-3.2-1.6-4.1c-3.2-1.5-1.5-5.5,0.5-5.3c-2.3-2.2-1.8-5.9,0.5-6.7C95.7,51.6,97.2,54.3,97.2,54.3z"/>
		<path class="st1" d="M96.9,70.6c0,0,1.7,0.8,1,2c-0.8,1.5-2.2,1.3-2.2,1.3s-1.3-0.3-1.1-1.9C95.5,71.8,96.9,70.6,96.9,70.6z"/>
	</g>
	<g>
		<g>
			<path class="st2" d="M61,27.5c-2.7,6.3-4.6,25.8,13.1,31.8c17.6,5.9,28.4-5.8,32.2-18.1c4.5-14.8-6.7-25.1-17.1-27.5
				C72.8,10.2,64.6,19.1,61,27.5z"/>
			<path class="st3" d="M68.3,43.2c-0.1,1.6-2.7,2.7-5.1,1.8c-2.4-0.8-3.5-2.9-3.2-4.8c0.3-1.8,2.7-3,4.9-1
				C67,41.1,68.4,41.5,68.3,43.2z"/>
			<path class="st4" d="M62.1,40c0,0.2-0.3,0.4-0.6,0.3c-0.3-0.1-0.5-0.2-0.4-0.4c0-0.2,0.3-0.4,0.6-0.3
				C61.9,39.6,62.1,39.8,62.1,40z"/>
			<path class="st5" d="M76.4,40.3c0,0.2-0.3,0.4-0.6,0.3c-0.4-0.1-0.6-0.3-0.6-0.5s0.4-0.4,0.6-0.3C76.2,39.9,76.5,40.1,76.4,40.3z
				"/>
			<path class="st3" d="M95.4,47.9c-0.4,2.2-2.7,3.4-5.6,3.2c-2.8-0.2-5.3-2.7-4.6-4.7c0.7-1.9,2.2-1,5.5-1.8
				C94,43.9,95.8,45.7,95.4,47.9z"/>
			<ellipse transform="matrix(0.1749 -0.9846 0.9846 0.1749 31.1967 129.927)" class="st4" cx="93.1" cy="46.4" rx="0.4" ry="0.5"/>
			<path class="st6" d="M67.6,27c2.6-0.8,3.2,2.1,1.4,2.1s-3.4,0.7-3.6,0.6C64.9,29.3,66.1,27.4,67.6,27z"/>
			<path class="st6" d="M91.7,32.8c-2.2-1.5-3.7,0.9-2,1.5c1.8,0.6,2.9,1.8,3.2,1.7C93.4,35.8,92.8,33.7,91.7,32.8z"/>
			<g>
				<path class="st7" d="M70.7,44.5c0,0-1.4,9.6,5.4,10.8c6.8,1.2,6.3-8.4,6.3-8.4S77.4,47.9,70.7,44.5z"/>
				<path class="st8" d="M77,46.7c0.1,2.4,0.7,5.8,3.4,7.4c2.2-2.5,2-7.2,2-7.2S80.3,47.4,77,46.7z"/>
				<path class="st9" d="M72.3,52.8c0.8,1.2,2,2.2,3.9,2.5c3.4,0.6,4.9-1.5,5.7-3.7c-0.2-0.4-1.3-1-2.4-0.5
					C78.3,49.3,74,50.6,72.3,52.8z"/>
				<path class="st10" d="M80.6,51.4c-0.5-0.2-1.2-0.1-1.5,0.1c-0.2-0.4-0.6-0.8-1.6-0.9c-2.5-0.1-5.6,2.5-2.5,3.7
					C78.4,55.6,82.5,52.2,80.6,51.4z"/>
				<path class="st11" d="M75.4,51.5c0.6-0.6,1.9-0.8,2.2-0.5c0.4,0.4-0.7,1.1-1.5,1.2C75.4,52.3,75.1,51.9,75.4,51.5z"/>
				<path class="st12" d="M72.8,45.4c-0.3,1-0.1,1.8,1.2,2.3s3.1,0.9,4.4,1c1.5,0.1,2.3-0.6,2.2-1.7C78,46.9,75.9,46.7,72.8,45.4z"
					/>
			</g>
			<path class="st13" d="M75.7,42.9L75.7,42.9c-0.9-0.4-1.3-1.2-1.2-2s0.8-1.5,1.4-1.5c0.4-0.1,1.2,0.1,1.8,1.5c0,0.1,0,0.1-0.1,0.1
				s-0.1,0-0.1-0.1c-0.4-0.9-1-1.4-1.5-1.3c-0.6,0.1-1.1,0.6-1.2,1.3c-0.1,0.4-0.1,1.3,1,1.8c0.1,0.1,0.1,0.1,0.1,0.1
				C75.7,42.9,75.7,42.9,75.7,42.9z"/>
			<path class="st14" d="M89.6,41.3L89.6,41.3c-0.2,0-0.4-0.1-0.4-0.3c0-2.3-1.7-3.8-3.2-3.8c-1.2,0-1.9,0.9-1.9,2.5
				c0,0.1-0.1,0.3-0.3,0.3c-0.1,0-0.3-0.1-0.3-0.3c0-2.2,1.3-3,2.4-3c1.8,0,3.7,1.8,3.7,4.4C89.8,41.2,89.8,41.3,89.6,41.3z"/>
			<path class="st14" d="M72.1,36.8L72.1,36.8c-0.2,0-0.4-0.1-0.4-0.3c0-2.2-1.5-3.7-3-3.7c-1.1,0-1.8,0.9-1.8,2.4
				c0,0.1-0.1,0.3-0.3,0.3c-0.1,0-0.3-0.1-0.3-0.3c0-2.1,1.2-2.9,2.3-2.9c1.7,0,3.5,1.7,3.5,4.1C72.3,36.6,72.3,36.7,72.1,36.8z"/>
		</g>
		<g>
			<path class="st0" d="M81.4,13.7c0,0-2.5,6.1-2.7,12c2,0.8,3.8,1,3.8,1l3.9-9.7c0,0-2.5,7.4-2.2,9.9c3.2,1.4,12.8,2.4,16.2,2.9
				c-0.6,4.1-0.3,9.9,1.4,16.5c1.3,0.5,4.8,1.2,4.8,1.2s11.4-11.3,9.5-25.6c-1.2-9.3-15.9-14.3-15.9-14.3s5.6,0.3,4.9-1.9
				c-0.8-2.2-6.5,1.1-6.5,1.1s1.9-3.2,0.1-4.1c-2.7-1.5-1.8,4-1.8,4s-9.7-3.6-20.4-2c-9.8,1.4-16.9,4.9-16,25.3
				c1.7-2.5,3.7-7.6,3.7-7.6s6.4,2.1,10.9,2.8C77.1,17.6,81.4,13.7,81.4,13.7z"/>
			<path class="st6" d="M114.8,24.1c-0.1,8.2-1.1,10.5-8.8,23.1c-2.1,0.4-4.7-5.8-3.7-17.2C105.4,40.8,110.8,38.7,114.8,24.1z"/>
			<path class="st15" d="M75.3,4.5c7.4,5.2,24,6.6,31,5.7c4.2,2.4,9.2,6.3,9.9,11.6c0.2,1.4,0.2,2.8,0.2,4.1
				C93.8,10.5,71.1,12.4,62.5,14.1C64.8,7.7,69.5,5.4,75.3,4.5z"/>
		</g>
		<g>
			<path class="st2" d="M102.1,44.1c0,0,1.8-2.6,4.8-1.5c3.2,1.1,2.3,6-0.8,7.9c-3.1,2-6.7,0.7-6.7-2L102.1,44.1z"/>
			<path class="st16" d="M106.5,42.7c-0.8-0.3-1.5-0.3-2.1-0.1c0.5-0.1,1-0.1,1.5,0.1c3,1.2,1.8,4.8-0.1,6.4
				c-2.6,2.2-5.5,1.3-6.2-0.8c-0.1,2.5,3.4,3.7,6.2,1.8C108.7,48.2,109.6,43.6,106.5,42.7z"/>
			<path class="st17" d="M107,44c-1.8-1.4-5.5,1.9-3.8,5.3c0.3-3.4,1.8-3.9,2.6-1.8c0.5-1,0.3-1.8-1-2.2C105.4,44.1,107,44,107,44z"
				/>
		</g>
		<path class="st18" d="M69,14.9c0.6-2.9-1.3-6.5-2.2-6.5c-0.6,0.3-1.1,4-0.2,6.5C67.1,16.3,68.6,17,69,14.9z M66.9,12.7
			c-0.1-0.9-0.1-2.5,0.2-2.5c0.4,0,1.7,4.4,0.6,4.6C67.4,14.8,67.1,13.8,66.9,12.7z"/>
		<path class="st18" d="M106.2,25c3.2-1.1,5.3-5.2,4.8-6c-0.7-0.5-4.5,1.3-6.3,3.6C103.7,23.9,103.9,25.7,106.2,25z M107,21.7
			c0.8-0.6,2.5-1.5,2.6-1.3c0.2,0.4-3.2,4.2-4,3.3C105.2,23.3,106,22.4,107,21.7z"/>
		<g>
			<path class="st19" d="M68,41.9c-4.4,0.4-8.4-2.9-8.9-7.3c-0.2-2.2,0.4-4.4,1.8-6c1.4-1.8,3.4-2.8,5.5-3h0.1
				c4.4-0.4,8.4,2.9,8.9,7.3C75.9,37.5,72.6,41.5,68,41.9L68,41.9L68,41.9z M66.7,26.3h-0.2c-2,0.2-3.8,1.2-5.1,2.7
				s-1.8,3.5-1.6,5.5c0.4,4.1,4,7,8.1,6.7H68c4.1-0.4,7.1-4.1,6.7-8.2C74.3,28.9,70.7,25.9,66.7,26.3z"/>
			<path class="st19" d="M88.4,46.4c-4.5,0.4-8.4-2.9-8.9-7.3c-0.3-2.2,0.4-4.4,1.8-6c1.4-1.8,3.4-2.8,5.5-3h0.1
				c4.5-0.4,8.4,2.9,8.9,7.3c0.3,2.2-0.4,4.4-1.8,6C92.6,45.2,90.6,46.2,88.4,46.4L88.4,46.4z M87.1,30.8L87.1,30.8
				C85,31,83.2,32,81.9,33.5C80.6,35,80.1,37,80.3,39c0.4,4.1,4,7,8.1,6.7h0.1c2-0.2,3.8-1.2,5.1-2.7s1.8-3.5,1.6-5.5
				C94.7,33.4,91.1,30.4,87.1,30.8z"/>
			<path class="st19" d="M79.9,36.7C79.8,36.7,79.8,36.7,79.9,36.7l-4.7-1.4c-0.2-0.1-0.3-0.3-0.3-0.5c0.1-0.2,0.3-0.3,0.5-0.3
				l4.6,1.4c0.2,0.1,0.3,0.3,0.3,0.5C80.1,36.5,80.1,36.6,79.9,36.7z"/>
			<path class="st19" d="M103.7,42.2C103.6,42.2,103.6,42.2,103.7,42.2l-8.3-1.8c-0.2-0.1-0.4-0.2-0.3-0.4c0.1-0.2,0.2-0.4,0.4-0.3
				l8.2,1.8c0.2,0.1,0.4,0.2,0.3,0.4C103.9,42.1,103.8,42.2,103.7,42.2z"/>
		</g>
	</g>
	<g>
		<g>
			<g>
				<g>
					<g>
						<path class="st2" d="M9.8,37.6c0,6.2,5.3,23.2,22.1,21.9s21.7-14.9,20.4-26.4c-1.5-13.9-14.4-18.6-24-16.8
							C13.5,19,9.8,29.3,9.8,37.6z"/>
						<path class="st3" d="M22.7,47.8c0.4,1.4-1.3,3.1-3.6,3.3s-4-1.2-4.4-2.9c-0.4-1.6,1.1-3.4,3.7-2.6
							C21,46.5,22.3,46.3,22.7,47.8z"/>
						<path class="st5" d="M16.4,47.3c0.1,0.2-0.1,0.4-0.3,0.5s-0.5,0-0.5-0.2c-0.1-0.2,0.1-0.4,0.3-0.5
							C16.2,47,16.4,47.1,16.4,47.3z"/>
						<path class="st5" d="M28.5,42.5c0.1,0.2-0.1,0.4-0.4,0.5c-0.3,0.1-0.6,0-0.6-0.2c-0.1-0.2,0.1-0.4,0.4-0.5
							C28.2,42.3,28.5,42.3,28.5,42.5z"/>
						<path class="st3" d="M47,42.1c0.5,2-1,3.8-3.5,4.7c-2.4,0.8-5.4-0.4-5.5-2.3c-0.1-1.8,1.4-1.6,4-3.4
							C44.5,39.3,46.6,40.1,47,42.1z"/>
						<path class="st5" d="M45,41.6c0,0.2-0.1,0.4-0.3,0.4c-0.2,0.1-0.4,0-0.5-0.2c0-0.2,0.1-0.4,0.3-0.4C44.7,41.3,45,41.4,45,41.6
							z"/>
						<path class="st20" d="M16.5,34.6c1.9-1.5,3.4,0.6,1.9,1.2c-1.5,0.7-2.6,1.8-2.8,1.7C15,37.4,15.4,35.4,16.5,34.6z"/>
						<path class="st20" d="M37.7,29.5c-2.4-0.5-2.7,2.1-1.2,2c1.7-0.1,3.1,0.4,3.3,0.3C40.3,31.4,39.1,29.8,37.7,29.5z"/>
					</g>
					<g>
						<path class="st7" d="M25.3,48c0,0,2.2,8.5,8.3,7.1s2.3-9.2,2.3-9.2S32,48.5,25.3,48z"/>
						<path class="st8" d="M31.3,47.6c0.9,2,2.6,4.6,5.4,5c1.1-2.8-0.8-6.7-0.8-6.7S34.3,47,31.3,47.6z"/>
						<path class="st9" d="M29.5,54.4c1.1,0.8,2.6,1.1,4.3,0.7c3-0.7,3.6-3,3.3-5.1c-0.4-0.3-1.4-0.3-2.2,0.5
							C33.2,49.3,30.1,51.9,29.5,54.4z"/>
						<path class="st10" d="M36,50.3c-0.5,0-1,0.3-1.2,0.6c-0.3-0.3-0.8-0.5-1.6-0.2c-2.1,0.8-3.8,4-0.7,4
							C35.6,54.6,37.8,50.3,36,50.3z"/>
						<path class="st11" d="M31.7,52.2c0.3-0.6,1.3-1.4,1.7-1.2c0.5,0.2-0.2,1.1-0.8,1.5C31.9,52.8,31.5,52.6,31.7,52.2z"/>
						<path class="st12" d="M27.3,48.1c0.1,0.9,0.5,1.5,1.8,1.5c1.2,0,2.9-0.3,4-0.7c1.3-0.5,1.7-1.3,1.3-2.2
							C31.5,47.6,30,47.9,27.3,48.1z"/>
					</g>
					<path class="st13" d="M28.8,44.9L28.8,44.9c0.1-0.2,0.1-0.2,0-0.2c-1.1-0.1-1.4-0.8-1.5-1.1c-0.1-0.6,0.1-1.3,0.5-1.5
						c0.5-0.3,1.1-0.1,1.8,0.6c0,0,0.1,0,0.2,0c0,0,0-0.1,0-0.2c-1-1-1.7-0.8-2-0.6c-0.5,0.3-0.8,1.1-0.6,1.8
						C27.2,44.4,27.9,44.9,28.8,44.9C28.7,44.9,28.8,44.9,28.8,44.9z"/>
					<path class="st14" d="M41.3,38.4c0.1-0.1,0.1-0.2,0.1-0.3c-1-2.4-3.5-3.3-5.1-2.6c-1.1,0.4-1.9,1.7-1.1,3.8
						c0.1,0.1,0.2,0.2,0.3,0.1c0.1-0.1,0.2-0.2,0.1-0.3c-0.6-1.5-0.3-2.6,0.8-3.1c1.4-0.6,3.5,0.2,4.5,2.3
						C40.9,38.5,41.1,38.5,41.3,38.4C41.2,38.5,41.2,38.4,41.3,38.4z"/>
					<path class="st14" d="M23.5,42.2c0.1-0.1,0.1-0.2,0.1-0.3c-1-2.4-3.5-3.3-5.1-2.6c-1.1,0.4-1.9,1.7-1.1,3.8
						c0.1,0.1,0.2,0.2,0.3,0.1c0.1-0.1,0.2-0.2,0.1-0.3c-0.6-1.5-0.3-2.6,0.8-3.1c1.4-0.6,3.5,0.2,4.5,2.3
						C23.2,42.2,23.3,42.3,23.5,42.2L23.5,42.2z"/>
				</g>
				<g>
					<path class="st21" d="M53.7,40.7c-0.8,1.6-3.8-0.3-2.3-2.2c-3.3,0.7-4.8-3.5-3-5.3c-2.1,0.3-2.6-1.9-0.8-3
						c-3.4,0-7.1-2.5-5.9-5.6c-1.8,3-4.1,0.8-4.6-1.1c-0.6,2.6-10.6,2.7-11.1-0.8c-0.1,5.2-4.1,3.6-5.6,2.2c1.8,3.7-4.4,5.5-6.2,3.9
						c1,3.6-1.6,4.5-2.9,3.3c0.6,2.7-0.9,3.4-1.4,3.3c-0.1,2.8,0.7,6.2,1,8.6C9,45.3,5.1,42.1,6,39.4c-3.5-1.3-2.6-4.5-2.4-5.7
						c-2.2-0.3-3.4-5.1-1.2-5.9c-4.1-2.7-2.8-11.3,3.2-12.5c-3.9-4.4,2.2-6.2,4.4-3.1c1-7.4,10-8.6,12.1-5.9c-0.2-6.5,4.1-3.5,4-2
						c0.3-7,8.5-4.1,6.4-0.3c3.8-3.5,11.3-0.9,13.4,2.7c1.7-4.8,5.9-1.1,1.9,1.8c7.3-1.7,11.5,6.2,8.2,8.2c5.5,0.8,7.3,9.8,1.1,9.7
						c1.6,0.7,1.6,2.3-0.4,2.9c3.3,1,2.7,5.3,1.1,6.1c1.9,4-2.6,4.6-2.6,4.6S54.5,39,53.7,40.7z"/>
					<path class="st20" d="M5.8,36.8c1-0.8,0.8-4.1-1.3-6c1.8,1.8,5.1-1.9,3.7-7.1c2.5,2.2,9.5,1.1,6.9-4.2c2.1,2.1,9.1,4,9.3-3.5
						c0.6,5.1,10.9,3.3,11.8-0.4c0.7,2.7,6.6,5.1,9.1,0.9c-1.1,7.8,5.5,11.2,7.3,10.4c-2.6,1.5-2.3,4.5,0.7,4.1
						c-1.7,1.8,4,3.8,3.4-0.6c0.6,3.2,0.8,4.5-0.4,4.6c1.6,3.4-0.5,4.3-0.5,4.3s-1.2-0.3-2,1.2c-0.3-0.6-0.4-1.3,0.2-2.1
						c-3.8,0.7-5.4-3.9-3.4-6.1c-2.4,0.3-3.5-2-1.5-3.3c-4.8-1-6.7-4.2-5.7-7.2c-2,3.4-5,1.7-5.6-0.5c-0.7,3-12.1,3.1-12.5-0.9
						c-0.1,5.9-4.7,4.1-6.3,2.5c2,4.2-5,6.2-7,4.5c1.1,4.1-1.8,5.1-3.2,3.7c0.7,3.1,0.1,4.1-0.4,3.9c0.7,1.2,0.7,3.7,1.6,8
						c-0.8,0.5-3.2-2.1-1.8-2.9C7.1,39.9,6.7,39,5.8,36.8z"/>
					<path class="st20" d="M39,9.5c0.4-3.7-3.6-6.5-6.3-1.4C36.8,4.9,39,9.5,39,9.5z"/>
					<path class="st20" d="M7.1,19.2c-3.2-3.7-6.2-0.8-3,4C3.3,18.1,7.1,19.2,7.1,19.2z"/>
					<path class="st20" d="M51.4,18c5.6-3,1.3-7.2-2.2-3.2C54.4,14.3,51.4,18,51.4,18z"/>
					<path class="st20" d="M16.5,11.7c-2.5-5.8-7-2-3.4,1.9C13.2,8.4,16.5,11.7,16.5,11.7z"/>
				</g>
				<g>
					<path class="st2" d="M49.9,36.9c0,0,0.5-2.8,3.5-3c3.1-0.2,4,4.2,2.2,6.9c-1.9,2.7-5.3,3-6.2,0.7L49.9,36.9z"/>
					<path class="st16" d="M53,34.2c-0.8,0.1-1.3,0.3-1.8,0.6c0.4-0.2,0.8-0.4,1.3-0.4c2.9-0.1,3.2,3.3,2.2,5.4
						c-1.4,2.7-4.1,3-5.5,1.5c0.8,2.1,4.1,1.9,5.9-0.7C56.8,38,56,34,53,34.2z"/>
					<path class="st16" d="M53.9,35.2c-2-0.5-3.9,3.5-1.3,5.8c-1-3,0.2-3.9,1.5-2.5c0-1-0.4-1.6-1.6-1.5
						C52.6,35.7,53.9,35.2,53.9,35.2z"/>
				</g>
			</g>
		</g>
	</g>
</g>
</svg>
