<?xml version="1.0" encoding="utf-8"?>
<!-- Generator: Adobe Illustrator 19.2.0, SVG Export Plug-In . SVG Version: 6.00 Build 0)  -->
<svg version="1.1" id="Layer_1" xmlns="http://www.w3.org/2000/svg" xmlns:xlink="http://www.w3.org/1999/xlink" x="0px" y="0px"
	 viewBox="0 0 103.7 28.4" style="enable-background:new 0 0 103.7 28.4;" xml:space="preserve">
<style type="text/css">
	.st0{fill:#1B363C;}
</style>
<g>
	<path class="st0" d="M5.9,27.9c-1.7,0-3.1-0.6-4.2-1.8C0.5,24.8,0,23.3,0,21.5c0-0.9,0-1.7,0.1-2.4c0.1-1,0.4-1.9,0.7-2.7
		c0.1-0.3,0.3-0.6,0.5-0.9s0.4-0.4,0.5-0.4C2,15.1,2,15.1,2,15.3c0,0.1,0,0.3-0.1,0.6s-0.1,0.6-0.2,1.1c-0.1,0.4-0.1,0.9-0.1,1.4
		c0,1.1,0.4,2,1.1,2.9c0.8,0.9,1.6,1.3,2.7,1.3H23c0.3,0,0.7-0.3,0.9-1s0.4-1.4,0.4-2.3c0-0.6-0.1-1.2-0.3-1.7l3.6-4.4
		c0.1,0.4,0.2,0.9,0.2,1.4c0,0.6,0.1,1.1,0.1,1.6c0,1-0.1,1.9-0.2,2.9c-0.1,1-0.3,1.8-0.5,2.6v0.1c0,0.2,0.3,0.4,0.8,0.6
		c0.5,0.2,1.1,0.3,1.8,0.3h0.3v5.3h-2c-1.3,0-2.2-0.3-2.7-0.8c-0.3-0.3-0.5-0.9-0.7-1.7c-0.2,0.7-0.5,1.4-1,1.8
		c-0.5,0.5-1,0.7-1.6,0.7H5.9z M13.5,11.2L11.7,13c-0.2,0.1-0.4,0.2-0.6,0.2c-0.2,0-0.4-0.1-0.6-0.2l-2.2-2.2
		c-0.3-0.2-0.5-0.4-0.5-0.7c0-0.2,0.1-0.3,0.2-0.5l2.5-2.4c0,0,0.1,0,0.2-0.1c0.1,0,0.2-0.1,0.3-0.1c0.3,0,0.6,0.1,0.8,0.4l1.6,1.6
		c0.2,0.2,0.3,0.3,0.4,0.3c0.1,0,0.1-0.1,0.2-0.1s0.1-0.1,0.3-0.3l1.8-1.7c0.2-0.1,0.3-0.2,0.5-0.2c0.3,0,0.5,0.1,0.8,0.4l2.3,2.2
		c0.1,0.1,0.1,0.2,0.2,0.3c0,0.1,0.1,0.2,0.1,0.2c0,0.3-0.2,0.5-0.5,0.6L17.2,13c-0.2,0.1-0.3,0.2-0.5,0.2c-0.1,0-0.2,0-0.3,0
		c-0.1,0-0.2-0.1-0.3-0.2l-1.7-1.7c-0.2-0.2-0.4-0.3-0.5-0.3C13.9,10.9,13.7,11,13.5,11.2z"/>
	<path class="st0" d="M38.7,17.5l3.7-4.4c0.1,0.4,0.2,0.9,0.2,1.5c0,0.6,0.1,1.1,0.1,1.7c0,1-0.1,1.9-0.2,2.9
		c-0.1,0.9-0.3,1.8-0.5,2.6v0.1c0,0.2,0.3,0.4,0.8,0.6c0.5,0.2,1.1,0.3,1.8,0.3h0.9v5.3h-2.7c-1.2,0-2.1-0.3-2.6-0.8
		c-0.3-0.3-0.5-0.9-0.8-1.7c-0.1,0.7-0.5,1.4-0.9,1.8c-0.5,0.5-1,0.7-1.6,0.7h-8.2v-5.3h9.1c0.3,0,0.6-0.3,0.9-1
		c0.3-0.7,0.4-1.4,0.4-2.2c0-0.3,0-0.6-0.1-0.9S38.8,17.8,38.7,17.5z M40.1,7.6c0.2,0.2,0.2,0.3,0.2,0.5c0,0.2-0.2,0.4-0.5,0.6
		l-2.1,2.1c-0.1,0.1-0.3,0.2-0.6,0.2c-0.2,0-0.4-0.1-0.5-0.2l-2.1-2.1c-0.3-0.2-0.4-0.3-0.4-0.6c0-0.1,0-0.1,0-0.2
		c0-0.1,0.1-0.2,0.2-0.3l2.2-2.1c0.1-0.1,0.2-0.2,0.3-0.2c0.1-0.1,0.3-0.1,0.4-0.1c0.1,0,0.2,0,0.2,0s0.1,0.1,0.2,0.1L40.1,7.6z"/>
	<path class="st0" d="M67.6,22.5h1.7v5.3h-3.4c-0.3,0-0.5-0.1-0.8-0.3c-0.4-0.3-0.6-0.7-0.7-1.2c-0.1,0.5-0.3,0.8-0.4,1.1
		c-0.2,0.3-0.5,0.4-0.8,0.4h-6.4c-0.2,0-0.4-0.1-0.6-0.3c-0.2-0.2-0.3-0.4-0.4-0.6c-0.2,0.3-0.4,0.5-0.5,0.6
		c-0.2,0.2-0.5,0.3-0.8,0.3h-5.3c-0.2,0-0.4-0.1-0.7-0.3S48.1,27.1,48,27c-0.2,0.3-0.3,0.5-0.4,0.6c-0.3,0.2-0.7,0.3-1.3,0.3H44
		v-5.3h3.5c0.3-0.1,0.6-0.4,0.8-0.8c0.2-0.4,0.2-0.8,0.2-1.3v-0.2c0-0.2,0-0.4-0.1-0.6l3.5-4.4C52,15.8,52,16.4,52,17
		c0,1.3-0.1,2.4-0.4,3.3c-0.3,1.1-0.7,1.9-1.3,2.3h4.1c0.3,0,0.5-0.2,0.7-0.5s0.2-0.7,0.2-1.2c0-0.2,0-0.4,0-0.6
		c0-0.2-0.1-0.4-0.1-0.5l3.8-4.5c0,2-0.1,3.5-0.2,4.6c-0.2,1.1-0.4,2-0.7,2.7h4.1c0.2,0,0.4-0.1,0.5-0.4s0.2-0.5,0.2-0.9
		s-0.1-0.8-0.2-1.2c-0.1-0.5-0.2-0.8-0.4-1.1l3.2-3.9c0.2,0.7,0.3,1.3,0.4,2s0.1,1.2,0.1,1.7c0,0.3,0,0.6,0,0.8c0,0.2,0,0.4-0.1,0.6
		s-0.1,0.4-0.1,0.6c0,0.2,0,0.4,0,0.6c0,0.4,0.1,0.8,0.4,1C66.4,22.4,66.9,22.5,67.6,22.5z"/>
	<path class="st0" d="M76.1,27.9h-8.8v-5.3h8.9c1.2,0,2.5-0.2,3.8-0.6c0.9-0.3,1.8-0.6,2.7-1c-0.7-0.4-2-0.9-3.7-1.5
		c-1.5-0.5-2.7-0.9-3.4-1c-0.4-0.1-0.9-0.1-1.3-0.1c-0.8,0-1.4,0.2-2,0.6c-0.4,0.3-0.8,0.6-1,0.8c0.2-0.7,0.6-1.4,1-2.2
		c0.7-1.2,1.4-2.1,2.2-2.8c1-0.9,2-1.4,3.1-1.4c1.3,0,2.6,0.2,3.8,0.7c0.8,0.3,1.9,0.8,3.2,1.6c1.6,1,2.7,1.6,3.3,1.8
		c1.4,0.7,2.8,1.3,4.4,1.8c1.4,0.4,2.7,0.8,4,0.9c-0.3,0.4-0.7,0.9-1.2,1.6c-0.4,0.6-0.8,1.2-1.2,1.8c-0.4,0.6-0.7,1-0.9,1.3
		c-0.4-0.2-0.9-0.4-1.5-0.5c-0.7-0.1-1.4-0.2-2.2-0.2c-1.1,0-2.3,0.1-3.5,0.3c-1,0.1-2,0.5-3.3,1.1c-1,0.5-2,1-3,1.5
		C78,27.6,77,27.9,76.1,27.9z"/>
	<path class="st0" d="M101.8,2.7c-0.1-0.4-0.3-0.7-0.5-0.8c-0.2-0.2-0.5-0.3-0.8-0.3c-0.3,0-0.7,0.1-1,0.3s-0.6,0.4-0.8,0.6
		c0.2,0.5,0.5,0.9,0.9,1.2c0.4,0.3,0.9,0.5,1.4,0.6l2.8-1.4c-0.1,0.2-0.2,0.5-0.3,1c-0.1,0.4-0.2,0.8-0.3,1.2
		c-0.7,0.2-1.8,0.7-3.2,1.5c-0.9,0.5-1.7,1-2.4,1.5c0.1-0.4,0.1-0.7,0.2-1c0.2-0.8,0.9-1.5,1.9-2.1c-0.6-0.1-1.1-0.3-1.5-0.6
		c-0.3-0.3-0.5-0.6-0.5-0.9c0-0.8,0.2-1.6,0.7-2.2c0.6-0.8,1.4-1.3,2.6-1.4h0.3c0.4,0,0.8,0.1,1.2,0.4c0.3,0.3,0.5,0.5,0.5,0.8
		c0,0.2-0.1,0.5-0.3,0.8C102.3,2.2,102.1,2.5,101.8,2.7z M102.2,7.1c0,0.1,0,0.2,0,0.3s0,0.2,0,0.3c0,0.7,0.1,2.1,0.2,4.1
		c0.2,2,0.3,4,0.5,6c0.2,2,0.2,3.7,0.2,4.9c-0.3,1.5-0.7,2.7-1.3,3.7c-0.2,0.3-0.7,1-1.6,2.1l-1.7-17.9L102.2,7.1z"/>
</g>
</svg>
