<?xml version="1.0" encoding="utf-8"?>
<!-- Generator: Adobe Illustrator 22.1.0, SVG Export Plug-In . SVG Version: 6.00 Build 0)  -->
<svg version="1.1" id="Layer_1" xmlns="http://www.w3.org/2000/svg" xmlns:xlink="http://www.w3.org/1999/xlink" x="0px" y="0px"
	 viewBox="0 0 157 33.1" style="enable-background:new 0 0 157 33.1;" xml:space="preserve">
<style type="text/css">
	.st0{opacity:0.5;}
	.st1{opacity:0.8;fill:#231F20;}
	.st2{opacity:0.8;}
	.st3{fill:#FFFFFF;}
	.st4{fill:#0A0808;}
	.st5{fill:#30292B;}
	.st6{opacity:0.6;fill:#231F20;}
</style>
<g id="Layer_x0020_1_14_" class="st0">
	<path class="st1" d="M10.5,1.9L57.7,0c0.3,0,0.7,0,1,0c0.7,0.1,1.4,0.5,2,1c0.5,0.5,0.9,1.1,1,1.8c0,0.3,0,0.5,0,0.8l-4.9,22.2
		c-0.2,0.9-0.7,1.8-1.4,2.4c-0.7,0.6-1.5,0.9-2.5,0.9l-37.9-1.3c-1,0-1.9-0.4-2.5-0.9l0,0c-0.7-0.6-1.2-1.5-1.4-2.4l-4.4-19
		c0-0.1,0-0.2,0-0.2C6.5,4.4,6.9,3.6,7.6,3C8.3,2.5,9.1,2.1,10,1.9C10.2,1.9,10.3,1.9,10.5,1.9z M55.6,3L10.5,4.7
		c-0.1,0-0.2,0-0.3,0C9.5,4.8,8.9,5.1,8.5,5.4C8.1,5.7,7.9,6.1,8,6.6c0,0,0,0.1,0,0.1l4.1,17.8c0.2,0.7,0.5,1.3,0.9,1.7
		c0.4,0.3,0.9,0.5,1.5,0.5L51,28c0.6,0,1.1-0.2,1.5-0.5c0.5-0.4,0.8-1,0.9-1.7L58,5c0-0.1,0-0.3,0-0.4c-0.1-0.4-0.3-0.7-0.6-1
		c-0.3-0.3-0.7-0.5-1.2-0.6C56,3,55.8,3,55.6,3z"/>
	<path class="st1" d="M18,6.9l13.8-1.5c0.2,0,0.3,0,0.5,0c0.3,0.1,0.7,0.2,0.9,0.4c0.3,0.2,0.4,0.5,0.5,0.8c0,0.1,0,0.2,0,0.4
		l-2.3,10.3c-0.1,0.4-0.3,0.8-0.6,1.1c-0.3,0.3-0.7,0.4-1.2,0.4h-9.5c-0.5,0-0.9-0.2-1.2-0.4l0,0c-0.3-0.3-0.5-0.7-0.6-1.1l-2-8.8
		c0,0,0-0.1,0-0.1c-0.1-0.4,0.1-0.8,0.5-1C17,7.2,17.4,7,17.8,6.9C17.9,6.9,18,6.9,18,6.9z M30.9,6.8L18,8.2c-0.1,0-0.1,0-0.1,0
		c-0.3,0.1-0.6,0.2-0.8,0.3c-0.2,0.1-0.3,0.3-0.2,0.5c0,0,0,0,0,0l1.9,8.2c0.1,0.3,0.2,0.6,0.4,0.8c0.2,0.2,0.4,0.2,0.7,0.2h8.9
		c0.3,0,0.5-0.1,0.7-0.3c0.2-0.2,0.4-0.5,0.4-0.8L32,7.8c0-0.1,0-0.1,0-0.2c0-0.2-0.1-0.3-0.3-0.5c-0.1-0.1-0.3-0.2-0.5-0.3
		C31.1,6.8,31,6.8,30.9,6.8z"/>
	<g id="_1849662416_14_" class="st2">
		<path class="st3" d="M37.9,20l0.4-0.8l-0.8-0.5L38,18l-1.6-0.9l-0.9,1.6l0,0c0.3,0.1,0.5,0.3,0.8,0.4l-0.4,0.8l0.8,0.5l-0.9,1.6
			l0.8,0.5c-0.3,0.5-0.6,1.2-1,1.6l0,0c0.2,0.1,0.4,0.2,0.6,0.3c0.3,0.2,0.3,0.1,0,0.5c-0.2,0.4-0.5,0.8-0.7,1.2l0.8,0.5
			c0,0.2-0.7,1.3-0.9,1.6l6.4,3.7l0.9-1.6l0.8,0.5l1.4-2.4l0.8,0.4l3.2-5.5c-0.1-0.1-0.8-0.4-0.8-0.5c0-0.2,0.4-0.6,0.4-0.8
			c-0.1-0.1-0.6-0.4-0.8-0.5l-1.4,2.4l-0.8-0.5l1.8-3.2l-1.6-0.9l-1.4,2.4l-0.8-0.5l1.8-3.2c-0.1-0.1-1.4-0.9-1.6-0.9L42,20.3
			l-0.8-0.5c0-0.1,0.1-0.2,0.1-0.2c1.3-2.3,2.7-4.7,4-6.9l-1.6-0.9l-5.1,8.8C38.4,20.4,37.9,20.1,37.9,20L37.9,20z"/>
		<path class="st4" d="M35.6,24c-0.1,0.1-0.1,0.2-0.2,0.4l-0.7,1.2c0.1,0.1,0.3,0.1,0.4,0.2c0.1,0.1,0.2,0.2,0.4,0.3
			c-0.5,0.8-0.9,1.6-1.3,2.4c0.7,0.4,1.3,0.8,2,1.2l4,2.3c0.7,0.4,1.3,0.7,2,1.1c0.1-0.2,0.1-0.4,0.3-0.6c0.1-0.2,0.4-0.7,0.5-0.9
			c0.1-0.1,0.1-0.1,0.2-0.3c0.1-0.2,0.2-0.4,0.3-0.6c0.1,0.2,0.6,0.3,0.8,0.5c0.5-0.8,0.9-1.5,1.4-2.3c0.2,0.1,0.5,0.3,0.7,0.4
			c0.1,0.1,0.1,0.1,0.2-0.1c0.2-0.3,0.4-0.6,0.5-0.9c0.4-0.6,0.7-1.2,1.1-1.8l1.6-2.7c-0.2-0.1-0.6-0.3-0.8-0.5l-3.2,5.5l-0.8-0.4
			l-1.4,2.4l-0.8-0.5l-0.9,1.6l-6.4-3.7c0.1-0.3,0.9-1.4,0.9-1.6l-0.8-0.5c0.2-0.4,0.5-0.8,0.7-1.2c0.2-0.4,0.2-0.3,0-0.5
			C36,24.2,35.8,24.1,35.6,24z"/>
		<path class="st4" d="M38,18l-0.5,0.8l0.8,0.5L37.9,20l0.8,0.5l5-8.7L43,11.3c0,0,0,0,0,0l0,0c0,0,0,0,0,0l-4.1,7.1
			C38.5,18.2,38.3,18.1,38,18z"/>
		<path class="st4" d="M45.4,12.7l-4.1,7.1l0.8,0.5l1.8-3.2c0.2,0.1,1.5,0.8,1.6,0.9c0.2,0.2,1.7,1,2,1.2c0,0,0.1,0-0.1-0.1
			l-1.6-0.9c-0.4-0.2-0.4-0.1,0.2-0.9l-1.2-0.7c-0.2-0.1-0.2-0.2-0.4-0.3l1.8-3.2c-0.2-0.1-0.3-0.2-0.6-0.4
			C45.4,12.7,45.5,12.7,45.4,12.7z"/>
		<path class="st4" d="M47.4,20.2l0.5-0.8c-0.1-0.1-0.3-0.2-0.4-0.2c-0.3-0.2-1.8-1-2-1.2l-1.8,3.2l0.8,0.5l1.4-2.4L47.4,20.2z"/>
		<path class="st4" d="M35.5,18.7c-0.1,0.1-0.1,0.1-0.3,0.4c-0.1,0.1-0.2,0.3-0.2,0.4l0.8,0.4c-0.1,0.2-0.7,1.4-0.9,1.6l0.8,0.5
			L35,23.2c-0.1,0.2-0.1,0.3-0.2,0.4l0.8,0.4c0.3-0.4,0.7-1.1,1-1.6l-0.8-0.5l0.9-1.6l-0.8-0.5l0.4-0.8C36,18.9,35.8,18.8,35.5,18.7
			z"/>
		<path class="st4" d="M35.5,18.6l0.9-1.6L38,18l0.3-0.4c0.1-0.1,0.1-0.3,0.2-0.4l-2.1-1.2c-0.3-0.2-0.3-0.2-0.5,0.2l-1,1.8
			c-0.1,0.2-0.2,0.2,0,0.3C34.9,18.4,35.4,18.6,35.5,18.6z"/>
		<path class="st4" d="M48.5,21.9c0.1,0,0,0,0.1-0.1c0,0,0.1-0.1,0.1-0.1c0-0.2,0.2-0.4,0.3-0.6l-1.6-0.9l-1.8,3.2l0.8,0.5l1.4-2.4
			C47.9,21.5,48.3,21.8,48.5,21.9z"/>
		<path class="st4" d="M45.4,12.6c0.1-0.2,0.3-0.5,0.4-0.8l-1.6-0.9l-0.5,0.8L45.4,12.6z"/>
		<path class="st4" d="M48.5,21.9c0,0.2-0.4,0.6-0.4,0.8c0,0.1,0.7,0.4,0.8,0.5c0.2,0.2,0.6,0.4,0.8,0.5l-1.6,2.7l1.6-2.7l-0.8-0.4
			c0.1-0.1,0.1-0.2,0.2-0.4c0.1-0.1,0.2-0.3,0.2-0.4c-0.9-0.5-0.8-0.4-0.7-0.7c0,0-0.1,0.1-0.1,0.1C48.5,21.9,48.6,21.9,48.5,21.9z"
			/>
		<path class="st5" d="M43,11.3l0.8,0.4l-5,8.7L37.9,20l0,0c0,0,0.5,0.4,0.8,0.4l5.1-8.8l1.6,0.9c-1.3,2.3-2.7,4.7-4,6.9
			c0,0.1-0.1,0.2-0.1,0.2l4.1-7.1l0-0.1l-1.6-0.9l0.5-0.8c-0.1,0.1-0.4,0.6-0.5,0.8L43,11.3C43,11.3,43,11.3,43,11.3z"/>
	</g>
	<path class="st1" d="M75,20h-2.7l2.2-7.7L70,20h-2.8l-0.5-7.8L64.8,20H62l3.2-11.8h3.8l0.5,8.3l4.9-8.3h3.8L75,20z M85.2,20h-6.1
		c-0.8,0-1.5-0.2-1.8-0.7c-0.4-0.4-0.5-1.1-0.2-1.9c0.3-1,0.7-1.7,1.4-2.2c0.7-0.4,1.6-0.7,2.8-0.7H84c0.1-0.4,0.1-0.7-0.1-0.9
		c-0.2-0.2-0.7-0.3-1.4-0.3h-3.8l0.6-2.1h4.7c1.2,0,2,0.3,2.5,0.8c0.5,0.5,0.6,1.4,0.3,2.5L85.2,20z M83.1,17.9l0.4-1.3h-2.4
		c-0.5,0-0.8,0-1,0.1c-0.2,0.1-0.3,0.3-0.4,0.6c-0.1,0.2-0.1,0.4,0,0.5c0,0,0.1,0.1,0.3,0.1c0.1,0,0.3,0,0.5,0H83.1z M94.7,20h-2.6
		l1.4-5.2c0.2-0.6,0.2-0.9,0-1.1c-0.1-0.1-0.5-0.2-0.9-0.2H91L89.3,20h-2.6l2.3-8.7h4.3c1.3,0,2.2,0.3,2.6,0.8
		c0.4,0.5,0.5,1.3,0.2,2.5L94.7,20z M104.1,20h-2.6l1.4-5.3c0.1-0.5,0.1-0.9,0-1c-0.1-0.1-0.2-0.2-0.3-0.2c-0.1,0-0.3-0.1-0.6-0.1
		l-1.5,0L98.7,20h-2.6l3.2-11.8h2.6l-0.8,3h1.7c1.3,0,2.2,0.3,2.6,0.8c0.4,0.5,0.5,1.3,0.2,2.5L104.1,20z M114,20h-6.1
		c-0.8,0-1.4-0.2-1.8-0.7c-0.4-0.4-0.5-1.1-0.2-1.9c0.3-1,0.7-1.7,1.4-2.2c0.7-0.4,1.6-0.7,2.8-0.7h2.7c0.1-0.4,0.1-0.7-0.1-0.9
		c-0.2-0.2-0.7-0.3-1.4-0.3h-3.8l0.6-2.1h4.7c1.2,0,2,0.3,2.5,0.8c0.5,0.5,0.6,1.4,0.3,2.5L114,20z M111.9,17.9l0.4-1.3h-2.4
		c-0.5,0-0.8,0-1,0.1c-0.2,0.1-0.3,0.3-0.4,0.6c-0.1,0.2-0.1,0.4,0,0.5c0,0,0.1,0.1,0.3,0.1c0.1,0,0.3,0,0.5,0H111.9z M118.1,20
		h-2.7l3.2-11.8h2.7L118.1,20z M124.2,20h-2.3l0.6-2.4h2.3L124.2,20z M132.6,20h-3.2c-0.4,0-0.7,0-1-0.1c-0.3,0-0.6-0.1-0.8-0.2
		c-0.4-0.2-0.8-0.4-1.1-0.8c-0.1-0.2-0.2-0.4-0.3-0.7c-0.1-0.2-0.2-0.5-0.2-0.8c0-0.3,0-0.6,0-0.9c0-0.3,0.1-0.6,0.2-1
		c0.2-0.7,0.4-1.3,0.8-1.8c0.4-0.6,0.8-1.1,1.3-1.5c0.5-0.4,1-0.6,1.5-0.8c0.6-0.2,1.2-0.3,2-0.3h3.2l-0.6,2.2h-2.5
		c-0.5,0-1,0-1.3,0.1c-0.3,0.1-0.6,0.2-0.8,0.4c-0.4,0.3-0.8,0.9-1,1.7c-0.1,0.5-0.1,0.8-0.1,1.2c0.1,0.3,0.1,0.7,0.4,0.8l0.5,0.2
		c0.1,0,0.3,0,0.4,0c0.2,0,0.4,0,0.7,0h2.5L132.6,20z M143.4,15.6c-0.4,1.4-1.1,2.5-2.1,3.3c-1,0.8-2.3,1.2-3.7,1.2
		c-1.4,0-2.4-0.4-3-1.2c-0.6-0.8-0.7-1.9-0.4-3.3c0.4-1.4,1.1-2.4,2.1-3.3c1-0.8,2.3-1.2,3.7-1.2c1.4,0,2.4,0.4,3,1.2
		C143.6,13.1,143.8,14.2,143.4,15.6z M140.7,15.6c0.2-0.7,0.2-1.3-0.1-1.7c-0.2-0.4-0.6-0.6-1.2-0.6c-0.6,0-1.1,0.2-1.5,0.6
		c-0.4,0.4-0.8,1-1,1.7c-0.1,0.4-0.1,0.7-0.1,1c0,0.3,0.1,0.5,0.2,0.7c0.2,0.4,0.6,0.6,1.2,0.6c0.6,0,1.1-0.2,1.5-0.6
		C140.2,16.9,140.5,16.3,140.7,15.6z M155.4,20h-2.6l1.4-5.2c0.1-0.5,0.2-0.9,0.1-1.1c-0.1-0.2-0.5-0.2-0.9-0.2l-1,0l-1.7,6.5h-2.6
		l1.7-6.5h-2.2l-1.7,6.5h-2.6l2.3-8.7h8.6c1.2,0,2.1,0.3,2.6,0.8c0.5,0.5,0.5,1.3,0.2,2.5L155.4,20z"/>
	<path class="st1" d="M3,11.3l22.8-2.4c0.3,0,0.5,0,0.8,0C27.1,9,27.6,9.3,28,9.6c0.4,0.4,0.7,0.8,0.8,1.4c0,0.2,0,0.4,0,0.6
		L24.8,22c-0.2,0.7-0.5,1.4-1,1.8c-0.5,0.4-1.1,0.7-1.9,0.7H6.2c-0.8,0-1.4-0.3-1.9-0.7h0c-0.5-0.5-0.9-1.1-1-1.8L0,14
		c0-0.1,0-0.1,0-0.2c-0.1-0.7,0.2-1.3,0.8-1.7c0.5-0.4,1.2-0.7,1.8-0.8C2.7,11.3,2.9,11.3,3,11.3z M24.2,11.2L2.9,13.4
		c-0.1,0-0.2,0-0.2,0c-0.5,0.1-0.9,0.3-1.3,0.5C1.2,14.2,1,14.5,1,14.9c0,0,0,0.1,0,0.1l2.9,7c0.1,0.5,0.4,1,0.7,1.3
		c0.3,0.3,0.7,0.4,1.1,0.4h14.6c0.5,0,0.8-0.2,1.1-0.4c0.4-0.3,0.6-0.8,0.7-1.3l3.7-9.2c0-0.1,0-0.2,0-0.3c0-0.3-0.2-0.5-0.4-0.8
		c-0.2-0.2-0.6-0.4-0.9-0.4C24.5,11.2,24.3,11.2,24.2,11.2z"/>
	<path class="st6" d="M67.1,4.5l-0.5,1.8H66l1.3-4.8h1.4c0.3,0,0.6,0,0.8,0.1c0.2,0.1,0.4,0.2,0.5,0.3c0.1,0.1,0.2,0.3,0.2,0.5
		c0,0.2,0,0.4-0.1,0.6c-0.1,0.2-0.2,0.4-0.3,0.6c-0.1,0.2-0.3,0.3-0.5,0.5c-0.2,0.1-0.4,0.2-0.7,0.3c-0.2,0.1-0.5,0.1-0.8,0.1H67.1z
		 M67.3,4H68c0.2,0,0.4,0,0.5-0.1c0.2,0,0.3-0.1,0.4-0.2c0.1-0.1,0.2-0.2,0.3-0.3c0.1-0.1,0.1-0.3,0.2-0.4c0.1-0.3,0.1-0.5-0.1-0.7
		C69.2,2.1,69,2,68.6,2h-0.8L67.3,4z"/>
	<path id="_x31__14_" class="st6" d="M72.2,2.9c0.3,0,0.5,0,0.6,0.1c0.2,0.1,0.3,0.2,0.4,0.4c0.1,0.2,0.2,0.3,0.2,0.6
		c0,0.2,0,0.5-0.1,0.7c-0.1,0.3-0.2,0.5-0.3,0.7c-0.1,0.2-0.3,0.4-0.5,0.6c-0.2,0.2-0.4,0.3-0.6,0.4c-0.2,0.1-0.5,0.1-0.7,0.1
		s-0.5,0-0.6-0.1c-0.2-0.1-0.3-0.2-0.4-0.4C70.1,5.8,70,5.6,70,5.4c0-0.2,0-0.5,0.1-0.7c0.1-0.3,0.2-0.5,0.3-0.7
		c0.1-0.2,0.3-0.4,0.5-0.6C71,3.2,71.2,3.1,71.5,3C71.7,2.9,71.9,2.9,72.2,2.9z M71.3,5.9c0.3,0,0.6-0.1,0.8-0.3
		c0.2-0.2,0.4-0.5,0.5-0.9c0.1-0.4,0.1-0.7,0-1c-0.1-0.2-0.3-0.3-0.7-0.3c-0.2,0-0.3,0-0.5,0.1c-0.1,0.1-0.3,0.1-0.4,0.3
		c-0.1,0.1-0.2,0.2-0.3,0.4c-0.1,0.2-0.2,0.3-0.2,0.5c-0.1,0.2-0.1,0.4-0.1,0.5c0,0.2,0,0.3,0.1,0.4c0.1,0.1,0.1,0.2,0.2,0.3
		C71,5.9,71.2,5.9,71.3,5.9z"/>
	<path id="_x32__14_" class="st6" d="M74.1,2.9h0.5c0.1,0,0.1,0,0.1,0c0,0,0,0.1,0,0.1l0.1,2.2c0,0.1,0,0.2,0,0.2c0,0.1,0,0.1,0,0.2
		c0-0.1,0.1-0.2,0.1-0.2c0-0.1,0.1-0.2,0.1-0.2L76.3,3c0,0,0-0.1,0.1-0.1c0,0,0.1,0,0.1,0h0.3c0,0,0.1,0,0.1,0c0,0,0,0.1,0,0.1
		L77,5.2c0,0.1,0,0.2,0,0.2c0,0.1,0,0.2,0,0.2c0-0.1,0.1-0.2,0.1-0.2c0-0.1,0.1-0.2,0.1-0.2L78.5,3c0,0,0.1-0.1,0.1-0.1
		c0,0,0.1,0,0.1,0h0.5l-2,3.4h-0.5c-0.1,0-0.1,0-0.1-0.1l-0.1-2.3c0-0.1,0-0.1,0-0.2c0-0.1,0-0.1,0-0.2c0,0.1-0.1,0.1-0.1,0.2
		c0,0.1-0.1,0.1-0.1,0.2l-1.4,2.3c0,0.1-0.1,0.1-0.2,0.1h-0.5L74.1,2.9z"/>
	<path id="_x33__14_" class="st6" d="M81.1,2.9c0.2,0,0.4,0,0.5,0.1C81.7,3,81.9,3.1,82,3.3c0.1,0.1,0.1,0.3,0.2,0.5
		c0,0.2,0,0.4-0.1,0.6C82,4.5,82,4.5,82,4.6c0,0-0.1,0-0.1,0h-2.3c-0.1,0.2-0.1,0.4-0.1,0.6c0,0.2,0,0.3,0.1,0.4
		c0.1,0.1,0.2,0.2,0.3,0.2c0.1,0.1,0.3,0.1,0.4,0.1c0.2,0,0.3,0,0.4-0.1c0.1,0,0.2-0.1,0.3-0.1c0.1,0,0.2-0.1,0.2-0.1
		c0.1,0,0.1-0.1,0.2-0.1c0,0,0.1,0,0.1,0.1l0.1,0.2c-0.1,0.1-0.2,0.2-0.3,0.2c-0.1,0.1-0.2,0.1-0.4,0.2c-0.1,0-0.3,0.1-0.4,0.1
		c-0.1,0-0.3,0-0.4,0c-0.2,0-0.4,0-0.6-0.1c-0.2-0.1-0.3-0.2-0.4-0.3c-0.1-0.2-0.2-0.3-0.2-0.6c0-0.2,0-0.5,0.1-0.8
		c0.1-0.2,0.2-0.5,0.3-0.7c0.1-0.2,0.3-0.4,0.5-0.5c0.2-0.2,0.4-0.3,0.6-0.4C80.6,2.9,80.8,2.9,81.1,2.9z M81,3.3
		c-0.3,0-0.5,0.1-0.8,0.3C80,3.7,79.8,4,79.7,4.3h1.9c0-0.1,0.1-0.3,0-0.4c0-0.1,0-0.2-0.1-0.3c-0.1-0.1-0.1-0.1-0.2-0.2
		C81.2,3.3,81.1,3.3,81,3.3z"/>
	<path id="_x34__14_" class="st6" d="M82.3,6.3l0.9-3.4h0.3c0.1,0,0.1,0,0.1,0c0,0,0,0.1,0,0.1l-0.1,0.6c0.2-0.3,0.4-0.5,0.6-0.6
		c0.2-0.1,0.4-0.2,0.7-0.2c0.1,0,0.2,0,0.2,0c0.1,0,0.1,0.1,0.2,0.1l-0.2,0.4c0,0.1-0.1,0.1-0.1,0.1c0,0-0.1,0-0.1,0
		c-0.1,0-0.1,0-0.3,0c-0.2,0-0.4,0.1-0.6,0.2c-0.2,0.1-0.3,0.3-0.5,0.6l-0.6,2.1H82.3z"/>
	<path id="_x35__14_" class="st6" d="M87.3,2.9c0.2,0,0.4,0,0.5,0.1C88,3,88.1,3.1,88.2,3.3c0.1,0.1,0.1,0.3,0.2,0.5
		c0,0.2,0,0.4-0.1,0.6c0,0.1-0.1,0.2-0.1,0.2c0,0-0.1,0-0.1,0h-2.3c-0.1,0.2-0.1,0.4-0.1,0.6c0,0.2,0.1,0.3,0.1,0.4
		C86,5.7,86,5.8,86.2,5.8c0.1,0.1,0.3,0.1,0.4,0.1c0.2,0,0.3,0,0.4-0.1c0.1,0,0.2-0.1,0.3-0.1c0.1,0,0.2-0.1,0.2-0.1
		c0.1,0,0.1-0.1,0.2-0.1c0,0,0.1,0,0.1,0.1l0.1,0.2c-0.1,0.1-0.2,0.2-0.3,0.2s-0.2,0.1-0.4,0.2c-0.1,0-0.3,0.1-0.4,0.1
		c-0.1,0-0.3,0-0.4,0c-0.2,0-0.4,0-0.6-0.1c-0.2-0.1-0.3-0.2-0.4-0.3c-0.1-0.2-0.2-0.3-0.2-0.6c0-0.2,0-0.5,0.1-0.8
		c0.1-0.2,0.2-0.5,0.3-0.7c0.1-0.2,0.3-0.4,0.5-0.5c0.2-0.2,0.4-0.3,0.6-0.4C86.8,2.9,87.1,2.9,87.3,2.9z M87.2,3.3
		c-0.3,0-0.5,0.1-0.8,0.3C86.2,3.7,86.1,4,86,4.3h1.9c0-0.1,0.1-0.3,0-0.4c0-0.1,0-0.2-0.1-0.3c-0.1-0.1-0.1-0.1-0.2-0.2
		C87.5,3.3,87.3,3.3,87.2,3.3z"/>
	<path id="_x36__14_" class="st6" d="M91,6.3c-0.1,0-0.1,0-0.1-0.1l0.1-0.4c-0.2,0.2-0.4,0.3-0.6,0.4c-0.2,0.1-0.4,0.2-0.7,0.2
		c-0.2,0-0.4,0-0.5-0.1c-0.1-0.1-0.2-0.2-0.3-0.3c-0.1-0.1-0.1-0.3-0.1-0.5c0-0.2,0-0.5,0.1-0.8c0.1-0.3,0.2-0.5,0.3-0.7
		c0.1-0.2,0.3-0.4,0.4-0.6c0.2-0.2,0.4-0.3,0.6-0.4c0.2-0.1,0.4-0.1,0.7-0.1c0.2,0,0.4,0,0.5,0.1c0.1,0.1,0.2,0.2,0.3,0.3l0.5-1.9
		h0.6l-1.3,5H91z M89.9,5.9c0.2,0,0.4,0,0.6-0.1c0.2-0.1,0.3-0.2,0.5-0.4l0.4-1.7c-0.1-0.1-0.2-0.3-0.3-0.3
		c-0.1-0.1-0.3-0.1-0.4-0.1c-0.3,0-0.6,0.1-0.8,0.3c-0.2,0.2-0.4,0.6-0.5,1c-0.1,0.2-0.1,0.4-0.1,0.6c0,0.2,0,0.3,0.1,0.4
		c0,0.1,0.1,0.2,0.2,0.2C89.7,5.9,89.8,5.9,89.9,5.9z"/>
	<path id="_x37__14_" class="st6" d="M93.7,6.3l1.3-5h0.6L95,3.4c0.2-0.2,0.4-0.3,0.6-0.4c0.2-0.1,0.4-0.2,0.7-0.2
		c0.2,0,0.4,0,0.5,0.1C97,3,97.1,3.2,97.1,3.3c0.1,0.1,0.1,0.3,0.1,0.5c0,0.2,0,0.5-0.1,0.7c-0.1,0.3-0.2,0.5-0.3,0.7
		c-0.1,0.2-0.3,0.4-0.4,0.6C96.2,6,96,6.2,95.8,6.2c-0.2,0.1-0.4,0.1-0.7,0.1c-0.2,0-0.4,0-0.5-0.1c-0.1-0.1-0.2-0.2-0.3-0.4
		l-0.1,0.3c0,0.1-0.1,0.1-0.2,0.1H93.7z M96,3.3c-0.2,0-0.4,0-0.6,0.1c-0.2,0.1-0.3,0.2-0.5,0.4l-0.4,1.6c0.1,0.1,0.2,0.3,0.3,0.3
		c0.1,0.1,0.3,0.1,0.4,0.1c0.3,0,0.6-0.1,0.8-0.3c0.2-0.2,0.4-0.6,0.5-1c0.1-0.2,0.1-0.4,0.1-0.6c0-0.2,0-0.3-0.1-0.4
		c0-0.1-0.1-0.2-0.2-0.2C96.2,3.4,96.1,3.3,96,3.3z"/>
	<path id="_x38__14_" class="st6" d="M98.1,7.3c0,0-0.1,0.1-0.1,0.1c0,0-0.1,0-0.2,0h-0.4l1-1.3l-0.5-3.2h0.5c0.1,0,0.1,0,0.1,0
		c0,0,0,0.1,0,0.1l0.3,2.2c0,0.1,0,0.1,0,0.2c0,0.1,0,0.1,0,0.2c0-0.1,0.1-0.1,0.1-0.2c0,0,0.1-0.1,0.1-0.2l1.5-2.2
		c0,0,0.1-0.1,0.1-0.1c0,0,0.1,0,0.1,0h0.5L98.1,7.3z"/>
	<path id="_x39__14_" class="st6" d="M100.8,6c0-0.1,0-0.1,0.1-0.2c0-0.1,0.1-0.1,0.1-0.1c0,0,0.1-0.1,0.2-0.1c0.1,0,0.1,0,0.2,0
		s0.1,0,0.2,0c0,0,0.1,0.1,0.1,0.1c0,0,0,0.1,0.1,0.1c0,0,0,0.1,0,0.2c0,0.1,0,0.1-0.1,0.2c0,0-0.1,0.1-0.1,0.1c0,0-0.1,0.1-0.2,0.1
		c-0.1,0-0.1,0-0.2,0c-0.1,0-0.1,0-0.2,0c0,0-0.1-0.1-0.1-0.1c0,0,0-0.1-0.1-0.1C100.8,6.1,100.8,6,100.8,6z M101.5,3.4
		c0-0.1,0-0.1,0.1-0.2c0,0,0.1-0.1,0.1-0.1c0,0,0.1-0.1,0.2-0.1c0.1,0,0.1,0,0.2,0c0.1,0,0.1,0,0.2,0c0,0,0.1,0.1,0.1,0.1
		c0,0,0,0.1,0.1,0.1c0,0.1,0,0.1,0,0.2c0,0.1,0,0.1-0.1,0.2c0,0.1-0.1,0.1-0.1,0.1c0,0-0.1,0.1-0.2,0.1c-0.1,0-0.1,0-0.2,0
		c-0.1,0-0.1,0-0.2,0c0,0-0.1-0.1-0.1-0.1c0,0,0-0.1-0.1-0.1C101.5,3.6,101.5,3.5,101.5,3.4z"/>
	<path class="st6" d="M108.4,22.5l-0.2,0.6h-2.5l-0.5,1.7h2l-0.1,0.5h-2l-0.5,1.8h2.5l-0.2,0.6h-3.2l1.4-5.1H108.4z M108.4,25.3h1.8
		l-0.1,0.5h-1.8L108.4,25.3z M111.4,27.1h2.2l-0.2,0.6h-2.9l1.4-5.1h0.7L111.4,27.1z M116.4,24c0.2,0,0.4,0,0.6,0.1
		c0.2,0.1,0.3,0.2,0.4,0.3c0.1,0.1,0.2,0.3,0.2,0.5c0,0.2,0,0.4-0.1,0.7c0,0.1-0.1,0.2-0.1,0.2c0,0-0.1,0-0.1,0h-2.4
		c-0.1,0.2-0.1,0.4-0.1,0.6c0,0.2,0.1,0.3,0.1,0.4c0.1,0.1,0.2,0.2,0.3,0.3c0.1,0.1,0.3,0.1,0.4,0.1c0.2,0,0.3,0,0.4-0.1
		s0.2-0.1,0.3-0.1c0.1,0,0.2-0.1,0.2-0.1c0.1,0,0.1-0.1,0.2-0.1c0.1,0,0.1,0,0.1,0.1l0.1,0.2c-0.1,0.1-0.2,0.2-0.3,0.2
		c-0.1,0.1-0.3,0.1-0.4,0.2c-0.1,0-0.3,0.1-0.4,0.1c-0.1,0-0.3,0-0.4,0c-0.3,0-0.5,0-0.7-0.1c-0.2-0.1-0.3-0.2-0.4-0.4
		c-0.1-0.2-0.2-0.4-0.2-0.6c0-0.2,0-0.5,0.1-0.8c0.1-0.3,0.2-0.5,0.3-0.7c0.1-0.2,0.3-0.4,0.5-0.6c0.2-0.2,0.4-0.3,0.6-0.4
		C115.9,24,116.1,24,116.4,24z M116.3,24.5c-0.3,0-0.6,0.1-0.8,0.3c-0.2,0.2-0.4,0.4-0.5,0.7h2c0-0.1,0.1-0.3,0-0.4
		c0-0.1,0-0.2-0.1-0.3c-0.1-0.1-0.1-0.2-0.2-0.2C116.6,24.5,116.4,24.5,116.3,24.5z M120.4,27.7h-0.3c-0.1,0-0.1,0-0.1,0
		c0,0,0-0.1,0-0.1l0-0.3c-0.1,0.1-0.2,0.2-0.3,0.2c-0.1,0.1-0.2,0.1-0.3,0.2c-0.1,0-0.2,0.1-0.3,0.1c-0.1,0-0.2,0-0.4,0
		c-0.1,0-0.3,0-0.4-0.1c-0.1,0-0.2-0.1-0.3-0.2c-0.1-0.1-0.1-0.2-0.1-0.3c0-0.1,0-0.3,0-0.4c0-0.1,0.1-0.3,0.2-0.4
		c0.1-0.1,0.3-0.3,0.5-0.4c0.2-0.1,0.5-0.2,0.8-0.3c0.3-0.1,0.7-0.1,1.1-0.1l0.1-0.3c0.1-0.3,0.1-0.5,0-0.6
		c-0.1-0.1-0.2-0.2-0.5-0.2c-0.2,0-0.3,0-0.4,0.1c-0.1,0-0.2,0.1-0.3,0.1c-0.1,0.1-0.2,0.1-0.2,0.1c-0.1,0-0.1,0.1-0.2,0.1
		c0,0-0.1,0-0.1,0c0,0,0-0.1-0.1-0.1l-0.1-0.2c0.3-0.2,0.5-0.3,0.8-0.4c0.3-0.1,0.5-0.1,0.8-0.1c0.2,0,0.4,0,0.5,0.1
		c0.1,0.1,0.2,0.2,0.3,0.3c0.1,0.1,0.1,0.3,0.1,0.4c0,0.2,0,0.4-0.1,0.6L120.4,27.7z M118.8,27.3c0.1,0,0.2,0,0.3,0
		c0.1,0,0.2-0.1,0.3-0.1c0.1,0,0.2-0.1,0.3-0.1c0.1-0.1,0.2-0.1,0.3-0.2l0.2-0.8c-0.3,0-0.5,0-0.8,0.1c-0.2,0-0.4,0.1-0.5,0.1
		c-0.1,0.1-0.3,0.1-0.3,0.2c-0.1,0.1-0.1,0.2-0.2,0.3c0,0.1,0,0.2,0,0.2c0,0.1,0,0.1,0.1,0.2c0,0,0.1,0.1,0.2,0.1
		C118.7,27.3,118.7,27.3,118.8,27.3z M121.3,27.7l1-3.6h0.4c0.1,0,0.1,0,0.1,0c0,0,0,0.1,0,0.1l-0.1,0.6c0.2-0.3,0.4-0.5,0.6-0.6
		c0.2-0.2,0.5-0.2,0.7-0.2c0.1,0,0.2,0,0.3,0c0.1,0,0.1,0.1,0.2,0.1l-0.2,0.5c0,0.1-0.1,0.1-0.1,0.1c0,0-0.1,0-0.1,0
		c-0.1,0-0.2,0-0.3,0c-0.2,0-0.4,0.1-0.6,0.2c-0.2,0.1-0.4,0.3-0.5,0.6l-0.6,2.3H121.3z M124.2,27.7l1-3.6h0.4c0.1,0,0.1,0,0.1,0.1
		l-0.1,0.4c0.2-0.2,0.4-0.3,0.6-0.4c0.2-0.1,0.5-0.2,0.7-0.2c0.2,0,0.4,0,0.5,0.1c0.1,0.1,0.2,0.2,0.3,0.3c0.1,0.1,0.1,0.3,0.1,0.4
		c0,0.2,0,0.4-0.1,0.6l-0.6,2.3h-0.6l0.6-2.3c0.1-0.3,0.1-0.5,0-0.6c-0.1-0.2-0.3-0.2-0.5-0.2c-0.2,0-0.4,0-0.6,0.1
		c-0.2,0.1-0.4,0.2-0.6,0.4l-0.7,2.7H124.2z M129.9,24l-1,3.6h-0.6l1-3.6H129.9z M130.3,22.9c0,0.1,0,0.1-0.1,0.2
		c0,0.1-0.1,0.1-0.1,0.1c-0.1,0-0.1,0.1-0.2,0.1c-0.1,0-0.1,0-0.2,0s-0.1,0-0.2,0c0,0-0.1-0.1-0.1-0.1c0,0-0.1-0.1-0.1-0.1
		c0-0.1,0-0.1,0-0.2c0-0.1,0-0.1,0.1-0.2c0-0.1,0.1-0.1,0.1-0.1c0.1,0,0.1-0.1,0.2-0.1c0.1,0,0.1,0,0.2,0c0.1,0,0.1,0,0.2,0
		c0,0,0.1,0.1,0.1,0.1c0,0,0.1,0.1,0.1,0.1C130.3,22.8,130.3,22.9,130.3,22.9z M130,27.7l1-3.6h0.4c0.1,0,0.1,0,0.1,0.1l-0.1,0.4
		c0.2-0.2,0.4-0.3,0.6-0.4c0.2-0.1,0.5-0.2,0.7-0.2c0.2,0,0.4,0,0.5,0.1c0.1,0.1,0.2,0.2,0.3,0.3c0.1,0.1,0.1,0.3,0.1,0.4
		c0,0.2,0,0.4-0.1,0.6l-0.6,2.3h-0.6l0.6-2.3c0.1-0.3,0.1-0.5,0-0.6c-0.1-0.2-0.3-0.2-0.5-0.2c-0.2,0-0.4,0-0.6,0.1
		c-0.2,0.1-0.4,0.2-0.6,0.4l-0.7,2.7H130z M136.2,24c0.2,0,0.3,0,0.4,0.1c0.1,0,0.2,0.1,0.3,0.2h1l-0.1,0.2c0,0.1-0.1,0.1-0.2,0.2
		l-0.4,0.1c0,0.2,0,0.3,0,0.5c0,0.2-0.1,0.3-0.2,0.5c-0.1,0.1-0.2,0.3-0.4,0.4c-0.1,0.1-0.3,0.2-0.5,0.2c-0.2,0.1-0.4,0.1-0.6,0.1
		c-0.2,0-0.3,0-0.5-0.1c-0.1,0-0.2,0.1-0.2,0.2c-0.1,0.1-0.1,0.1-0.1,0.2c0,0.1,0,0.2,0,0.2c0.1,0,0.1,0.1,0.3,0.1
		c0.1,0,0.2,0,0.4,0c0.1,0,0.3,0,0.4,0c0.2,0,0.3,0,0.4,0c0.1,0,0.3,0.1,0.4,0.1c0.1,0.1,0.2,0.1,0.2,0.3c0,0.1,0,0.2,0,0.4
		c0,0.2-0.1,0.3-0.2,0.5c-0.1,0.1-0.3,0.3-0.4,0.4c-0.2,0.1-0.4,0.2-0.6,0.3c-0.2,0.1-0.5,0.1-0.7,0.1c-0.3,0-0.5,0-0.7-0.1
		c-0.2-0.1-0.3-0.1-0.4-0.2c-0.1-0.1-0.2-0.2-0.2-0.3c0-0.1,0-0.2,0-0.4c0-0.2,0.1-0.3,0.3-0.5s0.3-0.2,0.5-0.3
		c-0.1,0-0.2-0.1-0.2-0.2c0-0.1,0-0.2,0-0.3c0-0.1,0-0.1,0.1-0.2c0-0.1,0.1-0.1,0.1-0.2c0.1-0.1,0.1-0.1,0.2-0.2
		c0.1,0,0.2-0.1,0.2-0.1c-0.2-0.1-0.3-0.2-0.3-0.4c-0.1-0.2-0.1-0.4,0-0.6c0-0.2,0.1-0.3,0.2-0.5c0.1-0.1,0.2-0.3,0.4-0.4
		c0.2-0.1,0.3-0.2,0.5-0.2C135.8,24,136,24,136.2,24z M136.3,27.9c0-0.1,0-0.2,0-0.2c0-0.1-0.1-0.1-0.2-0.1c-0.1,0-0.2-0.1-0.3-0.1
		c-0.1,0-0.2,0-0.3,0c-0.1,0-0.3,0-0.4,0c-0.1,0-0.2,0-0.4,0c-0.2,0.1-0.3,0.1-0.4,0.2c-0.1,0.1-0.2,0.2-0.2,0.3c0,0.1,0,0.2,0,0.2
		c0,0.1,0.1,0.1,0.1,0.2c0.1,0.1,0.2,0.1,0.3,0.1c0.1,0,0.3,0,0.4,0c0.2,0,0.3,0,0.5,0c0.1,0,0.3-0.1,0.4-0.1
		c0.1-0.1,0.2-0.1,0.3-0.2C136.2,28,136.2,28,136.3,27.9z M135.7,25.9c0.1,0,0.2,0,0.4-0.1c0.1,0,0.2-0.1,0.3-0.2
		c0.1-0.1,0.2-0.1,0.2-0.2c0.1-0.1,0.1-0.2,0.1-0.3c0.1-0.2,0-0.4-0.1-0.5c-0.1-0.1-0.3-0.2-0.5-0.2c-0.3,0-0.5,0.1-0.6,0.2
		c-0.2,0.1-0.3,0.3-0.3,0.5c0,0.1,0,0.2,0,0.3c0,0.1,0,0.2,0.1,0.2c0,0.1,0.1,0.1,0.2,0.2C135.4,25.9,135.5,25.9,135.7,25.9z
		 M144,22.5l-0.2,0.6h-1.7l-1.2,4.5h-0.7l1.2-4.5h-1.7l0.2-0.6H144z M144.9,24c0.2,0,0.4,0,0.6,0.1c0.2,0.1,0.3,0.2,0.4,0.3
		c0.1,0.1,0.2,0.3,0.2,0.5c0,0.2,0,0.4-0.1,0.7c0,0.1-0.1,0.2-0.1,0.2c0,0-0.1,0-0.1,0h-2.4c-0.1,0.2-0.1,0.4-0.1,0.6
		c0,0.2,0.1,0.3,0.1,0.4c0.1,0.1,0.2,0.2,0.3,0.3c0.1,0.1,0.3,0.1,0.4,0.1c0.2,0,0.3,0,0.4-0.1c0.1,0,0.2-0.1,0.3-0.1
		c0.1,0,0.2-0.1,0.2-0.1c0.1,0,0.1-0.1,0.2-0.1c0.1,0,0.1,0,0.1,0.1l0.1,0.2c-0.1,0.1-0.2,0.2-0.3,0.2c-0.1,0.1-0.3,0.1-0.4,0.2
		c-0.1,0-0.3,0.1-0.4,0.1c-0.1,0-0.3,0-0.4,0c-0.2,0-0.5,0-0.7-0.1c-0.2-0.1-0.3-0.2-0.4-0.4c-0.1-0.2-0.2-0.4-0.2-0.6
		c0-0.2,0-0.5,0.1-0.8c0.1-0.3,0.2-0.5,0.3-0.7c0.1-0.2,0.3-0.4,0.5-0.6c0.2-0.2,0.4-0.3,0.6-0.4C144.4,24,144.6,24,144.9,24z
		 M144.8,24.5c-0.3,0-0.6,0.1-0.8,0.3c-0.2,0.2-0.4,0.4-0.5,0.7h2c0-0.1,0.1-0.3,0-0.4c0-0.1,0-0.2-0.1-0.3
		c-0.1-0.1-0.1-0.2-0.2-0.2C145,24.5,144.9,24.5,144.8,24.5z M148.9,27.7h-0.3c-0.1,0-0.1,0-0.1,0c0,0,0-0.1,0-0.1l0-0.3
		c-0.1,0.1-0.2,0.2-0.3,0.2c-0.1,0.1-0.2,0.1-0.3,0.2c-0.1,0-0.2,0.1-0.3,0.1c-0.1,0-0.2,0-0.4,0c-0.1,0-0.3,0-0.4-0.1
		c-0.1,0-0.2-0.1-0.3-0.2c-0.1-0.1-0.1-0.2-0.1-0.3c0-0.1,0-0.3,0-0.4c0-0.1,0.1-0.3,0.2-0.4c0.1-0.1,0.3-0.3,0.5-0.4
		c0.2-0.1,0.5-0.2,0.8-0.3c0.3-0.1,0.7-0.1,1.1-0.1l0.1-0.3c0.1-0.3,0.1-0.5,0-0.6c-0.1-0.1-0.2-0.2-0.5-0.2c-0.2,0-0.3,0-0.4,0.1
		c-0.1,0-0.2,0.1-0.3,0.1c-0.1,0.1-0.2,0.1-0.2,0.1c-0.1,0-0.1,0.1-0.2,0.1c0,0-0.1,0-0.1,0c0,0,0-0.1-0.1-0.1l-0.1-0.2
		c0.3-0.2,0.5-0.3,0.8-0.4c0.3-0.1,0.5-0.1,0.8-0.1c0.2,0,0.4,0,0.5,0.1c0.1,0.1,0.2,0.2,0.3,0.3c0.1,0.1,0.1,0.3,0.1,0.4
		c0,0.2,0,0.4-0.1,0.6L148.9,27.7z M147.3,27.3c0.1,0,0.2,0,0.3,0c0.1,0,0.2-0.1,0.3-0.1c0.1,0,0.2-0.1,0.3-0.1
		c0.1-0.1,0.2-0.1,0.3-0.2l0.2-0.8c-0.3,0-0.5,0-0.8,0.1c-0.2,0-0.4,0.1-0.5,0.1c-0.1,0.1-0.3,0.1-0.3,0.2c-0.1,0.1-0.1,0.2-0.2,0.3
		c0,0.1,0,0.2,0,0.2c0,0.1,0,0.1,0.1,0.2c0,0,0.1,0.1,0.2,0.1C147.2,27.3,147.2,27.3,147.3,27.3z M149.8,27.7l1-3.6h0.4
		c0.1,0,0.1,0,0.1,0.1l-0.1,0.4c0.2-0.2,0.4-0.3,0.6-0.4c0.2-0.1,0.4-0.2,0.6-0.2c0.2,0,0.4,0.1,0.5,0.2c0.1,0.1,0.2,0.3,0.2,0.6
		c0.1-0.1,0.2-0.2,0.3-0.3c0.1-0.1,0.2-0.2,0.3-0.2c0.1-0.1,0.2-0.1,0.4-0.1c0.1,0,0.2,0,0.4,0c0.2,0,0.4,0,0.5,0.1
		c0.1,0.1,0.2,0.1,0.3,0.3c0.1,0.1,0.1,0.3,0.1,0.4c0,0.2,0,0.4-0.1,0.6l-0.6,2.3h-0.6l0.6-2.3c0.1-0.3,0.1-0.5,0-0.6
		c-0.1-0.1-0.2-0.2-0.5-0.2c-0.1,0-0.2,0-0.3,0.1c-0.1,0-0.2,0.1-0.3,0.2c-0.1,0.1-0.2,0.2-0.2,0.3c-0.1,0.1-0.1,0.2-0.2,0.4
		l-0.6,2.3H152l0.6-2.3c0.1-0.3,0.1-0.5,0-0.7c-0.1-0.1-0.2-0.2-0.5-0.2c-0.2,0-0.3,0-0.5,0.1c-0.2,0.1-0.3,0.2-0.5,0.3l-0.7,2.7
		H149.8z"/>
</g>
</svg>
