<?xml version="1.0" encoding="utf-8"?>
<!-- Generator: Adobe Illustrator 21.0.0, SVG Export Plug-In . SVG Version: 6.00 Build 0)  -->
<svg version="1.1" id="Layer_1" xmlns="http://www.w3.org/2000/svg" xmlns:xlink="http://www.w3.org/1999/xlink" x="0px" y="0px"
	 viewBox="0 0 267 60" style="enable-background:new 0 0 267 60;" xml:space="preserve">
<style type="text/css">
	.st0{opacity:8.000000e-02;fill:#FFA300;}
	.st1{fill:#FFA352;}
	.st2{opacity:0.5;}
</style>
<g>
	<path class="st0" d="M257,60H10C4.5,60,0,55.5,0,50V10C0,4.5,4.5,0,10,0h247c5.5,0,10,4.5,10,10v40C267,55.5,262.5,60,257,60z"/>
	<g>
		<path class="st1" d="M24.3,50.5c0,0.7-0.2,1.3-0.7,1.8c-0.5,0.5-1,0.7-1.7,0.7c-0.6,0-1.2-0.2-1.7-0.7c-0.5-0.5-0.7-1.1-0.7-1.8
			c0-0.6,0.2-1.2,0.6-1.7c0.5-0.5,1-0.8,1.6-0.8c0.7,0,1.4,0.2,1.8,0.7C24.1,49.2,24.3,49.8,24.3,50.5z"/>
		<path class="st1" d="M40.3,50.5c0,0.7-0.2,1.3-0.7,1.8c-0.5,0.5-1,0.7-1.7,0.7c-0.6,0-1.2-0.2-1.7-0.7c-0.5-0.5-0.7-1.1-0.7-1.8
			c0-0.6,0.2-1.2,0.6-1.7c0.5-0.5,1-0.8,1.6-0.8c0.7,0,1.4,0.2,1.8,0.7C40.1,49.2,40.3,49.8,40.3,50.5z"/>
		<path class="st1" d="M56.3,50.5c0,0.7-0.2,1.3-0.7,1.8c-0.5,0.5-1,0.7-1.7,0.7c-0.6,0-1.2-0.2-1.7-0.7c-0.5-0.5-0.7-1.1-0.7-1.8
			c0-0.6,0.2-1.2,0.6-1.7c0.5-0.5,1-0.8,1.6-0.8c0.7,0,1.4,0.2,1.8,0.7C56.1,49.2,56.3,49.8,56.3,50.5z"/>
		<path class="st1" d="M72.3,50.5c0,0.7-0.2,1.3-0.7,1.8c-0.5,0.5-1,0.7-1.7,0.7c-0.6,0-1.2-0.2-1.7-0.7c-0.5-0.5-0.7-1.1-0.7-1.8
			c0-0.6,0.2-1.2,0.6-1.7c0.5-0.5,1-0.8,1.6-0.8c0.7,0,1.4,0.2,1.8,0.7C72.1,49.2,72.3,49.8,72.3,50.5z"/>
		<path class="st1" d="M88.3,50.5c0,0.7-0.2,1.3-0.7,1.8c-0.5,0.5-1,0.7-1.7,0.7c-0.6,0-1.2-0.2-1.7-0.7c-0.5-0.5-0.7-1.1-0.7-1.8
			c0-0.6,0.2-1.2,0.6-1.7c0.5-0.5,1-0.8,1.6-0.8c0.7,0,1.4,0.2,1.8,0.7C88,49.2,88.3,49.8,88.3,50.5z"/>
		<path class="st1" d="M104.3,50.5c0,0.7-0.2,1.3-0.7,1.8c-0.5,0.5-1,0.7-1.7,0.7c-0.6,0-1.2-0.2-1.7-0.7c-0.5-0.5-0.7-1.1-0.7-1.8
			c0-0.6,0.2-1.2,0.6-1.7c0.5-0.5,1-0.8,1.6-0.8c0.7,0,1.4,0.2,1.8,0.7C104,49.2,104.3,49.8,104.3,50.5z"/>
		<path class="st1" d="M120.3,50.5c0,0.7-0.2,1.3-0.7,1.8c-0.5,0.5-1,0.7-1.7,0.7c-0.6,0-1.2-0.2-1.7-0.7c-0.5-0.5-0.7-1.1-0.7-1.8
			c0-0.6,0.2-1.2,0.6-1.7c0.5-0.5,1-0.8,1.6-0.8c0.7,0,1.4,0.2,1.8,0.7C120,49.2,120.3,49.8,120.3,50.5z"/>
		<path class="st1" d="M136.3,50.5c0,0.7-0.2,1.3-0.7,1.8c-0.5,0.5-1,0.7-1.7,0.7c-0.6,0-1.2-0.2-1.7-0.7c-0.5-0.5-0.7-1.1-0.7-1.8
			c0-0.6,0.2-1.2,0.6-1.7c0.5-0.5,1-0.8,1.6-0.8c0.7,0,1.4,0.2,1.8,0.7C136,49.2,136.3,49.8,136.3,50.5z"/>
		<path class="st1" d="M152.3,50.5c0,0.7-0.2,1.3-0.7,1.8c-0.5,0.5-1,0.7-1.7,0.7c-0.6,0-1.2-0.2-1.7-0.7c-0.5-0.5-0.7-1.1-0.7-1.8
			c0-0.6,0.2-1.2,0.6-1.7c0.5-0.5,1-0.8,1.6-0.8c0.7,0,1.4,0.2,1.8,0.7C152,49.2,152.3,49.8,152.3,50.5z"/>
		<path class="st1" d="M168.3,50.5c0,0.7-0.2,1.3-0.7,1.8c-0.5,0.5-1,0.7-1.7,0.7c-0.6,0-1.2-0.2-1.7-0.7c-0.5-0.5-0.7-1.1-0.7-1.8
			c0-0.6,0.2-1.2,0.6-1.7c0.5-0.5,1-0.8,1.6-0.8c0.7,0,1.4,0.2,1.8,0.7C168,49.2,168.3,49.8,168.3,50.5z"/>
		<path class="st1" d="M184.2,50.5c0,0.7-0.2,1.3-0.7,1.8c-0.5,0.5-1,0.7-1.7,0.7c-0.6,0-1.2-0.2-1.7-0.7c-0.5-0.5-0.7-1.1-0.7-1.8
			c0-0.6,0.2-1.2,0.6-1.7c0.5-0.5,1-0.8,1.6-0.8c0.7,0,1.4,0.2,1.8,0.7C184,49.2,184.2,49.8,184.2,50.5z"/>
		<path class="st1" d="M200.2,50.5c0,0.7-0.2,1.3-0.7,1.8c-0.5,0.5-1,0.7-1.7,0.7c-0.6,0-1.2-0.2-1.7-0.7c-0.5-0.5-0.7-1.1-0.7-1.8
			c0-0.6,0.2-1.2,0.6-1.7c0.5-0.5,1-0.8,1.6-0.8c0.7,0,1.4,0.2,1.8,0.7C200,49.2,200.2,49.8,200.2,50.5z"/>
		<path class="st1" d="M218.3,50.5c0,0.7-0.2,1.3-0.7,1.8c-0.5,0.5-1,0.7-1.7,0.7c-0.6,0-1.2-0.2-1.7-0.7c-0.5-0.5-0.7-1.1-0.7-1.8
			c0-0.6,0.2-1.2,0.6-1.7c0.5-0.5,1-0.8,1.6-0.8c0.7,0,1.4,0.2,1.8,0.7C218,49.2,218.3,49.8,218.3,50.5z"/>
		<path class="st1" d="M234.2,50.5c0,0.7-0.2,1.3-0.7,1.8c-0.5,0.5-1,0.7-1.7,0.7c-0.6,0-1.2-0.2-1.7-0.7c-0.5-0.5-0.7-1.1-0.7-1.8
			c0-0.6,0.2-1.2,0.6-1.7c0.5-0.5,1-0.8,1.6-0.8c0.7,0,1.4,0.2,1.8,0.7C234,49.2,234.2,49.8,234.2,50.5z"/>
		<path class="st1" d="M250.2,50.5c0,0.7-0.2,1.3-0.7,1.8c-0.5,0.5-1,0.7-1.7,0.7c-0.6,0-1.2-0.2-1.7-0.7c-0.5-0.5-0.7-1.1-0.7-1.8
			c0-0.6,0.2-1.2,0.6-1.7c0.5-0.5,1-0.8,1.6-0.8c0.7,0,1.4,0.2,1.8,0.7C250,49.2,250.2,49.8,250.2,50.5z"/>
		<g class="st2">
			<path class="st1" d="M143.4,15.6c0,1.2-0.3,2.2-0.9,3c-0.6,1-1.5,1.4-2.7,1.4c-1.6,0-2.4-0.9-2.5-2.6c0-0.9,0.4-1.6,1.3-2.3
				l1.2-0.7c0.5-0.3,0.7-0.8,0.7-1.4c0-0.8-0.3-1.5-1-2s-1.4-0.7-2.3-0.7c-1.1,0-2.1,0.4-2.9,1.2c-0.8,0.8-1.2,1.7-1.2,2.9
				c0,0.9,0.3,1.9,0.8,3l1.8,3.6c1.5,2.9,2.2,5.7,2.2,8.3c0,0.6,0,1-0.1,1.3c0,0-0.1,0.7-0.2,2h-0.8c0-0.2,0-0.6,0-1.1s0-0.9,0-1.2
				c0-0.7-0.1-1.3-0.2-1.9c-0.3-0.6-0.6-1.1-1-1.4l-3-2.6c-2.3-2.1-3.5-4.6-3.5-7.3c0-2.1,0.7-4,2.2-5.5c1.5-1.6,3.3-2.3,5.4-2.3
				c1.8,0,3.4,0.6,4.7,1.8C142.7,12.3,143.4,13.8,143.4,15.6z M139.2,37.4c0,0.7-0.2,1.3-0.7,1.8s-1.1,0.8-1.9,0.8
				c-0.6,0-1.3-0.2-1.8-0.7c-0.4-0.5-0.6-1.1-0.7-1.8c0-0.7,0.2-1.3,0.7-1.8s1.1-0.8,1.8-0.8s1.3,0.2,1.8,0.7
				C139,36.1,139.2,36.7,139.2,37.4z"/>
		</g>
	</g>
</g>
</svg>
