<?xml version="1.0" encoding="utf-8"?>
<!-- Generator: Adobe Illustrator 21.0.0, SVG Export Plug-In . SVG Version: 6.00 Build 0)  -->
<svg version="1.1" id="Layer_1" xmlns="http://www.w3.org/2000/svg" xmlns:xlink="http://www.w3.org/1999/xlink" x="0px" y="0px"
	 viewBox="0 0 46.2 48.9" style="enable-background:new 0 0 46.2 48.9;" xml:space="preserve">
<style type="text/css">
	.st0{opacity:0.15;enable-background:new    ;}
	.st1{fill:#56B731;}
	.st2{fill:#FFBF1C;}
	.st3{fill:#FFFFFF;}
	.st4{fill:#E6E6E6;}
	.st5{fill:#CECECE;}
	.st6{fill:url(#SVGID_1_);}
	.st7{fill:url(#SVGID_2_);}
</style>
<g>
	<g>
		<circle class="st0" cx="23.1" cy="25.8" r="23.1"/>
		<circle class="st1" cx="23.1" cy="23.1" r="23.1"/>
		<circle class="st2" cx="23.1" cy="23.1" r="17.5"/>
		<circle class="st3" cx="23.1" cy="23.1" r="21.2"/>
		<path class="st4" d="M44.3,23.1c0,11.7-9.5,21.2-21.2,21.2S1.9,34.8,1.9,23.1C11.5,23.1,34.6,23.1,44.3,23.1z"/>
		<circle class="st5" cx="23.1" cy="23.1" r="17.5"/>
		
			<linearGradient id="SVGID_1_" gradientUnits="userSpaceOnUse" x1="23.1" y1="42.2369" x2="23.1" y2="9.542" gradientTransform="matrix(1 0 0 -1 0 49)">
			<stop  offset="0" style="stop-color:#FFFFFF"/>
			<stop  offset="1" style="stop-color:#C9CDDB"/>
		</linearGradient>
		<circle class="st6" cx="23.1" cy="23.1" r="16.3"/>
		
			<linearGradient id="SVGID_2_" gradientUnits="userSpaceOnUse" x1="23.1806" y1="27.3104" x2="24.5282" y2="46.4652" gradientTransform="matrix(1 0 0 -1 0 49)">
			<stop  offset="0" style="stop-color:#FFFFFF;stop-opacity:0"/>
			<stop  offset="8.962709e-02" style="stop-color:#FFFFFF;stop-opacity:8.962709e-02"/>
			<stop  offset="1" style="stop-color:#FFFFFF"/>
		</linearGradient>
		<path class="st7" d="M37.7,23.1c-7.3,0-22.6,0-29.2,0C8.5,15,15,8.5,23.1,8.5S37.7,15.1,37.7,23.1z"/>
	</g>
</g>
<g>
	<path class="st3" d="M25.1,33.1c-0.9,0-1.7-0.3-2.3-1c-1.3-1.3-1.3-3.3,0-4.6l1.2-1.2h-9.7c-1.8,0-3.2-1.5-3.2-3.2s1.5-3.2,3.2-3.2
		h9.7l-1.2-1.2c-0.6-0.6-0.9-1.4-0.9-2.3c0-0.9,0.3-1.7,0.9-2.3c0.6-0.6,1.4-0.9,2.3-0.9c0.9,0,1.7,0.3,2.3,0.9l6.8,6.8
		c0.6,0.6,0.9,1.4,0.9,2.3c0,0.9-0.3,1.7-1,2.3l-6.8,6.8C26.8,32.8,26,33.1,25.1,33.1z"/>
	<path class="st1" d="M26.8,14.6c-0.9-0.9-2.5-0.9-3.4,0c-0.9,0.9-0.9,2.5,0,3.4l2.6,2.6H14.3c-1.3,0-2.4,1.1-2.4,2.4
		c0,1.3,1.1,2.4,2.4,2.4H26l-2.6,2.6c-0.9,0.9-0.9,2.5,0,3.4c0.5,0.5,1.1,0.7,1.7,0.7c0.6,0,1.2-0.2,1.7-0.7l6.8-6.8
		c0.5-0.5,0.7-1.1,0.7-1.7c0-0.6-0.3-1.3-0.7-1.7L26.8,14.6z"/>
</g>
</svg>
