<?xml version="1.0" encoding="UTF-8"?>
<!DOCTYPE svg PUBLIC "-//W3C//DTD SVG 1.1//EN" "http://www.w3.org/Graphics/SVG/1.1/DTD/svg11.dtd">
<!-- Creator: CorelDRAW X7 -->
<svg xmlns="http://www.w3.org/2000/svg" xml:space="preserve" width="10.4805mm" height="9.813mm" version="1.1" style="shape-rendering:geometricPrecision; text-rendering:geometricPrecision; image-rendering:optimizeQuality; fill-rule:evenodd; clip-rule:evenodd"
viewBox="0 0 345577 323567"
 xmlns:xlink="http://www.w3.org/1999/xlink">
 <defs>
  <style type="text/css">
   <![CDATA[
    .fil0 {fill:#EF5026}
   ]]>
  </style>
 </defs>
 <g id="Layer_x0020_1">
  <metadata id="CorelCorpID_0Corel-Layer"/>
  <path class="fil0" d="M53417 317233c6169,2354 12826,5856 21050,6219 26177,1150 36274,-13226 53199,-30270 9589,-9651 18455,-18168 27902,-27892 23411,-24103 30461,-557 62356,28228 9285,8379 16717,19906 29867,25947 14142,6496 31542,5078 44524,-2859 7828,-4787 22366,-20196 29402,-27305 9787,-9882 17789,-15524 22007,-33837 7046,-30589 -20559,-50423 -39984,-69570 -4112,-4053 -9064,-9061 -13829,-14080 -6268,-6605 -18465,-14103 -12266,-26880 1880,-3881 3370,-4257 6400,-7561 4280,-4669 9889,-9516 14294,-13585 11976,-11069 18343,-17710 28723,-27077 9701,-8751 19553,-19181 18426,-37221 -1062,-16912 -12161,-25617 -22821,-33800 -9355,-7182 -21179,-19372 -32789,-22943 -15695,-4824 -34127,-3156 -46759,3910 -13651,7630 -55933,46206 -63161,49322 -13093,5645 -22939,-6005 -35538,-16787l-31005 -24819c-12968,-9628 -23329,-13367 -44257,-11732 -16641,1306 -27572,11096 -37540,19210 -9166,7459 -22329,15973 -28265,27589 -7527,14739 -1272,32284 7805,41889 9028,9553 54215,47555 57074,55343 3218,8767 -2107,14729 -6882,19151 -5131,4755 -9272,9133 -13944,13957 -8920,9210 -17898,17450 -27925,27883 -9085,9450 -18399,17785 -18719,37517 -254,15824 5196,27555 16249,37339l2087 1721c600,1553 -208,178 1214,2021l6182 5549c3020,4455 7465,7759 11313,11769 3802,3960 8267,9516 13071,11474l2539 2180z"/>
 </g>
</svg>
