<?xml version="1.0" encoding="utf-8"?>
<!-- Generator: Adobe Illustrator 16.0.0, SVG Export Plug-In . SVG Version: 6.00 Build 0)  -->
<!DOCTYPE svg PUBLIC "-//W3C//DTD SVG 1.1//EN" "http://www.w3.org/Graphics/SVG/1.1/DTD/svg11.dtd">
<svg version="1.1" id="Layer_1" xmlns="http://www.w3.org/2000/svg" xmlns:xlink="http://www.w3.org/1999/xlink" x="0px" y="0px"
	 width="372.75px" height="55px" viewBox="0 0 372.75 55" enable-background="new 0 0 372.75 55" xml:space="preserve">
<g>
	<g>
		<linearGradient id="SVGID_1_" gradientUnits="userSpaceOnUse" x1="19.4023" y1="0.8706" x2="19.4023" y2="36.828">
			<stop  offset="0" style="stop-color:#2BC4F3"/>
			<stop  offset="0.5" style="stop-color:#00AEEE"/>
			<stop  offset="1" style="stop-color:#0095DA"/>
		</linearGradient>
		<path fill="url(#SVGID_1_)" d="M6.9,44.745c-0.501,0-0.97-0.25-1.248-0.667c-0.277-0.417-0.329-0.945-0.138-1.408
			c0.448-1.079,0.77-2.178,0.955-3.266c0.19-1.114,0.287-2.524,0.287-4.191V13.069c0-1.667-0.097-3.076-0.287-4.19
			C6.284,7.792,5.963,6.692,5.515,5.612c-0.191-0.463-0.14-0.991,0.139-1.408C5.932,3.788,6.399,3.537,6.9,3.537h12.896
			c0.501,0,0.969,0.25,1.247,0.667c0.278,0.417,0.33,0.945,0.139,1.408c-0.448,1.081-0.77,2.18-0.955,3.266
			c-0.19,1.115-0.287,2.525-0.287,4.191V34.82c1.429-0.123,2.71-0.289,3.824-0.496c2.61-0.505,5.117-1.384,7.438-2.61
			c0.222-0.116,0.462-0.174,0.701-0.174c0.365,0,0.728,0.134,1.011,0.392c0.468,0.426,0.617,1.1,0.374,1.684l-2.121,5.104
			l-2.147,5.107c-0.234,0.557-0.779,0.919-1.383,0.919H6.9z"/>
		<path fill="#FFFFFF" d="M19.797,5.037h0.005 M19.797,5.037c-0.493,1.188-0.843,2.385-1.048,3.589
			c-0.206,1.205-0.309,2.686-0.309,4.443v23.364c2.153-0.13,4.02-0.342,5.598-0.635c2.778-0.537,5.4-1.456,7.866-2.759l-2.121,5.103
			l-2.146,5.103H18.44H6.9c0.493-1.188,0.843-2.384,1.048-3.589c0.206-1.204,0.309-2.686,0.309-4.443V13.069
			c0-1.758-0.103-3.238-0.309-4.443C7.743,7.422,7.394,6.226,6.9,5.037h6.437H19.797 M19.802,2.037h-0.005h-6.46H6.9
			c-1.002,0-1.938,0.5-2.495,1.334s-0.66,1.89-0.275,2.816C4.535,7.164,4.824,8.154,4.991,9.13c0.176,1.033,0.266,2.357,0.266,3.939
			v22.144c0,1.583-0.089,2.907-0.266,3.938c-0.167,0.979-0.456,1.969-0.861,2.944c-0.385,0.926-0.281,1.982,0.275,2.816
			c0.557,0.833,1.493,1.334,2.495,1.334h11.54h9.197c1.208,0,2.298-0.724,2.766-1.837l2.146-5.103l2.126-5.114
			c0.485-1.168,0.186-2.516-0.749-3.368c-0.565-0.516-1.29-0.783-2.022-0.783c-0.478,0-0.958,0.114-1.4,0.348
			c-2.19,1.157-4.558,1.987-7.034,2.466c-0.617,0.114-1.295,0.217-2.028,0.305V13.069c0-1.582,0.09-2.907,0.266-3.938
			c0.16-0.943,0.436-1.897,0.818-2.84C22.701,5.91,22.8,5.485,22.8,5.037C22.8,3.38,21.459,2.037,19.802,2.037L19.802,2.037z"/>
	</g>
	<g>
		<linearGradient id="SVGID_2_" gradientUnits="userSpaceOnUse" x1="49.6265" y1="-0.4121" x2="49.6265" y2="36.5465">
			<stop  offset="0" style="stop-color:#2BC4F3"/>
			<stop  offset="0.5" style="stop-color:#00AEEE"/>
			<stop  offset="1" style="stop-color:#0095DA"/>
		</linearGradient>
		<path fill="url(#SVGID_2_)" d="M52.499,45.307c-4.926,0-8.896-1.376-11.8-4.091c-2.934-2.74-4.421-6.51-4.421-11.203
			c0-4.434,1.309-8.128,3.89-10.979c2.597-2.87,5.963-4.338,10.006-4.363c0.011,0,0.061,0,0.066,0
			c3.947,0.009,7.095,1.284,9.363,3.789c2.236,2.471,3.371,5.89,3.371,10.162c0,1.154-0.112,2.275-0.332,3.334
			c-0.146,0.695-0.759,1.193-1.469,1.193H49.172c0.198,0.402,0.425,0.77,0.681,1.102c1.029,1.311,2.545,1.953,4.624,1.953
			c1.024,0,2.096-0.173,3.184-0.516c1.087-0.341,2.081-0.822,2.955-1.431c0.258-0.179,0.558-0.269,0.856-0.269
			c0.335,0,0.669,0.111,0.943,0.334c0.519,0.419,0.698,1.131,0.44,1.746l-3.252,7.757c-0.203,0.482-0.643,0.825-1.161,0.903
			c-1.572,0.236-2.693,0.387-3.427,0.46C54.255,45.267,53.407,45.307,52.499,45.307z M51.909,24.997
			c-0.063-0.614-0.222-1.07-0.476-1.376c-0.186-0.225-0.495-0.482-1.245-0.482c-0.612,0-1,0.237-1.339,0.818
			c-0.129,0.218-0.275,0.548-0.399,1.04H51.909z"/>
		<path fill="#FFFFFF" d="M50.28,16.17c-0.012,0-0.024,0-0.036,0c-0.013,0-0.025,0-0.038,0H50.28 M50.244,16.17
			c3.516,0.008,6.265,1.106,8.247,3.296c1.989,2.197,2.983,5.249,2.983,9.155c0,1.059-0.101,2.067-0.301,3.027H47.063
			c0.328,1.384,0.862,2.556,1.601,3.516c1.33,1.693,3.268,2.539,5.813,2.539c1.182,0,2.393-0.194,3.633-0.584
			s2.36-0.934,3.362-1.631l-3.252,7.757c-1.513,0.228-2.63,0.379-3.354,0.451c-0.724,0.074-1.513,0.11-2.367,0.11
			c-4.554,0-8.146-1.229-10.775-3.687c-2.63-2.457-3.945-5.826-3.945-10.107c0-4.068,1.167-7.394,3.502-9.973
			C43.606,17.468,46.595,16.178,50.244,16.17 M46.717,26.497h6.746l-0.024-0.903c0-1.27-0.283-2.246-0.85-2.93
			s-1.366-1.025-2.4-1.025c-1.149,0-2.027,0.521-2.635,1.563C47.094,23.982,46.815,25.081,46.717,26.497 M50.28,13.17h-0.074
			c-0.017,0-0.034,0-0.051,0c-4.478,0.03-8.211,1.664-11.1,4.857c-2.838,3.135-4.277,7.167-4.277,11.985
			c0,5.126,1.647,9.264,4.897,12.3c3.19,2.981,7.505,4.494,12.823,4.494c0.959,0,1.858-0.042,2.673-0.126
			c0.751-0.075,1.896-0.229,3.494-0.469c1.036-0.156,1.915-0.841,2.32-1.807l3.252-7.757c0.471-1.122,0.214-2.404-0.622-3.258
			c0.236-0.33,0.407-0.713,0.494-1.13c0.242-1.157,0.364-2.382,0.364-3.64c0-4.656-1.265-8.413-3.76-11.169
			c-2.548-2.815-6.042-4.255-10.387-4.282C50.313,13.17,50.297,13.17,50.28,13.17L50.28,13.17z M53.57,34.648h1.836
			c-0.315,0.037-0.625,0.055-0.93,0.055C54.145,34.703,53.844,34.684,53.57,34.648L53.57,34.648z"/>
	</g>
	<g>
		<linearGradient id="SVGID_3_" gradientUnits="userSpaceOnUse" x1="79.6284" y1="-0.5381" x2="79.6284" y2="36.5739">
			<stop  offset="0" style="stop-color:#2BC4F3"/>
			<stop  offset="0.5" style="stop-color:#00AEEE"/>
			<stop  offset="1" style="stop-color:#0095DA"/>
		</linearGradient>
		<path fill="url(#SVGID_3_)" d="M74.895,44.745c-0.646,0-1.219-0.413-1.423-1.026L68.12,27.655
			c-1.111-3.221-2.004-5.638-2.647-7.168c-0.773-1.839-1.248-2.516-1.463-2.757c-0.394-0.441-0.491-1.072-0.25-1.612
			c0.242-0.54,0.778-0.887,1.369-0.887h11.01c0.426,0,0.831,0.181,1.116,0.498c0.284,0.316,0.421,0.739,0.375,1.162
			c-0.067,0.627-0.029,1.378,0.111,2.232c0.155,0.933,0.466,2.215,0.924,3.81l2.227,7.895l2.068-6.587
			c0.78-2.417,1.329-4.222,1.632-5.376c0.386-1.47,0.379-1.953,0.373-2.035c-0.027-0.414,0.118-0.821,0.402-1.124
			c0.283-0.303,0.68-0.475,1.095-0.475h7.665c0.592,0,1.128,0.348,1.37,0.889c0.241,0.54,0.142,1.172-0.253,1.613
			c-0.236,0.263-0.756,0.981-1.585,2.834c-0.682,1.524-1.617,3.922-2.782,7.126L85.21,43.744c-0.211,0.6-0.778,1.001-1.414,1.001
			H74.895z"/>
		<path fill="#FFFFFF" d="M94.127,16.731h0.005 M94.127,16.731c-0.525,0.586-1.138,1.66-1.837,3.223
			c-0.698,1.563-1.64,3.972-2.823,7.227l-5.671,16.064h-4.438h-4.463l-5.352-16.064c-1.134-3.287-2.03-5.713-2.688-7.275
			s-1.232-2.62-1.727-3.174h5.493h5.517c-0.082,0.766-0.041,1.645,0.123,2.637c0.165,0.993,0.485,2.319,0.962,3.979l3.58,12.695
			h0.022l3.564-11.353c0.789-2.441,1.34-4.256,1.652-5.444c0.312-1.188,0.451-2.026,0.419-2.515h3.833H94.127 M94.132,13.731h-0.005
			h-3.832h-3.833c-0.83,0-1.623,0.344-2.19,0.95c-0.558,0.596-0.848,1.393-0.806,2.207c-0.004,0.077-0.037,0.5-0.324,1.597
			c-0.297,1.126-0.837,2.904-1.605,5.283l-0.567,1.807l-0.857-3.042c-0.446-1.553-0.744-2.779-0.891-3.657
			c-0.118-0.718-0.152-1.333-0.1-1.825c0.091-0.847-0.182-1.692-0.751-2.325c-0.569-0.633-1.38-0.995-2.231-0.995h-5.517h-5.493
			c-1.183,0-2.255,0.694-2.738,1.774c-0.483,1.079-0.287,2.341,0.5,3.224c0.017,0.019,0.417,0.478,1.199,2.339
			c0.631,1.5,1.512,3.886,2.617,7.09l5.341,16.035c0.408,1.226,1.556,2.052,2.847,2.052h4.463h4.438
			c1.271,0,2.405-0.802,2.829-2.001l5.671-16.064c1.144-3.145,2.066-5.509,2.733-7.001c0.753-1.683,1.184-2.267,1.307-2.416
			c0.492-0.534,0.794-1.248,0.794-2.031C97.13,15.075,95.789,13.731,94.132,13.731L94.132,13.731z"/>
	</g>
	<g>
		<linearGradient id="SVGID_4_" gradientUnits="userSpaceOnUse" x1="109.6274" y1="-0.4121" x2="109.6274" y2="36.5465">
			<stop  offset="0" style="stop-color:#2BC4F3"/>
			<stop  offset="0.5" style="stop-color:#00AEEE"/>
			<stop  offset="1" style="stop-color:#0095DA"/>
		</linearGradient>
		<path fill="url(#SVGID_4_)" d="M112.5,45.307c-4.926,0-8.896-1.376-11.8-4.091c-2.934-2.74-4.421-6.51-4.421-11.203
			c0-4.434,1.309-8.128,3.89-10.979c2.597-2.87,5.963-4.338,10.006-4.363c0.011,0,0.061,0,0.066,0
			c3.947,0.009,7.095,1.284,9.363,3.789c2.236,2.471,3.371,5.89,3.371,10.162c0,1.154-0.112,2.275-0.332,3.334
			c-0.146,0.695-0.759,1.193-1.469,1.193h-12.002c0.198,0.402,0.425,0.77,0.681,1.102c1.029,1.311,2.545,1.953,4.624,1.953
			c1.024,0,2.096-0.173,3.184-0.516c1.087-0.341,2.081-0.822,2.955-1.431c0.258-0.179,0.558-0.269,0.856-0.269
			c0.335,0,0.669,0.111,0.943,0.334c0.519,0.419,0.698,1.131,0.44,1.746l-3.252,7.757c-0.203,0.482-0.643,0.825-1.161,0.903
			c-1.572,0.236-2.693,0.387-3.427,0.46C114.256,45.267,113.408,45.307,112.5,45.307z M111.91,24.997
			c-0.063-0.614-0.222-1.07-0.476-1.376c-0.186-0.225-0.495-0.482-1.245-0.482c-0.612,0-1,0.237-1.339,0.818
			c-0.129,0.218-0.275,0.548-0.399,1.04H111.91z"/>
		<path fill="#FFFFFF" d="M110.281,16.17c-0.012,0-0.024,0-0.036,0c-0.013,0-0.025,0-0.038,0H110.281 M110.245,16.17
			c3.516,0.008,6.265,1.106,8.247,3.296c1.989,2.197,2.983,5.249,2.983,9.155c0,1.059-0.101,2.067-0.301,3.027h-14.111
			c0.328,1.384,0.862,2.556,1.601,3.516c1.33,1.693,3.268,2.539,5.813,2.539c1.182,0,2.393-0.194,3.633-0.584
			s2.36-0.934,3.362-1.631l-3.252,7.757c-1.513,0.228-2.63,0.379-3.354,0.451c-0.724,0.074-1.513,0.11-2.367,0.11
			c-4.554,0-8.146-1.229-10.775-3.687c-2.63-2.457-3.945-5.826-3.945-10.107c0-4.068,1.167-7.394,3.502-9.973
			C103.607,17.468,106.596,16.178,110.245,16.17 M106.718,26.497h6.746l-0.024-0.903c0-1.27-0.283-2.246-0.85-2.93
			s-1.366-1.025-2.4-1.025c-1.149,0-2.027,0.521-2.635,1.563C107.095,23.982,106.816,25.081,106.718,26.497 M110.281,13.17h-0.074
			c-0.017,0-0.034,0-0.051,0c-4.478,0.03-8.211,1.664-11.1,4.857c-2.838,3.135-4.277,7.167-4.277,11.985
			c0,5.126,1.647,9.264,4.897,12.3c3.19,2.981,7.505,4.494,12.823,4.494c0.959,0,1.858-0.042,2.673-0.126
			c0.751-0.075,1.896-0.229,3.494-0.469c1.036-0.156,1.915-0.841,2.32-1.807l3.252-7.757c0.471-1.122,0.214-2.404-0.622-3.258
			c0.236-0.33,0.407-0.713,0.494-1.13c0.242-1.157,0.364-2.382,0.364-3.64c0-4.656-1.265-8.413-3.76-11.169
			c-2.548-2.815-6.042-4.255-10.386-4.282C110.313,13.17,110.298,13.17,110.281,13.17L110.281,13.17z M113.571,34.648h1.836
			c-0.315,0.037-0.625,0.055-0.93,0.055C114.146,34.703,113.845,34.684,113.571,34.648L113.571,34.648z"/>
	</g>
	<g>
		<linearGradient id="SVGID_5_" gradientUnits="userSpaceOnUse" x1="133.959" y1="0.8545" x2="133.959" y2="36.8253">
			<stop  offset="0" style="stop-color:#2BC4F3"/>
			<stop  offset="0.5" style="stop-color:#00AEEE"/>
			<stop  offset="1" style="stop-color:#0095DA"/>
		</linearGradient>
		<path fill="url(#SVGID_5_)" d="M127.918,44.745c-0.503,0-0.973-0.252-1.251-0.672c-0.277-0.42-0.326-0.951-0.13-1.414
			c0.428-1.008,0.734-2.067,0.911-3.147c0.166-1.107,0.252-2.561,0.252-4.299V14.607c0-1.736-0.09-3.186-0.266-4.308
			c-0.169-1.077-0.471-2.133-0.897-3.138c-0.186-0.437-0.153-0.936,0.087-1.345s0.659-0.681,1.131-0.732l6.041-0.659l6.035-0.683
			c0.057-0.006,0.113-0.009,0.169-0.009c0.489,0,0.951,0.239,1.233,0.646c0.314,0.455,0.354,1.045,0.102,1.537
			c-0.479,0.935-0.826,2.177-1.032,3.694c-0.22,1.613-0.331,3.928-0.331,6.877v18.726c0,1.741,0.089,3.19,0.265,4.308
			c0.169,1.078,0.471,2.133,0.898,3.138c0.196,0.463,0.148,0.994-0.13,1.414c-0.277,0.42-0.747,0.673-1.251,0.673H127.918z"/>
		<path fill="#FFFFFF" d="M140,5.232c-0.559,1.091-0.953,2.482-1.184,4.175c-0.23,1.693-0.345,4.053-0.345,7.08v18.726
			c0,1.823,0.094,3.337,0.283,4.541c0.188,1.205,0.521,2.368,0.999,3.491h-5.918h-5.918c0.477-1.123,0.813-2.286,1.011-3.491
			c0.181-1.204,0.271-2.718,0.271-4.541V14.607c0-1.822-0.095-3.336-0.284-4.541c-0.188-1.204-0.521-2.368-0.998-3.491l6.041-0.659
			L140,5.232 M140.001,2.232c-0.112,0-0.226,0.006-0.338,0.019l-6.041,0.684l-6.029,0.658c-0.943,0.103-1.782,0.646-2.263,1.465
			s-0.545,1.816-0.174,2.689c0.379,0.892,0.646,1.829,0.796,2.783c0.165,1.048,0.248,2.419,0.248,4.077v20.605
			c0,1.664-0.08,3.042-0.238,4.096c-0.151,0.923-0.425,1.866-0.806,2.765c-0.394,0.927-0.295,1.988,0.26,2.828
			c0.556,0.839,1.495,1.344,2.502,1.344h5.918h5.918c1.007,0,1.946-0.505,2.502-1.345s0.652-1.902,0.259-2.829
			c-0.379-0.891-0.646-1.826-0.796-2.781c-0.164-1.043-0.247-2.414-0.247-4.077V16.487c0-2.882,0.106-5.128,0.317-6.675
			c0.184-1.348,0.48-2.429,0.881-3.212c0.504-0.983,0.426-2.165-0.202-3.074C141.903,2.71,140.978,2.232,140.001,2.232
			L140.001,2.232z"/>
	</g>
</g>
<g>
	<g>
		<linearGradient id="SVGID_6_" gradientUnits="userSpaceOnUse" x1="164.7822" y1="20.5723" x2="166.9724" y2="46.125">
			<stop  offset="0" style="stop-color:#F69453"/>
			<stop  offset="0.5" style="stop-color:#F37521"/>
			<stop  offset="1" style="stop-color:#F15A29"/>
		</linearGradient>
		<path fill="url(#SVGID_6_)" d="M167.296,41.695c-4.922,0-9.022-1.57-12.186-4.666c-3.173-3.105-4.781-7.133-4.781-11.971
			c0-5.216,1.749-9.557,5.2-12.903c3.438-3.333,7.889-5.023,13.226-5.023c1.449,0,2.767,0.073,3.915,0.217
			c1.141,0.143,2.739,0.427,4.889,0.869c0.697,0.143,1.198,0.757,1.198,1.469v7.949c0,0.56-0.312,1.073-0.808,1.331
			c-0.218,0.113-0.455,0.169-0.692,0.169c-0.303,0-0.604-0.091-0.861-0.272c-1.456-1.021-2.758-1.732-3.868-2.114
			c-1.087-0.374-2.377-0.563-3.833-0.563c-1.927,0-3.455,0.688-4.675,2.105c-1.275,1.483-1.896,3.371-1.896,5.77
			c0,2.735,0.623,4.9,1.851,6.436c1.164,1.455,2.708,2.162,4.72,2.162c1.519,0,2.894-0.284,4.087-0.844
			c1.23-0.577,2.548-1.58,3.916-2.981c0.288-0.295,0.677-0.452,1.073-0.452c0.19,0,0.383,0.036,0.565,0.11
			c0.565,0.23,0.935,0.779,0.935,1.39v7.93c0,0.594-0.351,1.132-0.894,1.372c-2.168,0.958-4.044,1.623-5.577,1.975
			C171.249,41.515,169.397,41.695,167.296,41.695z"/>
		<path fill="#FFFFFF" d="M168.755,8.633c1.395,0,2.637,0.068,3.729,0.205s2.683,0.42,4.773,0.85v7.949
			c-1.578-1.106-2.992-1.875-4.242-2.305s-2.689-0.645-4.32-0.645c-2.368,0-4.305,0.876-5.812,2.627
			c-1.506,1.751-2.259,4.001-2.259,6.748c0,3.099,0.727,5.557,2.18,7.373s3.417,2.725,5.891,2.725c1.749,0,3.324-0.329,4.725-0.986
			c1.401-0.657,2.852-1.755,4.352-3.291v7.93c-2.092,0.925-3.86,1.553-5.307,1.885c-1.447,0.332-3.17,0.498-5.168,0.498
			c-4.537,0-8.25-1.413-11.137-4.238s-4.33-6.458-4.33-10.898c0-4.817,1.582-8.76,4.744-11.826
			C159.737,10.166,163.797,8.633,168.755,8.633 M168.755,5.633c-5.74,0-10.541,1.832-14.27,5.445
			c-3.753,3.64-5.656,8.343-5.656,13.98c0,5.257,1.76,9.645,5.231,13.043c3.454,3.38,7.907,5.094,13.235,5.094
			c2.214,0,4.179-0.193,5.839-0.574c1.649-0.379,3.563-1.054,5.849-2.064c1.087-0.48,1.787-1.557,1.787-2.744v-7.93
			c0-1.22-0.738-2.318-1.868-2.778c-0.367-0.149-0.751-0.222-1.131-0.222c-0.793,0-1.571,0.314-2.147,0.904
			c-1.242,1.271-2.413,2.171-3.479,2.671c-1.008,0.473-2.137,0.702-3.451,0.702c-1.569,0-2.663-0.493-3.548-1.599
			c-1.01-1.263-1.522-3.113-1.522-5.499c0-2.025,0.502-3.592,1.533-4.792c0.942-1.095,2.033-1.583,3.537-1.583
			c1.29,0,2.415,0.162,3.345,0.481c0.978,0.336,2.154,0.983,3.495,1.924c0.515,0.36,1.117,0.543,1.723,0.543
			c0.474,0,0.949-0.112,1.385-0.338c0.992-0.517,1.615-1.542,1.615-2.662V9.688c0-1.424-1.001-2.652-2.396-2.938
			c-2.188-0.45-3.825-0.74-5.004-0.888C171.646,5.709,170.267,5.633,168.755,5.633L168.755,5.633z"/>
	</g>
	<g>
		<linearGradient id="SVGID_7_" gradientUnits="userSpaceOnUse" x1="195.4131" y1="16.8325" x2="197.6852" y2="43.3404">
			<stop  offset="0" style="stop-color:#F69453"/>
			<stop  offset="0.5" style="stop-color:#F37521"/>
			<stop  offset="1" style="stop-color:#F15A29"/>
		</linearGradient>
		<path fill="url(#SVGID_7_)" d="M195.928,41.598c-3.548,0-6.514-1.092-8.816-3.246c-2.331-2.181-3.513-5.01-3.513-8.41
			c0-3.897,1.269-7.148,3.77-9.662c2.504-2.516,5.742-3.792,9.625-3.792c3.563,0,6.534,1.097,8.83,3.26
			c2.322,2.188,3.5,5.025,3.5,8.436c0,3.884-1.266,7.125-3.761,9.632C203.065,40.325,199.823,41.598,195.928,41.598z M194.82,23.996
			c-0.126,0.249-0.258,0.573-0.387,0.994c-0.277,0.907-0.418,1.89-0.418,2.921c0,1.657,0.413,3.062,1.264,4.295
			c0.621,0.9,1.35,1.529,2.211,1.904c0.274-0.38,0.518-0.83,0.729-1.346c0.351-0.862,0.529-1.721,0.529-2.549
			c0-1.596-0.45-2.972-1.377-4.208C196.666,25.067,195.826,24.403,194.82,23.996z"/>
		<path fill="#FFFFFF" d="M196.993,17.988c3.183,0,5.783,0.95,7.802,2.852s3.028,4.349,3.028,7.344c0,3.489-1.108,6.348-3.324,8.574
			s-5.073,3.34-8.571,3.34c-3.169,0-5.767-0.947-7.792-2.842s-3.037-4.333-3.037-7.314c0-3.503,1.11-6.37,3.333-8.604
			S193.508,17.988,196.993,17.988 M197.96,35.84c0.671-0.625,1.22-1.462,1.647-2.51c0.427-1.048,0.641-2.087,0.641-3.115
			c0-1.914-0.559-3.616-1.677-5.107s-2.558-2.444-4.32-2.861c-0.513,0.481-0.93,1.25-1.252,2.305s-0.483,2.175-0.483,3.359
			c0,1.953,0.51,3.669,1.528,5.146C195.063,34.534,196.368,35.462,197.96,35.84 M196.993,14.988c-4.297,0-7.893,1.424-10.688,4.233
			c-2.792,2.805-4.207,6.412-4.207,10.72c0,3.832,1.342,7.03,3.987,9.506c2.59,2.422,5.901,3.65,9.842,3.65
			c4.31,0,7.908-1.421,10.697-4.224c2.786-2.799,4.198-6.396,4.198-10.69c0-3.84-1.336-7.045-3.972-9.527
			C204.269,16.222,200.951,14.988,196.993,14.988L196.993,14.988z M196.943,31.896c-0.148-0.162-0.292-0.343-0.43-0.544
			c-0.672-0.973-0.998-2.1-0.998-3.442c0-0.553,0.047-1.088,0.139-1.599c0.181,0.178,0.353,0.376,0.517,0.596
			c0.725,0.966,1.077,2.048,1.077,3.308C197.248,30.764,197.148,31.316,196.943,31.896L196.943,31.896z"/>
	</g>
	<g>
		<linearGradient id="SVGID_8_" gradientUnits="userSpaceOnUse" x1="228.6836" y1="13.7329" x2="230.9336" y2="39.9827">
			<stop  offset="0" style="stop-color:#F69453"/>
			<stop  offset="0.5" style="stop-color:#F37521"/>
			<stop  offset="1" style="stop-color:#F15A29"/>
		</linearGradient>
		<path fill="url(#SVGID_8_)" d="M238.118,41.148c-0.503,0-0.974-0.253-1.251-0.673c-0.025-0.038-0.049-0.077-0.07-0.117
			c-0.021,0.04-0.045,0.079-0.07,0.117c-0.277,0.42-0.748,0.673-1.251,0.673h-9.469c-0.503,0-0.973-0.252-1.251-0.672
			c-0.025-0.039-0.049-0.078-0.07-0.119c-0.022,0.041-0.046,0.08-0.071,0.118c-0.277,0.42-0.748,0.673-1.251,0.673h-9.469
			c-0.503,0-0.973-0.252-1.251-0.672c-0.277-0.419-0.326-0.95-0.13-1.413c0.332-0.785,0.571-1.609,0.709-2.451
			c0.13-0.865,0.197-2.013,0.197-3.39v-8.359c0-1.375-0.07-2.52-0.208-3.4c-0.132-0.837-0.366-1.658-0.698-2.44
			c-0.196-0.463-0.147-0.994,0.13-1.414c0.278-0.419,0.748-0.672,1.251-0.672h8.442c0.828,0,1.5,0.671,1.5,1.5v0.126l1.4-1.359
			c0.146-0.142,0.321-0.253,0.512-0.325c0.683-0.26,1.459-0.391,2.309-0.391c2.464,0,4.419,0.698,5.81,2.074
			c0.348,0.344,0.652,0.725,0.912,1.139l2.57-2.497c0.146-0.142,0.32-0.253,0.511-0.326c0.682-0.259,1.459-0.391,2.31-0.391
			c2.465,0,4.416,0.695,5.8,2.065c1.388,1.373,2.092,3.313,2.092,5.763v8.906c0,1.376,0.07,2.52,0.208,3.4
			c0.132,0.836,0.366,1.657,0.698,2.44c0.196,0.463,0.147,0.994-0.13,1.413c-0.278,0.42-0.748,0.672-1.251,0.672H238.118z
			 M223.837,33.223c0,1.371,0.07,2.516,0.209,3.4c0.123,0.786,0.338,1.559,0.639,2.298c0.301-0.74,0.516-1.513,0.64-2.298
			c0.138-0.886,0.208-2.03,0.208-3.4v-6.465c0-0.642-0.11-1.14-0.312-1.402c-0.06-0.078-0.171-0.223-0.615-0.223
			c-0.276,0-0.531,0.033-0.769,0.101V33.223z M235.949,33.223c0,1.37,0.07,2.515,0.209,3.401c0.123,0.785,0.338,1.558,0.639,2.296
			c0.301-0.738,0.516-1.511,0.64-2.297c0.138-0.886,0.208-2.03,0.208-3.4v-6.465c0-0.642-0.11-1.14-0.312-1.402
			c-0.06-0.077-0.172-0.223-0.615-0.223c-0.276,0-0.531,0.033-0.769,0.101V33.223z"/>
		<path fill="#FFFFFF" d="M240.17,17.988c2.064,0,3.646,0.544,4.744,1.631c1.099,1.087,1.647,2.653,1.647,4.697v8.906
			c0,1.458,0.075,2.669,0.227,3.633s0.418,1.895,0.799,2.793h-4.734h-4.734c0.382-0.898,0.648-1.829,0.8-2.793
			c0.15-0.964,0.227-2.175,0.227-3.633v-6.465c0-1.003-0.207-1.774-0.621-2.314c-0.415-0.54-1.017-0.811-1.806-0.811
			c-0.854,0-1.611,0.222-2.269,0.664v8.926c0,1.458,0.076,2.669,0.227,3.633c0.151,0.964,0.418,1.895,0.8,2.793h-4.734h-4.734
			c0.381-0.898,0.647-1.829,0.799-2.793c0.15-0.964,0.227-2.175,0.227-3.633v-6.465c0-1.003-0.207-1.774-0.621-2.314
			s-1.017-0.811-1.806-0.811c-0.854,0-1.61,0.222-2.269,0.664v8.926c0,1.458,0.076,2.669,0.228,3.633
			c0.15,0.964,0.417,1.895,0.799,2.793h-4.734h-4.734c0.381-0.898,0.65-1.829,0.809-2.793c0.145-0.964,0.217-2.175,0.217-3.633
			v-8.359c0-1.458-0.075-2.669-0.227-3.633s-0.418-1.895-0.799-2.793h4.222h4.221v3.672l3.945-3.828
			c0.514-0.195,1.105-0.293,1.775-0.293c2.064,0,3.649,0.547,4.755,1.641c0.71,0.703,1.184,1.602,1.42,2.695l4.162-4.043
			C238.907,18.086,239.499,17.988,240.17,17.988 M240.17,14.988c-1.034,0-1.991,0.165-2.844,0.489
			c-0.381,0.146-0.729,0.367-1.021,0.652l-1.395,1.354c-1.683-1.656-3.987-2.496-6.853-2.496c-1.032,0-1.988,0.165-2.842,0.489
			c-0.37,0.141-0.708,0.353-0.995,0.625c-0.516-0.416-1.171-0.665-1.884-0.665h-4.221h-4.222c-1.006,0-1.945,0.504-2.501,1.344
			c-0.556,0.839-0.654,1.9-0.261,2.827c0.283,0.67,0.484,1.372,0.597,2.087c0.126,0.804,0.19,1.87,0.19,3.167v8.359
			c0,1.303-0.062,2.375-0.184,3.188c-0.112,0.684-0.317,1.393-0.604,2.067c-0.394,0.927-0.295,1.988,0.261,2.827
			s1.495,1.344,2.501,1.344h4.734h4.734c0.466,0,0.916-0.107,1.322-0.307c0.405,0.199,0.855,0.307,1.321,0.307h4.734h4.734
			c0.465,0,0.916-0.107,1.321-0.307c0.405,0.199,0.856,0.307,1.321,0.307h4.734h4.734c1.007,0,1.945-0.505,2.501-1.344
			s0.654-1.9,0.261-2.827c-0.283-0.67-0.484-1.372-0.597-2.088c-0.126-0.804-0.19-1.869-0.19-3.167v-8.906
			c0-2.866-0.854-5.164-2.537-6.83C245.351,15.829,243.044,14.988,240.17,14.988L240.17,14.988z"/>
	</g>
	<g>
		<linearGradient id="SVGID_9_" gradientUnits="userSpaceOnUse" x1="262.4023" y1="10.52" x2="264.6117" y2="36.2961">
			<stop  offset="0" style="stop-color:#F69453"/>
			<stop  offset="0.5" style="stop-color:#F37521"/>
			<stop  offset="1" style="stop-color:#F15A29"/>
		</linearGradient>
		<path fill="url(#SVGID_9_)" d="M253.757,47.867c-0.501,0-0.969-0.25-1.247-0.667c-0.278-0.416-0.33-0.944-0.139-1.407
			c0.378-0.913,0.65-1.81,0.808-2.667c0.161-0.869,0.242-1.941,0.242-3.185V24.863c0-1.372-0.07-2.516-0.209-3.4
			c-0.132-0.84-0.367-1.661-0.698-2.439c-0.196-0.463-0.147-0.995,0.13-1.415s0.748-0.672,1.251-0.672h8.443
			c0.54,0,1.013,0.285,1.277,0.713l0.368-0.427c0.206-0.239,0.482-0.407,0.789-0.479c0.714-0.169,1.461-0.255,2.221-0.255
			c3.004,0,5.488,1.197,7.384,3.559c1.815,2.262,2.736,5.17,2.736,8.644c0,3.699-1.044,6.791-3.103,9.189
			c-2.118,2.467-4.877,3.717-8.201,3.717c-0.662,0-1.302-0.06-1.918-0.179c0.043,0.552,0.111,1.064,0.204,1.531
			c0.169,0.859,0.475,1.812,0.906,2.833c0.195,0.463,0.146,0.993-0.132,1.413c-0.277,0.419-0.747,0.671-1.25,0.671H253.757z
			 M264.123,33.637c0.433,0,1.04-0.11,1.641-0.97c0.566-0.812,0.854-1.919,0.854-3.292c0-2.063-0.339-3.094-0.624-3.597
			c-0.276-0.49-0.598-0.682-1.14-0.685c-0.365,0.007-0.696,0.112-1.016,0.325v8.206C263.931,33.631,264.026,33.635,264.123,33.637z"
			/>
		<path fill="#FFFFFF" d="M266.993,17.988c2.538,0,4.609,0.999,6.214,2.998s2.406,4.567,2.406,7.705
			c0,3.347-0.914,6.084-2.741,8.213c-1.828,2.129-4.183,3.193-7.063,3.193c-1.275,0-2.434-0.254-3.472-0.762v0.605
			c0,1.237,0.095,2.337,0.286,3.301c0.19,0.964,0.522,2.005,0.996,3.125h-4.932h-4.932c0.421-1.016,0.72-2.005,0.897-2.969
			s0.267-2.116,0.267-3.457V24.863c0-1.458-0.076-2.669-0.228-3.633s-0.417-1.895-0.799-2.793h4.222h4.222v2.988l2.781-3.223
			C265.724,18.06,266.349,17.988,266.993,17.988 M264.094,35.137c1.184,0,2.149-0.537,2.899-1.611s1.124-2.458,1.124-4.15
			c0-1.927-0.272-3.372-0.818-4.336s-1.364-1.445-2.456-1.445c-0.934,0.013-1.769,0.391-2.505,1.133v10.137
			C262.863,35.032,263.449,35.124,264.094,35.137 M266.993,14.988c-0.876,0-1.74,0.1-2.567,0.296
			c-0.328,0.078-0.639,0.21-0.92,0.389c-0.358-0.152-0.754-0.236-1.168-0.236h-4.222h-4.222c-1.007,0-1.946,0.505-2.502,1.345
			s-0.652,1.902-0.259,2.829c0.282,0.666,0.483,1.367,0.596,2.085c0.127,0.808,0.191,1.874,0.191,3.167v15.078
			c0,1.152-0.073,2.133-0.217,2.913c-0.139,0.753-0.381,1.549-0.719,2.364c-0.384,0.926-0.279,1.981,0.277,2.814
			c0.557,0.834,1.492,1.334,2.494,1.334h4.932h4.932c1.006,0,1.944-0.504,2.501-1.343c0.556-0.838,0.654-1.899,0.262-2.825
			c-0.318-0.754-0.559-1.458-0.719-2.103c0.049,0.001,0.097,0.001,0.146,0.001c3.728,0,6.957-1.466,9.339-4.239
			c2.299-2.679,3.465-6.1,3.465-10.167c0-3.824-1.031-7.048-3.066-9.583C273.383,16.413,270.426,14.988,266.993,14.988
			L266.993,14.988z"/>
	</g>
	<g>
		<linearGradient id="SVGID_10_" gradientUnits="userSpaceOnUse" x1="285.0156" y1="9.2065" x2="287.2137" y2="34.8508">
			<stop  offset="0" style="stop-color:#F69453"/>
			<stop  offset="0.5" style="stop-color:#F37521"/>
			<stop  offset="1" style="stop-color:#F15A29"/>
		</linearGradient>
		<path fill="url(#SVGID_10_)" d="M281.488,41.148c-0.503,0-0.973-0.252-1.251-0.672c-0.277-0.419-0.326-0.95-0.13-1.413
			c0.332-0.785,0.571-1.609,0.709-2.451c0.13-0.865,0.197-2.013,0.197-3.39V16.738c0-1.375-0.07-2.52-0.208-3.4
			c-0.132-0.837-0.366-1.658-0.698-2.44c-0.186-0.437-0.153-0.936,0.087-1.345c0.24-0.409,0.659-0.681,1.131-0.732l4.833-0.527
			l4.827-0.546c0.057-0.006,0.113-0.009,0.169-0.009c0.489,0,0.952,0.239,1.234,0.647c0.313,0.455,0.353,1.046,0.101,1.538
			c-0.367,0.716-0.635,1.677-0.796,2.858c-0.175,1.279-0.263,3.116-0.263,5.461v14.98c0,1.371,0.07,2.516,0.209,3.4
			c0.131,0.837,0.365,1.657,0.698,2.438c0.196,0.464,0.147,0.995-0.13,1.414c-0.277,0.42-0.748,0.673-1.251,0.673H281.488z"/>
		<path fill="#FFFFFF" d="M291.154,9.238c-0.447,0.872-0.763,1.985-0.947,3.34s-0.276,3.242-0.276,5.664v14.98
			c0,1.458,0.076,2.669,0.228,3.633c0.15,0.964,0.417,1.895,0.799,2.793h-4.734h-4.734c0.381-0.898,0.65-1.829,0.809-2.793
			c0.145-0.964,0.217-2.175,0.217-3.633V16.738c0-1.458-0.075-2.669-0.227-3.633s-0.418-1.895-0.799-2.793l4.833-0.527
			L291.154,9.238 M291.155,6.238c-0.112,0-0.226,0.006-0.338,0.019l-4.833,0.547l-4.821,0.526c-0.943,0.103-1.782,0.646-2.263,1.464
			c-0.479,0.818-0.545,1.815-0.174,2.689c0.283,0.67,0.484,1.372,0.597,2.087c0.126,0.804,0.19,1.87,0.19,3.167v16.484
			c0,1.303-0.062,2.375-0.184,3.188c-0.112,0.684-0.317,1.393-0.604,2.067c-0.394,0.927-0.295,1.988,0.261,2.827
			s1.495,1.344,2.501,1.344h4.734h4.734c1.007,0,1.946-0.505,2.502-1.345s0.652-1.902,0.259-2.829
			c-0.284-0.668-0.484-1.368-0.596-2.082c-0.127-0.811-0.191-1.876-0.191-3.17v-14.98c0-2.278,0.084-4.047,0.249-5.259
			c0.172-1.261,0.445-1.988,0.644-2.376c0.505-0.984,0.428-2.166-0.201-3.075C293.059,6.717,292.133,6.238,291.155,6.238
			L291.155,6.238z"/>
	</g>
	<g>
		<linearGradient id="SVGID_11_" gradientUnits="userSpaceOnUse" x1="303.918" y1="6.271" x2="306.1868" y2="32.7414">
			<stop  offset="0" style="stop-color:#F69453"/>
			<stop  offset="0.5" style="stop-color:#F37521"/>
			<stop  offset="1" style="stop-color:#F15A29"/>
		</linearGradient>
		<path fill="url(#SVGID_11_)" d="M308.121,41.598c-4.019,0-7.263-1.128-9.646-3.354c-2.41-2.251-3.632-5.34-3.632-9.182
			c0-3.625,1.073-6.647,3.189-8.985c2.136-2.36,4.902-3.567,8.224-3.588c0.01,0,0.052,0,0.057,0c3.247,0.007,5.84,1.061,7.713,3.13
			c1.841,2.034,2.774,4.837,2.774,8.331c0,0.944-0.092,1.862-0.271,2.728c-0.146,0.696-0.758,1.194-1.469,1.194h-9.094
			c0.086,0.14,0.178,0.272,0.274,0.398c0.761,0.969,1.896,1.445,3.461,1.445c0.79,0,1.616-0.134,2.456-0.397
			c0.843-0.266,1.611-0.638,2.284-1.105c0.258-0.18,0.558-0.269,0.856-0.269c0.335,0,0.669,0.112,0.943,0.334
			c0.519,0.419,0.698,1.131,0.44,1.746l-2.602,6.205c-0.203,0.482-0.643,0.825-1.16,0.903c-1.221,0.185-2.147,0.309-2.755,0.37
			C309.539,41.565,308.852,41.598,308.121,41.598z M307.299,24.75c-0.057-0.264-0.144-0.468-0.262-0.609
			c-0.074-0.09-0.229-0.277-0.766-0.277c-0.327,0-0.564,0.083-0.811,0.505c-0.056,0.095-0.116,0.219-0.176,0.381H307.299z"/>
		<path fill="#FFFFFF" d="M306.346,17.988c-0.01,0-0.02,0-0.029,0s-0.021,0-0.03,0H306.346 M306.316,17.988
			c2.813,0.006,5.013,0.885,6.598,2.637c1.591,1.758,2.387,4.199,2.387,7.324c0,0.847-0.08,1.653-0.24,2.422h-11.29
			c0.263,1.106,0.69,2.044,1.281,2.813c1.064,1.354,2.614,2.031,4.65,2.031c0.945,0,1.915-0.155,2.906-0.467
			c0.992-0.313,1.889-0.747,2.69-1.305l-2.602,6.205c-1.21,0.183-2.104,0.303-2.683,0.361c-0.579,0.059-1.21,0.088-1.894,0.088
			c-3.644,0-6.517-0.983-8.621-2.949s-3.156-4.661-3.156-8.086c0-3.255,0.934-5.915,2.802-7.979
			C301.007,19.027,303.396,17.995,306.316,17.988 M303.495,26.25h5.396l-0.02-0.723c0-1.016-0.227-1.797-0.68-2.344
			s-1.093-0.82-1.921-0.82c-0.919,0-1.621,0.417-2.106,1.25C303.797,24.238,303.573,25.117,303.495,26.25 M306.346,14.988h-0.06
			c-0.016,0-0.031,0-0.047,0c-3.755,0.025-6.89,1.399-9.318,4.083c-2.373,2.622-3.577,5.983-3.577,9.991
			c0,4.273,1.382,7.731,4.108,10.278c2.669,2.493,6.259,3.757,10.669,3.757c0.78,0,1.52-0.035,2.195-0.104
			c0.641-0.064,1.566-0.188,2.828-0.379c1.036-0.156,1.915-0.842,2.319-1.807l2.602-6.205c0.408-0.973,0.27-2.065-0.319-2.896
			c0.112-0.226,0.198-0.469,0.251-0.725c0.202-0.966,0.304-1.987,0.304-3.034c0-3.877-1.064-7.019-3.162-9.337
			c-2.156-2.381-5.099-3.601-8.748-3.623C306.375,14.988,306.36,14.988,306.346,14.988L306.346,14.988z"/>
	</g>
	<g>
		<linearGradient id="SVGID_12_" gradientUnits="userSpaceOnUse" x1="326.1484" y1="4.7915" x2="328.3771" y2="30.7933">
			<stop  offset="0" style="stop-color:#F69453"/>
			<stop  offset="0.5" style="stop-color:#F37521"/>
			<stop  offset="1" style="stop-color:#F15A29"/>
		</linearGradient>
		<path fill="url(#SVGID_12_)" d="M329.559,41.598c-2.765,0-4.861-0.75-6.229-2.229c-1.338-1.445-2.017-3.651-2.017-6.556v-8.461
			h-1.381c-0.828,0-1.5-0.671-1.5-1.5c0-0.431,0.186-0.871,0.509-1.155l10.288-9.053c0.274-0.241,0.626-0.374,0.991-0.374
			c0.828,0,1.51,0.671,1.51,1.5v3.168h3.353c0.828,0,1.5,0.671,1.5,1.5v4.414c0,0.829-0.672,1.5-1.5,1.5h-3.353v7.758
			c0,0.536,0.119,0.685,0.12,0.687c0.002,0.001,0.19,0.157,0.904,0.157c0.471,0,0.886-0.063,1.233-0.187
			c0.268-0.096,0.736-0.312,1.449-0.801c0.257-0.176,0.553-0.263,0.849-0.263c0.32,0,0.641,0.103,0.908,0.306
			c0.515,0.392,0.721,1.069,0.511,1.681l-2.11,6.152c-0.157,0.457-0.523,0.811-0.986,0.95c-0.967,0.291-1.831,0.5-2.568,0.62
			C331.283,41.535,330.448,41.598,329.559,41.598z"/>
		<path fill="#FFFFFF" d="M330.229,13.77v4.668h4.853v4.414h-4.853v9.258c0,0.82,0.2,1.416,0.602,1.787s1.042,0.557,1.923,0.557
			c0.645,0,1.224-0.091,1.736-0.273s1.111-0.508,1.795-0.977l-2.11,6.152c-0.907,0.273-1.7,0.466-2.377,0.576
			c-0.678,0.11-1.424,0.166-2.239,0.166c-2.341,0-4.051-0.583-5.129-1.748s-1.617-3.011-1.617-5.537v-9.961h-2.881v-0.029
			l10.288-9.053H330.229 M330.229,10.77h-0.01c-0.729,0-1.435,0.266-1.981,0.748L317.95,20.57c-0.647,0.57-1.019,1.39-1.019,2.252
			c0,1.617,1.279,2.963,2.881,3.027v6.963c0,3.294,0.813,5.843,2.415,7.574c1.665,1.799,4.131,2.711,7.331,2.711
			c0.971,0,1.886-0.069,2.722-0.205c0.813-0.133,1.716-0.35,2.761-0.665c0.924-0.278,1.658-0.985,1.972-1.898l2.11-6.152
			c0.42-1.224,0.008-2.579-1.022-3.361c-0.535-0.407-1.175-0.612-1.815-0.612c-0.592,0-1.185,0.175-1.696,0.525
			c-0.633,0.435-0.983,0.582-1.105,0.625c-0.073,0.026-0.159,0.048-0.254,0.063v-5.565h1.853c1.657,0,3-1.343,3-3v-4.414
			c0-1.657-1.343-3-3-3h-1.853V13.77C333.229,12.113,331.887,10.77,330.229,10.77L330.229,10.77z"/>
	</g>
	<g>
		<linearGradient id="SVGID_13_" gradientUnits="userSpaceOnUse" x1="350.7715" y1="1.709" x2="353.0406" y2="28.1815">
			<stop  offset="0" style="stop-color:#F69453"/>
			<stop  offset="0.5" style="stop-color:#F37521"/>
			<stop  offset="1" style="stop-color:#F15A29"/>
		</linearGradient>
		<path fill="url(#SVGID_13_)" d="M355.364,41.598c-4.019,0-7.263-1.128-9.646-3.354c-2.41-2.251-3.632-5.34-3.632-9.182
			c0-3.625,1.073-6.647,3.189-8.985c2.136-2.36,4.902-3.567,8.224-3.588c0.01,0,0.052,0,0.057,0c3.247,0.007,5.84,1.061,7.713,3.13
			c1.841,2.034,2.774,4.837,2.774,8.331c0,0.944-0.092,1.862-0.271,2.728c-0.146,0.696-0.758,1.194-1.469,1.194h-9.094
			c0.086,0.14,0.178,0.272,0.274,0.398c0.761,0.969,1.896,1.445,3.461,1.445c0.79,0,1.616-0.134,2.456-0.397
			c0.843-0.266,1.611-0.638,2.284-1.105c0.258-0.18,0.558-0.269,0.856-0.269c0.335,0,0.669,0.112,0.943,0.334
			c0.519,0.419,0.698,1.131,0.44,1.746l-2.602,6.205c-0.203,0.482-0.643,0.825-1.16,0.903c-1.221,0.185-2.147,0.309-2.755,0.37
			C356.782,41.565,356.095,41.598,355.364,41.598z M354.542,24.75c-0.057-0.264-0.144-0.468-0.262-0.609
			c-0.074-0.09-0.229-0.277-0.766-0.277c-0.327,0-0.564,0.083-0.811,0.505c-0.056,0.095-0.116,0.219-0.176,0.381H354.542z"/>
		<path fill="#FFFFFF" d="M353.589,17.988c-0.01,0-0.02,0-0.029,0s-0.021,0-0.03,0H353.589 M353.56,17.988
			c2.813,0.006,5.013,0.885,6.598,2.637c1.591,1.758,2.387,4.199,2.387,7.324c0,0.847-0.08,1.653-0.24,2.422h-11.29
			c0.263,1.106,0.69,2.044,1.281,2.813c1.064,1.354,2.614,2.031,4.65,2.031c0.945,0,1.915-0.155,2.906-0.467
			c0.992-0.313,1.889-0.747,2.69-1.305l-2.602,6.205c-1.21,0.183-2.104,0.303-2.683,0.361c-0.579,0.059-1.21,0.088-1.894,0.088
			c-3.644,0-6.517-0.983-8.621-2.949s-3.156-4.661-3.156-8.086c0-3.255,0.934-5.915,2.802-7.979
			C348.25,19.027,350.64,17.995,353.56,17.988 M350.738,26.25h5.396l-0.02-0.723c0-1.016-0.227-1.797-0.68-2.344
			s-1.093-0.82-1.921-0.82c-0.919,0-1.621,0.417-2.106,1.25C351.04,24.238,350.816,25.117,350.738,26.25 M353.589,14.988h-0.06
			c-0.016,0-0.031,0-0.047,0c-3.755,0.025-6.89,1.399-9.318,4.083c-2.373,2.622-3.577,5.983-3.577,9.991
			c0,4.273,1.382,7.731,4.108,10.278c2.669,2.493,6.258,3.757,10.669,3.757c0.78,0,1.52-0.035,2.195-0.104
			c0.642-0.064,1.566-0.188,2.828-0.379c1.036-0.156,1.915-0.842,2.319-1.807l2.602-6.205c0.408-0.973,0.27-2.065-0.319-2.896
			c0.112-0.226,0.198-0.469,0.251-0.725c0.201-0.966,0.304-1.987,0.304-3.034c0-3.877-1.063-7.019-3.162-9.337
			c-2.155-2.381-5.099-3.601-8.748-3.623C353.618,14.988,353.604,14.988,353.589,14.988L353.589,14.988z"/>
	</g>
</g>
</svg>
