<?xml version="1.0" encoding="utf-8"?>
<!-- Generator: Adobe Illustrator 16.0.0, SVG Export Plug-In . SVG Version: 6.00 Build 0)  -->
<!DOCTYPE svg PUBLIC "-//W3C//DTD SVG 1.1//EN" "http://www.w3.org/Graphics/SVG/1.1/DTD/svg11.dtd">
<svg version="1.1" id="Layer_1" xmlns="http://www.w3.org/2000/svg" xmlns:xlink="http://www.w3.org/1999/xlink" x="0px" y="0px"
	 width="190px" height="182px" viewBox="0 0 190 182" enable-background="new 0 0 190 182" xml:space="preserve">
<g display="none">
	<g display="inline" opacity="0.2">
		<path d="M212.797,46.76L184.28,16.908c-5.925-6.198-13.275-8.466-17.271-5.312l-77.12,75.482
			c-8.887,8.704-23.305,8.01-31.313-1.499L26.529,47.546c-4.324-4.188-14.126-1.582-21.221,5.641L-23.62,82.636
			c-6.007,6.117-8.037,13.541-4.754,17.427L52.367,200.47c3.666,4.352,12.599,2.752,19.895-3.557L217.761,68.154
			C222.076,63.967,219.781,54.083,212.797,46.76z"/>
	</g>
	<g display="inline">
		<path fill="#FFFFFF" d="M212.797,10.188L184.28-19.663c-5.925-6.199-13.275-8.467-17.271-5.313l-77.12,75.483
			c-8.887,8.704-23.305,8.01-31.313-1.499L26.529,10.975c-4.324-4.188-14.126-1.582-21.221,5.642L-23.62,46.064
			c-6.007,6.117-8.037,13.541-4.754,17.427l80.741,100.406c3.666,4.353,12.599,2.752,19.895-3.557L217.761,31.583
			C222.076,27.396,219.781,17.512,212.797,10.188z"/>
	</g>
</g>
<g display="none">
	<g display="inline" opacity="0.2">
		<path d="M125.42,190.457l-34.167-34.166l-32.695,32.695c-7.762,7.762-20.343,7.762-28.104,0L8.949,167.482
			c-7.763-7.764-7.763-20.344,0-28.105l32.694-32.695L8.949,73.987c-7.763-7.763-7.763-20.343,0-28.105l20.681-20.681
			c8.073-8.073,21.275-7.698,28.883,0.822l30.089,33.71l37.651-37.65c6.801-6.802,17.508-7.753,25.408-2.258l25.361,17.646
			c10.158,7.067,11.455,21.613,2.697,30.363l-44.324,44.325l34.432,38.582c7.588,8.504,6.492,21.623-2.404,28.746l-15.533,12.434
			C143.988,198.256,132.588,197.625,125.42,190.457z"/>
	</g>
	<g display="inline">
		<path fill="#FFFFFF" d="M125.42,153.887l-34.167-34.168l-32.695,32.695c-7.762,7.762-20.343,7.762-28.104,0L8.949,130.91
			c-7.763-7.762-7.763-20.344,0-28.105L41.643,70.11L8.949,37.416c-7.763-7.763-7.763-20.343,0-28.105l20.681-20.681
			c8.073-8.073,21.275-7.698,28.883,0.822l30.089,33.71l37.651-37.65c6.801-6.802,17.508-7.753,25.408-2.258l25.361,17.646
			c10.158,7.067,11.455,21.613,2.697,30.363l-44.324,44.324l34.432,38.583c7.588,8.502,6.492,21.623-2.404,28.744l-15.533,12.436
			C143.988,161.686,132.588,161.055,125.42,153.887z"/>
	</g>
</g>
<g display="none">
	<g display="inline" opacity="0.2">
		<path d="M170.552,11.664L159.7,23.212C81.768-43.547-28.688,42.658,14.311,133.346c36.758,77.53,107.828,54.942,139.255,31.897
			c4.349-3.19,6.456-8.497,3.71-13.142l-3.559-6.021c-4.523-7.661-14.415-9.981-22.015-5.353
			c-13.485,8.214-35.605,18.638-54.292,8.865C0.453,109.341,69.412-5.564,134.006,50.396l-6.742,6.53
			c-4.505,4.361-2.82,12.296,3.053,14.093c10.016,3.064,24.898,4.284,36.773,4.753c10.775,0.425,19.772-8.541,20.07-19.903
			c0.38-14.381-0.012-32.706-3.754-41.686C181.152,8.797,174.483,7.476,170.552,11.664z"/>
	</g>
	<g display="inline">
		<path fill="#FFFFFF" d="M170.552-3.829L159.7,7.72C81.768-59.039-28.688,27.167,14.311,117.853
			c36.758,77.53,107.828,54.942,139.255,31.898c4.349-3.189,6.456-8.497,3.71-13.141l-3.559-6.022
			c-4.523-7.66-14.415-9.981-22.015-5.354c-13.485,8.215-35.605,18.638-54.292,8.867C0.453,93.849,69.412-21.057,134.006,34.905
			l-6.742,6.53c-4.505,4.36-2.82,12.296,3.053,14.093c10.016,3.064,24.898,4.284,36.773,4.753
			c10.775,0.426,19.772-8.541,20.07-19.903c0.38-14.381-0.012-32.705-3.754-41.686C181.152-6.695,174.483-8.016,170.552-3.829z"/>
	</g>
</g>
<g>
	<g opacity="0.2">
		<path d="M180.805,87.725l-64.394-54.704C104.22,22.664,86.5,32.195,86.5,49.114V70.78l-63.334,8.674
			c-12.179,1.671-21.25,12.072-21.25,24.364l0,0c0,12.292,9.077,22.693,21.25,24.364l63.334,8.674v21.666
			c0,16.919,17.72,26.45,29.911,16.094l64.394-54.704C190.398,111.761,190.398,95.876,180.805,87.725z"/>
	</g>
	<g>
		<path fill="#FFFFFF" d="M180.805,62.51L116.411,7.806C104.22-2.551,86.5,6.98,86.5,23.899v21.666l-63.334,8.674
			C10.987,55.91,1.916,66.311,1.916,78.604l0,0c0,12.292,9.077,22.693,21.25,24.363l63.334,8.674v21.667
			c0,16.919,17.72,26.451,29.911,16.094l64.394-54.704C190.398,86.546,190.398,70.66,180.805,62.51z"/>
	</g>
</g>
</svg>
