<?xml version="1.0" encoding="utf-8"?>
<!-- Generator: Adobe Illustrator 16.0.0, SVG Export Plug-In . SVG Version: 6.00 Build 0)  -->
<!DOCTYPE svg PUBLIC "-//W3C//DTD SVG 1.1//EN" "http://www.w3.org/Graphics/SVG/1.1/DTD/svg11.dtd">
<svg version="1.1" id="Layer_1" xmlns="http://www.w3.org/2000/svg" xmlns:xlink="http://www.w3.org/1999/xlink" x="0px" y="0px"
	 width="243.333px" height="55px" viewBox="0 0 243.333 55" enable-background="new 0 0 243.333 55" xml:space="preserve">
<g>
	<g>
		<linearGradient id="SVGID_1_" gradientUnits="userSpaceOnUse" x1="23.0981" y1="1.7251" x2="23.0981" y2="42.2808">
			<stop  offset="0" style="stop-color:#2BC4F3"/>
			<stop  offset="0.5" style="stop-color:#00AEEE"/>
			<stop  offset="1" style="stop-color:#0095DA"/>
		</linearGradient>
		<path fill="url(#SVGID_1_)" d="M17.123,46.522c-0.503,0-0.973-0.252-1.25-0.672c-0.278-0.419-0.327-0.95-0.131-1.413
			c0.479-1.13,0.819-2.217,1.013-3.23c0.18-1.016,0.273-2.262,0.273-3.686V17.194c-1.256,0.058-2.361,0.135-3.298,0.23
			c-2.218,0.24-4.039,0.649-5.403,1.216c-0.186,0.077-0.381,0.114-0.574,0.114c-0.371,0-0.737-0.138-1.02-0.399
			c-0.43-0.397-0.589-1.01-0.407-1.566l1.29-3.944L8.903,8.88C9.104,8.262,9.68,7.844,10.33,7.844h28.115
			c0.468,0,0.91,0.219,1.194,0.592s0.377,0.856,0.252,1.308l-2.118,7.66c-0.114,0.413-0.399,0.757-0.783,0.946
			c-0.208,0.103-0.436,0.154-0.663,0.154c-0.191,0-0.383-0.036-0.564-0.11c-0.561-0.228-1.774-0.568-4.372-0.905
			c-0.623-0.087-1.242-0.157-1.854-0.21v20.243c0,1.422,0.096,2.665,0.286,3.694c0.187,1.014,0.523,2.097,1,3.221
			c0.197,0.463,0.147,0.994-0.13,1.414c-0.278,0.42-0.748,0.672-1.251,0.672H17.123z"/>
		<path fill="#FFFFFF" d="M38.445,9.344h0.005 M38.445,9.344l-1.059,3.83l-1.059,3.83c-0.937-0.38-2.518-0.715-4.744-1.003
			c-1.197-0.168-2.379-0.274-3.546-0.319v21.84c0,1.52,0.104,2.842,0.311,3.967c0.207,1.125,0.571,2.303,1.094,3.534h-6.148h-6.171
			c0.521-1.231,0.89-2.409,1.105-3.534c0.2-1.125,0.3-2.447,0.3-3.967V15.636c-1.95,0.061-3.6,0.159-4.951,0.297
			c-2.38,0.258-4.321,0.698-5.826,1.322l1.29-3.944l1.289-3.967h12.941H38.445 M38.45,6.344h-0.005H23.271H10.33
			c-1.3,0-2.452,0.837-2.853,2.073l-1.289,3.967L4.9,16.322c-0.364,1.114-0.046,2.338,0.813,3.134
			c0.565,0.523,1.296,0.799,2.039,0.799c0.387,0,0.778-0.075,1.149-0.229c1.232-0.512,2.915-0.886,5-1.111
			c0.491-0.05,1.035-0.095,1.627-0.135v18.741c0,1.336-0.085,2.494-0.253,3.442c-0.167,0.871-0.477,1.856-0.914,2.889
			c-0.392,0.927-0.294,1.988,0.262,2.827s1.495,1.343,2.501,1.343h6.171h6.148c1.006,0,1.946-0.505,2.501-1.344
			c0.556-0.84,0.653-1.901,0.26-2.828c-0.434-1.022-0.738-2-0.905-2.905c-0.174-0.941-0.262-2.093-0.262-3.424V18.954
			c0.043,0.006,0.086,0.012,0.129,0.018c2.6,0.337,3.641,0.653,4.033,0.813c0.362,0.146,0.745,0.22,1.127,0.22
			c0.455,0,0.909-0.104,1.326-0.309c0.768-0.379,1.337-1.067,1.565-1.892l1.059-3.83l1.023-3.702
			c0.095-0.292,0.146-0.604,0.146-0.928C41.447,7.687,40.107,6.344,38.45,6.344L38.45,6.344z"/>
	</g>
	<g>
		<linearGradient id="SVGID_2_" gradientUnits="userSpaceOnUse" x1="49.5747" y1="1.8779" x2="49.5747" y2="42.2954">
			<stop  offset="0" style="stop-color:#2BC4F3"/>
			<stop  offset="0.5" style="stop-color:#00AEEE"/>
			<stop  offset="1" style="stop-color:#0095DA"/>
		</linearGradient>
		<path fill="url(#SVGID_2_)" d="M43.934,46.522c-0.503,0-0.973-0.252-1.251-0.672s-0.327-0.951-0.13-1.414
			c0.397-0.935,0.681-1.916,0.845-2.917c0.154-1.023,0.233-2.375,0.233-3.998v-9.757c0-1.616-0.083-2.965-0.247-4.009
			c-0.157-0.999-0.437-1.977-0.832-2.906c-0.197-0.463-0.148-0.994,0.13-1.414s0.748-0.672,1.251-0.672h2.735
			c-0.671-0.313-1.287-0.746-1.845-1.299c-1.281-1.268-1.93-2.842-1.93-4.679s0.649-3.411,1.93-4.679
			c1.276-1.265,2.859-1.905,4.705-1.905c1.845,0,3.428,0.641,4.705,1.905c1.281,1.268,1.93,2.842,1.93,4.679
			s-0.649,3.411-1.93,4.679c-0.558,0.553-1.174,0.986-1.845,1.299h2.827c0.522,0,1.007,0.271,1.28,0.718s0.293,1.001,0.055,1.467
			c-0.442,0.863-0.763,2.012-0.954,3.415c-0.205,1.505-0.309,3.661-0.309,6.41v6.748c0,1.619,0.083,2.968,0.247,4.007
			c0.156,0.999,0.436,1.977,0.832,2.908c0.197,0.463,0.148,0.994-0.13,1.414s-0.748,0.672-1.251,0.672H43.934z"/>
		<path fill="#FFFFFF" d="M49.529,7.702c1.442,0,2.659,0.49,3.649,1.471s1.485,2.185,1.485,3.613s-0.495,2.633-1.485,3.613
			s-2.207,1.471-3.649,1.471c-1.443,0-2.66-0.49-3.65-1.471s-1.485-2.185-1.485-3.613s0.495-2.633,1.485-3.613
			S48.086,7.702,49.529,7.702 M55.216,20.264c-0.522,1.019-0.891,2.317-1.105,3.898c-0.215,1.581-0.322,3.784-0.322,6.611v6.748
			c0,1.702,0.088,3.116,0.265,4.24c0.176,1.125,0.487,2.212,0.933,3.261H49.46h-5.526c0.445-1.049,0.76-2.136,0.944-3.261
			c0.169-1.124,0.253-2.538,0.253-4.24v-9.757c0-1.703-0.088-3.116-0.265-4.241c-0.177-1.124-0.487-2.211-0.933-3.26h5.642H55.216
			 M49.529,4.702c-2.223,0-4.215,0.809-5.761,2.339c-1.553,1.538-2.374,3.524-2.374,5.745c0,1.736,0.502,3.329,1.463,4.677
			c-0.575,0.221-1.077,0.617-1.426,1.146c-0.555,0.839-0.653,1.901-0.259,2.828c0.347,0.816,0.592,1.675,0.73,2.553
			c0.151,0.966,0.228,2.237,0.228,3.775v9.757c0,1.548-0.074,2.825-0.22,3.794c-0.138,0.845-0.389,1.71-0.739,2.534
			c-0.394,0.927-0.296,1.989,0.259,2.828c0.556,0.84,1.495,1.345,2.502,1.345h5.526h5.526c1.007,0,1.946-0.505,2.502-1.345
			c0.555-0.839,0.653-1.901,0.259-2.828c-0.347-0.817-0.593-1.677-0.73-2.553c-0.152-0.964-0.229-2.234-0.229-3.775v-6.748
			c0-2.682,0.099-4.771,0.295-6.206c0.167-1.236,0.438-2.224,0.802-2.936c0.477-0.93,0.435-2.041-0.11-2.933
			c-0.364-0.596-0.917-1.036-1.557-1.263c0.949-1.342,1.445-2.926,1.445-4.65c0-2.221-0.821-4.207-2.375-5.745
			C53.744,5.511,51.752,4.702,49.529,4.702L49.529,4.702z"/>
	</g>
	<g>
		<linearGradient id="SVGID_3_" gradientUnits="userSpaceOnUse" x1="82.3032" y1="0.2954" x2="82.3032" y2="42.1452">
			<stop  offset="0" style="stop-color:#2BC4F3"/>
			<stop  offset="0.5" style="stop-color:#00AEEE"/>
			<stop  offset="1" style="stop-color:#0095DA"/>
		</linearGradient>
		<path fill="url(#SVGID_3_)" d="M90.915,46.522c-0.503,0-0.973-0.252-1.251-0.672s-0.327-0.951-0.13-1.414
			c0.396-0.932,0.675-1.909,0.832-2.907c0.164-1.043,0.247-2.392,0.247-4.008v-7.546c0-0.815-0.144-1.435-0.415-1.788
			c-0.136-0.178-0.352-0.359-0.917-0.359c-0.419,0-0.799,0.061-1.148,0.185v9.509c0,1.619,0.083,2.968,0.247,4.007
			c0.156,0.997,0.436,1.975,0.832,2.908c0.197,0.463,0.148,0.994-0.13,1.414s-0.748,0.672-1.251,0.672H76.777
			c-0.503,0-0.973-0.252-1.251-0.672s-0.327-0.951-0.13-1.414c0.395-0.93,0.675-1.908,0.832-2.907
			c0.164-1.043,0.247-2.392,0.247-4.008v-7.546c0-0.816-0.144-1.435-0.415-1.787c-0.137-0.179-0.353-0.36-0.917-0.36
			c-0.419,0-0.799,0.061-1.148,0.185v9.509c0,1.616,0.083,2.965,0.247,4.008c0.156,0.998,0.436,1.976,0.832,2.907
			c0.197,0.463,0.148,0.994-0.13,1.414s-0.748,0.672-1.251,0.672H62.639c-0.503,0-0.973-0.252-1.251-0.672s-0.327-0.951-0.13-1.414
			c0.396-0.934,0.68-1.915,0.844-2.917c0.154-1.026,0.234-2.378,0.234-3.998v-9.757c0-1.616-0.083-2.965-0.247-4.009
			c-0.157-0.999-0.437-1.977-0.832-2.906c-0.197-0.463-0.148-0.994,0.13-1.414s0.748-0.672,1.251-0.672h9.855
			c0.829,0,1.5,0.672,1.5,1.5v0.74l2.061-1.999c0.146-0.143,0.321-0.254,0.512-0.326c0.768-0.292,1.645-0.439,2.605-0.439
			c2.808,0,5.03,0.79,6.605,2.349c0.465,0.461,0.862,0.979,1.188,1.553l3.227-3.136c0.147-0.143,0.321-0.253,0.513-0.326
			c0.767-0.292,1.644-0.439,2.605-0.439c2.807,0,5.024,0.786,6.592,2.337c1.572,1.557,2.368,3.76,2.368,6.55v10.396
			c0,1.619,0.083,2.968,0.247,4.007c0.156,0.999,0.436,1.977,0.832,2.908c0.197,0.463,0.148,0.994-0.13,1.414
			s-0.748,0.672-1.251,0.672H90.915z"/>
		<path fill="#FFFFFF" d="M93.31,19.739c2.41,0,4.256,0.636,5.538,1.903c1.282,1.27,1.923,3.097,1.923,5.483v10.396
			c0,1.702,0.088,3.116,0.265,4.24c0.176,1.125,0.487,2.212,0.933,3.261h-5.526h-5.526c0.445-1.049,0.756-2.136,0.933-3.261
			c0.176-1.124,0.265-2.538,0.265-4.24v-7.546c0-1.17-0.242-2.071-0.725-2.701s-1.186-0.946-2.106-0.946
			c-0.999,0-1.881,0.258-2.648,0.775v10.418c0,1.702,0.088,3.116,0.265,4.24c0.176,1.125,0.487,2.212,0.933,3.261h-5.526h-5.526
			c0.445-1.049,0.756-2.136,0.933-3.261c0.176-1.124,0.265-2.538,0.265-4.24v-7.546c0-1.17-0.241-2.071-0.725-2.701
			c-0.483-0.63-1.186-0.946-2.107-0.946c-0.998,0-1.88,0.258-2.648,0.775v10.418c0,1.702,0.088,3.116,0.265,4.24
			c0.176,1.125,0.487,2.212,0.933,3.261h-5.526h-5.526c0.445-1.049,0.76-2.136,0.944-3.261c0.169-1.124,0.253-2.538,0.253-4.24
			v-9.757c0-1.703-0.088-3.116-0.265-4.241c-0.177-1.124-0.487-2.211-0.933-3.26h4.928h4.927v4.286l4.605-4.469
			c0.599-0.228,1.29-0.342,2.072-0.342c2.41,0,4.26,0.639,5.55,1.915c0.829,0.821,1.381,1.869,1.658,3.146l4.858-4.72
			C91.836,19.854,92.526,19.739,93.31,19.739 M93.31,16.739c-1.144,0-2.2,0.181-3.138,0.537c-0.382,0.146-0.731,0.368-1.024,0.653
			l-1.99,1.933c-0.105-0.115-0.213-0.229-0.324-0.339c-1.868-1.848-4.445-2.784-7.662-2.784c-1.143,0-2.199,0.181-3.138,0.537
			c-0.382,0.146-0.73,0.367-1.024,0.651l-0.311,0.302c-0.548-0.594-1.333-0.966-2.205-0.966h-4.927h-4.928
			c-1.007,0-1.946,0.505-2.502,1.345c-0.555,0.839-0.653,1.901-0.259,2.828c0.347,0.816,0.592,1.675,0.73,2.553
			c0.151,0.966,0.228,2.237,0.228,3.775v9.757c0,1.546-0.074,2.822-0.22,3.794c-0.139,0.846-0.389,1.712-0.738,2.534
			c-0.394,0.927-0.296,1.989,0.259,2.828c0.556,0.84,1.495,1.345,2.502,1.345h5.526h5.526c0.552,0,1.083-0.151,1.542-0.427
			c0.459,0.275,0.991,0.427,1.543,0.427h5.526h5.526c0.552,0,1.083-0.151,1.542-0.427c0.459,0.275,0.991,0.427,1.542,0.427h5.526
			h5.526c1.007,0,1.946-0.505,2.502-1.345c0.555-0.839,0.653-1.901,0.259-2.828c-0.347-0.817-0.593-1.677-0.73-2.553
			c-0.152-0.964-0.229-2.234-0.229-3.775V27.126c0-3.205-0.946-5.767-2.812-7.615C99.098,17.671,96.525,16.739,93.31,16.739
			L93.31,16.739z"/>
	</g>
	<g>
		<linearGradient id="SVGID_4_" gradientUnits="userSpaceOnUse" x1="119.2007" y1="0.3345" x2="119.2007" y2="42.0942">
			<stop  offset="0" style="stop-color:#2BC4F3"/>
			<stop  offset="0.5" style="stop-color:#00AEEE"/>
			<stop  offset="1" style="stop-color:#0095DA"/>
		</linearGradient>
		<path fill="url(#SVGID_4_)" d="M121.884,47.047c-4.627,0-8.356-1.295-11.088-3.848c-2.76-2.579-4.159-6.123-4.159-10.533
			c0-4.166,1.23-7.639,3.657-10.32c2.445-2.701,5.613-4.083,9.418-4.106c0.01,0,0.057,0,0.062,0c3.715,0.008,6.679,1.21,8.816,3.571
			c2.106,2.327,3.174,5.542,3.174,9.556c0,1.085-0.104,2.139-0.312,3.133c-0.145,0.695-0.758,1.194-1.469,1.194h-11.045
			c0.164,0.313,0.348,0.604,0.551,0.867c0.941,1.198,2.33,1.786,4.239,1.786c0.946,0,1.937-0.16,2.943-0.476
			c1.007-0.316,1.926-0.762,2.731-1.323c0.258-0.18,0.559-0.27,0.857-0.27c0.335,0,0.669,0.111,0.943,0.333
			c0.52,0.419,0.699,1.132,0.44,1.747l-3.036,7.244c-0.203,0.482-0.643,0.825-1.16,0.903c-1.41,0.212-2.486,0.357-3.201,0.431
			C123.522,47.01,122.728,47.047,121.884,47.047z M121.219,27.883c-0.054-0.421-0.171-0.837-0.407-1.122
			c-0.161-0.194-0.428-0.415-1.086-0.415c-0.449,0-0.818,0.121-1.164,0.714c-0.105,0.18-0.225,0.443-0.33,0.823H121.219z"/>
		<path fill="#FFFFFF" d="M119.81,19.739c-0.011,0-0.021,0-0.033,0s-0.023,0-0.035,0H119.81 M119.777,19.739
			c3.283,0.007,5.851,1.033,7.701,3.078c1.857,2.052,2.786,4.901,2.786,8.549c0,0.988-0.094,1.931-0.28,2.827h-13.178
			c0.307,1.292,0.805,2.386,1.495,3.282c1.241,1.581,3.052,2.371,5.428,2.371c1.104,0,2.235-0.182,3.393-0.545
			s2.204-0.871,3.14-1.523l-3.036,7.244c-1.413,0.213-2.456,0.353-3.132,0.422c-0.676,0.068-1.412,0.103-2.209,0.103
			c-4.253,0-7.607-1.147-10.063-3.443c-2.456-2.295-3.684-5.44-3.684-9.438c0-3.8,1.089-6.904,3.27-9.313
			C113.58,20.952,116.369,19.747,119.777,19.739 M116.484,29.383h6.299l-0.023-0.844c0-1.186-0.264-2.097-0.793-2.735
			c-0.527-0.639-1.275-0.958-2.24-0.958c-1.074,0-1.894,0.486-2.461,1.459C116.836,27.035,116.576,28.061,116.484,29.383
			 M119.81,16.739h-0.068c-0.016,0-0.033,0-0.049,0c-4.238,0.028-7.774,1.576-10.511,4.601c-2.684,2.966-4.045,6.776-4.045,11.326
			c0,4.843,1.56,8.756,4.635,11.63c3.018,2.82,7.092,4.251,12.112,4.251c0.894,0,1.738-0.04,2.512-0.118
			c0.742-0.076,1.844-0.224,3.276-0.439c1.035-0.156,1.915-0.841,2.319-1.807l3.037-7.244c0.448-1.071,0.235-2.287-0.512-3.138
			c0.189-0.299,0.328-0.634,0.404-0.996c0.228-1.095,0.343-2.252,0.343-3.438c0-4.397-1.198-7.951-3.562-10.563
			c-2.419-2.672-5.73-4.039-9.846-4.064C119.841,16.739,119.826,16.739,119.81,16.739L119.81,16.739z"/>
	</g>
</g>
<g>
	<g>
		<linearGradient id="SVGID_5_" gradientUnits="userSpaceOnUse" x1="167.3433" y1="15.1348" x2="167.3433" y2="43.5347">
			<stop  offset="0" style="stop-color:#F69453"/>
			<stop  offset="0.5" style="stop-color:#F37521"/>
			<stop  offset="1" style="stop-color:#F15A29"/>
		</linearGradient>
		<path fill="url(#SVGID_5_)" d="M166.722,49.245c-4.075,0-7.48-1.252-10.12-3.722c-2.669-2.495-4.021-5.736-4.021-9.634
			c0-4.479,1.456-8.214,4.328-11.1c2.874-2.889,6.594-4.353,11.057-4.353c4.092,0,7.502,1.257,10.136,3.737
			c2.657,2.504,4.005,5.755,4.005,9.663c0,4.466-1.452,8.189-4.315,11.066C174.923,47.785,171.2,49.245,166.722,49.245z
			 M165.314,28.637c-0.187,0.326-0.387,0.777-0.577,1.4c-0.33,1.081-0.498,2.253-0.498,3.482c0,1.987,0.497,3.673,1.519,5.155
			c0.797,1.155,1.742,1.942,2.872,2.388c0.381-0.492,0.715-1.089,0.998-1.783c0.423-1.04,0.638-2.073,0.638-3.07
			c0-1.917-0.542-3.573-1.657-5.062C167.708,29.947,166.624,29.12,165.314,28.637z"/>
		<path fill="#FFFFFF" d="M167.965,21.938c3.715,0,6.75,1.109,9.107,3.329c2.355,2.22,3.533,5.076,3.533,8.571
			c0,4.073-1.293,7.41-3.879,10.009c-2.587,2.599-5.923,3.898-10.005,3.898c-3.7,0-6.731-1.105-9.096-3.317
			c-2.364-2.211-3.546-5.058-3.546-8.538c0-4.088,1.298-7.436,3.892-10.042S163.897,21.938,167.965,21.938 M169.093,42.775
			c0.783-0.729,1.424-1.706,1.923-2.93c0.498-1.224,0.749-2.436,0.749-3.637c0-2.234-0.653-4.221-1.957-5.961
			c-1.306-1.74-2.987-2.854-5.043-3.34c-0.6,0.562-1.086,1.459-1.463,2.689c-0.376,1.231-0.563,2.539-0.563,3.922
			c0,2.279,0.595,4.282,1.784,6.007S167.236,42.334,169.093,42.775 M167.965,18.938c-4.876,0-8.954,1.613-12.12,4.794
			c-3.161,3.178-4.765,7.268-4.765,12.158c0,4.329,1.513,7.938,4.497,10.729c2.926,2.737,6.676,4.126,11.145,4.126
			c4.891,0,8.973-1.608,12.131-4.782c3.154-3.169,4.753-7.248,4.753-12.125c0-4.338-1.506-7.956-4.476-10.755
			C176.208,20.332,172.453,18.938,167.965,18.938L167.965,18.938z M168.097,39.039c-0.398-0.318-0.764-0.721-1.104-1.216
			c-0.844-1.224-1.254-2.631-1.254-4.304c0-0.979,0.12-1.914,0.356-2.78c0.483,0.35,0.92,0.784,1.313,1.31
			c0.912,1.218,1.356,2.579,1.356,4.16c0,0.813-0.173,1.634-0.527,2.506C168.192,38.826,168.145,38.935,168.097,39.039
			L168.097,39.039z"/>
	</g>
	<g>
		<linearGradient id="SVGID_6_" gradientUnits="userSpaceOnUse" x1="198.9595" y1="15.061" x2="198.9595" y2="43.5223">
			<stop  offset="0" style="stop-color:#F69453"/>
			<stop  offset="0.5" style="stop-color:#F37521"/>
			<stop  offset="1" style="stop-color:#F15A29"/>
		</linearGradient>
		<path fill="url(#SVGID_6_)" d="M195.909,49.245c-3.099,0-5.542-0.863-7.261-2.566c-1.724-1.706-2.598-4.132-2.598-7.209V26.953
			c0-0.476-0.072-0.991-0.215-1.532c-0.156-0.593-0.446-1.391-0.863-2.373c-0.196-0.463-0.147-0.994,0.13-1.414
			c0.278-0.42,0.748-0.672,1.251-0.672h11.283c0.521,0,1.005,0.271,1.278,0.715c0.016,0.026,0.031,0.053,0.045,0.08
			c0.022-0.042,0.047-0.083,0.073-0.123c0.278-0.42,0.748-0.672,1.251-0.672h11.282c0.522,0,1.007,0.271,1.279,0.718
			c0.273,0.445,0.294,1.001,0.056,1.466c-0.462,0.902-0.791,1.774-0.979,2.593c-0.188,0.83-0.284,1.846-0.284,3.016v12.471
			c0,1.056,0.08,1.993,0.237,2.786c0.154,0.79,0.438,1.672,0.842,2.624c0.196,0.463,0.147,0.994-0.13,1.414
			c-0.278,0.42-0.748,0.672-1.251,0.672h-9.855c-0.747,0-1.366-0.546-1.48-1.26l-1.838,1.424c-0.249,0.193-0.553,0.303-0.867,0.313
			C197.295,49.198,195.926,49.245,195.909,49.245z M198.957,23.176c-0.435,0.872-0.75,2.02-0.939,3.41
			c-0.205,1.486-0.309,3.634-0.309,6.386v5.54c0,0.753,0.13,1.317,0.376,1.634c0.124,0.16,0.307,0.309,0.795,0.309
			c0.396,0,0.756-0.109,1.102-0.338V29.963c0-1.612-0.083-2.961-0.247-4.009C199.584,25.002,199.323,24.067,198.957,23.176z"/>
		<path fill="#FFFFFF" d="M211.566,22.462h0.005 M211.566,22.462c-0.521,1.019-0.89,1.999-1.105,2.941
			c-0.214,0.942-0.322,2.06-0.322,3.351v12.471c0,1.155,0.088,2.182,0.266,3.078c0.176,0.897,0.487,1.869,0.933,2.918h-4.928h-4.928
			v-2.805l-4.237,3.283l-1.335,0.046c-2.701,0-4.771-0.711-6.205-2.132c-1.436-1.421-2.153-3.468-2.153-6.144V26.953
			c0-0.607-0.088-1.245-0.265-1.915c-0.176-0.669-0.487-1.527-0.933-2.576h5.642h5.642c-0.523,1.034-0.891,2.341-1.105,3.922
			c-0.216,1.565-0.322,3.762-0.322,6.588v5.54c0,1.109,0.23,1.961,0.69,2.554c0.461,0.593,1.12,0.889,1.98,0.889
			c0.967,0,1.834-0.379,2.602-1.14V29.963c0-1.702-0.089-3.115-0.265-4.24c-0.177-1.125-0.487-2.212-0.933-3.261h5.642H211.566
			 M211.571,19.462h-0.005h-5.641h-5.642c-0.466,0-0.918,0.108-1.323,0.308c-0.406-0.199-0.857-0.308-1.324-0.308h-5.642h-5.642
			c-1.007,0-1.946,0.505-2.502,1.345c-0.556,0.839-0.652,1.901-0.26,2.828c0.484,1.141,0.698,1.808,0.793,2.166
			c0.11,0.419,0.166,0.806,0.166,1.152V39.47c0,3.493,1.023,6.277,3.043,8.275c2.01,1.99,4.808,3,8.315,3
			c0.034,0,0.068-0.001,0.104-0.002l1.335-0.046c0.629-0.021,1.236-0.241,1.734-0.627l0.59-0.457c0.503,0.381,1.13,0.607,1.81,0.607
			h4.928h4.928c1.007,0,1.946-0.505,2.502-1.345c0.556-0.839,0.653-1.901,0.26-2.828c-0.364-0.855-0.616-1.637-0.75-2.322
			c-0.14-0.703-0.21-1.543-0.21-2.501V28.754c0-1.058,0.083-1.962,0.248-2.687c0.152-0.665,0.423-1.388,0.803-2.146
			c0.242-0.433,0.38-0.93,0.38-1.46C214.569,20.805,213.228,19.462,211.571,19.462L211.571,19.462z"/>
	</g>
	<g>
		<linearGradient id="SVGID_7_" gradientUnits="userSpaceOnUse" x1="226.5991" y1="15.7046" x2="226.5991" y2="43.6301">
			<stop  offset="0" style="stop-color:#F69453"/>
			<stop  offset="0.5" style="stop-color:#F37521"/>
			<stop  offset="1" style="stop-color:#F15A29"/>
		</linearGradient>
		<path fill="url(#SVGID_7_)" d="M228.292,49.245c-3.155,0-5.54-0.849-7.088-2.522c-1.517-1.639-2.286-4.155-2.286-7.481V29.114
			h-1.862c-0.828,0-1.5-0.672-1.5-1.5c0-0.431,0.186-0.876,0.509-1.16l12.008-10.566c0.274-0.241,0.626-0.374,0.991-0.374
			c0.828,0,1.511,0.672,1.511,1.5v3.948h4.165c0.828,0,1.5,0.672,1.5,1.5v5.152c0,0.828-0.672,1.5-1.5,1.5h-4.165v9.307
			c0,0.575,0.114,0.886,0.222,0.984c0.045,0.042,0.317,0.251,1.226,0.251c0.579,0,1.092-0.078,1.523-0.232
			c0.475-0.169,1.063-0.493,1.751-0.964c0.256-0.176,0.552-0.263,0.848-0.263c0.32,0,0.641,0.103,0.908,0.306
			c0.515,0.392,0.721,1.069,0.511,1.681l-2.464,7.182c-0.157,0.457-0.523,0.811-0.986,0.95c-1.114,0.336-2.112,0.576-2.966,0.716
			C230.283,49.173,229.322,49.245,228.292,49.245z"/>
		<path fill="#FFFFFF" d="M229.074,17.014v5.448h5.665v5.152h-5.665v10.807c0,0.957,0.234,1.652,0.703,2.086
			c0.468,0.433,1.216,0.649,2.244,0.649c0.753,0,1.428-0.105,2.027-0.319c0.599-0.213,1.297-0.593,2.095-1.14l-2.464,7.182
			c-1.06,0.319-1.984,0.543-2.774,0.672c-0.791,0.13-1.662,0.194-2.613,0.194c-2.732,0-4.729-0.681-5.986-2.041
			c-1.259-1.359-1.888-3.514-1.888-6.463V27.614h-3.362V27.58l12.008-10.566H229.074 M229.074,14.014h-0.011
			c-0.729,0-1.435,0.266-1.981,0.748l-12.008,10.566c-0.647,0.569-1.019,1.39-1.019,2.252c0,1.657,1.343,3.034,3,3.034h0.362v8.627
			c0,3.716,0.904,6.576,2.687,8.501c1.842,1.992,4.597,3.003,8.188,3.003c1.111,0,2.153-0.079,3.1-0.234
			c0.914-0.148,1.977-0.404,3.153-0.76c0.925-0.278,1.659-0.985,1.973-1.898l2.464-7.182c0.42-1.224,0.008-2.578-1.021-3.361
			c-0.536-0.407-1.176-0.612-1.816-0.612c-0.592,0-1.184,0.175-1.696,0.525c-0.761,0.521-1.206,0.718-1.403,0.788
			c-0.261,0.093-0.586,0.142-0.97,0.146v-7.542h2.665c1.657,0,3-1.343,3-3v-5.152c0-1.657-1.343-3-3-3h-2.665v-2.448
			C232.074,15.356,230.731,14.014,229.074,14.014L229.074,14.014z"/>
	</g>
</g>
</svg>
