<?xml version="1.0" encoding="utf-8"?>
<!-- Generator: Adobe Illustrator 16.0.0, SVG Export Plug-In . SVG Version: 6.00 Build 0)  -->
<!DOCTYPE svg PUBLIC "-//W3C//DTD SVG 1.1//EN" "http://www.w3.org/Graphics/SVG/1.1/DTD/svg11.dtd">
<svg version="1.1" id="Layer_1" xmlns="http://www.w3.org/2000/svg" xmlns:xlink="http://www.w3.org/1999/xlink" x="0px" y="0px"
	 width="190px" height="208.667px" viewBox="0 0 190 208.667" enable-background="new 0 0 190 208.667" xml:space="preserve">
<g display="none">
	<g display="inline" opacity="0.2">
		<path d="M212.797,66.426L184.28,36.575c-5.925-6.198-13.275-8.466-17.271-5.312l-77.12,75.482
			c-8.887,8.704-23.305,8.01-31.313-1.499L26.529,67.212c-4.324-4.188-14.126-1.582-21.221,5.641l-28.928,29.449
			c-6.007,6.117-8.037,13.541-4.754,17.427l80.741,100.407c3.666,4.352,12.599,2.752,19.895-3.557L217.761,87.821
			C222.076,83.633,219.781,73.75,212.797,66.426z"/>
	</g>
	<g display="inline">
		<path fill="#FFFFFF" d="M212.797,29.855L184.28,0.003c-5.925-6.199-13.275-8.467-17.271-5.313l-77.12,75.483
			c-8.887,8.704-23.305,8.01-31.313-1.499L26.529,30.641c-4.324-4.188-14.126-1.582-21.221,5.642L-23.62,65.731
			c-6.007,6.117-8.037,13.541-4.754,17.427l80.741,100.406c3.666,4.353,12.599,2.752,19.895-3.557L217.761,51.25
			C222.076,47.062,219.781,37.178,212.797,29.855z"/>
	</g>
</g>
<g display="none">
	<g display="inline" opacity="0.2">
		<path d="M125.42,210.124l-34.167-34.166l-32.695,32.695c-7.762,7.762-20.343,7.762-28.104,0L8.949,187.149
			c-7.763-7.764-7.763-20.344,0-28.105l32.694-32.695L8.949,93.653c-7.763-7.763-7.763-20.343,0-28.105l20.681-20.681
			c8.073-8.073,21.275-7.698,28.883,0.822l30.089,33.71l37.651-37.65c6.801-6.802,17.508-7.753,25.408-2.258l25.361,17.646
			c10.158,7.067,11.455,21.613,2.697,30.363l-44.324,44.325l34.432,38.582c7.588,8.504,6.492,21.623-2.404,28.746l-15.533,12.434
			C143.988,217.922,132.588,217.292,125.42,210.124z"/>
	</g>
	<g display="inline">
		<path fill="#FFFFFF" d="M125.42,173.553l-34.167-34.168l-32.695,32.695c-7.762,7.762-20.343,7.762-28.104,0L8.949,150.577
			c-7.763-7.762-7.763-20.344,0-28.105l32.694-32.695L8.949,57.082c-7.763-7.763-7.763-20.343,0-28.105L29.629,8.296
			c8.073-8.073,21.275-7.698,28.883,0.822l30.089,33.71l37.651-37.65c6.801-6.802,17.508-7.753,25.408-2.258l25.361,17.646
			c10.158,7.067,11.455,21.613,2.697,30.363l-44.324,44.324l34.432,38.583c7.588,8.502,6.492,21.623-2.404,28.744l-15.533,12.436
			C143.988,181.352,132.588,180.721,125.42,173.553z"/>
	</g>
</g>
<g>
	<g opacity="0.2">
		<path d="M170.552,31.33L159.7,42.878C81.768-23.88-28.688,62.325,14.311,153.012c36.758,77.53,107.828,54.942,139.255,31.897
			c4.349-3.19,6.456-8.497,3.71-13.142l-3.559-6.021c-4.523-7.661-14.415-9.981-22.015-5.353
			c-13.485,8.214-35.605,18.638-54.292,8.865c-76.957-40.252-7.999-155.157,56.596-99.196l-6.742,6.53
			c-4.505,4.361-2.82,12.296,3.053,14.093c10.016,3.064,24.898,4.284,36.773,4.753c10.775,0.425,19.772-8.541,20.07-19.903
			c0.38-14.381-0.012-32.706-3.754-41.686C181.152,28.464,174.483,27.143,170.552,31.33z"/>
	</g>
	<g>
		<path fill="#FFFFFF" d="M170.552,15.838L159.7,27.386C81.768-39.373-28.688,46.833,14.311,137.519
			c36.758,77.53,107.828,54.942,139.255,31.898c4.349-3.189,6.456-8.497,3.71-13.141l-3.559-6.022
			c-4.523-7.66-14.415-9.981-22.015-5.354c-13.485,8.215-35.605,18.638-54.292,8.867C0.453,113.515,69.412-1.391,134.006,54.571
			l-6.742,6.53c-4.505,4.36-2.82,12.296,3.053,14.093c10.016,3.064,24.898,4.284,36.773,4.753
			c10.775,0.426,19.772-8.541,20.07-19.903c0.38-14.381-0.012-32.705-3.754-41.686C181.152,12.972,174.483,11.65,170.552,15.838z"/>
	</g>
</g>
</svg>
