<?xml version="1.0" encoding="utf-8"?>
<!-- Generator: Adobe Illustrator 16.0.0, SVG Export Plug-In . SVG Version: 6.00 Build 0)  -->
<!DOCTYPE svg PUBLIC "-//W3C//DTD SVG 1.1//EN" "http://www.w3.org/Graphics/SVG/1.1/DTD/svg11.dtd">
<svg version="1.1" id="Layer_1" xmlns="http://www.w3.org/2000/svg" xmlns:xlink="http://www.w3.org/1999/xlink" x="0px" y="0px"
	 width="66px" height="66px" viewBox="0 0 66 66" enable-background="new 0 0 66 66" xml:space="preserve">
<g>
	<g>
		<circle opacity="0.3" fill="#3D3D3D" cx="33" cy="33.001" r="33"/>
		<ellipse fill="#FFEDD4" cx="32.999" cy="31.836" rx="32.151" ry="31.835"/>
	</g>
	<g id="XMLID_1_">
		<g>
			<path fill="#EAF6F9" d="M38.467,34.915l2.285,1.231c-0.771,1.434-1.934,2.627-3.342,3.439l-1.296-2.253
				C37.105,36.763,37.923,35.925,38.467,34.915z"/>
			<path fill="#DFF3FA" d="M36.114,37.333l1.296,2.253c-1.285,0.738-2.773,1.161-4.361,1.161v-2.596
				C34.166,38.151,35.213,37.853,36.114,37.333z"/>
			<path fill="#E5F3FC" d="M33.049,38.151v2.596c-1.5,0-2.912-0.377-4.146-1.045l1.23-2.286
				C31.002,37.885,31.994,38.151,33.049,38.151z"/>
			<path fill="#EEEAF5" d="M30.133,37.416l-1.23,2.286c-1.434-0.771-2.627-1.933-3.438-3.342l2.252-1.295
				C28.287,36.057,29.127,36.873,30.133,37.416z"/>
			<path fill="#F7EDF5" d="M27.717,35.065l-2.252,1.295c-0.74-1.283-1.163-2.771-1.163-4.36h2.598
				C26.899,33.117,27.197,34.164,27.717,35.065z"/>
			<path fill="#FDECF2" d="M25.346,27.854l2.287,1.231c-0.469,0.867-0.733,1.86-0.733,2.915h-2.598
				C24.302,30.5,24.68,29.088,25.346,27.854z"/>
			<path fill="#FDEEF5" d="M28.688,24.416l1.294,2.252c-0.99,0.57-1.806,1.409-2.35,2.417l-2.287-1.231
				C26.119,26.42,27.279,25.227,28.688,24.416z"/>
			<path fill="#FEEDE4" d="M33.049,23.253v2.597c-1.116,0-2.162,0.298-3.066,0.818l-1.294-2.252
				C29.973,23.675,31.462,23.253,33.049,23.253z"/>
			<path fill="#FFF8F1" d="M37.195,24.297l-1.23,2.286c-0.867-0.468-1.861-0.733-2.916-0.733v-2.597
				C34.549,23.253,35.962,23.63,37.195,24.297z"/>
			<path fill="#FFFEF9" d="M40.634,27.639l-2.252,1.297c-0.57-0.992-1.409-1.808-2.417-2.353l1.23-2.286
				C38.63,25.07,39.822,26.23,40.634,27.639z"/>
			<path fill="#FBFBEE" d="M41.797,32h-2.598c0-1.115-0.297-2.163-0.817-3.064l2.252-1.297C41.373,28.924,41.797,30.412,41.797,32z"
				/>
			<path fill="#F5F8EE" d="M39.199,32h2.598c0,1.5-0.378,2.911-1.045,4.146l-2.285-1.231C38.936,34.048,39.199,33.055,39.199,32z"/>
			<path fill="#EAF2DE" d="M41.797,32h2.653c0,1.957-0.491,3.796-1.36,5.404l-2.338-1.258C41.419,34.911,41.797,33.5,41.797,32z"/>
			<path fill="#D6E8CB" d="M44.45,32h2.633c0,2.407-0.606,4.673-1.674,6.653l-2.319-1.249C43.959,35.796,44.45,33.957,44.45,32z"/>
			<path fill="#C1DFB2" d="M47.083,32h2.319c0,2.806-0.707,5.445-1.951,7.752l-2.042-1.099C46.477,36.673,47.083,34.407,47.083,32z"
				/>
			<path fill="#A5D496" d="M49.402,32h2.602c0,3.251-0.82,6.312-2.262,8.985l-2.291-1.233C48.695,37.445,49.402,34.806,49.402,32z"
				/>
			<path fill="#53B95D" d="M54.641,32h2.461c0,4.126-1.039,8.009-2.869,11.402l-2.168-1.168C53.707,39.189,54.641,35.703,54.641,32z
				"/>
			<path fill="#88C87D" d="M52.004,32h2.637c0,3.703-0.934,7.189-2.576,10.234l-2.322-1.249C51.184,38.312,52.004,35.251,52.004,32z
				"/>
			<path fill="#24B34B" d="M57.102,32h2.613c0,4.574-1.152,8.879-3.182,12.641l-2.301-1.238C56.063,40.009,57.102,36.126,57.102,32z
				"/>
			<path fill="#0FAA4B" d="M59.715,32h2.701c0,5.038-1.268,9.778-3.503,13.921l-0.005-0.003l-2.375-1.277
				C58.563,40.879,59.715,36.574,59.715,32z"/>
			<path fill="#E0F2F6" d="M40.752,36.146l2.338,1.258c-1.006,1.869-2.521,3.424-4.357,4.482l-1.322-2.301
				C38.818,38.773,39.98,37.58,40.752,36.146z"/>
			<path fill="#CCE9EC" d="M43.09,37.404l2.319,1.249c-1.239,2.3-3.104,4.212-5.364,5.516l-1.313-2.282
				C40.568,40.828,42.084,39.273,43.09,37.404z"/>
			<path fill="#B4E1E3" d="M45.409,38.653l2.042,1.099c-1.444,2.679-3.616,4.911-6.25,6.428l-1.156-2.011
				C42.305,42.865,44.17,40.953,45.409,38.653z"/>
			<path fill="#88D1D0" d="M47.451,39.752l2.291,1.233c-1.674,3.106-4.191,5.69-7.245,7.449l-1.296-2.255
				C43.835,44.663,46.007,42.431,47.451,39.752z"/>
			<path fill="#69C9CC" d="M49.742,40.985l2.322,1.249c-1.908,3.539-4.774,6.483-8.252,8.488l-1.315-2.288
				C45.551,46.676,48.068,44.092,49.742,40.985z"/>
			<path fill="#28BDBE" d="M52.064,42.234l2.168,1.168c-2.125,3.941-5.319,7.222-9.193,9.453l-1.227-2.133
				C47.29,48.718,50.156,45.773,52.064,42.234z"/>
			<path fill="#09BAB5" d="M54.232,43.402l2.301,1.238c-2.355,4.371-5.896,8.006-10.191,10.481l-1.303-2.267
				C48.913,50.624,52.107,47.344,54.232,43.402z"/>
			<path fill="#04B1AA" d="M58.908,45.918l0.005,0.003c-2.595,4.813-6.495,8.818-11.225,11.543l-0.003-0.004l-1.344-2.338
				c4.295-2.476,7.836-6.11,10.191-10.481L58.908,45.918z"/>
			<path fill="#D1EDF7" d="M37.41,39.586l1.322,2.301C37.06,42.85,35.119,43.4,33.049,43.4v-2.653
				C34.637,40.747,36.125,40.324,37.41,39.586z"/>
			<path fill="#BDE6F5" d="M38.732,41.887l1.313,2.282c-2.059,1.187-4.448,1.864-6.996,1.864V43.4
				C35.119,43.4,37.06,42.85,38.732,41.887z"/>
			<path fill="#A6DEF0" d="M40.045,44.169l1.156,2.011c-2.4,1.382-5.184,2.174-8.152,2.174v-2.32
				C35.597,46.033,37.986,45.355,40.045,44.169z"/>
			<path fill="#8DD6ED" d="M41.201,46.18l1.296,2.255c-2.781,1.603-6.007,2.52-9.448,2.52v-2.601
				C36.018,48.354,38.801,47.562,41.201,46.18z"/>
			<path fill="#62CBE7" d="M42.497,48.435l1.315,2.288c-3.17,1.824-6.846,2.868-10.764,2.868v-2.637
				C36.49,50.954,39.716,50.037,42.497,48.435z"/>
			<path fill="#35C4E6" d="M43.813,50.723l1.227,2.133c-3.529,2.033-7.624,3.197-11.99,3.197v-2.462
				C36.967,53.591,40.643,52.547,43.813,50.723z"/>
			<path fill="#1AC2E9" d="M45.039,52.855l1.303,2.267c-3.914,2.254-8.453,3.543-13.293,3.543v-2.612
				C37.415,56.053,41.51,54.889,45.039,52.855z"/>
			<path fill="#0ABDE9" d="M47.686,57.46l0.003,0.004c-4.311,2.482-9.31,3.903-14.64,3.903v-2.702c4.84,0,9.379-1.289,13.293-3.543
				L47.686,57.46z"/>
			<path fill="#D9EDF9" d="M33.049,40.747V43.4c-1.955,0-3.796-0.491-5.404-1.358l1.258-2.34
				C30.137,40.37,31.549,40.747,33.049,40.747z"/>
			<path fill="#BCDBF1" d="M33.049,43.4v2.633c-2.406,0-4.672-0.605-6.652-1.673l1.248-2.318C29.253,42.909,31.094,43.4,33.049,43.4
				z"/>
			<path fill="#9CCCE7" d="M33.049,46.033v2.32c-2.805,0-5.445-0.707-7.752-1.952l1.1-2.041
				C28.377,45.428,30.643,46.033,33.049,46.033z"/>
			<path fill="#68BBE1" d="M33.049,48.354v2.601c-3.251,0-6.311-0.818-8.984-2.261l1.232-2.292
				C27.604,47.646,30.244,48.354,33.049,48.354z"/>
			<path fill="#06A7D4" d="M33.049,50.954v2.637c-3.703,0-7.188-0.932-10.234-2.576l1.25-2.321
				C26.738,50.136,29.798,50.954,33.049,50.954z"/>
			<path fill="#0698CF" d="M33.049,53.591v2.462c-4.127,0-8.01-1.039-11.402-2.869l1.168-2.169
				C25.861,52.659,29.346,53.591,33.049,53.591z"/>
			<path fill="#0B8CC8" d="M33.049,56.053v2.612c-4.573,0-8.879-1.151-12.641-3.181l1.238-2.301
				C25.039,55.014,28.922,56.053,33.049,56.053z"/>
			<path fill="#0880C2" d="M33.049,58.665v2.702c-5.037,0-9.779-1.269-13.921-3.503l0.003-0.005l1.277-2.375
				C24.17,57.514,28.476,58.665,33.049,58.665z"/>
			<path fill="#E5E2F0" d="M28.902,39.702l-1.258,2.34c-1.869-1.007-3.424-2.522-4.48-4.357l2.301-1.324
				C26.275,37.77,27.469,38.931,28.902,39.702z"/>
			<path fill="#D3CBE4" d="M27.645,42.042l-1.248,2.318c-2.299-1.241-4.213-3.104-5.516-5.365l2.283-1.311
				C24.221,39.52,25.775,41.035,27.645,42.042z"/>
			<path fill="#C1B7D6" d="M26.396,44.36l-1.1,2.041c-2.679-1.444-4.91-3.614-6.427-6.25l2.011-1.156
				C22.184,41.256,24.098,43.119,26.396,44.36z"/>
			<path fill="#AF9FC9" d="M25.297,46.401l-1.232,2.292c-3.107-1.675-5.69-4.192-7.451-7.244l2.257-1.298
				C20.387,42.787,22.618,44.957,25.297,46.401z"/>
			<path fill="#9F89BE" d="M24.064,48.693l-1.25,2.321c-3.539-1.907-6.482-4.774-8.486-8.253l2.285-1.313
				C18.374,44.501,20.957,47.019,24.064,48.693z"/>
			<path fill="#8B74B1" d="M22.814,51.015l-1.168,2.169c-3.94-2.126-7.222-5.32-9.453-9.194l2.135-1.228
				C16.332,46.24,19.275,49.107,22.814,51.015z"/>
			<path fill="#795DA8" d="M21.646,53.184l-1.238,2.301c-4.369-2.355-8.006-5.896-10.48-10.191l2.266-1.304
				C14.425,47.863,17.706,51.058,21.646,53.184z"/>
			<path fill="#63449B" d="M20.408,55.484l-1.277,2.375l-0.003,0.005c-4.812-2.596-8.817-6.494-11.542-11.226l0.004-0.002
				l2.338-1.344C12.402,49.588,16.039,53.129,20.408,55.484z"/>
			<path fill="#F3E6F2" d="M25.465,36.36l-2.301,1.324c-0.965-1.673-1.516-3.615-1.516-5.685h2.653
				C24.302,33.589,24.725,35.077,25.465,36.36z"/>
			<path fill="#E9D1E6" d="M23.164,37.685l-2.283,1.311c-1.187-2.06-1.864-4.448-1.864-6.995h2.632
				C21.648,34.069,22.199,36.012,23.164,37.685z"/>
			<path fill="#DDBED9" d="M20.881,38.995l-2.011,1.156c-1.384-2.398-2.174-5.184-2.174-8.151h2.32
				C19.017,34.547,19.694,36.936,20.881,38.995z"/>
			<path fill="#D3A7CD" d="M18.87,40.151l-2.257,1.298c-1.602-2.781-2.519-6.008-2.519-9.449h2.602
				C16.696,34.968,17.486,37.753,18.87,40.151z"/>
			<path fill="#C78FBE" d="M16.613,41.449l-2.285,1.313C12.503,39.595,11.459,35.92,11.459,32h2.636
				C14.095,35.441,15.012,38.668,16.613,41.449z"/>
			<path fill="#BB7BB1" d="M14.328,42.762l-2.135,1.228C10.16,40.459,8.996,36.365,8.996,32h2.463
				C11.459,35.92,12.503,39.595,14.328,42.762z"/>
			<path fill="#AF5DA5" d="M12.193,43.989l-2.266,1.304C7.673,41.38,6.383,36.841,6.383,32h2.613
				C8.996,36.365,10.16,40.459,12.193,43.989z"/>
			<path fill="#A34198" d="M9.928,45.293L7.59,46.637l-0.004,0.002C5.104,42.329,3.684,37.331,3.684,32h2.699
				C6.383,36.841,7.673,41.38,9.928,45.293z"/>
			<path fill="#FCE3EB" d="M23.008,26.596l2.338,1.258C24.68,29.088,24.302,30.5,24.302,32h-2.653
				C21.648,30.044,22.141,28.204,23.008,26.596z"/>
			<path fill="#FACEDF" d="M20.69,25.348l2.317,1.248c-0.867,1.608-1.359,3.448-1.359,5.404h-2.632
				C19.017,29.593,19.623,27.326,20.69,25.348z"/>
			<path fill="#F8B8CB" d="M18.646,24.249l2.044,1.099c-1.067,1.979-1.674,4.245-1.674,6.652h-2.32
				C16.696,29.195,17.402,26.555,18.646,24.249z"/>
			<path fill="#F59FB9" d="M16.355,23.015l2.291,1.234c-1.244,2.306-1.95,4.946-1.95,7.751h-2.602
				C14.095,28.748,14.914,25.688,16.355,23.015z"/>
			<path fill="#EF83A6" d="M14.033,21.765l2.322,1.25c-1.441,2.674-2.261,5.733-2.261,8.985h-2.636
				C11.459,28.295,12.391,24.81,14.033,21.765z"/>
			<path fill="#E96693" d="M11.865,20.598l2.168,1.167c-1.643,3.045-2.574,6.53-2.574,10.235H8.996
				C8.996,27.875,10.035,23.991,11.865,20.598z"/>
			<path fill="#E33984" d="M9.564,19.359l2.301,1.238C10.035,23.991,8.996,27.875,8.996,32H6.383
				C6.383,27.426,7.535,23.121,9.564,19.359z"/>
			<path fill="#DB2879" d="M7.189,18.081l2.375,1.278C7.535,23.121,6.383,27.426,6.383,32H3.684c0-5.036,1.268-9.777,3.504-13.92
				L7.189,18.081z"/>
			<path fill="#FCE6F0" d="M27.365,22.114l1.323,2.302c-1.409,0.811-2.569,2.004-3.343,3.438l-2.338-1.258
				C24.016,24.728,25.529,23.173,27.365,22.114z"/>
			<path fill="#FAD3E1" d="M26.054,19.832l1.312,2.282c-1.836,1.059-3.35,2.613-4.357,4.481l-2.317-1.248
				C21.932,23.048,23.794,21.135,26.054,19.832z"/>
			<path fill="#F8BDD5" d="M24.896,17.822l1.157,2.01c-2.26,1.303-4.122,3.216-5.363,5.516l-2.044-1.099
				C20.092,21.569,22.264,19.339,24.896,17.822z"/>
			<path fill="#F5A4C2" d="M23.602,15.565l1.295,2.257c-2.633,1.517-4.805,3.747-6.25,6.427l-2.291-1.234
				C18.031,19.909,20.547,17.324,23.602,15.565z"/>
			<path fill="#F38BB1" d="M22.286,13.279l1.315,2.286c-3.055,1.759-5.57,4.344-7.246,7.449l-2.322-1.25
				C15.942,18.226,18.81,15.282,22.286,13.279z"/>
			<path fill="#F0699C" d="M21.059,11.144l1.228,2.136c-3.477,2.003-6.344,4.946-8.253,8.485l-2.168-1.167
				C13.991,16.656,17.185,13.376,21.059,11.144z"/>
			<path fill="#EE428C" d="M19.758,8.878l1.301,2.266c-3.874,2.232-7.067,5.513-9.193,9.454l-2.301-1.238
				C11.922,14.99,15.462,11.353,19.758,8.878z"/>
			<path fill="#EE3785" d="M18.412,6.541l1.346,2.337c-4.296,2.475-7.836,6.112-10.193,10.481l-2.375-1.278L7.188,18.08
				C9.781,13.267,13.68,9.263,18.41,6.536L18.412,6.541z"/>
			<path fill="#F8F7DE" d="M44.45,32h-2.653c0-1.588-0.424-3.076-1.163-4.361l2.302-1.321C43.899,27.989,44.45,29.931,44.45,32z"/>
			<path fill="#F5F3D0" d="M47.083,32H44.45c0-2.069-0.551-4.011-1.515-5.683l2.282-1.313C46.404,27.063,47.083,29.453,47.083,32z"
				/>
			<path fill="#EFEBB2" d="M49.402,32h-2.319c0-2.547-0.679-4.937-1.865-6.995l2.012-1.156C48.611,26.248,49.402,29.031,49.402,32z"
				/>
			<path fill="#E7E897" d="M52.004,32h-2.602c0-2.969-0.791-5.752-2.173-8.151l2.255-1.297C51.086,25.333,52.004,28.56,52.004,32z"
				/>
			<path fill="#DDE177" d="M54.641,32h-2.637c0-3.44-0.918-6.667-2.52-9.448l2.286-1.315C53.596,24.405,54.641,28.081,54.641,32z"/>
			<path fill="#D4DB47" d="M57.102,32h-2.461c0-3.919-1.045-7.595-2.87-10.764l2.134-1.226C55.938,23.54,57.102,27.633,57.102,32z"
				/>
			<path fill="#C5D52D" d="M59.715,32h-2.613c0-4.367-1.164-8.46-3.197-11.989l2.268-1.303C58.425,22.62,59.715,27.159,59.715,32z"
				/>
			<path fill="#BBCF32" d="M62.416,32h-2.701c0-4.841-1.29-9.38-3.543-13.292l2.336-1.345l0.006-0.003
				C60.996,21.67,62.416,26.669,62.416,32z"/>
			<path fill="#FFFEF3" d="M42.936,26.317l-2.302,1.321c-0.812-1.408-2.004-2.568-3.438-3.342l1.258-2.339
				C40.322,22.966,41.877,24.48,42.936,26.317z"/>
			<path fill="#FFFCE9" d="M45.218,25.005l-2.282,1.313c-1.059-1.837-2.613-3.352-4.482-4.359l1.248-2.318
				C42.001,20.881,43.916,22.743,45.218,25.005z"/>
			<path fill="#FFFAD7" d="M47.229,23.849l-2.012,1.156c-1.302-2.262-3.217-4.124-5.517-5.365l1.1-2.041
				C43.48,19.044,45.712,21.214,47.229,23.849z"/>
			<path fill="#FEF8C4" d="M49.484,22.552l-2.255,1.297c-1.518-2.635-3.749-4.805-6.429-6.25l1.234-2.292
				C45.141,16.982,47.725,19.5,49.484,22.552z"/>
			<path fill="#FEF6B0" d="M51.771,21.236l-2.286,1.315c-1.76-3.052-4.344-5.569-7.449-7.245l1.248-2.322
				C46.822,14.894,49.767,17.76,51.771,21.236z"/>
			<path fill="#FEF389" d="M53.904,20.011l-2.134,1.226c-2.004-3.477-4.948-6.343-8.487-8.252l1.168-2.169
				C48.393,12.942,51.672,16.137,53.904,20.011z"/>
			<path fill="#FEF05B" d="M56.172,18.708l-2.268,1.303c-2.232-3.874-5.512-7.068-9.453-9.195l1.238-2.299
				C50.061,10.872,53.696,14.413,56.172,18.708z"/>
			<path fill="#FDEB03" d="M58.514,17.36l-0.006,0.003l-2.336,1.345c-2.476-4.295-6.111-7.836-10.482-10.191l1.278-2.376
				l0.003-0.004C51.783,8.731,55.787,12.631,58.514,17.36z"/>
			<path fill="#FFF6E4" d="M38.453,21.958l-1.258,2.339c-1.233-0.667-2.646-1.044-4.146-1.044v-2.655
				C35.006,20.598,36.846,21.09,38.453,21.958z"/>
			<path fill="#FFE7C7" d="M39.701,19.64l-1.248,2.318c-1.607-0.868-3.447-1.36-5.404-1.36v-2.631
				C35.456,17.967,37.722,18.572,39.701,19.64z"/>
			<path fill="#FED7A9" d="M40.801,17.599l-1.1,2.041c-1.979-1.067-4.245-1.673-6.652-1.673v-2.319
				C35.854,15.647,38.494,16.354,40.801,17.599z"/>
			<path fill="#FDC48A" d="M42.035,15.307l-1.234,2.292c-2.307-1.245-4.947-1.951-7.752-1.951v-2.602
				C36.301,13.046,39.36,13.864,42.035,15.307z"/>
			<path fill="#FBB16C" d="M43.283,12.984l-1.248,2.322c-2.675-1.442-5.734-2.261-8.986-2.261V10.41
				C36.753,10.41,40.238,11.342,43.283,12.984z"/>
			<path fill="#F99E45" d="M44.451,10.815l-1.168,2.169c-3.045-1.643-6.53-2.574-10.234-2.574V7.948
				C37.175,7.948,41.059,8.986,44.451,10.815z"/>
			<path fill="#F68A1F" d="M45.689,8.517l-1.238,2.299c-3.393-1.829-7.276-2.867-11.402-2.867V5.335
				C37.623,5.335,41.928,6.486,45.689,8.517z"/>
			<path fill="#F47621" d="M46.971,6.137l-0.003,0.004l-1.278,2.376c-3.762-2.03-8.066-3.182-12.641-3.182v-2.7
				C38.086,2.635,42.828,3.901,46.971,6.137z"/>
			<path fill="#FDE1D5" d="M33.049,20.598v2.655c-1.587,0-3.076,0.422-4.36,1.163l-1.323-2.302
				C29.038,21.15,30.979,20.598,33.049,20.598z"/>
			<path fill="#FCCDB6" d="M33.049,17.967v2.631c-2.069,0-4.011,0.553-5.684,1.517l-1.312-2.282
				C28.113,18.645,30.502,17.967,33.049,17.967z"/>
			<path fill="#FAB69A" d="M33.049,15.647v2.319c-2.547,0-4.936,0.678-6.995,1.865l-1.157-2.01
				C27.297,16.438,30.081,15.647,33.049,15.647z"/>
			<path fill="#F79D7D" d="M33.049,13.046v2.602c-2.968,0-5.752,0.791-8.152,2.175l-1.295-2.257
				C26.383,13.963,29.609,13.046,33.049,13.046z"/>
			<path fill="#F58560" d="M33.049,10.41v2.636c-3.439,0-6.666,0.917-9.447,2.52l-1.315-2.286
				C25.455,11.454,29.131,10.41,33.049,10.41z"/>
			<path fill="#F26744" d="M33.049,7.948v2.462c-3.918,0-7.594,1.044-10.763,2.869l-1.228-2.136
				C24.588,9.111,28.682,7.948,33.049,7.948z"/>
			<path fill="#EF3E30" d="M33.049,5.335v2.613c-4.367,0-8.461,1.163-11.99,3.195l-1.301-2.266
				C23.67,6.624,28.209,5.335,33.049,5.335z"/>
			<path fill="#EE3328" d="M33.049,2.635v2.7c-4.84,0-9.379,1.289-13.291,3.543l-1.346-2.337L18.41,6.536
				C22.719,4.055,27.719,2.635,33.049,2.635z"/>
		</g>
	</g>
</g>
</svg>
