<?xml version="1.0" encoding="utf-8"?>
<!-- Generator: Adobe Illustrator 22.1.0, SVG Export Plug-In . SVG Version: 6.00 Build 0)  -->
<svg version="1.1" id="Layer_1" xmlns="http://www.w3.org/2000/svg" xmlns:xlink="http://www.w3.org/1999/xlink" x="0px" y="0px"
	 viewBox="0 0 53.1 47.3" style="enable-background:new 0 0 53.1 47.3;" xml:space="preserve">
<style type="text/css">
	.st0{display:none;}
	.st1{display:inline;opacity:0.16;fill:url(#SVGID_1_);enable-background:new    ;}
	.st2{display:inline;}
	.st3{fill:#663700;}
	.st4{opacity:0.2;enable-background:new    ;}
	.st5{fill:#A7600C;}
	.st6{fill:#876500;}
	.st7{fill:#ED1849;}
	.st8{opacity:0.3;fill:#FFFFFF;enable-background:new    ;}
	.st9{fill:#FFD200;}
	.st10{opacity:0.31;fill:url(#SVGID_2_);enable-background:new    ;}
	.st11{fill:url(#SVGID_3_);}
	.st12{fill:url(#SVGID_4_);}
	.st13{fill:url(#SVGID_5_);}
	.st14{fill:url(#SVGID_6_);}
	.st15{fill:url(#SVGID_7_);}
</style>
<g class="st0">
	
		<radialGradient id="SVGID_1_" cx="-1728.2363" cy="-3606.8105" r="28.0176" fx="-1755.7695" fy="-3606.6206" gradientTransform="matrix(-1.0649 0 0 -8.888862e-02 -1816.0468 -274.1313)" gradientUnits="userSpaceOnUse">
		<stop  offset="0.3738" style="stop-color:#603813"/>
		<stop  offset="0.9951" style="stop-color:#FFFFFF;stop-opacity:0"/>
	</radialGradient>
	<ellipse class="st1" cx="24.4" cy="46.5" rx="31" ry="2.6"/>
	<g class="st2">
		<path class="st3" d="M45,28.7c0,0,8.2,0.2,9.3,7.3c1,7.1-1,10.4-1,10.4s-1.9-3.8-6.4-5.2s-6.3-5.1-6.2-8.2
			C40.6,33.1,42.5,28.4,45,28.7z"/>
		<path class="st4" d="M54.2,36.1c-1-7.1-9.3-7.3-9.3-7.3c-2.5-0.4-4.3,4.4-4.3,4.4c0,1.1,0.2,2.4,0.7,3.5c0,0-0.3-4,3.7-4.5
			c4-0.4,10.7,2.1,8.2,14.3C53.2,46.5,55.3,43.2,54.2,36.1z"/>
		<path class="st5" d="M43.4,37c0,0,0.7,2,3.5,3.1s4.2,2.4,5,3.3c0,0-1.4-2.3-3.7-3.6C45.8,38.6,44.4,38.1,43.4,37z"/>
		<path class="st6" d="M46.8,33.9c0,0,5.3,3.7,5.9,8.1C52.7,42,53.6,36.3,46.8,33.9z"/>
		<g>
			<path class="st7" d="M42.5,26.8c0,0-15.5-22.5-22.4-30.1c-6.8-7.6-18.7-15.3-19.9-8.2C-1-4.3,7.4,5.4,16.8,13.6
				c9.5,8.1,21.9,17,21.9,17S41.3,30.1,42.5,26.8z"/>
			<path class="st8" d="M14.7,6.2c6.9,7.2,12.3,13.2,12.1,13.3c-0.2,0.2-7.2-4.7-14.1-11.8S1.6-6.2,1.8-6.4C2-6.6,7.8-0.9,14.7,6.2z
				"/>
		</g>
		<path class="st9" d="M45.3,28.7c0,0-3.4,0.7-4.6,5c0,0-1.7-2.1-1.9-3.1c0,0,1.2-3,3.7-3.8L45.3,28.7z"/>
		<path class="st4" d="M0.2-11.5c0,0.3-0.1,0.5-0.1,0.8c0,0,2.7-3.8,12.8,4.3s27.4,31.9,27.4,34.6c0,0,1.6-0.5,3.4,1.3l0,0
			c0.9-0.6,1.6-0.7,1.6-0.7l-2.8-1.9c0,0-15.5-22.5-22.4-30.1C13.3-10.9,1.4-18.6,0.2-11.5z"/>
	</g>
</g>
<g>
	
		<radialGradient id="SVGID_2_" cx="-941.0573" cy="-1518.5061" r="18.8511" fx="-948.4447" fy="-1515.6766" gradientTransform="matrix(-1.0255 0 0 -0.2574 -932.1022 -348.686)" gradientUnits="userSpaceOnUse">
		<stop  offset="0.3738" style="stop-color:#603813"/>
		<stop  offset="0.4323" style="stop-color:#643E1A;stop-opacity:0.9058"/>
		<stop  offset="0.5153" style="stop-color:#714D2C;stop-opacity:0.7722"/>
		<stop  offset="0.6131" style="stop-color:#86674B;stop-opacity:0.6148"/>
		<stop  offset="0.7221" style="stop-color:#A28B75;stop-opacity:0.4394"/>
		<stop  offset="0.8403" style="stop-color:#C7B9AC;stop-opacity:0.2491"/>
		<stop  offset="0.9646" style="stop-color:#F3F0EE;stop-opacity:4.905480e-02"/>
		<stop  offset="0.9951" style="stop-color:#FFFFFF;stop-opacity:0"/>
	</radialGradient>
	<ellipse class="st10" cx="33" cy="42.2" rx="20.1" ry="5.1"/>
	<g>
		
			<linearGradient id="SVGID_3_" gradientUnits="userSpaceOnUse" x1="-926.8503" y1="13.9541" x2="-908.8489" y2="28.5699" gradientTransform="matrix(-1 0 0 -1 -904.9194 37.4243)">
			<stop  offset="0" style="stop-color:#487FB9"/>
			<stop  offset="1" style="stop-color:#29649C"/>
		</linearGradient>
		<path class="st11" d="M28.5,17.4L13,7.2C10.2,5.4,4.2,2.8,2.5,5.3c0,0-8,9,4.9,17.5l12.2,8.1l-0.4-6.5L28.5,17.4z"/>
		
			<linearGradient id="SVGID_4_" gradientUnits="userSpaceOnUse" x1="-924.3792" y1="19.8814" x2="-950.8857" y2="0.5588" gradientTransform="matrix(-1 0 0 -1 -904.9194 37.4243)">
			<stop  offset="0" style="stop-color:#E85E7A"/>
			<stop  offset="0.7957" style="stop-color:#D2366B"/>
			<stop  offset="1" style="stop-color:#A82743"/>
		</linearGradient>
		<path class="st12" d="M30.6,13.1c4.9,4.2,8.9,5.8,12.5,8.4c5.6,4.9,10.2,7.9,0.4,18.4c-2.1,2.3-4.9,3.5-11.3-0.8l-12.5-8.2
			l-0.7-10C18.9,20.9,27.6,11.2,30.6,13.1z"/>
		
			<linearGradient id="SVGID_5_" gradientUnits="userSpaceOnUse" x1="-1103.9983" y1="287.3807" x2="-1103.9983" y2="271.0916" gradientTransform="matrix(-0.8342 -0.5514 0.5514 -0.8342 -1058.4695 -362.7213)">
			<stop  offset="0" style="stop-color:#77AEFF"/>
			<stop  offset="0.8925" style="stop-color:#77AEFF"/>
			<stop  offset="1" style="stop-color:#5E93E8"/>
		</linearGradient>
		<path class="st13" d="M28.1,11.4L12.5,1.1C9.7-0.8,6-0.2,4.3,2.4L1.6,6.5c-1.7,2.6-0.8,6.2,2,8l15.6,10.3l10.2-2.1L28.1,11.4z"/>
		
			<linearGradient id="SVGID_6_" gradientUnits="userSpaceOnUse" x1="-1124.069" y1="287.2158" x2="-1124.069" y2="270.4391" gradientTransform="matrix(-0.8342 -0.5514 0.5514 -0.8342 -1058.4695 -362.7213)">
			<stop  offset="0" style="stop-color:#FF7795"/>
			<stop  offset="0.8925" style="stop-color:#FF7795"/>
			<stop  offset="1" style="stop-color:#E85E7A"/>
		</linearGradient>
		<path class="st14" d="M28.1,11.4l13.8,9.2c2.8,1.9,3.7,5.4,2,8l-2.7,4.1c-1.7,2.6-5.4,3.2-8.2,1.3l-13.8-9.2c0,0,2.5-1.9,5.3-6.1
			C27.3,14.4,28.1,11.4,28.1,11.4z"/>
		<g>
			<g>
				
					<linearGradient id="SVGID_7_" gradientUnits="userSpaceOnUse" x1="-1114.3582" y1="287.6265" x2="-1114.5782" y2="270.5604" gradientTransform="matrix(-0.8342 -0.5514 0.5514 -0.8342 -1058.4695 -362.7213)">
					<stop  offset="0" style="stop-color:#FFFFFF"/>
					<stop  offset="0.9301" style="stop-color:#E8E8E8"/>
					<stop  offset="1" style="stop-color:#969696"/>
				</linearGradient>
				<path class="st15" d="M18.8,30.4l1.6,1l-0.5-6.2c0.8-0.7,3-2.7,5.3-6.1c2.8-4.3,3.5-7.2,3.6-7.3l-1.4-0.9c0,0-0.8,3.3-3.5,7.3
					c-2.7,4.1-5.4,6.1-5.4,6.1L18.8,30.4z"/>
			</g>
		</g>
	</g>
</g>
</svg>
