<?xml version="1.0" encoding="utf-8"?>
<!-- Generator: Adobe Illustrator 16.0.0, SVG Export Plug-In . SVG Version: 6.00 Build 0)  -->
<!DOCTYPE svg PUBLIC "-//W3C//DTD SVG 1.1//EN" "http://www.w3.org/Graphics/SVG/1.1/DTD/svg11.dtd">
<svg version="1.1" id="Layer_1" xmlns="http://www.w3.org/2000/svg" xmlns:xlink="http://www.w3.org/1999/xlink" x="0px" y="0px"
	 width="426.22px" height="76.201px" viewBox="0 0 426.22 76.201" enable-background="new 0 0 426.22 76.201" xml:space="preserve">
<g>
	<path fill="#2E3192" d="M10.124,7.48c0,0,0.161,3.335-1.337,3.738c-3.126-1.482-7.59-0.032-5.076,2.497
		c0.387,0.387,0.822,0.629,1.273,0.773c0.016,0,0.032-0.016,0.032-0.031c1.627-0.693,3.48-1.354,5.64-1.338
		c0.306,0,0.596,0.032,0.918,0.032c1.08,0.017,1.579,3.271,0.258,4.528c0.597,0.869,1.45,1.562,2.627,1.562
		c0.967,0,1.756,0.789,1.756,1.756s-0.789,1.757-1.756,1.757c-2.61,0-5.817-1.74-6.655-4.882l-0.064-0.371
		c-0.37,0.064-0.741,0.161-1.111,0.307c-1.45,0.563-3.594,2.158-3.11,4.189c0.483,2.046,2.176,2.852,3.738,3.013
		c2.498,0.258,5.334-1.37,5.334-1.37c1.934,0.516,2.368,4.174,1.272,4.545c-2.433,0.838-5.591,0.74-7.589,0.467
		c-3.48-0.5-5.446-2.9-6.091-5.479c-0.612-2.417,0.322-5.43,2.675-7.396c-2.062-1.418-2.933-3.803-2.03-6.139
		c0.854-2.143,2.98-3.287,5.075-3.465C7.53,6.03,9.157,6.481,10.124,7.48z"/>
	<path fill="#2E3192" d="M20.902,10.17c0.902,2.418,0.741,4.818,0.451,6.816c0.081,0.29,0.178,0.564,0.339,0.854
		c0.402,0.758,1.031,1.402,1.724,1.402c0.967,0,1.757,0.789,1.757,1.756s-0.79,1.757-1.757,1.757c-1.45,0-2.771-0.919-3.754-2.175
		c-1.435,1.53-3.513,2.175-5.479,2.175c-0.967,0-1.757-0.79-1.757-1.757s0.79-1.756,1.757-1.756c0.306,0,0.677-0.016,0.982-0.097
		c1.708-0.419,2.369-1.289,2.562-2.981c0.258-2.497-1.386-4.688-1.386-4.688c0.322-1.192,1.901-1.853,3.109-1.901
		C20.193,9.559,20.79,9.752,20.902,10.17z M18.405,6.739c0,1.031-0.854,1.885-1.901,1.885c-1.031,0-1.901-0.854-1.901-1.885
		c0-1.047,0.87-1.869,1.901-1.869C17.551,4.87,18.405,5.692,18.405,6.739z M22.997,6.739c0,1.031-0.854,1.885-1.901,1.885
		c-1.047,0-1.901-0.854-1.901-1.885c0-1.047,0.854-1.869,1.901-1.869C22.144,4.87,22.997,5.692,22.997,6.739z"/>
	<path fill="#2E3192" d="M36.509,15.279c0.161,0.58,0.242,1.128,0.258,1.676c0.081,0.29,0.193,0.563,0.354,0.854
		c0.419,0.757,1.031,1.434,1.74,1.434c0.967,0,1.757,0.789,1.757,1.756s-0.79,1.757-1.757,1.757c-1.369,0-2.643-0.838-3.609-1.966
		c-2.159,2.336-6.155,2.885-8.572,0.064c-0.967,1.096-2.175,1.901-3.513,1.901c-0.967,0-1.74-0.79-1.74-1.757
		s0.773-1.756,1.74-1.756c0.709,0,1.321-0.677,1.74-1.434c0.161-0.291,0.258-0.564,0.322-0.854c-0.112-2.191,0.436-4.817,1.16-7.138
		c0.661-0.403,1.467-0.564,2.32-0.564C31.756,9.268,35.494,11.686,36.509,15.279z M28.936,18.485
		c1.031,1.048,2.675,0.807,3.545,0.033c1.886-1.676-0.516-4.867-3.077-5.721C28.549,14.522,27.84,17.389,28.936,18.485z"/>
	<path fill="#2E3192" d="M45.902,10.17c0.902,2.418,0.741,4.818,0.451,6.816c0.081,0.29,0.178,0.564,0.339,0.854
		c0.402,0.758,1.031,1.402,1.724,1.402c0.967,0,1.757,0.789,1.757,1.756s-0.79,1.757-1.757,1.757c-1.45,0-2.771-0.919-3.754-2.175
		c-1.435,1.53-3.513,2.175-5.479,2.175c-0.967,0-1.757-0.79-1.757-1.757s0.79-1.756,1.757-1.756c0.306,0,0.677-0.016,0.982-0.097
		c1.708-0.419,2.369-1.289,2.562-2.981c0.258-2.497-1.386-4.688-1.386-4.688c0.322-1.192,1.901-1.853,3.109-1.901
		C45.193,9.559,45.79,9.752,45.902,10.17z M43.405,6.739c0,1.031-0.854,1.885-1.901,1.885c-1.031,0-1.901-0.854-1.901-1.885
		c0-1.047,0.87-1.869,1.901-1.869C42.551,4.87,43.405,5.692,43.405,6.739z M47.997,6.739c0,1.031-0.854,1.885-1.901,1.885
		c-1.047,0-1.901-0.854-1.901-1.885c0-1.047,0.854-1.869,1.901-1.869C47.144,4.87,47.997,5.692,47.997,6.739z"/>
	<path fill="#2E3192" d="M53.984,10.139c0.886,2.416,0.709,4.914,0.419,6.912c0.08,0.258,0.161,0.516,0.306,0.758
		c0.403,0.757,1.063,1.434,1.757,1.434c0.306,0,0.677-0.049,0.982-0.129c1.725-0.402,1.611-2.353,1.611-2.98
		c0-2.707-1.369-4.674-1.369-4.674c0.516-1.934,4.27-2.433,4.576-1.32c0.902,2.416,0.709,4.817,0.435,6.815
		c0.064,0.29,0.193,0.58,0.354,0.854c0.419,0.757,1.031,1.434,1.74,1.434c0.29,0,0.661-0.049,0.983-0.129
		c1.708-0.402,2.368-1.289,2.546-2.98c0.273-2.498-1.37-4.674-1.37-4.674c0.516-1.934,4.254-2.433,4.544-1.32
		c0.902,2.416,0.741,4.688,0.468,6.687c-0.597,4.222-4.028,5.93-7.171,5.93c-1.386,0-2.675-0.87-3.642-2.03
		c-1.16,1.402-2.787,2.03-4.688,2.03c-1.37,0-2.659-0.854-3.626-1.998c-1.16,1.386-2.771,1.998-4.656,1.998
		c-0.967,0-1.757-0.79-1.757-1.757s0.79-1.756,1.757-1.756c0.29,0,0.66-0.049,0.982-0.129c1.708-0.402,1.611-2.353,1.611-2.98
		c0-2.707-1.386-4.674-1.386-4.674c0.322-1.208,1.934-1.836,3.143-1.869C53.275,9.559,53.871,9.719,53.984,10.139z"/>
	<path fill="#2E3192" d="M78.565,0.583c0.821,2.449,0.741,19.626,0.451,21.624c-2.095,1.209-3.884,0.145-3.658-0.725
		c0.258-2.498-1.354-19.594-1.354-19.594c0.322-1.193,1.869-1.854,3.078-1.886C77.824-0.029,78.42,0.18,78.565,0.583z"/>
	<path fill="#2E3192" d="M91.785,9.461c1.691,3.062,0.757,8.009-0.79,10.716c-1.418,2.449-4.237,4.447-6.719,4.447
		c-0.79,0-1.579,0.21-2.127,0.532c-0.677-0.387-0.967-1.096-0.983-1.934c-0.016-0.613,0.322-1.58,0.919-1.934
		c0.563-0.322,1.45-0.162,2.191-0.162c0.306,0,0.692-0.016,1.015-0.096c1.177-0.291,2.272-0.807,2.917-1.645
		c-3.433-0.74-6.333-2.385-7.042-5.591c-0.935-4.189,2.224-7.251,5.64-7.251C88.675,6.545,90.608,7.368,91.785,9.461z
		 M85.291,10.784c-0.982,0.869-0.886,2.046,0.032,3.109c1.08,1.225,2.562,1.885,4.222,2.224c0.436-1.901,0.322-4.237-0.709-5.269
		c-0.499-0.5-1.096-0.726-1.708-0.726C86.436,10.106,85.759,10.364,85.291,10.784z"/>
	<path fill="#2E3192" d="M111.237,7.448c0.645,0.016,1.176,0.226,1.305,0.596c0.822,2.434,0.741,6.51,0.451,8.508
		c-0.016,0.162-0.064,0.307-0.097,0.468c0.081,0.258,0.193,0.548,0.339,0.821c0.402,0.758,1.047,1.402,1.756,1.402
		c0.967,0,1.757,0.789,1.757,1.756s-0.79,1.74-1.757,1.74c-1.45,0-2.804-0.934-3.786-2.191c-0.113,0.129-0.193,0.227-0.307,0.339
		c-4.85,4.834-12.52-1.257-9.007-7.154c1.354-2.256,3.867-3.593,6.252-3.915c-0.097-0.307-0.193-0.5-0.193-0.5
		c0.338-1.225,1.966-1.854,3.19-1.869H111.237z M106.693,3.758c0,1.047-0.854,1.9-1.886,1.9c-1.063,0-1.869-0.854-1.869-1.9
		c0-1.048,0.806-1.902,1.869-1.902C105.839,1.856,106.693,2.71,106.693,3.758z M104.969,17.938c0.645,0.95,2.176,1.611,3.448,0.886
		c1.338-0.79,1.386-3.755,1.016-5.64C106.726,13.362,103.583,15.811,104.969,17.938z M111.317,3.758c0,1.047-0.854,1.9-1.901,1.9
		c-1.047,0-1.901-0.854-1.901-1.9c0-1.048,0.854-1.902,1.901-1.902C110.464,1.856,111.317,2.71,111.317,3.758z"/>
	<path fill="#2E3192" d="M121.902,10.333c0.902,2.416,0.741,4.801,0.451,6.815c0.081,0.29,0.178,0.563,0.339,0.854
		c0.402,0.757,1.031,1.401,1.724,1.401c0.967,0,1.757,0.79,1.757,1.757s-0.79,1.74-1.757,1.74c-1.45,0-2.771-0.919-3.754-2.16
		c-1.435,1.531-3.513,2.176-5.479,2.16c-0.967,0-1.757-0.773-1.757-1.74s0.79-1.757,1.757-1.757c0.306,0,0.677-0.017,0.982-0.097
		c1.708-0.419,2.369-1.305,2.562-2.98c0.258-2.498-1.386-4.689-1.386-4.689c0.322-1.209,1.901-1.854,3.109-1.901
		C121.193,9.719,121.79,9.913,121.902,10.333z M121.709,26.219c0,1.048-0.854,1.902-1.901,1.902c-1.047,0-1.901-0.854-1.901-1.902
		c0-1.047,0.854-1.869,1.901-1.869C120.855,24.35,121.709,25.172,121.709,26.219z"/>
	<path fill="#2E3192" d="M129.984,10.139c0.886,2.416,0.709,4.914,0.419,6.912c0.08,0.258,0.161,0.516,0.306,0.758
		c0.403,0.757,1.063,1.434,1.757,1.434c0.306,0,0.677-0.049,0.982-0.129c1.725-0.402,1.611-2.353,1.611-2.98
		c0-2.707-1.369-4.674-1.369-4.674c0.516-1.934,4.27-2.433,4.576-1.32c0.902,2.416,0.709,4.817,0.435,6.815
		c0.064,0.29,0.193,0.58,0.354,0.854c0.419,0.757,1.031,1.434,1.74,1.434c0.29,0,0.661-0.049,0.983-0.129
		c1.708-0.402,2.368-1.289,2.546-2.98c0.273-2.498-1.37-4.674-1.37-4.674c0.516-1.934,4.254-2.433,4.544-1.32
		c0.902,2.416,0.741,4.688,0.468,6.687c-0.597,4.222-4.028,5.93-7.171,5.93c-1.386,0-2.675-0.87-3.642-2.03
		c-1.16,1.402-2.787,2.03-4.688,2.03c-1.37,0-2.659-0.854-3.626-1.998c-1.16,1.386-2.771,1.998-4.656,1.998
		c-0.967,0-1.757-0.79-1.757-1.757s0.79-1.756,1.757-1.756c0.29,0,0.66-0.049,0.982-0.129c1.708-0.402,1.611-2.353,1.611-2.98
		c0-2.707-1.386-4.674-1.386-4.674c0.322-1.208,1.934-1.836,3.143-1.869C129.275,9.559,129.871,9.719,129.984,10.139z"/>
	<path fill="#2E3192" d="M154.565,0.6c0.709,2.127,0.741,10.973,0.548,14.614v0.064c0,0.017,0,0.048,0,0.064
		c-0.017,0.258,0,0.516,0.032,0.79c0.177,1.676,0.854,2.578,2.562,2.98c0.307,0.08,0.677,0.129,0.983,0.129
		c0.967,0,1.74,0.789,1.74,1.756s-0.773,1.757-1.74,1.757c-4.561,0-6.559-2.368-7.315-6.944c-0.403-2.498-1.37-13.891-1.37-13.891
		c0.322-1.208,1.869-1.836,3.078-1.869C153.808,0.02,154.42,0.197,154.565,0.6z"/>
	<path fill="#2E3192" d="M163.968,10.17c0.902,2.418,0.758,4.674,0.468,6.688c-0.017,0.064-0.032,0.129-0.032,0.193
		c0.064,0.258,0.177,0.516,0.322,0.789c0.419,0.758,1.031,1.402,1.74,1.402c0.967,0,1.756,0.789,1.756,1.756s-0.789,1.74-1.756,1.74
		c-1.37,0-2.643-0.821-3.609-1.949c-1.145,1.369-2.804,1.949-4.673,1.949c-0.983,0-1.757-0.773-1.757-1.74s0.773-1.756,1.757-1.756
		c0.29,0,0.66-0.049,0.982-0.129c1.692-0.419,1.628-2.369,1.628-2.98c0-2.724-1.37-4.689-1.37-4.689
		c0.322-1.209,1.886-1.82,3.11-1.869C163.259,9.559,163.855,9.752,163.968,10.17z M162.728,6.69c0,1.048-0.854,1.902-1.901,1.902
		c-1.048,0-1.901-0.854-1.901-1.902c0-1.031,0.854-1.9,1.901-1.9C161.873,4.79,162.728,5.659,162.728,6.69z"/>
	<path fill="#2E3192" d="M179.509,15.279c0.161,0.58,0.242,1.128,0.258,1.676c0.081,0.29,0.193,0.563,0.354,0.854
		c0.419,0.757,1.031,1.434,1.74,1.434c0.967,0,1.757,0.789,1.757,1.756s-0.79,1.757-1.757,1.757c-1.369,0-2.643-0.838-3.609-1.966
		c-2.159,2.336-6.155,2.885-8.572,0.064c-0.967,1.096-2.175,1.901-3.513,1.901c-0.967,0-1.74-0.79-1.74-1.757
		s0.773-1.756,1.74-1.756c0.709,0,1.321-0.677,1.74-1.434c0.161-0.291,0.258-0.564,0.322-0.854c-0.112-2.191,0.436-4.817,1.16-7.138
		c0.661-0.403,1.467-0.564,2.32-0.564C174.756,9.268,178.494,11.686,179.509,15.279z M171.936,18.485
		c1.031,1.048,2.675,0.807,3.545,0.033c1.886-1.676-0.516-4.867-3.077-5.721C171.549,14.522,170.84,17.389,171.936,18.485z"/>
	<path fill="#2E3192" d="M189.354,16.487c-0.596,4.223-4.028,6.269-7.187,6.269c-0.967,0-1.74-0.79-1.74-1.757
		s0.773-1.756,1.74-1.756c0.307,0,0.677-0.049,0.983-0.129c1.724-0.402,2.385-1.644,2.562-3.336
		c0.258-2.497-1.386-13.841-1.386-13.841c0.516-1.934,4.206-2.401,4.576-1.306C189.725,3.081,189.644,14.489,189.354,16.487z"/>
	<path fill="#2E3192" d="M195.565,0.583c0.821,2.449,0.741,19.626,0.451,21.624c-2.095,1.209-3.884,0.145-3.658-0.725
		c0.258-2.498-1.354-19.594-1.354-19.594c0.322-1.193,1.869-1.854,3.078-1.886C194.824-0.029,195.42,0.18,195.565,0.583z"/>
	<path fill="#2E3192" d="M210.226,15.489c0,0-1.644,2.191-1.369,4.688c0.177,1.676,0.838,3.19,2.546,3.593
		c0.322,0.081,0.628,0.146,0.918,0.146c0.307,0,0.597-0.064,0.919-0.146c1.708-0.402,2.368-1.917,2.562-3.593
		c0.258-2.497-1.418-4.688-1.418-4.688c0.516-1.934,4.286-2.418,4.593-1.306c0.886,2.417,0.741,4.688,0.451,6.687
		c-0.597,4.223-3.964,6.252-7.106,6.252c-3.142,0-6.51-2.029-7.105-6.252c-0.274-1.998-0.436-4.27,0.467-6.687
		c0.113-0.419,0.709-0.612,1.435-0.597C208.341,13.635,209.903,14.28,210.226,15.489z M214.189,10.187
		c0,1.048-0.854,1.869-1.901,1.869c-1.047,0-1.901-0.821-1.901-1.869s0.854-1.901,1.901-1.901
		C213.336,8.286,214.189,9.139,214.189,10.187z"/>
	<path fill="#2E3192" d="M225.565,0.583c0.821,2.449,0.741,19.626,0.451,21.624c-2.095,1.209-3.884,0.145-3.658-0.725
		c0.258-2.498-1.354-19.594-1.354-19.594c0.322-1.193,1.869-1.854,3.078-1.886C224.824-0.029,225.42,0.18,225.565,0.583z"/>
	<path fill="#2E3192" d="M243.168,20.951c0,0.967-0.773,1.74-1.74,1.74v0.017c-0.999,0-1.966-0.451-2.788-1.145
		c-0.193,0.5-0.419,0.967-0.645,1.369c-1.418,2.434-4.237,4.447-6.719,4.447c-0.79,0-1.579,0.21-2.127,0.532
		c-0.677-0.403-0.967-1.096-0.983-1.934c-0.016-0.612,0.322-1.595,0.919-1.934c0.563-0.322,1.466-0.177,2.191-0.161
		c0.306,0,0.692-0.032,1.015-0.113c1.177-0.273,2.272-0.773,2.917-1.595c-3.433-0.757-6.333-2.433-7.042-5.64
		c-0.935-4.189,2.224-7.234,5.64-7.234c1.854,0,3.787,0.805,4.979,2.916c0.709,1.289,0.967,2.916,0.886,4.561
		c0.193,0.902,0.597,2.416,1.757,2.416C242.395,19.194,243.168,19.984,243.168,20.951z M235.836,13.586
		c-0.499-0.482-1.096-0.709-1.708-0.725c-0.692,0-1.369,0.258-1.837,0.66c-0.982,0.871-0.886,2.047,0.032,3.11
		c1.063,1.241,2.562,1.886,4.222,2.224C236.98,16.971,236.867,14.634,235.836,13.586z"/>
	<path fill="#2E3192" d="M248.354,16.487c-0.596,4.223-4.028,6.269-7.187,6.269c-0.967,0-1.74-0.79-1.74-1.757
		s0.773-1.756,1.74-1.756c0.307,0,0.677-0.049,0.983-0.129c1.724-0.402,2.385-1.644,2.562-3.336
		c0.258-2.497-1.386-13.841-1.386-13.841c0.516-1.934,4.206-2.401,4.576-1.306C248.725,3.081,248.644,14.489,248.354,16.487z"/>
	<path fill="#2E3192" d="M263.17,15.295c0,3.142-1.644,6.252-5.897,7.17c-1.966,0.419-4.271,0.436-6.688-0.467
		c-1.111-0.291-0.628-4.045,1.306-4.561c0,0,2.175,1.644,4.673,1.369c0.725-0.08,1.289-0.241,1.74-0.547
		c-1.789-0.322-3.11-1.306-4.303-4.077c-0.628-1.499-1.272-4.335-1.917-5.462h-0.017c0.339-1.241,1.95-1.869,3.175-1.886h0.112
		c0.645,0,1.177,0.193,1.289,0.58c0.436,1.306,0.193,3.657,0.645,4.882c0.371,1.08,0.951,1.998,2.062,2.401
		c-0.338-5.978-1.321-12.745-1.321-12.745c0.532-1.934,4.206-2.401,4.576-1.306C263.428,3.081,263.17,13.297,263.17,15.295z
		 M254.42,1.696c0,0-0.273,1.079-0.902,1.24c-1.289-0.612-2.723,0.273-1.676,1.321c0.5,0.499,1.063,0.339,1.837,0.097
		c0.436-0.129,0.902-0.209,1.435-0.161c0.387,0,0.563,1.306,0,1.628c0,0-0.773-0.129-1.547,0.177c-0.758,0.322-1.16,0.95-1.16,0.95
		c-0.629,0.162-1.402-0.886-1.128-1.16c0.145-0.177,0.306-0.338,0.467-0.467c-1.096-0.531-1.579-1.644-1.16-2.723
		c0.274-0.693,0.87-1.145,1.515-1.338C252.954,1.018,253.904,1.164,254.42,1.696z"/>
	<path fill="#2E3192" d="M269.565,0.583c0.821,2.449,0.741,19.626,0.451,21.624c-2.095,1.209-3.884,0.145-3.658-0.725
		c0.258-2.498-1.354-19.594-1.354-19.594c0.322-1.193,1.869-1.854,3.078-1.886C268.824-0.029,269.42,0.18,269.565,0.583z"/>
	<path fill="#2E3192" d="M282.785,9.461c1.691,3.062,0.757,8.009-0.79,10.716c-1.418,2.449-4.237,4.447-6.719,4.447
		c-0.79,0-1.579,0.21-2.127,0.532c-0.677-0.387-0.967-1.096-0.983-1.934c-0.016-0.613,0.322-1.58,0.919-1.934
		c0.563-0.322,1.45-0.162,2.191-0.162c0.306,0,0.692-0.016,1.015-0.096c1.177-0.291,2.272-0.807,2.917-1.645
		c-3.433-0.74-6.333-2.385-7.042-5.591c-0.935-4.189,2.224-7.251,5.64-7.251C279.675,6.545,281.608,7.368,282.785,9.461z
		 M276.291,10.784c-0.982,0.869-0.886,2.046,0.032,3.109c1.08,1.225,2.562,1.885,4.222,2.224c0.436-1.901,0.322-4.237-0.709-5.269
		c-0.499-0.5-1.096-0.726-1.708-0.726C277.436,10.106,276.759,10.364,276.291,10.784z"/>
	<path fill="#2E3192" d="M298.354,6.481c1.934,1.691,3.899,5.301,4.657,7.17c0.548,1.37,0.677,2.643,0.516,3.836
		c-0.049,0.322-0.081,0.645-0.161,0.95c-1.772,6.606-11.457,5.188-11.36-1.676c0.032-2.643,1.531-5.075,3.433-6.542l-0.387-0.338
		c-0.354-1.258,0.821-2.643,1.901-3.239c0.354-0.193,0.692-0.306,0.982-0.29C298.096,6.352,298.241,6.368,298.354,6.481z
		 M297.693,3.758c0,1.047-0.854,1.9-1.886,1.9c-1.063,0-1.869-0.854-1.869-1.9c0-1.048,0.806-1.902,1.869-1.902
		C296.839,1.856,297.693,2.71,297.693,3.758z M296.742,18.824c1.048,0.516,2.724,0.322,3.448-0.95
		c0.773-1.338-0.66-3.916-1.934-5.366C296.001,14.006,294.486,17.696,296.742,18.824z M302.317,3.758c0,1.047-0.854,1.9-1.901,1.9
		c-1.047,0-1.901-0.854-1.901-1.9c0-1.048,0.854-1.902,1.901-1.902C301.464,1.856,302.317,2.71,302.317,3.758z"/>
	<path fill="#2E3192" d="M309.565,0.6c0.709,2.127,0.741,10.973,0.548,14.614v0.064c0,0.017,0,0.048,0,0.064
		c-0.017,0.258,0,0.516,0.032,0.79c0.177,1.676,0.854,2.578,2.562,2.98c0.307,0.08,0.677,0.129,0.983,0.129
		c0.967,0,1.74,0.789,1.74,1.756s-0.773,1.757-1.74,1.757c-4.561,0-6.559-2.368-7.315-6.944c-0.403-2.498-1.37-13.891-1.37-13.891
		c0.322-1.208,1.869-1.836,3.078-1.869C308.808,0.02,309.42,0.197,309.565,0.6z"/>
	<path fill="#2E3192" d="M318.984,10.139c0.886,2.416,0.709,4.914,0.419,6.912c0.08,0.258,0.161,0.516,0.306,0.758
		c0.403,0.757,1.063,1.434,1.757,1.434c0.306,0,0.677-0.049,0.982-0.129c1.725-0.402,1.611-2.353,1.611-2.98
		c0-2.707-1.369-4.674-1.369-4.674c0.516-1.934,4.27-2.433,4.576-1.32c0.902,2.416,0.709,4.817,0.435,6.815
		c0.064,0.29,0.193,0.58,0.354,0.854c0.419,0.757,1.031,1.434,1.74,1.434c0.29,0,0.661-0.049,0.983-0.129
		c1.708-0.402,2.368-1.289,2.546-2.98c0.273-2.498-1.37-4.674-1.37-4.674c0.516-1.934,4.254-2.433,4.544-1.32
		c0.902,2.416,0.741,4.688,0.468,6.687c-0.597,4.222-4.028,5.93-7.171,5.93c-1.386,0-2.675-0.87-3.642-2.03
		c-1.16,1.402-2.787,2.03-4.688,2.03c-1.37,0-2.659-0.854-3.626-1.998c-1.16,1.386-2.771,1.998-4.656,1.998
		c-0.967,0-1.757-0.79-1.757-1.757s0.79-1.756,1.757-1.756c0.29,0,0.66-0.049,0.982-0.129c1.708-0.402,1.611-2.353,1.611-2.98
		c0-2.707-1.386-4.674-1.386-4.674c0.322-1.208,1.934-1.836,3.143-1.869C318.275,9.559,318.871,9.719,318.984,10.139z
		 M324.124,6.642c0,1.048-0.854,1.901-1.901,1.901c-1.047,0-1.901-0.854-1.901-1.901s0.854-1.901,1.901-1.901
		C323.271,4.741,324.124,5.594,324.124,6.642z M327.331,2.018c0,1.047-0.822,1.9-1.869,1.9c-1.048,0-1.901-0.854-1.901-1.9
		c0-1.048,0.854-1.869,1.901-1.869C326.509,0.149,327.331,0.97,327.331,2.018z M330.569,6.642c0,1.048-0.838,1.901-1.885,1.901
		c-1.048,0-1.901-0.854-1.901-1.901s0.854-1.901,1.901-1.901C329.731,4.741,330.569,5.594,330.569,6.642z"/>
	<path fill="#2E3192" d="M343.678,9.542c0.597,0,1.048,0.193,1.177,0.532c0.66,1.9,1.208,4.35,1.24,6.848
		c0.064,0.29,0.193,0.564,0.354,0.854c0.403,0.758,1.016,1.418,1.74,1.418c0.967,0,1.74,0.79,1.74,1.757s-0.773,1.74-1.74,1.74
		v0.017c-1.015,0-1.981-0.468-2.804-1.16c-0.773,2.223-2.256,4.205-4.817,5.526c-0.129,0.064-0.242,0.112-0.354,0.161
		c-0.951,0.451-2.933-2.127-2.03-3.674c0,0,1.031-0.113,2.127-0.709c3.013-1.66,2.594-6.188,0.451-11.617
		c0.29-1.08,1.708-1.66,2.804-1.692H343.678z"/>
	<path fill="#2E3192" d="M359.511,12.137c0.161,0.596,0.21,1.176,0.21,1.707c-0.049,1.902-0.838,3.771-2.305,5.302
		c0.354,0.048,0.726,0.097,1.128,0.097h1.596c0.967,0,1.756,0.789,1.756,1.756s-0.789,1.757-1.756,1.757h-0.983
		c-2.191,0-3.947-0.258-5.011-0.726c-1.063,0.468-2.788,0.726-5.173,0.726h-0.789c-0.967,0-1.757-0.79-1.757-1.757
		s0.79-1.756,1.757-1.756h1.272c0.5,0,0.951-0.016,1.386-0.097c-1.45-1.53-2.207-3.416-2.224-5.302
		c-0.016-0.531,0.017-1.111,0.161-1.707c0.726-2.917,2.981-4.447,5.366-4.447C356.514,7.69,358.786,9.22,359.511,12.137z
		 M356.047,3.854c0,1.048-0.854,1.902-1.901,1.902c-1.048,0-1.901-0.854-1.901-1.902c0-1.047,0.854-1.9,1.901-1.9
		C355.192,1.954,356.047,2.807,356.047,3.854z M352.373,14.86c0.064,0.273,0.145,0.531,0.241,0.789
		c0.307,0.871,0.854,1.563,1.531,2.096c0.677-0.532,1.257-1.225,1.579-2.096c0.08-0.258,0.129-0.516,0.193-0.789
		c0.161-1.934-0.645-3.174-1.772-3.174S352.212,12.926,352.373,14.86z"/>
	<path fill="#2E3192" d="M367.354,16.487c-0.596,4.223-4.028,6.269-7.187,6.269c-0.967,0-1.74-0.79-1.74-1.757
		s0.773-1.756,1.74-1.756c0.307,0,0.677-0.049,0.983-0.129c1.724-0.402,2.385-1.644,2.562-3.336
		c0.258-2.497-1.386-13.841-1.386-13.841c0.516-1.934,4.206-2.401,4.576-1.306C367.725,3.081,367.644,14.489,367.354,16.487z"/>
	<path fill="#2E3192" d="M373.565,0.583c0.821,2.449,0.741,19.626,0.451,21.624c-2.095,1.209-3.884,0.145-3.658-0.725
		c0.258-2.498-1.354-19.594-1.354-19.594c0.322-1.193,1.869-1.854,3.078-1.886C372.824-0.029,373.42,0.18,373.565,0.583z"/>
	<path fill="#2E3192" d="M387.678,9.542c0.597,0,1.048,0.193,1.177,0.532c0.66,1.9,1.208,4.35,1.24,6.848
		c0.064,0.29,0.193,0.564,0.354,0.854c0.403,0.758,1.016,1.418,1.74,1.418c0.967,0,1.74,0.79,1.74,1.757s-0.773,1.74-1.74,1.74
		v0.017c-1.015,0-1.981-0.468-2.804-1.16c-0.773,2.223-2.256,4.205-4.817,5.526c-0.129,0.064-0.242,0.112-0.354,0.161
		c-0.951,0.451-2.933-2.127-2.03-3.674c0,0,1.031-0.113,2.127-0.709c3.013-1.66,2.594-6.188,0.451-11.617
		c0.29-1.08,1.708-1.66,2.804-1.692H387.678z"/>
	<path fill="#2E3192" d="M398.902,10.17c0.902,2.418,0.741,4.818,0.451,6.816c0.081,0.29,0.178,0.564,0.339,0.854
		c0.402,0.758,1.031,1.402,1.724,1.402c0.967,0,1.757,0.789,1.757,1.756s-0.79,1.757-1.757,1.757c-1.45,0-2.771-0.919-3.754-2.175
		c-1.435,1.53-3.513,2.175-5.479,2.175c-0.967,0-1.757-0.79-1.757-1.757s0.79-1.756,1.757-1.756c0.306,0,0.677-0.016,0.982-0.097
		c1.708-0.419,2.369-1.289,2.562-2.981c0.258-2.497-1.386-4.688-1.386-4.688c0.322-1.192,1.901-1.853,3.109-1.901
		C398.193,9.559,398.79,9.752,398.902,10.17z M396.405,6.739c0,1.031-0.854,1.885-1.901,1.885c-1.031,0-1.901-0.854-1.901-1.885
		c0-1.047,0.87-1.869,1.901-1.869C395.551,4.87,396.405,5.692,396.405,6.739z M400.997,6.739c0,1.031-0.854,1.885-1.901,1.885
		c-1.047,0-1.901-0.854-1.901-1.885c0-1.047,0.854-1.869,1.901-1.869C400.144,4.87,400.997,5.692,400.997,6.739z"/>
	<path fill="#2E3192" d="M416.023,15.537c0.436,0.854,0.935,2.256,1.338,3.497c0.37,0.112,0.757,0.241,1.144,0.387
		c1.08,0.435,0.612,3.576-1.305,4.108c-6.397-2.853-9.507-0.597-16.017-0.597c-0.967,0-1.757-0.789-1.757-1.756
		s0.79-1.74,1.757-1.74c4.366-0.08,8.33-1.16,12.311-0.999c-0.193-0.628-0.612-2.144-0.629-2.159
		c-1.096-3.996-5.881-4.527-8.218-2.224c-1.998,0-3.416-3.48-2.417-4.061c1.402-0.967,2.933-1.45,4.447-1.466
		C410.287,8.479,413.913,11.008,416.023,15.537z M409.208,5.079c0,1.048-0.854,1.869-1.901,1.869c-1.048,0-1.901-0.821-1.901-1.869
		c0-1.047,0.854-1.9,1.901-1.9C408.354,3.178,409.208,4.032,409.208,5.079z"/>
	<path fill="#2E3192" d="M425.565,0.583c0.821,2.449,0.741,19.626,0.451,21.624c-2.095,1.209-3.884,0.145-3.658-0.725
		c0.258-2.498-1.354-19.594-1.354-19.594c0.322-1.193,1.869-1.854,3.078-1.886C424.824-0.029,425.42,0.18,425.565,0.583z"/>
	<path fill="#2E3192" d="M19.219,65.985c0.322,0.402,0.419,0.951,0.419,1.547s-0.129,1.16-0.451,1.547
		c-0.339,0.402-0.887,0.645-1.74,0.645c-0.854,0-1.402-0.242-1.725-0.645c-0.338-0.387-0.467-0.951-0.467-1.547
		s0.097-1.145,0.419-1.547c0.322-0.387,0.87-0.629,1.772-0.629S18.896,65.598,19.219,65.985z"/>
	<path fill="#2E3192" d="M25.814,47.6c0.709,2.127,0.741,10.973,0.548,14.614v0.064c0,0.017,0,0.048,0,0.064
		c-0.016,0.258,0,0.516,0.032,0.79c0.178,1.676,0.854,2.578,2.562,2.98c0.306,0.08,0.677,0.129,0.982,0.129
		c0.967,0,1.74,0.789,1.74,1.756s-0.773,1.757-1.74,1.757c-4.56,0-6.558-2.368-7.315-6.944c-0.402-2.498-1.369-13.891-1.369-13.891
		c0.322-1.208,1.869-1.836,3.077-1.869C25.058,47.02,25.67,47.197,25.814,47.6z"/>
	<path fill="#2E3192" d="M36.7,56.188c1.498,0.402,2.819,1.531,3.335,3.465c0.419,1.578-0.193,3.674-1.176,5.703
		c-0.049,0.098-0.081,0.21-0.129,0.291c-0.017,0.031-0.032,0.048-0.032,0.064c0.918,0.322,1.869,0.531,2.723,0.531
		c0.967,0,1.74,0.789,1.74,1.756s-0.773,1.74-1.74,1.74c-0.451,0-0.967-0.031-1.482-0.129c0.274,1.08,0.354,2.096,0.129,2.949
		c-0.516,1.949-1.837,3.078-3.335,3.48c-0.451,0.113-0.919,0.161-1.386,0.161c-2.498-0.032-5.012-1.837-4.979-5.075
		c0.017-0.5,0.097-1,0.21-1.482c-0.419,0.064-0.822,0.096-1.145,0.096c-0.967,0-1.756-0.773-1.756-1.74s0.789-1.756,1.756-1.756
		c0.29,0,2.127-0.016,3.014-0.226c0.016-0.017,0.032,0,0.064,0c-0.064-0.064-0.146-0.161-0.21-0.241
		c-1.128-1.225-1.934-2.9-1.966-4.674c-0.032-3.254,2.481-5.059,4.979-5.075C35.781,56.01,36.249,56.059,36.7,56.188z
		 M34.541,59.894c-1.145,0.563-0.822,2.11,0.064,3.239c0.209,0.273,0.58,0.611,0.918,0.886c0.822-0.95,1.74-2.626,1.241-3.513
		c-0.226-0.387-0.564-0.645-0.951-0.758c-0.161-0.031-0.354-0.064-0.531-0.064C35.008,59.684,34.767,59.782,34.541,59.894z
		 M34.573,72.333c0.226,0.112,0.499,0.193,0.773,0.193c0.177,0,0.338-0.048,0.499-0.097c0.387-0.097,0.726-0.322,0.951-0.725
		c0.499-0.871-0.419-2.547-1.241-3.497C34.105,69.208,33.106,71.608,34.573,72.333z"/>
	<path fill="#2E3192" d="M48.136,57.333c0.902,2.416,0.741,4.672,0.468,6.687c-0.612,4.222-4.028,5.882-7.171,5.882
		c-0.982,0-1.756-0.773-1.756-1.74s0.773-1.757,1.756-1.757c0.29,0,0.661-0.048,0.983-0.129c1.708-0.419,2.368-1.306,2.546-2.981
		c0.273-2.497-1.402-4.688-1.402-4.688c0.322-1.208,1.918-1.821,3.143-1.869C47.427,56.719,48.023,56.913,48.136,57.333z
		 M46.154,73.219c0,1.048-0.854,1.902-1.901,1.902c-1.048,0-1.901-0.854-1.901-1.902c0-1.047,0.854-1.869,1.901-1.869
		C45.3,71.35,46.154,72.172,46.154,73.219z"/>
	<path fill="#2E3192" d="M61.814,47.02c0.387,1.127,0.564,5.414,0.629,9.861c0.258-0.258,0.483-0.516,0.757-0.758
		c4.222-3.803,12.085-1.063,12.085,7.332l-0.032,2.723c0.29,0.032,0.645,0.064,0.806,0.064c0.967,0,1.757,0.789,1.757,1.756
		s-0.79,1.757-1.757,1.757c-3.158,0-6.026-0.967-11.359-0.821c-2.595,0.064-5.607,1.401-5.607,1.401
		c-1.934-0.516-2.288-3.48-1.306-4.093c0.403-0.242,0.919-0.436,1.482-0.58c-0.209-5.221-1.386-17.338-1.386-17.338
		c0.322-1.209,1.628-1.854,2.659-1.901C61.154,46.407,61.686,46.6,61.814,47.02z M62.443,63.487
		c-0.017,0.613-0.032,1.225-0.032,1.74c2.755-0.112,5.994,0.193,8.669,0.5c0.258-3.109,0-7.058-2.127-7.928
		c-0.371-0.161-0.726-0.258-1.112-0.273C65.215,57.413,62.588,60.362,62.443,63.487z M69.34,50.887c0,1.047-0.854,1.9-1.901,1.9
		c-1.048,0-1.901-0.854-1.901-1.9c0-1.031,0.854-1.902,1.901-1.902C68.485,48.985,69.34,49.856,69.34,50.887z"/>
	<path fill="#2E3192" d="M87.761,59.137c0.161,0.596,0.209,1.176,0.209,1.707c-0.048,1.902-0.838,3.771-2.304,5.302
		c0.354,0.048,0.725,0.097,1.128,0.097h1.595c0.967,0,1.757,0.789,1.757,1.756s-0.79,1.757-1.757,1.757h-0.982
		c-2.191,0-3.948-0.258-5.012-0.726c-1.063,0.468-2.787,0.726-5.172,0.726h-0.79c-0.967,0-1.756-0.79-1.756-1.757
		s0.789-1.756,1.756-1.756h1.273c0.499,0,0.95-0.016,1.386-0.097c-1.45-1.53-2.208-3.416-2.224-5.302
		c-0.017-0.531,0.016-1.111,0.161-1.707c0.725-2.917,2.98-4.447,5.365-4.447C84.764,54.69,87.035,56.22,87.761,59.137z
		 M84.296,50.854c0,1.048-0.854,1.902-1.901,1.902c-1.047,0-1.901-0.854-1.901-1.902c0-1.047,0.854-1.9,1.901-1.9
		C83.442,48.954,84.296,49.807,84.296,50.854z M80.622,61.86c0.064,0.273,0.146,0.531,0.242,0.789
		c0.306,0.871,0.854,1.563,1.53,2.096c0.677-0.532,1.257-1.225,1.579-2.096c0.081-0.258,0.129-0.516,0.193-0.789
		c0.161-1.934-0.645-3.174-1.772-3.174S80.461,59.926,80.622,61.86z"/>
	<path fill="#2E3192" d="M95.152,57.17c0.902,2.418,0.741,4.818,0.451,6.816c0.08,0.29,0.177,0.564,0.338,0.854
		c0.403,0.758,1.031,1.402,1.725,1.402c0.967,0,1.756,0.789,1.756,1.756s-0.789,1.757-1.756,1.757c-1.45,0-2.771-0.919-3.755-2.175
		c-1.434,1.53-3.513,2.175-5.479,2.175c-0.967,0-1.756-0.79-1.756-1.757s0.789-1.756,1.756-1.756c0.307,0,0.677-0.016,0.983-0.097
		c1.708-0.419,2.368-1.289,2.562-2.981c0.258-2.497-1.386-4.688-1.386-4.688c0.322-1.192,1.901-1.853,3.11-1.901
		C94.443,56.559,95.039,56.752,95.152,57.17z M92.654,53.739c0,1.031-0.854,1.885-1.901,1.885c-1.031,0-1.901-0.854-1.901-1.885
		c0-1.047,0.87-1.869,1.901-1.869C91.801,51.87,92.654,52.692,92.654,53.739z M97.247,53.739c0,1.031-0.854,1.885-1.901,1.885
		c-1.048,0-1.901-0.854-1.901-1.885c0-1.047,0.854-1.869,1.901-1.869C96.393,51.87,97.247,52.692,97.247,53.739z"/>
	<path fill="#2E3192" d="M112.257,62.343c0.436,0.854,0.951,2.256,1.354,3.513c0.371,0.113,0.758,0.242,1.145,0.387
		c1.063,0.419,0.612,3.577-1.321,4.093c-6.397-2.853-9.507-0.58-16.017-0.58c-0.967,0-1.74-0.79-1.74-1.757s0.773-1.756,1.74-1.756
		c4.383-0.064,8.347-1.145,12.326-0.982c-0.193-0.645-0.628-2.16-0.628-2.16c-1.096-3.996-5.882-4.527-8.218-2.223
		c-1.998,0-3.433-3.48-2.434-4.061c1.418-0.967,2.933-1.451,4.464-1.482C106.537,55.301,110.162,57.832,112.257,62.343z"/>
	<path fill="#2E3192" d="M121.814,47.583c0.822,2.449,0.741,19.626,0.451,21.624c-2.095,1.209-3.883,0.145-3.657-0.725
		c0.258-2.498-1.354-19.594-1.354-19.594c0.322-1.193,1.869-1.854,3.077-1.886C121.073,46.971,121.67,47.18,121.814,47.583z"/>
	<path fill="#2E3192" d="M135.034,56.461c1.692,3.062,0.758,8.009-0.789,10.716c-1.418,2.449-4.238,4.447-6.72,4.447
		c-0.789,0-1.579,0.21-2.127,0.532c-0.677-0.387-0.967-1.096-0.982-1.934c-0.017-0.613,0.322-1.58,0.918-1.934
		c0.564-0.322,1.45-0.162,2.191-0.162c0.307,0,0.693-0.016,1.016-0.096c1.176-0.291,2.271-0.807,2.916-1.645
		c-3.432-0.74-6.332-2.385-7.041-5.591c-0.935-4.189,2.224-7.251,5.64-7.251C131.925,53.545,133.858,54.368,135.034,56.461z
		 M128.541,57.784c-0.983,0.869-0.887,2.046,0.032,3.109c1.079,1.225,2.562,1.885,4.222,2.224c0.435-1.901,0.322-4.237-0.709-5.269
		c-0.5-0.5-1.096-0.726-1.708-0.726C129.685,57.106,129.008,57.364,128.541,57.784z"/>
	<path fill="#2E3192" d="M148.814,47.6c0.709,2.127,0.741,10.973,0.548,14.614v0.064c0,0.017,0,0.048,0,0.064
		c-0.016,0.258,0,0.516,0.032,0.79c0.178,1.676,0.854,2.578,2.562,2.98c0.306,0.08,0.677,0.129,0.982,0.129
		c0.967,0,1.74,0.789,1.74,1.756s-0.773,1.757-1.74,1.757c-4.56,0-6.558-2.368-7.315-6.944c-0.402-2.498-1.369-13.891-1.369-13.891
		c0.322-1.208,1.869-1.836,3.077-1.869C148.058,47.02,148.67,47.197,148.814,47.6z"/>
	<path fill="#2E3192" d="M159.7,56.188c1.498,0.402,2.819,1.531,3.335,3.465c0.419,1.578-0.193,3.674-1.176,5.703
		c-0.049,0.098-0.081,0.21-0.129,0.291c-0.017,0.031-0.032,0.048-0.032,0.064c0.918,0.322,1.869,0.531,2.723,0.531
		c0.967,0,1.74,0.789,1.74,1.756s-0.773,1.74-1.74,1.74c-0.451,0-0.967-0.031-1.482-0.129c0.274,1.08,0.354,2.096,0.129,2.949
		c-0.516,1.949-1.837,3.078-3.335,3.48c-0.451,0.113-0.919,0.161-1.386,0.161c-2.498-0.032-5.012-1.837-4.979-5.075
		c0.017-0.5,0.097-1,0.21-1.482c-0.419,0.064-0.822,0.096-1.145,0.096c-0.967,0-1.756-0.773-1.756-1.74s0.789-1.756,1.756-1.756
		c0.29,0,2.127-0.016,3.014-0.226c0.016-0.017,0.032,0,0.064,0c-0.064-0.064-0.146-0.161-0.21-0.241
		c-1.128-1.225-1.934-2.9-1.966-4.674c-0.032-3.254,2.481-5.059,4.979-5.075C158.781,56.01,159.249,56.059,159.7,56.188z
		 M157.541,59.894c-1.145,0.563-0.822,2.11,0.064,3.239c0.209,0.273,0.58,0.611,0.918,0.886c0.822-0.95,1.74-2.626,1.241-3.513
		c-0.226-0.387-0.564-0.645-0.951-0.758c-0.161-0.031-0.354-0.064-0.531-0.064C158.008,59.684,157.767,59.782,157.541,59.894z
		 M157.573,72.333c0.226,0.112,0.499,0.193,0.773,0.193c0.177,0,0.338-0.048,0.499-0.097c0.387-0.097,0.726-0.322,0.951-0.725
		c0.499-0.871-0.419-2.547-1.241-3.497C157.105,69.208,156.106,71.608,157.573,72.333z"/>
	<path fill="#2E3192" d="M176.646,55.399c4.383,2.449,3.706,7.154,0.436,10.425c1.208,0.274,2.417,0.419,3.496,0.419
		c0.967,0,1.757,0.789,1.757,1.756s-0.79,1.757-1.757,1.757c-2.433,0-4.802-0.403-7.009-1.482c-2.771,1.354-5.398,1.482-9.137,1.482
		c-0.967,0-1.756-0.79-1.756-1.757s0.789-1.756,1.756-1.756c2.079,0,3.899-0.178,5.431-0.516c-2.111-1.805-3.996-4.061-4.673-6.623
		c0.692-2.738,3.754-4.77,7.138-4.817C173.763,54.27,175.261,54.625,176.646,55.399z M169.122,59.202
		c0.725,1.756,2.4,3.898,4.254,5.14c1.111-0.773,1.724-1.757,1.805-2.981c0.129-2.239-1.418-3.254-3.143-3.238
		C171.023,58.122,169.943,58.493,169.122,59.202z"/>
	<path fill="#2E3192" d="M187.152,57.333c0.902,2.416,0.741,4.801,0.451,6.815c0.08,0.29,0.177,0.563,0.338,0.854
		c0.403,0.757,1.031,1.401,1.725,1.401c0.967,0,1.756,0.79,1.756,1.757s-0.789,1.74-1.756,1.74c-1.45,0-2.771-0.919-3.755-2.16
		c-1.434,1.531-3.513,2.176-5.479,2.16c-0.967,0-1.756-0.773-1.756-1.74s0.789-1.757,1.756-1.757c0.307,0,0.677-0.017,0.983-0.097
		c1.708-0.419,2.368-1.305,2.562-2.98c0.258-2.498-1.386-4.689-1.386-4.689c0.322-1.209,1.901-1.854,3.11-1.901
		C186.443,56.719,187.039,56.913,187.152,57.333z M186.959,73.219c0,1.048-0.854,1.902-1.901,1.902
		c-1.048,0-1.901-0.854-1.901-1.902c0-1.047,0.854-1.869,1.901-1.869C186.104,71.35,186.959,72.172,186.959,73.219z"/>
	<path fill="#2E3192" d="M193.349,47.02c0.387,1.127,0.563,5.414,0.628,9.861c0.258-0.258,0.516-0.516,0.79-0.758
		c4.222-3.803,12.085-1.063,12.085,7.332l-0.032,2.239c0.612,0.146,1.208,0.322,1.805,0.548c1.063,0.419,0.645,3.577-1.273,4.093
		c-6.413-2.853-11.424-0.58-17.918-0.58c-0.967,0-1.756-0.79-1.756-1.757s0.789-1.756,1.756-1.756c0.436,0,0.935-0.032,1.402-0.064
		c-0.146-4.914-1.402-17.854-1.402-17.854c0.322-1.209,1.628-1.854,2.643-1.901C192.688,46.407,193.22,46.6,193.349,47.02z
		 M193.977,63.422v0.064c-0.016,0.902-0.016,1.725-0.032,2.434c2.9-0.307,5.865-0.725,8.718-0.693
		c0.177-3.013-0.146-6.605-2.159-7.428c-0.371-0.161-0.741-0.258-1.112-0.273C196.765,57.413,194.154,60.329,193.977,63.422z"/>
	<path fill="#2E3192" d="M215.814,47.583c0.822,2.449,0.741,19.626,0.451,21.624c-2.095,1.209-3.883,0.145-3.657-0.725
		c0.258-2.498-1.354-19.594-1.354-19.594c0.322-1.193,1.869-1.854,3.077-1.886C215.073,46.971,215.67,47.18,215.814,47.583z"/>
	<path fill="#2E3192" d="M237.646,57.784c1.772,1.595,2.224,4.318,2.804,6.558c0.548,1.788,1.386,1.901,2.111,1.901
		c0.967,0,1.756,0.789,1.756,1.756s-0.789,1.757-1.756,1.757c-1.934,0-4.254-1.177-5.044-4.093c-0.87-3.207-2.4-6.574-5.027-5.494
		c-1.289,0.531-1.805,1.869-1.949,3.496l0.048,0.161c1.854,1.515,4.335,2.401,6.494,2.401c0.145,1.354-0.436,3.223-0.935,3.512
		c-2.61-0.08-5.624-1.578-7.541-3.383c-0.146,0.596-0.129,1.256-0.032,1.934c0.354,2.239,2.288,3.738,2.288,3.738
		c0,1.788-3.143,3.077-3.658,2.191c-1.337-1.886-1.949-3.867-1.949-5.688c0-2.755,1.063-4.657,2.675-5.769
		c0.935-3.803,3.754-6.139,6.478-6.203C235.551,56.526,236.679,56.913,237.646,57.784z"/>
	<path fill="#2E3192" d="M249.136,57.17c0.902,2.418,0.741,4.674,0.468,6.688c-0.597,4.222-4.028,5.897-7.171,5.897
		c-0.967,0-1.756-0.79-1.756-1.757s0.789-1.756,1.756-1.756c0.29,0,0.661-0.049,0.983-0.129c1.708-0.419,2.368-1.305,2.546-2.98
		c0.273-2.498-1.402-4.689-1.402-4.689c0.322-1.209,1.918-1.82,3.143-1.869C248.427,56.559,249.023,56.752,249.136,57.17z
		 M246.622,53.739c0,1.031-0.854,1.885-1.901,1.885c-1.047,0-1.901-0.854-1.901-1.885c0-1.047,0.854-1.869,1.901-1.869
		C245.769,51.87,246.622,52.692,246.622,53.739z M248.878,49.147c0,1.047-0.821,1.9-1.869,1.9c-1.047,0-1.901-0.854-1.901-1.9
		c0-1.048,0.854-1.902,1.901-1.902C248.057,47.245,248.878,48.099,248.878,49.147z M251.198,53.739c0,1.031-0.854,1.885-1.901,1.885
		c-1.031,0-1.885-0.854-1.885-1.885c0-1.047,0.854-1.869,1.885-1.869C250.345,51.87,251.198,52.692,251.198,53.739z"/>
	<path fill="#2E3192" d="M260.099,67.505c-0.454-0.766-0.746-1.608-0.747-2.512c0.016-0.902,0.306-1.864,1.03-2.771
		c0.841-1.082,1.859-2.225,3.467-2.923c0.065-0.031,0.13-0.046,0.178-0.045c0.371-0.01,0.863,0.449,1.191,1.035
		c0.329,0.586,0.478,1.33,0.162,1.856c-0.452,0.057-0.922,0.194-1.458,0.442c-0.276,0.108-0.537,0.266-0.798,0.454
		c0.707,0.125,1.441,0.54,1.898,1.177c0.456,0.637,0.637,1.381,0.527,2.152c-0.11,0.772-0.542,1.522-1.194,1.979
		c-0.637,0.457-1.381,0.638-2.153,0.544C261.431,68.801,260.616,68.335,260.099,67.505z"/>
	<path fill="#2E3192" d="M273.604,53.481c1.934,1.691,3.899,5.301,4.656,7.17c0.548,1.37,0.677,2.643,0.516,3.836
		c-0.048,0.322-0.08,0.645-0.161,0.95c-1.772,6.606-11.456,5.188-11.359-1.676c0.032-2.643,1.53-5.075,3.432-6.542l-0.387-0.338
		c-0.354-1.258,0.822-2.643,1.901-3.239c0.354-0.193,0.693-0.306,0.983-0.29C273.346,53.352,273.49,53.368,273.604,53.481z
		 M272.942,50.758c0,1.047-0.854,1.9-1.885,1.9c-1.063,0-1.869-0.854-1.869-1.9c0-1.048,0.806-1.902,1.869-1.902
		C272.089,48.856,272.942,49.71,272.942,50.758z M271.992,65.824c1.047,0.516,2.723,0.322,3.448-0.95
		c0.773-1.338-0.661-3.916-1.934-5.366C271.251,61.006,269.736,64.696,271.992,65.824z M277.567,50.758c0,1.047-0.854,1.9-1.901,1.9
		c-1.048,0-1.901-0.854-1.901-1.9c0-1.048,0.854-1.902,1.901-1.902C276.713,48.856,277.567,49.71,277.567,50.758z"/>
	<path fill="#2E3192" d="M284.943,56.624c0.597,0,1.048,0.193,1.177,0.531c1.691,4.866,2.707,13.406-4.286,17
		c-0.113,0.048-0.258,0.096-0.371,0.16c-0.935,0.451-2.916-2.11-2.03-3.674c0,0,1.063-0.08,2.159-0.676
		c3.029-1.66,2.578-6.221,0.436-11.635c0.29-1.079,1.724-1.676,2.819-1.707H284.943z"/>
	<path fill="#2E3192" d="M304.417,67.951c0,0.967-0.773,1.74-1.74,1.74v0.017c-0.999,0-1.966-0.451-2.787-1.145
		c-0.193,0.5-0.419,0.967-0.645,1.369c-1.418,2.434-4.238,4.447-6.72,4.447c-0.789,0-1.579,0.21-2.127,0.532
		c-0.677-0.403-0.967-1.096-0.982-1.934c-0.017-0.612,0.322-1.595,0.918-1.934c0.564-0.322,1.467-0.177,2.191-0.161
		c0.307,0,0.693-0.032,1.016-0.113c1.176-0.273,2.271-0.773,2.916-1.595c-3.432-0.757-6.332-2.433-7.041-5.64
		c-0.935-4.189,2.224-7.234,5.64-7.234c1.853,0,3.786,0.805,4.979,2.916c0.709,1.289,0.967,2.916,0.887,4.561
		c0.193,0.902,0.596,2.416,1.756,2.416C303.644,66.194,304.417,66.984,304.417,67.951z M297.086,60.586
		c-0.5-0.482-1.096-0.709-1.708-0.725c-0.693,0-1.37,0.258-1.837,0.66c-0.983,0.871-0.887,2.047,0.032,3.11
		c1.063,1.241,2.562,1.886,4.222,2.224C298.229,63.971,298.117,61.634,297.086,60.586z"/>
	<path fill="#2E3192" d="M319.948,64.019l-0.032,2.159c0.435,0.049,0.821,0.064,1.144,0.064c0.967,0,1.757,0.789,1.757,1.756
		s-0.79,1.74-1.757,1.74c-2.11,0-4.624-1.369-13.551-0.547c-1.112,0.096-4.142,0.547-5.076,0.547c-0.967,0-1.756-0.773-1.756-1.74
		s0.789-1.756,1.756-1.756c0.354,0,0.935-0.032,1.435-0.064c-0.258-3.255-1.306-8.089-1.306-8.089
		c0.322-1.241,1.676-1.853,2.724-1.869c0.016,0,0.064-0.017,0.097,0c0.548,0,0.982,0.177,1.111,0.548
		c0.081,0.273,0.161,0.629,0.226,1.016c0.371-0.371,0.758-0.758,1.145-1.112c1.321-1.192,3.013-1.724,4.688-1.659
		C316.242,55.141,319.948,58.235,319.948,64.019z M307.138,63.68c0.017,0.79-0.016,1.516-0.032,2.24
		c2.578-0.226,5.463-0.467,7.509-0.338l1.145,0.096c0.177-2.996-0.129-6.558-2.127-7.363c-0.564-0.226-1.145-0.29-1.708-0.226
		C309.587,58.364,307.428,60.909,307.138,63.68z"/>
	<path fill="#2E3192" d="M328.604,63.487c-0.597,4.223-4.028,6.269-7.187,6.269c-0.967,0-1.74-0.79-1.74-1.757
		s0.773-1.756,1.74-1.756c0.306,0,0.677-0.049,0.982-0.129c1.725-0.402,2.385-1.644,2.562-3.336
		c0.258-2.497-1.386-13.841-1.386-13.841c0.516-1.934,4.205-2.401,4.576-1.306C328.974,50.081,328.894,61.489,328.604,63.487z"/>
	<path fill="#2E3192" d="M334.814,47.583c0.822,2.449,0.741,19.626,0.451,21.624c-2.095,1.209-3.883,0.145-3.657-0.725
		c0.258-2.498-1.354-19.594-1.354-19.594c0.322-1.193,1.869-1.854,3.077-1.886C334.073,46.971,334.67,47.18,334.814,47.583z"/>
	<path fill="#2E3192" d="M349.491,62.44c0,0-1.644,2.191-1.386,4.689c0.193,1.676,0.854,3.223,2.562,3.625
		c0.306,0.08,0.628,0.113,0.918,0.113s0.597-0.033,0.919-0.113c1.708-0.402,2.368-1.949,2.546-3.625
		c0.273-2.498-1.37-4.689-1.37-4.689c0.516-1.934,4.254-2.434,4.561-1.305c0.354,0.967,0.531,1.934,0.612,2.852v0.032
		c0.08,0.274,0.209,0.532,0.37,0.821c0.403,0.758,1.016,1.402,1.725,1.402c0.967,0,1.756,0.789,1.756,1.756s-0.789,1.74-1.756,1.74
		c-0.87,0-1.708-0.354-2.449-0.902c-0.951,3.545-4.028,5.27-6.913,5.27c-3.142,0-6.51-2.062-7.105-6.284
		c-0.29-1.998-0.451-4.271,0.451-6.687c0.112-0.42,0.709-0.613,1.45-0.597C347.59,60.586,349.169,61.231,349.491,62.44z
		 M353.455,57.139c0,1.047-0.854,1.9-1.901,1.9c-1.047,0-1.869-0.854-1.869-1.9c0-1.048,0.822-1.902,1.869-1.902
		C352.602,55.237,353.455,56.091,353.455,57.139z"/>
	<path fill="#2E3192" d="M367.152,57.17c0.886,2.418,0.741,4.689,0.451,6.688c-0.597,4.222-4.028,5.897-7.171,5.897
		c-0.967,0-1.756-0.79-1.756-1.757s0.789-1.756,1.756-1.756c0.307,0,0.661-0.049,0.983-0.129c1.708-0.419,2.385-1.305,2.562-2.98
		c0.258-2.498-1.418-4.689-1.418-4.689c0.322-1.192,1.934-1.82,3.143-1.869C366.443,56.559,367.039,56.752,367.152,57.17z
		 M364.558,73.059c0,1.047-0.821,1.9-1.869,1.9c-1.031,0-1.901-0.854-1.901-1.9c0-1.048,0.87-1.902,1.901-1.902
		C363.736,71.157,364.558,72.011,364.558,73.059z M368.715,73.059c0,1.047-0.854,1.9-1.885,1.9c-1.063,0-1.901-0.854-1.901-1.9
		c0-1.048,0.838-1.902,1.901-1.902C367.861,71.157,368.715,72.011,368.715,73.059z"/>
	<path fill="#2E3192" d="M385.417,67.951c0,0.967-0.773,1.74-1.74,1.74v0.017c-0.999,0-1.966-0.451-2.787-1.145
		c-0.193,0.5-0.419,0.967-0.645,1.369c-1.418,2.434-4.238,4.447-6.72,4.447c-0.789,0-1.579,0.21-2.127,0.532
		c-0.677-0.403-0.967-1.096-0.982-1.934c-0.017-0.612,0.322-1.595,0.918-1.934c0.564-0.322,1.467-0.177,2.191-0.161
		c0.307,0,0.693-0.032,1.016-0.113c1.176-0.273,2.271-0.773,2.916-1.595c-3.432-0.757-6.332-2.433-7.041-5.64
		c-0.935-4.189,2.224-7.234,5.64-7.234c1.853,0,3.786,0.805,4.979,2.916c0.709,1.289,0.967,2.916,0.887,4.561
		c0.193,0.902,0.596,2.416,1.756,2.416C384.644,66.194,385.417,66.984,385.417,67.951z M378.086,60.586
		c-0.5-0.482-1.096-0.709-1.708-0.725c-0.693,0-1.37,0.258-1.837,0.66c-0.983,0.871-0.887,2.047,0.032,3.11
		c1.063,1.241,2.562,1.886,4.222,2.224C379.229,63.971,379.117,61.634,378.086,60.586z"/>
	<path fill="#2E3192" d="M390.152,47.6c0.709,2.127,0.741,10.973,0.548,14.614v0.064c0,0.017,0,0.048,0,0.064
		c-0.017,0.258,0,0.516,0.032,0.79c0.177,1.676,0.854,2.578,2.562,2.98c0.307,0.08,0.677,0.129,0.983,0.129
		c0.967,0,1.74,0.789,1.74,1.756s-0.773,1.757-1.74,1.757c-2.015,0-4.109-0.692-5.543-2.272c-1.418,1.516-3.4,2.272-5.302,2.272
		c-0.967,0-1.756-0.79-1.756-1.757s0.789-1.756,1.756-1.756c0.307,0,0.661-0.049,0.983-0.129c1.708-0.419,2.368-1.627,2.546-3.303
		c0.273-2.498-1.37-13.891-1.37-13.891c0.322-1.208,1.869-1.836,3.078-1.869C389.395,47.02,390.007,47.197,390.152,47.6z"/>
	<path fill="#2E3192" d="M401.152,57.17c0.902,2.418,0.741,4.818,0.451,6.816c0.08,0.29,0.177,0.564,0.338,0.854
		c0.403,0.758,1.031,1.402,1.725,1.402c0.967,0,1.756,0.789,1.756,1.756s-0.789,1.757-1.756,1.757c-1.45,0-2.771-0.919-3.755-2.175
		c-1.434,1.53-3.513,2.175-5.479,2.175c-0.967,0-1.756-0.79-1.756-1.757s0.789-1.756,1.756-1.756c0.307,0,0.677-0.016,0.983-0.097
		c1.708-0.419,2.368-1.289,2.562-2.981c0.258-2.497-1.386-4.688-1.386-4.688c0.322-1.192,1.901-1.853,3.11-1.901
		C400.443,56.559,401.039,56.752,401.152,57.17z M398.654,53.739c0,1.031-0.854,1.885-1.901,1.885c-1.031,0-1.901-0.854-1.901-1.885
		c0-1.047,0.87-1.869,1.901-1.869C397.801,51.87,398.654,52.692,398.654,53.739z M403.247,53.739c0,1.031-0.854,1.885-1.901,1.885
		c-1.048,0-1.901-0.854-1.901-1.885c0-1.047,0.854-1.869,1.901-1.869C402.393,51.87,403.247,52.692,403.247,53.739z"/>
	<path fill="#2E3192" d="M410.136,57.333c0.902,2.416,0.741,4.672,0.468,6.687c-0.612,4.222-4.028,5.882-7.171,5.882
		c-0.982,0-1.756-0.773-1.756-1.74s0.773-1.757,1.756-1.757c0.29,0,0.661-0.048,0.983-0.129c1.708-0.419,2.368-1.306,2.546-2.981
		c0.273-2.497-1.402-4.688-1.402-4.688c0.322-1.208,1.918-1.821,3.143-1.869C409.427,56.719,410.023,56.913,410.136,57.333z
		 M408.154,73.219c0,1.048-0.854,1.902-1.901,1.902c-1.048,0-1.901-0.854-1.901-1.902c0-1.047,0.854-1.869,1.901-1.869
		C407.3,71.35,408.154,72.172,408.154,73.219z"/>
</g>
</svg>
