<?xml version="1.0" encoding="utf-8"?>
<!-- Generator: Adobe Illustrator 16.0.0, SVG Export Plug-In . SVG Version: 6.00 Build 0)  -->
<!DOCTYPE svg PUBLIC "-//W3C//DTD SVG 1.1//EN" "http://www.w3.org/Graphics/SVG/1.1/DTD/svg11.dtd">
<svg version="1.1" id="Layer_1" xmlns="http://www.w3.org/2000/svg" xmlns:xlink="http://www.w3.org/1999/xlink" x="0px" y="0px"
	 width="123.839px" height="38.062px" viewBox="0 0 123.839 38.062" enable-background="new 0 0 123.839 38.062"
	 xml:space="preserve">
<g>
	<path fill="#FF5000" d="M25.318,13.804c1.209,3.297,1.406,6.504,0.659,9.119c-1.647,5.779-8.195,8.042-12.766,8.042
		S2.071,28.702,0.445,22.923c-0.747-2.615-0.571-5.822,0.659-9.119c0.132-0.505,0.813-0.769,1.692-0.791
		c1.691-0.043,4.064,0.857,4.526,2.594c0,0-2.791,3.054-1.846,6.371c0.791,2.77,5.142,4.219,7.734,4.219s6.943-1.449,7.734-4.219
		c0.944-3.317-1.846-6.371-1.846-6.371c0.483-1.736,2.834-2.637,4.526-2.594C24.506,13.035,25.187,13.299,25.318,13.804z
		 M12.685,9.124c0,1.428-1.187,2.593-2.593,2.593c-1.429,0-2.593-1.165-2.593-2.593s1.164-2.549,2.593-2.549
		C11.498,6.575,12.685,7.696,12.685,9.124z M18.925,9.124c0,1.428-1.165,2.593-2.593,2.593c-1.429,0-2.549-1.165-2.549-2.593
		s1.12-2.549,2.549-2.549C17.76,6.575,18.925,7.696,18.925,9.124z"/>
	<path fill="#FF5000" d="M35.225,0.753c0.967,2.9,1.011,14.963,0.747,19.929v0.088c0,0.022,0,0.065,0,0.088
		c-0.022,0.352,0,0.703,0.044,1.077c0.241,2.285,1.164,3.516,3.493,4.064c0.418,0.109,0.923,0.176,1.341,0.176
		c1.318,0,2.373,1.076,2.373,2.395s-1.055,2.396-2.373,2.396c-6.219,0-8.943-3.229-9.976-9.47
		c-0.55-3.406-1.868-18.941-1.868-18.941c0.439-1.647,2.549-2.504,4.197-2.549C34.191-0.038,35.026,0.203,35.225,0.753z"/>
	<path fill="#FF5000" d="M59.057,20.77c0.22,0.791,0.33,1.538,0.352,2.285c0.11,0.396,0.264,0.769,0.483,1.165
		c0.571,1.032,1.406,1.955,2.373,1.955c1.318,0,2.396,1.076,2.396,2.395s-1.077,2.396-2.396,2.396c-1.867,0-3.604-1.143-4.922-2.681
		c-2.944,3.186-8.394,3.934-11.689,0.088c-1.318,1.494-2.966,2.593-4.79,2.593c-1.318,0-2.373-1.077-2.373-2.396
		s1.055-2.395,2.373-2.395c0.967,0,1.802-0.923,2.373-1.955c0.22-0.396,0.352-0.77,0.439-1.165
		c-0.153-2.988,0.594-6.569,1.582-9.733c0.901-0.55,2-0.77,3.164-0.77C52.575,12.573,57.673,15.87,59.057,20.77z M48.729,25.142
		c1.406,1.429,3.647,1.1,4.834,0.045c2.571-2.285-0.703-6.637-4.196-7.801C48.202,19.737,47.235,23.647,48.729,25.142z"/>
	<path fill="#FF5000" d="M71.026,13.804c1.23,3.297,1.011,6.57,0.637,9.295c0.088,0.396,0.22,0.77,0.439,1.164
		c0.571,1.033,1.406,1.912,2.373,1.912c1.318,0,2.396,1.076,2.396,2.395s-1.077,2.396-2.396,2.396c-1.978,0-3.801-1.253-5.142-2.966
		c-1.955,2.087-4.768,2.966-7.448,2.966c-1.318,0-2.396-1.077-2.396-2.396s1.077-2.395,2.396-2.395c0.396,0,0.9-0.021,1.34-0.132
		c2.329-0.571,3.23-1.758,3.472-4.065c0.374-3.405-1.867-6.394-1.867-6.394c0.439-1.626,2.57-2.526,4.24-2.593
		C70.06,12.97,70.872,13.233,71.026,13.804z M67.555,35.47c0,1.428-1.165,2.592-2.593,2.592c-1.429,0-2.593-1.164-2.593-2.592
		c0-1.429,1.164-2.594,2.593-2.594C66.39,32.876,67.555,34.041,67.555,35.47z M73.839,35.47c0,1.428-1.165,2.592-2.593,2.592
		c-1.429,0-2.571-1.164-2.571-2.592c0-1.429,1.143-2.594,2.571-2.594C72.674,32.876,73.839,34.041,73.839,35.47z"/>
	<path fill="#FF5000" d="M84.048,0.753c0.967,2.9,1.011,14.963,0.747,19.929v0.088c0,0.022,0,0.065,0,0.088
		c-0.021,0.352,0,0.703,0.044,1.077c0.242,2.285,1.165,3.516,3.494,4.064c0.417,0.109,0.923,0.176,1.34,0.176
		c1.318,0,2.373,1.076,2.373,2.395s-1.055,2.396-2.373,2.396c-2.746,0-5.603-0.944-7.559-3.099
		c-1.934,2.066-4.636,3.099-7.229,3.099c-1.318,0-2.396-1.077-2.396-2.396s1.077-2.395,2.396-2.395c0.417,0,0.9-0.066,1.34-0.176
		c2.329-0.571,3.23-2.219,3.472-4.504c0.374-3.406-1.867-18.941-1.867-18.941c0.439-1.647,2.549-2.504,4.196-2.549
		C83.016-0.038,83.851,0.203,84.048,0.753z"/>
	<path fill="#FF5000" d="M106.541,11.388c5.977,3.34,5.054,9.756,0.593,14.216c1.648,0.374,3.296,0.571,4.769,0.571
		c1.318,0,2.395,1.076,2.395,2.395s-1.076,2.396-2.395,2.396c-3.318,0-6.548-0.55-9.559-2.021c-3.779,1.846-7.36,2.021-12.458,2.021
		c-1.318,0-2.396-1.077-2.396-2.396s1.077-2.395,2.396-2.395c2.834,0,5.317-0.242,7.404-0.703c-2.878-2.461-5.449-5.537-6.372-9.031
		c0.945-3.734,5.12-6.504,9.734-6.569C102.607,9.849,104.651,10.333,106.541,11.388z M96.279,16.573
		c0.989,2.395,3.274,5.316,5.801,7.009c1.517-1.055,2.352-2.396,2.461-4.065c0.176-3.054-1.934-4.438-4.284-4.416
		C98.872,15.101,97.4,15.606,96.279,16.573z"/>
	<path fill="#FF5000" d="M121.026,13.804c1.23,3.297,1.011,6.373,0.637,9.119c-0.812,5.757-5.493,8.042-9.777,8.042
		c-1.318,0-2.396-1.077-2.396-2.396s1.077-2.395,2.396-2.395c0.396,0,0.9-0.066,1.34-0.176c2.329-0.571,3.23-1.779,3.472-4.064
		c0.374-3.406-1.911-6.395-1.911-6.395c0.439-1.648,2.614-2.482,4.284-2.549C120.06,12.97,120.872,13.233,121.026,13.804z
		 M117.599,9.124c0,1.406-1.165,2.57-2.593,2.57c-1.429,0-2.593-1.164-2.593-2.57c0-1.428,1.164-2.549,2.593-2.549
		C116.434,6.575,117.599,7.696,117.599,9.124z M123.839,9.124c0,1.406-1.165,2.57-2.593,2.57c-1.406,0-2.571-1.164-2.571-2.57
		c0-1.428,1.165-2.549,2.571-2.549C122.674,6.575,123.839,7.696,123.839,9.124z"/>
</g>
</svg>
