<?xml version="1.0" encoding="utf-8"?>
<!-- Generator: Adobe Illustrator 16.0.0, SVG Export Plug-In . SVG Version: 6.00 Build 0)  -->
<!DOCTYPE svg PUBLIC "-//W3C//DTD SVG 1.1//EN" "http://www.w3.org/Graphics/SVG/1.1/DTD/svg11.dtd">
<svg version="1.1" id="Layer_1" xmlns="http://www.w3.org/2000/svg" xmlns:xlink="http://www.w3.org/1999/xlink" x="0px" y="0px"
	 width="512.496px" height="105.305px" viewBox="0 0 512.496 105.305" enable-background="new 0 0 512.496 105.305"
	 xml:space="preserve">
<g>
	<g>
		
			<path fill="#0085C7" stroke="#FFFFFF" stroke-width="14" stroke-linecap="round" stroke-linejoin="round" stroke-miterlimit="10" d="
			M23.496,55.884c0,0-5.188,6.917-4.323,14.8c0.56,5.289,2.645,10.069,8.036,11.341c1.017,0.254,1.983,0.458,2.899,0.458
			c0.966,0,1.882-0.204,2.899-0.458c5.391-1.271,7.476-6.052,8.086-11.341c0.814-7.883-4.475-14.8-4.475-14.8
			c1.627-6.103,13.528-7.629,14.494-4.119c2.797,7.628,2.339,14.799,1.424,21.105c-1.882,13.324-12.511,19.732-22.428,19.732
			c-9.917,0-20.546-6.408-22.428-19.732c-0.865-6.307-1.373-13.478,1.475-21.105c0.356-1.322,2.238-1.933,4.526-1.882
			C17.545,50.036,22.479,52.07,23.496,55.884z M36.007,39.152c0,3.306-2.695,5.899-6.001,5.899c-3.306,0-6.001-2.594-6.001-5.899
			s2.695-6.001,6.001-6.001C33.312,33.151,36.007,35.846,36.007,39.152z"/>
		
			<path fill="#0085C7" stroke="#FFFFFF" stroke-width="14" stroke-linecap="round" stroke-linejoin="round" stroke-miterlimit="10" d="
			M72.73,8.841c2.594,7.73,2.339,61.944,1.424,68.251c-6.611,3.813-12.256,0.457-11.544-2.289
			c0.813-7.883-4.272-61.843-4.272-61.843c1.017-3.764,5.899-5.849,9.714-5.95C70.391,6.909,72.272,7.57,72.73,8.841z"/>
		
			<path fill="#0085C7" stroke="#FFFFFF" stroke-width="14" stroke-linecap="round" stroke-linejoin="round" stroke-miterlimit="10" d="
			M127.76,73.125c0,3.052-2.441,5.493-5.493,5.493v0.051c-3.153,0-6.205-1.424-8.798-3.611c-0.61,1.577-1.322,3.052-2.034,4.323
			c-4.476,7.68-13.375,14.037-21.208,14.037c-2.492,0-4.984,0.661-6.713,1.678c-2.136-1.271-3.051-3.458-3.103-6.103
			c-0.051-1.933,1.018-5.035,2.899-6.104c1.78-1.017,4.628-0.559,6.917-0.508c0.966,0,2.187-0.103,3.204-0.356
			c3.713-0.864,7.171-2.441,9.206-5.035c-10.833-2.39-19.987-7.679-22.225-17.8c-2.95-13.223,7.019-22.835,17.8-22.835
			c5.849,0,11.952,2.543,15.715,9.205c2.238,4.068,3.052,9.205,2.797,14.393c0.61,2.849,1.882,7.629,5.543,7.629
			C125.319,67.582,127.76,70.074,127.76,73.125z M104.62,49.883c-1.577-1.526-3.458-2.238-5.391-2.289
			c-2.187,0-4.323,0.813-5.798,2.085c-3.102,2.747-2.797,6.459,0.102,9.815c3.356,3.916,8.086,5.951,13.325,7.019
			C108.231,60.563,107.875,53.189,104.62,49.883z"/>
		
			<path fill="#0085C7" stroke="#FFFFFF" stroke-width="14" stroke-linecap="round" stroke-linejoin="round" stroke-miterlimit="10" d="
			M144.75,59.038c-1.881,13.324-12.714,19.783-22.682,19.783c-3.052,0-5.493-2.492-5.493-5.543c0-3.052,2.441-5.544,5.493-5.544
			c0.966,0,2.136-0.152,3.102-0.407c5.442-1.271,7.527-5.187,8.086-10.527c0.814-7.883-4.374-43.687-4.374-43.687
			c1.627-6.103,13.273-7.577,14.443-4.119C145.92,16.724,145.666,52.731,144.75,59.038z"/>
		
			<path fill="#0085C7" stroke="#FFFFFF" stroke-width="14" stroke-linecap="round" stroke-linejoin="round" stroke-miterlimit="10" d="
			M192.05,55.274c0,9.917-5.187,19.732-18.614,22.632c-6.205,1.322-13.477,1.373-21.106-1.476
			c-3.509-0.915-1.983-12.765,4.12-14.393c0,0,6.866,5.188,14.749,4.323c2.289-0.254,4.069-0.763,5.493-1.729
			c-5.645-1.017-9.815-4.119-13.579-12.866c-1.984-4.73-4.018-13.681-6.052-17.241h-0.051c1.068-3.916,6.154-5.899,10.019-5.95
			h0.356c2.034,0,3.712,0.61,4.068,1.831c1.373,4.119,0.61,11.545,2.034,15.409c1.17,3.408,3.001,6.307,6.51,7.578
			c-1.068-18.868-4.17-40.229-4.17-40.229c1.678-6.103,13.273-7.577,14.443-4.119C192.864,16.724,192.05,48.967,192.05,55.274z
			 M164.435,12.35c0,0-0.865,3.407-2.848,3.916c-4.069-1.933-8.595,0.864-5.289,4.17c1.576,1.577,3.356,1.068,5.797,0.306
			c1.374-0.407,2.848-0.661,4.526-0.509c1.221,0,1.78,4.119,0,5.137c0,0-2.441-0.407-4.882,0.56
			c-2.39,1.017-3.662,3.001-3.662,3.001c-1.983,0.508-4.424-2.798-3.56-3.662c0.458-0.56,0.966-1.068,1.475-1.475
			c-3.458-1.679-4.984-5.188-3.662-8.596c0.865-2.187,2.747-3.61,4.781-4.221C159.806,10.214,162.807,10.671,164.435,12.35z"/>
		
			<path fill="#0085C7" stroke="#FFFFFF" stroke-width="14" stroke-linecap="round" stroke-linejoin="round" stroke-miterlimit="10" d="
			M211.635,8.841c2.594,7.73,2.339,61.944,1.424,68.251c-6.611,3.813-12.256,0.457-11.544-2.289
			c0.813-7.883-4.272-61.843-4.272-61.843c1.017-3.764,5.899-5.849,9.714-5.95C209.295,6.909,211.177,7.57,211.635,8.841z"/>
		
			<path fill="#0085C7" stroke="#FFFFFF" stroke-width="14" stroke-linecap="round" stroke-linejoin="round" stroke-miterlimit="10" d="
			M273.023,30.608c0,0,0.509,10.527-4.222,11.799c-9.865-4.679-23.953-0.102-16.02,7.883c1.221,1.221,2.594,1.983,4.018,2.441
			c0.051,0,0.102-0.051,0.102-0.102c5.137-2.187,10.985-4.272,17.801-4.222c0.966,0,1.881,0.103,2.898,0.103
			c3.407,0.051,4.984,10.323,0.814,14.291c1.881,2.746,4.576,4.933,8.289,4.933c3.051,0,5.543,2.492,5.543,5.544
			c0,3.051-2.492,5.543-5.543,5.543c-8.238,0-18.359-5.492-21.004-15.41l-0.203-1.169c-1.17,0.203-2.34,0.508-3.51,0.966
			c-4.577,1.78-11.342,6.815-9.815,13.223c1.526,6.459,6.866,9.002,11.799,9.511c7.883,0.813,16.834-4.323,16.834-4.323
			c6.103,1.628,7.476,13.173,4.018,14.342c-7.679,2.646-17.647,2.34-23.954,1.476c-10.984-1.577-17.189-9.154-19.224-17.292
			c-1.933-7.629,1.017-17.139,8.442-23.344c-6.51-4.476-9.256-12.002-6.408-19.376c2.695-6.765,9.408-10.375,16.02-10.935
			C264.835,26.031,269.972,27.455,273.023,30.608z"/>
		
			<path fill="#0085C7" stroke="#FFFFFF" stroke-width="14" stroke-linecap="round" stroke-linejoin="round" stroke-miterlimit="10" d="
			M328.666,55.223c5.544,19.529-19.021,31.582-31.022,17.597c-3.053,3.458-6.866,6.001-11.088,6.001
			c-3.051,0-5.492-2.492-5.492-5.543c0-3.052,2.441-5.544,5.492-5.544c2.238,0,4.17-2.136,5.493-4.526
			c0.509-0.915,0.813-1.78,1.017-2.695c-0.355-6.917,1.373-15.206,3.662-22.53c2.085-1.271,4.628-1.779,7.323-1.779
			C313.663,36.253,325.411,43.881,328.666,55.223z M304.763,65.343c3.307,3.307,8.443,2.543,11.189,0.103
			c5.949-5.29-1.628-15.359-9.715-18.055C303.491,52.833,301.305,61.885,304.763,65.343z"/>
		
			<path fill="#0085C7" stroke="#FFFFFF" stroke-width="14" stroke-linecap="round" stroke-linejoin="round" stroke-miterlimit="10" d="
			M400.585,53.544c0.203,0.051,0.355,0.102,0.609,0.204c3.459,1.118,2.035,12.815-4.018,14.443c0,0-6.916-5.137-14.799-4.323
			c-5.34,0.56-11.037,2.543-12.309,7.984c-0.254,0.967-0.406,2.238-0.406,3.204c0,7.781,9.459,10.579,14.748,11.138
			c7.935,0.865,16.783-4.424,16.783-4.424c6.104,1.627,7.578,13.324,4.12,14.443c-7.68,2.645-17.698,2.339-23.954,1.475
			c-13.375-1.882-22.784-12.714-22.784-22.632c0-9.968,8.29-20.902,21.614-22.784c2.543-0.355,5.238-0.559,8.086-0.61h0.204
			c-5.798-6.967-16.885-6.916-22.886-1.017c-6.307,0-10.884-11.087-7.73-12.918c4.679-3.255,9.815-4.679,14.901-4.577
			C383.446,33.405,393.974,40.678,400.585,53.544z"/>
		
			<path fill="#0085C7" stroke="#FFFFFF" stroke-width="14" stroke-linecap="round" stroke-linejoin="round" stroke-miterlimit="10" d="
			M426.984,37.118c1.882,0,3.306,0.61,3.713,1.679c2.085,6.001,3.813,13.731,3.916,21.614c0.203,0.915,0.61,1.78,1.118,2.695
			c1.271,2.391,3.205,4.476,5.493,4.476c3.052,0,5.493,2.492,5.493,5.543c0,3.052-2.441,5.493-5.493,5.493v0.051
			c-3.204,0-6.255-1.475-8.849-3.662c-2.441,7.019-7.121,13.274-15.207,17.444c-0.406,0.203-0.763,0.356-1.119,0.509
			c-3,1.424-9.256-6.713-6.408-11.596c0,0,3.256-0.355,6.713-2.237c9.512-5.238,8.189-19.529,1.425-36.669
			c0.915-3.407,5.391-5.238,8.849-5.34H426.984z"/>
		
			<path fill="#0085C7" stroke="#FFFFFF" stroke-width="14" stroke-linecap="round" stroke-linejoin="round" stroke-miterlimit="10" d="
			M483.134,55.223c5.544,19.529-19.02,31.582-31.022,17.597c-3.052,3.458-6.866,6.001-11.087,6.001
			c-3.052,0-5.492-2.492-5.492-5.543c0-3.052,2.44-5.544,5.492-5.544c2.238,0,4.17-2.136,5.492-4.526
			c0.509-0.915,0.814-1.78,1.018-2.695c-0.355-6.917,1.373-15.206,3.662-22.53c2.084-1.271,4.627-1.779,7.322-1.779
			C468.132,36.253,479.88,43.881,483.134,55.223z M459.231,65.343c3.306,3.307,8.442,2.543,11.188,0.103
			c5.95-5.29-1.628-15.359-9.714-18.055C457.96,52.833,455.772,61.885,459.231,65.343z"/>
		
			<path fill="#0085C7" stroke="#FFFFFF" stroke-width="14" stroke-linecap="round" stroke-linejoin="round" stroke-miterlimit="10" d="
			M503.431,8.841c2.594,7.73,2.339,61.944,1.424,68.251c-6.611,3.813-12.257,0.457-11.545-2.289
			c0.813-7.883-4.271-61.843-4.271-61.843c1.017-3.764,5.898-5.849,9.713-5.95C501.091,6.909,502.973,7.57,503.431,8.841z"/>
	</g>
	<g opacity="0.2">
		<path d="M23.496,59.885c0,0-5.188,6.916-4.323,14.799c0.56,5.289,2.645,10.07,8.036,11.342c1.017,0.254,1.983,0.457,2.899,0.457
			c0.966,0,1.882-0.203,2.899-0.457c5.391-1.271,7.476-6.053,8.086-11.342c0.814-7.883-4.475-14.799-4.475-14.799
			c1.627-6.104,13.528-7.629,14.494-4.119c2.797,7.627,2.339,14.799,1.424,21.105c-1.882,13.324-12.511,19.732-22.428,19.732
			c-9.917,0-20.546-6.408-22.428-19.732c-0.865-6.307-1.373-13.479,1.475-21.105c0.356-1.322,2.238-1.934,4.526-1.883
			C17.545,54.036,22.479,56.071,23.496,59.885z M36.007,43.152c0,3.306-2.695,5.899-6.001,5.899c-3.306,0-6.001-2.593-6.001-5.899
			s2.695-6.001,6.001-6.001C33.312,37.151,36.007,39.847,36.007,43.152z"/>
		<path d="M72.73,12.842c2.594,7.73,2.339,61.944,1.424,68.25c-6.611,3.814-12.256,0.457-11.544-2.289
			c0.813-7.883-4.272-61.842-4.272-61.842c1.017-3.764,5.899-5.849,9.714-5.95C70.391,10.909,72.272,11.57,72.73,12.842z"/>
		<path d="M127.76,77.125c0,3.051-2.441,5.492-5.493,5.492v0.051c-3.153,0-6.205-1.424-8.798-3.611
			c-0.61,1.578-1.322,3.053-2.034,4.324c-4.476,7.68-13.375,14.037-21.208,14.037c-2.492,0-4.984,0.66-6.713,1.678
			c-2.136-1.271-3.051-3.459-3.103-6.104c-0.051-1.932,1.018-5.035,2.899-6.104c1.78-1.016,4.628-0.559,6.917-0.508
			c0.966,0,2.187-0.102,3.204-0.355c3.713-0.865,7.171-2.441,9.206-5.035C91.804,78.6,82.649,73.311,80.412,63.19
			c-2.95-13.223,7.019-22.834,17.8-22.834c5.849,0,11.952,2.543,15.715,9.206c2.238,4.068,3.052,9.205,2.797,14.393
			c0.61,2.848,1.882,7.629,5.543,7.629C125.319,71.583,127.76,74.075,127.76,77.125z M104.62,53.883
			c-1.577-1.525-3.458-2.238-5.391-2.289c-2.187,0-4.323,0.814-5.798,2.086c-3.102,2.746-2.797,6.459,0.102,9.814
			c3.356,3.916,8.086,5.951,13.325,7.02C108.231,64.563,107.875,57.19,104.62,53.883z"/>
		<path d="M144.75,63.038c-1.881,13.324-12.714,19.783-22.682,19.783c-3.052,0-5.493-2.492-5.493-5.543s2.441-5.543,5.493-5.543
			c0.966,0,2.136-0.152,3.102-0.408c5.442-1.27,7.527-5.186,8.086-10.527c0.814-7.883-4.374-43.686-4.374-43.686
			c1.627-6.103,13.273-7.577,14.443-4.119C145.92,20.725,145.666,56.731,144.75,63.038z"/>
		<path d="M192.05,59.274c0,9.918-5.187,19.732-18.614,22.633c-6.205,1.322-13.477,1.373-21.106-1.477
			c-3.509-0.914-1.983-12.764,4.12-14.393c0,0,6.866,5.188,14.749,4.324c2.289-0.254,4.069-0.764,5.493-1.73
			c-5.645-1.016-9.815-4.119-13.579-12.865c-1.984-4.73-4.018-13.681-6.052-17.242h-0.051c1.068-3.916,6.154-5.899,10.019-5.95
			h0.356c2.034,0,3.712,0.61,4.068,1.831c1.373,4.119,0.61,11.545,2.034,15.41c1.17,3.408,3.001,6.307,6.51,7.578
			c-1.068-18.869-4.17-40.229-4.17-40.229c1.678-6.103,13.273-7.577,14.443-4.119C192.864,20.725,192.05,52.967,192.05,59.274z
			 M164.435,16.351c0,0-0.865,3.407-2.848,3.916c-4.069-1.933-8.595,0.864-5.289,4.17c1.576,1.577,3.356,1.068,5.797,0.306
			c1.374-0.407,2.848-0.661,4.526-0.509c1.221,0,1.78,4.119,0,5.137c0,0-2.441-0.407-4.882,0.56
			c-2.39,1.017-3.662,3.001-3.662,3.001c-1.983,0.508-4.424-2.798-3.56-3.662c0.458-0.56,0.966-1.068,1.475-1.475
			c-3.458-1.679-4.984-5.188-3.662-8.596c0.865-2.187,2.747-3.61,4.781-4.221C159.806,14.215,162.807,14.672,164.435,16.351z"/>
		<path d="M211.635,12.842c2.594,7.73,2.339,61.944,1.424,68.25c-6.611,3.814-12.256,0.457-11.544-2.289
			c0.813-7.883-4.272-61.842-4.272-61.842c1.017-3.764,5.899-5.849,9.714-5.95C209.295,10.909,211.177,11.57,211.635,12.842z"/>
		<path d="M273.023,34.608c0,0,0.509,10.527-4.222,11.799c-9.865-4.679-23.953-0.102-16.02,7.882
			c1.221,1.221,2.594,1.984,4.018,2.441c0.051,0,0.102-0.051,0.102-0.102c5.137-2.186,10.985-4.271,17.801-4.221
			c0.966,0,1.881,0.102,2.898,0.102c3.407,0.051,4.984,10.324,0.814,14.291c1.881,2.746,4.576,4.934,8.289,4.934
			c3.051,0,5.543,2.492,5.543,5.543s-2.492,5.543-5.543,5.543c-8.238,0-18.359-5.492-21.004-15.41l-0.203-1.168
			c-1.17,0.203-2.34,0.508-3.51,0.965c-4.577,1.781-11.342,6.816-9.815,13.223c1.526,6.459,6.866,9.002,11.799,9.512
			c7.883,0.812,16.834-4.324,16.834-4.324c6.103,1.629,7.476,13.174,4.018,14.342c-7.679,2.646-17.647,2.34-23.954,1.477
			c-10.984-1.578-17.189-9.154-19.224-17.293c-1.933-7.629,1.017-17.139,8.442-23.344c-6.51-4.475-9.256-12.001-6.408-19.375
			c2.695-6.765,9.408-10.375,16.02-10.935C264.835,30.031,269.972,31.455,273.023,34.608z"/>
		<path d="M328.666,59.223c5.544,19.529-19.021,31.582-31.022,17.598c-3.053,3.457-6.866,6-11.088,6
			c-3.051,0-5.492-2.492-5.492-5.543s2.441-5.543,5.492-5.543c2.238,0,4.17-2.137,5.493-4.527c0.509-0.914,0.813-1.779,1.017-2.695
			c-0.355-6.916,1.373-15.205,3.662-22.53c2.085-1.271,4.628-1.779,7.323-1.779C313.663,40.254,325.411,47.882,328.666,59.223z
			 M304.763,69.344c3.307,3.307,8.443,2.543,11.189,0.102c5.949-5.289-1.628-15.359-9.715-18.055
			C303.491,56.833,301.305,65.885,304.763,69.344z"/>
		<path d="M400.585,57.545c0.203,0.051,0.355,0.102,0.609,0.203c3.459,1.119,2.035,12.816-4.018,14.443
			c0,0-6.916-5.137-14.799-4.322c-5.34,0.559-11.037,2.543-12.309,7.984c-0.254,0.967-0.406,2.238-0.406,3.203
			c0,7.781,9.459,10.58,14.748,11.139c7.935,0.865,16.783-4.424,16.783-4.424c6.104,1.627,7.578,13.324,4.12,14.443
			c-7.68,2.645-17.698,2.338-23.954,1.475c-13.375-1.883-22.784-12.715-22.784-22.633c0-9.967,8.29-20.902,21.614-22.783
			c2.543-0.355,5.238-0.559,8.086-0.611h0.204c-5.798-6.966-16.885-6.916-22.886-1.016c-6.307,0-10.884-11.087-7.73-12.918
			c4.679-3.255,9.815-4.679,14.901-4.577C383.446,37.405,393.974,44.679,400.585,57.545z"/>
		<path d="M426.984,41.118c1.882,0,3.306,0.61,3.713,1.679c2.085,6.001,3.813,13.731,3.916,21.614
			c0.203,0.916,0.61,1.781,1.118,2.695c1.271,2.391,3.205,4.477,5.493,4.477c3.052,0,5.493,2.492,5.493,5.543
			s-2.441,5.492-5.493,5.492v0.051c-3.204,0-6.255-1.475-8.849-3.662c-2.441,7.02-7.121,13.275-15.207,17.445
			c-0.406,0.203-0.763,0.355-1.119,0.508c-3,1.424-9.256-6.713-6.408-11.596c0,0,3.256-0.355,6.713-2.236
			c9.512-5.238,8.189-19.529,1.425-36.669c0.915-3.407,5.391-5.238,8.849-5.34H426.984z"/>
		<path d="M483.134,59.223c5.544,19.529-19.02,31.582-31.022,17.598c-3.052,3.457-6.866,6-11.087,6
			c-3.052,0-5.492-2.492-5.492-5.543s2.44-5.543,5.492-5.543c2.238,0,4.17-2.137,5.492-4.527c0.509-0.914,0.814-1.779,1.018-2.695
			c-0.355-6.916,1.373-15.205,3.662-22.53c2.084-1.271,4.627-1.779,7.322-1.779C468.132,40.254,479.88,47.882,483.134,59.223z
			 M459.231,69.344c3.306,3.307,8.442,2.543,11.188,0.102c5.95-5.289-1.628-15.359-9.714-18.055
			C457.96,56.833,455.772,65.885,459.231,69.344z"/>
		<path d="M503.431,12.842c2.594,7.73,2.339,61.944,1.424,68.25c-6.611,3.814-12.257,0.457-11.545-2.289
			c0.813-7.883-4.271-61.842-4.271-61.842c1.017-3.764,5.898-5.849,9.713-5.95C501.091,10.909,502.973,11.57,503.431,12.842z"/>
	</g>
	<g>
		<path fill="#E85033" d="M23.496,55.884c0,0-5.188,6.917-4.323,14.8c0.56,5.289,2.645,10.069,8.036,11.341
			c1.017,0.254,1.983,0.458,2.899,0.458c0.966,0,1.882-0.204,2.899-0.458c5.391-1.271,7.476-6.052,8.086-11.341
			c0.814-7.883-4.475-14.8-4.475-14.8c1.627-6.103,13.528-7.629,14.494-4.119c2.797,7.628,2.339,14.799,1.424,21.105
			c-1.882,13.324-12.511,19.732-22.428,19.732c-9.917,0-20.546-6.408-22.428-19.732c-0.865-6.307-1.373-13.478,1.475-21.105
			c0.356-1.322,2.238-1.933,4.526-1.882C17.545,50.036,22.479,52.07,23.496,55.884z M36.007,39.152c0,3.306-2.695,5.899-6.001,5.899
			c-3.306,0-6.001-2.594-6.001-5.899s2.695-6.001,6.001-6.001C33.312,33.151,36.007,35.846,36.007,39.152z"/>
		<path fill="#E85033" d="M72.73,8.841c2.594,7.73,2.339,61.944,1.424,68.251c-6.611,3.813-12.256,0.457-11.544-2.289
			c0.813-7.883-4.272-61.843-4.272-61.843c1.017-3.764,5.899-5.849,9.714-5.95C70.391,6.909,72.272,7.57,72.73,8.841z"/>
		<path fill="#E85033" d="M127.76,73.125c0,3.052-2.441,5.493-5.493,5.493v0.051c-3.153,0-6.205-1.424-8.798-3.611
			c-0.61,1.577-1.322,3.052-2.034,4.323c-4.476,7.68-13.375,14.037-21.208,14.037c-2.492,0-4.984,0.661-6.713,1.678
			c-2.136-1.271-3.051-3.458-3.103-6.103c-0.051-1.933,1.018-5.035,2.899-6.104c1.78-1.017,4.628-0.559,6.917-0.508
			c0.966,0,2.187-0.103,3.204-0.356c3.713-0.864,7.171-2.441,9.206-5.035c-10.833-2.39-19.987-7.679-22.225-17.8
			c-2.95-13.223,7.019-22.835,17.8-22.835c5.849,0,11.952,2.543,15.715,9.205c2.238,4.068,3.052,9.205,2.797,14.393
			c0.61,2.849,1.882,7.629,5.543,7.629C125.319,67.582,127.76,70.074,127.76,73.125z M104.62,49.883
			c-1.577-1.526-3.458-2.238-5.391-2.289c-2.187,0-4.323,0.813-5.798,2.085c-3.102,2.747-2.797,6.459,0.102,9.815
			c3.356,3.916,8.086,5.951,13.325,7.019C108.231,60.563,107.875,53.189,104.62,49.883z"/>
		<path fill="#E85033" d="M144.75,59.038c-1.881,13.324-12.714,19.783-22.682,19.783c-3.052,0-5.493-2.492-5.493-5.543
			c0-3.052,2.441-5.544,5.493-5.544c0.966,0,2.136-0.152,3.102-0.407c5.442-1.271,7.527-5.187,8.086-10.527
			c0.814-7.883-4.374-43.687-4.374-43.687c1.627-6.103,13.273-7.577,14.443-4.119C145.92,16.724,145.666,52.731,144.75,59.038z"/>
		<path fill="#E85033" d="M192.05,55.274c0,9.917-5.187,19.732-18.614,22.632c-6.205,1.322-13.477,1.373-21.106-1.476
			c-3.509-0.915-1.983-12.765,4.12-14.393c0,0,6.866,5.188,14.749,4.323c2.289-0.254,4.069-0.763,5.493-1.729
			c-5.645-1.017-9.815-4.119-13.579-12.866c-1.984-4.73-4.018-13.681-6.052-17.241h-0.051c1.068-3.916,6.154-5.899,10.019-5.95
			h0.356c2.034,0,3.712,0.61,4.068,1.831c1.373,4.119,0.61,11.545,2.034,15.409c1.17,3.408,3.001,6.307,6.51,7.578
			c-1.068-18.868-4.17-40.229-4.17-40.229c1.678-6.103,13.273-7.577,14.443-4.119C192.864,16.724,192.05,48.967,192.05,55.274z
			 M164.435,12.35c0,0-0.865,3.407-2.848,3.916c-4.069-1.933-8.595,0.864-5.289,4.17c1.576,1.577,3.356,1.068,5.797,0.306
			c1.374-0.407,2.848-0.661,4.526-0.509c1.221,0,1.78,4.119,0,5.137c0,0-2.441-0.407-4.882,0.56
			c-2.39,1.017-3.662,3.001-3.662,3.001c-1.983,0.508-4.424-2.798-3.56-3.662c0.458-0.56,0.966-1.068,1.475-1.475
			c-3.458-1.679-4.984-5.188-3.662-8.596c0.865-2.187,2.747-3.61,4.781-4.221C159.806,10.214,162.807,10.671,164.435,12.35z"/>
		<path fill="#E85033" d="M211.635,8.841c2.594,7.73,2.339,61.944,1.424,68.251c-6.611,3.813-12.256,0.457-11.544-2.289
			c0.813-7.883-4.272-61.843-4.272-61.843c1.017-3.764,5.899-5.849,9.714-5.95C209.295,6.909,211.177,7.57,211.635,8.841z"/>
		<path fill="#E85033" d="M273.023,30.608c0,0,0.509,10.527-4.222,11.799c-9.865-4.679-23.953-0.102-16.02,7.883
			c1.221,1.221,2.594,1.983,4.018,2.441c0.051,0,0.102-0.051,0.102-0.102c5.137-2.187,10.985-4.272,17.801-4.222
			c0.966,0,1.881,0.103,2.898,0.103c3.407,0.051,4.984,10.323,0.814,14.291c1.881,2.746,4.576,4.933,8.289,4.933
			c3.051,0,5.543,2.492,5.543,5.544c0,3.051-2.492,5.543-5.543,5.543c-8.238,0-18.359-5.492-21.004-15.41l-0.203-1.169
			c-1.17,0.203-2.34,0.508-3.51,0.966c-4.577,1.78-11.342,6.815-9.815,13.223c1.526,6.459,6.866,9.002,11.799,9.511
			c7.883,0.813,16.834-4.323,16.834-4.323c6.103,1.628,7.476,13.173,4.018,14.342c-7.679,2.646-17.647,2.34-23.954,1.476
			c-10.984-1.577-17.189-9.154-19.224-17.292c-1.933-7.629,1.017-17.139,8.442-23.344c-6.51-4.476-9.256-12.002-6.408-19.376
			c2.695-6.765,9.408-10.375,16.02-10.935C264.835,26.031,269.972,27.455,273.023,30.608z"/>
		<path fill="#E85033" d="M328.666,55.223c5.544,19.529-19.021,31.582-31.022,17.597c-3.053,3.458-6.866,6.001-11.088,6.001
			c-3.051,0-5.492-2.492-5.492-5.543c0-3.052,2.441-5.544,5.492-5.544c2.238,0,4.17-2.136,5.493-4.526
			c0.509-0.915,0.813-1.78,1.017-2.695c-0.355-6.917,1.373-15.206,3.662-22.53c2.085-1.271,4.628-1.779,7.323-1.779
			C313.663,36.253,325.411,43.881,328.666,55.223z M304.763,65.343c3.307,3.307,8.443,2.543,11.189,0.103
			c5.949-5.29-1.628-15.359-9.715-18.055C303.491,52.833,301.305,61.885,304.763,65.343z"/>
		<path fill="#E85033" d="M400.585,53.544c0.203,0.051,0.355,0.102,0.609,0.204c3.459,1.118,2.035,12.815-4.018,14.443
			c0,0-6.916-5.137-14.799-4.323c-5.34,0.56-11.037,2.543-12.309,7.984c-0.254,0.967-0.406,2.238-0.406,3.204
			c0,7.781,9.459,10.579,14.748,11.138c7.935,0.865,16.783-4.424,16.783-4.424c6.104,1.627,7.578,13.324,4.12,14.443
			c-7.68,2.645-17.698,2.339-23.954,1.475c-13.375-1.882-22.784-12.714-22.784-22.632c0-9.968,8.29-20.902,21.614-22.784
			c2.543-0.355,5.238-0.559,8.086-0.61h0.204c-5.798-6.967-16.885-6.916-22.886-1.017c-6.307,0-10.884-11.087-7.73-12.918
			c4.679-3.255,9.815-4.679,14.901-4.577C383.446,33.405,393.974,40.678,400.585,53.544z"/>
		<path fill="#E85033" d="M426.984,37.118c1.882,0,3.306,0.61,3.713,1.679c2.085,6.001,3.813,13.731,3.916,21.614
			c0.203,0.915,0.61,1.78,1.118,2.695c1.271,2.391,3.205,4.476,5.493,4.476c3.052,0,5.493,2.492,5.493,5.543
			c0,3.052-2.441,5.493-5.493,5.493v0.051c-3.204,0-6.255-1.475-8.849-3.662c-2.441,7.019-7.121,13.274-15.207,17.444
			c-0.406,0.203-0.763,0.356-1.119,0.509c-3,1.424-9.256-6.713-6.408-11.596c0,0,3.256-0.355,6.713-2.237
			c9.512-5.238,8.189-19.529,1.425-36.669c0.915-3.407,5.391-5.238,8.849-5.34H426.984z"/>
		<path fill="#E85033" d="M483.134,55.223c5.544,19.529-19.02,31.582-31.022,17.597c-3.052,3.458-6.866,6.001-11.087,6.001
			c-3.052,0-5.492-2.492-5.492-5.543c0-3.052,2.44-5.544,5.492-5.544c2.238,0,4.17-2.136,5.492-4.526
			c0.509-0.915,0.814-1.78,1.018-2.695c-0.355-6.917,1.373-15.206,3.662-22.53c2.084-1.271,4.627-1.779,7.322-1.779
			C468.132,36.253,479.88,43.881,483.134,55.223z M459.231,65.343c3.306,3.307,8.442,2.543,11.188,0.103
			c5.95-5.29-1.628-15.359-9.714-18.055C457.96,52.833,455.772,61.885,459.231,65.343z"/>
		<path fill="#E85033" d="M503.431,8.841c2.594,7.73,2.339,61.944,1.424,68.251c-6.611,3.813-12.257,0.457-11.545-2.289
			c0.813-7.883-4.271-61.843-4.271-61.843c1.017-3.764,5.898-5.849,9.713-5.95C501.091,6.909,502.973,7.57,503.431,8.841z"/>
	</g>
	<linearGradient id="SVGID_1_" gradientUnits="userSpaceOnUse" x1="248.5215" y1="29.8247" x2="273.2051" y2="29.8247">
		<stop  offset="0" style="stop-color:#FFFFFF;stop-opacity:0"/>
		<stop  offset="1" style="stop-color:#FFFFFF;stop-opacity:0.4"/>
	</linearGradient>
	<path fill="url(#SVGID_1_)" d="M272.396,29.519c-7.207-3.977-16.391-4.733-23.182,0.562c-1.652,1.288-0.043,4.223,1.631,2.918
		c5.885-4.588,13.646-4.024,19.92-0.563C272.606,33.452,274.239,30.537,272.396,29.519L272.396,29.519z"/>
	<linearGradient id="SVGID_2_" gradientUnits="userSpaceOnUse" x1="380.0439" y1="36.0317" x2="355.7797" y2="37.0754">
		<stop  offset="0" style="stop-color:#FFFFFF;stop-opacity:0"/>
		<stop  offset="1" style="stop-color:#FFFFFF;stop-opacity:0.4"/>
	</linearGradient>
	<path fill="url(#SVGID_2_)" d="M379.726,33.824c-7.264-2.323-16.865-1.515-22.34,4.207c-1.33,1.391,0.603,3.7,1.951,2.291
		c4.742-4.957,13-5.707,19.323-3.686C380.517,37.231,381.583,34.418,379.726,33.824L379.726,33.824z"/>
	
		<linearGradient id="SVGID_3_" gradientUnits="userSpaceOnUse" x1="-33.7148" y1="69.2603" x2="-9.7149" y2="63.0103" gradientTransform="matrix(1.0678 -0.0152 -0.0152 1.0034 119.3976 -26.7937)">
		<stop  offset="0" style="stop-color:#FFFFFF;stop-opacity:0"/>
		<stop  offset="1" style="stop-color:#FFFFFF;stop-opacity:0.4"/>
	</linearGradient>
	<path fill="url(#SVGID_3_)" d="M107.384,37.007c-7.976-2.111-17.235-0.775-22.859,5.681c-1.366,1.568,0.842,3.947,2.228,2.359
		c4.871-5.592,12.684-6.792,19.625-4.956C108.416,40.631,109.425,37.546,107.384,37.007L107.384,37.007z"/>
	<linearGradient id="SVGID_4_" gradientUnits="userSpaceOnUse" x1="487.8857" y1="14.5078" x2="499.8859" y2="8.5077">
		<stop  offset="0" style="stop-color:#FFFFFF;stop-opacity:0"/>
		<stop  offset="1" style="stop-color:#FFFFFF;stop-opacity:0.4"/>
	</linearGradient>
	<path fill="url(#SVGID_4_)" d="M501.628,6.493c-2.77,0.349-5.637,0.309-8.24,1.438c-3.051,1.324-4.419,4.052-4.178,7.31
		c0.143,1.917,3.144,1.931,3,0c-0.412-5.56,5.411-5.243,9.418-5.748C503.521,9.254,503.544,6.251,501.628,6.493L501.628,6.493z"/>
	<linearGradient id="SVGID_5_" gradientUnits="userSpaceOnUse" x1="195.8848" y1="14.5063" x2="207.8853" y2="8.5061">
		<stop  offset="0" style="stop-color:#FFFFFF;stop-opacity:0"/>
		<stop  offset="1" style="stop-color:#FFFFFF;stop-opacity:0.4"/>
	</linearGradient>
	<path fill="url(#SVGID_5_)" d="M209.628,6.493c-2.77,0.349-5.637,0.309-8.24,1.438c-3.051,1.324-4.419,4.052-4.178,7.31
		c0.143,1.917,3.144,1.931,3,0c-0.412-5.56,5.411-5.243,9.418-5.748C211.521,9.254,211.544,6.251,209.628,6.493L209.628,6.493z"/>
	<linearGradient id="SVGID_6_" gradientUnits="userSpaceOnUse" x1="174.8857" y1="14.5078" x2="186.8861" y2="8.5076">
		<stop  offset="0" style="stop-color:#FFFFFF;stop-opacity:0"/>
		<stop  offset="1" style="stop-color:#FFFFFF;stop-opacity:0.4"/>
	</linearGradient>
	<path fill="url(#SVGID_6_)" d="M188.628,6.493c-2.77,0.349-5.637,0.309-8.24,1.438c-3.051,1.324-4.419,4.052-4.177,7.31
		c0.142,1.917,3.143,1.931,3,0c-0.412-5.56,5.411-5.243,9.418-5.748C190.521,9.254,190.544,6.251,188.628,6.493L188.628,6.493z"/>
	
		<linearGradient id="SVGID_7_" gradientUnits="userSpaceOnUse" x1="-112.79" y1="-159.3179" x2="-100.79" y2="-165.3179" gradientTransform="matrix(1.1271 0.1197 -0.1056 0.9944 257.9119 188.3345)">
		<stop  offset="0" style="stop-color:#FFFFFF;stop-opacity:0"/>
		<stop  offset="1" style="stop-color:#FFFFFF;stop-opacity:0.4"/>
	</linearGradient>
	<path fill="url(#SVGID_7_)" d="M163.945,10.083c-3.157,0.015-6.385-0.367-9.439,0.443c-3.578,0.952-5.408,3.501-5.479,6.77
		c-0.043,1.923,3.338,2.296,3.381,0.358c0.122-5.578,6.652-4.566,11.221-4.588C165.786,13.056,166.13,10.072,163.945,10.083
		L163.945,10.083z"/>
	<linearGradient id="SVGID_8_" gradientUnits="userSpaceOnUse" x1="127.8853" y1="14.5073" x2="139.8853" y2="8.5073">
		<stop  offset="0" style="stop-color:#FFFFFF;stop-opacity:0"/>
		<stop  offset="1" style="stop-color:#FFFFFF;stop-opacity:0.4"/>
	</linearGradient>
	<path fill="url(#SVGID_8_)" d="M141.627,6.493c-2.769,0.349-5.636,0.309-8.24,1.438c-3.051,1.324-4.418,4.052-4.177,7.31
		c0.142,1.917,3.143,1.931,3,0c-0.413-5.56,5.411-5.243,9.417-5.748C143.52,9.254,143.543,6.251,141.627,6.493L141.627,6.493z"/>
	<linearGradient id="SVGID_9_" gradientUnits="userSpaceOnUse" x1="56.8857" y1="14.5073" x2="68.8857" y2="8.5073">
		<stop  offset="0" style="stop-color:#FFFFFF;stop-opacity:0"/>
		<stop  offset="1" style="stop-color:#FFFFFF;stop-opacity:0.4"/>
	</linearGradient>
	<path fill="url(#SVGID_9_)" d="M70.627,6.493c-2.769,0.349-5.636,0.309-8.24,1.438c-3.051,1.324-4.418,4.052-4.177,7.31
		c0.142,1.917,3.143,1.931,3,0c-0.413-5.56,5.411-5.243,9.417-5.748C72.52,9.254,72.543,6.251,70.627,6.493L70.627,6.493z"/>
	<linearGradient id="SVGID_10_" gradientUnits="userSpaceOnUse" x1="418.791" y1="42.9917" x2="429.7072" y2="38.5749">
		<stop  offset="0" style="stop-color:#FFFFFF;stop-opacity:0"/>
		<stop  offset="1" style="stop-color:#FFFFFF;stop-opacity:0.4"/>
	</linearGradient>
	<path fill="url(#SVGID_10_)" d="M429.359,36.711c-5.058-1.072-13.616,2.766-10.944,8.953c0.766,1.772,3.35,0.242,2.591-1.514
		c-1.413-3.271,5.376-5.009,7.556-4.547C430.448,40.004,431.251,37.113,429.359,36.711L429.359,36.711z"/>
	<g>
		<g>
			<linearGradient id="SVGID_11_" gradientUnits="userSpaceOnUse" x1="481.8574" y1="61.8335" x2="456.6135" y2="78.5996">
				<stop  offset="0" style="stop-color:#FFFFFF;stop-opacity:0"/>
				<stop  offset="1" style="stop-color:#FFFFFF;stop-opacity:0.4"/>
			</linearGradient>
			<path fill="url(#SVGID_11_)" d="M481.389,63.592c-1.016,5.131-5.628,9.565-10.452,11.327c-6.48,2.366-11.753,0.358-16.97-3.599
				c-1.542-1.17-3.034,1.438-1.514,2.59c6.15,4.666,11.816,6.105,19.28,3.901c5.774-1.704,11.379-7.514,12.548-13.423
				C484.655,62.5,481.764,61.695,481.389,63.592L481.389,63.592z"/>
		</g>
	</g>
	<g>
		<g>
			<linearGradient id="SVGID_12_" gradientUnits="userSpaceOnUse" x1="327.8857" y1="61.8755" x2="302.6255" y2="78.6524">
				<stop  offset="0" style="stop-color:#FFFFFF;stop-opacity:0"/>
				<stop  offset="1" style="stop-color:#FFFFFF;stop-opacity:0.4"/>
			</linearGradient>
			<path fill="url(#SVGID_12_)" d="M327.389,63.592c-2.341,11.86-18.955,16.396-27.118,7.963c-1.348-1.393-3.467,0.731-2.121,2.121
				c9.655,9.975,29.352,4.8,32.132-9.287C330.654,62.5,327.763,61.695,327.389,63.592L327.389,63.592z"/>
		</g>
	</g>
	<g>
		<g>
			<linearGradient id="SVGID_13_" gradientUnits="userSpaceOnUse" x1="142.8242" y1="63.2876" x2="117.2762" y2="80.2557">
				<stop  offset="0" style="stop-color:#FFFFFF;stop-opacity:0"/>
				<stop  offset="1" style="stop-color:#FFFFFF;stop-opacity:0.4"/>
			</linearGradient>
			<path fill="url(#SVGID_13_)" d="M141.389,63.592c-2.167,10.982-16.802,15.646-25.875,10.771c-1.704-0.916-3.219,1.674-1.515,2.59
				c10.696,5.747,27.726,0.39,30.282-12.563C144.655,62.5,141.763,61.695,141.389,63.592L141.389,63.592z"/>
		</g>
	</g>
</g>
</svg>
