<?xml version="1.0" encoding="utf-8"?>
<!-- Generator: Adobe Illustrator 19.2.0, SVG Export Plug-In . SVG Version: 6.00 Build 0)  -->
<svg version="1.1" id="Layer_1" xmlns="http://www.w3.org/2000/svg" xmlns:xlink="http://www.w3.org/1999/xlink" x="0px" y="0px"
	 viewBox="0 0 70.3 71.6" style="enable-background:new 0 0 70.3 71.6;" xml:space="preserve">
<style type="text/css">
	.st0{opacity:0.3;fill:#3D3D3D;}
	.st1{fill:#8D633A;}
	.st2{fill:#F79421;}
	.st3{fill:#FBB03C;}
	.st4{opacity:0.2;fill:#FFFFFF;}
	.st5{opacity:0.5;fill:#FFFFFF;}
	.st6{fill-rule:evenodd;clip-rule:evenodd;fill:#F79421;}
	.st7{fill-rule:evenodd;clip-rule:evenodd;fill:url(#SVGID_1_);}
	.st8{opacity:0.1;fill-rule:evenodd;clip-rule:evenodd;fill:#010101;}
</style>
<g>
	<g>
		<g>
			<circle class="st0" cx="35.2" cy="36.4" r="35.2"/>
			<ellipse class="st1" cx="35.2" cy="33.9" rx="34.3" ry="33.9"/>
			<circle class="st2" cx="35.2" cy="33.9" r="32"/>
			<ellipse class="st3" cx="35.1" cy="33.6" rx="31" ry="30.6"/>
			<path class="st4" d="M6.1,21.4c6.2-7.7,16.8-12.8,29-12.8c12.3,0,23,5.2,29.2,13.1C59.9,10.7,48.5,3,35.1,3
				C21.8,3,10.5,10.6,6.1,21.4z"/>
			<path class="st5" d="M45.6,15.2c-0.3,0.6-0.1,1.5,0.6,1.8c0,0,1.2,1,2.7,1.9c1.5,0.9,2.9,1.4,2.9,1.4c0.6,0.4,1.3,0.1,1.7-0.5
				c0,0,0.6-0.7,1.2-2.1c0.6-1.2,0.9-2.3,0.9-2.3c0.1-0.7,0-1.3-0.6-1.8c-0.6-0.6-1.5-1.2-2.7-1.9c-1.3-0.8-2.9-1.4-2.9-1.4
				c-0.6-0.4-1.4-0.1-1.7,0.5c-0.6,0.9-0.6,1-1.2,2.3C46,14.3,45.6,15.2,45.6,15.2z"/>
			<path class="st5" d="M39.7,10.9c-0.1,0.4,0.1,0.8,0.5,0.9c0,0,0.8,0.4,1.6,0.7c0.9,0.3,1.7,0.4,1.7,0.4c0.4,0.1,0.8-0.1,0.9-0.5
				c0,0,0.2-0.5,0.5-1.3c0.2-0.8,0.2-1.4,0.2-1.4c0-0.4-0.2-0.7-0.5-0.9c-0.4-0.2-1-0.5-1.6-0.7c-0.8-0.3-1.7-0.4-1.7-0.4
				c-0.4-0.1-0.8,0.1-0.9,0.5c-0.2,0.6-0.2,0.6-0.4,1.4C39.8,10.3,39.7,10.9,39.7,10.9z"/>
		</g>
	</g>
	<g>
		<path class="st6" d="M52.6,31l-0.2-0.1L28.9,17.4l-0.2-0.1l-0.1,0c-1.5-0.6-2.8-0.6-3.9,0c-1.1,0.7-1.7,1.9-1.7,3.7h0v25.4l0,0
			c0,2.7,1,4,2.5,4.5c1.3,0.5,2.6,0.1,4-0.4l0.1,0l0.1-0.1l22.5-13l0.2-0.1l0.1-0.1c1-0.8,1.5-1.8,1.6-2.8v0
			c0.1-1.1-0.4-2.2-1.5-3.1L52.6,31z M26.9,20.8C26.9,20.7,26.9,20.8,26.9,20.8C26.9,20.8,26.8,20.8,26.9,20.8z M27.9,46.7
			c-0.5,0.2-0.9,0.4-1,0.3c-0.1-0.1,0.2-0.1,0.2-0.7h0V21.1l22.6,13L27.9,46.7z"/>
		<linearGradient id="SVGID_1_" gradientUnits="userSpaceOnUse" x1="52.1772" y1="33.9351" x2="24.1489" y2="33.9351">
			<stop  offset="0" style="stop-color:#C7723B"/>
			<stop  offset="1" style="stop-color:#5D240C"/>
		</linearGradient>
		<path class="st7" d="M27.9,19.1c-1.8-0.7-2.8-0.2-2.8,1.8v25.4c0,3.2,1.7,3,3.7,2.2l22.5-13c1.1-0.9,1.2-1.9,0.1-2.9L27.9,19.1z"
			/>
		<path class="st8" d="M30.7,44.8c-2,0.8-3.6,1-3.7-2.2V18.9c-0.3-0.1-0.5-0.1-0.8,0c-0.4,0.1-0.6,0.2-0.8,0.5
			c-0.2,0.3-0.3,0.9-0.3,1.6v25.4c0,1.1,0.2,1.8,0.6,2.2c0.3,0.3,0.7,0.5,1.2,0.5c0.6,0,1.2-0.2,2-0.5l22.5-13
			c1-0.9,1.2-1.8,0.2-2.8L30.7,44.8z"/>
	</g>
</g>
</svg>
