<?xml version="1.0" encoding="utf-8"?>
<!-- Generator: Adobe Illustrator 16.0.0, SVG Export Plug-In . SVG Version: 6.00 Build 0)  -->
<!DOCTYPE svg PUBLIC "-//W3C//DTD SVG 1.1//EN" "http://www.w3.org/Graphics/SVG/1.1/DTD/svg11.dtd">
<svg version="1.1" id="Layer_1" xmlns="http://www.w3.org/2000/svg" xmlns:xlink="http://www.w3.org/1999/xlink" x="0px" y="0px"
	 width="55.567px" height="56.567px" viewBox="0 0 55.567 56.567" enable-background="new 0 0 55.567 56.567" xml:space="preserve">
<g>
	<g>
		<circle opacity="0.3" fill="#3C3C3C" cx="27.753" cy="28.88" r="27.784"/>
		<ellipse fill="#8C6239" cx="27.753" cy="26.899" rx="27.069" ry="26.802"/>
		<circle fill="#F7931E" cx="27.754" cy="26.899" r="25.258"/>
		<radialGradient id="SVGID_1_" cx="18.1592" cy="11.2524" r="14.8865" fx="18.9222" fy="10.7325" gradientUnits="userSpaceOnUse">
			<stop  offset="0" style="stop-color:#FDD28F"/>
			<stop  offset="1" style="stop-color:#FAAB2E"/>
		</radialGradient>
		<ellipse fill="url(#SVGID_1_)" cx="27.786" cy="26.671" rx="24.478" ry="24.209"/>
		<path opacity="0.4" fill="#FFFFFF" d="M50.713,16.971C45.846,10.858,37.408,6.821,27.822,6.821
			c-9.686,0-18.189,4.121-23.041,10.329C8.205,8.58,17.209,2.461,27.783,2.461C38.281,2.461,47.242,8.496,50.713,16.971z"/>
		<path opacity="0.15" d="M5.264,39.252c5.276,5.763,13.972,9.209,23.535,8.549c9.662-0.667,17.862-5.364,22.274-11.892
			c-2.825,8.786-11.386,15.511-21.936,16.239C18.664,52.871,9.31,47.468,5.264,39.252z"/>
		<path opacity="0.5" fill="#FFFFFF" d="M19.512,12.123c0.238,0.511,0.041,1.154-0.441,1.438c0,0-0.972,0.799-2.107,1.467
			c-1.175,0.691-2.273,1.107-2.273,1.107c-0.482,0.283-1.066,0.101-1.307-0.41c0,0-0.451-0.557-0.977-1.678
			c-0.462-0.986-0.68-1.854-0.68-1.854c-0.098-0.564,0.031-1.049,0.44-1.438c0.472-0.448,1.198-0.949,2.1-1.479
			c1.05-0.618,2.28-1.095,2.28-1.095c0.482-0.284,1.068-0.102,1.307,0.409c0.438,0.703,0.453,0.793,0.936,1.818
			C19.23,11.352,19.512,12.123,19.512,12.123z"/>
		<path opacity="0.5" fill="#FFFFFF" d="M24.199,8.701c0.082,0.308-0.089,0.631-0.382,0.725c0,0-0.614,0.312-1.303,0.53
			c-0.714,0.229-1.358,0.317-1.358,0.317c-0.295,0.092-0.599-0.083-0.684-0.391c0,0-0.193-0.36-0.375-1.036
			c-0.16-0.595-0.195-1.094-0.195-1.094c0-0.319,0.119-0.566,0.383-0.727c0.303-0.185,0.751-0.364,1.299-0.538
			c0.639-0.202,1.363-0.307,1.363-0.307c0.293-0.092,0.598,0.081,0.68,0.388c0.174,0.438,0.174,0.49,0.338,1.109
			C24.119,8.245,24.199,8.701,24.199,8.701z"/>
	</g>
	<g>
		<g>
			
				<path fill-rule="evenodd" clip-rule="evenodd" fill="none" stroke="#F7931E" stroke-width="2.8575" stroke-miterlimit="22.9256" d="
				M38.062,36.345c0.491-0.589,0.437-1.183-0.197-1.608l-2.113-1.426c-0.666-0.448-1.334-0.521-1.843,0.222
				c-1.65,2.402-2.705,2.64-6.78,3.041c-4.069,0.401-9.075-4.063-9.075-9.077s4.063-9.077,9.075-9.077
				c1.197,0,2.342,0.231,3.389,0.652l-2.593,3.034c-0.75,0.88-0.906,1.264,0.302,1.487l12.22,2.266
				c2.319,0.427,2.215,0.341,1.424-1.885l-4.092-11.552c-0.349-0.99-0.605-1.143-1.385-0.23l-2.521,2.955
				c-2.003-1.095-4.3-1.717-6.743-1.717c-7.767,0-14.062,6.299-14.062,14.066c0,7.77,7.753,14.064,14.062,14.064
				C33.44,41.561,35.476,39.457,38.062,36.345z"/>
			
				<linearGradient id="SVGID_2_" gradientUnits="userSpaceOnUse" x1="106.1631" y1="26.5732" x2="135.4756" y2="26.5732" gradientTransform="matrix(-1 0 0 1 148.541 0)">
				<stop  offset="0" style="stop-color:#C7723B"/>
				<stop  offset="1" style="stop-color:#5E2000"/>
			</linearGradient>
			<path fill-rule="evenodd" clip-rule="evenodd" fill="url(#SVGID_2_)" d="M38.062,36.345c0.491-0.589,0.437-1.183-0.197-1.608
				l-2.113-1.426c-0.666-0.448-1.334-0.521-1.843,0.222c-1.65,2.402-2.705,2.64-6.78,3.041c-4.069,0.401-9.075-4.063-9.075-9.077
				s4.063-9.077,9.075-9.077c1.197,0,2.342,0.231,3.389,0.652l-2.593,3.034c-0.75,0.88-0.906,1.264,0.302,1.487l12.22,2.266
				c2.319,0.427,2.215,0.341,1.424-1.885l-4.092-11.552c-0.349-0.99-0.605-1.143-1.385-0.23l-2.521,2.955
				c-2.003-1.095-4.3-1.717-6.743-1.717c-7.767,0-14.062,6.299-14.062,14.066c0,7.77,7.753,14.064,14.062,14.064
				C33.44,41.561,35.476,39.457,38.062,36.345z"/>
		</g>
		<path opacity="0.1" fill-rule="evenodd" clip-rule="evenodd" d="M14.873,27.496c0-7.463,5.813-13.572,13.161-14.037
			c-0.302-0.019-0.602-0.029-0.906-0.029c-7.767,0-14.062,6.299-14.062,14.066c0,7.77,7.753,14.064,14.062,14.064
			c0.392,0,0.768-0.007,1.126-0.022C22.081,41.109,14.873,34.986,14.873,27.496z"/>
		<path opacity="0.1" fill-rule="evenodd" clip-rule="evenodd" d="M37.777,12.422c-0.349-0.988-0.605-1.143-1.385-0.23l-2.521,2.955
			c0.436,0.186,0.865,0.393,1.278,0.618l2.694-3.154L37.777,12.422z"/>
		<path opacity="0.1" fill-rule="evenodd" clip-rule="evenodd" d="M42.256,25.858l-2.671-0.496l-9.551-1.77
			c-1.21-0.224-1.053-0.607-0.3-1.485l2.593-3.036c-1.049-0.421-2.191-0.652-3.389-0.652c-0.306,0-0.607,0.015-0.904,0.044
			c0.869,0.087,1.703,0.295,2.482,0.608l-2.593,3.034c-0.75,0.88-0.906,1.264,0.302,1.487l11.062,2.051l1.157,0.215
			c1.214,0.225,1.764,0.307,1.897,0.016C42.314,25.868,42.284,25.862,42.256,25.858z"/>
	</g>
</g>
</svg>
