<?xml version="1.0" encoding="utf-8"?>
<!-- Generator: Adobe Illustrator 16.0.4, SVG Export Plug-In . SVG Version: 6.00 Build 0)  -->
<!DOCTYPE svg PUBLIC "-//W3C//DTD SVG 1.1//EN" "http://www.w3.org/Graphics/SVG/1.1/DTD/svg11.dtd">
<svg version="1.1" id="Layer_1" xmlns="http://www.w3.org/2000/svg" xmlns:xlink="http://www.w3.org/1999/xlink" x="0px" y="0px"
	 width="53.121px" height="57.583px" viewBox="0 0 53.121 57.583" style="enable-background:new 0 0 53.121 57.583;"
	 xml:space="preserve">
<style type="text/css">
<![CDATA[
	.st0{fill-rule:evenodd;clip-rule:evenodd;fill:#185462;}
	.st1{fill-rule:evenodd;clip-rule:evenodd;fill:#2E3192;}
	.st2{fill-rule:evenodd;clip-rule:evenodd;fill:#FFFFFF;}
	.st3{fill-rule:evenodd;clip-rule:evenodd;fill:#9FD9DE;}
	.st4{fill-rule:evenodd;clip-rule:evenodd;fill:url(#SVGID_1_);}
	.st5{fill-rule:evenodd;clip-rule:evenodd;fill:url(#SVGID_2_);}
	.st6{fill-rule:evenodd;clip-rule:evenodd;fill:url(#SVGID_3_);}
	.st7{fill-rule:evenodd;clip-rule:evenodd;fill:url(#SVGID_4_);}
	.st8{fill-rule:evenodd;clip-rule:evenodd;fill:url(#SVGID_5_);}
	.st9{opacity:0.54;fill-rule:evenodd;clip-rule:evenodd;fill:#FFFFFF;}
]]>
</style>
<g>
	
		<linearGradient id="SVGID_1_" gradientUnits="userSpaceOnUse" x1="9756.6133" y1="15.0791" x2="9768.4736" y2="24.0165" gradientTransform="matrix(-1 0 0 1 9806.5352 0)">
		<stop  offset="0" style="stop-color:#185462"/>
		<stop  offset="0.243" style="stop-color:#337280"/>
		<stop  offset="0.4862" style="stop-color:#4792A1"/>
		<stop  offset="0.7019" style="stop-color:#55ADBD"/>
		<stop  offset="0.8806" style="stop-color:#5FBFD0"/>
		<stop  offset="1" style="stop-color:#61C9DA"/>
	</linearGradient>
	<polygon class="st4" points="47.933,10.044 50.196,13.864 50.302,14.094 50.403,14.328 50.502,14.562 50.597,14.8 50.687,15.039 
		50.772,15.28 50.854,15.523 50.931,15.767 51.004,16.015 51.073,16.263 51.136,16.514 51.197,16.765 51.278,17.112 51.354,17.437 
		51.429,17.737 51.498,18.019 51.56,18.279 51.619,18.521 51.67,18.746 51.716,18.953 51.75,19.146 51.778,19.321 51.797,19.483 
		51.806,19.632 51.804,19.769 51.792,19.894 51.771,20.007 51.733,20.112 51.685,20.21 51.623,20.299 51.547,20.381 51.456,20.457 
		51.35,20.529 51.227,20.597 51.089,20.661 50.933,20.724 50.757,20.785 50.563,20.847 50.353,20.91 50.119,20.975 49.868,21.04 
		49.593,21.11 49.297,21.187 48.98,21.268 42.231,22.943 41.878,23.033 41.55,23.117 41.243,23.197 40.962,23.272 40.702,23.339 
		40.463,23.402 40.242,23.458 40.042,23.505 39.857,23.546 39.693,23.577 39.544,23.601 39.409,23.612 39.288,23.615 39.181,23.607 
		39.086,23.589 39.003,23.558 38.929,23.516 38.866,23.46 38.812,23.392 38.764,23.31 36.5,19.49 36.547,19.572 36.603,19.642 
		36.666,19.696 36.739,19.739 36.822,19.769 36.917,19.788 37.024,19.796 37.146,19.793 37.28,19.78 37.429,19.758 37.595,19.725 
		37.778,19.686 37.979,19.638 38.199,19.583 38.438,19.521 38.699,19.452 38.98,19.378 39.286,19.298 39.615,19.214 39.968,19.124 
		46.717,17.448 47.035,17.366 47.33,17.292 47.604,17.222 47.856,17.155 48.089,17.091 48.3,17.028 48.494,16.966 48.668,16.904 
		48.825,16.843 48.964,16.776 49.086,16.709 49.192,16.638 49.284,16.562 49.359,16.479 49.42,16.391 49.471,16.294 49.505,16.188 
		49.528,16.075 49.543,15.95 49.544,15.812 49.534,15.664 49.516,15.502 49.485,15.326 49.451,15.134 49.406,14.927 49.354,14.702 
		49.297,14.46 49.233,14.198 49.165,13.918 49.092,13.616 49.015,13.292 48.934,12.946 48.874,12.694 48.81,12.444 48.74,12.195 
		48.667,11.947 48.59,11.704 48.509,11.461 48.423,11.219 48.334,10.98 48.237,10.743 48.14,10.509 48.039,10.274 	"/>
	
		<linearGradient id="SVGID_2_" gradientUnits="userSpaceOnUse" x1="9776.6855" y1="13.5479" x2="9797.7734" y2="31.2429" gradientTransform="matrix(-1 0 0 1 9806.5352 0)">
		<stop  offset="0" style="stop-color:#185462"/>
		<stop  offset="0.243" style="stop-color:#337280"/>
		<stop  offset="0.4862" style="stop-color:#4792A1"/>
		<stop  offset="0.7019" style="stop-color:#55ADBD"/>
		<stop  offset="0.8806" style="stop-color:#5FBFD0"/>
		<stop  offset="1" style="stop-color:#61C9DA"/>
	</linearGradient>
	<polygon class="st5" points="35.19,13.956 37.454,17.775 37.368,17.618 37.28,17.463 37.187,17.311 37.092,17.161 36.992,17.013 
		36.891,16.865 36.786,16.72 36.676,16.578 36.565,16.438 36.452,16.301 36.333,16.164 36.212,16.032 36.087,15.9 35.685,15.51 
		35.259,15.155 34.813,14.829 34.348,14.538 33.863,14.277 33.363,14.05 32.846,13.854 32.313,13.688 31.768,13.555 31.208,13.452 
		30.639,13.38 30.058,13.339 29.468,13.329 28.869,13.35 28.265,13.401 27.652,13.481 27.036,13.591 26.417,13.733 25.796,13.901 
		25.173,14.103 24.549,14.33 23.927,14.587 23.306,14.874 22.688,15.188 22.075,15.531 21.468,15.904 20.868,16.304 20.274,16.731 
		19.69,17.187 19.116,17.671 18.554,18.181 18.004,18.719 17.472,19.278 16.967,19.849 16.489,20.431 16.039,21.026 15.614,21.627 
		15.219,22.239 14.849,22.857 14.507,23.48 14.194,24.109 13.907,24.741 13.65,25.378 13.421,26.013 13.22,26.648 13.048,27.284 
		12.905,27.917 12.79,28.546 12.706,29.171 12.649,29.79 12.624,30.401 12.628,31.007 12.661,31.602 12.726,32.187 12.82,32.759 
		12.946,33.319 13.101,33.866 13.288,34.397 13.507,34.913 13.755,35.411 14.036,35.89 11.772,32.07 11.492,31.591 11.243,31.093 
		11.024,30.578 10.838,30.047 10.683,29.501 10.558,28.94 10.462,28.366 10.398,27.782 10.366,27.188 10.36,26.583 10.386,25.97 
		10.442,25.351 10.526,24.727 10.642,24.097 10.784,23.464 10.957,22.829 11.157,22.193 11.388,21.558 11.645,20.922 11.931,20.29 
		12.244,19.661 12.586,19.038 12.954,18.419 13.352,17.808 13.776,17.206 14.227,16.612 14.704,16.029 15.208,15.458 15.738,14.899 
		16.29,14.361 16.854,13.851 17.426,13.367 18.011,12.912 18.604,12.485 19.204,12.085 19.812,11.712 20.425,11.368 21.042,11.054 
		21.661,10.769 22.285,10.51 22.907,10.281 23.532,10.082 24.153,9.913 24.774,9.771 25.388,9.661 26.001,9.581 26.605,9.53 
		27.203,9.51 27.794,9.521 28.374,9.561 28.946,9.632 29.504,9.735 30.051,9.87 30.582,10.034 31.1,10.23 31.601,10.459 
		32.084,10.72 32.55,11.01 32.995,11.335 33.421,11.69 33.824,12.081 33.948,12.212 34.069,12.345 34.188,12.48 34.303,12.619 
		34.412,12.759 34.521,12.901 34.627,13.046 34.729,13.192 34.827,13.342 34.923,13.491 35.016,13.645 35.104,13.8 	"/>
	
		<linearGradient id="SVGID_3_" gradientUnits="userSpaceOnUse" x1="9759.8066" y1="33.5796" x2="9775.0703" y2="54.5887" gradientTransform="matrix(-1 0 0 1 9806.5352 0)">
		<stop  offset="0" style="stop-color:#185462"/>
		<stop  offset="0.243" style="stop-color:#337280"/>
		<stop  offset="0.4862" style="stop-color:#4792A1"/>
		<stop  offset="0.7019" style="stop-color:#55ADBD"/>
		<stop  offset="0.8806" style="stop-color:#5FBFD0"/>
		<stop  offset="1" style="stop-color:#61C9DA"/>
	</linearGradient>
	<polygon class="st6" points="49.185,32.093 36.827,52.927 36.588,53.335 36.361,53.717 36.147,54.071 35.942,54.403 35.749,54.706 
		35.567,54.985 35.394,55.238 35.229,55.466 35.071,55.669 34.922,55.846 34.78,55.998 34.646,56.125 34.517,56.228 34.392,56.306 
		34.276,56.358 34.16,56.388 34.051,56.392 33.942,56.372 33.839,56.327 33.737,56.259 33.636,56.166 33.537,56.05 33.438,55.909 
		31.175,52.089 31.272,52.23 31.374,52.347 31.474,52.438 31.575,52.507 31.68,52.552 31.786,52.571 31.897,52.568 32.011,52.539 
		32.13,52.486 32.253,52.407 32.382,52.306 32.517,52.179 32.658,52.026 32.809,51.85 32.965,51.646 33.13,51.419 33.303,51.166 
		33.486,50.887 33.68,50.583 33.884,50.253 34.099,49.897 34.326,49.516 34.563,49.107 46.921,28.273 47.121,27.948 47.306,27.647 
		47.47,27.37 47.619,27.113 47.751,26.878 47.864,26.663 47.961,26.468 48.039,26.292 48.1,26.135 48.143,25.993 48.166,25.87 
		48.172,25.761 48.159,25.669 48.127,25.591 50.391,29.411 50.423,29.489 50.435,29.581 50.431,29.689 50.405,29.812 50.364,29.953 
		50.302,30.111 50.224,30.287 50.128,30.483 50.014,30.697 49.884,30.934 49.733,31.189 49.568,31.468 49.384,31.769 	"/>
	
		<linearGradient id="SVGID_4_" gradientUnits="userSpaceOnUse" x1="9780.6816" y1="44.7754" x2="9801.002" y2="50.9879" gradientTransform="matrix(-1 0 0 1 9806.5352 0)">
		<stop  offset="0" style="stop-color:#185462"/>
		<stop  offset="0.243" style="stop-color:#337280"/>
		<stop  offset="0.4862" style="stop-color:#4792A1"/>
		<stop  offset="0.7019" style="stop-color:#55ADBD"/>
		<stop  offset="0.8806" style="stop-color:#5FBFD0"/>
		<stop  offset="1" style="stop-color:#61C9DA"/>
	</linearGradient>
	<polygon class="st7" points="28.982,46.691 31.245,50.511 30.481,50.802 29.709,51.078 28.93,51.337 28.146,51.581 27.355,51.807 
		26.564,52.015 25.771,52.202 24.976,52.374 24.181,52.522 23.386,52.652 22.594,52.762 21.806,52.849 21.021,52.913 20.241,52.955 
		19.47,52.973 18.706,52.968 17.951,52.937 17.206,52.88 16.473,52.799 15.75,52.69 15.042,52.556 14.347,52.392 13.669,52.2 
		13.007,51.979 12.363,51.729 11.738,51.447 11.132,51.137 10.547,50.794 9.984,50.419 9.446,50.012 8.933,49.57 8.443,49.095 
		7.747,48.324 7.112,47.512 4.85,43.692 5.485,44.505 6.181,45.274 6.669,45.751 7.184,46.192 7.723,46.599 8.284,46.974 
		8.868,47.317 9.474,47.629 10.099,47.909 10.743,48.159 11.405,48.381 12.084,48.571 12.777,48.735 13.485,48.872 14.208,48.979 
		14.942,49.062 15.688,49.117 16.443,49.147 17.206,49.153 17.979,49.136 18.757,49.095 19.541,49.028 20.33,48.942 21.122,48.833 
		21.916,48.704 22.712,48.555 23.507,48.384 24.301,48.194 25.093,47.986 25.882,47.761 26.666,47.518 27.445,47.259 28.218,46.983 
			"/>
	
		<linearGradient id="SVGID_5_" gradientUnits="userSpaceOnUse" x1="9802.1543" y1="40.8369" x2="9762.043" y2="17.6789" gradientTransform="matrix(-1 0 0 1 9806.5352 0)">
		<stop  offset="0" style="stop-color:#008FA6"/>
		<stop  offset="1" style="stop-color:#91D5DE"/>
	</linearGradient>
	<path class="st8" d="M45.044,5.885c1.903,1.968,3.271,4.361,3.89,7.062c0.875,3.817,1.295,3.609-2.217,4.502l-6.749,1.676
		c-3.902,0.97-3.447,1.296-3.782-1.877c-0.212-1.992-1.021-3.781-2.361-5.166c-4.183-4.327-12.282-3.063-18.086,2.818
		c-5.803,5.883-7.116,14.161-2.934,18.486c2.681,2.772,6.967,3.25,11.228,1.689l-1.606-3.539c-1.204-2.544-1.407-2.418,1.632-2.85
		l20.152-2.862c4.292-0.609,4.934-1.139,2.711,2.449L34.563,49.107c-2.615,4.487-3.046,4.516-4.353,0.67l-1.229-3.086
		c-8.11,3.188-17.728,3.833-22.802-1.417c-7.734-7.995-5.832-23.629,4.897-34.504C21.808-0.105,37.31-2.113,45.044,5.885z"/>
	<path class="st9" d="M46.972,8.31c-4.516,1.146-8.707,2.624-12.574,4.43c-0.179-0.229-0.369-0.449-0.573-0.658
		c-4.183-4.327-12.282-3.063-18.086,2.818c-5.26,5.334-6.833,12.637-3.962,17.179c-2.478,3.758-4.562,7.916-6.258,12.466
		c-6.918-8.172-5.004-23.15,5.566-33.865S37.31-2.113,45.044,5.885C45.769,6.634,46.415,7.444,46.972,8.31z"/>
	<path class="st3" d="M47.046,26.505C31.042,44.311,11.123,47.476,5.425,35.733C11.448,47.476,31.714,43.147,47.046,26.505z"/>
	<path class="st2" d="M49.534,16.036c-0.325,0.396-1.109,0.575-2.639,0.963l-6.748,1.677c-3.902,0.971-3.446,1.295-3.783-1.876
		c-0.211-1.994-1.021-3.781-2.36-5.166c-4.183-4.326-12.281-3.064-18.085,2.817c-2,2.026-3.465,4.337-4.357,6.671
		c0.904-2.18,2.307-4.326,4.177-6.223c5.804-5.882,13.903-7.146,18.086-2.818c1.341,1.385,2.149,3.174,2.361,5.166
		c0.335,3.173-0.12,2.847,3.782,1.877l6.749-1.676C48.728,16.938,49.448,16.787,49.534,16.036L49.534,16.036z M23.882,34.743
		c0.109-0.037,0.219-0.076,0.329-0.117l-1.606-3.538c-0.458-0.968-0.771-1.549-0.815-1.922c-0.429,0.308-0.068,0.882,0.637,2.37
		L23.882,34.743L23.882,34.743z M46.921,28.273L34.563,49.107c-2.615,4.487-3.046,4.516-4.353,0.67l-1.229-3.086
		c-8.11,3.188-17.728,3.833-22.802-1.417c-5.218-5.393-6.27-14.156-2.808-22.601c-3.259,8.304-2.14,16.854,2.987,22.153
		c5.074,5.249,14.691,4.605,22.801,1.416l1.229,3.086c1.307,3.847,1.737,3.818,4.353-0.669l12.357-20.836
		c0.477-0.77,0.821-1.349,1.026-1.778C47.998,26.489,47.59,27.196,46.921,28.273z"/>
	<path class="st2" d="M18.327,8.513C33.755-0.014,42.31,8,42.692,17.636C41.82,7.087,32.741,0.916,18.327,8.513z"/>
	<path class="st1" d="M31.418,52.392c-0.384-0.359-0.739-1.238-1.207-2.614l-1.114-2.799c0.032-0.013,0.063-0.024,0.096-0.036
		l1.229,3.086C30.802,51.151,31.109,51.942,31.418,52.392z"/>
	<path class="st0" d="M45.044,5.885c0.31,0.32,0.606,0.652,0.885,0.995c-0.217-0.254-0.442-0.503-0.676-0.743
		c-7.735-7.999-23.236-5.991-33.966,4.885c-10.33,10.47-12.475,25.347-5.72,33.577c-7.008-8.176-4.925-23.25,5.511-33.828
		C21.808-0.105,37.31-2.113,45.044,5.885z"/>
</g>
</svg>
