<?xml version="1.0" encoding="utf-8"?>
<!-- Generator: Adobe Illustrator 16.0.0, SVG Export Plug-In . SVG Version: 6.00 Build 0)  -->
<!DOCTYPE svg PUBLIC "-//W3C//DTD SVG 1.1//EN" "http://www.w3.org/Graphics/SVG/1.1/DTD/svg11.dtd">
<svg version="1.1" id="Layer_1" xmlns="http://www.w3.org/2000/svg" xmlns:xlink="http://www.w3.org/1999/xlink" x="0px" y="0px"
	 width="60.556px" height="60.557px" viewBox="0 0 60.556 60.557" enable-background="new 0 0 60.556 60.557" xml:space="preserve">
<g>
	<g>
		<g>
			<g>
				<g>
					<g>
						<radialGradient id="SVGID_1_" cx="30.2778" cy="30.2783" r="30.2783" gradientUnits="userSpaceOnUse">
							<stop  offset="0" style="stop-color:#000000;stop-opacity:0.1"/>
							<stop  offset="1" style="stop-color:#000000;stop-opacity:0.0969"/>
						</radialGradient>
						<path fill-rule="evenodd" clip-rule="evenodd" fill="url(#SVGID_1_)" d="M30.277,60.557C13.583,60.557,0,46.975,0,30.279
							C0,13.583,13.583,0,30.277,0c16.696,0,30.279,13.583,30.279,30.279C60.556,46.975,46.973,60.557,30.277,60.557z"/>
						<path fill-rule="evenodd" clip-rule="evenodd" fill="#FFFFFF" d="M30.277,59.689c-16.215,0-29.41-13.194-29.41-29.41
							c0-16.217,13.194-29.412,29.41-29.412c16.217,0,29.411,13.195,29.411,29.412C59.688,46.495,46.495,59.689,30.277,59.689z"/>
						<radialGradient id="SVGID_2_" cx="37.5015" cy="44.0205" r="27.6725" gradientUnits="userSpaceOnUse">
							<stop  offset="0" style="stop-color:#000000;stop-opacity:0.1"/>
							<stop  offset="1" style="stop-color:#000000;stop-opacity:0.0969"/>
						</radialGradient>
						<path fill-rule="evenodd" clip-rule="evenodd" fill="url(#SVGID_2_)" d="M30.277,58.82c-15.738,0-28.541-12.804-28.541-28.541
							c0-15.739,12.803-28.543,28.541-28.543c15.739,0,28.542,12.804,28.542,28.543C58.82,46.017,46.016,58.82,30.277,58.82z"/>
						<radialGradient id="SVGID_3_" cx="37.3921" cy="43.8115" r="27.2519" gradientUnits="userSpaceOnUse">
							<stop  offset="0.0039" style="stop-color:#53C5CE"/>
							<stop  offset="0.1992" style="stop-color:#4ABACE"/>
							<stop  offset="0.5435" style="stop-color:#339CCC"/>
							<stop  offset="0.9936" style="stop-color:#0D6DCA"/>
							<stop  offset="1" style="stop-color:#0C6CCA"/>
						</radialGradient>
						<circle fill-rule="evenodd" clip-rule="evenodd" fill="url(#SVGID_3_)" cx="30.278" cy="30.279" r="28.108"/>
						<radialGradient id="SVGID_4_" cx="39.3394" cy="9.9707" r="34.291" gradientUnits="userSpaceOnUse">
							<stop  offset="0.0039" style="stop-color:#53C5CE"/>
							<stop  offset="0.1992" style="stop-color:#4ABACE"/>
							<stop  offset="0.5435" style="stop-color:#339CCC"/>
							<stop  offset="0.9936" style="stop-color:#0D6DCA"/>
							<stop  offset="1" style="stop-color:#0C6CCA"/>
						</radialGradient>
						<path fill-rule="evenodd" clip-rule="evenodd" fill="url(#SVGID_4_)" d="M29.757,3.905c15.525,0,28.109,12.586,28.109,28.108
							c0,2.465-0.32,4.855-0.916,7.135c0.928-2.789,1.437-5.77,1.437-8.869c0-15.524-12.585-28.109-28.109-28.109
							c-13.058,0-24.034,8.907-27.191,20.975C6.8,11.969,17.334,3.905,29.757,3.905z"/>
						<radialGradient id="SVGID_5_" cx="40.1675" cy="45.8945" r="38.568" gradientUnits="userSpaceOnUse">
							<stop  offset="0" style="stop-color:#FFFFFF;stop-opacity:0.5"/>
							<stop  offset="1" style="stop-color:#FFFFFF;stop-opacity:0"/>
						</radialGradient>
						<path fill-rule="evenodd" clip-rule="evenodd" fill="url(#SVGID_5_)" d="M2.17,30.279c0,7.111,2.647,13.602,7.002,18.553
							c22.248-0.251,40.191-14.828,40.191-32.781c0-2.513-0.363-4.956-1.029-7.309C43.45,4.643,37.153,2.17,30.277,2.17
							C14.754,2.17,2.17,14.755,2.17,30.279z"/>
						<radialGradient id="SVGID_6_" cx="12.4067" cy="9.9775" r="42.7184" gradientUnits="userSpaceOnUse">
							<stop  offset="0" style="stop-color:#000000;stop-opacity:0.1"/>
							<stop  offset="1" style="stop-color:#000000;stop-opacity:0.0969"/>
						</radialGradient>
						<path fill-rule="evenodd" clip-rule="evenodd" fill="url(#SVGID_6_)" d="M3.905,32.187C3.905,16.663,16.49,4.08,32.013,4.08
							c7.779,0,14.823,3.162,19.911,8.271C46.77,6.131,38.986,2.17,30.277,2.17C14.754,2.17,2.17,14.755,2.17,30.279
							c0,7.742,3.131,14.751,8.196,19.836C6.331,45.249,3.905,39.002,3.905,32.187z"/>
						<radialGradient id="SVGID_7_" cx="13.9985" cy="11.7461" r="42.0323" gradientUnits="userSpaceOnUse">
							<stop  offset="0" style="stop-color:#FFFFFF;stop-opacity:0.2"/>
							<stop  offset="1" style="stop-color:#FFFFFF;stop-opacity:0"/>
						</radialGradient>
						<path fill-rule="evenodd" clip-rule="evenodd" fill="url(#SVGID_7_)" d="M50.653,10.928c0.438,0.462,0.865,0.934,1.271,1.424
							C46.836,7.242,39.792,4.08,32.013,4.08C16.49,4.08,3.905,16.663,3.905,32.187c0,6.431,2.163,12.354,5.796,17.091
							c0.541,0.65,1.108,1.279,1.707,1.878C7.371,46.29,4.946,40.044,4.946,33.228c0-15.523,12.585-28.107,28.109-28.107
							c7.779,0,14.821,3.163,19.911,8.271C52.246,12.522,51.469,11.704,50.653,10.928z"/>
						<radialGradient id="SVGID_8_" cx="39.7837" cy="45.8838" r="23.8989" gradientUnits="userSpaceOnUse">
							<stop  offset="0" style="stop-color:#000000;stop-opacity:0.1"/>
							<stop  offset="1" style="stop-color:#000000;stop-opacity:0.0969"/>
						</radialGradient>
						<path fill-rule="evenodd" clip-rule="evenodd" fill="url(#SVGID_8_)" d="M49.898,10.16c4.002,4.855,6.405,11.078,6.405,17.861
							c0,15.523-12.584,28.109-28.109,28.109c-7.634,0-14.554-3.049-19.62-7.99c5.156,6.256,12.963,10.246,21.703,10.246
							c15.523,0,28.108-12.585,28.108-28.109C58.385,22.391,55.13,15.266,49.898,10.16z"/>
						<radialGradient id="SVGID_9_" cx="37.9604" cy="43.8525" r="23.5363" gradientUnits="userSpaceOnUse">
							<stop  offset="0" style="stop-color:#FFFFFF;stop-opacity:0.2"/>
							<stop  offset="1" style="stop-color:#FFFFFF;stop-opacity:0"/>
						</radialGradient>
						<path fill-rule="evenodd" clip-rule="evenodd" fill="url(#SVGID_9_)" d="M8.575,48.142c5.066,4.94,11.986,7.989,19.621,7.989
							c15.523,0,28.107-12.584,28.107-28.107c0-6.332-2.096-12.176-5.629-16.875c-0.679-0.831-1.396-1.628-2.164-2.377
							c4.002,4.856,6.404,11.08,6.404,17.862c0,15.524-12.583,28.109-28.107,28.109c-7.635,0-14.556-3.049-19.621-7.99
							c0.765,0.93,1.596,1.8,2.473,2.623C9.287,48.975,8.924,48.564,8.575,48.142z"/>
					</g>
					<g>
						<radialGradient id="SVGID_10_" cx="39.9937" cy="-7.5469" r="56.505" gradientUnits="userSpaceOnUse">
							<stop  offset="0" style="stop-color:#FFFFFF;stop-opacity:0.5"/>
							<stop  offset="1" style="stop-color:#FFFFFF;stop-opacity:0"/>
						</radialGradient>
						<path fill-rule="evenodd" clip-rule="evenodd" fill="url(#SVGID_10_)" d="M9.458,32.014
							c-0.694-6.939,4.511-14.922,9.37-19.086c3.469-3.124,26.025-10.41,20.821,1.735c-1.39,3.816-14.574,12.146-18.392,14.921
							c-2.776,2.082-13.534,9.371-11.452-0.693"/>
					</g>
				</g>
			</g>
		</g>
	</g>
	<g>
		<radialGradient id="SVGID_11_" cx="30.2778" cy="31.0439" r="16.7687" gradientUnits="userSpaceOnUse">
			<stop  offset="0" style="stop-color:#134E00;stop-opacity:0.2"/>
			<stop  offset="1" style="stop-color:#002500;stop-opacity:0.1"/>
		</radialGradient>
		<path fill="url(#SVGID_11_)" d="M16.687,25.463c0.674-0.52,1.334-0.182,1.995,0.281l6.195,6.321c0.548,0.604,1.096,0.366,1.644,0
			l14.708-14.807c0.801-0.87,1.602-0.955,2.402-0.267l4.846,4.285c1.012,0.829,0.479,1.488-0.267,2.136L26.534,45.074
			c-0.407,0.463-0.856,0.772-1.643,0.057L11.995,32.389c-0.604-0.66-0.632-1.236-0.07-1.713L16.687,25.463z"/>
		<linearGradient id="SVGID_12_" gradientUnits="userSpaceOnUse" x1="48.7896" y1="26.5098" x2="12.5797" y2="37.5802">
			<stop  offset="0" style="stop-color:#FBB03B"/>
			<stop  offset="0.15" style="stop-color:#FBB03B"/>
			<stop  offset="0.23" style="stop-color:#FDD28F"/>
			<stop  offset="0.37" style="stop-color:#FCC672"/>
			<stop  offset="0.58" style="stop-color:#FBB03B"/>
			<stop  offset="0.63" style="stop-color:#FBB03B"/>
			<stop  offset="0.72" style="stop-color:#FDCF88"/>
			<stop  offset="0.86" style="stop-color:#FCCB7E"/>
			<stop  offset="1" style="stop-color:#FBB03B"/>
		</linearGradient>
		<path fill="url(#SVGID_12_)" d="M43.237,17.568c0.254,0.084,0.492,0.239,0.73,0.436l0.029,0.027l3.146,3.147
			c0.646,0.548,0.787,1.067,0.632,1.587v0.015c-0.126,0.435-0.478,0.8-0.886,1.151l-3.652,3.666v-1.587l2.881-2.895l0.042-0.027
			c0.267-0.226,0.491-0.449,0.534-0.633v0.015c0.027-0.111-0.043-0.238-0.281-0.449l-0.043-0.028l-3.133-3.146l0,0v0.014v-0.014
			V17.568z M30.313,29.284l10.718-11l-0.014,0.015c0.463-0.491,0.941-0.772,1.433-0.829c0.267-0.028,0.534,0,0.786,0.099v1.278
			h-0.014h0.014l0,0l-0.027-0.014c-0.225-0.183-0.436-0.268-0.633-0.254c-0.225,0.028-0.463,0.184-0.73,0.479l-0.014,0.014
			l-11.519,11.8V29.284L30.313,29.284z M43.237,27.598v-1.587L30.313,38.977v1.574L43.237,27.598z M16.49,26.966l0.056-0.056
			c0.463-0.352,0.913-0.407,1.376-0.31c0.379,0.099,0.73,0.31,1.082,0.548l0.07,0.057l6.504,6.195l0.042,0.028
			c0.183,0.211,0.449,0.112,0.702-0.057l3.99-4.088v1.587l-3.231,3.316l-0.084,0.083c-0.703,0.464-1.419,0.773-2.206-0.083
			l-6.447-6.153c-0.239-0.155-0.478-0.295-0.675-0.338c-0.126-0.027-0.267-0.014-0.393,0.07l-3.133,3.315l-0.042,0.042
			c-0.126,0.099-0.169,0.183-0.169,0.268c0,0.126,0.099,0.281,0.281,0.478l-0.028-0.015l11.351,11.281l-0.028-0.029
			c0.211,0.197,0.337,0.254,0.407,0.239l0,0c0.07-0.014,0.183-0.111,0.295-0.239l0.014-0.027l4.088-4.103v1.574l-3.287,3.301
			c-0.253,0.28-0.52,0.52-0.914,0.59l0,0c-0.407,0.07-0.842-0.042-1.348-0.491l-0.014-0.029L13.399,32.642l-0.014-0.015
			c-0.365-0.406-0.562-0.801-0.576-1.194c-0.014-0.435,0.168-0.814,0.534-1.137L16.49,26.966z"/>
		<linearGradient id="SVGID_13_" gradientUnits="userSpaceOnUse" x1="45.5396" y1="22.6289" x2="13.9114" y2="32.2986">
			<stop  offset="0" style="stop-color:#FCC36A"/>
			<stop  offset="0.15" style="stop-color:#FDDDAB"/>
			<stop  offset="0.29" style="stop-color:#FBB03B"/>
			<stop  offset="0.58" style="stop-color:#FBB03B"/>
			<stop  offset="0.72" style="stop-color:#FDD28F"/>
			<stop  offset="1" style="stop-color:#FBB03B"/>
		</linearGradient>
		<path fill="url(#SVGID_13_)" d="M43.237,17.568c0.254,0.084,0.492,0.239,0.73,0.436l0.029,0.027l1.573,1.573l-0.802,0.787
			l-1.531-1.545l0,0v0.014v-0.014V17.568z M16.49,26.966l0.056-0.056c0.463-0.352,0.913-0.407,1.376-0.31
			c0.379,0.099,0.73,0.31,1.082,0.548l0.07,0.057l6.504,6.195l0.042,0.028c0.183,0.211,0.449,0.112,0.702-0.057l14.708-15.088
			l-0.014,0.015c0.463-0.491,0.941-0.772,1.433-0.829c0.267-0.028,0.534,0,0.786,0.099v1.278h-0.014h0.014l0,0l-0.027-0.014
			c-0.225-0.183-0.436-0.268-0.633-0.254c-0.225,0.028-0.463,0.184-0.73,0.479l-0.014,0.014l-14.75,15.116l-0.084,0.083
			c-0.703,0.464-1.419,0.773-2.206-0.083l-6.447-6.153c-0.239-0.155-0.478-0.295-0.675-0.338c-0.126-0.027-0.267-0.014-0.393,0.07
			l-3.133,3.315l-0.042,0.042c-0.014,0-0.014,0-0.014,0.014l-0.941-0.646c0.056-0.056,0.126-0.126,0.196-0.196L16.49,26.966z"/>
		<radialGradient id="SVGID_14_" cx="30.3184" cy="30.9619" r="15.08" gradientUnits="userSpaceOnUse">
			<stop  offset="0.0039" style="stop-color:#FFE100"/>
			<stop  offset="0.3835" style="stop-color:#FFD600"/>
			<stop  offset="1" style="stop-color:#FFBB00"/>
		</radialGradient>
		<path fill="url(#SVGID_14_)" d="M16.897,27.359c0.59-0.478,1.194-0.168,1.798,0.238l6.504,6.21c0.492,0.548,0.997,0.323,1.489,0
			l14.75-15.13c0.717-0.786,1.447-0.87,2.163-0.253l3.161,3.161c0.913,0.759,0.436,1.349-0.253,1.925L26.619,43.473
			c-0.351,0.407-0.773,0.703-1.476,0.056l-11.35-11.28c-0.548-0.604-0.562-1.124-0.056-1.545L16.897,27.359z"/>
		<radialGradient id="SVGID_15_" cx="29.3931" cy="28.2397" r="13.2967" gradientUnits="userSpaceOnUse">
			<stop  offset="0" style="stop-color:#FFFFFF;stop-opacity:0.6"/>
			<stop  offset="1" style="stop-color:#FFFFFF;stop-opacity:0.6"/>
		</radialGradient>
		<path fill="url(#SVGID_15_)" d="M13.61,30.815l8.963,6.026c3.764,2.205,2.725,2.305,6.153-0.604l16.45-16.238l-1.574-1.574
			c-0.716-0.617-1.446-0.533-2.163,0.253l-14.75,15.13c-0.492,0.323-0.998,0.548-1.489,0l-6.504-6.21
			c-0.604-0.406-1.208-0.716-1.798-0.238l-3.161,3.344C13.695,30.745,13.653,30.772,13.61,30.815z"/>
		<path fill="#FFF8AD" d="M44.938,19.816c-1.097-1.082-1.996-2.586-3.471-1.11l-14.764,15.13c-0.506,0.337-1.012,0.561-1.531-0.015
			l-6.504-6.181c-0.534-0.365-1.151-0.716-1.742-0.253c-1.096,1.151-2.163,2.402-3.315,3.47l-0.056-0.042l0.084-0.085l0,0
			c1.124-1.066,2.164-2.274,3.231-3.398c0.534-0.492,1.362-0.155,1.854,0.238l6.504,6.209c0.478,0.52,0.955,0.31,1.433-0.014
			L41.412,18.65l0,0l0,0c1.559-1.574,2.571,0.098,3.666,1.193L44.938,19.816z"/>
		<path fill="#FFFFFF" d="M25.523,33.499l-0.028,0.464c0.225,0.126,0.463,0.111,0.702,0l-0.042-0.408
			C25.944,33.64,25.706,33.611,25.523,33.499z"/>
		<path fill="#FBB03B" d="M16.757,26.854l0.224,0.338c0.759-0.296,1.279,0.014,1.883,0.505l0.366-0.294
			C18.386,26.783,17.628,26.319,16.757,26.854z"/>
		<path fill="#FFFBD4" d="M17.403,27.022c0.365,0,0.646,0.057,0.998,0.253l0.141-0.337c-0.408-0.31-0.717-0.365-1.209-0.296
			C17.375,26.755,17.361,26.896,17.403,27.022z"/>
		<path fill="#FBB03B" d="M13.147,30.577l0.393,0.267c-0.646,0.8,0.365,1.517,0.871,2.05l-0.492,0.211
			C13.217,32.473,12.402,31.546,13.147,30.577z"/>
		<path fill="#FCC36A" d="M13.034,30.788l0.351,0.195c-0.168,0.492-0.084,0.745,0.31,1.251l-0.352,0.253
			C12.95,31.925,12.711,31.405,13.034,30.788z"/>
		<polygon fill="#FFFBD4" points="12.992,30.914 13.358,31.055 13.315,31.152 12.95,31.04 		"/>
		<path fill="#FFFBD4" d="M13.287,31.223c-0.028,0.155-0.014,0.281,0.028,0.421l-0.337,0.169c-0.084-0.267-0.098-0.449-0.042-0.675
			L13.287,31.223z"/>
		<path fill="#FDDFAF" d="M25.607,43.894l-0.168,0.437c0.407,0.153,0.815,0.126,1.208-0.211l-0.281-0.323
			C26.043,43.992,25.902,44.007,25.607,43.894z"/>
		<path fill="#FFF8AD" d="M25.79,43.992l-0.042,0.379c0.225,0,0.351,0,0.562-0.084l-0.141-0.337
			C26.043,43.992,25.93,43.992,25.79,43.992z"/>
		<polygon fill="#FFFFFF" points="25.916,44.021 25.916,44.371 26.043,44.357 26,44.007 		"/>
		<polygon fill="#FFFBD4" points="42.38,17.526 42.521,17.976 42.76,17.947 42.831,17.512 		"/>
		<polygon fill="#FFFFFF" points="42.506,17.555 42.563,17.961 42.647,17.947 42.62,17.54 		"/>
		<polygon fill="#FFFFFF" points="17.6,26.643 17.6,27.022 17.698,27.037 17.698,26.657 		"/>
	</g>
</g>
</svg>
