<?xml version="1.0" encoding="utf-8"?>
<!-- Generator: Adobe Illustrator 16.0.0, SVG Export Plug-In . SVG Version: 6.00 Build 0)  -->
<!DOCTYPE svg PUBLIC "-//W3C//DTD SVG 1.1//EN" "http://www.w3.org/Graphics/SVG/1.1/DTD/svg11.dtd">
<svg version="1.1" id="Layer_1" xmlns="http://www.w3.org/2000/svg" xmlns:xlink="http://www.w3.org/1999/xlink" x="0px" y="0px"
	 width="106.159px" height="106.159px" viewBox="0 0 106.159 106.159" enable-background="new 0 0 106.159 106.159"
	 xml:space="preserve">
<g>
	<g>
		<g>
			<g>
				<g>
					<g>
						<radialGradient id="SVGID_1_" cx="53.0796" cy="53.0796" r="53.0796" gradientUnits="userSpaceOnUse">
							<stop  offset="0" style="stop-color:#000000;stop-opacity:0.1"/>
							<stop  offset="1" style="stop-color:#000000;stop-opacity:0.0969"/>
						</radialGradient>
						<path fill-rule="evenodd" clip-rule="evenodd" fill="url(#SVGID_1_)" d="M53.078,106.159C23.811,106.159,0,82.349,0,53.081
							C0,23.812,23.811,0,53.078,0c29.269,0,53.081,23.812,53.081,53.081C106.159,82.349,82.347,106.159,53.078,106.159z"/>
						<path fill-rule="evenodd" clip-rule="evenodd" fill="#FFFFFF" d="M53.078,104.638c-28.427,0-51.557-23.129-51.557-51.557
							c0-28.429,23.13-51.56,51.557-51.56c28.429,0,51.56,23.131,51.56,51.56C104.638,81.509,81.507,104.638,53.078,104.638z"/>
						<radialGradient id="SVGID_2_" cx="65.7422" cy="77.1699" r="48.511" gradientUnits="userSpaceOnUse">
							<stop  offset="0" style="stop-color:#000000;stop-opacity:0.1"/>
							<stop  offset="1" style="stop-color:#000000;stop-opacity:0.0969"/>
						</radialGradient>
						<path fill-rule="evenodd" clip-rule="evenodd" fill="url(#SVGID_2_)" d="M53.078,103.114
							c-27.589,0-50.034-22.443-50.034-50.033c0-27.591,22.444-50.037,50.034-50.037c27.591,0,50.036,22.446,50.036,50.037
							C103.114,80.671,80.669,103.114,53.078,103.114z"/>
						<radialGradient id="SVGID_3_" cx="65.5498" cy="76.8047" r="47.7741" gradientUnits="userSpaceOnUse">
							<stop  offset="0.0039" style="stop-color:#53C5CE"/>
							<stop  offset="0.1992" style="stop-color:#4ABACE"/>
							<stop  offset="0.5435" style="stop-color:#339CCC"/>
							<stop  offset="0.9936" style="stop-color:#0D6DCA"/>
							<stop  offset="1" style="stop-color:#0C6CCA"/>
						</radialGradient>
						<circle fill-rule="evenodd" clip-rule="evenodd" fill="url(#SVGID_3_)" cx="53.079" cy="53.081" r="49.275"/>
						<radialGradient id="SVGID_4_" cx="68.9648" cy="17.4795" r="60.114" gradientUnits="userSpaceOnUse">
							<stop  offset="0.0039" style="stop-color:#53C5CE"/>
							<stop  offset="0.1992" style="stop-color:#4ABACE"/>
							<stop  offset="0.5435" style="stop-color:#339CCC"/>
							<stop  offset="0.9936" style="stop-color:#0D6DCA"/>
							<stop  offset="1" style="stop-color:#0C6CCA"/>
						</radialGradient>
						<path fill-rule="evenodd" clip-rule="evenodd" fill="url(#SVGID_4_)" d="M52.166,6.847c27.216,0,49.276,22.063,49.276,49.275
							c0,4.32-0.562,8.512-1.606,12.508c1.626-4.89,2.519-10.115,2.519-15.549c0-27.214-22.063-49.276-49.276-49.276
							c-22.891,0-42.133,15.614-47.668,36.769C11.922,20.983,30.387,6.847,52.166,6.847z"/>
						<radialGradient id="SVGID_5_" cx="70.416" cy="80.4551" r="67.6134" gradientUnits="userSpaceOnUse">
							<stop  offset="0" style="stop-color:#FFFFFF;stop-opacity:0.5"/>
							<stop  offset="1" style="stop-color:#FFFFFF;stop-opacity:0"/>
						</radialGradient>
						<path fill-rule="evenodd" clip-rule="evenodd" fill="url(#SVGID_5_)" d="M3.804,53.081c0,12.467,4.641,23.845,12.276,32.523
							c39.003-0.439,70.458-25.993,70.458-57.466c0-4.405-0.639-8.688-1.807-12.813C76.17,8.139,65.132,3.805,53.078,3.805
							C25.865,3.805,3.804,25.867,3.804,53.081z"/>
						<radialGradient id="SVGID_6_" cx="21.749" cy="17.4922" r="74.8875" gradientUnits="userSpaceOnUse">
							<stop  offset="0" style="stop-color:#000000;stop-opacity:0.1"/>
							<stop  offset="1" style="stop-color:#000000;stop-opacity:0.0969"/>
						</radialGradient>
						<path fill-rule="evenodd" clip-rule="evenodd" fill="url(#SVGID_6_)" d="M6.845,56.425c0-27.214,22.063-49.273,49.275-49.273
							c13.639,0,25.986,5.543,34.906,14.501C81.99,10.748,68.345,3.805,53.078,3.805c-27.213,0-49.274,22.062-49.274,49.276
							c0,13.574,5.488,25.859,14.368,34.773C11.099,79.323,6.845,68.372,6.845,56.425z"/>
						<radialGradient id="SVGID_7_" cx="24.54" cy="20.5908" r="73.6856" gradientUnits="userSpaceOnUse">
							<stop  offset="0" style="stop-color:#FFFFFF;stop-opacity:0.2"/>
							<stop  offset="1" style="stop-color:#FFFFFF;stop-opacity:0"/>
						</radialGradient>
						<path fill-rule="evenodd" clip-rule="evenodd" fill="url(#SVGID_7_)" d="M88.796,19.158c0.77,0.809,1.52,1.636,2.23,2.495
							C82.106,12.695,69.759,7.152,56.12,7.152c-27.212,0-49.275,22.059-49.275,49.273c0,11.273,3.791,21.658,10.16,29.961
							c0.949,1.141,1.944,2.242,2.992,3.293C12.922,81.149,8.67,70.198,8.67,58.249c0-27.213,22.062-49.273,49.277-49.273
							c13.638,0,25.983,5.546,34.905,14.501C91.59,21.953,90.229,20.517,88.796,19.158z"/>
						<radialGradient id="SVGID_8_" cx="69.7422" cy="80.4365" r="41.8974" gradientUnits="userSpaceOnUse">
							<stop  offset="0" style="stop-color:#000000;stop-opacity:0.1"/>
							<stop  offset="1" style="stop-color:#000000;stop-opacity:0.0969"/>
						</radialGradient>
						<path fill-rule="evenodd" clip-rule="evenodd" fill="url(#SVGID_8_)" d="M87.474,17.811
							c7.016,8.513,11.229,19.421,11.229,31.313c0,27.213-22.061,49.276-49.276,49.276c-13.384,0-25.514-5.345-34.395-14.007
							c9.039,10.967,22.725,17.961,38.046,17.961c27.213,0,49.275-22.063,49.275-49.276C102.354,39.251,96.646,26.761,87.474,17.811
							z"/>
						<radialGradient id="SVGID_9_" cx="66.5479" cy="76.877" r="41.26" gradientUnits="userSpaceOnUse">
							<stop  offset="0" style="stop-color:#FFFFFF;stop-opacity:0.2"/>
							<stop  offset="1" style="stop-color:#FFFFFF;stop-opacity:0"/>
						</radialGradient>
						<path fill-rule="evenodd" clip-rule="evenodd" fill="url(#SVGID_9_)" d="M15.033,84.396C23.914,93.056,36.044,98.4,49.43,98.4
							c27.212,0,49.274-22.06,49.274-49.274c0-11.101-3.676-21.344-9.869-29.583c-1.189-1.457-2.448-2.853-3.795-4.165
							C92.058,23.891,96.269,34.8,96.269,46.69c0,27.216-22.059,49.277-49.273,49.277c-13.385,0-25.517-5.346-34.396-14.008
							c1.341,1.631,2.798,3.156,4.334,4.599C16.281,85.855,15.646,85.136,15.033,84.396z"/>
					</g>
					<g>
						<radialGradient id="SVGID_10_" cx="70.1123" cy="-13.2295" r="99.056" gradientUnits="userSpaceOnUse">
							<stop  offset="0" style="stop-color:#FFFFFF;stop-opacity:0.5"/>
							<stop  offset="1" style="stop-color:#FFFFFF;stop-opacity:0"/>
						</radialGradient>
						<path fill-rule="evenodd" clip-rule="evenodd" fill="url(#SVGID_10_)" d="M16.58,56.122
							c-1.217-12.167,7.907-26.158,16.425-33.458c6.082-5.477,45.624-18.25,36.5,3.042c-2.436,6.691-25.549,21.291-32.242,26.158
							c-4.867,3.65-23.726,16.427-20.075-1.217"/>
					</g>
				</g>
			</g>
		</g>
	</g>
	<g>
		<g>
			<g>
				<radialGradient id="SVGID_11_" cx="53.8818" cy="54.8896" r="24.3643" gradientUnits="userSpaceOnUse">
					<stop  offset="0" style="stop-color:#134E00;stop-opacity:0.2"/>
					<stop  offset="1" style="stop-color:#002500;stop-opacity:0.1"/>
				</radialGradient>
				<radialGradient id="SVGID_12_" cx="53.8818" cy="54.8896" r="25.3643" gradientUnits="userSpaceOnUse">
					<stop  offset="0" style="stop-color:#134E00;stop-opacity:0.2"/>
					<stop  offset="1" style="stop-color:#002500;stop-opacity:0.1"/>
				</radialGradient>
				
					<path fill-rule="evenodd" clip-rule="evenodd" fill="url(#SVGID_11_)" stroke="url(#SVGID_12_)" stroke-width="2" stroke-miterlimit="22.9256" d="
					M37.816,37.893c0.966-0.803,1.952-0.716,2.643,0.324l2.345,3.478c0.745,1.093,0.86,2.191-0.365,3.028
					c-3.945,2.713-4.335,4.449-4.995,11.143c-0.662,6.688,6.677,14.917,14.92,14.917c8.235,0,14.919-6.676,14.919-14.917
					c0-1.969-0.383-3.85-1.072-5.572l-4.987,4.261c-1.442,1.238-2.076,1.495-2.444-0.493l-3.723-20.087
					c-0.703-3.812-0.559-3.637,3.104-2.341l18.984,6.728c1.627,0.575,1.881,0.991,0.377,2.273l-4.863,4.15
					c1.803,3.289,2.822,7.062,2.822,11.081c0,12.764-10.346,23.114-23.116,23.114c-12.773,0-23.117-12.74-23.117-23.114
					S32.705,42.144,37.816,37.893z"/>
				<radialGradient id="SVGID_13_" cx="53.8818" cy="54.8896" r="24.3643" gradientUnits="userSpaceOnUse">
					<stop  offset="0.0039" style="stop-color:#FFE100"/>
					<stop  offset="0.3835" style="stop-color:#FFD600"/>
					<stop  offset="1" style="stop-color:#FFBB00"/>
				</radialGradient>
				<path fill-rule="evenodd" clip-rule="evenodd" fill="url(#SVGID_13_)" d="M37.816,37.893c0.966-0.803,1.952-0.716,2.643,0.324
					l2.345,3.478c0.745,1.093,0.86,2.191-0.365,3.028c-3.945,2.713-4.923,5.324-4.995,11.143
					c-0.083,6.722,6.677,14.917,14.92,14.917c8.235,0,14.919-6.676,14.919-14.917c0-1.969-0.383-3.85-1.072-5.572l-4.987,4.261
					c-1.442,1.238-2.076,1.495-2.444-0.493l-3.723-20.087c-0.703-3.812-0.559-3.637,3.104-2.341l18.984,6.728
					c1.627,0.575,1.881,0.991,0.377,2.273l-4.863,4.15c1.803,3.289,2.822,7.062,2.822,11.081c0,12.764-10.346,23.114-23.116,23.114
					c-12.773,0-23.117-12.74-23.117-23.114S32.705,42.144,37.816,37.893z"/>
			</g>
			<path opacity="0.1" fill-rule="evenodd" clip-rule="evenodd" fill="#010101" d="M52.363,76.01
				c12.269,0,22.306-9.557,23.077-21.63c0.027,0.494,0.045,0.982,0.045,1.485c0,12.764-10.352,23.114-23.122,23.114
				c-12.773,0-23.117-12.74-23.117-23.114c0-0.644,0.015-1.263,0.036-1.853C29.99,64.16,40.054,76.01,52.363,76.01z"/>
			<path opacity="0.1" fill-rule="evenodd" clip-rule="evenodd" fill="#010101" d="M77.144,38.362
				c1.627,0.575,1.881,0.991,0.377,2.273l-4.863,4.15c-0.301-0.716-0.641-1.427-1.014-2.099l5.189-4.431L77.144,38.362z"/>
			<path opacity="0.1" fill-rule="evenodd" clip-rule="evenodd" fill="#010101" d="M55.056,31l0.814,4.392l2.908,15.699
				c0.368,1.983,1.002,1.728,2.444,0.489l4.987-4.256c0.689,1.722,1.072,3.599,1.072,5.567c0,0.503-0.021,1.001-0.075,1.489
				c-0.138-1.431-0.48-2.804-0.997-4.086l-4.987,4.261c-1.442,1.238-2.076,1.495-2.444-0.493L55.412,35.88l-0.356-1.906
				c-0.365-1.993-0.506-2.897-0.021-3.12C55.038,30.908,55.05,30.957,55.056,31z"/>
		</g>
	</g>
</g>
</svg>
