<?xml version="1.0" encoding="utf-8"?>
<!-- Generator: Adobe Illustrator 16.0.0, SVG Export Plug-In . SVG Version: 6.00 Build 0)  -->
<!DOCTYPE svg PUBLIC "-//W3C//DTD SVG 1.1//EN" "http://www.w3.org/Graphics/SVG/1.1/DTD/svg11.dtd">
<svg version="1.1" id="Layer_1" xmlns="http://www.w3.org/2000/svg" xmlns:xlink="http://www.w3.org/1999/xlink" x="0px" y="0px"
	 width="23.65px" height="23.65px" viewBox="0 0 23.65 23.65" enable-background="new 0 0 23.65 23.65" xml:space="preserve">
<g>
	<g>
		<g>
			<g>
				<g>
					<g>
						<radialGradient id="SVGID_1_" cx="11.8252" cy="11.8247" r="11.8252" gradientUnits="userSpaceOnUse">
							<stop  offset="0" style="stop-color:#000000;stop-opacity:0.1"/>
							<stop  offset="1" style="stop-color:#000000;stop-opacity:0.0969"/>
						</radialGradient>
						<path fill-rule="evenodd" clip-rule="evenodd" fill="url(#SVGID_1_)" d="M11.825,23.65C5.304,23.65,0,18.347,0,11.826
							S5.304,0,11.825,0C18.347,0,23.65,5.304,23.65,11.826S18.347,23.65,11.825,23.65z"/>
						<path fill-rule="evenodd" clip-rule="evenodd" fill="#FFFFFF" d="M11.825,23.312c-6.332,0-11.487-5.152-11.487-11.486
							c0-6.333,5.155-11.488,11.487-11.488c6.333,0,11.487,5.155,11.487,11.488C23.312,18.16,18.157,23.312,11.825,23.312z"/>
						<radialGradient id="SVGID_2_" cx="14.3301" cy="16.5913" r="9.5958" gradientUnits="userSpaceOnUse">
							<stop  offset="0" style="stop-color:#000000;stop-opacity:0.1"/>
							<stop  offset="1" style="stop-color:#000000;stop-opacity:0.0969"/>
						</radialGradient>
						<path fill-rule="evenodd" clip-rule="evenodd" fill="url(#SVGID_2_)" d="M11.825,21.723c-5.457,0-9.897-4.44-9.897-9.897
							c0-5.458,4.44-9.898,9.897-9.898c5.458,0,9.898,4.44,9.898,9.898C21.723,17.283,17.282,21.723,11.825,21.723z"/>
						<radialGradient id="SVGID_3_" cx="14.292" cy="16.519" r="9.4514" gradientUnits="userSpaceOnUse">
							<stop  offset="0.2922" style="stop-color:#FDCB7E"/>
							<stop  offset="0.5707" style="stop-color:#FCC266"/>
							<stop  offset="1" style="stop-color:#FBB03B"/>
						</radialGradient>
						<circle fill-rule="evenodd" clip-rule="evenodd" fill="url(#SVGID_3_)" cx="11.825" cy="11.826" r="9.748"/>
						<radialGradient id="SVGID_4_" cx="14.9678" cy="4.7827" r="11.8924" gradientUnits="userSpaceOnUse">
							<stop  offset="0.2922" style="stop-color:#FB9C09"/>
							<stop  offset="1" style="stop-color:#FA9400"/>
						</radialGradient>
						<path fill-rule="evenodd" clip-rule="evenodd" fill="url(#SVGID_4_)" d="M11.644,2.679c5.383,0,9.748,4.365,9.748,9.749
							c0,0.855-0.11,1.683-0.316,2.474c0.32-0.967,0.498-2.001,0.498-3.076c0-5.383-4.365-9.749-9.749-9.749
							c-4.529,0-8.335,3.09-9.43,7.274C3.683,5.477,7.336,2.679,11.644,2.679z"/>
						<radialGradient id="SVGID_5_" cx="15.2549" cy="17.2407" r="13.3771" gradientUnits="userSpaceOnUse">
							<stop  offset="0" style="stop-color:#FFFFFF;stop-opacity:0.5"/>
							<stop  offset="1" style="stop-color:#FFFFFF;stop-opacity:0"/>
						</radialGradient>
						<path fill-rule="evenodd" clip-rule="evenodd" fill="url(#SVGID_5_)" d="M2.077,11.826c0,2.467,0.918,4.717,2.429,6.435
							c7.716-0.088,13.938-5.143,13.938-11.369c0-0.872-0.127-1.719-0.357-2.534c-1.694-1.422-3.878-2.28-6.262-2.28
							C6.441,2.077,2.077,6.442,2.077,11.826z"/>
						<radialGradient id="SVGID_6_" cx="5.627" cy="4.7852" r="14.8143" gradientUnits="userSpaceOnUse">
							<stop  offset="0" style="stop-color:#000000;stop-opacity:0.1"/>
							<stop  offset="1" style="stop-color:#000000;stop-opacity:0.0969"/>
						</radialGradient>
						<path fill-rule="evenodd" clip-rule="evenodd" fill="url(#SVGID_6_)" d="M2.679,12.488c0-5.384,4.365-9.748,9.748-9.748
							c2.698,0,5.141,1.097,6.904,2.869c-1.787-2.158-4.486-3.532-7.506-3.532c-5.383,0-9.748,4.365-9.748,9.749
							c0,2.686,1.086,5.115,2.842,6.879C3.521,17.017,2.679,14.851,2.679,12.488z"/>
						<radialGradient id="SVGID_7_" cx="6.1792" cy="5.3984" r="14.5765" gradientUnits="userSpaceOnUse">
							<stop  offset="0" style="stop-color:#FFFFFF;stop-opacity:0.2"/>
							<stop  offset="1" style="stop-color:#FFFFFF;stop-opacity:0"/>
						</radialGradient>
						<path fill-rule="evenodd" clip-rule="evenodd" fill="url(#SVGID_7_)" d="M18.891,5.115c0.152,0.16,0.3,0.323,0.44,0.494
							c-1.764-1.772-4.206-2.869-6.904-2.869c-5.383,0-9.748,4.364-9.748,9.748c0,2.229,0.75,4.283,2.01,5.927
							c0.188,0.226,0.385,0.443,0.592,0.651c-1.4-1.688-2.241-3.854-2.241-6.218c0-5.383,4.365-9.748,9.749-9.748
							c2.697,0,5.14,1.097,6.904,2.869C19.443,5.668,19.175,5.384,18.891,5.115z"/>
						<radialGradient id="SVGID_8_" cx="15.1221" cy="17.2378" r="8.2882" gradientUnits="userSpaceOnUse">
							<stop  offset="0" style="stop-color:#000000;stop-opacity:0.1"/>
							<stop  offset="1" style="stop-color:#000000;stop-opacity:0.0969"/>
						</radialGradient>
						<path fill-rule="evenodd" clip-rule="evenodd" fill="url(#SVGID_8_)" d="M18.629,4.849c1.388,1.684,2.222,3.841,2.222,6.194
							c0,5.383-4.363,9.747-9.748,9.747c-2.648,0-5.047-1.057-6.804-2.771c1.787,2.171,4.495,3.555,7.526,3.555
							c5.383,0,9.749-4.365,9.749-9.749C21.573,9.089,20.443,6.619,18.629,4.849z"/>
						<radialGradient id="SVGID_9_" cx="14.4893" cy="16.5327" r="8.1622" gradientUnits="userSpaceOnUse">
							<stop  offset="0" style="stop-color:#FFFFFF;stop-opacity:0.2"/>
							<stop  offset="1" style="stop-color:#FFFFFF;stop-opacity:0"/>
						</radialGradient>
						<path fill-rule="evenodd" clip-rule="evenodd" fill="url(#SVGID_9_)" d="M4.299,18.02c1.756,1.714,4.156,2.771,6.804,2.771
							c5.385,0,9.748-4.363,9.748-9.747c0-2.195-0.728-4.223-1.952-5.852c-0.235-0.288-0.483-0.564-0.752-0.824
							c1.39,1.684,2.222,3.841,2.222,6.195c0,5.383-4.363,9.747-9.746,9.747c-2.649,0-5.049-1.058-6.805-2.771
							c0.265,0.322,0.553,0.625,0.857,0.91C4.545,18.309,4.42,18.167,4.299,18.02z"/>
					</g>
					<g>
						<radialGradient id="SVGID_10_" cx="15.1943" cy="-1.292" r="19.5956" gradientUnits="userSpaceOnUse">
							<stop  offset="0" style="stop-color:#FFFFFF;stop-opacity:0.5"/>
							<stop  offset="1" style="stop-color:#FFFFFF;stop-opacity:0"/>
						</radialGradient>
						<path fill-rule="evenodd" clip-rule="evenodd" fill="url(#SVGID_10_)" d="M4.604,12.428c-0.241-2.407,1.564-5.175,3.25-6.62
							c1.203-1.083,9.025-3.61,7.221,0.602c-0.482,1.323-5.055,4.212-6.379,5.175c-0.963,0.721-4.694,3.248-3.971-0.241"/>
					</g>
				</g>
			</g>
		</g>
	</g>
</g>
</svg>
