<?xml version="1.0" encoding="utf-8"?>
<!-- Generator: Adobe Illustrator 16.0.0, SVG Export Plug-In . SVG Version: 6.00 Build 0)  -->
<!DOCTYPE svg PUBLIC "-//W3C//DTD SVG 1.1//EN" "http://www.w3.org/Graphics/SVG/1.1/DTD/svg11.dtd">
<svg version="1.1" id="Layer_1" xmlns="http://www.w3.org/2000/svg" xmlns:xlink="http://www.w3.org/1999/xlink" x="0px" y="0px"
	 width="34.642px" height="34.643px" viewBox="0 0 34.642 34.643" enable-background="new 0 0 34.642 34.643" xml:space="preserve">
<g>
	<g>
		<g>
			<g>
				<g>
					<g>
						<radialGradient id="SVGID_1_" cx="17.3208" cy="17.3213" r="17.321" gradientUnits="userSpaceOnUse">
							<stop  offset="0" style="stop-color:#000000;stop-opacity:0.1"/>
							<stop  offset="1" style="stop-color:#000000;stop-opacity:0.0969"/>
						</radialGradient>
						<path fill-rule="evenodd" clip-rule="evenodd" fill="url(#SVGID_1_)" d="M17.32,34.643C7.77,34.643,0,26.873,0,17.322
							C0,7.771,7.77,0,17.32,0s17.321,7.771,17.321,17.322C34.642,26.873,26.871,34.643,17.32,34.643z"/>
						<path fill-rule="evenodd" clip-rule="evenodd" fill="#FFFFFF" d="M17.32,34.146c-9.276,0-16.824-7.548-16.824-16.824
							c0-9.277,7.548-16.826,16.824-16.826c9.277,0,16.825,7.549,16.825,16.826C34.146,26.599,26.598,34.146,17.32,34.146z"/>
						<radialGradient id="SVGID_2_" cx="21.4531" cy="25.1826" r="15.8305" gradientUnits="userSpaceOnUse">
							<stop  offset="0" style="stop-color:#000000;stop-opacity:0.1"/>
							<stop  offset="1" style="stop-color:#000000;stop-opacity:0.0969"/>
						</radialGradient>
						<path fill-rule="evenodd" clip-rule="evenodd" fill="url(#SVGID_2_)" d="M17.32,33.649c-9.004,0-16.327-7.325-16.327-16.327
							c0-9.004,7.323-16.329,16.327-16.329s16.328,7.325,16.328,16.329C33.648,26.324,26.324,33.649,17.32,33.649z"/>
						<radialGradient id="SVGID_3_" cx="21.3896" cy="25.0635" r="15.5905" gradientUnits="userSpaceOnUse">
							<stop  offset="0.0039" style="stop-color:#53C5CE"/>
							<stop  offset="0.1992" style="stop-color:#4ABACE"/>
							<stop  offset="0.5435" style="stop-color:#339CCC"/>
							<stop  offset="0.9936" style="stop-color:#0D6DCA"/>
							<stop  offset="1" style="stop-color:#0C6CCA"/>
						</radialGradient>
						<circle fill-rule="evenodd" clip-rule="evenodd" fill="url(#SVGID_3_)" cx="17.32" cy="17.322" r="16.08"/>
						<radialGradient id="SVGID_4_" cx="22.5049" cy="5.7036" r="19.6167" gradientUnits="userSpaceOnUse">
							<stop  offset="0.0039" style="stop-color:#53C5CE"/>
							<stop  offset="0.1992" style="stop-color:#4ABACE"/>
							<stop  offset="0.5435" style="stop-color:#339CCC"/>
							<stop  offset="0.9936" style="stop-color:#0D6DCA"/>
							<stop  offset="1" style="stop-color:#0C6CCA"/>
						</radialGradient>
						<path fill-rule="evenodd" clip-rule="evenodd" fill="url(#SVGID_4_)" d="M17.022,2.234c8.882,0,16.08,7.199,16.08,16.08
							c0,1.41-0.183,2.777-0.524,4.081c0.531-1.596,0.822-3.301,0.822-5.073c0-8.882-7.199-16.081-16.08-16.081
							C9.85,1.241,3.57,6.337,1.765,13.24C3.89,6.847,9.916,2.234,17.022,2.234z"/>
						<radialGradient id="SVGID_5_" cx="22.9775" cy="26.2549" r="22.0632" gradientUnits="userSpaceOnUse">
							<stop  offset="0" style="stop-color:#FFFFFF;stop-opacity:0.5"/>
							<stop  offset="1" style="stop-color:#FFFFFF;stop-opacity:0"/>
						</radialGradient>
						<path fill-rule="evenodd" clip-rule="evenodd" fill="url(#SVGID_5_)" d="M1.24,17.322c0,4.067,1.515,7.78,4.006,10.613
							c12.729-0.144,22.992-8.483,22.992-18.754c0-1.437-0.207-2.835-0.588-4.181c-2.795-2.345-6.396-3.76-10.33-3.76
							C8.439,1.241,1.24,8.44,1.24,17.322z"/>
						<radialGradient id="SVGID_6_" cx="7.0962" cy="5.7075" r="24.4379" gradientUnits="userSpaceOnUse">
							<stop  offset="0" style="stop-color:#000000;stop-opacity:0.1"/>
							<stop  offset="1" style="stop-color:#000000;stop-opacity:0.0969"/>
						</radialGradient>
						<path fill-rule="evenodd" clip-rule="evenodd" fill="url(#SVGID_6_)" d="M2.233,18.413c0-8.881,7.199-16.079,16.079-16.079
							c4.451,0,8.48,1.809,11.391,4.732c-2.948-3.56-7.401-5.825-12.383-5.825c-8.881,0-16.08,7.199-16.08,16.081
							c0,4.429,1.791,8.438,4.689,11.347C3.621,25.886,2.233,22.312,2.233,18.413z"/>
						<radialGradient id="SVGID_7_" cx="8.0078" cy="6.7197" r="24.0453" gradientUnits="userSpaceOnUse">
							<stop  offset="0" style="stop-color:#FFFFFF;stop-opacity:0.2"/>
							<stop  offset="1" style="stop-color:#FFFFFF;stop-opacity:0"/>
						</radialGradient>
						<path fill-rule="evenodd" clip-rule="evenodd" fill="url(#SVGID_7_)" d="M28.977,6.251c0.25,0.265,0.495,0.534,0.727,0.815
							c-2.91-2.924-6.939-4.732-11.391-4.732c-8.88,0-16.079,7.198-16.079,16.079c0,3.679,1.237,7.067,3.315,9.777
							c0.31,0.372,0.635,0.731,0.977,1.074c-2.309-2.783-3.697-6.356-3.697-10.256c0-8.881,7.2-16.08,16.081-16.08
							c4.45,0,8.479,1.81,11.391,4.732C29.888,7.164,29.443,6.695,28.977,6.251z"/>
						<radialGradient id="SVGID_8_" cx="22.7588" cy="26.249" r="13.6719" gradientUnits="userSpaceOnUse">
							<stop  offset="0" style="stop-color:#000000;stop-opacity:0.1"/>
							<stop  offset="1" style="stop-color:#000000;stop-opacity:0.0969"/>
						</radialGradient>
						<path fill-rule="evenodd" clip-rule="evenodd" fill="url(#SVGID_8_)" d="M28.545,5.812c2.289,2.777,3.664,6.337,3.664,10.218
							c0,8.881-7.199,16.08-16.08,16.08c-4.367,0-8.326-1.744-11.225-4.57c2.949,3.578,7.416,5.861,12.416,5.861
							c8.88,0,16.08-7.199,16.08-16.081C33.4,12.809,31.537,8.733,28.545,5.812z"/>
						<radialGradient id="SVGID_9_" cx="21.7158" cy="25.0869" r="13.4639" gradientUnits="userSpaceOnUse">
							<stop  offset="0" style="stop-color:#FFFFFF;stop-opacity:0.2"/>
							<stop  offset="1" style="stop-color:#FFFFFF;stop-opacity:0"/>
						</radialGradient>
						<path fill-rule="evenodd" clip-rule="evenodd" fill="url(#SVGID_9_)" d="M4.905,27.54c2.897,2.826,6.856,4.57,11.225,4.57
							c8.88,0,16.079-7.198,16.079-16.079c0-3.622-1.199-6.965-3.221-9.653c-0.388-0.476-0.799-0.932-1.238-1.36
							c2.29,2.778,3.664,6.339,3.664,10.219c0,8.881-7.198,16.08-16.079,16.08c-4.368,0-8.327-1.744-11.224-4.57
							c0.438,0.531,0.912,1.029,1.414,1.5C5.312,28.017,5.104,27.782,4.905,27.54z"/>
					</g>
					<g>
						<radialGradient id="SVGID_10_" cx="22.8799" cy="-4.3174" r="32.3255" gradientUnits="userSpaceOnUse">
							<stop  offset="0" style="stop-color:#FFFFFF;stop-opacity:0.5"/>
							<stop  offset="1" style="stop-color:#FFFFFF;stop-opacity:0"/>
						</radialGradient>
						<path fill-rule="evenodd" clip-rule="evenodd" fill="url(#SVGID_10_)" d="M5.41,18.314C5.013,14.344,7.99,9.777,10.77,7.396
							c1.984-1.787,14.889-5.955,11.911,0.993c-0.794,2.183-8.337,6.947-10.521,8.535c-1.589,1.191-7.742,5.361-6.552-0.396"/>
					</g>
				</g>
			</g>
		</g>
	</g>
	<g>
		<radialGradient id="SVGID_11_" cx="17.3203" cy="17.7598" r="9.5929" gradientUnits="userSpaceOnUse">
			<stop  offset="0" style="stop-color:#134E00;stop-opacity:0.2"/>
			<stop  offset="1" style="stop-color:#002500;stop-opacity:0.1"/>
		</radialGradient>
		<path fill="url(#SVGID_11_)" d="M9.545,14.566c0.387-0.297,0.764-0.104,1.142,0.161l3.544,3.616c0.313,0.346,0.627,0.209,0.94,0
			l8.414-8.471c0.458-0.498,0.916-0.546,1.374-0.152l2.773,2.451c0.578,0.475,0.272,0.852-0.153,1.222l-12.4,12.392
			c-0.233,0.266-0.489,0.442-0.94,0.033l-7.377-7.29C6.516,18.15,6.5,17.821,6.82,17.549L9.545,14.566z"/>
		<linearGradient id="SVGID_12_" gradientUnits="userSpaceOnUse" x1="27.9102" y1="15.1655" x2="7.196" y2="21.4985">
			<stop  offset="0" style="stop-color:#FBB03B"/>
			<stop  offset="0.15" style="stop-color:#FBB03B"/>
			<stop  offset="0.23" style="stop-color:#FDD28F"/>
			<stop  offset="0.37" style="stop-color:#FCC672"/>
			<stop  offset="0.58" style="stop-color:#FBB03B"/>
			<stop  offset="0.63" style="stop-color:#FBB03B"/>
			<stop  offset="0.72" style="stop-color:#FDCF88"/>
			<stop  offset="0.86" style="stop-color:#FCCB7E"/>
			<stop  offset="1" style="stop-color:#FBB03B"/>
		</linearGradient>
		<path fill="url(#SVGID_12_)" d="M24.734,10.051c0.145,0.048,0.281,0.137,0.418,0.249l0.016,0.016l1.801,1.8
			c0.369,0.313,0.449,0.611,0.361,0.908v0.009c-0.072,0.248-0.273,0.457-0.506,0.658l-2.09,2.098V14.88l1.647-1.656l0.024-0.016
			c0.152-0.129,0.281-0.257,0.305-0.361v0.008c0.016-0.063-0.023-0.136-0.16-0.257l-0.025-0.016l-1.791-1.801l0,0v0.008v-0.008
			V10.051z M17.341,16.753l6.132-6.293l-0.008,0.008c0.265-0.28,0.538-0.441,0.819-0.474c0.153-0.017,0.306,0,0.45,0.057v0.73
			h-0.008h0.008l0,0l-0.016-0.008c-0.129-0.104-0.25-0.152-0.362-0.145c-0.128,0.016-0.265,0.104-0.418,0.273l-0.008,0.008
			l-6.59,6.75V16.753L17.341,16.753z M24.734,15.788V14.88l-7.394,7.417v0.901L24.734,15.788z M9.434,15.426l0.031-0.031
			c0.266-0.201,0.522-0.233,0.787-0.177c0.218,0.056,0.418,0.177,0.619,0.313l0.041,0.032l3.721,3.544l0.023,0.016
			c0.105,0.121,0.258,0.064,0.402-0.032l2.282-2.338v0.907l-1.849,1.897l-0.048,0.048c-0.402,0.265-0.812,0.442-1.263-0.048
			l-3.688-3.521c-0.137-0.089-0.273-0.168-0.387-0.193c-0.072-0.016-0.152-0.008-0.225,0.041l-1.792,1.896l-0.024,0.023
			c-0.072,0.057-0.096,0.104-0.096,0.153c0,0.072,0.056,0.161,0.16,0.273l-0.016-0.009l6.493,6.454l-0.017-0.017
			c0.121,0.112,0.193,0.145,0.233,0.137l0,0c0.04-0.008,0.104-0.063,0.169-0.137l0.008-0.016l2.339-2.348v0.901l-1.88,1.888
			c-0.146,0.16-0.298,0.297-0.523,0.338l0,0c-0.232,0.04-0.481-0.024-0.771-0.281l-0.008-0.017l-6.493-6.453l-0.009-0.008
			c-0.208-0.232-0.32-0.458-0.329-0.684c-0.008-0.248,0.097-0.466,0.306-0.65L9.434,15.426z"/>
		<linearGradient id="SVGID_13_" gradientUnits="userSpaceOnUse" x1="26.0518" y1="12.9458" x2="7.9584" y2="18.4775">
			<stop  offset="0" style="stop-color:#FCC36A"/>
			<stop  offset="0.15" style="stop-color:#FDDDAB"/>
			<stop  offset="0.29" style="stop-color:#FBB03B"/>
			<stop  offset="0.58" style="stop-color:#FBB03B"/>
			<stop  offset="0.72" style="stop-color:#FDD28F"/>
			<stop  offset="1" style="stop-color:#FBB03B"/>
		</linearGradient>
		<path fill="url(#SVGID_13_)" d="M24.734,10.051c0.145,0.048,0.281,0.137,0.418,0.249l0.016,0.016l0.9,0.899l-0.458,0.45
			l-0.876-0.884l0,0v0.008v-0.008V10.051z M9.434,15.426l0.031-0.031c0.266-0.201,0.522-0.233,0.787-0.177
			c0.218,0.056,0.418,0.177,0.619,0.313l0.041,0.032l3.721,3.544l0.023,0.016c0.105,0.121,0.258,0.064,0.402-0.032l8.414-8.631
			l-0.008,0.008c0.265-0.28,0.538-0.441,0.819-0.474c0.153-0.017,0.306,0,0.45,0.057v0.73h-0.008h0.008l0,0l-0.016-0.008
			c-0.129-0.104-0.25-0.152-0.362-0.145c-0.128,0.016-0.265,0.104-0.418,0.273l-0.008,0.008l-8.438,8.647l-0.048,0.048
			c-0.402,0.265-0.812,0.442-1.263-0.048l-3.688-3.521c-0.137-0.089-0.273-0.168-0.387-0.193c-0.072-0.016-0.152-0.008-0.225,0.041
			l-1.792,1.896l-0.024,0.023c-0.008,0-0.008,0-0.008,0.008l-0.538-0.369c0.032-0.031,0.071-0.072,0.112-0.112L9.434,15.426z"/>
		<radialGradient id="SVGID_14_" cx="17.3433" cy="17.7119" r="8.6269" gradientUnits="userSpaceOnUse">
			<stop  offset="0.0039" style="stop-color:#FFE100"/>
			<stop  offset="0.3835" style="stop-color:#FFD600"/>
			<stop  offset="1" style="stop-color:#FFBB00"/>
		</radialGradient>
		<path fill="url(#SVGID_14_)" d="M9.666,15.651c0.338-0.273,0.683-0.096,1.029,0.137l3.721,3.552c0.281,0.313,0.57,0.186,0.852,0
			l8.438-8.655c0.41-0.449,0.828-0.497,1.238-0.145l1.808,1.809c0.522,0.435,0.249,0.771-0.144,1.102L15.227,24.869
			c-0.2,0.233-0.441,0.402-0.844,0.032l-6.492-6.453c-0.314-0.346-0.322-0.644-0.033-0.884L9.666,15.651z"/>
		<radialGradient id="SVGID_15_" cx="16.8145" cy="16.1553" r="7.6067" gradientUnits="userSpaceOnUse">
			<stop  offset="0" style="stop-color:#FFFFFF;stop-opacity:0.6"/>
			<stop  offset="1" style="stop-color:#FFFFFF;stop-opacity:0.6"/>
		</radialGradient>
		<path fill="url(#SVGID_15_)" d="M7.785,17.629l5.128,3.447c2.153,1.262,1.559,1.318,3.52-0.346l9.411-9.29l-0.9-0.9
			c-0.41-0.353-0.828-0.305-1.238,0.145l-8.438,8.655c-0.281,0.186-0.57,0.313-0.852,0l-3.721-3.552
			c-0.347-0.232-0.691-0.41-1.029-0.137l-1.809,1.913C7.834,17.588,7.81,17.604,7.785,17.629z"/>
		<path fill="#FFF8AD" d="M25.707,11.336c-0.627-0.618-1.142-1.479-1.985-0.635l-8.446,8.655c-0.289,0.192-0.578,0.32-0.876-0.009
			l-3.721-3.535c-0.306-0.209-0.659-0.41-0.997-0.145c-0.627,0.658-1.237,1.374-1.896,1.984l-0.031-0.023l0.047-0.049l0,0
			c0.644-0.61,1.238-1.301,1.85-1.944c0.305-0.281,0.779-0.089,1.061,0.137l3.721,3.552c0.273,0.297,0.547,0.177,0.819-0.008
			l8.438-8.647l0,0l0,0c0.893-0.9,1.471,0.057,2.098,0.683L25.707,11.336z"/>
		<path fill="#FFFFFF" d="M14.6,19.164l-0.016,0.265c0.129,0.072,0.266,0.064,0.402,0l-0.024-0.233
			C14.842,19.244,14.705,19.229,14.6,19.164z"/>
		<path fill="#FBB03B" d="M9.586,15.362l0.128,0.193c0.435-0.17,0.731,0.008,1.077,0.288L11,15.676
			C10.518,15.322,10.084,15.057,9.586,15.362z"/>
		<path fill="#FFFBD4" d="M9.955,15.459c0.209,0,0.369,0.032,0.57,0.145l0.081-0.193c-0.233-0.177-0.41-0.208-0.691-0.169
			C9.939,15.306,9.932,15.386,9.955,15.459z"/>
		<path fill="#FBB03B" d="M7.521,17.492l0.225,0.152c-0.37,0.458,0.209,0.868,0.499,1.173l-0.281,0.121
			C7.561,18.576,7.094,18.047,7.521,17.492z"/>
		<path fill="#FCC36A" d="M7.456,17.613l0.2,0.111c-0.096,0.281-0.048,0.426,0.178,0.716l-0.201,0.145
			C7.408,18.264,7.271,17.966,7.456,17.613z"/>
		<polygon fill="#FFFBD4" points="7.432,17.685 7.641,17.766 7.617,17.821 7.408,17.757 		"/>
		<path fill="#FFFBD4" d="M7.601,17.861c-0.017,0.089-0.009,0.161,0.017,0.241l-0.193,0.097c-0.049-0.152-0.057-0.257-0.023-0.387
			L7.601,17.861z"/>
		<path fill="#FDDFAF" d="M14.648,25.11l-0.097,0.249c0.233,0.088,0.466,0.072,0.691-0.12l-0.161-0.185
			C14.898,25.167,14.816,25.175,14.648,25.11z"/>
		<path fill="#FFF8AD" d="M14.753,25.167l-0.024,0.216c0.129,0,0.201,0,0.322-0.048l-0.081-0.192
			C14.898,25.167,14.833,25.167,14.753,25.167z"/>
		<polygon fill="#FFFFFF" points="14.825,25.183 14.825,25.383 14.898,25.375 14.873,25.175 		"/>
		<polygon fill="#FFFBD4" points="24.244,10.026 24.324,10.283 24.461,10.268 24.501,10.018 		"/>
		<polygon fill="#FFFFFF" points="24.316,10.043 24.349,10.275 24.396,10.268 24.381,10.034 		"/>
		<polygon fill="#FFFFFF" points="10.068,15.241 10.068,15.459 10.124,15.467 10.124,15.25 		"/>
	</g>
</g>
</svg>
