<?xml version="1.0" encoding="utf-8"?>
<!-- Generator: Adobe Illustrator 16.0.0, SVG Export Plug-In . SVG Version: 6.00 Build 0)  -->
<!DOCTYPE svg PUBLIC "-//W3C//DTD SVG 1.1//EN" "http://www.w3.org/Graphics/SVG/1.1/DTD/svg11.dtd">
<svg version="1.1" id="Layer_1" xmlns="http://www.w3.org/2000/svg" xmlns:xlink="http://www.w3.org/1999/xlink" x="0px" y="0px"
	 width="203.263px" height="37.396px" viewBox="15.244 243.437 203.263 37.396"
	 enable-background="new 15.244 243.437 203.263 37.396" xml:space="preserve">
<g>
	<g opacity="0.2">
		<path fill="#161616" d="M35.49,263.879c0,3.041-0.917,5.457-2.75,7.29c-1.833,1.833-4.291,2.749-7.332,2.749
			c-3.083,0-5.54-0.916-7.415-2.708c-1.833-1.791-2.75-4.249-2.75-7.289c0-3.041,0.917-5.499,2.708-7.29
			c1.792-1.792,4.208-2.708,7.249-2.708c3.083,0,5.582,0.875,7.457,2.666C34.531,258.339,35.49,260.755,35.49,263.879z
			 M23.909,250.674h-5.166v-4.791h5.166V250.674z M29.907,264.087c0-3.832-1.542-5.748-4.666-5.748
			c-3.041,0-4.541,1.916-4.541,5.748c0,1.541,0.375,2.833,1.125,3.791c0.792,1.083,1.958,1.583,3.416,1.583
			c1.542,0,2.708-0.5,3.541-1.583C29.532,266.92,29.907,265.628,29.907,264.087z M31.782,250.674h-5.166v-4.791h5.166V250.674z"/>
		<path fill="#161616" d="M50.609,270.086c0,3.832-0.958,6.581-2.916,8.289c-1.791,1.625-4.707,2.416-8.706,2.416v-4.707
			c3.833,0,5.749-1.833,5.749-5.499v-15.537h5.874V270.086z"/>
		<path fill="#161616" d="M78.642,273.918h-5.499c-0.667,4.582-3.833,6.873-9.498,6.873h-0.625v-4.665h0.5
			c2.25,0,3.583-0.833,4.041-2.458c-0.458,0.167-1.625,0.25-3.583,0.25c-5.457,0-9.456-3.957-9.456-9.498
			c0-5.623,3.916-9.414,9.456-9.414c5.332,0,9.248,3.999,9.248,9.539v3.791h5.415V273.918z M67.395,268.336v-4.041
			c0-2.457-1.458-4.04-3.583-4.04c-2.208,0-3.374,1.708-3.374,3.915c0,2.375,1.416,4.166,3.583,4.166H67.395z"/>
		<path fill="#161616" d="M119.671,273.918H76.556v-5.582h5.249c1.917,0,2.958-1,2.958-3.999v-7.29h5.832v5.374
			c3.666-4.666,8.498-7.457,13.164-7.457c6.832,0,10.831,4.833,11.372,13.372h4.541V273.918z M109.049,268.336l0.042-0.75
			c0-4.29-2.125-7.54-5.79-7.54c-4.291,0-8.123,2.791-11.331,8.29H109.049z"/>
		<path fill="#161616" d="M131.039,265.878c0,2.208-0.625,4.041-1.833,5.499c-1.375,1.708-3.291,2.541-5.749,2.541h-5.499v-5.582
			h4.291c1.958,0,2.958-1.375,2.958-4.082v-17.163h5.832V265.878z"/>
		<path fill="#161616" d="M141.119,273.918h-5.832V247.05h5.832V273.918z"/>
		<path fill="#161616" d="M152.906,255.006h5.874v11.122c0,5.416,2.708,9.29,7.332,9.29c4.541,0,7.248-3.874,7.248-9.29v-11.122
			h5.874v11.664c0,7.748-5.624,14.163-13.164,14.163c-7.332,0-13.164-6.165-13.164-14.163V255.006z M168.61,251.882h-5.166v-4.791
			h5.166V251.882z"/>
		<path fill="#161616" d="M207.266,273.918h-5.499c-0.666,4.582-3.832,6.873-9.498,6.873h-0.624v-4.665h0.499
			c2.25,0,3.583-0.833,4.041-2.458c-0.458,0.167-1.625,0.25-3.582,0.25c-5.457,0-9.456-3.957-9.456-9.498
			c0-5.623,3.915-9.414,9.456-9.414c5.332,0,9.247,3.999,9.247,9.539v3.791h5.416V273.918z M196.018,268.336v-4.041
			c0-2.457-1.458-4.04-3.582-4.04c-2.208,0-3.374,1.708-3.374,3.915c0,2.375,1.416,4.166,3.582,4.166H196.018z"/>
		<path fill="#161616" d="M218.26,265.878c0,2.208-0.625,4.041-1.833,5.499c-1.374,1.708-3.291,2.541-5.748,2.541h-5.499v-5.582
			h4.291c1.957,0,2.957-1.375,2.957-4.082v-17.163h5.832V265.878z"/>
	</g>
	<g>
		<path fill="#1C75BA" d="M35.737,261.433c0,3.041-0.916,5.457-2.749,7.29s-4.291,2.749-7.332,2.749
			c-3.082,0-5.54-0.916-7.414-2.708c-1.833-1.791-2.75-4.249-2.75-7.289c0-3.041,0.917-5.499,2.708-7.29
			c1.791-1.792,4.207-2.708,7.248-2.708c3.083,0,5.582,0.875,7.457,2.666C34.779,255.893,35.737,258.309,35.737,261.433z
			 M24.156,248.228H18.99v-4.791h5.166V248.228z M30.155,261.641c0-3.832-1.541-5.748-4.665-5.748c-3.041,0-4.541,1.916-4.541,5.748
			c0,1.541,0.375,2.833,1.125,3.791c0.791,1.083,1.958,1.583,3.416,1.583c1.541,0,2.707-0.5,3.541-1.583
			C29.78,264.474,30.155,263.182,30.155,261.641z M32.03,248.228h-5.166v-4.791h5.166V248.228z"/>
		<path fill="#1C75BA" d="M50.856,267.64c0,3.832-0.958,6.581-2.916,8.289c-1.791,1.625-4.707,2.416-8.706,2.416v-4.707
			c3.833,0,5.749-1.833,5.749-5.499v-15.537h5.873V267.64z"/>
		<path fill="#1C75BA" d="M78.889,271.472h-5.498c-0.667,4.582-3.833,6.873-9.498,6.873h-0.625v-4.665h0.5
			c2.25,0,3.583-0.833,4.041-2.458c-0.458,0.167-1.625,0.25-3.583,0.25c-5.457,0-9.456-3.957-9.456-9.498
			c0-5.623,3.916-9.414,9.456-9.414c5.332,0,9.248,3.999,9.248,9.539v3.791h5.415V271.472z M67.642,265.89v-4.041
			c0-2.457-1.458-4.04-3.582-4.04c-2.208,0-3.374,1.708-3.374,3.915c0,2.375,1.416,4.166,3.582,4.166H67.642z"/>
		<path fill="#1C75BA" d="M119.918,271.472H76.804v-5.582h5.248c1.917,0,2.958-1,2.958-3.999v-7.29h5.832v5.374
			c3.666-4.666,8.498-7.457,13.163-7.457c6.832,0,10.831,4.833,11.372,13.372h4.541V271.472z M109.296,265.89l0.041-0.75
			c0-4.29-2.124-7.54-5.79-7.54c-4.291,0-8.123,2.791-11.33,8.29H109.296z"/>
		<path fill="#1C75BA" d="M131.286,263.432c0,2.208-0.625,4.041-1.833,5.499c-1.374,1.708-3.29,2.541-5.748,2.541h-5.499v-5.582
			h4.291c1.958,0,2.957-1.375,2.957-4.082v-17.163h5.832V263.432z"/>
		<path fill="#1C75BA" d="M141.366,271.472h-5.832v-26.868h5.832V271.472z"/>
		<path fill="#1C75BA" d="M153.153,252.56h5.874v11.122c0,5.416,2.707,9.29,7.331,9.29c4.541,0,7.248-3.874,7.248-9.29V252.56h5.874
			v11.664c0,7.748-5.624,14.163-13.163,14.163c-7.332,0-13.164-6.165-13.164-14.163V252.56z M168.858,249.436h-5.166v-4.791h5.166
			V249.436z"/>
		<path fill="#1C75BA" d="M207.513,271.472h-5.499c-0.666,4.582-3.832,6.873-9.498,6.873h-0.624v-4.665h0.499
			c2.25,0,3.583-0.833,4.041-2.458c-0.458,0.167-1.624,0.25-3.582,0.25c-5.457,0-9.456-3.957-9.456-9.498
			c0-5.623,3.915-9.414,9.456-9.414c5.332,0,9.247,3.999,9.247,9.539v3.791h5.416V271.472z M196.265,265.89v-4.041
			c0-2.457-1.457-4.04-3.582-4.04c-2.208,0-3.374,1.708-3.374,3.915c0,2.375,1.416,4.166,3.582,4.166H196.265z"/>
		<path fill="#1C75BA" d="M218.507,263.432c0,2.208-0.625,4.041-1.833,5.499c-1.374,1.708-3.291,2.541-5.748,2.541h-5.499v-5.582
			h4.291c1.957,0,2.957-1.375,2.957-4.082v-17.163h5.832V263.432z"/>
	</g>
</g>
</svg>
