<?xml version="1.0" encoding="utf-8"?>
<!-- Generator: Adobe Illustrator 16.0.0, SVG Export Plug-In . SVG Version: 6.00 Build 0)  -->
<!DOCTYPE svg PUBLIC "-//W3C//DTD SVG 1.1//EN" "http://www.w3.org/Graphics/SVG/1.1/DTD/svg11.dtd">
<svg version="1.1" id="Layer_1" xmlns="http://www.w3.org/2000/svg" xmlns:xlink="http://www.w3.org/1999/xlink" x="0px" y="0px"
	 width="341.678px" height="290.521px" viewBox="-112.178 -74.845 341.678 290.521"
	 enable-background="new -112.178 -74.845 341.678 290.521" xml:space="preserve">
<g opacity="0.2">
	<g>
		<path fill="#161616" d="M-58.447-35.282h-34.829v-6.029h4.455V-64.26h6.255l-0.585,14.714c4.05-4.229,8.1-6.21,12.555-6.21
			c8.055,0,12.375,6.165,12.375,16.335C-58.222-38.072-58.313-36.677-58.447-35.282z M-64.837-41.311
			c0.045-0.315,0.045-0.585,0.045-0.9c0-4.68-2.34-8.055-6.255-8.055c-4.635,0-8.774,3.015-12.239,8.955H-64.837z"/>
		<path fill="#161616" d="M-40.042-35.282h-5.94c-4.814,0-7.604-2.79-7.604-7.425v-21.599h6.3v18.313c0,3.061,0.765,4.681,5.4,4.681
			h1.845V-35.282z"/>
		<path fill="#161616" d="M-11.423-35.282h-3.645c-4.365,0-8.1-0.54-11.25-1.665c-3.15,1.125-6.885,1.665-11.25,1.665h-4.095v-6.029
			h4.095c1.98,0,3.195-0.136,3.69-0.36c-1.935-2.205-2.925-4.68-2.925-7.38c0-1.125,0.18-2.295,0.54-3.42
			c1.44-4.364,5.22-7.109,9.944-7.109c4.815,0,8.55,2.745,9.945,7.109c0.36,1.125,0.54,2.295,0.54,3.42c0,2.7-0.99,5.175-2.925,7.38
			c0.54,0.225,1.755,0.36,3.689,0.36h3.645V-35.282z M-27.758-63.496h-5.58v-5.175h5.58V-63.496z M-24.113-44.327
			c1.755-1.26,2.61-2.97,2.61-5.175c0-2.835-1.8-5.175-4.815-5.175c-1.485,0-2.655,0.54-3.6,1.575c-0.765,0.99-1.17,2.205-1.17,3.6
			c0,2.205,0.855,3.915,2.61,5.175c0.72,0.54,1.44,0.99,2.16,1.351C-25.598-43.337-24.878-43.787-24.113-44.327z M-19.253-63.496
			h-5.58v-5.175h5.58V-63.496z"/>
		<path fill="#161616" d="M7.432-35.282h-20.294v-6.029h4.14c2.115,0,3.195-1.44,3.195-4.32v-10.034h6.345v9.81
			c0,1.665-0.27,3.149-0.765,4.545h7.38V-35.282z M0.322-59.086h-5.625v-5.175h5.625V-59.086z"/>
		<path fill="#161616" d="M19.672-43.967c0,2.385-0.675,4.364-1.98,5.939c-1.485,1.845-3.555,2.745-6.209,2.745h-5.94v-6.029h4.635
			c2.115,0,3.195-1.485,3.195-4.41V-64.26h6.3V-43.967z"/>
		<path fill="#161616" d="M30.562-35.282h-6.3v-29.023h6.3V-35.282z"/>
		<path fill="#161616" d="M79.025-35.282H69.8c-2.475,4.68-7.02,7.47-12.285,7.47c-7.919,0-14.219-6.66-14.219-15.3v-12.554h6.345
			v11.969c0,5.94,3.015,10.035,7.92,10.035c4.859,0,7.874-4.23,7.874-10.035v-11.969h6.301v14.354h7.289V-35.282z M60.621-59.086
			h-5.58v-5.175h5.58V-59.086z"/>
		<path fill="#161616" d="M82.085-27.812h-5.58v-5.22h5.58V-27.812z M97.791-35.282h-20.25v-6.029h4.141
			c2.115,0,3.149-1.44,3.149-4.32v-10.034h6.345v9.81c0,1.665-0.225,3.149-0.72,4.545h7.335V-35.282z M90.545-27.812h-5.579v-5.22
			h5.579V-27.812z"/>
		<path fill="#161616" d="M110.391-43.967c0,2.385-0.676,4.364-1.98,5.939c-1.484,1.845-3.555,2.745-6.164,2.745H96.89v-6.029h4.006
			c2.113,0,3.193-1.485,3.193-4.41v-9.944h6.301V-43.967z M110.029-27.812h-5.578v-5.22h5.578V-27.812z"/>
		<path fill="#161616" d="M157.684-35.282h-8.686c-2.475,4.68-7.02,7.47-12.285,7.47c-7.918,0-14.219-6.66-14.219-15.3v-4.454h6.301
			v3.869c0,5.896,2.924,10.035,7.965,10.035c4.949,0,7.873-3.735,7.873-10.035V-64.26h6.301v22.949h6.75V-35.282z"/>
		<path fill="#161616" d="M197.238-35.282h-41.625v-6.029h5.67c2.07,0,3.195-1.08,3.195-4.32v-7.875h6.301v5.985
			c4.004-5.175,9.27-8.235,14.309-8.235c8.055,0,12.375,6.165,12.375,16.335C197.463-38.072,197.373-36.677,197.238-35.282z
			 M190.848-41.311l0.045-0.811c0-4.635-2.295-8.145-6.254-8.145c-4.635,0-8.775,3.015-12.24,8.955H190.848z"/>
		<path fill="#161616" d="M209.928-66.781h-8.055v-2.295h1.756c-0.135-0.404-0.18-0.81-0.18-1.17c0-2.024,1.439-3.6,3.375-3.6
			c1.439,0,2.43,0.72,3.014,2.115l-2.025,0.944c-0.18-0.63-0.494-0.944-0.988-0.944c-0.676,0-1.035,0.45-1.035,1.35
			c0,0.675,0.225,1.125,0.629,1.26h3.51V-66.781z M209.119-35.282h-6.301v-29.023h6.301V-35.282z"/>
		<path fill="#161616" d="M-62.88,33.873c0,3.285-0.99,5.895-2.97,7.875c-1.98,1.979-4.635,2.97-7.92,2.97
			c-3.33,0-5.985-0.99-8.01-2.925c-1.98-1.935-2.97-4.59-2.97-7.875c0-3.284,0.99-5.939,2.925-7.874
			c1.935-1.936,4.545-2.926,7.83-2.926c3.33,0,6.03,0.945,8.055,2.881C-63.916,27.889-62.88,30.498-62.88,33.873z M-75.39,19.609
			h-5.58v-5.175h5.58V19.609z M-68.91,34.099c0-4.141-1.665-6.21-5.04-6.21c-3.285,0-4.905,2.069-4.905,6.21
			c0,1.664,0.405,3.06,1.215,4.095c0.855,1.17,2.115,1.71,3.689,1.71c1.665,0,2.925-0.54,3.825-1.71
			C-69.315,37.158-68.91,35.763-68.91,34.099z M-66.885,19.609h-5.58v-5.175h5.58V19.609z"/>
		<path fill="#161616" d="M-46.545,40.578c0,4.14-1.035,7.109-3.15,8.954c-1.935,1.755-5.085,2.61-9.405,2.61v-5.085
			c4.14,0,6.21-1.979,6.21-5.939V24.334h6.345V40.578z"/>
		<path fill="#161616" d="M-16.261,44.718h-5.939c-0.72,4.95-4.14,7.425-10.26,7.425h-0.675v-5.04h0.54
			c2.43,0,3.87-0.899,4.365-2.654c-0.495,0.18-1.755,0.27-3.87,0.27c-5.895,0-10.214-4.274-10.214-10.26
			c0-6.074,4.229-10.169,10.214-10.169c5.76,0,9.99,4.319,9.99,10.304v4.096h5.85V44.718z M-28.411,38.689v-4.365
			c0-2.655-1.575-4.365-3.87-4.365c-2.385,0-3.645,1.846-3.645,4.23c0,2.564,1.53,4.5,3.87,4.5H-28.411z"/>
		<path fill="#161616" d="M28.063,44.718H-18.51v-6.029h5.67c2.07,0,3.195-1.08,3.195-4.32v-7.875h6.3v5.805
			c3.959-5.039,9.18-8.055,14.219-8.055c7.38,0,11.7,5.221,12.285,14.445h4.905V44.718z M16.588,38.689l0.045-0.811
			c0-4.635-2.295-8.145-6.255-8.145c-4.635,0-8.774,3.015-12.239,8.955H16.588z"/>
		<path fill="#161616" d="M40.348,36.033c0,2.385-0.675,4.364-1.98,5.939c-1.485,1.845-3.555,2.745-6.209,2.745h-5.94v-6.029h4.635
			c2.115,0,3.195-1.485,3.195-4.41V15.74h6.3V36.033z"/>
		<path fill="#161616" d="M51.238,44.718h-6.299V15.695h6.299V44.718z"/>
		<path fill="#161616" d="M99.162,44.718h-8.685c-2.476,4.68-7.02,7.47-12.284,7.47c-7.92,0-14.22-6.66-14.22-15.3v-4.454h6.3v3.869
			c0,5.896,2.925,10.035,7.965,10.035c4.949,0,7.875-3.735,7.875-10.035V15.74h6.299v22.949h6.75V44.718z"/>
		<path fill="#161616" d="M135.205,44.718H98.082v-6.029h24.749c-0.314-2.431-1.305-4.455-2.879-6.03
			c-1.711-1.71-3.779-2.564-6.209-2.564h-11.34l8.908-14.354h7.516l-5.625,8.55h3.375c2.205,0.225,4.186,0.81,5.85,1.8
			c4.006,2.385,6.346,6.569,7.02,12.6h5.76V44.718z"/>
		<path fill="#161616" d="M173.77,34.099c0,6.164-4.094,10.619-9.314,10.619h-20.293v0.045l-0.045-0.045h-11.07v-6.029h5.67
			c2.07,0,3.195-1.08,3.195-4.32V24.334h6.344v9.81c0,1.665-0.27,3.194-0.764,4.545h4.004c2.115,0,3.195-1.351,3.195-4.051V24.334
			h6.299v9.81c0,1.665-0.27,3.194-0.764,4.545h4.004c2.115,0,3.195-1.351,3.195-4.051V24.334h6.344V34.099z M156.311,20.914h-5.625
			V15.74h5.625V20.914z M160.451,13.49h-5.58V8.315h5.58V13.49z M164.771,20.914h-5.58V15.74h5.58V20.914z"/>
		<path fill="#161616" d="M186.867,16.099h-8.055v-2.295h1.754c-0.135-0.404-0.18-0.81-0.18-1.17c0-2.024,1.439-3.6,3.375-3.6
			c1.439,0,2.43,0.72,3.016,2.115l-2.025,0.944c-0.18-0.63-0.496-0.944-0.99-0.944c-0.676,0-1.035,0.449-1.035,1.35
			c0,0.675,0.225,1.125,0.631,1.26h3.51V16.099z M201.535,37.338c0,2.205-0.719,3.96-2.205,5.354
			c-1.484,1.351-3.328,2.025-5.533,2.025h-14.939v-6.029h6.703l-5.668-19.935h6.658l5.58,19.935c2.115-0.046,3.195-1.575,3.195-4.59
			V15.74h6.209V37.338z"/>
		<path fill="#161616" d="M-35.948,124.718h-29.159v-6.029h16.334c0-6.3-3.419-9.09-11.429-9.09v-5.265
			c3.959,0,6.75,0.27,8.415,0.854c6.209,2.205,9.314,6.66,9.314,13.454h6.525V124.718z"/>
		<path fill="#161616" d="M0.771,124.718h-11.609c-2.61,0-4.95-1.035-6.975-3.149c-1.08,0.899-2.475,1.664-4.23,2.249
			c-1.89,0.585-3.735,0.9-5.58,0.9h-9.9v-6.029h9.81c2.205,0,4.185-0.495,5.85-1.53c-0.675-0.945-1.845-1.89-3.42-2.88
			c-1.89-1.17-3.735-1.935-5.49-2.25v-5.175c4.095-2.43,8.28-3.645,12.464-3.645c4.995,0,9.63,1.665,13.904,4.949
			c-0.495,1.215-1.62,2.835-3.285,4.771c-1.845,2.114-3.555,3.645-5.175,4.635c0.81,0.765,1.935,1.125,3.375,1.125H0.771V124.718z
			 M-12.189,109.823c-1.935-0.99-3.825-1.484-5.669-1.484c-1.8,0-3.6,0.404-5.355,1.26c1.35,0.585,2.43,1.215,3.24,1.8
			s1.755,1.484,2.79,2.7c0.9-0.405,1.89-1.125,2.925-2.07C-13.314,111.219-12.594,110.498-12.189,109.823z"/>
		<path fill="#161616" d="M12.472,116.033c0,2.385-0.675,4.364-1.98,5.939c-1.485,1.845-3.555,2.745-6.209,2.745h-5.94v-6.029h4.635
			c2.115,0,3.195-1.485,3.195-4.41V95.74h6.3V116.033z"/>
		<path fill="#161616" d="M23.361,124.718h-6.3V95.695h6.3V124.718z"/>
		<path fill="#161616" d="M78.304,124.718h-0.27c-3.96,0-7.109-1.035-9.675-3.465c-1.935,2.385-4.725,3.6-8.46,3.6
			c-6.164,0-10.17-4.05-10.17-10.215c0-1.529,0.226-2.925,0.721-4.185h-2.88c-3.51,0-5.265,2.295-5.265,6.84v14.895h-6.21v-15.885
			c0-7.289,4.545-11.969,11.204-11.969h12.824c5.221,0,8.955,2.925,9.99,7.47c1.17,5.175,3.061,6.794,7.875,6.885h0.314V124.718z
			 M64.22,114.458c0-3.015-1.62-4.994-4.141-4.994c-2.609,0-4.184,2.204-4.184,5.174c0,3.016,1.574,5.13,3.869,5.13h0.45
			C62.871,119.768,64.22,118.013,64.22,114.458z"/>
		<path fill="#161616" d="M97.88,124.718h-20.43v-6.029h4.275c2.115,0,3.195-1.44,3.195-4.32V95.74h6.344v18.404
			c0,1.665-0.27,3.149-0.765,4.545h7.38V124.718z"/>
		<path fill="#161616" d="M134.959,124.718H123.35c-2.609,0-4.949-1.035-6.975-3.149c-1.08,0.899-2.475,1.664-4.23,2.249
			c-1.889,0.585-3.734,0.9-5.58,0.9h-9.899v-6.029h9.809c2.205,0,4.186-0.495,5.85-1.53c-0.674-0.945-1.844-1.89-3.42-2.88
			c-1.889-1.17-3.734-1.935-5.488-2.25v-5.175c4.094-2.43,8.279-3.645,12.463-3.645c4.996,0,9.631,1.665,13.904,4.949
			c-0.494,1.215-1.619,2.835-3.283,4.771c-1.846,2.114-3.555,3.645-5.176,4.635c0.811,0.765,1.936,1.125,3.375,1.125h10.26V124.718z
			 M122,109.823c-1.936-0.99-3.826-1.484-5.67-1.484c-1.801,0-3.6,0.404-5.355,1.26c1.35,0.585,2.43,1.215,3.24,1.8
			s1.754,1.484,2.789,2.7c0.9-0.405,1.891-1.125,2.926-2.07C120.875,111.219,121.594,110.498,122,109.823z"/>
		<path fill="#161616" d="M138.109,100.914h-5.58V95.74h5.58V100.914z M147.02,116.033c0,2.385-0.676,4.364-1.98,5.939
			c-1.484,1.845-3.555,2.745-6.164,2.745h-5.355v-6.029h4.006c2.115,0,3.193-1.485,3.193-4.41v-9.944h6.301V116.033z
			 M146.615,100.914h-5.625V95.74h5.625V100.914z"/>
		<path fill="#161616" d="M158.719,93.219h-8.055v-2.295h1.756c-0.135-0.404-0.18-0.81-0.18-1.17c0-2.024,1.439-3.6,3.375-3.6
			c1.439,0,2.43,0.72,3.014,2.115l-2.025,0.944c-0.18-0.63-0.494-0.944-0.988-0.944c-0.676,0-1.035,0.45-1.035,1.35
			c0,0.675,0.225,1.125,0.629,1.26h3.51V93.219z M157.91,124.718h-6.301V95.695h6.301V124.718z"/>
		<path fill="#161616" d="M183.199,123.818c0,5.535-3.42,8.325-10.305,8.325h-0.631v-5.04h0.404c2.521,0,4.996-1.755,4.996-4.185
			c-0.855,1.395-2.34,2.069-4.455,2.069c-5.805,0-10.125-4.409-10.125-10.439c0-6.164,4.23-10.305,10.125-10.305
			c5.805,0,9.99,4.455,9.99,10.395V123.818z M176.898,114.638c0-2.744-1.574-4.68-3.824-4.68c-2.205,0-3.689,1.891-3.689,4.545
			c0,2.521,1.439,4.635,3.914,4.635C175.549,119.138,176.898,117.383,176.898,114.638z"/>
	</g>
	<g>
		<path fill="#161616" d="M-104.068,209.161h-5.535v-5.984h5.535V209.161z"/>
		<path fill="#161616" d="M-71.58,209.206h-6.345c-3.6,0-6.12-1.845-7.56-5.535c-1.125,1.755-3.285,2.7-6.39,2.7
			c-5.4,0-8.865-4.68-8.865-10.89c0-6.704,3.375-11.024,9.314-11.024c0-0.045,4.005-0.045,12.015-0.045v14.175
			c0,2.97,1.53,4.59,4.59,4.59h3.24V209.206z M-90.119,180.228h-5.58v-5.22h5.58V180.228z M-85.889,194.987v-5.939h-4.14
			c-2.565,0-4.455,2.835-4.455,6.345c0,3.149,1.8,5.76,4.32,5.76C-87.509,201.152-85.889,198.677-85.889,194.987z M-81.659,180.228
			h-5.58v-5.22h5.58V180.228z"/>
		<path fill="#161616" d="M-68.25,216.676h-5.58v-5.22h5.58V216.676z M-59.34,200.522c0,2.385-0.675,4.364-1.98,5.939
			c-1.485,1.845-3.555,2.745-6.165,2.745h-5.355v-6.029h4.005c2.115,0,3.195-1.485,3.195-4.41v-9.944h6.3V200.522z M-59.745,216.676
			h-5.625v-5.22h5.625V216.676z"/>
		<path fill="#161616" d="M-25.951,209.206h-29.159v-6.029h16.334c0-6.3-3.419-9.09-11.429-9.09v-5.265
			c3.959,0,6.75,0.27,8.415,0.854c6.21,2.205,9.314,6.66,9.314,13.454h6.525V209.206z"/>
		<path fill="#161616" d="M-2.101,209.206h-25.334v-6.029h7.109c-0.585-1.575-0.9-3.016-0.9-4.32c0-2.925,0.945-5.444,2.835-7.515
			c1.935-2.07,4.365-3.104,7.335-3.104c3.825,0,7.064,2.159,8.64,5.715l-5.175,2.385c-0.585-1.755-1.755-2.655-3.6-2.655
			c-1.26,0-2.25,0.495-2.925,1.53c-0.63,0.854-0.945,1.979-0.945,3.329c0,2.386,0.855,3.96,2.52,4.636h10.44V209.206z"/>
		<path fill="#161616" d="M16.079,209.206h-5.94c-4.814,0-7.604-2.79-7.604-7.425v-21.599h6.3v18.313c0,3.061,0.765,4.681,5.4,4.681
			h1.845V209.206z"/>
		<path fill="#161616" d="M60.717,209.206H14.144v-6.029h5.67c2.07,0,3.195-1.08,3.195-4.32v-7.875h6.3v5.805
			c3.959-5.039,9.18-8.055,14.219-8.055c7.38,0,11.7,5.221,12.284,14.445h4.905V209.206z M49.243,203.177l0.045-0.811
			c0-4.635-2.295-8.145-6.255-8.145c-4.635,0-8.774,3.015-12.239,8.955H49.243z"/>
		<path fill="#161616" d="M64.453,185.403h-5.579v-5.175h5.579V185.403z M73.363,200.522c0,2.385-0.675,4.364-1.98,5.939
			c-1.484,1.845-3.555,2.745-6.164,2.745h-5.355v-6.029h4.006c2.115,0,3.194-1.485,3.194-4.41v-9.944h6.3V200.522z M72.958,185.403
			h-5.625v-5.175h5.625V185.403z"/>
		<path fill="#161616" d="M114.625,209.206h-6.344c-3.6,0-6.119-1.845-7.559-5.535c-1.125,1.755-3.286,2.7-6.391,2.7
			c-5.399,0-8.864-4.68-8.864-10.89c0-6.704,3.375-11.024,9.314-11.024c0-0.045,4.005-0.045,12.015-0.045v14.175
			c0,2.97,1.529,4.59,4.59,4.59h3.238V209.206z M96.087,180.228h-5.58v-5.22h5.58V180.228z M100.316,194.987v-5.939h-4.139
			c-2.565,0-4.455,2.835-4.455,6.345c0,3.149,1.8,5.76,4.32,5.76C98.697,201.152,100.316,198.677,100.316,194.987z M104.547,180.228
			h-5.581v-5.22h5.581V180.228z"/>
		<path fill="#161616" d="M142.93,209.206h-3.645c-4.365,0-8.1-0.54-11.25-1.665c-3.148,1.125-6.885,1.665-11.248,1.665h-4.096
			v-6.029h4.096c1.979,0,3.193-0.136,3.689-0.36c-1.936-2.205-2.926-4.68-2.926-7.38c0-1.125,0.182-2.295,0.541-3.42
			c1.439-4.364,5.219-7.109,9.943-7.109c4.816,0,8.551,2.745,9.945,7.109c0.359,1.125,0.541,2.295,0.541,3.42
			c0,2.7-0.99,5.175-2.926,7.38c0.539,0.225,1.756,0.36,3.689,0.36h3.645V209.206z M126.596,180.992h-5.58v-5.175h5.58V180.992z
			 M130.24,200.161c1.756-1.26,2.611-2.97,2.611-5.175c0-2.835-1.801-5.175-4.816-5.175c-1.484,0-2.654,0.54-3.6,1.575
			c-0.764,0.99-1.17,2.205-1.17,3.6c0,2.205,0.855,3.915,2.611,5.175c0.719,0.54,1.439,0.99,2.158,1.351
			C128.756,201.152,129.477,200.701,130.24,200.161z M135.102,180.992h-5.58v-5.175h5.58V180.992z"/>
		<path fill="#161616" d="M146.125,216.676h-5.578v-5.22h5.578V216.676z M155.035,200.522c0,2.385-0.674,4.364-1.98,5.939
			c-1.484,1.845-3.555,2.745-6.164,2.745h-5.355v-6.029h4.006c2.115,0,3.195-1.485,3.195-4.41v-9.944h6.299V200.522z
			 M154.631,216.676h-5.625v-5.22h5.625V216.676z"/>
		<path fill="#161616" d="M177.984,209.206h-6.975c-1.035,4.95-5.084,7.425-12.238,7.425v-5.085c4.139,0,6.209-1.979,6.209-5.939
			v-16.784h6.346v14.354h6.658V209.206z"/>
		<path fill="#161616" d="M219.473,209.206H176.77v-6.029h7.201v-22.949h6.254l-0.584,14.714c4.049-4.229,8.1-6.21,12.598-6.21
			c7.426,0,11.656,5.221,12.33,14.445h4.904V209.206z M207.953,203.177c0.045-0.315,0.045-0.585,0.045-0.9
			c0-4.68-2.34-8.055-6.254-8.055c-4.635,0-8.775,3.015-12.24,8.955H207.953z"/>
		<path fill="#161616" d="M232.074,200.522c0,2.385-0.674,4.364-1.98,5.939c-1.484,1.845-3.555,2.745-6.164,2.745h-5.355v-6.029
			h4.006c2.115,0,3.195-1.485,3.195-4.41v-9.944h6.299V200.522z M231.715,216.676h-5.58v-5.22h5.58V216.676z"/>
	</g>
</g>
<g>
	<g>
		<path fill="#1C75BA" d="M-61.022-38.282h-34.829v-6.029h4.455V-67.26h6.255l-0.585,14.714c4.05-4.229,8.1-6.21,12.555-6.21
			c8.055,0,12.375,6.165,12.375,16.335C-60.797-41.072-60.887-39.677-61.022-38.282z M-67.412-44.311
			c0.045-0.315,0.045-0.585,0.045-0.9c0-4.68-2.34-8.055-6.255-8.055c-4.635,0-8.774,3.015-12.239,8.955H-67.412z"/>
		<path fill="#1C75BA" d="M-42.617-38.282h-5.94c-4.814,0-7.604-2.79-7.604-7.425v-21.599h6.3v18.313c0,3.061,0.765,4.681,5.4,4.681
			h1.845V-38.282z"/>
		<path fill="#1C75BA" d="M-13.998-38.282h-3.645c-4.365,0-8.1-0.54-11.25-1.665c-3.15,1.125-6.885,1.665-11.25,1.665h-4.095v-6.029
			h4.095c1.98,0,3.195-0.136,3.69-0.36c-1.935-2.205-2.925-4.68-2.925-7.38c0-1.125,0.18-2.295,0.54-3.42
			c1.44-4.364,5.22-7.109,9.944-7.109c4.815,0,8.55,2.745,9.945,7.109c0.36,1.125,0.54,2.295,0.54,3.42c0,2.7-0.99,5.175-2.925,7.38
			c0.54,0.225,1.755,0.36,3.689,0.36h3.645V-38.282z M-30.333-66.496h-5.58v-5.175h5.58V-66.496z M-26.688-47.327
			c1.755-1.26,2.61-2.97,2.61-5.175c0-2.835-1.8-5.175-4.815-5.175c-1.485,0-2.655,0.54-3.6,1.575c-0.765,0.99-1.17,2.205-1.17,3.6
			c0,2.205,0.855,3.915,2.61,5.175c0.72,0.54,1.44,0.99,2.16,1.351C-28.172-46.337-27.453-46.787-26.688-47.327z M-21.828-66.496
			h-5.58v-5.175h5.58V-66.496z"/>
		<path fill="#1C75BA" d="M4.857-38.282h-20.294v-6.029h4.14c2.115,0,3.195-1.44,3.195-4.32v-10.034h6.345v9.81
			c0,1.665-0.27,3.149-0.765,4.545h7.38V-38.282z M-2.252-62.086h-5.625v-5.175h5.625V-62.086z"/>
		<path fill="#1C75BA" d="M17.097-46.967c0,2.385-0.675,4.364-1.98,5.939c-1.485,1.845-3.555,2.745-6.209,2.745h-5.94v-6.029h4.635
			c2.115,0,3.195-1.485,3.195-4.41V-67.26h6.3V-46.967z"/>
		<path fill="#1C75BA" d="M27.987-38.282h-6.3v-29.023h6.3V-38.282z"/>
		<path fill="#1C75BA" d="M76.45-38.282h-9.225c-2.475,4.68-7.02,7.47-12.285,7.47c-7.919,0-14.219-6.66-14.219-15.3v-12.554h6.345
			v11.969c0,5.94,3.015,10.035,7.92,10.035c4.859,0,7.875-4.23,7.875-10.035v-11.969h6.3v14.354h7.29V-38.282z M58.046-62.086h-5.58
			v-5.175h5.58V-62.086z"/>
		<path fill="#1C75BA" d="M79.511-30.812h-5.58v-5.22h5.58V-30.812z M95.215-38.282H74.966v-6.029h4.14c2.115,0,3.15-1.44,3.15-4.32
			v-10.034h6.345v9.81c0,1.665-0.225,3.149-0.72,4.545h7.334V-38.282z M87.971-30.812h-5.58v-5.22h5.58V-30.812z"/>
		<path fill="#1C75BA" d="M107.815-46.967c0,2.385-0.675,4.364-1.979,5.939c-1.485,1.845-3.555,2.745-6.165,2.745h-5.355v-6.029
			h4.005c2.115,0,3.195-1.485,3.195-4.41v-9.944h6.3V-46.967z M107.455-30.812h-5.579v-5.22h5.579V-30.812z"/>
		<path fill="#1C75BA" d="M155.108-38.282h-8.685c-2.475,4.68-7.02,7.47-12.285,7.47c-7.919,0-14.219-6.66-14.219-15.3v-4.454h6.3
			v3.869c0,5.896,2.925,10.035,7.965,10.035c4.95,0,7.874-3.735,7.874-10.035V-67.26h6.301v22.949h6.749V-38.282z"/>
		<path fill="#1C75BA" d="M194.663-38.282h-41.624v-6.029h5.67c2.07,0,3.195-1.08,3.195-4.32v-7.875h6.3v5.985
			c4.005-5.175,9.27-8.235,14.31-8.235c8.055,0,12.374,6.165,12.374,16.335C194.888-41.072,194.798-39.677,194.663-38.282z
			 M188.273-44.311l0.045-0.811c0-4.635-2.295-8.145-6.255-8.145c-4.635,0-8.774,3.015-12.239,8.955H188.273z"/>
		<path fill="#1C75BA" d="M207.354-69.781h-8.055v-2.295h1.756c-0.136-0.404-0.181-0.81-0.181-1.17c0-2.024,1.44-3.6,3.375-3.6
			c1.44,0,2.43,0.72,3.015,2.115l-2.025,0.944c-0.18-0.63-0.494-0.944-0.989-0.944c-0.675,0-1.035,0.45-1.035,1.35
			c0,0.675,0.226,1.125,0.63,1.26h3.51V-69.781z M206.544-38.282h-6.3v-29.023h6.3V-38.282z"/>
		<path fill="#1C75BA" d="M-65.455,30.873c0,3.285-0.99,5.895-2.97,7.875c-1.98,1.979-4.635,2.97-7.92,2.97
			c-3.33,0-5.985-0.99-8.01-2.925c-1.98-1.935-2.97-4.59-2.97-7.875c0-3.284,0.99-5.939,2.925-7.874
			c1.935-1.936,4.545-2.926,7.83-2.926c3.33,0,6.03,0.945,8.055,2.881C-66.49,24.889-65.455,27.498-65.455,30.873z M-77.964,16.609
			h-5.58v-5.175h5.58V16.609z M-71.485,31.099c0-4.141-1.665-6.21-5.04-6.21c-3.285,0-4.905,2.069-4.905,6.21
			c0,1.664,0.405,3.06,1.215,4.095c0.855,1.17,2.115,1.71,3.689,1.71c1.665,0,2.925-0.54,3.825-1.71
			C-71.89,34.158-71.485,32.763-71.485,31.099z M-69.46,16.609h-5.58v-5.175h5.58V16.609z"/>
		<path fill="#1C75BA" d="M-49.12,37.578c0,4.14-1.035,7.109-3.15,8.954c-1.935,1.755-5.085,2.61-9.405,2.61v-5.085
			c4.14,0,6.21-1.979,6.21-5.939V21.334h6.345V37.578z"/>
		<path fill="#1C75BA" d="M-18.836,41.718h-5.939c-0.72,4.95-4.14,7.425-10.26,7.425h-0.675v-5.04h0.54
			c2.43,0,3.87-0.899,4.365-2.654c-0.495,0.18-1.755,0.27-3.87,0.27c-5.895,0-10.214-4.274-10.214-10.26
			c0-6.074,4.229-10.169,10.214-10.169c5.76,0,9.99,4.319,9.99,10.304v4.096h5.85V41.718z M-30.985,35.689v-4.365
			c0-2.655-1.575-4.365-3.87-4.365c-2.385,0-3.645,1.846-3.645,4.23c0,2.564,1.53,4.5,3.87,4.5H-30.985z"/>
		<path fill="#1C75BA" d="M25.488,41.718h-46.573v-6.029h5.67c2.07,0,3.195-1.08,3.195-4.32v-7.875h6.3v5.805
			c3.959-5.039,9.18-8.055,14.219-8.055c7.38,0,11.7,5.221,12.285,14.445h4.905V41.718z M14.014,35.689l0.045-0.811
			c0-4.635-2.295-8.145-6.255-8.145c-4.635,0-8.774,3.015-12.239,8.955H14.014z"/>
		<path fill="#1C75BA" d="M37.773,33.033c0,2.385-0.675,4.364-1.98,5.939c-1.485,1.845-3.555,2.745-6.209,2.745h-5.94v-6.029h4.635
			c2.115,0,3.195-1.485,3.195-4.41V12.74h6.3V33.033z"/>
		<path fill="#1C75BA" d="M48.664,41.718h-6.3V12.695h6.3V41.718z"/>
		<path fill="#1C75BA" d="M96.587,41.718h-8.685c-2.475,4.68-7.02,7.47-12.285,7.47c-7.919,0-14.219-6.66-14.219-15.3v-4.454h6.3
			v3.869c0,5.896,2.925,10.035,7.965,10.035c4.95,0,7.875-3.735,7.875-10.035V12.74h6.3v22.949h6.75V41.718z"/>
		<path fill="#1C75BA" d="M132.631,41.718H95.507v-6.029h24.749c-0.314-2.431-1.305-4.455-2.879-6.03
			c-1.711-1.71-3.78-2.564-6.21-2.564h-11.34l8.909-14.354h7.516l-5.625,8.55h3.375c2.205,0.225,4.185,0.81,5.85,1.8
			c4.005,2.385,6.345,6.569,7.02,12.6h5.76V41.718z"/>
		<path fill="#1C75BA" d="M171.195,31.099c0,6.164-4.094,10.619-9.314,10.619h-20.293v0.045l-0.046-0.045h-11.069v-6.029h5.67
			c2.07,0,3.195-1.08,3.195-4.32V21.334h6.344v9.81c0,1.665-0.27,3.194-0.765,4.545h4.005c2.115,0,3.195-1.351,3.195-4.051V21.334
			h6.299v9.81c0,1.665-0.27,3.194-0.765,4.545h4.005c2.115,0,3.195-1.351,3.195-4.051V21.334h6.344V31.099z M153.736,17.914h-5.625
			V12.74h5.625V17.914z M157.877,10.49h-5.58V5.315h5.58V10.49z M162.196,17.914h-5.579V12.74h5.579V17.914z"/>
		<path fill="#1C75BA" d="M184.292,13.099h-8.055v-2.295h1.755c-0.135-0.404-0.18-0.81-0.18-1.17c0-2.024,1.439-3.6,3.375-3.6
			c1.439,0,2.43,0.72,3.015,2.115l-2.024,0.944c-0.181-0.63-0.496-0.944-0.99-0.944c-0.676,0-1.035,0.449-1.035,1.35
			c0,0.675,0.225,1.125,0.63,1.26h3.51V13.099z M198.961,34.338c0,2.205-0.72,3.96-2.205,5.354
			c-1.484,1.351-3.329,2.025-5.534,2.025h-14.939v-6.029h6.704l-5.669-19.935h6.659l5.58,19.935c2.115-0.046,3.195-1.575,3.195-4.59
			V12.74h6.209V34.338z"/>
		<path fill="#1C75BA" d="M-38.523,121.718h-29.159v-6.029h16.334c0-6.3-3.419-9.09-11.429-9.09v-5.265
			c3.959,0,6.75,0.27,8.415,0.854c6.209,2.205,9.314,6.66,9.314,13.454h6.525V121.718z"/>
		<path fill="#1C75BA" d="M-1.804,121.718h-11.609c-2.61,0-4.95-1.035-6.975-3.149c-1.08,0.899-2.475,1.664-4.23,2.249
			c-1.89,0.585-3.735,0.9-5.58,0.9h-9.9v-6.029h9.81c2.205,0,4.185-0.495,5.85-1.53c-0.675-0.945-1.845-1.89-3.42-2.88
			c-1.89-1.17-3.735-1.935-5.49-2.25v-5.175c4.095-2.43,8.28-3.645,12.464-3.645c4.995,0,9.63,1.665,13.904,4.949
			c-0.495,1.215-1.62,2.835-3.285,4.771c-1.845,2.114-3.555,3.645-5.175,4.635c0.81,0.765,1.935,1.125,3.375,1.125h10.259V121.718z
			 M-14.764,106.823c-1.935-0.99-3.825-1.484-5.669-1.484c-1.8,0-3.6,0.404-5.355,1.26c1.35,0.585,2.43,1.215,3.24,1.8
			s1.755,1.484,2.79,2.7c0.9-0.405,1.89-1.125,2.925-2.07C-15.889,108.219-15.168,107.498-14.764,106.823z"/>
		<path fill="#1C75BA" d="M9.897,113.033c0,2.385-0.675,4.364-1.98,5.939c-1.485,1.845-3.555,2.745-6.209,2.745h-5.94v-6.029h4.635
			c2.115,0,3.195-1.485,3.195-4.41V92.74h6.3V113.033z"/>
		<path fill="#1C75BA" d="M20.787,121.718h-6.3V92.695h6.3V121.718z"/>
		<path fill="#1C75BA" d="M75.73,121.718h-0.27c-3.96,0-7.11-1.035-9.675-3.465c-1.935,2.385-4.725,3.6-8.459,3.6
			c-6.165,0-10.17-4.05-10.17-10.215c0-1.529,0.225-2.925,0.72-4.185h-2.88c-3.51,0-5.265,2.295-5.265,6.84v14.895h-6.21v-15.885
			c0-7.289,4.545-11.969,11.205-11.969H57.55c5.22,0,8.955,2.925,9.99,7.47c1.17,5.175,3.06,6.794,7.875,6.885h0.315V121.718z
			 M61.646,111.458c0-3.015-1.62-4.994-4.14-4.994c-2.61,0-4.185,2.204-4.185,5.174c0,3.016,1.575,5.13,3.87,5.13h0.45
			C60.295,116.768,61.646,115.013,61.646,111.458z"/>
		<path fill="#1C75BA" d="M95.306,121.718H74.876v-6.029h4.275c2.115,0,3.195-1.44,3.195-4.32V92.74h6.345v18.404
			c0,1.665-0.27,3.149-0.765,4.545h7.38V121.718z"/>
		<path fill="#1C75BA" d="M132.385,121.718h-11.609c-2.61,0-4.95-1.035-6.975-3.149c-1.08,0.899-2.476,1.664-4.23,2.249
			c-1.89,0.585-3.734,0.9-5.58,0.9h-9.899v-6.029h9.81c2.205,0,4.186-0.495,5.85-1.53c-0.675-0.945-1.845-1.89-3.42-2.88
			c-1.89-1.17-3.734-1.935-5.489-2.25v-5.175c4.095-2.43,8.28-3.645,12.464-3.645c4.995,0,9.631,1.665,13.904,4.949
			c-0.494,1.215-1.619,2.835-3.284,4.771c-1.845,2.114-3.555,3.645-5.175,4.635c0.811,0.765,1.936,1.125,3.375,1.125h10.26V121.718z
			 M119.425,106.823c-1.935-0.99-3.825-1.484-5.669-1.484c-1.801,0-3.601,0.404-5.355,1.26c1.35,0.585,2.43,1.215,3.24,1.8
			c0.81,0.585,1.754,1.484,2.789,2.7c0.9-0.405,1.891-1.125,2.926-2.07C118.3,108.219,119.02,107.498,119.425,106.823z"/>
		<path fill="#1C75BA" d="M135.535,97.914h-5.58V92.74h5.58V97.914z M144.445,113.033c0,2.385-0.676,4.364-1.98,5.939
			c-1.484,1.845-3.555,2.745-6.164,2.745h-5.355v-6.029h4.005c2.115,0,3.194-1.485,3.194-4.41v-9.944h6.301V113.033z M144.04,97.914
			h-5.625V92.74h5.625V97.914z"/>
		<path fill="#1C75BA" d="M156.145,90.219h-8.055v-2.295h1.756c-0.136-0.404-0.181-0.81-0.181-1.17c0-2.024,1.44-3.6,3.375-3.6
			c1.44,0,2.43,0.72,3.015,2.115l-2.025,0.944c-0.18-0.63-0.494-0.944-0.989-0.944c-0.675,0-1.035,0.45-1.035,1.35
			c0,0.675,0.226,1.125,0.63,1.26h3.51V90.219z M155.335,121.718h-6.3V92.695h6.3V121.718z"/>
		<path fill="#1C75BA" d="M180.624,120.818c0,5.535-3.42,8.325-10.305,8.325h-0.63v-5.04h0.404c2.521,0,4.995-1.755,4.995-4.185
			c-0.854,1.395-2.34,2.069-4.454,2.069c-5.805,0-10.125-4.409-10.125-10.439c0-6.164,4.229-10.305,10.125-10.305
			c5.805,0,9.989,4.455,9.989,10.395V120.818z M174.324,111.638c0-2.744-1.575-4.68-3.825-4.68c-2.204,0-3.689,1.891-3.689,4.545
			c0,2.521,1.44,4.635,3.915,4.635C172.975,116.138,174.324,114.383,174.324,111.638z"/>
	</g>
	<g>
		<path fill="#1C75BA" d="M-106.643,206.161h-5.535v-5.984h5.535V206.161z"/>
		<path fill="#1C75BA" d="M-74.154,206.206h-6.345c-3.6,0-6.12-1.845-7.56-5.535c-1.125,1.755-3.285,2.7-6.39,2.7
			c-5.4,0-8.865-4.68-8.865-10.89c0-6.704,3.375-11.024,9.314-11.024c0-0.045,4.005-0.045,12.015-0.045v14.175
			c0,2.97,1.53,4.59,4.59,4.59h3.24V206.206z M-92.693,177.228h-5.58v-5.22h5.58V177.228z M-88.463,191.987v-5.939h-4.14
			c-2.565,0-4.455,2.835-4.455,6.345c0,3.149,1.8,5.76,4.32,5.76C-90.083,198.152-88.463,195.677-88.463,191.987z M-84.234,177.228
			h-5.58v-5.22h5.58V177.228z"/>
		<path fill="#1C75BA" d="M-70.824,213.676h-5.58v-5.22h5.58V213.676z M-61.915,197.522c0,2.385-0.675,4.364-1.98,5.939
			c-1.485,1.845-3.555,2.745-6.165,2.745h-5.355v-6.029h4.005c2.115,0,3.195-1.485,3.195-4.41v-9.944h6.3V197.522z M-62.319,213.676
			h-5.625v-5.22h5.625V213.676z"/>
		<path fill="#1C75BA" d="M-28.525,206.206h-29.159v-6.029h16.334c0-6.3-3.419-9.09-11.429-9.09v-5.265
			c3.959,0,6.75,0.27,8.415,0.854c6.21,2.205,9.314,6.66,9.314,13.454h6.525V206.206z"/>
		<path fill="#1C75BA" d="M-4.676,206.206H-30.01v-6.029h7.109c-0.585-1.575-0.9-3.016-0.9-4.32c0-2.925,0.945-5.444,2.835-7.515
			c1.935-2.07,4.365-3.104,7.335-3.104c3.825,0,7.064,2.159,8.64,5.715l-5.175,2.385c-0.585-1.755-1.755-2.655-3.6-2.655
			c-1.26,0-2.25,0.495-2.925,1.53c-0.63,0.854-0.945,1.979-0.945,3.329c0,2.386,0.855,3.96,2.52,4.636h10.44V206.206z"/>
		<path fill="#1C75BA" d="M13.504,206.206h-5.94c-4.814,0-7.604-2.79-7.604-7.425v-21.599h6.3v18.313c0,3.061,0.765,4.681,5.4,4.681
			h1.845V206.206z"/>
		<path fill="#1C75BA" d="M58.143,206.206H11.569v-6.029h5.67c2.07,0,3.195-1.08,3.195-4.32v-7.875h6.3v5.805
			c3.959-5.039,9.18-8.055,14.219-8.055c7.38,0,11.7,5.221,12.285,14.445h4.905V206.206z M46.668,200.177l0.045-0.811
			c0-4.635-2.295-8.145-6.255-8.145c-4.635,0-8.774,3.015-12.239,8.955H46.668z"/>
		<path fill="#1C75BA" d="M61.878,182.403h-5.58v-5.175h5.58V182.403z M70.788,197.522c0,2.385-0.675,4.364-1.98,5.939
			c-1.485,1.845-3.555,2.745-6.165,2.745h-5.355v-6.029h4.005c2.115,0,3.195-1.485,3.195-4.41v-9.944h6.3V197.522z M70.383,182.403
			h-5.625v-5.175h5.625V182.403z"/>
		<path fill="#1C75BA" d="M112.051,206.206h-6.344c-3.6,0-6.12-1.845-7.56-5.535c-1.125,1.755-3.285,2.7-6.39,2.7
			c-5.4,0-8.865-4.68-8.865-10.89c0-6.704,3.375-11.024,9.314-11.024c0-0.045,4.005-0.045,12.015-0.045v14.175
			c0,2.97,1.53,4.59,4.59,4.59h3.239V206.206z M93.512,177.228h-5.58v-5.22h5.58V177.228z M97.742,191.987v-5.939h-4.14
			c-2.565,0-4.455,2.835-4.455,6.345c0,3.149,1.8,5.76,4.32,5.76C96.122,198.152,97.742,195.677,97.742,191.987z M101.972,177.228
			h-5.58v-5.22h5.58V177.228z"/>
		<path fill="#1C75BA" d="M140.355,206.206h-3.645c-4.365,0-8.1-0.54-11.25-1.665c-3.149,1.125-6.885,1.665-11.249,1.665h-4.095
			v-6.029h4.095c1.979,0,3.194-0.136,3.69-0.36c-1.936-2.205-2.926-4.68-2.926-7.38c0-1.125,0.181-2.295,0.541-3.42
			c1.439-4.364,5.219-7.109,9.943-7.109c4.815,0,8.551,2.745,9.945,7.109c0.359,1.125,0.54,2.295,0.54,3.42
			c0,2.7-0.99,5.175-2.925,7.38c0.539,0.225,1.755,0.36,3.689,0.36h3.645V206.206z M124.021,177.992h-5.58v-5.175h5.58V177.992z
			 M127.666,197.161c1.756-1.26,2.61-2.97,2.61-5.175c0-2.835-1.8-5.175-4.815-5.175c-1.484,0-2.654,0.54-3.6,1.575
			c-0.765,0.99-1.17,2.205-1.17,3.6c0,2.205,0.855,3.915,2.61,5.175c0.72,0.54,1.44,0.99,2.159,1.351
			C126.182,198.152,126.901,197.701,127.666,197.161z M132.526,177.992h-5.579v-5.175h5.579V177.992z"/>
		<path fill="#1C75BA" d="M143.551,213.676h-5.579v-5.22h5.579V213.676z M152.461,197.522c0,2.385-0.675,4.364-1.98,5.939
			c-1.484,1.845-3.555,2.745-6.164,2.745h-5.355v-6.029h4.006c2.115,0,3.194-1.485,3.194-4.41v-9.944h6.3V197.522z M152.057,213.676
			h-5.625v-5.22h5.625V213.676z"/>
		<path fill="#1C75BA" d="M175.41,206.206h-6.975c-1.035,4.95-5.084,7.425-12.239,7.425v-5.085c4.14,0,6.21-1.979,6.21-5.939
			v-16.784h6.345v14.354h6.659V206.206z"/>
		<path fill="#1C75BA" d="M216.898,206.206h-42.703v-6.029h7.2v-22.949h6.255l-0.585,14.714c4.05-4.229,8.1-6.21,12.599-6.21
			c7.426,0,11.655,5.221,12.33,14.445h4.904V206.206z M205.379,200.177c0.045-0.315,0.045-0.585,0.045-0.9
			c0-4.68-2.34-8.055-6.254-8.055c-4.635,0-8.775,3.015-12.24,8.955H205.379z"/>
		<path fill="#1C75BA" d="M229.5,197.522c0,2.385-0.675,4.364-1.98,5.939c-1.484,1.845-3.555,2.745-6.164,2.745H216v-6.029h4.006
			c2.115,0,3.194-1.485,3.194-4.41v-9.944h6.3V197.522z M229.141,213.676h-5.58v-5.22h5.58V213.676z"/>
	</g>
</g>
</svg>
