<?xml version="1.0" encoding="utf-8"?>
<!-- Generator: Adobe Illustrator 16.0.0, SVG Export Plug-In . SVG Version: 6.00 Build 0)  -->
<!DOCTYPE svg PUBLIC "-//W3C//DTD SVG 1.1//EN" "http://www.w3.org/Graphics/SVG/1.1/DTD/svg11.dtd">
<svg version="1.1" id="Layer_1" xmlns="http://www.w3.org/2000/svg" xmlns:xlink="http://www.w3.org/1999/xlink" x="0px" y="0px"
	 width="48px" height="48px" viewBox="0 0 48 48" enable-background="new 0 0 48 48" xml:space="preserve">
<g>
	<path fill="#5E345E" d="M1,42.75c0,1.657,1.343,3,3,3h39.834c1.657,0,3-1.343,3-3V5.303c0-1.657-1.343-3-3-3H4
		c-1.657,0-3,1.343-3,3V42.75z"/>
</g>
<g>
	<g>
		<path fill="#FFFFFF" d="M23.721,29.516l4.548-4.548c0.606-0.605,1.27-1.002,1.967-1.193V12.18c0-1.073-1.339-0.956-1.339-0.956
			v11.09c0,0.067-0.041,0.124-0.102,0.151c-0.067,0.025-0.136,0.013-0.179-0.036l-2.654-2.653l-2.656,2.653
			c-0.03,0.033-0.072,0.051-0.116,0.051c-0.021,0-0.043-0.002-0.063-0.015c-0.063-0.024-0.1-0.084-0.1-0.151V11.221l-10.05-0.003
			c0-0.66,0.645-0.995,0.989-0.995c0.156,0,16.272,0,16.272,0c1.016,0,0.989,0.898,0.989,0.898V23.64
			c0.493,0,0.985,0.101,1.456,0.259V9.637c-0.002-0.719-0.574-0.897-0.898-0.897c-0.326,0-17.999,0-17.999,0
			c-2.688,0-2.69,2.445-2.69,2.445v22.974c0,0.528,0.426,0.954,0.955,0.954h9.946C21.629,33.146,22.202,31.034,23.721,29.516z
			 M14.924,33.478L14.924,33.478L14.924,33.478h-1.659v-20.93h1.659V33.478z"/>
		<path fill="#FFFFFF" d="M32.563,28.125l-1.586,1.584c-0.456,0.458-0.456,1.201,0,1.656c0.459,0.457,1.201,0.457,1.658,0
			l1.584-1.586c0.457-0.454,0.457-1.199,0.002-1.653C33.762,27.668,33.019,27.668,32.563,28.125z"/>
		<path fill="#FFFFFF" d="M40.328,25.075l-0.094-0.18l-0.988,0.503l0.09,0.182c0.018,0.036,0.033,0.09,0.043,0.134
			c-0.033,0.006-0.082,0.012-0.152,0.012c-0.176,0-0.502-0.036-1.065-0.211c-0.423-0.132-0.821-0.199-1.183-0.199
			c-0.501,0-0.943,0.127-1.317,0.378c-0.317,0.214-0.559,0.483-0.733,0.818l-0.122-0.095c-0.979-0.722-2.266-1.551-3.538-1.551
			c-0.852,0-1.615,0.35-2.336,1.07l-1.744,1.747l-2.563,2.554c-2.059,2.065-2.059,5.42,0,7.479c0.999,0.996,2.327,1.544,3.74,1.544
			c1.414,0,2.742-0.548,3.74-1.545l2.221-2.228l1.834-1.828c0.893-0.893,1.281-1.922,1.158-3.06
			c-0.106-0.978-0.598-2.04-1.458-3.157l-0.069-0.099c0.067-0.239,0.206-0.535,0.491-0.729c0.353-0.236,0.883-0.25,1.552-0.043
			c0.57,0.178,1.029,0.264,1.404,0.264c0.459,0,0.805-0.135,1.029-0.4C40.738,25.873,40.346,25.106,40.328,25.075z M31.316,36.929
			c-0.787,0.787-1.835,1.221-2.951,1.221c-1.117,0-2.166-0.434-2.951-1.221c-1.627-1.628-1.627-4.275,0-5.903l1.642-1.644
			c0.753,1.476,1.66,2.748,2.698,3.785c1.162,1.164,2.294,1.835,3.113,2.211L31.316,36.929z M35.372,32.874l-1.433,1.43
			c-1.178-0.438-2.271-1.147-3.252-2.109l-0.06-0.062c-1.344-1.345-2.171-2.88-2.571-3.751l1.66-1.662
			c0.511-0.511,1.031-0.76,1.59-0.76c0.819,0,1.684,0.512,2.816,1.337c0.003,0.003,0.338,0.246,0.506,0.413
			c0.167,0.167,0.355,0.428,0.359,0.435C36.52,30.148,36.639,31.607,35.372,32.874z"/>
	</g>
</g>
</svg>
