<?xml version="1.0" encoding="utf-8"?>
<!-- Generator: Adobe Illustrator 16.0.0, SVG Export Plug-In . SVG Version: 6.00 Build 0)  -->
<!DOCTYPE svg PUBLIC "-//W3C//DTD SVG 1.1//EN" "http://www.w3.org/Graphics/SVG/1.1/DTD/svg11.dtd">
<svg version="1.1" id="Layer_1" xmlns="http://www.w3.org/2000/svg" xmlns:xlink="http://www.w3.org/1999/xlink" x="0px" y="0px"
	 width="48px" height="48px" viewBox="0 0 48 48" enable-background="new 0 0 48 48" xml:space="preserve">
<g>
	<path fill="#D35D9E" d="M1,42.75c0,1.657,1.343,3,3,3h39.834c1.657,0,3-1.343,3-3V5.303c0-1.657-1.343-3-3-3H4
		c-1.657,0-3,1.343-3,3V42.75z"/>
</g>
<g>
	<g id="Game_Pad">
		<g>
			<path fill="#FFFFFF" d="M38.127,21.723c-1.493-6.842-3.598-8.528-4.879-9.205c-2.053-1.083-4.433-0.453-5.223-0.044
				c-0.896,0.462-1.5,1.34-2.412,1.722c-1.053,0.439-2.485,0.558-3.562,0.028c-0.858-0.423-1.615-1.328-2.655-1.727
				c-1.318-0.509-3.513-1.222-5.687,0.336c-0.514,0.369-4.178,3.441-5.279,13.039c-0.679,5.919,2.565,7.822,2.447,7.736
				c0.834,0.598,2.704,1.61,5.236,0.025c1.693-1.059,3.066-3.148,3.066-3.148s0.612-1.162,1.425-1.655
				c0.576-0.352,1.437-0.084,1.437-0.084h3.045c0,0,0.967-0.123,1.646,0.178c0.659,0.286,1.031,0.998,1.031,0.998
				s2.007,2.593,3.931,3.917c0.819,0.561,4.111,1.208,5.811-0.868C38.615,31.611,39.372,27.434,38.127,21.723z M21.856,21.117
				c0,0.52-0.413,0.94-0.922,0.94h-2.308v2.355c0,0.521-0.413,0.943-0.922,0.943h-0.692c-0.509,0-0.922-0.42-0.922-0.943v-2.355
				h-2.309c-0.509,0-0.922-0.42-0.922-0.94v-0.707c0-0.521,0.413-0.942,0.922-0.942h2.308v-2.353c0-0.52,0.413-0.942,0.922-0.942
				h0.692c0.509,0,0.922,0.422,0.922,0.942v2.354h2.307c0.51,0,0.923,0.421,0.923,0.943L21.856,21.117L21.856,21.117z
				 M28.355,24.413c-0.956,0-1.729-0.79-1.729-1.766c0-0.975,0.773-1.765,1.729-1.765s1.729,0.79,1.729,1.765
				C30.086,23.623,29.312,24.413,28.355,24.413z M31.528,20.49c-0.945,0-1.711-0.782-1.711-1.747c0-0.962,0.766-1.744,1.711-1.744
				c0.944,0,1.711,0.782,1.711,1.744C33.239,19.708,32.473,20.49,31.528,20.49z"/>
		</g>
	</g>
</g>
</svg>
