<?xml version="1.0" encoding="utf-8"?>
<!-- Generator: Adobe Illustrator 16.0.0, SVG Export Plug-In . SVG Version: 6.00 Build 0)  -->
<!DOCTYPE svg PUBLIC "-//W3C//DTD SVG 1.1//EN" "http://www.w3.org/Graphics/SVG/1.1/DTD/svg11.dtd">
<svg version="1.1" id="Layer_1" xmlns="http://www.w3.org/2000/svg" xmlns:xlink="http://www.w3.org/1999/xlink" x="0px" y="0px"
	 width="48px" height="48px" viewBox="0 0 48 48" enable-background="new 0 0 48 48" xml:space="preserve">
<g>
	<path fill="#D35D9E" d="M1,42.75c0,1.657,1.343,3,3,3h39.834c1.657,0,3-1.343,3-3V5.303c0-1.657-1.343-3-3-3H4
		c-1.657,0-3,1.343-3,3V42.75z"/>
</g>
<g>
	<g>
		<path fill="#FFFFFF" d="M38.754,9.616H9.08c-1.117,0-2.023,0.906-2.023,2.023v25.626c0,1.117,0.906,2.023,2.023,2.023h29.674
			c1.117,0,2.023-0.906,2.023-2.023V11.639C40.777,10.522,39.871,9.616,38.754,9.616z M33.695,10.965c0.744,0,1.35,0.604,1.35,1.349
			c0,0.743-0.605,1.349-1.35,1.349c-0.743,0-1.348-0.605-1.348-1.349C32.348,11.57,32.952,10.965,33.695,10.965z M29.986,10.965
			c0.744,0,1.35,0.604,1.35,1.349c0,0.743-0.605,1.349-1.35,1.349c-0.743,0-1.349-0.605-1.349-1.349
			C28.638,11.57,29.243,10.965,29.986,10.965z M18.075,37.266c0.481-2.795,2.91-4.922,5.842-4.922c2.932,0,5.36,2.127,5.842,4.922
			H18.075z M38.754,36.498c0-0.656-0.531-1.174-1.188-1.174H35.41c-0.281-1.08-0.715-2.119-1.272-3.064l1.529-1.531
			c0.464-0.465,0.464-1.217,0-1.682l-2.519-2.518c-0.463-0.465-1.215-0.465-1.678-0.002l-1.538,1.529
			c-0.944-0.559-1.984-0.992-3.064-1.271v-2.156c0-0.654-0.517-1.188-1.173-1.188h-3.559c-0.656,0-1.172,0.531-1.172,1.188v2.156
			c-1.081,0.281-2.121,0.715-3.064,1.271l-1.533-1.529c-0.464-0.463-1.217-0.463-1.68,0l-2.519,2.52
			c-0.463,0.463-0.464,1.215,0,1.678l1.529,1.537c-0.558,0.945-0.992,1.984-1.273,3.064h-2.157c-0.655,0-1.187,0.516-1.187,1.174
			V15.011h29.674V36.498z M37.404,13.663c-0.743,0-1.348-0.605-1.348-1.349c0-0.744,0.604-1.349,1.348-1.349
			c0.744,0,1.35,0.604,1.35,1.349C38.754,13.057,38.148,13.663,37.404,13.663z"/>
	</g>
</g>
</svg>
