<?xml version="1.0" encoding="utf-8"?>
<!-- Generator: Adobe Illustrator 16.0.0, SVG Export Plug-In . SVG Version: 6.00 Build 0)  -->
<!DOCTYPE svg PUBLIC "-//W3C//DTD SVG 1.1//EN" "http://www.w3.org/Graphics/SVG/1.1/DTD/svg11.dtd">
<svg version="1.1" id="Layer_1" xmlns="http://www.w3.org/2000/svg" xmlns:xlink="http://www.w3.org/1999/xlink" x="0px" y="0px"
	 width="48px" height="48px" viewBox="0 0 48 48" enable-background="new 0 0 48 48" xml:space="preserve">
<path fill="#E94E1B" d="M47.102,34.915c0,6.627-5.373,12-12,12H13.278c-6.627,0-12-5.373-12-12v-21.39c0-6.627,5.373-12,12-12
	h21.824c6.627,0,12,5.373,12,12V34.915z"/>
<g>
	<g>
		<path fill="#FFFFFF" d="M36.644,21.328V19.57l-0.254-0.099c-0.085-0.033-2.152-0.836-4.906-0.836c-2.95,0-5.493,0.898-7.562,2.674
			c-2.068-1.774-4.61-2.674-7.561-2.674c-2.756,0-4.821,0.802-4.907,0.837l-0.253,0.099v1.628c-0.833,0.157-1.352,0.437-1.352,0.893
			c0,2.374,0,16.774,0,16.774h12.353c0.428,0.384,1.052,0.625,1.751,0.625s1.325-0.241,1.751-0.625h12.043c0,0,0-15.943,0-16.774
			C37.75,21.72,37.329,21.478,36.644,21.328z M23.791,37.543c-1.026-0.421-4.559-1.767-8.096-1.767
			c-1.399,0-2.636,0.215-3.692,0.637V20.128c0.616-0.207,2.294-0.691,4.36-0.691c2.717,0,5.051,0.82,6.957,2.423v9.724l0.471-0.517
			V37.543L23.791,37.543z M35.845,36.419c-1.134-0.456-2.436-0.688-3.875-0.688c-3.536,0-6.901,1.355-7.913,1.802v-6.471
			l0.471,0.517v-9.723c1.907-1.603,4.242-2.422,6.96-2.422c2.06,0,3.742,0.484,4.359,0.69v16.293h-0.002V36.419z"/>
		<path fill="#FFFFFF" d="M16.893,11.331l1.285,4.561l2.365-0.666l-2.229-7.917l-1.866,0.524c0.078,0.333,0.078,0.628,0,0.892
			c-0.078,0.263-0.207,0.491-0.39,0.686c-0.183,0.194-0.402,0.358-0.659,0.494c-0.256,0.133-0.53,0.236-0.82,0.313l0.462,1.635
			L16.893,11.331z"/>
		<path fill="#FFFFFF" d="M34.82,14.11l-3.645-0.753l0.002-0.012c0.425-0.153,0.872-0.296,1.333-0.423
			c0.462-0.128,0.894-0.293,1.292-0.486c0.403-0.197,0.752-0.447,1.051-0.753c0.296-0.31,0.5-0.724,0.605-1.238
			c0.09-0.425,0.087-0.812-0.004-1.167c-0.093-0.353-0.262-0.662-0.507-0.932c-0.247-0.267-0.563-0.497-0.946-0.684
			c-0.384-0.187-0.818-0.332-1.307-0.433c-0.538-0.111-1.043-0.138-1.51-0.071c-0.468,0.064-0.883,0.213-1.244,0.448
			c-0.362,0.234-0.659,0.554-0.896,0.952c-0.237,0.404-0.396,0.887-0.48,1.446l2.176,0.453c0.086-0.499,0.251-0.881,0.494-1.149
			c0.245-0.265,0.603-0.35,1.063-0.256c0.269,0.057,0.485,0.175,0.643,0.354c0.161,0.185,0.203,0.461,0.125,0.83
			c-0.03,0.147-0.093,0.27-0.193,0.37c-0.097,0.103-0.211,0.187-0.342,0.256c-0.129,0.07-0.267,0.128-0.411,0.178
			c-0.144,0.053-0.271,0.098-0.384,0.138c-0.288,0.103-0.581,0.207-0.885,0.307c-0.303,0.103-0.6,0.215-0.885,0.335
			c-0.284,0.124-0.559,0.261-0.822,0.414c-0.262,0.155-0.5,0.334-0.719,0.528c-0.255,0.228-0.47,0.497-0.644,0.808
			c-0.171,0.312-0.287,0.663-0.347,1.06l6.977,1.445L34.82,14.11z"/>
		<polygon fill="#FFFFFF" points="22.672,17.496 24.338,15.831 25.99,17.496 27.28,16.221 25.615,14.553 27.28,12.874 
			26.002,11.602 24.338,13.277 22.672,11.61 21.396,12.888 23.061,14.553 21.396,16.221 		"/>
	</g>
</g>
</svg>
