<?xml version="1.0" encoding="utf-8"?>
<!-- Generator: Adobe Illustrator 16.0.0, SVG Export Plug-In . SVG Version: 6.00 Build 0)  -->
<!DOCTYPE svg PUBLIC "-//W3C//DTD SVG 1.1//EN" "http://www.w3.org/Graphics/SVG/1.1/DTD/svg11.dtd">
<svg version="1.1" id="Layer_1" xmlns="http://www.w3.org/2000/svg" xmlns:xlink="http://www.w3.org/1999/xlink" x="0px" y="0px"
	 width="48px" height="48px" viewBox="0 0 48 48" enable-background="new 0 0 48 48" xml:space="preserve">
<g>
	<path fill="#8EB025" d="M1,42.75c0,1.657,1.343,3,3,3h39.834c1.657,0,3-1.343,3-3V5.303c0-1.657-1.343-3-3-3H4
		c-1.657,0-3,1.343-3,3V42.75z"/>
</g>
<g>
	<path fill="#FFFFFF" d="M22.087,18.775L19.06,34.663h-0.003L6.26,36.56l17.075,6.127l15.2-2.042l4.688-19.797L22.087,18.775z
		 M19.084,40.296l-4.19-1.599l2.019-0.271l4.702,1.571L19.084,40.296z M37.149,38.982l-16.912-4.783l2.716-14.027l18.143,2.133
		L37.149,38.982z M16.941,17.74h2.015v1.917h-2.015V17.74z M17.466,15.046h-2.023c0.019-0.302,0.08-0.603,0.184-0.897
		c0.103-0.292,0.261-0.555,0.474-0.789c0.214-0.231,0.487-0.42,0.819-0.563c0.333-0.146,0.738-0.22,1.216-0.22
		c0.471,0,0.868,0.063,1.191,0.19c0.323,0.125,0.584,0.288,0.785,0.483c0.2,0.197,0.348,0.414,0.44,0.649
		c0.094,0.236,0.146,0.461,0.16,0.674c0,0.297-0.04,0.539-0.116,0.722c-0.077,0.182-0.179,0.337-0.305,0.459
		c-0.126,0.125-0.266,0.225-0.421,0.306s-0.314,0.161-0.474,0.247c-0.11,0.058-0.2,0.116-0.272,0.174
		c-0.071,0.059-0.127,0.119-0.165,0.184s-0.065,0.139-0.083,0.224c-0.016,0.083-0.024,0.179-0.024,0.287H17.06
		c-0.006-0.095-0.01-0.215-0.01-0.365c0-0.154,0.021-0.313,0.059-0.473c0.038-0.162,0.105-0.322,0.202-0.476
		c0.098-0.152,0.239-0.283,0.427-0.388c0.076-0.04,0.168-0.082,0.271-0.126c0.104-0.042,0.202-0.092,0.295-0.15
		c0.091-0.054,0.171-0.121,0.236-0.195c0.064-0.078,0.097-0.172,0.097-0.281c0-0.333-0.185-0.496-0.561-0.496
		c-0.233,0-0.398,0.084-0.495,0.252C17.485,14.644,17.446,14.834,17.466,15.046z M28.714,29.406l2.254,1.524l-1.449,2.146
		l-2.257-1.524L28.714,29.406z M35.66,26.775c0.075,0.371,0.075,0.727,0.001,1.063c-0.077,0.334-0.186,0.626-0.332,0.872
		c-0.224,0.336-0.446,0.573-0.676,0.72c-0.229,0.148-0.453,0.242-0.692,0.285c-0.233,0.047-0.467,0.051-0.703,0.026
		c-0.235-0.026-0.476-0.054-0.719-0.08c-0.167-0.021-0.31-0.023-0.437-0.011c-0.123,0.011-0.229,0.037-0.321,0.079
		c-0.094,0.045-0.182,0.104-0.263,0.187c-0.079,0.08-0.162,0.183-0.246,0.304l-2.008-1.354c0.066-0.114,0.153-0.251,0.269-0.421
		c0.117-0.173,0.259-0.336,0.423-0.485c0.167-0.153,0.363-0.278,0.587-0.378c0.229-0.103,0.487-0.139,0.773-0.113
		c0.112,0.015,0.246,0.035,0.395,0.064c0.149,0.028,0.298,0.045,0.443,0.056c0.146,0.01,0.286-0.005,0.416-0.044
		c0.129-0.038,0.237-0.117,0.323-0.237c0.245-0.372,0.166-0.697-0.255-0.98c-0.259-0.175-0.507-0.205-0.745-0.089
		c-0.235,0.113-0.425,0.299-0.561,0.551l-2.268-1.535c0.251-0.32,0.547-0.612,0.885-0.861c0.34-0.251,0.711-0.426,1.126-0.526
		c0.413-0.099,0.863-0.104,1.346-0.015c0.481,0.087,0.992,0.313,1.528,0.673c0.526,0.358,0.922,0.729,1.188,1.116
		C35.406,26.023,35.577,26.403,35.66,26.775z M7.624,30.391l-1.139-0.092l0.097-1.195l1.139,0.092L7.624,30.391z M9.756,30.036
		c0.012-0.138-0.03-0.24-0.125-0.309c-0.095-0.066-0.206-0.098-0.334-0.096l0.1-1.203c0.179,0.026,0.352,0.077,0.523,0.153
		c0.167,0.077,0.317,0.184,0.445,0.321c0.126,0.136,0.226,0.309,0.295,0.513s0.095,0.448,0.071,0.734
		c-0.022,0.279-0.081,0.511-0.169,0.699c-0.091,0.184-0.2,0.334-0.326,0.442c-0.128,0.113-0.265,0.188-0.408,0.233
		c-0.144,0.044-0.28,0.068-0.408,0.065c-0.176-0.018-0.317-0.052-0.422-0.105c-0.106-0.054-0.191-0.124-0.26-0.202
		c-0.066-0.081-0.121-0.171-0.162-0.268c-0.041-0.098-0.08-0.191-0.123-0.291c-0.029-0.07-0.059-0.127-0.091-0.171
		c-0.031-0.048-0.064-0.082-0.101-0.108c-0.038-0.028-0.08-0.048-0.128-0.063c-0.05-0.013-0.107-0.022-0.172-0.027l0.085-1.064
		c0.06,0,0.131,0.003,0.221,0.011c0.093,0.007,0.186,0.025,0.279,0.059c0.094,0.031,0.184,0.077,0.271,0.144
		c0.088,0.067,0.158,0.154,0.209,0.271c0.02,0.049,0.041,0.103,0.063,0.169c0.021,0.063,0.047,0.125,0.075,0.184
		c0.029,0.061,0.064,0.11,0.107,0.15c0.042,0.042,0.095,0.069,0.162,0.073C9.631,30.363,9.738,30.26,9.756,30.036z M37.694,14.195
		l0.317,1.1l-1.154,0.332l-0.316-1.1L37.694,14.195z M35.239,13.23c-0.039-0.175-0.056-0.358-0.042-0.544
		c0.011-0.186,0.059-0.362,0.14-0.53c0.084-0.168,0.209-0.32,0.378-0.459c0.163-0.138,0.388-0.247,0.657-0.326
		c0.269-0.078,0.507-0.106,0.713-0.089c0.205,0.019,0.384,0.071,0.53,0.149c0.147,0.079,0.269,0.179,0.358,0.3
		c0.09,0.121,0.16,0.239,0.204,0.358c0.048,0.171,0.067,0.315,0.051,0.434s-0.046,0.222-0.097,0.313
		c-0.052,0.093-0.116,0.172-0.193,0.246c-0.077,0.071-0.15,0.143-0.231,0.219c-0.053,0.05-0.097,0.099-0.128,0.146
		c-0.031,0.042-0.054,0.087-0.064,0.13c-0.013,0.044-0.019,0.091-0.013,0.143c0.005,0.049,0.017,0.106,0.034,0.168l-1.026,0.295
		c-0.02-0.054-0.042-0.124-0.065-0.208c-0.026-0.09-0.043-0.184-0.046-0.284c-0.004-0.097,0.009-0.2,0.038-0.304
		c0.027-0.106,0.09-0.202,0.18-0.291c0.039-0.037,0.083-0.075,0.135-0.119c0.051-0.042,0.099-0.085,0.145-0.132
		c0.044-0.048,0.077-0.098,0.103-0.154c0.026-0.054,0.026-0.113,0.01-0.177c-0.054-0.189-0.188-0.252-0.404-0.191
		c-0.13,0.04-0.211,0.116-0.24,0.228c-0.026,0.111-0.021,0.228,0.029,0.346L35.239,13.23z M28.81,16.774l0.698,0.069l-0.066,0.665
		l-0.696-0.07L28.81,16.774z M29.087,15.862l-0.703-0.068c0.015-0.105,0.048-0.207,0.092-0.305c0.046-0.099,0.11-0.184,0.19-0.257
		c0.077-0.072,0.183-0.132,0.304-0.168c0.121-0.04,0.261-0.049,0.428-0.033c0.161,0.016,0.298,0.051,0.402,0.105
		c0.108,0.053,0.192,0.119,0.257,0.194c0.063,0.075,0.104,0.155,0.131,0.239c0.025,0.085,0.03,0.162,0.03,0.238
		c-0.011,0.104-0.03,0.184-0.067,0.245c-0.031,0.063-0.073,0.111-0.121,0.151c-0.048,0.036-0.1,0.065-0.154,0.089
		c-0.057,0.022-0.118,0.045-0.177,0.07c-0.038,0.018-0.073,0.033-0.101,0.051c-0.025,0.02-0.046,0.037-0.061,0.058
		c-0.017,0.021-0.027,0.046-0.035,0.075c-0.011,0.03-0.017,0.063-0.019,0.099l-0.618-0.059c0-0.035,0.003-0.077,0.011-0.129
		c0.005-0.055,0.017-0.107,0.033-0.163s0.049-0.107,0.086-0.157c0.04-0.051,0.092-0.091,0.162-0.122
		c0.027-0.009,0.062-0.021,0.097-0.035c0.039-0.011,0.075-0.025,0.108-0.04c0.031-0.016,0.064-0.036,0.087-0.063
		c0.027-0.024,0.04-0.056,0.044-0.093c0.011-0.112-0.05-0.176-0.181-0.19c-0.078-0.007-0.141,0.017-0.182,0.071
		C29.098,15.72,29.08,15.787,29.087,15.862z M25.133,30.892c0.025,0.087,0.034,0.165,0.031,0.237
		c-0.01,0.104-0.029,0.184-0.063,0.246c-0.034,0.062-0.075,0.112-0.123,0.146c-0.049,0.039-0.1,0.072-0.157,0.092
		c-0.057,0.026-0.113,0.045-0.172,0.072c-0.04,0.015-0.074,0.031-0.1,0.049c-0.026,0.022-0.047,0.035-0.064,0.059
		c-0.015,0.024-0.028,0.048-0.035,0.076c-0.008,0.029-0.015,0.064-0.02,0.098l-0.619-0.059c0.001-0.034,0.005-0.078,0.009-0.131
		c0.006-0.054,0.017-0.106,0.037-0.161c0.017-0.054,0.046-0.105,0.085-0.157c0.04-0.051,0.093-0.09,0.162-0.119
		c0.029-0.013,0.061-0.025,0.097-0.035c0.038-0.013,0.072-0.026,0.108-0.04c0.034-0.018,0.064-0.035,0.088-0.063
		c0.024-0.022,0.038-0.056,0.043-0.091c0.01-0.114-0.049-0.177-0.178-0.191c-0.083-0.007-0.142,0.019-0.182,0.073
		c-0.039,0.055-0.059,0.122-0.059,0.193l-0.701-0.067c0.015-0.106,0.047-0.209,0.093-0.304c0.045-0.101,0.111-0.186,0.191-0.259
		c0.08-0.075,0.182-0.13,0.303-0.17c0.119-0.038,0.262-0.049,0.427-0.032c0.166,0.015,0.301,0.05,0.406,0.104
		c0.108,0.056,0.192,0.118,0.254,0.195C25.059,30.729,25.104,30.81,25.133,30.892z M23.748,32.099l0.699,0.069l-0.064,0.661
		l-0.697-0.067L23.748,32.099z M10.523,10.873l-0.703-0.068C9.837,10.7,9.869,10.6,9.915,10.501c0.047-0.097,0.11-0.184,0.191-0.259
		c0.08-0.073,0.181-0.13,0.301-0.168c0.121-0.039,0.263-0.048,0.428-0.034c0.164,0.017,0.3,0.052,0.409,0.106
		c0.106,0.053,0.192,0.118,0.254,0.194c0.063,0.075,0.105,0.153,0.13,0.239c0.024,0.086,0.034,0.163,0.032,0.242
		c-0.01,0.102-0.032,0.183-0.065,0.246c-0.034,0.06-0.075,0.109-0.121,0.149c-0.047,0.035-0.1,0.065-0.156,0.088
		c-0.058,0.023-0.115,0.048-0.173,0.071c-0.04,0.017-0.074,0.032-0.099,0.051c-0.027,0.019-0.05,0.034-0.065,0.057
		c-0.014,0.022-0.026,0.046-0.035,0.076c-0.009,0.027-0.015,0.063-0.019,0.096l-0.621-0.058c0.002-0.034,0.005-0.076,0.012-0.129
		c0.004-0.054,0.016-0.106,0.035-0.162c0.02-0.053,0.048-0.105,0.086-0.157s0.091-0.089,0.162-0.12
		c0.027-0.009,0.06-0.021,0.097-0.034c0.037-0.011,0.072-0.026,0.108-0.042c0.034-0.015,0.064-0.036,0.089-0.061
		c0.025-0.022,0.038-0.055,0.042-0.093c0.011-0.115-0.046-0.177-0.177-0.191c-0.082-0.008-0.142,0.016-0.18,0.071
		C10.542,10.734,10.522,10.799,10.523,10.873z M10.25,11.787l0.697,0.069l-0.066,0.663l-0.697-0.069L10.25,11.787z M11.973,25.002
		l-1.743,0.5l-0.477-1.656l1.743-0.5L11.973,25.002z M7.786,21.891c-0.061-0.27-0.078-0.541-0.065-0.82
		c0.019-0.28,0.089-0.546,0.216-0.799c0.123-0.254,0.315-0.489,0.566-0.696c0.252-0.209,0.586-0.371,0.999-0.492
		c0.407-0.118,0.767-0.159,1.076-0.132c0.309,0.027,0.576,0.103,0.795,0.224c0.223,0.12,0.402,0.272,0.542,0.45
		c0.139,0.185,0.242,0.365,0.308,0.543c0.074,0.259,0.099,0.477,0.079,0.653c-0.021,0.179-0.071,0.335-0.15,0.475
		c-0.077,0.136-0.172,0.261-0.288,0.368c-0.114,0.11-0.229,0.22-0.349,0.332c-0.08,0.08-0.145,0.151-0.191,0.221
		c-0.046,0.065-0.079,0.131-0.096,0.199c-0.017,0.066-0.023,0.136-0.016,0.212c0.006,0.075,0.025,0.163,0.051,0.258l-1.549,0.444
		c-0.029-0.082-0.063-0.187-0.098-0.315c-0.041-0.134-0.063-0.276-0.069-0.426c-0.007-0.149,0.011-0.302,0.06-0.461
		c0.043-0.159,0.135-0.304,0.271-0.439c0.059-0.055,0.124-0.114,0.202-0.181c0.08-0.062,0.152-0.13,0.218-0.202
		c0.068-0.072,0.12-0.148,0.155-0.232c0.04-0.083,0.042-0.168,0.017-0.265c-0.082-0.283-0.284-0.38-0.608-0.287
		c-0.2,0.055-0.323,0.17-0.366,0.339c-0.04,0.17-0.028,0.344,0.042,0.525L7.786,21.891z M26.643,10.364l0.478,1.656l-1.743,0.5
		l-0.475-1.657L26.643,10.364z M22.933,8.91c-0.059-0.27-0.079-0.541-0.063-0.821c0.018-0.281,0.087-0.547,0.212-0.801
		c0.125-0.253,0.315-0.486,0.568-0.695c0.25-0.208,0.584-0.372,0.998-0.49c0.408-0.118,0.766-0.161,1.076-0.134
		c0.311,0.029,0.574,0.105,0.799,0.226c0.223,0.118,0.402,0.27,0.542,0.453c0.14,0.18,0.238,0.36,0.309,0.542
		c0.073,0.258,0.094,0.476,0.077,0.652C27.427,8.02,27.378,8.177,27.3,8.316c-0.077,0.137-0.174,0.259-0.288,0.367
		c-0.111,0.109-0.23,0.221-0.344,0.333c-0.086,0.078-0.148,0.149-0.196,0.219c-0.046,0.067-0.077,0.134-0.095,0.201
		c-0.02,0.063-0.024,0.135-0.02,0.212c0.01,0.075,0.026,0.162,0.053,0.256l-1.548,0.444c-0.029-0.081-0.064-0.188-0.1-0.317
		c-0.041-0.132-0.063-0.273-0.069-0.423c-0.005-0.149,0.012-0.302,0.059-0.46c0.045-0.159,0.136-0.305,0.273-0.441
		c0.059-0.054,0.125-0.112,0.202-0.178c0.078-0.066,0.149-0.133,0.219-0.202c0.066-0.072,0.119-0.148,0.153-0.233
		c0.039-0.083,0.042-0.17,0.019-0.266c-0.084-0.284-0.286-0.379-0.609-0.291c-0.2,0.059-0.323,0.173-0.364,0.342
		c-0.041,0.17-0.028,0.346,0.042,0.525L22.933,8.91z M15.868,28.368l-1.333-0.249c0.051-0.199,0.129-0.389,0.234-0.57
		c0.104-0.178,0.239-0.331,0.408-0.459c0.167-0.127,0.373-0.219,0.61-0.271c0.236-0.055,0.513-0.055,0.827,0.004
		c0.313,0.059,0.565,0.149,0.763,0.272c0.196,0.125,0.348,0.265,0.455,0.416c0.108,0.154,0.178,0.319,0.21,0.486
		c0.032,0.167,0.04,0.32,0.022,0.462c-0.035,0.192-0.092,0.347-0.165,0.459c-0.076,0.115-0.16,0.199-0.258,0.27
		c-0.099,0.063-0.203,0.112-0.315,0.144c-0.112,0.035-0.226,0.071-0.341,0.105c-0.08,0.024-0.148,0.052-0.202,0.083
		c-0.052,0.025-0.097,0.059-0.131,0.098c-0.031,0.037-0.059,0.082-0.081,0.133c-0.021,0.055-0.038,0.119-0.052,0.189l-1.18-0.225
		c0.009-0.061,0.021-0.144,0.041-0.241c0.017-0.102,0.051-0.202,0.096-0.308c0.045-0.102,0.109-0.197,0.192-0.287
		c0.084-0.09,0.193-0.156,0.328-0.202c0.058-0.018,0.122-0.029,0.196-0.048c0.075-0.019,0.143-0.038,0.212-0.064
		c0.068-0.024,0.129-0.057,0.182-0.101c0.051-0.042,0.084-0.098,0.099-0.176c0.04-0.215-0.063-0.346-0.309-0.391
		c-0.153-0.029-0.274,0.006-0.357,0.102C15.933,28.103,15.883,28.226,15.868,28.368z M15.193,30.079l1.327,0.247l-0.235,1.263
		l-1.327-0.248L15.193,30.079z"/>
</g>
</svg>
