<?xml version="1.0" encoding="utf-8"?>
<!-- Generator: Adobe Illustrator 16.0.0, SVG Export Plug-In . SVG Version: 6.00 Build 0)  -->
<!DOCTYPE svg PUBLIC "-//W3C//DTD SVG 1.1//EN" "http://www.w3.org/Graphics/SVG/1.1/DTD/svg11.dtd">
<svg version="1.1" id="Capa_1" xmlns="http://www.w3.org/2000/svg" xmlns:xlink="http://www.w3.org/1999/xlink" x="0px" y="0px"
	 width="325.125px" height="459px" viewBox="66.938 0 325.125 459" enable-background="new 66.938 0 325.125 459"
	 xml:space="preserve">
<g>
	<g>
		<path fill="#2C2F33" d="M296.438,76.5V57.375C296.438,24.862,271.575,0,239.063,0h-114.75C91.8,0,66.938,24.862,66.938,57.375V459
			l114.75-114.75L296.438,459V286.875c53.551-5.737,95.625-49.726,95.625-105.188C392.063,126.225,349.986,82.237,296.438,76.5z
			 M277.313,413.1l-95.625-95.625L86.062,413.1V57.375c0-21.038,17.212-38.25,38.25-38.25h114.75c21.037,0,38.25,17.212,38.25,38.25
			V76.5c-53.55,5.736-95.625,49.725-95.625,105.188s42.075,99.45,95.625,105.188V413.1z M286.875,267.75
			c-47.813,0-86.062-38.25-86.062-86.063c0-47.812,38.25-86.062,86.062-86.062s86.063,38.25,86.063,86.062
			C372.938,229.5,334.688,267.75,286.875,267.75z"/>
		<polygon fill="#3C92CA" points="296.438,172.125 296.438,114.75 277.313,114.75 277.313,172.125 219.938,172.125 219.938,191.25 
			277.313,191.25 277.313,248.625 296.438,248.625 296.438,191.25 353.813,191.25 353.813,172.125 		"/>
	</g>
</g>
</svg>
