<?xml version="1.0" encoding="utf-8"?>
<!-- Generator: Adobe Illustrator 16.0.0, SVG Export Plug-In . SVG Version: 6.00 Build 0)  -->
<!DOCTYPE svg PUBLIC "-//W3C//DTD SVG 1.1//EN" "http://www.w3.org/Graphics/SVG/1.1/DTD/svg11.dtd">
<svg version="1.1" id="Layer_1" xmlns="http://www.w3.org/2000/svg" xmlns:xlink="http://www.w3.org/1999/xlink" x="0px" y="0px"
	 width="760.002px" height="566.818px" viewBox="128 100.591 760.002 566.818" enable-background="new 128 100.591 760.002 566.818"
	 xml:space="preserve">
<g>
	<g>
		<g>
			<path fill="#1084C3" d="M577.214,106.272c-15.599-8.352-34.434-7.439-49.155,2.375L322.267,245.846h-78.02
				c-20.009,0-36.449,15.446-38.091,35.036H195.14c-37.021,0-67.14,30.119-67.14,67.141v71.958c0,37.021,30.119,67.14,67.14,67.14
				h11.014c1.644,19.59,18.086,35.037,38.091,35.037h78.018l205.792,137.199c8.026,5.349,17.274,8.055,26.557,8.053
				c7.741,0,15.507-1.882,22.599-5.679c15.6-8.349,25.289-24.525,25.289-42.218V148.49
				C602.503,130.797,592.813,114.619,577.214,106.272z M205.991,449.127H195.14c-16.071-0.002-29.145-13.076-29.145-29.148v-71.958
				c0-16.071,13.074-29.146,29.145-29.146h10.851V449.127z M309.02,484.162h-64.773c-0.143,0-0.261-0.115-0.261-0.261V284.1
				c0-0.144,0.117-0.261,0.261-0.261h64.773V484.162z M564.509,619.515c0,5.346-3.65,7.878-5.223,8.718
				c-1.57,0.84-5.703,2.475-10.152-0.49l-202.12-134.75V275.01l202.12-134.748c4.451-2.966,8.583-1.33,10.152-0.49
				c1.57,0.84,5.223,3.372,5.223,8.718V619.515z"/>
		</g>
	</g>
	<g>
		<g>
			<path fill="#1084C3" d="M812.575,392l68.815-68.814c8.814-8.814,8.814-23.102,0-31.916c-8.814-8.809-23.1-8.809-31.915,0
				l-68.814,68.814l-68.815-68.814c-8.813-8.807-23.096-8.812-31.911,0c-8.813,8.814-8.813,23.102,0,31.916L748.748,392
				l-68.814,68.813c-8.813,8.814-8.813,23.102,0,31.916c4.408,4.405,10.182,6.608,15.956,6.608c5.772,0,11.548-2.203,15.955-6.608
				l68.814-68.817l68.815,68.817c4.408,4.405,10.181,6.608,15.955,6.608c5.773,0,11.549-2.203,15.956-6.608
				c8.813-8.814,8.813-23.102,0-31.916L812.575,392z"/>
		</g>
	</g>
</g>
</svg>
