<?xml version="1.0" encoding="utf-8"?>
<!-- Generator: Adobe Illustrator 16.0.0, SVG Export Plug-In . SVG Version: 6.00 Build 0)  -->
<!DOCTYPE svg PUBLIC "-//W3C//DTD SVG 1.1//EN" "http://www.w3.org/Graphics/SVG/1.1/DTD/svg11.dtd">
<svg version="1.1" id="Layer_1" xmlns="http://www.w3.org/2000/svg" xmlns:xlink="http://www.w3.org/1999/xlink" x="0px" y="0px"
	 width="133.799px" height="126.85px" viewBox="0 371.854 133.799 126.85" enable-background="new 0 371.854 133.799 126.85"
	 xml:space="preserve">
<g transform="translate(1 1)">
	<g>
		<g>
			<path fill="#1084C3" d="M124.265,387.23c-0.231-1.153-1.384-2.076-2.537-2.076l-14.417,1.311
				c0.075-0.581,0.118-1.171,0.118-1.771c0-7.611-6.227-13.839-13.838-13.839s-13.838,6.228-13.838,13.839
				c0,1.382,0.208,2.718,0.59,3.979l-32.861,2.857L10.1,388.153c-0.461-0.231-1.153,0-1.614,0.461
				c-0.692,0.461-0.922,0.922-0.922,1.614l-8.534,96.636c-0.23,1.384,0.922,2.537,2.076,2.537l30.618,2.588l0.057,0.642
				c0.23,0.691,0.461,1.152,0.922,1.613c0.231,0.231,0.922,0.462,1.384,0.462l14.756-1.303l48.899,4.301
				c1.384,0,2.306-0.923,2.306-2.076l0.537-6.795l30.138-2.661c0.692-0.23,1.153-0.461,1.614-0.922
				c0.23-0.461,0.461-0.923,0.461-1.614L124.265,387.23z M93.59,375.467c5.074,0,9.226,4.151,9.226,9.226
				c0,1.059-0.183,2.077-0.516,3.026c-0.076,0.131-0.137,0.274-0.177,0.433c-1.291,3.229-4.39,5.451-7.797,5.733
				c-0.033,0.003-0.065,0.006-0.097,0.007c-0.212,0.016-0.425,0.025-0.64,0.025c-0.178,0-0.355-0.007-0.532-0.017
				c-0.085-0.006-0.17-0.012-0.254-0.02c-0.077-0.007-0.154-0.014-0.231-0.022c-1.941-0.215-3.705-1.039-5.096-2.275
				c-0.095-0.152-0.208-0.299-0.344-0.434c-0.135-0.136-0.281-0.249-0.434-0.345c-0.354-0.397-0.674-0.825-0.956-1.28
				c-0.058-0.114-0.119-0.217-0.183-0.312c-0.759-1.338-1.195-2.881-1.195-4.522C84.365,379.618,88.516,375.467,93.59,375.467z
				 M3.873,484.788l8.072-91.794l11.993,1.154l-0.231,0.23c-0.23,0.461-0.461,0.923-0.461,1.614l8.044,91.099L3.873,484.788z
				 M95.666,492.86l-20.388-1.792l20.614-1.82L95.666,492.86z M36.162,489.631l-8.052-91.563l20.276-1.844
				c0.335,0,0.65-0.099,0.929-0.267l32.676-2.895l-10.772,10.772c-0.923,0.923-0.923,2.306,0,3.229
				c0.461,0.462,0.922,0.692,1.614,0.692s1.153-0.231,1.614-0.692l11.119-11.119c2.268,1.625,5.038,2.586,8.023,2.586
				c5.378,0,10.062-3.111,12.35-7.621l13.943-1.143l8.072,91.792L36.162,489.631z"/>
			<path fill="#1084C3" d="M100.971,424.131l7.149-0.692c1.153-0.23,2.076-1.384,2.076-2.537c-0.23-1.152-1.384-2.075-2.537-2.075
				l-6.919,0.692c-1.154,0.23-2.076,1.383-2.076,2.536S99.817,424.131,100.971,424.131z"/>
			<path fill="#1084C3" d="M75.6,426.437l16.375-1.383c1.154-0.231,2.076-1.385,2.076-2.537c-0.23-1.153-1.384-2.307-2.537-2.076
				l-16.145,1.384c-1.153,0.23-2.076,1.384-2.076,2.537C73.525,425.515,74.448,426.437,75.6,426.437z"/>
			<path fill="#1084C3" d="M66.837,427.129c1.153-0.23,2.076-1.384,2.076-2.537c-0.231-1.153-1.153-2.307-2.537-2.075l-20.757,1.845
				c-1.153,0.23-2.076,1.384-2.076,2.537c0.23,1.152,1.153,2.075,2.306,2.075L66.837,427.129z"/>
			<path fill="#1084C3" d="M108.812,432.664l-16.145,1.384c-1.153,0.23-2.076,1.385-2.076,2.537c0.23,1.152,1.154,2.075,2.307,2.075
				l16.375-1.383c1.153-0.231,2.076-1.154,2.076-2.537C111.118,433.587,109.965,432.434,108.812,432.664z"/>
			<path fill="#1084C3" d="M60.84,439.353c0.231,1.153,1.154,2.076,2.307,2.076l16.375-1.384c1.153-0.231,2.307-1.385,2.076-2.537
				c-0.231-1.153-1.384-2.075-2.537-2.075l-16.145,1.384C61.763,437.047,60.84,438.2,60.84,439.353z"/>
			<path fill="#1084C3" d="M54.152,442.12c1.153-0.23,2.076-1.384,2.076-2.537c-0.231-1.153-1.153-2.306-2.537-2.075l-6.919,0.692
				c-1.153,0.229-2.076,1.383-2.076,2.536c0.231,1.153,1.153,2.076,2.307,2.076L54.152,442.12z"/>
			<path fill="#1084C3" d="M109.965,446.502l-4.612,0.462c-1.154,0.23-2.076,1.384-2.076,2.537c0,1.152,1.153,2.075,2.306,2.075
				l4.843-0.461c1.153-0.231,2.076-1.384,2.076-2.537C112.271,447.425,111.118,446.272,109.965,446.502z"/>
			<path fill="#1084C3" d="M96.358,447.656l-23.063,2.076c-1.153,0.23-2.076,1.384-2.076,2.537c0.23,1.152,1.153,2.075,2.306,2.075
				l23.294-2.075c1.153-0.231,2.307-1.385,2.076-2.537C98.665,448.578,97.511,447.425,96.358,447.656z"/>
			<path fill="#1084C3" d="M59.456,451.115l-11.532,0.922c-1.153,0.231-2.076,1.384-2.076,2.537c0.23,1.153,1.153,2.076,2.307,2.076
				l11.762-0.923c1.153-0.23,2.076-1.384,2.076-2.536C61.763,452.037,60.84,450.884,59.456,451.115z"/>
			<path fill="#1084C3" d="M111.349,460.341l-23.063,2.075c-1.153,0.231-2.076,1.384-2.076,2.537
				c0.23,1.153,1.153,2.076,2.306,2.076l23.294-2.076c1.153-0.23,2.076-1.384,2.076-2.537
				C113.656,461.263,112.502,460.341,111.349,460.341z"/>
			<path fill="#1084C3" d="M74.448,463.57l-9.226,0.691c-1.153,0.231-2.076,1.384-2.076,2.537c0.23,1.153,1.153,2.076,2.307,2.076
				l9.456-0.692c1.153-0.23,2.306-1.384,2.075-2.537C76.754,464.492,75.6,463.339,74.448,463.57z"/>
			<path fill="#1084C3" d="M55.997,464.953l-6.919,0.691c-1.153,0.23-2.076,1.385-2.076,2.537c0.231,1.153,1.154,2.076,2.307,2.076
				l7.149-0.692c1.153-0.23,2.076-1.384,2.076-2.536C58.303,465.875,57.38,464.723,55.997,464.953z"/>
		</g>
	</g>
</g>
</svg>
