<?xml version="1.0" encoding="utf-8"?>
<!-- Generator: Adobe Illustrator 16.0.0, SVG Export Plug-In . SVG Version: 6.00 Build 0)  -->
<!DOCTYPE svg PUBLIC "-//W3C//DTD SVG 1.1//EN" "http://www.w3.org/Graphics/SVG/1.1/DTD/svg11.dtd">
<svg version="1.1" id="Layer_1" xmlns="http://www.w3.org/2000/svg" xmlns:xlink="http://www.w3.org/1999/xlink" x="0px" y="0px"
	 width="233.098px" height="768px" viewBox="395.451 0 233.098 768" enable-background="new 395.451 0 233.098 768"
	 xml:space="preserve">
<g>
	<g>
		<path fill="#2C2F33" d="M395.451,620.078c0,3.451,1.098,6.745,3.137,9.411l101.019,132.393c2.98,3.922,7.53,6.118,12.393,6.118
			s9.412-2.196,12.393-6.118l101.02-132.393c2.039-2.666,3.137-5.96,3.137-9.411V194.823c0-8.627-6.901-15.529-15.529-15.529
			c-8.627,0-15.529,6.902-15.529,15.529v420.078l-85.49,112l-85.49-112V195.608c0-8.627-6.902-15.529-15.529-15.529
			s-15.529,6.902-15.529,15.529V620.078L395.451,620.078z"/>
		<path fill="#2C2F33" d="M496.471,195.608v390.588c0,8.628,6.902,15.529,15.529,15.529s15.529-6.901,15.529-15.529V195.608
			c0-8.627-6.902-15.529-15.529-15.529S496.471,186.981,496.471,195.608z"/>
		<path fill="#3C92CA" d="M395.451,61.02v69.49c0,8.627,6.902,15.529,15.529,15.529h201.882c8.628,0,15.53-6.902,15.53-15.529V61.02
			c0-33.568-27.295-61.02-61.02-61.02H456.471C422.902,0,395.451,27.294,395.451,61.02z M597.49,61.02v53.961H426.51V61.02
			c0-16.471,13.49-29.961,29.961-29.961h110.902C584,31.059,597.49,44.392,597.49,61.02z"/>
	</g>
</g>
</svg>
