<?xml version="1.0" encoding="utf-8"?>
<!-- Generator: Adobe Illustrator 21.0.0, SVG Export Plug-In . SVG Version: 6.00 Build 0)  -->
<svg version="1.1" id="Layer_1" xmlns="http://www.w3.org/2000/svg" xmlns:xlink="http://www.w3.org/1999/xlink" x="0px" y="0px"
	 viewBox="0 0 180 180" style="enable-background:new 0 0 180 180;" xml:space="preserve">
<style type="text/css">
	.st0{fill:#FFFFFF;}
	.st1{display:none;}
	.st2{display:inline;}
	.st3{fill:url(#SVGID_1_);}
	.st4{fill:#D15900;}
	.st5{clip-path:url(#SVGID_4_);}
	.st6{fill:#FBC6A4;}
	.st7{fill:#EAAD85;}
	.st8{fill:#DE9173;}
	.st9{fill:#353431;}
	.st10{fill:#4A4944;}
	.st11{fill:#272623;}
	.st12{fill:#476B58;}
	.st13{fill:#59806B;}
	.st14{fill:#355444;}
	.st15{fill:#75655A;}
	.st16{fill:#59493C;}
	.st17{fill:#D5954D;}
	.st18{fill:#4A3C30;}
	.st19{fill:#D387AA;}
	.st20{fill:#D3C8C2;}
	.st21{fill:#A79D97;}
	.st22{fill:#42352A;}
	.st23{fill:#201F1C;}
	.st24{fill:#2B2B2B;}
	.st25{fill:#385546;}
	.st26{fill:#69A083;}
	.st27{fill:#25382F;}
	.st28{fill:#E5E6E6;}
	.st29{fill:#DDDFE0;}
	.st30{fill:#B2A297;}
	.st31{fill:#262223;}
	.st32{fill:#412820;}
	.st33{fill:#D5956A;}
	.st34{fill:#4D1F1C;}
	.st35{fill:#F48F87;}
	.st36{fill:#F2F2F2;}
	.st37{fill:#D9DADE;}
	.st38{fill:#C08E76;}
	.st39{fill:#ADBEB6;}
	.st40{fill:#0F964C;}
	.st41{fill:#4C73BF;}
</style>
<rect class="st0" width="180" height="180"/>
<rect class="st0" width="180" height="180"/>
<g>
	<g>
		<g>
			<g class="st1">
				<g class="st2">
					<g>
						
							<radialGradient id="SVGID_1_" cx="96.3333" cy="-108" r="167.1662" gradientTransform="matrix(1 0 0 1 0 192)" gradientUnits="userSpaceOnUse">
							<stop  offset="0.173" style="stop-color:#FFFFFF"/>
							<stop  offset="1" style="stop-color:#36CDFF;stop-opacity:0.3"/>
						</radialGradient>
						<rect id="SVGID_2_" x="0.4" y="0.1" class="st3" width="180" height="180"/>
					</g>
				</g>
			</g>
			<g>
				<g>
					<g>
						<path class="st4" d="M168.9,173.6h-2.6V173h2.6V173.6z M163.1,173.6h-2.6V173h2.6V173.6z M157.3,173.6h-2.6V173h2.6V173.6z
							 M151.5,173.6H149V173h2.6v0.6H151.5z M145.8,173.6h-2.6V173h2.6V173.6z M140,173.6h-2.6V173h2.6V173.6z M134.2,173.6h-2.6
							V173h2.6V173.6z M128.5,173.6h-2.6V173h2.6V173.6z M122.7,173.6h-2.6V173h2.6V173.6z M116.9,173.6h-2.6V173h2.6V173.6z
							 M111.2,173.6h-2.6V173h2.6V173.6z M105.4,173.6h-2.6V173h2.6V173.6z M99.6,173.6H97V173h2.6V173.6z M93.9,173.6h-2.6V173h2.6
							V173.6z M88.1,173.6h-2.6V173h2.6V173.6z M82.3,173.6h-2.6V173h2.6V173.6z M76.5,173.6H74V173h2.6L76.5,173.6L76.5,173.6z
							 M70.8,173.6h-2.6V173h2.6V173.6z M65,173.6h-2.6V173H65V173.6z M59.2,173.6h-2.6V173h2.6V173.6z M53.5,173.6h-2.6V173h2.6
							V173.6z M47.7,173.6h-2.6V173h2.6V173.6z M41.9,173.6h-2.6V173h2.6V173.6z M36.2,173.6h-2.6V173h2.6V173.6z M30.4,173.6h-2.6
							V173h2.6V173.6z M24.6,173.6H22V173h2.6V173.6z M18.9,173.6h-2.6V173h2.6V173.6z M13.1,173.6H12c-0.5,0-1-0.1-1.5-0.2l0.2-0.6
							c0.4,0.1,0.9,0.2,1.3,0.2h1.1V173.6z M171.5,172.8l-0.3-0.5c0.7-0.4,1.2-1,1.6-1.8l0.6,0.3
							C172.9,171.6,172.3,172.3,171.5,172.8z M7.8,171.3c-0.5-0.8-0.8-1.7-0.8-2.6h0.6c0,0.8,0.3,1.6,0.7,2.2L7.8,171.3z
							 M173.9,167.5h-0.6V165h0.6V167.5z M7.6,165.5H6.9V163h0.6L7.6,165.5L7.6,165.5z M173.9,161.8h-0.6v-2.6h0.6V161.8z
							 M7.6,159.8H6.9v-2.6h0.6L7.6,159.8L7.6,159.8z M173.9,156h-0.6v-2.6h0.6V156z M7.6,154H6.9v-2.6h0.6L7.6,154L7.6,154z
							 M173.9,150.2h-0.6v-2.6h0.6V150.2z M7.6,148.2H6.9v-2.6h0.6L7.6,148.2L7.6,148.2z M173.9,144.4h-0.6v-2.6h0.6V144.4z
							 M7.6,142.4H6.9v-2.6h0.6L7.6,142.4L7.6,142.4z M173.9,138.7h-0.6v-2.6h0.6V138.7z M7.6,136.7H6.9v-2.6h0.6L7.6,136.7
							L7.6,136.7z M173.9,132.9h-0.6v-2.6h0.6V132.9z M7.6,130.9H6.9v-2.6h0.6L7.6,130.9L7.6,130.9z M173.9,127.1h-0.6v-2.6h0.6
							V127.1z M7.6,125.1H6.9v-2.6h0.6L7.6,125.1L7.6,125.1z M173.9,121.4h-0.6v-2.6h0.6V121.4z M7.6,119.4H6.9v-2.6h0.6L7.6,119.4
							L7.6,119.4z M173.9,115.6h-0.6V113h0.6V115.6z M7.6,113.6H6.9V111h0.6L7.6,113.6L7.6,113.6z M173.9,109.8h-0.6v-2.6h0.6V109.8
							z M7.6,107.8H6.9v-2.6h0.6L7.6,107.8L7.6,107.8z M173.9,104.1h-0.6v-2.6h0.6V104.1z M7.6,102.1H6.9v-2.6h0.6L7.6,102.1
							L7.6,102.1z M173.9,98.3h-0.6v-2.6h0.6V98.3z M7.6,96.3H6.9v-2.6h0.6L7.6,96.3L7.6,96.3z M173.9,92.5h-0.6V90h0.6V92.5z
							 M7.6,90.5H6.9V88h0.6L7.6,90.5L7.6,90.5z M173.9,86.8h-0.6v-2.6h0.6V86.8z M7.6,84.8H6.9v-2.6h0.6L7.6,84.8L7.6,84.8z
							 M173.9,81h-0.6v-2.6h0.6V81z M7.6,79H6.9v-2.6h0.6L7.6,79L7.6,79z M173.9,75.2h-0.6v-2.6h0.6V75.2z M7.6,73.2H6.9v-2.6h0.6
							L7.6,73.2L7.6,73.2z M173.9,69.4h-0.6v-2.6h0.6V69.4z M7.6,67.4H6.9v-2.6h0.6L7.6,67.4L7.6,67.4z M173.9,63.7h-0.6v-2.6h0.6
							V63.7z M7.6,61.7H6.9v-2.6h0.6L7.6,61.7L7.6,61.7z M173.9,57.9h-0.6v-2.6h0.6V57.9z M7.6,55.9H6.9v-2.6h0.6L7.6,55.9L7.6,55.9
							z M173.9,52.1h-0.6v-2.6h0.6V52.1z M7.6,50.1H6.9v-2.6h0.6L7.6,50.1L7.6,50.1z M173.9,46.4h-0.6v-2.6h0.6V46.4z M7.6,44.4H6.9
							v-2.6h0.6L7.6,44.4L7.6,44.4z M173.9,40.6h-0.6V38h0.6V40.6z M7.6,38.6H6.9V36h0.6L7.6,38.6L7.6,38.6z M173.9,34.8h-0.6v-2.6
							h0.6V34.8z M7.6,32.8H6.9v-2.6h0.6L7.6,32.8L7.6,32.8z M173.9,29.1h-0.6v-2.6h0.6V29.1z M7.6,27.1H6.9v-2.6h0.6L7.6,27.1
							L7.6,27.1z M173.9,23.3h-0.6v-2.6h0.6V23.3z M7.6,21.3H6.9v-2.6h0.6L7.6,21.3L7.6,21.3z M173.9,17.5h-0.6V15h0.6V17.5z
							 M7.6,15.5H6.9V13h0.6L7.6,15.5L7.6,15.5z M173.9,11.8h-0.6v-0.1c0-0.8-0.2-1.5-0.6-2.2l0.6-0.3c0.4,0.8,0.7,1.6,0.7,2.5
							L173.9,11.8L173.9,11.8z M7.9,9.9L7.3,9.7c0.4-0.9,1-1.6,1.7-2.1l0.4,0.5C8.8,8.6,8.2,9.2,7.9,9.9z M170.4,7.6
							c-0.5-0.2-1-0.3-1.6-0.3H168V6.6h0.8c0.6,0,1.2,0.1,1.8,0.3L170.4,7.6z M164.8,7.3h-2.6V6.6h2.6V7.3z M159,7.3h-2.6V6.6h2.6
							V7.3z M153.3,7.3h-2.6V6.6h2.6V7.3z M147.5,7.3h-2.6V6.6h2.6V7.3z M141.7,7.3h-2.6V6.6h2.6V7.3z M136,7.3h-2.6V6.6h2.6V7.3z
							 M130.2,7.3h-2.6V6.6h2.6V7.3z M124.4,7.3h-2.6V6.6h2.6V7.3z M118.6,7.3H116V6.6h2.6V7.3z M112.9,7.3h-2.6V6.6h2.6V7.3z
							 M107.1,7.3h-2.6V6.6h2.6V7.3z M101.3,7.3h-2.6V6.6h2.6V7.3z M95.6,7.3H93V6.6h2.6V7.3z M89.8,7.3h-2.6V6.6h2.6V7.3z M84,7.3
							h-2.6V6.6H84V7.3z M78.3,7.3h-2.6V6.6h2.6V7.3z M72.5,7.3h-2.6V6.6h2.6V7.3z M66.7,7.3h-2.6V6.6h2.6V7.3z M61,7.3h-2.6V6.6H61
							V7.3z M55.2,7.3h-2.6V6.6h2.6V7.3z M49.4,7.3h-2.6V6.6h2.6V7.3z M43.6,7.3H41V6.6h2.6V7.3z M37.9,7.3h-2.6V6.6h2.6V7.3z
							 M32.1,7.3h-2.6V6.6h2.6V7.3z M26.3,7.3h-2.6V6.6h2.6V7.3z M20.6,7.3H18V6.6h2.6V7.3z M14.8,7.3h-2.6V6.6h2.6
							C14.8,6.6,14.8,7.3,14.8,7.3z"/>
					</g>
				</g>
			</g>
		</g>
	</g>
</g>
<g>
	<g>
		<g>
			<g>
				<g>
					<g>
						<defs>
							<ellipse id="SVGID_3_" cx="50.1" cy="56.5" rx="110.9" ry="100"/>
						</defs>
						<clipPath id="SVGID_4_">
							<use xlink:href="#SVGID_3_"  style="overflow:visible;"/>
						</clipPath>
						<g class="st5">
							<g>
								<path class="st6" d="M78.7,169.5c0,0-0.8,3.7-0.9,5.6s-0.3,3.4,1,3.4c1.2,0,1.7-1.7,2-3.4c0.5,0.2,1.2,4.7,1.2,4.7
									s-0.6,2.5,0.3,2.6c1,0.2,1.6-0.6,1.9-1.6c0.4,0.2,1-0.7,1.3-1.9c0.7-0.4,1.3-4,0.9-5.4c-0.4-1.4-2.2-3-2.2-3L78.7,169.5z"/>
								<path class="st7" d="M83.1,170.3c0,0,1.2,0.9,2.7,2.7c-1.8-1.8-5.9,0.2-7.7,1.9c0.3-1.5,0.6-3.5,0.6-3.5L83.1,170.3z"/>
								<path class="st8" d="M84,180.8c0.6-2.8-0.6-5.3-0.6-5.4h-0.1v0.1C83.3,175.5,84.4,178,84,180.8L84,180.8
									C84.1,180.8,84.1,180.8,84,180.8z"/>
								<path class="st8" d="M85.4,179L85.4,179c0.5-3.5-0.6-4.9-0.6-5h-0.1v0.1C84.7,174.1,85.8,175.5,85.4,179
									C85.3,179,85.3,179,85.4,179L85.4,179z"/>
								<path class="st9" d="M74.1,158c0,0-1.8,69.1-3.2,89.1c-6.5,4.1-12.6,0-12.6,0s-3-62.7-3.9-62.8c-0.9-0.1-2.8,60.1-3.3,63.1
									c-3.5,2.6-9.5,3.2-13.2-0.9c-1.2-13.1-3.5-87.9-3.5-87.9L74.1,158z"/>
								<path class="st10" d="M70.6,219.6c-3.8,1.2-9.9,0.3-9.9,0.3s-0.3-13.9-0.4-19.6c3.9,0.3,10.9,0,10.9,0
									S70.9,207.4,70.6,219.6z"/>
								<path class="st10" d="M48.5,220.1c-3.8,1.1-9.8,0.1-9.8,0.1s-1.3-13.5-1.4-19.2c3.8,0.1,10.9-0.3,10.9-0.3
									S48.2,208.5,48.5,220.1z"/>
								<path class="st11" d="M73.3,164.6c0,0-1.4,25.5-1.2,25.1c0.2-0.4-5.8-18.8-19.4-16.5s-14.6,27-14.6,27S36,167.4,36,167
									L73.3,164.6z"/>
								<g>
									<path class="st7" d="M58.1,100.3c-1.3-0.3-3.2-0.5-3.2-0.5v-3.2l-3,0.1c0,0,0.2,1.5,0.2,3.2c-2,0.4-4,1.1-4,1.1
										C50.4,105.7,57.2,105.4,58.1,100.3z"/>
									<path class="st7" d="M58.2,100.3c-1.3-0.3-3.2-0.5-3.2-0.5s0-0.6,0-1.4c-1.5,0.4-3,0-3,0s0.1-0.2,0.1,1.5
										c-2,0.4-4,1.1-4,1.1C47.8,109.7,60.1,109.2,58.2,100.3z"/>
									<path class="st0" d="M52.5,103.9l2.6,0l4.2,3.2l-4.7,7.1l-5.5-7.8C49.1,106.4,52.2,104,52.5,103.9L52.5,103.9z"/>
									<path class="st9" d="M53.8,108.5c0,0-3.9,5.7,0.9,9.2c4.4-3.7,0.4-9.3,0.4-9.3l1.9-3.8l-2.8-1.2l-3.8,1.5L53.8,108.5z"/>
								</g>
								<path class="st12" d="M79.8,166.3c0.3-37.9-9.4-60.8-19-63.4c-0.7,1-6.2,11.2-6.2,11.2s-6.3-8.4-7.8-9.8
									c-18,4.5-18.2,44.2-17.8,62.1C29,166.4,51.4,176.8,79.8,166.3z"/>
								<path class="st13" d="M46.9,152.6l0.9-1c0.1,0.1,8.7,8.3,14.3,15.6l-1.1,0.9C55.4,160.8,46.9,152.7,46.9,152.6z"/>
								<path class="st13" d="M51.7,171.1c0.7,0,1.3,0,2,0c-3.4-3.4-5.9-5.9-6-6l-0.9,1C46.9,166.1,49,168.1,51.7,171.1z"/>
								<path class="st13" d="M46.9,127l0.9-1c0.1,0.1,8.7,8.3,14.3,15.6l-1.1,0.9C55.4,135.3,46.9,127.2,46.9,127z"/>
								<g>
									<path class="st14" d="M46.8,153.2l1.1,0.9c5.5-7.2,14-15.3,14.1-15.4l-0.9-1C61,137.8,52.4,146,46.8,153.2z"/>
									<path class="st14" d="M53.4,171.1c0.6,0,1.2,0,1.9,0c3.6-3.9,6.6-6.7,6.7-6.8l-0.9-1C61.1,163.3,57.5,166.7,53.4,171.1z"/>
									<path class="st14" d="M46.8,166l1.1,0.9c5.5-7.2,14-15.3,14.1-15.4l-0.9-1C61,150.6,52.4,158.8,46.8,166z"/>
									<path class="st14" d="M46.8,129.1l1.1,0.9c5.5-7.2,14-15.3,14.1-15.4l-0.9-1C61,113.7,52.4,121.9,46.8,129.1z"/>
									<path class="st14" d="M46.8,140.4l1.1,0.9c5.5-7.2,14-15.3,14.1-15.4l-0.9-1C61,124.9,52.4,133.2,46.8,140.4z"/>
								</g>
								<path class="st13" d="M46.9,114.1l0.9-1c0.1,0.1,8.7,8.3,14.3,15.6l-1.1,0.9C55.4,122.5,46.9,114.4,46.9,114.1z"/>
								<path class="st13" d="M46.9,139.8l0.9-1c0.1,0.1,8.7,8.3,14.3,15.6l-1.1,0.9C55.4,148.1,46.9,140,46.9,139.8z"/>
								<path class="st0" d="M48.1,106.9c0.2-0.2,0.9-0.8,1.3-0.9c1.8,1.6,5.2,6.8,5.2,6.8l3.3-7.1c0,0,0.9,0.3,1.7,0.6l-4.9,9.8
									C54.7,116.1,50.1,109.3,48.1,106.9z"/>
								<polygon class="st0" points="54.2,103.4 48.7,107.5 47.7,101 52.1,99.5 								"/>
								<polygon class="st0" points="59.5,100.4 60,107.1 54.2,103.4 55,99.2 								"/>
								<path class="st15" d="M36.1,108.3c-5.7,8.2-10.1,48.4-8.9,62.1c2.3,2.7,12.3,6.1,20.2,5.2c3.8-1.8,1.1-74.8,1.1-74.8
									S43.2,103.5,36.1,108.3z"/>
								<path class="st15" d="M73.1,109c5.6,8.1,8.2,46.8,7,60.5c-2.3,2.8-12.3,5.6-20.2,4.7c-3.1-25.4-0.2-73.3-0.2-73.3
									S67.1,102.8,73.1,109z"/>
								<path class="st16" d="M49.3,153.9c0,0-4.4-35.5-4.4-36.4c1.7-1.2,3.6-2.2,3.6-2.2s-2-0.8-4.1-1.4c-0.5-0.5-2.6-8-3.2-9.3
									c2.4-1.4,5.2-3.2,7.3-4.5C52.8,109.1,49.3,153.9,49.3,153.9z"/>
								<path class="st16" d="M58.7,153.9c0,0,4.4-35.5,4.4-36.4c-1.7-1.2-3.6-2.2-3.6-2.2s2-0.8,4.1-1.4c0.5-0.5,1.8-9,2.4-10.3
									c-2.3-1.4-5-3-6.7-3.5C54.9,109.1,58.7,153.9,58.7,153.9z"/>
								<g>
									<g>
										<path class="st17" d="M39.3,174.9c0.4,6.4-10.8,58.7-15.2,85.6c-0.5,2.5-2.7,1.5-2.6-0.1C22.4,254,38,177.5,36,175.5
											c-3.1-3.1-8.3,2.9-9.7,0.6c-1.4-2.5,3.5-4,5.5-4.5C36.9,170.3,39.2,172.8,39.3,174.9z"/>
										<g>
											<path class="st6" d="M33.8,161.4c2.1,2.8,0.6,5.5,2.2,7.3c2.1,1.9,3.5,3.3,3.2,4.7c-0.5-0.3-1.1-1.4-2.1-1.2
												c0,0-0.9,0.5-0.6,3.9c-0.2,0.7-1.2,1.7-2.1,0.1c0.1,1.8-1.5,1.7-1.9,0.3c-0.2,1.2-1.6,1.5-2,0.1c-0.8,2-2.2-1.4-1.2-4.8
												c0.9-3.1-0.2-9.1-0.2-9.1S31.4,158.6,33.8,161.4z"/>
										</g>
										<g>
											<path class="st7" d="M34.6,164.1c-0.3,2.3,0.4,4.4,0.4,4.4s-0.9-1.6-2.4-1.5c-1.4,0.1-1.7,1.4-2.8,2.8
												c0.8-1.6-0.1-5-0.1-5S33.6,163.2,34.6,164.1z"/>
										</g>
									</g>
								</g>
								<path class="st16" d="M35.9,122c-1.7,7.3-2.1,11.7-1.4,12.6c0.6,0.9,0.1,1.5-0.3,4.4c-0.5,3,6.1,24.7,5.4,26.2
									c-2.9-1.1-8.4-0.1-10.8,1.7c-2.9-1.9-6.8-27.2-7.9-28.5c-1.1-1.4,1.9-3.1,0.4-4.2c-1.5-1.1,0.5-3.6,2-4.9
									c1.6-1.2,1.4-7.2,4.8-13.3c2.7-4.9,4.8-5.7,8-7.6C36.1,108.4,38,111.9,35.9,122z"/>
								<g>
									<path class="st18" d="M29.7,166.1c-2.8-3.5-6.5-26.9-7.5-28.2c-1.1-1.4,1.9-3.1,0.4-4.2c-1.5-1.1,0.5-3.6,2-4.9
										c1.6-1.2,1.4-7.2,4.8-13.3c2.4-4.3,4.2-5.4,6.8-6.9c0,0.2,0.1,0.4,0.2,0.7c-1.2,1.1-2.4,2.5-3.8,4.9
										c-3.4,6-3.3,12-4.8,13.3c-1.6,1.4-3.5,3.8-2,4.9c1.6,1.1-1.5,2.9-0.4,4.2c1.1,1.3,4.9,25.7,7.7,28.4
										C31.8,165.4,30.7,165.7,29.7,166.1z"/>
									<path class="st16" d="M34.5,164.7c-0.3,0-0.5,0.1-0.8,0.2C34,164.9,34.2,164.8,34.5,164.7z"/>
								</g>
								<path class="st16" d="M73.3,122.3c2.2,15.1,1.4,43.1,3.2,49.2c2.6,0.6,6.1,0.7,9.3-0.9c0.2-5.9-1.7-28-1.7-28.7
									s-1.2-1.6-0.7-2.3s1-2.5,0.3-3c-0.7-0.5-0.8-1.6-1-2.8c-0.9-22.1-10.3-25.3-10.3-25.3L73.3,122.3z"/>
								<path class="st18" d="M84.2,171.4c-0.6,0.1-1.2,0.3-1.8,0.4c0-7.2-1.8-28.4-1.8-29.1s-1.2-1.7-0.7-2.4
									c0.5-0.7,1-2.6,0.3-3.1c-0.7-0.5-0.8-1.7-1-2.9c-0.5-12.9-3.9-19.7-6.7-23.1l-0.1-2c3,2.4,7.9,8.8,8.6,25
									c0.1,1.2,0.3,2.4,1,2.9c0.7,0.5,0.2,2.4-0.3,3.1s0.7,1.7,0.7,2.4S84.2,163.7,84.2,171.4z"/>
								<g>
									<circle class="st18" cx="61.4" cy="150.9" r="1.6"/>
								</g>
								<g>
									<circle class="st18" cx="62.2" cy="162.9" r="1.6"/>
								</g>
								<g>
									<path class="st6" d="M41.7,247.4l-0.8,7.5c0,0-1.2,1.7-1.5,2.1c0.4,0.4,2.2,1.6,3.3,2.6c1.2-1.3,3.1-3.5,3.1-3.5l0.8-9.1
										L41.7,247.4z"/>
									<path class="st7" d="M45.9,251.3c0,0,0,0.5-0.3,3.1c-1.6-2.2-4.2-0.3-4.2-0.3l0.4-2.3L45.9,251.3z"/>
									<g>
										<g>
											<path class="st19" d="M29.8,262.7v-0.1c0.1,0.1,0.1,0.2,0.1,0.3C29.9,262.9,29.9,262.8,29.8,262.7z"/>
										</g>
										<path class="st20" d="M37.3,253c-0.8,0.1-1,1.2-1.3,2.1c-0.5,1.2-1.9,2.4-2.1,3c-0.2,0.6,2.9,1.7,4.4,0.9s2.7-3.2,3-4
											c0.2-0.7-0.4-1.3-0.7-1.5C40.1,253.3,37.8,253.1,37.3,253z"/>
										<g>
											<path class="st20" d="M46.5,259.1c0.3,0.7,0.6,2.2,0.2,3c-1.2,2.1-4.3,4.9-9.1,5.9c-2.9,0.6-8.3,0.1-8.3-3.3
												c0-0.6,0.3-1.3,0.6-2c0.1,1,1.3,2.3,4.4,2.6C38.9,265.7,44.7,262.5,46.5,259.1z"/>
										</g>
										<path class="st21" d="M29.3,265.4c0.6,2.8,5.6,3.2,8.2,2.6c4.9-1.1,8.1-3.8,9.1-5.9c0.4-0.9,0.1-2.4-0.2-3
											c-0.1,0.1-0.2,0.2-0.3,0.4c0,0.6,0.2,1.8,0,2.1c-1.1,2.2-4.2,4.6-9,5.6C34.8,267.7,30.8,267,29.3,265.4z"/>
										<g>
											<path class="st16" d="M45.8,255.2c-0.6,1.3-3.8,2.8-4.4,2.2c-0.8-0.8-2.1-2.3-3-2c-0.4,0.1-1.8,2.9-2.6,2.7
												c-0.6-0.3,1.7-2.6,1.5-2.9c-0.3-0.5-1.4,0.3-2.3,0.6c-0.8,0.6-1.2,1-1.8,1.5c-1.6,1.5-3.4,3.2-3.4,5.5
												c0.2,1.1,1.6,2.3,4.4,2.6c4.7,0.5,10.6-2.7,12.1-5.8c0.4-0.6,0.2-2.8-0.3-4.8C46,254.9,46,254.9,45.8,255.2z"/>
										</g>
										<path class="st22" d="M33.8,264.1c-1.9-0.1-3.1-0.8-3.8-1.5l0,0c0-0.1,0-0.2,0-0.4c0.5,0.4,1.5,0.6,2.6,0.7
											c4.7,0.5,10.6-2.7,12.1-5.8c0.1-0.1,0.2-0.5,0.2-0.9c0.4-0.2,0.7-0.6,0.9-0.9c0.2,1.4,0.2,2.8-0.1,3.2
											C44.2,261.5,38.3,264.8,33.8,264.1z"/>
										<path class="st0" d="M38.9,256.5c0.1,0,0.1-0.1,0-0.2c0,0-1.5-1.5-3.1-0.5c-0.1,0-0.2,0.1-0.1,0.2c0,0.1,0.1,0.1,0.2,0.1
											c1.4-0.9,2.6,0.4,2.8,0.6c-0.1,0,0,0,0,0C38.8,256.7,38.8,256.7,38.9,256.5z"/>
										<path class="st0" d="M38,257.9c0.1-0.1,0.1-0.2,0-0.3c0,0-1.7-1.8-3.2-0.5c-0.1,0.1-0.1,0.2,0,0.3c0,0.1,0.1,0.1,0.2,0
											c1.3-1.2,2.6,0.3,2.8,0.5c-0.1,0,0,0,0,0C37.9,257.9,37.9,257.9,38,257.9z"/>
									</g>
								</g>
								<g>
									<path class="st6" d="M66.6,247.4l0.8,7.5c0,0,1.3,1.7,1.6,2.1c-0.4,0.4-2.2,1.6-3.3,2.6c-1.2-1.3-3.1-3.5-3.1-3.5l-0.8-9.1
										L66.6,247.4z"/>
									<path class="st7" d="M62.6,251.3c0,0,0,0.5,0.3,3.1c1.6-2.2,4.2-0.3,4.2-0.3l-0.4-2.3L62.6,251.3z"/>
									<g>
										<g>
											<path class="st19" d="M78.7,262.7v-0.1c-0.1,0.1-0.1,0.2-0.1,0.3C78.6,262.9,78.6,262.8,78.7,262.7z"/>
										</g>
										<path class="st20" d="M71.2,253c0.8,0.1,1,1.2,1.3,2.1c0.5,1.2,1.9,2.4,2.1,3c0.2,0.6-2.9,1.7-4.4,0.9s-2.7-3.2-3-4
											c-0.2-0.7,0.4-1.3,0.7-1.5C68.3,253.3,70.7,253.1,71.2,253z"/>
										<g>
											<path class="st20" d="M62.1,259.1c-0.4,0.7-0.7,2.2-0.3,3c1.2,2.1,4.3,4.9,9.1,5.9c2.9,0.6,8.3,0.1,8.3-3.3
												c0-0.6-0.3-1.3-0.6-2c-0.1,1-1.3,2.3-4.4,2.6C69.6,265.7,63.8,262.5,62.1,259.1z"/>
										</g>
										<path class="st21" d="M79.1,265.4c-0.6,2.8-5.6,3.2-8.2,2.6c-4.9-1.1-8-3.8-9.1-5.9c-0.3-0.9,0-2.4,0.3-3
											c0.1,0.1,0.2,0.2,0.3,0.4c0,0.6-0.2,1.8,0,2.1c1.1,2.2,4.2,4.6,9,5.6C73.6,267.7,77.7,267,79.1,265.4z"/>
										<g>
											<path class="st16" d="M62.4,254.6c-0.6,2-0.7,4.2-0.3,4.8c1.6,3,7.4,6.2,12.1,5.8c2.9-0.3,4.1-1.6,4.4-2.6
												c0-2.3-1.8-4-3.4-5.5c-0.6-0.5-1-0.8-1.8-1.5c-0.8-0.4-2-1.1-2.3-0.6c-0.2,0.3,2.1,2.7,1.5,2.9c-0.6,0.2-2.1-2.5-2.6-2.7
												c-0.9-0.3-2.2,1.2-3,2c-0.7,0.6-3.8-0.9-4.4-2.2C62.5,254.9,62.5,254.9,62.4,254.6z"/>
										</g>
										<path class="st22" d="M62.8,258.6c-0.3-0.6-0.4-1.8-0.1-3.2c0.2,0.3,0.6,0.7,1,1c0,0.4,0.1,0.6,0.2,0.8
											c1.6,3,7.4,6.2,12.1,5.8c1.1-0.1,1.9-0.4,2.6-0.7c0,0.1,0,0.2,0,0.4c-0.6,0.6-1.8,1.3-3.8,1.5
											C70.1,264.6,64.3,261.4,62.8,258.6z"/>
										<path class="st0" d="M69.6,256.5c-0.1,0-0.1-0.1,0-0.2c0,0,1.5-1.5,3.1-0.5c0.1,0,0.2,0.1,0.1,0.2c0,0.1-0.1,0.1-0.2,0.1
											c-1.4-0.9-2.6,0.4-2.8,0.6c0.1,0,0,0,0,0S69.7,256.7,69.6,256.5z"/>
										<path class="st0" d="M70.7,257.9c-0.2,0-0.2-0.1-0.1-0.3c0,0,1.7-1.8,3.2-0.5c0.1,0.1,0.1,0.2,0,0.3s-0.2,0.1-0.3,0
											C72.2,256.2,70.9,257.7,70.7,257.9L70.7,257.9C70.6,257.9,70.6,257.9,70.7,257.9z"/>
									</g>
								</g>
								<path class="st23" d="M71.2,244.8c-0.2,2-0.3,4.1-0.3,5.1c-0.5,0.5-1.5,0.4-2.1,0.7c-2.4,0.6-6.3,1.3-10.2-0.2
									c-0.1-1.2-0.2-3.2-0.3-5.5C60,245.5,65.2,246.4,71.2,244.8z"/>
								<path class="st23" d="M38.1,250.1c0-1.3,0-2.4-0.3-5.2c1.7,0.6,7.1,1.6,13.3-0.3c0,2-0.3,4.1-0.3,5.6
									C49.5,250.8,43.9,252.3,38.1,250.1z"/>
								<path class="st24" d="M38.2,251.5c7,2.9,13.1-0.3,13.1-0.3s0-1.7,0.3-5.1c-8.3,2.7-14,0.1-14,0.1S37.7,249.7,38.2,251.5z"/>
								<path class="st24" d="M58.3,251.5c7,2.9,13.1-0.3,13.1-0.3s0-1.7,0.3-5.1c-8.3,2.7-14,0.1-14,0.1S57.8,249.7,58.3,251.5z"/>
							</g>
							<g>
								<g>
									<path class="st12" d="M65.6,41.4c0,0-5-0.6-9.6-6.1c-4.5-5.6-9.5-6.2-16.3-6.8s-9.6,2.4-9.7,7.2c-0.1,4.9-3,6.9-4.8,11.2
										c-1.8,4.2,0.1,7.3,0.1,7.3L65.6,41.4z"/>
									<path class="st25" d="M60.5,40.3c0,0-7.1-4.8-15.9-2s-15,8.1-15.6,12.5L60.5,40.3z"/>
									<path class="st26" d="M77.4,44.5c-2.6-3.5-11.8-5.1-17.2-5c-5.5,0.1-21.8,5.2-26.8,8c-4.8,2.8-8.4,5.2-11,8
										C22.4,55.5,80,48,77.4,44.5z"/>
									<path class="st25" d="M78.3,62.3c9.2-21.3-9.2-23.4-24.4-18.7s-39.3,9.7-37.8,23.2c1.6,13.5,12.6,13.2,20.5,15
										C46.4,84,69.2,83.5,78.3,62.3z"/>
									<path class="st27" d="M76,62.9c7.2-16.8-16.8-18.8-28.6-15.1c-11.8,3.6-24.4,10.4-23.2,21c1.3,10.6,5.4,14.3,11.6,15.7
										C43.4,86.3,68.9,79.6,76,62.9z"/>
								</g>
								<g>
									<path class="st28" d="M77.2,66c3.1-1.2,4.9-4.5,1.5-7.9c3.1-1.8,1.1-5.1-1.6-4.8c0.9-2.9-4.1-2.1-5.9-2.1
										C71.2,51.2,74.1,67.3,77.2,66z"/>
								</g>
								<path class="st7" d="M71.5,51.6c-4.9-1.8-9.6-2.4-19.9-0.3c-13.7,2.8-18.8,9.6-21.5,9.7C36.5,48.3,61.6,42.9,71.5,51.6z"/>
								<path class="st6" d="M67.3,97.2c-0.5,0.3-1,0.5-1.5,0.7c-16.5,6.5-30.3-3.2-34.4-13.8c-4-7.7-3.8-14.9-2.5-19.9l0,0l0,0
									c0.3-1.1,0.7-2.1,1-3c7-14.3,37.7-19.5,44.4-6.1C80.8,68.1,83,89.8,67.3,97.2z"/>
								<path class="st7" d="M78.4,79.9C77.1,87,73.9,93.6,66,96.7c-15.9,6.3-29.4-3.1-33.3-13.3c-3.1-7.8-3.8-14.4-2.5-19.3
									C29.3,68.8,29.6,75,33,81.5c2.7,5.1,17.4,19.6,33.4,13.4C73.6,92,76.8,86.2,78.4,79.9z"/>
								<path class="st7" d="M61.4,78.9c4.4-2.7,0.5-5.8-2.6-3.4C61.4,74.7,62.7,77,61.4,78.9z"/>
								<g>
									<g>
										<path class="st7" d="M52.8,75.8c1.4,0,1.6,1.8-1.1,3.2c-2.9,1.5-5.5-0.1-6-1c-0.6-1.3,0.7-1.3,0.7-1.3
											S51.4,75.5,52.8,75.8z"/>
										
											<ellipse transform="matrix(0.9436 -0.3312 0.3312 0.9436 -21.4588 20.3398)" class="st0" cx="49" cy="73.1" rx="4.6" ry="4.9"/>
										<path class="st29" d="M45,74.6c0.8,2.3,3.2,3.6,5.4,2.8s3.3-3.3,2.5-5.6c-0.2-0.6-0.5-1.1-0.9-1.5l0,0
											c0.3,0.3,0.5,0.7,0.7,1.2c0.7,2.1-0.3,4.4-2.3,5.1c-2,0.6-4.2-0.5-5-2.6c-0.8-2.2,0.8-3.6,2.8-4.3
											c1.5-0.5,2.7-0.5,3.6,0.4c-1.2-1.2-2.9-1.6-4.4-1.1C45.3,69.7,44.2,72.2,45,74.6z"/>
										<path class="st30" d="M47.3,71.2c-1.3,0.5-2,1.9-1.5,3.3c0.5,1.3,1.9,2,3.2,1.6c1.3-0.5,2-1.9,1.5-3.3
											S48.6,70.7,47.3,71.2z"/>
										
											<ellipse transform="matrix(0.9438 -0.3305 0.3305 0.9438 -21.6239 20.0184)" class="st31" cx="48.1" cy="73.6" rx="1.5" ry="1.5"/>
										<path class="st0" d="M48.5,71.4c-0.3,0-0.6,0.5-0.4,0.9c0.1,0.4,0.6,0.7,0.9,0.5c0.3,0,0.6-0.5,0.4-0.9
											C49.3,71.4,48.9,71.3,48.5,71.4z"/>
										<path class="st0" d="M47.2,74.9c-0.3,0.1-0.4,0.2-0.3,0.5c0.1,0.2,0.3,0.4,0.5,0.3c0.3-0.1,0.4-0.3,0.3-0.5
											S47.4,74.9,47.2,74.9z"/>
										<path class="st7" d="M51.1,68.6c0,0-3.6-1.9-5.7-0.4c-2.1,1.4-1.5,4.4-1.5,4.4C46.4,68.4,51.1,68.6,51.1,68.6z"/>
										<path class="st32" d="M50.9,68.7c-0.1,0-0.2,0-0.3,0s-0.2,0-0.4,0c-0.2,0-0.4,0-0.6,0c0,0-0.2,0-0.3,0
											c0,0.1-0.2,0.1-0.3,0.1c-0.3,0-0.5,0.1-0.8,0.2c0,0-0.1,0.1-0.3,0.1c0,0.1-0.1,0.1-0.2,0.1l-0.2,0.1
											c0,0.1-0.1,0.1-0.3,0.2c0,0-0.1,0.1-0.3,0.2c0,0-0.2,0.1-0.3,0.2c0,0.1-0.2,0.2-0.3,0.3c-0.2,0.2-0.4,0.3-0.6,0.5
											s-0.3,0.3-0.5,0.5c-0.1,0.1-0.2,0.2-0.3,0.3s-0.1,0.2-0.1,0.2c-0.1,0.1-0.2,0.2-0.3,0.4c0,0-0.1,0.2-0.2,0.3
											c-0.1,0.2-0.2,0.3-0.2,0.3s0.1-0.1,0.3-0.3c0.1,0,0.2-0.2,0.3-0.3c0-0.1,0.1-0.2,0.3-0.4c0.1-0.1,0.2-0.2,0.4-0.4
											c0.1-0.1,0.2-0.2,0.3-0.3c0.1,0,0.1-0.1,0.2-0.1s0.1-0.1,0.2-0.1c0.2-0.1,0.3-0.2,0.6-0.4c0,0,0.3-0.1,0.3-0.2
											s0.3-0.1,0.3-0.2s0.2-0.1,0.3-0.2c0-0.1,0.2-0.1,0.3-0.2c0.3-0.1,0.4-0.2,0.7-0.3c0.3,0,0.4-0.1,0.7-0.2
											c0.2-0.1,0.4-0.2,0.6-0.2C50.2,68.8,50.5,68.7,50.9,68.7c0-0.1,0.2-0.1,0.2-0.1S51.1,68.6,50.9,68.7z"/>
									</g>
								</g>
								<g>
									<g>
										<path class="st7" d="M70.4,72.4c1.2,0.3,1.1,1.9-1.6,2.7c-2.9,0.7-4.9-1.2-5.2-2.1c-0.3-1.3,0.9-1,0.9-1
											S69.3,72,70.4,72.4z"/>
										
											<ellipse transform="matrix(0.9913 -0.1315 0.1315 0.9913 -8.5253 9.4752)" class="st0" cx="67.5" cy="69.3" rx="4.2" ry="4.4"/>
										<path class="st29" d="M63.7,70c0.2,2.2,2.3,3.9,4.4,3.6c2.1-0.3,3.6-2.4,3.3-4.7c-0.1-0.6-0.2-1.1-0.5-1.6
											c0.2,0.4,0.3,0.8,0.4,1.3c0.2,2.2-1.1,4-3.1,4.3c-2,0.3-3.8-1.2-4.1-3.3c-0.4-2.1,1.4-3.1,3.4-3.4c1.4-0.3,2.6,0.1,3.2,1
											c-0.7-1.3-2.3-2.1-3.8-1.9C64.8,65.5,63.2,67.6,63.7,70z"/>
										<path class="st30" d="M66.1,67.7c-1.3,0.1-2.2,1.3-2,2.7c0.2,1.3,1.3,2.3,2.6,2.1c1.3-0.1,2.2-1.4,2-2.7
											C68.5,68.5,67.3,67.6,66.1,67.7z"/>
										
											<ellipse transform="matrix(0.9913 -0.1313 0.1313 0.9913 -8.6252 9.333)" class="st31" cx="66.5" cy="70.1" rx="1.4" ry="1.5"/>
										<path class="st0" d="M67.1,68.2c-0.4,0-0.7,0.4-0.6,0.8c0.1,0.3,0.5,0.7,0.8,0.6c0.4,0,0.7-0.4,0.6-0.8
											C67.8,68.5,67.5,68.1,67.1,68.2z"/>
										<path class="st0" d="M65.3,71.2c-0.2,0-0.3,0.2-0.3,0.4c0.1,0.2,0.2,0.3,0.4,0.3c0.2,0,0.3-0.2,0.3-0.4
											C65.7,71.4,65.5,71.2,65.3,71.2z"/>
										<path class="st7" d="M70.2,65.7c0,0-3-2.4-5.1-1.5C63,65.1,63,67.9,63,67.9C66.1,64.6,70.2,65.7,70.2,65.7z"/>
										<path class="st32" d="M70.3,65.7c-0.2-0.1-0.2-0.1-0.5,0.2c0,0-0.1-0.1-0.3-0.1c-0.2,0-0.3-0.1-0.5-0.1
											c-0.1,0-0.2,0-0.3,0s-0.2,0-0.3,0c-0.3,0-0.4,0-0.7,0c0,0-0.2,0-0.3,0s-0.1,0-0.2,0H67c0,0-0.1,0.1-0.3,0.1
											c0,0-0.2,0.1-0.3,0.1c0,0-0.3,0-0.3,0.1s-0.2,0.1-0.3,0.2c-0.3,0-0.5,0.2-0.7,0.3c-0.3,0-0.4,0.2-0.6,0.3
											c-0.1,0.1-0.2,0.1-0.3,0.2c-0.1,0-0.3,0.2-0.3,0.2s-0.2,0.2-0.3,0.3c-0.1,0.1-0.2,0.2-0.3,0.3c-0.1,0.2-0.2,0.3-0.2,0.3
											s0.1,0,0.3-0.2c0-0.1,0.2-0.2,0.3-0.3c0.1-0.1,0.2-0.2,0.4-0.3c0.2-0.1,0.3-0.2,0.5-0.3c0.1-0.1,0.2-0.1,0.3-0.2
											c0.1,0,0.1-0.1,0.2-0.1c0.1,0,0.1-0.1,0.2-0.1c0.2-0.1,0.3-0.2,0.6-0.3l0.3-0.1l0.3-0.1l0.3-0.1c0,0,0.2-0.1,0.3-0.1
											c0.3,0,0.4-0.1,0.7-0.1c0.3,0,0.5-0.1,0.7-0.1c0.2,0,0.4,0,0.6,0c0.4,0,0.6,0,0.9,0C70.2,65.7,70.3,65.7,70.3,65.7
											S70.2,65.7,70.3,65.7z"/>
									</g>
								</g>
								<g>
									<path class="st6" d="M34,82c-0.3,3.3-4.9,4.3-8.4,1.5c-3.4-2.7-3.9-8.8,0.2-9.7c3.9-0.8,5.7,2.6,5.7,2.6L34,82z"/>
									<path class="st7" d="M26.1,83.2c3.3,2.5,7.6,1.6,7.9-1.5c-1.2,2.6-4.9,3.3-7.8,0.3c-2-2.2-3-6.8,0.8-7.8
										c0.7-0.2,1.3-0.2,1.9,0c-0.7-0.3-1.6-0.4-2.6-0.1C22.4,74.9,23,80.6,26.1,83.2z"/>
									<path class="st33" d="M28.1,77.5c-1.6,0.4-1.9,1.4-1.5,2.6c1.2-2.4,3-1.7,2.9,2.6c2.5-3.9-1.5-8.5-3.9-7
										C25.6,75.7,27.5,76,28.1,77.5z"/>
								</g>
								<g>
									<path class="st34" d="M61.2,89.8c3.6-0.3,5.1-2,6.2-5.3c-6.2,0.6-10.9,1.2-10.9,1.2C56.2,87.3,58.3,90.1,61.2,89.8z"/>
									<path class="st35" d="M56.6,85.7c0,0,1.5-0.1,3.9-0.4c0.3,0.2,0.6,0.5,0.9,0.8c1.1,0.9,1.6,2.2,1.7,3.4
										c-0.6,0.1-1.2,0.2-2,0.3C58.3,90.1,56.2,87.3,56.6,85.7z"/>
									<path class="st0" d="M58.1,85.5c1.6-0.2,4.5-0.6,7.9-0.9c-1,1.2-2.5,1.9-4.7,2.1C60.1,86.8,58.9,86.3,58.1,85.5z"/>
								</g>
								<g>
									<path class="st7" d="M39.8,71.9c-0.1-0.1-0.2-0.2-0.2-0.3v-0.1c-0.1-0.1-0.1-0.2-0.1-0.3s0-0.1,0-0.2c0,0,0-0.1,0-0.2
										c0-0.1,0-0.2,0-0.3v-0.1c0-0.3,0.1-0.8,0.2-1.2l0,0c0.1-0.1,0.1-0.2,0.2-0.4l0,0l0,0c0.6-2,2-4.2,4.1-5.5
										c1.2-0.8,3-0.1,3.9,0.7l0,0l0,0c0.1,0.1,0.1,0.1,0.2,0.2l0,0c0.1,0.1,0.2,0.1,0.2,0.2s0,0.1,0,0.1l0.1,0.1
										c0.1,0.1,0.1,0.1,0.1,0.2C48.8,65.6,42.5,67.5,39.8,71.9z"/>
									<path class="st36" d="M40.2,70.7c2.4-4.2,8.4-5.9,8.2-6.8c-0.2-0.8-2.8-2.2-4.3-1.3C40.9,64.6,39.2,69.3,40.2,70.7z"/>
									<path class="st37" d="M40.6,69.6c-0.2-0.5-0.2-1.4,0.1-2.4c0,0.3,0.1,0.6,0.3,0.9c2.3-2.8,6.3-3.8,6.1-4.5
										c0-0.1,0-0.1,0-0.1c0.1,0.2,0.3,0.3,0.3,0.5C47.5,64.7,42.6,66.2,40.6,69.6z"/>
								</g>
								<g>
									<path class="st7" d="M73.6,64.6c0-0.1,0-0.2,0-0.3v-0.1c0,0-0.1-0.1-0.1-0.2c0-0.1-0.1-0.1-0.1-0.2c0-0.1-0.1-0.1-0.1-0.2
										c0-0.1-0.1-0.1-0.1-0.2c-0.1,0-0.1-0.1-0.1-0.1c-0.2-0.3-0.4-0.6-0.7-0.9l0,0c0-0.1-0.2-0.2-0.3-0.3l0,0l0,0
										c-1.4-1.3-3.6-2.4-5.8-2.4c-1.3-0.1-2.5,1.4-2.8,2.4l0,0l0,0c-0.1,0.1-0.1,0.2-0.1,0.3l0,0c0,0.1,0,0.1,0,0.2s0,0.1,0,0.1
										c0,0.1,0,0.2,0,0.2c0,0.1,0,0.1,0,0.2C63.6,63.8,69.4,62.4,73.6,64.6z"/>
									<path class="st36" d="M72.9,63.9c-3.9-2.1-9.4-0.7-9.7-1.5s1.1-3.1,2.7-3.1C69.4,59.4,72.9,62.2,72.9,63.9z"/>
									<path class="st37" d="M72.1,63.4c0-0.5-0.5-1.3-1.3-2c0.2,0.3,0.3,0.6,0.3,0.9c-3.3-1.2-7-0.1-7.3-0.8c0-0.1,0-0.1,0-0.1
										c-0.1,0.3-0.2,0.4-0.1,0.6C63.9,62.6,68.8,61.4,72.1,63.4z"/>
								</g>
								<path class="st36" d="M33,71.9c0.3,3.2-0.5,4.7-2.1,5.3c-1.6-0.7-2.6-1.7-3.2-2.9c0-0.1-0.2-0.2-0.3-0.3
									c-2,0.6-2.9-0.4-2.3-1.3c-4.3,0.4-4.2-5-0.3-6.5c-5.9-1.4-2.5-8.9,3.2-7.3c-2.3-1.5,0.1-5.4,4.2-4.7
									c1.6-3.1,3.9-1.7,4.4-0.8c0.1,0.1,0.1,0.2,0.1,0.4C38.5,56.3,41.1,68.1,33,71.9z"/>
								<path class="st28" d="M32.5,71.2c0.1,3-0.5,4.2-2,4.8c-1.4-0.5-2.3-1.5-2.9-2.6c0-0.1-0.2-0.2-0.3-0.3
									c-1.8,0.6-2.7-0.3-2.1-1.1c-3.3,0.2-3.8-2.9-2-4.9c0.1,0.5,0.9,0.8,2.2,0.4c0.1,0.1,0.2,0.2,0.3,0.3c0.5,1.1,1.4,2,2.9,2.6
									c1.6-0.5,2.3-1.8,2-4.8c4.7-2.2,5.4-7.4,4.9-11.4c0.1,0.1,0.1,0.2,0.2,0.3c0.1,0,0.1,0.1,0.1,0.3
									C37.4,57.1,39.7,67.9,32.5,71.2z"/>
								<path class="st7" d="M67.6,51.3c-11.3-3.3-21-0.1-28.1,4.4C39.5,55.7,54.2,48.1,67.6,51.3z"/>
								<path class="st7" d="M66.6,57.8C58.3,55.3,51,57.7,45.7,61C45.7,61,56.6,55.4,66.6,57.8z"/>
								<path class="st7" d="M68.3,54.1c-9.1-2.7-16.9-0.1-22.6,3.5C45.7,57.6,57.5,51.6,68.3,54.1z"/>
								<g>
									<path class="st36" d="M64.3,79.8c3.2,0.2,4.5,1.1,4.9,4.4c-1.4,0.5-11.8,1.7-15,2c-0.1-3.9,2.7-5.7,5.7-6.2
										C60.7,79.9,62.9,79.6,64.3,79.8z"/>
								</g>
								<path class="st38" d="M39,73.2c-0.3,0.2-1-0.1-1.3-0.7c-0.3-0.7,0.5-0.8,1.2-0.5C39.3,72.1,39.2,72.9,39,73.2z"/>
								<path class="st38" d="M42,56.5c0.3,0.4-0.4,1.5-1.3,1.8c-0.9,0.2-1.2-1.1-0.5-2C40.7,55.7,41.7,55.9,42,56.5z"/>
								<path class="st38" d="M45.8,51.7c0.1,0.2-0.1,0.5-0.4,0.6c-0.4,0.1-0.5-0.4-0.2-0.7C45.4,51.4,45.7,51.5,45.8,51.7z"/>
								<path class="st38" d="M44.5,56.1c-0.1,0.3-0.7,0.5-1.1,0.2c-0.4-0.2-0.1-0.8,0.5-0.9C44.2,55.3,44.6,55.8,44.5,56.1z"/>
								<path class="st38" d="M56.9,48.9c-0.1,0.3-0.7,0.5-1.1,0.2c-0.4-0.2-0.1-0.8,0.5-0.9C56.6,48.1,56.9,48.5,56.9,48.9z"/>
								<path class="st38" d="M40.7,60.9c0,0.2-0.4,0.5-0.7,0.5c-0.4,0-0.3-0.5,0-0.8C40.2,60.4,40.6,60.6,40.7,60.9z"/>
								<path class="st38" d="M60.3,62.3c0,0.2-0.4,0.5-0.7,0.5c-0.4,0-0.3-0.5,0-0.8C59.8,61.9,60.1,62.1,60.3,62.3z"/>
								<path class="st38" d="M76.2,71.3c0,0.2-0.4,0.5-0.7,0.5c-0.4,0-0.3-0.5,0-0.8C75.8,70.8,76.1,71,76.2,71.3z"/>
								<path class="st38" d="M39.5,67.6c-0.1,0.1-0.7,0-1-0.3c-0.2-0.4,0.3-0.7,0.8-0.6C39.6,66.7,39.6,67.5,39.5,67.6z"/>
								<path class="st38" d="M40.8,73.9c-0.2-0.1-0.3-0.5,0-0.8c0.2-0.3,0.5,0,0.5,0.4C41.3,73.8,40.9,73.9,40.8,73.9z"/>
								<path class="st26" d="M45.8,35.6c4.6-1.1,8.8,1.8,9.7,1s-3.4-4.3-5.3-5.2c-2-0.9-5.4,0-9.5-1.5s-6.7,1.3-6.8,3.9
									C33.7,39,41.3,36.7,45.8,35.6z"/>
								<path class="st39" d="M40.3,47c5.7-1.9,19-5.4,21.6-6c2.7-0.6,2.4-0.8-0.3-0.8s-13,2.6-16.3,3.8
									C40.4,45.8,34.6,48.8,40.3,47z"/>
							</g>
						</g>
					</g>
				</g>
			</g>
		</g>
	</g>
</g>
<g>
	<path class="st40" d="M116.5,68.3c0,1.6-0.2,3-0.6,4.2c-0.6-0.6-1.7-0.9-3.3-0.9c-1.4,0-2.8,0.4-4.3,1.1c-1.7,0.9-2.5,1.9-2.5,3.1
		c0,1.1,0.8,1.8,2.4,2.2c1.6,0.4,3.2,0.7,4.8,1.1c1.7,0.6,2.5,1.6,2.5,2.9c0,2.8-2.6,5.2-7.7,7.2c-4.1,1.6-7.9,2.4-11.5,2.4
		c-2.6,0-4.7-0.5-6.3-1.6c-1.8-1.2-2.8-3-2.8-5.4c0-3.2,1.6-7,4.8-11.5l0.6,0.4c-0.6,1-1.2,2-1.8,3c-0.6,1.2-0.9,2.3-0.9,3.4
		c0,2.3,1.3,4.1,3.9,5.2c1.9,0.9,4.3,1.3,7.1,1.3c1.6,0,3.8-0.3,6.6-0.9c3.4-0.7,5.1-1.5,5.1-2.4c0-0.3-0.3-0.4-0.8-0.5
		c-2-0.1-4-0.2-6-0.3c-2.5-0.3-3.8-1.5-3.8-3.5c0-1.5,1.1-3.7,3.3-6.5c2.1-2.5,3.9-4.3,5.5-5.3c1-0.6,2.1-0.9,3.3-0.9
		C115.7,66.1,116.5,66.9,116.5,68.3z M105.5,96.3l-2.2,3.4l-3.3-2.2l-1.7,2.9l-3.6-2.6l2.2-3.4l3.2,2.4l2-3.1L105.5,96.3z"/>
	<path class="st40" d="M142.9,85.5h-3.6c-2.8,0-4.8-2-5.9-5.9c-1.8,3.6-4.7,5.4-8.5,5.4c-3,0-4.5-1-4.5-2.9c0-0.5,0.6-2.5,1.7-6
		l0.7,0.1c0.5,1.8,2.1,2.8,4.7,2.8c1.6,0,2.7-0.1,3.3-0.3c1.2-0.4,1.7-1.2,1.7-2.4c0-1.1-0.2-2.9-0.7-5.3c-0.5-2.5-0.7-4.3-0.7-5.6
		c0-0.4,0.4-1,1.2-1.8c0.6-0.5,1.2-1.1,1.8-1.6c0,2.1,0.1,3.8,0.4,5.2c0.7,3.4,1.1,5.5,1.2,6.3c0.7,2.9,1.2,4.7,1.7,5.4
		c0.5,0.7,1.1,1,1.9,1h3.6L142.9,85.5L142.9,85.5z"/>
	<path class="st40" d="M166.2,72.5l-0.6,4.5c-0.8,0.1-1.8,0.2-3.2,0.2c-2.7,0-5.3,0.5-7.6,1.6c-1.2,0.5-2.7,1.6-4.7,3.1
		s-3.5,2.5-4.6,3.1c-0.8,0.4-2.2,0.6-4.3,0.6v-5.7c2.5,0,4.6-0.2,6.2-0.7c1.3-0.4,3.3-1.2,5.7-2.4c-2.2-1.1-3.9-1.7-5.1-1.7
		c-0.8,0-1.4,0.3-1.8,1h-3.6c0.5-2.1,1.1-3.6,1.7-4.6c1-1.4,2.4-2.1,4.3-2.1c1.2,0,2.8,0.4,5.1,1.2c3.6,1.3,6.8,2,9.5,2
		c0.3,0,0.8,0,1.5-0.1S165.8,72.5,166.2,72.5z M158,87.8l-2.1,3.5l-3.5-2.6l2.2-3.4L158,87.8z"/>
</g>
<g>
	<path class="st41" d="M99,109.5c-2.6,2.5-3.9,4.9-3.9,7.5c0,2.5,1.3,5.1,3.8,7.6l-0.1,0.2c-1.6-0.9-2.9-2-3.8-3.3
		c-1-1.4-1.5-2.9-1.5-4.5c0-1.5,0.5-3,1.4-4.3c0.8-1.2,2.1-2.3,3.9-3.3L99,109.5z"/>
	<path class="st41" d="M112.6,122h-2.7c-1.1,0-1.7,0.1-1.7,0.4c0,0.2,0.3,0.3,0.9,0.5c0.9,0.3,1.5,0.5,1.8,0.7
		c0.6,0.4,0.9,0.9,0.9,1.5c0,1-0.9,1.9-2.8,2.5c-1.5,0.5-2.9,0.8-4.2,0.8c-1.2,0-2.3-0.3-3.3-1c-1-0.8-1.6-1.7-1.6-2.8
		c0-0.8,0.1-1.6,0.4-2.3c0.2-0.4,0.5-1.2,1-2.2l0.3,0.1c-0.4,1-0.7,1.8-0.7,2.4c0,2.3,1.9,3.4,5.7,3.4c0.6,0,1.3-0.1,2.2-0.2
		c1.2-0.2,1.7-0.4,1.7-0.7c0-0.2-0.3-0.3-0.8-0.3c-2.2,0-3.3-0.5-3.3-1.6c0-1.1,0.4-2,1.1-2.7c0.7-0.8,1.7-1.2,2.8-1.2h2.1V122z
		 M108.2,129.8l-1,1.5l-1.5-1l-0.8,1.3l-1.7-1.2l1-1.5l1.4,1.1l0.9-1.4L108.2,129.8z"/>
	<path class="st41" d="M118.8,118.9c0,0.5-0.1,1-0.4,1.5c-0.3,0.5-0.7,0.8-1.2,0.8c-0.5,0-1.5-0.3-2.8-1c-0.1,0.3-0.3,0.7-0.7,1.1
		c-0.4,0.5-0.7,0.7-1,0.7h-0.9v-2.6c0.8,0,1.3,0,1.5-0.2c0.4-0.1,0.7-0.5,1-1.1c0.3-0.6,0.5-1.2,0.7-1.8c0.4-0.8,1-1.2,1.6-1.2
		c0.7,0,1.2,0.5,1.7,1.5C118.6,117.4,118.8,118.2,118.8,118.9z M117.3,118.4c0-0.3-0.1-0.6-0.4-0.8c-0.3-0.2-0.6-0.3-0.9-0.3
		c-0.4,0-0.7,0.2-0.9,0.7c0.9,0.5,1.5,0.8,1.9,0.8C117.2,118.8,117.3,118.7,117.3,118.4z"/>
	<path class="st41" d="M124.2,107.3c-0.1,0.3-0.2,0.6-0.3,0.7c-0.1,0.1-0.3,0.2-0.7,0.3l-3.3,1c0.3-0.6,0.7-0.9,1.3-1.1
		c-0.6-0.4-0.9-0.7-0.9-1c0-0.4,0.3-0.8,0.9-1.4c0.6-0.5,1.1-0.8,1.5-0.8c0.5,0,0.7,0.2,0.7,0.7c0,0.2-0.1,0.5-0.3,1
		c-0.5-0.3-0.8-0.5-1.1-0.5c-0.3,0-0.6,0.2-0.9,0.5c0.8,0.6,1.5,0.9,1.9,0.9C123.4,107.5,123.8,107.5,124.2,107.3z"/>
	<path class="st41" d="M122.8,118.7c0,0.9-0.2,1.8-0.6,2.8h-0.4c0-1.4-0.2-2.9-0.5-4.6c-0.5-2.6-0.7-4.3-0.7-5
		c0-0.4,0.2-0.9,0.5-1.3c0.1-0.2,0.4-0.5,0.9-1.1c0,1,0.1,2.5,0.4,4.6C122.7,116.2,122.8,117.8,122.8,118.7z"/>
	<path class="st41" d="M139.1,122h-1.6c-1.3,0-2.2-0.9-2.7-2.7c-0.8,1.6-2.1,2.5-3.9,2.5c-1.4,0-2-0.4-2-1.3c0-0.3,0.3-1.2,0.8-2.7
		l0.3,0.1c0.2,0.8,1,1.3,2.1,1.3c0.7,0,1.2-0.1,1.5-0.2c0.5-0.2,0.8-0.5,0.8-1.1c0-0.5-0.1-1.3-0.3-2.4c-0.2-1.1-0.3-2-0.3-2.5
		c0-0.2,0.2-0.5,0.5-0.8c0.3-0.3,0.6-0.5,0.8-0.8c0,1,0.1,1.8,0.2,2.3c0.3,1.6,0.5,2.5,0.6,2.8c0.3,1.3,0.6,2.1,0.8,2.4
		c0.2,0.3,0.5,0.5,0.9,0.5h1.6V122z"/>
	<path class="st41" d="M141,111.4v0.2c0,0.8,0.1,1.9,0.4,3.4c0.3,1.5,0.4,2.6,0.4,3.4c0,0.9-0.2,1.8-0.6,2.4
		c-0.5,0.8-1.2,1.3-2.1,1.3h-0.9v-2.6c0.9,0,1.4,0,1.5-0.1c0.5-0.1,0.7-0.5,0.7-1.1c0-0.9-0.2-2.2-0.6-4.1c-0.4-2-0.6-3.4-0.7-4.2
		c-0.1-0.1-0.2-0.2-0.3-0.4c0.3-1,0.7-1.6,1.2-1.9c0,0.6,0.3,1.1,0.7,1.5s1,0.6,1.6,0.5l-1.1,1.9L141,111.4z"/>
	<path class="st41" d="M146.6,118.7c0,0.9-0.2,1.8-0.6,2.8h-0.4c0-1.4-0.2-2.9-0.5-4.6c-0.5-2.6-0.7-4.3-0.7-5
		c0-0.4,0.2-0.9,0.5-1.3c0.1-0.2,0.4-0.5,0.9-1.1c0,1,0.1,2.5,0.4,4.6C146.5,116.2,146.6,117.8,146.6,118.7z"/>
	<path class="st41" d="M156.5,119.6c0,1.8-0.4,3.4-1.1,5c-0.9,2-2.2,2.9-3.8,2.9c-0.9,0-2.1-0.3-3.7-1l0.2-0.3
		c0.5,0.1,0.9,0.2,1.1,0.2c1,0,2.1-0.5,3.3-1.4c1.1-0.8,1.9-1.7,2.4-2.7c0.4-0.7,0.6-1.5,0.6-2.4c-0.5,0.7-1,1.1-1.5,1.1
		c-0.5,0-0.8-0.2-1.1-0.6c-0.2-0.3-0.3-0.7-0.3-1.2c0-0.8,0.2-1.6,0.5-2.4c0.4-1,0.9-1.5,1.6-1.5c0.6,0,1.1,0.6,1.4,1.8
		C156.4,117.9,156.5,118.8,156.5,119.6z M155,118.6c-0.2-0.7-0.5-1-1-1c-0.4,0-0.6,0.2-0.6,0.6c0,0.2,0.1,0.4,0.3,0.5
		s0.4,0.2,0.6,0.2C154.5,118.8,154.8,118.7,155,118.6z"/>
	<path class="st41" d="M158.7,124.6c2.6-2.5,3.9-4.9,3.9-7.5c0-2.5-1.3-5.1-3.8-7.6l0.1-0.2c1.6,0.9,2.9,2,3.8,3.3
		c1,1.4,1.5,2.9,1.5,4.6c0,1.5-0.5,2.9-1.4,4.3c-0.8,1.2-2.1,2.3-3.9,3.3L158.7,124.6z"/>
</g>
</svg>
