<?xml version="1.0" encoding="iso-8859-1"?>
<!-- Generator: Adobe Illustrator 16.0.0, SVG Export Plug-In . SVG Version: 6.00 Build 0)  -->
<!DOCTYPE svg PUBLIC "-//W3C//DTD SVG 1.1//EN" "http://www.w3.org/Graphics/SVG/1.1/DTD/svg11.dtd">
<svg xmlns="http://www.w3.org/2000/svg" xmlns:xlink="http://www.w3.org/1999/xlink" version="1.1" id="Capa_1" x="0px" y="0px" width="512px" height="512px" viewBox="0 0 29.928 29.928" style="enable-background:new 0 0 29.928 29.928;" xml:space="preserve">
<g>
	<g>
		<path d="M26.247,19.087h-2.592c0.163-0.668,0.176-1.411-0.057-2.217c-0.512-2.418-2.147-4.158-2.147-4.158l-3.474-0.646    c0,0-0.647,1.992-2.432,2.096c-1.786,0.103-2.462-2.096-2.462-2.096l-3.881,0.645c0,0-1.131,1.174-1.749,3.028    c-0.414,1.062-0.157,2.204,0.467,3.347h-4.24L1.116,29.928h27.695L26.247,19.087z M20.962,15.616    c0.371,0.507,0.719,1.202,0.891,1.97c0.104,0.462-0.051,1.012-0.295,1.502H21.2v-2.439V16.58v-0.139l-0.355,0.031L20.962,15.616z     M15.97,17.412v-0.053l4.765-0.411v8.04L15.97,25.4V17.412z M10.594,16.948l4.384,0.377l0.381,0.032V25.4l-4.766-0.412    L10.594,16.948L10.594,16.948z M9.412,16.598c0.249-0.412,0.665-0.943,0.876-1.205l0.099,1.072l-0.258-0.021v0.082v2.469    C9.884,18.544,9.123,17.074,9.412,16.598z M4.701,20.376h4.07c0.406,0.531,0.868,1.056,1.358,1.565v3.472l5.23,0.452l0.304,0.025    l0.305-0.025l5.23-0.452v-3.202c0.643-0.35,1.389-0.98,1.915-1.835h2.114l1.955,8.263H2.746L4.701,20.376z" fill="#626161"/>
		<path d="M11.11,5.24c-0.058,0.195-0.119,0.388-0.154,0.592c-0.041,0.254-0.064,0.517-0.064,0.782c0,2.619,2.121,4.739,4.74,4.739    c2.616,0,4.738-2.12,4.738-4.739c0-0.523-0.105-1.018-0.262-1.489l0.962-1.329l-1.724-0.605l0.336-1.764L17.578,2.03L16.609,0    l-1.798,1.875l-1.393-1.614l-0.655,2.132L10.527,1.66l0.842,1.885L9.742,4.001L11.11,5.24z" fill="#626161"/>
	</g>
</g>
<g>
</g>
<g>
</g>
<g>
</g>
<g>
</g>
<g>
</g>
<g>
</g>
<g>
</g>
<g>
</g>
<g>
</g>
<g>
</g>
<g>
</g>
<g>
</g>
<g>
</g>
<g>
</g>
<g>
</g>
</svg>
