<?xml version="1.0" encoding="utf-8"?>
<!-- Generator: Adobe Illustrator 16.0.0, SVG Export Plug-In . SVG Version: 6.00 Build 0)  -->
<!DOCTYPE svg PUBLIC "-//W3C//DTD SVG 1.1//EN" "http://www.w3.org/Graphics/SVG/1.1/DTD/svg11.dtd">
<svg version="1.1" id="Layer_1" xmlns="http://www.w3.org/2000/svg" xmlns:xlink="http://www.w3.org/1999/xlink" x="0px" y="0px"
	 width="11628.002px" height="3390.562px" viewBox="-1696 -79.5 11628.002 3390.562"
	 enable-background="new -1696 -79.5 11628.002 3390.562" xml:space="preserve">
<g id="element_x5F_checkmark_x5F_unchecked_1_">
	<g id="element_x5F_checkmark_x5F_unchecked_3_">
		<g>
			<g>
				<g opacity="0.2">
					<rect x="-1544.237" y="34.909" width="11405.757" height="3276.152"/>
				</g>
				<g>
					<rect x="-1544.237" y="0" fill="#CF883C" width="11405.757" height="3276.152"/>
				</g>
			</g>
			<polygon fill="#FCC38B" points="-1543.574,0 -1509.327,34.909 -1509.327,3241.243 9827.275,3241.243 9827.275,34.909 9862.186,0 
							"/>
			<g>
				<polygon fill="#A56226" points="-1543.574,3276.154 -1509.327,3241.243 9827.275,3241.243 9862.186,3276.154 				"/>
				<rect x="-1491.873" y="52.364" fill="#E7A149" width="11301.693" height="3171.426"/>
				<g>
					<rect x="-1421.496" y="122.182" fill="#874F21" width="11161.604" height="3031.789"/>
					<rect x="-1420.223" y="124.503" fill="#885021" width="11159.037" height="3029.223"/>
					<rect x="-1418.93" y="126.807" fill="#895021" width="11156.488" height="3026.658"/>
					<rect x="-1417.656" y="129.112" fill="#8A5121" width="11153.924" height="3024.092"/>
					<rect x="-1416.365" y="131.415" fill="#8B5122" width="11151.357" height="3021.525"/>
					<rect x="-1415.092" y="133.737" fill="#8B5222" width="11148.793" height="3018.961"/>
					<rect x="-1413.799" y="136.04" fill="#8C5222" width="11146.225" height="3016.395"/>
					<rect x="-1412.525" y="138.363" fill="#8D5322" width="11143.66" height="3013.829"/>
					<rect x="-1411.232" y="140.666" fill="#8E5322" width="11141.096" height="3011.262"/>
					<rect x="-1409.959" y="142.97" fill="#8F5422" width="11138.527" height="3008.68"/>
					<rect x="-1408.684" y="145.291" fill="#905522" width="11135.963" height="3006.113"/>
					<rect x="-1407.393" y="147.596" fill="#915523" width="11133.396" height="3003.547"/>
					<rect x="-1406.119" y="149.9" fill="#925623" width="11130.83" height="3000.981"/>
					<rect x="-1404.827" y="152.221" fill="#925623" width="11128.265" height="2998.416"/>
					<rect x="-1403.553" y="154.525" fill="#935723" width="11125.699" height="2995.851"/>
					<rect x="-1402.262" y="156.847" fill="#945723" width="11123.152" height="2993.284"/>
					<rect x="-1400.987" y="159.151" fill="#955823" width="11120.585" height="2990.719"/>
					<rect x="-1399.696" y="161.454" fill="#965924" width="11118.022" height="2988.152"/>
					<rect x="-1398.422" y="163.776" fill="#975924" width="11115.453" height="2985.588"/>
					<rect x="-1397.131" y="166.08" fill="#985A24" width="11112.889" height="2983.021"/>
					<rect x="-1395.855" y="168.384" fill="#995A24" width="11110.32" height="2980.456"/>
					<rect x="-1394.564" y="170.688" fill="#9A5B24" width="11107.756" height="2977.891"/>
					<rect x="-1393.29" y="173.009" fill="#9A5B24" width="11105.188" height="2975.323"/>
					<rect x="-1392.016" y="175.314" fill="#9B5C24" width="11102.625" height="2972.758"/>
					<rect x="-1390.725" y="177.635" fill="#9C5C25" width="11100.061" height="2970.191"/>
					<rect x="-1389.449" y="179.939" fill="#9D5D25" width="11097.492" height="2967.627"/>
					<rect x="-1388.158" y="182.242" fill="#9E5E25" width="11094.928" height="2965.042"/>
					<rect x="-1386.885" y="184.565" fill="#9F5E25" width="11092.361" height="2962.479"/>
					<rect x="-1385.592" y="186.868" fill="#A05F25" width="11089.813" height="2959.911"/>
					<rect x="-1384.318" y="189.172" fill="#A15F25" width="11087.248" height="2957.345"/>
					<rect x="-1383.025" y="191.493" fill="#A16025" width="11084.682" height="2954.779"/>
					<rect x="-1381.752" y="193.798" fill="#A26026" width="11082.115" height="2952.213"/>
					<rect x="-1380.461" y="196.119" fill="#A36126" width="11079.551" height="2949.646"/>
					<rect x="-1379.186" y="198.423" fill="#A46126" width="11076.982" height="2947.083"/>
					<rect x="-1377.895" y="200.727" fill="#A56226" width="11074.418" height="2944.518"/>
				</g>
			</g>
		</g>
		<path fill="none" d="M9911.021,158.645l-83.643-86.75c-17.385-18.03-38.941-24.593-50.652-15.43L531.916,275.817
			c-26.077,25.274-68.354,23.269-91.863-4.361l-94.011-110.522c-12.689-12.146-1696.237-4.591-1717.042,16.39l-84.882,85.563
			c-17.629,17.769-23.581,39.342-13.964,50.636L421.813,3148.332c10.753,12.639,36.97,7.994,58.387-10.332L9925.58,220.8
			C9938.254,208.634,9931.531,179.921,9911.021,158.645z"/>
	</g>
</g>
<g id="nyt_x5F_exporter_x5F_info" display="none">
</g>
</svg>
