<?xml version="1.0" encoding="utf-8"?>
<!-- Generator: Adobe Illustrator 15.0.0, SVG Export Plug-In . SVG Version: 6.00 Build 0)  -->
<!DOCTYPE svg PUBLIC "-//W3C//DTD SVG 1.1//EN" "http://www.w3.org/Graphics/SVG/1.1/DTD/svg11.dtd">
<svg version="1.1" id="Layer_1" xmlns="http://www.w3.org/2000/svg" xmlns:xlink="http://www.w3.org/1999/xlink" x="0px" y="0px"
	 width="901.566px" height="761.322px" viewBox="61.217 0 901.566 761.322" enable-background="new 61.217 0 901.566 761.322"
	 xml:space="preserve">
<pattern  x="206.5" y="780.5" width="525.914" height="450.783" patternUnits="userSpaceOnUse" id="SVGID_5_" viewBox="0 -450.783 525.914 450.783" overflow="visible">
	<g>
		<polygon fill="none" points="0,0 525.914,0 525.914,-450.783 0,-450.783 		"/>
		<g>
			<polygon fill="none" points="0,-450.783 525.914,-450.783 525.914,0 0,0 			"/>
			<g>
				<polygon fill="none" points="0,-450.783 525.914,-450.783 525.914,0 0,0 				"/>
				<g>
					<polygon opacity="0.2" fill="#E7A149" enable-background="new    " points="0,-171.291 0,-225.471 525.914,-225.471 
						525.914,-171.291 					"/>
					<polygon opacity="0.15" fill="#E7A149" enable-background="new    " points="0,-114.812 0,-168.992 525.914,-168.992 
						525.914,-114.812 					"/>
					<polygon opacity="0.1" fill="#E7A149" enable-background="new    " points="0,-58.754 0,-112.936 525.914,-112.936 
						525.914,-58.754 					"/>
					<polygon opacity="0.15" fill="#E7A149" enable-background="new    " points="0,-2.274 0,-56.455 525.914,-56.455 
						525.914,-2.274 					"/>
					<polygon opacity="0.2" fill="#E7A149" enable-background="new    " points="0,-396.602 0,-450.783 525.914,-450.783 
						525.914,-396.602 					"/>
					<polygon opacity="0.15" fill="#E7A149" enable-background="new    " points="0,-340.123 0,-394.303 525.914,-394.303 
						525.914,-340.123 					"/>
					<polygon opacity="0.1" fill="#E7A149" enable-background="new    " points="0,-284.065 0,-338.246 525.914,-338.246 
						525.914,-284.065 					"/>
					<polygon opacity="0.15" fill="#E7A149" enable-background="new    " points="0,-227.585 0,-281.766 525.914,-281.766 
						525.914,-227.585 					"/>
				</g>
			</g>
		</g>
	</g>
</pattern>
<g id="window_x5F_panel_x5F_store">
	<g id="Window_Panel_1_4_">
		<g>
			<g>
				<g>
					<g opacity="0.2">
						<path d="M961.385,266.668c0,0,0-54.571,0-116.716c0-66.299,0-143.275,0-143.275s-77.33,0-179.307,0
							c-167.374,0-372.409,0-540.152,0C139.256,6.678,61.217,6.678,61.217,6.678s0,77.61,0,143.275c0,59.674,0,111.389,0,111.389
							h5.037v107.526l-2.549,2.781V484.19l2.549,2.23c0,0,0,72.451,0,147.707c0,65.615,0,133.872,0,133.872s75.605,0,175.672,0
							c166.904,0,372.412,0,540.152,0c101.609,0,178.788,0,178.788,0s0-68.259,0-133.872c0-75.256,0-147.707,0-147.707l1.917-4.709
							v-112.54l-3.479-1.683l-1.085-100.82L961.385,266.668L961.385,266.668z"/>
					</g>
					<g>
						<path fill="#CF883C" d="M961.385,258.392c0,0,0-49.807,0-108.438c0-67.688,0-149.953,0-149.953s-77.33,0-179.307,0
							c-167.374,0-372.409,0-540.152,0C139.256,0,61.217,0,61.217,0s0,82.997,0,149.953c0,56.1,0,103.112,0,103.112h5.037v107.526
							l-2.549,2.782v112.54l2.549,2.232c0,0,0,77.854,0,155.981c0,63.485,0,127.194,0,127.194s75.605,0,175.672,0
							c166.904,0,372.412,0,540.152,0c101.609,0,178.788,0,178.788,0s0-63.709,0-127.194c0-78.127,0-155.981,0-155.981l1.917-4.71
							V360.895l-3.479-1.684l-1.085-100.819H961.385L961.385,258.392L961.385,258.392z"/>
					</g>
				</g>
				<path fill="#FCC38B" d="M954.437,249.652c0,0,0-45.692,0-99.699c0-62.965,0-139.937,0-139.937s-74.094,0-172.357,0
					c-166.737,0-372.952,0-540.152,0c-99.094,0.002-174.029,0.002-174.029,0.002s0,76.97,0,139.936c0,54.008,0,99.7,0,99.7h5.01
					v109.663h-5.01v109.665h5.01c0,0,0,84.381,0,165.147c0,59.817,0,117.177,0,117.177s72.514,0,169.02,0
					c166.271,0,372.94,0,540.152,0c98.167,0,172.357,0,172.357,0s0-57.358,0-117.177c0-80.768,0-165.147,0-165.147h5.009V359.317
					h-8.348V249.654h3.339V249.652L954.437,249.652z"/>
				<path fill="#E7A149" d="M951.098,8.668c0,0-72.546,0.152-169.02,0.353C615.651,9.218,408.827,9.463,241.926,9.66
					c-97.306,0.203-170.69,0.357-170.69,0.357s0,77.768,0,139.936c0,51.3,0,94.026,0,94.026l41.329,7.744H76.245v102.285
					l47.456,6.888l-52.465,1.193v102.752h38.231l-33.223,7.487c0,0,0,82.787,0,161.798c0,58.189,0,113.838,0,113.838
					s70.968,0,165.681,0c165.945,0,373.243,0,540.152,0c96.379,0,169.02,0,169.02,0s0-55.58,0-113.838c0-79.517,0-163.06,0-163.06
					l-48.352-6.227l53.358-2.069V359.317l-27.082,2.068l18.734-7.88V253.5l-26.771-2.79l30.111-8.403c0,0,0-41.803,0-92.355
					C951.098,87.569,951.098,8.668,951.098,8.668z"/>
				<path fill="#CF883C" d="M931.063,717.912c0,0-63.3,0-148.983,0c-164.302,0-375.297,0-540.152,0c-86.532,0-150.655,0-150.655,0
					s0-33.176,0-83.785c0-126.821,0-341.974,0-484.174c0-67.688,0-114.893,0-114.893s64.123,0,150.655,0
					c164.855,0,375.849,0,540.152,0c85.687,0,148.983,0,148.983,0s0,47.204,0,114.893c0,142.2,0,357.353,0,484.174
					C931.063,684.737,931.063,717.912,931.063,717.912z"/>
				<path fill="#A56226" d="M92.006,35.061l10.834,10.018c0,0,58.813,0,139.088,0c163.407,0,377.257,0,540.151,0
					c79.557,0,137.688,0,137.688,0L930.6,35.061c0,0-63.089,0-148.521,0c-164.273,0-375.409,0-540.151,0
					C155.787,35.061,92.006,35.061,92.006,35.061z"/>
				<path fill="#FCC38B" d="M92.006,717.912l10.834-10.018c0,0,58.813,0,139.088,0c163.407,0,377.257,0,540.151,0
					c79.557,0,137.688,0,137.688,0l10.833,10.018c0,0-63.089,0-148.521,0c-164.273,0-375.409,0-540.151,0
					C155.787,717.912,92.006,717.912,92.006,717.912z"/>
				<path fill="#FCC38B" d="M61.217,0l6.585,10.018c0,0,74.975,0,174.124,0c167.182,0,373.355,0,540.152,0
					c98.454,0,172.724,0,172.724,0L961.387,0c0,0-77.331,0-179.308,0C614.706,0,409.67,0,241.928,0C139.256,0,61.217,0,61.217,0z"/>
				<polygon fill="#A56226" points="958.218,257.929 951.811,249.637 920.962,250.593 952.38,243.69 961.385,257.929 				"/>
				<polygon fill="#A56226" points="929.022,360.947 951.811,359.316 959.303,359.316 959.247,354.131 949.443,353.557 				"/>
				<polygon fill="#A56226" points="962.781,473.681 956.883,464.84 902.687,464.84 954.398,468.802 960.865,478.39 				"/>
				<path fill="#A56226" d="M66.254,761.322l6.468-10.019c0,0,72.604,0,169.204,0c166.309,0,372.965,0,540.152,0
					c98.15,0,172.319,0,172.319,0l6.468,10.019c0,0-77.18,0-178.789,0c-167.738,0-373.248,0-540.152,0
					C141.859,761.322,66.254,761.322,66.254,761.322z"/>
				<polygon fill="#A56226" points="108.651,464.84 72.722,468.802 66.254,478.267 63.704,476.22 70.221,464.84 				"/>
				<polygon fill="#A56226" points="72.722,359.316 124.252,360.947 75.088,354.084 67.802,359.316 				"/>
				<polygon fill="#A56226" points="61.217,253.79 70.221,244.342 112.563,250.891 72.722,250.323 66.254,253.79 				"/>
				<g>
					
						<linearGradient id="SVGID_1_" gradientUnits="userSpaceOnUse" x1="37.0095" y1="3.3569" x2="37.0095" y2="-7.1389" gradientTransform="matrix(1.6696 0 0 1.6696 22.2869 30.1072)">
						<stop  offset="0" style="stop-color:#F0B66C"/>
						<stop  offset="1" style="stop-color:#AA611D"/>
					</linearGradient>
					<ellipse fill="url(#SVGID_1_)" cx="84.079" cy="24.764" rx="10.343" ry="10.313"/>
					<g>
						<ellipse fill="#303030" cx="84.079" cy="24.764" rx="7.896" ry="7.874"/>
						<g>
							<path fill="#51504F" d="M84.079,21.424c3.176,0,5.817,2.163,6.593,5.085c0.147-0.563,0.254-1.14,0.254-1.746
								c0-3.769-3.064-6.825-6.847-6.825c-3.781,0-6.848,3.057-6.848,6.825c0,0.607,0.104,1.184,0.254,1.746
								C78.26,23.587,80.905,21.424,84.079,21.424z"/>
						</g>
						<ellipse fill="#848280" cx="83.877" cy="19.368" rx="1.893" ry="0.89"/>
					</g>
				</g>
				<g>
					
						<linearGradient id="SVGID_2_" gradientUnits="userSpaceOnUse" x1="547.5354" y1="3.3574" x2="547.5354" y2="-7.1388" gradientTransform="matrix(1.6696 0 0 1.6696 22.2869 30.1072)">
						<stop  offset="0" style="stop-color:#F0B66C"/>
						<stop  offset="1" style="stop-color:#AA611D"/>
					</linearGradient>
					<ellipse fill="url(#SVGID_2_)" cx="936.452" cy="24.764" rx="10.345" ry="10.313"/>
					<g>
						<ellipse fill="#303030" cx="936.452" cy="24.764" rx="7.896" ry="7.874"/>
						<g>
							<path fill="#51504F" d="M936.452,21.424c3.175,0,5.818,2.163,6.595,5.085c0.147-0.563,0.254-1.14,0.254-1.746
								c0-3.769-3.064-6.825-6.849-6.825c-3.78,0-6.847,3.057-6.847,6.825c0,0.607,0.104,1.184,0.254,1.746
								C930.635,23.587,933.279,21.424,936.452,21.424z"/>
						</g>
						<ellipse fill="#848280" cx="936.252" cy="19.368" rx="1.893" ry="0.89"/>
					</g>
				</g>
				<g>
					
						<linearGradient id="SVGID_3_" gradientUnits="userSpaceOnUse" x1="39.8552" y1="428.6719" x2="39.8552" y2="418.1757" gradientTransform="matrix(1.6696 0 0 1.6696 22.2869 30.1072)">
						<stop  offset="0" style="stop-color:#F0B66C"/>
						<stop  offset="1" style="stop-color:#AA611D"/>
					</linearGradient>
					<ellipse fill="url(#SVGID_3_)" cx="88.829" cy="734.872" rx="10.343" ry="10.313"/>
					<g>
						<ellipse fill="#303030" cx="88.829" cy="734.872" rx="7.896" ry="7.874"/>
						<g>
							<path fill="#51504F" d="M88.829,731.531c3.176,0,5.817,2.164,6.593,5.086c0.147-0.563,0.254-1.142,0.254-1.747
								c0-3.769-3.064-6.825-6.847-6.825s-6.848,3.058-6.848,6.825c0,0.607,0.104,1.184,0.253,1.747
								C83.01,733.696,85.655,731.531,88.829,731.531z"/>
						</g>
						<ellipse fill="#848280" cx="88.626" cy="729.474" rx="1.894" ry="0.89"/>
					</g>
				</g>
				<g>
					
						<linearGradient id="SVGID_4_" gradientUnits="userSpaceOnUse" x1="548.551" y1="428.3486" x2="548.551" y2="417.8528" gradientTransform="matrix(1.6696 0 0 1.6696 22.2869 30.1072)">
						<stop  offset="0" style="stop-color:#F0B66C"/>
						<stop  offset="1" style="stop-color:#AA611D"/>
					</linearGradient>
					<ellipse fill="url(#SVGID_4_)" cx="938.148" cy="734.333" rx="10.343" ry="10.313"/>
					<g>
						<ellipse fill="#303030" cx="938.148" cy="734.333" rx="7.896" ry="7.874"/>
						<g>
							<path fill="#51504F" d="M938.148,730.992c3.176,0,5.818,2.163,6.593,5.085c0.148-0.563,0.254-1.141,0.254-1.746
								c0-3.769-3.063-6.825-6.847-6.825c-3.782,0-6.848,3.058-6.848,6.825c0,0.607,0.104,1.184,0.254,1.746
								C932.329,733.155,934.975,730.992,938.148,730.992z"/>
						</g>
						<ellipse fill="#848280" cx="937.946" cy="728.935" rx="1.895" ry="0.89"/>
					</g>
				</g>
			</g>
			<g>
				<path fill="#874F21" d="M919.375,707.896c0,0-57.948,0-137.297,0c-162.812,0-376.729,0-540.152,0c-80.205,0-138.968,0-138.968,0
					s0-28.938,0-73.769c0-123.319,0-343.663,0-484.174c0-62.1,0-104.875,0-104.875s58.764,0,138.968,0
					c163.422,0,377.341,0,540.152,0c79.349,0,137.297,0,137.297,0s0,42.774,0,104.875c0,140.511,0,360.854,0,484.174
					C919.375,678.957,919.375,707.896,919.375,707.896z"/>
				<pattern  id="SVGID_6_" xlink:href="#SVGID_5_" patternTransform="matrix(2.3392 0 0 1.9437 28016.3457 33979.1484)">
				</pattern>
				<path display="none" fill="url(#SVGID_6_)" d="M919.375,707.896c0,0-57.948,0-137.297,0c-162.812,0-376.729,0-540.152,0
					c-80.205,0-138.968,0-138.968,0s0-28.938,0-73.769c0-123.319,0-343.663,0-484.174c0-62.1,0-104.875,0-104.875
					s58.764,0,138.968,0c163.422,0,377.341,0,540.152,0c79.349,0,137.297,0,137.297,0s0,42.774,0,104.875
					c0,140.511,0,360.854,0,484.174C919.375,678.957,919.375,707.896,919.375,707.896z"/>
				<path opacity="0.31" enable-background="new    " d="M102.958,45.078c0,0,0,42.774,0,104.875c0,140.511,0,360.854,0,484.174
					c0,44.83,0,73.769,0,73.769s58.764,0,138.968,0c163.422,0,377.341,0,540.152,0c79.349,0,137.297,0,137.297,0s0-28.938,0-73.769
					c0-123.319,0-343.663,0-484.174c0-62.1,0-104.875,0-104.875s-57.948,0-137.297,0c-162.812,0-376.729,0-540.152,0
					C161.722,45.078,102.958,45.078,102.958,45.078z M912.697,706.226c0,0-54.907,0-130.618,0c-161.855,0-377.646,0-540.152,0
					c-76.573,0-132.29,0-132.29,0s0-28.278,0-72.099c0-123.64,0-347.115,0-484.174c0-56.543,0-94.857,0-94.857s55.716,0,132.29,0
					c162.505,0,378.296,0,540.152,0c75.711,0,130.618,0,130.618,0s0,38.314,0,94.857c0,137.059,0,360.534,0,484.174
					C912.697,677.947,912.697,706.226,912.697,706.226z"/>
			</g>
		</g>
	</g>
</g>
<g id="nyt_x5F_exporter_x5F_info" display="none">
</g>
</svg>
