<?xml version="1.0" encoding="utf-8"?>
<!-- Generator: Adobe Illustrator 16.0.0, SVG Export Plug-In . SVG Version: 6.00 Build 0)  -->
<!DOCTYPE svg PUBLIC "-//W3C//DTD SVG 1.1//EN" "http://www.w3.org/Graphics/SVG/1.1/DTD/svg11.dtd">
<svg version="1.1" id="Isolation_Mode" xmlns="http://www.w3.org/2000/svg" xmlns:xlink="http://www.w3.org/1999/xlink" x="0px"
	 y="0px" width="132px" height="130px" viewBox="0 0 132 130" enable-background="new 0 0 132 130" xml:space="preserve">
<g>
	<path opacity="0.5" fill="#191B23" d="M70.759,124.395c0.37-0.035,0.737-0.083,1.105-0.122c0.547-0.061,1.093-0.118,1.634-0.193
		c0.391-0.053,0.778-0.117,1.166-0.178c0.511-0.081,1.021-0.161,1.525-0.254c0.403-0.075,0.801-0.157,1.2-0.238
		c0.484-0.099,0.969-0.2,1.447-0.311c0.408-0.094,0.812-0.193,1.215-0.296c0.464-0.115,0.925-0.236,1.382-0.364
		c0.409-0.113,0.816-0.232,1.224-0.354c0.441-0.134,0.88-0.271,1.316-0.414c0.412-0.137,0.821-0.271,1.229-0.414
		c0.42-0.148,0.837-0.303,1.253-0.459c0.065-0.025,0.132-0.047,0.197-0.073c13.05-4.261,24.071-12.688,31.277-23.597
		c5.737-8.687,9.056-18.946,9.056-29.93c0-21.528-12.748-40.283-31.464-49.855c-0.657-0.336-1.322-0.656-1.993-0.967
		c-0.271-0.128-0.54-0.249-0.812-0.372c-0.684-0.307-1.374-0.606-2.074-0.89c-0.21-0.085-0.423-0.165-0.635-0.246
		c-0.587-0.231-1.18-0.453-1.777-0.666c-0.241-0.087-0.482-0.175-0.726-0.258c-0.736-0.252-1.48-0.491-2.229-0.716
		c-0.236-0.07-0.473-0.139-0.71-0.207c-0.697-0.2-1.399-0.391-2.106-0.568c-0.129-0.031-0.256-0.069-0.386-0.101
		c-0.807-0.194-1.624-0.37-2.445-0.535c-0.22-0.044-0.442-0.087-0.665-0.13c-0.826-0.158-1.657-0.302-2.495-0.424
		c-0.153-0.022-0.306-0.04-0.457-0.061c-0.773-0.109-1.551-0.203-2.333-0.282c-0.164-0.017-0.327-0.037-0.492-0.052
		c-0.868-0.082-1.741-0.145-2.619-0.19c-0.193-0.012-0.387-0.017-0.579-0.025c-0.909-0.039-1.822-0.066-2.741-0.066
		c-0.995,0-1.985,0.026-2.969,0.072c-0.329,0.015-0.656,0.045-0.984,0.065c-0.651,0.041-1.302,0.081-1.945,0.141
		c-0.392,0.038-0.777,0.088-1.164,0.132c-0.577,0.064-1.155,0.128-1.728,0.208c-0.411,0.059-0.82,0.128-1.23,0.194
		c-0.539,0.088-1.079,0.174-1.614,0.273c-0.421,0.079-0.839,0.17-1.258,0.257c-0.516,0.108-1.029,0.218-1.541,0.338
		c-0.423,0.1-0.844,0.208-1.266,0.316c-0.494,0.129-0.989,0.26-1.479,0.4c-0.426,0.12-0.847,0.247-1.268,0.377
		c-0.476,0.147-0.948,0.298-1.42,0.457c-0.424,0.143-0.847,0.288-1.268,0.438c-0.455,0.165-0.906,0.336-1.357,0.509
		c-0.423,0.164-0.847,0.329-1.265,0.502c-0.436,0.18-0.866,0.367-1.296,0.557c-0.423,0.185-0.845,0.371-1.261,0.565
		c-0.413,0.192-0.82,0.396-1.228,0.597c-0.423,0.209-0.847,0.416-1.262,0.635c-0.384,0.201-0.762,0.411-1.139,0.62
		c-0.429,0.237-0.859,0.472-1.281,0.717c-0.341,0.197-0.674,0.41-1.011,0.613c-0.446,0.272-0.896,0.542-1.335,0.824
		c-0.252,0.164-0.496,0.337-0.747,0.503c-1.878,1.256-3.68,2.604-5.392,4.049c-0.08,0.069-0.162,0.131-0.241,0.199
		c-0.51,0.434-1.004,0.886-1.497,1.336c-0.165,0.151-0.336,0.3-0.498,0.449c-0.466,0.437-0.916,0.885-1.367,1.335
		c-0.179,0.179-0.361,0.353-0.537,0.534c-0.438,0.448-0.863,0.908-1.285,1.37c-0.175,0.191-0.354,0.379-0.525,0.573
		c-0.415,0.466-0.819,0.941-1.22,1.422c-0.165,0.196-0.33,0.396-0.492,0.595c-0.396,0.487-0.782,0.983-1.162,1.485
		c-0.15,0.197-0.3,0.396-0.448,0.597c-0.379,0.513-0.748,1.033-1.11,1.56c-0.133,0.192-0.263,0.387-0.393,0.582
		c-0.364,0.543-0.719,1.091-1.062,1.646c-0.113,0.182-0.223,0.364-0.332,0.546c-0.351,0.578-0.69,1.16-1.02,1.753
		c-0.087,0.156-0.17,0.313-0.255,0.472c-0.339,0.623-0.668,1.251-0.983,1.888c-0.058,0.115-0.11,0.234-0.167,0.351
		c-0.333,0.684-0.655,1.373-0.958,2.07c-0.017,0.037-0.03,0.076-0.047,0.111c-2.042,4.727-3.428,9.771-4.05,15.03
		c0,0-0.001,0.005-0.001,0.007l0,0c-0.247,2.082-0.385,4.195-0.385,6.34c0,4.401,0.551,8.682,1.558,12.797
		c3.422,20.813,20.049,37.652,41.68,42.928c0.011,0.003,0.021,0.007,0.032,0.008c0.868,0.213,1.744,0.402,2.628,0.575
		c0.057,0.012,0.113,0.026,0.17,0.036c0.824,0.159,1.656,0.298,2.495,0.424c0.117,0.017,0.231,0.041,0.352,0.059
		c0.784,0.113,1.577,0.203,2.372,0.284c0.171,0.019,0.341,0.046,0.512,0.062c0.763,0.073,1.53,0.123,2.301,0.168
		c0.207,0.011,0.41,0.033,0.62,0.043c0.976,0.045,1.957,0.07,2.946,0.07c0.944,0,1.881-0.025,2.813-0.066
		c0.313-0.014,0.62-0.042,0.93-0.061C69.53,124.486,70.146,124.449,70.759,124.395z"/>
	<g>
		<g>
			<path fill="#6BDF3B" d="M66.79,115.642c-31.322,0-56.803-24.146-56.803-53.827c0-29.679,25.48-53.827,56.803-53.827
				c31.32,0,56.803,24.148,56.803,53.827C123.593,91.496,98.11,115.642,66.79,115.642z"/>
			<path fill="#94F462" d="M72.924,11.149c7.234,0,14.215,1.163,20.756,3.266c-8.01-4.097-17.167-6.428-26.89-6.428
				c-29.171,0-53.264,20.947-56.438,47.8C17.86,30.32,43.337,11.149,72.924,11.149z"/>
			<path fill="#236E05" d="M64.816,114.04c-29.756,0-53.966-22.443-53.966-50.03c0-27.586,24.21-50.029,53.966-50.029
				c29.757,0,53.966,22.443,53.966,50.029C118.782,91.597,94.573,114.04,64.816,114.04z"/>
			<path fill="#37A60C" d="M64.816,116.442c-29.756,0-53.966-22.442-53.966-50.029c0-27.585,24.21-50.029,53.966-50.029
				c29.757,0,53.966,22.444,53.966,50.029C118.782,94,94.573,116.442,64.816,116.442z"/>
			<path fill="#2D9103" d="M56.938,113.716c-4.597,0-9.089-0.471-13.436-1.349c6.542,2.618,13.747,4.075,21.314,4.075
				c27.527,0,50.29-19.21,53.55-43.926C109.663,96.25,85.177,113.716,56.938,113.716z"/>
			<path fill="#236E05" d="M64.816,110.407c-26.167,0-47.455-19.736-47.455-43.994S38.649,22.42,64.816,22.42
				c26.166,0,47.455,19.735,47.455,43.993S90.982,110.407,64.816,110.407z"/>
			<ellipse fill="#D8E0E9" cx="64.816" cy="66.413" rx="45.324" ry="42.019"/>
			<path opacity="0.65" fill="#F9F9FA" d="M100.892,42.092c0.294,0,0.587,0.01,0.882,0.011
				c-8.215-10.711-21.699-17.707-36.957-17.707c-25.032,0-45.324,18.812-45.324,42.018c0,5.833,1.291,11.385,3.608,16.434
				C39.31,58.553,68.337,42.092,100.892,42.092z"/>
		</g>
		<g>
			<path fill="#236E05" d="M68.335,107.666c0,1.283-1.568,2.322-3.503,2.322l0,0c-1.936,0-3.503-1.039-3.503-2.322v-3.915
				c0-1.283,1.567-2.322,3.503-2.322l0,0c1.935,0,3.503,1.039,3.503,2.322V107.666z"/>
			<path fill="#236E05" d="M68.335,28.657c0,1.282-1.568,2.322-3.503,2.322l0,0c-1.936,0-3.503-1.04-3.503-2.322v-3.915
				c0-1.284,1.567-2.322,3.503-2.322l0,0c1.935,0,3.503,1.038,3.503,2.322V28.657z"/>
			<path fill="#236E05" d="M109.556,62.956c1.383,0,2.506,1.454,2.506,3.248l0,0c0,1.795-1.123,3.247-2.506,3.247h-4.224
				c-1.384,0-2.505-1.452-2.505-3.247l0,0c0-1.794,1.121-3.248,2.505-3.248H109.556z"/>
			<path fill="#236E05" d="M24.331,62.956c1.385,0,2.505,1.455,2.505,3.248l0,0c0,1.796-1.12,3.248-2.505,3.248h-4.223
				c-1.384,0-2.507-1.452-2.507-3.248l0,0c0-1.793,1.123-3.248,2.507-3.248H24.331z"/>
			<path fill="#231F20" d="M87.097,76.263c0.526,0.298,0.322,1.497-0.456,2.68l0,0c-0.776,1.182-1.834,1.899-2.358,1.603
				L62.707,68.352c-0.524-0.298-0.322-1.499,0.455-2.679l0,0c0.778-1.184,1.835-1.9,2.361-1.604L87.097,76.263z"/>
			<path fill="#414042" d="M86.757,78.748c0.676-1.117,0.837-2.204,0.34-2.485l-14.775-8.352
				C77.125,71.534,81.933,75.153,86.757,78.748z"/>
		</g>
		<g>
			<path fill="#231F20" d="M67.109,65.171c0,0.687-1.021,1.242-2.278,1.242l0,0c-1.258,0-2.278-0.556-2.278-1.242V37.03
				c0-0.687,1.021-1.241,2.278-1.241l0,0c1.258,0,2.278,0.555,2.278,1.241V65.171z"/>
			<path fill="#414042" d="M64.136,35.854c-0.916,0.16-1.583,0.622-1.583,1.176v28.141c0,0.554,0.667,1.016,1.583,1.177V35.854z"/>
			<ellipse fill="#231F20" cx="64.832" cy="66.315" rx="5.113" ry="4.739"/>
			<path fill="#414042" d="M66.886,63.793c0.951,0,1.791,0.171,2.531,0.462c-0.829-1.582-2.562-2.682-4.585-2.682
				c-2.824,0-5.113,2.124-5.113,4.742c0,0.984,0.324,1.898,0.879,2.656C61.143,66.203,63.234,63.793,66.886,63.793z"/>
		</g>
	</g>
</g>
</svg>
