<?xml version="1.0" encoding="utf-8"?>
<!-- Generator: Adobe Illustrator 15.0.0, SVG Export Plug-In . SVG Version: 6.00 Build 0)  -->
<!DOCTYPE svg PUBLIC "-//W3C//DTD SVG 1.1//EN" "http://www.w3.org/Graphics/SVG/1.1/DTD/svg11.dtd">
<svg version="1.1" id="Layer_1" xmlns="http://www.w3.org/2000/svg" xmlns:xlink="http://www.w3.org/1999/xlink" x="0px" y="0px"
	 width="370.328px" height="700.547px" viewBox="0 0 370.328 700.547" enable-background="new 0 0 370.328 700.547"
	 xml:space="preserve">
<g>
	<defs>
		<rect id="SVGID_1_" width="370.328" height="700.547"/>
	</defs>
	<clipPath id="SVGID_2_">
		<use xlink:href="#SVGID_1_"  overflow="visible"/>
	</clipPath>
	<g clip-path="url(#SVGID_2_)">
		<defs>
			<rect id="SVGID_3_" width="370.328" height="700.547"/>
		</defs>
		<clipPath id="SVGID_4_">
			<use xlink:href="#SVGID_3_"  overflow="visible"/>
		</clipPath>
		<path clip-path="url(#SVGID_4_)" fill="#FFC0AD" d="M364.312,421.427c-3.999-15.992-6.397-29.584-7.196-39.18
			c-0.8-9.595-7.196-34.382-6.397-41.578c0.8-7.197,9.595-39.98,8.796-58.37c-0.8-18.391-15.193-59.969-35.981-68.765
			c-20.789-8.794-28.785-5.597-37.581-9.595c-8.795-3.997-29.584-19.19-42.378-27.185c-7.58-4.738-13.736-8.07-17.511-11.165
			c-1.444-1.668-2.828-3.933-4.076-6.551c0.002-0.117,0.003-0.235,0.005-0.364l-0.183-0.011c-3.771-8.097-6.234-19.338-5.207-26.531
			c1.5-10.5,11.031-20.562,17.031-39.062s7.954-25.823,6.516-43.532c-1.318-16.233-17.16-48.515-58.826-49.515
			s-58.162,31.492-61.162,40.992s-12.498,27.996-8.998,31.496s3.251,4.998,2.001,7.498s-10.5,16.499-12,18.749s-2.749,4.75-0.749,7
			s7.25,1.999,8,4.249s0.5,4.5-0.25,6s-2.25,4.75,3.25,7.75c0,0-4.5,1.5-3.5,4.75s3.5,3.25,3.5,5.5s-2.75,10-1,13.75
			s7.625,7.25,20.125,7s15.625-1.5,15.625-1.5v10.25c0,5.597-3.707,12.504-16.5,20.5c-12.794,7.996-36.493,15.935-45.288,19.932
			c-8.795,3.998-16.792,0.801-37.581,9.595c-20.788,8.796-35.181,50.374-35.981,68.765c-0.799,18.39,7.996,51.173,8.796,58.37
			c0.799,7.196-5.598,31.983-6.398,41.578c-0.798,9.596-3.197,23.188-7.195,39.18S-1.18,454.21,0.42,476.598
			c1.599,22.391,14.392,64.768,21.588,77.561c7.197,12.794,14.392,44.776,14.392,44.776c-2.398,26.388-3.197,47.177,3.999,60.77
			c7.196,13.593,26.386,42.378,31.183,40.779c4.797-1.6-3.197-23.988-3.998-32.784c-0.799-8.795-1.333-21.854-1.333-21.854
			s7.462,11.728,11.726,8.527c4.264-3.198-6.396-18.124-6.396-28.785s-13.859-30.915-13.859-30.915s-3.199-22.39,1.066-51.174
			c4.264-28.785-22.389-77.826-5.331-117.419c0.423-0.979,0.834-1.972,1.235-2.978c15.772-39.57,14.757-97.081,14.757-97.081
			s9.595,58.646,14.925,77.836c5.331,19.19-5.33,52.26-6.397,71.45c-1.066,19.189,1.067,41.623,3.2,49.084
			c2.131,7.464-6.397,15.099-8.53,49.213c-2.131,34.117,13.329,107.402,13.329,107.402h89.019c4.775-26,9.245-65.076,10.125-72.885
			l0.044,0.846l0.043-0.825c0.881,7.809,5.351,46.864,10.125,72.864h89.021c0,0,15.46-73.285,13.327-107.402
			c-2.132-34.114-10.66-41.707-8.529-49.171c2.134-7.461,4.266-29.915,3.2-49.104c-1.066-19.19-11.729-52.271-6.397-71.461
			s14.926-77.842,14.926-77.842s-1.016,57.507,14.756,97.079c0.402,1.006,0.813,1.996,1.236,2.976
			c17.057,39.593-9.596,88.634-5.331,117.419c4.264,28.784,1.065,51.173,1.065,51.173s-13.859,20.254-13.859,30.915
			s-10.66,25.587-6.396,28.785c4.264,3.2,11.726-8.527,11.726-8.527s-0.533,13.06-1.333,21.854
			c-0.8,8.796-8.795,31.185-3.998,32.784c4.798,1.599,23.987-27.187,31.184-40.779c7.195-13.593,6.397-34.382,3.998-60.77
			c0,0,7.196-31.982,14.393-44.776c7.196-12.793,19.989-55.17,21.588-77.561C371.508,454.21,368.309,437.419,364.312,421.427"/>
		<path clip-path="url(#SVGID_4_)" fill="#D299B1" d="M236.164,523.674c-1.863,0-3.337,0.6-4.431,1.545
			c-0.304-0.229-0.628-0.429-0.972-0.598c0.256-0.661,0.402-1.372,0.402-2.114v-1c0-2.212-1.251-4.173-3.07-5.213
			c0.131-0.371,0.234-0.754,0.301-1.15c0.803,0.335,1.723,0.53,2.77,0.53c0.534,0,1.034-0.054,1.505-0.146
			c0.683,2.193,2.511,3.979,5.495,3.979c7.738,0,7.738-12,0-12c-0.116,0-0.227,0.012-0.341,0.017
			c-0.312-2.166-1.503-4.182-3.582-5.183c5.763-2.776,4.74-13.334-3.077-13.334s-8.84,10.558-3.076,13.334
			c-2.138,1.028-3.339,3.124-3.608,5.358c-0.743-0.358-1.553-0.59-2.403-0.662c-0.184-1.087-0.67-2.077-1.361-2.892
			c-0.115-0.298-0.261-0.613-0.461-0.984c-0.087-0.162-0.19-0.315-0.3-0.465c-0.276-0.521-0.619-1.001-1.048-1.432
			c-1.12-1.121-2.657-1.758-4.242-1.758c-0.222,0-0.442,0.016-0.662,0.04c-0.14-0.696-0.379-1.31-0.787-2.106
			c-0.53-1.031-1.514-1.832-2.454-2.452c-0.833-0.548-1.996-0.846-3.037-0.938c-0.421-0.492-0.929-0.914-1.531-1.224
			c-0.89-0.458-1.737-0.993-2.633-1.44c-1.76-0.879-3.417-1.32-5.396-1.379c-3.271-0.097-6,2.803-6,6
			c0,3.263,2.603,5.771,5.765,5.982c0.74,0.39,1.462,0.815,2.207,1.198c0.803,0.413,1.657,0.64,2.509,0.716
			c0.231,0.264,0.479,0.514,0.752,0.734c0.16,0.211,0.33,0.417,0.526,0.611c1.119,1.121,2.656,1.758,4.241,1.758
			c0.23,0,0.459-0.02,0.687-0.049c0.121,0.606,0.316,1.139,0.724,1.895c0.087,0.162,0.19,0.315,0.3,0.465
			c0.11,0.209,0.234,0.409,0.37,0.604c0.039,0.244,0.089,0.484,0.157,0.718c-1.167,0.597-2.001,1.567-2.495,2.701
			c-1.139-1.41-2.908-2.333-4.742-2.333c-1.585,0-3.122,0.637-4.241,1.758c-0.328,0.326-0.594,0.683-0.823,1.055
			c-1.027-1.996-3.001-3.479-5.936-3.479c-1.353,0-2.498,0.319-3.445,0.854c-1.097-1.673-2.944-2.854-5.554-2.854
			c-1.713,0-3.097,0.509-4.158,1.33c-1.044-1.922-2.99-3.33-5.842-3.33c-3.612,0-5.771,2.256-6.484,4.955
			c-1.102-0.99-2.604-1.622-4.516-1.622c-2.949,0-4.928,1.496-5.95,3.508c-1.125-1.306-2.808-2.175-5.05-2.175
			c-3.766,0-5.95,2.452-6.564,5.303c-0.29-0.358-0.613-0.688-0.965-0.985c0.952-1.196,1.529-2.698,1.529-4.317c0-3.815-3.184-7-7-7
			h-0.667c-3.816,0-7,3.185-7,7c0,2.315,1.177,4.394,2.952,5.674c-0.805,1.139-1.285,2.518-1.285,3.993v0.666
			c0,2.087,0.955,3.98,2.442,5.271c-0.089-0.004-0.178-0.018-0.267-0.018c-1.469,0-3.335,0.599-4.283,1.772
			c-1.11,1.375-0.901,1.069-1.576,2.688c-0.076,0.182-0.135,0.495-0.18,0.813c-0.631-0.228-1.34-0.36-2.136-0.36
			c-7.739,0-7.739,12,0,12c3.019,0,4.855-1.829,5.518-4.058c0.761,0.354,1.6,0.558,2.482,0.558c2.555,0,4.771-1.668,5.623-3.956
			c0.698-1.205,0.955-2.619,0.732-4.021c0.451,0.278,0.949,0.509,1.499,0.672c1.287,1.406,3.125,2.305,5.146,2.305
			c0.814,0,1.595-0.152,2.327-0.417c0.475,3.037,2.698,5.751,6.673,5.751c2.25,0,3.939-0.87,5.068-2.176
			c1.019,2.012,2.992,3.509,5.932,3.509c1.584,0,2.884-0.44,3.91-1.155c0.968,2.17,2.997,3.822,6.09,3.822
			c2.717,0,4.609-1.28,5.685-3.063c0.852,2.444,2.956,4.396,6.314,4.396c2.628,0,4.483-1.197,5.576-2.889
			c1.092,0.951,2.563,1.556,4.424,1.556c2.135,0,3.758-0.793,4.879-1.994c1.291,1.633,3.267,2.711,5.454,2.66
			c1.597-0.037,2.489-0.351,3.899-1.057c0.883-0.442,1.771-1.348,2.386-2.21c0.152,0.211,0.32,0.409,0.498,0.601
			c-1.323,1.42-1.94,3.411-1.852,5.369c-2.911,0.262-4.764,2.074-5.561,4.313c-0.993-0.632-2.225-1.016-3.704-1.016
			c-0.29,0-0.569,0.016-0.84,0.044c-0.89-0.445-1.939-0.71-3.16-0.71c-2.61,0-4.458,1.181-5.555,2.854
			c-0.947-0.534-2.093-0.854-3.445-0.854c-1.517,0-2.772,0.401-3.779,1.059c-1.122-1.423-2.858-2.393-5.22-2.393
			c-1.585,0-2.885,0.44-3.911,1.155c-0.968-2.169-2.998-3.821-6.089-3.821c-1.514,0-2.767,0.402-3.772,1.062
			c-1.29-1.459-3.164-2.396-5.228-2.396h-0.667c-1.116,0-2.174,0.278-3.118,0.76c-0.92-2.3-2.987-4.093-6.215-4.093
			c-1.878,0-3.36,0.611-4.456,1.57c-0.965-0.567-2.146-0.904-3.544-0.904c-0.729,0-1.392,0.1-2.004,0.268
			c-1.008-2.058-3.003-3.601-5.996-3.601c-9.029,0-9.029,14,0,14c0.728,0,1.392-0.1,2.003-0.268
			c0.323,0.659,0.746,1.265,1.272,1.783c0.305,1.143,0.893,2.22,1.775,3.102c0.627,0.627,1.355,1.103,2.133,1.438
			c1.051,1.896,2.989,3.279,5.817,3.279c0.083,0,0.16-0.009,0.242-0.011c-0.153,3.61,2.095,7.344,6.758,7.344
			c1.385,0,2.555-0.332,3.515-0.89c0.733,2.67,2.891,4.89,6.485,4.89c2.25,0,3.939-0.87,5.068-2.176
			c1.019,2.012,2.992,3.509,5.932,3.509c1.383,0,2.552-0.333,3.511-0.894c0.265,1.294,0.886,2.524,1.873,3.511l1.333,1.333
			c2.68,2.68,7.145,2.693,9.847,0.047c1.11,1.575,2.921,2.67,5.436,2.67c9,0,9-14,0-14c-2.123,0-3.739,0.784-4.86,1.976
			c-0.162-0.205-0.334-0.404-0.522-0.593l-1.333-1.333c-2.311-2.309-5.944-2.634-8.635-0.987c-0.224-1.411-0.83-2.745-1.807-3.773
			c1.141-0.118,2.111-0.482,2.921-1.013c1.126,1.423,2.867,2.391,5.236,2.391c2.617,0,4.471-1.18,5.57-2.851
			c0.943,0.532,2.084,0.851,3.43,0.851c0.29,0,0.569-0.016,0.84-0.044c0.89,0.445,1.939,0.71,3.16,0.71
			c3.337,0,5.434-1.926,6.296-4.349c0.993,0.632,2.225,1.016,3.704,1.016c4.658,0,6.899-3.75,6.735-7.369
			c4.008-0.361,6.015-3.66,6.015-6.964c0.676,0.214,1.425,0.333,2.25,0.333c5.848,0,7.902-5.87,6.176-10.009
			C245.188,537.48,245.132,523.674,236.164,523.674 M183.479,534.736c-0.851-2.444-2.955-4.396-6.314-4.396
			c-1.585,0-2.885,0.44-3.911,1.155c-0.967-2.17-2.997-3.822-6.089-3.822c-2.242,0-3.925,0.869-5.05,2.175
			c-1.023-2.012-3.002-3.508-5.95-3.508c-0.729,0-1.392,0.1-2.004,0.268c-0.007-0.725-0.129-1.425-0.348-2.085
			c1.515-0.595,2.61-1.695,3.284-3.025c1.128,1.306,2.817,2.176,5.068,2.176c3.621,0,5.786-2.253,6.502-4.951
			c1.098,0.987,2.594,1.618,4.498,1.618c1.712,0,3.097-0.509,4.157-1.33c0.62,1.14,1.563,2.089,2.817,2.681
			c-0.664,2.664,0.176,5.848,2.517,7.178c0.695,1.588,2.068,2.796,3.738,3.333C185.113,532.738,184.141,533.641,183.479,534.736
			 M215.693,533.061c-0.185-0.237-0.375-0.466-0.579-0.67c-1.308-1.307-3.101-2.05-4.95-2.05s-3.643,0.743-4.949,2.05
			c-0.184,0.183-0.35,0.372-0.504,0.566c-0.03,0.027-0.057,0.059-0.086,0.088c-1.046-1.506-2.737-2.567-5.057-2.682
			c0.056-0.445,0.096-0.875,0.096-1.356c0.001-2.537-1.646-4.743-3.91-5.607c0.526-0.317,0.991-0.701,1.388-1.141
			c0.223,0.35,0.476,0.686,0.781,0.99c2.297,2.299,6.19,2.331,8.483,0c0.978-0.992,1.711-2.146,2.179-3.409
			c0.962,1.283,2.483,2.167,4.579,2.167c1.793,0,3.166-0.649,4.128-1.64c0.596,0.274,1.236,0.464,1.902,0.561
			c-0.02,0.19-0.03,0.384-0.03,0.579v1c0,2.154,1.188,4.068,2.932,5.128c-0.507,0.791-0.725,1.767-0.654,2.726
			c-0.095-0.004-0.181-0.02-0.277-0.02C218.622,530.341,216.799,531.458,215.693,533.061"/>
		<path clip-path="url(#SVGID_4_)" fill="#E15F75" d="M142.618,573.991c-4.036-4.037-10.413-3.949-14.584-0.271
			c-1.567,0.985-3.268,1.738-4.927,2.557c-5.146,2.542-6.527,9.726-3.78,14.415c1.38,2.356,3.664,4.118,6.297,4.843
			c2.879,0.792,5.51,0.227,8.119-1.063c3.218-1.589,6.218-3.056,8.875-5.579C146.781,584.936,146.6,577.973,142.618,573.991"/>
		<path clip-path="url(#SVGID_4_)" fill="#E15F75" d="M137.523,561.513c-2.773-4.732-9.63-6.969-14.416-3.779
			c-3.436,2.289-6.888,4.511-10.676,6.182c-5.257,2.319-6.431,9.888-3.78,14.414c3.145,5.369,9.161,6.1,14.415,3.78
			c3.788-1.671,7.241-3.892,10.677-6.182C138.512,572.75,140.554,566.688,137.523,561.513"/>
		<path clip-path="url(#SVGID_4_)" fill="#E15F75" d="M133.528,549.42c-1.643-5.973-7.298-8.285-12.961-7.358
			c-3.77,0.617-7.584,1.089-11.238,2.248c-5.47,1.733-8.926,7.263-7.359,12.961c1.479,5.375,7.486,9.094,12.96,7.358
			c3.655-1.158,7.468-1.63,11.239-2.248C131.843,561.451,134.927,554.507,133.528,549.42"/>
		<path clip-path="url(#SVGID_4_)" fill="#E15F75" d="M130.218,528.923c-3.088-5.271-9.224-6.235-14.416-3.779
			c2.502-1.184,0.282-0.133-0.29,0.057c-0.726,0.24-1.477,0.4-2.223,0.563c-0.101,0.022-0.171,0.039-0.249,0.057
			c-0.009,0.001-0.013,0.001-0.022,0.002c-1.042,0.104-2.091,0.122-3.136,0.13c-5.743,0.057-10.536,4.751-10.536,10.536
			c0,5.701,4.792,10.592,10.536,10.536c5.866-0.057,11.261-1.182,16.556-3.687C131.629,540.883,132.927,533.548,130.218,528.923"/>
		<path clip-path="url(#SVGID_4_)" fill="#E15F75" d="M123.368,506.285c-5.068-0.001-10.125-0.044-15.171-0.562
			c-5.725-0.59-10.537,5.236-10.537,10.534c0,6.188,4.826,9.95,10.537,10.537c5.046,0.519,10.103,0.561,15.171,0.562
			c5.744,0.002,10.536-4.794,10.536-10.536C133.904,511.076,129.112,506.286,123.368,506.285"/>
		<path clip-path="url(#SVGID_4_)" fill="#E15F75" d="M129.248,491.428c-1.939-0.882-3.672-1.607-5.739-1.963
			c-1.706-0.293-3.428-0.483-5.149-0.684c-0.206-0.035-0.413-0.063-0.619-0.102c-2.879-0.534-5.519-0.461-8.119,1.063
			c-3.011,1.762-5.503,5.477-5.219,9.096c0.262,3.333,1.081,5.698,2.563,8.689c2.548,5.145,9.72,6.529,14.415,3.779
			c0.261-0.151,0.503-0.317,0.743-0.485c1.469,0.301,2.966,0.314,4.607-0.137c2.633-0.725,4.917-2.486,6.297-4.843
			C135.705,501.272,134.476,493.806,129.248,491.428"/>
		<path clip-path="url(#SVGID_4_)" fill="#E15F75" d="M141.395,488.733c-1.691-7.152-2.543-16.196-9.631-20.258
			c-6.766-3.878-14.74-0.207-18.513,5.939c-2.947,4.802-3.03,10.621-2.29,15.986c0.732,5.303,7.008,8.289,11.889,7.577
			c2.559,3.249,7.121,4.833,11.186,3.716C139.721,500.129,142.714,494.318,141.395,488.733"/>
		<path clip-path="url(#SVGID_4_)" fill="#E15F75" d="M152.721,490.415c0.43-2.661,0.271-5.145-1.151-7.57
			c-1.379-2.354-3.663-4.117-6.297-4.842c-2.719-0.748-5.684-0.363-8.118,1.063c-2.196,1.287-4.353,3.717-4.842,6.296
			c-0.443,2.337-0.939,4.849-0.677,7.245c0.273,2.516,0.491,4.182,1.736,6.422c1.058,1.905,2.527,3.256,4.345,4.412
			c4.85,3.086,11.596,1.033,14.416-3.779C153.877,496.683,153.933,493.316,152.721,490.415"/>
		<path clip-path="url(#SVGID_4_)" fill="#E15F75" d="M169.297,495.426c-0.003-0.042-0.005-0.083-0.008-0.125
			c0.511,1.143,0.196,0.45-0.013-0.23c-0.004-0.108-0.015-0.215-0.018-0.323c-0.026-0.61,0.001-1.225,0.025-1.834
			c0.033-0.798,0.5-3.748-0.04-0.264c0.454-2.927,0.493-5.463-1.062-8.118c-1.38-2.356-3.664-4.118-6.297-4.843
			c-5.051-1.39-12.078,1.675-12.961,7.359c-0.966,6.226-1.017,11.82,1.624,17.671c2.364,5.235,9.856,6.45,14.416,3.778
			c2.355-1.379,4.117-3.662,4.841-6.296C170.48,499.744,170.13,497.618,169.297,495.426"/>
		<path clip-path="url(#SVGID_4_)" fill="#E15F75" d="M187.162,491.836c-0.15-0.213-0.28-0.43-0.412-0.648
			c-0.004-0.017-0.01-0.032-0.015-0.049c-0.009-0.635,0.011-1.269,0.092-1.913c-0.011,0.073-0.021,0.146-0.028,0.219
			c0.138-2.089-0.164-4.059-1.324-6.037c-1.377-2.355-3.662-4.117-6.295-4.842c-5.13-1.411-11.971,1.695-12.96,7.358
			c-0.98,5.614-0.639,11.713,2.748,16.547c3.288,4.694,9.153,6.862,14.415,3.78C188.03,503.529,190.462,496.548,187.162,491.836"/>
		<path clip-path="url(#SVGID_4_)" fill="#E15F75" d="M203.755,487.317c-0.229-5.614-4.811-10.252-10.519-10.252
			c-5.683,0-10.617,4.791-10.536,10.535c0.072,5.158,1.764,9.859,5.333,13.632c3.946,4.171,10.925,3.975,14.899,0
			C206.765,497.4,206.875,491.484,203.755,487.317"/>
		<path clip-path="url(#SVGID_4_)" fill="#E15F75" d="M220.354,482.96c-0.048-0.036-0.087-0.08-0.133-0.119
			c-0.136-0.243-0.266-0.488-0.391-0.738c-0.498-1.321-0.914-2.678-1.263-4.046c-1.419-5.563-7.505-8.86-12.96-7.359
			c-5.611,1.544-8.777,7.4-7.359,12.962c1.248,4.891,3.196,10.875,7.205,14.202c4.415,3.663,10.559,4.34,14.9,0
			C224.13,494.083,224.777,486.633,220.354,482.96"/>
		<path clip-path="url(#SVGID_4_)" fill="#E15F75" d="M233.84,476.218c-0.354-0.282-0.681-0.582-0.988-0.9
			c-0.805-1.261-1.47-2.598-2.068-3.978c0.081,0.192,0.161,0.383,0.242,0.575c-0.977-2.16-2.158-3.912-4.376-5.212
			c-2.434-1.425-5.398-1.811-8.118-1.063c-2.635,0.724-4.918,2.486-6.297,4.843c-1.29,2.2-2.067,5.644-1.063,8.117
			c1.813,4.469,3.872,9.415,7.768,12.518c2.286,1.821,4.405,3.086,7.449,3.086c2.783,0,5.483-1.119,7.451-3.086
			c1.966-1.968,3.084-4.667,3.084-7.451C236.924,481.149,235.9,477.859,233.84,476.218"/>
		<path clip-path="url(#SVGID_4_)" fill="#E15F75" d="M251.221,474.417c-0.769-1.508-1.594-2.984-2.394-4.473
			c-0.286-0.532-0.544-1.077-0.81-1.619c-0.031-0.152-0.665-1.656-0.793-2.069c-1.676-5.487-7.307-8.914-12.959-7.358
			c-5.418,1.491-9.038,7.469-7.36,12.961c1.437,4.696,3.908,8.854,6.12,13.192c2.606,5.113,9.677,6.556,14.415,3.78
			C252.604,485.807,253.828,479.533,251.221,474.417"/>
		<path clip-path="url(#SVGID_4_)" fill="#E15F75" d="M261.936,459.921c-0.188-0.188-0.375-0.374-0.563-0.563
			c-4.061-4.057-10.839-4.059-14.9,0c-4.059,4.061-4.06,10.844,0,14.902c0.188,0.187,0.375,0.374,0.563,0.562
			c4.06,4.058,10.838,4.061,14.9,0C265.993,470.763,265.996,463.979,261.936,459.921"/>
		<path clip-path="url(#SVGID_4_)" fill="#E15F75" d="M256.164,474.256c-14,0-14,21.071,0,21.071S270.164,474.256,256.164,474.256"
			/>
		<path clip-path="url(#SVGID_4_)" fill="#E15F75" d="M260.489,485.985c-0.427,0-0.851-0.007-1.274-0.019
			c-0.238-0.063-0.476-0.125-0.711-0.199c-6.41-2.042-13.455,2.332-15.186,8.622c-0.875,3.187-0.426,6.661,1.245,9.512
			c1.669,2.852,4.271,4.686,7.377,5.675c2.743,0.872,5.683,1.098,8.549,1.1c6.73,0.004,12.346-5.618,12.346-12.346
			C272.835,491.599,267.22,485.988,260.489,485.985"/>
		<path clip-path="url(#SVGID_4_)" fill="#E15F75" d="M270.825,516.268c-0.778-2.83-2.527-4.643-4.841-6.296
			c-3.166-2.264-7.153-3.641-10.946-4.435c-5.615-1.176-11.367,1.568-12.961,7.358c-1.449,5.272,1.737,11.784,7.36,12.962
			c1.301,0.272,2.572,0.62,3.819,1.057c0.725,0.367,1.422,0.773,2.092,1.252c4.682,3.347,11.713,0.833,14.416-3.78
			C271.189,521.952,271.574,518.987,270.825,516.268"/>
		<path clip-path="url(#SVGID_4_)" fill="#E15F75" d="M268.64,527.237c-1.522-2.6-3.623-3.715-6.281-4.836
			c0.677,0.286,1.355,0.572,2.034,0.856c-2.698-1.248-5.036-3.08-7.399-4.857c-2.136-1.607-5.659-1.739-8.118-1.063
			c-2.635,0.725-4.917,2.487-6.298,4.844c-1.425,2.432-1.81,5.398-1.062,8.118c0.793,2.881,2.546,4.567,4.842,6.296
			c1.231,0.928,2.456,1.86,3.722,2.738c2.1,1.456,4.303,2.386,6.662,3.382c2.444,1.031,5.943,0.21,8.118-1.063
			c2.356-1.38,4.118-3.662,4.842-6.296C270.45,532.636,270.064,529.671,268.64,527.237"/>
		<path clip-path="url(#SVGID_4_)" fill="#E15F75" d="M260.927,538.19c-1.641-0.991-3.238-2.049-4.791-3.174
			c-0.515-0.437-1.02-0.886-1.506-1.359c-4.108-4.008-10.802-4.098-14.9,0c-4.02,4.021-4.11,10.893,0,14.899
			c3.129,3.05,6.83,5.574,10.562,7.828c4.918,2.972,11.547,1.118,14.415-3.779C267.641,547.597,265.833,541.155,260.927,538.19"/>
		<path clip-path="url(#SVGID_4_)" fill="#E15F75" d="M258.679,552.239c-3.576-2.419-6.943-5.123-10.677-7.307
			c-4.96-2.898-11.515-1.17-14.414,3.78c-2.902,4.954-1.171,11.522,3.779,14.414c3.733,2.183,7.101,4.889,10.676,7.306
			c4.765,3.222,11.656,0.93,14.415-3.779C265.505,561.453,263.426,555.447,258.679,552.239"/>
		<path clip-path="url(#SVGID_4_)" fill="#E15F75" d="M252.944,568.553c-1.854-2.175-3.654-4.392-5.7-6.391
			c-3.02-2.956-6.315-4.856-10.187-6.434c-5.328-2.171-11.574,2.314-12.962,7.358c-1.604,5.833,1.809,10.469,6.838,12.729
			c0.003,0.002,0.005,0.007,0.009,0.008c-1.028-0.447-1.104-0.447-0.225,0.001c0.204,0.108,0.585,0.366,0.867,0.556
			c0.605,0.538,1.191,1.1,1.755,1.678c1.671,1.702,3.159,3.583,4.704,5.395c3.729,4.375,11.082,3.818,14.9,0
			C257.244,579.153,256.666,572.92,252.944,568.553"/>
		<path clip-path="url(#SVGID_4_)" fill="#E15F75" d="M238.896,583.038c-1.204-0.945-2.252-2.084-3.237-3.261
			c0.132,0.133-1.18-1.565-1.526-2.087c-0.557-0.836-1.061-1.71-1.456-2.634c-2.262-5.284-9.929-6.408-14.415-3.78
			c-2.354,1.381-4.117,3.663-4.842,6.297c-0.823,2.996-0.107,5.385,1.062,8.118c1.163,2.716,3.187,5.099,4.988,7.393
			c1.359,1.729,2.789,3.49,4.526,4.854c2.306,1.812,4.391,3.087,7.449,3.087c2.785,0,5.484-1.119,7.451-3.087
			C242.592,594.243,243.421,586.592,238.896,583.038"/>
		<path clip-path="url(#SVGID_4_)" fill="#E15F75" d="M226.435,594.993c-1.916-4.564-3.396-9.29-5.558-13.755
			c-2.502-5.167-9.755-6.51-14.416-3.779c-5.236,3.067-6.281,9.245-3.778,14.414c0.115,0.241,0.441,0.988,0.586,1.307
			c0.251,0.653,0.496,1.31,0.739,1.965c0.677,1.828,1.354,3.652,2.107,5.45c1.118,2.666,2.241,4.773,4.842,6.296
			c2.434,1.426,5.399,1.812,8.118,1.063C224.077,606.577,228.66,600.3,226.435,594.993"/>
		<path clip-path="url(#SVGID_4_)" fill="#E15F75" d="M209.577,585.688c-1.103-5.64-7.747-8.793-12.961-7.358
			c-5.848,1.608-8.458,7.329-7.358,12.961c0.108,0.561,0.212,1.121,0.313,1.684c0.039,0.225,0.105,0.662,0.163,1.063
			c0.15,1.331,0.255,2.667,0.271,4.005c0.069,5.743,4.742,10.536,10.536,10.536c5.691,0,10.605-4.792,10.536-10.536
			C211.027,593.906,210.368,589.739,209.577,585.688"/>
		<path clip-path="url(#SVGID_4_)" fill="#E15F75" d="M201.7,590.79c0.243-0.883,0.387-1.813,0.387-2.796
			c0-5.544-4.796-10.8-10.536-10.537c-6.308,0.291-12.997,2.4-16.208,8.331c-2.767,5.112-2.282,11.189,0.639,16.122
			c2.187,3.697,6.367,7.61,10.8,8.227c3.522,0.489,7.122,0.55,10.203-1.613c3.243-2.276,5.094-5.011,6.411-8.737
			C204.497,596.674,203.627,593.339,201.7,590.79"/>
		<path clip-path="url(#SVGID_4_)" fill="#E15F75" d="M142.618,573.991c-4.036-4.037-10.413-3.949-14.584-0.271
			c-1.567,0.985-3.268,1.738-4.927,2.557c-5.146,2.542-6.527,9.726-3.78,14.415c1.38,2.356,3.664,4.118,6.297,4.843
			c2.879,0.792,5.51,0.227,8.119-1.063c3.218-1.589,6.218-3.056,8.875-5.579C146.781,584.936,146.6,577.973,142.618,573.991"/>
		<path clip-path="url(#SVGID_4_)" fill="#E15F75" d="M137.523,561.513c-2.773-4.732-9.63-6.969-14.416-3.779
			c-3.436,2.289-6.888,4.511-10.676,6.182c-5.257,2.319-6.431,9.888-3.78,14.414c3.145,5.369,9.161,6.1,14.415,3.78
			c3.788-1.671,7.241-3.892,10.677-6.182C138.512,572.75,140.554,566.688,137.523,561.513"/>
		<path clip-path="url(#SVGID_4_)" fill="#E15F75" d="M133.528,549.42c-1.643-5.973-7.298-8.285-12.961-7.358
			c-3.77,0.617-7.584,1.089-11.238,2.248c-5.47,1.733-8.926,7.263-7.359,12.961c1.479,5.375,7.486,9.094,12.96,7.358
			c3.655-1.158,7.468-1.63,11.239-2.248C131.843,561.451,134.927,554.507,133.528,549.42"/>
		<path clip-path="url(#SVGID_4_)" fill="#E15F75" d="M130.218,528.923c-3.088-5.271-9.224-6.235-14.416-3.779
			c2.502-1.184,0.282-0.133-0.29,0.057c-0.726,0.24-1.477,0.4-2.223,0.563c-0.101,0.022-0.171,0.039-0.249,0.057
			c-0.009,0.001-0.013,0.001-0.022,0.002c-1.042,0.104-2.091,0.122-3.136,0.13c-5.743,0.057-10.536,4.751-10.536,10.536
			c0,5.701,4.792,10.592,10.536,10.536c5.866-0.057,11.261-1.182,16.556-3.687C131.629,540.883,132.927,533.548,130.218,528.923"/>
		<path clip-path="url(#SVGID_4_)" fill="#E15F75" d="M123.368,506.285c-5.068-0.001-10.125-0.044-15.171-0.562
			c-5.725-0.59-10.537,5.236-10.537,10.534c0,6.188,4.826,9.95,10.537,10.537c5.046,0.519,10.103,0.561,15.171,0.562
			c5.744,0.002,10.536-4.794,10.536-10.536C133.904,511.076,129.112,506.286,123.368,506.285"/>
		<path clip-path="url(#SVGID_4_)" fill="#E15F75" d="M129.248,491.428c-1.939-0.882-3.672-1.607-5.739-1.963
			c-1.706-0.293-3.428-0.483-5.149-0.684c-0.206-0.035-0.413-0.063-0.619-0.102c-2.879-0.534-5.519-0.461-8.119,1.063
			c-3.011,1.762-5.503,5.477-5.219,9.096c0.262,3.333,1.081,5.698,2.563,8.689c2.548,5.145,9.72,6.529,14.415,3.779
			c0.261-0.151,0.503-0.317,0.743-0.485c1.469,0.301,2.966,0.314,4.607-0.137c2.633-0.725,4.917-2.486,6.297-4.843
			C135.705,501.272,134.476,493.806,129.248,491.428"/>
		<path clip-path="url(#SVGID_4_)" fill="#E15F75" d="M141.395,488.733c-1.691-7.152-2.543-16.196-9.631-20.258
			c-6.766-3.878-14.74-0.207-18.513,5.939c-2.947,4.802-3.03,10.621-2.29,15.986c0.732,5.303,7.008,8.289,11.889,7.577
			c2.559,3.249,7.121,4.833,11.186,3.716C139.721,500.129,142.714,494.318,141.395,488.733"/>
		<path clip-path="url(#SVGID_4_)" fill="#E15F75" d="M152.721,490.415c0.43-2.661,0.271-5.145-1.151-7.57
			c-1.379-2.354-3.663-4.117-6.297-4.842c-2.719-0.748-5.684-0.363-8.118,1.063c-2.196,1.287-4.353,3.717-4.842,6.296
			c-0.443,2.337-0.939,4.849-0.677,7.245c0.273,2.516,0.491,4.182,1.736,6.422c1.058,1.905,2.527,3.256,4.345,4.412
			c4.85,3.086,11.596,1.033,14.416-3.779C153.877,496.683,153.933,493.316,152.721,490.415"/>
		<path clip-path="url(#SVGID_4_)" fill="#E15F75" d="M169.297,495.426c-0.003-0.042-0.005-0.083-0.008-0.125
			c0.511,1.143,0.196,0.45-0.013-0.23c-0.004-0.108-0.015-0.215-0.018-0.323c-0.026-0.61,0.001-1.225,0.025-1.834
			c0.033-0.798,0.5-3.748-0.04-0.264c0.454-2.927,0.493-5.463-1.062-8.118c-1.38-2.356-3.664-4.118-6.297-4.843
			c-5.051-1.39-12.078,1.675-12.961,7.359c-0.966,6.226-1.017,11.82,1.624,17.671c2.364,5.235,9.856,6.45,14.416,3.778
			c2.355-1.379,4.117-3.662,4.841-6.296C170.48,499.744,170.13,497.618,169.297,495.426"/>
		<path clip-path="url(#SVGID_4_)" fill="#E15F75" d="M187.162,491.836c-0.15-0.213-0.28-0.43-0.412-0.648
			c-0.004-0.017-0.01-0.032-0.015-0.049c-0.009-0.635,0.011-1.269,0.092-1.913c-0.011,0.073-0.021,0.146-0.028,0.219
			c0.138-2.089-0.164-4.059-1.324-6.037c-1.377-2.355-3.662-4.117-6.295-4.842c-5.13-1.411-11.971,1.695-12.96,7.358
			c-0.98,5.614-0.639,11.713,2.748,16.547c3.288,4.694,9.153,6.862,14.415,3.78C188.03,503.529,190.462,496.548,187.162,491.836"/>
		<path clip-path="url(#SVGID_4_)" fill="#E15F75" d="M203.755,487.317c-0.229-5.614-4.811-10.252-10.519-10.252
			c-5.683,0-10.617,4.791-10.536,10.535c0.072,5.158,1.764,9.859,5.333,13.632c3.946,4.171,10.925,3.975,14.899,0
			C206.765,497.4,206.875,491.484,203.755,487.317"/>
		<path clip-path="url(#SVGID_4_)" fill="#E15F75" d="M220.354,482.96c-0.048-0.036-0.087-0.08-0.133-0.119
			c-0.136-0.243-0.266-0.488-0.391-0.738c-0.498-1.321-0.914-2.678-1.263-4.046c-1.419-5.563-7.505-8.86-12.96-7.359
			c-5.611,1.544-8.777,7.4-7.359,12.962c1.248,4.891,3.196,10.875,7.205,14.202c4.415,3.663,10.559,4.34,14.9,0
			C224.13,494.083,224.777,486.633,220.354,482.96"/>
		<path clip-path="url(#SVGID_4_)" fill="#E15F75" d="M233.84,476.218c-0.354-0.282-0.681-0.582-0.988-0.9
			c-0.805-1.261-1.47-2.598-2.068-3.978c0.081,0.192,0.161,0.383,0.242,0.575c-0.977-2.16-2.158-3.912-4.376-5.212
			c-2.434-1.425-5.398-1.811-8.118-1.063c-2.635,0.724-4.918,2.486-6.297,4.843c-1.29,2.2-2.067,5.644-1.063,8.117
			c1.813,4.469,3.872,9.415,7.768,12.518c2.286,1.821,4.405,3.086,7.449,3.086c2.783,0,5.483-1.119,7.451-3.086
			c1.966-1.968,3.084-4.667,3.084-7.451C236.924,481.149,235.9,477.859,233.84,476.218"/>
		<path clip-path="url(#SVGID_4_)" fill="#E15F75" d="M251.221,474.417c-0.769-1.508-1.594-2.984-2.394-4.473
			c-0.286-0.532-0.544-1.077-0.81-1.619c-0.031-0.152-0.665-1.656-0.793-2.069c-1.676-5.487-7.307-8.914-12.959-7.358
			c-5.418,1.491-9.038,7.469-7.36,12.961c1.437,4.696,3.908,8.854,6.12,13.192c2.606,5.113,9.677,6.556,14.415,3.78
			C252.604,485.807,253.828,479.533,251.221,474.417"/>
		<path clip-path="url(#SVGID_4_)" fill="#E15F75" d="M261.936,459.921c-0.188-0.188-0.375-0.374-0.563-0.563
			c-4.061-4.057-10.839-4.059-14.9,0c-4.059,4.061-4.06,10.844,0,14.902c0.188,0.187,0.375,0.374,0.563,0.562
			c4.06,4.058,10.838,4.061,14.9,0C265.993,470.763,265.996,463.979,261.936,459.921"/>
		<path clip-path="url(#SVGID_4_)" fill="#E15F75" d="M256.164,474.256c-14,0-14,21.071,0,21.071S270.164,474.256,256.164,474.256"
			/>
		<path clip-path="url(#SVGID_4_)" fill="#E15F75" d="M260.489,485.985c-0.427,0-0.851-0.007-1.274-0.019
			c-0.238-0.063-0.476-0.125-0.711-0.199c-6.41-2.042-13.455,2.332-15.186,8.622c-0.875,3.187-0.426,6.661,1.245,9.512
			c1.669,2.852,4.271,4.686,7.377,5.675c2.743,0.872,5.683,1.098,8.549,1.1c6.73,0.004,12.346-5.618,12.346-12.346
			C272.835,491.599,267.22,485.988,260.489,485.985"/>
		<path clip-path="url(#SVGID_4_)" fill="#E15F75" d="M270.825,516.268c-0.778-2.83-2.527-4.643-4.841-6.296
			c-3.166-2.264-7.153-3.641-10.946-4.435c-5.615-1.176-11.367,1.568-12.961,7.358c-1.449,5.272,1.737,11.784,7.36,12.962
			c1.301,0.272,2.572,0.62,3.819,1.057c0.725,0.367,1.422,0.773,2.092,1.252c4.682,3.347,11.713,0.833,14.416-3.78
			C271.189,521.952,271.574,518.987,270.825,516.268"/>
		<path clip-path="url(#SVGID_4_)" fill="#E15F75" d="M268.64,527.237c-1.522-2.6-3.623-3.715-6.281-4.836
			c0.677,0.286,1.355,0.572,2.034,0.856c-2.698-1.248-5.036-3.08-7.399-4.857c-2.136-1.607-5.659-1.739-8.118-1.063
			c-2.635,0.725-4.917,2.487-6.298,4.844c-1.425,2.432-1.81,5.398-1.062,8.118c0.793,2.881,2.546,4.567,4.842,6.296
			c1.231,0.928,2.456,1.86,3.722,2.738c2.1,1.456,4.303,2.386,6.662,3.382c2.444,1.031,5.943,0.21,8.118-1.063
			c2.356-1.38,4.118-3.662,4.842-6.296C270.45,532.636,270.064,529.671,268.64,527.237"/>
		<path clip-path="url(#SVGID_4_)" fill="#E15F75" d="M260.927,538.19c-1.641-0.991-3.238-2.049-4.791-3.174
			c-0.515-0.437-1.02-0.886-1.506-1.359c-4.108-4.008-10.802-4.098-14.9,0c-4.02,4.021-4.11,10.893,0,14.899
			c3.129,3.05,6.83,5.574,10.562,7.828c4.918,2.972,11.547,1.118,14.415-3.779C267.641,547.597,265.833,541.155,260.927,538.19"/>
		<path clip-path="url(#SVGID_4_)" fill="#E15F75" d="M258.679,552.239c-3.576-2.419-6.943-5.123-10.677-7.307
			c-4.96-2.898-11.515-1.17-14.414,3.78c-2.902,4.954-1.171,11.522,3.779,14.414c3.733,2.183,7.101,4.889,10.676,7.306
			c4.765,3.222,11.656,0.93,14.415-3.779C265.505,561.453,263.426,555.447,258.679,552.239"/>
		<path clip-path="url(#SVGID_4_)" fill="#E15F75" d="M252.944,568.553c-1.854-2.175-3.654-4.392-5.7-6.391
			c-3.02-2.956-6.315-4.856-10.187-6.434c-5.328-2.171-11.574,2.314-12.962,7.358c-1.604,5.833,1.809,10.469,6.838,12.729
			c0.003,0.002,0.005,0.007,0.009,0.008c-1.028-0.447-1.104-0.447-0.225,0.001c0.204,0.108,0.585,0.366,0.867,0.556
			c0.605,0.538,1.191,1.1,1.755,1.678c1.671,1.702,3.159,3.583,4.704,5.395c3.729,4.375,11.082,3.818,14.9,0
			C257.244,579.153,256.666,572.92,252.944,568.553"/>
		<path clip-path="url(#SVGID_4_)" fill="#E15F75" d="M238.896,583.038c-1.204-0.945-2.252-2.084-3.237-3.261
			c0.132,0.133-1.18-1.565-1.526-2.087c-0.557-0.836-1.061-1.71-1.456-2.634c-2.262-5.284-9.929-6.408-14.415-3.78
			c-2.354,1.381-4.117,3.663-4.842,6.297c-0.823,2.996-0.107,5.385,1.062,8.118c1.163,2.716,3.187,5.099,4.988,7.393
			c1.359,1.729,2.789,3.49,4.526,4.854c2.306,1.812,4.391,3.087,7.449,3.087c2.785,0,5.484-1.119,7.451-3.087
			C242.592,594.243,243.421,586.592,238.896,583.038"/>
		<path clip-path="url(#SVGID_4_)" fill="#E15F75" d="M226.435,594.993c-1.916-4.564-3.396-9.29-5.558-13.755
			c-2.502-5.167-9.755-6.51-14.416-3.779c-5.236,3.067-6.281,9.245-3.778,14.414c0.115,0.241,0.441,0.988,0.586,1.307
			c0.251,0.653,0.496,1.31,0.739,1.965c0.677,1.828,1.354,3.652,2.107,5.45c1.118,2.666,2.241,4.773,4.842,6.296
			c2.434,1.426,5.399,1.812,8.118,1.063C224.077,606.577,228.66,600.3,226.435,594.993"/>
		<path clip-path="url(#SVGID_4_)" fill="#E15F75" d="M209.577,585.688c-1.103-5.64-7.747-8.793-12.961-7.358
			c-5.848,1.608-8.458,7.329-7.358,12.961c0.108,0.561,0.212,1.121,0.313,1.684c0.039,0.225,0.105,0.662,0.163,1.063
			c0.15,1.331,0.255,2.667,0.271,4.005c0.069,5.743,4.742,10.536,10.536,10.536c5.691,0,10.605-4.792,10.536-10.536
			C211.027,593.906,210.368,589.739,209.577,585.688"/>
		<path clip-path="url(#SVGID_4_)" fill="#E15F75" d="M201.7,590.79c0.243-0.883,0.387-1.813,0.387-2.796
			c0-5.544-4.796-10.8-10.536-10.537c-6.308,0.291-12.997,2.4-16.208,8.331c-2.767,5.112-2.282,11.189,0.639,16.122
			c2.187,3.697,6.367,7.61,10.8,8.227c3.522,0.489,7.122,0.55,10.203-1.613c3.243-2.276,5.094-5.011,6.411-8.737
			C204.497,596.674,203.627,593.339,201.7,590.79"/>
		<path clip-path="url(#SVGID_4_)" fill="#FFE592" d="M261.283,407.847c-13.317-5.791-17.134,5.204-23.504,2.887
			c-6.368-2.315-8.633-23.444-8.633-23.444c-6.371-0.579-14.478,3.475-14.478,3.475c-1.158,25.479,20.845,31.85,9.843,59.645
			c-3.727,9.418-11.58,4.632-18.53-1.159c-5.579-4.648-13.767-1.834-16.778-0.542c-0.694,0.87-1.265,1.824-1.555,2.839
			c-0.217,0.759-0.908,1.252-1.659,1.252c-0.159,0-0.319-0.021-0.478-0.066c-0.917-0.262-1.448-1.22-1.185-2.137
			c0.493-1.721,1.492-3.267,2.655-4.599c-1.503-3.12-5.006-6.852-12.847-3.116c-16.142,7.686-12.741,36.482-12.741,36.482
			s3.737,0.619,6.258,3.2c2.222-3.175,7.117-4.132,7.117-4.132s-0.327-3.452,1.278-8.818c-0.326,0.032-0.651,0.072-0.983,0.072
			c-1.291,0-2.63-0.249-3.983-0.751c-0.894-0.332-1.35-1.327-1.018-2.222c0.333-0.896,1.328-1.349,2.222-1.019
			c2.94,1.093,4.98,0.314,6.172-0.532c1.663-1.179,2.672-3.191,2.632-5.251c0-0.012,0.003-0.022,0.003-0.034
			c0-0.065,0.008-0.13,0.015-0.193c0.008-0.051,0.009-0.102,0.018-0.149c0.012-0.061,0.033-0.116,0.051-0.172
			c0.016-0.052,0.029-0.103,0.049-0.151c0.022-0.052,0.05-0.099,0.076-0.147c0.027-0.048,0.051-0.101,0.082-0.146
			c0.03-0.045,0.067-0.085,0.1-0.127c0.036-0.044,0.07-0.089,0.11-0.129c0.036-0.038,0.081-0.07,0.122-0.104
			c0.044-0.038,0.086-0.075,0.132-0.107c0.043-0.029,0.088-0.05,0.133-0.075c0.054-0.03,0.108-0.062,0.166-0.086
			c0.042-0.019,0.088-0.03,0.133-0.044c0.065-0.021,0.129-0.045,0.196-0.058c0.012-0.003,0.02-0.007,0.032-0.009
			c0.043-0.007,0.085-0.005,0.129-0.01c0.049-0.006,0.097-0.018,0.147-0.018c0.017-0.003,0.03,0.002,0.045,0.002
			c0.028,0,0.053,0.002,0.079,0.003c0.318,0.007,0.623,0.112,0.88,0.293c0.028,0.02,0.052,0.042,0.079,0.062
			c0.051,0.044,0.105,0.084,0.154,0.131c0.06,0.059,0.112,0.124,0.163,0.189c0.014,0.018,0.029,0.034,0.043,0.054
			c0.051,0.074,0.096,0.155,0.137,0.238c0.01,0.021,0.023,0.04,0.031,0.06c0.032,0.071,0.054,0.146,0.075,0.221
			c0.012,0.041,0.027,0.08,0.036,0.122c0.002,0.014,0.008,0.028,0.011,0.042c0.012,0.06,0.923,4.871,3.695,10.563
			c3.938,5.703,9.466,14.189,24.721,17.917c26.059,6.371,46.904-8.685,57.328-32.427
			C276.83,440.651,274.603,413.637,261.283,407.847"/>
		<path clip-path="url(#SVGID_4_)" fill="#FFFFFF" d="M191.417,78.949c-3.501,1.408-6.848,2.736-9.823,3.906
			c1.865,0.533,4.038,1.225,6.15,2.056c2.562-0.88,4.612-2.077,5.851-2.899C192.585,80.83,191.875,79.746,191.417,78.949"/>
		<path clip-path="url(#SVGID_4_)" fill="#FFFFFF" d="M191.559,75.657L191.559,75.657c1.579-0.637,3.183-1.288,4.793-1.947
			c11.813-4.833,25.541-4.361,30.541-3.981c2.878-1.628,5.821-5.809,5.307-16.234c-0.231-4.683-1.417-10.442-4.317-16.145
			c-0.466,0.535-0.95,1.047-1.436,1.551c-1.608,1.674-3.274,3.405-4.141,6.215c-0.199,0.646-0.792,1.059-1.433,1.059
			c-0.146,0-0.296-0.022-0.443-0.067c-0.791-0.244-1.235-1.084-0.991-1.876c1.077-3.491,3.079-5.574,4.846-7.411
			c0.755-0.784,1.448-1.506,2.017-2.279c-3.329-5.394-8.338-10.564-15.707-14.528c-2.095,2.04-3.942,4.571-5.201,7.186
			c-0.259,0.537-0.794,0.85-1.353,0.85c-0.219,0-0.439-0.048-0.649-0.149c-0.747-0.36-1.061-1.256-0.701-2.002
			c1.256-2.61,3.039-5.149,5.076-7.291c-1.629-0.747-3.365-1.435-5.204-2.063c-0.086,0.096-0.181,0.186-0.294,0.259
			c-2.274,1.472-4.85,2.219-7.254,2.219c-2.03,0-3.939-0.533-5.442-1.613c-0.672-0.484-0.825-1.421-0.342-2.094
			s1.421-0.823,2.094-0.342c1.78,1.28,4.58,1.358,7.219,0.354c-4.058-1.086-8.563-1.892-13.597-2.326
			c-0.099-0.008-0.193-0.01-0.291-0.018c-0.628,5.121-4.44,9.611-9.102,12.526c2.362,0.998,5.547,1.665,8.211-0.191
			c0.677-0.472,1.614-0.307,2.088,0.372c0.474,0.68,0.307,1.615-0.373,2.089c-1.622,1.131-3.527,1.693-5.594,1.693
			c-2.239,0-4.668-0.669-7.129-1.984c-1.359,1.662-1.25,3.773-0.958,6.781c0.24,2.469,0.511,5.268-0.711,7.816
			c-0.258,0.538-0.795,0.852-1.354,0.852c-0.218,0-0.438-0.048-0.648-0.148c-0.747-0.359-1.062-1.255-0.704-2.001
			c0.818-1.704,0.67-3.734,0.463-5.886c-1.578-0.799-3.722-1.542-5.381-0.816c-1.209,0.532-2.097,1.828-2.637,3.853
			c-0.179,0.671-0.785,1.114-1.448,1.114c-0.128,0-0.258-0.017-0.388-0.052c-0.801-0.213-1.277-1.035-1.063-1.836
			c0.787-2.949,2.244-4.909,4.329-5.825c1.813-0.797,3.949-0.722,6.356,0.189c-0.023-2.66,0.565-5.336,3.409-7.435
			c0.008-0.007,0.017-0.013,0.025-0.019c0.015-0.012,0.028-0.024,0.043-0.036c0.034-0.023,0.071-0.039,0.105-0.06
			c0.032-0.02,0.06-0.044,0.094-0.061c4.755-2.431,8.74-6.48,9.358-11.128c-3.02-0.131-5.906-0.064-8.678,0.153
			c-1.172,3.99-4.614,6.507-7.766,8.796c-2.612,1.897-5.079,3.689-6.453,6.181c-0.274,0.496-0.786,0.776-1.315,0.776
			c-0.245,0-0.493-0.06-0.723-0.187c-0.725-0.4-0.99-1.313-0.589-2.037c1.697-3.078,4.554-5.154,7.317-7.161
			c2.615-1.898,5.007-3.636,6.184-6.023c-7.939,1.033-14.78,3.42-20.55,6.576c1.292,4.129-0.776,7.252-3.114,9.872
			c4.276,2.171,6.112,5.694,5.174,10.073c-0.15,0.704-0.773,1.186-1.464,1.186c-0.105,0-0.21-0.011-0.317-0.034
			c-0.809-0.173-1.326-0.97-1.152-1.78c0.697-3.258-0.76-5.588-4.4-7.129c-2.584,2.783-4.001,4.829-3.067,7.613
			c0.264,0.785-0.159,1.636-0.944,1.899c-0.159,0.053-0.32,0.079-0.478,0.079c-0.627,0-1.212-0.396-1.422-1.024
			c-1.665-4.961,1.581-8.375,4.445-11.388c2.766-2.909,4.569-5.041,4.051-7.804c-8.273,5.156-14.068,11.858-17.469,18.003
			c2.711,1.201,5.128,3.103,7.055,5.628c0.503,0.658,0.376,1.599-0.282,2.102c-0.271,0.208-0.592,0.308-0.909,0.308
			c-0.451,0-0.898-0.203-1.193-0.59c-1.672-2.19-3.708-3.799-6.01-4.786c-0.988,2.169-1.667,4.224-2.023,6.056
			c-1.184,6.111-0.633,11.871,2.816,16.085c0.814-0.936,1.424-2.01,1.724-3.122c0.218-0.8,1.039-1.27,1.841-1.055
			c0.8,0.216,1.272,1.04,1.056,1.839c-0.441,1.624-1.305,3.15-2.476,4.451c2.275,1.818,5.34,3.187,9.336,3.96
			c-0.942-2.217-1.225-5.752,1.344-11.073c0.681-1.411,1.324-3.333,0.522-4.476c-1.153-1.645-4.91-1.655-6.134-1.53
			c-0.841,0.086-1.562-0.513-1.647-1.336c-0.086-0.823,0.509-1.56,1.332-1.647c0.662-0.07,6.528-0.588,8.901,2.783
			c0.527,0.75,0.819,1.609,0.896,2.562c2.734,0.461,4.757,0.051,5.713-1.193c1.041-1.356,0.854-3.713-0.513-6.467
			c-0.368-0.742-0.065-1.642,0.677-2.011c0.739-0.365,1.643-0.065,2.011,0.677c1.895,3.82,1.969,7.329,0.204,9.628
			c-0.806,1.049-2.579,2.555-6.108,2.555c-0.71,0-1.513-0.084-2.372-0.222c-0.194,0.633-0.447,1.291-0.781,1.982
			c-3.796,7.863-0.109,10.215,0.05,10.312c0.008,0.004,0.014,0.011,0.021,0.016c2.205,0.179,4.649,0.201,7.32,0.068
			c1.987-1.571,6.041-4.443,11.14-6.351c-1.136-0.409-2.367-0.578-3.672-0.578h-0.027c-0.815,0-1.484-0.831-1.499-1.651
			c-0.015-0.828,0.646-1.6,1.474-1.614c1.391-0.021,2.735,0.172,4.006,0.571c-0.918-3.944,0.421-7.393,4.089-10.641
			c0.621-0.549,1.567-0.49,2.118,0.129c0.548,0.62,0.491,1.568-0.129,2.117c-3.672,3.253-4.285,6.2-2.138,10.402
			c0.062-0.013,0.12-0.031,0.182-0.045c5.259-1.127,10.071-2.859,14.154-4.625c-0.33-1.896-0.314-3.643,0.032-5.643h-0.006
			c-4.38-1-6.487-4.787-5.637-9.989c0.133-0.817,0.9-1.31,1.722-1.178c0.818,0.134,1.372,0.934,1.239,1.752
			c-0.417,2.556-0.163,5.812,3.424,6.736c0.055,0.014,0.105,0.045,0.157,0.065c0.695-1.581,1.689-3.015,2.972-4.224
			c0.604-0.568,1.551-0.538,2.122,0.064c0.568,0.603,0.54,1.554-0.063,2.121c-2.4,2.263-3.503,5.576-3.113,9.102
			c6.109-3,10.059-6.203,10.581-8.139c0.214-0.801,1.04-1.274,1.838-1.058c0.801,0.215,1.274,1.038,1.059,1.838
			c-2.118,7.866-22.622,14.563-29.851,16.112c-6.081,1.303-11.306,4.796-13.844,6.727c-0.91,2.264-1.44,5.811,2.2,8.642
			c5.826,4.531,20.714-0.003,20.714-0.003s0.028,0.006,0.07,0.015c4.085-1.594,9.359-3.673,14.959-5.931V75.657z M216.449,40.519
			c0.509-0.654,1.451-0.772,2.104-0.266c0.655,0.508,0.774,1.45,0.267,2.105c-1.953,2.518-2.714,4.734-2.262,6.586
			c0.404,1.656,1.815,3.113,4.178,4.345c1.735-1.357,3.174-2.706,3.914-4.623c0.298-0.773,1.167-1.157,1.939-0.859
			c0.773,0.298,1.157,1.167,0.859,1.94c-1.234,3.197-3.785,5.112-6.252,6.964c-2.904,2.181-5.648,4.241-6.635,8.378
			c-0.164,0.689-0.779,1.153-1.458,1.153c-0.115,0-0.231-0.013-0.349-0.041c-0.806-0.192-1.304-1.001-1.111-1.807
			c1.071-4.495,3.811-7.045,6.509-9.137c-2.45-1.537-3.975-3.41-4.51-5.601C212.964,46.871,213.908,43.796,216.449,40.519
			 M195.695,36.726c-3.979-1.648-6.562-2.53-9.432,0.009c-0.62,0.551-1.568,0.491-2.117-0.129c-0.549-0.62-0.491-1.567,0.129-2.117
			c4.418-3.91,8.747-2.117,12.568-0.534c0.847,0.35,1.66,0.687,2.451,0.961c-0.021-1.655-0.425-2.974-1.254-3.883
			c-0.941-1.033-2.43-1.601-4.423-1.69c-0.828-0.036-1.469-0.737-1.432-1.565c0.036-0.827,0.751-1.463,1.564-1.432
			c2.819,0.125,5.009,1.022,6.507,2.666c1.468,1.609,2.153,3.813,2.047,6.546c2.292,0.083,4.51-1.007,6.964-4.665
			c0.463-0.689,1.395-0.871,2.082-0.41s0.871,1.393,0.41,2.081c-3.096,4.613-6.216,6.004-9.16,6.004
			C200.141,38.567,197.801,37.599,195.695,36.726 M165.566,76.854c-0.287,0.263-0.649,0.392-1.011,0.392
			c-0.406,0-0.812-0.164-1.108-0.489c-0.558-0.611-0.515-1.561,0.098-2.119c4.418-4.033,11.799-5.416,19.615-6.881
			c4.933-0.924,9.968-1.874,14.173-3.524c-1.231-3.815,0.095-7.651,3.521-10.337c-0.054-0.082-0.112-0.16-0.149-0.255
			c-0.979-2.474-1.039-4.811-0.174-6.756c0.845-1.9,2.548-3.373,4.927-4.262c0.778-0.287,1.641,0.104,1.931,0.88
			s-0.104,1.64-0.88,1.93c-1.631,0.609-2.72,1.507-3.236,2.671c-0.538,1.209-0.463,2.701,0.222,4.435
			c0.062,0.154,0.088,0.312,0.097,0.469c0.602,0.06,1.38-0.015,1.944-0.618c0.565-0.606,1.516-0.637,2.12-0.072
			c0.605,0.566,0.637,1.515,0.071,2.12c-0.973,1.041-2.311,1.589-3.801,1.589c-0.268,0-0.54-0.021-0.815-0.056
			c-2.64,1.863-3.709,4.362-3.004,7.002c1.087-0.58,2.087-1.232,2.975-1.973c0.635-0.53,1.582-0.445,2.113,0.191
			c0.53,0.637,0.444,1.582-0.191,2.113c-5.275,4.401-13.417,5.926-21.29,7.402C176.33,72.089,169.355,73.396,165.566,76.854"/>
		<path clip-path="url(#SVGID_4_)" fill="#FFFFFF" d="M197.488,76.487c-1.092,0.446-2.18,0.889-3.26,1.327
			c0.513,0.842,1.32,1.987,2.507,3.192c0.1,0.072,0.194,0.152,0.276,0.251c0.017,0.019,0.027,0.042,0.042,0.062
			c2.492,2.416,6.5,4.963,12.62,5.674c3.527-0.407,9.339-1.566,13.139-4.867c5.113-4.442,3.912-7.625,2.034-9.504
			C219.069,72.351,207.393,72.436,197.488,76.487"/>
		<path clip-path="url(#SVGID_4_)" fill="#FFFFFF" d="M191.526,86.622c1.892,0.999,3.493,2.125,4.423,3.365
			c3.884,5.179,3.885,15.02,7.121,20.02h6.473c0,0-3.161-14.21-3.158-20.521c-4.767-1.055-8.221-3.15-10.648-5.296
			C194.826,84.83,193.382,85.747,191.526,86.622"/>
		<path clip-path="url(#SVGID_4_)" fill="#FF9F9E" d="M190.152,256.022c0,0-0.513-119.484-2.013-128.484
			s-7.524-19.969-12.524-21.469s-10.049-9.938-22.549-15.438s-24.598-1.875-34.598,3.125c-8.338,4.17-12.689,11.472-13.908,13.79
			c0.368,0.172,0.726,0.372,1.071,0.617c0.33,0.234,0.613,0.513,0.84,0.823c4.36-0.954,13.907-2.857,19.193-2.48
			c7,0.5,15-2.5,29.5,0.5s18.5,14.5,18.5,14.5c-8-7.5-28-9.5-33-6.5s-13,6-16.5,4s-5-6-6.249-2.5c-1.249,3.5-6.501,7.25-6.501,7.25
			s4.75,3.75,6.501,6.25c1.751,2.5,4.749,1.5,7.072-3c2.323-4.5,18.677,2.5,26.677,0s20.5,5,18.5,12.5s-2,6.5,4.5,3
			s3.5,22.5,3.5,22.5v91.5l-14,6.5v12l22.491-9l17.509,8v-12L190.152,256.022z"/>
		<path clip-path="url(#SVGID_4_)" fill="#FF9F38" d="M137.161,461.029c2.035,1.978,4.187,2.784,6.079,2.153
			c1.754-0.584,3.411-2.521,4.201-5.692C143.614,458.857,140.103,460.055,137.161,461.029"/>
		<path clip-path="url(#SVGID_4_)" fill="#FF9F38" d="M234.228,410.017c0.914-1.267,1.835-2.517,2.739-3.746
			c5.623-7.636,10.936-14.848,8.848-18.978c-2.469-4.887-15.348-7.363-38.274-7.363c-0.235,0-0.48,0.003-0.72,0.003
			c-5.914,8.513-7.817,18.779-8.387,25.796c1.273,7.813,0.241,16.032-3.141,24.85C203.381,429.536,223.092,425.466,234.228,410.017"
			/>
		<path clip-path="url(#SVGID_4_)" fill="#FF9F38" d="M186.512,380.46c-0.408,0.021-0.828,0.034-1.244,0.049
			c4.595,5.062,7.951,10.08,10.204,15.238c1.309-5.903,3.365-11.188,6.103-15.765C196.929,380.059,191.894,380.216,186.512,380.46"
			/>
		<path clip-path="url(#SVGID_4_)" fill="#FF9F38" d="M190.092,431.67c3.716-8.564,5.114-16.471,4.113-24.021
			c-0.181-0.346-0.277-0.739-0.25-1.154c0.006-0.096,0.019-0.184,0.024-0.278c-1.537-8.828-6.389-17.194-14.706-25.584
			c-0.428,0.003-0.848,0.007-1.286,0.007c-5.69,0-11.49-0.202-17.098-0.399c-5.609-0.195-10.905-0.38-16.107-0.38
			c-16.3,0-32.435,1.67-40.063,13.788c-10.841,17.229-8.525,34.756-6.482,50.219c0.443,3.354,0.862,6.521,1.147,9.63
			c1.013,11.08,2.736,18.46,7.844,18.46c4.135,0,10.545-3.988,19.044-11.854c0.245-0.227,0.538-0.394,0.857-0.49
			C127.642,459.457,178.364,444.014,190.092,431.67"/>
		<path clip-path="url(#SVGID_4_)" fill="#E15F75" d="M105.469,329.865c-5.131-9.545-9.053-18.4-11.809-25.21
			c-1.131,7.268-1.698,14.959-1.458,23.163c0.302,10.279,0.067,20.845-0.16,31.06c-0.449,20.253-0.914,41.195,4.015,46.233
			c1.011,1.035,2.189,1.155,3.945,0.578c9.764-3.21,17.717-8.914,27.784-16.137c4.838-3.471,10.113-7.246,16.265-11.256
			C130.069,367.769,117.129,351.556,105.469,329.865"/>
		<path clip-path="url(#SVGID_4_)" fill="#E15F75" d="M106.11,310.969c-1.899-1.469-3.649-2.958-5.284-4.44
			c8.343,19.565,24.724,51.354,48.559,68.384c1.727-1.067,3.496-2.148,5.368-3.244c11.937-6.997,14.248-22.383,13.66-40.518
			C138.565,330.743,118.417,320.507,106.11,310.969"/>
		<path clip-path="url(#SVGID_4_)" fill="#E15F75" d="M109.946,306.526c15.646,12.03,35.497,18.364,58.191,18.748
			c-0.22-3.615-0.51-7.301-0.846-11.038c-0.225-2.527-0.093-7.992,0.09-15.557c0.576-23.661,1.922-79.072-10.53-84.283
			c-2.311-0.968-4.584-1.458-6.756-1.458c-11.787,0-20.84,14.376-28.829,27.06c-0.929,1.475-1.841,2.927-2.744,4.329
			c-8.763,13.636-17.572,29.492-22.465,48.624C99.414,297.125,103.969,301.93,109.946,306.526"/>
		<path clip-path="url(#SVGID_4_)" fill="#E15F75" d="M269.049,306.17c-13.232,12.055-34.842,24.528-67.739,24.981
			c-0.589,18.135,1.723,33.521,13.661,40.518c1.872,1.096,3.641,2.177,5.369,3.244C244.325,357.775,260.754,325.702,269.049,306.17"
			/>
		<path clip-path="url(#SVGID_4_)" fill="#E15F75" d="M277.521,327.82c0.24-8.206-0.327-15.895-1.459-23.165
			c-2.755,6.812-6.677,15.667-11.808,25.21c-11.66,21.691-24.599,37.904-38.581,48.432c6.154,4.011,11.429,7.785,16.265,11.257
			c10.068,7.222,18.021,12.926,27.783,16.136c0.682,0.223,1.298,0.337,1.834,0.337c0.841,0,1.492-0.282,2.11-0.915
			c4.929-5.038,4.466-25.984,4.015-46.241C277.455,348.655,277.221,338.094,277.521,327.82"/>
		<path clip-path="url(#SVGID_4_)" fill="#E15F75" d="M201.584,325.299c39.682-0.647,61.694-19.585,72.069-32.395
			c-4.894-19.113-13.695-34.955-22.452-48.576c-0.903-1.403-1.815-2.854-2.745-4.33c-7.987-12.683-17.041-27.059-28.829-27.059
			c-2.172,0-4.443,0.49-6.755,1.458c-12.451,5.21-11.105,60.613-10.53,84.271c0.183,7.57,0.316,13.042,0.09,15.568
			C202.096,317.983,201.804,321.675,201.584,325.299"/>
		<g opacity="0.8" clip-path="url(#SVGID_4_)">
			<g>
				<defs>
					<rect id="SVGID_5_" x="149.219" y="306.716" width="72.765" height="87.37"/>
				</defs>
				<clipPath id="SVGID_6_">
					<use xlink:href="#SVGID_5_"  overflow="visible"/>
				</clipPath>
				<path clip-path="url(#SVGID_6_)" fill="#F65D4A" d="M162.413,317.453c0.596,2.663,1.455,6.068,2.561,9.398
					c0.42,0.059,0.843,0.125,1.268,0.207c0.08-0.06,0.159-0.117,0.231-0.168c0.301-6.257,3.15-14.099,13.867-19.205
					c-3.345-1.559-5.536-0.781-5.667-0.731c-0.343,0.136-0.893,0.169-1.226,0.011c-0.332-0.159-7.555,4.81-7.819,5.109
					C164.14,313.759,163.128,315.571,162.413,317.453"/>
				<path clip-path="url(#SVGID_6_)" fill="#F65D4A" d="M196.68,311.375l0.696,0.993c0.243,0.345,0.311,0.787,0.182,1.19
					c-0.129,0.403-0.438,0.725-0.837,0.866c-2.605,0.928-9.443,4.243-9.795,8.393c-0.418,4.952,5.821,6.254,6.878,6.438
					c4.201-0.329,7.979-0.097,11.329,0.683c-0.144-4.106,0.061-9.429,3.286-12.106l-1.582-2.001
					c-1.772,0.914-4.102,2.356-4.882,3.497c-0.328,0.478-0.925,0.696-1.483,0.54c-0.56-0.157-0.957-0.651-0.988-1.232
					c-0.027-0.504-0.181-4.496,1.579-7.162l-1.685-1.835L196.68,311.375z"/>
				<path clip-path="url(#SVGID_6_)" fill="#F65D4A" d="M150.021,336.435c-2.6,5.182,1.677,15.396,4.893,21.448
					c-0.14-1.919-0.18-3.811-0.164-5.65c0.11-11.924,5.189-19.16,8.801-22.815c-2.191-0.173-4.314,0.049-6.238,0.687
					C154.082,331.178,151.561,333.367,150.021,336.435"/>
				<path clip-path="url(#SVGID_6_)" fill="#F65D4A" d="M213.595,337.183c-4.039-3.825-9.613-5.576-16.993-5.404
					c1.852,2.331,4.468,6.423,5.271,11.658c0.217,0.864,2.108,7.812,7.092,9.427c2.639,0.877,5.27-0.403,6.706-3.269
					c0.335-0.669,1.149-0.939,1.818-0.603c0.668,0.336,0.938,1.149,0.604,1.818c-0.977,1.944-2.402,3.373-4.049,4.205
					c3.338,3.234,3.474,9.394,3.479,9.729c0.009,0.606-0.382,1.123-0.928,1.304c-0.127,0.042-0.264,0.067-0.406,0.069
					c-0.747,0.011-1.365-0.587-1.376-1.334c0-0.083-0.19-8.317-5.009-8.96c-3.788-0.506-6.33-3.046-7.972-5.649
					c-0.115,0.846-0.258,1.759-0.419,2.732c-0.002,0.012-0.006,0.024-0.007,0.035c-0.194,1.166-0.411,2.402-0.647,3.733
					c-2.058,11.615-5.077,29.08,2.022,37.4c3.203,0.055,6.104-0.068,8.563-1.068h0.002c6.738-2,10.279-7.838,10.52-16.871
					C222.294,360.116,221.957,345.099,213.595,337.183"/>
				<path clip-path="url(#SVGID_6_)" fill="#F65D4A" d="M186.4,390.843c4.712,1.558,8.984,2.521,12.813,2.932
					c-5.888-9.444-3.285-25.334-1.294-36.604c-1.266,1.039-2.656,1.94-4.023,2.827c-0.547,0.354-1.087,0.703-1.608,1.055
					c-1.066,0.856-2.084,1.662-3.081,2.444c-0.338,0.34-0.656,0.691-0.934,1.065c-2.68,3.602-0.839,8.191-0.819,8.239
					c0.284,0.689-0.043,1.481-0.732,1.768c-0.032,0.014-0.063,0.026-0.095,0.036c-0.666,0.222-1.398-0.104-1.673-0.76
					c-0.074-0.176-1.294-3.192-0.668-6.671c-3.283,2.301-6.345,4.062-9.515,5.113c-0.71,0.236-1.476-0.148-1.713-0.858
					c-0.235-0.71,0.15-1.478,0.86-1.713c2.707-0.898,5.377-2.387,8.25-4.356c-5.671,1.675-7.407,0.409-8.123-0.113
					c-0.604-0.44-0.737-1.289-0.296-1.893c0.441-0.604,1.289-0.737,1.893-0.296c0.659,0.48,3.697,1.589,15.144-4.259
					c0.543-0.367,1.093-0.725,1.638-1.077c2.542-1.645,4.94-3.209,6.354-5.483c0.229-1.39,0.417-2.647,0.533-3.727
					c0.93-8.715-4.968-15.339-6.245-16.661c-3.535-0.657-9.35-3.28-8.844-9.275c0.443-5.21,6.863-8.67,9.958-10.047l-3.769-5.372
					c-1.521,0.332-3.015,0.745-4.452,1.222c-7.538,2.502-16.568,7.883-16.785,19.317c-0.009,0.462-0.253,0.888-0.648,1.13
					c-0.441,0.273-10.881,6.934-11.034,23.526C157.413,361.033,157.162,381.174,186.4,390.843"/>
			</g>
		</g>
	</g>
</g>
</svg>
