<svg xmlns="http://www.w3.org/2000/svg">
<defs>
<font id="AraJozoor-Regular" horiz-adv-x="0" >
  <font-face 
    font-family="Ara Jozoor"
    font-weight="400"
    font-stretch="normal"
    units-per-em="2048"
    panose-1="0 0 5 0 0 0 0 0 0 0"
    ascent="1638"
    descent="-410"
    x-height="960.002"
    cap-height="1381"
    bbox="-358.999 -652.001 3567 1861"
    underline-thickness="50"
    underline-position="-50"
    unicode-range="U+0020-U+FEFC"
  />
<missing-glyph horiz-adv-x="3607" 
d="M581 695c20 0 37 -7 51 -21s21 -31 21 -51v-552c0 -19.333 -7 -36 -21 -50s-31 -21 -51 -21h-194v623c0 20 7 37 21 51s30.667 21 50 21h123zM850 615c0 -15.333 -6 -29.666 -18 -42.999c-11.333 -11.333 -25.333 -17 -42 -17c-14 0 -28 5.66699 -42 17
c-12 13.333 -18 27.666 -18 42.999c0 16 6 30 18 42s26 18 42 18s30 -6 42 -18s18 -26 18 -42zM839 615c0 12.667 -5.00195 24 -15.002 34c-9.33301 9.33301 -20.666 14 -33.999 14c-5.33301 0 -11.666 -1 -18.999 -3c-6.66699 -4 -11.667 -7.66699 -15 -11
c-9.33301 -9.33301 -14 -20.666 -14 -33.999c0 -14 4.66699 -25.667 14 -35s20.666 -14 33.999 -14c8 0 14.333 1.33301 19 4c12.667 6 21.334 14.667 26.001 26c2.66699 5.33301 4 11.666 4 18.999zM802.998 610l20 -29.999h-15l-18 30h-11v-30h-12v69h30
c16.667 0 25 -6.33301 25 -19s-6.33301 -19.334 -19 -20.001zM787.998 620.001c8.66699 0 14.667 0.999023 18 2.99902c2.66699 0.666992 4 3.33398 4 8.00098c0 6 -5 9 -15 9h-16v-20h9zM1519 510c38.667 -40 58 -99 58 -177v-101c0 -78 -19.333 -137 -58 -177
c-36.667 -38.667 -88.667 -58 -156 -58c-68 0 -120.333 19.333 -157 58c-38.667 40 -58 99 -58 177v101c0 78 19.333 137 58 177c36.667 38.667 89 58 157 58c67.333 0 119.333 -19.333 156 -58zM2475 510c38.667 -40 58 -99 58 -177v-101c0 -78 -19.333 -137 -58 -177
c-36.667 -38.667 -89 -58 -157 -58c-67.333 0 -119.666 19.333 -157 58c-38.667 40.667 -58 99.667 -58 177v101c0 77.333 19.333 136.333 58 177c37.333 38.667 89.666 58 157 58c68 0 120.333 -19.333 157 -58zM3045 232c0 -78 -19.333 -137 -58 -177

<glyph glyph-name="uniFB01" unicode="fi" horiz-adv-x="1225" 
d="M175 929c0 155.333 35.6699 274.667 107.003 358c70 82 169.667 123 299 123c66 0 117.667 -13 155 -39c36.667 -24.667 55 -58.667 55 -102c0 -48.667 -32.667 -89.667 -98 -123c-26.667 36 -60.334 54 -101.001 54c-44.667 0 -77.334 -21.333 -98.001 -64
c-19.333 -42 -29 -107.667 -29 -197v-14c58 5.33301 100.333 8 127 8c67.333 0 101 -28.333 101 -85c0 -27.333 -13 -69 -39 -125c-36 11.333 -75.333 17 -118 17c-8.66699 0 -33.667 -1.33301 -75 -4c0 -130 2.66699 -259 8 -387l7 -189c0 -58 -9.66699 -99 -29 -123
c-20 -24.667 -54.667 -37 -104 -37c-63.333 0 -136 18.667 -218 56c38.667 80 58 243.667 58 491c0 32.667 -1.33301 93.667 -4 183l-85 -4c-50.667 0 -76 26.667 -76 80c0 24 11 62.667 33 116c23.333 -4 48.666 -6 75.999 -6c20 0 36 0.666992 48 2v11zM1084 1139
c-33.333 -31.333 -75 -47 -125 -47c-40.667 0 -73.667 12.333 -99 37c-25.333 24 -38 55.333 -38 94c0 48 16 88 48 120s71.333 48 118 48c42.667 0 77.667 -13 105 -39c26.667 -25.333 40 -57.333 40 -96c0 -46.667 -16.333 -85.667 -49 -117zM919.003 2.00098
c-48.667 0 -83.001 11.002 -103.001 33.002c-19.333 21.333 -29 58 -29 110c0 21.333 3 80.666 9 177.999c6 98 9 185.333 9 262c0 152 -15.667 261 -47 327c76.667 36 150.334 54 221.001 54c90 0 135 -48.333 135 -145c0 -32.667 -3.33301 -99.334 -10 -200.001
s-10 -184.667 -10 -252c0 -130.667 16.333 -235.667 49 -315c-73.333 -34.667 -148 -52 -224 -52z" />
    <glyph glyph-name="uniFB02" unicode="fl" horiz-adv-x="1260" 
d="M953 0c-54 0 -90.001 13.998 -108.001 41.998c-16.667 24.667 -25 72 -25 142c0 26.667 4 118 12 274c7.33301 156 11 299 11 429c0 173.333 -8.33301 300 -25 380c-4 -60 -35 -101 -93 -123c-22.667 36 -56.667 54 -102 54c-104 0 -156 -87.667 -156 -263v-12
c70 6.66699 114.333 10 133 10c62 0 93 -29 93 -87c0 -34.667 -12.333 -75.667 -37 -123c-32 11.333 -63 17 -93 17c-9.33301 0 -43.333 -1.33301 -102 -4c0.666992 -134 3.33398 -265.667 8.00098 -395l7 -185c0 -56.667 -9.66699 -96.667 -29 -120
c-19.333 -24 -53.333 -36 -102 -36c-71.333 0 -143.666 17.333 -216.999 52c36.667 84 55 237.333 55 460c0 80.667 -2 153.334 -6 218.001l-87 -4c-49.333 0 -74 24.667 -74 74c0 28 11.667 68 35 120c15.333 -2.66699 38 -4 68 -4c24 0 42.667 0.666992 56 2v17
c0 149.333 38.667 265.333 116 348c76.667 81.333 184 122 322 122c71.333 0 138.333 -16.333 201 -49c79.333 32.667 144.333 49 195 49c51.333 0 86.666 -13.333 105.999 -40c18.667 -25.333 28 -68.666 28 -129.999c0 -17.333 -3.66699 -100 -11 -248
c-8 -148 -12 -287 -12 -417c0 -266 18 -438.667 54 -518c-69.333 -34.667 -143 -52 -221 -52z" />
    <glyph glyph-name="uniFEF5" unicode="&#xfedf;&#xfe82;" horiz-adv-x="1207" arabic-form="isolated" 
d="M232 1325c-8.66699 19.333 -7.66699 45.001 3 77.001c11.333 33.333 28.666 54.666 51.999 63.999c30 12.667 59.333 15.334 88 8.00098c18.667 -5.33301 57.667 -22 117 -50c36 -17.333 62.333 -22.333 79 -15c19.333 7.33301 33.666 33 42.999 77
c36 -19.333 56.333 -35.333 61 -48c8 -18.667 6 -44.334 -6 -77.001c-13.333 -34 -31.666 -56 -54.999 -66c-27.333 -11.333 -54 -13.666 -80 -6.99902c-16 4 -56 20.667 -120 50c-36.667 17.333 -63.667 22.333 -81 15c-20.667 -8 -34 -33.667 -40 -77
c-35.333 19.333 -55.666 35.666 -60.999 48.999zM1146 1133l3.00195 -911.002c0 -147.333 -67 -221 -201 -221h-770c-92.667 4.66699 -139 40 -139 106c0 51.333 18 100 54 146c25.333 -23.333 53.666 -35.666 84.999 -36.999h149c0.666992 12.667 1 33 1 61
c0 21.333 -2 153 -6 395l-6 387c0 36.667 10.667 66.334 32 89.001c23.333 21.333 53.666 32 90.999 32c66.667 0 122.667 -18.333 168 -55c-20 -32.667 -30 -97 -30 -193l12 -716h224c30 0 51 9.66699 63 29c12 18.667 18 50 18 94l-10 922c0 36.667 11 65.667 33 87
c22.667 22 53 33 91 33c65.333 0 121.333 -18.333 168 -55c-20 -32.667 -30 -97 -30 -193z" />
    <glyph glyph-name="uniFEF6" unicode="&#xfee0;&#xfe82;" horiz-adv-x="1456" arabic-form="final" 
d="M231 1325c-8 20 -6.99805 45.666 3.00195 76.999c11.333 33.333 29 54.666 53 63.999c30 12.667 59.667 15.334 89 8.00098c18.667 -5.33301 57 -22 115 -50c36 -17.333 62.333 -22.333 79 -15c19.333 7.33301 33.666 33 42.999 77c35.333 -19.333 56 -35.333 62 -48
c8 -19.333 6 -45 -6 -77c-12.667 -34 -31.334 -56 -56.001 -66c-26 -11.333 -52 -13.666 -78 -6.99902c-16 4 -56 20.667 -120 50c-38 17.333 -65.333 22.333 -82 15c-20 -8 -33.667 -33.667 -41 -77c-34 18.667 -54.333 35 -61 49zM1495 -0.000976562l-267.002 0.00195312
c-60 0 -103 19 -129 57c-35.333 -37.333 -85.666 -56 -150.999 -56h-769c-93.333 5.33301 -140 40.666 -140 105.999c0 51.333 18 100 54 146c26.667 -24 55.334 -36.333 86.001 -37h148c1.33301 25.333 2 45.666 2 60.999c0 37.333 -2.33301 169 -7 395s-7 355 -7 387
c0 37.333 11 67 33 89c22 21.333 52 32 90 32c66.667 0 123.334 -18.333 170.001 -55c-20.667 -32.667 -31 -97 -31 -193l12 -716h224c29.333 0 50.333 9.66699 63 29c11.333 18.667 17 50 17 94c0 59.333 -1.33301 216 -4 470s-4 404.667 -4 452c0 36.667 11 65.667 33 87
c22 22 52 33 90 33c66.667 0 122.667 -18.333 168 -55c-20 -32.667 -30 -97 -30 -193l3 -814c3.33301 -30.667 13.333 -55.667 30 -75c15.333 -18.667 31.666 -28 48.999 -28h267v-216z" />
    <glyph glyph-name="uniFEF7" unicode="&#xfedf;&#xfe84;" horiz-adv-x="1216" arabic-form="isolated" 
d="M295 1299c-14 2 -25.666 8.66895 -34.999 20.002c-8.66699 10 -13 21.333 -13 34c0 18.667 6.66699 36.667 20 54c8.66699 -8.66699 18.667 -13 30 -13h58c-20.667 27.333 -31 58.666 -31 93.999c0 44 16.333 79.667 49 107c32.667 26.667 76 40 130 40
c50.667 0 89.334 -12.667 116.001 -38c14.667 -14.667 20.667 -35.334 18 -62.001c-2.66699 -29.333 -19.334 -44 -50.001 -44c-24.667 0 -44.667 5 -60 15c5.33301 0 9.66602 4 12.999 12c3.33301 8.66699 4 18 2 28v1c-11.333 4.66699 -23 7 -35 7
c-22.667 0 -41 -7.33301 -55 -22c-14.667 -14.667 -22 -33.667 -22 -57c0 -46 23.333 -73 70 -81h112c34.667 -2 52 -15.333 52 -40c0 -29.333 -6.33301 -52.333 -19 -69c-11.333 9.33301 -22.333 14 -33 14h-317zM1145 1130l3 -909c0 -146.667 -67 -220 -201 -220h-769
c-92.667 4.66699 -139 39.667 -139 105c0 51.333 18 100.333 54 147c26.667 -24.667 55 -37 85 -37h149c0.666992 12.667 1 32.667 1 60c0 22 -2 153.333 -6 394c-4.66699 226 -7 355.333 -7 388c0 36.667 11 66 33 88c22.667 22 53 33 91 33
c64.667 0 120.667 -18.667 168 -56c-20.667 -32.667 -31 -97 -31 -193l12 -714h224c29.333 0 50.333 9.66699 63 29c12 18.667 18 49.667 18 93l-10 920c0 37.333 11 67 33 89c22 21.333 52.333 32 91 32c64.667 0 120.667 -18.667 168 -56c-20 -32.667 -30 -97 -30 -193z
" />
    <glyph glyph-name="uniFEF8" unicode="&#xfee0;&#xfe84;" horiz-adv-x="1454" arabic-form="final" 
d="M295 1299c-14 2 -25.665 8.66895 -34.998 20.002c-8.66699 10 -13 21.333 -13 34c0 18.667 6.66699 36.667 20 54c8.66699 -8.66699 18.667 -13 30 -13h58c-20.667 27.333 -31 58.666 -31 93.999c0 44 16.333 79.667 49 107c32.667 26.667 76 40 130 40
c50.667 0 89.334 -12.667 116.001 -38c14.667 -14.667 20.667 -35.334 18 -62.001c-2.66699 -29.333 -19.334 -44 -50.001 -44c-24.667 0 -44.667 5 -60 15c5.33301 0 9.66602 4 12.999 12c3.33301 8.66699 4 18 2 28v1c-12 4.66699 -23.667 7 -35 7
c-22.667 0 -41 -7.33301 -55 -22c-14.667 -14.667 -22 -33.667 -22 -57c0 -46 23.333 -73 70 -81h112c34.667 -2 52 -15.333 52 -40c0 -28.667 -6.66699 -51.667 -20 -69c-10.667 9.33301 -21.334 14 -32.001 14h-317zM1226 0.00195312c-60 0 -102.998 18.667 -128.998 56
c-34 -36.667 -84 -55 -150 -55h-769c-92.667 4.66699 -139 39.667 -139 105c0 51.333 18 100.333 54 147c25.333 -24.667 53.666 -37 84.999 -37h148c1.33301 25.333 2 45.333 2 60c0 22 -2 153.333 -6 394c-4.66699 226 -7 355.333 -7 388c0 36.667 11 66 33 88
s52 33 90 33c65.333 0 121.666 -18.667 168.999 -56c-20.667 -32.667 -31 -97 -31 -193l12 -714h224c29.333 0 50.333 9.66699 63 29c12 18.667 18 49.667 18 93l-10 920c0 37.333 11 67 33 89c22 21.333 52 32 90 32c65.333 0 121.333 -18.667 168 -56
c-20 -32.667 -30 -97 -30 -193l4 -811c3.33301 -30.667 13.333 -56 30 -76c14.667 -18 30.667 -27 48 -27h267v-216h-267z" />
    <glyph glyph-name="uniFEF9" unicode="&#xfedf;&#xfe88;" horiz-adv-x="1219" arabic-form="isolated" 
d="M1147 1133l4.00098 -911.001c0 -147.333 -67 -221 -201 -221h-770c-92.667 4.66699 -139 40 -139 106c0 50.667 17.667 99.334 53 146.001c26.667 -24 55.334 -36.333 86.001 -37h148c1.33301 25.333 2 45.666 2 60.999c0 21.333 -2 153 -6 395
c-4.66699 226 -7 355 -7 387c0 36.667 10.667 66.334 32 89.001c23.333 21.333 53.666 32 90.999 32c67.333 0 123.666 -18.333 168.999 -55c-20 -32.667 -30 -97 -30 -193l11 -716h225c29.333 0 50.333 9.66699 63 29c11.333 18.667 17 50 17 94l-5 470
c-2.66699 254 -4 404.667 -4 452c0 36.667 11 65.667 33 87c22 22 52 33 90 33c66 0 122.333 -18.333 169 -55c-20.667 -32.667 -31 -97 -31 -193zM582.001 -340.001c34 -0.666992 51.001 -13.666 51.001 -38.999c0 -28.667 -6.66699 -51.667 -20 -69
c-9.33301 8 -19.666 12.667 -30.999 14l-319 -1v1c-14 1.33301 -25.667 7.66602 -35 18.999c-8.66699 10.667 -13 22.334 -13 35.001c0 18.667 6.66699 36.667 20 54c8.66699 -8 18.334 -12.333 29.001 -13h59c-20.667 28.667 -31 60 -31 94c0 44 16.333 79.667 49 107
c33.333 27.333 77 41 131 41c52 0 90.333 -13 115 -39c15.333 -14.667 21.666 -35.334 18.999 -62.001c-2.66699 -30 -19.334 -45 -50.001 -45c-25.333 0 -45.333 5.33301 -60 16c4.66699 0 8.66699 3.66699 12 11c4 8.66699 5 18.334 3 29.001v2
c-14.667 3.33301 -26.334 5 -35.001 5c-23.333 0 -42.333 -7.33301 -57 -22c-14 -14.667 -21 -33.334 -21 -56.001c0 -46.667 23.333 -74 70 -82h114z" />
    <glyph glyph-name="uniFEFA" unicode="&#xfee0;&#xfe88;" horiz-adv-x="1457" arabic-form="final" 
d="M1222 0c-56 0 -97 18.999 -123 56.999c-33.333 -37.333 -83.666 -56 -150.999 -56h-769c-93.333 5.33301 -140 40.666 -140 105.999c0 52 18.333 100.667 55 146c25.333 -23.333 53.666 -35.666 84.999 -36.999h149c0.666992 12.667 1 33 1 61c0 21.333 -2 153 -6 395
l-6 387c0 36.667 10.667 66.334 32 89.001c23.333 21.333 53.666 32 90.999 32c65.333 0 121.333 -18.333 168 -55c-20.667 -32.667 -31 -97 -31 -193l13 -716h224c29.333 0 50.333 9.66699 63 29c12 18.667 18 50 18 94l-10 922c0 36.667 11 65.667 33 87
c22.667 22 53 33 91 33c65.333 0 121.333 -18.333 168 -55c-20 -32.667 -30 -97 -30 -193l3 -814c3.33301 -30.667 13 -55.667 29 -75c14.667 -18.667 31.334 -28 50.001 -28h267v-216h-274zM580 -340.001c34.667 -0.666992 52 -13.666 52 -38.999
c0 -28.667 -6.66699 -51.667 -20 -69c-8 8 -18.667 12.667 -32 14l-318 -1v1c-14 1.33301 -25.667 7.66602 -35 18.999c-8.66699 10.667 -13 22.334 -13 35.001c0 18.667 6.66699 36.667 20 54c8.66699 -7.33301 18.667 -11.666 30 -12.999h58
c-20 29.333 -30 60.666 -30 93.999c0 44 16.333 79.667 49 107c32 27.333 75 41 129 41c52 0 91 -13 117 -39c14 -15.333 19.667 -36 17 -62c-2.66699 -30 -19 -45 -49 -45c-26 0 -46.333 5.33301 -61 16c14.667 0 20 13.333 16 40v2c-14.667 3.33301 -26.667 5 -36 5
c-22 0 -40 -7.33301 -54 -22c-14.667 -14.667 -22 -33.334 -22 -56.001c0 -46.667 23.333 -74 70 -82h112z" />
    <glyph glyph-name="uniFEFB" unicode="&#xfedf;&#xfe8e;" horiz-adv-x="1215" arabic-form="isolated" 
d="M1144 1130l4.00195 -908.999c0 -146.667 -67 -220 -201 -220h-769c-92.667 4.66699 -139 39.667 -139 105c0 51.333 18 100.333 54 147c25.333 -24.667 53.666 -37 84.999 -37h148c1.33301 25.333 2 45.333 2 60c0 22 -2 153.333 -6 394c-4.66699 226 -7 355.333 -7 388
c0 36.667 11 66 33 88s52 33 90 33c65.333 0 121.666 -18.667 168.999 -56c-20.667 -32.667 -31 -97 -31 -193l12 -714h224c29.333 0 50.333 9.66699 63 29c11.333 18.667 17 49.667 17 93c0 59.333 -1.33301 215.666 -4 468.999l-5 451c0 37.333 11 67 33 89
c22 21.333 52 32 90 32c65.333 0 121.333 -18.667 168 -56c-20 -32.667 -30 -97 -30 -193z" />
    <glyph glyph-name="uniFEFC" unicode="&#xfee0;&#xfe8e;" horiz-adv-x="1453" arabic-form="final" 
d="M1219 0c-55.333 0 -95.999 18.668 -121.999 56.001c-34 -36.667 -84.333 -55 -151 -55h-768c-92.667 4.66699 -139 39.667 -139 105c0 51.333 18 100.333 54 147c25.333 -24.667 53.666 -37 84.999 -37h148c1.33301 25.333 2 45.333 2 60c0 38 -2.33301 169.333 -7 394
l-6 388c0 36.667 11 66 33 88s52 33 90 33c65.333 0 121.333 -18.667 168 -56c-20 -32.667 -30 -97 -30 -193l12 -714h224c29.333 0 50.333 9.66699 63 29c11.333 18.667 17 49.667 17 93l-5 469c-2.66699 253.333 -4 403.666 -4 450.999c0 37.333 11 67 33 89
c22 21.333 52 32 90 32c65.333 0 121.333 -18.667 168 -56c-20 -32.667 -30 -97 -30 -193l3 -811c3.33301 -30.667 13.333 -56 30 -76c14.667 -18 31 -27 49 -27h266v-216h-273z" />
    <glyph glyph-name="uniFB57" unicode="&#x67e;" horiz-adv-x="1557" arabic-form="final" 
d="M1308 0c-55.333 1.33301 -96.3301 20.333 -122.997 57c-34 -38 -84.667 -57 -152 -57h-536c-162 0 -276.667 23.667 -344 71c-68 48 -104 131.667 -108 251c-4 100 16.667 189 62 267c46 77.333 100 116 162 116c42.667 0 78 -32.667 106 -98
c-41.333 -17.333 -70.333 -51.333 -87 -102c-16 -50 -17 -103.333 -3 -160c11.333 -45.333 33.666 -77.666 66.999 -96.999c32.667 -19.333 81 -29 145 -29h401c30 0 51.333 9.66699 64 29c12 18.667 18 50 18 94c0 16 -1.66699 85 -5 207l-5 188c0 38 11 68 33 90
c22 21.333 52.333 32 91 32c64.667 0 120.667 -18.667 168 -56c-20 -32.667 -30 -97 -30 -193l3 -277c1.33301 -34 10.666 -62.333 27.999 -85c15.333 -20.667 32.666 -31.334 51.999 -32.001h267v-216h-274zM415.003 -306c-20 19.333 -30.001 44.667 -30.001 76
c0 34.667 12.333 64 37 88c25.333 24 55.666 36 90.999 36c32.667 0 59.334 -9.66699 80.001 -29c20.667 -20 31 -45 31 -75c0 -35.333 -12.333 -65 -37 -89c-25.333 -24 -56.666 -36 -93.999 -36c-32 0 -58 9.66699 -78 29zM716.002 -304.999
c-20 19.333 -30.002 44.333 -30.002 75c0 34.667 12.333 64 37 88s54.667 36 90 36c32.667 0 59.334 -9.66699 80.001 -29c21.333 -20 32 -45 32 -75c0 -35.333 -12.333 -65 -37 -89c-25.333 -24 -56.666 -36 -93.999 -36c-33.333 0 -59.333 10 -78 30zM545 -555.999
c-20 19.333 -30.001 44.667 -30.001 76c0 34.667 12.333 64 37 88c25.333 24 55.666 36 90.999 36c32.667 0 59.334 -9.66699 80.001 -29c20.667 -20 31 -45 31 -75c0 -35.333 -12.333 -65 -37 -89c-25.333 -24 -56.666 -36 -93.999 -36c-32 0 -58 9.66699 -78 29z" />
    <glyph glyph-name="uniFB58" unicode="&#x67e;" horiz-adv-x="550" arabic-form="initial" 
d="M480 610l4 -388.999c0 -147.333 -67.333 -221 -202 -221h-302v216h167c30 0.666992 51 10.667 63 30c12 18.667 18 50 18 94c0 15.333 -1.66699 84.666 -5 207.999l-5 189c0 38 11 68 33 90c22 21.333 52.333 32 91 32c64.667 0 120.667 -18.667 168 -56
c-20 -32.667 -30 -97 -30 -193zM20 -305.999c-20 19.333 -30.001 44.667 -30.001 76c0 34.667 12.333 64 37 88c25.333 24 55.666 36 90.999 36c32.667 0 59.334 -9.66699 80.001 -29c20.667 -20 31 -45 31 -75c0 -35.333 -12.333 -65 -37 -89
c-25.333 -24 -56.666 -36 -93.999 -36c-32 0 -58 9.66699 -78 29zM320.999 -304.998c-20 19.333 -30.002 44.333 -30.002 75c0 34.667 12.333 64 37 88s54.667 36 90 36c32.667 0 59.334 -9.66699 80.001 -29c21.333 -20 32 -45 32 -75c0 -35.333 -12.333 -65 -37 -89
c-25.333 -24 -56.666 -36 -93.999 -36c-32.667 0 -58.667 10 -78 30zM149.997 -555.998c-20 19.333 -30.001 44.667 -30.001 76c0 34.667 12.333 64 37 88c25.333 24 55.666 36 90.999 36c32.667 0 59.334 -9.66699 80.001 -29c20.667 -20 31 -45 31 -75
c0 -35.333 -12.333 -65 -37 -89c-25.333 -24 -56.666 -36 -93.999 -36c-32 0 -58 9.66699 -78 29z" />
    <glyph glyph-name="uniFB59" unicode="&#x67e;" horiz-adv-x="659" arabic-form="medial" 
d="M555 0c-54.667 0.666992 -94.9971 19.668 -120.997 57.001c-34.667 -38 -85.334 -57 -152.001 -57h-302v216h167c29.333 0.666992 50.333 10.667 63 30c11.333 18.667 17 50 17 94c0 40 -1.33301 109.333 -4 208l-5 189c0 38 11 68 33 90c22 21.333 52 32 90 32
c66 0 122.667 -18.667 170 -56c-20.667 -32.667 -31 -97 -31 -193l3 -277c1.33301 -34 10.666 -62.333 27.999 -85c15.333 -20.667 32.666 -31.334 51.999 -32.001h116v-216h-124zM70.0029 -305.999c-20 19.333 -30.001 44.667 -30.001 76c0 34.667 12.333 64 37 88
c25.333 24 55.666 36 90.999 36c32.667 0 59.334 -9.66699 80.001 -29c20.667 -20 31 -45 31 -75c0 -35.333 -12.333 -65 -37 -89c-25.333 -24 -56.666 -36 -93.999 -36c-32 0 -58 9.66699 -78 29zM371.002 -304.998c-20 19.333 -30.002 44.333 -30.002 75
c0 34.667 12.333 64 37 88s54.667 36 90 36c32.667 0 59.334 -9.66699 80.001 -29c21.333 -20 32 -45 32 -75c0 -35.333 -12.333 -65 -37 -89c-25.333 -24 -56.666 -36 -93.999 -36c-32.667 0 -58.667 10 -78 30zM200 -555.998c-20 19.333 -30.001 44.667 -30.001 76
c0 34.667 12.333 64 37 88c25.333 24 55.666 36 90.999 36c32.667 0 59.334 -9.66699 80.001 -29c20.667 -20 31 -45 31 -75c0 -35.333 -12.333 -65 -37 -89c-25.333 -24 -56.666 -36 -93.999 -36c-32 0 -58 9.66699 -78 29z" />
    <glyph glyph-name="uniFB6B" unicode="&#x6a4;" horiz-adv-x="1749" arabic-form="final" 
d="M1235 1256c-20 19.333 -30.001 44.667 -30.001 76c0 34.667 12.333 64 37 88c25.333 24 55.666 36 90.999 36c32.667 0 59.334 -9.66699 80.001 -29c20.667 -20 31 -45 31 -75c0 -35.333 -12.333 -65 -37 -89c-25.333 -24 -56.666 -36 -93.999 -36
c-32 0 -58 9.66699 -78 29zM1065 1016c-20 19.333 -30.001 44.667 -30.001 76c0 34.667 12.333 64 37 88c25.333 24 55.666 36 90.999 36c32.667 0 59.334 -9.66699 80.001 -29c20.667 -20 31 -45 31 -75c0 -35.333 -12.333 -65 -37 -89
c-25.333 -24 -56.666 -36 -93.999 -36c-32 0 -58 9.66699 -78 29zM1366 1017c-20 19.333 -30.002 44.333 -30.002 75c0 34.667 12.333 64 37 88s54.667 36 90 36c32.667 0 59.334 -9.66699 80.001 -29c21.333 -20 32 -45 32 -75c0 -35.333 -12.333 -65 -37 -89
c-25.333 -24 -56.666 -36 -93.999 -36c-33.333 0 -59.333 10 -78 30zM1657 0.00195312c-60 0 -102.999 18.998 -128.999 56.998c-34 -38 -84.667 -57 -152 -57h-935c-140.667 5.33301 -240.667 32 -300 80c-60 48 -92 128 -96 240c-4 100.667 16.667 189.667 62 267
c45.333 76.667 99 115 161 115c42.667 0 78 -32.667 106 -98c-40.667 -16 -69.334 -49.667 -86.001 -101c-16 -50 -17 -103 -3 -159c11.333 -45.333 33.333 -77.666 66 -96.999c32 -19.333 80.333 -29.666 145 -30.999h394c-35.333 58.667 -53 118.667 -53 180
c0 134.667 54 249 162 343c107.333 94 253 137.333 437 130c66.667 0 122.667 -18.333 168 -55c-20 -32.667 -30 -97 -30 -193l2 -270c1.33301 -4 2 -7.66699 2 -11c0 -36.667 8.66699 -67 26 -91c15.333 -22 33 -33 53 -33h117v-216h-117zM1306 237
c10.667 14 16.001 42 16.001 84c0 24.667 -1 75.334 -3 152.001l-5 185c-66 -16 -122.333 -49 -169 -99c-48.667 -50.667 -73 -104.334 -73 -161.001c0 -63.333 13.333 -109.333 40 -138c26.667 -29.333 70 -44 130 -44c31.333 0 52.666 7 63.999 21z" />
    <glyph glyph-name="uniFB6C" unicode="&#x6a4;" horiz-adv-x="978" arabic-form="initial" 
d="M569 1256c-20 19.333 -30.001 44.667 -30.001 76c0 34.667 12.333 64 37 88c25.333 24 55.666 36 90.999 36c32.667 0 59.334 -9.66699 80.001 -29c20.667 -20 31 -45 31 -75c0 -35.333 -12.333 -65 -37 -89c-25.333 -24 -56.666 -36 -93.999 -36
c-32 0 -58 9.66699 -78 29zM398.999 1016c-20 19.333 -30.001 44.667 -30.001 76c0 34.667 12.333 64 37 88c25.333 24 55.666 36 90.999 36c32.667 0 59.334 -9.66699 80.001 -29c20.667 -20 31 -45 31 -75c0 -35.333 -12.333 -65 -37 -89
c-25.333 -24 -56.666 -36 -93.999 -36c-32 0 -58 9.66699 -78 29zM699.998 1017c-20 19.333 -30.002 44.333 -30.002 75c0 34.667 12.333 64 37 88s54.667 36 90 36c32.667 0 59.334 -9.66699 80.001 -29c21.333 -20 32 -45 32 -75c0 -35.333 -12.333 -65 -37 -89
c-25.333 -24 -56.666 -36 -93.999 -36c-32.667 0 -58.667 10 -78 30zM906.996 621.002l4 -401c0 -146.667 -67 -220 -201 -220h-730v216h243c-35.333 58.667 -53 118.667 -53 180c0 134.667 54.333 249 163 343c107.333 94 253 137.333 437 130
c65.333 0 121.333 -18.333 168 -55c-20.667 -32.667 -31 -97 -31 -193zM638.996 237.002c11.333 14 17.001 42.001 17.001 84.001l-9 337c-66 -16 -122.333 -49 -169 -99c-48.667 -50.667 -73 -104.334 -73 -161.001c0 -62.667 13.333 -108.667 40 -138
c27.333 -29.333 70.666 -44 129.999 -44c32 0 53.333 7 64 21z" />
    <glyph glyph-name="uniFB6D" unicode="&#x6a4;" horiz-adv-x="1088" arabic-form="medial" 
d="M569 1256c-20 19.333 -30.001 44.667 -30.001 76c0 34.667 12.333 64 37 88c25.333 24 55.666 36 90.999 36c32.667 0 59.334 -9.66699 80.001 -29c20.667 -20 31 -45 31 -75c0 -35.333 -12.333 -65 -37 -89c-25.333 -24 -56.666 -36 -93.999 -36
c-32 0 -58 9.66699 -78 29zM398.999 1016c-20 19.333 -30.001 44.667 -30.001 76c0 34.667 12.333 64 37 88c25.333 24 55.666 36 90.999 36c32.667 0 59.334 -9.66699 80.001 -29c20.667 -20 31 -45 31 -75c0 -35.333 -12.333 -65 -37 -89
c-25.333 -24 -56.666 -36 -93.999 -36c-32 0 -58 9.66699 -78 29zM699.998 1017c-20 19.333 -30.002 44.333 -30.002 75c0 34.667 12.333 64 37 88s54.667 36 90 36c32.667 0 59.334 -9.66699 80.001 -29c21.333 -20 32 -45 32 -75c0 -35.333 -12.333 -65 -37 -89
c-25.333 -24 -56.666 -36 -93.999 -36c-32.667 0 -58.667 10 -78 30zM990.996 0.00195312c-60 1.33301 -102.999 20.333 -128.999 57c-34.667 -38 -85.334 -57 -152.001 -57h-730v216h243c-35.333 58.667 -53 118.667 -53 180c0 134.667 54.333 249 163 343
c107.333 94 253 137.333 437 130c66.667 0 122.667 -18.333 168 -55c-20 -32.667 -30 -97 -30 -193l2 -270c0.666992 -2 1 -5.66699 1 -11c0 -38.667 9.66699 -69.667 29 -93c14.667 -20.667 31.667 -31 51 -31h117v-216h-117zM638.997 237.002
c11.333 14 17.001 42 17.001 84c0 24.667 -1 75.334 -3 152.001l-5 185c-66 -16 -122.667 -49 -170 -99c-48.667 -50.667 -73 -104.334 -73 -161.001c0 -62.667 13.333 -108.667 40 -138c27.333 -29.333 70.666 -44 129.999 -44c32 0 53.333 7 64 21z" />
    <glyph glyph-name="uniFB7B" unicode="&#x686;" horiz-adv-x="1436" arabic-form="final" 
d="M1255 0c-78.667 0 -128.336 28.332 -149.003 84.999c-22.667 -36 -52 -59.667 -88 -71c-31.333 -9.33301 -88 -14 -170 -14h-226c-94.667 -0.666992 -168.334 -20.667 -221.001 -60c-50.667 -38.667 -76 -91 -76 -157s22.333 -119.667 67 -161
c44.667 -42 102.667 -63 174 -63c46 0 89.333 11.333 130 34c37.333 -62.667 56 -110.667 56 -144c0 -67.333 -61.667 -101 -185 -101c-147.333 0 -271.666 45 -372.999 135c-103.333 90 -155 201.667 -155 335c0 106 35.667 194.667 107 266s168.333 115.333 291 132h267
c-69.333 24.667 -172.333 81 -309 169c-145.333 94 -229.333 162.667 -252 206c-18.667 34.667 -21.667 70.334 -9 107.001c14 40.667 39.667 75.667 77 105c38.667 30 80.334 46 125.001 48c0 -40.667 32.667 -94.667 98 -162c62.667 -64.667 143.334 -130 242.001 -196
c99.333 -66 191 -115.333 275 -148c88.667 -34.667 152.334 -44.334 191.001 -29.001c3.33301 -31.333 3.33301 -64.666 0 -99.999h313v-216h-200zM666.998 -241.001c-20 19.333 -30.001 44.667 -30.001 76c0 34.667 12.333 64 37 88c25.333 24 55.666 36 90.999 36
c32.667 0 59.334 -9.66699 80.001 -29c20.667 -20 31 -45 31 -75c0 -35.333 -12.333 -65 -37 -89c-25.333 -24 -56.666 -36 -93.999 -36c-32 0 -58 9.66699 -78 29zM967.997 -240c-20 19.333 -30.002 44.333 -30.002 75c0 34.667 12.333 64 37 88s54.667 36 90 36
c32.667 0 59.334 -9.66699 80.001 -29c21.333 -20 32 -45 32 -75c0 -35.333 -12.333 -65 -37 -89c-25.333 -24 -56.666 -36 -93.999 -36c-32.667 0 -58.667 10 -78 30zM796.995 -491c-20 19.333 -30.001 44.667 -30.001 76c0 34.667 12.333 64 37 88
c25.333 24 55.666 36 90.999 36c32.667 0 59.334 -9.66699 80.001 -29c20.667 -20 31 -45 31 -75c0 -35.333 -12.333 -65 -37 -89c-25.333 -24 -56.666 -36 -93.999 -36c-32 0 -58 9.66699 -78 29z" />
    <glyph glyph-name="uniFB7C" unicode="&#x686;" horiz-adv-x="1207" arabic-form="initial" 
d="M1139 104c-24 -44.667 -54.002 -73.333 -90.002 -86c-32 -12 -91.667 -18 -179 -18h-890v216h746c-69.333 24 -172.333 80.333 -309 169c-144.667 94 -229 162.667 -253 206c-17.333 35.333 -20 71 -8 107c14 40.667 39.667 75.667 77 105
c38.667 30 80.334 46 125.001 48c0 -40.667 32.667 -94.667 98 -162c62.667 -64.667 143.334 -130 242.001 -196c228 -151.333 383.333 -210.333 466 -177c8 -96 -0.333008 -166.667 -25 -212zM339.998 -305.999c-20 19.333 -30.001 44.667 -30.001 76
c0 34.667 12.333 64 37 88c25.333 24 55.666 36 90.999 36c32.667 0 59.334 -9.66699 80.001 -29c20.667 -20 31 -45 31 -75c0 -35.333 -12.333 -65 -37 -89c-25.333 -24 -56.666 -36 -93.999 -36c-32 0 -58 9.66699 -78 29zM640.997 -304.998
c-20 19.333 -30.002 44.333 -30.002 75c0 34.667 12.333 64 37 88s54.667 36 90 36c32.667 0 59.334 -9.66699 80.001 -29c21.333 -20 32 -45 32 -75c0 -35.333 -12.333 -65 -37 -89c-25.333 -24 -56.666 -36 -93.999 -36c-32.667 0 -58.667 10 -78 30zM469.995 -555.998
c-20 19.333 -30.001 44.667 -30.001 76c0 34.667 12.333 64 37 88c25.333 24 55.666 36 90.999 36c32.667 0 59.334 -9.66699 80.001 -29c20.667 -20 31 -45 31 -75c0 -35.333 -12.333 -65 -37 -89c-25.333 -24 -56.666 -36 -93.999 -36c-32 0 -58 9.66699 -78 29z" />
    <glyph glyph-name="uniFB7D" unicode="&#x686;" horiz-adv-x="1457" arabic-form="medial" 
d="M1278 0c-78 1.33301 -128.002 29.666 -150.002 84.999c-22.667 -36 -51.667 -59.667 -87 -71c-31.333 -9.33301 -88 -14 -170 -14h-891v216h747c-62.667 22 -161.667 76 -297 162c-151.333 94.667 -239.666 165.667 -264.999 213c-18 34.667 -21 70.334 -9 107.001
c14 40.667 40 75.667 78 105c38.667 30 80 46 124 48c0 -40.667 32.667 -94.667 98 -162c62.667 -64.667 143.334 -130 242.001 -196c99.333 -66 191.333 -115.333 276 -148c88 -34.667 151.333 -44.334 190 -29.001c2.66699 -29.333 3 -62.666 1 -99.999h312v-216h-199z
M339.998 -306c-20 19.333 -30.001 44.667 -30.001 76c0 34.667 12.333 64 37 88c25.333 24 55.666 36 90.999 36c32.667 0 59.334 -9.66699 80.001 -29c20.667 -20 31 -45 31 -75c0 -35.333 -12.333 -65 -37 -89c-25.333 -24 -56.666 -36 -93.999 -36
c-32 0 -58 9.66699 -78 29zM640.997 -304.999c-20 19.333 -30.002 44.333 -30.002 75c0 34.667 12.333 64 37 88s54.667 36 90 36c32.667 0 59.334 -9.66699 80.001 -29c21.333 -20 32 -45 32 -75c0 -35.333 -12.333 -65 -37 -89c-25.333 -24 -56.666 -36 -93.999 -36
c-32.667 0 -58.667 10 -78 30zM469.995 -555.999c-20 19.333 -30.001 44.667 -30.001 76c0 34.667 12.333 64 37 88c25.333 24 55.666 36 90.999 36c32.667 0 59.334 -9.66699 80.001 -29c20.667 -20 31 -45 31 -75c0 -35.333 -12.333 -65 -37 -89
c-25.333 -24 -56.666 -36 -93.999 -36c-32 0 -58 9.66699 -78 29z" />
    <glyph glyph-name="uniFB8B" unicode="&#x698;" horiz-adv-x="836" arabic-form="final" 
d="M368 1256c-20 19.333 -30.001 44.667 -30.001 76c0 34.667 12.333 64 37 88c25.333 24 55.666 36 90.999 36c32.667 0 59.334 -9.66699 80.001 -29c20.667 -20 31 -45 31 -75c0 -35.333 -12.333 -65 -37 -89c-25.333 -24 -56.666 -36 -93.999 -36
c-32 0 -58 9.66699 -78 29zM197.999 1016c-20 19.333 -30.001 44.667 -30.001 76c0 34.667 12.333 64 37 88c25.333 24 55.666 36 90.999 36c32.667 0 59.334 -9.66699 80.001 -29c20.667 -20 31 -45 31 -75c0 -35.333 -12.333 -65 -37 -89
c-25.333 -24 -56.666 -36 -93.999 -36c-32 0 -58 9.66699 -78 29zM498.998 1017c-20 19.333 -30.002 44.333 -30.002 75c0 34.667 12.333 64 37 88s54.667 36 90 36c32.667 0 59.334 -9.66699 80.001 -29c21.333 -20 32 -45 32 -75c0 -35.333 -12.333 -65 -37 -89
c-25.333 -24 -56.666 -36 -93.999 -36c-32.667 0 -58.667 10 -78 30zM655.996 0.00195312c-42 0 -75.668 8 -101.001 24c0 -134 -17 -229.667 -51 -287c-49.333 -82 -143.333 -123 -282 -123c-50 0 -93 13 -129 39c-36 25.333 -54 55 -54 89c0 35.333 18 76.333 54 123
c26.667 -24.667 56.334 -37 89.001 -37c44 0 75.667 18 95 54c18.667 36.667 28 96.667 28 180c0 28 -0.666992 65.333 -2 112c0.666992 4 1 29 1 75c0 27.333 -2 109.333 -6 246c-2.66699 122 -4 198.333 -4 229c0 38 11 69 33 93c22.667 24 52.667 36 90 36
c70 0 126.333 -21.333 169 -64c-20.667 -32.667 -31 -97 -31 -193c0 -172 0.333008 -298.667 1 -380h299v-216h-199z" />
    <glyph glyph-name="uniFB93" unicode="&#x6af;" horiz-adv-x="1482" arabic-form="final" 
d="M1385 0c-56.667 0 -98 19.665 -124 58.998c-33.333 -39.333 -83.666 -59 -150.999 -59h-701c-128.667 9.33301 -220.667 38.333 -276 87c-55.333 48 -84.666 126 -87.999 234c-4 100 16.667 188.667 62 266s99 116 161 116c42.667 0 77.667 -32.667 105 -98
c-40.667 -16 -69.334 -49.667 -86.001 -101c-16 -50 -17 -103.333 -3 -160c11.333 -45.333 33.666 -77.666 66.999 -96.999c32 -18.667 80 -29 144 -31h481c29.333 0 50 9.66699 62 29c12 18.667 18 50.334 18 95.001c0 58.667 -1.33301 214.667 -4 468l-5 451
c0 36.667 11 66 33 88s52 33 90 33c65.333 0 121.333 -18.667 168 -56c-20 -32.667 -30 -97 -30 -193l3 -790c0 -36 8.66699 -66.333 26 -91c16 -22 34 -33.333 54 -34h116v-216h-122zM536 1184c-4 14 0.999023 23.667 14.999 29l121 53c74 32.667 114.333 50.667 121 54
c16.667 6 28.334 12.333 35.001 19c12 -7.33301 19.667 -17.333 23 -30c3.33301 -14 -2 -23.667 -16 -29l-121 -53c-84 -36.667 -124.667 -54.667 -122 -54c-17.333 -6 -28.333 -12.333 -33 -19c-12 6.66699 -19.667 16.667 -23 30zM562.999 811.998
c-20.667 28.667 -31 60.333 -31 95c0 44 16.333 79.667 49 107c32.667 26.667 76 40 130 40c52 0 91 -13 117 -39c14 -14 19.667 -34.333 17 -61c-2.66699 -30 -19 -45 -49 -45c-26 0 -46.333 5 -61 15c5.33301 0 10 4.33301 14 13c3.33301 8 4 17 2 27v2
c-13.333 4 -25.333 6 -36 6c-22 0 -40.333 -7.33301 -55 -22s-22 -33.334 -22 -56.001c0 -45.333 23.333 -72.666 70 -81.999h113c34.667 -2 52 -15.333 52 -40c0 -28 -6.66699 -50.667 -20 -68c-9.33301 8 -20 12.667 -32 14h-317c-14 1.33301 -25.667 7.66602 -35 18.999
c-9.33301 10 -14 21.333 -14 34c0 18.667 6.66699 36.667 20 54c8.66699 -7.33301 18.667 -11.666 30 -12.999h58z" />
    <glyph glyph-name="uniFB94" unicode="&#x6af;" horiz-adv-x="1236" arabic-form="initial" 
d="M237 1187c-6 14 -2.66797 24.333 9.99902 31l111 72c66.667 43.333 103.667 67.666 111 72.999c14 6.66699 24.667 14.667 32 24c12.667 -6 21.667 -14.667 27 -26c6 -13.333 2.33301 -23.666 -11 -30.999l-111 -72c-81.333 -52 -118.666 -76.333 -111.999 -73
c-16.667 -8 -26.667 -16 -30 -24c-12.667 5.33301 -21.667 14 -27 26zM1168 104c-24 -44.667 -54 -73.334 -90 -86.001c-32 -12 -91.667 -18 -179 -18h-919v216h809c-10.667 4 -110.334 76.333 -299.001 217c-169.333 127.333 -291.333 191 -366 191
c-50 42.667 -77 87 -81 133c-4 45.333 10.333 85.666 43 120.999c30.667 32.667 85.667 69.334 165 110.001c368 187.333 565.667 320 593 398c80.667 -66 123.334 -127.333 128.001 -184c4 -41.333 -5.33301 -71.666 -28 -90.999c-14.667 -12 -77 -46.333 -187 -103
l-374 -189c57.333 -30 207.666 -141 450.999 -333c185.333 -145.333 305 -207.333 359 -186c8.66699 -84 0.333984 -149.333 -24.999 -196z" />
    <glyph glyph-name="uniFB95" unicode="&#x6af;" horiz-adv-x="1470" arabic-form="medial" 
d="M1284 0c-68 1.33301 -113.336 25.332 -136.003 71.999c-22 -30.667 -50.333 -50.667 -85 -60c-31.333 -8 -86 -12 -164 -12h-919v216h809c-11.333 4 -110.666 76.333 -297.999 217c-169.333 127.333 -291.666 191 -366.999 191c-48.667 42.667 -75.667 87 -81 133
c-4 45.333 10.333 85.666 43 120.999c30.667 32.667 86 69.334 166 110.001c366.667 186.667 564.334 319.334 593.001 398.001c80 -66 122.333 -127.333 127 -184c4.66699 -44 -13.333 -80.333 -54 -109c-24 -16 -141.333 -76.667 -352 -182l-182 -92
c55.333 -28.667 205.333 -139.667 450 -333c185.333 -145.333 305 -207.333 359 -186c2.66699 -23.333 3 -51.333 1 -84h296v-216h-206zM172.997 1115c-4.66699 14 -0.333008 24.001 13 30.001l233 126c14.667 7.33301 25.667 14.666 33 21.999
c12 -6.66699 20.333 -16 25 -28c5.33301 -14 1 -24 -13 -30c2 0.666992 -37 -20.333 -117 -63l-117 -63c-17.333 -8 -27.666 -15.333 -30.999 -22c-12.667 6 -21.334 15.333 -26.001 28z" />
    <glyph glyph-name="uniFBFD" unicode="&#x6cc;" horiz-adv-x="1760" arabic-form="final" 
d="M1578 0c-134 0 -201.001 73.332 -201.001 219.999v69c0.666992 38.667 1.66699 67 3 85l-1 160c0 29.333 -9.33301 50.333 -28 63c-18.667 11.333 -50.334 17 -95.001 17h-4c34 -254 -36.333 -437 -211 -549c-154 -100 -332 -119 -534 -57
c-159.333 50.667 -275.333 116.334 -348 197.001c-80 88.667 -120 209 -120 361c0 124 33.333 186 100 186c34.667 0 82.667 -18.667 144 -56c-26.667 -47.333 -38 -90.666 -34 -129.999c12 -112 59.333 -202 142 -270c78 -64.667 169.667 -96 275 -94
c106.667 2 191.334 38 254.001 108c66.667 74.667 94 173.667 82 297l-73 -2c-37.333 0 -67 11 -89 33c-21.333 22 -32 52 -32 90c0 43.333 18.667 88.666 56 135.999c32.667 -20.667 97 -31 193 -31l175 2c63.333 0.666992 116.333 1 159 1c146.667 0 220 -67 220 -201
v-299c0 -48 4 -79.333 12 -94c8.66699 -17.333 27.334 -26 56.001 -26h100v-216h-201z" />
    <glyph glyph-name="uniFC5E" unicode="&#xfc5e;" arabic-form="isolated" 
d="M146 266c0 -16 -4.00098 -30.001 -12.001 -42.001c-5.33301 4.66699 -18.666 7 -39.999 7h-101c-48.667 0.666992 -77 2.66699 -85 6c-28 13.333 -42 38.333 -42 75c0 4.66699 0.333008 8.33398 1 11.001c2 14.667 -4 26 -18 34c-10.667 6 -22.667 8.66699 -36 8
c-4 26.667 4 40 24 40c11.333 1.33301 22 -1 32 -7c33.333 -18 48.333 -42 45 -72v-3c0 -18.667 13 -28.667 39 -30v6c1.33301 47.333 15.333 80.333 42 99c12 8.66699 26 13 42 13c34.667 0 62 -12.667 82 -38s29 -59 27 -101v-6zM1.99902 292.999l104 -0.000976562
c-3.33301 14.667 -12.333 28.334 -27 41.001c-15.333 13.333 -29.333 20 -42 20c-26 0 -37.667 -20.333 -35 -61zM196.999 178.998c-6 -8.66699 -9 -28.668 -9 -60.001v-27l2 -23c0 -39.333 -22.333 -61.666 -67 -66.999c-42.667 -6 -74 4.33301 -94 31
c-14.667 -22 -49.667 -33 -105 -33c-46 0 -69 22 -69 66v50c0 32 -3 52 -9 60c13.333 10 25 15 35 15c22.667 0 34 -10.667 34 -32l-1 -61c0 -24 10 -37.667 30 -41c11.333 -2 22.333 0 33 6c10.667 6.66699 16 15.667 16 27v8c0 11.333 -0.333008 20.333 -1 27l-2 22
c0 21.333 11.667 32 35 32c10 0 21.333 -5 34 -15c-6 -8 -9 -23 -9 -45l2 -30c0 -11.333 6.33301 -19.333 19 -24c15.333 -5.33301 28.333 -6 39 -2c14 4.66699 21 16.667 21 36c0 12 -0.333008 23 -1 33c-2 15.333 -3 25 -3 29c0 20.667 11.333 31 34 31
c12 0 24 -4.33301 36 -13z" />
    <glyph glyph-name="uniFC5F" unicode="&#xfc5f;" arabic-form="isolated" 
d="M162 404c-6 -8 -9.00195 -25.998 -9.00195 -53.998v-26l2 -21c0 -36 -20.333 -56.667 -61 -62c-40 -4.66699 -68.667 5.66602 -86 30.999c-14 -21.333 -46.667 -32 -98 -32c-42 0 -63 20 -63 60v47c0 28.667 -3 47 -9 55c12.667 9.33301 23.667 14 33 14
c21.333 0 32 -9.66699 32 -29l-2 -27c-0.666992 -24.667 -0.666992 -38.667 0 -42c2.66699 -14.667 11.667 -23 27 -25c11.333 -2 21.666 -0.333008 30.999 5c10.667 6 15.334 14.333 14.001 25l2 -2v9c0 7.33301 -1 15.333 -3 24l-2 21c0 19.333 10.667 29 32 29
c10 0 21 -4 33 -12c-6 -8 -9 -22.667 -9 -44l1 -27c0.666992 -10 7.33398 -17 20.001 -21c12.667 -5.33301 24.334 -6 35.001 -2c12.667 4.66699 19 16 19 34l-2 30c-0.666992 9.33301 -1 17.666 -1 24.999c0 20 10.333 30 31 30c9.33301 0 20.333 -4.33301 33 -13z
M-100.002 102.002l224.999 -1.00098c15.333 -1.33301 24 5.66699 26 21c2 14.667 -1.66699 27.667 -11 39c-6.66699 -4 -19.667 -6 -39 -6c-22 2 -97.667 3 -227 3c-16.667 0 -25 -8.66699 -25 -26c0 -13.333 3.33301 -24.666 10 -33.999c6.66699 4 20.334 5.33301 41.001 4
zM-100.003 5.00098l114 -1.99805h111c15.333 -0.666992 24 6.66602 26 21.999c2 14 -1.66699 26.667 -11 38c-6.66699 -4 -19.667 -6 -39 -6l-227 3c-16.667 0 -25 -8.33301 -25 -25c0 -14.667 3.33301 -26.334 10 -35.001c7.33301 4 21 5.66699 41 5z" />
    <glyph glyph-name="uniFC60" unicode="&#xfc60;" arabic-form="isolated" 
d="M-107 263l240 -3.00098c16.667 0 26 8 28 24c1.33301 14.667 -2.66699 28 -12 40c-6.66699 -4.66699 -20.667 -6.66699 -42 -6c-144.667 0 -225 1 -241 3c-16 0 -25 -8 -27 -24c-1.33301 -15.333 2.66699 -28.666 12 -39.999c7.33301 4 21.333 6 42 6zM172 173.999
c-6 -8.66699 -9 -27.999 -9 -57.999l1 -50c0 -38 -21.667 -59.667 -65 -65c-41.333 -5.33301 -71.666 5 -90.999 31c-16.667 -25.333 -48.667 -36.333 -96 -33c-50 4 -75 26 -75 66v48c0 30.667 -3 50 -9 58c13.333 10 25 15 35 15c22 0 33 -10.333 33 -31v-27l-2 -33
c0 -22.667 9.66699 -35.667 29 -39c11.333 -2 22 -0.333008 32 5c11.333 6 17 14.667 17 26v8c0 10.667 -0.333008 19.667 -1 27l-2 21c0 20.667 11 31 33 31c10.667 0 22.334 -4.33301 35.001 -13c-6 -8.66699 -9 -24.334 -9 -47.001l1 -28c0 -11.333 6.66699 -19 20 -23
c13.333 -5.33301 25.666 -6 36.999 -2c14 4.66699 21 16.334 21 35.001c0 12 -0.333008 23 -1 33c-2.66699 23.333 -3.33398 36.666 -2.00098 39.999c2.66699 12.667 13.667 19 33 19c10 0 21.667 -4.66699 35 -14z" />
    <glyph glyph-name="uniFC61" unicode="&#xfc61;" arabic-form="isolated" 
d="M-56 327c-0.666992 46 13.001 78.998 41.001 98.998c12.667 8.66699 26.667 13.334 42 14.001c36.667 0.666992 65.667 -11.666 87 -36.999c22 -24.667 33 -59 33 -103c0 -14 -3.66699 -27.333 -11 -40c-12.667 6.66699 -41.667 8 -87 4l-61 -1
c-55.333 -1.33301 -90.666 1.33398 -105.999 8.00098c-18.667 9.33301 -28.334 31.666 -29.001 66.999c0 12 3 22.333 9 31c9.33301 16.667 25.666 17.334 48.999 2.00098c-6 -6.66699 -9 -14.334 -9 -23.001c2 -18 16 -27 42 -27v6zM19.001 383.998
c-20 -4.66699 -28 -25 -24 -61c63.333 2.66699 99.333 4 108 4c-4 14 -14 27 -30 39c-20.667 15.333 -38.667 21.333 -54 18zM187.001 188.998c-6.66699 -8.66699 -10.001 -29.6699 -10.001 -63.0029l1 -54c0 -41.333 -23.667 -65 -71 -71c-45.333 -6 -78 5.33301 -98 34
c-20 -27.333 -55.333 -39 -106 -35c-53.333 3.33301 -80 26.333 -80 69v54c0 32.667 -3.66699 53.667 -11 63c15.333 11.333 28 17 38 17c24.667 0 37 -11.667 37 -35c0 -9.33301 -0.333008 -19.333 -1 -30l-2 -34c0 -26 10.667 -40.667 32 -44c13.333 -2 25.333 0 36 6
c12 6.66699 18 16.334 18 29.001v9c0 4 -0.666992 13.333 -2 28c-2 11.333 -3 19 -3 23c0 22.667 12.667 34 38 34c10.667 0 23 -5 37 -15c-6.66699 -8.66699 -10 -25 -10 -49l1 -32c0.666992 -11.333 8.33398 -19.666 23.001 -24.999c14 -5.33301 27 -5.66602 39 -0.999023
c16 5.33301 24 18 24 38c0 7.33301 -1 19 -3 35l-2 30c0 22.667 12 34 36 34c11.333 0 24.333 -5 39 -15z" />
    <glyph glyph-name="uniFC62" unicode="&#xfc62;" arabic-form="isolated" 
d="M162 306c-6 -8 -9.00293 -26.001 -9.00293 -54.001v-25l2 -21c0 -36 -20.333 -56.333 -61 -61c-40 -5.33301 -68.667 4.33398 -86 29.001c-14 -20.667 -46.667 -31 -98 -31c-42 0 -63 20 -63 60v46c0 29.333 -3 48 -9 56c11.333 8.66699 22.333 13 33 13
c21.333 0 32 -9.33301 32 -28l-2 -27c-0.666992 -24.667 -0.666992 -38.667 0 -42c2.66699 -14 11.667 -22.667 27 -26c10.667 -2 21 0 31 6c10.667 6 15.334 14 14.001 24l2 -1v9c0 7.33301 -1 15.333 -3 24l-2 21c0 18.667 10.667 28 32 28c10 0 21 -4 33 -12
c-6 -8 -9 -22.333 -9 -43l1 -27c0.666992 -10 7.33398 -17 20.001 -21c12.667 -5.33301 24.334 -6 35.001 -2c12.667 4 19 15 19 33l-2 30c-0.666992 9.33301 -1 18 -1 26c0 20 10.333 30 31 30c8.66699 0 19.667 -4.66699 33 -14zM-100.003 4.99902l114 0.000976562l111 -2
c15.333 -0.666992 24 6.66602 26 21.999c2 14 -1.66699 26.667 -11 38c-6.66699 -4 -19.667 -6 -39 -6c-7.33301 2 -83 3 -227 3c-16.667 0 -25 -8.33301 -25 -25c0 -14 3.33301 -25.667 10 -35c7.33301 4 21 5.66699 41 5z" />
    <glyph glyph-name="uniFC63" unicode="&#xfc63;" arabic-form="isolated" 
d="M31 236c-1.33301 2.66699 0.333008 47.667 5 135c2 18 -6.33301 28.333 -25 31c-17.333 2.66699 -33 -1 -47 -11c14.667 -11.333 19 -56 13 -134c0 -20.667 10.333 -31 31 -31c7.33301 -1.33301 15 2 23 10zM185.999 187
c-6.66699 -7.33301 -10.001 -27.998 -10.001 -61.998l1 -53c2 -44 -21.333 -68 -70 -72c-46.667 -2.66699 -79 9 -97 35c-20 -28 -55.333 -40 -106 -36c-53.333 4 -80 27.333 -80 70v53c0 33.333 -3.33301 54.333 -10 63c14.667 10.667 27 16 37 16
c20.667 0 33 -6.66699 37 -20c0.666992 -4 0.333984 -18.333 -0.999023 -43c-0.666992 -10.667 -1 -22.334 -1 -35.001c0 -22.667 8.33301 -36.667 25 -42c12 -4 25.333 -3 40 3c12.667 8 19 18 19 30v9c0 11.333 -0.666992 20.666 -2 27.999s-2 15 -2 23
c0 22 12.667 33 38 33c11.333 0 23.666 -4.66699 36.999 -14c-6.66699 -7.33301 -10 -24 -10 -50l2 -29c0 -13.333 6.66699 -22 20 -26c42 -14 63 -2 63 36c0 13.333 -0.333008 25 -1 35c-2.66699 26 -3.66699 40.333 -3 43c2.66699 13.333 14.667 20 36 20
c10.667 0.666992 23.334 -4.33301 38.001 -15z" />
    <glyph glyph-name="uniFE82" unicode="&#x622;" horiz-adv-x="626" arabic-form="final" 
d="M341 1499c-17.333 4.66699 -57.6689 21.667 -121.002 51c-37.333 17.333 -64.666 22.333 -81.999 15c-20 -8 -34 -33.667 -42 -77c-35.333 19.333 -55.666 35.333 -60.999 48c-8 21.333 -6.66699 47.666 4 78.999c10.667 33.333 28 54.666 52 63.999
c30.667 12.667 61 15.334 91 8.00098c18 -4.66699 56.333 -21.334 115 -50.001c36.667 -17.333 63.334 -22.333 80.001 -15c19.333 8 33.666 34 42.999 78c35.333 -19.333 56 -35.666 62 -48.999c8.66699 -19.333 6.66699 -45.333 -6 -78c-13.333 -34.667 -32 -57 -56 -67
c-26 -11.333 -52.333 -13.666 -79 -6.99902zM317.997 0c-135.333 0 -203.001 74 -203.001 222l2 577l-6 471c0 37.333 11.333 67 34 89c22 22 52 33 90 33c66.667 0 123.334 -19 170.001 -57c-20 -32.667 -30 -97.334 -30 -194.001v-400l-2 -401
c0 -43.333 5.66699 -74.666 17 -93.999c13.333 -20 35 -30 65 -30h218v-216h-355z" />
    <glyph glyph-name="uniFE84" unicode="&#x623;" horiz-adv-x="622" arabic-form="final" 
d="M88 1488c-32.667 3.33301 -48.999 21.332 -48.999 53.999c0 18.667 6.66699 36.667 20 54c8.66699 -7.33301 18.667 -11.666 30 -12.999h59c-21.333 29.333 -32 61 -32 95c0 44 16.667 79.667 50 107c32.667 27.333 76 41 130 41c52 0 91 -13 117 -39
c14 -15.333 19.667 -36 17 -62c-2.66699 -30 -19 -45 -49 -45c-25.333 0 -45.666 5 -60.999 15c6 0 10.667 4 14 12s3.66602 17.667 0.999023 29v1c-12.667 4 -24.334 6 -35.001 6c-22.667 0 -41 -7 -55 -21c-14.667 -14.667 -22 -33.667 -22 -57
c0 -46.667 23.333 -74 70 -82h113c34.667 -2 52 -15.333 52 -40c0 -28 -6.66699 -50.667 -20 -68c-9.33301 8.66699 -20 13 -32 13h-318zM309.001 -0.000976562c-134.667 0 -201.999 73.668 -201.999 221.001c0 224 0.333008 415.667 1 575l-5 467c0 37.333 11 67 33 89
s52 33 90 33c65.333 0 121.666 -18.667 168.999 -56c-20 -32.667 -30 -97.334 -30 -194.001l-2 -796c0 -44 6 -75.333 18 -94c12 -19.333 33 -29 63 -29h217v-216h-352z" />
    <glyph glyph-name="uniFE86" unicode="&#x624;" horiz-adv-x="1029" arabic-form="final" 
d="M351 999c-14 1.33301 -25.665 7.66602 -34.998 18.999c-9.33301 10.667 -14 22.334 -14 35.001c0 18.667 6.66699 36.667 20 54c8 -8 18 -12.667 30 -14h59c-20.667 28.667 -31 60 -31 94c0 44.667 16.333 80.334 49 107.001c32 27.333 75 41 129 41
c51.333 0 90 -13 116 -39c14 -14 20 -34.333 18 -61c-2.66699 -30 -19 -45 -49 -45c-25.333 0 -45.666 5 -60.999 15c6 0 10.667 4 14 12s3.66602 17.333 0.999023 28v2c-12 4 -23.333 6 -34 6c-22.667 0 -41.334 -7.33301 -56.001 -22s-22 -33.334 -22 -56.001
c0 -46.667 23.667 -74 71 -82h112c34 -2 51 -15 51 -39c0 -29.333 -6.33301 -52.333 -19 -69c-10.667 9.33301 -21.334 14 -32.001 14h-317zM778.002 0c-0.666992 -94.667 -9.33008 -161.999 -25.9971 -201.999c-52 -122 -154.333 -183 -307 -183c-50 0 -93 12.667 -129 38
s-54 55 -54 89c0 35.333 18 76.333 54 123c27.333 -25.333 56.666 -38 87.999 -38c47.333 0 80.666 20 99.999 60c11.333 24.667 18.333 62.667 21 114h-25c-194 4 -330 65.333 -408 184c-35.333 55.333 -53 116.666 -53 183.999c0 68 14.333 135.667 43 203
c30 71.333 70 126.666 120 165.999c107.333 88.667 252.666 129.334 435.999 122.001c65.333 0 121.333 -17.333 168 -52c-20.667 -30.667 -31 -90.667 -31 -180c0 -27.333 0.666992 -89 2 -185c0 -25.333 0.333008 -51 1 -77c0.666992 -56 1 -106 1 -150h269v-216h-270z
M338.006 251.001c45.333 -24 108 -35.667 188 -35l-2 461c-60.667 -14 -117.667 -54.333 -171 -121c-52.667 -66 -79 -127.667 -79 -185c0 -53.333 21.333 -93.333 64 -120z" />
    <glyph glyph-name="uniFE88" unicode="&#x625;" horiz-adv-x="625" arabic-form="final" 
d="M310 0c-135.333 0 -203.001 74 -203.001 222l2 577l-6 471c0 37.333 11 67 33 89s52.333 33 91 33c66.667 0 123.334 -19 170.001 -57c-20 -32.667 -30 -97.334 -30 -194.001l-3 -801c0 -43.333 5.66699 -74.666 17 -93.999c13.333 -20 35 -30 65 -30h218v-216h-354z
M436.999 -342c34.667 -2 52.001 -15.6689 52.001 -41.002c0 -28 -7 -51 -21 -69c-9.33301 9.33301 -19.666 14 -30.999 14h-321v1c-14 0.666992 -25.667 6.66699 -35 18c-9.33301 10.667 -14 22.334 -14 35.001c0 18.667 6.66699 37.334 20 56.001c8 -8 18 -12.667 30 -14
h59c-20.667 28.667 -31 60.334 -31 95.001c0 44 16 80 48 108c33.333 27.333 77.666 41 132.999 41c52 0 91 -13 117 -39c14 -15.333 19.667 -36.333 17 -63c-2.66699 -30 -19 -45 -49 -45c-26 0 -46.333 5.33301 -61 16c6 0 10.667 4.33301 14 13s3.66602 18 0.999023 28v1
c-12.667 4 -24.667 6 -36 6c-22.667 0 -41 -7.33301 -55 -22c-14.667 -14.667 -22 -33.334 -22 -56.001c0 -47.333 23.667 -75 71 -83h114z" />
    <glyph glyph-name="uniFE8A" unicode="&#x626;" horiz-adv-x="1760" arabic-form="final" 
d="M24 894c-14 0.666992 -25.665 6.66797 -34.998 18.001c-8.66699 10 -13 21.667 -13 35c0 18.667 6.66699 36.667 20 54c8 -8 18 -12.667 30 -14h58c-20.667 28.667 -31 60 -31 94c0 44.667 16.333 80.334 49 107.001c32.667 27.333 76 41 130 41c51.333 0 90 -13 116 -39
c14 -15.333 19.667 -36 17 -62c-2.66699 -29.333 -19 -44 -49 -44c-24.667 0 -44.667 5 -60 15c5.33301 0 9.66602 4 12.999 12c3.33301 8.66699 4 18 2 28v2c-12.667 4 -24.334 6 -35.001 6c-22.667 0 -41 -7.33301 -55 -22c-14.667 -14.667 -22 -33.334 -22 -56.001
c0 -46 23.333 -73.333 70 -82h112c34 -2 51 -15 51 -39c0 -28.667 -6.33301 -51.334 -19 -68.001c-9.33301 8 -20 12.667 -32 14h-317zM1579 0.000976562c-134 0 -201.001 73.332 -201.001 219.999v69c0.666992 38.667 1.66699 67 3 85l-1 160
c0 29.333 -9.33301 50.333 -28 63c-18.667 11.333 -50.334 17 -95.001 17h-4c34 -254 -36.333 -437 -211 -549c-154 -100 -332 -119 -534 -57c-159.333 50.667 -275.333 116.334 -348 197.001c-80 88.667 -120 209 -120 361c0 124 33.333 186 100 186
c34.667 0 82.667 -18.667 144 -56c-26.667 -47.333 -38 -90.666 -34 -129.999c12 -112 59.333 -202 142 -270c78 -64.667 169.667 -96 275 -94c106.667 2 191.334 38 254.001 108c66.667 74.667 94 173.667 82 297l-73 -2c-37.333 0 -67 11 -89 33c-21.333 22 -32 52 -32 90
c0 43.333 18.667 88.666 56 135.999c32.667 -20.667 97 -31 193 -31l175 2c63.333 0.666992 116.333 1 159 1c146.667 0 220 -67 220 -201v-299c0 -48 4 -79.333 12 -94c8.66699 -17.333 27.334 -26 56.001 -26h100v-216h-201z" />
    <glyph glyph-name="uniFE8B" unicode="&#x626;" horiz-adv-x="569" arabic-form="initial" 
d="M484 1086c34 -0.666992 51 -13.667 51 -39c0 -28.667 -6.66699 -51.667 -20 -69c-8.66699 8.66699 -19 13.667 -31 15h-317c-14 0.666992 -25.667 6.66699 -35 18c-8.66699 10 -13 21.667 -13 35c0 18.667 6.66699 36.667 20 54c8 -8 18 -12.667 30 -14h58
c-20.667 28.667 -31 60 -31 94c0 44 16.333 79.667 49 107c32 26.667 75 40 129 40c50.667 0 89.334 -12.667 116.001 -38c14 -15.333 20 -36 18 -62c-2.66699 -29.333 -19 -44 -49 -44c-25.333 0 -45.666 5 -60.999 15c5.33301 0 9.66602 4 12.999 12s4.33301 17.333 3 28
v2c-12.667 4 -24.334 6 -35.001 6c-22.667 0 -41 -7.33301 -55 -22c-14.667 -14.667 -22 -33.667 -22 -57c0 -20.667 6 -38.667 18 -54c13.333 -14 30.333 -23 51 -27h113zM166 216c30 0 51.001 9.66602 63.001 28.999c12 18.667 18 50.334 18 95.001
c0 14.667 -1.66699 83.667 -5 207l-5 189c0 37.333 11 67 33 89c22 21.333 52 32 90 32c65.333 0 121.666 -18.667 168.999 -56c-20 -32.667 -30 -97 -30 -193l3 -388c0 -146.667 -67 -220 -201 -220h-321v216h186z" />
    <glyph glyph-name="uniFE8C" unicode="&#x626;" horiz-adv-x="825" arabic-form="medial" 
d="M167 993c-14 0.666992 -25.6641 6.66699 -34.9971 18c-8.66699 10 -13 21.667 -13 35c0 18.667 6.66699 36.667 20 54c8 -8 17.667 -12.667 29 -14h59c-20.667 28.667 -31 60 -31 94c0 44 16.333 79.667 49 107c32.667 26.667 76 40 130 40
c51.333 0 89.666 -12.667 114.999 -38c14 -15.333 20 -36 18 -62c-2.66699 -29.333 -19 -44 -49 -44c-25.333 0 -45.666 5 -60.999 15c6 0 10.667 4 14 12s3.66602 17.333 0.999023 28v2c-12.667 4 -24.334 6 -35.001 6c-22.667 0 -40.667 -7.66699 -54 -23
c-14.667 -14 -22 -32.667 -22 -56c0 -45.333 23 -72.333 69 -81h112c34.667 -0.666992 52 -13.667 52 -39c0 -28.667 -6.66699 -51.667 -20 -69c-8.66699 8.66699 -19.334 13.667 -32.001 15h-316zM561.003 0c-59.333 0 -101.997 18.999 -127.997 56.999
c-34.667 -38 -85.334 -57 -152.001 -57h-301v216h166c30 0 51 9.66699 63 29c12 18.667 18 50.334 18 95.001c0 14.667 -1.66699 83.667 -5 207c-2.66699 98.667 -4 161.667 -4 189c0 37.333 11 67 33 89c21.333 21.333 51 32 89 32c65.333 0 121.666 -18.667 168.999 -56
c-20 -32.667 -30 -97 -30 -193l3 -276c1.33301 -34 10.333 -62.333 27 -85c15.333 -20.667 32.666 -31 51.999 -31h284v-216h-284z" />
    <glyph glyph-name="uniFE8E" unicode="&#x627;" horiz-adv-x="622" arabic-form="final" 
d="M309 0c-134.667 0 -201.999 73.668 -201.999 221.001c0 224 0.333008 415.667 1 575l-5 467c0 37.333 11 67 33 89s52 33 90 33c65.333 0 121.666 -18.667 168.999 -56c-20 -32.667 -30 -97.334 -30 -194.001l-2 -796c0 -44 6 -75.333 18 -94c12 -19.333 33 -29 63 -29
h217v-216h-352z" />
    <glyph glyph-name="uniFE90" unicode="&#x628;" horiz-adv-x="1557" arabic-form="final" 
d="M1308 0c-55.333 1.33301 -96.3301 20.333 -122.997 57c-34 -38 -84.667 -57 -152 -57h-536c-162 0 -276.667 23.667 -344 71c-68 48 -104 131.667 -108 251c-4 100 16.667 189 62 267c46 77.333 100 116 162 116c42.667 0 78 -32.667 106 -98
c-41.333 -17.333 -70.333 -51.333 -87 -102c-16 -50 -17 -103.333 -3 -160c11.333 -45.333 33.666 -77.666 66.999 -96.999c32.667 -19.333 81 -29 145 -29h401c30 0 51.333 9.66699 64 29c12 18.667 18 50 18 94c0 16 -1.66699 85 -5 207l-5 188c0 38 11 68 33 90
c22 21.333 52.333 32 91 32c64.667 0 120.667 -18.667 168 -56c-20 -32.667 -30 -97 -30 -193l3 -277c1.33301 -34 10.666 -62.333 27.999 -85c15.333 -20.667 32.666 -31.334 51.999 -32.001h267v-216h-274zM733.003 -142c21.333 -20 31.999 -44.999 31.999 -74.999
c0 -35.333 -12.667 -65 -38 -89s-56.666 -36 -93.999 -36c-32 0 -58 9.66699 -78 29s-30 44.666 -30 75.999c0 34.667 12.333 64 37 88c25.333 24.667 55.666 37 90.999 37c32.667 0 59.334 -10 80.001 -30z" />
    <glyph glyph-name="uniFE91" unicode="&#x628;" horiz-adv-x="550" arabic-form="initial" 
d="M480 610l4 -388.999c0 -147.333 -67.333 -221 -202 -221h-302v216h167c30 0.666992 51 10.667 63 30c12 18.667 18 50 18 94c0 15.333 -1.66699 84.666 -5 207.999l-5 189c0 38 11 68 33 90c22 21.333 52.333 32 91 32c64.667 0 120.667 -18.667 168 -56
c-20 -32.667 -30 -97 -30 -193zM350 -141.999c20.667 -20 30.999 -44.999 30.999 -74.999c0 -35.333 -12.333 -65 -37 -89c-25.333 -24 -56.666 -36 -93.999 -36c-32.667 0 -58.667 9.66699 -78 29c-20 19.333 -30 44.666 -30 75.999c0 34.667 12.333 64 37 88
c24.667 24.667 55 37 91 37c32 0 58.667 -10 80 -30z" />
    <glyph glyph-name="uniFE92" unicode="&#x628;" horiz-adv-x="659" arabic-form="medial" 
d="M555 0c-54.667 0.666992 -94.9971 19.668 -120.997 57.001c-34.667 -38 -85.334 -57 -152.001 -57h-302v216h167c29.333 0.666992 50.333 10.667 63 30c11.333 18.667 17 50 17 94c0 40 -1.33301 109.333 -4 208l-5 189c0 38 11 68 33 90c22 21.333 52 32 90 32
c66 0 122.667 -18.667 170 -56c-20.667 -32.667 -31 -97 -31 -193l3 -277c1.33301 -34 10.666 -62.333 27.999 -85c15.333 -20.667 32.666 -31.334 51.999 -32.001h116v-216h-124zM417.003 -141.999c20.667 -20 31 -44.999 31 -74.999c0 -35.333 -12.333 -65 -37 -89
c-25.333 -24 -56.666 -36 -93.999 -36c-32 0 -58 9.66699 -78 29s-30 44.666 -30 75.999c0 34.667 12.333 64 37 88c25.333 24.667 55.666 37 90.999 37c32 0 58.667 -10 80 -30z" />
    <glyph glyph-name="uniFE94" unicode="&#x629;" horiz-adv-x="961" arabic-form="final" 
d="M308 1020c-20 20 -30 45.667 -30 77c0 35.333 12.333 65 37 89s55 36 91 36c32.667 0 59.667 -10 81 -30c20.667 -20 31 -44.667 31 -74c0 -36 -12.333 -66 -37 -90c-25.333 -24.667 -57 -37 -95 -37c-32 0 -58 9.66699 -78 29zM610 1020
c-20 20 -30.001 45.667 -30.001 77c0 35.333 12.667 65 38 89c24.667 24 54.667 36 90 36c32.667 0 59.667 -10 81 -30c20.667 -20 31 -44.667 31 -74c0 -36 -12.333 -66 -37 -90c-25.333 -24.667 -56.666 -37 -93.999 -37c-32 0 -58.333 9.66699 -79 29zM868.999 0
c-66 1.33301 -111.665 24.333 -136.998 69c-48 -46 -113 -69 -195 -69h-96c-125.333 0 -225 38 -299 114c-68.667 71.333 -101 159.333 -97 264c4.66699 153.333 59 272 163 356c105.333 88.667 251.666 130.334 438.999 125.001c65.333 0 121.666 -17.667 168.999 -53
c-20 -32 -30 -93.667 -30 -185l2 -270c0.666992 -2 1 -5 1 -9c0 -36.667 8.66699 -67 26 -91c16 -22.667 34 -34.334 54 -35.001h117v-216h-117zM533.001 306l-9 366c-61.333 -14.667 -117.333 -52.667 -168 -114c-50 -60.667 -75 -120 -75 -178
c0 -109.333 57 -164 171 -164c54 0 81 30 81 90z" />
    <glyph glyph-name="uniFE96" unicode="&#x62a;" horiz-adv-x="1558" arabic-form="final" 
d="M424 1019c-20 19.333 -30.002 44.667 -30.002 76c0 34.667 12.333 64 37 88c24.667 24.667 55 37 91 37c32.667 0 59.334 -10 80.001 -30s31 -45 31 -75c0 -35.333 -12.333 -65 -37 -89c-25.333 -24 -56.666 -36 -93.999 -36c-32 0 -58 9.66699 -78 29zM725.998 1019
c-20 19.333 -30 44.667 -30 76c0 34.667 12.333 64 37 88c24.667 24.667 54.667 37 90 37c32.667 0 59.667 -10 81 -30c20.667 -20 31 -45 31 -75c0 -35.333 -12.333 -65 -37 -89c-25.333 -24 -57 -36 -95 -36c-31.333 0 -57 9.66699 -77 29zM1315 0.00195312
c-59.333 0 -102.328 18.6699 -128.995 56.0029c-35.333 -37.333 -86 -56 -152 -56h-536c-162.667 0 -277.667 23.667 -345 71c-68 47.333 -104.333 130.666 -109 249.999c-3.33301 100.667 18 190 64 268c45.333 76.667 99 115 161 115c42.667 0 78 -32.667 106 -98
c-40.667 -16 -69.334 -50 -86.001 -102c-16 -50 -17 -104 -3 -162c11.333 -46 33.666 -78.667 66.999 -98c32 -18.667 80.333 -28 145 -28h401c30 0 51 9.66699 63 29c12 18.667 18 51 18 97c0 14.667 -1.66699 83.667 -5 207l-5 188c0 37.333 11 67 33 89
c22.667 22 53 33 91 33c65.333 0 121.666 -18.667 168.999 -56c-20.667 -32.667 -31 -97.334 -31 -194.001l3 -276c1.33301 -34.667 10.666 -63 27.999 -85c15.333 -20.667 32.666 -31.334 51.999 -32.001h267v-216h-267z" />
    <glyph glyph-name="uniFE97" unicode="&#x62a;" horiz-adv-x="676" arabic-form="initial" 
d="M125 1019c-20 19.333 -30.001 44.667 -30.001 76c0 34.667 12.333 64 37 88c24.667 24.667 55 37 91 37c32 0 58.667 -10 80 -30c20.667 -20 31 -45 31 -75c0 -35.333 -12.333 -65 -37 -89c-25.333 -24 -56.666 -36 -93.999 -36c-32 0 -58 9.66699 -78 29zM604.999 1190
c20.667 -20 30.999 -44.999 30.999 -74.999c0 -35.333 -12.333 -65 -37 -89c-25.333 -24 -56.666 -36 -93.999 -36c-32 0 -58 9.66699 -78 29s-30 44.666 -30 75.999c0 34.667 12.333 64 37 88c24.667 24.667 55 37 91 37c32 0 58.667 -10 80 -30zM510.998 803.002
c-20 -32.667 -29.999 -97.333 -29.999 -194l3 -389c0 -146.667 -67.333 -220 -202 -220h-302v216h167c30 0 51 9.66699 63 29c12 18.667 18 50.334 18 95.001c0 14.667 -1.66699 83.667 -5 207c-2.66699 99.333 -4 162.666 -4 189.999c0 37.333 11 67 33 89s52 33 90 33
c65.333 0 121.666 -18.667 168.999 -56z" />
    <glyph glyph-name="uniFE98" unicode="&#x62a;" horiz-adv-x="659" arabic-form="medial" 
d="M124 1019c-20 19.333 -30 44.667 -30 76c0 34.667 12.333 64 37 88c25.333 24.667 55.666 37 90.999 37c32.667 0 59.334 -10 80.001 -30c21.333 -20 32 -45 32 -75c0 -35.333 -12.333 -65 -37 -89c-25.333 -24 -57 -36 -95 -36c-32 0 -58 9.66699 -78 29zM426 1019
c-20 19.333 -30 44.667 -30 76c0 34.667 12.333 64 37 88c25.333 24.667 55.666 37 90.999 37c32 0 58.667 -10 80 -30c20.667 -20 31 -45 31 -75c0 -35.333 -12.333 -65 -37 -89c-25.333 -24 -56.666 -36 -93.999 -36c-32 0 -58 9.66699 -78 29zM563 0.00195312
c-59.333 0 -102.664 18.668 -129.997 56.001c-34 -37.333 -84.333 -56 -151 -56h-302v216h167c29.333 0 50.333 9.66699 63 29c11.333 18.667 17 50.334 17 95.001c0 39.333 -1.33301 108.333 -4 207l-5 190c0 37.333 11 67 33 89s52.333 33 91 33
c65.333 0 121.666 -18.667 168.999 -56c-20.667 -32.667 -31 -97.334 -31 -194.001l3 -276c1.33301 -34.667 10.666 -63 27.999 -85c15.333 -20.667 32.666 -31.334 51.999 -32.001h116v-216h-116z" />
    <glyph glyph-name="uniFE9A" unicode="&#x62b;" horiz-adv-x="1558" arabic-form="final" 
d="M590 1295c-20 19.333 -30.001 44.333 -30.001 75c0 34.667 12.333 64 37 88s54.667 36 90 36c32.667 0 59.667 -10 81 -30c20.667 -20 31 -44.667 31 -74c0 -35.333 -12.667 -65 -38 -89s-56.666 -36 -93.999 -36c-31.333 0 -57 10 -77 30zM423.999 1019
c-20 19.333 -30 44.667 -30 76c0 34.667 12.667 64 38 88c24.667 24.667 54.667 37 90 37c32.667 0 59.667 -10 81 -30c20.667 -20 31 -45 31 -75c0 -35.333 -12.333 -65 -37 -89c-25.333 -24 -57 -36 -95 -36c-32 0 -58 9.66699 -78 29zM725.999 1019
c-20 19.333 -30.002 44.667 -30.002 76c0 34.667 12.667 64 38 88c24.667 24.667 54.667 37 90 37c32.667 0 59.334 -10.333 80.001 -31c21.333 -19.333 32 -44 32 -74c0 -35.333 -12.667 -65 -38 -89s-56.666 -36 -93.999 -36c-32 0 -58 9.66699 -78 29zM1315 0.00195312
c-59.333 0 -102.328 18.6699 -128.995 56.0029c-35.333 -37.333 -86 -56 -152 -56h-536c-162.667 0 -277.667 23.667 -345 71c-68 47.333 -104.333 130.666 -109 249.999c-3.33301 100.667 18 190 64 268c45.333 76.667 99 115 161 115c42.667 0 78 -32.667 106 -98
c-40.667 -16 -69.334 -50 -86.001 -102c-16 -50 -17 -104 -3 -162c11.333 -46 33.666 -78.667 66.999 -98c32 -18.667 80.333 -28 145 -28h401c30 0 51 9.66699 63 29c12 18.667 18 51 18 97c0 14.667 -1.66699 83.667 -5 207l-5 188c0 37.333 11 67 33 89
c22.667 22 53 33 91 33c65.333 0 121.666 -18.667 168.999 -56c-20.667 -32.667 -31 -97.334 -31 -194.001l3 -276c1.33301 -34.667 10.666 -63 27.999 -85c15.333 -20.667 32.666 -31.334 51.999 -32.001h267v-216h-267z" />
    <glyph glyph-name="uniFE9B" unicode="&#x62b;" horiz-adv-x="676" arabic-form="initial" 
d="M291 1295c-20 19.333 -30.001 44.333 -30.001 75c0 34.667 12.333 64 37 88s54.667 36 90 36c32 0 58.667 -10 80 -30s32 -44.667 32 -74c0 -35.333 -12.667 -65 -38 -89s-56.666 -36 -93.999 -36c-32 0 -57.667 10 -77 30zM124.999 1019c-20 19.333 -30 44.667 -30 76
c0 34.667 12.333 64 37 88c25.333 24.667 55.666 37 90.999 37c32.667 0 59.334 -10 80.001 -30c21.333 -20 32 -45 32 -75c0 -35.333 -12.333 -65 -37 -89c-25.333 -24 -57 -36 -95 -36c-32 0 -58 9.66699 -78 29zM426.999 1019c-20 19.333 -30.001 44.667 -30.001 76
c0 34.667 12.333 64 37 88c25.333 24.667 55.666 37 90.999 37c32.667 0 59.334 -10.333 80.001 -31c21.333 -19.333 32 -44 32 -74c0 -35.333 -12.667 -65 -38 -89s-56.666 -36 -93.999 -36c-32 0 -58 9.66699 -78 29zM510.998 803.002
c-20 -32.667 -29.999 -97.333 -29.999 -194l3 -389c0 -146.667 -67.333 -220 -202 -220h-302v216h167c30 0 51 9.66699 63 29c12 18.667 18 50.334 18 95.001c0 14.667 -1.66699 83.667 -5 207c-2.66699 99.333 -4 162.666 -4 189.999c0 37.333 11 67 33 89s52 33 90 33
c65.333 0 121.666 -18.667 168.999 -56z" />
    <glyph glyph-name="uniFE9C" unicode="&#x62b;" horiz-adv-x="659" arabic-form="medial" 
d="M290 1295c-20 19.333 -30.001 44.333 -30.001 75c0 34.667 12.333 64 37 88s54.667 36 90 36c32 0 58.667 -10 80 -30s32 -44.667 32 -74c0 -35.333 -12.667 -65 -38 -89s-56.666 -36 -93.999 -36c-32 0 -57.667 10 -77 30zM123.999 1019c-20 19.333 -30 44.667 -30 76
c0 34.667 12.333 64 37 88c25.333 24.667 55.666 37 90.999 37c32.667 0 59.334 -10 80.001 -30c21.333 -20 32 -45 32 -75c0 -35.333 -12.333 -65 -37 -89c-25.333 -24 -57 -36 -95 -36c-32 0 -58 9.66699 -78 29zM425.999 1019c-20 19.333 -30.001 44.667 -30.001 76
c0 34.667 12.333 64 37 88c25.333 24.667 55.666 37 90.999 37c32.667 0 59.334 -10.333 80.001 -31c21.333 -19.333 32 -44 32 -74c0 -35.333 -12.667 -65 -38 -89s-56.666 -36 -93.999 -36c-32 0 -58 9.66699 -78 29zM562.998 0.00195312
c-59.333 0 -102.664 18.668 -129.997 56.001c-34 -37.333 -84.333 -56 -151 -56h-302v216h167c29.333 0 50.333 9.66699 63 29c11.333 18.667 17 50.334 17 95.001c0 39.333 -1.33301 108.333 -4 207l-5 190c0 37.333 11 67 33 89s52.333 33 91 33
c65.333 0 121.666 -18.667 168.999 -56c-20.667 -32.667 -31 -97.334 -31 -194.001l3 -276c1.33301 -34.667 10.666 -63 27.999 -85c15.333 -20.667 32.666 -31.334 51.999 -32.001h116v-216h-116z" />
    <glyph glyph-name="uniFE9E" unicode="&#x62c;" horiz-adv-x="1436" arabic-form="final" 
d="M1255 0c-78.667 0 -128.336 28.332 -149.003 84.999c-22.667 -36 -52 -59.667 -88 -71c-31.333 -9.33301 -88 -14 -170 -14h-226c-94.667 -0.666992 -168.334 -20.667 -221.001 -60c-50.667 -38.667 -76 -91 -76 -157s22.333 -119.667 67 -161
c44.667 -42 102.667 -63 174 -63c46 0 89.333 11.333 130 34c37.333 -62.667 56 -110.667 56 -144c0 -67.333 -61.667 -101 -185 -101c-147.333 0 -271.666 45 -372.999 135c-103.333 90 -155 201.667 -155 335c0 106 35.667 194.667 107 266s168.333 115.333 291 132h267
c-69.333 24.667 -172.333 81 -309 169c-145.333 94 -229.333 162.667 -252 206c-18.667 34.667 -21.667 70.334 -9 107.001c14 40.667 39.667 75.667 77 105c38.667 30 80.334 46 125.001 48c0 -40.667 32.667 -94.667 98 -162c62.667 -64.667 143.334 -130 242.001 -196
c99.333 -66 191 -115.333 275 -148c88.667 -34.667 152.334 -44.334 191.001 -29.001c3.33301 -31.333 3.33301 -64.666 0 -99.999h313v-216h-200zM541.998 -142.001c24.667 24 55.001 36.001 91.001 36.001c32 0 58.333 -10 79 -30c20.667 -19.333 31 -44 31 -74
c0 -35.333 -12.667 -65 -38 -89c-24.667 -24 -55.334 -36 -92.001 -36c-32.667 0 -58.667 9.66699 -78 29c-20 19.333 -30 44.666 -30 75.999c0 34.667 12.333 64 37 88z" />
    <glyph glyph-name="uniFE9F" unicode="&#x62c;" horiz-adv-x="1207" arabic-form="initial" 
d="M1139 104c-24 -44.667 -54.002 -73.333 -90.002 -86c-32 -12 -91.667 -18 -179 -18h-890v216h746c-69.333 24 -172.333 80.333 -309 169c-144.667 94 -229 162.667 -253 206c-17.333 35.333 -20 71 -8 107c14 40.667 39.667 75.667 77 105
c38.667 30 80.334 46 125.001 48c0 -40.667 32.667 -94.667 98 -162c62.667 -64.667 143.334 -130 242.001 -196c228 -151.333 383.333 -210.333 466 -177c8 -96 -0.333008 -166.667 -25 -212zM516.998 -135.999c21.333 -20 32 -44.666 32 -73.999
c0 -35.333 -12.333 -65 -37 -89c-25.333 -24 -57 -36 -95 -36c-32 0 -57.667 9.66699 -77 29c-20 19.333 -30 44.666 -30 75.999c0 34.667 12.333 64 37 88s54.667 36 90 36c32 0 58.667 -10 80 -30z" />
    <glyph glyph-name="uniFEA0" unicode="&#x62c;" horiz-adv-x="1457" arabic-form="medial" 
d="M1278 0c-78 1.33301 -128.002 29.666 -150.002 84.999c-22.667 -36 -51.667 -59.667 -87 -71c-31.333 -9.33301 -88 -14 -170 -14h-891v216h747c-62.667 22 -161.667 76 -297 162c-151.333 94.667 -239.666 165.667 -264.999 213c-18 34.667 -21 70.334 -9 107.001
c14 40.667 40 75.667 78 105c38.667 30 80 46 124 48c0 -40.667 32.667 -94.667 98 -162c62.667 -64.667 143.334 -130 242.001 -196c99.333 -66 191.333 -115.333 276 -148c88 -34.667 151.333 -44.334 190 -29.001c2.66699 -29.333 3 -62.666 1 -99.999h312v-216h-199z
M485.998 -136c20.667 -20 30.999 -44.666 30.999 -73.999c0 -35.333 -12.333 -65 -37 -89c-25.333 -24 -56.666 -36 -93.999 -36c-32 0 -58 9.66699 -78 29s-30 44.666 -30 75.999c0 34.667 12.333 64 37 88s55 36 91 36c32 0 58.667 -10 80 -30z" />
    <glyph glyph-name="uniFEA2" unicode="&#x62d;" horiz-adv-x="1436" arabic-form="final" 
d="M1255 0c-78.667 0 -128.336 28.332 -149.003 84.999c-22.667 -36 -52 -59.667 -88 -71c-31.333 -9.33301 -88 -14 -170 -14h-226c-94.667 -0.666992 -168.334 -20.667 -221.001 -60c-50.667 -38.667 -76 -91 -76 -157s22.333 -119.667 67 -161
c44.667 -42 102.667 -63 174 -63c46 0 89.333 11.333 130 34c37.333 -62.667 56 -110.667 56 -144c0 -67.333 -61.667 -101 -185 -101c-147.333 0 -271.666 45 -372.999 135c-103.333 90 -155 201.667 -155 335c0 106 35.667 194.667 107 266s168.333 115.333 291 132h267
c-69.333 24.667 -172.333 81 -309 169c-145.333 94 -229.333 162.667 -252 206c-18.667 34.667 -21.667 70.334 -9 107.001c14 40.667 39.667 75.667 77 105c38.667 30 80.334 46 125.001 48c0 -40.667 32.667 -94.667 98 -162c62.667 -64.667 143.334 -130 242.001 -196
c99.333 -66 191 -115.333 275 -148c88.667 -34.667 152.334 -44.334 191.001 -29.001c3.33301 -31.333 3.33301 -64.666 0 -99.999h313v-216h-200z" />
    <glyph glyph-name="uniFEA3" unicode="&#x62d;" horiz-adv-x="1207" arabic-form="initial" 
d="M1139 104c-24 -44.667 -54.002 -73.333 -90.002 -86c-32 -12 -91.667 -18 -179 -18h-890v216h746c-69.333 24 -172.333 80.333 -309 169c-144.667 94 -229 162.667 -253 206c-17.333 35.333 -20 71 -8 107c14 40.667 39.667 75.667 77 105
c38.667 30 80.334 46 125.001 48c0 -40.667 32.667 -94.667 98 -162c62.667 -64.667 143.334 -130 242.001 -196c228 -151.333 383.333 -210.333 466 -177c8 -96 -0.333008 -166.667 -25 -212z" />
    <glyph glyph-name="uniFEA4" unicode="&#x62d;" horiz-adv-x="1457" arabic-form="medial" 
d="M1278 0c-78 1.33301 -128.002 29.666 -150.002 84.999c-22.667 -36 -51.667 -59.667 -87 -71c-31.333 -9.33301 -88 -14 -170 -14h-891v216h747c-62.667 22 -161.667 76 -297 162c-151.333 94.667 -239.666 165.667 -264.999 213c-18 34.667 -21 70.334 -9 107.001
c14 40.667 40 75.667 78 105c38.667 30 80 46 124 48c0 -40.667 32.667 -94.667 98 -162c62.667 -64.667 143.334 -130 242.001 -196c99.333 -66 191.333 -115.333 276 -148c88 -34.667 151.333 -44.334 190 -29.001c2.66699 -29.333 3 -62.666 1 -99.999h312v-216h-199z
" />
    <glyph glyph-name="uniFEA6" unicode="&#x62e;" horiz-adv-x="1436" arabic-form="final" 
d="M751 767c-20 20 -30.001 45.667 -30.001 77c0 34.667 12.333 64 37 88s54.667 36 90 36c32 0 58.667 -10 80 -30s32 -44.667 32 -74c0 -35.333 -12.667 -65.333 -38 -90c-25.333 -24 -56.666 -36 -93.999 -36c-32 0 -57.667 9.66699 -77 29zM1255 0
c-78.667 0 -128.336 28.332 -149.003 84.999c-22.667 -36 -52 -59.667 -88 -71c-31.333 -9.33301 -88 -14 -170 -14h-226c-94.667 -0.666992 -168.334 -20.667 -221.001 -60c-50.667 -38.667 -76 -91 -76 -157s22.333 -119.667 67 -161c44.667 -42 102.667 -63 174 -63
c46 0 89.333 11.333 130 34c37.333 -62.667 56 -110.667 56 -144c0 -67.333 -61.667 -101 -185 -101c-147.333 0 -271.666 45 -372.999 135c-103.333 90 -155 201.667 -155 335c0 106 35.667 194.667 107 266s168.333 115.333 291 132h267
c-69.333 24.667 -172.333 81 -309 169c-145.333 94 -229.333 162.667 -252 206c-18.667 34.667 -21.667 70.334 -9 107.001c14 40.667 39.667 75.667 77 105c38.667 30 80.334 46 125.001 48c0 -40.667 32.667 -94.667 98 -162c62.667 -64.667 143.334 -130 242.001 -196
c99.333 -66 191 -115.333 275 -148c88.667 -34.667 152.334 -44.334 191.001 -29.001c3.33301 -31.333 3.33301 -64.666 0 -99.999h313v-216h-200z" />
    <glyph glyph-name="uniFEA7" unicode="&#x62e;" horiz-adv-x="1207" arabic-form="initial" 
d="M756 767c-20 20 -30.001 45.667 -30.001 77c0 34.667 12.333 64 37 88s55 36 91 36c32 0 58.667 -10 80 -30c20.667 -19.333 31 -44 31 -74c0 -35.333 -12.333 -65.333 -37 -90c-25.333 -24 -56.666 -36 -93.999 -36c-32 0 -58 9.66699 -78 29zM1139 104
c-24 -44.667 -54.002 -73.333 -90.002 -86c-32 -12 -91.667 -18 -179 -18h-890v216h746c-69.333 24 -172.333 80.333 -309 169c-144.667 94 -229 162.667 -253 206c-17.333 35.333 -20 71 -8 107c14 40.667 39.667 75.667 77 105c38.667 30 80.334 46 125.001 48
c0 -40.667 32.667 -94.667 98 -162c62.667 -64.667 143.334 -130 242.001 -196c228 -151.333 383.333 -210.333 466 -177c8 -96 -0.333008 -166.667 -25 -212z" />
    <glyph glyph-name="uniFEA8" unicode="&#x62e;" horiz-adv-x="1457" arabic-form="medial" 
d="M772 767c-20 20 -30.001 45.667 -30.001 77c0 34.667 12.333 64 37 88s55 36 91 36c32 0 58.667 -10 80 -30c20.667 -20 31 -44.667 31 -74c0 -35.333 -12.333 -65.333 -37 -90c-25.333 -24 -56.666 -36 -93.999 -36c-32 0 -58 9.66699 -78 29zM1278 0
c-78 1.33301 -128.002 29.666 -150.002 84.999c-22.667 -36 -51.667 -59.667 -87 -71c-31.333 -9.33301 -88 -14 -170 -14h-891v216h747c-62.667 22 -161.667 76 -297 162c-151.333 94.667 -239.666 165.667 -264.999 213c-18 34.667 -21 70.334 -9 107.001
c14 40.667 40 75.667 78 105c38.667 30 80 46 124 48c0 -40.667 32.667 -94.667 98 -162c62.667 -64.667 143.334 -130 242.001 -196c99.333 -66 191.333 -115.333 276 -148c88 -34.667 151.333 -44.334 190 -29.001c2.66699 -29.333 3 -62.666 1 -99.999h312v-216h-199z
" />
    <glyph glyph-name="uniFEAA" unicode="&#x62f;" horiz-adv-x="1055" arabic-form="final" 
d="M952 0c-61.333 0.666992 -104.666 23.6641 -129.999 68.9971c-36.667 -46 -84.334 -69 -143.001 -69h-501c-92.667 4 -139 38.667 -139 104c0 53.333 18 103 54 149c25.333 -23.333 53.666 -35.666 84.999 -36.999h383c30 0 51 9.66699 63 29c12 18 18 49.333 18 94v43
c-1.33301 62.667 -30.666 116.334 -87.999 161.001c-56 42.667 -121.667 64 -197 64c-54.667 0 -104.667 -11.333 -150 -34c-44.667 76 -63.334 138 -56.001 186c6 36 23.333 61.667 52 77c28.667 16 73 24 133 24c152.667 0 281.334 -41.333 386.001 -124
c105.333 -83.333 158 -184.666 158 -303.999v-112c3.33301 -30.667 13.333 -56 30 -76c14.667 -18.667 30.667 -28 48 -28h116v-216h-122z" />
    <glyph glyph-name="uniFEAC" unicode="&#x630;" horiz-adv-x="1055" arabic-form="final" 
d="M295 1007c-20 19.333 -30 44.333 -30 75c0 34.667 12.333 64 37 88s54.667 36 90 36c32.667 0 59.334 -9.66699 80.001 -29c20.667 -20 31 -45 31 -75c0 -35.333 -12.667 -65 -38 -89c-24.667 -24 -55.334 -36 -92.001 -36c-32 0 -58 10 -78 30zM952 0
c-61.333 0.666992 -104.666 23.6641 -129.999 68.9971c-36.667 -46 -84.334 -69 -143.001 -69h-501c-92.667 4 -139 38.667 -139 104c0 53.333 18 103 54 149c25.333 -23.333 53.666 -35.666 84.999 -36.999h383c30 0 51 9.66699 63 29c12 18 18 49.333 18 94v43
c-1.33301 62.667 -30.666 116.334 -87.999 161.001c-56 42.667 -121.667 64 -197 64c-54.667 0 -104.667 -11.333 -150 -34c-44.667 76 -63.334 138 -56.001 186c6 36 23.333 61.667 52 77c28.667 16 73 24 133 24c152.667 0 281.334 -41.333 386.001 -124
c105.333 -83.333 158 -184.666 158 -303.999v-112c3.33301 -30.667 13.333 -56 30 -76c14.667 -18.667 30.667 -28 48 -28h116v-216h-122z" />
    <glyph glyph-name="uniFEAE" unicode="&#x631;" horiz-adv-x="836" arabic-form="final" 
d="M656 0c-42 0 -75.668 8 -101.001 24c0 -134 -17 -229.667 -51 -287c-49.333 -82 -143.333 -123 -282 -123c-50 0 -93 13 -129 39c-36 25.333 -54 55 -54 89c0 35.333 18 76.333 54 123c26.667 -24.667 56.334 -37 89.001 -37c44 0 75.667 18 95 54
c18.667 36.667 28 96.667 28 180c0 28 -0.666992 65.333 -2 112c0.666992 4 1 29 1 75c0 27.333 -2 109.333 -6 246c-2.66699 122 -4 198.333 -4 229c0 38 11 69 33 93c22.667 24 52.667 36 90 36c70 0 126.333 -21.333 169 -64c-20.667 -32.667 -31 -97 -31 -193
c0 -172 0.333008 -298.667 1 -380h299v-216h-199z" />
    <glyph glyph-name="uniFEB0" unicode="&#x632;" horiz-adv-x="836" arabic-form="final" 
d="M349 1009c-20 19.333 -30 44.333 -30 75c0 34.667 12.333 64 37 88s54.667 36 90 36c32 0 58.667 -10 80 -30s32 -44.667 32 -74c0 -35.333 -12.333 -65 -37 -89c-25.333 -24 -57 -36 -95 -36c-31.333 0 -57 10 -77 30zM656 0c-42 0 -75.668 8 -101.001 24
c0 -134 -17 -229.667 -51 -287c-49.333 -82 -143.333 -123 -282 -123c-50 0 -93 13 -129 39c-36 25.333 -54 55 -54 89c0 35.333 18 76.333 54 123c26.667 -24.667 56.334 -37 89.001 -37c44 0 75.667 18 95 54c18.667 36.667 28 96.667 28 180
c0 28 -0.666992 65.333 -2 112c0.666992 4 1 29 1 75c0 27.333 -2 109.333 -6 246c-2.66699 122 -4 198.333 -4 229c0 38 11 69 33 93c22.667 24 52.667 36 90 36c70 0 126.333 -21.333 169 -64c-20.667 -32.667 -31 -97 -31 -193c0 -172 0.333008 -298.667 1 -380h299v-216
h-199z" />
    <glyph glyph-name="uniFEB2" unicode="&#x633;" horiz-adv-x="1977" arabic-form="final" 
d="M1873 0c-46.667 0 -84.999 21.998 -114.999 65.998c-34 -44 -86.333 -66 -157 -66c-128 0 -217.667 35.667 -269 107c-29.333 -71.333 -89.666 -107 -180.999 -107c-114.667 0 -197.667 28 -249 84c-3.33301 -140 -41.333 -252.667 -114 -338
c-72.667 -84.667 -166.334 -127 -281.001 -127c-132.667 0 -244 51.333 -334 154c-89.333 101.333 -134 225 -134 371c0 123.333 33.333 185 100 185c34 0 81.667 -18.667 143 -56c-22 -40.667 -33 -84 -33 -130c0 -70.667 20.667 -128 62 -172
c41.333 -44.667 95.333 -67 162 -67c116.667 0 175 100.333 175 301c0 14 -1.66699 86 -5 216c-2.66699 104 -4 169.667 -4 197c0 37.333 11 67 33 89c21.333 21.333 51.333 32 90 32c64.667 0 120.334 -18.667 167.001 -56c-20.667 -31.333 -31 -95.333 -31 -192
c0 -93.333 0.333008 -157 1 -191l2 5c0 -37.333 11.333 -62.666 34 -75.999c15.333 -8.66699 42.666 -13 81.999 -13c30 0 51 9.33301 63 28s18 50 18 94c0 27.333 -2 88.333 -6 183c-2.66699 83.333 -4 138 -4 164c0 79.333 35.333 119 106 119c81.333 0 143 -18 185 -54
c-20.667 -32.667 -31 -108 -31 -226c0 -58.667 0.666992 -132 2 -220v1c0 -37.333 11.333 -62.666 34 -75.999c15.333 -8.66699 42.666 -13 81.999 -13c30 0 51 9.33301 63 28s18 50 18 94c0 14 -1.66699 83.333 -5 208l-5 189c0 80 35.333 120 106 120
c82 0 143.333 -18.333 184 -55c-20 -32.667 -30 -107.667 -30 -225l2 -223c1.33301 -4 2 -8 2 -12c0 -36.667 8.33301 -67 25 -91c16 -22 34.333 -33 55 -33h115v-216h-123z" />
    <glyph glyph-name="uniFEB3" unicode="&#x633;" horiz-adv-x="1463" arabic-form="initial" 
d="M1392 575l4 -353.999c0 -147.333 -67 -221 -201 -221c-127.333 0 -216.666 35.667 -267.999 107c-29.333 -71.333 -89.666 -107 -180.999 -107c-134.667 0 -227.334 40.333 -278.001 121c-34.667 -80.667 -91.667 -121 -171 -121h-317v216h182c30 0 51 9.33301 63 28
s18 50 18 94c0 18.667 -1.66699 68.667 -5 150c-2.66699 64 -4 107.333 -4 130c0 37.333 11 67 33 89c21.333 21.333 51 32 89 32c66.667 0 122.667 -18.667 168 -56c-20.667 -31.333 -31 -84.333 -31 -159l4 -236c5.33301 -34.667 22.666 -56.334 51.999 -65.001
c10 -4.66699 31 -7 63 -7c29.333 0 50.333 9.33301 63 28c11.333 18.667 17 50 17 94c0 16.667 -1.66699 77.667 -5 183c-2.66699 83.333 -4 138 -4 164c0 79.333 35.333 119 106 119c82 0 143.333 -18 184 -54c-20.667 -32.667 -31 -91 -31 -175l3 -279
c2 -34 14 -56.667 36 -68c15.333 -8 42 -12 80 -12c30 0 51 9.33301 63 28s18 50 18 94c0 26.667 -2 96 -6 208c-2.66699 98.667 -4 161.667 -4 189c0 80 35.333 120 106 120c82 0 143.667 -18.333 185 -55c-20.667 -32.667 -31 -107.667 -31 -225z" />
    <glyph glyph-name="uniFEB4" unicode="&#x633;" horiz-adv-x="1571" arabic-form="medial" 
d="M1475 0c-52 0 -92.999 22.001 -122.999 66.001c-34 -44 -86.333 -66 -157 -66c-127.333 0 -217 35.667 -269 107c-29.333 -71.333 -89.333 -107 -180 -107c-135.333 0 -228.333 40.333 -279 121c-36 -80.667 -93 -121 -171 -121h-316v216h182c30 0 51 9.33301 63 28
s18 50 18 94c0 18.667 -1.66699 68.667 -5 150c-4 72 -6 115.333 -6 130c0 37.333 11 67 33 89c22.667 21.333 52.667 32 90 32c66.667 0 122.667 -18.667 168 -56c-20 -32 -30 -85 -30 -159c0 -40 0.333008 -79.333 1 -118l2 -118c4 -30.667 16.667 -51 38 -61
c15.333 -7.33301 41 -11 77 -11c30 0 51 9.33301 63 28c11.333 18.667 17 50 17 94c0 37.333 -1.33301 98.333 -4 183l-5 164c0 79.333 35.333 119 106 119c82 0 143.333 -18 184 -54c-20 -32.667 -30 -91 -30 -175l3 -279c2 -34 14 -56.667 36 -68
c15.333 -8 41.666 -12 78.999 -12c29.333 0 50.333 9.33301 63 28c11.333 18.667 17 50 17 94c0 39.333 -1.33301 108.666 -4 207.999l-5 189c0 80 35.667 120 107 120c81.333 0 142.333 -18.333 183 -55c-20 -32.667 -30 -107.667 -30 -225c0 -22.667 1 -96 3 -220
c1.33301 -5.33301 2 -10.333 2 -15c0 -36 8.66699 -66.333 26 -91c16 -22 33.667 -33 53 -33h116v-216h-116z" />
    <glyph glyph-name="uniFEB6" unicode="&#x634;" horiz-adv-x="1977" arabic-form="final" 
d="M1149 1286c-19.333 19.333 -29.001 44.333 -29.001 75c0 34.667 12 64 36 88c24.667 24 54.667 36 90 36c32 0 58.667 -10 80 -30c20.667 -19.333 31 -44 31 -74c0 -34.667 -12.333 -64 -37 -88c-25.333 -24.667 -56.666 -37 -93.999 -37c-32 0 -57.667 10 -77 30z
M984.999 1013c-20 19.333 -29.999 44.333 -29.999 75c0 34.667 12.333 64 37 88s54.667 36 90 36c32 0 58.667 -10 80 -30c20.667 -19.333 31 -44 31 -74c0 -35.333 -12.667 -65 -38 -89c-24.667 -24 -55.334 -36 -92.001 -36c-32.667 0 -58.667 10 -78 30zM1291 1176
c24.667 24 54.668 36.001 90.001 36.001c32 0 58.667 -10 80 -30c20.667 -19.333 31 -44 31 -74c0 -35.333 -12.667 -65 -38 -89c-24.667 -24 -55.334 -36 -92.001 -36c-32 0 -57.667 9.66699 -77 29c-20 19.333 -30 44.666 -30 75.999c0 34.667 12 64 36 88z
M1873 0.000976562c-46.667 0 -84.999 21.998 -114.999 65.998c-34 -44 -86.333 -66 -157 -66c-128 0 -217.667 35.667 -269 107c-29.333 -71.333 -89.666 -107 -180.999 -107c-114.667 0 -197.667 28 -249 84c-3.33301 -140 -41.333 -252.667 -114 -338
c-72.667 -84.667 -166.334 -127 -281.001 -127c-132.667 0 -244 51.333 -334 154c-89.333 101.333 -134 225 -134 371c0 123.333 33.333 185 100 185c34 0 81.667 -18.667 143 -56c-22 -40.667 -33 -84 -33 -130c0 -70.667 20.667 -128 62 -172
c41.333 -44.667 95.333 -67 162 -67c116.667 0 175 100.333 175 301c0 14 -1.66699 86 -5 216c-2.66699 104 -4 169.667 -4 197c0 37.333 11 67 33 89c21.333 21.333 51.333 32 90 32c64.667 0 120.334 -18.667 167.001 -56c-20.667 -31.333 -31 -95.333 -31 -192
c0 -93.333 0.333008 -157 1 -191l2 5c0 -37.333 11.333 -62.666 34 -75.999c15.333 -8.66699 42.666 -13 81.999 -13c30 0 51 9.33301 63 28s18 50 18 94c0 27.333 -2 88.333 -6 183c-2.66699 83.333 -4 138 -4 164c0 79.333 35.333 119 106 119c81.333 0 143 -18 185 -54
c-20.667 -32.667 -31 -108 -31 -226c0 -58.667 0.666992 -132 2 -220v1c0 -37.333 11.333 -62.666 34 -75.999c15.333 -8.66699 42.666 -13 81.999 -13c30 0 51 9.33301 63 28s18 50 18 94c0 14 -1.66699 83.333 -5 208l-5 189c0 80 35.333 120 106 120
c82 0 143.333 -18.333 184 -55c-20 -32.667 -30 -107.667 -30 -225l2 -223c1.33301 -4 2 -8 2 -12c0 -36.667 8.33301 -67 25 -91c16 -22 34.333 -33 55 -33h115v-216h-123z" />
    <glyph glyph-name="uniFEB7" unicode="&#x634;" horiz-adv-x="1463" arabic-form="initial" 
d="M760 1286c-20 19.333 -29.999 44.333 -29.999 75c0 34.667 12.333 64 37 88c25.333 24 55.666 36 90.999 36c32 0 58.333 -10 79 -30c20.667 -19.333 31 -44 31 -74c0 -34.667 -12.333 -64 -37 -88c-24.667 -24.667 -55.667 -37 -93 -37c-32 0 -58 10 -78 30z
M596.001 1012c-19.333 19.333 -29.001 44.667 -29.001 76c0 35.333 12.333 64.333 37 87c24 24.667 54 37 90 37c32 0 58.333 -10 79 -30c20.667 -19.333 31 -44 31 -74c0 -35.333 -12.333 -65 -37 -89c-25.333 -24 -56.666 -36 -93.999 -36c-31.333 0 -57 9.66699 -77 29z
M903 1176c24.667 24 54.668 36 90.001 36c32 0 58.667 -10 80 -30c20.667 -19.333 31 -44 31 -74c0 -35.333 -12.667 -65 -38 -89c-24.667 -24 -55.334 -36 -92.001 -36c-32.667 0 -58.667 10 -78 30c-20 19.333 -30 44.333 -30 75c0 34.667 12.333 64 37 88zM1392 575.001
l4 -353.999c0 -147.333 -67 -221 -201 -221c-127.333 0 -216.666 35.667 -267.999 107c-29.333 -71.333 -89.666 -107 -180.999 -107c-134.667 0 -227.334 40.333 -278.001 121c-34.667 -80.667 -91.667 -121 -171 -121h-317v216h182c30 0 51 9.33301 63 28s18 50 18 94
c0 18.667 -1.66699 68.667 -5 150c-2.66699 64 -4 107.333 -4 130c0 37.333 11 67 33 89c21.333 21.333 51 32 89 32c66.667 0 122.667 -18.667 168 -56c-20.667 -31.333 -31 -84.333 -31 -159l4 -236c5.33301 -34.667 22.666 -56.334 51.999 -65.001
c10 -4.66699 31 -7 63 -7c29.333 0 50.333 9.33301 63 28c11.333 18.667 17 50 17 94c0 16.667 -1.66699 77.667 -5 183c-2.66699 83.333 -4 138 -4 164c0 79.333 35.333 119 106 119c82 0 143.333 -18 184 -54c-20.667 -32.667 -31 -91 -31 -175l3 -279
c2 -34 14 -56.667 36 -68c15.333 -8 42 -12 80 -12c30 0 51 9.33301 63 28s18 50 18 94c0 26.667 -2 96 -6 208c-2.66699 98.667 -4 161.667 -4 189c0 80 35.333 120 106 120c82 0 143.667 -18.333 185 -55c-20.667 -32.667 -31 -107.667 -31 -225z" />
    <glyph glyph-name="uniFEB8" unicode="&#x634;" horiz-adv-x="1571" arabic-form="medial" 
d="M759 1285c-19.333 20.667 -29 46 -29 76c0 34.667 12.333 64 37 88c24 24 54 36 90 36c32 0 58.667 -10 80 -30c20.667 -20 31 -44.667 31 -74c0 -34.667 -12.667 -64 -38 -88c-25.333 -24.667 -56.333 -37 -93 -37c-30.667 0 -56.667 9.66699 -78 29zM596 1013
c-20 19.333 -30 44.333 -30 75c0 34.667 12.333 64 37 88s54.667 36 90 36c32 0 58.333 -10 79 -30c20.667 -19.333 31 -44 31 -74c0 -35.333 -12.333 -65 -37 -89s-55.667 -36 -93 -36c-32 0 -57.667 10 -77 30zM903 1175c24 24.667 53.999 37.001 89.999 37.001
c32 0 58.333 -10 79 -30c20.667 -19.333 31 -44 31 -74c0 -35.333 -12.333 -65 -37 -89c-25.333 -24 -56.666 -36 -93.999 -36c-31.333 0 -57 9.66699 -77 29c-19.333 19.333 -29 44.666 -29 75.999c0 35.333 12.333 64.333 37 87zM1475 0.000976562
c-52 0 -92.999 22.001 -122.999 66.001c-34 -44 -86.333 -66 -157 -66c-127.333 0 -217 35.667 -269 107c-29.333 -71.333 -89.333 -107 -180 -107c-135.333 0 -228.333 40.333 -279 121c-36 -80.667 -93 -121 -171 -121h-316v216h182c30 0 51 9.33301 63 28s18 50 18 94
c0 18.667 -1.66699 68.667 -5 150c-4 72 -6 115.333 -6 130c0 37.333 11 67 33 89c22.667 21.333 52.667 32 90 32c66.667 0 122.667 -18.667 168 -56c-20 -32 -30 -85 -30 -159c0 -40 0.333008 -79.333 1 -118l2 -118c4 -30.667 16.667 -51 38 -61
c15.333 -7.33301 41 -11 77 -11c30 0 51 9.33301 63 28c11.333 18.667 17 50 17 94c0 37.333 -1.33301 98.333 -4 183l-5 164c0 79.333 35.333 119 106 119c82 0 143.333 -18 184 -54c-20 -32.667 -30 -91 -30 -175l3 -279c2 -34 14 -56.667 36 -68
c15.333 -8 41.666 -12 78.999 -12c29.333 0 50.333 9.33301 63 28c11.333 18.667 17 50 17 94c0 39.333 -1.33301 108.666 -4 207.999l-5 189c0 80 35.667 120 107 120c81.333 0 142.333 -18.333 183 -55c-20 -32.667 -30 -107.667 -30 -225c0 -22.667 1 -96 3 -220
c1.33301 -5.33301 2 -10.333 2 -15c0 -36 8.66699 -66.333 26 -91c16 -22 33.667 -33 53 -33h116v-216h-116z" />
    <glyph glyph-name="uniFEBA" unicode="&#x635;" horiz-adv-x="1980" arabic-form="final" 
d="M1793 0c-76.667 0 -125 31.666 -145 94.999c-99.333 -63.333 -217 -95 -353 -95h-395c-17.333 -116.667 -61 -208.667 -131 -276c-69.333 -67.333 -156 -101 -260 -101c-133.333 0 -245 51.333 -335 154c-90 102 -135 226.333 -135 373c0 123.333 33.667 185 101 185
c33.333 0 81.333 -18.667 144 -56c-22.667 -40.667 -34 -84 -34 -130c0 -71.333 21 -129.333 63 -174c41.333 -44.667 95.333 -67 162 -67c61.333 0 106 24.333 134 73c28 47.333 42 122.333 42 225c0 42 -1.33301 121.333 -4 238l-5 221c0 36.667 11 65.667 33 87
c22 22 52 33 90 33c66 0 122.333 -18.333 169 -55c-11.333 -19.333 -20.666 -68 -27.999 -146c85.333 148.667 199.666 237 342.999 265c73.333 14.667 151.333 14 234 -2c84 -16.667 148.667 -44.667 194 -84c100 -88 150 -210 150 -366
c0 -65.333 -18 -125.666 -54 -180.999h226v-216h-206zM1457 546.999c-63.333 44.667 -132.332 60 -206.999 46c-72.667 -14 -144.334 -61.333 -215.001 -142c-60 -68 -103.333 -138.333 -130 -211v-24h289c218 0 334 55.333 348 166c8 64.667 -20.333 119.667 -85 165z" />
    <glyph glyph-name="uniFEBB" unicode="&#x635;" horiz-adv-x="1385" arabic-form="initial" 
d="M1345 397c0 -114.667 -51.001 -209.667 -153.001 -285c-101.333 -74.667 -227.666 -112 -378.999 -112h-833v216h189c0 46.667 -1.33301 127 -4 241l-5 208c0 36.667 11 65.667 33 87c22 22 52 33 90 33c66 0 122.333 -18.333 169 -55c-12.667 -19.333 -22 -68 -28 -146
c35.333 62 81 116.667 137 164c65.333 53.333 134 87 206 101c73.333 14.667 151.333 14 234 -2c84 -16.667 148.667 -44.667 194 -84c100 -88 150 -210 150 -366zM974.999 547c-63.333 44.667 -132.333 59.999 -207 45.999c-72.667 -14 -144 -61.333 -214 -142
c-59.333 -67.333 -103 -137.666 -131 -210.999v-24h289c218 0 334 55.333 348 166c8 64.667 -20.333 119.667 -85 165z" />
    <glyph glyph-name="uniFEBC" unicode="&#x635;" horiz-adv-x="1497" arabic-form="medial" 
d="M1311 0c-76.667 0 -125 31.667 -145 95c-99.333 -63.333 -217 -95 -353 -95h-833v216h190l-6 241c-2.66699 109.333 -4 178.666 -4 207.999c0 36.667 11 65.667 33 87c22 22 52 33 90 33c66 0 122.333 -18.333 169 -55c-12 -20 -21 -68.667 -27 -146
c82.667 148.667 196.667 237 342 265c73.333 14.667 151.333 14 234 -2c84 -16.667 148.667 -44.667 194 -84c100.667 -88 151 -210 151 -366c0 -65.333 -18 -125.666 -54 -180.999h225v-216h-206zM976 547c-63.333 44.667 -132.332 60 -206.999 46
c-72.667 -14 -144.334 -61.333 -215.001 -142c-60 -68 -103.333 -138.333 -130 -211v-24h288c218 0 334 55.333 348 166c8 64.667 -20 119.667 -84 165z" />
    <glyph glyph-name="uniFEBE" unicode="&#x636;" horiz-adv-x="1980" arabic-form="final" 
d="M949 1009c-20 19.333 -30.002 45 -30.002 77c0 34 12.333 63 37 87s54.667 36 90 36c32.667 0 59.334 -9.66699 80.001 -29c21.333 -20 32 -45 32 -75c0 -34.667 -12.333 -64 -37 -88c-25.333 -24.667 -56.666 -37 -93.999 -37c-32 0 -58 9.66699 -78 29zM1793 0
c-76.667 0 -125 31.666 -145 94.999c-99.333 -63.333 -217 -95 -353 -95h-395c-17.333 -116.667 -61 -208.667 -131 -276c-69.333 -67.333 -156 -101 -260 -101c-133.333 0 -245 51.333 -335 154c-90 102 -135 226.333 -135 373c0 123.333 33.667 185 101 185
c33.333 0 81.333 -18.667 144 -56c-22.667 -40.667 -34 -84 -34 -130c0 -71.333 21 -129.333 63 -174c41.333 -44.667 95.333 -67 162 -67c61.333 0 106 24.333 134 73c28 47.333 42 122.333 42 225c0 42 -1.33301 121.333 -4 238l-5 221c0 36.667 11 65.667 33 87
c22 22 52 33 90 33c66 0 122.333 -18.333 169 -55c-11.333 -19.333 -20.666 -68 -27.999 -146c85.333 148.667 199.666 237 342.999 265c73.333 14.667 151.333 14 234 -2c84 -16.667 148.667 -44.667 194 -84c100 -88 150 -210 150 -366
c0 -65.333 -18 -125.666 -54 -180.999h226v-216h-206zM1457 546.999c-63.333 44.667 -132.332 60 -206.999 46c-72.667 -14 -144.334 -61.333 -215.001 -142c-60 -68 -103.333 -138.333 -130 -211v-24h289c218 0 334 55.333 348 166c8 64.667 -20.333 119.667 -85 165z" />
    <glyph glyph-name="uniFEBF" unicode="&#x636;" horiz-adv-x="1385" arabic-form="initial" 
d="M467 1009c-20 19.333 -30.002 45 -30.002 77c0 34 12.333 63 37 87s55 36 91 36c32.667 0 59.334 -9.66699 80.001 -29c21.333 -20 32 -45 32 -75c0 -34.667 -12.667 -64 -38 -88c-25.333 -24.667 -56.666 -37 -93.999 -37c-32 0 -58 9.66699 -78 29zM1345 397
c0 -114.667 -51.001 -209.667 -153.001 -285c-101.333 -74.667 -227.666 -112 -378.999 -112h-833v216h189c0 46.667 -1.33301 127 -4 241l-5 208c0 36.667 11 65.667 33 87c22 22 52 33 90 33c66 0 122.333 -18.333 169 -55c-12.667 -19.333 -22 -68 -28 -146
c35.333 62 81 116.667 137 164c65.333 53.333 134 87 206 101c73.333 14.667 151.333 14 234 -2c84 -16.667 148.667 -44.667 194 -84c100 -88 150 -210 150 -366zM974.997 547c-63.333 44.667 -132.333 59.999 -207 45.999c-72.667 -14 -144 -61.333 -214 -142
c-59.333 -67.333 -103 -137.666 -131 -210.999v-24h289c218 0 334 55.333 348 166c8 64.667 -20.333 119.667 -85 165z" />
    <glyph glyph-name="uniFEC0" unicode="&#x636;" horiz-adv-x="1497" arabic-form="medial" 
d="M468 1009c-20 19.333 -30.001 45 -30.001 77c0 34 12.333 63 37 87s54.667 36 90 36c32.667 0 59.667 -9.66699 81 -29c20 -20 30 -45 30 -75c0 -34.667 -12.333 -64 -37 -88c-25.333 -24.667 -56.666 -37 -93.999 -37c-32 0 -57.667 9.66699 -77 29zM1311 0
c-76.667 0 -125 31.667 -145 95c-99.333 -63.333 -217 -95 -353 -95h-833v216h190l-6 241c-2.66699 109.333 -4 178.666 -4 207.999c0 36.667 11 65.667 33 87c22 22 52 33 90 33c66 0 122.333 -18.333 169 -55c-12 -20 -21 -68.667 -27 -146
c82.667 148.667 196.667 237 342 265c73.333 14.667 151.333 14 234 -2c84 -16.667 148.667 -44.667 194 -84c100.667 -88 151 -210 151 -366c0 -65.333 -18 -125.666 -54 -180.999h225v-216h-206zM975.999 547c-63.333 44.667 -132.332 60 -206.999 46
c-72.667 -14 -144.334 -61.333 -215.001 -142c-60 -68 -103.333 -138.333 -130 -211v-24h288c218 0 334 55.333 348 166c8 64.667 -20 119.667 -84 165z" />
    <glyph glyph-name="uniFEC2" unicode="&#x637;" horiz-adv-x="1674" arabic-form="final" 
d="M1493 0c-78 0 -127.666 28.667 -148.999 86c-97.333 -57.333 -211 -86 -341 -86h-825c-92.667 6 -139 42 -139 108c0 50 17.667 98.667 53 146c27.333 -24.667 56 -37.334 86 -38.001h140c17.333 0 28.666 4.66699 33.999 14c4 8 6 26 6 54l-10 975c0 36.667 11 66 33 88
s52 33 90 33c68 0 124.333 -18.333 169 -55c-20 -34 -30 -109.667 -30 -227c0 -198.667 0.333008 -373.667 1 -525c82 150.667 197.667 241.667 347 273c73.333 14 151 13 233 -3c84 -16.667 148.667 -45 194 -85c100.667 -86.667 151 -207 151 -361
c0 -65.333 -18 -125.666 -54 -180.999h211v-216h-200zM1166 544c-63.333 44.667 -132.332 60 -206.999 46c-76.667 -15.333 -152.334 -66.666 -227.001 -153.999c-65.333 -76 -106 -146.333 -122 -211v-9h293c217.333 0 333 55 347 165
c8.66699 63.333 -19.333 117.666 -84 162.999z" />
    <glyph glyph-name="uniFEC3" unicode="&#x637;" horiz-adv-x="1411" arabic-form="initial" 
d="M155 216c16.667 0 27.668 4.66602 33.001 13.999c4 8 6 26 6 54c0 50.667 -2 227.334 -6 530.001l-4 445c0 36.667 11 66 33 88s52 33 90 33c67.333 0 123.333 -18.333 168 -55c-20 -34 -30 -109.667 -30 -227l2 -525c82 150.667 197.667 241.667 347 273
c73.333 14 151 13 233 -3c84 -16.667 148.667 -45 194 -85c100 -86.667 150 -207 150 -361c0 -115.333 -51.333 -211 -154 -287c-102.667 -73.333 -228.334 -110 -377.001 -110h-860v216h175zM1001 543.999c-64 44.667 -132.667 60 -206 46
c-77.333 -15.333 -153.333 -66.666 -228 -153.999c-64.667 -76 -105 -146.333 -121 -211c-0.666992 -3.33301 -1 -6.33301 -1 -9h293c217.333 0 333.333 55 348 165c8 63.333 -20.333 117.666 -85 162.999z" />
    <glyph glyph-name="uniFEC4" unicode="&#x637;" horiz-adv-x="1509" arabic-form="medial" 
d="M1323 0c-74 0 -121.668 28.666 -143.001 85.999c-97.333 -57.333 -210.666 -86 -339.999 -86h-860v216h175c16.667 0 27.667 4.66699 33 14c4 8 6 26 6 54l-10 975c0 36.667 11 66 33 88s52 33 90 33c68 0 124.333 -18.333 169 -55c-20 -34 -30 -109.667 -30 -227
c0 -198.667 0.333008 -373.667 1 -525c82 150.667 197.667 241.667 347 273c74 14 151.667 13 233 -3c84 -16.667 148.667 -45 194 -85c100.667 -86.667 151 -207 151 -361c0 -65.333 -18 -125.666 -54 -180.999h211v-216h-206zM1002 543.999
c-63.333 44.667 -132.332 60 -206.999 46c-76.667 -15.333 -152.334 -66.666 -227.001 -153.999c-65.333 -76 -106 -146.333 -122 -211v-9h293c217.333 0 333 55 347 165c8.66699 63.333 -19.333 117.666 -84 162.999z" />
    <glyph glyph-name="uniFEC6" unicode="&#x638;" horiz-adv-x="1674" arabic-form="final" 
d="M1493 0c-78 0 -127.666 28.667 -148.999 86c-97.333 -57.333 -211 -86 -341 -86h-825c-92.667 6 -139 42 -139 108c0 50 17.667 98.667 53 146c27.333 -24.667 56 -37.334 86 -38.001h140c17.333 0 28.666 4.66699 33.999 14c4 8 6 26 6 54l-10 975c0 36.667 11 66 33 88
s52 33 90 33c68 0 124.333 -18.333 169 -55c-20 -34 -30 -109.667 -30 -227c0 -198.667 0.333008 -373.667 1 -525c82 150.667 197.667 241.667 347 273c73.333 14 151 13 233 -3c84 -16.667 148.667 -45 194 -85c100.667 -86.667 151 -207 151 -361
c0 -65.333 -18 -125.666 -54 -180.999h211v-216h-200zM878.001 1009c-20 19.333 -30 44.333 -30 75c0 34.667 12.333 64 37 88c25.333 24 55.666 36 90.999 36c32 0 58.667 -10 80 -30c20.667 -19.333 31 -44 31 -74c0 -35.333 -12.333 -65 -37 -89
c-25.333 -24 -56.666 -36 -93.999 -36c-32 0 -58 10 -78 30zM1166 544c-63.333 44.667 -132.332 60 -206.999 46c-76.667 -15.333 -152.334 -66.666 -227.001 -153.999c-65.333 -76 -106 -146.333 -122 -211v-9h293c217.333 0 333 55 347 165
c8.66699 63.333 -19.333 117.666 -84 162.999z" />
    <glyph glyph-name="uniFEC7" unicode="&#x638;" horiz-adv-x="1411" arabic-form="initial" 
d="M155 216c16.667 0 27.668 4.66602 33.001 13.999c4 8 6 26 6 54c0 50.667 -2 227.334 -6 530.001l-4 445c0 36.667 11 66 33 88s52 33 90 33c67.333 0 123.333 -18.333 168 -55c-20 -34 -30 -109.667 -30 -227l2 -525c82 150.667 197.667 241.667 347 273
c73.333 14 151 13 233 -3c84 -16.667 148.667 -45 194 -85c100 -86.667 150 -207 150 -361c0 -115.333 -51.333 -211 -154 -287c-102.667 -73.333 -228.334 -110 -377.001 -110h-860v216h175zM714.001 1009c-20 19.333 -30 44.333 -30 75c0 34.667 12.333 64 37 88
s55 36 91 36c32 0 58.667 -10 80 -30c20.667 -20 31 -44.667 31 -74c0 -35.333 -12.667 -65 -38 -89s-56.333 -36 -93 -36c-32 0 -58 10 -78 30zM1001 543.999c-64 44.667 -132.667 60 -206 46c-77.333 -15.333 -153.333 -66.666 -228 -153.999
c-64.667 -76 -105 -146.333 -121 -211c-0.666992 -3.33301 -1 -6.33301 -1 -9h293c217.333 0 333.333 55 348 165c8 63.333 -20.333 117.666 -85 162.999z" />
    <glyph glyph-name="uniFEC8" unicode="&#x638;" horiz-adv-x="1509" arabic-form="medial" 
d="M1323 0c-74 0 -121.668 28.666 -143.001 85.999c-97.333 -57.333 -210.666 -86 -339.999 -86h-860v216h175c16.667 0 27.667 4.66699 33 14c4 8 6 26 6 54l-10 975c0 36.667 11 66 33 88s52 33 90 33c68 0 124.333 -18.333 169 -55c-20 -34 -30 -109.667 -30 -227
c0 -198.667 0.333008 -373.667 1 -525c82 150.667 197.667 241.667 347 273c74 14 151.667 13 233 -3c84 -16.667 148.667 -45 194 -85c100.667 -86.667 151 -207 151 -361c0 -65.333 -18 -125.666 -54 -180.999h211v-216h-206zM713.999 1009c-20 19.333 -30 44.333 -30 75
c0 34.667 12.333 64 37 88c25.333 24 55.666 36 90.999 36c32 0 58.667 -10 80 -30c20.667 -19.333 31 -44 31 -74c0 -35.333 -12.333 -65 -37 -89c-25.333 -24 -56.666 -36 -93.999 -36c-32 0 -58 10 -78 30zM1002 543.999c-63.333 44.667 -132.332 60 -206.999 46
c-76.667 -15.333 -152.334 -66.666 -227.001 -153.999c-65.333 -76 -106 -146.333 -122 -211v-9h293c217.333 0 333 55 347 165c8.66699 63.333 -19.333 117.666 -84 162.999z" />
    <glyph glyph-name="uniFECA" unicode="&#x639;" horiz-adv-x="1290" arabic-form="final" 
d="M621 -1c-94.667 0 -168 -19.665 -220 -58.998c-50.667 -38 -76 -90 -76 -156c0 -66.667 22 -120.667 66 -162c44.667 -42 102.667 -63 174 -63c46.667 0 89.667 11.333 129 34c38 -60.667 57 -108.334 57 -143.001c0 -68 -61.333 -102 -184 -102
c-147.333 0 -272 45 -374 135c-102.667 90.667 -154 202.667 -154 336c0 101.333 39.667 191 119 269c80 78.667 175.667 121 287 127l1 1l-75 225c-30 90.667 -56.333 147.334 -79 170.001c2 72 18 122.333 48 151c69.333 69.333 173.333 104 312 104
c146 0 263 -36.333 351 -109c87.333 -72.667 131 -168.334 131 -287.001c0 -92.667 -27.333 -177.334 -82 -254.001h277v-216zM530 626.002c42 -62 92 -197.334 150 -406.001c52 12.667 93 38.334 123 77.001s45 84.667 45 138c0 62 -19.333 112.667 -58 152
c-38 38.667 -87.333 58 -148 58c-42 0 -79.333 -5.33301 -112 -16v-3z" />
    <glyph glyph-name="uniFECB" unicode="&#x639;" horiz-adv-x="1125" arabic-form="initial" 
d="M945 216c93.333 -5.33301 140.002 -41.0029 140.002 -107.003c0 -50 -18 -98.667 -54 -146c-25.333 23.333 -54 35.666 -86 36.999h-965v216h271c-54.667 76.667 -82 161.334 -82 254.001c0 118.667 43.667 214.334 131 287.001c88 72.667 205 109 351 109
c137.333 0 241.333 -34.667 312 -104c38.667 -38.667 54.667 -93.667 48 -165c-7.33301 -80.667 -51.333 -121 -132 -121c-68.667 0 -123.334 13.667 -164.001 41c14.667 0 26.667 10.667 36 32c8.66699 22.667 10.334 48.334 5.00098 77.001v3
c-32.667 10.667 -64.334 16 -95.001 16c-60.667 0 -110.334 -19.333 -149.001 -58c-38.667 -39.333 -58 -90 -58 -152c0 -57.333 17.333 -105.666 52 -144.999c34 -39.333 79.333 -64 136 -74h303z" />
    <glyph glyph-name="uniFECC" unicode="&#x639;" horiz-adv-x="1305" arabic-form="medial" 
d="M-20 216l461 0.000976562l-74 225c-29.333 89.333 -56 146 -80 170c2 72 18 122.333 48 151c69.333 69.333 173.333 104 312 104c146 0 263 -36.333 351 -109c87.333 -72.667 131 -168.334 131 -287.001c0 -92 -27.667 -176.667 -83 -254h279v-216h-1345v216z
M525 626.001c43.333 -62 93.333 -197.334 150 -406.001c51.333 12.667 92.333 38.334 123 77.001s46 84.667 46 138c0 62 -19.333 112.667 -58 152c-38.667 38.667 -88.667 58 -150 58c-41.333 0 -78.333 -5.33301 -111 -16v-3z" />
    <glyph glyph-name="uniFECE" unicode="&#x63a;" horiz-adv-x="1290" arabic-form="final" 
d="M517 1007c-20 20 -30.001 45.667 -30.001 77c0 34.667 12.333 64 37 88s54.667 36 90 36c32 0 58.667 -10 80 -30s32 -44.667 32 -74c0 -35.333 -12.333 -65.333 -37 -90c-25.333 -24 -56.666 -36 -93.999 -36c-32 0 -58 9.66699 -78 29zM620.999 -1
c-94.667 0 -168 -19.665 -220 -58.998c-50.667 -38 -76 -90 -76 -156c0 -66.667 22 -120.667 66 -162c44.667 -42 102.667 -63 174 -63c46.667 0 89.667 11.333 129 34c38 -60.667 57 -108.334 57 -143.001c0 -68 -61.333 -102 -184 -102c-147.333 0 -272 45 -374 135
c-102.667 90.667 -154 202.667 -154 336c0 101.333 39.667 191 119 269c80 78.667 175.667 121 287 127l1 1l-75 225c-30 90.667 -56.333 147.334 -79 170.001c2 72 18 122.333 48 151c69.333 69.333 173.333 104 312 104c146 0 263 -36.333 351 -109
c87.333 -72.667 131 -168.334 131 -287.001c0 -92.667 -27.333 -177.334 -82 -254.001h277v-216zM529.999 626.002c42 -62 92 -197.334 150 -406.001c52 12.667 93 38.334 123 77.001s45 84.667 45 138c0 62 -19.333 112.667 -58 152c-38 38.667 -87.333 58 -148 58
c-42 0 -79.333 -5.33301 -112 -16v-3z" />
    <glyph glyph-name="uniFECF" unicode="&#x63a;" horiz-adv-x="1125" arabic-form="initial" 
d="M495 1007c-20 20 -29.999 45.667 -29.999 77c0 34.667 12.333 64 37 88s54.667 36 90 36c32 0 58.667 -10 80 -30c20.667 -20 31 -44.667 31 -74c0 -35.333 -12.667 -65.333 -38 -90c-24.667 -24 -55.334 -36 -92.001 -36c-32.667 0 -58.667 9.66699 -78 29zM945.001 216
c93.333 -5.33301 140.002 -41.0029 140.002 -107.003c0 -50 -18 -98.667 -54 -146c-25.333 23.333 -54 35.666 -86 36.999h-965v216h271c-54.667 76.667 -82 161.334 -82 254.001c0 118.667 43.667 214.334 131 287.001c88 72.667 205 109 351 109
c137.333 0 241.333 -34.667 312 -104c38.667 -38.667 54.667 -93.667 48 -165c-7.33301 -80.667 -51.333 -121 -132 -121c-68.667 0 -123.334 13.667 -164.001 41c14.667 0 26.667 10.667 36 32c8.66699 22.667 10.334 48.334 5.00098 77.001v3
c-32.667 10.667 -64.334 16 -95.001 16c-60.667 0 -110.334 -19.333 -149.001 -58c-38.667 -39.333 -58 -90 -58 -152c0 -57.333 17.333 -105.666 52 -144.999c34 -39.333 79.333 -64 136 -74h303z" />
    <glyph glyph-name="uniFED0" unicode="&#x63a;" horiz-adv-x="1305" arabic-form="medial" 
d="M596 1007c-20 20 -29.999 45.667 -29.999 77c0 34.667 12.333 64 37 88s54.667 36 90 36c32 0 58.667 -10 80 -30c20.667 -19.333 31 -44 31 -74c0 -35.333 -12.667 -65.333 -38 -90c-24.667 -24 -55.334 -36 -92.001 -36c-32.667 0 -58.667 9.66699 -78 29zM-19.999 216
l461 0.000976562l-74 225c-29.333 89.333 -56 146 -80 170c2 72 18 122.333 48 151c69.333 69.333 173.333 104 312 104c146 0 263 -36.333 351 -109c87.333 -72.667 131 -168.334 131 -287.001c0 -92 -27.667 -176.667 -83 -254h279v-216h-1345v216zM525.001 626.001
c43.333 -62 93.333 -197.334 150 -406.001c51.333 12.667 92.333 38.334 123 77.001s46 84.667 46 138c0 62 -19.333 112.667 -58 152c-38.667 38.667 -88.667 58 -150 58c-41.333 0 -78.333 -5.33301 -111 -16v-3z" />
    <glyph glyph-name="uniFED2" unicode="&#x641;" horiz-adv-x="1749" arabic-form="final" 
d="M1197 1008c-20 19.333 -30.001 44.667 -30.001 76c0 34.667 12.333 64 37 88s55 36 91 36c32 0 58.333 -10 79 -30c20.667 -19.333 31 -44 31 -74c0 -35.333 -12.333 -65 -37 -89c-25.333 -24 -56.666 -36 -93.999 -36c-32 0 -57.667 9.66699 -77 29zM1657 0.000976562
c-60 0 -102.999 18.998 -128.999 56.998c-34 -38 -84.667 -57 -152 -57h-935c-140.667 5.33301 -240.667 32 -300 80c-60 48 -92 128 -96 240c-4 100.667 16.667 189.667 62 267c45.333 76.667 99 115 161 115c42.667 0 78 -32.667 106 -98
c-40.667 -16 -69.334 -49.667 -86.001 -101c-16 -50 -17 -103 -3 -159c11.333 -45.333 33.333 -77.666 66 -96.999c32 -19.333 80.333 -29.666 145 -30.999h394c-35.333 58.667 -53 118.667 -53 180c0 134.667 54 249 162 343c107.333 94 253 137.333 437 130
c66.667 0 122.667 -18.333 168 -55c-20 -32.667 -30 -97 -30 -193l2 -270c1.33301 -4 2 -7.66699 2 -11c0 -36.667 8.66699 -67 26 -91c15.333 -22 33 -33 53 -33h117v-216h-117zM1306 236.999c10.667 14 16.001 42 16.001 84c0 24.667 -1 75.334 -3 152.001l-5 185
c-66 -16 -122.333 -49 -169 -99c-48.667 -50.667 -73 -104.334 -73 -161.001c0 -63.333 13.333 -109.333 40 -138c26.667 -29.333 70 -44 130 -44c31.333 0 52.666 7 63.999 21z" />
    <glyph glyph-name="uniFED3" unicode="&#x641;" horiz-adv-x="978" arabic-form="initial" 
d="M531 1008c-20 19.333 -30.001 44.667 -30.001 76c0 34.667 12.333 64 37 88c24 24 54 36 90 36c32 0 58.667 -10 80 -30c20.667 -19.333 31 -44 31 -74c0 -35.333 -12.333 -65 -37 -89c-25.333 -24 -56.666 -36 -93.999 -36c-32 0 -57.667 9.66699 -77 29z
M906.999 621.001l4 -401c0 -146.667 -67 -220 -201 -220h-730v216h243c-35.333 58.667 -53 118.667 -53 180c0 134.667 54.333 249 163 343c107.333 94 253 137.333 437 130c65.333 0 121.333 -18.333 168 -55c-20.667 -32.667 -31 -97 -31 -193zM638.999 237.001
c11.333 14 17.001 42.001 17.001 84.001l-9 337c-66 -16 -122.333 -49 -169 -99c-48.667 -50.667 -73 -104.334 -73 -161.001c0 -62.667 13.333 -108.667 40 -138c27.333 -29.333 70.666 -44 129.999 -44c32 0 53.333 7 64 21z" />
    <glyph glyph-name="uniFED4" unicode="&#x641;" horiz-adv-x="1088" arabic-form="medial" 
d="M531 1008c-20 19.333 -30 44.667 -30 76c0 34.667 12.333 64 37 88s54.667 36 90 36c32 0 58.667 -10 80 -30s32 -44.667 32 -74c0 -35.333 -12.667 -65 -38 -89s-56.333 -36 -93 -36c-32.667 0 -58.667 9.66699 -78 29zM991 0.000976562
c-60 1.33301 -102.999 20.333 -128.999 57c-34.667 -38 -85.334 -57 -152.001 -57h-730v216h243c-35.333 58.667 -53 118.667 -53 180c0 134.667 54.333 249 163 343c107.333 94 253 137.333 437 130c66.667 0 122.667 -18.333 168 -55c-20 -32.667 -30 -97 -30 -193l2 -270
c0.666992 -2 1 -5.66699 1 -11c0 -38.667 9.66699 -69.667 29 -93c14.667 -20.667 31.667 -31 51 -31h117v-216h-117zM639.001 237.001c11.333 14 17.001 42 17.001 84c0 24.667 -1 75.334 -3 152.001l-5 185c-66 -16 -122.667 -49 -170 -99
c-48.667 -50.667 -73 -104.334 -73 -161.001c0 -62.667 13.333 -108.667 40 -138c27.333 -29.333 70.666 -44 129.999 -44c32 0 53.333 7 64 21z" />
    <glyph glyph-name="uniFED6" unicode="&#x642;" horiz-adv-x="1503" arabic-form="final" 
d="M690 1016c-20 19.333 -30.002 44.667 -30.002 76c0 34.667 12.333 64 37 88c24 24 54 36 90 36c32.667 0 59.334 -9.66699 80.001 -29c20.667 -20 31 -45 31 -75c0 -35.333 -12.333 -65 -37 -89c-25.333 -24 -56.666 -36 -93.999 -36c-32 0 -57.667 9.66699 -77 29z
M990.998 1016c-20 19.333 -30.001 44.667 -30.001 76c0 34.667 12.333 64 37 88c24 24 54 36 90 36c32 0 58.667 -9.66699 80 -29c20.667 -20 31 -45 31 -75c0 -35.333 -12.333 -65 -37 -89c-25.333 -24 -56.666 -36 -93.999 -36c-32 0 -57.667 9.66699 -77 29z
M1191 0.00195312c-38 -156.667 -124.335 -266.334 -259.002 -329.001c-120 -56 -261.667 -68.667 -425 -38c-116.667 22.667 -219.667 75.667 -309 159c-106 99.333 -159 217 -159 353c0 124 33.667 186 101 186c34.667 0 82.334 -19 143.001 -57
c-24.667 -44.667 -35.667 -87.667 -33 -129c4.66699 -70.667 35.334 -133 92.001 -187c53.333 -51.333 120.666 -86.333 201.999 -105c82.667 -18.667 158.667 -15.667 228 9c71.333 25.333 123 70.333 155 135c-188.667 7.33301 -321.667 73.333 -399 198
c-35.333 58.667 -53 124.667 -53 198c0 148.667 54 268.334 162 359.001c110.667 94 256.334 137.667 437.001 131c65.333 0 121.333 -18.667 168 -56c-20 -32.667 -30 -97 -30 -193l3 -418h307v-216h-331zM959.995 217.002c0 40 -2.66699 191.667 -8 455
c-64 -16 -120.333 -51.667 -169 -107s-73 -112 -73 -170c0 -62.667 13.333 -108 40 -136c26 -28.667 69 -43 129 -43c46 0 73 0.333008 81 1z" />
    <glyph glyph-name="uniFED7" unicode="&#x642;" horiz-adv-x="978" arabic-form="initial" 
d="M399 1016c-20 19.333 -30.001 44.667 -30.001 76c0 34.667 12.333 64 37 88c25.333 24 55.666 36 90.999 36c32.667 0 59.334 -9.66699 80.001 -29c20.667 -20 31 -45 31 -75c0 -35.333 -12.333 -65 -37 -89c-25.333 -24 -56.666 -36 -93.999 -36
c-32 0 -58 9.66699 -78 29zM699.999 1017c-20 19.333 -30.002 44.333 -30.002 75c0 34.667 12.333 64 37 88s54.667 36 90 36c32.667 0 59.334 -9.66699 80.001 -29c21.333 -20 32 -45 32 -75c0 -35.333 -12.333 -65 -37 -89c-25.333 -24 -56.666 -36 -93.999 -36
c-32.667 0 -58.667 10 -78 30zM906.997 621.001c0 -22 1 -91.668 3 -209.001l1 -191c0 -147.333 -67 -221 -201 -221h-730v216h243c-35.333 58.667 -53 118.667 -53 180c0 138.667 54 253.334 162 344.001c113.333 94 259.333 137.333 438 130
c65.333 0 121.333 -18.667 168 -56c-20.667 -32.667 -31 -97 -31 -193zM638.997 237c11.333 14.667 17 42.667 17 84l-9 337c-65.333 -16 -121.666 -49 -168.999 -99c-48 -50.667 -72 -104 -72 -160c0 -64 13.333 -110.333 40 -139c26.667 -29.333 69.667 -44 129 -44
c31.333 0 52.666 7 63.999 21z" />
    <glyph glyph-name="uniFED8" unicode="&#x642;" horiz-adv-x="1087" arabic-form="medial" 
d="M383 1016c-20 19.333 -30.001 44.667 -30.001 76c0 34.667 12.333 64 37 88c24 24 54 36 90 36c32 0 58.667 -9.66699 80 -29c20.667 -20 31 -45 31 -75c0 -35.333 -12.333 -65 -37 -89c-25.333 -24 -56.666 -36 -93.999 -36c-32 0 -57.667 9.66699 -77 29zM682.999 1016
c-20 19.333 -30 44.667 -30 76c0 34.667 12.333 64 37 88s55 36 91 36c32 0 58.667 -9.66699 80 -29c20.667 -20 31 -45 31 -75c0 -35.333 -12.667 -65 -38 -89s-56.333 -36 -93 -36c-32 0 -58 9.66699 -78 29zM983.999 0.00195312
c-56.667 0 -97.332 19.332 -121.999 57.999c-34.667 -38.667 -85.334 -58 -152.001 -58h-730v216h243c-35.333 58.667 -53 118.667 -53 180c0 138.667 54 253.334 162 344.001c113.333 94 259.333 137.333 438 130c64.667 0 120.667 -18.667 168 -56
c-20.667 -32.667 -31 -97 -31 -193l3 -270c0.666992 -2 1 -5.66699 1 -11c0 -36 8.66699 -66 26 -90c16 -22 34 -33.333 54 -34h116v-216h-123zM639.001 237.001c11.333 14.667 17 42.667 17 84l-9 337c-65.333 -16 -121.666 -49 -168.999 -99
c-48.667 -50.667 -73 -104 -73 -160c0 -64 13.333 -110.333 40 -139c26.667 -29.333 70 -44 130 -44c31.333 0 52.666 7 63.999 21z" />
    <glyph glyph-name="uniFEDA" unicode="&#x643;" horiz-adv-x="1482" arabic-form="final" 
d="M1385 0c-56.667 0 -98 19.665 -124 58.998c-33.333 -39.333 -83.666 -59 -150.999 -59h-701c-128.667 9.33301 -220.667 38.333 -276 87c-55.333 48 -84.666 126 -87.999 234c-4 100 16.667 188.667 62 266s99 116 161 116c42.667 0 77.667 -32.667 105 -98
c-40.667 -16 -69.334 -49.667 -86.001 -101c-16 -50 -17 -103.333 -3 -160c11.333 -45.333 33.666 -77.666 66.999 -96.999c32 -18.667 80 -29 144 -31h481c29.333 0 50 9.66699 62 29c12 18.667 18 50.334 18 95.001c0 58.667 -1.33301 214.667 -4 468l-5 451
c0 36.667 11 66 33 88s52 33 90 33c65.333 0 121.333 -18.667 168 -56c-20 -32.667 -30 -97 -30 -193l3 -790c0 -36 8.66699 -66.333 26 -91c16 -22 34 -33.333 54 -34h116v-216h-122zM563 811.998c-20.667 28.667 -31 60.333 -31 95c0 44 16.333 79.667 49 107
c32.667 26.667 76 40 130 40c52 0 91 -13 117 -39c14 -14 19.667 -34.333 17 -61c-2.66699 -30 -19 -45 -49 -45c-26 0 -46.333 5 -61 15c5.33301 0 10 4.33301 14 13c3.33301 8 4 17 2 27v2c-13.333 4 -25.333 6 -36 6c-22 0 -40.333 -7.33301 -55 -22
s-22 -33.334 -22 -56.001c0 -45.333 23.333 -72.666 70 -81.999h113c34.667 -2 52 -15.333 52 -40c0 -28 -6.66699 -50.667 -20 -68c-9.33301 8 -20 12.667 -32 14h-317c-14 1.33301 -25.667 7.66602 -35 18.999c-9.33301 10 -14 21.333 -14 34
c0 18.667 6.66699 36.667 20 54c8.66699 -7.33301 18.667 -11.666 30 -12.999h58z" />
    <glyph glyph-name="uniFEDB" unicode="&#x643;" horiz-adv-x="1236" arabic-form="initial" 
d="M1168 104c-24 -44.667 -54 -73.334 -90 -86.001c-32 -12 -91.667 -18 -179 -18h-919v216h809c-10.667 4 -110.334 76.333 -299.001 217c-169.333 127.333 -291.333 191 -366 191c-50 42.667 -77 87 -81 133c-4 45.333 10.333 85.666 43 120.999
c30.667 32.667 85.667 69.334 165 110.001c368 187.333 565.667 320 593 398c80.667 -66 123.334 -127.333 128.001 -184c4 -41.333 -5.33301 -71.666 -28 -90.999c-14.667 -12 -77 -46.333 -187 -103l-374 -189c57.333 -30 207.666 -141 450.999 -333
c185.333 -145.333 305 -207.333 359 -186c8.66699 -84 0.333984 -149.333 -24.999 -196z" />
    <glyph glyph-name="uniFEDC" unicode="&#x643;" horiz-adv-x="1470" arabic-form="medial" 
d="M1284 0c-68 1.33301 -113.336 25.332 -136.003 71.999c-22 -30.667 -50.333 -50.667 -85 -60c-31.333 -8 -86 -12 -164 -12h-919v216h809c-11.333 4 -110.666 76.333 -297.999 217c-169.333 127.333 -291.666 191 -366.999 191c-48.667 42.667 -75.667 87 -81 133
c-4 45.333 10.333 85.666 43 120.999c30.667 32.667 86 69.334 166 110.001c366.667 186.667 564.334 319.334 593.001 398.001c80 -66 122.333 -127.333 127 -184c4.66699 -44 -13.333 -80.333 -54 -109c-24 -16 -141.333 -76.667 -352 -182l-182 -92
c55.333 -28.667 205.333 -139.667 450 -333c185.333 -145.333 305 -207.333 359 -186c2.66699 -23.333 3 -51.333 1 -84h296v-216h-206z" />
    <glyph glyph-name="uniFEDE" unicode="&#x644;" horiz-adv-x="1279" arabic-form="final" 
d="M1091 0c-42.667 0 -76.667 9.66895 -102 29.002c-12 -127.333 -53.667 -228 -125 -302s-161.333 -111.333 -270 -112c-166.667 -0.666992 -300.667 49.666 -402 150.999c-102 102 -153 239 -153 411c0 123.333 33.667 185 101 185c33.333 0 81.333 -18.667 144 -56
c-22.667 -40.667 -34 -84 -34 -130c0 -94 31 -167 93 -219c58.667 -50 130.667 -68.667 216 -56c62.667 9.33301 107.667 36.666 135 81.999c28 46 42 118 42 216l-10 1062c0 37.333 11 67 33 89c22 21.333 52.333 32 91 32c65.333 0 121.333 -18.667 168 -56
c-20 -32.667 -30 -97 -30 -193l3 -917h307v-216h-207z" />
    <glyph glyph-name="uniFEDF" unicode="&#x644;" horiz-adv-x="550" arabic-form="initial" 
d="M146 216c30 0 51 9.66797 63 29.001c12 18.667 18 50 18 94l-5 471c-2.66699 254 -4 404.667 -4 452c0 36.667 11 66 33 88s52 33 90 33c66 0 122.333 -18.333 169 -55c-20 -32.667 -30 -97.334 -30 -194.001l3 -912c0 -148 -67.333 -222 -202 -222h-301v216h166z" />
    <glyph glyph-name="uniFEE0" unicode="&#x644;" horiz-adv-x="659" arabic-form="medial" 
d="M556 0c-56 0 -97.001 19.334 -123.001 58.001c-34.667 -38.667 -85 -58 -151 -58h-302v216h166c30 0 51 9.66699 63 29c12 18.667 18 50 18 94c0 60 -1.33301 217 -4 471l-5 452c0 37.333 10.667 66.666 32 87.999c22.667 22 53.334 33 92.001 33
c66 0 122.333 -18.333 169 -55c-21.333 -33.333 -32 -98 -32 -194c0 -60.667 1.33301 -329.667 4 -807c2 -32.667 11.333 -59.667 28 -81c16 -20 33.333 -30 52 -30h116v-216h-123z" />
    <glyph glyph-name="uniFEE2" unicode="&#x645;" horiz-adv-x="1502" arabic-form="final" 
d="M1315 0c-78.667 1.33301 -127.669 35.332 -147.002 101.999c-72 -68 -166.667 -102 -284 -102h-145c-68 0 -118.333 18.333 -151 55c-26 -36.667 -66.333 -55 -121 -55h-66c-29.333 0 -50 -9.66699 -62 -29c-12 -18.667 -18 -50 -18 -94
c0 -39.333 1.33301 -109.333 4 -210l5 -192c0 -36 -10.667 -65.333 -32 -88c-23.333 -21.333 -53.666 -32 -90.999 -32c-65.333 0 -121.333 18.333 -168 55c20.667 32.667 31 97 31 193l-4 391c0 147.333 67 221.333 201 222h193c19.333 0 37 10.333 53 31
c16.667 22 25.334 50.333 26.001 85l3 285c0 91.333 -10 152.333 -30 183c46.667 35.333 102.667 53 168 53c181.333 6.66699 325.333 -33.666 432 -120.999c104.667 -85.333 160 -204 166 -356c2 -56 -8.33301 -109.333 -31 -160h274v-216h-206zM1043 376.999
c0 57.333 -24.667 116.333 -74 177c-50.667 62 -106.667 100 -168 114l-8 -363c0 -59.333 27 -89 81 -89c112.667 0 169 53.667 169 161z" />
    <glyph glyph-name="uniFEE3" unicode="&#x645;" horiz-adv-x="998" arabic-form="initial" 
d="M861 114c-73.333 -76 -172.33 -114.001 -296.997 -114.001h-145c-66.667 0 -117 18.333 -151 55c-26.667 -36.667 -69.334 -55 -128.001 -55h-160v216h160c17.333 0 34 9 50 27c18 23.333 28 53 30 89l2 285c0 91.333 -10.333 152.333 -31 183
c47.333 35.333 103.666 53 168.999 53c181.333 6.66699 325.666 -33.666 432.999 -120.999c104.667 -85.333 159.667 -204 165 -356c4 -104 -28.333 -191.333 -97 -262zM723.003 376.999c0 57.333 -24.666 116.333 -73.999 177c-50.667 62 -106.334 100 -167.001 114
l-9 -363c0 -59.333 27 -89 81 -89c112.667 0 169 53.667 169 161z" />
    <glyph glyph-name="uniFEE4" unicode="&#x645;" horiz-adv-x="1181" arabic-form="medial" 
d="M995 0c-79.333 0 -128.669 34 -148.002 102c-70.667 -68 -165 -102 -283 -102h-145c-68 -0 -118.333 18.333 -151 55c-26.667 -36.667 -69.667 -55 -129 -55h-159v216h159c20 0 38 10.333 54 31c16.667 22 25.334 50.333 26.001 85l3 285c0 91.333 -10 152.333 -30 183
c46.667 35.333 102.334 53 167.001 53c182 6.66699 326.333 -33.666 433 -120.999c104.667 -84.667 160 -203.334 166 -356.001c2 -56 -8.33301 -109.333 -31 -160h274v-216h-206zM722.997 377c0 57.333 -24.667 116.333 -74 177c-50.667 62 -106.667 100 -168 114l-8 -363
c0 -59.333 26.667 -89 80 -89c113.333 0 170 53.667 170 161z" />
    <glyph glyph-name="uniFEE6" unicode="&#x646;" horiz-adv-x="1391" arabic-form="final" 
d="M399 768c-20 20 -30.001 45.667 -30.001 77c0 34 12.333 63 37 87s55 36 91 36c32 0 58.667 -9.66699 80 -29c20.667 -20 31 -44.667 31 -74c0 -35.333 -12.333 -65.333 -37 -90c-25.333 -24 -56.666 -36 -93.999 -36c-32 0 -58 9.66699 -78 29zM1211 0
c-65.333 0 -110.667 20.001 -136 60.001c-25.333 -105.333 -76 -189 -152 -251c-75.333 -62 -162.666 -93 -261.999 -93c-188.667 -0.666992 -337.334 51.333 -446.001 156c-117.333 112.667 -176 275.667 -176 489c0 123.333 33.667 185 101 185
c35.333 0 83.333 -19 144 -57c-22.667 -39.333 -34 -82.333 -34 -129c0 -144.667 43 -247.667 129 -309c86 -60 179 -75 279 -45c118 36 177 133.667 177 293c0 14 -1.66699 89.333 -5 226c-2.66699 109.333 -4 178.666 -4 207.999c0 37.333 11 67 33 89
c21.333 21.333 51.333 32 90 32c66 0 122.333 -18.333 169 -55c-20.667 -32.667 -31 -97 -31 -193c0 -55.333 0.333008 -117.333 1 -186l2 -204h320v-216h-199z" />
    <glyph glyph-name="uniFEE7" unicode="&#x646;" horiz-adv-x="549" arabic-form="initial" 
d="M266 1063c-20 20 -30.001 45.667 -30.001 77c0 34.667 12.333 64 37 88c24 24 54 36 90 36c32 0 58.667 -10 80 -30c20.667 -20 31 -44.667 31 -74c0 -35.333 -12.333 -65.333 -37 -90c-25.333 -24 -56.666 -36 -93.999 -36c-32 0 -57.667 9.66699 -77 29zM478.999 608
l3.00098 -387.999c0 -146.667 -67 -220 -201 -220h-301v216h166c30 0.666992 51 10.334 63 29.001s18 50 18 94c0 15.333 -1.66699 84.666 -5 207.999c-2.66699 98.667 -4 161.667 -4 189c0 36.667 11 66 33 88c21.333 22 51 33 89 33c67.333 0 123.666 -18.333 168.999 -55
c-20 -32.667 -30 -97.334 -30 -194.001z" />
    <glyph glyph-name="uniFEE8" unicode="&#x646;" horiz-adv-x="657" arabic-form="medial" 
d="M274 1008c-20 20 -30 45.667 -30 77c0 34.667 12.333 64 37 88s55 36 91 36c32 0 58.333 -10 79 -30c20.667 -19.333 31 -44 31 -74c0 -36 -12.333 -66 -37 -90s-55.667 -36 -93 -36c-32.667 0 -58.667 9.66699 -78 29zM561 0c-60 0 -102.998 19.002 -128.998 57.002
c-34 -38 -84.333 -57 -151 -57h-301v216h166c30 0.666992 51 10.334 63 29.001s18 50 18 94c0 15.333 -1.66699 84.666 -5 207.999l-5 189c0 36.667 11 66 33 88c22.667 22 53 33 91 33c65.333 0 121.333 -18.333 168 -55c-20 -32.667 -30 -97.334 -30 -194.001l2 -275
c1.33301 -34.667 10.666 -63 27.999 -85c15.333 -20.667 32.666 -31.334 51.999 -32.001h116v-216h-116z" />
    <glyph glyph-name="uniFEEA" unicode="&#x647;" horiz-adv-x="961" arabic-form="final" 
d="M869 0c-66 1.33301 -111.665 24.333 -136.998 69c-48 -46 -113 -69 -195 -69h-96c-125.333 0 -225 38 -299 114c-68.667 71.333 -101 159.333 -97 264c4.66699 153.333 59 272 163 356c105.333 88.667 251.666 130.334 438.999 125.001
c65.333 0 121.666 -17.667 168.999 -53c-20 -32 -30 -93.667 -30 -185l2 -270c0.666992 -2 1 -5 1 -9c0 -36.667 8.66699 -67 26 -91c16 -22.667 34 -34.334 54 -35.001h117v-216h-117zM533.002 306l-9 366c-61.333 -14.667 -117.333 -52.667 -168 -114
c-50 -60.667 -75 -120 -75 -178c0 -109.333 57 -164 171 -164c54 0 81 30 81 90z" />
    <glyph glyph-name="uniFEEB" unicode="&#x647;" horiz-adv-x="1241" arabic-form="initial" 
d="M1201 398c0 -118.667 -43.667 -214.334 -131 -287.001c-88.667 -74 -205.667 -111 -351 -111h-739v216h135c-23.333 44.667 -35 93 -35 145c0 104.667 39 191.334 117 260.001c76 67.333 174.667 104.333 296 111c-3.33301 14.667 -5 26.667 -5 36
c0 67.333 61.667 101 185 101c146 0 267.667 -42.667 365 -128c108.667 -94 163 -208.333 163 -343zM708 216c60.667 0 110.333 21 149 63c38.667 39.333 58 90.666 58 153.999c0 66.667 -22.333 120.667 -67 162c-44.667 42 -102.667 63 -174 63h-2
c-7.33301 -29.333 -11 -69.666 -11 -120.999l3 -321h44zM439.999 216c15.333 14 23 42.334 23 85.001c0 12 -2.33301 109.333 -7 292c-46 -12 -85.333 -41.333 -118 -88c-31.333 -45.333 -47 -93 -47 -143c0 -78.667 16 -127.334 48 -146.001h101z" />
    <glyph glyph-name="uniFEEC" unicode="&#x647;" horiz-adv-x="1354" arabic-form="medial" 
d="M1174 0c-76 0 -125 26.666 -147 79.999c-82 -52 -184.667 -78.667 -308 -80h-739v216h135c-23.333 44.667 -35 93 -35 145c0 104.667 39 191.334 117 260.001c76 67.333 174.667 104.333 296 111c-3.33301 14.667 -5 26.667 -5 36c0 67.333 61.667 101 185 101
c147.333 0 272 -45 374 -135c103.333 -90.667 155 -202.667 155 -336c0 -66 -15 -126.667 -45 -182h217v-216h-200zM709 215.999c60 0 109.667 20.665 149 61.998c38.667 40.667 58 92.334 58 155.001c0 66.667 -22.333 120.667 -67 162c-44.667 42 -102.667 63 -174 63h-2
c-7.33301 -29.333 -11 -69.666 -11 -120.999c0 -48 0.333008 -102.667 1 -164l1 -157h45zM440 215.997c15.333 14 23.001 42.334 23.001 85.001l-6 292c-46.667 -12 -86.334 -41.333 -119.001 -88c-31.333 -45.333 -47 -93 -47 -143c0 -78.667 16 -127.334 48 -146.001h101z
" />
    <glyph glyph-name="uniFEEE" unicode="&#x648;" horiz-adv-x="1029" arabic-form="final" 
d="M778 0c-0.666992 -94.667 -9.33008 -161.999 -25.9971 -201.999c-52 -122 -154.333 -183 -307 -183c-50 0 -93 12.667 -129 38s-54 55 -54 89c0 35.333 18 76.333 54 123c27.333 -25.333 56.666 -38 87.999 -38c47.333 0 80.666 20 99.999 60
c11.333 24.667 18.333 62.667 21 114h-25c-194 4 -330 65.333 -408 184c-35.333 55.333 -53 116.666 -53 183.999c0 68 14.333 135.667 43 203c30 71.333 70 126.666 120 165.999c107.333 88.667 252.666 129.334 435.999 122.001c65.333 0 121.333 -17.333 168 -52
c-20.667 -30.667 -31 -90.667 -31 -180c0 -27.333 0.666992 -89 2 -185c0 -25.333 0.333008 -51 1 -77c0.666992 -56 1 -106 1 -150h269v-216h-270zM338.004 251.001c45.333 -24 108 -35.667 188 -35l-2 461c-60.667 -14 -117.667 -54.333 -171 -121
c-52.667 -66 -79 -127.667 -79 -185c0 -53.333 21.333 -93.333 64 -120z" />
    <glyph glyph-name="uniFEF0" unicode="&#x649;" horiz-adv-x="1753" arabic-form="final" 
d="M1590 0c-134.667 0 -202.001 73.9971 -202.001 221.997c0 31.333 1 83 3 155l-1 161c0 30 -9.66699 51 -29 63c-18.667 12 -50.334 18 -95.001 18h-4c32.667 -244.667 -33.333 -426 -198 -544c-154.667 -110.667 -338.667 -133 -552 -67
c-161.333 50.667 -278.666 116.667 -351.999 198c-80.667 89.333 -121 211 -121 365c0 124.667 34 187 102 187c35.333 0 83.333 -19.333 144 -58c-26.667 -47.333 -38 -90.666 -34 -129.999c13.333 -116 63 -208.333 149 -277c78.667 -62.667 169.334 -92.667 272.001 -90
c102.667 2 185.667 36.667 249 104c72.667 74.667 102.667 176 90 304l-75 -2c-37.333 0 -67 11.333 -89 34c-22 22 -33 52 -33 90c0 44 18.667 89.667 56 137c33.333 -20 98.333 -30 195 -30c54.667 0 113.667 0.333008 177 1l159 2c148 0 222 -67.667 222 -203l1 -302
c0 -47.333 4.33301 -78.666 13 -93.999c8.66699 -17.333 27 -26.666 55 -27.999h100v-216h-202z" />
    <glyph glyph-name="uniFEF2" unicode="&#x64a;" horiz-adv-x="1760" arabic-form="final" 
d="M1578 0c-134 0 -201.001 73.332 -201.001 219.999v69c0.666992 38.667 1.66699 67 3 85l-1 160c0 29.333 -9.33301 50.333 -28 63c-18.667 11.333 -50.334 17 -95.001 17h-4c34 -254 -36.333 -437 -211 -549c-154 -100 -332 -119 -534 -57
c-159.333 50.667 -275.333 116.334 -348 197.001c-80 88.667 -120 209 -120 361c0 124 33.333 186 100 186c34.667 0 82.667 -18.667 144 -56c-26.667 -47.333 -38 -90.666 -34 -129.999c12 -112 59.333 -202 142 -270c78 -64.667 169.667 -96 275 -94
c106.667 2 191.334 38 254.001 108c66.667 74.667 94 173.667 82 297l-73 -2c-37.333 0 -67 11 -89 33c-21.333 22 -32 52 -32 90c0 43.333 18.667 88.666 56 135.999c32.667 -20.667 97 -31 193 -31l175 2c63.333 0.666992 116.333 1 159 1c146.667 0 220 -67 220 -201
v-299c0 -48 4 -79.333 12 -94c8.66699 -17.333 27.334 -26 56.001 -26h100v-216h-201zM579.999 -136.001c21.333 -20 31.999 -44.667 31.999 -74c0 -36 -12.667 -66 -38 -90s-56.666 -36 -93.999 -36c-32 0 -57.667 9.66699 -77 29c-20 20 -30 45.667 -30 77
c0 34.667 12.333 64 37 88s54.667 36 90 36c32 0 58.667 -10 80 -30zM880.998 -136.001c21.333 -20 32 -44.667 32 -74c0 -36 -12.667 -65.667 -38 -89c-24.667 -24.667 -56 -37 -94 -37c-32 0 -57.667 9.66699 -77 29c-20 20 -30 45.667 -30 77c0 34.667 12.333 64 37 88
s54.667 36 90 36c32 0 58.667 -10 80 -30z" />
    <glyph glyph-name="uniFEF3" unicode="&#x64a;" horiz-adv-x="569" arabic-form="initial" 
d="M166 216c30 0 51.001 9.66602 63.001 28.999c12 18.667 18 50.334 18 95.001c0 14.667 -1.66699 83.667 -5 207l-5 189c0 37.333 11 67 33 89c22 21.333 52 32 90 32c65.333 0 121.666 -18.667 168.999 -56c-20 -32.667 -30 -97 -30 -193l3 -388
c0 -146.667 -67 -220 -201 -220h-321v216h186zM192.001 -136.001c21.333 -20 31.999 -44.667 31.999 -74c0 -36 -12.667 -66 -38 -90s-56.666 -36 -93.999 -36c-32 0 -58 9.66699 -78 29c-20 20 -30 45.667 -30 77c0 34.667 12.667 63.667 38 87
c24.667 24.667 54.667 37 90 37c32 0 58.667 -10 80 -30zM493 -137.001c21.333 -19.333 31.999 -43.667 31.999 -73c0 -36 -12.667 -65.667 -38 -89c-24.667 -24.667 -56 -37 -94 -37c-32 0 -58 9.66699 -78 29c-20 20 -30 45.667 -30 77c0 34.667 12.667 63.667 38 87
c24.667 24.667 54.667 37 90 37c32.667 0 59.334 -10.333 80.001 -31z" />
    <glyph glyph-name="uniFEF4" unicode="&#x64a;" horiz-adv-x="825" arabic-form="medial" 
d="M561 0c-59.333 0 -101.997 18.999 -127.997 56.999c-34.667 -38 -85.334 -57 -152.001 -57h-301v216h166c30 0 51 9.66699 63 29c12 18.667 18 50.334 18 95.001c0 14.667 -1.66699 83.667 -5 207c-2.66699 98.667 -4 161.667 -4 189c0 37.333 11 67 33 89
c21.333 21.333 51 32 89 32c65.333 0 121.666 -18.667 168.999 -56c-20 -32.667 -30 -97 -30 -193l3 -276c1.33301 -34 10.333 -62.333 27 -85c15.333 -20.667 32.666 -31 51.999 -31h284v-216h-284zM305.003 -136.001c20.667 -19.333 31 -44 31 -74
c0 -36 -12.333 -66 -37 -90c-25.333 -24 -57 -36 -95 -36c-31.333 0 -57 9.66699 -77 29c-20 20 -30 45.667 -30 77c0 34.667 12.333 64 37 88s55 36 91 36c32 0 58.667 -10 80 -30zM606.003 -136.001c20.667 -19.333 30.999 -44 30.999 -74c0 -36 -12.333 -66 -37 -90
c-25.333 -24 -56.666 -36 -93.999 -36c-32 0 -58 9.66699 -78 29c-20 20 -30 45.667 -30 77c0 34.667 12.333 64 37 88s54.667 36 90 36c33.333 0 60.333 -10 81 -30z" />
    <glyph glyph-name=".notdef" horiz-adv-x="3607" 
d="M581 695c20 0 37 -7 51 -21s21 -31 21 -51v-552c0 -19.333 -7 -36 -21 -50s-31 -21 -51 -21h-194v623c0 20 7 37 21 51s30.667 21 50 21h123zM850 615c0 -15.333 -6 -29.666 -18 -42.999c-11.333 -11.333 -25.333 -17 -42 -17c-14 0 -28 5.66699 -42 17
c-12 13.333 -18 27.666 -18 42.999c0 16 6 30 18 42s26 18 42 18s30 -6 42 -18s18 -26 18 -42zM839 615c0 12.667 -5.00195 24 -15.002 34c-9.33301 9.33301 -20.666 14 -33.999 14c-5.33301 0 -11.666 -1 -18.999 -3c-6.66699 -4 -11.667 -7.66699 -15 -11
c-9.33301 -9.33301 -14 -20.666 -14 -33.999c0 -14 4.66699 -25.667 14 -35s20.666 -14 33.999 -14c8 0 14.333 1.33301 19 4c12.667 6 21.334 14.667 26.001 26c2.66699 5.33301 4 11.666 4 18.999zM802.998 610l20 -29.999h-15l-18 30h-11v-30h-12v69h30
c16.667 0 25 -6.33301 25 -19s-6.33301 -19.334 -19 -20.001zM787.998 620.001c8.66699 0 14.667 0.999023 18 2.99902c2.66699 0.666992 4 3.33398 4 8.00098c0 6 -5 9 -15 9h-16v-20h9zM1519 510c38.667 -40 58 -99 58 -177v-101c0 -78 -19.333 -137 -58 -177
c-36.667 -38.667 -88.667 -58 -156 -58c-68 0 -120.333 19.333 -157 58c-38.667 40 -58 99 -58 177v101c0 78 19.333 137 58 177c36.667 38.667 89 58 157 58c67.333 0 119.333 -19.333 156 -58zM2475 510c38.667 -40 58 -99 58 -177v-101c0 -78 -19.333 -137 -58 -177
c-36.667 -38.667 -89 -58 -157 -58c-67.333 0 -119.666 19.333 -157 58c-38.667 40.667 -58 99.667 -58 177v101c0 77.333 19.333 136.333 58 177c37.333 38.667 89.666 58 157 58c68 0 120.333 -19.333 157 -58zM3045 232c0 -78 -19.333 -137 -58 -177
c-36.667 -38.667 -89 -58 -157 -58c-67.333 0 -119.333 19.333 -156 58c-38.667 40 -58 99 -58 177v101c0 78 19.333 137 58 177c36.667 38.667 88.667 58 156 58c68 0 120.333 -19.333 157 -58c38.667 -40 58 -99 58 -177v-101zM3158 2c-10 0 -15 5.33203 -15 15.999v518
c0 12.667 8 20.334 24 23.001c41.333 6 90.666 9 148 9c144.667 0 217 -56.667 217 -170v-7c0 -74.667 -34 -125.667 -102 -153l118 -220c1.33301 -2.66699 2 -4.66699 2 -6c0 -6.66699 -3 -10 -9 -10h-92c-5.33301 0 -10.333 5.33301 -15 16l-109 201l-77 3v-204
c0 -10.667 -5 -16 -15 -16h-75zM1035 562.999c10 0 15 -5 15 -15v-442c0 -72.667 -40 -109 -120 -109c-24 0 -44.333 1.66699 -61 5c-4.66699 2 -7 5.66699 -7 11v54c0 8.66699 5 13 15 13h50c12 0 18 8.66699 18 26v442c0 10 5 15 15 15h75zM2017 94.999
c10 0 15 -4.66797 15 -14.001v-63c0 -10.667 -5 -16 -15 -16h-329c-26 0 -39 9.66699 -39 29v41c0 10 3.33301 19.333 10 28l239 359c1.33301 2.66699 2 4.66699 2 6c0 4 -2.33301 6 -7 6h-210c-9.33301 0 -14 4.66699 -14 14v63c0 10 4.66699 15 14 15h304
c26.667 0 40 -9.66699 40 -29v-44c0 -9.33301 -3.66699 -19.666 -11 -30.999l-235 -352c-2 -2 -3 -4.66699 -3 -8c0 -2.66699 2.33301 -4 7 -4h232zM3248 306.998c19.333 -2 41.666 -3 67 -3c40.667 0 69.667 6.66699 87 20c17.333 12.667 26 35 26 67v7
c0 54 -37.667 81 -113 81c-27.333 0 -49.666 -1 -67 -3v-169zM1472 332.998c0 96 -36.333 144 -109 144s-109 -48 -109 -144v-101c0 -96 36.333 -144 109 -144s109 48 109 144v101zM2427 332.998c0 96 -36.333 144 -109 144s-109 -48 -109 -144v-101
c0 -96 36.333 -144 109 -144s109 48 109 144v101zM2940 332.998c0 96 -36.667 144 -110 144c-72.667 0 -109 -48 -109 -144v-101c0 -96 36.333 -144 109 -144c73.333 0 110 48 110 144v101zM233.998 283.998c19.333 0 36 -7 50 -21s21 -31 21 -51v-212h-194
c-20 0 -37 7 -51 21s-21 30.667 -21 50v141c0 20 7 37 21 51s31 21 51 21h123zM3071 -123.002v-23c0 -4 -2 -6 -6 -6h-1c-12.667 2 -28 3 -46 3c-22 0 -33 -15.333 -33 -46v-33c0 -31.333 11 -47 33 -47c18 0 33.333 1 46 3h1c4 0 6 -1.66699 6 -5v-23
c0 -6 -2.33301 -9.33301 -7 -10c-10.667 -2.66699 -26 -4 -46 -4c-53.333 0 -80 28.667 -80 86v33c0 57.333 26.667 86 80 86c17.333 0 32.666 -1.66699 46 -5c4.66699 -0.666992 7 -3.66699 7 -9zM3251 -133.002c14.667 -16 22 -37.333 22 -64v-29
c0 -26.667 -7.33301 -47.667 -22 -63c-15.333 -16.667 -36 -25 -62 -25c-56.667 0 -85 29.333 -85 88v29c0 58.667 28.333 88 85 88c26 0 46.667 -8 62 -24zM3567 -184.002v-119.999c0 -4.66699 -2.33301 -7 -7 -7h-33c-4.66699 0 -7 2.33301 -7 7v120
c0 23.333 -8.33301 35 -25 35c-10.667 0 -21.667 -3 -33 -9c0.666992 -4.66699 1 -13.334 1 -26.001v-120c0 -4.66699 -2.33301 -7 -7 -7h-32c-4.66699 0 -7 2.33301 -7 7v120c0 23.333 -8.33301 35 -25 35c-6 0 -16.667 -4 -32 -12v-143c0 -4.66699 -2.33301 -7 -7 -7h-33
c-4.66699 0 -7 2.33301 -7 7v185c0 4.66699 2.33301 7 7 7h31c4.66699 0 7 -2.33301 7 -7v-7c17.333 11.333 34.333 17 51 17c18.667 0 32.334 -5.33301 41 -16c18.667 10.667 38 16 58 16c39.333 0 59 -25 59 -75zM3227 -197.001c0 31.333 -12.667 47 -38 47
s-38 -15.667 -38 -47v-29c0 -32 12.667 -48 38 -48s38 16 38 48v29zM2892 -258.001c4.66699 0 7 -2 7 -6v-40c0 -4.66699 -2.33301 -7 -7 -7h-32c-4.66699 0 -7 2.33301 -7 7v40c0 4 2.33301 6 7 6h32z" />
    <glyph glyph-name="space" unicode=" " horiz-adv-x="438" 
 />
    <glyph glyph-name="exclam" unicode="!" horiz-adv-x="607" 
d="M324 1397c96 0 144 -50.332 144 -150.999c0 -29.333 -10.667 -110 -32 -242c-22 -132 -33 -248.333 -33 -349c0 -89.333 16.667 -154.333 50 -195c-51.333 -34.667 -99 -52 -143 -52c-55.333 0 -96 22.333 -122 67c-25.333 43.333 -38 111.666 -38 204.999
c0 32.667 1.66699 84.667 5 156c2.66699 70.667 4 125.667 4 165c0 144 -20.333 248.333 -61 313c90 55.333 165.333 83 226 83zM436 41.001c-37.333 -32.667 -84.333 -49 -141 -49c-52 0 -94.333 15.333 -127 46c-32.667 30 -49 67.667 -49 113c0 49.333 18 90 54 122
c35.333 32 81 48 137 48c54 0 97.667 -15.333 131 -46c32.667 -30.667 49 -70.334 49 -119.001c0 -45.333 -18 -83.666 -54 -114.999z" />
    <glyph glyph-name="quotedbl" unicode="&#x22;" horiz-adv-x="726" 
d="M666 1260c0 -14 -2 -29 -6 -45l-56 -404c-8.66699 -56.667 -30.667 -85 -66 -85c-36 0 -58 29 -66 87l-58 406c-1.33301 8 -2 19 -2 33c0 90 42 135 126 135c38 0 69 -11.667 93 -35c23.333 -23.333 35 -53.333 35 -90v-2zM312 1258
c0 -14.667 -1.33203 -29.667 -3.99902 -45l-58 -403c-4 -26 -12.333 -47 -25 -63c-12.667 -15.333 -26.334 -23 -41.001 -23c-34.667 0 -55.667 29 -63 87l-60 406c-1.33301 5.33301 -2 16.333 -2 33c0 90 41.667 135 125 135c38 0 69 -11.667 93 -35
c23.333 -23.333 35 -53.333 35 -90v-2z" />
    <glyph glyph-name="numbersign" unicode="#" horiz-adv-x="1124" 
d="M1011 951c28 0 50.668 -8.33301 68.001 -25c16.667 -16.667 25 -38 25 -64c0 -33.333 -12.333 -61 -37 -83c-26 -22 -59.333 -33 -100 -33h-101l-44 -159h81c28 0 51 -8.33301 69 -25c17.333 -16.667 26 -38.334 26 -65.001c0 -33.333 -12.333 -60.333 -37 -81
c-25.333 -21.333 -58 -32 -98 -32h-105l-96 -313c-23.333 -76 -65.333 -114 -126 -114c-26.667 0 -48 7.66699 -64 23c-16.667 16 -25 37 -25 63c0 16.667 2.66699 32 8 46l91 294h-155l-96 -308c-25.333 -78.667 -66.666 -118 -123.999 -118c-24 0 -44.667 8.33301 -62 25
c-18 17.333 -27 37.666 -27 60.999c0 19.333 2.66699 36 8 50l93 291h-68c-28 0 -51 8.33301 -69 25c-18.667 17.333 -28 39.333 -28 66c0 32.667 12.333 59.334 37 80.001c25.333 21.333 57.666 32 96.999 32h92l47 159h-74c-61.333 0 -92 29 -92 87c0 34 12.333 62 37 84
c24.667 22.667 56.667 34 96 34h96l101 322c9.33301 30.667 26 55.667 50 75c23.333 18.667 49 28 77 28c26.667 0 47.667 -6.66699 63 -20c16 -13.333 24 -31.333 24 -54c0 -8.66699 -1.66699 -19.667 -5 -33l-99 -317h158l99 317c9.33301 31.333 26 57 50 77
c23.333 18.667 48.666 28 75.999 28c26 0 47 -7 63 -21c16 -14.667 24 -33.667 24 -57c0 -11.333 -2 -22.666 -6 -33.999l-97 -311h79zM625.001 562l64 203h-199l-62 -203h197z" />
    <glyph glyph-name="dollar" unicode="$" horiz-adv-x="1202" 
d="M866 1358c111.333 0 167.002 -40.6641 167.002 -121.997c0 -47.333 -22.667 -104 -68 -170c-58 22 -113.333 33 -166 33c-64.667 0 -116 -12.333 -154 -37c-36.667 -24 -55 -54.667 -55 -92c0 -34.667 16.667 -68 50 -100
c19.333 -18.667 64.666 -52.334 135.999 -101.001c85.333 -59.333 143 -107 173 -143c42.667 -50.667 64 -110.667 64 -180c0 -76.667 -22.667 -148.334 -68 -215.001c-45.333 -67.333 -109 -121.666 -191 -162.999c1.33301 -34 3.66602 -77 6.99902 -129c2 -40 3 -66 3 -78
c0 -74.667 -31.667 -112 -95 -112c-46.667 0 -91 20 -133 60c16.667 40.667 29 107 37 199c-32.667 -4 -65.667 -6 -99 -6c-136.667 0 -205 49.667 -205 149c0 43.333 19 94.666 57 153.999c59.333 -32 126 -48 200 -48c63.333 0 114 13 152 39
c36.667 24.667 55 56.667 55 96c0 34 -15.333 64.667 -46 92c-14 12 -55.333 40 -124 84c-96 61.333 -161 111.333 -195 150c-45.333 52 -68 114 -68 186c0 163.333 93.667 293 281 389c-0.666992 38.667 -2 77 -4 115l-2 51c0 45.333 6.33301 77 19 95
c12.667 18.667 36.667 28 72 28c44 0 86.333 -18 127 -54c-16.667 -52.667 -27 -112.334 -31 -179.001c49.333 6 84 9 104 9z" />
    <glyph glyph-name="percent" unicode="%" horiz-adv-x="2038" 
d="M1328 1389c104.667 0 157 -38.666 157 -115.999c0 -23.333 -119.333 -239 -358 -647c-192.667 -328.667 -291 -543.667 -295 -645c-45.333 -5.33301 -81 -8 -107 -8c-102.667 0 -154 38.667 -154 116c0 35.333 38.333 116.666 115 243.999l131 214l169 282
c154 265.333 234 449.333 240 552c40.667 5.33301 74.667 8 102 8zM763 1281c68 -64.667 102 -155.333 102 -272c0 -122.667 -37.667 -223.667 -113 -303s-171 -119 -287 -119c-118 0 -212.333 34.667 -283 104s-106 161 -106 275c0 125.333 36.667 225.333 110 300
c72.667 74.667 170 112 292 112c122.667 0 217.667 -32.333 285 -97zM478 1194c-109.333 0 -164 -69.667 -164 -209c0 -140 52 -210 156 -210c47.333 0 85 19.667 113 59c29.333 41.333 44 98.333 44 171c0 126 -49.667 189 -149 189zM1871 674.002
c67.333 -64 101 -154.666 101 -271.999c0 -122.667 -37.667 -223.667 -113 -303c-75.333 -78.667 -171 -118 -287 -118c-118 0 -212.333 34.667 -283 104c-70.667 68.667 -106 160 -106 274c0 125.333 36.667 225.666 110 300.999c72.667 74 170 111 292 111
c122.667 0 218 -32.333 286 -97zM1585 589.003c-109.333 0 -164 -70 -164 -210c0 -140.667 52 -211 156 -211c47.333 0 85 19.667 113 59c29.333 41.333 44 98.333 44 171c0 127.333 -49.667 191 -149 191z" />
    <glyph glyph-name="ampersand" unicode="&#x26;" horiz-adv-x="1519" 
d="M1494 149c0 -106 -47.666 -158.999 -142.999 -158.999c-90.667 0 -205.667 52.333 -345 157c-132.667 -117.333 -282.334 -176 -449.001 -176c-152 0 -273 38.333 -363 115c-88.667 75.333 -133 175.333 -133 300c0 212 114.667 358.333 344 439
c-24.667 68.667 -37 126.667 -37 174c0 114 42.667 207 128 279c86 72.667 198 109 336 109c99.333 0 177.333 -16 234 -48c54 -30.667 81 -72 81 -124c0 -62.667 -40 -119.334 -120 -170.001c-41.333 49.333 -93 74 -155 74c-54 0 -97.667 -16 -131 -48s-50 -74 -50 -126
c0 -128.667 106.667 -280.667 320 -456c53.333 79.333 80 168 80 266c46 8 85.667 12 119 12c95.333 0 143 -36 143 -108c0 -66 -49.333 -167.333 -148 -304c76 -48.667 147.333 -73 214 -73c8 0 24.667 1.33301 50 4c16.667 -57.333 25 -103 25 -137zM519.001 624.001
c-96.667 -48.667 -145.001 -119 -145.001 -211c0 -58 20 -105.667 60 -143c40.667 -37.333 92.667 -56 156 -56c82.667 0 154.334 30.333 215.001 91c-122 106.667 -217.333 213 -286 319z" />
    <glyph glyph-name="quotesingle" unicode="'" horiz-adv-x="373" 
d="M61 1219c-1.33301 5.33301 -2 16.333 -2 33c0 42.667 11 76 33 100c22 24.667 52.667 37 92 37c40 0 71.333 -11.667 94 -35c22.667 -22.667 34 -54 34 -94c0 -14.667 -1.33301 -29.667 -4 -45l-58 -404c-8.66699 -56.667 -30.667 -85 -66 -85
c-34.667 0 -55.667 29 -63 87z" />
    <glyph glyph-name="parenleft" unicode="(" horiz-adv-x="796" 
d="M432 524c0 -198 68.668 -437 206.001 -717c18.667 -36 28 -65 28 -87s-7.33301 -39.667 -22 -53c-14.667 -14 -34 -21 -58 -21c-40.667 0 -84.334 25.333 -131.001 76c-215.333 232.667 -323 518.667 -323 858c0 296.667 73 533.667 219 711c64 78 136 117 216 117
c80.667 0 149 -47.667 205 -143c-226.667 -135.333 -340 -382.333 -340 -741z" />
    <glyph glyph-name="parenright" unicode=")" horiz-adv-x="796" 
d="M362 531c0 198 -69 436.333 -207 715c-18 37.333 -27 67 -27 89s7.33301 39.667 22 53s34 20 58 20c42.667 0 87 -25 133 -75c214 -231.333 321 -518 321 -860c0 -295.333 -73 -531.666 -219 -708.999c-64.667 -78.667 -136.667 -118 -216 -118
c-80 0 -148.333 47.667 -205 143c226.667 137.333 340 384.666 340 741.999z" />
    <glyph glyph-name="asterisk" unicode="*" horiz-adv-x="966" 
d="M484 1405c64.667 0 96.999 -44.667 96.999 -134c0 -60 -10 -110.333 -30 -151c-19.333 -38 -41.666 -57 -66.999 -57c-26 0 -48.333 19 -67 57c-20 40.667 -30 91.667 -30 153c0 88 32.333 132 97 132zM330.999 1117c48 -42 71.999 -79.333 71.999 -112
c0 -36 -22 -54 -66 -54c-61.333 0 -117.666 16 -168.999 48c-50.667 31.333 -76 65.333 -76 102c0 26 8.33301 47.667 25 65s38 26 64 26c42 0 92 -25 150 -75zM634.998 1117c58 50 107.999 75 149.999 75c26 0 47.333 -8.66699 64 -26s25 -39 25 -65
c0 -36.667 -25.333 -70.667 -76 -102c-51.333 -32 -107.666 -48 -168.999 -48c-44 0 -66 18 -66 54c0 32.667 24 70 72 112zM444.997 856c0 -50.667 -19.668 -101.667 -59.001 -153c-40 -51.333 -80 -77 -120 -77c-25.333 0 -46.666 8.66699 -63.999 26
c-16.667 16.667 -25 37 -25 61c0 40 26.333 84 79 132c51.333 46 96.333 69 135 69c36 0 54 -19.333 54 -58zM572.996 914c38.667 0 83.666 -23 134.999 -69c52.667 -48 79 -92 79 -132c0 -24 -8.33301 -44.333 -25 -61c-17.333 -17.333 -38.666 -26 -63.999 -26
c-40 0 -80 25.667 -120 77c-39.333 51.333 -59 102.333 -59 153c0 38.667 18 58 54 58z" />
    <glyph glyph-name="plus" unicode="+" horiz-adv-x="1495" 
d="M1230 686c31.333 0 57 -10.333 77 -31c20.667 -20.667 31 -47 31 -79c0 -33.333 -10.333 -60 -31 -80c-20 -20 -46.333 -30 -79 -30h-371v-375c0 -32 -10 -58 -30 -78s-46.667 -30 -80 -30c-32 0 -58.333 10.333 -79 31c-20.667 20 -31 45.667 -31 77v375h-366
c-30.667 0 -56.334 10 -77.001 30c-20.667 20.667 -31 47.334 -31 80.001c0 33.333 10.333 60 31 80s47 30 79 30h364v373c0 32 10 58.333 30 79c20.667 20.667 47.334 31 80.001 31c32 0 58.333 -10.333 79 -31s31 -46.334 31 -77.001v-375h373z" />
    <glyph glyph-name="comma" unicode="," horiz-adv-x="601" 
d="M213 -230c63.333 43.333 94.999 102.668 94.999 178.001c0 33.333 -9 57.666 -27 72.999c-13.333 10.667 -37.666 19.667 -72.999 27c-82.667 20 -124 66.333 -124 139c0 48.667 15.333 88.334 46 119.001c31.333 30.667 71.333 46 120 46c70.667 0 128 -24.667 172 -74
c44 -50 66 -115 66 -195c0 -156.667 -91.667 -269.334 -275 -338.001l-9 17z" />
    <glyph glyph-name="hyphen" unicode="-" horiz-adv-x="707" 
d="M646 527c0 -127.333 -61.665 -191 -184.998 -191c-29.333 0 -72 4 -128 12c-56 7.33301 -97 11 -123 11c-56.667 0 -106.334 -9.66699 -149.001 -29c-6.66699 48 -10 83.667 -10 107c0 127.333 63 191 189 191c31.333 0 73.666 -3.66699 126.999 -11
c52.667 -8 89.667 -12 111 -12c66.667 0 119.667 9.66699 159 29c6 -51.333 9 -87 9 -107z" />
    <glyph glyph-name="period" unicode="." horiz-adv-x="601" 
d="M433 43c-39.333 -36.667 -88.667 -54.998 -148 -54.998c-52 0 -95.333 16.667 -130 50s-52 74.666 -52 123.999c0 56 18.667 101.667 56 137s86.333 53 147 53c54.667 0 99 -16.333 133 -49s51 -74.334 51 -125.001c0 -54 -19 -99 -57 -135z" />
    <glyph glyph-name="slash" unicode="/" horiz-adv-x="854" 
d="M616 1291c28.667 60 76.334 90 143.001 90c30.667 0 55 -7 73 -21c17.333 -14.667 26 -34 26 -58c0 -15.333 -8.33301 -42.333 -25 -81l-607 -1310c-28.667 -60.667 -76.334 -91 -143.001 -91c-65.333 0 -98 26.667 -98 80c0 17.333 8.33301 44.333 25 81z" />
    <glyph glyph-name="zero" unicode="0" horiz-adv-x="1215" 
d="M988 179c-104.667 -137.333 -239.333 -206 -404 -206c-156 0 -281.333 59.333 -376 178c-96.667 120.667 -145 283.334 -145 488.001c0 230.667 51.333 411.667 154 543c101.333 129.333 239.333 194 414 194c164 0 291 -55.667 381 -167
c91.333 -112.667 137 -272.334 137 -479.001c0 -227.333 -53.667 -411 -161 -551zM778.001 1017c-39.333 69.333 -95 104 -167 104c-156.667 0 -235 -152.667 -235 -458c0 -140 19.667 -246.667 59 -320c39.333 -72.667 95 -109 167 -109s128.667 40.667 170 122
c43.333 84 65 202.333 65 355c0 133.333 -19.667 235.333 -59 306z" />
    <glyph glyph-name="one" unicode="1" horiz-adv-x="856" 
d="M441 0c-62.667 0 -107 13.665 -133 40.998c-24.667 26.667 -37 72.334 -37 137.001l13 248c8.66699 166.667 13 334.334 13 503.001c0 50 -2 105.333 -6 166c-56 -28 -97.333 -42 -124 -42c-50 0 -75 28.333 -75 85c0 41.333 14 97.333 42 168
c59.333 7.33301 134 22 224 44c76 19.333 127.667 29 155 29c46 0 79 -12.333 99 -37s30 -63.667 30 -117c0 -8.66699 -4.66699 -88.667 -14 -240c-10 -152 -15 -299.333 -15 -442c0 -238 19.333 -399 58 -483c-77.333 -40 -154 -60 -230 -60z" />
    <glyph glyph-name="two" unicode="2" horiz-adv-x="1202" 
d="M123 1092c0 78 38.6689 144.668 116.002 200.001c81.333 58 184.333 87 309 87c149.333 0 269.666 -39.667 360.999 -119c90 -78.667 135 -180.667 135 -306c0 -222 -190 -450.333 -570 -685l91 -2c229.333 0 382.666 23 459.999 69c22 -62.667 33 -118 33 -166
c0 -62.667 -18.333 -107.334 -55 -134.001c-36 -25.333 -95.667 -38 -179 -38c-45.333 0 -121.666 2.33301 -228.999 7c-108 4.66699 -193.333 7 -256 7c-78.667 0 -159.667 -6 -243 -18c-23.333 44 -35 89.667 -35 137c0 73.333 26.333 135.333 79 186
c22 21.333 91.667 70.333 209 147c254.667 168 382 316.667 382 446c0 58 -20 105.333 -60 142s-92.667 55 -158 55c-120.667 0 -213.334 -67 -278.001 -201c-74.667 51.333 -112 113.333 -112 186z" />
    <glyph glyph-name="three" unicode="3" horiz-adv-x="1202" 
d="M974 602c56 -54.667 83.999 -124.671 83.999 -210.004c0 -118 -57.667 -217 -173 -297c-119.333 -82.667 -271.666 -124 -456.999 -124c-230.667 0 -346 55.333 -346 166c0 48 26.333 102 79 162c88 -51.333 180.667 -77 278 -77c88.667 0 158.667 17 210 51
c48.667 32.667 73 75.667 73 129c0 58.667 -23 102 -69 130c-41.333 24.667 -110.666 41.334 -207.999 50.001c-69.333 4.66699 -118 13.334 -146 26.001c-34 14.667 -51 39.334 -51 74.001c0 30 12.333 53 37 69c22.667 14 60 25 112 33c114.667 18 195 39.667 241 65
c54.667 30 82 74 82 132c0 46 -16.667 81.667 -50 107c-34 25.333 -82.333 38 -145 38c-114.667 0 -207 -32.667 -277 -98c-62 44 -93 92.333 -93 145c0 62 35.333 111.333 106 148c72.667 38 174 57 304 57c143.333 0 258.666 -33 345.999 -99
c84.667 -63.333 127 -144.333 127 -243c0 -158.667 -103.667 -267 -311 -325c108 -17.333 190.333 -53.666 247 -108.999z" />
    <glyph glyph-name="four" unicode="4" horiz-adv-x="1204" 
d="M1166 468c0 -50.667 -15.332 -86.002 -45.999 -106.002c-29.333 -18.667 -81 -28 -155 -28h-27l8 -224c0 -49.333 -10.667 -84.666 -32 -105.999c-22 -22 -58.333 -33 -109 -33c-64 0 -135.667 20.667 -215 62c30 56 48 157.667 54 305c-77.333 0 -152.333 1 -225 3
l-103 3c-110 0 -186.667 -5.66699 -230 -17c-36 40.667 -54 85.667 -54 135c0 57.333 31.333 128.333 94 213c10.667 14 92 111 244 291c154 182 239.333 281.333 256 298c76.667 76 149 114 217 114c81.333 0 122 -40 122 -120l-12 -226
c-8.66699 -155.333 -13 -312.666 -13 -471.999c87.333 2 151.666 14.333 192.999 37c22 -54.667 33 -97.667 33 -129zM650.001 1034c-234.667 -302.667 -352 -454.667 -352 -456c0 -10 6.33301 -16.667 19 -20c9.33301 -2.66699 28.333 -4 57 -4h52c74 0 147.333 2 220 6
c2.66699 162.667 4 280 4 352v122z" />
    <glyph glyph-name="five" unicode="5" horiz-adv-x="1202" 
d="M629 895c136.667 0 242.667 -32.665 318 -97.998c74 -64.667 111 -154.667 111 -270c0 -159.333 -62.667 -290 -188 -392c-128.667 -105.333 -297.334 -158 -506.001 -158c-190.667 0 -286 53.333 -286 160c0 42.667 20.667 98.667 62 168
c75.333 -50 158.333 -75 249 -75c100 0 181 23.667 243 71c60.667 46.667 91 106.667 91 180c0 59.333 -23 105.666 -69 138.999c-46.667 33.333 -113 50 -199 50c-43.333 0 -89.666 -4.66699 -138.999 -14c-49.333 -10 -77 -15 -83 -15c-52.667 0 -79 25.333 -79 76
c0 18 12 85.333 36 202c33.333 157.333 60.333 301 81 431c119.333 -7.33301 234.666 -11 345.999 -11c187.333 0 318 14.667 392 44c19.333 -58 29 -106.333 29 -145c0 -61.333 -22.667 -102.333 -68 -123c-38.667 -18 -110.667 -27 -216 -27
c-61.333 0 -145.666 2 -252.999 6c-16 -76.667 -30 -148.334 -42 -215.001c64 10.667 120.667 16 170 16z" />
    <glyph glyph-name="six" unicode="6" horiz-adv-x="1202" 
d="M712 873c129.333 0 231.333 -35.334 306 -106.001c74 -70.667 111 -166.667 111 -288c0 -150 -50 -271.667 -150 -365c-100.667 -94 -231.667 -141 -393 -141c-162 0 -288.667 47.667 -380 143c-91.333 96 -137 229.333 -137 400c0 148.667 32 288.334 96 419.001
c63.333 129.333 150.333 234.333 261 315c131.333 95.333 260 143 386 143c96.667 0 145 -43.667 145 -131c0 -33.333 -6.33301 -73.333 -19 -120c-17.333 6 -43.666 9 -78.999 9c-116.667 0 -215.667 -34 -297 -102c-82.667 -68 -138.334 -164 -167.001 -288
c95.333 74.667 201 112 317 112zM383 453.999c0 -82.667 18.668 -145.999 56.001 -189.999c36.667 -43.333 89 -65 157 -65c73.333 0 130.666 21.667 171.999 65s62 104 62 182c0 63.333 -18 113.333 -54 150c-36.667 36.667 -87.667 55 -153 55
c-91.333 0 -169.333 -36 -234 -108c-4 -28.667 -6 -58.334 -6 -89.001z" />
    <glyph glyph-name="seven" unicode="7" horiz-adv-x="1202" 
d="M1102 1215c0 -55.333 -30.332 -136 -90.999 -242l-99 -164l-119 -202c-140.667 -250.667 -211 -432.334 -211 -545.001c0 -20.667 0.666992 -38 2 -52c-75.333 -24.667 -135.666 -37 -180.999 -37c-108.667 0 -163 47.667 -163 143c0 64 47.667 178.667 143 344
c37.333 64.667 167 274 389 628c-76 4 -138 6 -186 6c-172.667 0 -305.334 -22 -398.001 -66c-52.667 68 -79 128.333 -79 181c0 50.667 16.333 87.334 49 110.001c31.333 22 81.333 33 150 33c23.333 0 80.666 -2 171.999 -6c90.667 -4.66699 170 -7 238 -7
c146 0 251.667 14 317 42c44.667 -56.667 67 -112 67 -166z" />
    <glyph glyph-name="eight" unicode="8" horiz-adv-x="1202" 
d="M128 991c0 119.333 44.335 213.666 133.002 282.999c90.667 70 216 105 376 105c141.333 0 253 -31 335 -93c80.667 -61.333 121 -143.666 121 -246.999c0 -168.667 -98 -288.334 -294 -359.001c100 -25.333 173.667 -61.666 221 -108.999
c47.333 -48 71 -110.667 71 -188c0 -120 -46.333 -218 -139 -294c-96 -78.667 -222.333 -118 -379 -118c-144.667 0 -259.334 33.667 -344.001 101c-82.667 64.667 -124 150 -124 256c0 82 22 149.667 66 203c43.333 52.667 111.666 96 204.999 130
c-165.333 64.667 -248 174.667 -248 330zM807.002 989c0 51.333 -16.334 91.667 -49.001 121c-32.667 28.667 -77.667 43 -135 43c-61.333 0 -110.666 -17 -147.999 -51c-36.667 -33.333 -55 -77.333 -55 -132c0 -100 63.667 -167.667 191 -203c130.667 46 196 120 196 222z
M391.001 367.001c0 -51.333 18.332 -92.335 54.999 -123.002c36.667 -31.333 86 -47 148 -47s112.667 17 152 51c38 32.667 57 74.334 57 125.001c0 44.667 -20.333 83.667 -61 117c-37.333 30.667 -99.666 62.334 -186.999 95.001c-109.333 -50 -164 -122.667 -164 -218z
" />
    <glyph glyph-name="nine" unicode="9" horiz-adv-x="1202" 
d="M482 477c-129.333 0 -231.332 35.335 -305.999 106.002c-74 71.333 -111 168.666 -111 291.999c0 152 49.667 274 149 366c98.667 92 231 138 397 138c160.667 0 286 -47 376 -141c90.667 -94.667 136 -227.334 136 -398.001c0 -143.333 -28.333 -277 -85 -401
s-136.334 -227.333 -239.001 -310c-132.667 -106.667 -271.667 -160 -417 -160c-56 0 -96 10.333 -120 31c-24.667 21.333 -37 56.666 -37 105.999c0 32.667 6.33301 69.334 19 110.001c32.667 -7.33301 67 -11 103 -11c108.667 0 203.667 33.667 285 101
c83.333 69.333 138.333 163 165 281c-90 -73.333 -195 -110 -315 -110zM810.001 867.002c0 192 -71.332 288 -213.999 288c-70.667 0 -127.334 -22 -170.001 -66s-64 -103.667 -64 -179c0 -68 18 -120.333 54 -157c35.333 -36 86.333 -54 153 -54c91.333 0 170 37 236 111
c3.33301 19.333 5 38.333 5 57z" />
    <glyph glyph-name="colon" unicode=":" horiz-adv-x="616" 
d="M441 628c-40 -37.333 -89.334 -56 -148.001 -56c-53.333 0 -96.666 16.333 -129.999 49s-50 75 -50 127c0 56 18.667 101.667 56 137c37.333 34.667 86.333 52 147 52c55.333 0 100 -16.333 134 -49c32.667 -32 49 -73.667 49 -125c0 -53.333 -19.333 -98.333 -58 -135z
M438.999 43c-39.333 -36.667 -88.667 -54.998 -148 -54.998c-52 0 -95.333 16.667 -130 50s-52 74.666 -52 123.999c0 56 18.667 101.667 56 137s86.333 53 147 53c54.667 0 99 -16.333 133 -49s51 -74.334 51 -125.001c0 -54 -19 -99 -57 -135z" />
    <glyph glyph-name="semicolon" unicode=";" horiz-adv-x="616" 
d="M440 629c-39.333 -36.667 -88.333 -54.999 -147 -54.999c-52 0 -95.333 16.667 -130 50s-52 74.666 -52 123.999c0 56 18.667 101.333 56 136c37.333 34 86.333 51 147 51c54.667 0 99 -16 133 -48c33.333 -32 50 -73.333 50 -124c0 -53.333 -19 -98 -57 -134z
M229 -229.999c63.333 43.333 95.001 102.667 95.001 178c0 33.333 -9 57.666 -27 72.999c-13.333 10.667 -38 19.667 -74 27c-82.667 20 -124 66.333 -124 139c0 48.667 15.333 88.334 46 119.001c31.333 30.667 71.666 46 120.999 46c70.667 0 127.667 -24.667 171 -74
c44 -50 66 -115 66 -195c0 -156 -91.333 -268.667 -274 -338l-10 17z" />
    <glyph glyph-name="less" unicode="&#x3c;" horiz-adv-x="1609" 
d="M1241 1090c20.667 7.33301 39.333 11 56 11c31.333 0 57 -11 77 -33s30 -51 30 -87c0 -42.667 -26 -74 -78 -94l-807 -311l809 -315c48 -19.333 72 -53 72 -101c0 -32 -11 -58.667 -33 -80c-21.333 -21.333 -47 -32 -77 -32c-18.667 0 -35.667 3.33301 -51 10l-919 373
c-76 30 -114 78.333 -114 145c0 66 40 115 120 147z" />
    <glyph glyph-name="equal" unicode="=" horiz-adv-x="1609" 
d="M329 670c-30.667 0 -56.334 10.332 -77.001 30.999c-20.667 20 -31 46 -31 78c0 32.667 10 59 30 79c20.667 20.667 46.667 31 78 31h951c30.667 0 56.334 -10.333 77.001 -31c20.667 -21.333 31 -47.666 31 -78.999c0 -32.667 -10.333 -59 -31 -79s-47 -30 -79 -30h-949
zM329 262.999c-30.667 0 -56.333 10.334 -77 31.001s-31 47 -31 79c0 32.667 10 59 30 79c20 19.333 46 29 78 29h951c31.333 0 57 -10 77 -30c20.667 -20 31 -46 31 -78c0 -32.667 -10.333 -59.334 -31 -80.001c-20.667 -20 -47 -30 -79 -30h-949z" />
    <glyph glyph-name="greater" unicode="&#x3e;" horiz-adv-x="1609" 
d="M1292 723c79.333 -32 118.999 -81 118.999 -147c0 -66.667 -38 -115 -114 -145l-919 -373c-14.667 -6.66699 -31.667 -10 -51 -10c-30.667 0 -57 10.667 -79 32s-33 48 -33 80c0 47.333 24.667 81 74 101l809 315l-807 311c-52 20 -78 51.333 -78 94c0 36 10 65 30 87
s45.667 33 77 33c16.667 0 35.334 -3.66699 56.001 -11z" />
    <glyph glyph-name="question" unicode="?" horiz-adv-x="784" 
d="M69 1238c0 44.667 21.332 81.999 63.999 111.999c44.667 31.333 102.334 47 173.001 47c112 0 208.333 -35.667 289 -107c78 -69.333 117 -150.333 117 -243c0 -86.667 -35.333 -173.667 -106 -261c-70.667 -84.667 -112.667 -136.667 -126 -156
c-33.333 -48 -50 -91.333 -50 -130c0 -15.333 3.66699 -42.333 11 -81c-22.667 -4.66699 -51 -7 -85 -7c-124.667 0 -187 48.667 -187 146c0 59.333 47 144.333 141 255c88.667 104.667 133 182 133 232c0 34.667 -11.667 62.334 -35 83.001c-24 20.667 -57.333 31 -100 31
c-56 0 -119 -25.667 -189 -77c-33.333 62.667 -50 114.667 -50 156zM454.999 40.999c-36.667 -32.667 -83 -49 -139 -49c-51.333 0 -93.666 15.333 -126.999 46c-32.667 30 -49 67.667 -49 113c0 48.667 17.333 89 52 121c35.333 32.667 80.333 49 135 49
c55.333 0 99.666 -15.333 132.999 -46c32.667 -30.667 49 -70.334 49 -119.001c0 -45.333 -18 -83.666 -54 -114.999z" />
    <glyph glyph-name="at" unicode="@" horiz-adv-x="1932" 
d="M1286 303c0 -12.667 5.66602 -19.001 16.999 -19.001c34.667 0 72 21.333 112 64c80 82 120 188.667 120 320c0 123.333 -39 220.333 -117 291c-79.333 71.333 -187.666 107 -324.999 107c-209.333 0 -378 -64.333 -506 -193s-192 -297.334 -192 -506.001
c0 -156 50.333 -282 151 -378c102 -96 237 -144 405 -144c212 0 390.667 62.667 536 188c18.667 16 39.667 35.333 63 58c27.333 26.667 43.666 42.334 48.999 47.001c30.667 28 56.334 42 77.001 42c19.333 0 36 -7.33301 50 -22c13.333 -15.333 20 -34 20 -56
c0 -46 -30.333 -99.333 -91 -160c-191.333 -186.667 -435.666 -280 -732.999 -280c-220.667 0 -399 66.333 -535 199c-136 132 -204 304 -204 516c0 255.333 91.333 467 274 635c172 158.667 385 238 639 238c199.333 0 357.333 -52.667 474 -158
c114.667 -104 172 -242.667 172 -416c0 -126.667 -33 -242 -99 -346c-50 -76 -112.333 -135 -187 -177c-74.667 -42.667 -153.334 -64 -236.001 -64c-80 0 -120 31.667 -120 95l2 21c-85.333 -81.333 -167 -122 -245 -122c-91.333 0 -165 30.333 -221 91
s-84 141.667 -84 243c0 76.667 19 149.667 57 219c38.667 70 91.667 126 159 168c85.333 54 184 81 296 81c94 0 204.667 -20.667 332 -62c-73.333 -247.333 -110 -420.666 -110 -519.999zM1038 718.999c-80 0 -147.334 -29 -202.001 -87c-54.667 -58.667 -82 -131 -82 -217
c0 -50.667 13 -90 39 -118c24.667 -28 58.667 -42 102 -42c60.667 0 125.334 40 194.001 120c18 86 38.333 193.333 61 322c-40 14.667 -77.333 22 -112 22z" />
    <glyph glyph-name="A" unicode="A" horiz-adv-x="1453" 
d="M1452 114c-101.333 -78.667 -187.003 -117.999 -257.003 -117.999c-60 0 -108.333 28.667 -145 86c-28.667 43.333 -66 133.333 -112 270h-500c-56 -108.667 -84 -192 -84 -250c0 -17.333 4 -36 12 -56c-61.333 -30.667 -123.666 -46 -186.999 -46
c-53.333 0 -91.666 9.33301 -114.999 28c-24 19.333 -36 52 -36 98c0 50 49.667 172 149 366c150 294 265.333 536.333 346 727c-21.333 42 -40 72.333 -56 91c81.333 45.333 159 68 233 68c62.667 0 113 -16.333 151 -49c34.667 -30 69.334 -83.333 104.001 -160
c15.333 -33.333 57 -135.333 125 -306c67.333 -170.667 132 -322.334 194 -455.001c57.333 -123.333 117.333 -221.333 180 -294h-2zM844.997 582.001c-46 136 -95.667 269 -149 399c-58 -134.667 -112 -267.667 -162 -399h311z" />
    <glyph glyph-name="B" unicode="B" horiz-adv-x="1265" 
d="M1081 593c50 -48.667 75.001 -108.001 75.001 -178.001c0 -119.333 -60.667 -218.666 -182 -297.999c-127.333 -83.333 -293.333 -125 -498 -125c-129.333 0 -217 13.667 -263 41c-47.333 28 -71 82 -71 162c0 27.333 4 114.333 12 261c7.33301 146.667 11 280 11 400
c0 250.667 -19.333 424 -58 520c108 0.666992 215 2.66699 321 6l151 5c184.667 0 327.667 -33.333 429 -100c98.667 -64.667 148 -154.334 148 -269.001c0 -151.333 -98.333 -258.666 -295 -321.999c95.333 -18 168.666 -52.333 219.999 -103zM474.001 797.999
c16.667 -1.33301 43.001 -2 79.001 -2c83.333 0 148.333 16.667 195 50c45.333 32.667 68 76.667 68 132c0 52.667 -21.667 96 -65 130c-44.667 34 -103.334 51 -176.001 51c-22 0 -53.667 -1.33301 -95 -4zM478.002 252.999c36 -5.33301 60.668 -8 74.001 -8
c84.667 0 150.667 17.333 198 52c44 32.667 66 76 66 130c0 52.667 -21.333 93.667 -64 123c-44.667 30 -108.334 45 -191.001 45c-19.333 0 -48.333 -1.33301 -87 -4v-108z" />
    <glyph glyph-name="C" unicode="C" horiz-adv-x="1310" 
d="M1230 170c0 -124.667 -128.331 -187 -384.998 -187c-237.333 0 -428.333 64 -573 192c-142 126 -213 291 -213 495c0 221.333 93.333 405 280 551c157.333 123.333 357.666 185 600.999 185c184 0 276 -46.333 276 -139c0 -52.667 -24.333 -117.667 -73 -195
c-71.333 34.667 -153.333 52 -246 52c-140.667 0 -253.334 -39.333 -338.001 -118s-127 -182.667 -127 -312c0 -128.667 40.667 -232.334 122 -311.001c80.667 -77.333 186 -116 316 -116c97.333 0 192 27 284 81c50.667 -63.333 76 -122.666 76 -177.999z" />
    <glyph glyph-name="D" unicode="D" horiz-adv-x="1542" 
d="M439 1385l147 4.00098c248 0 440.667 -39.333 578 -118c210 -118.667 315 -297.667 315 -537c0 -228 -85.333 -408.333 -256 -541c-174 -135.333 -416.333 -203 -727 -203c-135.333 0 -227.333 12 -276 36c-52 26 -78 76 -78 150c0 25.333 3.66699 110 11 254
c6.66699 143.333 10 274.333 10 393c0 277.333 -19.333 462.333 -58 555c114 1.33301 225.333 3.66602 334 6.99902zM635 272.001c147.333 0 264 39.001 350 117.001c84.667 76.667 127 179 127 307c0 133.333 -41.667 238.666 -125 315.999c-84 77.333 -199 116 -345 116
c-48 0 -89 -3 -123 -9c-6.66699 -132.667 -10 -297.667 -10 -495c0 -132.667 2.66699 -246 8 -340c42 -8 81.333 -12 118 -12z" />
    <glyph glyph-name="E" unicode="E" horiz-adv-x="1086" 
d="M403 1354c70.667 0 157.34 3.66602 260.007 10.999s170 11 202 11c58 0 99.667 -9.33301 125 -28c26 -18.667 39 -50 39 -94c0 -49.333 -17.333 -106.666 -52 -171.999c-62 29.333 -160 44 -294 44c-12.667 0 -75.667 -1.66699 -189 -5l-6 -302
c23.333 -1.33301 62.666 -2 117.999 -2c161.333 0 270.666 9.66699 327.999 29c20.667 -47.333 31 -89.666 31 -126.999c0 -47.333 -14.333 -81 -43 -101c-27.333 -19.333 -72.333 -29 -135 -29l-94 2c-67.333 1.33301 -137 2 -209 2c-2 -139.333 -4 -254.666 -6 -345.999
c68 -4 128 -6 180 -6c129.333 0 227.666 17 294.999 51c31.333 -66.667 47 -121.334 47 -164.001c0 -50.667 -17.667 -85.334 -53 -104.001c-30.667 -16 -85.334 -24 -164.001 -24c-28.667 0 -70.334 0.666992 -125.001 2c-54 1.33301 -94 2 -120 2
c-26.667 0 -73 -0.666992 -139 -2c-66.667 -1.33301 -120 -2 -160 -2c-38.667 0 -65.334 7 -80.001 21c-15.333 14.667 -23 40.667 -23 78c0 -7.33301 4 61 12 205c7.33301 144.667 11 292.667 11 444c0 293.333 -12 497.333 -36 612c139.333 -4 232.666 -6 279.999 -6z" />
    <glyph glyph-name="F" unicode="F" horiz-adv-x="1074" 
d="M399 1358c72 0 159.332 3.66895 261.999 11.002c102.667 6.66699 169.334 10 200.001 10c58 0 99.667 -8.66699 125 -26c26 -18.667 39 -50.334 39 -95.001c0 -47.333 -16.667 -106 -50 -176c-65.333 29.333 -164 44 -296 44c-28 0 -88 -1.66699 -180 -5
c0 -11.333 -1.33301 -62 -4 -152c-2 -63.333 -3 -116.333 -3 -159c72 -2.66699 120.333 -4 145 -4c134.667 0 231.667 10.333 291 31c18 -42 27 -81.333 27 -118c0 -51.333 -14 -88 -42 -110s-73 -33 -135 -33l-92 2c-64 1.33301 -130 2 -198 2c0 -258 20 -431.333 60 -520
c-90 -41.333 -170.667 -62 -242 -62c-60 0 -102.333 13 -127 39s-37 69.667 -37 131c0 21.333 4 112.666 12 273.999c7.33301 161.333 11 312.333 11 453c0 200.667 -11.667 357 -35 469c105.333 -4 195 -6 269 -6z" />
    <glyph glyph-name="G" unicode="G" horiz-adv-x="1468" 
d="M1230 732c64.667 0 110.333 -18.667 137 -56c25.333 -36.667 38 -97.667 38 -183c0 -192 -39.667 -325.333 -119 -400c-80.667 -76 -225 -114 -433 -114c-240.667 0 -433 60.333 -577 181c-142 119.333 -213 276 -213 470c0 222 90.667 410 272 564
c164.667 139.333 364.334 209 599.001 209c87.333 0 150.333 -10.667 189 -32c40 -22.667 60 -59.667 60 -111s-23 -114 -69 -188c-66.667 31.333 -132.334 47 -197.001 47c-142.667 0 -259 -41.333 -349 -124c-89.333 -82.667 -134 -189 -134 -319
c0 -124 38.667 -222.667 116 -296c78 -74 183.333 -111 316 -111c63.333 0 126 9.66699 188 29c5.33301 44.667 8 89.667 8 135c0 106.667 -19.333 185 -58 235c86 42.667 161.333 64 226 64z" />
    <glyph glyph-name="H" unicode="H" horiz-adv-x="1650" 
d="M1286 -2c-63.333 0 -107.667 13.9971 -133 41.9971c-24.667 27.333 -37 75.333 -37 144c0 10.667 1.66699 56 5 136c4.66699 96.667 8 188.334 10 275.001h-622v-73c0 -221.333 18.667 -375.333 56 -462c-92 -41.333 -176.333 -62 -253 -62
c-64.667 0 -109.667 14 -135 42c-24.667 28 -37 77 -37 147c0 32 4.33301 116.333 13 253c8 136.667 12 257.334 12 362.001c0 264.667 -20 437.334 -60 518.001c90.667 40.667 173.667 61 249 61c64.667 0 110.334 -13.333 137.001 -40c26 -26 39 -70.667 39 -134
c0 -11.333 -5.66699 -131 -17 -359h624v35c0 208 -18.667 354 -56 438c91.333 40 173.666 60 246.999 60c64 0 109 -13 135 -39s39 -71 39 -135c0 -16.667 -3.66699 -95.334 -11 -236.001c-8 -140.667 -12 -273 -12 -397c0 -255.333 20 -426.666 60 -513.999
c-90 -41.333 -174.333 -62 -253 -62z" />
    <glyph glyph-name="I" unicode="I" horiz-adv-x="697" 
d="M318 -2c-66.667 0 -112.333 14 -137 42c-24.667 26.667 -37 75.667 -37 147c0 22 4 105.333 12 250c7.33301 145.333 11 279.666 11 402.999c0 231.333 -19.333 391.666 -58 480.999c84.667 40 171.667 60 261 60c64.667 0 110.334 -13 137.001 -39
c27.333 -26 41 -70.333 41 -133c0 -22 -4 -103.333 -12 -244c-8.66699 -141.333 -13 -271.666 -13 -390.999c0 -251.333 20.333 -422.666 61 -513.999c-88.667 -41.333 -177.334 -62 -266.001 -62z" />
    <glyph glyph-name="J" unicode="J" horiz-adv-x="867" 
d="M562 1379c84 0 137.001 -30 159.001 -90c15.333 -44 23 -150.333 23 -319c0 -350 -37 -600.333 -111 -751c-80 -164 -218.333 -246 -415 -246c-73.333 0 -130 14.333 -170 43s-60 67.667 -60 117c0 45.333 26 99.666 78 162.999c44.667 -40 91.667 -60 141 -60
c75.333 0 126.666 36 153.999 108c23.333 62.667 35 177.334 35 344.001c0 305.333 -23.667 516 -71 632c91.333 39.333 170.333 59 237 59z" />
    <glyph glyph-name="K" unicode="K" horiz-adv-x="1414" 
d="M1216 -19c-53.333 0 -108.668 27.667 -166.001 83c-22 20 -91.667 96 -209 228c-116 130 -226.667 243.333 -332 340l-2 -105c0 -220 19.333 -375 58 -465c-84 -41.333 -168.333 -62 -253 -62c-64 0 -108.667 14.667 -134 44s-38 79 -38 149c0 24.667 4 107.667 12 249
c7.33301 142 11 271 11 387c0 239.333 -18.667 403.333 -56 492c88 38.667 170.333 58 247 58c66 0 112.333 -13 139 -39c26 -25.333 39 -69.666 39 -132.999c0 17.333 -7.66699 -125.334 -23 -428.001c310.667 285.333 486.334 490 527.001 614
c170.667 -46 256 -109.667 256 -191c0 -40.667 -38.667 -100 -116 -178c-50 -50.667 -160.333 -150 -331 -298l210 -197l161 -153c98.667 -90 171 -136 217 -138c-36 -171.333 -108.333 -257 -217 -257z" />
    <glyph glyph-name="L" unicode="L" horiz-adv-x="1007" 
d="M1009 126c0 -48 -15.668 -81.333 -47.001 -100c-29.333 -17.333 -79.333 -26 -150 -26c-18.667 0 -50 0.666992 -94 2c-43.333 1.33301 -77.666 2 -102.999 2c-90 0 -176.667 -1 -260 -3l-115 -3c-38.667 0 -65.334 6.66699 -80.001 20c-14.667 14 -22 40.333 -22 79
c0 12.667 5 93.667 15 243c9.33301 149.333 14 292.333 14 429c0 276.667 -20 460.667 -60 552c90.667 40 175.667 60 255 60c62.667 0 106.334 -13.333 131.001 -40s37 -73 37 -139c0 -16 -4 -109.333 -12 -280c-8.66699 -170.667 -13 -333.667 -13 -489
c0 -80 0.666992 -141.333 2 -184c100 -5.33301 158.667 -8 176 -8c112 0 204.667 17 278 51c32 -62 48 -117.333 48 -166z" />
    <glyph glyph-name="M" unicode="M" horiz-adv-x="1942" 
d="M1618 -4c-69.333 0 -113.668 27 -133.001 81c-6.66699 18 -22.334 280.333 -47.001 787l-240 -495c-65.333 -140 -105.666 -222.333 -120.999 -247c-31.333 -52 -69.333 -78 -114 -78s-82 22.667 -112 68c-14.667 24 -55.667 107.667 -123 251l-244 501
c-26 -516.667 -42 -781.334 -48 -794.001c-20.667 -48 -64 -72 -130 -72c-74 0 -159.667 27.667 -257 83c99.333 224 149 561 149 1011c0 80.667 -14.667 149.334 -44 206.001c69.333 56.667 145.333 85 228 85c76 0 137.667 -27 185 -81c31.333 -36 76.333 -115 135 -237
c166 -345.333 255.667 -518 269 -518c12.667 0 40.667 44.333 84 133l78 164l108 226c56.667 116 103 194 139 234c46.667 52.667 103.334 79 170.001 79c80.667 0 160 -29.667 238 -89c-36 -60.667 -54 -170.667 -54 -330c0 -364.667 49.667 -659 149 -883
c-100 -56.667 -188.333 -85 -265 -85z" />
    <glyph glyph-name="N" unicode="N" horiz-adv-x="1582" 
d="M1166 -21l-744.001 872.999c0.666992 -143.333 4 -289.666 10 -438.999c6 -144.667 9 -221.667 9 -231c0 -64.667 -11 -111 -33 -139c-22.667 -28.667 -60.334 -43 -113.001 -43c-69.333 0 -145.333 20 -228 60c64 100.667 96 340.334 96 719.001
c0 146.667 -5.66699 249 -17 307c-14.667 78 -45.667 131.333 -93 160c74 86.667 152 130 234 130c66.667 0 139.334 -42.667 218.001 -128c34 -36 114 -133 240 -291l415 -507c4 110 6 199 6 267c0 310.667 -27.667 512 -83 604c82 38.667 151 58 207 58
c60.667 0 102.334 -15.333 125.001 -46c20.667 -28.667 31 -80.667 31 -156c0 -23.333 -3 -108 -9 -254c-6.66699 -146.667 -10 -281.667 -10 -405c0 -188.667 10.333 -338.667 31 -450c-54 -22.667 -151.333 -52.334 -292 -89.001z" />
    <glyph glyph-name="O" unicode="O" horiz-adv-x="1675" 
d="M1408 1223c134.667 -121.333 202 -284.333 202 -489c0 -203.333 -72 -377 -216 -521c-160 -161.333 -359.667 -242 -599 -242c-206.667 0 -378.667 63 -516 189c-144 133.333 -216 306 -216 518c0 210.667 76.667 386 230 526c147.333 134.667 335.333 202 564 202
c231.333 0 415 -61 551 -183zM1137 1016c-72.667 74.667 -167.999 111.999 -285.999 111.999c-128.667 0 -231.334 -39.667 -308.001 -119s-115 -185.666 -115 -318.999c0 -128.667 37.333 -233 112 -313c73.333 -78.667 169.333 -118 288 -118
c119.333 0 218.333 42.333 297 127c80 86.667 120 197 120 331c0 124 -36 223.667 -108 299z" />
    <glyph glyph-name="P" unicode="P" horiz-adv-x="1221" 
d="M204 1356c72 0 161.333 3 268 9c106 6 176.333 9 211 9c160 0 282.667 -36 368 -108s128 -174 128 -306c0 -151.333 -49.333 -271 -148 -359c-100 -88.667 -236.667 -133 -410 -133c-40 0 -81.333 2.33301 -124 7c0 -182 19.333 -320.333 58 -415
c-88.667 -41.333 -171.667 -62 -249 -62c-62.667 0 -106.667 14.333 -132 43c-24 28.667 -36 78 -36 148c0 32 4.33301 114 13 246c8 132 12 248.333 12 349c0 308.667 -20 500 -60 574c23.333 -1.33301 57 -2 101 -2zM590 701c75.333 0 133.666 19.667 174.999 59
c40.667 39.333 61 94.333 61 165c0 129.333 -72 194 -216 194c-29.333 0 -63.666 -4 -102.999 -12c-7.33301 -122 -11 -255.333 -11 -400c32 -4 63.333 -6 94 -6z" />
    <glyph glyph-name="Q" unicode="Q" horiz-adv-x="1700" 
d="M1676 -135c0 -96.667 -58 -145.001 -174 -145.001c-102 0 -275.333 49.667 -520 149c-193.333 78 -324.666 117 -393.999 117c-92.667 0 -203 -35.667 -331 -107c-60 62 -90 114.667 -90 158c0 76.667 51 119 153 127c-171.333 124.667 -257 295.334 -257 512.001
c0 212.667 78.333 388.667 235 528c150.667 134.667 344.667 202 582 202c229.333 0 413 -61.667 551 -185c136 -122 204 -283 204 -483c0 -161.333 -42 -299 -126 -413c-84.667 -115.333 -206 -199.333 -364 -252c123.333 -37.333 230.666 -56 321.999 -56
c56 0 110.333 6 163 18c30.667 -67.333 46 -124 46 -170zM1147 387.999c80.667 86 121 196.332 121 330.999c0 124 -37 223 -111 297c-74.667 74.667 -174 112 -298 112c-130.667 0 -234.667 -39.333 -312 -118c-78 -79.333 -117 -185.333 -117 -318
c0 -129.333 38 -233.666 114 -312.999c76 -78.667 175 -118 297 -118c124 0 226 42.333 306 127zM257 -121.002l1 -1h-2z" />
    <glyph glyph-name="R" unicode="R" horiz-adv-x="1397" 
d="M1166 -19c-50.667 0 -105 29.3311 -163 87.998c-22.667 22.667 -88.667 101.334 -198 236.001c-88.667 112 -166.667 168 -234 168c-16 0 -40 -1.66699 -72 -5c4 -197.333 22.667 -333.333 56 -408c-88.667 -41.333 -171 -62 -247 -62c-63.333 0 -107.333 14 -132 42
c-24 28 -36 77 -36 147c0 24.667 4 105.334 12 242.001c7.33301 136.667 11 261 11 373c0 292.667 -18.667 478 -56 556c38.667 -1.33301 77.334 -2 116.001 -2c74.667 0 165.667 3.33301 273 10s178 10 212 10c149.333 0 265.666 -33.333 348.999 -100
c82.667 -66 124 -157 124 -273c0 -200 -98.333 -337.333 -295 -412c68.667 -21.333 145.334 -76 230.001 -164c104.667 -108 194 -172.333 268 -193c-38.667 -168.667 -111.334 -253 -218.001 -253zM528 687.998c94 0 167.666 22.334 220.999 67.001
c52.667 43.333 79 102.666 79 177.999c0 58.667 -18.667 104.334 -56 137.001c-38 32.667 -92 49 -162 49c-29.333 0 -63.666 -4 -102.999 -12c-7.33301 -134.667 -11 -274.334 -11 -419.001h32z" />
    <glyph glyph-name="S" unicode="S" horiz-adv-x="900" 
d="M314 247c64.667 0 115.334 12.667 152.001 38c35.333 25.333 53 59 53 101c0 34 -16 66 -48 96c-17.333 16 -61.333 47.333 -132 94c-94.667 63.333 -157.667 113.333 -189 150c-45.333 52.667 -68 116.667 -68 192c0 111.333 42 208.333 126 291
c121.333 122.667 273.333 184 456 184c112 0 168 -43.667 168 -131c0 -53.333 -22 -112.666 -66 -177.999c-54.667 22 -111.334 33 -170.001 33c-65.333 0 -116.666 -12.333 -153.999 -37c-36.667 -23.333 -55 -55 -55 -95c0 -38.667 19.667 -75.667 59 -111
c19.333 -17.333 72.666 -55 159.999 -113c138.667 -92.667 208 -198.334 208 -317.001c0 -122 -48.333 -226.333 -145 -313c-110 -100 -247.667 -150 -413 -150c-135.333 0 -203 52 -203 156c0 52 19.333 106.667 58 164c64 -36 131.667 -54 203 -54z" />
    <glyph glyph-name="T" unicode="T" horiz-adv-x="1264" 
d="M1256 1209c0 -53.333 -15 -91.667 -45 -115s-78.333 -35 -145 -35l-268 11c-9.33301 -174.667 -14 -337 -14 -487c0 -252.667 20.667 -427 62 -523c-88 -41.333 -174.333 -62 -259 -62c-64 0 -107.667 13.667 -131 41c-23.333 26.667 -35 75 -35 145
c0 -12 3.33301 76.333 10 265c7.33301 200 11.666 409.667 12.999 629h-48c-169.333 0 -280.666 -14.667 -333.999 -44c-41.333 77.333 -62 142.333 -62 195c-0 48.667 15.333 83 46 103c29.333 20 78.333 30 147 30c15.333 0 85.333 -3.66699 210 -11
c124 -8 240.333 -12 349 -12c229.333 0 376 18.667 440 56c42.667 -74.667 64 -136.667 64 -186z" />
    <glyph glyph-name="U" unicode="U" horiz-adv-x="1526" 
d="M1218 1381c78.667 0 132.668 -35.332 162.001 -105.999c27.333 -64.667 41 -178.667 41 -342c0 -332.667 -55.333 -575.334 -166 -728.001c-113.333 -156 -294.333 -234 -543 -234c-389.333 0 -584 187.333 -584 562c0 60 2.33301 137.333 7 232s7 159.667 7 195
c0 164 -19.333 284.333 -58 361c88.667 40 171 60 247 60c65.333 0 111 -13 137 -39c24.667 -25.333 37 -70.333 37 -135c0 -24 -2.66699 -96.333 -8 -217c-6 -120 -9 -228.333 -9 -325c0 -145.333 18.667 -248 56 -308c39.333 -64 108.666 -96 207.999 -96
c114.667 0 197.667 45.667 249 137c49.333 88.667 74 229.667 74 423c0 238 -32.667 403.667 -98 497c88 42 168.333 63 241 63z" />
    <glyph glyph-name="V" unicode="V" horiz-adv-x="1410" 
d="M1204 1381c104 0 156 -60.335 156 -181.002c0 -195.333 -103 -459.333 -309 -792c-102 -165.333 -175.333 -274.666 -220 -327.999c-59.333 -71.333 -114 -107 -164 -107c-50.667 0 -98 31.333 -142 94c-36 52 -83.333 147.667 -142 287c-38 89.333 -79 194 -123 314
l-96 262c-66 170.667 -130.333 280.667 -193 330c71.333 80.667 151.333 121 240 121c75.333 0 131.333 -41 168 -123c12 -27.333 73 -207.666 183 -540.999c77.333 -232 128.333 -348 153 -348c10.667 0 35.667 31 75 93c156 244.667 234 487.334 234 728.001
c0 51.333 -10.333 99.666 -31 144.999c74 30.667 144.333 46 211 46z" />
    <glyph glyph-name="W" unicode="W" horiz-adv-x="2096" 
d="M1899 1381c107.333 0 161 -61.666 161 -184.999c0 -190.667 -93.667 -435.334 -281 -734.001c-56 -92.667 -133.667 -206.667 -233 -342c-40.667 -56.667 -69.667 -92.667 -87 -108c-29.333 -26 -63 -39 -101 -39c-48.667 0 -96 36.667 -142 110
c-12 19.333 -69 129.333 -171 330c-186 -293.333 -320.667 -440 -404 -440c-50.667 0 -100.667 42.333 -150 127c-39.333 68 -95.333 197.667 -168 389l-97 266c-36 98.667 -63.667 171.667 -83 219c-58.667 139.333 -121.667 232 -189 278c70 90 145.333 135 226 135
c73.333 0 133 -53.667 179 -161c18 -42 42.333 -111.333 73 -208l97 -297c88.667 -262 143 -393 163 -393c16.667 0 95.667 108.333 237 325c-136 336.667 -253.667 535.667 -353 597c54.667 92.667 122.334 139 203.001 139c64.667 0 118.667 -40.333 162 -121
c11.333 -21.333 62.333 -146.333 153 -375c51.333 144.667 77 250.667 77 318c0 48 -9.66699 91.333 -29 130c53.333 26.667 106 40 158 40c103.333 0 155 -50 155 -150c0 -114 -81.333 -304.667 -244 -572c106.667 -220.667 168.667 -331 186 -331
c10 0 35.667 31.667 77 95c186.667 290.667 280 538.667 280 744c0 47.333 -14 103.333 -42 168c83.333 30.667 145.666 46 186.999 46z" />
    <glyph glyph-name="X" unicode="X" horiz-adv-x="1329" 
d="M1276 213c-52.667 -143.333 -139.667 -215 -261 -215c-65.333 0 -118 28.333 -158 85c-5.33301 8 -29 50.333 -71 127c-50.667 94 -101.667 183.667 -153 269c-135.333 -174 -203 -297.667 -203 -371c0 -22 5.66699 -45 17 -69c-99.333 -27.333 -179 -41 -239 -41
c-98 0 -147 36.667 -147 110c0 45.333 36 115.333 108 210c46.667 60.667 147.667 180 303 358c-214 314 -356.333 478.333 -427 493c57.333 145.333 145.666 218 264.999 218c60 0 111.667 -29 155 -87c-2 2.66699 72 -129.333 222 -396c126 170 189 292.333 189 367
c0 12 -5 32 -15 60c94.667 33.333 176.334 50 245.001 50c100.667 0 151 -36 151 -108c0 -42.667 -35.333 -111.334 -106 -206.001c-46 -62 -145.333 -182 -298 -360c215.333 -313.333 356.333 -477.666 423 -492.999v-1z" />
    <glyph glyph-name="Y" unicode="Y" horiz-adv-x="1260" 
d="M1105 1385c88.667 0 133.001 -35.335 133.001 -106.002c0 -38.667 -40.667 -115.667 -122 -231l-140 -194l-182 -257c-1.33301 -30.667 -2 -74.334 -2 -131.001c0 -186.667 18 -322 54 -406c-82.667 -40 -167.667 -60 -255 -60c-62.667 0 -106.334 13.333 -131.001 40
s-37 73.334 -37 140.001l7 124c4.66699 89.333 7.66699 179.333 9 270c-207.333 375.333 -360 574.333 -458 597c58.667 146.667 141 220 247 220c62 0 115.333 -38 160 -114c3.33301 -5.33301 33 -63.666 89 -174.999c53.333 -107.333 108.666 -208.666 165.999 -303.999
c154.667 232.667 232 389.667 232 471c0 20.667 -5 42.667 -15 66c96.667 33.333 178.334 50 245.001 50z" />
    <glyph glyph-name="Z" unicode="Z" horiz-adv-x="1194" 
d="M1137 147c0 -56.667 -18.665 -95.668 -55.998 -117.001c-34 -18.667 -94 -28 -180 -28c-77.333 0 -181.333 3.66699 -312 11c-130.667 6.66699 -223 10 -277 10c-60.667 0 -118.667 -7.66699 -174 -23c-46 48 -69 100 -69 156c0 55.333 17.333 111.666 52 168.999
c33.333 57.333 85.333 129 156 215c106 128.667 168 205 186 229c126 168 189 271 189 309c0 24.667 -61.667 37 -185 37c-144.667 0 -253.667 -17.333 -327 -52c-29.333 70 -44 126 -44 168c0 50 17.667 85 53 105c33.333 18.667 89.666 28 168.999 28
c31.333 0 102.333 -2 213 -6s205.667 -6 285 -6c83.333 0 155.666 4.66699 216.999 14c46 -50 69 -101 69 -153c0 -64.667 -43 -154.667 -129 -270c-22 -30 -68.333 -89.333 -139 -178c-69.333 -86.667 -126 -160 -170 -220c-107.333 -145.333 -161 -231.666 -161 -258.999
c0 -22 42 -33 126 -33c233.333 0 388.333 18 465 54c28.667 -61.333 43 -114.666 43 -159.999z" />
    <glyph glyph-name="bracketleft" unicode="[" horiz-adv-x="796" 
d="M731 1265c0 -28 -9.33105 -50.334 -27.998 -67.001c-19.333 -16.667 -46 -25 -80 -25c-8.66699 0 -27.334 0.666992 -56.001 2c-38.667 2.66699 -69.667 4.33398 -93 5.00098c9.33301 -392 14 -614 14 -666c0 -144.667 -4 -359 -12 -643l147 7c72 0 108 -29.667 108 -89
c0 -36 -26.333 -80.333 -79 -133c-58 14 -134 21 -228 21c-16.667 0 -49.334 -0.666992 -98.001 -2c-68 -2.66699 -119.667 -4.33398 -155 -5.00098c30.667 106.667 46 388.667 46 846c0 466.667 -16 756.334 -48 869.001c122 -6 206.333 -9 253 -9c92 0 168 7 228 21
c54 -56 81 -100 81 -132z" />
    <glyph glyph-name="backslash" unicode="\" horiz-adv-x="854" 
d="M785 -19c14.667 -38.667 22.001 -65.667 22.001 -81c0 -52 -34.333 -78 -103 -78c-68 0 -116.333 36.667 -145 110l-502 1295c-15.333 40.667 -23 65.667 -23 75c0 24 9.66699 43 29 57c19.333 14.667 45.666 22 78.999 22c67.333 0 112.333 -29.333 135 -88z" />
    <glyph glyph-name="bracketright" unicode="]" horiz-adv-x="796" 
d="M63 -213c0 28.667 9.66699 51.335 29 68.002c18.667 16.667 45 25 79 25l149 -8c-9.33301 393.333 -14 615.666 -14 666.999c0 144.667 4 359 12 643l-147 -7c-72 0 -108 29.667 -108 89c0 36 26.333 80.333 79 133c58 -14 134 -21 228 -21c26.667 0 111 2.33301 253 7
c-30.667 -106.667 -46 -388.667 -46 -846c0 -466.667 16 -756.334 48 -869.001c-114 4.66699 -198.333 7 -253 7c-98 0 -174 -6.33301 -228 -19c-54 56 -81 99.667 -81 131z" />
    <glyph glyph-name="asciicircum" unicode="^" horiz-adv-x="1932" 
d="M1479 974c62 -62 92.999 -109.667 92.999 -143c0 -26.667 -9.33301 -49 -28 -67c-18 -17.333 -39.667 -26 -65 -26c-41.333 0 -96 28.333 -164 85l-298 243c-28 23.333 -46 35 -54 35s-24.667 -11 -50 -33l-311 -247c-70 -55.333 -119.667 -83 -149 -83
c-26 0 -47.333 8.33301 -64 25c-16.667 16 -25 36.667 -25 62c0 34 21.333 73.333 64 118l340 350c61.333 60 126.333 90 195 90c48.667 0 89.334 -9.66699 122.001 -29c19.333 -11.333 49 -37 89 -77z" />
    <glyph glyph-name="underscore" unicode="_" horiz-adv-x="966" 
d="M966 -272v-186h-966v186h966z" />
    <glyph glyph-name="a" unicode="a" horiz-adv-x="1055" 
d="M785 0c-74.667 0 -116.334 36 -125.001 108c-88 -80 -182.667 -120 -284 -120c-94.667 0 -170.667 26.333 -228 79c-56.667 52 -85 120.333 -85 205c0 102.667 39 184 117 244c80 60.667 189.667 91 329 91c38.667 0 87 -4 145 -12v35c0 48.667 -17.333 86.667 -52 114
c-36 28 -86.333 42 -151 42c-108 0 -187.667 -35.333 -239 -106c-52 25.333 -78 61.333 -78 108c0 56 32.333 101.667 97 137c68.667 36.667 162 55 280 55c144.667 0 250.334 -30.667 317.001 -92s100 -158.333 100 -291l-2 -75c-1.33301 -46.667 -2 -92 -2 -136
c0 -154 21.333 -260.667 64 -320c-75.333 -44 -143 -66 -203 -66zM650 439c-38 6 -72.667 8.99902 -104 8.99902c-66.667 0 -118 -12.667 -154 -38c-35.333 -24.667 -53 -59.667 -53 -105c0 -38 12.333 -68 37 -90s58.667 -33 102 -33c63.333 0 121.333 26.333 174 79
c-1.33301 20.667 -2 59.334 -2 116.001v62z" />
    <glyph glyph-name="b" unicode="b" horiz-adv-x="1171" 
d="M693 970c122 0 221.666 -39.332 298.999 -117.999s116 -181 116 -307c0 -164 -54.333 -297.667 -163 -401c-109.333 -104 -252 -156 -428 -156c-155.333 0 -295.666 37.333 -420.999 112c20.667 183.333 31 426.333 31 729c0 264 -19.333 439 -58 525
c78 37.333 149.333 56 214 56c50 0 86.333 -12.667 109 -38s34 -66 34 -122c0 -12.667 -2.33301 -56 -7 -130c-6.66699 -98.667 -12 -187.334 -16 -266.001c83.333 77.333 180 116 290 116zM551.999 234.001c72 0 131.668 25.332 179.001 75.999
c48 50.667 72 115.334 72 194.001c0 68 -19.333 122.667 -58 164s-89 62 -151 62c-63.333 0 -126.333 -19.333 -189 -58c-5.33301 -82 -8 -165 -8 -249c0 -64 1.33301 -111.667 4 -143c47.333 -30.667 97.666 -46 150.999 -46z" />
    <glyph glyph-name="c" unicode="c" horiz-adv-x="889" 
d="M853 153c0 -52.667 -25.668 -94.668 -77.001 -126.001c-52.667 -32 -125.667 -48 -219 -48c-150 0 -270.667 41.333 -362 124c-90.667 81.333 -136 188.666 -136 321.999c0 172.667 67.667 315.667 203 429c100 82.667 221.667 124 365 124c135.333 0 203 -44 203 -132
c0 -50.667 -25.333 -102.667 -76 -156c-42 24 -87.667 36 -137 36c-70.667 0 -130.667 -25 -180 -75c-50 -51.333 -75 -113.666 -75 -186.999c0 -70 20.333 -126.333 61 -169c40.667 -42 94.334 -63 161.001 -63c71.333 0 140.333 22 207 66
c41.333 -51.333 62 -99.666 62 -144.999z" />
    <glyph glyph-name="d" unicode="d" horiz-adv-x="1192" 
d="M1133 58c-74.667 -40 -142.334 -59.999 -203.001 -59.999c-47.333 0 -81.666 11 -102.999 33c-21.333 21.333 -32 56 -32 104c0 15.333 0.666992 27 2 35c-78.667 -120 -185 -180 -319 -180c-121.333 0 -221.333 42.333 -300 127c-79.333 85.333 -119 195 -119 329
c0 150 48.333 275 145 375c96.667 102 217.667 153 363 153c70 0 146 -15.667 228 -47v37c0 206.667 -17.333 337.334 -52 392.001c76.667 36 148.667 54 216 54c54 0 91.333 -12.667 112 -38c19.333 -24.667 29 -68.667 29 -132c0 -13.333 -4 -98 -12 -254
c-8.66699 -156.667 -13 -306.334 -13 -449.001c0 -248.667 18.667 -408.334 56 -479.001h2zM793 522.001c0 82 -1.33301 141.666 -4 178.999c-66.667 26 -121.334 39 -164.001 39c-75.333 0 -136.333 -24.667 -183 -74c-46.667 -50 -70 -115.667 -70 -197
c0 -69.333 18.333 -124 55 -164c35.333 -40 83.333 -60 144 -60c80.667 0 153.334 38.667 218.001 116c2.66699 62.667 4 116.334 4 161.001z" />
    <glyph glyph-name="e" unicode="e" horiz-adv-x="1049" 
d="M938 147c0 -48.667 -28.333 -86.999 -85 -114.999c-58.667 -29.333 -141 -44 -247 -44c-175.333 0 -310 42.333 -404 127c-94 83.333 -141 202.666 -141 357.999c0 150 47.667 271.667 143 365s220.333 140 375 140c127.333 0 230 -32.667 308 -98
c76.667 -64 115 -146 115 -246c0 -85.333 -31 -145 -93 -179c-57.333 -31.333 -155.333 -47 -294 -47c-94 0 -182 5.66699 -264 17v-4c0 -71.333 24 -126.333 72 -165c48 -38 117.333 -57 208 -57c104 0 185.667 23.667 245 71c41.333 -44.667 62 -85.667 62 -123z
M575 562.001c49.333 0 83.668 4.66602 103.001 13.999c22.667 10.667 34 31.334 34 62.001c0 44 -13.667 79.333 -41 106c-28 26.667 -64.667 40 -110 40c-112 0 -177.667 -68.667 -197 -206c97.333 -10.667 167.666 -16 210.999 -16z" />
    <glyph glyph-name="f" unicode="f" horiz-adv-x="748" 
d="M177 925c0 156.667 35.332 277.002 105.999 361.002c70 82.667 169.667 124 299 124c68.667 0 122.334 -13.333 161.001 -40c37.333 -26 56 -61 56 -105c0 -52.667 -33.667 -96.334 -101 -131.001c-27.333 37.333 -61.333 56 -102 56c-81.333 0 -122 -87.667 -122 -263
l145 8c66 0 99 -29.667 99 -89c0 -34.667 -12.333 -77.667 -37 -129c-36 11.333 -70.667 17 -104 17l-107 -4c0 -128 2.66699 -255.333 8 -382l8 -188c0 -58.667 -9.66699 -99.667 -29 -123c-20.667 -24.667 -56.667 -37 -108 -37c-66 0 -140 18.667 -222 56
c38 78.667 57 241 57 487c0 77.333 -1 137.666 -3 180.999l-85 -3c-52 0 -78 25.667 -78 77c0 25.333 11.667 67 35 125c25.333 -3.33301 50.333 -5 75 -5c20.667 0 37 0.666992 49 2v5z" />
    <glyph glyph-name="g" unicode="g" horiz-adv-x="1024" 
d="M1048 923c0 -33.333 -14.333 -59.3301 -43 -77.9971c-27.333 -18 -72.333 -32.333 -135 -43c38.667 -46.667 58 -100.334 58 -161.001c0 -98 -37 -175.333 -111 -232c-74.667 -57.333 -177.334 -86 -308.001 -86c-33.333 0 -57.666 1.33301 -72.999 4
c-18 -22 -27 -41 -27 -57c0 -28 18 -48.667 54 -62c24.667 -9.33301 80.667 -21.333 168 -36c136 -23.333 230.333 -51.666 283 -84.999c60 -38.667 90 -97.334 90 -176.001c0 -100 -46.667 -182.333 -140 -247c-97.333 -67.333 -225.333 -101 -384 -101
c-146.667 0 -260.667 27 -342 81c-80 52.667 -120 125.667 -120 219c0 119.333 65 205.666 195 258.999c-33.333 20.667 -50 51 -50 91c0 47.333 31.667 100.666 95 159.999c-118.667 64.667 -178 153 -178 265c0 96 39 176.667 117 242c80 67.333 181.333 101 304 101
c82 0 161.333 -19.333 238 -58c134.667 34 219.667 69.667 255 107c36 -34 54 -69.667 54 -107zM388 749.003c-30 -26 -45.001 -60 -45.001 -102c0 -39.333 15.333 -72 46 -98c31.333 -27.333 70.666 -41 117.999 -41c48.667 0 88.334 13.667 119.001 41
c30 26 45 58.667 45 98c0 42 -14.667 76 -44 102s-68.666 39 -117.999 39c-50.667 0 -91 -13 -121 -39zM292.999 -105.997c0 -41.333 19 -74.666 57 -99.999c39.333 -26 92.333 -39 159 -39c64.667 0 116 11.667 154 35c36.667 22 55 50.667 55 86
c0 37.333 -25.667 66 -77 86c-22 8.66699 -100 29.667 -234 63c-76 -32.667 -114 -76.334 -114 -131.001z" />
    <glyph glyph-name="h" unicode="h" horiz-adv-x="1175" 
d="M888 0c-52 0 -88.332 11.3311 -108.999 33.998c-20 22 -30 60.333 -30 115c0 24 2.33301 72.333 7 145c4 72.667 6 133.667 6 183c0 94.667 -10.667 161.667 -32 201c-22.667 42.667 -63.334 64 -122.001 64c-49.333 0 -112 -20 -188 -60
c-5.33301 -60.667 -8 -135.334 -8 -224.001c0 -199.333 17 -334 51 -404c-76 -36 -150.333 -54 -223 -54c-52.667 0 -88.667 12 -108 36c-18 22.667 -27 64 -27 124c0 21.333 3.66699 111.333 11 270s11 306.334 11 443.001c0 254 -17.667 414.333 -53 481
c80.667 37.333 156 56 226 56c51.333 0 87.333 -12 108 -36c20 -24 30 -65.333 30 -124c0 -14.667 -2 -60.667 -6 -138c-5.33301 -99.333 -9.33301 -188.666 -12 -267.999c100 88 205.667 132 317 132c108 0 190.667 -31 248 -93c57.333 -62.667 86 -153 86 -271
c0 -27.333 -1 -70.666 -3 -129.999c-2.66699 -59.333 -4 -105.333 -4 -138c0 -138 16.667 -234.667 50 -290c-70 -36 -145.333 -54 -226 -54z" />
    <glyph glyph-name="i" unicode="i" horiz-adv-x="574" 
d="M426 1384c29.333 -28.667 44 -65 44 -109c0 -47.333 -17.667 -87.333 -53 -120c-35.333 -33.333 -79.333 -50 -132 -50c-46 0 -83 13.667 -111 41c-28 26.667 -42 62 -42 106c0 48.667 17.667 90 53 124c34.667 34.667 77 52 127 52c46 0 84 -14.667 114 -44zM256 0
c-50.667 0 -86.333 11.335 -107 34.002c-20 21.333 -30 58.333 -30 111c0 21.333 3 80.666 9 177.999c5.33301 98 8 185.333 8 262c0 153.333 -15.333 262.333 -46 327c74.667 36 150 54 226 54c48.667 0 84 -11.333 106 -34s33 -59.667 33 -111
c0 -32.667 -3 -99.334 -9 -200.001c-6.66699 -100.667 -10 -184.667 -10 -252c0 -132 16 -237 48 -315c-74.667 -36 -150.667 -54 -228 -54z" />
    <glyph glyph-name="j" unicode="j" horiz-adv-x="597" 
d="M451 1384c29.333 -29.333 44.001 -66.333 44.001 -111c0 -48 -17 -88 -51 -120c-34.667 -32 -79 -48 -133 -48c-46 0 -83 13.667 -111 41c-28 26.667 -42 62 -42 106c0 48.667 17.333 90 52 124c34.667 34.667 76.667 52 126 52c47.333 0 85.666 -14.667 114.999 -44z
M342.001 968c63.333 0 104.333 -17.333 123 -52c14.667 -27.333 22 -83.333 22 -168c0 -386.667 -16.667 -643 -50 -769c-30.667 -115.333 -90 -210.333 -178 -285c-82.667 -70.667 -167.667 -106 -255 -106c-68.667 0 -103 28.333 -103 85c0 28 17 54.667 51 80l92 69
c54 54.667 89.333 130 106 226c12 68 18 182 18 342c0 270 -18 444 -54 522c86 37.333 162 56 228 56z" />
    <glyph glyph-name="k" unicode="k" horiz-adv-x="1097" 
d="M921 -25c-42 0 -80.666 15.332 -115.999 45.999c-20.667 16 -68 64.667 -142 146c-93.333 101.333 -177 188 -251 260c0 -182.667 17 -307 51 -373c-76 -36 -149.667 -54 -221 -54c-52 0 -88 12 -108 36c-19.333 23.333 -29 64.666 -29 123.999
c0 24.667 3.66699 115.334 11 272.001s11 301.334 11 434.001c0 258.667 -17.667 421.334 -53 488.001c80.667 37.333 156 56 226 56c51.333 0 87.333 -12 108 -36c20 -24 30 -64.667 30 -122l-12 -234c-8 -157.333 -12 -316.333 -12 -477
c221.333 211.333 342.666 355.666 363.999 432.999c145.333 -34.667 218 -83.667 218 -147c0 -33.333 -30 -77 -90 -131c-41.333 -37.333 -127.333 -104.333 -258 -201c60 -38 143 -108.333 249 -211c78 -75.333 141.333 -116 190 -122c-22.667 -124.667 -78 -187 -166 -187
z" />
    <glyph glyph-name="l" unicode="l" horiz-adv-x="578" 
d="M260 0c-55.333 0 -92.667 13.6641 -112 40.9971c-18 25.333 -27 73 -27 143c0 19.333 4 111 12 275c7.33301 164.667 11 319.334 11 464.001c0 216.667 -18.667 360.334 -56 431.001c78 37.333 153.333 56 226 56c50 0 85.667 -12 107 -36
c21.333 -23.333 32 -62.666 32 -117.999c0 -24.667 -3.33301 -112 -10 -262c-7.33301 -150.667 -11 -288.667 -11 -414c0 -274.667 18 -450 54 -526c-86.667 -36 -162 -54 -226 -54z" />
    <glyph glyph-name="m" unicode="m" horiz-adv-x="1793" 
d="M1722 52c-72 -34.667 -145.997 -51.9971 -221.997 -51.9971c-48.667 0 -83.334 10.667 -104.001 32c-20.667 20.667 -31 55.667 -31 105c0 37.333 2.33301 95.333 7 174c4 78 6 137.333 6 178c0 87.333 -11.667 150 -35 188c-24.667 40.667 -66.334 61 -125.001 61
c-42 0 -95.333 -21.333 -160 -64c-4 -136.667 -6 -238.334 -6 -305.001c0 -140.667 16 -246.334 48 -317.001c-72.667 -36 -146.667 -54 -222 -54c-50.667 0 -86 11.667 -106 35c-19.333 22.667 -29 62 -29 118c0 25.333 2 74.333 6 147c3.33301 72.667 5 133 5 181
c0 92 -10.333 157.333 -31 196c-23.333 42 -64.333 63 -123 63c-50.667 0 -106.667 -21.333 -168 -64c-5.33301 -112.667 -8 -207.334 -8 -284.001c0 -162 15.333 -274.667 46 -338c-71.333 -36 -144.666 -54 -219.999 -54c-48.667 0 -83.334 11.667 -104.001 35
c-20.667 22 -31 59.333 -31 112c0 28.667 4 96 12 202c7.33301 106 11 197.667 11 275c0 141.333 -15.333 248.333 -46 321c57.333 18 110 27 158 27c107.333 0 166 -43.333 176 -130c99.333 86.667 203.666 130 312.999 130c119.333 0 210.666 -49 273.999 -147
c106.667 98 218.334 147 335.001 147c221.333 0 332 -126.333 332 -379c0 -27.333 -1.33301 -67 -4 -119s-4 -90.333 -4 -115c0 -146.667 16.667 -247.667 50 -303v-2z" />
    <glyph glyph-name="n" unicode="n" horiz-adv-x="1213" 
d="M1137 52c-72 -34.667 -146.665 -51.999 -223.998 -51.999c-50.667 0 -86.667 10.667 -108 32c-22 20.667 -33 55.667 -33 105c0 32.667 2.33301 87 7 163c4 76 6 135.667 6 179c0 92 -11.333 157.333 -34 196c-24.667 42 -67.334 63 -128.001 63
c-56 0 -117.333 -22.667 -184 -68c-6 -164.667 -9 -258 -9 -280c0 -157.333 16 -270 48 -338c-74 -34.667 -148.667 -52 -224 -52c-52.667 0 -89 12.333 -109 37c-20 23.333 -30 65 -30 125c0 25.333 4 89 12 191c7.33301 102.667 11 192.334 11 269.001
c0 153.333 -15.333 262.333 -46 327c59.333 18 112.666 27 159.999 27c113.333 0 174 -44 182 -132c105.333 88 211.333 132 318 132c120.667 0 208 -34.333 262 -103c52.667 -67.333 79 -174 79 -320c0 -26.667 -0.666992 -60.334 -2 -101.001s-2 -68.334 -2 -83.001
c0 -154.667 16 -259.667 48 -315v-2z" />
    <glyph glyph-name="o" unicode="o" horiz-adv-x="1213" 
d="M1029 170c-110 -128.667 -255 -193 -435 -193c-158 0 -286.333 46 -385 138c-98.667 91.333 -148 209 -148 353c0 149.333 53 272.666 159 369.999c106 98 241.667 147 407 147c153.333 0 279 -45.667 377 -137c97.333 -90 146 -204.667 146 -344
c0 -127.333 -40.333 -238.666 -121 -333.999zM433 299c44 -44.667 102.333 -66.998 175 -66.998c68 0 125 23.667 171 71c46.667 48 70 108.667 70 182c0 75.333 -22 135.666 -66 180.999c-44.667 45.333 -103 68 -175 68c-71.333 0 -129.333 -23.667 -174 -71
c-45.333 -47.333 -68 -110 -68 -188c0 -72.667 22.333 -131.334 67 -176.001z" />
    <glyph glyph-name="p" unicode="p" horiz-adv-x="1207" 
d="M729 970c122 0 221.998 -41.666 299.998 -124.999c77.333 -83.333 116 -191 116 -323c0 -118 -28.333 -216.667 -85 -296c-108.667 -150.667 -244.667 -226 -408 -226c-87.333 0 -166.666 24.333 -237.999 73v-38c0 -200 17 -332.667 51 -398
c-76 -36 -148.333 -54 -217 -54c-52 0 -88 12.333 -108 37c-19.333 23.333 -29 63.666 -29 120.999l14 258c8.66699 172 13 344.333 13 517c0 206 -17.333 347.667 -52 425c54.667 18 108 27 160 27c106.667 0 165.334 -40.667 176.001 -122c88.667 82.667 191 124 307 124z
M595.998 243.001c70 0 127.666 23.668 172.999 71.001s68 107.666 68 180.999c0 70 -20.333 126.667 -61 170c-40 43.333 -92.333 65 -157 65c-61.333 0 -125.666 -22.333 -192.999 -67c-2.66699 -146.667 -4 -266.667 -4 -360c56 -40 114 -60 174 -60z" />
    <glyph glyph-name="q" unicode="q" horiz-adv-x="1188" 
d="M909 -417c-53.333 0 -89.999 12.666 -109.999 37.999c-19.333 24 -29 66.667 -29 128l5 140c3.33301 88 5 172.667 5 254c-84.667 -96.667 -184 -145 -298 -145c-123.333 0 -224.333 41.667 -303 125c-80 84 -120 191.667 -120 323c0 157.333 52.333 284.333 157 381
c105.333 98 245 147 419 147c52 0 119.333 -5.33301 202 -16c83.333 -11.333 140.666 -17 171.999 -17c30 0 58.333 2 85 6c-22.667 -163.333 -34 -370.666 -34 -621.999c0 -362 21.667 -591.333 65 -688c-79.333 -36 -151.333 -54 -216 -54zM789.001 553.999
c0 80 -0.666016 135.668 -1.99902 167.001c-54.667 12.667 -104.334 19 -149.001 19c-83.333 0 -148 -23.333 -194 -70c-45.333 -46.667 -68 -112.334 -68 -197.001c0 -69.333 18.667 -124.333 56 -165c36.667 -40.667 85.667 -61 147 -61c80.667 0 150 36.667 208 110
c1.33301 40 2 105.667 2 197z" />
    <glyph glyph-name="r" unicode="r" horiz-adv-x="854" 
d="M426 726c82.667 164 175.332 245.998 277.999 245.998c44 0 80 -14.667 108 -44c28.667 -29.333 43 -67.666 43 -114.999c0 -84.667 -51.667 -152 -155 -202c-9.33301 57.333 -39.333 86 -90 86c-60 0 -116.333 -50.667 -169 -152c-4.66699 -48.667 -7 -102.667 -7 -162
c0 -148 20.667 -256.333 62 -325c-86 -40 -165.333 -60 -238 -60c-50.667 0 -86.667 11 -108 33c-22 22 -33 58 -33 108c0 22.667 3.66699 90 11 202c6.66699 112.667 10 214 10 304c0 118 -15.333 216 -46 294c68.667 20.667 128.334 31 179.001 31
c55.333 0 95.333 -12.667 120 -38c24.667 -24.667 37 -65 37 -121c0 -21.333 -2 -49.666 -6 -84.999h4z" />
    <glyph glyph-name="s" unicode="s" horiz-adv-x="736" 
d="M277 191c37.333 0 67.335 7.33203 90.002 21.999c21.333 14 32 32 32 54s-13.667 44 -41 66c-6 5.33301 -42.667 30.333 -110 75c-58.667 38.667 -99.334 73 -122.001 103c-28 36 -42 79.333 -42 130c0 92.667 41.667 172.667 125 240c86 69.333 191.667 104 317 104
c95.333 0 143 -36 143 -108c0 -43.333 -19.333 -87.666 -58 -132.999c-40.667 19.333 -80.334 29 -119.001 29c-42.667 0 -77 -8.66699 -103 -26c-24 -16.667 -36 -37 -36 -61c0 -30 28.667 -66.667 86 -110c90.667 -68 144.667 -111.333 162 -130
c40.667 -42.667 61 -91 61 -145c0 -89.333 -38.667 -165 -116 -227c-80.667 -64.667 -183.667 -97 -309 -97c-111.333 0 -167 40 -167 120c0 39.333 17.667 84.333 53 135c50.667 -27.333 102 -41 154 -41z" />
    <glyph glyph-name="t" unicode="t" horiz-adv-x="777" 
d="M663 933c59.333 0 88.999 -24.333 88.999 -73c0 -40 -17.667 -86.333 -53 -139c-26 10 -62.667 15 -110 15l-37 -2c-27.333 -2 -54.333 -3.33301 -81 -4c-10 -126.667 -15 -227.667 -15 -303c0 -142.667 38.667 -214 116 -214c26.667 0 53 10 79 30
c28.667 -37.333 43 -73.333 43 -108c0 -44 -21 -79 -63 -105c-43.333 -26.667 -103.666 -40 -180.999 -40c-194.667 0 -292 104.333 -292 313c0 36.667 3.33301 98.334 10 185.001c7.33301 100.667 12 179 14 235c-30.667 -4 -57.334 -6 -80.001 -6c-65.333 0 -98 25 -98 75
c0 31.333 11.667 71.333 35 120c21.333 -4 46.333 -6 75 -6c14 0 40.333 1.33301 79 4l2 56c0 89.333 -13.333 160.666 -40 213.999c76.667 36.667 145.334 55 206.001 55c90.667 0 136 -44.667 136 -134c0 -9.33301 -4.66699 -69 -14 -179
c133.333 7.33301 193.333 11 180 11z" />
    <glyph glyph-name="u" unicode="u" horiz-adv-x="1171" 
d="M890 -2c-47.333 0 -81.333 11.0039 -102 33.0039c-20 21.333 -30 56.666 -30 105.999v23c-86.667 -120.667 -196.667 -181 -330 -181c-218 0 -327 121.667 -327 365c0 26.667 1.66699 72 5 136s5 114 5 150c0 136 -16 230.667 -48 284c74.667 36 148 54 220 54
c50 0 86 -10.333 108 -31c22 -21.333 33 -56 33 -104c0 -32.667 -2.33301 -88 -7 -166c-5.33301 -78.667 -8 -141.334 -8 -188.001c0 -90 9.66699 -153.667 29 -191c20.667 -40 58 -60 112 -60c71.333 0 137 39.333 197 118c2.66699 53.333 4 92.666 4 117.999
c0 225.333 -20 373.333 -60 444c89.333 40 165.333 60 228 60c54 0 91.333 -13 112 -39c19.333 -24.667 29 -68.334 29 -131.001c0 -14.667 -2 -66 -6 -154s-6 -168.667 -6 -242c0 -168 16.667 -282.667 50 -344c-76.667 -40 -146 -60 -208 -60z" />
    <glyph glyph-name="v" unicode="v" horiz-adv-x="1138" 
d="M914 974c54 0 95.998 -16.001 125.998 -48.001c29.333 -32 44 -77.333 44 -136c0 -186.667 -89 -388.667 -267 -606c-110.667 -136.667 -218.667 -205 -324 -205c-69.333 0 -122.666 30 -159.999 90c-22.667 36 -57 125 -103 267
c-80.667 248.667 -155.334 397 -224.001 445c70.667 120.667 147.334 181 230.001 181c52 0 93.667 -28.667 125 -86c20.667 -38.667 50.334 -124.667 89.001 -258c40 -140.667 64.333 -222.667 73 -246c20 -56 39.667 -84 59 -84c16 0 39 22.333 69 67
c81.333 118.667 122 240 122 364c0 70.667 -20 130.334 -60 179.001c59.333 50.667 126.333 76 201 76z" />
    <glyph glyph-name="w" unicode="w" horiz-adv-x="1739" 
d="M1549 974c100.667 0 150.997 -46.333 150.997 -139c0 -160 -81.667 -365.667 -245 -617c-104 -158 -202 -237 -294 -237c-67.333 0 -122.666 43.667 -165.999 131c-33.333 66.667 -76 200.667 -128 402c-56.667 -182.667 -114 -316 -172 -400
c-61.333 -88.667 -130 -133 -206 -133c-54 0 -98.333 21.333 -133 64c-28.667 35.333 -61 100.333 -97 195c-83.333 219.333 -132.666 345.666 -147.999 378.999c-44.667 102.667 -87.334 168.667 -128.001 198c80.667 96.667 155.334 145 224.001 145
c53.333 0 94 -27.333 122 -82c7.33301 -14.667 35 -95 83 -241c69.333 -217.333 113.666 -326 132.999 -326c26.667 0 78.667 124.333 156 373c34.667 111.333 60 181 76 209c26.667 47.333 63.334 71 110.001 71c54 0 95.667 -36 125 -108
c11.333 -27.333 25.333 -70.333 42 -129l49 -171c54 -176 90.667 -264 110 -264c13.333 0 35.333 29 66 87c87.333 157.333 131 305.333 131 444c0 36.667 -8.33301 75.334 -25 116.001c64.667 22 119.334 33 164.001 33z" />
    <glyph glyph-name="x" unicode="x" horiz-adv-x="1061" 
d="M256 974c48 0 94.3311 -30.3369 138.998 -91.0039c11.333 -15.333 35 -50.666 71 -105.999c35.333 -54.667 67 -101 95 -139c95.333 114.667 143 201.334 143 260.001c0 7.33301 -1.33301 17 -4 29c68.667 27.333 133.334 41 194.001 41c76.667 0 115 -29.667 115 -89
c0 -65.333 -105.333 -196.666 -316 -393.999c163.333 -210 268.333 -321.333 315 -334c-49.333 -103.333 -119.666 -155 -210.999 -155c-48 0 -92.333 27.667 -133 83c-12 17.333 -33.333 51 -64 101c-34 54.667 -63 99.667 -87 135c-102 -107.333 -153 -191 -153 -251
c0 -11.333 2 -23 6 -35c-76.667 -22 -139 -33 -187 -33c-86.667 0 -130 33 -130 99c0 42 28.667 94.333 86 157c36 40 116.333 116.333 241 229c-152 200.667 -259.667 311.334 -323 332.001c50 107.333 117.667 161 203 161z" />
    <glyph glyph-name="y" unicode="y" horiz-adv-x="1109" 
d="M958 966c80 0 120 -30.999 120 -92.999c0 -15.333 -116.667 -300 -350 -854c-80 -192 -126.333 -299.333 -139 -322c-41.333 -71.333 -93.333 -107 -156 -107c-70 0 -136.333 49.667 -199 149c62 48 112 112.333 150 193l39 80c-107.333 258 -190.333 440 -249 546
c-68 122.667 -124 184 -168 184c48 153.333 122.667 230 224 230c51.333 0 92 -27 122 -81c7.33301 -14 31.666 -78.667 72.999 -194c50.667 -140.667 102.334 -273.334 155.001 -398.001c119.333 276 179 451.333 179 526c0 36 -9.66699 65 -29 87c78 36 154 54 228 54z
" />
    <glyph glyph-name="z" unicode="z" horiz-adv-x="983" 
d="M928 137c0 -48 -13.999 -82.6631 -41.999 -103.996c-28 -22 -72.667 -33 -134 -33c-15.333 0 -73.666 2.66699 -174.999 8c-101.333 4.66699 -195.333 7 -282 7c-72.667 0 -134.667 -5.66699 -186 -17c-28 43.333 -42 84.666 -42 123.999c0 41.333 14 80 42 116
c6 7.33301 22 25.666 48 54.999l85 96c87.333 101.333 173.666 209.333 258.999 324c-60 4 -109.333 6 -148 6c-96.667 0 -175.334 -12.333 -236.001 -37c-26 72.667 -39 121.667 -39 147c0 46 15.667 79 47 99c30 18.667 79.333 28 148 28c35.333 0 99 -2.33301 191 -7
c92 -5.33301 166.333 -8 223 -8c71.333 0 128 6.33301 170 19c30.667 -49.333 46 -92.333 46 -129c0 -46.667 -29 -103.334 -87 -170.001c-211.333 -250.667 -326 -387.334 -344 -410.001c96 -5.33301 158 -8 186 -8c100 0 177.333 11.667 232 35
c25.333 -64.667 38 -111.667 38 -141z" />
    <glyph glyph-name="braceleft" unicode="{" horiz-adv-x="761" 
d="M478 430c26 -50 38.998 -133.329 38.998 -249.996v-93c0 -72 5 -124.667 15 -158c10.667 -36.667 29.334 -58.667 56.001 -66c12 -2.66699 28.667 -4.33398 50 -5.00098c22.667 0 39 -1 49 -3c46 -8.66699 69 -35 69 -79c0 -64.667 -59 -97 -177 -97
c-117.333 0 -200.333 32.667 -249 98c-46.667 62 -70 165.333 -70 310l2 160c0 57.333 -6.66699 100.333 -20 129c-14 30.667 -38.333 51 -73 61c-65.333 18 -102.666 29.333 -111.999 34c-28.667 13.333 -43 35.333 -43 66c0 39.333 32.333 67.666 97 84.999
c65.333 16.667 106.666 37.667 123.999 63c18 26.667 27 81.667 27 165v95c0 165.333 21.667 281 65 347c48 72.667 135.667 109 263 109c109.333 0 164 -31.667 164 -95c0 -31.333 -13 -53 -39 -65c-12.667 -5.33301 -46 -12 -100 -20
c-37.333 -4.66699 -63.666 -21.334 -78.999 -50.001c-14 -26 -21 -68 -21 -126l2 -120c0 -116.667 -13.333 -203.334 -40 -260.001c-30 -62.667 -83.667 -106.667 -161 -132c78.667 -12.667 132.667 -47 162 -103z" />
    <glyph glyph-name="bar" unicode="|" horiz-adv-x="966" 
d="M579 1476v-1932h-194v1932h194z" />
    <glyph glyph-name="braceright" unicode="}" horiz-adv-x="761" 
d="M282 665c-27.333 56.667 -41 143.336 -41 260.003l2 143c0 55.333 -10 94.333 -30 117c-18.667 21.333 -52.334 34 -101.001 38c-72 6 -108 33.667 -108 83c0 63.333 54.667 95 164 95c127.333 0 215.333 -36.333 264 -109c44 -66.667 66 -182.334 66 -347.001v-93
c0 -68 5.33301 -116.667 16 -146c14 -36 40.333 -59.333 79 -70c66.667 -19.333 102.667 -30.333 108 -33c28.667 -13.333 43 -35.333 43 -66c0 -24.667 -9.66699 -43.667 -29 -57c-16 -11.333 -43.667 -22 -83 -32c-56.667 -14 -93.667 -35 -111 -63
c-16 -26 -24 -75 -24 -147l1 -186c0 -130.667 -25.333 -225.334 -76 -284.001c-51.333 -59.333 -134.666 -89 -249.999 -89c-54 0 -96 9 -126 27c-29.333 17.333 -44 40.666 -44 69.999c0 37.333 17.333 61.666 52 72.999c11.333 4 29.666 6.66699 54.999 8
c27.333 0.666992 47 2.66699 59 6c50 12.667 75 87.334 75 224.001l-2 147c0 92.667 15.667 162.667 47 210c32 48 83.333 77.667 154 89c-77.333 25.333 -130.666 69.333 -159.999 132z" />
    <glyph glyph-name="asciitilde" unicode="~" horiz-adv-x="1609" 
d="M1284 697c51.333 34 92.3311 51 122.998 51c34 0 61.333 -10 82 -30c20 -20.667 30 -47 30 -79c0 -32.667 -13.333 -63.334 -40 -92.001c-101.333 -103.333 -236.666 -155 -405.999 -155c-56 0 -146.667 21.333 -272 64c-120 42.667 -209 64 -267 64
c-53.333 0 -118.333 -22.667 -195 -68c-61.333 -36 -105 -54 -131 -54c-31.333 0 -57.333 10.333 -78 31s-31 46.334 -31 77.001c0 34 13 65 39 93c98.667 110.667 231.334 166 398.001 166c66 0 160.667 -22 284 -66c120.667 -42 205.667 -63 255 -63
c67.333 0 137 20.333 209 61z" />
    <glyph glyph-name="exclamdown" unicode="&#xa1;" horiz-adv-x="607" 
d="M159 1336c37.333 32.667 84.333 49 141 49c52 0 94.333 -15.333 127 -46c32.667 -29.333 49 -66.666 49 -111.999c0 -49.333 -17.667 -90 -53 -122c-36 -32 -82 -48 -138 -48c-54 0 -97.333 15.333 -130 46c-33.333 30 -50 69.333 -50 118c0 45.333 18 83.666 54 114.999
zM271 -19c-96 0 -144 50.668 -144 152.001c0 29.333 11 109.666 33 240.999c21.333 132 32 248.333 32 349c0 88.667 -16.667 153.667 -50 195c53.333 34.667 101 52 143 52c55.333 0 96 -22.333 122 -67c25.333 -44 38 -112.667 38 -206c0 -32 -1.33301 -83.667 -4 -155
c-3.33301 -70.667 -5 -125.667 -5 -165c0 -144 20.333 -248.333 61 -313c-90 -55.333 -165.333 -83 -226 -83z" />
    <glyph glyph-name="cent" unicode="&#xa2;" horiz-adv-x="1202" 
d="M519 1044c-1.33301 28 -1.99707 47.666 -1.99707 58.999c0 42.667 6 72.667 18 90c12.667 18.667 35.667 28 69 28c38 0 77.667 -12.333 119 -37c-20 -51.333 -30 -115.666 -30 -192.999h17c140.667 0 211 -44.333 211 -133c0 -47.333 -25.333 -98.333 -76 -153
c-38.667 26 -89.334 39 -152.001 39c-76.667 0 -140.334 -24 -191.001 -72c-49.333 -46.667 -74 -105.667 -74 -177c0 -73.333 21.667 -132.666 65 -177.999s100.333 -68 171 -68c78.667 0 148.667 20.667 210 62c40 -57.333 60 -104.333 60 -141
c0 -47.333 -20.667 -86.333 -62 -117c-42.667 -31.333 -102.334 -50.333 -179.001 -57l3 -85c1.33301 -27.333 2 -46 2 -56c0 -69.333 -27 -104 -81 -104c-32.667 0 -77 14 -133 42c22.667 46 35 116.333 37 211c-128 26 -226 77.667 -294 155s-102 175.666 -102 294.999
c0 122 34.667 227.667 104 317c70 90.667 168 155 294 193z" />
    <glyph glyph-name="sterling" unicode="&#xa3;" horiz-adv-x="1202" 
d="M252 806c0 182.667 78.666 328 235.999 436c130 90.667 280 136 450 136c146.667 0 220 -42 220 -126c0 -40 -19.333 -91.667 -58 -155c-63.333 28.667 -127 43 -191 43c-120.667 0 -216.667 -28.667 -288 -86c-69.333 -56 -104 -130.333 -104 -223c0 -36 7 -81 21 -135
l243 11c92 0 138 -32.667 138 -98c0 -34 -16.333 -77.333 -49 -130c-50.667 14 -115 21 -193 21c-36 0 -64.333 -1 -85 -3c12.667 -46 19 -83.667 19 -113c0 -57.333 -16 -114 -48 -170c10.667 -0.666992 30.667 -1 60 -1c198.667 0 343.667 27 435 81
c46 -64 69 -118.333 69 -163c0 -53.333 -22.333 -91 -67 -113c-43.333 -22 -113.666 -33 -210.999 -33c-66.667 0 -155.334 4.66699 -266.001 14c-111.333 8.66699 -189.333 13 -234 13c-71.333 0 -139.666 -9.66699 -204.999 -29c-37.333 60.667 -56 106.334 -56 137.001
c0 77.333 55.333 116 166 116c20.667 0 43.334 -0.666992 68.001 -2c24 33.333 36 73.333 36 120c0 41.333 -7.66699 85 -23 131c-37.333 -5.33301 -73.333 -8 -108 -8c-46.667 0 -80.334 7.66699 -101.001 23c-21.333 15.333 -32 40.666 -32 75.999
c0 26 13.333 62.667 40 110c20 -4 42.667 -6 68 -6c11.333 0 35 1.33301 71 4c-14 45.333 -21 86 -21 122z" />
    <glyph glyph-name="currency" unicode="&#xa4;" horiz-adv-x="1157" 
d="M994 569c26 -24.667 44.333 -43 55 -55c31.333 -34 47 -64.333 47 -91c0 -25.333 -9 -47.333 -27 -66c-18 -19.333 -40.333 -29 -67 -29c-26 0 -56.667 16 -92 48c0.666992 -1.33301 -40.333 40 -123 124c-68.667 -36 -138 -54 -208 -54c-70.667 0 -139.667 18 -207 54
c-77.333 -78 -119 -119.667 -125 -125c-35.333 -31.333 -64.666 -47 -87.999 -47c-26 0 -48 9.66699 -66 29c-18.667 18.667 -28 40.667 -28 66c0 26.667 15.667 57 47 91c10.667 12 29 30.333 55 55c31.333 30 54.666 53 69.999 69c-38.667 66.667 -58 134 -58 202
c0 70 19.333 138.333 58 205l-70 70c-25.333 24.667 -43.666 43.334 -54.999 56.001c-31.333 34.667 -47 65 -47 91c0 25.333 9.33301 47.333 28 66c18 18.667 40 28 66 28s56 -15.667 90 -47c14 -12.667 54.333 -55 121 -127c71.333 37.333 140.333 56 207 56
c78 0 148 -18.667 210 -56l123 125c34.667 31.333 64.667 47 90 47c26 0 48.333 -9 67 -27c18 -18 27 -39.667 27 -65c0 -26.667 -15.667 -57.334 -47 -92.001l-125 -123c38 -60.667 57 -129 57 -205c0 -67.333 -18.333 -135.333 -55 -204c15.333 -16 38.666 -39 69.999 -69
zM738 1000c-43.333 43.333 -95.666 64.999 -156.999 64.999c-62 0 -114.667 -21.667 -158 -65s-65 -96 -65 -158c0 -63.333 21.667 -116.666 65 -159.999c43.333 -42.667 96 -64 158 -64c61.333 0 113.666 21.667 156.999 65s65 96.333 65 159c0 62 -21.667 114.667 -65 158
z" />
    <glyph glyph-name="yen" unicode="&#xa5;" horiz-adv-x="1242" 
d="M235 1349c51.333 0 92.3359 -24.667 123.003 -74c9.33301 -14 39 -68 89 -162l191 -356c162.667 260.667 244 426.334 244 497.001c0 14 -2 29.333 -6 46c94.667 28.667 167 43 217 43c75.333 0 113 -29 113 -87c0 -52.667 -72 -170.667 -216 -354
c41.333 4 76.666 6 105.999 6c64.667 0 97 -21.333 97 -64c0 -29.333 -14.667 -64.666 -44 -105.999c-31.333 12.667 -82.333 19 -153 19c-18.667 0 -53.334 -1.33301 -104.001 -4l-105 -129l313 10c64.667 0 97 -23.333 97 -70c0 -26 -13.667 -59.333 -41 -100
c-36.667 11.333 -93.334 17 -170.001 17c-38 0 -112 -2 -222 -6c0 -200.667 14.333 -343 43 -427c-75.333 -34.667 -147.666 -52 -216.999 -52c-52.667 0 -88 10.333 -106 31c-18 19.333 -27 57.333 -27 114l4 104c3.33301 74.667 5.66602 150 6.99902 226
c-164.667 -6 -263 -9 -295 -9c-46 0 -79 5.33301 -99 16c-21.333 11.333 -32 31 -32 59c0 23.333 15.333 58.666 46 105.999c42 -19.333 159.667 -29 353 -29l-88 130c-91.333 -5.33301 -160.333 -8 -207 -8c-69.333 0 -104 22.667 -104 68c0 23.333 16 58.666 48 105.999
c36 -15.333 95.333 -23 178 -23c-94 151.333 -176.667 241.333 -248 270c54 128 125.667 192 215 192z" />
    <glyph glyph-name="brokenbar" unicode="&#xa6;" horiz-adv-x="966" 
d="M579 1350v-755h-194v755h194zM579 425v-755h-194v755h194z" />
    <glyph glyph-name="section" unicode="&#xa7;" horiz-adv-x="1030" 
d="M652 1157c-32 0 -58.332 -7.99902 -78.999 -23.999c-19.333 -15.333 -29 -33.666 -29 -54.999c0 -38 37.333 -84.333 112 -139c102.667 -76.667 165.667 -127.334 189 -152.001c48 -51.333 72 -110 72 -176c0 -122.667 -74 -216.334 -222 -281.001
c84.667 -68 127 -144 127 -228c0 -89.333 -42 -166.666 -126 -231.999c-86 -66.667 -192 -100 -318 -100c-60.667 0 -108 12.333 -142 37c-33.333 24.667 -50 58.667 -50 102c0 41.333 26.667 94.333 80 159c52.667 -35.333 102.667 -53 150 -53
c31.333 0 56.666 6.33301 75.999 19c18 12.667 27 29 27 49c0 29.333 -36.667 73.666 -110 132.999c-136 107.333 -206.667 163.666 -212 168.999c-57.333 56.667 -86 119.667 -86 189c0 118.667 74 212.667 222 282c-68 61.333 -102 129 -102 203
c0 92.667 45.667 173.667 137 243c88 69.333 187.333 104 298 104c56 0 99.333 -11.667 130 -35c30 -22 45 -52.667 45 -92c0 -47.333 -27.667 -99.666 -83 -156.999c-34 23.333 -69.333 35 -106 35zM685.001 587.001c0 46.667 -62 106.002 -186 178.002
c-105.333 -38.667 -158 -91.334 -158 -158.001c0 -53.333 63 -115.333 189 -186c103.333 37.333 155 92.666 155 165.999z" />
    <glyph glyph-name="copyright" unicode="&#xa9;" horiz-adv-x="1588" 
d="M306 1157c134 134 295.667 201 485 201c190.667 0 353 -67.667 487 -203c134 -134 201 -296.333 201 -487c0 -190 -67 -352 -201 -486c-132.667 -134 -295 -201 -487 -201c-189.333 0 -351 67 -485 201c-136.667 136.667 -205 298.667 -205 486
c0 189.333 68.333 352.333 205 489zM409 286c105.333 -105.333 232 -158 380 -158s275.667 52.667 383 158c106.667 108.667 160 236.667 160 384s-53.333 274.333 -160 381c-108 106.667 -235.667 160 -383 160c-148 0 -274.667 -52.667 -380 -158
c-107.333 -106 -161 -233.667 -161 -383c0 -150 53.667 -278 161 -384zM1100 400c0 -74.667 -77.332 -112.001 -231.999 -112.001c-141.333 0 -253.333 34.667 -336 104c-80.667 67.333 -121 157 -121 269c0 118 47 215.333 141 292s215.667 115 365 115
c60 0 103.333 -6.33301 130 -19c28 -14 42 -36.667 42 -68c0 -30.667 -16.333 -71.667 -49 -123c-49.333 20.667 -98 31 -146 31c-78.667 0 -141.667 -20 -189 -60c-46.667 -39.333 -70 -91 -70 -155c0 -61.333 22 -110.666 66 -147.999
c45.333 -38.667 105.666 -58 180.999 -58c54.667 0 110.667 15.333 168 46c33.333 -46.667 50 -84.667 50 -114z" />
    <glyph glyph-name="ordfeminine" unicode="&#xaa;" horiz-adv-x="682" 
d="M484 829c-49.333 0 -77.001 20 -83.001 60c-56 -45.333 -117.333 -68 -184 -68c-60 0 -108.667 16 -146 48c-36.667 32 -55 72.667 -55 122c0 60.667 24.667 108.667 74 144c50.667 35.333 120.667 53 210 53c19.333 0 51 -2 95 -6v12c0 62 -41.333 93 -124 93
c-67.333 0 -116.666 -20.667 -147.999 -62c-36 14.667 -54 37.334 -54 68.001c0 33.333 21 60.333 63 81c44 21.333 104.667 32 182 32c95.333 0 163.333 -18.333 204 -55s61 -97.334 61 -182.001l-2 -110c0 -86.667 14 -150 42 -190c-49.333 -26.667 -94.333 -40 -135 -40z
M390.999 1086l-64 4c-82 0 -123 -26.667 -123 -80c0 -44.667 28.333 -67 85 -67c36.667 0 70.667 14.667 102 44v99zM622.999 684c0 -30 -9.33301 -51 -28 -63c-17.333 -10.667 -46.666 -16 -87.999 -16c-23.333 0 -61.333 1.66699 -114 5
c-53.333 2.66699 -94.666 4 -123.999 4c-90.667 0 -159.334 -9.66699 -206.001 -29c-20.667 30.667 -31 59 -31 85c0 58 38.667 87 116 87c26 0 66.333 -1.66699 121 -5c54.667 -4 96 -6 124 -6c85.333 0 151.666 9.66699 198.999 29c20.667 -32.667 31 -63 31 -91z" />
    <glyph glyph-name="guillemotleft" unicode="&#xab;" horiz-adv-x="838" 
d="M347 178c-44 0 -102 29.668 -174 89.001c-76 62 -114 130 -114 204c0 52 31 110 93 174c77.333 77.333 142.333 116 195 116c36 0 54 -18.667 54 -56c0 -22 -17 -58.333 -51 -109c-34.667 -50.667 -52 -92.334 -52 -125.001c0 -37.333 17.333 -82 52 -134
c34 -52.667 51 -87.667 51 -105c0 -36 -18 -54 -54 -54zM718 178.001c-44 0 -102 29.667 -174 89c-76 61.333 -114 129.333 -114 204c0 53.333 31 112 93 176c74 76 139 114 195 114c37.333 0 56 -19.333 56 -58c0 -22 -17.333 -58 -52 -108
c-35.333 -50.667 -53 -92 -53 -124c0 -37.333 17.333 -82 52 -134c34 -52.667 51 -87.667 51 -105c0 -36 -18 -54 -54 -54z" />
    <glyph glyph-name="logicalnot" unicode="&#xac;" horiz-adv-x="1609" 
d="M1280 860c92.667 0 139 -46.333 139 -139v-298c0 -32 -9.66699 -58 -29 -78c-20 -20 -47 -30 -81 -30c-32 0 -58.333 10.333 -79 31c-20.667 20 -31 45.667 -31 77v195c0 15.333 -7.66699 23 -23 23h-733c-37.333 0 -67.333 10.333 -90 31c-22 20 -33 46 -33 78
s11.667 58.333 35 79c24 20.667 56 31 96 31h829z" />
    <glyph glyph-name="registered" unicode="&#xae;" horiz-adv-x="1588" 
d="M306 1157c134 134 295.667 201 485 201c190.667 0 353 -67.667 487 -203c134 -134 201 -296.333 201 -487c0 -190 -67 -352 -201 -486c-132.667 -134 -295 -201 -487 -201c-189.333 0 -351 67 -485 201c-136.667 136.667 -205 298.667 -205 486
c0 189.333 68.333 352.333 205 489zM409 286c105.333 -105.333 231.999 -158 379.999 -158c148.667 0 276.334 53.333 383.001 160s160 234 160 382c0 147.333 -53.333 274.333 -160 381c-108 106.667 -235.667 160 -383 160s-274 -52 -380 -156
c-107.333 -108.667 -161 -237 -161 -385c0 -150 53.667 -278 161 -384zM1061 531c56 -52 103.333 -83.999 142 -95.999c-24.667 -95.333 -69.334 -143 -134.001 -143c-37.333 0 -103.666 49.333 -198.999 148c-9.33301 9.33301 -22.666 24 -39.999 44
c-15.333 17.333 -27 29.666 -35 36.999c-24 23.333 -48 35 -72 35c-11.333 0 -20.333 -0.666992 -27 -2c0 -93.333 11.667 -167.333 35 -222c-60.667 -25.333 -111.334 -38 -152.001 -38c-38 0 -64.333 8 -79 24s-22 44 -22 84c0 16.667 2.33301 62.334 7 137.001
s7 141 7 199c0 156 -12.333 257 -37 303h108c24 0 63.667 2 119 6s98.666 6 129.999 6c88.667 0 156.334 -18.333 203.001 -55s70 -89.334 70 -158.001c0 -100.667 -53.667 -172.667 -161 -216c35.333 -10.667 81 -41.667 137 -93zM711.999 682.001
c48 0 86.667 12.001 116 36.001c28 24 42 55 42 93c0 29.333 -9.66699 52.666 -29 69.999c-20 18 -47.667 27 -83 27c-13.333 0 -33.333 -2.66699 -60 -8c-3.33301 -85.333 -5 -158 -5 -218h19z" />
    </font>
</defs>
</svg>
