<?xml version="1.0" encoding="utf-8"?>
<!-- Generator: Adobe Illustrator 19.2.0, SVG Export Plug-In . SVG Version: 6.00 Build 0)  -->
<svg version="1.1" id="Layer_1" xmlns="http://www.w3.org/2000/svg" xmlns:xlink="http://www.w3.org/1999/xlink" x="0px" y="0px"
	 viewBox="0 0 1024 62" style="enable-background:new 0 0 1024 62;" xml:space="preserve">
<style type="text/css">
	.st0{opacity:0.5;}
	.st1{fill:#FFFFFF;}
</style>
<g class="st0">
	<g>
		<g>
			<circle class="st1" cx="2.5" cy="3.8" r="2.5"/>
			<circle class="st1" cx="25.6" cy="3.8" r="2.5"/>
			<circle class="st1" cx="48.8" cy="3.8" r="2.5"/>
			<circle class="st1" cx="71.9" cy="3.8" r="2.5"/>
			<circle class="st1" cx="95" cy="3.8" r="2.5"/>
			<circle class="st1" cx="118.2" cy="3.8" r="2.5"/>
			<circle class="st1" cx="141.3" cy="3.8" r="2.5"/>
			<circle class="st1" cx="164.5" cy="3.8" r="2.5"/>
			<circle class="st1" cx="187.6" cy="3.8" r="2.5"/>
			<circle class="st1" cx="210.7" cy="3.8" r="2.5"/>
			<circle class="st1" cx="233.9" cy="3.8" r="2.5"/>
			<circle class="st1" cx="257" cy="3.8" r="2.5"/>
			<circle class="st1" cx="280.1" cy="3.8" r="2.5"/>
			<circle class="st1" cx="303.3" cy="3.8" r="2.5"/>
			<circle class="st1" cx="326.4" cy="3.8" r="2.5"/>
			<circle class="st1" cx="349.5" cy="3.8" r="2.5"/>
			<circle class="st1" cx="372.7" cy="3.8" r="2.5"/>
			<circle class="st1" cx="395.8" cy="3.8" r="2.5"/>
			<circle class="st1" cx="419" cy="3.8" r="2.5"/>
			<circle class="st1" cx="442.1" cy="3.8" r="2.5"/>
			<circle class="st1" cx="465.2" cy="3.8" r="2.5"/>
			<circle class="st1" cx="488.4" cy="3.8" r="2.5"/>
			<circle class="st1" cx="511.5" cy="3.8" r="2.5"/>
			<circle class="st1" cx="534.6" cy="3.8" r="2.5"/>
			<circle class="st1" cx="557.8" cy="3.8" r="2.5"/>
			<circle class="st1" cx="580.9" cy="3.8" r="2.5"/>
			<circle class="st1" cx="604" cy="3.8" r="2.5"/>
			<circle class="st1" cx="627.2" cy="3.8" r="2.5"/>
			<circle class="st1" cx="650.3" cy="3.8" r="2.5"/>
			<circle class="st1" cx="673.5" cy="3.8" r="2.5"/>
			<circle class="st1" cx="696.6" cy="3.8" r="2.5"/>
			<circle class="st1" cx="719.7" cy="3.8" r="2.5"/>
			<circle class="st1" cx="742.9" cy="3.8" r="2.5"/>
			<circle class="st1" cx="766" cy="3.8" r="2.5"/>
			<circle class="st1" cx="789.1" cy="3.8" r="2.5"/>
			<circle class="st1" cx="812.3" cy="3.8" r="2.5"/>
			<circle class="st1" cx="835.4" cy="3.8" r="2.5"/>
			<circle class="st1" cx="858.5" cy="3.8" r="2.5"/>
			<circle class="st1" cx="881.7" cy="3.8" r="2.5"/>
			<circle class="st1" cx="904.8" cy="3.8" r="2.5"/>
			<circle class="st1" cx="928" cy="3.8" r="2.5"/>
			<circle class="st1" cx="951.1" cy="3.8" r="2.5"/>
			<circle class="st1" cx="974.2" cy="3.8" r="2.5"/>
			<circle class="st1" cx="997.4" cy="3.8" r="2.5"/>
			<circle class="st1" cx="1020.5" cy="3.8" r="2.5"/>
		</g>
		<g>
			<circle class="st1" cx="14" cy="16.8" r="2.5"/>
			<circle class="st1" cx="37.1" cy="16.8" r="2.5"/>
			<circle class="st1" cx="60.3" cy="16.8" r="2.5"/>
			<circle class="st1" cx="83.4" cy="16.8" r="2.5"/>
			<circle class="st1" cx="106.5" cy="16.8" r="2.5"/>
			<circle class="st1" cx="129.7" cy="16.8" r="2.5"/>
			<circle class="st1" cx="152.8" cy="16.8" r="2.5"/>
			<circle class="st1" cx="176" cy="16.8" r="2.5"/>
			<circle class="st1" cx="199.1" cy="16.8" r="2.5"/>
			<circle class="st1" cx="222.2" cy="16.8" r="2.5"/>
			<circle class="st1" cx="245.4" cy="16.8" r="2.5"/>
			<circle class="st1" cx="268.5" cy="16.8" r="2.5"/>
			<circle class="st1" cx="291.6" cy="16.8" r="2.5"/>
			<circle class="st1" cx="314.8" cy="16.8" r="2.5"/>
			<circle class="st1" cx="337.9" cy="16.8" r="2.5"/>
			<circle class="st1" cx="361" cy="16.8" r="2.5"/>
			<circle class="st1" cx="384.2" cy="16.8" r="2.5"/>
			<circle class="st1" cx="407.3" cy="16.8" r="2.5"/>
			<circle class="st1" cx="430.5" cy="16.8" r="2.5"/>
			<circle class="st1" cx="453.6" cy="16.8" r="2.5"/>
			<circle class="st1" cx="476.7" cy="16.8" r="2.5"/>
			<circle class="st1" cx="499.9" cy="16.8" r="2.5"/>
			<circle class="st1" cx="523" cy="16.8" r="2.5"/>
			<circle class="st1" cx="546.1" cy="16.8" r="2.5"/>
			<circle class="st1" cx="569.3" cy="16.8" r="2.5"/>
			<circle class="st1" cx="592.4" cy="16.8" r="2.5"/>
			<circle class="st1" cx="615.5" cy="16.8" r="2.5"/>
			<circle class="st1" cx="638.7" cy="16.8" r="2.5"/>
			<circle class="st1" cx="661.8" cy="16.8" r="2.5"/>
			<circle class="st1" cx="685" cy="16.8" r="2.5"/>
			<circle class="st1" cx="708.1" cy="16.8" r="2.5"/>
			<circle class="st1" cx="731.2" cy="16.8" r="2.5"/>
			<circle class="st1" cx="754.4" cy="16.8" r="2.5"/>
			<circle class="st1" cx="777.5" cy="16.8" r="2.5"/>
			<circle class="st1" cx="800.6" cy="16.8" r="2.5"/>
			<circle class="st1" cx="823.8" cy="16.8" r="2.5"/>
			<circle class="st1" cx="846.9" cy="16.8" r="2.5"/>
			<circle class="st1" cx="870" cy="16.8" r="2.5"/>
			<circle class="st1" cx="893.2" cy="16.8" r="2.5"/>
			<circle class="st1" cx="916.3" cy="16.8" r="2.5"/>
			<circle class="st1" cx="939.5" cy="16.8" r="2.5"/>
			<circle class="st1" cx="962.6" cy="16.8" r="2.5"/>
			<circle class="st1" cx="985.7" cy="16.8" r="2.5"/>
			<circle class="st1" cx="1008.9" cy="16.8" r="2.5"/>
		</g>
	</g>
	<g>
		<g>
			<g>
				<circle class="st1" cx="2.5" cy="31.8" r="2.5"/>
				<circle class="st1" cx="25.6" cy="31.8" r="2.5"/>
				<circle class="st1" cx="48.8" cy="31.8" r="2.5"/>
				<circle class="st1" cx="71.9" cy="31.8" r="2.5"/>
				<circle class="st1" cx="95" cy="31.8" r="2.5"/>
				<circle class="st1" cx="118.2" cy="31.8" r="2.5"/>
				<circle class="st1" cx="141.3" cy="31.8" r="2.5"/>
				<circle class="st1" cx="164.5" cy="31.8" r="2.5"/>
				<circle class="st1" cx="187.6" cy="31.8" r="2.5"/>
				<circle class="st1" cx="210.7" cy="31.8" r="2.5"/>
				<circle class="st1" cx="233.9" cy="31.8" r="2.5"/>
				<circle class="st1" cx="257" cy="31.8" r="2.5"/>
				<circle class="st1" cx="280.1" cy="31.8" r="2.5"/>
				<circle class="st1" cx="303.3" cy="31.8" r="2.5"/>
				<circle class="st1" cx="326.4" cy="31.8" r="2.5"/>
				<circle class="st1" cx="349.5" cy="31.8" r="2.5"/>
				<circle class="st1" cx="372.7" cy="31.8" r="2.5"/>
				<circle class="st1" cx="395.8" cy="31.8" r="2.5"/>
				<circle class="st1" cx="419" cy="31.8" r="2.5"/>
				<circle class="st1" cx="442.1" cy="31.8" r="2.5"/>
				<circle class="st1" cx="465.2" cy="31.8" r="2.5"/>
				<circle class="st1" cx="488.4" cy="31.8" r="2.5"/>
				<circle class="st1" cx="511.5" cy="31.8" r="2.5"/>
				<circle class="st1" cx="534.6" cy="31.8" r="2.5"/>
				<circle class="st1" cx="557.8" cy="31.8" r="2.5"/>
				<circle class="st1" cx="580.9" cy="31.8" r="2.5"/>
				<circle class="st1" cx="604" cy="31.8" r="2.5"/>
				<circle class="st1" cx="627.2" cy="31.8" r="2.5"/>
				<circle class="st1" cx="650.3" cy="31.8" r="2.5"/>
				<circle class="st1" cx="673.5" cy="31.8" r="2.5"/>
				<circle class="st1" cx="696.6" cy="31.8" r="2.5"/>
				<circle class="st1" cx="719.7" cy="31.8" r="2.5"/>
				<circle class="st1" cx="742.9" cy="31.8" r="2.5"/>
				<circle class="st1" cx="766" cy="31.8" r="2.5"/>
				<circle class="st1" cx="789.1" cy="31.8" r="2.5"/>
				<circle class="st1" cx="812.3" cy="31.8" r="2.5"/>
				<circle class="st1" cx="835.4" cy="31.8" r="2.5"/>
				<circle class="st1" cx="858.5" cy="31.8" r="2.5"/>
				<circle class="st1" cx="881.7" cy="31.8" r="2.5"/>
				<circle class="st1" cx="904.8" cy="31.8" r="2.5"/>
				<circle class="st1" cx="928" cy="31.8" r="2.5"/>
				<circle class="st1" cx="951.1" cy="31.8" r="2.5"/>
				<circle class="st1" cx="974.2" cy="31.8" r="2.5"/>
				<circle class="st1" cx="997.4" cy="31.8" r="2.5"/>
				<circle class="st1" cx="1020.5" cy="31.8" r="2.5"/>
			</g>
			<g>
				<circle class="st1" cx="14" cy="44.8" r="2.5"/>
				<circle class="st1" cx="37.1" cy="44.8" r="2.5"/>
				<circle class="st1" cx="60.3" cy="44.8" r="2.5"/>
				<circle class="st1" cx="83.4" cy="44.8" r="2.5"/>
				<circle class="st1" cx="106.5" cy="44.8" r="2.5"/>
				<circle class="st1" cx="129.7" cy="44.8" r="2.5"/>
				<circle class="st1" cx="152.8" cy="44.8" r="2.5"/>
				<circle class="st1" cx="176" cy="44.8" r="2.5"/>
				<circle class="st1" cx="199.1" cy="44.8" r="2.5"/>
				<circle class="st1" cx="222.2" cy="44.8" r="2.5"/>
				<circle class="st1" cx="245.4" cy="44.8" r="2.5"/>
				<circle class="st1" cx="268.5" cy="44.8" r="2.5"/>
				<circle class="st1" cx="291.6" cy="44.8" r="2.5"/>
				<circle class="st1" cx="314.8" cy="44.8" r="2.5"/>
				<circle class="st1" cx="337.9" cy="44.8" r="2.5"/>
				<circle class="st1" cx="361" cy="44.8" r="2.5"/>
				<circle class="st1" cx="384.2" cy="44.8" r="2.5"/>
				<circle class="st1" cx="407.3" cy="44.8" r="2.5"/>
				<circle class="st1" cx="430.5" cy="44.8" r="2.5"/>
				<circle class="st1" cx="453.6" cy="44.8" r="2.5"/>
				<circle class="st1" cx="476.7" cy="44.8" r="2.5"/>
				<circle class="st1" cx="499.9" cy="44.8" r="2.5"/>
				<circle class="st1" cx="523" cy="44.8" r="2.5"/>
				<circle class="st1" cx="546.1" cy="44.8" r="2.5"/>
				<circle class="st1" cx="569.3" cy="44.8" r="2.5"/>
				<circle class="st1" cx="592.4" cy="44.8" r="2.5"/>
				<circle class="st1" cx="615.5" cy="44.8" r="2.5"/>
				<circle class="st1" cx="638.7" cy="44.8" r="2.5"/>
				<circle class="st1" cx="661.8" cy="44.8" r="2.5"/>
				<circle class="st1" cx="685" cy="44.8" r="2.5"/>
				<circle class="st1" cx="708.1" cy="44.8" r="2.5"/>
				<circle class="st1" cx="731.2" cy="44.8" r="2.5"/>
				<circle class="st1" cx="754.4" cy="44.8" r="2.5"/>
				<circle class="st1" cx="777.5" cy="44.8" r="2.5"/>
				<circle class="st1" cx="800.6" cy="44.8" r="2.5"/>
				<circle class="st1" cx="823.8" cy="44.8" r="2.5"/>
				<circle class="st1" cx="846.9" cy="44.8" r="2.5"/>
				<circle class="st1" cx="870" cy="44.8" r="2.5"/>
				<circle class="st1" cx="893.2" cy="44.8" r="2.5"/>
				<circle class="st1" cx="916.3" cy="44.8" r="2.5"/>
				<circle class="st1" cx="939.5" cy="44.8" r="2.5"/>
				<circle class="st1" cx="962.6" cy="44.8" r="2.5"/>
				<circle class="st1" cx="985.7" cy="44.8" r="2.5"/>
				<circle class="st1" cx="1008.9" cy="44.8" r="2.5"/>
			</g>
		</g>
	</g>
	<g>
		<g>
			<g>
				<circle class="st1" cx="2.5" cy="57.8" r="2.5"/>
				<circle class="st1" cx="25.6" cy="57.8" r="2.5"/>
				<circle class="st1" cx="48.8" cy="57.8" r="2.5"/>
				<circle class="st1" cx="71.9" cy="57.8" r="2.5"/>
				<circle class="st1" cx="95" cy="57.8" r="2.5"/>
				<circle class="st1" cx="118.2" cy="57.8" r="2.5"/>
				<circle class="st1" cx="141.3" cy="57.8" r="2.5"/>
				<circle class="st1" cx="164.5" cy="57.8" r="2.5"/>
				<circle class="st1" cx="187.6" cy="57.8" r="2.5"/>
				<circle class="st1" cx="210.7" cy="57.8" r="2.5"/>
				<circle class="st1" cx="233.9" cy="57.8" r="2.5"/>
				<circle class="st1" cx="257" cy="57.8" r="2.5"/>
				<circle class="st1" cx="280.1" cy="57.8" r="2.5"/>
				<circle class="st1" cx="303.3" cy="57.8" r="2.5"/>
				<circle class="st1" cx="326.4" cy="57.8" r="2.5"/>
				<circle class="st1" cx="349.5" cy="57.8" r="2.5"/>
				<circle class="st1" cx="372.7" cy="57.8" r="2.5"/>
				<circle class="st1" cx="395.8" cy="57.8" r="2.5"/>
				<circle class="st1" cx="419" cy="57.8" r="2.5"/>
				<circle class="st1" cx="442.1" cy="57.8" r="2.5"/>
				<circle class="st1" cx="465.2" cy="57.8" r="2.5"/>
				<circle class="st1" cx="488.4" cy="57.8" r="2.5"/>
				<circle class="st1" cx="511.5" cy="57.8" r="2.5"/>
				<circle class="st1" cx="534.6" cy="57.8" r="2.5"/>
				<circle class="st1" cx="557.8" cy="57.8" r="2.5"/>
				<circle class="st1" cx="580.9" cy="57.8" r="2.5"/>
				<circle class="st1" cx="604" cy="57.8" r="2.5"/>
				<circle class="st1" cx="627.2" cy="57.8" r="2.5"/>
				<circle class="st1" cx="650.3" cy="57.8" r="2.5"/>
				<circle class="st1" cx="673.5" cy="57.8" r="2.5"/>
				<circle class="st1" cx="696.6" cy="57.8" r="2.5"/>
				<circle class="st1" cx="719.7" cy="57.8" r="2.5"/>
				<circle class="st1" cx="742.9" cy="57.8" r="2.5"/>
				<circle class="st1" cx="766" cy="57.8" r="2.5"/>
				<circle class="st1" cx="789.1" cy="57.8" r="2.5"/>
				<circle class="st1" cx="812.3" cy="57.8" r="2.5"/>
				<circle class="st1" cx="835.4" cy="57.8" r="2.5"/>
				<circle class="st1" cx="858.5" cy="57.8" r="2.5"/>
				<circle class="st1" cx="881.7" cy="57.8" r="2.5"/>
				<circle class="st1" cx="904.8" cy="57.8" r="2.5"/>
				<circle class="st1" cx="928" cy="57.8" r="2.5"/>
				<circle class="st1" cx="951.1" cy="57.8" r="2.5"/>
				<circle class="st1" cx="974.2" cy="57.8" r="2.5"/>
				<circle class="st1" cx="997.4" cy="57.8" r="2.5"/>
				<circle class="st1" cx="1020.5" cy="57.8" r="2.5"/>
			</g>
			<g>
				<circle class="st1" cx="14" cy="70.8" r="2.5"/>
				<circle class="st1" cx="37.1" cy="70.8" r="2.5"/>
				<circle class="st1" cx="60.3" cy="70.8" r="2.5"/>
				<circle class="st1" cx="83.4" cy="70.8" r="2.5"/>
				<circle class="st1" cx="106.5" cy="70.8" r="2.5"/>
				<circle class="st1" cx="129.7" cy="70.8" r="2.5"/>
				<circle class="st1" cx="152.8" cy="70.8" r="2.5"/>
				<circle class="st1" cx="176" cy="70.8" r="2.5"/>
				<circle class="st1" cx="199.1" cy="70.8" r="2.5"/>
				<circle class="st1" cx="222.2" cy="70.8" r="2.5"/>
				<circle class="st1" cx="245.4" cy="70.8" r="2.5"/>
				<circle class="st1" cx="268.5" cy="70.8" r="2.5"/>
				<circle class="st1" cx="291.6" cy="70.8" r="2.5"/>
				<circle class="st1" cx="314.8" cy="70.8" r="2.5"/>
				<circle class="st1" cx="337.9" cy="70.8" r="2.5"/>
				<circle class="st1" cx="361" cy="70.8" r="2.5"/>
				<circle class="st1" cx="384.2" cy="70.8" r="2.5"/>
				<circle class="st1" cx="407.3" cy="70.8" r="2.5"/>
				<circle class="st1" cx="430.5" cy="70.8" r="2.5"/>
				<circle class="st1" cx="453.6" cy="70.8" r="2.5"/>
				<circle class="st1" cx="476.7" cy="70.8" r="2.5"/>
				<circle class="st1" cx="499.9" cy="70.8" r="2.5"/>
				<circle class="st1" cx="523" cy="70.8" r="2.5"/>
				<circle class="st1" cx="546.1" cy="70.8" r="2.5"/>
				<circle class="st1" cx="569.3" cy="70.8" r="2.5"/>
				<circle class="st1" cx="592.4" cy="70.8" r="2.5"/>
				<circle class="st1" cx="615.5" cy="70.8" r="2.5"/>
				<circle class="st1" cx="638.7" cy="70.8" r="2.5"/>
				<circle class="st1" cx="661.8" cy="70.8" r="2.5"/>
				<circle class="st1" cx="685" cy="70.8" r="2.5"/>
				<circle class="st1" cx="708.1" cy="70.8" r="2.5"/>
				<circle class="st1" cx="731.2" cy="70.8" r="2.5"/>
				<circle class="st1" cx="754.4" cy="70.8" r="2.5"/>
				<circle class="st1" cx="777.5" cy="70.8" r="2.5"/>
				<circle class="st1" cx="800.6" cy="70.8" r="2.5"/>
				<circle class="st1" cx="823.8" cy="70.8" r="2.5"/>
				<circle class="st1" cx="846.9" cy="70.8" r="2.5"/>
				<circle class="st1" cx="870" cy="70.8" r="2.5"/>
				<circle class="st1" cx="893.2" cy="70.8" r="2.5"/>
				<circle class="st1" cx="916.3" cy="70.8" r="2.5"/>
				<circle class="st1" cx="939.5" cy="70.8" r="2.5"/>
				<circle class="st1" cx="962.6" cy="70.8" r="2.5"/>
				<circle class="st1" cx="985.7" cy="70.8" r="2.5"/>
				<circle class="st1" cx="1008.9" cy="70.8" r="2.5"/>
			</g>
		</g>
		<g>
			<g>
				<g>
					<circle class="st1" cx="2.5" cy="85.8" r="2.5"/>
					<circle class="st1" cx="25.6" cy="85.8" r="2.5"/>
					<circle class="st1" cx="48.8" cy="85.8" r="2.5"/>
					<circle class="st1" cx="71.9" cy="85.8" r="2.5"/>
					<circle class="st1" cx="95" cy="85.8" r="2.5"/>
					<circle class="st1" cx="118.2" cy="85.8" r="2.5"/>
					<circle class="st1" cx="141.3" cy="85.8" r="2.5"/>
					<circle class="st1" cx="164.5" cy="85.8" r="2.5"/>
					<circle class="st1" cx="187.6" cy="85.8" r="2.5"/>
					<circle class="st1" cx="210.7" cy="85.8" r="2.5"/>
					<circle class="st1" cx="233.9" cy="85.8" r="2.5"/>
					<circle class="st1" cx="257" cy="85.8" r="2.5"/>
					<circle class="st1" cx="280.1" cy="85.8" r="2.5"/>
					<circle class="st1" cx="303.3" cy="85.8" r="2.5"/>
					<circle class="st1" cx="326.4" cy="85.8" r="2.5"/>
					<circle class="st1" cx="349.5" cy="85.8" r="2.5"/>
					<circle class="st1" cx="372.7" cy="85.8" r="2.5"/>
					<circle class="st1" cx="395.8" cy="85.8" r="2.5"/>
					<circle class="st1" cx="419" cy="85.8" r="2.5"/>
					<circle class="st1" cx="442.1" cy="85.8" r="2.5"/>
					<circle class="st1" cx="465.2" cy="85.8" r="2.5"/>
					<circle class="st1" cx="488.4" cy="85.8" r="2.5"/>
					<circle class="st1" cx="511.5" cy="85.8" r="2.5"/>
					<circle class="st1" cx="534.6" cy="85.8" r="2.5"/>
					<circle class="st1" cx="557.8" cy="85.8" r="2.5"/>
					<circle class="st1" cx="580.9" cy="85.8" r="2.5"/>
					<circle class="st1" cx="604" cy="85.8" r="2.5"/>
					<circle class="st1" cx="627.2" cy="85.8" r="2.5"/>
					<circle class="st1" cx="650.3" cy="85.8" r="2.5"/>
					<circle class="st1" cx="673.5" cy="85.8" r="2.5"/>
					<circle class="st1" cx="696.6" cy="85.8" r="2.5"/>
					<circle class="st1" cx="719.7" cy="85.8" r="2.5"/>
					<circle class="st1" cx="742.9" cy="85.8" r="2.5"/>
					<circle class="st1" cx="766" cy="85.8" r="2.5"/>
					<circle class="st1" cx="789.1" cy="85.8" r="2.5"/>
					<circle class="st1" cx="812.3" cy="85.8" r="2.5"/>
					<circle class="st1" cx="835.4" cy="85.8" r="2.5"/>
					<circle class="st1" cx="858.5" cy="85.8" r="2.5"/>
					<circle class="st1" cx="881.7" cy="85.8" r="2.5"/>
					<circle class="st1" cx="904.8" cy="85.8" r="2.5"/>
					<circle class="st1" cx="928" cy="85.8" r="2.5"/>
					<circle class="st1" cx="951.1" cy="85.8" r="2.5"/>
					<circle class="st1" cx="974.2" cy="85.8" r="2.5"/>
					<circle class="st1" cx="997.4" cy="85.8" r="2.5"/>
					<circle class="st1" cx="1020.5" cy="85.8" r="2.5"/>
				</g>
			</g>
		</g>
	</g>
</g>
</svg>
