<?xml version="1.0" encoding="utf-8"?>
<!-- Generator: Adobe Illustrator 16.0.0, SVG Export Plug-In . SVG Version: 6.00 Build 0)  -->
<!DOCTYPE svg PUBLIC "-//W3C//DTD SVG 1.1//EN" "http://www.w3.org/Graphics/SVG/1.1/DTD/svg11.dtd">
<svg version="1.1" id="Isolation_Mode" xmlns="http://www.w3.org/2000/svg" xmlns:xlink="http://www.w3.org/1999/xlink" x="0px"
	 y="0px" width="59.563px" height="29.934px" viewBox="0 0 59.563 29.934" enable-background="new 0 0 59.563 29.934"
	 xml:space="preserve">
<g>
	<path fill="#009F4B" d="M0.959,12.634l11.68-11.68c1.142-1.141,3.02-1.311,4.22-0.229c1.279,1.15,1.318,3.123,0.116,4.326
		l-5.294,5.295c-0.598,0.598-0.175,1.619,0.671,1.619h19.09c1.615,0,3.062,1.209,3.146,2.822c0.09,1.719-1.277,3.143-2.978,3.143
		H12.352c-0.846,0-1.269,1.021-0.671,1.619l5.175,5.176c1.142,1.141,1.31,3.02,0.229,4.219c-1.152,1.279-3.125,1.318-4.327,0.117
		L0.959,17.263C-0.319,15.983-0.319,13.911,0.959,12.634z"/>
	<path fill="#009F4B" d="M42.659,11.966h3.437c1.646,0,2.982,1.336,2.982,2.982s-1.336,2.982-2.982,2.982h-3.437
		c-1.646,0-2.981-1.336-2.981-2.982S41.013,11.966,42.659,11.966z"/>
	<path fill="#009F4B" d="M56.261,11.966h0.321c1.646,0,2.981,1.336,2.981,2.982s-1.335,2.982-2.981,2.982h-0.321
		c-1.647,0-2.981-1.336-2.981-2.982S54.613,11.966,56.261,11.966z"/>
</g>
</svg>
