<?xml version="1.0" encoding="utf-8"?>
<!-- Generator: Adobe Illustrator 19.2.0, SVG Export Plug-In . SVG Version: 6.00 Build 0)  -->
<svg version="1.1" id="Layer_1" xmlns="http://www.w3.org/2000/svg" xmlns:xlink="http://www.w3.org/1999/xlink" x="0px" y="0px"
	 viewBox="0 0 102.5 45" style="enable-background:new 0 0 102.5 45;" xml:space="preserve">
<style type="text/css">
	.st0{fill:#00693F;}
	.st1{fill:#F69139;}
</style>
<g>
	<g>
		<g>
			<path class="st0" d="M29.5,30.7c6.1-2.2,15.6-3.1,20.3,3c0.4,0.6,0.8,1.3,1.1,2c0,0.1,0.5,1.1,0.1,0.6
				c-5.1-6.6-15.3-3.7-21.7-2.1C22,36,14.5,36.7,6.4,36.5l2.3-3.1C16.1,33.5,22.6,33.1,29.5,30.7z"/>
			<path class="st0" d="M13.5,37.4c3.5,0,13.5-1.4,17.9-2.2c7-1.2,13.5-1.1,19.3,3.3c1.3,1,0.7,1.3-0.8,0.6
				C42.8,35.5,36.4,37,29,38.2C25.3,38.9,17,40,13.2,40c-3.3,0-6.3,0-9.1,0l1.7-2.6C8.1,37.4,10.6,37.4,13.5,37.4z"/>
			<path class="st0" d="M72.8,30.7c-6.1-2.2-15.6-3.1-20.3,3c-0.4,0.6-0.8,1.3-1.1,2c0,0.1-0.5,1.1-0.1,0.6
				c5.1-6.6,15.3-3.7,21.7-2.1c7.2,1.8,14.7,2.5,22.8,2.3l-2.3-3.1C86.2,33.5,79.7,33.1,72.8,30.7z"/>
			<path class="st0" d="M88.8,37.4c-3.5,0-13.5-1.4-17.9-2.2c-7-1.2-13.5-1.1-19.3,3.3c-1.3,1-0.7,1.3,0.8,0.6
				c7.1-3.5,13.5-2.1,20.9-0.8c3.7,0.7,12,1.7,15.8,1.7c3.3,0,6.3,0,9.1,0l-1.7-2.6C94.2,37.4,91.7,37.4,88.8,37.4z"/>
		</g>
		<g>
			<path class="st1" d="M62.2,5.9l-2.4-2.1c-1.9,3.5-3.5,5.5-4.3,9.7c1,0.2,1.6,0.3,2.7,0.5C59,10.4,59.8,9.7,62.2,5.9z"/>
			<path class="st1" d="M33.9,26.1c1.1-0.4,1.6,0.3,4.8,0.5c0-1,0-1.5,0-2.6c-2.6,0-3.4-1.3-4.7-0.9c-2.5,0.7-4,1.8-5.9-0.1
				l-0.4,2.6C29.7,27.1,31.3,27,33.9,26.1z"/>
			<path class="st1" d="M41.1,18.4l0.5-2.3c-5.7-0.6-4.2-0.6-6.6-4.9l-2.3,1C34.8,17.6,35.7,18,41.1,18.4z"/>
			<path class="st1" d="M49.1,13.5c-1.6-3.8-1.1-4.1-0.8-7.2l-2.6-0.3c-0.6,3.7-0.7,4.5,0.9,8.4L49.1,13.5z"/>
			<path class="st1" d="M63.1,19c4.7-3.2,3.7-3.3,6-6.3l-2.2-1.3c-2,2.7-1.2,3-5.2,5.5L63.1,19z"/>
			<path class="st1" d="M66.3,26.7c2.7-0.8,2.9-0.7,7.1-4.7l-1.5-1.7c-2.5,2.7-3.4,2.9-6.5,3.6L66.3,26.7z"/>
			<path class="st1" d="M44.1,25.8c0.1-3.7,2.5-7.2,7.1-7.6c4.6-0.4,9,3,8.6,7.4c-0.1,0.9-0.3,1.7-0.8,2.4c1.3-0.3,2.6-0.5,4-0.6
				c0.2-0.5,0.3-1.1,0.3-1.6c0.5-6.5-5.8-11.3-12.4-10.8c-6.6,0.5-10.1,5.6-10.3,10.9c0,0.5,0,1,0,1.5c1.3,0.1,2.5,0.3,3.7,0.7
				C44.2,27.5,44.1,26.7,44.1,25.8z"/>
		</g>
	</g>
</g>
</svg>
