<?xml version="1.0" encoding="utf-8"?>
<!-- Generator: Adobe Illustrator 16.0.0, SVG Export Plug-In . SVG Version: 6.00 Build 0)  -->
<!DOCTYPE svg PUBLIC "-//W3C//DTD SVG 1.1//EN" "http://www.w3.org/Graphics/SVG/1.1/DTD/svg11.dtd">
<svg version="1.1" id="Isolation_Mode" xmlns="http://www.w3.org/2000/svg" xmlns:xlink="http://www.w3.org/1999/xlink" x="0px"
	 y="0px" width="95.018px" height="66.391px" viewBox="0 0 95.018 66.391" enable-background="new 0 0 95.018 66.391"
	 xml:space="preserve">
<path opacity="0.1" fill="#060707" d="M-4.233,46.523C0,52.972,15.456,65.639,46.748,66.724c28.14,0.976,50.981-9.044,50.981-20.201
	c0-11.156-22.825-20.201-50.981-20.201C18.592,26.322-10.355,37.196-4.233,46.523z"/>
<g>
	<g>
		
			<linearGradient id="SVGID_1_" gradientUnits="userSpaceOnUse" x1="-267.2896" y1="732.1064" x2="327.9719" y2="501.3536" gradientTransform="matrix(-0.3619 0.0324 0.0324 0.3619 -10.6567 -200.6176)">
			<stop  offset="0" style="stop-color:#F5F5F5"/>
			<stop  offset="1" style="stop-color:#CCCCCC"/>
		</linearGradient>
		<path fill="url(#SVGID_1_)" d="M93.133,37.098L58.358,66.186c0,0-46.383-14.387-58.358-27.012L36.115,9.109
			C36.115,9.109,45.256,21.986,93.133,37.098z"/>
		<g>
			
				<linearGradient id="SVGID_2_" gradientUnits="userSpaceOnUse" x1="227.7041" y1="682.9307" x2="-148.5331" y2="661.0295" gradientTransform="matrix(-0.3619 0.0324 0.0324 0.3619 -10.6567 -200.6176)">
				<stop  offset="0" style="stop-color:#F5F5F5"/>
				<stop  offset="1" style="stop-color:#CCCCCC"/>
			</linearGradient>
			<path fill="url(#SVGID_2_)" d="M6.927,33.412L36.115,9.109c0,0,6.786,9.526,39.119,21.804c3.767,3.245,8.086,6.683,13.018,10.274
				L71.527,55.171l-18.58,9.249c-6.11-2.047-16.541-5.707-26.75-10.075C19.191,48.464,11.802,41.176,6.927,33.412z"/>
		</g>
		
			<linearGradient id="SVGID_3_" gradientUnits="userSpaceOnUse" x1="-200.8916" y1="537.0635" x2="-150.8332" y2="416.6075" gradientTransform="matrix(-0.4424 0.0398 0.0398 0.4424 -63.2481 -204.1031)">
			<stop  offset="0" style="stop-color:#F5F5F5"/>
			<stop  offset="1" style="stop-color:#CCCCCC"/>
		</linearGradient>
		<path fill="url(#SVGID_3_)" d="M46.593,66.391c0,0-34.229-24.123-40.463-46.936L51.799,0c0,0,8.099,18.986,43.219,43.289
			L46.593,66.391z"/>
		<g>
			
				<linearGradient id="SVGID_4_" gradientUnits="userSpaceOnUse" x1="6.6387" y1="809.7969" x2="-24.2407" y2="888.5423" gradientTransform="matrix(-0.2599 0.0176 0.0177 0.2494 24.9413 -188.2576)">
				<stop  offset="0" style="stop-color:#F5F5F5"/>
				<stop  offset="1" style="stop-color:#CCCCCC"/>
			</linearGradient>
			<path fill="url(#SVGID_4_)" d="M68.833,40.288L39.245,53.594c-0.175-0.153-0.36-0.315-0.538-0.473l29.536-13.292
				C68.438,39.98,68.641,40.139,68.833,40.288z"/>
			
				<linearGradient id="SVGID_5_" gradientUnits="userSpaceOnUse" x1="3.8809" y1="803.29" x2="-27.0413" y2="882.1445" gradientTransform="matrix(-0.2599 0.0176 0.0177 0.2494 27.1444 -189.7961)">
				<stop  offset="0" style="stop-color:#F5F5F5"/>
				<stop  offset="1" style="stop-color:#CCCCCC"/>
			</linearGradient>
			<path fill="url(#SVGID_5_)" d="M75.889,35.193l-38.08,17.108c-0.181-0.158-0.364-0.318-0.539-0.482l38.041-17.094
				C75.496,34.879,75.691,35.033,75.889,35.193z"/>
			
				<linearGradient id="SVGID_6_" gradientUnits="userSpaceOnUse" x1="8.3325" y1="799.7598" x2="-22.5581" y2="878.5339" gradientTransform="matrix(-0.2599 0.0176 0.0177 0.2494 26.8876 -190.238)">
				<stop  offset="0" style="stop-color:#F5F5F5"/>
				<stop  offset="1" style="stop-color:#CCCCCC"/>
			</linearGradient>
			<path fill="url(#SVGID_6_)" d="M74.333,33.936L36.365,50.998c-0.177-0.164-0.353-0.316-0.53-0.485l37.932-17.045
				C73.957,33.62,74.146,33.778,74.333,33.936z"/>
			
				<linearGradient id="SVGID_7_" gradientUnits="userSpaceOnUse" x1="12.8325" y1="795.8604" x2="-18.101" y2="874.7439" gradientTransform="matrix(-0.2599 0.0176 0.0177 0.2494 26.6346 -190.6809)">
				<stop  offset="0" style="stop-color:#F5F5F5"/>
				<stop  offset="1" style="stop-color:#CCCCCC"/>
			</linearGradient>
			<path fill="url(#SVGID_7_)" d="M72.813,32.666L34.939,49.684c-0.175-0.164-0.342-0.318-0.521-0.484l37.835-17.003
				C72.434,32.353,72.624,32.509,72.813,32.666z"/>
			
				<linearGradient id="SVGID_8_" gradientUnits="userSpaceOnUse" x1="17.0459" y1="792.4424" x2="-13.8152" y2="871.1412" gradientTransform="matrix(-0.2599 0.0176 0.0177 0.2494 26.3807 -191.1228)">
				<stop  offset="0" style="stop-color:#F5F5F5"/>
				<stop  offset="1" style="stop-color:#CCCCCC"/>
			</linearGradient>
			<path fill="url(#SVGID_8_)" d="M71.307,31.394L33.534,48.36c-0.168-0.163-0.336-0.321-0.51-0.489l37.739-16.955
				C70.939,31.07,71.123,31.231,71.307,31.394z"/>
			
				<linearGradient id="SVGID_9_" gradientUnits="userSpaceOnUse" x1="21.416" y1="788.3496" x2="-9.5193" y2="867.2377" gradientTransform="matrix(-0.2599 0.0176 0.0177 0.2494 26.1268 -191.5637)">
				<stop  offset="0" style="stop-color:#F5F5F5"/>
				<stop  offset="1" style="stop-color:#CCCCCC"/>
			</linearGradient>
			<path fill="url(#SVGID_9_)" d="M69.827,30.105L32.164,47.027c-0.178-0.162-0.339-0.326-0.511-0.493l37.636-16.909
				C69.463,29.785,69.642,29.947,69.827,30.105z"/>
			
				<linearGradient id="SVGID_10_" gradientUnits="userSpaceOnUse" x1="25.5249" y1="784.6006" x2="-5.3937" y2="863.4462" gradientTransform="matrix(-0.2599 0.0176 0.0177 0.2494 25.87 -192.0061)">
				<stop  offset="0" style="stop-color:#F5F5F5"/>
				<stop  offset="1" style="stop-color:#CCCCCC"/>
			</linearGradient>
			<path fill="url(#SVGID_10_)" d="M68.369,28.802L30.8,45.689c-0.166-0.165-0.326-0.333-0.494-0.505l37.529-16.859
				C68.014,28.481,68.196,28.642,68.369,28.802z"/>
			
				<linearGradient id="SVGID_11_" gradientUnits="userSpaceOnUse" x1="29.7007" y1="780.4805" x2="-1.2804" y2="859.4852" gradientTransform="matrix(-0.2599 0.0176 0.0177 0.2494 25.6171 -192.4485)">
				<stop  offset="0" style="stop-color:#F5F5F5"/>
				<stop  offset="1" style="stop-color:#CCCCCC"/>
			</linearGradient>
			<path fill="url(#SVGID_11_)" d="M66.935,27.494l-37.469,16.84c-0.165-0.17-0.323-0.335-0.483-0.504L66.41,27.011
				C66.591,27.171,66.759,27.333,66.935,27.494z"/>
			
				<linearGradient id="SVGID_12_" gradientUnits="userSpaceOnUse" x1="33.5332" y1="776.9854" x2="2.6398" y2="855.7666" gradientTransform="matrix(-0.2599 0.0176 0.0177 0.2494 25.3622 -192.8914)">
				<stop  offset="0" style="stop-color:#F5F5F5"/>
				<stop  offset="1" style="stop-color:#CCCCCC"/>
			</linearGradient>
			<path fill="url(#SVGID_12_)" d="M65.524,26.176L28.158,42.969c-0.155-0.172-0.322-0.335-0.481-0.502l37.337-16.779
				C65.183,25.851,65.344,26.012,65.524,26.176z"/>
			
				<linearGradient id="SVGID_13_" gradientUnits="userSpaceOnUse" x1="37.3623" y1="773.0928" x2="6.4797" y2="851.8466" gradientTransform="matrix(-0.2599 0.0176 0.0177 0.2494 25.1073 -193.3333)">
				<stop  offset="0" style="stop-color:#F5F5F5"/>
				<stop  offset="1" style="stop-color:#CCCCCC"/>
			</linearGradient>
			<path fill="url(#SVGID_13_)" d="M64.14,24.846L26.878,41.592c-0.158-0.17-0.313-0.337-0.469-0.51l37.223-16.731
				C63.801,24.515,63.976,24.684,64.14,24.846z"/>
			
				<linearGradient id="SVGID_14_" gradientUnits="userSpaceOnUse" x1="41.0664" y1="769.2334" x2="10.2051" y2="847.9327" gradientTransform="matrix(-0.2599 0.0176 0.0177 0.2494 24.8544 -193.7751)">
				<stop  offset="0" style="stop-color:#F5F5F5"/>
				<stop  offset="1" style="stop-color:#CCCCCC"/>
			</linearGradient>
			<path fill="url(#SVGID_14_)" d="M62.787,23.502L25.621,40.206c-0.154-0.174-0.305-0.348-0.455-0.521l37.128-16.68
				C62.449,23.172,62.622,23.336,62.787,23.502z"/>
			
				<linearGradient id="SVGID_15_" gradientUnits="userSpaceOnUse" x1="44.8706" y1="764.8398" x2="13.9213" y2="843.7638" gradientTransform="matrix(-0.2599 0.0176 0.0177 0.2494 24.5995 -194.2175)">
				<stop  offset="0" style="stop-color:#F5F5F5"/>
				<stop  offset="1" style="stop-color:#CCCCCC"/>
			</linearGradient>
			<path fill="url(#SVGID_15_)" d="M61.458,22.147L24.383,38.804c-0.14-0.169-0.291-0.347-0.438-0.518l37.026-16.644
				C61.128,21.811,61.286,21.983,61.458,22.147z"/>
			
				<linearGradient id="SVGID_16_" gradientUnits="userSpaceOnUse" x1="48.4385" y1="760.7568" x2="17.4834" y2="839.6954" gradientTransform="matrix(-0.2599 0.0176 0.0177 0.2494 24.3446 -194.6584)">
				<stop  offset="0" style="stop-color:#F5F5F5"/>
				<stop  offset="1" style="stop-color:#CCCCCC"/>
			</linearGradient>
			<path fill="url(#SVGID_16_)" d="M60.148,20.782l-36.957,16.61c-0.151-0.176-0.295-0.348-0.442-0.529l36.927-16.59
				C59.836,20.443,59.994,20.612,60.148,20.782z"/>
			
				<linearGradient id="SVGID_17_" gradientUnits="userSpaceOnUse" x1="51.7173" y1="756.9561" x2="20.8305" y2="835.7206" gradientTransform="matrix(-0.2599 0.0176 0.0177 0.2494 24.0897 -195.1003)">
				<stop  offset="0" style="stop-color:#F5F5F5"/>
				<stop  offset="1" style="stop-color:#CCCCCC"/>
			</linearGradient>
			<path fill="url(#SVGID_17_)" d="M58.876,19.403L22.022,35.967c-0.138-0.178-0.284-0.357-0.424-0.535l36.815-16.543
				C58.568,19.063,58.716,19.225,58.876,19.403z"/>
			
				<linearGradient id="SVGID_18_" gradientUnits="userSpaceOnUse" x1="55.0938" y1="752.5811" x2="24.1594" y2="831.4667" gradientTransform="matrix(-0.2599 0.0176 0.0177 0.2494 23.8348 -195.5432)">
				<stop  offset="0" style="stop-color:#F5F5F5"/>
				<stop  offset="1" style="stop-color:#CCCCCC"/>
			</linearGradient>
			<path fill="url(#SVGID_18_)" d="M57.629,18.007L20.883,34.521c-0.136-0.179-0.273-0.36-0.407-0.539L57.179,17.49
				C57.332,17.666,57.478,17.83,57.629,18.007z"/>
			
				<linearGradient id="SVGID_19_" gradientUnits="userSpaceOnUse" x1="58.2534" y1="748.3623" x2="27.3132" y2="827.2629" gradientTransform="matrix(-0.2599 0.0176 0.0177 0.2494 23.5809 -195.9846)">
				<stop  offset="0" style="stop-color:#F5F5F5"/>
				<stop  offset="1" style="stop-color:#CCCCCC"/>
			</linearGradient>
			<path fill="url(#SVGID_19_)" d="M56.419,16.604L19.784,33.066c-0.137-0.183-0.264-0.365-0.394-0.55l36.591-16.442
				C56.128,16.252,56.268,16.423,56.419,16.604z"/>
			
				<linearGradient id="SVGID_20_" gradientUnits="userSpaceOnUse" x1="61.2349" y1="744.2842" x2="30.3307" y2="823.093" gradientTransform="matrix(-0.2599 0.0176 0.0177 0.2494 23.328 -196.427)">
				<stop  offset="0" style="stop-color:#F5F5F5"/>
				<stop  offset="1" style="stop-color:#CCCCCC"/>
			</linearGradient>
			<path fill="url(#SVGID_20_)" d="M55.236,15.178L18.722,31.586c-0.131-0.181-0.267-0.359-0.391-0.546l36.488-16.394
				C54.951,14.823,55.089,14.996,55.236,15.178z"/>
			
				<linearGradient id="SVGID_21_" gradientUnits="userSpaceOnUse" x1="64.0732" y1="739.9629" x2="33.1732" y2="818.761" gradientTransform="matrix(-0.2599 0.0176 0.0177 0.2494 23.0712 -196.8704)">
				<stop  offset="0" style="stop-color:#F5F5F5"/>
				<stop  offset="1" style="stop-color:#CCCCCC"/>
			</linearGradient>
			<path fill="url(#SVGID_21_)" d="M54.098,13.74L17.7,30.092c-0.124-0.184-0.247-0.37-0.37-0.552L53.683,13.2
				C53.82,13.382,53.947,13.556,54.098,13.74z"/>
			
				<linearGradient id="SVGID_22_" gradientUnits="userSpaceOnUse" x1="66.8008" y1="735.5068" x2="35.8857" y2="814.3433" gradientTransform="matrix(-0.2599 0.0176 0.0177 0.2494 22.8173 -197.3118)">
				<stop  offset="0" style="stop-color:#F5F5F5"/>
				<stop  offset="1" style="stop-color:#CCCCCC"/>
			</linearGradient>
			<path fill="url(#SVGID_22_)" d="M52.988,12.286L16.72,28.582c-0.117-0.185-0.233-0.375-0.349-0.564l36.22-16.277
				C52.72,11.919,52.861,12.101,52.988,12.286z"/>
			
				<linearGradient id="SVGID_23_" gradientUnits="userSpaceOnUse" x1="69.3745" y1="730.9639" x2="38.4335" y2="809.8666" gradientTransform="matrix(-0.2599 0.0176 0.0177 0.2494 22.5653 -197.7532)">
				<stop  offset="0" style="stop-color:#F5F5F5"/>
				<stop  offset="1" style="stop-color:#CCCCCC"/>
			</linearGradient>
			<path fill="url(#SVGID_23_)" d="M15.781,27.054c-0.116-0.196-0.219-0.385-0.325-0.578l36.08-16.214
				c0.119,0.178,0.256,0.367,0.387,0.551L15.781,27.054z"/>
		</g>
	</g>
</g>
</svg>
