<?xml version="1.0" encoding="utf-8"?>
<!-- Generator: Adobe Illustrator 16.0.0, SVG Export Plug-In . SVG Version: 6.00 Build 0)  -->
<!DOCTYPE svg PUBLIC "-//W3C//DTD SVG 1.1//EN" "http://www.w3.org/Graphics/SVG/1.1/DTD/svg11.dtd">
<svg version="1.1" id="Layer_1" xmlns="http://www.w3.org/2000/svg" xmlns:xlink="http://www.w3.org/1999/xlink" x="0px" y="0px"
	 width="28.35px" height="28.35px" viewBox="0 0 28.35 28.35" enable-background="new 0 0 28.35 28.35" xml:space="preserve">
<rect x="0" y="0" fill="#F1F2F2" width="28.35" height="28.35"/>
<linearGradient id="SVGID_1_" gradientUnits="userSpaceOnUse" x1="283.2659" y1="-408.0559" x2="309.0989" y2="-379.1705" gradientTransform="matrix(1 0 0 -1 -283.4854 -377.7847)">
	<stop  offset="0" style="stop-color:#F7E52B"/>
	<stop  offset="1" style="stop-color:#F79721"/>
</linearGradient>
<rect x="1.053" y="1.191" fill="url(#SVGID_1_)" width="26.244" height="25.968"/>
<linearGradient id="SVGID_2_" gradientUnits="userSpaceOnUse" x1="283.2649" y1="-408.0549" x2="309.0978" y2="-379.17" gradientTransform="matrix(1 0 0 -1 -283.4854 -377.7847)">
	<stop  offset="0" style="stop-color:#F7E52B"/>
	<stop  offset="1" style="stop-color:#F79721"/>
</linearGradient>
<rect x="1.053" y="1.191" fill="url(#SVGID_2_)" width="26.244" height="25.968"/>
<linearGradient id="SVGID_3_" gradientUnits="userSpaceOnUse" x1="283.2649" y1="-408.0549" x2="309.0978" y2="-379.17" gradientTransform="matrix(1 0 0 -1 -283.4854 -377.7847)">
	<stop  offset="0" style="stop-color:#F7E52B"/>
	<stop  offset="1" style="stop-color:#F79721"/>
</linearGradient>
<rect x="1.053" y="1.191" fill="url(#SVGID_3_)" width="26.244" height="25.968"/>
<linearGradient id="SVGID_4_" gradientUnits="userSpaceOnUse" x1="283.2649" y1="-408.0549" x2="309.0978" y2="-379.17" gradientTransform="matrix(1 0 0 -1 -283.4854 -377.7847)">
	<stop  offset="0" style="stop-color:#F7E52B"/>
	<stop  offset="1" style="stop-color:#F79721"/>
</linearGradient>
<rect x="1.053" y="1.191" fill="url(#SVGID_4_)" width="26.244" height="25.968"/>
<linearGradient id="SVGID_5_" gradientUnits="userSpaceOnUse" x1="283.2649" y1="-408.0549" x2="309.0978" y2="-379.17" gradientTransform="matrix(1 0 0 -1 -283.4854 -377.7847)">
	<stop  offset="0" style="stop-color:#F7E52B"/>
	<stop  offset="1" style="stop-color:#F79721"/>
</linearGradient>
<rect x="1.053" y="1.191" fill="url(#SVGID_5_)" width="26.244" height="25.968"/>
<linearGradient id="SVGID_6_" gradientUnits="userSpaceOnUse" x1="283.2649" y1="-408.0549" x2="309.0978" y2="-379.17" gradientTransform="matrix(1 0 0 -1 -283.4854 -377.7847)">
	<stop  offset="0" style="stop-color:#F7E52B"/>
	<stop  offset="1" style="stop-color:#F79721"/>
</linearGradient>
<rect x="1.053" y="1.191" fill="url(#SVGID_6_)" width="26.244" height="25.968"/>
<linearGradient id="SVGID_7_" gradientUnits="userSpaceOnUse" x1="283.2649" y1="-408.0549" x2="309.0978" y2="-379.17" gradientTransform="matrix(1 0 0 -1 -283.4854 -377.7847)">
	<stop  offset="0" style="stop-color:#F7E52B"/>
	<stop  offset="1" style="stop-color:#F79721"/>
</linearGradient>
<rect x="1.053" y="1.191" fill="url(#SVGID_7_)" width="26.244" height="25.968"/>
<linearGradient id="SVGID_8_" gradientUnits="userSpaceOnUse" x1="283.2649" y1="-408.0549" x2="309.0978" y2="-379.17" gradientTransform="matrix(1 0 0 -1 -283.4854 -377.7847)">
	<stop  offset="0" style="stop-color:#F7E52B"/>
	<stop  offset="1" style="stop-color:#F79721"/>
</linearGradient>
<rect x="1.053" y="1.191" fill="url(#SVGID_8_)" width="26.244" height="25.968"/>
<linearGradient id="SVGID_9_" gradientUnits="userSpaceOnUse" x1="283.2649" y1="-408.0549" x2="309.0978" y2="-379.17" gradientTransform="matrix(1 0 0 -1 -283.4854 -377.7847)">
	<stop  offset="0" style="stop-color:#F7E52B"/>
	<stop  offset="1" style="stop-color:#F79721"/>
</linearGradient>
<rect x="1.053" y="1.191" fill="url(#SVGID_9_)" width="26.244" height="25.968"/>
<linearGradient id="SVGID_10_" gradientUnits="userSpaceOnUse" x1="283.2649" y1="-408.0549" x2="309.0978" y2="-379.17" gradientTransform="matrix(1 0 0 -1 -283.4854 -377.7847)">
	<stop  offset="0" style="stop-color:#F7E52B"/>
	<stop  offset="1" style="stop-color:#F79721"/>
</linearGradient>
<rect x="1.053" y="1.191" fill="url(#SVGID_10_)" width="26.244" height="25.968"/>
<linearGradient id="SVGID_11_" gradientUnits="userSpaceOnUse" x1="283.2649" y1="-408.0549" x2="309.0978" y2="-379.17" gradientTransform="matrix(1 0 0 -1 -283.4854 -377.7847)">
	<stop  offset="0" style="stop-color:#F7E52B"/>
	<stop  offset="1" style="stop-color:#F79721"/>
</linearGradient>
<rect x="1.053" y="1.191" fill="url(#SVGID_11_)" width="26.244" height="25.968"/>
<linearGradient id="SVGID_12_" gradientUnits="userSpaceOnUse" x1="283.2649" y1="-408.0549" x2="309.0978" y2="-379.17" gradientTransform="matrix(1 0 0 -1 -283.4854 -377.7847)">
	<stop  offset="0" style="stop-color:#F7E52B"/>
	<stop  offset="1" style="stop-color:#F79721"/>
</linearGradient>
<rect x="1.053" y="1.191" fill="url(#SVGID_12_)" width="26.244" height="25.968"/>
<linearGradient id="SVGID_13_" gradientUnits="userSpaceOnUse" x1="283.2649" y1="-408.0549" x2="309.0978" y2="-379.17" gradientTransform="matrix(1 0 0 -1 -283.4854 -377.7847)">
	<stop  offset="0" style="stop-color:#F7E52B"/>
	<stop  offset="1" style="stop-color:#F79721"/>
</linearGradient>
<rect x="1.053" y="1.191" fill="url(#SVGID_13_)" width="26.244" height="25.968"/>
<linearGradient id="SVGID_14_" gradientUnits="userSpaceOnUse" x1="283.2649" y1="-408.0549" x2="309.0978" y2="-379.17" gradientTransform="matrix(1 0 0 -1 -283.4854 -377.7847)">
	<stop  offset="0" style="stop-color:#F7E52B"/>
	<stop  offset="1" style="stop-color:#F79721"/>
</linearGradient>
<rect x="1.053" y="1.191" fill="url(#SVGID_14_)" width="26.244" height="25.968"/>
<linearGradient id="SVGID_15_" gradientUnits="userSpaceOnUse" x1="283.2649" y1="-408.0549" x2="309.0978" y2="-379.17" gradientTransform="matrix(1 0 0 -1 -283.4854 -377.7847)">
	<stop  offset="0" style="stop-color:#F7E52B"/>
	<stop  offset="1" style="stop-color:#F79721"/>
</linearGradient>
<rect x="1.053" y="1.191" fill="url(#SVGID_15_)" width="26.244" height="25.968"/>
<linearGradient id="SVGID_16_" gradientUnits="userSpaceOnUse" x1="283.2649" y1="-408.0549" x2="309.0978" y2="-379.17" gradientTransform="matrix(1 0 0 -1 -283.4854 -377.7847)">
	<stop  offset="0" style="stop-color:#F7E52B"/>
	<stop  offset="1" style="stop-color:#F79721"/>
</linearGradient>
<rect x="1.053" y="1.191" fill="url(#SVGID_16_)" width="26.244" height="25.968"/>
<linearGradient id="SVGID_17_" gradientUnits="userSpaceOnUse" x1="283.2649" y1="-408.0549" x2="309.0978" y2="-379.17" gradientTransform="matrix(1 0 0 -1 -283.4854 -377.7847)">
	<stop  offset="0" style="stop-color:#F7E52B"/>
	<stop  offset="1" style="stop-color:#F79721"/>
</linearGradient>
<rect x="1.053" y="1.191" fill="url(#SVGID_17_)" width="26.244" height="25.968"/>
<linearGradient id="SVGID_18_" gradientUnits="userSpaceOnUse" x1="283.2649" y1="-408.0549" x2="309.0978" y2="-379.17" gradientTransform="matrix(1 0 0 -1 -283.4854 -377.7847)">
	<stop  offset="0" style="stop-color:#F7E52B"/>
	<stop  offset="1" style="stop-color:#F79721"/>
</linearGradient>
<rect x="1.053" y="1.191" fill="url(#SVGID_18_)" width="26.244" height="25.968"/>
<linearGradient id="SVGID_19_" gradientUnits="userSpaceOnUse" x1="283.2649" y1="-408.0549" x2="309.0978" y2="-379.17" gradientTransform="matrix(1 0 0 -1 -283.4854 -377.7847)">
	<stop  offset="0" style="stop-color:#F7E52B"/>
	<stop  offset="1" style="stop-color:#F79721"/>
</linearGradient>
<rect x="1.053" y="1.191" fill="url(#SVGID_19_)" width="26.244" height="25.968"/>
<linearGradient id="SVGID_20_" gradientUnits="userSpaceOnUse" x1="283.2649" y1="-408.0549" x2="309.0978" y2="-379.17" gradientTransform="matrix(1 0 0 -1 -283.4854 -377.7847)">
	<stop  offset="0" style="stop-color:#F7E52B"/>
	<stop  offset="1" style="stop-color:#F79721"/>
</linearGradient>
<rect x="1.053" y="1.191" fill="url(#SVGID_20_)" width="26.244" height="25.968"/>
<linearGradient id="SVGID_21_" gradientUnits="userSpaceOnUse" x1="283.2649" y1="-408.0549" x2="309.0978" y2="-379.17" gradientTransform="matrix(1 0 0 -1 -283.4854 -377.7847)">
	<stop  offset="0" style="stop-color:#F7E52B"/>
	<stop  offset="1" style="stop-color:#F79721"/>
</linearGradient>
<rect x="1.053" y="1.191" fill="url(#SVGID_21_)" width="26.244" height="25.968"/>
<linearGradient id="SVGID_22_" gradientUnits="userSpaceOnUse" x1="283.2649" y1="-408.0549" x2="309.0978" y2="-379.17" gradientTransform="matrix(1 0 0 -1 -283.4854 -377.7847)">
	<stop  offset="0" style="stop-color:#F7E52B"/>
	<stop  offset="1" style="stop-color:#F79721"/>
</linearGradient>
<rect x="1.053" y="1.191" fill="url(#SVGID_22_)" width="26.244" height="25.968"/>
<linearGradient id="SVGID_23_" gradientUnits="userSpaceOnUse" x1="283.2649" y1="-408.0549" x2="309.0978" y2="-379.17" gradientTransform="matrix(1 0 0 -1 -283.4854 -377.7847)">
	<stop  offset="0" style="stop-color:#F7E52B"/>
	<stop  offset="1" style="stop-color:#F79721"/>
</linearGradient>
<rect x="1.053" y="1.191" fill="url(#SVGID_23_)" width="26.244" height="25.968"/>
<linearGradient id="SVGID_24_" gradientUnits="userSpaceOnUse" x1="283.2649" y1="-408.0549" x2="309.0978" y2="-379.17" gradientTransform="matrix(1 0 0 -1 -283.4854 -377.7847)">
	<stop  offset="0" style="stop-color:#F7E52B"/>
	<stop  offset="1" style="stop-color:#F79721"/>
</linearGradient>
<rect x="1.053" y="1.191" fill="url(#SVGID_24_)" width="26.244" height="25.968"/>
<linearGradient id="SVGID_25_" gradientUnits="userSpaceOnUse" x1="283.2649" y1="-408.0549" x2="309.0978" y2="-379.17" gradientTransform="matrix(1 0 0 -1 -283.4854 -377.7847)">
	<stop  offset="0" style="stop-color:#F7E52B"/>
	<stop  offset="1" style="stop-color:#F79721"/>
</linearGradient>
<rect x="1.053" y="1.191" fill="url(#SVGID_25_)" width="26.244" height="25.968"/>
<linearGradient id="SVGID_26_" gradientUnits="userSpaceOnUse" x1="284.5383" y1="-391.9597" x2="310.7825" y2="-391.9597" gradientTransform="matrix(1 0 0 -1 -283.4854 -377.7847)">
	<stop  offset="0" style="stop-color:#9FDAE1"/>
	<stop  offset="1" style="stop-color:#14B3D9"/>
</linearGradient>
<rect x="1.053" y="1.191" fill="url(#SVGID_26_)" width="26.244" height="25.969"/>
<g id="Layer_2">
</g>
<g>
	<path fill="#231F20" d="M11.648,18.848H5.393c-0.99,0-1.71-0.115-2.16-0.345c-0.75-0.37-1.125-1.096-1.125-2.176
		c0-0.829,0.33-1.76,0.99-2.789l0.449,0.284c-0.38,0.711-0.569,1.245-0.569,1.605c0,0.6,0.319,1,0.96,1.2
		c0.359,0.119,0.899,0.18,1.62,0.18h5.385c-0.16-0.43-0.271-0.697-0.33-0.803c-0.06-0.104-0.235-0.353-0.525-0.742l0.66-1.74
		c0.37,0.55,0.595,0.955,0.675,1.215c0.15,0.44,0.226,1.105,0.226,1.995V18.848z M8.768,20.468l-0.885,1.709l-1.771-0.944
		l0.915-1.694L8.768,20.468z"/>
	<path fill="#231F20" d="M15.622,18.848h-4.319v-2.04h3.585c-0.141-0.53-0.41-1.05-0.811-1.56l0.601-1.756
		c0.63,0.711,0.944,1.716,0.944,3.015V18.848z M15.532,10.943l-0.93,1.681l-1.726-0.915l0.9-1.681L15.532,10.943z"/>
	<path fill="#231F20" d="M22.792,18.667c0,0.791-0.405,1.575-1.216,2.355c-0.729,0.71-1.354,1.064-1.875,1.064
		c-0.479,0-1.084-0.199-1.814-0.6c-0.279-0.16-0.84-0.52-1.68-1.08l0.3-0.465c0.909,0.51,1.565,0.766,1.965,0.766
		c0.66,0,1.46-0.426,2.4-1.275c0.89-0.801,1.335-1.41,1.335-1.83c0-0.32-0.301-0.891-0.9-1.71l0.436-2.04
		c0.699,0.891,1.05,1.82,1.05,2.79V18.667z"/>
	<path fill="#231F20" d="M26.242,7.657c-0.07,0.271-0.118,0.421-0.143,0.45c-0.025,0.03-0.148,0.08-0.368,0.15l-2.055,0.645
		c0.149-0.27,0.245-0.422,0.284-0.457c0.041-0.035,0.211-0.128,0.511-0.277c-0.33-0.25-0.495-0.465-0.495-0.646
		c0-0.2,0.168-0.475,0.502-0.825c0.336-0.35,0.663-0.524,0.982-0.524c0.261,0,0.391,0.12,0.391,0.359c0,0.141-0.064,0.36-0.195,0.66
		c-0.33-0.18-0.535-0.27-0.615-0.27c-0.399,0-0.6,0.085-0.6,0.255c0,0.08,0.16,0.205,0.48,0.375c0.289,0.15,0.459,0.225,0.51,0.225
		C25.701,7.778,25.972,7.739,26.242,7.657z"/>
	<path fill="#231F20" d="M26.152,16.837c0,0.57-0.27,1.396-0.81,2.476l-0.436-0.195c0.12-0.6,0.18-1.05,0.18-1.35
		c0-1.04-0.14-2.492-0.42-4.357c-0.279-1.865-0.42-2.723-0.42-2.572c0-0.28,0.285-0.97,0.855-2.07
		C25.801,12.588,26.152,15.278,26.152,16.837z"/>
</g>
</svg>
