<?xml version="1.0" encoding="utf-8"?>
<!-- Generator: Adobe Illustrator 16.0.0, SVG Export Plug-In . SVG Version: 6.00 Build 0)  -->
<!DOCTYPE svg PUBLIC "-//W3C//DTD SVG 1.1//EN" "http://www.w3.org/Graphics/SVG/1.1/DTD/svg11.dtd">
<svg version="1.1" id="Layer_1" xmlns="http://www.w3.org/2000/svg" xmlns:xlink="http://www.w3.org/1999/xlink" x="0px" y="0px"
	 width="28.35px" height="28.35px" viewBox="0 0 28.35 28.35" enable-background="new 0 0 28.35 28.35" xml:space="preserve">
<rect x="0" y="0" fill="#F1F2F2" width="28.35" height="28.35"/>
<linearGradient id="SVGID_1_" gradientUnits="userSpaceOnUse" x1="566.7512" y1="843.1917" x2="592.5849" y2="814.3055" gradientTransform="matrix(1 0 0 1 -566.9707 -812.9199)">
	<stop  offset="0" style="stop-color:#F7E52B"/>
	<stop  offset="1" style="stop-color:#F79721"/>
</linearGradient>
<rect x="1.053" y="1.191" fill="url(#SVGID_1_)" width="26.244" height="25.969"/>
<linearGradient id="SVGID_2_" gradientUnits="userSpaceOnUse" x1="566.7512" y1="843.1917" x2="592.5848" y2="814.306" gradientTransform="matrix(1 0 0 1 -566.9707 -812.9199)">
	<stop  offset="0" style="stop-color:#F7E52B"/>
	<stop  offset="1" style="stop-color:#F79721"/>
</linearGradient>
<rect x="1.053" y="1.191" fill="url(#SVGID_2_)" width="26.244" height="25.969"/>
<linearGradient id="SVGID_3_" gradientUnits="userSpaceOnUse" x1="566.7512" y1="843.1917" x2="592.5848" y2="814.306" gradientTransform="matrix(1 0 0 1 -566.9707 -812.9199)">
	<stop  offset="0" style="stop-color:#F7E52B"/>
	<stop  offset="1" style="stop-color:#F79721"/>
</linearGradient>
<rect x="1.053" y="1.191" fill="url(#SVGID_3_)" width="26.244" height="25.969"/>
<linearGradient id="SVGID_4_" gradientUnits="userSpaceOnUse" x1="566.7512" y1="843.1917" x2="592.5848" y2="814.306" gradientTransform="matrix(1 0 0 1 -566.9707 -812.9199)">
	<stop  offset="0" style="stop-color:#F7E52B"/>
	<stop  offset="1" style="stop-color:#F79721"/>
</linearGradient>
<rect x="1.053" y="1.191" fill="url(#SVGID_4_)" width="26.244" height="25.969"/>
<linearGradient id="SVGID_5_" gradientUnits="userSpaceOnUse" x1="566.7512" y1="843.1917" x2="592.5848" y2="814.306" gradientTransform="matrix(1 0 0 1 -566.9707 -812.9199)">
	<stop  offset="0" style="stop-color:#F7E52B"/>
	<stop  offset="1" style="stop-color:#F79721"/>
</linearGradient>
<rect x="1.053" y="1.191" fill="url(#SVGID_5_)" width="26.244" height="25.969"/>
<linearGradient id="SVGID_6_" gradientUnits="userSpaceOnUse" x1="566.7512" y1="843.1917" x2="592.5848" y2="814.306" gradientTransform="matrix(1 0 0 1 -566.9707 -812.9199)">
	<stop  offset="0" style="stop-color:#F7E52B"/>
	<stop  offset="1" style="stop-color:#F79721"/>
</linearGradient>
<rect x="1.053" y="1.191" fill="url(#SVGID_6_)" width="26.244" height="25.969"/>
<linearGradient id="SVGID_7_" gradientUnits="userSpaceOnUse" x1="566.7512" y1="843.1917" x2="592.5848" y2="814.306" gradientTransform="matrix(1 0 0 1 -566.9707 -812.9199)">
	<stop  offset="0" style="stop-color:#F7E52B"/>
	<stop  offset="1" style="stop-color:#F79721"/>
</linearGradient>
<rect x="1.053" y="1.191" fill="url(#SVGID_7_)" width="26.244" height="25.969"/>
<linearGradient id="SVGID_8_" gradientUnits="userSpaceOnUse" x1="566.7512" y1="843.1917" x2="592.5848" y2="814.306" gradientTransform="matrix(1 0 0 1 -566.9707 -812.9199)">
	<stop  offset="0" style="stop-color:#F7E52B"/>
	<stop  offset="1" style="stop-color:#F79721"/>
</linearGradient>
<rect x="1.053" y="1.191" fill="url(#SVGID_8_)" width="26.244" height="25.969"/>
<linearGradient id="SVGID_9_" gradientUnits="userSpaceOnUse" x1="566.7512" y1="843.1917" x2="592.5848" y2="814.306" gradientTransform="matrix(1 0 0 1 -566.9707 -812.9199)">
	<stop  offset="0" style="stop-color:#F7E52B"/>
	<stop  offset="1" style="stop-color:#F79721"/>
</linearGradient>
<rect x="1.053" y="1.191" fill="url(#SVGID_9_)" width="26.244" height="25.969"/>
<linearGradient id="SVGID_10_" gradientUnits="userSpaceOnUse" x1="566.7512" y1="843.1917" x2="592.5848" y2="814.306" gradientTransform="matrix(1 0 0 1 -566.9707 -812.9199)">
	<stop  offset="0" style="stop-color:#F7E52B"/>
	<stop  offset="1" style="stop-color:#F79721"/>
</linearGradient>
<rect x="1.053" y="1.191" fill="url(#SVGID_10_)" width="26.244" height="25.969"/>
<linearGradient id="SVGID_11_" gradientUnits="userSpaceOnUse" x1="566.7512" y1="843.1917" x2="592.5848" y2="814.306" gradientTransform="matrix(1 0 0 1 -566.9707 -812.9199)">
	<stop  offset="0" style="stop-color:#F7E52B"/>
	<stop  offset="1" style="stop-color:#F79721"/>
</linearGradient>
<rect x="1.053" y="1.191" fill="url(#SVGID_11_)" width="26.244" height="25.969"/>
<linearGradient id="SVGID_12_" gradientUnits="userSpaceOnUse" x1="566.7512" y1="843.1917" x2="592.5848" y2="814.306" gradientTransform="matrix(1 0 0 1 -566.9707 -812.9199)">
	<stop  offset="0" style="stop-color:#F7E52B"/>
	<stop  offset="1" style="stop-color:#F79721"/>
</linearGradient>
<rect x="1.053" y="1.191" fill="url(#SVGID_12_)" width="26.244" height="25.969"/>
<linearGradient id="SVGID_13_" gradientUnits="userSpaceOnUse" x1="566.7512" y1="843.1917" x2="592.5848" y2="814.306" gradientTransform="matrix(1 0 0 1 -566.9707 -812.9199)">
	<stop  offset="0" style="stop-color:#F7E52B"/>
	<stop  offset="1" style="stop-color:#F79721"/>
</linearGradient>
<rect x="1.053" y="1.191" fill="url(#SVGID_13_)" width="26.244" height="25.969"/>
<linearGradient id="SVGID_14_" gradientUnits="userSpaceOnUse" x1="566.7512" y1="843.1917" x2="592.5848" y2="814.306" gradientTransform="matrix(1 0 0 1 -566.9707 -812.9199)">
	<stop  offset="0" style="stop-color:#F7E52B"/>
	<stop  offset="1" style="stop-color:#F79721"/>
</linearGradient>
<rect x="1.053" y="1.191" fill="url(#SVGID_14_)" width="26.244" height="25.969"/>
<linearGradient id="SVGID_15_" gradientUnits="userSpaceOnUse" x1="566.7512" y1="843.1917" x2="592.5848" y2="814.306" gradientTransform="matrix(1 0 0 1 -566.9707 -812.9199)">
	<stop  offset="0" style="stop-color:#F7E52B"/>
	<stop  offset="1" style="stop-color:#F79721"/>
</linearGradient>
<rect x="1.053" y="1.191" fill="url(#SVGID_15_)" width="26.244" height="25.969"/>
<linearGradient id="SVGID_16_" gradientUnits="userSpaceOnUse" x1="566.7512" y1="843.1917" x2="592.5848" y2="814.306" gradientTransform="matrix(1 0 0 1 -566.9707 -812.9199)">
	<stop  offset="0" style="stop-color:#F7E52B"/>
	<stop  offset="1" style="stop-color:#F79721"/>
</linearGradient>
<rect x="1.053" y="1.191" fill="url(#SVGID_16_)" width="26.244" height="25.969"/>
<linearGradient id="SVGID_17_" gradientUnits="userSpaceOnUse" x1="566.7512" y1="843.1917" x2="592.5848" y2="814.306" gradientTransform="matrix(1 0 0 1 -566.9707 -812.9199)">
	<stop  offset="0" style="stop-color:#F7E52B"/>
	<stop  offset="1" style="stop-color:#F79721"/>
</linearGradient>
<rect x="1.053" y="1.191" fill="url(#SVGID_17_)" width="26.244" height="25.969"/>
<linearGradient id="SVGID_18_" gradientUnits="userSpaceOnUse" x1="566.7512" y1="843.1917" x2="592.5848" y2="814.306" gradientTransform="matrix(1 0 0 1 -566.9707 -812.9199)">
	<stop  offset="0" style="stop-color:#F7E52B"/>
	<stop  offset="1" style="stop-color:#F79721"/>
</linearGradient>
<rect x="1.053" y="1.191" fill="url(#SVGID_18_)" width="26.244" height="25.969"/>
<linearGradient id="SVGID_19_" gradientUnits="userSpaceOnUse" x1="566.7512" y1="843.1917" x2="592.5848" y2="814.306" gradientTransform="matrix(1 0 0 1 -566.9707 -812.9199)">
	<stop  offset="0" style="stop-color:#F7E52B"/>
	<stop  offset="1" style="stop-color:#F79721"/>
</linearGradient>
<rect x="1.053" y="1.191" fill="url(#SVGID_19_)" width="26.244" height="25.969"/>
<linearGradient id="SVGID_20_" gradientUnits="userSpaceOnUse" x1="566.7512" y1="843.1917" x2="592.5848" y2="814.306" gradientTransform="matrix(1 0 0 1 -566.9707 -812.9199)">
	<stop  offset="0" style="stop-color:#F7E52B"/>
	<stop  offset="1" style="stop-color:#F79721"/>
</linearGradient>
<rect x="1.053" y="1.191" fill="url(#SVGID_20_)" width="26.244" height="25.969"/>
<linearGradient id="SVGID_21_" gradientUnits="userSpaceOnUse" x1="566.7512" y1="843.1917" x2="592.5848" y2="814.306" gradientTransform="matrix(1 0 0 1 -566.9707 -812.9199)">
	<stop  offset="0" style="stop-color:#F7E52B"/>
	<stop  offset="1" style="stop-color:#F79721"/>
</linearGradient>
<rect x="1.053" y="1.191" fill="url(#SVGID_21_)" width="26.244" height="25.969"/>
<linearGradient id="SVGID_22_" gradientUnits="userSpaceOnUse" x1="566.7512" y1="843.1917" x2="592.5848" y2="814.306" gradientTransform="matrix(1 0 0 1 -566.9707 -812.9199)">
	<stop  offset="0" style="stop-color:#F7E52B"/>
	<stop  offset="1" style="stop-color:#F79721"/>
</linearGradient>
<rect x="1.053" y="1.191" fill="url(#SVGID_22_)" width="26.244" height="25.969"/>
<linearGradient id="SVGID_23_" gradientUnits="userSpaceOnUse" x1="566.7512" y1="843.1917" x2="592.5848" y2="814.306" gradientTransform="matrix(1 0 0 1 -566.9707 -812.9199)">
	<stop  offset="0" style="stop-color:#F7E52B"/>
	<stop  offset="1" style="stop-color:#F79721"/>
</linearGradient>
<rect x="1.053" y="1.191" fill="url(#SVGID_23_)" width="26.244" height="25.969"/>
<linearGradient id="SVGID_24_" gradientUnits="userSpaceOnUse" x1="566.7512" y1="843.1917" x2="592.5848" y2="814.306" gradientTransform="matrix(1 0 0 1 -566.9707 -812.9199)">
	<stop  offset="0" style="stop-color:#F7E52B"/>
	<stop  offset="1" style="stop-color:#F79721"/>
</linearGradient>
<rect x="1.053" y="1.191" fill="url(#SVGID_24_)" width="26.244" height="25.969"/>
<linearGradient id="SVGID_25_" gradientUnits="userSpaceOnUse" x1="566.7512" y1="843.1917" x2="592.5848" y2="814.306" gradientTransform="matrix(1 0 0 1 -566.9707 -812.9199)">
	<stop  offset="0" style="stop-color:#F7E52B"/>
	<stop  offset="1" style="stop-color:#F79721"/>
</linearGradient>
<rect x="1.053" y="1.191" fill="url(#SVGID_25_)" width="26.244" height="25.969"/>
<linearGradient id="SVGID_26_" gradientUnits="userSpaceOnUse" x1="568.0237" y1="827.095" x2="594.2678" y2="827.095" gradientTransform="matrix(1 0 0 1 -566.9707 -812.9199)">
	<stop  offset="0" style="stop-color:#9FDAE1"/>
	<stop  offset="1" style="stop-color:#14B3D9"/>
</linearGradient>
<rect x="1.053" y="1.191" fill="url(#SVGID_26_)" width="26.244" height="25.97"/>
<g id="Layer_2">
</g>
<g enable-background="new    ">
	<path fill="#231F20" d="M14.888,17.4H8.633c-0.99,0-1.71-0.115-2.16-0.346c-0.75-0.369-1.125-1.094-1.125-2.174
		c0-0.831,0.33-1.76,0.99-2.791l0.45,0.285c-0.38,0.71-0.57,1.245-0.57,1.605c0,0.6,0.32,1,0.96,1.199
		c0.36,0.121,0.9,0.182,1.62,0.182h5.385c-0.16-0.43-0.27-0.698-0.33-0.803c-0.06-0.104-0.235-0.353-0.525-0.742l0.66-1.74
		c0.37,0.55,0.595,0.955,0.675,1.215c0.149,0.44,0.226,1.105,0.226,1.995V17.4z M12.008,19.021l-0.885,1.709l-1.77-0.945
		l0.915-1.695L12.008,19.021z"/>
	<path fill="#231F20" d="M19.042,17.4h-0.494c-0.65,0-1.131-0.875-1.441-2.625c-0.059-0.31-0.174-1.41-0.344-3.299
		c-0.061-0.62-0.16-1.085-0.301-1.396c-0.029-0.069-0.145-0.25-0.344-0.54l0.779-1.92c0.359,0.62,0.59,1.185,0.689,1.695
		c0.07,0.359,0.121,1.115,0.15,2.265l0.061,1.98c0.02,0.689,0.068,1.121,0.148,1.291c0.15,0.34,0.516,0.51,1.096,0.51V17.4z"/>
	<path fill="#231F20" d="M23.003,17.4h-4.307v-2.039h3.586c-0.189-0.51-0.305-0.8-0.346-0.871c-0.07-0.14-0.234-0.37-0.494-0.69
		l0.615-1.77c0.359,0.47,0.6,0.885,0.719,1.245c0.15,0.479,0.227,1.2,0.227,2.16V17.4z M22.267,18.99l-0.9,1.68l-1.754-0.93
		l0.9-1.725L22.267,18.99z"/>
</g>
</svg>
