<?xml version="1.0" encoding="utf-8"?>
<!-- Generator: Adobe Illustrator 16.0.0, SVG Export Plug-In . SVG Version: 6.00 Build 0)  -->
<!DOCTYPE svg PUBLIC "-//W3C//DTD SVG 1.1//EN" "http://www.w3.org/Graphics/SVG/1.1/DTD/svg11.dtd">
<svg version="1.1" id="Layer_1" xmlns="http://www.w3.org/2000/svg" xmlns:xlink="http://www.w3.org/1999/xlink" x="0px" y="0px"
	 width="28.35px" height="28.35px" viewBox="0 0 28.35 28.35" enable-background="new 0 0 28.35 28.35" xml:space="preserve">
<rect x="0" y="0" fill="#F1F2F2" width="28.35" height="28.35"/>
<linearGradient id="SVGID_1_" gradientUnits="userSpaceOnUse" x1="283.2659" y1="-408.0559" x2="309.0989" y2="-379.1705" gradientTransform="matrix(1 0 0 -1 -283.4854 -377.7847)">
	<stop  offset="0" style="stop-color:#F7E52B"/>
	<stop  offset="1" style="stop-color:#F79721"/>
</linearGradient>
<rect x="1.053" y="1.191" fill="url(#SVGID_1_)" width="26.244" height="25.968"/>
<linearGradient id="SVGID_2_" gradientUnits="userSpaceOnUse" x1="283.2649" y1="-408.0549" x2="309.0978" y2="-379.17" gradientTransform="matrix(1 0 0 -1 -283.4854 -377.7847)">
	<stop  offset="0" style="stop-color:#F7E52B"/>
	<stop  offset="1" style="stop-color:#F79721"/>
</linearGradient>
<rect x="1.053" y="1.191" fill="url(#SVGID_2_)" width="26.244" height="25.968"/>
<linearGradient id="SVGID_3_" gradientUnits="userSpaceOnUse" x1="283.2649" y1="-408.0549" x2="309.0978" y2="-379.17" gradientTransform="matrix(1 0 0 -1 -283.4854 -377.7847)">
	<stop  offset="0" style="stop-color:#F7E52B"/>
	<stop  offset="1" style="stop-color:#F79721"/>
</linearGradient>
<rect x="1.053" y="1.191" fill="url(#SVGID_3_)" width="26.244" height="25.968"/>
<linearGradient id="SVGID_4_" gradientUnits="userSpaceOnUse" x1="283.2649" y1="-408.0549" x2="309.0978" y2="-379.17" gradientTransform="matrix(1 0 0 -1 -283.4854 -377.7847)">
	<stop  offset="0" style="stop-color:#F7E52B"/>
	<stop  offset="1" style="stop-color:#F79721"/>
</linearGradient>
<rect x="1.053" y="1.191" fill="url(#SVGID_4_)" width="26.244" height="25.968"/>
<linearGradient id="SVGID_5_" gradientUnits="userSpaceOnUse" x1="283.2649" y1="-408.0549" x2="309.0978" y2="-379.17" gradientTransform="matrix(1 0 0 -1 -283.4854 -377.7847)">
	<stop  offset="0" style="stop-color:#F7E52B"/>
	<stop  offset="1" style="stop-color:#F79721"/>
</linearGradient>
<rect x="1.053" y="1.191" fill="url(#SVGID_5_)" width="26.244" height="25.968"/>
<linearGradient id="SVGID_6_" gradientUnits="userSpaceOnUse" x1="283.2649" y1="-408.0549" x2="309.0978" y2="-379.17" gradientTransform="matrix(1 0 0 -1 -283.4854 -377.7847)">
	<stop  offset="0" style="stop-color:#F7E52B"/>
	<stop  offset="1" style="stop-color:#F79721"/>
</linearGradient>
<rect x="1.053" y="1.191" fill="url(#SVGID_6_)" width="26.244" height="25.968"/>
<linearGradient id="SVGID_7_" gradientUnits="userSpaceOnUse" x1="283.2649" y1="-408.0549" x2="309.0978" y2="-379.17" gradientTransform="matrix(1 0 0 -1 -283.4854 -377.7847)">
	<stop  offset="0" style="stop-color:#F7E52B"/>
	<stop  offset="1" style="stop-color:#F79721"/>
</linearGradient>
<rect x="1.053" y="1.191" fill="url(#SVGID_7_)" width="26.244" height="25.968"/>
<linearGradient id="SVGID_8_" gradientUnits="userSpaceOnUse" x1="283.2649" y1="-408.0549" x2="309.0978" y2="-379.17" gradientTransform="matrix(1 0 0 -1 -283.4854 -377.7847)">
	<stop  offset="0" style="stop-color:#F7E52B"/>
	<stop  offset="1" style="stop-color:#F79721"/>
</linearGradient>
<rect x="1.053" y="1.191" fill="url(#SVGID_8_)" width="26.244" height="25.968"/>
<linearGradient id="SVGID_9_" gradientUnits="userSpaceOnUse" x1="283.2649" y1="-408.0549" x2="309.0978" y2="-379.17" gradientTransform="matrix(1 0 0 -1 -283.4854 -377.7847)">
	<stop  offset="0" style="stop-color:#F7E52B"/>
	<stop  offset="1" style="stop-color:#F79721"/>
</linearGradient>
<rect x="1.053" y="1.191" fill="url(#SVGID_9_)" width="26.244" height="25.968"/>
<linearGradient id="SVGID_10_" gradientUnits="userSpaceOnUse" x1="283.2649" y1="-408.0549" x2="309.0978" y2="-379.17" gradientTransform="matrix(1 0 0 -1 -283.4854 -377.7847)">
	<stop  offset="0" style="stop-color:#F7E52B"/>
	<stop  offset="1" style="stop-color:#F79721"/>
</linearGradient>
<rect x="1.053" y="1.191" fill="url(#SVGID_10_)" width="26.244" height="25.968"/>
<linearGradient id="SVGID_11_" gradientUnits="userSpaceOnUse" x1="283.2649" y1="-408.0549" x2="309.0978" y2="-379.17" gradientTransform="matrix(1 0 0 -1 -283.4854 -377.7847)">
	<stop  offset="0" style="stop-color:#F7E52B"/>
	<stop  offset="1" style="stop-color:#F79721"/>
</linearGradient>
<rect x="1.053" y="1.191" fill="url(#SVGID_11_)" width="26.244" height="25.968"/>
<linearGradient id="SVGID_12_" gradientUnits="userSpaceOnUse" x1="283.2649" y1="-408.0549" x2="309.0978" y2="-379.17" gradientTransform="matrix(1 0 0 -1 -283.4854 -377.7847)">
	<stop  offset="0" style="stop-color:#F7E52B"/>
	<stop  offset="1" style="stop-color:#F79721"/>
</linearGradient>
<rect x="1.053" y="1.191" fill="url(#SVGID_12_)" width="26.244" height="25.968"/>
<linearGradient id="SVGID_13_" gradientUnits="userSpaceOnUse" x1="283.2649" y1="-408.0549" x2="309.0978" y2="-379.17" gradientTransform="matrix(1 0 0 -1 -283.4854 -377.7847)">
	<stop  offset="0" style="stop-color:#F7E52B"/>
	<stop  offset="1" style="stop-color:#F79721"/>
</linearGradient>
<rect x="1.053" y="1.191" fill="url(#SVGID_13_)" width="26.244" height="25.968"/>
<linearGradient id="SVGID_14_" gradientUnits="userSpaceOnUse" x1="283.2649" y1="-408.0549" x2="309.0978" y2="-379.17" gradientTransform="matrix(1 0 0 -1 -283.4854 -377.7847)">
	<stop  offset="0" style="stop-color:#F7E52B"/>
	<stop  offset="1" style="stop-color:#F79721"/>
</linearGradient>
<rect x="1.053" y="1.191" fill="url(#SVGID_14_)" width="26.244" height="25.968"/>
<linearGradient id="SVGID_15_" gradientUnits="userSpaceOnUse" x1="283.2649" y1="-408.0549" x2="309.0978" y2="-379.17" gradientTransform="matrix(1 0 0 -1 -283.4854 -377.7847)">
	<stop  offset="0" style="stop-color:#F7E52B"/>
	<stop  offset="1" style="stop-color:#F79721"/>
</linearGradient>
<rect x="1.053" y="1.191" fill="url(#SVGID_15_)" width="26.244" height="25.968"/>
<linearGradient id="SVGID_16_" gradientUnits="userSpaceOnUse" x1="283.2649" y1="-408.0549" x2="309.0978" y2="-379.17" gradientTransform="matrix(1 0 0 -1 -283.4854 -377.7847)">
	<stop  offset="0" style="stop-color:#F7E52B"/>
	<stop  offset="1" style="stop-color:#F79721"/>
</linearGradient>
<rect x="1.053" y="1.191" fill="url(#SVGID_16_)" width="26.244" height="25.968"/>
<linearGradient id="SVGID_17_" gradientUnits="userSpaceOnUse" x1="283.2649" y1="-408.0549" x2="309.0978" y2="-379.17" gradientTransform="matrix(1 0 0 -1 -283.4854 -377.7847)">
	<stop  offset="0" style="stop-color:#F7E52B"/>
	<stop  offset="1" style="stop-color:#F79721"/>
</linearGradient>
<rect x="1.053" y="1.191" fill="url(#SVGID_17_)" width="26.244" height="25.968"/>
<linearGradient id="SVGID_18_" gradientUnits="userSpaceOnUse" x1="283.2649" y1="-408.0549" x2="309.0978" y2="-379.17" gradientTransform="matrix(1 0 0 -1 -283.4854 -377.7847)">
	<stop  offset="0" style="stop-color:#F7E52B"/>
	<stop  offset="1" style="stop-color:#F79721"/>
</linearGradient>
<rect x="1.053" y="1.191" fill="url(#SVGID_18_)" width="26.244" height="25.968"/>
<linearGradient id="SVGID_19_" gradientUnits="userSpaceOnUse" x1="283.2649" y1="-408.0549" x2="309.0978" y2="-379.17" gradientTransform="matrix(1 0 0 -1 -283.4854 -377.7847)">
	<stop  offset="0" style="stop-color:#F7E52B"/>
	<stop  offset="1" style="stop-color:#F79721"/>
</linearGradient>
<rect x="1.053" y="1.191" fill="url(#SVGID_19_)" width="26.244" height="25.968"/>
<linearGradient id="SVGID_20_" gradientUnits="userSpaceOnUse" x1="283.2649" y1="-408.0549" x2="309.0978" y2="-379.17" gradientTransform="matrix(1 0 0 -1 -283.4854 -377.7847)">
	<stop  offset="0" style="stop-color:#F7E52B"/>
	<stop  offset="1" style="stop-color:#F79721"/>
</linearGradient>
<rect x="1.053" y="1.191" fill="url(#SVGID_20_)" width="26.244" height="25.968"/>
<linearGradient id="SVGID_21_" gradientUnits="userSpaceOnUse" x1="283.2649" y1="-408.0549" x2="309.0978" y2="-379.17" gradientTransform="matrix(1 0 0 -1 -283.4854 -377.7847)">
	<stop  offset="0" style="stop-color:#F7E52B"/>
	<stop  offset="1" style="stop-color:#F79721"/>
</linearGradient>
<rect x="1.053" y="1.191" fill="url(#SVGID_21_)" width="26.244" height="25.968"/>
<linearGradient id="SVGID_22_" gradientUnits="userSpaceOnUse" x1="283.2649" y1="-408.0549" x2="309.0978" y2="-379.17" gradientTransform="matrix(1 0 0 -1 -283.4854 -377.7847)">
	<stop  offset="0" style="stop-color:#F7E52B"/>
	<stop  offset="1" style="stop-color:#F79721"/>
</linearGradient>
<rect x="1.053" y="1.191" fill="url(#SVGID_22_)" width="26.244" height="25.968"/>
<linearGradient id="SVGID_23_" gradientUnits="userSpaceOnUse" x1="283.2649" y1="-408.0549" x2="309.0978" y2="-379.17" gradientTransform="matrix(1 0 0 -1 -283.4854 -377.7847)">
	<stop  offset="0" style="stop-color:#F7E52B"/>
	<stop  offset="1" style="stop-color:#F79721"/>
</linearGradient>
<rect x="1.053" y="1.191" fill="url(#SVGID_23_)" width="26.244" height="25.968"/>
<linearGradient id="SVGID_24_" gradientUnits="userSpaceOnUse" x1="283.2649" y1="-408.0549" x2="309.0978" y2="-379.17" gradientTransform="matrix(1 0 0 -1 -283.4854 -377.7847)">
	<stop  offset="0" style="stop-color:#F7E52B"/>
	<stop  offset="1" style="stop-color:#F79721"/>
</linearGradient>
<rect x="1.053" y="1.191" fill="url(#SVGID_24_)" width="26.244" height="25.968"/>
<linearGradient id="SVGID_25_" gradientUnits="userSpaceOnUse" x1="283.2649" y1="-408.0549" x2="309.0978" y2="-379.17" gradientTransform="matrix(1 0 0 -1 -283.4854 -377.7847)">
	<stop  offset="0" style="stop-color:#F7E52B"/>
	<stop  offset="1" style="stop-color:#F79721"/>
</linearGradient>
<rect x="1.053" y="1.191" fill="url(#SVGID_25_)" width="26.244" height="25.968"/>
<linearGradient id="SVGID_26_" gradientUnits="userSpaceOnUse" x1="284.5383" y1="-391.9597" x2="310.7825" y2="-391.9597" gradientTransform="matrix(1 0 0 -1 -283.4854 -377.7847)">
	<stop  offset="0" style="stop-color:#9FDAE1"/>
	<stop  offset="1" style="stop-color:#14B3D9"/>
</linearGradient>
<rect x="1.053" y="1.191" fill="url(#SVGID_26_)" width="26.244" height="25.969"/>
<g id="Layer_2">
</g>
<g>
	<path fill="#231F20" d="M14.715,20.34l-2.896,1.8C10,22.09,8.74,21.805,8.04,21.285c-0.96-0.7-1.44-2.046-1.44-4.035
		c0-1.51,0.85-2.955,2.55-4.335C8.49,12.975,8.04,13.04,7.8,13.11c-0.15,0.05-0.605,0.24-1.365,0.57
		c0.141-0.77,0.335-1.345,0.585-1.725c0.45-0.7,1.155-1.05,2.115-1.05c0.26,0,0.865,0.041,1.815,0.12
		c0.999,0.08,1.675,0.125,2.024,0.135h0.931l-0.48,1.845c-3.93,0.56-5.895,1.891-5.895,3.99c0,1.16,0.504,1.99,1.515,2.49
		c0.859,0.42,2.17,0.63,3.93,0.63c-0.01,0,0.525-0.03,1.605-0.091L14.715,20.34z M12.345,16.351L11.43,18.06l-1.77-0.959l0.93-1.711
		L12.345,16.351z"/>
	<path fill="#231F20" d="M17.955,15.99H17.46c-0.65,0-1.131-0.875-1.439-2.625c-0.061-0.31-0.176-1.41-0.346-3.3
		c-0.061-0.62-0.16-1.085-0.3-1.395c-0.03-0.07-0.146-0.25-0.346-0.54l0.78-1.92c0.36,0.62,0.59,1.185,0.69,1.695
		c0.069,0.36,0.12,1.115,0.149,2.265l0.061,1.98c0.02,0.69,0.07,1.12,0.15,1.29c0.149,0.34,0.515,0.51,1.095,0.51V15.99z"/>
	<path fill="#231F20" d="M21.915,15.99h-4.305v-2.04h3.6c-0.141-0.43-0.245-0.705-0.315-0.825c-0.05-0.09-0.229-0.34-0.54-0.75
		l0.631-1.785c0.399,0.61,0.645,1.085,0.734,1.425c0.13,0.44,0.195,1.185,0.195,2.235V15.99z M21.825,7.95l-0.84,1.545l-1.065-0.6
		l-0.601,1.17l-1.41-0.75l0.795-1.47L19.8,8.4l0.645-1.2L21.825,7.95z"/>
</g>
</svg>
