<?xml version="1.0" encoding="utf-8"?>
<!-- Generator: Adobe Illustrator 16.0.0, SVG Export Plug-In . SVG Version: 6.00 Build 0)  -->
<!DOCTYPE svg PUBLIC "-//W3C//DTD SVG 1.1//EN" "http://www.w3.org/Graphics/SVG/1.1/DTD/svg11.dtd">
<svg version="1.1" id="Layer_1" xmlns="http://www.w3.org/2000/svg" xmlns:xlink="http://www.w3.org/1999/xlink" x="0px" y="0px"
	 width="28.35px" height="28.35px" viewBox="0 0 28.35 28.35" enable-background="new 0 0 28.35 28.35" xml:space="preserve">
<rect x="0" y="0" fill="#F1F2F2" width="28.35" height="28.35"/>
<linearGradient id="SVGID_1_" gradientUnits="userSpaceOnUse" x1="283.2659" y1="-408.0559" x2="309.0989" y2="-379.1705" gradientTransform="matrix(1 0 0 -1 -283.4854 -377.7847)">
	<stop  offset="0" style="stop-color:#F7E52B"/>
	<stop  offset="1" style="stop-color:#F79721"/>
</linearGradient>
<rect x="1.053" y="1.191" fill="url(#SVGID_1_)" width="26.244" height="25.968"/>
<linearGradient id="SVGID_2_" gradientUnits="userSpaceOnUse" x1="283.2649" y1="-408.0549" x2="309.0978" y2="-379.17" gradientTransform="matrix(1 0 0 -1 -283.4854 -377.7847)">
	<stop  offset="0" style="stop-color:#F7E52B"/>
	<stop  offset="1" style="stop-color:#F79721"/>
</linearGradient>
<rect x="1.053" y="1.191" fill="url(#SVGID_2_)" width="26.244" height="25.968"/>
<linearGradient id="SVGID_3_" gradientUnits="userSpaceOnUse" x1="283.2649" y1="-408.0549" x2="309.0978" y2="-379.17" gradientTransform="matrix(1 0 0 -1 -283.4854 -377.7847)">
	<stop  offset="0" style="stop-color:#F7E52B"/>
	<stop  offset="1" style="stop-color:#F79721"/>
</linearGradient>
<rect x="1.053" y="1.191" fill="url(#SVGID_3_)" width="26.244" height="25.968"/>
<linearGradient id="SVGID_4_" gradientUnits="userSpaceOnUse" x1="283.2649" y1="-408.0549" x2="309.0978" y2="-379.17" gradientTransform="matrix(1 0 0 -1 -283.4854 -377.7847)">
	<stop  offset="0" style="stop-color:#F7E52B"/>
	<stop  offset="1" style="stop-color:#F79721"/>
</linearGradient>
<rect x="1.053" y="1.191" fill="url(#SVGID_4_)" width="26.244" height="25.968"/>
<linearGradient id="SVGID_5_" gradientUnits="userSpaceOnUse" x1="283.2649" y1="-408.0549" x2="309.0978" y2="-379.17" gradientTransform="matrix(1 0 0 -1 -283.4854 -377.7847)">
	<stop  offset="0" style="stop-color:#F7E52B"/>
	<stop  offset="1" style="stop-color:#F79721"/>
</linearGradient>
<rect x="1.053" y="1.191" fill="url(#SVGID_5_)" width="26.244" height="25.968"/>
<linearGradient id="SVGID_6_" gradientUnits="userSpaceOnUse" x1="283.2649" y1="-408.0549" x2="309.0978" y2="-379.17" gradientTransform="matrix(1 0 0 -1 -283.4854 -377.7847)">
	<stop  offset="0" style="stop-color:#F7E52B"/>
	<stop  offset="1" style="stop-color:#F79721"/>
</linearGradient>
<rect x="1.053" y="1.191" fill="url(#SVGID_6_)" width="26.244" height="25.968"/>
<linearGradient id="SVGID_7_" gradientUnits="userSpaceOnUse" x1="283.2649" y1="-408.0549" x2="309.0978" y2="-379.17" gradientTransform="matrix(1 0 0 -1 -283.4854 -377.7847)">
	<stop  offset="0" style="stop-color:#F7E52B"/>
	<stop  offset="1" style="stop-color:#F79721"/>
</linearGradient>
<rect x="1.053" y="1.191" fill="url(#SVGID_7_)" width="26.244" height="25.968"/>
<linearGradient id="SVGID_8_" gradientUnits="userSpaceOnUse" x1="283.2649" y1="-408.0549" x2="309.0978" y2="-379.17" gradientTransform="matrix(1 0 0 -1 -283.4854 -377.7847)">
	<stop  offset="0" style="stop-color:#F7E52B"/>
	<stop  offset="1" style="stop-color:#F79721"/>
</linearGradient>
<rect x="1.053" y="1.191" fill="url(#SVGID_8_)" width="26.244" height="25.968"/>
<linearGradient id="SVGID_9_" gradientUnits="userSpaceOnUse" x1="283.2649" y1="-408.0549" x2="309.0978" y2="-379.17" gradientTransform="matrix(1 0 0 -1 -283.4854 -377.7847)">
	<stop  offset="0" style="stop-color:#F7E52B"/>
	<stop  offset="1" style="stop-color:#F79721"/>
</linearGradient>
<rect x="1.053" y="1.191" fill="url(#SVGID_9_)" width="26.244" height="25.968"/>
<linearGradient id="SVGID_10_" gradientUnits="userSpaceOnUse" x1="283.2649" y1="-408.0549" x2="309.0978" y2="-379.17" gradientTransform="matrix(1 0 0 -1 -283.4854 -377.7847)">
	<stop  offset="0" style="stop-color:#F7E52B"/>
	<stop  offset="1" style="stop-color:#F79721"/>
</linearGradient>
<rect x="1.053" y="1.191" fill="url(#SVGID_10_)" width="26.244" height="25.968"/>
<linearGradient id="SVGID_11_" gradientUnits="userSpaceOnUse" x1="283.2649" y1="-408.0549" x2="309.0978" y2="-379.17" gradientTransform="matrix(1 0 0 -1 -283.4854 -377.7847)">
	<stop  offset="0" style="stop-color:#F7E52B"/>
	<stop  offset="1" style="stop-color:#F79721"/>
</linearGradient>
<rect x="1.053" y="1.191" fill="url(#SVGID_11_)" width="26.244" height="25.968"/>
<linearGradient id="SVGID_12_" gradientUnits="userSpaceOnUse" x1="283.2649" y1="-408.0549" x2="309.0978" y2="-379.17" gradientTransform="matrix(1 0 0 -1 -283.4854 -377.7847)">
	<stop  offset="0" style="stop-color:#F7E52B"/>
	<stop  offset="1" style="stop-color:#F79721"/>
</linearGradient>
<rect x="1.053" y="1.191" fill="url(#SVGID_12_)" width="26.244" height="25.968"/>
<linearGradient id="SVGID_13_" gradientUnits="userSpaceOnUse" x1="283.2649" y1="-408.0549" x2="309.0978" y2="-379.17" gradientTransform="matrix(1 0 0 -1 -283.4854 -377.7847)">
	<stop  offset="0" style="stop-color:#F7E52B"/>
	<stop  offset="1" style="stop-color:#F79721"/>
</linearGradient>
<rect x="1.053" y="1.191" fill="url(#SVGID_13_)" width="26.244" height="25.968"/>
<linearGradient id="SVGID_14_" gradientUnits="userSpaceOnUse" x1="283.2649" y1="-408.0549" x2="309.0978" y2="-379.17" gradientTransform="matrix(1 0 0 -1 -283.4854 -377.7847)">
	<stop  offset="0" style="stop-color:#F7E52B"/>
	<stop  offset="1" style="stop-color:#F79721"/>
</linearGradient>
<rect x="1.053" y="1.191" fill="url(#SVGID_14_)" width="26.244" height="25.968"/>
<linearGradient id="SVGID_15_" gradientUnits="userSpaceOnUse" x1="283.2649" y1="-408.0549" x2="309.0978" y2="-379.17" gradientTransform="matrix(1 0 0 -1 -283.4854 -377.7847)">
	<stop  offset="0" style="stop-color:#F7E52B"/>
	<stop  offset="1" style="stop-color:#F79721"/>
</linearGradient>
<rect x="1.053" y="1.191" fill="url(#SVGID_15_)" width="26.244" height="25.968"/>
<linearGradient id="SVGID_16_" gradientUnits="userSpaceOnUse" x1="283.2649" y1="-408.0549" x2="309.0978" y2="-379.17" gradientTransform="matrix(1 0 0 -1 -283.4854 -377.7847)">
	<stop  offset="0" style="stop-color:#F7E52B"/>
	<stop  offset="1" style="stop-color:#F79721"/>
</linearGradient>
<rect x="1.053" y="1.191" fill="url(#SVGID_16_)" width="26.244" height="25.968"/>
<linearGradient id="SVGID_17_" gradientUnits="userSpaceOnUse" x1="283.2649" y1="-408.0549" x2="309.0978" y2="-379.17" gradientTransform="matrix(1 0 0 -1 -283.4854 -377.7847)">
	<stop  offset="0" style="stop-color:#F7E52B"/>
	<stop  offset="1" style="stop-color:#F79721"/>
</linearGradient>
<rect x="1.053" y="1.191" fill="url(#SVGID_17_)" width="26.244" height="25.968"/>
<linearGradient id="SVGID_18_" gradientUnits="userSpaceOnUse" x1="283.2649" y1="-408.0549" x2="309.0978" y2="-379.17" gradientTransform="matrix(1 0 0 -1 -283.4854 -377.7847)">
	<stop  offset="0" style="stop-color:#F7E52B"/>
	<stop  offset="1" style="stop-color:#F79721"/>
</linearGradient>
<rect x="1.053" y="1.191" fill="url(#SVGID_18_)" width="26.244" height="25.968"/>
<linearGradient id="SVGID_19_" gradientUnits="userSpaceOnUse" x1="283.2649" y1="-408.0549" x2="309.0978" y2="-379.17" gradientTransform="matrix(1 0 0 -1 -283.4854 -377.7847)">
	<stop  offset="0" style="stop-color:#F7E52B"/>
	<stop  offset="1" style="stop-color:#F79721"/>
</linearGradient>
<rect x="1.053" y="1.191" fill="url(#SVGID_19_)" width="26.244" height="25.968"/>
<linearGradient id="SVGID_20_" gradientUnits="userSpaceOnUse" x1="283.2649" y1="-408.0549" x2="309.0978" y2="-379.17" gradientTransform="matrix(1 0 0 -1 -283.4854 -377.7847)">
	<stop  offset="0" style="stop-color:#F7E52B"/>
	<stop  offset="1" style="stop-color:#F79721"/>
</linearGradient>
<rect x="1.053" y="1.191" fill="url(#SVGID_20_)" width="26.244" height="25.968"/>
<linearGradient id="SVGID_21_" gradientUnits="userSpaceOnUse" x1="283.2649" y1="-408.0549" x2="309.0978" y2="-379.17" gradientTransform="matrix(1 0 0 -1 -283.4854 -377.7847)">
	<stop  offset="0" style="stop-color:#F7E52B"/>
	<stop  offset="1" style="stop-color:#F79721"/>
</linearGradient>
<rect x="1.053" y="1.191" fill="url(#SVGID_21_)" width="26.244" height="25.968"/>
<linearGradient id="SVGID_22_" gradientUnits="userSpaceOnUse" x1="283.2649" y1="-408.0549" x2="309.0978" y2="-379.17" gradientTransform="matrix(1 0 0 -1 -283.4854 -377.7847)">
	<stop  offset="0" style="stop-color:#F7E52B"/>
	<stop  offset="1" style="stop-color:#F79721"/>
</linearGradient>
<rect x="1.053" y="1.191" fill="url(#SVGID_22_)" width="26.244" height="25.968"/>
<linearGradient id="SVGID_23_" gradientUnits="userSpaceOnUse" x1="283.2649" y1="-408.0549" x2="309.0978" y2="-379.17" gradientTransform="matrix(1 0 0 -1 -283.4854 -377.7847)">
	<stop  offset="0" style="stop-color:#F7E52B"/>
	<stop  offset="1" style="stop-color:#F79721"/>
</linearGradient>
<rect x="1.053" y="1.191" fill="url(#SVGID_23_)" width="26.244" height="25.968"/>
<linearGradient id="SVGID_24_" gradientUnits="userSpaceOnUse" x1="283.2649" y1="-408.0549" x2="309.0978" y2="-379.17" gradientTransform="matrix(1 0 0 -1 -283.4854 -377.7847)">
	<stop  offset="0" style="stop-color:#F7E52B"/>
	<stop  offset="1" style="stop-color:#F79721"/>
</linearGradient>
<rect x="1.053" y="1.191" fill="url(#SVGID_24_)" width="26.244" height="25.968"/>
<linearGradient id="SVGID_25_" gradientUnits="userSpaceOnUse" x1="283.2649" y1="-408.0549" x2="309.0978" y2="-379.17" gradientTransform="matrix(1 0 0 -1 -283.4854 -377.7847)">
	<stop  offset="0" style="stop-color:#F7E52B"/>
	<stop  offset="1" style="stop-color:#F79721"/>
</linearGradient>
<rect x="1.053" y="1.191" fill="url(#SVGID_25_)" width="26.244" height="25.968"/>
<linearGradient id="SVGID_26_" gradientUnits="userSpaceOnUse" x1="284.5383" y1="-391.9597" x2="310.7825" y2="-391.9597" gradientTransform="matrix(1 0 0 -1 -283.4854 -377.7847)">
	<stop  offset="0" style="stop-color:#9FDAE1"/>
	<stop  offset="1" style="stop-color:#14B3D9"/>
</linearGradient>
<rect x="1.053" y="1.191" fill="url(#SVGID_26_)" width="26.244" height="25.969"/>
<g id="Layer_2">
</g>
<g>
	<path fill="#231F20" d="M12.353,19.02H6.008c-1.08,0-1.865-0.175-2.355-0.525c-0.56-0.39-0.84-1.065-0.84-2.024
		c0-0.561,0.115-1.101,0.345-1.62c0.1-0.24,0.315-0.625,0.645-1.155l0.42,0.285c-0.36,0.76-0.54,1.29-0.54,1.59
		c0,0.53,0.225,0.905,0.675,1.125c0.38,0.189,0.99,0.285,1.83,0.285h5.445c-0.13-0.43-0.22-0.695-0.27-0.795
		c-0.05-0.1-0.235-0.36-0.555-0.78l0.645-1.74c0.36,0.551,0.595,0.996,0.705,1.336c0.13,0.46,0.195,1.145,0.195,2.054V19.02z
		 M9.968,11.985l-0.84,1.545l-1.215-0.66l-0.645,1.2l-1.53-0.854l0.78-1.5l1.26,0.645l0.66-1.215L9.968,11.985z M8.363,10.14
		l-0.825,1.515l-1.515-0.84L6.802,9.3L8.363,10.14z"/>
	<path fill="#231F20" d="M21.608,19.02c-0.181,0-0.285,0-0.315,0c-0.539-0.06-0.91-0.354-1.109-0.886
		c-0.061-0.159-0.165-0.725-0.315-1.694c-0.521,1.21-1.02,2.015-1.5,2.415c-0.81,0.689-2.1,1.035-3.87,1.035
		c-0.1,0-0.25-0.006-0.45-0.016c-0.2,0-0.345,0-0.435,0v-0.479c2.09-0.81,3.484-1.479,4.186-2.011c1.1-0.84,1.649-1.955,1.649-3.345
		c0-0.39-0.11-1.204-0.33-2.444c0-0.29,0.295-0.98,0.886-2.07c0.14,0.73,0.39,2.99,0.75,6.779c0.09,0.32,0.229,0.525,0.42,0.615
		c0.08,0.041,0.225,0.061,0.435,0.061V19.02z M18.788,15.255c0,0.27-0.101,0.604-0.301,1.004c-0.279-0.609-0.55-1.08-0.811-1.409
		c-0.369-0.48-0.845-0.895-1.424-1.245c-0.03,0.41-0.125,0.615-0.285,0.615c-0.381,0-0.801-0.245-1.26-0.735
		c-0.611-0.64-0.916-1.46-0.916-2.46c0-0.25,0.05-0.375,0.15-0.375c0.88,0,1.925,0.58,3.135,1.74
		C18.218,13.49,18.788,14.445,18.788,15.255z"/>
	<path fill="#231F20" d="M25.537,19.02h-4.319v-2.04h3.569c-0.12-0.45-0.21-0.735-0.271-0.855c-0.05-0.08-0.22-0.314-0.51-0.705
		l0.615-1.739c0.4,0.57,0.645,1.025,0.735,1.365c0.12,0.439,0.18,1.225,0.18,2.354V19.02z M25.462,10.994l-0.795,1.53l-1.08-0.585
		l-0.615,1.17l-1.395-0.734l0.78-1.485l1.11,0.54l0.6-1.2L25.462,10.994z M24.023,9.18l-0.766,1.56l-1.425-0.75l0.78-1.529
		L24.023,9.18z"/>
</g>
</svg>
