<?xml version="1.0" encoding="utf-8"?>
<!-- Generator: Adobe Illustrator 16.0.0, SVG Export Plug-In . SVG Version: 6.00 Build 0)  -->
<!DOCTYPE svg PUBLIC "-//W3C//DTD SVG 1.1//EN" "http://www.w3.org/Graphics/SVG/1.1/DTD/svg11.dtd">
<svg version="1.1" id="Layer_1" xmlns="http://www.w3.org/2000/svg" xmlns:xlink="http://www.w3.org/1999/xlink" x="0px" y="0px"
	 width="28.35px" height="28.35px" viewBox="0 0 28.35 28.35" enable-background="new 0 0 28.35 28.35" xml:space="preserve">
<rect x="0" y="0" fill="#F1F2F2" width="28.35" height="28.35"/>
<linearGradient id="SVGID_1_" gradientUnits="userSpaceOnUse" x1="283.2659" y1="-408.0559" x2="309.0989" y2="-379.1705" gradientTransform="matrix(1 0 0 -1 -283.4854 -377.7847)">
	<stop  offset="0" style="stop-color:#F7E52B"/>
	<stop  offset="1" style="stop-color:#F79721"/>
</linearGradient>
<rect x="1.053" y="1.191" fill="url(#SVGID_1_)" width="26.244" height="25.968"/>
<linearGradient id="SVGID_2_" gradientUnits="userSpaceOnUse" x1="283.2649" y1="-408.0549" x2="309.0978" y2="-379.17" gradientTransform="matrix(1 0 0 -1 -283.4854 -377.7847)">
	<stop  offset="0" style="stop-color:#F7E52B"/>
	<stop  offset="1" style="stop-color:#F79721"/>
</linearGradient>
<rect x="1.053" y="1.191" fill="url(#SVGID_2_)" width="26.244" height="25.968"/>
<linearGradient id="SVGID_3_" gradientUnits="userSpaceOnUse" x1="283.2649" y1="-408.0549" x2="309.0978" y2="-379.17" gradientTransform="matrix(1 0 0 -1 -283.4854 -377.7847)">
	<stop  offset="0" style="stop-color:#F7E52B"/>
	<stop  offset="1" style="stop-color:#F79721"/>
</linearGradient>
<rect x="1.053" y="1.191" fill="url(#SVGID_3_)" width="26.244" height="25.968"/>
<linearGradient id="SVGID_4_" gradientUnits="userSpaceOnUse" x1="283.2649" y1="-408.0549" x2="309.0978" y2="-379.17" gradientTransform="matrix(1 0 0 -1 -283.4854 -377.7847)">
	<stop  offset="0" style="stop-color:#F7E52B"/>
	<stop  offset="1" style="stop-color:#F79721"/>
</linearGradient>
<rect x="1.053" y="1.191" fill="url(#SVGID_4_)" width="26.244" height="25.968"/>
<linearGradient id="SVGID_5_" gradientUnits="userSpaceOnUse" x1="283.2649" y1="-408.0549" x2="309.0978" y2="-379.17" gradientTransform="matrix(1 0 0 -1 -283.4854 -377.7847)">
	<stop  offset="0" style="stop-color:#F7E52B"/>
	<stop  offset="1" style="stop-color:#F79721"/>
</linearGradient>
<rect x="1.053" y="1.191" fill="url(#SVGID_5_)" width="26.244" height="25.968"/>
<linearGradient id="SVGID_6_" gradientUnits="userSpaceOnUse" x1="283.2649" y1="-408.0549" x2="309.0978" y2="-379.17" gradientTransform="matrix(1 0 0 -1 -283.4854 -377.7847)">
	<stop  offset="0" style="stop-color:#F7E52B"/>
	<stop  offset="1" style="stop-color:#F79721"/>
</linearGradient>
<rect x="1.053" y="1.191" fill="url(#SVGID_6_)" width="26.244" height="25.968"/>
<linearGradient id="SVGID_7_" gradientUnits="userSpaceOnUse" x1="283.2649" y1="-408.0549" x2="309.0978" y2="-379.17" gradientTransform="matrix(1 0 0 -1 -283.4854 -377.7847)">
	<stop  offset="0" style="stop-color:#F7E52B"/>
	<stop  offset="1" style="stop-color:#F79721"/>
</linearGradient>
<rect x="1.053" y="1.191" fill="url(#SVGID_7_)" width="26.244" height="25.968"/>
<linearGradient id="SVGID_8_" gradientUnits="userSpaceOnUse" x1="283.2649" y1="-408.0549" x2="309.0978" y2="-379.17" gradientTransform="matrix(1 0 0 -1 -283.4854 -377.7847)">
	<stop  offset="0" style="stop-color:#F7E52B"/>
	<stop  offset="1" style="stop-color:#F79721"/>
</linearGradient>
<rect x="1.053" y="1.191" fill="url(#SVGID_8_)" width="26.244" height="25.968"/>
<linearGradient id="SVGID_9_" gradientUnits="userSpaceOnUse" x1="283.2649" y1="-408.0549" x2="309.0978" y2="-379.17" gradientTransform="matrix(1 0 0 -1 -283.4854 -377.7847)">
	<stop  offset="0" style="stop-color:#F7E52B"/>
	<stop  offset="1" style="stop-color:#F79721"/>
</linearGradient>
<rect x="1.053" y="1.191" fill="url(#SVGID_9_)" width="26.244" height="25.968"/>
<linearGradient id="SVGID_10_" gradientUnits="userSpaceOnUse" x1="283.2649" y1="-408.0549" x2="309.0978" y2="-379.17" gradientTransform="matrix(1 0 0 -1 -283.4854 -377.7847)">
	<stop  offset="0" style="stop-color:#F7E52B"/>
	<stop  offset="1" style="stop-color:#F79721"/>
</linearGradient>
<rect x="1.053" y="1.191" fill="url(#SVGID_10_)" width="26.244" height="25.968"/>
<linearGradient id="SVGID_11_" gradientUnits="userSpaceOnUse" x1="283.2649" y1="-408.0549" x2="309.0978" y2="-379.17" gradientTransform="matrix(1 0 0 -1 -283.4854 -377.7847)">
	<stop  offset="0" style="stop-color:#F7E52B"/>
	<stop  offset="1" style="stop-color:#F79721"/>
</linearGradient>
<rect x="1.053" y="1.191" fill="url(#SVGID_11_)" width="26.244" height="25.968"/>
<linearGradient id="SVGID_12_" gradientUnits="userSpaceOnUse" x1="283.2649" y1="-408.0549" x2="309.0978" y2="-379.17" gradientTransform="matrix(1 0 0 -1 -283.4854 -377.7847)">
	<stop  offset="0" style="stop-color:#F7E52B"/>
	<stop  offset="1" style="stop-color:#F79721"/>
</linearGradient>
<rect x="1.053" y="1.191" fill="url(#SVGID_12_)" width="26.244" height="25.968"/>
<linearGradient id="SVGID_13_" gradientUnits="userSpaceOnUse" x1="283.2649" y1="-408.0549" x2="309.0978" y2="-379.17" gradientTransform="matrix(1 0 0 -1 -283.4854 -377.7847)">
	<stop  offset="0" style="stop-color:#F7E52B"/>
	<stop  offset="1" style="stop-color:#F79721"/>
</linearGradient>
<rect x="1.053" y="1.191" fill="url(#SVGID_13_)" width="26.244" height="25.968"/>
<linearGradient id="SVGID_14_" gradientUnits="userSpaceOnUse" x1="283.2649" y1="-408.0549" x2="309.0978" y2="-379.17" gradientTransform="matrix(1 0 0 -1 -283.4854 -377.7847)">
	<stop  offset="0" style="stop-color:#F7E52B"/>
	<stop  offset="1" style="stop-color:#F79721"/>
</linearGradient>
<rect x="1.053" y="1.191" fill="url(#SVGID_14_)" width="26.244" height="25.968"/>
<linearGradient id="SVGID_15_" gradientUnits="userSpaceOnUse" x1="283.2649" y1="-408.0549" x2="309.0978" y2="-379.17" gradientTransform="matrix(1 0 0 -1 -283.4854 -377.7847)">
	<stop  offset="0" style="stop-color:#F7E52B"/>
	<stop  offset="1" style="stop-color:#F79721"/>
</linearGradient>
<rect x="1.053" y="1.191" fill="url(#SVGID_15_)" width="26.244" height="25.968"/>
<linearGradient id="SVGID_16_" gradientUnits="userSpaceOnUse" x1="283.2649" y1="-408.0549" x2="309.0978" y2="-379.17" gradientTransform="matrix(1 0 0 -1 -283.4854 -377.7847)">
	<stop  offset="0" style="stop-color:#F7E52B"/>
	<stop  offset="1" style="stop-color:#F79721"/>
</linearGradient>
<rect x="1.053" y="1.191" fill="url(#SVGID_16_)" width="26.244" height="25.968"/>
<linearGradient id="SVGID_17_" gradientUnits="userSpaceOnUse" x1="283.2649" y1="-408.0549" x2="309.0978" y2="-379.17" gradientTransform="matrix(1 0 0 -1 -283.4854 -377.7847)">
	<stop  offset="0" style="stop-color:#F7E52B"/>
	<stop  offset="1" style="stop-color:#F79721"/>
</linearGradient>
<rect x="1.053" y="1.191" fill="url(#SVGID_17_)" width="26.244" height="25.968"/>
<linearGradient id="SVGID_18_" gradientUnits="userSpaceOnUse" x1="283.2649" y1="-408.0549" x2="309.0978" y2="-379.17" gradientTransform="matrix(1 0 0 -1 -283.4854 -377.7847)">
	<stop  offset="0" style="stop-color:#F7E52B"/>
	<stop  offset="1" style="stop-color:#F79721"/>
</linearGradient>
<rect x="1.053" y="1.191" fill="url(#SVGID_18_)" width="26.244" height="25.968"/>
<linearGradient id="SVGID_19_" gradientUnits="userSpaceOnUse" x1="283.2649" y1="-408.0549" x2="309.0978" y2="-379.17" gradientTransform="matrix(1 0 0 -1 -283.4854 -377.7847)">
	<stop  offset="0" style="stop-color:#F7E52B"/>
	<stop  offset="1" style="stop-color:#F79721"/>
</linearGradient>
<rect x="1.053" y="1.191" fill="url(#SVGID_19_)" width="26.244" height="25.968"/>
<linearGradient id="SVGID_20_" gradientUnits="userSpaceOnUse" x1="283.2649" y1="-408.0549" x2="309.0978" y2="-379.17" gradientTransform="matrix(1 0 0 -1 -283.4854 -377.7847)">
	<stop  offset="0" style="stop-color:#F7E52B"/>
	<stop  offset="1" style="stop-color:#F79721"/>
</linearGradient>
<rect x="1.053" y="1.191" fill="url(#SVGID_20_)" width="26.244" height="25.968"/>
<linearGradient id="SVGID_21_" gradientUnits="userSpaceOnUse" x1="283.2649" y1="-408.0549" x2="309.0978" y2="-379.17" gradientTransform="matrix(1 0 0 -1 -283.4854 -377.7847)">
	<stop  offset="0" style="stop-color:#F7E52B"/>
	<stop  offset="1" style="stop-color:#F79721"/>
</linearGradient>
<rect x="1.053" y="1.191" fill="url(#SVGID_21_)" width="26.244" height="25.968"/>
<linearGradient id="SVGID_22_" gradientUnits="userSpaceOnUse" x1="283.2649" y1="-408.0549" x2="309.0978" y2="-379.17" gradientTransform="matrix(1 0 0 -1 -283.4854 -377.7847)">
	<stop  offset="0" style="stop-color:#F7E52B"/>
	<stop  offset="1" style="stop-color:#F79721"/>
</linearGradient>
<rect x="1.053" y="1.191" fill="url(#SVGID_22_)" width="26.244" height="25.968"/>
<linearGradient id="SVGID_23_" gradientUnits="userSpaceOnUse" x1="283.2649" y1="-408.0549" x2="309.0978" y2="-379.17" gradientTransform="matrix(1 0 0 -1 -283.4854 -377.7847)">
	<stop  offset="0" style="stop-color:#F7E52B"/>
	<stop  offset="1" style="stop-color:#F79721"/>
</linearGradient>
<rect x="1.053" y="1.191" fill="url(#SVGID_23_)" width="26.244" height="25.968"/>
<linearGradient id="SVGID_24_" gradientUnits="userSpaceOnUse" x1="283.2649" y1="-408.0549" x2="309.0978" y2="-379.17" gradientTransform="matrix(1 0 0 -1 -283.4854 -377.7847)">
	<stop  offset="0" style="stop-color:#F7E52B"/>
	<stop  offset="1" style="stop-color:#F79721"/>
</linearGradient>
<rect x="1.053" y="1.191" fill="url(#SVGID_24_)" width="26.244" height="25.968"/>
<linearGradient id="SVGID_25_" gradientUnits="userSpaceOnUse" x1="283.2649" y1="-408.0549" x2="309.0978" y2="-379.17" gradientTransform="matrix(1 0 0 -1 -283.4854 -377.7847)">
	<stop  offset="0" style="stop-color:#F7E52B"/>
	<stop  offset="1" style="stop-color:#F79721"/>
</linearGradient>
<rect x="1.053" y="1.191" fill="url(#SVGID_25_)" width="26.244" height="25.968"/>
<linearGradient id="SVGID_26_" gradientUnits="userSpaceOnUse" x1="284.5383" y1="-391.9597" x2="310.7825" y2="-391.9597" gradientTransform="matrix(1 0 0 -1 -283.4854 -377.7847)">
	<stop  offset="0" style="stop-color:#9FDAE1"/>
	<stop  offset="1" style="stop-color:#14B3D9"/>
</linearGradient>
<rect x="1.053" y="1.191" fill="url(#SVGID_26_)" width="26.244" height="25.969"/>
<g id="Layer_2">
</g>
<g>
	<path fill="#231F20" d="M11.07,14.573l-0.015,2.039c0.15-0.01-0.535-0.015-2.055-0.015c-1.62,0-2.41,0.275-2.37,0.825
		c0.13,0.41,0.255,0.82,0.375,1.23c0.25,0.819,0.375,1.5,0.375,2.039c0,0.391-0.04,0.69-0.12,0.9c-0.03,0.09-0.15,0.295-0.36,0.615
		c-0.06-0.46-0.425-2.061-1.095-4.801c0-0.989,0.36-1.684,1.08-2.084c0.39-0.22,1.105-0.4,2.145-0.54
		c-0.4-0.55-0.755-0.825-1.065-0.825c-0.22,0-0.53,0.271-0.93,0.811l-0.36-0.181c0.29-0.8,0.515-1.324,0.675-1.575
		c0.34-0.54,0.76-0.81,1.26-0.81C9.18,12.202,10,12.992,11.07,14.573z"/>
	<path fill="#231F20" d="M18.675,16.102c0,0.86-0.39,1.721-1.17,2.58c-0.73,0.82-1.391,1.23-1.98,1.23
		c-0.539,0-1.229-0.26-2.069-0.78c-0.12-0.069-0.686-0.465-1.695-1.185l0.315-0.436c0.84,0.57,1.62,0.855,2.34,0.855
		c0.58,0,1.154-0.2,1.725-0.6c0.391-0.28,0.865-0.726,1.426-1.336c-0.181,0.021-0.326,0.03-0.436,0.03
		c-1.131,0-1.695-0.62-1.695-1.859c0-0.75,0.186-1.48,0.555-2.19c0.371-0.71,0.781-1.065,1.23-1.065c0.37,0,0.7,0.256,0.99,0.766
		c0.31,0.55,0.465,1.229,0.465,2.04V16.102z M17.775,14.558c-0.18-0.79-0.455-1.186-0.824-1.186c-0.18,0-0.32,0.065-0.42,0.195
		c-0.101,0.13-0.15,0.255-0.15,0.375c0,0.41,0.355,0.615,1.064,0.615H17.775z"/>
	<path fill="#231F20" d="M22.545,16.702h-4.32v-2.04h3.57c-0.121-0.45-0.211-0.735-0.271-0.854c-0.05-0.08-0.22-0.315-0.51-0.705
		l0.614-1.74c0.4,0.57,0.646,1.025,0.736,1.365c0.119,0.439,0.18,1.225,0.18,2.354V16.702z M22.47,8.677l-0.796,1.53l-1.079-0.585
		l-0.615,1.17l-1.396-0.734l0.781-1.485l1.109,0.54l0.6-1.2L22.47,8.677z M21.03,6.863l-0.765,1.56l-1.425-0.75l0.779-1.529
		L21.03,6.863z"/>
</g>
</svg>
