<?xml version="1.0" encoding="utf-8"?>
<!-- Generator: Adobe Illustrator 16.0.0, SVG Export Plug-In . SVG Version: 6.00 Build 0)  -->
<!DOCTYPE svg PUBLIC "-//W3C//DTD SVG 1.1//EN" "http://www.w3.org/Graphics/SVG/1.1/DTD/svg11.dtd">
<svg version="1.1" id="Layer_1" xmlns="http://www.w3.org/2000/svg" xmlns:xlink="http://www.w3.org/1999/xlink" x="0px" y="0px"
	 width="235.678px" height="61.385px" viewBox="0 0 235.678 61.385" enable-background="new 0 0 235.678 61.385"
	 xml:space="preserve">
<g>
	<g opacity="0.3">
		<g>
			<g>
				<path fill="#231F20" d="M7.105,53.034L-1.44,17.039h8.705l2.724,14.847c0.801,4.272,1.549,8.919,2.136,12.551h0.107
					c0.587-3.898,1.442-8.225,2.35-12.657l3.044-14.74h8.652l2.884,15.167c0.801,4.218,1.388,8.064,1.922,12.07h0.107
					c0.534-4.006,1.335-8.225,2.083-12.497l2.938-14.74h8.278l-9.292,35.995h-8.812L23.34,37.546
					c-0.694-3.631-1.282-6.996-1.709-11.108h-0.107c-0.641,4.059-1.229,7.477-2.083,11.108l-3.418,15.487H7.105z"/>
				<path fill="#231F20" d="M54.688,42.567c0.267,3.364,3.578,4.967,7.37,4.967c2.777,0,5.021-0.374,7.21-1.068l1.068,5.501
					c-2.67,1.067-5.928,1.603-9.453,1.603c-8.865,0-13.939-5.127-13.939-13.299c0-6.622,4.112-13.938,13.191-13.938
					c8.438,0,11.643,6.569,11.643,13.03c0,1.389-0.16,2.617-0.267,3.205H54.688z M64.248,37.012c0-1.976-0.854-5.287-4.593-5.287
					c-3.418,0-4.807,3.098-5.021,5.287H64.248z"/>
				<path fill="#231F20" d="M76.638,15.116h8.118v37.917h-8.118V15.116z"/>
				<path fill="#231F20" d="M91.325,15.116h8.117v37.917h-8.117V15.116z"/>
				<path fill="#231F20" d="M142.113,15.116v30.121c0,2.938,0.106,6.035,0.214,7.797h-7.21l-0.374-3.845h-0.107
					c-1.655,2.938-4.807,4.433-8.17,4.433c-6.195,0-11.162-5.287-11.162-13.404c-0.054-8.813,5.447-13.886,11.695-13.886
					c3.205,0,5.715,1.121,6.89,2.937h0.106V15.116H142.113z M133.995,37.973c0-0.427-0.053-1.014-0.106-1.441
					c-0.48-2.189-2.243-4.005-4.753-4.005c-3.686,0-5.607,3.311-5.607,7.423c0,4.433,2.189,7.21,5.554,7.21
					c2.351,0,4.22-1.603,4.7-3.899c0.16-0.587,0.213-1.174,0.213-1.869V37.973z"/>
				<path fill="#231F20" d="M174.422,39.682c0,9.561-6.783,13.939-13.779,13.939c-7.637,0-13.512-5.02-13.512-13.458
					s5.555-13.832,13.939-13.832C169.082,26.332,174.422,31.832,174.422,39.682z M155.516,39.95c0,4.486,1.869,7.851,5.342,7.851
					c3.15,0,5.18-3.151,5.18-7.851c0-3.898-1.495-7.851-5.18-7.851C156.958,32.099,155.516,36.104,155.516,39.95z"/>
				<path fill="#231F20" d="M179.442,35.25c0-3.258-0.106-6.035-0.213-8.332h7.049l0.374,3.578h0.161
					c1.067-1.656,3.738-4.166,8.063-4.166c5.341,0,9.347,3.524,9.347,11.215v15.487h-8.118V38.561c0-3.364-1.175-5.661-4.112-5.661
					c-2.243,0-3.578,1.548-4.112,3.043c-0.214,0.48-0.32,1.282-0.32,2.029v15.061h-8.118V35.25z"/>
				<path fill="#231F20" d="M216.987,42.567c0.267,3.364,3.578,4.967,7.369,4.967c2.777,0,5.021-0.374,7.21-1.068l1.068,5.501
					c-2.671,1.067-5.929,1.603-9.453,1.603c-8.865,0-13.938-5.127-13.938-13.299c0-6.622,4.111-13.938,13.191-13.938
					c8.438,0,11.643,6.569,11.643,13.03c0,1.389-0.16,2.617-0.268,3.205H216.987z M226.545,37.012c0-1.976-0.854-5.287-4.592-5.287
					c-3.418,0-4.807,3.098-5.021,5.287H226.545z"/>
			</g>
		</g>
	</g>
	<g>
		<g>
			<g>
				<path fill="#FFFFFF" d="M7.106,49.701l-8.545-35.996h8.705L9.99,28.552c0.801,4.272,1.549,8.919,2.136,12.55h0.107
					c0.587-3.898,1.442-8.224,2.35-12.657l3.044-14.74h8.652l2.884,15.167c0.801,4.219,1.388,8.063,1.922,12.069h0.107
					c0.534-4.006,1.335-8.224,2.083-12.497l2.938-14.74h8.278l-9.292,35.996h-8.812l-3.044-15.488
					c-0.694-3.631-1.282-6.996-1.709-11.108h-0.107c-0.641,4.059-1.229,7.477-2.083,11.108l-3.418,15.488H7.106z"/>
				<path fill="#FFFFFF" d="M54.689,39.233c0.267,3.365,3.578,4.967,7.37,4.967c2.777,0,5.021-0.373,7.21-1.068l1.068,5.502
					c-2.67,1.067-5.928,1.602-9.453,1.602c-8.865,0-13.939-5.127-13.939-13.299c0-6.622,4.112-13.938,13.191-13.938
					c8.438,0,11.643,6.569,11.643,13.031c0,1.389-0.16,2.616-0.267,3.204H54.689z M64.249,33.679c0-1.976-0.854-5.287-4.593-5.287
					c-3.418,0-4.807,3.098-5.021,5.287H64.249z"/>
				<path fill="#FFFFFF" d="M76.639,11.783h8.118v37.918h-8.118V11.783z"/>
				<path fill="#FFFFFF" d="M91.325,11.783h8.118v37.918h-8.118V11.783z"/>
				<path fill="#FFFFFF" d="M142.114,11.783v30.12c0,2.938,0.106,6.035,0.213,7.798h-7.209l-0.374-3.845h-0.106
					c-1.656,2.938-4.807,4.432-8.172,4.432c-6.195,0-11.162-5.287-11.162-13.404c-0.053-8.812,5.448-13.885,11.696-13.885
					c3.204,0,5.715,1.121,6.89,2.937h0.107V11.783H142.114z M133.997,34.64c0-0.427-0.055-1.015-0.107-1.442
					c-0.48-2.189-2.243-4.005-4.753-4.005c-3.685,0-5.608,3.311-5.608,7.423c0,4.434,2.19,7.211,5.555,7.211
					c2.35,0,4.219-1.604,4.699-3.899c0.16-0.587,0.215-1.175,0.215-1.869V34.64z"/>
				<path fill="#FFFFFF" d="M174.423,36.349c0,9.56-6.782,13.938-13.778,13.938c-7.637,0-13.512-5.02-13.512-13.457
					c0-8.439,5.554-13.833,13.938-13.833C169.083,22.998,174.423,28.499,174.423,36.349z M155.518,36.616
					c0,4.486,1.869,7.852,5.34,7.852c3.151,0,5.181-3.151,5.181-7.852c0-3.898-1.495-7.85-5.181-7.85
					C156.959,28.766,155.518,32.771,155.518,36.616z"/>
				<path fill="#FFFFFF" d="M179.444,31.917c0-3.258-0.107-6.035-0.215-8.331h7.051l0.373,3.578h0.16
					c1.068-1.656,3.738-4.166,8.064-4.166c5.341,0,9.346,3.524,9.346,11.215v15.488h-8.117V35.227c0-3.364-1.175-5.66-4.112-5.66
					c-2.243,0-3.578,1.548-4.112,3.044c-0.213,0.48-0.32,1.282-0.32,2.029v15.061h-8.117V31.917z"/>
				<path fill="#FFFFFF" d="M216.987,39.233c0.268,3.365,3.578,4.967,7.37,4.967c2.777,0,5.021-0.373,7.21-1.068l1.068,5.502
					c-2.67,1.067-5.928,1.602-9.453,1.602c-8.865,0-13.939-5.127-13.939-13.299c0-6.622,4.113-13.938,13.191-13.938
					c8.438,0,11.643,6.569,11.643,13.031c0,1.389-0.16,2.616-0.267,3.204H216.987z M226.547,33.679c0-1.976-0.855-5.287-4.594-5.287
					c-3.418,0-4.807,3.098-5.02,5.287H226.547z"/>
			</g>
		</g>
	</g>
</g>
</svg>
