<?xml version="1.0" encoding="utf-8"?>
<!-- Generator: Adobe Illustrator 16.0.0, SVG Export Plug-In . SVG Version: 6.00 Build 0)  -->
<!DOCTYPE svg PUBLIC "-//W3C//DTD SVG 1.1//EN" "http://www.w3.org/Graphics/SVG/1.1/DTD/svg11.dtd">
<svg version="1.1" id="Layer_1" xmlns="http://www.w3.org/2000/svg" xmlns:xlink="http://www.w3.org/1999/xlink" x="0px" y="0px"
	 width="219.921px" height="58.052px" viewBox="0 0 219.921 58.052" enable-background="new 0 0 219.921 58.052"
	 xml:space="preserve">
<g>
	<g opacity="0.3">
		<g>
			<g>
				<path fill="#231F20" d="M7.544,18.541h-9.666v-6.836h27.664v6.836h-9.827v29.16H7.544V18.541z"/>
				<path fill="#231F20" d="M29.601,30.184c0-3.845-0.107-6.355-0.214-8.598h6.997l0.267,4.806h0.214
					c1.335-3.792,4.54-5.394,7.049-5.394c0.748,0,1.122,0,1.709,0.106v7.637c-0.587-0.107-1.282-0.214-2.189-0.214
					c-2.991,0-5.02,1.603-5.554,4.112c-0.107,0.534-0.16,1.175-0.16,1.815v13.245h-8.118V30.184z"/>
				<path fill="#231F20" d="M55.982,21.585l3.898,12.817c0.427,1.549,0.961,3.471,1.282,4.859h0.16
					c0.374-1.389,0.801-3.364,1.175-4.859l3.205-12.817h8.705l-6.088,17.196c-3.738,10.361-6.249,14.526-9.186,17.144
					c-2.831,2.456-5.821,3.312-7.851,3.578l-1.709-6.89c1.015-0.16,2.296-0.641,3.524-1.389c1.229-0.641,2.563-1.922,3.365-3.258
					c0.267-0.373,0.427-0.801,0.427-1.174c0-0.268-0.053-0.695-0.374-1.336l-9.56-23.872H55.982z"/>
				<path fill="#231F20" d="M103.459,47.701l-0.48-2.616h-0.16c-1.709,2.082-4.38,3.203-7.478,3.203
					c-5.287,0-8.438-3.845-8.438-8.01c0-6.783,6.088-10.041,15.327-9.987v-0.374c0-1.389-0.747-3.365-4.753-3.365
					c-2.67,0-5.501,0.908-7.21,1.976l-1.495-5.233c1.816-1.015,5.395-2.296,10.146-2.296c8.705,0,11.482,5.127,11.482,11.269v9.079
					c0,2.511,0.107,4.913,0.374,6.355H103.459z M102.498,35.364c-4.271-0.053-7.583,0.961-7.583,4.112
					c0,2.083,1.389,3.098,3.204,3.098c2.029,0,3.686-1.335,4.219-2.991c0.107-0.427,0.16-0.907,0.16-1.389V35.364z"/>
				<path fill="#231F20" d="M141.751,21.585c-0.107,1.655-0.214,3.845-0.214,7.744v14.58c0,5.021-1.015,9.133-3.952,11.75
					c-2.884,2.456-6.782,3.203-10.627,3.203c-3.418,0-7.05-0.693-9.4-2.029l1.603-6.141c1.655,0.961,4.54,1.976,7.584,1.976
					c3.845,0,6.782-2.083,6.782-6.89v-1.709h-0.106c-1.549,2.189-4.06,3.418-7.05,3.418c-6.462,0-11.055-5.233-11.055-12.764
					c0-8.385,5.447-13.725,11.855-13.725c3.578,0,5.821,1.548,7.156,3.685h0.107l0.267-3.097H141.751z M133.42,32.213
					c0-0.534-0.054-1.068-0.161-1.495c-0.587-2.136-2.136-3.578-4.379-3.578c-2.938,0-5.34,2.67-5.34,7.423
					c0,3.898,1.922,6.943,5.34,6.943c2.083,0,3.738-1.389,4.273-3.313c0.213-0.587,0.267-1.441,0.267-2.136V32.213z"/>
				<path fill="#231F20" d="M162.9,47.701l-0.48-2.616h-0.16c-1.709,2.082-4.38,3.203-7.478,3.203c-5.287,0-8.438-3.845-8.438-8.01
					c0-6.783,6.089-10.041,15.328-9.987v-0.374c0-1.389-0.748-3.365-4.754-3.365c-2.67,0-5.5,0.908-7.209,1.976l-1.496-5.233
					c1.816-1.015,5.395-2.296,10.147-2.296c8.705,0,11.482,5.127,11.482,11.269v9.079c0,2.511,0.106,4.913,0.374,6.355H162.9z
					 M161.938,35.364c-4.272-0.053-7.583,0.961-7.583,4.112c0,2.083,1.389,3.098,3.204,3.098c2.029,0,3.685-1.335,4.219-2.991
					c0.106-0.427,0.16-0.907,0.16-1.389V35.364z"/>
				<path fill="#231F20" d="M184.636,14.322c0,2.243-1.709,4.059-4.38,4.059c-2.563,0-4.272-1.816-4.22-4.059
					c-0.053-2.35,1.656-4.112,4.273-4.112S184.582,11.972,184.636,14.322z M176.251,47.701V21.585h8.117v26.115H176.251z"/>
				<path fill="#231F20" d="M190.883,29.917c0-3.258-0.106-6.035-0.214-8.331h7.05l0.374,3.578h0.16
					c1.068-1.656,3.738-4.166,8.064-4.166c5.34,0,9.346,3.524,9.346,11.215v15.488h-8.117V33.228c0-3.364-1.176-5.661-4.113-5.661
					c-2.242,0-3.578,1.548-4.111,3.044c-0.214,0.48-0.32,1.282-0.32,2.029v15.061h-8.118V29.917z"/>
			</g>
		</g>
	</g>
	<g>
		<g>
			<g>
				<path fill="#FFFFFF" d="M8.544,15.541h-9.666V8.705h27.664v6.836h-9.827v29.16H8.544V15.541z"/>
				<path fill="#FFFFFF" d="M30.601,27.184c0-3.845-0.107-6.355-0.214-8.598h6.997l0.267,4.806h0.214
					c1.335-3.792,4.54-5.394,7.049-5.394c0.748,0,1.122,0,1.709,0.106v7.637c-0.587-0.107-1.282-0.214-2.189-0.214
					c-2.991,0-5.02,1.603-5.554,4.112c-0.107,0.534-0.16,1.175-0.16,1.816v13.245h-8.118V27.184z"/>
				<path fill="#FFFFFF" d="M56.982,18.585l3.898,12.817c0.427,1.548,0.961,3.471,1.282,4.859h0.16
					c0.374-1.389,0.801-3.364,1.175-4.859l3.205-12.817h8.705l-6.088,17.196c-3.738,10.361-6.249,14.526-9.186,17.144
					c-2.831,2.456-5.821,3.312-7.851,3.578l-1.709-6.89c1.015-0.16,2.296-0.641,3.524-1.389c1.229-0.641,2.563-1.922,3.365-3.258
					c0.267-0.373,0.427-0.801,0.427-1.174c0-0.268-0.053-0.695-0.374-1.336l-9.56-23.872H56.982z"/>
				<path fill="#FFFFFF" d="M104.459,44.701l-0.48-2.616h-0.16c-1.709,2.082-4.38,3.203-7.478,3.203
					c-5.287,0-8.438-3.845-8.438-8.01c0-6.783,6.088-10.041,15.327-9.987v-0.374c0-1.389-0.747-3.365-4.753-3.365
					c-2.67,0-5.501,0.908-7.21,1.976l-1.495-5.233c1.816-1.015,5.395-2.296,10.146-2.296c8.705,0,11.482,5.127,11.482,11.269v9.079
					c0,2.511,0.107,4.913,0.374,6.355H104.459z M103.498,32.364c-4.271-0.053-7.583,0.961-7.583,4.112
					c0,2.083,1.389,3.098,3.204,3.098c2.029,0,3.686-1.335,4.219-2.991c0.107-0.427,0.16-0.907,0.16-1.389V32.364z"/>
				<path fill="#FFFFFF" d="M142.751,18.585c-0.107,1.655-0.214,3.845-0.214,7.744v14.58c0,5.021-1.015,9.133-3.952,11.75
					c-2.884,2.456-6.782,3.203-10.627,3.203c-3.418,0-7.05-0.693-9.4-2.029l1.603-6.141c1.655,0.961,4.54,1.976,7.584,1.976
					c3.845,0,6.782-2.083,6.782-6.89v-1.709h-0.106c-1.549,2.189-4.06,3.418-7.05,3.418c-6.462,0-11.055-5.233-11.055-12.764
					c0-8.385,5.447-13.725,11.855-13.725c3.578,0,5.821,1.548,7.156,3.685h0.107l0.267-3.097H142.751z M134.42,29.213
					c0-0.534-0.054-1.068-0.161-1.495c-0.587-2.136-2.136-3.578-4.379-3.578c-2.938,0-5.34,2.67-5.34,7.423
					c0,3.898,1.922,6.943,5.34,6.943c2.083,0,3.738-1.389,4.273-3.313c0.213-0.587,0.267-1.441,0.267-2.136V29.213z"/>
				<path fill="#FFFFFF" d="M163.9,44.701l-0.48-2.616h-0.16c-1.709,2.082-4.38,3.203-7.478,3.203c-5.287,0-8.438-3.845-8.438-8.01
					c0-6.783,6.089-10.041,15.328-9.987v-0.374c0-1.389-0.748-3.365-4.754-3.365c-2.67,0-5.5,0.908-7.209,1.976l-1.496-5.233
					c1.816-1.015,5.395-2.296,10.147-2.296c8.705,0,11.482,5.127,11.482,11.269v9.079c0,2.511,0.106,4.913,0.374,6.355H163.9z
					 M162.938,32.364c-4.272-0.053-7.583,0.961-7.583,4.112c0,2.083,1.389,3.098,3.204,3.098c2.029,0,3.685-1.335,4.219-2.991
					c0.106-0.427,0.16-0.907,0.16-1.389V32.364z"/>
				<path fill="#FFFFFF" d="M185.636,11.322c0,2.243-1.709,4.059-4.38,4.059c-2.563,0-4.272-1.816-4.22-4.059
					c-0.053-2.35,1.656-4.112,4.273-4.112S185.582,8.972,185.636,11.322z M177.251,44.701V18.585h8.117v26.115H177.251z"/>
				<path fill="#FFFFFF" d="M191.883,26.917c0-3.258-0.106-6.035-0.214-8.331h7.05l0.374,3.578h0.16
					c1.068-1.656,3.738-4.166,8.064-4.166c5.34,0,9.346,3.524,9.346,11.215v15.488h-8.117V30.228c0-3.364-1.176-5.661-4.113-5.661
					c-2.242,0-3.578,1.548-4.111,3.044c-0.214,0.48-0.32,1.282-0.32,2.029v15.061h-8.118V26.917z"/>
			</g>
		</g>
	</g>
</g>
</svg>
