<?xml version="1.0" encoding="utf-8"?>
<!-- Generator: Adobe Illustrator 19.2.0, SVG Export Plug-In . SVG Version: 6.00 Build 0)  -->
<svg version="1.1" id="Layer_1" xmlns="http://www.w3.org/2000/svg" xmlns:xlink="http://www.w3.org/1999/xlink" x="0px" y="0px"
	 viewBox="0 0 168.4 156.7" style="enable-background:new 0 0 168.4 156.7;" xml:space="preserve">
<style type="text/css">
	.st0{opacity:0.4;enable-background:new    ;}
	.st1{fill:#FFDE9C;}
	.st2{opacity:0.5;}
	.st3{fill:#AEC90B;}
	.st4{fill:#DAE182;}
	.st5{fill:#C6D65D;}
	.st6{fill:#532913;}
	.st7{opacity:0.2;clip-path:url(#SVGID_2_);}
	.st8{fill:#020202;}
	.st9{opacity:0.5;fill:#020202;enable-background:new    ;}
	.st10{opacity:0.2;fill:#020202;enable-background:new    ;}
	.st11{fill:url(#SVGID_3_);stroke:#DFF275;stroke-width:2;stroke-miterlimit:10;}
	.st12{clip-path:url(#SVGID_5_);}
	.st13{fill:#FFCE03;}
	.st14{fill:#FFE42D;}
	.st15{fill:#FF3829;}
	.st16{fill:#EF5355;}
	.st17{fill:#D42C40;}
	.st18{fill:#CFE9EF;}
	.st19{fill:#CE4749;}
	.st20{fill:#E51717;}
	.st21{fill:#47BCEC;}
	.st22{fill:#E99423;}
	.st23{fill:#2F8942;}
	.st24{fill:#8A55A1;}
	.st25{fill:#EF4B53;}
	.st26{fill:#2E6A2E;}
	.st27{fill:#B6313E;}
	.st28{fill:#567C7D;}
	.st29{opacity:0.5;fill:#567C7D;enable-background:new    ;}
	.st30{fill:#6D3B40;}
	.st31{opacity:0.5;fill:#6D3B40;enable-background:new    ;}
	.st32{fill:#FFFFFF;}
	.st33{fill:#341A10;}
	.st34{fill:#C41010;}
	.st35{fill:#FCC58C;}
	.st36{fill:#F58E7A;}
	.st37{fill:#F8A882;}
	.st38{fill:#1D1D1D;}
	.st39{fill:#557878;}
	.st40{fill:#476D6C;}
	.st41{fill:#3A605D;}
	.st42{fill:#688885;}
	.st43{fill:#FFEAB3;}
	.st44{clip-path:url(#SVGID_7_);fill:#6B1925;}
	.st45{clip-path:url(#SVGID_9_);fill:#FFFFFF;}
	.st46{clip-path:url(#SVGID_11_);fill:#FFFFFF;}
	.st47{fill:#455100;}
</style>
<g>
	<polygon class="st0" points="153.3,41.4 145,156.6 8.2,156.6 0,41.4 	"/>
	<rect x="8.4" y="10.7" class="st1" width="136.4" height="145.9"/>
	<g class="st2">
		<path class="st3" d="M128.7,112.1c-2-1.5-4.7-1.3-6.9-2.5c-1.4-2.9-1.9-6.1-1.8-9.3c1-1.6,1.9-3.3,3.2-4.7c1.9-1.5,4-2.7,6.1-3.8
			c0.8-0.8,1.6-1.5,2.5-2.2c1.4,0.1,2.7,0.7,4.2,0.9l-0.5-1.4c0.9-0.2,1.8-0.5,2.6-0.7c1.2,0.8,2,2.6,0.7,3.6
			c-1.3,0.9-2.4-0.7-3.2-1.4c-0.2,0.4-0.5,1.1-0.7,1.5l0.3-0.2c0.8,1.5,1.7,3,3.2,4c1,2.1,1.8,4.3,1.3,6.6
			C138.5,107.7,133.6,110.9,128.7,112.1L128.7,112.1z M62.2,10.7c0.9,0.1,1.6,0.4,2.3,1c-0.7,0.8-1.3,1.5-2,2.2
			c-0.1,3-1.9,5.3-3.8,7.4c1.1,0.9,2.2,1.8,3.2,2.6c-1.2,0.9-2.6,0.7-4,0.3c-1,0.8-2.2,1.4-2.9,2.4c-1,1.3-0.7,3-0.8,4.5
			c-1.9,1.7-4.1,3.1-6.8,2.9c-0.6,0.5-1.2,1.1-1.8,1.6c-1.7-0.3-3.4-0.8-5.1-1c-0.7,0.8-1.3,1.5-2,2.2c-0.8-0.8-1.4-1.9-2.4-2.5
			c-1.6-0.2-3.3-0.1-4.9-0.5c-2.4-1.9-4.2-4.9-7.6-5.4c-0.7-1.6-1.4-3.2-2.2-4.8c0.2-1.3-0.1-2.5-1-3.4c-1-2.7-0.8-5.6,0.1-8.2
			c-0.3-0.4-0.7-0.8-1-1.2L62.2,10.7L62.2,10.7z M113.8,113.9c-2.4-0.5-6.3,0.2-6.9-3.1c-0.1-2.6,3.2-3.5,5.3-4.1
			c1.3,0.7,3.1,1.1,3.3,2.8C116,111.3,114.5,112.6,113.8,113.9L113.8,113.9z M42.6,70.3c-1.3-0.7-0.7-2.2-0.8-3.4
			c1.5-0.3,3.1-0.5,4.6-0.4c0,1,0.1,2,0.1,3C45.8,70.9,43.8,71.4,42.6,70.3L42.6,70.3z M27.3,97c-4,1.1-8.4-0.1-11.2-3.2
			c-0.6-0.9-1.3-1.8-1.9-2.6c-1.4-3.3-1.7-7-0.8-10.6c1.8-2.1,3.5-4.7,6.2-5.8c2.8-1.2,5.8,0.2,8.7-0.1c1.1,1.1,2.2,2.1,3.3,3.2
			c0,0.9,0,1.9,0.1,2.8c0.8,0.1,1.5,0.2,2.3,0.3c1.2,2.9,1.3,6.1,0.8,9.1C33.7,93.5,30.3,95.4,27.3,97L27.3,97z M93.4,115.1
			c-0.3,0.7-0.7,1.3-1,2c-0.3-0.3-1.1-1-1.5-1.3c-1.9-0.3-3.3-1.5-4.5-3c-0.4-1-0.8-2.1-1.1-3.1c1.6-2.2,3.1-5.2,6-5.9
			c3.6-1.2,7.9,1.5,8,5.4c-0.3,1.3-0.8,2.5-1.2,3.7c-0.8,0.2-1.6,0.3-2.4,0.5c0.2,0.8,0.5,1.6,0.7,2.5
			C95.4,115.7,94.4,115.3,93.4,115.1L93.4,115.1z M53.1,47.3c2.2-0.6,3.9-2.2,5.5-3.6c1.4-2,1.1-4.7,0.5-6.9
			c-1.5-0.8-3.1-1.4-4.6-2.1c-2.1,2.1-5.7,1.6-7.1,4.4c-1.4,1.6-0.3,3.9-0.1,5.7C49.2,45.7,51,47.1,53.1,47.3L53.1,47.3z
			 M27.9,110.2c0.3-2.3,1.9-4.5,4.4-4.2c2.7,1.1,1.9,4.7,0,6.1C30.6,113.3,29.3,111,27.9,110.2L27.9,110.2z M67.2,76.2
			C64.9,75.4,69,74.5,67.2,76.2L67.2,76.2z M69.5,110.2c3.1-1.5,2.9-5.5,4.7-8c1.4-0.7,3.5-0.5,4.2-2.2c0.7-1.5,1.1-3.2,1.6-4.8
			c-1.2-3.8-5-5.9-8.9-5.5c-2.3-2.6-1.5-6.3-2.9-9.3c-0.7-3.2-4-4.3-6.3-6c-2.2,0-4.5,0.1-6.7,0c-1.4,0.7-2.9,1.2-4.5,1.4
			c-2.7,1.3-4.3,3.8-5.2,6.6c-1,1.6-3.3,3.5-2,5.5c0.8,1.4,2.1,2.3,3.3,3.3c0,1.3,0.1,2.5,0.2,3.8c0.8-0.2,1.6-0.4,2.5-0.6
			c0.2,0.2,0.7,0.7,0.9,0.9c-0.1,1-0.2,1.9-0.2,2.9c0.9-0.8,1.8-1.5,2.8-2.2c0.9,0.5,1,1.6,1.3,2.5c1.5-2.3,3.6,0.1,4.9,1.4
			c-0.1,1.9-1.4,3.5-2.4,5.1c-2,2.7-6.1,0.9-8.2,3.4c-2.8,2-3.6,6-1.9,9c1.6,3,5.7,3.6,8.7,2.5c2.6-1.8,3.3-5.4,6.1-7.2
			C64.3,111.8,67.1,111.7,69.5,110.2L69.5,110.2z M107.4,54.5c2.6-4.8-0.1-13.6-0.7-15.7c-0.5-2-2-3.4-3.6-4.6
			c-2.3-1.5-2.6-4.9-5.3-6c-4.4-1.1-9-2.3-13.5-1c-2.3,0.4-4,2.1-6.2,2.8c-2.1-0.2-4.2-1.7-6.1-0.3c0.1,0.7,0.2,2,0.3,2.6
			c-1.1,0.2-2.3,0.2-3.4,0.5c-1.2,2.6-2,5.5-1.6,8.4c0.3,2.7-0.2,5.4-0.8,8c-1.6,1.3-3.6,2.7-3.3,5.1c0.9,1,1.9,2,2.6,3.2
			c0.5,1.7,0.2,3.5,0.6,5.2c2.1,3.8,11.8,6.1,15.8,7.2c0.5,0.2-0.2,4.1-0.7,7.7c-1.4,9.9,4.2,7.6,3.4,1.2c-0.5-4.3-1.5-9.4,0.7-11.3
			c1.6-1.4,6.2-1,8,3.9c6.4,17.3,9.8,8.7,1.4-0.6c-5.4-6-4.3-12.4,2.8-8.5C125.5,77.8,102.6,63.5,107.4,54.5L107.4,54.5z M40,47
			c-1.1-0.4-1.9-1.3-2.8-2c0.3-0.7,0.7-1.5,1.1-2.2c0.5-0.3,1.4-1,1.9-1.3c0.9,0.8,2.4,1.3,2.2,2.7C42.6,45.7,41.2,46.5,40,47L40,47
			z M22.5,140.6c1.1,0.5,1.2,1.1,0,1.7C21.4,141.8,21.4,141.2,22.5,140.6z"/>
		<path class="st4" d="M145,24.1c-0.4-0.4-0.8-0.8-1.3-1.1c-1.1,1-1.5,2.5-2.4,3.6c-1.4,1.9-1.2,4.4-1.1,6.6c0.3,1.3,1,2.4,1.1,3.8
			c0.4,0.2,0.8,0.4,1.2,0.7c-0.1,0.3-0.2,0.7-0.3,1c0.1,0.3,0.4,0.8,0.5,1.1c-0.8,0.8-1.4,1.8-2.6,2.1c-1.4,0.3-2.8,0.4-4.2,0.7
			c-0.2-0.1-0.8-0.4-1-0.5c-0.1-0.3-0.2-1.1-0.3-1.5c0.2-2.5,0.6-5.3,2.6-7.2c1.1-2,0.5-4.3,0.7-6.4c0.1-2,0.7-4.1-0.3-5.9
			c-1.5-0.3-3.1-0.9-4.7-0.4c-1.9,0.5-3.7,1.2-5.6,1c-0.4-1-0.6-2.1-1.1-3.1c-0.8-0.4-1.7-0.7-2.6-0.9c-0.5,0.3-1,0.7-1.5,1
			c-0.8-1.9-2.3-3.6-4.4-3.9c-1,0-2,0.2-3.1,0.3c-0.4-1-0.1-2.9-1.6-3.1c-0.7-0.3-2,0-2.3-0.9c0-0.1,0.1-0.3,0.2-0.4H145L145,24.1
			L145,24.1z M90.9,10.7c0.1,0.4,0.3,1.3,0.3,1.7c1.1,0.4,2.3,0.7,3.5,0.9c0.3,0.8,0.8,1.5,1.4,2.2c0.8-0.2,1.5-0.4,2.2-0.5
			c-0.2,0.8-0.5,1.5-0.8,2.2c0.5,1.5,1.6,2.6,3.1,3.2c-0.1,0.7-0.8,1.2-1.1,1.9c0.5,0.6,1.2,1,1.8,1.5c-0.4,0.2-1.2,0.7-1.5,1
			c0.2,1,0.6,2,1,3c-1,0.5-1.9,1.4-2.4,2.4c0.3,0.3,0.8,1,1,1.3c-1.2,0.4-2.3,1-2.2,2.4c-0.5,0-1,0-1.5,0c0.2,0.3,0.5,0.9,0.6,1.2
			c-0.3-0.1-1-0.4-1.3-0.6c0,0.6,0,1.1,0,1.7c-1.1,0-2.2,0.1-3.2,0.3c-0.3,0.5-0.6,1-0.9,1.5c-0.3-0.2-0.9-0.7-1.2-0.9
			c-0.2,0-0.6-0.1-0.9-0.2c-0.3,0.3-0.5,0.7-0.9,1.1c-0.4-0.4-0.9-0.8-1.3-1.2c-0.6-0.4-1.3,0.3-1.8,0.5c-0.8-0.2-1.7-0.5-2.5-0.8
			c-0.6-1.1-1.5-2-2.6-2.7c-0.5,0.2-1.1,0.4-1.8,0.7c-0.3-0.7-0.1-1.5,0-2.2c-0.6-0.3-1.2-0.6-1.8-0.9c0.2-1.4,0.2-3-0.5-4.3
			c-0.6-0.2-1.2-0.3-1.8-0.4c0.4-0.7,0.9-1.3,1.2-2.1c0-0.9-0.6-1.6-0.8-2.4c0.6-0.8,1.2-1.6,1.8-2.5c-0.2-0.8-0.5-1.5-0.7-2.3
			c0.5,0,0.9,0,1.4,0.1c0.9-0.8,1.3-1.9,1.3-3.1c2-0.3,3.3-2.1,5-2.9c2.1,0.5,4.3,0.2,6.4,0.1C89.8,11.4,90.5,10.9,90.9,10.7
			L90.9,10.7L90.9,10.7z M43.8,15.1c-0.2-0.5-0.4-1.1-0.7-1.7c-0.6,0-1.2,0.1-1.8,0.2c-0.6-0.5-1.1-1.1-1.6-1.6
			c-0.4,0.1-0.8,0.3-1.2,0.4c-2.1-2-4.5,1.1-6.8-0.1c-0.1,0.4-0.2,0.8-0.3,1.2c-0.9,0.8-1.9,1.4-2.9,2.1c-0.8,1-1.3,2.1-2.2,3.1
			c0,0.8,0.1,1.5,0.1,2.3c-0.3,0.4-0.7,0.8-1,1.2c0.8,2.4,0.8,5,2.1,7.2c1.3,0.5,2.5,1.4,3.5,2.2c-0.1,0.3-0.2,1-0.3,1.3
			c1.1-0.1,2.2,0,3.1,0.8c0.5-0.2,1.1-0.5,1.6-0.7c0.3,0.6,0.7,1.2,1.1,1.8c0.6-0.5,1.1-1.1,1.7-1.4c0.7,0.1,1.3,0.3,1.9,0.5
			c0.9-1.2,2.4-1.4,3.8-1.8c0.4-1,0.7-2,1.1-2.9c0.7-0.2,1.3-0.3,2-0.4c-0.2-0.7-0.4-1.4-0.7-2c0.4-0.1,1.1-0.4,1.4-0.6
			c-0.2-0.7-0.5-1.5-0.7-2.2c0.2-0.7,0.9-1.1,1.3-1.6c-0.5-0.2-0.9-0.4-1.4-0.6c-0.1-0.4-0.1-0.9-0.2-1.3c0.3-0.5,0.6-1,0.9-1.5
			c-0.3-0.1-1-0.4-1.4-0.5c-0.3-0.5-0.5-1-0.8-1.4c0.1-0.3,0.2-1,0.3-1.3C45.3,15.3,44.6,15.2,43.8,15.1L43.8,15.1z M33.1,62.3
			c-0.7,1,0.7,1.6,1.5,1.9c0.3-0.5,0.5-1.1,0.8-1.6C35.1,61.5,33.4,61,33.1,62.3L33.1,62.3z M73,59.9c-0.4-1.1-1.4-1.7-2.4-2.3
			c-1.1,0.3-2-0.4-2.5-1.3c-1-0.2-2-0.4-3-0.9c-0.6,0.4-1.1,0.9-1.7,1.4c-0.4-0.6-0.9-1.2-1.4-1.8c-0.4,0.7-0.7,1.4-1.3,2
			c-0.9,0.2-1.4-0.8-2.1-1.1c-0.9,0.3-0.2,1.8-1,2.2c-1.3,0.7-2.6,1.4-4,2c0.1,0.6,0.1,1.2,0.2,1.9c-1.5,0.9-2,2.7-3.2,3.9
			c1.4,0.8,1.5,2.5,1,3.8c-0.7,0.6-2,0.7-2.2,1.7c0.8,0.3,1.6,0.4,2.4,0.4c0.3,1.2,0.7,2.4,0.9,3.6c-0.3,0.2-1,0.5-1.3,0.7
			c0,0.3,0,0.8,0,1.1c0.8-0.2,1.5-0.4,2.3-0.5c0.4,1,0.7,2,1.2,3c0.8,0.3,1.5,0.3,2.3,0.6c0.4,0.6,0.8,1.2,1.1,1.9
			c0.6-0.1,1.2-0.2,1.8-0.2c0.4,0.5,0.8,1.1,1.2,1.7c0.2-0.2,0.6-0.5,0.8-0.7c0.9,0.4,1.9,0.7,2.9,0.2c1.1,0.3,2.1,0.1,3-0.5
			c0.4,0,0.8,0,1.1,0c0.6-0.7,1.1-1.3,1.7-1.9c0.7-0.1,1.3-0.2,1.9-0.3c0.2-0.5,0.3-1.1,0.4-1.6c0.8-0.8,1.6-1.5,2.3-2.4
			c0.8-1.6,0.2-3.7,1.5-5.1c1.5-1.2-1.4-2.5-0.4-4c0.8-1.3-0.1-2.7-0.4-4C75.5,61.7,73.4,61.4,73,59.9L73,59.9z M62.5,37.6
			c-0.8-0.7-1.5,0.5-2,1c0.4,0.3,0.9,0.7,1.4,1C62.9,39.5,63.5,38.1,62.5,37.6L62.5,37.6z M36.9,55.8c1.4-0.1,2.8,0.2,3.7,1.4
			c0,0.9,0.2,1.9-0.4,2.7c-0.6,1-1.8,1.1-2.8,1.4c-0.8-0.8-2-1.3-2-2.5C35.3,57.7,36.1,56.6,36.9,55.8L36.9,55.8z M107.7,83.3
			c-1.5-0.2-3.1-0.4-4.6-0.7c-1.7,0.9-3,2.3-3.9,4c0,0.7,0.1,1.4,0.1,2.1c0.2,0.7,0.4,1.4,0.4,2.1c0.6,0.7,1.2,1.5,2,2
			c1.5,0.6,3.4,0.9,5,0c1.7-0.8,2.4-2.7,3.6-4.1C110.5,86.7,109.2,84.8,107.7,83.3L107.7,83.3z M125.2,79.9
			c-0.1-0.1-0.4-0.3-0.6-0.4c0.1-0.2,0.3-0.5,0.4-0.6c-0.9,0.3-1.9,0.1-2.7-0.3c-1.2,0.2-2.5,0.4-3.7,0.5c-0.7,0.4-1.4,0.7-2.1,1.1
			c-0.3,1.2-0.8,2.4-1.6,3.4c-0.3,1.5,0.6,2.7,0.9,4.2c-0.6,0.1-1.1-0.1-1.7-0.3c-0.5,0.3-1,0.7-1.5,1c-0.5,0.4-1,0.9-1.5,1.3
			c-0.2,1.5-0.5,3.3,0.5,4.6c2,3.1,7.3,2.5,8.9-0.7c-0.1-0.6-0.3-1.1-0.5-1.6c0.1-0.3,0.3-1,0.4-1.3c0.6,0.2,1.2,0.5,1.9,0.7
			c1.9,0,3.5-1.2,4-3.1c0.2-0.1,0.7-0.3,0.9-0.5c0.3-1.1,0.8-2.2,0.9-3.4C127.9,82.6,126.3,81.3,125.2,79.9L125.2,79.9z M128.7,44.8
			c-0.2-1.5,0.1-3-0.9-4.3c0.1-0.2,0.3-0.5,0.4-0.8c-0.1-0.8-0.2-1.7-0.3-2.5c-1.2-0.9-2.4-2-2.3-3.6c-1-0.6-2-1.1-3.2-1.4
			c-0.1-0.2-0.3-0.7-0.4-0.9c-1.3-0.4-2.5-1-3.8-1.5c-0.9,0.2-1.8,0.4-2.7,0.7c-0.3-0.2-0.7-0.4-1-0.7c-3.1-0.3-5.7,1.9-8,3.7
			c-0.6,0.4-0.8,1.2-1.2,1.9c-1.4,0.8-2,2.3-2.6,3.7c0.1,0.2,0.4,0.6,0.6,0.9c-0.1,0.1-0.4,0.2-0.6,0.3c0.6,1.3-0.1,2.4-1.1,3.3
			c0.4,0.4,0.9,0.8,1.4,1.2c0.1,1.1,0.2,2.1,0.2,3.2c-0.1,0.4-0.2,0.9-0.3,1.4c0.7,0.4,1.4,0.8,2.1,1.2c0,0.3,0.1,1.1,0.1,1.4
			c1.6,1.6,3.5,3.1,5.6,4.2c1.1,0.1,2.3-0.6,3.5-0.2c0.9,1,1.6,2.1,2.4,3.2c0,1.3-0.4,2.9,0.4,4c0.9,1.4,2.6,2,3.4,3.5
			c0.6,1.3,2.2,0.7,3.3,0.9c0.4,0.5,0.8,1.1,1.1,1.6c1.4-0.6,2.8-1.3,4.3-1.5c0.6,0.5,1.2,1,1.9,1.4c0.5-0.8,0.6-2.2,1.8-2.1
			c0.7-0.1,1.4,0,2-0.3c0.3-0.7,0.5-1.4,0.9-2c0.6-0.5,1.5-0.7,2.1-1.3c0-0.7-0.1-1.5,0.1-2.2c0.4-0.7,0.9-1.3,1.3-2
			c0-1.4,0-2.7,0.2-4c-1-1.6-1.8-3.3-2.4-5c-1.1-1.4-2.5-2.6-3.8-3.8C132.1,44.9,130.2,45.4,128.7,44.8z"/>
		<path class="st5" d="M133.3,110.4c0.1-0.2,0.1-0.4,0.2-0.7c0.7-0.3,1.4-0.7,2-1.1c0.1,0,0.2,0,0.3,0
			C135.1,109.3,134.2,109.8,133.3,110.4L133.3,110.4z M67.2,76.2C64.9,75.4,69,74.5,67.2,76.2L67.2,76.2z M69,82.6
			c-0.2-0.7-0.4-1.4-0.7-2.1c-0.7-3.2-4-4.3-6.3-6c-2.2,0-4.5,0.1-6.7,0c-0.9,0.4-1.8,0.8-2.7,1.1c0,0,0,0,0,0.1
			c-0.3,0.2-1,0.5-1.3,0.7c0,0.3,0,0.8,0,1.1c0.8-0.2,1.5-0.4,2.3-0.5c0.4,1,0.7,2,1.2,3c0.8,0.3,1.5,0.3,2.3,0.6
			c0.4,0.6,0.8,1.2,1.1,1.9c0.6-0.1,1.2-0.2,1.8-0.2c0.4,0.5,0.8,1.1,1.2,1.7c0.2-0.2,0.6-0.5,0.8-0.7c0.9,0.4,1.9,0.7,2.9,0.2
			c1.1,0.3,2.1,0.1,3-0.5C68.2,82.5,68.6,82.6,69,82.6L69,82.6z M107.3,53.5c-0.7-0.5-1.4-1.2-2-1.8c0-0.3-0.1-1.1-0.1-1.4
			c-0.7-0.4-1.4-0.8-2.1-1.2c0.1-0.4,0.2-0.9,0.3-1.4c-0.1-1.1-0.1-2.1-0.2-3.2c-0.4-0.4-0.9-0.8-1.4-1.2c1-0.9,1.7-2,1.1-3.3
			c0.2-0.1,0.4-0.3,0.6-0.3c-0.2-0.2-0.5-0.7-0.6-0.9c0.5-1.2,1-2.4,2-3.3c0.9,0.9,1.6,1.9,1.9,3.1c1.1,3.6,1.7,7.6,1.5,11.4
			C108.3,51.4,107.9,52.5,107.3,53.5L107.3,53.5z M99.1,29c-0.3,0.3-0.5,0.7-0.8,1c0.3,0.3,0.8,1,1,1.3c-1.2,0.4-2.3,1-2.2,2.4
			c-0.5,0-1,0-1.5,0c0.2,0.3,0.5,0.9,0.6,1.2c-0.3-0.1-1-0.4-1.3-0.6c0,0.6,0,1.1,0,1.7c-1.1,0-2.2,0.1-3.2,0.3
			c-0.3,0.5-0.6,1-0.9,1.5c-0.3-0.2-0.9-0.7-1.2-0.9c-0.2,0-0.6-0.1-0.9-0.2c-0.3,0.3-0.5,0.7-0.9,1.1c-0.4-0.4-0.9-0.8-1.3-1.2
			c-0.6-0.4-1.3,0.3-1.8,0.5c-0.8-0.2-1.7-0.5-2.5-0.8c-0.6-1.1-1.5-2-2.6-2.7c-0.5,0.2-1.1,0.4-1.8,0.7c-0.3-0.7-0.1-1.5,0-2.2
			c-0.6-0.3-1.2-0.6-1.8-0.9c0.1-0.6,0.1-1.2,0.1-1.8c0.7,0.2,1.4,0.4,2.1,0.5c2.2-0.7,3.9-2.4,6.2-2.8c4.5-1.3,9.1-0.1,13.5,1
			C98.3,28.5,98.7,28.7,99.1,29L99.1,29z M64.5,56c0.2-0.2,0.5-0.4,0.7-0.5c0.9,0.4,1.9,0.7,3,0.9c0.5,1,1.3,1.6,2.5,1.3
			c0.9,0.6,1.9,1.2,2.4,2.3c0.4,1.5,2.5,1.8,2.8,3.3c0.4,1.3,1.3,2.7,0.4,4c-0.5,0.8,0.1,1.5,0.5,2.2l0,0c-3.9-1.1-8.3-2.8-10.3-6.6
			c-0.4-1.7-0.1-3.5-0.6-5.2C65.4,57,65,56.5,64.5,56L64.5,56z M43.2,13.4c-0.6,0-1.2,0.1-1.8,0.2c-0.6-0.5-1.1-1.1-1.6-1.6
			c-0.4,0.1-0.8,0.3-1.2,0.4c-2.1-2-4.5,1.1-6.8-0.1c-0.1,0.4-0.2,0.8-0.3,1.2c-0.9,0.8-1.9,1.4-2.9,2.1c-0.8,1-1.3,2.1-2.2,3.1
			c0,0.8,0.1,1.5,0.1,2.3c-0.3,0.4-0.7,0.8-1,1.2c0.8,2.4,0.8,5,2.1,7.2c1.3,0.5,2.5,1.4,3.5,2.2c-0.1,0.3-0.2,1-0.3,1.3
			c1.1-0.1,2.2,0,3.1,0.8c0.5-0.2,1.1-0.5,1.6-0.7c0.3,0.6,0.7,1.2,1.1,1.8c0.6-0.5,1.1-1.1,1.7-1.4c0.7,0.1,1.3,0.3,1.9,0.5
			c0.9-1.2,2.4-1.4,3.8-1.8c0.4-1,0.7-2,1.1-2.9c0.7-0.2,1.3-0.3,2-0.4c-0.2-0.7-0.4-1.4-0.7-2c0.4-0.1,1.1-0.4,1.4-0.6
			c-0.2-0.7-0.5-1.5-0.7-2.2c0.2-0.7,0.9-1.1,1.3-1.6c-0.5-0.2-0.9-0.4-1.4-0.6c-0.1-0.4-0.1-0.9-0.2-1.3c0.3-0.5,0.6-1,0.9-1.5
			c-0.3-0.1-1-0.4-1.4-0.5c-0.3-0.5-0.5-1-0.8-1.4c0.1-0.3,0.2-1,0.3-1.3c-0.8-0.1-1.5-0.2-2.2-0.4C43.6,14.5,43.4,14,43.2,13.4z"/>
	</g>
</g>
<g>
	<g>
		<path class="st6" d="M88.7,118.5c-0.1,0-0.1,0.4,0,0.9c0.1,0.5,0.5,1.3,1.2,1.9c0.7,0.6,1.5,0.9,2,0.9c0.6,0.1,0.9,0,0.9-0.1
			c0-0.2-1.3-0.3-2.4-1.3c-0.6-0.5-0.9-1.1-1.2-1.5C89,118.7,88.8,118.4,88.7,118.5z"/>
	</g>
	<g>
		<path class="st6" d="M62.5,117.9c0.1,0,0.1,0.4,0,0.9c-0.1,0.5-0.5,1.3-1.2,1.9c-0.7,0.6-1.5,0.9-2,0.9c-0.6,0.1-0.9,0-0.9-0.1
			c0-0.2,1.3-0.3,2.4-1.3c0.6-0.5,0.9-1.1,1.2-1.5C62.2,118.2,62.4,117.9,62.5,117.9z"/>
	</g>
</g>
<g>
	<g>
		<defs>
			<rect id="SVGID_1_" x="4.4" y="10.7" width="136.6" height="145.9"/>
		</defs>
		<clipPath id="SVGID_2_">
			<use xlink:href="#SVGID_1_"  style="overflow:visible;"/>
		</clipPath>
		<g class="st7">
			<g>
				<g>
					<g>
						<path class="st8" d="M82.8,45.3c0,0-15.2-12.4-30.6,0.7c0,0-9.6,14-17.6,12.9c0,0-11-1.8-6.7-15.6c2.5-8,8.5-15.2,15.3-20
							c6.3-4.4,13.9-6.8,21.5-5.6c8.3,1.3,18.2,5.6,22.5,13.3C90.2,36.3,87,41.6,82.8,45.3z"/>
						<path class="st8" d="M51.8,21.7c-3.3-2.8,0.2-9.7,4-6.9c1.6,1.1,1.2,4,1,5.5L51.8,21.7z"/>
						<path class="st8" d="M39.4,29.9c12-14.8,36.9-14.6,47.7,1.5c0.3,0.5,0.6,1,0.9,1.5c1.4,4.7-1.5,9.2-5.2,12.4
							c0,0-15.2-12.4-30.6,0.7c0,0-3.5,5.1-8,8.9c-3.7-0.6-7.1-1.1-9-4.9C31.5,43,34.9,35.5,39.4,29.9z"/>
						<path class="st8" d="M89.7,59.4c0,0,17.6,63.1-3.6,122.4l-38.6,28.8c-1.4-7.5-2.7-14.9-4.1-22.4c-0.9-4.8-1.7-9.5-2.6-14.3
							c-0.1-0.6-0.2-1.1-0.3-1.7c0-0.3-0.1-0.4,0-0.7c0.1-0.2,0.2-0.5,0.3-0.7c0-0.1,0.1-0.2,0.1-0.4c0-0.2-0.1-0.3-0.3-0.5
							c-0.1-0.2-0.3-0.3-0.4-0.5c0-0.1-0.1-0.1-0.1-0.2c0-0.1,0-0.2,0-0.3c0.6-2.9,1.3-5.7,2-8.6c1.9-8,3.5-16,4.3-24.1
							c2.3-24.1,2.2-47.9-5-71.1l5.3-6.4c0,0,32.4-2.8,33.2-2.8C80.7,56.1,89.7,59.4,89.7,59.4z"/>
						<g>
							<polygon class="st8" points="95.1,121.7 105.9,118.8 116.3,106.8 118,108.3 106.8,121.2 94.8,124.7 							"/>
						</g>
						<path class="st8" d="M51.1,124.9l-8,8.8l-14.7,3.8l0.2,1.5l15.1-3.1l9.2-9.2C53,126.6,50.9,125.3,51.1,124.9z"/>
						<path class="st8" d="M36.7,127.1c-2.5-2.1-6.7-2.8-9.7-2.9c-2.4,0-4.8,0.3-6.9,1.4c-6.1,3-7.5,11.5-2.2,16.2
							c2,1.7,4.5,2.5,7.1,2.7c2.6,0.2,6.9,0.8,9.1-0.9c2.3-1.7,0.2-5,1.9-6.8c0.4-0.4,1-0.8,1.4-1.2c0.9-0.9,1.3-2.1,1.4-3.3
							C39.1,130,38.2,128.3,36.7,127.1z"/>
						<path class="st8" d="M17,128.5c-0.2-0.2-0.4-0.3-0.8-0.3c-1.8,0-2.8,5.2-1.3,5.3C15.8,133.5,18,129.7,17,128.5z"/>
						<path class="st8" d="M16.7,131.3c0.3,0,0.5,0,0.7,0.2c0.4,0.2,0.5,0.6,0.6,1.1c0.2,1.6-1.2,2.8-2.6,3.6
							C13,137.4,13.7,131.3,16.7,131.3z"/>
						<path class="st8" d="M59.8,113.7c-0.6,14.6-3.7,29.4-7.1,43.7c-1.8,7.4-3.6,14.8-5.2,22.3c-1.5,6.8,1.6,11.1,9.1,10.4
							c9.6-0.9,11.8-9.9,14.1-17.8c2.6-9,4.4-18.2,5.9-27.4c2.5-14.8,3.9-30,2.7-45c-0.6-7.4-1.7-14.9-3.1-22.2
							c-1-5.5-2.2-11-3.7-16.4c-0.2-0.9-1.1-6.2-2.2-6.5c-0.6-0.2-1.7-1.5-2.6-1.9c-1.2-0.6-2.9-0.9-4.3-0.9
							c-3.1,0.1-6.5,1.4-9.7,1.8c1.1,7.1,2.1,14.2,3,21.2C58.6,87.7,60.3,100.9,59.8,113.7z"/>
						<path class="st8" d="M25,134.6c-0.2,0.9-0.1,1.8,0.2,2.7c0.7,2,2.7,3.6,4.9,3.9c1.1,0.1,2.3-0.1,2.9-1
							c0.6-0.9,0.3-2.1,0.3-3.2c0-2.5,3.3-4.1,0.2-6c-0.9-0.6-2-0.7-3.1-0.7c-1.2,0.1-2.5,0.4-3.4,1.2
							C25.9,132.2,25.2,133.3,25,134.6z"/>
						<ellipse class="st8" cx="26.7" cy="127.4" rx="2" ry="2.1"/>
						<ellipse class="st8" cx="22.3" cy="140.4" rx="2" ry="2.1"/>
						<ellipse class="st8" cx="21" cy="132.7" rx="2" ry="2.1"/>
						<g>
							<path class="st8" d="M125.1,98.5c3.5,0.3,1.9,4.9,0.9,6.8c-0.6,1.3-1.6,2.5-2.9,2.8c-0.1,0.1-0.3-0.4-0.4-0.5
								c-0.1-0.1-0.1-0.3-0.1-0.4c0.1-2.2,0.3-4.4,0.8-6.5c0.1-0.5,0.2-1,0.5-1.4C124.2,98.9,124.6,98.5,125.1,98.5z"/>
							<path class="st8" d="M117.7,109.7c0.5,0.1,1,0.2,1.7,0.3c1,0.1,2,0.2,3,0.3c0,0,1.8-11.5,1.8-11.5c0.1-0.4-3.6,0.9-3.7,1
								c-1.7,1.1-3,2.2-3.7,4.3c-0.6,1.5-0.8,3.2-0.9,4.8C116.5,109.3,117.1,109.5,117.7,109.7z"/>
							<path class="st8" d="M120.6,87c-0.2,0.3,0.4,22.7,0.3,23c-0.1,0.3,0.1,1.4,1.2,1.8c0,0,1.2,0.6,1.7-2l2.6-22.4
								c0,0-3.5-1.4-3.9-1.3C122.1,86.3,120.6,87,120.6,87z"/>
							<path class="st8" d="M119.6,108.5c1.5-0.4,2-2.5,1.5-3.8c1.3-0.2,4.6-0.6,4.2-2.7c-0.3-1.6-2.7-0.9-3.8-0.7
								c-2.1,0.3-3.7,1.3-4.5,3.4L119.6,108.5z"/>
							<path class="st8" d="M119.6,108.8C119.7,108.8,119.7,108.8,119.6,108.8c0.7-0.2,1.2-0.6,1.5-1.3c0.4-0.8,0.5-1.7,0.2-2.6
								c1.1-0.2,3.1-0.5,3.8-1.6c0.3-0.4,0.4-0.9,0.3-1.4c-0.3-1.6-2.2-1.3-3.4-1c-0.2,0-0.4,0.1-0.6,0.1c-2.3,0.3-3.9,1.5-4.7,3.5
								c-0.1,0.1,0,0.3,0.1,0.3c0.1,0.1,0.3,0,0.3-0.1c0.7-1.9,2.1-3,4.3-3.2c0.2,0,0.4-0.1,0.6-0.1c1.4-0.3,2.7-0.4,2.9,0.6
								c0.1,0.4,0,0.7-0.2,1c-0.7,0.9-2.6,1.2-3.6,1.4l-0.2,0c-0.1,0-0.1,0.1-0.2,0.1c0,0.1,0,0.1,0,0.2c0.3,0.7,0.2,1.7-0.1,2.5
								c-0.2,0.4-0.5,0.8-1.2,1c-0.1,0-0.2,0.2-0.2,0.3C119.4,108.7,119.5,108.8,119.6,108.8z"/>
							<path class="st8" d="M126.4,87.6c-0.6-0.2-3.2-1-3.5-1c-0.2,0-0.6-0.1-1.1-0.2c-0.5,0.3-1.2,0.5-1.2,0.5c0,0.1,0,1,0,2.4
								c1,0.4,3.1,0.9,5.5,0.3L126.4,87.6z"/>
							<g>
								<path class="st8" d="M119.8,88.2c0,0,4.6,1.5,7.2,0.3l-0.4-9.5l-4.6-0.5L119.8,88.2z"/>
								<path class="st9" d="M120.6,88.4c0.9,0.2,2.4,0.5,3.9,0.5c0.2-2.7,0.7-9.9,0.7-10.1l0,0l-2.5-0.2L120.6,88.4z"/>
								<path class="st8" d="M125.5,83.3c0,0.3,0,0.5,0.1,0.8c0.1,0.2,0.2,0.3,0.3,0.3c0.2,0,0.4-0.2,0.4-0.4c0.2-0.5,0.1-1,0-1.5
									c0-0.2-0.1-1-0.5-1C125.6,81.6,125.5,83,125.5,83.3C125.5,83.3,125.5,83.3,125.5,83.3z"/>
								<path class="st8" d="M126.5,86.6c-0.1,0.1-0.1,0.1-0.3,0.2c-0.7,0.1-0.8-1.2-0.2-1.4C126.7,85.2,126.8,86.2,126.5,86.6z"/>
							</g>
							<path class="st8" d="M129.7,71.6c-0.5-2.1-1.6-6.5,1.2-7.4c-3.8-0.3-7.3,1.7-9.7,4.6c-1.8,2.2-2.7,5.8-1.4,8.4
								c1.7,3.4,5.6,4.1,8.6,1.7C130.2,77.2,130.2,73.8,129.7,71.6z"/>
							<path class="st9" d="M127.8,72.1c-0.4-1.6-1.3-5,0.9-5.8c-2.9-0.2-5.6,1.3-7.5,3.5c-1.4,1.7-2.1,4.5-1.1,6.5
								c1.4,2.6,4.4,3.2,6.6,1.3C128.2,76.5,128.2,73.8,127.8,72.1z"/>
							<path class="st9" d="M128.4,74.1c0,0.2,0.1,0.3,0.2,0.4c0.2,0.2,0.6,0.2,0.9-0.1c0.1-0.1,0.1-0.2,0.1-0.3
								c0.1-0.5,0.1-2.8-0.9-2.7C127.9,71.6,128.3,73.6,128.4,74.1z"/>
							<g>
								<path class="st8" d="M130.9,64.2c-3.8-0.3-7.3,1.7-9.7,4.6c-0.5,0.6-0.9,1.3-1.3,2.1c0.9,1.2,1.9-0.8,2.8-0.5
									c0.4,0.1,0.6,0.5,0.7,0.9c0.2,1,0.3,2.3,1.7,2c1.4-0.3,0.8-2,1.8-2.6c1-0.6,1.5,0.9,2.6,0.4C129,68.7,128.3,65.1,130.9,64.2
									z"/>
								<path class="st8" d="M120.3,71.1c0.8,0.4,1.7-1.1,2.5-0.9c0.4,0.1,0.6,0.5,0.7,0.9c0.2,1,0.3,2.3,1.7,2
									c1.4-0.3,0.8-2,1.8-2.6c0.2-0.1,0.3-0.1,0.4-0.1c-0.4-3,0.5-5.4,0.4-5.3C122.9,66.1,120.6,70.5,120.3,71.1z"/>
							</g>
							<g>
								<path class="st8" d="M133.9,65.2c1.8,0.2,2.4,4.8,0.2,4.9c-0.6,0-1.2-0.4-1.4-0.9c-0.4-0.9-0.6-3.8,1-4
									C133.8,65.1,133.9,65.1,133.9,65.2z"/>
								
									<ellipse transform="matrix(0.9606 -0.278 0.278 0.9606 -13.269 40.0294)" class="st8" cx="134.5" cy="66.8" rx="0.6" ry="1.3"/>
							</g>
							<g>
								<path class="st8" d="M135.7,75.7c-0.6-1.4-3.6,0-1.6,1.4C135.6,78.1,136.3,77,135.7,75.7z"/>
								
									<ellipse transform="matrix(0.3189 -0.9478 0.9478 0.3189 20.3578 179.3399)" class="st8" cx="135" cy="75.5" rx="0.2" ry="0.3"/>
							</g>
						</g>
						<g>
							<g>
								<ellipse class="st8" cx="82.2" cy="87.1" rx="6.5" ry="8.7"/>
								<path class="st8" d="M79.4,86.7c1.1,0,2-1,2-2.2c0-0.8-0.4-1.5-0.9-1.9c0.5-0.3,1-0.5,1.6-0.5c2.1,0,3.8,2.3,3.8,5.1
									c0,2.8-1.7,5.1-3.8,5.1s-3.8-2.3-3.8-5.1c0-0.3,0-0.6,0.1-0.9C78.6,86.6,79,86.7,79.4,86.7z"/>
							</g>
							<circle class="st8" cx="80.1" cy="88.9" r="0.6"/>
						</g>
						<path class="st8" d="M40.8,173.9c-0.1-0.6-0.2-1.1-0.3-1.7c0-0.3-0.1-0.4,0-0.7c0.1-0.2,0.2-0.5,0.3-0.7
							c0-0.1,0.1-0.2,0.1-0.4c0-0.2-0.1-0.3-0.3-0.5c-0.1-0.2-0.3-0.3-0.4-0.5c0-0.1-0.1-0.1-0.1-0.2c0-0.1,0-0.2,0-0.3
							c0.6-2.9,1.3-5.7,2-8.6c1.9-8,3.5-16,4.3-24.1c2.3-24.1,2.2-47.9-5-71.1l2.9-3.5l7.1-3.3c1.5-0.1,3.2-0.3,5.2-0.4
							c1.2,7,2.1,14,2.9,21.1c1.3,12,1.9,24.1,1.8,36.2c-0.1,7.1-0.4,14.2-1.1,21.3c-0.5,4.6-1.4,9-2.2,13.5
							c-1.3,7.1-3.8,14-5.9,20.9c-0.5,1.7-1.5,4.3-2.7,5.7c-1.2,1.4-2.8,0.6-4.3,0.2c-0.3-0.1-3.6-0.8-3.7-1
							C41.1,175.3,41,174.6,40.8,173.9z"/>
						<g>
							<path class="st8" d="M86.3,181c-0.1,0.3-0.2,0.5-0.3,0.8l-38.6,28.8L40,169.3c0.4-0.2,0.8-0.3,1.2-0.4c2.6-0.3,7-0.5,8.7,2.1
								c0.6,0.8,0.8,1.8,1,2.8c1.1-4.2,5-7.4,9.4-6.5c9.8,1.9,8.6,11.1,8.6,11.1c3.1-6.9,9.6-4.4,9.6-4.4
								C82.3,175.2,84.7,177.8,86.3,181z"/>
							<path class="st8" d="M49.9,171c0.6,0.8,0.8,1.8,1,2.8c0.6-2.2,1.9-4.1,3.7-5.3c-1.3,9.1-4.1,31.8-4.1,31.8s-2.2,0.2-4.9,0.4
								L40,169.3c0.4-0.2,0.8-0.3,1.2-0.4C43.9,168.6,48.2,168.5,49.9,171z"/>
							<path class="st8" d="M50.9,173.8c1.1-4.2,5-7.4,9.4-6.5c7.7,1.5,8.6,7.4,8.6,9.9l-13.7,27l-7.1-0.8l2.5-30.5
								C50.8,173.2,50.9,173.5,50.9,173.8z"/>
						</g>
						<path class="st8" d="M44.6,194.8c7.4-1,12.9,3.3,15.7,6.2l-12.8,9.6L44.6,194.8z"/>
						<path class="st8" d="M62.6,35c1.7-0.5,3.6-0.8,5.7-0.8c5,0,11.4,1.8,14.4,6.1c3.9,5.7,6,12.7,7.6,19.3
							c-1.3-0.9-3.7-0.9-5.3-1.3c-2.5-0.6-5.1-1-7.6-1.3c-2.4-0.3-4.8-0.6-7.2-0.9c-1.7-0.2-5.6-1.5-7.1-1l-21.5,7.7l-2.7-8.9
							c3.2-3,6.3-5.9,9.5-8.9C53,40.7,57.1,36.7,62.6,35z"/>
						<g>
							<g>
								<ellipse class="st8" cx="59.2" cy="87.9" rx="6.5" ry="8.7"/>
								<path class="st8" d="M56.4,87.6c1.1,0,2-1,2-2.2c0-0.8-0.4-1.5-0.9-1.9c0.5-0.3,1-0.5,1.6-0.5c2.1,0,3.8,2.3,3.8,5.1
									S61,93.1,59,93.1c-2.1,0-3.8-2.3-3.8-5.1c0-0.3,0-0.6,0.1-0.9C55.6,87.4,56,87.6,56.4,87.6z"/>
							</g>
							<circle class="st8" cx="57.1" cy="89.7" r="0.6"/>
						</g>
						<path class="st8" d="M88.5,66.6c0,0,0,0-0.1-0.1c-0.1-0.1-0.2-0.2-0.3-0.3c-0.3-0.3-0.7-0.6-1.3-0.9c-0.6-0.3-1.3-0.5-2.1-0.6
							c-0.4-0.1-0.8-0.1-1.2-0.1c-0.4,0-0.9,0-1.3,0.1c-0.4,0.1-0.9,0.2-1.3,0.3c-0.4,0.1-0.8,0.3-1.1,0.5c-0.4,0.2-0.7,0.4-1,0.7
							c-0.1,0.1-0.3,0.2-0.4,0.4c-0.1,0.1-0.2,0.3-0.3,0.4c-0.2,0.3-0.4,0.5-0.5,0.7c-0.1,0.2-0.2,0.4-0.3,0.6
							c-0.2,0.3-0.2,0.5-0.2,0.5s0.2-0.1,0.5-0.3c0.1-0.1,0.3-0.2,0.5-0.3s0.5-0.2,0.7-0.3c0.1-0.1,0.3-0.1,0.4-0.2
							c0.1-0.1,0.3-0.1,0.4-0.2c0.3-0.1,0.6-0.2,0.9-0.3c0.2,0,0.3-0.1,0.5-0.1c0.2,0,0.3-0.1,0.5-0.1c0.3-0.1,0.7-0.1,1-0.2
							c0.3-0.1,0.7,0,1-0.1c0.3,0,0.7,0,1,0c0.7,0,1.3,0,1.9,0c0.6,0,1.1,0,1.4,0C88.3,66.6,88.5,66.6,88.5,66.6z"/>
						<path class="st8" d="M49.8,70.9c0,0,0.2-0.1,0.6-0.2c0.3-0.1,0.8-0.3,1.4-0.4c0.5-0.2,1.1-0.4,1.8-0.6c0.3-0.1,0.6-0.2,1-0.3
							c0.3-0.1,0.7-0.2,1-0.3c0.3-0.1,0.7-0.2,1-0.2c0.2,0,0.3,0,0.5-0.1c0.2,0,0.3,0,0.5,0c0.3,0,0.7,0,1,0c0.2,0,0.3,0,0.5,0
							c0.1,0,0.3,0,0.4,0.1c0.3,0,0.6,0,0.8,0.1s0.4,0.1,0.6,0.1c0.4,0.1,0.6,0.1,0.6,0.1s-0.1-0.2-0.4-0.4
							c-0.1-0.1-0.3-0.3-0.5-0.5c-0.2-0.2-0.4-0.3-0.7-0.5c-0.1-0.1-0.3-0.2-0.4-0.3c-0.2-0.1-0.3-0.1-0.5-0.2
							c-0.3-0.1-0.7-0.3-1.1-0.3c-0.4-0.1-0.8-0.1-1.3-0.1c-0.4,0-0.9,0-1.3,0.1c-0.4,0-0.8,0.2-1.3,0.3c-0.4,0.1-0.8,0.3-1.1,0.5
							c-0.7,0.4-1.3,0.8-1.7,1.3c-0.4,0.5-0.7,0.9-0.9,1.2c-0.1,0.2-0.2,0.3-0.2,0.4C49.8,70.8,49.8,70.9,49.8,70.9z"/>
						<path class="st8" d="M51.9,41.7c3.3-2.9,6.6-5.5,10.7-6.7c0.1,0,0.2-0.1,0.3-0.1c5.2,6.7,8.7,21.1,8.7,21.1l-0.7,0.1
							c-0.2,0-0.4-0.1-0.7-0.1c-1.7-0.2-5.6-1.5-7.1-1c0,0-3.3,1.2-7.3,2.6C55.2,54,53.2,46.3,51.9,41.7z"/>
						<path class="st8" d="M57.1,57.2c-6.4,2.3-15.5,5.5-15.5,5.5l-2.7-8.9c3.2-3,6.3-5.9,9.5-8.9c1.6-1.5,3.2-3,4.8-4.4
							C54.5,45.4,56.8,55.6,57.1,57.2z"/>
						<path class="st8" d="M41.3,68.6c0.7,0,1.5-0.2,2.1-0.7c18.7-15.1,45.9-5.9,46.2-5.8c1.7,0.6,3.7-0.3,4.3-2.1s-0.3-3.7-2.1-4.3
							c-1.3-0.4-31-10.5-52.6,6.9c-1.4,1.2-1.7,3.3-0.5,4.7C39.4,68.2,40.3,68.6,41.3,68.6z"/>
						<path class="st8" d="M39.8,65.3c0.2,0,0.4-0.1,0.5-0.2c17.8-14.3,41.3-9.5,50.6-6.8c0.5,0.1,0.6,0.2,0.7,0.2
							c0.5,0,0.8-0.4,0.8-0.8c0-0.4-0.3-0.8-0.7-0.8c-0.1,0-0.2-0.1-0.4-0.1c-9.5-2.8-33.7-7.7-52.1,7.1c-0.4,0.3-0.4,0.8-0.1,1.2
							C39.3,65.2,39.5,65.3,39.8,65.3z"/>
						<path class="st8" d="M84.9,30.2c0.9,1.4,1.9,4,0.7,5.5c-3.4,4.2-11.3-4.2-9.1-8.1C78.3,24.4,83.5,28.1,84.9,30.2z"/>
						<path class="st8" d="M73.3,27.5c2.7-0.6,2-4-0.6-4.3C69.6,22.8,69.7,28.4,73.3,27.5z"/>
						<path class="st8" d="M30.3,133.1c0,0.2,0,0.3,0,0.5c0.2,2.5,5.3,0,2.9-1.8C32.2,131,30.6,131.9,30.3,133.1z"/>
						<path class="st8" d="M26.8,127.4c0.3-0.5,1-1,1.3-0.1c0.2,0.5-0.5,1.2-1,1.1C26.6,128.3,26.6,127.8,26.8,127.4z"/>
						<path class="st8" d="M20.7,133.7c0,0,0,0.1,0.1,0.1c0.5,0.6,1.5,0.2,1.8-0.4c0.2-0.5,0.1-1-0.4-1.3
							C21.3,131.6,20.3,132.9,20.7,133.7z"/>
						<path class="st8" d="M23.5,141.2c-0.2,0.2-0.6,0.2-0.9,0c-0.9-0.6,0-2.7,1-1.9C24.2,139.8,24.1,140.9,23.5,141.2z"/>
					</g>
				</g>
				<g>
					<path class="st8" d="M54.3,98.5c0.8,2.5,3.5,2.8,5.7,2c3.3-1.2,6.7-2.4,9.8,0c0.3,0.2,0.5,0.5,0.7,0.7c0.2-0.3,0.4-0.5,0.6-0.7
						c2.5-2.2,5.5-1.5,8.4-1c2.4,0.4,5.3,0.8,7-1.3c0.6-0.7,0.9-1.7,0.7-2.5c2.7,3.8,1.1,10.3-3.4,12.1c-3.3,1.3-7.4,0.9-10.8,0
						c-1-0.3-1.9-1-2.4-1.9c-0.5,0.9-1.3,1.7-2.3,2c-3.7,1.3-8,1.6-11.8,0.2c-4.2-1.6-4.5-8.2-2.5-11.5
						C54.1,97.2,54.1,97.8,54.3,98.5z"/>
					<path class="st8" d="M77.8,99.8c-0.2,0-0.4-0.1-0.5-0.1c-1.9-0.5-6.4-0.3-6.5,2.5c0,0.8,0.5,1.6,1.2,2.1
						c0.7,0.5,1.5,0.7,2.4,0.8c1.7,0.2,3.4,0.1,5-0.4c-0.8-0.2-1.6-0.5-2.2-1c0.9,0.7,3.7-0.7,4.5-1.2c1.2-0.7,2.2-1.6,3.3-2.4
						C82.3,100.6,80.3,100.5,77.8,99.8z"/>
					<path class="st8" d="M63.2,103.9c0.1,0,0.2,0,0.2,0c-0.4,0.5-1.1,1-1.7,1.1c0,0,0.3,0.3,0.3,0.3c0.1,0.1,0.3,0.2,0.4,0.2
						c0.3,0.1,0.6,0.2,1,0.3c0.7,0.1,1.5,0.1,2.2-0.1c1.3-0.2,2.7-0.8,3.5-1.9c0.7-1.1,0.7-2.5-0.3-3.4c-1.5-1.2-3.3-1.1-5.1-0.6
						c-1.2,0.3-2.3,0.8-3.5,1.1c-0.4,0.1-2.8,0.8-3.1,0.5c0.6,0.6,1.4,0.9,2.2,1.1c0.8,0.2,1.6,0.1,2.4,0c-0.2,0.2-1.1,1.3-1.4,1.2
						C61.3,103.9,62.2,103.9,63.2,103.9z"/>
				</g>
			</g>
			<g>
				<g>
					<g>
						<g>
							<path class="st8" d="M71.5,121.7c6.8,0,12.6-0.7,14.6-1.6c0,6.2-7.1,10-14.6,10c-7.5,0-14.2-3.5-14.6-10
								C58.9,121,64.7,121.7,71.5,121.7z"/>
						</g>
					</g>
				</g>
				<path class="st8" d="M71.5,130.2c-5.4,0-10.3-1.8-12.8-5.2c0.1-0.6,0.2-1.2,0.3-1.5c-0.4-0.8-0.6-1.8-0.6-2.7c0,0,0-0.1,0-0.2
					c2.7,0.7,7.6,1.1,13.2,1.1c5.6,0,10.5-0.4,13.2-1.1c0,0.1,0,0.2,0,0.2c0,0.9-0.2,1.8-0.6,2.7c0.1,0.3,0.2,0.9,0.3,1.5
					C81.8,128.3,76.8,130.2,71.5,130.2z"/>
				<path class="st8" d="M82.6,124.1c0,0-4.1,2.6-12.4,2.3C73.7,127.4,79.7,126.4,82.6,124.1z"/>
			</g>
		</g>
	</g>
</g>
<path class="st10" d="M62.1,54.3c0,6.4,5.2,11.5,11.5,11.5c11.3,0,30.3-5.2,39.7,2.2c9.5,7.4,3.6,18.7-8.8,18.6
	c13.9,5.3,21.8-3.3,31.6-14.1c6.4-7,7.6-5.8,15.8-7.3c7.3-1.4,16.5,0.5,16.5-11c0-2.3,0-38.3,0-38.3c0-6.4-5.2-11.5-11.5-11.5H73.6
	C67.2,4.4,62,9.5,62,15.9L62.1,54.3L62.1,54.3z"/>
<radialGradient id="SVGID_3_" cx="92.5359" cy="154.8916" r="102.9611" gradientTransform="matrix(1 0 0 -1 0 158.11)" gradientUnits="userSpaceOnUse">
	<stop  offset="0" style="stop-color:#CAE815"/>
	<stop  offset="1" style="stop-color:#A7CA15"/>
</radialGradient>
<path class="st11" d="M56.7,51.1c0,6.4,5.2,11.5,11.5,11.5c11.3,0,30.3-5.2,39.7,2.2c9.5,7.4,3.6,18.7-8.8,18.6
	c13.9,5.3,21.8-3.3,31.6-14.1c6.4-7,7.6-5.8,15.8-7.3c7.3-1.4,16.5,0.5,16.5-11c0-2.3,0-38.3,0-38.3c0-6.4-5.2-11.5-11.5-11.5H68.2
	c-6.4,0-11.5,5.2-11.5,11.5L56.7,51.1L56.7,51.1z"/>
<g>
	<g>
		<defs>
			<rect id="SVGID_4_" x="8.4" y="10.7" width="136.6" height="145.9"/>
		</defs>
		<clipPath id="SVGID_5_">
			<use xlink:href="#SVGID_4_"  style="overflow:visible;"/>
		</clipPath>
		<g class="st12">
			<g>
				<g>
					<g>
						<path class="st13" d="M86.8,45.3c0,0-15.2-12.4-30.6,0.7c0,0-9.6,14-17.6,12.9c0,0-11-1.8-6.7-15.6c2.5-8,8.5-15.2,15.3-20
							c6.3-4.4,13.9-6.8,21.5-5.6c8.3,1.3,18.2,5.6,22.5,13.3C94.2,36.3,91,41.6,86.8,45.3z"/>
						<path class="st13" d="M55.8,21.7c-3.3-2.8,0.2-9.7,4-6.9c1.6,1.1,1.2,4,1,5.5L55.8,21.7z"/>
						<path class="st14" d="M43.4,29.9c12-14.8,36.9-14.6,47.7,1.5c0.3,0.5,0.6,1,0.9,1.5c1.4,4.7-1.5,9.2-5.2,12.4
							c0,0-15.2-12.4-30.6,0.7c0,0-3.5,5.1-8,8.9c-3.7-0.6-7.1-1.1-9-4.9C35.5,43,38.9,35.5,43.4,29.9z"/>
						<path class="st15" d="M93.7,59.4c0,0,17.6,63.1-3.6,122.4l-38.6,28.8c-1.4-7.5-2.7-14.9-4.1-22.4c-0.9-4.8-1.7-9.5-2.6-14.3
							c-0.1-0.6-0.2-1.1-0.3-1.7c0-0.3-0.1-0.4,0-0.7c0.1-0.2,0.2-0.5,0.3-0.7c0-0.1,0.1-0.2,0.1-0.4c0-0.2-0.1-0.3-0.3-0.5
							c-0.1-0.2-0.3-0.3-0.4-0.5c0-0.1-0.1-0.1-0.1-0.2c0-0.1,0-0.2,0-0.3c0.6-2.9,1.3-5.7,2-8.6c1.9-8,3.5-16,4.3-24.1
							c2.3-24.1,2.2-47.9-5-71.1l5.3-6.4c0,0,32.4-2.8,33.2-2.8C84.7,56.1,93.7,59.4,93.7,59.4z"/>
						<g>
							<polygon class="st16" points="99.1,121.7 109.9,118.8 120.3,106.8 122,108.3 110.8,121.2 98.8,124.7 							"/>
						</g>
						<path class="st17" d="M55.1,124.9l-8,8.8l-14.7,3.8l0.2,1.5l15.1-3.1l9.2-9.2C57,126.6,54.9,125.3,55.1,124.9z"/>
						<path class="st18" d="M40.7,127.1c-2.5-2.1-6.7-2.8-9.7-2.9c-2.4,0-4.8,0.3-6.9,1.4c-6.1,3-7.5,11.5-2.2,16.2
							c2,1.7,4.5,2.5,7.1,2.7c2.6,0.2,6.9,0.8,9.1-0.9c2.3-1.7,0.2-5,1.9-6.8c0.4-0.4,1-0.8,1.4-1.2c0.9-0.9,1.3-2.1,1.4-3.3
							C43.1,130,42.2,128.3,40.7,127.1z"/>
						<path class="st19" d="M21,128.5c-0.2-0.2-0.4-0.3-0.8-0.3c-1.8,0-2.8,5.2-1.3,5.3C19.8,133.5,22,129.7,21,128.5z"/>
						<path class="st16" d="M20.7,131.3c0.3,0,0.5,0,0.7,0.2c0.4,0.2,0.5,0.6,0.6,1.1c0.2,1.6-1.2,2.8-2.6,3.6
							C17,137.4,17.7,131.3,20.7,131.3z"/>
						<path class="st20" d="M63.8,113.7c-0.6,14.6-3.7,29.4-7.1,43.7c-1.8,7.4-3.6,14.8-5.2,22.3c-1.5,6.8,1.6,11.1,9.1,10.4
							c9.6-0.9,11.8-9.9,14.1-17.8c2.6-9,4.4-18.2,5.9-27.4c2.5-14.8,3.9-30,2.7-45c-0.6-7.4-1.7-14.9-3.1-22.2
							c-1-5.5-2.2-11-3.7-16.4c-0.2-0.9-1.1-6.2-2.2-6.5c-0.6-0.2-1.7-1.5-2.6-1.9c-1.2-0.6-2.9-0.9-4.3-0.9
							c-3.1,0.1-6.5,1.4-9.7,1.8c1.1,7.1,2.1,14.2,3,21.2C62.6,87.7,64.3,100.9,63.8,113.7z"/>
						<path class="st21" d="M29,134.6c-0.2,0.9-0.1,1.8,0.2,2.7c0.7,2,2.7,3.6,4.9,3.9c1.1,0.1,2.3-0.1,2.9-1
							c0.6-0.9,0.3-2.1,0.3-3.2c0-2.5,3.3-4.1,0.2-6c-0.9-0.6-2-0.7-3.1-0.7c-1.2,0.1-2.5,0.4-3.4,1.2
							C29.9,132.2,29.2,133.3,29,134.6z"/>
						<ellipse class="st22" cx="30.7" cy="127.4" rx="2" ry="2.1"/>
						<ellipse class="st23" cx="26.3" cy="140.4" rx="2" ry="2.1"/>
						<ellipse class="st24" cx="25" cy="132.7" rx="2" ry="2.1"/>
						<g>
							<path class="st25" d="M129.1,98.5c3.5,0.3,1.9,4.9,0.9,6.8c-0.6,1.3-1.6,2.5-2.9,2.8c-0.1,0.1-0.3-0.4-0.4-0.5
								c-0.1-0.1-0.1-0.3-0.1-0.4c0.1-2.2,0.3-4.4,0.8-6.5c0.1-0.5,0.2-1,0.5-1.4C128.2,98.9,128.6,98.5,129.1,98.5z"/>
							<path class="st16" d="M121.7,109.7c0.5,0.1,1,0.2,1.7,0.3c1,0.1,2,0.2,3,0.3c0,0,1.8-11.5,1.8-11.5c0.1-0.4-3.6,0.9-3.7,1
								c-1.7,1.1-3,2.2-3.7,4.3c-0.6,1.5-0.8,3.2-0.9,4.8C120.5,109.3,121.1,109.5,121.7,109.7z"/>
							<path class="st26" d="M124.6,87c-0.2,0.3,0.4,22.7,0.3,23c-0.1,0.3,0.1,1.4,1.2,1.8c0,0,1.2,0.6,1.7-2l2.6-22.4
								c0,0-3.5-1.4-3.9-1.3C126.1,86.3,124.6,87,124.6,87z"/>
							<path class="st16" d="M123.6,108.5c1.5-0.4,2-2.5,1.5-3.8c1.3-0.2,4.6-0.6,4.2-2.7c-0.3-1.6-2.7-0.9-3.8-0.7
								c-2.1,0.3-3.7,1.3-4.5,3.4L123.6,108.5z"/>
							<path class="st27" d="M123.6,108.8C123.7,108.8,123.7,108.8,123.6,108.8c0.7-0.2,1.2-0.6,1.5-1.3c0.4-0.8,0.5-1.7,0.2-2.6
								c1.1-0.2,3.1-0.5,3.8-1.6c0.3-0.4,0.4-0.9,0.3-1.4c-0.3-1.6-2.2-1.3-3.4-1c-0.2,0-0.4,0.1-0.6,0.1c-2.3,0.3-3.9,1.5-4.7,3.5
								c-0.1,0.1,0,0.3,0.1,0.3c0.1,0.1,0.3,0,0.3-0.1c0.7-1.9,2.1-3,4.3-3.2c0.2,0,0.4-0.1,0.6-0.1c1.4-0.3,2.7-0.4,2.9,0.6
								c0.1,0.4,0,0.7-0.2,1c-0.7,0.9-2.6,1.2-3.6,1.4l-0.2,0c-0.1,0-0.1,0.1-0.2,0.1c0,0.1,0,0.1,0,0.2c0.3,0.7,0.2,1.7-0.1,2.5
								c-0.2,0.4-0.5,0.8-1.2,1c-0.1,0-0.2,0.2-0.2,0.3C123.4,108.7,123.5,108.8,123.6,108.8z"/>
							<path class="st26" d="M130.4,87.6c-0.6-0.2-3.2-1-3.5-1c-0.2,0-0.6-0.1-1.1-0.2c-0.5,0.3-1.2,0.5-1.2,0.5c0,0.1,0,1,0,2.4
								c1,0.4,3.1,0.9,5.5,0.3L130.4,87.6z"/>
							<g>
								<path class="st28" d="M123.8,88.2c0,0,4.6,1.5,7.2,0.3l-0.4-9.5l-4.6-0.5L123.8,88.2z"/>
								<path class="st29" d="M124.6,88.4c0.9,0.2,2.4,0.5,3.9,0.5c0.2-2.7,0.7-9.9,0.7-10.1l0,0l-2.5-0.2L124.6,88.4z"/>
								<path class="st28" d="M129.5,83.3c0,0.3,0,0.5,0.1,0.8c0.1,0.2,0.2,0.3,0.3,0.3c0.2,0,0.4-0.2,0.4-0.4c0.2-0.5,0.1-1,0-1.5
									c0-0.2-0.1-1-0.5-1C129.6,81.6,129.5,83,129.5,83.3C129.5,83.3,129.5,83.3,129.5,83.3z"/>
								<path class="st28" d="M130.5,86.6c-0.1,0.1-0.1,0.1-0.3,0.2c-0.7,0.1-0.8-1.2-0.2-1.4C130.7,85.2,130.8,86.2,130.5,86.6z"/>
							</g>
							<path class="st30" d="M133.7,71.6c-0.5-2.1-1.6-6.5,1.2-7.4c-3.8-0.3-7.3,1.7-9.7,4.6c-1.8,2.2-2.7,5.8-1.4,8.4
								c1.7,3.4,5.6,4.1,8.6,1.7C134.2,77.2,134.2,73.8,133.7,71.6z"/>
							<path class="st31" d="M131.8,72.1c-0.4-1.6-1.3-5,0.9-5.8c-2.9-0.2-5.6,1.3-7.5,3.5c-1.4,1.7-2.1,4.5-1.1,6.5
								c1.4,2.6,4.4,3.2,6.6,1.3C132.2,76.5,132.2,73.8,131.8,72.1z"/>
							<path class="st31" d="M132.4,74.1c0,0.2,0.1,0.3,0.2,0.4c0.2,0.2,0.6,0.2,0.9-0.1c0.1-0.1,0.1-0.2,0.1-0.3
								c0.1-0.5,0.1-2.8-0.9-2.7C131.9,71.6,132.3,73.6,132.4,74.1z"/>
							<g>
								<path class="st21" d="M134.9,64.2c-3.8-0.3-7.3,1.7-9.7,4.6c-0.5,0.6-0.9,1.3-1.3,2.1c0.9,1.2,1.9-0.8,2.8-0.5
									c0.4,0.1,0.6,0.5,0.7,0.9c0.2,1,0.3,2.3,1.7,2c1.4-0.3,0.8-2,1.8-2.6c1-0.6,1.5,0.9,2.6,0.4C133,68.7,132.3,65.1,134.9,64.2
									z"/>
								<path class="st21" d="M124.3,71.1c0.8,0.4,1.7-1.1,2.5-0.9c0.4,0.1,0.6,0.5,0.7,0.9c0.2,1,0.3,2.3,1.7,2
									c1.4-0.3,0.8-2,1.8-2.6c0.2-0.1,0.3-0.1,0.4-0.1c-0.4-3,0.5-5.4,0.4-5.3C126.9,66.1,124.6,70.5,124.3,71.1z"/>
							</g>
							<g>
								<path class="st21" d="M137.9,65.2c1.8,0.2,2.4,4.8,0.2,4.9c-0.6,0-1.2-0.4-1.4-0.9c-0.4-0.9-0.6-3.8,1-4
									C137.8,65.1,137.9,65.1,137.9,65.2z"/>
								
									<ellipse transform="matrix(0.9606 -0.278 0.278 0.9606 -13.1114 41.1414)" class="st21" cx="138.5" cy="66.8" rx="0.6" ry="1.3"/>
							</g>
							<g>
								<path class="st21" d="M139.7,75.7c-0.6-1.4-3.6,0-1.6,1.4C139.6,78.1,140.3,77,139.7,75.7z"/>
								
									<ellipse transform="matrix(0.3189 -0.9478 0.9478 0.3189 23.0827 183.1322)" class="st21" cx="139" cy="75.5" rx="0.2" ry="0.3"/>
							</g>
						</g>
						<g>
							<g>
								<ellipse class="st32" cx="86.2" cy="87.1" rx="6.5" ry="8.7"/>
								<path class="st33" d="M83.4,86.7c1.1,0,2-1,2-2.2c0-0.8-0.4-1.5-0.9-1.9c0.5-0.3,1-0.5,1.6-0.5c2.1,0,3.8,2.3,3.8,5.1
									c0,2.8-1.7,5.1-3.8,5.1c-2.1,0-3.8-2.3-3.8-5.1c0-0.3,0-0.6,0.1-0.9C82.6,86.6,83,86.7,83.4,86.7z"/>
							</g>
							<circle class="st32" cx="84.1" cy="88.9" r="0.6"/>
						</g>
						<path class="st34" d="M44.8,173.9c-0.1-0.6-0.2-1.1-0.3-1.7c0-0.3-0.1-0.4,0-0.7c0.1-0.2,0.2-0.5,0.3-0.7
							c0-0.1,0.1-0.2,0.1-0.4c0-0.2-0.1-0.3-0.3-0.5c-0.1-0.2-0.3-0.3-0.4-0.5c0-0.1-0.1-0.1-0.1-0.2c0-0.1,0-0.2,0-0.3
							c0.6-2.9,1.3-5.7,2-8.6c1.9-8,3.5-16,4.3-24.1c2.3-24.1,2.2-47.9-5-71.1l2.9-3.5l7.1-3.3c1.5-0.1,3.2-0.3,5.2-0.4
							c1.2,7,2.1,14,2.9,21.1c1.3,12,1.9,24.1,1.8,36.2c-0.1,7.1-0.4,14.2-1.1,21.3c-0.5,4.6-1.4,9-2.2,13.5
							c-1.3,7.1-3.8,14-5.9,20.9c-0.5,1.7-1.5,4.3-2.7,5.7c-1.2,1.4-2.8,0.6-4.3,0.2c-0.3-0.1-3.6-0.8-3.7-1
							C45.1,175.3,45,174.6,44.8,173.9z"/>
						<g>
							<path class="st35" d="M90.3,181c-0.1,0.3-0.2,0.5-0.3,0.8l-38.6,28.8L44,169.3c0.4-0.2,0.8-0.3,1.2-0.4
								c2.6-0.3,7-0.5,8.7,2.1c0.6,0.8,0.8,1.8,1,2.8c1.1-4.2,5-7.4,9.4-6.5c9.8,1.9,8.6,11.1,8.6,11.1c3.1-6.9,9.6-4.4,9.6-4.4
								C86.3,175.2,88.7,177.8,90.3,181z"/>
							<path class="st36" d="M53.9,171c0.6,0.8,0.8,1.8,1,2.8c0.6-2.2,1.9-4.1,3.7-5.3c-1.3,9.1-4.1,31.8-4.1,31.8s-2.2,0.2-4.9,0.4
								L44,169.3c0.4-0.2,0.8-0.3,1.2-0.4C47.9,168.6,52.2,168.5,53.9,171z"/>
							<path class="st37" d="M54.9,173.8c1.1-4.2,5-7.4,9.4-6.5c7.7,1.5,8.6,7.4,8.6,9.9l-13.7,27l-7.1-0.8l2.5-30.5
								C54.8,173.2,54.9,173.5,54.9,173.8z"/>
						</g>
						<path class="st38" d="M48.6,194.8c7.4-1,12.9,3.3,15.7,6.2l-12.8,9.6L48.6,194.8z"/>
						<path class="st39" d="M66.6,35c1.7-0.5,3.6-0.8,5.7-0.8c5,0,11.4,1.8,14.4,6.1c3.9,5.7,6,12.7,7.6,19.3
							c-1.3-0.9-3.7-0.9-5.3-1.3c-2.5-0.6-5.1-1-7.6-1.3c-2.4-0.3-4.8-0.6-7.2-0.9c-1.7-0.2-5.6-1.5-7.1-1l-21.5,7.7L43,53.8
							c3.2-3,6.3-5.9,9.5-8.9C57,40.7,61.1,36.7,66.6,35z"/>
						<g>
							<g>
								<ellipse class="st32" cx="63.2" cy="87.9" rx="6.5" ry="8.7"/>
								<path class="st33" d="M60.4,87.6c1.1,0,2-1,2-2.2c0-0.8-0.4-1.5-0.9-1.9c0.5-0.3,1-0.5,1.6-0.5c2.1,0,3.8,2.3,3.8,5.1
									S65,93.1,63,93.1c-2.1,0-3.8-2.3-3.8-5.1c0-0.3,0-0.6,0.1-0.9C59.6,87.4,60,87.6,60.4,87.6z"/>
							</g>
							<circle class="st32" cx="61.1" cy="89.7" r="0.6"/>
						</g>
						<path class="st33" d="M92.5,66.6c0,0,0,0-0.1-0.1c-0.1-0.1-0.2-0.2-0.3-0.3c-0.3-0.3-0.7-0.6-1.3-0.9
							c-0.6-0.3-1.3-0.5-2.1-0.6c-0.4-0.1-0.8-0.1-1.2-0.1c-0.4,0-0.9,0-1.3,0.1c-0.4,0.1-0.9,0.2-1.3,0.3c-0.4,0.1-0.8,0.3-1.1,0.5
							c-0.4,0.2-0.7,0.4-1,0.7c-0.1,0.1-0.3,0.2-0.4,0.4c-0.1,0.1-0.2,0.3-0.3,0.4c-0.2,0.3-0.4,0.5-0.5,0.7
							c-0.1,0.2-0.2,0.4-0.3,0.6c-0.2,0.3-0.2,0.5-0.2,0.5s0.2-0.1,0.5-0.3c0.1-0.1,0.3-0.2,0.5-0.3s0.5-0.2,0.7-0.3
							c0.1-0.1,0.3-0.1,0.4-0.2c0.1-0.1,0.3-0.1,0.4-0.2c0.3-0.1,0.6-0.2,0.9-0.3c0.2,0,0.3-0.1,0.5-0.1c0.2,0,0.3-0.1,0.5-0.1
							c0.3-0.1,0.7-0.1,1-0.2c0.3-0.1,0.7,0,1-0.1c0.3,0,0.7,0,1,0c0.7,0,1.3,0,1.9,0c0.6,0,1.1,0,1.4,0
							C92.3,66.6,92.5,66.6,92.5,66.6z"/>
						<path class="st33" d="M53.8,70.9c0,0,0.2-0.1,0.6-0.2c0.3-0.1,0.8-0.3,1.4-0.4c0.5-0.2,1.1-0.4,1.8-0.6c0.3-0.1,0.6-0.2,1-0.3
							c0.3-0.1,0.7-0.2,1-0.3c0.3-0.1,0.7-0.2,1-0.2c0.2,0,0.3,0,0.5-0.1c0.2,0,0.3,0,0.5,0c0.3,0,0.7,0,1,0c0.2,0,0.3,0,0.5,0
							c0.1,0,0.3,0,0.4,0.1c0.3,0,0.6,0,0.8,0.1s0.4,0.1,0.6,0.1c0.4,0.1,0.6,0.1,0.6,0.1s-0.1-0.2-0.4-0.4
							c-0.1-0.1-0.3-0.3-0.5-0.5c-0.2-0.2-0.4-0.3-0.7-0.5c-0.1-0.1-0.3-0.2-0.4-0.3c-0.2-0.1-0.3-0.1-0.5-0.2
							c-0.3-0.1-0.7-0.3-1.1-0.3c-0.4-0.1-0.8-0.1-1.3-0.1c-0.4,0-0.9,0-1.3,0.1c-0.4,0-0.8,0.2-1.3,0.3c-0.4,0.1-0.8,0.3-1.1,0.5
							c-0.7,0.4-1.3,0.8-1.7,1.3c-0.4,0.5-0.7,0.9-0.9,1.2c-0.1,0.2-0.2,0.3-0.2,0.4C53.8,70.8,53.8,70.9,53.8,70.9z"/>
						<path class="st40" d="M55.9,41.7c3.3-2.9,6.6-5.5,10.7-6.7c0.1,0,0.2-0.1,0.3-0.1c5.2,6.7,8.7,21.1,8.7,21.1l-0.7,0.1
							c-0.2,0-0.4-0.1-0.7-0.1c-1.7-0.2-5.6-1.5-7.1-1c0,0-3.3,1.2-7.3,2.6C59.2,54,57.2,46.3,55.9,41.7z"/>
						<path class="st41" d="M61.1,57.2c-6.4,2.3-15.5,5.5-15.5,5.5l-2.7-8.9c3.2-3,6.3-5.9,9.5-8.9c1.6-1.5,3.2-3,4.8-4.4
							C58.5,45.4,60.8,55.6,61.1,57.2z"/>
						<path class="st42" d="M45.3,68.6c0.7,0,1.5-0.2,2.1-0.7c18.7-15.1,45.9-5.9,46.2-5.8c1.7,0.6,3.7-0.3,4.3-2.1
							s-0.3-3.7-2.1-4.3c-1.3-0.4-31-10.5-52.6,6.9c-1.4,1.2-1.7,3.3-0.5,4.7C43.4,68.2,44.3,68.6,45.3,68.6z"/>
						<path class="st42" d="M43.8,65.3c0.2,0,0.4-0.1,0.5-0.2c17.8-14.3,41.3-9.5,50.6-6.8c0.5,0.1,0.6,0.2,0.7,0.2
							c0.5,0,0.8-0.4,0.8-0.8c0-0.4-0.3-0.8-0.7-0.8c-0.1,0-0.2-0.1-0.4-0.1c-9.5-2.8-33.7-7.7-52.1,7.1c-0.4,0.3-0.4,0.8-0.1,1.2
							C43.3,65.2,43.5,65.3,43.8,65.3z"/>
						<path class="st43" d="M88.9,30.2c0.9,1.4,1.9,4,0.7,5.5c-3.4,4.2-11.3-4.2-9.1-8.1C82.3,24.4,87.5,28.1,88.9,30.2z"/>
						<path class="st43" d="M77.3,27.5c2.7-0.6,2-4-0.6-4.3C73.6,22.8,73.7,28.4,77.3,27.5z"/>
						<path class="st21" d="M34.3,133.1c0,0.2,0,0.3,0,0.5c0.2,2.5,5.3,0,2.9-1.8C36.2,131,34.6,131.9,34.3,133.1z"/>
						<path class="st22" d="M30.8,127.4c0.3-0.5,1-1,1.3-0.1c0.2,0.5-0.5,1.2-1,1.1C30.6,128.3,30.6,127.8,30.8,127.4z"/>
						<path class="st24" d="M24.7,133.7c0,0,0,0.1,0.1,0.1c0.5,0.6,1.5,0.2,1.8-0.4c0.2-0.5,0.1-1-0.4-1.3
							C25.3,131.6,24.3,132.9,24.7,133.7z"/>
						<path class="st23" d="M27.5,141.2c-0.2,0.2-0.6,0.2-0.9,0c-0.9-0.6,0-2.7,1-1.9C28.2,139.8,28.1,140.9,27.5,141.2z"/>
					</g>
				</g>
				<g>
					<path class="st33" d="M58.3,98.5c0.8,2.5,3.5,2.8,5.7,2c3.3-1.2,6.7-2.4,9.8,0c0.3,0.2,0.5,0.5,0.7,0.7
						c0.2-0.3,0.4-0.5,0.6-0.7c2.5-2.2,5.5-1.5,8.4-1c2.4,0.4,5.3,0.8,7-1.3c0.6-0.7,0.9-1.7,0.7-2.5c2.7,3.8,1.1,10.3-3.4,12.1
						c-3.3,1.3-7.4,0.9-10.8,0c-1-0.3-1.9-1-2.4-1.9c-0.5,0.9-1.3,1.7-2.3,2c-3.7,1.3-8,1.6-11.8,0.2c-4.2-1.6-4.5-8.2-2.5-11.5
						C58.1,97.2,58.1,97.8,58.3,98.5z"/>
					<path class="st33" d="M81.8,99.8c-0.2,0-0.4-0.1-0.5-0.1c-1.9-0.5-6.4-0.3-6.5,2.5c0,0.8,0.5,1.6,1.2,2.1
						c0.7,0.5,1.5,0.7,2.4,0.8c1.7,0.2,3.4,0.1,5-0.4c-0.8-0.2-1.6-0.5-2.2-1c0.9,0.7,3.7-0.7,4.5-1.2c1.2-0.7,2.2-1.6,3.3-2.4
						C86.3,100.6,84.3,100.5,81.8,99.8z"/>
					<path class="st33" d="M67.2,103.9c0.1,0,0.2,0,0.2,0c-0.4,0.5-1.1,1-1.7,1.1c0,0,0.3,0.3,0.3,0.3c0.1,0.1,0.3,0.2,0.4,0.2
						c0.3,0.1,0.6,0.2,1,0.3c0.7,0.1,1.5,0.1,2.2-0.1c1.3-0.2,2.7-0.8,3.5-1.9c0.7-1.1,0.7-2.5-0.3-3.4c-1.5-1.2-3.3-1.1-5.1-0.6
						c-1.2,0.3-2.3,0.8-3.5,1.1c-0.4,0.1-2.8,0.8-3.1,0.5c0.6,0.6,1.4,0.9,2.2,1.1c0.8,0.2,1.6,0.1,2.4,0c-0.2,0.2-1.1,1.3-1.4,1.2
						C65.3,103.9,66.2,103.9,67.2,103.9z"/>
				</g>
			</g>
		</g>
	</g>
	<g>
		<defs>
			<rect id="SVGID_6_" x="8.4" y="10.7" width="136.6" height="145.9"/>
		</defs>
		<clipPath id="SVGID_7_">
			<use xlink:href="#SVGID_6_"  style="overflow:visible;"/>
		</clipPath>
		<path class="st44" d="M65.3,118.3h20.9c0,1.5-0.1,3-0.4,4.4c-1,5.9-4.5,12.1-11.4,11.3C67.4,133.2,64.8,124.6,65.3,118.3z"/>
	</g>
	<g>
		<defs>
			<rect id="SVGID_8_" x="8.4" y="10.7" width="136.6" height="145.9"/>
		</defs>
		<clipPath id="SVGID_9_">
			<use xlink:href="#SVGID_8_"  style="overflow:visible;"/>
		</clipPath>
		<path class="st45" d="M65.3,121.2H86c0.1-1,0.2-1.9,0.2-2.9H65.3C65.3,119.2,65.3,120.2,65.3,121.2z"/>
	</g>
	<g>
		<defs>
			<rect id="SVGID_10_" x="8.4" y="10.7" width="136.6" height="145.9"/>
		</defs>
		<clipPath id="SVGID_11_">
			<use xlink:href="#SVGID_10_"  style="overflow:visible;"/>
		</clipPath>
		<path class="st46" d="M81.9,131.4H69.2c1.4,1.4,3.1,2.4,5.3,2.7C77.6,134.4,80.1,133.3,81.9,131.4z"/>
	</g>
</g>
<g>
	<path class="st47" d="M115.2,38.4h-0.9c-1.3,0-2.3-0.5-2.9-1.5c-0.7,1-1.7,1.5-3.2,1.5H101c-2.2,0-3.6-1.4-3.6-3.4v-2l1.9-1.9v3.7
		c0,1.3,0.7,2,2,2h6.7c1.3,0,2-0.7,2-2v-4.9l1.9-0.5v4.8c0,1.7,0.8,2.6,2.5,2.6h0.8L115.2,38.4L115.2,38.4z M104.4,29.6
		c0,0.6-0.5,1-1,1s-1-0.5-1-1c0-0.6,0.5-1,1-1S104.4,29.1,104.4,29.6z M107,29.6c0,0.6-0.5,1-1,1c-0.5,0-1-0.5-1-1c0-0.6,0.5-1,1-1
		C106.6,28.6,107,29.1,107,29.6z"/>
	<path class="st47" d="M122.9,38.4h-1.2c-1.2,0-2.1-0.4-2.8-1.1c-0.7,0.7-1.6,1.1-2.8,1.1h-1.4v-1.6h1.3c1.3,0,2-0.7,2-2v-4.8
		l1.9-0.6v5.4c0,1.3,0.7,2,2,2h1.1L122.9,38.4L122.9,38.4z M119.9,26.6c0,0.6-0.5,1-1,1s-1-0.5-1-1c0-0.6,0.5-1,1-1
		S119.9,26,119.9,26.6z"/>
	<path class="st47" d="M140.7,38.4h-18.2v-1.7h2.4v-5.1l1.9-0.5v5.6h4v-5.9l1.9-0.6v6.5h4v-6.8l1.9-0.6v7.3h2.2L140.7,38.4
		L140.7,38.4z"/>
	<path class="st47" d="M150.9,38.4h-10.6v-1.6h8.7V36c0-1.5-0.1-2.6-0.4-3.3c-0.4-1.1-1.3-1.7-2.6-1.7c-1.1,0-2.1,0.5-3.1,1.5
		l-1.4-1.3c1.3-1.3,2.8-2,4.4-2c2,0,3.4,0.7,4.2,2.2c0.5,1,0.8,2.5,0.8,4.5V38.4z"/>
	<path class="st47" d="M155.2,24.7h-3.3l0.4-0.7h0.6v-0.4c0-0.9,0.4-1.4,1.3-1.4c0.3,0,0.6,0.1,0.9,0.4l-0.4,0.6
		c-0.1-0.2-0.3-0.3-0.5-0.3c-0.3,0-0.5,0.2-0.5,0.7v0.4h1.6V24.7z M154.5,38.4h-1.9V26.1l1.9-0.6V38.4z"/>
</g>
</svg>
