<?xml version="1.0" encoding="utf-8"?>
<!-- Generator: Adobe Illustrator 19.2.0, SVG Export Plug-In . SVG Version: 6.00 Build 0)  -->
<svg version="1.1" id="Layer_1" xmlns="http://www.w3.org/2000/svg" xmlns:xlink="http://www.w3.org/1999/xlink" x="0px" y="0px"
	 viewBox="0 0 168.4 156.8" style="enable-background:new 0 0 168.4 156.8;" xml:space="preserve">
<style type="text/css">
	.st0{opacity:0.4;enable-background:new    ;}
	.st1{fill:#FFDE9C;}
	.st2{opacity:0.5;}
	.st3{fill:#AEC90B;}
	.st4{fill:#DAE182;}
	.st5{fill:#C6D65D;}
	.st6{fill:#532913;}
	.st7{opacity:0.2;clip-path:url(#SVGID_2_);}
	.st8{fill:#020202;}
	.st9{opacity:0.5;fill:#020202;enable-background:new    ;}
	.st10{opacity:0.2;fill:#020202;enable-background:new    ;}
	.st11{fill:url(#SVGID_3_);stroke:#DFF275;stroke-width:2;stroke-miterlimit:10;}
	.st12{clip-path:url(#SVGID_5_);}
	.st13{fill:#FFCE03;}
	.st14{fill:#FFE42D;}
	.st15{fill:#FF3829;}
	.st16{fill:#EF5355;}
	.st17{fill:#D42C40;}
	.st18{fill:#CFE9EF;}
	.st19{fill:#CE4749;}
	.st20{fill:#E51717;}
	.st21{fill:#47BCEC;}
	.st22{fill:#E99423;}
	.st23{fill:#2F8942;}
	.st24{fill:#8A55A1;}
	.st25{fill:#EF4B53;}
	.st26{fill:#2E6A2E;}
	.st27{fill:#B6313E;}
	.st28{fill:#567C7D;}
	.st29{opacity:0.5;fill:#567C7D;enable-background:new    ;}
	.st30{fill:#6D3B40;}
	.st31{opacity:0.5;fill:#6D3B40;enable-background:new    ;}
	.st32{fill:#FFFFFF;}
	.st33{fill:#341A10;}
	.st34{fill:#C41010;}
	.st35{fill:#FCC58C;}
	.st36{fill:#F58E7A;}
	.st37{fill:#F8A882;}
	.st38{fill:#1D1D1D;}
	.st39{fill:#557878;}
	.st40{fill:#476D6C;}
	.st41{fill:#3A605D;}
	.st42{fill:#688885;}
	.st43{fill:#FFEAB3;}
	.st44{clip-path:url(#SVGID_7_);}
	.st45{fill:#542914;}
	.st46{fill:#455100;}
</style>
<g>
	<polygon class="st0" points="153.3,41.2 145,156.3 8.2,156.3 0,41.2 	"/>
	<rect x="8.4" y="10.4" class="st1" width="136.4" height="145.9"/>
	<g class="st2">
		<path class="st3" d="M128.7,111.9c-2-1.5-4.7-1.3-6.9-2.5c-1.4-2.9-1.9-6.1-1.8-9.3c1-1.6,1.9-3.3,3.2-4.7c1.9-1.5,4-2.7,6.1-3.8
			c0.8-0.8,1.6-1.5,2.5-2.2c1.4,0.1,2.7,0.7,4.2,0.9l-0.5-1.4c0.9-0.2,1.8-0.5,2.6-0.7c1.2,0.8,2,2.6,0.7,3.6
			c-1.3,0.9-2.4-0.7-3.2-1.4c-0.2,0.4-0.5,1.1-0.7,1.5l0.3-0.2c0.8,1.5,1.7,3,3.2,4c1,2.1,1.8,4.3,1.3,6.6
			C138.5,107.4,133.6,110.7,128.7,111.9L128.7,111.9z M62.2,10.4c0.9,0.1,1.6,0.4,2.3,1c-0.7,0.8-1.3,1.5-2,2.2
			c-0.1,3-1.9,5.3-3.8,7.4c1.1,0.9,2.2,1.8,3.2,2.6c-1.2,0.9-2.6,0.7-4,0.3c-1,0.8-2.2,1.4-2.9,2.4c-1,1.3-0.7,3-0.8,4.5
			c-1.9,1.7-4.1,3.1-6.8,2.9c-0.6,0.5-1.2,1.1-1.8,1.6c-1.7-0.3-3.4-0.8-5.1-1c-0.7,0.8-1.3,1.5-2,2.2c-0.8-0.8-1.4-1.9-2.4-2.5
			c-1.6-0.2-3.3-0.1-4.9-0.5c-2.4-1.9-4.2-4.9-7.6-5.4c-0.7-1.6-1.4-3.2-2.2-4.8c0.2-1.3-0.1-2.5-1-3.4c-1-2.7-0.8-5.6,0.1-8.2
			c-0.3-0.4-0.7-0.8-1-1.2L62.2,10.4L62.2,10.4z M113.8,113.7c-2.4-0.5-6.3,0.2-6.9-3.1c-0.1-2.6,3.2-3.5,5.3-4.1
			c1.3,0.7,3.1,1.1,3.3,2.8C116,111,114.5,112.4,113.8,113.7L113.8,113.7z M42.6,70.1c-1.3-0.7-0.7-2.2-0.8-3.4
			c1.5-0.3,3.1-0.5,4.6-0.4c0,1,0.1,2,0.1,3C45.8,70.6,43.8,71.1,42.6,70.1L42.6,70.1z M27.3,96.7c-4,1.1-8.4-0.1-11.2-3.2
			c-0.6-0.9-1.3-1.8-1.9-2.6c-1.4-3.3-1.7-7-0.8-10.6c1.8-2.1,3.5-4.7,6.2-5.8c2.8-1.2,5.8,0.2,8.7-0.1c1.1,1.1,2.2,2.1,3.3,3.2
			c0,0.9,0,1.9,0.1,2.8c0.8,0.1,1.5,0.2,2.3,0.3c1.2,2.9,1.3,6.1,0.8,9.1C33.7,93.2,30.3,95.2,27.3,96.7L27.3,96.7z M93.4,114.9
			c-0.3,0.7-0.7,1.3-1,2c-0.3-0.3-1.1-1-1.5-1.3c-1.9-0.3-3.3-1.5-4.5-3c-0.4-1-0.8-2.1-1.1-3.1c1.6-2.2,3.1-5.2,6-5.9
			c3.6-1.2,7.9,1.5,8,5.4c-0.3,1.3-0.8,2.5-1.2,3.7c-0.8,0.2-1.6,0.3-2.4,0.5c0.2,0.8,0.5,1.6,0.7,2.5
			C95.4,115.4,94.4,115.1,93.4,114.9L93.4,114.9z M53.1,47c2.2-0.6,3.9-2.2,5.5-3.6c1.4-2,1.1-4.7,0.5-6.9c-1.5-0.8-3.1-1.4-4.6-2.1
			c-2.1,2.1-5.7,1.6-7.1,4.4c-1.4,1.6-0.3,3.9-0.1,5.7C49.2,45.5,51,46.8,53.1,47L53.1,47z M27.9,110c0.3-2.3,1.9-4.5,4.4-4.2
			c2.7,1.1,1.9,4.7,0,6.1C30.6,113,29.3,110.8,27.9,110L27.9,110z M67.2,75.9C64.9,75.1,69,74.2,67.2,75.9L67.2,75.9z M69.5,110
			c3.1-1.5,2.9-5.5,4.7-8c1.4-0.7,3.5-0.5,4.2-2.2c0.7-1.5,1.1-3.2,1.6-4.8c-1.2-3.8-5-5.9-8.9-5.5c-2.3-2.6-1.5-6.3-2.9-9.3
			c-0.7-3.2-4-4.3-6.3-6c-2.2,0-4.5,0.1-6.7,0c-1.4,0.7-2.9,1.2-4.5,1.4c-2.7,1.3-4.3,3.8-5.2,6.6c-1,1.6-3.3,3.5-2,5.5
			c0.8,1.4,2.1,2.3,3.3,3.3c0,1.3,0.1,2.5,0.2,3.8c0.8-0.2,1.6-0.4,2.5-0.6c0.2,0.2,0.7,0.7,0.9,0.9c-0.1,1-0.2,1.9-0.2,2.9
			c0.9-0.8,1.8-1.5,2.8-2.2c0.9,0.5,1,1.6,1.3,2.5c1.5-2.3,3.6,0.1,4.9,1.4c-0.1,1.9-1.4,3.5-2.4,5.1c-2,2.7-6.1,0.9-8.2,3.4
			c-2.8,2-3.6,6-1.9,9c1.6,3,5.7,3.6,8.7,2.5c2.6-1.8,3.3-5.4,6.1-7.2C64.3,111.6,67.1,111.5,69.5,110L69.5,110z M107.4,54.2
			c2.6-4.8-0.1-13.6-0.7-15.7c-0.5-2-2-3.4-3.6-4.6c-2.3-1.5-2.6-4.9-5.3-6c-4.4-1.1-9-2.3-13.5-1c-2.3,0.4-4,2.1-6.2,2.8
			c-2.1-0.2-4.2-1.7-6.1-0.3c0.1,0.7,0.2,2,0.3,2.6c-1.1,0.2-2.3,0.2-3.4,0.5c-1.2,2.6-2,5.5-1.6,8.4c0.3,2.7-0.2,5.4-0.8,8
			c-1.6,1.3-3.6,2.7-3.3,5.1c0.9,1,1.9,2,2.6,3.2c0.5,1.7,0.2,3.5,0.6,5.2c2.1,3.8,11.8,6.1,15.8,7.2c0.5,0.2-0.2,4.1-0.7,7.7
			c-1.4,9.9,4.2,7.6,3.4,1.2c-0.5-4.3-1.5-9.4,0.7-11.3c1.6-1.4,6.2-1,8,3.9c6.4,17.3,9.8,8.7,1.4-0.6c-5.4-6-4.3-12.4,2.8-8.5
			C125.5,77.5,102.6,63.2,107.4,54.2L107.4,54.2z M40,46.7c-1.1-0.4-1.9-1.3-2.8-2c0.3-0.7,0.7-1.5,1.1-2.2c0.5-0.3,1.4-1,1.9-1.3
			c0.9,0.8,2.4,1.3,2.2,2.7C42.6,45.4,41.2,46.3,40,46.7L40,46.7z M22.5,140.4c1.1,0.5,1.2,1.1,0,1.7
			C21.4,141.5,21.4,140.9,22.5,140.4z"/>
		<path class="st4" d="M145,23.8c-0.4-0.4-0.8-0.8-1.3-1.1c-1.1,1-1.5,2.5-2.4,3.6c-1.4,1.9-1.2,4.4-1.1,6.6c0.3,1.3,1,2.4,1.1,3.8
			c0.4,0.2,0.8,0.4,1.2,0.7c-0.1,0.3-0.2,0.7-0.3,1c0.1,0.3,0.4,0.8,0.5,1.1c-0.8,0.8-1.4,1.8-2.6,2.1c-1.4,0.3-2.8,0.4-4.2,0.7
			c-0.2-0.1-0.8-0.4-1-0.5c-0.1-0.3-0.2-1.1-0.3-1.5c0.2-2.5,0.6-5.3,2.6-7.2c1.1-2,0.5-4.3,0.7-6.4c0.1-2,0.7-4.1-0.3-5.9
			c-1.5-0.3-3.1-0.9-4.7-0.4c-1.9,0.5-3.7,1.2-5.6,1c-0.4-1-0.6-2.1-1.1-3.1c-0.8-0.4-1.7-0.7-2.6-0.9c-0.5,0.3-1,0.7-1.5,1
			c-0.8-1.9-2.3-3.6-4.4-3.9c-1,0-2,0.2-3.1,0.3c-0.4-1-0.1-2.9-1.6-3.1c-0.7-0.3-2,0-2.3-0.9c0-0.1,0.1-0.3,0.2-0.4H145L145,23.8
			L145,23.8z M90.9,10.4c0.1,0.4,0.3,1.3,0.3,1.7c1.1,0.4,2.3,0.7,3.5,0.9c0.3,0.8,0.8,1.5,1.4,2.2c0.8-0.2,1.5-0.4,2.2-0.5
			c-0.2,0.8-0.5,1.5-0.8,2.2c0.5,1.5,1.6,2.6,3.1,3.2c-0.1,0.7-0.8,1.2-1.1,1.9c0.5,0.6,1.2,1,1.8,1.5c-0.4,0.2-1.2,0.7-1.5,1
			c0.2,1,0.6,2,1,3c-1,0.5-1.9,1.4-2.4,2.4c0.3,0.3,0.8,1,1,1.3c-1.2,0.4-2.3,1-2.2,2.4c-0.5,0-1,0-1.5,0c0.2,0.3,0.5,0.9,0.6,1.2
			c-0.3-0.1-1-0.4-1.3-0.6c0,0.6,0,1.1,0,1.7c-1.1,0-2.2,0.1-3.2,0.3c-0.3,0.5-0.6,1-0.9,1.5c-0.3-0.2-0.9-0.7-1.2-0.9
			c-0.2,0-0.6-0.1-0.9-0.2c-0.3,0.3-0.5,0.7-0.9,1.1c-0.4-0.4-0.9-0.8-1.3-1.2c-0.6-0.4-1.3,0.3-1.8,0.5c-0.8-0.2-1.7-0.5-2.5-0.8
			c-0.6-1.1-1.5-2-2.6-2.7c-0.5,0.2-1.1,0.4-1.8,0.7c-0.3-0.7-0.1-1.5,0-2.2c-0.6-0.3-1.2-0.6-1.8-0.9c0.2-1.4,0.2-3-0.5-4.3
			c-0.6-0.2-1.2-0.3-1.8-0.4c0.4-0.7,0.9-1.3,1.2-2.1c0-0.9-0.6-1.6-0.8-2.4c0.6-0.8,1.2-1.6,1.8-2.5c-0.2-0.8-0.5-1.5-0.7-2.3
			c0.5,0,0.9,0,1.4,0.1c0.9-0.8,1.3-1.9,1.3-3.1c2-0.3,3.3-2.1,5-2.9c2.1,0.5,4.3,0.2,6.4,0.1C89.8,11.2,90.5,10.7,90.9,10.4
			L90.9,10.4L90.9,10.4z M43.8,14.8c-0.2-0.5-0.4-1.1-0.7-1.7c-0.6,0-1.2,0.1-1.8,0.2c-0.6-0.5-1.1-1.1-1.6-1.6
			c-0.4,0.1-0.8,0.3-1.2,0.4c-2.1-2-4.5,1.1-6.8-0.1c-0.1,0.4-0.2,0.8-0.3,1.2c-0.9,0.8-1.9,1.4-2.9,2.1c-0.8,1-1.3,2.1-2.2,3.1
			c0,0.8,0.1,1.5,0.1,2.3c-0.3,0.4-0.7,0.8-1,1.2c0.8,2.4,0.8,5,2.1,7.2c1.3,0.5,2.5,1.4,3.5,2.2c-0.1,0.3-0.2,1-0.3,1.3
			c1.1-0.1,2.2,0,3.1,0.8c0.5-0.2,1.1-0.5,1.6-0.7c0.3,0.6,0.7,1.2,1.1,1.8c0.6-0.5,1.1-1.1,1.7-1.4c0.7,0.1,1.3,0.3,1.9,0.5
			c0.9-1.2,2.4-1.4,3.8-1.8c0.4-1,0.7-2,1.1-2.9c0.7-0.2,1.3-0.3,2-0.4c-0.2-0.7-0.4-1.4-0.7-2c0.4-0.1,1.1-0.4,1.4-0.6
			c-0.2-0.7-0.5-1.5-0.7-2.2c0.2-0.7,0.9-1.1,1.3-1.6c-0.5-0.2-0.9-0.4-1.4-0.6c-0.1-0.4-0.1-0.9-0.2-1.3c0.3-0.5,0.6-1,0.9-1.5
			c-0.3-0.1-1-0.4-1.4-0.5c-0.3-0.5-0.5-1-0.8-1.4c0.1-0.3,0.2-1,0.3-1.3C45.3,15.1,44.6,15,43.8,14.8L43.8,14.8z M33.1,62
			c-0.7,1,0.7,1.6,1.5,1.9c0.3-0.5,0.5-1.1,0.8-1.6C35.1,61.3,33.4,60.8,33.1,62L33.1,62z M73,59.6c-0.4-1.1-1.4-1.7-2.4-2.3
			c-1.1,0.3-2-0.4-2.5-1.3c-1-0.2-2-0.4-3-0.9c-0.6,0.4-1.1,0.9-1.7,1.4c-0.4-0.6-0.9-1.2-1.4-1.8c-0.4,0.7-0.7,1.4-1.3,2
			c-0.9,0.2-1.4-0.8-2.1-1.1c-0.9,0.3-0.2,1.8-1,2.2c-1.3,0.7-2.6,1.4-4,2c0.1,0.6,0.1,1.2,0.2,1.9c-1.5,0.9-2,2.7-3.2,3.9
			c1.4,0.8,1.5,2.5,1,3.8c-0.7,0.6-2,0.7-2.2,1.7c0.8,0.3,1.6,0.4,2.4,0.4c0.3,1.2,0.7,2.4,0.9,3.6c-0.3,0.2-1,0.5-1.3,0.7
			c0,0.3,0,0.8,0,1.1c0.8-0.2,1.5-0.4,2.3-0.5c0.4,1,0.7,2,1.2,3c0.8,0.3,1.5,0.3,2.3,0.6c0.4,0.6,0.8,1.2,1.1,1.9
			c0.6-0.1,1.2-0.2,1.8-0.2c0.4,0.5,0.8,1.1,1.2,1.7c0.2-0.2,0.6-0.5,0.8-0.7c0.9,0.4,1.9,0.7,2.9,0.2c1.1,0.3,2.1,0.1,3-0.5
			c0.4,0,0.8,0,1.1,0c0.6-0.7,1.1-1.3,1.7-1.9c0.7-0.1,1.3-0.2,1.9-0.3c0.2-0.5,0.3-1.1,0.4-1.6c0.8-0.8,1.6-1.5,2.3-2.4
			c0.8-1.6,0.2-3.7,1.5-5.1c1.5-1.2-1.4-2.5-0.4-4c0.8-1.3-0.1-2.7-0.4-4C75.5,61.4,73.4,61.1,73,59.6L73,59.6z M62.5,37.3
			c-0.8-0.7-1.5,0.5-2,1c0.4,0.3,0.9,0.7,1.4,1C62.9,39.3,63.5,37.9,62.5,37.3L62.5,37.3z M36.9,55.5c1.4-0.1,2.8,0.2,3.7,1.4
			c0,0.9,0.2,1.9-0.4,2.7c-0.6,1-1.8,1.1-2.8,1.4c-0.8-0.8-2-1.3-2-2.5C35.3,57.4,36.1,56.4,36.9,55.5L36.9,55.5z M107.7,83.1
			c-1.5-0.2-3.1-0.4-4.6-0.7c-1.7,0.9-3,2.3-3.9,4c0,0.7,0.1,1.4,0.1,2.1c0.2,0.7,0.4,1.4,0.4,2.1c0.6,0.7,1.2,1.5,2,2
			c1.5,0.6,3.4,0.9,5,0c1.7-0.8,2.4-2.7,3.6-4.1C110.5,86.4,109.2,84.6,107.7,83.1L107.7,83.1z M125.2,79.7
			c-0.1-0.1-0.4-0.3-0.6-0.4c0.1-0.2,0.3-0.5,0.4-0.6c-0.9,0.3-1.9,0.1-2.7-0.3c-1.2,0.2-2.5,0.4-3.7,0.5c-0.7,0.4-1.4,0.7-2.1,1.1
			c-0.3,1.2-0.8,2.4-1.6,3.4c-0.3,1.5,0.6,2.7,0.9,4.2c-0.6,0.1-1.1-0.1-1.7-0.3c-0.5,0.3-1,0.7-1.5,1c-0.5,0.4-1,0.9-1.5,1.3
			c-0.2,1.5-0.5,3.3,0.5,4.6c2,3.1,7.3,2.5,8.9-0.7c-0.1-0.6-0.3-1.1-0.5-1.6c0.1-0.3,0.3-1,0.4-1.3c0.6,0.2,1.2,0.5,1.9,0.7
			c1.9,0,3.5-1.2,4-3.1c0.2-0.1,0.7-0.3,0.9-0.5c0.3-1.1,0.8-2.2,0.9-3.4C127.9,82.3,126.3,81.1,125.2,79.7L125.2,79.7z M128.7,44.5
			c-0.2-1.5,0.1-3-0.9-4.3c0.1-0.2,0.3-0.5,0.4-0.8c-0.1-0.8-0.2-1.7-0.3-2.5c-1.2-0.9-2.4-2-2.3-3.6c-1-0.6-2-1.1-3.2-1.4
			c-0.1-0.2-0.3-0.7-0.4-0.9c-1.3-0.4-2.5-1-3.8-1.5c-0.9,0.2-1.8,0.4-2.7,0.7c-0.3-0.2-0.7-0.4-1-0.7c-3.1-0.3-5.7,1.9-8,3.7
			c-0.6,0.4-0.8,1.2-1.2,1.9c-1.4,0.8-2,2.3-2.6,3.7c0.1,0.2,0.4,0.6,0.6,0.9c-0.1,0.1-0.4,0.2-0.6,0.3c0.6,1.3-0.1,2.4-1.1,3.3
			c0.4,0.4,0.9,0.8,1.4,1.2c0.1,1.1,0.2,2.1,0.2,3.2c-0.1,0.4-0.2,0.9-0.3,1.4c0.7,0.4,1.4,0.8,2.1,1.2c0,0.3,0.1,1.1,0.1,1.4
			c1.6,1.6,3.5,3.1,5.6,4.2c1.1,0.1,2.3-0.6,3.5-0.2c0.9,1,1.6,2.1,2.4,3.2c0,1.3-0.4,2.9,0.4,4c0.9,1.4,2.6,2,3.4,3.5
			c0.6,1.3,2.2,0.7,3.3,0.9c0.4,0.5,0.8,1.1,1.1,1.6c1.4-0.6,2.8-1.3,4.3-1.5c0.6,0.5,1.2,1,1.9,1.4c0.5-0.8,0.6-2.2,1.8-2.1
			c0.7-0.1,1.4,0,2-0.3c0.3-0.7,0.5-1.4,0.9-2c0.6-0.5,1.5-0.7,2.1-1.3c0-0.7-0.1-1.5,0.1-2.2c0.4-0.7,0.9-1.3,1.3-2
			c0-1.4,0-2.7,0.2-4c-1-1.6-1.8-3.3-2.4-5c-1.1-1.4-2.5-2.6-3.8-3.8C132.1,44.6,130.2,45.1,128.7,44.5z"/>
		<path class="st5" d="M133.3,110.1c0.1-0.2,0.1-0.4,0.2-0.7c0.7-0.3,1.4-0.7,2-1.1c0.1,0,0.2,0,0.3,0
			C135.1,109,134.2,109.6,133.3,110.1L133.3,110.1z M67.2,75.9C64.9,75.1,69,74.2,67.2,75.9L67.2,75.9z M69,82.3
			c-0.2-0.7-0.4-1.4-0.7-2.1c-0.7-3.2-4-4.3-6.3-6c-2.2,0-4.5,0.1-6.7,0c-0.9,0.4-1.8,0.8-2.7,1.1c0,0,0,0,0,0.1
			c-0.3,0.2-1,0.5-1.3,0.7c0,0.3,0,0.8,0,1.1c0.8-0.2,1.5-0.4,2.3-0.5c0.4,1,0.7,2,1.2,3c0.8,0.3,1.5,0.3,2.3,0.6
			c0.4,0.6,0.8,1.2,1.1,1.9c0.6-0.1,1.2-0.2,1.8-0.2c0.4,0.5,0.8,1.1,1.2,1.7c0.2-0.2,0.6-0.5,0.8-0.7c0.9,0.4,1.9,0.7,2.9,0.2
			c1.1,0.3,2.1,0.1,3-0.5C68.2,82.3,68.6,82.3,69,82.3L69,82.3z M107.3,53.3c-0.7-0.5-1.4-1.2-2-1.8c0-0.3-0.1-1.1-0.1-1.4
			c-0.7-0.4-1.4-0.8-2.1-1.2c0.1-0.4,0.2-0.9,0.3-1.4c-0.1-1.1-0.1-2.1-0.2-3.2c-0.4-0.4-0.9-0.8-1.4-1.2c1-0.9,1.7-2,1.1-3.3
			c0.2-0.1,0.4-0.3,0.6-0.3c-0.2-0.2-0.5-0.7-0.6-0.9c0.5-1.2,1-2.4,2-3.3c0.9,0.9,1.6,1.9,1.9,3.1c1.1,3.6,1.7,7.6,1.5,11.4
			C108.3,51.2,107.9,52.2,107.3,53.3L107.3,53.3z M99.1,28.8c-0.3,0.3-0.5,0.7-0.8,1c0.3,0.3,0.8,1,1,1.3c-1.2,0.4-2.3,1-2.2,2.4
			c-0.5,0-1,0-1.5,0c0.2,0.3,0.5,0.9,0.6,1.2c-0.3-0.1-1-0.4-1.3-0.6c0,0.6,0,1.1,0,1.7c-1.1,0-2.2,0.1-3.2,0.3
			c-0.3,0.5-0.6,1-0.9,1.5c-0.3-0.2-0.9-0.7-1.2-0.9c-0.2,0-0.6-0.1-0.9-0.2c-0.3,0.3-0.5,0.7-0.9,1.1c-0.4-0.4-0.9-0.8-1.3-1.2
			c-0.6-0.4-1.3,0.3-1.8,0.5c-0.8-0.2-1.7-0.5-2.5-0.8c-0.6-1.1-1.5-2-2.6-2.7c-0.5,0.2-1.1,0.4-1.8,0.7c-0.3-0.7-0.1-1.5,0-2.2
			c-0.6-0.3-1.2-0.6-1.8-0.9c0.1-0.6,0.1-1.2,0.1-1.8c0.7,0.2,1.4,0.4,2.1,0.5c2.2-0.7,3.9-2.4,6.2-2.8c4.5-1.3,9.1-0.1,13.5,1
			C98.3,28.2,98.7,28.5,99.1,28.8L99.1,28.8z M64.5,55.7c0.2-0.2,0.5-0.4,0.7-0.5c0.9,0.4,1.9,0.7,3,0.9c0.5,1,1.3,1.6,2.5,1.3
			c0.9,0.6,1.9,1.2,2.4,2.3c0.4,1.5,2.5,1.8,2.8,3.3c0.4,1.3,1.3,2.7,0.4,4c-0.5,0.8,0.1,1.5,0.5,2.2l0,0c-3.9-1.1-8.3-2.8-10.3-6.6
			c-0.4-1.7-0.1-3.5-0.6-5.2C65.4,56.8,65,56.2,64.5,55.7L64.5,55.7z M43.2,13.2c-0.6,0-1.2,0.1-1.8,0.2c-0.6-0.5-1.1-1.1-1.6-1.6
			c-0.4,0.1-0.8,0.3-1.2,0.4c-2.1-2-4.5,1.1-6.8-0.1c-0.1,0.4-0.2,0.8-0.3,1.2c-0.9,0.8-1.9,1.4-2.9,2.1c-0.8,1-1.3,2.1-2.2,3.1
			c0,0.8,0.1,1.5,0.1,2.3c-0.3,0.4-0.7,0.8-1,1.2c0.8,2.4,0.8,5,2.1,7.2c1.3,0.5,2.5,1.4,3.5,2.2c-0.1,0.3-0.2,1-0.3,1.3
			c1.1-0.1,2.2,0,3.1,0.8c0.5-0.2,1.1-0.5,1.6-0.7c0.3,0.6,0.7,1.2,1.1,1.8c0.6-0.5,1.1-1.1,1.7-1.4c0.7,0.1,1.3,0.3,1.9,0.5
			c0.9-1.2,2.4-1.4,3.8-1.8c0.4-1,0.7-2,1.1-2.9c0.7-0.2,1.3-0.3,2-0.4c-0.2-0.7-0.4-1.4-0.7-2c0.4-0.1,1.1-0.4,1.4-0.6
			c-0.2-0.7-0.5-1.5-0.7-2.2c0.2-0.7,0.9-1.1,1.3-1.6c-0.5-0.2-0.9-0.4-1.4-0.6c-0.1-0.4-0.1-0.9-0.2-1.3c0.3-0.5,0.6-1,0.9-1.5
			c-0.3-0.1-1-0.4-1.4-0.5c-0.3-0.5-0.5-1-0.8-1.4c0.1-0.3,0.2-1,0.3-1.3c-0.8-0.1-1.5-0.2-2.2-0.4C43.6,14.3,43.4,13.7,43.2,13.2z"
			/>
	</g>
</g>
<g>
	<g>
		<path class="st6" d="M88.7,118.2c-0.1,0-0.1,0.4,0,0.9c0.1,0.5,0.5,1.3,1.2,1.9c0.7,0.6,1.5,0.9,2,0.9c0.6,0.1,0.9,0,0.9-0.1
			c0-0.2-1.3-0.3-2.4-1.3c-0.6-0.5-0.9-1.1-1.2-1.5C89,118.5,88.8,118.2,88.7,118.2z"/>
	</g>
	<g>
		<path class="st6" d="M62.5,117.6c0.1,0,0.1,0.4,0,0.9c-0.1,0.5-0.5,1.3-1.2,1.9c-0.7,0.6-1.5,0.9-2,0.9c-0.6,0.1-0.9,0-0.9-0.1
			c0-0.2,1.3-0.3,2.4-1.3c0.6-0.5,0.9-1.1,1.2-1.5C62.2,117.9,62.4,117.6,62.5,117.6z"/>
	</g>
</g>
<g>
	<g>
		<defs>
			<rect id="SVGID_1_" x="4.4" y="10.4" width="136.6" height="145.9"/>
		</defs>
		<clipPath id="SVGID_2_">
			<use xlink:href="#SVGID_1_"  style="overflow:visible;"/>
		</clipPath>
		<g class="st7">
			<g>
				<g>
					<g>
						<path class="st8" d="M82.8,45.1c0,0-15.2-12.4-30.6,0.7c0,0-9.6,14-17.6,12.9c0,0-11-1.8-6.7-15.6c2.5-8,8.5-15.2,15.3-20
							c6.3-4.4,13.9-6.8,21.5-5.6C73,18.7,82.9,23,87.2,30.7C90.2,36.1,87,41.4,82.8,45.1z"/>
						<path class="st8" d="M51.8,21.4c-3.3-2.8,0.2-9.7,4-6.9c1.6,1.1,1.2,4,1,5.5L51.8,21.4z"/>
						<path class="st8" d="M39.4,29.6c12-14.8,36.9-14.6,47.7,1.5c0.3,0.5,0.6,1,0.9,1.5c1.4,4.7-1.5,9.2-5.2,12.4
							c0,0-15.2-12.4-30.6,0.7c0,0-3.5,5.1-8,8.9c-3.7-0.6-7.1-1.1-9-4.9C31.5,42.7,34.9,35.2,39.4,29.6z"/>
						<path class="st8" d="M89.7,59.2c0,0,17.6,63.1-3.6,122.4l-38.6,28.8c-1.4-7.5-2.7-14.9-4.1-22.4c-0.9-4.8-1.7-9.5-2.6-14.3
							c-0.1-0.6-0.2-1.1-0.3-1.7c0-0.3-0.1-0.4,0-0.7c0.1-0.2,0.2-0.5,0.3-0.7c0-0.1,0.1-0.2,0.1-0.4c0-0.2-0.1-0.3-0.3-0.5
							c-0.1-0.2-0.3-0.3-0.4-0.5c0-0.1-0.1-0.1-0.1-0.2c0-0.1,0-0.2,0-0.3c0.6-2.9,1.3-5.7,2-8.6c1.9-8,3.5-16,4.3-24.1
							c2.3-24.1,2.2-47.9-5-71.1l5.3-6.4c0,0,32.4-2.8,33.2-2.8C80.7,55.8,89.7,59.2,89.7,59.2z"/>
						<g>
							<polygon class="st8" points="95.1,121.5 105.9,118.5 116.3,106.5 118,108.1 106.8,120.9 94.8,124.4 							"/>
						</g>
						<path class="st8" d="M51.1,124.7l-8,8.8l-14.7,3.8l0.2,1.5l15.1-3.1l9.2-9.2C53,126.4,50.9,125.1,51.1,124.7z"/>
						<path class="st8" d="M36.7,126.8c-2.5-2.1-6.7-2.8-9.7-2.9c-2.4,0-4.8,0.3-6.9,1.4c-6.1,3-7.5,11.5-2.2,16.2
							c2,1.7,4.5,2.5,7.1,2.7c2.6,0.2,6.9,0.8,9.1-0.9c2.3-1.7,0.2-5,1.9-6.8c0.4-0.4,1-0.8,1.4-1.2c0.9-0.9,1.3-2.1,1.4-3.3
							C39.1,129.7,38.2,128,36.7,126.8z"/>
						<path class="st8" d="M17,128.3c-0.2-0.2-0.4-0.3-0.8-0.3c-1.8,0-2.8,5.2-1.3,5.3C15.8,133.2,18,129.4,17,128.3z"/>
						<path class="st8" d="M16.7,131c0.3,0,0.5,0,0.7,0.2c0.4,0.2,0.5,0.6,0.6,1.1c0.2,1.6-1.2,2.8-2.6,3.6
							C13,137.2,13.7,131,16.7,131z"/>
						<path class="st8" d="M59.8,113.4c-0.6,14.6-3.7,29.4-7.1,43.7c-1.8,7.4-3.6,14.8-5.2,22.3c-1.5,6.8,1.6,11.1,9.1,10.4
							c9.6-0.9,11.8-9.9,14.1-17.8c2.6-9,4.4-18.2,5.9-27.4c2.5-14.8,3.9-30,2.7-45c-0.6-7.4-1.7-14.9-3.1-22.2
							c-1-5.5-2.2-11-3.7-16.4c-0.2-0.9-1.1-6.2-2.2-6.5c-0.6-0.2-1.7-1.5-2.6-1.9c-1.2-0.6-2.9-0.9-4.3-0.9
							c-3.1,0.1-6.5,1.4-9.7,1.8c1.1,7.1,2.1,14.2,3,21.2C58.6,87.5,60.3,100.6,59.8,113.4z"/>
						<path class="st8" d="M25,134.3c-0.2,0.9-0.1,1.8,0.2,2.7c0.7,2,2.7,3.6,4.9,3.9c1.1,0.1,2.3-0.1,2.9-1
							c0.6-0.9,0.3-2.1,0.3-3.2c0-2.5,3.3-4.1,0.2-6c-0.9-0.6-2-0.7-3.1-0.7c-1.2,0.1-2.5,0.4-3.4,1.2C25.9,132,25.2,133.1,25,134.3
							z"/>
						<ellipse class="st8" cx="26.7" cy="127.2" rx="2" ry="2.1"/>
						<ellipse class="st8" cx="22.3" cy="140.2" rx="2" ry="2.1"/>
						<ellipse class="st8" cx="21" cy="132.4" rx="2" ry="2.1"/>
						<g>
							<path class="st8" d="M125.1,98.3c3.5,0.3,1.9,4.9,0.9,6.8c-0.6,1.3-1.6,2.5-2.9,2.8c-0.1,0.1-0.3-0.4-0.4-0.5
								c-0.1-0.1-0.1-0.3-0.1-0.4c0.1-2.2,0.3-4.4,0.8-6.5c0.1-0.5,0.2-1,0.5-1.4C124.2,98.7,124.6,98.2,125.1,98.3z"/>
							<path class="st8" d="M117.7,109.4c0.5,0.1,1,0.2,1.7,0.3c1,0.1,2,0.2,3,0.3c0,0,1.8-11.5,1.8-11.5c0.1-0.4-3.6,0.9-3.7,1
								c-1.7,1.1-3,2.2-3.7,4.3c-0.6,1.5-0.8,3.2-0.9,4.8C116.5,109,117.1,109.2,117.7,109.4z"/>
							<path class="st8" d="M120.6,86.7c-0.2,0.3,0.4,22.7,0.3,23c-0.1,0.3,0.1,1.4,1.2,1.8c0,0,1.2,0.6,1.7-2l2.6-22.4
								c0,0-3.5-1.4-3.9-1.3C122.1,86,120.6,86.7,120.6,86.7z"/>
							<path class="st8" d="M119.6,108.3c1.5-0.4,2-2.5,1.5-3.8c1.3-0.2,4.6-0.6,4.2-2.7c-0.3-1.6-2.7-0.9-3.8-0.7
								c-2.1,0.3-3.7,1.3-4.5,3.4L119.6,108.3z"/>
							<path class="st8" d="M119.6,108.5C119.7,108.5,119.7,108.5,119.6,108.5c0.7-0.2,1.2-0.6,1.5-1.3c0.4-0.8,0.5-1.7,0.2-2.6
								c1.1-0.2,3.1-0.5,3.8-1.6c0.3-0.4,0.4-0.9,0.3-1.4c-0.3-1.6-2.2-1.3-3.4-1c-0.2,0-0.4,0.1-0.6,0.1c-2.3,0.3-3.9,1.5-4.7,3.5
								c-0.1,0.1,0,0.3,0.1,0.3c0.1,0.1,0.3,0,0.3-0.1c0.7-1.9,2.1-3,4.3-3.2c0.2,0,0.4-0.1,0.6-0.1c1.4-0.3,2.7-0.4,2.9,0.6
								c0.1,0.4,0,0.7-0.2,1c-0.7,0.9-2.6,1.2-3.6,1.4l-0.2,0c-0.1,0-0.1,0.1-0.2,0.1c0,0.1,0,0.1,0,0.2c0.3,0.7,0.2,1.7-0.1,2.5
								c-0.2,0.4-0.5,0.8-1.2,1c-0.1,0-0.2,0.2-0.2,0.3C119.4,108.4,119.5,108.5,119.6,108.5z"/>
							<path class="st8" d="M126.4,87.4c-0.6-0.2-3.2-1-3.5-1c-0.2,0-0.6-0.1-1.1-0.2c-0.5,0.3-1.2,0.5-1.2,0.5c0,0.1,0,1,0,2.4
								c1,0.4,3.1,0.9,5.5,0.3L126.4,87.4z"/>
							<g>
								<path class="st8" d="M119.8,87.9c0,0,4.6,1.5,7.2,0.3l-0.4-9.5l-4.6-0.5L119.8,87.9z"/>
								<path class="st9" d="M120.6,88.2c0.9,0.2,2.4,0.5,3.9,0.5c0.2-2.7,0.7-9.9,0.7-10.1l0,0l-2.5-0.2L120.6,88.2z"/>
								<path class="st8" d="M125.5,83.1c0,0.3,0,0.5,0.1,0.8c0.1,0.2,0.2,0.3,0.3,0.3c0.2,0,0.4-0.2,0.4-0.4c0.2-0.5,0.1-1,0-1.5
									c0-0.2-0.1-1-0.5-1C125.6,81.3,125.5,82.7,125.5,83.1C125.5,83,125.5,83.1,125.5,83.1z"/>
								<path class="st8" d="M126.5,86.4c-0.1,0.1-0.1,0.1-0.3,0.2c-0.7,0.1-0.8-1.2-0.2-1.4C126.7,85,126.8,86,126.5,86.4z"/>
							</g>
							<path class="st8" d="M129.7,71.4c-0.5-2.1-1.6-6.5,1.2-7.4c-3.8-0.3-7.3,1.7-9.7,4.6c-1.8,2.2-2.7,5.8-1.4,8.4
								c1.7,3.4,5.6,4.1,8.6,1.7C130.2,77,130.2,73.5,129.7,71.4z"/>
							<path class="st9" d="M127.8,71.9c-0.4-1.6-1.3-5,0.9-5.8c-2.9-0.2-5.6,1.3-7.5,3.5c-1.4,1.7-2.1,4.5-1.1,6.5
								c1.4,2.6,4.4,3.2,6.6,1.3C128.2,76.2,128.2,73.6,127.8,71.9z"/>
							<path class="st9" d="M128.4,73.8c0,0.2,0.1,0.3,0.2,0.4c0.2,0.2,0.6,0.2,0.9-0.1c0.1-0.1,0.1-0.2,0.1-0.3
								c0.1-0.5,0.1-2.8-0.9-2.7C127.9,71.4,128.3,73.3,128.4,73.8z"/>
							<g>
								<path class="st8" d="M130.9,63.9c-3.8-0.3-7.3,1.7-9.7,4.6c-0.5,0.6-0.9,1.3-1.3,2.1c0.9,1.2,1.9-0.8,2.8-0.5
									c0.4,0.1,0.6,0.5,0.7,0.9c0.2,1,0.3,2.3,1.7,2c1.4-0.3,0.8-2,1.8-2.6c1-0.6,1.5,0.9,2.6,0.4C129,68.5,128.3,64.8,130.9,63.9
									z"/>
								<path class="st8" d="M120.3,70.9c0.8,0.4,1.7-1.1,2.5-0.9c0.4,0.1,0.6,0.5,0.7,0.9c0.2,1,0.3,2.3,1.7,2
									c1.4-0.3,0.8-2,1.8-2.6c0.2-0.1,0.3-0.1,0.4-0.1c-0.4-3,0.5-5.4,0.4-5.3C122.9,65.9,120.6,70.3,120.3,70.9z"/>
							</g>
							<g>
								<path class="st8" d="M133.9,64.9c1.8,0.2,2.4,4.8,0.2,4.9c-0.6,0-1.2-0.4-1.4-0.9c-0.4-0.9-0.6-3.8,1-4
									C133.8,64.9,133.9,64.9,133.9,64.9z"/>
								
									<ellipse transform="matrix(0.9606 -0.278 0.278 0.9606 -13.1995 40.0195)" class="st8" cx="134.5" cy="66.6" rx="0.6" ry="1.3"/>
							</g>
							<g>
								<path class="st8" d="M135.7,75.5c-0.6-1.4-3.6,0-1.6,1.4C135.6,77.9,136.3,76.8,135.7,75.5z"/>
								
									<ellipse transform="matrix(0.3189 -0.9478 0.9478 0.3189 20.5948 179.1696)" class="st8" cx="135" cy="75.3" rx="0.2" ry="0.3"/>
							</g>
						</g>
						<g>
							<g>
								<ellipse class="st8" cx="82.2" cy="86.9" rx="6.5" ry="8.7"/>
								<path class="st8" d="M79.4,86.5c1.1,0,2-1,2-2.2c0-0.8-0.4-1.5-0.9-1.9c0.5-0.3,1-0.5,1.6-0.5c2.1,0,3.8,2.3,3.8,5.1
									c0,2.8-1.7,5.1-3.8,5.1s-3.8-2.3-3.8-5.1c0-0.3,0-0.6,0.1-0.9C78.6,86.4,79,86.5,79.4,86.5z"/>
							</g>
							<circle class="st8" cx="80.1" cy="88.6" r="0.6"/>
						</g>
						<path class="st8" d="M40.8,173.7c-0.1-0.6-0.2-1.1-0.3-1.7c0-0.3-0.1-0.4,0-0.7c0.1-0.2,0.2-0.5,0.3-0.7
							c0-0.1,0.1-0.2,0.1-0.4c0-0.2-0.1-0.3-0.3-0.5c-0.1-0.2-0.3-0.3-0.4-0.5c0-0.1-0.1-0.1-0.1-0.2c0-0.1,0-0.2,0-0.3
							c0.6-2.9,1.3-5.7,2-8.6c1.9-8,3.5-16,4.3-24.1c2.3-24.1,2.2-47.9-5-71.1l2.9-3.5l7.1-3.3c1.5-0.1,3.2-0.3,5.2-0.4
							c1.2,7,2.1,14,2.9,21.1c1.3,12,1.9,24.1,1.8,36.2c-0.1,7.1-0.4,14.2-1.1,21.3c-0.5,4.6-1.4,9-2.2,13.5
							c-1.3,7.1-3.8,14-5.9,20.9c-0.5,1.7-1.5,4.3-2.7,5.7c-1.2,1.4-2.8,0.6-4.3,0.2c-0.3-0.1-3.6-0.8-3.7-1
							C41.1,175,41,174.3,40.8,173.7z"/>
						<g>
							<path class="st8" d="M86.3,180.8c-0.1,0.3-0.2,0.5-0.3,0.8l-38.6,28.8L40,169.1c0.4-0.2,0.8-0.3,1.2-0.4
								c2.6-0.3,7-0.5,8.7,2.1c0.6,0.8,0.8,1.8,1,2.8c1.1-4.2,5-7.4,9.4-6.5c9.8,1.9,8.6,11.1,8.6,11.1c3.1-6.9,9.6-4.4,9.6-4.4
								C82.3,175,84.7,177.5,86.3,180.8z"/>
							<path class="st8" d="M49.9,170.7c0.6,0.8,0.8,1.8,1,2.8c0.6-2.2,1.9-4.1,3.7-5.3c-1.3,9.1-4.1,31.8-4.1,31.8
								s-2.2,0.2-4.9,0.4L40,169.1c0.4-0.2,0.8-0.3,1.2-0.4C43.9,168.4,48.2,168.2,49.9,170.7z"/>
							<path class="st8" d="M50.9,173.6c1.1-4.2,5-7.4,9.4-6.5c7.7,1.5,8.6,7.4,8.6,9.9l-13.7,27l-7.1-0.8l2.5-30.5
								C50.8,172.9,50.9,173.2,50.9,173.6z"/>
						</g>
						<path class="st8" d="M44.6,194.6c7.4-1,12.9,3.3,15.7,6.2l-12.8,9.6L44.6,194.6z"/>
						<path class="st8" d="M62.6,34.7c1.7-0.5,3.6-0.8,5.7-0.8c5,0,11.4,1.8,14.4,6.1c3.9,5.7,6,12.7,7.6,19.3
							c-1.3-0.9-3.7-0.9-5.3-1.3c-2.5-0.6-5.1-1-7.6-1.3c-2.4-0.3-4.8-0.6-7.2-0.9c-1.7-0.2-5.6-1.5-7.1-1l-21.5,7.7l-2.7-8.9
							c3.2-3,6.3-5.9,9.5-8.9C53,40.5,57.1,36.4,62.6,34.7z"/>
						<g>
							<g>
								<ellipse class="st8" cx="59.2" cy="87.7" rx="6.5" ry="8.7"/>
								<path class="st8" d="M56.4,87.3c1.1,0,2-1,2-2.2c0-0.8-0.4-1.5-0.9-1.9c0.5-0.3,1-0.5,1.6-0.5c2.1,0,3.8,2.3,3.8,5.1
									S61,92.9,59,92.9c-2.1,0-3.8-2.3-3.8-5.1c0-0.3,0-0.6,0.1-0.9C55.6,87.2,56,87.3,56.4,87.3z"/>
							</g>
							<circle class="st8" cx="57.1" cy="89.5" r="0.6"/>
						</g>
						<path class="st8" d="M88.5,66.4c0,0,0,0-0.1-0.1c-0.1-0.1-0.2-0.2-0.3-0.3c-0.3-0.3-0.7-0.6-1.3-0.9c-0.6-0.3-1.3-0.5-2.1-0.6
							c-0.4-0.1-0.8-0.1-1.2-0.1c-0.4,0-0.9,0-1.3,0.1c-0.4,0.1-0.9,0.2-1.3,0.3c-0.4,0.1-0.8,0.3-1.1,0.5c-0.4,0.2-0.7,0.4-1,0.7
							c-0.1,0.1-0.3,0.2-0.4,0.4c-0.1,0.1-0.2,0.3-0.3,0.4c-0.2,0.3-0.4,0.5-0.5,0.7c-0.1,0.2-0.2,0.4-0.3,0.6
							c-0.2,0.3-0.2,0.5-0.2,0.5s0.2-0.1,0.5-0.3c0.1-0.1,0.3-0.2,0.5-0.3s0.5-0.2,0.7-0.3c0.1-0.1,0.3-0.1,0.4-0.2
							c0.1-0.1,0.3-0.1,0.4-0.2c0.3-0.1,0.6-0.2,0.9-0.3c0.2,0,0.3-0.1,0.5-0.1c0.2,0,0.3-0.1,0.5-0.1c0.3-0.1,0.7-0.1,1-0.2
							c0.3-0.1,0.7,0,1-0.1c0.3,0,0.7,0,1,0c0.7,0,1.3,0,1.9,0c0.6,0,1.1,0,1.4,0C88.3,66.4,88.5,66.4,88.5,66.4z"/>
						<path class="st8" d="M49.8,70.6c0,0,0.2-0.1,0.6-0.2c0.3-0.1,0.8-0.3,1.4-0.4c0.5-0.2,1.1-0.4,1.8-0.6c0.3-0.1,0.6-0.2,1-0.3
							c0.3-0.1,0.7-0.2,1-0.3c0.3-0.1,0.7-0.2,1-0.2c0.2,0,0.3,0,0.5-0.1c0.2,0,0.3,0,0.5,0c0.3,0,0.7,0,1,0c0.2,0,0.3,0,0.5,0
							c0.1,0,0.3,0,0.4,0.1c0.3,0,0.6,0,0.8,0.1s0.4,0.1,0.6,0.1c0.4,0.1,0.6,0.1,0.6,0.1s-0.1-0.2-0.4-0.4
							c-0.1-0.1-0.3-0.3-0.5-0.5c-0.2-0.2-0.4-0.3-0.7-0.5c-0.1-0.1-0.3-0.2-0.4-0.3c-0.2-0.1-0.3-0.1-0.5-0.2
							c-0.3-0.1-0.7-0.3-1.1-0.3c-0.4-0.1-0.8-0.1-1.3-0.1c-0.4,0-0.9,0-1.3,0.1c-0.4,0-0.8,0.2-1.3,0.3c-0.4,0.1-0.8,0.3-1.1,0.5
							c-0.7,0.4-1.3,0.8-1.7,1.3c-0.4,0.5-0.7,0.9-0.9,1.2c-0.1,0.2-0.2,0.3-0.2,0.4C49.8,70.6,49.8,70.6,49.8,70.6z"/>
						<path class="st8" d="M51.9,41.5c3.3-2.9,6.6-5.5,10.7-6.7c0.1,0,0.2-0.1,0.3-0.1c5.2,6.7,8.7,21.1,8.7,21.1l-0.7,0.1
							c-0.2,0-0.4-0.1-0.7-0.1c-1.7-0.2-5.6-1.5-7.1-1c0,0-3.3,1.2-7.3,2.6C55.2,53.8,53.2,46,51.9,41.5z"/>
						<path class="st8" d="M57.1,57c-6.4,2.3-15.5,5.5-15.5,5.5l-2.7-8.9c3.2-3,6.3-5.9,9.5-8.9c1.6-1.5,3.2-3,4.8-4.4
							C54.5,45.1,56.8,55.3,57.1,57z"/>
						<path class="st8" d="M41.3,68.4c0.7,0,1.5-0.2,2.1-0.7c18.7-15.1,45.9-5.9,46.2-5.8c1.7,0.6,3.7-0.3,4.3-2.1s-0.3-3.7-2.1-4.3
							c-1.3-0.4-31-10.5-52.6,6.9c-1.4,1.2-1.7,3.3-0.5,4.7C39.4,68,40.3,68.4,41.3,68.4z"/>
						<path class="st8" d="M39.8,65c0.2,0,0.4-0.1,0.5-0.2c17.8-14.3,41.3-9.5,50.6-6.8c0.5,0.1,0.6,0.2,0.7,0.2
							c0.5,0,0.8-0.4,0.8-0.8c0-0.4-0.3-0.8-0.7-0.8c-0.1,0-0.2-0.1-0.4-0.1c-9.5-2.8-33.7-7.7-52.1,7.1c-0.4,0.3-0.4,0.8-0.1,1.2
							C39.3,64.9,39.5,65,39.8,65z"/>
						<path class="st8" d="M84.9,30c0.9,1.4,1.9,4,0.7,5.5c-3.4,4.2-11.3-4.2-9.1-8.1C78.3,24.2,83.5,27.9,84.9,30z"/>
						<path class="st8" d="M73.3,27.3c2.7-0.6,2-4-0.6-4.3C69.6,22.5,69.7,28.1,73.3,27.3z"/>
						<path class="st8" d="M30.3,132.8c0,0.2,0,0.3,0,0.5c0.2,2.5,5.3,0,2.9-1.8C32.2,130.7,30.6,131.7,30.3,132.8z"/>
						<path class="st8" d="M26.8,127.2c0.3-0.5,1-1,1.3-0.1c0.2,0.5-0.5,1.2-1,1.1C26.6,128,26.6,127.6,26.8,127.2z"/>
						<path class="st8" d="M20.7,133.4c0,0,0,0.1,0.1,0.1c0.5,0.6,1.5,0.2,1.8-0.4c0.2-0.5,0.1-1-0.4-1.3
							C21.3,131.3,20.3,132.6,20.7,133.4z"/>
						<path class="st8" d="M23.5,141c-0.2,0.2-0.6,0.2-0.9,0c-0.9-0.6,0-2.7,1-1.9C24.2,139.5,24.1,140.6,23.5,141z"/>
					</g>
				</g>
				<g>
					<path class="st8" d="M54.3,98.2c0.8,2.5,3.5,2.8,5.7,2c3.3-1.2,6.7-2.4,9.8,0c0.3,0.2,0.5,0.5,0.7,0.7c0.2-0.3,0.4-0.5,0.6-0.7
						c2.5-2.2,5.5-1.5,8.4-1c2.4,0.4,5.3,0.8,7-1.3c0.6-0.7,0.9-1.7,0.7-2.5c2.7,3.8,1.1,10.3-3.4,12.1c-3.3,1.3-7.4,0.9-10.8,0
						c-1-0.3-1.9-1-2.4-1.9c-0.5,0.9-1.3,1.7-2.3,2c-3.7,1.3-8,1.6-11.8,0.2c-4.2-1.6-4.5-8.2-2.5-11.5
						C54.1,96.9,54.1,97.6,54.3,98.2z"/>
					<path class="st8" d="M77.8,99.5c-0.2,0-0.4-0.1-0.5-0.1c-1.9-0.5-6.4-0.3-6.5,2.5c0,0.8,0.5,1.6,1.2,2.1
						c0.7,0.5,1.5,0.7,2.4,0.8c1.7,0.2,3.4,0.1,5-0.4c-0.8-0.2-1.6-0.5-2.2-1c0.9,0.7,3.7-0.7,4.5-1.2c1.2-0.7,2.2-1.6,3.3-2.4
						C82.3,100.4,80.3,100.2,77.8,99.5z"/>
					<path class="st8" d="M63.2,103.6c0.1,0,0.2,0,0.2,0c-0.4,0.5-1.1,1-1.7,1.1c0,0,0.3,0.3,0.3,0.3c0.1,0.1,0.3,0.2,0.4,0.2
						c0.3,0.1,0.6,0.2,1,0.3c0.7,0.1,1.5,0.1,2.2-0.1c1.3-0.2,2.7-0.8,3.5-1.9c0.7-1.1,0.7-2.5-0.3-3.4c-1.5-1.2-3.3-1.1-5.1-0.6
						c-1.2,0.3-2.3,0.8-3.5,1.1c-0.4,0.1-2.8,0.8-3.1,0.5c0.6,0.6,1.4,0.9,2.2,1.1c0.8,0.2,1.6,0.1,2.4,0c-0.2,0.2-1.1,1.3-1.4,1.2
						C61.3,103.7,62.2,103.7,63.2,103.6z"/>
				</g>
			</g>
			<g>
				<g>
					<g>
						<g>
							<path class="st8" d="M71.5,121.4c6.8,0,12.6-0.7,14.6-1.6c0,6.2-7.1,10-14.6,10c-7.5,0-14.2-3.5-14.6-10
								C58.9,120.8,64.7,121.4,71.5,121.4z"/>
						</g>
					</g>
				</g>
				<path class="st8" d="M71.5,129.9c-5.4,0-10.3-1.8-12.8-5.2c0.1-0.6,0.2-1.2,0.3-1.5c-0.4-0.8-0.6-1.8-0.6-2.7c0,0,0-0.1,0-0.2
					c2.7,0.7,7.6,1.1,13.2,1.1c5.6,0,10.5-0.4,13.2-1.1c0,0.1,0,0.2,0,0.2c0,0.9-0.2,1.8-0.6,2.7c0.1,0.3,0.2,0.9,0.3,1.5
					C81.8,128,76.8,129.9,71.5,129.9z"/>
				<path class="st8" d="M82.6,123.9c0,0-4.1,2.6-12.4,2.3C73.7,127.1,79.7,126.1,82.6,123.9z"/>
			</g>
		</g>
	</g>
</g>
<path class="st10" d="M62.1,54.1c0,6.4,5.2,11.5,11.5,11.5c11.3,0,30.3-5.2,39.7,2.2c9.5,7.4,3.6,18.7-8.8,18.6
	c13.9,5.3,21.8-3.3,31.6-14.1c6.4-7,7.6-5.8,15.8-7.3c7.3-1.4,16.5,0.5,16.5-11c0-2.3,0-38.3,0-38.3c0-6.4-5.2-11.5-11.5-11.5H73.6
	C67.2,4.1,62,9.3,62,15.7L62.1,54.1L62.1,54.1z"/>
<radialGradient id="SVGID_3_" cx="92.5359" cy="154.6416" r="102.9611" gradientTransform="matrix(1 0 0 -1 0 157.61)" gradientUnits="userSpaceOnUse">
	<stop  offset="0" style="stop-color:#CAE815"/>
	<stop  offset="1" style="stop-color:#A7CA15"/>
</radialGradient>
<path class="st11" d="M56.7,50.8c0,6.4,5.2,11.5,11.5,11.5c11.3,0,30.3-5.2,39.7,2.2c9.5,7.4,3.6,18.7-8.8,18.6
	c13.9,5.3,21.8-3.3,31.6-14.1c6.4-7,7.6-5.8,15.8-7.3c7.3-1.4,16.5,0.5,16.5-11c0-2.3,0-38.3,0-38.3c0-6.4-5.2-11.5-11.5-11.5H68.2
	c-6.4,0-11.5,5.2-11.5,11.5L56.7,50.8L56.7,50.8z"/>
<g>
	<g>
		<defs>
			<rect id="SVGID_4_" x="8.4" y="10.4" width="136.6" height="145.9"/>
		</defs>
		<clipPath id="SVGID_5_">
			<use xlink:href="#SVGID_4_"  style="overflow:visible;"/>
		</clipPath>
		<g class="st12">
			<g>
				<g>
					<g>
						<path class="st13" d="M86.8,45.1c0,0-15.2-12.4-30.6,0.7c0,0-9.6,14-17.6,12.9c0,0-11-1.8-6.7-15.6c2.5-8,8.5-15.2,15.3-20
							c6.3-4.4,13.9-6.8,21.5-5.6C77,18.7,86.9,23,91.2,30.7C94.2,36.1,91,41.4,86.8,45.1z"/>
						<path class="st13" d="M55.8,21.4c-3.3-2.8,0.2-9.7,4-6.9c1.6,1.1,1.2,4,1,5.5L55.8,21.4z"/>
						<path class="st14" d="M43.4,29.6c12-14.8,36.9-14.6,47.7,1.5c0.3,0.5,0.6,1,0.9,1.5c1.4,4.7-1.5,9.2-5.2,12.4
							c0,0-15.2-12.4-30.6,0.7c0,0-3.5,5.1-8,8.9c-3.7-0.6-7.1-1.1-9-4.9C35.5,42.7,38.9,35.2,43.4,29.6z"/>
						<path class="st15" d="M93.7,59.2c0,0,17.6,63.1-3.6,122.4l-38.6,28.8c-1.4-7.5-2.7-14.9-4.1-22.4c-0.9-4.8-1.7-9.5-2.6-14.3
							c-0.1-0.6-0.2-1.1-0.3-1.7c0-0.3-0.1-0.4,0-0.7c0.1-0.2,0.2-0.5,0.3-0.7c0-0.1,0.1-0.2,0.1-0.4c0-0.2-0.1-0.3-0.3-0.5
							c-0.1-0.2-0.3-0.3-0.4-0.5c0-0.1-0.1-0.1-0.1-0.2c0-0.1,0-0.2,0-0.3c0.6-2.9,1.3-5.7,2-8.6c1.9-8,3.5-16,4.3-24.1
							c2.3-24.1,2.2-47.9-5-71.1l5.3-6.4c0,0,32.4-2.8,33.2-2.8C84.7,55.8,93.7,59.2,93.7,59.2z"/>
						<g>
							<polygon class="st16" points="99.1,121.5 109.9,118.5 120.3,106.5 122,108.1 110.8,120.9 98.8,124.4 							"/>
						</g>
						<path class="st17" d="M55.1,124.7l-8,8.8l-14.7,3.8l0.2,1.5l15.1-3.1l9.2-9.2C57,126.4,54.9,125.1,55.1,124.7z"/>
						<path class="st18" d="M40.7,126.8c-2.5-2.1-6.7-2.8-9.7-2.9c-2.4,0-4.8,0.3-6.9,1.4c-6.1,3-7.5,11.5-2.2,16.2
							c2,1.7,4.5,2.5,7.1,2.7c2.6,0.2,6.9,0.8,9.1-0.9c2.3-1.7,0.2-5,1.9-6.8c0.4-0.4,1-0.8,1.4-1.2c0.9-0.9,1.3-2.1,1.4-3.3
							C43.1,129.7,42.2,128,40.7,126.8z"/>
						<path class="st19" d="M21,128.3c-0.2-0.2-0.4-0.3-0.8-0.3c-1.8,0-2.8,5.2-1.3,5.3C19.8,133.2,22,129.4,21,128.3z"/>
						<path class="st16" d="M20.7,131c0.3,0,0.5,0,0.7,0.2c0.4,0.2,0.5,0.6,0.6,1.1c0.2,1.6-1.2,2.8-2.6,3.6
							C17,137.2,17.7,131,20.7,131z"/>
						<path class="st20" d="M63.8,113.4c-0.6,14.6-3.7,29.4-7.1,43.7c-1.8,7.4-3.6,14.8-5.2,22.3c-1.5,6.8,1.6,11.1,9.1,10.4
							c9.6-0.9,11.8-9.9,14.1-17.8c2.6-9,4.4-18.2,5.9-27.4c2.5-14.8,3.9-30,2.7-45c-0.6-7.4-1.7-14.9-3.1-22.2
							c-1-5.5-2.2-11-3.7-16.4c-0.2-0.9-1.1-6.2-2.2-6.5c-0.6-0.2-1.7-1.5-2.6-1.9c-1.2-0.6-2.9-0.9-4.3-0.9
							c-3.1,0.1-6.5,1.4-9.7,1.8c1.1,7.1,2.1,14.2,3,21.2C62.6,87.5,64.3,100.6,63.8,113.4z"/>
						<path class="st21" d="M29,134.3c-0.2,0.9-0.1,1.8,0.2,2.7c0.7,2,2.7,3.6,4.9,3.9c1.1,0.1,2.3-0.1,2.9-1
							c0.6-0.9,0.3-2.1,0.3-3.2c0-2.5,3.3-4.1,0.2-6c-0.9-0.6-2-0.7-3.1-0.7c-1.2,0.1-2.5,0.4-3.4,1.2C29.9,132,29.2,133.1,29,134.3
							z"/>
						<ellipse class="st22" cx="30.7" cy="127.2" rx="2" ry="2.1"/>
						<ellipse class="st23" cx="26.3" cy="140.2" rx="2" ry="2.1"/>
						<ellipse class="st24" cx="25" cy="132.4" rx="2" ry="2.1"/>
						<g>
							<path class="st25" d="M129.1,98.3c3.5,0.3,1.9,4.9,0.9,6.8c-0.6,1.3-1.6,2.5-2.9,2.8c-0.1,0.1-0.3-0.4-0.4-0.5
								c-0.1-0.1-0.1-0.3-0.1-0.4c0.1-2.2,0.3-4.4,0.8-6.5c0.1-0.5,0.2-1,0.5-1.4C128.2,98.7,128.6,98.2,129.1,98.3z"/>
							<path class="st16" d="M121.7,109.4c0.5,0.1,1,0.2,1.7,0.3c1,0.1,2,0.2,3,0.3c0,0,1.8-11.5,1.8-11.5c0.1-0.4-3.6,0.9-3.7,1
								c-1.7,1.1-3,2.2-3.7,4.3c-0.6,1.5-0.8,3.2-0.9,4.8C120.5,109,121.1,109.2,121.7,109.4z"/>
							<path class="st26" d="M124.6,86.7c-0.2,0.3,0.4,22.7,0.3,23c-0.1,0.3,0.1,1.4,1.2,1.8c0,0,1.2,0.6,1.7-2l2.6-22.4
								c0,0-3.5-1.4-3.9-1.3C126.1,86,124.6,86.7,124.6,86.7z"/>
							<path class="st16" d="M123.6,108.3c1.5-0.4,2-2.5,1.5-3.8c1.3-0.2,4.6-0.6,4.2-2.7c-0.3-1.6-2.7-0.9-3.8-0.7
								c-2.1,0.3-3.7,1.3-4.5,3.4L123.6,108.3z"/>
							<path class="st27" d="M123.6,108.5C123.7,108.5,123.7,108.5,123.6,108.5c0.7-0.2,1.2-0.6,1.5-1.3c0.4-0.8,0.5-1.7,0.2-2.6
								c1.1-0.2,3.1-0.5,3.8-1.6c0.3-0.4,0.4-0.9,0.3-1.4c-0.3-1.6-2.2-1.3-3.4-1c-0.2,0-0.4,0.1-0.6,0.1c-2.3,0.3-3.9,1.5-4.7,3.5
								c-0.1,0.1,0,0.3,0.1,0.3c0.1,0.1,0.3,0,0.3-0.1c0.7-1.9,2.1-3,4.3-3.2c0.2,0,0.4-0.1,0.6-0.1c1.4-0.3,2.7-0.4,2.9,0.6
								c0.1,0.4,0,0.7-0.2,1c-0.7,0.9-2.6,1.2-3.6,1.4l-0.2,0c-0.1,0-0.1,0.1-0.2,0.1c0,0.1,0,0.1,0,0.2c0.3,0.7,0.2,1.7-0.1,2.5
								c-0.2,0.4-0.5,0.8-1.2,1c-0.1,0-0.2,0.2-0.2,0.3C123.4,108.4,123.5,108.5,123.6,108.5z"/>
							<path class="st26" d="M130.4,87.4c-0.6-0.2-3.2-1-3.5-1c-0.2,0-0.6-0.1-1.1-0.2c-0.5,0.3-1.2,0.5-1.2,0.5c0,0.1,0,1,0,2.4
								c1,0.4,3.1,0.9,5.5,0.3L130.4,87.4z"/>
							<g>
								<path class="st28" d="M123.8,87.9c0,0,4.6,1.5,7.2,0.3l-0.4-9.5l-4.6-0.5L123.8,87.9z"/>
								<path class="st29" d="M124.6,88.2c0.9,0.2,2.4,0.5,3.9,0.5c0.2-2.7,0.7-9.9,0.7-10.1l0,0l-2.5-0.2L124.6,88.2z"/>
								<path class="st28" d="M129.5,83.1c0,0.3,0,0.5,0.1,0.8c0.1,0.2,0.2,0.3,0.3,0.3c0.2,0,0.4-0.2,0.4-0.4c0.2-0.5,0.1-1,0-1.5
									c0-0.2-0.1-1-0.5-1C129.6,81.3,129.5,82.7,129.5,83.1C129.5,83,129.5,83.1,129.5,83.1z"/>
								<path class="st28" d="M130.5,86.4c-0.1,0.1-0.1,0.1-0.3,0.2c-0.7,0.1-0.8-1.2-0.2-1.4C130.7,85,130.8,86,130.5,86.4z"/>
							</g>
							<path class="st30" d="M133.7,71.4c-0.5-2.1-1.6-6.5,1.2-7.4c-3.8-0.3-7.3,1.7-9.7,4.6c-1.8,2.2-2.7,5.8-1.4,8.4
								c1.7,3.4,5.6,4.1,8.6,1.7C134.2,77,134.2,73.5,133.7,71.4z"/>
							<path class="st31" d="M131.8,71.9c-0.4-1.6-1.3-5,0.9-5.8c-2.9-0.2-5.6,1.3-7.5,3.5c-1.4,1.7-2.1,4.5-1.1,6.5
								c1.4,2.6,4.4,3.2,6.6,1.3C132.2,76.2,132.2,73.6,131.8,71.9z"/>
							<path class="st31" d="M132.4,73.8c0,0.2,0.1,0.3,0.2,0.4c0.2,0.2,0.6,0.2,0.9-0.1c0.1-0.1,0.1-0.2,0.1-0.3
								c0.1-0.5,0.1-2.8-0.9-2.7C131.9,71.4,132.3,73.3,132.4,73.8z"/>
							<g>
								<path class="st21" d="M134.9,63.9c-3.8-0.3-7.3,1.7-9.7,4.6c-0.5,0.6-0.9,1.3-1.3,2.1c0.9,1.2,1.9-0.8,2.8-0.5
									c0.4,0.1,0.6,0.5,0.7,0.9c0.2,1,0.3,2.3,1.7,2c1.4-0.3,0.8-2,1.8-2.6c1-0.6,1.5,0.9,2.6,0.4C133,68.5,132.3,64.8,134.9,63.9
									z"/>
								<path class="st21" d="M124.3,70.9c0.8,0.4,1.7-1.1,2.5-0.9c0.4,0.1,0.6,0.5,0.7,0.9c0.2,1,0.3,2.3,1.7,2
									c1.4-0.3,0.8-2,1.8-2.6c0.2-0.1,0.3-0.1,0.4-0.1c-0.4-3,0.5-5.4,0.4-5.3C126.9,65.9,124.6,70.3,124.3,70.9z"/>
							</g>
							<g>
								<path class="st21" d="M137.9,64.9c1.8,0.2,2.4,4.8,0.2,4.9c-0.6,0-1.2-0.4-1.4-0.9c-0.4-0.9-0.6-3.8,1-4
									C137.8,64.9,137.9,64.9,137.9,64.9z"/>
								
									<ellipse transform="matrix(0.9606 -0.278 0.278 0.9606 -13.0419 41.1316)" class="st21" cx="138.5" cy="66.6" rx="0.6" ry="1.3"/>
							</g>
							<g>
								<path class="st21" d="M139.7,75.5c-0.6-1.4-3.6,0-1.6,1.4C139.6,77.9,140.3,76.8,139.7,75.5z"/>
								
									<ellipse transform="matrix(0.3189 -0.9478 0.9478 0.3189 23.3197 182.9619)" class="st21" cx="139" cy="75.3" rx="0.2" ry="0.3"/>
							</g>
						</g>
						<g>
							<g>
								<ellipse class="st32" cx="86.2" cy="86.9" rx="6.5" ry="8.7"/>
								<path class="st33" d="M83.4,86.5c1.1,0,2-1,2-2.2c0-0.8-0.4-1.5-0.9-1.9c0.5-0.3,1-0.5,1.6-0.5c2.1,0,3.8,2.3,3.8,5.1
									c0,2.8-1.7,5.1-3.8,5.1c-2.1,0-3.8-2.3-3.8-5.1c0-0.3,0-0.6,0.1-0.9C82.6,86.4,83,86.5,83.4,86.5z"/>
							</g>
							<circle class="st32" cx="84.1" cy="88.6" r="0.6"/>
						</g>
						<path class="st34" d="M44.8,173.7c-0.1-0.6-0.2-1.1-0.3-1.7c0-0.3-0.1-0.4,0-0.7c0.1-0.2,0.2-0.5,0.3-0.7
							c0-0.1,0.1-0.2,0.1-0.4c0-0.2-0.1-0.3-0.3-0.5c-0.1-0.2-0.3-0.3-0.4-0.5c0-0.1-0.1-0.1-0.1-0.2c0-0.1,0-0.2,0-0.3
							c0.6-2.9,1.3-5.7,2-8.6c1.9-8,3.5-16,4.3-24.1c2.3-24.1,2.2-47.9-5-71.1l2.9-3.5l7.1-3.3c1.5-0.1,3.2-0.3,5.2-0.4
							c1.2,7,2.1,14,2.9,21.1c1.3,12,1.9,24.1,1.8,36.2c-0.1,7.1-0.4,14.2-1.1,21.3c-0.5,4.6-1.4,9-2.2,13.5
							c-1.3,7.1-3.8,14-5.9,20.9c-0.5,1.7-1.5,4.3-2.7,5.7c-1.2,1.4-2.8,0.6-4.3,0.2c-0.3-0.1-3.6-0.8-3.7-1
							C45.1,175,45,174.3,44.8,173.7z"/>
						<g>
							<path class="st35" d="M90.3,180.8c-0.1,0.3-0.2,0.5-0.3,0.8l-38.6,28.8L44,169.1c0.4-0.2,0.8-0.3,1.2-0.4
								c2.6-0.3,7-0.5,8.7,2.1c0.6,0.8,0.8,1.8,1,2.8c1.1-4.2,5-7.4,9.4-6.5c9.8,1.9,8.6,11.1,8.6,11.1c3.1-6.9,9.6-4.4,9.6-4.4
								C86.3,175,88.7,177.5,90.3,180.8z"/>
							<path class="st36" d="M53.9,170.7c0.6,0.8,0.8,1.8,1,2.8c0.6-2.2,1.9-4.1,3.7-5.3c-1.3,9.1-4.1,31.8-4.1,31.8
								s-2.2,0.2-4.9,0.4L44,169.1c0.4-0.2,0.8-0.3,1.2-0.4C47.9,168.4,52.2,168.2,53.9,170.7z"/>
							<path class="st37" d="M54.9,173.6c1.1-4.2,5-7.4,9.4-6.5c7.7,1.5,8.6,7.4,8.6,9.9l-13.7,27l-7.1-0.8l2.5-30.5
								C54.8,172.9,54.9,173.2,54.9,173.6z"/>
						</g>
						<path class="st38" d="M48.6,194.6c7.4-1,12.9,3.3,15.7,6.2l-12.8,9.6L48.6,194.6z"/>
						<path class="st39" d="M66.6,34.7c1.7-0.5,3.6-0.8,5.7-0.8c5,0,11.4,1.8,14.4,6.1c3.9,5.7,6,12.7,7.6,19.3
							c-1.3-0.9-3.7-0.9-5.3-1.3c-2.5-0.6-5.1-1-7.6-1.3c-2.4-0.3-4.8-0.6-7.2-0.9c-1.7-0.2-5.6-1.5-7.1-1l-21.5,7.7L43,53.6
							c3.2-3,6.3-5.9,9.5-8.9C57,40.5,61.1,36.4,66.6,34.7z"/>
						<g>
							<g>
								<ellipse class="st32" cx="63.2" cy="87.7" rx="6.5" ry="8.7"/>
								<path class="st33" d="M60.4,87.3c1.1,0,2-1,2-2.2c0-0.8-0.4-1.5-0.9-1.9c0.5-0.3,1-0.5,1.6-0.5c2.1,0,3.8,2.3,3.8,5.1
									S65,92.9,63,92.9c-2.1,0-3.8-2.3-3.8-5.1c0-0.3,0-0.6,0.1-0.9C59.6,87.2,60,87.3,60.4,87.3z"/>
							</g>
							<circle class="st32" cx="61.1" cy="89.5" r="0.6"/>
						</g>
						<path class="st33" d="M92.5,66.4c0,0,0,0-0.1-0.1c-0.1-0.1-0.2-0.2-0.3-0.3c-0.3-0.3-0.7-0.6-1.3-0.9
							c-0.6-0.3-1.3-0.5-2.1-0.6c-0.4-0.1-0.8-0.1-1.2-0.1c-0.4,0-0.9,0-1.3,0.1c-0.4,0.1-0.9,0.2-1.3,0.3c-0.4,0.1-0.8,0.3-1.1,0.5
							c-0.4,0.2-0.7,0.4-1,0.7c-0.1,0.1-0.3,0.2-0.4,0.4c-0.1,0.1-0.2,0.3-0.3,0.4c-0.2,0.3-0.4,0.5-0.5,0.7
							c-0.1,0.2-0.2,0.4-0.3,0.6c-0.2,0.3-0.2,0.5-0.2,0.5s0.2-0.1,0.5-0.3c0.1-0.1,0.3-0.2,0.5-0.3s0.5-0.2,0.7-0.3
							c0.1-0.1,0.3-0.1,0.4-0.2c0.1-0.1,0.3-0.1,0.4-0.2c0.3-0.1,0.6-0.2,0.9-0.3c0.2,0,0.3-0.1,0.5-0.1c0.2,0,0.3-0.1,0.5-0.1
							c0.3-0.1,0.7-0.1,1-0.2c0.3-0.1,0.7,0,1-0.1c0.3,0,0.7,0,1,0c0.7,0,1.3,0,1.9,0c0.6,0,1.1,0,1.4,0
							C92.3,66.4,92.5,66.4,92.5,66.4z"/>
						<path class="st33" d="M53.8,70.6c0,0,0.2-0.1,0.6-0.2c0.3-0.1,0.8-0.3,1.4-0.4c0.5-0.2,1.1-0.4,1.8-0.6c0.3-0.1,0.6-0.2,1-0.3
							c0.3-0.1,0.7-0.2,1-0.3c0.3-0.1,0.7-0.2,1-0.2c0.2,0,0.3,0,0.5-0.1c0.2,0,0.3,0,0.5,0c0.3,0,0.7,0,1,0c0.2,0,0.3,0,0.5,0
							c0.1,0,0.3,0,0.4,0.1c0.3,0,0.6,0,0.8,0.1s0.4,0.1,0.6,0.1c0.4,0.1,0.6,0.1,0.6,0.1s-0.1-0.2-0.4-0.4
							c-0.1-0.1-0.3-0.3-0.5-0.5c-0.2-0.2-0.4-0.3-0.7-0.5c-0.1-0.1-0.3-0.2-0.4-0.3c-0.2-0.1-0.3-0.1-0.5-0.2
							c-0.3-0.1-0.7-0.3-1.1-0.3c-0.4-0.1-0.8-0.1-1.3-0.1c-0.4,0-0.9,0-1.3,0.1c-0.4,0-0.8,0.2-1.3,0.3c-0.4,0.1-0.8,0.3-1.1,0.5
							c-0.7,0.4-1.3,0.8-1.7,1.3c-0.4,0.5-0.7,0.9-0.9,1.2c-0.1,0.2-0.2,0.3-0.2,0.4C53.8,70.6,53.8,70.6,53.8,70.6z"/>
						<path class="st40" d="M55.9,41.5c3.3-2.9,6.6-5.5,10.7-6.7c0.1,0,0.2-0.1,0.3-0.1c5.2,6.7,8.7,21.1,8.7,21.1l-0.7,0.1
							c-0.2,0-0.4-0.1-0.7-0.1c-1.7-0.2-5.6-1.5-7.1-1c0,0-3.3,1.2-7.3,2.6C59.2,53.8,57.2,46,55.9,41.5z"/>
						<path class="st41" d="M61.1,57c-6.4,2.3-15.5,5.5-15.5,5.5l-2.7-8.9c3.2-3,6.3-5.9,9.5-8.9c1.6-1.5,3.2-3,4.8-4.4
							C58.5,45.1,60.8,55.3,61.1,57z"/>
						<path class="st42" d="M45.3,68.4c0.7,0,1.5-0.2,2.1-0.7c18.7-15.1,45.9-5.9,46.2-5.8c1.7,0.6,3.7-0.3,4.3-2.1
							s-0.3-3.7-2.1-4.3c-1.3-0.4-31-10.5-52.6,6.9c-1.4,1.2-1.7,3.3-0.5,4.7C43.4,68,44.3,68.4,45.3,68.4z"/>
						<path class="st42" d="M43.8,65c0.2,0,0.4-0.1,0.5-0.2c17.8-14.3,41.3-9.5,50.6-6.8c0.5,0.1,0.6,0.2,0.7,0.2
							c0.5,0,0.8-0.4,0.8-0.8c0-0.4-0.3-0.8-0.7-0.8c-0.1,0-0.2-0.1-0.4-0.1c-9.5-2.8-33.7-7.7-52.1,7.1c-0.4,0.3-0.4,0.8-0.1,1.2
							C43.3,64.9,43.5,65,43.8,65z"/>
						<path class="st43" d="M88.9,30c0.9,1.4,1.9,4,0.7,5.5c-3.4,4.2-11.3-4.2-9.1-8.1C82.3,24.2,87.5,27.9,88.9,30z"/>
						<path class="st43" d="M77.3,27.3c2.7-0.6,2-4-0.6-4.3C73.6,22.5,73.7,28.1,77.3,27.3z"/>
						<path class="st21" d="M34.3,132.8c0,0.2,0,0.3,0,0.5c0.2,2.5,5.3,0,2.9-1.8C36.2,130.7,34.6,131.7,34.3,132.8z"/>
						<path class="st22" d="M30.8,127.2c0.3-0.5,1-1,1.3-0.1c0.2,0.5-0.5,1.2-1,1.1C30.6,128,30.6,127.6,30.8,127.2z"/>
						<path class="st24" d="M24.7,133.4c0,0,0,0.1,0.1,0.1c0.5,0.6,1.5,0.2,1.8-0.4c0.2-0.5,0.1-1-0.4-1.3
							C25.3,131.3,24.3,132.6,24.7,133.4z"/>
						<path class="st23" d="M27.5,141c-0.2,0.2-0.6,0.2-0.9,0c-0.9-0.6,0-2.7,1-1.9C28.2,139.5,28.1,140.6,27.5,141z"/>
					</g>
				</g>
				<g>
					<path class="st33" d="M58.3,98.2c0.8,2.5,3.5,2.8,5.7,2c3.3-1.2,6.7-2.4,9.8,0c0.3,0.2,0.5,0.5,0.7,0.7
						c0.2-0.3,0.4-0.5,0.6-0.7c2.5-2.2,5.5-1.5,8.4-1c2.4,0.4,5.3,0.8,7-1.3c0.6-0.7,0.9-1.7,0.7-2.5c2.7,3.8,1.1,10.3-3.4,12.1
						c-3.3,1.3-7.4,0.9-10.8,0c-1-0.3-1.9-1-2.4-1.9c-0.5,0.9-1.3,1.7-2.3,2c-3.7,1.3-8,1.6-11.8,0.2c-4.2-1.6-4.5-8.2-2.5-11.5
						C58.1,96.9,58.1,97.6,58.3,98.2z"/>
					<path class="st33" d="M81.8,99.5c-0.2,0-0.4-0.1-0.5-0.1c-1.9-0.5-6.4-0.3-6.5,2.5c0,0.8,0.5,1.6,1.2,2.1
						c0.7,0.5,1.5,0.7,2.4,0.8c1.7,0.2,3.4,0.1,5-0.4c-0.8-0.2-1.6-0.5-2.2-1c0.9,0.7,3.7-0.7,4.5-1.2c1.2-0.7,2.2-1.6,3.3-2.4
						C86.3,100.4,84.3,100.2,81.8,99.5z"/>
					<path class="st33" d="M67.2,103.6c0.1,0,0.2,0,0.2,0c-0.4,0.5-1.1,1-1.7,1.1c0,0,0.3,0.3,0.3,0.3c0.1,0.1,0.3,0.2,0.4,0.2
						c0.3,0.1,0.6,0.2,1,0.3c0.7,0.1,1.5,0.1,2.2-0.1c1.3-0.2,2.7-0.8,3.5-1.9c0.7-1.1,0.7-2.5-0.3-3.4c-1.5-1.2-3.3-1.1-5.1-0.6
						c-1.2,0.3-2.3,0.8-3.5,1.1c-0.4,0.1-2.8,0.8-3.1,0.5c0.6,0.6,1.4,0.9,2.2,1.1c0.8,0.2,1.6,0.1,2.4,0c-0.2,0.2-1.1,1.3-1.4,1.2
						C65.3,103.7,66.2,103.7,67.2,103.6z"/>
				</g>
			</g>
		</g>
	</g>
	<g>
		<defs>
			<rect id="SVGID_6_" x="8.4" y="10.4" width="136.6" height="145.9"/>
		</defs>
		<clipPath id="SVGID_7_">
			<use xlink:href="#SVGID_6_"  style="overflow:visible;"/>
		</clipPath>
		<g class="st44">
			<path class="st45" d="M64,129.2c0-6.1,5.3-11,11.8-11s11.8,4.9,11.8,11c0,6.1-5.3,1.3-11.8,1.3C69.2,130.5,64,135.3,64,129.2z"/>
			<path class="st32" d="M83.5,132c0,0,0-0.1,0-0.1c0-1.6-3.5-3-7.8-3c-4.3,0-7.8,1.3-7.8,3c0,0,0,0.1,0,0.1
				c2.1-0.5,4.8-1.5,7.9-1.5C78.7,130.5,81.4,131.5,83.5,132z"/>
			<path class="st32" d="M69,120.2c1.8,0.3,4.2,0.5,6.7,0.5s4.9-0.2,6.7-0.5c-1.9-1.2-4.2-2-6.7-2C73.2,118.2,70.9,118.9,69,120.2z"
				/>
		</g>
	</g>
</g>
<g>
	<path class="st46" d="M116.5,23.2c0,0.7-0.6,1.3-1.4,1.3c-0.7,0-1.3-0.6-1.3-1.3c0-0.7,0.6-1.3,1.3-1.3
		C116,21.8,116.5,22.5,116.5,23.2z"/>
	<path class="st46" d="M123.9,23.2c0,0.7-0.6,1.3-1.4,1.3c-0.7,0-1.3-0.6-1.3-1.3c0-0.7,0.6-1.3,1.3-1.3
		C123.3,21.8,123.9,22.5,123.9,23.2z"/>
	<path class="st46" d="M139.2,20.9c0,1-0.3,1.9-1,2.5s-1.6,1-2.7,1h-5.7l0.9-1.7h2V13l1.9-0.6v10.4h0.8c1.3,0,2-0.7,2-2V12l1.9-0.6
		L139.2,20.9L139.2,20.9z"/>
	<path class="st46" d="M110.3,34.8H107l0.4-0.7h0.6v-0.4c0-0.9,0.4-1.4,1.3-1.4c0.3,0,0.6,0.1,0.9,0.4l-0.4,0.6
		c-0.1-0.2-0.3-0.3-0.5-0.3c-0.3,0-0.5,0.2-0.5,0.7v0.4h1.6V34.8z M112.6,48.5h-2.1c-1.7,0-2.6-1-2.6-2.6v-9.7l1.9-0.6v10.3
		c0,0.6,0.3,1,1,1h1.9L112.6,48.5L112.6,48.5z"/>
	<path class="st46" d="M129,48.5h-17v-1.7h2.5V36.5l1.9-0.6v6.8c1.3-2.1,3.1-3.2,5.4-3.2c1.9-0.1,3.4,0.7,4.4,2.3
		c0.7,1.1,1,2.7,0.9,4.9h2L129,48.5L129,48.5z M125.2,46.8c0.1-0.3,0.1-0.6,0.1-0.9c0-1.3-0.3-2.3-0.8-3.3c-0.6-0.8-1.5-1.3-2.6-1.3
		c-1.3-0.1-2.6,0.6-3.7,1.9c-1,1.1-1.6,2.3-1.9,3.6H125.2z"/>
	<path class="st46" d="M139.2,48.5h-10.6v-1.6h8.7v-0.7c0-1.5-0.1-2.6-0.4-3.3c-0.4-1.1-1.3-1.7-2.6-1.7c-1.1,0-2.1,0.5-3.1,1.5
		l-1.4-1.3c1.3-1.3,2.8-2,4.4-2c2,0,3.4,0.7,4.2,2.2c0.5,1,0.8,2.5,0.8,4.5V48.5z M135.2,36.6c0,0.6-0.5,1-1,1c-0.6,0-1.1-0.5-1.1-1
		c0-0.6,0.5-1,1.1-1C134.8,35.6,135.2,36.1,135.2,36.6z"/>
</g>
</svg>
