<?xml version="1.0" encoding="utf-8"?>
<!-- Generator: Adobe Illustrator 21.0.0, SVG Export Plug-In . SVG Version: 6.00 Build 0)  -->
<svg version="1.1" id="Layer_1" xmlns="http://www.w3.org/2000/svg" xmlns:xlink="http://www.w3.org/1999/xlink" x="0px" y="0px"
	 viewBox="0 0 59 59" style="enable-background:new 0 0 59 59;" xml:space="preserve">
<style type="text/css">
	.st0{fill:#0199DE;}
</style>
<g>
	<path class="st0" d="M24.9,13.8c-0.2,1-0.5,1.5-0.9,1.6l-6.8,2c0.1-0.7,0.4-1.2,0.9-1.5c0.2-0.1,0.8-0.4,1.6-0.7
		c-1-0.5-1.5-1.1-1.6-1.9c0-0.3,0.1-0.6,0.4-1.1c0.6-0.8,1.3-1.5,2-2.1c0.8-0.6,1.4-0.9,2-0.9c0.9,0,1.3,0.5,1.3,1.4
		c0,0.5-0.3,1-0.8,1.6c-0.8-0.5-1.5-0.8-2-0.8c-0.5,0-1,0.3-1.6,0.8c1.4,1.3,2.5,1.9,3.5,1.9C23.5,14.2,24.1,14,24.9,13.8z"/>
	<path class="st0" d="M36.8,20.8c-0.4-0.4-0.7-0.8-0.9-1.3c0.5-1.4,1.3-2.4,2.3-3.2c0.1,1,0.5,1.8,1.2,2.4c0.7,0.7,1.5,1.1,2.4,1.1
		L40,23.2l-1.3-0.7c-0.1,0.8-0.2,1.6-0.2,2.6c0,5.8-0.9,10.8-2.7,15c0.9,1.6,1.3,3.2,1.3,4.8c0,2.4-1.6,3.6-4.8,3.6h-5.6v-3.4
		c3.3,0,5.7-1.6,7.2-4.8c-3.8-6.9-7.8-12.2-11.9-16l-1.2,1c-1.1-1.1-1.8-1.7-1.8-1.8c-0.6-0.7-0.9-1.5-0.9-2.4
		c0-0.8,0.4-2.1,1.2-3.8c5.5,4.5,10.8,11.5,15.7,21c1.4-3.1,2.1-6.6,2.1-10.6c0-0.8-0.1-1.9-0.2-3.5C36.8,22.7,36.8,21.6,36.8,20.8z
		 M35.6,44.3c0-0.7-0.3-1.5-0.8-2.4c-0.7,1.4-1.5,2.5-2.5,3.3h0.5C34.6,45.2,35.6,44.9,35.6,44.3z"/>
</g>
</svg>
