<?xml version="1.0" encoding="utf-8"?>
<!-- Generator: Adobe Illustrator 21.0.0, SVG Export Plug-In . SVG Version: 6.00 Build 0)  -->
<svg version="1.1" id="Layer_1" xmlns="http://www.w3.org/2000/svg" xmlns:xlink="http://www.w3.org/1999/xlink" x="0px" y="0px"
	 viewBox="0 0 59 59" style="enable-background:new 0 0 59 59;" xml:space="preserve">
<style type="text/css">
	.st0{fill:#0199DE;}
</style>
<g>
	<path class="st0" d="M15.9,49H27v3.4H15.9V49z"/>
	<path class="st0" d="M33.1,13.9c0,1-0.4,1.9-1.1,2.8c-0.8,0.9-1.6,1.3-2.6,1.3c-1.8,0-2.7-1-2.7-3c0-1.2,0.3-2.3,0.8-3.1
		c0.6-1.1,1.5-1.6,2.7-1.6c0.8,0,1.5,0.4,2.1,1.2C32.8,12.2,33.1,13,33.1,13.9z M31.7,14.5c0-0.4-0.4-0.9-1.1-1.4
		c-0.7-0.5-1.3-0.8-1.7-0.8c-1,0-1.5,0.6-1.5,1.7c0,1,0.8,1.5,2.4,1.5C31.1,15.5,31.7,15.2,31.7,14.5z"/>
	<path class="st0" d="M29.5,26.6c-0.3-0.3-0.7-0.9-1.1-1.6c0.5-1.2,1.2-2.3,2.2-3.3c0.1,1,0.5,1.8,1.2,2.5c0.7,0.7,1.5,1.1,2.5,1.2
		l-1.8,3.3l-0.9-0.5c-0.2,1.7-0.3,2.7-0.3,2.9c0,1.3,0.3,3.3,0.8,5.9c0.5,2.6,0.8,4.6,0.8,5.9c0,6.4-1.9,9.6-5.8,9.6h-2V49
		c1.9,0,3.2-0.1,4.1-0.3c1.6-0.5,2.4-1.5,2.4-2.8c0-0.6-0.2-2.3-0.7-5.3c-0.3-2-0.7-3.9-1-5.9c-0.4-2.4-0.6-4.4-0.6-5.8
		c0-0.2,0-0.5,0.1-1s0.1-0.9,0-1.2V26.6z"/>
	<path class="st0" d="M43.1,6.6c0,1.1-0.3,1.8-0.8,2.1l-7.6,4.3c0-1,0.5-1.9,1.6-2.5L43.1,6.6z"/>
	<path class="st0" d="M43,21.4c-0.2,1-0.5,1.5-0.9,1.6l-6.8,2c0.1-0.7,0.4-1.2,0.9-1.5c0.2-0.1,0.8-0.4,1.6-0.7
		c-1-0.5-1.5-1.1-1.6-1.9c0-0.3,0.1-0.6,0.4-1.1c0.6-0.8,1.3-1.5,2-2.1c0.8-0.6,1.4-0.9,2-0.9c0.9,0,1.3,0.5,1.3,1.4
		c0,0.5-0.3,1-0.8,1.6c-0.8-0.5-1.5-0.8-2-0.8c-0.5,0-1,0.3-1.7,0.8c1.4,1.3,2.5,1.9,3.5,1.9C41.6,21.8,42.2,21.6,43,21.4z"/>
	<path class="st0" d="M40.8,45.5c0,1.7-0.5,4-1.4,6.9l-0.6-0.2c0.2-1,0.3-2,0.3-3c0-2-0.2-4.6-0.6-7.8c-0.3-2.6-0.7-5.1-1-7.7
		c-0.2-1.6-0.3-2.5-0.3-2.8c0-1.4,0.2-2.5,0.5-3.2c0.5-0.9,1-1.8,1.5-2.7c0,2.6,0.5,8,1.5,16.1C40.8,42.8,40.8,44.2,40.8,45.5z"/>
</g>
</svg>
