<?xml version="1.0" encoding="utf-8"?>
<!-- Generator: Adobe Illustrator 16.0.0, SVG Export Plug-In . SVG Version: 6.00 Build 0)  -->
<!DOCTYPE svg PUBLIC "-//W3C//DTD SVG 1.1//EN" "http://www.w3.org/Graphics/SVG/1.1/DTD/svg11.dtd">
<svg version="1.1" id="Layer_1" xmlns="http://www.w3.org/2000/svg" xmlns:xlink="http://www.w3.org/1999/xlink" x="0px" y="0px"
	 width="288.507px" height="56.734px" viewBox="0 0 288.507 56.734" enable-background="new 0 0 288.507 56.734"
	 xml:space="preserve">
<g>
	<g>
		<g>
			<path fill="#FFFFFF" d="M252.481,0.283c-29.815,9.729-28.284,36.927-28.284,36.927v19.254h56.57V37.21
				C280.767,37.21,282.296,10.011,252.481,0.283L252.481,0.283z"/>
			<path fill="#137BC1" stroke="#137BC1" stroke-width="0.5385" stroke-miterlimit="10" d="M252.481,1.392
				c11.851,3.945,20.03,11.12,24.317,21.322c3.24,7.713,2.922,14.371,2.918,14.437l-0.002,0.029v0.029v18.201h-54.467V37.21V37.18
				l-0.002-0.029c-0.004-0.065-0.33-6.647,2.883-14.352C232.405,12.552,240.597,5.35,252.481,1.392 M252.481,0.283
				c-29.815,9.729-28.284,36.927-28.284,36.927v19.254h56.57V37.21C280.767,37.21,282.296,10.011,252.481,0.283L252.481,0.283z"/>
		</g>
		<path fill="#137BC1" d="M252.482,7.844c8.906,3.407,15.133,9.047,18.525,16.787c2.738,6.245,2.652,11.762,2.641,12.201
			l-0.009,0.125v0.252v10.77h-42.313V37.21v-0.201l-0.012-0.199c-0.003-0.052-0.174-5.444,2.424-11.668
			C237.078,17.137,243.376,11.327,252.482,7.844"/>
		<path fill="#137BC1" stroke="#137BC1" stroke-width="1.077" stroke-miterlimit="10" d="M276.101,31.765
			c-6.544,0-11.869-5.325-11.869-11.869s5.325-11.868,11.869-11.868c6.546,0,11.868,5.324,11.868,11.868
			S282.647,31.765,276.101,31.765z"/>
		<circle fill="#FFFFFF" cx="276.101" cy="19.897" r="10.863"/>
		<g>
			<path fill="#035B75" d="M237.859,47.348v2.792l0.799-0.086c0.646-0.07,1.297-0.104,1.93-0.104c4.861,0,9.656,2.001,11.188,3.196
				l0.3,0.233l0.434,0.339l0.435-0.339l0.302-0.233c1.527-1.194,6.323-3.196,11.185-3.196c0.635,0,1.284,0.033,1.929,0.104
				l0.74,0.086v-2.792H237.859z"/>
			<path fill="#FFFFFF" d="M264.596,39.402c-0.32,0-0.58,0.257-0.58,0.575c0,0.32,0.26,0.58,0.58,0.58h3.058
				c0.317,0,0.576-0.26,0.576-0.58c0-0.318-0.259-0.575-0.576-0.575H264.596z"/>
			<path fill="#FFFFFF" d="M268.238,43.276c0-0.319-0.258-0.576-0.576-0.576h-3.761c-0.317,0-0.579,0.257-0.579,0.576
				s0.262,0.579,0.579,0.579h3.761C267.98,43.855,268.238,43.595,268.238,43.276z"/>
			<path fill="#FFFFFF" d="M267.662,44.35h-3.064c-0.32,0-0.58,0.259-0.58,0.574c0,0.324,0.254,0.581,0.58,0.581h3.064
				c0.318,0,0.576-0.261,0.576-0.581C268.238,44.609,267.98,44.35,267.662,44.35z"/>
			<path fill="#FFFFFF" d="M268.235,41.632c0-0.319-0.258-0.583-0.577-0.583h-4.172c-0.32,0-0.583,0.264-0.583,0.583
				c0,0.318,0.263,0.576,0.583,0.576h4.172C267.977,42.208,268.235,41.95,268.235,41.632z"/>
			<path fill="#FFFFFF" d="M236.608,39.977c0,0.32,0.259,0.58,0.576,0.58h3.058c0.32,0,0.582-0.26,0.582-0.58
				c0-0.318-0.262-0.575-0.582-0.575h-3.058C236.867,39.402,236.608,39.659,236.608,39.977z"/>
			<path fill="#FFFFFF" d="M236.604,41.632c0,0.318,0.258,0.576,0.576,0.576h4.172c0.321,0,0.584-0.258,0.584-0.576
				c0-0.319-0.263-0.583-0.584-0.583h-4.172C236.862,41.049,236.604,41.312,236.604,41.632z"/>
			<path fill="#FFFFFF" d="M236.602,43.276c0,0.319,0.257,0.579,0.575,0.579h3.76c0.32,0,0.582-0.26,0.582-0.579
				s-0.262-0.576-0.582-0.576h-3.76C236.859,42.7,236.602,42.958,236.602,43.276z"/>
			<path fill="#FFFFFF" d="M236.602,44.925c0,0.32,0.257,0.581,0.575,0.581h3.064c0.324,0,0.58-0.256,0.58-0.581
				c0-0.315-0.261-0.574-0.58-0.574h-3.064C236.859,44.35,236.602,44.609,236.602,44.925z"/>
			<path fill="#FFFFFF" d="M257.647,20.971l-0.019,0.295c-0.002,0.031-0.15,2.734,0.904,3.797c0.119-0.443,0.396-1.106,1.028-1.578
				c-0.731-3.25-3.628-5.678-7.101-5.678c-3.475,0-6.371,2.439-7.096,5.696c0.234,0.108,0.909,0.495,1.063,1.505
				c0.445-0.302,1.182-1.161,0.882-3.45l-0.089-0.688l0.541,0.438c0.033,0.025,3.164,2.487,7.65,0.96
				c-0.363-0.2-0.824-0.491-1.17-0.815l-0.515-0.481L257.647,20.971L257.647,20.971z"/>
			<path fill="#FFFFFF" d="M260.332,22.925c0.012-0.162,0.024-0.325,0.024-0.492c0-4.322-3.503-7.825-7.825-7.825
				s-7.826,3.502-7.826,7.825c0,0.167,0.016,0.33,0.022,0.492c1.06-3.301,4.149-5.861,7.804-5.861S259.277,19.624,260.332,22.925z"
				/>
			<path fill="#FFFFFF" d="M261.246,26c0-1.135-0.498-2.056-1.113-2.056c-0.16,0-0.316,0.069-0.457,0.187c0-0.005,0-0.008,0-0.014
				c-0.602,0.608-0.674,1.45-0.674,1.46l-0.029,0.436l-0.383-0.215c-1.443-0.806-1.535-3.386-1.523-4.271h-1.811
				c0.484,0.313,0.955,0.526,0.961,0.528l0.586,0.269l-0.598,0.242c-4.006,1.637-7.106,0.22-8.283-0.485
				c0.199,3.142-1.594,3.604-1.676,3.626l-0.341,0.082v-0.351c0-0.837-0.411-1.21-0.646-1.359c0,0.007-0.004,0.014-0.004,0.018
				c-0.127-0.094-0.262-0.149-0.408-0.149c-0.612,0-1.11,0.92-1.11,2.056c0,1.13,0.498,2.051,1.11,2.051
				c0.292,0,0.553-0.211,0.753-0.548c0.993,2.839,3.687,4.874,6.862,4.874c3.195,0,5.904-2.06,6.888-4.923
				c0.198,0.369,0.479,0.597,0.782,0.597C260.748,28.05,261.246,27.131,261.246,26z M251.294,26.86
				c0.174-0.517,0.646-0.86,1.168-0.86s0.99,0.342,1.168,0.854c0.048,0.141-0.025,0.294-0.166,0.343
				c-0.141,0.05-0.297-0.023-0.344-0.167c-0.103-0.292-0.369-0.492-0.658-0.492c-0.291,0-0.555,0.2-0.655,0.497
				c-0.04,0.112-0.144,0.183-0.254,0.183c-0.032,0-0.062-0.008-0.091-0.016C251.324,27.153,251.248,26.999,251.294,26.86z
				 M256.441,24.993c0,0.603-0.486,1.091-1.089,1.091s-1.09-0.488-1.09-1.091c0-0.604,0.487-1.09,1.09-1.09
				S256.441,24.39,256.441,24.993z M249.576,26.084c-0.6,0-1.091-0.488-1.091-1.091c0-0.604,0.491-1.09,1.091-1.09
				c0.604,0,1.09,0.486,1.09,1.09C250.666,25.595,250.177,26.084,249.576,26.084z M252.462,29.25c1.029,0,1.98-0.096,2.797-0.598
				c-0.571,0.949-1.608,1.584-2.797,1.584c-1.186,0-2.225-0.636-2.795-1.584C250.482,29.153,251.438,29.25,252.462,29.25z"/>
			<g>
				<path fill="#FFFFFF" d="M263.333,33.855c-0.859-0.446-3.281-1.532-5.592-0.946c-0.453-0.592-0.625-0.792-0.625-0.792
					s-0.3-0.271-0.67-0.103c-0.453,0.154-0.486,0.553-0.486,0.553c0,1.837-1.44,3.337-3.248,3.453h-0.517
					c-1.808-0.115-3.243-1.615-3.243-3.453c0,0-0.037-0.398-0.49-0.553c-0.369-0.169-0.67,0.103-0.67,0.103
					s-0.172,0.201-0.625,0.792c-2.311-0.585-4.733,0.5-5.592,0.946c7.529,0,10.879,3.549,10.879,3.549
					S255.776,33.855,263.333,33.855z"/>
			</g>
			<path fill="#FFFFFF" d="M268.062,39.066c0,0-0.417-0.769-1.098-0.899v0.775h0.717C267.681,38.942,267.888,38.962,268.062,39.066z
				"/>
			<path fill="#FFFFFF" d="M236.777,39.066c0,0,0.417-0.769,1.098-0.899v0.775h-0.715C237.16,38.942,236.953,38.962,236.777,39.066z
				"/>
			<g>
				<path fill="#FFFFFF" d="M264.63,38.929h1.945v-4.362c-8.519-1.23-12.765,2.341-13.83,3.305v14.961
					c1.391-1.089,7.203-4.004,13.83-3.294v-3.561h-1.945c-0.59,0-1.055-0.464-1.055-1.054c0-0.227,0.075-0.438,0.201-0.61
					c-0.507-0.076-0.896-0.511-0.896-1.038c0-0.256,0.096-0.489,0.252-0.671c-0.391-0.156-0.668-0.532-0.668-0.975
					c0-0.583,0.474-1.057,1.054-1.057h0.246c-0.117-0.169-0.188-0.374-0.188-0.598C263.578,39.402,264.048,38.929,264.63,38.929z"/>
				<path fill="#FFFFFF" d="M238.326,34.566v4.362h1.945c0.582,0,1.057,0.473,1.057,1.048c0,0.224-0.07,0.428-0.189,0.598h0.244
					c0.582,0,1.057,0.474,1.057,1.057c0,0.441-0.277,0.818-0.668,0.975c0.152,0.182,0.253,0.415,0.253,0.671
					c0,0.526-0.392,0.961-0.899,1.038c0.127,0.173,0.203,0.384,0.203,0.61c0,0.59-0.461,1.054-1.056,1.054h-1.946v3.561
					c6.631-0.71,12.438,2.205,13.832,3.294V37.871C251.244,36.907,246.873,33.336,238.326,34.566z"/>
			</g>
			<g>
				<path fill="#FFFFFF" d="M249.552,32.387c-0.006,0.06-0.014,0.117-0.014,0.18c0,1.605,1.305,2.912,2.912,2.912
					c1.606,0,2.908-1.307,2.908-2.912c0-0.118,0.002-0.042-0.011-0.156c-0.64,0.275-1.306,0.417-2.005,0.479
					c-0.293,0.032-0.592,0.052-0.895,0.052C251.429,32.942,250.451,32.744,249.552,32.387z"/>
			</g>
		</g>
	</g>
</g>
<g>
	<g>
		<g>
			<g>
				<g>
					<path fill="#137BC1" d="M14.124,20.707c0,1.642-0.403,3.056-1.242,4.241c-0.988,1.339-2.28,2.021-3.88,2.021
						c-1.621,0-2.914-0.682-3.901-2.021c-0.838-1.186-1.269-2.6-1.269-4.241v-6.688H0.967v7.02c0,2.448,0.811,4.491,2.408,6.157
						c1.547,1.641,3.422,2.476,5.626,2.476c2.233,0,4.106-0.858,5.655-2.574c1.548-1.691,2.331-3.711,2.331-6.059v-7.02h-2.864
						L14.124,20.707L14.124,20.707z"/>
					<rect x="7.662" y="8.892" fill="#137BC1" width="2.786" height="2.802"/>
					<path fill="#137BC1" d="M24.825,13.992c-3.193,0-5.449,2.323-5.449,5.731c0,3.357,2.182,5.754,5.449,5.754
						c1.296,0,2.207-0.429,2.688-1.285c-0.05,1.968-0.939,3.152-2.711,3.204v2.249c3.674,0,5.5-1.516,5.5-4.521V19.8
						C30.302,16.465,28.173,13.992,24.825,13.992z M24.825,22.93c-1.547,0-2.611-1.44-2.611-3.207c0-1.716,0.99-3.156,2.486-3.156
						c1.621,0,2.686,1.313,2.686,3.282C27.385,21.515,26.347,22.93,24.825,22.93z"/>
					<rect x="56.089" y="8.892" fill="#137BC1" width="2.763" height="2.802"/>
					<rect x="58.499" y="4.904" fill="#137BC1" width="2.788" height="2.827"/>
					<rect x="60.881" y="8.892" fill="#137BC1" width="2.763" height="2.802"/>
					<path fill="#137BC1" d="M65.672,19.822c0,1.845-0.71,2.778-2.153,2.778h-2.766c0.382-0.403,0.585-1.439,0.585-3.08v-5.503
						h-2.866v5.781c0,1.868-0.71,2.802-2.153,2.802h-2.637v-0.151c0.302-0.478,0.454-1.44,0.454-2.928v-5.503h-2.864v5.603
						c0,1.996-0.709,2.98-2.155,2.98H47.57h-0.53h-4.137h-0.936h-3.424v-8.583h-2.841v9.644c0,2.421-1.165,3.585-3.524,3.585v2.423
						c3.449,0,5.758-1.491,6.188-4.191h3.602h0.936h4.137h0.53h16.051c2.888,0,4.919-2.373,4.919-6.008v-5.452h-2.867v5.804H65.672z
						"/>
					<path fill="#137BC1" d="M82.233,19.95c0,0.91-0.075,1.515-0.202,1.818C81.75,22.322,81.17,22.6,80.229,22.6h-1.447H77.82h-0.71
						c-1.065,0-1.801-0.151-2.183-0.429c-0.529-0.38-0.81-1.186-0.81-2.424V9.195h-2.815v11.688c0,1.391,0.331,2.478,1.016,3.283
						c0.736,0.883,1.773,1.312,3.144,1.312h2.358h0.962h2.031c2.841,0,4.259-1.515,4.259-4.569v-6.891h-2.839V19.95z"/>
					<rect x="82.259" y="8.892" fill="#137BC1" width="2.761" height="2.802"/>
					<rect x="146.563" y="8.892" fill="#137BC1" width="2.788" height="2.802"/>
					<path fill="#137BC1" d="M172.932,19.95c0,0.91-0.074,1.515-0.202,1.818c-0.279,0.554-0.861,0.832-1.801,0.832h-1.525h-0.883
						h-1.652v-0.731c0-1.69-0.531-3.082-1.57-4.217c-1.038-1.135-2.408-1.691-4.109-1.691c-1.693,0-3.064,0.557-4.13,1.642
						c-1.04,1.085-1.572,2.474-1.572,4.166c0,0.276,0,0.554,0.027,0.832h-1.902h-0.836h-4.032c0.407-0.48,0.608-1.439,0.608-2.93
						v-5.653h-2.815v5.805c0,0.884-0.103,1.541-0.303,1.918c-0.307,0.582-0.863,0.86-1.7,0.86h-2.031h-0.604h-4.342h-0.655H135.3
						c0-6.362-3.243-11.108-8.746-12.22l-0.354,2.703c3.675,0.755,6.286,4.492,6.286,8.734c0,0.252,0,0.504-0.024,0.782h-3.347
						c0.43-1.034,0.658-1.92,0.658-2.624c0-3.031-2.028-4.9-4.994-4.9c-2.966,0-5.02,1.869-5.02,4.9c0,0.729,0.23,1.589,0.662,2.624
						h-2.944h-0.555h-3.96h-1.086h-3.198c0.101-0.53,0.15-1.034,0.15-1.563V9.195h-2.862v11.512c0,3.562-2.131,6.26-5.122,6.26
						c-3.093,0-5.172-2.773-5.172-6.26v-2.145h-2.866v2.475c0,4.745,3.626,8.633,8.038,8.633c2.789,0,5.399-1.563,6.844-4.191h4.188
						h1.086h3.96h0.555h19.425h0.655h4.342h0.604h10.273h0.836h3.043c1.091,1.464,2.587,2.196,4.534,2.196
						c1.984,0,3.501-0.731,4.594-2.196h2.739h0.883h2.109c2.839,0,4.258-1.515,4.258-4.569V9.195h-2.839L172.932,19.95
						L172.932,19.95z M124.778,22.677c-1.367,0-2.331-1.163-2.331-2.701c0-1.519,0.838-2.653,2.331-2.653
						c1.395,0,2.332,1.06,2.332,2.653C127.11,21.489,126.122,22.677,124.778,22.677z M163.292,24.089
						c-0.479,0.633-1.164,0.959-2.024,0.959c-1.751,0-2.868-1.488-2.868-3.309c0-0.881,0.23-1.639,0.661-2.22
						c0.509-0.683,1.192-1.012,2.056-1.012c0.885,0,1.622,0.354,2.154,1.037c0.456,0.632,0.684,1.412,0.684,2.299
						C163.955,22.751,163.727,23.509,163.292,24.089z"/>
					<rect x="178.382" y="9.168" fill="#137BC1" width="2.816" height="16.31"/>
					<path fill="#137BC1" d="M192.682,23.661c0,2.421-1.163,3.585-3.521,3.585v2.423c4.356,0,6.361-1.895,6.361-6.438v-9.214h-2.842
						L192.682,23.661L192.682,23.661z"/>
					<rect x="198.134" y="9.168" fill="#137BC1" width="2.814" height="16.31"/>
					<path fill="#137BC1" d="M210.251,14.42c-0.658-0.226-1.162-0.328-1.519-0.352c-0.356-0.025-1.243-0.051-2.637-0.051v2.574
						c0.911,0,1.772,0.052,2.562,0.228c2.561,0.556,3.854,2.474,3.854,5.781h-9.178v2.877h12.039V22.6
						C215.349,18.284,213.652,15.557,210.251,14.42z"/>
				</g>
				<g>
					<path fill="#137BC1" d="M6.518,40.444c0.83,0,1.602,0.137,2.316,0.412c0.715,0.272,1.334,0.687,1.855,1.234
						c0.522,0.551,0.931,1.236,1.227,2.062c0.293,0.822,0.441,1.792,0.441,2.902c0,0.975-0.12,1.875-0.36,2.699
						c-0.241,0.824-0.604,1.534-1.091,2.133c-0.486,0.602-1.095,1.072-1.82,1.418c-0.728,0.342-1.582,0.512-2.568,0.512H0.967
						V40.444H6.518z M6.321,51.344c0.408,0,0.806-0.07,1.191-0.206c0.382-0.137,0.725-0.364,1.025-0.686
						c0.299-0.315,0.539-0.733,0.721-1.244c0.18-0.512,0.27-1.137,0.27-1.873c0-0.675-0.064-1.284-0.189-1.827
						c-0.125-0.542-0.331-1.007-0.621-1.394c-0.287-0.389-0.669-0.685-1.145-0.893c-0.475-0.203-1.061-0.308-1.758-0.308H3.797
						v8.429L6.321,51.344L6.321,51.344z"/>
					<path fill="#137BC1" d="M13.944,47.11c0.035-0.623,0.184-1.142,0.451-1.552c0.262-0.414,0.602-0.744,1.008-0.993
						c0.408-0.249,0.869-0.428,1.38-0.536c0.512-0.107,1.021-0.158,1.541-0.158c0.468,0,0.941,0.035,1.422,0.103
						c0.481,0.069,0.919,0.203,1.317,0.402c0.395,0.199,0.721,0.479,0.973,0.834c0.253,0.356,0.379,0.826,0.379,1.414v5.037
						c0,0.438,0.023,0.857,0.072,1.258c0.048,0.398,0.132,0.697,0.25,0.896h-2.596c-0.047-0.148-0.086-0.303-0.115-0.459
						c-0.029-0.154-0.051-0.313-0.063-0.478c-0.411,0.438-0.891,0.742-1.441,0.917c-0.554,0.177-1.118,0.264-1.694,0.264
						c-0.444,0-0.86-0.058-1.245-0.168c-0.385-0.112-0.721-0.287-1.009-0.525c-0.287-0.238-0.514-0.536-0.675-0.897
						c-0.162-0.361-0.245-0.794-0.245-1.291c0-0.552,0.095-1.003,0.282-1.359c0.185-0.354,0.424-0.641,0.721-0.854
						c0.294-0.212,0.628-0.369,1.008-0.475c0.381-0.107,0.76-0.19,1.145-0.254c0.385-0.064,0.762-0.114,1.136-0.149
						c0.372-0.037,0.702-0.095,0.992-0.168c0.285-0.075,0.515-0.186,0.685-0.33c0.168-0.141,0.246-0.349,0.231-0.626
						c0-0.288-0.044-0.516-0.133-0.684c-0.091-0.168-0.212-0.299-0.362-0.394c-0.15-0.094-0.323-0.156-0.522-0.188
						c-0.196-0.029-0.409-0.047-0.638-0.047c-0.505,0-0.9,0.113-1.192,0.335c-0.286,0.228-0.456,0.6-0.505,1.125L13.944,47.11
						L13.944,47.11z M19.853,49.079c-0.107,0.099-0.241,0.18-0.403,0.234c-0.163,0.055-0.338,0.104-0.523,0.141
						c-0.186,0.035-0.382,0.066-0.586,0.093c-0.203,0.023-0.408,0.059-0.611,0.096c-0.193,0.036-0.381,0.086-0.568,0.147
						c-0.186,0.063-0.35,0.146-0.487,0.254c-0.138,0.105-0.249,0.239-0.333,0.402c-0.085,0.161-0.125,0.369-0.125,0.615
						c0,0.238,0.04,0.438,0.125,0.6c0.084,0.164,0.199,0.293,0.344,0.387c0.144,0.095,0.311,0.159,0.503,0.195
						c0.192,0.037,0.392,0.057,0.595,0.057c0.506,0,0.896-0.087,1.173-0.262c0.274-0.178,0.479-0.384,0.612-0.627
						c0.131-0.245,0.213-0.492,0.242-0.74c0.032-0.251,0.044-0.451,0.044-0.6v-0.992H19.853z"/>
					<path fill="#137BC1" d="M26.829,44.133v1.8h0.037c0.117-0.301,0.281-0.576,0.485-0.833c0.204-0.258,0.437-0.476,0.702-0.657
						c0.266-0.181,0.547-0.32,0.848-0.421c0.3-0.103,0.611-0.149,0.938-0.149c0.165,0,0.353,0.031,0.556,0.094v2.472
						c-0.117-0.023-0.265-0.047-0.43-0.066c-0.17-0.018-0.332-0.025-0.488-0.025c-0.469,0-0.863,0.079-1.19,0.241
						c-0.323,0.164-0.585,0.385-0.783,0.667c-0.196,0.28-0.337,0.608-0.423,0.982c-0.084,0.375-0.126,0.781-0.126,1.218v4.361
						h-2.559v-9.683H26.829z"/>
					<path fill="#137BC1" d="M43.102,40.444l4.812,13.371h-2.939l-0.971-2.979h-4.812l-1.01,2.979h-2.848L40.2,40.444H43.102z
						 M43.264,48.647l-1.623-4.906h-0.035l-1.678,4.906H43.264z"/>
					<path fill="#137BC1" d="M51.39,40.444v13.371h-2.559V40.444H51.39z"/>
					<path fill="#137BC1" d="M62.674,40.444l3.009,9.197h0.035l2.848-9.197h3.982v13.371h-2.649v-9.478h-0.035l-3.152,9.478h-2.181
						l-3.156-9.383h-0.036v9.383H58.69V40.444H62.674z"/>
					<path fill="#137BC1" d="M74.656,47.11c0.035-0.623,0.187-1.142,0.451-1.552c0.263-0.414,0.602-0.744,1.01-0.993
						c0.405-0.249,0.868-0.428,1.377-0.536c0.513-0.107,1.024-0.158,1.543-0.158c0.469,0,0.941,0.035,1.423,0.103
						c0.48,0.069,0.917,0.203,1.315,0.402c0.396,0.199,0.721,0.479,0.973,0.834c0.254,0.356,0.378,0.826,0.378,1.414v5.037
						c0,0.438,0.025,0.857,0.074,1.258c0.048,0.398,0.131,0.697,0.251,0.896h-2.595c-0.047-0.148-0.088-0.303-0.115-0.459
						c-0.033-0.154-0.055-0.313-0.065-0.478c-0.409,0.438-0.89,0.742-1.442,0.917c-0.552,0.177-1.116,0.264-1.694,0.264
						c-0.442,0-0.859-0.058-1.243-0.168c-0.385-0.112-0.721-0.287-1.01-0.525c-0.287-0.238-0.513-0.536-0.673-0.897
						c-0.163-0.361-0.245-0.794-0.245-1.291c0-0.552,0.095-1.003,0.28-1.359c0.184-0.354,0.425-0.641,0.719-0.854
						c0.297-0.212,0.633-0.369,1.009-0.475c0.381-0.107,0.761-0.19,1.146-0.254c0.386-0.064,0.764-0.114,1.135-0.149
						c0.373-0.037,0.702-0.095,0.994-0.168c0.286-0.075,0.514-0.186,0.685-0.33c0.166-0.141,0.246-0.349,0.232-0.626
						c0-0.288-0.046-0.516-0.135-0.684c-0.09-0.168-0.212-0.299-0.361-0.394c-0.151-0.094-0.324-0.156-0.52-0.188
						c-0.2-0.029-0.413-0.047-0.642-0.047c-0.504,0-0.9,0.113-1.189,0.335c-0.289,0.228-0.459,0.6-0.506,1.125L74.656,47.11
						L74.656,47.11z M80.567,49.079c-0.107,0.099-0.243,0.18-0.405,0.234c-0.162,0.054-0.338,0.104-0.522,0.141
						c-0.186,0.035-0.381,0.066-0.586,0.093c-0.204,0.023-0.409,0.059-0.612,0.096c-0.192,0.036-0.38,0.086-0.569,0.147
						c-0.185,0.063-0.347,0.146-0.485,0.254c-0.14,0.105-0.25,0.239-0.335,0.402c-0.082,0.161-0.124,0.369-0.124,0.615
						c0,0.238,0.042,0.438,0.124,0.6c0.085,0.164,0.199,0.293,0.344,0.387c0.144,0.095,0.313,0.159,0.505,0.195
						c0.192,0.037,0.392,0.057,0.594,0.057c0.506,0,0.896-0.087,1.174-0.262c0.274-0.178,0.479-0.384,0.611-0.627
						c0.132-0.245,0.214-0.492,0.242-0.74c0.031-0.251,0.046-0.451,0.046-0.6v-0.992H80.567z"/>
					<path fill="#137BC1" d="M87.542,44.133v1.35h0.054c0.324-0.563,0.745-0.968,1.26-1.227c0.518-0.256,1.047-0.384,1.587-0.384
						c0.685,0,1.247,0.098,1.686,0.291s0.783,0.462,1.036,0.806c0.252,0.344,0.431,0.761,0.531,1.254
						c0.101,0.493,0.152,1.041,0.152,1.64v5.954h-2.557V48.35c0-0.802-0.121-1.396-0.363-1.788
						c-0.238-0.396-0.666-0.593-1.278-0.593c-0.697,0-1.203,0.216-1.514,0.646c-0.313,0.433-0.468,1.141-0.468,2.125v5.075h-2.561
						v-9.682h2.435V44.133z"/>
					<path fill="#137BC1" d="M98.353,40.444v5.038h0.055c0.325-0.563,0.74-0.968,1.243-1.227c0.505-0.256,0.995-0.384,1.478-0.384
						c0.687,0,1.247,0.098,1.688,0.291c0.437,0.193,0.783,0.462,1.034,0.806c0.253,0.344,0.431,0.761,0.532,1.254
						c0.102,0.493,0.151,1.041,0.151,1.64v5.954h-2.556V48.35c0-0.802-0.12-1.396-0.362-1.788c-0.24-0.396-0.668-0.593-1.28-0.593
						c-0.696,0-1.203,0.216-1.513,0.646c-0.313,0.433-0.47,1.141-0.47,2.125v5.075h-2.557V40.444H98.353z"/>
					<path fill="#137BC1" d="M106.374,47.11c0.036-0.623,0.186-1.142,0.452-1.552c0.261-0.414,0.6-0.744,1.009-0.993
						c0.406-0.249,0.867-0.428,1.379-0.536c0.508-0.107,1.024-0.158,1.54-0.158c0.468,0,0.943,0.035,1.422,0.103
						c0.483,0.069,0.92,0.203,1.316,0.402s0.721,0.479,0.971,0.834c0.254,0.356,0.382,0.826,0.382,1.414v5.037
						c0,0.438,0.021,0.857,0.072,1.258c0.048,0.398,0.131,0.697,0.251,0.896h-2.596c-0.048-0.148-0.087-0.303-0.116-0.459
						c-0.03-0.154-0.052-0.313-0.063-0.478c-0.41,0.438-0.889,0.742-1.441,0.917c-0.55,0.177-1.117,0.264-1.691,0.264
						c-0.446,0-0.862-0.058-1.246-0.168c-0.385-0.112-0.723-0.287-1.009-0.525c-0.288-0.238-0.512-0.536-0.678-0.897
						c-0.16-0.361-0.242-0.794-0.242-1.291c0-0.552,0.093-1.003,0.279-1.359c0.188-0.354,0.428-0.641,0.723-0.854
						c0.292-0.212,0.631-0.369,1.007-0.475c0.382-0.107,0.762-0.19,1.146-0.254c0.385-0.064,0.762-0.114,1.134-0.149
						c0.373-0.037,0.702-0.095,0.99-0.168c0.289-0.075,0.518-0.186,0.686-0.33c0.169-0.141,0.247-0.349,0.234-0.626
						c0-0.288-0.046-0.516-0.134-0.684c-0.091-0.168-0.214-0.299-0.361-0.394c-0.15-0.094-0.323-0.156-0.522-0.188
						c-0.198-0.029-0.41-0.047-0.639-0.047c-0.505,0-0.903,0.113-1.19,0.335c-0.287,0.228-0.458,0.6-0.505,1.125L106.374,47.11
						L106.374,47.11z M112.284,49.079c-0.108,0.099-0.242,0.18-0.405,0.234c-0.161,0.055-0.335,0.104-0.521,0.141
						c-0.188,0.035-0.384,0.066-0.586,0.093c-0.205,0.023-0.407,0.059-0.613,0.096c-0.191,0.036-0.381,0.086-0.567,0.147
						c-0.185,0.063-0.348,0.146-0.484,0.254c-0.139,0.105-0.251,0.239-0.335,0.402c-0.085,0.161-0.126,0.369-0.126,0.615
						c0,0.238,0.041,0.438,0.126,0.6c0.084,0.164,0.199,0.293,0.344,0.387c0.145,0.095,0.311,0.159,0.502,0.195
						c0.193,0.037,0.392,0.057,0.596,0.057c0.505,0,0.895-0.087,1.171-0.262c0.277-0.178,0.48-0.384,0.612-0.627
						c0.132-0.245,0.214-0.492,0.242-0.74c0.031-0.251,0.046-0.451,0.046-0.6v-0.992H112.284z"/>
					<path fill="#137BC1" d="M119.458,40.444v13.371h-2.561V40.444H119.458z"/>
					<path fill="#137BC1" d="M132.557,40.444c0.806,0,1.49,0.122,2.054,0.364c0.567,0.245,1.022,0.567,1.379,0.965
						c0.356,0.399,0.612,0.855,0.775,1.368c0.162,0.512,0.242,1.043,0.242,1.591c0,0.537-0.08,1.063-0.242,1.583
						c-0.163,0.518-0.419,0.977-0.775,1.375c-0.356,0.399-0.812,0.723-1.379,0.965c-0.563,0.243-1.248,0.365-2.054,0.365h-2.974
						v4.793h-2.829V40.444H132.557z M131.783,46.737c0.324,0,0.638-0.025,0.938-0.075c0.299-0.048,0.563-0.146,0.793-0.292
						c0.228-0.143,0.411-0.346,0.547-0.606c0.141-0.263,0.209-0.605,0.209-1.031c0-0.422-0.068-0.768-0.209-1.028
						c-0.136-0.264-0.319-0.466-0.547-0.61c-0.229-0.144-0.494-0.239-0.793-0.289c-0.301-0.051-0.614-0.077-0.938-0.077h-2.199
						v4.009L131.783,46.737L131.783,46.737z"/>
					<path fill="#137BC1" d="M144.812,53.815v-1.349h-0.055c-0.324,0.563-0.745,0.97-1.261,1.22
						c-0.518,0.25-1.047,0.373-1.585,0.373c-0.686,0-1.248-0.096-1.686-0.28c-0.439-0.188-0.784-0.454-1.037-0.798
						c-0.253-0.342-0.428-0.76-0.531-1.254c-0.103-0.492-0.152-1.039-0.152-1.64v-5.956h2.559v5.472c0,0.799,0.119,1.395,0.36,1.787
						c0.241,0.392,0.667,0.59,1.279,0.59c0.696,0,1.203-0.216,1.515-0.646c0.312-0.43,0.468-1.137,0.468-2.125v-5.077h2.56v9.683
						L144.812,53.815L144.812,53.815z"/>
					<path fill="#137BC1" d="M151.753,40.444v4.871h0.033c0.313-0.5,0.736-0.867,1.271-1.096c0.535-0.232,1.093-0.349,1.667-0.349
						c0.469,0,0.931,0.101,1.388,0.299c0.457,0.199,0.868,0.505,1.235,0.918c0.364,0.412,0.663,0.938,0.892,1.581
						c0.227,0.646,0.342,1.409,0.342,2.295c0,0.889-0.115,1.653-0.342,2.295c-0.229,0.644-0.525,1.172-0.892,1.585
						c-0.367,0.411-0.778,0.718-1.235,0.915c-0.457,0.202-0.919,0.301-1.388,0.301c-0.685,0-1.298-0.111-1.839-0.336
						c-0.539-0.226-0.949-0.609-1.227-1.144h-0.035v1.234h-2.432v-13.37H151.753z M155.897,47.804
						c-0.085-0.374-0.217-0.705-0.396-0.992c-0.184-0.288-0.406-0.516-0.676-0.686c-0.271-0.167-0.6-0.25-0.984-0.25
						c-0.373,0-0.696,0.083-0.975,0.25c-0.275,0.17-0.505,0.397-0.687,0.686c-0.177,0.287-0.312,0.618-0.394,0.992
						c-0.084,0.374-0.129,0.767-0.129,1.179c0,0.398,0.045,0.786,0.129,1.163c0.082,0.374,0.217,0.706,0.394,0.992
						c0.182,0.285,0.409,0.516,0.687,0.683c0.277,0.17,0.602,0.252,0.975,0.252c0.386,0,0.713-0.082,0.984-0.252
						c0.27-0.167,0.492-0.396,0.676-0.683c0.179-0.286,0.311-0.618,0.396-0.992c0.085-0.377,0.126-0.765,0.126-1.163
						C156.023,48.571,155.982,48.178,155.897,47.804z"/>
					<path fill="#137BC1" d="M162.833,40.444v13.371h-2.558V40.444H162.833z"/>
					<path fill="#137BC1" d="M164.923,42.634v-2.189h2.563v2.189H164.923z M167.487,44.133v9.683h-2.563v-9.683H167.487z"/>
					<path fill="#137BC1" d="M171.658,51.411c0.112,0.205,0.26,0.373,0.441,0.503c0.179,0.134,0.388,0.229,0.619,0.293
						c0.236,0.062,0.478,0.093,0.73,0.093c0.18,0,0.369-0.021,0.566-0.063c0.199-0.043,0.379-0.115,0.541-0.207
						c0.162-0.094,0.299-0.219,0.406-0.374c0.107-0.157,0.162-0.354,0.162-0.593c0-0.396-0.256-0.697-0.767-0.896
						c-0.513-0.201-1.224-0.399-2.136-0.602c-0.374-0.085-0.739-0.189-1.09-0.306c-0.354-0.12-0.672-0.275-0.945-0.471
						c-0.277-0.192-0.502-0.438-0.668-0.729c-0.169-0.293-0.254-0.652-0.254-1.078c0-0.625,0.117-1.136,0.352-1.535
						c0.235-0.399,0.545-0.716,0.928-0.946c0.388-0.23,0.82-0.394,1.299-0.488c0.482-0.095,0.974-0.14,1.478-0.14
						c0.507,0,0.995,0.048,1.47,0.149c0.476,0.101,0.898,0.268,1.271,0.508c0.372,0.236,0.682,0.55,0.927,0.944
						c0.248,0.393,0.396,0.89,0.441,1.487H175c-0.037-0.512-0.225-0.857-0.561-1.04c-0.336-0.18-0.734-0.271-1.188-0.271
						c-0.146,0-0.303,0.009-0.471,0.028c-0.169,0.019-0.32,0.06-0.457,0.119c-0.143,0.065-0.256,0.156-0.355,0.275
						c-0.096,0.119-0.145,0.278-0.145,0.476c0,0.238,0.086,0.433,0.256,0.581c0.164,0.151,0.387,0.271,0.654,0.363
						c0.271,0.094,0.58,0.181,0.93,0.254c0.349,0.077,0.703,0.157,1.063,0.244c0.374,0.087,0.734,0.193,1.095,0.32
						c0.351,0.125,0.666,0.29,0.94,0.495c0.279,0.207,0.504,0.463,0.669,0.768c0.168,0.307,0.25,0.687,0.25,1.135
						c0,0.638-0.122,1.17-0.364,1.601c-0.25,0.432-0.57,0.778-0.965,1.041c-0.398,0.262-0.854,0.444-1.361,0.552
						c-0.509,0.106-1.031,0.159-1.559,0.159c-0.542,0-1.068-0.058-1.588-0.168c-0.514-0.112-0.977-0.299-1.379-0.563
						c-0.403-0.263-0.731-0.608-0.987-1.039c-0.263-0.43-0.399-0.971-0.429-1.619h2.435
						C171.484,50.959,171.541,51.206,171.658,51.411z"/>
					<path fill="#137BC1" d="M181.738,40.444v5.038h0.055c0.326-0.563,0.74-0.968,1.244-1.227c0.504-0.256,0.994-0.384,1.479-0.384
						c0.686,0,1.244,0.098,1.684,0.291s0.784,0.462,1.036,0.806s0.429,0.761,0.53,1.254c0.104,0.493,0.154,1.041,0.154,1.64v5.954
						h-2.56V48.35c0-0.802-0.122-1.396-0.36-1.788c-0.238-0.396-0.666-0.593-1.281-0.593c-0.697,0-1.2,0.216-1.512,0.646
						c-0.313,0.433-0.47,1.141-0.47,2.125v5.075h-2.558V40.444H181.738z"/>
					<path fill="#137BC1" d="M192.605,51.494c0.385,0.388,0.938,0.579,1.658,0.579c0.516,0,0.96-0.133,1.33-0.401
						c0.373-0.267,0.604-0.554,0.688-0.853h2.254c-0.363,1.162-0.914,1.993-1.658,2.49c-0.744,0.499-1.646,0.75-2.703,0.75
						c-0.732,0-1.396-0.119-1.982-0.363s-1.086-0.59-1.496-1.041c-0.406-0.448-0.723-0.988-0.943-1.611
						c-0.227-0.624-0.334-1.309-0.334-2.061c0-0.721,0.112-1.398,0.344-2.021c0.228-0.625,0.55-1.165,0.969-1.618
						c0.422-0.456,0.923-0.814,1.508-1.079c0.579-0.263,1.229-0.394,1.938-0.394c0.789,0,1.482,0.158,2.072,0.478
						c0.59,0.318,1.071,0.748,1.451,1.283c0.377,0.539,0.649,1.147,0.819,1.838c0.169,0.687,0.226,1.402,0.181,2.152h-6.723
						C192.007,50.483,192.218,51.106,192.605,51.494z M195.496,46.4c-0.304-0.352-0.771-0.523-1.395-0.523
						c-0.407,0-0.748,0.071-1.02,0.215c-0.272,0.143-0.485,0.321-0.649,0.532c-0.162,0.212-0.274,0.438-0.343,0.674
						c-0.064,0.238-0.103,0.449-0.115,0.636h4.163C196.016,47.262,195.802,46.75,195.496,46.4z"/>
					<path fill="#137BC1" d="M202.64,44.133v1.8h0.035c0.121-0.301,0.285-0.576,0.49-0.833c0.201-0.258,0.438-0.476,0.701-0.657
						c0.264-0.181,0.545-0.32,0.848-0.421c0.3-0.103,0.611-0.149,0.938-0.149c0.166,0,0.354,0.031,0.557,0.094v2.472
						c-0.119-0.023-0.262-0.047-0.431-0.066c-0.169-0.018-0.333-0.025-0.489-0.025c-0.468,0-0.86,0.079-1.188,0.241
						c-0.323,0.164-0.585,0.385-0.785,0.667c-0.199,0.28-0.336,0.608-0.422,0.982c-0.083,0.375-0.127,0.781-0.127,1.218v4.361
						h-2.561v-9.683H202.64z"/>
					<path fill="#137BC1" d="M209.373,51.411c0.113,0.205,0.26,0.373,0.443,0.503c0.178,0.134,0.385,0.229,0.618,0.293
						c0.237,0.062,0.479,0.093,0.729,0.093c0.184,0,0.371-0.021,0.569-0.063c0.199-0.043,0.379-0.115,0.539-0.207
						c0.16-0.094,0.299-0.219,0.407-0.374c0.107-0.157,0.162-0.354,0.162-0.593c0-0.396-0.256-0.697-0.766-0.896
						c-0.512-0.201-1.224-0.399-2.137-0.602c-0.372-0.085-0.734-0.189-1.093-0.306c-0.354-0.12-0.667-0.275-0.944-0.471
						c-0.275-0.192-0.5-0.438-0.666-0.729c-0.169-0.293-0.254-0.652-0.254-1.078c0-0.625,0.119-1.136,0.352-1.535
						c0.234-0.399,0.547-0.716,0.931-0.946c0.381-0.23,0.817-0.394,1.298-0.488c0.479-0.095,0.973-0.14,1.477-0.14
						s0.994,0.048,1.467,0.149c0.477,0.101,0.9,0.268,1.271,0.508c0.375,0.236,0.684,0.55,0.928,0.944
						c0.248,0.393,0.394,0.89,0.441,1.487h-2.434c-0.033-0.512-0.224-0.857-0.558-1.04c-0.335-0.18-0.731-0.271-1.19-0.271
						c-0.144,0-0.297,0.009-0.467,0.028c-0.168,0.019-0.32,0.06-0.461,0.119c-0.138,0.065-0.257,0.156-0.353,0.275
						c-0.095,0.119-0.144,0.278-0.144,0.476c0,0.238,0.084,0.433,0.252,0.581c0.168,0.151,0.388,0.271,0.656,0.363
						c0.274,0.094,0.582,0.181,0.932,0.254c0.349,0.077,0.701,0.157,1.063,0.244c0.372,0.087,0.736,0.193,1.09,0.32
						c0.354,0.125,0.672,0.29,0.945,0.495c0.277,0.207,0.498,0.463,0.667,0.768c0.17,0.307,0.254,0.687,0.254,1.135
						c0,0.638-0.126,1.17-0.369,1.601c-0.247,0.432-0.567,0.778-0.964,1.041c-0.396,0.262-0.85,0.444-1.361,0.552
						c-0.513,0.105-1.029,0.159-1.558,0.159c-0.54,0-1.069-0.058-1.586-0.168c-0.519-0.112-0.979-0.299-1.382-0.563
						c-0.402-0.263-0.731-0.608-0.989-1.039c-0.26-0.43-0.401-0.971-0.423-1.619h2.434
						C209.203,50.959,209.259,51.206,209.373,51.411z"/>
				</g>
			</g>
		</g>
	</g>
</g>
</svg>
