<?xml version="1.0" encoding="utf-8"?>
<!-- Generator: Adobe Illustrator 21.0.0, SVG Export Plug-In . SVG Version: 6.00 Build 0)  -->
<svg version="1.1" id="Layer_1" xmlns="http://www.w3.org/2000/svg" xmlns:xlink="http://www.w3.org/1999/xlink" x="0px" y="0px"
	 viewBox="0 0 254.1 269.2" style="enable-background:new 0 0 254.1 269.2;" xml:space="preserve">
<style type="text/css">
	.st0{opacity:0.2;fill:#191919;}
	.st1{fill:url(#SVGID_1_);}
	.st2{opacity:0.5;fill:#FFFFFF;}
	.st3{fill:url(#SVGID_2_);}
	.st4{opacity:0.1;fill:#191919;}
	.st5{fill:url(#SVGID_3_);}
	.st6{fill:url(#SVGID_4_);}
	.st7{fill:url(#SVGID_5_);}
	.st8{fill:url(#SVGID_6_);}
	.st9{opacity:0.5;fill:none;stroke:#000000;stroke-width:2;stroke-miterlimit:10;}
</style>
<g>
	<g>
		<path class="st0" d="M13.3,237.6c1.9-10.5,3.5-16.6,3.1-30.8c0,0,0-100.6,0-100.6h202.7v160.6L5,267.2
			C5,267.2,10.4,253.6,13.3,237.6z"/>
	</g>
	<g>
		
			<linearGradient id="SVGID_1_" gradientUnits="userSpaceOnUse" x1="210.8486" y1="-17.8267" x2="44.8896" y2="180.8651" gradientTransform="matrix(0.9949 0.1012 -0.1012 0.9949 17.7722 46.6186)">
			<stop  offset="0.138" style="stop-color:#FFFF00"/>
			<stop  offset="0.8429" style="stop-color:#FAC212"/>
		</linearGradient>
		<path class="st1" d="M14.3,48.2l-4.2,111.9c0,0-2.3,35.2,8.6,44.9L67.6,235c0,0,23.1,18.1,37.9,20.9c0,0,43,9.6,63.4,9.7
			c0,0,50.5,0.5,56.4,0.5L230.1,51L14.3,48.2z"/>
		<polygon class="st2" points="229.6,76.8 13.4,71.5 14.3,48.3 230.1,51 		"/>
		
			<linearGradient id="SVGID_2_" gradientUnits="userSpaceOnUse" x1="69.6488" y1="149.4" x2="60.5001" y2="173.253" gradientTransform="matrix(0.9949 0.1012 -0.1012 0.9949 17.7722 46.6186)">
			<stop  offset="5.903220e-02" style="stop-color:#FFFF00"/>
			<stop  offset="0.1294" style="stop-color:#FCEA07"/>
			<stop  offset="0.2524" style="stop-color:#F9CB11"/>
			<stop  offset="0.3814" style="stop-color:#F6B318"/>
			<stop  offset="0.5172" style="stop-color:#F4A11E"/>
			<stop  offset="0.6642" style="stop-color:#F29721"/>
			<stop  offset="0.8429" style="stop-color:#F29422"/>
		</linearGradient>
		<path class="st3" d="M15,199.9c0,0,6.7,13.9,30,1.5c0,0,26,44.7,58.2,53.9C103.3,255.4,56.8,242.5,15,199.9z"/>
		<g>
			
				<ellipse transform="matrix(0.4568 -0.8896 0.8896 0.4568 14.0275 148.8439)" class="st4" cx="128.9" cy="62.9" rx="18.4" ry="11"/>
			<g>
				
					<radialGradient id="SVGID_3_" cx="445.4204" cy="101.8618" r="1.162" gradientTransform="matrix(0.4758 0.8795 -0.8795 0.4758 7.0797 -378.3929)" gradientUnits="userSpaceOnUse">
					<stop  offset="0" style="stop-color:#000000"/>
					<stop  offset="0.1887" style="stop-color:#030303"/>
					<stop  offset="0.322" style="stop-color:#0C0C0C"/>
					<stop  offset="0.4383" style="stop-color:#1C1C1C"/>
					<stop  offset="0.5449" style="stop-color:#323232"/>
					<stop  offset="0.6449" style="stop-color:#4E4E4E"/>
					<stop  offset="0.7399" style="stop-color:#717171"/>
					<stop  offset="0.8311" style="stop-color:#9B9B9B"/>
					<stop  offset="0.9168" style="stop-color:#CACACA"/>
					<stop  offset="1" style="stop-color:#FFFFFF"/>
				</radialGradient>
				<path class="st5" d="M130.5,62.6c-0.3,0.4-1,0.4-1.6,0c-0.6-0.4-0.9-1.1-0.6-1.5c0.3-0.4,1-0.4,1.6,0
					C130.5,61.5,130.8,62.2,130.5,62.6z"/>
				
					<linearGradient id="SVGID_4_" gradientUnits="userSpaceOnUse" x1="445.415" y1="97.1281" x2="442.2023" y2="99.4545" gradientTransform="matrix(0.4758 0.8795 -0.8795 0.4758 7.0797 -378.3929)">
					<stop  offset="0" style="stop-color:#E5E2DF"/>
					<stop  offset="0" style="stop-color:#DED9D6"/>
					<stop  offset="6.299578e-02" style="stop-color:#CFCAC9"/>
					<stop  offset="0.1833" style="stop-color:#A8A4A7"/>
					<stop  offset="0.264" style="stop-color:#8B878D"/>
					<stop  offset="0.5225" style="stop-color:#F3F4F4"/>
					<stop  offset="0.5842" style="stop-color:#E5E5E6"/>
					<stop  offset="0.7027" style="stop-color:#C0BEC0"/>
					<stop  offset="0.8647" style="stop-color:#858085"/>
					<stop  offset="0.8764" style="stop-color:#807B80"/>
					<stop  offset="1" style="stop-color:#D1D3D4"/>
					<stop  offset="1" style="stop-color:#A7A9AC"/>
				</linearGradient>
				<path class="st6" d="M133,54.9l-4.6,6.7c0,0,0.5,1,1.5,0.9l5.1-7.2L133,54.9z"/>
				<g>
					
						<linearGradient id="SVGID_5_" gradientUnits="userSpaceOnUse" x1="406.4895" y1="114.7162" x2="385.5468" y2="130.3402" gradientTransform="matrix(0.5594 0.8289 -0.8289 0.5594 16.6788 -353.3184)">
						<stop  offset="0.1845" style="stop-color:#FF0000"/>
						<stop  offset="0.7554" style="stop-color:#8C171B"/>
					</linearGradient>
					<path class="st7" d="M144.6,47.8l6.9-12.5l-7.9-3.3l-7.4,10.4c-5.8-0.7-9.4,4.3-9.4,4.3s0.9,4.7,6.6,8.9
						c5.7,4.2,10.5,2.3,10.5,2.3S147.4,52.7,144.6,47.8z"/>
					
						<linearGradient id="SVGID_6_" gradientUnits="userSpaceOnUse" x1="383.4973" y1="-298.5559" x2="382.5002" y2="-279.2769" gradientTransform="matrix(0.9724 0.601 -0.5626 0.9104 -387.3894 66.6758)">
						<stop  offset="0.1845" style="stop-color:#FF0000"/>
						<stop  offset="0.7554" style="stop-color:#8C171B"/>
					</linearGradient>
					<path class="st8" d="M156.1,36c-1.5,2.4-5.8,2.4-9.7,0c-3.9-2.4-5.8-6.3-4.3-8.7c1.5-2.4,5.8-2.4,9.7,0
						C155.6,29.7,157.6,33.6,156.1,36z"/>
					<path class="st2" d="M154.6,36.4c0,0-0.2,0-0.5,0.1c-0.2,0-0.3,0-0.6,0c-0.2,0-0.5,0-0.7,0c-0.1,0-0.3,0-0.4,0
						c-0.1,0-0.3,0-0.4-0.1c-0.2,0-0.3-0.1-0.5-0.1c-0.2,0-0.3-0.1-0.5-0.1c-0.3-0.1-0.7-0.2-1-0.3c-0.3-0.1-0.7-0.3-1-0.4
						c-0.3-0.2-0.6-0.3-0.9-0.6c-0.3-0.2-0.6-0.4-0.8-0.6c-0.3-0.2-0.5-0.4-0.7-0.7c-0.1-0.1-0.2-0.2-0.3-0.3
						c-0.1-0.1-0.2-0.2-0.3-0.3c-0.2-0.2-0.3-0.4-0.5-0.6c-0.1-0.2-0.2-0.3-0.3-0.5c-0.2-0.3-0.3-0.4-0.3-0.4s0.1,0.1,0.4,0.3
						c0.1,0.1,0.2,0.2,0.4,0.4c0.2,0.1,0.3,0.3,0.5,0.5c0.2,0.2,0.4,0.4,0.6,0.5c0.2,0.2,0.5,0.4,0.7,0.5c0.3,0.2,0.6,0.4,0.9,0.6
						c0.3,0.2,0.6,0.3,0.9,0.5c0.3,0.1,0.6,0.3,0.9,0.4c0.3,0.1,0.6,0.3,0.9,0.4c0.2,0.1,0.3,0.1,0.4,0.2c0.1,0.1,0.3,0.1,0.4,0.1
						c0.3,0.1,0.6,0.2,0.8,0.2c0.3,0.1,0.5,0.1,0.7,0.1c0.2,0,0.4,0.1,0.5,0.1C154.4,36.4,154.6,36.4,154.6,36.4z"/>
					<ellipse transform="matrix(0.829 -0.5593 0.5593 0.829 -3.8669 85.4243)" class="st2" cx="137.8" cy="49" rx="1.6" ry="1"/>
					
						<ellipse transform="matrix(0.829 -0.5593 0.5593 0.829 -5.9301 87.1174)" class="st2" cx="139.5" cy="53.3" rx="0.9" ry="0.6"/>
				</g>
			</g>
		</g>
	</g>
	<line class="st9" x1="33.6" y1="104.9" x2="211.6" y2="104.9"/>
	<line class="st9" x1="33.6" y1="134.9" x2="211.6" y2="134.9"/>
	<line class="st9" x1="33.6" y1="162.9" x2="211.6" y2="162.9"/>
	<line class="st9" x1="33.6" y1="189.9" x2="211.6" y2="189.9"/>
</g>
</svg>
