<?xml version="1.0" encoding="utf-8"?>
<!-- Generator: Adobe Illustrator 19.2.0, SVG Export Plug-In . SVG Version: 6.00 Build 0)  -->
<svg version="1.1" id="Layer_1" xmlns="http://www.w3.org/2000/svg" xmlns:xlink="http://www.w3.org/1999/xlink" x="0px" y="0px"
	 viewBox="0 0 388.8 385.1" style="enable-background:new 0 0 388.8 385.1;" xml:space="preserve">
<style type="text/css">
	.st0{fill:url(#SVGID_1_);}
	.st1{opacity:0.2;fill:#FFFFFF;enable-background:new    ;}
	.st2{opacity:0.5;fill:#FFFFFF;enable-background:new    ;}
	.st3{opacity:0.2;fill:#2B2B2B;enable-background:new    ;}
	.st4{fill:none;stroke:#BC9361;stroke-width:20;stroke-miterlimit:10;}
	.st5{fill:none;stroke:#3D0001;stroke-width:8;stroke-miterlimit:10;}
	.st6{fill:#020202;}
</style>
<g>
	
		<linearGradient id="SVGID_1_" gradientUnits="userSpaceOnUse" x1="203.4552" y1="75.8548" x2="183.1342" y2="340.0283" gradientTransform="matrix(1 0 0 -1 0 393.89)">
		<stop  offset="0" style="stop-color:#FEFEFF;stop-opacity:0"/>
		<stop  offset="0.9104" style="stop-color:#FEFEFF;stop-opacity:0.2731"/>
		<stop  offset="1" style="stop-color:#FEFEFF;stop-opacity:0.3"/>
	</linearGradient>
	<ellipse class="st0" cx="192.8" cy="179.3" rx="170.4" ry="155.5"/>
	<path class="st1" d="M350.8,123.9c-33.2-41.6-90.6-69.1-155.9-69.1c-66,0-123.9,28.1-156.9,70.4C61.3,66.8,122.6,25.1,194.6,25.1
		C266.1,25.1,327.2,66.2,350.8,123.9z"/>
	<path class="st2" d="M108.4,106.3c1.6,3.5,0.3,7.9-3,9.8c0,0-6.6,5.4-14.3,10c-8,4.7-15.5,7.5-15.5,7.5c-3.3,1.9-7.3,0.7-8.9-2.8
		c0,0-3.1-3.8-6.7-11.4c-3.1-6.7-4.6-12.6-4.6-12.6c-0.7-3.9,0.2-7.1,3-9.8c3.2-3.1,8.2-6.5,14.3-10.1c7.2-4.2,15.5-7.5,15.5-7.5
		c3.3-1.9,7.3-0.7,8.9,2.8c3,4.8,3.1,5.4,6.4,12.4C106.4,101,108.4,106.3,108.4,106.3z"/>
	<path class="st2" d="M140.3,82.9c0.6,2.1-0.6,4.3-2.6,4.9c0,0-4.2,2.1-8.9,3.6c-4.9,1.6-9.3,2.2-9.3,2.2c-2,0.6-4.1-0.6-4.6-2.7
		c0,0-1.3-2.5-2.6-7.1c-1.1-4.1-1.3-7.5-1.3-7.5c0-2.2,0.8-3.9,2.6-5c2.1-1.2,5.1-2.5,8.9-3.7c4.4-1.4,9.3-2.1,9.3-2.1
		c2-0.6,4.1,0.6,4.6,2.6c1.2,3,1.2,3.3,2.3,7.6C139.7,79.8,140.3,82.9,140.3,82.9z"/>
	<path class="st3" d="M39.3,272.7c34.6,40.4,93.1,65.8,158.3,63.5c65.9-2.4,122.8-32.5,154.3-76c-21.2,59.2-81,103-153,105.6
		C127.5,368.5,65,329.6,39.3,272.7z"/>
	<path class="st4" d="M10,192.6c0,100.8,82.6,182.6,184.4,182.6s184.4-81.7,184.4-182.6C378.8,91.7,296.2,10,194.4,10
		C92.6,10,10,91.7,10,192.6z"/>
	<path class="st5" d="M18.4,195c0,96.9,78.6,175.5,175.5,175.5c96.9,0,175.5-78.6,175.5-175.5c0-96.9-78.6-175.5-175.5-175.5
		C97,19.5,18.4,98.1,18.4,195z"/>
</g>
<g>
	<path class="st6" d="M14.1,193c0,99.7,80.8,180.5,180.5,180.5c99.7,0,180.5-80.8,180.5-180.5c0-99.7-80.8-180.5-180.5-180.5
		C94.9,12.5,14.1,93.3,14.1,193z"/>
</g>
</svg>
