<?xml version="1.0" encoding="utf-8"?>
<!-- Generator: Adobe Illustrator 16.0.0, SVG Export Plug-In . SVG Version: 6.00 Build 0)  -->
<!DOCTYPE svg PUBLIC "-//W3C//DTD SVG 1.1//EN" "http://www.w3.org/Graphics/SVG/1.1/DTD/svg11.dtd">
<svg version="1.1" id="Layer_1" xmlns="http://www.w3.org/2000/svg" xmlns:xlink="http://www.w3.org/1999/xlink" x="0px" y="0px"
	 width="55.567px" height="56.567px" viewBox="0 0 55.567 56.567" enable-background="new 0 0 55.567 56.567" xml:space="preserve">
<g>
	<g>
		<g>
			<circle opacity="0.3" fill="#3C3C3C" cx="27.976" cy="28.88" r="27.784"/>
			<ellipse fill="#8C6239" cx="27.976" cy="26.899" rx="27.069" ry="26.802"/>
			<circle fill="#F7931E" cx="27.977" cy="26.899" r="25.258"/>
			<radialGradient id="SVGID_1_" cx="18.3818" cy="11.2524" r="14.8865" fx="19.1449" fy="10.7325" gradientUnits="userSpaceOnUse">
				<stop  offset="0" style="stop-color:#FDD28F"/>
				<stop  offset="1" style="stop-color:#FAAB2E"/>
			</radialGradient>
			<ellipse fill="url(#SVGID_1_)" cx="28.008" cy="26.671" rx="24.478" ry="24.209"/>
			<path opacity="0.4" fill="#FFFFFF" d="M50.936,16.971C46.068,10.858,37.631,6.821,28.045,6.821
				c-9.686,0-18.189,4.121-23.041,10.329C8.428,8.58,17.432,2.461,28.006,2.461C38.504,2.461,47.465,8.496,50.936,16.971z"/>
			<path opacity="0.15" d="M5.486,39.252c5.276,5.763,13.972,9.209,23.535,8.549c9.662-0.667,17.862-5.364,22.274-11.892
				C48.471,44.695,39.91,51.42,29.36,52.148C18.887,52.871,9.532,47.468,5.486,39.252z"/>
			<path opacity="0.5" fill="#FFFFFF" d="M19.734,12.123c0.238,0.511,0.041,1.154-0.441,1.438c0,0-0.972,0.799-2.107,1.467
				c-1.175,0.691-2.273,1.107-2.273,1.107c-0.482,0.283-1.066,0.101-1.307-0.41c0,0-0.451-0.557-0.977-1.678
				c-0.462-0.986-0.68-1.854-0.68-1.854c-0.098-0.564,0.031-1.049,0.44-1.438c0.472-0.448,1.198-0.949,2.1-1.479
				c1.05-0.618,2.28-1.095,2.28-1.095c0.482-0.284,1.068-0.102,1.307,0.409c0.438,0.703,0.453,0.793,0.936,1.818
				C19.453,11.352,19.734,12.123,19.734,12.123z"/>
			<path opacity="0.5" fill="#FFFFFF" d="M24.422,8.701c0.082,0.308-0.089,0.631-0.382,0.725c0,0-0.614,0.312-1.303,0.53
				c-0.714,0.229-1.358,0.317-1.358,0.317c-0.295,0.092-0.599-0.083-0.684-0.391c0,0-0.193-0.36-0.375-1.036
				c-0.16-0.595-0.195-1.094-0.195-1.094c0-0.319,0.119-0.566,0.383-0.727c0.303-0.185,0.751-0.364,1.299-0.538
				c0.639-0.202,1.363-0.307,1.363-0.307c0.293-0.092,0.598,0.081,0.68,0.388c0.174,0.438,0.174,0.49,0.338,1.109
				C24.342,8.245,24.422,8.701,24.422,8.701z"/>
		</g>
	</g>
	<g>
		<g>
			
				<path fill-rule="evenodd" clip-rule="evenodd" fill="none" stroke="#F7931E" stroke-width="3.1926" stroke-miterlimit="22.9256" d="
				M16.691,16.543c-1.98,5.265,4.027,7.668,6.738,4.959c3.344-3.34,6.328-1.732,6.529-1.175c0.201,0.561,0.154,1.182-0.876,1.843
				c-1.032,0.668-3.892,0.811-4.968,3.384c-1.074,2.577-0.867,7.833,3.28,7.744c5.281-0.12,3.291-3.122,5.185-4.455
				c1.892-1.336,7.802-2.369,7.902-8.146C40.697,8.434,19.867,8.097,16.691,16.543z"/>
			
				<path fill-rule="evenodd" clip-rule="evenodd" fill="none" stroke="#F7931E" stroke-width="3.1926" stroke-miterlimit="22.9256" d="
				M27.516,35.837c-2.44,0-4.418,1.976-4.418,4.418c0,2.438,1.978,4.412,4.418,4.412c2.438,0,4.415-1.975,4.415-4.412
				C31.931,37.812,29.953,35.837,27.516,35.837z"/>
			<linearGradient id="SVGID_2_" gradientUnits="userSpaceOnUse" x1="23.0977" y1="40.252" x2="31.9307" y2="40.252">
				<stop  offset="0" style="stop-color:#C7723B"/>
				<stop  offset="1" style="stop-color:#5E2000"/>
			</linearGradient>
			<path fill-rule="evenodd" clip-rule="evenodd" fill="url(#SVGID_2_)" d="M27.516,35.837c-2.44,0-4.418,1.976-4.418,4.418
				c0,2.438,1.978,4.412,4.418,4.412c2.438,0,4.415-1.975,4.415-4.412C31.931,37.812,29.953,35.837,27.516,35.837z"/>
			<linearGradient id="SVGID_3_" gradientUnits="userSpaceOnUse" x1="16.2979" y1="22.0303" x2="40.4844" y2="22.0303">
				<stop  offset="0" style="stop-color:#C7723B"/>
				<stop  offset="1" style="stop-color:#5E2000"/>
			</linearGradient>
			<path fill-rule="evenodd" clip-rule="evenodd" fill="url(#SVGID_3_)" d="M16.691,16.543c-1.98,5.265,4.027,7.668,6.738,4.959
				c3.344-3.34,6.328-1.732,6.529-1.175c0.201,0.561,0.154,1.182-0.876,1.843c-1.032,0.668-3.892,0.811-4.968,3.384
				c-1.074,2.577-0.867,7.833,3.28,7.744c5.281-0.12,3.291-3.122,5.185-4.455c1.892-1.336,7.802-2.369,7.902-8.146
				C40.697,8.434,19.867,8.097,16.691,16.543z"/>
		</g>
		<path opacity="0.1" fill-rule="evenodd" clip-rule="evenodd" d="M24.094,38.905c0-0.681,0.154-1.327,0.43-1.903
			c-0.875,0.807-1.424,1.967-1.424,3.253c0,2.438,1.977,4.412,4.416,4.412c1.758,0,3.274-1.026,3.986-2.513
			c-0.787,0.724-1.838,1.168-2.993,1.168C26.072,43.322,24.094,41.344,24.094,38.905z"/>
		<path opacity="0.1" fill-rule="evenodd" clip-rule="evenodd" d="M25.111,24.211c0.021-0.057,0.046-0.106,0.069-0.16
			c-0.427,0.384-0.801,0.873-1.065,1.503c-1.074,2.577-0.867,7.833,3.28,7.744c2.874-0.063,3.595-0.983,3.96-2.02
			c-0.584,0.381-1.49,0.64-2.964,0.671C24.243,32.037,24.037,26.785,25.111,24.211z"/>
		<path opacity="0.1" fill-rule="evenodd" clip-rule="evenodd" d="M24.423,20.16c-2.708,2.71-8.716,0.302-6.737-4.965
			c0.115-0.304,0.252-0.6,0.412-0.88c-0.615,0.655-1.096,1.399-1.407,2.228c-1.978,5.265,4.028,7.672,6.739,4.959
			c3.344-3.34,6.33-1.732,6.529-1.172c0.059,0.163,0.097,0.334,0.094,0.511c0.01-0.004,0.018-0.01,0.025-0.013
			c1.03-0.664,1.076-1.285,0.876-1.846C30.754,18.421,27.768,16.814,24.423,20.16z"/>
	</g>
</g>
</svg>
