<?xml version="1.0" encoding="utf-8"?>
<!-- Generator: Adobe Illustrator 19.2.0, SVG Export Plug-In . SVG Version: 6.00 Build 0)  -->
<svg version="1.1" id="Layer_1" xmlns="http://www.w3.org/2000/svg" xmlns:xlink="http://www.w3.org/1999/xlink" x="0px" y="0px"
	 viewBox="0 0 431.4 113.6" style="enable-background:new 0 0 431.4 113.6;" xml:space="preserve">
<style type="text/css">
	.st0{fill:#2E3192;}
</style>
<g>
	<path class="st0" d="M23.4,0.1c2.4-0.3,5.8,0.1,9.7,0.7C34,1,34.7,1.6,34.7,2.5c0,0.5-0.2,0.9-0.5,1.2c-0.3,0.3-0.7,0.5-1.1,0.4
		c0,0-0.1-0.1-0.3-0.2c-0.1-0.1-0.4-0.2-0.8-0.3c-0.8-0.2-2.3-0.3-4.7-0.3c-0.8,0-1.7,0.2-2.4,0.4C25,5.2,25,7,25.1,8.9
		c1-0.1,2.1,0,3.4,0.1c1.3,0.1,2.8,0.4,4.5,0.7c0.9,0.2,1.6,0.7,1.6,1.6c0,0.5-0.2,0.9-0.5,1.2c-0.3,0.3-0.7,0.5-1.2,0.5
		c-3.6-0.5-6.1-0.4-7.8-0.2c0,1.6,0,3.2,0,4.5c2.5-0.1,5.7,0.3,8.9,0.8c0.9,0.2,1.6,0.7,1.6,1.6c0,0.5-0.2,0.9-0.5,1.2
		c-0.3,0.3-0.7,0.5-1.2,0.5c-1,0-1.5-0.1-1.9-0.2c-0.2-0.1-0.4-0.1-0.6-0.2c-0.4-0.1-1-0.2-2.1-0.3c-1,0-2.6,0-3.9,0.2
		c-1.2,0.3-2.3,0.6-3.4,1.1c-0.6-0.2-1-0.6-1.3-1.1c-0.3-0.5-0.4-1.1-0.4-1.6c0-0.5,0.2-0.9,0.5-1.1c0.2-0.1,0.4-0.2,0.6-0.3
		c-0.1-1.3-0.2-2.9-0.3-4.6l-0.4-5.2c-0.2-2-0.3-4-0.5-6.1c0-0.2,0.2-0.4,0.3-0.6c0.1-0.2,0.2-0.3,0.3-0.4c0.1,0,0.1-0.1,0.2-0.1
		c0.6-0.4,1.4-0.7,2.1-0.7H23.4z"/>
	<path class="st0" d="M41.5,5.6c0.2,0.5,0.3,1.6,0.4,2.9c0.2-0.1,0.3-0.3,0.5-0.4c0.2-0.1,0.4-0.3,0.5-0.4c1-0.7,1.7-1.1,2.5-1.3
		c0.7-0.2,1.4-0.2,2.2-0.2c1.5,0,2.5,0.8,3,1.9c0.6,1.2,0.8,2.8,0.8,4.5c0,1.7-0.1,3.4-0.2,4.9c-0.1,1.5-0.2,2.8,0,3.4
		c-1,0.6-1.9,0.6-2.5,0.4c-0.6-0.2-1-0.6-0.9-1.1c0-0.5,0-1.4,0-2.5c0-0.5,0-1.1,0-1.7l0-1.9c0-1.3-0.1-2.6-0.2-3.7
		c0-1.2-0.6-1.7-1.5-1.5c-0.9,0.2-1.9,0.9-2.8,2c-0.8,1.1-1.4,2.5-1.3,3.9c0,1.4,0,2.7,0,3.8c0,1.1-0.1,1.9-0.1,2.3
		c-1,0.6-1.9,0.6-2.5,0.4c-0.6-0.2-1-0.6-0.9-1.1c0.1-0.6,0-1.7-0.1-3.1c-0.1-1.4-0.3-2.9-0.4-4.5c-0.2-1.8-0.4-3.7-0.7-5.8
		c0.1-0.6,0.6-1,1.1-1.3c0.5-0.3,1.2-0.5,1.7-0.5C40.8,5,41.4,5.3,41.5,5.6z"/>
	<path class="st0" d="M58.8,5.6c0.2,0.6,0.3,1.7,0.4,3c0.1,1.4,0.2,2.9,0.2,4.5c0,1.6,0,3.2,0,4.5c0,1.3-0.1,2.3-0.2,2.8
		c-0.3,2-1.2,3.4-2.5,4.4c-1.2,1-2.8,1.5-4.3,1.5c-0.5,0-0.9-0.2-1.1-0.5c-0.3-0.3-0.5-0.7-0.5-1.2c0-0.4,0.2-0.9,0.5-1.2
		c0.3-0.3,0.7-0.5,1.1-0.5c0.3,0,0.6,0,0.9-0.1c1.6-0.4,2.2-1.5,2.4-3.1c0.1-0.6,0-1.7-0.1-3c-0.1-1.3-0.3-2.9-0.5-4.3
		c-0.2-1.7-0.5-3.6-0.7-5.6c0.2-0.6,0.6-1.1,1.2-1.4c0.6-0.3,1.3-0.4,1.9-0.4C58.2,5.1,58.7,5.3,58.8,5.6z M57.7,0.6
		c0.4,0.4,0.6,0.9,0.6,1.4c0,0.5-0.2,1.1-0.6,1.4C57.4,3.8,56.8,4,56.3,4c-0.6,0-1.1-0.2-1.5-0.6c-0.4-0.4-0.6-0.9-0.6-1.4
		c0-0.6,0.2-1.1,0.6-1.4C55.1,0.2,55.7,0,56.3,0C56.8,0,57.4,0.2,57.7,0.6z"/>
	<path class="st0" d="M74.2,7.7c1.2,1.5,1.8,3.5,1.8,5.5c0,2-0.7,4.1-1.9,5.6c-1.2,1.5-3.1,2.5-5.5,2.5c-2.4,0-4.2-1-5.4-2.5
		c-1.2-1.5-1.9-3.6-1.9-5.6c0-2,0.6-4,1.8-5.6c1.2-1.5,3-2.5,5.5-2.4C71.1,5.2,72.9,6.2,74.2,7.7z M65.1,10.1
		c-0.8,0.8-1.1,2-1.1,3.1c0,1.2,0.4,2.3,1.2,3.2c0.8,0.9,1.9,1.4,3.3,1.4c1.5,0,2.6-0.5,3.3-1.4c0.8-0.8,1.2-2,1.2-3.2
		c0-1.1-0.3-2.3-1.1-3.1c-0.7-0.8-1.9-1.4-3.4-1.3C67,8.7,65.9,9.2,65.1,10.1z"/>
	<path class="st0" d="M90.2,6.2c0.2,0.6,0.3,1.7,0.4,3c0.1,1.4,0.2,2.9,0.2,4.5c0,1.6,0,3.2,0,4.5c0,1.3-0.1,2.3-0.2,2.8
		c-0.3,2-1.2,3.4-2.5,4.4c-1.2,1-2.8,1.5-4.3,1.5c-0.5,0-0.9-0.2-1.1-0.5c-0.3-0.3-0.5-0.7-0.5-1.2c0-0.4,0.2-0.9,0.5-1.2
		c0.3-0.3,0.7-0.5,1.1-0.5c0.3,0,0.6,0,0.9-0.1c1.6-0.4,2.2-1.5,2.4-3.1c0-0.4,0-1.1,0-2L87,18.5c-0.1,0.1-0.1,0.1-0.1,0.1
		c-0.2,0.1-0.3,0.3-0.5,0.4c-0.2,0.1-0.4,0.3-0.5,0.4c-1,0.7-1.7,1.1-2.5,1.3c-0.7,0.2-1.4,0.2-2.2,0.2c-1.5,0-2.5-0.8-3-1.9
		c-0.6-1.2-0.8-2.8-0.8-4.5c0-1.7,0.1-3.4,0.2-5c0.1-1.5,0.2-2.8,0-3.4c1-0.6,1.9-0.6,2.5-0.4c0.6,0.2,1,0.7,0.9,1.1
		c0,0.5,0,1.4,0,2.5c0,0.5,0,1.1,0,1.7l0,1.9c0,1.3,0.1,2.6,0.2,3.7c0,1.2,0.6,1.6,1.4,1.5c0.8-0.1,1.8-0.8,2.6-1.8
		c0.8-1,1.5-2.3,1.5-3.6c-0.2-1.4-0.4-2.8-0.5-3.8C86.1,8.4,86,7.9,86,7.4c0.2-0.6,0.6-1.1,1.2-1.4c0.6-0.3,1.3-0.4,1.9-0.4
		C89.7,5.6,90.1,5.8,90.2,6.2z"/>
	<path class="st0" d="M111.3,5.8c0.3,0.1,0.5,0.5,0.5,1.1c0,0.6-0.1,1.3-0.4,1.9c-0.3,0.6-0.8,1.1-1.4,1.3c-0.8-0.6-1.6-1-2.7-1.2
		c-0.5-0.1-1.1-0.2-1.7-0.1c-1.2,0.1-2.1,0.6-2.7,1.5c-0.6,0.8-0.9,1.9-0.9,2.9c0,1.1,0.3,2.2,0.9,3c0.6,0.8,1.5,1.4,2.8,1.6
		c1.2,0.1,2.3-0.2,3.1-0.5c0.5-0.2,0.9-0.5,1.3-0.7c0.6,0.2,1,0.6,1.3,1.1c0.3,0.6,0.5,1.2,0.5,1.8c0,0.7-0.2,1.2-0.6,1.3
		c-1.1,0.4-2.2,0.6-3.3,0.6c-1,0-2.1-0.1-3-0.2c-2-0.3-3.5-1.4-4.5-2.8c-1-1.4-1.4-3.3-1.4-5.1c0-1.8,0.6-3.7,1.5-5.1
		c1-1.4,2.4-2.5,4.3-2.7c0.9-0.1,1.9-0.2,3-0.2C109.1,5.2,110.2,5.4,111.3,5.8z"/>
	<path class="st0" d="M126.2,7.7c1.2,1.5,1.8,3.5,1.8,5.5c0,2-0.7,4.1-1.9,5.6c-1.2,1.5-3.1,2.5-5.5,2.5c-2.4,0-4.2-1-5.4-2.5
		c-1.2-1.5-1.9-3.6-1.9-5.6c0-2,0.6-4,1.8-5.6c1.2-1.5,3-2.5,5.5-2.4C123.1,5.2,124.9,6.2,126.2,7.7z M117.1,10.1
		c-0.8,0.8-1.1,2-1.1,3.1c0,1.2,0.4,2.3,1.2,3.2c0.8,0.9,1.9,1.4,3.3,1.4c1.5,0,2.6-0.5,3.3-1.4c0.8-0.8,1.2-2,1.2-3.2
		c0-1.1-0.3-2.3-1.1-3.1c-0.7-0.8-1.9-1.4-3.4-1.3C119,8.7,117.9,9.2,117.1,10.1z"/>
	<path class="st0" d="M133.5,0.6c0.2,0.5,0.3,1.7,0.4,3.2c0.1,1.5,0.2,3.4,0.2,5.4c0,2,0,4,0,5.8c0,0.4,0,1,0.2,1.6
		c0.2,0.6,0.6,1.1,1.4,1.3c0.3,0.1,0.6,0.1,0.9,0.1c0.4,0,0.9,0.2,1.2,0.5c0.3,0.3,0.5,0.7,0.5,1.2c0,0.5-0.2,0.9-0.5,1.1
		c-0.3,0.3-0.7,0.5-1.2,0.5c-1.5,0-2.9-0.4-3.9-1.3c-1.1-0.9-1.9-2.2-2.2-4.2l-0.1-1.2c0-0.7-0.1-1.4-0.2-2.1
		c-0.1-1.4-0.2-2.9-0.3-4.3c-0.1-0.7-0.1-1.4-0.2-2c-0.1-1.5-0.3-2.9-0.4-4.3c0.1-0.6,0.6-1,1.1-1.3c0.5-0.3,1.2-0.5,1.7-0.5
		C132.8,0.1,133.4,0.3,133.5,0.6z"/>
	<path class="st0" d="M152.2,7.7c1.2,1.5,1.8,3.5,1.8,5.5c0,2-0.7,4.1-1.9,5.6c-1.2,1.5-3.1,2.5-5.5,2.5c-2.4,0-4.2-1-5.4-2.5
		c-1.2-1.5-1.9-3.6-1.9-5.6c0-2,0.6-4,1.8-5.6c1.2-1.5,3-2.5,5.5-2.4C149.1,5.2,150.9,6.2,152.2,7.7z M143.1,10.1
		c-0.8,0.8-1.1,2-1.1,3.1c0,1.2,0.4,2.3,1.2,3.2c0.8,0.9,1.9,1.4,3.3,1.4c1.5,0,2.6-0.5,3.3-1.4c0.8-0.8,1.2-2,1.2-3.2
		c0-1.1-0.3-2.3-1.1-3.1c-0.7-0.8-1.9-1.4-3.4-1.3C145,8.7,143.9,9.2,143.1,10.1z"/>
	<path class="st0" d="M159.5,5.6c0.2,0.5,0.2,1.2,0.3,2.2c1.1-0.9,2.2-1.4,3.3-1.4c1.1,0,2.2,0.3,3.3,0.9c0.4,0.2,0.6,0.6,0.8,1
		c0.1,0.4,0.1,0.9-0.2,1.2c-0.2,0.4-0.6,0.6-1,0.8c-0.4,0.1-0.9,0.1-1.2-0.2c-1.1-0.6-1.9-0.5-2.6-0.1c-0.7,0.4-1.1,1.3-1.5,2.2
		c-0.3,0.9-0.6,1.9-0.7,2.8c0,1.3,0,2.6,0,3.6c0,1-0.1,1.8-0.1,2.2c-1,0.6-1.9,0.6-2.5,0.4c-0.6-0.2-1-0.6-0.9-1.1
		c0.1-0.6,0-1.7-0.1-3.1c-0.1-1.4-0.3-2.9-0.4-4.5c-0.2-1.8-0.4-3.7-0.7-5.8c0.1-0.6,0.6-1,1.1-1.3c0.5-0.3,1.2-0.5,1.7-0.5
		C158.8,5,159.4,5.3,159.5,5.6z"/>
	<path class="st0" d="M172.8,0.6c0.4,0.4,0.6,0.9,0.6,1.4c0,0.5-0.2,1.1-0.6,1.4c-0.4,0.4-0.9,0.6-1.5,0.6c-0.6,0-1.1-0.2-1.5-0.6
		c-0.4-0.4-0.6-0.9-0.6-1.4c0-0.6,0.2-1.1,0.6-1.4c0.4-0.4,0.9-0.6,1.5-0.6C171.9,0,172.5,0.2,172.8,0.6z M173.9,5.6
		c0.2,0.6,0.3,1.7,0.4,3.1c0.1,1.4,0.1,3.1,0.2,4.7c0,1.6,0,3.3,0,4.6c0,1.3-0.1,2.4-0.2,2.8c-1,0.6-1.9,0.6-2.5,0.4
		c-0.6-0.2-1-0.6-0.9-1.1c0.1-0.6,0-1.7-0.1-3.1c-0.1-1.4-0.3-2.9-0.4-4.5c-0.2-1.8-0.4-3.7-0.7-5.8c0.1-0.6,0.6-1,1.1-1.3
		c0.5-0.3,1.2-0.5,1.7-0.5C173.2,5,173.8,5.3,173.9,5.6z"/>
	<path class="st0" d="M180.5,5.6c0.2,0.5,0.3,1.6,0.4,2.9c0.2-0.1,0.3-0.3,0.5-0.4c0.2-0.1,0.4-0.3,0.5-0.4c1-0.7,1.7-1.1,2.5-1.3
		c0.7-0.2,1.4-0.2,2.2-0.2c1.5,0,2.5,0.8,3,1.9c0.6,1.2,0.8,2.8,0.8,4.5c0,1.7-0.1,3.4-0.2,4.9c-0.1,1.5-0.2,2.8,0,3.4
		c-1,0.6-1.9,0.6-2.5,0.4c-0.6-0.2-1-0.6-0.9-1.1c0-0.5,0-1.4,0-2.5c0-0.5,0-1.1,0-1.7l0-1.9c0-1.3-0.1-2.6-0.2-3.7
		c0-1.2-0.6-1.7-1.5-1.5c-0.9,0.2-1.9,0.9-2.8,2c-0.8,1.1-1.4,2.5-1.3,3.9c0,1.4,0,2.7,0,3.8c0,1.1-0.1,1.9-0.1,2.3
		c-1,0.6-1.9,0.6-2.5,0.4c-0.6-0.2-1-0.6-0.9-1.1c0.1-0.6,0-1.7-0.1-3.1c-0.1-1.4-0.3-2.9-0.4-4.5c-0.2-1.8-0.4-3.7-0.7-5.8
		c0.1-0.6,0.6-1,1.1-1.3c0.5-0.3,1.2-0.5,1.7-0.5C179.8,5,180.4,5.3,180.5,5.6z"/>
	<path class="st0" d="M203,5.4c0.8,0.2,1.5,0.7,1.8,1.4c0.1,0.8,0.3,2,0.3,3.3c0.1,1.3,0.1,2.9,0.1,4.3c0,1.5,0,2.9,0,4
		c0,1.2-0.1,2.1-0.2,2.5c-0.3,2-1.2,3.4-2.5,4.4c-1.2,1-2.8,1.5-4.3,1.5c-0.5,0-0.9-0.2-1.1-0.5c-0.3-0.3-0.5-0.7-0.5-1.2
		c0-0.4,0.2-0.9,0.5-1.2c0.3-0.3,0.7-0.5,1.1-0.5c0.3,0,0.6,0,0.9-0.1c1.2-0.3,1.9-1,2.2-2.1c-1.2,0.1-2.4,0-3.4-0.2
		c-2-0.3-3.5-1.4-4.5-2.8c-1-1.4-1.4-3.3-1.4-5.1c0-1.8,0.6-3.7,1.5-5.1c1-1.4,2.4-2.5,4.3-2.7c0.6-0.1,1.4-0.2,2.3-0.2
		C201.3,5.1,202.2,5.2,203,5.4z M198.7,8.8c-1.2,0.1-2.1,0.6-2.7,1.5c-0.6,0.8-0.9,1.9-0.9,2.9c0,1.1,0.3,2.2,0.9,3
		c0.6,0.8,1.5,1.4,2.8,1.6c1.1,0.1,2.1-0.1,2.9-0.5l-0.5-8.3c-0.3-0.1-0.7-0.1-1.2-0.2c-0.2,0-0.5,0-0.7,0S198.9,8.8,198.7,8.8z"/>
	<path class="st0" d="M222,0.6c0.1,0.5,0.3,1.5,0.4,2.8c0.1,1.3,0.1,2.9,0.2,4.7c1.4,0.2,2.8,0.4,4.4,0.6c0.9,0.2,1.6,0.7,1.6,1.6
		c0,0.5-0.2,0.9-0.5,1.2c-0.3,0.3-0.7,0.5-1.1,0.4c0,0-0.1,0-0.2-0.1c-0.1-0.1-0.3-0.2-0.6-0.2c-0.6-0.2-1.7-0.3-3.5-0.4
		c0,0.6,0,1.3,0,1.9c0,0.6,0,1.2,0,1.8c0,0.4,0,1,0.2,1.6c0.2,0.6,0.6,1.1,1.4,1.3c0.3,0.1,0.6,0.1,0.9,0.1c0.4,0,0.9,0.2,1.2,0.5
		s0.5,0.7,0.5,1.2c0,0.5-0.2,0.9-0.5,1.1c-0.3,0.3-0.7,0.5-1.2,0.5c-1.5,0-2.9-0.4-3.9-1.3c-1.1-0.9-1.9-2.2-2.2-4.2l-0.1-1.2
		l-0.2-2.9c-0.8,0.2-1.4,0.4-1.9,0.6c-0.3,0.1-0.5,0.2-0.8,0.3c-0.6-0.2-1-0.6-1.3-1.1c-0.3-0.5-0.4-1.1-0.4-1.6
		c0-0.5,0.2-0.9,0.5-1.1c0.9-0.5,2.1-0.8,3.6-0.9c-0.1-0.8-0.2-1.6-0.2-2.4c-0.1-1.5-0.2-2.6-0.3-3.7c0.1-0.6,0.6-1,1.1-1.3
		c0.5-0.3,1.2-0.5,1.7-0.5C221.3,0.1,221.9,0.3,222,0.6z"/>
	<path class="st0" d="M234.5,0.6c0.2,0.5,0.3,1.6,0.4,3.1C234.9,5.2,235,7,235,9c1.7-0.3,3.5-0.5,5.1-0.2c1.6,0.3,2.9,1,3.9,2.3
		c1,1.3,1.5,3.3,1.5,6.2l-0.1,3.3c-0.1,0.4-0.6,0.7-1.3,0.7c-0.6,0.1-1.2,0-1.8-0.2c-0.6-0.2-1.1-0.6-1.3-1.1l0.2-5.6
		c0-0.8-0.6-1.3-1.4-1.6c-0.9-0.3-2-0.4-2.9-0.3c-0.9,0.1-1.7,0.4-1.8,0.8c0,1.8,0,3.6,0,4.9c0,1.4-0.1,2.4-0.1,2.8
		c-1,0.6-1.9,0.6-2.5,0.4c-0.6-0.2-1-0.6-0.9-1.1c0.1-0.6,0-2-0.1-3.8c-0.1-1.8-0.3-4-0.4-6.2c-0.2-2.5-0.4-5.3-0.7-8.3
		c0.1-0.6,0.6-1,1.1-1.3c0.5-0.3,1.2-0.5,1.7-0.5C233.8,0.1,234.4,0.3,234.5,0.6z"/>
	<path class="st0" d="M257.7,7.4c0.8,1.1,0.9,2.5,0.6,3.8c-0.3,1.3-1.2,2.4-2.4,3.2c-1.3,0.7-3,1-5,0.5c0.1,1.2,0.6,1.9,1.4,2.2
		c0.8,0.3,1.7,0.3,2.6,0.2c0.4,0,0.8-0.1,1.1-0.2c0.3-0.1,0.5-0.1,0.6-0.1c0.5,0.3,0.8,0.8,1,1.4c0.1,0.3,0.1,0.6,0.1,0.9
		c0,0.6-0.1,1.3-0.4,1.7c-0.2,0.2-0.3,0.3-0.5,0.3c-2.4,0.2-4.5-0.2-6.2-1.1c-1.4-0.8-2.4-2.3-2.9-3.9c-0.5-1.7-0.6-3.5-0.2-5.3
		c0.3-1.7,1-3.3,2.1-4.5c1-1.1,2.4-1.7,4-1.5C255.5,5.4,256.9,6.3,257.7,7.4z M251.4,9.5c-0.1,0.5-0.2,1.1-0.1,1.5
		c0,0.2,0,0.4,0.1,0.6c0,0.1,0,0.2,0,0.2c1.8,0.5,2.9,0.2,3.5-0.5c0.6-0.6,0.6-1.6,0.1-2.3c-0.5-0.7-1.4-1.1-2.7-0.6
		C251.8,8.5,251.5,9,251.4,9.5z"/>
	<path class="st0" d="M282.2,7.7c1.2,1.5,1.8,3.5,1.8,5.5c0,2-0.7,4.1-1.9,5.6c-1.2,1.5-3.1,2.5-5.5,2.5c-1.9,0-3.3-0.6-4.5-1.6
		c0,1.5,0,2.9-0.1,4c0,1.1-0.1,1.9-0.1,2.2c-1,0.6-1.9,0.6-2.5,0.4c-0.6-0.2-1-0.6-0.9-1.1c0.1-0.6,0-2-0.1-3.8
		c-0.1-1.8-0.3-4-0.4-6.2c-0.2-2.5-0.4-5.3-0.7-8.3c0.1-0.6,0.6-1,1.1-1.3c0.5-0.3,1.2-0.5,1.7-0.5c0.7,0,1.2,0.2,1.4,0.5
		c0.1,0.3,0.2,0.7,0.2,1.2c1.2-1.1,2.8-1.8,4.9-1.7C279.1,5.2,281,6.2,282.2,7.7z M273.1,10.1c-0.8,0.8-1.1,2-1.1,3.1
		c0,1.2,0.4,2.3,1.2,3.2c0.8,0.9,1.9,1.4,3.3,1.4c1.5,0,2.6-0.5,3.3-1.4c0.8-0.8,1.2-2,1.2-3.2c0-1.1-0.3-2.3-1.1-3.1
		c-0.7-0.8-1.9-1.4-3.4-1.3C275,8.7,273.9,9.2,273.1,10.1z"/>
	<path class="st0" d="M288.8,0.6c0.4,0.4,0.6,0.9,0.6,1.4c0,0.5-0.2,1.1-0.6,1.4c-0.4,0.4-0.9,0.6-1.5,0.6c-0.6,0-1.1-0.2-1.5-0.6
		c-0.4-0.4-0.6-0.9-0.6-1.4c0-0.6,0.2-1.1,0.6-1.4c0.4-0.4,0.9-0.6,1.5-0.6C287.9,0,288.5,0.2,288.8,0.6z M289.9,5.6
		c0.2,0.6,0.3,1.7,0.4,3.1c0.1,1.4,0.1,3.1,0.2,4.7c0,1.6,0,3.3,0,4.6c0,1.3-0.1,2.4-0.2,2.8c-1,0.6-1.9,0.6-2.5,0.4
		c-0.6-0.2-1-0.6-0.9-1.1c0.1-0.6,0-1.7-0.1-3.1c-0.1-1.4-0.3-2.9-0.4-4.5c-0.2-1.8-0.4-3.7-0.7-5.8c0.1-0.6,0.6-1,1.1-1.3
		c0.5-0.3,1.2-0.5,1.7-0.5C289.2,5,289.8,5.3,289.9,5.6z"/>
	<path class="st0" d="M304.3,5.8c0.3,0.1,0.5,0.5,0.5,1.1c0,0.6-0.1,1.3-0.4,1.9c-0.3,0.6-0.8,1.1-1.4,1.3c-0.8-0.6-1.6-1-2.7-1.2
		c-0.5-0.1-1.1-0.2-1.7-0.1c-1.2,0.1-2.1,0.6-2.7,1.5c-0.6,0.8-0.9,1.9-0.9,2.9c0,1.1,0.3,2.2,0.9,3c0.6,0.8,1.5,1.4,2.8,1.6
		c1.2,0.1,2.3-0.2,3.1-0.5c0.5-0.2,0.9-0.5,1.3-0.7c0.6,0.2,1,0.6,1.3,1.1c0.3,0.6,0.5,1.2,0.5,1.8c0,0.7-0.2,1.2-0.6,1.3
		c-1.1,0.4-2.2,0.6-3.3,0.6c-1,0-2.1-0.1-3-0.2c-2-0.3-3.5-1.4-4.5-2.8c-1-1.4-1.4-3.3-1.4-5.1c0-1.8,0.6-3.7,1.5-5.1
		c1-1.4,2.4-2.5,4.3-2.7c0.9-0.1,1.9-0.2,3-0.2C302.1,5.2,303.2,5.4,304.3,5.8z"/>
	<path class="st0" d="M314,0.6c0.1,0.5,0.3,1.5,0.4,2.8c0.1,1.3,0.1,2.9,0.2,4.7c1.4,0.2,2.8,0.4,4.4,0.6c0.9,0.2,1.6,0.7,1.6,1.6
		c0,0.5-0.2,0.9-0.5,1.2c-0.3,0.3-0.7,0.5-1.1,0.4c0,0-0.1,0-0.2-0.1c-0.1-0.1-0.3-0.2-0.6-0.2c-0.6-0.2-1.7-0.3-3.5-0.4
		c0,0.6,0,1.3,0,1.9c0,0.6,0,1.2,0,1.8c0,0.4,0,1,0.2,1.6c0.2,0.6,0.6,1.1,1.4,1.3c0.3,0.1,0.6,0.1,0.9,0.1c0.4,0,0.9,0.2,1.2,0.5
		c0.3,0.3,0.5,0.7,0.5,1.2c0,0.5-0.2,0.9-0.5,1.1c-0.3,0.3-0.7,0.5-1.2,0.5c-1.5,0-2.9-0.4-3.9-1.3c-1.1-0.9-1.9-2.2-2.2-4.2
		l-0.1-1.2l-0.2-2.9c-0.8,0.2-1.4,0.4-1.9,0.6c-0.3,0.1-0.5,0.2-0.8,0.3c-0.6-0.2-1-0.6-1.3-1.1c-0.3-0.5-0.4-1.1-0.4-1.6
		c0-0.5,0.2-0.9,0.5-1.1c0.9-0.5,2.1-0.8,3.6-0.9c-0.1-0.8-0.2-1.6-0.2-2.4c-0.1-1.5-0.2-2.6-0.3-3.7c0.1-0.6,0.6-1,1.1-1.3
		c0.5-0.3,1.2-0.5,1.7-0.5C313.3,0.1,313.9,0.3,314,0.6z"/>
	<path class="st0" d="M335.3,6.9c-0.1,0.6,0,1.7,0.1,3.1c0.1,1.4,0.3,2.9,0.4,4.5c0.2,1.8,0.4,3.7,0.7,5.8c-0.2,0.6-0.6,1-1.1,1.3
		c-0.5,0.3-1.2,0.5-1.7,0.5c-0.7,0-1.2-0.2-1.4-0.5c-0.2-0.5-0.3-1.6-0.4-2.9c-0.2,0.1-0.3,0.3-0.5,0.4c-0.2,0.1-0.4,0.3-0.5,0.4
		c-1,0.7-1.7,1.1-2.5,1.3c-0.7,0.2-1.4,0.2-2.2,0.2c-1.5,0-2.5-0.8-3-1.9c-0.6-1.2-0.8-2.8-0.8-4.5c0-1.7,0.1-3.4,0.2-5
		c0.1-1.5,0.2-2.8,0-3.4c1-0.6,1.9-0.6,2.5-0.4c0.6,0.2,1,0.7,0.9,1.1c0,0.5,0,1.4,0,2.5c0,0.5,0,1.1,0,1.7l0,1.9
		c0,1.3,0.1,2.6,0.2,3.7c0,1.2,0.6,1.7,1.5,1.5c0.8-0.2,1.9-0.9,2.7-2c0.8-1.1,1.4-2.5,1.3-3.9c0-1.4,0-2.7,0.1-3.8
		c0-1.1,0.1-1.9,0.1-2.3c1-0.6,1.9-0.6,2.5-0.4C335,6,335.4,6.5,335.3,6.9z"/>
	<path class="st0" d="M342.5,5.6c0.2,0.5,0.2,1.2,0.3,2.2c1.1-0.9,2.2-1.4,3.3-1.4c1.1,0,2.2,0.3,3.3,0.9c0.4,0.2,0.6,0.6,0.8,1
		c0.1,0.4,0.1,0.9-0.2,1.2c-0.2,0.4-0.6,0.6-1,0.8c-0.4,0.1-0.9,0.1-1.2-0.2c-1.1-0.6-1.9-0.5-2.6-0.1c-0.7,0.4-1.1,1.3-1.5,2.2
		c-0.3,0.9-0.6,1.9-0.7,2.8c0,1.3,0,2.6,0,3.6c0,1-0.1,1.8-0.1,2.2c-1,0.6-1.9,0.6-2.5,0.4c-0.6-0.2-1-0.6-0.9-1.1
		c0.1-0.6,0-1.7-0.1-3.1c-0.1-1.4-0.3-2.9-0.4-4.5c-0.2-1.8-0.4-3.7-0.7-5.8c0.1-0.6,0.6-1,1.1-1.3c0.5-0.3,1.2-0.5,1.7-0.5
		C341.8,5,342.4,5.3,342.5,5.6z"/>
	<path class="st0" d="M362.7,7.4c0.8,1.1,0.9,2.5,0.6,3.8c-0.3,1.3-1.2,2.4-2.4,3.2c-1.3,0.7-3,1-5,0.5c0.1,1.2,0.6,1.9,1.4,2.2
		c0.8,0.3,1.7,0.3,2.6,0.2c0.4,0,0.8-0.1,1.1-0.2c0.3-0.1,0.5-0.1,0.6-0.1c0.5,0.3,0.8,0.8,1,1.4c0.1,0.3,0.1,0.6,0.1,0.9
		c0,0.6-0.1,1.3-0.4,1.7c-0.2,0.2-0.3,0.3-0.5,0.3c-2.4,0.2-4.5-0.2-6.2-1.1c-1.4-0.8-2.4-2.3-2.9-3.9c-0.5-1.7-0.6-3.5-0.2-5.3
		c0.3-1.7,1-3.3,2.1-4.5c1-1.1,2.4-1.7,4-1.5C360.5,5.4,361.9,6.3,362.7,7.4z M356.4,9.5c-0.1,0.5-0.2,1.1-0.1,1.5
		c0,0.2,0,0.4,0.1,0.6c0,0.1,0,0.2,0,0.2c1.8,0.5,2.9,0.2,3.5-0.5c0.6-0.6,0.6-1.6,0.1-2.3c-0.5-0.7-1.4-1.1-2.7-0.6
		C356.8,8.5,356.5,9,356.4,9.5z"/>
	<path class="st0" d="M370.3,16.8c0.4,0.7,0.7,1.5,0.7,2.3c0,0.8-0.3,1.7-0.9,2.6c-0.8,1-1.7,2.1-3.2,2.8c-0.1,0-0.1,0-0.2,0
		c-0.3,0-0.8-0.4-1.1-0.9c-0.3-0.5-0.5-1.2-0.2-1.7c0.4-0.1,0.9-0.2,1.4-0.4c0.3-0.1,0.5-0.3,0.7-0.4c-0.7-0.1-1.4-0.5-1.8-1.1
		c-0.4-0.6-0.6-1.3-0.5-2c0.1-0.7,0.5-1.4,1.1-1.9c0.6-0.4,1.3-0.6,2-0.5C369.1,15.6,369.8,16,370.3,16.8z"/>
	<path class="st0" d="M387.1,6.2c1.4,0.8,2.4,2.2,2.9,3.9c0.3,0.8,0.6,2,0.8,3.4c0.2,1.4,0.3,2.8,0.5,4.1c0.1,1.3,0.1,2.4,0.1,3
		c-0.9,0.7-1.8,0.8-2.5,0.7c-0.7-0.1-1.1-0.5-1-0.9l0-1.2c-0.2,0.8-0.8,1.4-1.5,1.8c-0.7,0.4-1.5,0.6-2.2,0.4
		c-2-0.3-3.4-1.2-4.2-2.3c-0.8-1.1-0.9-2.5-0.6-3.8c0.3-1.3,1.2-2.4,2.4-3.1c1.3-0.7,3-1,5-0.5c-0.1-1.2-0.6-1.9-1.4-2.2
		c-0.8-0.3-1.7-0.3-2.6-0.2c-0.4,0.1-0.8,0.1-1.1,0.2c-0.3,0.1-0.5,0.1-0.6,0.1c-0.5-0.3-0.8-0.8-0.9-1.4c-0.1-0.3-0.1-0.6-0.1-0.9
		c0-0.6,0.1-1.3,0.4-1.7c0.2-0.2,0.3-0.3,0.5-0.3C383.4,4.8,385.5,5.2,387.1,6.2z M382.9,15c-0.6,0.7-0.6,1.6-0.1,2.3
		c0.5,0.7,1.4,1.1,2.7,0.6c0.5-0.1,0.7-0.6,0.9-1.1c0.1-0.5,0.2-1.1,0.1-1.5l0-0.5c0-0.1,0-0.2-0.1-0.2
		C384.6,14,383.5,14.4,382.9,15z"/>
	<path class="st0" d="M397.5,5.6c0.2,0.5,0.3,1.6,0.4,2.9c0.2-0.1,0.3-0.3,0.5-0.4c0.2-0.1,0.4-0.3,0.5-0.4c1-0.7,1.7-1.1,2.5-1.3
		c0.7-0.2,1.4-0.2,2.2-0.2c1.5,0,2.5,0.8,3,1.9c0.6,1.2,0.8,2.8,0.8,4.5c0,1.7-0.1,3.4-0.2,4.9c-0.1,1.5-0.2,2.8,0,3.4
		c-1,0.6-1.9,0.6-2.5,0.4c-0.6-0.2-1-0.6-0.9-1.1c0-0.5,0-1.4,0-2.5c0-0.5,0-1.1,0-1.7l0-1.9c0-1.3-0.1-2.6-0.2-3.7
		c0-1.2-0.6-1.7-1.5-1.5c-0.9,0.2-1.9,0.9-2.8,2c-0.8,1.1-1.4,2.5-1.3,3.9c0,1.4,0,2.7,0,3.8c0,1.1-0.1,1.9-0.1,2.3
		c-1,0.6-1.9,0.6-2.5,0.4c-0.6-0.2-1-0.6-0.9-1.1c0.1-0.6,0-1.7-0.1-3.1c-0.1-1.4-0.3-2.9-0.4-4.5c-0.2-1.8-0.4-3.7-0.7-5.8
		c0.1-0.6,0.6-1,1.1-1.3c0.5-0.3,1.2-0.5,1.7-0.5C396.8,5,397.4,5.3,397.5,5.6z"/>
	<path class="st0" d="M7.8,44c0.1,0.5,0.3,1.5,0.4,2.8c0.1,1.3,0.1,2.9,0.2,4.7c1.4,0.2,2.8,0.4,4.4,0.6c0.9,0.2,1.6,0.7,1.6,1.6
		c0,0.5-0.2,0.9-0.5,1.2c-0.3,0.3-0.7,0.5-1.1,0.4c0,0-0.1,0-0.2-0.1c-0.1-0.1-0.3-0.2-0.6-0.2c-0.6-0.2-1.7-0.3-3.5-0.4
		c0,0.6,0,1.3,0,1.9c0,0.6,0,1.2,0,1.8c0,0.4,0,1,0.2,1.6c0.2,0.6,0.6,1.1,1.4,1.3c0.3,0.1,0.6,0.1,0.9,0.1c0.4,0,0.9,0.2,1.2,0.5
		c0.3,0.3,0.5,0.7,0.5,1.2c0,0.5-0.2,0.9-0.5,1.1c-0.3,0.3-0.7,0.5-1.2,0.5c-1.5,0-2.9-0.4-3.9-1.3c-1.1-0.9-1.9-2.2-2.2-4.2L4.6,58
		l-0.2-2.9c-0.8,0.2-1.4,0.4-1.9,0.6c-0.3,0.1-0.5,0.2-0.8,0.3c-0.6-0.2-1-0.6-1.3-1.1C0.1,54.5,0,53.9,0,53.4
		c0-0.5,0.2-0.9,0.5-1.1c0.9-0.5,2.1-0.8,3.6-0.9C4,50.5,3.9,49.7,3.9,49c-0.1-1.5-0.2-2.6-0.3-3.7c0.1-0.6,0.6-1,1.1-1.3
		c0.5-0.3,1.2-0.5,1.7-0.5C7.1,43.5,7.7,43.7,7.8,44z"/>
	<path class="st0" d="M20.2,44c0.2,0.5,0.3,1.6,0.4,3.1c0.1,1.5,0.1,3.3,0.2,5.3c1.7-0.3,3.5-0.5,5.1-0.2c1.6,0.3,2.9,1,3.9,2.3
		c1,1.3,1.5,3.3,1.5,6.2L31.2,64c-0.1,0.4-0.6,0.7-1.3,0.7c-0.6,0.1-1.2,0-1.8-0.2c-0.6-0.2-1.1-0.6-1.3-1.1l0.2-5.6
		c0-0.8-0.6-1.3-1.4-1.6c-0.9-0.3-2-0.4-2.9-0.3c-0.9,0.1-1.7,0.4-1.8,0.8c0,1.8,0,3.6,0,4.9c0,1.4-0.1,2.4-0.1,2.8
		c-1,0.6-1.9,0.6-2.5,0.4c-0.6-0.2-1-0.6-0.9-1.1c0.1-0.6,0-2-0.1-3.8c-0.1-1.8-0.3-4-0.4-6.2c-0.2-2.5-0.4-5.3-0.7-8.3
		c0.1-0.6,0.6-1,1.1-1.3c0.5-0.3,1.2-0.5,1.7-0.5C19.5,43.5,20.1,43.7,20.2,44z"/>
	<path class="st0" d="M43.4,50.8c0.8,1.1,0.9,2.5,0.6,3.8c-0.3,1.3-1.2,2.4-2.4,3.2c-1.3,0.7-3,1-5,0.5c0.1,1.2,0.6,1.9,1.4,2.2
		c0.8,0.3,1.7,0.3,2.6,0.2c0.4,0,0.8-0.1,1.1-0.2c0.3-0.1,0.5-0.1,0.6-0.1c0.5,0.3,0.8,0.8,1,1.4c0.1,0.3,0.1,0.6,0.1,0.9
		c0,0.6-0.1,1.3-0.4,1.7c-0.2,0.2-0.3,0.3-0.5,0.3c-2.4,0.2-4.5-0.2-6.2-1.1c-1.4-0.8-2.4-2.3-2.9-3.9c-0.5-1.7-0.6-3.5-0.2-5.3
		c0.3-1.7,1-3.3,2.1-4.5c1-1.1,2.4-1.7,4-1.5C41.3,48.8,42.6,49.7,43.4,50.8z M37.2,52.9C37,53.4,37,54,37,54.4c0,0.2,0,0.4,0.1,0.6
		c0,0.1,0,0.2,0,0.2c1.8,0.5,2.9,0.2,3.5-0.5c0.6-0.6,0.6-1.6,0.1-2.3c-0.5-0.7-1.4-1.1-2.7-0.6C37.5,51.9,37.3,52.4,37.2,52.9z"/>
	<path class="st0" d="M50.2,49c0.2,0.5,0.3,1.6,0.4,2.9c0.2-0.1,0.3-0.3,0.5-0.4c0.2-0.1,0.4-0.3,0.5-0.4c1-0.7,1.7-1.1,2.5-1.3
		c0.7-0.2,1.4-0.2,2.2-0.2c1.5,0,2.5,0.8,3,1.9c0.6,1.2,0.8,2.8,0.8,4.5c0,1.7-0.1,3.4-0.2,4.9c-0.1,1.5-0.2,2.8,0,3.4
		c-1,0.6-1.9,0.6-2.5,0.4c-0.6-0.2-1-0.6-0.9-1.1c0-0.5,0-1.4,0-2.5c0-0.5,0-1.1,0-1.7l0-1.9c0-1.3-0.1-2.6-0.2-3.7
		c0-1.2-0.6-1.7-1.5-1.5c-0.9,0.2-1.9,0.9-2.8,2c-0.8,1.1-1.4,2.5-1.3,3.9c0,1.4,0,2.7,0,3.8c0,1.1-0.1,1.9-0.1,2.3
		c-1,0.6-1.9,0.6-2.5,0.4c-0.6-0.2-1-0.6-0.9-1.1c0.1-0.6,0-1.7-0.1-3.1c-0.1-1.4-0.3-2.9-0.4-4.5c-0.2-1.8-0.4-3.7-0.7-5.8
		c0.1-0.6,0.6-1,1.1-1.3c0.5-0.3,1.2-0.5,1.7-0.5C49.5,48.4,50.1,48.7,50.2,49z"/>
	<path class="st0" d="M83.9,51.1c1.2,1.5,1.8,3.5,1.8,5.5c0,2-0.7,4.1-1.9,5.6c-1.2,1.5-3.1,2.5-5.5,2.5c-1.9,0-3.3-0.6-4.5-1.6
		c0,1.5,0,2.9-0.1,4c0,1.1-0.1,1.9-0.1,2.2c-1,0.6-1.9,0.6-2.5,0.4c-0.6-0.2-1-0.6-0.9-1.1c0.1-0.6,0-2-0.1-3.8
		c-0.1-1.8-0.3-4-0.4-6.2c-0.2-2.5-0.4-5.3-0.7-8.3c0.1-0.6,0.6-1,1.1-1.3c0.5-0.3,1.2-0.5,1.7-0.5c0.7,0,1.2,0.2,1.4,0.5
		c0.1,0.3,0.2,0.7,0.2,1.2c1.2-1.1,2.8-1.8,4.9-1.7C80.8,48.6,82.7,49.6,83.9,51.1z M74.9,53.5c-0.8,0.8-1.1,2-1.1,3.1
		c0,1.2,0.4,2.3,1.2,3.2c0.8,0.9,1.9,1.4,3.3,1.4c1.5,0,2.6-0.5,3.3-1.4c0.8-0.8,1.2-2,1.2-3.2c0-1.1-0.3-2.3-1.1-3.1
		c-0.7-0.8-1.9-1.4-3.4-1.3C76.8,52.1,75.6,52.6,74.9,53.5z"/>
	<path class="st0" d="M91.2,49c0.2,0.5,0.2,1.2,0.3,2.2c1.1-0.9,2.2-1.4,3.3-1.4c1.1,0,2.2,0.3,3.3,0.9c0.4,0.2,0.6,0.6,0.8,1
		c0.1,0.4,0.1,0.9-0.2,1.2c-0.2,0.4-0.6,0.6-1,0.8c-0.4,0.1-0.9,0.1-1.2-0.2c-1.1-0.6-1.9-0.5-2.6-0.1c-0.7,0.4-1.1,1.3-1.5,2.2
		c-0.3,0.9-0.6,1.9-0.7,2.8c0,1.3,0,2.6,0,3.6c0,1-0.1,1.8-0.1,2.2c-1,0.6-1.9,0.6-2.5,0.4c-0.6-0.2-1-0.6-0.9-1.1
		c0.1-0.6,0-1.7-0.1-3.1c-0.1-1.4-0.3-2.9-0.4-4.5c-0.2-1.8-0.4-3.7-0.7-5.8c0.1-0.6,0.6-1,1.1-1.3c0.5-0.3,1.2-0.5,1.7-0.5
		C90.5,48.4,91.1,48.7,91.2,49z"/>
	<path class="st0" d="M104.6,44c0.4,0.4,0.6,0.9,0.6,1.4c0,0.5-0.2,1.1-0.6,1.4c-0.4,0.4-0.9,0.6-1.5,0.6c-0.6,0-1.1-0.2-1.5-0.6
		c-0.4-0.4-0.6-0.9-0.6-1.4c0-0.6,0.2-1.1,0.6-1.4c0.4-0.4,0.9-0.6,1.5-0.6C103.7,43.4,104.2,43.6,104.6,44z M105.7,49
		c0.2,0.6,0.3,1.7,0.4,3.1c0.1,1.4,0.1,3.1,0.2,4.7c0,1.6,0,3.3,0,4.6c0,1.3-0.1,2.4-0.2,2.8c-1,0.6-1.9,0.6-2.5,0.4
		c-0.6-0.2-1-0.6-0.9-1.1c0.1-0.6,0-1.7-0.1-3.1c-0.1-1.4-0.3-2.9-0.4-4.5c-0.2-1.8-0.4-3.7-0.7-5.8c0.1-0.6,0.6-1,1.1-1.3
		c0.5-0.3,1.2-0.5,1.7-0.5C104.9,48.4,105.5,48.7,105.7,49z"/>
	<path class="st0" d="M112.2,49c0.2,0.5,0.3,1.6,0.4,2.9c0.2-0.1,0.3-0.3,0.5-0.4c0.2-0.1,0.4-0.3,0.5-0.4c1-0.7,1.7-1.1,2.5-1.3
		c0.7-0.2,1.4-0.2,2.2-0.2c1.5,0,2.5,0.8,3,1.9c0.6,1.2,0.8,2.8,0.8,4.5c0,1.7-0.1,3.4-0.2,4.9c-0.1,1.5-0.2,2.8,0,3.4
		c-1,0.6-1.9,0.6-2.5,0.4c-0.6-0.2-1-0.6-0.9-1.1c0-0.5,0-1.4,0-2.5c0-0.5,0-1.1,0-1.7l0-1.9c0-1.3-0.1-2.6-0.2-3.7
		c0-1.2-0.6-1.7-1.5-1.5c-0.9,0.2-1.9,0.9-2.8,2c-0.8,1.1-1.4,2.5-1.3,3.9c0,1.4,0,2.7,0,3.8c0,1.1-0.1,1.9-0.1,2.3
		c-1,0.6-1.9,0.6-2.5,0.4c-0.6-0.2-1-0.6-0.9-1.1c0.1-0.6,0-1.7-0.1-3.1c-0.1-1.4-0.3-2.9-0.4-4.5c-0.2-1.8-0.4-3.7-0.7-5.8
		c0.1-0.6,0.6-1,1.1-1.3c0.5-0.3,1.2-0.5,1.7-0.5C111.5,48.4,112.1,48.7,112.2,49z"/>
	<path class="st0" d="M131.8,44c0.1,0.5,0.3,1.5,0.4,2.8c0.1,1.3,0.1,2.9,0.2,4.7c1.4,0.2,2.8,0.4,4.4,0.6c0.9,0.2,1.6,0.7,1.6,1.6
		c0,0.5-0.2,0.9-0.5,1.2c-0.3,0.3-0.7,0.5-1.1,0.4c0,0-0.1,0-0.2-0.1c-0.1-0.1-0.3-0.2-0.6-0.2c-0.6-0.2-1.7-0.3-3.5-0.4
		c0,0.6,0,1.3,0,1.9c0,0.6,0,1.2,0,1.8c0,0.4,0,1,0.2,1.6c0.2,0.6,0.6,1.1,1.4,1.3c0.3,0.1,0.6,0.1,0.9,0.1c0.4,0,0.9,0.2,1.2,0.5
		s0.5,0.7,0.5,1.2c0,0.5-0.2,0.9-0.5,1.1c-0.3,0.3-0.7,0.5-1.2,0.5c-1.5,0-2.9-0.4-3.9-1.3c-1.1-0.9-1.9-2.2-2.2-4.2l-0.1-1.2
		l-0.2-2.9c-0.8,0.2-1.4,0.4-1.9,0.6c-0.3,0.1-0.5,0.2-0.8,0.3c-0.6-0.2-1-0.6-1.3-1.1c-0.3-0.5-0.4-1.1-0.4-1.6
		c0-0.5,0.2-0.9,0.5-1.1c0.9-0.5,2.1-0.8,3.6-0.9c-0.1-0.8-0.2-1.6-0.2-2.4c-0.1-1.5-0.2-2.6-0.3-3.7c0.1-0.6,0.6-1,1.1-1.3
		c0.5-0.3,1.2-0.5,1.7-0.5C131.1,43.5,131.7,43.7,131.8,44z"/>
	<path class="st0" d="M150.6,44c0.4,0.4,0.6,0.9,0.6,1.4c0,0.5-0.2,1.1-0.6,1.4c-0.4,0.4-0.9,0.6-1.5,0.6c-0.6,0-1.1-0.2-1.5-0.6
		c-0.4-0.4-0.6-0.9-0.6-1.4c0-0.6,0.2-1.1,0.6-1.4c0.4-0.4,0.9-0.6,1.5-0.6C149.7,43.4,150.2,43.6,150.6,44z M151.7,49
		c0.2,0.6,0.3,1.7,0.4,3.1c0.1,1.4,0.1,3.1,0.2,4.7c0,1.6,0,3.3,0,4.6c0,1.3-0.1,2.4-0.2,2.8c-1,0.6-1.9,0.6-2.5,0.4
		c-0.6-0.2-1-0.6-0.9-1.1c0.1-0.6,0-1.7-0.1-3.1c-0.1-1.4-0.3-2.9-0.4-4.5c-0.2-1.8-0.4-3.7-0.7-5.8c0.1-0.6,0.6-1,1.1-1.3
		c0.5-0.3,1.2-0.5,1.7-0.5C150.9,48.4,151.5,48.7,151.7,49z"/>
	<path class="st0" d="M161.8,44c0.1,0.5,0.3,1.5,0.4,2.8c0.1,1.3,0.1,2.9,0.2,4.7c1.4,0.2,2.8,0.4,4.4,0.6c0.9,0.2,1.6,0.7,1.6,1.6
		c0,0.5-0.2,0.9-0.5,1.2c-0.3,0.3-0.7,0.5-1.1,0.4c0,0-0.1,0-0.2-0.1c-0.1-0.1-0.3-0.2-0.6-0.2c-0.6-0.2-1.7-0.3-3.5-0.4
		c0,0.6,0,1.3,0,1.9c0,0.6,0,1.2,0,1.8c0,0.4,0,1,0.2,1.6c0.2,0.6,0.6,1.1,1.4,1.3c0.3,0.1,0.6,0.1,0.9,0.1c0.4,0,0.9,0.2,1.2,0.5
		s0.5,0.7,0.5,1.2c0,0.5-0.2,0.9-0.5,1.1c-0.3,0.3-0.7,0.5-1.2,0.5c-1.5,0-2.9-0.4-3.9-1.3c-1.1-0.9-1.9-2.2-2.2-4.2l-0.1-1.2
		l-0.2-2.9c-0.8,0.2-1.4,0.4-1.9,0.6c-0.3,0.1-0.5,0.2-0.8,0.3c-0.6-0.2-1-0.6-1.3-1.1c-0.3-0.5-0.4-1.1-0.4-1.6
		c0-0.5,0.2-0.9,0.5-1.1c0.9-0.5,2.1-0.8,3.6-0.9c-0.1-0.8-0.2-1.6-0.2-2.4c-0.1-1.5-0.2-2.6-0.3-3.7c0.1-0.6,0.6-1,1.1-1.3
		c0.5-0.3,1.2-0.5,1.7-0.5C161.1,43.5,161.7,43.7,161.8,44z"/>
	<path class="st0" d="M184.9,49.6c1.4,0.8,2.4,2.2,2.9,3.9c0.3,0.8,0.6,2,0.8,3.4c0.2,1.4,0.3,2.8,0.5,4.1c0.1,1.3,0.1,2.4,0.1,3
		c-0.9,0.7-1.8,0.8-2.5,0.7c-0.7-0.1-1.1-0.5-1-0.9l0-1.2c-0.2,0.8-0.8,1.4-1.5,1.8c-0.7,0.4-1.5,0.6-2.2,0.4
		c-2-0.3-3.4-1.2-4.2-2.3c-0.8-1.1-0.9-2.5-0.6-3.8c0.3-1.3,1.2-2.4,2.4-3.1c1.3-0.7,3-1,5-0.5c-0.1-1.2-0.6-1.9-1.4-2.2
		c-0.8-0.3-1.7-0.3-2.6-0.2c-0.4,0.1-0.8,0.1-1.1,0.2c-0.3,0.1-0.5,0.1-0.6,0.1c-0.5-0.3-0.8-0.8-0.9-1.4c-0.1-0.3-0.1-0.6-0.1-0.9
		c0-0.6,0.1-1.3,0.4-1.7c0.2-0.2,0.3-0.3,0.5-0.3C181.1,48.2,183.2,48.6,184.9,49.6z M180.6,58.4c-0.6,0.7-0.6,1.6-0.1,2.3
		c0.5,0.7,1.4,1.1,2.7,0.6c0.5-0.1,0.7-0.6,0.9-1.1c0.1-0.5,0.2-1.1,0.1-1.5l0-0.5c0-0.1,0-0.2-0.1-0.2
		C182.3,57.4,181.2,57.8,180.6,58.4z"/>
	<path class="st0" d="M195.2,49c0.2,0.5,0.3,1.6,0.4,2.9c0.2-0.1,0.3-0.3,0.5-0.4c0.2-0.1,0.4-0.3,0.5-0.4c1-0.7,1.7-1.1,2.5-1.3
		c0.7-0.2,1.4-0.2,2.2-0.2c1.5,0,2.5,0.8,3,1.9c0.6,1.2,0.8,2.8,0.8,4.5c0,1.7-0.1,3.4-0.2,4.9c-0.1,1.5-0.2,2.8,0,3.4
		c-1,0.6-1.9,0.6-2.5,0.4c-0.6-0.2-1-0.6-0.9-1.1c0-0.5,0-1.4,0-2.5c0-0.5,0-1.1,0-1.7l0-1.9c0-1.3-0.1-2.6-0.2-3.7
		c0-1.2-0.6-1.7-1.5-1.5c-0.9,0.2-1.9,0.9-2.8,2c-0.8,1.1-1.4,2.5-1.3,3.9c0,1.4,0,2.7,0,3.8c0,1.1-0.1,1.9-0.1,2.3
		c-1,0.6-1.9,0.6-2.5,0.4c-0.6-0.2-1-0.6-0.9-1.1c0.1-0.6,0-1.7-0.1-3.1c-0.1-1.4-0.3-2.9-0.4-4.5c-0.2-1.8-0.4-3.7-0.7-5.8
		c0.1-0.6,0.6-1,1.1-1.3c0.5-0.3,1.2-0.5,1.7-0.5C194.5,48.4,195.1,48.7,195.2,49z"/>
	<path class="st0" d="M219.2,44c0.2,0.6,0.3,2,0.4,3.9c0.1,1.9,0.1,4.1,0.2,6.4c0,2.3,0,4.5,0,6.3c0,0.9,0,1.7-0.1,2.3
		c0,0.6-0.1,1.1-0.1,1.3c-1.1,0.3-2.3,0.5-3.4,0.5c-1.1,0-2.3,0-3.4-0.2c-2-0.3-3.5-1.4-4.5-2.8c-1-1.4-1.4-3.3-1.4-5.1
		c0-1.8,0.6-3.7,1.5-5.1c1-1.4,2.4-2.5,4.3-2.7c0.8-0.1,1.6-0.2,2.4-0.2c-0.1-1-0.2-1.8-0.2-2.4c0-0.3-0.1-0.6-0.1-0.9
		c0.1-0.6,0.6-1,1.1-1.3c0.5-0.3,1.2-0.5,1.7-0.5C218.5,43.5,219.1,43.7,219.2,44z M210.8,53.6c-0.6,0.8-0.9,1.9-0.9,2.9
		c0,1.1,0.3,2.2,0.9,3c0.6,0.8,1.5,1.4,2.8,1.6c1,0.1,1.9-0.1,2.7-0.4c-0.1-1.1-0.2-2.5-0.3-4c-0.1-1.4-0.2-3-0.3-4.4
		c-0.6-0.2-1.3-0.3-2.1-0.2C212.3,52.2,211.4,52.8,210.8,53.6z"/>
	<path class="st0" d="M238.4,50.8c0.8,1.1,0.9,2.5,0.6,3.8c-0.3,1.3-1.2,2.4-2.4,3.2c-1.3,0.7-3,1-5,0.5c0.1,1.2,0.6,1.9,1.4,2.2
		c0.8,0.3,1.7,0.3,2.6,0.2c0.4,0,0.8-0.1,1.1-0.2c0.3-0.1,0.5-0.1,0.6-0.1c0.5,0.3,0.8,0.8,1,1.4c0.1,0.3,0.1,0.6,0.1,0.9
		c0,0.6-0.1,1.3-0.4,1.7c-0.2,0.2-0.3,0.3-0.5,0.3c-2.4,0.2-4.5-0.2-6.2-1.1c-1.4-0.8-2.4-2.3-2.9-3.9c-0.5-1.7-0.6-3.5-0.2-5.3
		c0.3-1.7,1-3.3,2.1-4.5c1-1.1,2.4-1.7,4-1.5C236.3,48.8,237.6,49.7,238.4,50.8z M232.2,52.9c-0.1,0.5-0.2,1.1-0.1,1.5
		c0,0.2,0,0.4,0.1,0.6c0,0.1,0,0.2,0,0.2c1.8,0.5,2.9,0.2,3.5-0.5c0.6-0.6,0.6-1.6,0.1-2.3c-0.5-0.7-1.4-1.1-2.7-0.6
		C232.5,51.9,232.3,52.4,232.2,52.9z"/>
	<path class="st0" d="M245.2,49c0.2,0.5,0.3,1.6,0.4,2.9c0.2-0.1,0.3-0.3,0.5-0.4c0.2-0.1,0.4-0.3,0.5-0.4c1-0.7,1.7-1.1,2.5-1.3
		c0.7-0.2,1.4-0.2,2.2-0.2c1.5,0,2.5,0.8,3,1.9c0.6,1.2,0.8,2.8,0.8,4.5c0,1.7-0.1,3.4-0.2,4.9c-0.1,1.5-0.2,2.8,0,3.4
		c-1,0.6-1.9,0.6-2.5,0.4c-0.6-0.2-1-0.6-0.9-1.1c0-0.5,0-1.4,0-2.5c0-0.5,0-1.1,0-1.7l0-1.9c0-1.3-0.1-2.6-0.2-3.7
		c0-1.2-0.6-1.7-1.5-1.5c-0.9,0.2-1.9,0.9-2.8,2c-0.8,1.1-1.4,2.5-1.3,3.9c0,1.4,0,2.7,0,3.8c0,1.1-0.1,1.9-0.1,2.3
		c-1,0.6-1.9,0.6-2.5,0.4c-0.6-0.2-1-0.6-0.9-1.1c0.1-0.6,0-1.7-0.1-3.1c-0.1-1.4-0.3-2.9-0.4-4.5c-0.2-1.8-0.4-3.7-0.7-5.8
		c0.1-0.6,0.6-1,1.1-1.3c0.5-0.3,1.2-0.5,1.7-0.5C244.5,48.4,245.1,48.7,245.2,49z"/>
	<path class="st0" d="M262.5,49c0.2,0.6,0.3,1.7,0.4,3c0.1,1.4,0.2,2.9,0.2,4.5c0,1.6,0,3.2,0,4.5c0,1.3-0.1,2.3-0.2,2.8
		c-0.3,2-1.2,3.4-2.5,4.4c-1.2,1-2.8,1.5-4.3,1.5c-0.5,0-0.9-0.2-1.1-0.5c-0.3-0.3-0.5-0.7-0.5-1.2c0-0.4,0.2-0.9,0.5-1.2
		c0.3-0.3,0.7-0.5,1.1-0.5c0.3,0,0.6,0,0.9-0.1c1.6-0.4,2.2-1.5,2.4-3.1c0.1-0.6,0-1.7-0.1-3c-0.1-1.3-0.3-2.9-0.5-4.3
		c-0.2-1.7-0.5-3.6-0.7-5.6c0.2-0.6,0.6-1.1,1.2-1.4c0.6-0.3,1.3-0.4,1.9-0.4C262,48.5,262.4,48.7,262.5,49z M261.5,44
		c0.4,0.4,0.6,0.9,0.6,1.4c0,0.5-0.2,1.1-0.6,1.4c-0.4,0.4-0.9,0.6-1.5,0.6c-0.6,0-1.1-0.2-1.5-0.6c-0.4-0.4-0.6-0.9-0.6-1.4
		c0-0.6,0.2-1.1,0.6-1.4c0.4-0.4,0.9-0.6,1.5-0.6C260.6,43.4,261.1,43.6,261.5,44z"/>
	<path class="st0" d="M277.9,51.1c1.2,1.5,1.8,3.5,1.8,5.5c0,2-0.7,4.1-1.9,5.6c-1.2,1.5-3.1,2.5-5.5,2.5c-2.4,0-4.2-1-5.4-2.5
		c-1.2-1.5-1.9-3.6-1.9-5.6c0-2,0.6-4,1.8-5.6c1.2-1.5,3-2.5,5.5-2.4C274.8,48.6,276.7,49.6,277.9,51.1z M268.9,53.5
		c-0.8,0.8-1.1,2-1.1,3.1c0,1.2,0.4,2.3,1.2,3.2c0.8,0.9,1.9,1.4,3.3,1.4c1.5,0,2.6-0.5,3.3-1.4c0.8-0.8,1.2-2,1.2-3.2
		c0-1.1-0.3-2.3-1.1-3.1c-0.7-0.8-1.9-1.4-3.4-1.3C270.7,52.1,269.6,52.6,268.9,53.5z"/>
	<path class="st0" d="M294,49.6c0.2,0.6,0.3,1.7,0.4,3c0.1,1.4,0.2,2.9,0.2,4.5c0,1.6,0,3.2,0,4.5c0,1.3-0.1,2.3-0.2,2.8
		c-0.3,2-1.2,3.4-2.5,4.4c-1.2,1-2.8,1.5-4.3,1.5c-0.5,0-0.9-0.2-1.1-0.5c-0.3-0.3-0.5-0.7-0.5-1.2c0-0.4,0.2-0.9,0.5-1.2
		c0.3-0.3,0.7-0.5,1.1-0.5c0.3,0,0.6,0,0.9-0.1c1.6-0.4,2.2-1.5,2.4-3.1c0-0.4,0-1.1,0-2l-0.2,0.2c-0.1,0.1-0.1,0.1-0.1,0.1
		c-0.2,0.1-0.3,0.3-0.5,0.4c-0.2,0.1-0.4,0.3-0.5,0.4c-1,0.7-1.7,1.1-2.5,1.3c-0.7,0.2-1.4,0.2-2.2,0.2c-1.5,0-2.5-0.8-3-1.9
		c-0.6-1.2-0.8-2.8-0.8-4.5c0-1.7,0.1-3.4,0.2-5c0.1-1.5,0.2-2.8,0-3.4c1-0.6,1.9-0.6,2.5-0.4c0.6,0.2,1,0.7,0.9,1.1
		c0,0.5,0,1.4,0,2.5c0,0.5,0,1.1,0,1.7l0,1.9c0,1.3,0.1,2.6,0.2,3.7c0,1.2,0.6,1.6,1.4,1.5c0.8-0.1,1.8-0.8,2.6-1.8
		c0.8-1,1.5-2.3,1.5-3.6c-0.2-1.4-0.4-2.8-0.5-3.8c-0.1-0.6-0.2-1.1-0.2-1.6c0.2-0.6,0.6-1.1,1.2-1.4c0.6-0.3,1.3-0.4,1.9-0.4
		C293.4,49,293.9,49.2,294,49.6z"/>
	<path class="st0" d="M307.2,44c0.2,0.5,0.3,1.6,0.4,3.1c0.1,1.5,0.1,3.3,0.2,5.3c1.7-0.3,3.5-0.5,5.1-0.2c1.6,0.3,2.9,1,3.9,2.3
		c1,1.3,1.5,3.3,1.5,6.2l-0.1,3.3c-0.1,0.4-0.6,0.7-1.3,0.7c-0.6,0.1-1.2,0-1.8-0.2c-0.6-0.2-1.1-0.6-1.3-1.1l0.2-5.6
		c0-0.8-0.6-1.3-1.4-1.6c-0.9-0.3-2-0.4-2.9-0.3c-0.9,0.1-1.7,0.4-1.8,0.8c0,1.8,0,3.6,0,4.9c0,1.4-0.1,2.4-0.1,2.8
		c-1,0.6-1.9,0.6-2.5,0.4c-0.6-0.2-1-0.6-0.9-1.1c0.1-0.6,0-2-0.1-3.8c-0.1-1.8-0.3-4-0.4-6.2c-0.2-2.5-0.4-5.3-0.7-8.3
		c0.1-0.6,0.6-1,1.1-1.3c0.5-0.3,1.2-0.5,1.7-0.5C306.5,43.5,307.1,43.7,307.2,44z"/>
	<path class="st0" d="M327.9,49.6c1.4,0.8,2.4,2.2,2.9,3.9c0.3,0.8,0.6,2,0.8,3.4c0.2,1.4,0.3,2.8,0.5,4.1c0.1,1.3,0.1,2.4,0.1,3
		c-0.9,0.7-1.8,0.8-2.5,0.7c-0.7-0.1-1.1-0.5-1-0.9l0-1.2c-0.2,0.8-0.8,1.4-1.5,1.8c-0.7,0.4-1.5,0.6-2.2,0.4
		c-2-0.3-3.4-1.2-4.2-2.3c-0.8-1.1-0.9-2.5-0.6-3.8c0.3-1.3,1.2-2.4,2.4-3.1c1.3-0.7,3-1,5-0.5c-0.1-1.2-0.6-1.9-1.4-2.2
		c-0.8-0.3-1.7-0.3-2.6-0.2c-0.4,0.1-0.8,0.1-1.1,0.2c-0.3,0.1-0.5,0.1-0.6,0.1c-0.5-0.3-0.8-0.8-0.9-1.4c-0.1-0.3-0.1-0.6-0.1-0.9
		c0-0.6,0.1-1.3,0.4-1.7c0.2-0.2,0.3-0.3,0.5-0.3C324.1,48.2,326.2,48.6,327.9,49.6z M323.6,58.4c-0.6,0.7-0.6,1.6-0.1,2.3
		c0.5,0.7,1.4,1.1,2.7,0.6c0.5-0.1,0.7-0.6,0.9-1.1c0.1-0.5,0.2-1.1,0.1-1.5l0-0.5c0-0.1,0-0.2-0.1-0.2
		C325.3,57.4,324.2,57.8,323.6,58.4z"/>
	<path class="st0" d="M338.2,49c0.2,0.5,0.3,1.6,0.4,2.9c0.2-0.1,0.3-0.3,0.5-0.4c0.2-0.1,0.4-0.3,0.5-0.4c1-0.7,1.7-1.1,2.5-1.3
		c0.7-0.2,1.4-0.2,2.2-0.2c1.5,0,2.5,0.8,3,1.9c0.6,1.2,0.8,2.8,0.8,4.5c0,1.7-0.1,3.4-0.2,4.9c-0.1,1.5-0.2,2.8,0,3.4
		c-1,0.6-1.9,0.6-2.5,0.4c-0.6-0.2-1-0.6-0.9-1.1c0-0.5,0-1.4,0-2.5c0-0.5,0-1.1,0-1.7l0-1.9c0-1.3-0.1-2.6-0.2-3.7
		c0-1.2-0.6-1.7-1.5-1.5c-0.9,0.2-1.9,0.9-2.8,2c-0.8,1.1-1.4,2.5-1.3,3.9c0,1.4,0,2.7,0,3.8c0,1.1-0.1,1.9-0.1,2.3
		c-1,0.6-1.9,0.6-2.5,0.4c-0.6-0.2-1-0.6-0.9-1.1c0.1-0.6,0-1.7-0.1-3.1c-0.1-1.4-0.3-2.9-0.4-4.5c-0.2-1.8-0.4-3.7-0.7-5.8
		c0.1-0.6,0.6-1,1.1-1.3c0.5-0.3,1.2-0.5,1.7-0.5C337.5,48.4,338.1,48.7,338.2,49z"/>
	<path class="st0" d="M360.8,48.8c0.8,0.2,1.5,0.7,1.8,1.4c0.1,0.8,0.3,2,0.3,3.3c0.1,1.3,0.1,2.9,0.1,4.3c0,1.5,0,2.9,0,4
		c0,1.2-0.1,2.1-0.2,2.5c-0.3,2-1.2,3.4-2.5,4.4c-1.2,1-2.8,1.5-4.3,1.5c-0.5,0-0.9-0.2-1.1-0.5c-0.3-0.3-0.5-0.7-0.5-1.2
		c0-0.4,0.2-0.9,0.5-1.2c0.3-0.3,0.7-0.5,1.1-0.5c0.3,0,0.6,0,0.9-0.1c1.2-0.3,1.9-1,2.2-2.1c-1.2,0.1-2.4,0-3.4-0.2
		c-2-0.3-3.5-1.4-4.5-2.8c-1-1.4-1.4-3.3-1.4-5.1c0-1.8,0.6-3.7,1.5-5.1c1-1.4,2.4-2.5,4.3-2.7c0.6-0.1,1.4-0.2,2.3-0.2
		C359.1,48.5,360,48.6,360.8,48.8z M356.5,52.2c-1.2,0.1-2.1,0.6-2.7,1.5c-0.6,0.8-0.9,1.9-0.9,2.9c0,1.1,0.3,2.2,0.9,3
		c0.6,0.8,1.5,1.4,2.8,1.6c1.1,0.1,2.1-0.1,2.9-0.5l-0.5-8.3c-0.3-0.1-0.7-0.1-1.2-0.2c-0.2,0-0.5,0-0.7,0
		C356.8,52.2,356.7,52.2,356.5,52.2z"/>
	<path class="st0" d="M368.6,44c0.4,0.4,0.6,0.9,0.6,1.4c0,0.5-0.2,1.1-0.6,1.4c-0.4,0.4-0.9,0.6-1.5,0.6c-0.6,0-1.1-0.2-1.5-0.6
		c-0.4-0.4-0.6-0.9-0.6-1.4c0-0.6,0.2-1.1,0.6-1.4c0.4-0.4,0.9-0.6,1.5-0.6C367.7,43.4,368.2,43.6,368.6,44z M369.7,49
		c0.2,0.6,0.3,1.7,0.4,3.1c0.1,1.4,0.1,3.1,0.2,4.7c0,1.6,0,3.3,0,4.6c0,1.3-0.1,2.4-0.2,2.8c-1,0.6-1.9,0.6-2.5,0.4
		c-0.6-0.2-1-0.6-0.9-1.1c0.1-0.6,0-1.7-0.1-3.1c-0.1-1.4-0.3-2.9-0.4-4.5c-0.2-1.8-0.4-3.7-0.7-5.8c0.1-0.6,0.6-1,1.1-1.3
		c0.5-0.3,1.2-0.5,1.7-0.5C368.9,48.4,369.5,48.7,369.7,49z"/>
	<path class="st0" d="M376.2,49c0.2,0.5,0.3,1.6,0.4,2.9c0.2-0.1,0.3-0.3,0.5-0.4c0.2-0.1,0.4-0.3,0.5-0.4c1-0.7,1.7-1.1,2.5-1.3
		c0.7-0.2,1.4-0.2,2.2-0.2c1.5,0,2.5,0.8,3,1.9c0.6,1.2,0.8,2.8,0.8,4.5c0,1.7-0.1,3.4-0.2,4.9c-0.1,1.5-0.2,2.8,0,3.4
		c-1,0.6-1.9,0.6-2.5,0.4c-0.6-0.2-1-0.6-0.9-1.1c0-0.5,0-1.4,0-2.5c0-0.5,0-1.1,0-1.7l0-1.9c0-1.3-0.1-2.6-0.2-3.7
		c0-1.2-0.6-1.7-1.5-1.5c-0.9,0.2-1.9,0.9-2.8,2c-0.8,1.1-1.4,2.5-1.3,3.9c0,1.4,0,2.7,0,3.8c0,1.1-0.1,1.9-0.1,2.3
		c-1,0.6-1.9,0.6-2.5,0.4c-0.6-0.2-1-0.6-0.9-1.1c0.1-0.6,0-1.7-0.1-3.1c-0.1-1.4-0.3-2.9-0.4-4.5c-0.2-1.8-0.4-3.7-0.7-5.8
		c0.1-0.6,0.6-1,1.1-1.3c0.5-0.3,1.2-0.5,1.7-0.5C375.5,48.4,376.1,48.7,376.2,49z"/>
	<path class="st0" d="M398.8,48.8c0.8,0.2,1.5,0.7,1.8,1.4c0.1,0.8,0.3,2,0.3,3.3c0.1,1.3,0.1,2.9,0.1,4.3c0,1.5,0,2.9,0,4
		c0,1.2-0.1,2.1-0.2,2.5c-0.3,2-1.2,3.4-2.5,4.4c-1.2,1-2.8,1.5-4.3,1.5c-0.5,0-0.9-0.2-1.1-0.5c-0.3-0.3-0.5-0.7-0.5-1.2
		c0-0.4,0.2-0.9,0.5-1.2c0.3-0.3,0.7-0.5,1.1-0.5c0.3,0,0.6,0,0.9-0.1c1.2-0.3,1.9-1,2.2-2.1c-1.2,0.1-2.4,0-3.4-0.2
		c-2-0.3-3.5-1.4-4.5-2.8c-1-1.4-1.4-3.3-1.4-5.1c0-1.8,0.6-3.7,1.5-5.1c1-1.4,2.4-2.5,4.3-2.7c0.6-0.1,1.4-0.2,2.3-0.2
		C397.1,48.5,398,48.6,398.8,48.8z M394.5,52.2c-1.2,0.1-2.1,0.6-2.7,1.5c-0.6,0.8-0.9,1.9-0.9,2.9c0,1.1,0.3,2.2,0.9,3
		c0.6,0.8,1.5,1.4,2.8,1.6c1.1,0.1,2.1-0.1,2.9-0.5l-0.5-8.3c-0.3-0.1-0.7-0.1-1.2-0.2c-0.2,0-0.5,0-0.7,0
		C394.8,52.2,394.7,52.2,394.5,52.2z"/>
	<path class="st0" d="M413.6,44c0.4,0.4,0.6,0.9,0.6,1.4c0,0.5-0.2,1.1-0.6,1.4c-0.4,0.4-0.9,0.6-1.5,0.6c-0.6,0-1.1-0.2-1.5-0.6
		c-0.4-0.4-0.6-0.9-0.6-1.4c0-0.6,0.2-1.1,0.6-1.4c0.4-0.4,0.9-0.6,1.5-0.6C412.7,43.4,413.2,43.6,413.6,44z M414.7,49
		c0.2,0.6,0.3,1.7,0.4,3.1c0.1,1.4,0.1,3.1,0.2,4.7c0,1.6,0,3.3,0,4.6c0,1.3-0.1,2.4-0.2,2.8c-1,0.6-1.9,0.6-2.5,0.4
		c-0.6-0.2-1-0.6-0.9-1.1c0.1-0.6,0-1.7-0.1-3.1c-0.1-1.4-0.3-2.9-0.4-4.5c-0.2-1.8-0.4-3.7-0.7-5.8c0.1-0.6,0.6-1,1.1-1.3
		c0.5-0.3,1.2-0.5,1.7-0.5C413.9,48.4,414.5,48.7,414.7,49z"/>
	<path class="st0" d="M424.8,44c0.1,0.5,0.3,1.5,0.4,2.8c0.1,1.3,0.1,2.9,0.2,4.7c1.4,0.2,2.8,0.4,4.4,0.6c0.9,0.2,1.6,0.7,1.6,1.6
		c0,0.5-0.2,0.9-0.5,1.2c-0.3,0.3-0.7,0.5-1.1,0.4c0,0-0.1,0-0.2-0.1c-0.1-0.1-0.3-0.2-0.6-0.2c-0.6-0.2-1.7-0.3-3.5-0.4
		c0,0.6,0,1.3,0,1.9c0,0.6,0,1.2,0,1.8c0,0.4,0,1,0.2,1.6c0.2,0.6,0.6,1.1,1.4,1.3c0.3,0.1,0.6,0.1,0.9,0.1c0.4,0,0.9,0.2,1.2,0.5
		c0.3,0.3,0.5,0.7,0.5,1.2c0,0.5-0.2,0.9-0.5,1.1c-0.3,0.3-0.7,0.5-1.2,0.5c-1.5,0-2.9-0.4-3.9-1.3c-1.1-0.9-1.9-2.2-2.2-4.2
		l-0.1-1.2l-0.2-2.9c-0.8,0.2-1.4,0.4-1.9,0.6c-0.3,0.1-0.5,0.2-0.8,0.3c-0.6-0.2-1-0.6-1.3-1.1c-0.3-0.5-0.4-1.1-0.4-1.6
		c0-0.5,0.2-0.9,0.5-1.1c0.9-0.5,2.1-0.8,3.6-0.9c-0.1-0.8-0.2-1.6-0.2-2.4c-0.1-1.5-0.2-2.6-0.3-3.7c0.1-0.6,0.6-1,1.1-1.3
		c0.5-0.3,1.2-0.5,1.7-0.5C424.1,43.5,424.7,43.7,424.8,44z"/>
	<path class="st0" d="M129.8,87.4c0.4,0.4,0.6,0.9,0.6,1.4c0,0.5-0.2,1.1-0.6,1.4c-0.4,0.4-0.9,0.6-1.5,0.6c-0.6,0-1.1-0.2-1.5-0.6
		c-0.4-0.4-0.6-0.9-0.6-1.4c0-0.6,0.2-1.1,0.6-1.4c0.4-0.4,0.9-0.6,1.5-0.6C128.8,86.8,129.4,87,129.8,87.4z M130.8,92.4
		c0.2,0.6,0.3,1.7,0.4,3.1c0.1,1.4,0.1,3.1,0.2,4.7c0,1.6,0,3.3,0,4.6c0,1.3-0.1,2.4-0.2,2.8c-1,0.6-1.9,0.6-2.5,0.4
		c-0.6-0.2-1-0.6-0.9-1.1c0.1-0.6,0-1.7-0.1-3.1c-0.1-1.4-0.3-2.9-0.4-4.5c-0.2-1.8-0.4-3.7-0.7-5.8c0.1-0.6,0.6-1,1.1-1.3
		c0.5-0.3,1.2-0.5,1.7-0.5C130.1,91.8,130.7,92.1,130.8,92.4z"/>
	<path class="st0" d="M137.4,92.4c0.2,0.5,0.3,1.6,0.4,2.9c0.2-0.1,0.3-0.3,0.5-0.4c0.2-0.1,0.4-0.3,0.5-0.4c1-0.7,1.7-1.1,2.5-1.3
		c0.7-0.2,1.4-0.2,2.2-0.2c1.5,0,2.5,0.8,3,1.9c0.6,1.2,0.8,2.8,0.8,4.5c0,1.7-0.1,3.4-0.2,4.9c-0.1,1.5-0.2,2.8,0,3.4
		c-1,0.6-1.9,0.6-2.5,0.4c-0.6-0.2-1-0.6-0.9-1.1c0-0.5,0-1.4,0-2.5c0-0.5,0-1.1,0-1.7l0-1.9c0-1.3-0.1-2.6-0.2-3.7
		c0-1.2-0.6-1.7-1.5-1.5c-0.9,0.2-1.9,0.9-2.8,2c-0.8,1.1-1.4,2.5-1.3,3.9c0,1.4,0,2.7,0,3.8c0,1.1-0.1,1.9-0.1,2.3
		c-1,0.6-1.9,0.6-2.5,0.4c-0.6-0.2-1-0.6-0.9-1.1c0.1-0.6,0-1.7-0.1-3.1c-0.1-1.4-0.3-2.9-0.4-4.5c-0.2-1.8-0.4-3.7-0.7-5.8
		c0.1-0.6,0.6-1,1.1-1.3c0.5-0.3,1.2-0.5,1.7-0.5C136.7,91.8,137.3,92.1,137.4,92.4z"/>
	<path class="st0" d="M169.2,93c0.2,0.6,0.3,1.7,0.4,3c0.1,1.4,0.2,2.9,0.2,4.5c0,1.6,0,3.2,0,4.5c0,1.3-0.1,2.3-0.2,2.8
		c-0.3,2-1.2,3.4-2.5,4.4c-1.2,1-2.8,1.5-4.3,1.5c-0.5,0-0.9-0.2-1.1-0.5c-0.3-0.3-0.5-0.7-0.5-1.2c0-0.4,0.2-0.9,0.5-1.2
		c0.3-0.3,0.7-0.5,1.1-0.5c0.3,0,0.6,0,0.9-0.1c1.6-0.4,2.2-1.5,2.4-3.1c0-0.4,0-1.1,0-2l-0.2,0.2c-0.1,0.1-0.1,0.1-0.1,0.1
		c-0.2,0.1-0.3,0.3-0.5,0.4c-0.2,0.1-0.4,0.3-0.5,0.4c-1,0.7-1.7,1.1-2.5,1.3c-0.7,0.2-1.4,0.2-2.2,0.2c-1.5,0-2.5-0.8-3-1.9
		c-0.6-1.2-0.8-2.8-0.8-4.5c0-1.7,0.1-3.4,0.2-5c0.1-1.5,0.2-2.8,0-3.4c1-0.6,1.9-0.6,2.5-0.4c0.6,0.2,1,0.7,0.9,1.1
		c0,0.5,0,1.4,0,2.5c0,0.5,0,1.1,0,1.7l0,1.9c0,1.3,0.1,2.6,0.2,3.7c0,1.2,0.6,1.6,1.4,1.5c0.8-0.1,1.8-0.8,2.6-1.8
		c0.8-1,1.5-2.3,1.5-3.6c-0.2-1.4-0.4-2.8-0.5-3.8c-0.1-0.6-0.2-1.1-0.2-1.6c0.2-0.6,0.6-1.1,1.2-1.4c0.6-0.3,1.3-0.4,1.9-0.4
		C168.6,92.4,169,92.6,169.2,93z"/>
	<path class="st0" d="M184.1,94.5c1.2,1.5,1.8,3.5,1.8,5.5c0,2-0.7,4.1-1.9,5.6c-1.2,1.5-3.1,2.5-5.5,2.5c-2.4,0-4.2-1-5.4-2.5
		c-1.2-1.5-1.9-3.6-1.9-5.6c0-2,0.6-4,1.8-5.6c1.2-1.5,3-2.5,5.5-2.4C181,92,182.9,93,184.1,94.5z M175,96.9c-0.8,0.8-1.1,2-1.1,3.1
		c0,1.2,0.4,2.3,1.2,3.2c0.8,0.9,1.9,1.4,3.3,1.4c1.5,0,2.6-0.5,3.3-1.4c0.8-0.8,1.2-2,1.2-3.2c0-1.1-0.3-2.3-1.1-3.1
		c-0.7-0.8-1.9-1.4-3.4-1.3C176.9,95.5,175.8,96,175,96.9z"/>
	<path class="st0" d="M200.2,93.7c-0.1,0.6,0,1.7,0.1,3.1c0.1,1.4,0.3,2.9,0.4,4.5c0.2,1.8,0.4,3.7,0.7,5.8c-0.2,0.6-0.6,1-1.1,1.3
		c-0.5,0.3-1.2,0.5-1.7,0.5c-0.7,0-1.2-0.2-1.4-0.5c-0.2-0.5-0.3-1.6-0.4-2.9c-0.2,0.1-0.3,0.3-0.5,0.4c-0.2,0.1-0.4,0.3-0.5,0.4
		c-1,0.7-1.7,1.1-2.5,1.3c-0.7,0.2-1.4,0.2-2.2,0.2c-1.5,0-2.5-0.8-3-1.9c-0.6-1.2-0.8-2.8-0.8-4.5c0-1.7,0.1-3.4,0.2-5
		c0.1-1.5,0.2-2.8,0-3.4c1-0.6,1.9-0.6,2.5-0.4c0.6,0.2,1,0.7,0.9,1.1c0,0.5,0,1.4,0,2.5c0,0.5,0,1.1,0,1.7l0,1.9
		c0,1.3,0.1,2.6,0.2,3.7c0,1.2,0.6,1.7,1.5,1.5c0.8-0.2,1.9-0.9,2.7-2c0.8-1.1,1.4-2.5,1.3-3.9c0-1.4,0-2.7,0.1-3.8
		c0-1.1,0.1-1.9,0.1-2.3c1-0.6,1.9-0.6,2.5-0.4C200,92.8,200.3,93.3,200.2,93.7z"/>
	<path class="st0" d="M207.4,92.4c0.2,0.5,0.2,1.2,0.3,2.2c1.1-0.9,2.2-1.4,3.3-1.4c1.1,0,2.2,0.3,3.3,0.9c0.4,0.2,0.6,0.6,0.8,1
		c0.1,0.4,0.1,0.9-0.2,1.2c-0.2,0.4-0.6,0.6-1,0.8c-0.4,0.1-0.9,0.1-1.2-0.2c-1.1-0.6-1.9-0.5-2.6-0.1c-0.7,0.4-1.1,1.3-1.5,2.2
		c-0.3,0.9-0.6,1.9-0.7,2.8c0,1.3,0,2.6,0,3.6c0,1-0.1,1.8-0.1,2.2c-1,0.6-1.9,0.6-2.5,0.4c-0.6-0.2-1-0.6-0.9-1.1
		c0.1-0.6,0-1.7-0.1-3.1c-0.1-1.4-0.3-2.9-0.4-4.5c-0.2-1.8-0.4-3.7-0.7-5.8c0.1-0.6,0.6-1,1.1-1.3c0.5-0.3,1.2-0.5,1.7-0.5
		C206.7,91.8,207.3,92.1,207.4,92.4z"/>
	<path class="st0" d="M228.4,92.4c0.2,0.5,0.2,1.2,0.3,2.2c1.1-0.9,2.2-1.4,3.3-1.4c1.1,0,2.2,0.3,3.3,0.9c0.4,0.2,0.6,0.6,0.8,1
		c0.1,0.4,0.1,0.9-0.2,1.2c-0.2,0.4-0.6,0.6-1,0.8c-0.4,0.1-0.9,0.1-1.2-0.2c-1.1-0.6-1.9-0.5-2.6-0.1c-0.7,0.4-1.1,1.3-1.5,2.2
		c-0.3,0.9-0.6,1.9-0.7,2.8c0,1.3,0,2.6,0,3.6c0,1-0.1,1.8-0.1,2.2c-1,0.6-1.9,0.6-2.5,0.4c-0.6-0.2-1-0.6-0.9-1.1
		c0.1-0.6,0-1.7-0.1-3.1c-0.1-1.4-0.3-2.9-0.4-4.5c-0.2-1.8-0.4-3.7-0.7-5.8c0.1-0.6,0.6-1,1.1-1.3c0.5-0.3,1.2-0.5,1.7-0.5
		C227.7,91.8,228.3,92.1,228.4,92.4z"/>
	<path class="st0" d="M251.1,94.5c1.2,1.5,1.8,3.5,1.8,5.5c0,2-0.7,4.1-1.9,5.6c-1.2,1.5-3.1,2.5-5.5,2.5c-2.4,0-4.2-1-5.4-2.5
		c-1.2-1.5-1.9-3.6-1.9-5.6c0-2,0.6-4,1.8-5.6c1.2-1.5,3-2.5,5.5-2.4C248,92,249.9,93,251.1,94.5z M242,96.9c-0.8,0.8-1.1,2-1.1,3.1
		c0,1.2,0.4,2.3,1.2,3.2c0.8,0.9,1.9,1.4,3.3,1.4c1.5,0,2.6-0.5,3.3-1.4c0.8-0.8,1.2-2,1.2-3.2c0-1.1-0.3-2.3-1.1-3.1
		c-0.7-0.8-1.9-1.4-3.4-1.3C243.9,95.5,242.8,96,242,96.9z"/>
	<path class="st0" d="M267.1,94.5c1.2,1.5,1.8,3.5,1.8,5.5c0,2-0.7,4.1-1.9,5.6c-1.2,1.5-3.1,2.5-5.5,2.5c-2.4,0-4.2-1-5.4-2.5
		c-1.2-1.5-1.9-3.6-1.9-5.6c0-2,0.6-4,1.8-5.6c1.2-1.5,3-2.5,5.5-2.4C264,92,265.9,93,267.1,94.5z M258,96.9c-0.8,0.8-1.1,2-1.1,3.1
		c0,1.2,0.4,2.3,1.2,3.2c0.8,0.9,1.9,1.4,3.3,1.4c1.5,0,2.6-0.5,3.3-1.4c0.8-0.8,1.2-2,1.2-3.2c0-1.1-0.3-2.3-1.1-3.1
		c-0.7-0.8-1.9-1.4-3.4-1.3C259.9,95.5,258.8,96,258,96.9z"/>
	<path class="st0" d="M274.4,92.4c0.2,0.5,0.3,1.6,0.4,2.9c0.2-0.1,0.3-0.3,0.5-0.4c0.2-0.1,0.4-0.3,0.5-0.4c1-0.7,1.7-1.1,2.5-1.3
		c0.7-0.2,1.4-0.2,2.2-0.2c0.8,0,1.5,0.2,2,0.6c0.5,0.4,0.9,1,1.2,1.7c1-0.7,2.1-1.3,3.1-1.7c1.1-0.4,2.1-0.6,3.1-0.6
		c1.5,0,2.5,0.8,3,1.9c0.6,1.2,0.8,2.8,0.8,4.5c0,1.7-0.1,3.4-0.2,4.9c-0.1,1.5-0.2,2.8,0,3.4c-1,0.6-1.9,0.6-2.5,0.4
		c-0.6-0.2-1-0.6-0.9-1.1c0-0.5,0-1.4,0-2.5c0-0.5,0-1.1,0-1.7l0-1.9c0-1.3-0.1-2.6-0.2-3.7c0-1.2-0.6-1.6-1.4-1.5
		c-0.8,0.1-1.8,0.8-2.6,1.7c-0.8,1-1.5,2.2-1.6,3.6l0,0.4v0.1c0,0,0,0.1,0,0.1c0,1.4,0,2.7,0,3.8c0,1.1-0.1,1.9-0.1,2.3
		c-0.6,0.3-1.2,0.5-1.7,0.5c-0.6,0-1.1-0.1-1.4-0.4c-0.3-0.2-0.5-0.5-0.4-0.8c0-0.5,0-1.4,0-2.5c0-0.5,0-1.1,0-1.7l0-1.9
		c0-1.3-0.1-2.6-0.2-3.7c0-1.2-0.6-1.7-1.5-1.5c-0.9,0.2-1.9,0.9-2.8,2c-0.8,1.1-1.4,2.5-1.3,3.9c0,1.4,0,2.7,0,3.8
		c0,1.1-0.1,1.9-0.1,2.3c-1,0.6-1.9,0.6-2.5,0.4c-0.6-0.2-1-0.6-0.9-1.1c0.1-0.6,0-1.7-0.1-3.1c-0.1-1.4-0.3-2.9-0.4-4.5
		c-0.2-1.8-0.4-3.7-0.7-5.8c0.1-0.6,0.6-1,1.1-1.3c0.5-0.3,1.2-0.5,1.7-0.5C273.7,91.8,274.3,92.1,274.4,92.4z"/>
	<path class="st0" d="M298.9,104.6c0.3,0.4,0.4,0.9,0.4,1.4c0,0.6-0.1,1.1-0.4,1.4c-0.3,0.4-0.8,0.6-1.6,0.6s-1.3-0.2-1.6-0.6
		c-0.3-0.4-0.4-0.9-0.4-1.4c0-0.6,0.1-1.1,0.4-1.4c0.3-0.4,0.8-0.6,1.7-0.6C298.1,104,298.6,104.3,298.9,104.6z"/>
</g>
</svg>
