<?xml version="1.0" encoding="utf-8"?>
<!-- Generator: Adobe Illustrator 22.1.0, SVG Export Plug-In . SVG Version: 6.00 Build 0)  -->
<svg version="1.1" id="Layer_1" xmlns="http://www.w3.org/2000/svg" xmlns:xlink="http://www.w3.org/1999/xlink" x="0px" y="0px"
	 viewBox="0 0 113.6 23.9" style="enable-background:new 0 0 113.6 23.9;" xml:space="preserve">
<style type="text/css">
	.st0{opacity:0.74;}
	.st1{opacity:0.22;}
	.st2{fill:#4E4E4E;}
	.st3{opacity:0.37;}
	.st4{fill:#676767;}
	.st5{fill:#FFFFFF;}
</style>
<g class="st0">
	<g class="st1">
		<g>
			<path class="st2" d="M7.6,1.4L41.7,0c0.3,0,0.5,0,0.7,0c0.5,0.1,1,0.3,1.4,0.7c0.4,0.4,0.7,0.8,0.7,1.3c0,0.2,0,0.4,0,0.6
				L41,18.7c-0.1,0.7-0.5,1.3-1,1.7c-0.5,0.4-1.1,0.7-1.8,0.7l-27.4-0.9c-0.7,0-1.4-0.3-1.8-0.7l0,0c-0.5-0.4-0.8-1.1-1-1.7L4.8,4
				c0-0.1,0-0.1,0-0.2C4.7,3.2,5,2.6,5.5,2.2C6,1.8,6.6,1.5,7.3,1.4C7.4,1.4,7.5,1.4,7.6,1.4z M40.2,2.2L7.6,3.4c-0.1,0-0.2,0-0.2,0
				C6.9,3.5,6.5,3.7,6.2,3.9C5.9,4.2,5.7,4.4,5.8,4.7c0,0,0,0.1,0,0.1l3,12.8c0.1,0.5,0.3,0.9,0.7,1.2c0.3,0.2,0.6,0.4,1.1,0.4
				l26.4,0.9c0.4,0,0.8-0.2,1.1-0.4c0.3-0.3,0.6-0.7,0.7-1.2l3.3-15c0-0.1,0-0.2,0-0.3c0-0.3-0.2-0.5-0.4-0.7
				c-0.2-0.2-0.5-0.4-0.9-0.4C40.5,2.2,40.4,2.2,40.2,2.2z"/>
			<path class="st2" d="M13.1,5l10-1.1c0.1,0,0.2,0,0.3,0c0.3,0,0.5,0.2,0.7,0.3c0.2,0.2,0.3,0.4,0.3,0.6c0,0.1,0,0.2,0,0.3
				l-1.6,7.4c-0.1,0.3-0.2,0.6-0.5,0.8c-0.2,0.2-0.5,0.3-0.8,0.3h-6.9c-0.3,0-0.6-0.1-0.8-0.3l0,0c-0.2-0.2-0.4-0.5-0.5-0.8
				l-1.5-6.4c0,0,0-0.1,0-0.1c0-0.3,0.1-0.6,0.3-0.7c0.2-0.2,0.5-0.3,0.8-0.4C13,5,13,5,13.1,5z M22.4,4.9l-9.3,1c0,0-0.1,0-0.1,0
				c-0.2,0-0.4,0.1-0.6,0.2c-0.1,0.1-0.2,0.2-0.2,0.4c0,0,0,0,0,0l1.4,5.9c0.1,0.2,0.2,0.4,0.3,0.6c0.1,0.1,0.3,0.2,0.5,0.2h6.4
				c0.2,0,0.4-0.1,0.5-0.2c0.2-0.1,0.3-0.3,0.3-0.6l1.5-6.9c0,0,0-0.1,0-0.1c0-0.1-0.1-0.2-0.2-0.3C22.9,5,22.7,5,22.6,5
				C22.5,4.9,22.4,4.9,22.4,4.9z"/>
			<path class="st2" d="M2.1,8.2l16.5-1.7c0.2,0,0.4,0,0.6,0C19.6,6.5,20,6.7,20.3,7c0.3,0.3,0.5,0.6,0.6,1c0,0.1,0,0.3,0,0.4
				L18,15.9c-0.1,0.5-0.4,1-0.8,1.3c-0.4,0.3-0.8,0.5-1.4,0.5H4.5c-0.6,0-1-0.2-1.4-0.5h0c-0.4-0.3-0.6-0.8-0.8-1.3L0,10.1
				c0,0,0-0.1,0-0.1c-0.1-0.5,0.2-0.9,0.5-1.2c0.4-0.3,0.8-0.5,1.3-0.6C2,8.2,2.1,8.2,2.1,8.2z M17.5,8.1L2.1,9.7
				c-0.1,0-0.1,0-0.2,0c-0.3,0.1-0.7,0.2-0.9,0.4c-0.2,0.2-0.3,0.4-0.3,0.6c0,0,0,0,0,0.1l2.1,5c0.1,0.4,0.3,0.7,0.5,0.9
				c0.2,0.2,0.5,0.3,0.8,0.3h10.6c0.3,0,0.6-0.1,0.8-0.3c0.3-0.2,0.4-0.6,0.5-0.9l2.7-6.7c0-0.1,0-0.2,0-0.2c0-0.2-0.1-0.4-0.3-0.5
				c-0.2-0.2-0.4-0.3-0.7-0.3C17.7,8.1,17.6,8.1,17.5,8.1z"/>
		</g>
		<g>
			<g>
				<path class="st2" d="M54.3,14.8h-2l1.6-5.6l-3.3,5.6h-2l-0.4-5.7l-1.4,5.7h-2l2.3-8.5h2.8l0.4,6l3.6-6h2.8L54.3,14.8z
					 M61.6,14.8h-4.4c-0.6,0-1-0.2-1.3-0.5c-0.3-0.3-0.3-0.8-0.2-1.4c0.2-0.7,0.5-1.3,1-1.6c0.5-0.3,1.2-0.5,2.1-0.5h1.9
					c0.1-0.3,0.1-0.5-0.1-0.7c-0.1-0.1-0.5-0.2-1-0.2h-2.8l0.4-1.5h3.4c0.9,0,1.5,0.2,1.8,0.6c0.3,0.4,0.4,1,0.2,1.8L61.6,14.8z
					 M60.1,13.3l0.3-0.9h-1.7c-0.3,0-0.6,0-0.7,0.1c-0.1,0.1-0.2,0.2-0.3,0.4c0,0.2,0,0.3,0,0.3c0,0,0.1,0.1,0.2,0.1
					c0.1,0,0.2,0,0.4,0H60.1z M68.5,14.8h-1.9l1-3.8c0.1-0.4,0.1-0.7,0-0.8c-0.1-0.1-0.3-0.1-0.7-0.1h-1.1l-1.3,4.7h-1.9l1.7-6.3
					h3.1c1,0,1.6,0.2,1.9,0.6c0.3,0.4,0.3,1,0.1,1.8L68.5,14.8z M75.3,14.8h-1.9l1-3.8c0.1-0.4,0.1-0.6,0-0.7
					c-0.1-0.1-0.1-0.1-0.2-0.1c-0.1,0-0.3,0-0.4,0l-1.1,0l-1.3,4.7h-1.9l2.3-8.5h1.9l-0.6,2.2h1.3c0.9,0,1.6,0.2,1.9,0.5
					c0.3,0.4,0.4,1,0.1,1.8L75.3,14.8z M82.5,14.8h-4.4c-0.6,0-1-0.2-1.3-0.5c-0.3-0.3-0.3-0.8-0.2-1.4c0.2-0.7,0.5-1.3,1-1.6
					c0.5-0.3,1.2-0.5,2.1-0.5h1.9c0.1-0.3,0.1-0.5-0.1-0.7c-0.1-0.1-0.5-0.2-1-0.2h-2.8l0.4-1.5h3.4c0.9,0,1.5,0.2,1.8,0.6
					c0.3,0.4,0.4,1,0.2,1.8L82.5,14.8z M80.9,13.3l0.3-0.9h-1.7c-0.3,0-0.6,0-0.7,0.1c-0.1,0.1-0.2,0.2-0.3,0.4c0,0.2,0,0.3,0,0.3
					c0,0,0.1,0.1,0.2,0.1c0.1,0,0.2,0,0.4,0H80.9z M85.5,14.8h-1.9l2.3-8.5h1.9L85.5,14.8z M89.8,14.8h-1.6l0.5-1.7h1.6L89.8,14.8z
					 M95.9,14.8h-2.3c-0.3,0-0.5,0-0.8,0c-0.2,0-0.4-0.1-0.6-0.1c-0.3-0.1-0.6-0.3-0.8-0.6c-0.1-0.1-0.2-0.3-0.2-0.5
					c-0.1-0.2-0.1-0.4-0.2-0.6c0-0.2,0-0.4,0-0.6c0-0.2,0.1-0.4,0.1-0.7c0.1-0.5,0.3-0.9,0.6-1.3c0.3-0.4,0.6-0.8,1-1.1
					c0.3-0.3,0.7-0.4,1.1-0.6c0.4-0.1,0.9-0.2,1.4-0.2h2.3L97.2,10h-1.8c-0.4,0-0.7,0-0.9,0.1c-0.2,0.1-0.4,0.2-0.6,0.3
					c-0.3,0.2-0.6,0.6-0.7,1.2C93,12,93,12.2,93,12.5c0,0.2,0.1,0.5,0.3,0.6l0.3,0.1c0.1,0,0.2,0,0.3,0c0.1,0,0.3,0,0.5,0h1.8
					L95.9,14.8z M103.7,11.6c-0.3,1-0.8,1.8-1.5,2.4c-0.8,0.6-1.6,0.9-2.6,0.9c-1,0-1.7-0.3-2.2-0.9c-0.4-0.6-0.5-1.4-0.3-2.4
					c0.3-1,0.8-1.8,1.5-2.4c0.8-0.6,1.6-0.9,2.7-0.9c1,0,1.7,0.3,2.2,0.9C103.9,9.8,104,10.6,103.7,11.6z M101.8,11.6
					c0.1-0.5,0.1-0.9-0.1-1.2c-0.2-0.3-0.4-0.4-0.9-0.4c-0.4,0-0.8,0.2-1.1,0.4c-0.3,0.3-0.5,0.7-0.7,1.2c-0.1,0.3-0.1,0.5-0.1,0.7
					c0,0.2,0,0.4,0.1,0.5c0.2,0.3,0.5,0.4,0.9,0.4c0.4,0,0.8-0.1,1.1-0.4C101.4,12.6,101.6,12.2,101.8,11.6z M112.4,14.8h-1.9l1-3.8
					c0.1-0.4,0.1-0.7,0-0.8c-0.1-0.1-0.3-0.2-0.7-0.2l-0.7,0l-1.3,4.7H107l1.3-4.7h-1.6l-1.3,4.7h-1.9l1.7-6.3h6.2
					c0.9,0,1.5,0.2,1.8,0.6c0.3,0.4,0.4,1,0.2,1.8L112.4,14.8z"/>
				<g>
					<path class="st2" d="M48.6,3.3l-0.4,1.3h-0.5l0.9-3.5h1c0.2,0,0.4,0,0.6,0.1c0.1,0.1,0.3,0.1,0.3,0.2c0.1,0.1,0.1,0.2,0.1,0.3
						c0,0.1,0,0.3,0,0.4c0,0.2-0.1,0.3-0.2,0.4c-0.1,0.1-0.2,0.3-0.3,0.3c-0.1,0.1-0.3,0.2-0.5,0.2c-0.2,0.1-0.4,0.1-0.6,0.1H48.6z
						 M48.7,2.9h0.6c0.1,0,0.3,0,0.4-0.1c0.1,0,0.2-0.1,0.3-0.1C50,2.6,50,2.6,50.1,2.5c0.1-0.1,0.1-0.2,0.1-0.3
						c0.1-0.2,0-0.4-0.1-0.5c-0.1-0.1-0.3-0.2-0.6-0.2H49L48.7,2.9z"/>
					<path id="_x31__3_" class="st2" d="M52.2,2.1c0.2,0,0.3,0,0.5,0.1c0.1,0.1,0.2,0.1,0.3,0.3c0.1,0.1,0.1,0.2,0.1,0.4
						c0,0.2,0,0.3-0.1,0.5c-0.1,0.2-0.1,0.4-0.2,0.5c-0.1,0.2-0.2,0.3-0.3,0.4c-0.1,0.1-0.3,0.2-0.4,0.3c-0.2,0.1-0.3,0.1-0.5,0.1
						s-0.3,0-0.5-0.1c-0.1-0.1-0.2-0.1-0.3-0.3c-0.1-0.1-0.1-0.2-0.1-0.4c0-0.2,0-0.3,0.1-0.5c0.1-0.2,0.1-0.4,0.2-0.5
						c0.1-0.2,0.2-0.3,0.3-0.4c0.1-0.1,0.3-0.2,0.4-0.3C51.8,2.1,52,2.1,52.2,2.1z M51.6,4.3c0.2,0,0.4-0.1,0.6-0.2
						c0.2-0.2,0.3-0.4,0.4-0.7c0.1-0.3,0.1-0.5,0-0.7c-0.1-0.2-0.2-0.2-0.5-0.2c-0.1,0-0.2,0-0.3,0.1c-0.1,0-0.2,0.1-0.3,0.2
						c-0.1,0.1-0.2,0.2-0.2,0.3c-0.1,0.1-0.1,0.2-0.2,0.4c0,0.1-0.1,0.3-0.1,0.4c0,0.1,0,0.2,0.1,0.3c0,0.1,0.1,0.1,0.2,0.2
						C51.4,4.3,51.5,4.3,51.6,4.3z"/>
					<path id="_x32__1_" class="st2" d="M53.6,2.1h0.3c0,0,0.1,0,0.1,0c0,0,0,0,0,0.1l0,1.6c0,0.1,0,0.1,0,0.2c0,0.1,0,0.1,0,0.2
						c0-0.1,0.1-0.1,0.1-0.2c0-0.1,0.1-0.1,0.1-0.2l1-1.6c0,0,0,0,0.1-0.1c0,0,0.1,0,0.1,0h0.2c0,0,0.1,0,0.1,0c0,0,0,0,0,0.1
						l0.1,1.6c0,0.1,0,0.1,0,0.2c0,0.1,0,0.1,0,0.2c0-0.1,0-0.1,0.1-0.2c0-0.1,0.1-0.1,0.1-0.2l0.9-1.6c0,0,0,0,0.1-0.1
						c0,0,0.1,0,0.1,0h0.3l-1.5,2.5h-0.3c0,0-0.1,0-0.1-0.1l-0.1-1.7c0,0,0-0.1,0-0.1c0,0,0-0.1,0-0.1c0,0,0,0.1-0.1,0.1
						c0,0,0,0.1-0.1,0.1l-1,1.7c0,0.1-0.1,0.1-0.1,0.1h-0.3L53.6,2.1z"/>
					<path id="_x33__1_" class="st2" d="M58.6,2.1c0.1,0,0.3,0,0.4,0.1c0.1,0,0.2,0.1,0.3,0.2c0.1,0.1,0.1,0.2,0.1,0.3
						c0,0.1,0,0.3,0,0.5c0,0.1,0,0.1-0.1,0.1c0,0-0.1,0-0.1,0h-1.6c0,0.2-0.1,0.3,0,0.4c0,0.1,0,0.2,0.1,0.3c0,0.1,0.1,0.1,0.2,0.2
						c0.1,0,0.2,0.1,0.3,0.1c0.1,0,0.2,0,0.3,0c0.1,0,0.2-0.1,0.2-0.1c0.1,0,0.1-0.1,0.2-0.1c0,0,0.1,0,0.1,0c0,0,0.1,0,0.1,0
						L59,4.2c-0.1,0.1-0.1,0.1-0.2,0.2c-0.1,0-0.2,0.1-0.3,0.1c-0.1,0-0.2,0.1-0.3,0.1c-0.1,0-0.2,0-0.3,0c-0.2,0-0.3,0-0.4-0.1
						c-0.1-0.1-0.2-0.1-0.3-0.3c-0.1-0.1-0.1-0.3-0.1-0.4c0-0.2,0-0.4,0.1-0.6c0-0.2,0.1-0.3,0.2-0.5c0.1-0.1,0.2-0.3,0.3-0.4
						c0.1-0.1,0.3-0.2,0.4-0.3C58.3,2.1,58.4,2.1,58.6,2.1z M58.6,2.4c-0.2,0-0.4,0.1-0.5,0.2c-0.2,0.1-0.3,0.3-0.4,0.5H59
						c0-0.1,0-0.2,0-0.3c0-0.1,0-0.2-0.1-0.2c0-0.1-0.1-0.1-0.2-0.1C58.7,2.4,58.7,2.4,58.6,2.4z"/>
					<path id="_x34__1_" class="st2" d="M59.5,4.6l0.7-2.5h0.2c0,0,0.1,0,0.1,0c0,0,0,0.1,0,0.1l-0.1,0.4c0.1-0.2,0.3-0.3,0.4-0.4
						c0.2-0.1,0.3-0.2,0.5-0.2c0.1,0,0.1,0,0.2,0c0.1,0,0.1,0,0.1,0.1l-0.1,0.3c0,0-0.1,0.1-0.1,0.1c0,0-0.1,0-0.1,0
						c0,0-0.1,0-0.2,0c-0.2,0-0.3,0-0.4,0.1c-0.1,0.1-0.2,0.2-0.4,0.4L60,4.6H59.5z"/>
					<path id="_x35__1_" class="st2" d="M63.2,2.1c0.1,0,0.3,0,0.4,0.1c0.1,0,0.2,0.1,0.3,0.2c0.1,0.1,0.1,0.2,0.1,0.3
						c0,0.1,0,0.3,0,0.5c0,0.1,0,0.1-0.1,0.1c0,0-0.1,0-0.1,0h-1.6c0,0.2-0.1,0.3,0,0.4c0,0.1,0,0.2,0.1,0.3c0,0.1,0.1,0.1,0.2,0.2
						c0.1,0,0.2,0.1,0.3,0.1c0.1,0,0.2,0,0.3,0c0.1,0,0.2-0.1,0.2-0.1c0.1,0,0.1-0.1,0.2-0.1c0,0,0.1,0,0.1,0c0,0,0.1,0,0.1,0
						l0.1,0.2c-0.1,0.1-0.1,0.1-0.2,0.2c-0.1,0-0.2,0.1-0.3,0.1c-0.1,0-0.2,0.1-0.3,0.1c-0.1,0-0.2,0-0.3,0c-0.2,0-0.3,0-0.4-0.1
						c-0.1-0.1-0.2-0.1-0.3-0.3c-0.1-0.1-0.1-0.3-0.1-0.4c0-0.2,0-0.4,0.1-0.6c0-0.2,0.1-0.3,0.2-0.5c0.1-0.1,0.2-0.3,0.3-0.4
						c0.1-0.1,0.3-0.2,0.4-0.3C62.8,2.1,63,2.1,63.2,2.1z M63.1,2.4c-0.2,0-0.4,0.1-0.5,0.2c-0.2,0.1-0.3,0.3-0.4,0.5h1.3
						c0-0.1,0-0.2,0-0.3c0-0.1,0-0.2-0.1-0.2c0-0.1-0.1-0.1-0.2-0.1C63.3,2.4,63.2,2.4,63.1,2.4z"/>
					<path id="_x36__1_" class="st2" d="M65.8,4.6C65.7,4.6,65.7,4.6,65.8,4.6l-0.1-0.4c-0.1,0.1-0.3,0.2-0.4,0.3
						c-0.2,0.1-0.3,0.1-0.5,0.1c-0.1,0-0.3,0-0.4-0.1c-0.1-0.1-0.2-0.1-0.2-0.2c-0.1-0.1-0.1-0.2-0.1-0.4c0-0.2,0-0.3,0.1-0.5
						c0-0.2,0.1-0.4,0.2-0.5c0.1-0.2,0.2-0.3,0.3-0.4c0.1-0.1,0.3-0.2,0.4-0.3c0.1-0.1,0.3-0.1,0.5-0.1c0.2,0,0.3,0,0.4,0.1
						c0.1,0.1,0.2,0.1,0.2,0.2L66.6,1H67l-1,3.6H65.8z M65,4.3c0.1,0,0.3,0,0.4-0.1c0.1-0.1,0.2-0.2,0.4-0.3l0.3-1.2
						c-0.1-0.1-0.1-0.2-0.2-0.2c-0.1,0-0.2-0.1-0.3-0.1c-0.2,0-0.4,0.1-0.6,0.2c-0.2,0.2-0.3,0.4-0.4,0.7c0,0.2-0.1,0.3-0.1,0.4
						c0,0.1,0,0.2,0,0.3c0,0.1,0.1,0.1,0.2,0.2C64.9,4.2,64.9,4.3,65,4.3z"/>
					<path id="_x37__1_" class="st2" d="M67.7,4.9l1-3.6h0.4l-0.4,1.5c0.1-0.1,0.3-0.2,0.4-0.3c0.2-0.1,0.3-0.1,0.5-0.1
						c0.1,0,0.3,0,0.4,0.1c0.1,0.1,0.2,0.1,0.2,0.2c0.1,0.1,0.1,0.2,0.1,0.4c0,0.2,0,0.3-0.1,0.5c0,0.2-0.1,0.4-0.2,0.5
						c-0.1,0.2-0.2,0.3-0.3,0.4c-0.1,0.1-0.3,0.2-0.4,0.3c-0.1,0.1-0.3,0.1-0.5,0.1c-0.2,0-0.3,0-0.4-0.1c-0.1-0.1-0.2-0.1-0.2-0.3
						l-0.1,0.2c0,0.1-0.1,0.1-0.1,0.1H67.7z M69.4,2.7c-0.1,0-0.3,0-0.4,0.1c-0.1,0.1-0.3,0.2-0.4,0.3l-0.3,1.2
						c0,0.1,0.1,0.2,0.2,0.2c0.1,0,0.2,0.1,0.3,0.1c0.2,0,0.4-0.1,0.6-0.2c0.2-0.2,0.3-0.4,0.4-0.7c0-0.2,0.1-0.3,0.1-0.4
						c0-0.1,0-0.2,0-0.3c0-0.1-0.1-0.1-0.2-0.2C69.6,2.8,69.5,2.7,69.4,2.7z"/>
					<path id="_x38__1_" class="st2" d="M70.9,5.3C70.9,5.3,70.9,5.4,70.9,5.3c-0.1,0.1-0.1,0.1-0.2,0.1h-0.3l0.7-1l-0.4-2.3h0.4
						c0,0,0.1,0,0.1,0c0,0,0,0,0,0.1l0.2,1.6c0,0,0,0.1,0,0.1c0,0,0,0.1,0,0.1c0,0,0-0.1,0.1-0.1c0,0,0-0.1,0.1-0.1l1.1-1.6
						c0,0,0,0,0.1-0.1c0,0,0.1,0,0.1,0h0.3L70.9,5.3z"/>
					<path id="_x39__1_" class="st2" d="M72.9,4.3c0,0,0-0.1,0.1-0.1c0,0,0.1-0.1,0.1-0.1c0,0,0.1,0,0.1-0.1c0,0,0.1,0,0.1,0
						c0,0,0.1,0,0.1,0c0,0,0.1,0,0.1,0.1c0,0,0,0.1,0,0.1c0,0,0,0.1,0,0.1c0,0,0,0.1-0.1,0.1c0,0-0.1,0.1-0.1,0.1c0,0-0.1,0-0.1,0.1
						c0,0-0.1,0-0.1,0c0,0-0.1,0-0.1,0c0,0-0.1,0-0.1-0.1c0,0,0-0.1,0-0.1C72.9,4.4,72.9,4.4,72.9,4.3z M73.4,2.5c0,0,0-0.1,0.1-0.1
						c0,0,0.1-0.1,0.1-0.1c0,0,0.1-0.1,0.1-0.1c0,0,0.1,0,0.1,0c0,0,0.1,0,0.1,0c0,0,0.1,0,0.1,0.1c0,0,0,0.1,0,0.1c0,0,0,0.1,0,0.1
						c0,0,0,0.1-0.1,0.1c0,0-0.1,0.1-0.1,0.1c0,0-0.1,0-0.1,0.1c0,0-0.1,0-0.1,0s-0.1,0-0.1,0c0,0-0.1,0-0.1-0.1c0,0,0-0.1,0-0.1
						C73.4,2.6,73.4,2.5,73.4,2.5z"/>
				</g>
			</g>
			<g>
				<path class="st2" d="M78.4,16.3l-0.1,0.4h-1.8l-0.3,1.2h1.4l-0.1,0.4h-1.4l-0.3,1.3h1.8L77.4,20h-2.3l1-3.7H78.4z M78.4,18.3
					h1.3l-0.1,0.4h-1.3L78.4,18.3z M80.6,19.6h1.6L82.1,20H80l1-3.7h0.5L80.6,19.6z M84.2,17.4c0.2,0,0.3,0,0.4,0.1
					c0.1,0.1,0.2,0.1,0.3,0.2C85,17.8,85,17.9,85,18c0,0.1,0,0.3-0.1,0.5c0,0.1,0,0.1-0.1,0.1c0,0-0.1,0-0.1,0h-1.7
					c0,0.2-0.1,0.3,0,0.4c0,0.1,0,0.2,0.1,0.3c0,0.1,0.1,0.1,0.2,0.2c0.1,0,0.2,0.1,0.3,0.1c0.1,0,0.2,0,0.3,0
					c0.1,0,0.2-0.1,0.2-0.1c0.1,0,0.1-0.1,0.2-0.1c0,0,0.1,0,0.1,0c0,0,0.1,0,0.1,0l0.1,0.2c-0.1,0.1-0.2,0.1-0.3,0.2
					c-0.1,0-0.2,0.1-0.3,0.1C84,20,83.9,20,83.8,20c-0.1,0-0.2,0-0.3,0c-0.2,0-0.3,0-0.5-0.1c-0.1-0.1-0.2-0.2-0.3-0.3
					c-0.1-0.1-0.1-0.3-0.1-0.4c0-0.2,0-0.4,0.1-0.6c0-0.2,0.1-0.4,0.2-0.5c0.1-0.2,0.2-0.3,0.4-0.4c0.1-0.1,0.3-0.2,0.5-0.3
					C83.8,17.4,84,17.4,84.2,17.4z M84.1,17.7c-0.2,0-0.4,0.1-0.6,0.2c-0.2,0.1-0.3,0.3-0.4,0.5h1.4c0-0.1,0-0.2,0-0.3
					c0-0.1,0-0.2-0.1-0.2c0-0.1-0.1-0.1-0.2-0.1C84.3,17.7,84.2,17.7,84.1,17.7z M87.1,20h-0.2c0,0-0.1,0-0.1,0c0,0,0,0,0-0.1l0-0.2
					c-0.1,0.1-0.2,0.1-0.2,0.2c-0.1,0-0.2,0.1-0.2,0.1C86.2,20,86.1,20,86,20c-0.1,0-0.2,0-0.3,0c-0.1,0-0.2,0-0.3,0
					c-0.1,0-0.1-0.1-0.2-0.1c0-0.1-0.1-0.1-0.1-0.2c0-0.1,0-0.2,0-0.3c0-0.1,0.1-0.2,0.2-0.3c0.1-0.1,0.2-0.2,0.3-0.3
					c0.1-0.1,0.3-0.1,0.5-0.2c0.2,0,0.5-0.1,0.8-0.1l0.1-0.2c0.1-0.2,0.1-0.4,0-0.5c-0.1-0.1-0.2-0.2-0.3-0.2c-0.1,0-0.2,0-0.3,0
					c-0.1,0-0.2,0.1-0.2,0.1c-0.1,0-0.1,0.1-0.2,0.1c0,0-0.1,0-0.1,0c0,0-0.1,0-0.1,0c0,0,0,0,0-0.1l0-0.1c0.2-0.1,0.4-0.2,0.6-0.3
					c0.2-0.1,0.4-0.1,0.6-0.1c0.1,0,0.3,0,0.4,0.1c0.1,0,0.2,0.1,0.2,0.2c0.1,0.1,0.1,0.2,0.1,0.3c0,0.1,0,0.3,0,0.4L87.1,20z
					 M86,19.7c0.1,0,0.2,0,0.2,0c0.1,0,0.1,0,0.2-0.1c0.1,0,0.1-0.1,0.2-0.1c0.1,0,0.1-0.1,0.2-0.1l0.1-0.5c-0.2,0-0.4,0-0.5,0
					c-0.2,0-0.3,0.1-0.4,0.1c-0.1,0-0.2,0.1-0.2,0.2c-0.1,0.1-0.1,0.1-0.1,0.2c0,0.1,0,0.1,0,0.2c0,0,0,0.1,0.1,0.1
					c0,0,0.1,0.1,0.1,0.1C85.8,19.7,85.9,19.7,86,19.7z M87.8,20l0.7-2.6h0.3c0.1,0,0.1,0,0.1,0c0,0,0,0.1,0,0.1L88.7,18
					c0.1-0.2,0.3-0.3,0.5-0.5c0.2-0.1,0.3-0.2,0.5-0.2c0.1,0,0.1,0,0.2,0c0.1,0,0.1,0,0.1,0.1l-0.2,0.3c0,0-0.1,0.1-0.1,0.1
					c0,0-0.1,0-0.1,0c0,0-0.1,0-0.2,0c-0.2,0-0.3,0-0.4,0.1c-0.1,0.1-0.3,0.2-0.4,0.4L88.2,20H87.8z M89.8,20l0.7-2.6h0.3
					c0.1,0,0.1,0,0.1,0.1l0,0.3c0.1-0.1,0.3-0.2,0.5-0.3c0.2-0.1,0.3-0.1,0.5-0.1c0.1,0,0.3,0,0.4,0.1c0.1,0,0.2,0.1,0.2,0.2
					c0,0.1,0.1,0.2,0.1,0.3c0,0.1,0,0.3-0.1,0.4L92,20h-0.5l0.4-1.7c0.1-0.2,0-0.4,0-0.5c-0.1-0.1-0.2-0.2-0.4-0.2
					c-0.1,0-0.3,0-0.4,0.1c-0.1,0.1-0.3,0.2-0.4,0.3L90.3,20H89.8z M93.9,17.4L93.2,20h-0.5l0.7-2.6H93.9z M94.3,16.6
					c0,0,0,0.1-0.1,0.1c0,0-0.1,0.1-0.1,0.1c0,0-0.1,0.1-0.1,0.1c0,0-0.1,0-0.1,0c0,0-0.1,0-0.1,0c0,0-0.1,0-0.1-0.1
					c0,0,0-0.1,0-0.1c0,0,0-0.1,0-0.1c0,0,0-0.1,0.1-0.1c0,0,0.1-0.1,0.1-0.1c0,0,0.1-0.1,0.1-0.1c0,0,0.1,0,0.1,0c0,0,0.1,0,0.1,0
					c0,0,0.1,0,0.1,0.1c0,0,0,0.1,0,0.1C94.3,16.5,94.3,16.5,94.3,16.6z M94,20l0.7-2.6H95c0.1,0,0.1,0,0.1,0.1l0,0.3
					c0.1-0.1,0.3-0.2,0.5-0.3c0.2-0.1,0.3-0.1,0.5-0.1c0.1,0,0.3,0,0.4,0.1c0.1,0,0.2,0.1,0.2,0.2c0,0.1,0.1,0.2,0.1,0.3
					c0,0.1,0,0.3-0.1,0.4L96.2,20h-0.5l0.4-1.7c0.1-0.2,0-0.4,0-0.5c-0.1-0.1-0.2-0.2-0.4-0.2c-0.1,0-0.3,0-0.4,0.1
					c-0.1,0.1-0.3,0.2-0.4,0.3L94.5,20H94z M98.5,17.4c0.1,0,0.2,0,0.3,0c0.1,0,0.2,0.1,0.2,0.1h0.7l0,0.2c0,0.1-0.1,0.1-0.1,0.1
					l-0.3,0c0,0.1,0,0.2,0,0.4c0,0.1-0.1,0.2-0.2,0.3c-0.1,0.1-0.2,0.2-0.3,0.3c-0.1,0.1-0.2,0.1-0.4,0.2C98.3,19,98.2,19,98,19
					c-0.1,0-0.2,0-0.3,0c-0.1,0-0.1,0.1-0.2,0.1c0,0-0.1,0.1-0.1,0.1c0,0.1,0,0.1,0,0.1s0.1,0.1,0.2,0.1c0.1,0,0.2,0,0.3,0
					c0.1,0,0.2,0,0.3,0c0.1,0,0.2,0,0.3,0c0.1,0,0.2,0.1,0.3,0.1c0.1,0,0.1,0.1,0.1,0.2c0,0.1,0,0.2,0,0.3c0,0.1-0.1,0.2-0.2,0.3
					c-0.1,0.1-0.2,0.2-0.3,0.3c-0.1,0.1-0.3,0.1-0.4,0.2c-0.2,0-0.3,0.1-0.5,0.1c-0.2,0-0.4,0-0.5-0.1c-0.1,0-0.2-0.1-0.3-0.2
					c-0.1-0.1-0.1-0.1-0.2-0.2c0-0.1,0-0.2,0-0.3c0-0.1,0.1-0.2,0.2-0.3s0.2-0.2,0.4-0.2c-0.1,0-0.1-0.1-0.1-0.1c0-0.1,0-0.1,0-0.2
					c0,0,0-0.1,0.1-0.1c0,0,0.1-0.1,0.1-0.1c0,0,0.1-0.1,0.1-0.1c0.1,0,0.1-0.1,0.2-0.1c-0.1-0.1-0.2-0.2-0.2-0.3c0-0.1,0-0.3,0-0.4
					c0-0.1,0.1-0.2,0.2-0.3c0.1-0.1,0.2-0.2,0.3-0.3c0.1-0.1,0.2-0.1,0.4-0.2C98.2,17.4,98.4,17.4,98.5,17.4z M98.6,20.1
					c0-0.1,0-0.1,0-0.2c0,0-0.1-0.1-0.1-0.1c-0.1,0-0.1,0-0.2,0c-0.1,0-0.2,0-0.3,0c-0.1,0-0.2,0-0.3,0c-0.1,0-0.2,0-0.3,0
					c-0.1,0-0.2,0.1-0.3,0.2C97.1,20,97,20.1,97,20.2c0,0.1,0,0.1,0,0.2c0,0.1,0,0.1,0.1,0.1c0.1,0,0.1,0.1,0.2,0.1
					c0.1,0,0.2,0,0.3,0c0.1,0,0.2,0,0.3,0c0.1,0,0.2-0.1,0.3-0.1c0.1,0,0.1-0.1,0.2-0.1C98.5,20.3,98.5,20.2,98.6,20.1z M98.1,18.7
					c0.1,0,0.2,0,0.3,0s0.1-0.1,0.2-0.1c0.1,0,0.1-0.1,0.2-0.2c0-0.1,0.1-0.1,0.1-0.2c0-0.2,0-0.3,0-0.4c-0.1-0.1-0.2-0.1-0.4-0.1
					c-0.2,0-0.3,0-0.5,0.1c-0.1,0.1-0.2,0.2-0.3,0.4c0,0.1,0,0.1,0,0.2c0,0.1,0,0.1,0.1,0.2c0,0,0.1,0.1,0.1,0.1
					C98,18.7,98,18.7,98.1,18.7z M104.1,16.3l-0.1,0.4h-1.2l-0.9,3.3h-0.5l0.9-3.3h-1.2l0.1-0.4H104.1z M104.8,17.4
					c0.2,0,0.3,0,0.4,0.1c0.1,0.1,0.2,0.1,0.3,0.2c0.1,0.1,0.1,0.2,0.1,0.4c0,0.1,0,0.3-0.1,0.5c0,0.1,0,0.1-0.1,0.1
					c0,0-0.1,0-0.1,0h-1.7c0,0.2-0.1,0.3,0,0.4c0,0.1,0,0.2,0.1,0.3c0.1,0.1,0.1,0.1,0.2,0.2c0.1,0,0.2,0.1,0.3,0.1
					c0.1,0,0.2,0,0.3,0c0.1,0,0.2-0.1,0.2-0.1c0.1,0,0.1-0.1,0.2-0.1c0,0,0.1,0,0.1,0c0,0,0.1,0,0.1,0l0.1,0.2
					c-0.1,0.1-0.2,0.1-0.3,0.2c-0.1,0-0.2,0.1-0.3,0.1c-0.1,0-0.2,0.1-0.3,0.1c-0.1,0-0.2,0-0.3,0c-0.2,0-0.3,0-0.5-0.1
					s-0.2-0.2-0.3-0.3c-0.1-0.1-0.1-0.3-0.1-0.4c0-0.2,0-0.4,0.1-0.6c0-0.2,0.1-0.4,0.2-0.5c0.1-0.2,0.2-0.3,0.4-0.4
					c0.1-0.1,0.3-0.2,0.5-0.3C104.4,17.4,104.6,17.4,104.8,17.4z M104.7,17.7c-0.2,0-0.4,0.1-0.6,0.2c-0.2,0.1-0.3,0.3-0.4,0.5h1.4
					c0-0.1,0-0.2,0-0.3c0-0.1,0-0.2-0.1-0.2c0-0.1-0.1-0.1-0.2-0.1C104.9,17.7,104.8,17.7,104.7,17.7z M107.7,20h-0.2
					c0,0-0.1,0-0.1,0c0,0,0,0,0-0.1l0-0.2c-0.1,0.1-0.2,0.1-0.2,0.2c-0.1,0-0.2,0.1-0.2,0.1c-0.1,0-0.2,0.1-0.3,0.1
					c-0.1,0-0.2,0-0.3,0c-0.1,0-0.2,0-0.3,0c-0.1,0-0.1-0.1-0.2-0.1c0-0.1-0.1-0.1-0.1-0.2c0-0.1,0-0.2,0-0.3c0-0.1,0.1-0.2,0.2-0.3
					c0.1-0.1,0.2-0.2,0.3-0.3c0.1-0.1,0.3-0.1,0.5-0.2c0.2,0,0.5-0.1,0.8-0.1l0.1-0.2c0.1-0.2,0.1-0.4,0-0.5
					c-0.1-0.1-0.2-0.2-0.3-0.2c-0.1,0-0.2,0-0.3,0c-0.1,0-0.2,0.1-0.2,0.1c-0.1,0-0.1,0.1-0.2,0.1c0,0-0.1,0-0.1,0c0,0-0.1,0-0.1,0
					c0,0,0,0,0-0.1l0-0.1c0.2-0.1,0.4-0.2,0.6-0.3c0.2-0.1,0.4-0.1,0.6-0.1c0.1,0,0.3,0,0.4,0.1c0.1,0,0.2,0.1,0.2,0.2
					c0.1,0.1,0.1,0.2,0.1,0.3c0,0.1,0,0.3,0,0.4L107.7,20z M106.6,19.7c0.1,0,0.2,0,0.2,0c0.1,0,0.1,0,0.2-0.1
					c0.1,0,0.1-0.1,0.2-0.1c0.1,0,0.1-0.1,0.2-0.1l0.1-0.5c-0.2,0-0.4,0-0.6,0c-0.2,0-0.3,0.1-0.4,0.1c-0.1,0-0.2,0.1-0.2,0.2
					c-0.1,0.1-0.1,0.1-0.1,0.2c0,0.1,0,0.1,0,0.2c0,0,0,0.1,0.1,0.1c0,0,0.1,0.1,0.1,0.1S106.5,19.7,106.6,19.7z M108.4,20l0.7-2.6
					h0.3c0.1,0,0.1,0,0.1,0.1l0,0.3c0.1-0.1,0.3-0.2,0.4-0.3c0.1-0.1,0.3-0.1,0.4-0.1c0.2,0,0.3,0,0.4,0.1c0.1,0.1,0.1,0.2,0.1,0.4
					c0.1-0.1,0.1-0.2,0.2-0.2c0.1-0.1,0.2-0.1,0.2-0.2c0.1,0,0.2-0.1,0.3-0.1c0.1,0,0.2,0,0.3,0c0.1,0,0.3,0,0.4,0.1
					c0.1,0,0.2,0.1,0.2,0.2c0.1,0.1,0.1,0.2,0.1,0.3c0,0.1,0,0.3-0.1,0.4l-0.4,1.7h-0.5l0.4-1.7c0.1-0.2,0.1-0.4,0-0.5
					c-0.1-0.1-0.2-0.2-0.3-0.2c-0.1,0-0.1,0-0.2,0c-0.1,0-0.1,0.1-0.2,0.1c-0.1,0.1-0.1,0.1-0.2,0.2c-0.1,0.1-0.1,0.2-0.1,0.3
					l-0.4,1.7h-0.5l0.4-1.7c0.1-0.2,0.1-0.4,0-0.5c-0.1-0.1-0.2-0.2-0.3-0.2c-0.1,0-0.2,0-0.3,0.1c-0.1,0.1-0.2,0.1-0.3,0.3
					l-0.5,1.9H108.4z"/>
			</g>
		</g>
	</g>
	<g>
		<g class="st3">
			<path class="st4" d="M25.7,17.4c-0.1,0.1-0.1,0.1-0.2,0.3l-0.5,0.9c0.1,0.1,0.2,0.1,0.3,0.2c0.1,0.1,0.1,0.1,0.3,0.2
				c-0.3,0.6-0.6,1.1-1,1.7c0.5,0.3,0.9,0.6,1.4,0.8l2.9,1.7c0.5,0.3,1,0.5,1.5,0.8c0.1-0.1,0.1-0.3,0.2-0.4
				c0.1-0.1,0.3-0.5,0.4-0.7c0.1-0.1,0.1-0.1,0.1-0.2c0.1-0.2,0.1-0.3,0.2-0.5c0.1,0.1,0.4,0.2,0.6,0.3c0.3-0.6,0.7-1.1,1-1.7
				c0.2,0.1,0.3,0.2,0.5,0.3c0.1,0,0.1,0,0.1,0c0.1-0.2,0.3-0.5,0.4-0.7c0.3-0.4,0.5-0.9,0.8-1.3l1.1-1.9c-0.2-0.1-0.5-0.2-0.6-0.3
				l-2.3,4l-0.6-0.3l-1,1.7l-0.6-0.3L30.2,23l-4.6-2.7c0.1-0.2,0.6-1,0.6-1.2l-0.6-0.3c0.2-0.3,0.3-0.6,0.5-0.9
				c0.2-0.3,0.2-0.2,0-0.4C26,17.5,25.9,17.4,25.7,17.4z"/>
			<path class="st4" d="M27.5,13l-0.3,0.6l0.6,0.3l-0.3,0.6l0.6,0.3l3.6-6.3l-0.6-0.3c0,0,0,0,0,0l0,0c0,0,0,0,0,0l-2.9,5.1
				C27.9,13.2,27.7,13.1,27.5,13z"/>
			<path class="st4" d="M32.8,9.2l-3,5.2l0.6,0.3l1.3-2.3c0.1,0,1.1,0.6,1.2,0.7c0.1,0.1,1.2,0.7,1.5,0.9c0,0,0,0-0.1-0.1l-1.1-0.7
				c-0.3-0.2-0.3,0,0.1-0.7L32.3,12c-0.1-0.1-0.1-0.1-0.3-0.2l1.3-2.3c-0.1-0.1-0.2-0.2-0.4-0.3C32.9,9.2,32.9,9.2,32.8,9.2z"/>
			<path class="st4" d="M34.3,14.6l0.3-0.6c-0.1-0.1-0.2-0.1-0.3-0.1c-0.2-0.1-1.3-0.7-1.5-0.9l-1.3,2.3l0.6,0.3l1-1.7L34.3,14.6z"
				/>
			<path class="st4" d="M25.7,13.5c0,0.1-0.1,0.1-0.2,0.3c-0.1,0.1-0.1,0.2-0.2,0.3l0.5,0.3c-0.1,0.2-0.5,1-0.6,1.2l0.6,0.3
				l-0.5,0.9c-0.1,0.1-0.1,0.2-0.1,0.3l0.6,0.3c0.2-0.3,0.5-0.8,0.7-1.2l-0.6-0.3l0.7-1.1l-0.6-0.3l0.3-0.6
				C26.1,13.7,25.9,13.6,25.7,13.5z"/>
			<path class="st4" d="M25.7,13.5l0.7-1.1l1.1,0.7l0.2-0.3c0-0.1,0.1-0.2,0.2-0.3l-1.5-0.9c-0.2-0.1-0.2-0.2-0.4,0.2L25.2,13
				c-0.1,0.1-0.1,0.2,0,0.2C25.3,13.3,25.6,13.5,25.7,13.5z"/>
			<path class="st4" d="M35.1,15.8C35.1,15.8,35.1,15.9,35.1,15.8c0.1-0.1,0.1-0.1,0.1-0.1c0-0.1,0.2-0.3,0.2-0.4l-1.2-0.7l-1.3,2.3
				l0.6,0.3l1-1.7C34.6,15.6,35,15.8,35.1,15.8z"/>
			<path class="st4" d="M32.8,9.1c0.1-0.2,0.2-0.4,0.3-0.6L32,7.9l-0.3,0.6L32.8,9.1z"/>
			<path class="st4" d="M35.1,15.8c0,0.1-0.3,0.4-0.3,0.6c0,0.1,0.5,0.3,0.5,0.4c0.1,0.1,0.4,0.3,0.6,0.3l-1.1,1.9l1.1-2l-0.6-0.3
				c0.1-0.1,0.1-0.2,0.1-0.3c0.1-0.1,0.1-0.2,0.2-0.3c-0.6-0.4-0.6-0.3-0.5-0.5C35.2,15.7,35.1,15.8,35.1,15.8
				C35.1,15.9,35.1,15.8,35.1,15.8z"/>
			<path class="st4" d="M31.1,8.2l0.6,0.3L28,14.8l-0.6-0.3l0,0c0,0,0.4,0.3,0.6,0.3l3.7-6.3l1.1,0.7c-1,1.6-1.9,3.4-2.9,5
				c0,0.1-0.1,0.1-0.1,0.2l3-5.2l0,0l-1.2-0.7L32,7.9c-0.1,0.1-0.3,0.4-0.3,0.6L31.1,8.2C31.1,8.2,31.1,8.2,31.1,8.2z"/>
			<path class="st4" d="M29.9,14.2c1-1.6,2-3.4,2.9-5"/>
		</g>
		<g id="_1849662416_1_">
			<path class="st5" d="M27.4,14.5l0.3-0.6l-0.6-0.3l0.3-0.6l-1.1-0.7l-0.7,1.1l0,0c0.2,0.1,0.4,0.2,0.6,0.3l-0.3,0.6l0.6,0.3
				l-0.7,1.1l0.6,0.3c-0.2,0.4-0.5,0.8-0.7,1.2l0,0c0.1,0.1,0.3,0.1,0.4,0.2c0.2,0.1,0.2,0.1,0,0.4c-0.2,0.3-0.3,0.6-0.5,0.9
				l0.6,0.3c0,0.1-0.5,0.9-0.6,1.2l4.6,2.7l0.7-1.1l0.6,0.3l1-1.7l0.6,0.3l2.3-4c-0.1-0.1-0.5-0.3-0.5-0.4c0-0.1,0.3-0.4,0.3-0.6
				c-0.1-0.1-0.4-0.3-0.5-0.3l-1,1.7l-0.6-0.3l1.3-2.3l-1.2-0.7l-1,1.7l-0.6-0.3l1.3-2.3c-0.1-0.1-1-0.6-1.2-0.7l-1.3,2.3l-0.6-0.3
				c0-0.1,0-0.1,0.1-0.2c1-1.6,2-3.4,2.9-5l-1.1-0.7L28,14.8C27.8,14.8,27.4,14.5,27.4,14.5L27.4,14.5z"/>
		</g>
	</g>
</g>
</svg>
