<?xml version="1.0" encoding="utf-8"?>
<!-- Generator: Adobe Illustrator 21.0.0, SVG Export Plug-In . SVG Version: 6.00 Build 0)  -->
<svg version="1.1" id="Layer_1" xmlns="http://www.w3.org/2000/svg" xmlns:xlink="http://www.w3.org/1999/xlink" x="0px" y="0px"
	 viewBox="0 0 62.1 63.4" style="enable-background:new 0 0 62.1 63.4;" xml:space="preserve">
<style type="text/css">
	.st0{opacity:0.16;fill:url(#SVGID_1_);}
	.st1{fill:#663700;}
	.st2{opacity:0.2;}
	.st3{fill:#A7600C;}
	.st4{fill:#876500;}
	.st5{fill:#ED1849;}
	.st6{opacity:0.3;fill:#FFFFFF;}
	.st7{fill:#FFD200;}
	.st8{display:none;}
	.st9{display:inline;opacity:0.31;fill:url(#SVGID_2_);}
	.st10{display:inline;}
	.st11{fill:url(#SVGID_3_);}
	.st12{fill:url(#SVGID_4_);}
	.st13{fill:url(#SVGID_5_);}
	.st14{fill:url(#SVGID_6_);}
	.st15{fill:url(#SVGID_7_);}
</style>
<g>
	
		<radialGradient id="SVGID_1_" cx="-790.8668" cy="60.7609" r="28.0298" fx="-818.412" fy="60.951" gradientTransform="matrix(-1.0649 0 0 8.888862e-02 -811.1675 55.36)" gradientUnits="userSpaceOnUse">
		<stop  offset="0.3738" style="stop-color:#603813"/>
		<stop  offset="0.9951" style="stop-color:#FFFFFF;stop-opacity:0"/>
	</radialGradient>
	<ellipse class="st0" cx="31" cy="60.8" rx="31" ry="2.6"/>
	<g>
		<path class="st1" d="M51.6,43c0,0,8.2,0.2,9.3,7.3c1,7.1-1,10.4-1,10.4s-1.9-3.8-6.4-5.2c-4.5-1.4-6.3-5.1-6.2-8.2
			C47.2,47.4,49.1,42.7,51.6,43z"/>
		<path class="st2" d="M60.8,50.4c-1-7.1-9.3-7.3-9.3-7.3c-2.5-0.4-4.3,4.4-4.3,4.4c0,1.1,0.2,2.4,0.7,3.5c0,0-0.3-4,3.7-4.5
			c4-0.4,10.7,2.1,8.2,14.3C59.8,60.8,61.9,57.5,60.8,50.4z"/>
		<path class="st3" d="M50,51.3c0,0,0.7,2,3.5,3.1c2.8,1.1,4.2,2.4,5,3.3c0,0-1.4-2.3-3.7-3.6C52.4,52.9,51,52.4,50,51.3z"/>
		<path class="st4" d="M53.4,48.2c0,0,5.3,3.7,5.9,8.1C59.3,56.3,60.2,50.6,53.4,48.2z"/>
		<g>
			<path class="st5" d="M49.1,41.1c0,0-15.5-22.5-22.4-30.1C19.9,3.4,8-4.3,6.8,2.8C5.6,10,14,19.7,23.4,27.9
				c9.5,8.1,21.9,17,21.9,17S47.9,44.4,49.1,41.1z"/>
			<path class="st6" d="M21.3,20.5c6.9,7.2,12.3,13.2,12.1,13.3c-0.2,0.2-7.2-4.7-14.1-11.8C12.4,14.9,8.2,8.1,8.4,7.9
				C8.6,7.7,14.4,13.4,21.3,20.5z"/>
		</g>
		<path class="st7" d="M51.9,43c0,0-3.4,0.7-4.6,5c0,0-1.7-2.1-1.9-3.1c0,0,1.2-3,3.7-3.8L51.9,43z"/>
		<path class="st2" d="M6.8,2.8c0,0.3-0.1,0.5-0.1,0.8c0,0,2.7-3.8,12.8,4.3C29.6,16,46.9,39.8,46.9,42.5c0,0,1.6-0.5,3.4,1.3l0,0
			c0.9-0.6,1.6-0.7,1.6-0.7l-2.8-1.9c0,0-15.5-22.5-22.4-30.1C19.9,3.4,8-4.3,6.8,2.8z"/>
	</g>
</g>
<g class="st8">
	
		<radialGradient id="SVGID_2_" cx="13.6361" cy="557.5819" r="18.8602" fx="6.2451" fy="560.4128" gradientTransform="matrix(-1.0255 0 0 0.2574 53.6032 -87.0562)" gradientUnits="userSpaceOnUse">
		<stop  offset="0.3738" style="stop-color:#603813"/>
		<stop  offset="0.4323" style="stop-color:#643E1A;stop-opacity:0.9058"/>
		<stop  offset="0.5153" style="stop-color:#714D2C;stop-opacity:0.7722"/>
		<stop  offset="0.6131" style="stop-color:#86674B;stop-opacity:0.6148"/>
		<stop  offset="0.7221" style="stop-color:#A28B75;stop-opacity:0.4394"/>
		<stop  offset="0.8403" style="stop-color:#C7B9AC;stop-opacity:0.2491"/>
		<stop  offset="0.9646" style="stop-color:#F3F0EE;stop-opacity:4.905480e-02"/>
		<stop  offset="0.9951" style="stop-color:#FFFFFF;stop-opacity:0"/>
	</radialGradient>
	<ellipse class="st9" cx="39.6" cy="56.5" rx="20.1" ry="5.1"/>
	<g class="st10">
		
			<linearGradient id="SVGID_3_" gradientUnits="userSpaceOnUse" x1="39.7984" y1="37.759" x2="57.7998" y2="23.1432" gradientTransform="matrix(-1 0 0 1 68.3764 0)">
			<stop  offset="0" style="stop-color:#487FB9"/>
			<stop  offset="1" style="stop-color:#29649C"/>
		</linearGradient>
		<path class="st11" d="M35.1,31.7L19.6,21.5c-2.8-1.8-8.8-4.4-10.5-1.9c0,0-8,9,4.9,17.5l12.2,8.1l-0.4-6.5L35.1,31.7z"/>
		
			<linearGradient id="SVGID_4_" gradientUnits="userSpaceOnUse" x1="42.2734" y1="31.8371" x2="15.7668" y2="51.1597" gradientTransform="matrix(-1 0 0 1 68.3764 0)">
			<stop  offset="0" style="stop-color:#E85E7A"/>
			<stop  offset="0.7957" style="stop-color:#D2366B"/>
			<stop  offset="1" style="stop-color:#A82743"/>
		</linearGradient>
		<path class="st12" d="M37.2,27.4c4.9,4.2,8.9,5.8,12.5,8.4c5.6,4.9,10.2,7.9,0.4,18.4c-2.1,2.3-4.9,3.5-11.3-0.8l-12.5-8.2
			l-0.7-10C25.5,35.2,34.2,25.5,37.2,27.4z"/>
		
			<linearGradient id="SVGID_5_" gradientUnits="userSpaceOnUse" x1="-23.3644" y1="87.1973" x2="-23.3644" y2="103.4864" gradientTransform="matrix(-0.8342 -0.5514 -0.5514 0.8342 56.1956 -65.0382)">
			<stop  offset="0" style="stop-color:#77AEFF"/>
			<stop  offset="0.8925" style="stop-color:#77AEFF"/>
			<stop  offset="1" style="stop-color:#5E93E8"/>
		</linearGradient>
		<path class="st13" d="M34.7,25.7L19.1,15.4c-2.8-1.9-6.5-1.3-8.2,1.3l-2.7,4.1c-1.7,2.6-0.8,6.2,2,8l15.6,10.3L36,37L34.7,25.7z"
			/>
		
			<linearGradient id="SVGID_6_" gradientUnits="userSpaceOnUse" x1="-43.4033" y1="87.3622" x2="-43.4033" y2="104.1389" gradientTransform="matrix(-0.8342 -0.5514 -0.5514 0.8342 56.1956 -65.0382)">
			<stop  offset="0" style="stop-color:#FF7795"/>
			<stop  offset="0.8925" style="stop-color:#FF7795"/>
			<stop  offset="1" style="stop-color:#E85E7A"/>
		</linearGradient>
		<path class="st14" d="M34.7,25.7l13.8,9.2c2.8,1.9,3.7,5.4,2,8l-2.7,4.1c-1.7,2.6-5.4,3.2-8.2,1.3l-13.8-9.2c0,0,2.5-1.9,5.3-6.1
			C33.9,28.7,34.7,25.7,34.7,25.7z"/>
		<g>
			<g>
				
					<linearGradient id="SVGID_7_" gradientUnits="userSpaceOnUse" x1="-33.7136" y1="86.9515" x2="-33.9337" y2="104.0176" gradientTransform="matrix(-0.8342 -0.5514 -0.5514 0.8342 56.1956 -65.0382)">
					<stop  offset="0" style="stop-color:#FFFFFF"/>
					<stop  offset="0.9301" style="stop-color:#E8E8E8"/>
					<stop  offset="1" style="stop-color:#969696"/>
				</linearGradient>
				<path class="st15" d="M25.4,44.7l1.6,1l-0.5-6.2c0.8-0.7,3-2.7,5.3-6.1c2.8-4.3,3.5-7.2,3.6-7.3L34,25.2c0,0-0.8,3.3-3.5,7.3
					c-2.7,4.1-5.4,6.1-5.4,6.1L25.4,44.7z"/>
			</g>
		</g>
	</g>
</g>
</svg>
