<?xml version="1.0" encoding="utf-8"?>
<!-- Generator: Adobe Illustrator 21.0.0, SVG Export Plug-In . SVG Version: 6.00 Build 0)  -->
<svg version="1.1" id="Layer_1" xmlns="http://www.w3.org/2000/svg" xmlns:xlink="http://www.w3.org/1999/xlink" x="0px" y="0px"
	 viewBox="0 0 164.4 167.7" style="enable-background:new 0 0 164.4 167.7;" xml:space="preserve">
<style type="text/css">
	.st0{fill:#9EC0DF;}
	.st1{font-family:'ArialMT';}
	.st2{font-size:17px;}
</style>
<g>
	<g>
		<g>
			<path class="st0" d="M160.9,167.7H3.5c-1.9,0-3.5-1.6-3.5-3.5V3.5C0,1.6,1.6,0,3.5,0h157.4c1.9,0,3.5,1.6,3.5,3.5v160.7
				C164.4,166.1,162.9,167.7,160.9,167.7z M3.5,1C2.1,1,1,2.1,1,3.5v160.7c0,1.4,1.1,2.5,2.5,2.5h157.4c1.4,0,2.5-1.1,2.5-2.5V3.5
				c0-1.4-1.1-2.5-2.5-2.5H3.5z"/>
			<text transform="matrix(1 0 0 1 44.1078 135.811)" class="st0 st1 st2">Click Map</text>
		</g>
	</g>
	<path class="st0" d="M121.2,92.3H39.8V33.2h81.3V92.3z M41.8,90.3h77.3V35.2H41.8V90.3z"/>
	<g>
		<g>
			<path class="st0" d="M57.8,77.8L52,75.9l1.9,5.8l1.4-1.4l4.1,4.1l1.2-1.2l-4.1-4.1L57.8,77.8z"/>
			<g>
				<path class="st0" d="M54.7,84.7c-3.5,0-6.4-2.9-6.4-6.4s2.9-6.4,6.4-6.4s6.4,2.9,6.4,6.4c0,1.5-0.5,2.9-1.4,3.9l0.8,0.9
					c1.1-1.3,1.7-3,1.7-4.8c0-4.2-3.4-7.6-7.6-7.6s-7.6,3.4-7.6,7.6c0,4.2,3.4,7.6,7.6,7.6c1.6,0,3.1-0.5,4.3-1.4l-0.8-0.9
					C57.2,84.3,56,84.7,54.7,84.7z"/>
				<path class="st0" d="M54.7,82.3c-2.2,0-4-1.8-4-4c0-2.2,1.8-4,4-4c2.2,0,4,1.8,4,4c0,0.8-0.3,1.6-0.7,2.2l0.8,0.8
					c0.6-0.9,1-1.9,1-3.1c0-2.9-2.3-5.2-5.2-5.2s-5.2,2.3-5.2,5.2c0,2.9,2.3,5.2,5.2,5.2c1,0,1.8-0.3,2.6-0.7l-0.9-0.9
					C55.9,82.2,55.3,82.3,54.7,82.3z"/>
			</g>
		</g>
	</g>
	<circle class="st0" cx="86" cy="64.9" r="4.4"/>
	<polygon class="st0" points="68.8,85.9 115.8,85.9 106.9,66.1 103.8,68.9 99.5,61.2 86.6,78.3 81.6,73.2 	"/>
</g>
</svg>
