<?xml version="1.0" encoding="utf-8"?>
<!-- Generator: Adobe Illustrator 21.0.0, SVG Export Plug-In . SVG Version: 6.00 Build 0)  -->
<svg version="1.1" id="Layer_1" xmlns="http://www.w3.org/2000/svg" xmlns:xlink="http://www.w3.org/1999/xlink" x="0px" y="0px"
	 viewBox="0 0 164.5 167.7" style="enable-background:new 0 0 164.5 167.7;" xml:space="preserve">
<style type="text/css">
	.st0{fill:#9EC0DF;}
	.st1{font-family:'ArialMT';}
	.st2{font-size:17px;}
</style>
<g>
	<g>
		<path class="st0" d="M161.6,167.7H4.2c-1.9,0-3.5-1.6-3.5-3.5V3.5C0.7,1.6,2.2,0,4.2,0h157.5c1.9,0,3.5,1.6,3.5,3.5v160.7
			C165.1,166.1,163.6,167.7,161.6,167.7z M4.2,1C2.8,1,1.7,2.1,1.7,3.5v160.7c0,1.4,1.1,2.5,2.5,2.5h157.5c1.4,0,2.5-1.1,2.5-2.5
			V3.5c0-1.4-1.1-2.5-2.5-2.5H4.2z"/>
		<g>
			<path class="st0" d="M54.2,60.8c0-1.1,0.4-1.8,1-2.4s1.6-0.8,2.8-0.8c1,0,1.8,0.2,2.5,0.7s1,1.1,1,1.9v5.4c0,0.4,0.2,0.6,0.5,0.6
				c0.1,0,0.3,0,0.5-0.1v1.1c-0.3,0.1-0.6,0.2-0.9,0.2c-0.5,0-0.9-0.1-1.2-0.3S60,66.5,60,66c-0.9,1-2,1.5-3.4,1.5
				c-0.9,0-1.6-0.3-2.1-0.8s-0.8-1.2-0.8-2c0-0.8,0.2-1.5,0.7-2s1.1-0.8,2-0.9l2.8-0.3c0.5-0.1,0.8-0.4,0.8-1.1
				c0-0.5-0.2-0.9-0.5-1.1s-1-0.3-1.7-0.3s-1.2,0.1-1.5,0.4c-0.4,0.3-0.6,0.8-0.6,1.4L54.2,60.8L54.2,60.8z M59.9,62.6
				c-0.1,0.1-0.3,0.2-0.7,0.3s-1,0.2-1.9,0.3c-0.7,0.1-1.2,0.3-1.5,0.5c-0.3,0.3-0.5,0.6-0.5,1c0,0.5,0.1,0.9,0.4,1.2
				c0.3,0.3,0.7,0.4,1.3,0.4c0.8,0,1.4-0.2,2-0.6s0.9-0.9,0.9-1.6V62.6L59.9,62.6z"/>
			<path class="st0" d="M64.1,67.3V54.5h1.6v4.7l0,0c0.7-1,1.6-1.5,2.7-1.5c1.2,0,2.1,0.4,2.8,1.3c0.7,0.9,1.1,2,1.1,3.4
				c0,1.6-0.4,2.8-1.1,3.8s-1.7,1.4-3,1.4c-1.1,0-2-0.5-2.6-1.4l0,0v1.2L64.1,67.3L64.1,67.3z M70.7,62.6c0-1.3-0.2-2.2-0.7-2.7
				s-1.1-0.8-1.9-0.8s-1.5,0.3-1.9,1s-0.6,1.6-0.6,2.8s0.3,2.1,0.8,2.6s1.1,0.8,1.8,0.8c0.8,0,1.4-0.3,1.8-1
				C70.5,64.7,70.7,63.8,70.7,62.6z"/>
		</g>
		<text transform="matrix(1 0 0 1 55.1078 135.811)" class="st0 st1 st2">Fill Box</text>
	</g>
	<g>
		<path class="st0" d="M45.6,47.2v28.3h74.9V47.2H45.6z M116.8,71.8H49.3V50.9h67.5V71.8z M80.1,68.5h-5.7V67h1.9V55.7h-1.9v-1.5
			h5.7v1.5h-1.9v11.4h1.9V68.5z"/>
	</g>
</g>
</svg>
