<?xml version="1.0" encoding="utf-8"?>
<!-- Generator: Adobe Illustrator 21.0.0, SVG Export Plug-In . SVG Version: 6.00 Build 0)  -->
<svg version="1.1" id="Layer_1" xmlns="http://www.w3.org/2000/svg" xmlns:xlink="http://www.w3.org/1999/xlink" x="0px" y="0px"
	 viewBox="0 0 164.5 167.7" style="enable-background:new 0 0 164.5 167.7;" xml:space="preserve">
<style type="text/css">
	.st0{fill:#9EC0DF;}
	.st1{font-family:'ArialMT';}
	.st2{font-size:17px;}
</style>
<g>
	<g>
		<g>
			<path class="st0" d="M161,167.7H3.5c-1.9,0-3.5-1.6-3.5-3.5V3.5C0,1.6,1.6,0,3.5,0H161c1.9,0,3.5,1.6,3.5,3.5v160.7
				C164.5,166.1,162.9,167.7,161,167.7z M3.5,1C2.1,1,1,2.1,1,3.5v160.7c0,1.4,1.1,2.5,2.5,2.5H161c1.4,0,2.5-1.1,2.5-2.5V3.5
				c0-1.4-1.1-2.5-2.5-2.5H3.5z"/>
			<text transform="matrix(1 0 0 1 50.1078 135.811)" class="st0 st1 st2">Matching</text>
		</g>
	</g>
	<path class="st0" d="M68,97.7H44.2V74H68V97.7z M46.2,95.7H66V76H46.2V95.7z"/>
	<path class="st0" d="M56.1,62.1c-7.3,0-13.2-5.9-13.2-13.2c0-7.3,5.9-13.2,13.2-13.2s13.2,5.9,13.2,13.2
		C69.3,56.2,63.4,62.1,56.1,62.1z M56.1,37.7c-6.2,0-11.2,5-11.2,11.2c0,6.2,5,11.2,11.2,11.2c6.2,0,11.2-5,11.2-11.2
		C67.3,42.7,62.3,37.7,56.1,37.7z"/>
	<circle class="st0" cx="109.4" cy="85.9" r="8.7"/>
	<rect x="101.2" y="40.8" class="st0" width="16.3" height="16.3"/>
	<g>
		<path class="st0" d="M71.9,59.8c-0.1,0-0.2,0-0.3-0.1l-1.2-0.9c-0.2-0.2-0.3-0.5-0.1-0.7c0.2-0.2,0.5-0.3,0.7-0.1l1.2,0.9
			c0.2,0.2,0.3,0.5,0.1,0.7C72.2,59.7,72.1,59.8,71.9,59.8z"/>
		<path class="st0" d="M95,78.1c-0.1,0-0.2,0-0.3-0.1l-2.3-1.8c-0.2-0.2-0.3-0.5-0.1-0.7c0.2-0.2,0.5-0.3,0.7-0.1l2.3,1.8
			c0.2,0.2,0.3,0.5,0.1,0.7C95.3,78,95.2,78.1,95,78.1z M90.4,74.4c-0.1,0-0.2,0-0.3-0.1l-2.3-1.8c-0.2-0.2-0.3-0.5-0.1-0.7
			c0.2-0.2,0.5-0.3,0.7-0.1l2.3,1.8c0.2,0.2,0.3,0.5,0.1,0.7C90.7,74.4,90.5,74.4,90.4,74.4z M85.8,70.8c-0.1,0-0.2,0-0.3-0.1
			l-2.3-1.8c-0.2-0.2-0.3-0.5-0.1-0.7c0.2-0.2,0.5-0.3,0.7-0.1l2.3,1.8c0.2,0.2,0.3,0.5,0.1,0.7C86.1,70.7,85.9,70.8,85.8,70.8z
			 M81.2,67.1c-0.1,0-0.2,0-0.3-0.1l-2.3-1.8c-0.2-0.2-0.3-0.5-0.1-0.7c0.2-0.2,0.5-0.3,0.7-0.1l2.3,1.8c0.2,0.2,0.3,0.5,0.1,0.7
			C81.5,67,81.3,67.1,81.2,67.1z M76.6,63.4c-0.1,0-0.2,0-0.3-0.1l-2.3-1.8c-0.2-0.2-0.3-0.5-0.1-0.7c0.2-0.2,0.5-0.3,0.7-0.1
			l2.3,1.8c0.2,0.2,0.3,0.5,0.1,0.7C76.9,63.4,76.7,63.4,76.6,63.4z"/>
		<path class="st0" d="M98.5,80.9c-0.1,0-0.2,0-0.3-0.1L97,79.8c-0.2-0.2-0.3-0.5-0.1-0.7c0.2-0.2,0.5-0.3,0.7-0.1l1.2,0.9
			c0.2,0.2,0.3,0.5,0.1,0.7C98.8,80.8,98.6,80.9,98.5,80.9z"/>
	</g>
</g>
</svg>
