<?xml version="1.0" encoding="utf-8"?>
<!-- Generator: Adobe Illustrator 21.0.0, SVG Export Plug-In . SVG Version: 6.00 Build 0)  -->
<svg version="1.1" id="Layer_1" xmlns="http://www.w3.org/2000/svg" xmlns:xlink="http://www.w3.org/1999/xlink" x="0px" y="0px"
	 viewBox="0 0 164.4 167.7" style="enable-background:new 0 0 164.4 167.7;" xml:space="preserve">
<style type="text/css">
	.st0{fill:#9EC0DF;}
	.st1{enable-background:new    ;}
	.st2{opacity:0.4;fill:#9EC0DF;enable-background:new    ;}
</style>
<g>
	<g>
		<g>
			<path class="st0" d="M160.9,167.7H3.5c-1.9,0-3.5-1.6-3.5-3.5V3.5C0,1.6,1.6,0,3.5,0h157.4c1.9,0,3.5,1.6,3.5,3.5v160.7
				C164.4,166.1,162.9,167.7,160.9,167.7z M3.5,1C2.1,1,1,2.1,1,3.5v160.7c0,1.4,1.1,2.5,2.5,2.5h157.4c1.4,0,2.5-1.1,2.5-2.5V3.5
				c0-1.4-1.1-2.5-2.5-2.5H3.5z"/>
			<g class="st1">
				<path class="st0" d="M46.4,135.8v-12.2H51c0.8,0,1.4,0,1.9,0.1c0.6,0.1,1.1,0.3,1.5,0.6s0.7,0.7,1,1.2c0.2,0.5,0.4,1.1,0.4,1.7
					c0,1-0.3,1.9-1,2.6s-1.8,1.1-3.6,1.1H48v4.9H46.4z M48,129.4h3.1c1,0,1.8-0.2,2.2-0.6c0.4-0.4,0.7-0.9,0.7-1.6
					c0-0.5-0.1-0.9-0.4-1.3c-0.3-0.4-0.6-0.6-1-0.7c-0.3-0.1-0.8-0.1-1.5-0.1H48V129.4z"/>
				<path class="st0" d="M63.3,135.8v-1.3c-0.7,1-1.6,1.5-2.8,1.5c-0.5,0-1-0.1-1.5-0.3s-0.8-0.4-1-0.8c-0.2-0.3-0.4-0.7-0.5-1.1
					c-0.1-0.3-0.1-0.8-0.1-1.4V127H59v4.9c0,0.8,0,1.3,0.1,1.6c0.1,0.4,0.3,0.7,0.6,0.9s0.7,0.3,1.1,0.3s0.9-0.1,1.3-0.3
					s0.7-0.5,0.8-0.9c0.2-0.4,0.2-1,0.2-1.7V127h1.5v8.8H63.3z"/>
				<path class="st0" d="M70.3,134.5l0.2,1.3c-0.4,0.1-0.8,0.1-1.1,0.1c-0.5,0-1-0.1-1.3-0.3s-0.5-0.4-0.6-0.7s-0.2-0.9-0.2-1.8V128
					h-1.1v-1h1.1v-2.2l1.5-0.9v3.1h1.5v1.2h-1.5v5.2c0,0.4,0,0.7,0.1,0.8s0.1,0.2,0.3,0.3c0.1,0.1,0.3,0.1,0.5,0.1
					C69.8,134.5,70,134.5,70.3,134.5z"/>
				<path class="st0" d="M85.3,131.5L87,132c-0.3,1.3-0.9,2.3-1.8,3s-1.9,1-3.2,1c-1.3,0-2.4-0.3-3.2-0.8c-0.8-0.5-1.4-1.3-1.9-2.3
					c-0.4-1-0.6-2.1-0.6-3.3c0-1.3,0.2-2.4,0.7-3.3s1.2-1.7,2.1-2.1c0.9-0.5,1.9-0.7,3-0.7c1.2,0,2.2,0.3,3.1,0.9
					c0.8,0.6,1.4,1.5,1.7,2.6l-1.6,0.4c-0.3-0.9-0.7-1.5-1.2-1.9s-1.2-0.6-2-0.6c-0.9,0-1.7,0.2-2.3,0.7c-0.6,0.4-1.1,1-1.3,1.8
					c-0.3,0.8-0.4,1.5-0.4,2.3c0,1,0.2,1.9,0.5,2.7s0.8,1.3,1.4,1.7s1.3,0.6,2.1,0.6c0.9,0,1.7-0.3,2.3-0.8
					C84.7,133.3,85.1,132.6,85.3,131.5z"/>
				<path class="st0" d="M88.8,125.4v-1.7h1.5v1.7H88.8z M88.8,135.8V127h1.5v8.8H88.8z"/>
				<path class="st0" d="M92.5,135.8V127h1.3v1.3c0.3-0.6,0.7-1,1-1.2s0.6-0.3,1-0.3c0.5,0,1,0.2,1.5,0.5l-0.5,1.4
					c-0.4-0.2-0.7-0.3-1.1-0.3c-0.3,0-0.6,0.1-0.9,0.3s-0.4,0.5-0.6,0.8c-0.2,0.5-0.2,1.1-0.2,1.7v4.6H92.5z"/>
				<path class="st0" d="M103.9,132.6l1.5,0.2c-0.2,1-0.6,1.8-1.2,2.4c-0.7,0.6-1.5,0.9-2.4,0.9c-1.2,0-2.2-0.4-2.9-1.2
					c-0.7-0.8-1.1-1.9-1.1-3.4c0-1,0.2-1.8,0.5-2.5s0.8-1.2,1.4-1.6s1.3-0.5,2.1-0.5c1,0,1.7,0.2,2.3,0.7c0.6,0.5,1,1.2,1.2,2.1
					l-1.5,0.2c-0.1-0.6-0.4-1-0.7-1.3s-0.8-0.4-1.3-0.4c-0.8,0-1.4,0.3-1.8,0.8c-0.5,0.5-0.7,1.4-0.7,2.6c0,1.2,0.2,2,0.7,2.6
					c0.5,0.5,1,0.8,1.8,0.8c0.6,0,1.1-0.2,1.5-0.5C103.6,133.9,103.8,133.3,103.9,132.6z"/>
				<path class="st0" d="M106.6,135.8v-12.2h1.5v12.2H106.6z"/>
				<path class="st0" d="M116.5,133l1.5,0.2c-0.2,0.9-0.7,1.6-1.4,2.1c-0.7,0.5-1.5,0.7-2.5,0.7c-1.3,0-2.3-0.4-3.1-1.2
					c-0.8-0.8-1.1-1.9-1.1-3.3c0-1.5,0.4-2.6,1.1-3.5s1.8-1.2,3-1.2s2.1,0.4,2.9,1.2c0.7,0.8,1.1,1.9,1.1,3.4c0,0.1,0,0.2,0,0.4
					h-6.6c0.1,1,0.3,1.7,0.8,2.2s1.1,0.8,1.8,0.8c0.5,0,1-0.1,1.4-0.4C116,134.1,116.3,133.6,116.5,133z M111.6,130.6h4.9
					c-0.1-0.7-0.3-1.3-0.6-1.7c-0.5-0.6-1.1-0.9-1.9-0.9c-0.7,0-1.3,0.2-1.7,0.7C111.9,129.2,111.6,129.8,111.6,130.6z"/>
			</g>
		</g>
	</g>
	<path class="st2" d="M48.8,90.3h-7V35.2h77.3v55.1h-5.8c0.2,0.7,0.2,1.3,0.1,2h7.8l-0.1-59.1H39.8v59.1h9.5
		C49,91.7,48.8,91,48.8,90.3z"/>
	<path class="st2" d="M101.8,90.2v-7.5h-2.1v7.5H81.6V73.1h-2.1v17.1H61.3v-7.5h-2.1v7.5H48.5v2.1h64v-2.1H101.8z"/>
	<path class="st0" d="M98.8,43.1h1.6v1.6h-1.6V43.1z"/>
	<path class="st0" d="M92.8,46.3l1.1-1.1l1.1,1.1l-1.1,1.1L92.8,46.3z"/>
	<path class="st0" d="M90.8,51.2h1.6v1.6h-1.6V51.2z"/>
	<path class="st0" d="M92.8,57.6l1.1-1.1l1.1,1.1l-1.1,1.1L92.8,57.6z"/>
	<path class="st0" d="M98.8,59.2h1.6v1.6h-1.6V59.2z"/>
	<path class="st0" d="M104.2,57.6l1.1-1.1l1.1,1.1l-1.1,1.1L104.2,57.6z"/>
	<path class="st0" d="M106.8,51.2h1.6v1.6h-1.6V51.2z"/>
	<path class="st0" d="M104.2,46.3l1.1-1.1l1.1,1.1l-1.1,1.1L104.2,46.3z"/>
	<path class="st0" d="M98.8,40.7h1.6v1.6h-1.6V40.7z"/>
	<path class="st0" d="M91.1,44.6l1.1-1.1l1.1,1.1l-1.1,1.1L91.1,44.6z"/>
	<path class="st0" d="M88.4,51.2H90v1.6h-1.6V51.2z"/>
	<path class="st0" d="M91.1,59.3l1.1-1.1l1.1,1.1l-1.1,1.1L91.1,59.3z"/>
	<path class="st0" d="M98.8,61.6h1.6v1.6h-1.6V61.6z"/>
	<path class="st0" d="M105.9,59.3l1.1-1.1l1.1,1.1l-1.1,1.1L105.9,59.3z"/>
	<path class="st0" d="M109.2,51.2h1.6v1.6h-1.6V51.2z"/>
	<path class="st0" d="M105.9,44.6l1.1-1.1l1.1,1.1l-1.1,1.1L105.9,44.6z"/>
	<path class="st2" d="M109.2,77.4h-1c-3.1,0-5.8,2.3-6.3,5.3h1C106,82.7,108.7,80.5,109.2,77.4z"/>
	<path class="st2" d="M98.6,82.7h1c-0.5-3.1-3.2-5.3-6.3-5.3h-1C92.8,80.5,95.5,82.7,98.6,82.7z"/>
	<path class="st2" d="M58.1,82.7h1c-0.5-3.1-3.2-5.3-6.3-5.3h-1C52.3,80.5,55,82.7,58.1,82.7z"/>
	<path class="st2" d="M68.7,77.4h-1c-3.1,0-5.8,2.3-6.3,5.3h1C65.5,82.7,68.2,80.5,68.7,77.4z"/>
	<path class="st2" d="M80.5,72.8c1.2-1,1.9-2.4,2.1-3.9c-0.2-1.5-1-2.9-2.1-3.9c-1.2,1-1.9,2.4-2.1,3.9
		C78.6,70.4,79.3,71.8,80.5,72.8z"/>
	<path class="st2" d="M73,71h-1c0.5,3.1,3.2,5.3,6.3,5.3h1C78.8,73.3,76.2,71,73,71z"/>
	<path class="st2" d="M88.9,71h-1c-3.1,0-5.8,2.3-6.3,5.3h1C85.8,76.3,88.4,74.1,88.9,71z"/>
	<path class="st2" d="M75.3,82.7c0.5,1.3,1.7,2.1,3,2.1h0.9c-0.5-1.3-1.7-2.1-3-2.1H75.3z"/>
	<path class="st0" d="M103.6,52c0,2.2-1.8,4-4,4s-4-1.8-4-4s1.8-4,4-4S103.6,49.7,103.6,52z"/>
</g>
<path class="st0" d="M81.5,50.8l0.1,0.4l0.2,0.9c0.1,0.3,0.1,0.6,0.2,0.9c0.1,0.3,0.1,0.6,0.2,0.9c0.4,1.1,0.8,2.3,1.4,3.3
	c1.1,2.2,2.8,4,4.7,5.4c1,0.7,2,1.3,3.1,1.9c1.1,0.5,2.2,0.9,3.4,1.3c1.2,0.3,2.3,0.5,3.5,0.7c1.2,0.1,2.4,0.2,3.5,0.1
	c1.2,0,2.4-0.2,3.5-0.4c1.1-0.2,2.3-0.5,3.4-0.9c2.2-0.8,4.2-2,5.9-3.5c1.7-1.5,3.1-3.4,3.9-5.4l0.2-0.4l0.1-0.4
	c0.1-0.3,0.2-0.5,0.2-0.8c0.1-0.3,0.1-0.5,0.2-0.8l0.1-0.4c0-0.1,0-0.3,0-0.4c0-0.3,0.1-0.5,0.1-0.8s0-0.5,0-0.8
	c0-0.5,0-1.1-0.1-1.6c-0.2-2.1-0.9-4-1.7-5.8c-0.9-1.7-1.9-3.3-3.1-4.6c-2.4-2.7-5.1-4.6-7.8-5.8c-0.2-0.1-0.3-0.1-0.5-0.2
	c-0.1,0-0.3-0.1-0.4-0.1h-0.1c0,0-0.1,0-0.1-0.1c-0.1,0-0.2-0.1-0.3-0.1c-0.2-0.1-0.3-0.1-0.4-0.1s-0.1,0-0.1,0s-0.2-0.1-0.5-0.1
	c-0.2,0-0.4-0.1-0.6-0.1s-0.4-0.1-0.6-0.1s-0.4-0.1-0.6-0.1s-0.4,0-0.5,0c-0.3,0-0.5,0-0.5,0c-0.7,0-1.3,0.1-1.4,0.2
	c-0.1,0.1,0.2,0.3,1.3,0.5c0.3,0.1,0.7,0.2,1,0.3s0.7,0.2,1,0.3s0.5,0.2,0.7,0.3s0.3,0.1,0.3,0.1s0,0,0.1,0s0.2,0.1,0.3,0.1
	c0.1,0.1,0.3,0.1,0.5,0.2c0.1,0,0.1,0,0.2,0.1c0.3,0.1,0.7,0.3,1,0.4c0.3,0.1,0.7,0.3,1,0.5s0.7,0.4,1,0.6c1.3,0.8,2.7,1.8,3.9,3
	c1.2,1.2,2.4,2.6,3.4,4.2c1,1.6,1.7,3.4,2.2,5.3c0.1,0.2,0.1,0.5,0.1,0.7s0.1,0.5,0.1,0.7s0,0.5,0.1,0.7c0,0.1,0,0.2,0,0.4v0.4
	c0,0.2,0,0.5,0,0.7s-0.1,0.5-0.1,0.7c0,0.1,0,0.3,0,0.4l-0.1,0.4c-0.1,0.2-0.1,0.5-0.2,0.7c-0.5,1.9-1.6,3.8-3,5.4
	c-0.7,0.8-1.5,1.5-2.4,2.1s-1.9,1.2-2.9,1.6c-2,0.9-4.2,1.5-6.5,1.7c-1.1,0.1-2.3,0.1-3.4,0s-2.3-0.2-3.4-0.5s-2.2-0.6-3.3-1
	c-1.1-0.4-2.1-1-3-1.6c-1-0.6-1.8-1.3-2.7-2.2c-0.4-0.4-0.8-0.8-1.1-1.3l-0.5-0.7c-0.2-0.2-0.3-0.5-0.5-0.7c-0.6-1-1.1-2-1.5-3.1
	l-0.3-0.8c-0.1-0.3-0.2-0.5-0.2-0.8C83.1,52.5,83,52.3,83,52l-0.2-0.8c-0.4-2.2-0.3-4.5,0.1-6.7s1.2-4.3,2.3-6.1
	c1.1-1.9,2.5-3.5,4.1-4.8s3.5-2.1,5.4-2.5l0.4-0.1c0.1,0,0.2,0,0.4,0c0.2,0,0.5-0.1,0.7-0.1c0.5,0,1,0,1.4,0c0.5,0,0.9,0.1,1.4,0.1
	c0.2,0,0.5,0.1,0.7,0.1s0.5,0.1,0.7,0.1c0.4,0.1,0.9,0.2,1.3,0.4c0.4,0.2,0.9,0.3,1.3,0.5c0.3,0.1,0.5,0.3,0.8,0.4
	c0.2,0.1,0.5,0.2,0.7,0.3s0.4,0.2,0.5,0.3c0.3,0.2,0.4,0.3,0.5,0.3h0.1c0.8-0.1,0.8-0.7,0.6-1c0,0,0-0.1-0.1-0.1
	c0,0-0.2-0.1-0.5-0.3c-0.1-0.1-0.3-0.2-0.5-0.3c-0.2-0.1-0.4-0.2-0.7-0.4c-0.2-0.1-0.3-0.2-0.5-0.3c-0.4-0.2-0.9-0.4-1.3-0.6
	c-0.2-0.1-0.5-0.2-0.7-0.3c-0.2-0.1-0.5-0.1-0.7-0.2c-1.9-0.5-4-0.7-6.1-0.4C93,29.8,91,30.7,89.2,32s-3.3,3-4.5,4.9
	s-2.1,4.1-2.6,6.4c-0.5,2.3-0.6,4.7-0.3,7L81.5,50.8z"/>
</svg>
