<?xml version="1.0" encoding="utf-8"?>
<!-- Generator: Adobe Illustrator 21.0.0, SVG Export Plug-In . SVG Version: 6.00 Build 0)  -->
<svg version="1.1" id="Layer_1" xmlns="http://www.w3.org/2000/svg" xmlns:xlink="http://www.w3.org/1999/xlink" x="0px" y="0px"
	 viewBox="0 0 164.5 167.7" style="enable-background:new 0 0 164.5 167.7;" xml:space="preserve">
<style type="text/css">
	.st0{fill:#9EC0DF;}
	.st1{font-family:'ArialMT';}
	.st2{font-size:17px;}
</style>
<g>
	<path class="st0" d="M161,167.7H3.5c-1.9,0-3.5-1.6-3.5-3.5V3.5C0,1.6,1.6,0,3.5,0H161c1.9,0,3.5,1.6,3.5,3.5v160.7
		C164.5,166.1,162.9,167.7,161,167.7z M3.5,1C2.1,1,1,2.1,1,3.5v160.7c0,1.4,1.1,2.5,2.5,2.5H161c1.4,0,2.5-1.1,2.5-2.5V3.5
		c0-1.4-1.1-2.5-2.5-2.5H3.5z"/>
	<path class="st0" d="M64,80.6H26.1V42.7H64V80.6z M28.9,77.8h32.2V45.5H28.9V77.8z"/>
	<g>
		<path class="st0" d="M39.2,54.9h12l0.1,3.6h-0.5c-0.2-1.1-0.6-1.9-0.9-2.2s-1.2-0.5-2.4-0.5h-1.2v10.8c0,0.8,0.1,1.3,0.4,1.5
			s0.8,0.3,1.7,0.4V69h-6.2v-0.4c0.9-0.1,1.5-0.2,1.7-0.4s0.3-0.8,0.3-1.7V55.8H43c-1.2,0-2,0.2-2.4,0.5s-0.7,1.1-1,2.2H39
			L39.2,54.9z"/>
	</g>
	<path class="st0" d="M135.4,80.6H97.5V42.7h37.9V80.6L135.4,80.6z M100.4,77.8h32.2V45.5h-32.2C100.4,45.5,100.4,77.8,100.4,77.8z"
		/>
	<g>
		<path class="st0" d="M111,68.6c0.8-0.1,1.4-0.2,1.6-0.5c0.2-0.2,0.3-0.8,0.3-1.7v-9.2c0-0.8-0.1-1.2-0.3-1.5
			c-0.2-0.2-0.7-0.4-1.5-0.4v-0.4h11.3l0.1,3h-0.6c-0.1-1-0.4-1.6-0.8-1.8c-0.4-0.3-1.2-0.4-2.4-0.4h-2.9c-0.3,0-0.5,0-0.5,0.1
			s-0.1,0.3-0.1,0.6v4.7h3.1c0.9,0,1.5-0.1,1.7-0.4s0.4-0.8,0.6-1.6h0.5V64h-0.5c-0.2-0.8-0.4-1.4-0.6-1.6s-1-0.4-1.9-0.4H115v4.6
			c0,0.8,0.1,1.3,0.4,1.5c0.2,0.2,0.8,0.4,1.6,0.4V69h-6V68.6L111,68.6z"/>
	</g>
	<g>
		<path class="st0" d="M74.7,60.3c0.7-0.8,1.7-1.2,2.9-1.2c1.2,0,2.1,0.4,2.9,1.1s1.1,1.8,1.1,3c0,1.2-0.4,2.2-1.1,3
			c-0.7,0.9-1.7,1.3-2.9,1.3c-1.1,0-2.1-0.4-2.8-1.2s-1.2-1.9-1.2-3.1C73.6,62.1,74,61.1,74.7,60.3z M76.1,60.1
			c-0.6,0.5-0.9,1.4-0.9,2.8c0,1,0.2,2,0.7,2.9s1.1,1.3,2,1.3c0.7,0,1.2-0.3,1.5-0.9s0.5-1.4,0.5-2.4s-0.2-2-0.7-2.9s-1.1-1.3-2-1.3
			C76.8,59.7,76.4,59.8,76.1,60.1z"/>
		<path class="st0" d="M82.2,67.1c0.5,0,0.9-0.1,1.1-0.3c0.2-0.1,0.3-0.4,0.3-0.9V62c0-0.6-0.1-1-0.2-1.2s-0.3-0.4-0.6-0.4
			c-0.1,0-0.1,0-0.2,0s-0.2,0-0.3,0.1v-0.3c0.3-0.1,0.7-0.2,1-0.4c0.3-0.1,0.6-0.2,0.7-0.3c0.3-0.1,0.6-0.2,0.9-0.4H85
			c0,0,0,0.1,0,0.2v1.4c0.4-0.5,0.7-0.9,1.1-1.2s0.7-0.4,1.1-0.4c0.3,0,0.5,0.1,0.7,0.3s0.3,0.4,0.3,0.7c0,0.2-0.1,0.4-0.2,0.6
			s-0.3,0.2-0.5,0.2s-0.4-0.1-0.7-0.3c-0.2-0.2-0.4-0.3-0.5-0.3c-0.2,0-0.5,0.2-0.8,0.5s-0.4,0.7-0.4,1v3.9c0,0.5,0.1,0.9,0.4,1
			c0.2,0.2,0.6,0.3,1.2,0.3v0.3h-4.3L82.2,67.1L82.2,67.1z"/>
	</g>
	<g>
		<path class="st0" d="M143.1,13.5c0.7-0.8,1.7-1.2,3-1.2c1.2,0,2.1,0.3,2.8,1s1.1,1.5,1.1,2.5c0,0.6-0.1,1.1-0.4,1.5
			c-0.3,0.4-0.8,1-1.6,1.7c-0.6,0.5-0.9,1-1.1,1.4c-0.2,0.4-0.3,0.9-0.3,1.7H145c0-0.8,0.1-1.5,0.3-2s0.6-1.1,1.3-1.8l0.7-0.7
			c0.2-0.2,0.4-0.4,0.5-0.6c0.2-0.4,0.4-0.8,0.4-1.2c0-0.6-0.2-1.1-0.5-1.5s-0.9-0.6-1.7-0.6c-1,0-1.7,0.4-2.1,1.1
			c-0.2,0.4-0.3,1-0.4,1.7H142C142,15.3,142.3,14.3,143.1,13.5z M145,23.5h1.7v1.8H145V23.5z"/>
	</g>
	<path class="st0" d="M145.6,29c-5.9,0-10.7-4.8-10.7-10.7s4.8-10.7,10.7-10.7s10.7,4.8,10.7,10.7S151.5,29,145.6,29z M145.6,8.6
		c-5.3,0-9.7,4.3-9.7,9.7c0,5.3,4.3,9.7,9.7,9.7c5.3,0,9.7-4.3,9.7-9.7C155.3,13,150.9,8.6,145.6,8.6z"/>
	<text transform="matrix(1 0 0 1 26.1078 135.811)" class="st0 st1 st2">True and False</text>
</g>
</svg>
