<?xml version="1.0" encoding="utf-8"?>
<!-- Generator: Adobe Illustrator 21.0.0, SVG Export Plug-In . SVG Version: 6.00 Build 0)  -->
<svg version="1.1" id="Layer_1" xmlns="http://www.w3.org/2000/svg" xmlns:xlink="http://www.w3.org/1999/xlink" x="0px" y="0px"
	 viewBox="0 0 59 59" style="enable-background:new 0 0 59 59;" xml:space="preserve">
<style type="text/css">
	.st0{fill:#0199DE;}
</style>
<g>
	<path class="st0" d="M12,34.6h11.1V38H12V34.6z"/>
	<path class="st0" d="M33.7,38h-3.9c-0.5,0-1.1-0.4-1.6-1.2c-0.5-0.8-0.8-1.4-0.8-2c-1.1,2.1-2.6,3.2-4.3,3.2h-2v-3.4
		c2.2,0,3.6-0.2,4.2-0.5c0.8-0.4,1.2-0.9,1.3-1.3c0.1-0.3,0.2-1,0.2-2.1l0.4,0.1c0.4,1.7,1.1,2.8,2.2,3.3c0.7,0.3,2.1,0.5,4.1,0.5
		V38z M29.4,23l-1.9,2.9L24.8,24l1.7-3L29.4,23z"/>
	<path class="st0" d="M47,32.5c0,0.7-0.3,1.5-0.8,2.4c-0.5,0.9-1.1,1.4-1.7,1.4c-0.9,0-2.8-0.8-5.8-2.5c-1.7,2.7-3.4,4.1-5,4.1h-2
		v-3.4h2c0.6,0,1.5-0.3,2.6-0.9c0.6-0.3,1.1-0.6,1.3-0.8c0.2-0.2,0.5-0.6,0.8-1.1c0.7-1.2,1.4-2.4,2.1-3.5c1-1.5,2.1-2.3,3.1-2.3
		c0.9,0,1.8,0.9,2.5,2.6C46.7,30.1,47,31.4,47,32.5z M44.1,31.9c0-1.8-0.6-2.6-1.9-2.6c-0.4,0-0.8,0.2-1.1,0.5
		c-0.3,0.3-0.5,0.7-0.6,1.1C41.3,31.1,42.5,31.5,44.1,31.9z"/>
</g>
</svg>
