<?xml version="1.0" encoding="utf-8"?>
<!-- Generator: Adobe Illustrator 21.0.0, SVG Export Plug-In . SVG Version: 6.00 Build 0)  -->
<svg version="1.1" id="Layer_1" xmlns="http://www.w3.org/2000/svg" xmlns:xlink="http://www.w3.org/1999/xlink" x="0px" y="0px"
	 viewBox="0 0 45.8 45.8" style="enable-background:new 0 0 45.8 45.8;" xml:space="preserve">
<style type="text/css">
	.st0{fill:#11AD6A;}
</style>
<g>
	<path class="st0" d="M22.9,45.8C10.3,45.8,0,35.6,0,22.9C0,10.3,10.3,0,22.9,0c12.6,0,22.9,10.3,22.9,22.9
		C45.8,35.6,35.6,45.8,22.9,45.8z M22.9,1C10.8,1,1,10.8,1,22.9s9.8,21.9,21.9,21.9S44.8,35,44.8,22.9S35,1,22.9,1z"/>
</g>
<g>
	<path class="st0" d="M33.7,21L20.5,10.5c-0.8-0.6-1.8-0.7-2.7-0.3c-0.9,0.4-1.5,1.3-1.5,2.3v20.9c0,1,0.6,1.9,1.5,2.3
		c0.4,0.2,0.7,0.3,1.1,0.3c0.6,0,1.1-0.2,1.6-0.6L33.7,25c0.6-0.5,1-1.2,1-2C34.7,22.2,34.3,21.5,33.7,21z M32.9,24L19.7,34.4
		c-0.4,0.3-0.9,0.4-1.3,0.1c-0.5-0.2-0.7-0.6-0.7-1.1V12.5c0-0.5,0.3-0.9,0.7-1.1c0.2-0.1,0.4-0.1,0.6-0.1c0.3,0,0.6,0.1,0.8,0.3
		L32.9,22c0.3,0.2,0.5,0.6,0.5,1C33.4,23.4,33.2,23.7,32.9,24z"/>
</g>
</svg>
