<?xml version="1.0" encoding="utf-8"?>
<!-- Generator: Adobe Illustrator 21.0.0, SVG Export Plug-In . SVG Version: 6.00 Build 0)  -->
<svg version="1.1" id="Layer_1" xmlns="http://www.w3.org/2000/svg" xmlns:xlink="http://www.w3.org/1999/xlink" x="0px" y="0px"
	 viewBox="0 0 45.8 45.8" style="enable-background:new 0 0 45.8 45.8;" xml:space="preserve">
<style type="text/css">
	.st0{fill:#11AD6A;}
</style>
<g>
	<path class="st0" d="M22.9,45.8C10.3,45.8,0,35.6,0,22.9C0,10.3,10.3,0,22.9,0c12.6,0,22.9,10.3,22.9,22.9
		C45.8,35.6,35.6,45.8,22.9,45.8z M22.9,1C10.8,1,1,10.8,1,22.9s9.8,21.9,21.9,21.9S44.8,35,44.8,22.9S35,1,22.9,1z"/>
</g>
<g>
	<path class="st0" d="M18.5,10.9h-4.4c-1.3,0-2.3,1-2.3,2.3v19.3c0,1.3,1,2.3,2.3,2.3h4.4c1.3,0,2.3-1,2.3-2.3V13.2
		C20.8,12,19.8,10.9,18.5,10.9z M19.5,32.6c0,0.6-0.4,1-1,1h-4.4c-0.6,0-1-0.4-1-1V13.2c0-0.6,0.4-1,1-1h4.4c0.6,0,1,0.4,1,1V32.6z"
		/>
	<path class="st0" d="M31.7,10.9h-4.4c-1.3,0-2.3,1-2.3,2.3v19.3c0,1.3,1,2.3,2.3,2.3h4.4c1.3,0,2.3-1,2.3-2.3V13.2
		C34,12,33,10.9,31.7,10.9z M32.7,32.6c0,0.6-0.4,1-1,1h-4.4c-0.6,0-1-0.4-1-1V13.2c0-0.6,0.4-1,1-1h4.4c0.6,0,1,0.4,1,1V32.6z"/>
</g>
</svg>
