<?xml version="1.0" encoding="UTF-8" ?>
<!DOCTYPE svg PUBLIC "-//W3C//DTD SVG 1.1//EN" "http://www.w3.org/Graphics/SVG/1.1/DTD/svg11.dtd">
<svg width="389pt" height="129pt" viewBox="0 0 389 129" version="1.1" xmlns="http://www.w3.org/2000/svg">
<g id="#ffffffff">
<path fill="#ffffff" opacity="1.00" d=" M 43.04 24.22 C 47.46 24.35 51.88 24.23 56.29 24.34 C 56.33 32.69 56.17 41.04 56.38 49.39 C 64.54 49.29 72.71 49.43 80.88 49.30 C 80.94 53.82 80.90 58.35 80.91 62.87 L 80.22 62.81 C 72.25 62.58 64.28 62.85 56.32 62.71 C 56.31 73.26 56.11 83.82 56.43 94.36 C 54.22 95.54 51.99 96.65 49.78 97.82 C 47.36 96.62 44.96 95.39 42.57 94.13 C 42.68 83.66 42.59 73.18 42.62 62.70 C 34.78 62.93 26.93 62.41 19.11 63.01 L 18.74 62.92 C 17.81 58.73 18.40 53.62 18.30 49.11 C 19.10 49.53 20.69 50.37 21.48 50.79 C 21.53 51.33 21.64 52.40 21.69 52.94 C 21.28 54.04 20.85 55.14 20.41 56.23 C 21.42 56.25 22.44 56.26 23.46 56.27 C 22.77 54.43 22.21 52.54 22.15 50.56 C 24.57 49.43 27.34 49.37 29.73 50.63 C 29.83 52.61 29.17 54.47 28.49 56.30 C 29.48 56.28 30.47 56.25 31.46 56.22 C 30.85 54.52 30.17 52.78 30.45 50.93 L 30.75 49.75 C 32.82 49.71 34.89 49.73 36.96 49.87 L 37.83 50.57 C 37.76 52.53 37.27 54.43 36.62 56.27 C 37.62 56.28 38.62 56.26 39.62 56.25 C 39.19 55.18 38.77 54.10 38.37 53.02 C 38.43 52.57 38.55 51.66 38.62 51.21 L 38.84 49.94 C 39.80 50.03 40.77 50.12 41.73 50.21 C 41.63 53.92 41.64 57.63 41.62 61.34 C 42.29 61.43 43.63 61.61 44.30 61.70 C 44.25 63.19 44.20 64.68 44.12 66.18 C 44.76 66.09 46.02 65.92 46.65 65.83 C 46.62 64.52 46.59 63.21 46.57 61.89 C 48.60 61.88 50.64 61.88 52.68 61.89 C 52.63 63.19 52.58 64.49 52.53 65.79 C 53.11 65.89 54.29 66.09 54.88 66.19 C 54.79 64.86 54.71 63.53 54.64 62.20 C 55.30 62.07 56.63 61.82 57.29 61.70 C 57.26 57.91 57.26 54.12 57.29 50.34 C 52.48 50.00 47.66 50.18 42.84 50.25 C 43.20 41.58 42.89 32.90 43.04 24.22 M 44.06 32.28 C 45.24 32.32 46.42 32.33 47.60 32.33 C 46.93 31.24 46.26 30.16 45.60 29.06 C 46.10 28.02 46.30 26.90 45.75 25.83 C 45.28 28.01 45.10 30.27 44.06 32.28 M 53.42 25.91 C 52.96 28.03 52.82 30.23 51.93 32.23 C 52.99 32.53 54.06 32.47 55.12 32.18 C 53.89 30.30 53.75 28.07 53.42 25.91 M 49.34 32.59 C 49.23 34.66 48.96 36.71 48.34 38.68 C 48.75 39.06 49.59 39.80 50.00 40.17 C 50.98 37.67 49.77 35.08 49.34 32.59 M 45.21 39.43 C 46.15 42.00 43.49 44.72 45.55 46.96 C 45.86 46.45 46.47 45.44 46.78 44.93 C 45.93 43.17 46.97 40.68 45.21 39.43 M 52.46 40.20 C 52.71 40.62 53.20 41.45 53.45 41.87 C 52.55 43.58 51.86 45.42 53.49 46.89 C 53.77 46.44 54.32 45.56 54.60 45.11 C 54.01 43.40 53.62 41.62 53.93 39.80 C 53.56 39.90 52.83 40.10 52.46 40.20 M 59.61 55.99 C 60.26 56.19 60.91 56.39 61.56 56.60 C 61.79 56.38 62.26 55.94 62.49 55.72 C 61.57 53.96 61.23 52.02 61.35 50.04 C 60.66 51.99 60.48 54.09 59.61 55.99 M 68.77 51.06 C 68.83 52.76 68.44 54.41 67.63 55.91 C 68.28 56.15 68.92 56.40 69.56 56.65 C 69.82 56.42 70.33 55.97 70.59 55.74 C 69.85 54.21 69.12 52.61 69.52 50.86 C 69.33 50.91 68.96 51.01 68.77 51.06 M 76.80 50.61 C 77.10 52.62 76.58 54.53 75.47 56.19 C 76.56 56.23 77.66 56.25 78.75 56.24 C 78.04 54.44 77.22 52.61 77.64 50.62 L 76.80 50.61 M 25.39 55.34 C 25.47 56.00 25.63 57.33 25.71 57.99 C 25.23 59.01 24.76 60.04 24.28 61.08 C 25.40 61.13 26.51 61.17 27.63 61.19 C 26.68 59.29 26.08 57.27 26.35 55.13 C 26.11 55.18 25.63 55.29 25.39 55.34 M 33.42 55.37 C 33.54 56.04 33.78 57.38 33.90 58.05 C 33.37 58.92 32.83 59.79 32.29 60.65 C 33.40 60.74 34.51 60.83 35.62 60.92 C 34.72 59.06 34.15 57.08 34.45 55.00 C 34.19 55.09 33.68 55.28 33.42 55.37 M 64.62 55.32 C 65.11 57.28 64.42 59.12 63.43 60.80 C 64.56 60.78 65.70 60.78 66.83 60.77 C 66.32 59.82 65.81 58.86 65.30 57.90 C 65.43 57.17 65.70 55.71 65.84 54.98 C 65.53 55.07 64.93 55.24 64.62 55.32 M 72.85 55.28 C 72.86 57.14 72.83 59.10 71.52 60.57 C 72.27 60.93 73.01 61.30 73.76 61.66 C 73.94 61.38 74.31 60.81 74.50 60.53 C 73.75 58.82 73.48 57.00 73.58 55.15 C 73.40 55.18 73.03 55.25 72.85 55.28 M 49.29 64.91 C 49.13 66.88 49.27 68.98 48.07 70.68 C 48.59 71.30 49.11 71.92 49.62 72.54 C 49.90 72.08 50.46 71.16 50.74 70.70 C 50.12 68.80 49.81 66.83 49.29 64.91 M 45.58 71.75 C 45.52 73.97 45.12 76.16 44.21 78.20 C 45.34 78.51 46.45 78.21 47.55 77.91 C 46.96 76.95 46.38 75.99 45.81 75.03 C 46.27 73.91 46.22 72.77 45.58 71.75 M 51.92 78.05 C 52.89 78.46 53.87 78.62 54.84 78.11 C 54.02 76.08 53.68 73.93 53.57 71.75 C 53.07 73.87 52.80 76.05 51.92 78.05 M 48.01 85.12 C 48.98 85.45 49.97 85.48 50.95 85.15 C 50.13 83.10 49.76 80.92 49.56 78.73 C 49.10 80.87 48.88 83.08 48.01 85.12 M 45.55 85.88 C 45.52 87.95 45.21 89.99 44.26 91.85 C 44.57 92.07 45.20 92.51 45.51 92.73 C 45.97 92.48 46.89 92.00 47.35 91.76 C 45.94 90.06 46.54 87.74 45.55 85.88 M 51.91 91.81 C 52.34 92.06 53.18 92.55 53.61 92.79 C 53.91 92.54 54.52 92.02 54.82 91.76 C 54.00 89.88 53.73 87.85 53.52 85.83 C 52.68 87.77 53.30 90.02 51.91 91.81 Z" />
<path fill="#ffffff" opacity="1.00" d=" M 143.85 45.26 C 144.85 42.44 145.88 39.64 147.09 36.90 C 148.11 39.71 149.21 42.48 150.27 45.27 C 148.13 45.27 145.99 45.27 143.85 45.26 Z" />
<path fill="#ffffff" opacity="1.00" d=" M 29.19 66.68 L 29.76 66.47 L 30.08 66.95 C 30.49 67.25 31.32 67.85 31.74 68.14 L 32.27 68.42 C 32.98 69.18 33.76 69.85 34.61 70.45 L 34.39 70.77 C 34.08 71.04 33.46 71.58 33.16 71.85 C 32.47 70.57 31.26 68.06 29.58 69.76 C 29.02 70.10 28.50 70.51 28.11 71.04 C 27.56 71.52 27.02 72.01 26.48 72.49 L 25.68 71.46 C 26.17 71.31 27.14 71.03 27.62 70.88 C 27.65 70.28 27.71 69.07 27.74 68.46 L 28.26 68.24 C 28.32 68.17 28.45 68.04 28.51 67.97 C 28.68 67.65 29.02 67.00 29.19 66.68 Z" />
<path fill="#ffffff" opacity="1.00" d=" M 290.82 68.76 C 292.66 68.63 295.35 68.72 295.72 71.01 C 296.56 73.73 293.93 76.14 291.31 75.74 C 290.33 73.59 290.99 71.06 290.82 68.76 Z" />
</g>
<g id="#000000ff">
<path fill="#000000" opacity="1.00" d=" M 17.85 36.04 C 18.18 31.77 16.79 27.50 17.81 23.27 C 39.28 23.81 60.78 23.71 82.25 23.31 C 81.76 37.19 82.21 51.09 82.01 64.97 C 81.66 71.38 81.06 78.51 76.18 83.26 C 68.81 90.65 58.62 94.03 49.66 99.00 C 41.31 94.11 31.76 91.12 24.43 84.60 C 20.47 81.15 18.25 76.01 17.89 70.82 C 17.32 59.24 18.07 47.65 17.85 36.04 M 18.07 23.77 C 18.07 32.21 17.73 40.69 18.38 49.11 L 18.30 49.11 C 18.40 53.62 17.81 58.73 18.74 62.92 L 18.32 62.83 C 18.37 64.99 18.50 67.14 18.71 69.30 C 19.21 68.44 20.20 66.72 20.70 65.86 C 21.71 66.32 22.70 66.83 23.70 67.33 C 24.59 66.10 25.92 65.40 27.29 64.85 C 25.72 65.93 24.44 67.35 23.24 68.83 C 23.97 69.36 25.41 70.42 26.14 70.95 C 26.36 70.40 26.79 69.31 27.01 68.76 L 27.74 68.46 C 27.71 69.07 27.65 70.28 27.62 70.88 C 27.14 71.03 26.17 71.31 25.68 71.46 L 26.48 72.49 L 25.70 73.16 C 25.58 72.48 25.36 71.11 25.24 70.43 L 24.02 70.01 L 23.43 70.59 C 22.77 69.46 23.09 67.17 21.31 67.21 C 20.73 68.08 20.17 68.95 19.61 69.84 C 20.31 71.16 20.74 72.60 20.91 74.09 C 21.92 75.17 22.88 76.30 23.86 77.42 C 24.70 77.04 25.55 76.70 26.42 76.41 C 27.51 77.17 27.70 78.55 28.17 79.70 C 27.12 79.17 26.07 78.64 25.03 78.10 C 25.09 79.44 25.15 80.79 25.10 82.13 C 25.84 82.34 27.31 82.76 28.05 82.97 C 28.98 81.49 29.91 80.01 30.89 78.55 C 30.77 78.14 30.52 77.31 30.40 76.90 C 31.41 76.72 32.41 76.42 33.45 76.45 C 33.88 77.03 35.40 77.96 34.42 78.68 C 34.11 78.38 33.48 77.76 33.17 77.45 C 31.79 78.92 33.16 80.75 33.33 82.38 L 32.44 82.59 C 33.44 81.45 31.80 78.70 30.53 80.30 C 29.71 81.43 31.06 82.28 31.92 82.71 L 31.09 82.95 L 30.32 83.50 L 29.98 85.80 C 30.73 85.90 32.22 86.10 32.96 86.20 C 33.91 85.03 34.85 83.87 35.81 82.71 C 35.49 81.69 35.17 80.67 34.86 79.64 C 35.88 80.46 36.88 81.30 37.87 82.15 C 37.77 82.64 37.55 83.63 37.44 84.12 C 36.45 85.03 35.46 85.95 34.49 86.87 C 35.56 87.44 36.54 88.20 37.66 88.68 C 38.22 87.88 38.85 87.12 39.55 86.43 C 39.61 84.53 39.66 82.63 39.68 80.73 C 38.13 79.71 37.44 78.03 36.88 76.35 C 37.75 76.27 39.50 76.11 40.37 76.03 C 41.33 72.57 37.31 69.82 34.39 70.77 L 34.61 70.45 C 33.76 69.85 32.98 69.18 32.27 68.42 C 35.07 68.74 38.29 70.67 40.47 67.85 C 39.28 67.32 38.10 66.78 36.92 66.25 C 38.26 66.47 39.61 66.64 40.96 66.78 C 40.52 68.38 39.59 69.71 38.41 70.86 C 42.34 71.84 41.14 77.22 37.78 78.17 C 38.40 78.62 39.65 79.52 40.27 79.97 C 40.32 81.65 40.40 83.34 40.32 85.02 C 40.45 87.75 38.26 89.75 37.65 92.29 C 39.23 92.76 40.79 93.29 42.35 93.82 C 42.62 83.90 42.39 73.99 42.45 64.08 L 42.62 62.70 C 42.59 73.18 42.68 83.66 42.57 94.13 C 44.96 95.39 47.36 96.62 49.78 97.82 C 51.99 96.65 54.22 95.54 56.43 94.36 C 56.11 83.82 56.31 73.26 56.32 62.71 L 56.48 63.94 C 56.52 74.03 56.26 84.13 56.63 94.22 C 62.55 91.54 68.31 88.46 73.53 84.57 C 73.18 84.14 72.47 83.28 72.12 82.85 C 73.12 82.65 74.12 82.45 75.12 82.25 C 75.48 80.68 76.01 79.16 76.63 77.67 C 75.95 77.39 74.60 76.84 73.92 76.56 C 75.52 76.28 77.46 76.59 78.61 75.18 C 78.71 73.15 77.40 71.65 75.48 71.23 C 76.18 71.34 77.57 71.55 78.27 71.65 C 78.61 73.15 78.97 74.65 79.33 76.15 C 79.81 74.66 80.22 73.16 80.55 71.64 L 80.59 72.49 C 81.16 69.32 81.44 66.07 80.91 62.87 C 80.90 58.35 80.94 53.82 80.88 49.30 C 80.72 44.51 81.15 39.69 80.39 34.94 C 80.44 34.31 80.52 33.06 80.57 32.43 L 79.85 33.17 C 77.81 30.78 74.64 30.02 71.89 28.76 C 73.94 25.41 78.42 31.48 79.50 26.94 L 79.26 25.91 L 79.57 25.93 C 79.71 26.53 80.00 27.73 80.15 28.33 C 78.71 28.80 77.27 29.25 75.83 29.70 C 77.50 30.64 79.17 31.60 80.84 32.57 C 80.66 29.80 83.09 24.53 79.06 23.79 C 71.48 24.13 63.88 23.88 56.30 24.00 L 56.29 24.34 C 51.88 24.23 47.46 24.35 43.04 24.22 C 35.25 23.72 27.43 23.94 19.64 24.14 L 18.29 23.99 L 18.07 23.77 M 18.95 70.67 C 19.37 74.83 20.32 80.07 24.35 82.22 C 25.94 78.56 21.72 77.21 20.91 74.09 C 20.30 72.92 19.65 71.79 18.95 70.67 M 77.02 79.53 C 78.31 79.92 79.18 77.75 78.62 76.76 C 77.30 76.28 76.42 78.55 77.02 79.53 M 24.68 83.18 C 26.19 84.67 27.79 86.05 29.43 87.38 C 29.52 86.07 29.60 84.75 29.67 83.44 C 28.00 83.35 26.34 83.25 24.68 83.18 M 29.52 86.81 C 31.78 88.69 34.33 90.18 36.92 91.57 C 36.99 91.04 37.13 89.98 37.20 89.45 C 36.14 88.47 35.10 87.49 34.08 86.49 C 32.55 86.58 31.04 86.69 29.52 86.81 Z" />
<path fill="#000000" opacity="1.00" d=" M 105.50 27.66 C 112.97 22.35 123.01 23.51 130.99 27.02 C 131.48 29.85 132.07 32.65 132.62 35.47 C 132.08 35.60 130.99 35.86 130.44 35.99 C 128.71 29.05 120.46 24.70 113.89 27.89 C 103.81 32.83 103.41 49.29 112.83 55.14 C 117.12 57.72 123.26 57.62 127.02 54.10 C 130.07 52.44 129.37 46.83 133.36 47.13 C 132.89 49.99 133.02 53.04 132.08 55.78 C 124.82 59.91 115.36 61.14 107.77 57.22 C 97.22 51.65 95.91 34.76 105.50 27.66 Z" />
<path fill="#000000" opacity="1.00" d=" M 65.21 25.90 C 65.50 25.72 66.08 25.35 66.36 25.16 C 67.07 25.51 67.78 25.86 68.50 26.20 L 69.15 26.88 C 67.10 27.03 63.77 25.64 63.29 28.59 C 63.16 28.30 62.90 27.72 62.76 27.43 C 63.38 27.05 64.60 26.28 65.21 25.90 Z" />
<path fill="#000000" opacity="1.00" d=" M 44.06 32.28 C 45.10 30.27 45.28 28.01 45.75 25.83 C 46.30 26.90 46.10 28.02 45.60 29.06 C 46.26 30.16 46.93 31.24 47.60 32.33 C 46.42 32.33 45.24 32.32 44.06 32.28 Z" />
<path fill="#000000" opacity="1.00" d=" M 53.42 25.91 C 53.75 28.07 53.89 30.30 55.12 32.18 C 54.06 32.47 52.99 32.53 51.93 32.23 C 52.82 30.23 52.96 28.03 53.42 25.91 Z" />
<path fill="#000000" opacity="1.00" d=" M 70.32 27.23 L 71.35 27.01 C 71.00 28.19 70.67 29.37 70.38 30.56 C 69.59 32.14 70.87 33.60 72.31 34.15 C 71.85 34.07 70.94 33.91 70.48 33.83 C 69.92 33.03 69.36 32.22 68.80 31.42 C 69.38 30.05 69.87 28.64 70.32 27.23 Z" />
<path fill="#000000" opacity="1.00" d=" M 140.32 47.55 C 143.26 40.92 145.48 33.94 148.99 27.57 C 152.80 35.45 155.10 44.01 159.27 51.71 C 160.10 53.87 162.30 54.06 164.32 53.94 L 164.22 55.26 C 159.40 55.28 154.57 55.25 149.75 55.28 L 149.68 53.89 C 150.55 53.86 152.27 53.80 153.14 53.77 C 153.01 51.53 152.31 49.40 151.48 47.34 C 148.67 47.36 145.87 47.37 143.06 47.34 C 142.39 49.34 141.05 51.29 141.41 53.47 C 142.65 53.73 143.91 53.92 145.18 54.04 L 145.09 55.28 C 141.39 55.26 137.69 55.26 134.00 55.27 L 133.98 54.03 C 137.84 54.52 139.17 50.41 140.32 47.55 M 143.85 45.26 C 145.99 45.27 148.13 45.27 150.27 45.27 C 149.21 42.48 148.11 39.71 147.09 36.90 C 145.88 39.64 144.85 42.44 143.85 45.26 Z" />
<path fill="#000000" opacity="1.00" d=" M 164.24 30.83 C 167.16 29.10 170.78 30.29 174.01 29.97 C 177.07 35.96 179.79 42.12 182.93 48.07 C 185.67 42.07 188.47 36.09 191.06 30.02 C 194.44 30.08 197.82 30.04 201.21 29.95 L 201.33 31.14 C 199.45 31.14 196.70 31.43 196.84 33.97 C 196.73 40.02 196.37 46.15 197.06 52.16 C 197.25 54.31 199.83 53.73 201.29 54.10 L 201.25 55.28 C 196.44 55.26 191.62 55.27 186.81 55.27 L 186.99 54.11 C 188.25 53.74 190.16 54.16 190.60 52.52 C 191.58 46.93 191.24 41.20 191.14 35.55 C 187.98 41.80 185.36 48.29 182.41 54.64 C 181.92 54.79 180.94 55.09 180.45 55.24 C 177.61 48.68 174.59 42.18 171.22 35.87 C 171.34 41.24 170.77 46.68 171.52 51.99 C 171.88 54.00 174.21 53.86 175.76 54.09 L 175.85 55.26 C 172.14 55.27 168.43 55.26 164.72 55.28 L 164.82 54.13 C 166.39 53.92 168.56 53.84 168.63 51.76 C 169.01 45.81 168.81 39.82 168.75 33.86 C 168.95 31.35 165.89 31.32 164.24 30.83 Z" />
<path fill="#000000" opacity="1.00" d=" M 204.00 29.94 C 209.32 30.19 214.64 29.93 219.97 29.77 C 223.16 29.57 227.53 31.15 227.35 35.01 C 227.90 38.35 224.85 40.23 222.26 41.41 C 224.35 42.13 227.20 42.57 227.89 45.08 C 229.76 49.41 226.61 54.41 222.02 54.96 C 215.93 55.68 209.74 55.06 203.61 55.28 L 203.64 53.96 C 205.98 54.15 209.16 54.02 209.16 50.89 C 209.35 45.28 209.44 39.62 209.10 34.01 C 209.01 31.24 206.05 31.16 204.00 31.23 L 204.00 29.94 M 214.47 31.56 C 214.37 34.71 214.39 37.87 214.40 41.03 C 218.06 41.68 221.59 39.64 222.51 35.97 C 221.94 32.05 217.95 30.53 214.47 31.56 M 214.36 42.80 C 214.40 46.39 214.34 49.98 214.51 53.57 C 216.32 53.35 218.36 53.84 220.01 52.83 C 222.60 51.53 223.49 47.95 222.31 45.44 C 220.84 42.58 217.17 42.33 214.36 42.80 Z" />
<path fill="#000000" opacity="1.00" d=" M 231.54 31.13 C 233.43 29.08 236.55 30.28 239.01 29.95 C 244.03 30.29 249.95 28.35 254.21 31.87 C 257.56 35.57 255.01 42.12 249.93 42.34 C 253.34 45.03 254.69 49.28 257.33 52.57 C 258.22 53.90 259.94 53.72 261.31 54.05 L 261.34 55.27 C 258.55 55.21 255.73 55.50 252.97 55.02 C 248.68 51.79 248.59 44.24 242.48 43.28 C 242.54 46.21 242.14 49.22 242.98 52.08 C 243.28 54.57 246.35 53.65 248.06 53.95 L 247.96 55.26 C 242.62 55.28 237.27 55.25 231.94 55.28 L 231.82 53.96 C 233.32 53.83 234.91 54.05 236.35 53.46 C 237.99 51.31 237.53 48.46 237.62 45.94 C 237.46 41.80 237.96 37.61 237.27 33.50 C 236.67 30.88 233.51 31.31 231.54 31.13 M 242.52 31.42 C 242.46 34.95 242.48 38.48 242.46 42.01 C 246.68 43.19 251.50 39.52 250.00 35.02 C 249.28 31.54 245.51 30.77 242.52 31.42 Z" />
<path fill="#000000" opacity="1.00" d=" M 261.88 31.11 C 263.13 29.50 265.26 30.08 267.00 29.97 C 270.89 30.10 274.79 29.96 278.69 29.94 L 278.80 31.24 C 276.70 31.03 273.62 31.27 273.45 34.00 C 273.35 39.87 273.16 45.77 273.55 51.62 C 273.79 54.54 277.05 53.84 279.09 53.93 L 279.13 55.27 C 273.44 55.19 267.75 55.43 262.06 55.15 C 262.61 52.78 267.82 55.05 267.68 51.57 C 268.10 45.67 268.04 39.70 267.70 33.80 C 267.42 30.88 263.96 31.25 261.88 31.11 Z" />
<path fill="#000000" opacity="1.00" d=" M 280.98 31.01 C 283.22 29.11 286.34 30.32 288.99 30.01 C 295.49 29.98 303.37 28.36 308.46 33.50 C 314.03 40.38 310.19 52.38 301.47 54.53 C 294.95 56.11 288.10 54.86 281.45 55.29 L 281.29 53.93 C 283.20 53.82 286.25 54.52 286.75 51.90 C 287.32 47.62 286.83 43.27 287.01 38.96 C 286.90 36.78 287.34 34.41 286.34 32.38 C 285.10 30.76 282.66 31.53 280.98 31.01 M 292.42 31.93 C 292.55 38.86 292.28 45.80 292.53 52.72 C 293.89 54.14 296.63 53.88 298.50 53.49 C 305.22 51.05 306.58 42.07 304.12 36.13 C 302.18 31.66 296.68 30.69 292.42 31.93 Z" />
<path fill="#000000" opacity="1.00" d=" M 321.37 31.37 C 326.92 28.24 333.53 29.71 339.48 30.52 C 340.00 32.81 340.49 35.10 341.01 37.39 C 338.57 38.05 338.04 35.45 336.86 33.99 C 334.59 30.47 329.45 30.32 326.03 32.05 C 318.53 36.45 319.41 49.08 327.05 52.89 C 329.57 54.31 332.57 53.73 335.29 53.31 C 335.18 50.31 335.75 47.17 334.75 44.27 C 333.63 43.93 332.51 43.64 331.39 43.39 C 331.50 43.07 331.74 42.41 331.85 42.09 C 336.08 42.26 340.31 42.15 344.54 42.15 C 344.14 44.41 340.91 43.25 340.54 45.49 C 340.29 48.32 340.48 51.17 340.47 54.01 C 334.31 55.30 327.39 57.49 321.48 54.24 C 313.16 49.79 313.14 35.91 321.37 31.37 Z" />
<path fill="#000000" opacity="1.00" d=" M 345.02 31.05 C 346.27 29.51 348.34 30.07 350.04 29.97 C 356.08 30.18 362.13 29.87 368.17 29.96 C 368.52 32.10 368.88 34.24 368.89 36.42 C 366.88 35.41 366.61 32.37 364.17 32.11 C 361.57 31.48 358.88 31.83 356.26 32.00 C 356.18 34.93 356.19 37.86 356.21 40.79 C 359.14 40.57 364.32 42.10 363.93 37.38 L 365.19 37.30 C 365.18 40.28 365.18 43.27 365.18 46.26 L 363.95 46.29 C 364.42 41.70 359.14 42.66 356.21 42.49 C 356.19 45.95 356.20 49.41 356.19 52.87 C 359.24 52.75 362.42 53.30 365.39 52.41 C 367.84 51.70 367.79 47.90 370.43 47.72 C 370.57 50.39 369.10 52.81 368.30 55.29 C 360.68 55.25 353.06 55.26 345.43 55.29 L 345.31 53.95 C 347.12 53.69 350.20 54.57 350.63 52.00 C 351.29 45.99 351.07 39.86 350.78 33.83 C 350.60 30.89 347.03 31.36 345.02 31.05 Z" />
<path fill="#000000" opacity="1.00" d=" M 49.34 32.59 C 49.77 35.08 50.98 37.67 50.00 40.17 C 49.59 39.80 48.75 39.06 48.34 38.68 C 48.96 36.71 49.23 34.66 49.34 32.59 Z" />
<path fill="#000000" opacity="1.00" d=" M 76.13 35.82 C 76.89 35.89 78.41 36.04 79.17 36.11 C 78.74 36.51 77.86 37.31 77.42 37.72 C 81.85 38.49 79.76 43.51 80.07 46.62 C 78.72 46.63 77.38 46.63 76.04 46.64 C 75.63 46.23 74.82 45.40 74.41 44.98 C 72.47 46.98 69.64 46.75 67.10 46.91 C 67.26 46.35 67.58 45.23 67.74 44.67 C 67.65 43.81 67.53 42.95 67.38 42.10 C 66.74 42.74 65.48 44.02 64.85 44.66 C 65.55 43.47 66.30 42.29 67.12 41.17 C 68.00 40.19 68.79 38.86 68.30 37.50 C 69.95 37.34 71.59 37.03 73.22 36.75 C 74.41 39.04 76.24 40.85 78.22 42.45 L 76.25 42.82 C 74.42 42.89 75.27 45.30 76.23 45.98 C 77.16 45.98 78.10 45.90 79.02 45.74 C 79.30 43.74 79.52 41.72 79.73 39.71 C 79.14 39.49 77.96 39.06 77.37 38.84 C 76.97 37.83 76.55 36.82 76.13 35.82 M 67.28 41.76 C 68.78 42.15 70.27 42.55 71.76 42.95 L 71.94 43.84 C 70.90 43.48 69.85 43.11 68.81 42.75 C 68.74 43.63 68.60 45.38 68.52 46.26 C 69.36 46.19 71.04 46.04 71.87 45.96 C 73.08 44.88 73.95 43.50 74.80 42.13 C 74.55 41.37 74.03 39.83 73.77 39.07 C 73.00 38.51 72.20 37.97 71.40 37.45 C 71.44 38.59 71.52 40.86 71.56 42.00 L 70.94 40.78 C 70.85 40.05 70.66 38.59 70.57 37.85 C 69.49 39.17 68.39 40.48 67.28 41.76 Z" />
<path fill="#000000" opacity="1.00" d=" M 28.85 37.71 C 30.57 37.48 32.29 37.27 34.02 37.08 C 33.42 37.46 32.21 38.20 31.60 38.57 C 31.86 40.19 32.10 41.81 32.35 43.44 C 31.82 41.65 31.28 39.88 30.75 38.10 C 30.04 38.87 29.33 39.65 28.61 40.42 C 28.67 39.74 28.79 38.39 28.85 37.71 Z" />
<path fill="#000000" opacity="1.00" d=" M 45.21 39.43 C 46.97 40.68 45.93 43.17 46.78 44.93 C 46.47 45.44 45.86 46.45 45.55 46.96 C 43.49 44.72 46.15 42.00 45.21 39.43 Z" />
<path fill="#000000" opacity="1.00" d=" M 52.46 40.20 C 52.83 40.10 53.56 39.90 53.93 39.80 C 53.62 41.62 54.01 43.40 54.60 45.11 C 54.32 45.56 53.77 46.44 53.49 46.89 C 51.86 45.42 52.55 43.58 53.45 41.87 C 53.20 41.45 52.71 40.62 52.46 40.20 Z" />
<path fill="#000000" opacity="1.00" d=" M 24.01 45.77 C 25.27 43.94 26.73 42.25 28.34 40.72 C 27.03 42.61 25.74 44.50 24.44 46.39 C 22.97 46.49 21.51 46.59 20.04 46.69 C 20.23 45.85 20.43 45.01 20.64 44.17 C 20.57 44.49 20.42 45.12 20.35 45.43 C 21.56 45.57 22.79 45.68 24.01 45.77 Z" />
<path fill="#000000" opacity="1.00" d=" M 27.18 46.80 C 27.72 45.62 28.26 44.44 28.79 43.26 C 28.65 43.90 28.36 45.18 28.22 45.82 C 29.51 45.95 30.81 46.09 32.11 46.24 C 30.47 46.52 28.82 46.64 27.18 46.80 Z" />
<path fill="#000000" opacity="1.00" d=" M 21.48 50.79 C 21.65 50.73 21.98 50.62 22.15 50.56 C 22.21 52.54 22.77 54.43 23.46 56.27 C 22.44 56.26 21.42 56.25 20.41 56.23 C 20.85 55.14 21.28 54.04 21.69 52.94 C 21.64 52.40 21.53 51.33 21.48 50.79 Z" />
<path fill="#000000" opacity="1.00" d=" M 29.73 50.63 C 29.91 50.71 30.27 50.86 30.45 50.93 C 30.17 52.78 30.85 54.52 31.46 56.22 C 30.47 56.25 29.48 56.28 28.49 56.30 C 29.17 54.47 29.83 52.61 29.73 50.63 Z" />
<path fill="#000000" opacity="1.00" d=" M 37.83 50.57 C 38.02 50.73 38.42 51.05 38.62 51.21 C 38.55 51.66 38.43 52.57 38.37 53.02 C 38.77 54.10 39.19 55.18 39.62 56.25 C 38.62 56.26 37.62 56.28 36.62 56.27 C 37.27 54.43 37.76 52.53 37.83 50.57 Z" />
<path fill="#000000" opacity="1.00" d=" M 59.61 55.99 C 60.48 54.09 60.66 51.99 61.35 50.04 C 61.23 52.02 61.57 53.96 62.49 55.72 C 62.26 55.94 61.79 56.38 61.56 56.60 C 60.91 56.39 60.26 56.19 59.61 55.99 Z" />
<path fill="#000000" opacity="1.00" d=" M 68.77 51.06 C 68.96 51.01 69.33 50.91 69.52 50.86 C 69.12 52.61 69.85 54.21 70.59 55.74 C 70.33 55.97 69.82 56.42 69.56 56.65 C 68.92 56.40 68.28 56.15 67.63 55.91 C 68.44 54.41 68.83 52.76 68.77 51.06 Z" />
<path fill="#000000" opacity="1.00" d=" M 76.80 50.61 L 77.64 50.62 C 77.22 52.61 78.04 54.44 78.75 56.24 C 77.66 56.25 76.56 56.23 75.47 56.19 C 76.58 54.53 77.10 52.62 76.80 50.61 Z" />
<path fill="#000000" opacity="1.00" d=" M 25.39 55.34 C 25.63 55.29 26.11 55.18 26.35 55.13 C 26.08 57.27 26.68 59.29 27.63 61.19 C 26.51 61.17 25.40 61.13 24.28 61.08 C 24.76 60.04 25.23 59.01 25.71 57.99 C 25.63 57.33 25.47 56.00 25.39 55.34 Z" />
<path fill="#000000" opacity="1.00" d=" M 33.42 55.37 C 33.68 55.28 34.19 55.09 34.45 55.00 C 34.15 57.08 34.72 59.06 35.62 60.92 C 34.51 60.83 33.40 60.74 32.29 60.65 C 32.83 59.79 33.37 58.92 33.90 58.05 C 33.78 57.38 33.54 56.04 33.42 55.37 Z" />
<path fill="#000000" opacity="1.00" d=" M 64.62 55.32 C 64.93 55.24 65.53 55.07 65.84 54.98 C 65.70 55.71 65.43 57.17 65.30 57.90 C 65.81 58.86 66.32 59.82 66.83 60.77 C 65.70 60.78 64.56 60.78 63.43 60.80 C 64.42 59.12 65.11 57.28 64.62 55.32 Z" />
<path fill="#000000" opacity="1.00" d=" M 72.85 55.28 C 73.03 55.25 73.40 55.18 73.58 55.15 C 73.48 57.00 73.75 58.82 74.50 60.53 C 74.31 60.81 73.94 61.38 73.76 61.66 C 73.01 61.30 72.27 60.93 71.52 60.57 C 72.83 59.10 72.86 57.14 72.85 55.28 Z" />
<path fill="#000000" opacity="1.00" d=" M 47.05 56.59 C 47.53 56.53 48.50 56.42 48.99 56.37 C 50.00 56.48 51.02 56.61 52.03 56.74 C 51.72 57.07 51.10 57.72 50.79 58.04 C 50.13 58.12 48.82 58.28 48.17 58.36 L 47.47 57.96 C 47.37 57.62 47.15 56.93 47.05 56.59 Z" />
<path fill="#000000" opacity="1.00" d=" M 49.29 64.91 C 49.81 66.83 50.12 68.80 50.74 70.70 C 50.46 71.16 49.90 72.08 49.62 72.54 C 49.11 71.92 48.59 71.30 48.07 70.68 C 49.27 68.98 49.13 66.88 49.29 64.91 Z" />
<path fill="#000000" opacity="1.00" d=" M 59.32 65.11 C 60.42 65.89 61.52 66.67 62.62 67.45 C 62.71 67.84 62.90 68.63 62.99 69.02 C 63.33 70.34 63.68 71.67 63.97 73.00 C 63.84 73.19 63.58 73.55 63.45 73.73 C 63.35 73.31 63.14 72.46 63.04 72.03 C 62.72 72.52 62.09 73.51 61.77 74.00 C 61.71 73.73 61.57 73.18 61.51 72.90 C 61.58 70.34 62.00 67.52 59.93 65.53 C 59.07 69.34 59.45 73.23 60.02 77.04 C 61.33 76.91 62.65 76.77 63.96 76.62 C 63.88 77.59 63.79 78.56 63.69 79.53 C 62.45 79.59 61.22 79.65 59.98 79.70 C 59.66 80.78 59.33 81.87 59.01 82.96 C 59.80 83.16 61.36 83.56 62.14 83.76 C 64.22 81.45 66.18 79.04 67.81 76.40 L 68.10 75.89 C 70.46 76.25 72.35 77.77 74.29 79.03 C 73.50 79.17 71.93 79.45 71.14 79.59 L 70.95 80.36 C 70.63 81.68 70.34 83.00 70.06 84.33 C 68.60 85.40 67.12 86.44 65.65 87.49 C 66.85 86.14 68.15 84.89 69.48 83.67 C 69.47 83.07 69.44 81.87 69.43 81.28 C 70.57 79.57 71.25 77.55 68.72 76.88 C 66.96 78.86 67.84 81.85 66.14 83.79 C 67.16 81.56 63.13 81.38 64.55 83.56 C 64.95 83.62 65.74 83.73 66.14 83.79 C 64.72 84.38 63.29 84.95 61.90 85.60 C 60.74 84.78 59.57 84.00 58.38 83.25 C 58.65 82.05 58.91 80.84 59.17 79.65 C 60.35 79.39 61.51 79.08 62.65 78.74 C 63.18 76.95 60.47 77.87 59.49 77.41 C 58.75 73.35 58.39 69.17 59.32 65.11 Z" />
<path fill="#000000" opacity="1.00" d=" M 100.62 67.99 C 103.58 67.73 106.56 67.79 109.54 67.77 C 109.84 67.93 110.45 68.26 110.75 68.42 C 109.39 68.85 106.97 68.80 107.24 70.87 C 107.20 74.08 106.81 77.41 107.64 80.55 C 108.81 83.70 113.33 83.67 115.45 81.54 C 116.91 79.31 116.23 76.52 116.41 74.02 C 116.17 72.49 116.90 70.49 115.68 69.29 C 114.90 68.97 113.33 68.35 112.55 68.03 C 115.54 67.84 118.69 67.29 121.57 68.33 C 120.73 68.58 119.07 69.07 118.23 69.31 C 117.12 74.08 120.01 80.91 114.89 83.95 C 111.30 85.13 105.53 85.24 103.99 80.94 C 103.37 77.62 103.95 74.20 103.67 70.85 C 103.95 69.02 101.54 68.92 100.62 67.99 Z" />
<path fill="#000000" opacity="1.00" d=" M 121.56 68.10 C 123.89 67.76 126.24 67.77 128.59 67.72 C 131.57 71.54 134.55 75.36 137.70 79.04 C 137.49 75.92 138.13 72.60 137.32 69.59 C 136.57 69.23 135.07 68.52 134.32 68.17 C 136.71 67.67 139.16 67.78 141.59 67.75 C 141.91 67.97 142.53 68.40 142.85 68.61 C 142.03 68.70 140.41 68.86 139.60 68.94 C 138.79 73.94 139.34 79.01 139.17 84.04 C 138.75 84.26 137.92 84.70 137.50 84.91 C 133.99 80.52 130.71 75.95 127.02 71.71 C 127.06 75.35 126.73 79.03 127.33 82.64 C 128.13 82.96 129.74 83.59 130.55 83.90 C 127.64 84.49 124.63 84.43 121.72 83.90 C 122.59 83.60 124.32 83.00 125.19 82.70 C 125.75 78.65 125.85 74.49 125.36 70.43 C 125.18 68.55 122.76 68.89 121.56 68.10 Z" />
<path fill="#000000" opacity="1.00" d=" M 143.45 68.23 C 147.56 67.32 151.82 68.00 156.00 67.80 C 158.92 68.00 162.07 67.19 164.82 68.49 C 164.08 68.64 162.58 68.94 161.84 69.09 C 162.99 72.43 164.26 75.73 165.51 79.03 C 166.94 75.73 168.25 72.38 169.25 68.92 C 168.50 68.84 167.01 68.67 166.26 68.59 C 166.69 68.40 167.55 68.04 167.98 67.85 C 175.02 67.73 182.07 67.83 189.11 67.80 C 189.23 68.88 189.45 71.03 189.56 72.10 C 187.90 68.84 184.46 68.85 181.31 69.07 C 181.29 71.03 181.29 72.98 181.30 74.93 C 183.88 75.29 186.10 74.68 187.12 72.05 C 187.19 74.35 187.20 76.64 187.10 78.94 C 186.23 76.16 183.88 75.77 181.30 76.06 C 181.29 78.31 181.29 80.56 181.31 82.81 C 183.23 82.66 185.30 83.03 187.12 82.23 C 188.34 81.21 189.35 79.96 190.51 78.87 C 190.22 80.70 189.73 82.49 189.24 84.28 C 184.00 84.06 178.71 84.70 173.51 83.90 C 174.85 83.50 176.16 83.03 177.45 82.50 C 178.08 78.23 177.94 73.80 177.55 69.50 C 175.75 68.36 173.09 68.00 171.32 69.38 C 168.41 74.48 167.67 80.58 164.48 85.54 C 162.22 80.60 160.57 75.42 158.34 70.46 C 157.35 67.76 153.34 68.34 151.37 69.36 C 150.80 73.74 151.04 78.25 151.25 82.66 C 152.61 83.08 153.97 83.47 155.34 83.86 C 151.36 84.45 147.16 84.69 143.22 83.77 C 144.11 83.52 145.90 83.00 146.80 82.75 C 147.88 78.36 147.85 73.67 146.79 69.28 C 145.96 69.02 144.29 68.49 143.45 68.23 Z" />
<path fill="#000000" opacity="1.00" d=" M 191.96 68.06 C 195.94 67.72 199.95 67.61 203.95 67.72 C 206.60 67.63 208.91 70.49 207.78 73.03 C 207.48 74.71 205.71 75.24 204.40 75.91 C 206.29 77.96 207.62 80.42 209.17 82.73 C 209.97 83.03 211.58 83.65 212.38 83.96 C 210.30 84.25 208.14 84.54 206.07 84.07 C 203.59 82.01 203.22 78.20 200.20 76.68 C 200.73 74.69 204.96 75.06 204.09 72.03 C 204.65 69.10 201.48 68.27 199.23 68.79 C 199.52 73.36 198.82 78.01 199.65 82.53 C 200.95 83.02 202.26 83.48 203.59 83.90 C 199.68 84.50 195.63 84.52 191.73 83.87 C 193.06 83.47 194.38 83.06 195.70 82.63 C 196.32 78.27 196.26 73.78 195.72 69.41 C 194.48 68.92 193.21 68.52 191.96 68.06 Z" />
<path fill="#000000" opacity="1.00" d=" M 217.59 67.72 C 219.98 67.29 222.42 67.73 224.81 67.97 C 224.79 69.67 224.79 71.37 224.75 73.08 C 223.48 71.29 222.63 68.70 220.06 68.55 C 218.62 68.93 216.37 69.72 217.32 71.63 C 219.23 74.17 223.19 74.38 225.09 77.05 C 226.39 79.15 225.67 82.20 223.47 83.44 C 220.62 85.35 217.08 84.32 213.92 84.04 C 213.98 82.18 214.06 80.31 214.23 78.46 C 215.69 80.14 216.32 83.09 218.96 83.23 C 221.12 83.61 222.10 81.57 222.75 79.92 C 220.42 77.53 217.07 76.55 214.72 74.22 C 212.75 71.84 214.85 68.28 217.59 67.72 Z" />
<path fill="#000000" opacity="1.00" d=" M 228.48 68.21 C 232.42 67.46 236.52 67.67 240.49 68.11 C 239.08 68.54 237.69 68.98 236.31 69.46 C 235.88 73.34 236.08 77.27 236.13 81.17 C 235.89 83.51 239.11 82.99 240.44 83.88 C 236.44 84.47 232.26 84.62 228.29 83.80 C 229.61 83.04 232.14 83.54 232.43 81.53 C 232.74 77.87 232.75 74.14 232.42 70.48 C 232.16 68.54 229.78 68.91 228.48 68.21 Z" />
<path fill="#000000" opacity="1.00" d=" M 268.39 68.32 C 271.01 67.42 273.82 67.77 276.52 68.03 C 271.93 68.92 270.62 73.82 268.04 77.04 C 268.11 78.91 268.23 80.79 268.38 82.66 C 269.22 82.93 270.91 83.47 271.75 83.75 C 268.34 84.72 264.70 84.35 261.23 83.95 C 265.49 83.65 265.76 78.12 263.65 75.48 C 261.46 72.53 259.92 68.38 255.64 68.14 C 255.76 69.81 255.84 71.49 255.88 73.16 C 255.05 71.89 254.33 70.55 253.61 69.21 C 252.45 69.15 251.30 69.09 250.14 69.04 C 250.26 73.53 249.69 78.10 250.60 82.53 C 251.38 82.89 252.94 83.59 253.72 83.94 C 250.25 84.48 246.71 84.41 243.24 83.99 C 244.04 83.60 245.63 82.80 246.43 82.40 C 246.84 77.95 246.51 73.46 246.59 69.00 C 245.43 69.07 244.29 69.19 243.15 69.35 C 242.60 70.39 242.20 71.49 241.96 72.65 C 241.70 72.53 241.17 72.29 240.91 72.17 C 241.07 70.71 241.21 69.25 241.33 67.79 C 246.22 67.83 251.10 67.72 255.99 67.90 C 259.33 67.78 262.67 67.69 266.01 67.94 C 265.45 68.33 264.32 69.11 263.76 69.50 C 264.83 71.47 266.16 73.29 267.45 75.13 C 268.74 73.23 269.98 71.28 271.20 69.32 C 270.50 69.07 269.09 68.57 268.39 68.32 Z" />
<path fill="#000000" opacity="1.00" d=" M 283.46 68.17 C 286.59 67.54 289.81 67.86 292.98 67.64 C 294.96 67.61 297.33 67.58 298.75 69.23 C 299.95 71.28 299.59 74.19 297.62 75.62 C 295.65 77.20 293.03 76.94 290.68 77.13 C 290.85 79.00 291.05 80.87 291.29 82.73 C 292.17 82.99 293.92 83.50 294.80 83.75 C 291.12 84.55 287.09 84.70 283.44 83.71 C 284.39 83.50 286.30 83.07 287.25 82.86 C 287.81 78.74 287.67 74.55 287.53 70.42 C 287.24 68.48 284.72 68.95 283.46 68.17 M 290.82 68.76 C 290.99 71.06 290.33 73.59 291.31 75.74 C 293.93 76.14 296.56 73.73 295.72 71.01 C 295.35 68.72 292.66 68.63 290.82 68.76 Z" />
<path fill="#000000" opacity="1.00" d=" M 300.94 68.20 C 305.26 67.66 309.72 67.40 314.05 67.92 C 318.23 68.89 317.37 75.38 313.32 75.93 C 316.12 78.24 316.66 83.34 320.88 83.56 C 322.14 83.42 323.35 83.08 324.51 82.55 C 324.77 78.24 324.86 73.86 324.46 69.56 C 323.18 69.00 321.88 68.52 320.56 68.09 C 325.71 67.47 330.92 67.93 336.10 67.80 C 336.18 68.87 336.34 71.01 336.43 72.08 C 334.71 68.84 331.35 68.78 328.14 69.09 C 328.13 71.05 328.14 73.00 328.17 74.96 C 330.68 75.19 333.00 74.74 334.06 72.18 C 334.06 74.46 334.06 76.74 333.98 79.02 C 333.59 78.30 332.82 76.86 332.43 76.14 C 330.99 76.13 329.56 76.12 328.14 76.11 C 328.13 78.35 328.14 80.58 328.17 82.82 C 330.17 82.68 332.29 82.97 334.21 82.24 C 335.37 81.13 336.40 79.88 337.66 78.88 C 337.29 80.71 336.69 82.48 336.11 84.26 C 329.31 84.24 322.52 84.34 315.73 84.21 C 312.05 83.19 312.68 76.71 308.23 76.85 C 310.00 75.46 313.39 74.86 313.03 72.01 C 313.57 69.15 310.40 68.28 308.20 68.70 C 308.24 72.88 308.05 77.07 308.31 81.24 C 308.20 83.55 311.19 83.02 312.56 83.85 C 308.65 84.59 304.57 84.44 300.65 83.91 C 301.97 83.49 303.28 83.05 304.59 82.59 C 305.17 78.23 305.02 73.74 304.66 69.36 C 303.42 68.95 302.18 68.56 300.94 68.20 Z" />
<path fill="#000000" opacity="1.00" d=" M 341.13 73.77 C 339.97 71.02 342.23 67.95 345.03 67.63 C 347.29 67.39 349.56 67.73 351.80 67.99 C 351.75 69.64 351.74 71.29 351.46 72.92 C 350.35 71.54 349.95 69.32 348.02 68.87 C 346.17 68.00 343.07 69.74 344.26 72.00 C 346.84 74.25 351.05 74.61 352.52 78.02 C 352.74 79.78 352.56 81.77 351.05 82.94 C 348.21 85.45 344.22 84.40 340.83 84.05 C 340.87 82.17 340.91 80.29 341.13 78.42 C 342.64 80.14 343.24 83.32 346.04 83.26 C 347.92 83.34 349.16 81.89 349.44 80.14 C 347.50 77.04 343.32 76.62 341.13 73.77 Z" />
<path fill="#000000" opacity="1.00" d=" M 356.85 70.02 C 359.10 66.62 363.66 67.37 367.08 68.07 C 367.23 69.66 367.43 71.35 366.86 72.87 C 365.74 71.34 365.28 68.89 363.05 68.63 C 361.16 68.22 360.04 69.82 359.01 71.07 C 361.08 73.54 364.35 74.25 366.83 76.18 C 368.99 77.99 368.46 81.82 366.13 83.27 C 363.21 85.38 359.43 84.41 356.17 83.89 C 356.42 82.08 356.67 80.28 357.15 78.52 C 358.00 80.55 359.24 83.78 362.05 83.15 C 364.03 83.16 365.88 80.41 364.07 78.93 C 361.77 77.05 358.91 76.00 356.63 74.08 C 356.63 72.72 356.70 71.37 356.85 70.02 Z" />
<path fill="#000000" opacity="1.00" d=" M 45.58 71.75 C 46.22 72.77 46.27 73.91 45.81 75.03 C 46.38 75.99 46.96 76.95 47.55 77.91 C 46.45 78.21 45.34 78.51 44.21 78.20 C 45.12 76.16 45.52 73.97 45.58 71.75 Z" />
<path fill="#000000" opacity="1.00" d=" M 51.92 78.05 C 52.80 76.05 53.07 73.87 53.57 71.75 C 53.68 73.93 54.02 76.08 54.84 78.11 C 53.87 78.62 52.89 78.46 51.92 78.05 Z" />
<path fill="#000000" opacity="1.00" d=" M 48.01 85.12 C 48.88 83.08 49.10 80.87 49.56 78.73 C 49.76 80.92 50.13 83.10 50.95 85.15 C 49.97 85.48 48.98 85.45 48.01 85.12 Z" />
<path fill="#000000" opacity="1.00" d=" M 45.55 85.88 C 46.54 87.74 45.94 90.06 47.35 91.76 C 46.89 92.00 45.97 92.48 45.51 92.73 C 45.20 92.51 44.57 92.07 44.26 91.85 C 45.21 89.99 45.52 87.95 45.55 85.88 Z" />
<path fill="#000000" opacity="1.00" d=" M 51.91 91.81 C 53.30 90.02 52.68 87.77 53.52 85.83 C 53.73 87.85 54.00 89.88 54.82 91.76 C 54.52 92.02 53.91 92.54 53.61 92.79 C 53.18 92.55 52.34 92.06 51.91 91.81 Z" />
<path fill="#000000" opacity="1.00" d=" M 60.88 89.10 C 62.08 88.21 63.61 87.77 65.09 88.08 C 64.17 89.48 62.38 90.40 60.75 89.64 L 60.88 89.10 Z" />
</g>
<g id="#900605ff">
<path fill="#900605" opacity="1.00" d=" M 18.07 23.77 L 18.29 23.99 C 19.07 24.78 19.87 25.57 20.62 26.39 C 20.19 27.85 19.74 29.31 19.39 30.80 C 19.44 31.16 19.56 31.87 19.62 32.23 C 19.67 32.48 19.76 32.98 19.81 33.23 L 19.49 34.66 C 18.88 36.98 18.68 39.37 18.57 41.75 C 19.34 41.49 20.87 40.98 21.64 40.72 L 22.03 40.52 C 22.28 40.33 22.79 39.94 23.04 39.75 L 23.89 38.96 C 24.27 39.26 25.02 39.85 25.40 40.15 C 25.00 40.63 24.19 41.58 23.78 42.06 C 22.57 41.88 20.52 41.27 20.01 42.88 C 18.76 44.72 18.68 46.98 18.38 49.11 C 17.73 40.69 18.07 32.21 18.07 23.77 Z" />
</g>
<g id="#c41a0bff">
<path fill="#c41a0b" opacity="1.00" d=" M 18.29 23.99 L 19.64 24.14 C 21.83 24.41 23.98 24.95 26.08 25.64 C 25.62 25.91 24.70 26.46 24.23 26.73 C 23.69 27.07 22.59 27.76 22.04 28.10 C 21.69 27.68 20.98 26.82 20.62 26.39 C 19.87 25.57 19.07 24.78 18.29 23.99 Z" />
</g>
<g id="#5c0000ff">
<path fill="#5c0000" opacity="1.00" d=" M 19.64 24.14 C 27.43 23.94 35.25 23.72 43.04 24.22 L 42.36 24.42 C 41.79 24.56 40.67 24.86 40.11 25.01 C 40.19 25.75 40.37 27.23 40.46 27.97 C 40.01 28.46 39.12 29.45 38.68 29.94 C 39.66 31.69 42.04 33.60 40.71 35.77 C 39.89 36.58 38.94 37.24 38.04 37.96 C 38.69 38.11 39.99 38.40 40.64 38.55 C 40.68 41.29 40.71 44.04 40.74 46.78 C 39.20 46.93 37.66 47.07 36.12 47.22 C 35.83 46.68 35.24 45.61 34.95 45.08 C 34.35 45.32 33.14 45.82 32.54 46.07 C 33.31 44.79 34.02 43.49 34.74 42.19 C 34.51 41.24 34.06 39.34 33.83 38.39 C 35.41 39.67 36.98 40.97 38.53 42.28 C 36.73 42.61 35.67 43.57 35.36 45.15 C 36.76 45.69 38.27 45.74 39.74 45.87 C 39.76 44.02 39.78 42.17 39.78 40.32 C 38.80 39.31 37.81 38.30 36.96 37.16 L 37.02 36.55 C 37.69 36.27 39.03 35.71 39.71 35.43 L 40.77 34.97 C 39.84 31.45 36.00 30.72 33.13 29.43 C 33.17 28.82 33.25 27.59 33.30 26.98 C 34.88 27.66 36.45 28.35 38.02 29.05 C 38.56 28.41 39.65 27.13 40.19 26.49 C 37.79 26.15 35.39 25.81 33.01 25.34 C 31.90 24.57 30.31 24.67 29.62 25.97 C 28.44 25.86 27.27 25.63 26.08 25.64 C 23.98 24.95 21.83 24.41 19.64 24.14 Z" />
<path fill="#5c0000" opacity="1.00" d=" M 56.30 24.00 C 63.88 23.88 71.48 24.13 79.06 23.79 C 79.19 24.33 79.44 25.40 79.57 25.93 L 79.26 25.91 C 76.93 25.72 74.60 25.65 72.28 25.53 C 71.08 24.58 69.18 24.65 68.50 26.20 C 67.78 25.86 67.07 25.51 66.36 25.16 C 66.08 25.35 65.50 25.72 65.21 25.90 C 62.59 24.48 59.61 24.47 56.71 24.52 C 56.42 32.81 56.90 41.11 56.38 49.39 C 56.17 41.04 56.33 32.69 56.29 24.34 L 56.30 24.00 Z" />
<path fill="#5c0000" opacity="1.00" d=" M 58.94 25.58 C 60.21 26.20 61.47 26.85 62.76 27.43 C 62.90 27.72 63.16 28.30 63.29 28.59 C 63.49 29.04 63.88 29.94 64.08 30.39 C 64.29 31.06 64.72 32.39 64.93 33.06 C 64.87 33.41 64.76 34.10 64.70 34.45 C 64.26 34.95 63.40 35.96 62.96 36.46 L 62.15 34.34 C 61.58 34.97 61.02 35.61 60.47 36.25 C 60.89 36.97 61.74 38.42 62.16 39.15 C 63.32 38.76 64.48 38.38 65.64 38.00 C 65.20 39.07 64.73 40.13 64.25 41.18 C 58.36 38.49 57.74 31.16 58.94 25.58 M 59.41 33.93 C 60.04 34.04 61.29 34.25 61.92 34.36 C 61.91 33.80 61.88 32.69 61.87 32.13 L 62.50 32.17 C 62.32 35.82 66.11 31.90 62.99 31.58 C 63.45 30.40 62.50 28.03 61.02 28.49 L 60.62 26.60 C 59.20 28.79 59.31 31.43 59.41 33.93 Z" />
<path fill="#5c0000" opacity="1.00" d=" M 22.04 28.10 C 22.59 27.76 23.69 27.07 24.23 26.73 C 24.01 27.32 23.56 28.49 23.34 29.08 C 24.11 29.65 24.89 30.20 25.68 30.73 C 25.62 29.87 25.56 29.01 25.51 28.15 C 26.65 28.23 27.78 28.31 28.92 28.37 C 28.75 28.98 28.40 30.20 28.23 30.80 C 29.18 30.34 30.13 29.87 31.08 29.40 C 33.58 31.60 36.50 33.24 39.52 34.62 C 36.37 34.25 33.21 34.07 30.05 33.76 C 29.43 32.91 28.77 32.09 28.09 31.29 C 27.15 31.66 26.24 32.11 25.31 32.52 C 22.56 30.82 21.85 35.95 24.87 34.47 C 24.54 35.16 23.87 36.54 23.54 37.23 C 22.44 35.27 22.08 33.10 22.68 30.91 C 22.44 30.33 21.97 29.18 21.73 28.60 L 22.04 28.10 M 30.27 31.34 C 29.62 32.55 31.63 33.84 32.54 32.90 C 33.17 31.70 31.18 30.41 30.27 31.34 Z" />
<path fill="#5c0000" opacity="1.00" d=" M 59.67 45.92 C 61.06 45.35 62.74 45.10 63.98 46.15 L 63.71 46.62 C 62.35 47.23 60.82 47.32 59.39 46.96 C 59.46 46.70 59.60 46.18 59.67 45.92 Z" />
<path fill="#5c0000" opacity="1.00" d=" M 42.84 50.25 C 47.66 50.18 52.48 50.00 57.29 50.34 C 57.26 54.12 57.26 57.91 57.29 61.70 C 56.63 61.82 55.30 62.07 54.64 62.20 C 54.71 63.53 54.79 64.86 54.88 66.19 C 54.29 66.09 53.11 65.89 52.53 65.79 C 52.58 64.49 52.63 63.19 52.68 61.89 C 50.64 61.88 48.60 61.88 46.57 61.89 C 46.59 63.21 46.62 64.52 46.65 65.83 C 46.02 65.92 44.76 66.09 44.12 66.18 C 44.20 64.68 44.25 63.19 44.30 61.70 C 43.63 61.61 42.29 61.43 41.62 61.34 C 41.64 57.63 41.63 53.92 41.73 50.21 C 42.01 50.22 42.56 50.24 42.84 50.25 M 45.34 53.59 C 44.25 54.71 43.39 56.01 42.71 57.41 C 44.14 58.03 45.24 59.10 46.10 60.38 C 48.42 60.45 50.73 60.45 53.05 60.40 C 53.23 58.50 54.80 57.94 56.41 57.57 C 56.11 55.87 54.74 54.84 53.52 53.77 C 54.73 53.20 54.98 52.28 54.29 51.01 C 52.96 50.52 52.36 51.08 52.48 52.69 C 51.82 52.69 50.51 52.68 49.85 52.67 C 51.69 50.87 47.25 50.79 49.02 52.65 C 48.34 52.63 46.97 52.58 46.29 52.56 C 46.55 49.59 42.84 52.58 45.34 53.59 M 53.11 63.04 C 51.60 66.09 56.40 63.18 53.11 63.04 Z" />
<path fill="#5c0000" opacity="1.00" d=" M 80.22 62.81 L 80.91 62.87 C 81.44 66.07 81.16 69.32 80.59 72.49 L 80.55 71.64 C 80.52 70.84 80.44 69.24 80.40 68.44 C 79.68 68.73 78.24 69.33 77.52 69.63 C 78.26 68.72 78.99 67.79 79.70 66.85 C 76.60 66.66 70.19 64.63 70.37 69.76 C 71.87 72.38 75.12 73.22 77.50 74.87 C 74.68 74.58 71.86 74.01 69.02 74.27 C 68.79 74.67 68.33 75.48 68.10 75.89 C 67.29 75.82 65.68 75.70 64.87 75.63 C 65.90 75.16 66.94 74.69 67.96 74.17 C 68.04 73.62 68.21 72.51 68.30 71.95 C 68.39 71.43 68.57 70.38 68.67 69.86 C 68.98 68.80 69.30 67.74 69.63 66.68 C 68.47 66.24 67.30 65.82 66.13 65.42 C 65.55 65.64 64.39 66.08 63.81 66.31 C 64.38 65.79 65.52 64.75 66.09 64.23 L 66.72 64.19 C 67.71 64.97 68.70 65.74 69.70 66.50 C 73.28 65.32 77.06 65.68 80.72 66.20 C 80.65 65.64 80.49 64.53 80.41 63.97 L 80.22 62.81 M 69.23 71.31 C 68.84 72.68 69.35 73.18 70.77 72.79 C 71.16 71.42 70.65 70.92 69.23 71.31 Z" />
</g>
<g id="#d91f00ff">
<path fill="#d91f00" opacity="1.00" d=" M 79.06 23.79 C 83.09 24.53 80.66 29.80 80.84 32.57 C 79.17 31.60 77.50 30.64 75.83 29.70 C 77.27 29.25 78.71 28.80 80.15 28.33 C 80.00 27.73 79.71 26.53 79.57 25.93 C 79.44 25.40 79.19 24.33 79.06 23.79 Z" />
<path fill="#d91f00" opacity="1.00" d=" M 56.71 24.52 C 59.61 24.47 62.59 24.48 65.21 25.90 C 64.60 26.28 63.38 27.05 62.76 27.43 C 61.47 26.85 60.21 26.20 58.94 25.58 C 57.74 31.16 58.36 38.49 64.25 41.18 L 63.77 41.43 C 63.33 41.45 62.45 41.50 62.01 41.52 C 59.52 39.63 57.61 42.76 60.13 44.42 C 60.01 44.79 59.78 45.54 59.67 45.92 C 59.60 46.18 59.46 46.70 59.39 46.96 C 60.82 47.32 62.35 47.23 63.71 46.62 L 63.98 46.15 C 64.20 45.78 64.63 45.04 64.85 44.66 C 65.48 44.02 66.74 42.74 67.38 42.10 C 67.53 42.95 67.65 43.81 67.74 44.67 C 67.58 45.23 67.26 46.35 67.10 46.91 C 69.64 46.75 72.47 46.98 74.41 44.98 C 74.82 45.40 75.63 46.23 76.04 46.64 C 77.38 46.63 78.72 46.63 80.07 46.62 C 79.76 43.51 81.85 38.49 77.42 37.72 C 77.86 37.31 78.74 36.51 79.17 36.11 C 79.48 35.82 80.09 35.23 80.39 34.94 C 81.15 39.69 80.72 44.51 80.88 49.30 C 72.71 49.43 64.54 49.29 56.38 49.39 C 56.90 41.11 56.42 32.81 56.71 24.52 Z" />
<path fill="#d91f00" opacity="1.00" d=" M 30.27 31.34 C 31.18 30.41 33.17 31.70 32.54 32.90 C 31.63 33.84 29.62 32.55 30.27 31.34 Z" />
<path fill="#d91f00" opacity="1.00" d=" M 62.99 31.58 C 66.11 31.90 62.32 35.82 62.50 32.17 L 62.99 31.58 Z" />
<path fill="#d91f00" opacity="1.00" d=" M 72.31 34.15 C 70.87 33.60 69.59 32.14 70.38 30.56 L 71.01 30.78 C 72.07 31.77 72.92 32.96 73.54 34.27 C 73.24 34.24 72.62 34.18 72.31 34.15 Z" />
<path fill="#d91f00" opacity="1.00" d=" M 24.87 34.47 C 21.85 35.95 22.56 30.82 25.31 32.52 C 25.20 33.01 24.98 33.98 24.87 34.47 Z" />
<path fill="#d91f00" opacity="1.00" d=" M 67.28 41.76 C 68.39 40.48 69.49 39.17 70.57 37.85 C 70.66 38.59 70.85 40.05 70.94 40.78 L 71.56 42.00 C 71.61 42.24 71.71 42.71 71.76 42.95 C 70.27 42.55 68.78 42.15 67.28 41.76 Z" />
<path fill="#d91f00" opacity="1.00" d=" M 18.74 62.92 L 19.11 63.01 C 21.82 63.69 24.56 64.27 27.29 64.85 C 25.92 65.40 24.59 66.10 23.70 67.33 C 22.70 66.83 21.71 66.32 20.70 65.86 C 20.20 66.72 19.21 68.44 18.71 69.30 C 18.50 67.14 18.37 64.99 18.32 62.83 L 18.74 62.92 Z" />
<path fill="#d91f00" opacity="1.00" d=" M 28.27 65.07 C 32.74 63.06 37.74 64.19 42.45 64.08 C 42.39 73.99 42.62 83.90 42.35 93.82 C 40.79 93.29 39.23 92.76 37.65 92.29 C 38.26 89.75 40.45 87.75 40.32 85.02 C 40.40 83.34 40.32 81.65 40.27 79.97 C 39.65 79.52 38.40 78.62 37.78 78.17 C 41.14 77.22 42.34 71.84 38.41 70.86 C 39.59 69.71 40.52 68.38 40.96 66.78 C 39.61 66.64 38.26 66.47 36.92 66.25 L 36.37 66.02 C 34.23 64.36 32.05 65.80 30.08 66.95 L 29.76 66.47 C 29.39 66.12 28.64 65.42 28.27 65.07 Z" />
<path fill="#d91f00" opacity="1.00" d=" M 77.52 69.63 C 78.24 69.33 79.68 68.73 80.40 68.44 C 80.44 69.24 80.52 70.84 80.55 71.64 C 80.22 73.16 79.81 74.66 79.33 76.15 C 78.97 74.65 78.61 73.15 78.27 71.65 C 77.57 71.55 76.18 71.34 75.48 71.23 L 77.24 69.86 C 77.31 69.80 77.45 69.69 77.52 69.63 Z" />
<path fill="#d91f00" opacity="1.00" d=" M 69.23 71.31 C 70.65 70.92 71.16 71.42 70.77 72.79 C 69.35 73.18 68.84 72.68 69.23 71.31 Z" />
<path fill="#d91f00" opacity="1.00" d=" M 18.95 70.67 C 19.65 71.79 20.30 72.92 20.91 74.09 C 21.72 77.21 25.94 78.56 24.35 82.22 C 20.32 80.07 19.37 74.83 18.95 70.67 Z" />
<path fill="#d91f00" opacity="1.00" d=" M 61.77 74.00 C 62.09 73.51 62.72 72.52 63.04 72.03 C 63.14 72.46 63.35 73.31 63.45 73.73 C 63.11 73.98 62.42 74.47 62.08 74.71 L 61.77 74.00 Z" />
<path fill="#d91f00" opacity="1.00" d=" M 77.02 79.53 C 76.42 78.55 77.30 76.28 78.62 76.76 C 79.18 77.75 78.31 79.92 77.02 79.53 Z" />
<path fill="#d91f00" opacity="1.00" d=" M 30.53 80.30 C 31.80 78.70 33.44 81.45 32.44 82.59 L 31.92 82.71 C 31.06 82.28 29.71 81.43 30.53 80.30 Z" />
<path fill="#d91f00" opacity="1.00" d=" M 64.55 83.56 C 63.13 81.38 67.16 81.56 66.14 83.79 C 65.74 83.73 64.95 83.62 64.55 83.56 Z" />
<path fill="#d91f00" opacity="1.00" d=" M 29.52 86.81 C 31.04 86.69 32.55 86.58 34.08 86.49 C 35.10 87.49 36.14 88.47 37.20 89.45 C 37.13 89.98 36.99 91.04 36.92 91.57 C 34.33 90.18 31.78 88.69 29.52 86.81 Z" />
</g>
<g id="#bd160dff">
<path fill="#bd160d" opacity="1.00" d=" M 29.62 25.97 C 30.31 24.67 31.90 24.57 33.01 25.34 C 32.74 25.74 32.20 26.56 31.92 26.97 C 31.45 26.92 30.50 26.81 30.02 26.75 L 29.62 25.97 Z" />
</g>
<g id="#d81f00ff">
<path fill="#d81f00" opacity="1.00" d=" M 40.11 25.01 C 40.67 24.86 41.79 24.56 42.36 24.42 C 42.23 32.61 42.39 40.81 42.32 49.00 C 34.34 49.04 26.36 48.89 18.38 49.11 C 18.68 46.98 18.76 44.72 20.01 42.88 C 20.17 43.20 20.49 43.85 20.64 44.17 C 20.43 45.01 20.23 45.85 20.04 46.69 C 21.51 46.59 22.97 46.49 24.44 46.39 C 25.74 44.50 27.03 42.61 28.34 40.72 L 28.61 40.42 C 29.33 39.65 30.04 38.87 30.75 38.10 C 31.28 39.88 31.82 41.65 32.35 43.44 L 32.44 43.88 C 31.27 43.54 30.10 43.19 28.93 42.85 L 28.79 43.26 C 28.26 44.44 27.72 45.62 27.18 46.80 C 28.82 46.64 30.47 46.52 32.11 46.24 L 32.54 46.07 C 33.14 45.82 34.35 45.32 34.95 45.08 C 35.24 45.61 35.83 46.68 36.12 47.22 C 37.66 47.07 39.20 46.93 40.74 46.78 C 40.71 44.04 40.68 41.29 40.64 38.55 C 39.99 38.40 38.69 38.11 38.04 37.96 C 38.94 37.24 39.89 36.58 40.71 35.77 C 42.04 33.60 39.66 31.69 38.68 29.94 C 39.12 29.45 40.01 28.46 40.46 27.97 C 40.37 27.23 40.19 25.75 40.11 25.01 Z" />
<path fill="#d81f00" opacity="1.00" d=" M 68.50 26.20 C 69.18 24.65 71.08 24.58 72.28 25.53 C 72.05 25.90 71.59 26.64 71.35 27.01 L 70.32 27.23 L 69.15 26.88 L 68.50 26.20 Z" />
<path fill="#d81f00" opacity="1.00" d=" M 56.48 63.94 C 59.68 64.04 62.89 64.23 66.09 64.23 C 65.52 64.75 64.38 65.79 63.81 66.31 C 63.51 66.59 62.92 67.17 62.62 67.45 C 61.52 66.67 60.42 65.89 59.32 65.11 C 58.39 69.17 58.75 73.35 59.49 77.41 C 60.47 77.87 63.18 76.95 62.65 78.74 C 61.51 79.08 60.35 79.39 59.17 79.65 C 58.91 80.84 58.65 82.05 58.38 83.25 C 59.57 84.00 60.74 84.78 61.90 85.60 L 61.67 86.16 C 61.64 86.27 61.57 86.48 61.54 86.59 C 61.37 87.22 61.04 88.47 60.88 89.10 L 60.75 89.64 C 62.38 90.40 64.17 89.48 65.09 88.08 C 65.23 87.93 65.51 87.64 65.65 87.49 C 67.12 86.44 68.60 85.40 70.06 84.33 C 70.34 83.00 70.63 81.68 70.95 80.36 C 71.24 80.98 71.83 82.23 72.12 82.85 C 72.47 83.28 73.18 84.14 73.53 84.57 C 68.31 88.46 62.55 91.54 56.63 94.22 C 56.26 84.13 56.52 74.03 56.48 63.94 Z" />
<path fill="#d81f00" opacity="1.00" d=" M 66.72 64.19 C 71.28 63.96 75.84 63.93 80.41 63.97 C 80.49 64.53 80.65 65.64 80.72 66.20 C 77.06 65.68 73.28 65.32 69.70 66.50 C 68.70 65.74 67.71 64.97 66.72 64.19 Z" />
<path fill="#d81f00" opacity="1.00" d=" M 24.68 83.18 C 26.34 83.25 28.00 83.35 29.67 83.44 C 29.60 84.75 29.52 86.07 29.43 87.38 C 27.79 86.05 26.19 84.67 24.68 83.18 Z" />
</g>
<g id="#d09290ff">
<path fill="#d09290" opacity="1.00" d=" M 42.36 24.42 L 43.04 24.22 C 42.89 32.90 43.20 41.58 42.84 50.25 C 42.56 50.24 42.01 50.22 41.73 50.21 C 40.77 50.12 39.80 50.03 38.84 49.94 L 38.62 51.21 C 38.42 51.05 38.02 50.73 37.83 50.57 L 36.96 49.87 C 34.89 49.73 32.82 49.71 30.75 49.75 L 30.45 50.93 C 30.27 50.86 29.91 50.71 29.73 50.63 C 27.34 49.37 24.57 49.43 22.15 50.56 C 21.98 50.62 21.65 50.73 21.48 50.79 C 20.69 50.37 19.10 49.53 18.30 49.11 L 18.38 49.11 C 26.36 48.89 34.34 49.04 42.32 49.00 C 42.39 40.81 42.23 32.61 42.36 24.42 Z" />
</g>
<g id="#be9a28ff">
<path fill="#be9a28" opacity="1.00" d=" M 72.28 25.53 C 74.60 25.65 76.93 25.72 79.26 25.91 L 79.50 26.94 C 78.42 31.48 73.94 25.41 71.89 28.76 C 74.64 30.02 77.81 30.78 79.85 33.17 C 79.58 33.45 79.03 34.00 78.76 34.28 C 76.29 32.89 73.71 31.67 71.01 30.78 L 70.38 30.56 C 70.67 29.37 71.00 28.19 71.35 27.01 C 71.59 26.64 72.05 25.90 72.28 25.53 Z" />
</g>
<g id="#c2a52aff">
<path fill="#c2a52a" opacity="1.00" d=" M 26.08 25.64 C 27.27 25.63 28.44 25.86 29.62 25.97 L 30.02 26.75 C 30.23 27.11 30.63 27.83 30.83 28.19 C 31.11 27.89 31.65 27.28 31.92 26.97 C 32.20 26.56 32.74 25.74 33.01 25.34 C 35.39 25.81 37.79 26.15 40.19 26.49 C 39.65 27.13 38.56 28.41 38.02 29.05 C 36.45 28.35 34.88 27.66 33.30 26.98 C 33.25 27.59 33.17 28.82 33.13 29.43 C 36.00 30.72 39.84 31.45 40.77 34.97 L 39.52 34.62 C 36.50 33.24 33.58 31.60 31.08 29.40 C 30.13 29.87 29.18 30.34 28.23 30.80 C 28.40 30.20 28.75 28.98 28.92 28.37 C 27.78 28.31 26.65 28.23 25.51 28.15 C 25.56 29.01 25.62 29.87 25.68 30.73 C 24.89 30.20 24.11 29.65 23.34 29.08 C 23.56 28.49 24.01 27.32 24.23 26.73 C 24.70 26.46 25.62 25.91 26.08 25.64 Z" />
</g>
<g id="#a28539ff">
<path fill="#a28539" opacity="1.00" d=" M 19.39 30.80 C 19.74 29.31 20.19 27.85 20.62 26.39 C 20.98 26.82 21.69 27.68 22.04 28.10 L 21.73 28.60 C 21.00 29.79 20.28 31.00 19.62 32.23 C 19.56 31.87 19.44 31.16 19.39 30.80 Z" />
</g>
<g id="#72271aff">
<path fill="#72271a" opacity="1.00" d=" M 30.02 26.75 C 30.50 26.81 31.45 26.92 31.92 26.97 C 31.65 27.28 31.11 27.89 30.83 28.19 C 30.63 27.83 30.23 27.11 30.02 26.75 Z" />
</g>
<g id="#cdb027ff">
<path fill="#cdb027" opacity="1.00" d=" M 59.41 33.93 C 59.31 31.43 59.20 28.79 60.62 26.60 L 61.02 28.49 C 61.25 29.72 61.55 30.93 61.87 32.13 C 61.88 32.69 61.91 33.80 61.92 34.36 C 61.29 34.25 60.04 34.04 59.41 33.93 Z" />
</g>
<g id="#bc9f28ff">
<path fill="#bc9f28" opacity="1.00" d=" M 63.29 28.59 C 63.77 25.64 67.10 27.03 69.15 26.88 L 70.32 27.23 C 69.87 28.64 69.38 30.05 68.80 31.42 L 67.73 30.97 C 67.80 30.50 67.95 29.57 68.03 29.10 C 68.29 28.70 68.80 27.92 69.06 27.52 C 67.21 28.12 65.28 28.72 64.08 30.39 C 63.88 29.94 63.49 29.04 63.29 28.59 Z" />
</g>
<g id="#8e732fff">
<path fill="#8e732f" opacity="1.00" d=" M 61.02 28.49 C 62.50 28.03 63.45 30.40 62.99 31.58 L 62.50 32.17 L 61.87 32.13 C 61.55 30.93 61.25 29.72 61.02 28.49 Z" />
</g>
<g id="#967e2fff">
<path fill="#967e2f" opacity="1.00" d=" M 64.08 30.39 C 65.28 28.72 67.21 28.12 69.06 27.52 C 68.80 27.92 68.29 28.70 68.03 29.10 C 66.50 29.60 66.40 30.22 67.73 30.97 L 68.80 31.42 C 69.36 32.22 69.92 33.03 70.48 33.83 C 70.94 33.91 71.85 34.07 72.31 34.15 C 72.62 34.18 73.24 34.24 73.54 34.27 C 75.28 34.35 77.02 34.42 78.76 34.28 C 79.03 34.00 79.58 33.45 79.85 33.17 L 80.57 32.43 C 80.52 33.06 80.44 34.31 80.39 34.94 C 80.09 35.23 79.48 35.82 79.17 36.11 C 78.41 36.04 76.89 35.89 76.13 35.82 C 73.84 34.76 71.33 34.77 68.87 35.05 L 68.14 34.77 C 68.19 33.16 66.20 32.58 64.93 33.06 C 64.72 32.39 64.29 31.06 64.08 30.39 Z" />
</g>
<g id="#d0b023ff">
<path fill="#d0b023" opacity="1.00" d=" M 19.62 32.23 C 20.28 31.00 21.00 29.79 21.73 28.60 C 21.97 29.18 22.44 30.33 22.68 30.91 C 22.08 33.10 22.44 35.27 23.54 37.23 C 23.87 36.54 24.54 35.16 24.87 34.47 C 24.98 33.98 25.20 33.01 25.31 32.52 C 26.24 32.11 27.15 31.66 28.09 31.29 C 28.77 32.09 29.43 32.91 30.05 33.76 C 28.75 34.74 27.45 35.73 26.17 36.74 C 28.79 35.96 31.34 34.79 34.08 34.55 C 35.54 34.58 36.01 36.32 36.96 37.16 C 37.81 38.30 38.80 39.31 39.78 40.32 C 39.78 42.17 39.76 44.02 39.74 45.87 C 38.27 45.74 36.76 45.69 35.36 45.15 C 35.67 43.57 36.73 42.61 38.53 42.28 C 36.98 40.97 35.41 39.67 33.83 38.39 C 34.06 39.34 34.51 41.24 34.74 42.19 C 34.02 43.49 33.31 44.79 32.54 46.07 L 32.11 46.24 C 30.81 46.09 29.51 45.95 28.22 45.82 C 28.36 45.18 28.65 43.90 28.79 43.26 L 28.93 42.85 C 30.10 43.19 31.27 43.54 32.44 43.88 L 32.35 43.44 C 32.10 41.81 31.86 40.19 31.60 38.57 C 32.21 38.20 33.42 37.46 34.02 37.08 C 32.29 37.27 30.57 37.48 28.85 37.71 C 28.79 38.39 28.67 39.74 28.61 40.42 L 28.34 40.72 C 26.73 42.25 25.27 43.94 24.01 45.77 C 22.79 45.68 21.56 45.57 20.35 45.43 C 20.42 45.12 20.57 44.49 20.64 44.17 C 21.74 43.55 22.98 43.07 23.78 42.06 C 24.19 41.58 25.00 40.63 25.40 40.15 C 26.16 39.31 26.35 38.33 25.96 37.22 C 25.05 37.53 24.36 38.11 23.89 38.96 L 23.04 39.75 C 21.94 37.59 20.85 35.42 19.81 33.23 C 19.76 32.98 19.67 32.48 19.62 32.23 Z" />
</g>
<g id="#4c3421ff">
<path fill="#4c3421" opacity="1.00" d=" M 67.73 30.97 C 66.40 30.22 66.50 29.60 68.03 29.10 C 67.95 29.57 67.80 30.50 67.73 30.97 Z" />
</g>
<g id="#6a2f1dff">
<path fill="#6a2f1d" opacity="1.00" d=" M 71.01 30.78 C 73.71 31.67 76.29 32.89 78.76 34.28 C 77.02 34.42 75.28 34.35 73.54 34.27 C 72.92 32.96 72.07 31.77 71.01 30.78 Z" />
</g>
<g id="#d7b71dff">
<path fill="#d7b71d" opacity="1.00" d=" M 64.93 33.06 C 66.20 32.58 68.19 33.16 68.14 34.77 C 67.84 35.07 67.24 35.65 66.94 35.95 C 66.38 35.57 65.26 34.82 64.70 34.45 C 64.76 34.10 64.87 33.41 64.93 33.06 Z" />
</g>
<g id="#67211bff">
<path fill="#67211b" opacity="1.00" d=" M 19.81 33.23 C 20.85 35.42 21.94 37.59 23.04 39.75 C 22.79 39.94 22.28 40.33 22.03 40.52 C 21.14 38.59 20.26 36.65 19.49 34.66 L 19.81 33.23 Z" />
</g>
<g id="#917a2fff">
<path fill="#917a2f" opacity="1.00" d=" M 30.05 33.76 C 33.21 34.07 36.37 34.25 39.52 34.62 L 40.77 34.97 L 39.71 35.43 C 39.03 35.71 37.69 36.27 37.02 36.55 L 36.96 37.16 C 36.01 36.32 35.54 34.58 34.08 34.55 C 31.34 34.79 28.79 35.96 26.17 36.74 C 27.45 35.73 28.75 34.74 30.05 33.76 Z" />
</g>
<g id="#d61f06ff">
<path fill="#d61f06" opacity="1.00" d=" M 18.57 41.75 C 18.68 39.37 18.88 36.98 19.49 34.66 C 20.26 36.65 21.14 38.59 22.03 40.52 L 21.64 40.72 C 20.87 40.98 19.34 41.49 18.57 41.75 Z" />
</g>
<g id="#bc9c2bff">
<path fill="#bc9c2b" opacity="1.00" d=" M 60.47 36.25 C 61.02 35.61 61.58 34.97 62.15 34.34 L 62.96 36.46 C 63.40 35.96 64.26 34.95 64.70 34.45 C 65.26 34.82 66.38 35.57 66.94 35.95 L 67.54 36.49 L 68.30 37.50 C 65.67 36.56 64.97 40.12 67.12 41.17 C 66.30 42.29 65.55 43.47 64.85 44.66 C 64.63 45.04 64.20 45.78 63.98 46.15 C 62.74 45.10 61.06 45.35 59.67 45.92 C 59.78 45.54 60.01 44.79 60.13 44.42 C 60.52 43.70 60.92 42.99 61.32 42.29 C 61.49 42.09 61.84 41.71 62.01 41.52 C 62.45 41.50 63.33 41.45 63.77 41.43 L 64.25 41.18 C 64.73 40.13 65.20 39.07 65.64 38.00 C 64.48 38.38 63.32 38.76 62.16 39.15 C 61.74 38.42 60.89 36.97 60.47 36.25 M 62.26 43.25 C 62.50 46.58 65.19 41.62 62.26 43.25 Z" />
</g>
<g id="#583729ff">
<path fill="#583729" opacity="1.00" d=" M 66.94 35.95 C 67.24 35.65 67.84 35.07 68.14 34.77 L 68.87 35.05 C 68.54 35.41 67.87 36.13 67.54 36.49 L 66.94 35.95 Z" />
</g>
<g id="#ddbc1aff">
<path fill="#ddbc1a" opacity="1.00" d=" M 68.87 35.05 C 71.33 34.77 73.84 34.76 76.13 35.82 C 76.55 36.82 76.97 37.83 77.37 38.84 C 77.96 39.06 79.14 39.49 79.73 39.71 C 79.52 41.72 79.30 43.74 79.02 45.74 C 78.14 44.73 77.22 43.75 76.25 42.82 L 78.22 42.45 C 76.24 40.85 74.41 39.04 73.22 36.75 C 71.59 37.03 69.95 37.34 68.30 37.50 L 67.54 36.49 C 67.87 36.13 68.54 35.41 68.87 35.05 Z" />
</g>
<g id="#563e23ff">
<path fill="#563e23" opacity="1.00" d=" M 23.89 38.96 C 24.36 38.11 25.05 37.53 25.96 37.22 C 26.35 38.33 26.16 39.31 25.40 40.15 C 25.02 39.85 24.27 39.26 23.89 38.96 Z" />
</g>
<g id="#e1c008ff">
<path fill="#e1c008" opacity="1.00" d=" M 67.12 41.17 C 64.97 40.12 65.67 36.56 68.30 37.50 C 68.79 38.86 68.00 40.19 67.12 41.17 Z" />
</g>
<g id="#c9ae28ff">
<path fill="#c9ae28" opacity="1.00" d=" M 71.40 37.45 C 72.20 37.97 73.00 38.51 73.77 39.07 C 74.03 39.83 74.55 41.37 74.80 42.13 C 73.95 43.50 73.08 44.88 71.87 45.96 C 71.04 46.04 69.36 46.19 68.52 46.26 C 68.60 45.38 68.74 43.63 68.81 42.75 C 69.85 43.11 70.90 43.48 71.94 43.84 L 71.76 42.95 C 71.71 42.71 71.61 42.24 71.56 42.00 C 71.52 40.86 71.44 38.59 71.40 37.45 Z" />
</g>
<g id="#8f0f0bff">
<path fill="#8f0f0b" opacity="1.00" d=" M 60.13 44.42 C 57.61 42.76 59.52 39.63 62.01 41.52 C 61.84 41.71 61.49 42.09 61.32 42.29 C 60.92 42.99 60.52 43.70 60.13 44.42 Z" />
</g>
<g id="#a28534ff">
<path fill="#a28534" opacity="1.00" d=" M 20.01 42.88 C 20.52 41.27 22.57 41.88 23.78 42.06 C 22.98 43.07 21.74 43.55 20.64 44.17 C 20.49 43.85 20.17 43.20 20.01 42.88 Z" />
</g>
<g id="#e6c300ff">
<path fill="#e6c300" opacity="1.00" d=" M 62.26 43.25 C 65.19 41.62 62.50 46.58 62.26 43.25 Z" />
</g>
<g id="#a58d36ff">
<path fill="#a58d36" opacity="1.00" d=" M 76.23 45.98 C 75.27 45.30 74.42 42.89 76.25 42.82 C 77.22 43.75 78.14 44.73 79.02 45.74 C 78.10 45.90 77.16 45.98 76.23 45.98 Z" />
</g>
<g id="#db9d2fff">
<path fill="#db9d2f" opacity="1.00" d=" M 45.34 53.59 C 42.84 52.58 46.55 49.59 46.29 52.56 C 46.05 52.82 45.58 53.34 45.34 53.59 Z" />
</g>
<g id="#e7c523ff">
<path fill="#e7c523" opacity="1.00" d=" M 49.02 52.65 C 47.25 50.79 51.69 50.87 49.85 52.67 L 49.02 52.65 Z" />
</g>
<g id="#bf7d2aff">
<path fill="#bf7d2a" opacity="1.00" d=" M 52.48 52.69 C 52.36 51.08 52.96 50.52 54.29 51.01 C 54.98 52.28 54.73 53.20 53.52 53.77 C 53.26 53.50 52.74 52.96 52.48 52.69 Z" />
</g>
<g id="#d21e09ff">
<path fill="#d21e09" opacity="1.00" d=" M 46.29 52.56 C 46.97 52.58 48.34 52.63 49.02 52.65 L 49.85 52.67 C 50.51 52.68 51.82 52.69 52.48 52.69 C 52.74 52.96 53.26 53.50 53.52 53.77 C 54.74 54.84 56.11 55.87 56.41 57.57 C 54.80 57.94 53.23 58.50 53.05 60.40 C 50.73 60.45 48.42 60.45 46.10 60.38 C 45.24 59.10 44.14 58.03 42.71 57.41 C 43.39 56.01 44.25 54.71 45.34 53.59 C 45.58 53.34 46.05 52.82 46.29 52.56 M 47.47 57.96 L 48.17 58.36 C 47.88 60.09 51.45 59.69 50.79 58.04 C 51.10 57.72 51.72 57.07 52.03 56.74 L 53.35 56.87 C 52.21 54.47 49.13 54.58 46.97 55.31 C 45.29 55.68 46.18 57.73 47.47 57.96 Z" />
</g>
<g id="#c57237ff">
<path fill="#c57237" opacity="1.00" d=" M 47.47 57.96 C 46.18 57.73 45.29 55.68 46.97 55.31 C 49.13 54.58 52.21 54.47 53.35 56.87 L 52.03 56.74 C 51.02 56.61 50.00 56.48 48.99 56.37 C 48.50 56.42 47.53 56.53 47.05 56.59 C 47.15 56.93 47.37 57.62 47.47 57.96 Z" />
</g>
<g id="#d76434ff">
<path fill="#d76434" opacity="1.00" d=" M 48.17 58.36 C 48.82 58.28 50.13 58.12 50.79 58.04 C 51.45 59.69 47.88 60.09 48.17 58.36 Z" />
</g>
<g id="#ce0000ff">
<path fill="#ce0000" opacity="1.00" d=" M 19.11 63.01 C 26.93 62.41 34.78 62.93 42.62 62.70 L 42.45 64.08 C 37.74 64.19 32.74 63.06 28.27 65.07 L 27.29 64.85 C 24.56 64.27 21.82 63.69 19.11 63.01 Z" />
</g>
<g id="#ceb731ff">
<path fill="#ceb731" opacity="1.00" d=" M 53.11 63.04 C 56.40 63.18 51.60 66.09 53.11 63.04 Z" />
</g>
<g id="#cd0000ff">
<path fill="#cd0000" opacity="1.00" d=" M 56.32 62.71 C 64.28 62.85 72.25 62.58 80.22 62.81 L 80.41 63.97 C 75.84 63.93 71.28 63.96 66.72 64.19 L 66.09 64.23 C 62.89 64.23 59.68 64.04 56.48 63.94 L 56.32 62.71 Z" />
</g>
<g id="#c6a525ff">
<path fill="#c6a525" opacity="1.00" d=" M 27.29 64.85 L 28.27 65.07 C 28.50 65.47 28.96 66.28 29.19 66.68 C 29.02 67.00 28.68 67.65 28.51 67.97 L 28.26 68.24 L 27.74 68.46 L 27.01 68.76 C 26.79 69.31 26.36 70.40 26.14 70.95 C 25.41 70.42 23.97 69.36 23.24 68.83 C 24.44 67.35 25.72 65.93 27.29 64.85 Z" />
</g>
<g id="#741c20ff">
<path fill="#741c20" opacity="1.00" d=" M 28.27 65.07 C 28.64 65.42 29.39 66.12 29.76 66.47 L 29.19 66.68 C 28.96 66.28 28.50 65.47 28.27 65.07 Z" />
</g>
<g id="#7e1d10ff">
<path fill="#7e1d10" opacity="1.00" d=" M 30.08 66.95 C 32.05 65.80 34.23 64.36 36.37 66.02 C 35.56 66.01 33.93 66.00 33.11 66.00 C 32.77 66.53 32.08 67.61 31.74 68.14 C 31.32 67.85 30.49 67.25 30.08 66.95 Z" />
</g>
<g id="#c9ab20ff">
<path fill="#c9ab20" opacity="1.00" d=" M 33.11 66.00 C 33.93 66.00 35.56 66.01 36.37 66.02 L 36.92 66.25 C 38.10 66.78 39.28 67.32 40.47 67.85 C 38.29 70.67 35.07 68.74 32.27 68.42 L 31.74 68.14 C 32.08 67.61 32.77 66.53 33.11 66.00 Z" />
</g>
<g id="#c6a722ff">
<path fill="#c6a722" opacity="1.00" d=" M 63.81 66.31 C 64.39 66.08 65.55 65.64 66.13 65.42 C 67.30 65.82 68.47 66.24 69.63 66.68 C 69.30 67.74 68.98 68.80 68.67 69.86 L 67.27 70.43 C 67.34 69.83 67.48 68.63 67.55 68.03 C 66.99 68.07 65.89 68.17 65.33 68.21 C 64.75 68.41 63.57 68.82 62.99 69.02 C 62.90 68.63 62.71 67.84 62.62 67.45 C 62.92 67.17 63.51 66.59 63.81 66.31 Z" />
</g>
<g id="#c7a923ff">
<path fill="#c7a923" opacity="1.00" d=" M 21.31 67.21 C 23.09 67.17 22.77 69.46 23.43 70.59 C 23.03 71.07 22.22 72.04 21.81 72.52 C 22.38 73.02 23.52 74.02 24.09 74.52 C 24.49 74.18 25.30 73.50 25.70 73.16 L 26.48 72.49 C 27.02 72.01 27.56 71.52 28.11 71.04 C 28.63 71.78 29.67 73.25 30.19 73.99 C 33.37 74.32 36.55 74.76 39.75 74.94 C 37.94 73.21 35.63 72.17 33.16 71.85 C 33.46 71.58 34.08 71.04 34.39 70.77 C 37.31 69.82 41.33 72.57 40.37 76.03 C 39.50 76.11 37.75 76.27 36.88 76.35 C 37.44 78.03 38.13 79.71 39.68 80.73 C 39.66 82.63 39.61 84.53 39.55 86.43 C 38.85 87.12 38.22 87.88 37.66 88.68 C 36.54 88.20 35.56 87.44 34.49 86.87 C 35.46 85.95 36.45 85.03 37.44 84.12 C 37.55 83.63 37.77 82.64 37.87 82.15 C 36.88 81.30 35.88 80.46 34.86 79.64 C 35.17 80.67 35.49 81.69 35.81 82.71 C 34.85 83.87 33.91 85.03 32.96 86.20 C 32.22 86.10 30.73 85.90 29.98 85.80 L 30.32 83.50 L 31.09 82.95 L 31.92 82.71 L 32.44 82.59 L 33.33 82.38 C 33.16 80.75 31.79 78.92 33.17 77.45 C 33.48 77.76 34.11 78.38 34.42 78.68 C 35.40 77.96 33.88 77.03 33.45 76.45 C 32.41 76.42 31.41 76.72 30.40 76.90 C 30.52 77.31 30.77 78.14 30.89 78.55 C 29.91 80.01 28.98 81.49 28.05 82.97 C 27.31 82.76 25.84 82.34 25.10 82.13 C 25.15 80.79 25.09 79.44 25.03 78.10 C 26.07 78.64 27.12 79.17 28.17 79.70 C 27.70 78.55 27.51 77.17 26.42 76.41 C 25.55 76.70 24.70 77.04 23.86 77.42 C 22.88 76.30 21.92 75.17 20.91 74.09 C 20.74 72.60 20.31 71.16 19.61 69.84 C 20.17 68.95 20.73 68.08 21.31 67.21 M 27.13 74.35 C 26.71 75.72 27.21 76.22 28.63 75.86 C 29.04 74.49 28.54 73.98 27.13 74.35 Z" />
</g>
<g id="#ccad26ff">
<path fill="#ccad26" opacity="1.00" d=" M 59.93 65.53 C 62.00 67.52 61.58 70.34 61.51 72.90 C 61.57 73.18 61.71 73.73 61.77 74.00 L 62.08 74.71 C 62.42 74.47 63.11 73.98 63.45 73.73 C 63.58 73.55 63.84 73.19 63.97 73.00 C 65.42 72.68 66.86 72.34 68.30 71.95 C 68.21 72.51 68.04 73.62 67.96 74.17 C 66.94 74.69 65.90 75.16 64.87 75.63 C 65.68 75.70 67.29 75.82 68.10 75.89 L 67.81 76.40 C 66.18 79.04 64.22 81.45 62.14 83.76 C 61.36 83.56 59.80 83.16 59.01 82.96 C 59.33 81.87 59.66 80.78 59.98 79.70 C 61.22 79.65 62.45 79.59 63.69 79.53 C 63.79 78.56 63.88 77.59 63.96 76.62 C 62.65 76.77 61.33 76.91 60.02 77.04 C 59.45 73.23 59.07 69.34 59.93 65.53 Z" />
</g>
<g id="#c7a824ff">
<path fill="#c7a824" opacity="1.00" d=" M 70.37 69.76 C 70.19 64.63 76.60 66.66 79.70 66.85 C 78.99 67.79 78.26 68.72 77.52 69.63 C 77.45 69.69 77.31 69.80 77.24 69.86 C 75.30 68.97 73.33 68.18 71.30 67.53 C 71.83 69.63 73.58 70.64 75.48 71.23 C 77.40 71.65 78.71 73.15 78.61 75.18 C 77.46 76.59 75.52 76.28 73.92 76.56 C 74.60 76.84 75.95 77.39 76.63 77.67 C 76.01 79.16 75.48 80.68 75.12 82.25 C 74.12 82.45 73.12 82.65 72.12 82.85 C 71.83 82.23 71.24 80.98 70.95 80.36 L 71.14 79.59 C 71.93 79.45 73.50 79.17 74.29 79.03 C 72.35 77.77 70.46 76.25 68.10 75.89 C 68.33 75.48 68.79 74.67 69.02 74.27 C 71.86 74.01 74.68 74.58 77.50 74.87 C 75.12 73.22 71.87 72.38 70.37 69.76 Z" />
</g>
<g id="#200000ff">
<path fill="#200000" opacity="1.00" d=" M 28.26 68.24 L 28.51 67.97 C 28.45 68.04 28.32 68.17 28.26 68.24 Z" />
</g>
<g id="#988338ff">
<path fill="#988338" opacity="1.00" d=" M 62.99 69.02 C 63.57 68.82 64.75 68.41 65.33 68.21 C 65.22 69.15 65.25 70.10 65.34 71.04 C 65.82 70.88 66.79 70.58 67.27 70.43 L 68.67 69.86 C 68.57 70.38 68.39 71.43 68.30 71.95 C 66.86 72.34 65.42 72.68 63.97 73.00 C 63.68 71.67 63.33 70.34 62.99 69.02 Z" />
</g>
<g id="#4d3d24ff">
<path fill="#4d3d24" opacity="1.00" d=" M 65.33 68.21 C 65.89 68.17 66.99 68.07 67.55 68.03 C 67.48 68.63 67.34 69.83 67.27 70.43 C 66.79 70.58 65.82 70.88 65.34 71.04 C 65.25 70.10 65.22 69.15 65.33 68.21 Z" />
</g>
<g id="#6d1314ff">
<path fill="#6d1314" opacity="1.00" d=" M 71.30 67.53 C 73.33 68.18 75.30 68.97 77.24 69.86 L 75.48 71.23 C 73.58 70.64 71.83 69.63 71.30 67.53 Z" />
</g>
<g id="#a52415ff">
<path fill="#a52415" opacity="1.00" d=" M 29.58 69.76 C 31.26 68.06 32.47 70.57 33.16 71.85 C 31.97 74.40 29.07 72.02 29.58 69.76 Z" />
</g>
<g id="#6c2317ff">
<path fill="#6c2317" opacity="1.00" d=" M 28.11 71.04 C 28.50 70.51 29.02 70.10 29.58 69.76 C 29.07 72.02 31.97 74.40 33.16 71.85 C 35.63 72.17 37.94 73.21 39.75 74.94 C 36.55 74.76 33.37 74.32 30.19 73.99 C 29.67 73.25 28.63 71.78 28.11 71.04 Z" />
</g>
<g id="#962517ff">
<path fill="#962517" opacity="1.00" d=" M 21.81 72.52 C 22.22 72.04 23.03 71.07 23.43 70.59 L 24.02 70.01 L 25.24 70.43 C 25.36 71.11 25.58 72.48 25.70 73.16 C 25.30 73.50 24.49 74.18 24.09 74.52 C 23.52 74.02 22.38 73.02 21.81 72.52 Z" />
</g>
<g id="#846f2dff">
<path fill="#846f2d" opacity="1.00" d=" M 27.13 74.35 C 28.54 73.98 29.04 74.49 28.63 75.86 C 27.21 76.22 26.71 75.72 27.13 74.35 Z" />
</g>
<g id="#cfb120ff">
<path fill="#cfb120" opacity="1.00" d=" M 68.72 76.88 C 71.25 77.55 70.57 79.57 69.43 81.28 C 69.44 81.87 69.47 83.07 69.48 83.67 C 68.15 84.89 66.85 86.14 65.65 87.49 C 65.51 87.64 65.23 87.93 65.09 88.08 C 63.61 87.77 62.08 88.21 60.88 89.10 C 61.04 88.47 61.37 87.22 61.54 86.59 C 61.57 86.48 61.64 86.27 61.67 86.16 L 61.90 85.60 C 63.29 84.95 64.72 84.38 66.14 83.79 C 67.84 81.85 66.96 78.86 68.72 76.88 Z" />
</g>
<g id="#730a18ff">
<path fill="#730a18" opacity="1.00" d=" M 61.54 86.59 C 61.57 86.48 61.64 86.27 61.67 86.16 C 61.64 86.27 61.57 86.48 61.54 86.59 Z" />
</g>
</svg>
