<?xml version="1.0" encoding="UTF-8" ?>
<!DOCTYPE svg PUBLIC "-//W3C//DTD SVG 1.1//EN" "http://www.w3.org/Graphics/SVG/1.1/DTD/svg11.dtd">
<svg width="369pt" height="136pt" viewBox="0 0 369 136" version="1.1" xmlns="http://www.w3.org/2000/svg">
<g id="#fefffeff">
<path fill="#fefffe" opacity="1.00" d=" M 0.00 0.00 L 369.00 0.00 L 369.00 136.00 L 0.00 136.00 L 0.00 0.00 M 49.34 5.50 C 51.25 14.87 53.46 24.19 54.76 33.67 C 59.85 32.30 65.07 31.23 69.79 28.78 C 69.42 23.68 68.05 18.73 67.24 13.70 C 66.60 10.96 66.33 7.81 64.20 5.74 C 59.28 5.18 54.29 5.58 49.34 5.50 M 25.72 19.36 C 23.86 22.23 22.22 25.23 20.49 28.17 C 26.27 30.13 31.94 32.52 37.88 34.00 C 38.55 30.64 39.16 27.26 39.89 23.91 C 35.14 22.48 30.59 20.38 25.72 19.36 M 67.46 45.44 C 66.22 46.79 64.15 47.87 64.01 49.89 C 67.08 53.53 71.02 56.30 74.74 59.23 C 79.64 54.96 84.65 50.77 89.39 46.32 C 90.98 43.12 88.05 40.02 86.77 37.23 C 85.54 35.60 85.13 32.97 83.20 32.08 C 77.41 35.82 72.72 41.02 67.46 45.44 M 9.08 52.24 C 9.76 55.96 12.61 59.02 14.01 62.55 C 18.94 57.97 24.17 53.72 29.03 49.06 C 26.30 46.68 23.71 44.14 20.90 41.87 C 16.70 44.97 12.80 48.58 9.08 52.24 M 122.08 45.97 C 112.08 52.19 111.56 69.06 121.51 75.57 C 127.81 79.92 136.42 79.40 142.77 75.41 C 142.18 74.36 141.59 73.30 141.00 72.25 C 136.61 74.65 131.09 75.96 126.44 73.49 C 118.14 69.61 116.73 57.14 122.99 50.84 C 127.50 45.74 135.77 45.88 141.18 49.46 C 141.79 48.20 142.40 46.94 142.98 45.67 C 136.52 42.39 128.28 41.76 122.08 45.97 M 154.73 43.75 C 154.54 55.23 154.24 66.72 154.28 78.20 C 160.92 78.12 167.57 78.22 174.21 78.20 C 174.19 77.25 174.14 75.36 174.11 74.42 C 168.97 74.43 163.82 74.39 158.67 74.36 C 158.68 70.32 158.88 66.29 158.82 62.26 C 163.05 62.11 167.28 62.18 171.51 62.24 C 171.50 61.29 171.48 59.38 171.47 58.43 C 167.36 58.44 163.25 58.40 159.13 58.44 C 159.07 54.82 159.09 51.20 159.10 47.59 C 164.10 47.58 169.10 47.62 174.10 47.64 C 174.16 46.38 174.21 45.12 174.26 43.86 C 167.75 43.82 161.24 43.82 154.73 43.75 M 186.67 44.25 C 186.26 55.56 186.37 66.89 186.14 78.20 C 187.60 78.22 189.06 78.25 190.53 78.28 C 190.71 69.39 190.70 60.50 190.85 51.61 C 197.16 60.23 202.76 69.38 208.66 78.29 C 210.16 78.28 211.66 78.27 213.16 78.27 C 213.15 66.86 213.42 55.46 213.52 44.06 C 212.09 44.09 210.66 44.12 209.23 44.16 C 208.49 53.03 209.04 61.95 208.59 70.84 C 202.75 61.62 196.62 52.57 190.43 43.59 C 189.16 43.77 187.91 43.99 186.67 44.25 M 230.21 48.16 C 222.69 55.11 222.65 68.83 230.91 75.20 C 237.28 80.29 246.42 79.86 253.54 76.68 C 254.02 71.25 253.58 65.78 253.76 60.33 C 250.09 60.34 246.42 60.33 242.76 60.24 C 242.71 61.54 242.67 62.85 242.63 64.15 C 244.90 64.20 247.16 64.25 249.43 64.29 C 249.42 67.55 249.39 70.81 249.35 74.07 C 244.89 75.22 239.79 75.85 235.67 73.29 C 227.90 68.53 227.35 55.93 234.42 50.29 C 239.10 46.06 246.33 46.57 251.56 49.49 C 252.21 48.27 252.86 47.05 253.51 45.82 C 246.11 42.43 236.37 42.19 230.21 48.16 M 276.61 44.29 C 271.78 55.72 266.90 67.14 261.88 78.50 C 263.50 78.48 265.13 78.47 266.76 78.47 C 268.24 74.73 269.87 71.05 271.35 67.31 C 275.90 67.32 280.47 67.09 285.01 67.43 C 286.82 70.96 287.99 74.77 289.28 78.51 C 291.02 78.55 292.77 78.59 294.52 78.60 C 290.00 67.19 285.29 55.85 280.98 44.36 C 279.52 44.33 278.07 44.31 276.61 44.29 M 306.66 48.51 C 298.73 55.93 299.42 71.04 309.16 76.61 C 315.56 80.66 323.57 79.53 330.32 77.04 C 330.34 71.57 330.40 66.10 330.41 60.63 C 326.69 60.63 322.98 60.63 319.26 60.59 C 319.26 61.56 319.24 63.50 319.24 64.47 C 321.41 64.48 323.59 64.46 325.78 64.41 C 325.79 67.75 325.84 71.09 325.76 74.43 C 320.75 75.95 314.65 76.08 310.56 72.32 C 303.29 66.00 305.00 52.35 314.05 48.56 C 318.80 46.43 323.99 47.89 328.60 49.64 C 328.98 48.47 329.40 47.30 329.68 46.10 C 322.41 42.49 312.76 42.76 306.66 48.51 M 344.37 44.53 C 344.38 55.95 344.04 67.36 343.85 78.77 C 350.52 78.82 357.19 78.78 363.85 78.85 C 363.87 77.55 363.88 76.26 363.89 74.97 C 358.74 74.96 353.58 75.02 348.44 74.90 C 348.43 70.85 348.49 66.80 348.64 62.75 C 352.84 62.81 357.05 62.78 361.27 62.82 C 361.26 61.63 361.26 60.43 361.27 59.24 C 357.02 59.26 352.78 59.21 348.54 59.22 C 348.63 55.58 348.63 51.93 348.60 48.29 C 353.76 48.34 358.93 48.35 364.10 48.31 C 363.96 47.07 363.83 45.82 363.71 44.58 C 357.26 44.64 350.82 44.55 344.37 44.53 M 54.01 65.88 C 53.57 69.83 51.91 73.80 52.25 77.73 C 56.16 79.85 60.60 80.69 64.64 82.52 C 66.70 83.13 69.16 84.58 71.19 83.30 C 74.03 79.98 75.74 75.88 77.74 72.04 C 70.54 69.67 63.54 66.72 56.27 64.60 C 55.32 64.08 53.86 64.61 54.01 65.88 M 25.74 67.97 C 26.75 73.60 27.40 79.34 29.05 84.83 C 29.32 85.12 29.86 85.71 30.13 86.00 C 34.03 86.60 38.00 86.25 41.93 86.25 C 40.99 78.78 39.23 71.46 37.98 64.05 C 33.80 65.00 29.77 66.50 25.74 67.97 M 243.46 90.51 C 242.88 92.37 244.95 93.32 246.03 94.39 C 246.99 93.40 248.81 92.72 248.49 91.02 C 249.16 87.87 243.82 87.65 243.46 90.51 M 122.65 88.70 C 122.71 99.60 122.51 110.50 122.56 121.41 C 127.91 121.43 133.26 121.41 138.61 121.44 C 138.61 120.53 138.60 118.70 138.60 117.79 C 134.51 117.78 130.43 117.82 126.34 117.70 C 126.42 108.05 126.43 98.39 126.47 88.74 C 125.51 88.73 123.60 88.71 122.65 88.70 M 147.30 99.33 C 143.28 103.04 142.78 109.08 143.98 114.13 C 145.25 119.37 150.87 123.04 156.18 121.86 C 158.67 121.33 162.56 120.54 161.16 117.09 C 157.89 117.82 154.30 119.76 151.12 117.67 C 148.35 116.43 147.89 113.17 147.16 110.57 C 152.22 110.40 157.28 110.61 162.34 110.55 C 162.11 107.30 161.93 103.86 160.03 101.08 C 157.55 96.72 150.98 96.38 147.30 99.33 M 218.90 100.72 C 218.70 99.79 218.51 98.85 218.32 97.92 C 217.57 97.97 216.06 98.06 215.30 98.11 C 215.36 106.01 215.18 113.91 215.29 121.81 C 216.59 121.79 217.88 121.75 219.18 121.72 C 219.11 115.91 219.01 110.09 219.29 104.29 C 221.89 102.65 224.66 101.07 227.84 101.25 C 228.78 102.68 230.02 104.11 229.84 105.96 C 229.97 111.25 229.84 116.54 229.85 121.83 C 231.17 121.84 232.49 121.86 233.81 121.87 C 233.81 116.57 233.86 111.26 233.82 105.96 C 233.95 102.87 232.62 99.57 229.79 98.06 C 225.97 96.78 221.99 98.50 218.90 100.72 M 298.98 98.45 C 295.22 97.49 290.46 97.45 287.91 100.89 C 284.60 104.54 285.55 110.34 289.07 113.48 C 288.24 114.94 287.45 116.41 286.68 117.90 C 287.13 118.87 287.58 119.83 288.04 120.79 C 285.22 122.84 282.73 126.56 285.07 129.93 C 288.98 134.75 296.44 134.34 301.85 132.74 C 306.70 131.71 308.68 124.46 304.52 121.51 C 300.71 119.07 295.91 119.61 291.74 118.27 C 290.45 117.48 291.62 115.84 291.67 114.72 C 296.20 116.04 302.26 114.50 303.64 109.47 C 305.05 106.24 303.34 103.00 301.80 100.19 C 302.57 100.25 304.12 100.37 304.89 100.43 C 305.27 99.21 305.66 97.98 306.05 96.76 C 303.62 96.99 301.22 97.46 298.98 98.45 M 170.62 99.89 C 170.98 100.66 171.70 102.19 172.06 102.96 C 174.77 101.73 177.87 99.89 180.88 101.24 C 183.17 102.00 182.93 104.82 183.61 106.70 C 180.17 107.18 176.55 106.92 173.27 108.24 C 168.02 110.23 167.86 119.17 173.13 121.27 C 176.58 123.14 180.59 121.62 183.59 119.58 C 183.76 120.11 184.10 121.15 184.27 121.68 C 185.31 121.68 186.36 121.67 187.41 121.67 C 186.95 116.09 187.32 110.48 187.02 104.89 C 186.86 102.16 185.77 98.87 182.85 98.04 C 178.70 96.70 174.33 97.92 170.62 99.89 M 196.88 98.11 C 196.93 105.99 196.86 113.87 196.84 121.75 C 198.13 121.72 199.42 121.68 200.71 121.65 C 200.63 115.80 200.80 109.95 200.74 104.10 C 202.92 102.57 205.34 101.17 208.12 101.75 C 208.65 100.48 209.18 99.21 209.71 97.94 C 206.21 96.90 202.90 98.42 200.28 100.68 C 200.27 100.00 200.25 98.63 200.24 97.94 C 199.40 97.98 197.72 98.07 196.88 98.11 M 244.18 98.15 C 243.74 106.04 243.95 113.94 243.87 121.84 C 245.18 121.89 246.50 121.94 247.81 121.99 C 247.87 114.06 247.83 106.14 247.93 98.22 C 246.67 98.19 245.42 98.17 244.18 98.15 M 262.53 100.80 C 262.35 98.58 260.66 98.07 258.71 97.99 C 258.49 106.00 258.55 114.01 258.54 122.02 C 259.48 122.04 261.36 122.07 262.30 122.08 C 262.21 116.26 262.22 110.43 262.36 104.60 C 264.46 103.34 266.53 101.86 269.00 101.43 C 270.99 101.36 272.89 102.87 273.06 104.90 C 273.69 110.59 273.15 116.34 273.34 122.05 C 274.61 122.02 275.89 121.98 277.17 121.95 C 277.07 116.63 277.27 111.31 277.14 106.00 C 276.99 103.07 276.02 99.40 272.95 98.28 C 269.31 96.83 265.45 98.62 262.53 100.80 Z" />
<path fill="#fefffe" opacity="1.00" d=" M 272.97 63.46 C 274.77 58.57 276.62 53.71 278.45 48.83 C 280.33 53.69 282.03 58.60 283.69 63.53 C 280.12 63.47 276.54 63.50 272.97 63.46 Z" />
<path fill="#fefffe" opacity="1.00" d=" M 147.20 107.14 C 147.84 104.19 149.40 100.52 153.00 100.58 C 156.42 100.85 157.74 104.35 158.26 107.23 C 154.58 107.14 150.89 107.13 147.20 107.14 Z" />
<path fill="#fefffe" opacity="1.00" d=" M 290.60 103.51 C 292.57 100.45 296.72 100.99 299.35 102.83 C 300.49 105.89 300.59 110.32 296.91 111.62 C 292.14 113.75 287.78 107.51 290.60 103.51 Z" />
<path fill="#fefffe" opacity="1.00" d=" M 173.31 113.04 C 175.52 109.83 179.88 110.71 183.22 110.43 C 183.21 112.38 183.21 114.33 183.23 116.28 C 180.96 118.11 178.21 118.99 175.30 118.69 C 173.85 117.15 172.53 115.27 173.31 113.04 Z" />
<path fill="#fefffe" opacity="1.00" d=" M 290.52 122.67 C 293.04 121.54 295.94 122.86 298.55 123.20 C 300.55 123.41 303.52 125.12 302.40 127.49 C 300.76 130.81 296.30 130.94 293.10 130.48 C 290.92 129.90 287.93 128.59 288.12 125.88 C 288.48 124.57 289.31 123.34 290.52 122.67 Z" />
</g>
<g id="#6bbbf4ff">
<path fill="#6bbbf4" opacity="1.00" d=" M 49.34 5.50 C 54.29 5.58 59.28 5.18 64.20 5.74 C 66.33 7.81 66.60 10.96 67.24 13.70 C 68.05 18.73 69.42 23.68 69.79 28.78 C 65.07 31.23 59.85 32.30 54.76 33.67 C 53.46 24.19 51.25 14.87 49.34 5.50 Z" />
<path fill="#6bbbf4" opacity="1.00" d=" M 67.46 45.44 C 72.72 41.02 77.41 35.82 83.20 32.08 C 85.13 32.97 85.54 35.60 86.77 37.23 C 88.05 40.02 90.98 43.12 89.39 46.32 C 84.65 50.77 79.64 54.96 74.74 59.23 C 71.02 56.30 67.08 53.53 64.01 49.89 C 64.15 47.87 66.22 46.79 67.46 45.44 Z" />
<path fill="#6bbbf4" opacity="1.00" d=" M 54.01 65.88 C 53.86 64.61 55.32 64.08 56.27 64.60 C 63.54 66.72 70.54 69.67 77.74 72.04 C 75.74 75.88 74.03 79.98 71.19 83.30 C 69.16 84.58 66.70 83.13 64.64 82.52 C 60.60 80.69 56.16 79.85 52.25 77.73 C 51.91 73.80 53.57 69.83 54.01 65.88 Z" />
<path fill="#6bbbf4" opacity="1.00" d=" M 25.74 67.97 C 29.77 66.50 33.80 65.00 37.98 64.05 C 39.23 71.46 40.99 78.78 41.93 86.25 C 38.00 86.25 34.03 86.60 30.13 86.00 C 29.86 85.71 29.32 85.12 29.05 84.83 C 27.40 79.34 26.75 73.60 25.74 67.97 Z" />
</g>
<g id="#0b142fff">
<path fill="#0b142f" opacity="1.00" d=" M 25.72 19.36 C 30.59 20.38 35.14 22.48 39.89 23.91 C 39.16 27.26 38.55 30.64 37.88 34.00 C 31.94 32.52 26.27 30.13 20.49 28.17 C 22.22 25.23 23.86 22.23 25.72 19.36 Z" />
<path fill="#0b142f" opacity="1.00" d=" M 9.08 52.24 C 12.80 48.58 16.70 44.97 20.90 41.87 C 23.71 44.14 26.30 46.68 29.03 49.06 C 24.17 53.72 18.94 57.97 14.01 62.55 C 12.61 59.02 9.76 55.96 9.08 52.24 Z" />
<path fill="#0b142f" opacity="1.00" d=" M 122.08 45.97 C 128.28 41.76 136.52 42.39 142.98 45.67 C 142.40 46.94 141.79 48.20 141.18 49.46 C 135.77 45.88 127.50 45.74 122.99 50.84 C 116.73 57.14 118.14 69.61 126.44 73.49 C 131.09 75.96 136.61 74.65 141.00 72.25 C 141.59 73.30 142.18 74.36 142.77 75.41 C 136.42 79.40 127.81 79.92 121.51 75.57 C 111.56 69.06 112.08 52.19 122.08 45.97 Z" />
<path fill="#0b142f" opacity="1.00" d=" M 154.73 43.75 C 161.24 43.82 167.75 43.82 174.26 43.86 C 174.21 45.12 174.16 46.38 174.10 47.64 C 169.10 47.62 164.10 47.58 159.10 47.59 C 159.09 51.20 159.07 54.82 159.13 58.44 C 163.25 58.40 167.36 58.44 171.47 58.43 C 171.48 59.38 171.50 61.29 171.51 62.24 C 167.28 62.18 163.05 62.11 158.82 62.26 C 158.88 66.29 158.68 70.32 158.67 74.36 C 163.82 74.39 168.97 74.43 174.11 74.42 C 174.14 75.36 174.19 77.25 174.21 78.20 C 167.57 78.22 160.92 78.12 154.28 78.20 C 154.24 66.72 154.54 55.23 154.73 43.75 Z" />
<path fill="#0b142f" opacity="1.00" d=" M 186.67 44.25 C 187.91 43.99 189.16 43.77 190.43 43.59 C 196.62 52.57 202.75 61.62 208.59 70.84 C 209.04 61.95 208.49 53.03 209.23 44.16 C 210.66 44.12 212.09 44.09 213.52 44.06 C 213.42 55.46 213.15 66.86 213.16 78.27 C 211.66 78.27 210.16 78.28 208.66 78.29 C 202.76 69.38 197.16 60.23 190.85 51.61 C 190.70 60.50 190.71 69.39 190.53 78.28 C 189.06 78.25 187.60 78.22 186.14 78.20 C 186.37 66.89 186.26 55.56 186.67 44.25 Z" />
<path fill="#0b142f" opacity="1.00" d=" M 230.21 48.16 C 236.37 42.19 246.11 42.43 253.51 45.82 C 252.86 47.05 252.21 48.27 251.56 49.49 C 246.33 46.57 239.10 46.06 234.42 50.29 C 227.35 55.93 227.90 68.53 235.67 73.29 C 239.79 75.85 244.89 75.22 249.35 74.07 C 249.39 70.81 249.42 67.55 249.43 64.29 C 247.16 64.25 244.90 64.20 242.63 64.15 C 242.67 62.85 242.71 61.54 242.76 60.24 C 246.42 60.33 250.09 60.34 253.76 60.33 C 253.58 65.78 254.02 71.25 253.54 76.68 C 246.42 79.86 237.28 80.29 230.91 75.20 C 222.65 68.83 222.69 55.11 230.21 48.16 Z" />
<path fill="#0b142f" opacity="1.00" d=" M 276.61 44.29 C 278.07 44.31 279.52 44.33 280.98 44.36 C 285.29 55.85 290.00 67.19 294.52 78.60 C 292.77 78.59 291.02 78.55 289.28 78.51 C 287.99 74.77 286.82 70.96 285.01 67.43 C 280.47 67.09 275.90 67.32 271.35 67.31 C 269.87 71.05 268.24 74.73 266.76 78.47 C 265.13 78.47 263.50 78.48 261.88 78.50 C 266.90 67.14 271.78 55.72 276.61 44.29 M 272.97 63.46 C 276.54 63.50 280.12 63.47 283.69 63.53 C 282.03 58.60 280.33 53.69 278.45 48.83 C 276.62 53.71 274.77 58.57 272.97 63.46 Z" />
<path fill="#0b142f" opacity="1.00" d=" M 306.66 48.51 C 312.76 42.76 322.41 42.49 329.68 46.10 C 329.40 47.30 328.98 48.47 328.60 49.64 C 323.99 47.89 318.80 46.43 314.05 48.56 C 305.00 52.35 303.29 66.00 310.56 72.32 C 314.65 76.08 320.75 75.95 325.76 74.43 C 325.84 71.09 325.79 67.75 325.78 64.41 C 323.59 64.46 321.41 64.48 319.24 64.47 C 319.24 63.50 319.26 61.56 319.26 60.59 C 322.98 60.63 326.69 60.63 330.41 60.63 C 330.40 66.10 330.34 71.57 330.32 77.04 C 323.57 79.53 315.56 80.66 309.16 76.61 C 299.42 71.04 298.73 55.93 306.66 48.51 Z" />
<path fill="#0b142f" opacity="1.00" d=" M 344.37 44.53 C 350.82 44.55 357.26 44.64 363.71 44.58 C 363.83 45.82 363.96 47.07 364.10 48.31 C 358.93 48.35 353.76 48.34 348.60 48.29 C 348.63 51.93 348.63 55.58 348.54 59.22 C 352.78 59.21 357.02 59.26 361.27 59.24 C 361.26 60.43 361.26 61.63 361.27 62.82 C 357.05 62.78 352.84 62.81 348.64 62.75 C 348.49 66.80 348.43 70.85 348.44 74.90 C 353.58 75.02 358.74 74.96 363.89 74.97 C 363.88 76.26 363.87 77.55 363.85 78.85 C 357.19 78.78 350.52 78.82 343.85 78.77 C 344.04 67.36 344.38 55.95 344.37 44.53 Z" />
<path fill="#0b142f" opacity="1.00" d=" M 243.46 90.51 C 243.82 87.65 249.16 87.87 248.49 91.02 C 248.81 92.72 246.99 93.40 246.03 94.39 C 244.95 93.32 242.88 92.37 243.46 90.51 Z" />
<path fill="#0b142f" opacity="1.00" d=" M 122.65 88.70 C 123.60 88.71 125.51 88.73 126.47 88.74 C 126.43 98.39 126.42 108.05 126.34 117.70 C 130.43 117.82 134.51 117.78 138.60 117.79 C 138.60 118.70 138.61 120.53 138.61 121.44 C 133.26 121.41 127.91 121.43 122.56 121.41 C 122.51 110.50 122.71 99.60 122.65 88.70 Z" />
<path fill="#0b142f" opacity="1.00" d=" M 147.30 99.33 C 150.98 96.38 157.55 96.72 160.03 101.08 C 161.93 103.86 162.11 107.30 162.34 110.55 C 157.28 110.61 152.22 110.40 147.16 110.57 C 147.89 113.17 148.35 116.43 151.12 117.67 C 154.30 119.76 157.89 117.82 161.16 117.09 C 162.56 120.54 158.67 121.33 156.18 121.86 C 150.87 123.04 145.25 119.37 143.98 114.13 C 142.78 109.08 143.28 103.04 147.30 99.33 M 147.20 107.14 C 150.89 107.13 154.58 107.14 158.26 107.23 C 157.74 104.35 156.42 100.85 153.00 100.58 C 149.40 100.52 147.84 104.19 147.20 107.14 Z" />
<path fill="#0b142f" opacity="1.00" d=" M 218.90 100.72 C 221.99 98.50 225.97 96.78 229.79 98.06 C 232.62 99.57 233.95 102.87 233.82 105.96 C 233.86 111.26 233.81 116.57 233.81 121.87 C 232.49 121.86 231.17 121.84 229.85 121.83 C 229.84 116.54 229.97 111.25 229.84 105.96 C 230.02 104.11 228.78 102.68 227.84 101.25 C 224.66 101.07 221.89 102.65 219.29 104.29 C 219.01 110.09 219.11 115.91 219.18 121.72 C 217.88 121.75 216.59 121.79 215.29 121.81 C 215.18 113.91 215.36 106.01 215.30 98.11 C 216.06 98.06 217.57 97.97 218.32 97.92 C 218.51 98.85 218.70 99.79 218.90 100.72 Z" />
<path fill="#0b142f" opacity="1.00" d=" M 298.98 98.45 C 301.22 97.46 303.62 96.99 306.05 96.76 C 305.66 97.98 305.27 99.21 304.89 100.43 C 304.12 100.37 302.57 100.25 301.80 100.19 C 303.34 103.00 305.05 106.24 303.64 109.47 C 302.26 114.50 296.20 116.04 291.67 114.72 C 291.62 115.84 290.45 117.48 291.74 118.27 C 295.91 119.61 300.71 119.07 304.52 121.51 C 308.68 124.46 306.70 131.71 301.85 132.74 C 296.44 134.34 288.98 134.75 285.07 129.93 C 282.73 126.56 285.22 122.84 288.04 120.79 C 287.58 119.83 287.13 118.87 286.68 117.90 C 287.45 116.41 288.24 114.94 289.07 113.48 C 285.55 110.34 284.60 104.54 287.91 100.89 C 290.46 97.45 295.22 97.49 298.98 98.45 M 290.60 103.51 C 287.78 107.51 292.14 113.75 296.91 111.62 C 300.59 110.32 300.49 105.89 299.35 102.83 C 296.72 100.99 292.57 100.45 290.60 103.51 M 290.52 122.67 C 289.31 123.34 288.48 124.57 288.12 125.88 C 287.93 128.59 290.92 129.90 293.10 130.48 C 296.30 130.94 300.76 130.81 302.40 127.49 C 303.52 125.12 300.55 123.41 298.55 123.20 C 295.94 122.86 293.04 121.54 290.52 122.67 Z" />
<path fill="#0b142f" opacity="1.00" d=" M 170.62 99.89 C 174.33 97.92 178.70 96.70 182.85 98.04 C 185.77 98.87 186.86 102.16 187.02 104.89 C 187.32 110.48 186.95 116.09 187.41 121.67 C 186.36 121.67 185.31 121.68 184.27 121.68 C 184.10 121.15 183.76 120.11 183.59 119.58 C 180.59 121.62 176.58 123.14 173.13 121.27 C 167.86 119.17 168.02 110.23 173.27 108.24 C 176.55 106.92 180.17 107.18 183.61 106.70 C 182.93 104.82 183.17 102.00 180.88 101.24 C 177.87 99.89 174.77 101.73 172.06 102.96 C 171.70 102.19 170.98 100.66 170.62 99.89 M 173.31 113.04 C 172.53 115.27 173.85 117.15 175.30 118.69 C 178.21 118.99 180.96 118.11 183.23 116.28 C 183.21 114.33 183.21 112.38 183.22 110.43 C 179.88 110.71 175.52 109.83 173.31 113.04 Z" />
<path fill="#0b142f" opacity="1.00" d=" M 196.88 98.11 C 197.72 98.07 199.40 97.98 200.24 97.94 C 200.25 98.63 200.27 100.00 200.28 100.68 C 202.90 98.42 206.21 96.90 209.71 97.94 C 209.18 99.21 208.65 100.48 208.12 101.75 C 205.34 101.17 202.92 102.57 200.74 104.10 C 200.80 109.95 200.63 115.80 200.71 121.65 C 199.42 121.68 198.13 121.72 196.84 121.75 C 196.86 113.87 196.93 105.99 196.88 98.11 Z" />
<path fill="#0b142f" opacity="1.00" d=" M 244.18 98.15 C 245.42 98.17 246.67 98.19 247.93 98.22 C 247.83 106.14 247.87 114.06 247.81 121.99 C 246.50 121.94 245.18 121.89 243.87 121.84 C 243.95 113.94 243.74 106.04 244.18 98.15 Z" />
<path fill="#0b142f" opacity="1.00" d=" M 262.53 100.80 C 265.45 98.62 269.31 96.83 272.95 98.28 C 276.02 99.40 276.99 103.07 277.14 106.00 C 277.27 111.31 277.07 116.63 277.17 121.95 C 275.89 121.98 274.61 122.02 273.34 122.05 C 273.15 116.34 273.69 110.59 273.06 104.90 C 272.89 102.87 270.99 101.36 269.00 101.43 C 266.53 101.86 264.46 103.34 262.36 104.60 C 262.22 110.43 262.21 116.26 262.30 122.08 C 261.36 122.07 259.48 122.04 258.54 122.02 C 258.55 114.01 258.49 106.00 258.71 97.99 C 260.66 98.07 262.35 98.58 262.53 100.80 Z" />
</g>
</svg>
