<?xml version="1.0" encoding="UTF-8" ?>
<!DOCTYPE svg PUBLIC "-//W3C//DTD SVG 1.1//EN" "http://www.w3.org/Graphics/SVG/1.1/DTD/svg11.dtd">
<svg width="150pt" height="33pt" viewBox="0 0 150 33" version="1.1" xmlns="http://www.w3.org/2000/svg">
<g id="#fefefeff">
<path fill="#fefefe" opacity="1.00" d=" M 0.00 0.00 L 150.00 0.00 L 150.00 1.17 C 100.70 1.02 51.39 1.12 2.09 1.09 C 1.75 11.72 2.72 22.40 1.75 33.00 L 0.00 33.00 L 0.00 0.00 Z" />
<path fill="#fefefe" opacity="1.00" d=" M 13.61 5.58 C 14.62 4.65 15.77 3.88 16.87 3.06 C 18.37 4.03 19.88 4.98 21.40 5.91 C 21.33 7.10 21.26 8.30 21.19 9.50 C 21.78 9.54 22.96 9.62 23.55 9.65 C 23.89 9.14 24.56 8.12 24.90 7.60 C 26.36 8.42 27.82 9.25 29.27 10.10 C 29.03 11.68 28.81 13.26 28.61 14.85 C 27.66 15.40 26.67 15.91 25.77 16.55 C 25.89 17.50 26.14 18.42 26.34 19.35 C 26.94 19.38 28.14 19.43 28.75 19.46 C 28.87 21.19 29.01 22.91 29.18 24.63 C 27.77 25.50 26.37 26.38 24.97 27.25 C 24.27 26.61 23.58 25.97 22.89 25.33 C 22.30 25.40 21.12 25.55 20.53 25.63 C 20.61 27.00 20.68 28.37 20.75 29.74 C 19.39 30.22 18.06 30.80 16.73 31.37 C 15.81 30.82 14.88 30.29 13.94 29.77 L 12.32 29.66 C 12.78 28.22 13.23 26.79 13.68 25.35 C 11.95 25.70 10.24 26.13 8.53 26.60 C 7.13 26.00 5.72 25.41 4.35 24.73 C 4.42 23.87 4.50 23.00 4.58 22.14 C 4.13 19.44 5.91 18.37 8.24 17.90 C 8.24 17.19 8.24 16.49 8.24 15.79 C 6.99 15.60 5.74 15.42 4.49 15.23 C 4.63 14.35 4.76 13.46 4.90 12.58 C 3.93 9.12 8.22 8.51 10.46 7.52 C 10.41 8.02 10.31 9.02 10.26 9.52 C 10.96 9.52 12.35 9.52 13.04 9.51 C 13.22 8.20 13.30 6.87 13.61 5.58 Z" />
<path fill="#fefefe" opacity="1.00" d=" M 33.45 11.74 C 34.56 11.72 35.66 11.70 36.77 11.68 C 36.91 12.86 37.05 14.04 37.19 15.22 C 38.06 15.21 38.93 15.20 39.80 15.19 C 39.78 14.33 39.75 12.60 39.73 11.74 C 40.65 11.74 42.48 11.74 43.40 11.74 C 43.40 15.04 43.39 18.34 43.37 21.64 C 42.47 21.63 40.66 21.60 39.76 21.58 C 39.74 20.30 39.71 19.01 39.69 17.73 C 39.07 17.72 37.84 17.71 37.23 17.71 C 37.15 19.00 37.08 20.30 37.01 21.59 C 35.82 21.61 34.63 21.62 33.43 21.63 C 33.44 18.34 33.44 15.04 33.45 11.74 Z" />
<path fill="#fefefe" opacity="1.00" d=" M 84.19 13.81 C 86.34 11.14 89.75 11.39 92.68 12.44 C 92.57 13.27 92.45 14.10 92.34 14.94 C 91.79 15.38 90.70 16.26 90.15 16.70 C 92.01 16.39 93.86 16.05 95.73 15.73 C 95.17 16.84 94.62 17.95 94.06 19.05 C 94.99 19.90 95.92 20.76 96.85 21.62 C 93.36 21.44 89.87 21.71 86.38 21.48 C 84.63 21.45 84.47 19.35 83.82 18.17 C 84.52 17.50 85.22 16.83 85.92 16.16 C 85.48 15.57 84.62 14.40 84.19 13.81 M 87.86 13.32 C 87.26 14.91 87.77 15.50 89.40 15.08 C 90.02 13.48 89.50 12.89 87.86 13.32 M 87.54 18.02 C 87.16 19.44 87.66 19.92 89.04 19.45 C 89.42 18.03 88.92 17.55 87.54 18.02 Z" />
<path fill="#fefefe" opacity="1.00" d=" M 102.79 11.76 C 103.69 11.75 105.50 11.73 106.41 11.72 C 106.41 12.58 106.40 14.31 106.39 15.18 C 107.02 15.19 108.26 15.21 108.88 15.22 C 108.96 14.34 109.13 12.59 109.21 11.71 C 110.03 11.71 111.69 11.73 112.52 11.73 C 112.53 15.04 112.52 18.34 112.51 21.64 C 111.63 21.63 109.85 21.60 108.96 21.58 C 108.91 20.28 108.86 18.99 108.81 17.69 C 108.23 17.70 107.06 17.74 106.48 17.75 C 106.45 19.03 106.42 20.31 106.40 21.60 C 105.49 21.60 103.68 21.61 102.78 21.62 C 102.79 18.33 102.79 15.04 102.79 11.76 Z" />
<path fill="#fefefe" opacity="1.00" d=" M 138.10 11.88 C 141.03 10.19 138.41 15.27 138.10 11.88 Z" />
<path fill="#fefefe" opacity="1.00" d=" M 44.30 15.27 C 46.80 13.31 50.25 13.78 52.64 15.64 C 52.61 17.62 52.59 19.61 52.58 21.60 C 49.87 21.52 47.16 21.53 44.45 21.51 C 43.17 18.12 46.49 16.37 49.34 16.07 C 47.66 15.82 45.97 15.57 44.30 15.27 M 47.52 17.99 C 47.04 19.64 47.61 20.17 49.22 19.59 C 49.70 17.95 49.13 17.41 47.52 17.99 Z" />
<path fill="#fefefe" opacity="1.00" d=" M 53.53 15.67 C 55.20 14.82 57.02 13.47 59.00 14.20 C 61.02 14.45 61.19 16.83 61.90 18.30 C 60.06 18.40 58.23 18.53 56.40 18.71 C 58.05 19.67 59.98 19.64 61.81 19.88 C 60.60 22.44 57.68 21.49 55.45 21.58 C 54.81 20.82 54.17 20.05 53.53 19.29 C 53.53 18.38 53.53 16.57 53.53 15.67 M 57.39 16.38 C 57.64 16.64 57.64 16.64 57.39 16.38 Z" />
<path fill="#fefefe" opacity="1.00" d=" M 62.13 15.92 C 63.70 13.33 67.52 13.60 69.69 15.22 C 68.22 15.51 66.74 15.77 65.26 16.01 C 66.95 16.52 68.65 17.27 69.70 18.75 C 69.43 22.40 62.89 22.96 61.93 19.69 C 63.06 19.64 65.33 19.53 66.47 19.48 C 64.87 18.46 62.22 18.27 62.13 15.92 Z" />
<path fill="#fefefe" opacity="1.00" d=" M 69.42 17.03 C 70.79 15.28 72.61 13.53 75.07 14.06 C 77.44 14.04 77.93 16.69 78.68 18.41 C 77.07 18.43 75.47 18.43 73.86 18.43 C 74.25 17.82 75.03 16.61 75.42 16.00 L 73.67 15.22 C 73.67 16.69 73.68 18.15 73.68 19.62 C 75.18 19.62 76.68 19.62 78.19 19.62 C 77.69 22.86 73.97 21.47 71.84 21.39 C 70.69 20.15 70.15 18.51 69.42 17.03 Z" />
<path fill="#fefefe" opacity="1.00" d=" M 114.19 14.39 C 116.62 14.20 119.65 13.41 121.56 15.48 C 121.95 17.50 121.84 19.57 121.90 21.62 C 119.65 21.56 117.40 21.63 115.16 21.48 C 113.61 21.47 113.15 19.75 113.63 18.50 C 115.38 17.66 117.17 16.92 118.97 16.18 C 117.75 15.82 116.53 15.43 115.33 15.02 L 114.19 14.39 M 116.96 18.00 C 116.44 19.66 116.98 20.21 118.58 19.63 C 119.10 17.97 118.56 17.42 116.96 18.00 Z" />
<path fill="#fefefe" opacity="1.00" d=" M 123.23 14.20 C 125.39 14.30 127.56 14.34 129.73 14.32 C 129.09 15.85 127.96 17.04 126.70 18.07 C 126.67 19.26 126.63 20.44 126.60 21.62 C 125.48 21.62 124.37 21.62 123.25 21.62 C 123.25 19.15 123.24 16.67 123.23 14.20 Z" />
<path fill="#fefefe" opacity="1.00" d=" M 130.51 14.20 C 133.86 14.45 137.22 14.45 140.57 14.21 C 140.58 16.68 140.58 19.15 140.58 21.62 C 139.50 21.62 138.42 21.62 137.34 21.62 C 137.35 19.65 137.35 17.69 137.34 15.72 C 135.94 16.47 134.62 17.34 133.48 18.45 C 133.57 19.24 133.74 20.81 133.82 21.60 C 132.69 21.61 131.56 21.61 130.43 21.62 C 130.44 19.14 130.48 16.67 130.51 14.20 Z" />
<path fill="#fefefe" opacity="1.00" d=" M 141.44 17.16 C 141.49 13.29 146.34 14.18 148.83 14.22 C 147.85 14.71 145.88 15.70 144.90 16.19 C 146.29 16.96 147.67 17.74 149.06 18.52 C 148.72 19.42 148.38 20.32 148.04 21.21 C 145.53 21.78 142.67 22.14 140.83 19.91 C 142.18 19.78 144.88 19.50 146.23 19.36 C 144.62 18.67 142.98 18.02 141.44 17.16 Z" />
</g>
<g id="#757bafff">
<path fill="#757baf" opacity="1.00" d=" M 2.09 1.09 C 51.39 1.12 100.70 1.02 150.00 1.17 L 150.00 33.00 L 149.32 33.00 C 149.22 32.22 149.00 30.65 148.89 29.86 C 106.18 29.71 63.46 29.95 20.75 29.74 C 20.68 28.37 20.61 27.00 20.53 25.63 C 21.12 25.55 22.30 25.40 22.89 25.33 C 23.58 25.97 24.27 26.61 24.97 27.25 C 26.37 26.38 27.77 25.50 29.18 24.63 C 29.01 22.91 28.87 21.19 28.75 19.46 C 28.14 19.43 26.94 19.38 26.34 19.35 C 26.14 18.42 25.89 17.50 25.77 16.55 C 26.67 15.91 27.66 15.40 28.61 14.85 C 28.81 13.26 29.03 11.68 29.27 10.10 C 29.67 11.86 29.90 13.65 30.15 15.44 C 29.00 15.97 27.86 16.51 26.73 17.05 C 27.67 17.83 28.62 18.60 29.57 19.38 C 29.75 20.73 29.93 22.08 30.12 23.43 C 65.75 23.42 101.38 23.42 137.01 23.44 C 140.80 23.35 144.67 23.87 148.40 23.06 C 148.80 22.51 149.59 21.41 149.99 20.86 L 148.04 21.21 C 148.38 20.32 148.72 19.42 149.06 18.52 C 147.67 17.74 146.29 16.96 144.90 16.19 C 145.88 15.70 147.85 14.71 148.83 14.22 C 149.40 10.03 149.25 5.80 149.15 1.60 C 100.34 1.62 51.52 1.51 2.71 1.70 C 2.70 7.82 2.38 13.95 2.64 20.06 C 2.60 21.79 3.34 23.38 4.35 24.73 C 5.72 25.41 7.13 26.00 8.53 26.60 C 10.24 26.13 11.95 25.70 13.68 25.35 C 13.23 26.79 12.78 28.22 12.32 29.66 C 9.26 29.65 6.19 29.82 3.13 29.94 C 2.84 30.71 2.26 32.24 1.96 33.00 L 1.75 33.00 C 2.72 22.40 1.75 11.72 2.09 1.09 Z" />
<path fill="#757baf" opacity="1.00" d=" M 113.75 14.15 C 113.86 14.21 114.08 14.33 114.19 14.39 L 115.33 15.02 C 116.53 15.43 117.75 15.82 118.97 16.18 C 117.17 16.92 115.38 17.66 113.63 18.50 C 113.67 17.05 113.71 15.60 113.75 14.15 Z" />
<path fill="#757baf" opacity="1.00" d=" M 57.39 16.38 C 57.64 16.64 57.64 16.64 57.39 16.38 Z" />
<path fill="#757baf" opacity="1.00" d=" M 47.52 17.99 C 49.13 17.41 49.70 17.95 49.22 19.59 C 47.61 20.17 47.04 19.64 47.52 17.99 Z" />
<path fill="#757baf" opacity="1.00" d=" M 87.54 18.02 C 88.92 17.55 89.42 18.03 89.04 19.45 C 87.66 19.92 87.16 19.44 87.54 18.02 Z" />
<path fill="#757baf" opacity="1.00" d=" M 116.96 18.00 C 118.56 17.42 119.10 17.97 118.58 19.63 C 116.98 20.21 116.44 19.66 116.96 18.00 Z" />
</g>
<g id="#3b388fff">
<path fill="#3b388f" opacity="1.00" d=" M 2.71 1.70 C 51.52 1.51 100.34 1.62 149.15 1.60 C 149.25 5.80 149.40 10.03 148.83 14.22 C 146.34 14.18 141.49 13.29 141.44 17.16 C 142.98 18.02 144.62 18.67 146.23 19.36 C 144.88 19.50 142.18 19.78 140.83 19.91 C 142.67 22.14 145.53 21.78 148.04 21.21 L 149.99 20.86 C 149.59 21.41 148.80 22.51 148.40 23.06 C 144.67 23.87 140.80 23.35 137.01 23.44 C 101.38 23.42 65.75 23.42 30.12 23.43 C 29.93 22.08 29.75 20.73 29.57 19.38 C 28.62 18.60 27.67 17.83 26.73 17.05 C 27.86 16.51 29.00 15.97 30.15 15.44 C 29.90 13.65 29.67 11.86 29.27 10.10 C 27.82 9.25 26.36 8.42 24.90 7.60 C 24.56 8.12 23.89 9.14 23.55 9.65 C 22.96 9.62 21.78 9.54 21.19 9.50 C 21.26 8.30 21.33 7.10 21.40 5.91 C 19.88 4.98 18.37 4.03 16.87 3.06 C 15.77 3.88 14.62 4.65 13.61 5.58 C 13.30 6.87 13.22 8.20 13.04 9.51 C 12.35 9.52 10.96 9.52 10.26 9.52 C 10.31 9.02 10.41 8.02 10.46 7.52 C 8.22 8.51 3.93 9.12 4.90 12.58 C 4.76 13.46 4.63 14.35 4.49 15.23 C 5.74 15.42 6.99 15.60 8.24 15.79 C 8.24 16.49 8.24 17.19 8.24 17.90 C 5.91 18.37 4.13 19.44 4.58 22.14 C 4.50 23.00 4.42 23.87 4.35 24.73 C 3.34 23.38 2.60 21.79 2.64 20.06 C 2.38 13.95 2.70 7.82 2.71 1.70 M 33.45 11.74 C 33.44 15.04 33.44 18.34 33.43 21.63 C 34.63 21.62 35.82 21.61 37.01 21.59 C 37.08 20.30 37.15 19.00 37.23 17.71 C 37.84 17.71 39.07 17.72 39.69 17.73 C 39.71 19.01 39.74 20.30 39.76 21.58 C 40.66 21.60 42.47 21.63 43.37 21.64 C 43.39 18.34 43.40 15.04 43.40 11.74 C 42.48 11.74 40.65 11.74 39.73 11.74 C 39.75 12.60 39.78 14.33 39.80 15.19 C 38.93 15.20 38.06 15.21 37.19 15.22 C 37.05 14.04 36.91 12.86 36.77 11.68 C 35.66 11.70 34.56 11.72 33.45 11.74 M 84.19 13.81 C 84.62 14.40 85.48 15.57 85.92 16.16 C 85.22 16.83 84.52 17.50 83.82 18.17 C 84.47 19.35 84.63 21.45 86.38 21.48 C 89.87 21.71 93.36 21.44 96.85 21.62 C 95.92 20.76 94.99 19.90 94.06 19.05 C 94.62 17.95 95.17 16.84 95.73 15.73 C 93.86 16.05 92.01 16.39 90.15 16.70 C 90.70 16.26 91.79 15.38 92.34 14.94 C 92.45 14.10 92.57 13.27 92.68 12.44 C 89.75 11.39 86.34 11.14 84.19 13.81 M 102.79 11.76 C 102.79 15.04 102.79 18.33 102.78 21.62 C 103.68 21.61 105.49 21.60 106.40 21.60 C 106.42 20.31 106.45 19.03 106.48 17.75 C 107.06 17.74 108.23 17.70 108.81 17.69 C 108.86 18.99 108.91 20.28 108.96 21.58 C 109.85 21.60 111.63 21.63 112.51 21.64 C 112.52 18.34 112.53 15.04 112.52 11.73 C 111.69 11.73 110.03 11.71 109.21 11.71 C 109.13 12.59 108.96 14.34 108.88 15.22 C 108.26 15.21 107.02 15.19 106.39 15.18 C 106.40 14.31 106.41 12.58 106.41 11.72 C 105.50 11.73 103.69 11.75 102.79 11.76 M 138.10 11.88 C 138.41 15.27 141.03 10.19 138.10 11.88 M 44.30 15.27 C 45.97 15.57 47.66 15.82 49.34 16.07 C 46.49 16.37 43.17 18.12 44.45 21.51 C 47.16 21.53 49.87 21.52 52.58 21.60 C 52.59 19.61 52.61 17.62 52.64 15.64 C 50.25 13.78 46.80 13.31 44.30 15.27 M 53.53 15.67 C 53.53 16.57 53.53 18.38 53.53 19.29 C 54.17 20.05 54.81 20.82 55.45 21.58 C 57.68 21.49 60.60 22.44 61.81 19.88 C 59.98 19.64 58.05 19.67 56.40 18.71 C 58.23 18.53 60.06 18.40 61.90 18.30 C 61.19 16.83 61.02 14.45 59.00 14.20 C 57.02 13.47 55.20 14.82 53.53 15.67 M 62.13 15.92 C 62.22 18.27 64.87 18.46 66.47 19.48 C 65.33 19.53 63.06 19.64 61.93 19.69 C 62.89 22.96 69.43 22.40 69.70 18.75 C 68.65 17.27 66.95 16.52 65.26 16.01 C 66.74 15.77 68.22 15.51 69.69 15.22 C 67.52 13.60 63.70 13.33 62.13 15.92 M 69.42 17.03 C 70.15 18.51 70.69 20.15 71.84 21.39 C 73.97 21.47 77.69 22.86 78.19 19.62 C 76.68 19.62 75.18 19.62 73.68 19.62 C 73.68 18.15 73.67 16.69 73.67 15.22 L 75.42 16.00 C 75.03 16.61 74.25 17.82 73.86 18.43 C 75.47 18.43 77.07 18.43 78.68 18.41 C 77.93 16.69 77.44 14.04 75.07 14.06 C 72.61 13.53 70.79 15.28 69.42 17.03 M 113.75 14.15 C 113.71 15.60 113.67 17.05 113.63 18.50 C 113.15 19.75 113.61 21.47 115.16 21.48 C 117.40 21.63 119.65 21.56 121.90 21.62 C 121.84 19.57 121.95 17.50 121.56 15.48 C 119.65 13.41 116.62 14.20 114.19 14.39 C 114.08 14.33 113.86 14.21 113.75 14.15 M 123.23 14.20 C 123.24 16.67 123.25 19.15 123.25 21.62 C 124.37 21.62 125.48 21.62 126.60 21.62 C 126.63 20.44 126.67 19.26 126.70 18.07 C 127.96 17.04 129.09 15.85 129.73 14.32 C 127.56 14.34 125.39 14.30 123.23 14.20 M 130.51 14.20 C 130.48 16.67 130.44 19.14 130.43 21.62 C 131.56 21.61 132.69 21.61 133.82 21.60 C 133.74 20.81 133.57 19.24 133.48 18.45 C 134.62 17.34 135.94 16.47 137.34 15.72 C 137.35 17.69 137.35 19.65 137.34 21.62 C 138.42 21.62 139.50 21.62 140.58 21.62 C 140.58 19.15 140.58 16.68 140.57 14.21 C 137.22 14.45 133.86 14.45 130.51 14.20 Z" />
<path fill="#3b388f" opacity="1.00" d=" M 87.86 13.32 C 89.50 12.89 90.02 13.48 89.40 15.08 C 87.77 15.50 87.26 14.91 87.86 13.32 Z" />
<path fill="#3b388f" opacity="1.00" d=" M 3.13 29.94 C 6.19 29.82 9.26 29.65 12.32 29.66 L 13.94 29.77 C 14.88 30.29 15.81 30.82 16.73 31.37 C 18.06 30.80 19.39 30.22 20.75 29.74 C 63.46 29.95 106.18 29.71 148.89 29.86 C 149.00 30.65 149.22 32.22 149.32 33.00 L 1.96 33.00 C 2.26 32.24 2.84 30.71 3.13 29.94 Z" />
</g>
</svg>
