<?xml version="1.0" encoding="UTF-8" ?>
<!DOCTYPE svg PUBLIC "-//W3C//DTD SVG 1.1//EN" "http://www.w3.org/Graphics/SVG/1.1/DTD/svg11.dtd">
<svg width="240pt" height="75pt" viewBox="0 0 240 75" version="1.1" xmlns="http://www.w3.org/2000/svg">
<g id="#ffffffff">
</g>
<g id="#e30512ff">
<path fill="#e30512" opacity="1.00" d=" M 3.98 14.05 C 4.41 12.22 6.48 12.51 7.91 12.39 C 12.65 12.39 17.38 12.31 22.12 12.42 C 23.36 12.36 24.32 13.27 25.38 13.75 C 24.82 20.35 26.35 27.20 24.43 33.61 C 18.31 33.69 12.18 33.85 6.07 33.60 C 3.45 33.80 3.80 30.72 3.76 29.00 C 3.90 24.02 3.51 19.01 3.98 14.05 M 9.83 15.25 C 9.84 20.36 9.75 25.47 10.00 30.57 C 12.97 30.51 15.96 30.68 18.92 30.31 C 19.05 29.68 19.31 28.42 19.44 27.79 C 17.43 27.76 15.42 27.76 13.41 27.75 C 13.42 23.60 13.42 19.44 13.41 15.29 C 12.51 15.28 10.73 15.26 9.83 15.25 Z" />
<path fill="#e30512" opacity="1.00" d=" M 120.96 14.92 C 120.87 13.36 122.40 12.06 123.91 12.15 C 128.96 12.04 134.02 12.09 139.08 12.11 C 140.35 12.03 141.31 13.05 142.39 13.57 C 142.29 19.85 142.28 26.12 142.39 32.40 C 139.57 34.19 136.14 33.40 133.00 33.55 C 129.33 33.39 125.59 33.93 121.98 33.20 C 120.49 31.87 121.02 29.74 120.88 27.98 C 120.96 23.62 120.79 19.27 120.96 14.92 M 129.07 19.78 C 129.09 23.34 129.09 26.90 129.02 30.46 C 129.84 30.49 131.49 30.55 132.31 30.58 C 132.50 28.21 132.09 25.63 133.27 23.46 C 134.04 23.34 135.58 23.10 136.35 22.98 C 136.69 21.89 137.03 20.80 137.37 19.72 C 135.90 19.99 134.44 20.28 132.98 20.59 C 131.68 20.30 130.38 20.04 129.07 19.78 Z" />
<path fill="#e30512" opacity="1.00" d=" M 76.06 46.99 C 77.88 45.88 79.99 46.86 81.85 47.28 C 81.55 48.11 81.25 48.95 80.95 49.79 C 80.17 49.73 78.62 49.61 77.85 49.55 C 77.66 50.55 77.48 51.55 77.31 52.55 C 78.57 52.65 79.84 52.74 81.11 52.83 C 81.15 53.44 81.24 54.66 81.29 55.26 C 80.49 55.34 78.90 55.49 78.11 55.56 C 78.22 57.45 78.33 59.33 78.46 61.22 C 77.28 61.38 76.10 61.54 74.92 61.71 C 75.52 58.34 72.63 55.27 73.94 52.11 C 74.49 50.37 74.33 48.12 76.06 46.99 Z" />
<path fill="#e30512" opacity="1.00" d=" M 131.68 47.43 C 132.84 47.50 134.02 47.56 135.19 47.63 C 134.34 52.43 134.52 57.33 135.37 62.11 C 134.48 62.17 132.69 62.28 131.79 62.34 C 131.18 57.39 131.23 52.39 131.68 47.43 Z" />
<path fill="#e30512" opacity="1.00" d=" M 18.96 50.92 C 21.11 47.00 26.81 47.08 29.51 50.35 C 29.54 50.95 29.60 52.15 29.63 52.76 C 27.74 52.72 25.94 52.23 24.49 50.98 C 20.80 52.36 21.67 56.63 23.94 58.90 C 25.05 57.91 26.13 56.90 27.18 55.86 C 27.89 55.97 29.31 56.18 30.02 56.28 C 29.41 58.13 28.77 60.20 26.94 61.22 C 24.98 61.69 22.96 61.38 20.97 61.31 C 18.34 58.61 16.68 54.36 18.96 50.92 Z" />
<path fill="#e30512" opacity="1.00" d=" M 30.71 47.86 C 31.71 47.86 33.72 47.87 34.72 47.87 C 34.68 49.47 34.63 51.08 34.58 52.68 C 36.46 52.42 39.14 51.65 40.23 53.81 C 41.24 56.23 40.59 58.99 40.70 61.55 C 39.51 61.43 38.32 61.31 37.13 61.19 C 37.06 59.34 38.49 54.93 35.36 55.30 C 34.31 57.17 34.80 59.47 34.55 61.53 C 33.32 61.17 31.58 61.66 30.81 60.37 C 31.25 56.21 31.37 52.00 30.71 47.86 Z" />
<path fill="#e30512" opacity="1.00" d=" M 42.63 48.44 C 44.12 48.51 45.94 48.18 46.57 49.97 C 46.16 52.18 44.07 51.75 42.42 51.75 C 42.48 50.64 42.55 49.54 42.63 48.44 Z" />
<path fill="#e30512" opacity="1.00" d=" M 48.16 47.53 C 49.41 47.55 50.66 47.57 51.91 47.59 C 51.05 52.40 51.09 57.34 52.06 62.12 C 51.14 62.16 49.29 62.24 48.37 62.28 C 47.67 57.39 47.85 52.44 48.16 47.53 Z" />
<path fill="#e30512" opacity="1.00" d=" M 59.63 48.49 C 60.95 48.38 62.27 48.27 63.60 48.17 C 63.90 52.98 63.95 57.80 63.93 62.62 C 60.38 60.95 54.29 62.70 53.03 57.90 C 52.09 53.92 56.41 50.65 60.08 52.28 C 59.93 51.01 59.78 49.75 59.63 48.49 M 56.42 58.60 C 57.59 58.53 59.00 59.06 59.93 58.06 C 59.89 57.37 59.82 55.98 59.78 55.29 C 57.35 53.63 56.09 56.58 56.42 58.60 Z" />
<path fill="#e30512" opacity="1.00" d=" M 91.36 49.27 C 91.86 48.22 93.32 48.56 94.24 48.18 C 94.50 48.85 95.01 50.20 95.27 50.88 C 94.60 51.29 93.25 52.13 92.57 52.55 C 91.90 51.57 90.70 50.59 91.36 49.27 Z" />
<path fill="#e30512" opacity="1.00" d=" M 164.00 47.79 C 165.34 47.83 166.68 47.86 168.02 47.89 C 167.97 49.48 167.93 51.08 167.88 52.68 C 169.75 52.30 172.04 51.90 173.36 53.70 C 174.08 56.28 173.74 59.00 173.68 61.65 C 172.88 61.52 171.29 61.27 170.49 61.15 C 170.36 59.35 170.47 57.55 170.48 55.75 C 169.90 55.61 168.75 55.33 168.18 55.20 C 168.06 57.21 167.99 59.23 167.93 61.25 C 166.61 61.24 165.30 61.24 163.98 61.24 C 163.91 56.75 164.00 52.27 164.00 47.79 Z" />
<path fill="#e30512" opacity="1.00" d=" M 197.43 49.73 C 198.69 48.89 200.10 48.39 201.62 48.29 C 201.51 49.80 201.28 51.30 201.16 52.81 L 201.33 53.39 C 201.47 56.05 201.49 58.71 201.62 61.38 C 200.50 61.37 199.39 61.37 198.29 61.36 C 198.31 58.49 197.73 55.46 198.74 52.70 C 198.88 51.52 197.97 50.67 197.43 49.73 Z" />
<path fill="#e30512" opacity="1.00" d=" M 125.68 48.44 C 126.62 48.38 128.48 48.27 129.41 48.21 C 129.53 53.04 129.60 57.86 129.49 62.69 C 126.34 60.74 121.83 62.53 119.39 59.50 C 119.27 57.67 119.31 55.84 119.44 54.02 C 120.70 51.68 123.61 51.86 125.83 52.34 C 125.78 51.04 125.73 49.74 125.68 48.44 M 122.66 55.63 C 120.25 58.15 126.21 60.58 125.80 57.00 C 126.59 54.91 123.54 54.08 122.66 55.63 Z" />
<path fill="#e30512" opacity="1.00" d=" M 82.36 50.86 C 84.80 51.67 87.27 51.33 89.75 51.21 C 89.92 51.75 90.27 52.83 90.44 53.37 C 89.00 53.85 87.56 54.36 86.15 54.93 C 86.24 57.03 86.33 59.13 86.46 61.23 C 85.53 61.23 83.68 61.24 82.76 61.24 C 82.59 57.78 82.54 54.32 82.36 50.86 Z" />
<path fill="#e30512" opacity="1.00" d=" M 96.51 56.92 C 95.93 52.96 100.76 50.13 104.18 51.69 C 106.11 52.29 106.14 54.67 106.83 56.24 C 104.73 56.52 102.64 56.92 100.64 57.64 C 102.39 58.74 104.35 57.74 106.22 57.69 C 108.58 59.36 105.17 60.13 104.17 60.85 C 101.25 62.25 96.65 60.48 96.51 56.92 M 100.55 54.32 C 99.33 56.28 103.37 56.52 103.69 54.85 C 103.60 53.33 101.32 53.34 100.55 54.32 Z" />
<path fill="#e30512" opacity="1.00" d=" M 136.41 51.29 C 137.64 51.38 138.87 51.47 140.10 51.57 C 140.13 53.98 139.52 56.64 140.97 58.78 C 143.71 57.46 142.14 53.98 142.55 51.62 C 143.29 51.66 144.76 51.73 145.50 51.77 C 145.74 55.53 146.37 59.51 145.24 63.16 C 143.11 66.34 139.19 65.06 136.26 63.98 C 137.15 61.31 140.25 62.55 142.33 62.05 C 140.46 61.31 137.91 61.18 136.90 59.15 C 135.60 56.73 136.30 53.89 136.41 51.29 Z" />
<path fill="#e30512" opacity="1.00" d=" M 152.01 50.76 C 155.51 51.26 159.28 50.72 162.46 52.56 C 163.03 54.88 163.72 57.82 161.68 59.65 C 160.28 61.28 157.92 60.47 156.07 60.55 C 156.19 62.87 156.24 65.19 156.27 67.51 C 155.35 67.51 153.53 67.52 152.62 67.52 C 152.57 61.93 152.49 56.33 152.01 50.76 M 156.19 57.56 C 157.39 57.58 158.58 57.59 159.79 57.58 C 159.49 56.28 159.81 54.31 158.03 54.10 C 156.23 54.31 156.54 56.25 156.19 57.56 Z" />
<path fill="#e30512" opacity="1.00" d=" M 205.14 60.97 C 201.81 58.59 202.59 51.85 207.03 51.21 C 209.99 50.33 212.12 52.77 213.36 55.08 C 211.29 55.54 209.41 54.52 207.41 54.35 C 206.08 55.30 206.02 57.82 207.67 58.44 C 209.47 58.06 211.28 57.73 213.10 57.43 C 212.50 61.28 208.30 62.73 205.14 60.97 Z" />
<path fill="#e30512" opacity="1.00" d=" M 111.64 52.41 C 113.52 51.90 115.44 52.19 117.28 52.75 L 117.29 53.24 C 117.45 55.76 117.32 58.37 118.00 60.83 C 116.84 61.25 115.64 61.52 114.44 61.79 C 114.47 59.48 114.60 57.17 114.41 54.86 C 110.04 53.73 111.95 59.17 111.84 61.61 C 110.57 61.67 109.30 61.72 108.03 61.78 C 107.98 58.58 107.91 55.37 107.70 52.17 C 109.01 52.25 110.32 52.33 111.64 52.41 Z" />
<path fill="#e30512" opacity="1.00" d=" M 175.37 54.97 C 176.89 51.35 181.27 52.35 184.29 52.82 L 184.35 53.19 L 184.42 53.61 C 184.57 55.64 185.57 58.09 184.20 59.93 C 182.02 61.93 178.23 62.11 176.11 59.94 C 174.89 58.59 175.25 56.61 175.37 54.97 M 178.34 57.00 C 178.46 58.67 180.43 58.42 181.58 58.81 C 181.65 57.68 181.66 56.55 181.63 55.42 C 180.25 54.58 178.03 55.08 178.34 57.00 Z" />
<path fill="#e30512" opacity="1.00" d=" M 190.81 52.35 L 191.22 52.16 C 192.99 51.95 195.08 52.32 195.98 54.07 C 197.01 56.40 196.39 59.02 196.45 61.48 C 195.50 61.49 193.61 61.50 192.67 61.51 C 192.77 59.39 192.94 57.26 192.82 55.14 C 192.07 55.15 190.57 55.18 189.82 55.19 L 189.53 55.20 C 189.25 56.82 189.18 58.47 188.96 60.09 C 188.71 60.29 188.22 60.69 187.98 60.89 C 186.02 59.10 186.80 55.45 185.84 53.03 C 187.48 52.83 189.27 53.12 190.81 52.35 Z" />
<path fill="#e30512" opacity="1.00" d=" M 214.15 56.01 C 214.49 54.43 213.66 51.57 216.14 51.45 C 218.00 50.66 219.93 51.75 221.75 52.15 C 221.64 52.72 221.42 53.87 221.31 54.45 C 219.88 54.15 218.45 53.81 216.99 53.78 C 219.10 55.08 221.76 55.98 222.54 58.60 C 221.69 59.56 220.84 60.52 220.00 61.48 C 217.61 61.46 215.29 60.92 213.07 60.06 C 214.26 57.69 216.79 58.74 218.84 58.64 C 217.30 57.71 215.72 56.86 214.15 56.01 Z" />
<path fill="#e30512" opacity="1.00" d=" M 42.52 52.93 C 43.62 52.84 44.73 52.76 45.83 52.70 C 45.72 55.58 45.80 58.48 46.26 61.33 C 45.03 61.35 43.81 61.36 42.58 61.38 C 42.56 58.56 42.55 55.75 42.52 52.93 Z" />
<path fill="#e30512" opacity="1.00" d=" M 91.41 53.15 C 92.51 52.93 93.62 52.76 94.75 52.64 C 94.60 55.56 94.61 58.49 94.81 61.40 C 93.64 61.38 92.47 61.37 91.30 61.35 C 91.26 58.62 91.10 55.87 91.41 53.15 Z" />
<path fill="#e30512" opacity="1.00" d=" M 64.71 53.65 C 67.25 53.64 69.78 53.64 72.32 53.63 C 72.34 54.44 72.39 56.05 72.41 56.86 C 69.93 56.77 67.46 56.77 64.99 56.73 C 64.92 55.96 64.78 54.42 64.71 53.65 Z" />
</g>
<g id="#ffed00ff">
<path fill="#ffed00" opacity="1.00" d=" M 29.30 12.48 C 35.08 12.23 40.91 12.21 46.68 12.51 C 48.87 12.77 48.65 15.40 48.68 17.01 C 48.56 21.92 48.86 26.85 48.52 31.74 C 48.19 34.43 44.88 33.42 43.03 33.68 C 37.98 33.42 32.81 34.21 27.84 33.15 C 26.65 28.24 27.57 23.08 27.27 18.06 C 27.44 16.12 26.61 12.97 29.30 12.48 M 34.95 30.04 C 37.62 31.93 40.99 30.38 43.30 28.67 C 41.74 27.42 40.12 27.22 38.53 28.51 C 36.90 29.45 36.21 26.85 35.63 25.86 C 38.22 25.82 40.81 25.84 43.40 25.86 C 43.08 24.24 43.10 22.37 41.91 21.08 C 40.38 19.52 37.98 19.65 36.00 20.05 C 31.89 21.41 31.33 27.79 34.95 30.04 Z" />
<path fill="#ffed00" opacity="1.00" d=" M 144.34 15.01 C 144.12 12.98 146.23 12.02 147.95 12.06 C 152.63 11.90 157.32 11.97 162.01 12.01 C 163.50 11.81 164.61 12.84 165.75 13.61 C 165.23 20.08 166.34 26.68 165.15 33.06 C 160.17 34.06 155.01 33.23 149.96 33.53 C 148.13 33.33 144.96 34.20 144.46 31.66 C 144.10 26.13 144.29 20.56 144.34 15.01 M 153.75 14.60 C 153.75 19.90 153.74 25.20 153.75 30.50 C 154.62 30.50 156.34 30.51 157.20 30.51 C 157.20 25.20 157.19 19.90 157.21 14.59 C 156.34 14.59 154.61 14.59 153.75 14.60 Z" />
<path fill="#ffed00" opacity="1.00" d=" M 35.60 23.82 C 36.50 23.02 37.16 21.67 38.50 21.57 C 39.21 22.35 39.86 23.17 40.47 24.04 C 38.85 24.00 37.22 23.93 35.60 23.82 Z" />
</g>
<g id="#009fe3ff">
<path fill="#009fe3" opacity="1.00" d=" M 52.46 12.42 C 58.69 12.36 65.05 11.82 71.21 12.78 C 73.11 16.10 71.81 20.28 72.19 23.96 C 71.81 27.06 73.19 30.83 70.99 33.40 C 66.36 33.97 61.67 33.53 57.01 33.69 C 55.00 33.57 52.79 34.03 50.96 32.96 C 50.40 26.43 50.31 19.69 51.01 13.17 C 51.37 12.98 52.10 12.61 52.46 12.42 M 57.34 20.78 C 57.39 21.10 57.48 21.74 57.53 22.07 C 59.71 24.22 59.02 27.58 59.75 30.32 C 61.96 30.50 64.68 31.26 65.42 28.43 C 64.59 28.10 62.94 27.43 62.11 27.10 C 62.29 25.00 61.86 22.24 64.83 22.38 C 64.85 21.84 64.88 20.75 64.89 20.21 C 64.22 20.11 62.88 19.92 62.21 19.83 C 62.23 18.89 62.28 17.02 62.31 16.09 C 60.13 17.06 58.68 18.89 57.34 20.78 Z" />
<path fill="#009fe3" opacity="1.00" d=" M 167.85 12.78 C 172.14 11.53 176.63 12.11 181.02 11.97 C 183.77 11.89 186.56 12.00 189.19 12.89 C 189.36 18.60 189.38 24.33 189.30 30.05 C 189.41 31.38 188.53 32.45 188.02 33.60 C 182.05 33.31 176.07 33.70 170.11 33.41 C 168.81 33.56 167.71 32.30 167.77 31.06 C 167.62 24.97 167.67 18.87 167.85 12.78 M 176.10 30.65 C 178.73 30.59 181.36 30.36 184.00 30.42 C 183.99 26.94 183.99 23.47 184.00 19.99 C 181.35 20.36 178.69 20.15 176.04 19.94 C 171.24 21.30 171.21 29.41 176.10 30.65 Z" />
<path fill="#009fe3" opacity="1.00" d=" M 177.38 22.52 C 181.03 20.70 181.93 29.07 177.84 28.39 C 175.49 27.61 175.26 23.71 177.38 22.52 Z" />
</g>
<g id="#76b82aff">
<path fill="#76b82a" opacity="1.00" d=" M 75.40 12.61 C 80.51 11.77 85.84 12.50 91.03 12.23 C 92.92 12.00 95.76 12.58 95.52 15.08 C 95.60 20.68 95.76 26.29 95.43 31.88 C 95.17 32.27 94.66 33.04 94.40 33.43 C 87.89 33.85 81.19 34.18 74.74 33.23 C 73.53 28.62 74.48 23.73 74.16 19.00 C 74.42 16.93 73.46 14.07 75.40 12.61 M 82.40 23.73 C 82.60 25.49 82.49 27.32 83.10 29.01 C 84.16 31.38 87.52 30.85 89.04 29.24 C 86.55 28.08 85.34 26.00 85.59 23.27 C 86.20 23.07 87.42 22.67 88.03 22.47 C 89.50 20.90 87.40 19.53 85.80 19.65 C 85.76 18.45 85.73 17.26 85.70 16.07 C 83.20 17.48 79.20 21.01 82.40 23.73 Z" />
<path fill="#76b82a" opacity="1.00" d=" M 191.17 16.98 C 191.20 15.31 190.98 12.91 192.95 12.22 C 198.67 11.89 204.42 12.05 210.14 12.12 C 211.66 12.02 212.70 13.64 212.63 15.03 C 212.77 20.00 212.67 24.99 212.68 29.96 C 212.50 31.13 212.71 33.54 210.92 33.38 C 204.55 33.81 198.14 33.47 191.76 33.48 C 190.70 28.04 191.34 22.47 191.17 16.98 M 197.07 19.82 C 197.10 23.37 197.09 26.91 197.01 30.45 C 197.84 30.46 199.50 30.47 200.33 30.47 C 200.36 28.42 200.29 26.36 200.52 24.32 C 200.43 22.69 202.94 21.84 203.85 23.10 C 204.44 25.48 204.14 27.96 204.13 30.39 C 205.04 30.44 206.86 30.54 207.77 30.59 C 207.63 27.48 208.25 24.17 207.03 21.22 C 205.72 18.96 202.97 20.18 200.98 20.52 C 199.68 20.28 198.37 20.05 197.07 19.82 Z" />
<path fill="#76b82a" opacity="1.00" d=" M 232.09 14.49 C 233.50 14.11 233.97 14.61 233.49 15.99 C 232.07 16.38 231.61 15.88 232.09 14.49 Z" />
</g>
<g id="#f7a601ff">
<path fill="#f7a601" opacity="1.00" d=" M 99.39 12.45 C 104.57 11.89 109.83 12.30 115.04 12.21 C 116.76 11.96 119.05 12.86 118.87 14.95 C 118.94 20.61 119.16 26.31 118.72 31.95 C 118.60 33.91 116.40 33.40 115.05 33.59 C 109.65 33.48 104.20 33.95 98.83 33.32 C 98.55 33.01 97.99 32.39 97.72 32.08 C 97.24 27.39 97.60 22.66 97.48 17.96 C 97.60 16.05 97.03 13.19 99.39 12.45 M 105.91 30.19 C 108.65 31.67 111.90 30.59 113.89 28.40 C 113.15 28.10 111.68 27.50 110.95 27.21 C 110.33 27.84 109.72 28.48 109.10 29.11 C 108.58 28.82 107.52 28.23 106.99 27.93 C 107.10 26.05 107.05 24.15 107.37 22.29 C 108.93 20.77 110.44 22.54 111.40 23.73 C 110.57 23.72 108.92 23.68 108.10 23.66 C 107.95 24.20 107.65 25.27 107.49 25.81 C 109.74 25.82 112.00 25.82 114.25 25.79 C 113.82 23.02 112.52 19.30 109.01 19.77 C 103.29 18.86 101.14 27.85 105.91 30.19 Z" />
<path fill="#f7a601" opacity="1.00" d=" M 214.51 13.64 C 215.63 13.07 216.62 11.95 217.98 12.08 C 223.03 12.06 228.08 11.99 233.13 12.14 C 234.20 12.19 235.88 12.65 235.92 13.97 C 236.42 18.62 236.03 23.32 236.16 28.00 C 236.03 29.78 236.46 31.89 235.04 33.28 C 228.71 33.66 222.31 33.66 215.97 33.28 C 215.67 32.93 215.05 32.23 214.75 31.88 C 214.32 25.81 214.81 19.72 214.51 13.64 M 232.09 14.49 C 231.61 15.88 232.07 16.38 233.49 15.99 C 233.97 14.61 233.50 14.11 232.09 14.49 M 227.60 14.45 C 227.65 16.54 227.70 18.62 227.79 20.71 C 226.24 20.38 224.65 19.46 223.06 20.00 C 218.73 21.32 218.38 28.51 222.42 30.40 C 223.92 31.27 225.60 30.46 227.15 30.20 C 228.41 30.38 229.67 30.56 230.94 30.74 C 231.18 25.38 231.01 20.01 231.14 14.64 C 230.26 14.60 228.48 14.50 227.60 14.45 Z" />
<path fill="#f7a601" opacity="1.00" d=" M 224.52 22.51 C 227.58 20.63 229.33 27.56 225.97 28.28 C 222.88 28.67 222.41 24.04 224.52 22.51 Z" />
<path fill="#f7a601" opacity="1.00" d=" M 184.35 53.19 C 185.90 51.28 188.71 52.21 190.81 52.35 C 189.27 53.12 187.48 52.83 185.84 53.03 C 186.80 55.45 186.02 59.10 187.98 60.89 C 188.22 60.69 188.71 60.29 188.96 60.09 C 189.18 58.47 189.25 56.82 189.53 55.20 L 189.82 55.19 C 190.08 57.43 190.22 59.69 190.51 61.93 C 189.13 61.93 187.75 61.92 186.37 61.89 C 185.96 59.08 186.44 55.89 184.42 53.61 L 184.35 53.19 Z" />
<path fill="#f7a601" opacity="1.00" d=" M 117.29 53.24 C 117.90 54.13 118.48 55.04 119.04 55.97 C 119.14 55.48 119.34 54.51 119.44 54.02 C 119.31 55.84 119.27 57.67 119.39 59.50 L 118.93 60.11 C 118.70 60.29 118.23 60.65 118.00 60.83 C 117.32 58.37 117.45 55.76 117.29 53.24 Z" />
<path fill="#f7a601" opacity="1.00" d=" M 64.99 56.73 C 67.46 56.77 69.93 56.77 72.41 56.86 C 69.95 57.25 67.43 57.26 64.99 56.73 Z" />
</g>
<g id="#1b1a1bff">
<path fill="#1b1a1b" opacity="1.00" d=" M 153.75 14.60 C 154.61 14.59 156.34 14.59 157.21 14.59 C 157.19 19.90 157.20 25.20 157.20 30.51 C 156.34 30.51 154.62 30.50 153.75 30.50 C 153.74 25.20 153.75 19.90 153.75 14.60 Z" />
<path fill="#1b1a1b" opacity="1.00" d=" M 227.60 14.45 C 228.48 14.50 230.26 14.60 231.14 14.64 C 231.01 20.01 231.18 25.38 230.94 30.74 C 229.67 30.56 228.41 30.38 227.15 30.20 C 225.60 30.46 223.92 31.27 222.42 30.40 C 218.38 28.51 218.73 21.32 223.06 20.00 C 224.65 19.46 226.24 20.38 227.79 20.71 C 227.70 18.62 227.65 16.54 227.60 14.45 M 224.52 22.51 C 222.41 24.04 222.88 28.67 225.97 28.28 C 229.33 27.56 227.58 20.63 224.52 22.51 Z" />
<path fill="#1b1a1b" opacity="1.00" d=" M 9.83 15.25 C 10.73 15.26 12.51 15.28 13.41 15.29 C 13.42 19.44 13.42 23.60 13.41 27.75 C 15.42 27.76 17.43 27.76 19.44 27.79 C 19.31 28.42 19.05 29.68 18.92 30.31 C 15.96 30.68 12.97 30.51 10.00 30.57 C 9.75 25.47 9.84 20.36 9.83 15.25 Z" />
<path fill="#1b1a1b" opacity="1.00" d=" M 82.40 23.73 C 79.20 21.01 83.20 17.48 85.70 16.07 C 85.73 17.26 85.76 18.45 85.80 19.65 C 87.40 19.53 89.50 20.90 88.03 22.47 C 87.42 22.67 86.20 23.07 85.59 23.27 C 85.34 26.00 86.55 28.08 89.04 29.24 C 87.52 30.85 84.16 31.38 83.10 29.01 C 82.49 27.32 82.60 25.49 82.40 23.73 Z" />
<path fill="#1b1a1b" opacity="1.00" d=" M 57.34 20.78 C 58.68 18.89 60.13 17.06 62.31 16.09 C 62.28 17.02 62.23 18.89 62.21 19.83 C 62.88 19.92 64.22 20.11 64.89 20.21 C 64.88 20.75 64.85 21.84 64.83 22.38 C 61.86 22.24 62.29 25.00 62.11 27.10 C 62.94 27.43 64.59 28.10 65.42 28.43 C 64.68 31.26 61.96 30.50 59.75 30.32 C 59.02 27.58 59.71 24.22 57.53 22.07 C 57.48 21.74 57.39 21.10 57.34 20.78 Z" />
<path fill="#1b1a1b" opacity="1.00" d=" M 34.95 30.04 C 31.33 27.79 31.89 21.41 36.00 20.05 C 37.98 19.65 40.38 19.52 41.91 21.08 C 43.10 22.37 43.08 24.24 43.40 25.86 C 40.81 25.84 38.22 25.82 35.63 25.86 C 36.21 26.85 36.90 29.45 38.53 28.51 C 40.12 27.22 41.74 27.42 43.30 28.67 C 40.99 30.38 37.62 31.93 34.95 30.04 M 35.60 23.82 C 37.22 23.93 38.85 24.00 40.47 24.04 C 39.86 23.17 39.21 22.35 38.50 21.57 C 37.16 21.67 36.50 23.02 35.60 23.82 Z" />
<path fill="#1b1a1b" opacity="1.00" d=" M 105.91 30.19 C 101.14 27.85 103.29 18.86 109.01 19.77 C 112.52 19.30 113.82 23.02 114.25 25.79 C 112.00 25.82 109.74 25.82 107.49 25.81 C 107.65 25.27 107.95 24.20 108.10 23.66 C 108.92 23.68 110.57 23.72 111.40 23.73 C 110.44 22.54 108.93 20.77 107.37 22.29 C 107.05 24.15 107.10 26.05 106.99 27.93 C 107.52 28.23 108.58 28.82 109.10 29.11 C 109.72 28.48 110.33 27.84 110.95 27.21 C 111.68 27.50 113.15 28.10 113.89 28.40 C 111.90 30.59 108.65 31.67 105.91 30.19 Z" />
<path fill="#1b1a1b" opacity="1.00" d=" M 129.07 19.78 C 130.38 20.04 131.68 20.30 132.98 20.59 C 134.44 20.28 135.90 19.99 137.37 19.72 C 137.03 20.80 136.69 21.89 136.35 22.98 C 135.58 23.10 134.04 23.34 133.27 23.46 C 132.09 25.63 132.50 28.21 132.31 30.58 C 131.49 30.55 129.84 30.49 129.02 30.46 C 129.09 26.90 129.09 23.34 129.07 19.78 Z" />
<path fill="#1b1a1b" opacity="1.00" d=" M 176.10 30.65 C 171.21 29.41 171.24 21.30 176.04 19.94 C 178.69 20.15 181.35 20.36 184.00 19.99 C 183.99 23.47 183.99 26.94 184.00 30.42 C 181.36 30.36 178.73 30.59 176.10 30.65 M 177.38 22.52 C 175.26 23.71 175.49 27.61 177.84 28.39 C 181.93 29.07 181.03 20.70 177.38 22.52 Z" />
<path fill="#1b1a1b" opacity="1.00" d=" M 197.07 19.82 C 198.37 20.05 199.68 20.28 200.98 20.52 C 202.97 20.18 205.72 18.96 207.03 21.22 C 208.25 24.17 207.63 27.48 207.77 30.59 C 206.86 30.54 205.04 30.44 204.13 30.39 C 204.14 27.96 204.44 25.48 203.85 23.10 C 202.94 21.84 200.43 22.69 200.52 24.32 C 200.29 26.36 200.36 28.42 200.33 30.47 C 199.50 30.47 197.84 30.46 197.01 30.45 C 197.09 26.91 197.10 23.37 197.07 19.82 Z" />
</g>
</svg>
