<?xml version="1.0" encoding="utf-8"?>
<!-- Generator: Adobe Illustrator 16.0.0, SVG Export Plug-In . SVG Version: 6.00 Build 0)  -->
<!DOCTYPE svg PUBLIC "-//W3C//DTD SVG 1.1//EN" "http://www.w3.org/Graphics/SVG/1.1/DTD/svg11.dtd">
<svg version="1.1" id="Layer_1" xmlns="http://www.w3.org/2000/svg" xmlns:xlink="http://www.w3.org/1999/xlink" x="0px" y="0px"
	 width="500px" height="500px" viewBox="0 0 500 500" enable-background="new 0 0 500 500" xml:space="preserve">
<rect x="190" y="299" fill="#1D1D1B" width="110" height="7.5"/>
<g>
	<g>
		<circle fill="#FFCC05" cx="286.865" cy="265.67" r="26.05"/>
		<path fill="#D9A600" d="M276.809,284.178c-10.203-5.545-13.994-18.359-8.449-28.563c5.544-10.204,18.356-13.995,28.56-8.451
			c10.205,5.545,13.996,18.357,8.451,28.561C299.826,285.93,287.015,289.72,276.809,284.178z M295.332,250.087
			c-8.594-4.669-19.382-1.477-24.051,7.116c-4.67,8.592-1.478,19.382,7.116,24.052c8.592,4.669,19.382,1.476,24.051-7.117
			C307.118,265.546,303.924,254.756,295.332,250.087z"/>
		<circle opacity="0.2" fill="#FFFFFF" cx="286.864" cy="265.67" r="17.736"/>
		<g>
			<path fill="#D9A600" d="M294.534,264.51l-4.782-2.602l0.432-0.791c0.457-0.846,0.701-1.43,0.734-1.749
				c0.03-0.32-0.136-0.58-0.499-0.777c-0.29-0.157-0.571-0.164-0.841-0.02c-0.27,0.146-0.522,0.443-0.769,0.895
				c-0.407,0.749-0.544,1.356-0.406,1.819c0.131,0.459,0.671,1.51,1.63,3.153c0.816,1.396,1.338,2.409,1.57,3.039
				c0.23,0.632,0.302,1.387,0.219,2.267c-0.086,0.88-0.416,1.852-0.996,2.918c-0.927,1.705-2.063,2.821-3.412,3.345
				c-1.35,0.524-2.907,0.457-4.674-0.208l-0.977,1.801l-2.202-1.197l1.01-1.857c-1.21-0.822-2.063-1.92-2.551-3.296
				c-0.489-1.377-0.156-3.13,1.002-5.261l0.508-0.936l4.785,2.599l-0.638,1.172c-0.697,1.288-1.082,2.114-1.154,2.479
				c-0.07,0.365,0.083,0.65,0.463,0.857c0.322,0.175,0.622,0.198,0.898,0.066c0.276-0.131,0.529-0.411,0.762-0.837
				c0.583-1.073,0.925-1.883,1.025-2.425c0.103-0.544-0.138-1.326-0.72-2.348c-0.962-1.707-1.589-2.921-1.879-3.637
				c-0.292-0.715-0.417-1.567-0.374-2.558c0.041-0.989,0.331-1.977,0.866-2.964c0.775-1.428,1.788-2.33,3.04-2.702
				c1.252-0.375,2.738-0.216,4.459,0.474l0.83-1.528l2.203,1.198l-0.83,1.526c1.374,0.991,2.209,2.088,2.507,3.288
				c0.3,1.2,0.065,2.507-0.702,3.921C294.964,263.832,294.786,264.123,294.534,264.51z"/>
		</g>
	</g>
</g>
<g>
	<defs>
		<rect id="SVGID_1_" x="164.5" y="244.612" width="140.104" height="61.888"/>
	</defs>
	<clipPath id="SVGID_2_">
		<use xlink:href="#SVGID_1_"  overflow="visible"/>
	</clipPath>
	<g clip-path="url(#SVGID_2_)">
		<g>
			<circle fill="#FFCC05" cx="248" cy="302.75" r="26.05"/>
			<path fill="#D9A600" d="M237.944,321.258c-10.203-5.545-13.994-18.359-8.449-28.563c5.544-10.204,18.356-13.995,28.56-8.451
				c10.205,5.545,13.996,18.357,8.451,28.561C260.962,323.01,248.15,326.8,237.944,321.258z M256.468,287.167
				c-8.594-4.669-19.382-1.477-24.051,7.116c-4.67,8.592-1.478,19.382,7.116,24.052c8.592,4.669,19.382,1.476,24.051-7.117
				C268.254,302.626,265.06,291.836,256.468,287.167z"/>
			<circle opacity="0.2" fill="#FFFFFF" cx="248" cy="302.75" r="17.736"/>
			<g>
				<path fill="#D9A600" d="M255.67,301.59l-4.782-2.602l0.432-0.791c0.457-0.846,0.701-1.43,0.734-1.749
					c0.03-0.32-0.136-0.58-0.499-0.777c-0.29-0.157-0.571-0.164-0.841-0.02c-0.27,0.146-0.522,0.443-0.769,0.895
					c-0.407,0.749-0.544,1.356-0.406,1.819c0.131,0.459,0.671,1.51,1.63,3.153c0.816,1.396,1.338,2.409,1.57,3.039
					c0.23,0.632,0.302,1.387,0.219,2.267c-0.086,0.88-0.416,1.852-0.996,2.918c-0.927,1.705-2.063,2.821-3.412,3.345
					c-1.35,0.524-2.907,0.457-4.674-0.208l-0.977,1.801l-2.202-1.197l1.01-1.857c-1.21-0.822-2.063-1.92-2.551-3.296
					c-0.489-1.377-0.156-3.13,1.002-5.261l0.508-0.936l4.785,2.599l-0.638,1.172c-0.697,1.288-1.082,2.114-1.154,2.479
					c-0.07,0.365,0.083,0.65,0.463,0.857c0.322,0.175,0.622,0.198,0.898,0.066c0.276-0.131,0.529-0.411,0.762-0.837
					c0.583-1.073,0.925-1.883,1.025-2.425c0.103-0.544-0.138-1.326-0.72-2.348c-0.962-1.707-1.589-2.921-1.879-3.637
					c-0.292-0.715-0.417-1.567-0.374-2.558c0.041-0.989,0.331-1.977,0.866-2.964c0.775-1.428,1.788-2.33,3.04-2.702
					c1.252-0.375,2.738-0.216,4.459,0.474l0.83-1.528l2.203,1.198l-0.83,1.526c1.374,0.991,2.209,2.088,2.507,3.288
					c0.3,1.2,0.065,2.507-0.702,3.921C256.1,300.912,255.922,301.203,255.67,301.59z"/>
			</g>
		</g>
	</g>
	<g clip-path="url(#SVGID_2_)">
		<g>
			<circle fill="#FFCC05" cx="218.946" cy="309.463" r="26.05"/>
			<path fill="#D9A600" d="M208.89,327.971c-10.203-5.545-13.994-18.359-8.449-28.563c5.544-10.204,18.356-13.995,28.56-8.451
				c10.205,5.545,13.996,18.357,8.451,28.561C231.908,329.723,219.096,333.513,208.89,327.971z M227.414,293.88
				c-8.594-4.669-19.382-1.477-24.051,7.116c-4.67,8.592-1.478,19.382,7.116,24.052c8.592,4.669,19.382,1.476,24.051-7.117
				C239.2,309.339,236.005,298.549,227.414,293.88z"/>
			<circle opacity="0.2" fill="#FFFFFF" cx="218.946" cy="309.463" r="17.736"/>
			<g>
				<path fill="#D9A600" d="M226.616,308.303l-4.782-2.602l0.432-0.791c0.457-0.846,0.701-1.43,0.734-1.749
					c0.03-0.32-0.136-0.58-0.499-0.777c-0.29-0.157-0.571-0.164-0.841-0.02c-0.27,0.146-0.522,0.443-0.769,0.895
					c-0.407,0.749-0.544,1.356-0.406,1.819c0.131,0.459,0.671,1.51,1.63,3.153c0.816,1.396,1.338,2.409,1.57,3.039
					c0.23,0.632,0.302,1.387,0.219,2.267c-0.086,0.88-0.416,1.852-0.996,2.918c-0.927,1.705-2.063,2.821-3.412,3.345
					c-1.35,0.524-2.907,0.457-4.674-0.208l-0.977,1.801l-2.202-1.197l1.01-1.857c-1.21-0.822-2.063-1.92-2.551-3.296
					c-0.489-1.377-0.156-3.13,1.002-5.261l0.508-0.936l4.785,2.599l-0.638,1.172c-0.697,1.288-1.082,2.114-1.154,2.479
					c-0.07,0.365,0.083,0.65,0.463,0.857c0.322,0.175,0.622,0.198,0.898,0.066c0.276-0.131,0.529-0.411,0.762-0.837
					c0.583-1.073,0.925-1.883,1.025-2.425c0.103-0.544-0.138-1.326-0.72-2.348c-0.962-1.707-1.589-2.921-1.879-3.637
					c-0.292-0.715-0.417-1.567-0.374-2.558c0.041-0.989,0.331-1.977,0.866-2.964c0.775-1.428,1.788-2.33,3.04-2.702
					c1.252-0.375,2.738-0.216,4.459,0.474l0.83-1.528l2.203,1.198l-0.83,1.526c1.374,0.991,2.209,2.088,2.507,3.288
					c0.3,1.2,0.065,2.507-0.702,3.921C227.045,307.625,226.868,307.916,226.616,308.303z"/>
			</g>
		</g>
	</g>
</g>
</svg>
