<?xml version="1.0" encoding="utf-8"?>
<!-- Generator: Adobe Illustrator 16.0.0, SVG Export Plug-In . SVG Version: 6.00 Build 0)  -->
<!DOCTYPE svg PUBLIC "-//W3C//DTD SVG 1.1//EN" "http://www.w3.org/Graphics/SVG/1.1/DTD/svg11.dtd">
<svg version="1.1" id="Layer_1" xmlns="http://www.w3.org/2000/svg" xmlns:xlink="http://www.w3.org/1999/xlink" x="0px" y="0px"
	 width="180px" height="180px" viewBox="0 0 180 180" enable-background="new 0 0 180 180" xml:space="preserve">
<rect x="78.675" y="79.265" fill="#FFFFFF" width="20.29" height="21.325"/>
<g>
	<path fill="#DB4A38" d="M86.121,83.014c-1.271-0.037-2.124,1.24-1.903,2.91c0.219,1.668,1.427,2.834,2.698,2.873
		c1.271,0.037,2.001-1.037,1.782-2.705C88.479,84.422,87.392,83.053,86.121,83.014z"/>
	<path fill="#DB4A38" d="M86.655,92.213c-1.895-0.021-3.499,1.197-3.499,2.607c0,1.441,1.368,2.639,3.262,2.639
		c2.663,0,3.591-1.125,3.591-2.564c0-0.174-0.021-0.344-0.061-0.508c-0.209-0.816-1.037-1.262-2.066-1.977
		C87.509,92.289,87.097,92.217,86.655,92.213z"/>
	<path fill="#DB4A38" d="M100.37,74.247h-22c-2.761,0-5,2.24-5,5v22c0,2.762,2.239,5,5,5h22c2.762,0,5-2.238,5-5v-22
		C105.37,76.487,103.132,74.247,100.37,74.247z M90.593,86.02c0,1.043-0.577,1.883-1.393,2.521c-0.797,0.621-0.947,0.883-0.947,1.41
		c0,0.451,0.951,1.125,1.389,1.453c1.522,1.141,1.831,1.859,1.831,3.289c0,1.781-1.921,3.555-5.044,3.555
		c-2.74,0-5.053-1.115-5.053-2.896c0-1.811,1.918-3.695,4.658-3.695c0.299,0,0.572-0.008,0.855-0.008
		c-0.375-0.365-0.678-0.679-0.678-1.23c0-0.326,0.104-0.639,0.25-0.92c-0.148,0.012-0.301,0.02-0.457,0.02
		c-2.251,0-3.562-1.58-3.562-3.564c0-1.941,1.995-3.705,4.388-3.705c1.233,0,4.716,0,4.716,0l-1.054,1.105h-1.238
		C90.129,83.854,90.593,84.885,90.593,86.02z M97.364,85.729h-2.176v2.176h-1.088v-2.176h-2.175v-1.088h2.175v-2.176h1.088v2.176
		h2.176V85.729z"/>
</g>
</svg>
