<?xml version="1.0" encoding="utf-8"?>
<!-- Generator: Adobe Illustrator 16.0.0, SVG Export Plug-In . SVG Version: 6.00 Build 0)  -->
<!DOCTYPE svg PUBLIC "-//W3C//DTD SVG 1.1//EN" "http://www.w3.org/Graphics/SVG/1.1/DTD/svg11.dtd">
<svg version="1.1" id="Layer_1" xmlns="http://www.w3.org/2000/svg" xmlns:xlink="http://www.w3.org/1999/xlink" x="0px" y="0px"
	 width="180px" height="180px" viewBox="0 0 180 180" enable-background="new 0 0 180 180" xml:space="preserve">
<g>
	<path fill="#575756" d="M86.121,83.144c-1.271-0.037-2.124,1.24-1.903,2.909c0.219,1.669,1.427,2.835,2.698,2.874
		c1.271,0.037,2.001-1.037,1.782-2.706S87.392,83.183,86.121,83.144z"/>
	<path fill="#575756" d="M86.655,92.343c-1.895-0.021-3.499,1.196-3.499,2.607c0,1.44,1.368,2.639,3.262,2.639
		c2.663,0,3.591-1.125,3.591-2.565c0-0.174-0.021-0.344-0.061-0.508c-0.209-0.815-1.037-1.262-2.066-1.977
		C87.509,92.418,87.097,92.347,86.655,92.343z"/>
	<path fill="#575756" d="M100.37,74.376h-22c-2.761,0-5,2.239-5,5v21.999c0,2.762,2.239,5,5,5h22c2.762,0,5-2.238,5-5V79.376
		C105.37,76.615,103.132,74.376,100.37,74.376z M90.593,86.149c0,1.043-0.577,1.883-1.393,2.521
		c-0.797,0.622-0.947,0.883-0.947,1.411c0,0.451,0.951,1.124,1.389,1.452c1.522,1.142,1.831,1.86,1.831,3.289
		c0,1.782-1.921,3.555-5.044,3.555c-2.74,0-5.053-1.114-5.053-2.896c0-1.81,1.918-3.695,4.658-3.695
		c0.299,0,0.572-0.008,0.855-0.008c-0.375-0.364-0.678-0.679-0.678-1.229c0-0.327,0.104-0.64,0.25-0.92
		c-0.148,0.011-0.301,0.02-0.457,0.02c-2.251,0-3.562-1.581-3.562-3.564c0-1.941,1.995-3.706,4.388-3.706c1.233,0,4.716,0,4.716,0
		l-1.054,1.106h-1.238C90.129,83.983,90.593,85.014,90.593,86.149z M97.364,85.858h-2.176v2.175h-1.088v-2.175h-2.175v-1.088h2.175
		v-2.176h1.088v2.176h2.176V85.858z"/>
</g>
</svg>
