<?xml version="1.0" encoding="utf-8"?>
<!-- Generator: Adobe Illustrator 16.0.0, SVG Export Plug-In . SVG Version: 6.00 Build 0)  -->
<!DOCTYPE svg PUBLIC "-//W3C//DTD SVG 1.1//EN" "http://www.w3.org/Graphics/SVG/1.1/DTD/svg11.dtd">
<svg version="1.1" id="Layer_1" xmlns="http://www.w3.org/2000/svg" xmlns:xlink="http://www.w3.org/1999/xlink" x="0px" y="0px"
	 width="180px" height="180px" viewBox="0 0 180 180" enable-background="new 0 0 180 180" xml:space="preserve">
<rect x="83.644" y="80.093" fill="#FFFFFF" width="14.493" height="21.532"/>
<path fill="#C91618" d="M101.175,74.247h-22c-2.762,0-5,2.24-5,5v22c0,2.762,2.238,5,5,5h22c2.762,0,5-2.238,5-5v-22
	C106.175,76.487,103.937,74.247,101.175,74.247z M91.827,93.811c-0.992,0-1.926-0.537-2.245-1.146c0,0-0.534,2.117-0.646,2.527
	c-0.398,1.443-1.569,2.889-1.659,3.006c-0.063,0.084-0.204,0.057-0.219-0.051c-0.025-0.186-0.324-2.008,0.027-3.494
	c0.177-0.746,1.183-5.007,1.183-5.007s-0.294-0.586-0.294-1.453c0-1.363,0.79-2.379,1.773-2.379c0.836,0,1.238,0.627,1.238,1.379
	c0,0.842-0.534,2.098-0.811,3.262c-0.23,0.974,0.488,1.769,1.45,1.769c1.741,0,2.914-2.236,2.914-4.884
	c0-2.016-1.356-3.523-3.824-3.523c-2.787,0-4.524,2.08-4.524,4.402c0,0.801,0.236,1.365,0.606,1.803
	c0.17,0.201,0.193,0.281,0.132,0.512c-0.045,0.17-0.145,0.576-0.188,0.738c-0.061,0.232-0.25,0.314-0.46,0.229
	c-1.284-0.523-1.882-1.929-1.882-3.509c0-2.611,2.201-5.742,6.568-5.742c3.509,0,5.818,2.539,5.818,5.266
	C96.786,91.117,94.781,93.811,91.827,93.811z"/>
</svg>
