<?xml version="1.0" encoding="utf-8"?>
<!-- Generator: Adobe Illustrator 16.0.0, SVG Export Plug-In . SVG Version: 6.00 Build 0)  -->
<!DOCTYPE svg PUBLIC "-//W3C//DTD SVG 1.1//EN" "http://www.w3.org/Graphics/SVG/1.1/DTD/svg11.dtd">
<svg version="1.1" id="Layer_1" xmlns="http://www.w3.org/2000/svg" xmlns:xlink="http://www.w3.org/1999/xlink" x="0px" y="0px"
	 width="180px" height="180px" viewBox="0 0 180 180" enable-background="new 0 0 180 180" xml:space="preserve">
<path fill="#575756" d="M100.958,74.376h-22c-2.762,0-5,2.239-5,5v21.999c0,2.762,2.238,5,5,5h22c2.762,0,5-2.238,5-5V79.376
	C105.958,76.615,103.72,74.376,100.958,74.376z M96.32,87.114c0.007,0.141,0.01,0.281,0.01,0.424c0,4.338-3.302,9.34-9.34,9.34
	c-1.854,0-3.579-0.543-5.032-1.475c0.258,0.03,0.519,0.045,0.783,0.045c1.539,0,2.953-0.523,4.076-1.404
	c-1.436-0.026-2.648-0.976-3.065-2.279c0.2,0.038,0.405,0.059,0.617,0.059c0.3,0,0.59-0.04,0.864-0.115
	c-1.5-0.302-2.633-1.629-2.633-3.219c0-0.014,0-0.027,0-0.041c0.443,0.246,0.949,0.394,1.487,0.41
	c-0.881-0.588-1.46-1.594-1.46-2.732c0-0.602,0.162-1.165,0.444-1.65c1.618,1.986,4.038,3.293,6.766,3.43
	c-0.056-0.24-0.085-0.49-0.085-0.748c0-1.813,1.47-3.281,3.283-3.281c0.943,0,1.797,0.398,2.396,1.035
	c0.747-0.146,1.45-0.42,2.085-0.796c-0.246,0.767-0.766,1.41-1.443,1.815c0.664-0.078,1.297-0.255,1.885-0.516
	C97.519,86.073,96.962,86.651,96.32,87.114z"/>
</svg>
