<?xml version="1.0" encoding="utf-8"?>
<!-- Generator: Adobe Illustrator 21.0.0, SVG Export Plug-In . SVG Version: 6.00 Build 0)  -->
<svg version="1.1" id="Isolation_Mode" xmlns="http://www.w3.org/2000/svg" xmlns:xlink="http://www.w3.org/1999/xlink" x="0px"
	 y="0px" viewBox="0 0 1024 768" style="enable-background:new 0 0 1024 768;" xml:space="preserve">
<style type="text/css">
	.st0{opacity:0.35;}
	.st1{opacity:0.8;fill:#FFFFFF;}
	.st2{opacity:0.3;fill:#FFFFFF;}
	.st3{opacity:0.2;fill:#FFFFFF;}
</style>
<g class="st0">
	<path class="st1" d="M660.1,745.1c0.5-0.4,0.9-0.2,0.9,0.4l0.1,4.3c0,0.6,0.5,1.5,1,1.8l3.6,2.4c0.5,0.4,0.5,0.8-0.1,1l-4.1,1.4
		c-0.6,0.2-1.2,0.9-1.4,1.5l-1.1,4.2c-0.2,0.6-0.6,0.7-1,0.2l-2.6-3.4c-0.4-0.5-1.2-0.9-1.9-0.9l-4.3,0.2c-0.6,0-0.9-0.4-0.5-0.9
		l2.5-3.5c0.4-0.5,0.5-1.5,0.3-2.1l-1.5-4c-0.2-0.6,0.1-0.9,0.7-0.8l4.1,1.2c0.6,0.2,1.5,0,2-0.4L660.1,745.1z"/>
	<path class="st1" d="M152.7,754.4c0,0,1.2-4,4.5-4.4c0,0-3-0.5-4.5-4.5c-1.5,4-4.5,4.5-4.5,4.5
		C151.4,750.5,152.7,754.4,152.7,754.4z"/>
	<path class="st1" d="M405.3,732.1c0,0,2-6.2,7-6.9c0,0-4.7-0.8-7-7c-2.3,6.2-7,7-7,7C403.4,725.8,405.3,732.1,405.3,732.1z"/>
	<circle class="st1" cx="158.8" cy="690.5" r="1.6"/>
	<circle class="st1" cx="85.5" cy="754.4" r="2.7"/>
	<circle class="st1" cx="249" cy="751.1" r="2.7"/>
	<path class="st1" d="M46.9,684.9c0.1-0.4,0.4-0.5,0.7-0.1l1.8,2.3c0.3,0.3,0.8,0.6,1.3,0.6l2.9-0.1c0.4,0,0.6,0.3,0.3,0.6l-1.7,2.4
		c-0.2,0.4-0.3,1-0.2,1.4l1,2.7c0.2,0.4-0.1,0.6-0.5,0.5l-2.8-0.8c-0.4-0.1-1,0-1.4,0.3l-2.3,1.8c-0.3,0.3-0.6,0.1-0.6-0.3l-0.1-2.9
		c0-0.4-0.3-1-0.7-1.2l-2.4-1.6c-0.4-0.2-0.3-0.6,0.1-0.7l2.8-1c0.4-0.1,0.8-0.6,1-1L46.9,684.9z"/>
	<path class="st1" d="M544.3,764.1c0,0,2-6.2,7-6.9c0,0-4.7-0.8-7-7c-2.3,6.2-7,7-7,7C542.4,757.9,544.3,764.1,544.3,764.1z"/>
	<circle class="st1" cx="603.4" cy="694.7" r="2.7"/>
	<ellipse class="st1" cx="972.4" cy="45" rx="1.6" ry="1"/>
	<circle class="st1" cx="620.2" cy="698.4" r="1.6"/>
	<circle class="st1" cx="638.1" cy="682.7" r="1.6"/>
	<circle class="st1" cx="629.9" cy="759.7" r="2.7"/>
	<circle class="st1" cx="596.4" cy="758.1" r="1.6"/>
	<path class="st1" d="M1005.5,744.6c0.5-0.4,0.9-0.2,0.9,0.4l0.1,4.3c0,0.6,0.5,1.5,1,1.8l3.6,2.4c0.5,0.4,0.5,0.8-0.1,1l-4.1,1.4
		c-0.6,0.2-1.2,0.9-1.4,1.5l-1.1,4.2c-0.2,0.6-0.6,0.7-1,0.2l-2.6-3.4c-0.4-0.5-1.2-0.9-1.9-0.9l-4.3,0.2c-0.6,0-0.9-0.4-0.5-0.9
		l2.5-3.5c0.4-0.5,0.5-1.5,0.3-2.1l-1.5-4c-0.2-0.6,0.1-0.9,0.7-0.8l4.1,1.2c0.6,0.2,1.5,0,2-0.4L1005.5,744.6z"/>
	<path class="st1" d="M847.2,742.9c0.3-0.3,0.6-0.1,0.6,0.3l0.1,2.9c0,0.4,0.3,1,0.7,1.2l2.4,1.6c0.4,0.2,0.3,0.6-0.1,0.7l-2.8,1
		c-0.4,0.1-0.8,0.6-1,1l-0.8,2.8c-0.1,0.4-0.4,0.5-0.7,0.1l-1.8-2.3c-0.3-0.3-0.8-0.6-1.3-0.6l-2.9,0.1c-0.4,0-0.6-0.3-0.3-0.6
		l1.7-2.4c0.2-0.4,0.3-1,0.2-1.4l-1-2.7c-0.2-0.4,0.1-0.6,0.5-0.5l2.8,0.8c0.4,0.1,1,0,1.4-0.3L847.2,742.9z"/>
	<circle class="st1" cx="901.3" cy="754.4" r="2.7"/>
	<circle class="st1" cx="713.1" cy="687.4" r="1.6"/>
	<circle class="st1" cx="737.5" cy="685.4" r="1.6"/>
	<path class="st1" d="M1009.7,707c0,0,2-6.2,7-6.9c0,0-4.7-0.8-7-7c-2.3,6.2-7,7-7,7C1007.7,700.7,1009.7,707,1009.7,707z"/>
	<path class="st1" d="M204.2,760c0,0,1.2-4,4.5-4.4c0,0-3-0.5-4.5-4.5c-1.5,4-4.5,4.5-4.5,4.5C202.9,756,204.2,760,204.2,760z"/>
	<circle class="st1" cx="721.2" cy="739.7" r="1.6"/>
	<circle class="st1" cx="769.5" cy="725.7" r="1.6"/>
	<circle class="st1" cx="970.8" cy="668.8" r="1.6"/>
	<circle class="st1" cx="807" cy="698.5" r="1.6"/>
	<circle class="st1" cx="955.5" cy="621.3" r="2.7"/>
	<circle class="st1" cx="961.1" cy="759.7" r="2.7"/>
	<path class="st1" d="M1010,656c0,0,1.2-4,4.5-4.4c0,0-3-0.5-4.5-4.5c-1.5,4-4.5,4.5-4.5,4.5C1008.7,652,1010,656,1010,656z"/>
	<path class="st1" d="M19.3,744c0,0,2-6.2,7-6.9c0,0-4.7-0.8-7-7c-2.3,6.2-7,7-7,7C17.4,737.8,19.3,744,19.3,744z"/>
	<circle class="st1" cx="804.3" cy="54" r="2.7"/>
	<circle class="st1" cx="345.1" cy="758" r="2.7"/>
	<path class="st1" d="M509.5,766.5c0,0,1.2-4,4.5-4.4c0,0-3-0.5-4.5-4.5c-1.5,4-4.5,4.5-4.5,4.5
		C508.3,762.5,509.5,766.5,509.5,766.5z"/>
	<path class="st1" d="M440.1,761.2c0,0,1.1-3.5,4-3.9c0,0-2.7-0.5-4-4c-1.3,3.5-4,4-4,4C439,757.6,440.1,761.2,440.1,761.2z"/>
	<path class="st1" d="M781.8,758.9c0,0,1.2-4,4.5-4.4c0,0-3-0.5-4.5-4.5c-1.5,4-4.5,4.5-4.5,4.5
		C780.6,754.9,781.8,758.9,781.8,758.9z"/>
	<circle class="st1" cx="583" cy="686.1" r="2.7"/>
	<path class="st1" d="M740,755.7c0,0,2-6.2,7-6.9c0,0-4.7-0.8-7-7c-2.3,6.2-7,7-7,7C738.1,749.5,740,755.7,740,755.7z"/>
	<path class="st1" d="M855.8,91.2c0,0,1.2-4,4.5-4.4c0,0-3-0.5-4.5-4.5c-1.5,4-4.5,4.5-4.5,4.5C854.5,87.2,855.8,91.2,855.8,91.2z"
		/>
	<path class="st1" d="M300.4,751.3c0.3-0.3,0.6-0.1,0.6,0.3l0.1,2.9c0,0.4,0.3,1,0.7,1.2l2.4,1.6c0.4,0.2,0.3,0.6-0.1,0.7l-2.8,1
		c-0.4,0.1-0.8,0.6-1,1l-0.8,2.8c-0.1,0.4-0.4,0.5-0.7,0.1l-1.8-2.3c-0.3-0.3-0.8-0.6-1.3-0.6l-2.9,0.1c-0.4,0-0.6-0.3-0.3-0.6
		l1.7-2.4c0.2-0.4,0.3-1,0.2-1.4l-1-2.7c-0.2-0.4,0.1-0.6,0.5-0.5l2.8,0.8c0.4,0.1,1,0,1.4-0.3L300.4,751.3z"/>
	<path class="st1" d="M94.3,54.1c0.5-0.4,0.9-0.2,0.9,0.4l0.1,4.3c0,0.6,0.5,1.5,1,1.8l3.6,2.4c0.5,0.4,0.5,0.8-0.1,1l-4.1,1.4
		c-0.6,0.2-1.2,0.9-1.4,1.5l-1.1,4.2c-0.2,0.6-0.6,0.7-1,0.2L89.5,68c-0.4-0.5-1.2-0.9-1.9-0.9l-4.3,0.2c-0.6,0-0.9-0.4-0.5-0.9
		l2.5-3.5c0.4-0.5,0.5-1.5,0.3-2.1l-1.5-4c-0.2-0.6,0.1-0.9,0.7-0.8l4.1,1.2c0.6,0.2,1.5,0,2-0.4L94.3,54.1z"/>
	<circle class="st1" cx="135.9" cy="71.4" r="1.6"/>
	<path class="st1" d="M23.9,65.7c0.1-0.4,0.4-0.5,0.7-0.1l1.8,2.3c0.3,0.3,0.8,0.6,1.3,0.6l2.9-0.1c0.4,0,0.6,0.3,0.3,0.6l-1.7,2.4
		c-0.2,0.4-0.3,1-0.2,1.4l1,2.7c0.2,0.4-0.1,0.6-0.5,0.5l-2.8-0.8c-0.4-0.1-1,0-1.4,0.3l-2.3,1.8c-0.3,0.3-0.6,0.1-0.6-0.3l-0.1-2.9
		c0-0.4-0.3-1-0.7-1.2l-2.4-1.6C19,71,19,70.7,19.5,70.5l2.8-1c0.4-0.1,0.8-0.6,1-1L23.9,65.7z"/>
	<circle class="st1" cx="580.4" cy="75.6" r="2.7"/>
	<ellipse class="st1" cx="298.5" cy="66.5" rx="1.6" ry="1"/>
	<circle class="st1" cx="597.2" cy="79.3" r="1.6"/>
	<circle class="st1" cx="615.1" cy="63.6" r="1.6"/>
	<circle class="st1" cx="690.2" cy="68.2" r="1.6"/>
	<circle class="st1" cx="714.5" cy="66.3" r="1.6"/>
	<circle class="st1" cx="784.1" cy="79.3" r="1.6"/>
	<circle class="st1" cx="365.2" cy="66.5" r="2.7"/>
	<path class="st1" d="M466.3,72c0,0,1.2-4,4.5-4.4c0,0-3-0.5-4.5-4.5c-1.5,4-4.5,4.5-4.5,4.5C465.1,68,466.3,72,466.3,72z"/>
	<circle class="st1" cx="560" cy="67" r="2.7"/>
	<path class="st1" d="M217.9,75.8c0,0,1.2-4,4.5-4.4c0,0-3-0.5-4.5-4.5c-1.5,4-4.5,4.5-4.5,4.5C216.7,71.9,217.9,75.8,217.9,75.8z"
		/>
	<path class="st1" d="M692.1,3.5c0.3-0.3,0.6-0.1,0.6,0.3l0.1,2.9c0,0.4,0.3,1,0.7,1.2l2.4,1.6c0.4,0.2,0.3,0.6-0.1,0.7l-2.8,1
		c-0.4,0.1-0.8,0.6-1,1l-0.8,2.8c-0.1,0.4-0.4,0.5-0.7,0.1l-1.8-2.3c-0.3-0.3-0.8-0.6-1.3-0.6l-2.9,0.1c-0.4,0-0.6-0.3-0.3-0.6
		l1.7-2.4c0.2-0.4,0.3-1,0.2-1.4l-1-2.7c-0.2-0.4,0.1-0.6,0.5-0.5l2.8,0.8c0.4,0.1,1,0,1.4-0.3L692.1,3.5z"/>
	<g>
		<path class="st1" d="M1004,532.8c-0.4-0.5-0.2-0.9,0.4-0.9l4.3-0.1c0.6,0,1.5-0.5,1.8-1l2.4-3.6c0.4-0.5,0.8-0.5,1,0.1l1.4,4.1
			c0.2,0.6,0.9,1.3,1.5,1.4l4.2,1.2c0.6,0.2,0.7,0.6,0.2,1l-3.5,2.6c-0.5,0.4-0.9,1.2-0.9,1.9l0.2,4.3c0,0.6-0.4,0.9-0.9,0.5
			l-3.5-2.5c-0.5-0.4-1.5-0.5-2.1-0.3l-4,1.5c-0.6,0.2-0.9-0.1-0.8-0.7l1.3-4.1c0.2-0.6,0-1.5-0.4-2L1004,532.8z"/>
		
			<ellipse transform="matrix(9.346065e-03 -1 1 9.346065e-03 -747.93 765.8508)" class="st1" cx="12.6" cy="760.4" rx="1.6" ry="1.6"/>
		<path class="st1" d="M1003.8,600.5c-0.4-0.1-0.5-0.4-0.1-0.7l2.3-1.8c0.3-0.3,0.6-0.8,0.6-1.3l-0.1-2.9c0-0.4,0.3-0.6,0.6-0.3
			l2.4,1.7c0.4,0.3,1,0.3,1.4,0.2l2.7-1c0.4-0.2,0.6,0.1,0.5,0.5l-0.9,2.8c-0.1,0.4,0,1,0.3,1.4l1.8,2.3c0.3,0.3,0.1,0.6-0.3,0.6
			l-2.9,0c-0.4,0-1,0.3-1.2,0.7l-1.6,2.4c-0.2,0.4-0.6,0.3-0.7-0.1l-0.9-2.8c-0.1-0.4-0.6-0.8-1-1L1003.8,600.5z"/>
		
			<ellipse transform="matrix(9.346065e-03 -1 1 9.346065e-03 -295.1701 333.7957)" class="st1" cx="20.9" cy="315.9" rx="2.7" ry="2.7"/>
		
			<ellipse transform="matrix(9.346065e-03 -1 1 9.346065e-03 -588.5937 601.3993)" class="st1" cx="9.2" cy="597.8" rx="1.6" ry="1"/>
		
			<ellipse transform="matrix(9.346065e-03 -1 1 9.346065e-03 -274.5924 321.0535)" class="st1" cx="24.7" cy="299.1" rx="1.6" ry="1.6"/>
		
			<ellipse transform="matrix(9.346065e-03 -1 1 9.346065e-03 -271.938 287.6477)" class="st1" cx="9.2" cy="281.1" rx="1.6" ry="1.6"/>
		
			<ellipse transform="matrix(9.346065e-03 -1 1 9.346065e-03 -191.6103 218.7443)" class="st1" cx="14.6" cy="206.1" rx="1.6" ry="1.6"/>
		
			<ellipse transform="matrix(9.346065e-03 -1 1 9.346065e-03 -168.9671 192.8297)" class="st1" cx="12.8" cy="181.7" rx="1.6" ry="1.6"/>
		
			<ellipse transform="matrix(9.346065e-03 -1 1 9.346065e-03 -85.9632 137.8248)" class="st1" cx="26.6" cy="112.3" rx="1.6" ry="1.6"/>
		
			<ellipse transform="matrix(9.346065e-03 -1 1 9.346065e-03 -521.2748 535.7975)" class="st1" cx="9.8" cy="531" rx="2.7" ry="2.7"/>
		<path class="st1" d="M16.2,430c0,0-4-1.3-4.4-4.5c0,0-0.5,3-4.5,4.5c4,1.5,4.5,4.5,4.5,4.5C12.3,431.2,16.2,430,16.2,430z"/>
		
			<ellipse transform="matrix(9.346065e-03 -1 1 9.346065e-03 -324.1722 345.1697)" class="st1" cx="12.1" cy="336.2" rx="2.7" ry="2.7"/>
		<path class="st1" d="M17.8,678.4c0,0-4-1.3-4.4-4.5c0,0-0.5,3-4.5,4.5c4,1.5,4.5,4.5,4.5,4.5C13.8,679.6,17.8,678.4,17.8,678.4z"
			/>
		<path class="st1" d="M13.4,630.4c-0.3-0.3-0.1-0.6,0.3-0.6l2.9,0c0.4,0,1-0.3,1.2-0.7l1.6-2.4c0.2-0.4,0.6-0.3,0.7,0.1l0.9,2.8
			c0.1,0.4,0.6,0.8,1,1l2.8,0.8c0.4,0.1,0.5,0.4,0.1,0.7l-2.3,1.7c-0.3,0.3-0.6,0.8-0.6,1.3l0.1,2.9c0,0.4-0.3,0.6-0.6,0.3l-2.4-1.7
			c-0.4-0.3-1-0.3-1.4-0.2l-2.7,1c-0.4,0.2-0.6-0.1-0.5-0.5l0.9-2.8c0.1-0.4,0-1-0.3-1.4L13.4,630.4z"/>
	</g>
	<path class="st1" d="M884.4,36.3c0.5-0.4,0.9-0.2,0.9,0.4l0.1,4.3c0,0.6,0.5,1.5,1,1.8l3.6,2.4c0.5,0.4,0.5,0.8-0.1,1l-4.1,1.4
		c-0.6,0.2-1.2,0.9-1.4,1.5l-1.1,4.2c-0.2,0.6-0.6,0.7-1,0.2l-2.6-3.4c-0.4-0.5-1.2-0.9-1.9-0.9l-4.3,0.2c-0.6,0-0.9-0.4-0.5-0.9
		l2.5-3.5c0.4-0.5,0.5-1.5,0.3-2.1l-1.5-4c-0.2-0.6,0.1-0.9,0.7-0.8l4.1,1.2c0.6,0.2,1.5,0,2-0.4L884.4,36.3z"/>
	<path class="st1" d="M946.2,61.9c0,0,1.2-4,4.5-4.4c0,0-3-0.5-4.5-4.5c-1.5,4-4.5,4.5-4.5,4.5C944.9,58,946.2,61.9,946.2,61.9z"/>
	<circle class="st1" cx="923.7" cy="24.4" r="1.6"/>
	<path class="st1" d="M811.8,18.7c0.1-0.4,0.4-0.5,0.7-0.1l1.8,2.3c0.3,0.3,0.8,0.6,1.3,0.6l2.9-0.1c0.4,0,0.6,0.3,0.3,0.6l-1.7,2.4
		c-0.2,0.4-0.3,1-0.2,1.4l1,2.7c0.2,0.4-0.1,0.6-0.5,0.5l-2.8-0.8c-0.4-0.1-1,0-1.4,0.3l-2.3,1.8c-0.3,0.3-0.6,0.1-0.6-0.3l-0.1-2.9
		c0-0.4-0.3-1-0.7-1.2l-2.4-1.6c-0.4-0.2-0.3-0.6,0.1-0.7l2.8-1c0.4-0.1,0.8-0.6,1-1L811.8,18.7z"/>
	<path class="st1" d="M1005.8,28.9c0,0,1.2-4,4.5-4.4c0,0-3-0.5-4.5-4.5c-1.5,4-4.5,4.5-4.5,4.5
		C1004.5,24.9,1005.8,28.9,1005.8,28.9z"/>
	<path class="st1" d="M191.7,37c0,0,2-6.2,7-6.9c0,0-4.7-0.8-7-7c-2.3,6.2-7,7-7,7C189.8,30.8,191.7,37,191.7,37z"/>
	<path class="st1" d="M330.7,27.1c0,0,2-6.2,7-6.9c0,0-4.7-0.8-7-7c-2.3,6.2-7,7-7,7C328.8,20.8,330.7,27.1,330.7,27.1z"/>
	<path class="st1" d="M87.4,5.3C87.7,5,88,5.1,88,5.6l0.1,2.9c0,0.4,0.3,1,0.7,1.2l2.4,1.6c0.4,0.2,0.3,0.6-0.1,0.7l-2.8,1
		c-0.4,0.1-0.8,0.6-1,1l-0.8,2.8c-0.1,0.4-0.4,0.5-0.7,0.1l-1.8-2.3c-0.3-0.3-0.8-0.6-1.3-0.6L80,14.2c-0.4,0-0.6-0.3-0.3-0.6
		l1.7-2.4c0.2-0.4,0.3-1,0.2-1.4l-1-2.7c-0.2-0.4,0.1-0.6,0.5-0.5l2.8,0.8c0.4,0.1,1,0,1.4-0.3L87.4,5.3z"/>
	<path class="st1" d="M999.8,477.9c0,0,2-6.2,7-6.9c0,0-4.7-0.8-7-7c-2.3,6.2-7,7-7,7C997.9,471.7,999.8,477.9,999.8,477.9z"/>
	<path class="st1" d="M1012.5,124.9c0,0,2-6.2,7-6.9c0,0-4.7-0.8-7-7c-2.3,6.2-7,7-7,7C1010.5,118.7,1012.5,124.9,1012.5,124.9z"/>
	<path class="st1" d="M1016.4,177.4c0.3-0.3,0.6-0.1,0.6,0.3l0.1,2.9c0,0.4,0.3,1,0.7,1.2l2.4,1.6c0.4,0.2,0.3,0.6-0.1,0.7l-2.8,1
		c-0.4,0.1-0.8,0.6-1,1l-0.8,2.8c-0.1,0.4-0.4,0.5-0.7,0.1l-1.8-2.3c-0.3-0.3-0.8-0.6-1.3-0.6l-2.9,0.1c-0.4,0-0.6-0.3-0.3-0.6
		l1.7-2.4c0.2-0.4,0.3-1,0.2-1.4l-1-2.7c-0.2-0.4,0.1-0.6,0.5-0.5l2.8,0.8c0.4,0.1,1,0,1.4-0.3L1016.4,177.4z"/>
	
		<ellipse transform="matrix(9.346065e-03 -1 1 9.346065e-03 689.8381 1328.5)" class="st1" cx="1015.4" cy="316.1" rx="2.7" ry="2.7"/>
	
		<ellipse transform="matrix(9.346065e-03 -1 1 9.346065e-03 750.414 1276.1315)" class="st1" cx="1019.3" cy="259.3" rx="1.6" ry="1.6"/>
	
		<ellipse transform="matrix(9.346065e-03 -1 1 9.346065e-03 753.0685 1242.7257)" class="st1" cx="1003.7" cy="241.3" rx="1.6" ry="1.6"/>
	
		<ellipse transform="matrix(9.346065e-03 -1 1 9.346065e-03 660.8359 1339.8739)" class="st1" cx="1006.6" cy="336.4" rx="2.7" ry="2.7"/>
	<path class="st1" d="M1016.6,385.6c0.3-0.3,0.6-0.1,0.6,0.3l0.1,2.9c0,0.4,0.3,1,0.7,1.2l2.4,1.6c0.4,0.2,0.3,0.6-0.1,0.7l-2.8,1
		c-0.4,0.1-0.8,0.6-1,1l-0.8,2.8c-0.1,0.4-0.4,0.5-0.7,0.1l-1.8-2.3c-0.3-0.3-0.8-0.6-1.3-0.6l-2.9,0.1c-0.4,0-0.6-0.3-0.3-0.6
		l1.7-2.4c0.2-0.4,0.3-1,0.2-1.4l-1-2.7c-0.2-0.4,0.1-0.6,0.5-0.5l2.8,0.8c0.4,0.1,1,0,1.4-0.3L1016.6,385.6z"/>
	<circle class="st1" cx="249" cy="28.6" r="2.7"/>
	<circle class="st1" cx="265.8" cy="32.3" r="1.6"/>
	<circle class="st1" cx="283.7" cy="16.6" r="1.6"/>
	<path class="st1" d="M648.7,19.4c0,0,1.2-4,4.5-4.4c0,0-3-0.5-4.5-4.5c-1.5,4-4.5,4.5-4.5,4.5C647.4,15.4,648.7,19.4,648.7,19.4z"
		/>
	<path class="st1" d="M606.9,16.2c0,0,2-6.2,7-6.9c0,0-4.7-0.8-7-7c-2.3,6.2-7,7-7,7C604.9,10,606.9,16.2,606.9,16.2z"/>
	<path class="st1" d="M412.4,13.9c0,0,1.2-4,4.5-4.4c0,0-3-0.5-4.5-4.5c-1.5,4-4.5,4.5-4.5,4.5C411.1,9.9,412.4,13.9,412.4,13.9z"/>
	<path class="st1" d="M512,60c0,0,2-6.2,7-6.9c0,0-4.7-0.8-7-7c-2.3,6.2-7,7-7,7C510,53.8,512,60,512,60z"/>
	<path class="st1" d="M983.6,10.7c0.5-0.4,0.9-0.2,0.9,0.4l0.1,4.3c0,0.6,0.5,1.5,1,1.8l3.6,2.4c0.5,0.4,0.5,0.8-0.1,1l-4.1,1.4
		c-0.6,0.2-1.2,0.9-1.4,1.5l-1.1,4.2c-0.2,0.6-0.6,0.7-1,0.2l-2.6-3.4c-0.4-0.5-1.2-0.9-1.9-0.9l-4.3,0.2c-0.6,0-0.9-0.4-0.5-0.9
		l2.5-3.5c0.4-0.5,0.5-1.5,0.3-2.1l-1.5-4c-0.2-0.6,0.1-0.9,0.7-0.8l4.1,1.2c0.6,0.2,1.5,0,2-0.4L983.6,10.7z"/>
	<path class="st1" d="M13.7,9.3c0.1-0.4,0.4-0.5,0.7-0.1l1.8,2.3c0.3,0.3,0.8,0.6,1.3,0.6l2.9-0.1c0.4,0,0.6,0.3,0.3,0.6L19,14.9
		c-0.2,0.4-0.3,1-0.2,1.4l1,2.7c0.2,0.4-0.1,0.6-0.5,0.5l-2.8-0.8c-0.4-0.1-1,0-1.4,0.3l-2.3,1.8c-0.3,0.3-0.6,0.1-0.6-0.3l-0.1-2.9
		c0-0.4-0.3-1-0.7-1.2l-2.4-1.6c-0.4-0.2-0.3-0.6,0.1-0.7l2.8-1c0.4-0.1,0.8-0.6,1-1L13.7,9.3z"/>
	<path class="st1" d="M176.4,61.9c0,0,1.2-4,4.5-4.4c0,0-3-0.5-4.5-4.5c-1.5,4-4.5,4.5-4.5,4.5C175.2,58,176.4,61.9,176.4,61.9z"/>
	<path class="st1" d="M262.3,36.3c0.5-0.4,0.9-0.2,0.9,0.4l0.1,4.3c0,0.6,0.5,1.5,1,1.8l3.6,2.4c0.5,0.4,0.5,0.8-0.1,1l-4.1,1.4
		c-0.6,0.2-1.2,0.9-1.4,1.5l-1.1,4.2c-0.2,0.6-0.6,0.7-1,0.2l-2.6-3.4c-0.4-0.5-1.2-0.9-1.9-0.9l-4.3,0.2c-0.6,0-0.9-0.4-0.5-0.9
		l2.5-3.5c0.4-0.5,0.5-1.5,0.3-2.1l-1.5-4c-0.2-0.6,0.1-0.9,0.7-0.8l4.1,1.2c0.6,0.2,1.5,0,2-0.4L262.3,36.3z"/>
	<circle class="st1" cx="604.3" cy="71.2" r="1.6"/>
	<path class="st1" d="M775.4,49c0,0,2-6.2,7-6.9c0,0-4.7-0.8-7-7c-2.3,6.2-7,7-7,7C773.5,42.8,775.4,49,775.4,49z"/>
	<path class="st1" d="M649.4,32.7c0,0,1.2-4,4.5-4.4c0,0-3-0.5-4.5-4.5c-1.5,4-4.5,4.5-4.5,4.5C648.2,28.7,649.4,32.7,649.4,32.7z"
		/>
	<path class="st1" d="M748.5,48.4c0,0,1.2-4,4.5-4.4c0,0-3-0.5-4.5-4.5c-1.5,4-4.5,4.5-4.5,4.5C747.3,44.5,748.5,48.4,748.5,48.4z"
		/>
	<path class="st1" d="M608.4,73.7c0,0,1.2-4,4.5-4.4c0,0-3-0.5-4.5-4.5c-1.5,4-4.5,4.5-4.5,4.5C607.2,69.7,608.4,73.7,608.4,73.7z"
		/>
	<path class="st1" d="M375,37.6c0,0,2-6.2,7-6.9c0,0-4.7-0.8-7-7c-2.3,6.2-7,7-7,7C373,31.4,375,37.6,375,37.6z"/>
	<path class="st1" d="M1009.8,50.8c0.3-0.3,0.6-0.1,0.6,0.3l0.1,2.9c0,0.4,0.3,1,0.7,1.2l2.4,1.6c0.4,0.2,0.3,0.6-0.1,0.7l-2.8,1
		c-0.4,0.1-0.8,0.6-1,1l-0.8,2.8c-0.1,0.4-0.4,0.5-0.7,0.1l-1.8-2.3c-0.3-0.3-0.8-0.6-1.3-0.6l-2.9,0.1c-0.4,0-0.6-0.3-0.3-0.6
		l1.7-2.4c0.2-0.4,0.3-1,0.2-1.4l-1-2.7c-0.2-0.4,0.1-0.6,0.5-0.5l2.8,0.8c0.4,0.1,1,0,1.4-0.3L1009.8,50.8z"/>
	<path class="st1" d="M894.5,4.6c0.3-0.3,0.6-0.1,0.6,0.3l0.1,2.9c0,0.4,0.3,1,0.7,1.2l2.4,1.6c0.4,0.2,0.3,0.6-0.1,0.7l-2.8,1
		c-0.4,0.1-0.8,0.6-1,1l-0.8,2.8c-0.1,0.4-0.4,0.5-0.7,0.1l-1.8-2.3c-0.3-0.3-0.8-0.6-1.3-0.6l-2.9,0.1c-0.4,0-0.6-0.3-0.3-0.6
		l1.7-2.4c0.2-0.4,0.3-1,0.2-1.4l-1-2.7c-0.2-0.4,0.1-0.6,0.5-0.5l2.8,0.8c0.4,0.1,1,0,1.4-0.3L894.5,4.6z"/>
	<path class="st1" d="M519,16.9c0,0,2-6.2,7-6.9c0,0-4.7-0.8-7-7c-2.3,6.2-7,7-7,7C517.1,10.7,519,16.9,519,16.9z"/>
	<circle class="st1" cx="66" cy="28.3" r="1.6"/>
</g>
<path class="st2" d="M461.8,760c-0.4-0.1-0.5-0.4-0.1-0.7l2.3-1.8c0.3-0.3,0.6-0.8,0.6-1.3l-0.1-2.9c0-0.4,0.3-0.6,0.6-0.3l2.4,1.7
	c0.4,0.3,1,0.3,1.4,0.2l2.7-1c0.4-0.2,0.6,0.1,0.5,0.5l-0.9,2.8c-0.1,0.4,0,1,0.3,1.4l1.8,2.3c0.3,0.3,0.1,0.6-0.3,0.6l-2.9,0
	c-0.4,0-1,0.3-1.2,0.7l-1.6,2.4c-0.2,0.4-0.6,0.3-0.7-0.1l-0.9-2.8c-0.1-0.4-0.6-0.8-1-1L461.8,760z"/>
<path class="st2" d="M1014.7,255.6c0,0,2-6.2,7-6.9c0,0-4.7-0.8-7-7c-2.3,6.2-7,7-7,7C1012.8,249.4,1014.7,255.6,1014.7,255.6z"/>
<path class="st2" d="M1013.9,388.2c0,0,2-6.2,7-6.9c0,0-4.7-0.8-7-7c-2.3,6.2-7,7-7,7C1011.9,382,1013.9,388.2,1013.9,388.2z"/>
<path class="st3" d="M149,19.9c0.1-0.4,0.4-0.5,0.7-0.1l1.8,2.3c0.3,0.3,0.8,0.6,1.3,0.6l2.9-0.1c0.4,0,0.6,0.3,0.3,0.6l-1.7,2.4
	c-0.2,0.4-0.3,1-0.2,1.4l1,2.7c0.2,0.4-0.1,0.6-0.5,0.5l-2.8-0.8c-0.4-0.1-1,0-1.4,0.3l-2.3,1.8c-0.3,0.3-0.6,0.1-0.6-0.3l-0.1-2.9
	c0-0.4-0.3-1-0.7-1.2l-2.4-1.6c-0.4-0.2-0.3-0.6,0.1-0.7l2.8-1c0.4-0.1,0.8-0.6,1-1L149,19.9z"/>
</svg>
