<?xml version="1.0" encoding="utf-8"?>
<!-- Generator: Adobe Illustrator 21.0.0, SVG Export Plug-In . SVG Version: 6.00 Build 0)  -->
<svg version="1.1" id="Layer_1" xmlns="http://www.w3.org/2000/svg" xmlns:xlink="http://www.w3.org/1999/xlink" x="0px" y="0px"
	 viewBox="0 0 46.2 48.9" style="enable-background:new 0 0 46.2 48.9;" xml:space="preserve">
<style type="text/css">
	.st0{fill:#56B731;}
	.st1{opacity:0.15;enable-background:new    ;}
	.st2{fill:#FFBF1C;}
	.st3{fill:#FFFFFF;}
	.st4{fill:#E6E6E6;}
	.st5{fill:#CECECE;}
	.st6{fill:url(#SVGID_1_);}
	.st7{fill:url(#SVGID_2_);}
	.st8{opacity:0.5;}
	.st9{fill:none;stroke:#FFFFFF;stroke-width:2;stroke-miterlimit:1;}
</style>
<g>
	<path class="st0" d="M13.2,24.8h2.1l0.8,7.4c0,0.3,0.3,0.6,0.6,0.6h3.2c0.3,0,0.5-0.3,0.5-0.6l-0.2-3c-0.1-1.1,0.7-2,1.7-2.2
		l1.2-0.2c1.3-0.3,2.5,0.7,2.5,2.1v3.4c0,0.3,0.2,0.5,0.5,0.5H29c0.3,0,0.6-0.2,0.6-0.6l0.8-7.4h2.1c1,0,1.6-1.3,0.8-2l-8.4-8.4
		c-1.2-1.2-3-1.2-4.2,0l-8.4,8.4C11.7,23.6,12.2,24.8,13.2,24.8z"/>
</g>
<circle class="st1" cx="23.1" cy="25.8" r="23.1"/>
<circle class="st0" cx="23.1" cy="23.1" r="23.1"/>
<circle class="st2" cx="23.1" cy="23.1" r="17.5"/>
<circle class="st3" cx="23.1" cy="23.1" r="21.2"/>
<path class="st4" d="M44.3,23.1c0,11.7-9.5,21.2-21.2,21.2S1.9,34.8,1.9,23.1C11.5,23.1,34.6,23.1,44.3,23.1z"/>
<circle class="st5" cx="23.1" cy="23.1" r="17.5"/>
<linearGradient id="SVGID_1_" gradientUnits="userSpaceOnUse" x1="23.1" y1="42.2369" x2="23.1" y2="9.542" gradientTransform="matrix(1 0 0 -1 0 49)">
	<stop  offset="0" style="stop-color:#FFFFFF"/>
	<stop  offset="1" style="stop-color:#C9CDDB"/>
</linearGradient>
<circle class="st6" cx="23.1" cy="23.1" r="16.3"/>
<linearGradient id="SVGID_2_" gradientUnits="userSpaceOnUse" x1="23.1806" y1="27.3104" x2="24.5282" y2="46.4652" gradientTransform="matrix(1 0 0 -1 0 49)">
	<stop  offset="0" style="stop-color:#FFFFFF;stop-opacity:0"/>
	<stop  offset="8.962709e-02" style="stop-color:#FFFFFF;stop-opacity:8.962709e-02"/>
	<stop  offset="1" style="stop-color:#FFFFFF"/>
</linearGradient>
<path class="st7" d="M37.7,23.1c-7.3,0-22.6,0-29.2,0C8.5,15,15,8.5,23.1,8.5S37.7,15.1,37.7,23.1z"/>
<g>
	<g class="st8">
		<path class="st3" d="M13.3,24.4h2.1l0.8,7.4c0,0.3,0.3,0.6,0.6,0.6H20c0.3,0,0.5-0.3,0.5-0.6l-0.2-3c-0.1-1.1,0.7-2,1.7-2.2
			l1.2-0.2c1.3-0.3,2.5,0.7,2.5,2.1v3.4c0,0.3,0.2,0.5,0.5,0.5H29c0.3,0,0.6-0.2,0.6-0.6l0.8-7.4h2.1c1,0,1.6-1.3,0.8-2L25,14
			c-1.2-1.2-3-1.2-4.2,0l-8.3,8.3C11.7,23.1,12.3,24.4,13.3,24.4z"/>
		<path class="st9" d="M13.3,24.4h2.1l0.8,7.4c0,0.3,0.3,0.6,0.6,0.6H20c0.3,0,0.5-0.3,0.5-0.6l-0.2-3c-0.1-1.1,0.7-2,1.7-2.2
			l1.2-0.2c1.3-0.3,2.5,0.7,2.5,2.1v3.4c0,0.3,0.2,0.5,0.5,0.5H29c0.3,0,0.6-0.2,0.6-0.6l0.8-7.4h2.1c1,0,1.6-1.3,0.8-2L25,14
			c-1.2-1.2-3-1.2-4.2,0l-8.3,8.3C11.7,23.1,12.3,24.4,13.3,24.4z"/>
	</g>
	<g>
		<path class="st0" d="M13.3,24.7h2.1l0.8,7.4c0,0.3,0.3,0.6,0.6,0.6H20c0.3,0,0.5-0.3,0.5-0.6l-0.2-3c-0.1-1.1,0.7-2,1.7-2.2
			l1.2-0.2c1.3-0.3,2.5,0.7,2.5,2.1v3.4c0,0.3,0.2,0.5,0.5,0.5H29c0.3,0,0.6-0.2,0.6-0.6l0.8-7.4h2.1c1,0,1.6-1.3,0.8-2L25,14.4
			c-1.2-1.2-3-1.2-4.2,0l-8.3,8.3C11.7,23.5,12.3,24.7,13.3,24.7z"/>
	</g>
</g>
</svg>
