<?xml version="1.0" encoding="utf-8"?>
<!-- Generator: Adobe Illustrator 21.0.0, SVG Export Plug-In . SVG Version: 6.00 Build 0)  -->
<svg version="1.1" id="Isolation_Mode" xmlns="http://www.w3.org/2000/svg" xmlns:xlink="http://www.w3.org/1999/xlink" x="0px"
	 y="0px" viewBox="0 0 389.1 59" style="enable-background:new 0 0 389.1 59;" xml:space="preserve">
<style type="text/css">
	.st0{fill:#FFFFFF;}
	.st1{opacity:0.5;}
	.st2{fill:#FCA100;}
</style>
<g>
	<path class="st0" d="M389.1,44c0,8.3-6.8,15-15,15H15C6.8,59,0,52.3,0,44V15C0,6.8,6.8,0,15,0h359.1c8.3,0,15,6.8,15,15V44z"/>
	<g class="st1">
		<path class="st2" d="M24,25c-0.6,0.4-1.1,1.1-1.3,2c-0.7-0.4-1.6-0.6-2.3-0.5c-0.2,0.7,0.1,1.6,0.5,2.3c-0.8,0.2-1.6,0.7-2,1.3
			c0.4,0.6,1.1,1.1,2,1.3c-0.4,0.7-0.6,1.6-0.5,2.3c0.7,0.2,1.6-0.1,2.3-0.5c0.2,0.8,0.7,1.6,1.3,2c0.6-0.4,1.1-1.1,1.3-2
			c0.7,0.4,1.6,0.6,2.3,0.5c0.2-0.7-0.1-1.6-0.5-2.3c0.8-0.2,1.6-0.7,2-1.3c-0.4-0.6-1.1-1.1-2-1.3c0.4-0.7,0.6-1.6,0.5-2.3
			c-0.7-0.2-1.6,0.1-2.3,0.5C25.1,26.1,24.7,25.3,24,25z M23.3,28.2c0.3,0.1,0.5,0.3,0.8,0.6c0.2-0.2,0.5-0.4,0.8-0.6
			c0.1,0.3,0.1,0.6,0.1,0.9c0.3,0,0.6,0,0.9,0.1c-0.1,0.3-0.3,0.5-0.6,0.8c0.2,0.2,0.4,0.5,0.6,0.8c-0.3,0.1-0.6,0.1-0.9,0.1
			c0,0.3,0,0.6-0.1,0.9c-0.3-0.1-0.5-0.3-0.8-0.6c-0.2,0.2-0.5,0.4-0.8,0.6c-0.1-0.3-0.1-0.6-0.1-0.9c-0.3,0-0.6,0-0.9-0.1
			c0.1-0.3,0.3-0.5,0.6-0.8c-0.2-0.2-0.4-0.5-0.6-0.8c0.3-0.1,0.6-0.1,0.9-0.1C23.2,28.8,23.2,28.5,23.3,28.2z"/>
		<path class="st2" d="M19.3,18.7c1.4,0.7,3.6,2.6,3.6,4.7c0,0.9-0.2,1.8-0.5,2.9c-1-0.6-1.8-1.1-2.4-1.7
			C18.6,23,18.8,20.2,19.3,18.7z"/>
		<path class="st2" d="M28.8,18.7c0.5,1.5,0.8,4.4-0.7,5.9c-0.6,0.6-1.4,1.1-2.4,1.7c-0.2-1.1-0.5-2-0.5-2.9
			C25.1,21.2,27.3,19.4,28.8,18.7z"/>
		<path class="st2" d="M35.4,25.3c-0.7,1.4-2.6,3.6-4.7,3.6c-0.9,0-1.8-0.2-2.9-0.5c0.6-1,1.1-1.8,1.7-2.4
			C31.1,24.6,33.9,24.8,35.4,25.3z"/>
		<path class="st2" d="M35.4,34.8c-1.5,0.5-4.4,0.8-5.9-0.7c-0.6-0.6-1.1-1.4-1.7-2.4c1.1-0.2,2-0.5,2.9-0.5
			C32.9,31.1,34.7,33.3,35.4,34.8z"/>
		<path class="st2" d="M28.8,41.4c-1.4-0.7-3.6-2.6-3.6-4.7c0-0.9,0.2-1.8,0.5-2.9c1,0.6,1.8,1.1,2.4,1.7
			C29.5,37.1,29.3,39.9,28.8,41.4z"/>
		<path class="st2" d="M19.3,41.4c-0.5-1.5-0.8-4.4,0.7-5.9c0.6-0.6,1.4-1.1,2.4-1.7c0.2,1.1,0.5,2,0.5,2.9
			C23,38.9,20.8,40.7,19.3,41.4z"/>
		<path class="st2" d="M12.7,34.8c0.7-1.4,2.6-3.6,4.7-3.6c0.9,0,1.8,0.2,2.9,0.5c-0.6,1-1.1,1.8-1.7,2.4
			C17,35.5,14.2,35.3,12.7,34.8z"/>
		<path class="st2" d="M12.7,25.3c1.5-0.5,4.4-0.8,5.9,0.7c0.6,0.6,1.1,1.4,1.7,2.4c-1.1,0.2-2,0.5-2.9,0.5
			C15.2,29,13.4,26.8,12.7,25.3z"/>
		<circle class="st2" cx="24" cy="19.1" r="1.5"/>
		<ellipse transform="matrix(0.7071 -0.7071 0.7071 0.7071 -6.4433 29.0181)" class="st2" cx="31.8" cy="22.3" rx="1.5" ry="1.5"/>
		<circle class="st2" cx="35" cy="30" r="1.5"/>
		<ellipse transform="matrix(0.7071 -0.7071 0.7071 0.7071 -17.4185 33.5641)" class="st2" cx="31.8" cy="37.8" rx="1.5" ry="1.5"/>
		<circle class="st2" cx="24" cy="41" r="1.5"/>
		<ellipse transform="matrix(0.7071 -0.7071 0.7071 0.7071 -21.9646 22.5888)" class="st2" cx="16.3" cy="37.8" rx="1.5" ry="1.5"/>
		<circle class="st2" cx="13.1" cy="30" r="1.5"/>
		<ellipse transform="matrix(0.7071 -0.7071 0.7071 0.7071 -10.9894 18.0427)" class="st2" cx="16.3" cy="22.3" rx="1.5" ry="1.5"/>
		<circle class="st2" cx="24" cy="21.9" r="0.7"/>
		<ellipse transform="matrix(0.7071 -0.7071 0.7071 0.7071 -8.4746 28.1765)" class="st2" cx="29.8" cy="24.3" rx="0.7" ry="0.7"/>
		<circle class="st2" cx="32.1" cy="30" r="0.7"/>
		<ellipse transform="matrix(0.7071 -0.7071 0.7071 0.7071 -16.5771 31.5328)" class="st2" cx="29.8" cy="35.8" rx="0.7" ry="0.7"/>
		<circle class="st2" cx="24" cy="38.1" r="0.7"/>
		<ellipse transform="matrix(0.7071 -0.7071 0.7071 0.7071 -19.9334 23.4302)" class="st2" cx="18.3" cy="35.8" rx="0.7" ry="0.7"/>
		<circle class="st2" cx="15.9" cy="30" r="0.7"/>
		<ellipse transform="matrix(0.7071 -0.7071 0.7071 0.7071 -11.8308 20.0741)" class="st2" cx="18.3" cy="24.3" rx="0.7" ry="0.7"/>
		<circle class="st2" cx="24" cy="23.8" r="0.5"/>
		<ellipse transform="matrix(0.7071 -0.7071 0.7071 0.7071 -9.7945 27.6298)" class="st2" cx="28.5" cy="25.6" rx="0.5" ry="0.5"/>
		<circle class="st2" cx="30.3" cy="30" r="0.5"/>
		<ellipse transform="matrix(0.7071 -0.7071 0.7071 0.7071 -16.0304 30.2129)" class="st2" cx="28.5" cy="34.5" rx="0.5" ry="0.5"/>
		<circle class="st2" cx="24" cy="36.3" r="0.5"/>
		<ellipse transform="matrix(0.7071 -0.7071 0.7071 0.7071 -18.6134 23.9769)" class="st2" cx="19.6" cy="34.5" rx="0.5" ry="0.5"/>
		<circle class="st2" cx="17.8" cy="30" r="0.5"/>
		<ellipse transform="matrix(0.7071 -0.7071 0.7071 0.7071 -12.3775 21.394)" class="st2" cx="19.6" cy="25.6" rx="0.5" ry="0.5"/>
	</g>
	<g class="st1">
		<path class="st2" d="M366.3,25c-0.6,0.4-1.1,1.1-1.3,2c-0.7-0.4-1.6-0.6-2.3-0.5c-0.2,0.7,0.1,1.6,0.5,2.3c-0.8,0.2-1.6,0.7-2,1.3
			c0.4,0.6,1.1,1.1,2,1.3c-0.4,0.7-0.6,1.6-0.5,2.3c0.7,0.2,1.6-0.1,2.3-0.5c0.2,0.8,0.7,1.6,1.3,2c0.6-0.4,1.1-1.1,1.3-2
			c0.7,0.4,1.6,0.6,2.3,0.5c0.2-0.7-0.1-1.6-0.5-2.3c0.8-0.2,1.6-0.7,2-1.3c-0.4-0.6-1.1-1.1-2-1.3c0.4-0.7,0.6-1.6,0.5-2.3
			c-0.7-0.2-1.6,0.1-2.3,0.5C367.4,26.1,366.9,25.3,366.3,25z M365.5,28.2c0.3,0.1,0.5,0.3,0.8,0.6c0.2-0.2,0.5-0.4,0.8-0.6
			c0.1,0.3,0.1,0.6,0.1,0.9c0.3,0,0.6,0,0.9,0.1c-0.1,0.3-0.3,0.5-0.6,0.8c0.2,0.2,0.4,0.5,0.6,0.8c-0.3,0.1-0.6,0.1-0.9,0.1
			c0,0.3,0,0.6-0.1,0.9c-0.3-0.1-0.5-0.3-0.8-0.6c-0.2,0.2-0.5,0.4-0.8,0.6c-0.1-0.3-0.1-0.6-0.1-0.9c-0.3,0-0.6,0-0.9-0.1
			c0.1-0.3,0.3-0.5,0.6-0.8c-0.2-0.2-0.4-0.5-0.6-0.8c0.3-0.1,0.6-0.1,0.9-0.1C365.4,28.8,365.5,28.5,365.5,28.2z"/>
		<path class="st2" d="M361.6,18.7c1.4,0.7,3.6,2.6,3.6,4.7c0,0.9-0.2,1.8-0.5,2.9c-1-0.6-1.8-1.1-2.4-1.7
			C360.8,23,361.1,20.2,361.6,18.7z"/>
		<path class="st2" d="M371,18.7c0.5,1.5,0.8,4.4-0.7,5.9c-0.6,0.6-1.4,1.1-2.4,1.7c-0.2-1.1-0.5-2-0.5-2.9
			C367.4,21.2,369.6,19.4,371,18.7z"/>
		<path class="st2" d="M377.7,25.3c-0.7,1.4-2.6,3.6-4.7,3.6c-0.9,0-1.8-0.2-2.9-0.5c0.6-1,1.1-1.8,1.7-2.4
			C373.3,24.6,376.2,24.8,377.7,25.3z"/>
		<path class="st2" d="M377.7,34.8c-1.5,0.5-4.4,0.8-5.9-0.7c-0.6-0.6-1.1-1.4-1.7-2.4c1.1-0.2,2-0.5,2.9-0.5
			C375.1,31.1,377,33.3,377.7,34.8z"/>
		<path class="st2" d="M371,41.4c-1.4-0.7-3.6-2.6-3.6-4.7c0-0.9,0.2-1.8,0.5-2.9c1,0.6,1.8,1.1,2.4,1.7
			C371.8,37.1,371.5,39.9,371,41.4z"/>
		<path class="st2" d="M361.6,41.4c-0.5-1.5-0.8-4.4,0.7-5.9c0.6-0.6,1.4-1.1,2.4-1.7c0.2,1.1,0.5,2,0.5,2.9
			C365.2,38.9,363,40.7,361.6,41.4z"/>
		<path class="st2" d="M354.9,34.8c0.7-1.4,2.6-3.6,4.7-3.6c0.9,0,1.8,0.2,2.9,0.5c-0.6,1-1.1,1.8-1.7,2.4
			C359.3,35.5,356.4,35.3,354.9,34.8z"/>
		<path class="st2" d="M354.9,25.3c1.5-0.5,4.4-0.8,5.9,0.7c0.6,0.6,1.1,1.4,1.7,2.4c-1.1,0.2-2,0.5-2.9,0.5
			C357.5,29,355.6,26.8,354.9,25.3z"/>
		<circle class="st2" cx="366.3" cy="19.1" r="1.5"/>
		
			<ellipse transform="matrix(0.7071 -0.7071 0.7071 0.7071 93.8002 271.0263)" class="st2" cx="374.1" cy="22.3" rx="1.5" ry="1.5"/>
		<circle class="st2" cx="377.3" cy="30" r="1.5"/>
		
			<ellipse transform="matrix(0.7071 -0.7071 0.7071 0.7071 82.8243 275.5717)" class="st2" cx="374.1" cy="37.8" rx="1.5" ry="1.5"/>
		<circle class="st2" cx="366.3" cy="41" r="1.5"/>
		
			<ellipse transform="matrix(0.7071 -0.7071 0.7071 0.7071 78.2782 264.5965)" class="st2" cx="358.5" cy="37.8" rx="1.5" ry="1.5"/>
		<circle class="st2" cx="355.3" cy="30" r="1.5"/>
		
			<ellipse transform="matrix(0.7071 -0.7071 0.7071 0.7071 89.2529 260.0497)" class="st2" cx="358.5" cy="22.3" rx="1.5" ry="1.5"/>
		<circle class="st2" cx="366.3" cy="21.9" r="0.7"/>
		<ellipse transform="matrix(0.7071 -0.7071 0.7071 0.7071 91.7675 270.1833)" class="st2" cx="372" cy="24.3" rx="0.7" ry="0.7"/>
		<circle class="st2" cx="374.4" cy="30" r="0.7"/>
		<ellipse transform="matrix(0.7071 -0.7071 0.7071 0.7071 83.6657 273.5404)" class="st2" cx="372" cy="35.8" rx="0.7" ry="0.7"/>
		<circle class="st2" cx="366.3" cy="38.1" r="0.7"/>
		
			<ellipse transform="matrix(0.7071 -0.7071 0.7071 0.7071 80.3095 265.4378)" class="st2" cx="360.6" cy="35.8" rx="0.7" ry="0.7"/>
		<circle class="st2" cx="358.2" cy="30" r="0.7"/>
		
			<ellipse transform="matrix(0.7071 -0.7071 0.7071 0.7071 88.4129 262.0826)" class="st2" cx="360.6" cy="24.3" rx="0.7" ry="0.7"/>
		<circle class="st2" cx="366.3" cy="23.8" r="0.5"/>
		
			<ellipse transform="matrix(0.7071 -0.7071 0.7071 0.7071 90.4478 269.6368)" class="st2" cx="370.7" cy="25.6" rx="0.5" ry="0.5"/>
		<circle class="st2" cx="372.5" cy="30" r="0.5"/>
		
			<ellipse transform="matrix(0.7071 -0.7071 0.7071 0.7071 84.2124 272.2205)" class="st2" cx="370.7" cy="34.5" rx="0.5" ry="0.5"/>
		<circle class="st2" cx="366.3" cy="36.3" r="0.5"/>
		
			<ellipse transform="matrix(0.7071 -0.7071 0.7071 0.7071 81.6294 265.9846)" class="st2" cx="361.9" cy="34.5" rx="0.5" ry="0.5"/>
		<circle class="st2" cx="360.1" cy="30" r="0.5"/>
		
			<ellipse transform="matrix(0.7071 -0.7071 0.7071 0.7071 87.8659 263.4022)" class="st2" cx="361.9" cy="25.6" rx="0.5" ry="0.5"/>
	</g>
</g>
</svg>
