<?xml version="1.0" encoding="utf-8"?>
<!-- Generator: Adobe Illustrator 22.1.0, SVG Export Plug-In . SVG Version: 6.00 Build 0)  -->
<svg version="1.1" id="Layer_1" xmlns="http://www.w3.org/2000/svg" xmlns:xlink="http://www.w3.org/1999/xlink" x="0px" y="0px"
	 viewBox="0 0 488 412.7" style="enable-background:new 0 0 488 412.7;" xml:space="preserve">
<style type="text/css">
	.st0{opacity:0.3;enable-background:new    ;}
	.st1{fill:#781D00;}
	.st2{fill:url(#SVGID_1_);stroke:#781D00;stroke-width:5.4145;stroke-miterlimit:10;}
	.st3{fill:url(#SVGID_2_);}
	.st4{fill:url(#SVGID_3_);}
	.st5{fill:url(#SVGID_4_);}
</style>
<g>
	<path class="st0" d="M35.3,177.9l11.2,6.5c0,0,52.3,14.3,128.1,94.9c0,0,118.9-211.7,295.8-234.1l16.8,31.4
		c16.2-7-220,123.3-316.4,336.1C170.7,412.5,155.2,249,35.3,177.9z"/>
	<path class="st1" d="M465.2,31.5L449.3,59c0,0-135.2,60.8-289.3,295.6C160.2,354.4,191.3,99,465.2,31.5z"/>
	
		<linearGradient id="SVGID_1_" gradientUnits="userSpaceOnUse" x1="561.6703" y1="645.9093" x2="115.9118" y2="368.1531" gradientTransform="matrix(1 0 0 -1 0 598.0252)">
		<stop  offset="0.1197" style="stop-color:#FDFB52"/>
		<stop  offset="0.2282" style="stop-color:#FCE548"/>
		<stop  offset="1" style="stop-color:#F14400"/>
	</linearGradient>
	<path class="st2" d="M4.1,158.6l22-26.9c0,0,52.3,14.3,128.1,94.9c0,0,129-201.2,305.9-223.6l5.1,30.3c0,0-192.4,74.4-305,323.1
		C160.2,356.2,123.9,229.7,4.1,158.6z"/>
	
		<linearGradient id="SVGID_2_" gradientUnits="userSpaceOnUse" x1="446.0162" y1="587.334" x2="381.2726" y2="547.6035" gradientTransform="matrix(1 0 0 -1 0 598.0252)">
		<stop  offset="0" style="stop-color:#FFFFFF;stop-opacity:0.2"/>
		<stop  offset="1" style="stop-color:#FFFFFF;stop-opacity:0.5"/>
	</linearGradient>
	<path class="st3" d="M376.6,40.9c-1.1-5.6,15.5-12.5,35.7-19.3c20.2-7,37.4-12.1,39.9-7.2S440.5,33,418.8,40.7
		C397.2,48.5,377.7,46.5,376.6,40.9z"/>
	
		<linearGradient id="SVGID_3_" gradientUnits="userSpaceOnUse" x1="271.5004" y1="434.1757" x2="68.7118" y2="139.921" gradientTransform="matrix(1 0 0 -1 0 598.0252)">
		<stop  offset="0" style="stop-color:#FFFFFF;stop-opacity:0.2"/>
		<stop  offset="1" style="stop-color:#FFFFFF;stop-opacity:0.5"/>
	</linearGradient>
	<path class="st4" d="M457.3,33.5c-145.5,52.3-274,242.8-296.4,259.2c-15.9-16.6-37-23.6-52.7-40.1c-0.2,0.2,8.5,11.6,8.3,11.7
		c25.4,38.1,38.3,71.8,42.6,84.5c0.7,2,3.2,2,4.2,0.2C270.1,117.8,445.6,39.7,464.1,31.9c0.9-0.4,1.4-1.4,1.3-2.3L457.3,33.5z"/>
	
		<linearGradient id="SVGID_4_" gradientUnits="userSpaceOnUse" x1="364.9879" y1="464.3822" x2="321.7744" y2="437.8638" gradientTransform="matrix(0.977 -0.2132 -0.2132 -0.977 107.8339 573.3657)">
		<stop  offset="0" style="stop-color:#FFFFFF;stop-opacity:0.2"/>
		<stop  offset="1" style="stop-color:#FFFFFF;stop-opacity:0.5"/>
	</linearGradient>
	<path class="st5" d="M324.6,71.4c-1.4-3.6,8.3-10.3,20.6-17.7c12.3-7.4,22.7-13.2,24.9-10.5c2.3,2.7-5.1,13.7-18,21.8
		C339.1,73.4,326.1,75,324.6,71.4z"/>
</g>
</svg>
