<?xml version="1.0" encoding="utf-8"?>
<!-- Generator: Adobe Illustrator 21.0.0, SVG Export Plug-In . SVG Version: 6.00 Build 0)  -->
<svg version="1.1" id="Layer_1" xmlns="http://www.w3.org/2000/svg" xmlns:xlink="http://www.w3.org/1999/xlink" x="0px" y="0px"
	 viewBox="0 0 201.5 207.3" style="enable-background:new 0 0 201.5 207.3;" xml:space="preserve">
<style type="text/css">
	.st0{opacity:0.3;}
	.st1{fill:#781D00;}
	.st2{fill:url(#SVGID_1_);stroke:#781D00;stroke-width:3;stroke-miterlimit:10;}
	.st3{opacity:0.8;fill:#FFFFFF;}
	.st4{fill:#82E85D;}
	.st5{fill:url(#SVGID_2_);}
</style>
<g>
	<path class="st0" d="M200.1,55.3l-5.5,21.2C201,83.1,111.9,136,41.4,207c-1,1-2.6-0.2-13.3-7.1L79.1,94.5l119.8-40.3
		C199.6,54,200.3,54.6,200.1,55.3z"/>
	<path class="st1" d="M200,34.7l-5.4,18.8c6.6,6.8-93.2,74.6-164.4,148.3L90.3,77.2L200,34.7z"/>
	<path class="st1" d="M1.6,37.8l2.7,13.7c-4.4,5.5,107.7,76.1,170.1,150.4L92.8,72.9L1.6,37.8z"/>
	<linearGradient id="SVGID_1_" gradientUnits="userSpaceOnUse" x1="183.6335" y1="0.6862" x2="72.9061" y2="131.604">
		<stop  offset="0.1197" style="stop-color:#FDFB52"/>
		<stop  offset="0.2282" style="stop-color:#FCE548"/>
		<stop  offset="1" style="stop-color:#F14400"/>
	</linearGradient>
	<path class="st2" d="M199.7,32.9c-0.2-0.6-0.3-1.2-0.4-1.8c-3.2-13.4-16.7-29.4-16.7-29.4c-30.6,6.5-61.6,31.4-82.9,51.9
		C78.2,33.9,47.8,11,18.2,5.3c0,0-15.8,19.3-16.7,33.3c0,0,30.7,14.6,69.6,46c-67.5,87.4-41,117.2-41,117.2
		c21-36.9,45.9-67.3,70.2-91.6c25.4,24.2,51.7,54.8,74,92.5c0,0,26.3-30.7-44.7-118.4c0,0-0.2-0.2-0.5-0.6
		c39.3-33.3,70.8-49,70.8-49C199.9,34.1,199.8,33.5,199.7,32.9z"/>
	<path class="st3" d="M186.4,13.7c0.4,3.3-2.7,6.1-7,6.7c-4.3,0.6-8.3-1.2-9.1-4.4c-0.8-3.1,2.3-6.5,6.9-7.2
		C181.9,8.1,186,10.4,186.4,13.7z"/>
	<path class="st3" d="M124.5,39.6c-1-2.7,6.7-7.7,16.3-13c9.6-5.3,17.8-9.4,19.5-7.2c1.7,2.2-4.2,10.4-14.5,16.3
		C135.5,41.6,125.5,42.4,124.5,39.6z"/>
	<line class="st4" x1="24.8" y1="48.7" x2="71.2" y2="84.6"/>
	<linearGradient id="SVGID_2_" gradientUnits="userSpaceOnUse" x1="83.7324" y1="111.851" x2="55.7186" y2="177.897">
		<stop  offset="0" style="stop-color:#FFFFFF;stop-opacity:0.2"/>
		<stop  offset="0.3583" style="stop-color:#FFFFFF;stop-opacity:0.3075"/>
		<stop  offset="0.9946" style="stop-color:#FFFFFF;stop-opacity:0.5"/>
	</linearGradient>
	<path class="st5" d="M99.2,106.7c-0.1-0.2-0.3-0.4-0.4-0.6l-3.8-5.8c-40.3,26.3-44.4,57.1-66,100.5c1.5-0.1,0,0,1.1,1
		c39.9-73.9,72-83.1,70.6-91.4c-0.1-0.4-0.1-0.8-0.2-1.1C99.9,108.6,99.4,107.7,99.2,106.7z"/>
</g>
</svg>
