<?xml version="1.0" encoding="utf-8"?>
<!-- Generator: Adobe Illustrator 16.0.0, SVG Export Plug-In . SVG Version: 6.00 Build 0)  -->
<!DOCTYPE svg PUBLIC "-//W3C//DTD SVG 1.1//EN" "http://www.w3.org/Graphics/SVG/1.1/DTD/svg11.dtd">
<svg version="1.1" id="Isolation_Mode_1_" xmlns="http://www.w3.org/2000/svg" xmlns:xlink="http://www.w3.org/1999/xlink" x="0px"
	 y="0px" width="206.121px" height="181.557px" viewBox="0 0 206.121 181.557" enable-background="new 0 0 206.121 181.557"
	 xml:space="preserve">
<g id="Isolation_Mode">
</g>
<g>
	<g>
		<polygon fill-rule="evenodd" clip-rule="evenodd" fill="#F19916" points="86.956,3.608 0,13.851 0,169.416 86.956,159.174 		"/>
		<g>
			<polygon fill-rule="evenodd" clip-rule="evenodd" fill="#F19916" points="109.139,3.607 26.899,15.665 26.899,171.23 
				109.139,159.174 			"/>
			<path fill-rule="evenodd" clip-rule="evenodd" fill="#E18B0C" d="M86.954,159.173V3.608V3.607C89.951,1.467,96.038,0,103.06,0
				s13.108,1.467,16.105,3.608v155.565c-2.997-2.143-9.084-3.607-16.105-3.607S89.951,157.031,86.954,159.173z"/>
			<polygon fill-rule="evenodd" clip-rule="evenodd" fill="#F19916" points="119.165,3.607 206.121,13.851 206.121,169.416 
				119.165,159.174 			"/>
			<path fill-rule="evenodd" clip-rule="evenodd" fill="#FFFFFF" d="M102.185,5.803v155.565l-69.302,19.2
				c-8.172-2.365-15.985-5.252-23.25-8.938V16.065L86.954,3.608h0.001h0.001C90.311,4.988,96.214,5.717,102.185,5.803z"/>
			<path fill-rule="evenodd" clip-rule="evenodd" fill="#E1DDDD" d="M9.633,16.065c6.164,0.112,20.173,7.827,24.057,9.239
				l-0.807,155.264c-8.172-2.365-15.985-5.252-23.25-8.938V16.065z"/>
			<path fill-rule="evenodd" clip-rule="evenodd" fill="#FFFFFF" d="M86.954,3.608L9.633,16.065
				c6.982,3.48,14.814,6.459,23.25,8.938l69.302-19.2c-5.971-0.086-11.874-0.814-15.229-2.194H86.954L86.954,3.608z"/>
			<path fill-rule="evenodd" clip-rule="evenodd" fill="#F0F0F0" d="M102.185,5.803v155.565l-69.302,19.2l0.807-155.264
				c-0.254-0.104-0.524-0.204-0.807-0.302L102.185,5.803z"/>
			<path fill-rule="evenodd" clip-rule="evenodd" fill="#FFFFFF" d="M117.414,3.608l77.32,12.457v155.565
				c-1.188,1.406-4.247,3.222-9.22,4.158l-83.33-14.421V5.803c5.969-0.086,11.872-0.814,15.228-2.194H117.414L117.414,3.608z"/>
			<path fill-rule="evenodd" clip-rule="evenodd" fill="#FFFFFF" d="M117.414,3.608l77.32,12.457
				c-3.245,1.618-6.674,3.127-10.263,4.528L102.185,5.803c5.969-0.086,11.872-0.814,15.228-2.194H117.414L117.414,3.608z"/>
			<path fill-rule="evenodd" clip-rule="evenodd" fill="#F0F0F0" d="M102.185,5.803v155.565l83.094,14.489l-0.807-155.264
				c0.254-0.104,0.524-0.204,0.807-0.302L102.185,5.803z"/>
			<path fill-rule="evenodd" clip-rule="evenodd" fill="#FFFFFF" d="M102.185,5.803v155.565l74.474,20.188l-0.806-155.264
				c0.254-0.104,0.523-0.205,0.806-0.302L102.185,5.803z"/>
			<polygon fill-rule="evenodd" clip-rule="evenodd" fill="#D9465F" points="82.136,11.407 92.1,8.596 80.531,4.644 68.168,6.635 
							"/>
			<path fill-rule="evenodd" clip-rule="evenodd" fill="#E1DDDD" d="M194.734,16.065c-3.75,1.785-6.379,3.116-10.263,4.528
				l0.807,155.264c3.886-0.594,6.993-1.684,9.456-4.227V16.065z"/>
			<g>
				<polygon fill-rule="evenodd" clip-rule="evenodd" fill="#E1DDDD" points="114.626,26.081 114.626,32.998 165.436,46.771 
					165.436,39.854 				"/>
				<polygon fill-rule="evenodd" clip-rule="evenodd" fill="#E1DDDD" points="114.626,38.806 114.626,42.614 142.604,50.198 
					142.604,46.39 				"/>
				<polygon fill-rule="evenodd" clip-rule="evenodd" fill="#E1DDDD" points="114.626,46.521 114.626,50.33 142.604,57.914 
					142.604,54.104 				"/>
				<polygon fill-rule="evenodd" clip-rule="evenodd" fill="#E1DDDD" points="114.626,54.235 114.626,58.045 142.604,65.629 
					142.604,61.82 				"/>
				<polygon fill-rule="evenodd" clip-rule="evenodd" fill="#E1DDDD" points="114.626,61.951 114.626,65.76 142.604,73.344 
					142.604,69.535 				"/>
				<polygon fill-rule="evenodd" clip-rule="evenodd" fill="#E1DDDD" points="114.626,69.666 114.626,73.475 142.604,81.059 
					142.604,77.25 				"/>
				<polygon fill-rule="evenodd" clip-rule="evenodd" fill="#E1DDDD" points="114.626,77.381 114.626,81.189 142.604,88.774 
					142.604,84.965 				"/>
				<polygon fill-rule="evenodd" clip-rule="evenodd" fill="#E1DDDD" points="146.222,47.83 146.222,89.925 164.932,94.997 
					164.932,52.902 				"/>
				<polygon fill-rule="evenodd" clip-rule="evenodd" fill="#E1DDDD" points="114.626,105.255 114.626,147.349 133.336,152.421 
					133.336,110.326 				"/>
				<polygon fill-rule="evenodd" clip-rule="evenodd" fill="#E1DDDD" points="114.626,92.334 114.626,99.251 165.436,113.024 
					165.436,106.107 				"/>
				<polygon fill-rule="evenodd" clip-rule="evenodd" fill="#E1DDDD" points="137.442,111.439 137.442,115.248 165.42,122.832 
					165.42,119.023 				"/>
				<polygon fill-rule="evenodd" clip-rule="evenodd" fill="#E1DDDD" points="137.442,119.154 137.442,122.963 165.42,130.547 
					165.42,126.738 				"/>
				<polygon fill-rule="evenodd" clip-rule="evenodd" fill="#E1DDDD" points="137.442,126.869 137.442,130.678 165.42,138.263 
					165.42,134.453 				"/>
				<polygon fill-rule="evenodd" clip-rule="evenodd" fill="#E1DDDD" points="137.442,134.584 137.442,138.394 165.42,145.978 
					165.42,142.169 				"/>
				<polygon fill-rule="evenodd" clip-rule="evenodd" fill="#E1DDDD" points="137.442,142.3 137.442,146.108 165.42,153.692 
					165.42,149.884 				"/>
				<polygon fill-rule="evenodd" clip-rule="evenodd" fill="#E1DDDD" points="137.442,150.015 137.442,153.823 165.42,161.407 
					165.42,157.599 				"/>
			</g>
			<g>
				<polygon fill-rule="evenodd" clip-rule="evenodd" fill="#D9D2D2" points="42.432,41.552 42.433,48.469 93.241,32.748 
					93.241,25.831 				"/>
				<polygon fill-rule="evenodd" clip-rule="evenodd" fill="#D9D2D2" points="42.432,54.276 42.432,58.086 70.41,49.429 
					70.41,45.62 				"/>
				<polygon fill-rule="evenodd" clip-rule="evenodd" fill="#D9D2D2" points="42.432,61.991 42.432,65.801 70.41,57.144 
					70.41,53.335 				"/>
				<polygon fill-rule="evenodd" clip-rule="evenodd" fill="#D9D2D2" points="42.432,69.707 42.432,73.516 70.41,64.859 
					70.41,61.05 				"/>
				<polygon fill-rule="evenodd" clip-rule="evenodd" fill="#D9D2D2" points="42.432,77.422 42.432,81.23 70.41,72.574 
					70.41,68.765 				"/>
				<polygon fill-rule="evenodd" clip-rule="evenodd" fill="#D9D2D2" points="42.432,85.137 42.432,88.945 70.41,80.289 
					70.41,76.48 				"/>
				<polygon fill-rule="evenodd" clip-rule="evenodd" fill="#D9D2D2" points="42.432,92.852 42.432,96.661 70.41,88.004 
					70.41,84.195 				"/>
				<polygon fill-rule="evenodd" clip-rule="evenodd" fill="#D9D2D2" points="74.027,44.96 74.027,87.055 92.738,81.266 
					92.738,39.171 				"/>
				<polygon fill-rule="evenodd" clip-rule="evenodd" fill="#D9D2D2" points="42.216,121.024 42.216,163.119 60.927,157.33 
					60.927,115.235 				"/>
				<polygon fill-rule="evenodd" clip-rule="evenodd" fill="#D9D2D2" points="42.432,107.805 42.432,114.722 93.241,99.001 
					93.241,92.084 				"/>
				<polygon fill-rule="evenodd" clip-rule="evenodd" fill="#D9D2D2" points="64.76,114.05 64.76,117.858 92.738,109.202 
					92.738,105.393 				"/>
				<polygon fill-rule="evenodd" clip-rule="evenodd" fill="#D9D2D2" points="64.76,121.765 64.76,125.573 92.738,116.917 
					92.738,113.108 				"/>
				<polygon fill-rule="evenodd" clip-rule="evenodd" fill="#D9D2D2" points="64.76,129.479 64.76,133.289 92.738,124.632 
					92.738,120.823 				"/>
				<polygon fill-rule="evenodd" clip-rule="evenodd" fill="#D9D2D2" points="64.76,137.194 64.76,141.003 92.738,132.347 
					92.738,128.538 				"/>
				<polygon fill-rule="evenodd" clip-rule="evenodd" fill="#D9D2D2" points="64.76,144.91 64.76,148.719 92.738,140.063 
					92.738,136.253 				"/>
				<polygon fill-rule="evenodd" clip-rule="evenodd" fill="#D9D2D2" points="64.76,152.625 64.76,156.434 92.738,147.777 
					92.738,143.968 				"/>
			</g>
			<polygon fill-rule="evenodd" clip-rule="evenodd" fill="#C73B52" points="82.136,11.407 92.1,8.596 92.1,30.948 87.117,28.119 
				82.136,33.76 			"/>
		</g>
	</g>
	<g>
		<g>
			<path fill="#D98513" d="M107.947,72.591c-27.051,0-49.062,22.017-49.062,49.067c0,27.055,22.01,49.065,49.062,49.065
				c27.053,0,49.066-22.011,49.066-49.065C157.014,94.607,135,72.591,107.947,72.591z"/>
			<path fill="#E5912E" d="M107.947,73.993c-26.28,0-47.66,21.389-47.66,47.665c0,26.282,21.38,47.664,47.66,47.664
				c26.279,0,47.666-21.382,47.666-47.664C155.613,95.382,134.227,73.993,107.947,73.993z"/>
			<path fill="#FF9906" d="M107.947,76.096c-25.119,0-45.558,20.444-45.558,45.563c0,25.123,20.438,45.562,45.558,45.562
				c25.121,0,45.563-20.438,45.563-45.562C153.51,96.54,133.068,76.096,107.947,76.096z"/>
			<linearGradient id="SVGID_1_" gradientUnits="userSpaceOnUse" x1="107.8916" y1="164.9033" x2="107.8916" y2="78.4941">
				<stop  offset="0" style="stop-color:#F9A51A"/>
				<stop  offset="0.1613" style="stop-color:#ED7004"/>
				<stop  offset="0.4608" style="stop-color:#F48120"/>
				<stop  offset="1" style="stop-color:#FEC933"/>
			</linearGradient>
			<path fill="url(#SVGID_1_)" d="M150.78,120.868c0-20.105-13.352-35.885-31.519-40.583c-3.596-1.166-7.415-1.791-11.375-1.791
				c-3.931,0-7.725,0.62-11.299,1.772c-18.2,4.672-31.584,20.468-31.584,40.602c0,20.28,13.571,37.325,31.968,42.243
				c3.461,1.162,7.122,1.792,10.915,1.792c3.731,0,7.335-0.615,10.749-1.743C137.122,158.304,150.78,141.213,150.78,120.868z"/>
			<linearGradient id="SVGID_2_" gradientUnits="userSpaceOnUse" x1="76.0073" y1="157.4873" x2="76.0073" y2="88.2031">
				<stop  offset="0" style="stop-color:#F89C1C"/>
				<stop  offset="0.3952" style="stop-color:#FAB32E"/>
				<stop  offset="1" style="stop-color:#FFDE4F"/>
			</linearGradient>
			<path fill="url(#SVGID_2_)" d="M71.66,121.858c0-13.479,4.724-25.231,12.378-33.655c-10.326,7.502-17.001,19.546-17.001,33.761
				c0,14.646,7.08,27.6,17.94,35.523C76.775,148.526,71.66,135.882,71.66,121.858z"/>
			<linearGradient id="SVGID_3_" gradientUnits="userSpaceOnUse" x1="74.9497" y1="106.4541" x2="146.1971" y2="106.4541">
				<stop  offset="0" style="stop-color:#FFDC33"/>
				<stop  offset="1" style="stop-color:#FFB92D"/>
			</linearGradient>
			<path opacity="0.33" fill="url(#SVGID_3_)" d="M76.028,112.969c7.201,13.944,23.326,19.33,36.986,19.317
				c7.846-0.008,16.239-0.784,23.624-4.87c3.95-2.188,7.794-6.022,9.466-10.328c-0.101-1.385-0.287-6.947-0.555-8.263
				c-3.156-15.234-19.249-26.252-32.633-28.156c-1.076-0.071-2.154-0.063-3.229,0.023c-0.895,0.07-1.786,0.195-2.674,0.37
				c-0.886,0.177-1.769,0.403-2.64,0.683c-14.2,2.727-25.787,14.126-28.671,30.134c-0.037,0.157-0.065,0.318-0.101,0.478
				C75.758,112.524,75.902,112.728,76.028,112.969z"/>
		</g>
		<path opacity="0.99" fill="#F5F5F5" d="M114.267,80.76c-4.93-3.497-30.929-0.472-38.984,21.98
			C92.814,80.984,110.68,82.258,114.267,80.76z"/>
		<path opacity="0.3" fill="#F9FF7F" d="M110.759,157.69c-9.108-1.45-18.957-2.227-27.195-7.161c-1.43-0.625-2.83-1.348-4.182-2.191
			c10.204,12.706,26.274,19.32,41.251,15.065c2.723-0.781,5.364-1.984,7.869-3.531C122.557,159.692,116.575,158.616,110.759,157.69z
			"/>
	</g>
	<path fill="#FFFFFF" d="M97.047,102.601c-3.832,0-6.938,2.695-6.938,6.02s3.105,6.019,6.938,6.019c3.831,0,6.938-2.694,6.938-6.019
		S100.878,102.601,97.047,102.601z M97.047,117.032c-3.832,0-6.938,2.695-6.938,6.02s3.105,6.019,6.938,6.019
		c3.831,0,6.938-2.694,6.938-6.019S100.878,117.032,97.047,117.032z M97.047,132.937c-3.832,0-6.938,2.695-6.938,6.02
		c0,3.325,3.105,6.02,6.938,6.02c3.831,0,6.938-2.694,6.938-6.02C103.984,135.632,100.878,132.937,97.047,132.937z M111.216,112.487
		h16.912c2.335,0,4.228-1.893,4.228-4.229c0-2.335-1.893-4.228-4.228-4.228h-16.912c-2.335,0-4.228,1.893-4.228,4.228
		C106.988,110.595,108.881,112.487,111.216,112.487z M128.128,118.251h-16.912c-2.335,0-4.228,1.893-4.228,4.229
		c0,2.335,1.893,4.228,4.228,4.228h16.912c2.335,0,4.228-1.893,4.228-4.228C132.355,120.144,130.463,118.251,128.128,118.251z
		 M128.128,134.729h-16.912c-2.335,0-4.228,1.893-4.228,4.229c0,2.335,1.893,4.228,4.228,4.228h16.912
		c2.335,0,4.228-1.893,4.228-4.228C132.355,136.621,130.463,134.729,128.128,134.729z"/>
</g>
</svg>
