<?xml version="1.0" encoding="utf-8"?>
<!-- Generator: Adobe Illustrator 16.0.0, SVG Export Plug-In . SVG Version: 6.00 Build 0)  -->
<!DOCTYPE svg PUBLIC "-//W3C//DTD SVG 1.1//EN" "http://www.w3.org/Graphics/SVG/1.1/DTD/svg11.dtd">
<svg version="1.1" id="Isolation_Mode" xmlns="http://www.w3.org/2000/svg" xmlns:xlink="http://www.w3.org/1999/xlink" x="0px"
	 y="0px" width="206.121px" height="182.258px" viewBox="0 0 206.121 182.258" enable-background="new 0 0 206.121 182.258"
	 xml:space="preserve">
<g>
	<g>
		<polygon fill-rule="evenodd" clip-rule="evenodd" fill="#DD992C" points="86.956,3.608 0,13.851 0,169.416 86.956,159.174 		"/>
		<g>
			<polygon fill-rule="evenodd" clip-rule="evenodd" fill="#DD992C" points="109.139,3.607 26.899,15.665 26.899,171.23 
				109.139,159.174 			"/>
			<path fill-rule="evenodd" clip-rule="evenodd" fill="#CD8B25" d="M86.954,159.173V3.608V3.607C89.951,1.467,96.038,0,103.06,0
				s13.108,1.467,16.105,3.608v155.565c-2.997-2.143-9.084-3.607-16.105-3.607S89.951,157.031,86.954,159.173z"/>
			<polygon fill-rule="evenodd" clip-rule="evenodd" fill="#DD992C" points="119.165,3.607 206.121,13.851 206.121,169.416 
				119.165,159.174 			"/>
			<path fill-rule="evenodd" clip-rule="evenodd" fill="#FFFFFF" d="M102.185,5.803v155.565l-69.302,19.2
				c-8.172-2.365-15.985-5.252-23.25-8.938V16.065L86.954,3.608h0.001h0.001C90.311,4.988,96.214,5.717,102.185,5.803z"/>
			<path fill-rule="evenodd" clip-rule="evenodd" fill="#E0DDDD" d="M9.633,16.065c6.164,0.112,20.173,7.827,24.057,9.239
				l-0.807,155.264c-8.172-2.365-15.985-5.252-23.25-8.938V16.065z"/>
			<path fill-rule="evenodd" clip-rule="evenodd" fill="#FFFFFF" d="M86.954,3.608L9.633,16.065
				c6.982,3.48,14.814,6.459,23.25,8.938l69.302-19.2c-5.971-0.086-11.874-0.814-15.229-2.194H86.954L86.954,3.608z"/>
			<path fill-rule="evenodd" clip-rule="evenodd" fill="#F1F1F1" d="M102.185,5.803v155.565l-69.302,19.2l0.807-155.264
				c-0.254-0.104-0.524-0.204-0.807-0.302L102.185,5.803z"/>
			<path fill-rule="evenodd" clip-rule="evenodd" fill="#FFFFFF" d="M117.414,3.608l77.32,12.457v155.565
				c-1.188,1.406-4.247,3.222-9.22,4.158l-83.33-14.421V5.803c5.969-0.086,11.872-0.814,15.228-2.194H117.414L117.414,3.608z"/>
			<path fill-rule="evenodd" clip-rule="evenodd" fill="#FFFFFF" d="M117.414,3.608l77.32,12.457
				c-3.245,1.618-6.674,3.127-10.263,4.528L102.185,5.803c5.969-0.086,11.872-0.814,15.228-2.194H117.414L117.414,3.608z"/>
			<path fill-rule="evenodd" clip-rule="evenodd" fill="#F1F1F1" d="M102.185,5.803v155.565l83.094,14.489l-0.807-155.264
				c0.254-0.104,0.524-0.204,0.807-0.302L102.185,5.803z"/>
			<path fill-rule="evenodd" clip-rule="evenodd" fill="#FFFFFF" d="M102.185,5.803v155.565l74.474,20.188l-0.806-155.264
				c0.254-0.104,0.523-0.205,0.806-0.302L102.185,5.803z"/>
			<polygon fill-rule="evenodd" clip-rule="evenodd" fill="#BD485E" points="82.136,11.407 92.1,8.596 80.531,4.644 68.168,6.635 
							"/>
			<path fill-rule="evenodd" clip-rule="evenodd" fill="#E0DDDD" d="M194.734,16.065c-3.75,1.785-6.379,3.116-10.263,4.528
				l0.807,155.264c3.886-0.594,6.993-1.684,9.456-4.227V16.065z"/>
			<g>
				<polygon fill-rule="evenodd" clip-rule="evenodd" fill="#E0DDDD" points="114.626,26.081 114.626,32.998 165.436,46.771 
					165.436,39.854 				"/>
				<polygon fill-rule="evenodd" clip-rule="evenodd" fill="#E0DDDD" points="114.626,38.806 114.626,42.614 142.604,50.198 
					142.604,46.39 				"/>
				<polygon fill-rule="evenodd" clip-rule="evenodd" fill="#E0DDDD" points="114.626,46.521 114.626,50.33 142.604,57.914 
					142.604,54.104 				"/>
				<polygon fill-rule="evenodd" clip-rule="evenodd" fill="#E0DDDD" points="114.626,54.235 114.626,58.045 142.604,65.629 
					142.604,61.82 				"/>
				<polygon fill-rule="evenodd" clip-rule="evenodd" fill="#E0DDDD" points="114.626,61.951 114.626,65.76 142.604,73.344 
					142.604,69.535 				"/>
				<polygon fill-rule="evenodd" clip-rule="evenodd" fill="#E0DDDD" points="114.626,69.666 114.626,73.475 142.604,81.059 
					142.604,77.25 				"/>
				<polygon fill-rule="evenodd" clip-rule="evenodd" fill="#E0DDDD" points="114.626,77.381 114.626,81.189 142.604,88.774 
					142.604,84.965 				"/>
				<polygon fill-rule="evenodd" clip-rule="evenodd" fill="#E0DDDD" points="146.222,47.83 146.222,89.925 164.932,94.997 
					164.932,52.902 				"/>
				<polygon fill-rule="evenodd" clip-rule="evenodd" fill="#E0DDDD" points="114.626,105.255 114.626,147.349 133.336,152.421 
					133.336,110.326 				"/>
				<polygon fill-rule="evenodd" clip-rule="evenodd" fill="#E0DDDD" points="114.626,92.334 114.626,99.251 165.436,113.024 
					165.436,106.107 				"/>
				<polygon fill-rule="evenodd" clip-rule="evenodd" fill="#E0DDDD" points="137.442,111.439 137.442,115.248 165.42,122.832 
					165.42,119.023 				"/>
				<polygon fill-rule="evenodd" clip-rule="evenodd" fill="#E0DDDD" points="137.442,119.154 137.442,122.963 165.42,130.547 
					165.42,126.738 				"/>
				<polygon fill-rule="evenodd" clip-rule="evenodd" fill="#E0DDDD" points="137.442,126.869 137.442,130.678 165.42,138.263 
					165.42,134.453 				"/>
				<polygon fill-rule="evenodd" clip-rule="evenodd" fill="#E0DDDD" points="137.442,134.584 137.442,138.394 165.42,145.978 
					165.42,142.169 				"/>
				<polygon fill-rule="evenodd" clip-rule="evenodd" fill="#E0DDDD" points="137.442,142.3 137.442,146.108 165.42,153.692 
					165.42,149.884 				"/>
				<polygon fill-rule="evenodd" clip-rule="evenodd" fill="#E0DDDD" points="137.442,150.015 137.442,153.823 165.42,161.407 
					165.42,157.599 				"/>
			</g>
			<g>
				<polygon fill-rule="evenodd" clip-rule="evenodd" fill="#D7D2D2" points="42.432,41.552 42.433,48.469 93.241,32.748 
					93.241,25.831 				"/>
				<polygon fill-rule="evenodd" clip-rule="evenodd" fill="#D7D2D2" points="42.432,54.276 42.432,58.086 70.41,49.429 
					70.41,45.62 				"/>
				<polygon fill-rule="evenodd" clip-rule="evenodd" fill="#D7D2D2" points="42.432,61.991 42.432,65.801 70.41,57.144 
					70.41,53.335 				"/>
				<polygon fill-rule="evenodd" clip-rule="evenodd" fill="#D7D2D2" points="42.432,69.707 42.432,73.516 70.41,64.859 
					70.41,61.05 				"/>
				<polygon fill-rule="evenodd" clip-rule="evenodd" fill="#D7D2D2" points="42.432,77.422 42.432,81.23 70.41,72.574 
					70.41,68.765 				"/>
				<polygon fill-rule="evenodd" clip-rule="evenodd" fill="#D7D2D2" points="42.432,85.137 42.432,88.945 70.41,80.289 
					70.41,76.48 				"/>
				<polygon fill-rule="evenodd" clip-rule="evenodd" fill="#D7D2D2" points="42.432,92.852 42.432,96.661 70.41,88.004 
					70.41,84.195 				"/>
				<polygon fill-rule="evenodd" clip-rule="evenodd" fill="#D7D2D2" points="74.027,44.96 74.027,87.055 92.738,81.266 
					92.738,39.171 				"/>
				<polygon fill-rule="evenodd" clip-rule="evenodd" fill="#D7D2D2" points="42.216,121.024 42.216,163.119 60.927,157.33 
					60.927,115.235 				"/>
				<polygon fill-rule="evenodd" clip-rule="evenodd" fill="#D7D2D2" points="42.432,107.805 42.432,114.722 93.241,99.001 
					93.241,92.084 				"/>
				<polygon fill-rule="evenodd" clip-rule="evenodd" fill="#D7D2D2" points="64.76,114.05 64.76,117.858 92.738,109.202 
					92.738,105.393 				"/>
				<polygon fill-rule="evenodd" clip-rule="evenodd" fill="#D7D2D2" points="64.76,121.765 64.76,125.573 92.738,116.917 
					92.738,113.108 				"/>
				<polygon fill-rule="evenodd" clip-rule="evenodd" fill="#D7D2D2" points="64.76,129.479 64.76,133.289 92.738,124.632 
					92.738,120.823 				"/>
				<polygon fill-rule="evenodd" clip-rule="evenodd" fill="#D7D2D2" points="64.76,137.194 64.76,141.003 92.738,132.347 
					92.738,128.538 				"/>
				<polygon fill-rule="evenodd" clip-rule="evenodd" fill="#D7D2D2" points="64.76,144.91 64.76,148.719 92.738,140.063 
					92.738,136.253 				"/>
				<polygon fill-rule="evenodd" clip-rule="evenodd" fill="#D7D2D2" points="64.76,152.625 64.76,156.434 92.738,147.777 
					92.738,143.968 				"/>
			</g>
			<polygon fill-rule="evenodd" clip-rule="evenodd" fill="#AD3D52" points="82.136,11.407 92.1,8.596 92.1,30.948 87.117,28.119 
				82.136,33.76 			"/>
		</g>
	</g>
	<g>
		<g>
			<g>
				<g>
					<path fill="#E7B430" d="M172.366,119.243c1.326,15.834-5.597,31.566-16.111,42.817c-1.583,1.78-3.254,3.467-5.006,5.05
						c-7.011,6.331-15.317,11.015-24.127,13.279c-32.098,8.182-67.341-11.327-79.383-42.437c-0.592-1.907-1.008-3.842-1.261-5.791
						c-0.418-3.246-0.378-6.531,0.072-9.783c0.226-1.626,0.554-3.243,0.979-4.84c5.329-26.516,26.727-45.396,52.948-49.914
						c1.608-0.461,3.236-0.839,4.875-1.129c1.637-0.293,3.285-0.498,4.938-0.615c1.984-0.142,3.973-0.155,5.96-0.038
						c24.716,3.153,49.26,21.403,55.09,46.639C171.837,114.676,172.183,116.935,172.366,119.243z"/>
					<path fill="#C38327" d="M168.716,119.521c1.249,14.914-5.273,29.737-15.179,40.337c-1.49,1.675-3.064,3.264-4.716,4.757
						c-6.603,5.963-14.43,10.374-22.73,12.508c-30.235,7.707-63.438-10.671-74.78-39.978c-0.558-1.797-0.952-3.618-1.188-5.454
						c-0.396-3.059-0.357-6.154,0.067-9.216c0.213-1.532,0.522-3.057,0.922-4.561c5.021-24.979,25.178-42.766,49.881-47.021
						c1.516-0.434,3.049-0.79,4.591-1.063c1.544-0.276,3.096-0.47,4.652-0.581c1.87-0.132,3.745-0.145,5.614-0.034
						c23.284,2.97,46.405,20.163,51.898,43.937C168.215,115.217,168.542,117.345,168.716,119.521z"/>
					<path opacity="0.46" fill="#C38327" d="M111.807,177.326c-25.349,0-49.485-16.613-58.692-40.4
						c-0.012-0.026-0.02-0.055-0.028-0.081c-0.542-1.746-0.938-3.56-1.174-5.387c-0.38-2.956-0.358-6.01,0.067-9.078
						c0.205-1.477,0.504-2.971,0.894-4.439c4.722-23.415,23.662-41.286,48.269-45.553c1.451-0.414,2.937-0.756,4.415-1.02
						c1.503-0.268,3.032-0.46,4.547-0.566c1.002-0.071,2.019-0.107,3.016-0.107c0.824,0,1.657,0.025,2.474,0.073
						c0.028,0.002,0.056,0.006,0.085,0.009c24.149,3.081,45.305,21.016,50.302,42.646c0.462,2.044,0.78,4.138,0.947,6.229
						c1.128,13.479-4.38,28.145-14.736,39.225c-1.417,1.597-2.955,3.148-4.55,4.589c-6.554,5.918-14.194,10.121-22.094,12.152
						C121.097,176.752,116.475,177.326,111.807,177.326z"/>
					<path fill="#C38327" d="M165.671,119.751c1.186,14.149-5.003,28.211-14.4,38.268c-1.413,1.59-2.907,3.097-4.474,4.512
						c-6.265,5.659-13.689,9.843-21.563,11.867c-28.687,7.313-60.184-10.123-70.945-37.927c-0.529-1.705-0.902-3.433-1.128-5.176
						c-0.374-2.9-0.338-5.835,0.065-8.741c0.201-1.454,0.495-2.9,0.874-4.327c4.764-23.698,23.887-40.572,47.323-44.61
						c1.438-0.412,2.891-0.749,4.354-1.009c1.465-0.26,2.938-0.445,4.414-0.55c1.774-0.127,3.553-0.139,5.325-0.033
						c22.09,2.817,44.026,19.129,49.236,41.683C165.197,115.668,165.507,117.686,165.671,119.751z"/>
					<radialGradient id="SVGID_1_" cx="108.2402" cy="92.9121" r="132.9709" gradientUnits="userSpaceOnUse">
						<stop  offset="0" style="stop-color:#FAEF3B"/>
						<stop  offset="0.0756" style="stop-color:#F5DA38"/>
						<stop  offset="0.3224" style="stop-color:#E59A2E"/>
						<stop  offset="0.5471" style="stop-color:#D96726"/>
						<stop  offset="0.742" style="stop-color:#D04320"/>
						<stop  offset="0.8995" style="stop-color:#CB2C1C"/>
						<stop  offset="1" style="stop-color:#C9241B"/>
					</radialGradient>
					<path opacity="0.53" fill="url(#SVGID_1_)" d="M164.144,119.865c1.153,13.769-4.866,27.447-14.009,37.23
						c-1.376,1.548-2.83,3.013-4.354,4.391c-6.095,5.505-13.317,9.576-20.979,11.547c-27.909,7.112-58.553-9.852-69.021-36.899
						c-0.515-1.658-0.878-3.341-1.097-5.035c-0.363-2.824-0.328-5.679,0.063-8.507c0.194-1.412,0.481-2.82,0.851-4.209
						c4.633-23.055,23.238-39.472,46.039-43.4c1.398-0.399,2.813-0.729,4.237-0.981s2.858-0.433,4.295-0.534
						c1.726-0.123,3.456-0.135,5.182-0.033c21.49,2.742,42.831,18.611,47.899,40.553
						C163.683,115.895,163.984,117.858,164.144,119.865z"/>
					<path opacity="0.2" fill="#FAFF85" d="M110.933,165.835c-12.793-1.826-26.627-2.804-38.195-9.019
						c-2.009-0.789-3.975-1.698-5.874-2.764c14.331,16.008,36.903,24.341,57.939,18.98c3.823-0.983,7.534-2.5,11.052-4.449
						C127.503,168.36,119.103,167.002,110.933,165.835z"/>
					<linearGradient id="SVGID_2_" gradientUnits="userSpaceOnUse" x1="59.1748" y1="110.5703" x2="159.614" y2="110.5703">
						<stop  offset="0" style="stop-color:#F4DA48"/>
						<stop  offset="1" style="stop-color:#ECB73E"/>
					</linearGradient>
					<path opacity="0.33" fill="url(#SVGID_2_)" d="M60.719,119.15c10.574,18.362,34.246,25.455,54.301,25.437
						c11.517-0.009,25.829-1.979,34.682-10.105c4.634-4.253,7.325-9.777,9.781-15.444c-0.148-1.824-0.422-3.61-0.814-5.344
						c-4.634-20.062-24.145-34.569-43.793-37.076c-1.579-0.094-3.162-0.083-4.737,0.029c-1.315,0.094-2.625,0.258-3.928,0.49
						c-1.302,0.23-2.595,0.53-3.873,0.898c-20.848,3.59-37.857,18.6-42.094,39.679c-0.055,0.208-0.096,0.42-0.148,0.63
						C60.324,118.566,60.536,118.832,60.719,119.15z"/>
					<path opacity="0.99" fill="#F4F4F4" d="M122.032,79.995c-6.923-4.404-43.439-0.597-54.753,27.69
						C91.902,80.277,116.997,81.882,122.032,79.995z"/>
				</g>
			</g>
		</g>
		<path opacity="0.53" fill="#D7A234" d="M92.216,157.854c-6.024,0-10.925-4.357-10.925-9.716c0-5.356,4.9-9.715,10.925-9.715
			c6.025,0,10.926,4.358,10.926,9.715C103.142,153.497,98.241,157.854,92.216,157.854z M110.889,155.494
			c-4.056,0-7.354-3.299-7.354-7.354s3.299-7.354,7.354-7.354h22.287c4.055,0,7.354,3.299,7.354,7.354s-3.3,7.354-7.354,7.354
			H110.889z M92.216,136.895c-6.024,0-10.925-4.357-10.925-9.715c0-4.674,3.729-8.587,8.682-9.51
			c-4.952-0.922-8.682-4.836-8.682-9.509c0-5.357,4.9-9.716,10.925-9.716c6.025,0,10.926,4.358,10.926,9.716
			c0,4.673-3.73,8.587-8.682,9.509c4.951,0.923,8.682,4.836,8.682,9.51C103.142,132.537,98.241,136.895,92.216,136.895z
			 M110.889,133.779c-4.056,0-7.354-3.3-7.354-7.354c0-4.056,3.299-7.355,7.354-7.355h22.287c4.055,0,7.354,3.3,7.354,7.355
			c0,4.055-3.3,7.354-7.354,7.354H110.889z M110.889,115.041c-4.056,0-7.354-3.3-7.354-7.355c0-4.055,3.299-7.354,7.354-7.354
			h22.287c4.055,0,7.354,3.3,7.354,7.354c0,4.056-3.3,7.355-7.354,7.355H110.889z"/>
		<path fill="#FFFFFF" d="M92.216,100.229c-5.049,0-9.143,3.552-9.143,7.933c0,4.382,4.094,7.932,9.143,7.932
			c5.05,0,9.143-3.55,9.143-7.932C101.358,103.78,97.266,100.229,92.216,100.229z M92.216,119.247c-5.049,0-9.143,3.552-9.143,7.933
			c0,4.382,4.094,7.932,9.143,7.932c5.05,0,9.143-3.55,9.143-7.932C101.358,122.799,97.266,119.247,92.216,119.247z M92.216,140.207
			c-5.049,0-9.143,3.551-9.143,7.932c0,4.382,4.094,7.933,9.143,7.933c5.05,0,9.143-3.551,9.143-7.933
			C101.358,143.758,97.266,140.207,92.216,140.207z M110.889,113.258h22.287c3.077,0,5.571-2.495,5.571-5.572
			s-2.494-5.571-5.571-5.571h-22.287c-3.077,0-5.572,2.494-5.572,5.571S107.812,113.258,110.889,113.258z M133.176,120.853h-22.287
			c-3.077,0-5.572,2.494-5.572,5.572c0,3.077,2.495,5.571,5.572,5.571h22.287c3.077,0,5.571-2.494,5.571-5.571
			C138.747,123.347,136.253,120.853,133.176,120.853z M133.176,142.568h-22.287c-3.077,0-5.572,2.494-5.572,5.571
			s2.495,5.571,5.572,5.571h22.287c3.077,0,5.571-2.494,5.571-5.571S136.253,142.568,133.176,142.568z"/>
		<path fill="#DCF4F4" d="M110.889,111.476h22.287c2.089,0,3.788-1.7,3.788-3.79c0-2.089-1.699-3.788-3.788-3.788h-22.287
			c-2.089,0-3.789,1.699-3.789,3.788C107.1,109.775,108.8,111.476,110.889,111.476z"/>
		<path fill="#DCF4F4" d="M92.216,121.03c-3.936,0-7.15,2.596-7.341,5.847c3.487-0.628,6.966-1.311,10.438-2.034
			c1.062-0.292,2.128-0.565,3.197-0.834C97.221,122.228,94.886,121.03,92.216,121.03z"/>
		<path fill="#DCF4F4" d="M92.216,114.311c4.059,0,7.359-2.759,7.359-6.149c0-3.392-3.301-6.149-7.359-6.149
			s-7.359,2.758-7.359,6.149C84.856,111.552,88.157,114.311,92.216,114.311z"/>
	</g>
</g>
</svg>
