<?xml version="1.0" encoding="utf-8"?>
<!-- Generator: Adobe Illustrator 16.0.0, SVG Export Plug-In . SVG Version: 6.00 Build 0)  -->
<!DOCTYPE svg PUBLIC "-//W3C//DTD SVG 1.1//EN" "http://www.w3.org/Graphics/SVG/1.1/DTD/svg11.dtd">
<svg version="1.1" id="Isolation_Mode" xmlns="http://www.w3.org/2000/svg" xmlns:xlink="http://www.w3.org/1999/xlink" x="0px"
	 y="0px" width="348.417px" height="87.962px" viewBox="0.001 -7.178 348.417 87.962"
	 enable-background="new 0.001 -7.178 348.417 87.962" xml:space="preserve">
<g id="Layer_x0020_1">
	<path fill="#1084C3" d="M23.256,4.159l104.731-4.115c0.77-0.08,1.541-0.047,2.288,0.083c1.655,0.29,3.205,1.063,4.385,2.12
		c1.204,1.08,2.04,2.465,2.239,3.957c0.079,0.589,0.06,1.194-0.076,1.803l-10.928,49.257c-0.459,2.07-1.479,3.995-3.023,5.366
		c-1.452,1.288-3.34,2.089-5.636,2.089l-84.089-2.893c-2.287,0-4.164-0.799-5.61-2.082l-0.007-0.006
		c-1.541-1.369-2.562-3.293-3.035-5.357l-9.714-42.249c-0.043-0.185-0.073-0.342-0.091-0.475c-0.263-1.972,0.661-3.671,2.208-4.967
		c1.418-1.187,3.386-2.024,5.394-2.389C22.64,4.237,22.963,4.19,23.256,4.159z M123.463,6.719L23.211,10.361
		c-0.247,0.026-0.472,0.057-0.667,0.093c-1.381,0.25-2.717,0.812-3.657,1.6c-0.819,0.687-1.313,1.551-1.186,2.511
		c0.013,0.101,0.027,0.181,0.039,0.237l9.06,39.399c0.337,1.467,1.032,2.809,2.065,3.727c0.838,0.742,1.921,1.203,3.238,1.203
		l81.003,2.893c1.32,0,2.411-0.464,3.253-1.212c1.03-0.914,1.723-2.249,2.046-3.708l10.191-45.934
		c0.066-0.304,0.077-0.608,0.037-0.906c-0.109-0.817-0.588-1.595-1.28-2.217c-0.716-0.642-1.646-1.108-2.631-1.28
		C124.307,6.693,123.882,6.675,123.463,6.719z"/>
	<path opacity="0.5" fill="#1084C3" d="M40.034,15.326l30.708-3.241c0.355-0.037,0.712-0.021,1.059,0.039
		c0.765,0.134,1.481,0.491,2.026,0.98c0.558,0.499,0.944,1.14,1.036,1.83c0.036,0.272,0.027,0.552-0.035,0.833l-5.054,22.778
		c-0.212,0.957-0.684,1.848-1.397,2.481c-0.672,0.597-1.545,0.966-2.606,0.966H44.608c-1.058,0-1.926-0.369-2.595-0.963
		l-0.002-0.002c-0.713-0.633-1.185-1.523-1.404-2.478l-4.492-19.537c-0.02-0.085-0.033-0.158-0.041-0.22
		c-0.122-0.912,0.306-1.698,1.021-2.297c0.655-0.549,1.565-0.937,2.494-1.105C39.75,15.362,39.898,15.34,40.034,15.326z
		 M68.649,15.171l-28.636,3.022c-0.114,0.012-0.218,0.027-0.308,0.043c-0.64,0.116-1.257,0.375-1.692,0.74
		c-0.379,0.317-0.607,0.717-0.548,1.161c0.006,0.046,0.013,0.083,0.019,0.109l4.188,18.22c0.156,0.678,0.478,1.299,0.955,1.723
		c0.388,0.344,0.889,0.557,1.498,0.557H63.86c0.611,0,1.115-0.215,1.505-0.561c0.476-0.422,0.796-1.039,0.946-1.715l4.712-21.241
		c0.031-0.14,0.036-0.281,0.018-0.418c-0.051-0.378-0.272-0.738-0.593-1.025c-0.331-0.297-0.761-0.513-1.215-0.592
		C69.04,15.16,68.844,15.151,68.649,15.171z"/>
	<g id="_1849662416">
		<path fill="#FFFFFF" d="M84.096,44.416l0.977-1.727l-1.753-1.033l1.025-1.775l-3.529-2.023l-2.033,3.497l-0.015,0.065
			c0.625,0.223,1.198,0.611,1.774,0.955l-0.996,1.764l1.753,1.05l-2.019,3.515l1.733,1.031c-0.564,1.084-1.387,2.596-2.108,3.536
			l0.077,0.037c0.44,0.19,0.851,0.442,1.268,0.685c0.603,0.353,0.574,0.186,0.054,1.097s-1.051,1.817-1.575,2.726l1.719,1.013
			c-0.072,0.446-1.647,2.859-1.97,3.55l14.098,8.162l2.043-3.494l1.817,1.029l3.02-5.306l1.776,0.989l7.126-12.309
			c-0.23-0.271-1.666-0.902-1.671-1.113c-0.01-0.396,0.932-1.345,0.844-1.719c-0.32-0.299-1.273-0.854-1.684-1.008l-3.076,5.273
			l-1.736-1.006l4.077-7.074l-3.549-2.039L98.5,48.054l-1.765-1.021l4.083-7.022c-0.25-0.257-3.171-1.938-3.556-2.056L93.2,44.998
			l-1.742-1.018c-0.005-0.184,0.122-0.343,0.228-0.521c2.969-5.015,6.011-10.358,8.932-15.406l-3.528-2.012L85.851,45.462
			c-0.561-0.164-1.676-0.951-1.69-0.965L84.096,44.416z"/>
		<path fill="#1E1E1E" d="M78.983,53.307c-0.162,0.282-0.322,0.429-0.526,0.786l-1.563,2.709c0.288,0.166,0.585,0.33,0.87,0.5
			c0.318,0.189,0.454,0.337,0.832,0.555c-1.048,1.814-1.937,3.479-2.979,5.286c1.48,0.854,2.832,1.708,4.356,2.587l8.938,5.161
			c1.542,0.89,2.977,1.646,4.474,2.511c0.257-0.445,0.325-0.801,0.71-1.283c0.325-0.406,0.861-1.46,1.197-2.025
			c0.177-0.297,0.253-0.313,0.431-0.611c0.295-0.492,0.422-0.859,0.727-1.389c0.286,0.417,1.281,0.738,1.733,1
			c1.024-1.773,2.019-3.37,3.057-5.169c0.536,0.163,1.028,0.558,1.497,0.802c0.26,0.135,0.271,0.132,0.428-0.115
			c0.402-0.633,0.803-1.406,1.186-2.068c0.781-1.355,1.563-2.709,2.346-4.064l3.439-5.958c-0.479-0.278-1.41-0.728-1.775-1.071
			l-7.126,12.309l-1.776-0.989l-3.02,5.306l-1.817-1.029l-2.043,3.494l-14.098-8.162c0.322-0.69,1.897-3.104,1.97-3.55l-1.719-1.013
			c0.524-0.908,1.055-1.814,1.575-2.726s0.549-0.744-0.054-1.097C79.834,53.75,79.424,53.498,78.983,53.307z"/>
		<path fill="#1E1E1E" d="M84.345,39.88l-1.025,1.775l1.753,1.033l-0.977,1.727l1.742,1.006l11.19-19.413l-1.722-0.976
			c-0.014,0.008-0.024,0.009-0.039,0.029l-0.074,0.067c-0.011,0.013-0.023,0.027-0.035,0.042l-9.04,15.651
			C85.48,40.454,84.978,40.203,84.345,39.88z"/>
		<path fill="#1E1E1E" d="M100.651,28.122L91.458,43.98l1.742,1.018l4.063-7.043c0.385,0.117,3.306,1.799,3.556,2.056
			c0.384,0.396,3.722,2.201,4.472,2.635c0.013-0.093,0.147-0.056-0.254-0.302l-3.529-2.027c-0.847-0.481-0.78-0.148,0.351-2.107
			L99.2,36.676c-0.346-0.201-0.453-0.337-0.832-0.556l4.034-6.988c-0.451-0.261-0.733-0.536-1.324-0.837
			C100.832,28.17,100.864,28.236,100.651,28.122z"/>
		<path fill="#1E1E1E" d="M105.112,44.802l1.022-1.741c-0.27-0.155-0.559-0.371-0.845-0.416c-0.75-0.434-4.088-2.239-4.472-2.635
			l-4.083,7.022l1.765,1.021l3.063-5.291L105.112,44.802z"/>
		<path fill="#1E1E1E" d="M78.768,41.419c-0.151,0.25-0.214,0.242-0.554,0.834c-0.177,0.307-0.354,0.613-0.531,0.921l1.679,0.97
			c-0.166,0.547-1.646,3.102-1.925,3.584l1.734,1l-1.533,2.654c-0.22,0.377-0.262,0.578-0.446,0.898l1.714,0.989
			c0.722-0.94,1.544-2.452,2.108-3.536l-1.733-1.031l2.019-3.515l-1.753-1.05l0.996-1.764
			C79.967,42.031,79.393,41.642,78.768,41.419z"/>
		<path fill="#1E1E1E" d="M78.783,41.354l2.033-3.497l3.529,2.023l0.56-0.836c0.151-0.309,0.261-0.574,0.481-0.957l-4.713-2.721
			c-0.757-0.443-0.57-0.513-1.182,0.546l-2.253,3.9c-0.233,0.392-0.408,0.474-0.052,0.7C77.526,40.73,78.497,41.356,78.783,41.354z"
			/>
		<path fill="#1E1E1E" d="M107.531,48.617c0.272-0.012,0.054,0.08,0.272-0.182c0.014-0.018,0.131-0.238,0.154-0.277
			c0.067-0.434,0.465-0.931,0.696-1.331l-3.542-2.024l-4.077,7.074l1.736,1.006l3.076-5.273
			C106.258,47.762,107.211,48.318,107.531,48.617z"/>
		<path fill="#1E1E1E" d="M100.677,27.993c0.315-0.545,0.759-1.193,0.916-1.711l-3.482-2.01l-1,1.708L100.677,27.993z"/>
		<path fill="#1E1E1E" d="M107.531,48.617c0.088,0.374-0.854,1.322-0.844,1.719c0.005,0.211,1.44,0.842,1.671,1.113
			c0.365,0.344,1.296,0.793,1.775,1.071l-3.439,5.958l3.502-6.066l-1.733-1c0.16-0.277,0.209-0.492,0.415-0.844
			c0.179-0.307,0.354-0.614,0.532-0.922c-1.927-1.112-1.827-0.834-1.452-1.488c-0.023,0.039-0.141,0.26-0.154,0.277
			C107.585,48.697,107.803,48.605,107.531,48.617z"/>
		<path fill="#8B8B8B" d="M95.307,25.033l1.722,0.976l-11.19,19.413l-1.742-1.006l0.064,0.082c0.015,0.014,1.13,0.801,1.69,0.965
			L97.089,26.04l3.528,2.012c-2.921,5.048-5.963,10.392-8.932,15.406c-0.105,0.179-0.232,0.338-0.228,0.521l9.193-15.858
			l0.025-0.129l-3.566-2.013l1-1.708c-0.269,0.191-0.815,1.322-1.04,1.711l-1.621-0.925C95.331,25.016,95.384,25.032,95.307,25.033z
			"/>
	</g>
	<path fill="#1084C3" d="M166.506,44.341h-6.022l4.965-17.148l-10.199,17.148h-6.195l-1.111-17.394l-4.243,17.394h-6.195
		l6.993-26.099h8.454l1.164,18.313l10.93-18.313h8.454L166.506,44.341z M189.025,44.341h-13.467c-1.871,0-3.218-0.502-4.042-1.506
		c-0.85-0.98-1.017-2.408-0.512-4.29c0.604-2.252,1.646-3.872,3.128-4.852c1.481-0.98,3.585-1.47,6.315-1.47h5.945
		c0.251-0.938,0.155-1.607-0.283-2.02c-0.456-0.376-1.464-0.562-3.011-0.562h-8.484l1.258-4.696h10.319
		c2.623,0,4.455,0.609,5.492,1.822c1.043,1.213,1.231,3.053,0.57,5.521L189.025,44.341z M184.385,39.716l0.777-2.904h-5.264
		c-1.052,0-1.76,0.102-2.125,0.305c-0.371,0.203-0.641,0.627-0.813,1.273c-0.128,0.478-0.112,0.824,0.049,1.045
		c0.094,0.096,0.285,0.162,0.583,0.21c0.299,0.048,0.687,0.071,1.164,0.071H184.385z M210.04,44.341h-5.736l3.117-11.633
		c0.331-1.237,0.368-2.02,0.106-2.36c-0.301-0.305-1.008-0.454-2.101-0.454h-3.454l-3.871,14.448h-5.735l5.196-19.395h9.536
		c2.916,0,4.843,0.567,5.781,1.703c0.938,1.142,1.068,2.97,0.391,5.503L210.04,44.341z M230.904,44.341h-5.771l3.122-11.651
		c0.309-1.153,0.325-1.906,0.041-2.252c-0.19-0.204-0.427-0.347-0.706-0.442c-0.311-0.09-0.77-0.138-1.361-0.138l-3.427,0.036
		l-3.871,14.448h-5.736l6.993-26.099h5.736l-1.797,6.704h3.837c2.867,0,4.784,0.562,5.752,1.679
		c0.966,1.123,1.107,2.958,0.422,5.515L230.904,44.341z M252.916,44.341h-13.468c-1.87,0-3.217-0.502-4.042-1.506
		c-0.849-0.98-1.016-2.408-0.512-4.29c0.604-2.252,1.647-3.872,3.129-4.852c1.481-0.98,3.585-1.47,6.314-1.47h5.945
		c0.251-0.938,0.156-1.607-0.283-2.02c-0.455-0.376-1.463-0.562-3.01-0.562h-8.484l1.258-4.696h10.318
		c2.624,0,4.456,0.609,5.493,1.822c1.043,1.213,1.231,3.053,0.57,5.521L252.916,44.341z M248.275,39.716l0.778-2.904h-5.264
		c-1.052,0-1.76,0.102-2.125,0.305c-0.371,0.203-0.641,0.627-0.813,1.273c-0.128,0.478-0.113,0.824,0.049,1.045
		c0.094,0.096,0.285,0.162,0.583,0.21s0.686,0.071,1.164,0.071H248.275z M262.135,44.341h-5.951l6.993-26.099h5.951L262.135,44.341z
		 M275.577,44.341h-5.055l1.422-5.307h5.055L275.577,44.341z M294.141,44.341h-7.009c-0.856,0-1.632-0.049-2.304-0.144
		c-0.66-0.093-1.274-0.206-1.816-0.4c-0.981-0.353-1.818-0.972-2.493-1.822c-0.314-0.396-0.532-0.902-0.729-1.47
		c-0.192-0.553-0.396-1.145-0.49-1.787c-0.09-0.616-0.081-1.256-0.03-1.912c0.049-0.638,0.189-1.352,0.395-2.121
		c0.386-1.444,0.987-2.813,1.811-4.081c0.812-1.25,1.784-2.411,2.996-3.375c1.005-0.801,2.184-1.325,3.438-1.703
		c1.246-0.377,2.719-0.58,4.422-0.58h7.008l-1.306,4.875h-5.593c-1.162,0-2.122,0.056-2.853,0.209
		c-0.735,0.154-1.336,0.479-1.838,0.86c-0.974,0.739-1.725,1.991-2.205,3.794c-0.268,1.002-0.301,1.855-0.16,2.557
		c0.137,0.681,0.322,1.457,0.975,1.715l1.026,0.406c0.281,0.111,0.614,0.08,0.929,0.102c0.333,0.022,0.845,0.036,1.532,0.036h5.593
		L294.141,44.341z M318.156,34.614c-0.811,3.032-2.388,5.46-4.718,7.283c-2.323,1.817-5.027,2.731-8.117,2.731
		c-3.106,0-5.317-0.922-6.677-2.731c-1.351-1.796-1.637-4.214-0.815-7.283c0.804-3.004,2.383-5.426,4.712-7.26
		c2.303-1.813,5.01-2.73,8.141-2.73c3.089,0,5.313,0.898,6.663,2.695C318.704,29.127,318.97,31.564,318.156,34.614z M312.205,34.614
		c0.429-1.61,0.344-2.863-0.174-3.788c-0.498-0.89-1.362-1.362-2.683-1.362c-1.309,0-2.431,0.474-3.412,1.362
		c-0.941,0.853-1.671,2.104-2.12,3.788c-0.23,0.864-0.325,1.597-0.323,2.187c0.002,0.626,0.125,1.186,0.397,1.661
		c0.506,0.884,1.407,1.327,2.691,1.327c1.32,0,2.442-0.46,3.403-1.327C311.008,37.539,311.764,36.265,312.205,34.614z
		 M344.743,44.341h-5.771l3.107-11.598c0.318-1.189,0.404-2.017,0.134-2.396c-0.264-0.369-1.003-0.534-2.08-0.508l-2.237,0.054
		l-3.871,14.448h-5.844l3.871-14.448h-4.768l-3.871,14.448h-5.771l5.196-19.395h19.013c2.766,0,4.659,0.569,5.661,1.703
		c1.008,1.14,1.176,2.973,0.498,5.503L344.743,44.341z"/>
	<path opacity="0.2" fill="#1084C3" d="M6.553,25.047l50.538-5.334c0.586-0.061,1.173-0.036,1.742,0.063
		c1.26,0.22,2.438,0.808,3.337,1.613c0.917,0.822,1.553,1.876,1.704,3.011c0.06,0.448,0.045,0.909-0.058,1.372l-8.744,22.963
		c-0.35,1.576-1.126,3.041-2.301,4.084c-1.105,0.98-2.542,1.59-4.289,1.59H13.654c-1.74,0-3.169-0.607-4.27-1.585L9.38,52.822
		c-1.174-1.043-1.949-2.506-2.311-4.078L0.103,31.114c-0.032-0.14-0.055-0.26-0.068-0.361c-0.201-1.501,0.503-2.794,1.681-3.78
		c1.078-0.903,2.576-1.542,4.104-1.818C6.086,25.107,6.331,25.07,6.553,25.047z M53.648,24.794L6.519,29.768
		c-0.188,0.02-0.359,0.043-0.507,0.07c-1.052,0.19-2.068,0.618-2.784,1.218c-0.624,0.522-1,1.18-0.902,1.911
		c0.011,0.076,0.021,0.137,0.029,0.18l6.468,15.46c0.257,1.117,0.786,2.138,1.572,2.836c0.638,0.564,1.462,0.916,2.465,0.916H45.34
		c1.005,0,1.835-0.354,2.476-0.922c0.783-0.695,1.311-1.711,1.558-2.822l8.183-20.434c0.051-0.231,0.059-0.463,0.028-0.689
		c-0.084-0.622-0.447-1.214-0.975-1.688c-0.545-0.488-1.252-0.844-2.001-0.974C54.292,24.775,53.968,24.761,53.648,24.794z"/>
	<path fill="#1084C3" d="M149.343,0.979l-1.248,4.661h-1.679l3.341-12.469h3.678c0.789,0,1.451,0.093,1.984,0.276
		c0.534,0.182,0.946,0.44,1.239,0.776c0.292,0.336,0.47,0.745,0.531,1.22c0.061,0.476,0.011,1.006-0.146,1.591
		c-0.157,0.583-0.4,1.113-0.732,1.594c-0.332,0.481-0.738,0.896-1.224,1.247c-0.484,0.348-1.043,0.617-1.675,0.812
		c-0.631,0.194-1.322,0.292-2.069,0.292H149.343z M149.702-0.36h1.999c0.482,0,0.925-0.063,1.327-0.191
		c0.402-0.127,0.758-0.308,1.068-0.536c0.311-0.229,0.573-0.501,0.785-0.82c0.213-0.318,0.371-0.67,0.473-1.052
		c0.213-0.794,0.136-1.415-0.234-1.861c-0.37-0.446-1.052-0.669-2.043-0.669h-2L149.702-0.36z"/>
	<path id="_x31_" fill="#1084C3" d="M162.326-3.308c0.644,0,1.198,0.107,1.659,0.322c0.462,0.214,0.82,0.519,1.078,0.913
		c0.256,0.395,0.407,0.87,0.452,1.43c0.044,0.559-0.028,1.186-0.212,1.875c-0.188,0.696-0.451,1.322-0.794,1.879
		c-0.343,0.557-0.749,1.031-1.216,1.426c-0.468,0.395-0.989,0.696-1.565,0.907c-0.575,0.211-1.187,0.319-1.83,0.319
		c-0.643,0-1.194-0.107-1.656-0.319s-0.825-0.513-1.084-0.907s-0.413-0.869-0.462-1.426c-0.047-0.557,0.021-1.183,0.208-1.879
		c0.185-0.689,0.452-1.316,0.799-1.875c0.347-0.56,0.755-1.035,1.227-1.43c0.471-0.394,0.996-0.698,1.572-0.913
		C161.074-3.201,161.683-3.308,162.326-3.308z M160.22,4.552c0.869,0,1.597-0.292,2.182-0.875c0.585-0.583,1.018-1.397,1.298-2.444
		c0.281-1.049,0.286-1.866,0.015-2.455c-0.272-0.586-0.843-0.878-1.712-0.878c-0.44,0-0.844,0.075-1.209,0.226
		c-0.364,0.15-0.692,0.368-0.986,0.652s-0.55,0.635-0.768,1.049c-0.218,0.415-0.399,0.884-0.539,1.406
		c-0.139,0.522-0.209,0.992-0.213,1.403c-0.003,0.411,0.065,0.759,0.208,1.041c0.142,0.281,0.354,0.496,0.638,0.649
		C159.417,4.477,159.779,4.552,160.22,4.552z"/>
	<path id="_x32_" fill="#1084C3" d="M167.247-3.177h1.217c0.128,0,0.224,0.032,0.288,0.095c0.064,0.064,0.099,0.139,0.104,0.226
		l0.166,5.675c-0.009,0.209-0.02,0.412-0.032,0.605c-0.011,0.194-0.028,0.389-0.053,0.589c0.1-0.2,0.204-0.395,0.314-0.589
		c0.11-0.194,0.226-0.396,0.345-0.605l3.391-5.71c0.052-0.087,0.124-0.159,0.212-0.217c0.087-0.058,0.185-0.087,0.296-0.087h0.669
		c0.116,0,0.203,0.029,0.263,0.087c0.06,0.058,0.093,0.13,0.099,0.217l0.287,5.71c0.01,0.203,0.014,0.403,0.011,0.6
		c-0.004,0.198-0.009,0.392-0.015,0.586c0.081-0.194,0.172-0.394,0.274-0.603c0.102-0.208,0.204-0.402,0.304-0.583l3.242-5.675
		c0.055-0.093,0.13-0.168,0.228-0.229s0.2-0.092,0.312-0.092h1.165l-5.215,8.816h-1.226c-0.151,0-0.229-0.098-0.235-0.295
		l-0.345-5.979c-0.011-0.133-0.012-0.27-0.004-0.405c0.008-0.137,0.014-0.27,0.021-0.403c-0.066,0.133-0.13,0.269-0.197,0.408
		c-0.066,0.14-0.14,0.276-0.223,0.409l-3.574,5.971c-0.117,0.197-0.262,0.295-0.436,0.295h-1.165L167.247-3.177z"/>
	<path id="_x33_" fill="#1084C3" d="M185.242-3.317c0.527,0,0.989,0.089,1.389,0.267c0.399,0.177,0.717,0.432,0.951,0.765
		c0.235,0.333,0.379,0.748,0.432,1.238c0.051,0.49-0.009,1.049-0.179,1.678c-0.064,0.244-0.134,0.406-0.208,0.487
		c-0.074,0.082-0.183,0.122-0.328,0.122h-5.86c-0.138,0.557-0.193,1.043-0.164,1.455c0.027,0.415,0.127,0.756,0.296,1.035
		c0.171,0.275,0.404,0.481,0.705,0.617c0.3,0.137,0.658,0.206,1.075,0.206c0.388,0,0.736-0.046,1.042-0.136
		c0.305-0.09,0.572-0.188,0.803-0.293c0.231-0.104,0.428-0.2,0.588-0.29c0.161-0.092,0.289-0.136,0.388-0.136
		c0.127,0,0.212,0.049,0.256,0.148l0.282,0.568c-0.252,0.229-0.534,0.429-0.848,0.6c-0.312,0.171-0.634,0.31-0.968,0.42
		c-0.332,0.107-0.672,0.191-1.011,0.246s-0.668,0.081-0.987,0.081c-0.609,0-1.14-0.104-1.597-0.31
		c-0.459-0.206-0.821-0.507-1.088-0.904c-0.269-0.397-0.43-0.89-0.481-1.476c-0.051-0.585,0.024-1.257,0.229-2.02
		c0.164-0.614,0.412-1.188,0.745-1.722c0.331-0.533,0.725-0.997,1.184-1.388c0.458-0.391,0.972-0.699,1.542-0.921
		C184-3.204,184.603-3.317,185.242-3.317z M184.969-2.169c-0.748,0-1.394,0.214-1.939,0.646c-0.543,0.429-0.97,1.026-1.278,1.789
		h4.791c0.097-0.359,0.135-0.687,0.116-0.982c-0.019-0.299-0.095-0.557-0.229-0.771c-0.133-0.217-0.32-0.385-0.563-0.503
		C185.623-2.111,185.322-2.169,184.969-2.169z"/>
	<path id="_x34_" fill="#1084C3" d="M188.468,5.639l2.362-8.816h0.888c0.168,0,0.274,0.034,0.32,0.101
		c0.046,0.067,0.058,0.186,0.036,0.351l-0.287,1.461c0.477-0.652,0.986-1.16,1.526-1.522c0.542-0.365,1.108-0.547,1.707-0.547
		c0.242,0,0.456,0.029,0.638,0.084c0.183,0.058,0.344,0.136,0.484,0.238l-0.51,1.156c-0.08,0.146-0.189,0.218-0.328,0.218
		c-0.081,0-0.198-0.029-0.352-0.084c-0.153-0.055-0.381-0.081-0.683-0.081c-0.539,0-1.031,0.162-1.481,0.49
		c-0.451,0.327-0.882,0.803-1.293,1.426l-1.48,5.527H188.468z"/>
	<path id="_x35_" fill="#1084C3" d="M201.363-3.317c0.527,0,0.99,0.089,1.39,0.267c0.398,0.177,0.716,0.432,0.951,0.765
		c0.235,0.333,0.38,0.748,0.431,1.238c0.051,0.49-0.009,1.049-0.177,1.678c-0.066,0.244-0.135,0.406-0.209,0.487
		c-0.073,0.082-0.184,0.122-0.328,0.122h-5.861c-0.138,0.557-0.192,1.043-0.164,1.455c0.028,0.415,0.127,0.756,0.298,1.035
		c0.169,0.275,0.403,0.481,0.703,0.617c0.3,0.137,0.658,0.206,1.075,0.206c0.389,0,0.737-0.046,1.043-0.136
		c0.305-0.09,0.571-0.188,0.803-0.293c0.23-0.104,0.427-0.2,0.588-0.29c0.16-0.092,0.288-0.136,0.387-0.136
		c0.127,0,0.214,0.049,0.257,0.148l0.282,0.568c-0.253,0.229-0.535,0.429-0.848,0.6c-0.313,0.171-0.635,0.31-0.969,0.42
		c-0.332,0.107-0.67,0.191-1.01,0.246s-0.669,0.081-0.988,0.081c-0.607,0-1.14-0.104-1.597-0.31
		c-0.459-0.206-0.821-0.507-1.088-0.904c-0.269-0.397-0.429-0.89-0.48-1.476c-0.052-0.585,0.024-1.257,0.229-2.02
		c0.164-0.614,0.414-1.188,0.745-1.722c0.331-0.533,0.725-0.997,1.184-1.388c0.458-0.391,0.972-0.699,1.543-0.921
		C200.121-3.204,200.725-3.317,201.363-3.317z M201.09-2.169c-0.748,0-1.394,0.214-1.938,0.646c-0.545,0.429-0.972,1.026-1.28,1.789
		h4.792c0.096-0.359,0.136-0.687,0.115-0.982c-0.019-0.299-0.095-0.557-0.229-0.771c-0.133-0.217-0.319-0.385-0.563-0.503
		C201.744-2.111,201.443-2.169,201.09-2.169z"/>
	<path id="_x36_" fill="#1084C3" d="M210.79,5.639c-0.222,0-0.332-0.107-0.332-0.321l0.147-1.069
		c-0.5,0.458-1.026,0.823-1.584,1.098s-1.152,0.415-1.778,0.415c-0.504,0-0.936-0.099-1.296-0.292
		c-0.358-0.194-0.633-0.479-0.822-0.855c-0.188-0.38-0.286-0.849-0.291-1.412c-0.006-0.562,0.089-1.208,0.285-1.942
		c0.174-0.649,0.423-1.252,0.747-1.814c0.324-0.559,0.705-1.043,1.145-1.458c0.438-0.412,0.921-0.733,1.453-0.968
		c0.533-0.235,1.099-0.354,1.695-0.354c0.539,0,0.976,0.092,1.309,0.275c0.334,0.183,0.607,0.438,0.82,0.768l1.31-4.887h1.548
		l-3.435,12.817H210.79z M208.092,4.509c0.505,0,0.979-0.116,1.422-0.348c0.441-0.231,0.877-0.56,1.309-0.982l1.143-4.267
		c-0.18-0.383-0.418-0.652-0.717-0.806c-0.297-0.153-0.653-0.232-1.065-0.232c-0.822,0-1.532,0.293-2.132,0.882
		c-0.598,0.585-1.041,1.42-1.332,2.507c-0.154,0.574-0.236,1.067-0.248,1.475c-0.01,0.409,0.044,0.745,0.164,1.009
		c0.122,0.264,0.305,0.458,0.55,0.58C207.43,4.448,207.732,4.509,208.092,4.509z"/>
	<path id="_x37_" fill="#1084C3" d="M217.72,5.639l3.434-12.817h1.557l-1.438,5.362c0.485-0.449,1.004-0.814,1.55-1.09
		c0.547-0.275,1.122-0.412,1.73-0.412c0.511,0,0.946,0.096,1.307,0.287c0.359,0.191,0.633,0.478,0.821,0.858
		c0.188,0.379,0.286,0.849,0.293,1.409c0.006,0.562-0.089,1.205-0.285,1.936c-0.175,0.652-0.423,1.255-0.747,1.817
		c-0.323,0.559-0.702,1.044-1.141,1.452c-0.437,0.409-0.922,0.73-1.458,0.965c-0.535,0.235-1.101,0.354-1.691,0.354
		c-0.568,0-1.02-0.11-1.357-0.333c-0.337-0.22-0.603-0.53-0.792-0.928l-0.294,0.806c-0.106,0.224-0.269,0.333-0.489,0.333H217.72z
		 M223.719-2.082c-0.504,0-0.978,0.122-1.423,0.368c-0.444,0.243-0.89,0.591-1.327,1.038l-1.126,4.2
		c0.178,0.377,0.417,0.644,0.715,0.796c0.298,0.154,0.653,0.232,1.07,0.232c0.823,0,1.533-0.292,2.132-0.878
		c0.598-0.585,1.041-1.42,1.331-2.504c0.153-0.574,0.236-1.067,0.245-1.478c0.01-0.412-0.047-0.75-0.169-1.015
		c-0.12-0.264-0.304-0.456-0.549-0.577C224.372-2.021,224.072-2.082,223.719-2.082z"/>
	<path id="_x38_" fill="#1084C3" d="M229.047,8.248c-0.084,0.116-0.172,0.209-0.27,0.278c-0.097,0.069-0.227,0.104-0.39,0.104
		h-1.147l2.531-3.443l-1.396-8.356h1.338c0.135,0,0.229,0.035,0.286,0.102c0.058,0.066,0.093,0.142,0.105,0.223l0.852,5.621
		c0.018,0.127,0.029,0.258,0.032,0.385c0.003,0.131-0.001,0.264-0.008,0.397c0.076-0.133,0.153-0.266,0.229-0.397
		c0.074-0.127,0.156-0.261,0.245-0.395l3.79-5.611c0.06-0.093,0.142-0.17,0.241-0.232c0.102-0.061,0.199-0.092,0.298-0.092h1.235
		L229.047,8.248z"/>
	<path id="_x39_" fill="#1084C3" d="M236.166,4.686c0.041-0.15,0.108-0.292,0.199-0.426c0.09-0.133,0.197-0.249,0.319-0.351
		c0.121-0.099,0.255-0.177,0.405-0.235c0.148-0.058,0.298-0.087,0.449-0.087c0.15,0,0.284,0.029,0.402,0.087
		s0.214,0.136,0.285,0.235c0.071,0.102,0.119,0.217,0.137,0.351c0.021,0.133,0.009,0.275-0.032,0.426
		c-0.042,0.16-0.106,0.302-0.197,0.435c-0.09,0.131-0.198,0.244-0.325,0.346c-0.124,0.098-0.261,0.173-0.408,0.229
		c-0.148,0.055-0.298,0.084-0.449,0.084c-0.15,0-0.284-0.029-0.402-0.084c-0.119-0.055-0.213-0.13-0.281-0.229
		c-0.068-0.102-0.114-0.214-0.134-0.346C236.114,4.987,236.123,4.845,236.166,4.686z M237.913-1.836
		c0.041-0.151,0.108-0.292,0.199-0.426s0.197-0.249,0.319-0.351c0.123-0.099,0.257-0.177,0.405-0.235
		c0.148-0.058,0.298-0.087,0.449-0.087c0.15,0,0.285,0.029,0.402,0.087c0.118,0.058,0.214,0.136,0.285,0.235
		c0.072,0.102,0.119,0.217,0.139,0.351c0.019,0.133,0.008,0.275-0.033,0.426c-0.043,0.159-0.106,0.301-0.198,0.435
		c-0.09,0.13-0.197,0.243-0.323,0.345c-0.126,0.099-0.262,0.174-0.41,0.229c-0.148,0.055-0.297,0.084-0.448,0.084
		c-0.15,0-0.285-0.03-0.403-0.084c-0.119-0.055-0.212-0.13-0.281-0.229c-0.068-0.102-0.114-0.214-0.133-0.345
		C237.862-1.535,237.871-1.677,237.913-1.836z"/>
	<path fill="#1084C3" d="M179.284,58.148l-0.533,1.988h-8.65l-1.606,5.986h7.006l-0.513,1.909h-7.006l-1.651,6.162h8.651
		l-0.531,1.987h-11.103l4.832-18.033H179.284z M179.306,67.681h6.213l-0.512,1.912h-6.211L179.306,67.681z M189.68,74.12h7.797
		l-0.553,2.062h-10.237l4.832-18.033h2.439L189.68,74.12z M207.323,63.227c0.764,0,1.434,0.132,2.011,0.388
		c0.577,0.255,1.036,0.625,1.377,1.106c0.34,0.481,0.548,1.081,0.622,1.79c0.074,0.708-0.013,1.518-0.256,2.428
		c-0.095,0.353-0.196,0.584-0.303,0.703c-0.107,0.117-0.265,0.177-0.475,0.177h-8.477c-0.199,0.805-0.276,1.509-0.234,2.104
		c0.039,0.6,0.183,1.095,0.427,1.497c0.247,0.397,0.586,0.694,1.02,0.894c0.431,0.195,0.951,0.298,1.556,0.298
		c0.562,0,1.064-0.068,1.507-0.199c0.441-0.13,0.825-0.272,1.162-0.421c0.334-0.151,0.616-0.29,0.85-0.421
		c0.232-0.134,0.415-0.196,0.56-0.196c0.183,0,0.307,0.07,0.369,0.213l0.409,0.822c-0.366,0.333-0.773,0.62-1.226,0.869
		c-0.452,0.244-0.916,0.447-1.4,0.605c-0.48,0.156-0.97,0.278-1.462,0.357c-0.49,0.079-0.967,0.115-1.428,0.115
		c-0.88,0-1.648-0.147-2.31-0.446c-0.662-0.297-1.188-0.735-1.574-1.309c-0.386-0.573-0.619-1.287-0.694-2.134
		c-0.075-0.846,0.034-1.819,0.329-2.921c0.238-0.888,0.601-1.72,1.078-2.49c0.479-0.771,1.049-1.441,1.711-2.007
		c0.665-0.567,1.408-1.013,2.233-1.334C205.528,63.392,206.402,63.227,207.323,63.227z M206.929,64.888
		c-1.081,0-2.017,0.31-2.804,0.936c-0.786,0.62-1.403,1.484-1.85,2.588h6.93c0.14-0.521,0.194-0.994,0.166-1.423
		c-0.026-0.431-0.136-0.806-0.329-1.115c-0.193-0.313-0.462-0.558-0.815-0.729C207.876,64.972,207.442,64.888,206.929,64.888z
		 M221.346,76.181h-0.992c-0.219,0-0.386-0.032-0.501-0.1c-0.117-0.067-0.166-0.215-0.15-0.433l0.066-1.185
		c-0.416,0.302-0.815,0.574-1.197,0.813c-0.386,0.242-0.773,0.443-1.169,0.605c-0.396,0.163-0.805,0.291-1.225,0.374
		c-0.421,0.084-0.876,0.125-1.362,0.125c-0.495,0-0.937-0.069-1.331-0.208c-0.396-0.14-0.717-0.35-0.959-0.626
		c-0.246-0.276-0.404-0.628-0.478-1.055c-0.075-0.424-0.036-0.929,0.12-1.511c0.135-0.506,0.405-0.993,0.805-1.458
		c0.402-0.47,0.962-0.884,1.676-1.251c0.714-0.359,1.598-0.657,2.657-0.887c1.061-0.23,2.313-0.349,3.752-0.349l0.269-1.001
		c0.269-0.994,0.259-1.748-0.027-2.255c-0.286-0.513-0.847-0.769-1.677-0.769c-0.546,0-1.021,0.068-1.43,0.204
		c-0.412,0.14-0.775,0.296-1.093,0.466c-0.318,0.174-0.597,0.328-0.83,0.467s-0.449,0.209-0.642,0.209
		c-0.151,0-0.271-0.037-0.363-0.117c-0.091-0.079-0.157-0.177-0.194-0.294l-0.215-0.704c0.89-0.684,1.784-1.195,2.688-1.532
		c0.903-0.342,1.85-0.51,2.84-0.51c0.714,0,1.313,0.118,1.806,0.354c0.489,0.233,0.868,0.561,1.134,0.979
		c0.263,0.42,0.412,0.926,0.443,1.526c0.035,0.595-0.044,1.249-0.235,1.962L221.346,76.181z M215.908,74.798
		c0.394,0,0.764-0.038,1.113-0.116c0.347-0.081,0.687-0.188,1.016-0.337c0.327-0.141,0.651-0.317,0.971-0.528
		c0.319-0.205,0.638-0.44,0.961-0.704l0.707-2.64c-1.03,0-1.926,0.067-2.682,0.195c-0.755,0.131-1.388,0.299-1.897,0.513
		c-0.509,0.21-0.901,0.456-1.183,0.741c-0.283,0.285-0.473,0.604-0.567,0.961c-0.091,0.335-0.114,0.623-0.07,0.868
		c0.045,0.241,0.138,0.442,0.279,0.599c0.145,0.155,0.331,0.268,0.563,0.34C215.351,74.76,215.612,74.798,215.908,74.798z
		 M224.742,76.181l3.416-12.753h1.283c0.244,0,0.398,0.053,0.464,0.148c0.066,0.097,0.083,0.269,0.053,0.506l-0.415,2.113
		c0.689-0.941,1.426-1.675,2.207-2.2c0.784-0.527,1.604-0.793,2.468-0.793c0.353,0,0.659,0.044,0.925,0.123
		c0.262,0.083,0.495,0.196,0.698,0.343l-0.737,1.673c-0.115,0.21-0.272,0.315-0.474,0.315c-0.117,0-0.286-0.042-0.508-0.121
		c-0.221-0.08-0.552-0.118-0.987-0.118c-0.779,0-1.493,0.233-2.142,0.707c-0.652,0.475-1.276,1.161-1.87,2.063l-2.142,7.994H224.742
		z M234.878,76.181l3.417-12.753h1.334c0.318,0,0.478,0.156,0.478,0.466l-0.195,1.389c0.718-0.615,1.471-1.11,2.256-1.487
		c0.783-0.379,1.622-0.568,2.521-0.568c0.695,0,1.28,0.119,1.75,0.35c0.472,0.231,0.827,0.558,1.071,0.981
		c0.243,0.423,0.373,0.934,0.4,1.529c0.023,0.597-0.06,1.253-0.253,1.974l-2.176,8.12h-2.24l2.176-8.12
		c0.259-0.963,0.241-1.713-0.056-2.246c-0.298-0.532-0.901-0.801-1.807-0.801c-0.663,0-1.32,0.161-1.98,0.478
		c-0.659,0.32-1.309,0.756-1.939,1.301l-2.519,9.389H234.878z M254.769,63.428l-3.417,12.753h-2.24l3.419-12.753H254.769z
		 M256.343,59.431c-0.058,0.217-0.154,0.419-0.291,0.608c-0.14,0.188-0.301,0.356-0.487,0.503c-0.186,0.145-0.39,0.263-0.605,0.347
		c-0.215,0.084-0.433,0.127-0.649,0.127c-0.219,0-0.407-0.043-0.572-0.127c-0.167-0.084-0.306-0.202-0.412-0.347
		c-0.107-0.146-0.18-0.315-0.214-0.503c-0.033-0.189-0.021-0.392,0.039-0.608c0.058-0.22,0.155-0.428,0.293-0.624
		c0.135-0.197,0.3-0.369,0.485-0.518c0.187-0.146,0.385-0.26,0.595-0.343c0.211-0.084,0.423-0.125,0.642-0.125
		c0.218,0,0.412,0.041,0.582,0.125c0.172,0.083,0.313,0.197,0.421,0.343c0.106,0.148,0.178,0.32,0.214,0.518
		C256.418,59.003,256.401,59.211,256.343,59.431z M255.301,76.181l3.418-12.753h1.332c0.319,0,0.479,0.156,0.479,0.466l-0.194,1.389
		c0.717-0.615,1.47-1.11,2.256-1.487c0.782-0.379,1.622-0.568,2.519-0.568c0.694,0,1.28,0.119,1.75,0.35
		c0.471,0.231,0.827,0.558,1.071,0.981c0.242,0.423,0.374,0.934,0.399,1.529c0.023,0.597-0.059,1.253-0.253,1.974l-2.175,8.12
		h-2.239l2.177-8.12c0.257-0.963,0.241-1.713-0.057-2.246c-0.297-0.532-0.901-0.801-1.807-0.801c-0.663,0-1.321,0.161-1.979,0.478
		c-0.661,0.32-1.31,0.756-1.941,1.301l-2.517,9.389H255.301z M277.044,63.227c0.554,0,1.059,0.06,1.508,0.182
		c0.451,0.121,0.836,0.304,1.168,0.538h3.458l-0.223,0.831c-0.074,0.278-0.301,0.459-0.673,0.533l-1.498,0.203
		c0.14,0.543,0.117,1.151-0.061,1.824c-0.168,0.62-0.437,1.184-0.812,1.693c-0.374,0.504-0.822,0.942-1.343,1.302
		s-1.097,0.637-1.731,0.831c-0.634,0.192-1.3,0.289-1.997,0.289c-0.595,0-1.138-0.071-1.63-0.21
		c-0.313,0.173-0.564,0.357-0.756,0.558c-0.192,0.197-0.316,0.394-0.367,0.582c-0.083,0.313-0.024,0.549,0.175,0.709
		c0.2,0.16,0.493,0.276,0.877,0.344c0.383,0.07,0.831,0.104,1.344,0.104c0.511,0,1.035,0,1.566,0c0.532,0,1.041,0.047,1.526,0.14
		c0.485,0.098,0.902,0.247,1.247,0.46c0.347,0.211,0.59,0.504,0.734,0.878c0.143,0.371,0.134,0.858-0.025,1.455
		c-0.147,0.549-0.426,1.085-0.835,1.6c-0.413,0.521-0.929,0.978-1.549,1.385c-0.618,0.401-1.33,0.724-2.133,0.964
		c-0.803,0.241-1.67,0.364-2.601,0.364s-1.718-0.092-2.369-0.278c-0.65-0.183-1.166-0.431-1.545-0.741
		c-0.378-0.309-0.625-0.67-0.747-1.076c-0.121-0.407-0.123-0.833-0.005-1.279c0.169-0.628,0.512-1.162,1.028-1.602
		c0.518-0.442,1.156-0.791,1.922-1.051c-0.317-0.169-0.542-0.393-0.68-0.672c-0.14-0.281-0.146-0.654-0.021-1.123
		c0.047-0.18,0.131-0.374,0.251-0.569c0.12-0.194,0.277-0.392,0.467-0.583c0.188-0.188,0.406-0.374,0.654-0.549
		c0.249-0.178,0.525-0.332,0.828-0.466c-0.532-0.354-0.897-0.821-1.098-1.403c-0.199-0.587-0.197-1.271,0.014-2.052
		c0.165-0.623,0.438-1.184,0.813-1.696c0.375-0.509,0.823-0.943,1.346-1.301c0.524-0.355,1.109-0.631,1.751-0.825
		C275.668,63.326,276.34,63.227,277.044,63.227z M277.37,76.844c0.086-0.325,0.07-0.587-0.055-0.785
		c-0.122-0.195-0.32-0.347-0.594-0.456c-0.274-0.105-0.601-0.185-0.981-0.235c-0.378-0.054-0.788-0.079-1.224-0.079
		c-0.437,0-0.879,0-1.332,0s-0.869-0.055-1.251-0.168c-0.538,0.226-0.998,0.504-1.385,0.829c-0.383,0.327-0.64,0.717-0.761,1.17
		c-0.076,0.285-0.072,0.556,0.008,0.802c0.08,0.247,0.246,0.462,0.5,0.641c0.252,0.181,0.595,0.322,1.025,0.429
		c0.429,0.104,0.95,0.159,1.57,0.159c0.604,0,1.158-0.055,1.667-0.167c0.508-0.111,0.956-0.269,1.343-0.475s0.702-0.449,0.954-0.729
		C277.108,77.494,277.279,77.184,277.37,76.844z M275.238,69.969c0.453,0,0.874-0.063,1.254-0.188
		c0.382-0.127,0.718-0.303,1.012-0.528c0.297-0.232,0.545-0.499,0.747-0.815c0.203-0.317,0.354-0.66,0.457-1.042
		c0.208-0.781,0.141-1.401-0.21-1.867c-0.349-0.46-0.979-0.691-1.885-0.691c-0.898,0-1.643,0.231-2.239,0.691
		c-0.598,0.466-1.003,1.086-1.212,1.867c-0.103,0.382-0.132,0.725-0.096,1.042c0.037,0.316,0.142,0.583,0.315,0.815
		c0.174,0.226,0.416,0.401,0.724,0.528C274.418,69.907,274.794,69.969,275.238,69.969z M304.458,58.123l-0.554,2.063h-5.821
		L293.8,76.168h-2.44l4.282-15.983h-5.847l0.553-2.063H304.458z M307.703,63.227c0.764,0,1.434,0.132,2.012,0.388
		c0.576,0.255,1.034,0.625,1.376,1.106c0.34,0.481,0.547,1.081,0.621,1.79c0.075,0.708-0.013,1.518-0.255,2.428
		c-0.094,0.353-0.195,0.584-0.304,0.703c-0.107,0.117-0.265,0.177-0.474,0.177h-8.477c-0.199,0.805-0.277,1.509-0.235,2.104
		c0.04,0.6,0.186,1.095,0.428,1.497c0.246,0.397,0.585,0.694,1.02,0.894c0.433,0.195,0.951,0.298,1.556,0.298
		c0.561,0,1.063-0.068,1.507-0.199c0.44-0.13,0.827-0.272,1.159-0.421c0.336-0.151,0.619-0.29,0.852-0.421
		c0.233-0.134,0.418-0.196,0.561-0.196c0.185,0,0.307,0.07,0.37,0.213l0.408,0.822c-0.366,0.333-0.774,0.62-1.226,0.869
		c-0.453,0.244-0.916,0.447-1.4,0.605c-0.481,0.156-0.97,0.278-1.463,0.357c-0.488,0.079-0.966,0.115-1.427,0.115
		c-0.88,0-1.648-0.147-2.31-0.446c-0.664-0.297-1.187-0.735-1.574-1.309c-0.387-0.573-0.619-1.287-0.695-2.134
		c-0.074-0.846,0.035-1.819,0.331-2.921c0.238-0.888,0.598-1.72,1.078-2.49c0.479-0.771,1.048-1.441,1.712-2.007
		c0.663-0.567,1.405-1.013,2.23-1.334C305.907,63.392,306.782,63.227,307.703,63.227z M307.309,64.888
		c-1.081,0-2.017,0.31-2.804,0.936c-0.787,0.62-1.403,1.484-1.85,2.588h6.928c0.14-0.521,0.197-0.994,0.168-1.423
		c-0.027-0.431-0.137-0.806-0.33-1.115c-0.193-0.313-0.462-0.558-0.813-0.729C308.256,64.972,307.821,64.888,307.309,64.888z
		 M321.726,76.181h-0.993c-0.219,0-0.386-0.032-0.5-0.1c-0.118-0.067-0.167-0.215-0.15-0.433l0.065-1.185
		c-0.415,0.302-0.815,0.574-1.198,0.813c-0.383,0.242-0.771,0.443-1.168,0.605c-0.396,0.163-0.803,0.291-1.224,0.374
		c-0.42,0.084-0.876,0.125-1.363,0.125c-0.494,0-0.936-0.069-1.33-0.208c-0.396-0.14-0.718-0.35-0.96-0.626
		c-0.245-0.276-0.403-0.628-0.477-1.055c-0.076-0.424-0.036-0.929,0.119-1.511c0.137-0.506,0.405-0.993,0.806-1.458
		c0.402-0.47,0.962-0.884,1.676-1.251c0.714-0.359,1.599-0.657,2.656-0.887c1.061-0.23,2.313-0.349,3.754-0.349l0.269-1.001
		c0.267-0.994,0.259-1.748-0.027-2.255c-0.288-0.513-0.848-0.769-1.678-0.769c-0.545,0-1.021,0.068-1.43,0.204
		c-0.41,0.14-0.775,0.296-1.094,0.466c-0.317,0.174-0.595,0.328-0.83,0.467c-0.231,0.139-0.448,0.209-0.642,0.209
		c-0.152,0-0.271-0.037-0.363-0.117c-0.091-0.079-0.156-0.177-0.194-0.294l-0.213-0.704c0.888-0.684,1.784-1.195,2.688-1.532
		c0.903-0.342,1.85-0.51,2.839-0.51c0.713,0,1.313,0.118,1.806,0.354c0.489,0.233,0.869,0.561,1.135,0.979
		c0.263,0.42,0.412,0.926,0.444,1.526c0.035,0.595-0.044,1.249-0.236,1.962L321.726,76.181z M316.287,74.798
		c0.394,0,0.765-0.038,1.113-0.116c0.349-0.081,0.688-0.188,1.017-0.337c0.327-0.141,0.65-0.317,0.97-0.528
		c0.32-0.205,0.638-0.44,0.961-0.704l0.707-2.64c-1.032,0-1.924,0.067-2.681,0.195c-0.756,0.131-1.388,0.299-1.897,0.513
		c-0.508,0.21-0.902,0.456-1.184,0.741c-0.282,0.285-0.473,0.604-0.566,0.961c-0.091,0.335-0.113,0.623-0.071,0.868
		c0.046,0.241,0.139,0.442,0.279,0.599c0.146,0.155,0.333,0.268,0.563,0.34C315.729,74.76,315.992,74.798,316.287,74.798z
		 M325.122,76.181l3.417-12.753h1.333c0.318,0,0.478,0.156,0.478,0.466l-0.187,1.313c0.624-0.583,1.28-1.055,1.961-1.425
		c0.683-0.369,1.405-0.556,2.178-0.556c0.863,0,1.499,0.241,1.903,0.72c0.405,0.477,0.613,1.122,0.629,1.938
		c0.3-0.46,0.643-0.861,1.021-1.197c0.381-0.335,0.776-0.613,1.197-0.831c0.416-0.217,0.848-0.376,1.279-0.478
		c0.433-0.1,0.857-0.152,1.278-0.152c0.669,0,1.241,0.112,1.708,0.325c0.467,0.212,0.827,0.522,1.081,0.935
		c0.254,0.41,0.395,0.917,0.429,1.517c0.032,0.599-0.056,1.288-0.264,2.058l-2.174,8.12h-2.24l2.176-8.12
		c0.268-0.997,0.253-1.757-0.046-2.271c-0.297-0.515-0.86-0.775-1.691-0.775c-0.366,0-0.733,0.068-1.1,0.198
		c-0.366,0.129-0.709,0.316-1.029,0.57c-0.318,0.25-0.6,0.568-0.849,0.95c-0.249,0.381-0.445,0.826-0.58,1.328l-2.175,8.12h-2.237
		l2.176-8.12c0.271-1.022,0.273-1.789-0.005-2.292c-0.273-0.505-0.808-0.755-1.595-0.755c-0.555,0-1.104,0.152-1.658,0.448
		c-0.553,0.299-1.098,0.707-1.63,1.216l-2.546,9.503H325.122z"/>
</g>
</svg>
