<?xml version="1.0" encoding="utf-8"?>
<!-- Generator: Adobe Illustrator 21.0.0, SVG Export Plug-In . SVG Version: 6.00 Build 0)  -->
<svg version="1.1" id="Isolation_Mode" xmlns="http://www.w3.org/2000/svg" xmlns:xlink="http://www.w3.org/1999/xlink" x="0px"
	 y="0px" viewBox="0 0 182 66" style="enable-background:new 0 0 182 66;" xml:space="preserve">
<style type="text/css">
	.st0{fill:#854FA8;}
</style>
<g>
	<path class="st0" d="M70.3,24.2l-0.1,1.6c-0.2-0.1-0.6-0.4-1.3-0.8c-1.3,1.5-2.4,2.3-3.2,2.3c-0.2,0-0.5-0.1-0.9-0.2
		c1.1-0.6,2.2-1.4,3.4-2.5c-0.7-0.5-1-0.9-1-1.4c0-0.5,0.2-1.1,0.6-1.7c0.4-0.6,0.8-0.9,1.3-0.9c0.7,0,1.1,0.5,1.1,1.4
		c0,0.5-0.2,1.2-0.5,1.9C69.8,23.8,70,24,70.3,24.2z M69.5,22.8c0-0.7-0.3-1-0.9-1c-0.2,0-0.3,0.1-0.3,0.3c0,0.3,0.4,0.7,1.1,1.2
		C69.4,23.1,69.5,23,69.5,22.8z"/>
	<path class="st0" d="M73.8,47.6h-2.5c-1,0-1.8-1.3-2.2-3.9c-1,1.1-1.9,1.6-2.7,1.6c-0.5,0-1.1-0.1-1.6-0.2
		c-0.8-0.2-1.2-0.5-1.2-0.9c0-0.2,0.3-0.9,0.8-2c0.5-1.1,1.8-2.2,3.9-3.3c0-0.4-0.1-1-0.2-1.9l0.9-0.9l1.1,6.6
		c0.2,1.5,0.5,2.3,0.9,2.5c0.2,0.1,1.2,0.2,2.8,0.2V47.6z M69.9,33.6l-1.2,1.8l-1.9-1.2l-1.1,1.6l-1.9-1.3l1.2-1.9l1.9,1.3l1.1-1.6
		L69.9,33.6z M69,42.6l-0.4-2.5c-1.4,0.5-2.4,1.4-3.2,2.7c0.2,0.2,0.7,0.3,1.6,0.3S68.5,43,69,42.6z"/>
	<path class="st0" d="M78.6,23.7c0,0.7-0.2,1.2-0.5,1.4l-4.9,2.8c0-0.7,0.4-1.2,1.1-1.6L78.6,23.7z"/>
	<path class="st0" d="M77.3,42.9c0,3.2-1.2,4.8-3.5,4.8h-1.2v-2.1c2.6,0,3.9-0.4,3.9-1.3c0-0.2-0.2-0.7-0.6-1.4
		c-0.4-0.7-0.6-1.2-0.6-1.3c0-0.1,0.4-0.8,1.2-2C77,40.6,77.3,41.7,77.3,42.9z M77.4,34.3l-1.2,1.9l-1.8-1.3l1.2-1.9L77.4,34.3z"/>
	<path class="st0" d="M88,47.6h-2.5c-2,0-3.1-1.1-3.3-3.4c-0.3-2.9-0.7-7-1.2-12.6c0.4-0.6,0.9-1.1,1.2-1.5l1.1,12.9
		c0.1,1,0.4,1.7,0.9,2c0.4,0.3,1,0.4,1.8,0.4c0.2,0,0.5,0,0.9,0c0.4,0,0.8,0,1,0V47.6z"/>
	<path class="st0" d="M96.6,44.2c0,0.4-0.2,0.9-0.5,1.5c-0.4,0.6-0.7,0.9-1.1,0.9c-0.6,0-1.8-0.5-3.7-1.6c-1.1,1.7-2.2,2.6-3.2,2.6
		h-1.3v-2.1H88c0.4,0,0.9-0.2,1.7-0.6c0.4-0.2,0.7-0.4,0.8-0.5c0.2-0.1,0.3-0.4,0.5-0.7c0.4-0.7,0.9-1.5,1.3-2.3
		c0.7-1,1.3-1.4,2-1.4c0.6,0,1.1,0.6,1.6,1.7C96.4,42.6,96.6,43.5,96.6,44.2z M94.7,43.8c0-1.1-0.4-1.7-1.2-1.7
		c-0.3,0-0.5,0.1-0.7,0.3c-0.2,0.2-0.3,0.4-0.4,0.7C92.9,43.3,93.7,43.5,94.7,43.8z"/>
	<path class="st0" d="M103,16c0,0.7-0.2,1.2-0.5,1.4l-4.9,2.8c0-0.7,0.4-1.2,1.1-1.6L103,16z"/>
	<path class="st0" d="M102.9,27.8c-0.1,0.6-0.3,1-0.5,1L98,30.1c0.1-0.4,0.3-0.7,0.5-0.9c0.1-0.1,0.5-0.2,1.1-0.4
		c-0.6-0.3-1-0.7-1.1-1.2c0-0.2,0.1-0.4,0.3-0.7c0.4-0.5,0.8-1,1.3-1.3c0.5-0.4,0.9-0.5,1.3-0.5c0.6,0,0.8,0.3,0.8,0.9
		c0,0.3-0.2,0.7-0.5,1.1c-0.5-0.3-0.9-0.5-1.3-0.5c-0.3,0-0.7,0.2-1.1,0.5c0.9,0.8,1.6,1.2,2.2,1.2C102,28.1,102.4,28,102.9,27.8z"
		/>
	<path class="st0" d="M110.5,32.3c-0.2-0.2-0.4-0.5-0.6-0.8c0.3-0.9,0.8-1.6,1.4-2c0.1,0.6,0.3,1.1,0.8,1.6s1,0.7,1.6,0.7l-1.2,2.1
		l-0.8-0.4c-0.1,0.5-0.1,1-0.1,1.7c0,3.7-0.6,6.9-1.7,9.6c0.6,1,0.8,2.1,0.8,3.1c0,1.5-1,2.3-3.1,2.3h-3.6v-2.1c2.1,0,3.7-1,4.6-3
		c-2.4-4.4-5-7.8-7.6-10.3l-0.7,0.6c-0.7-0.7-1.1-1.1-1.2-1.2c-0.4-0.4-0.5-1-0.5-1.5c0-0.5,0.3-1.3,0.8-2.4
		c3.5,2.9,6.9,7.4,10.1,13.4c0.9-2,1.3-4.2,1.3-6.8c0-0.5,0-1.2-0.1-2.2C110.5,33.5,110.5,32.8,110.5,32.3z M109.7,47.4
		c0-0.4-0.2-0.9-0.5-1.5c-0.4,0.9-1,1.6-1.6,2.1h0.4C109.1,47.9,109.7,47.7,109.7,47.4z"/>
	<path class="st0" d="M118.4,43.2c0,1.1-0.3,2.5-0.9,4.4l-0.4-0.1c0.1-0.6,0.2-1.3,0.2-1.9c0-1.3-0.1-3-0.4-5
		c-0.2-1.6-0.4-3.3-0.6-4.9c-0.1-1-0.2-1.6-0.2-1.8c0-0.9,0.1-1.6,0.3-2c0.3-0.6,0.6-1.2,0.9-1.7c0,1.7,0.3,5.1,1,10.3
		C118.3,41.5,118.4,42.4,118.4,43.2z"/>
</g>
</svg>
