<?xml version="1.0" encoding="utf-8"?>
<!-- Generator: Adobe Illustrator 16.0.0, SVG Export Plug-In . SVG Version: 6.00 Build 0)  -->
<!DOCTYPE svg PUBLIC "-//W3C//DTD SVG 1.1//EN" "http://www.w3.org/Graphics/SVG/1.1/DTD/svg11.dtd">
<svg version="1.1" id="Layer_1" xmlns="http://www.w3.org/2000/svg" xmlns:xlink="http://www.w3.org/1999/xlink" x="0px" y="0px"
	 width="48px" height="48px" viewBox="0 0 48 48" enable-background="new 0 0 48 48" xml:space="preserve">
<g>
	<path fill="#A122DD" d="M1,42.75c0,1.657,1.343,3,3,3h39.834c1.657,0,3-1.343,3-3V5.303c0-1.657-1.343-3-3-3H4
		c-1.657,0-3,1.343-3,3V42.75z"/>
</g>
<g id="Drums">
	<path fill="#FFFFFF" d="M30.52,19.845l-0.222,0.113c-0.073,0.043-0.151,0.08-0.233,0.11c-0.859,0.393-1.131,0.862-1.137,0.862
		c-0.022,0.078-0.012,0.033-0.047,0.107c-0.479,0.959-1.266,1.714-2.22,2.125c-0.553,0.239-1.138,0.359-1.736,0.359
		c-1.516,0-2.896-0.778-3.705-2.026c-0.163,0.255-0.344,0.497-0.558,0.712c-0.838,0.848-1.953,1.314-3.138,1.314
		c-1.186,0-2.3-0.467-3.138-1.314c-0.532-0.54-0.893-1.198-1.1-1.909c-1.96,0.66-3.159,1.524-3.159,2.475
		c0,2.067,5.63,3.743,12.574,3.743s12.574-1.676,12.574-3.743C35.277,21.586,33.415,20.531,30.52,19.845z M22.703,28.012
		c-1.517,0-3.338-0.098-5.16-0.331l5.16,9.283l5.16-9.283C26.042,27.914,24.22,28.012,22.703,28.012z M23.559,38.478
		c4.259-0.084,7.93-0.8,9.979-1.836l-4.217-8.53L23.559,38.478z M34.771,35.793c0.324-0.331,0.506-0.682,0.506-1.044v-9.401
		c-1.146,0.857-2.861,1.451-4.744,1.867L34.771,35.793z M11.87,36.642c2.048,1.036,5.719,1.752,9.979,1.836l-5.763-10.366
		L11.87,36.642z M10.129,25.348v9.401c0,0.362,0.182,0.713,0.506,1.044l4.238-8.578C12.991,26.799,11.274,26.205,10.129,25.348z
		 M19.617,21.148c0.517-0.523,0.789-1.192,0.844-1.875c0,0,0.006-1.101,1.237-2.346l5.744-5.819c0.58-0.584,0.578-1.532,0-2.117
		c-0.576-0.585-1.514-0.585-2.092,0l-5.896,5.972c-1.128,1.142-2.14,1.084-2.14,1.084l-0.004,0.011
		c-0.683,0.051-1.354,0.327-1.876,0.856c-1.156,1.169-1.156,3.065,0,4.234C16.588,22.317,18.462,22.317,19.617,21.148z
		 M37.077,13.253c-0.32-0.759-1.188-1.115-1.941-0.79l-6.923,3.521c-1.468,0.633-2.385,0.197-2.385,0.197l-0.009,0.009
		c-0.651-0.212-1.375-0.209-2.056,0.086c-1.504,0.647-2.203,2.407-1.562,3.928c0.638,1.521,2.377,2.229,3.88,1.581
		c0.672-0.29,1.172-0.808,1.477-1.421c0,0,0.41-1.021,2.011-1.71l6.727-3.436C37.049,14.894,37.398,14.014,37.077,13.253z"/>
</g>
</svg>
