<?xml version="1.0" encoding="utf-8"?>
<!-- Generator: Adobe Illustrator 16.0.0, SVG Export Plug-In . SVG Version: 6.00 Build 0)  -->
<!DOCTYPE svg PUBLIC "-//W3C//DTD SVG 1.1//EN" "http://www.w3.org/Graphics/SVG/1.1/DTD/svg11.dtd">
<svg version="1.1" id="Layer_1" xmlns="http://www.w3.org/2000/svg" xmlns:xlink="http://www.w3.org/1999/xlink" x="0px" y="0px"
	 width="48px" height="48px" viewBox="0 0 48 48" enable-background="new 0 0 48 48" xml:space="preserve">
<g>
	<path fill="#705CBF" d="M1,42.75c0,1.657,1.343,3,3,3h39.834c1.657,0,3-1.343,3-3V5.303c0-1.657-1.343-3-3-3H4
		c-1.657,0-3,1.343-3,3V42.75z"/>
</g>
<g>
	<g>
		<polygon fill="#FFFFFF" points="6.422,30.992 8.024,30.992 8.024,14.115 8.024,12.921 9.218,12.921 36.299,12.921 36.299,11.109 
			6.422,11.109 		"/>
		<polygon fill="#FFFFFF" points="10.93,31.588 10.93,31.289 10.93,30.992 10.93,15.671 36.299,15.671 36.598,15.671 36.896,15.671 
			39.096,15.671 39.096,14.115 36.896,14.115 36.598,14.115 36.299,14.115 9.218,14.115 9.218,30.992 9.218,31.289 9.218,31.588 
			9.218,33.996 10.93,33.996 		"/>
		<path fill="#FFFFFF" d="M39.691,17.047h-0.596h-2.199h-0.299h-0.297H12.25v13.945v0.297v0.299v2.408v0.598v0.596v1.408v0.434
			h29.133v-0.434V17.047h-1.096H39.691z M14.04,35.189v-0.596v-0.598v-2.408v-0.299v-0.068h10.987v-0.229v-1.562H14.04V18.837
			h22.259h0.299h0.299h2.199h0.496v10.595h-0.496h-2.199h-0.299h-0.299h-0.533v1.561v0.229h0.832h0.299h2.199h0.496v3.373v0.596
			v0.053H14.04V35.189z"/>
		<path fill="#FFFFFF" d="M19.898,21.034c0.249,0,0.489,0.03,0.722,0.082c0.027-0.113,0.044-0.233,0.044-0.36
			c0,0-0.339-1.11-0.756-1.11h-0.02c-0.417,0-0.756,1.11-0.756,1.11c0,0.127,0.018,0.247,0.044,0.36
			C19.409,21.063,19.65,21.034,19.898,21.034z"/>
		<path fill="#FFFFFF" d="M23.465,23.556c-0.127,0-0.247,0.017-0.36,0.044c0.053,0.232,0.083,0.474,0.083,0.722
			s-0.03,0.489-0.083,0.721c0.113,0.027,0.233,0.045,0.36,0.045c0,0,1.109-0.339,1.109-0.756v-0.021
			C24.574,23.894,23.465,23.556,23.465,23.556z"/>
		<path fill="#FFFFFF" d="M19.898,27.61c-0.248,0-0.489-0.03-0.722-0.082c-0.027,0.113-0.044,0.233-0.044,0.36
			c0,0,0.339,1.11,0.756,1.11h0.02c0.417,0,0.757-1.11,0.757-1.11c0-0.127-0.018-0.247-0.044-0.36
			C20.388,27.58,20.146,27.61,19.898,27.61z"/>
		<path fill="#FFFFFF" d="M17.205,26.203c-0.096,0.066-0.191,0.143-0.276,0.236c0,0-0.498,1.049-0.189,1.33l0.014,0.014
			c0.309,0.281,1.307-0.311,1.307-0.311c0.086-0.094,0.154-0.195,0.211-0.298C17.848,26.934,17.484,26.602,17.205,26.203z"/>
		<path fill="#FFFFFF" d="M17.205,22.441c0.279-0.397,0.643-0.731,1.066-0.973c-0.057-0.103-0.125-0.203-0.21-0.297
			c0,0-0.999-0.592-1.307-0.31l-0.015,0.013c-0.309,0.281,0.19,1.33,0.19,1.33C17.014,22.298,17.109,22.375,17.205,22.441z"/>
		<path fill="#FFFFFF" d="M22.591,22.441c0.097-0.066,0.191-0.143,0.276-0.237c0,0,0.498-1.048,0.19-1.33l-0.015-0.013
			c-0.309-0.282-1.307,0.31-1.307,0.31c-0.085,0.094-0.154,0.194-0.21,0.297C21.948,21.71,22.313,22.043,22.591,22.441z"/>
		<path fill="#FFFFFF" d="M22.591,26.203c-0.278,0.398-0.643,0.73-1.066,0.973c0.057,0.102,0.125,0.203,0.21,0.298
			c0,0,0.999,0.591,1.307,0.31l0.014-0.013c0.309-0.282-0.189-1.33-0.189-1.33C22.782,26.346,22.688,26.269,22.591,26.203z"/>
		<path fill="#FFFFFF" d="M16.61,24.322c0-0.248,0.03-0.49,0.083-0.722c-0.113-0.027-0.233-0.044-0.36-0.044
			c0,0-1.11,0.339-1.11,0.756v0.02c0,0.418,1.11,0.756,1.11,0.756c0.127,0,0.247-0.017,0.36-0.043
			C16.64,24.812,16.61,24.57,16.61,24.322z"/>
		<path fill="#FFFFFF" d="M22,25.985c0.278-0.351,0.471-0.768,0.546-1.228c0.023-0.144,0.043-0.287,0.043-0.436
			c0-0.149-0.021-0.293-0.043-0.435c-0.075-0.461-0.269-0.877-0.546-1.229c-0.181-0.229-0.392-0.432-0.638-0.592
			c-0.306-0.199-0.654-0.333-1.029-0.394c-0.143-0.023-0.286-0.044-0.435-0.044s-0.292,0.021-0.435,0.044
			c-0.375,0.061-0.724,0.194-1.029,0.394c-0.246,0.16-0.457,0.363-0.638,0.592c-0.278,0.351-0.471,0.768-0.546,1.229
			c-0.023,0.142-0.043,0.286-0.043,0.435c0,0.148,0.02,0.292,0.043,0.436c0.076,0.46,0.269,0.877,0.546,1.228
			c0.181,0.229,0.393,0.432,0.638,0.591c0.306,0.199,0.654,0.333,1.029,0.395c0.142,0.023,0.285,0.043,0.435,0.043
			s0.292-0.02,0.435-0.043c0.375-0.062,0.724-0.195,1.029-0.395C21.608,26.417,21.819,26.214,22,25.985z"/>
		<path fill="#FFFFFF" d="M33.08,23.1c0.096-0.004,0.189-0.018,0.285-0.018c0.053,0,0.104,0.007,0.154,0.009
			c0.104,0.004,0.209,0.007,0.311,0.019c0.107,0.013,0.211,0.034,0.314,0.055c-0.023-0.447-0.391-0.803-0.842-0.803
			c-0.445,0-0.806,0.345-0.84,0.781c0.101-0.014,0.207-0.014,0.311-0.023C32.875,23.112,32.977,23.104,33.08,23.1z"/>
		<path fill="#FFFFFF" d="M32.231,30.992c-0.192-1.302-1.307-2.306-2.659-2.306c-1.354,0-2.467,1.004-2.66,2.306
			c-0.014,0.098-0.026,0.195-0.03,0.297c-0.001,0.033-0.009,0.063-0.009,0.096c0,0.07,0.016,0.135,0.02,0.201
			c0.088,1.172,0.918,2.133,2.027,2.41c0.211,0.053,0.426,0.088,0.652,0.088c0.225,0,0.441-0.035,0.651-0.088
			c1.108-0.277,1.938-1.238,2.027-2.41c0.005-0.066,0.02-0.133,0.02-0.201c0-0.033-0.008-0.063-0.009-0.096
			C32.258,31.188,32.246,31.09,32.231,30.992z M31.768,31.588c-0.013,0.254-0.053,0.428-0.053,0.428
			c-0.058,0.078-0.129,0.141-0.209,0.195c-0.608,0.408-1.781,0.223-1.781,0.223c0.179-0.338-0.154-0.625-0.154-0.625
			c0.141-0.057,0.277-0.135,0.411-0.221c0.138-0.09,0.271-0.191,0.397-0.299c0.117-0.098,0.226-0.197,0.328-0.297
			c0.31-0.308,0.545-0.6,0.64-0.723c0.03-0.039,0.049-0.064,0.049-0.064c0.185,0.254,0.277,0.528,0.327,0.787
			c0.02,0.104,0.033,0.203,0.04,0.297C31.769,31.396,31.771,31.498,31.768,31.588z M27.391,30.992
			c0.042-0.225,0.26-1.135,1.02-1.438c0,0,0,0.031,0,0.08c0.002,0.206,0.02,0.805,0.176,1.357c0.029,0.102,0.064,0.201,0.104,0.297
			c0.045,0.107,0.097,0.207,0.155,0.299c0.013,0.02,0.021,0.043,0.035,0.063c0,0-0.451,0.014-0.479,0.479
			c0,0-0.339-0.145-0.672-0.541c-0.072-0.088-0.145-0.186-0.214-0.299c-0.011-0.02-0.021-0.041-0.034-0.063
			c-0.033-0.061-0.07-0.117-0.102-0.186C27.383,31.041,27.385,31.023,27.391,30.992z M29.717,33.641c0,0-0.688,0.061-1.352-0.344
			l0.076-0.143l0.254-0.48c0,0,0.306,0.266,0.611,0.119l0.334,0.689L29.717,33.641z M29.455,32.457
			c-0.102,0.189-0.357,0.248-0.573,0.133s-0.31-0.361-0.209-0.551s0.357-0.248,0.573-0.133
			C29.463,32.021,29.557,32.268,29.455,32.457z"/>
		<path fill="#FFFFFF" d="M33.453,27.312c-0.078-0.001-0.156-0.009-0.236-0.009c-0.021,0-0.041,0.002-0.064,0.002
			c-0.102,0-0.197,0.004-0.297,0.008c-0.1,0.001-0.201,0.003-0.299,0.006v3.674v0.297v0.299v1.986c0,0.16,0.062,0.301,0.148,0.424
			c0.135,0.189,0.348,0.324,0.598,0.324c0.252,0,0.463-0.135,0.6-0.324c0.086-0.123,0.148-0.264,0.148-0.424v-1.986v-0.299v-0.297
			v-3.66c-0.1-0.006-0.199-0.008-0.299-0.011S33.555,27.313,33.453,27.312z"/>
		<path fill="#FFFFFF" d="M27.992,27.412c0.029,0,0.063-0.006,0.104-0.017c0.714-0.202,2.43-0.611,4.566-0.677
			c0.131-0.004,0.264-0.008,0.4-0.01c0.053,0,0.102-0.003,0.156-0.003c0.109,0,0.225,0.009,0.338,0.011
			c0.131,0.002,0.264,0.008,0.396,0.014c0.756,0.031,1.543,0.115,2.348,0.267c0.1,0.019,0.197,0.031,0.297,0.054
			c0.1,0.02,0.201,0.047,0.299,0.07c0.334,0.078,0.666,0.16,1.002,0.265c0.041,0.013,0.076,0.019,0.107,0.019
			c0.115,0,0.148-0.088,0.063-0.229c-0.217-0.362-0.621-0.974-1.172-1.587c-0.094-0.105-0.193-0.211-0.299-0.314
			c-0.096-0.097-0.195-0.191-0.297-0.285c-0.617-0.559-1.357-1.037-2.195-1.223c-0.098-0.022-0.193-0.044-0.293-0.058
			c-0.109-0.015-0.221-0.019-0.334-0.023c-0.037-0.001-0.072-0.007-0.111-0.007c-0.08,0-0.156,0.006-0.234,0.009
			c-0.113,0.004-0.227,0.01-0.338,0.02c-0.102,0.01-0.2,0.023-0.299,0.038c-2.219,0.335-3.625,1.919-4.566,3.436
			C27.84,27.322,27.871,27.412,27.992,27.412z"/>
	</g>
</g>
</svg>
