<?xml version="1.0" encoding="utf-8"?>
<!-- Generator: Adobe Illustrator 16.0.0, SVG Export Plug-In . SVG Version: 6.00 Build 0)  -->
<!DOCTYPE svg PUBLIC "-//W3C//DTD SVG 1.1//EN" "http://www.w3.org/Graphics/SVG/1.1/DTD/svg11.dtd">
<svg version="1.1" id="Layer_1" xmlns="http://www.w3.org/2000/svg" xmlns:xlink="http://www.w3.org/1999/xlink" x="0px" y="0px"
	 width="48px" height="48px" viewBox="0 0 48 48" enable-background="new 0 0 48 48" xml:space="preserve">
<g>
	<path fill="#432D8F" d="M1,42.75c0,1.657,1.343,3,3,3h39.834c1.657,0,3-1.343,3-3V5.303c0-1.657-1.343-3-3-3H4
		c-1.657,0-3,1.343-3,3V42.75z"/>
</g>
<g>
	<g>
		<path fill="none" d="M16.534,22.357l-0.375-1.712l-0.556,1.835c-2.397,0.291-3.445,1.095-3.849,1.537
			c-0.206,0.675-0.317,1.391-0.317,2.134c0,4.043,3.29,7.332,7.333,7.332c4.044,0,7.333-3.289,7.333-7.332
			c0-0.68-0.095-1.336-0.267-1.96C22.202,21.113,16.534,22.357,16.534,22.357z M16.159,24.315c0.54,0,0.979,0.438,0.979,0.979
			s-0.438,0.979-0.979,0.979c-0.541,0-0.979-0.438-0.979-0.979S15.618,24.315,16.159,24.315z M18.77,33.516
			c-2.092,0-3.83-2.516-4.169-3.516h8.338C22.601,31,20.864,33.516,18.77,33.516z M21.459,24.315c0.541,0,0.979,0.438,0.979,0.979
			S22,26.273,21.459,26.273s-0.979-0.438-0.979-0.979S20.918,24.315,21.459,24.315z"/>
		<path fill="#FFFFFF" d="M18.77,17.695c-0.511,0-1.012,0.049-1.499,0.136c-0.025-1.102-0.474-3.303-3.508-4.125
			c-4.107-1.113-6.64,2.313-6.441,6.004c0.133,2.461-2.012,2.86-2.996,1.898c0,0,0.132,1.309,1.813,2.208
			c1.433,0.764,4.395,0.942,5.279-3.875c0.411-2.239,2.663-3.386,3.742-1.436c-2.861,1.356-4.845,4.272-4.845,7.645
			c0,4.662,3.792,8.454,8.454,8.454c4.663,0,8.455-3.792,8.455-8.454C27.225,21.489,23.433,17.695,18.77,17.695z M26.104,26.151
			c0,4.043-3.289,7.332-7.333,7.332c-4.043,0-7.333-3.289-7.333-7.332c0-0.743,0.112-1.459,0.317-2.134
			c0.404-0.442,1.452-1.247,3.849-1.537l0.556-1.835l0.375,1.712c0,0,5.667-1.244,9.303,1.834c0.228,0.193,0.449,0.404,0.66,0.633
			c-0.211-0.229-0.433-0.439-0.66-0.633C26.009,24.815,26.104,25.472,26.104,26.151z"/>
		<path fill="#FFFFFF" d="M18.77,33.516c2.094,0,3.831-2.516,4.169-3.516h-8.338C14.94,31,16.678,33.516,18.77,33.516z"/>
		<circle fill="#FFFFFF" cx="16.159" cy="25.294" r="0.979"/>
		<circle fill="#FFFFFF" cx="21.459" cy="25.294" r="0.979"/>
	</g>
	<g>
		<path fill="none" d="M37.357,19.728c-2.484,3.188-7.953,4.373-9.813,4.694c-0.134,0.555-0.208,1.132-0.208,1.729
			c0,4.043,3.29,7.332,7.335,7.332c4.042,0,7.332-3.289,7.332-7.332c0-0.334-0.025-0.661-0.068-0.982
			C38.88,23.606,37.357,19.728,37.357,19.728z M37.319,24.315c0.541,0,0.979,0.438,0.979,0.979s-0.438,0.979-0.979,0.979
			c-0.539,0-0.979-0.438-0.979-0.979S36.78,24.315,37.319,24.315z M32.02,24.315c0.539,0,0.979,0.438,0.979,0.979
			s-0.44,0.979-0.979,0.979c-0.542,0-0.979-0.438-0.979-0.979S31.478,24.315,32.02,24.315z M34.67,33.516
			c-2.093,0-3.831-2.516-4.17-3.516h8.338C38.499,31,36.762,33.516,34.67,33.516z"/>
		<path fill="#FFFFFF" d="M38.496,18.615c0.312-0.648,1.169-0.96,1.169-0.96c-0.696-0.199-1.196-0.025-1.528,0.204
			c0.099-0.771-0.045-1.859-1.315-2.616c0,0,1.089,1.353,0.191,2.786c-0.744-0.215-1.53-0.333-2.342-0.333
			c-4.665,0-8.457,3.793-8.457,8.456c0,4.662,3.792,8.454,8.457,8.454c4.661,0,8.453-3.792,8.453-8.454
			C43.124,22.865,41.24,20.014,38.496,18.615z M34.671,33.483c-4.045,0-7.335-3.289-7.335-7.332c0-0.598,0.074-1.175,0.208-1.729
			c1.86-0.321,7.329-1.506,9.813-4.694c0,0,1.522,3.878,4.577,5.441c0.193,0.1,0.393,0.188,0.597,0.267
			c-0.204-0.078-0.403-0.167-0.597-0.267c0.043,0.321,0.068,0.648,0.068,0.982C42.003,30.194,38.713,33.483,34.671,33.483z"/>
		<path fill="#FFFFFF" d="M34.67,33.516c2.092,0,3.829-2.516,4.168-3.516H30.5C30.839,31,32.577,33.516,34.67,33.516z"/>
		<circle fill="#FFFFFF" cx="32.02" cy="25.294" r="0.979"/>
		<circle fill="#FFFFFF" cx="37.319" cy="25.294" r="0.979"/>
	</g>
</g>
</svg>
