<?xml version="1.0" encoding="utf-8"?>
<!-- Generator: Adobe Illustrator 16.0.0, SVG Export Plug-In . SVG Version: 6.00 Build 0)  -->
<!DOCTYPE svg PUBLIC "-//W3C//DTD SVG 1.1//EN" "http://www.w3.org/Graphics/SVG/1.1/DTD/svg11.dtd">
<svg version="1.1" id="Layer_1" xmlns="http://www.w3.org/2000/svg" xmlns:xlink="http://www.w3.org/1999/xlink" x="0px" y="0px"
	 width="48px" height="48px" viewBox="0 0 48 48" enable-background="new 0 0 48 48" xml:space="preserve">
<g>
	<path fill="#BC2828" d="M1,42.75c0,1.657,1.343,3,3,3h39.834c1.657,0,3-1.343,3-3V5.303c0-1.657-1.343-3-3-3H4
		c-1.657,0-3,1.343-3,3V42.75z"/>
</g>
<path fill-rule="evenodd" clip-rule="evenodd" fill="#FFFFFF" d="M9.339,19.632c2.554-1.216,5.1-2.451,7.67-3.63
	c0.477-0.218,0.772-0.495,0.872-0.971c0.333-1.611,0.643-3.226,0.969-4.838c0.12-0.589,0.245-1.178,0.396-1.759
	c0.119-0.458,0.39-0.68,0.896-0.499c1.246,0.448,2.508,0.849,3.738,1.336c0.826,0.326,1.579,0.309,2.373-0.078
	c0.865-0.42,1.747-0.817,2.647-1.149c0.899-0.331,1.222-0.2,1.513,0.713c0.382,1.201,0.665,2.435,0.953,3.664
	c0.236,0.996,0.389,2.011,0.639,3.003c0.074,0.293,0.294,0.638,0.546,0.783c1.904,1.082,3.831,2.12,5.752,3.172
	c0.186,0.102,0.369,0.205,0.604,0.336C29.017,20.413,19.202,20.271,9.339,19.632z"/>
<path fill-rule="evenodd" clip-rule="evenodd" fill="#FFFFFF" d="M20.616,20.235c3.07,0.14,6.142,0.272,9.211,0.426
	c1.054,0.054,1.447,0.386,1.613,1.423c0.231,1.461-0.189,2.848-1.628,3.275c-0.504,0.15-1.117,0.076-1.649-0.041
	c-1.055-0.228-2.002-0.743-2.78-1.484c-0.279-0.266-0.35-0.744-0.553-1.104c-0.125-0.224-0.322-0.407-0.486-0.608
	c-0.158,0.182-0.41,0.341-0.461,0.549c-0.266,1.044-1.111,1.508-1.954,1.887c-0.658,0.296-1.411,0.473-2.133,0.515
	c-1.703,0.1-2.708-0.993-2.605-2.728c0.02-0.337,0.093-0.678,0.201-0.999c0.261-0.781,0.593-1.01,1.415-1.043
	c0.161-0.006,0.322-0.011,0.483-0.011c0.442-0.002,0.884,0,1.326,0C20.615,20.273,20.616,20.254,20.616,20.235z"/>
<path fill-rule="evenodd" clip-rule="evenodd" fill="#FFFFFF" d="M17.293,33.386c-0.445,0.646-0.876,1.272-1.353,1.968
	c1.327,1.402,2.66,2.813,3.993,4.223c-0.022,0.024-0.043,0.051-0.065,0.077c-1.797-1.37-3.596-2.74-5.453-4.154
	c0.839-0.727,1.624-1.406,2.484-2.149c-0.654-0.591-1.275-1.176-1.931-1.72c-0.097-0.078-0.375,0.004-0.541,0.074
	c-1.636,0.717-3.267,1.447-4.898,2.172c-0.123,0.056-0.248,0.104-0.422,0.07c1.457-1.182,2.913-2.365,4.446-3.612
	c-1.378-1.252-2.733-2.485-4.151-3.773c1.909-1.492,3.783-2.957,5.656-4.422c0.028,0.026,0.055,0.052,0.083,0.078
	c-1.194,1.311-2.388,2.623-3.634,3.992C13.429,28.592,15.353,30.979,17.293,33.386z"/>
<path fill-rule="evenodd" clip-rule="evenodd" fill="#FFFFFF" d="M33.64,35.5c-1.873,1.428-3.662,2.789-5.45,4.151
	c-0.024-0.022-0.05-0.045-0.073-0.067c1.322-1.398,2.645-2.796,3.998-4.227c-0.453-0.66-0.893-1.299-1.354-1.972
	c1.13-1.401,2.248-2.79,3.367-4.18c0.707-0.875,1.403-1.759,2.127-2.62c0.241-0.287,0.252-0.453-0.022-0.744
	c-1.13-1.192-2.225-2.418-3.259-3.718c1.872,1.469,3.745,2.938,5.669,4.445c-1.449,1.315-2.842,2.579-4.278,3.882
	c1.466,1.193,2.892,2.353,4.315,3.512c-0.012,0.024-0.026,0.053-0.04,0.077c-0.416-0.178-0.834-0.351-1.248-0.534
	c-1.265-0.563-2.534-1.109-3.785-1.703c-0.394-0.189-0.641-0.134-0.936,0.163c-0.465,0.466-0.973,0.892-1.512,1.38
	C31.992,34.068,32.785,34.759,33.64,35.5z"/>
</svg>
