<?xml version="1.0" encoding="utf-8"?>
<!-- Generator: Adobe Illustrator 16.0.0, SVG Export Plug-In . SVG Version: 6.00 Build 0)  -->
<!DOCTYPE svg PUBLIC "-//W3C//DTD SVG 1.1//EN" "http://www.w3.org/Graphics/SVG/1.1/DTD/svg11.dtd">
<svg version="1.1" id="Layer_1" xmlns="http://www.w3.org/2000/svg" xmlns:xlink="http://www.w3.org/1999/xlink" x="0px" y="0px"
	 width="48px" height="48px" viewBox="0 0 48 48" enable-background="new 0 0 48 48" xml:space="preserve">
<g>
	<path fill="#CC0202" d="M1,42.75c0,1.657,1.343,3,3,3h39.834c1.657,0,3-1.343,3-3V5.303c0-1.657-1.343-3-3-3H4
		c-1.657,0-3,1.343-3,3V42.75z"/>
</g>
<g>
	<path fill="#FFFFFF" d="M43.426,7.896c0,0-14.554,4.882-11.724,12.159c0,0-5.188,0.875-4.986,5.324c0,0-5.458-2.494-5.458,2.694
		c0,0-2.628-2.492-3.942-0.943c-1.313,1.55,0.775,2.897,1.516,2.863c0,0-1.381,0.438-1.111,0.674
		c0.269,0.235,1.785,0.235,2.661-0.235c0,0-0.708,0.741-1.146,0.909c0,0,1.416,0,2.594-2.088l-0.033,1.245
		c0,0,1.179-2.829,1.651-3.065c0,0-0.135,0.809-0.101,1.247c0,0,1.179-2.291,1.954-2.324c0,0-0.438,0.809-0.438,1.146
		c0,0,2.121-1.719,3.132-1.516c0,0-1.01,0.403-1.245,0.942c0,0,2.408-0.607,3.184-0.168c0,0-1.415,0.084-1.701,0.455
		c0,0,1.987-0.237,2.88,0.505c0,0-1.398-0.236-1.887-0.034c0,0,2.156,0.269,2.628,0.774c0,0-0.792-0.269-1.836-0.051
		c0,0,2.123,0.438,2.376,0.759c0,0-1.197-0.202-1.567-0.118c0,0,1.264,0.775,1.802,0.775l-0.926-0.017c0,0,0.858,0.455,1.466,0.303
		c0,0-0.422,0.37-0.91,0.235c0,0,0.521,0.472,1.583,0.135c0,0-0.151,0.472-0.471,0.522c0,0,0.893-0.067,1.279-0.791
		c0,0-0.016,0.437-0.034,0.572c0,0,0.691-0.388,1.011-1.095L35.56,30.11c0,0,1.112-0.809,1.112-1.819s-0.624-2.307-0.085-2.847
		c0,0-0.051,1.112,0.64,0.893s0.118-1.331,0.186-1.601s0.017-1.229,0.943-1.33c0,0-0.59,0.809-0.135,1.432s0.572-0.371,0.909-1.011
		c0.337-0.64,0.388-1.163,0.843-1.111c0,0-0.725,1.297,0.118,1.297c0.841,0,3.959-0.994,4.547-2.881c0,0,0.287,1.432-0.96,2.224
		c-1.246,0.792-0.572,1.499,0.641,0.725c0,0-0.556,1.213-1.448,1.313c-0.893,0.102-1.163-0.219-1.297,0.219
		c-0.136,0.438,0.521,0.742,1.313,0.22c0,0-0.792,0.842-1.684,0.993c-0.894,0.151-1.248,0-1.264,0.657
		c-0.018,0.657,1.481-0.017,1.481-0.017s-0.59,0.69-2.426,1.415s-2.055,2.763-2.393,3.352c-0.335,0.59-1.279,2.426-4.816,1.331
		c0,0-1.92-0.522-2.981-2.005s-2.358,0.304-4.481,2.695c0,0,0.825,0.169,1.314-0.286c0.488-0.455,0.506-1.331,1.517-1.23
		c0,0-0.725,0.034-0.725,1.146s-0.69,2.762,0.286,3.891s1.044,1.753,0.657,2.24c0,0-0.304,0.202-0.438-0.102
		c0,0-0.219-0.959-0.927-1.111c0,0-0.117,1.887-0.724,2.056c0,0-0.32-0.338-0.32-1.112s0.033-1.179,0.033-1.179
		s-1.145,0.657-1.145,1.195c0,0.54,0.117,0.978,0.117,0.978s-0.808-0.455-0.724-1.028c0.084-0.572,0.539-1.229,0.539-1.229
		s-1.027,0.506-1.095,0.894c-0.067,0.387,0.067,1.195,0.067,1.195s-0.725-1.027-0.488-1.6c0.235-0.573,2.241-1.651,2.459-2.089
		c0.218-0.438,0.741-1.601,0.236-1.617c-0.505-0.017-2.746,0.455-2.746,0.455s-1.23,0.825-2.005,0.825
		c-0.774,0-5.626,0.354-8.489-2.24c-2.863-2.595-3.335-5.828-2.763-7.479c0.573-1.65,0.944-2.628,2.594-3.604
		c1.651-0.977,2.426-2.493,1.381-2.931c-1.044-0.438-1.449,0.774-1.516,1.111s0.135,1.517-0.977,1.651c0,0-0.018,0.345,0.27,0.438
		c0,0-0.708-0.084-0.926-0.27c0,0,0.1,0.366,0.539,0.455c0,0-0.842-0.051-1.095-0.607c0,0-0.775-0.033-0.775-0.64
		c0,0,0.253,0.186,0.505,0.186c0,0-0.185-0.236-0.168-0.438c0,0,0.202,0.287,0.522,0.337c0,0-0.202-0.235-0.084-0.471
		c0,0,0.303,0.589,0.792,0.438c0.488-0.151,0.219-0.775-0.118-1.078c0,0-0.354,0.708-1.196,0.27c0,0,0.91-0.068,0.926-0.59
		c0.017-0.522-0.05-0.859,0.388-0.859c0,0-0.59-0.186-0.742,0.219C9.13,20.846,9.029,21.25,8.911,21.3c0,0-0.118-0.472-0.455-0.371
		s-1.044,0.758-0.64,1.297c0.404,0.539,0.253,0.472,0.253,0.472s-0.573-0.186-0.741-0.792c0,0-0.623-0.438-0.573-1.432
		c0.069-1.353-0.732-0.546,0.168-1.061c0,0,0.034,0.623,0.725,0.556c0.69-0.067,1.398-0.522,1.482-0.926
		c0.084-0.404-0.404-0.69-0.64-0.354c0,0,0.135-0.522,1.044-0.505c0,0-0.219-1.583,0.101-1.988c0,0-0.017,1.23,0.354,1.668
		c0,0,0.792-4.733,2.105-5.155c0,0-1.145,1.432-1.112,2.982c0,0,0.606-2.106,1.213-2.442c0,0-1.044,1.819-0.977,3.924
		c0,0,2.004-1.583,4.733,0.135c0,0-2.947-0.624-3.503,0.438c0,0,3.066-0.505,4.902,1.382c0,0-0.994-0.657-2.341-0.421
		c0,0,1.735,0.084,2.425,2.257c0,0-0.522-0.573-0.859-0.758c0,0,0.539,1.769,0.151,2.796c0,0-0.151-0.303-0.269-0.489
		c0,0-0.203,1.229-1.096,2.292l-0.084-0.725c0,0-0.809,1.011-0.64,1.954c0,0,2.544-1.87,3.79-4.599
		c1.247-2.729,1.179-4.009,0.943-4.615c-0.236-0.607-0.472-1.853-0.236-2.156c0,0,0.27,2.055,1.718,1.549
		C22.303,15.708,29.023,9.162,43.426,7.896z"/>
	<path fill="#FFFFFF" d="M9.391,26.69c0,0-1.314-1.062-1.617-1.566c0,0,0.205,1.213-1.022,1.213c0,0,0.693-0.328,0.517-0.984
		c-0.177-0.658-1.01-0.354-1.111-0.051c-0.101,0.303-0.43,0.556,0,1.389c0,0-1.013-0.479-0.216-1.73c0,0-0.719,0.393-0.694,0.974
		c0.025,0.58,0.177,0.757,0.177,0.757s-0.758-0.581-0.48-1.187c0.278-0.607,0.582-0.946,0.582-0.946s-0.758,0.44-0.834,0.844
		c-0.076,0.405,0,0.81,0,0.81s-0.624-1.184-0.034-1.653c0.589-0.47,1.348-0.748,1.777-0.722c0.43,0.025,1.112,0,1.416,0.429
		c0.303,0.43,1.162,1.542,1.945,1.113"/>
	<path fill="#FFFFFF" d="M9.214,26.69c0,0-0.657,1.238-1.87,1.062s-1.111-0.53-1.465-0.303c-0.354,0.227-0.708,0.504-0.985,0.555
		s-0.372,0.076-0.489,0.404c-0.117,0.329-0.648,0.809-0.319,1.391c0,0-0.044-0.531,0.319-0.606c0,0-0.471,1.415,1.374,1.466
		c0,0-1.184-0.536-0.96-1.618c0,0,0.102,1.34,1.441,1.188c0,0-1.314-0.607-0.708-1.555c0,0,0.356,0.998,1.202,1.1
		c0,0-1.252-0.759-0.494-1.693c0,0,1.111,0.48,1.465,0.48c0.354,0,1.026-0.354,1.026-0.354"/>
	<path fill="#FFFFFF" d="M19.068,36.368c0,0-0.278,0.909-1.314,0.884c-1.036-0.024-2.956-1.085-3.891,0c0,0-0.783,0.557-0.682,1.012
		c0,0,0.252-0.557,0.708-0.455c0,0-0.48,0.783-0.151,1.364c0,0,0.328-1.517,2.198-0.783c1.107,0.434,1.44,0.076,2.123-0.151
		c0,0,1.415,0.479,2.249,0.202c0.834-0.278,1.163-0.455,1.542-0.152c0,0-0.303-0.922-1.44-0.732
		c-1.137,0.189-0.194-1.011-0.194-1.011"/>
</g>
</svg>
