<?xml version="1.0" encoding="utf-8"?>
<!-- Generator: Adobe Illustrator 16.0.0, SVG Export Plug-In . SVG Version: 6.00 Build 0)  -->
<!DOCTYPE svg PUBLIC "-//W3C//DTD SVG 1.1//EN" "http://www.w3.org/Graphics/SVG/1.1/DTD/svg11.dtd">
<svg version="1.1" id="Layer_1" xmlns="http://www.w3.org/2000/svg" xmlns:xlink="http://www.w3.org/1999/xlink" x="0px" y="0px"
	 width="48px" height="48px" viewBox="0 0 48 48" enable-background="new 0 0 48 48" xml:space="preserve">
<g>
	<path fill="#8BC34A" d="M1,42.75c0,1.657,1.343,3,3,3h39.834c1.657,0,3-1.343,3-3V5.303c0-1.657-1.343-3-3-3H4
		c-1.657,0-3,1.343-3,3V42.75z"/>
</g>
<g id="XMLID_14_">
	<path id="XMLID_150_" fill="#FFFFFF" d="M9.547,24.672c0.064,0.112,0.074,0.237,0.099,0.355c0.25,1.18,0.591,2.331,1.059,3.441
		c0.643,1.522,1.491,2.917,2.624,4.13c1.205,1.291,2.632,2.254,4.274,2.896c0.18,0.072,0.363,0.133,0.543,0.204
		c0.088,0.034,0.128,0.02,0.127-0.083c-0.002-0.332-0.003-0.664,0-0.995c0-0.086-0.037-0.123-0.114-0.146
		c-0.119-0.033-0.234-0.086-0.355-0.11c-0.137-0.028-0.172-0.102-0.169-0.233c0.007-0.277,0.002-0.553-0.006-0.829
		c-0.003-0.088,0.027-0.124,0.109-0.141c0.212-0.043,0.422-0.097,0.635-0.136c0.112-0.021,0.152-0.074,0.155-0.186
		c0.016-0.834,0.037-1.667,0.056-2.501c0.018-0.796,0.037-1.593,0.055-2.389c0.017-0.736,0.035-1.473,0.053-2.209
		c0.003-0.134,0.005-0.268,0.021-0.4c0.057-0.451-0.097-0.863-0.235-1.277c-0.058-0.174-0.048-0.189,0.134-0.193
		c0.217-0.005,0.218-0.005,0.153-0.207c-0.065-0.206-0.125-0.415-0.201-0.617c-0.062-0.164-0.075-0.33-0.073-0.502
		c0.001-0.095,0.025-0.152,0.132-0.142c0.118,0.011,0.151-0.051,0.146-0.159c-0.025-0.51-0.003-1.021-0.053-1.531
		c-0.051-0.522,0.21-0.896,0.602-1.2c0.04-0.031,0.083-0.059,0.121-0.091c0.066-0.057,0.071-0.121-0.003-0.171
		c-0.126-0.086-0.126-0.188-0.059-0.311c0.056-0.101,0.104-0.205,0.155-0.308c0.036-0.073,0.077-0.078,0.114-0.006
		c0.067,0.132,0.13,0.265,0.19,0.399c0.036,0.078,0.003,0.142-0.055,0.198c-0.123,0.117-0.12,0.147,0.021,0.249
		c0.263,0.188,0.48,0.412,0.598,0.723c0.066,0.178,0.082,0.358,0.063,0.543c-0.051,0.519-0.044,1.039-0.05,1.559
		c-0.001,0.101,0.057,0.117,0.134,0.107c0.12-0.015,0.14,0.041,0.146,0.15c0.015,0.229-0.063,0.435-0.129,0.645
		c-0.058,0.184-0.119,0.368-0.182,0.551c-0.028,0.082-0.013,0.125,0.081,0.12c0.005,0,0.01,0,0.014,0
		c0.28,0.015,0.28,0.015,0.196,0.278c-0.059,0.184-0.118,0.369-0.174,0.554c-0.067,0.222-0.022,0.448-0.021,0.672
		c0,0.061,0.009,0.119,0.011,0.18c0.022,0.939,0.04,1.879,0.067,2.816c0.021,0.731,0.038,1.464,0.056,2.195
		c0.017,0.682,0.043,1.363,0.052,2.044c0.002,0.188,0.005,0.188,0.184,0.188c0.143,0,0.286-0.003,0.428,0.001
		c0.09,0.003,0.121-0.035,0.122-0.123c0.002-0.23-0.016-0.451-0.095-0.676c-0.19-0.538-0.24-1.088-0.016-1.634
		c0.127-0.311,0.367-0.538,0.602-0.766c0.606-0.586,1.238-1.145,1.941-1.614c0.333-0.223,0.673-0.434,1.061-0.557
		c0.116-0.035,0.151-0.291,0.062-0.418c-0.024-0.033-0.052-0.064-0.079-0.096c-0.082-0.1-0.099-0.215-0.003-0.3
		c0.284-0.25,0.283-0.58,0.285-0.913c0.001-0.055,0.006-0.109,0.01-0.198c0.047,0.093,0.051,0.158,0.053,0.226
		c0.003,0.134,0.01,0.267,0.031,0.399c0.021,0.134,0.058,0.259,0.164,0.354c0.045,0.039,0.076,0.093,0.111,0.141
		c0.072,0.099,0.066,0.193-0.01,0.291c-0.047,0.06-0.11,0.11-0.123,0.195c-0.035,0.232-0.015,0.271,0.203,0.353
		c0.591,0.224,1.093,0.591,1.584,0.972c0.527,0.41,1.01,0.873,1.491,1.336c0.545,0.522,0.65,1.15,0.52,1.853
		c-0.026,0.139-0.057,0.283-0.113,0.411c-0.093,0.206-0.095,0.419-0.093,0.635c0.001,0.098,0.042,0.129,0.135,0.128
		c0.741-0.002,1.482-0.002,2.225,0c0.086,0,0.146-0.039,0.205-0.094c0.531-0.497,0.981-1.061,1.408-1.647
		c0.677-0.931,1.247-1.923,1.695-2.983c0.521-1.23,0.859-2.505,0.933-3.846c0.068-1.26-0.124-2.475-0.547-3.662
		c-0.33-0.926-0.71-1.829-1.175-2.694c-0.68-1.262-1.507-2.413-2.547-3.404c-1.304-1.243-2.82-2.134-4.518-2.727
		c-1.426-0.497-2.897-0.777-4.394-0.936c-0.178-0.02-0.356-0.041-0.535-0.063c-0.006,0-0.011-0.012-0.038-0.042
		c1.589-0.307,3.169-0.37,4.756-0.167c3.77,0.482,6.949,2.124,9.493,4.945c5.271,5.848,5.069,14.459,0.292,20.054
		c-5.033,5.896-13.383,6.97-19.595,3.133c-3.218-1.988-5.408-4.804-6.572-8.402C9.619,28.446,9.404,26.577,9.547,24.672z"/>
	<path id="XMLID_149_" fill="#FFFFFF" d="M11.854,10.185c0.425,0.155,0.839,0.307,1.253,0.458c0.636,0.232,1.272,0.462,1.907,0.698
		c0.098,0.036,0.157,0.017,0.222-0.066c0.661-0.851,1.326-1.698,1.991-2.547c0.024-0.03,0.044-0.088,0.088-0.072
		c0.053,0.021,0.026,0.082,0.025,0.124c-0.037,1.076-0.073,2.153-0.115,3.229c-0.004,0.1,0.023,0.146,0.119,0.181
		c1.018,0.367,2.034,0.739,3.05,1.11c0.036,0.013,0.095,0.011,0.09,0.065c-0.003,0.042-0.057,0.039-0.09,0.049
		c-1.032,0.295-2.063,0.593-3.096,0.882c-0.131,0.037-0.171,0.097-0.175,0.23c-0.024,0.943-0.057,1.887-0.088,2.83
		c-0.004,0.129-0.014,0.258-0.022,0.386c-0.002,0.03,0.01,0.073-0.031,0.083c-0.039,0.01-0.052-0.031-0.069-0.056
		c-0.233-0.343-0.465-0.686-0.697-1.03c-0.377-0.562-0.757-1.122-1.13-1.687c-0.067-0.102-0.14-0.079-0.227-0.054
		c-0.872,0.249-1.744,0.498-2.617,0.747c-0.159,0.046-0.318,0.092-0.478,0.138c-0.035,0.01-0.079,0.036-0.104,0.004
		c-0.033-0.043,0.019-0.075,0.042-0.104c0.421-0.542,0.844-1.081,1.268-1.622c0.247-0.315,0.493-0.631,0.744-0.944
		c0.056-0.07,0.05-0.123,0.001-0.196c-0.604-0.892-1.205-1.786-1.806-2.68C11.882,10.301,11.839,10.265,11.854,10.185z"/>
</g>
</svg>
