<?xml version="1.0" encoding="utf-8"?>
<!-- Generator: Adobe Illustrator 16.0.0, SVG Export Plug-In . SVG Version: 6.00 Build 0)  -->
<!DOCTYPE svg PUBLIC "-//W3C//DTD SVG 1.1//EN" "http://www.w3.org/Graphics/SVG/1.1/DTD/svg11.dtd">
<svg version="1.1" id="Layer_1" xmlns="http://www.w3.org/2000/svg" xmlns:xlink="http://www.w3.org/1999/xlink" x="0px" y="0px"
	 width="48px" height="48px" viewBox="0 0 48 48" enable-background="new 0 0 48 48" xml:space="preserve">
<g>
	<path fill="#337019" d="M1,42.75c0,1.657,1.343,3,3,3h39.834c1.657,0,3-1.343,3-3V5.303c0-1.657-1.343-3-3-3H4
		c-1.657,0-3,1.343-3,3V42.75z"/>
</g>
<g>
	<g id="icons_25_">
		<g>
			<path fill="#FFFFFF" d="M16.274,20.789c1.503,0,2.721-1.218,2.721-2.721c0-1.502-1.218-2.721-2.721-2.721s-2.72,1.218-2.72,2.721
				C13.554,19.57,14.771,20.789,16.274,20.789z"/>
			<path fill="#FFFFFF" d="M24.965,11.293c0.77,0.145,1.357,0.544,1.475,0.925c0.051,0.164,0.202,0.276,0.373,0.276
				c0.172,0,0.322-0.112,0.373-0.276c0.147-0.476,0.906-0.982,2.021-0.982c0.77,0,1.472,0.254,1.833,0.663
				c0.106,0.12,0.275,0.163,0.427,0.108c0.15-0.055,0.253-0.196,0.257-0.357c0.032-1.265-0.164-3.643-1.831-5.351
				c-1.143-1.172-2.771-1.819-4.848-1.925l-1.176-0.003c-2.114,0.094-3.77,0.742-4.927,1.929c-1.666,1.708-1.861,4.086-1.83,5.351
				c0.004,0.161,0.106,0.303,0.257,0.357c0.151,0.055,0.32,0.012,0.427-0.108c0.361-0.409,1.063-0.663,1.833-0.663
				c1.116,0,1.874,0.506,2.021,0.982c0.051,0.164,0.202,0.276,0.374,0.276c0.171,0,0.322-0.112,0.373-0.276
				c0.122-0.393,0.66-0.807,1.473-0.938v6.998c-0.121,0.137-0.193,0.317-0.193,0.514v1.436c0,0-2.847,1.311-4.125,1.704
				c-0.563,0.172-1.183,0.493-1.752,0.063c-0.919-0.693-3.075-0.867-4.245,0.373s-3.639,4.226-4.708,5.82
				c-0.437,0.654-0.263,1.537,0.39,1.975c0.243,0.164,0.518,0.241,0.791,0.241c0.458,0,0.909-0.221,1.183-0.631
				c0.414-0.616,1.423-2.081,2.06-2.897c0.085-0.108,0.225-0.075,0.23,0.04c0.071,1.586,0.038,3.006,0.092,5.015
				c0.011,0.399-0.009,0.56-0.264,1.145c-0.254,0.584-2.405,5.45-3.358,8.693c-0.233,0.791,0.221,1.622,1.012,1.854
				c0.179,0.053,0.36,0.07,0.535,0.057c0.602-0.045,1.14-0.456,1.32-1.068c0.879-2.99,2.928-7.801,3.013-7.977
				c0.078-0.16,0.211-0.106,0.243,0.003c0.022,0.076,2.04,5.533,2.886,8.056c0.615,1.839,3.468,0.884,2.852-0.955
				c-0.925-2.759-2.197-6.002-3.119-8.76c-0.054-0.158-0.184-0.778-0.202-0.98c-0.134-1.492-0.22-5.991-0.22-6.35
				c0-0.357,0.23-0.499,0.399-0.559c2.902-1.005,4.458-1.438,5.801-2.581c0.171-0.145,0.297-0.301,0.385-0.46
				c0.2-0.334,0.287-0.734,0.287-1.169v-2.088c0-0.197-0.074-0.376-0.194-0.514L24.965,11.293L24.965,11.293z"/>
			<path fill="#FFFFFF" d="M32.616,22.178c-0.29-0.034-0.631-0.062-0.995-0.063c-0.364,0.001-0.705,0.029-0.994,0.063
				c-3.807,0.44-5.043,4.851-4.693,8.211c0.15,1.451,2.441,1.467,2.287,0c-0.115-1.116-0.08-2.748,0.419-4.022
				c0.049-0.125,0.159-0.146,0.159,0.006c0,2.479-0.015,12.473-0.162,16.049c-0.069,1.688,2.547,1.681,2.615,0
				c0.123-2.975,0.161-8.663,0.161-8.929c0-0.144,0.108-0.209,0.208-0.198c0.1-0.011,0.208,0.055,0.208,0.198
				c0,0.266,0.038,5.954,0.161,8.929c0.068,1.681,2.685,1.688,2.615,0c-0.147-3.576-0.161-13.57-0.163-16.049
				c0-0.152,0.11-0.131,0.16-0.006c0.499,1.274,0.534,2.906,0.419,4.022c-0.153,1.467,2.137,1.451,2.287,0
				C37.658,27.028,36.423,22.618,32.616,22.178z"/>
			<path fill="#FFFFFF" d="M31.621,16.327c-0.014,0-0.027-0.001-0.041-0.001c-1.398,0-2.531,1.133-2.531,2.533
				c0,1.396,1.133,2.531,2.531,2.531c0.014,0,0.027-0.001,0.041-0.001s0.027,0.001,0.041,0.001c1.397,0,2.532-1.134,2.532-2.532
				c0-1.398-1.135-2.532-2.532-2.532C31.648,16.326,31.635,16.327,31.621,16.327z"/>
		</g>
	</g>
</g>
</svg>
