<?xml version="1.0" encoding="utf-8"?>
<!-- Generator: Adobe Illustrator 16.0.0, SVG Export Plug-In . SVG Version: 6.00 Build 0)  -->
<!DOCTYPE svg PUBLIC "-//W3C//DTD SVG 1.1//EN" "http://www.w3.org/Graphics/SVG/1.1/DTD/svg11.dtd">
<svg version="1.1" id="Layer_1" xmlns="http://www.w3.org/2000/svg" xmlns:xlink="http://www.w3.org/1999/xlink" x="0px" y="0px"
	 width="48px" height="48px" viewBox="0 0 48 48" enable-background="new 0 0 48 48" xml:space="preserve">
<g>
	<path fill="#4CAF50" d="M1,42.75c0,1.657,1.343,3,3,3h39.834c1.657,0,3-1.343,3-3V5.303c0-1.657-1.343-3-3-3H4
		c-1.657,0-3,1.343-3,3V42.75z"/>
</g>
<g>
	<g>
		<path fill="#FFFFFF" d="M20.089,10.975c-0.515,0-0.858,0.343-0.858,0.858c0,0.515,0.343,0.858,0.858,0.858c0,0,3.432,0,5.49,2.746
			c0.343,0.343,0.515,0.515,0.858,0.515c0.172,0,0.343,0,0.515-0.172c0.343-0.343,0.515-0.858,0.171-1.201
			C24.55,10.975,20.432,10.975,20.089,10.975z"/>
		<path fill="#FFFFFF" d="M23.005,33.969c-0.171-0.516-0.687-0.688-1.201-0.516s-0.687,0.688-0.515,1.029l1.887,4.805
			c0.172,0.344,0.515,0.516,0.858,0.516c0.171,0,0.171,0,0.343,0c0.515-0.172,0.687-0.688,0.515-1.203L23.005,33.969z"/>
		<path fill="#FFFFFF" d="M32.615,30.193c-0.172-0.516-0.688-0.688-1.202-0.516s-0.687,0.688-0.515,1.201l1.888,4.805
			c0.171,0.344,0.515,0.516,0.858,0.516c0.171,0,0.171,0,0.343,0c0.515-0.172,0.687-0.688,0.515-1.201L32.615,30.193z"/>
		<path fill="#FFFFFF" d="M28.324,33.625c-0.172-0.516-0.686-0.686-1.029-0.516c-0.515,0.172-0.686,0.688-0.515,1.031l2.574,6.348
			c0.171,0.344,0.515,0.514,0.858,0.514c0.171,0,0.171,0,0.342,0c0.516-0.17,0.688-0.686,0.516-1.199L28.324,33.625z"/>
		<path fill="#FFFFFF" d="M24.893,23.157c-0.171,0-0.515,0-0.686,0.172c-0.515,0.172-0.858,0.515-1.03,1.03
			c-0.171,0.514-0.171,0.857,0,1.372c0.343,0.858,1.373,1.372,2.402,1.03c0.858-0.344,1.373-1.373,1.03-2.402
			C26.266,23.501,25.579,23.157,24.893,23.157z"/>
		<path fill="#FFFFFF" d="M38.448,17.152c-0.857-2.059-2.917-3.26-5.833-3.775H32.1c-0.343,0-0.687-0.171-1.201-0.171
			c-1.716-3.26-5.148-5.319-8.922-5.319c-1.373,0-2.574,0.172-3.775,0.686c-2.402,1.03-4.461,2.917-5.491,5.491
			c-0.858,2.059-1.029,4.461-0.515,6.691c-0.515,0.516-0.687,0.859-1.201,1.373c-1.716,2.231-2.231,4.634-1.373,6.521
			c0.858,2.23,3.26,3.604,6.692,3.947c0.515,0,1.03,0,1.544,0c2.917,0,6.005-0.688,9.265-1.889
			C35.188,27.447,40.164,21.441,38.448,17.152z M17.686,27.963L17.686,27.963l-3.26-0.344c-0.515,0-0.858-0.344-0.858-0.857
			c0-0.516,0.343-0.858,0.858-0.858l3.26,0.343c0.515,0,0.858,0.516,0.858,1.029C18.373,27.791,18.029,27.963,17.686,27.963z
			 M26.094,28.135c-0.344,0.172-0.857,0.172-1.373,0.172c-1.373,0-2.745-0.859-3.26-2.232c-0.343-0.857-0.343-1.887,0-2.745
			c0.343-0.857,1.03-1.544,1.888-1.888c1.716-0.687,3.774,0.172,4.633,1.888C28.84,25.389,27.981,27.447,26.094,28.135z
			 M16.142,20.755c-1.03,0-1.716,0-2.231-0.171c0,0,0,0,0-0.171c-0.515-1.716-0.515-3.775,0.343-5.663
			c0.858-2.059,2.574-3.775,4.633-4.633c1.029-0.343,2.059-0.686,3.089-0.686c3.26,0,6.348,1.887,7.721,4.804
			C25.408,20.069,19.402,20.755,16.142,20.755z M33.645,19.726l-2.402,2.231c-0.172,0.171-0.344,0.171-0.516,0.171
			s-0.514-0.171-0.686-0.342c-0.344-0.344-0.344-0.858,0-1.202l2.574-2.23c0.342-0.343,0.857-0.343,1.2,0
			C34.159,18.868,33.987,19.383,33.645,19.726z"/>
	</g>
</g>
</svg>
