<?xml version="1.0" encoding="utf-8"?>
<!-- Generator: Adobe Illustrator 16.0.0, SVG Export Plug-In . SVG Version: 6.00 Build 0)  -->
<!DOCTYPE svg PUBLIC "-//W3C//DTD SVG 1.1//EN" "http://www.w3.org/Graphics/SVG/1.1/DTD/svg11.dtd">
<svg version="1.1" id="Layer_1" xmlns="http://www.w3.org/2000/svg" xmlns:xlink="http://www.w3.org/1999/xlink" x="0px" y="0px"
	 width="48px" height="48px" viewBox="0 0 48 48" enable-background="new 0 0 48 48" xml:space="preserve">
<g>
	<path fill="#388E3C" d="M1,42.75c0,1.657,1.343,3,3,3h39.834c1.657,0,3-1.343,3-3V5.303c0-1.657-1.343-3-3-3H4
		c-1.657,0-3,1.343-3,3V42.75z"/>
</g>
<g>
	<g>
		<circle fill="#FFFFFF" cx="23.757" cy="24.037" r="3.159"/>
		<path fill="#FFFFFF" d="M35.345,25.613c-0.401-0.523-0.851-1.051-1.342-1.576c0.491-0.525,0.94-1.052,1.342-1.576
			c0.942-1.23,1.576-2.39,1.886-3.448c0.249-0.85,0.406-2.089-0.258-3.162c-0.898-1.451-2.731-1.755-4.111-1.755
			c-1.159,0-2.484,0.204-3.909,0.586c-0.14-0.464-0.292-0.91-0.454-1.336c-0.553-1.447-1.207-2.599-1.943-3.417
			c-0.85-0.944-1.826-1.449-2.824-1.449h-0.006c-1.262,0-2.23,0.796-2.821,1.457c-0.734,0.821-1.384,1.978-1.931,3.428
			c-0.157,0.417-0.304,0.855-0.44,1.31c-1.414-0.378-2.728-0.579-3.879-0.579c-1.379,0-3.212,0.305-4.11,1.755
			c-0.665,1.073-0.508,2.312-0.258,3.163c0.309,1.057,0.944,2.218,1.885,3.448c0.401,0.523,0.85,1.05,1.341,1.575
			c-0.492,0.525-0.94,1.052-1.341,1.575c-0.941,1.229-1.576,2.391-1.885,3.447c-0.249,0.851-0.406,2.089,0.258,3.162
			c0.898,1.45,2.731,1.755,4.11,1.755c1.16,0,2.485-0.204,3.911-0.587c0.14,0.462,0.291,0.906,0.453,1.33
			c0.552,1.447,1.207,2.594,1.943,3.412c0.85,0.944,1.826,1.438,2.824,1.438h0.006c1.262,0,2.23-0.785,2.822-1.446
			c0.733-0.821,1.383-1.968,1.93-3.417c0.158-0.416,0.304-0.853,0.439-1.305c1.414,0.379,2.729,0.58,3.881,0.58l0,0
			c1.38,0,3.213-0.308,4.111-1.758c0.664-1.073,0.507-2.314,0.258-3.165C36.921,28.004,36.287,26.843,35.345,25.613z M32.861,15.864
			c0.763,0,2.114,0.119,2.609,0.918c0.559,0.903-0.012,2.625-1.529,4.606c-0.355,0.465-0.754,0.934-1.189,1.402
			c-0.824-0.77-1.732-1.529-2.707-2.263c-0.135-1.453-0.352-2.844-0.643-4.133C30.693,16.045,31.869,15.864,32.861,15.864z
			 M27.734,31.163c-0.016-0.005-0.029-0.011-0.045-0.016c-0.644-0.228-1.301-0.49-1.965-0.782c0.477-0.269,0.953-0.551,1.429-0.844
			c0.331-0.206,0.655-0.414,0.977-0.626C28.023,29.682,27.891,30.44,27.734,31.163z M26.223,28.019
			c-0.813,0.504-1.639,0.974-2.467,1.401c-0.826-0.429-1.652-0.897-2.465-1.401c-0.736-0.456-1.447-0.93-2.126-1.418
			c-0.058-0.833-0.089-1.687-0.091-2.553c-0.001-0.871,0.026-1.729,0.081-2.566c0.683-0.49,1.396-0.967,2.136-1.426
			c0.813-0.503,1.639-0.972,2.465-1.401c0.828,0.429,1.654,0.898,2.467,1.402c0.737,0.456,1.448,0.931,2.127,1.418
			c0.059,0.833,0.089,1.685,0.092,2.55c0.001,0.872-0.026,1.73-0.082,2.569C27.677,27.083,26.963,27.561,26.223,28.019z
			 M19.804,31.151c-0.158-0.714-0.292-1.463-0.4-2.239c0.314,0.207,0.633,0.411,0.957,0.611c0.473,0.293,0.948,0.574,1.423,0.842
			c-0.662,0.291-1.318,0.553-1.959,0.779C19.818,31.147,19.811,31.149,19.804,31.151z M17.326,25.188
			c-0.459-0.38-0.897-0.764-1.313-1.15c0.414-0.385,0.851-0.768,1.309-1.146c-0.01,0.384-0.015,0.771-0.015,1.159
			C17.308,24.431,17.314,24.811,17.326,25.188z M19.779,16.914c0.015,0.005,0.03,0.011,0.046,0.016
			c0.643,0.228,1.299,0.489,1.962,0.781c-0.477,0.268-0.952,0.549-1.426,0.843c-0.331,0.205-0.657,0.413-0.977,0.625
			C19.489,18.394,19.622,17.637,19.779,16.914z M27.711,16.922c0.158,0.717,0.292,1.467,0.4,2.244
			c-0.314-0.208-0.634-0.412-0.958-0.612c-0.475-0.294-0.95-0.575-1.427-0.843c0.663-0.292,1.32-0.553,1.963-0.781
			C27.696,16.927,27.703,16.925,27.711,16.922z M30.188,22.888c0.46,0.38,0.896,0.763,1.312,1.15
			c-0.413,0.385-0.85,0.767-1.308,1.146c0.011-0.385,0.016-0.772,0.015-1.162C30.207,23.642,30.199,23.264,30.188,22.888z
			 M20.625,13.99c0.881-2.334,2.041-3.729,3.105-3.731c1.063,0,2.227,1.39,3.117,3.721c0.148,0.39,0.288,0.799,0.417,1.226
			c-1.136,0.395-2.314,0.888-3.508,1.471c-1.204-0.588-2.393-1.084-3.537-1.48C20.346,14.776,20.48,14.374,20.625,13.99z
			 M12.043,16.782c0.495-0.799,1.847-0.918,2.609-0.918c0.986,0,2.152,0.179,3.435,0.523c-0.289,1.294-0.501,2.69-0.63,4.15
			c-0.971,0.73-1.875,1.485-2.694,2.252c-0.436-0.468-0.834-0.937-1.19-1.402C12.056,19.407,11.484,17.685,12.043,16.782z
			 M14.652,32.211c-0.762,0-2.114-0.119-2.609-0.918c-0.56-0.904,0.012-2.625,1.528-4.606c0.356-0.465,0.754-0.933,1.189-1.401
			c0.824,0.771,1.733,1.531,2.709,2.265c0.135,1.453,0.351,2.843,0.643,4.131C16.82,32.029,15.645,32.211,14.652,32.211z
			 M26.889,34.079c-0.881,2.334-2.041,3.727-3.103,3.727h-0.003c-1.062,0-2.227-1.388-3.117-3.718
			c-0.148-0.388-0.286-0.796-0.415-1.22c1.134-0.394,2.311-0.887,3.503-1.468c1.205,0.588,2.393,1.086,3.537,1.482
			C27.166,33.299,27.032,33.698,26.889,34.079z M35.471,31.295c-0.495,0.799-1.847,0.921-2.609,0.921l0,0
			c-0.985,0-2.152-0.18-3.436-0.524c0.289-1.296,0.502-2.693,0.632-4.154c0.97-0.73,1.874-1.485,2.693-2.252
			c0.436,0.469,0.835,0.938,1.19,1.403C35.459,28.669,36.029,30.393,35.471,31.295z"/>
	</g>
</g>
</svg>
