<?xml version="1.0" encoding="utf-8"?>
<!-- Generator: Adobe Illustrator 16.0.0, SVG Export Plug-In . SVG Version: 6.00 Build 0)  -->
<!DOCTYPE svg PUBLIC "-//W3C//DTD SVG 1.1//EN" "http://www.w3.org/Graphics/SVG/1.1/DTD/svg11.dtd">
<svg version="1.1" id="Layer_1" xmlns="http://www.w3.org/2000/svg" xmlns:xlink="http://www.w3.org/1999/xlink" x="0px" y="0px"
	 width="48px" height="48px" viewBox="0 0 48 48" enable-background="new 0 0 48 48" xml:space="preserve">
<g>
	<path fill="#00897B" d="M1,42.75c0,1.657,1.343,3,3,3h39.834c1.657,0,3-1.343,3-3V5.303c0-1.657-1.343-3-3-3H4
		c-1.657,0-3,1.343-3,3V42.75z"/>
</g>
<g>
	<polygon fill="#FFFFFF" points="24.016,9.675 38.515,25.877 40.805,25.877 23.993,7.111 16.373,15.51 16.373,10.864 12.62,10.864 
		12.62,19.657 7.028,25.877 9.352,25.877 	"/>
	<path fill="#FFFFFF" d="M23.989,12.395L11.71,25.94v14.948h24.223V25.877h0.14L23.989,12.395z M18.781,32.875
		c-0.226,0.294-0.42,0.616-0.584,0.962h-2.703c0-2.843,1.276-4.041,3.054-4.433c-0.88-0.516-1.471-1.485-1.471-2.579
		c0-1.643,1.331-2.98,2.973-2.98c1.158,0,2.162,0.662,2.652,1.627c-2.057,0.54-3.579,2.413-3.579,4.638
		c0,0.685,0.149,1.352,0.423,1.962C19.263,32.308,19.01,32.576,18.781,32.875z M22.415,32.703c-0.88-0.517-1.472-1.486-1.472-2.58
		c0-1.642,1.332-2.987,2.974-2.987c1.642,0,2.974,1.331,2.974,2.973c0,1.095-0.592,2.079-1.473,2.596
		c1.779,0.391,3.055,1.588,3.055,4.432h-9.112C19.361,34.292,20.637,33.095,22.415,32.703z M29.637,33.837
		c-0.164-0.347-0.358-0.668-0.585-0.963c-0.229-0.298-0.483-0.566-0.767-0.803c0.273-0.609,0.424-1.277,0.424-1.963
		c0-2.26-1.572-4.158-3.682-4.661c0.495-0.956,1.492-1.61,2.643-1.61c1.643,0,2.973,1.332,2.973,2.974
		c0,1.094-0.592,2.078-1.472,2.594c1.778,0.392,3.055,1.589,3.055,4.432H29.637L29.637,33.837z"/>
</g>
</svg>
