<?xml version="1.0" encoding="utf-8"?>
<!-- Generator: Adobe Illustrator 16.0.0, SVG Export Plug-In . SVG Version: 6.00 Build 0)  -->
<!DOCTYPE svg PUBLIC "-//W3C//DTD SVG 1.1//EN" "http://www.w3.org/Graphics/SVG/1.1/DTD/svg11.dtd">
<svg version="1.1" id="Layer_1" xmlns="http://www.w3.org/2000/svg" xmlns:xlink="http://www.w3.org/1999/xlink" x="0px" y="0px"
	 width="48px" height="48px" viewBox="0 0 48 48" enable-background="new 0 0 48 48" xml:space="preserve">
<g>
	<path fill="#F59C00" d="M1,42.75c0,1.657,1.343,3,3,3h39.834c1.657,0,3-1.343,3-3V5.303c0-1.657-1.343-3-3-3H4
		c-1.657,0-3,1.343-3,3V42.75z"/>
</g>
<g>
	<g>
		<path fill="#FFFFFF" d="M38.896,7.861c-0.984-0.521-2.145-0.599-2.879,0.077c-0.058-0.019-0.135-0.019-0.193,0.039
			c-2.434,1.99-3.961,5.197-5.68,7.786c-1.392,2.106-2.802,4.193-4.154,6.318c-0.02,0-0.039-0.019-0.059-0.019
			c-3.323-0.193-6.144-4.078-7.979-6.512c-0.058-0.077-0.135-0.096-0.212-0.096c-0.019-0.039-0.077-0.039-0.116-0.02
			c-2.299,2.183-4.328,4.83-6.337,7.302c-1.893,2.339-4.019,4.658-5.564,7.246c-0.136,0.213,0.039,0.445,0.232,0.482
			c-0.02,0.078-0.02,0.156,0.039,0.232c6.511,8.076,19.61,13.043,29.174,7.652c0.038-0.02,0.058-0.039,0.077-0.078
			c0.136,0.098,0.405,0.039,0.483-0.154c1.971-4.754,2.55-10.512,3.227-15.592c0.019-0.174-0.059-0.309-0.155-0.405
			c0.174-0.136,0-0.444-0.231-0.405c-1.855,0.327-3.71,0.56-5.604,0.405c2.338-3.729,4.637-7.497,6.898-11.245
			c0.037-0.058,0.037-0.116,0.037-0.174C40.983,9.947,39.746,8.324,38.896,7.861z M35.477,9.117
			c0.252,0.212,0.502,0.425,0.773,0.618c-0.039,0.019-0.078,0.039-0.116,0.078c-3.556,5.197-7.149,10.606-10.376,16.018
			c-0.076-0.193-0.212-0.389-0.386-0.504c-0.231-0.154-0.483-0.213-0.734-0.193C28.425,19.936,31.863,14.449,35.477,9.117z
			 M37.408,11.435c-0.115-0.251-0.309-0.464-0.463-0.695c-0.154-0.232-0.29-0.464-0.406-0.696c0.02-0.039,0.02-0.058,0.02-0.097
			c0.059,0.039,0.116,0.078,0.174,0.116c0.213,0.309,0.426,0.618,0.656,0.927c0.078,0.097,0.136,0.231,0.232,0.309
			c-0.154,0.212-0.309,0.425-0.463,0.638c-0.02-0.02-0.059-0.02-0.078,0c-0.328-0.425-0.617-0.85-0.908-1.294
			c0.078-0.116,0.136-0.251,0.213-0.367c0.232,0.444,0.483,0.946,0.85,1.275C37.331,11.628,37.447,11.532,37.408,11.435z
			 M28.038,23.587c0.29,0.31,0.618,0.619,1.005,0.812c-0.059,0.116-0.135,0.232-0.193,0.329c-0.387-0.31-0.773-0.619-1.159-0.908
			c0.193-0.252,0.367-0.502,0.561-0.754c0.31,0.31,0.677,0.638,1.081,0.831c-0.057,0.096-0.115,0.193-0.174,0.289
			c-0.348-0.231-0.695-0.443-0.984-0.753C28.076,23.356,27.941,23.491,28.038,23.587z M24.136,25.848
			c0.019-0.037,0.058-0.076,0.077-0.115c0.251-0.039,0.502-0.078,0.715,0c0.289,0.115,0.289,0.367,0.251,0.637
			c-0.019,0.213,0.251,0.328,0.425,0.232c0.059,0.02,0.136,0,0.213-0.059c0.232-0.193,0.6-0.174,0.792,0.078
			c0.077,0.096,0.116,0.232,0.116,0.367c0,0.154-0.097,0.289-0.097,0.445c0.019,0.154,0.097,0.23,0.212,0.27
			c0.059,0.154,0.271,0.213,0.387,0.039C27.4,27.49,27.71,27.434,28,27.529c0.076,0.02,0.154,0.059,0.231,0.096
			c-0.695,0.561-1.372,1.141-2.087,1.623c-0.058-0.387-0.405-0.771-0.715-0.965c-0.443-0.291-0.966-0.387-1.468-0.213
			C24.039,27.336,24.098,26.602,24.136,25.848L24.136,25.848z M27.4,27.008c0-0.039,0-0.078,0-0.115
			c-0.02-0.291-0.154-0.58-0.386-0.773c-0.251-0.213-0.58-0.271-0.909-0.213c0.039-0.059,0.098-0.115,0.137-0.174
			c0.386,0.154,0.772,0.367,1.119,0.6c0.059,0.037,0.117-0.059,0.059-0.098c-0.348-0.25-0.715-0.424-1.12-0.58
			c0.097-0.115,0.192-0.25,0.29-0.385v0.018c0.386,0.35,0.83,0.734,1.313,0.947C27.768,26.486,27.594,26.736,27.4,27.008z
			 M27.4,25.693c-0.231-0.154-0.463-0.328-0.695-0.502h-0.02c0.097-0.115,0.193-0.251,0.29-0.368
			c0.425,0.309,0.851,0.637,1.313,0.87c-0.096,0.137-0.174,0.291-0.27,0.426C27.826,25.945,27.594,25.83,27.4,25.693z
			 M27.053,24.689c0.078-0.097,0.154-0.193,0.213-0.29c0.348,0.348,0.772,0.753,1.217,0.927c-0.058,0.078-0.096,0.156-0.154,0.232
			C27.922,25.27,27.479,24.999,27.053,24.689z M28.02,24.766c-0.232-0.154-0.445-0.348-0.639-0.521
			c0.059-0.077,0.117-0.174,0.174-0.252c0.387,0.311,0.773,0.619,1.18,0.928c-0.059,0.078-0.098,0.173-0.155,0.251
			C28.405,25.018,28.213,24.901,28.02,24.766z M28.387,22.892L28.387,22.892c0.038-0.058,0.076-0.115,0.115-0.174
			c0.309,0.29,0.676,0.638,1.063,0.792c-0.039,0.058-0.077,0.136-0.115,0.193C29.102,23.433,28.715,23.202,28.387,22.892z
			 M29.236,23.008c-0.213-0.154-0.406-0.31-0.6-0.464c0.059-0.097,0.136-0.174,0.193-0.271c0.193,0.231,0.387,0.444,0.619,0.638
			c0.096,0.077,0.212,0.193,0.348,0.231c-0.039,0.077-0.078,0.136-0.116,0.213C29.545,23.202,29.391,23.105,29.236,23.008z
			 M29.43,22.505c-0.154-0.135-0.29-0.289-0.426-0.443c0-0.021-0.019,0-0.038-0.021c0.058-0.077,0.097-0.135,0.154-0.212
			c0.155,0.251,0.386,0.482,0.599,0.676c0.098,0.077,0.193,0.154,0.29,0.193c-0.038,0.058-0.058,0.097-0.097,0.155
			c-0.02,0-0.02,0-0.038,0C29.738,22.815,29.545,22.622,29.43,22.505z M29.738,22.12c-0.154-0.136-0.271-0.31-0.425-0.444
			c-0.02-0.02-0.02-0.02-0.038-0.02c0.115-0.175,0.23-0.329,0.348-0.503c0.251,0.31,0.521,0.6,0.811,0.87
			c-0.076,0.154-0.174,0.289-0.251,0.444C30.028,22.428,29.835,22.216,29.738,22.12z M29.758,20.96
			c0.097-0.136,0.174-0.271,0.271-0.406c0.192,0.329,0.444,0.657,0.772,0.85c-0.058,0.117-0.135,0.213-0.193,0.329
			c-0.02-0.019-0.02-0.038-0.038-0.058c-0.038-0.039-0.077-0.039-0.116-0.02C30.221,21.424,29.99,21.192,29.758,20.96z
			 M30.145,20.38c0.076-0.116,0.174-0.251,0.251-0.386c0.116,0.116,0.212,0.251,0.328,0.367c0.116,0.135,0.271,0.329,0.464,0.367
			c-0.097,0.155-0.193,0.328-0.29,0.483C30.666,20.941,30.376,20.671,30.145,20.38z M30.55,19.763
			c0.058-0.097,0.116-0.174,0.174-0.271c0.194,0.231,0.387,0.463,0.638,0.656c0.059,0.039,0.116,0.039,0.154,0
			c-0.077,0.116-0.135,0.232-0.212,0.348c-0.02-0.019-0.039-0.019-0.058-0.019C31.014,20.265,30.781,20.013,30.55,19.763z
			 M30.897,19.26c0.039-0.058,0.077-0.116,0.116-0.193c0.213,0.27,0.406,0.599,0.656,0.85c-0.037,0.058-0.076,0.116-0.115,0.173
			c0-0.019,0-0.038-0.02-0.077C31.381,19.743,31.13,19.492,30.897,19.26z M31.168,18.854L31.168,18.854
			c0.078-0.116,0.154-0.232,0.232-0.367c0.115,0.135,0.232,0.251,0.348,0.367c0.135,0.135,0.251,0.251,0.444,0.213
			c-0.116,0.193-0.231,0.367-0.329,0.561C31.651,19.357,31.381,19.105,31.168,18.854z M31.477,18.372
			c0.078-0.116,0.137-0.213,0.213-0.329c0.213,0.231,0.426,0.444,0.657,0.637c0.02,0.02,0.038,0.02,0.058,0.02
			c-0.058,0.077-0.096,0.155-0.154,0.232c0,0.019-0.02,0.038-0.02,0.038c0-0.019-0.02-0.038-0.038-0.038
			C31.922,18.854,31.689,18.603,31.477,18.372z M32.366,18.468c-0.213-0.174-0.405-0.348-0.599-0.542
			c0.058-0.096,0.115-0.193,0.174-0.29c0.174,0.212,0.387,0.406,0.617,0.503c0.078,0.019,0.155-0.058,0.078-0.116
			c-0.213-0.194-0.406-0.348-0.6-0.542c0.059-0.077,0.098-0.174,0.155-0.251c0.193,0.271,0.405,0.541,0.677,0.753l0,0
			c-0.117,0.174-0.232,0.368-0.349,0.542c0-0.02-0.019-0.039-0.038-0.077C32.443,18.429,32.385,18.429,32.366,18.468z
			 M32.289,17.116c0.058-0.097,0.115-0.174,0.174-0.271c0.193,0.271,0.406,0.56,0.676,0.772l0,0
			c-0.058,0.096-0.135,0.193-0.193,0.271C32.732,17.618,32.502,17.366,32.289,17.116z M32.54,16.729
			c0.077-0.116,0.154-0.232,0.231-0.367c0.193,0.29,0.406,0.561,0.695,0.773c-0.076,0.116-0.154,0.231-0.25,0.367
			C33.023,17.231,32.771,16.98,32.54,16.729z M32.888,16.168c0.058-0.096,0.116-0.193,0.193-0.309
			c0.174,0.309,0.405,0.618,0.696,0.792c0,0,0,0,0.019,0c-0.077,0.117-0.154,0.213-0.231,0.329
			C33.313,16.729,33.081,16.458,32.888,16.168z M33.391,16.033c-0.078-0.096-0.155-0.212-0.213-0.328
			c0.097-0.155,0.193-0.309,0.289-0.463c0.098,0.154,0.193,0.29,0.31,0.425s0.271,0.386,0.464,0.29
			c0.078-0.039,0.039-0.154-0.039-0.174c-0.135-0.02-0.386-0.405-0.443-0.483c-0.059-0.077-0.098-0.174-0.154-0.251
			c0.076-0.116,0.135-0.231,0.212-0.348c0.192,0.329,0.405,0.619,0.715,0.85c0.019,0.02,0.019,0,0.038,0.02
			c-0.232,0.328-0.463,0.657-0.695,0.986l0,0C33.719,16.362,33.525,16.207,33.391,16.033z M33.912,14.488
			c0.058-0.097,0.115-0.212,0.193-0.309c0.193,0.348,0.425,0.715,0.734,0.946c-0.078,0.097-0.136,0.194-0.213,0.31
			c0-0.02,0-0.02-0.02-0.039C34.356,15.106,34.124,14.816,33.912,14.488z M34.221,14.005c0.077-0.136,0.154-0.251,0.232-0.387
			c0.212,0.367,0.463,0.715,0.772,1.005c-0.097,0.135-0.193,0.251-0.271,0.386C34.685,14.662,34.434,14.353,34.221,14.005z
			 M34.568,13.425c0.059-0.116,0.136-0.213,0.193-0.329c0.232,0.367,0.502,0.734,0.85,0.985c-0.096,0.135-0.192,0.251-0.27,0.386
			C35.071,14.121,34.801,13.773,34.568,13.425z M34.858,12.923c0.097-0.174,0.193-0.329,0.29-0.502
			c0.213,0.406,0.482,0.812,0.85,1.082c-0.096,0.135-0.212,0.29-0.309,0.425C35.419,13.599,35.109,13.29,34.858,12.923z
			 M35.264,12.227c0.059-0.116,0.136-0.231,0.193-0.348c0.193,0.348,0.58,1.024,0.87,1.159c-0.077,0.097-0.136,0.193-0.213,0.29
			C35.805,12.98,35.516,12.652,35.264,12.227z M36.25,12.652c-0.098-0.116-0.213-0.251-0.31-0.367
			c-0.136-0.193-0.251-0.387-0.348-0.599c0.038-0.077,0.097-0.154,0.136-0.231c0.25,0.425,0.54,0.889,0.889,1.217
			c-0.059,0.077-0.098,0.135-0.154,0.212C36.385,12.846,36.288,12.71,36.25,12.652z M36.327,11.938
			c-0.175-0.232-0.329-0.464-0.483-0.695c0.078-0.136,0.154-0.271,0.232-0.406c0.27,0.464,0.561,0.927,0.908,1.353
			c-0.078,0.097-0.155,0.212-0.232,0.309C36.617,12.305,36.462,12.111,36.327,11.938z M38.182,22.409
			c-0.715,5.216-2.318,10.318-2.976,15.515c-0.077-0.039-0.154-0.059-0.271-0.02c-5.139,2.588-10.781,2.629-16.152,0.637
			c-4.849-1.797-8.385-5.217-12.5-8.191l0,0c2.493-2.646,4.618-5.718,6.956-8.481c1.41-1.662,3.96-3.632,4.444-5.894
			c1.41,2.859,4.618,6.434,7.999,6.569c-0.58,0.928-1.16,1.854-1.72,2.782c-0.058,0.039-0.135,0.059-0.193,0.098
			c-0.116,0.059-0.116,0.193-0.058,0.27c-0.02,0.02-0.039,0.059-0.039,0.098c-0.367,1.43-0.638,2.898-0.812,4.365
			c-0.077,0-0.135,0.02-0.193,0.098c-1.159,1.391-1.835,3.438-2.492,5.119c-0.097,0.232,0.29,0.406,0.406,0.174
			c0.464-0.869,0.927-1.738,1.391-2.607c0.309-0.561,0.657-1.121,0.927-1.721c0.077,0.059,0.155,0.098,0.251,0.098
			c2.086-0.271,3.845-1.469,5.352-2.898c0.154,0.096,0.367,0.078,0.482-0.117c1.218-1.797,2.396-3.631,3.574-5.487
			c0.078,0.117,0.174,0.194,0.349,0.214C34.723,23.143,36.481,23.008,38.182,22.409z M28.772,27.221
			c-0.212-0.174-0.503-0.291-0.715-0.311c-0.02,0-0.058,0-0.077,0c1.99-1.989,3.11-4.848,4.54-7.225
			c1.777-2.975,3.671-5.932,5.739-8.714c0.212,0.097,0.424,0.193,0.656,0.271C35.303,16.362,31.787,21.714,28.772,27.221z
			 M39.303,10.682c-0.059,0.077-0.116,0.154-0.154,0.232c-1.16-0.676-2.357-1.314-3.459-2.087c0.077-0.116,0.154-0.231,0.232-0.328
			c1.063,0.715,2.202,1.623,3.419,2.048C39.303,10.585,39.283,10.643,39.303,10.682z M39.477,10.16
			c-0.928-0.792-2.223-1.333-3.324-1.875c0.619-0.386,1.508-0.251,2.164,0.039C39.187,8.73,39.766,9.31,39.477,10.16z"/>
		<path fill="#FFFFFF" d="M16.272,20.708c-0.425-0.116-0.85,0.059-1.043,0.444c-0.174,0.349-0.116,0.696,0,1.044
			c-0.58-0.116-1.217,0.386-1.121,0.985c-0.135-0.058-0.29-0.077-0.464-0.077c-0.831,0.02-1.237,1.024-0.87,1.681
			c-0.753-0.058-1.584,0.619-1.217,1.429c0.58,1.219,2.454,0.715,3.208,0.02c0.019-0.02,0.039-0.057,0.058-0.096
			c0.077,0.02,0.154-0.02,0.174-0.117c0.232-0.771,0.077-2.26-0.734-2.762c0.077-0.366,0.58-0.695,0.947-0.541
			c0.097,0.039,0.212,0.039,0.309-0.039c0.039-0.038,0.058-0.058,0.058-0.115c0-0.02,0-0.039,0-0.039
			c0.019-0.02,0.039-0.058,0.039-0.097c-0.039-0.251-0.077-0.618,0-0.85c0.231-0.715,0.889-0.077,1.101,0.271
			c0.329,0.561,0.425,1.179,0.541,1.797c-0.309,0.135-0.637,0.231-0.985,0.289c-0.348,0.059-0.773,0.02-1.082,0.214
			c-0.193,0.135-0.213,0.425,0,0.56c0.386,0.231,0.927,0.058,1.313-0.097c0.309-0.136,0.599-0.328,0.85-0.541
			c0.097,0.213,0.444,0.136,0.444-0.116C17.875,22.931,17.412,21.038,16.272,20.708z M14.61,25.326
			c-0.174-0.096-0.367-0.154-0.521-0.232c-0.02,0-0.039,0-0.058,0c0-0.018-0.019-0.037-0.039-0.037
			c-0.232-0.117-0.464-0.233-0.676-0.368l0,0c-0.096-0.115-0.135-0.271-0.135-0.425c0.29,0.231,0.58,0.482,0.908,0.657
			c0.02,0.019,0.039,0.019,0.058,0c0,0.019,0.019,0.038,0.039,0.058c0.135,0.078,0.271,0.173,0.425,0.251
			C14.61,25.25,14.61,25.287,14.61,25.326z M12.505,26.1c-0.194-0.078-0.31-0.213-0.329-0.348c0.29,0.154,0.56,0.289,0.869,0.387
			c0.077,0.02,0.116-0.078,0.058-0.117c-0.271-0.174-0.58-0.309-0.889-0.443c0.019-0.039,0.058-0.078,0.096-0.117
			c0.31,0.176,0.638,0.33,0.986,0.426c0.058,0.02,0.097-0.039,0.097-0.076c0,0.02,0.019,0.037,0.039,0.037
			c0.193,0.078,0.367,0.137,0.56,0.193C13.509,26.195,12.968,26.293,12.505,26.1z M14.282,25.965
			c-0.251-0.117-0.542-0.174-0.812-0.252c-0.058-0.02-0.097,0.039-0.097,0.078c0-0.02-0.02-0.039-0.039-0.039
			c-0.29-0.115-0.561-0.252-0.831-0.387c0.077-0.039,0.174-0.059,0.251-0.078c0.29,0.154,0.599,0.311,0.908,0.387
			c0.058,0.02,0.097-0.037,0.097-0.076c0.232,0.135,0.483,0.27,0.734,0.328C14.417,25.906,14.359,25.926,14.282,25.965z
			 M13.741,25.307c-0.096-0.057-0.174,0.059-0.154,0.135c-0.174-0.096-0.328-0.172-0.502-0.25c0.058,0,0.097-0.02,0.155-0.039
			c0.077-0.02,0.097-0.115,0.058-0.173c0,0,0-0.02,0.019-0.02c0.193,0.117,0.386,0.212,0.58,0.251c0.02,0,0.058,0,0.078-0.02
			c0,0,0,0.02,0.019,0.02c0.193,0.096,0.406,0.25,0.638,0.328c0,0.078,0,0.135,0.019,0.193
			C14.398,25.559,14.031,25.461,13.741,25.307z M14.495,24.38L14.495,24.38c0.039,0.038,0.039,0.077,0.039,0.135
			c-0.077,0.02-0.116,0.116-0.058,0.174c0.02,0.02,0.058,0.058,0.097,0.077c0,0.058,0.02,0.116,0.02,0.174
			c-0.097-0.058-0.213-0.097-0.309-0.154c-0.039-0.02-0.058-0.02-0.078,0c0-0.02,0-0.02-0.019-0.039
			c-0.29-0.27-0.638-0.502-0.966-0.733c0.019-0.02,0.019-0.059,0.039-0.078c0,0.02,0.019,0.039,0.039,0.039
			c0.348,0.212,0.676,0.464,1.043,0.618c0.077,0.039,0.174-0.058,0.097-0.116c-0.309-0.27-0.676-0.463-1.024-0.676
			c-0.019,0-0.019,0-0.039,0c0.039-0.039,0.097-0.077,0.154-0.097C13.857,23.935,14.166,24.167,14.495,24.38z"/>
		<path fill="#FFFFFF" d="M19.576,22.1c-2.009,3.226-3.613,6.744-5.023,10.259c-0.097,0.213,0.271,0.367,0.386,0.154
			c1.681-3.4,3.497-6.723,5.178-10.105C20.291,22.062,19.789,21.752,19.576,22.1z"/>
		<path fill="#FFFFFF" d="M21.334,23.202c-0.792,1.835-1.565,3.691-2.357,5.525c-0.618,1.43-1.256,4.348-2.512,5.314
			c-0.212,0.154,0.058,0.502,0.271,0.367c1.294-0.891,1.874-3.227,2.492-4.6c0.966-2.086,1.855-4.211,2.705-6.356
			C22.088,23.105,21.469,22.834,21.334,23.202z"/>
	</g>
</g>
</svg>
