<?xml version="1.0" encoding="utf-8"?>
<!-- Generator: Adobe Illustrator 16.0.0, SVG Export Plug-In . SVG Version: 6.00 Build 0)  -->
<!DOCTYPE svg PUBLIC "-//W3C//DTD SVG 1.1//EN" "http://www.w3.org/Graphics/SVG/1.1/DTD/svg11.dtd">
<svg version="1.1" id="Layer_1" xmlns="http://www.w3.org/2000/svg" xmlns:xlink="http://www.w3.org/1999/xlink" x="0px" y="0px"
	 width="48px" height="48px" viewBox="0 0 48 48" enable-background="new 0 0 48 48" xml:space="preserve">
<g>
	<path fill="#52B36E" d="M1,42.75c0,1.657,1.343,3,3,3h39.834c1.657,0,3-1.343,3-3V5.303c0-1.657-1.343-3-3-3H4
		c-1.657,0-3,1.343-3,3V42.75z"/>
</g>
<g>
	<g>
		<path fill="#FFFFFF" d="M12.105,17.653c-0.626,0.627-0.939,1.376-0.939,2.249v11.839c0,0.873,0.313,1.622,0.939,2.248
			c0.626,0.626,1.376,0.939,2.249,0.939h0.456V16.715h-0.456C13.481,16.715,12.731,17.027,12.105,17.653z"/>
		<path fill="#FFFFFF" d="M29.381,14.438c0-0.379-0.133-0.702-0.398-0.968s-0.588-0.398-0.968-0.398h-8.196
			c-0.379,0-0.702,0.133-0.968,0.398s-0.398,0.589-0.398,0.968v2.277h-2.277v18.214h15.482V16.715h-2.276V14.438L29.381,14.438z
			 M20.274,14.893h7.286v1.822h-7.286V14.893z M29.381,27.188c0,0.133-0.043,0.242-0.128,0.328
			c-0.085,0.085-0.194,0.127-0.327,0.127h-3.188v3.188c0,0.133-0.043,0.242-0.129,0.327c-0.084,0.086-0.193,0.128-0.326,0.128
			h-2.732c-0.133,0-0.242-0.042-0.328-0.128c-0.085-0.085-0.128-0.194-0.128-0.327v-3.188h-3.188c-0.133,0-0.242-0.042-0.327-0.127
			c-0.085-0.086-0.128-0.195-0.128-0.328v-2.732c0-0.133,0.042-0.241,0.128-0.327C18.666,24.043,18.775,24,18.908,24h3.188v-3.188
			c0-0.133,0.042-0.241,0.128-0.327c0.085-0.085,0.194-0.128,0.328-0.128h2.732c0.133,0,0.242,0.043,0.326,0.128
			c0.086,0.086,0.129,0.194,0.129,0.327V24h3.188c0.133,0,0.242,0.043,0.326,0.128c0.086,0.085,0.129,0.194,0.129,0.327V27.188
			L29.381,27.188L29.381,27.188z"/>
		<path fill="#FFFFFF" d="M35.728,17.653c-0.626-0.626-1.376-0.938-2.249-0.938h-0.455v18.214h0.455
			c0.873,0,1.623-0.313,2.249-0.939s0.938-1.375,0.938-2.248V19.902C36.666,19.029,36.354,18.28,35.728,17.653z"/>
	</g>
</g>
</svg>
