<?xml version="1.0" encoding="utf-8"?>
<!-- Generator: Adobe Illustrator 16.0.0, SVG Export Plug-In . SVG Version: 6.00 Build 0)  -->
<!DOCTYPE svg PUBLIC "-//W3C//DTD SVG 1.1//EN" "http://www.w3.org/Graphics/SVG/1.1/DTD/svg11.dtd">
<svg version="1.1" id="Layer_1" xmlns="http://www.w3.org/2000/svg" xmlns:xlink="http://www.w3.org/1999/xlink" x="0px" y="0px"
	 width="48px" height="48px" viewBox="0 0 48 48" enable-background="new 0 0 48 48" xml:space="preserve">
<g>
	<path fill="#949CED" d="M1,42.75c0,1.657,1.343,3,3,3h39.834c1.657,0,3-1.343,3-3V5.303c0-1.657-1.343-3-3-3H4
		c-1.657,0-3,1.343-3,3V42.75z"/>
</g>
<path fill="#FFFFFF" d="M34.049,11.815c0-0.108-0.073-0.203-0.179-0.23l-9.396-2.406V8.202c0-0.307-0.249-0.556-0.556-0.556
	c-0.307,0-0.556,0.249-0.556,0.556l0,8.43h-0.388c-0.131,0-0.238,0.106-0.238,0.237v2.573h-2.084v-2.573
	c0-0.131-0.106-0.237-0.238-0.237h-1.886c-0.131,0-0.238,0.106-0.238,0.237v2.573h-0.919h-1.165v-2.573
	c0-0.131-0.106-0.237-0.238-0.237h-1.887c-0.131,0-0.238,0.106-0.238,0.237v2.573v1.081v1.128v1.925
	c0,0.595,0.481,1.074,1.075,1.074h1.569l-2.639,14.803c-0.056,0.313,0.029,0.635,0.233,0.879c0.204,0.243,0.506,0.385,0.824,0.385
	H32.93c0.319,0,0.621-0.142,0.825-0.385c0.204-0.244,0.289-0.565,0.233-0.879l-2.64-14.803h1.569c0.594,0,1.075-0.479,1.075-1.074
	v-1.925v-1.128v-1.081v-2.573c0-0.131-0.106-0.237-0.238-0.237h-1.887c-0.132,0-0.238,0.106-0.238,0.237v2.573h-1.164h-0.92v-2.573
	c0-0.131-0.106-0.237-0.238-0.237h-1.886c-0.132,0-0.238,0.106-0.238,0.237v2.573H25.1v-2.573c0-0.131-0.107-0.237-0.238-0.237
	h-0.386l-0.002-2.18l9.396-2.407C33.976,12.018,34.049,11.923,34.049,11.815z M26.479,30.024v4.653H21.36v-4.653
	c0-1.413,1.145-2.559,2.56-2.559C25.333,27.466,26.479,28.611,26.479,30.024z"/>
</svg>
