<?xml version="1.0" encoding="utf-8"?>
<!-- Generator: Adobe Illustrator 19.2.0, SVG Export Plug-In . SVG Version: 6.00 Build 0)  -->
<svg version="1.1" id="Isolation_Mode" xmlns="http://www.w3.org/2000/svg" xmlns:xlink="http://www.w3.org/1999/xlink" x="0px"
	 y="0px" viewBox="0 0 624 183.5" style="enable-background:new 0 0 624 183.5;" xml:space="preserve">
<style type="text/css">
	.st0{fill:url(#SVGID_1_);}
	.st1{opacity:0.3;fill:url(#SVGID_2_);enable-background:new    ;}
	.st2{opacity:0.5;fill:#7F4098;enable-background:new    ;}
	.st3{fill:url(#SVGID_3_);}
	.st4{opacity:0.1;fill:#1C1515;enable-background:new    ;}
	.st5{fill:url(#SVGID_4_);}
	.st6{fill:none;}
	.st7{fill:url(#SVGID_5_);}
	.st8{opacity:0.4;fill:url(#SVGID_6_);enable-background:new    ;}
	.st9{opacity:0.3;fill:url(#SVGID_7_);enable-background:new    ;}
	.st10{fill:url(#SVGID_8_);}
	.st11{opacity:0.1;fill:url(#SVGID_9_);enable-background:new    ;}
	.st12{fill:url(#SVGID_10_);}
	.st13{opacity:0.4;fill:url(#SVGID_11_);enable-background:new    ;}
	.st14{fill:url(#SVGID_12_);}
	.st15{fill:#F29020;stroke:#F89D43;stroke-miterlimit:10;}
	.st16{fill:#EF5333;stroke:#EF5333;stroke-miterlimit:10;}
	.st17{fill:#F6AC41;}
</style>
<linearGradient id="SVGID_1_" gradientUnits="userSpaceOnUse" x1="-40.6684" y1="94.8235" x2="298.4989" y2="94.8235" gradientTransform="matrix(1.8398 0 0 -1 74.8218 183.08)">
	<stop  offset="0.2234" style="stop-color:#771C7B"/>
	<stop  offset="0.9971" style="stop-color:#5B416D"/>
</linearGradient>
<rect class="st0" width="624" height="176.5"/>
<linearGradient id="SVGID_2_" gradientUnits="userSpaceOnUse" x1="-40.6684" y1="87.8235" x2="298.4989" y2="87.8235" gradientTransform="matrix(1.8398 0 0 -1 74.8218 183.08)">
	<stop  offset="0.2234" style="stop-color:#771C7B"/>
	<stop  offset="0.9971" style="stop-color:#5B416D"/>
</linearGradient>
<rect y="7" class="st1" width="624" height="176.5"/>
<polygon class="st2" points="172.8,0 0,0 0,176.5 182.7,176.5 255,106.8 "/>
<linearGradient id="SVGID_3_" gradientUnits="userSpaceOnUse" x1="7.864" y1="88.3685" x2="247.169" y2="88.3685" gradientTransform="matrix(1 0 0 -1.0644 0 182.3159)">
	<stop  offset="0" style="stop-color:#300031"/>
	<stop  offset="0.7576" style="stop-color:#99258E"/>
	<stop  offset="0.9971" style="stop-color:#5B416D"/>
</linearGradient>
<polygon class="st3" points="142.6,0 7.9,0 7.9,176.5 168.2,176.5 247.2,102.9 "/>
<polygon class="st4" points="137.5,0 2.8,0 2.8,176.5 163.2,176.5 242.1,102.9 "/>
<linearGradient id="SVGID_4_" gradientUnits="userSpaceOnUse" x1="0" y1="88.3685" x2="239.305" y2="88.3685" gradientTransform="matrix(1 0 0 -1.0644 0 182.3159)">
	<stop  offset="0" style="stop-color:#F05A24"/>
	<stop  offset="1" style="stop-color:#FDDB00"/>
</linearGradient>
<polygon class="st5" points="134.7,0 0,0 0,176.5 160.3,176.5 239.3,102.9 "/>
<rect class="st6" width="307" height="176.5"/>
<radialGradient id="SVGID_5_" cx="193.9097" cy="86.2272" r="100.0961" gradientTransform="matrix(1 0 0 -1 0 183.08)" gradientUnits="userSpaceOnUse">
	<stop  offset="0.1075" style="stop-color:#F9EC23"/>
	<stop  offset="1" style="stop-color:#EE4723"/>
</radialGradient>
<polygon class="st7" points="231.8,101.5 0,176.5 139,176.5 "/>
<radialGradient id="SVGID_6_" cx="176.6245" cy="204.4469" r="113.5585" gradientTransform="matrix(1 0 0 -1 0 183.08)" gradientUnits="userSpaceOnUse">
	<stop  offset="0.1075" style="stop-color:#F9EC23"/>
	<stop  offset="1" style="stop-color:#EE4723"/>
</radialGradient>
<polygon class="st8" points="118.2,1.5 230.1,101.5 66.3,0 "/>
<linearGradient id="SVGID_7_" gradientUnits="userSpaceOnUse" x1="476.4925" y1="-63.6816" x2="535.456" y2="-63.6816" gradientTransform="matrix(0 1.0912 1.1985 0 669.9 -408.7936)">
	<stop  offset="0" style="stop-color:#300031"/>
	<stop  offset="0.7576" style="stop-color:#99258E"/>
	<stop  offset="0.9971" style="stop-color:#5B416D"/>
</linearGradient>
<polygon class="st9" points="624,111.2 563.2,175.5 624,175.5 "/>
<radialGradient id="SVGID_8_" cx="536.3687" cy="-88.8568" r="54.5622" fx="580.877" fy="-57.2966" gradientTransform="matrix(0 1 1 0 708.0848 -366.009)" gradientUnits="userSpaceOnUse">
	<stop  offset="0" style="stop-color:#F9EC23"/>
	<stop  offset="0.1075" style="stop-color:#F9EC23"/>
	<stop  offset="1" style="stop-color:#EE4723"/>
</radialGradient>
<polygon class="st10" points="624,116.5 573.2,175.5 624,175.5 "/>
<linearGradient id="SVGID_9_" gradientUnits="userSpaceOnUse" x1="434.4868" y1="-155.8158" x2="518.5738" y2="-155.8158" gradientTransform="matrix(0 1 1 0 708.0848 -366.009)">
	<stop  offset="0" style="stop-color:#E57426"/>
	<stop  offset="1" style="stop-color:#FFFFFF"/>
</linearGradient>
<polygon class="st11" points="624,92.4 480.5,176.5 624,176.5 "/>
<polygon class="st2" points="255.8,108.7 198.8,176.4 362.4,176.5 "/>
<linearGradient id="SVGID_10_" gradientUnits="userSpaceOnUse" x1="153.584" y1="36.012" x2="317.195" y2="36.012" gradientTransform="matrix(1 0 0 -1 0 183.08)">
	<stop  offset="0" style="stop-color:#F05A24"/>
	<stop  offset="1" style="stop-color:#FDDB00"/>
</linearGradient>
<polygon class="st12" points="255,117.6 200.2,176.4 363.8,176.5 "/>
<radialGradient id="SVGID_11_" cx="230.1265" cy="34.2125" r="26.2607" gradientTransform="matrix(1 0 0 -1 0 183.08)" gradientUnits="userSpaceOnUse">
	<stop  offset="0.1075" style="stop-color:#F9EC23"/>
	<stop  offset="1" style="stop-color:#EE4723"/>
</radialGradient>
<polygon class="st13" points="255,121.3 205.2,176.4 234.4,176.4 "/>
<g>
	
		<linearGradient id="SVGID_12_" gradientUnits="userSpaceOnUse" x1="234.661" y1="122.827" x2="259.598" y2="122.827" gradientTransform="matrix(1 0 0 -1 0 183.08)">
		<stop  offset="0" style="stop-color:#F05A24"/>
		<stop  offset="1" style="stop-color:#FDDB00"/>
	</linearGradient>
	<polygon class="st14" points="255,94.6 259.6,25.9 234.7,37.7 	"/>
	<polygon class="st15" points="255,94.6 208,31.2 234.7,37.7 	"/>
	<polygon class="st16" points="257.4,26.5 208,30.3 234.7,37.7 	"/>
</g>
<g>
	<polygon class="st17" points="268.4,85.9 282,100.1 264.4,103.3 	"/>
</g>
<g>
	<polygon class="st2" points="309.1,122.4 282.2,109.5 294.9,96.9 	"/>
</g>
<g>
	<polygon class="st2" points="283.8,77.7 274.7,83.7 273.2,77.4 	"/>
</g>
</svg>
