<?xml version="1.0" encoding="utf-8"?>
<!-- Generator: Adobe Illustrator 19.2.0, SVG Export Plug-In . SVG Version: 6.00 Build 0)  -->
<svg version="1.1" id="Isolation_Mode" xmlns="http://www.w3.org/2000/svg" xmlns:xlink="http://www.w3.org/1999/xlink" x="0px"
	 y="0px" viewBox="0 0 179.2 175.1" style="enable-background:new 0 0 179.2 175.1;" xml:space="preserve">
<style type="text/css">
	.st0{opacity:0.3;enable-background:new    ;}
	.st1{fill:#7B1749;}
	.st2{fill:#FF17E3;}
	.st3{fill:url(#SVGID_1_);}
	.st4{opacity:0.75;fill:url(#SVGID_2_);enable-background:new    ;}
	.st5{opacity:0.33;fill:url(#SVGID_3_);enable-background:new    ;}
	.st6{opacity:0.41;fill:#842336;enable-background:new    ;}
	.st7{fill:#F5F5F5;}
	.st8{opacity:0.72;fill:#DB94F5;enable-background:new    ;}
</style>
<g>
	<path class="st0" d="M179.1,88.6C181.6,139,132,183,78.3,172.2c-4.9-0.8-9.7-2-14.3-3.6C35.8,159,11.5,135,2.5,106.8
		c-0.8-4.1-1.1-8.2-1.1-12.2c0-28,17.2-52.5,34.6-73c2.8-2.8,5.8-5.4,9-7.8c3.2-2.4,6.6-4.5,10.2-6.4c13.6-6.8,28.2-8.7,42.6-6.7
		c4.8,0.7,9.5,1.7,14.2,3.2c25.2,8.2,46.8,25.5,58.3,48.4c1.9,3.8,3.6,7.8,4.9,11.9c1.3,4.1,2.4,8.4,3.1,12.8
		C178.8,80.8,179.1,84.7,179.1,88.6z"/>
	<path class="st1" d="M172.8,85.3c2.3,47-47.3,85.5-92.3,76.5c-4.5-0.7-8.8-1.8-13.1-3.3c-25.7-8.8-47.9-30.7-56.2-56.6
		c-0.7-3.8-1-7.5-1-11.2c0-25.6,15.7-48,31.7-66.8c2.6-2.6,5.3-4.9,8.2-7.1c2.9-2.2,6-4.1,9.3-5.8c12.4-6.2,25.8-7.9,38.9-6.1
		c4.4,0.6,8.7,1.6,13,3c23.1,7.5,42.8,23.4,53.3,44.2c1.8,3.5,3.3,7.1,4.5,10.9c1.2,3.8,2.2,7.7,2.9,11.7
		C172.5,78.1,172.8,81.7,172.8,85.3z"/>
	<path class="st2" d="M170.4,85.2c2.3,45.6-45.9,83-89.6,74.3c-4.3-0.7-8.6-1.8-12.7-3.2c-24.9-8.5-46.5-29.8-54.5-54.9
		c-0.7-3.7-1-7.3-1-10.8c0-24.9,15.2-46.6,30.8-64.8c2.5-2.5,5.2-4.8,8-6.9c2.8-2.1,5.8-4,9-5.7c12-6,25.1-7.7,37.8-5.9
		c4.2,0.6,8.5,1.5,12.6,2.9c22.4,7.3,41.5,22.7,51.8,42.9c1.7,3.4,3.2,6.9,4.4,10.5c1.2,3.6,2.1,7.4,2.8,11.4
		C170.1,78.3,170.4,81.7,170.4,85.2z"/>
	<g>
		
			<linearGradient id="SVGID_1_" gradientUnits="userSpaceOnUse" x1="85.9408" y1="171.5444" x2="96.6971" y2="7.2678" gradientTransform="matrix(1 0 0 -1 0 174.355)">
			<stop  offset="0.2606" style="stop-color:#E007C7"/>
			<stop  offset="1" style="stop-color:#991E3A"/>
		</linearGradient>
		<path class="st3" d="M167.8,85.2c2.2,44-44.3,80.2-86.6,71.8c-4.2-0.7-8.3-1.7-12.3-3.1c-24.1-8.2-44.9-28.8-52.7-53.1
			c-0.6-3.6-1-7-1-10.5c0-24,14.7-45,29.7-62.6c2.4-2.4,5-4.6,7.7-6.7c2.7-2,5.6-3.9,8.7-5.5C73,9.7,85.6,8.1,97.9,9.8
			c4.1,0.6,8.2,1.5,12.2,2.8c21.6,7.1,40.1,21.9,50,41.5c1.6,3.3,3.1,6.7,4.2,10.2c1.1,3.5,2.1,7.2,2.7,11
			C167.5,78.5,167.8,81.8,167.8,85.2z"/>
		
			<linearGradient id="SVGID_2_" gradientUnits="userSpaceOnUse" x1="121.9352" y1="-147.5836" x2="75.3967" y2="210.8611" gradientTransform="matrix(1 0 0 -1 0 174.355)">
			<stop  offset="0.2606" style="stop-color:#E007C7"/>
			<stop  offset="1" style="stop-color:#991E3A"/>
		</linearGradient>
		<path class="st4" d="M125.4,30.3c5.6,0.4,11.2,0.7,16.9,0.7c-9.1-8.2-20.2-14.5-32.2-18.4c-4-1.3-8.1-2.2-12.2-2.8
			C85.6,8.1,73,9.7,61.4,15.5c-3.1,1.6-6,3.4-8.7,5.5c-2.7,2-5.3,4.3-7.7,6.7c-3.1,3.6-6.1,7.4-9.1,11.3c15.4-5.7,32.3-8.1,48.5-9.8
			C98,27.6,111.8,29.4,125.4,30.3z M85.1,66.1c16.3-0.7,32.6-0.1,48.8-1.6c7.9-0.7,20.3-1.6,27.9-6.7c-0.6-1.3-1.1-2.6-1.8-3.8
			c-2.1-4.1-4.5-8-7.3-11.6c-21.1,2.5-43.2-3.3-64.3-1.8C67,42.2,42.1,45.7,23.6,58.2c-3.5,6.8-6.1,13.9-7.4,21.4
			c7.4-3.4,15.4-5.7,23-7.4C54.1,68.8,69.8,66.7,85.1,66.1z M167.8,85.2c0-3.4-0.3-6.7-0.8-10c-0.3-2-0.8-4-1.3-6
			c-7.3,3.7-16.1,5.2-23.4,6.2c-16.4,2.2-33,2-49.5,2.3C78,78,63.2,79.5,48.7,82.3c-10.4,2-23.4,4.7-33.4,10.8
			c0.1,2.5,0.4,5.1,0.9,7.7c1.6,4.9,3.6,9.6,6.2,14.1C41.5,97.6,73.5,98,97.7,98c15.5,0,31.6,0.9,47-1.4c8.5-1.3,17.9-3.6,23.1-9.7
			C167.8,86.3,167.8,85.8,167.8,85.2z M107.4,109.9c-16.6-0.1-33.6-0.7-50,2.4c-10.4,1.9-20.9,5.3-28.4,12.6
			c5.2,6.7,11.3,12.6,18.2,17.6c14.9-14,40.2-13.9,60-13.4c13.9,0.4,28.2,1.6,42-0.5c1.5-0.2,3.1-0.5,4.6-0.8
			c5.8-7.5,10.1-16,12.3-25.1c-3.8,1.9-8,3.3-12.3,4.3C138.6,110.3,122.8,110,107.4,109.9z M115.8,141.2
			c-17.4-0.5-42.8-3.4-57.8,7.9c3.5,1.8,7.2,3.4,10.9,4.7c4,1.4,8.1,2.4,12.3,3.1c20.8,4.2,42.5-2.5,59.1-15.5
			C131.8,141.8,123.4,141.5,115.8,141.2z"/>
		
			<linearGradient id="SVGID_3_" gradientUnits="userSpaceOnUse" x1="85.6515" y1="163.8355" x2="95.2866" y2="16.682" gradientTransform="matrix(1 0 0 -1 0 174.355)">
			<stop  offset="0.2606" style="stop-color:#E007C7"/>
			<stop  offset="1" style="stop-color:#991E3A"/>
		</linearGradient>
		<path class="st5" d="M37.7,96.6c8.1,4.8,18,8.7,27.4,8.8c2.7,0.1,5.4,0.1,8.1,0c8.1-0.4,16.2-1.9,24-4.8c3-1.1,6-2.4,8.8-3.8
			c2.2-1.1,4.3-2.3,6.3-3.5s4-2.6,5.9-4.1c11.6-9.6,31.4-11.5,33.4-26.4c1.2-9.9-2.3-18.8-8.5-26.2c-1.5-1.9-3.3-3.6-5.1-5.2
			c-24-18.1-59.7-21.1-84.2-4.3c-2.8,2.1-5.5,4.5-7.9,7.2c-4.8,5.3-8.8,11.6-11.4,18.8c-1.6,3.3-2.9,6.6-4,10.1
			c-2.2,6.9-3.4,14-3.3,21c0.8,2.8,2.2,5.2,4.3,7.1C33.7,93.5,35.9,95.4,37.7,96.6z"/>
		<path class="st6" d="M93.9,135.5c-16.4-0.3-33.6-2.1-49.4-6.5c-6-1.7-11.8-3.8-17.2-6.5c10.3,14.4,25.2,25.7,41.7,31.4
			c4,1.4,8.1,2.4,12.3,3.1c35.9,7.2,74.8-17.8,84.4-52.5C148.1,125.1,121.6,135.9,93.9,135.5z"/>
		<path class="st7" d="M31.9,56.8c3.9,5.1,12.4-11.7,28.4-22.3c15.3-10.1,38.1-13.9,38.9-17.3c1-3.8-24-2.2-43.2,8.5
			C39.8,34.7,28.4,52.3,31.9,56.8z"/>
		<path class="st8" d="M158,101.7c-4.8-4.2-10,13.9-23.7,27.2c-13.1,12.8-34.8,20.8-35,24.3c-0.2,3.9,24-2.3,40.9-16.4
			C154.4,124.9,162.2,105.5,158,101.7z"/>
	</g>
</g>
</svg>
