<?xml version="1.0" encoding="utf-8"?>
<!-- Generator: Adobe Illustrator 19.2.0, SVG Export Plug-In . SVG Version: 6.00 Build 0)  -->
<svg version="1.1" id="Layer_1" xmlns="http://www.w3.org/2000/svg" xmlns:xlink="http://www.w3.org/1999/xlink" x="0px" y="0px"
	 viewBox="0 0 42.9 41.7" style="enable-background:new 0 0 42.9 41.7;" xml:space="preserve">
<style type="text/css">
	.st0{display:none;fill:#6D5D5D;}
	.st1{opacity:0.2;}
	.st2{clip-path:url(#SVGID_2_);}
	.st3{fill:#FFFFFF;}
	.st4{display:none;opacity:0.2;fill:#070707;enable-background:new    ;}
	.st5{display:none;}
	.st6{display:none;fill:#FFFFFF;}
</style>
<g>
	<rect x="-4.4" y="-8.7" class="st0" width="51" height="58"/>
	<g class="st1">
		<g>
			<g>
				<defs>
					<rect id="SVGID_1_" x="27.8" y="15.9" width="15.1" height="14.9"/>
				</defs>
				<clipPath id="SVGID_2_">
					<use xlink:href="#SVGID_1_"  style="overflow:visible;"/>
				</clipPath>
				<path class="st2" d="M37.9,30.3l-2.8-2.8l-2.7,2.7c-0.6,0.6-1.7,0.6-2.3,0l-1.8-1.8c-0.6-0.6-0.6-1.7,0-2.3l2.7-2.7l-2.7-2.7
					c-0.6-0.6-0.6-1.7,0-2.3l1.7-1.7c0.7-0.7,1.8-0.6,2.4,0.1l2.5,2.8l3.1-3.1c0.6-0.6,1.4-0.6,2.1-0.2l2.1,1.5
					c0.8,0.6,0.9,1.8,0.2,2.5l-3.7,3.7l2.9,3.2c0.6,0.7,0.5,1.8-0.2,2.4l-1.3,1C39.5,30.9,38.5,30.9,37.9,30.3"/>
			</g>
		</g>
	</g>
	<g>
		<g class="st1">
			<path d="M19.8,3.8l-10.5,11H2.4C1,14.8-0.1,16,0,17.5l0.5,12.4c0.1,1.4,1.1,2.5,2.4,2.5l6.8-0.1l11.9,8.9
				c1.9,1.4,4.5-0.1,4.4-2.6L24.6,5.8C24.4,3.2,21.5,2,19.8,3.8z"/>
		</g>
		<g>
			<path class="st3" d="M19.8,0.8l-10.5,11H2.4C1,11.8-0.1,13,0,14.5l0.5,12.4c0.1,1.4,1.1,2.5,2.4,2.5l6.8-0.1l11.9,8.9
				c1.9,1.4,4.5-0.1,4.4-2.6L24.6,2.8C24.4,0.2,21.5-1,19.8,0.8z"/>
		</g>
	</g>
	<path class="st3" d="M37.9,27.3l-2.8-2.8l-2.7,2.7c-0.6,0.6-1.7,0.6-2.3,0l-1.8-1.8c-0.6-0.6-0.6-1.7,0-2.3l2.7-2.7l-2.7-2.7
		c-0.6-0.6-0.6-1.7,0-2.3l1.7-1.7c0.7-0.7,1.8-0.6,2.4,0.1l2.5,2.8l3.1-3.1c0.6-0.6,1.4-0.6,2.1-0.2l2.1,1.5
		c0.8,0.6,0.9,1.8,0.2,2.5l-3.7,3.7l2.9,3.2c0.6,0.7,0.5,1.8-0.2,2.4l-1.3,1C39.5,27.9,38.5,27.8,37.9,27.3"/>
	<path class="st4" d="M34.2,15.5c-0.9-0.8-2.3-0.6-3,0.4l-0.6,1c-0.4,0.8-0.3,1.7,0.4,2.4c1.1,1.1,1.7,2.5,1.7,4
		c0,1.2-0.4,2.4-1.1,3.3c-0.5,0.7-0.6,1.7,0,2.4l0.7,0.9c0.8,1,2.2,0.9,3,0c1.5-1.9,2.3-4.2,2.3-6.6C37.6,20.3,36.3,17.5,34.2,15.5z
		"/>
	<rect x="-10.4" y="-8.7" class="st5" width="0" height="0.5"/>
</g>
<path class="st6" d="M34.2,12.5c-0.9-0.8-2.3-0.6-3,0.4l-0.6,1c-0.4,0.8-0.3,1.7,0.4,2.4c1.1,1.1,1.7,2.5,1.7,4
	c0,1.2-0.4,2.4-1.1,3.3c-0.5,0.7-0.6,1.7,0,2.4l0.7,0.9c0.8,1,2.2,0.9,3,0c1.5-1.9,2.3-4.2,2.3-6.6C37.6,17.3,36.3,14.5,34.2,12.5z"
	/>
</svg>
