
<svg xmlns="http://www.w3.org/2000/svg" version="1.1" xmlns:xlink="http://www.w3.org/1999/xlink" preserveAspectRatio="none" x="0px" y="0px" width="76px" height="70px" viewBox="0 0 76 70">
<defs>
<filter id="Filter_1" x="-20%" y="-20%" width="140%" height="140%" color-interpolation-filters="sRGB">
<feColorMatrix in="SourceGraphic" type="matrix" values="0 0 0 0 0.6 0 0 0 0 0.6 0 0 0 0 0.6 0 0 0 1 0" result="result1"/>
</filter>

<filter id="Filter_2" x="-20%" y="-20%" width="140%" height="140%" color-interpolation-filters="sRGB">
<feColorMatrix in="SourceGraphic" type="matrix" values="0 0 0 0 0.41568627450980394 0 0 0 0 0.41568627450980394 0 0 0 0 0.41568627450980394 0 0 0 1 0" result="result1"/>
</filter>

<filter id="Filter_3" x="-20%" y="-20%" width="140%" height="140%" color-interpolation-filters="sRGB">
<feColorMatrix in="SourceGraphic" type="matrix" values="0 0 0 0 0.7725490196078432 0 0 0 0 0.7568627450980392 0 0 0 0 0.7568627450980392 0 0 0 1 0" result="result1"/>
</filter>

<filter id="Filter_4" x="-20%" y="-20%" width="140%" height="140%" color-interpolation-filters="sRGB">
<feColorMatrix in="SourceGraphic" type="matrix" values="0 0 0 0 0.6431372549019608 0 0 0 0 0.6431372549019608 0 0 0 0 0.6431372549019608 0 0 0 1 0" result="result1"/>
</filter>

<filter id="Filter_5" x="-20%" y="-20%" width="140%" height="140%" color-interpolation-filters="sRGB">
<feColorMatrix in="SourceGraphic" type="matrix" values="0 0 0 0 0 0 0 0 0 0 0 0 0 0 0 0 0 0 0.2 0" result="result1"/>
</filter>

<filter id="Filter_6" x="-20%" y="-20%" width="140%" height="140%" color-interpolation-filters="sRGB">
<feColorMatrix in="SourceGraphic" type="matrix" values="0.3 0 0 0 0 0 0.3 0 0 0 0 0 0.3 0 0 0 0 0 1 0" result="result1"/>
</filter>

<g id="Layer0_0_MEMBER_0_MEMBER_0_FILL">
<path fill="#000000" fill-opacity="0.2" stroke="none" d="
M 226.2 154.5
Q 212.75 154.5 212.8 168.4
L 212.65 206.4
Q 212.7 211.5 216.2 214.45 219.35 217.15 224.55 217.15
L 271.9 217.4
Q 275.8 217.25 278.85 214.7 282.7 211.35 282.8 205
L 283 167.95
Q 283.15 161.4 279.85 157.85 276.9 154.85 271.8 154.65
L 226.2 154.5 Z"/>
</g>

<g id="Graphic_shape_994_0_Layer0_0_FILL">
<path fill="#F1FEFF" stroke="none" d="
M 10.1 2.7
Q 11.45 3.95 11.45 5.75
L 11.85 30.75 12.7 31.15 12.95 5.1
Q 12.95 3 11.45 1.5 9.95 0 7.85 0 2.25 0.35 2.25 0.75
L 3.55 1.1 5 1.3 6.95 1.45
Q 8.75 1.45 10.1 2.7 Z"/>
</g>

<g id="Graphic_shape_995_0_Layer0_0_FILL">
<path fill="#FFFFFF" stroke="none" d="
M 54.6 10.5
Q 54.7 5.4 52.15 2.65 49.85 0.3 45.9 0.15
L 10.45 0.05
Q 0 0.05 0.05 10.85
L 0.65 40.4
Q 0.85 48.5 9.2 48.5
L 45.95 48.9
Q 49 48.8 51.35 46.8 54.35 44.2 54.45 39.3
L 54.6 10.5 Z"/>
</g>

<g id="Graphic_shape_996_0_Layer0_0_FILL">
<path fill="#FFFFFF" stroke="none" d="
M 40.65 40.55
L 47.65 40.45
Q 46 37.55 39.6 30.9 33.75 24.95 25.5 17.55
L 23.6 15.9 22.65 15.1 21.7 14.25 20.75 13.45 19.8 12.65 18.85 11.85 17.9 11.05 14.25 8.15 12.5 6.8 11.65 6.2 10.8 5.55 4.85 1.65
Q 2.05 0.1 0.7 0 0.5 0.95 0.35 5.1
L 0.3 7.25 0.25 9.6 0.25 10.9 0.2 12.15 0.15 14.8 0.15 32.3
Q 0.2 36.25 2.9 38.55 5.35 40.65 9.4 40.65
L 26 40.65 29.05 40.6 38 40.6 40.65 40.55 Z"/>
</g>

<g id="Graphic_shape_997_0_Layer0_0_FILL">
<path fill="#FFFFFF" stroke="none" d="
M 51 11.8
L 51 9.4
Q 51.1 0.9 42.95 0.35
L 36.85 0.25 27.45 0.25 24.95 0.3 22.4 0.3 19.9 0.35 17.55 0.35 15.3 0.4 9.85 0.4
Q 4.3 0.4 2.25 2.35 0.25 4.25 0.25 9.2
L 0.25 13.1 0.2 17.15 0.2 21.2 0.15 25.1
Q 0.05 33.85 0.2 37.4 0.5 45.05 8.7 45.05
L 11.5 45.05 13.35 45.1 17.85 45.1 19.1 45.15 25.6 45.15 26.95 45.2 35.5 45.2 41.6 45.2
Q 46.1 45.1 48.3 43.15 50.75 40.95 50.85 36.2
L 50.9 33.7 50.95 30.4 50.95 14.95 51 11.8 Z"/>
</g>

<g id="MovieClip_sprite_1000_0_Layer2_1_FILL">
<path fill="#FF6600" stroke="none" d="
M 41.7 37.25
Q 44.9 37.15 46.45 35.85 48.15 34.3 48.25 30.95
L 48.35 12.1
Q 48.4 6.1 42.65 5.7
L 13.05 5.75
Q 9.15 5.75 7.7 7.1 6.3 8.45 6.3 11.9
L 6.2 23.1
Q 6.15 29.25 6.25 31.75 6.5 37.1 12.25 37.1
L 41.7 37.25 Z"/>
</g>

<g id="Graphic_shape_998_0_Layer0_0_FILL">
<path fill="#FFFFFF" stroke="none" d="
M 42.95 10.9
Q 50.85 10.55 50.8 1.75 49.85 3.75 47.25 4.65 45.05 5.45 41.25 5.45
L 5.9 5.2
Q 3.9 4.95 2.1 3.25 0.6 1.75 0 0
L 0.25 4.65
Q 0.6 6.9 2.2 8.75 4.1 10.85 6.95 11
L 17.1 11.25 22.7 11.25 25.5 11.25 28.25 11.2 42.95 10.9 Z"/>
</g>

<g id="Graphic_shape_999_0_Layer0_0_FILL">
<path fill="#FFFFFF" stroke="none" d="
M 1.1 2.1
L 0 0 0.25 5.4 0.6 6.9 1.05 7.85 1.65 8.7 2 9.1
Q 3.75 10.8 6.25 10.95
L 6.1 5.4 4.35 4.85 3.05 4.05 2.6 3.7 1.1 2.1 Z"/>
</g>

<g id="Duplicate_Items_Folder_shape_1876_0_Layer0_0_FILL">
<path fill="#FFFFFF" stroke="none" d="
M 47.75 18.75
L 47.3 18.3 24.65 1.85
Q 21.6 0.3 18.95 1.5 15.95 2.65 16.05 6.55
L 16 12.95 15.95 12.95 15.95 42.85 15.85 42.85
Q 16.6078125 45.5783203125 19.65 46.55 23.05 47.6 25.95 45.65
L 26.15 45.5 48 26.05
Q 50.8 23.1 47.75 18.75 Z"/>
</g>

<g id="Duplicate_Items_Folder_shape_1877_0_Layer3_0_FILL">
<path fill="#FFFFFF" stroke="none" d="
M 46.2 24.25
Q 48.85 22.3 46.5 18.95
L 24.15 2.7
Q 21.8 1.5 20.25 2.3 18.5 3 18.6 5.5
L 18.2 40.6
Q 18.4 42.7 20.8 43.5 23.1 44.35 25.25 42.9
L 46.2 24.25 Z"/>
</g>

<g id="Duplicate_Items_Folder_shape_1877_0_Layer2_0_FILL">
<path fill="#A4A4A4" stroke="none" d="
M 46.55 19.7
L 45.7 21.35 25.2 40.05
Q 23.25 41.45 20.95 40.7 18.7 40 18.25 38
L 18.2 40.95
Q 18.4 43.15 20.75 43.95 23.1 44.8 25.2 43.35
L 46.15 24.25
Q 48.9 22.3 46.45 18.85
L 46.55 19.7 Z"/>
</g>

<g id="Duplicate_Items_Folder_shape_1877_0_Layer0_0_FILL">
<path fill="#797979" stroke="none" d="
M 18.15 37.45
L 18.25 41.35 18.4 41.9 18.65 42.4 19.45 43.3 20.05 43.7 20.7 44 21.5 44.2 22.35 44.3 22.2 40.8 21.25 40.85 20.45 40.65 19.75 40.25 19.15 39.65 18.7 39 18.2 37.45 18.2 36.65 18.15 37.45 Z"/>
</g>
</defs>

<g transform="matrix( 1, 0, 0, 1, -212.65,-146.75) ">
<use xlink:href="#Layer0_0_MEMBER_0_MEMBER_0_FILL"/>
</g>

<g transform="matrix( 1.286865234375, 0, 0, 1.286865234375, 6.45,0) ">
<g transform="matrix( 1, 0, 0, 1, 17.8,10.25) ">
<g transform="matrix( 1, 0, 0, 1, 0,0) ">
<use xlink:href="#Graphic_shape_994_0_Layer0_0_FILL"/>
</g>
</g>

<g transform="matrix( 1, 0, 0, 1, 0.1,-0.05) ">
<g transform="matrix( 1, 0, 0, 1, 0,0) ">
<use filter="url(#Filter_1)" xlink:href="#Graphic_shape_995_0_Layer0_0_FILL"/>
</g>
</g>

<g transform="matrix( 1, 0, 0, 1, -0.1,8.05) ">
<g transform="matrix( 1, 0, 0, 1, 0,0) ">
<use filter="url(#Filter_2)" xlink:href="#Graphic_shape_996_0_Layer0_0_FILL"/>
</g>
</g>

<g transform="matrix( 1, 0, 0, 1, 1.85,1.5) ">
<g transform="matrix( 1, 0, 0, 1, 0,0) ">
<use xlink:href="#Graphic_shape_997_0_Layer0_0_FILL"/>
</g>
</g>

<g transform="matrix( 1, 0, 0, 1, 0,0) ">
<use xlink:href="#MovieClip_sprite_1000_0_Layer2_1_FILL"/>
</g>

<g transform="matrix( 1, 0, 0, 1, 1.95,35.95) ">
<g transform="matrix( 1, 0, 0, 1, 0,0) ">
<use filter="url(#Filter_3)" xlink:href="#Graphic_shape_998_0_Layer0_0_FILL"/>
</g>
</g>

<g transform="matrix( 1, 0, 0, 1, 1.8,35.9) ">
<g transform="matrix( 1, 0, 0, 1, 0,0) ">
<use filter="url(#Filter_4)" xlink:href="#Graphic_shape_999_0_Layer0_0_FILL"/>
</g>
</g>
</g>

<g transform="matrix( 0.752410888671875, 0, 0, 0.6837310791015625, 17.9,11.1) ">
<g transform="matrix( 1, 0, 0, 1, 0,2.65) ">
<g transform="matrix( 1, 0, 0, 1, 0,0) ">
<use filter="url(#Filter_5)" xlink:href="#Duplicate_Items_Folder_shape_1876_0_Layer0_0_FILL"/>
</g>
</g>

<g transform="matrix( 0.999908447265625, 0.0000457763671875, -0.00006103515625, 0.999969482421875, 0.45,-1) ">
<g transform="matrix( 1, 0, 0, 1, 0,0) ">
<use filter="url(#Filter_6)" xlink:href="#Duplicate_Items_Folder_shape_1876_0_Layer0_0_FILL"/>
</g>
</g>

<g transform="matrix( 1, 0, 0, 1, 0,0) ">
<g transform="matrix( 1, 0, 0, 1, 0,0) ">
<use xlink:href="#Duplicate_Items_Folder_shape_1877_0_Layer3_0_FILL"/>
</g>

<g transform="matrix( 1, 0, 0, 1, 0,0) ">
<use xlink:href="#Duplicate_Items_Folder_shape_1877_0_Layer2_0_FILL"/>
</g>

<g transform="matrix( 1, 0, 0, 1, 0,0) ">
<use xlink:href="#Duplicate_Items_Folder_shape_1877_0_Layer0_0_FILL"/>
</g>
</g>
</g>
</svg>
