<?xml version="1.0" encoding="UTF-8"?>
<!DOCTYPE svg PUBLIC "-//W3C//DTD SVG 1.1//EN" "http://www.w3.org/Graphics/SVG/1.1/DTD/svg11.dtd">
<!-- Creator: CorelDRAW X7 -->
<svg xmlns="http://www.w3.org/2000/svg" xml:space="preserve" width="49.503mm" height="10.429mm" version="1.1" style="shape-rendering:geometricPrecision; text-rendering:geometricPrecision; image-rendering:optimizeQuality; fill-rule:evenodd; clip-rule:evenodd"
viewBox="0 0 1040676 219244"
 xmlns:xlink="http://www.w3.org/1999/xlink">
 <defs>
  <style type="text/css">
   <![CDATA[
    .fil1 {fill:#CCE7D4}
    .fil0 {fill:#CCE7D4;fill-rule:nonzero}
   ]]>
  </style>
 </defs>
 <g id="Layer_x0020_1">
  <metadata id="CorelCorpID_0Corel-Layer"/>
  <g id="_2395373040">
   <path class="fil0" d="M69463 12424l312816 -12292c2300,-239 4604,-140 6837,249 4940,864 9571,3174 13095,6331 3597,3225 6092,7365 6689,11819 235,1758 177,3566 -227,5384l-32642 147124c-1370,6185 -4419,11934 -9029,16030 -4337,3849 -9975,6239 -16833,6239l-55339 -1905 2232 -3920 5304 2953 3656 -6315 31809 1138c3944,0 7205,-1388 9719,-3620 3076,-2731 5144,-6717 6109,-11077l30441 -137199c200,-906 229,-1817 111,-2706 -328,-2441 -1757,-4764 -3826,-6620 -2138,-1917 -4915,-3311 -7854,-3824 -1242,-219 -2512,-273 -3765,-141l-299438 10877c-740,78 -1411,171 -1993,278 -4125,746 -8115,2426 -10923,4778 -2449,2050 -3925,4631 -3543,7499 40,301 82,540 118,708l27058 117682c1007,4381 3086,8388 6170,11132 2502,2213 5739,3592 9673,3592l141187 5042c-1146,1919 -2256,3763 -2672,4652l5533 3204 -140931 -4848c-6830,0 -12436,-2384 -16759,-6221l-17 -14c-4603,-4089 -7652,-9835 -9067,-16003l-29015 -126194c-126,-550 -216,-1019 -269,-1416 -786,-5891 1974,-10966 6595,-14838 4234,-3545 10112,-6046 16109,-7135 1041,-187 2002,-330 2881,-423z"/>
   <path class="fil0" d="M119576 45779l91719 -9681c1064,-112 2130,-65 3162,115 2285,400 4425,1468 6056,2929 1663,1490 2817,3403 3093,5464 109,813 82,1650 -105,2489l-15095 68035c-634,2861 -2043,5518 -4175,7412 -2005,1781 -4614,2887 -7784,2887l-63209 0c-3157,0 -5749,-1104 -7748,-2878l-9 -7c-2129,-1892 -3538,-4547 -4194,-7400l-13416 -58356c-59,-254 -101,-471 -124,-654 -364,-2724 912,-5070 3050,-6861 1955,-1640 4675,-2796 7448,-3301 482,-86 927,-151 1331,-193zm85471 -461l-85532 9027c-343,36 -652,78 -921,126 -1909,347 -3754,1123 -5052,2212 -1133,948 -1816,2140 -1637,3467 17,138 36,250 54,327l12511 54419c467,2027 1427,3879 2855,5149 1156,1024 2653,1660 4471,1660l58945 0c1825,0 3332,-641 4495,-1673 1421,-1263 2377,-3107 2825,-5123l14077 -63444c92,-420 105,-841 50,-1251 -151,-1129 -811,-2203 -1768,-3063 -990,-885 -2272,-1530 -3632,-1768 -574,-98 -1163,-126 -1741,-65z"/>
   <path class="fil1" d="M235912 159224c-485,841 -965,1283 -1572,2349l-4671 8091c862,498 1747,986 2598,1493 954,565 1356,1007 2487,1658 -3130,5420 -5785,10392 -8901,15788 4423,2554 8462,5100 13013,7728l26696 15414c4604,2657 8891,4917 13362,7499 768,-1331 972,-2393 2119,-3829 972,-1217 2573,-4362 3576,-6052 528,-889 757,-938 1289,-1827 879,-1469 1257,-2569 2169,-4150 854,1247 3827,2210 5178,2990 3059,-5296 6030,-10068 9130,-15439 1600,485 3072,1665 4472,2392 776,406 805,397 1276,-340 1202,-1890 2399,-4205 3540,-6181 2336,-4047 4671,-8092 7007,-12136l10274 -17798c-1432,-832 -4211,-2176 -5302,-3202l-21286 36764 -5304 -2953 -9020 15849 -5428 -3074 -6103 10436 -42108 -24382c963,-2062 5668,-9269 5884,-10602l-5134 -3025c1567,-2714 3152,-5420 4705,-8140 1554,-2722 1640,-2222 -160,-3273 -1246,-730 -2470,-1478 -3786,-2048z"/>
   <path class="fil1" d="M251929 119122l-3063 5302 5235 3088 -2918 5153 5203 3006 33428 -57982 -5144 -2916c-42,23 -74,27 -116,86l-223 202c-31,38 -69,80 -105,124l-26999 46748c-1909,-1100 -3410,-1850 -5298,-2811z"/>
   <path class="fil1" d="M300630 84000l-27460 47365 5206 3040 12134 -21037c1148,351 9872,5375 10618,6141 1148,1183 11117,6575 13360,7870 36,-277 437,-166 -759,-901l-10543 -6055c-2529,-1440 -2331,-446 1047,-6298l-7936 -4575c-1034,-599 -1354,-1005 -2487,-1658l12050 -20874c-1347,-777 -2190,-1599 -3956,-2499 -736,-376 -637,-179 -1274,-519z"/>
   <path class="fil1" d="M313956 133821l3053 -5201c-806,-465 -1667,-1108 -2521,-1241 -2243,-1295 -12212,-6687 -13360,-7870l-12195 20976 5273 3050 9149 -15807 10601 6093z"/>
   <path class="fil1" d="M235269 123719c-452,745 -637,719 -1652,2490 -528,916 -1060,1833 -1588,2749l5014 2897c-496,1636 -4917,9267 -5747,10703l5178 2989 -4579 7930c-656,1122 -780,1726 -1331,2680l5117 2956c2155,-2809 4610,-7324 6298,-10562l-5177 -3082 6027 -10496 -5235 -3135 2977 -5268c-1722,-1028 -3435,-2188 -5302,-2851z"/>
   <path class="fil1" d="M235315 123522l6074 -10444 10540 6044 1672 -2498c449,-925 777,-1715 1438,-2857l-14077 -8129c-2262,-1322 -1705,-1530 -3530,1631l-6731 11651c-696,1171 -1217,1415 -154,2092 1014,645 3913,2516 4768,2510z"/>
   <path class="fil1" d="M321179 145213c814,-36 162,239 816,-543 42,-48 391,-708 458,-826 204,-1297 1392,-2779 2082,-3975l-10579 -6048 -12180 21129 5186 3007 9189 -15752c1226,456 4074,2116 5028,3008z"/>
   <path class="fil1" d="M300708 83613c939,-1627 2266,-3564 2735,-5109l-10402 -6006 -2987 5102 10654 6013z"/>
   <path class="fil1" d="M321179 145213c265,1120 -2550,3950 -2520,5138 17,630 4305,2514 4993,3321 1091,1026 3870,2370 5302,3202l-10274 17798 10463 -18122 -5178 -2989c477,-826 622,-1467 1238,-2519 534,-914 1060,-1835 1589,-2751 -5755,-3324 -5457,-2492 -4339,-4447 -67,118 -416,778 -458,826 -654,782 -2,507 -816,543z"/>
   <path class="fil1" d="M284670 74773l5144 2916 -33428 57982 -5203 -3006 193 245c45,43 3375,2395 5050,2885l33562 -58014 10539 6010c-8722,15080 -17808,31038 -26675,46019 -316,532 -694,1009 -682,1555l27460 -47365 78 -387 -10654 -6013 2987 -5102c-803,572 -2435,3950 -3105,5111l-4842 -2763c-355,-124 -197,-77 -424,-73z"/>
   <path class="fil0" d="M497331 132444l-17989 0 14829 -51219 -30463 51219 -18506 0 -3320 -51951 -12672 51951 -18506 0 20888 -77954 25252 0 3477 54699 32646 -54699 25252 0 -20888 77954zm67264 0l-40227 0c-5586,0 -9611,-1499 -12073,-4497 -2535,-2926 -3034,-7192 -1528,-12815 1803,-6727 4919,-11565 9344,-14491 4425,-2926 10707,-4390 18861,-4390l17758 0c751,-2802 467,-4801 -845,-6031 -1360,-1125 -4371,-1680 -8991,-1680l-25343 0 3759 -14026 30821 0c7835,0 13307,1821 16406,5443 3116,3624 3677,9119 1703,16490l-9645 35997zm-13860 -13814l2323 -8674 -15723 0c-3141,0 -5256,305 -6347,910 -1108,608 -1913,1876 -2428,3803 -383,1428 -338,2462 145,3122 280,286 851,484 1741,627 891,140 2049,212 3477,212l16812 0zm76624 13814l-17131 0 9309 -34746c990,-3696 1099,-6034 319,-7051 -899,-910 -3010,-1356 -6275,-1356l-10315 0 -11563 43153 -17133 0 15523 -57930 28483 0c8708,0 14464,1695 17268,5086 2798,3409 3191,8869 1165,16437l-9650 36407zm62322 0l-17241 0 9326 -34801c923,-3445 971,-5693 124,-6727 -570,-608 -1274,-1036 -2109,-1322 -927,-267 -2300,-410 -4066,-410l-10238 107 -11562 43153 -17131 0 20888 -77954 17131 0 -5365 20024 11457 0c8567,0 14291,1678 17182,5014 2884,3357 3307,8836 1261,16473l-9657 36443zm65745 0l-40226 0c-5586,0 -9610,-1499 -12071,-4497 -2538,-2926 -3036,-7192 -1529,-12815 1802,-6727 4920,-11565 9343,-14491 4425,-2926 10706,-4390 18863,-4390l17756 0c750,-2802 467,-4801 -845,-6031 -1360,-1125 -4369,-1680 -8992,-1680l-25342 0 3759 -14026 30821 0c7835,0 13307,1821 16406,5443 3115,3624 3676,9119 1702,16490l-9645 35997zm-13860 -13814l2323 -8674 -15723 0c-3138,0 -5255,305 -6346,910 -1108,608 -1911,1876 -2428,3803 -383,1428 -339,2462 145,3122 279,286 851,484 1742,627 890,140 2048,212 3476,212l16811 0zm41398 13814l-17775 0 20888 -77954 17775 0 -20888 77954zm40148 0l-15098 0 4247 -15847 15098 0 -4247 15847zm55449 0l-20934 0c-2558,0 -4875,-145 -6881,-429 -1969,-278 -3807,-616 -5425,-1196 -2933,-1051 -5433,-2903 -7449,-5443 -935,-1179 -1589,-2693 -2178,-4389 -574,-1651 -1181,-3419 -1461,-5338 -271,-1840 -244,-3753 -94,-5710 147,-1907 567,-4038 1181,-6334 1150,-4316 2950,-8405 5407,-12191 2424,-3733 5329,-7200 8947,-10082 3002,-2393 6524,-3957 10270,-5088 3723,-1124 8119,-1730 13206,-1730l20934 0 -3904 14562 -16704 0c-3469,0 -6336,169 -8518,625 -2197,462 -3990,1434 -5489,2571 -2908,2207 -5151,5947 -6589,11333 -799,2992 -895,5540 -477,7638 408,2035 961,4351 2912,5121l3065 1213c841,332 1835,239 2775,305 992,67 2522,107 4574,107l16705 0 -3873 14455zm71729 -29053c-2420,9054 -7131,16307 -14091,21754 -6940,5430 -15017,8154 -24246,8154 -9279,0 -15880,-2751 -19944,-8154 -4032,-5367 -4885,-12586 -2434,-21754 2401,-8973 7118,-16207 14075,-21685 6876,-5415 14963,-8155 24314,-8155 9227,0 15868,2681 19902,8048 4060,5403 4856,12683 2424,21792zm-17777 0c1283,-4810 1031,-8554 -519,-11317 -1486,-2655 -4066,-4068 -8009,-4068 -3911,0 -7264,1415 -10194,4068 -2811,2548 -4991,6286 -6334,11317 -688,2581 -971,4768 -963,6529 6,1871 372,3543 1186,4964 1513,2638 4204,3960 8041,3960 3944,0 7292,-1370 10162,-3960 3055,-2756 5317,-6561 6630,-11493zm97190 29053l-17241 0 9281 -34641c953,-3551 1209,-6025 402,-7156 -788,-1102 -2996,-1594 -6214,-1516l-6683 160 -11563 43153 -17453 0 11563 -43153 -14243 0 -11562 43153 -17239 0 15523 -57930 56786 0c8264,0 13919,1701 16913,5086 3008,3403 3508,8879 1486,16437l-9756 36407z"/>
   <path class="fil0" d="M19574 74817l150952 -15933c1749,-181 3502,-107 5201,189 3763,658 7284,2416 9967,4821 2739,2455 4637,5602 5091,8993 179,1339 135,2714 -172,4097l-26118 68586c-1045,4707 -3364,9084 -6873,12200 -3300,2930 -7591,4749 -12811,4749l-104029 0c-5197,0 -9465,-1815 -12753,-4735l-14 -10c-3505,-3114 -5824,-7486 -6902,-12181l-20806 -52657c-95,-418 -162,-776 -204,-1076 -599,-4484 1503,-8346 5020,-11291 3219,-2697 7694,-4604 12258,-5433 795,-140 1527,-252 2193,-319zm140668 -759l-140771 14857c-561,58 -1072,130 -1514,210 -3140,567 -6178,1846 -8316,3637 -1863,1562 -2985,3525 -2693,5707 29,227 61,410 86,539l19320 46175c765,3337 2346,6387 4694,8475 1905,1686 4366,2735 7362,2735l97013 0c3002,0 5480,-1056 7393,-2756 2342,-2077 3917,-5111 4653,-8430l24442 -61033c150,-689 175,-1383 84,-2058 -250,-1856 -1337,-3626 -2911,-5039 -1627,-1457 -3740,-2521 -5977,-2910 -946,-166 -1913,-208 -2865,-109z"/>
   <path class="fil0" d="M444912 30005l-3211 11981 -4313 0 8587 -32051 9454 0c2027,0 3729,238 5100,707 1373,470 2432,1133 3183,1997 750,864 1207,1915 1366,3136 156,1222 28,2586 -376,4091 -401,1497 -1026,2861 -1879,4098 -854,1236 -1897,2301 -3145,3203 -1245,894 -2685,1588 -4306,2086 -1625,500 -3399,752 -5320,752l-5140 0zm922 -3441l5140 0c1237,0 2374,-164 3408,-492 1034,-328 1949,-790 2748,-1379 799,-589 1469,-1289 2018,-2109 547,-817 952,-1719 1215,-2703 549,-2041 349,-3637 -603,-4783 -953,-1147 -2706,-1721 -5254,-1721l-5140 0 -3532 13187z"/>
   <path id="1" class="fil0" d="M478281 18988c1654,0 3079,275 4265,826 1186,550 2109,1333 2769,2346 660,1013 1047,2237 1162,3675 112,1437 -73,3046 -548,4820 -480,1787 -1157,3397 -2038,4827 -885,1431 -1925,2653 -3128,3666 -1204,1013 -2543,1787 -4023,2331 -1478,545 -3051,820 -4705,820 -1653,0 -3070,-275 -4259,-820 -1186,-544 -2119,-1318 -2786,-2331 -666,-1013 -1064,-2235 -1186,-3666 -124,-1430 55,-3040 534,-4827 476,-1774 1159,-3383 2052,-4820 892,-1438 1943,-2662 3151,-3675 1211,-1013 2561,-1796 4041,-2346 1482,-551 3046,-826 4699,-826zm-5414 20204c2237,0 4106,-752 5611,-2249 1503,-1499 2615,-3591 3336,-6282 724,-2697 734,-4797 38,-6311 -700,-1505 -2167,-2255 -4404,-2255 -1131,0 -2165,193 -3105,580 -938,387 -1781,946 -2533,1675 -757,732 -1415,1632 -1976,2698 -562,1065 -1026,2272 -1386,3613 -359,1342 -540,2548 -548,3606 -9,1059 170,1953 536,2676 363,721 908,1274 1637,1669 732,387 1663,580 2794,580z"/>
   <path id="2" class="fil0" d="M490934 19322l3128 0c328,0 574,82 738,246 164,164 256,357 269,582l429 14588c-27,536 -53,1057 -84,1555 -27,501 -74,999 -135,1514 255,-515 524,-1013 805,-1514 284,-498 579,-1019 888,-1555l8718 -14678c132,-223 317,-410 542,-560 227,-149 477,-222 761,-222l1720 0c298,0 525,73 679,222 153,150 237,337 254,560l738 14678c23,521 34,1034 25,1541 -8,506 -23,1006 -40,1505 210,-499 446,-1014 709,-1550 260,-536 523,-1036 780,-1496l8333 -14588c141,-240 332,-433 582,-589 253,-157 522,-239 803,-239l2996 0 -13404 22664 -3151 0c-389,0 -589,-252 -601,-759l-890 -15371c-27,-343 -29,-692 -10,-1043 19,-349 36,-694 55,-1037 -169,343 -337,694 -507,1052 -170,357 -360,708 -572,1051l-9185 15348c-300,507 -674,759 -1120,759l-2996 0 -1257 -22664z"/>
   <path id="3" class="fil0" d="M537183 18964c1356,0 2546,232 3572,686 1026,454 1840,1110 2445,1967 606,856 976,1922 1108,3181 130,1259 -23,2697 -456,4314 -168,626 -347,1043 -538,1251 -187,210 -471,313 -843,313l-15065 0c-353,1432 -494,2682 -421,3740 74,1066 328,1944 764,2661 435,707 1038,1236 1807,1585 772,352 1693,530 2767,530 997,0 1894,-120 2678,-351 784,-229 1470,-483 2065,-752 593,-267 1097,-513 1509,-745 416,-237 742,-349 997,-349 328,0 546,127 658,379l727 1461c-652,588 -1377,1101 -2180,1541 -803,441 -1629,799 -2487,1080 -858,278 -1726,492 -2600,635 -873,141 -1716,208 -2536,208 -1564,0 -2930,-269 -4108,-796 -1177,-530 -2108,-1306 -2796,-2325 -687,-1022 -1101,-2288 -1234,-3793 -134,-1505 61,-3233 587,-5193 422,-1578 1064,-3054 1915,-4425 851,-1370 1865,-2562 3042,-3569 1179,-1005 2502,-1796 3967,-2370 1463,-574 3017,-864 4656,-864zm-702 2950c-1921,0 -3582,553 -4982,1663 -1398,1101 -2495,2636 -3286,4595l12315 0c246,-923 347,-1766 294,-2525 -46,-767 -239,-1429 -584,-1982 -343,-557 -824,-990 -1448,-1295 -627,-307 -1398,-456 -2309,-456z"/>
   <path id="4" class="fil0" d="M545475 41986l6073 -22664 2281 0c431,0 704,90 822,260 118,173 149,478 93,902l-736 3755c1223,-1676 2535,-2979 3923,-3910 1391,-940 2852,-1409 4387,-1409 624,0 1171,74 1640,217 466,147 883,349 1244,609l-1309 2973c-206,372 -486,559 -846,559 -208,0 -506,-73 -901,-216 -394,-141 -980,-208 -1756,-208 -1385,0 -2651,416 -3807,1259 -1156,841 -2268,2064 -3322,3666l-3807 14207 -3979 0z"/>
   <path id="5" class="fil0" d="M578621 18964c1356,0 2546,232 3572,686 1025,454 1839,1110 2445,1967 605,856 975,1922 1107,3181 131,1259 -23,2697 -456,4314 -168,626 -347,1043 -538,1251 -187,210 -471,313 -843,313l-15065 0c-353,1432 -494,2682 -420,3740 73,1066 328,1944 763,2661 435,707 1038,1236 1808,1585 771,352 1692,530 2766,530 997,0 1895,-120 2679,-351 784,-229 1469,-483 2064,-752 593,-267 1098,-513 1510,-745 416,-237 742,-349 996,-349 328,0 547,127 658,379l727 1461c-651,588 -1377,1101 -2180,1541 -803,441 -1629,799 -2487,1080 -857,278 -1726,492 -2600,635 -872,141 -1715,208 -2535,208 -1564,0 -2931,-269 -4108,-796 -1177,-530 -2109,-1306 -2796,-2325 -688,-1022 -1102,-2288 -1234,-3793 -135,-1505 61,-3233 586,-5193 423,-1578 1064,-3054 1916,-4425 851,-1370 1864,-2562 3041,-3569 1180,-1005 2502,-1796 3967,-2370 1464,-574 3017,-864 4657,-864zm-702 2950c-1922,0 -3583,553 -4983,1663 -1398,1101 -2495,2636 -3285,4595l12315 0c246,-923 346,-1766 294,-2525 -46,-767 -240,-1429 -585,-1982 -342,-557 -824,-990 -1448,-1295 -626,-307 -1398,-456 -2308,-456z"/>
   <path id="6" class="fil0" d="M602849 41986c-565,0 -851,-275 -851,-826l378 -2750c-1282,1177 -2638,2115 -4072,2824 -1433,708 -2960,1065 -4568,1065 -1297,0 -2407,-254 -3330,-752 -925,-501 -1629,-1230 -2117,-2199 -483,-976 -734,-2182 -746,-3629 -17,-1444 227,-3105 734,-4990 445,-1670 1084,-3219 1917,-4665 834,-1438 1814,-2681 2943,-3747 1125,-1057 2367,-1885 3736,-2489 1368,-603 2821,-908 4355,-908 1388,0 2508,238 3366,707 858,470 1560,1126 2107,1976l3365 -12563 3980 0 -8827 32946 -2370 0zm-6933 -2905c1297,0 2516,-299 3652,-894 1135,-597 2255,-1438 3365,-2527l2939 -10967c-466,-982 -1076,-1675 -1843,-2071 -766,-395 -1680,-595 -2737,-595 -2117,0 -3942,753 -5481,2264 -1537,1506 -2676,3652 -3425,6446 -395,1474 -609,2741 -634,3790 -30,1051 109,1915 420,2595 311,676 780,1177 1411,1490 632,311 1408,469 2333,469z"/>
   <path id="7" class="fil0" d="M620664 41986l8827 -32946 4001 0 -3694 13784c1249,-1154 2582,-2094 3984,-2802 1404,-707 2884,-1058 4448,-1058 1312,0 2432,246 3357,738 925,492 1630,1230 2113,2206 486,975 736,2182 753,3620 12,1446 -229,3100 -732,4978 -448,1675 -1087,3225 -1921,4671 -835,1438 -1806,2682 -2931,3731 -1122,1052 -2371,1878 -3748,2481 -1377,606 -2830,910 -4350,910 -1459,0 -2621,-283 -3487,-857 -871,-566 -1550,-1363 -2035,-2384l-757 2070c-273,574 -692,858 -1257,858l-2571 0zm15422 -19847c-1297,0 -2514,313 -3660,946 -1144,626 -2285,1520 -3412,2668l-2893 10795c456,969 1070,1654 1835,2047 768,395 1682,597 2754,597 2115,0 3942,-752 5479,-2258 1535,-1505 2676,-3649 3422,-6437 396,-1475 610,-2741 629,-3798 23,-1060 -122,-1930 -431,-2609 -311,-677 -782,-1169 -1413,-1482 -633,-314 -1402,-469 -2310,-469z"/>
   <path id="8" class="fil0" d="M649778 48692c-215,297 -442,536 -690,715 -250,179 -586,267 -1003,267l-2951 0 6506 -8850 -3586 -21479 3441 0c343,0 587,88 734,261 149,170 238,363 271,573l2187 14447c46,326 77,662 86,990 6,335 -4,677 -21,1020 195,-343 393,-685 586,-1020 194,-328 402,-670 629,-1013l9742 -14424c155,-239 363,-439 622,-597 258,-155 513,-237 765,-237l3175 0 -20493 29347z"/>
   <path id="9" class="fil0" d="M668078 39535c105,-387 275,-753 511,-1095 233,-343 506,-642 822,-902 313,-253 658,-454 1040,-604 383,-149 768,-222 1154,-222 389,0 734,73 1037,222 303,150 546,351 734,604 182,260 304,559 353,902 48,342 19,708 -86,1095 -110,410 -276,776 -507,1118 -231,335 -511,625 -833,885 -323,255 -672,448 -1053,589 -380,143 -765,216 -1154,216 -387,0 -732,-73 -1036,-216 -305,-141 -545,-334 -721,-589 -177,-260 -293,-550 -343,-885 -53,-342 -27,-708 82,-1118zm4492 -16763c103,-387 276,-753 511,-1096 231,-342 505,-641 820,-902 315,-252 658,-454 1041,-603 382,-149 769,-223 1156,-223 389,0 732,74 1034,223 303,149 549,351 734,603 183,261 305,560 355,902 49,343 17,709 -86,1096 -109,409 -275,775 -509,1118 -229,334 -508,624 -830,885 -324,254 -675,448 -1053,589 -383,143 -766,216 -1154,216 -387,0 -734,-73 -1037,-216 -307,-141 -544,-335 -721,-589 -177,-261 -292,-551 -345,-885 -50,-343 -25,-709 84,-1118z"/>
   <path class="fil0" d="M718591 149428l-1001 3738 -16273 0 -3017 11257 13175 0 -963 3597 -13175 0 -3105 11590 16271 0 -1000 3738 -20886 0 9088 -33920 20886 0zm46 17930l11684 0 -963 3595 -11684 0 963 -3595zm19509 12109l14665 0 -1038 3881 -19255 0 9088 -33920 4589 0 -8049 30039zm33188 -20482c1434,0 2693,244 3778,725 1085,481 1949,1175 2590,2081 639,906 1030,2035 1171,3366 138,1333 -26,2855 -484,4566 -176,662 -366,1104 -565,1324 -202,221 -501,333 -894,333l-15943 0c-374,1513 -524,2838 -446,3956 78,1127 347,2058 807,2815 461,750 1100,1310 1916,1680 815,370 1789,559 2924,559 1057,0 2005,-126 2836,-370 830,-244 1557,-513 2184,-797 628,-284 1162,-544 1600,-788 437,-253 786,-370 1053,-370 347,0 578,134 696,401l769 1545c-689,625 -1457,1167 -2306,1634 -851,464 -1724,843 -2632,1143 -906,291 -1827,520 -2750,669 -923,149 -1818,221 -2686,221 -1655,0 -3101,-284 -4346,-843 -1246,-560 -2232,-1379 -2960,-2460 -727,-1080 -1164,-2422 -1305,-4013 -141,-1594 65,-3423 620,-5495 448,-1674 1127,-3234 2029,-4684 899,-1451 1972,-2712 3218,-3778 1247,-1064 2647,-1898 4196,-2506 1552,-607 3194,-914 4930,-914zm-744 3122c-2033,0 -3791,584 -5273,1757 -1477,1167 -2640,2792 -3479,4865l13034 0c263,-978 366,-1867 313,-2672 -50,-812 -256,-1514 -620,-2098 -361,-591 -870,-1049 -1532,-1371 -663,-324 -1480,-481 -2443,-481zm27117 21241l-1869 0c-410,0 -723,-63 -942,-190 -219,-126 -311,-401 -280,-813l124 -2231c-782,568 -1534,1081 -2253,1531 -723,456 -1455,834 -2199,1143 -744,307 -1510,543 -2302,700 -790,158 -1648,238 -2563,238 -929,0 -1761,-135 -2503,-395 -743,-261 -1346,-654 -1806,-1173 -461,-522 -757,-1184 -896,-1989 -141,-795 -69,-1743 225,-2838 257,-954 761,-1869 1516,-2743 757,-883 1810,-1663 3153,-2351 1339,-677 3004,-1236 4997,-1671 1993,-433 4348,-654 7060,-654l504 -1886c500,-1866 486,-3285 -55,-4240 -538,-963 -1593,-1444 -3153,-1444 -1026,0 -1919,126 -2691,387 -769,260 -1457,553 -2054,876 -599,322 -1118,614 -1560,875 -439,261 -847,393 -1208,393 -284,0 -509,-71 -684,-221 -172,-149 -296,-330 -363,-550l-402 -1325c1669,-1286 3353,-2247 5054,-2886 1701,-639 3479,-955 5340,-955 1341,0 2472,221 3395,663 923,441 1633,1057 2132,1845 498,789 777,1743 838,2870 63,1118 -84,2350 -443,3689l-4112 15345zm-10232 -2603c742,0 1440,-71 2094,-221 656,-149 1295,-355 1913,-630 616,-267 1223,-599 1825,-993 601,-386 1200,-828 1808,-1326l1330 -4966c-1940,0 -3622,126 -5043,370 -1421,244 -2609,560 -3570,961 -956,395 -1696,860 -2226,1396 -530,536 -887,1135 -1068,1806 -168,630 -212,1175 -128,1633 82,456 256,835 523,1127 270,292 623,505 1060,639 437,133 931,204 1482,204zm16618 2603l6427 -23985 2413 0c457,0 747,95 873,275 124,181 155,505 99,955l-782 3973c1297,-1774 2682,-3153 4154,-4139 1471,-992 3014,-1491 4639,-1491 662,0 1241,80 1737,229 494,158 933,370 1318,648l-1388 3145c-216,395 -513,591 -891,591 -221,0 -540,-78 -957,-227 -418,-152 -1036,-221 -1856,-221 -1467,0 -2806,439 -4032,1331 -1223,891 -2399,2184 -3513,3878l-4030 15038 -4211 0zm19066 0l6426 -23985 2506 0c601,0 900,290 902,875l-368 2609c1350,-1159 2767,-2088 4242,-2799 1474,-708 3053,-1063 4739,-1063 1310,0 2409,220 3294,653 885,434 1556,1049 2014,1846 456,795 704,1758 751,2878 46,1119 -112,2357 -476,3713l-4090 15273 -4211 0 4091 -15273c487,-1814 456,-3225 -105,-4226 -560,-1002 -1695,-1507 -3398,-1507 -1244,0 -2482,301 -3725,900 -1240,599 -2462,1419 -3651,2445l-4731 17661 -4210 0zm37411 -23985l-6426 23985 -4211 0 6429 -23985 4208 0zm2962 -7522c-109,410 -290,789 -550,1144 -261,353 -566,668 -917,946 -349,275 -732,496 -1135,654 -406,157 -814,235 -1224,235 -410,0 -767,-78 -1080,-235 -311,-158 -570,-379 -770,-654 -204,-278 -340,-593 -401,-946 -63,-355 -40,-734 69,-1144 109,-410 294,-805 551,-1175 256,-370 565,-694 914,-969 351,-278 724,-490 1121,-648 397,-157 797,-235 1207,-235 410,0 773,78 1095,235 319,158 586,370 788,648 202,275 337,599 402,969 67,370 40,765 -70,1175zm-1961 31507l6427 -23985 2508 0c599,0 899,290 899,875l-368 2609c1352,-1159 2769,-2088 4245,-2799 1474,-708 3050,-1063 4738,-1063 1310,0 2409,220 3295,653 885,434 1555,1049 2011,1846 459,795 705,1758 753,2878 46,1119 -111,2357 -475,3713l-4093 15273 -4211 0 4093 -15273c486,-1814 454,-3225 -105,-4226 -559,-1002 -1694,-1507 -3397,-1507 -1247,0 -2485,301 -3725,900 -1243,599 -2462,1419 -3652,2445l-4732 17661 -4211 0zm40897 -24363c1041,0 1989,109 2834,338 845,229 1575,568 2199,1009l6504 0 -420 1568c-141,522 -561,860 -1264,1003l-2821 379c263,1023 223,2167 -115,3428 -312,1167 -818,2231 -1523,3185 -706,955 -1547,1775 -2524,2454 -980,677 -2065,1198 -3259,1560 -1192,363 -2447,544 -3757,544 -1118,0 -2140,-135 -3062,-393 -591,324 -1064,671 -1426,1049 -359,370 -593,740 -687,1095 -158,591 -49,1032 328,1333 378,299 925,519 1650,645 719,135 1562,198 2525,198 960,0 1946,0 2947,0 1003,0 1957,86 2874,261 912,180 1696,464 2344,866 652,395 1112,946 1381,1648 269,702 252,1617 -48,2737 -278,1032 -799,2041 -1571,3011 -775,977 -1747,1837 -2913,2602 -1165,757 -2502,1364 -4011,1814 -1510,457 -3141,686 -4890,686 -1751,0 -3234,-175 -4457,-522 -1224,-347 -2197,-811 -2907,-1396 -711,-582 -1176,-1261 -1405,-2024 -229,-765 -233,-1570 -10,-2405 317,-1184 965,-2184 1936,-3013 971,-836 2172,-1490 3612,-1978 -593,-317 -1018,-733 -1279,-1261 -260,-530 -277,-1232 -40,-2115 91,-338 251,-702 476,-1072 224,-362 521,-732 878,-1095 353,-356 763,-703 1230,-1033 467,-332 986,-622 1558,-874 -1003,-664 -1690,-1547 -2067,-2643 -374,-1103 -368,-2390 26,-3855 313,-1175 826,-2231 1532,-3193 704,-955 1547,-1775 2531,-2445 984,-671 2086,-1190 3294,-1554 1209,-362 2473,-542 3797,-542zm612 25607c164,-614 130,-1104 -101,-1474 -231,-370 -605,-653 -1118,-859 -515,-198 -1129,-347 -1844,-442 -715,-103 -1482,-149 -2302,-149 -820,0 -1657,0 -2508,0 -851,0 -1636,-103 -2352,-315 -1012,424 -1878,946 -2603,1562 -723,613 -1203,1347 -1432,2199 -143,536 -136,1040 15,1505 151,464 460,868 938,1206 477,339 1122,608 1930,806 807,195 1786,298 2953,298 1135,0 2180,-103 3137,-315 954,-204 1799,-505 2525,-892 727,-384 1322,-843 1795,-1370 475,-536 797,-1121 967,-1760zm-4009 -12931c851,0 1640,-117 2357,-353 718,-237 1351,-568 1906,-994 557,-433 1026,-938 1405,-1529 380,-601 664,-1246 855,-1963 393,-1468 265,-2634 -391,-3509 -658,-868 -1844,-1301 -3546,-1301 -1688,0 -3089,433 -4211,1301 -1127,875 -1890,2041 -2281,3509 -194,717 -248,1362 -179,1963 70,591 265,1096 591,1529 328,426 782,757 1364,994 585,236 1293,353 2130,353zm54957 -22282l-1039 3881 -10952 0 -8054 30065 -4589 0 8053 -30065 -10999 0 1041 -3881 26539 0zm6107 9606c1436,0 2695,244 3780,725 1085,481 1949,1175 2590,2081 639,906 1030,2035 1171,3366 138,1333 -26,2855 -484,4566 -176,662 -366,1104 -565,1324 -202,221 -501,333 -894,333l-15943 0c-374,1513 -524,2838 -446,3956 78,1127 347,2058 805,2815 463,750 1102,1310 1917,1680 816,370 1789,559 2925,559 1057,0 2005,-126 2836,-370 830,-244 1555,-513 2184,-797 628,-284 1162,-544 1600,-788 437,-253 784,-370 1053,-370 347,0 578,134 696,401l769 1545c-689,625 -1457,1167 -2306,1634 -851,464 -1724,843 -2632,1143 -906,291 -1827,520 -2752,669 -923,149 -1816,221 -2684,221 -1655,0 -3101,-284 -4346,-843 -1246,-560 -2232,-1379 -2960,-2460 -727,-1080 -1164,-2422 -1305,-4013 -141,-1594 65,-3423 620,-5495 448,-1674 1127,-3234 2027,-4684 901,-1451 1971,-2712 3220,-3778 1247,-1064 2647,-1898 4196,-2506 1552,-607 3194,-914 4928,-914zm-742 3122c-2033,0 -3791,584 -5273,1757 -1478,1167 -2640,2792 -3479,4865l13034 0c261,-978 366,-1867 313,-2672 -50,-812 -256,-1514 -620,-2098 -361,-591 -870,-1049 -1532,-1371 -665,-324 -1480,-481 -2443,-481zm27117 21241l-1869 0c-410,0 -723,-63 -942,-190 -219,-126 -311,-401 -280,-813l124 -2231c-782,568 -1534,1081 -2253,1531 -723,456 -1455,834 -2199,1143 -744,307 -1510,543 -2302,700 -791,158 -1648,238 -2563,238 -929,0 -1761,-135 -2503,-395 -743,-261 -1346,-654 -1806,-1173 -461,-522 -757,-1184 -896,-1989 -141,-795 -69,-1743 225,-2838 257,-954 761,-1869 1516,-2743 757,-883 1810,-1663 3153,-2351 1339,-677 3004,-1236 4997,-1671 1993,-433 4346,-654 7057,-654l505 -1886c502,-1866 488,-3285 -53,-4240 -538,-963 -1593,-1444 -3153,-1444 -1026,0 -1919,126 -2691,387 -771,260 -1457,553 -2054,876 -599,322 -1120,614 -1560,875 -439,261 -847,393 -1208,393 -284,0 -511,-71 -684,-221 -172,-149 -296,-330 -363,-550l-404 -1325c1671,-1286 3355,-2247 5056,-2886 1701,-639 3479,-955 5340,-955 1341,0 2472,221 3395,663 923,441 1633,1057 2131,1845 499,789 778,1743 839,2870 63,1118 -84,2350 -443,3689l-4112 15345zm-10232 -2603c742,0 1438,-71 2094,-221 656,-149 1295,-355 1913,-630 614,-267 1223,-599 1825,-993 601,-386 1200,-828 1808,-1326l1330 -4966c-1940,0 -3622,126 -5043,370 -1421,244 -2611,560 -3570,961 -956,395 -1696,860 -2226,1396 -530,536 -889,1135 -1068,1806 -168,630 -212,1175 -130,1633 84,456 258,835 525,1127 270,292 623,505 1060,639 437,133 931,204 1482,204zm16618 2603l6427 -23985 2508 0c599,0 898,290 900,875l-354 2468c1176,-1096 2410,-1987 3690,-2681 1282,-693 2645,-1040 4095,-1040 1625,0 2821,450 3582,1347 759,900 1152,2113 1182,3652 563,-868 1209,-1625 1921,-2256 713,-631 1459,-1152 2248,-1562 788,-410 1593,-708 2409,-898 815,-189 1612,-283 2401,-283 1263,0 2333,204 3212,607 879,402 1558,984 2037,1758 479,771 742,1726 803,2855 61,1126 -105,2419 -492,3870l-4093 15273 -4209 0 4091 -15273c503,-1875 475,-3303 -84,-4274 -561,-969 -1621,-1459 -3183,-1459 -693,0 -1381,126 -2068,372 -688,244 -1335,599 -1937,1072 -599,473 -1131,1072 -1599,1789 -467,717 -833,1554 -1087,2500l-4093 15273 -4209 0 4091 -15273c515,-1924 517,-3366 -4,-4314 -517,-944 -1518,-1419 -3002,-1419 -1041,0 -2077,284 -3118,845 -1043,559 -2066,1324 -3065,2285l-4789 17876 -4211 0z"/>
  </g>
 </g>
</svg>
