<?xml version="1.0" encoding="UTF-8"?>
<!DOCTYPE svg PUBLIC "-//W3C//DTD SVG 1.1//EN" "http://www.w3.org/Graphics/SVG/1.1/DTD/svg11.dtd">
<!-- Creator: CorelDRAW X7 -->
<svg xmlns="http://www.w3.org/2000/svg" xml:space="preserve" width="199.318mm" height="19.9707mm" version="1.1" style="shape-rendering:geometricPrecision; text-rendering:geometricPrecision; image-rendering:optimizeQuality; fill-rule:evenodd; clip-rule:evenodd"
viewBox="0 0 19932960 1997190"
 xmlns:xlink="http://www.w3.org/1999/xlink">
 <defs>
  <style type="text/css">
   <![CDATA[
    .str0 {stroke:#A45E4D;stroke-width:7620.46}
    .str1 {stroke:#201E1E;stroke-width:108377}
    .fil2 {fill:none}
    .fil1 {fill:none;fill-rule:nonzero}
    .fil3 {fill:#F58634}
    .fil0 {fill:#BB5738;fill-rule:nonzero}
   ]]>
  </style>
 </defs>
 <g id="Layer_x0020_1">
  <metadata id="CorelCorpID_0Corel-Layer"/>
  <path class="fil0" d="M583225 315399l-9030 389303 -2251 150459 0 166621 0 142188 -2260 363342c76735,0 171521,-1130 284357,-3380 112847,-2260 187322,-3390 223434,-3390l0 419775 -176041 -4520 -295638 -7891 -345300 -10161 -205363 0 2250 -162119 2261 -187312 2260 -421275 -6771 -831640 528092 0z"/>
  <path id="1" class="fil0" d="M1147429 1750735l198602 -331370 56423 -94785 54164 -87646 78984 -133148 76735 -128267 92536 -157600 81245 -133148 56413 -97046 63194 -103436 69964 -115107 83505 -132768 22561 0 90276 137659 139928 214782 273067 417886 216663 334390 112836 171510 142179 214783 -446847 264416 -200862 -351681 -683811 40622 -33852 69954 -36112 74105 -40623 88015 -36112 78985 -431056 -241105zm722184 -406224l383663 -22571 -189572 -379143 -40622 81245 -40623 83505 -49653 101556 -63193 135408z"/>
  <path id="2" class="fil0" d="M4503331 1423496c0,31602 -4890,60563 -14671,86895 -9770,26332 -24441,53783 -44002,82375 -37613,51153 -78995,91025 -124128,119607 -15041,10531 -43633,27832 -85755,51913 -31602,18051 -62064,34602 -91406,49643 -29341,15051 -68834,30092 -118487,45143 -49643,15041 -106066,28582 -169260,40622 -133898,21062 -245995,31592 -336260,31592l-318219 0 9030 -624387 -2260 -482209 -6770 -509291 51913 0 142178 0 304669 6770c57173,0 105316,2261 144438,6771 43633,7520 80115,13541 109457,18051 29342,4520 62064,11291 98166,20311 36112,9031 68464,18811 97046,29342 105316,39122 178671,84255 220043,135408 41373,51153 62064,121867 62064,212143 0,49653 -21061,98176 -63194,145569 -42123,47392 -83125,83875 -122997,109456 -39873,25572 -71845,42123 -95916,49643l0 13541c43632,7530 91775,23701 144438,48523 52664,24831 100807,63574 144439,116227 43633,52663 65444,118107 65444,196342zm-821479 -212133l0 442337c61683,0 120357,-15051 176030,-45143 43633,-24072 78235,-54913 103817,-92526 24071,-30092 36102,-60933 36102,-92535 0,-31592 -9771,-62434 -29332,-92526 -15051,-28582 -46273,-55663 -93666,-81245 -47393,-25581 -111706,-38362 -192951,-38362zm0 -643199l0 428796c27081,0 60933,-9031 101556,-27082 43632,-22571 80495,-51153 110586,-85755 30092,-42132 45133,-88775 45133,-139928 0,-117357 -85755,-176031 -257275,-176031z"/>
  <path id="3" class="fil0" d="M4848622 310889l92535 -4521 119608 -4510 257275 -13541 88015 -4510 99306 0 108327 0 205372 -11291 9031 374633 -155729 2260 -60934 0 -78985 4510 -185061 0 0 302419 173780 -9031c45133,0 80485,-370 106067,-1500 25581,-1130 67704,-4510 126387,-9781l4511 361092 -410745 -9030 0 268566c30092,0 73344,750 129768,2260 56423,1500 97416,2250 122997,2250l56424 -2250 60933 -2260 76735 -2260 60934 -2251 13540 388174 -1020091 -22572 4520 -806818 -4520 -800038z"/>
  <path id="4" class="fil0" d="M6775948 315399l-9031 389303 -2250 150459 0 166621 0 142188 -2260 363342c76735,0 171520,-1130 284357,-3380 112847,-2260 187322,-3390 223434,-3390l0 419775 -176041 -4520 -295638 -7891 -345300 -10161 -205363 0 2250 -162119 2260 -187312 2261 -421275 -6771 -831640 528092 0z"/>
  <polygon id="5" class="fil0" points="7577126,315399 8102958,315399 8096187,637748 8089417,1063534 8096187,1543493 8102958,1917745 7577126,1917745 7581636,1196692 "/>
  <polygon id="6" class="fil0" points="8581407,299598 8603978,286057 8671682,335710 8757437,398904 8834172,455317 8906396,509491 9053085,620067 9186243,719373 9429978,902174 9732386,1127858 9732386,931516 9730136,775787 9723365,547853 9727876,304118 10186013,313139 10174733,455317 10167962,586215 10161192,703572 10149901,904434 10138620,1100776 10113799,1592766 10093478,1953858 10070916,1962878 9809121,1773307 9549585,1579225 9231376,1335480 8947019,1116577 8947019,1200072 8947019,1333230 8947019,1486690 8947019,1935797 8497912,1917745 8511452,1669491 8520473,1509261 8520473,1396414 8527243,1276807 8538534,1082715 8558845,717113 8567866,509491 "/>
  <path id="7" class="fil0" d="M11700344 713733c-171520,24071 -324229,76725 -458137,157599 -76725,43633 -137668,92156 -182801,145559 -45133,53413 -75975,112097 -92526,176791l-6770 60934c0,45132 10530,84255 31592,117357 19561,39112 42122,68834 67704,89895 51153,42123 96296,67704 135408,76735 39122,9020 71094,15421 95916,19181 24821,3760 52283,5640 82375,5640l0 -203112c0,-18061 -750,-45893 -2260,-83505 -1501,-37612 -2251,-65444 -2251,-83505l489730 0 4510 708643c-154969,33102 -306178,49652 -453617,49652 -109837,0 -211773,-6770 -305799,-20311 -94035,-13541 -183181,-38742 -267436,-75604 -84255,-36862 -162489,-87636 -234714,-151959 -42122,-37613 -81995,-96286 -119607,-176031 -37612,-79745 -56423,-159860 -56423,-241105 0,-54163 6390,-104566 19181,-151209 12791,-46642 32722,-97796 59803,-153089 27092,-55663 55294,-103436 84636,-143308 29341,-39873 65823,-81615 109456,-125248 108327,-103446 229444,-189201 363352,-256905 43633,-24072 94786,-47393 153459,-69965 31602,-12030 61314,-22561 89146,-31592 27831,-9030 57553,-18811 89145,-29341l200862 -54164 106066 441967z"/>
  <path id="8" class="fil0" d="M13934599 713733c-171520,24071 -324230,76725 -458138,157599 -76724,43633 -137668,92156 -182801,145559 -45132,53413 -75974,112097 -92525,176791l-6771 60934c0,45132 10531,84255 31592,117357 19561,39112 42123,68834 67704,89895 51153,42123 96296,67704 135409,76735 39122,9020 71094,15421 95915,19181 24822,3760 52283,5640 82375,5640l0 -203112c0,-18061 -750,-45893 -2260,-83505 -1500,-37612 -2250,-65444 -2250,-83505l489729 0 4511 708643c-154970,33102 -306179,49652 -453618,49652 -109836,0 -211772,-6770 -305798,-20311 -94036,-13541 -183181,-38742 -267436,-75604 -84255,-36862 -162490,-87636 -234714,-151959 -42123,-37613 -81995,-96286 -119607,-176031 -37613,-79745 -56424,-159860 -56424,-241105 0,-54163 6391,-104566 19181,-151209 12791,-46642 32722,-97796 59804,-153089 27092,-55663 55293,-103436 84635,-143308 29342,-39873 65824,-81615 109457,-125248 108326,-103446 229443,-189201 363351,-256905 43633,-24072 94786,-47393 153460,-69965 31602,-12030 61313,-22561 89145,-31592 27832,-9030 57554,-18811 89145,-29341l200863 -54164 106066 441967z"/>
  <path id="9" class="fil0" d="M14259579 1750735l198601 -331370 56424 -94785 54163 -87646 78985 -133148 76734 -128267 92536 -157600 81245 -133148 56413 -97046 63194 -103436 69964 -115107 83505 -132768 22562 0 90275 137659 139929 214782 273066 417886 216663 334390 112837 171510 142178 214783 -446846 264416 -200863 -351681 -683811 40622 -33852 69954 -36112 74105 -40622 88015 -36113 78985 -431055 -241105zm722183 -406224l383663 -22571 -189571 -379143 -40623 81245 -40622 83505 -49653 101556 -63194 135408z"/>
  <path id="10" class="fil0" d="M16812052 265746l22572 0 541632 889194 525842 -855342 24821 0 670281 1484619 -458138 203113 -76725 -198602 -81244 -209883 -72225 -193712 -78985 -212142 -110586 164750 -142179 214402c-21061,33092 -45893,70715 -74474,112837 -36112,52663 -55674,81245 -58684,85755 -15041,22572 -30092,45143 -45132,67714 -15051,22562 -33102,48143 -54164,76725l-24821 0 -97046 -153459 -160240 -248255 -112837 -185061 -76734 -126378 -60934 205373 -56423 193711 -65444 216653 -58684 189572 -40622 -15801 -56414 -20312 -63193 -24821 -51903 -20311 -103817 -36112 -128637 -49643 148949 -381403 167000 -424286 146698 -358461 162490 -390434z"/>
  <path id="11" class="fil0" d="M18856735 310889l92536 -4521 119607 -4510 257276 -13541 88015 -4510 99306 0 108326 0 205373 -11291 9030 374633 -155729 2260 -60934 0 -78985 4510 -185061 0 0 302419 173781 -9031c45132,0 80485,-370 106066,-1500 25582,-1130 67704,-4510 126388,-9781l4510 361092 -410745 -9030 0 268566c30092,0 73345,750 129768,2260 56424,1500 97416,2250 122998,2250l56423 -2250 60934 -2260 76734 -2260 60934 -2251 13541 388174 -1020092 -22572 4521 -806818 -4521 -800038z"/>
  <path id="12" class="fil1 str0" d="M583225 315399l-9030 389303 -2251 150459 0 166621 0 142188 -2260 363342c76735,0 171521,-1130 284357,-3380 112847,-2260 187322,-3390 223434,-3390l0 419775 -176041 -4520 -295638 -7891 -345300 -10161 -205363 0 2250 -162119 2261 -187312 2260 -421275 -6771 -831640 528092 0z"/>
  <path id="13" class="fil1 str0" d="M1147429 1750735l198602 -331370 56423 -94785 54164 -87646 78984 -133148 76735 -128267 92536 -157600 81245 -133148 56413 -97046 63194 -103436 69964 -115107 83505 -132768 22561 0 90276 137659 139928 214782 273067 417886 216663 334390 112836 171510 142179 214783 -446847 264416 -200862 -351681 -683811 40622 -33852 69954 -36112 74105 -40623 88015 -36112 78985 -431056 -241105zm722184 -406224l383663 -22571 -189572 -379143 -40622 81245 -40623 83505 -49653 101556 -63193 135408z"/>
  <path id="14" class="fil1 str0" d="M4503331 1423496c0,31602 -4890,60563 -14671,86895 -9770,26332 -24441,53783 -44002,82375 -37613,51153 -78995,91025 -124128,119607 -15041,10531 -43633,27832 -85755,51913 -31602,18051 -62064,34602 -91406,49643 -29341,15051 -68834,30092 -118487,45143 -49643,15041 -106066,28582 -169260,40622 -133898,21062 -245995,31592 -336260,31592l-318219 0 9030 -624387 -2260 -482209 -6770 -509291 51913 0 142178 0 304669 6770c57173,0 105316,2261 144438,6771 43633,7520 80115,13541 109457,18051 29342,4520 62064,11291 98166,20311 36112,9031 68464,18811 97046,29342 105316,39122 178671,84255 220043,135408 41373,51153 62064,121867 62064,212143 0,49653 -21061,98176 -63194,145569 -42123,47392 -83125,83875 -122997,109456 -39873,25572 -71845,42123 -95916,49643l0 13541c43632,7530 91775,23701 144438,48523 52664,24831 100807,63574 144439,116227 43633,52663 65444,118107 65444,196342zm-821479 -212133l0 442337c61683,0 120357,-15051 176030,-45143 43633,-24072 78235,-54913 103817,-92526 24071,-30092 36102,-60933 36102,-92535 0,-31592 -9771,-62434 -29332,-92526 -15051,-28582 -46273,-55663 -93666,-81245 -47393,-25581 -111706,-38362 -192951,-38362zm0 -643199l0 428796c27081,0 60933,-9031 101556,-27082 43632,-22571 80495,-51153 110586,-85755 30092,-42132 45133,-88775 45133,-139928 0,-117357 -85755,-176031 -257275,-176031z"/>
  <path id="15" class="fil1 str0" d="M4848622 310889l92535 -4521 119608 -4510 257275 -13541 88015 -4510 99306 0 108327 0 205372 -11291 9031 374633 -155729 2260 -60934 0 -78985 4510 -185061 0 0 302419 173780 -9031c45133,0 80485,-370 106067,-1500 25581,-1130 67704,-4510 126387,-9781l4511 361092 -410745 -9030 0 268566c30092,0 73344,750 129768,2260 56423,1500 97416,2250 122997,2250l56424 -2250 60933 -2260 76735 -2260 60934 -2251 13540 388174 -1020091 -22572 4520 -806818 -4520 -800038z"/>
  <path id="16" class="fil1 str0" d="M6775948 315399l-9031 389303 -2250 150459 0 166621 0 142188 -2260 363342c76735,0 171520,-1130 284357,-3380 112847,-2260 187322,-3390 223434,-3390l0 419775 -176041 -4520 -295638 -7891 -345300 -10161 -205363 0 2250 -162119 2260 -187312 2261 -421275 -6771 -831640 528092 0z"/>
  <polygon id="17" class="fil1 str0" points="7577126,315399 8102958,315399 8096187,637748 8089417,1063534 8096187,1543493 8102958,1917745 7577126,1917745 7581636,1196692 "/>
  <polygon id="18" class="fil1 str0" points="8581407,299598 8603978,286057 8671682,335710 8757437,398904 8834172,455317 8906396,509491 9053085,620067 9186243,719373 9429978,902174 9732386,1127858 9732386,931516 9730136,775787 9723365,547853 9727876,304118 10186013,313139 10174733,455317 10167962,586215 10161192,703572 10149901,904434 10138620,1100776 10113799,1592766 10093478,1953858 10070916,1962878 9809121,1773307 9549585,1579225 9231376,1335480 8947019,1116577 8947019,1200072 8947019,1333230 8947019,1486690 8947019,1935797 8497912,1917745 8511452,1669491 8520473,1509261 8520473,1396414 8527243,1276807 8538534,1082715 8558845,717113 8567866,509491 "/>
  <path id="19" class="fil1 str0" d="M11700344 713733c-171520,24071 -324229,76725 -458137,157599 -76725,43633 -137668,92156 -182801,145559 -45133,53413 -75975,112097 -92526,176791l-6770 60934c0,45132 10530,84255 31592,117357 19561,39112 42122,68834 67704,89895 51153,42123 96296,67704 135408,76735 39122,9020 71094,15421 95916,19181 24821,3760 52283,5640 82375,5640l0 -203112c0,-18061 -750,-45893 -2260,-83505 -1501,-37612 -2251,-65444 -2251,-83505l489730 0 4510 708643c-154969,33102 -306178,49652 -453617,49652 -109837,0 -211773,-6770 -305799,-20311 -94035,-13541 -183181,-38742 -267436,-75604 -84255,-36862 -162489,-87636 -234714,-151959 -42122,-37613 -81995,-96286 -119607,-176031 -37612,-79745 -56423,-159860 -56423,-241105 0,-54163 6390,-104566 19181,-151209 12791,-46642 32722,-97796 59803,-153089 27092,-55663 55294,-103436 84636,-143308 29341,-39873 65823,-81615 109456,-125248 108327,-103446 229444,-189201 363352,-256905 43633,-24072 94786,-47393 153459,-69965 31602,-12030 61314,-22561 89146,-31592 27831,-9030 57553,-18811 89145,-29341l200862 -54164 106066 441967z"/>
  <path id="20" class="fil1 str0" d="M13934599 713733c-171520,24071 -324230,76725 -458138,157599 -76724,43633 -137668,92156 -182801,145559 -45132,53413 -75974,112097 -92525,176791l-6771 60934c0,45132 10531,84255 31592,117357 19561,39112 42123,68834 67704,89895 51153,42123 96296,67704 135409,76735 39122,9020 71094,15421 95915,19181 24822,3760 52283,5640 82375,5640l0 -203112c0,-18061 -750,-45893 -2260,-83505 -1500,-37612 -2250,-65444 -2250,-83505l489729 0 4511 708643c-154970,33102 -306179,49652 -453618,49652 -109836,0 -211772,-6770 -305798,-20311 -94036,-13541 -183181,-38742 -267436,-75604 -84255,-36862 -162490,-87636 -234714,-151959 -42123,-37613 -81995,-96286 -119607,-176031 -37613,-79745 -56424,-159860 -56424,-241105 0,-54163 6391,-104566 19181,-151209 12791,-46642 32722,-97796 59804,-153089 27092,-55663 55293,-103436 84635,-143308 29342,-39873 65824,-81615 109457,-125248 108326,-103446 229443,-189201 363351,-256905 43633,-24072 94786,-47393 153460,-69965 31602,-12030 61313,-22561 89145,-31592 27832,-9030 57554,-18811 89145,-29341l200863 -54164 106066 441967z"/>
  <path id="21" class="fil1 str0" d="M14259579 1750735l198601 -331370 56424 -94785 54163 -87646 78985 -133148 76734 -128267 92536 -157600 81245 -133148 56413 -97046 63194 -103436 69964 -115107 83505 -132768 22562 0 90275 137659 139929 214782 273066 417886 216663 334390 112837 171510 142178 214783 -446846 264416 -200863 -351681 -683811 40622 -33852 69954 -36112 74105 -40622 88015 -36113 78985 -431055 -241105zm722183 -406224l383663 -22571 -189571 -379143 -40623 81245 -40622 83505 -49653 101556 -63194 135408z"/>
  <path id="22" class="fil1 str0" d="M16812052 265746l22572 0 541632 889194 525842 -855342 24821 0 670281 1484619 -458138 203113 -76725 -198602 -81244 -209883 -72225 -193712 -78985 -212142 -110586 164750 -142179 214402c-21061,33092 -45893,70715 -74474,112837 -36112,52663 -55674,81245 -58684,85755 -15041,22572 -30092,45143 -45132,67714 -15051,22562 -33102,48143 -54164,76725l-24821 0 -97046 -153459 -160240 -248255 -112837 -185061 -76734 -126378 -60934 205373 -56423 193711 -65444 216653 -58684 189572 -40622 -15801 -56414 -20312 -63193 -24821 -51903 -20311 -103817 -36112 -128637 -49643 148949 -381403 167000 -424286 146698 -358461 162490 -390434z"/>
  <path id="23" class="fil1 str0" d="M18856735 310889l92536 -4521 119607 -4510 257276 -13541 88015 -4510 99306 0 108326 0 205373 -11291 9030 374633 -155729 2260 -60934 0 -78985 4510 -185061 0 0 302419 173781 -9031c45132,0 80485,-370 106066,-1500 25582,-1130 67704,-4510 126388,-9781l4510 361092 -410745 -9030 0 268566c30092,0 73345,750 129768,2260 56424,1500 97416,2250 122998,2250l56423 -2250 60934 -2260 76734 -2260 60934 -2251 13541 388174 -1020092 -22572 4521 -806818 -4521 -800038z"/>
  <g>
   <path class="fil2 str1" d="M583055 133168l-9020 389303 -2261 150460 0 166630 0 142178 -2250 363352c76725,0 171511,-1120 284357,-3380 112837,-2260 187312,-3380 223424,-3380l0 419765 -176031 -4520 -295648 -7891 -345300 -10161 -205373 0 2260 -162119 2251 -187312 2260 -421275 -6771 -831650 528102 0zm18273670 -4510l92526 -4521 119607 -4510 257286 -13541 88015 -4520 99296 0 108326 0 205383 -11281 9020 374633 -155719 2260 -60934 0 -78995 4520 -185061 0 0 302419 173781 -9031c45132,0 80495,-380 106076,-1500 25572,-1130 67694,-4520 126378,-9781l4520 361082 -410755 -9020 0 268566c30092,0 73355,750 129778,2250 56414,1510 97416,2270 122998,2270l56423 -2270 60934 -2250 76724 -2260 60934 -2261 13541 388184 -1020082 -22572 4511 -806818 -4511 -800048zm-2044713 -45143l22582 0 541632 889194 525842 -855342 24841 0 670281 1484629 -458148 203113 -76735 -198602 -81244 -209883 -72215 -193712 -78985 -212142 -110596 164740 -142179 214402c-21061,33102 -45893,70715 -74474,112847 -36102,52663 -55664,81255 -58674,85765 -15041,22562 -30092,45133 -45132,67695 -15061,22571 -33102,48152 -54174,76734l-24821 0 -97046 -153469 -160240 -248245 -112837 -185061 -76724 -126378 -60954 205373 -56413 193701 -65454 216663 -58664 189572 -40622 -15801 -56424 -20311 -63193 -24822 -51913 -20311 -103817 -36112 -128627 -49643 148939 -381413 167010 -424286 146688 -358451 162490 -390444zm-2552483 1485009l198601 -331380 56424 -94795 54173 -87636 78975 -133148 76734 -128267 92536 -157610 81245 -133148 56423 -97046 63194 -103436 69954 -115107 83505 -132768 22582 0 90265 137669 139929 214772 273066 417896 216663 334390 112847 171510 142178 214783 -446856 264416 -200853 -351691 -683831 40622 -33852 69974 -36112 74095 -40622 88025 -36103 78975 -431065 -241095zm722193 -406234l383663 -22571 -189571 -379143 -40623 81245 -40622 83495 -49653 101556 -63194 135418zm-1047183 -630788c-171510,24071 -324230,76725 -458128,157599 -76734,43633 -137668,92156 -182801,145569 -45152,53413 -75994,112087 -92535,176791l-6771 60934c0,45132 10521,84255 31592,117347 19551,39122 42133,68844 67714,89905 51143,42123 96286,67704 135398,76725 39123,9030 71095,15431 95916,19181 24822,3770 52283,5650 82375,5650l0 -203112c0,-18061 -750,-45893 -2250,-83515 -1500,-37612 -2260,-65444 -2260,-83495l489729 0 4521 708643c-154980,33102 -306179,49653 -453628,49653 -109836,0 -211762,-6771 -305798,-20312 -94036,-13541 -183191,-38732 -267446,-75604 -84245,-36852 -162490,-87636 -234704,-151959 -42133,-37613 -82005,-96286 -119617,-176031 -37613,-79745 -56424,-159860 -56424,-241105 0,-54163 6401,-104566 19191,-151209 12791,-46652 32722,-97796 59804,-153089 27082,-55673 55293,-103446 84625,-143308 29352,-39883 65834,-81635 109467,-125258 108326,-103436 229443,-189191 363351,-256905 43623,-24072 94786,-47393 153460,-69965 31602,-12030 61313,-22561 89155,-31592 27832,-9030 57534,-18801 89135,-29341l200863 -54164 106066 441967zm-2234275 0c-171520,24071 -324239,76725 -458137,157599 -76735,43633 -137668,92156 -182801,145569 -45143,53413 -75985,112087 -92526,176791l-6780 60934c0,45132 10530,84255 31602,117347 19551,39122 42122,68844 67704,89905 51153,42123 96286,67704 135408,76725 39112,9030 71084,15431 95906,19181 24831,3770 52283,5650 82385,5650l0 -203112c0,-18061 -750,-45893 -2260,-83515 -1501,-37612 -2261,-65444 -2261,-83495l489740 0 4520 708643c-154979,33102 -306188,49653 -453637,49653 -109827,0 -211763,-6771 -305799,-20312 -94035,-13541 -183181,-38732 -267436,-75604 -84255,-36852 -162489,-87636 -234714,-151959 -42122,-37613 -81995,-96286 -119617,-176031 -37612,-79745 -56413,-159860 -56413,-241105 0,-54163 6400,-104566 19191,-151209 12791,-46652 32712,-97796 59803,-153089 27082,-55673 55284,-103446 84626,-143308 29341,-39883 65823,-81635 109456,-125258 108337,-103436 229454,-189191 363352,-256905 43633,-24072 94796,-47393 153469,-69965 31592,-12030 61304,-22561 89146,-31592 27831,-9030 57543,-18801 89145,-29341l200862 -54164 106066 441967zm-3118947 -414135l22571 -13541 67694 49653 85765 63194 76735 56423 72224 54164 146689 110586 133148 99296 243745 182801 302408 225684 0 -196342 -2250 -155719 -6771 -227944 4511 -243745 458137 9041 -11280 142178 -6771 130888 -6770 117357 -11281 200862 -11281 196352 -24831 491990 -20311 361092 -22572 9020 -261795 -189571 -259536 -194092 -318209 -243735 -284357 -218903 0 83495 0 133148 0 153470 0 449107 -449127 -18052 13550 -248244 9031 -160240 0 -112847 6770 -119617 11271 -194082 20311 -365602 9041 -207632 13541 -209893zm-1004301 15801l525842 0 -6771 322359 -6770 425786 6770 479949 6771 374262 -525842 0 4510 -721053 -4510 -881303zm-801188 0l-9021 389303 -2260 150460 0 166630 0 142178 -2250 363352c76725,0 171510,-1120 284357,-3380 112837,-2260 187312,-3380 223424,-3380l0 419765 -176031 -4520 -295648 -7891 -345300 -10161 -205373 0 2260 -162119 2250 -187312 2271 -421275 -6781 -831650 528102 0zm-1927336 -4510l92535 -4521 119598 -4510 257285 -13541 88025 -4520 99286 0 108337 0 205372 -11281 9021 374633 -155710 2260 -60933 0 -78995 4520 -185061 0 0 302419 173770 -9031c45133,0 80505,-380 106087,-1500 25561,-1130 67694,-4520 126377,-9781l4511 361082 -410745 -9020 0 268566c30092,0 73344,750 129768,2250 56423,1510 97416,2270 122997,2270l56424 -2270 60933 -2250 76735 -2260 60934 -2261 13530 388184 -1020081 -22572 4510 -806818 -4510 -800048zm-345301 1112627c0,31582 -4890,60543 -14671,86885 -9780,26332 -24451,53783 -44002,82375 -37613,51153 -78995,91015 -124128,119607 -15041,10531 -43633,27832 -85755,51913 -31602,18041 -62064,34602 -91406,49643 -29341,15051 -68834,30092 -118487,45133 -49653,15051 -106076,28592 -169260,40632 -133908,21062 -245995,31592 -336270,31592l-318209 0 9020 -624387 -2260 -482219 -6760 -509291 51903 0 142178 0 304669 6770c57183,0 105326,2251 144438,6771 43633,7530 80115,13541 109467,18051 29332,4520 62054,11291 98166,20321 36102,9021 68464,18801 97036,29332 105326,39122 178681,84255 220043,135418 41383,51143 62064,121867 62064,212133 0,49663 -21051,98176 -63184,145569 -42123,47402 -83135,83885 -122997,109456 -39873,25582 -71845,42133 -95926,49653l0 13541c43642,7520 91785,23701 144448,48523 52664,24821 100807,63574 144439,116227 43633,52653 65444,118117 65444,196352zm-821489 -212153l0 442347c61683,0 120367,-15051 176030,-45143 43643,-24072 78235,-54923 103817,-92536 24081,-30082 36112,-60933 36112,-92515 0,-31602 -9781,-62454 -29332,-92536 -15061,-28592 -46273,-55673 -93666,-81245 -47393,-25581 -111716,-38372 -192961,-38372zm0 -643199l0 428806c27081,0 60933,-9030 101556,-27092 43632,-22561 80505,-51153 110586,-85755 30092,-42122 45133,-88765 45133,-139928 0,-117357 -85755,-176031 -257275,-176031zm-2534433 1182591l198602 -331380 56423 -94795 54164 -87636 78984 -133148 76735 -128267 92536 -157610 81245 -133148 56413 -97046 63204 -103436 69954 -115107 83505 -132768 22571 0 90276 137669 139928 214772 273067 417896 216663 334390 112836 171510 142179 214783 -446857 264416 -200852 -351691 -683821 40622 -33852 69974 -36112 74095 -40623 88025 -36112 78975 -431056 -241095zm722194 -406234l383663 -22571 -189582 -379143 -40622 81245 -40623 83495 -49643 101556 -63193 135418z"/>
   <path id="1" class="fil3" d="M583055 133168l-9020 389303 -2261 150460 0 166630 0 142178 -2250 363352c76725,0 171511,-1120 284357,-3380 112837,-2260 187312,-3380 223424,-3380l0 419765 -176031 -4520 -295648 -7891 -345300 -10161 -205373 0 2260 -162119 2251 -187312 2260 -421275 -6771 -831650 528102 0zm18273670 -4510l92526 -4521 119607 -4510 257286 -13541 88015 -4520 99296 0 108326 0 205383 -11281 9020 374633 -155719 2260 -60934 0 -78995 4520 -185061 0 0 302419 173781 -9031c45132,0 80495,-380 106076,-1500 25572,-1130 67694,-4520 126378,-9781l4520 361082 -410755 -9020 0 268566c30092,0 73355,750 129778,2250 56414,1510 97416,2270 122998,2270l56423 -2270 60934 -2250 76724 -2260 60934 -2261 13541 388184 -1020082 -22572 4511 -806818 -4511 -800048zm-2044713 -45143l22582 0 541632 889194 525842 -855342 24841 0 670281 1484629 -458148 203113 -76735 -198602 -81244 -209883 -72215 -193712 -78985 -212142 -110596 164740 -142179 214402c-21061,33102 -45893,70715 -74474,112847 -36102,52663 -55664,81255 -58674,85765 -15041,22562 -30092,45133 -45132,67695 -15061,22571 -33102,48152 -54174,76734l-24821 0 -97046 -153469 -160240 -248245 -112837 -185061 -76724 -126378 -60954 205373 -56413 193701 -65454 216663 -58664 189572 -40622 -15801 -56424 -20311 -63193 -24822 -51913 -20311 -103817 -36112 -128627 -49643 148939 -381413 167010 -424286 146688 -358451 162490 -390444zm-2552483 1485009l198601 -331380 56424 -94795 54173 -87636 78975 -133148 76734 -128267 92536 -157610 81245 -133148 56423 -97046 63194 -103436 69954 -115107 83505 -132768 22582 0 90265 137669 139929 214772 273066 417896 216663 334390 112847 171510 142178 214783 -446856 264416 -200853 -351691 -683831 40622 -33852 69974 -36112 74095 -40622 88025 -36103 78975 -431065 -241095zm722193 -406234l383663 -22571 -189571 -379143 -40623 81245 -40622 83495 -49653 101556 -63194 135418zm-1047183 -630788c-171510,24071 -324230,76725 -458128,157599 -76734,43633 -137668,92156 -182801,145569 -45152,53413 -75994,112087 -92535,176791l-6771 60934c0,45132 10521,84255 31592,117347 19551,39122 42133,68844 67714,89905 51143,42123 96286,67704 135398,76725 39123,9030 71095,15431 95916,19181 24822,3770 52283,5650 82375,5650l0 -203112c0,-18061 -750,-45893 -2250,-83515 -1500,-37612 -2260,-65444 -2260,-83495l489729 0 4521 708643c-154980,33102 -306179,49653 -453628,49653 -109836,0 -211762,-6771 -305798,-20312 -94036,-13541 -183191,-38732 -267446,-75604 -84245,-36852 -162490,-87636 -234704,-151959 -42133,-37613 -82005,-96286 -119617,-176031 -37613,-79745 -56424,-159860 -56424,-241105 0,-54163 6401,-104566 19191,-151209 12791,-46652 32722,-97796 59804,-153089 27082,-55673 55293,-103446 84625,-143308 29352,-39883 65834,-81635 109467,-125258 108326,-103436 229443,-189191 363351,-256905 43623,-24072 94786,-47393 153460,-69965 31602,-12030 61313,-22561 89155,-31592 27832,-9030 57534,-18801 89135,-29341l200863 -54164 106066 441967zm-2234275 0c-171520,24071 -324239,76725 -458137,157599 -76735,43633 -137668,92156 -182801,145569 -45143,53413 -75985,112087 -92526,176791l-6780 60934c0,45132 10530,84255 31602,117347 19551,39122 42122,68844 67704,89905 51153,42123 96286,67704 135408,76725 39112,9030 71084,15431 95906,19181 24831,3770 52283,5650 82385,5650l0 -203112c0,-18061 -750,-45893 -2260,-83515 -1501,-37612 -2261,-65444 -2261,-83495l489740 0 4520 708643c-154979,33102 -306188,49653 -453637,49653 -109827,0 -211763,-6771 -305799,-20312 -94035,-13541 -183181,-38732 -267436,-75604 -84255,-36852 -162489,-87636 -234714,-151959 -42122,-37613 -81995,-96286 -119617,-176031 -37612,-79745 -56413,-159860 -56413,-241105 0,-54163 6400,-104566 19191,-151209 12791,-46652 32712,-97796 59803,-153089 27082,-55673 55284,-103446 84626,-143308 29341,-39883 65823,-81635 109456,-125258 108337,-103436 229454,-189191 363352,-256905 43633,-24072 94796,-47393 153469,-69965 31592,-12030 61304,-22561 89146,-31592 27831,-9030 57543,-18801 89145,-29341l200862 -54164 106066 441967zm-3118947 -414135l22571 -13541 67694 49653 85765 63194 76735 56423 72224 54164 146689 110586 133148 99296 243745 182801 302408 225684 0 -196342 -2250 -155719 -6771 -227944 4511 -243745 458137 9041 -11280 142178 -6771 130888 -6770 117357 -11281 200862 -11281 196352 -24831 491990 -20311 361092 -22572 9020 -261795 -189571 -259536 -194092 -318209 -243735 -284357 -218903 0 83495 0 133148 0 153470 0 449107 -449127 -18052 13550 -248244 9031 -160240 0 -112847 6770 -119617 11271 -194082 20311 -365602 9041 -207632 13541 -209893zm-1004301 15801l525842 0 -6771 322359 -6770 425786 6770 479949 6771 374262 -525842 0 4510 -721053 -4510 -881303zm-801188 0l-9021 389303 -2260 150460 0 166630 0 142178 -2250 363352c76725,0 171510,-1120 284357,-3380 112837,-2260 187312,-3380 223424,-3380l0 419765 -176031 -4520 -295648 -7891 -345300 -10161 -205373 0 2260 -162119 2250 -187312 2271 -421275 -6781 -831650 528102 0zm-1927336 -4510l92535 -4521 119598 -4510 257285 -13541 88025 -4520 99286 0 108337 0 205372 -11281 9021 374633 -155710 2260 -60933 0 -78995 4520 -185061 0 0 302419 173770 -9031c45133,0 80505,-380 106087,-1500 25561,-1130 67694,-4520 126377,-9781l4511 361082 -410745 -9020 0 268566c30092,0 73344,750 129768,2250 56423,1510 97416,2270 122997,2270l56424 -2270 60933 -2250 76735 -2260 60934 -2261 13530 388184 -1020081 -22572 4510 -806818 -4510 -800048zm-345301 1112627c0,31582 -4890,60543 -14671,86885 -9780,26332 -24451,53783 -44002,82375 -37613,51153 -78995,91015 -124128,119607 -15041,10531 -43633,27832 -85755,51913 -31602,18041 -62064,34602 -91406,49643 -29341,15051 -68834,30092 -118487,45133 -49653,15051 -106076,28592 -169260,40632 -133908,21062 -245995,31592 -336270,31592l-318209 0 9020 -624387 -2260 -482219 -6760 -509291 51903 0 142178 0 304669 6770c57183,0 105326,2251 144438,6771 43633,7530 80115,13541 109467,18051 29332,4520 62054,11291 98166,20321 36102,9021 68464,18801 97036,29332 105326,39122 178681,84255 220043,135418 41383,51143 62064,121867 62064,212133 0,49663 -21051,98176 -63184,145569 -42123,47402 -83135,83885 -122997,109456 -39873,25582 -71845,42133 -95926,49653l0 13541c43642,7520 91785,23701 144448,48523 52664,24821 100807,63574 144439,116227 43633,52653 65444,118117 65444,196352zm-821489 -212153l0 442347c61683,0 120367,-15051 176030,-45143 43643,-24072 78235,-54923 103817,-92536 24081,-30082 36112,-60933 36112,-92515 0,-31602 -9781,-62454 -29332,-92536 -15061,-28592 -46273,-55673 -93666,-81245 -47393,-25581 -111716,-38372 -192961,-38372zm0 -643199l0 428806c27081,0 60933,-9030 101556,-27092 43632,-22561 80505,-51153 110586,-85755 30092,-42122 45133,-88765 45133,-139928 0,-117357 -85755,-176031 -257275,-176031zm-2534433 1182591l198602 -331380 56423 -94795 54164 -87636 78984 -133148 76735 -128267 92536 -157610 81245 -133148 56413 -97046 63204 -103436 69954 -115107 83505 -132768 22571 0 90276 137669 139928 214772 273067 417896 216663 334390 112836 171510 142179 214783 -446857 264416 -200852 -351691 -683821 40622 -33852 69974 -36112 74095 -40623 88025 -36112 78975 -431056 -241095zm722194 -406234l383663 -22571 -189582 -379143 -40622 81245 -40623 83495 -49643 101556 -63193 135418z"/>
  </g>
 </g>
</svg>
