<?xml version="1.0" encoding="UTF-8"?>
<!DOCTYPE svg PUBLIC "-//W3C//DTD SVG 1.1//EN" "http://www.w3.org/Graphics/SVG/1.1/DTD/svg11.dtd">
<!-- Creator: CorelDRAW X7 -->
<svg xmlns="http://www.w3.org/2000/svg" xml:space="preserve" width="40.2042mm" height="16.4674mm" version="1.1" style="shape-rendering:geometricPrecision; text-rendering:geometricPrecision; image-rendering:optimizeQuality; fill-rule:evenodd; clip-rule:evenodd"
viewBox="0 0 3397607 1391640"
 xmlns:xlink="http://www.w3.org/1999/xlink">
 <defs>
  <style type="text/css">
   <![CDATA[
    .fil4 {fill:#FEFEFE}
    .fil2 {fill:#9BCED8}
    .fil3 {fill:#73C5CD}
    .fil1 {fill:#4BA7BF}
    .fil0 {fill:#33444E}
   ]]>
  </style>
 </defs>
 <g id="Layer_x0020_1">
  <metadata id="CorelCorpID_0Corel-Layer"/>
  <path class="fil0" d="M2742174 80757l-2086741 0c-360489,0 -655433,294944 -655433,655433l0 17c0,360489 294944,655433 655433,655433l2086741 0c360489,0 655433,-294944 655433,-655433l0 -17c0,-360489 -294944,-655433 -655433,-655433z"/>
  <path class="fil1" d="M2742174 0l-2086741 0c-360489,0 -655433,294952 -655433,655433l0 17c0,360497 294944,655433 655433,655433l2086741 0c360489,0 655433,-294936 655433,-655433l0 -17c0,-360481 -294944,-655433 -655433,-655433z"/>
  <path class="fil2" d="M448 678403c659,18406 2053,36626 4200,54618l3388311 0c2147,-17992 3541,-36212 4200,-54618l-3396711 0z"/>
  <path class="fil3" d="M2742166 0l-2086724 0c-360498,0 -655442,294952 -655442,655442l0 0c0,10479 270,20899 769,31268l3396069 0c499,-10369 769,-20789 769,-31268l0 0c0,-360490 -294944,-655442 -655441,-655442z"/>
  <path class="fil4" d="M2679545 166085l-1961482 0c-269161,0 -489357,220205 -489357,489357l0 0c0,269160 220196,489364 489357,489364l1961482 0c269152,0 489356,-220204 489356,-489364l0 0c0,-269152 -220204,-489357 -489356,-489357z"/>
 </g>
</svg>
